//Event file generated from Sappy .s format.
	#include "MPlayDef.event"

	#define	PokemonMDExplorersNorthernDesertRandomWizard_grp  voicegroup000
	#define	PokemonMDExplorersNorthernDesertRandomWizard_pri  0
	#define	PokemonMDExplorersNorthernDesertRandomWizard_rev  0
	#define	PokemonMDExplorersNorthernDesertRandomWizard_mvl  127
	#define	PokemonMDExplorersNorthernDesertRandomWizard_key  0
	#define	PokemonMDExplorersNorthernDesertRandomWizard_tbs  1
	#define	PokemonMDExplorersNorthernDesertRandomWizard_exg  0
	#define	PokemonMDExplorersNorthernDesertRandomWizard_cmp  1

	// .rodata
	//	PokemonMDExplorersNorthernDesertRandomWizard
	ALIGN 4


//**************** Track 1 (Midi-Chn.0) ****************//

PokemonMDExplorersNorthernDesertRandomWizard_001:
// 000   ----------------------------------------
 BYTE   KEYSH   PokemonMDExplorersNorthernDesertRandomWizard_key+0
Label_0_014C757A:
 BYTE   TEMPO   160*PokemonMDExplorersNorthernDesertRandomWizard_tbs/2
 BYTE   VOICE   39
 BYTE   PAN   c_v+0
 BYTE   VOL   21*PokemonMDExplorersNorthernDesertRandomWizard_mvl/mxv
 BYTE   BEND   c_v+0
 BYTE   N48  En1  v127
 BYTE   W24
 BYTE   W24
 BYTE   N24  Bn1
 BYTE   W24
 BYTE   N72  En2
 BYTE   W24
// 001   ----------------------------------------
 BYTE   W24
 BYTE   W24
 BYTE   N48  En1
 BYTE   W24
 BYTE   W24
// 002   ----------------------------------------
 BYTE   N24  Bn1
 BYTE   W24
 BYTE   N72  En2
 BYTE   W24
 BYTE   W24
 BYTE   W24
// 003   ----------------------------------------
 BYTE   N48  En1
 BYTE   W24
 BYTE   W24
 BYTE   N24  Bn1
 BYTE   W24
 BYTE   N72  En2
 BYTE   W24
// 004   ----------------------------------------
 BYTE   W24
 BYTE   W24
 BYTE   N48  En1
 BYTE   W24
 BYTE   W24
// 005   ----------------------------------------
 BYTE   N24  Bn1
 BYTE   W24
 BYTE   N72  En2
 BYTE   W24
 BYTE   W24
 BYTE   W24
// 006   ----------------------------------------
 BYTE   N48  En1
 BYTE   W24
 BYTE   W24
 BYTE   N24  Bn1
 BYTE   W24
 BYTE   N72  En2
 BYTE   W24
// 007   ----------------------------------------
 BYTE   W24
 BYTE   W24
 BYTE   N48  En1
 BYTE   W24
 BYTE   W24
// 008   ----------------------------------------
 BYTE   N24  Bn1
 BYTE   W24
 BYTE   N72  En2
 BYTE   W24
 BYTE   W24
 BYTE   W24
// 009   ----------------------------------------
 BYTE   N48  En1
 BYTE   W24
 BYTE   W24
 BYTE   N24  Bn1
 BYTE   W24
 BYTE   N72  En2
 BYTE   W24
// 010   ----------------------------------------
 BYTE   W24
 BYTE   W24
 BYTE   N48  Ds1
 BYTE   W24
 BYTE   W24
// 011   ----------------------------------------
 BYTE   N24  As1
 BYTE   W24
 BYTE   N72  Ds2
 BYTE   W24
 BYTE   W24
 BYTE   W24
// 012   ----------------------------------------
 BYTE   N48  Fs1
 BYTE   W24
 BYTE   W24
 BYTE   N24  Cs2
 BYTE   W24
 BYTE   N72  Fs2
 BYTE   W24
// 013   ----------------------------------------
 BYTE   W24
 BYTE   W24
 BYTE   N48  En1
 BYTE   W24
 BYTE   W24
// 014   ----------------------------------------
 BYTE   N24  Bn1
 BYTE   W24
 BYTE   N72  En2
 BYTE   W24
 BYTE   W24
 BYTE   W24
// 015   ----------------------------------------
 BYTE   N48  Dn1
 BYTE   W24
 BYTE   W24
 BYTE   N24  An1
 BYTE   W24
 BYTE   N48  Dn2
 BYTE   W24
// 016   ----------------------------------------
 BYTE   W24
 BYTE   N24  Cs1
 BYTE   W24
 BYTE   N48  Dn1
 BYTE   W24
 BYTE   W24
// 017   ----------------------------------------
 BYTE   N24  Cs1
 BYTE   W24
 BYTE   N48  Dn1
 BYTE   W24
 BYTE   W24
 BYTE   N24  Ds1
 BYTE   W24
// 018   ----------------------------------------
 BYTE   N48  En1
 BYTE   W24
 BYTE   W24
 BYTE   N24  Bn1
 BYTE   W24
 BYTE   N72  En2
 BYTE   W24
// 019   ----------------------------------------
 BYTE   W24
 BYTE   W24
 BYTE   N48  En1
 BYTE   W24
 BYTE   W24
// 020   ----------------------------------------
 BYTE   N24  Bn1
 BYTE   W24
 BYTE   N72  En2
 BYTE   W24
 BYTE   W24
 BYTE   W24
// 021   ----------------------------------------
 BYTE   N48  En1
 BYTE   W24
 BYTE   W24
 BYTE   N24  Bn1
 BYTE   W24
 BYTE   N72  En2
 BYTE   W24
// 022   ----------------------------------------
 BYTE   W24
 BYTE   W24
 BYTE   N48  Ds1
 BYTE   W24
 BYTE   W24
// 023   ----------------------------------------
 BYTE   N24  As1
 BYTE   W24
 BYTE   N72  Ds2
 BYTE   W24
 BYTE   W24
 BYTE   W24
// 024   ----------------------------------------
 BYTE   N48  Fs1
 BYTE   W24
 BYTE   W24
 BYTE   N24  Cs2
 BYTE   W24
 BYTE   N72  Fs2
 BYTE   W24
// 025   ----------------------------------------
 BYTE   W24
 BYTE   W24
 BYTE   N48  En1
 BYTE   W24
 BYTE   W24
// 026   ----------------------------------------
 BYTE   N24  Bn1
 BYTE   W24
 BYTE   N72  En2
 BYTE   W24
 BYTE   W24
 BYTE   W24
// 027   ----------------------------------------
 BYTE   N48  Dn1
 BYTE   W24
 BYTE   W24
 BYTE   N24  An1
 BYTE   W24
 BYTE   N48  Dn2
 BYTE   W24
// 028   ----------------------------------------
 BYTE   W24
 BYTE   N24  Cs1
 BYTE   W24
 BYTE   N48  Dn1
 BYTE   W24
 BYTE   W24
// 029   ----------------------------------------
 BYTE   N24  Cs1
 BYTE   W24
 BYTE   N72  Dn1
 BYTE   W24
 BYTE   W24
 BYTE   W24
// 030   ----------------------------------------
 BYTE   N48  Gn1
 BYTE   W24
 BYTE   W24
 BYTE   N24  Dn2
 BYTE   W24
 BYTE   N72  Gn2
 BYTE   W24
// 031   ----------------------------------------
 BYTE   W24
 BYTE   W24
 BYTE   N48  Dn1
 BYTE   W24
 BYTE   W24
// 032   ----------------------------------------
 BYTE   N24  An1
 BYTE   W24
 BYTE   N72  Dn2
 BYTE   W24
 BYTE   W24
 BYTE   W24
// 033   ----------------------------------------
 BYTE   N48  Gn1
 BYTE   W24
 BYTE   W24
 BYTE   N24  Dn2
 BYTE   W24
 BYTE   N72  Gn2
 BYTE   W24
// 034   ----------------------------------------
 BYTE   W24
 BYTE   W24
 BYTE   Ds1
 BYTE   W24
 BYTE   W24
// 035   ----------------------------------------
 BYTE   W24
 BYTE   En1
 BYTE   W24
 BYTE   W24
 BYTE   W24
// 036   ----------------------------------------
 BYTE   Gn1
 BYTE   W24
 BYTE   W24
 BYTE   W24
 BYTE   Dn1
 BYTE   W24
// 037   ----------------------------------------
 BYTE   W24
 BYTE   W24
 BYTE   Cs1
 BYTE   W24
 BYTE   W24
// 038   ----------------------------------------
 BYTE   W24
 BYTE   Fs1
 BYTE   W24
 BYTE   W24
 BYTE   W11
 BYTE   TEMPO   160*PokemonMDExplorersNorthernDesertRandomWizard_tbs/2
 BYTE   W09
 BYTE   TEMPO   156*PokemonMDExplorersNorthernDesertRandomWizard_tbs/2
 BYTE   W04
// 039   ----------------------------------------
 BYTE   Ds1
 BYTE   W05
 BYTE   TEMPO   152*PokemonMDExplorersNorthernDesertRandomWizard_tbs/2
 BYTE   W16
 BYTE   TEMPO   150*PokemonMDExplorersNorthernDesertRandomWizard_tbs/2
 BYTE   W03
 BYTE   W03
 BYTE   TEMPO   148*PokemonMDExplorersNorthernDesertRandomWizard_tbs/2
 BYTE   W11
 BYTE   TEMPO   146*PokemonMDExplorersNorthernDesertRandomWizard_tbs/2
 BYTE   W07
 BYTE   TEMPO   144*PokemonMDExplorersNorthernDesertRandomWizard_tbs/2
 BYTE   W03
 BYTE   W12
 BYTE   TEMPO   138*PokemonMDExplorersNorthernDesertRandomWizard_tbs/2
 BYTE   W12
 BYTE   Gs1
 BYTE   W07
 BYTE   TEMPO   136*PokemonMDExplorersNorthernDesertRandomWizard_tbs/2
 BYTE   W17
// 040   ----------------------------------------
 BYTE   W10
 BYTE   TEMPO   132*PokemonMDExplorersNorthernDesertRandomWizard_tbs/2
 BYTE   W14
 BYTE   W07
 BYTE   TEMPO   132*PokemonMDExplorersNorthernDesertRandomWizard_tbs/2
 BYTE   W17
 BYTE   N12  An0
 BYTE   W14
 BYTE   TEMPO   132*PokemonMDExplorersNorthernDesertRandomWizard_tbs/2
 BYTE   W10
 BYTE   N12
 BYTE   W04
 BYTE   TEMPO   134*PokemonMDExplorersNorthernDesertRandomWizard_tbs/2
 BYTE   W06
 BYTE   TEMPO   136*PokemonMDExplorersNorthernDesertRandomWizard_tbs/2
 BYTE   W08
 BYTE   TEMPO   138*PokemonMDExplorersNorthernDesertRandomWizard_tbs/2
 BYTE   W06
// 041   ----------------------------------------
 BYTE   W01
 BYTE   TEMPO   142*PokemonMDExplorersNorthernDesertRandomWizard_tbs/2
 BYTE   W18
 BYTE   TEMPO   144*PokemonMDExplorersNorthernDesertRandomWizard_tbs/2
 BYTE   W05
 BYTE   N12
 BYTE   W03
 BYTE   TEMPO   148*PokemonMDExplorersNorthernDesertRandomWizard_tbs/2
 BYTE   W15
 BYTE   TEMPO   150*PokemonMDExplorersNorthernDesertRandomWizard_tbs/2
 BYTE   W06
 BYTE   N12
 BYTE   W03
 BYTE   TEMPO   152*PokemonMDExplorersNorthernDesertRandomWizard_tbs/2
 BYTE   W14
 BYTE   TEMPO   156*PokemonMDExplorersNorthernDesertRandomWizard_tbs/2
 BYTE   W07
 BYTE   W01
 BYTE   TEMPO   158*PokemonMDExplorersNorthernDesertRandomWizard_tbs/2
 BYTE   W08
 BYTE   TEMPO   158*PokemonMDExplorersNorthernDesertRandomWizard_tbs/2
 BYTE   W15
// 042   ----------------------------------------
 BYTE   N12
 BYTE   W24
 BYTE   N12
 BYTE   W11
 BYTE   TEMPO   160*PokemonMDExplorersNorthernDesertRandomWizard_tbs/2
 BYTE   W13
 BYTE   W24
 BYTE   N12
 BYTE   W24
// 043   ----------------------------------------
 BYTE   N12
 BYTE   W24
 BYTE   W24
 BYTE   En1
 BYTE   W24
 BYTE   N12
 BYTE   W24
// 044   ----------------------------------------
 BYTE   W24
 BYTE   N12
 BYTE   W24
 BYTE   N12
 BYTE   W24
 BYTE   W24
// 045   ----------------------------------------
 BYTE   N12
 BYTE   W24
 BYTE   N12
 BYTE   W24
 BYTE   W24
 BYTE   N12
 BYTE   W24
// 046   ----------------------------------------
 BYTE   N12
 BYTE   W24
 BYTE   W24
 BYTE   An0
 BYTE   W24
 BYTE   N12
 BYTE   W24
// 047   ----------------------------------------
 BYTE   W24
 BYTE   N12
 BYTE   W24
 BYTE   N12
 BYTE   W24
 BYTE   W24
// 048   ----------------------------------------
 BYTE   N12
 BYTE   W24
 BYTE   N12
 BYTE   W24
 BYTE   W24
 BYTE   N12
 BYTE   W24
// 049   ----------------------------------------
 BYTE   N12
 BYTE   W24
 BYTE   W24
 BYTE   En1
 BYTE   W24
 BYTE   N12
 BYTE   W24
// 050   ----------------------------------------
 BYTE   W24
 BYTE   N12
 BYTE   W24
 BYTE   N12
 BYTE   W24
 BYTE   W24
// 051   ----------------------------------------
 BYTE   N12
 BYTE   W24
 BYTE   N12
 BYTE   W24
 BYTE   W24
 BYTE   N12
 BYTE   W24
// 052   ----------------------------------------
 BYTE   N12
 BYTE   W24
 BYTE   W24
 BYTE   Gn1
 BYTE   W24
 BYTE   N12
 BYTE   W24
// 053   ----------------------------------------
 BYTE   W24
 BYTE   N12
 BYTE   W24
 BYTE   N12
 BYTE   W24
 BYTE   W24
// 054   ----------------------------------------
 BYTE   N12
 BYTE   W24
 BYTE   N12
 BYTE   W24
 BYTE   W24
 BYTE   N12
 BYTE   W24
// 055   ----------------------------------------
 BYTE   N12
 BYTE   W24
 BYTE   W24
 BYTE   En1
 BYTE   W24
 BYTE   N12
 BYTE   W24
// 056   ----------------------------------------
 BYTE   W24
 BYTE   N12
 BYTE   W24
 BYTE   N12
 BYTE   W24
 BYTE   W24
// 057   ----------------------------------------
 BYTE   N12
 BYTE   W24
 BYTE   N12
 BYTE   W24
 BYTE   W24
 BYTE   N12
 BYTE   W24
// 058   ----------------------------------------
 BYTE   N12
 BYTE   W24
 BYTE   W24
 BYTE   Gn1
 BYTE   W24
 BYTE   N12
 BYTE   W24
// 059   ----------------------------------------
 BYTE   W24
 BYTE   Fs1
 BYTE   W24
 BYTE   N12
 BYTE   W24
 BYTE   W24
// 060   ----------------------------------------
 BYTE   En1
 BYTE   W24
 BYTE   N12
 BYTE   W24
 BYTE   W24
 BYTE   Dn1
 BYTE   W24
// 061   ----------------------------------------
 BYTE   N12
 BYTE   W24
 BYTE   W24
 BYTE   TIE  Cn1
 BYTE   W24
 BYTE   W24
// 062   ----------------------------------------
 BYTE   W24
 BYTE   W24
 BYTE   W24
 BYTE   W24
// 063   ----------------------------------------
 BYTE   EOT
 BYTE   TIE  Dn1
 BYTE   W24
 BYTE   W24
 BYTE   W24
 BYTE   W24
// 064   ----------------------------------------
 BYTE   W24
 BYTE   W24
 BYTE   EOT
 BYTE   GoTo
  POIN2 Label_0_014C757A
 BYTE   FINE

//**************** Track 2 (Midi-Chn.1) ****************//

PokemonMDExplorersNorthernDesertRandomWizard_002:
// 000   ----------------------------------------
 BYTE   KEYSH   PokemonMDExplorersNorthernDesertRandomWizard_key+0
Label_1_014C77BA:
 BYTE   VOICE   10
 BYTE   PAN   c_v+6
 BYTE   VOL   8*PokemonMDExplorersNorthernDesertRandomWizard_mvl/mxv
 BYTE   BEND   c_v+0
 BYTE   N24  Bn3  v127
 BYTE   W24
 BYTE   Fs4
 BYTE   W24
 BYTE   Cs4
 BYTE   W24
 BYTE   Dn4
 BYTE   W24
// 001   ----------------------------------------
 BYTE   N48  An3
 BYTE   W24
 BYTE   W24
 BYTE   N24  Bn3
 BYTE   W24
 BYTE   Fs4
 BYTE   W24
// 002   ----------------------------------------
 BYTE   Cs4
 BYTE   W24
 BYTE   Dn4
 BYTE   W24
 BYTE   Cs5
 BYTE   W24
 BYTE   An4
 BYTE   W24
// 003   ----------------------------------------
 BYTE   Bn3
 BYTE   W24
 BYTE   Fs4
 BYTE   W24
 BYTE   Cs4
 BYTE   W24
 BYTE   Dn4
 BYTE   W24
// 004   ----------------------------------------
 BYTE   N48  An3
 BYTE   W24
 BYTE   W24
 BYTE   N24  Bn3
 BYTE   W24
 BYTE   Fs4
 BYTE   W24
// 005   ----------------------------------------
 BYTE   Cs4
 BYTE   W24
 BYTE   Dn4
 BYTE   W24
 BYTE   Cs5
 BYTE   W24
 BYTE   An4
 BYTE   W24
// 006   ----------------------------------------
 BYTE   W24
 BYTE   W24
 BYTE   W24
 BYTE   W24
// 007   ----------------------------------------
 BYTE   W24
 BYTE   W24
 BYTE   W24
 BYTE   W24
// 008   ----------------------------------------
 BYTE   W24
 BYTE   W24
 BYTE   W24
 BYTE   W24
// 009   ----------------------------------------
 BYTE   W24
 BYTE   W24
 BYTE   W24
 BYTE   W24
// 010   ----------------------------------------
 BYTE   W24
 BYTE   W24
 BYTE   W24
 BYTE   W24
// 011   ----------------------------------------
 BYTE   W24
 BYTE   W24
 BYTE   W24
 BYTE   W24
// 012   ----------------------------------------
 BYTE   W24
 BYTE   W24
 BYTE   W24
 BYTE   W24
// 013   ----------------------------------------
 BYTE   W24
 BYTE   W24
 BYTE   W24
 BYTE   W24
// 014   ----------------------------------------
 BYTE   W24
 BYTE   W24
 BYTE   W24
 BYTE   W24
// 015   ----------------------------------------
 BYTE   W24
 BYTE   W24
 BYTE   W24
 BYTE   W24
// 016   ----------------------------------------
 BYTE   W24
 BYTE   W24
 BYTE   W24
 BYTE   W24
// 017   ----------------------------------------
 BYTE   W24
 BYTE   W24
 BYTE   W24
 BYTE   W24
// 018   ----------------------------------------
 BYTE   W24
 BYTE   W24
 BYTE   W24
 BYTE   W24
// 019   ----------------------------------------
 BYTE   W24
 BYTE   W24
 BYTE   W24
 BYTE   W24
// 020   ----------------------------------------
 BYTE   W24
 BYTE   W24
 BYTE   W24
 BYTE   W24
// 021   ----------------------------------------
 BYTE   W24
 BYTE   W24
 BYTE   W24
 BYTE   W24
// 022   ----------------------------------------
 BYTE   W24
 BYTE   W24
 BYTE   W24
 BYTE   W24
// 023   ----------------------------------------
 BYTE   W24
 BYTE   W24
 BYTE   W24
 BYTE   W24
// 024   ----------------------------------------
 BYTE   W24
 BYTE   W24
 BYTE   W24
 BYTE   W24
// 025   ----------------------------------------
 BYTE   W24
 BYTE   W24
 BYTE   W24
 BYTE   W24
// 026   ----------------------------------------
 BYTE   W24
 BYTE   W24
 BYTE   W24
 BYTE   W24
// 027   ----------------------------------------
 BYTE   W24
 BYTE   W24
 BYTE   W24
 BYTE   W24
// 028   ----------------------------------------
 BYTE   W24
 BYTE   W24
 BYTE   W24
 BYTE   W24
// 029   ----------------------------------------
 BYTE   W24
 BYTE   W24
 BYTE   W24
 BYTE   W24
// 030   ----------------------------------------
 BYTE   N48  Bn3
 BYTE   W24
 BYTE   W24
 BYTE   Fs4
 BYTE   W24
 BYTE   W24
// 031   ----------------------------------------
 BYTE   Bn4
 BYTE   W24
 BYTE   W24
 BYTE   N72  Fs4
 BYTE   W24
 BYTE   W24
// 032   ----------------------------------------
 BYTE   W24
 BYTE   N24  En4
 BYTE   W24
 BYTE   Fs4
 BYTE   W24
 BYTE   Cs4
 BYTE   W24
// 033   ----------------------------------------
 BYTE   N48  Bn3
 BYTE   W24
 BYTE   W24
 BYTE   Fs4
 BYTE   W24
 BYTE   W24
// 034   ----------------------------------------
 BYTE   Bn4
 BYTE   W24
 BYTE   W24
 BYTE   TIE  Fs4
 BYTE   W24
 BYTE   W24
// 035   ----------------------------------------
 BYTE   W24
 BYTE   W24
 BYTE   W12
 BYTE   EOT
 BYTE   W12
 BYTE   N24  Gs4
 BYTE   W24
// 036   ----------------------------------------
 BYTE   An4
 BYTE   W24
 BYTE   Gn4
 BYTE   W24
 BYTE   Fn4
 BYTE   W24
 BYTE   En4
 BYTE   W24
// 037   ----------------------------------------
 BYTE   Dn4
 BYTE   W24
 BYTE   Cn4
 BYTE   W24
 BYTE   Bn3
 BYTE   W24
 BYTE   En4
 BYTE   W24
// 038   ----------------------------------------
 BYTE   Bn4
 BYTE   W24
 BYTE   N66  En4
 BYTE   W24
 BYTE   W24
 BYTE   W24
// 039   ----------------------------------------
 BYTE   N24  Cs4
 BYTE   W24
 BYTE   Fs4
 BYTE   W24
 BYTE   Cs5
 BYTE   W24
 BYTE   N66  Fs4
 BYTE   W24
// 040   ----------------------------------------
 BYTE   W24
 BYTE   W24
 BYTE   W24
 BYTE   W24
// 041   ----------------------------------------
 BYTE   W24
 BYTE   W24
 BYTE   W24
 BYTE   W24
// 042   ----------------------------------------
 BYTE   W24
 BYTE   W24
 BYTE   W24
 BYTE   W24
// 043   ----------------------------------------
 BYTE   W24
 BYTE   W24
 BYTE   W24
 BYTE   W24
// 044   ----------------------------------------
 BYTE   W24
 BYTE   W24
 BYTE   W24
 BYTE   W24
// 045   ----------------------------------------
 BYTE   W24
 BYTE   W24
 BYTE   W24
 BYTE   W24
// 046   ----------------------------------------
 BYTE   W24
 BYTE   W24
 BYTE   W24
 BYTE   W24
// 047   ----------------------------------------
 BYTE   W24
 BYTE   W24
 BYTE   W24
 BYTE   W24
// 048   ----------------------------------------
 BYTE   W24
 BYTE   W24
 BYTE   W24
 BYTE   W24
// 049   ----------------------------------------
 BYTE   W24
 BYTE   W24
 BYTE   W24
 BYTE   W24
// 050   ----------------------------------------
 BYTE   W24
 BYTE   W24
 BYTE   W24
 BYTE   W24
// 051   ----------------------------------------
 BYTE   W24
 BYTE   W24
 BYTE   W24
 BYTE   W24
// 052   ----------------------------------------
 BYTE   W24
 BYTE   W24
 BYTE   W24
 BYTE   W24
// 053   ----------------------------------------
 BYTE   W24
 BYTE   W24
 BYTE   W24
 BYTE   W24
// 054   ----------------------------------------
 BYTE   W24
 BYTE   W24
 BYTE   W24
 BYTE   W24
// 055   ----------------------------------------
 BYTE   W24
 BYTE   W24
 BYTE   W24
 BYTE   W24
// 056   ----------------------------------------
 BYTE   W24
 BYTE   W24
 BYTE   W24
 BYTE   W24
// 057   ----------------------------------------
 BYTE   W24
 BYTE   W24
 BYTE   W24
 BYTE   W24
// 058   ----------------------------------------
 BYTE   W24
 BYTE   W24
 BYTE   W24
 BYTE   W24
// 059   ----------------------------------------
 BYTE   W24
 BYTE   W24
 BYTE   W24
 BYTE   W24
// 060   ----------------------------------------
 BYTE   W24
 BYTE   W24
 BYTE   W24
 BYTE   W24
// 061   ----------------------------------------
 BYTE   W24
 BYTE   W24
 BYTE   W24
 BYTE   W24
// 062   ----------------------------------------
 BYTE   W24
 BYTE   W24
 BYTE   W24
 BYTE   W24
// 063   ----------------------------------------
 BYTE   W24
 BYTE   W24
 BYTE   W24
 BYTE   W24
// 064   ----------------------------------------
 BYTE   W24
 BYTE   W24
 BYTE   GoTo
  POIN2 Label_1_014C77BA
 BYTE   FINE

//**************** Track 3 (Midi-Chn.2) ****************//

PokemonMDExplorersNorthernDesertRandomWizard_003:
// 000   ----------------------------------------
 BYTE   KEYSH   PokemonMDExplorersNorthernDesertRandomWizard_key+0
Label_2_014C791A:
 BYTE   VOICE   40
 BYTE   PAN   c_v+16
 BYTE   VOL   8*PokemonMDExplorersNorthernDesertRandomWizard_mvl/mxv
 BYTE   BEND   c_v+0
 BYTE   W24
Label_2_014C7923:
 BYTE   N06  Dn3  v127
 BYTE   N06  Fs3
 BYTE   W12
 BYTE   Dn3  v060
 BYTE   N06  Fs3
 BYTE   W12
 BYTE   PEND 
 BYTE   PATT
  POIN2 Label_2_014C7923
// 001   ----------------------------------------
 BYTE   N24  En3  v127
 BYTE   N24  Gn3
 BYTE   W24
Label_2_014C793A:
 BYTE   N06  Fs3  v127
 BYTE   N06  An3
 BYTE   W12
 BYTE   Fs3  v060
 BYTE   N06  An3
 BYTE   W12
 BYTE   PEND 
 BYTE   PATT
  POIN2 Label_2_014C793A
// 002   ----------------------------------------
 BYTE   W24
 BYTE   PATT
  POIN2 Label_2_014C7923
 BYTE   PATT
  POIN2 Label_2_014C7923
// 003   ----------------------------------------
 BYTE   N24  En3  v127
 BYTE   N24  Gn3
 BYTE   W24
 BYTE   PATT
  POIN2 Label_2_014C793A
 BYTE   PATT
  POIN2 Label_2_014C793A
// 004   ----------------------------------------
 BYTE   W24
 BYTE   PATT
  POIN2 Label_2_014C7923
 BYTE   PATT
  POIN2 Label_2_014C7923
// 005   ----------------------------------------
 BYTE   N24  En3  v127
 BYTE   N24  Gn3
 BYTE   W24
 BYTE   PATT
  POIN2 Label_2_014C793A
 BYTE   PATT
  POIN2 Label_2_014C793A
// 006   ----------------------------------------
 BYTE   W24
 BYTE   PATT
  POIN2 Label_2_014C7923
 BYTE   PATT
  POIN2 Label_2_014C7923
// 007   ----------------------------------------
 BYTE   N24  En3  v127
 BYTE   N24  Gn3
 BYTE   W24
 BYTE   PATT
  POIN2 Label_2_014C793A
 BYTE   PATT
  POIN2 Label_2_014C793A
// 008   ----------------------------------------
 BYTE   W24
 BYTE   PATT
  POIN2 Label_2_014C7923
 BYTE   PATT
  POIN2 Label_2_014C7923
// 009   ----------------------------------------
 BYTE   N24  En3  v127
 BYTE   N24  Gn3
 BYTE   W24
 BYTE   PATT
  POIN2 Label_2_014C793A
 BYTE   PATT
  POIN2 Label_2_014C793A
// 010   ----------------------------------------
 BYTE   W24
 BYTE   PATT
  POIN2 Label_2_014C7923
 BYTE   PATT
  POIN2 Label_2_014C7923
// 011   ----------------------------------------
 BYTE   N24  En3  v127
 BYTE   N24  Gn3
 BYTE   W24
 BYTE   PATT
  POIN2 Label_2_014C793A
 BYTE   PATT
  POIN2 Label_2_014C793A
// 012   ----------------------------------------
 BYTE   W24
 BYTE   PATT
  POIN2 Label_2_014C7923
 BYTE   PATT
  POIN2 Label_2_014C7923
// 013   ----------------------------------------
 BYTE   N24  En3  v127
 BYTE   N24  Gn3
 BYTE   W24
 BYTE   PATT
  POIN2 Label_2_014C793A
 BYTE   PATT
  POIN2 Label_2_014C793A
// 014   ----------------------------------------
 BYTE   N72  Cs3  v127
 BYTE   N72  Fn3
 BYTE   W24
 BYTE   W24
 BYTE   W24
 BYTE   Ds3
 BYTE   N72  Fs3
 BYTE   W24
// 015   ----------------------------------------
 BYTE   W24
 BYTE   W24
 BYTE   W24
 BYTE   PATT
  POIN2 Label_2_014C793A
 BYTE   PATT
  POIN2 Label_2_014C793A
// 016   ----------------------------------------
 BYTE   N24  Gs3  v127
 BYTE   N24  Bn3
 BYTE   W24
Label_2_014C7A0C:
 BYTE   N06  An3  v127
 BYTE   N06  Cs4
 BYTE   W12
 BYTE   An3  v060
 BYTE   N06  Cs4
 BYTE   W12
 BYTE   PEND 
 BYTE   PATT
  POIN2 Label_2_014C7A0C
// 017   ----------------------------------------
 BYTE   W24
Label_2_014C7A1E:
 BYTE   N06  En3  v127
 BYTE   N06  Gs3
 BYTE   W12
 BYTE   En3  v060
 BYTE   N06  Gs3
 BYTE   W12
 BYTE   PEND 
 BYTE   PATT
  POIN2 Label_2_014C7A1E
// 018   ----------------------------------------
 BYTE   N24  Fs3  v127
 BYTE   N24  An3
 BYTE   W24
Label_2_014C7A35:
 BYTE   N06  Gs3  v127
 BYTE   N06  Bn3
 BYTE   W12
 BYTE   Gs3  v060
 BYTE   N06  Bn3
 BYTE   W12
 BYTE   PEND 
 BYTE   PATT
  POIN2 Label_2_014C7A35
// 019   ----------------------------------------
 BYTE   W24
 BYTE   PATT
  POIN2 Label_2_014C7923
 BYTE   PATT
  POIN2 Label_2_014C7923
// 020   ----------------------------------------
 BYTE   N24  En3  v127
 BYTE   N24  Gn3
 BYTE   W24
 BYTE   PATT
  POIN2 Label_2_014C793A
// 021   ----------------------------------------
Label_2_014C7A5C:
 BYTE   N06  Cs3  v127
 BYTE   N06  En3
 BYTE   W12
 BYTE   Cs3  v060
 BYTE   N06  En3
 BYTE   W12
 BYTE   PEND 
 BYTE   N48  Dn3  v127
 BYTE   N48  Fs3
 BYTE   W24
 BYTE   W24
 BYTE   PATT
  POIN2 Label_2_014C7A5C
// 022   ----------------------------------------
 BYTE   N48  Dn3  v127
 BYTE   N48  Fs3
 BYTE   W24
 BYTE   W24
 BYTE   N06  Ds3
 BYTE   N06  Gn3
 BYTE   W12
 BYTE   Ds3  v060
 BYTE   N06  Gn3
 BYTE   W12
 BYTE   W24
 BYTE   PATT
  POIN2 Label_2_014C7923
 BYTE   PATT
  POIN2 Label_2_014C7923
// 023   ----------------------------------------
 BYTE   N24  En3  v127
 BYTE   N24  Gn3
 BYTE   W24
 BYTE   PATT
  POIN2 Label_2_014C793A
 BYTE   PATT
  POIN2 Label_2_014C793A
// 024   ----------------------------------------
 BYTE   W24
 BYTE   PATT
  POIN2 Label_2_014C7923
 BYTE   PATT
  POIN2 Label_2_014C7923
// 025   ----------------------------------------
 BYTE   N24  En3  v127
 BYTE   N24  Gn3
 BYTE   W24
 BYTE   PATT
  POIN2 Label_2_014C793A
 BYTE   PATT
  POIN2 Label_2_014C793A
// 026   ----------------------------------------
 BYTE   W24
 BYTE   PATT
  POIN2 Label_2_014C7923
 BYTE   PATT
  POIN2 Label_2_014C7923
// 027   ----------------------------------------
 BYTE   N24  En3  v127
 BYTE   N24  Gn3
 BYTE   W24
 BYTE   PATT
  POIN2 Label_2_014C793A
 BYTE   PATT
  POIN2 Label_2_014C793A
// 028   ----------------------------------------
 BYTE   N72  Cs3  v127
 BYTE   N72  Fn3
 BYTE   W24
 BYTE   W24
 BYTE   W24
 BYTE   Ds3
 BYTE   N72  Fs3
 BYTE   W24
// 029   ----------------------------------------
 BYTE   W24
 BYTE   W24
 BYTE   W24
 BYTE   PATT
  POIN2 Label_2_014C793A
 BYTE   PATT
  POIN2 Label_2_014C793A
// 030   ----------------------------------------
 BYTE   N24  Gs3  v127
 BYTE   N24  Bn3
 BYTE   W24
 BYTE   PATT
  POIN2 Label_2_014C7A0C
 BYTE   PATT
  POIN2 Label_2_014C7A0C
// 031   ----------------------------------------
 BYTE   W24
 BYTE   PATT
  POIN2 Label_2_014C7A1E
 BYTE   PATT
  POIN2 Label_2_014C7A1E
// 032   ----------------------------------------
 BYTE   N24  Fs3  v127
 BYTE   N24  An3
 BYTE   W24
 BYTE   PATT
  POIN2 Label_2_014C7A35
 BYTE   PATT
  POIN2 Label_2_014C7A35
// 033   ----------------------------------------
 BYTE   W24
 BYTE   PATT
  POIN2 Label_2_014C7923
 BYTE   PATT
  POIN2 Label_2_014C7923
// 034   ----------------------------------------
 BYTE   N24  En3  v127
 BYTE   N24  Gn3
 BYTE   W24
 BYTE   PATT
  POIN2 Label_2_014C793A
 BYTE   PATT
  POIN2 Label_2_014C7A5C
// 035   ----------------------------------------
 BYTE   N48  Dn3  v127
 BYTE   N48  Fs3
 BYTE   W24
 BYTE   W24
 BYTE   PATT
  POIN2 Label_2_014C7A5C
// 036   ----------------------------------------
 BYTE   N60  Dn3  v127
 BYTE   N60  Fs3
 BYTE   W24
 BYTE   W24
 BYTE   W24
 BYTE   W24
// 037   ----------------------------------------
 BYTE   W24
 BYTE   W24
 BYTE   W24
 BYTE   W24
// 038   ----------------------------------------
 BYTE   W24
 BYTE   W24
 BYTE   W24
 BYTE   W24
// 039   ----------------------------------------
 BYTE   W24
 BYTE   W24
 BYTE   W24
 BYTE   W24
// 040   ----------------------------------------
 BYTE   W24
 BYTE   W24
 BYTE   W24
 BYTE   W24
// 041   ----------------------------------------
 BYTE   W24
 BYTE   W24
 BYTE   W24
 BYTE   W24
// 042   ----------------------------------------
 BYTE   W24
 BYTE   W24
 BYTE   W24
 BYTE   W24
// 043   ----------------------------------------
 BYTE   W24
 BYTE   W24
 BYTE   W24
 BYTE   W24
// 044   ----------------------------------------
 BYTE   W24
 BYTE   W24
 BYTE   W24
 BYTE   W24
// 045   ----------------------------------------
 BYTE   W24
 BYTE   W24
 BYTE   W24
 BYTE   W24
// 046   ----------------------------------------
 BYTE   W24
 BYTE   W24
 BYTE   W24
 BYTE   W24
// 047   ----------------------------------------
 BYTE   W24
 BYTE   W24
 BYTE   N06  En3
 BYTE   N06  Gs3
 BYTE   W24
 BYTE   En3
 BYTE   N06  Gs3
 BYTE   W24
// 048   ----------------------------------------
 BYTE   En3
 BYTE   N06  Gs3
 BYTE   W24
 BYTE   N48  En3
 BYTE   N48  Gs3
 BYTE   W24
 BYTE   W24
 BYTE   W24
// 049   ----------------------------------------
 BYTE   N06  En3
 BYTE   N06  Gs3
 BYTE   W24
 BYTE   En3
 BYTE   N06  Gs3
 BYTE   W24
 BYTE   En3
 BYTE   N06  Gs3
 BYTE   W24
 BYTE   N48  En3
 BYTE   N48  Gs3
 BYTE   W24
// 050   ----------------------------------------
 BYTE   W24
 BYTE   W24
 BYTE   N06  Ds3
 BYTE   N06  Fs3
 BYTE   W24
 BYTE   Ds3
 BYTE   N06  Fs3
 BYTE   W24
// 051   ----------------------------------------
 BYTE   Ds3
 BYTE   N06  Fs3
 BYTE   W24
 BYTE   N48  Ds3
 BYTE   N44  Fs3
 BYTE   W24
 BYTE   W24
 BYTE   W24
// 052   ----------------------------------------
 BYTE   N06  Ds3
 BYTE   N06  Fs3
 BYTE   W24
 BYTE   Ds3
 BYTE   N06  Fs3
 BYTE   W24
 BYTE   Ds3
 BYTE   N06  Fs3
 BYTE   W24
 BYTE   N44  Ds3
 BYTE   N44  Fs3
 BYTE   W24
// 053   ----------------------------------------
 BYTE   W24
 BYTE   W24
 BYTE   N06  En3
 BYTE   N06  Gs3
 BYTE   W24
 BYTE   En3
 BYTE   N06  Gs3
 BYTE   W24
// 054   ----------------------------------------
 BYTE   En3
 BYTE   N06  Gs3
 BYTE   W24
 BYTE   N48  En3
 BYTE   N48  Gs3
 BYTE   W24
 BYTE   W24
 BYTE   W24
// 055   ----------------------------------------
 BYTE   N06  En3
 BYTE   N06  Gs3
 BYTE   W24
 BYTE   En3
 BYTE   N06  Gs3
 BYTE   W24
 BYTE   En3
 BYTE   N06  Gs3
 BYTE   W24
 BYTE   N48  En3
 BYTE   N48  Gs3
 BYTE   W24
// 056   ----------------------------------------
 BYTE   W24
 BYTE   W24
 BYTE   N06  Ds3
 BYTE   N06  Fs3
 BYTE   W24
 BYTE   Ds3
 BYTE   N06  Fs3
 BYTE   W24
// 057   ----------------------------------------
 BYTE   Ds3
 BYTE   N06  Fs3
 BYTE   W24
 BYTE   N44  Ds3
 BYTE   N44  Fs3
 BYTE   W24
 BYTE   W24
 BYTE   W24
// 058   ----------------------------------------
 BYTE   N06  Ds3
 BYTE   N06  Fs3
 BYTE   W24
 BYTE   Ds3
 BYTE   N06  Fs3
 BYTE   W24
 BYTE   Ds3
 BYTE   N06  Fs3
 BYTE   W24
 BYTE   N44  Ds3
 BYTE   N44  Fs3
 BYTE   W24
// 059   ----------------------------------------
 BYTE   W24
 BYTE   W24
 BYTE   N06  Dn3
 BYTE   N06  Fs3
 BYTE   W24
 BYTE   Dn3
 BYTE   N06  Fs3
 BYTE   W24
// 060   ----------------------------------------
 BYTE   Dn3
 BYTE   N06  Fs3
 BYTE   W24
 BYTE   En3
 BYTE   N06  Gn3
 BYTE   W24
 BYTE   Fs3
 BYTE   N06  An3
 BYTE   W24
 BYTE   Gn3
 BYTE   N06  Bn3
 BYTE   W24
// 061   ----------------------------------------
 BYTE   An3
 BYTE   N06  Cs4
 BYTE   W24
 BYTE   Bn3
 BYTE   N06  Dn4
 BYTE   W24
 BYTE   Cs4
 BYTE   N06  En4
 BYTE   W24
 BYTE   Bn3
 BYTE   N06  Dn4
 BYTE   W24
// 062   ----------------------------------------
 BYTE   An3
 BYTE   N06  Cs4
 BYTE   W24
 BYTE   En3
 BYTE   N06  Gs3
 BYTE   W24
Label_2_014C7C45:
 BYTE   N06  En3  v127
 BYTE   N06  Gs3
 BYTE   W12
 BYTE   En3
 BYTE   N06  Gs3
 BYTE   W12
 BYTE   PEND 
 BYTE   En3
 BYTE   N06  Gs3
 BYTE   W24
// 063   ----------------------------------------
 BYTE   Dn3
 BYTE   N06  Fs3
 BYTE   W24
 BYTE   Dn3
 BYTE   N06  Fs3
 BYTE   W12
 BYTE   Dn3
 BYTE   N06  Fs3
 BYTE   W12
 BYTE   Dn3
 BYTE   N06  Fs3
 BYTE   W24
 BYTE   Fn3
 BYTE   N06  An3
 BYTE   W24
// 064   ----------------------------------------
 BYTE   Fn3
 BYTE   N06  An3
 BYTE   W12
 BYTE   Fn3
 BYTE   N06  An3
 BYTE   W12
 BYTE   Fn3
 BYTE   N06  An3
 BYTE   W24
 BYTE   En3
 BYTE   N06  Gs3
 BYTE   W24
 BYTE   PATT
  POIN2 Label_2_014C7C45
// 065   ----------------------------------------
 BYTE   N06  En3  v127
 BYTE   N06  Gs3
 BYTE   W24
 BYTE   N72  Fs3
 BYTE   N72  Gn3
 BYTE   N72  Bn3
 BYTE   W24
 BYTE   W24
 BYTE   W24
// 066   ----------------------------------------
 BYTE   En3
 BYTE   N72  Fs3
 BYTE   N72  An3
 BYTE   W24
 BYTE   W24
 BYTE   W24
 BYTE   Dn3
 BYTE   N72  En3
 BYTE   N72  Gn3
 BYTE   W24
// 067   ----------------------------------------
 BYTE   W24
 BYTE   W24
 BYTE   N68  Dn3
 BYTE   N68  Fs3
 BYTE   N48  Bn3
 BYTE   W24
 BYTE   W24
// 068   ----------------------------------------
 BYTE   N24  An3
 BYTE   W24
 BYTE   N36  Bn3
 BYTE   W24
 BYTE   W12
 BYTE   N12  An3
 BYTE   W12
 BYTE   Gn3
 BYTE   W12
 BYTE   Fs3
 BYTE   W12
// 069   ----------------------------------------
 BYTE   N24  En3
 BYTE   W24
 BYTE   N48  Bn3
 BYTE   W24
 BYTE   W24
 BYTE   N36  An3
 BYTE   W24
// 070   ----------------------------------------
 BYTE   W12
 BYTE   N12  Gn3
 BYTE   W12
 BYTE   Fs3
 BYTE   W12
 BYTE   Gn3
 BYTE   W12
 BYTE   N24  An3
 BYTE   W24
 BYTE   N48  Dn4
 BYTE   W24
// 071   ----------------------------------------
 BYTE   W24
 BYTE   GoTo
  POIN2 Label_2_014C791A
 BYTE   FINE

//**************** Track 4 (Midi-Chn.3) ****************//

PokemonMDExplorersNorthernDesertRandomWizard_004:
// 000   ----------------------------------------
 BYTE   KEYSH   PokemonMDExplorersNorthernDesertRandomWizard_key+0
Label_3_014C7CDE:
 BYTE   VOICE   24
 BYTE   PAN   c_v-24
 BYTE   VOL   15*PokemonMDExplorersNorthernDesertRandomWizard_mvl/mxv
 BYTE   BEND   c_v+0
 BYTE   N12  En2  v127
 BYTE   W12
 BYTE   Bn2  v092
 BYTE   W12
Label_3_014C7CED:
 BYTE   N24  En3  v127
 BYTE   W12
 BYTE   N12  Bn2  v096
 BYTE   W12
 BYTE   PEND 
Label_3_014C7CF6:
 BYTE   N24  Fs3  v127
 BYTE   W12
 BYTE   N12  Bn2  v092
 BYTE   W12
 BYTE   PEND 
Label_3_014C7CFF:
 BYTE   N24  Gn3  v127
 BYTE   W12
 BYTE   N12  Bn2  v100
 BYTE   W12
 BYTE   PEND 
// 001   ----------------------------------------
Label_3_014C7D08:
 BYTE   N24  An3  v127
 BYTE   W12
 BYTE   N12  Bn2  v096
 BYTE   W12
 BYTE   PEND 
Label_3_014C7D11:
 BYTE   N24  Bn3  v127
 BYTE   W12
 BYTE   N12  Bn2  v096
 BYTE   W12
 BYTE   PEND 
Label_3_014C7D1A:
 BYTE   N12  En2  v127
 BYTE   W12
 BYTE   Bn2  v096
 BYTE   W12
 BYTE   PEND 
Label_3_014C7D22:
 BYTE   N24  En3  v127
 BYTE   W12
 BYTE   N12  Bn2  v100
 BYTE   W12
 BYTE   PEND 
// 002   ----------------------------------------
Label_3_014C7D2B:
 BYTE   N24  Fs3  v127
 BYTE   W12
 BYTE   N12  Bn2  v100
 BYTE   W12
 BYTE   PEND 
 BYTE   PATT
  POIN2 Label_3_014C7CFF
// 003   ----------------------------------------
Label_3_014C7D39:
 BYTE   N24  Cs4  v127
 BYTE   W12
 BYTE   N12  Bn2  v092
 BYTE   W12
 BYTE   PEND 
Label_3_014C7D42:
 BYTE   N24  An3  v127
 BYTE   W12
 BYTE   N12  Bn2  v100
 BYTE   W12
 BYTE   PEND 
Label_3_014C7D4B:
 BYTE   N12  En2  v127
 BYTE   W12
 BYTE   Bn2  v100
 BYTE   W12
 BYTE   PEND 
 BYTE   PATT
  POIN2 Label_3_014C7CED
// 004   ----------------------------------------
Label_3_014C7D58:
 BYTE   N24  Fs3  v127
 BYTE   W12
 BYTE   N12  Bn2  v096
 BYTE   W12
 BYTE   PEND 
Label_3_014C7D61:
 BYTE   N24  Gn3  v127
 BYTE   W12
 BYTE   N12  Bn2  v092
 BYTE   W12
 BYTE   PEND 
Label_3_014C7D6A:
 BYTE   N24  An3  v127
 BYTE   W12
 BYTE   N12  Bn2  v092
 BYTE   W12
 BYTE   PEND 
 BYTE   PATT
  POIN2 Label_3_014C7D11
// 005   ----------------------------------------
Label_3_014C7D78:
 BYTE   N12  En2  v127
 BYTE   W12
 BYTE   Bn2  v092
 BYTE   W12
 BYTE   PEND 
Label_3_014C7D80:
 BYTE   N24  En3  v127
 BYTE   W12
 BYTE   N12  Bn2  v092
 BYTE   W12
 BYTE   PEND 
 BYTE   PATT
  POIN2 Label_3_014C7D2B
// 006   ----------------------------------------
Label_3_014C7D8E:
 BYTE   N24  Gn3  v127
 BYTE   W12
 BYTE   N12  Bn2  v096
 BYTE   W12
 BYTE   PEND 
 BYTE   PATT
  POIN2 Label_3_014C7D39
 BYTE   PATT
  POIN2 Label_3_014C7D6A
 BYTE   PATT
  POIN2 Label_3_014C7D78
 BYTE   PATT
  POIN2 Label_3_014C7CED
 BYTE   PATT
  POIN2 Label_3_014C7D58
 BYTE   PATT
  POIN2 Label_3_014C7D8E
 BYTE   PATT
  POIN2 Label_3_014C7D08
 BYTE   PATT
  POIN2 Label_3_014C7D11
 BYTE   PATT
  POIN2 Label_3_014C7D78
 BYTE   PATT
  POIN2 Label_3_014C7D22
 BYTE   PATT
  POIN2 Label_3_014C7D58
 BYTE   PATT
  POIN2 Label_3_014C7D8E
 BYTE   PATT
  POIN2 Label_3_014C7D39
 BYTE   PATT
  POIN2 Label_3_014C7D08
 BYTE   PATT
  POIN2 Label_3_014C7D4B
 BYTE   PATT
  POIN2 Label_3_014C7D22
 BYTE   PATT
  POIN2 Label_3_014C7D58
 BYTE   PATT
  POIN2 Label_3_014C7D8E
 BYTE   PATT
  POIN2 Label_3_014C7D42
// 007   ----------------------------------------
Label_3_014C7DF6:
 BYTE   N24  Bn3  v127
 BYTE   W12
 BYTE   N12  Bn2  v100
 BYTE   W12
 BYTE   PEND 
 BYTE   Ds2  v127
 BYTE   W12
 BYTE   As2  v100
 BYTE   W12
 BYTE   N24  Ds3  v127
 BYTE   W12
 BYTE   N12  As2  v100
 BYTE   W12
 BYTE   N24  Fn3  v127
 BYTE   W12
 BYTE   N12  As2  v096
 BYTE   W12
// 008   ----------------------------------------
 BYTE   N24  Fs3  v127
 BYTE   W12
 BYTE   N12  As2  v092
 BYTE   W12
Label_3_014C7E1D:
 BYTE   N24  Cn4  v127
 BYTE   W12
 BYTE   N12  As2  v096
 BYTE   W12
 BYTE   PEND 
 BYTE   N24  Gs3  v127
 BYTE   W12
 BYTE   N12  As2  v092
 BYTE   W12
Label_3_014C7E2E:
 BYTE   N12  Fs2  v127
 BYTE   W12
 BYTE   Cs3  v100
 BYTE   W12
 BYTE   PEND 
// 009   ----------------------------------------
Label_3_014C7E36:
 BYTE   N24  Fs3  v127
 BYTE   W12
 BYTE   N12  Cs3  v092
 BYTE   W12
 BYTE   PEND 
 BYTE   N24  Gs3  v127
 BYTE   W12
 BYTE   N12  Cs3  v100
 BYTE   W12
 BYTE   N24  An3  v127
 BYTE   W12
 BYTE   N12  Cs3  v100
 BYTE   W12
Label_3_014C7E4F:
 BYTE   N24  Bn3  v127
 BYTE   W12
 BYTE   N12  Cs3  v100
 BYTE   W12
 BYTE   PEND 
// 010   ----------------------------------------
 BYTE   N24  Cs4  v127
 BYTE   W12
 BYTE   N12  Cs3  v100
 BYTE   W12
Label_3_014C7E60:
 BYTE   N12  En1  v127
 BYTE   W12
 BYTE   En2  v096
 BYTE   W12
 BYTE   PEND 
Label_3_014C7E68:
 BYTE   N24  Bn2  v127
 BYTE   W12
 BYTE   N12  En2  v096
 BYTE   W12
 BYTE   PEND 
 BYTE   N24  Cs3  v127
 BYTE   W12
 BYTE   N12  En2  v092
 BYTE   W12
// 011   ----------------------------------------
 BYTE   N24  Ds3  v127
 BYTE   W12
 BYTE   N12  En2  v092
 BYTE   W12
 BYTE   PATT
  POIN2 Label_3_014C7E68
// 012   ----------------------------------------
Label_3_014C7E86:
 BYTE   N24  Gs3  v127
 BYTE   W12
 BYTE   N12  En2  v100
 BYTE   W12
 BYTE   PEND 
Label_3_014C7E8F:
 BYTE   N12  Dn2  v127
 BYTE   N24  Fs3
 BYTE   W12
 BYTE   Cs3
 BYTE   W12
 BYTE   PEND 
Label_3_014C7E98:
 BYTE   N24  An2  v127
 BYTE   W12
 BYTE   Fs2
 BYTE   W12
 BYTE   PEND 
Label_3_014C7E9F:
 BYTE   N12  Dn2  v127
 BYTE   W12
 BYTE   N24  Fs2
 BYTE   W12
 BYTE   PEND 
 BYTE   PATT
  POIN2 Label_3_014C7E98
// 013   ----------------------------------------
Label_3_014C7EAC:
 BYTE   N24  An2  v127
 BYTE   W12
 BYTE   Cs3
 BYTE   W12
 BYTE   PEND 
Label_3_014C7EB3:
 BYTE   N12  Cs2  v127
 BYTE   N24  Bn2
 BYTE   N24  En3
 BYTE   W24
 BYTE   PEND 
Label_3_014C7EBC:
 BYTE   N12  Dn2  v127
 BYTE   N24  Cs3
 BYTE   N24  Fs3
 BYTE   W24
 BYTE   PEND 
 BYTE   W24
 BYTE   PATT
  POIN2 Label_3_014C7EB3
 BYTE   PATT
  POIN2 Label_3_014C7EBC
// 014   ----------------------------------------
 BYTE   W24
 BYTE   N12  Ds2  v127
 BYTE   N24  Dn3
 BYTE   N24  Gn3
 BYTE   W24
 BYTE   PATT
  POIN2 Label_3_014C7D1A
 BYTE   PATT
  POIN2 Label_3_014C7CED
 BYTE   PATT
  POIN2 Label_3_014C7CF6
 BYTE   PATT
  POIN2 Label_3_014C7D8E
 BYTE   PATT
  POIN2 Label_3_014C7D42
// 015   ----------------------------------------
 BYTE   N24  Bn3  v127
 BYTE   W12
 BYTE   N12  Bn2  v092
 BYTE   W12
 BYTE   PATT
  POIN2 Label_3_014C7D1A
 BYTE   PATT
  POIN2 Label_3_014C7D80
 BYTE   PATT
  POIN2 Label_3_014C7D2B
 BYTE   PATT
  POIN2 Label_3_014C7D61
 BYTE   PATT
  POIN2 Label_3_014C7D39
 BYTE   PATT
  POIN2 Label_3_014C7D42
 BYTE   PATT
  POIN2 Label_3_014C7D1A
 BYTE   PATT
  POIN2 Label_3_014C7CED
 BYTE   PATT
  POIN2 Label_3_014C7D58
 BYTE   PATT
  POIN2 Label_3_014C7CFF
 BYTE   PATT
  POIN2 Label_3_014C7D42
 BYTE   PATT
  POIN2 Label_3_014C7DF6
// 016   ----------------------------------------
 BYTE   N12  Ds2  v127
 BYTE   W12
 BYTE   As2  v096
 BYTE   W12
 BYTE   N24  Ds3  v127
 BYTE   W12
 BYTE   N12  As2  v092
 BYTE   W12
 BYTE   N24  Fn3  v127
 BYTE   W12
 BYTE   N12  As2  v100
 BYTE   W12
 BYTE   N24  Fs3  v127
 BYTE   W12
 BYTE   N12  As2  v096
 BYTE   W12
 BYTE   PATT
  POIN2 Label_3_014C7E1D
// 017   ----------------------------------------
 BYTE   N24  Gs3  v127
 BYTE   W12
 BYTE   N12  As2  v100
 BYTE   W12
 BYTE   PATT
  POIN2 Label_3_014C7E2E
 BYTE   PATT
  POIN2 Label_3_014C7E36
// 018   ----------------------------------------
 BYTE   N24  Gs3  v127
 BYTE   W12
 BYTE   N12  Cs3  v096
 BYTE   W12
 BYTE   N24  An3  v127
 BYTE   W12
 BYTE   N12  Cs3  v096
 BYTE   W12
 BYTE   PATT
  POIN2 Label_3_014C7E4F
// 019   ----------------------------------------
 BYTE   N24  Cs4  v127
 BYTE   W12
 BYTE   N12  Cs3  v096
 BYTE   W12
 BYTE   PATT
  POIN2 Label_3_014C7E60
// 020   ----------------------------------------
 BYTE   N24  Bn2  v127
 BYTE   W12
 BYTE   N12  En2  v100
 BYTE   W12
 BYTE   N24  Cs3  v127
 BYTE   W12
 BYTE   N12  En2  v100
 BYTE   W12
 BYTE   N24  Ds3  v127
 BYTE   W12
 BYTE   N12  En2  v096
 BYTE   W12
 BYTE   N24  Bn2  v127
 BYTE   W12
 BYTE   N12  En2  v092
 BYTE   W12
 BYTE   PATT
  POIN2 Label_3_014C7E86
 BYTE   PATT
  POIN2 Label_3_014C7E8F
 BYTE   PATT
  POIN2 Label_3_014C7E98
 BYTE   PATT
  POIN2 Label_3_014C7E9F
 BYTE   PATT
  POIN2 Label_3_014C7E98
 BYTE   PATT
  POIN2 Label_3_014C7EAC
 BYTE   PATT
  POIN2 Label_3_014C7EB3
 BYTE   PATT
  POIN2 Label_3_014C7EBC
// 021   ----------------------------------------
 BYTE   W24
 BYTE   PATT
  POIN2 Label_3_014C7EB3
// 022   ----------------------------------------
 BYTE   N56  Dn2  v127
 BYTE   N56  Cs3
 BYTE   N56  Fs3
 BYTE   W24
 BYTE   W24
 BYTE   W24
Label_3_014C7FE6:
 BYTE   N09  Gn1  v127
 BYTE   W12
 BYTE   Gn2
 BYTE   W12
 BYTE   PEND 
// 023   ----------------------------------------
Label_3_014C7FED:
 BYTE   N09  Bn2  v127
 BYTE   W12
 BYTE   Dn3
 BYTE   W12
 BYTE   PEND 
Label_3_014C7FF4:
 BYTE   N09  Fs3  v127
 BYTE   W12
 BYTE   An3
 BYTE   W12
 BYTE   PEND 
Label_3_014C7FFB:
 BYTE   N09  Bn3  v127
 BYTE   W12
 BYTE   An3
 BYTE   W12
 BYTE   PEND 
Label_3_014C8002:
 BYTE   N09  Fs3  v127
 BYTE   W12
 BYTE   Dn3
 BYTE   W12
 BYTE   PEND 
// 024   ----------------------------------------
Label_3_014C8009:
 BYTE   N09  Bn2  v127
 BYTE   W12
 BYTE   Gn2
 BYTE   W12
 BYTE   PEND 
 BYTE   Dn2
 BYTE   W12
 BYTE   Dn3
 BYTE   W12
 BYTE   En3
 BYTE   W12
 BYTE   Fs3
 BYTE   W12
 BYTE   An3
 BYTE   W12
 BYTE   Cs4
 BYTE   W12
// 025   ----------------------------------------
 BYTE   En4
 BYTE   W12
 BYTE   Cs4
 BYTE   W12
 BYTE   An3
 BYTE   W12
 BYTE   Fs3
 BYTE   W12
 BYTE   En3
 BYTE   W12
 BYTE   Cs3
 BYTE   W12
 BYTE   PATT
  POIN2 Label_3_014C7FE6
 BYTE   PATT
  POIN2 Label_3_014C7FED
 BYTE   PATT
  POIN2 Label_3_014C7FF4
 BYTE   PATT
  POIN2 Label_3_014C7FFB
 BYTE   PATT
  POIN2 Label_3_014C8002
 BYTE   PATT
  POIN2 Label_3_014C8009
// 026   ----------------------------------------
 BYTE   N09  Ds2  v127
 BYTE   W12
 BYTE   Fs2
 BYTE   W12
 BYTE   As2
 BYTE   W12
 BYTE   Cs3
 BYTE   W12
 BYTE   Ds3
 BYTE   W12
 BYTE   Fs3
 BYTE   W12
 BYTE   En2
 BYTE   W12
 BYTE   Bn2
 BYTE   W12
// 027   ----------------------------------------
 BYTE   Dn3
 BYTE   W12
 BYTE   Fs3
 BYTE   W12
Label_3_014C805C:
 BYTE   N09  Gs3  v127
 BYTE   W12
 BYTE   En3
 BYTE   W12
 BYTE   PEND 
 BYTE   Gn2
 BYTE   W12
 BYTE   Dn3
 BYTE   W12
 BYTE   Fn3
 BYTE   W12
 BYTE   As3
 BYTE   W12
// 028   ----------------------------------------
 BYTE   Dn4
 BYTE   W12
 BYTE   As3
 BYTE   W12
 BYTE   Dn2
 BYTE   W12
 BYTE   An2
 BYTE   W12
 BYTE   Cn3
 BYTE   W12
 BYTE   Fn3
 BYTE   W12
 BYTE   An3
 BYTE   W12
 BYTE   Fn3
 BYTE   W12
// 029   ----------------------------------------
 BYTE   Cs2
 BYTE   W12
 BYTE   Gs2
 BYTE   W12
 BYTE   Bn2
 BYTE   W12
 BYTE   En3
 BYTE   W12
 BYTE   PATT
  POIN2 Label_3_014C805C
// 030   ----------------------------------------
 BYTE   N09  Fs2  v127
 BYTE   W12
 BYTE   Cs3
 BYTE   W12
 BYTE   En3
 BYTE   W12
 BYTE   An3
 BYTE   W12
 BYTE   Cs4
 BYTE   W12
 BYTE   An3
 BYTE   W12
 BYTE   Ds2
 BYTE   W12
 BYTE   As2
 BYTE   W12
// 031   ----------------------------------------
 BYTE   Cs3
 BYTE   W12
 BYTE   Fs3  v124
 BYTE   W12
 BYTE   As3
 BYTE   W12
 BYTE   Fs3  v120
 BYTE   W12
 BYTE   Gs2  v116
 BYTE   W12
 BYTE   Ds3  v112
 BYTE   W12
 BYTE   Fs3  v108
 BYTE   W12
 BYTE   Bn3  v104
 BYTE   W12
// 032   ----------------------------------------
 BYTE   Ds4  v100
 BYTE   W12
 BYTE   N03  Bn3  v092
 BYTE   W12
Label_3_014C80B7:
 BYTE   N18  An2  v088
 BYTE   N18  Cs3
 BYTE   N18  Gs3
 BYTE   W24
 BYTE   PEND 
 BYTE   Bn2  v092
 BYTE   N18  En3
 BYTE   W24
 BYTE   An2  v096
 BYTE   N18  Cs3
 BYTE   N18  Gs3
 BYTE   W24
// 033   ----------------------------------------
 BYTE   Bn2  v100
 BYTE   N18  En3
 BYTE   W24
 BYTE   An2  v104
 BYTE   N18  Cs3
 BYTE   N18  Gs3
 BYTE   W24
 BYTE   Bn2  v108
 BYTE   N18  En3
 BYTE   W24
Label_3_014C80DD:
 BYTE   N18  An2  v108
 BYTE   N18  Cs3
 BYTE   N18  Gs3
 BYTE   W24
 BYTE   PEND 
// 034   ----------------------------------------
 BYTE   Bn2  v112
 BYTE   N18  En3
 BYTE   W24
 BYTE   An2  v116
 BYTE   N18  Cs3
 BYTE   N18  Gs3
 BYTE   W24
 BYTE   Bn2  v120
 BYTE   N18  En3
 BYTE   W24
 BYTE   An2  v124
 BYTE   N18  Cs3
 BYTE   N18  Gs3
 BYTE   W24
// 035   ----------------------------------------
 BYTE   Bn2  v127
 BYTE   N18  En3
 BYTE   W24
Label_3_014C8103:
 BYTE   N18  En2  v127
 BYTE   N18  Gs2
 BYTE   N18  Cs3
 BYTE   W24
 BYTE   PEND 
Label_3_014C810C:
 BYTE   N18  Fs2  v127
 BYTE   N18  Bn2
 BYTE   N18  Ds3
 BYTE   W24
 BYTE   PEND 
 BYTE   PATT
  POIN2 Label_3_014C8103
// 036   ----------------------------------------
Label_3_014C811A:
 BYTE   N18  Fs2  v124
 BYTE   N18  Bn2
 BYTE   N18  Ds3
 BYTE   W24
 BYTE   PEND 
Label_3_014C8123:
 BYTE   N18  En2  v120
 BYTE   N18  Gs2
 BYTE   N18  Cs3
 BYTE   W24
 BYTE   PEND 
Label_3_014C812C:
 BYTE   N18  Fs2  v116
 BYTE   N18  Bn2
 BYTE   N18  Ds3
 BYTE   W24
 BYTE   PEND 
Label_3_014C8135:
 BYTE   N18  En2  v108
 BYTE   N18  Gs2
 BYTE   N18  Cs3
 BYTE   W24
 BYTE   PEND 
// 037   ----------------------------------------
Label_3_014C813E:
 BYTE   N18  Fs2  v108
 BYTE   N18  Bn2
 BYTE   N18  Ds3
 BYTE   W24
 BYTE   PEND 
 BYTE   En2  v104
 BYTE   N18  Gs2
 BYTE   N18  Cs3
 BYTE   W24
Label_3_014C814E:
 BYTE   N18  Fs2  v096
 BYTE   N18  Bn2
 BYTE   N18  Ds3
 BYTE   W24
 BYTE   PEND 
 BYTE   En2  v092
 BYTE   N18  Gs2
 BYTE   N18  Cs3
 BYTE   W24
// 038   ----------------------------------------
 BYTE   Fs2  v088
 BYTE   N18  Bn2
 BYTE   N18  Ds3
 BYTE   W24
 BYTE   PATT
  POIN2 Label_3_014C80B7
// 039   ----------------------------------------
 BYTE   N18  Bn2  v088
 BYTE   N18  En3
 BYTE   W24
 BYTE   An2  v092
 BYTE   N18  Cs3
 BYTE   N18  Gs3
 BYTE   W24
 BYTE   Bn2  v096
 BYTE   N18  En3
 BYTE   W24
 BYTE   An2  v100
 BYTE   N18  Cs3
 BYTE   N18  Gs3
 BYTE   W24
// 040   ----------------------------------------
 BYTE   Bn2  v104
 BYTE   N18  En3
 BYTE   W24
 BYTE   PATT
  POIN2 Label_3_014C80DD
// 041   ----------------------------------------
 BYTE   N18  Bn2  v108
 BYTE   N18  En3
 BYTE   W24
 BYTE   An2  v112
 BYTE   N18  Cs3
 BYTE   N18  Gs3
 BYTE   W24
 BYTE   Bn2  v116
 BYTE   N18  En3
 BYTE   W24
 BYTE   An2  v120
 BYTE   N18  Cs3
 BYTE   N18  Gs3
 BYTE   W24
// 042   ----------------------------------------
 BYTE   Bn2  v124
 BYTE   N18  En3
 BYTE   W24
 BYTE   PATT
  POIN2 Label_3_014C8103
 BYTE   PATT
  POIN2 Label_3_014C810C
 BYTE   PATT
  POIN2 Label_3_014C8103
 BYTE   PATT
  POIN2 Label_3_014C811A
 BYTE   PATT
  POIN2 Label_3_014C8123
 BYTE   PATT
  POIN2 Label_3_014C812C
// 043   ----------------------------------------
 BYTE   N18  En2  v112
 BYTE   N18  Gs2
 BYTE   N18  Cs3
 BYTE   W24
 BYTE   PATT
  POIN2 Label_3_014C813E
 BYTE   PATT
  POIN2 Label_3_014C8135
// 044   ----------------------------------------
 BYTE   N18  Fs2  v104
 BYTE   N18  Bn2
 BYTE   N18  Ds3
 BYTE   W24
 BYTE   En2  v100
 BYTE   N18  Gs2
 BYTE   N18  Cs3
 BYTE   W24
 BYTE   PATT
  POIN2 Label_3_014C814E
// 045   ----------------------------------------
Label_3_014C81EF:
 BYTE   N18  Gn2  v100
 BYTE   N18  Bn2
 BYTE   N18  Fs3
 BYTE   W24
 BYTE   PEND 
 BYTE   An2  v104
 BYTE   N18  Dn3
 BYTE   W24
 BYTE   Gn2
 BYTE   N18  Bn2
 BYTE   N18  Fs3
 BYTE   W24
 BYTE   An2  v108
 BYTE   N18  Dn3
 BYTE   W24
// 046   ----------------------------------------
 BYTE   Gn2
 BYTE   N18  Bn2
 BYTE   N18  Fs3
 BYTE   W24
 BYTE   An2  v112
 BYTE   N18  Dn3
 BYTE   W24
 BYTE   Gn2  v116
 BYTE   N18  Bn2
 BYTE   N18  Fs3
 BYTE   W24
 BYTE   An2  v120
 BYTE   N18  Dn3
 BYTE   W24
// 047   ----------------------------------------
 BYTE   Gn2
 BYTE   N18  Bn2
 BYTE   N18  Fs3
 BYTE   W24
 BYTE   An2  v124
 BYTE   N18  Dn3
 BYTE   W24
 BYTE   Gn2  v127
 BYTE   N18  Bn2
 BYTE   N18  Fs3
 BYTE   W24
 BYTE   An2
 BYTE   N18  Dn3
 BYTE   W24
// 048   ----------------------------------------
Label_3_014C8235:
 BYTE   N18  En2  v127
 BYTE   W12
 BYTE   Gs2
 BYTE   W12
 BYTE   PEND 
Label_3_014C823C:
 BYTE   N18  Bn2  v127
 BYTE   W12
 BYTE   En3
 BYTE   W12
 BYTE   PEND 
 BYTE   Gs3
 BYTE   W24
 BYTE   PATT
  POIN2 Label_3_014C8235
// 049   ----------------------------------------
 BYTE   N18  Bn2  v127
 BYTE   W12
 BYTE   Dn3
 BYTE   W12
 BYTE   Fs3
 BYTE   W24
 BYTE   En2
 BYTE   W12
 BYTE   Bn2
 BYTE   W12
 BYTE   Dn3
 BYTE   W12
 BYTE   Fn3
 BYTE   W12
// 050   ----------------------------------------
 BYTE   An3
 BYTE   W24
 BYTE   PATT
  POIN2 Label_3_014C8235
 BYTE   PATT
  POIN2 Label_3_014C823C
// 051   ----------------------------------------
 BYTE   N18  Gs3  v127
 BYTE   W24
 BYTE   Gn2  v096
 BYTE   N18  Bn2
 BYTE   N18  Fs3
 BYTE   W24
 BYTE   An2  v100
 BYTE   N18  Dn3
 BYTE   W24
 BYTE   PATT
  POIN2 Label_3_014C81EF
// 052   ----------------------------------------
 BYTE   N18  Fs2  v104
 BYTE   N18  An2
 BYTE   N18  Cs3
 BYTE   W24
 BYTE   Fs2  v108
 BYTE   N18  Bn2
 BYTE   N18  Dn3
 BYTE   W24
 BYTE   Fs2
 BYTE   N18  Cs3
 BYTE   N18  En3
 BYTE   W24
 BYTE   En2  v112
 BYTE   N18  Bn2
 BYTE   N18  Dn3
 BYTE   W24
// 053   ----------------------------------------
 BYTE   En2  v116
 BYTE   N18  Cs3
 BYTE   N18  En3
 BYTE   W24
 BYTE   En2
 BYTE   N18  Dn3
 BYTE   N18  Fs3
 BYTE   W24
 BYTE   Dn2  v120
 BYTE   N18  En3
 BYTE   N18  Gn3
 BYTE   W24
 BYTE   Dn2  v124
 BYTE   N18  Fs3
 BYTE   N18  An3
 BYTE   W24
// 054   ----------------------------------------
 BYTE   Dn2  v127
 BYTE   N18  Gn3
 BYTE   N18  Bn3
 BYTE   W24
 BYTE   Cn2
 BYTE   N18  En4
 BYTE   W24
 BYTE   Gn2
 BYTE   N18  Gn3
 BYTE   W24
 BYTE   Cn3
 BYTE   N18  En3
 BYTE   W24
// 055   ----------------------------------------
 BYTE   Bn2
 BYTE   W24
 BYTE   Cn3
 BYTE   W24
 BYTE   En3
 BYTE   W24
 BYTE   Fs3
 BYTE   W24
// 056   ----------------------------------------
 BYTE   Gn3
 BYTE   W24
 BYTE   An3
 BYTE   W24
 BYTE   N18
 BYTE   W24
 BYTE   Bn3
 BYTE   W24
// 057   ----------------------------------------
 BYTE   Cn4
 BYTE   W24
 BYTE   GoTo
  POIN2 Label_3_014C7CDE
 BYTE   FINE

//**************** Track 5 (Midi-Chn.4) ****************//

PokemonMDExplorersNorthernDesertRandomWizard_005:
// 000   ----------------------------------------
 BYTE   KEYSH   PokemonMDExplorersNorthernDesertRandomWizard_key+0
Label_4_014C82EA:
 BYTE   VOICE   24
 BYTE   PAN   c_v+26
 BYTE   VOL   5*PokemonMDExplorersNorthernDesertRandomWizard_mvl/mxv
 BYTE   BEND   c_v+0
 BYTE   W03
 BYTE   N12  En2  v127
 BYTE   W12
 BYTE   Bn2  v092
 BYTE   W09
Label_4_014C82FA:
 BYTE   W03
 BYTE   N24  En3  v127
 BYTE   W12
 BYTE   N12  Bn2  v096
 BYTE   W09
 BYTE   PEND 
Label_4_014C8304:
 BYTE   W03
 BYTE   N24  Fs3  v127
 BYTE   W12
 BYTE   N12  Bn2  v092
 BYTE   W09
 BYTE   PEND 
Label_4_014C830E:
 BYTE   W03
 BYTE   N24  Gn3  v127
 BYTE   W12
 BYTE   N12  Bn2  v100
 BYTE   W09
 BYTE   PEND 
// 001   ----------------------------------------
Label_4_014C8318:
 BYTE   W03
 BYTE   N24  An3  v127
 BYTE   W12
 BYTE   N12  Bn2  v096
 BYTE   W09
 BYTE   PEND 
Label_4_014C8322:
 BYTE   W03
 BYTE   N24  Bn3  v127
 BYTE   W12
 BYTE   N12  Bn2  v096
 BYTE   W09
 BYTE   PEND 
Label_4_014C832C:
 BYTE   W03
 BYTE   N12  En2  v127
 BYTE   W12
 BYTE   Bn2  v096
 BYTE   W09
 BYTE   PEND 
Label_4_014C8335:
 BYTE   W03
 BYTE   N24  En3  v127
 BYTE   W12
 BYTE   N12  Bn2  v100
 BYTE   W09
 BYTE   PEND 
// 002   ----------------------------------------
Label_4_014C833F:
 BYTE   W03
 BYTE   N24  Fs3  v127
 BYTE   W12
 BYTE   N12  Bn2  v100
 BYTE   W09
 BYTE   PEND 
 BYTE   PATT
  POIN2 Label_4_014C830E
// 003   ----------------------------------------
Label_4_014C834E:
 BYTE   W03
 BYTE   N24  Cs4  v127
 BYTE   W12
 BYTE   N12  Bn2  v092
 BYTE   W09
 BYTE   PEND 
Label_4_014C8358:
 BYTE   W03
 BYTE   N24  An3  v127
 BYTE   W12
 BYTE   N12  Bn2  v100
 BYTE   W09
 BYTE   PEND 
Label_4_014C8362:
 BYTE   W03
 BYTE   N12  En2  v127
 BYTE   W12
 BYTE   Bn2  v100
 BYTE   W09
 BYTE   PEND 
 BYTE   PATT
  POIN2 Label_4_014C82FA
// 004   ----------------------------------------
Label_4_014C8370:
 BYTE   W03
 BYTE   N24  Fs3  v127
 BYTE   W12
 BYTE   N12  Bn2  v096
 BYTE   W09
 BYTE   PEND 
Label_4_014C837A:
 BYTE   W03
 BYTE   N24  Gn3  v127
 BYTE   W12
 BYTE   N12  Bn2  v092
 BYTE   W09
 BYTE   PEND 
Label_4_014C8384:
 BYTE   W03
 BYTE   N24  An3  v127
 BYTE   W12
 BYTE   N12  Bn2  v092
 BYTE   W09
 BYTE   PEND 
 BYTE   PATT
  POIN2 Label_4_014C8322
// 005   ----------------------------------------
Label_4_014C8393:
 BYTE   W03
 BYTE   N12  En2  v127
 BYTE   W12
 BYTE   Bn2  v092
 BYTE   W09
 BYTE   PEND 
Label_4_014C839C:
 BYTE   W03
 BYTE   N24  En3  v127
 BYTE   W12
 BYTE   N12  Bn2  v092
 BYTE   W09
 BYTE   PEND 
 BYTE   PATT
  POIN2 Label_4_014C833F
// 006   ----------------------------------------
Label_4_014C83AB:
 BYTE   W03
 BYTE   N24  Gn3  v127
 BYTE   W12
 BYTE   N12  Bn2  v096
 BYTE   W09
 BYTE   PEND 
 BYTE   PATT
  POIN2 Label_4_014C834E
 BYTE   PATT
  POIN2 Label_4_014C8384
 BYTE   PATT
  POIN2 Label_4_014C8393
 BYTE   PATT
  POIN2 Label_4_014C82FA
 BYTE   PATT
  POIN2 Label_4_014C8370
 BYTE   PATT
  POIN2 Label_4_014C83AB
 BYTE   PATT
  POIN2 Label_4_014C8318
 BYTE   PATT
  POIN2 Label_4_014C8322
 BYTE   PATT
  POIN2 Label_4_014C8393
 BYTE   PATT
  POIN2 Label_4_014C8335
 BYTE   PATT
  POIN2 Label_4_014C8370
 BYTE   PATT
  POIN2 Label_4_014C83AB
 BYTE   PATT
  POIN2 Label_4_014C834E
 BYTE   PATT
  POIN2 Label_4_014C8318
 BYTE   PATT
  POIN2 Label_4_014C8362
 BYTE   PATT
  POIN2 Label_4_014C8335
 BYTE   PATT
  POIN2 Label_4_014C8370
 BYTE   PATT
  POIN2 Label_4_014C83AB
 BYTE   PATT
  POIN2 Label_4_014C8358
// 007   ----------------------------------------
Label_4_014C8414:
 BYTE   W03
 BYTE   N24  Bn3  v127
 BYTE   W12
 BYTE   N12  Bn2  v100
 BYTE   W09
 BYTE   PEND 
 BYTE   W03
 BYTE   Ds2  v127
 BYTE   W12
 BYTE   As2  v100
 BYTE   W09
 BYTE   W03
 BYTE   N24  Ds3  v127
 BYTE   W12
 BYTE   N12  As2  v100
 BYTE   W09
 BYTE   W03
 BYTE   N24  Fn3  v127
 BYTE   W12
 BYTE   N12  As2  v096
 BYTE   W09
// 008   ----------------------------------------
 BYTE   W03
 BYTE   N24  Fs3  v127
 BYTE   W12
 BYTE   N12  As2  v092
 BYTE   W09
Label_4_014C8440:
 BYTE   W03
 BYTE   N24  Cn4  v127
 BYTE   W12
 BYTE   N12  As2  v096
 BYTE   W09
 BYTE   PEND 
 BYTE   W03
 BYTE   N24  Gs3  v127
 BYTE   W12
 BYTE   N12  As2  v092
 BYTE   W09
Label_4_014C8453:
 BYTE   W03
 BYTE   N12  Fs2  v127
 BYTE   W12
 BYTE   Cs3  v100
 BYTE   W09
 BYTE   PEND 
// 009   ----------------------------------------
Label_4_014C845C:
 BYTE   W03
 BYTE   N24  Fs3  v127
 BYTE   W12
 BYTE   N12  Cs3  v092
 BYTE   W09
 BYTE   PEND 
 BYTE   W03
 BYTE   N24  Gs3  v127
 BYTE   W12
 BYTE   N12  Cs3  v100
 BYTE   W09
 BYTE   W03
 BYTE   N24  An3  v127
 BYTE   W12
 BYTE   N12  Cs3  v100
 BYTE   W09
Label_4_014C8478:
 BYTE   W03
 BYTE   N24  Bn3  v127
 BYTE   W12
 BYTE   N12  Cs3  v100
 BYTE   W09
 BYTE   PEND 
// 010   ----------------------------------------
 BYTE   W03
 BYTE   N24  Cs4  v127
 BYTE   W12
 BYTE   N12  Cs3  v100
 BYTE   W09
Label_4_014C848B:
 BYTE   W03
 BYTE   N12  En1  v127
 BYTE   W12
 BYTE   En2  v096
 BYTE   W09
 BYTE   PEND 
Label_4_014C8494:
 BYTE   W03
 BYTE   N24  Bn2  v127
 BYTE   W12
 BYTE   N12  En2  v096
 BYTE   W09
 BYTE   PEND 
 BYTE   W03
 BYTE   N24  Cs3  v127
 BYTE   W12
 BYTE   N12  En2  v092
 BYTE   W09
// 011   ----------------------------------------
 BYTE   W03
 BYTE   N24  Ds3  v127
 BYTE   W12
 BYTE   N12  En2  v092
 BYTE   W09
 BYTE   PATT
  POIN2 Label_4_014C8494
// 012   ----------------------------------------
Label_4_014C84B5:
 BYTE   W03
 BYTE   N24  Gs3  v127
 BYTE   W12
 BYTE   N12  En2  v100
 BYTE   W09
 BYTE   PEND 
Label_4_014C84BF:
 BYTE   W03
 BYTE   N12  Dn2  v127
 BYTE   N24  Fs3
 BYTE   W12
 BYTE   Cs3
 BYTE   W09
 BYTE   PEND 
Label_4_014C84C9:
 BYTE   W03
 BYTE   N24  An2  v127
 BYTE   W12
 BYTE   Fs2
 BYTE   W09
 BYTE   PEND 
Label_4_014C84D1:
 BYTE   W03
 BYTE   N12  Dn2  v127
 BYTE   W12
 BYTE   N24  Fs2
 BYTE   W09
 BYTE   PEND 
 BYTE   PATT
  POIN2 Label_4_014C84C9
// 013   ----------------------------------------
Label_4_014C84DF:
 BYTE   W03
 BYTE   N24  An2  v127
 BYTE   W12
 BYTE   Cs3
 BYTE   W09
 BYTE   PEND 
Label_4_014C84E7:
 BYTE   W03
 BYTE   N12  Cs2  v127
 BYTE   N24  Bn2
 BYTE   N24  En3
 BYTE   W21
 BYTE   PEND 
Label_4_014C84F1:
 BYTE   W03
 BYTE   N12  Dn2  v127
 BYTE   N24  Cs3
 BYTE   N24  Fs3
 BYTE   W21
 BYTE   PEND 
 BYTE   W24
 BYTE   PATT
  POIN2 Label_4_014C84E7
 BYTE   PATT
  POIN2 Label_4_014C84F1
// 014   ----------------------------------------
 BYTE   W24
 BYTE   W03
 BYTE   N12  Ds2  v127
 BYTE   N24  Dn3
 BYTE   N24  Gn3
 BYTE   W21
 BYTE   PATT
  POIN2 Label_4_014C832C
 BYTE   PATT
  POIN2 Label_4_014C82FA
 BYTE   PATT
  POIN2 Label_4_014C8304
 BYTE   PATT
  POIN2 Label_4_014C83AB
 BYTE   PATT
  POIN2 Label_4_014C8358
// 015   ----------------------------------------
 BYTE   W03
 BYTE   N24  Bn3  v127
 BYTE   W12
 BYTE   N12  Bn2  v092
 BYTE   W09
 BYTE   PATT
  POIN2 Label_4_014C832C
 BYTE   PATT
  POIN2 Label_4_014C839C
 BYTE   PATT
  POIN2 Label_4_014C833F
 BYTE   PATT
  POIN2 Label_4_014C837A
 BYTE   PATT
  POIN2 Label_4_014C834E
 BYTE   PATT
  POIN2 Label_4_014C8358
 BYTE   PATT
  POIN2 Label_4_014C832C
 BYTE   PATT
  POIN2 Label_4_014C82FA
 BYTE   PATT
  POIN2 Label_4_014C8370
 BYTE   PATT
  POIN2 Label_4_014C830E
 BYTE   PATT
  POIN2 Label_4_014C8358
 BYTE   PATT
  POIN2 Label_4_014C8414
// 016   ----------------------------------------
 BYTE   W03
 BYTE   N12  Ds2  v127
 BYTE   W12
 BYTE   As2  v096
 BYTE   W09
 BYTE   W03
 BYTE   N24  Ds3  v127
 BYTE   W12
 BYTE   N12  As2  v092
 BYTE   W09
 BYTE   W03
 BYTE   N24  Fn3  v127
 BYTE   W12
 BYTE   N12  As2  v100
 BYTE   W09
 BYTE   W03
 BYTE   N24  Fs3  v127
 BYTE   W12
 BYTE   N12  As2  v096
 BYTE   W09
 BYTE   PATT
  POIN2 Label_4_014C8440
// 017   ----------------------------------------
 BYTE   W03
 BYTE   N24  Gs3  v127
 BYTE   W12
 BYTE   N12  As2  v100
 BYTE   W09
 BYTE   PATT
  POIN2 Label_4_014C8453
 BYTE   PATT
  POIN2 Label_4_014C845C
// 018   ----------------------------------------
 BYTE   W03
 BYTE   N24  Gs3  v127
 BYTE   W12
 BYTE   N12  Cs3  v096
 BYTE   W09
 BYTE   W03
 BYTE   N24  An3  v127
 BYTE   W12
 BYTE   N12  Cs3  v096
 BYTE   W09
 BYTE   PATT
  POIN2 Label_4_014C8478
// 019   ----------------------------------------
 BYTE   W03
 BYTE   N24  Cs4  v127
 BYTE   W12
 BYTE   N12  Cs3  v096
 BYTE   W09
 BYTE   PATT
  POIN2 Label_4_014C848B
// 020   ----------------------------------------
 BYTE   W03
 BYTE   N24  Bn2  v127
 BYTE   W12
 BYTE   N12  En2  v100
 BYTE   W09
 BYTE   W03
 BYTE   N24  Cs3  v127
 BYTE   W12
 BYTE   N12  En2  v100
 BYTE   W09
 BYTE   W03
 BYTE   N24  Ds3  v127
 BYTE   W12
 BYTE   N12  En2  v096
 BYTE   W09
 BYTE   W03
 BYTE   N24  Bn2  v127
 BYTE   W12
 BYTE   N12  En2  v092
 BYTE   W09
 BYTE   PATT
  POIN2 Label_4_014C84B5
 BYTE   PATT
  POIN2 Label_4_014C84BF
 BYTE   PATT
  POIN2 Label_4_014C84C9
 BYTE   PATT
  POIN2 Label_4_014C84D1
 BYTE   PATT
  POIN2 Label_4_014C84C9
 BYTE   PATT
  POIN2 Label_4_014C84DF
 BYTE   PATT
  POIN2 Label_4_014C84E7
 BYTE   PATT
  POIN2 Label_4_014C84F1
// 021   ----------------------------------------
 BYTE   W24
 BYTE   PATT
  POIN2 Label_4_014C84E7
// 022   ----------------------------------------
 BYTE   W03
 BYTE   N56  Dn2  v127
 BYTE   N56  Cs3
 BYTE   N56  Fs3
 BYTE   W21
 BYTE   W24
 BYTE   W24
Label_4_014C862B:
 BYTE   W03
 BYTE   N09  Gn1  v127
 BYTE   W12
 BYTE   Gn2
 BYTE   W09
 BYTE   PEND 
// 023   ----------------------------------------
Label_4_014C8633:
 BYTE   W03
 BYTE   N09  Bn2  v127
 BYTE   W12
 BYTE   Dn3
 BYTE   W09
 BYTE   PEND 
Label_4_014C863B:
 BYTE   W03
 BYTE   N09  Fs3  v127
 BYTE   W12
 BYTE   An3
 BYTE   W09
 BYTE   PEND 
Label_4_014C8643:
 BYTE   W03
 BYTE   N09  Bn3  v127
 BYTE   W12
 BYTE   An3
 BYTE   W09
 BYTE   PEND 
Label_4_014C864B:
 BYTE   W03
 BYTE   N09  Fs3  v127
 BYTE   W12
 BYTE   Dn3
 BYTE   W09
 BYTE   PEND 
// 024   ----------------------------------------
Label_4_014C8653:
 BYTE   W03
 BYTE   N09  Bn2  v127
 BYTE   W12
 BYTE   Gn2
 BYTE   W09
 BYTE   PEND 
 BYTE   W03
 BYTE   Dn2
 BYTE   W12
 BYTE   Dn3
 BYTE   W09
 BYTE   W03
 BYTE   En3
 BYTE   W12
 BYTE   Fs3
 BYTE   W09
 BYTE   W03
 BYTE   An3
 BYTE   W12
 BYTE   Cs4
 BYTE   W09
// 025   ----------------------------------------
 BYTE   W03
 BYTE   En4
 BYTE   W12
 BYTE   Cs4
 BYTE   W09
 BYTE   W03
 BYTE   An3
 BYTE   W12
 BYTE   Fs3
 BYTE   W09
 BYTE   W03
 BYTE   En3
 BYTE   W12
 BYTE   Cs3
 BYTE   W09
 BYTE   PATT
  POIN2 Label_4_014C862B
 BYTE   PATT
  POIN2 Label_4_014C8633
 BYTE   PATT
  POIN2 Label_4_014C863B
 BYTE   PATT
  POIN2 Label_4_014C8643
 BYTE   PATT
  POIN2 Label_4_014C864B
 BYTE   PATT
  POIN2 Label_4_014C8653
// 026   ----------------------------------------
 BYTE   W03
 BYTE   N09  Ds2  v127
 BYTE   W12
 BYTE   Fs2
 BYTE   W09
 BYTE   W03
 BYTE   As2
 BYTE   W12
 BYTE   Cs3
 BYTE   W09
 BYTE   W03
 BYTE   Ds3
 BYTE   W12
 BYTE   Fs3
 BYTE   W09
 BYTE   W03
 BYTE   En2
 BYTE   W12
 BYTE   Bn2
 BYTE   W09
// 027   ----------------------------------------
 BYTE   W03
 BYTE   Dn3
 BYTE   W12
 BYTE   Fs3
 BYTE   W09
Label_4_014C86B2:
 BYTE   W03
 BYTE   N09  Gs3  v127
 BYTE   W12
 BYTE   En3
 BYTE   W09
 BYTE   PEND 
 BYTE   W03
 BYTE   Gn2
 BYTE   W12
 BYTE   Dn3
 BYTE   W09
 BYTE   W03
 BYTE   Fn3
 BYTE   W12
 BYTE   As3
 BYTE   W09
// 028   ----------------------------------------
 BYTE   W03
 BYTE   Dn4
 BYTE   W12
 BYTE   As3
 BYTE   W09
 BYTE   W03
 BYTE   Dn2
 BYTE   W12
 BYTE   An2
 BYTE   W09
 BYTE   W03
 BYTE   Cn3
 BYTE   W12
 BYTE   Fn3
 BYTE   W09
 BYTE   W03
 BYTE   An3
 BYTE   W12
 BYTE   Fn3
 BYTE   W09
// 029   ----------------------------------------
 BYTE   W03
 BYTE   Cs2
 BYTE   W12
 BYTE   Gs2
 BYTE   W09
 BYTE   W03
 BYTE   Bn2
 BYTE   W12
 BYTE   En3
 BYTE   W09
 BYTE   PATT
  POIN2 Label_4_014C86B2
// 030   ----------------------------------------
 BYTE   W03
 BYTE   N09  Fs2  v127
 BYTE   W12
 BYTE   Cs3
 BYTE   W09
 BYTE   W03
 BYTE   En3
 BYTE   W12
 BYTE   An3
 BYTE   W09
 BYTE   W03
 BYTE   Cs4
 BYTE   W12
 BYTE   An3
 BYTE   W09
 BYTE   W03
 BYTE   Ds2
 BYTE   W12
 BYTE   As2
 BYTE   W09
// 031   ----------------------------------------
 BYTE   W03
 BYTE   Cs3
 BYTE   W12
 BYTE   Fs3  v124
 BYTE   W09
 BYTE   W03
 BYTE   As3
 BYTE   W12
 BYTE   Fs3  v120
 BYTE   W09
 BYTE   W03
 BYTE   Gs2  v116
 BYTE   W12
 BYTE   Ds3  v112
 BYTE   W09
 BYTE   W03
 BYTE   Fs3  v108
 BYTE   W12
 BYTE   Bn3  v104
 BYTE   W09
// 032   ----------------------------------------
 BYTE   W03
 BYTE   Ds4  v100
 BYTE   W12
 BYTE   N03  Bn3  v092
 BYTE   W09
Label_4_014C871F:
 BYTE   W03
 BYTE   N18  An2  v088
 BYTE   N18  Cs3
 BYTE   N18  Gs3
 BYTE   W21
 BYTE   PEND 
 BYTE   W03
 BYTE   Bn2  v092
 BYTE   N18  En3
 BYTE   W21
 BYTE   W03
 BYTE   An2  v096
 BYTE   N18  Cs3
 BYTE   N18  Gs3
 BYTE   W21
// 033   ----------------------------------------
 BYTE   W03
 BYTE   Bn2  v100
 BYTE   N18  En3
 BYTE   W21
 BYTE   W03
 BYTE   An2  v104
 BYTE   N18  Cs3
 BYTE   N18  Gs3
 BYTE   W21
Label_4_014C8745:
 BYTE   W03
 BYTE   N18  Bn2  v108
 BYTE   N18  En3
 BYTE   W21
 BYTE   PEND 
Label_4_014C874D:
 BYTE   W03
 BYTE   N18  An2  v108
 BYTE   N18  Cs3
 BYTE   N18  Gs3
 BYTE   W21
 BYTE   PEND 
// 034   ----------------------------------------
 BYTE   W03
 BYTE   Bn2  v112
 BYTE   N18  En3
 BYTE   W21
 BYTE   W03
 BYTE   An2  v116
 BYTE   N18  Cs3
 BYTE   N18  Gs3
 BYTE   W21
 BYTE   W03
 BYTE   Bn2  v120
 BYTE   N18  En3
 BYTE   W21
 BYTE   W03
 BYTE   An2  v124
 BYTE   N18  Cs3
 BYTE   N18  Gs3
 BYTE   W21
// 035   ----------------------------------------
 BYTE   W03
 BYTE   Bn2  v127
 BYTE   N18  En3
 BYTE   W21
Label_4_014C8779:
 BYTE   W03
 BYTE   N18  En2  v127
 BYTE   N18  Gs2
 BYTE   N18  Cs3
 BYTE   W21
 BYTE   PEND 
Label_4_014C8783:
 BYTE   W03
 BYTE   N18  Fs2  v127
 BYTE   N18  Bn2
 BYTE   N18  Ds3
 BYTE   W21
 BYTE   PEND 
 BYTE   PATT
  POIN2 Label_4_014C8779
// 036   ----------------------------------------
Label_4_014C8792:
 BYTE   W03
 BYTE   N18  Fs2  v124
 BYTE   N18  Bn2
 BYTE   N18  Ds3
 BYTE   W21
 BYTE   PEND 
Label_4_014C879C:
 BYTE   W03
 BYTE   N18  En2  v120
 BYTE   N18  Gs2
 BYTE   N18  Cs3
 BYTE   W21
 BYTE   PEND 
Label_4_014C87A6:
 BYTE   W03
 BYTE   N18  Fs2  v116
 BYTE   N18  Bn2
 BYTE   N18  Ds3
 BYTE   W21
 BYTE   PEND 
Label_4_014C87B0:
 BYTE   W03
 BYTE   N18  En2  v108
 BYTE   N18  Gs2
 BYTE   N18  Cs3
 BYTE   W21
 BYTE   PEND 
// 037   ----------------------------------------
Label_4_014C87BA:
 BYTE   W03
 BYTE   N18  Fs2  v108
 BYTE   N18  Bn2
 BYTE   N18  Ds3
 BYTE   W21
 BYTE   PEND 
 BYTE   W03
 BYTE   En2  v104
 BYTE   N18  Gs2
 BYTE   N18  Cs3
 BYTE   W21
Label_4_014C87CC:
 BYTE   W03
 BYTE   N18  Fs2  v096
 BYTE   N18  Bn2
 BYTE   N18  Ds3
 BYTE   W21
 BYTE   PEND 
 BYTE   W03
 BYTE   En2  v092
 BYTE   N18  Gs2
 BYTE   N18  Cs3
 BYTE   W21
// 038   ----------------------------------------
 BYTE   W03
 BYTE   Fs2  v088
 BYTE   N18  Bn2
 BYTE   N18  Ds3
 BYTE   W21
 BYTE   PATT
  POIN2 Label_4_014C871F
// 039   ----------------------------------------
 BYTE   W03
 BYTE   N18  Bn2  v088
 BYTE   N18  En3
 BYTE   W21
 BYTE   W03
 BYTE   An2  v092
 BYTE   N18  Cs3
 BYTE   N18  Gs3
 BYTE   W21
 BYTE   W03
 BYTE   Bn2  v096
 BYTE   N18  En3
 BYTE   W21
 BYTE   W03
 BYTE   An2  v100
 BYTE   N18  Cs3
 BYTE   N18  Gs3
 BYTE   W21
// 040   ----------------------------------------
 BYTE   W03
 BYTE   Bn2  v104
 BYTE   N18  En3
 BYTE   W21
 BYTE   PATT
  POIN2 Label_4_014C874D
 BYTE   PATT
  POIN2 Label_4_014C8745
// 041   ----------------------------------------
 BYTE   W03
 BYTE   N18  An2  v112
 BYTE   N18  Cs3
 BYTE   N18  Gs3
 BYTE   W21
 BYTE   W03
 BYTE   Bn2  v116
 BYTE   N18  En3
 BYTE   W21
 BYTE   W03
 BYTE   An2  v120
 BYTE   N18  Cs3
 BYTE   N18  Gs3
 BYTE   W21
 BYTE   W03
 BYTE   Bn2  v124
 BYTE   N18  En3
 BYTE   W21
 BYTE   PATT
  POIN2 Label_4_014C8779
 BYTE   PATT
  POIN2 Label_4_014C8783
 BYTE   PATT
  POIN2 Label_4_014C8779
 BYTE   PATT
  POIN2 Label_4_014C8792
 BYTE   PATT
  POIN2 Label_4_014C879C
 BYTE   PATT
  POIN2 Label_4_014C87A6
// 042   ----------------------------------------
 BYTE   W03
 BYTE   N18  En2  v112
 BYTE   N18  Gs2
 BYTE   N18  Cs3
 BYTE   W21
 BYTE   PATT
  POIN2 Label_4_014C87BA
 BYTE   PATT
  POIN2 Label_4_014C87B0
// 043   ----------------------------------------
 BYTE   W03
 BYTE   N18  Fs2  v104
 BYTE   N18  Bn2
 BYTE   N18  Ds3
 BYTE   W21
 BYTE   W03
 BYTE   En2  v100
 BYTE   N18  Gs2
 BYTE   N18  Cs3
 BYTE   W21
 BYTE   PATT
  POIN2 Label_4_014C87CC
// 044   ----------------------------------------
Label_4_014C887C:
 BYTE   W03
 BYTE   N18  Gn2  v100
 BYTE   N18  Bn2
 BYTE   N18  Fs3
 BYTE   W21
 BYTE   PEND 
 BYTE   W03
 BYTE   An2  v104
 BYTE   N18  Dn3
 BYTE   W21
 BYTE   W03
 BYTE   Gn2
 BYTE   N18  Bn2
 BYTE   N18  Fs3
 BYTE   W21
 BYTE   W03
 BYTE   An2  v108
 BYTE   N18  Dn3
 BYTE   W21
// 045   ----------------------------------------
 BYTE   W03
 BYTE   Gn2
 BYTE   N18  Bn2
 BYTE   N18  Fs3
 BYTE   W21
 BYTE   W03
 BYTE   An2  v112
 BYTE   N18  Dn3
 BYTE   W21
 BYTE   W03
 BYTE   Gn2  v116
 BYTE   N18  Bn2
 BYTE   N18  Fs3
 BYTE   W21
 BYTE   W03
 BYTE   An2  v120
 BYTE   N18  Dn3
 BYTE   W21
// 046   ----------------------------------------
 BYTE   W03
 BYTE   Gn2
 BYTE   N18  Bn2
 BYTE   N18  Fs3
 BYTE   W21
 BYTE   W03
 BYTE   An2  v124
 BYTE   N18  Dn3
 BYTE   W21
 BYTE   W03
 BYTE   Gn2  v127
 BYTE   N18  Bn2
 BYTE   N18  Fs3
 BYTE   W21
 BYTE   W03
 BYTE   An2
 BYTE   N18  Dn3
 BYTE   W21
// 047   ----------------------------------------
Label_4_014C88CE:
 BYTE   W03
 BYTE   N18  En2  v127
 BYTE   W12
 BYTE   Gs2
 BYTE   W09
 BYTE   PEND 
Label_4_014C88D6:
 BYTE   W03
 BYTE   N18  Bn2  v127
 BYTE   W12
 BYTE   En3
 BYTE   W09
 BYTE   PEND 
 BYTE   W03
 BYTE   Gs3
 BYTE   W21
 BYTE   PATT
  POIN2 Label_4_014C88CE
// 048   ----------------------------------------
 BYTE   W03
 BYTE   N18  Bn2  v127
 BYTE   W12
 BYTE   Dn3
 BYTE   W09
 BYTE   W03
 BYTE   Fs3
 BYTE   W21
 BYTE   W03
 BYTE   En2
 BYTE   W12
 BYTE   Bn2
 BYTE   W09
 BYTE   W03
 BYTE   Dn3
 BYTE   W12
 BYTE   Fn3
 BYTE   W09
// 049   ----------------------------------------
 BYTE   W03
 BYTE   An3
 BYTE   W21
 BYTE   PATT
  POIN2 Label_4_014C88CE
 BYTE   PATT
  POIN2 Label_4_014C88D6
// 050   ----------------------------------------
 BYTE   W03
 BYTE   N18  Gs3  v127
 BYTE   W21
 BYTE   W03
 BYTE   Gn2  v096
 BYTE   N18  Bn2
 BYTE   N18  Fs3
 BYTE   W21
 BYTE   W03
 BYTE   An2  v100
 BYTE   N18  Dn3
 BYTE   W21
 BYTE   PATT
  POIN2 Label_4_014C887C
// 051   ----------------------------------------
 BYTE   W03
 BYTE   N18  Fs2  v104
 BYTE   N18  An2
 BYTE   N18  Cs3
 BYTE   W21
 BYTE   W03
 BYTE   Fs2  v108
 BYTE   N18  Bn2
 BYTE   N18  Dn3
 BYTE   W21
 BYTE   W03
 BYTE   Fs2
 BYTE   N18  Cs3
 BYTE   N18  En3
 BYTE   W21
 BYTE   W03
 BYTE   En2  v112
 BYTE   N18  Bn2
 BYTE   N18  Dn3
 BYTE   W21
// 052   ----------------------------------------
 BYTE   W03
 BYTE   En2  v116
 BYTE   N18  Cs3
 BYTE   N18  En3
 BYTE   W21
 BYTE   W03
 BYTE   En2
 BYTE   N18  Dn3
 BYTE   N18  Fs3
 BYTE   W21
 BYTE   W03
 BYTE   Dn2  v120
 BYTE   N18  En3
 BYTE   N18  Gn3
 BYTE   W21
 BYTE   W03
 BYTE   Dn2  v124
 BYTE   N18  Fs3
 BYTE   N18  An3
 BYTE   W21
// 053   ----------------------------------------
 BYTE   W03
 BYTE   Dn2  v127
 BYTE   N18  Gn3
 BYTE   N18  Bn3
 BYTE   W21
 BYTE   W03
 BYTE   Cn2
 BYTE   N18  En4
 BYTE   W21
 BYTE   W03
 BYTE   Gn2
 BYTE   N18  Gn3
 BYTE   W21
 BYTE   W03
 BYTE   Cn3
 BYTE   N18  En3
 BYTE   W21
// 054   ----------------------------------------
 BYTE   W03
 BYTE   Bn2
 BYTE   W21
 BYTE   W03
 BYTE   Cn3
 BYTE   W21
 BYTE   W03
 BYTE   En3
 BYTE   W21
 BYTE   W03
 BYTE   Fs3
 BYTE   W21
// 055   ----------------------------------------
 BYTE   W03
 BYTE   Gn3
 BYTE   W21
 BYTE   W03
 BYTE   An3
 BYTE   W21
 BYTE   W03
 BYTE   N18
 BYTE   W21
 BYTE   W03
 BYTE   Bn3
 BYTE   W21
// 056   ----------------------------------------
 BYTE   W03
 BYTE   Cn4
 BYTE   W21
 BYTE   GoTo
  POIN2 Label_4_014C82EA
 BYTE   FINE

//**************** Track 6 (Midi-Chn.5) ****************//

PokemonMDExplorersNorthernDesertRandomWizard_006:
// 000   ----------------------------------------
 BYTE   KEYSH   PokemonMDExplorersNorthernDesertRandomWizard_key+0
Label_5_014C89A2:
 BYTE   VOICE   75
 BYTE   PAN   c_v+0
 BYTE   VOL   21*PokemonMDExplorersNorthernDesertRandomWizard_mvl/mxv
 BYTE   BEND   c_v+0
 BYTE   W24
 BYTE   W24
 BYTE   W24
 BYTE   W24
// 001   ----------------------------------------
 BYTE   W24
 BYTE   W24
 BYTE   W24
 BYTE   W24
// 002   ----------------------------------------
 BYTE   W24
 BYTE   W24
 BYTE   W24
 BYTE   W24
// 003   ----------------------------------------
 BYTE   W24
 BYTE   W24
 BYTE   W24
 BYTE   W24
// 004   ----------------------------------------
 BYTE   W24
 BYTE   W24
 BYTE   W24
 BYTE   W24
// 005   ----------------------------------------
 BYTE   W24
 BYTE   W24
 BYTE   W24
 BYTE   W24
// 006   ----------------------------------------
 BYTE   N12  Bn3  v127
 BYTE   W12
 BYTE   Cs4
 BYTE   W12
 BYTE   N24  Dn4
 BYTE   W24
 BYTE   En4
 BYTE   W24
Label_5_014C89CD:
 BYTE   N12  Dn4  v127
 BYTE   W12
 BYTE   Cs4
 BYTE   W12
 BYTE   PEND 
// 007   ----------------------------------------
 BYTE   N24  Bn3
 BYTE   W24
 BYTE   An3
 BYTE   W24
 BYTE   Bn3
 BYTE   W24
 BYTE   N06  Fs4
 BYTE   W24
// 008   ----------------------------------------
 BYTE   N06
 BYTE   W24
 BYTE   N24  Cs4
 BYTE   W24
 BYTE   N06  An4
 BYTE   W24
 BYTE   N06
 BYTE   W24
// 009   ----------------------------------------
Label_5_014C89E8:
 BYTE   N12  Bn3  v127
 BYTE   W12
 BYTE   Cs4
 BYTE   W12
 BYTE   PEND 
 BYTE   N24  Dn4
 BYTE   W24
 BYTE   En4
 BYTE   W24
 BYTE   PATT
  POIN2 Label_5_014C89CD
// 010   ----------------------------------------
 BYTE   N24  Bn3  v127
 BYTE   W24
 BYTE   N18  An3
 BYTE   W24
Label_5_014C8A00:
 BYTE   N12  Cs4  v127
 BYTE   W12
 BYTE   Ds4
 BYTE   W12
 BYTE   PEND 
Label_5_014C8A07:
 BYTE   N12  Fn4  v127
 BYTE   W12
 BYTE   Fs4
 BYTE   W12
 BYTE   PEND 
// 011   ----------------------------------------
Label_5_014C8A0E:
 BYTE   N12  Gs4  v127
 BYTE   W12
 BYTE   As4
 BYTE   W12
 BYTE   PEND 
 BYTE   N60  Cn5
 BYTE   W16
 BYTE   W06
 BYTE   W02
 BYTE   W03
 BYTE   W01
 BYTE   W02
 BYTE   W01
 BYTE   W02
 BYTE   W01
 BYTE   W02
 BYTE   W01
 BYTE   W02
 BYTE   W01
 BYTE   W02
 BYTE   W01
 BYTE   W02
 BYTE   W01
 BYTE   W02
 BYTE   W01
 BYTE   W02
 BYTE   W01
 BYTE   W02
 BYTE   W01
 BYTE   W02
 BYTE   W01
 BYTE   W02
 BYTE   W01
 BYTE   W02
 BYTE   W01
 BYTE   W02
 BYTE   W01
 BYTE   W02
 BYTE   W01
 BYTE   W02
// 012   ----------------------------------------
 BYTE   N48  Cs5
 BYTE   W24
 BYTE   W24
Label_5_014C8A3D:
 BYTE   N12  Bn4  v127
 BYTE   W12
 BYTE   An4
 BYTE   W12
 BYTE   PEND 
 BYTE   N24  Gs4
 BYTE   W24
// 013   ----------------------------------------
 BYTE   N06  Fs4
 BYTE   W24
Label_5_014C8A4A:
 BYTE   N12  Cs4  v127
 BYTE   W12
 BYTE   Fs4
 BYTE   W12
 BYTE   PEND 
 BYTE   N48  Ds4
 BYTE   W24
 BYTE   W24
 BYTE   PATT
  POIN2 Label_5_014C8A00
// 014   ----------------------------------------
 BYTE   N24  Bn3  v127
 BYTE   W24
 BYTE   N12  Gs3
 BYTE   W24
Label_5_014C8A61:
 BYTE   N12  Gs3  v127
 BYTE   W12
 BYTE   Bn3
 BYTE   W12
 BYTE   PEND 
 BYTE   N48  Cs4
 BYTE   W24
// 015   ----------------------------------------
 BYTE   W24
 BYTE   N06  Fs4
 BYTE   W24
 BYTE   N24
 BYTE   W24
 BYTE   Cs4
 BYTE   W24
// 016   ----------------------------------------
 BYTE   Bn3
 BYTE   W24
 BYTE   N48  Cs4
 BYTE   W24
 BYTE   W24
 BYTE   N24  Bn3
 BYTE   W24
// 017   ----------------------------------------
 BYTE   N48  Cs4
 BYTE   W24
 BYTE   W03
 BYTE   W03
 BYTE   W01
 BYTE   W02
 BYTE   W01
 BYTE   W02
 BYTE   W01
 BYTE   W02
 BYTE   W01
 BYTE   W02
 BYTE   W01
 BYTE   W02
 BYTE   W01
 BYTE   W02
 BYTE   W01
 BYTE   W02
 BYTE   W01
 BYTE   W02
 BYTE   W01
 BYTE   W02
 BYTE   W13
 BYTE   W02
 BYTE   PATT
  POIN2 Label_5_014C89E8
// 018   ----------------------------------------
 BYTE   N24  Dn4  v127
 BYTE   W24
 BYTE   En4
 BYTE   W24
 BYTE   PATT
  POIN2 Label_5_014C89CD
// 019   ----------------------------------------
 BYTE   N24  Bn3  v127
 BYTE   W24
 BYTE   An3
 BYTE   W24
 BYTE   Bn3
 BYTE   W24
 BYTE   N06  Fs4
 BYTE   W24
// 020   ----------------------------------------
 BYTE   N06
 BYTE   W24
 BYTE   N24  Cs4
 BYTE   W24
 BYTE   N06  An4
 BYTE   W24
 BYTE   N06
 BYTE   W24
 BYTE   PATT
  POIN2 Label_5_014C89E8
// 021   ----------------------------------------
 BYTE   N24  Dn4  v127
 BYTE   W24
 BYTE   En4
 BYTE   W24
 BYTE   PATT
  POIN2 Label_5_014C89CD
// 022   ----------------------------------------
 BYTE   N24  Bn3  v127
 BYTE   W24
 BYTE   An3
 BYTE   W24
 BYTE   PATT
  POIN2 Label_5_014C8A00
 BYTE   PATT
  POIN2 Label_5_014C8A07
 BYTE   PATT
  POIN2 Label_5_014C8A0E
// 023   ----------------------------------------
 BYTE   N54  Cn5  v127
 BYTE   W16
 BYTE   W08
 BYTE   W03
 BYTE   W01
 BYTE   W02
 BYTE   W01
 BYTE   W02
 BYTE   W01
 BYTE   W02
 BYTE   W01
 BYTE   W02
 BYTE   W01
 BYTE   W02
 BYTE   W01
 BYTE   W02
 BYTE   W01
 BYTE   W02
 BYTE   W01
 BYTE   W02
 BYTE   W01
 BYTE   W02
 BYTE   W01
 BYTE   W02
 BYTE   W01
 BYTE   W02
 BYTE   W01
 BYTE   W08
 BYTE   W03
 BYTE   N48  Cs5
 BYTE   W24
// 024   ----------------------------------------
 BYTE   W24
 BYTE   PATT
  POIN2 Label_5_014C8A3D
// 025   ----------------------------------------
 BYTE   N24  Gs4  v127
 BYTE   W24
 BYTE   N06  Fs4
 BYTE   W24
 BYTE   PATT
  POIN2 Label_5_014C8A4A
// 026   ----------------------------------------
 BYTE   N48  Ds4  v127
 BYTE   W24
 BYTE   W24
 BYTE   PATT
  POIN2 Label_5_014C8A00
// 027   ----------------------------------------
 BYTE   N24  Bn3  v127
 BYTE   W24
 BYTE   N12  Gs3
 BYTE   W24
 BYTE   PATT
  POIN2 Label_5_014C8A61
// 028   ----------------------------------------
 BYTE   N48  Cs4  v127
 BYTE   W24
 BYTE   W24
 BYTE   N06  Fs4
 BYTE   W24
 BYTE   N24
 BYTE   W24
// 029   ----------------------------------------
 BYTE   Cs4
 BYTE   W24
 BYTE   Bn3
 BYTE   W24
 BYTE   N48  Cs4
 BYTE   W24
 BYTE   W24
// 030   ----------------------------------------
 BYTE   N24  Bn3
 BYTE   W24
 BYTE   N72  Cs4
 BYTE   W24
 BYTE   W13
 BYTE   W05
 BYTE   W03
 BYTE   W01
 BYTE   W02
 BYTE   W01
 BYTE   W02
 BYTE   W01
 BYTE   W02
 BYTE   W01
 BYTE   W02
 BYTE   W01
 BYTE   W02
 BYTE   W01
 BYTE   W02
 BYTE   W01
 BYTE   W02
 BYTE   W01
 BYTE   W02
 BYTE   W01
 BYTE   W02
// 031   ----------------------------------------
 BYTE   W01
 BYTE   W23
 BYTE   W24
 BYTE   W24
 BYTE   W24
// 032   ----------------------------------------
 BYTE   W24
 BYTE   W24
 BYTE   W24
 BYTE   W24
// 033   ----------------------------------------
 BYTE   W24
 BYTE   W24
 BYTE   W24
 BYTE   W24
// 034   ----------------------------------------
 BYTE   W24
 BYTE   W24
 BYTE   W24
 BYTE   W24
// 035   ----------------------------------------
 BYTE   W24
 BYTE   W24
 BYTE   W24
 BYTE   W24
// 036   ----------------------------------------
 BYTE   W24
 BYTE   W24
 BYTE   W24
 BYTE   W24
// 037   ----------------------------------------
 BYTE   W24
 BYTE   W24
 BYTE   W24
 BYTE   W24
// 038   ----------------------------------------
 BYTE   W24
 BYTE   W24
 BYTE   W24
 BYTE   W24
// 039   ----------------------------------------
 BYTE   W24
 BYTE   W24
 BYTE   W24
 BYTE   W24
// 040   ----------------------------------------
 BYTE   W24
 BYTE   W24
 BYTE   W24
 BYTE   W24
// 041   ----------------------------------------
 BYTE   W24
 BYTE   W24
 BYTE   N68  Gs3
 BYTE   W22
 BYTE   W02
 BYTE   W04
 BYTE   W04
 BYTE   W03
 BYTE   W02
 BYTE   W03
 BYTE   W01
 BYTE   W02
 BYTE   W02
 BYTE   W01
 BYTE   W02
// 042   ----------------------------------------
 BYTE   W01
 BYTE   W02
 BYTE   W01
 BYTE   W01
 BYTE   W02
 BYTE   W02
 BYTE   W01
 BYTE   W01
 BYTE   W01
 BYTE   W01
 BYTE   W02
 BYTE   W01
 BYTE   W01
 BYTE   W01
 BYTE   W01
 BYTE   W01
 BYTE   W01
 BYTE   W01
 BYTE   W02
 BYTE   N24  Ds3
 BYTE   W01
 BYTE   W01
 BYTE   W01
 BYTE   W01
 BYTE   W01
 BYTE   W01
 BYTE   W01
 BYTE   W01
 BYTE   W01
 BYTE   W01
 BYTE   W01
 BYTE   W01
 BYTE   W01
 BYTE   W01
 BYTE   W10
 BYTE   En3
 BYTE   W24
 BYTE   Gs3
 BYTE   W24
// 043   ----------------------------------------
 BYTE   N68  Bn3
 BYTE   W24
 BYTE   W11
 BYTE   W03
 BYTE   W03
 BYTE   W02
 BYTE   W02
 BYTE   W01
 BYTE   W01
 BYTE   W01
 BYTE   W01
 BYTE   W01
 BYTE   W01
 BYTE   W01
 BYTE   W01
 BYTE   W01
 BYTE   W01
 BYTE   W01
 BYTE   W01
 BYTE   W01
 BYTE   W01
 BYTE   W01
 BYTE   W01
 BYTE   W01
 BYTE   W01
 BYTE   W01
 BYTE   W01
 BYTE   W01
 BYTE   W01
 BYTE   W01
 BYTE   W01
 BYTE   W01
 BYTE   W02
 BYTE   N24
 BYTE   W01
 BYTE   W01
 BYTE   W01
 BYTE   W01
 BYTE   W01
 BYTE   W01
 BYTE   W01
 BYTE   W01
 BYTE   W01
 BYTE   W01
 BYTE   W01
 BYTE   W01
 BYTE   W01
 BYTE   W11
// 044   ----------------------------------------
 BYTE   Gs3
 BYTE   W24
 BYTE   Ds4
 BYTE   W24
 BYTE   Bn3
 BYTE   W24
 BYTE   N12
 BYTE   N12  Ds4
 BYTE   W12
 BYTE   Cs4
 BYTE   N12  En4
 BYTE   W12
// 045   ----------------------------------------
 BYTE   Ds4
 BYTE   N12  Fs4
 BYTE   W12
 BYTE   En4
 BYTE   N12  Gs4
 BYTE   W12
 BYTE   N36  Ds4
 BYTE   N36  Fs4
 BYTE   W24
 BYTE   W12
 BYTE   N12  Cs4
 BYTE   N12  En4
 BYTE   W12
Label_5_014C8C09:
 BYTE   N12  Bn3  v127
 BYTE   N12  Ds4
 BYTE   W12
 BYTE   As3
 BYTE   N12  Cs4
 BYTE   W12
 BYTE   PEND 
 BYTE   PATT
  POIN2 Label_5_014C8C09
// 046   ----------------------------------------
 BYTE   TIE  Bn3  v127
 BYTE   TIE  Ds4
 BYTE   W24
 BYTE   W01
 BYTE   W10
 BYTE   W05
 BYTE   W03
 BYTE   W02
 BYTE   W03
 BYTE   W02
 BYTE   W02
 BYTE   W02
 BYTE   W01
 BYTE   W03
 BYTE   W02
 BYTE   W01
 BYTE   W02
 BYTE   W01
 BYTE   W02
 BYTE   W01
 BYTE   W01
 BYTE   W01
 BYTE   W01
 BYTE   W01
 BYTE   W01
 BYTE   W01
 BYTE   W01
 BYTE   W02
 BYTE   W01
 BYTE   W02
 BYTE   W01
 BYTE   W01
 BYTE   W01
 BYTE   W01
 BYTE   W01
 BYTE   W01
 BYTE   W01
 BYTE   W01
 BYTE   W01
 BYTE   W01
 BYTE   W01
 BYTE   W01
 BYTE   W01
 BYTE   W01
 BYTE   W01
 BYTE   W01
 BYTE   W01
// 047   ----------------------------------------
 BYTE   W01
 BYTE   W01
 BYTE   W01
 BYTE   W01
 BYTE   W02
 BYTE   EOT
 BYTE   Bn3  v075
 BYTE   W01
 BYTE   W01
 BYTE   W01
 BYTE   W01
 BYTE   W01
 BYTE   W01
 BYTE   W01
 BYTE   W01
 BYTE   W01
 BYTE   W01
 BYTE   W06
 BYTE   W02
 BYTE   N68  Gs3
 BYTE   W24
 BYTE   W09
 BYTE   W05
 BYTE   W02
 BYTE   W02
 BYTE   W01
 BYTE   W01
 BYTE   W02
 BYTE   W01
 BYTE   W01
 BYTE   W01
 BYTE   W01
 BYTE   W01
 BYTE   W01
 BYTE   W02
 BYTE   W01
 BYTE   W01
 BYTE   W01
 BYTE   W01
 BYTE   W01
 BYTE   W01
 BYTE   W01
 BYTE   W01
 BYTE   W01
 BYTE   W01
 BYTE   W01
 BYTE   W01
 BYTE   W01
 BYTE   W01
 BYTE   W01
 BYTE   W01
 BYTE   W01
 BYTE   W01
// 048   ----------------------------------------
 BYTE   N24  Ds3
 BYTE   W01
 BYTE   W06
 BYTE   W03
 BYTE   W02
 BYTE   W01
 BYTE   W02
 BYTE   W01
 BYTE   W02
 BYTE   W01
 BYTE   W01
 BYTE   W01
 BYTE   W01
 BYTE   W02
 BYTE   En3
 BYTE   W24
 BYTE   Gs3
 BYTE   W24
 BYTE   N68  Bn3
 BYTE   W24
// 049   ----------------------------------------
 BYTE   W04
 BYTE   W04
 BYTE   W03
 BYTE   W02
 BYTE   W01
 BYTE   W02
 BYTE   W01
 BYTE   W02
 BYTE   W01
 BYTE   W01
 BYTE   W01
 BYTE   W01
 BYTE   W01
 BYTE   W01
 BYTE   W01
 BYTE   W01
 BYTE   W01
 BYTE   W01
 BYTE   W01
 BYTE   W01
 BYTE   W01
 BYTE   W01
 BYTE   W01
 BYTE   W01
 BYTE   W01
 BYTE   W01
 BYTE   W01
 BYTE   W01
 BYTE   W01
 BYTE   W01
 BYTE   W01
 BYTE   W01
 BYTE   W01
 BYTE   W01
 BYTE   W01
 BYTE   W02
 BYTE   N24
 BYTE   W01
 BYTE   W03
 BYTE   W03
 BYTE   W01
 BYTE   W01
 BYTE   W01
 BYTE   W01
 BYTE   W01
 BYTE   W01
 BYTE   W01
 BYTE   W01
 BYTE   W01
 BYTE   W01
 BYTE   W01
 BYTE   W01
 BYTE   W01
 BYTE   W01
 BYTE   W01
 BYTE   W02
 BYTE   Gs3
 BYTE   W24
// 050   ----------------------------------------
 BYTE   Ds4
 BYTE   W24
 BYTE   Bn3
 BYTE   W24
 BYTE   N12  Gs4
 BYTE   N12  Bn4
 BYTE   W12
 BYTE   An4
 BYTE   N12  Cs5
 BYTE   W12
 BYTE   Bn4
 BYTE   N12  Ds5
 BYTE   W12
 BYTE   Cs5
 BYTE   N12  En5
 BYTE   W12
// 051   ----------------------------------------
 BYTE   N36  Ds5
 BYTE   N36  Fs5
 BYTE   W24
 BYTE   W12
 BYTE   N12  Cs5
 BYTE   N12  En5
 BYTE   W12
 BYTE   Bn4
 BYTE   N12  Ds5
 BYTE   W12
 BYTE   An4
 BYTE   N12  Cs5
 BYTE   W12
 BYTE   N36  Bn4
 BYTE   N36  Ds5
 BYTE   W24
// 052   ----------------------------------------
 BYTE   W12
 BYTE   N12  An4
 BYTE   N12  Cs5
 BYTE   W12
 BYTE   Gs4
 BYTE   N12  Bn4
 BYTE   W12
 BYTE   Fs4
 BYTE   N12  An4
 BYTE   W12
 BYTE   N60  Gs4
 BYTE   N60  Bn4
 BYTE   W21
 BYTE   W03
 BYTE   W01
 BYTE   W03
 BYTE   W02
 BYTE   W01
 BYTE   W02
 BYTE   W01
 BYTE   W02
 BYTE   W01
 BYTE   W02
 BYTE   W01
 BYTE   W01
 BYTE   W01
 BYTE   W01
 BYTE   W01
 BYTE   W01
 BYTE   W01
 BYTE   W01
 BYTE   W01
// 053   ----------------------------------------
 BYTE   W01
 BYTE   W01
 BYTE   W01
 BYTE   W01
 BYTE   W01
 BYTE   W01
 BYTE   W01
 BYTE   W01
 BYTE   W01
 BYTE   W01
 BYTE   W01
 BYTE   W01
 BYTE   W01
 BYTE   W01
 BYTE   W01
 BYTE   W01
 BYTE   W01
 BYTE   W01
 BYTE   W01
 BYTE   W01
 BYTE   W02
 BYTE   W01
 BYTE   W01
 BYTE   N36  Bn3
 BYTE   W05
 BYTE   W03
 BYTE   W02
 BYTE   W02
 BYTE   W01
 BYTE   W02
 BYTE   W01
 BYTE   W01
 BYTE   W02
 BYTE   W01
 BYTE   W01
 BYTE   W03
 BYTE   W12
 BYTE   N12  Fs3
 BYTE   W12
 BYTE   Gn3
 BYTE   W12
 BYTE   Bn3
 BYTE   W12
// 054   ----------------------------------------
 BYTE   TIE  Dn4
 BYTE   W24
 BYTE   W24
 BYTE   W14
 BYTE   W06
 BYTE   W02
 BYTE   W02
 BYTE   W01
 BYTE   W01
 BYTE   W01
 BYTE   W02
 BYTE   W01
 BYTE   W01
 BYTE   W01
 BYTE   W01
 BYTE   W01
 BYTE   W01
 BYTE   W01
 BYTE   W01
 BYTE   W01
 BYTE   W01
 BYTE   W01
 BYTE   W01
 BYTE   W01
 BYTE   W01
 BYTE   W01
 BYTE   W01
 BYTE   W01
 BYTE   W01
 BYTE   W01
// 055   ----------------------------------------
 BYTE   W01
 BYTE   W01
 BYTE   W01
 BYTE   W01
 BYTE   W01
 BYTE   W01
 BYTE   W01
 BYTE   W01
 BYTE   W01
 BYTE   EOT
 BYTE   W01
 BYTE   W02
 BYTE   N12  As3
 BYTE   W01
 BYTE   W02
 BYTE   W02
 BYTE   W01
 BYTE   W01
 BYTE   W01
 BYTE   W01
 BYTE   W01
 BYTE   W01
 BYTE   W01
 BYTE   Bn3
 BYTE   W01
 BYTE   W01
 BYTE   W01
 BYTE   W01
 BYTE   W01
 BYTE   W07
 BYTE   Dn4
 BYTE   W12
 BYTE   N36  Fs4
 BYTE   W24
 BYTE   W12
 BYTE   N12  En4
 BYTE   W12
 BYTE   PATT
  POIN2 Label_5_014C89CD
// 056   ----------------------------------------
 BYTE   N12  En4  v127
 BYTE   N12  Gs4
 BYTE   W12
 BYTE   Gs3  v112
 BYTE   N12  Bn3  v127
 BYTE   W12
 BYTE   Bn3  v112
 BYTE   N12  Ds4  v127
 BYTE   W12
 BYTE   Cs4  v112
 BYTE   N12  En4  v127
 BYTE   W12
 BYTE   N06  En4  v112
 BYTE   N06  Gs4  v127
 BYTE   W24
 BYTE   N12  Dn4  v112
 BYTE   N12  Fs4  v127
 BYTE   W12
 BYTE   Fs3  v112
 BYTE   N12  An3  v127
 BYTE   W12
// 057   ----------------------------------------
 BYTE   Bn3  v112
 BYTE   N12  Dn4  v127
 BYTE   W12
 BYTE   Cs4  v112
 BYTE   N12  En4  v127
 BYTE   W12
 BYTE   N06  Dn4  v112
 BYTE   N06  Fs4  v127
 BYTE   W24
 BYTE   N12  Fn4  v112
 BYTE   N12  An4  v127
 BYTE   W12
 BYTE   Dn4  v112
 BYTE   N12  Fn4  v127
 BYTE   W12
 BYTE   Bn3  v112
 BYTE   N12  Dn4  v127
 BYTE   W12
 BYTE   An3  v112
 BYTE   N12  Cn4  v127
 BYTE   W12
// 058   ----------------------------------------
 BYTE   Gs3  v112
 BYTE   N12  Bn3  v127
 BYTE   W12
 BYTE   Fs3  v112
 BYTE   N12  An3  v127
 BYTE   W12
 BYTE   En3  v112
 BYTE   N12  Gs3  v127
 BYTE   W12
 BYTE   Dn3  v112
 BYTE   N12  Fs3  v127
 BYTE   W12
 BYTE   En3  v112
 BYTE   N12  Gs3  v127
 BYTE   W24
 BYTE   W24
// 059   ----------------------------------------
 BYTE   W24
 BYTE   W24
 BYTE   W24
 BYTE   W24
// 060   ----------------------------------------
 BYTE   W24
 BYTE   W24
 BYTE   W24
 BYTE   W24
// 061   ----------------------------------------
 BYTE   W24
 BYTE   W24
 BYTE   W24
 BYTE   W24
// 062   ----------------------------------------
 BYTE   Dn4  v100
 BYTE   N12  Fs4  v120
 BYTE   W12
 BYTE   En4  v100
 BYTE   N12  Gn4  v120
 BYTE   W12
 BYTE   Fs4  v100
 BYTE   N12  An4  v120
 BYTE   W12
 BYTE   Gn4  v100
 BYTE   N12  Bn4  v120
 BYTE   W12
 BYTE   An4  v100
 BYTE   N12  Cs5  v120
 BYTE   W12
 BYTE   Bn4  v100
 BYTE   N12  Dn5  v120
 BYTE   W12
 BYTE   Cs5  v100
 BYTE   N12  En5  v120
 BYTE   W12
 BYTE   N06  Dn5  v100
 BYTE   N06  Fs5  v120
 BYTE   W12
// 063   ----------------------------------------
 BYTE   TIE  Dn5  v100
 BYTE   TIE  Fs5  v120
 BYTE   W22
 BYTE   W02
 BYTE   W08
 BYTE   W05
 BYTE   W05
 BYTE   W03
 BYTE   W03
 BYTE   W02
 BYTE   W03
 BYTE   W02
 BYTE   W03
 BYTE   W01
 BYTE   W02
 BYTE   W03
 BYTE   W01
 BYTE   W02
 BYTE   W01
 BYTE   W02
 BYTE   W01
 BYTE   W01
 BYTE   W01
 BYTE   W01
 BYTE   W01
 BYTE   W01
 BYTE   W02
 BYTE   W01
 BYTE   W01
 BYTE   W02
 BYTE   W02
 BYTE   W01
 BYTE   W01
 BYTE   W02
 BYTE   W01
 BYTE   W02
 BYTE   W02
 BYTE   W01
 BYTE   W01
 BYTE   W01
// 064   ----------------------------------------
 BYTE   W01
 BYTE   W01
 BYTE   W02
 BYTE   W01
 BYTE   W01
 BYTE   W01
 BYTE   W01
 BYTE   W01
 BYTE   W01
 BYTE   W01
 BYTE   W01
 BYTE   W01
 BYTE   W01
 BYTE   W01
 BYTE   W01
 BYTE   W01
 BYTE   W01
 BYTE   W01
 BYTE   W01
 BYTE   W01
 BYTE   W01
 BYTE   W01
 BYTE   W01
 BYTE   EOT
 BYTE   Dn5  v090
 BYTE   W01
 BYTE   W01
 BYTE   W01
 BYTE   W01
 BYTE   W01
 BYTE   W01
 BYTE   W01
 BYTE   W01
 BYTE   W01
 BYTE   W01
 BYTE   W01
 BYTE   W01
 BYTE   W12
 BYTE   W24
 BYTE   W24
// 065   ----------------------------------------
 BYTE   GoTo
  POIN2 Label_5_014C89A2
 BYTE   FINE

//**************** Track 7 (Midi-Chn.6) ****************//

PokemonMDExplorersNorthernDesertRandomWizard_007:
// 000   ----------------------------------------
 BYTE   KEYSH   PokemonMDExplorersNorthernDesertRandomWizard_key+0
Label_6_015896CE:
 BYTE   VOICE   75
 BYTE   PAN   c_v-64
 BYTE   VOL   8*PokemonMDExplorersNorthernDesertRandomWizard_mvl/mxv
 BYTE   BEND   c_v+0
 BYTE   W24
 BYTE   W24
 BYTE   W24
 BYTE   W24
// 001   ----------------------------------------
 BYTE   W24
 BYTE   W24
 BYTE   W24
 BYTE   W24
// 002   ----------------------------------------
 BYTE   W24
 BYTE   W24
 BYTE   W24
 BYTE   W24
// 003   ----------------------------------------
 BYTE   W24
 BYTE   W24
 BYTE   W24
 BYTE   W24
// 004   ----------------------------------------
 BYTE   W24
 BYTE   W24
 BYTE   W24
 BYTE   W24
// 005   ----------------------------------------
 BYTE   W24
 BYTE   W24
 BYTE   W24
 BYTE   W24
// 006   ----------------------------------------
 BYTE   W12
 BYTE   N12  Bn3  v127
 BYTE   W12
Label_6_015896F3:
 BYTE   N12  Cs4  v127
 BYTE   W12
 BYTE   N24  Dn4
 BYTE   W12
 BYTE   PEND 
 BYTE   W12
 BYTE   En4
 BYTE   W12
 BYTE   W12
 BYTE   N12  Dn4
 BYTE   W12
// 007   ----------------------------------------
Label_6_01589702:
 BYTE   N12  Cs4  v127
 BYTE   W12
 BYTE   N24  Bn3
 BYTE   W12
 BYTE   PEND 
 BYTE   W12
 BYTE   An3
 BYTE   W12
 BYTE   W12
 BYTE   Bn3
 BYTE   W12
 BYTE   W12
 BYTE   N06  Fs4
 BYTE   W12
// 008   ----------------------------------------
 BYTE   W12
 BYTE   N06
 BYTE   W12
 BYTE   W12
 BYTE   N24  Cs4
 BYTE   W12
 BYTE   W12
 BYTE   N06  An4
 BYTE   W12
 BYTE   W12
 BYTE   N06
 BYTE   W12
// 009   ----------------------------------------
 BYTE   W12
 BYTE   N12  Bn3
 BYTE   W12
 BYTE   PATT
  POIN2 Label_6_015896F3
// 010   ----------------------------------------
 BYTE   W12
 BYTE   N24  En4  v127
 BYTE   W12
 BYTE   W12
 BYTE   N12  Dn4
 BYTE   W12
 BYTE   PATT
  POIN2 Label_6_01589702
// 011   ----------------------------------------
 BYTE   W12
 BYTE   N18  An3  v127
 BYTE   W12
 BYTE   W12
 BYTE   N12  Cs4
 BYTE   W12
Label_6_01589742:
 BYTE   N12  Ds4  v127
 BYTE   W12
 BYTE   Fn4
 BYTE   W12
 BYTE   PEND 
Label_6_01589749:
 BYTE   N12  Fs4  v127
 BYTE   W12
 BYTE   Gs4
 BYTE   W12
 BYTE   PEND 
// 012   ----------------------------------------
 BYTE   As4
 BYTE   W12
 BYTE   N60  Cn5
 BYTE   W12
 BYTE   W24
 BYTE   W24
 BYTE   W12
 BYTE   N48  Cs5
 BYTE   W12
// 013   ----------------------------------------
 BYTE   W24
 BYTE   W12
 BYTE   N12  Bn4
 BYTE   W12
Label_6_01589760:
 BYTE   N12  An4  v127
 BYTE   W12
 BYTE   N24  Gs4
 BYTE   W12
 BYTE   PEND 
 BYTE   W12
 BYTE   N06  Fs4
 BYTE   W12
// 014   ----------------------------------------
 BYTE   W12
 BYTE   N12  Cs4
 BYTE   W12
Label_6_01589770:
 BYTE   N12  Fs4  v127
 BYTE   W12
 BYTE   N48  Ds4
 BYTE   W12
 BYTE   PEND 
 BYTE   W24
 BYTE   W12
 BYTE   N12  Cs4
 BYTE   W12
// 015   ----------------------------------------
Label_6_0158977D:
 BYTE   N12  Ds4  v127
 BYTE   W12
 BYTE   N24  Bn3
 BYTE   W12
 BYTE   PEND 
 BYTE   W12
 BYTE   N12  Gs3
 BYTE   W12
 BYTE   W12
 BYTE   N12
 BYTE   W12
Label_6_0158978C:
 BYTE   N12  Bn3  v127
 BYTE   W12
 BYTE   N48  Cs4
 BYTE   W12
 BYTE   PEND 
// 016   ----------------------------------------
 BYTE   W24
 BYTE   W12
 BYTE   N06  Fs4
 BYTE   W12
 BYTE   W12
 BYTE   N24
 BYTE   W12
 BYTE   W12
 BYTE   Cs4
 BYTE   W12
// 017   ----------------------------------------
 BYTE   W12
 BYTE   Bn3
 BYTE   W12
 BYTE   W12
 BYTE   N48  Cs4
 BYTE   W12
 BYTE   W24
 BYTE   W12
 BYTE   N24  Bn3
 BYTE   W12
// 018   ----------------------------------------
 BYTE   W12
 BYTE   N48  Cs4
 BYTE   W12
 BYTE   W24
 BYTE   W24
 BYTE   W12
 BYTE   N12  Bn3
 BYTE   W12
 BYTE   PATT
  POIN2 Label_6_015896F3
// 019   ----------------------------------------
 BYTE   W12
 BYTE   N24  En4  v127
 BYTE   W12
 BYTE   W12
 BYTE   N12  Dn4
 BYTE   W12
 BYTE   PATT
  POIN2 Label_6_01589702
// 020   ----------------------------------------
 BYTE   W12
 BYTE   N24  An3  v127
 BYTE   W12
 BYTE   W12
 BYTE   Bn3
 BYTE   W12
 BYTE   W12
 BYTE   N06  Fs4
 BYTE   W12
 BYTE   W12
 BYTE   N06
 BYTE   W12
// 021   ----------------------------------------
 BYTE   W12
 BYTE   N24  Cs4
 BYTE   W12
 BYTE   W12
 BYTE   N06  An4
 BYTE   W12
 BYTE   W12
 BYTE   N06
 BYTE   W12
 BYTE   W12
 BYTE   N12  Bn3
 BYTE   W12
 BYTE   PATT
  POIN2 Label_6_015896F3
// 022   ----------------------------------------
 BYTE   W12
 BYTE   N24  En4  v127
 BYTE   W12
 BYTE   W12
 BYTE   N12  Dn4
 BYTE   W12
 BYTE   PATT
  POIN2 Label_6_01589702
// 023   ----------------------------------------
 BYTE   W12
 BYTE   N24  An3  v127
 BYTE   W12
 BYTE   W12
 BYTE   N12  Cs4
 BYTE   W12
 BYTE   PATT
  POIN2 Label_6_01589742
 BYTE   PATT
  POIN2 Label_6_01589749
// 024   ----------------------------------------
 BYTE   N12  As4  v127
 BYTE   W12
 BYTE   N54  Cn5
 BYTE   W12
 BYTE   W24
 BYTE   W24
 BYTE   W12
 BYTE   N48  Cs5
 BYTE   W12
// 025   ----------------------------------------
 BYTE   W24
 BYTE   W12
 BYTE   N12  Bn4
 BYTE   W12
 BYTE   PATT
  POIN2 Label_6_01589760
// 026   ----------------------------------------
 BYTE   W12
 BYTE   N06  Fs4  v127
 BYTE   W12
 BYTE   W12
 BYTE   N12  Cs4
 BYTE   W12
 BYTE   PATT
  POIN2 Label_6_01589770
// 027   ----------------------------------------
 BYTE   W24
 BYTE   W12
 BYTE   N12  Cs4  v127
 BYTE   W12
 BYTE   PATT
  POIN2 Label_6_0158977D
// 028   ----------------------------------------
 BYTE   W12
 BYTE   N12  Gs3  v127
 BYTE   W12
 BYTE   W12
 BYTE   N12
 BYTE   W12
 BYTE   PATT
  POIN2 Label_6_0158978C
// 029   ----------------------------------------
 BYTE   W24
 BYTE   W12
 BYTE   N06  Fs4  v127
 BYTE   W12
 BYTE   W12
 BYTE   N24
 BYTE   W12
 BYTE   W12
 BYTE   Cs4
 BYTE   W12
// 030   ----------------------------------------
 BYTE   W12
 BYTE   Bn3
 BYTE   W12
 BYTE   W12
 BYTE   N48  Cs4
 BYTE   W12
 BYTE   W24
 BYTE   W12
 BYTE   N24  Bn3
 BYTE   W12
// 031   ----------------------------------------
 BYTE   W12
 BYTE   N72  Cs4
 BYTE   W12
 BYTE   W24
 BYTE   W24
 BYTE   W24
// 032   ----------------------------------------
 BYTE   W24
 BYTE   W24
 BYTE   W24
 BYTE   W24
// 033   ----------------------------------------
 BYTE   W24
 BYTE   W24
 BYTE   W24
 BYTE   W24
// 034   ----------------------------------------
 BYTE   W24
 BYTE   W24
 BYTE   W24
 BYTE   W24
// 035   ----------------------------------------
 BYTE   W24
 BYTE   W24
 BYTE   W24
 BYTE   W24
// 036   ----------------------------------------
 BYTE   W24
 BYTE   W24
 BYTE   W24
 BYTE   W24
// 037   ----------------------------------------
 BYTE   W24
 BYTE   W24
 BYTE   W24
 BYTE   W24
// 038   ----------------------------------------
 BYTE   W24
 BYTE   W24
 BYTE   W24
 BYTE   W24
// 039   ----------------------------------------
 BYTE   W24
 BYTE   W24
 BYTE   W24
 BYTE   W24
// 040   ----------------------------------------
 BYTE   W24
 BYTE   W24
 BYTE   W24
 BYTE   W24
// 041   ----------------------------------------
 BYTE   W24
 BYTE   W24
 BYTE   W24
 BYTE   W24
// 042   ----------------------------------------
 BYTE   W24
 BYTE   W12
 BYTE   N68  Gs3
 BYTE   W12
 BYTE   W24
 BYTE   W24
// 043   ----------------------------------------
 BYTE   W12
 BYTE   N24  Ds3
 BYTE   W12
 BYTE   W12
 BYTE   En3
 BYTE   W12
 BYTE   W12
 BYTE   Gs3
 BYTE   W12
 BYTE   W12
 BYTE   N68  Bn3
 BYTE   W12
// 044   ----------------------------------------
 BYTE   W24
 BYTE   W24
 BYTE   W12
 BYTE   N24
 BYTE   W12
 BYTE   W12
 BYTE   Gs3
 BYTE   W12
// 045   ----------------------------------------
 BYTE   W12
 BYTE   Ds4
 BYTE   W12
 BYTE   W12
 BYTE   Bn3
 BYTE   W12
 BYTE   W12
 BYTE   N12  Ds4
 BYTE   W12
 BYTE   En4
 BYTE   W12
 BYTE   Fs4
 BYTE   W12
// 046   ----------------------------------------
 BYTE   Gs4
 BYTE   W12
 BYTE   N36  Fs4
 BYTE   W12
 BYTE   W24
 BYTE   N12  En4
 BYTE   W12
 BYTE   Ds4
 BYTE   W12
 BYTE   Cs4
 BYTE   W12
 BYTE   Ds4
 BYTE   W12
// 047   ----------------------------------------
 BYTE   Cs4
 BYTE   W12
 BYTE   TIE  Ds4
 BYTE   W12
 BYTE   W24
 BYTE   W24
 BYTE   W24
// 048   ----------------------------------------
 BYTE   W18
 BYTE   EOT
 BYTE   W06
 BYTE   W12
 BYTE   N68  Gs3
 BYTE   W12
 BYTE   W24
 BYTE   W24
// 049   ----------------------------------------
 BYTE   W12
 BYTE   N24  Ds3
 BYTE   W12
 BYTE   W12
 BYTE   En3
 BYTE   W12
 BYTE   W12
 BYTE   Gs3
 BYTE   W12
 BYTE   W12
 BYTE   N68  Bn3
 BYTE   W12
// 050   ----------------------------------------
 BYTE   W24
 BYTE   W24
 BYTE   W12
 BYTE   N24
 BYTE   W12
 BYTE   W12
 BYTE   Gs3
 BYTE   W12
// 051   ----------------------------------------
 BYTE   W12
 BYTE   Ds4
 BYTE   W12
 BYTE   W12
 BYTE   Bn3
 BYTE   W12
 BYTE   W12
 BYTE   N12  Bn4
 BYTE   W12
 BYTE   Cs5
 BYTE   W12
 BYTE   Ds5
 BYTE   W12
// 052   ----------------------------------------
 BYTE   En5
 BYTE   W12
 BYTE   N36  Fs5
 BYTE   W12
 BYTE   W24
 BYTE   N12  En5
 BYTE   W12
 BYTE   Ds5
 BYTE   W12
 BYTE   Cs5
 BYTE   W12
 BYTE   N36  Ds5
 BYTE   W12
// 053   ----------------------------------------
 BYTE   W24
 BYTE   N12  Cs5
 BYTE   W12
 BYTE   Bn4
 BYTE   W12
 BYTE   An4
 BYTE   W12
 BYTE   N60  Bn4
 BYTE   W12
 BYTE   W24
// 054   ----------------------------------------
 BYTE   W24
 BYTE   W12
 BYTE   N36  Bn3
 BYTE   W12
 BYTE   W24
 BYTE   N12  Fs3
 BYTE   W12
 BYTE   Gn3
 BYTE   W12
// 055   ----------------------------------------
 BYTE   Bn3
 BYTE   W12
 BYTE   TIE  Dn4
 BYTE   W12
 BYTE   W24
 BYTE   W24
 BYTE   W24
// 056   ----------------------------------------
 BYTE   W21
 BYTE   EOT
 BYTE   W03
 BYTE   N12  As3
 BYTE   W12
 BYTE   Bn3
 BYTE   W12
 BYTE   Dn4
 BYTE   W12
 BYTE   N36  Fs4
 BYTE   W12
 BYTE   W24
// 057   ----------------------------------------
 BYTE   N12  En4
 BYTE   W12
 BYTE   Dn4
 BYTE   W12
 BYTE   Cs4
 BYTE   W12
 BYTE   En4
 BYTE   N12  Gs4
 BYTE   W12
 BYTE   Gs3  v112
 BYTE   N12  Bn3  v127
 BYTE   W12
 BYTE   Bn3  v112
 BYTE   N12  Ds4  v127
 BYTE   W12
 BYTE   Cs4  v112
 BYTE   N12  En4  v127
 BYTE   W12
 BYTE   N06  En4  v112
 BYTE   N06  Gs4  v127
 BYTE   W12
// 058   ----------------------------------------
 BYTE   W12
 BYTE   N12  Dn4  v112
 BYTE   N12  Fs4  v127
 BYTE   W12
 BYTE   Fs3  v112
 BYTE   N12  An3  v127
 BYTE   W12
 BYTE   Bn3  v112
 BYTE   N12  Dn4  v127
 BYTE   W12
 BYTE   Cs4  v112
 BYTE   N12  En4  v127
 BYTE   W12
 BYTE   N06  Dn4  v112
 BYTE   N06  Fs4  v127
 BYTE   W12
 BYTE   W12
 BYTE   N12  Fn4  v112
 BYTE   N12  An4  v127
 BYTE   W12
// 059   ----------------------------------------
 BYTE   Dn4  v112
 BYTE   N12  Fn4  v127
 BYTE   W12
 BYTE   Bn3  v112
 BYTE   N12  Dn4  v127
 BYTE   W12
 BYTE   An3  v112
 BYTE   N12  Cn4  v127
 BYTE   W12
 BYTE   Gs3  v112
 BYTE   N12  Bn3  v127
 BYTE   W12
 BYTE   Fs3  v112
 BYTE   N12  An3  v127
 BYTE   W12
 BYTE   En3  v112
 BYTE   N12  Gs3  v127
 BYTE   W12
 BYTE   Dn3  v112
 BYTE   N12  Fs3  v127
 BYTE   W12
 BYTE   En3  v112
 BYTE   N12  Gs3  v127
 BYTE   W12
// 060   ----------------------------------------
 BYTE   W24
 BYTE   W24
 BYTE   W24
 BYTE   W24
// 061   ----------------------------------------
 BYTE   W24
 BYTE   W24
 BYTE   W24
 BYTE   W24
// 062   ----------------------------------------
 BYTE   W24
 BYTE   W24
 BYTE   W24
 BYTE   W24
// 063   ----------------------------------------
 BYTE   W24
 BYTE   W12
 BYTE   Dn4  v100
 BYTE   N12  Fs4  v120
 BYTE   W12
 BYTE   En4  v100
 BYTE   N12  Gn4  v120
 BYTE   W12
 BYTE   Fs4  v100
 BYTE   N12  An4  v120
 BYTE   W12
 BYTE   Gn4  v100
 BYTE   N12  Bn4  v120
 BYTE   W12
 BYTE   An4  v100
 BYTE   N12  Cs5  v120
 BYTE   W12
// 064   ----------------------------------------
 BYTE   Bn4  v100
 BYTE   N12  Dn5  v120
 BYTE   W12
 BYTE   Cs5  v100
 BYTE   N12  En5  v120
 BYTE   W12
 BYTE   N06  Dn5  v100
 BYTE   N06  Fs5  v120
 BYTE   W12
 BYTE   TIE  Dn5  v100
 BYTE   TIE  Fs5  v120
 BYTE   W12
 BYTE   W24
 BYTE   W24
// 065   ----------------------------------------
 BYTE   W24
 BYTE   W24
 BYTE   W12
 BYTE   EOT
 BYTE   Dn5  v090
 BYTE   W12
 BYTE   W24
// 066   ----------------------------------------
 BYTE   W24
 BYTE   GoTo
  POIN2 Label_6_015896CE
 BYTE   FINE

//**************** Track 8 (Midi-Chn.7) ****************//

PokemonMDExplorersNorthernDesertRandomWizard_008:
// 000   ----------------------------------------
 BYTE   KEYSH   PokemonMDExplorersNorthernDesertRandomWizard_key+0
Label_7_01589A12:
 BYTE   VOICE   75
 BYTE   PAN   c_v+63
 BYTE   VOL   5*PokemonMDExplorersNorthernDesertRandomWizard_mvl/mxv
 BYTE   BEND   c_v+0
 BYTE   W24
 BYTE   W24
 BYTE   W24
 BYTE   W24
// 001   ----------------------------------------
 BYTE   W24
 BYTE   W24
 BYTE   W24
 BYTE   W24
// 002   ----------------------------------------
 BYTE   W24
 BYTE   W24
 BYTE   W24
 BYTE   W24
// 003   ----------------------------------------
 BYTE   W24
 BYTE   W24
 BYTE   W24
 BYTE   W24
// 004   ----------------------------------------
 BYTE   W24
 BYTE   W24
 BYTE   W24
 BYTE   W24
// 005   ----------------------------------------
 BYTE   W24
 BYTE   W24
 BYTE   W24
 BYTE   W24
// 006   ----------------------------------------
 BYTE   W24
Label_7_01589A33:
 BYTE   N12  Bn3  v127
 BYTE   W12
 BYTE   Cs4
 BYTE   W12
 BYTE   PEND 
 BYTE   N24  Dn4
 BYTE   W24
 BYTE   En4
 BYTE   W24
// 007   ----------------------------------------
Label_7_01589A3F:
 BYTE   N12  Dn4  v127
 BYTE   W12
 BYTE   Cs4
 BYTE   W12
 BYTE   PEND 
 BYTE   N24  Bn3
 BYTE   W24
 BYTE   An3
 BYTE   W24
 BYTE   Bn3
 BYTE   W24
// 008   ----------------------------------------
 BYTE   N06  Fs4
 BYTE   W24
 BYTE   N06
 BYTE   W24
 BYTE   N24  Cs4
 BYTE   W24
 BYTE   N06  An4
 BYTE   W24
// 009   ----------------------------------------
 BYTE   N06
 BYTE   W24
 BYTE   PATT
  POIN2 Label_7_01589A33
// 010   ----------------------------------------
 BYTE   N24  Dn4  v127
 BYTE   W24
 BYTE   En4
 BYTE   W24
 BYTE   PATT
  POIN2 Label_7_01589A3F
// 011   ----------------------------------------
 BYTE   N24  Bn3  v127
 BYTE   W24
 BYTE   N18  An3
 BYTE   W24
Label_7_01589A71:
 BYTE   N12  Cs4  v127
 BYTE   W12
 BYTE   Ds4
 BYTE   W12
 BYTE   PEND 
Label_7_01589A78:
 BYTE   N12  Fn4  v127
 BYTE   W12
 BYTE   Fs4
 BYTE   W12
 BYTE   PEND 
// 012   ----------------------------------------
Label_7_01589A7F:
 BYTE   N12  Gs4  v127
 BYTE   W12
 BYTE   As4
 BYTE   W12
 BYTE   PEND 
 BYTE   N60  Cn5
 BYTE   W24
 BYTE   W24
 BYTE   W24
// 013   ----------------------------------------
 BYTE   N48  Cs5
 BYTE   W24
 BYTE   W24
Label_7_01589A8F:
 BYTE   N12  Bn4  v127
 BYTE   W12
 BYTE   An4
 BYTE   W12
 BYTE   PEND 
 BYTE   N24  Gs4
 BYTE   W24
// 014   ----------------------------------------
 BYTE   N06  Fs4
 BYTE   W24
Label_7_01589A9C:
 BYTE   N12  Cs4  v127
 BYTE   W12
 BYTE   Fs4
 BYTE   W12
 BYTE   PEND 
 BYTE   N48  Ds4
 BYTE   W24
 BYTE   W24
 BYTE   PATT
  POIN2 Label_7_01589A71
// 015   ----------------------------------------
 BYTE   N24  Bn3  v127
 BYTE   W24
 BYTE   N12  Gs3
 BYTE   W24
Label_7_01589AB3:
 BYTE   N12  Gs3  v127
 BYTE   W12
 BYTE   Bn3
 BYTE   W12
 BYTE   PEND 
 BYTE   N48  Cs4
 BYTE   W24
// 016   ----------------------------------------
 BYTE   W24
 BYTE   N06  Fs4
 BYTE   W24
 BYTE   N24
 BYTE   W24
 BYTE   Cs4
 BYTE   W24
// 017   ----------------------------------------
 BYTE   Bn3
 BYTE   W24
 BYTE   N48  Cs4
 BYTE   W24
 BYTE   W24
 BYTE   N24  Bn3
 BYTE   W24
// 018   ----------------------------------------
 BYTE   N48  Cs4
 BYTE   W24
 BYTE   W24
 BYTE   W24
 BYTE   PATT
  POIN2 Label_7_01589A33
// 019   ----------------------------------------
 BYTE   N24  Dn4  v127
 BYTE   W24
 BYTE   En4
 BYTE   W24
 BYTE   PATT
  POIN2 Label_7_01589A3F
// 020   ----------------------------------------
 BYTE   N24  Bn3  v127
 BYTE   W24
 BYTE   An3
 BYTE   W24
 BYTE   Bn3
 BYTE   W24
 BYTE   N06  Fs4
 BYTE   W24
// 021   ----------------------------------------
 BYTE   N06
 BYTE   W24
 BYTE   N24  Cs4
 BYTE   W24
 BYTE   N06  An4
 BYTE   W24
 BYTE   N06
 BYTE   W24
 BYTE   PATT
  POIN2 Label_7_01589A33
// 022   ----------------------------------------
 BYTE   N24  Dn4  v127
 BYTE   W24
 BYTE   En4
 BYTE   W24
 BYTE   PATT
  POIN2 Label_7_01589A3F
// 023   ----------------------------------------
 BYTE   N24  Bn3  v127
 BYTE   W24
 BYTE   An3
 BYTE   W24
 BYTE   PATT
  POIN2 Label_7_01589A71
 BYTE   PATT
  POIN2 Label_7_01589A78
 BYTE   PATT
  POIN2 Label_7_01589A7F
// 024   ----------------------------------------
 BYTE   N54  Cn5  v127
 BYTE   W24
 BYTE   W24
 BYTE   W24
 BYTE   N48  Cs5
 BYTE   W24
// 025   ----------------------------------------
 BYTE   W24
 BYTE   PATT
  POIN2 Label_7_01589A8F
// 026   ----------------------------------------
 BYTE   N24  Gs4  v127
 BYTE   W24
 BYTE   N06  Fs4
 BYTE   W24
 BYTE   PATT
  POIN2 Label_7_01589A9C
// 027   ----------------------------------------
 BYTE   N48  Ds4  v127
 BYTE   W24
 BYTE   W24
 BYTE   PATT
  POIN2 Label_7_01589A71
// 028   ----------------------------------------
 BYTE   N24  Bn3  v127
 BYTE   W24
 BYTE   N12  Gs3
 BYTE   W24
 BYTE   PATT
  POIN2 Label_7_01589AB3
// 029   ----------------------------------------
 BYTE   N48  Cs4  v127
 BYTE   W24
 BYTE   W24
 BYTE   N06  Fs4
 BYTE   W24
 BYTE   N24
 BYTE   W24
// 030   ----------------------------------------
 BYTE   Cs4
 BYTE   W24
 BYTE   Bn3
 BYTE   W24
 BYTE   N48  Cs4
 BYTE   W24
 BYTE   W24
// 031   ----------------------------------------
 BYTE   N24  Bn3
 BYTE   W24
 BYTE   N72  Cs4
 BYTE   W24
 BYTE   W24
 BYTE   W24
// 032   ----------------------------------------
 BYTE   W24
 BYTE   W24
 BYTE   W24
 BYTE   W24
// 033   ----------------------------------------
 BYTE   W24
 BYTE   W24
 BYTE   W24
 BYTE   W24
// 034   ----------------------------------------
 BYTE   W24
 BYTE   W24
 BYTE   W24
 BYTE   W24
// 035   ----------------------------------------
 BYTE   W24
 BYTE   W24
 BYTE   W24
 BYTE   W24
// 036   ----------------------------------------
 BYTE   W24
 BYTE   W24
 BYTE   W24
 BYTE   W24
// 037   ----------------------------------------
 BYTE   W24
 BYTE   W24
 BYTE   W24
 BYTE   W24
// 038   ----------------------------------------
 BYTE   W24
 BYTE   W24
 BYTE   W24
 BYTE   W24
// 039   ----------------------------------------
 BYTE   W24
 BYTE   W24
 BYTE   W24
 BYTE   W24
// 040   ----------------------------------------
 BYTE   W24
 BYTE   W24
 BYTE   W24
 BYTE   W24
// 041   ----------------------------------------
 BYTE   W24
 BYTE   W24
 BYTE   W24
 BYTE   W24
// 042   ----------------------------------------
 BYTE   W24
 BYTE   W24
 BYTE   N68  Gs3
 BYTE   W24
 BYTE   W24
// 043   ----------------------------------------
 BYTE   W24
 BYTE   N24  Ds3
 BYTE   W24
 BYTE   En3
 BYTE   W24
 BYTE   Gs3
 BYTE   W24
// 044   ----------------------------------------
 BYTE   N68  Bn3
 BYTE   W24
 BYTE   W24
 BYTE   W24
 BYTE   N24
 BYTE   W24
// 045   ----------------------------------------
 BYTE   Gs3
 BYTE   W24
 BYTE   Ds4
 BYTE   W24
 BYTE   Bn3
 BYTE   W24
 BYTE   N12  Ds4
 BYTE   W12
 BYTE   En4
 BYTE   W12
// 046   ----------------------------------------
 BYTE   Fs4
 BYTE   W12
 BYTE   Gs4
 BYTE   W12
 BYTE   N36  Fs4
 BYTE   W24
 BYTE   W12
 BYTE   N12  En4
 BYTE   W12
Label_7_01589BBB:
 BYTE   N12  Ds4  v127
 BYTE   W12
 BYTE   Cs4
 BYTE   W12
 BYTE   PEND 
 BYTE   PATT
  POIN2 Label_7_01589BBB
// 047   ----------------------------------------
 BYTE   TIE  Ds4  v127
 BYTE   W24
 BYTE   W24
 BYTE   W24
 BYTE   W24
// 048   ----------------------------------------
 BYTE   W06
 BYTE   EOT
 BYTE   W18
 BYTE   N68  Gs3
 BYTE   W24
 BYTE   W24
 BYTE   W24
// 049   ----------------------------------------
 BYTE   N24  Ds3
 BYTE   W24
 BYTE   En3
 BYTE   W24
 BYTE   Gs3
 BYTE   W24
 BYTE   N68  Bn3
 BYTE   W24
// 050   ----------------------------------------
 BYTE   W24
 BYTE   W24
 BYTE   N24
 BYTE   W24
 BYTE   Gs3
 BYTE   W24
// 051   ----------------------------------------
 BYTE   Ds4
 BYTE   W24
 BYTE   Bn3
 BYTE   W24
 BYTE   N12  Bn4
 BYTE   W12
 BYTE   Cs5
 BYTE   W12
 BYTE   Ds5
 BYTE   W12
 BYTE   En5
 BYTE   W12
// 052   ----------------------------------------
 BYTE   N36  Fs5
 BYTE   W24
 BYTE   W12
 BYTE   N12  En5
 BYTE   W12
 BYTE   Ds5
 BYTE   W12
 BYTE   Cs5
 BYTE   W12
 BYTE   N36  Ds5
 BYTE   W24
// 053   ----------------------------------------
 BYTE   W12
 BYTE   N12  Cs5
 BYTE   W12
 BYTE   PATT
  POIN2 Label_7_01589A8F
// 054   ----------------------------------------
 BYTE   N60  Bn4  v127
 BYTE   W24
 BYTE   W24
 BYTE   W24
 BYTE   N36  Bn3
 BYTE   W24
// 055   ----------------------------------------
 BYTE   W12
 BYTE   N12  Fs3
 BYTE   W12
 BYTE   Gn3
 BYTE   W12
 BYTE   Bn3
 BYTE   W12
 BYTE   TIE  Dn4
 BYTE   W24
 BYTE   W24
// 056   ----------------------------------------
 BYTE   W24
 BYTE   W24
 BYTE   W09
 BYTE   EOT
 BYTE   W03
 BYTE   N12  As3
 BYTE   W12
 BYTE   Bn3
 BYTE   W12
 BYTE   Dn4
 BYTE   W12
// 057   ----------------------------------------
 BYTE   N36  Fs4
 BYTE   W24
 BYTE   W12
 BYTE   N12  En4
 BYTE   W12
 BYTE   PATT
  POIN2 Label_7_01589A3F
// 058   ----------------------------------------
 BYTE   N12  En4  v127
 BYTE   N12  Gs4
 BYTE   W12
 BYTE   Gs3  v112
 BYTE   N12  Bn3  v127
 BYTE   W12
 BYTE   Bn3  v112
 BYTE   N12  Ds4  v127
 BYTE   W12
 BYTE   Cs4  v112
 BYTE   N12  En4  v127
 BYTE   W12
 BYTE   N06  En4  v112
 BYTE   N06  Gs4  v127
 BYTE   W24
 BYTE   N12  Dn4  v112
 BYTE   N12  Fs4  v127
 BYTE   W12
 BYTE   Fs3  v112
 BYTE   N12  An3  v127
 BYTE   W12
// 059   ----------------------------------------
 BYTE   Bn3  v112
 BYTE   N12  Dn4  v127
 BYTE   W12
 BYTE   Cs4  v112
 BYTE   N12  En4  v127
 BYTE   W12
 BYTE   N06  Dn4  v112
 BYTE   N06  Fs4  v127
 BYTE   W24
 BYTE   N12  Fn4  v112
 BYTE   N12  An4  v127
 BYTE   W12
 BYTE   Dn4  v112
 BYTE   N12  Fn4  v127
 BYTE   W12
 BYTE   Bn3  v112
 BYTE   N12  Dn4  v127
 BYTE   W12
 BYTE   An3  v112
 BYTE   N12  Cn4  v127
 BYTE   W12
// 060   ----------------------------------------
 BYTE   Gs3  v112
 BYTE   N12  Bn3  v127
 BYTE   W12
 BYTE   Fs3  v112
 BYTE   N12  An3  v127
 BYTE   W12
 BYTE   En3  v112
 BYTE   N12  Gs3  v127
 BYTE   W12
 BYTE   Dn3  v112
 BYTE   N12  Fs3  v127
 BYTE   W12
 BYTE   En3  v112
 BYTE   N12  Gs3  v127
 BYTE   W24
 BYTE   W24
// 061   ----------------------------------------
 BYTE   W24
 BYTE   W24
 BYTE   W24
 BYTE   W24
// 062   ----------------------------------------
 BYTE   W24
 BYTE   W24
 BYTE   W24
 BYTE   W24
// 063   ----------------------------------------
 BYTE   W24
 BYTE   W24
 BYTE   W24
 BYTE   W24
// 064   ----------------------------------------
 BYTE   Dn4  v100
 BYTE   N12  Fs4  v120
 BYTE   W12
 BYTE   En4  v100
 BYTE   N12  Gn4  v120
 BYTE   W12
 BYTE   Fs4  v100
 BYTE   N12  An4  v120
 BYTE   W12
 BYTE   Gn4  v100
 BYTE   N12  Bn4  v120
 BYTE   W12
 BYTE   An4  v100
 BYTE   N12  Cs5  v120
 BYTE   W12
 BYTE   Bn4  v100
 BYTE   N12  Dn5  v120
 BYTE   W12
 BYTE   Cs5  v100
 BYTE   N12  En5  v120
 BYTE   W12
 BYTE   N06  Dn5  v100
 BYTE   N06  Fs5  v120
 BYTE   W12
// 065   ----------------------------------------
 BYTE   TIE  Dn5  v100
 BYTE   TIE  Fs5  v120
 BYTE   W24
 BYTE   W24
 BYTE   W24
 BYTE   W24
// 066   ----------------------------------------
 BYTE   W24
 BYTE   EOT
 BYTE   Dn5  v090
 BYTE   W24
 BYTE   W24
 BYTE   GoTo
  POIN2 Label_7_01589A12
 BYTE   FINE

//**************** Track 9 (Midi-Chn.8) ****************//

PokemonMDExplorersNorthernDesertRandomWizard_009:
// 000   ----------------------------------------
 BYTE   KEYSH   PokemonMDExplorersNorthernDesertRandomWizard_key+0
Label_8_01589D06:
 BYTE   VOICE   51
 BYTE   PAN   c_v-14
 BYTE   VOL   12*PokemonMDExplorersNorthernDesertRandomWizard_mvl/mxv
 BYTE   BEND   c_v+0
 BYTE   W24
 BYTE   W24
 BYTE   W24
 BYTE   W24
// 001   ----------------------------------------
 BYTE   W24
 BYTE   W24
 BYTE   W24
 BYTE   W24
// 002   ----------------------------------------
 BYTE   W24
 BYTE   W24
 BYTE   W24
 BYTE   W24
// 003   ----------------------------------------
 BYTE   W24
 BYTE   W24
 BYTE   W24
 BYTE   W24
// 004   ----------------------------------------
 BYTE   W24
 BYTE   W24
 BYTE   W24
 BYTE   W24
// 005   ----------------------------------------
 BYTE   W24
 BYTE   W24
 BYTE   W24
 BYTE   W24
// 006   ----------------------------------------
 BYTE   W24
 BYTE   W24
 BYTE   W24
 BYTE   W24
// 007   ----------------------------------------
 BYTE   W24
 BYTE   W24
 BYTE   W24
 BYTE   W24
// 008   ----------------------------------------
 BYTE   W24
 BYTE   W24
 BYTE   W24
 BYTE   W24
// 009   ----------------------------------------
 BYTE   W24
 BYTE   W24
 BYTE   W24
 BYTE   W24
// 010   ----------------------------------------
 BYTE   W24
 BYTE   W24
 BYTE   W24
 BYTE   W24
// 011   ----------------------------------------
 BYTE   W24
 BYTE   W24
 BYTE   W24
 BYTE   W24
// 012   ----------------------------------------
 BYTE   W24
 BYTE   W24
 BYTE   W24
 BYTE   W24
// 013   ----------------------------------------
 BYTE   W24
 BYTE   W24
 BYTE   W24
 BYTE   W24
// 014   ----------------------------------------
 BYTE   W24
 BYTE   W24
 BYTE   W24
 BYTE   W24
// 015   ----------------------------------------
 BYTE   W24
 BYTE   W24
 BYTE   W24
 BYTE   W24
// 016   ----------------------------------------
 BYTE   W24
 BYTE   W24
 BYTE   W24
 BYTE   W24
// 017   ----------------------------------------
 BYTE   W24
 BYTE   W24
 BYTE   W24
 BYTE   W24
// 018   ----------------------------------------
 BYTE   W24
 BYTE   W24
 BYTE   W24
 BYTE   W24
// 019   ----------------------------------------
 BYTE   W24
 BYTE   W24
 BYTE   W24
 BYTE   W24
// 020   ----------------------------------------
 BYTE   W24
 BYTE   W24
 BYTE   W24
 BYTE   W24
// 021   ----------------------------------------
 BYTE   W24
 BYTE   W24
 BYTE   W24
 BYTE   W24
// 022   ----------------------------------------
 BYTE   W24
 BYTE   W24
 BYTE   W24
 BYTE   W24
// 023   ----------------------------------------
 BYTE   W24
 BYTE   W24
 BYTE   W24
 BYTE   W24
// 024   ----------------------------------------
 BYTE   W24
 BYTE   W24
 BYTE   W24
 BYTE   W24
// 025   ----------------------------------------
 BYTE   W24
 BYTE   W24
 BYTE   W24
 BYTE   W24
// 026   ----------------------------------------
 BYTE   W24
 BYTE   W24
 BYTE   W24
 BYTE   W24
// 027   ----------------------------------------
 BYTE   W24
 BYTE   W24
 BYTE   W24
 BYTE   W24
// 028   ----------------------------------------
 BYTE   W24
 BYTE   W24
 BYTE   W24
 BYTE   W24
// 029   ----------------------------------------
 BYTE   W24
 BYTE   W24
 BYTE   W24
 BYTE   W24
// 030   ----------------------------------------
 BYTE   N72  Cs4  v100
 BYTE   N72  En4
 BYTE   W01
 BYTE   W09
 BYTE   W05
 BYTE   W04
 BYTE   W02
 BYTE   W03
 BYTE   W01
 BYTE   W03
 BYTE   W02
 BYTE   W01
 BYTE   W02
 BYTE   W01
 BYTE   W02
 BYTE   W01
 BYTE   W02
 BYTE   W01
 BYTE   W02
 BYTE   W01
 BYTE   W02
 BYTE   W01
 BYTE   W02
 BYTE   W01
 BYTE   W02
 BYTE   W01
 BYTE   W02
 BYTE   W01
 BYTE   W02
 BYTE   W15
 BYTE   Dn4
 BYTE   N72  Fs4
 BYTE   W15
 BYTE   W09
// 031   ----------------------------------------
 BYTE   W04
 BYTE   W08
 BYTE   W06
 BYTE   W04
 BYTE   W02
 BYTE   W03
 BYTE   W03
 BYTE   W04
 BYTE   W03
 BYTE   W03
 BYTE   W03
 BYTE   W05
 BYTE   An4
 BYTE   N72  Cs5
 BYTE   W07
 BYTE   W12
 BYTE   W05
 BYTE   W03
 BYTE   W06
 BYTE   W06
 BYTE   W04
 BYTE   W03
 BYTE   W02
// 032   ----------------------------------------
 BYTE   W03
 BYTE   W03
 BYTE   W03
 BYTE   W13
 BYTE   W02
 BYTE   N68  En4
 BYTE   N68  An4
 BYTE   W04
 BYTE   W06
 BYTE   W05
 BYTE   W03
 BYTE   W03
 BYTE   W01
 BYTE   W02
 BYTE   W01
 BYTE   W02
 BYTE   W03
 BYTE   W01
 BYTE   W02
 BYTE   W01
 BYTE   W02
 BYTE   W01
 BYTE   W02
 BYTE   W01
 BYTE   W02
 BYTE   W01
 BYTE   W02
 BYTE   W01
 BYTE   W02
 BYTE   W01
 BYTE   W02
 BYTE   W01
 BYTE   W02
 BYTE   W01
 BYTE   W02
 BYTE   W01
 BYTE   W02
 BYTE   W01
 BYTE   W02
 BYTE   W01
 BYTE   W02
 BYTE   W01
 BYTE   W02
 BYTE   W01
 BYTE   W02
// 033   ----------------------------------------
 BYTE   N72  Bn4
 BYTE   N72  Dn5
 BYTE   W09
 BYTE   W04
 BYTE   W03
 BYTE   W03
 BYTE   W02
 BYTE   W03
 BYTE   W01
 BYTE   W02
 BYTE   W01
 BYTE   W02
 BYTE   W01
 BYTE   W03
 BYTE   W02
 BYTE   W01
 BYTE   W02
 BYTE   W01
 BYTE   W02
 BYTE   W01
 BYTE   W02
 BYTE   W01
 BYTE   W02
 BYTE   W01
 BYTE   W02
 BYTE   W13
 BYTE   W08
 BYTE   N24  Bn4
 BYTE   N24  Dn5
 BYTE   W04
 BYTE   W08
 BYTE   W07
 BYTE   W05
// 034   ----------------------------------------
 BYTE   An4
 BYTE   N24  Cs5
 BYTE   W04
 BYTE   W05
 BYTE   W06
 BYTE   W03
 BYTE   W03
 BYTE   W03
 BYTE   Gn4
 BYTE   N24  Bn4
 BYTE   W04
 BYTE   W03
 BYTE   W03
 BYTE   W03
 BYTE   W03
 BYTE   W03
 BYTE   W02
 BYTE   W03
 BYTE   N72  Fs4
 BYTE   N72  As4
 BYTE   W01
 BYTE   W11
 BYTE   W06
 BYTE   W03
 BYTE   W03
 BYTE   W01
 BYTE   W02
 BYTE   W03
 BYTE   W03
 BYTE   W01
 BYTE   W03
 BYTE   W02
 BYTE   W01
 BYTE   W03
 BYTE   W02
 BYTE   W01
 BYTE   W02
// 035   ----------------------------------------
 BYTE   W01
 BYTE   W02
 BYTE   W01
 BYTE   W15
 BYTE   W05
 BYTE   N48  Dn4
 BYTE   N48  Gs4
 BYTE   W10
 BYTE   W09
 BYTE   W05
 BYTE   W03
 BYTE   W04
 BYTE   W05
 BYTE   W04
 BYTE   W05
 BYTE   W03
 BYTE   N24
 BYTE   N24  Bn4
 BYTE   W03
 BYTE   W03
 BYTE   W01
 BYTE   W05
 BYTE   W01
 BYTE   W02
 BYTE   W01
 BYTE   W02
 BYTE   W01
 BYTE   W02
 BYTE   W01
 BYTE   W02
// 036   ----------------------------------------
 BYTE   N72  Dn4
 BYTE   N72  As4
 BYTE   W03
 BYTE   W04
 BYTE   W03
 BYTE   W02
 BYTE   W03
 BYTE   W01
 BYTE   W02
 BYTE   W01
 BYTE   W02
 BYTE   W01
 BYTE   W02
 BYTE   W01
 BYTE   W02
 BYTE   W01
 BYTE   W02
 BYTE   W01
 BYTE   W02
 BYTE   W01
 BYTE   W02
 BYTE   W01
 BYTE   W02
 BYTE   W01
 BYTE   W02
 BYTE   W01
 BYTE   W05
 BYTE   W24
 BYTE   N24  En4
 BYTE   N24  Cn5
 BYTE   W01
 BYTE   W15
 BYTE   W06
 BYTE   W02
// 037   ----------------------------------------
 BYTE   Fn4
 BYTE   N24  Dn5
 BYTE   W03
 BYTE   W04
 BYTE   W05
 BYTE   W03
 BYTE   W03
 BYTE   W03
 BYTE   W03
 BYTE   Cn4
 BYTE   N24  An4
 BYTE   W01
 BYTE   W03
 BYTE   W02
 BYTE   W03
 BYTE   W01
 BYTE   W02
 BYTE   W03
 BYTE   W01
 BYTE   W02
 BYTE   W01
 BYTE   W05
 BYTE   N72  En4
 BYTE   N72  Bn4
 BYTE   W04
 BYTE   W08
 BYTE   W04
 BYTE   W03
 BYTE   W05
 BYTE   W03
 BYTE   W03
 BYTE   W03
 BYTE   W03
 BYTE   W01
 BYTE   W02
 BYTE   W03
 BYTE   W01
 BYTE   W03
 BYTE   W02
// 038   ----------------------------------------
 BYTE   W01
 BYTE   W02
 BYTE   W01
 BYTE   W02
 BYTE   W01
 BYTE   W02
 BYTE   W01
 BYTE   W11
 BYTE   W03
 BYTE   N68  An3
 BYTE   N68  En4
 BYTE   W12
 BYTE   W04
 BYTE   W05
 BYTE   W03
 BYTE   W01
 BYTE   W05
 BYTE   W01
 BYTE   W03
 BYTE   W03
 BYTE   W03
 BYTE   W02
 BYTE   W03
 BYTE   W01
 BYTE   W02
 BYTE   W01
 BYTE   W02
 BYTE   W01
 BYTE   W02
 BYTE   W03
 BYTE   W01
 BYTE   W02
 BYTE   W01
 BYTE   W02
 BYTE   W01
 BYTE   W02
 BYTE   W01
 BYTE   W02
 BYTE   W01
 BYTE   W02
// 039   ----------------------------------------
 BYTE   N72  Fs4
 BYTE   N72  Cs5
 BYTE   W01
 BYTE   W08
 BYTE   W04
 BYTE   W03
 BYTE   W03
 BYTE   W02
 BYTE   W03
 BYTE   W01
 BYTE   W02
 BYTE   W01
 BYTE   W02
 BYTE   W01
 BYTE   W02
 BYTE   W01
 BYTE   W02
 BYTE   W01
 BYTE   W02
 BYTE   W01
 BYTE   W02
 BYTE   W01
 BYTE   W02
 BYTE   W01
 BYTE   W02
 BYTE   W24
 BYTE   N60  Bn3
 BYTE   N60  Fs4
 BYTE   W18
 BYTE   W04
 BYTE   W02
// 040   ----------------------------------------
 BYTE   W01
 BYTE   W02
 BYTE   W01
 BYTE   W02
 BYTE   W01
 BYTE   W02
 BYTE   W01
 BYTE   W02
 BYTE   W01
 BYTE   W02
 BYTE   W01
 BYTE   W02
 BYTE   W01
 BYTE   W02
 BYTE   W01
 BYTE   W02
 BYTE   W01
 BYTE   W02
 BYTE   W01
 BYTE   W02
 BYTE   W01
 BYTE   W02
 BYTE   W01
 BYTE   W02
 BYTE   W01
 BYTE   W02
 BYTE   W06
 BYTE   W03
 BYTE   N72  Gs4  v112
 BYTE   W06
 BYTE   W03
 BYTE   W04
 BYTE   W02
 BYTE   W03
 BYTE   W03
 BYTE   W01
 BYTE   W02
 BYTE   W01
 BYTE   W02
 BYTE   W01
 BYTE   W03
 BYTE   W02
 BYTE   W01
 BYTE   W02
 BYTE   W01
 BYTE   W02
 BYTE   W01
 BYTE   W02
 BYTE   W01
 BYTE   W02
 BYTE   W01
 BYTE   W02
// 041   ----------------------------------------
 BYTE   W01
 BYTE   W02
 BYTE   W01
 BYTE   W02
 BYTE   W01
 BYTE   W02
 BYTE   W01
 BYTE   W02
 BYTE   W01
 BYTE   W02
 BYTE   W01
 BYTE   W02
 BYTE   W01
 BYTE   W02
 BYTE   W03
 BYTE   N24  Ds4
 BYTE   W07
 BYTE   W05
 BYTE   W03
 BYTE   W01
 BYTE   W03
 BYTE   W03
 BYTE   W02
 BYTE   En4
 BYTE   W01
 BYTE   W03
 BYTE   W02
 BYTE   W01
 BYTE   W02
 BYTE   W01
 BYTE   W02
 BYTE   W01
 BYTE   W02
 BYTE   W01
 BYTE   W02
 BYTE   W01
 BYTE   W02
 BYTE   W01
 BYTE   W02
 BYTE   Gs4
 BYTE   W01
 BYTE   W02
 BYTE   W01
 BYTE   W02
 BYTE   W01
 BYTE   W02
 BYTE   W01
 BYTE   W02
 BYTE   W01
 BYTE   W11
// 042   ----------------------------------------
 BYTE   N72  Bn4
 BYTE   W21
 BYTE   W03
 BYTE   W03
 BYTE   W04
 BYTE   W03
 BYTE   W03
 BYTE   W02
 BYTE   W01
 BYTE   W02
 BYTE   W03
 BYTE   W01
 BYTE   W02
 BYTE   W01
 BYTE   W02
 BYTE   W01
 BYTE   W02
 BYTE   W01
 BYTE   W02
 BYTE   W01
 BYTE   W02
 BYTE   W01
 BYTE   W02
 BYTE   W01
 BYTE   W02
 BYTE   W01
 BYTE   W02
 BYTE   W03
 BYTE   N24
 BYTE   W07
 BYTE   W05
 BYTE   W03
 BYTE   W01
 BYTE   W03
 BYTE   W03
 BYTE   W02
// 043   ----------------------------------------
 BYTE   Gs4
 BYTE   W01
 BYTE   W02
 BYTE   W03
 BYTE   W03
 BYTE   W01
 BYTE   W02
 BYTE   W01
 BYTE   W02
 BYTE   W01
 BYTE   W02
 BYTE   W01
 BYTE   W02
 BYTE   W01
 BYTE   W02
 BYTE   Ds5
 BYTE   W01
 BYTE   W02
 BYTE   W01
 BYTE   W02
 BYTE   W01
 BYTE   W15
 BYTE   W02
 BYTE   TIE  Bn4
 BYTE   W13
 BYTE   W11
 BYTE   W04
 BYTE   W11
 BYTE   W09
// 044   ----------------------------------------
 BYTE   W07
 BYTE   W05
 BYTE   W06
 BYTE   W06
 BYTE   W04
 BYTE   W05
 BYTE   W03
 BYTE   W06
 BYTE   W03
 BYTE   W03
 BYTE   W04
 BYTE   W03
 BYTE   W05
 BYTE   W03
 BYTE   W03
 BYTE   W03
 BYTE   W03
 BYTE   W03
 BYTE   W01
 BYTE   W05
 BYTE   W01
 BYTE   W03
 BYTE   W03
 BYTE   W03
 BYTE   W02
 BYTE   W03
// 045   ----------------------------------------
 BYTE   W03
 BYTE   W01
 BYTE   W03
 BYTE   W02
 BYTE   W03
 BYTE   W03
 BYTE   W01
 BYTE   W02
 BYTE   W03
 BYTE   W01
 BYTE   W02
 BYTE   W01
 BYTE   W02
 BYTE   W03
 BYTE   W01
 BYTE   W02
 BYTE   W01
 BYTE   W03
 BYTE   W02
 BYTE   W01
 BYTE   W03
 BYTE   W02
 BYTE   W01
 BYTE   W02
 BYTE   W01
 BYTE   W02
 BYTE   W01
 BYTE   W02
 BYTE   W01
 BYTE   W03
 BYTE   W02
 BYTE   W01
 BYTE   W02
 BYTE   W01
 BYTE   W02
 BYTE   W03
 BYTE   W01
 BYTE   W02
 BYTE   W01
 BYTE   W02
 BYTE   W01
 BYTE   W02
 BYTE   W01
 BYTE   W02
 BYTE   W01
 BYTE   W02
 BYTE   W01
 BYTE   W02
 BYTE   W03
 BYTE   W01
 BYTE   W02
 BYTE   W03
// 046   ----------------------------------------
 BYTE   W01
 BYTE   W02
 BYTE   W03
 BYTE   W01
 BYTE   W02
 BYTE   W01
 BYTE   W02
 BYTE   W01
 BYTE   W02
 BYTE   W01
 BYTE   W02
 BYTE   W01
 BYTE   W02
 BYTE   W01
 BYTE   W02
 BYTE   EOT
 BYTE   W12
 BYTE   W09
 BYTE   W01
 BYTE   W02
 BYTE   N72  Gs4
 BYTE   W03
 BYTE   W06
 BYTE   W03
 BYTE   W01
 BYTE   W02
 BYTE   W03
 BYTE   W01
 BYTE   W02
 BYTE   W01
 BYTE   W02
 BYTE   W01
 BYTE   W02
 BYTE   W01
 BYTE   W02
 BYTE   W01
 BYTE   W02
 BYTE   W01
 BYTE   W02
 BYTE   W01
 BYTE   W02
 BYTE   W01
 BYTE   W02
 BYTE   W01
 BYTE   W02
 BYTE   W01
 BYTE   W02
// 047   ----------------------------------------
 BYTE   W04
 BYTE   W02
 BYTE   W01
 BYTE   W02
 BYTE   W01
 BYTE   W02
 BYTE   W01
 BYTE   W02
 BYTE   W01
 BYTE   W02
 BYTE   W01
 BYTE   W02
 BYTE   W03
 BYTE   N24  Ds4
 BYTE   W06
 BYTE   W04
 BYTE   W03
 BYTE   W03
 BYTE   W03
 BYTE   W02
 BYTE   W03
 BYTE   En4
 BYTE   W01
 BYTE   W02
 BYTE   W01
 BYTE   W02
 BYTE   W01
 BYTE   W02
 BYTE   W01
 BYTE   W02
 BYTE   W01
 BYTE   W02
 BYTE   W01
 BYTE   W02
 BYTE   W01
 BYTE   W02
 BYTE   W01
 BYTE   W02
 BYTE   Gs4
 BYTE   W01
 BYTE   W02
 BYTE   W01
 BYTE   W20
// 048   ----------------------------------------
 BYTE   N72  Bn4
 BYTE   W10
 BYTE   W09
 BYTE   W05
 BYTE   W03
 BYTE   W03
 BYTE   W03
 BYTE   W01
 BYTE   W03
 BYTE   W02
 BYTE   W01
 BYTE   W02
 BYTE   W01
 BYTE   W02
 BYTE   W01
 BYTE   W02
 BYTE   W01
 BYTE   W02
 BYTE   W01
 BYTE   W02
 BYTE   W01
 BYTE   W02
 BYTE   W01
 BYTE   W02
 BYTE   W01
 BYTE   W02
 BYTE   W01
 BYTE   W02
 BYTE   W06
 BYTE   N24
 BYTE   W04
 BYTE   W06
 BYTE   W03
 BYTE   W05
 BYTE   W03
 BYTE   W03
// 049   ----------------------------------------
 BYTE   Gs4
 BYTE   W03
 BYTE   W01
 BYTE   W02
 BYTE   W03
 BYTE   W01
 BYTE   W02
 BYTE   W01
 BYTE   W02
 BYTE   W03
 BYTE   W01
 BYTE   W02
 BYTE   W01
 BYTE   W02
 BYTE   Ds5
 BYTE   W01
 BYTE   W02
 BYTE   W01
 BYTE   W02
 BYTE   W01
 BYTE   W02
 BYTE   W01
 BYTE   W02
 BYTE   W12
 BYTE   TIE  Bn4
 BYTE   W16
 BYTE   W08
 BYTE   W12
 BYTE   W10
 BYTE   W02
// 050   ----------------------------------------
 BYTE   W06
 BYTE   W07
 BYTE   W06
 BYTE   W05
 BYTE   W04
 BYTE   W05
 BYTE   W04
 BYTE   W03
 BYTE   W05
 BYTE   W03
 BYTE   W03
 BYTE   W03
 BYTE   W03
 BYTE   W04
 BYTE   W03
 BYTE   W02
 BYTE   W03
 BYTE   W03
 BYTE   W03
 BYTE   W01
 BYTE   W03
 BYTE   W03
 BYTE   W02
 BYTE   W03
 BYTE   W03
 BYTE   W01
 BYTE   W02
 BYTE   W03
// 051   ----------------------------------------
 BYTE   W01
 BYTE   W03
 BYTE   W02
 BYTE   W01
 BYTE   W03
 BYTE   W02
 BYTE   W01
 BYTE   W02
 BYTE   W03
 BYTE   W01
 BYTE   W02
 BYTE   W01
 BYTE   W02
 BYTE   W01
 BYTE   W02
 BYTE   W01
 BYTE   W02
 BYTE   W01
 BYTE   W02
 BYTE   W01
 BYTE   W02
 BYTE   W03
 BYTE   W01
 BYTE   W02
 BYTE   W01
 BYTE   W02
 BYTE   W01
 BYTE   W02
 BYTE   W01
 BYTE   W02
 BYTE   W01
 BYTE   W02
 BYTE   W01
 BYTE   W02
 BYTE   W01
 BYTE   W02
 BYTE   W01
 BYTE   W02
 BYTE   W01
 BYTE   W02
 BYTE   W01
 BYTE   W02
 BYTE   W01
 BYTE   W02
 BYTE   W01
 BYTE   W02
 BYTE   W01
 BYTE   W02
 BYTE   W01
 BYTE   W02
 BYTE   W01
 BYTE   W02
 BYTE   W01
 BYTE   W02
 BYTE   W01
 BYTE   W02
 BYTE   W01
 BYTE   W02
 BYTE   W01
 BYTE   W02
// 052   ----------------------------------------
 BYTE   W01
 BYTE   W02
 BYTE   W01
 BYTE   W02
 BYTE   W01
 BYTE   W02
 BYTE   W01
 BYTE   W02
 BYTE   W01
 BYTE   W02
 BYTE   W01
 BYTE   W02
 BYTE   W01
 BYTE   W02
 BYTE   W01
 BYTE   W02
 BYTE   EOT
 BYTE   W01
 BYTE   W02
 BYTE   W01
 BYTE   W02
 BYTE   W01
 BYTE   W02
 BYTE   W03
 BYTE   W01
 BYTE   W08
 BYTE   W01
 BYTE   W02
 BYTE   N36
 BYTE   W07
 BYTE   W03
 BYTE   W03
 BYTE   W03
 BYTE   W02
 BYTE   W03
 BYTE   W01
 BYTE   W02
 BYTE   W01
 BYTE   W02
 BYTE   W01
 BYTE   W02
 BYTE   W01
 BYTE   W02
 BYTE   W01
 BYTE   W02
 BYTE   N12  Fs4
 BYTE   W01
 BYTE   W02
 BYTE   W01
 BYTE   W02
 BYTE   W01
 BYTE   W02
 BYTE   W01
 BYTE   W02
// 053   ----------------------------------------
 BYTE   Gn4
 BYTE   W01
 BYTE   W02
 BYTE   W09
 BYTE   Bn4
 BYTE   W12
 BYTE   TIE  Dn5
 BYTE   W22
 BYTE   W02
 BYTE   W09
 BYTE   W07
 BYTE   W05
 BYTE   W03
 BYTE   W03
 BYTE   W03
 BYTE   W03
 BYTE   W01
 BYTE   W02
 BYTE   W03
 BYTE   W01
 BYTE   W02
 BYTE   W03
 BYTE   W01
 BYTE   W02
// 054   ----------------------------------------
 BYTE   W01
 BYTE   W02
 BYTE   W01
 BYTE   W02
 BYTE   W01
 BYTE   W02
 BYTE   W01
 BYTE   W02
 BYTE   W01
 BYTE   W02
 BYTE   W01
 BYTE   W02
 BYTE   W01
 BYTE   W02
 BYTE   W01
 BYTE   W02
 BYTE   W01
 BYTE   W02
 BYTE   W01
 BYTE   W02
 BYTE   W01
 BYTE   W03
 BYTE   W02
 BYTE   EOT
 BYTE   N12  As4
 BYTE   W07
 BYTE   W05
 BYTE   Bn4
 BYTE   W03
 BYTE   W04
 BYTE   W02
 BYTE   W03
 BYTE   Dn5
 BYTE   W01
 BYTE   W03
 BYTE   W02
 BYTE   W01
 BYTE   W02
 BYTE   W01
 BYTE   W02
 BYTE   N36  Fs5
 BYTE   W01
 BYTE   W02
 BYTE   W01
 BYTE   W02
 BYTE   W01
 BYTE   W02
 BYTE   W01
 BYTE   W02
 BYTE   W01
 BYTE   W02
 BYTE   W01
 BYTE   W02
 BYTE   W01
 BYTE   W02
 BYTE   W01
 BYTE   W02
// 055   ----------------------------------------
 BYTE   W01
 BYTE   W11
 BYTE   N12  En5
 BYTE   W12
 BYTE   Dn5
 BYTE   W12
 BYTE   Cs5
 BYTE   W12
 BYTE   TIE  Bn4
 BYTE   W19
 BYTE   W05
 BYTE   W15
 BYTE   W09
// 056   ----------------------------------------
 BYTE   W03
 BYTE   W07
 BYTE   W09
 BYTE   W05
 BYTE   W06
 BYTE   W04
 BYTE   W05
 BYTE   W04
 BYTE   W03
 BYTE   W02
 BYTE   W03
 BYTE   W04
 BYTE   W03
 BYTE   W03
 BYTE   W03
 BYTE   W03
 BYTE   W03
 BYTE   W02
 BYTE   W01
 BYTE   W03
 BYTE   W03
 BYTE   W03
 BYTE   W02
 BYTE   W03
 BYTE   W03
 BYTE   W03
 BYTE   W01
 BYTE   W02
// 057   ----------------------------------------
 BYTE   W01
 BYTE   W03
 BYTE   W02
 BYTE   W01
 BYTE   W03
 BYTE   W02
 BYTE   W03
 BYTE   W01
 BYTE   W03
 BYTE   W02
 BYTE   W01
 BYTE   W02
 BYTE   W03
 BYTE   W01
 BYTE   W02
 BYTE   W03
 BYTE   W01
 BYTE   W02
 BYTE   W01
 BYTE   W03
 BYTE   W02
 BYTE   W01
 BYTE   W02
 BYTE   W01
 BYTE   W02
 BYTE   W01
 BYTE   W02
 BYTE   W01
 BYTE   W02
 BYTE   W01
 BYTE   W02
 BYTE   W01
 BYTE   W02
 BYTE   W01
 BYTE   W02
 BYTE   W01
 BYTE   W03
 BYTE   W02
 BYTE   W01
 BYTE   W02
 BYTE   W01
 BYTE   W02
 BYTE   W01
 BYTE   W03
 BYTE   W02
 BYTE   W01
 BYTE   W02
 BYTE   W01
 BYTE   W02
 BYTE   W01
 BYTE   W02
 BYTE   W01
 BYTE   W02
 BYTE   W01
 BYTE   W02
// 058   ----------------------------------------
 BYTE   W01
 BYTE   W02
 BYTE   W01
 BYTE   W02
 BYTE   W01
 BYTE   W02
 BYTE   W01
 BYTE   W02
 BYTE   W01
 BYTE   W02
 BYTE   W01
 BYTE   W02
 BYTE   W01
 BYTE   W02
 BYTE   W01
 BYTE   W02
 BYTE   EOT
 BYTE   W01
 BYTE   W02
 BYTE   W01
 BYTE   W02
 BYTE   W01
 BYTE   W02
 BYTE   W01
 BYTE   W02
 BYTE   W01
 BYTE   W02
 BYTE   W07
 BYTE   W02
 BYTE   N36  Fs5
 BYTE   W09
 BYTE   W03
 BYTE   W03
 BYTE   W03
 BYTE   W03
 BYTE   W01
 BYTE   W02
 BYTE   W01
 BYTE   W02
 BYTE   W01
 BYTE   W02
 BYTE   W01
 BYTE   W02
 BYTE   W01
 BYTE   W02
 BYTE   N12  Bn5
 BYTE   W01
 BYTE   W02
 BYTE   W01
 BYTE   W02
 BYTE   W01
 BYTE   W02
 BYTE   W01
 BYTE   W02
// 059   ----------------------------------------
 BYTE   N24  Fs5
 BYTE   W01
 BYTE   W02
 BYTE   W03
 BYTE   W04
 BYTE   W02
 BYTE   W01
 BYTE   W02
 BYTE   W01
 BYTE   W02
 BYTE   W01
 BYTE   W02
 BYTE   W03
 BYTE   N36  En5
 BYTE   W04
 BYTE   W06
 BYTE   W06
 BYTE   W03
 BYTE   W02
 BYTE   W03
 BYTE   W03
 BYTE   W01
 BYTE   W03
 BYTE   W02
 BYTE   W01
 BYTE   W02
 BYTE   N12  Fs5
 BYTE   W01
 BYTE   W02
 BYTE   W01
 BYTE   W02
 BYTE   W01
 BYTE   W02
 BYTE   W03
 BYTE   N24  Cs5
 BYTE   W03
 BYTE   W01
 BYTE   W02
 BYTE   W01
 BYTE   W02
 BYTE   W01
 BYTE   W02
 BYTE   W01
 BYTE   W02
 BYTE   W01
 BYTE   W02
 BYTE   W01
 BYTE   W02
 BYTE   W03
// 060   ----------------------------------------
 BYTE   N36  Bn4
 BYTE   W06
 BYTE   W04
 BYTE   W03
 BYTE   W03
 BYTE   W03
 BYTE   W02
 BYTE   W01
 BYTE   W02
 BYTE   W01
 BYTE   W02
 BYTE   W01
 BYTE   W02
 BYTE   W01
 BYTE   W02
 BYTE   W01
 BYTE   W02
 BYTE   N12  Cs5
 BYTE   W01
 BYTE   W02
 BYTE   W01
 BYTE   W02
 BYTE   W01
 BYTE   W02
 BYTE   W01
 BYTE   W02
 BYTE   N24  Dn5
 BYTE   W01
 BYTE   W05
 BYTE   W01
 BYTE   W02
 BYTE   W01
 BYTE   W02
 BYTE   W01
 BYTE   W02
 BYTE   W01
 BYTE   W02
 BYTE   W01
 BYTE   W02
 BYTE   W01
 BYTE   W02
 BYTE   N36  Cs5
 BYTE   W06
 BYTE   W04
 BYTE   W03
 BYTE   W03
 BYTE   W02
 BYTE   W01
 BYTE   W02
 BYTE   W03
// 061   ----------------------------------------
 BYTE   W01
 BYTE   W03
 BYTE   W02
 BYTE   W01
 BYTE   W02
 BYTE   W01
 BYTE   W02
 BYTE   N12  Bn4
 BYTE   W01
 BYTE   W02
 BYTE   W01
 BYTE   W02
 BYTE   W01
 BYTE   W02
 BYTE   W01
 BYTE   W02
 BYTE   N21  An4
 BYTE   W01
 BYTE   W02
 BYTE   W01
 BYTE   W02
 BYTE   W01
 BYTE   W02
 BYTE   W01
 BYTE   W02
 BYTE   W01
 BYTE   W02
 BYTE   W01
 BYTE   W02
 BYTE   W01
 BYTE   W05
 BYTE   TIE  Fs4
 BYTE   W06
 BYTE   W06
 BYTE   W03
 BYTE   W04
 BYTE   W03
 BYTE   W02
 BYTE   W01
 BYTE   W02
 BYTE   W03
 BYTE   W01
 BYTE   W03
 BYTE   W02
 BYTE   W01
 BYTE   W02
 BYTE   W01
 BYTE   W03
 BYTE   W02
 BYTE   W01
 BYTE   W02
// 062   ----------------------------------------
 BYTE   W01
 BYTE   W02
 BYTE   W01
 BYTE   W02
 BYTE   W01
 BYTE   W02
 BYTE   W01
 BYTE   W02
 BYTE   W01
 BYTE   W02
 BYTE   W01
 BYTE   W02
 BYTE   W01
 BYTE   W02
 BYTE   W03
 BYTE   W07
 BYTE   W06
 BYTE   W05
 BYTE   W04
 BYTE   W02
 BYTE   W01
 BYTE   W03
 BYTE   W03
 BYTE   W03
 BYTE   W02
 BYTE   W01
 BYTE   W03
 BYTE   W02
 BYTE   W01
 BYTE   W02
 BYTE   W03
 BYTE   W01
 BYTE   W02
 BYTE   W01
 BYTE   W02
 BYTE   W01
 BYTE   W02
 BYTE   W01
 BYTE   W02
 BYTE   W01
 BYTE   W02
 BYTE   W01
 BYTE   W02
 BYTE   W01
 BYTE   W02
 BYTE   W01
 BYTE   W02
// 063   ----------------------------------------
 BYTE   W01
 BYTE   W02
 BYTE   W01
 BYTE   W02
 BYTE   W01
 BYTE   W02
 BYTE   W01
 BYTE   W02
 BYTE   W01
 BYTE   W02
 BYTE   W01
 BYTE   W02
 BYTE   W01
 BYTE   W02
 BYTE   W01
 BYTE   W02
 BYTE   W01
 BYTE   W02
 BYTE   W01
 BYTE   W02
 BYTE   W01
 BYTE   W02
 BYTE   W01
 BYTE   W02
 BYTE   W01
 BYTE   W02
 BYTE   W01
 BYTE   W02
 BYTE   W01
 BYTE   W02
 BYTE   W01
 BYTE   W02
 BYTE   W01
 BYTE   W02
 BYTE   W01
 BYTE   W02
 BYTE   W01
 BYTE   W02
 BYTE   W01
 BYTE   W02
 BYTE   W01
 BYTE   W02
 BYTE   W01
 BYTE   W02
 BYTE   W01
 BYTE   W02
 BYTE   W03
 BYTE   EOT
 BYTE   W24
// 064   ----------------------------------------
 BYTE   W24
 BYTE   W24
 BYTE   GoTo
  POIN2 Label_8_01589D06
 BYTE   FINE

//**************** Track 10 (Midi-Chn.9) ****************//

PokemonMDExplorersNorthernDesertRandomWizard_010:
// 000   ----------------------------------------
 BYTE   KEYSH   PokemonMDExplorersNorthernDesertRandomWizard_key+0
Label_9_0158A322:
 BYTE   VOICE   68
 BYTE   PAN   c_v+16
 BYTE   VOL   16*PokemonMDExplorersNorthernDesertRandomWizard_mvl/mxv
 BYTE   BEND   c_v+0
 BYTE   W24
 BYTE   W24
 BYTE   W24
 BYTE   W24
// 001   ----------------------------------------
 BYTE   W24
 BYTE   W24
 BYTE   W24
 BYTE   W24
// 002   ----------------------------------------
 BYTE   W24
 BYTE   W24
 BYTE   W24
 BYTE   W24
// 003   ----------------------------------------
 BYTE   W24
 BYTE   W24
 BYTE   W24
 BYTE   W24
// 004   ----------------------------------------
 BYTE   W24
 BYTE   W24
 BYTE   W24
 BYTE   W24
// 005   ----------------------------------------
 BYTE   W24
 BYTE   W24
 BYTE   W24
 BYTE   W24
// 006   ----------------------------------------
 BYTE   W24
 BYTE   W24
 BYTE   W24
 BYTE   W24
// 007   ----------------------------------------
 BYTE   W24
 BYTE   W24
 BYTE   W24
 BYTE   W24
// 008   ----------------------------------------
 BYTE   W24
 BYTE   W24
 BYTE   W24
 BYTE   W24
// 009   ----------------------------------------
 BYTE   W24
 BYTE   W24
 BYTE   W24
 BYTE   W24
// 010   ----------------------------------------
 BYTE   W24
 BYTE   W24
 BYTE   W24
 BYTE   W24
// 011   ----------------------------------------
 BYTE   W24
 BYTE   W24
 BYTE   W24
 BYTE   W24
// 012   ----------------------------------------
 BYTE   W24
 BYTE   W24
 BYTE   W24
 BYTE   W24
// 013   ----------------------------------------
 BYTE   W24
 BYTE   W24
 BYTE   W24
 BYTE   W24
// 014   ----------------------------------------
 BYTE   W24
 BYTE   W24
 BYTE   W24
 BYTE   W24
// 015   ----------------------------------------
 BYTE   W24
 BYTE   W24
 BYTE   W24
 BYTE   W24
// 016   ----------------------------------------
 BYTE   W24
 BYTE   W24
 BYTE   W24
 BYTE   W24
// 017   ----------------------------------------
 BYTE   W24
 BYTE   W24
 BYTE   W24
 BYTE   W24
// 018   ----------------------------------------
 BYTE   W24
 BYTE   W24
 BYTE   W24
 BYTE   W24
// 019   ----------------------------------------
 BYTE   W24
 BYTE   W24
 BYTE   W24
 BYTE   W24
// 020   ----------------------------------------
 BYTE   W24
 BYTE   W24
 BYTE   W24
 BYTE   W24
// 021   ----------------------------------------
 BYTE   W24
 BYTE   W24
 BYTE   W24
 BYTE   W24
// 022   ----------------------------------------
 BYTE   W24
 BYTE   W24
 BYTE   W24
 BYTE   W24
// 023   ----------------------------------------
 BYTE   W24
 BYTE   W24
 BYTE   W24
 BYTE   W24
// 024   ----------------------------------------
 BYTE   W24
 BYTE   W24
 BYTE   W24
 BYTE   W24
// 025   ----------------------------------------
 BYTE   W24
 BYTE   W24
 BYTE   W24
 BYTE   W24
// 026   ----------------------------------------
 BYTE   W24
 BYTE   W24
 BYTE   W24
 BYTE   W24
// 027   ----------------------------------------
 BYTE   W24
 BYTE   W24
 BYTE   W24
 BYTE   W24
// 028   ----------------------------------------
 BYTE   W24
 BYTE   W24
 BYTE   W24
 BYTE   W24
// 029   ----------------------------------------
 BYTE   W24
 BYTE   W24
 BYTE   W24
 BYTE   W22
 BYTE   N48  Bn1  v127
 BYTE   W02
// 030   ----------------------------------------
 BYTE   W12
 BYTE   W07
 BYTE   W05
 BYTE   W03
 BYTE   W04
 BYTE   W02
 BYTE   W03
 BYTE   W04
 BYTE   W02
 BYTE   W03
 BYTE   W01
 BYTE   Fs2
 BYTE   W02
 BYTE   W03
 BYTE   W01
 BYTE   W03
 BYTE   W02
 BYTE   W01
 BYTE   W02
 BYTE   W03
 BYTE   W01
 BYTE   W02
 BYTE   W01
 BYTE   W05
 BYTE   W22
 BYTE   Bn2
 BYTE   W02
// 031   ----------------------------------------
 BYTE   W24
 BYTE   W22
 BYTE   N72  Fs2
 BYTE   W02
 BYTE   W18
 BYTE   W06
 BYTE   W04
 BYTE   W03
 BYTE   W03
 BYTE   W05
 BYTE   W01
 BYTE   W02
 BYTE   W03
 BYTE   W01
 BYTE   W02
// 032   ----------------------------------------
 BYTE   W01
 BYTE   W02
 BYTE   W01
 BYTE   W02
 BYTE   W01
 BYTE   W02
 BYTE   W01
 BYTE   W02
 BYTE   W01
 BYTE   W02
 BYTE   W01
 BYTE   W02
 BYTE   W01
 BYTE   W02
 BYTE   W01
 BYTE   N24  En2
 BYTE   W02
 BYTE   W01
 BYTE   W12
 BYTE   W06
 BYTE   W03
 BYTE   Fs2
 BYTE   W02
 BYTE   W03
 BYTE   W03
 BYTE   W01
 BYTE   W03
 BYTE   W03
 BYTE   W02
 BYTE   W03
 BYTE   W01
 BYTE   W02
 BYTE   W01
 BYTE   Cs2
 BYTE   W02
 BYTE   W01
 BYTE   W02
 BYTE   W01
 BYTE   W02
 BYTE   W01
 BYTE   W02
 BYTE   W01
 BYTE   W02
 BYTE   W01
 BYTE   W02
 BYTE   W01
 BYTE   W02
 BYTE   W01
 BYTE   W03
 BYTE   N48  Bn1
 BYTE   W02
// 033   ----------------------------------------
 BYTE   W24
 BYTE   W22
 BYTE   Fs2
 BYTE   W02
 BYTE   W24
 BYTE   W22
 BYTE   Bn2
 BYTE   W02
// 034   ----------------------------------------
 BYTE   W24
Label_9_0158A40F:
 BYTE   W22
 BYTE   TIE  Fs2  v127
 BYTE   W02
 BYTE   PEND 
 BYTE   W22
 BYTE   W02
 BYTE   W09
 BYTE   W03
 BYTE   W03
 BYTE   W03
 BYTE   W03
 BYTE   W01
 BYTE   W02
// 035   ----------------------------------------
 BYTE   W01
 BYTE   W03
 BYTE   W02
 BYTE   W01
 BYTE   W02
 BYTE   W01
 BYTE   W02
 BYTE   W01
 BYTE   W02
 BYTE   W01
 BYTE   W02
 BYTE   W01
 BYTE   W02
 BYTE   W01
 BYTE   W02
 BYTE   W01
 BYTE   W02
 BYTE   W01
 BYTE   W02
 BYTE   W01
 BYTE   W02
 BYTE   W01
 BYTE   W02
 BYTE   W01
 BYTE   W02
 BYTE   W01
 BYTE   W02
 BYTE   W01
 BYTE   W02
 BYTE   W01
 BYTE   W02
 BYTE   W01
 BYTE   W02
 BYTE   W01
 BYTE   W02
 BYTE   W01
 BYTE   W02
 BYTE   W01
 BYTE   EOT
 BYTE   W02
 BYTE   W01
 BYTE   W02
 BYTE   W01
 BYTE   W02
 BYTE   W01
 BYTE   W02
 BYTE   W01
 BYTE   N24  Gs2
 BYTE   W02
 BYTE   W22
 BYTE   An2
 BYTE   W02
// 036   ----------------------------------------
 BYTE   W22
 BYTE   Gn2
 BYTE   W02
 BYTE   W22
 BYTE   Fn2
 BYTE   W02
 BYTE   W22
 BYTE   En2
 BYTE   W02
 BYTE   W22
 BYTE   Dn2
 BYTE   W02
// 037   ----------------------------------------
 BYTE   W22
 BYTE   Cn2
 BYTE   W02
 BYTE   W22
 BYTE   Bn1
 BYTE   W02
 BYTE   W22
 BYTE   En2
 BYTE   W02
 BYTE   W22
 BYTE   Bn2
 BYTE   W02
// 038   ----------------------------------------
 BYTE   W22
 BYTE   N66  En2
 BYTE   W02
 BYTE   W18
 BYTE   W04
 BYTE   W02
 BYTE   W01
 BYTE   W03
 BYTE   W02
 BYTE   W03
 BYTE   W03
 BYTE   W01
 BYTE   W02
 BYTE   W01
 BYTE   W02
 BYTE   W01
 BYTE   W02
 BYTE   W01
 BYTE   W02
 BYTE   W01
 BYTE   W02
 BYTE   W01
 BYTE   W02
 BYTE   W01
 BYTE   W02
 BYTE   W01
 BYTE   W02
 BYTE   W01
 BYTE   W02
 BYTE   W06
 BYTE   W01
 BYTE   N24  Cs2
 BYTE   W02
// 039   ----------------------------------------
 BYTE   W22
 BYTE   Fs2
 BYTE   W02
 BYTE   W22
 BYTE   Cs3
 BYTE   W02
 BYTE   W22
 BYTE   N66  Fs2
 BYTE   W02
 BYTE   W24
// 040   ----------------------------------------
 BYTE   W10
 BYTE   W03
 BYTE   W02
 BYTE   W01
 BYTE   W02
 BYTE   W01
 BYTE   W02
 BYTE   W01
 BYTE   W02
 BYTE   W01
 BYTE   W02
 BYTE   W01
 BYTE   W02
 BYTE   W01
 BYTE   W02
 BYTE   W01
 BYTE   W02
 BYTE   W01
 BYTE   W02
 BYTE   W01
 BYTE   W02
 BYTE   W01
 BYTE   W05
 BYTE   W24
 BYTE   W24
// 041   ----------------------------------------
 BYTE   W24
 BYTE   W24
 BYTE   W24
 BYTE   W24
// 042   ----------------------------------------
 BYTE   W24
 BYTE   W24
 BYTE   W24
 BYTE   W24
// 043   ----------------------------------------
 BYTE   W24
 BYTE   W24
 BYTE   W24
 BYTE   W24
// 044   ----------------------------------------
 BYTE   W24
 BYTE   W24
 BYTE   W24
 BYTE   W24
// 045   ----------------------------------------
 BYTE   W24
 BYTE   W24
 BYTE   W24
 BYTE   W24
// 046   ----------------------------------------
 BYTE   W24
 BYTE   W24
 BYTE   W24
 BYTE   W24
// 047   ----------------------------------------
 BYTE   W24
 BYTE   W24
 BYTE   W24
 BYTE   W24
// 048   ----------------------------------------
 BYTE   W24
 BYTE   W24
 BYTE   W24
 BYTE   W24
// 049   ----------------------------------------
 BYTE   W24
 BYTE   W24
 BYTE   W24
 BYTE   W24
// 050   ----------------------------------------
 BYTE   W24
 BYTE   W24
 BYTE   W24
 BYTE   W24
// 051   ----------------------------------------
 BYTE   W24
 BYTE   W24
 BYTE   W24
 BYTE   W24
// 052   ----------------------------------------
 BYTE   W24
 BYTE   W18
 BYTE   W04
 BYTE   N36  Bn2
 BYTE   W02
 BYTE   W03
 BYTE   W06
 BYTE   W03
 BYTE   W03
 BYTE   W03
 BYTE   W03
 BYTE   W01
 BYTE   W02
 BYTE   W01
 BYTE   W02
 BYTE   W01
 BYTE   W03
 BYTE   W02
 BYTE   W01
 BYTE   N12  Fs2
 BYTE   W02
 BYTE   W03
 BYTE   W01
 BYTE   W02
 BYTE   W01
 BYTE   W03
 BYTE   Gn2
 BYTE   W02
// 053   ----------------------------------------
 BYTE   W10
 BYTE   Bn2
 BYTE   W12
 BYTE   TIE  Dn3
 BYTE   W02
 BYTE   W24
 BYTE   W01
 BYTE   W11
 BYTE   W04
 BYTE   W05
 BYTE   W03
 BYTE   W03
 BYTE   W03
 BYTE   W01
 BYTE   W03
 BYTE   W02
 BYTE   W01
 BYTE   W03
 BYTE   W02
 BYTE   W01
 BYTE   W02
 BYTE   W01
 BYTE   W02
// 054   ----------------------------------------
 BYTE   W01
 BYTE   W02
 BYTE   W01
 BYTE   W02
 BYTE   W01
 BYTE   W02
 BYTE   W01
 BYTE   W02
 BYTE   W01
 BYTE   W02
 BYTE   W01
 BYTE   W02
 BYTE   W01
 BYTE   W02
 BYTE   W01
 BYTE   W02
 BYTE   W01
 BYTE   W02
 BYTE   W01
 BYTE   W02
 BYTE   W01
 BYTE   EOT
 BYTE   W02
 BYTE   W01
 BYTE   N12  As2
 BYTE   W02
 BYTE   W06
 BYTE   W03
 BYTE   W01
 BYTE   Bn2
 BYTE   W02
 BYTE   W01
 BYTE   W02
 BYTE   W01
 BYTE   W02
 BYTE   W01
 BYTE   W02
 BYTE   W01
 BYTE   Dn3
 BYTE   W02
 BYTE   W01
 BYTE   W02
 BYTE   W01
 BYTE   W02
 BYTE   W04
 BYTE   N36  Fs3
 BYTE   W02
 BYTE   W24
// 055   ----------------------------------------
 BYTE   W10
 BYTE   N12  En3
 BYTE   W12
 BYTE   Dn3
 BYTE   W02
 BYTE   W10
 BYTE   Cs3
 BYTE   W12
 BYTE   TIE  Bn2
 BYTE   W02
 BYTE   W24
 BYTE   W04
 BYTE   W18
 BYTE   W02
// 056   ----------------------------------------
 BYTE   W07
 BYTE   W08
 BYTE   W07
 BYTE   W02
 BYTE   W03
 BYTE   W04
 BYTE   W05
 BYTE   W03
 BYTE   W06
 BYTE   W03
 BYTE   W03
 BYTE   W03
 BYTE   W03
 BYTE   W03
 BYTE   W03
 BYTE   W03
 BYTE   W01
 BYTE   W03
 BYTE   W02
 BYTE   W04
 BYTE   W02
 BYTE   W01
 BYTE   W03
 BYTE   W02
 BYTE   W03
 BYTE   W01
 BYTE   W03
 BYTE   W02
 BYTE   W01
 BYTE   W02
// 057   ----------------------------------------
 BYTE   W01
 BYTE   W02
 BYTE   W01
 BYTE   W02
 BYTE   W03
 BYTE   W01
 BYTE   W02
 BYTE   W01
 BYTE   W02
 BYTE   W03
 BYTE   W01
 BYTE   W02
 BYTE   W01
 BYTE   W02
 BYTE   W01
 BYTE   W02
 BYTE   W01
 BYTE   W02
 BYTE   W01
 BYTE   W02
 BYTE   W01
 BYTE   W03
 BYTE   W02
 BYTE   W01
 BYTE   W02
 BYTE   W01
 BYTE   W02
 BYTE   W01
 BYTE   W02
 BYTE   W01
 BYTE   W02
 BYTE   W01
 BYTE   W02
 BYTE   W01
 BYTE   W02
 BYTE   W01
 BYTE   W02
 BYTE   W01
 BYTE   W02
 BYTE   W01
 BYTE   W02
 BYTE   W01
 BYTE   W02
 BYTE   W01
 BYTE   W02
 BYTE   W01
 BYTE   W02
 BYTE   W01
 BYTE   W02
 BYTE   W01
 BYTE   W02
 BYTE   W01
 BYTE   W02
 BYTE   W01
 BYTE   W02
 BYTE   W01
 BYTE   W02
 BYTE   W01
 BYTE   W02
 BYTE   W01
 BYTE   W02
// 058   ----------------------------------------
 BYTE   W01
 BYTE   W02
 BYTE   W01
 BYTE   W02
 BYTE   W01
 BYTE   W02
 BYTE   W01
 BYTE   W02
 BYTE   W01
 BYTE   W02
 BYTE   W01
 BYTE   W02
 BYTE   W01
 BYTE   W02
 BYTE   W01
 BYTE   EOT
 BYTE   W02
 BYTE   W21
 BYTE   W01
 BYTE   N36  Fs3
 BYTE   W02
 BYTE   W24
 BYTE   W10
 BYTE   N12  Bn3
 BYTE   W12
 BYTE   N24  Fs3
 BYTE   W02
// 059   ----------------------------------------
 BYTE   W22
 BYTE   N36  En3
 BYTE   W02
 BYTE   W24
 BYTE   W10
 BYTE   N12  Fs3
 BYTE   W12
 BYTE   N24  Cs3
 BYTE   W02
 BYTE   W22
 BYTE   N36  Bn2
 BYTE   W02
// 060   ----------------------------------------
 BYTE   W24
 BYTE   W10
 BYTE   N12  Cs3
 BYTE   W12
 BYTE   N24  Dn3
 BYTE   W02
 BYTE   W22
 BYTE   N36  Cs3
 BYTE   W02
 BYTE   W24
// 061   ----------------------------------------
 BYTE   W10
 BYTE   N12  Bn2
 BYTE   W12
 BYTE   N21  An2
 BYTE   W02
 BYTE   PATT
  POIN2 Label_9_0158A40F
// 062   ----------------------------------------
 BYTE   W12
 BYTE   W12
 BYTE   W06
 BYTE   W07
 BYTE   W06
 BYTE   W05
 BYTE   W03
 BYTE   W06
 BYTE   W03
 BYTE   W03
 BYTE   W03
 BYTE   W03
 BYTE   W03
 BYTE   W03
 BYTE   W01
 BYTE   W03
 BYTE   W02
 BYTE   W03
 BYTE   W03
 BYTE   W01
 BYTE   W02
 BYTE   W03
 BYTE   W01
 BYTE   W02
// 063   ----------------------------------------
 BYTE   W01
 BYTE   W02
 BYTE   W01
 BYTE   W02
 BYTE   W01
 BYTE   W03
 BYTE   W02
 BYTE   W01
 BYTE   W02
 BYTE   W01
 BYTE   W02
 BYTE   W01
 BYTE   W02
 BYTE   W01
 BYTE   W02
 BYTE   W01
 BYTE   W02
 BYTE   W01
 BYTE   W02
 BYTE   W01
 BYTE   W02
 BYTE   W01
 BYTE   W02
 BYTE   W01
 BYTE   W02
 BYTE   W01
 BYTE   W02
 BYTE   W01
 BYTE   W02
 BYTE   W01
 BYTE   W02
 BYTE   W01
 BYTE   W02
 BYTE   W01
 BYTE   W02
 BYTE   W01
 BYTE   W02
 BYTE   W01
 BYTE   W02
 BYTE   W01
 BYTE   W02
 BYTE   W01
 BYTE   W02
 BYTE   W01
 BYTE   W02
 BYTE   W01
 BYTE   W02
 BYTE   W01
 BYTE   W02
 BYTE   W01
 BYTE   W02
 BYTE   W01
 BYTE   W02
 BYTE   W01
 BYTE   W02
 BYTE   W01
 BYTE   W02
 BYTE   W01
 BYTE   W02
 BYTE   W01
 BYTE   W02
 BYTE   W01
 BYTE   W02
// 064   ----------------------------------------
 BYTE   W01
 BYTE   W02
 BYTE   W01
 BYTE   W02
 BYTE   W01
 BYTE   W02
 BYTE   W01
 BYTE   W02
 BYTE   W01
 BYTE   W02
 BYTE   W01
 BYTE   W02
 BYTE   W01
 BYTE   W02
 BYTE   W01
 BYTE   EOT
 BYTE   Fs2
 BYTE   W02
 BYTE   W24
 BYTE   W24
 BYTE   W24
// 065   ----------------------------------------
 BYTE   GoTo
  POIN2 Label_9_0158A322
 BYTE   FINE

//**************** Track 11 (Midi-Chn.10) ****************//

PokemonMDExplorersNorthernDesertRandomWizard_011:
// 000   ----------------------------------------
 BYTE   KEYSH   PokemonMDExplorersNorthernDesertRandomWizard_key+0
Label_10_0158A66E:
 BYTE   VOICE   10
 BYTE   PAN   c_v-64
 BYTE   VOL   5*PokemonMDExplorersNorthernDesertRandomWizard_mvl/mxv
 BYTE   BEND   c_v+0
 BYTE   W24
 BYTE   W24
 BYTE   W24
 BYTE   W24
// 001   ----------------------------------------
 BYTE   W24
 BYTE   W24
 BYTE   W24
 BYTE   W24
// 002   ----------------------------------------
 BYTE   W24
 BYTE   W24
 BYTE   W24
 BYTE   W24
// 003   ----------------------------------------
 BYTE   W24
 BYTE   W24
 BYTE   W24
 BYTE   W24
// 004   ----------------------------------------
 BYTE   W24
 BYTE   W24
 BYTE   W24
 BYTE   W24
// 005   ----------------------------------------
 BYTE   W24
 BYTE   W24
 BYTE   W24
 BYTE   W24
// 006   ----------------------------------------
 BYTE   W24
 BYTE   W24
 BYTE   W24
 BYTE   W24
// 007   ----------------------------------------
 BYTE   W24
 BYTE   W24
 BYTE   W24
 BYTE   W24
// 008   ----------------------------------------
 BYTE   W24
 BYTE   W24
 BYTE   W24
 BYTE   W24
// 009   ----------------------------------------
 BYTE   W24
 BYTE   W24
 BYTE   W24
 BYTE   W24
// 010   ----------------------------------------
 BYTE   W24
 BYTE   W24
 BYTE   W24
 BYTE   W24
// 011   ----------------------------------------
 BYTE   W24
 BYTE   W24
 BYTE   W24
 BYTE   W24
// 012   ----------------------------------------
 BYTE   W24
 BYTE   W24
 BYTE   W24
 BYTE   W24
// 013   ----------------------------------------
 BYTE   W24
 BYTE   W24
 BYTE   W24
 BYTE   W24
// 014   ----------------------------------------
 BYTE   W24
 BYTE   W24
 BYTE   W24
 BYTE   W24
// 015   ----------------------------------------
 BYTE   W24
 BYTE   W24
 BYTE   W24
 BYTE   W24
// 016   ----------------------------------------
 BYTE   W24
 BYTE   W24
 BYTE   W24
 BYTE   W24
// 017   ----------------------------------------
 BYTE   W24
 BYTE   W24
 BYTE   W24
 BYTE   W24
// 018   ----------------------------------------
 BYTE   W24
 BYTE   W24
 BYTE   W24
 BYTE   W24
// 019   ----------------------------------------
 BYTE   W24
 BYTE   W24
 BYTE   W24
 BYTE   W24
// 020   ----------------------------------------
 BYTE   W24
 BYTE   W24
 BYTE   W24
 BYTE   W24
// 021   ----------------------------------------
 BYTE   W24
 BYTE   W24
 BYTE   W24
 BYTE   W24
// 022   ----------------------------------------
 BYTE   W24
 BYTE   W24
 BYTE   W24
 BYTE   W24
// 023   ----------------------------------------
 BYTE   W24
 BYTE   W24
 BYTE   W24
 BYTE   W24
// 024   ----------------------------------------
 BYTE   W24
 BYTE   W24
 BYTE   W24
 BYTE   W24
// 025   ----------------------------------------
 BYTE   W24
 BYTE   W24
 BYTE   W24
 BYTE   W24
// 026   ----------------------------------------
 BYTE   W24
 BYTE   W24
 BYTE   W24
 BYTE   W24
// 027   ----------------------------------------
 BYTE   W24
 BYTE   W24
 BYTE   W24
 BYTE   W24
// 028   ----------------------------------------
 BYTE   W24
 BYTE   W24
 BYTE   W24
 BYTE   W24
// 029   ----------------------------------------
 BYTE   W24
 BYTE   W24
 BYTE   W24
 BYTE   W24
// 030   ----------------------------------------
 BYTE   W10
 BYTE   N48  Bn1  v127
 BYTE   W14
 BYTE   W07
 BYTE   W05
 BYTE   W03
 BYTE   W04
 BYTE   W02
 BYTE   W03
 BYTE   W04
 BYTE   W02
 BYTE   W03
 BYTE   W01
 BYTE   Fs2
 BYTE   W02
 BYTE   W03
 BYTE   W01
 BYTE   W03
 BYTE   W02
 BYTE   W01
 BYTE   W02
 BYTE   W03
 BYTE   W01
 BYTE   W02
 BYTE   W01
 BYTE   W17
// 031   ----------------------------------------
 BYTE   W10
 BYTE   Bn2
 BYTE   W14
 BYTE   W24
 BYTE   W10
 BYTE   N72  Fs2
 BYTE   W14
 BYTE   W06
 BYTE   W10
 BYTE   W03
 BYTE   W03
 BYTE   W02
// 032   ----------------------------------------
 BYTE   W03
 BYTE   W01
 BYTE   W02
 BYTE   W03
 BYTE   W01
 BYTE   W02
 BYTE   W01
 BYTE   W02
 BYTE   W01
 BYTE   W02
 BYTE   W01
 BYTE   W02
 BYTE   W01
 BYTE   W02
 BYTE   W01
 BYTE   W02
 BYTE   W01
 BYTE   W02
 BYTE   W01
 BYTE   W02
 BYTE   W01
 BYTE   N24  En2
 BYTE   W02
 BYTE   W01
 BYTE   W11
 BYTE   W01
 BYTE   W06
 BYTE   W03
 BYTE   Fs2
 BYTE   W02
 BYTE   W03
 BYTE   W03
 BYTE   W01
 BYTE   W03
 BYTE   W02
 BYTE   W01
 BYTE   W02
 BYTE   W03
 BYTE   W01
 BYTE   W02
 BYTE   W01
 BYTE   Cs2
 BYTE   W02
 BYTE   W01
 BYTE   W02
 BYTE   W01
 BYTE   W02
 BYTE   W01
 BYTE   W02
 BYTE   W01
 BYTE   W02
// 033   ----------------------------------------
 BYTE   W01
 BYTE   W02
 BYTE   W01
 BYTE   W02
 BYTE   W01
 BYTE   W03
 BYTE   N48  Bn1
 BYTE   W14
 BYTE   W24
 BYTE   W10
 BYTE   Fs2
 BYTE   W14
 BYTE   W24
// 034   ----------------------------------------
 BYTE   W10
 BYTE   Bn2
 BYTE   W14
 BYTE   W24
Label_10_0158A75D:
 BYTE   W10
 BYTE   TIE  Fs2  v127
 BYTE   W14
 BYTE   PEND 
 BYTE   W10
 BYTE   W11
 BYTE   W03
// 035   ----------------------------------------
 BYTE   W03
 BYTE   W03
 BYTE   W03
 BYTE   W01
 BYTE   W02
 BYTE   W01
 BYTE   W03
 BYTE   W02
 BYTE   W01
 BYTE   W02
 BYTE   W01
 BYTE   W02
 BYTE   W01
 BYTE   W02
 BYTE   W01
 BYTE   W02
 BYTE   W01
 BYTE   W02
 BYTE   W01
 BYTE   W02
 BYTE   W01
 BYTE   W02
 BYTE   W01
 BYTE   W02
 BYTE   W01
 BYTE   W02
 BYTE   W01
 BYTE   W02
 BYTE   W01
 BYTE   W02
 BYTE   W01
 BYTE   W02
 BYTE   W01
 BYTE   W02
 BYTE   W01
 BYTE   W02
 BYTE   W01
 BYTE   W02
 BYTE   W01
 BYTE   W02
 BYTE   W01
 BYTE   W02
 BYTE   W01
 BYTE   EOT
 BYTE   W02
 BYTE   W01
 BYTE   W02
 BYTE   W01
 BYTE   W02
 BYTE   W01
 BYTE   W02
 BYTE   W01
 BYTE   N24  Gs2
 BYTE   W14
// 036   ----------------------------------------
 BYTE   W10
 BYTE   An2
 BYTE   W14
 BYTE   W10
 BYTE   Gn2
 BYTE   W14
 BYTE   W10
 BYTE   Fn2
 BYTE   W14
 BYTE   W10
 BYTE   En2
 BYTE   W14
// 037   ----------------------------------------
 BYTE   W10
 BYTE   Dn2
 BYTE   W14
 BYTE   W10
 BYTE   Cn2
 BYTE   W14
 BYTE   W10
 BYTE   Bn1
 BYTE   W14
 BYTE   W10
 BYTE   En2
 BYTE   W14
// 038   ----------------------------------------
 BYTE   W10
 BYTE   Bn2
 BYTE   W14
 BYTE   W10
 BYTE   N66  En2
 BYTE   W14
 BYTE   W06
 BYTE   W04
 BYTE   W03
 BYTE   W03
 BYTE   W02
 BYTE   W03
 BYTE   W03
 BYTE   W01
 BYTE   W02
 BYTE   W01
 BYTE   W02
 BYTE   W01
 BYTE   W02
 BYTE   W01
 BYTE   W02
 BYTE   W01
 BYTE   W02
 BYTE   W01
 BYTE   W02
 BYTE   W01
 BYTE   W02
 BYTE   W01
 BYTE   W02
// 039   ----------------------------------------
 BYTE   W01
 BYTE   W02
 BYTE   W06
 BYTE   W01
 BYTE   N24  Cs2
 BYTE   W14
 BYTE   W10
 BYTE   Fs2
 BYTE   W14
 BYTE   W10
 BYTE   Cs3
 BYTE   W14
 BYTE   W10
 BYTE   N66  Fs2
 BYTE   W14
// 040   ----------------------------------------
 BYTE   W22
 BYTE   W02
 BYTE   W01
 BYTE   W02
 BYTE   W01
 BYTE   W02
 BYTE   W01
 BYTE   W02
 BYTE   W01
 BYTE   W02
 BYTE   W01
 BYTE   W02
 BYTE   W01
 BYTE   W02
 BYTE   W01
 BYTE   W02
 BYTE   W01
 BYTE   W02
 BYTE   W01
 BYTE   W02
 BYTE   W01
 BYTE   W02
 BYTE   W01
 BYTE   W17
 BYTE   W24
// 041   ----------------------------------------
 BYTE   W24
 BYTE   W24
 BYTE   W24
 BYTE   W24
// 042   ----------------------------------------
 BYTE   W24
 BYTE   W24
 BYTE   W24
 BYTE   W24
// 043   ----------------------------------------
 BYTE   W24
 BYTE   W24
 BYTE   W24
 BYTE   W24
// 044   ----------------------------------------
 BYTE   W24
 BYTE   W24
 BYTE   W24
 BYTE   W24
// 045   ----------------------------------------
 BYTE   W24
 BYTE   W24
 BYTE   W24
 BYTE   W24
// 046   ----------------------------------------
 BYTE   W24
 BYTE   W24
 BYTE   W24
 BYTE   W24
// 047   ----------------------------------------
 BYTE   W24
 BYTE   W24
 BYTE   W24
 BYTE   W24
// 048   ----------------------------------------
 BYTE   W24
 BYTE   W24
 BYTE   W24
 BYTE   W24
// 049   ----------------------------------------
 BYTE   W24
 BYTE   W24
 BYTE   W24
 BYTE   W24
// 050   ----------------------------------------
 BYTE   W24
 BYTE   W24
 BYTE   W24
 BYTE   W24
// 051   ----------------------------------------
 BYTE   W24
 BYTE   W24
 BYTE   W24
 BYTE   W24
// 052   ----------------------------------------
 BYTE   W24
 BYTE   W24
 BYTE   W06
 BYTE   W04
 BYTE   N36  Bn2
 BYTE   W05
 BYTE   W06
 BYTE   W03
 BYTE   W03
 BYTE   W03
 BYTE   W03
 BYTE   W01
 BYTE   W03
 BYTE   W02
 BYTE   W01
 BYTE   W03
 BYTE   W02
 BYTE   W01
 BYTE   N12  Fs2
 BYTE   W02
// 053   ----------------------------------------
 BYTE   W03
 BYTE   W01
 BYTE   W02
 BYTE   W01
 BYTE   W03
 BYTE   Gn2
 BYTE   W12
 BYTE   Bn2
 BYTE   W02
 BYTE   W10
 BYTE   TIE  Dn3
 BYTE   W14
 BYTE   W13
 BYTE   W11
 BYTE   W04
 BYTE   W05
 BYTE   W03
 BYTE   W03
 BYTE   W03
 BYTE   W01
 BYTE   W03
 BYTE   W02
// 054   ----------------------------------------
 BYTE   W01
 BYTE   W03
 BYTE   W02
 BYTE   W01
 BYTE   W02
 BYTE   W01
 BYTE   W02
 BYTE   W01
 BYTE   W02
 BYTE   W01
 BYTE   W02
 BYTE   W01
 BYTE   W02
 BYTE   W01
 BYTE   W02
 BYTE   W01
 BYTE   W02
 BYTE   W01
 BYTE   W02
 BYTE   W01
 BYTE   W02
 BYTE   W01
 BYTE   W02
 BYTE   W01
 BYTE   W02
 BYTE   W01
 BYTE   W02
 BYTE   W01
 BYTE   EOT
 BYTE   W02
 BYTE   W01
 BYTE   N12  As2
 BYTE   W02
 BYTE   W06
 BYTE   W03
 BYTE   W01
 BYTE   Bn2
 BYTE   W03
 BYTE   W02
 BYTE   W01
 BYTE   W02
 BYTE   W01
 BYTE   W02
 BYTE   W01
 BYTE   Dn3
 BYTE   W02
 BYTE   W01
 BYTE   W02
 BYTE   W01
 BYTE   W02
 BYTE   W04
 BYTE   N36  Fs3
 BYTE   W14
// 055   ----------------------------------------
 BYTE   W22
 BYTE   N12  En3
 BYTE   W02
 BYTE   W10
 BYTE   Dn3
 BYTE   W12
 BYTE   Cs3
 BYTE   W02
 BYTE   W10
 BYTE   TIE  Bn2
 BYTE   W14
 BYTE   W16
 BYTE   W08
// 056   ----------------------------------------
 BYTE   W10
 BYTE   W09
 BYTE   W05
 BYTE   W03
 BYTE   W07
 BYTE   W05
 BYTE   W04
 BYTE   W05
 BYTE   W03
 BYTE   W06
 BYTE   W03
 BYTE   W03
 BYTE   W03
 BYTE   W03
 BYTE   W03
 BYTE   W03
 BYTE   W03
 BYTE   W01
 BYTE   W03
 BYTE   W02
 BYTE   W04
 BYTE   W02
 BYTE   W01
 BYTE   W03
 BYTE   W02
// 057   ----------------------------------------
 BYTE   W03
 BYTE   W01
 BYTE   W03
 BYTE   W02
 BYTE   W01
 BYTE   W03
 BYTE   W02
 BYTE   W01
 BYTE   W02
 BYTE   W03
 BYTE   W01
 BYTE   W02
 BYTE   W01
 BYTE   W02
 BYTE   W03
 BYTE   W01
 BYTE   W02
 BYTE   W01
 BYTE   W02
 BYTE   W01
 BYTE   W02
 BYTE   W01
 BYTE   W02
 BYTE   W01
 BYTE   W02
 BYTE   W01
 BYTE   W02
 BYTE   W01
 BYTE   W02
 BYTE   W01
 BYTE   W02
 BYTE   W01
 BYTE   W02
 BYTE   W01
 BYTE   W02
 BYTE   W01
 BYTE   W02
 BYTE   W01
 BYTE   W02
 BYTE   W01
 BYTE   W02
 BYTE   W01
 BYTE   W02
 BYTE   W01
 BYTE   W02
 BYTE   W01
 BYTE   W02
 BYTE   W01
 BYTE   W02
 BYTE   W01
 BYTE   W02
 BYTE   W01
 BYTE   W02
 BYTE   W01
 BYTE   W02
 BYTE   W01
 BYTE   W02
 BYTE   W01
 BYTE   W02
// 058   ----------------------------------------
 BYTE   W01
 BYTE   W02
 BYTE   W01
 BYTE   W02
 BYTE   W01
 BYTE   W02
 BYTE   W01
 BYTE   W02
 BYTE   W01
 BYTE   W02
 BYTE   W01
 BYTE   W02
 BYTE   W01
 BYTE   W02
 BYTE   W01
 BYTE   W02
 BYTE   W01
 BYTE   W02
 BYTE   W01
 BYTE   W02
 BYTE   W01
 BYTE   W02
 BYTE   W01
 BYTE   EOT
 BYTE   W02
 BYTE   W12
 BYTE   W09
 BYTE   W01
 BYTE   N36  Fs3
 BYTE   W14
 BYTE   W22
 BYTE   N12  Bn3
 BYTE   W02
// 059   ----------------------------------------
 BYTE   W10
 BYTE   N24  Fs3
 BYTE   W14
 BYTE   W10
 BYTE   N36  En3
 BYTE   W14
 BYTE   W22
 BYTE   N12  Fs3
 BYTE   W02
 BYTE   W10
 BYTE   N24  Cs3
 BYTE   W14
// 060   ----------------------------------------
 BYTE   W10
 BYTE   N36  Bn2
 BYTE   W14
 BYTE   W22
 BYTE   N12  Cs3
 BYTE   W02
 BYTE   W10
 BYTE   N24  Dn3
 BYTE   W14
 BYTE   W10
 BYTE   N36  Cs3
 BYTE   W14
// 061   ----------------------------------------
 BYTE   W22
 BYTE   N12  Bn2
 BYTE   W02
 BYTE   W10
 BYTE   N21  An2
 BYTE   W14
 BYTE   PATT
  POIN2 Label_10_0158A75D
// 062   ----------------------------------------
 BYTE   W18
 BYTE   W06
 BYTE   W01
 BYTE   W06
 BYTE   W05
 BYTE   W03
 BYTE   W06
 BYTE   W03
 BYTE   W03
 BYTE   W03
 BYTE   W03
 BYTE   W03
 BYTE   W03
 BYTE   W01
 BYTE   W03
 BYTE   W02
 BYTE   W03
 BYTE   W03
 BYTE   W01
 BYTE   W02
 BYTE   W03
 BYTE   W01
 BYTE   W03
 BYTE   W02
 BYTE   W01
 BYTE   W02
 BYTE   W01
 BYTE   W03
 BYTE   W02
// 063   ----------------------------------------
 BYTE   W01
 BYTE   W02
 BYTE   W01
 BYTE   W02
 BYTE   W01
 BYTE   W02
 BYTE   W01
 BYTE   W02
 BYTE   W01
 BYTE   W02
 BYTE   W01
 BYTE   W02
 BYTE   W01
 BYTE   W02
 BYTE   W01
 BYTE   W02
 BYTE   W01
 BYTE   W02
 BYTE   W01
 BYTE   W02
 BYTE   W01
 BYTE   W02
 BYTE   W01
 BYTE   W02
 BYTE   W01
 BYTE   W02
 BYTE   W01
 BYTE   W02
 BYTE   W01
 BYTE   W02
 BYTE   W01
 BYTE   W02
 BYTE   W01
 BYTE   W02
 BYTE   W01
 BYTE   W02
 BYTE   W01
 BYTE   W02
 BYTE   W01
 BYTE   W02
 BYTE   W01
 BYTE   W02
 BYTE   W01
 BYTE   W02
 BYTE   W01
 BYTE   W02
 BYTE   W01
 BYTE   W02
 BYTE   W01
 BYTE   W02
 BYTE   W01
 BYTE   W02
 BYTE   W01
 BYTE   W02
 BYTE   W01
 BYTE   W02
 BYTE   W01
 BYTE   W02
 BYTE   W01
 BYTE   W02
 BYTE   W01
 BYTE   W02
 BYTE   W01
 BYTE   W02
// 064   ----------------------------------------
 BYTE   W01
 BYTE   W02
 BYTE   W01
 BYTE   W02
 BYTE   W01
 BYTE   W02
 BYTE   W01
 BYTE   EOT
 BYTE   Fs2
 BYTE   W14
 BYTE   W24
 BYTE   W24
 BYTE   GoTo
  POIN2 Label_10_0158A66E
 BYTE   FINE

//**************** Track 12 (Midi-Chn.11) ****************//

PokemonMDExplorersNorthernDesertRandomWizard_012:
// 000   ----------------------------------------
 BYTE   KEYSH   PokemonMDExplorersNorthernDesertRandomWizard_key+0
Label_11_0158A9B2:
 BYTE   VOICE   127
 BYTE   PAN   c_v+0
 BYTE   VOL   8*PokemonMDExplorersNorthernDesertRandomWizard_mvl/mxv
 BYTE   Cs0
 BYTE   PAN   c_v+0
 BYTE   BEND   c_v+0
 BYTE   N12  Cn1  v127
 BYTE   N06  Fs1  v104
 BYTE   N06  An2  v112
 BYTE   N12  Cs3  v096
 BYTE   W12
 BYTE   Dn3  v104
 BYTE   W12
Label_11_0158A9CD:
 BYTE   N06  Fs1  v064
 BYTE   N12  Ds3  v096
 BYTE   W12
 BYTE   Cs3  v120
 BYTE   W12
 BYTE   PEND 
Label_11_0158A9D8:
 BYTE   N06  Fs1  v068
 BYTE   N12  Dn3  v120
 BYTE   W12
 BYTE   Cs3  v108
 BYTE   W12
 BYTE   PEND 
Label_11_0158A9E3:
 BYTE   N12  Ds1  v127
 BYTE   N06  Fs1  v108
 BYTE   N12  En3  v120
 BYTE   W12
 BYTE   Cs3  v088
 BYTE   W12
 BYTE   PEND 
// 001   ----------------------------------------
Label_11_0158A9F1:
 BYTE   N06  Fs1  v064
 BYTE   N12  Dn3  v108
 BYTE   W12
 BYTE   Ds3  v120
 BYTE   W12
 BYTE   PEND 
Label_11_0158A9FC:
 BYTE   N06  Fs1  v096
 BYTE   N12  Cs3  v116
 BYTE   W12
 BYTE   Dn3
 BYTE   W12
 BYTE   PEND 
Label_11_0158AA06:
 BYTE   N12  Cn1  v127
 BYTE   N06  Fs1  v104
 BYTE   N12  Cs3  v120
 BYTE   W12
 BYTE   Dn3  v088
 BYTE   W12
 BYTE   PEND 
Label_11_0158AA14:
 BYTE   N06  Fs1  v052
 BYTE   N12  Ds3  v096
 BYTE   W12
 BYTE   Cs3  v116
 BYTE   W12
 BYTE   PEND 
// 002   ----------------------------------------
Label_11_0158AA1F:
 BYTE   N06  Fs1  v064
 BYTE   N12  Dn3  v116
 BYTE   W12
 BYTE   Cs3  v108
 BYTE   W12
 BYTE   PEND 
Label_11_0158AA2A:
 BYTE   N12  Ds1  v127
 BYTE   N06  Fs1  v108
 BYTE   N12  En3  v120
 BYTE   W12
 BYTE   Cs3  v112
 BYTE   W12
 BYTE   PEND 
Label_11_0158AA38:
 BYTE   N06  Fs1  v056
 BYTE   N12  Dn3  v108
 BYTE   W12
 BYTE   Ds3  v120
 BYTE   W12
 BYTE   PEND 
Label_11_0158AA43:
 BYTE   N06  Fs1  v076
 BYTE   N12  Cs3  v116
 BYTE   W12
 BYTE   Ds3  v120
 BYTE   W12
 BYTE   PEND 
// 003   ----------------------------------------
Label_11_0158AA4E:
 BYTE   N12  Cn1  v127
 BYTE   N06  Fs1  v116
 BYTE   N12  Cs3  v120
 BYTE   W12
 BYTE   Dn3  v096
 BYTE   W12
 BYTE   PEND 
Label_11_0158AA5C:
 BYTE   N06  Fs1  v068
 BYTE   N12  Ds3  v104
 BYTE   W12
 BYTE   Cs3  v116
 BYTE   W12
 BYTE   PEND 
Label_11_0158AA67:
 BYTE   N06  Fs1  v060
 BYTE   N12  Dn3  v112
 BYTE   W12
 BYTE   Cs3
 BYTE   W12
 BYTE   PEND 
Label_11_0158AA71:
 BYTE   N12  Ds1  v127
 BYTE   N06  Fs1  v108
 BYTE   N12  En3  v120
 BYTE   W12
 BYTE   Dn3  v080
 BYTE   W12
 BYTE   PEND 
// 004   ----------------------------------------
Label_11_0158AA7F:
 BYTE   N06  Fs1  v060
 BYTE   N12  Cs3  v108
 BYTE   W12
 BYTE   Ds3  v116
 BYTE   W12
 BYTE   PEND 
Label_11_0158AA8A:
 BYTE   N06  Fs1  v096
 BYTE   N12  Cs3  v112
 BYTE   W12
 BYTE   Dn3  v104
 BYTE   W12
 BYTE   PEND 
Label_11_0158AA95:
 BYTE   N12  Cn1  v127
 BYTE   N06  Fs1  v108
 BYTE   N12  Cs3  v120
 BYTE   W12
 BYTE   En3
 BYTE   W12
 BYTE   PEND 
Label_11_0158AAA2:
 BYTE   N06  Fs1  v056
 BYTE   N12  Cs3  v108
 BYTE   W12
 BYTE   N06  Fs1  v096
 BYTE   N12  Dn3  v104
 BYTE   W12
 BYTE   PEND 
// 005   ----------------------------------------
Label_11_0158AAB1:
 BYTE   N12  Ds3  v120
 BYTE   W12
 BYTE   N06  Fs1  v072
 BYTE   N12  Cs3  v112
 BYTE   W12
 BYTE   PEND 
Label_11_0158AABD:
 BYTE   N12  Ds1  v127
 BYTE   N06  Fs1  v112
 BYTE   N12  Ds3  v124
 BYTE   W12
 BYTE   Ds3  v092
 BYTE   W12
 BYTE   PEND 
Label_11_0158AACB:
 BYTE   N06  Fs1  v056
 BYTE   N12  Cs3  v104
 BYTE   W12
 BYTE   Dn3  v120
 BYTE   W12
 BYTE   PEND 
Label_11_0158AAD6:
 BYTE   N12  Cs3  v120
 BYTE   W12
 BYTE   Ds3  v116
 BYTE   W12
 BYTE   PEND 
// 006   ----------------------------------------
Label_11_0158AADE:
 BYTE   N12  Cn1  v127
 BYTE   N06  Fs1  v104
 BYTE   N06  An2  v112
 BYTE   N12  Cs3  v096
 BYTE   W12
 BYTE   Dn3  v104
 BYTE   W12
 BYTE   PEND 
 BYTE   PATT
  POIN2 Label_11_0158A9CD
 BYTE   PATT
  POIN2 Label_11_0158A9D8
 BYTE   PATT
  POIN2 Label_11_0158A9E3
 BYTE   PATT
  POIN2 Label_11_0158A9F1
 BYTE   PATT
  POIN2 Label_11_0158A9FC
 BYTE   PATT
  POIN2 Label_11_0158AA06
 BYTE   PATT
  POIN2 Label_11_0158AA14
 BYTE   PATT
  POIN2 Label_11_0158AA1F
 BYTE   PATT
  POIN2 Label_11_0158AA2A
 BYTE   PATT
  POIN2 Label_11_0158AA38
 BYTE   PATT
  POIN2 Label_11_0158AA43
 BYTE   PATT
  POIN2 Label_11_0158AA4E
 BYTE   PATT
  POIN2 Label_11_0158AA5C
 BYTE   PATT
  POIN2 Label_11_0158AA67
 BYTE   PATT
  POIN2 Label_11_0158AA71
 BYTE   PATT
  POIN2 Label_11_0158AA7F
 BYTE   PATT
  POIN2 Label_11_0158AA8A
 BYTE   PATT
  POIN2 Label_11_0158AA95
 BYTE   PATT
  POIN2 Label_11_0158AAA2
 BYTE   PATT
  POIN2 Label_11_0158AAB1
 BYTE   PATT
  POIN2 Label_11_0158AABD
 BYTE   PATT
  POIN2 Label_11_0158AACB
 BYTE   PATT
  POIN2 Label_11_0158AAD6
// 007   ----------------------------------------
Label_11_0158AB62:
 BYTE   N12  Cn1  v127
 BYTE   N06  Fs1  v104
 BYTE   N12  Cs3  v096
 BYTE   W12
 BYTE   Dn3  v104
 BYTE   W12
 BYTE   PEND 
 BYTE   PATT
  POIN2 Label_11_0158A9CD
 BYTE   PATT
  POIN2 Label_11_0158A9D8
 BYTE   PATT
  POIN2 Label_11_0158A9E3
 BYTE   PATT
  POIN2 Label_11_0158A9F1
 BYTE   PATT
  POIN2 Label_11_0158A9FC
 BYTE   PATT
  POIN2 Label_11_0158AA06
 BYTE   PATT
  POIN2 Label_11_0158AA14
 BYTE   PATT
  POIN2 Label_11_0158AA1F
 BYTE   PATT
  POIN2 Label_11_0158AA2A
 BYTE   PATT
  POIN2 Label_11_0158AA38
 BYTE   PATT
  POIN2 Label_11_0158AA43
 BYTE   PATT
  POIN2 Label_11_0158AA4E
 BYTE   PATT
  POIN2 Label_11_0158AA5C
 BYTE   PATT
  POIN2 Label_11_0158AA67
 BYTE   PATT
  POIN2 Label_11_0158AA71
 BYTE   PATT
  POIN2 Label_11_0158AA7F
// 008   ----------------------------------------
Label_11_0158ABC0:
 BYTE   N12  Cn1  v127
 BYTE   N06  Fs1  v096
 BYTE   N12  Cs3  v112
 BYTE   W12
 BYTE   Dn3  v104
 BYTE   W12
 BYTE   PEND 
 BYTE   PATT
  POIN2 Label_11_0158AA95
 BYTE   PATT
  POIN2 Label_11_0158AAA2
// 009   ----------------------------------------
Label_11_0158ABD8:
 BYTE   N12  Cn1  v127
 BYTE   N12  Ds3  v120
 BYTE   W12
 BYTE   N06  Fs1  v072
 BYTE   N12  Cs3  v112
 BYTE   W12
 BYTE   PEND 
 BYTE   PATT
  POIN2 Label_11_0158AABD
 BYTE   PATT
  POIN2 Label_11_0158AACB
 BYTE   PATT
  POIN2 Label_11_0158AAD6
 BYTE   PATT
  POIN2 Label_11_0158AADE
 BYTE   PATT
  POIN2 Label_11_0158A9CD
 BYTE   PATT
  POIN2 Label_11_0158A9D8
 BYTE   PATT
  POIN2 Label_11_0158A9E3
 BYTE   PATT
  POIN2 Label_11_0158A9F1
 BYTE   PATT
  POIN2 Label_11_0158A9FC
 BYTE   PATT
  POIN2 Label_11_0158AA06
 BYTE   PATT
  POIN2 Label_11_0158AA14
 BYTE   PATT
  POIN2 Label_11_0158AA1F
 BYTE   PATT
  POIN2 Label_11_0158AA2A
 BYTE   PATT
  POIN2 Label_11_0158AA38
 BYTE   PATT
  POIN2 Label_11_0158AA43
 BYTE   PATT
  POIN2 Label_11_0158AA4E
 BYTE   PATT
  POIN2 Label_11_0158AA5C
 BYTE   PATT
  POIN2 Label_11_0158AA67
 BYTE   PATT
  POIN2 Label_11_0158AA71
 BYTE   PATT
  POIN2 Label_11_0158AA7F
 BYTE   PATT
  POIN2 Label_11_0158AA8A
 BYTE   PATT
  POIN2 Label_11_0158AA95
 BYTE   PATT
  POIN2 Label_11_0158AAA2
 BYTE   PATT
  POIN2 Label_11_0158AAB1
 BYTE   PATT
  POIN2 Label_11_0158AABD
 BYTE   PATT
  POIN2 Label_11_0158AACB
 BYTE   PATT
  POIN2 Label_11_0158AAD6
 BYTE   PATT
  POIN2 Label_11_0158AB62
 BYTE   PATT
  POIN2 Label_11_0158A9CD
 BYTE   PATT
  POIN2 Label_11_0158A9D8
 BYTE   PATT
  POIN2 Label_11_0158A9E3
 BYTE   PATT
  POIN2 Label_11_0158A9F1
 BYTE   PATT
  POIN2 Label_11_0158A9FC
 BYTE   PATT
  POIN2 Label_11_0158AA06
 BYTE   PATT
  POIN2 Label_11_0158AA14
 BYTE   PATT
  POIN2 Label_11_0158AA1F
 BYTE   PATT
  POIN2 Label_11_0158AA2A
 BYTE   PATT
  POIN2 Label_11_0158AA38
 BYTE   PATT
  POIN2 Label_11_0158AA43
 BYTE   PATT
  POIN2 Label_11_0158AA4E
 BYTE   PATT
  POIN2 Label_11_0158AA5C
 BYTE   PATT
  POIN2 Label_11_0158AA67
 BYTE   PATT
  POIN2 Label_11_0158AA71
 BYTE   PATT
  POIN2 Label_11_0158AA7F
 BYTE   PATT
  POIN2 Label_11_0158ABC0
 BYTE   PATT
  POIN2 Label_11_0158AA95
 BYTE   PATT
  POIN2 Label_11_0158AAA2
 BYTE   PATT
  POIN2 Label_11_0158ABD8
 BYTE   PATT
  POIN2 Label_11_0158AABD
 BYTE   PATT
  POIN2 Label_11_0158AACB
 BYTE   PATT
  POIN2 Label_11_0158AAD6
 BYTE   PATT
  POIN2 Label_11_0158AADE
 BYTE   PATT
  POIN2 Label_11_0158A9CD
 BYTE   PATT
  POIN2 Label_11_0158A9D8
 BYTE   PATT
  POIN2 Label_11_0158A9E3
 BYTE   PATT
  POIN2 Label_11_0158A9F1
 BYTE   PATT
  POIN2 Label_11_0158A9FC
 BYTE   PATT
  POIN2 Label_11_0158AA06
 BYTE   PATT
  POIN2 Label_11_0158AA14
 BYTE   PATT
  POIN2 Label_11_0158AA1F
 BYTE   PATT
  POIN2 Label_11_0158AA2A
 BYTE   PATT
  POIN2 Label_11_0158AA38
 BYTE   PATT
  POIN2 Label_11_0158AA43
 BYTE   PATT
  POIN2 Label_11_0158AA4E
 BYTE   PATT
  POIN2 Label_11_0158AA5C
 BYTE   PATT
  POIN2 Label_11_0158AA67
 BYTE   PATT
  POIN2 Label_11_0158AA71
 BYTE   PATT
  POIN2 Label_11_0158AA7F
 BYTE   PATT
  POIN2 Label_11_0158AA8A
 BYTE   PATT
  POIN2 Label_11_0158AA95
 BYTE   PATT
  POIN2 Label_11_0158AAA2
 BYTE   PATT
  POIN2 Label_11_0158AAB1
 BYTE   PATT
  POIN2 Label_11_0158AABD
 BYTE   PATT
  POIN2 Label_11_0158AACB
 BYTE   PATT
  POIN2 Label_11_0158AAD6
 BYTE   PATT
  POIN2 Label_11_0158AB62
 BYTE   PATT
  POIN2 Label_11_0158A9CD
 BYTE   PATT
  POIN2 Label_11_0158A9D8
 BYTE   PATT
  POIN2 Label_11_0158A9E3
 BYTE   PATT
  POIN2 Label_11_0158A9F1
 BYTE   PATT
  POIN2 Label_11_0158A9FC
 BYTE   PATT
  POIN2 Label_11_0158AA06
 BYTE   PATT
  POIN2 Label_11_0158AA14
 BYTE   PATT
  POIN2 Label_11_0158AA1F
 BYTE   PATT
  POIN2 Label_11_0158AA2A
 BYTE   PATT
  POIN2 Label_11_0158AA38
 BYTE   PATT
  POIN2 Label_11_0158AA43
 BYTE   PATT
  POIN2 Label_11_0158AA4E
// 010   ----------------------------------------
 BYTE   N12  Ds1  v127
 BYTE   N06  Fs1  v068
 BYTE   N12  Ds3  v104
 BYTE   W12
 BYTE   Cs3  v116
 BYTE   W12
 BYTE   PATT
  POIN2 Label_11_0158AA67
// 011   ----------------------------------------
 BYTE   N12  Cn1  v127
 BYTE   N06  Fs1  v108
 BYTE   N12  En3  v120
 BYTE   W12
 BYTE   Dn3  v080
 BYTE   W12
 BYTE   PATT
  POIN2 Label_11_0158AA7F
 BYTE   PATT
  POIN2 Label_11_0158AA8A
// 012   ----------------------------------------
Label_11_0158ADC8:
 BYTE   N12  Cn1  v127
 BYTE   N06  Fs1  v108
 BYTE   N06  An2  v112
 BYTE   N12  Cs3  v096
 BYTE   W12
 BYTE   Dn3  v104
 BYTE   W12
 BYTE   PEND 
Label_11_0158ADD9:
 BYTE   N06  Fs1  v056
 BYTE   N12  Ds3  v096
 BYTE   W12
 BYTE   N06  Fs1
 BYTE   N12  Cs3  v120
 BYTE   W12
 BYTE   PEND 
Label_11_0158ADE7:
 BYTE   N12  Dn3  v120
 BYTE   W12
 BYTE   N06  Fs1  v072
 BYTE   N12  Cs3  v108
 BYTE   W12
 BYTE   PEND 
Label_11_0158ADF3:
 BYTE   N12  Ds1  v127
 BYTE   N06  Fs1  v112
 BYTE   N12  En3  v120
 BYTE   W12
 BYTE   Cs3  v088
 BYTE   W12
 BYTE   PEND 
 BYTE   PATT
  POIN2 Label_11_0158AA38
// 013   ----------------------------------------
Label_11_0158AE06:
 BYTE   N12  Cs3  v116
 BYTE   W12
 BYTE   Dn3
 BYTE   W12
 BYTE   PEND 
 BYTE   PATT
  POIN2 Label_11_0158AA06
// 014   ----------------------------------------
Label_11_0158AE12:
 BYTE   N06  Fs1  v064
 BYTE   N12  Ds3  v096
 BYTE   W12
 BYTE   Cs3  v116
 BYTE   W12
 BYTE   PEND 
Label_11_0158AE1D:
 BYTE   N06  Fs1  v068
 BYTE   N12  Dn3  v116
 BYTE   W12
 BYTE   Cs3  v108
 BYTE   W12
 BYTE   PEND 
 BYTE   PATT
  POIN2 Label_11_0158AA2A
 BYTE   PATT
  POIN2 Label_11_0158A9F1
// 015   ----------------------------------------
Label_11_0158AE32:
 BYTE   N06  Fs1  v096
 BYTE   N12  Cs3  v116
 BYTE   W12
 BYTE   Ds3  v120
 BYTE   W12
 BYTE   PEND 
Label_11_0158AE3D:
 BYTE   N12  Cn1  v127
 BYTE   N06  Fs1  v104
 BYTE   N12  Cs3  v120
 BYTE   W12
 BYTE   Dn3  v096
 BYTE   W12
 BYTE   PEND 
Label_11_0158AE4B:
 BYTE   N06  Fs1  v052
 BYTE   N12  Ds3  v104
 BYTE   W12
 BYTE   Cs3  v116
 BYTE   W12
 BYTE   PEND 
Label_11_0158AE56:
 BYTE   N06  Fs1  v064
 BYTE   N12  Dn3  v112
 BYTE   W12
 BYTE   Cs3
 BYTE   W12
 BYTE   PEND 
 BYTE   PATT
  POIN2 Label_11_0158AA71
// 016   ----------------------------------------
Label_11_0158AE65:
 BYTE   N06  Fs1  v056
 BYTE   N12  Cs3  v108
 BYTE   W12
 BYTE   Ds3  v116
 BYTE   W12
 BYTE   PEND 
Label_11_0158AE70:
 BYTE   N06  Fs1  v076
 BYTE   N12  Cs3  v112
 BYTE   W12
 BYTE   Dn3  v104
 BYTE   W12
 BYTE   PEND 
Label_11_0158AE7B:
 BYTE   N12  Cn1  v127
 BYTE   N06  Fs1  v116
 BYTE   N12  Cs3  v120
 BYTE   W12
 BYTE   En3
 BYTE   W12
 BYTE   PEND 
Label_11_0158AE88:
 BYTE   N06  Fs1  v068
 BYTE   N12  Cs3  v108
 BYTE   W12
 BYTE   Dn3  v104
 BYTE   W12
 BYTE   PEND 
// 017   ----------------------------------------
Label_11_0158AE93:
 BYTE   N06  Fs1  v060
 BYTE   N12  Ds3  v120
 BYTE   W12
 BYTE   Cs3  v112
 BYTE   W12
 BYTE   PEND 
Label_11_0158AE9E:
 BYTE   N12  Ds1  v127
 BYTE   N06  Fs1  v108
 BYTE   N12  Ds3  v124
 BYTE   W12
 BYTE   Ds3  v092
 BYTE   W12
 BYTE   PEND 
Label_11_0158AEAC:
 BYTE   N06  Fs1  v060
 BYTE   N12  Cs3  v104
 BYTE   W12
 BYTE   Dn3  v120
 BYTE   W12
 BYTE   PEND 
Label_11_0158AEB7:
 BYTE   N06  Fs1  v096
 BYTE   N12  Cs3  v120
 BYTE   W12
 BYTE   Ds3  v116
 BYTE   W12
 BYTE   PEND 
// 018   ----------------------------------------
 BYTE   Cn1  v127
 BYTE   N06  Fs1  v108
 BYTE   N12  Cs3  v096
 BYTE   W12
 BYTE   Dn3  v104
 BYTE   W12
 BYTE   PATT
  POIN2 Label_11_0158ADD9
 BYTE   PATT
  POIN2 Label_11_0158ADE7
 BYTE   PATT
  POIN2 Label_11_0158ADF3
 BYTE   PATT
  POIN2 Label_11_0158AA38
 BYTE   PATT
  POIN2 Label_11_0158AE06
 BYTE   PATT
  POIN2 Label_11_0158AA06
 BYTE   PATT
  POIN2 Label_11_0158AE12
 BYTE   PATT
  POIN2 Label_11_0158AE1D
 BYTE   PATT
  POIN2 Label_11_0158AA2A
 BYTE   PATT
  POIN2 Label_11_0158A9F1
 BYTE   PATT
  POIN2 Label_11_0158AE32
 BYTE   PATT
  POIN2 Label_11_0158AE3D
 BYTE   PATT
  POIN2 Label_11_0158AE4B
 BYTE   PATT
  POIN2 Label_11_0158AE56
 BYTE   PATT
  POIN2 Label_11_0158AA71
 BYTE   PATT
  POIN2 Label_11_0158AE65
 BYTE   PATT
  POIN2 Label_11_0158AE70
 BYTE   PATT
  POIN2 Label_11_0158AE7B
 BYTE   PATT
  POIN2 Label_11_0158AE88
 BYTE   PATT
  POIN2 Label_11_0158AE93
 BYTE   PATT
  POIN2 Label_11_0158AE9E
 BYTE   PATT
  POIN2 Label_11_0158AEAC
 BYTE   PATT
  POIN2 Label_11_0158AEB7
 BYTE   PATT
  POIN2 Label_11_0158ADC8
 BYTE   PATT
  POIN2 Label_11_0158ADD9
 BYTE   PATT
  POIN2 Label_11_0158ADE7
 BYTE   PATT
  POIN2 Label_11_0158ADF3
 BYTE   PATT
  POIN2 Label_11_0158AA38
 BYTE   PATT
  POIN2 Label_11_0158AE06
 BYTE   PATT
  POIN2 Label_11_0158AA06
 BYTE   PATT
  POIN2 Label_11_0158AE12
 BYTE   PATT
  POIN2 Label_11_0158AE1D
 BYTE   PATT
  POIN2 Label_11_0158AA2A
 BYTE   PATT
  POIN2 Label_11_0158A9F1
 BYTE   PATT
  POIN2 Label_11_0158AE32
 BYTE   PATT
  POIN2 Label_11_0158AE3D
 BYTE   PATT
  POIN2 Label_11_0158AE4B
 BYTE   PATT
  POIN2 Label_11_0158AE56
 BYTE   PATT
  POIN2 Label_11_0158AA71
 BYTE   PATT
  POIN2 Label_11_0158AE65
 BYTE   PATT
  POIN2 Label_11_0158AE70
 BYTE   PATT
  POIN2 Label_11_0158AE7B
 BYTE   PATT
  POIN2 Label_11_0158AE88
 BYTE   PATT
  POIN2 Label_11_0158AE93
 BYTE   PATT
  POIN2 Label_11_0158AE9E
 BYTE   PATT
  POIN2 Label_11_0158AEAC
 BYTE   PATT
  POIN2 Label_11_0158AEB7
 BYTE   PATT
  POIN2 Label_11_0158ADC8
 BYTE   PATT
  POIN2 Label_11_0158ADD9
 BYTE   PATT
  POIN2 Label_11_0158ADE7
 BYTE   PATT
  POIN2 Label_11_0158ADF3
 BYTE   PATT
  POIN2 Label_11_0158AA38
 BYTE   PATT
  POIN2 Label_11_0158AE06
 BYTE   PATT
  POIN2 Label_11_0158AA06
 BYTE   PATT
  POIN2 Label_11_0158AE12
 BYTE   PATT
  POIN2 Label_11_0158AE1D
// 019   ----------------------------------------
 BYTE   N12  Ds1  v127
 BYTE   N06  Fs1  v108
 BYTE   N12  En3  v120
 BYTE   W12
 BYTE   Ds1  v127
 BYTE   N12  Cs3  v112
 BYTE   W12
 BYTE   PATT
  POIN2 Label_11_0158A9F1
 BYTE   PATT
  POIN2 Label_11_0158AE32
// 020   ----------------------------------------
 BYTE   N12  Cn1  v127
 BYTE   N06  Fs1  v104
 BYTE   N06  An2  v112
 BYTE   N12  Cs3  v120
 BYTE   W12
 BYTE   Dn3  v096
 BYTE   W12
 BYTE   PATT
  POIN2 Label_11_0158AE4B
 BYTE   PATT
  POIN2 Label_11_0158AE56
// 021   ----------------------------------------
 BYTE   N06  Fs1  v108
 BYTE   N12  En3  v120
 BYTE   W12
 BYTE   Dn3  v080
 BYTE   W12
 BYTE   PATT
  POIN2 Label_11_0158AE65
 BYTE   PATT
  POIN2 Label_11_0158AE70
 BYTE   PATT
  POIN2 Label_11_0158AE7B
 BYTE   PATT
  POIN2 Label_11_0158AE88
 BYTE   PATT
  POIN2 Label_11_0158AE93
// 022   ----------------------------------------
 BYTE   N06  Fs1  v108
 BYTE   N12  Ds3  v124
 BYTE   W12
 BYTE   Ds3  v092
 BYTE   W12
 BYTE   PATT
  POIN2 Label_11_0158AEAC
 BYTE   PATT
  POIN2 Label_11_0158AEB7
// 023   ----------------------------------------
 BYTE   GoTo
  POIN2 Label_11_0158A9B2
 BYTE   FINE

//******************************************************//
	ALIGN 4

PokemonMDExplorersNorthernDesertRandomWizard:
	BYTE	12	// NumTrks
	BYTE	0	// NumBlks
	BYTE	PokemonMDExplorersNorthernDesertRandomWizard_pri	// Priority
	BYTE	PokemonMDExplorersNorthernDesertRandomWizard_rev	// Reverb.
    
	POIN2	PokemonMDExplorersNorthernDesertRandomWizard_grp
    
	POIN2	PokemonMDExplorersNorthernDesertRandomWizard_001
	POIN2	PokemonMDExplorersNorthernDesertRandomWizard_002
	POIN2	PokemonMDExplorersNorthernDesertRandomWizard_003
	POIN2	PokemonMDExplorersNorthernDesertRandomWizard_004
	POIN2	PokemonMDExplorersNorthernDesertRandomWizard_005
	POIN2	PokemonMDExplorersNorthernDesertRandomWizard_006
	POIN2	PokemonMDExplorersNorthernDesertRandomWizard_007
	POIN2	PokemonMDExplorersNorthernDesertRandomWizard_008
	POIN2	PokemonMDExplorersNorthernDesertRandomWizard_009
	POIN2	PokemonMDExplorersNorthernDesertRandomWizard_010
	POIN2	PokemonMDExplorersNorthernDesertRandomWizard_011
	POIN2	PokemonMDExplorersNorthernDesertRandomWizard_012

	
