//Event file generated from Sappy .s format.
	#include "MPlayDef.event"

	#define	PokemonXDGaleofDarknessMirorBBattleAReliableChair_grp  voicegroup000
	#define	PokemonXDGaleofDarknessMirorBBattleAReliableChair_pri  0
	#define	PokemonXDGaleofDarknessMirorBBattleAReliableChair_rev  0
	#define	PokemonXDGaleofDarknessMirorBBattleAReliableChair_mvl  127
	#define	PokemonXDGaleofDarknessMirorBBattleAReliableChair_key  0
	#define	PokemonXDGaleofDarknessMirorBBattleAReliableChair_tbs  1
	#define	PokemonXDGaleofDarknessMirorBBattleAReliableChair_exg  0
	#define	PokemonXDGaleofDarknessMirorBBattleAReliableChair_cmp  1

	// .rodata
	//	PokemonXDGaleofDarknessMirorBBattleAReliableChair
	ALIGN 4


//**************** Track 1 (Midi-Chn.0) ****************//

PokemonXDGaleofDarknessMirorBBattleAReliableChair_001:
// 000   ----------------------------------------
 BYTE   VOL   64*PokemonXDGaleofDarknessMirorBBattleAReliableChair_mvl/mxv
 BYTE   KEYSH   PokemonXDGaleofDarknessMirorBBattleAReliableChair_key+0
Label_0_0149284C:
 BYTE   TEMPO   116*PokemonXDGaleofDarknessMirorBBattleAReliableChair_tbs/2
 BYTE   VOICE   38
 BYTE   N12  As0  v064
 BYTE   N12  Fn1
 BYTE   W12
 BYTE   Cn1
 BYTE   N12  Gn1
 BYTE   W24
 BYTE   N06  Cn1
 BYTE   N06  Gn1
 BYTE   W06
 BYTE   Cn1
 BYTE   N06  Gn1
 BYTE   W06
 BYTE   N12  As0
 BYTE   N12  Fn1
 BYTE   W12
 BYTE   Cn1
 BYTE   N12  Gn1
 BYTE   W24
 BYTE   Cn1
 BYTE   N12  Gn1
 BYTE   W12
// 001   ----------------------------------------
Label_0_01492870:
 BYTE   N12  Ds1  v064
 BYTE   N12  As1
 BYTE   W24
 BYTE   N06  As0
 BYTE   N06  Fn1
 BYTE   W12
 BYTE   N48  Cn1
 BYTE   N48  Gn1
 BYTE   W48
 BYTE   N12  Gn0
 BYTE   N12  Dn1
 BYTE   W12
 BYTE   PEND 
// 002   ----------------------------------------
Label_0_01492886:
 BYTE   N12  As0  v064
 BYTE   N12  Fn1
 BYTE   W12
 BYTE   Cn1
 BYTE   N12  Gn1
 BYTE   W24
 BYTE   N06  Cn1
 BYTE   N06  Gn1
 BYTE   W06
 BYTE   Cn1
 BYTE   N06  Gn1
 BYTE   W06
 BYTE   N12  As0
 BYTE   N12  Fn1
 BYTE   W12
 BYTE   Cn1
 BYTE   N12  Gn1
 BYTE   W24
 BYTE   Cn1
 BYTE   N12  Gn1
 BYTE   W12
 BYTE   PEND 
 BYTE   PATT
  POIN2 Label_0_01492870
// 003   ----------------------------------------
Label_0_014928AC:
 BYTE   N12  Fn0  v064
 BYTE   W12
 BYTE   Fn1
 BYTE   W12
 BYTE   Fn0
 BYTE   W12
 BYTE   Fn1
 BYTE   W12
 BYTE   Gn0
 BYTE   W12
 BYTE   Gn1
 BYTE   W12
 BYTE   Gn0
 BYTE   W12
 BYTE   Gn1
 BYTE   W12
 BYTE   PEND 
// 004   ----------------------------------------
Label_0_014928BF:
 BYTE   N12  Gs0  v064
 BYTE   W12
 BYTE   Gs1
 BYTE   W12
 BYTE   Gs0
 BYTE   W12
 BYTE   Gs1
 BYTE   W12
 BYTE   As0
 BYTE   W12
 BYTE   As1
 BYTE   W12
 BYTE   As0
 BYTE   W12
 BYTE   As1
 BYTE   W12
 BYTE   PEND 
 BYTE   PATT
  POIN2 Label_0_014928AC
 BYTE   PATT
  POIN2 Label_0_014928BF
// 005   ----------------------------------------
Label_0_014928DC:
 BYTE   N18  Cn1  v064
 BYTE   W18
 BYTE   N06
 BYTE   W12
 BYTE   N12  Cn2
 BYTE   W18
 BYTE   N06  Cn1
 BYTE   W06
 BYTE   N06
 BYTE   W18
 BYTE   Gn1
 BYTE   W06
 BYTE   Cn2
 BYTE   W06
 BYTE   Gn1
 BYTE   W06
 BYTE   Cn1
 BYTE   W06
 BYTE   PEND 
// 006   ----------------------------------------
Label_0_014928F3:
 BYTE   N06  Cn1  v064
 BYTE   W12
 BYTE   N06
 BYTE   W18
 BYTE   Cn2
 BYTE   W12
 BYTE   Cn1
 BYTE   W06
 BYTE   N06
 BYTE   W24
 BYTE   N24  Cs1
 BYTE   W24
 BYTE   PEND 
 BYTE   PATT
  POIN2 Label_0_014928DC
 BYTE   PATT
  POIN2 Label_0_014928F3
 BYTE   PATT
  POIN2 Label_0_014928AC
 BYTE   PATT
  POIN2 Label_0_014928BF
// 007   ----------------------------------------
Label_0_01492917:
 BYTE   N12  As0  v064
 BYTE   N12  As1
 BYTE   W12
 BYTE   Cn1
 BYTE   N12  Cn2
 BYTE   W24
 BYTE   N06  Cn1
 BYTE   N06  Cn2
 BYTE   W06
 BYTE   Cn1
 BYTE   N06  Cn2
 BYTE   W06
 BYTE   N12  As0
 BYTE   N12  As1
 BYTE   W12
 BYTE   Cn1
 BYTE   N12  Cn2
 BYTE   W24
 BYTE   Cn1
 BYTE   N12  Cn2
 BYTE   W12
 BYTE   PEND 
// 008   ----------------------------------------
 BYTE   Ds1
 BYTE   N12  Ds2
 BYTE   W24
 BYTE   As0
 BYTE   N12  As1
 BYTE   W12
 BYTE   N36  Cn1
 BYTE   N36  Cn2
 BYTE   W48
 BYTE   N12  Gn0
 BYTE   N12  Gn1
 BYTE   W12
 BYTE   PATT
  POIN2 Label_0_01492917
// 009   ----------------------------------------
 BYTE   N12  Ds1  v064
 BYTE   N12  Ds2
 BYTE   W24
 BYTE   As0
 BYTE   N12  As1
 BYTE   W12
 BYTE   N36  Cn1
 BYTE   N36  Cn2
 BYTE   W48
 BYTE   N12  Cn1
 BYTE   N12  Cn2
 BYTE   W12
// 010   ----------------------------------------
Label_0_01492963:
 BYTE   N12  Ds0  v064
 BYTE   N12  Ds1
 BYTE   W12
 BYTE   Fn0
 BYTE   N12  Fn1
 BYTE   W24
 BYTE   N06  Fn0
 BYTE   N06  Fn1
 BYTE   W06
 BYTE   Fn0
 BYTE   N06  Fn1
 BYTE   W06
 BYTE   N12  Ds0
 BYTE   N12  Ds1
 BYTE   W12
 BYTE   Fn0
 BYTE   N12  Fn1
 BYTE   W24
 BYTE   Fn0
 BYTE   N12  Fn1
 BYTE   W12
 BYTE   PEND 
// 011   ----------------------------------------
 BYTE   Gs0
 BYTE   N12  Gs1
 BYTE   W24
 BYTE   Ds0
 BYTE   N12  Ds1
 BYTE   W12
 BYTE   N36  Fn0
 BYTE   N36  Fn1
 BYTE   W48
 BYTE   N12  Cn0
 BYTE   N12  Cn1
 BYTE   W12
 BYTE   PATT
  POIN2 Label_0_01492963
// 012   ----------------------------------------
 BYTE   N12  Gs0  v064
 BYTE   N12  Gs1
 BYTE   W24
 BYTE   Ds0
 BYTE   N12  Ds1
 BYTE   W12
 BYTE   N36  Fn0
 BYTE   N36  Fn1
 BYTE   W48
 BYTE   N12  Fn0
 BYTE   N12  Fn1
 BYTE   W12
// 013   ----------------------------------------
Label_0_014929AF:
 BYTE   N12  Dn1  v064
 BYTE   N12  Gn1
 BYTE   W12
 BYTE   Dn1
 BYTE   N12  Gn1
 BYTE   W12
 BYTE   Dn1
 BYTE   N12  Gn1
 BYTE   W12
 BYTE   Dn1
 BYTE   N12  Gn1
 BYTE   W12
 BYTE   Dn1
 BYTE   N12  Gn1
 BYTE   W12
 BYTE   Dn1
 BYTE   N12  Gn1
 BYTE   W12
 BYTE   Dn1
 BYTE   N12  Gn1
 BYTE   W12
 BYTE   Dn1
 BYTE   N12  Gn1
 BYTE   W12
 BYTE   PEND 
 BYTE   PATT
  POIN2 Label_0_014929AF
 BYTE   PATT
  POIN2 Label_0_01492886
 BYTE   PATT
  POIN2 Label_0_01492870
// 014   ----------------------------------------
 BYTE   GoTo
  POIN2 Label_0_0149284C
 BYTE   FINE

//**************** Track 2 (Midi-Chn.1) ****************//

PokemonXDGaleofDarknessMirorBBattleAReliableChair_002:
// 000   ----------------------------------------
 BYTE   VOL   64*PokemonXDGaleofDarknessMirorBBattleAReliableChair_mvl/mxv
 BYTE   KEYSH   PokemonXDGaleofDarknessMirorBBattleAReliableChair_key+0
Label_1_014929EC:
 BYTE   VOICE   46
 BYTE   W96
// 001   ----------------------------------------
 BYTE   W96
// 002   ----------------------------------------
 BYTE   W96
// 003   ----------------------------------------
 BYTE   W96
// 004   ----------------------------------------
Label_1_014929F2:
 BYTE   N36  Cn3  v064
 BYTE   N36  Fn3
 BYTE   W36
 BYTE   N60  Dn3
 BYTE   N60  Gn3
 BYTE   W60
 BYTE   PEND 
// 005   ----------------------------------------
Label_1_014929FE:
 BYTE   N36  Ds3  v064
 BYTE   N36  Gs3
 BYTE   W36
 BYTE   N60  Fn3
 BYTE   N60  As3
 BYTE   W60
 BYTE   PEND 
 BYTE   PATT
  POIN2 Label_1_014929F2
 BYTE   PATT
  POIN2 Label_1_014929FE
// 006   ----------------------------------------
Label_1_01492A14:
 BYTE   N18  Gn3  v064
 BYTE   N18  Cn4
 BYTE   W18
 BYTE   N12  Gn3
 BYTE   N12  Cn4
 BYTE   W36
 BYTE   Gn3
 BYTE   N06  Cn4
 BYTE   W18
 BYTE   N18  Gn3
 BYTE   N18  Cn4
 BYTE   W24
 BYTE   PEND 
// 007   ----------------------------------------
 BYTE   W12
 BYTE   N12  Gn3
 BYTE   N06  Cn4
 BYTE   W18
 BYTE   N18  Gn3
 BYTE   N18  Cn4
 BYTE   W18
 BYTE   N12  Gn3
 BYTE   N06  Cn4
 BYTE   W30
 BYTE   N18  Gs3
 BYTE   N18  Cs4
 BYTE   W18
 BYTE   PATT
  POIN2 Label_1_01492A14
// 008   ----------------------------------------
 BYTE   W12
 BYTE   N12  Gn3  v064
 BYTE   N06  Cn4
 BYTE   W18
 BYTE   N18  Gn3
 BYTE   N18  Cn4
 BYTE   W18
 BYTE   N12  Gn3
 BYTE   N06  Cn4
 BYTE   W30
 BYTE   N18  Gn3
 BYTE   N18  Cn4
 BYTE   W18
// 009   ----------------------------------------
 BYTE   N12  Fn3
 BYTE   N12  Gs3
 BYTE   W24
 BYTE   Fn3
 BYTE   N12  Gs3
 BYTE   W24
 BYTE   Gn3
 BYTE   N12  As3
 BYTE   W24
 BYTE   Gn3
 BYTE   N12  As3
 BYTE   W24
// 010   ----------------------------------------
 BYTE   N06  Gs3
 BYTE   N06  Cn4
 BYTE   W12
 BYTE   Gs3
 BYTE   N06  Cn4
 BYTE   W12
 BYTE   Gs3
 BYTE   N06  Cn4
 BYTE   W12
 BYTE   Gs3
 BYTE   N06  Cn4
 BYTE   W06
 BYTE   N48  As3
 BYTE   N48  Dn4
 BYTE   W54
// 011   ----------------------------------------
Label_1_01492A80:
 BYTE   N12  As2  v032
 BYTE   N12  Fn3
 BYTE   N12  As3
 BYTE   W12
 BYTE   Cn3
 BYTE   N12  Gn3
 BYTE   N12  Cn4
 BYTE   W24
 BYTE   N06  Cn3
 BYTE   N06  Gn3
 BYTE   N06  Cn4
 BYTE   W06
 BYTE   Cn3
 BYTE   N06  Gn3
 BYTE   N06  Cn4
 BYTE   W06
 BYTE   N12  As2
 BYTE   N12  Fn3
 BYTE   N12  As3
 BYTE   W12
 BYTE   Cn3
 BYTE   N12  Gn3
 BYTE   N12  Cn4
 BYTE   W24
 BYTE   N06  Cn3
 BYTE   N06  Gn3
 BYTE   N06  Cn4
 BYTE   W06
 BYTE   Cn3
 BYTE   N06  Gn3
 BYTE   N06  Cn4
 BYTE   W06
 BYTE   PEND 
// 012   ----------------------------------------
Label_1_01492AB6:
 BYTE   N12  Ds3  v032
 BYTE   N12  As3
 BYTE   N12  Ds4
 BYTE   W24
 BYTE   As2
 BYTE   N12  Fn3
 BYTE   N12  As3
 BYTE   W12
 BYTE   N24  Cn3
 BYTE   N24  Gn3
 BYTE   N24  Cn4
 BYTE   W24
 BYTE   N12  Cn3
 BYTE   N12  Gn3
 BYTE   N12  Cn4
 BYTE   W24
 BYTE   Gn2
 BYTE   N12  Dn3
 BYTE   N12  Gn3
 BYTE   W12
 BYTE   PEND 
 BYTE   PATT
  POIN2 Label_1_01492A80
 BYTE   PATT
  POIN2 Label_1_01492AB6
// 013   ----------------------------------------
 BYTE   N12  Ds2  v064
 BYTE   N12  As2  v032
 BYTE   N12  Ds3
 BYTE   W12
 BYTE   Fn2
 BYTE   N12  Cn3
 BYTE   N12  Fn3
 BYTE   W24
 BYTE   N06  Fn2
 BYTE   N06  Cn3
 BYTE   N06  Fn3
 BYTE   W06
 BYTE   Fn2
 BYTE   N06  Cn3
 BYTE   N06  Fn3
 BYTE   W06
 BYTE   N12  Ds2  v064
 BYTE   N12  As2  v032
 BYTE   N12  Ds3
 BYTE   W12
 BYTE   Fn2
 BYTE   N12  Cn3
 BYTE   N12  Fn3
 BYTE   W24
 BYTE   N06  Fn2
 BYTE   N06  Cn3
 BYTE   N06  Fn3
 BYTE   W06
 BYTE   Fn2
 BYTE   N06  Cn3
 BYTE   N06  Fn3
 BYTE   W06
// 014   ----------------------------------------
 BYTE   N12  Gs2
 BYTE   N12  Ds3
 BYTE   N12  Gs3
 BYTE   W24
 BYTE   Ds2  v064
 BYTE   N12  As2  v032
 BYTE   N12  Ds3
 BYTE   W12
 BYTE   N36  Fn2
 BYTE   N36  Cn3
 BYTE   N36  Fn3
 BYTE   W48
 BYTE   N12  Cn2  v064
 BYTE   N12  Gn2  v032
 BYTE   N12  Cn3
 BYTE   W12
// 015   ----------------------------------------
 BYTE   Ds2  v064
 BYTE   N12  As2  v032
 BYTE   N12  Ds3
 BYTE   W12
 BYTE   Fn2
 BYTE   N12  Cn3
 BYTE   N12  Fn3
 BYTE   W24
 BYTE   N06  Fn2
 BYTE   N06  Cn3
 BYTE   N06  Fn3
 BYTE   W06
 BYTE   Fn2
 BYTE   N06  Cn3
 BYTE   N06  Fn3
 BYTE   W06
 BYTE   N12  Ds2  v064
 BYTE   N12  As2  v032
 BYTE   N12  Ds3
 BYTE   W12
 BYTE   Fn2
 BYTE   N12  Cn3
 BYTE   N12  Fn3
 BYTE   W24
 BYTE   Fn2
 BYTE   N12  Cn3
 BYTE   N12  Fn3
 BYTE   W12
// 016   ----------------------------------------
 BYTE   Gs2
 BYTE   N12  Ds3
 BYTE   N12  Gs3
 BYTE   W24
 BYTE   Ds2  v064
 BYTE   N12  As2  v032
 BYTE   N12  Ds3
 BYTE   W12
 BYTE   N36  Fn2
 BYTE   N36  Cn3
 BYTE   N36  Fn3
 BYTE   W48
 BYTE   N12  Fn2
 BYTE   N12  Cn3
 BYTE   N12  Fn3
 BYTE   W12
// 017   ----------------------------------------
 BYTE   N06
 BYTE   N06  As3
 BYTE   N06  Dn4
 BYTE   W12
 BYTE   Fn3
 BYTE   N06  As3
 BYTE   N06  Dn4
 BYTE   W12
 BYTE   Fn3
 BYTE   N06  As3
 BYTE   N06  Dn4
 BYTE   W12
 BYTE   Fn3
 BYTE   N06  As3
 BYTE   N06  Dn4
 BYTE   W12
 BYTE   Fn3
 BYTE   N06  As3
 BYTE   N06  Dn4
 BYTE   W12
 BYTE   Fn3
 BYTE   N06  As3
 BYTE   N06  Dn4
 BYTE   W12
 BYTE   Fn3
 BYTE   N06  As3
 BYTE   N06  Dn4
 BYTE   W12
 BYTE   Fn3
 BYTE   N06  As3
 BYTE   N06  Dn4
 BYTE   W12
// 018   ----------------------------------------
 BYTE   Fn3
 BYTE   N06  As3
 BYTE   N06  Dn4
 BYTE   W12
 BYTE   Fn3
 BYTE   N06  As3
 BYTE   N06  Dn4
 BYTE   W12
 BYTE   Fn3
 BYTE   N06  As3
 BYTE   N06  Dn4
 BYTE   W12
 BYTE   Fn3
 BYTE   N06  As3
 BYTE   N06  Dn4
 BYTE   W12
 BYTE   Fn3
 BYTE   N06  As3
 BYTE   N06  Dn4
 BYTE   W12
 BYTE   Fn3
 BYTE   N06  As3
 BYTE   N06  Dn4
 BYTE   W12
 BYTE   As2
 BYTE   N06  Gn3
 BYTE   N06  As3
 BYTE   W12
 BYTE   As2
 BYTE   N06  Gn3
 BYTE   N06  As3
 BYTE   W12
// 019   ----------------------------------------
 BYTE   N48  Gn2
 BYTE   N48  Cn3
 BYTE   N48  Ds3
 BYTE   N48  Gn3
 BYTE   W96
// 020   ----------------------------------------
 BYTE   W96
// 021   ----------------------------------------
 BYTE   GoTo
  POIN2 Label_1_014929EC
 BYTE   FINE

//**************** Track 3 (Midi-Chn.2) ****************//

PokemonXDGaleofDarknessMirorBBattleAReliableChair_003:
// 000   ----------------------------------------
 BYTE   VOL   64*PokemonXDGaleofDarknessMirorBBattleAReliableChair_mvl/mxv
 BYTE   KEYSH   PokemonXDGaleofDarknessMirorBBattleAReliableChair_key+0
Label_2_01492BFC:
 BYTE   VOICE   89
 BYTE   W96
// 001   ----------------------------------------
 BYTE   W96
// 002   ----------------------------------------
 BYTE   W96
// 003   ----------------------------------------
 BYTE   W96
// 004   ----------------------------------------
Label_2_01492C02:
 BYTE   N36  Cn3  v048
 BYTE   N36  Fn3
 BYTE   W36
 BYTE   N60  Dn3
 BYTE   N60  Gn3
 BYTE   W60
 BYTE   PEND 
// 005   ----------------------------------------
Label_2_01492C0E:
 BYTE   N36  Ds3  v048
 BYTE   N36  Gs3
 BYTE   W36
 BYTE   N60  Fn3
 BYTE   N60  As3
 BYTE   W60
 BYTE   PEND 
 BYTE   PATT
  POIN2 Label_2_01492C02
 BYTE   PATT
  POIN2 Label_2_01492C0E
// 006   ----------------------------------------
 BYTE   W96
// 007   ----------------------------------------
 BYTE   W96
// 008   ----------------------------------------
 BYTE   W96
// 009   ----------------------------------------
 BYTE   W96
// 010   ----------------------------------------
 BYTE   W96
// 011   ----------------------------------------
 BYTE   W96
// 012   ----------------------------------------
 BYTE   W96
// 013   ----------------------------------------
 BYTE   W96
// 014   ----------------------------------------
 BYTE   W96
// 015   ----------------------------------------
 BYTE   W96
// 016   ----------------------------------------
 BYTE   W96
// 017   ----------------------------------------
 BYTE   W96
// 018   ----------------------------------------
 BYTE   W96
// 019   ----------------------------------------
 BYTE   W96
// 020   ----------------------------------------
 BYTE   W96
// 021   ----------------------------------------
 BYTE   W96
// 022   ----------------------------------------
 BYTE   W96
// 023   ----------------------------------------
 BYTE   W96
// 024   ----------------------------------------
 BYTE   GoTo
  POIN2 Label_2_01492BFC
 BYTE   FINE

//**************** Track 4 (Midi-Chn.3) ****************//

PokemonXDGaleofDarknessMirorBBattleAReliableChair_004:
// 000   ----------------------------------------
 BYTE   VOL   64*PokemonXDGaleofDarknessMirorBBattleAReliableChair_mvl/mxv
 BYTE   KEYSH   PokemonXDGaleofDarknessMirorBBattleAReliableChair_key+0
Label_3_01492C40:
 BYTE   VOICE   46
 BYTE   W96
// 001   ----------------------------------------
 BYTE   W96
// 002   ----------------------------------------
 BYTE   W96
// 003   ----------------------------------------
 BYTE   W96
// 004   ----------------------------------------
Label_3_01492C46:
 BYTE   N06  Ds3  v064
 BYTE   W06
 BYTE   Fn3
 BYTE   W12
 BYTE   N12  Gs3
 BYTE   W12
 BYTE   N18  Fn3
 BYTE   W18
 BYTE   N06  Ds3
 BYTE   W06
 BYTE   Fn3
 BYTE   W12
 BYTE   N30  Gs3
 BYTE   W30
 BYTE   PEND 
 BYTE   PATT
  POIN2 Label_3_01492C46
 BYTE   PATT
  POIN2 Label_3_01492C46
 BYTE   PATT
  POIN2 Label_3_01492C46
// 005   ----------------------------------------
Label_3_01492C6A:
 BYTE   N06  As2  v064
 BYTE   W06
 BYTE   Cn3
 BYTE   W12
 BYTE   N12  Ds3
 BYTE   W12
 BYTE   N18  Cn3
 BYTE   W18
 BYTE   N06  As2
 BYTE   W06
 BYTE   Cn3
 BYTE   W12
 BYTE   N30  Ds3
 BYTE   W30
 BYTE   PEND 
 BYTE   PATT
  POIN2 Label_3_01492C6A
 BYTE   PATT
  POIN2 Label_3_01492C6A
 BYTE   PATT
  POIN2 Label_3_01492C6A
// 006   ----------------------------------------
 BYTE   W96
// 007   ----------------------------------------
 BYTE   W96
// 008   ----------------------------------------
 BYTE   W96
// 009   ----------------------------------------
 BYTE   W96
// 010   ----------------------------------------
 BYTE   W96
// 011   ----------------------------------------
 BYTE   W96
// 012   ----------------------------------------
 BYTE   W96
// 013   ----------------------------------------
 BYTE   W96
// 014   ----------------------------------------
 BYTE   W96
// 015   ----------------------------------------
 BYTE   W96
// 016   ----------------------------------------
 BYTE   W96
// 017   ----------------------------------------
 BYTE   W96
// 018   ----------------------------------------
 BYTE   W96
// 019   ----------------------------------------
 BYTE   W96
// 020   ----------------------------------------
 BYTE   GoTo
  POIN2 Label_3_01492C40
 BYTE   FINE

//**************** Track 5 (Midi-Chn.4) ****************//

PokemonXDGaleofDarknessMirorBBattleAReliableChair_005:
// 000   ----------------------------------------
 BYTE   VOL   64*PokemonXDGaleofDarknessMirorBBattleAReliableChair_mvl/mxv
 BYTE   KEYSH   PokemonXDGaleofDarknessMirorBBattleAReliableChair_key+0
Label_4_01492CA8:
 BYTE   VOICE   61
 BYTE   W96
// 001   ----------------------------------------
 BYTE   W96
// 002   ----------------------------------------
 BYTE   W96
// 003   ----------------------------------------
 BYTE   W96
// 004   ----------------------------------------
 BYTE   W96
// 005   ----------------------------------------
 BYTE   W96
// 006   ----------------------------------------
 BYTE   W12
 BYTE   N06  Gn3  v048
 BYTE   N06  Gn4
 BYTE   W12
 BYTE   Fn3
 BYTE   N06  Fn4
 BYTE   W12
 BYTE   Dn3
 BYTE   N06  Dn4
 BYTE   W12
 BYTE   Cn3
 BYTE   N06  Cn4
 BYTE   W12
 BYTE   Cn3
 BYTE   N06  Cn4
 BYTE   W12
 BYTE   Cn3
 BYTE   N06  Cn4
 BYTE   W06
 BYTE   N18  Dn3
 BYTE   N18  Dn4
 BYTE   W18
// 007   ----------------------------------------
 BYTE   N24  Ds3
 BYTE   N24  Ds4
 BYTE   W24
 BYTE   Fn3
 BYTE   N24  Fn4
 BYTE   W24
 BYTE   Gn3
 BYTE   N24  Gn4
 BYTE   W24
 BYTE   Gs3
 BYTE   N24  Gs4
 BYTE   W24
// 008   ----------------------------------------
 BYTE   W96
// 009   ----------------------------------------
 BYTE   W96
// 010   ----------------------------------------
 BYTE   W96
// 011   ----------------------------------------
 BYTE   N96  Gn3
 BYTE   N96  Gn4
 BYTE   W96
// 012   ----------------------------------------
 BYTE   N12  Fn3
 BYTE   N12  Fn4
 BYTE   W24
 BYTE   Ds3
 BYTE   N12  Ds4
 BYTE   W24
 BYTE   Dn3
 BYTE   N12  Dn4
 BYTE   W24
 BYTE   As2
 BYTE   N12  As3
 BYTE   W24
// 013   ----------------------------------------
 BYTE   N06  Cn3
 BYTE   N06  Cn4
 BYTE   W12
 BYTE   Cn3
 BYTE   N06  Cn4
 BYTE   W12
 BYTE   Ds3
 BYTE   N06  Ds4
 BYTE   W12
 BYTE   Ds3
 BYTE   N06  Ds4
 BYTE   W06
 BYTE   N48  Fn3
 BYTE   N48  Fn4
 BYTE   W54
// 014   ----------------------------------------
 BYTE   W96
// 015   ----------------------------------------
 BYTE   W96
// 016   ----------------------------------------
 BYTE   N96  Gn3
 BYTE   N96  Gn4
 BYTE   W96
// 017   ----------------------------------------
 BYTE   W24
 BYTE   N12  Fn3
 BYTE   N12  Fn4
 BYTE   W24
 BYTE   Ds3
 BYTE   N12  Ds4
 BYTE   W24
 BYTE   Cn3
 BYTE   N12  Cn4
 BYTE   W24
// 018   ----------------------------------------
 BYTE   N96  Cn3
 BYTE   N96  Cn4
 BYTE   W96
// 019   ----------------------------------------
 BYTE   W24
 BYTE   N12  Ds3
 BYTE   N12  Ds4
 BYTE   W24
 BYTE   Fn3
 BYTE   N12  Fn4
 BYTE   W24
 BYTE   Ds3
 BYTE   N12  Ds4
 BYTE   W24
// 020   ----------------------------------------
Label_4_01492D38:
 BYTE   TIE  Cn3  v048
 BYTE   TIE  Cn4
 BYTE   W96
 BYTE   PEND 
// 021   ----------------------------------------
 BYTE   W24
 BYTE   EOT
 BYTE   Cn3  v072
 BYTE   N12  Ds3
 BYTE   N12  Ds4
 BYTE   W24
 BYTE   Fn3
 BYTE   N12  Fn4
 BYTE   W24
 BYTE   Ds3
 BYTE   N12  Ds4
 BYTE   W24
// 022   ----------------------------------------
 BYTE   TIE  Gn3
 BYTE   TIE  Gn4
 BYTE   W96
// 023   ----------------------------------------
 BYTE   W24
 BYTE   EOT
 BYTE   Gn3  v079
 BYTE   N12  Gn3
 BYTE   N12  Gn4
 BYTE   W24
 BYTE   As3
 BYTE   N12  As4
 BYTE   W24
 BYTE   Gn3
 BYTE   N12  Gn4
 BYTE   W24
 BYTE   PATT
  POIN2 Label_4_01492D38
// 024   ----------------------------------------
 BYTE   W96
// 025   ----------------------------------------
 BYTE   EOT
 BYTE   Cn3  v072
 BYTE   GoTo
  POIN2 Label_4_01492CA8
 BYTE   FINE

//**************** Track 6 (Midi-Chn.5) ****************//

PokemonXDGaleofDarknessMirorBBattleAReliableChair_006:
// 000   ----------------------------------------
 BYTE   VOL   64*PokemonXDGaleofDarknessMirorBBattleAReliableChair_mvl/mxv
 BYTE   KEYSH   PokemonXDGaleofDarknessMirorBBattleAReliableChair_key+0
Label_5_01492D7C:
 BYTE   VOICE   103
 BYTE   W96
// 001   ----------------------------------------
 BYTE   W96
// 002   ----------------------------------------
 BYTE   W96
// 003   ----------------------------------------
 BYTE   W96
// 004   ----------------------------------------
 BYTE   W96
// 005   ----------------------------------------
 BYTE   W96
// 006   ----------------------------------------
 BYTE   W96
// 007   ----------------------------------------
 BYTE   W96
// 008   ----------------------------------------
 BYTE   W96
// 009   ----------------------------------------
 BYTE   W96
// 010   ----------------------------------------
 BYTE   W96
// 011   ----------------------------------------
 BYTE   W96
// 012   ----------------------------------------
 BYTE   W96
// 013   ----------------------------------------
 BYTE   W96
// 014   ----------------------------------------
Label_5_01492D8C:
 BYTE   N12  As2  v032
 BYTE   N12  Fn3
 BYTE   N12  As3
 BYTE   W12
 BYTE   Cn3
 BYTE   N12  Gn3
 BYTE   N12  Cn4
 BYTE   W24
 BYTE   N06  Cn3
 BYTE   N06  Gn3
 BYTE   N06  Cn4
 BYTE   W06
 BYTE   Cn3
 BYTE   N06  Gn3
 BYTE   N06  Cn4
 BYTE   W06
 BYTE   N12  As2
 BYTE   N12  Fn3
 BYTE   N12  As3
 BYTE   W12
 BYTE   Cn3
 BYTE   N12  Gn3
 BYTE   N12  Cn4
 BYTE   W24
 BYTE   Cn3
 BYTE   N12  Gn3
 BYTE   N12  Cn4
 BYTE   W12
 BYTE   PEND 
// 015   ----------------------------------------
 BYTE   Ds3
 BYTE   N12  As3
 BYTE   N12  Ds4
 BYTE   W24
 BYTE   As2
 BYTE   N12  Fn3
 BYTE   N12  As3
 BYTE   W12
 BYTE   N36  Cn3
 BYTE   N36  Gn3
 BYTE   N36  Cn4
 BYTE   W48
 BYTE   N12  Gn2
 BYTE   N12  Dn3
 BYTE   N12  Gn3
 BYTE   W12
 BYTE   PATT
  POIN2 Label_5_01492D8C
// 016   ----------------------------------------
 BYTE   N12  Ds3  v032
 BYTE   N12  As3
 BYTE   N12  Ds4
 BYTE   W24
 BYTE   As2
 BYTE   N12  Fn3
 BYTE   N12  As3
 BYTE   W12
 BYTE   N36  Cn3
 BYTE   N36  Gn3
 BYTE   N36  Cn4
 BYTE   W48
 BYTE   N12  Cn3
 BYTE   N12  Gn3
 BYTE   N12  Cn4
 BYTE   W12
// 017   ----------------------------------------
Label_5_01492DF6:
 BYTE   N12  Ds2  v032
 BYTE   N12  As2
 BYTE   N12  Ds3
 BYTE   W12
 BYTE   Fn2
 BYTE   N12  Cn3
 BYTE   N12  Fn3
 BYTE   W24
 BYTE   N06  Fn2
 BYTE   N06  Cn3
 BYTE   N06  Fn3
 BYTE   W06
 BYTE   Fn2
 BYTE   N06  Cn3
 BYTE   N06  Fn3
 BYTE   W06
 BYTE   N12  Ds2
 BYTE   N12  As2
 BYTE   N12  Ds3
 BYTE   W12
 BYTE   Fn2
 BYTE   N12  Cn3
 BYTE   N12  Fn3
 BYTE   W24
 BYTE   Fn2
 BYTE   N12  Cn3
 BYTE   N12  Fn3
 BYTE   W12
 BYTE   PEND 
// 018   ----------------------------------------
 BYTE   Gs2
 BYTE   N12  Ds3
 BYTE   N12  Gs3
 BYTE   W24
 BYTE   Ds2
 BYTE   N12  As2
 BYTE   N12  Ds3
 BYTE   W12
 BYTE   N36  Fn2
 BYTE   N36  Cn3
 BYTE   N36  Fn3
 BYTE   W48
 BYTE   N12  Cn2
 BYTE   N12  Gn2
 BYTE   N12  Cn3
 BYTE   W12
 BYTE   PATT
  POIN2 Label_5_01492DF6
// 019   ----------------------------------------
 BYTE   N12  Gs2  v032
 BYTE   N12  Ds3
 BYTE   N12  Gs3
 BYTE   W24
 BYTE   Ds2
 BYTE   N12  As2
 BYTE   N12  Ds3
 BYTE   W12
 BYTE   N36  Fn2
 BYTE   N36  Cn3
 BYTE   N36  Fn3
 BYTE   W48
 BYTE   N12  Fn2
 BYTE   N12  Cn3
 BYTE   N12  Fn3
 BYTE   W12
// 020   ----------------------------------------
 BYTE   N06  Cn3
 BYTE   N06  Gn3
 BYTE   N06  Cn4
 BYTE   W06
 BYTE   Fn2
 BYTE   N06  Dn3
 BYTE   N06  Gn3
 BYTE   W06
 BYTE   As2
 BYTE   N06  Fn3
 BYTE   N06  As3
 BYTE   W06
 BYTE   N36  Gn2
 BYTE   N36  Dn3
 BYTE   N36  Gn3
 BYTE   W36
 BYTE   N06  Gn2
 BYTE   N06  Dn3
 BYTE   N06  Gn3
 BYTE   W06
 BYTE   As2
 BYTE   N06  Fn3
 BYTE   N06  As3
 BYTE   W06
 BYTE   N54  Gn2
 BYTE   N54  Dn3
 BYTE   N54  Gn3
 BYTE   W30
// 021   ----------------------------------------
 BYTE   W24
 BYTE   N24  Gn2
 BYTE   N24  Dn3
 BYTE   N24  Gn3
 BYTE   W24
 BYTE   As2
 BYTE   N24  Fn3
 BYTE   N24  As3
 BYTE   W24
 BYTE   Gn2
 BYTE   N24  Dn3
 BYTE   N24  Gn3
 BYTE   W24
// 022   ----------------------------------------
 BYTE   W96
// 023   ----------------------------------------
 BYTE   W96
// 024   ----------------------------------------
 BYTE   GoTo
  POIN2 Label_5_01492D7C
 BYTE   FINE

//**************** Track 7 (Midi-Chn.6) ****************//

PokemonXDGaleofDarknessMirorBBattleAReliableChair_007:
// 000   ----------------------------------------
 BYTE   VOL   64*PokemonXDGaleofDarknessMirorBBattleAReliableChair_mvl/mxv
 BYTE   KEYSH   PokemonXDGaleofDarknessMirorBBattleAReliableChair_key+0
Label_6_01492EB0:
 BYTE   VOICE   57
 BYTE   W96
// 001   ----------------------------------------
 BYTE   W96
// 002   ----------------------------------------
 BYTE   W96
// 003   ----------------------------------------
 BYTE   W96
// 004   ----------------------------------------
 BYTE   W96
// 005   ----------------------------------------
 BYTE   W96
// 006   ----------------------------------------
 BYTE   W96
// 007   ----------------------------------------
 BYTE   W96
// 008   ----------------------------------------
 BYTE   W96
// 009   ----------------------------------------
 BYTE   W96
// 010   ----------------------------------------
 BYTE   TIE  Gn4  v064
 BYTE   W96
// 011   ----------------------------------------
 BYTE   W06
 BYTE   EOT
 BYTE   N06  Fn4
 BYTE   W06
 BYTE   Dn4
 BYTE   W06
 BYTE   Cn4
 BYTE   W06
 BYTE   As3
 BYTE   W06
 BYTE   Dn4
 BYTE   W06
 BYTE   Cn4
 BYTE   W06
 BYTE   As3
 BYTE   W06
 BYTE   Gn3
 BYTE   W06
 BYTE   Cn4
 BYTE   W06
 BYTE   As3
 BYTE   W06
 BYTE   Gn3
 BYTE   W06
 BYTE   Fn3
 BYTE   W06
 BYTE   As3
 BYTE   W06
 BYTE   Gn3
 BYTE   W06
 BYTE   Fn3
 BYTE   W06
// 012   ----------------------------------------
 BYTE   Ds3
 BYTE   W06
 BYTE   Cn3
 BYTE   W06
 BYTE   Ds3
 BYTE   W06
 BYTE   N12  Fn3
 BYTE   W12
 BYTE   N06  Ds3
 BYTE   W06
 BYTE   Fn3
 BYTE   W06
 BYTE   N12  Gn3
 BYTE   W12
 BYTE   N06
 BYTE   W06
 BYTE   As3
 BYTE   W06
 BYTE   N12  Cn4
 BYTE   W12
 BYTE   N06  As3
 BYTE   W06
 BYTE   Gn3
 BYTE   W06
 BYTE   Fn3
 BYTE   W06
// 013   ----------------------------------------
 BYTE   Gn3
 BYTE   W06
 BYTE   As3
 BYTE   W06
 BYTE   Cn4
 BYTE   W06
 BYTE   Gn3
 BYTE   W06
 BYTE   As3
 BYTE   W06
 BYTE   Cn4
 BYTE   W06
 BYTE   Dn4
 BYTE   W06
 BYTE   Ds4
 BYTE   W06
 BYTE   N48  Fn4
 BYTE   W48
// 014   ----------------------------------------
 BYTE   W96
// 015   ----------------------------------------
 BYTE   W96
// 016   ----------------------------------------
 BYTE   W96
// 017   ----------------------------------------
 BYTE   W96
// 018   ----------------------------------------
 BYTE   W96
// 019   ----------------------------------------
 BYTE   W96
// 020   ----------------------------------------
 BYTE   W96
// 021   ----------------------------------------
 BYTE   W96
// 022   ----------------------------------------
 BYTE   W96
// 023   ----------------------------------------
 BYTE   W96
// 024   ----------------------------------------
 BYTE   W96
// 025   ----------------------------------------
 BYTE   W96
// 026   ----------------------------------------
 BYTE   GoTo
  POIN2 Label_6_01492EB0
 BYTE   FINE

//**************** Track 8 (Midi-Chn.7) ****************//

PokemonXDGaleofDarknessMirorBBattleAReliableChair_008:
// 000   ----------------------------------------
 BYTE   VOL   64*PokemonXDGaleofDarknessMirorBBattleAReliableChair_mvl/mxv
 BYTE   KEYSH   PokemonXDGaleofDarknessMirorBBattleAReliableChair_key+0
Label_7_01492F2C:
 BYTE   VOICE   124
 BYTE   N12  Cn1  v064
 BYTE   N06  Fs1
 BYTE   W06
 BYTE   N06
 BYTE   W06
 BYTE   N06
 BYTE   W12
 BYTE   N12  Cn1
 BYTE   N06  Fs1
 BYTE   W12
 BYTE   N06
 BYTE   W12
 BYTE   N12  Cn1
 BYTE   N06  Fs1
 BYTE   W06
 BYTE   N06
 BYTE   W06
 BYTE   N06
 BYTE   W12
 BYTE   N12  Cn1
 BYTE   N06  Fs1
 BYTE   W12
 BYTE   N06
 BYTE   W12
// 001   ----------------------------------------
Label_7_01492F4F:
 BYTE   N12  Cn1  v064
 BYTE   N06  Fs1
 BYTE   W12
 BYTE   N06
 BYTE   W12
 BYTE   N12  Cn1
 BYTE   N06  Fs1
 BYTE   W12
 BYTE   N06
 BYTE   W06
 BYTE   N06
 BYTE   W06
 BYTE   N12  Cn1
 BYTE   N06  Fs1
 BYTE   W06
 BYTE   N06
 BYTE   W06
 BYTE   N06
 BYTE   W12
 BYTE   N24  Cn1
 BYTE   N12  Dn1
 BYTE   N12  Ds1
 BYTE   N06  Fs1
 BYTE   W12
 BYTE   N06
 BYTE   W12
 BYTE   PEND 
// 002   ----------------------------------------
Label_7_01492F75:
 BYTE   N12  Cn1  v064
 BYTE   N06  Fs1
 BYTE   W06
 BYTE   N06
 BYTE   W06
 BYTE   N06
 BYTE   W12
 BYTE   N12  Cn1
 BYTE   N12  Dn1
 BYTE   N06  Fs1
 BYTE   W12
 BYTE   N06
 BYTE   W12
 BYTE   N12  Cn1
 BYTE   N06  Fs1
 BYTE   W06
 BYTE   N06
 BYTE   W06
 BYTE   N06
 BYTE   W12
 BYTE   N12  Cn1
 BYTE   N12  Dn1
 BYTE   N06  Fs1
 BYTE   W12
 BYTE   N06
 BYTE   W12
 BYTE   PEND 
// 003   ----------------------------------------
Label_7_01492F9B:
 BYTE   N12  Cn1  v064
 BYTE   N06  Fs1
 BYTE   W12
 BYTE   N06
 BYTE   W12
 BYTE   N12  Cn1
 BYTE   N12  Dn1
 BYTE   N06  Fs1
 BYTE   W12
 BYTE   N06
 BYTE   W06
 BYTE   N06
 BYTE   W06
 BYTE   N12  Cn1
 BYTE   N06  Fs1
 BYTE   W06
 BYTE   N06
 BYTE   W06
 BYTE   N06
 BYTE   W12
 BYTE   N12  Cn1
 BYTE   N12  Dn1
 BYTE   N12  Ds1
 BYTE   N06  Fs1
 BYTE   W12
 BYTE   Cn1
 BYTE   N06  Fs1
 BYTE   W06
 BYTE   Cn1
 BYTE   W06
 BYTE   PEND 
// 004   ----------------------------------------
Label_7_01492FC7:
 BYTE   N12  Cn1  v064
 BYTE   N06  Fs1
 BYTE   W06
 BYTE   N06
 BYTE   W06
 BYTE   N06
 BYTE   W06
 BYTE   N06
 BYTE   W06
 BYTE   Cn1
 BYTE   N12  Dn1
 BYTE   N06  Fs1
 BYTE   W06
 BYTE   N06
 BYTE   W06
 BYTE   Cn1
 BYTE   N06  Fs1
 BYTE   W06
 BYTE   Cn1
 BYTE   N06  Fs1
 BYTE   W06
 BYTE   N12  Cn1
 BYTE   N06  Fs1
 BYTE   W06
 BYTE   N06
 BYTE   W06
 BYTE   N06
 BYTE   W06
 BYTE   N06
 BYTE   W06
 BYTE   N12  Cn1
 BYTE   N12  Dn1
 BYTE   N06  Fs1
 BYTE   W06
 BYTE   N06
 BYTE   W06
 BYTE   N06
 BYTE   W06
 BYTE   N06
 BYTE   W06
 BYTE   PEND 
// 005   ----------------------------------------
Label_7_01492FFC:
 BYTE   N12  Cn1  v064
 BYTE   N06  Fs1
 BYTE   W06
 BYTE   N06
 BYTE   W06
 BYTE   N06
 BYTE   W06
 BYTE   N06
 BYTE   W06
 BYTE   Cn1
 BYTE   N12  Dn1
 BYTE   N06  Fs1
 BYTE   W06
 BYTE   N06
 BYTE   W06
 BYTE   Cn1
 BYTE   N06  Fs1
 BYTE   W06
 BYTE   Cn1
 BYTE   N06  Fs1
 BYTE   W06
 BYTE   N12  Cn1
 BYTE   N06  Fs1
 BYTE   W06
 BYTE   N06
 BYTE   W06
 BYTE   N06
 BYTE   W06
 BYTE   N06
 BYTE   W06
 BYTE   N24  Cn1
 BYTE   N24  Dn1
 BYTE   N12  Ds1
 BYTE   N06  Fs1
 BYTE   W06
 BYTE   N06
 BYTE   W06
 BYTE   N06
 BYTE   W06
 BYTE   N06
 BYTE   W06
 BYTE   PEND 
 BYTE   PATT
  POIN2 Label_7_01492FC7
 BYTE   PATT
  POIN2 Label_7_01492FFC
 BYTE   PATT
  POIN2 Label_7_01492FC7
 BYTE   PATT
  POIN2 Label_7_01492FFC
 BYTE   PATT
  POIN2 Label_7_01492FC7
 BYTE   PATT
  POIN2 Label_7_01492FFC
 BYTE   PATT
  POIN2 Label_7_01492FFC
 BYTE   PATT
  POIN2 Label_7_01492FFC
// 006   ----------------------------------------
 BYTE   N12  Cn1  v064
 BYTE   N06  Fs1
 BYTE   W06
 BYTE   N06
 BYTE   W06
 BYTE   N06
 BYTE   W12
 BYTE   N12  Cn1
 BYTE   N12  Dn1
 BYTE   N18  Ds1
 BYTE   N06  Fs1
 BYTE   W12
 BYTE   N06
 BYTE   W12
 BYTE   N12  Cn1
 BYTE   N06  Fs1
 BYTE   W06
 BYTE   N06
 BYTE   W06
 BYTE   N06
 BYTE   W12
 BYTE   N12  Cn1
 BYTE   N12  Dn1
 BYTE   N06  Fs1
 BYTE   W12
 BYTE   N06
 BYTE   W12
// 007   ----------------------------------------
Label_7_01493082:
 BYTE   N12  Cn1  v064
 BYTE   N06  Fs1
 BYTE   W12
 BYTE   N06
 BYTE   W12
 BYTE   N12  Cn1
 BYTE   N12  Dn1
 BYTE   N06  Fs1
 BYTE   W12
 BYTE   N06
 BYTE   W06
 BYTE   N06
 BYTE   W06
 BYTE   N12  Cn1
 BYTE   N06  Fs1
 BYTE   W06
 BYTE   N06
 BYTE   W06
 BYTE   N06
 BYTE   W12
 BYTE   N12  Cn1
 BYTE   N12  Dn1
 BYTE   N18  Ds1
 BYTE   N06  Fs1
 BYTE   W12
 BYTE   N06
 BYTE   W12
 BYTE   PEND 
 BYTE   PATT
  POIN2 Label_7_01492F75
 BYTE   PATT
  POIN2 Label_7_01493082
 BYTE   PATT
  POIN2 Label_7_01492F75
 BYTE   PATT
  POIN2 Label_7_01493082
 BYTE   PATT
  POIN2 Label_7_01492F75
 BYTE   PATT
  POIN2 Label_7_01492F9B
// 008   ----------------------------------------
 BYTE   N12  Cn1  v064
 BYTE   N06  Fs1
 BYTE   W12
 BYTE   N06
 BYTE   W12
 BYTE   N12  Cn1
 BYTE   N12  Dn1
 BYTE   N06  Fs1
 BYTE   W12
 BYTE   Cn1
 BYTE   N06  Fs1
 BYTE   W06
 BYTE   Cn1
 BYTE   N06  Fs1
 BYTE   W06
 BYTE   N12  Cn1
 BYTE   N06  Fs1
 BYTE   W06
 BYTE   N06
 BYTE   W06
 BYTE   N06
 BYTE   W12
 BYTE   N12  Cn1
 BYTE   N12  Dn1
 BYTE   N06  Fs1
 BYTE   W12
 BYTE   N06
 BYTE   W12
// 009   ----------------------------------------
 BYTE   N12  Cn1
 BYTE   N06  Fs1
 BYTE   W12
 BYTE   N06
 BYTE   W12
 BYTE   N12  Cn1
 BYTE   N12  Dn1
 BYTE   N06  Fs1
 BYTE   W12
 BYTE   Cn1
 BYTE   N06  Fs1
 BYTE   W06
 BYTE   Cn1
 BYTE   N06  Fs1
 BYTE   W06
 BYTE   N12  Cn1
 BYTE   N06  Fs1
 BYTE   W06
 BYTE   N06
 BYTE   W06
 BYTE   N06
 BYTE   W12
 BYTE   N12  Cn1
 BYTE   N12  Dn1
 BYTE   N12  Ds1
 BYTE   N06  Fs1
 BYTE   W12
 BYTE   N06
 BYTE   W12
// 010   ----------------------------------------
 BYTE   N12  Cn1
 BYTE   N06  Fs1
 BYTE   W06
 BYTE   N06
 BYTE   W06
 BYTE   N06
 BYTE   W12
 BYTE   N12  Cn1
 BYTE   N06  Fs1
 BYTE   W12
 BYTE   N06
 BYTE   W12
 BYTE   N12  Cn1
 BYTE   N06  Fs1
 BYTE   W06
 BYTE   N06
 BYTE   W06
 BYTE   N06
 BYTE   W12
 BYTE   N12  Cn1
 BYTE   N06  Fs1
 BYTE   W12
 BYTE   N06
 BYTE   W12
 BYTE   PATT
  POIN2 Label_7_01492F4F
// 011   ----------------------------------------
 BYTE   GoTo
  POIN2 Label_7_01492F2C
 BYTE   FINE

//******************************************************//
	ALIGN 4

PokemonXDGaleofDarknessMirorBBattleAReliableChair:
	BYTE	8	// NumTrks
	BYTE	0	// NumBlks
	BYTE	PokemonXDGaleofDarknessMirorBBattleAReliableChair_pri	// Priority
	BYTE	PokemonXDGaleofDarknessMirorBBattleAReliableChair_rev	// Reverb.
    
	POIN2	PokemonXDGaleofDarknessMirorBBattleAReliableChair_grp
    
	POIN2	PokemonXDGaleofDarknessMirorBBattleAReliableChair_001
	POIN2	PokemonXDGaleofDarknessMirorBBattleAReliableChair_002
	POIN2	PokemonXDGaleofDarknessMirorBBattleAReliableChair_003
	POIN2	PokemonXDGaleofDarknessMirorBBattleAReliableChair_004
	POIN2	PokemonXDGaleofDarknessMirorBBattleAReliableChair_005
	POIN2	PokemonXDGaleofDarknessMirorBBattleAReliableChair_006
	POIN2	PokemonXDGaleofDarknessMirorBBattleAReliableChair_007
	POIN2	PokemonXDGaleofDarknessMirorBBattleAReliableChair_008

	
