//Event file generated from Sappy .s format.
	#include "MPlayDef.event"

	#define	PokemonBWEliteFourThemeZoramineFae_grp  voicegroup000
	#define	PokemonBWEliteFourThemeZoramineFae_pri  0
	#define	PokemonBWEliteFourThemeZoramineFae_rev  0
	#define	PokemonBWEliteFourThemeZoramineFae_mvl  127
	#define	PokemonBWEliteFourThemeZoramineFae_key  0
	#define	PokemonBWEliteFourThemeZoramineFae_tbs  1
	#define	PokemonBWEliteFourThemeZoramineFae_exg  0
	#define	PokemonBWEliteFourThemeZoramineFae_cmp  1

	// .rodata
	//	PokemonBWEliteFourThemeZoramineFae
	ALIGN 4


//**************** Track 1 (Midi-Chn.0) ****************//

PokemonBWEliteFourThemeZoramineFae_001:
// 000   ----------------------------------------
 BYTE   KEYSH   PokemonBWEliteFourThemeZoramineFae_key+0
Label_0_0134F88A:
 BYTE   TEMPO   190*PokemonBWEliteFourThemeZoramineFae_tbs/2
 BYTE   VOICE   41
 BYTE   PAN   c_v+0
 BYTE   VOL   66*PokemonBWEliteFourThemeZoramineFae_mvl/mxv
 BYTE   PAN   c_v+0
 BYTE   VOL   66*PokemonBWEliteFourThemeZoramineFae_mvl/mxv
 BYTE   PAN   c_v+0
 BYTE   VOL   66*PokemonBWEliteFourThemeZoramineFae_mvl/mxv
 BYTE   PAN   c_v+0
 BYTE   VOL   66*PokemonBWEliteFourThemeZoramineFae_mvl/mxv
 BYTE   BEND   c_v+0
 BYTE   W96
// 001   ----------------------------------------
 BYTE   W96
// 002   ----------------------------------------
 BYTE   W96
// 003   ----------------------------------------
 BYTE   W72
 BYTE   N23  Fs1  v112
 BYTE   N23  Fs2
 BYTE   W24
// 004   ----------------------------------------
 BYTE   TIE  Cs2
 BYTE   TIE  Cs3
 BYTE   W96
// 005   ----------------------------------------
 BYTE   W44
 BYTE   W03
 BYTE   EOT
 BYTE   Cs2  v061
 BYTE   W48
 BYTE   W01
// 006   ----------------------------------------
 BYTE   W96
// 007   ----------------------------------------
 BYTE   W96
// 008   ----------------------------------------
 BYTE   W96
// 009   ----------------------------------------
 BYTE   W96
// 010   ----------------------------------------
 BYTE   W96
// 011   ----------------------------------------
 BYTE   W96
// 012   ----------------------------------------
 BYTE   W96
// 013   ----------------------------------------
 BYTE   W96
// 014   ----------------------------------------
 BYTE   W96
// 015   ----------------------------------------
 BYTE   W96
// 016   ----------------------------------------
 BYTE   W96
// 017   ----------------------------------------
 BYTE   W96
// 018   ----------------------------------------
 BYTE   W96
// 019   ----------------------------------------
 BYTE   W96
// 020   ----------------------------------------
 BYTE   N05  Fs2
 BYTE   W12
 BYTE   Fs2  v127
 BYTE   W24
 BYTE   N23  Gn2  v112
 BYTE   W24
 BYTE   N11  An2
 BYTE   W12
 BYTE   Gs2
 BYTE   W12
 BYTE   Gn2
 BYTE   W12
// 021   ----------------------------------------
Label_0_0134F8D5:
 BYTE   N05  Fs2  v112
 BYTE   W12
 BYTE   N05
 BYTE   W24
 BYTE   N23  Gn2
 BYTE   W24
 BYTE   N11  Bn2
 BYTE   W12
 BYTE   An2
 BYTE   W12
 BYTE   Gn2
 BYTE   W12
 BYTE   PEND 
// 022   ----------------------------------------
 BYTE   N05  Fs2
 BYTE   W12
 BYTE   N05
 BYTE   W24
 BYTE   N23  Gn2
 BYTE   W24
 BYTE   N11  An2
 BYTE   W12
 BYTE   Gs2
 BYTE   W12
 BYTE   Gn2
 BYTE   W12
 BYTE   PATT
  POIN2 Label_0_0134F8D5
// 023   ----------------------------------------
 BYTE   W96
// 024   ----------------------------------------
 BYTE   W96
// 025   ----------------------------------------
 BYTE   W96
// 026   ----------------------------------------
 BYTE   W96
// 027   ----------------------------------------
 BYTE   W96
// 028   ----------------------------------------
 BYTE   W96
// 029   ----------------------------------------
 BYTE   W96
// 030   ----------------------------------------
 BYTE   W96
// 031   ----------------------------------------
 BYTE   W96
// 032   ----------------------------------------
 BYTE   W96
// 033   ----------------------------------------
 BYTE   W96
// 034   ----------------------------------------
 BYTE   W96
// 035   ----------------------------------------
 BYTE   W96
// 036   ----------------------------------------
 BYTE   W96
// 037   ----------------------------------------
 BYTE   W96
// 038   ----------------------------------------
 BYTE   W96
// 039   ----------------------------------------
 BYTE   W96
// 040   ----------------------------------------
 BYTE   W96
// 041   ----------------------------------------
 BYTE   W96
// 042   ----------------------------------------
 BYTE   W96
// 043   ----------------------------------------
 BYTE   W96
// 044   ----------------------------------------
 BYTE   W96
// 045   ----------------------------------------
 BYTE   W96
// 046   ----------------------------------------
 BYTE   W96
// 047   ----------------------------------------
 BYTE   W96
// 048   ----------------------------------------
 BYTE   W96
// 049   ----------------------------------------
 BYTE   W96
// 050   ----------------------------------------
 BYTE   W96
// 051   ----------------------------------------
 BYTE   W96
// 052   ----------------------------------------
 BYTE   W96
// 053   ----------------------------------------
 BYTE   W96
// 054   ----------------------------------------
 BYTE   W96
// 055   ----------------------------------------
 BYTE   W96
// 056   ----------------------------------------
 BYTE   W96
// 057   ----------------------------------------
 BYTE   W96
// 058   ----------------------------------------
 BYTE   W96
// 059   ----------------------------------------
 BYTE   W96
// 060   ----------------------------------------
 BYTE   W96
// 061   ----------------------------------------
 BYTE   W96
// 062   ----------------------------------------
 BYTE   W96
// 063   ----------------------------------------
 BYTE   W96
// 064   ----------------------------------------
 BYTE   W96
// 065   ----------------------------------------
 BYTE   W96
// 066   ----------------------------------------
 BYTE   W96
// 067   ----------------------------------------
 BYTE   W96
// 068   ----------------------------------------
 BYTE   W96
// 069   ----------------------------------------
 BYTE   GoTo
  POIN2 Label_0_0134F88A
// 070   ----------------------------------------
 BYTE   W96
// 071   ----------------------------------------
 BYTE   W96
// 072   ----------------------------------------
 BYTE   W96
// 073   ----------------------------------------
 BYTE   W96
// 074   ----------------------------------------
 BYTE   VOICE   41
 BYTE   PAN   c_v+0
 BYTE   VOL   66*PokemonBWEliteFourThemeZoramineFae_mvl/mxv
 BYTE   PAN   c_v+0
 BYTE   VOL   66*PokemonBWEliteFourThemeZoramineFae_mvl/mxv
 BYTE   PAN   c_v+0
 BYTE   VOL   66*PokemonBWEliteFourThemeZoramineFae_mvl/mxv
 BYTE   BEND   c_v+0
 BYTE   FINE

//**************** Track 2 (Midi-Chn.1) ****************//

PokemonBWEliteFourThemeZoramineFae_002:
// 000   ----------------------------------------
 BYTE   KEYSH   PokemonBWEliteFourThemeZoramineFae_key+0
Label_1_0134F946:
 BYTE   VOICE   41
 BYTE   PAN   c_v+0
 BYTE   VOL   56*PokemonBWEliteFourThemeZoramineFae_mvl/mxv
 BYTE   PAN   c_v+0
 BYTE   VOL   56*PokemonBWEliteFourThemeZoramineFae_mvl/mxv
 BYTE   PAN   c_v+0
 BYTE   VOL   56*PokemonBWEliteFourThemeZoramineFae_mvl/mxv
 BYTE   PAN   c_v+0
 BYTE   VOL   56*PokemonBWEliteFourThemeZoramineFae_mvl/mxv
 BYTE   BEND   c_v+0
 BYTE   W96
// 001   ----------------------------------------
 BYTE   W96
// 002   ----------------------------------------
 BYTE   W96
// 003   ----------------------------------------
 BYTE   W96
// 004   ----------------------------------------
 BYTE   W96
// 005   ----------------------------------------
 BYTE   W96
// 006   ----------------------------------------
 BYTE   W96
// 007   ----------------------------------------
 BYTE   W96
// 008   ----------------------------------------
 BYTE   W96
// 009   ----------------------------------------
 BYTE   W96
// 010   ----------------------------------------
 BYTE   W96
// 011   ----------------------------------------
 BYTE   W84
 BYTE   N02  Fs4  v080
 BYTE   W03
 BYTE   En4  v076
 BYTE   W03
 BYTE   Dn4  v072
 BYTE   W03
 BYTE   Bn3  v068
 BYTE   W03
// 012   ----------------------------------------
 BYTE   N05  Fs3  v127
 BYTE   W12
 BYTE   Cs3  v068
 BYTE   W12
 BYTE   Fs3  v100
 BYTE   W12
 BYTE   Cs4
 BYTE   W36
 BYTE   As3
 BYTE   W24
// 013   ----------------------------------------
Label_1_0134F981:
 BYTE   N05  Cn4  v100
 BYTE   W36
 BYTE   Fs4
 BYTE   W60
 BYTE   PEND 
// 014   ----------------------------------------
Label_1_0134F988:
 BYTE   N05  Fs3  v100
 BYTE   W12
 BYTE   Cs3  v068
 BYTE   W12
 BYTE   Fs3  v100
 BYTE   W12
 BYTE   Cs4
 BYTE   W36
 BYTE   As3
 BYTE   W24
 BYTE   PEND 
// 015   ----------------------------------------
Label_1_0134F997:
 BYTE   N05  An3  v100
 BYTE   W36
 BYTE   Fs3
 BYTE   W60
 BYTE   PEND 
// 016   ----------------------------------------
Label_1_0134F99E:
 BYTE   N05  Fs4  v100
 BYTE   W12
 BYTE   Cs4  v068
 BYTE   W12
 BYTE   Fs4  v100
 BYTE   W12
 BYTE   Cs5
 BYTE   W36
 BYTE   As4
 BYTE   W24
 BYTE   PEND 
// 017   ----------------------------------------
 BYTE   Cn5
 BYTE   W96
 BYTE   PATT
  POIN2 Label_1_0134F99E
// 018   ----------------------------------------
 BYTE   N05  An4  v100
 BYTE   W36
 BYTE   Fs4
 BYTE   W60
// 019   ----------------------------------------
 BYTE   W96
// 020   ----------------------------------------
 BYTE   W96
// 021   ----------------------------------------
 BYTE   W96
// 022   ----------------------------------------
 BYTE   W96
// 023   ----------------------------------------
 BYTE   W96
// 024   ----------------------------------------
 BYTE   W96
// 025   ----------------------------------------
 BYTE   W96
// 026   ----------------------------------------
 BYTE   W96
// 027   ----------------------------------------
 BYTE   W96
// 028   ----------------------------------------
 BYTE   W96
// 029   ----------------------------------------
 BYTE   W96
// 030   ----------------------------------------
 BYTE   W96
// 031   ----------------------------------------
 BYTE   W96
// 032   ----------------------------------------
 BYTE   W96
// 033   ----------------------------------------
 BYTE   W96
// 034   ----------------------------------------
 BYTE   W96
// 035   ----------------------------------------
 BYTE   W96
// 036   ----------------------------------------
 BYTE   W96
// 037   ----------------------------------------
 BYTE   W96
// 038   ----------------------------------------
 BYTE   W96
// 039   ----------------------------------------
 BYTE   W96
// 040   ----------------------------------------
 BYTE   W96
// 041   ----------------------------------------
 BYTE   W96
// 042   ----------------------------------------
 BYTE   W96
// 043   ----------------------------------------
 BYTE   W96
// 044   ----------------------------------------
 BYTE   W96
// 045   ----------------------------------------
 BYTE   W96
// 046   ----------------------------------------
 BYTE   W96
// 047   ----------------------------------------
 BYTE   W96
// 048   ----------------------------------------
 BYTE   W96
// 049   ----------------------------------------
 BYTE   W96
// 050   ----------------------------------------
 BYTE   W96
// 051   ----------------------------------------
 BYTE   W96
// 052   ----------------------------------------
 BYTE   W96
// 053   ----------------------------------------
 BYTE   W96
// 054   ----------------------------------------
 BYTE   W96
// 055   ----------------------------------------
 BYTE   W96
// 056   ----------------------------------------
 BYTE   W96
// 057   ----------------------------------------
 BYTE   W96
// 058   ----------------------------------------
 BYTE   W96
// 059   ----------------------------------------
 BYTE   W96
// 060   ----------------------------------------
 BYTE   W96
// 061   ----------------------------------------
 BYTE   W96
// 062   ----------------------------------------
 BYTE   W96
// 063   ----------------------------------------
 BYTE   W96
// 064   ----------------------------------------
 BYTE   W96
// 065   ----------------------------------------
 BYTE   W96
// 066   ----------------------------------------
 BYTE   W96
// 067   ----------------------------------------
 BYTE   W96
// 068   ----------------------------------------
 BYTE   W72
 BYTE   Bn2  v068
 BYTE   W06
 BYTE   Dn3
 BYTE   W06
 BYTE   Fn3
 BYTE   W06
 BYTE   Gs3
 BYTE   W06
// 069   ----------------------------------------
 BYTE   GoTo
  POIN2 Label_1_0134F946
// 070   ----------------------------------------
 BYTE   N05  Fs3  v068
 BYTE   W12
 BYTE   Cs3
 BYTE   W12
 BYTE   Fs3  v100
 BYTE   W12
 BYTE   Cs4
 BYTE   W36
 BYTE   As3
 BYTE   W24
 BYTE   PATT
  POIN2 Label_1_0134F981
 BYTE   PATT
  POIN2 Label_1_0134F988
 BYTE   PATT
  POIN2 Label_1_0134F997
// 071   ----------------------------------------
 BYTE   VOICE   41
 BYTE   PAN   c_v+0
 BYTE   VOL   56*PokemonBWEliteFourThemeZoramineFae_mvl/mxv
 BYTE   PAN   c_v+0
 BYTE   VOL   56*PokemonBWEliteFourThemeZoramineFae_mvl/mxv
 BYTE   PAN   c_v+0
 BYTE   VOL   56*PokemonBWEliteFourThemeZoramineFae_mvl/mxv
 BYTE   BEND   c_v+0
 BYTE   FINE

//**************** Track 3 (Midi-Chn.2) ****************//

PokemonBWEliteFourThemeZoramineFae_003:
// 000   ----------------------------------------
 BYTE   KEYSH   PokemonBWEliteFourThemeZoramineFae_key+0
Label_2_0134FA2A:
 BYTE   VOICE   29
 BYTE   PAN   c_v+0
 BYTE   VOL   49*PokemonBWEliteFourThemeZoramineFae_mvl/mxv
 BYTE   An5  v080
 BYTE   En6  v100
 BYTE   En6  v100
 BYTE   BEND   c_v+0
 BYTE   W96
// 001   ----------------------------------------
 BYTE   W96
// 002   ----------------------------------------
 BYTE   W96
// 003   ----------------------------------------
 BYTE   W96
// 004   ----------------------------------------
 BYTE   W96
// 005   ----------------------------------------
 BYTE   W96
// 006   ----------------------------------------
 BYTE   W96
// 007   ----------------------------------------
 BYTE   W96
// 008   ----------------------------------------
 BYTE   W96
// 009   ----------------------------------------
 BYTE   W96
// 010   ----------------------------------------
 BYTE   W96
// 011   ----------------------------------------
 BYTE   W84
 BYTE   N02  Cs4  v088
 BYTE   N02  Cs5
 BYTE   W03
 BYTE   Bn3  v084
 BYTE   N02  Bn4
 BYTE   W03
 BYTE   An3  v076
 BYTE   N02  An4
 BYTE   W03
 BYTE   Gn3
 BYTE   N02  Gn4
 BYTE   W03
// 012   ----------------------------------------
Label_2_0134FA58:
 BYTE   VOL   49*PokemonBWEliteFourThemeZoramineFae_mvl/mxv
 BYTE   N32  Fs3  v112
 BYTE   N32  Fs4
 BYTE   W36
 BYTE   Cs4
 BYTE   N32  Cs5
 BYTE   W36
 BYTE   N23  As3
 BYTE   N23  As4
 BYTE   W24
 BYTE   PEND 
// 013   ----------------------------------------
Label_2_0134FA6A:
 BYTE   N32  Cn4  v112
 BYTE   N32  Cn5
 BYTE   W36
 BYTE   N56  Fs4
 BYTE   N56  Fs5
 BYTE   W36
 BYTE   VOL   46*PokemonBWEliteFourThemeZoramineFae_mvl/mxv
 BYTE   W06
 BYTE   Cn5
 BYTE   W06
 BYTE   Gs4
 BYTE   W06
 BYTE   Cn4
 BYTE   W06
 BYTE   PEND 
 BYTE   PATT
  POIN2 Label_2_0134FA58
// 014   ----------------------------------------
Label_2_0134FA84:
 BYTE   N32  An3  v112
 BYTE   N32  An4
 BYTE   W36
 BYTE   N56  Fs3
 BYTE   N56  Fs4
 BYTE   W36
 BYTE   VOL   46*PokemonBWEliteFourThemeZoramineFae_mvl/mxv
 BYTE   W06
 BYTE   Cn5
 BYTE   W06
 BYTE   Gs4
 BYTE   W06
 BYTE   Cn4
 BYTE   W06
 BYTE   PEND 
// 015   ----------------------------------------
Label_2_0134FA99:
 BYTE   VOL   49*PokemonBWEliteFourThemeZoramineFae_mvl/mxv
 BYTE   N32  Fs4  v100
 BYTE   N32  Fs5
 BYTE   W36
 BYTE   Cs5
 BYTE   N32  Cs6
 BYTE   W36
 BYTE   N23  As4
 BYTE   N23  As5
 BYTE   W24
 BYTE   PEND 
// 016   ----------------------------------------
 BYTE   N32  Cn5
 BYTE   N32  Cn6
 BYTE   W36
 BYTE   N56  Fs5
 BYTE   N56  Fs6
 BYTE   W36
 BYTE   VOL   46*PokemonBWEliteFourThemeZoramineFae_mvl/mxv
 BYTE   W06
 BYTE   Cn5
 BYTE   W06
 BYTE   Gs4
 BYTE   W06
 BYTE   Cn4
 BYTE   W06
 BYTE   PATT
  POIN2 Label_2_0134FA99
// 017   ----------------------------------------
 BYTE   N32  An4  v100
 BYTE   N32  An5
 BYTE   W36
 BYTE   N56  Fs4
 BYTE   N56  Fs5
 BYTE   W36
 BYTE   VOL   46*PokemonBWEliteFourThemeZoramineFae_mvl/mxv
 BYTE   W06
 BYTE   Cn5
 BYTE   W06
 BYTE   Gs4
 BYTE   W06
 BYTE   Cn4
 BYTE   W06
// 018   ----------------------------------------
 BYTE   An5
 BYTE   N05  Fs3  v112
 BYTE   N05  Fs4
 BYTE   W12
 BYTE   Fs3
 BYTE   N05  Fs4
 BYTE   W24
 BYTE   N23  Gn3
 BYTE   N23  Gn4
 BYTE   W24
 BYTE   N11  An3
 BYTE   N11  An4
 BYTE   W12
 BYTE   Gs3
 BYTE   N11  Gs4
 BYTE   W12
 BYTE   Gn3
 BYTE   N11  Gn4
 BYTE   W12
// 019   ----------------------------------------
Label_2_0134FAF4:
 BYTE   N05  Fs3  v112
 BYTE   N05  Fs4
 BYTE   W12
 BYTE   Fs3
 BYTE   N05  Fs4
 BYTE   W24
 BYTE   N23  Gn3
 BYTE   N23  Gn4
 BYTE   W24
 BYTE   N11  Bn3
 BYTE   N11  Bn4
 BYTE   W12
 BYTE   An3
 BYTE   N11  An4
 BYTE   W12
 BYTE   Gn3
 BYTE   N11  Gn4
 BYTE   W12
 BYTE   PEND 
// 020   ----------------------------------------
 BYTE   N05  Fs3
 BYTE   N05  Fs4
 BYTE   W12
 BYTE   Fs3
 BYTE   N05  Fs4
 BYTE   W24
 BYTE   N23  Gn3
 BYTE   N23  Gn4
 BYTE   W24
 BYTE   N11  An3
 BYTE   N11  An4
 BYTE   W12
 BYTE   Gs3
 BYTE   N11  Gs4
 BYTE   W12
 BYTE   Gn3
 BYTE   N11  Gn4
 BYTE   W12
 BYTE   PATT
  POIN2 Label_2_0134FAF4
// 021   ----------------------------------------
 BYTE   N32  Fs3  v112
 BYTE   W36
 BYTE   Cs3
 BYTE   N32  Cs4
 BYTE   W36
 BYTE   N23  As2
 BYTE   N23  As3
 BYTE   W24
// 022   ----------------------------------------
 BYTE   N32  Cn3
 BYTE   N32  Cn4
 BYTE   W36
 BYTE   N56  Fs3
 BYTE   N56  Fs4
 BYTE   W36
 BYTE   VOL   46*PokemonBWEliteFourThemeZoramineFae_mvl/mxv
 BYTE   W06
 BYTE   Cn5
 BYTE   W06
 BYTE   Gs4
 BYTE   W06
 BYTE   Cn4
 BYTE   W06
// 023   ----------------------------------------
 BYTE   An5
 BYTE   N32  Fs2
 BYTE   N32  Fs3
 BYTE   W36
 BYTE   Cs3
 BYTE   N32  Cs4
 BYTE   W36
 BYTE   N23  As2
 BYTE   N23  As3
 BYTE   W24
// 024   ----------------------------------------
 BYTE   N32  An2
 BYTE   N32  An3
 BYTE   W36
 BYTE   N56  Fs2
 BYTE   N56  Fs3
 BYTE   W36
 BYTE   VOL   46*PokemonBWEliteFourThemeZoramineFae_mvl/mxv
 BYTE   W06
 BYTE   Cn5
 BYTE   W06
 BYTE   Gs4
 BYTE   W06
 BYTE   Cn4
 BYTE   W06
 BYTE   PATT
  POIN2 Label_2_0134FA58
 BYTE   PATT
  POIN2 Label_2_0134FA6A
 BYTE   PATT
  POIN2 Label_2_0134FA58
// 025   ----------------------------------------
 BYTE   N32  An3  v112
 BYTE   N32  An4
 BYTE   W36
 BYTE   N56  An3
 BYTE   N56  An4
 BYTE   W36
 BYTE   VOL   46*PokemonBWEliteFourThemeZoramineFae_mvl/mxv
 BYTE   W06
 BYTE   Cn5
 BYTE   W06
 BYTE   Gs4
 BYTE   W06
 BYTE   Cn4
 BYTE   W06
// 026   ----------------------------------------
 BYTE   An5
 BYTE   N05  Fs3
 BYTE   N05  Fs4
 BYTE   N05  Fs5
 BYTE   W12
 BYTE   Fs3
 BYTE   N05  Fs4
 BYTE   N05  Fs5
 BYTE   W24
 BYTE   N56  En3
 BYTE   TIE  En4
 BYTE   TIE  En5
 BYTE   W60
// 027   ----------------------------------------
 BYTE   W92
 BYTE   W03
 BYTE   EOT
 BYTE   En4  v088
 BYTE   W01
// 028   ----------------------------------------
 BYTE   N05  Fs3
 BYTE   N05  Fs4
 BYTE   N05  Fs5
 BYTE   W12
 BYTE   Fs3
 BYTE   N05  Fs4
 BYTE   N05  Fs5
 BYTE   W24
 BYTE   N56  Gn3
 BYTE   TIE  Gn4
 BYTE   TIE  Gn5
 BYTE   W60
// 029   ----------------------------------------
 BYTE   W92
 BYTE   W03
 BYTE   EOT
 BYTE   Gn4  v091
 BYTE   W01
// 030   ----------------------------------------
 BYTE   VOL   56*PokemonBWEliteFourThemeZoramineFae_mvl/mxv
 BYTE   W96
// 031   ----------------------------------------
 BYTE   W60
 BYTE   N11  Dn3
 BYTE   W24
 BYTE   N56  En3
 BYTE   W12
// 032   ----------------------------------------
 BYTE   W96
// 033   ----------------------------------------
 BYTE   W60
 BYTE   N11  An3
 BYTE   W24
 BYTE   N09  Bn3
 BYTE   W12
// 034   ----------------------------------------
 BYTE   Bn3  v096
 BYTE   W12
 BYTE   Bn3  v080
 BYTE   W12
 BYTE   N08  Bn3  v060
 BYTE   W72
// 035   ----------------------------------------
 BYTE   W72
 BYTE   N11  Dn3  v112
 BYTE   W12
 BYTE   N80  En3
 BYTE   W12
// 036   ----------------------------------------
 BYTE   W96
// 037   ----------------------------------------
 BYTE   W96
// 038   ----------------------------------------
 BYTE   W96
// 039   ----------------------------------------
 BYTE   W72
 BYTE   VOL   63*PokemonBWEliteFourThemeZoramineFae_mvl/mxv
 BYTE   W24
// 040   ----------------------------------------
 BYTE   As6
 BYTE   W96
// 041   ----------------------------------------
Label_2_0134FBF8:
 BYTE   W48
 BYTE   VOL   60*PokemonBWEliteFourThemeZoramineFae_mvl/mxv
 BYTE   W12
 BYTE   En6
 BYTE   W12
 BYTE   As6
 BYTE   W24
 BYTE   PEND 
// 042   ----------------------------------------
 BYTE   W96
// 043   ----------------------------------------
Label_2_0134FC02:
 BYTE   W60
 BYTE   VOL   60*PokemonBWEliteFourThemeZoramineFae_mvl/mxv
 BYTE   W12
 BYTE   En6
 BYTE   W12
 BYTE   As6
 BYTE   W12
 BYTE   PEND 
// 044   ----------------------------------------
 BYTE   W96
// 045   ----------------------------------------
 BYTE   W12
 BYTE   Gs6
 BYTE   W12
 BYTE   Gn6
 BYTE   W12
 BYTE   Fs6
 BYTE   W12
 BYTE   Fn6
 BYTE   W12
 BYTE   Ds6
 BYTE   W12
 BYTE   Dn6
 BYTE   W15
 BYTE   As6
 BYTE   W09
// 046   ----------------------------------------
 BYTE   W96
// 047   ----------------------------------------
Label_2_0134FC1C:
 BYTE   W21
 BYTE   VOL   60*PokemonBWEliteFourThemeZoramineFae_mvl/mxv
 BYTE   W12
 BYTE   Gn6
 BYTE   W12
 BYTE   Fs6
 BYTE   W12
 BYTE   Fn6
 BYTE   W12
 BYTE   Ds6
 BYTE   W12
 BYTE   Dn6
 BYTE   W15
 BYTE   PEND 
// 048   ----------------------------------------
 BYTE   As6
 BYTE   W96
 BYTE   PATT
  POIN2 Label_2_0134FBF8
// 049   ----------------------------------------
 BYTE   W96
 BYTE   PATT
  POIN2 Label_2_0134FC02
// 050   ----------------------------------------
 BYTE   W96
// 051   ----------------------------------------
 BYTE   W12
 BYTE   VOL   60*PokemonBWEliteFourThemeZoramineFae_mvl/mxv
 BYTE   W12
 BYTE   Gn6
 BYTE   W12
 BYTE   Fs6
 BYTE   W12
 BYTE   Fn6
 BYTE   W12
 BYTE   Ds6
 BYTE   W12
 BYTE   Dn6
 BYTE   W12
 BYTE   As6
 BYTE   W12
// 052   ----------------------------------------
 BYTE   W96
 BYTE   PATT
  POIN2 Label_2_0134FC1C
// 053   ----------------------------------------
 BYTE   VOL   71*PokemonBWEliteFourThemeZoramineFae_mvl/mxv
 BYTE   N11  Bn3  v112
 BYTE   N11  Bn4
 BYTE   W36
 BYTE   N32  As3
 BYTE   N32  As4
 BYTE   W36
 BYTE   N23  Gs3
 BYTE   N23  Gs4
 BYTE   W24
// 054   ----------------------------------------
 BYTE   N11  As3
 BYTE   N11  As4
 BYTE   W36
 BYTE   N32  Gs3
 BYTE   N32  Gs4
 BYTE   W36
 BYTE   N23  Fs3
 BYTE   N23  Fs4
 BYTE   W24
// 055   ----------------------------------------
 BYTE   N11  Gs3
 BYTE   N11  Gs4
 BYTE   W36
 BYTE   N32  Fs3
 BYTE   N32  Fs4
 BYTE   W36
 BYTE   N23  Fn3
 BYTE   N23  Fn4
 BYTE   W24
// 056   ----------------------------------------
 BYTE   N11  Fs3
 BYTE   N11  Fs4
 BYTE   W12
 BYTE   N05  Cs3
 BYTE   N05  Cs4
 BYTE   W24
 BYTE   N23  Gs3
 BYTE   N23  Gs4
 BYTE   W24
 BYTE   N32  As3
 BYTE   N32  As4
 BYTE   W36
// 057   ----------------------------------------
 BYTE   Bn3
 BYTE   N32  Bn4
 BYTE   W36
 BYTE   Cs4
 BYTE   N32  Cs5
 BYTE   W36
 BYTE   N23  Bn3
 BYTE   N23  Bn4
 BYTE   W24
// 058   ----------------------------------------
 BYTE   N32  As3
 BYTE   N32  As4
 BYTE   W36
 BYTE   Bn3
 BYTE   N32  Bn4
 BYTE   W36
 BYTE   N23  As3
 BYTE   N23  As4
 BYTE   W24
// 059   ----------------------------------------
 BYTE   N32  Gs3
 BYTE   N32  Gs4
 BYTE   W36
 BYTE   Fs3
 BYTE   N32  Fs4
 BYTE   W36
 BYTE   N23  Fn3
 BYTE   N23  Fn4
 BYTE   W24
// 060   ----------------------------------------
 BYTE   N11  Fs3
 BYTE   N11  Fs4
 BYTE   W36
 BYTE   N32  As2
 BYTE   N32  Fn3
 BYTE   N32  Fn4
 BYTE   W36
 BYTE   N05  Bn2  v084
 BYTE   N05  Bn3
 BYTE   W06
 BYTE   Dn3  v092
 BYTE   N05  Dn4
 BYTE   W06
 BYTE   Fn3  v096
 BYTE   N05  Fn4
 BYTE   W06
 BYTE   Gs3  v100
 BYTE   N05  Gs4
 BYTE   W06
// 061   ----------------------------------------
 BYTE   GoTo
  POIN2 Label_2_0134FA2A
 BYTE   PATT
  POIN2 Label_2_0134FA58
 BYTE   PATT
  POIN2 Label_2_0134FA6A
 BYTE   PATT
  POIN2 Label_2_0134FA58
 BYTE   PATT
  POIN2 Label_2_0134FA84
// 062   ----------------------------------------
 BYTE   VOICE   29
 BYTE   VOL   28*PokemonBWEliteFourThemeZoramineFae_mvl/mxv
 BYTE   En6  v072
 BYTE   Cn4  v100
 BYTE   En6
 BYTE   BEND   c_v+0
 BYTE   FINE

//**************** Track 4 (Midi-Chn.3) ****************//

PokemonBWEliteFourThemeZoramineFae_004:
// 000   ----------------------------------------
 BYTE   KEYSH   PokemonBWEliteFourThemeZoramineFae_key+0
Label_3_0134FD06:
 BYTE   VOICE   35
 BYTE   PAN   c_v+0
 BYTE   VOL   56*PokemonBWEliteFourThemeZoramineFae_mvl/mxv
 BYTE   PAN   c_v+0
 BYTE   VOL   56*PokemonBWEliteFourThemeZoramineFae_mvl/mxv
 BYTE   PAN   c_v+0
 BYTE   VOL   56*PokemonBWEliteFourThemeZoramineFae_mvl/mxv
 BYTE   PAN   c_v+0
 BYTE   VOL   56*PokemonBWEliteFourThemeZoramineFae_mvl/mxv
 BYTE   PAN   c_v+20
 BYTE   VOL   36*PokemonBWEliteFourThemeZoramineFae_mvl/mxv
 BYTE   PAN   c_v+20
 BYTE   VOL   36*PokemonBWEliteFourThemeZoramineFae_mvl/mxv
 BYTE   PAN   c_v+20
 BYTE   VOL   16*PokemonBWEliteFourThemeZoramineFae_mvl/mxv
 BYTE   PAN   c_v+0
 BYTE   En3
 BYTE   VOL   16*PokemonBWEliteFourThemeZoramineFae_mvl/mxv
 BYTE   PAN   c_v+0
 BYTE   BEND   c_v+0
 BYTE   W96
// 001   ----------------------------------------
 BYTE   W96
// 002   ----------------------------------------
 BYTE   W96
// 003   ----------------------------------------
 BYTE   W96
// 004   ----------------------------------------
 BYTE   W96
// 005   ----------------------------------------
 BYTE   W96
// 006   ----------------------------------------
 BYTE   W96
// 007   ----------------------------------------
 BYTE   W96
// 008   ----------------------------------------
 BYTE   W96
// 009   ----------------------------------------
 BYTE   W96
// 010   ----------------------------------------
 BYTE   W96
// 011   ----------------------------------------
 BYTE   W72
 BYTE   VOL   41*PokemonBWEliteFourThemeZoramineFae_mvl/mxv
 BYTE   W24
// 012   ----------------------------------------
 BYTE   Dn5
 BYTE   PAN   c_v+10
 BYTE   W96
// 013   ----------------------------------------
 BYTE   W96
// 014   ----------------------------------------
 BYTE   W96
// 015   ----------------------------------------
 BYTE   W96
// 016   ----------------------------------------
 BYTE   W96
// 017   ----------------------------------------
 BYTE   W96
// 018   ----------------------------------------
 BYTE   W96
// 019   ----------------------------------------
 BYTE   W96
// 020   ----------------------------------------
 BYTE   Cn5
 BYTE   VOL   71*PokemonBWEliteFourThemeZoramineFae_mvl/mxv
 BYTE   N08  Fs1  v124
 BYTE   W12
 BYTE   N32  Cn1  v100
 BYTE   W84
// 021   ----------------------------------------
 BYTE   N08  Fs1  v124
 BYTE   W12
 BYTE   N32  Cn1  v100
 BYTE   W84
// 022   ----------------------------------------
 BYTE   N08  Fs1  v124
 BYTE   W11
 BYTE   N32  Cs1  v100
 BYTE   W84
 BYTE   W01
// 023   ----------------------------------------
 BYTE   N08  Fs1  v127
 BYTE   W12
 BYTE   N32  Cs1  v100
 BYTE   W84
// 024   ----------------------------------------
 BYTE   VOL   36*PokemonBWEliteFourThemeZoramineFae_mvl/mxv
 BYTE   W96
// 025   ----------------------------------------
Label_3_0134FD6E:
 BYTE   W48
 BYTE   VOL   71*PokemonBWEliteFourThemeZoramineFae_mvl/mxv
 BYTE   W24
 BYTE   En4
 BYTE   W06
 BYTE   Cs4
 BYTE   W06
 BYTE   As3
 BYTE   W06
 BYTE   Fs3
 BYTE   W06
 BYTE   PEND 
// 026   ----------------------------------------
 BYTE   Gs4
 BYTE   W96
 BYTE   PATT
  POIN2 Label_3_0134FD6E
// 027   ----------------------------------------
 BYTE   VOL   36*PokemonBWEliteFourThemeZoramineFae_mvl/mxv
 BYTE   W96
// 028   ----------------------------------------
Label_3_0134FD85:
 BYTE   W72
 BYTE   VOL   32*PokemonBWEliteFourThemeZoramineFae_mvl/mxv
 BYTE   W06
 BYTE   Cs4
 BYTE   W06
 BYTE   As3
 BYTE   W06
 BYTE   Fs3
 BYTE   W06
 BYTE   PEND 
// 029   ----------------------------------------
 BYTE   Gs4
 BYTE   W96
 BYTE   PATT
  POIN2 Label_3_0134FD85
// 030   ----------------------------------------
 BYTE   PAN   c_v-18
 BYTE   VOL   60*PokemonBWEliteFourThemeZoramineFae_mvl/mxv
 BYTE   W96
// 031   ----------------------------------------
 BYTE   W96
// 032   ----------------------------------------
 BYTE   PAN   c_v+24
 BYTE   W96
// 033   ----------------------------------------
 BYTE   W96
// 034   ----------------------------------------
 BYTE   N11  Fs3  v127
 BYTE   N11  Cs4
 BYTE   N11  Fs4
 BYTE   W24
 BYTE   N23  Gn3  v112
 BYTE   N23  Dn4
 BYTE   N23  Gn4
 BYTE   W24
 BYTE   An3  v124
 BYTE   N23  En4
 BYTE   N23  An4
 BYTE   W24
 BYTE   Gn3  v112
 BYTE   N23  Dn4
 BYTE   N23  Gn4
 BYTE   W24
// 035   ----------------------------------------
 BYTE   N11  Fs3  v127
 BYTE   N11  Cs4
 BYTE   N11  Fs4
 BYTE   W24
 BYTE   N23  Gn3  v112
 BYTE   N23  Dn4
 BYTE   N23  Gn4
 BYTE   W24
 BYTE   PAN   c_v+35
 BYTE   N23  An3  v127
 BYTE   N23  En4
 BYTE   N23  An4
 BYTE   W24
 BYTE   Gn3  v112
 BYTE   N23  Dn4
 BYTE   N23  Gn4
 BYTE   W24
// 036   ----------------------------------------
 BYTE   N11  Bn3  v127
 BYTE   N11  Fs4
 BYTE   N11  Bn4
 BYTE   W24
 BYTE   N23  Cn4  v112
 BYTE   N23  Gn4
 BYTE   N23  Cn5
 BYTE   W24
 BYTE   Dn4  v127
 BYTE   N23  An4
 BYTE   N23  Dn5
 BYTE   W24
 BYTE   Cn4  v112
 BYTE   N23  Gn4
 BYTE   N23  Cn5
 BYTE   W24
// 037   ----------------------------------------
Label_3_0134FDFE:
 BYTE   N11  Bn3  v127
 BYTE   N11  Fs4
 BYTE   N11  Bn4
 BYTE   W24
 BYTE   N23  Cn4  v112
 BYTE   N23  Gn4
 BYTE   N23  Cn5
 BYTE   W24
 BYTE   Dn4
 BYTE   N23  An4
 BYTE   N23  Dn5
 BYTE   W24
 BYTE   Cn4
 BYTE   N23  Gn4
 BYTE   N23  Cn5
 BYTE   W24
 BYTE   PEND 
 BYTE   PATT
  POIN2 Label_3_0134FDFE
// 038   ----------------------------------------
 BYTE   N11  Bn3  v127
 BYTE   N11  Fs4
 BYTE   N11  Bn4
 BYTE   W24
 BYTE   N23  Cn4  v112
 BYTE   N23  Gn4
 BYTE   N23  Cn5
 BYTE   W24
 BYTE   Dn4
 BYTE   N23  An4
 BYTE   N23  Dn5
 BYTE   W24
 BYTE   En4
 BYTE   N23  Bn4
 BYTE   N23  En5
 BYTE   W24
// 039   ----------------------------------------
 BYTE   W96
// 040   ----------------------------------------
 BYTE   W96
// 041   ----------------------------------------
 BYTE   W96
// 042   ----------------------------------------
 BYTE   W60
 BYTE   N02  Bn4  v016
 BYTE   W12
 BYTE   N05  Bn3  v116
 BYTE   N05  Bn4
 BYTE   W06
 BYTE   N02  Gn3  v112
 BYTE   N02  Gn4
 BYTE   W06
 BYTE   N05  En3  v127
 BYTE   N05  En4
 BYTE   W06
 BYTE   N02  Cs3  v124
 BYTE   N02  Cs4
 BYTE   W06
// 043   ----------------------------------------
 BYTE   N32  Fs2  v127
 BYTE   N32  Fs3
 BYTE   W36
 BYTE   Cs3  v112
 BYTE   N32  Cs4
 BYTE   W36
 BYTE   N23  Fs3
 BYTE   N23  Fs4
 BYTE   W24
// 044   ----------------------------------------
 BYTE   N68  Gn3
 BYTE   N68  Gn4
 BYTE   W72
 BYTE   N11  Fs3
 BYTE   N11  Fs4
 BYTE   W24
// 045   ----------------------------------------
 BYTE   N23  En3
 BYTE   N23  En4
 BYTE   W24
 BYTE   N11  Dn3
 BYTE   N11  Dn4
 BYTE   W24
 BYTE   N23  Cs3
 BYTE   N23  Cs4
 BYTE   W24
 BYTE   N11  Bn2
 BYTE   N11  Bn3
 BYTE   W24
// 046   ----------------------------------------
 BYTE   N80  As2
 BYTE   N80  As3
 BYTE   W84
 BYTE   N11  Fs3
 BYTE   N11  Fs4
 BYTE   W12
// 047   ----------------------------------------
 BYTE   TIE  En3
 BYTE   TIE  En4
 BYTE   W96
// 048   ----------------------------------------
 BYTE   W80
 BYTE   W03
 BYTE   EOT
 BYTE   En3  v076
 BYTE   W01
 BYTE   N11  Fn3
 BYTE   N11  Fn4
 BYTE   W12
// 049   ----------------------------------------
 BYTE   TIE  Fs3
 BYTE   TIE  Fs4
 BYTE   W96
// 050   ----------------------------------------
 BYTE   W92
 BYTE   W03
 BYTE   EOT
 BYTE   Fs3  v078
 BYTE   W01
// 051   ----------------------------------------
 BYTE   N32  Fs3
 BYTE   N32  Fs4
 BYTE   W36
 BYTE   Cs4
 BYTE   N32  Cs5
 BYTE   W36
 BYTE   N23  Fs4
 BYTE   N23  Fs5
 BYTE   W24
// 052   ----------------------------------------
 BYTE   N68  Gn4
 BYTE   N68  Gn5
 BYTE   W72
 BYTE   N11  Fs4
 BYTE   N11  Fs5
 BYTE   W24
// 053   ----------------------------------------
 BYTE   N23  En4
 BYTE   N23  En5
 BYTE   W24
 BYTE   Dn4
 BYTE   N23  Dn5
 BYTE   W24
 BYTE   Cs4
 BYTE   N23  Cs5
 BYTE   W24
 BYTE   Bn3
 BYTE   N23  Bn4
 BYTE   W24
// 054   ----------------------------------------
 BYTE   N80  As3
 BYTE   N80  As4
 BYTE   W84
 BYTE   N11  An3
 BYTE   N11  Fs4
 BYTE   N11  Fs5
 BYTE   W12
// 055   ----------------------------------------
 BYTE   TIE  Gs3
 BYTE   TIE  Gs4
 BYTE   TIE  Gs5
 BYTE   W96
// 056   ----------------------------------------
 BYTE   W80
 BYTE   W03
 BYTE   EOT
 BYTE   Gs3  v080
 BYTE   Gs5
 BYTE   W01
 BYTE   N11  Cs4
 BYTE   N11  Gs4
 BYTE   N11  Gs5
 BYTE   W12
// 057   ----------------------------------------
 BYTE   TIE  Fs3
 BYTE   TIE  As4
 BYTE   TIE  As5
 BYTE   W96
// 058   ----------------------------------------
 BYTE   W80
 BYTE   W03
 BYTE   EOT
 BYTE   As4  v094
 BYTE   W12
 BYTE   Fs3
 BYTE   W01
// 059   ----------------------------------------
 BYTE   W96
// 060   ----------------------------------------
 BYTE   W96
// 061   ----------------------------------------
 BYTE   W96
// 062   ----------------------------------------
 BYTE   W96
// 063   ----------------------------------------
 BYTE   W96
// 064   ----------------------------------------
 BYTE   W96
// 065   ----------------------------------------
 BYTE   W96
// 066   ----------------------------------------
 BYTE   W72
 BYTE   PAN   c_v+7
 BYTE   N05  Bn2  v068
 BYTE   W06
 BYTE   Dn3
 BYTE   W06
 BYTE   Fn3
 BYTE   W06
 BYTE   Gs3
 BYTE   W06
// 067   ----------------------------------------
 BYTE   GoTo
  POIN2 Label_3_0134FD06
// 068   ----------------------------------------
 BYTE   N05  Fs3  v068
 BYTE   W12
 BYTE   Cs3
 BYTE   W12
 BYTE   Fs3  v100
 BYTE   W12
 BYTE   Cs4
 BYTE   W36
 BYTE   As3
 BYTE   W24
// 069   ----------------------------------------
 BYTE   Cn4
 BYTE   W36
 BYTE   Fs4
 BYTE   W60
// 070   ----------------------------------------
 BYTE   Fs3
 BYTE   W12
 BYTE   Cs3  v068
 BYTE   W12
 BYTE   Fs3  v100
 BYTE   W12
 BYTE   Cs4
 BYTE   W36
 BYTE   As3
 BYTE   W24
// 071   ----------------------------------------
 BYTE   An3
 BYTE   W36
 BYTE   Fs3
 BYTE   W60
// 072   ----------------------------------------
 BYTE   VOICE   35
 BYTE   PAN   c_v+0
 BYTE   VOL   56*PokemonBWEliteFourThemeZoramineFae_mvl/mxv
 BYTE   PAN   c_v+7
 BYTE   VOL   60*PokemonBWEliteFourThemeZoramineFae_mvl/mxv
 BYTE   PAN   c_v+0
 BYTE   VOL   56*PokemonBWEliteFourThemeZoramineFae_mvl/mxv
 BYTE   PAN   c_v+0
 BYTE   VOL   56*PokemonBWEliteFourThemeZoramineFae_mvl/mxv
 BYTE   PAN   c_v+7
 BYTE   VOL   60*PokemonBWEliteFourThemeZoramineFae_mvl/mxv
 BYTE   PAN   c_v+7
 BYTE   VOL   60*PokemonBWEliteFourThemeZoramineFae_mvl/mxv
 BYTE   BEND   c_v+0
 BYTE   FINE

//**************** Track 5 (Midi-Chn.4) ****************//

PokemonBWEliteFourThemeZoramineFae_005:
// 000   ----------------------------------------
 BYTE   KEYSH   PokemonBWEliteFourThemeZoramineFae_key+0
Label_4_0134FF62:
 BYTE   VOICE   51
 BYTE   PAN   c_v+0
 BYTE   VOL   36*PokemonBWEliteFourThemeZoramineFae_mvl/mxv
 BYTE   Gs4  v061
 BYTE   En6  v100
 BYTE   En6  v100
 BYTE   BEND   c_v+0
 BYTE   W96
// 001   ----------------------------------------
 BYTE   W96
// 002   ----------------------------------------
 BYTE   W96
// 003   ----------------------------------------
 BYTE   W96
// 004   ----------------------------------------
 BYTE   W96
// 005   ----------------------------------------
 BYTE   W96
// 006   ----------------------------------------
 BYTE   W96
// 007   ----------------------------------------
 BYTE   W96
// 008   ----------------------------------------
 BYTE   W96
// 009   ----------------------------------------
 BYTE   W96
// 010   ----------------------------------------
 BYTE   W96
// 011   ----------------------------------------
 BYTE   W96
// 012   ----------------------------------------
Label_4_0134FF7C:
 BYTE   VOL   36*PokemonBWEliteFourThemeZoramineFae_mvl/mxv
 BYTE   N32  Fs2  v112
 BYTE   W36
 BYTE   Cs3
 BYTE   W36
 BYTE   N23  As2
 BYTE   W24
 BYTE   PEND 
// 013   ----------------------------------------
 BYTE   N32  Cn3
 BYTE   W36
 BYTE   N56  Fs3
 BYTE   W36
 BYTE   VOL   33*PokemonBWEliteFourThemeZoramineFae_mvl/mxv
 BYTE   W06
 BYTE   Dn4
 BYTE   W06
 BYTE   An3
 BYTE   W06
 BYTE   Gn3
 BYTE   W06
 BYTE   PATT
  POIN2 Label_4_0134FF7C
// 014   ----------------------------------------
 BYTE   N32  An2  v112
 BYTE   W36
 BYTE   N56  Fs2
 BYTE   W36
 BYTE   VOL   33*PokemonBWEliteFourThemeZoramineFae_mvl/mxv
 BYTE   W06
 BYTE   Dn4
 BYTE   W06
 BYTE   An3
 BYTE   W06
 BYTE   Gn3
 BYTE   W06
// 015   ----------------------------------------
Label_4_0134FFAC:
 BYTE   VOL   36*PokemonBWEliteFourThemeZoramineFae_mvl/mxv
 BYTE   N32  Fs3  v112
 BYTE   W36
 BYTE   Cs4
 BYTE   W36
 BYTE   N23  As3
 BYTE   W24
 BYTE   PEND 
// 016   ----------------------------------------
 BYTE   N32  Cn4
 BYTE   W36
 BYTE   N56  Fs4
 BYTE   W36
 BYTE   VOL   33*PokemonBWEliteFourThemeZoramineFae_mvl/mxv
 BYTE   W06
 BYTE   Dn4
 BYTE   W06
 BYTE   An3
 BYTE   W06
 BYTE   Gn3
 BYTE   W06
 BYTE   PATT
  POIN2 Label_4_0134FFAC
// 017   ----------------------------------------
 BYTE   N32  An3  v112
 BYTE   W36
 BYTE   N56  Fs3
 BYTE   W36
 BYTE   VOL   33*PokemonBWEliteFourThemeZoramineFae_mvl/mxv
 BYTE   W06
 BYTE   Dn4
 BYTE   W06
 BYTE   An3
 BYTE   W06
 BYTE   Gn3
 BYTE   W06
// 018   ----------------------------------------
 BYTE   Gs4
 BYTE   N05  An3
 BYTE   W12
 BYTE   N05
 BYTE   W24
 BYTE   N23  As3
 BYTE   W24
 BYTE   N11  Cn4
 BYTE   W12
 BYTE   Bn3
 BYTE   W12
 BYTE   As3
 BYTE   W12
// 019   ----------------------------------------
Label_4_0134FFEC:
 BYTE   N05  An3  v112
 BYTE   W12
 BYTE   N05
 BYTE   W24
 BYTE   N23  As3
 BYTE   W24
 BYTE   N11  Dn4
 BYTE   W12
 BYTE   Cn4
 BYTE   W12
 BYTE   As3
 BYTE   W12
 BYTE   PEND 
// 020   ----------------------------------------
 BYTE   N05  An3
 BYTE   W12
 BYTE   N05
 BYTE   W24
 BYTE   N23  As3
 BYTE   W24
 BYTE   N11  Cn4
 BYTE   W12
 BYTE   Bn3
 BYTE   W12
 BYTE   As3
 BYTE   W12
 BYTE   PATT
  POIN2 Label_4_0134FFEC
// 021   ----------------------------------------
 BYTE   N32  Fs2  v112
 BYTE   N32  Fs4
 BYTE   W36
 BYTE   Cs3
 BYTE   N32  Cs5
 BYTE   W36
 BYTE   N23  As2
 BYTE   N23  As4
 BYTE   W24
// 022   ----------------------------------------
 BYTE   N32  Cn3
 BYTE   N32  Cn5
 BYTE   W36
 BYTE   N56  Fs3
 BYTE   N56  Fs5
 BYTE   W36
 BYTE   VOL   33*PokemonBWEliteFourThemeZoramineFae_mvl/mxv
 BYTE   W06
 BYTE   Dn4
 BYTE   W06
 BYTE   An3
 BYTE   W06
 BYTE   Gn3
 BYTE   W06
// 023   ----------------------------------------
 BYTE   Gs4
 BYTE   N32  Fs2
 BYTE   N32  Fs4
 BYTE   W36
 BYTE   Cs3
 BYTE   N32  Cs5
 BYTE   W36
 BYTE   N23  As2
 BYTE   N23  As4
 BYTE   W24
// 024   ----------------------------------------
 BYTE   N32  An2
 BYTE   N32  An4
 BYTE   W36
 BYTE   N56  Fs2
 BYTE   N56  Fs4
 BYTE   W36
 BYTE   VOL   33*PokemonBWEliteFourThemeZoramineFae_mvl/mxv
 BYTE   W06
 BYTE   Dn4
 BYTE   W06
 BYTE   An3
 BYTE   W06
 BYTE   Gn3
 BYTE   W06
// 025   ----------------------------------------
Label_4_01350055:
 BYTE   VOL   36*PokemonBWEliteFourThemeZoramineFae_mvl/mxv
 BYTE   N32  Fs3  v112
 BYTE   N32  Fs5
 BYTE   W36
 BYTE   Cs4
 BYTE   N32  Cs6
 BYTE   W36
 BYTE   N23  As3
 BYTE   N23  As5
 BYTE   W24
 BYTE   PEND 
// 026   ----------------------------------------
 BYTE   N32  Cn4
 BYTE   N32  Cn6
 BYTE   W36
 BYTE   N56  Fs4
 BYTE   N56  Fs6
 BYTE   W36
 BYTE   VOL   33*PokemonBWEliteFourThemeZoramineFae_mvl/mxv
 BYTE   W06
 BYTE   Dn4
 BYTE   W06
 BYTE   An3
 BYTE   W06
 BYTE   Gn3
 BYTE   W06
 BYTE   PATT
  POIN2 Label_4_01350055
// 027   ----------------------------------------
 BYTE   N32  An3  v112
 BYTE   N32  An5
 BYTE   W36
 BYTE   N56  An3
 BYTE   N56  An5
 BYTE   W36
 BYTE   VOL   33*PokemonBWEliteFourThemeZoramineFae_mvl/mxv
 BYTE   W06
 BYTE   Dn4
 BYTE   W06
 BYTE   An3
 BYTE   W06
 BYTE   Gn3
 BYTE   W06
// 028   ----------------------------------------
 BYTE   Gs4
 BYTE   N05  An3
 BYTE   W12
 BYTE   N05
 BYTE   W24
 BYTE   TIE  Gn3
 BYTE   W60
// 029   ----------------------------------------
 BYTE   W92
 BYTE   W03
 BYTE   EOT
 BYTE   W01
// 030   ----------------------------------------
 BYTE   N05  An3
 BYTE   W12
 BYTE   N05
 BYTE   W24
 BYTE   TIE  Bn3
 BYTE   W60
// 031   ----------------------------------------
 BYTE   W92
 BYTE   W03
 BYTE   EOT
 BYTE   W01
// 032   ----------------------------------------
 BYTE   W96
// 033   ----------------------------------------
 BYTE   VOL   48*PokemonBWEliteFourThemeZoramineFae_mvl/mxv
 BYTE   N11  Cs3  v127
 BYTE   N11  Fs3
 BYTE   W12
 BYTE   Bn2  v112
 BYTE   N11  En3
 BYTE   W12
 BYTE   An2
 BYTE   N11  Dn3
 BYTE   W12
 BYTE   Bn2
 BYTE   N11  En3
 BYTE   W12
 BYTE   Cs3  v127
 BYTE   N11  Fs3
 BYTE   W12
 BYTE   Dn3  v112
 BYTE   N11  Gn3
 BYTE   W12
 BYTE   Cs3
 BYTE   N11  Fs3
 BYTE   W12
 BYTE   Bn2
 BYTE   N11  En3
 BYTE   W12
// 034   ----------------------------------------
 BYTE   W96
// 035   ----------------------------------------
 BYTE   Fs3  v127
 BYTE   N11  Bn3
 BYTE   W12
 BYTE   En3  v112
 BYTE   N11  An3
 BYTE   W12
 BYTE   Dn3
 BYTE   N11  Gn3
 BYTE   W12
 BYTE   En3
 BYTE   N11  An3
 BYTE   W12
 BYTE   Fs3
 BYTE   N11  Bn3
 BYTE   W12
 BYTE   An3
 BYTE   N11  Cn4
 BYTE   W12
 BYTE   Fs3
 BYTE   N11  Bn3
 BYTE   W12
 BYTE   En3
 BYTE   N11  An3
 BYTE   W12
// 036   ----------------------------------------
 BYTE   W96
// 037   ----------------------------------------
 BYTE   Fs3  v127
 BYTE   N11  Bn3
 BYTE   W12
 BYTE   En3  v112
 BYTE   N11  An3
 BYTE   W12
 BYTE   Dn3
 BYTE   N11  Gn3
 BYTE   W12
 BYTE   En3
 BYTE   N11  An3
 BYTE   W12
 BYTE   Fs3
 BYTE   N11  Bn3
 BYTE   W12
 BYTE   Gn3
 BYTE   N11  Cn4
 BYTE   W12
 BYTE   An3
 BYTE   N11  Dn4
 BYTE   W12
 BYTE   Bn3
 BYTE   N11  En4
 BYTE   W12
// 038   ----------------------------------------
 BYTE   W96
// 039   ----------------------------------------
 BYTE   W96
// 040   ----------------------------------------
 BYTE   W96
// 041   ----------------------------------------
 BYTE   W96
// 042   ----------------------------------------
 BYTE   VOL   36*PokemonBWEliteFourThemeZoramineFae_mvl/mxv
 BYTE   W96
// 043   ----------------------------------------
 BYTE   W48
 BYTE   En4
 BYTE   W06
 BYTE   Cn4
 BYTE   W06
 BYTE   As3
 BYTE   W06
 BYTE   Gs3
 BYTE   W06
 BYTE   Gs4
 BYTE   W24
// 044   ----------------------------------------
 BYTE   W96
// 045   ----------------------------------------
Label_4_0135012D:
 BYTE   W60
 BYTE   VOL   32*PokemonBWEliteFourThemeZoramineFae_mvl/mxv
 BYTE   W06
 BYTE   Cn4
 BYTE   W06
 BYTE   As3
 BYTE   W06
 BYTE   Gs3
 BYTE   W06
 BYTE   Gs4
 BYTE   W12
 BYTE   PEND 
// 046   ----------------------------------------
 BYTE   W96
 BYTE   PATT
  POIN2 Label_4_0135012D
// 047   ----------------------------------------
 BYTE   W96
// 048   ----------------------------------------
 BYTE   W72
 BYTE   VOL   32*PokemonBWEliteFourThemeZoramineFae_mvl/mxv
 BYTE   W06
 BYTE   Cn4
 BYTE   W06
 BYTE   As3
 BYTE   W06
 BYTE   Gs3
 BYTE   W06
// 049   ----------------------------------------
 BYTE   Gs4
 BYTE   W96
// 050   ----------------------------------------
 BYTE   W96
// 051   ----------------------------------------
 BYTE   W96
// 052   ----------------------------------------
 BYTE   W96
// 053   ----------------------------------------
 BYTE   W96
// 054   ----------------------------------------
 BYTE   W96
// 055   ----------------------------------------
 BYTE   W96
// 056   ----------------------------------------
 BYTE   W96
// 057   ----------------------------------------
 BYTE   N11  Gs3  v112
 BYTE   N11  Gs4
 BYTE   W36
 BYTE   N32  Fs3
 BYTE   N32  Fs4
 BYTE   W36
 BYTE   N23  Fn3
 BYTE   N23  Fn4
 BYTE   W24
// 058   ----------------------------------------
 BYTE   N11  Fs3
 BYTE   N11  Fs4
 BYTE   W36
 BYTE   N32  Fn3
 BYTE   N32  Fn4
 BYTE   W36
 BYTE   N23  Ds3
 BYTE   N23  Ds4
 BYTE   W24
// 059   ----------------------------------------
 BYTE   N11  Fn3
 BYTE   N11  Fn4
 BYTE   W36
 BYTE   N32  Ds3
 BYTE   N32  Ds4
 BYTE   W36
 BYTE   N23  Cs3
 BYTE   N23  Cs4
 BYTE   W24
// 060   ----------------------------------------
 BYTE   N11  Ds3
 BYTE   N11  Ds4
 BYTE   W12
 BYTE   N05  Fs2
 BYTE   N05  Fs3
 BYTE   W24
 BYTE   N23  Fn3
 BYTE   N23  Fn4
 BYTE   W24
 BYTE   N32  Fs3
 BYTE   N32  Fs4
 BYTE   W36
// 061   ----------------------------------------
 BYTE   Gs3
 BYTE   N32  Gs4
 BYTE   W36
 BYTE   As3
 BYTE   N32  As4
 BYTE   W36
 BYTE   N23  Gs3
 BYTE   N23  Gs4
 BYTE   W24
// 062   ----------------------------------------
 BYTE   N32  Fs3
 BYTE   N32  Fs4
 BYTE   W36
 BYTE   Gs3
 BYTE   N32  Gs4
 BYTE   W36
 BYTE   N23  Fs3
 BYTE   N23  Fs4
 BYTE   W24
// 063   ----------------------------------------
 BYTE   N32  Fn3
 BYTE   N32  Fn4
 BYTE   W36
 BYTE   Ds3
 BYTE   N32  Ds4
 BYTE   W36
 BYTE   N23  Cs3
 BYTE   N23  Cs4
 BYTE   W24
// 064   ----------------------------------------
 BYTE   N11  Ds3
 BYTE   N11  Ds4
 BYTE   W36
 BYTE   N32  Dn4
 BYTE   N32  Fn4
 BYTE   W36
 BYTE   N23  Bn2
 BYTE   N23  Fn3
 BYTE   N23  Dn4
 BYTE   W24
// 065   ----------------------------------------
 BYTE   GoTo
  POIN2 Label_4_0134FF62
// 066   ----------------------------------------
Label_4_013501D5:
 BYTE   N32  Fs2  v112
 BYTE   W36
 BYTE   Cs3
 BYTE   W36
 BYTE   N23  As2
 BYTE   W24
 BYTE   PEND 
// 067   ----------------------------------------
 BYTE   N32  Cn3
 BYTE   W36
 BYTE   N56  Fs3
 BYTE   W60
 BYTE   PATT
  POIN2 Label_4_013501D5
// 068   ----------------------------------------
 BYTE   N32  An2  v112
 BYTE   W36
 BYTE   N56  Fs2
 BYTE   W60
// 069   ----------------------------------------
 BYTE   VOICE   51
 BYTE   VOL   36*PokemonBWEliteFourThemeZoramineFae_mvl/mxv
 BYTE   En6  v080
 BYTE   Gs4  v100
 BYTE   En6
 BYTE   BEND   c_v+0
 BYTE   FINE

//**************** Track 6 (Midi-Chn.5) ****************//

PokemonBWEliteFourThemeZoramineFae_006:
// 000   ----------------------------------------
 BYTE   KEYSH   PokemonBWEliteFourThemeZoramineFae_key+0
Label_5_01350202:
 BYTE   VOICE   39
 BYTE   PAN   c_v+0
 BYTE   VOL   76*PokemonBWEliteFourThemeZoramineFae_mvl/mxv
 BYTE   PAN   c_v+0
 BYTE   VOL   76*PokemonBWEliteFourThemeZoramineFae_mvl/mxv
 BYTE   PAN   c_v+0
 BYTE   VOL   76*PokemonBWEliteFourThemeZoramineFae_mvl/mxv
 BYTE   PAN   c_v+0
 BYTE   En3
 BYTE   VOL   76*PokemonBWEliteFourThemeZoramineFae_mvl/mxv
 BYTE   PAN   c_v+0
 BYTE   BEND   c_v+0
 BYTE   N11  Fs1  v127
 BYTE   N11  Fs2  v088
 BYTE   W12
 BYTE   Cs2  v112
 BYTE   N02  Cs3  v088
 BYTE   W12
 BYTE   N11  Fs1  v127
 BYTE   N11  Fs2  v088
 BYTE   W12
 BYTE   Dn2  v112
 BYTE   N02  Dn3  v088
 BYTE   W12
 BYTE   N11  Fs1  v127
 BYTE   N11  Fs2  v088
 BYTE   W12
 BYTE   Ds2  v112
 BYTE   N02  Ds3  v088
 BYTE   W12
 BYTE   N11  Fs1  v127
 BYTE   N11  Fs2  v088
 BYTE   W12
 BYTE   En2  v112
 BYTE   N02  En3  v088
 BYTE   W12
// 001   ----------------------------------------
Label_5_0135024D:
 BYTE   N11  Fs1  v127
 BYTE   N11  Fs2  v088
 BYTE   W12
 BYTE   Cs2  v112
 BYTE   N02  Cs3  v088
 BYTE   W12
 BYTE   N11  Fs1  v127
 BYTE   N11  Fs2  v088
 BYTE   W12
 BYTE   Dn2  v112
 BYTE   N02  Dn3  v088
 BYTE   W12
 BYTE   N11  Fs1  v127
 BYTE   N11  Fs2  v088
 BYTE   W12
 BYTE   Ds2  v112
 BYTE   N02  Ds3  v088
 BYTE   W12
 BYTE   N11  Fs1  v127
 BYTE   N11  Fs2  v088
 BYTE   W12
 BYTE   En2  v112
 BYTE   N02  En3  v088
 BYTE   W12
 BYTE   PEND 
 BYTE   PATT
  POIN2 Label_5_0135024D
 BYTE   PATT
  POIN2 Label_5_0135024D
// 002   ----------------------------------------
Label_5_0135028C:
 BYTE   N11  Fs1  v127
 BYTE   W12
 BYTE   N08  Cs2  v112
 BYTE   W12
 BYTE   N11  Fs1  v127
 BYTE   W12
 BYTE   N08  Dn2  v112
 BYTE   W12
 BYTE   N11  Fs1  v127
 BYTE   W12
 BYTE   N08  Ds2  v112
 BYTE   W12
 BYTE   N11  Fs1  v127
 BYTE   W12
 BYTE   N08  En2  v112
 BYTE   W12
 BYTE   PEND 
 BYTE   PATT
  POIN2 Label_5_0135028C
 BYTE   PATT
  POIN2 Label_5_0135028C
 BYTE   PATT
  POIN2 Label_5_0135028C
 BYTE   PATT
  POIN2 Label_5_0135028C
 BYTE   PATT
  POIN2 Label_5_0135028C
 BYTE   PATT
  POIN2 Label_5_0135028C
 BYTE   PATT
  POIN2 Label_5_0135028C
 BYTE   PATT
  POIN2 Label_5_0135028C
 BYTE   PATT
  POIN2 Label_5_0135028C
 BYTE   PATT
  POIN2 Label_5_0135028C
 BYTE   PATT
  POIN2 Label_5_0135028C
 BYTE   PATT
  POIN2 Label_5_0135028C
 BYTE   PATT
  POIN2 Label_5_0135028C
 BYTE   PATT
  POIN2 Label_5_0135028C
// 003   ----------------------------------------
 BYTE   PAN   c_v-5
 BYTE   N11  Fs1  v127
 BYTE   W03
 BYTE   VOL   79*PokemonBWEliteFourThemeZoramineFae_mvl/mxv
 BYTE   W09
 BYTE   N08  Cs2  v112
 BYTE   W12
 BYTE   N11  Fs1  v127
 BYTE   W12
 BYTE   N08  Dn2  v112
 BYTE   W10
 BYTE   VOL   83*PokemonBWEliteFourThemeZoramineFae_mvl/mxv
 BYTE   W02
 BYTE   PAN   c_v-10
 BYTE   N11  Fs1  v127
 BYTE   W12
 BYTE   N08  Ds2
 BYTE   W12
 BYTE   PAN   c_v-13
 BYTE   N11  Fs1
 BYTE   W12
 BYTE   N08  En2
 BYTE   W12
// 004   ----------------------------------------
 BYTE   N11  Fs1
 BYTE   W01
 BYTE   VOL   76*PokemonBWEliteFourThemeZoramineFae_mvl/mxv
 BYTE   W11
 BYTE   N08  Cn1
 BYTE   W24
 BYTE   N23  Gn1  v116
 BYTE   W24
 BYTE   N11  An1  v112
 BYTE   W12
 BYTE   Gs1
 BYTE   W12
 BYTE   Gn1
 BYTE   W12
// 005   ----------------------------------------
 BYTE   Fs1  v127
 BYTE   W12
 BYTE   N08  Cn1
 BYTE   W24
 BYTE   N23  Gn1  v116
 BYTE   W24
 BYTE   N11  Bn1  v112
 BYTE   W12
 BYTE   An1
 BYTE   W12
 BYTE   Gn1
 BYTE   W12
// 006   ----------------------------------------
 BYTE   N08  Fs1  v127
 BYTE   W12
 BYTE   N05
 BYTE   W24
 BYTE   N23  Gn1  v112
 BYTE   W24
 BYTE   N11  An1
 BYTE   W12
 BYTE   Gs1
 BYTE   W12
 BYTE   Gn1
 BYTE   W12
// 007   ----------------------------------------
 BYTE   N08  Fs1  v127
 BYTE   W12
 BYTE   N05
 BYTE   W24
 BYTE   N23  Gn1  v112
 BYTE   W24
 BYTE   N11  Bn1
 BYTE   W12
 BYTE   An1
 BYTE   W12
 BYTE   Gn1
 BYTE   W12
// 008   ----------------------------------------
 BYTE   PAN   c_v+0
 BYTE   N11  Fs1  v127
 BYTE   W12
 BYTE   Cs2  v112
 BYTE   W12
 BYTE   Fs1  v127
 BYTE   W12
 BYTE   Dn2  v112
 BYTE   W12
 BYTE   Fs1  v127
 BYTE   W12
 BYTE   Ds2  v112
 BYTE   W12
 BYTE   Fs1  v127
 BYTE   W12
 BYTE   En2  v112
 BYTE   W12
// 009   ----------------------------------------
Label_5_01350380:
 BYTE   N11  Fs1  v127
 BYTE   W12
 BYTE   Cs2  v112
 BYTE   W12
 BYTE   Fs1  v127
 BYTE   W12
 BYTE   Dn2  v112
 BYTE   W12
 BYTE   Fs1  v127
 BYTE   W12
 BYTE   Ds2  v112
 BYTE   W12
 BYTE   Fs1  v127
 BYTE   W12
 BYTE   En2  v112
 BYTE   W12
 BYTE   PEND 
 BYTE   PATT
  POIN2 Label_5_01350380
 BYTE   PATT
  POIN2 Label_5_01350380
 BYTE   PATT
  POIN2 Label_5_01350380
 BYTE   PATT
  POIN2 Label_5_01350380
 BYTE   PATT
  POIN2 Label_5_01350380
// 010   ----------------------------------------
 BYTE   VOL   82*PokemonBWEliteFourThemeZoramineFae_mvl/mxv
 BYTE   N11  Fs1  v127
 BYTE   W12
 BYTE   Cs2  v112
 BYTE   W12
 BYTE   Fs1  v127
 BYTE   W12
 BYTE   Dn2  v112
 BYTE   W12
 BYTE   Fs1  v127
 BYTE   W12
 BYTE   Ds2  v112
 BYTE   W12
 BYTE   Fs1  v127
 BYTE   W12
 BYTE   En2  v112
 BYTE   W12
// 011   ----------------------------------------
Label_5_013503CE:
 BYTE   N05  Fs1  v127
 BYTE   W12
 BYTE   N05
 BYTE   W24
 BYTE   N23  Gn1  v112
 BYTE   W24
 BYTE   N11  An1  v127
 BYTE   W12
 BYTE   Gs1
 BYTE   W12
 BYTE   Gn1
 BYTE   W12
 BYTE   PEND 
// 012   ----------------------------------------
 BYTE   N05  Fs1
 BYTE   W12
 BYTE   N05
 BYTE   W24
 BYTE   N23  Gn1  v112
 BYTE   W24
 BYTE   N11  Bn1  v127
 BYTE   W12
 BYTE   An1
 BYTE   W12
 BYTE   Gn1
 BYTE   W12
 BYTE   PATT
  POIN2 Label_5_013503CE
// 013   ----------------------------------------
 BYTE   N05  Fs1  v127
 BYTE   W12
 BYTE   N05
 BYTE   W24
 BYTE   N23  Gn1  v112
 BYTE   W24
 BYTE   N11  Bn1  v127
 BYTE   W12
 BYTE   An1
 BYTE   W12
 BYTE   Gn1
 BYTE   W10
 BYTE   VOL   76*PokemonBWEliteFourThemeZoramineFae_mvl/mxv
 BYTE   W02
 BYTE   PATT
  POIN2 Label_5_01350380
 BYTE   PATT
  POIN2 Label_5_01350380
// 014   ----------------------------------------
Label_5_01350416:
 BYTE   N11  Bn1  v127
 BYTE   W12
 BYTE   Fs2  v112
 BYTE   W12
 BYTE   Bn1  v127
 BYTE   W12
 BYTE   Gn2  v112
 BYTE   W12
 BYTE   Bn1  v127
 BYTE   W12
 BYTE   Gs2  v112
 BYTE   W12
 BYTE   Bn1  v127
 BYTE   W12
 BYTE   An2  v112
 BYTE   W12
 BYTE   PEND 
 BYTE   PATT
  POIN2 Label_5_01350416
 BYTE   PATT
  POIN2 Label_5_01350416
// 015   ----------------------------------------
 BYTE   N11  Bn1  v127
 BYTE   W12
 BYTE   Fs2  v112
 BYTE   W12
 BYTE   Bn1  v127
 BYTE   W12
 BYTE   Gn2  v112
 BYTE   W12
 BYTE   Bn1  v127
 BYTE   W12
 BYTE   Fs3  v124
 BYTE   W12
 BYTE   Cs3
 BYTE   W12
 BYTE   Gn2
 BYTE   W12
 BYTE   PATT
  POIN2 Label_5_01350380
 BYTE   PATT
  POIN2 Label_5_01350380
 BYTE   PATT
  POIN2 Label_5_01350380
 BYTE   PATT
  POIN2 Label_5_01350380
// 016   ----------------------------------------
Label_5_01350465:
 BYTE   N11  Fs1  v127
 BYTE   W12
 BYTE   Cs2  v112
 BYTE   W12
 BYTE   Fs1  v127
 BYTE   W12
 BYTE   Cs2  v112
 BYTE   W12
 BYTE   Fs1  v127
 BYTE   W12
 BYTE   Cs2  v112
 BYTE   W12
 BYTE   Fs1  v127
 BYTE   W12
 BYTE   Cs2  v112
 BYTE   W12
 BYTE   PEND 
// 017   ----------------------------------------
Label_5_0135047F:
 BYTE   N11  Fs1  v127
 BYTE   W12
 BYTE   Dn2  v112
 BYTE   W12
 BYTE   Fs1  v127
 BYTE   W12
 BYTE   Dn2  v112
 BYTE   W12
 BYTE   Fs1  v127
 BYTE   W12
 BYTE   Dn2  v112
 BYTE   W12
 BYTE   Fs1  v127
 BYTE   W12
 BYTE   Dn2  v112
 BYTE   W12
 BYTE   PEND 
// 018   ----------------------------------------
Label_5_01350499:
 BYTE   N11  En1  v127
 BYTE   W12
 BYTE   Bn1  v112
 BYTE   W12
 BYTE   En1  v127
 BYTE   W12
 BYTE   Bn1  v112
 BYTE   W12
 BYTE   En1  v127
 BYTE   W12
 BYTE   Bn1  v112
 BYTE   W12
 BYTE   En1  v127
 BYTE   W12
 BYTE   Bn1  v112
 BYTE   W12
 BYTE   PEND 
// 019   ----------------------------------------
 BYTE   Fs1  v127
 BYTE   W12
 BYTE   Cs2  v112
 BYTE   W12
 BYTE   Fs1  v127
 BYTE   W12
 BYTE   Cs2  v112
 BYTE   W12
 BYTE   Fs1  v127
 BYTE   W12
 BYTE   Cs2  v112
 BYTE   W12
 BYTE   Fs1  v127
 BYTE   W12
 BYTE   Fn1
 BYTE   W12
// 020   ----------------------------------------
Label_5_013504CA:
 BYTE   N11  En1  v127
 BYTE   W12
 BYTE   Bn1  v112
 BYTE   W12
 BYTE   En1  v127
 BYTE   W12
 BYTE   Cn2  v112
 BYTE   W12
 BYTE   En1  v127
 BYTE   W12
 BYTE   Cs2  v112
 BYTE   W12
 BYTE   En1  v127
 BYTE   W12
 BYTE   Dn2  v112
 BYTE   W12
 BYTE   PEND 
 BYTE   PATT
  POIN2 Label_5_013504CA
 BYTE   PATT
  POIN2 Label_5_01350380
// 021   ----------------------------------------
 BYTE   N11  Fs1  v127
 BYTE   W12
 BYTE   Cs2  v112
 BYTE   W12
 BYTE   Fs1  v127
 BYTE   W12
 BYTE   Dn2  v112
 BYTE   W12
 BYTE   Fs1  v127
 BYTE   W12
 BYTE   Dn2  v112
 BYTE   W12
 BYTE   Cs2
 BYTE   W12
 BYTE   Bn1
 BYTE   W12
 BYTE   PATT
  POIN2 Label_5_01350465
 BYTE   PATT
  POIN2 Label_5_0135047F
 BYTE   PATT
  POIN2 Label_5_01350499
 BYTE   PATT
  POIN2 Label_5_01350465
 BYTE   PATT
  POIN2 Label_5_013504CA
 BYTE   PATT
  POIN2 Label_5_013504CA
 BYTE   PATT
  POIN2 Label_5_01350380
 BYTE   PATT
  POIN2 Label_5_01350380
// 022   ----------------------------------------
Label_5_0135052D:
 BYTE   N11  En1  v127
 BYTE   W12
 BYTE   Bn1  v112
 BYTE   W12
 BYTE   En1  v127
 BYTE   W12
 BYTE   Bn1  v112
 BYTE   W12
 BYTE   En2
 BYTE   W12
 BYTE   Bn1
 BYTE   W12
 BYTE   Gs2
 BYTE   W12
 BYTE   Bn1
 BYTE   W12
 BYTE   PEND 
// 023   ----------------------------------------
Label_5_01350543:
 BYTE   N11  Fs1  v127
 BYTE   W12
 BYTE   Cs2  v112
 BYTE   W12
 BYTE   Fs1  v127
 BYTE   W12
 BYTE   Cs2  v112
 BYTE   W12
 BYTE   Fs2
 BYTE   W12
 BYTE   Cs2
 BYTE   W12
 BYTE   Cs3
 BYTE   W12
 BYTE   Cs2
 BYTE   W12
 BYTE   PEND 
// 024   ----------------------------------------
 BYTE   Cs1  v127
 BYTE   W12
 BYTE   Gs1  v112
 BYTE   W12
 BYTE   Cs1  v127
 BYTE   W12
 BYTE   Gs1  v112
 BYTE   W12
 BYTE   Cs2
 BYTE   W12
 BYTE   Gs1
 BYTE   W12
 BYTE   Gs2
 BYTE   W12
 BYTE   Gs1
 BYTE   W12
// 025   ----------------------------------------
 BYTE   Fs1  v127
 BYTE   W12
 BYTE   Cs2  v112
 BYTE   W12
 BYTE   Fs1  v127
 BYTE   W12
 BYTE   Cs2  v112
 BYTE   W12
 BYTE   Fs2
 BYTE   W12
 BYTE   N23  Cs3
 BYTE   W24
 BYTE   N11  Cs2
 BYTE   W12
 BYTE   PATT
  POIN2 Label_5_0135052D
 BYTE   PATT
  POIN2 Label_5_01350543
// 026   ----------------------------------------
 BYTE   N11  Cs1  v127
 BYTE   W12
 BYTE   Gs1  v112
 BYTE   W12
 BYTE   Cs1  v127
 BYTE   W12
 BYTE   Gs1  v112
 BYTE   W12
 BYTE   Cs2
 BYTE   W12
 BYTE   Gs1
 BYTE   W12
 BYTE   Cs2
 BYTE   W12
 BYTE   Gs1
 BYTE   W12
// 027   ----------------------------------------
 BYTE   Fs1  v127
 BYTE   W12
 BYTE   Cs2  v112
 BYTE   W24
 BYTE   N32  As1  v120
 BYTE   W36
 BYTE   N23  Gn1  v108
 BYTE   W24
// 028   ----------------------------------------
 BYTE   GoTo
  POIN2 Label_5_01350202
 BYTE   PATT
  POIN2 Label_5_01350380
 BYTE   PATT
  POIN2 Label_5_01350380
 BYTE   PATT
  POIN2 Label_5_01350380
 BYTE   PATT
  POIN2 Label_5_01350380
// 029   ----------------------------------------
 BYTE   VOICE   39
 BYTE   PAN   c_v+0
 BYTE   VOL   76*PokemonBWEliteFourThemeZoramineFae_mvl/mxv
 BYTE   PAN   c_v+0
 BYTE   VOL   76*PokemonBWEliteFourThemeZoramineFae_mvl/mxv
 BYTE   PAN   c_v+0
 BYTE   VOL   76*PokemonBWEliteFourThemeZoramineFae_mvl/mxv
 BYTE   BEND   c_v+0
 BYTE   FINE

//**************** Track 7 (Midi-Chn.6) ****************//

PokemonBWEliteFourThemeZoramineFae_007:
// 000   ----------------------------------------
 BYTE   KEYSH   PokemonBWEliteFourThemeZoramineFae_key+0
Label_6_013505DA:
 BYTE   VOICE   51
 BYTE   PAN   c_v+0
 BYTE   VOL   56*PokemonBWEliteFourThemeZoramineFae_mvl/mxv
 BYTE   PAN   c_v+0
 BYTE   VOL   56*PokemonBWEliteFourThemeZoramineFae_mvl/mxv
 BYTE   PAN   c_v+0
 BYTE   VOL   56*PokemonBWEliteFourThemeZoramineFae_mvl/mxv
 BYTE   PAN   c_v+0
 BYTE   VOL   56*PokemonBWEliteFourThemeZoramineFae_mvl/mxv
 BYTE   BEND   c_v+0
 BYTE   W96
// 001   ----------------------------------------
 BYTE   W96
// 002   ----------------------------------------
 BYTE   W96
// 003   ----------------------------------------
 BYTE   W96
// 004   ----------------------------------------
 BYTE   W96
// 005   ----------------------------------------
 BYTE   W96
// 006   ----------------------------------------
 BYTE   W96
// 007   ----------------------------------------
 BYTE   W96
// 008   ----------------------------------------
 BYTE   W96
// 009   ----------------------------------------
 BYTE   W96
// 010   ----------------------------------------
 BYTE   W96
// 011   ----------------------------------------
 BYTE   W96
// 012   ----------------------------------------
 BYTE   W96
// 013   ----------------------------------------
 BYTE   W96
// 014   ----------------------------------------
 BYTE   W96
// 015   ----------------------------------------
 BYTE   W96
// 016   ----------------------------------------
 BYTE   W96
// 017   ----------------------------------------
 BYTE   W96
// 018   ----------------------------------------
 BYTE   W96
// 019   ----------------------------------------
 BYTE   W96
// 020   ----------------------------------------
 BYTE   W96
// 021   ----------------------------------------
 BYTE   W96
// 022   ----------------------------------------
 BYTE   W96
// 023   ----------------------------------------
 BYTE   W96
// 024   ----------------------------------------
 BYTE   W96
// 025   ----------------------------------------
 BYTE   W96
// 026   ----------------------------------------
 BYTE   W96
// 027   ----------------------------------------
 BYTE   W96
// 028   ----------------------------------------
 BYTE   W96
// 029   ----------------------------------------
 BYTE   W96
// 030   ----------------------------------------
 BYTE   W96
// 031   ----------------------------------------
 BYTE   W96
// 032   ----------------------------------------
 BYTE   W96
// 033   ----------------------------------------
 BYTE   W96
// 034   ----------------------------------------
 BYTE   W96
// 035   ----------------------------------------
 BYTE   W96
// 036   ----------------------------------------
 BYTE   W96
// 037   ----------------------------------------
 BYTE   W96
// 038   ----------------------------------------
 BYTE   W96
// 039   ----------------------------------------
 BYTE   W96
// 040   ----------------------------------------
 BYTE   W96
// 041   ----------------------------------------
 BYTE   W96
// 042   ----------------------------------------
 BYTE   W96
// 043   ----------------------------------------
 BYTE   W96
// 044   ----------------------------------------
 BYTE   W96
// 045   ----------------------------------------
 BYTE   W96
// 046   ----------------------------------------
Label_6_0135061C:
 BYTE   N32  Cs3  v112
 BYTE   W36
 BYTE   Fs3
 BYTE   W36
 BYTE   N23  Cs4
 BYTE   W24
 BYTE   PEND 
// 047   ----------------------------------------
Label_6_01350626:
 BYTE   N68  Dn4  v112
 BYTE   W72
 BYTE   N11  Cs4
 BYTE   W24
 BYTE   PEND 
// 048   ----------------------------------------
 BYTE   N23  Bn3
 BYTE   W24
 BYTE   N11  Gs3
 BYTE   W24
 BYTE   N23  Fs3
 BYTE   W24
 BYTE   N11  Dn3
 BYTE   W24
// 049   ----------------------------------------
 BYTE   N80  Fs3
 BYTE   W84
 BYTE   N11  Cs4
 BYTE   W12
// 050   ----------------------------------------
 BYTE   TIE  Bn3
 BYTE   W96
// 051   ----------------------------------------
 BYTE   W80
 BYTE   W03
 BYTE   EOT
 BYTE   W01
 BYTE   N11  Cn4
 BYTE   W12
// 052   ----------------------------------------
 BYTE   TIE  Cs4
 BYTE   W96
// 053   ----------------------------------------
 BYTE   W92
 BYTE   W03
 BYTE   EOT
 BYTE   W01
 BYTE   PATT
  POIN2 Label_6_0135061C
 BYTE   PATT
  POIN2 Label_6_01350626
// 054   ----------------------------------------
 BYTE   N23  Cs4  v112
 BYTE   W24
 BYTE   Bn3
 BYTE   W24
 BYTE   As3
 BYTE   W24
 BYTE   Gs3
 BYTE   W24
// 055   ----------------------------------------
 BYTE   N80  Fs3
 BYTE   W84
 BYTE   N11  Ds4
 BYTE   W12
// 056   ----------------------------------------
 BYTE   TIE  Cs4
 BYTE   W96
// 057   ----------------------------------------
 BYTE   W80
 BYTE   W03
 BYTE   EOT
 BYTE   W01
 BYTE   N11
 BYTE   W12
// 058   ----------------------------------------
 BYTE   TIE  Fs4
 BYTE   W96
// 059   ----------------------------------------
 BYTE   W80
 BYTE   W03
 BYTE   EOT
 BYTE   W13
// 060   ----------------------------------------
 BYTE   W96
// 061   ----------------------------------------
 BYTE   W96
// 062   ----------------------------------------
 BYTE   W96
// 063   ----------------------------------------
 BYTE   W96
// 064   ----------------------------------------
 BYTE   W96
// 065   ----------------------------------------
 BYTE   W96
// 066   ----------------------------------------
 BYTE   W96
// 067   ----------------------------------------
 BYTE   W96
// 068   ----------------------------------------
 BYTE   GoTo
  POIN2 Label_6_013505DA
// 069   ----------------------------------------
 BYTE   W96
// 070   ----------------------------------------
 BYTE   W96
// 071   ----------------------------------------
 BYTE   W96
// 072   ----------------------------------------
 BYTE   W96
// 073   ----------------------------------------
 BYTE   VOICE   51
 BYTE   PAN   c_v+0
 BYTE   VOL   56*PokemonBWEliteFourThemeZoramineFae_mvl/mxv
 BYTE   PAN   c_v+0
 BYTE   VOL   56*PokemonBWEliteFourThemeZoramineFae_mvl/mxv
 BYTE   PAN   c_v+0
 BYTE   VOL   56*PokemonBWEliteFourThemeZoramineFae_mvl/mxv
 BYTE   BEND   c_v+0
 BYTE   FINE

//**************** Track 8 (Midi-Chn.7) ****************//

PokemonBWEliteFourThemeZoramineFae_008:
// 000   ----------------------------------------
 BYTE   KEYSH   PokemonBWEliteFourThemeZoramineFae_key+0
Label_7_013506A2:
 BYTE   VOICE   62
 BYTE   PAN   c_v+0
 BYTE   VOL   32*PokemonBWEliteFourThemeZoramineFae_mvl/mxv
 BYTE   En4  v080
 BYTE   Gs4
 BYTE   BEND   c_v+0
 BYTE   W96
// 001   ----------------------------------------
 BYTE   W96
// 002   ----------------------------------------
 BYTE   W96
// 003   ----------------------------------------
 BYTE   W96
// 004   ----------------------------------------
 BYTE   W96
// 005   ----------------------------------------
 BYTE   W96
// 006   ----------------------------------------
 BYTE   W96
// 007   ----------------------------------------
 BYTE   W96
// 008   ----------------------------------------
 BYTE   W96
// 009   ----------------------------------------
 BYTE   W96
// 010   ----------------------------------------
 BYTE   W96
// 011   ----------------------------------------
 BYTE   W96
// 012   ----------------------------------------
 BYTE   N32  Cs3  v112
 BYTE   W01
 BYTE   VOL   32*PokemonBWEliteFourThemeZoramineFae_mvl/mxv
 BYTE   W32
 BYTE   W03
 BYTE   N32  Fs3
 BYTE   W36
 BYTE   N23  Ds3
 BYTE   W24
// 013   ----------------------------------------
Label_7_013506C7:
 BYTE   N32  Fn3  v112
 BYTE   W36
 BYTE   N56  Cn4
 BYTE   W36
 BYTE   VOL   30*PokemonBWEliteFourThemeZoramineFae_mvl/mxv
 BYTE   W06
 BYTE   An3
 BYTE   W06
 BYTE   En3
 BYTE   W06
 BYTE   Bn2
 BYTE   W06
 BYTE   PEND 
// 014   ----------------------------------------
Label_7_013506D8:
 BYTE   VOL   32*PokemonBWEliteFourThemeZoramineFae_mvl/mxv
 BYTE   N32  Cs3  v112
 BYTE   W36
 BYTE   Fs3
 BYTE   W36
 BYTE   N23  Ds3
 BYTE   W24
 BYTE   PEND 
// 015   ----------------------------------------
Label_7_013506E4:
 BYTE   N32  Dn3  v112
 BYTE   W36
 BYTE   N56  Cn3
 BYTE   W36
 BYTE   VOL   30*PokemonBWEliteFourThemeZoramineFae_mvl/mxv
 BYTE   W06
 BYTE   An3
 BYTE   W06
 BYTE   En3
 BYTE   W06
 BYTE   Bn2
 BYTE   W06
 BYTE   PEND 
// 016   ----------------------------------------
Label_7_013506F5:
 BYTE   VOL   32*PokemonBWEliteFourThemeZoramineFae_mvl/mxv
 BYTE   N32  Cs4  v112
 BYTE   W36
 BYTE   Fs4
 BYTE   W36
 BYTE   N23  Ds4
 BYTE   W24
 BYTE   PEND 
// 017   ----------------------------------------
Label_7_01350701:
 BYTE   N32  Fn4  v112
 BYTE   W36
 BYTE   N56  Cn5
 BYTE   W36
 BYTE   VOL   30*PokemonBWEliteFourThemeZoramineFae_mvl/mxv
 BYTE   W06
 BYTE   An3
 BYTE   W06
 BYTE   En3
 BYTE   W06
 BYTE   Bn2
 BYTE   W06
 BYTE   PEND 
 BYTE   PATT
  POIN2 Label_7_013506F5
// 018   ----------------------------------------
 BYTE   N32  Dn4  v112
 BYTE   W36
 BYTE   N56  Cn4
 BYTE   W36
 BYTE   VOL   30*PokemonBWEliteFourThemeZoramineFae_mvl/mxv
 BYTE   W06
 BYTE   An3
 BYTE   W06
 BYTE   En3
 BYTE   W06
 BYTE   Bn2
 BYTE   W06
// 019   ----------------------------------------
 BYTE   En4
 BYTE   N05  Cs2  v116
 BYTE   N05  Cs3
 BYTE   W12
 BYTE   Cn2  v112
 BYTE   N05  Cn3
 BYTE   W24
 BYTE   N23  Dn2
 BYTE   N23  Dn3
 BYTE   W24
 BYTE   N11  En2
 BYTE   N11  En3
 BYTE   W12
 BYTE   Ds2
 BYTE   N11  Ds3
 BYTE   W12
 BYTE   Dn2
 BYTE   N11  Dn3
 BYTE   W12
// 020   ----------------------------------------
 BYTE   N05  Cs2  v120
 BYTE   N05  Cs3
 BYTE   W12
 BYTE   Cn2  v112
 BYTE   N05  Cn3
 BYTE   W24
 BYTE   N23  Dn2
 BYTE   N23  Dn3
 BYTE   W24
 BYTE   N11  Fs2
 BYTE   N11  Fs3
 BYTE   W12
 BYTE   En2
 BYTE   N11  En3
 BYTE   W12
 BYTE   Dn2
 BYTE   N11  Dn3
 BYTE   W12
// 021   ----------------------------------------
 BYTE   N05  Cs2  v124
 BYTE   N05  Cs3
 BYTE   W12
 BYTE   Cs2  v112
 BYTE   N05  Cs3
 BYTE   W24
 BYTE   N23  Dn2
 BYTE   N23  Dn3
 BYTE   W24
 BYTE   N11  En2
 BYTE   N11  En3
 BYTE   W12
 BYTE   Ds2
 BYTE   N11  Ds3
 BYTE   W12
 BYTE   Dn2
 BYTE   N11  Dn3
 BYTE   W12
// 022   ----------------------------------------
 BYTE   N05  Cs2  v124
 BYTE   N05  Cs3
 BYTE   W12
 BYTE   Cs2  v127
 BYTE   N05  Cs3
 BYTE   W24
 BYTE   N23  Dn2  v112
 BYTE   N23  Dn3
 BYTE   W24
 BYTE   N11  Fs2
 BYTE   N11  Fs3
 BYTE   W12
 BYTE   En2
 BYTE   N11  En3
 BYTE   W12
 BYTE   Dn2
 BYTE   N11  Dn3
 BYTE   W12
// 023   ----------------------------------------
Label_7_0135079D:
 BYTE   N32  Cs3  v112
 BYTE   W36
 BYTE   Fs3
 BYTE   W36
 BYTE   N23  Ds3
 BYTE   W24
 BYTE   PEND 
 BYTE   PATT
  POIN2 Label_7_013506C7
 BYTE   PATT
  POIN2 Label_7_013506D8
 BYTE   PATT
  POIN2 Label_7_013506E4
 BYTE   PATT
  POIN2 Label_7_013506F5
 BYTE   PATT
  POIN2 Label_7_01350701
 BYTE   PATT
  POIN2 Label_7_013506F5
// 024   ----------------------------------------
 BYTE   N32  Dn4  v112
 BYTE   W36
 BYTE   N56  Ds4
 BYTE   W36
 BYTE   VOL   30*PokemonBWEliteFourThemeZoramineFae_mvl/mxv
 BYTE   W06
 BYTE   An3
 BYTE   W06
 BYTE   En3
 BYTE   W06
 BYTE   Bn2
 BYTE   W06
// 025   ----------------------------------------
 BYTE   En4
 BYTE   N05  Cs4
 BYTE   W12
 BYTE   N05
 BYTE   W24
 BYTE   TIE  Bn3
 BYTE   W60
// 026   ----------------------------------------
 BYTE   W92
 BYTE   W03
 BYTE   EOT
 BYTE   W01
// 027   ----------------------------------------
 BYTE   N05  Cs4
 BYTE   W12
 BYTE   N05
 BYTE   W24
 BYTE   TIE  Dn4
 BYTE   W60
// 028   ----------------------------------------
 BYTE   W92
 BYTE   W03
 BYTE   EOT
 BYTE   W01
// 029   ----------------------------------------
 BYTE   W96
// 030   ----------------------------------------
 BYTE   VOL   34*PokemonBWEliteFourThemeZoramineFae_mvl/mxv
 BYTE   N11  Fs4  v127
 BYTE   W12
 BYTE   En4  v112
 BYTE   W12
 BYTE   Dn4
 BYTE   W12
 BYTE   En4
 BYTE   W12
 BYTE   Fs4  v127
 BYTE   W12
 BYTE   Gn4  v112
 BYTE   W12
 BYTE   Fs4
 BYTE   W12
 BYTE   En4
 BYTE   W12
// 031   ----------------------------------------
 BYTE   W96
// 032   ----------------------------------------
 BYTE   Bn4  v127
 BYTE   W12
 BYTE   An4  v112
 BYTE   W12
 BYTE   Gn4
 BYTE   W12
 BYTE   An4
 BYTE   W12
 BYTE   Bn4
 BYTE   W12
 BYTE   Cn5
 BYTE   W12
 BYTE   Bn4
 BYTE   W12
 BYTE   An4
 BYTE   W12
// 033   ----------------------------------------
 BYTE   W96
// 034   ----------------------------------------
 BYTE   Bn4  v127
 BYTE   W12
 BYTE   An4  v112
 BYTE   W12
 BYTE   Gn4
 BYTE   W12
 BYTE   An4
 BYTE   W12
 BYTE   Bn4
 BYTE   W12
 BYTE   Cn5
 BYTE   W12
 BYTE   Dn5
 BYTE   W12
 BYTE   En5
 BYTE   W12
// 035   ----------------------------------------
 BYTE   W96
// 036   ----------------------------------------
 BYTE   W96
// 037   ----------------------------------------
 BYTE   W96
// 038   ----------------------------------------
 BYTE   W96
// 039   ----------------------------------------
 BYTE   VOL   50*PokemonBWEliteFourThemeZoramineFae_mvl/mxv
 BYTE   N32  Fs2
 BYTE   W36
 BYTE   Cs3
 BYTE   W36
 BYTE   N23  Fs3
 BYTE   W24
// 040   ----------------------------------------
 BYTE   N68  Gn3
 BYTE   W48
 BYTE   VOL   47*PokemonBWEliteFourThemeZoramineFae_mvl/mxv
 BYTE   W06
 BYTE   Cs5
 BYTE   W06
 BYTE   As4
 BYTE   W06
 BYTE   Ds4
 BYTE   W06
 BYTE   As5
 BYTE   N11  Fs3
 BYTE   W24
// 041   ----------------------------------------
 BYTE   N23  En2
 BYTE   W24
 BYTE   N11  Gn2
 BYTE   W24
 BYTE   N23  Bn2
 BYTE   W24
 BYTE   N11  Dn3
 BYTE   W24
// 042   ----------------------------------------
 BYTE   N80  Cs3
 BYTE   W60
 BYTE   VOL   47*PokemonBWEliteFourThemeZoramineFae_mvl/mxv
 BYTE   W06
 BYTE   Cs5
 BYTE   W06
 BYTE   As4
 BYTE   W06
 BYTE   Ds4
 BYTE   W06
 BYTE   As5
 BYTE   N11  Fs3
 BYTE   W12
// 043   ----------------------------------------
 BYTE   TIE  En3
 BYTE   W96
// 044   ----------------------------------------
 BYTE   W60
 BYTE   VOL   47*PokemonBWEliteFourThemeZoramineFae_mvl/mxv
 BYTE   W06
 BYTE   Cs5
 BYTE   W06
 BYTE   As4
 BYTE   W06
 BYTE   Ds4
 BYTE   W05
 BYTE   EOT
 BYTE   W01
 BYTE   VOL   50*PokemonBWEliteFourThemeZoramineFae_mvl/mxv
 BYTE   N11  Fn3
 BYTE   W12
// 045   ----------------------------------------
 BYTE   TIE  As3
 BYTE   W96
// 046   ----------------------------------------
 BYTE   W72
 BYTE   VOL   47*PokemonBWEliteFourThemeZoramineFae_mvl/mxv
 BYTE   W06
 BYTE   Cs5
 BYTE   W06
 BYTE   As4
 BYTE   W06
 BYTE   Ds4
 BYTE   W05
 BYTE   EOT
 BYTE   W01
// 047   ----------------------------------------
 BYTE   VOL   50*PokemonBWEliteFourThemeZoramineFae_mvl/mxv
 BYTE   N32  Fs2
 BYTE   W36
 BYTE   Cs3
 BYTE   W36
 BYTE   N23  Fs2
 BYTE   W24
// 048   ----------------------------------------
 BYTE   N68  Dn2
 BYTE   W72
 BYTE   N11  Fs2
 BYTE   W24
// 049   ----------------------------------------
 BYTE   N23  En2
 BYTE   W24
 BYTE   Gn2
 BYTE   W24
 BYTE   Bn2
 BYTE   W24
 BYTE   Dn3
 BYTE   W24
// 050   ----------------------------------------
 BYTE   N80  Cs3
 BYTE   W84
 BYTE   N11  Fs3
 BYTE   W12
// 051   ----------------------------------------
 BYTE   TIE  En3
 BYTE   W96
// 052   ----------------------------------------
 BYTE   W80
 BYTE   W03
 BYTE   EOT
 BYTE   W01
 BYTE   N11  Fs3
 BYTE   W12
// 053   ----------------------------------------
 BYTE   TIE  Cs3
 BYTE   W96
// 054   ----------------------------------------
 BYTE   W80
 BYTE   W03
 BYTE   EOT
 BYTE   W13
// 055   ----------------------------------------
 BYTE   VOL   30*PokemonBWEliteFourThemeZoramineFae_mvl/mxv
 BYTE   W96
// 056   ----------------------------------------
 BYTE   W96
// 057   ----------------------------------------
 BYTE   W96
// 058   ----------------------------------------
 BYTE   W96
// 059   ----------------------------------------
 BYTE   W96
// 060   ----------------------------------------
 BYTE   W96
// 061   ----------------------------------------
 BYTE   W96
// 062   ----------------------------------------
 BYTE   W36
 BYTE   N32  Fn3
 BYTE   N32  Fn4
 BYTE   W60
// 063   ----------------------------------------
 BYTE   GoTo
  POIN2 Label_7_013506A2
 BYTE   PATT
  POIN2 Label_7_0135079D
// 064   ----------------------------------------
 BYTE   N32  Fn3  v112
 BYTE   W36
 BYTE   N56  Cn4
 BYTE   W60
 BYTE   PATT
  POIN2 Label_7_0135079D
// 065   ----------------------------------------
 BYTE   N32  Dn3  v112
 BYTE   W36
 BYTE   N56  Cn3
 BYTE   W60
// 066   ----------------------------------------
 BYTE   VOICE   62
 BYTE   VOL   30*PokemonBWEliteFourThemeZoramineFae_mvl/mxv
 BYTE   Dn4  v074
 BYTE   BEND   c_v+0
 BYTE   FINE

//**************** Track 9 (Midi-Chn.8) ****************//

PokemonBWEliteFourThemeZoramineFae_009:
// 000   ----------------------------------------
 BYTE   KEYSH   PokemonBWEliteFourThemeZoramineFae_key+0
Label_8_013508F2:
 BYTE   VOICE   118
 BYTE   PAN   c_v+0
 BYTE   VOL   27*PokemonBWEliteFourThemeZoramineFae_mvl/mxv
 BYTE   PAN   c_v+0
 BYTE   VOL   27*PokemonBWEliteFourThemeZoramineFae_mvl/mxv
 BYTE   PAN   c_v+0
 BYTE   VOL   27*PokemonBWEliteFourThemeZoramineFae_mvl/mxv
 BYTE   PAN   c_v+0
 BYTE   En3
 BYTE   VOL   27*PokemonBWEliteFourThemeZoramineFae_mvl/mxv
 BYTE   PAN   c_v+0
 BYTE   BEND   c_v+0
 BYTE   W96
// 001   ----------------------------------------
 BYTE   W96
// 002   ----------------------------------------
 BYTE   W96
// 003   ----------------------------------------
 BYTE   W96
// 004   ----------------------------------------
Label_8_0135090D:
 BYTE   N20  Cn0  v127
 BYTE   W24
 BYTE   Cn0  v112
 BYTE   W24
 BYTE   N20
 BYTE   W24
 BYTE   N20
 BYTE   W24
 BYTE   PEND 
 BYTE   PATT
  POIN2 Label_8_0135090D
// 005   ----------------------------------------
 BYTE   W96
// 006   ----------------------------------------
 BYTE   W42
 BYTE   BEND   c_v+10
 BYTE   W06
 BYTE   PAN   c_v-63
 BYTE   BEND   c_v+9
 BYTE   N02  Cs3  v012
 BYTE   W03
 BYTE   PAN   c_v-60
 BYTE   N02  Cs3  v020
 BYTE   W03
 BYTE   PAN   c_v-57
 BYTE   BEND   c_v+8
 BYTE   N02  Cs3  v024
 BYTE   W03
 BYTE   PAN   c_v-54
 BYTE   N02
 BYTE   W03
 BYTE   PAN   c_v-51
 BYTE   BEND   c_v+6
 BYTE   N02  Cs3  v032
 BYTE   W03
 BYTE   PAN   c_v-48
 BYTE   N02  Cs3  v040
 BYTE   W03
 BYTE   PAN   c_v-45
 BYTE   BEND   c_v+4
 BYTE   N02  Cs3  v044
 BYTE   W03
 BYTE   PAN   c_v-41
 BYTE   N02  Cs3  v052
 BYTE   W03
 BYTE   PAN   c_v-39
 BYTE   BEND   c_v+2
 BYTE   N02  Cs3  v060
 BYTE   W03
 BYTE   PAN   c_v-33
 BYTE   N02  Cs3  v064
 BYTE   W03
 BYTE   PAN   c_v-28
 BYTE   BEND   c_v+1
 BYTE   N02  Cs3  v080
 BYTE   W03
 BYTE   PAN   c_v-23
 BYTE   N02  Cs3  v084
 BYTE   W03
 BYTE   PAN   c_v-16
 BYTE   BEND   c_v+0
 BYTE   N02  Cs3  v096
 BYTE   W03
 BYTE   PAN   c_v-8
 BYTE   N02  Cs3  v104
 BYTE   W03
 BYTE   PAN   c_v+9
 BYTE   BEND   c_v+0
 BYTE   N02  Cs3  v116
 BYTE   W03
 BYTE   PAN   c_v+15
 BYTE   N02
 BYTE   W03
// 007   ----------------------------------------
 BYTE   PAN   c_v+0
 BYTE   BEND   c_v+0
 BYTE   N21  Cn0  v127
 BYTE   N03  Ds0  v120
 BYTE   N44  Cs3  v127
 BYTE   N44  As3
 BYTE   W12
 BYTE   N03  Ds0  v120
 BYTE   W06
 BYTE   N03
 BYTE   W06
 BYTE   N21  Cn0
 BYTE   N03  Ds0
 BYTE   W12
 BYTE   N03
 BYTE   W06
 BYTE   N03
 BYTE   W06
 BYTE   N21  Cn0  v124
 BYTE   N03  Ds0  v120
 BYTE   W06
 BYTE   N03
 BYTE   W12
 BYTE   N03
 BYTE   W06
 BYTE   N21  Cn0  v124
 BYTE   N03  Ds0  v120
 BYTE   W06
 BYTE   N03
 BYTE   W12
 BYTE   N03
 BYTE   W06
// 008   ----------------------------------------
Label_8_013509C4:
 BYTE   N21  Cn0  v127
 BYTE   N03  Ds0  v120
 BYTE   W06
 BYTE   N03
 BYTE   W06
 BYTE   N03
 BYTE   W12
 BYTE   N21  Cn0  v124
 BYTE   N03  Ds0  v120
 BYTE   W06
 BYTE   N03
 BYTE   W12
 BYTE   N03
 BYTE   W06
 BYTE   N21  Cn0  v124
 BYTE   N03  Ds0  v120
 BYTE   W12
 BYTE   N03
 BYTE   W06
 BYTE   N03
 BYTE   W06
 BYTE   N21  Cn0  v124
 BYTE   N03  Ds0  v120
 BYTE   W12
 BYTE   N03
 BYTE   W12
 BYTE   PEND 
// 009   ----------------------------------------
Label_8_013509EF:
 BYTE   N21  Cn0  v127
 BYTE   N03  Ds0  v120
 BYTE   W12
 BYTE   N03
 BYTE   W06
 BYTE   N03
 BYTE   W06
 BYTE   N21  Cn0
 BYTE   N03  Ds0
 BYTE   W12
 BYTE   N03
 BYTE   W06
 BYTE   N03
 BYTE   W06
 BYTE   N21  Cn0  v124
 BYTE   N03  Ds0  v120
 BYTE   W06
 BYTE   N03
 BYTE   W12
 BYTE   N03
 BYTE   W06
 BYTE   N21  Cn0  v124
 BYTE   N03  Ds0  v120
 BYTE   W06
 BYTE   N03
 BYTE   W12
 BYTE   N03
 BYTE   W06
 BYTE   PEND 
 BYTE   PATT
  POIN2 Label_8_013509C4
 BYTE   PATT
  POIN2 Label_8_013509EF
 BYTE   PATT
  POIN2 Label_8_013509C4
 BYTE   PATT
  POIN2 Label_8_013509EF
 BYTE   PATT
  POIN2 Label_8_013509C4
 BYTE   PATT
  POIN2 Label_8_013509EF
 BYTE   PATT
  POIN2 Label_8_013509C4
 BYTE   PATT
  POIN2 Label_8_013509EF
 BYTE   PATT
  POIN2 Label_8_013509C4
// 010   ----------------------------------------
 BYTE   VOL   17*PokemonBWEliteFourThemeZoramineFae_mvl/mxv
 BYTE   N11  Cn0  v127
 BYTE   N11  Cs0  v112
 BYTE   W12
 BYTE   N11
 BYTE   N11  En0  v127
 BYTE   N48  An3
 BYTE   W12
 BYTE   N05  Cs0  v112
 BYTE   N11  Fn0  v127
 BYTE   W12
 BYTE   Cn0  v112
 BYTE   N05  Cs0  v088
 BYTE   W12
 BYTE   N11  Cs0  v127
 BYTE   W12
 BYTE   N05  Fn0
 BYTE   W06
 BYTE   Cs0  v080
 BYTE   N05  Fn0  v127
 BYTE   W06
 BYTE   N11  Cs0  v124
 BYTE   W12
 BYTE   Cn0  v112
 BYTE   N11  Cs0  v096
 BYTE   W12
// 011   ----------------------------------------
 BYTE   Cn0  v127
 BYTE   N11  Cs0  v112
 BYTE   W12
 BYTE   N11
 BYTE   N11  En0  v127
 BYTE   N48  Cs3
 BYTE   W12
 BYTE   N05  Cs0  v112
 BYTE   N11  Fn0  v127
 BYTE   W12
 BYTE   Cn0  v112
 BYTE   N05  Cs0  v088
 BYTE   W12
 BYTE   N11  Cs0  v127
 BYTE   W12
 BYTE   N05  Fn0
 BYTE   W06
 BYTE   Cs0  v080
 BYTE   N05  Fn0  v127
 BYTE   W06
 BYTE   N11  Cs0  v124
 BYTE   W12
 BYTE   Cn0  v112
 BYTE   N11  Cs0  v096
 BYTE   W12
// 012   ----------------------------------------
 BYTE   Cn0  v127
 BYTE   N11  Cs0  v112
 BYTE   W12
 BYTE   N11
 BYTE   N11  En0  v127
 BYTE   N48  Fn4
 BYTE   W12
 BYTE   N05  Cs0  v112
 BYTE   N11  Fn0  v127
 BYTE   W12
 BYTE   Cn0  v112
 BYTE   N05  Cs0  v088
 BYTE   W12
 BYTE   N11  Cs0  v127
 BYTE   W12
 BYTE   N05  Fn0
 BYTE   W06
 BYTE   Cs0  v080
 BYTE   N05  Fn0  v127
 BYTE   W06
 BYTE   N11  Cs0  v124
 BYTE   W12
 BYTE   Cn0  v112
 BYTE   N11  Cs0  v096
 BYTE   W12
// 013   ----------------------------------------
 BYTE   Cn0  v127
 BYTE   N11  Cs0  v112
 BYTE   W12
 BYTE   N11
 BYTE   N11  En0  v127
 BYTE   N48  An3
 BYTE   W12
 BYTE   N05  Cs0  v112
 BYTE   N11  Fn0  v127
 BYTE   W12
 BYTE   Cn0  v112
 BYTE   W12
 BYTE   N12  Cs0  v116
 BYTE   W12
 BYTE   N11  Cn0  v112
 BYTE   N01  Cs0
 BYTE   W06
 BYTE   N03  Cs0  v088
 BYTE   W06
 BYTE   N11  Cn0  v112
 BYTE   N03  Cs0  v127
 BYTE   W06
 BYTE   N03
 BYTE   W06
 BYTE   N11  Cn0  v120
 BYTE   N03  Cs0  v127
 BYTE   W06
 BYTE   N03
 BYTE   W06
// 014   ----------------------------------------
 BYTE   VOL   27*PokemonBWEliteFourThemeZoramineFae_mvl/mxv
 BYTE   N21  Cn0
 BYTE   N11  Cs0
 BYTE   N21  En0
 BYTE   N48  Fn4
 BYTE   W12
 BYTE   N05  Ds0  v120
 BYTE   W06
 BYTE   N05
 BYTE   W06
 BYTE   N21  Cn0
 BYTE   N05  Ds0
 BYTE   W12
 BYTE   N03
 BYTE   W06
 BYTE   N03
 BYTE   W06
 BYTE   N21  Cn0  v124
 BYTE   N03  Ds0  v120
 BYTE   W06
 BYTE   N03
 BYTE   W12
 BYTE   N03
 BYTE   W06
 BYTE   N21  Cn0  v124
 BYTE   N03  Ds0  v120
 BYTE   W06
 BYTE   N03
 BYTE   W12
 BYTE   N03
 BYTE   W06
// 015   ----------------------------------------
 BYTE   N21  Cn0  v127
 BYTE   N03  Ds0  v120
 BYTE   W06
 BYTE   N03
 BYTE   W06
 BYTE   N03
 BYTE   W12
 BYTE   N21  Cn0  v124
 BYTE   N03  Ds0  v120
 BYTE   W06
 BYTE   N03
 BYTE   W12
 BYTE   N03
 BYTE   W06
 BYTE   N21  Cn0  v124
 BYTE   N03  Ds0  v120
 BYTE   W12
 BYTE   N11  Cs0  v108
 BYTE   N03  Ds0  v120
 BYTE   W06
 BYTE   N03
 BYTE   W06
 BYTE   N21  Cn0  v124
 BYTE   N03  Cs0  v100
 BYTE   W06
 BYTE   Cs0  v088
 BYTE   W06
 BYTE   Cs0  v100
 BYTE   W06
 BYTE   Cs0  v092
 BYTE   W06
// 016   ----------------------------------------
 BYTE   N21  Cn0  v127
 BYTE   N11  Cs0  v104
 BYTE   W12
 BYTE   N03  Ds0  v120
 BYTE   W06
 BYTE   N03
 BYTE   W06
 BYTE   N21  Cn0
 BYTE   N03  Ds0
 BYTE   W12
 BYTE   N03
 BYTE   W06
 BYTE   N03
 BYTE   W06
 BYTE   N21  Cn0  v124
 BYTE   N03  Ds0  v120
 BYTE   W06
 BYTE   N03
 BYTE   W12
 BYTE   N03
 BYTE   W06
 BYTE   N21  Cn0  v124
 BYTE   N03  Ds0  v120
 BYTE   W06
 BYTE   N03
 BYTE   W12
 BYTE   N03
 BYTE   W05
 BYTE   N21  Cn0  v124
 BYTE   W01
// 017   ----------------------------------------
 BYTE   N03  Cs0  v108
 BYTE   N03  Ds0  v120
 BYTE   W06
 BYTE   N17  Cs0  v108
 BYTE   N03  Ds0  v120
 BYTE   W06
 BYTE   N03
 BYTE   N11  En0  v127
 BYTE   W12
 BYTE   N21  Cn0  v124
 BYTE   N03  Ds0  v120
 BYTE   W06
 BYTE   N03
 BYTE   W07
 BYTE   N17  Cs0  v108
 BYTE   W05
 BYTE   N03  Ds0  v120
 BYTE   W06
 BYTE   N21  Cn0  v124
 BYTE   N03  Ds0  v120
 BYTE   W12
 BYTE   Cs0  v076
 BYTE   N03  Ds0  v120
 BYTE   W06
 BYTE   Cs0  v056
 BYTE   N03  Ds0  v120
 BYTE   W06
 BYTE   N21  Cn0  v124
 BYTE   N03  Cs0  v096
 BYTE   N03  Ds0  v120
 BYTE   W06
 BYTE   Cs0  v084
 BYTE   W06
 BYTE   Cs0  v096
 BYTE   N03  Ds0  v120
 BYTE   W06
 BYTE   Cs0  v088
 BYTE   W06
// 018   ----------------------------------------
 BYTE   N21  Cn0  v127
 BYTE   N11  Cs0  v100
 BYTE   N03  Ds0  v120
 BYTE   W12
 BYTE   N03
 BYTE   W06
 BYTE   N03
 BYTE   W06
 BYTE   N20  Cn0
 BYTE   N03  Ds0
 BYTE   W12
 BYTE   N03
 BYTE   W06
 BYTE   N03
 BYTE   W06
 BYTE   N21  Cn0  v124
 BYTE   N17  Cs0  v092
 BYTE   N03  Ds0  v120
 BYTE   W06
 BYTE   N03
 BYTE   W12
 BYTE   N03
 BYTE   W06
 BYTE   N21  Cn0  v124
 BYTE   N03  Ds0  v120
 BYTE   W06
 BYTE   N03
 BYTE   W06
 BYTE   N11  Cs0  v100
 BYTE   W06
 BYTE   N03  Ds0  v120
 BYTE   W06
// 019   ----------------------------------------
 BYTE   N21  Cn0  v127
 BYTE   N03  Ds0  v120
 BYTE   W06
 BYTE   N03
 BYTE   W06
 BYTE   N11  Cs0  v100
 BYTE   N03  Ds0  v120
 BYTE   W12
 BYTE   N21  Cn0  v124
 BYTE   N11  Cs0  v092
 BYTE   N03  Ds0  v120
 BYTE   W06
 BYTE   N03
 BYTE   W06
 BYTE   Cs0  v108
 BYTE   W06
 BYTE   Cs0  v100
 BYTE   N03  Ds0  v120
 BYTE   W06
 BYTE   N21  Cn0  v124
 BYTE   N03  Cs0  v108
 BYTE   N03  Ds0  v120
 BYTE   W06
 BYTE   Cs0  v100
 BYTE   W06
 BYTE   Cs0  v108
 BYTE   N03  Ds0  v120
 BYTE   W06
 BYTE   Cs0  v100
 BYTE   N03  Ds0  v120
 BYTE   W06
 BYTE   N21  Cn0  v124
 BYTE   N11  Cs0  v100
 BYTE   N03  Ds0  v120
 BYTE   W12
 BYTE   N11  Cs0
 BYTE   N03  Ds0
 BYTE   W12
// 020   ----------------------------------------
 BYTE   N21  Cn0  v127
 BYTE   N11  Cs0  v092
 BYTE   N03  Ds0  v120
 BYTE   W12
 BYTE   Cs0  v096
 BYTE   N03  Ds0  v120
 BYTE   W06
 BYTE   Cs0  v076
 BYTE   N03  Ds0  v120
 BYTE   W06
 BYTE   N21  Cn0
 BYTE   N03  Cs0  v116
 BYTE   N03  Ds0  v120
 BYTE   W06
 BYTE   Cs0  v108
 BYTE   W06
 BYTE   N08  Cs0  v116
 BYTE   N03  Ds0  v120
 BYTE   W06
 BYTE   N03
 BYTE   W06
 BYTE   N21  Cn0  v124
 BYTE   N03  Cs0  v116
 BYTE   N03  Ds0  v120
 BYTE   W06
 BYTE   Cs0  v108
 BYTE   N03  Ds0  v120
 BYTE   W06
 BYTE   N11  Cs0  v116
 BYTE   W06
 BYTE   N03  Ds0  v120
 BYTE   W06
 BYTE   N21  Cn0  v124
 BYTE   N11  Cs0  v104
 BYTE   N03  Ds0  v120
 BYTE   W06
 BYTE   N03
 BYTE   W06
 BYTE   Cs0  v116
 BYTE   W06
 BYTE   Cs0  v108
 BYTE   N03  Ds0  v120
 BYTE   W06
// 021   ----------------------------------------
 BYTE   N21  Cn0  v127
 BYTE   N11  Cs0
 BYTE   N03  Ds0  v120
 BYTE   W06
 BYTE   N03
 BYTE   W06
 BYTE   Cs0  v116
 BYTE   N03  Ds0  v120
 BYTE   W06
 BYTE   Cs0  v108
 BYTE   W06
 BYTE   N21  Cn0  v124
 BYTE   N11  Cs0  v104
 BYTE   N03  Ds0  v120
 BYTE   W06
 BYTE   N03
 BYTE   W06
 BYTE   Cs0  v116
 BYTE   W06
 BYTE   Cs0  v108
 BYTE   N03  Ds0  v120
 BYTE   W06
 BYTE   N21  Cn0  v124
 BYTE   N03  Cs0  v116
 BYTE   N03  Ds0  v120
 BYTE   W06
 BYTE   Cs0  v108
 BYTE   W06
 BYTE   N11  Cs0  v116
 BYTE   N03  Ds0  v120
 BYTE   W06
 BYTE   N03
 BYTE   W06
 BYTE   N08  Cn0  v124
 BYTE   N11  Cs0  v127
 BYTE   N03  Ds0  v120
 BYTE   W12
 BYTE   N08  Cn0  v124
 BYTE   N03  Cs0  v116
 BYTE   N03  Ds0  v120
 BYTE   W06
 BYTE   Cs0  v127
 BYTE   W06
// 022   ----------------------------------------
 BYTE   N09  Cn0  v112
 BYTE   N05  Cs0  v096
 BYTE   W12
 BYTE   N17  Cn0  v112
 BYTE   N20  Cs0  v096
 BYTE   N56  An3  v116
 BYTE   W06
 BYTE   N03  Ds0  v120
 BYTE   W06
 BYTE   N03
 BYTE   W12
 BYTE   N17  Cn0  v112
 BYTE   N03  Ds0  v120
 BYTE   W06
 BYTE   N03
 BYTE   W06
 BYTE   N03
 BYTE   W06
 BYTE   N03
 BYTE   W06
 BYTE   N17  Cn0  v112
 BYTE   W06
 BYTE   N03  Ds0  v120
 BYTE   W06
 BYTE   N03
 BYTE   W06
 BYTE   N03
 BYTE   W06
 BYTE   N09  Cn0  v112
 BYTE   W06
 BYTE   N03  Ds0  v120
 BYTE   W06
// 023   ----------------------------------------
 BYTE   N09  Cn0  v112
 BYTE   N03  Ds0  v120
 BYTE   W06
 BYTE   N03
 BYTE   W06
 BYTE   N17  Cn0  v112
 BYTE   N03  Ds0  v120
 BYTE   W12
 BYTE   N03
 BYTE   W06
 BYTE   N03
 BYTE   W06
 BYTE   N17  Cn0  v112
 BYTE   W06
 BYTE   N03  Ds0  v120
 BYTE   W06
 BYTE   N03
 BYTE   W12
 BYTE   N09  Cn0  v112
 BYTE   N03  Ds0  v120
 BYTE   W06
 BYTE   N03
 BYTE   W06
 BYTE   N09  Cn0  v112
 BYTE   N03  Ds0  v120
 BYTE   W12
 BYTE   N09  Cn0  v112
 BYTE   N03  Ds0  v120
 BYTE   W12
// 024   ----------------------------------------
 BYTE   N09  Cn0  v112
 BYTE   N05  Cs0  v100
 BYTE   W12
 BYTE   N17  Cn0  v112
 BYTE   N20  Cs0  v092
 BYTE   N56  An3  v116
 BYTE   W06
 BYTE   N03  Ds0  v120
 BYTE   W06
 BYTE   N03
 BYTE   W12
 BYTE   N09  Cn0  v112
 BYTE   N03  Ds0  v120
 BYTE   W06
 BYTE   N03
 BYTE   W06
 BYTE   N09  Cn0  v112
 BYTE   N03  Ds0  v120
 BYTE   W06
 BYTE   N03
 BYTE   W06
 BYTE   N17  Cn0  v112
 BYTE   W06
 BYTE   N03  Ds0  v120
 BYTE   W06
 BYTE   N03
 BYTE   W06
 BYTE   N03
 BYTE   W06
 BYTE   N09  Cn0  v112
 BYTE   W06
 BYTE   N03  Ds0  v120
 BYTE   W06
// 025   ----------------------------------------
 BYTE   N09  Cn0  v112
 BYTE   N03  Ds0  v120
 BYTE   W06
 BYTE   N03
 BYTE   W06
 BYTE   N17  Cn0  v112
 BYTE   N03  Ds0  v120
 BYTE   W12
 BYTE   N03
 BYTE   W06
 BYTE   N03
 BYTE   W06
 BYTE   N17  Cn0  v112
 BYTE   W06
 BYTE   N03  Ds0  v120
 BYTE   W06
 BYTE   N03
 BYTE   W12
 BYTE   N09  Cn0  v112
 BYTE   N03  Ds0  v120
 BYTE   W06
 BYTE   N03
 BYTE   W06
 BYTE   N17  Cn0  v112
 BYTE   N03  Ds0  v120
 BYTE   W06
 BYTE   N03
 BYTE   W06
 BYTE   N03
 BYTE   W06
 BYTE   N03
 BYTE   W06
// 026   ----------------------------------------
Label_8_01350E06:
 BYTE   N21  Cn0  v127
 BYTE   W12
 BYTE   N03  Ds0  v120
 BYTE   W06
 BYTE   N03
 BYTE   W06
 BYTE   N21  Cn0
 BYTE   W12
 BYTE   N03  Ds0
 BYTE   W06
 BYTE   N03
 BYTE   W06
 BYTE   N21  Cn0  v124
 BYTE   W12
 BYTE   N03  Ds0  v120
 BYTE   W06
 BYTE   N03
 BYTE   W06
 BYTE   N21  Cn0  v124
 BYTE   N03  Ds0  v120
 BYTE   W06
 BYTE   N03
 BYTE   W12
 BYTE   N03
 BYTE   W06
 BYTE   PEND 
// 027   ----------------------------------------
Label_8_01350E2E:
 BYTE   N21  Cn0  v127
 BYTE   W12
 BYTE   N03  Ds0  v120
 BYTE   W06
 BYTE   N03
 BYTE   W06
 BYTE   N21  Cn0  v124
 BYTE   W12
 BYTE   N03  Ds0  v120
 BYTE   W06
 BYTE   N03
 BYTE   W06
 BYTE   N21  Cn0  v124
 BYTE   W12
 BYTE   N03  Ds0  v120
 BYTE   W06
 BYTE   N03
 BYTE   W06
 BYTE   N21  Cn0  v124
 BYTE   W12
 BYTE   N03  Ds0  v120
 BYTE   W06
 BYTE   N03
 BYTE   W06
 BYTE   PEND 
 BYTE   PATT
  POIN2 Label_8_01350E06
// 028   ----------------------------------------
 BYTE   N21  Cn0  v127
 BYTE   W12
 BYTE   N03  Ds0  v120
 BYTE   W06
 BYTE   N03
 BYTE   W06
 BYTE   N21  Cn0  v124
 BYTE   W12
 BYTE   N03  Ds0  v120
 BYTE   W06
 BYTE   N03
 BYTE   W06
 BYTE   N21  Cn0  v124
 BYTE   W12
 BYTE   N03  Ds0  v120
 BYTE   W06
 BYTE   N03
 BYTE   W06
 BYTE   N21  Cn0  v124
 BYTE   N03  Ds0  v120
 BYTE   W12
 BYTE   N03
 BYTE   W12
// 029   ----------------------------------------
 BYTE   N21  Cn0  v127
 BYTE   W12
 BYTE   N03  Ds0  v120
 BYTE   W06
 BYTE   N03
 BYTE   W06
 BYTE   N21  Cn0
 BYTE   W12
 BYTE   N03  Ds0
 BYTE   W06
 BYTE   N03
 BYTE   W06
 BYTE   N21  Cn0  v124
 BYTE   W12
 BYTE   N03  Ds0  v120
 BYTE   W06
 BYTE   N03
 BYTE   W06
 BYTE   N21  Cn0  v124
 BYTE   W12
 BYTE   N03  Ds0  v120
 BYTE   W06
 BYTE   N03
 BYTE   W06
// 030   ----------------------------------------
 BYTE   N21  Cn0  v127
 BYTE   W12
 BYTE   N03  Ds0  v120
 BYTE   W06
 BYTE   N03
 BYTE   W06
 BYTE   N21  Cn0  v124
 BYTE   N03  Ds0  v120
 BYTE   W06
 BYTE   N03
 BYTE   W12
 BYTE   N03
 BYTE   W06
 BYTE   N08  Cn0  v124
 BYTE   N03  Ds0  v120
 BYTE   W12
 BYTE   N09  Cn0  v127
 BYTE   N03  Ds0  v120
 BYTE   W12
 BYTE   N23  Fn4  v127
 BYTE   W12
 BYTE   N09  Cn0
 BYTE   N03  Ds0  v120
 BYTE   W12
// 031   ----------------------------------------
 BYTE   EnM1
 BYTE   N21  Cn0  v127
 BYTE   N56  Cs3
 BYTE   W12
 BYTE   N03  EnM1  v120
 BYTE   W06
 BYTE   N03
 BYTE   W06
 BYTE   N03
 BYTE   N21  Cn0
 BYTE   W12
 BYTE   N03  EnM1
 BYTE   W06
 BYTE   N03
 BYTE   W06
 BYTE   N03
 BYTE   N21  Cn0  v124
 BYTE   W06
 BYTE   N03  EnM1  v120
 BYTE   W12
 BYTE   N03
 BYTE   W06
 BYTE   N03
 BYTE   N21  Cn0  v124
 BYTE   W12
 BYTE   N11  BnM1
 BYTE   W12
// 032   ----------------------------------------
 BYTE   N03  EnM1  v120
 BYTE   N21  Cn0  v127
 BYTE   W06
 BYTE   N03  EnM1  v120
 BYTE   W06
 BYTE   N03
 BYTE   W12
 BYTE   N03
 BYTE   N21  Cn0  v124
 BYTE   W06
 BYTE   N03  EnM1  v120
 BYTE   W12
 BYTE   N03
 BYTE   W06
 BYTE   N03
 BYTE   N21  Cn0  v124
 BYTE   W12
 BYTE   N03  EnM1  v120
 BYTE   W06
 BYTE   N03
 BYTE   W06
 BYTE   N03
 BYTE   N21  Cn0  v124
 BYTE   W12
 BYTE   N11  BnM1  v127
 BYTE   W12
// 033   ----------------------------------------
 BYTE   N03  EnM1  v120
 BYTE   N21  Cn0  v127
 BYTE   W12
 BYTE   N03  EnM1  v120
 BYTE   W06
 BYTE   N03
 BYTE   W06
 BYTE   N03
 BYTE   N21  Cn0
 BYTE   W12
 BYTE   N03  EnM1
 BYTE   W06
 BYTE   N03
 BYTE   W06
 BYTE   N03
 BYTE   N21  Cn0  v124
 BYTE   W06
 BYTE   N03  EnM1  v120
 BYTE   W12
 BYTE   N03
 BYTE   W06
 BYTE   N03
 BYTE   N21  Cn0  v124
 BYTE   W06
 BYTE   N03  EnM1  v120
 BYTE   W06
 BYTE   N11  BnM1  v124
 BYTE   W12
// 034   ----------------------------------------
 BYTE   N03  EnM1  v120
 BYTE   N21  Cn0  v127
 BYTE   N20  Fn4  v112
 BYTE   W06
 BYTE   N03  EnM1  v120
 BYTE   W06
 BYTE   N11  AnM1
 BYTE   N11  Cs0  v092
 BYTE   W12
 BYTE   N03  EnM1  v120
 BYTE   N21  Cn0  v124
 BYTE   N20  Fn4  v092
 BYTE   W06
 BYTE   N03  EnM1  v120
 BYTE   W06
 BYTE   N05  AnM1
 BYTE   N08  Cs0  v096
 BYTE   W12
 BYTE   N05  BnM1  v116
 BYTE   N21  Cn0  v124
 BYTE   N20  Fn4  v112
 BYTE   W12
 BYTE   N08  AnM1  v120
 BYTE   N08  Cs0
 BYTE   W12
 BYTE   EnM1  v127
 BYTE   N08  BnM1
 BYTE   N21  Cn0  v124
 BYTE   N11  Cs0  v096
 BYTE   N20  Fn4  v100
 BYTE   W12
 BYTE   N02  EnM1  v120
 BYTE   N02  BnM1
 BYTE   N02  Cs0  v124
 BYTE   W06
 BYTE   N05  EnM1  v127
 BYTE   N05  BnM1  v120
 BYTE   N05  Cs0  v124
 BYTE   W06
// 035   ----------------------------------------
 BYTE   N21  Cn0  v127
 BYTE   N23  Cs0  v088
 BYTE   N05  Fs1  v112
 BYTE   N56  Bn3  v127
 BYTE   W12
 BYTE   N03  Ds0  v120
 BYTE   W06
 BYTE   N03
 BYTE   W06
 BYTE   N21  Cn0
 BYTE   W12
 BYTE   N03  Ds0
 BYTE   W06
 BYTE   N03
 BYTE   W06
 BYTE   N21  Cn0  v124
 BYTE   W12
 BYTE   N03  Ds0  v120
 BYTE   W06
 BYTE   N03
 BYTE   W06
 BYTE   N21  Cn0  v124
 BYTE   W12
 BYTE   N03  Ds0  v120
 BYTE   W06
 BYTE   N03
 BYTE   W06
 BYTE   PATT
  POIN2 Label_8_01350E2E
// 036   ----------------------------------------
 BYTE   N21  Cn0  v120
 BYTE   N09  Cs0  v088
 BYTE   W12
 BYTE   N03  Cs0  v100
 BYTE   N03  Ds0  v120
 BYTE   W06
 BYTE   Cs0  v092
 BYTE   N03  Ds0  v120
 BYTE   W06
 BYTE   N09  Cs0  v096
 BYTE   W12
 BYTE   N03
 BYTE   N03  Ds0  v120
 BYTE   W06
 BYTE   Cs0  v092
 BYTE   N03  Ds0  v120
 BYTE   W06
 BYTE   Cs0  v127
 BYTE   W06
 BYTE   N03
 BYTE   W06
 BYTE   N09  Cs0  v104
 BYTE   N03  Ds0  v120
 BYTE   W06
 BYTE   N03
 BYTE   W06
 BYTE   N11  Cs0  v127
 BYTE   W12
 BYTE   N08  Cn0  v124
 BYTE   N11  Cs0  v116
 BYTE   N03  Ds0  v120
 BYTE   W06
 BYTE   N03
 BYTE   W06
// 037   ----------------------------------------
 BYTE   N21  Cn0  v127
 BYTE   N09  Cs0  v104
 BYTE   W12
 BYTE   N03
 BYTE   N03  Ds0  v120
 BYTE   W06
 BYTE   Cs0  v104
 BYTE   N03  Ds0  v120
 BYTE   W06
 BYTE   N44  BnM1  v127
 BYTE   N21  Cn0  v124
 BYTE   N44  As3  v116
 BYTE   W12
 BYTE   N03  Ds0  v120
 BYTE   W06
 BYTE   N03
 BYTE   W06
 BYTE   N21  Cn0  v124
 BYTE   W12
 BYTE   N03  Ds0  v120
 BYTE   W06
 BYTE   N03
 BYTE   W06
 BYTE   N21  Cn0  v124
 BYTE   W12
 BYTE   N03  Ds0  v120
 BYTE   W12
 BYTE   PATT
  POIN2 Label_8_013509EF
 BYTE   PATT
  POIN2 Label_8_013509C4
 BYTE   PATT
  POIN2 Label_8_013509EF
// 038   ----------------------------------------
 BYTE   N21  Cn0  v127
 BYTE   N03  Ds0  v120
 BYTE   W06
 BYTE   N03
 BYTE   W06
 BYTE   N03
 BYTE   W12
 BYTE   N21  Cn0  v124
 BYTE   N03  Ds0  v120
 BYTE   W06
 BYTE   N03
 BYTE   W12
 BYTE   N03
 BYTE   W06
 BYTE   N08  Cn0  v124
 BYTE   N03  Ds0  v120
 BYTE   W12
 BYTE   N02  Cn0  v124
 BYTE   N03  Ds0  v120
 BYTE   W06
 BYTE   N02  Cn0  v124
 BYTE   N03  Ds0  v120
 BYTE   W06
 BYTE   N09  Cn0  v127
 BYTE   N03  Ds0  v120
 BYTE   W12
 BYTE   N09  Cn0  v127
 BYTE   N03  Ds0  v120
 BYTE   W12
 BYTE   PATT
  POIN2 Label_8_013509EF
 BYTE   PATT
  POIN2 Label_8_013509C4
 BYTE   PATT
  POIN2 Label_8_013509EF
 BYTE   PATT
  POIN2 Label_8_013509C4
 BYTE   PATT
  POIN2 Label_8_013509EF
 BYTE   PATT
  POIN2 Label_8_013509C4
 BYTE   PATT
  POIN2 Label_8_013509EF
 BYTE   PATT
  POIN2 Label_8_013509C4
// 039   ----------------------------------------
Label_8_013510CB:
 BYTE   N03  Ds0  v120
 BYTE   W12
 BYTE   N03
 BYTE   W06
 BYTE   N03
 BYTE   W06
 BYTE   N03
 BYTE   W12
 BYTE   N03
 BYTE   W06
 BYTE   N03
 BYTE   W06
 BYTE   N03
 BYTE   W06
 BYTE   N03
 BYTE   W12
 BYTE   N03
 BYTE   W06
 BYTE   N03
 BYTE   W06
 BYTE   N03
 BYTE   W12
 BYTE   N03
 BYTE   W06
 BYTE   PEND 
// 040   ----------------------------------------
Label_8_013510E6:
 BYTE   N03  Ds0  v120
 BYTE   W06
 BYTE   N03
 BYTE   W06
 BYTE   N03
 BYTE   W12
 BYTE   N03
 BYTE   W06
 BYTE   N03
 BYTE   W12
 BYTE   N03
 BYTE   W06
 BYTE   N03
 BYTE   W12
 BYTE   N03
 BYTE   W06
 BYTE   N03
 BYTE   W06
 BYTE   N03
 BYTE   W12
 BYTE   N03
 BYTE   W12
 BYTE   PEND 
 BYTE   PATT
  POIN2 Label_8_013510CB
 BYTE   PATT
  POIN2 Label_8_013510E6
// 041   ----------------------------------------
Label_8_01351109:
 BYTE   N21  Cn0  v127
 BYTE   N03  Ds0  v120
 BYTE   W12
 BYTE   N03
 BYTE   W06
 BYTE   N03
 BYTE   W06
 BYTE   N21  Cn0
 BYTE   N03  Ds0
 BYTE   W12
 BYTE   N03
 BYTE   W06
 BYTE   N03
 BYTE   W06
 BYTE   N21  Cn0  v124
 BYTE   N03  Ds0  v120
 BYTE   W06
 BYTE   N03
 BYTE   W12
 BYTE   N03
 BYTE   W06
 BYTE   N09  Cn0  v124
 BYTE   N03  Ds0  v120
 BYTE   W06
 BYTE   N03
 BYTE   W06
 BYTE   N09  Cn0  v124
 BYTE   W06
 BYTE   N03  Ds0  v120
 BYTE   W06
 BYTE   PEND 
// 042   ----------------------------------------
 BYTE   N21  Cn0  v127
 BYTE   N03  Ds0  v120
 BYTE   W06
 BYTE   N03
 BYTE   W06
 BYTE   N03
 BYTE   W12
 BYTE   N21  Cn0  v124
 BYTE   N03  Ds0  v120
 BYTE   W06
 BYTE   N03
 BYTE   W12
 BYTE   N03
 BYTE   W06
 BYTE   N21  Cn0  v124
 BYTE   N03  Ds0  v120
 BYTE   W12
 BYTE   N03
 BYTE   W06
 BYTE   N03
 BYTE   W06
 BYTE   N09  Cn0  v124
 BYTE   N03  Ds0  v120
 BYTE   W12
 BYTE   N09  Cn0  v124
 BYTE   N03  Ds0  v120
 BYTE   W12
 BYTE   PATT
  POIN2 Label_8_01351109
// 043   ----------------------------------------
 BYTE   N09  Cn0  v127
 BYTE   N03  Ds0  v120
 BYTE   W06
 BYTE   N03
 BYTE   W06
 BYTE   N09  Cn0  v127
 BYTE   N03  Ds0  v120
 BYTE   W12
 BYTE   N09  Cn0  v124
 BYTE   N03  Ds0  v120
 BYTE   W06
 BYTE   N03
 BYTE   W06
 BYTE   N09  Cn0  v124
 BYTE   W06
 BYTE   N03  Ds0  v120
 BYTE   W06
 BYTE   N09  Cn0  v124
 BYTE   N03  Ds0  v120
 BYTE   W06
 BYTE   N03
 BYTE   W06
 BYTE   N09  Cn0  v124
 BYTE   N03  Ds0  v120
 BYTE   W06
 BYTE   N03
 BYTE   W06
 BYTE   N08  Cn0  v124
 BYTE   N03  Cs0  v120
 BYTE   N23  Fn4
 BYTE   W12
 BYTE   N02  Cn0  v124
 BYTE   N03  Cs0  v120
 BYTE   W06
 BYTE   N02  Cn0  v124
 BYTE   N03  Cs0  v120
 BYTE   W06
// 044   ----------------------------------------
 BYTE   GoTo
  POIN2 Label_8_013508F2
// 045   ----------------------------------------
 BYTE   N21  Cn0  v127
 BYTE   N23  Cs0  v120
 BYTE   N03  Ds0
 BYTE   N44  An3
 BYTE   W12
 BYTE   N03  Ds0
 BYTE   W06
 BYTE   N03
 BYTE   W06
 BYTE   N21  Cn0
 BYTE   N03  Ds0
 BYTE   W12
 BYTE   N03
 BYTE   W06
 BYTE   N03
 BYTE   W06
 BYTE   N21  Cn0  v124
 BYTE   N03  Ds0  v120
 BYTE   W06
 BYTE   N03
 BYTE   W12
 BYTE   N03
 BYTE   W06
 BYTE   N21  Cn0  v124
 BYTE   N03  Ds0  v120
 BYTE   W06
 BYTE   N03
 BYTE   W12
 BYTE   N03
 BYTE   W06
 BYTE   PATT
  POIN2 Label_8_013509C4
 BYTE   PATT
  POIN2 Label_8_013509EF
 BYTE   PATT
  POIN2 Label_8_013509C4
// 046   ----------------------------------------
 BYTE   VOICE   118
 BYTE   PAN   c_v+0
 BYTE   VOL   27*PokemonBWEliteFourThemeZoramineFae_mvl/mxv
 BYTE   PAN   c_v+0
 BYTE   VOL   27*PokemonBWEliteFourThemeZoramineFae_mvl/mxv
 BYTE   PAN   c_v+0
 BYTE   VOL   27*PokemonBWEliteFourThemeZoramineFae_mvl/mxv
 BYTE   BEND   c_v+0
 BYTE   FINE

//**************** Track 10 (Midi-Chn.9) ****************//

PokemonBWEliteFourThemeZoramineFae_010:
// 000   ----------------------------------------
 BYTE   KEYSH   PokemonBWEliteFourThemeZoramineFae_key+0
Label_9_0135120E:
 BYTE   VOICE   47
 BYTE   PAN   c_v+0
 BYTE   VOL   19*PokemonBWEliteFourThemeZoramineFae_mvl/mxv
 BYTE   Ds3  v060
 BYTE   Cn3
 BYTE   BEND   c_v+0
 BYTE   W96
// 001   ----------------------------------------
 BYTE   W96
// 002   ----------------------------------------
 BYTE   W96
// 003   ----------------------------------------
 BYTE   W96
// 004   ----------------------------------------
 BYTE   W12
 BYTE   N11  Dn0  v112
 BYTE   W03
 BYTE   BEND   c_v+1
 BYTE   W03
 BYTE   Dn3
 BYTE   W03
 BYTE   Bn2
 BYTE   W03
 BYTE   En3
 BYTE   W12
 BYTE   N11
 BYTE   W03
 BYTE   BEND   c_v+1
 BYTE   W03
 BYTE   Dn3
 BYTE   W03
 BYTE   Bn2
 BYTE   W03
 BYTE   En3
 BYTE   W12
 BYTE   N11
 BYTE   W03
 BYTE   BEND   c_v+1
 BYTE   W03
 BYTE   Dn3
 BYTE   W03
 BYTE   Bn2
 BYTE   W03
 BYTE   En3
 BYTE   W12
 BYTE   N11
 BYTE   W03
 BYTE   BEND   c_v+1
 BYTE   W03
 BYTE   Dn3
 BYTE   W03
 BYTE   Bn2
 BYTE   W03
// 005   ----------------------------------------
 BYTE   En3
 BYTE   W12
 BYTE   N11
 BYTE   W03
 BYTE   BEND   c_v+1
 BYTE   W03
 BYTE   Dn3
 BYTE   W03
 BYTE   Bn2
 BYTE   W03
 BYTE   En3
 BYTE   W12
 BYTE   N11
 BYTE   W03
 BYTE   BEND   c_v+1
 BYTE   W03
 BYTE   Dn3
 BYTE   W03
 BYTE   Bn2
 BYTE   W03
 BYTE   En3
 BYTE   W12
 BYTE   N11
 BYTE   W03
 BYTE   BEND   c_v+1
 BYTE   W03
 BYTE   Dn3
 BYTE   W03
 BYTE   Bn2
 BYTE   W03
 BYTE   En3
 BYTE   W12
 BYTE   N11
 BYTE   W03
 BYTE   BEND   c_v+1
 BYTE   W03
 BYTE   Dn3
 BYTE   W03
 BYTE   Bn2
 BYTE   W03
// 006   ----------------------------------------
Label_9_01351276:
 BYTE   BEND   c_v+0
 BYTE   W06
 BYTE   N01  Gn2  v112
 BYTE   W06
 BYTE   N11  Dn0
 BYTE   W03
 BYTE   BEND   c_v+1
 BYTE   W03
 BYTE   Dn3
 BYTE   W03
 BYTE   Bn2
 BYTE   W03
 BYTE   En3
 BYTE   N01  As2
 BYTE   W06
 BYTE   Gn2
 BYTE   W06
 BYTE   N11  Dn0
 BYTE   W03
 BYTE   BEND   c_v+1
 BYTE   W03
 BYTE   Dn3
 BYTE   W03
 BYTE   Bn2
 BYTE   W03
 BYTE   En3
 BYTE   N01  As2
 BYTE   W06
 BYTE   Gn2
 BYTE   W06
 BYTE   N11  Dn0
 BYTE   W03
 BYTE   BEND   c_v+1
 BYTE   W03
 BYTE   Dn3
 BYTE   W03
 BYTE   Bn2
 BYTE   W03
 BYTE   En3
 BYTE   N01  As2
 BYTE   W06
 BYTE   Gn2
 BYTE   W06
 BYTE   N11  Dn0
 BYTE   W03
 BYTE   BEND   c_v+1
 BYTE   W03
 BYTE   Dn3
 BYTE   W03
 BYTE   Bn2
 BYTE   W03
 BYTE   PEND 
 BYTE   PATT
  POIN2 Label_9_01351276
// 007   ----------------------------------------
 BYTE   VOL   19*PokemonBWEliteFourThemeZoramineFae_mvl/mxv
 BYTE   BEND   c_v+0
 BYTE   N02  Fs2  v127
 BYTE   W06
 BYTE   Fs2  v084
 BYTE   W06
 BYTE   N11  As2  v112
 BYTE   W12
 BYTE   N02  Fs2
 BYTE   W06
 BYTE   Fs2  v076
 BYTE   W06
 BYTE   N11  As2  v108
 BYTE   W12
 BYTE   N02  Fs2  v127
 BYTE   W06
 BYTE   Fs2  v076
 BYTE   W06
 BYTE   N11  As2  v100
 BYTE   W12
 BYTE   N02  Fs2  v116
 BYTE   W06
 BYTE   Fs2  v080
 BYTE   W06
 BYTE   N11  As2  v112
 BYTE   W12
// 008   ----------------------------------------
Label_9_013512EC:
 BYTE   N02  Fs2  v127
 BYTE   W06
 BYTE   Fs2  v084
 BYTE   W06
 BYTE   N11  As2  v112
 BYTE   W12
 BYTE   N02  Fs2
 BYTE   W06
 BYTE   Fs2  v076
 BYTE   W06
 BYTE   N11  As2  v108
 BYTE   W12
 BYTE   N02  Fs2  v127
 BYTE   W06
 BYTE   Fs2  v076
 BYTE   W06
 BYTE   N11  As2  v100
 BYTE   W12
 BYTE   N02  Fs2  v116
 BYTE   W06
 BYTE   Fs2  v080
 BYTE   W06
 BYTE   N11  As2  v112
 BYTE   W12
 BYTE   PEND 
 BYTE   PATT
  POIN2 Label_9_013512EC
 BYTE   PATT
  POIN2 Label_9_013512EC
 BYTE   PATT
  POIN2 Label_9_013512EC
 BYTE   PATT
  POIN2 Label_9_013512EC
 BYTE   PATT
  POIN2 Label_9_013512EC
 BYTE   PATT
  POIN2 Label_9_013512EC
 BYTE   PATT
  POIN2 Label_9_013512EC
 BYTE   PATT
  POIN2 Label_9_013512EC
 BYTE   PATT
  POIN2 Label_9_013512EC
 BYTE   PATT
  POIN2 Label_9_013512EC
 BYTE   PATT
  POIN2 Label_9_013512EC
 BYTE   PATT
  POIN2 Label_9_013512EC
 BYTE   PATT
  POIN2 Label_9_013512EC
 BYTE   PATT
  POIN2 Label_9_013512EC
 BYTE   PATT
  POIN2 Label_9_013512EC
 BYTE   PATT
  POIN2 Label_9_013512EC
 BYTE   PATT
  POIN2 Label_9_013512EC
// 009   ----------------------------------------
 BYTE   N02  Fs2  v127
 BYTE   W06
 BYTE   Fs2  v084
 BYTE   W06
 BYTE   N11  As2  v112
 BYTE   W12
 BYTE   N02  Fs2
 BYTE   W06
 BYTE   Fs2  v076
 BYTE   W06
 BYTE   N11  As2  v108
 BYTE   W12
 BYTE   N05  Fs2  v127
 BYTE   W06
 BYTE   Fs2  v108
 BYTE   W06
 BYTE   Fs2  v127
 BYTE   W06
 BYTE   Fs2  v108
 BYTE   W06
 BYTE   Fs2  v127
 BYTE   W06
 BYTE   Fs2  v108
 BYTE   W06
 BYTE   Fs2  v127
 BYTE   W06
 BYTE   Fs2  v108
 BYTE   W06
 BYTE   PATT
  POIN2 Label_9_013512EC
 BYTE   PATT
  POIN2 Label_9_013512EC
 BYTE   PATT
  POIN2 Label_9_013512EC
 BYTE   PATT
  POIN2 Label_9_013512EC
 BYTE   PATT
  POIN2 Label_9_013512EC
 BYTE   PATT
  POIN2 Label_9_013512EC
 BYTE   PATT
  POIN2 Label_9_013512EC
 BYTE   PATT
  POIN2 Label_9_013512EC
 BYTE   PATT
  POIN2 Label_9_013512EC
 BYTE   PATT
  POIN2 Label_9_013512EC
 BYTE   PATT
  POIN2 Label_9_013512EC
 BYTE   PATT
  POIN2 Label_9_013512EC
 BYTE   PATT
  POIN2 Label_9_013512EC
 BYTE   PATT
  POIN2 Label_9_013512EC
 BYTE   PATT
  POIN2 Label_9_013512EC
 BYTE   PATT
  POIN2 Label_9_013512EC
 BYTE   PATT
  POIN2 Label_9_013512EC
 BYTE   PATT
  POIN2 Label_9_013512EC
 BYTE   PATT
  POIN2 Label_9_013512EC
 BYTE   PATT
  POIN2 Label_9_013512EC
 BYTE   PATT
  POIN2 Label_9_013512EC
 BYTE   PATT
  POIN2 Label_9_013512EC
 BYTE   PATT
  POIN2 Label_9_013512EC
 BYTE   PATT
  POIN2 Label_9_013512EC
 BYTE   PATT
  POIN2 Label_9_013512EC
 BYTE   PATT
  POIN2 Label_9_013512EC
 BYTE   PATT
  POIN2 Label_9_013512EC
 BYTE   PATT
  POIN2 Label_9_013512EC
 BYTE   PATT
  POIN2 Label_9_013512EC
 BYTE   PATT
  POIN2 Label_9_013512EC
 BYTE   PATT
  POIN2 Label_9_013512EC
 BYTE   PATT
  POIN2 Label_9_013512EC
 BYTE   PATT
  POIN2 Label_9_013512EC
 BYTE   PATT
  POIN2 Label_9_013512EC
// 010   ----------------------------------------
 BYTE   W96
// 011   ----------------------------------------
 BYTE   W96
// 012   ----------------------------------------
 BYTE   W96
// 013   ----------------------------------------
 BYTE   W96
// 014   ----------------------------------------
 BYTE   W96
// 015   ----------------------------------------
 BYTE   W96
// 016   ----------------------------------------
 BYTE   W96
// 017   ----------------------------------------
 BYTE   W96
// 018   ----------------------------------------
 BYTE   GoTo
  POIN2 Label_9_0135120E
// 019   ----------------------------------------
 BYTE   W06
 BYTE   N02  Fs2  v084
 BYTE   W06
 BYTE   N11  As2  v112
 BYTE   W12
 BYTE   N02  Fs2
 BYTE   W06
 BYTE   Fs2  v076
 BYTE   W06
 BYTE   N11  As2  v108
 BYTE   W12
 BYTE   N02  Fs2  v127
 BYTE   W06
 BYTE   Fs2  v076
 BYTE   W06
 BYTE   N11  As2  v100
 BYTE   W12
 BYTE   N02  Fs2  v116
 BYTE   W06
 BYTE   Fs2  v080
 BYTE   W06
 BYTE   N11  As2  v112
 BYTE   W12
 BYTE   PATT
  POIN2 Label_9_013512EC
 BYTE   PATT
  POIN2 Label_9_013512EC
 BYTE   PATT
  POIN2 Label_9_013512EC
// 020   ----------------------------------------
 BYTE   VOICE   47
 BYTE   VOL   19*PokemonBWEliteFourThemeZoramineFae_mvl/mxv
 BYTE   Ds3  v063
 BYTE   BEND   c_v+0
 BYTE   FINE

//**************** Track 11 (Midi-Chn.10) ****************//

PokemonBWEliteFourThemeZoramineFae_011:
// 000   ----------------------------------------
 BYTE   KEYSH   PokemonBWEliteFourThemeZoramineFae_key+0
Label_10_01351496:
 BYTE   VOICE   41
 BYTE   PAN   c_v-1
 BYTE   VOL   74*PokemonBWEliteFourThemeZoramineFae_mvl/mxv
 BYTE   As7  v080
 BYTE   Gs4
 BYTE   BEND   c_v+0
 BYTE   W96
// 001   ----------------------------------------
 BYTE   W96
// 002   ----------------------------------------
 BYTE   W96
// 003   ----------------------------------------
 BYTE   W96
// 004   ----------------------------------------
 BYTE   W96
// 005   ----------------------------------------
 BYTE   W96
// 006   ----------------------------------------
 BYTE   W96
// 007   ----------------------------------------
 BYTE   W96
// 008   ----------------------------------------
 BYTE   W96
// 009   ----------------------------------------
 BYTE   W96
// 010   ----------------------------------------
 BYTE   W96
// 011   ----------------------------------------
 BYTE   W96
// 012   ----------------------------------------
 BYTE   W96
// 013   ----------------------------------------
 BYTE   W96
// 014   ----------------------------------------
 BYTE   W96
// 015   ----------------------------------------
 BYTE   W96
// 016   ----------------------------------------
 BYTE   W96
// 017   ----------------------------------------
 BYTE   W96
// 018   ----------------------------------------
 BYTE   W96
// 019   ----------------------------------------
 BYTE   W96
// 020   ----------------------------------------
 BYTE   VOL   74*PokemonBWEliteFourThemeZoramineFae_mvl/mxv
 BYTE   W96
// 021   ----------------------------------------
 BYTE   W96
// 022   ----------------------------------------
 BYTE   W96
// 023   ----------------------------------------
 BYTE   W96
// 024   ----------------------------------------
 BYTE   W96
// 025   ----------------------------------------
 BYTE   W96
// 026   ----------------------------------------
 BYTE   W96
// 027   ----------------------------------------
 BYTE   W96
// 028   ----------------------------------------
 BYTE   W96
// 029   ----------------------------------------
 BYTE   W96
// 030   ----------------------------------------
 BYTE   W96
// 031   ----------------------------------------
 BYTE   W96
// 032   ----------------------------------------
 BYTE   Cn4
 BYTE   W96
// 033   ----------------------------------------
 BYTE   N05  Gn2  v076
 BYTE   W06
 BYTE   Bn2  v072
 BYTE   W06
 BYTE   Dn3  v068
 BYTE   W06
 BYTE   Bn2
 BYTE   W06
 BYTE   Dn3
 BYTE   W06
 BYTE   Gn3
 BYTE   W06
 BYTE   Dn3  v072
 BYTE   W06
 BYTE   Gn3  v080
 BYTE   W06
 BYTE   Bn3  v088
 BYTE   W06
 BYTE   Gn3  v092
 BYTE   W06
 BYTE   Bn3  v096
 BYTE   W06
 BYTE   Dn4  v092
 BYTE   W06
 BYTE   Bn3
 BYTE   W06
 BYTE   Dn4  v096
 BYTE   W06
 BYTE   N56  Gn4  v116
 BYTE   W12
// 034   ----------------------------------------
 BYTE   W96
// 035   ----------------------------------------
 BYTE   N05  Gn2  v076
 BYTE   W06
 BYTE   Bn2  v072
 BYTE   W06
 BYTE   Dn3  v068
 BYTE   W06
 BYTE   Bn2
 BYTE   W06
 BYTE   Dn3
 BYTE   W06
 BYTE   Gn3
 BYTE   W06
 BYTE   Dn3  v072
 BYTE   W06
 BYTE   Gn3  v080
 BYTE   W06
 BYTE   Bn3  v088
 BYTE   W06
 BYTE   Gn3  v092
 BYTE   W06
 BYTE   Bn3  v096
 BYTE   W06
 BYTE   Dn4  v088
 BYTE   W06
 BYTE   Bn3  v092
 BYTE   W06
 BYTE   Dn4
 BYTE   W06
 BYTE   N56  Gn4  v116
 BYTE   W12
// 036   ----------------------------------------
 BYTE   W96
// 037   ----------------------------------------
 BYTE   W96
// 038   ----------------------------------------
 BYTE   W96
// 039   ----------------------------------------
 BYTE   W96
// 040   ----------------------------------------
 BYTE   W96
// 041   ----------------------------------------
 BYTE   W96
// 042   ----------------------------------------
 BYTE   VOL   32*PokemonBWEliteFourThemeZoramineFae_mvl/mxv
 BYTE   N05  Cs3  v044
 BYTE   W06
 BYTE   Fs2  v052
 BYTE   W06
 BYTE   Cs3  v056
 BYTE   W06
 BYTE   Fs3  v064
 BYTE   W06
 BYTE   En4  v068
 BYTE   W06
 BYTE   Cs4  v072
 BYTE   W06
 BYTE   Bn3
 BYTE   W06
 BYTE   Cs4
 BYTE   W06
 BYTE   Fs4
 BYTE   W06
 BYTE   Gn4
 BYTE   W06
 BYTE   Fs4
 BYTE   W06
 BYTE   Cn4  v064
 BYTE   W06
 BYTE   Cs4
 BYTE   W06
 BYTE   Dn4  v060
 BYTE   W06
 BYTE   Cs4  v056
 BYTE   W06
 BYTE   Gn3  v052
 BYTE   W06
// 043   ----------------------------------------
 BYTE   Cs3  v048
 BYTE   W06
 BYTE   Fs2
 BYTE   W06
 BYTE   Cs3  v052
 BYTE   W06
 BYTE   Fs3  v056
 BYTE   W06
 BYTE   En4
 BYTE   W06
 BYTE   Cs4  v068
 BYTE   W06
 BYTE   Bn3  v072
 BYTE   W06
 BYTE   Cs4  v076
 BYTE   W06
 BYTE   Fs4
 BYTE   W06
 BYTE   Gn4
 BYTE   W06
 BYTE   Fs4  v072
 BYTE   W06
 BYTE   Cn4  v068
 BYTE   W06
 BYTE   Cs4
 BYTE   W06
 BYTE   Dn4  v064
 BYTE   W06
 BYTE   Cs4  v060
 BYTE   W06
 BYTE   Gn3  v052
 BYTE   W06
// 044   ----------------------------------------
 BYTE   Cs3  v048
 BYTE   W12
 BYTE   Cs3  v052
 BYTE   W06
 BYTE   Fs3  v056
 BYTE   W06
 BYTE   En4
 BYTE   W06
 BYTE   Cs4  v068
 BYTE   W06
 BYTE   Bn3  v072
 BYTE   W06
 BYTE   Cs4  v076
 BYTE   W06
 BYTE   Fs4
 BYTE   W06
 BYTE   Gn4
 BYTE   W06
 BYTE   Fs4  v072
 BYTE   W06
 BYTE   Cn4  v068
 BYTE   W06
 BYTE   Cs4
 BYTE   W06
 BYTE   Dn4  v064
 BYTE   W06
 BYTE   Cs4  v060
 BYTE   W06
 BYTE   Gn3  v052
 BYTE   W06
// 045   ----------------------------------------
 BYTE   Gn4  v088
 BYTE   W06
 BYTE   An4  v080
 BYTE   W06
 BYTE   Gn4
 BYTE   W06
 BYTE   Dn4  v072
 BYTE   W06
 BYTE   Bn3  v056
 BYTE   W06
 BYTE   Dn4  v052
 BYTE   W06
 BYTE   Bn3  v044
 BYTE   W06
 BYTE   Gn3
 BYTE   W06
 BYTE   Cs3  v048
 BYTE   W06
 BYTE   Gn3
 BYTE   W06
 BYTE   Fs3  v056
 BYTE   W06
 BYTE   Dn4  v060
 BYTE   W06
 BYTE   Bn3  v068
 BYTE   W06
 BYTE   Gn4  v072
 BYTE   W06
 BYTE   Bn4  v064
 BYTE   W06
 BYTE   Gn5  v060
 BYTE   W06
// 046   ----------------------------------------
 BYTE   W96
// 047   ----------------------------------------
 BYTE   W96
// 048   ----------------------------------------
 BYTE   W96
// 049   ----------------------------------------
 BYTE   W96
// 050   ----------------------------------------
 BYTE   W24
 BYTE   VOL   22*PokemonBWEliteFourThemeZoramineFae_mvl/mxv
 BYTE   N01  En3  v112
 BYTE   W06
 BYTE   Gs3
 BYTE   W06
 BYTE   Bn3
 BYTE   W06
 BYTE   En4
 BYTE   W06
 BYTE   Bn3
 BYTE   W06
 BYTE   Gs3
 BYTE   W06
 BYTE   En3
 BYTE   W06
 BYTE   Gs3
 BYTE   W06
 BYTE   Bn3
 BYTE   W06
 BYTE   Gs3
 BYTE   W06
 BYTE   En3
 BYTE   W06
 BYTE   Gs3
 BYTE   W06
// 051   ----------------------------------------
 BYTE   Bn3
 BYTE   W06
 BYTE   En4
 BYTE   W06
 BYTE   Bn3
 BYTE   W06
 BYTE   Gs3
 BYTE   W06
 BYTE   Bn3
 BYTE   W06
 BYTE   En4
 BYTE   W06
 BYTE   Gs4
 BYTE   W06
 BYTE   En4
 BYTE   W06
 BYTE   Bn3
 BYTE   W06
 BYTE   Gs3
 BYTE   W06
 BYTE   Bn3
 BYTE   W06
 BYTE   En4
 BYTE   W06
 BYTE   Bn3
 BYTE   W06
 BYTE   Gs3
 BYTE   W06
 BYTE   Bn3
 BYTE   W06
 BYTE   En4
 BYTE   W06
// 052   ----------------------------------------
 BYTE   W24
 BYTE   Fs3
 BYTE   W06
 BYTE   As3
 BYTE   W06
 BYTE   Cs4
 BYTE   W06
 BYTE   Fs4
 BYTE   W06
 BYTE   Cs4
 BYTE   W06
 BYTE   As3
 BYTE   W06
 BYTE   Fs3
 BYTE   W06
 BYTE   As3
 BYTE   W06
 BYTE   Cs4
 BYTE   W06
 BYTE   As3
 BYTE   W06
 BYTE   Fs3
 BYTE   W06
 BYTE   As3
 BYTE   W06
// 053   ----------------------------------------
 BYTE   Cs4
 BYTE   W06
 BYTE   Fs4
 BYTE   W06
 BYTE   Cs4
 BYTE   W06
 BYTE   As3
 BYTE   W06
 BYTE   Cs4
 BYTE   W06
 BYTE   Fs4
 BYTE   W06
 BYTE   As4
 BYTE   W06
 BYTE   Fs4
 BYTE   W06
 BYTE   Cs4
 BYTE   W06
 BYTE   As3
 BYTE   W06
 BYTE   Cs4
 BYTE   W06
 BYTE   Fs4
 BYTE   W06
 BYTE   Cs4
 BYTE   W06
 BYTE   As3
 BYTE   W06
 BYTE   Cs4
 BYTE   W06
 BYTE   Fs4
 BYTE   W06
// 054   ----------------------------------------
 BYTE   VOL   25*PokemonBWEliteFourThemeZoramineFae_mvl/mxv
 BYTE   N05  Fs3
 BYTE   W12
 BYTE   Cs3  v088
 BYTE   W12
 BYTE   Fs3  v104
 BYTE   W12
 BYTE   Cs4  v112
 BYTE   W12
 BYTE   Fs3  v088
 BYTE   W12
 BYTE   Cs4  v104
 BYTE   W12
 BYTE   Fs4  v112
 BYTE   W12
 BYTE   Cs4  v088
 BYTE   W12
// 055   ----------------------------------------
 BYTE   Gn4  v124
 BYTE   W12
 BYTE   Dn4  v096
 BYTE   W12
 BYTE   Gn4  v116
 BYTE   W12
 BYTE   Dn4  v096
 BYTE   W12
 BYTE   Gn4  v100
 BYTE   W12
 BYTE   Dn4  v072
 BYTE   W12
 BYTE   Fs4  v104
 BYTE   W12
 BYTE   Cs4  v088
 BYTE   W12
// 056   ----------------------------------------
 BYTE   En4  v104
 BYTE   W12
 BYTE   Bn3  v088
 BYTE   W12
 BYTE   Dn4  v104
 BYTE   W12
 BYTE   Gn3  v088
 BYTE   W12
 BYTE   Cs4  v104
 BYTE   W12
 BYTE   En3  v088
 BYTE   W12
 BYTE   Bn3  v104
 BYTE   W12
 BYTE   Dn3  v088
 BYTE   W12
// 057   ----------------------------------------
 BYTE   As3  v104
 BYTE   W12
 BYTE   Fs3
 BYTE   W12
 BYTE   Cs4  v084
 BYTE   W12
 BYTE   Fs3  v072
 BYTE   W12
 BYTE   As3  v084
 BYTE   W12
 BYTE   Fs3  v072
 BYTE   W10
 BYTE   Cs4  v080
 BYTE   W14
 BYTE   Fs3  v068
 BYTE   W12
// 058   ----------------------------------------
 BYTE   VOL   16*PokemonBWEliteFourThemeZoramineFae_mvl/mxv
 BYTE   N05  Gs2  v104
 BYTE   W12
 BYTE   Ds3  v096
 BYTE   W12
 BYTE   Ds4
 BYTE   W12
 BYTE   Bn3
 BYTE   W12
 BYTE   Gs2  v104
 BYTE   W06
 BYTE   Ds3
 BYTE   W06
 BYTE   Bn2
 BYTE   W12
 BYTE   Ds4  v096
 BYTE   W12
 BYTE   Bn3
 BYTE   W12
// 059   ----------------------------------------
 BYTE   Gs2  v104
 BYTE   W12
 BYTE   Ds3  v096
 BYTE   W12
 BYTE   Ds4
 BYTE   W12
 BYTE   Bn3
 BYTE   W12
 BYTE   Gs2  v104
 BYTE   W06
 BYTE   Ds3
 BYTE   W06
 BYTE   Bn2
 BYTE   W12
 BYTE   Ds4  v096
 BYTE   W12
 BYTE   Bn3
 BYTE   W12
// 060   ----------------------------------------
Label_10_013516DA:
 BYTE   N05  As2  v104
 BYTE   W12
 BYTE   Fs3  v096
 BYTE   W12
 BYTE   Fs4
 BYTE   W12
 BYTE   Cs4
 BYTE   W12
 BYTE   As2  v104
 BYTE   W06
 BYTE   Fs3
 BYTE   W06
 BYTE   Cs3
 BYTE   W12
 BYTE   Fs4  v096
 BYTE   W12
 BYTE   Cs4
 BYTE   W12
 BYTE   PEND 
 BYTE   PATT
  POIN2 Label_10_013516DA
// 061   ----------------------------------------
 BYTE   W96
// 062   ----------------------------------------
 BYTE   W96
// 063   ----------------------------------------
 BYTE   W96
// 064   ----------------------------------------
 BYTE   W96
// 065   ----------------------------------------
 BYTE   W96
// 066   ----------------------------------------
 BYTE   W96
// 067   ----------------------------------------
 BYTE   W96
// 068   ----------------------------------------
 BYTE   W96
// 069   ----------------------------------------
 BYTE   GoTo
  POIN2 Label_10_01351496
// 070   ----------------------------------------
 BYTE   W96
// 071   ----------------------------------------
 BYTE   W96
// 072   ----------------------------------------
 BYTE   W96
// 073   ----------------------------------------
 BYTE   W96
// 074   ----------------------------------------
 BYTE   VOICE   41
 BYTE   VOL   16*PokemonBWEliteFourThemeZoramineFae_mvl/mxv
 BYTE   Cn3  v060
 BYTE   BEND   c_v+0
 BYTE   FINE

//**************** Track 12 (Midi-Chn.11) ****************//

PokemonBWEliteFourThemeZoramineFae_012:
// 000   ----------------------------------------
 BYTE   KEYSH   PokemonBWEliteFourThemeZoramineFae_key+0
Label_11_01351716:
 BYTE   VOICE   1
 BYTE   PAN   c_v+0
 BYTE   VOL   56*PokemonBWEliteFourThemeZoramineFae_mvl/mxv
 BYTE   PAN   c_v+0
 BYTE   VOL   56*PokemonBWEliteFourThemeZoramineFae_mvl/mxv
 BYTE   PAN   c_v+0
 BYTE   VOL   56*PokemonBWEliteFourThemeZoramineFae_mvl/mxv
 BYTE   PAN   c_v+0
 BYTE   VOL   56*PokemonBWEliteFourThemeZoramineFae_mvl/mxv
 BYTE   BEND   c_v+0
 BYTE   W96
// 001   ----------------------------------------
 BYTE   W96
// 002   ----------------------------------------
 BYTE   W96
// 003   ----------------------------------------
 BYTE   W96
// 004   ----------------------------------------
 BYTE   W96
// 005   ----------------------------------------
 BYTE   W96
// 006   ----------------------------------------
 BYTE   W96
// 007   ----------------------------------------
 BYTE   W96
// 008   ----------------------------------------
 BYTE   W96
// 009   ----------------------------------------
 BYTE   W96
// 010   ----------------------------------------
 BYTE   W96
// 011   ----------------------------------------
 BYTE   W96
// 012   ----------------------------------------
 BYTE   W96
// 013   ----------------------------------------
 BYTE   W96
// 014   ----------------------------------------
 BYTE   W96
// 015   ----------------------------------------
 BYTE   W96
// 016   ----------------------------------------
 BYTE   W96
// 017   ----------------------------------------
 BYTE   W96
// 018   ----------------------------------------
 BYTE   W96
// 019   ----------------------------------------
 BYTE   W96
// 020   ----------------------------------------
 BYTE   W12
 BYTE   N05  Cn2  v112
 BYTE   W84
// 021   ----------------------------------------
 BYTE   W12
 BYTE   N05
 BYTE   W84
// 022   ----------------------------------------
 BYTE   W96
// 023   ----------------------------------------
 BYTE   W96
// 024   ----------------------------------------
 BYTE   W96
// 025   ----------------------------------------
 BYTE   W96
// 026   ----------------------------------------
 BYTE   W96
// 027   ----------------------------------------
 BYTE   W96
// 028   ----------------------------------------
 BYTE   W96
// 029   ----------------------------------------
 BYTE   W96
// 030   ----------------------------------------
 BYTE   W96
// 031   ----------------------------------------
 BYTE   W96
// 032   ----------------------------------------
 BYTE   W96
// 033   ----------------------------------------
 BYTE   W96
// 034   ----------------------------------------
 BYTE   W96
// 035   ----------------------------------------
 BYTE   W96
// 036   ----------------------------------------
 BYTE   W96
// 037   ----------------------------------------
 BYTE   W96
// 038   ----------------------------------------
 BYTE   W96
// 039   ----------------------------------------
 BYTE   W96
// 040   ----------------------------------------
 BYTE   W96
// 041   ----------------------------------------
 BYTE   W96
// 042   ----------------------------------------
 BYTE   W96
// 043   ----------------------------------------
 BYTE   W96
// 044   ----------------------------------------
 BYTE   W96
// 045   ----------------------------------------
 BYTE   W96
// 046   ----------------------------------------
 BYTE   W96
// 047   ----------------------------------------
 BYTE   W96
// 048   ----------------------------------------
 BYTE   W96
// 049   ----------------------------------------
 BYTE   W96
// 050   ----------------------------------------
 BYTE   W96
// 051   ----------------------------------------
 BYTE   W96
// 052   ----------------------------------------
 BYTE   W96
// 053   ----------------------------------------
 BYTE   W96
// 054   ----------------------------------------
 BYTE   W96
// 055   ----------------------------------------
 BYTE   W96
// 056   ----------------------------------------
 BYTE   W96
// 057   ----------------------------------------
 BYTE   W96
// 058   ----------------------------------------
 BYTE   W96
// 059   ----------------------------------------
 BYTE   W96
// 060   ----------------------------------------
 BYTE   W96
// 061   ----------------------------------------
 BYTE   W96
// 062   ----------------------------------------
 BYTE   Fn4
 BYTE   N05  Fn5
 BYTE   W06
 BYTE   N02  Ds4
 BYTE   N02  Ds5
 BYTE   W06
 BYTE   N05  Cs4
 BYTE   N05  Cs5
 BYTE   W06
 BYTE   N02  Bn3
 BYTE   N02  Bn4
 BYTE   W06
 BYTE   N05  As3
 BYTE   N05  As4
 BYTE   W06
 BYTE   N02  Gs3
 BYTE   N02  Gs4
 BYTE   W06
 BYTE   N05  Fs3
 BYTE   N05  Fs4
 BYTE   W06
 BYTE   N02  Fn3
 BYTE   N02  Fn4
 BYTE   W06
 BYTE   N05  Ds3
 BYTE   N05  Ds4
 BYTE   W06
 BYTE   N02  Cs3
 BYTE   N02  Cs4
 BYTE   W06
 BYTE   N05  Bn2
 BYTE   N05  Bn3
 BYTE   W06
 BYTE   N02  Cs3
 BYTE   N02  Cs4
 BYTE   W06
 BYTE   N05  Ds3
 BYTE   N05  Ds4
 BYTE   W06
 BYTE   Fn3
 BYTE   N05  Fn4
 BYTE   W06
 BYTE   Fs3  v100
 BYTE   N05  Fs4  v112
 BYTE   W06
 BYTE   Gs3
 BYTE   N05  Gs4
 BYTE   W06
// 063   ----------------------------------------
 BYTE   Cs4
 BYTE   N05  Cs5
 BYTE   W06
 BYTE   N02  Bn3
 BYTE   N02  Bn4
 BYTE   W06
 BYTE   N05  As3
 BYTE   N05  As4
 BYTE   W06
 BYTE   N02  Gs3
 BYTE   N02  Gs4
 BYTE   W06
 BYTE   N05  Fs3
 BYTE   N05  Fs4
 BYTE   W06
 BYTE   N02  Fn3
 BYTE   N02  Fn4
 BYTE   W06
 BYTE   N05  Ds3
 BYTE   N05  Ds4
 BYTE   W06
 BYTE   N02  Cs3
 BYTE   N02  Cs4
 BYTE   W06
 BYTE   N05  Bn2
 BYTE   N05  Bn3
 BYTE   W06
 BYTE   N02  As2
 BYTE   N02  As3
 BYTE   W06
 BYTE   N05  Bn2
 BYTE   N05  Bn3
 BYTE   W06
 BYTE   N02  Cs3
 BYTE   N02  Cs4
 BYTE   W06
 BYTE   N05  Ds3  v127
 BYTE   N05  Ds4
 BYTE   W06
 BYTE   Fs3  v112
 BYTE   N05  Fs4
 BYTE   W06
 BYTE   As3  v127
 BYTE   N05  As4
 BYTE   W06
 BYTE   Gs3  v112
 BYTE   N05  Gs4
 BYTE   W06
// 064   ----------------------------------------
 BYTE   N11  As2  v127
 BYTE   N11  As3
 BYTE   W12
 BYTE   N05  Cs3  v112
 BYTE   N05  Cs4
 BYTE   W12
 BYTE   N11  Ds3  v127
 BYTE   N11  Ds4
 BYTE   W12
 BYTE   N05  Fn3  v112
 BYTE   N05  Fn4
 BYTE   W12
 BYTE   N11  As3  v127
 BYTE   N11  As4
 BYTE   W12
 BYTE   N05  Gs3  v112
 BYTE   N05  Gs4
 BYTE   W12
 BYTE   N11  Fs3  v127
 BYTE   N11  Fs4
 BYTE   W12
 BYTE   N05  Gs3  v112
 BYTE   N05  Gs4
 BYTE   W12
// 065   ----------------------------------------
 BYTE   Fs3  v127
 BYTE   N05  Fs4
 BYTE   W12
 BYTE   N11  Cs3  v112
 BYTE   N11  Cs4
 BYTE   W12
 BYTE   N05  Fs3  v127
 BYTE   N05  Fs4
 BYTE   W06
 BYTE   Gs3
 BYTE   N05  Gs4
 BYTE   W06
 BYTE   As3  v112
 BYTE   N05  As4
 BYTE   W12
 BYTE   N11  Cs4  v127
 BYTE   N11  Cs5
 BYTE   W12
 BYTE   N32  As3  v112
 BYTE   N32  As4
 BYTE   W36
// 066   ----------------------------------------
 BYTE   N05  Fn4  v127
 BYTE   N05  Fn5
 BYTE   W06
 BYTE   Ds4  v112
 BYTE   N05  Ds5
 BYTE   W06
 BYTE   N11  Cs4
 BYTE   N11  Cs5
 BYTE   W12
 BYTE   N05  Cs4  v124
 BYTE   N05  Cs5
 BYTE   W06
 BYTE   Bn3  v112
 BYTE   N05  Bn4
 BYTE   W06
 BYTE   N11  Gs3
 BYTE   N11  Gs4
 BYTE   W12
 BYTE   As3  v124
 BYTE   N11  As4
 BYTE   W12
 BYTE   N05  Cn3
 BYTE   N05  Cn4
 BYTE   W06
 BYTE   N02  Cs3  v112
 BYTE   N02  Cs4
 BYTE   W06
 BYTE   N05  Ds3  v127
 BYTE   N05  Ds4
 BYTE   W06
 BYTE   N02  Fn3  v112
 BYTE   N02  Fn4
 BYTE   W06
 BYTE   N05  Fs3  v100
 BYTE   N05  Fs4  v112
 BYTE   W06
 BYTE   N02  Gs3
 BYTE   N02  Gs4
 BYTE   W06
// 067   ----------------------------------------
 BYTE   N05  Cs4
 BYTE   N05  Cs5
 BYTE   W06
 BYTE   N02  Bn3
 BYTE   N02  Bn4
 BYTE   W06
 BYTE   N11  Gs3
 BYTE   N11  Gs4
 BYTE   W12
 BYTE   N05  As3
 BYTE   N05  As4
 BYTE   W06
 BYTE   N02  Gs3
 BYTE   N02  Gs4
 BYTE   W06
 BYTE   N05  Fs3
 BYTE   N05  Fs4
 BYTE   W06
 BYTE   N11  Fn3
 BYTE   N11  Fn4
 BYTE   W12
 BYTE   N02  As2
 BYTE   N02  As3
 BYTE   W06
 BYTE   N05  Bn2
 BYTE   N05  Bn3
 BYTE   W06
 BYTE   N02  Cs3
 BYTE   N02  Cs4
 BYTE   W06
 BYTE   N05  Ds3
 BYTE   N05  Ds4
 BYTE   W06
 BYTE   Fn3
 BYTE   N05  Fn4
 BYTE   W06
 BYTE   Fs3  v100
 BYTE   N05  Fs4  v112
 BYTE   W06
 BYTE   Gs3
 BYTE   N05  Gs4
 BYTE   W06
// 068   ----------------------------------------
 BYTE   As2
 BYTE   N05  As3
 BYTE   W12
 BYTE   Cs3
 BYTE   N05  Cs4
 BYTE   W12
 BYTE   Ds3
 BYTE   N05  Ds4
 BYTE   W12
 BYTE   Fn3
 BYTE   N05  Fn4
 BYTE   W12
 BYTE   N11  As3
 BYTE   N11  As4
 BYTE   W12
 BYTE   N17  Gs3
 BYTE   N17  Gs4
 BYTE   W24
 BYTE   N05  Fn3
 BYTE   N05  Fn4
 BYTE   W12
// 069   ----------------------------------------
 BYTE   Fs3
 BYTE   N05  Fs4
 BYTE   W12
 BYTE   Fn3
 BYTE   N05  Fn4
 BYTE   W12
 BYTE   Fs3
 BYTE   N05  Fs4
 BYTE   W12
 BYTE   N32  Fn4
 BYTE   W60
// 070   ----------------------------------------
 BYTE   GoTo
  POIN2 Label_11_01351716
// 071   ----------------------------------------
 BYTE   W96
// 072   ----------------------------------------
 BYTE   W96
// 073   ----------------------------------------
 BYTE   W96
// 074   ----------------------------------------
 BYTE   W96
// 075   ----------------------------------------
 BYTE   VOICE   1
 BYTE   PAN   c_v+0
 BYTE   VOL   56*PokemonBWEliteFourThemeZoramineFae_mvl/mxv
 BYTE   PAN   c_v+0
 BYTE   VOL   56*PokemonBWEliteFourThemeZoramineFae_mvl/mxv
 BYTE   PAN   c_v+0
 BYTE   VOL   56*PokemonBWEliteFourThemeZoramineFae_mvl/mxv
 BYTE   BEND   c_v+0
 BYTE   FINE

//**************** Track 13 (Midi-Chn.12) ****************//

PokemonBWEliteFourThemeZoramineFae_013:
// 000   ----------------------------------------
 BYTE   KEYSH   PokemonBWEliteFourThemeZoramineFae_key+0
Label_12_0135193A:
 BYTE   VOICE   38
 BYTE   PAN   c_v-1
 BYTE   VOL   27*PokemonBWEliteFourThemeZoramineFae_mvl/mxv
 BYTE   Bn3  v080
 BYTE   Gs4
 BYTE   BEND   c_v+0
 BYTE   N11  Fs1  v120
 BYTE   W02
 BYTE   VOL   0*PokemonBWEliteFourThemeZoramineFae_mvl/mxv
 BYTE   W10
 BYTE   N11  Cs2  v112
 BYTE   W12
 BYTE   Fs1  v120
 BYTE   W12
 BYTE   Dn2  v112
 BYTE   W12
 BYTE   Fs1  v120
 BYTE   W12
 BYTE   Ds2  v112
 BYTE   W12
 BYTE   Fs1  v120
 BYTE   W12
 BYTE   En2  v112
 BYTE   W12
// 001   ----------------------------------------
 BYTE   VOL   0*PokemonBWEliteFourThemeZoramineFae_mvl/mxv
 BYTE   N11  Fs1  v120
 BYTE   W12
 BYTE   Cs2  v112
 BYTE   W12
 BYTE   Fs1  v120
 BYTE   W12
 BYTE   Dn2  v112
 BYTE   W12
 BYTE   Fs1  v120
 BYTE   W12
 BYTE   Ds2  v112
 BYTE   W12
 BYTE   Fs1  v120
 BYTE   W12
 BYTE   En2  v112
 BYTE   W12
// 002   ----------------------------------------
 BYTE   Fs1  v120
 BYTE   W03
 BYTE   VOL   0*PokemonBWEliteFourThemeZoramineFae_mvl/mxv
 BYTE   W09
 BYTE   N11  Cs2  v112
 BYTE   W12
 BYTE   Fs1  v120
 BYTE   W12
 BYTE   Dn2  v112
 BYTE   W12
 BYTE   Fs1  v120
 BYTE   W12
 BYTE   Ds2  v112
 BYTE   W12
 BYTE   Fs1  v120
 BYTE   W12
 BYTE   En2  v112
 BYTE   W12
// 003   ----------------------------------------
 BYTE   Fs1  v120
 BYTE   W01
 BYTE   VOL   2*PokemonBWEliteFourThemeZoramineFae_mvl/mxv
 BYTE   W11
 BYTE   N11  Cs2  v112
 BYTE   W12
 BYTE   Fs1  v120
 BYTE   W12
 BYTE   Dn2  v112
 BYTE   W12
 BYTE   Fs1  v120
 BYTE   W12
 BYTE   Ds2  v112
 BYTE   W12
 BYTE   Fs1  v120
 BYTE   W12
 BYTE   En2  v112
 BYTE   W12
// 004   ----------------------------------------
 BYTE   Fs1  v120
 BYTE   W01
 BYTE   VOL   16*PokemonBWEliteFourThemeZoramineFae_mvl/mxv
 BYTE   W11
 BYTE   N11  Cs2  v112
 BYTE   W12
 BYTE   Fs1  v120
 BYTE   W12
 BYTE   Dn2  v112
 BYTE   W12
 BYTE   Fs1  v120
 BYTE   W12
 BYTE   Ds2  v112
 BYTE   W12
 BYTE   Fs1  v120
 BYTE   W12
 BYTE   En2  v112
 BYTE   W12
// 005   ----------------------------------------
Label_12_013519D1:
 BYTE   N11  Fs1  v120
 BYTE   W12
 BYTE   Cs2  v112
 BYTE   W12
 BYTE   Fs1  v120
 BYTE   W12
 BYTE   Dn2  v112
 BYTE   W12
 BYTE   Fs1  v120
 BYTE   W12
 BYTE   Ds2  v112
 BYTE   W12
 BYTE   Fs1  v120
 BYTE   W12
 BYTE   En2  v112
 BYTE   W12
 BYTE   PEND 
 BYTE   PATT
  POIN2 Label_12_013519D1
 BYTE   PATT
  POIN2 Label_12_013519D1
 BYTE   PATT
  POIN2 Label_12_013519D1
 BYTE   PATT
  POIN2 Label_12_013519D1
 BYTE   PATT
  POIN2 Label_12_013519D1
 BYTE   PATT
  POIN2 Label_12_013519D1
 BYTE   PATT
  POIN2 Label_12_013519D1
 BYTE   PATT
  POIN2 Label_12_013519D1
 BYTE   PATT
  POIN2 Label_12_013519D1
 BYTE   PATT
  POIN2 Label_12_013519D1
 BYTE   PATT
  POIN2 Label_12_013519D1
 BYTE   PATT
  POIN2 Label_12_013519D1
// 006   ----------------------------------------
 BYTE   N11  Fs1  v120
 BYTE   W03
 BYTE   VOL   27*PokemonBWEliteFourThemeZoramineFae_mvl/mxv
 BYTE   W09
 BYTE   N11  Cs2  v112
 BYTE   W12
 BYTE   Fs1  v120
 BYTE   W12
 BYTE   Dn2  v112
 BYTE   W12
 BYTE   Fs1  v120
 BYTE   W12
 BYTE   Ds2  v112
 BYTE   W12
 BYTE   Fs1  v120
 BYTE   W12
 BYTE   En2  v112
 BYTE   W12
// 007   ----------------------------------------
 BYTE   Fs1  v120
 BYTE   W01
 BYTE   VOL   41*PokemonBWEliteFourThemeZoramineFae_mvl/mxv
 BYTE   W11
 BYTE   N11  Cs2  v112
 BYTE   W12
 BYTE   Fs1  v120
 BYTE   W12
 BYTE   Dn2  v112
 BYTE   W12
 BYTE   Fs1  v120
 BYTE   W03
 BYTE   VOL   58*PokemonBWEliteFourThemeZoramineFae_mvl/mxv
 BYTE   W09
 BYTE   N11  Ds2  v112
 BYTE   W12
 BYTE   Fs1  v120
 BYTE   W12
 BYTE   En2  v112
 BYTE   W12
// 008   ----------------------------------------
 BYTE   W06
 BYTE   VOL   27*PokemonBWEliteFourThemeZoramineFae_mvl/mxv
 BYTE   W90
// 009   ----------------------------------------
 BYTE   W96
// 010   ----------------------------------------
 BYTE   W96
// 011   ----------------------------------------
 BYTE   W96
// 012   ----------------------------------------
 BYTE   W96
// 013   ----------------------------------------
 BYTE   W96
// 014   ----------------------------------------
 BYTE   W96
// 015   ----------------------------------------
 BYTE   W96
// 016   ----------------------------------------
 BYTE   W96
// 017   ----------------------------------------
 BYTE   W96
// 018   ----------------------------------------
 BYTE   W96
// 019   ----------------------------------------
 BYTE   W96
// 020   ----------------------------------------
 BYTE   W96
// 021   ----------------------------------------
 BYTE   N05  Gn3
 BYTE   W01
 BYTE   VOL   28*PokemonBWEliteFourThemeZoramineFae_mvl/mxv
 BYTE   W05
 BYTE   N05  Bn3
 BYTE   W06
 BYTE   Dn4
 BYTE   W06
 BYTE   Bn3
 BYTE   W06
 BYTE   Dn4
 BYTE   W06
 BYTE   Gn4
 BYTE   W06
 BYTE   Dn4
 BYTE   W06
 BYTE   Gn4
 BYTE   W06
 BYTE   Bn4
 BYTE   W06
 BYTE   Gn4
 BYTE   W06
 BYTE   Bn4
 BYTE   W06
 BYTE   Dn5
 BYTE   W06
 BYTE   Bn4
 BYTE   W06
 BYTE   Dn5
 BYTE   W06
 BYTE   Gn5
 BYTE   W12
// 022   ----------------------------------------
 BYTE   W96
// 023   ----------------------------------------
 BYTE   Gn3
 BYTE   W06
 BYTE   Bn3
 BYTE   W06
 BYTE   Dn4
 BYTE   W06
 BYTE   Bn3
 BYTE   W06
 BYTE   Dn4
 BYTE   W06
 BYTE   Gn4
 BYTE   W06
 BYTE   Dn4
 BYTE   W06
 BYTE   Gn4
 BYTE   W06
 BYTE   Bn4
 BYTE   W06
 BYTE   Gn4
 BYTE   W06
 BYTE   Bn4
 BYTE   W06
 BYTE   Dn5
 BYTE   W06
 BYTE   Bn4
 BYTE   W06
 BYTE   Dn5
 BYTE   W06
 BYTE   Gn5
 BYTE   W12
// 024   ----------------------------------------
 BYTE   W96
// 025   ----------------------------------------
 BYTE   W96
// 026   ----------------------------------------
 BYTE   W96
// 027   ----------------------------------------
 BYTE   W96
// 028   ----------------------------------------
 BYTE   W96
// 029   ----------------------------------------
 BYTE   W96
// 030   ----------------------------------------
 BYTE   VOL   52*PokemonBWEliteFourThemeZoramineFae_mvl/mxv
 BYTE   N11  Fs1  v120
 BYTE   W01
 BYTE   BEND   c_v+0
 BYTE   W11
 BYTE   N11  Cs2  v112
 BYTE   W12
 BYTE   Fs1  v120
 BYTE   W12
 BYTE   Dn2  v112
 BYTE   W12
 BYTE   Fs1  v120
 BYTE   W12
 BYTE   Ds2  v112
 BYTE   W12
 BYTE   Fs1  v120
 BYTE   W12
 BYTE   En2  v112
 BYTE   W12
// 031   ----------------------------------------
 BYTE   Fs1  v120
 BYTE   W01
 BYTE   BEND   c_v+0
 BYTE   W11
 BYTE   N11  Cs2  v112
 BYTE   W12
 BYTE   Fs1  v120
 BYTE   W12
 BYTE   Dn2  v112
 BYTE   W12
 BYTE   Fs1  v120
 BYTE   W12
 BYTE   Ds2  v112
 BYTE   W12
 BYTE   Fs1  v120
 BYTE   W12
 BYTE   En2  v112
 BYTE   W12
// 032   ----------------------------------------
 BYTE   Fs1  v120
 BYTE   W12
 BYTE   Cs2  v112
 BYTE   W12
 BYTE   BEND   c_v+0
 BYTE   N11  Fs1  v120
 BYTE   W12
 BYTE   Dn2  v112
 BYTE   W12
 BYTE   Fs1  v120
 BYTE   W12
 BYTE   Ds2  v112
 BYTE   W12
 BYTE   BEND   c_v+0
 BYTE   N11  Fs1  v120
 BYTE   W12
 BYTE   En2  v112
 BYTE   W12
// 033   ----------------------------------------
 BYTE   BEND   c_v+0
 BYTE   N11  Fs1  v120
 BYTE   W12
 BYTE   Cs2  v112
 BYTE   W12
 BYTE   Fs1  v120
 BYTE   W12
 BYTE   Dn2  v112
 BYTE   W12
 BYTE   BEND   c_v+0
 BYTE   N11  Fs1  v120
 BYTE   W12
 BYTE   Ds2  v112
 BYTE   W12
 BYTE   BEND   c_v+0
 BYTE   N11  Fs1  v120
 BYTE   W12
 BYTE   En2  v112
 BYTE   W12
// 034   ----------------------------------------
Label_12_01351B36:
 BYTE   N11  Fs1  v120
 BYTE   W12
 BYTE   Cs2  v112
 BYTE   W12
 BYTE   Fs1  v120
 BYTE   W12
 BYTE   Cs2  v112
 BYTE   W12
 BYTE   Fs1  v120
 BYTE   W12
 BYTE   Cs2  v112
 BYTE   W12
 BYTE   Fs1  v120
 BYTE   W12
 BYTE   Cs2  v112
 BYTE   W12
 BYTE   PEND 
// 035   ----------------------------------------
Label_12_01351B50:
 BYTE   N11  Fs1  v120
 BYTE   W12
 BYTE   Dn2  v112
 BYTE   W12
 BYTE   Fs1  v120
 BYTE   W12
 BYTE   Dn2  v112
 BYTE   W12
 BYTE   Fs1  v120
 BYTE   W12
 BYTE   Dn2  v112
 BYTE   W12
 BYTE   Fs1  v120
 BYTE   W12
 BYTE   Dn2  v112
 BYTE   W12
 BYTE   PEND 
// 036   ----------------------------------------
Label_12_01351B6A:
 BYTE   N11  En1  v120
 BYTE   W12
 BYTE   Bn1  v112
 BYTE   W12
 BYTE   En1  v120
 BYTE   W12
 BYTE   Bn1  v112
 BYTE   W12
 BYTE   En1  v120
 BYTE   W12
 BYTE   Bn1  v112
 BYTE   W12
 BYTE   En1  v120
 BYTE   W12
 BYTE   Bn1  v112
 BYTE   W12
 BYTE   PEND 
// 037   ----------------------------------------
 BYTE   Fs1  v120
 BYTE   W12
 BYTE   Cs2  v112
 BYTE   W12
 BYTE   Fs1  v120
 BYTE   W12
 BYTE   Cs2  v112
 BYTE   W12
 BYTE   Fs1  v120
 BYTE   W12
 BYTE   Cs2  v112
 BYTE   W12
 BYTE   Fs1  v120
 BYTE   W12
 BYTE   Fn1
 BYTE   W12
// 038   ----------------------------------------
 BYTE   VOL   26*PokemonBWEliteFourThemeZoramineFae_mvl/mxv
 BYTE   W24
 BYTE   N02  En4  v112
 BYTE   W06
 BYTE   Gs4
 BYTE   W06
 BYTE   Bn4
 BYTE   W06
 BYTE   En5
 BYTE   W06
 BYTE   Bn4
 BYTE   W06
 BYTE   Gs4
 BYTE   W06
 BYTE   En4
 BYTE   W06
 BYTE   Gs4
 BYTE   W06
 BYTE   Bn4
 BYTE   W06
 BYTE   Gs4
 BYTE   W06
 BYTE   En4
 BYTE   W06
 BYTE   Gs4
 BYTE   W06
// 039   ----------------------------------------
 BYTE   Bn4
 BYTE   W06
 BYTE   En5
 BYTE   W06
 BYTE   Bn4
 BYTE   W06
 BYTE   Gs4
 BYTE   W06
 BYTE   Bn4
 BYTE   W06
 BYTE   En5
 BYTE   W06
 BYTE   Gs5
 BYTE   W06
 BYTE   En5
 BYTE   W06
 BYTE   Bn4
 BYTE   W06
 BYTE   Gs4
 BYTE   W06
 BYTE   Bn4
 BYTE   W06
 BYTE   En5
 BYTE   W06
 BYTE   Bn4
 BYTE   W06
 BYTE   Gs4
 BYTE   W06
 BYTE   Bn4
 BYTE   W06
 BYTE   En5
 BYTE   W06
// 040   ----------------------------------------
 BYTE   W24
 BYTE   Fs4
 BYTE   W06
 BYTE   As4
 BYTE   W06
 BYTE   Cs5
 BYTE   W06
 BYTE   Fs5
 BYTE   W06
 BYTE   Cs5
 BYTE   W06
 BYTE   As4
 BYTE   W06
 BYTE   Fs4
 BYTE   W06
 BYTE   As4
 BYTE   W06
 BYTE   Cs5
 BYTE   W06
 BYTE   As4
 BYTE   W06
 BYTE   Fs4
 BYTE   W06
 BYTE   As4
 BYTE   W06
// 041   ----------------------------------------
 BYTE   Cs5
 BYTE   W06
 BYTE   Fs5
 BYTE   W06
 BYTE   Cs5
 BYTE   W06
 BYTE   As4
 BYTE   W06
 BYTE   Cs5
 BYTE   W06
 BYTE   Fs5
 BYTE   W06
 BYTE   As5
 BYTE   W06
 BYTE   Fs5
 BYTE   W06
 BYTE   Cs5
 BYTE   W06
 BYTE   As4
 BYTE   W06
 BYTE   Cs5
 BYTE   W06
 BYTE   Fs5
 BYTE   W06
 BYTE   Cs5
 BYTE   W06
 BYTE   As4
 BYTE   W06
 BYTE   Cs5
 BYTE   W06
 BYTE   Fs5
 BYTE   W06
 BYTE   PATT
  POIN2 Label_12_01351B36
 BYTE   PATT
  POIN2 Label_12_01351B50
 BYTE   PATT
  POIN2 Label_12_01351B6A
 BYTE   PATT
  POIN2 Label_12_01351B36
// 042   ----------------------------------------
Label_12_01351C25:
 BYTE   N11  En1  v120
 BYTE   W12
 BYTE   Bn1  v112
 BYTE   W12
 BYTE   En1  v120
 BYTE   W12
 BYTE   Cn2  v112
 BYTE   W12
 BYTE   En1  v120
 BYTE   W12
 BYTE   Cs2  v112
 BYTE   W12
 BYTE   En1  v120
 BYTE   W12
 BYTE   Dn2  v112
 BYTE   W12
 BYTE   PEND 
 BYTE   PATT
  POIN2 Label_12_01351C25
 BYTE   PATT
  POIN2 Label_12_013519D1
 BYTE   PATT
  POIN2 Label_12_013519D1
// 043   ----------------------------------------
 BYTE   VOL   44*PokemonBWEliteFourThemeZoramineFae_mvl/mxv
 BYTE   N11  Bn2  v112
 BYTE   W36
 BYTE   N32  As2
 BYTE   W36
 BYTE   N23  Gs2
 BYTE   W24
// 044   ----------------------------------------
 BYTE   N11  As2
 BYTE   W36
 BYTE   N32  Gs2
 BYTE   W36
 BYTE   N23  Fs2
 BYTE   W24
// 045   ----------------------------------------
 BYTE   N11  Gs2
 BYTE   W36
 BYTE   N32  Fs2
 BYTE   W36
 BYTE   N23  Fn2
 BYTE   W24
// 046   ----------------------------------------
 BYTE   N11  Fs2
 BYTE   W12
 BYTE   N05  Cs2
 BYTE   W24
 BYTE   N23  Gs2
 BYTE   W24
 BYTE   N32  As2
 BYTE   W36
// 047   ----------------------------------------
 BYTE   Bn2
 BYTE   W36
 BYTE   Cs2
 BYTE   N32  Cs3
 BYTE   W36
 BYTE   N23  Bn2
 BYTE   W24
// 048   ----------------------------------------
 BYTE   N32  As2
 BYTE   W36
 BYTE   Bn2
 BYTE   W36
 BYTE   N23  As2
 BYTE   W24
// 049   ----------------------------------------
 BYTE   N32  Gs2
 BYTE   W36
 BYTE   Fs2
 BYTE   W36
 BYTE   N23  Fn2
 BYTE   W24
// 050   ----------------------------------------
 BYTE   N11  Fs2
 BYTE   W32
 BYTE   W03
 BYTE   N32  Dn3
 BYTE   W01
 BYTE   As1
 BYTE   W36
 BYTE   N23  Dn2
 BYTE   N23  Gs2
 BYTE   W24
// 051   ----------------------------------------
 BYTE   GoTo
  POIN2 Label_12_0135193A
 BYTE   PATT
  POIN2 Label_12_013519D1
 BYTE   PATT
  POIN2 Label_12_013519D1
 BYTE   PATT
  POIN2 Label_12_013519D1
 BYTE   PATT
  POIN2 Label_12_013519D1
// 052   ----------------------------------------
 BYTE   VOICE   38
 BYTE   VOL   44*PokemonBWEliteFourThemeZoramineFae_mvl/mxv
 BYTE   En5  v088
 BYTE   BEND   c_v+0
 BYTE   FINE

//******************************************************//
	ALIGN 4

PokemonBWEliteFourThemeZoramineFae:
	BYTE	13	// NumTrks
	BYTE	0	// NumBlks
	BYTE	PokemonBWEliteFourThemeZoramineFae_pri	// Priority
	BYTE	PokemonBWEliteFourThemeZoramineFae_rev	// Reverb.
    
	POIN2	PokemonBWEliteFourThemeZoramineFae_grp
    
	POIN2	PokemonBWEliteFourThemeZoramineFae_001
	POIN2	PokemonBWEliteFourThemeZoramineFae_002
	POIN2	PokemonBWEliteFourThemeZoramineFae_003
	POIN2	PokemonBWEliteFourThemeZoramineFae_004
	POIN2	PokemonBWEliteFourThemeZoramineFae_005
	POIN2	PokemonBWEliteFourThemeZoramineFae_006
	POIN2	PokemonBWEliteFourThemeZoramineFae_007
	POIN2	PokemonBWEliteFourThemeZoramineFae_008
	POIN2	PokemonBWEliteFourThemeZoramineFae_009
	POIN2	PokemonBWEliteFourThemeZoramineFae_010
	POIN2	PokemonBWEliteFourThemeZoramineFae_011
	POIN2	PokemonBWEliteFourThemeZoramineFae_012
	POIN2	PokemonBWEliteFourThemeZoramineFae_013

	
