//Event file generated from Sappy .s format.
	#include "MPlayDef.event"

	#define	PokemonB2W2VsGhetsisRSflame_grp  voicegroup000
	#define	PokemonB2W2VsGhetsisRSflame_pri  0
	#define	PokemonB2W2VsGhetsisRSflame_rev  0
	#define	PokemonB2W2VsGhetsisRSflame_mvl  127
	#define	PokemonB2W2VsGhetsisRSflame_key  0
	#define	PokemonB2W2VsGhetsisRSflame_tbs  1
	#define	PokemonB2W2VsGhetsisRSflame_exg  0
	#define	PokemonB2W2VsGhetsisRSflame_cmp  1

	// .rodata
	//	PokemonB2W2VsGhetsisRSflame
	ALIGN 4


//**************** Track 1 (Midi-Chn.0) ****************//

PokemonB2W2VsGhetsisRSflame_001:
// 000   ----------------------------------------
 BYTE   KEYSH   PokemonB2W2VsGhetsisRSflame_key+0
 BYTE   TEMPO   300*PokemonB2W2VsGhetsisRSflame_tbs/2
 BYTE   VOICE   47
 BYTE   VOL   50*PokemonB2W2VsGhetsisRSflame_mvl/mxv
 BYTE   PAN   c_v+18
 BYTE   W96
// 001   ----------------------------------------
 BYTE   W48
 BYTE   N05  Gn2  v072
 BYTE   W06
 BYTE   Gs2
 BYTE   W06
 BYTE   An2
 BYTE   W06
 BYTE   As2
 BYTE   W06
 BYTE   Bn2
 BYTE   W06
 BYTE   Cn3
 BYTE   W06
 BYTE   Cs3
 BYTE   W06
 BYTE   Ds3
 BYTE   W06
// 002   ----------------------------------------
 BYTE   N92  En3  v096
 BYTE   W96
// 003   ----------------------------------------
 BYTE   N16  Ds3
 BYTE   W48
 BYTE   N05  As2  v072
 BYTE   W06
 BYTE   Bn2
 BYTE   W06
 BYTE   Cn3
 BYTE   W06
 BYTE   Cs3
 BYTE   W06
 BYTE   Dn3
 BYTE   W06
 BYTE   Ds3
 BYTE   W06
 BYTE   En3
 BYTE   W06
 BYTE   Fs3
 BYTE   W06
// 004   ----------------------------------------
 BYTE   N92  Gn3  v096
 BYTE   W96
// 005   ----------------------------------------
 BYTE   N16  Fs3
 BYTE   W48
 BYTE   N05  Dn3  v072
 BYTE   W06
 BYTE   Ds3
 BYTE   W06
 BYTE   En3
 BYTE   W06
 BYTE   Fn3
 BYTE   W06
 BYTE   Fs3
 BYTE   W06
 BYTE   Gn3
 BYTE   W06
 BYTE   Gs3
 BYTE   W06
 BYTE   As3
 BYTE   W06
// 006   ----------------------------------------
 BYTE   N92  Bn3  v096
 BYTE   W96
// 007   ----------------------------------------
 BYTE   N16  As3
 BYTE   W48
 BYTE   N05  Cs2  v100
 BYTE   W06
 BYTE   Dn2
 BYTE   W06
 BYTE   Ds2
 BYTE   W06
 BYTE   En2
 BYTE   W06
 BYTE   Fn2
 BYTE   W06
 BYTE   Fs2
 BYTE   W06
 BYTE   Gn2
 BYTE   W06
 BYTE   An2
 BYTE   W06
// 008   ----------------------------------------
 BYTE   TIE  Bn2  v124
 BYTE   W96
// 009   ----------------------------------------
 BYTE   W68
 BYTE   W02
 BYTE   EOT
 BYTE   W02
 BYTE   N01  As2  v120
 BYTE   W12
 BYTE   N01
 BYTE   W12
// 010   ----------------------------------------
 BYTE   TIE  As2  v100
 BYTE   W96
// 011   ----------------------------------------
 BYTE   W44
 BYTE   W02
 BYTE   EOT
 BYTE   W02
 BYTE   N01  As2  v120
 BYTE   W12
 BYTE   N01
 BYTE   W12
 BYTE   N01
 BYTE   W12
 BYTE   N01
 BYTE   W12
// 012   ----------------------------------------
 BYTE   N78  Bn2  v100
 BYTE   W84
 BYTE   N01  Cs3  v120
 BYTE   W12
// 013   ----------------------------------------
 BYTE   N36  Cs3  v100
 BYTE   W48
 BYTE   Bn2
 BYTE   W48
// 014   ----------------------------------------
 BYTE   N80  As2
 BYTE   W84
 BYTE   N01  As2  v120
 BYTE   W12
// 015   ----------------------------------------
 BYTE   N32  An2  v100
 BYTE   W48
 BYTE   N07  Cs3  v124
 BYTE   W12
 BYTE   Bn2  v112
 BYTE   W12
 BYTE   Cs3  v100
 BYTE   W12
 BYTE   Gs3
 BYTE   W12
// 016   ----------------------------------------
 BYTE   TIE  Bn3
 BYTE   W96
// 017   ----------------------------------------
 BYTE   W92
 BYTE   EOT
 BYTE   W04
// 018   ----------------------------------------
 BYTE   TIE  As3
 BYTE   W96
// 019   ----------------------------------------
 BYTE   W92
 BYTE   EOT
 BYTE   W04
// 020   ----------------------------------------
 BYTE   TIE  Bn3
 BYTE   W96
// 021   ----------------------------------------
 BYTE   W92
 BYTE   EOT
 BYTE   W04
// 022   ----------------------------------------
 BYTE   TIE  Cs4
 BYTE   W96
// 023   ----------------------------------------
 BYTE   W78
 BYTE   W01
 BYTE   EOT
 BYTE   W14
 BYTE   TIE  Bn3
 BYTE   W03
// 024   ----------------------------------------
 BYTE   W02
 BYTE   PAN   c_v-15
 BYTE   W01
 BYTE   TIE  Cn5
 BYTE   W92
 BYTE   W01
// 025   ----------------------------------------
 BYTE   W32
 BYTE   EOT
 BYTE   Bn3
 BYTE   W06
 BYTE   Cn5
 BYTE   W56
 BYTE   W02
// 026   ----------------------------------------
 BYTE   W96
// 027   ----------------------------------------
 BYTE   W96
// 028   ----------------------------------------
 BYTE   W96
// 029   ----------------------------------------
 BYTE   W96
// 030   ----------------------------------------
 BYTE   W96
// 031   ----------------------------------------
 BYTE   W92
 BYTE   W01
 BYTE   PAN   c_v-10
 BYTE   W03
// 032   ----------------------------------------
Label_0_01EA48BB:
 BYTE   N11  Cs1  v127
 BYTE   W12
 BYTE   Gn0  v112
 BYTE   W12
 BYTE   N11
 BYTE   W12
 BYTE   Cs1
 BYTE   W12
 BYTE   Gn0
 BYTE   W12
 BYTE   N11
 BYTE   W12
 BYTE   Cs1
 BYTE   W12
 BYTE   N05  Gn0
 BYTE   W06
 BYTE   N05
 BYTE   W06
// 033   ----------------------------------------
 BYTE   N11  Gn0  v127
 BYTE   W12
 BYTE   Cs1  v112
 BYTE   W12
 BYTE   Gn0
 BYTE   W12
 BYTE   N11
 BYTE   W12
 BYTE   Cs1
 BYTE   W12
 BYTE   Gn0
 BYTE   W12
 BYTE   N11
 BYTE   W12
 BYTE   N05  Cs1
 BYTE   W06
 BYTE   N05
 BYTE   W06
// 034   ----------------------------------------
 BYTE   N11  Gn0  v127
 BYTE   W12
 BYTE   Cs1  v112
 BYTE   W12
 BYTE   N11
 BYTE   W12
 BYTE   N11
 BYTE   W12
 BYTE   Gn0
 BYTE   W12
 BYTE   Cs1
 BYTE   W12
 BYTE   Gn0
 BYTE   W12
 BYTE   N11
 BYTE   W12
// 035   ----------------------------------------
 BYTE   Cs1  v127
 BYTE   W12
 BYTE   Gn0  v112
 BYTE   W12
 BYTE   N11
 BYTE   W12
 BYTE   Cs1
 BYTE   W12
 BYTE   N11
 BYTE   W12
 BYTE   Gn0
 BYTE   W12
 BYTE   N11
 BYTE   W12
 BYTE   N05  Cs1
 BYTE   W06
 BYTE   N05
 BYTE   W06
// 036   ----------------------------------------
 BYTE   N11  Gn0  v124
 BYTE   W12
 BYTE   Cs1  v112
 BYTE   W12
 BYTE   N11
 BYTE   W12
 BYTE   N11
 BYTE   W12
 BYTE   Gn0
 BYTE   W12
 BYTE   N11
 BYTE   W12
 BYTE   Cs1
 BYTE   W12
 BYTE   N05
 BYTE   W06
 BYTE   N05
 BYTE   W06
// 037   ----------------------------------------
Label_0_01EA4924:
 BYTE   N11  Gn0  v112
 BYTE   W12
 BYTE   Cs1
 BYTE   W12
 BYTE   Gn0
 BYTE   W12
 BYTE   N11
 BYTE   W12
 BYTE   N11
 BYTE   W12
 BYTE   Cs1
 BYTE   W12
 BYTE   N11
 BYTE   W12
 BYTE   N05  Gn0
 BYTE   W06
 BYTE   N05
 BYTE   W06
 BYTE   PEND 
// 038   ----------------------------------------
Label_0_01EA493A:
 BYTE   N11  Gn0  v112
 BYTE   W12
 BYTE   Cs1
 BYTE   W12
 BYTE   N11
 BYTE   W12
 BYTE   Gn0
 BYTE   W12
 BYTE   N11
 BYTE   W12
 BYTE   Cs1
 BYTE   W12
 BYTE   Gn0
 BYTE   W12
 BYTE   N05  Cs1
 BYTE   W06
 BYTE   N05
 BYTE   W06
 BYTE   PEND 
// 039   ----------------------------------------
Label_0_01EA4950:
 BYTE   N11  Cs1  v112
 BYTE   W12
 BYTE   Gn0
 BYTE   W12
 BYTE   N11
 BYTE   W12
 BYTE   N11
 BYTE   W12
 BYTE   Cs1
 BYTE   W12
 BYTE   Gn0
 BYTE   W12
 BYTE   N11
 BYTE   W12
 BYTE   N05
 BYTE   W06
 BYTE   N05
 BYTE   W06
 BYTE   PEND 
// 040   ----------------------------------------
Label_0_01EA4965:
 BYTE   N11  Gn0  v112
 BYTE   W12
 BYTE   Cs1
 BYTE   W12
 BYTE   N11
 BYTE   W12
 BYTE   N11
 BYTE   W12
 BYTE   Gn0
 BYTE   W12
 BYTE   N11
 BYTE   W12
 BYTE   Cs1
 BYTE   W12
 BYTE   N05
 BYTE   W06
 BYTE   N05
 BYTE   W06
 BYTE   PEND 
// 041   ----------------------------------------
 BYTE   PATT
  POIN2 Label_0_01EA4924
// 042   ----------------------------------------
 BYTE   N11  Gn0  v127
 BYTE   W12
 BYTE   Cs1  v112
 BYTE   W12
 BYTE   N11
 BYTE   W12
 BYTE   Gn0
 BYTE   W12
 BYTE   N11
 BYTE   W12
 BYTE   Cs1
 BYTE   W12
 BYTE   Gn0
 BYTE   W12
 BYTE   N05  Cs1
 BYTE   W06
 BYTE   N05
 BYTE   W06
// 043   ----------------------------------------
 BYTE   N11  Cs1  v127
 BYTE   W12
 BYTE   Gn0  v112
 BYTE   W12
 BYTE   N11
 BYTE   W12
 BYTE   N11
 BYTE   W12
 BYTE   Cs1
 BYTE   W12
 BYTE   Gn0
 BYTE   W12
 BYTE   N11
 BYTE   W12
 BYTE   N05
 BYTE   W06
 BYTE   N05
 BYTE   W06
// 044   ----------------------------------------
 BYTE   N11  Gn0  v127
 BYTE   W12
 BYTE   Cs1  v112
 BYTE   W12
 BYTE   N11
 BYTE   W12
 BYTE   N11
 BYTE   W12
 BYTE   Gn0
 BYTE   W12
 BYTE   N11
 BYTE   W12
 BYTE   Cs1
 BYTE   W12
 BYTE   N05
 BYTE   W06
 BYTE   N05
 BYTE   W06
// 045   ----------------------------------------
 BYTE   N11  Gn0  v127
 BYTE   W12
 BYTE   Cs1  v112
 BYTE   W12
 BYTE   Gn0
 BYTE   W12
 BYTE   N11
 BYTE   W12
 BYTE   N11
 BYTE   W12
 BYTE   Cs1
 BYTE   W12
 BYTE   N11
 BYTE   W12
 BYTE   N05  Gn0
 BYTE   W06
 BYTE   N05
 BYTE   W06
// 046   ----------------------------------------
 BYTE   PATT
  POIN2 Label_0_01EA493A
// 047   ----------------------------------------
 BYTE   PATT
  POIN2 Label_0_01EA4950
// 048   ----------------------------------------
 BYTE   PATT
  POIN2 Label_0_01EA4965
// 049   ----------------------------------------
 BYTE   PATT
  POIN2 Label_0_01EA4924
// 050   ----------------------------------------
 BYTE   PATT
  POIN2 Label_0_01EA493A
// 051   ----------------------------------------
 BYTE   PATT
  POIN2 Label_0_01EA4950
// 052   ----------------------------------------
 BYTE   PATT
  POIN2 Label_0_01EA4965
// 053   ----------------------------------------
 BYTE   PATT
  POIN2 Label_0_01EA4924
// 054   ----------------------------------------
 BYTE   PATT
  POIN2 Label_0_01EA493A
// 055   ----------------------------------------
 BYTE   N11  Cs1  v112
 BYTE   W12
 BYTE   Gn0
 BYTE   W12
 BYTE   N11
 BYTE   W12
 BYTE   N11
 BYTE   W12
 BYTE   Cs1
 BYTE   W12
 BYTE   Gn0
 BYTE   W12
 BYTE   N11
 BYTE   W12
 BYTE   N05
 BYTE   W06
 BYTE   N05
 BYTE   W04
 BYTE   PAN   c_v+55
 BYTE   W02
// 056   ----------------------------------------
 BYTE   N32  Cs2  v124
 BYTE   W02
 BYTE   VOL   36*PokemonB2W2VsGhetsisRSflame_mvl/mxv
 BYTE   W32
 BYTE   W02
 BYTE   N10  Cs2  v112
 BYTE   W12
 BYTE   N32  En2  v124
 BYTE   W36
 BYTE   N08  En2  v116
 BYTE   W12
// 057   ----------------------------------------
 BYTE   N32  Cs2  v124
 BYTE   W36
 BYTE   N08  Cs2  v112
 BYTE   W12
 BYTE   N32  Gn2  v124
 BYTE   W36
 BYTE   N08  Gn2  v116
 BYTE   W12
// 058   ----------------------------------------
 BYTE   N32  Cs2  v124
 BYTE   W36
 BYTE   N10  Cs2  v112
 BYTE   W12
 BYTE   N22  En2  v124
 BYTE   W24
 BYTE   Gn1
 BYTE   W24
// 059   ----------------------------------------
 BYTE   N32  Cs2
 BYTE   W48
 BYTE   Cn2
 BYTE   W48
// 060   ----------------------------------------
 BYTE   N05  Cs2
 BYTE   W12
 BYTE   N05
 BYTE   W12
 BYTE   N05
 BYTE   W12
 BYTE   N10  Cs2  v112
 BYTE   W12
 BYTE   N20  En2  v124
 BYTE   W24
 BYTE   Bn1  v116
 BYTE   W24
// 061   ----------------------------------------
 BYTE   N05  Cs2  v124
 BYTE   W12
 BYTE   N05
 BYTE   W12
 BYTE   N05
 BYTE   W12
 BYTE   Cs2  v112
 BYTE   W12
 BYTE   N22  Gn2  v124
 BYTE   W24
 BYTE   N20  Bn1  v116
 BYTE   W24
// 062   ----------------------------------------
 BYTE   N08  Cs2  v124
 BYTE   W12
 BYTE   N08
 BYTE   W12
 BYTE   N08
 BYTE   W12
 BYTE   N10  Cs2  v112
 BYTE   W12
 BYTE   N22  Bn2  v124
 BYTE   W24
 BYTE   As2
 BYTE   W24
// 063   ----------------------------------------
 BYTE   W12
 BYTE   N44  An2
 BYTE   W48
 BYTE   N32  Gs2
 BYTE   W36
// 064   ----------------------------------------
 BYTE   N11  Gn0  v112
 BYTE   W01
 BYTE   VOL   28*PokemonB2W2VsGhetsisRSflame_mvl/mxv
 BYTE   W01
 BYTE   PAN   c_v-10
 BYTE   W10
 BYTE   N11  Cs1
 BYTE   W12
 BYTE   N11
 BYTE   W12
 BYTE   N11
 BYTE   W12
 BYTE   Gn0
 BYTE   W12
 BYTE   N11
 BYTE   W12
 BYTE   Cs1
 BYTE   W12
 BYTE   N05
 BYTE   W06
 BYTE   N05
 BYTE   W06
// 065   ----------------------------------------
 BYTE   PATT
  POIN2 Label_0_01EA4924
// 066   ----------------------------------------
 BYTE   PATT
  POIN2 Label_0_01EA493A
// 067   ----------------------------------------
 BYTE   PATT
  POIN2 Label_0_01EA4950
// 068   ----------------------------------------
 BYTE   PATT
  POIN2 Label_0_01EA4965
// 069   ----------------------------------------
 BYTE   PATT
  POIN2 Label_0_01EA4924
// 070   ----------------------------------------
 BYTE   PATT
  POIN2 Label_0_01EA493A
// 071   ----------------------------------------
 BYTE   PATT
  POIN2 Label_0_01EA4950
// 072   ----------------------------------------
 BYTE   PATT
  POIN2 Label_0_01EA4965
// 073   ----------------------------------------
 BYTE   N11  Gn0  v112
 BYTE   W12
 BYTE   Cs1
 BYTE   W12
 BYTE   Gn0
 BYTE   W12
 BYTE   N11
 BYTE   W12
 BYTE   N11
 BYTE   W14
 BYTE   N10  Cs1
 BYTE   W10
 BYTE   N11
 BYTE   W12
 BYTE   N05  Gn0
 BYTE   W06
 BYTE   N05
 BYTE   W06
// 074   ----------------------------------------
 BYTE   PATT
  POIN2 Label_0_01EA493A
// 075   ----------------------------------------
 BYTE   N92  Cs1  v112
 BYTE   W96
// 076   ----------------------------------------
 BYTE   N92
 BYTE   W96
// 077   ----------------------------------------
 BYTE   N92
 BYTE   W96
// 078   ----------------------------------------
 BYTE   Gn0
 BYTE   W96
// 079   ----------------------------------------
 BYTE   N92
 BYTE   W96
// 080   ----------------------------------------
 BYTE   PATT
  POIN2 Label_0_01EA4924
// 081   ----------------------------------------
 BYTE   PATT
  POIN2 Label_0_01EA4924
// 082   ----------------------------------------
 BYTE   PATT
  POIN2 Label_0_01EA4924
// 083   ----------------------------------------
 BYTE   PATT
  POIN2 Label_0_01EA4924
// 084   ----------------------------------------
 BYTE   PATT
  POIN2 Label_0_01EA4924
// 085   ----------------------------------------
 BYTE   PATT
  POIN2 Label_0_01EA4924
// 086   ----------------------------------------
 BYTE   PAN   c_v-40
 BYTE   N11  Gn1  v112
 BYTE   W12
 BYTE   Cs2
 BYTE   W12
 BYTE   N11
 BYTE   W12
 BYTE   N11
 BYTE   W12
 BYTE   Gn1
 BYTE   W12
 BYTE   N11
 BYTE   W12
 BYTE   Cs2
 BYTE   W12
 BYTE   N05
 BYTE   W06
 BYTE   N05
 BYTE   W06
// 087   ----------------------------------------
Label_0_01EA4B2C:
 BYTE   N11  Gn1  v112
 BYTE   W12
 BYTE   Cs2
 BYTE   W12
 BYTE   Gn1
 BYTE   W12
 BYTE   N11
 BYTE   W12
 BYTE   N11
 BYTE   W12
 BYTE   Cs2
 BYTE   W12
 BYTE   N11
 BYTE   W12
 BYTE   N05  Gn1
 BYTE   W06
 BYTE   N05
 BYTE   W06
 BYTE   PEND 
// 088   ----------------------------------------
Label_0_01EA4B42:
 BYTE   N11  Gn1  v112
 BYTE   W12
 BYTE   Cs2
 BYTE   W12
 BYTE   N11
 BYTE   W12
 BYTE   Gn1
 BYTE   W12
 BYTE   N11
 BYTE   W12
 BYTE   Cs2
 BYTE   W12
 BYTE   Gn1
 BYTE   W12
 BYTE   N05  Cs2
 BYTE   W06
 BYTE   N05
 BYTE   W06
 BYTE   PEND 
// 089   ----------------------------------------
Label_0_01EA4B58:
 BYTE   N11  Cs2  v112
 BYTE   W12
 BYTE   Gn1
 BYTE   W12
 BYTE   N11
 BYTE   W12
 BYTE   N11
 BYTE   W12
 BYTE   Cs2
 BYTE   W12
 BYTE   Gn1
 BYTE   W12
 BYTE   N11
 BYTE   W12
 BYTE   N05
 BYTE   W06
 BYTE   N05
 BYTE   W06
 BYTE   PEND 
// 090   ----------------------------------------
Label_0_01EA4B6D:
 BYTE   N11  Gn1  v112
 BYTE   W12
 BYTE   Cs2
 BYTE   W12
 BYTE   N11
 BYTE   W12
 BYTE   N11
 BYTE   W12
 BYTE   Gn1
 BYTE   W12
 BYTE   N11
 BYTE   W12
 BYTE   Cs2
 BYTE   W12
 BYTE   N05
 BYTE   W06
 BYTE   N05
 BYTE   W06
 BYTE   PEND 
// 091   ----------------------------------------
 BYTE   PATT
  POIN2 Label_0_01EA4B2C
// 092   ----------------------------------------
 BYTE   PATT
  POIN2 Label_0_01EA4B42
// 093   ----------------------------------------
 BYTE   PATT
  POIN2 Label_0_01EA4B58
// 094   ----------------------------------------
 BYTE   PATT
  POIN2 Label_0_01EA4B6D
// 095   ----------------------------------------
 BYTE   PATT
  POIN2 Label_0_01EA4B2C
// 096   ----------------------------------------
 BYTE   PATT
  POIN2 Label_0_01EA4B42
// 097   ----------------------------------------
 BYTE   PATT
  POIN2 Label_0_01EA4B58
// 098   ----------------------------------------
 BYTE   PATT
  POIN2 Label_0_01EA4B6D
// 099   ----------------------------------------
 BYTE   PATT
  POIN2 Label_0_01EA4B2C
// 100   ----------------------------------------
 BYTE   PATT
  POIN2 Label_0_01EA4B42
// 101   ----------------------------------------
 BYTE   PATT
  POIN2 Label_0_01EA4B58
// 102   ----------------------------------------
 BYTE   N78  Gn1  v112
 BYTE   W92
 BYTE   W03
 BYTE   PAN   c_v-35
 BYTE   W01
// 103   ----------------------------------------
 BYTE   VOL   50*PokemonB2W2VsGhetsisRSflame_mvl/mxv
 BYTE   N11  Cs1  v124
 BYTE   W12
 BYTE   Gn0  v112
 BYTE   W12
 BYTE   N11
 BYTE   W12
 BYTE   Cs1  v108
 BYTE   W12
 BYTE   Gn0  v112
 BYTE   W12
 BYTE   N11
 BYTE   W12
 BYTE   Cs1  v108
 BYTE   W12
 BYTE   N05  Gn0  v112
 BYTE   W06
 BYTE   N05
 BYTE   W06
// 104   ----------------------------------------
 BYTE   N11  Gn0  v127
 BYTE   W12
 BYTE   Cs1  v108
 BYTE   W12
 BYTE   Gn0  v112
 BYTE   W12
 BYTE   N11
 BYTE   W12
 BYTE   Cs1  v108
 BYTE   W12
 BYTE   Gn0  v112
 BYTE   W12
 BYTE   N11
 BYTE   W12
 BYTE   N05  Cs1  v108
 BYTE   W06
 BYTE   N05
 BYTE   W06
// 105   ----------------------------------------
 BYTE   N11  Gn0  v127
 BYTE   W12
 BYTE   Cs1  v108
 BYTE   W12
 BYTE   N11
 BYTE   W12
 BYTE   N11
 BYTE   W12
 BYTE   Gn0  v112
 BYTE   W12
 BYTE   Cs1  v108
 BYTE   W12
 BYTE   Gn0  v112
 BYTE   W12
 BYTE   N11
 BYTE   W12
// 106   ----------------------------------------
 BYTE   Cs1  v124
 BYTE   W12
 BYTE   Gn0  v112
 BYTE   W12
 BYTE   N11
 BYTE   W12
 BYTE   Cs1  v108
 BYTE   W12
 BYTE   N11
 BYTE   W12
 BYTE   Gn0  v112
 BYTE   W12
 BYTE   N11
 BYTE   W12
 BYTE   N05  Cs1  v108
 BYTE   W06
 BYTE   N03
 BYTE   W05
 BYTE   GoTo
  POIN2 Label_0_01EA48BB
// 107   ----------------------------------------
 BYTE   PAN   c_v-10
 BYTE   FINE

//**************** Track 2 (Midi-Chn.1) ****************//

PokemonB2W2VsGhetsisRSflame_002:
// 000   ----------------------------------------
 BYTE   KEYSH   PokemonB2W2VsGhetsisRSflame_key+0
 BYTE   VOICE   61
 BYTE   VOL   41*PokemonB2W2VsGhetsisRSflame_mvl/mxv
 BYTE   PAN   c_v+60
 BYTE   N92  Cs1  v127
 BYTE   W96
// 001   ----------------------------------------
 BYTE   Cn1
 BYTE   W96
// 002   ----------------------------------------
 BYTE   Cs1
 BYTE   W96
// 003   ----------------------------------------
 BYTE   Cn1
 BYTE   W96
// 004   ----------------------------------------
 BYTE   Cs1
 BYTE   W96
// 005   ----------------------------------------
 BYTE   Cn1
 BYTE   W96
// 006   ----------------------------------------
 BYTE   Cs1
 BYTE   W96
// 007   ----------------------------------------
 BYTE   Cn1
 BYTE   W96
// 008   ----------------------------------------
 BYTE   Cs1
 BYTE   W96
// 009   ----------------------------------------
 BYTE   Gn1
 BYTE   W96
// 010   ----------------------------------------
 BYTE   N68  Cs1
 BYTE   W72
 BYTE   N05  Gn1  v116
 BYTE   W12
 BYTE   N05
 BYTE   W12
// 011   ----------------------------------------
 BYTE   N44  Gn1  v127
 BYTE   W48
 BYTE   N40  Cs1
 BYTE   W48
// 012   ----------------------------------------
 BYTE   N92
 BYTE   W96
// 013   ----------------------------------------
 BYTE   N44  Gn1
 BYTE   W48
 BYTE   Cs1
 BYTE   W48
// 014   ----------------------------------------
 BYTE   N44
 BYTE   W48
 BYTE   Gn1
 BYTE   W48
// 015   ----------------------------------------
 BYTE   N92  Cs1
 BYTE   W96
// 016   ----------------------------------------
 BYTE   N92
 BYTE   W96
// 017   ----------------------------------------
 BYTE   Gn1
 BYTE   W96
// 018   ----------------------------------------
 BYTE   Cs1
 BYTE   W96
// 019   ----------------------------------------
 BYTE   Gn1
 BYTE   W96
// 020   ----------------------------------------
 BYTE   Cs1
 BYTE   W96
// 021   ----------------------------------------
 BYTE   N44  Gn1
 BYTE   W48
 BYTE   N92  Cs1
 BYTE   W48
// 022   ----------------------------------------
 BYTE   W48
 BYTE   N44  Gn1
 BYTE   W48
// 023   ----------------------------------------
 BYTE   Cs2
 BYTE   W48
 BYTE   TIE  Cs1
 BYTE   W48
// 024   ----------------------------------------
 BYTE   W52
 BYTE   W01
 BYTE   EOT
 BYTE   W42
 BYTE   W01
// 025   ----------------------------------------
 BYTE   W96
// 026   ----------------------------------------
 BYTE   W96
// 027   ----------------------------------------
 BYTE   W96
// 028   ----------------------------------------
 BYTE   W96
// 029   ----------------------------------------
 BYTE   W96
// 030   ----------------------------------------
 BYTE   W96
// 031   ----------------------------------------
 BYTE   W96
// 032   ----------------------------------------
Label_1_5456C5:
 BYTE   W96
// 033   ----------------------------------------
 BYTE   W96
// 034   ----------------------------------------
 BYTE   W96
// 035   ----------------------------------------
 BYTE   W96
// 036   ----------------------------------------
 BYTE   W96
// 037   ----------------------------------------
 BYTE   W96
// 038   ----------------------------------------
 BYTE   W96
// 039   ----------------------------------------
 BYTE   W96
// 040   ----------------------------------------
 BYTE   W96
// 041   ----------------------------------------
 BYTE   W96
// 042   ----------------------------------------
 BYTE   W96
// 043   ----------------------------------------
 BYTE   W96
// 044   ----------------------------------------
 BYTE   W96
// 045   ----------------------------------------
 BYTE   W96
// 046   ----------------------------------------
 BYTE   W96
// 047   ----------------------------------------
 BYTE   W96
// 048   ----------------------------------------
 BYTE   W96
// 049   ----------------------------------------
 BYTE   W96
// 050   ----------------------------------------
 BYTE   W96
// 051   ----------------------------------------
 BYTE   W96
// 052   ----------------------------------------
 BYTE   W96
// 053   ----------------------------------------
 BYTE   W96
// 054   ----------------------------------------
 BYTE   W96
// 055   ----------------------------------------
 BYTE   W96
// 056   ----------------------------------------
 BYTE   N32  Cs1  v127
 BYTE   W36
 BYTE   N08  Cs1  v116
 BYTE   W12
 BYTE   N32  En1  v127
 BYTE   W36
 BYTE   N08  En1  v116
 BYTE   W12
// 057   ----------------------------------------
 BYTE   N32  Cs1  v127
 BYTE   W36
 BYTE   N08  Cs1  v116
 BYTE   W12
 BYTE   N32  Gn1  v127
 BYTE   W36
 BYTE   N08  Gn1  v116
 BYTE   W12
// 058   ----------------------------------------
 BYTE   N32  Cs1  v127
 BYTE   W36
 BYTE   N08  Cs1  v116
 BYTE   W12
 BYTE   N22  En1  v127
 BYTE   W24
 BYTE   Gn0
 BYTE   W24
// 059   ----------------------------------------
 BYTE   N32  Cs1
 BYTE   W36
 BYTE   N08  Cs1  v116
 BYTE   W12
 BYTE   N44  Cn1  v127
 BYTE   W48
// 060   ----------------------------------------
 BYTE   N07  Cs1
 BYTE   W12
 BYTE   Cs1  v084
 BYTE   W12
 BYTE   Cs1  v104
 BYTE   W12
 BYTE   N08  Cs1  v080
 BYTE   W12
 BYTE   N20  En1  v127
 BYTE   W24
 BYTE   Bn0
 BYTE   W24
// 061   ----------------------------------------
 BYTE   N07  Cs1
 BYTE   W12
 BYTE   Cs1  v084
 BYTE   W12
 BYTE   Cs1  v104
 BYTE   W12
 BYTE   N08  Cs1  v080
 BYTE   W12
 BYTE   N20  Gn1  v127
 BYTE   W24
 BYTE   Bn0
 BYTE   W24
// 062   ----------------------------------------
 BYTE   N07  Cs1
 BYTE   W12
 BYTE   Cs1  v084
 BYTE   W12
 BYTE   Cs1  v104
 BYTE   W12
 BYTE   N08  Cs1  v080
 BYTE   W12
 BYTE   N20  Bn1  v127
 BYTE   W24
 BYTE   As1
 BYTE   W24
// 063   ----------------------------------------
 BYTE   N08  Cs1
 BYTE   W12
 BYTE   N32  An1
 BYTE   W36
 BYTE   N08  Cs1
 BYTE   W12
 BYTE   N32  Gs1
 BYTE   W36
// 064   ----------------------------------------
 BYTE   W96
// 065   ----------------------------------------
 BYTE   W96
// 066   ----------------------------------------
 BYTE   W96
// 067   ----------------------------------------
 BYTE   W96
// 068   ----------------------------------------
 BYTE   W96
// 069   ----------------------------------------
 BYTE   W96
// 070   ----------------------------------------
 BYTE   W96
// 071   ----------------------------------------
 BYTE   W88
 BYTE   W01
 BYTE   VOL   50*PokemonB2W2VsGhetsisRSflame_mvl/mxv
 BYTE   W04
 BYTE   W03
// 072   ----------------------------------------
 BYTE   N90  En2  v072
 BYTE   W96
// 073   ----------------------------------------
 BYTE   N90
 BYTE   W96
// 074   ----------------------------------------
 BYTE   En2  v084
 BYTE   W96
// 075   ----------------------------------------
 BYTE   En2  v096
 BYTE   W96
// 076   ----------------------------------------
 BYTE   En2  v116
 BYTE   W96
// 077   ----------------------------------------
 BYTE   N90
 BYTE   W96
// 078   ----------------------------------------
 BYTE   En2  v120
 BYTE   W96
// 079   ----------------------------------------
 BYTE   En2  v127
 BYTE   W96
// 080   ----------------------------------------
 BYTE   N90
 BYTE   W96
// 081   ----------------------------------------
 BYTE   En2  v120
 BYTE   W96
// 082   ----------------------------------------
 BYTE   En2  v127
 BYTE   W96
// 083   ----------------------------------------
 BYTE   N90
 BYTE   W96
// 084   ----------------------------------------
 BYTE   N90
 BYTE   W96
// 085   ----------------------------------------
 BYTE   En2  v120
 BYTE   W96
// 086   ----------------------------------------
 BYTE   W96
// 087   ----------------------------------------
 BYTE   W96
// 088   ----------------------------------------
 BYTE   W96
// 089   ----------------------------------------
 BYTE   W96
// 090   ----------------------------------------
 BYTE   W96
// 091   ----------------------------------------
 BYTE   W96
// 092   ----------------------------------------
 BYTE   W96
// 093   ----------------------------------------
 BYTE   W96
// 094   ----------------------------------------
 BYTE   TIE  Cs1  v127
 BYTE   W96
// 095   ----------------------------------------
 BYTE   W96
// 096   ----------------------------------------
 BYTE   W96
// 097   ----------------------------------------
 BYTE   W92
 BYTE   EOT
 BYTE   W04
// 098   ----------------------------------------
 BYTE   N08  Cs2  v112
 BYTE   W12
 BYTE   N23  Cs1  v120
 BYTE   W24
 BYTE   N08  Cs2  v112
 BYTE   W12
 BYTE   N23  Cs1  v120
 BYTE   W24
 BYTE   N08  Cs2  v112
 BYTE   W24
// 099   ----------------------------------------
 BYTE   W48
 BYTE   N23  Cs1  v120
 BYTE   W48
// 100   ----------------------------------------
 BYTE   N08  Cs2  v096
 BYTE   W12
 BYTE   Cs1  v120
 BYTE   W12
 BYTE   Cs2  v096
 BYTE   W12
 BYTE   N08
 BYTE   W12
 BYTE   N23  Cs1  v120
 BYTE   W24
 BYTE   N08  Cs2  v096
 BYTE   W24
// 101   ----------------------------------------
 BYTE   N08
 BYTE   W12
 BYTE   N08
 BYTE   W12
 BYTE   N32  Cs1  v120
 BYTE   W36
 BYTE   N08  Cs2  v096
 BYTE   W12
 BYTE   N20  Cs1  v120
 BYTE   W18
 BYTE   PAN   c_v+11
 BYTE   W06
// 102   ----------------------------------------
 BYTE   N92  Gs0  v127
 BYTE   N92  Gs1  v108
 BYTE   W96
// 103   ----------------------------------------
 BYTE   TIE  Gn0  v127
 BYTE   TIE  Gn1  v108
 BYTE   W96
// 104   ----------------------------------------
 BYTE   W96
// 105   ----------------------------------------
 BYTE   W92
 BYTE   EOT
 BYTE   Gn0  v043
 BYTE   W04
// 106   ----------------------------------------
 BYTE   W54
 BYTE   VOL   41*PokemonB2W2VsGhetsisRSflame_mvl/mxv
 BYTE   W40
 BYTE   W01
 BYTE   GoTo
  POIN2 Label_1_5456C5
 BYTE   FINE

//**************** Track 3 (Midi-Chn.2) ****************//

PokemonB2W2VsGhetsisRSflame_003:
// 000   ----------------------------------------
 BYTE   KEYSH   PokemonB2W2VsGhetsisRSflame_key+0
 BYTE   VOICE   91
 BYTE   PAN   c_v+0
 BYTE   VOL   50*PokemonB2W2VsGhetsisRSflame_mvl/mxv
 BYTE   PAN   c_v-25
 BYTE   BEND   c_v+0
 BYTE   N84  Gn2  v100
 BYTE   N84  Cs3  v127
 BYTE   W90
 BYTE   N08  Fs2  v108
 BYTE   N08  Cn3  v120
 BYTE   W06
// 001   ----------------------------------------
 BYTE   W03
 BYTE   N92  Fn2  v084
 BYTE   N92  Bn2  v096
 BYTE   W92
 BYTE   W01
// 002   ----------------------------------------
 BYTE   N84  Gn2  v116
 BYTE   N84  Cs3  v127
 BYTE   W90
 BYTE   N08  Fs2  v108
 BYTE   N08  Cn3  v120
 BYTE   W06
// 003   ----------------------------------------
 BYTE   W03
 BYTE   N92  Fn2  v092
 BYTE   N92  Bn2  v104
 BYTE   W92
 BYTE   W01
// 004   ----------------------------------------
Label_2_01EA4C6A:
 BYTE   N84  Cs3  v112
 BYTE   N84  Gn3  v124
 BYTE   W90
 BYTE   N08  Cn3  v108
 BYTE   N08  Fs3  v120
 BYTE   W06
 BYTE   PEND 
// 005   ----------------------------------------
 BYTE   W03
 BYTE   N92  Bn2  v076
 BYTE   N92  Fn3  v088
 BYTE   W92
 BYTE   W01
// 006   ----------------------------------------
 BYTE   PATT
  POIN2 Label_2_01EA4C6A
// 007   ----------------------------------------
 BYTE   W03
 BYTE   N92  Bn2  v076
 BYTE   N92  Fn3  v088
 BYTE   W92
 BYTE   VOL   24*PokemonB2W2VsGhetsisRSflame_mvl/mxv
 BYTE   W01
// 008   ----------------------------------------
 BYTE   N92  Cs3  v112
 BYTE   TIE  Bn3
 BYTE   W01
 BYTE   PAN   c_v-16
 BYTE   W92
 BYTE   W03
// 009   ----------------------------------------
Label_2_01EA4C9C:
 BYTE   N92  Dn3  v112
 BYTE   W92
 BYTE   W03
 BYTE   PEND 
 BYTE   EOT
 BYTE   Bn3
 BYTE   W01
// 010   ----------------------------------------
 BYTE   N92  Ds3
 BYTE   TIE  As3
 BYTE   W96
// 011   ----------------------------------------
 BYTE   PATT
  POIN2 Label_2_01EA4C9C
// 012   ----------------------------------------
 BYTE   EOT
 BYTE   As3
 BYTE   W01
 BYTE   N92  Ds3  v112
 BYTE   N92  Bn3
 BYTE   W96
// 013   ----------------------------------------
 BYTE   N40  Gn3
 BYTE   N40  Cs4
 BYTE   W48
 BYTE   N42  Ds3
 BYTE   N42  Bn3
 BYTE   W48
// 014   ----------------------------------------
 BYTE   N90  Dn3
 BYTE   N90  As3
 BYTE   W96
// 015   ----------------------------------------
 BYTE   Cs3
 BYTE   N90  An3
 BYTE   W96
// 016   ----------------------------------------
 BYTE   N92  Cs3  v127
 BYTE   TIE  Bn3  v112
 BYTE   W96
// 017   ----------------------------------------
Label_2_01EA4CD2:
 BYTE   N92  Dn3  v127
 BYTE   W92
 BYTE   W03
 BYTE   PEND 
 BYTE   EOT
 BYTE   Bn3
 BYTE   W01
// 018   ----------------------------------------
 BYTE   N92  Ds3
 BYTE   TIE  As3  v112
 BYTE   W96
// 019   ----------------------------------------
 BYTE   PATT
  POIN2 Label_2_01EA4CD2
// 020   ----------------------------------------
 BYTE   EOT
 BYTE   As3
 BYTE   W01
 BYTE   N92  Ds3  v127
 BYTE   TIE  Bn3  v112
 BYTE   W92
 BYTE   W01
 BYTE   VOL   27*PokemonB2W2VsGhetsisRSflame_mvl/mxv
 BYTE   W03
// 021   ----------------------------------------
 BYTE   N44  En3  v127
 BYTE   W44
 BYTE   W03
 BYTE   VOL   29*PokemonB2W2VsGhetsisRSflame_mvl/mxv
 BYTE   W01
 BYTE   N92  Fn3
 BYTE   W44
 BYTE   W01
 BYTE   VOL   31*PokemonB2W2VsGhetsisRSflame_mvl/mxv
 BYTE   W02
 BYTE   EOT
 BYTE   Bn3
 BYTE   W01
// 022   ----------------------------------------
 BYTE   TIE  Cs4
 BYTE   W44
 BYTE   W03
 BYTE   VOL   33*PokemonB2W2VsGhetsisRSflame_mvl/mxv
 BYTE   W01
 BYTE   N44  Fs3
 BYTE   W44
 BYTE   W01
 BYTE   VOL   36*PokemonB2W2VsGhetsisRSflame_mvl/mxv
 BYTE   W03
// 023   ----------------------------------------
 BYTE   TIE  Gn3
 BYTE   W96
// 024   ----------------------------------------
 BYTE   W17
 BYTE   VOL   19*PokemonB2W2VsGhetsisRSflame_mvl/mxv
 BYTE   W06
 BYTE   An1
 BYTE   W06
 BYTE   En1
 BYTE   W06
 BYTE   Cn1
 BYTE   W06
 BYTE   Gn0
 BYTE   W06
 BYTE   Ds0
 BYTE   W06
 BYTE   BnM1
 BYTE   W06
 BYTE   FsM1
 BYTE   W06
 BYTE   DsM1
 BYTE   W05
 BYTE   EOT
 BYTE   W01
 BYTE   EOT
 BYTE   Cs4
 BYTE   VOL   0*PokemonB2W2VsGhetsisRSflame_mvl/mxv
 BYTE   W06
 BYTE   FnM2
 BYTE   W10
 BYTE   As2
 BYTE   W09
// 025   ----------------------------------------
 BYTE   W96
// 026   ----------------------------------------
 BYTE   W96
// 027   ----------------------------------------
 BYTE   W96
// 028   ----------------------------------------
 BYTE   W96
// 029   ----------------------------------------
 BYTE   W96
// 030   ----------------------------------------
 BYTE   W96
// 031   ----------------------------------------
 BYTE   W96
// 032   ----------------------------------------
Label_2_01EA4D3D:
 BYTE   W96
// 033   ----------------------------------------
 BYTE   W96
// 034   ----------------------------------------
 BYTE   W96
// 035   ----------------------------------------
 BYTE   W96
// 036   ----------------------------------------
 BYTE   W96
// 037   ----------------------------------------
 BYTE   W96
// 038   ----------------------------------------
 BYTE   W96
// 039   ----------------------------------------
 BYTE   W92
 BYTE   W03
 BYTE   VOL   48*PokemonB2W2VsGhetsisRSflame_mvl/mxv
 BYTE   W01
// 040   ----------------------------------------
 BYTE   PAN   c_v+22
 BYTE   TIE  Gn2  v100
 BYTE   TIE  Cs3  v116
 BYTE   W96
// 041   ----------------------------------------
 BYTE   W72
 BYTE   W02
 BYTE   EOT
 BYTE   Gn2  v061
 BYTE   W03
 BYTE   N11  Fs2
 BYTE   N11  Cn3
 BYTE   W16
 BYTE   N92  Fs2
 BYTE   N92  Cn3
 BYTE   W03
// 042   ----------------------------------------
 BYTE   W96
// 043   ----------------------------------------
 BYTE   W96
// 044   ----------------------------------------
 BYTE   W96
// 045   ----------------------------------------
 BYTE   W96
// 046   ----------------------------------------
 BYTE   W96
// 047   ----------------------------------------
 BYTE   W92
 BYTE   W03
 BYTE   TIE  Cs3  v120
 BYTE   W01
// 048   ----------------------------------------
 BYTE   Gn3  v096
 BYTE   W96
// 049   ----------------------------------------
 BYTE   W78
 BYTE   W01
 BYTE   EOT
 BYTE   Cs3
 BYTE   W01
 BYTE   Gn3
 BYTE   W04
 BYTE   N08  Cn3  v100
 BYTE   N08  Fs3
 BYTE   W12
// 050   ----------------------------------------
 BYTE   N92  Cn3  v104
 BYTE   N92  Fs3
 BYTE   W96
// 051   ----------------------------------------
 BYTE   W96
// 052   ----------------------------------------
 BYTE   W96
// 053   ----------------------------------------
 BYTE   W96
// 054   ----------------------------------------
 BYTE   W96
// 055   ----------------------------------------
 BYTE   W96
// 056   ----------------------------------------
 BYTE   W96
// 057   ----------------------------------------
 BYTE   W96
// 058   ----------------------------------------
 BYTE   W96
// 059   ----------------------------------------
 BYTE   TIE  Fn3  v127
 BYTE   TIE  Dn4
 BYTE   W04
 BYTE   PAN   c_v+18
 BYTE   W92
// 060   ----------------------------------------
 BYTE   W05
 BYTE   EOT
 BYTE   Fn3  v074
 BYTE   W90
 BYTE   W01
// 061   ----------------------------------------
 BYTE   W96
// 062   ----------------------------------------
 BYTE   W96
// 063   ----------------------------------------
 BYTE   W96
// 064   ----------------------------------------
 BYTE   W96
// 065   ----------------------------------------
 BYTE   W96
// 066   ----------------------------------------
 BYTE   W96
// 067   ----------------------------------------
 BYTE   W96
// 068   ----------------------------------------
 BYTE   W96
// 069   ----------------------------------------
 BYTE   W96
// 070   ----------------------------------------
 BYTE   W96
// 071   ----------------------------------------
 BYTE   W96
// 072   ----------------------------------------
 BYTE   PAN   c_v-12
 BYTE   N01  Cs3
 BYTE   W01
 BYTE   N92  Cs3  v112
 BYTE   W88
 BYTE   W01
 BYTE   N08  Cn3  v120
 BYTE   W06
// 073   ----------------------------------------
 BYTE   W03
 BYTE   N92  Bn2  v096
 BYTE   W92
 BYTE   W01
// 074   ----------------------------------------
 BYTE   N84  Cs3  v127
 BYTE   W90
 BYTE   N08  Cn3  v120
 BYTE   W06
// 075   ----------------------------------------
 BYTE   W03
 BYTE   N92  Bn2  v104
 BYTE   W92
 BYTE   W01
// 076   ----------------------------------------
Label_2_01EA4DC7:
 BYTE   N84  Gn3  v124
 BYTE   W90
 BYTE   N08  Fs3  v120
 BYTE   W06
 BYTE   PEND 
// 077   ----------------------------------------
Label_2_01EA4DD0:
 BYTE   W03
 BYTE   N92  Fn3  v088
 BYTE   W92
 BYTE   W01
 BYTE   PEND 
// 078   ----------------------------------------
 BYTE   PATT
  POIN2 Label_2_01EA4DC7
// 079   ----------------------------------------
 BYTE   PATT
  POIN2 Label_2_01EA4DD0
// 080   ----------------------------------------
 BYTE   TIE  Bn3  v112
 BYTE   W02
 BYTE   N92  Cs3
 BYTE   W92
 BYTE   W02
// 081   ----------------------------------------
Label_2_01EA4DE9:
 BYTE   W02
 BYTE   N92  Dn3  v112
 BYTE   W92
 BYTE   W01
 BYTE   PEND 
 BYTE   EOT
 BYTE   Bn3
 BYTE   W01
// 082   ----------------------------------------
 BYTE   TIE  As3
 BYTE   W02
 BYTE   N92  Ds3
 BYTE   W92
 BYTE   W02
// 083   ----------------------------------------
 BYTE   PATT
  POIN2 Label_2_01EA4DE9
// 084   ----------------------------------------
 BYTE   EOT
 BYTE   As3
 BYTE   W01
 BYTE   PAN   c_v-59
 BYTE   N11  Gn0  v112
 BYTE   TIE  Bn3
 BYTE   W01
 BYTE   PAN   c_v-12
 BYTE   W01
 BYTE   N92  Cs3
 BYTE   W92
 BYTE   W02
// 085   ----------------------------------------
 BYTE   PATT
  POIN2 Label_2_01EA4DE9
// 086   ----------------------------------------
 BYTE   EOT
 BYTE   Bn3
 BYTE   W01
 BYTE   VOL   30*PokemonB2W2VsGhetsisRSflame_mvl/mxv
 BYTE   TIE  Gs3  v120
 BYTE   TIE  Cs4
 BYTE   W12
 BYTE   N11  Cs1  v112
 BYTE   W12
 BYTE   N11
 BYTE   W12
 BYTE   N11
 BYTE   W12
 BYTE   Gn0
 BYTE   W12
 BYTE   N11
 BYTE   W12
 BYTE   Cs1
 BYTE   W12
 BYTE   N05
 BYTE   W06
 BYTE   N05
 BYTE   W06
// 087   ----------------------------------------
 BYTE   N11  Gn0
 BYTE   W12
 BYTE   Cs1
 BYTE   W12
 BYTE   Gn0
 BYTE   W12
 BYTE   N11
 BYTE   W12
 BYTE   N11
 BYTE   W12
 BYTE   Cs1
 BYTE   W12
 BYTE   N11
 BYTE   W12
 BYTE   N05  Gn0
 BYTE   W06
 BYTE   N05
 BYTE   W02
 BYTE   EOT
 BYTE   Gs3  v073
 BYTE   W04
// 088   ----------------------------------------
Label_2_01EA4E4B:
 BYTE   N11  Gn0  v112
 BYTE   TIE  Gn3  v120
 BYTE   N92  Bn3
 BYTE   W12
 BYTE   N11  Cs1  v112
 BYTE   W12
 BYTE   N11
 BYTE   W12
 BYTE   Gn0
 BYTE   W12
 BYTE   N11
 BYTE   W12
 BYTE   Cs1
 BYTE   W12
 BYTE   Gn0
 BYTE   W12
 BYTE   N05  Cs1
 BYTE   W06
 BYTE   N05
 BYTE   W06
 BYTE   PEND 
// 089   ----------------------------------------
 BYTE   N11
 BYTE   N92  En3  v120
 BYTE   W12
 BYTE   N11  Gn0  v112
 BYTE   W12
 BYTE   N11
 BYTE   W12
 BYTE   N11
 BYTE   W12
 BYTE   Cs1
 BYTE   W12
 BYTE   Gn0
 BYTE   W12
 BYTE   N11
 BYTE   W12
 BYTE   N05
 BYTE   W06
 BYTE   N05
 BYTE   W02
 BYTE   EOT
 BYTE   Gn3
 BYTE   W04
// 090   ----------------------------------------
 BYTE   N11  Gn0
 BYTE   TIE  Cs3  v127
 BYTE   TIE  Cs4
 BYTE   W12
 BYTE   N11  Cs1  v112
 BYTE   W12
 BYTE   N11
 BYTE   W12
 BYTE   N11
 BYTE   W12
 BYTE   Gn0
 BYTE   W12
 BYTE   N11
 BYTE   W12
 BYTE   Cs1
 BYTE   W12
 BYTE   N05
 BYTE   W06
 BYTE   N05
 BYTE   W06
// 091   ----------------------------------------
 BYTE   N11  Gn0
 BYTE   W12
 BYTE   Cs1
 BYTE   W12
 BYTE   Gn0
 BYTE   W12
 BYTE   N11
 BYTE   W12
 BYTE   N11
 BYTE   W12
 BYTE   Cs1
 BYTE   W12
 BYTE   N11
 BYTE   W12
 BYTE   N05  Gn0
 BYTE   W06
 BYTE   N05
 BYTE   W04
 BYTE   EOT
 BYTE   Cs3  v073
 BYTE   W02
// 092   ----------------------------------------
 BYTE   PATT
  POIN2 Label_2_01EA4E4B
// 093   ----------------------------------------
 BYTE   N11  Cs1  v112
 BYTE   N92  En3  v120
 BYTE   W12
 BYTE   N11  Gn0  v112
 BYTE   W12
 BYTE   N11
 BYTE   W12
 BYTE   N11
 BYTE   W12
 BYTE   Cs1
 BYTE   W12
 BYTE   Gn0
 BYTE   W12
 BYTE   N11
 BYTE   W12
 BYTE   N05
 BYTE   W06
 BYTE   N05
 BYTE   W05
 BYTE   EOT
 BYTE   Gn3
 BYTE   W01
// 094   ----------------------------------------
 BYTE   N44  Gn0
 BYTE   TIE  Fn3  v127
 BYTE   W12
 BYTE   N11  Cs1  v112
 BYTE   W12
 BYTE   N11
 BYTE   W12
 BYTE   N11
 BYTE   W12
 BYTE   Gn0
 BYTE   W12
 BYTE   N11
 BYTE   W12
 BYTE   Cs1
 BYTE   W12
 BYTE   N05
 BYTE   W06
 BYTE   N05
 BYTE   W06
// 095   ----------------------------------------
Label_2_01EA4EED:
 BYTE   N11  Gn0  v112
 BYTE   W12
 BYTE   Cs1
 BYTE   W12
 BYTE   Gn0
 BYTE   W12
 BYTE   N11
 BYTE   W12
 BYTE   N11
 BYTE   W12
 BYTE   Cs1
 BYTE   W12
 BYTE   N11
 BYTE   W12
 BYTE   N05  Gn0
 BYTE   W06
 BYTE   N05
 BYTE   W06
 BYTE   PEND 
// 096   ----------------------------------------
Label_2_01EA4F03:
 BYTE   N11  Gn0  v112
 BYTE   W12
 BYTE   Cs1
 BYTE   W12
 BYTE   N11
 BYTE   W12
 BYTE   Gn0
 BYTE   W12
 BYTE   N11
 BYTE   W12
 BYTE   Cs1
 BYTE   W12
 BYTE   Gn0
 BYTE   W12
 BYTE   N05  Cs1
 BYTE   W06
 BYTE   N05
 BYTE   W06
 BYTE   PEND 
// 097   ----------------------------------------
 BYTE   N11
 BYTE   W12
 BYTE   Gn0
 BYTE   W12
 BYTE   N11
 BYTE   W12
 BYTE   N11
 BYTE   W12
 BYTE   Cs1
 BYTE   W12
 BYTE   Gn0
 BYTE   W12
 BYTE   N11
 BYTE   W12
 BYTE   N05
 BYTE   W06
 BYTE   N05
 BYTE   W02
 BYTE   EOT
 BYTE   Fn3
 BYTE   W04
// 098   ----------------------------------------
 BYTE   N11  Gn0
 BYTE   W12
 BYTE   Cs1
 BYTE   W12
 BYTE   N11
 BYTE   W12
 BYTE   N11
 BYTE   W12
 BYTE   Gn0
 BYTE   W12
 BYTE   N11
 BYTE   W12
 BYTE   Cs1
 BYTE   W12
 BYTE   N05
 BYTE   W06
 BYTE   N05
 BYTE   W06
// 099   ----------------------------------------
 BYTE   PATT
  POIN2 Label_2_01EA4EED
// 100   ----------------------------------------
 BYTE   PATT
  POIN2 Label_2_01EA4F03
// 101   ----------------------------------------
 BYTE   N11  Cs1  v112
 BYTE   W12
 BYTE   Gn0
 BYTE   W12
 BYTE   N11
 BYTE   W12
 BYTE   N11
 BYTE   W12
 BYTE   Cs1
 BYTE   W12
 BYTE   Gn0
 BYTE   W12
 BYTE   N11
 BYTE   W12
 BYTE   N05
 BYTE   W06
 BYTE   N05
 BYTE   W06
// 102   ----------------------------------------
 BYTE   N78
 BYTE   W96
// 103   ----------------------------------------
 BYTE   W96
// 104   ----------------------------------------
 BYTE   W96
// 105   ----------------------------------------
 BYTE   W96
// 106   ----------------------------------------
 BYTE   W92
 BYTE   W03
 BYTE   GoTo
  POIN2 Label_2_01EA4D3D
 BYTE   FINE

//**************** Track 4 (Midi-Chn.3) ****************//

PokemonB2W2VsGhetsisRSflame_004:
// 000   ----------------------------------------
 BYTE   KEYSH   PokemonB2W2VsGhetsisRSflame_key+0
 BYTE   VOICE   50
 BYTE   PAN   c_v-20
 BYTE   VOL   39*PokemonB2W2VsGhetsisRSflame_mvl/mxv
 BYTE   N90  Gn2  v100
 BYTE   N90  Cs3
 BYTE   W96
// 001   ----------------------------------------
 BYTE   N15  Fs2
 BYTE   N15  Cn3
 BYTE   W96
// 002   ----------------------------------------
 BYTE   N90  Gn2
 BYTE   N90  Cs3
 BYTE   W96
// 003   ----------------------------------------
 BYTE   N15  Fs2
 BYTE   N15  Cn3
 BYTE   W96
// 004   ----------------------------------------
 BYTE   N90  As2
 BYTE   N90  En3
 BYTE   W96
// 005   ----------------------------------------
 BYTE   N15  An2
 BYTE   N15  Ds3
 BYTE   W96
// 006   ----------------------------------------
 BYTE   N90  Fn3
 BYTE   N90  Bn3
 BYTE   W96
// 007   ----------------------------------------
 BYTE   N15  En3
 BYTE   N15  As3
 BYTE   W96
// 008   ----------------------------------------
 BYTE   W96
// 009   ----------------------------------------
 BYTE   W96
// 010   ----------------------------------------
 BYTE   W96
// 011   ----------------------------------------
 BYTE   W96
// 012   ----------------------------------------
 BYTE   W96
// 013   ----------------------------------------
 BYTE   W96
// 014   ----------------------------------------
 BYTE   W96
// 015   ----------------------------------------
 BYTE   W66
 BYTE   PAN   c_v+42
 BYTE   W30
// 016   ----------------------------------------
 BYTE   W84
 BYTE   W03
 BYTE   VOL   50*PokemonB2W2VsGhetsisRSflame_mvl/mxv
 BYTE   W09
// 017   ----------------------------------------
 BYTE   N54  Cn3  v127
 BYTE   W03
 BYTE   Fn2
 BYTE   W92
 BYTE   W01
// 018   ----------------------------------------
 BYTE   W96
// 019   ----------------------------------------
 BYTE   W96
// 020   ----------------------------------------
 BYTE   W96
// 021   ----------------------------------------
 BYTE   W96
// 022   ----------------------------------------
 BYTE   W96
// 023   ----------------------------------------
 BYTE   W96
// 024   ----------------------------------------
 BYTE   W96
// 025   ----------------------------------------
 BYTE   W96
// 026   ----------------------------------------
 BYTE   W96
// 027   ----------------------------------------
 BYTE   W96
// 028   ----------------------------------------
 BYTE   W96
// 029   ----------------------------------------
 BYTE   W96
// 030   ----------------------------------------
 BYTE   W96
// 031   ----------------------------------------
 BYTE   W90
 BYTE   VOL   39*PokemonB2W2VsGhetsisRSflame_mvl/mxv
 BYTE   W06
// 032   ----------------------------------------
Label_3_01EA4FC9:
 BYTE   W30
 BYTE   PAN   c_v+42
 BYTE   W18
 BYTE   N32  En2  v127
 BYTE   N32  Cn3
 BYTE   W48
// 033   ----------------------------------------
 BYTE   W24
 BYTE   En2
 BYTE   N32  Cn3
 BYTE   W72
// 034   ----------------------------------------
 BYTE   En2
 BYTE   N32  Cn3
 BYTE   W72
 BYTE   En2
 BYTE   N32  Cn3
 BYTE   W24
// 035   ----------------------------------------
 BYTE   W48
 BYTE   En2
 BYTE   N32  Cn3
 BYTE   W48
// 036   ----------------------------------------
 BYTE   W96
// 037   ----------------------------------------
 BYTE   W96
// 038   ----------------------------------------
 BYTE   W96
// 039   ----------------------------------------
 BYTE   W96
// 040   ----------------------------------------
 BYTE   W96
// 041   ----------------------------------------
 BYTE   W96
// 042   ----------------------------------------
 BYTE   W96
// 043   ----------------------------------------
 BYTE   W96
// 044   ----------------------------------------
 BYTE   PAN   c_v-2
 BYTE   W01
 BYTE   EnM2
 BYTE   VOL   15*PokemonB2W2VsGhetsisRSflame_mvl/mxv
 BYTE   W23
 BYTE   N23  Gn1  v112
 BYTE   W24
 BYTE   N23
 BYTE   W24
 BYTE   Dn1
 BYTE   W24
// 045   ----------------------------------------
Label_3_01EA4FFC:
 BYTE   N05  Gn1  v112
 BYTE   W06
 BYTE   N05
 BYTE   W06
 BYTE   N11
 BYTE   W12
 BYTE   N23  Dn1
 BYTE   W24
 BYTE   Gn1
 BYTE   W24
 BYTE   N23
 BYTE   W24
 BYTE   PEND 
// 046   ----------------------------------------
Label_3_01EA500C:
 BYTE   N23  Gn1  v112
 BYTE   W24
 BYTE   Dn1
 BYTE   W24
 BYTE   Gn1
 BYTE   W24
 BYTE   Dn1
 BYTE   W24
 BYTE   PEND 
// 047   ----------------------------------------
Label_3_01EA5017:
 BYTE   N05  Dn1  v112
 BYTE   N23  Bn1  v127
 BYTE   W06
 BYTE   N05  Dn1  v112
 BYTE   W18
 BYTE   N23  Gn1
 BYTE   W24
 BYTE   N23
 BYTE   W24
 BYTE   Dn1
 BYTE   W24
 BYTE   PEND 
// 048   ----------------------------------------
Label_3_01EA502A:
 BYTE   W24
 BYTE   N23  Gn1  v112
 BYTE   W24
 BYTE   N23
 BYTE   W24
 BYTE   Dn1
 BYTE   W24
 BYTE   PEND 
// 049   ----------------------------------------
 BYTE   PATT
  POIN2 Label_3_01EA4FFC
// 050   ----------------------------------------
 BYTE   PATT
  POIN2 Label_3_01EA500C
// 051   ----------------------------------------
 BYTE   PATT
  POIN2 Label_3_01EA5017
// 052   ----------------------------------------
Label_3_01EA5043:
 BYTE   N23  Dn1  v112
 BYTE   W24
 BYTE   Gn1
 BYTE   W24
 BYTE   N23
 BYTE   W24
 BYTE   Dn1
 BYTE   W24
 BYTE   PEND 
// 053   ----------------------------------------
 BYTE   PATT
  POIN2 Label_3_01EA4FFC
// 054   ----------------------------------------
 BYTE   PATT
  POIN2 Label_3_01EA500C
// 055   ----------------------------------------
 BYTE   PATT
  POIN2 Label_3_01EA5017
// 056   ----------------------------------------
 BYTE   N23  Dn1  v127
 BYTE   W72
 BYTE   N23
 BYTE   W24
// 057   ----------------------------------------
 BYTE   Dn1  v112
 BYTE   W96
// 058   ----------------------------------------
 BYTE   W96
// 059   ----------------------------------------
 BYTE   W96
// 060   ----------------------------------------
 BYTE   N23
 BYTE   W72
 BYTE   N23
 BYTE   W24
// 061   ----------------------------------------
 BYTE   N23
 BYTE   W96
// 062   ----------------------------------------
 BYTE   W96
// 063   ----------------------------------------
 BYTE   W96
// 064   ----------------------------------------
 BYTE   PATT
  POIN2 Label_3_01EA502A
// 065   ----------------------------------------
 BYTE   PATT
  POIN2 Label_3_01EA4FFC
// 066   ----------------------------------------
 BYTE   PATT
  POIN2 Label_3_01EA500C
// 067   ----------------------------------------
Label_3_01EA507F:
 BYTE   N05  Dn1  v112
 BYTE   W06
 BYTE   N05
 BYTE   W18
 BYTE   N23  Gn1
 BYTE   W24
 BYTE   N23
 BYTE   W24
 BYTE   Dn1
 BYTE   W24
 BYTE   PEND 
// 068   ----------------------------------------
 BYTE   PATT
  POIN2 Label_3_01EA5043
// 069   ----------------------------------------
 BYTE   PATT
  POIN2 Label_3_01EA4FFC
// 070   ----------------------------------------
 BYTE   PATT
  POIN2 Label_3_01EA500C
// 071   ----------------------------------------
 BYTE   PATT
  POIN2 Label_3_01EA507F
// 072   ----------------------------------------
Label_3_01EA50A1:
 BYTE   N23  Dn1  v112
 BYTE   W24
 BYTE   N23
 BYTE   W24
 BYTE   N23
 BYTE   W24
 BYTE   N23
 BYTE   W24
 BYTE   PEND 
// 073   ----------------------------------------
 BYTE   PATT
  POIN2 Label_3_01EA50A1
// 074   ----------------------------------------
 BYTE   W96
// 075   ----------------------------------------
 BYTE   W96
// 076   ----------------------------------------
 BYTE   W96
// 077   ----------------------------------------
 BYTE   W96
// 078   ----------------------------------------
 BYTE   W96
// 079   ----------------------------------------
 BYTE   W96
// 080   ----------------------------------------
Label_3_01EA50B7:
 BYTE   W24
 BYTE   N23  Dn1  v112
 BYTE   W24
 BYTE   N23
 BYTE   W24
 BYTE   N23
 BYTE   W24
 BYTE   PEND 
// 081   ----------------------------------------
 BYTE   PATT
  POIN2 Label_3_01EA50B7
// 082   ----------------------------------------
 BYTE   PATT
  POIN2 Label_3_01EA50B7
// 083   ----------------------------------------
 BYTE   PATT
  POIN2 Label_3_01EA50B7
// 084   ----------------------------------------
 BYTE   PATT
  POIN2 Label_3_01EA50B7
// 085   ----------------------------------------
 BYTE   PATT
  POIN2 Label_3_01EA50B7
// 086   ----------------------------------------
 BYTE   W96
// 087   ----------------------------------------
 BYTE   W96
// 088   ----------------------------------------
 BYTE   W96
// 089   ----------------------------------------
 BYTE   W96
// 090   ----------------------------------------
 BYTE   W96
// 091   ----------------------------------------
 BYTE   W96
// 092   ----------------------------------------
 BYTE   W96
// 093   ----------------------------------------
 BYTE   W96
// 094   ----------------------------------------
 BYTE   W96
// 095   ----------------------------------------
 BYTE   W96
// 096   ----------------------------------------
 BYTE   W96
// 097   ----------------------------------------
 BYTE   W96
// 098   ----------------------------------------
 BYTE   W96
// 099   ----------------------------------------
 BYTE   W96
// 100   ----------------------------------------
 BYTE   W96
// 101   ----------------------------------------
 BYTE   W96
// 102   ----------------------------------------
 BYTE   W96
// 103   ----------------------------------------
 BYTE   W12
 BYTE   VOL   39*PokemonB2W2VsGhetsisRSflame_mvl/mxv
 BYTE   PAN   c_v+39
 BYTE   W36
 BYTE   N32  Fn2  v127
 BYTE   N32  Cn3
 BYTE   W48
// 104   ----------------------------------------
 BYTE   W24
 BYTE   Fn2
 BYTE   N32  Cn3
 BYTE   W72
// 105   ----------------------------------------
 BYTE   Fn2
 BYTE   N32  Cn3
 BYTE   W72
 BYTE   Fn2
 BYTE   N32  Cn3
 BYTE   W24
// 106   ----------------------------------------
 BYTE   W48
 BYTE   Fn2
 BYTE   N32  Cn3
 BYTE   W44
 BYTE   W03
 BYTE   GoTo
  POIN2 Label_3_01EA4FC9
 BYTE   FINE

//**************** Track 5 (Midi-Chn.4) ****************//

PokemonB2W2VsGhetsisRSflame_005:
// 000   ----------------------------------------
 BYTE   KEYSH   PokemonB2W2VsGhetsisRSflame_key+0
 BYTE   VOICE   54
 BYTE   VOL   35*PokemonB2W2VsGhetsisRSflame_mvl/mxv
 BYTE   PAN   c_v+58
 BYTE   N80  Cs4  v120
 BYTE   W01
 BYTE   BEND   c_v+0
 BYTE   W88
 BYTE   N52  Bn3  v108
 BYTE   W07
// 001   ----------------------------------------
 BYTE   W96
// 002   ----------------------------------------
 BYTE   N80  Cs4  v112
 BYTE   W84
 BYTE   N54  Bn3
 BYTE   W12
// 003   ----------------------------------------
 BYTE   W96
// 004   ----------------------------------------
 BYTE   N88  Gn4  v116
 BYTE   W92
 BYTE   W01
 BYTE   N56  Fs4  v096
 BYTE   W03
// 005   ----------------------------------------
 BYTE   W96
// 006   ----------------------------------------
 BYTE   N84  Bn3  v120
 BYTE   N84  Bn4
 BYTE   W88
 BYTE   N48  As3  v092
 BYTE   N48  As4
 BYTE   W08
// 007   ----------------------------------------
 BYTE   W96
// 008   ----------------------------------------
 BYTE   N92  Cs4  v112
 BYTE   TIE  Bn4
 BYTE   W96
// 009   ----------------------------------------
Label_4_01EA514D:
 BYTE   N92  Dn4  v112
 BYTE   W92
 BYTE   W03
 BYTE   PEND 
 BYTE   EOT
 BYTE   Bn4
 BYTE   W01
// 010   ----------------------------------------
Label_4_01EA5156:
 BYTE   N92  Ds4  v112
 BYTE   TIE  As4
 BYTE   W96
 BYTE   PEND 
// 011   ----------------------------------------
 BYTE   PATT
  POIN2 Label_4_01EA514D
// 012   ----------------------------------------
 BYTE   EOT
 BYTE   As4
 BYTE   W01
 BYTE   N92  Ds4  v112
 BYTE   N92  Bn4
 BYTE   W96
// 013   ----------------------------------------
 BYTE   N40  Gn4
 BYTE   N40  Cs5  v124
 BYTE   W48
 BYTE   Ds4  v112
 BYTE   N40  Bn4
 BYTE   W48
// 014   ----------------------------------------
 BYTE   N92  Dn4
 BYTE   N92  As4
 BYTE   W96
// 015   ----------------------------------------
 BYTE   Cs4
 BYTE   N92  An4
 BYTE   W96
// 016   ----------------------------------------
 BYTE   Cs4  v120
 BYTE   TIE  Bn4
 BYTE   W96
// 017   ----------------------------------------
Label_4_01EA5184:
 BYTE   N92  Dn4  v120
 BYTE   W92
 BYTE   W03
 BYTE   PEND 
 BYTE   EOT
 BYTE   Bn4
 BYTE   W01
// 018   ----------------------------------------
 BYTE   N92  Ds4
 BYTE   TIE  As4
 BYTE   W96
// 019   ----------------------------------------
 BYTE   PATT
  POIN2 Label_4_01EA5184
// 020   ----------------------------------------
 BYTE   EOT
 BYTE   As4
 BYTE   W01
 BYTE   N92  Ds4  v120
 BYTE   TIE  Bn4
 BYTE   W96
// 021   ----------------------------------------
 BYTE   N44  En4
 BYTE   W24
 BYTE   W02
 BYTE   VOL   41*PokemonB2W2VsGhetsisRSflame_mvl/mxv
 BYTE   W22
 BYTE   N92  Fn4
 BYTE   W24
 BYTE   W02
 BYTE   VOL   41*PokemonB2W2VsGhetsisRSflame_mvl/mxv
 BYTE   W21
 BYTE   EOT
 BYTE   Bn4
 BYTE   W01
// 022   ----------------------------------------
 BYTE   TIE  Cs5
 BYTE   W24
 BYTE   VOL   43*PokemonB2W2VsGhetsisRSflame_mvl/mxv
 BYTE   W24
 BYTE   N44  Fs4
 BYTE   W24
 BYTE   W02
 BYTE   VOL   44*PokemonB2W2VsGhetsisRSflame_mvl/mxv
 BYTE   W22
// 023   ----------------------------------------
 BYTE   TIE  Gn4
 BYTE   W24
 BYTE   VOL   46*PokemonB2W2VsGhetsisRSflame_mvl/mxv
 BYTE   W72
// 024   ----------------------------------------
 BYTE   W36
 BYTE   W02
 BYTE   As2
 BYTE   W06
 BYTE   Gn2
 BYTE   W06
 BYTE   Ds2
 BYTE   W05
 BYTE   EOT
 BYTE   W01
 BYTE   EOT
 BYTE   Cs5
 BYTE   VOL   16*PokemonB2W2VsGhetsisRSflame_mvl/mxv
 BYTE   W06
 BYTE   Gn1
 BYTE   W06
 BYTE   Ds1
 BYTE   W06
 BYTE   Bn0
 BYTE   W06
 BYTE   Fs0
 BYTE   W06
 BYTE   Ds0
 BYTE   W06
 BYTE   BnM1
 BYTE   W04
// 025   ----------------------------------------
 BYTE   W05
 BYTE   FnM1
 BYTE   W06
 BYTE   CsM1
 BYTE   W21
 BYTE   Fs3
 BYTE   W64
// 026   ----------------------------------------
 BYTE   W96
// 027   ----------------------------------------
 BYTE   W96
// 028   ----------------------------------------
 BYTE   W96
// 029   ----------------------------------------
 BYTE   W96
// 030   ----------------------------------------
 BYTE   W96
// 031   ----------------------------------------
 BYTE   W96
// 032   ----------------------------------------
Label_4_01EA51EC:
 BYTE   W96
// 033   ----------------------------------------
 BYTE   W96
// 034   ----------------------------------------
 BYTE   W96
// 035   ----------------------------------------
 BYTE   W96
// 036   ----------------------------------------
 BYTE   W96
// 037   ----------------------------------------
 BYTE   W96
// 038   ----------------------------------------
 BYTE   W96
// 039   ----------------------------------------
 BYTE   W96
// 040   ----------------------------------------
 BYTE   W96
// 041   ----------------------------------------
 BYTE   W96
// 042   ----------------------------------------
 BYTE   W96
// 043   ----------------------------------------
 BYTE   W96
// 044   ----------------------------------------
 BYTE   W96
// 045   ----------------------------------------
 BYTE   W96
// 046   ----------------------------------------
 BYTE   W96
// 047   ----------------------------------------
 BYTE   W96
// 048   ----------------------------------------
 BYTE   W96
// 049   ----------------------------------------
 BYTE   W96
// 050   ----------------------------------------
 BYTE   W96
// 051   ----------------------------------------
 BYTE   W92
 BYTE   W03
 BYTE   VOL   39*PokemonB2W2VsGhetsisRSflame_mvl/mxv
 BYTE   N08  Gn4  v116
 BYTE   W01
// 052   ----------------------------------------
 BYTE   PAN   c_v+50
 BYTE   N08  Gn3
 BYTE   W11
 BYTE   Cs4
 BYTE   W01
 BYTE   Cs3
 BYTE   W11
 BYTE   Gn4
 BYTE   W01
 BYTE   PAN   c_v+33
 BYTE   N08  Gn3
 BYTE   W11
 BYTE   Cs5
 BYTE   W01
 BYTE   Cs4
 BYTE   W11
 BYTE   Gn5
 BYTE   W01
 BYTE   PAN   c_v-37
 BYTE   N08  Gn4
 BYTE   W11
 BYTE   Cs5
 BYTE   W01
 BYTE   Cs4
 BYTE   W11
 BYTE   Gn4
 BYTE   W01
 BYTE   PAN   c_v-19
 BYTE   N08  Gn3
 BYTE   W11
 BYTE   Cs4
 BYTE   W01
 BYTE   Cs3
 BYTE   W11
 BYTE   Gn4
 BYTE   W01
// 053   ----------------------------------------
 BYTE   PAN   c_v+52
 BYTE   N08  Gn3
 BYTE   W11
 BYTE   Cs5
 BYTE   W01
 BYTE   Cs4
 BYTE   W11
 BYTE   Gn4
 BYTE   W01
 BYTE   PAN   c_v+38
 BYTE   N08  Gn3
 BYTE   W11
 BYTE   Cs5
 BYTE   W01
 BYTE   Cs4
 BYTE   W11
 BYTE   Gn5
 BYTE   W01
 BYTE   PAN   c_v-39
 BYTE   N08  Gn4
 BYTE   W11
 BYTE   Cs5
 BYTE   W01
 BYTE   Cs4
 BYTE   W11
 BYTE   Gn4
 BYTE   W01
 BYTE   PAN   c_v-24
 BYTE   N08  Gn3
 BYTE   W11
 BYTE   Cs4
 BYTE   W01
 BYTE   Cs3
 BYTE   W11
 BYTE   Gn4
 BYTE   W01
// 054   ----------------------------------------
 BYTE   PAN   c_v+52
 BYTE   N08  Gn3
 BYTE   W11
 BYTE   Cs4
 BYTE   W01
 BYTE   Cs3
 BYTE   W11
 BYTE   Gn4
 BYTE   W01
 BYTE   Gn3
 BYTE   W04
 BYTE   PAN   c_v+34
 BYTE   W07
 BYTE   N08  Cs5
 BYTE   W01
 BYTE   Cs4
 BYTE   W11
 BYTE   Gn5
 BYTE   W01
 BYTE   PAN   c_v-42
 BYTE   N08  Gn4
 BYTE   W11
 BYTE   Cs5
 BYTE   W01
 BYTE   Cs4
 BYTE   W11
 BYTE   Gn4
 BYTE   W01
 BYTE   PAN   c_v-30
 BYTE   N08  Gn3
 BYTE   W11
 BYTE   Cs4
 BYTE   W01
 BYTE   Cs3
 BYTE   W11
 BYTE   Gn4
 BYTE   W01
// 055   ----------------------------------------
 BYTE   PAN   c_v+51
 BYTE   N08  Gn3
 BYTE   W11
 BYTE   Cs5
 BYTE   W01
 BYTE   Cs4
 BYTE   W11
 BYTE   Gn5
 BYTE   W01
 BYTE   PAN   c_v+38
 BYTE   N08  Gn4
 BYTE   W11
 BYTE   Fn5
 BYTE   W01
 BYTE   Fn4
 BYTE   W11
 BYTE   Cs5
 BYTE   W01
 BYTE   PAN   c_v-22
 BYTE   N08  Cs4
 BYTE   W11
 BYTE   Gn4
 BYTE   W01
 BYTE   Gn3
 BYTE   W11
 BYTE   Cs4
 BYTE   W01
 BYTE   PAN   c_v-41
 BYTE   N08  Cs3
 BYTE   W11
 BYTE   Gn3
 BYTE   W01
 BYTE   Gn2
 BYTE   W12
// 056   ----------------------------------------
 BYTE   W96
// 057   ----------------------------------------
 BYTE   W96
// 058   ----------------------------------------
 BYTE   W96
// 059   ----------------------------------------
 BYTE   W96
// 060   ----------------------------------------
 BYTE   W96
// 061   ----------------------------------------
 BYTE   W96
// 062   ----------------------------------------
 BYTE   W96
// 063   ----------------------------------------
 BYTE   W92
 BYTE   W01
 BYTE   VOL   43*PokemonB2W2VsGhetsisRSflame_mvl/mxv
 BYTE   W03
// 064   ----------------------------------------
Label_4_01EA52C2:
 BYTE   N11  Gn3  v116
 BYTE   N11  Gn4  v068
 BYTE   W04
 BYTE   PAN   c_v+52
 BYTE   W08
 BYTE   N11  Cs3  v116
 BYTE   N11  Cs4  v068
 BYTE   W12
 BYTE   Gn3  v116
 BYTE   N11  Gn4  v068
 BYTE   W04
 BYTE   PAN   c_v+33
 BYTE   W08
 BYTE   N11  Cs4  v116
 BYTE   N11  Cs5  v068
 BYTE   W12
 BYTE   Gn4  v116
 BYTE   N11  Gn5  v068
 BYTE   W04
 BYTE   PAN   c_v-37
 BYTE   W08
 BYTE   N11  Cs4  v116
 BYTE   N11  Cs5  v068
 BYTE   W12
 BYTE   Gn3  v116
 BYTE   N11  Gn4  v068
 BYTE   W04
 BYTE   PAN   c_v-19
 BYTE   W08
 BYTE   N11  Cs3  v116
 BYTE   N11  Cs4  v068
 BYTE   W12
 BYTE   PEND 
// 065   ----------------------------------------
Label_4_01EA5304:
 BYTE   N11  Gn3  v116
 BYTE   N11  Gn4  v068
 BYTE   W04
 BYTE   PAN   c_v+54
 BYTE   W08
 BYTE   N11  Cs4  v116
 BYTE   N11  Cs5  v068
 BYTE   W12
 BYTE   Gn3  v116
 BYTE   N11  Gn4  v068
 BYTE   W04
 BYTE   PAN   c_v+38
 BYTE   W08
 BYTE   N11  Cs4  v116
 BYTE   N11  Cs5  v068
 BYTE   W12
 BYTE   Gn4  v116
 BYTE   N11  Gn5  v068
 BYTE   W04
 BYTE   PAN   c_v-39
 BYTE   W08
 BYTE   N11  Cs4  v116
 BYTE   N11  Cs5  v068
 BYTE   W12
 BYTE   Gn3  v116
 BYTE   N11  Gn4  v068
 BYTE   W04
 BYTE   PAN   c_v-24
 BYTE   W08
 BYTE   N11  Cs3  v116
 BYTE   N11  Cs4  v068
 BYTE   W12
 BYTE   PEND 
// 066   ----------------------------------------
Label_4_01EA5346:
 BYTE   N11  Gn3  v116
 BYTE   N11  Gn4  v068
 BYTE   W04
 BYTE   PAN   c_v+54
 BYTE   W08
 BYTE   N11  Cs3  v116
 BYTE   N11  Cs4  v068
 BYTE   W12
 BYTE   Gn3  v116
 BYTE   N11  Gn4  v068
 BYTE   W08
 BYTE   PAN   c_v+34
 BYTE   W04
 BYTE   N11  Cs4  v116
 BYTE   N11  Cs5  v068
 BYTE   W12
 BYTE   Gn4  v116
 BYTE   N11  Gn5  v068
 BYTE   W04
 BYTE   PAN   c_v-42
 BYTE   W08
 BYTE   N11  Cs4  v116
 BYTE   N11  Cs5  v068
 BYTE   W12
 BYTE   Gn3  v116
 BYTE   N11  Gn4  v068
 BYTE   W04
 BYTE   PAN   c_v-30
 BYTE   W08
 BYTE   N11  Cs3  v116
 BYTE   N11  Cs4  v068
 BYTE   W12
 BYTE   PEND 
// 067   ----------------------------------------
 BYTE   Cs3  v116
 BYTE   N11  Cs4  v068
 BYTE   W04
 BYTE   PAN   c_v+53
 BYTE   W08
 BYTE   N11  Gn3  v116
 BYTE   N11  Gn4  v068
 BYTE   W12
 BYTE   Cs3  v116
 BYTE   N11  Cs4  v068
 BYTE   W04
 BYTE   PAN   c_v+38
 BYTE   W08
 BYTE   N11  Gn3  v116
 BYTE   N11  Gn4  v068
 BYTE   W12
 BYTE   Cs4  v116
 BYTE   N11  Cs5  v068
 BYTE   W04
 BYTE   PAN   c_v-22
 BYTE   W08
 BYTE   N11  Gn3  v116
 BYTE   N11  Gn4  v068
 BYTE   W12
 BYTE   Cs3  v116
 BYTE   N11  Cs4  v068
 BYTE   W04
 BYTE   PAN   c_v-41
 BYTE   W08
 BYTE   N11  Gn2  v116
 BYTE   N11  Gn3  v068
 BYTE   W12
// 068   ----------------------------------------
 BYTE   PATT
  POIN2 Label_4_01EA52C2
// 069   ----------------------------------------
 BYTE   PATT
  POIN2 Label_4_01EA5304
// 070   ----------------------------------------
 BYTE   PATT
  POIN2 Label_4_01EA5346
// 071   ----------------------------------------
 BYTE   N11  Gn3  v116
 BYTE   N11  Gn4  v068
 BYTE   W04
 BYTE   PAN   c_v+53
 BYTE   W08
 BYTE   N11  Cs4  v116
 BYTE   N11  Cs5  v068
 BYTE   W12
 BYTE   Gn4  v116
 BYTE   N11  Gn5  v068
 BYTE   W04
 BYTE   PAN   c_v+38
 BYTE   W08
 BYTE   N11  Fn4  v116
 BYTE   N11  Fn5  v068
 BYTE   W12
 BYTE   Cs4  v116
 BYTE   N11  Cs5  v068
 BYTE   W04
 BYTE   PAN   c_v-22
 BYTE   W08
 BYTE   N11  Gn3  v116
 BYTE   N11  Gn4  v068
 BYTE   W12
 BYTE   Cs3  v116
 BYTE   N11  Cs4  v068
 BYTE   W04
 BYTE   PAN   c_v-41
 BYTE   W08
 BYTE   N10  Gn2  v116
 BYTE   N10  Gn3  v068
 BYTE   W09
 BYTE   PAN   c_v+37
 BYTE   W03
// 072   ----------------------------------------
 BYTE   N84  Cs4  v112
 BYTE   W92
 BYTE   W03
 BYTE   N56  Bn3  v100
 BYTE   W01
// 073   ----------------------------------------
 BYTE   W96
// 074   ----------------------------------------
 BYTE   N80  Cs4  v104
 BYTE   W92
 BYTE   W01
 BYTE   N44  Bn3
 BYTE   W03
// 075   ----------------------------------------
 BYTE   W96
// 076   ----------------------------------------
 BYTE   N88  Gn4  v112
 BYTE   W92
 BYTE   W01
 BYTE   N56  Fs4  v092
 BYTE   W03
// 077   ----------------------------------------
 BYTE   W96
// 078   ----------------------------------------
 BYTE   N84  Bn3  v120
 BYTE   N84  Bn4  v116
 BYTE   W88
 BYTE   N48  As3  v092
 BYTE   N48  As4  v088
 BYTE   W08
// 079   ----------------------------------------
 BYTE   W96
// 080   ----------------------------------------
 BYTE   N92  Cs4  v112
 BYTE   TIE  Bn4  v108
 BYTE   W96
// 081   ----------------------------------------
 BYTE   PATT
  POIN2 Label_4_01EA514D
// 082   ----------------------------------------
 BYTE   EOT
 BYTE   Bn4
 BYTE   W01
// 083   ----------------------------------------
 BYTE   PATT
  POIN2 Label_4_01EA5156
// 084   ----------------------------------------
 BYTE   PATT
  POIN2 Label_4_01EA514D
// 085   ----------------------------------------
 BYTE   EOT
 BYTE   As4
 BYTE   W01
 BYTE   N11  Cs1  v112
 BYTE   W02
 BYTE   N92  Cs4
 BYTE   TIE  Bn4
 BYTE   W92
 BYTE   W02
// 086   ----------------------------------------
 BYTE   N92  Dn4
 BYTE   W96
// 087   ----------------------------------------
 BYTE   TIE  Cs4
 BYTE   TIE  Fn4
 BYTE   W01
 BYTE   EOT
 BYTE   Bn4
 BYTE   W01
 BYTE   TIE  Cs5
 BYTE   W10
 BYTE   N11  Gn0
 BYTE   W12
 BYTE   N11
 BYTE   W12
 BYTE   Cs1
 BYTE   W12
 BYTE   Gn0
 BYTE   W12
 BYTE   N05
 BYTE   W06
 BYTE   N05
 BYTE   W06
 BYTE   N11  Cs1
 BYTE   W12
 BYTE   Gn0
 BYTE   W12
// 088   ----------------------------------------
 BYTE   N05
 BYTE   W06
 BYTE   Cs1
 BYTE   W06
 BYTE   N11  Gn0
 BYTE   W12
 BYTE   Cs1
 BYTE   W12
 BYTE   Gn0
 BYTE   W12
 BYTE   Cs1
 BYTE   W12
 BYTE   N11
 BYTE   W12
 BYTE   Gn0
 BYTE   W12
 BYTE   N11
 BYTE   W01
 BYTE   EOT
 BYTE   Fn4
 BYTE   W07
 BYTE   TIE  En4
 BYTE   W04
// 089   ----------------------------------------
Label_4_01EA54A6:
 BYTE   N11  Cs1  v112
 BYTE   W12
 BYTE   Gn0
 BYTE   W12
 BYTE   Cs1
 BYTE   W12
 BYTE   N11
 BYTE   W12
 BYTE   Gn0
 BYTE   W12
 BYTE   N11
 BYTE   W12
 BYTE   Cs1
 BYTE   W12
 BYTE   N05  Gn0
 BYTE   W06
 BYTE   N05
 BYTE   W06
 BYTE   PEND 
// 090   ----------------------------------------
 BYTE   N11  Cs1
 BYTE   W12
 BYTE   N11
 BYTE   W12
 BYTE   Gn0
 BYTE   W12
 BYTE   N11
 BYTE   W12
 BYTE   N11
 BYTE   W12
 BYTE   Cs1
 BYTE   W12
 BYTE   Gn0
 BYTE   W12
 BYTE   N11
 BYTE   W04
 BYTE   EOT
 BYTE   En4
 BYTE   W04
 BYTE   TIE  Fn4
 BYTE   W04
// 091   ----------------------------------------
Label_4_01EA54D3:
 BYTE   N11  Cs1  v112
 BYTE   W12
 BYTE   Gn0
 BYTE   W12
 BYTE   N11
 BYTE   W12
 BYTE   Cs1
 BYTE   W12
 BYTE   Gn0
 BYTE   W12
 BYTE   N05
 BYTE   W06
 BYTE   N05
 BYTE   W06
 BYTE   N11  Cs1
 BYTE   W12
 BYTE   Gn0
 BYTE   W12
 BYTE   PEND 
// 092   ----------------------------------------
 BYTE   N05
 BYTE   W06
 BYTE   Cs1
 BYTE   W06
 BYTE   N11  Gn0
 BYTE   W12
 BYTE   Cs1
 BYTE   W12
 BYTE   Gn0
 BYTE   W12
 BYTE   Cs1
 BYTE   W12
 BYTE   N11
 BYTE   W12
 BYTE   Gn0
 BYTE   W12
 BYTE   N11
 BYTE   W03
 BYTE   EOT
 BYTE   Fn4
 BYTE   W06
 BYTE   TIE  En4
 BYTE   W03
// 093   ----------------------------------------
 BYTE   PATT
  POIN2 Label_4_01EA54A6
// 094   ----------------------------------------
 BYTE   N11  Cs1  v112
 BYTE   W12
 BYTE   N11
 BYTE   W12
 BYTE   Gn0
 BYTE   W12
 BYTE   N11
 BYTE   W12
 BYTE   N11
 BYTE   W12
 BYTE   Cs1
 BYTE   W12
 BYTE   N05  Gn0
 BYTE   W06
 BYTE   N05
 BYTE   W06
 BYTE   N05
 BYTE   W06
 BYTE   N05
 BYTE   W02
 BYTE   EOT
 BYTE   En4
 BYTE   W03
 BYTE   Cs4
 BYTE   W01
// 095   ----------------------------------------
 BYTE   Cs5
 BYTE   N32  Cs1
 BYTE   TIE  Cs4
 BYTE   TIE  Fn4
 BYTE   TIE  Cs5
 BYTE   W12
 BYTE   N11  Gn0
 BYTE   W12
 BYTE   N11
 BYTE   W12
 BYTE   Cs1
 BYTE   W12
 BYTE   Gn0
 BYTE   W12
 BYTE   N05
 BYTE   W06
 BYTE   N05
 BYTE   W06
 BYTE   N11  Cs1
 BYTE   W12
 BYTE   Gn0
 BYTE   W12
// 096   ----------------------------------------
Label_4_01EA553F:
 BYTE   N05  Gn0  v112
 BYTE   W06
 BYTE   Cs1
 BYTE   W06
 BYTE   N11  Gn0
 BYTE   W12
 BYTE   Cs1
 BYTE   W12
 BYTE   Gn0
 BYTE   W12
 BYTE   Cs1
 BYTE   W12
 BYTE   N11
 BYTE   W12
 BYTE   Gn0
 BYTE   W12
 BYTE   N11
 BYTE   W12
 BYTE   PEND 
// 097   ----------------------------------------
 BYTE   PATT
  POIN2 Label_4_01EA54A6
// 098   ----------------------------------------
 BYTE   N11  Cs1  v112
 BYTE   W12
 BYTE   N11
 BYTE   W12
 BYTE   Gn0
 BYTE   W12
 BYTE   N11
 BYTE   W12
 BYTE   N11
 BYTE   W12
 BYTE   Cs1
 BYTE   W12
 BYTE   Gn0
 BYTE   W12
 BYTE   N11
 BYTE   W05
 BYTE   EOT
 BYTE   Fn4
 BYTE   W03
 BYTE   Cs4  v085
 BYTE   W04
// 099   ----------------------------------------
 BYTE   PATT
  POIN2 Label_4_01EA54D3
// 100   ----------------------------------------
 BYTE   PATT
  POIN2 Label_4_01EA553F
// 101   ----------------------------------------
 BYTE   PATT
  POIN2 Label_4_01EA54A6
// 102   ----------------------------------------
 BYTE   N11  Cs1  v112
 BYTE   W12
 BYTE   N11
 BYTE   W12
 BYTE   Gn0
 BYTE   W12
 BYTE   N11
 BYTE   W12
 BYTE   N11
 BYTE   W12
 BYTE   Cs1
 BYTE   W12
 BYTE   N05  Gn0
 BYTE   W06
 BYTE   N05
 BYTE   W06
 BYTE   N05
 BYTE   W06
 BYTE   N05
 BYTE   W06
// 103   ----------------------------------------
 BYTE   N84  Cs1
 BYTE   W92
 BYTE   W03
 BYTE   W01
// 104   ----------------------------------------
 BYTE   W96
// 105   ----------------------------------------
 BYTE   W96
// 106   ----------------------------------------
 BYTE   W96
// 107   ----------------------------------------
 BYTE   W56
 BYTE   VOL   36*PokemonB2W2VsGhetsisRSflame_mvl/mxv
 BYTE   PAN   c_v+58
 BYTE   W36
 BYTE   W03
 BYTE   GoTo
  POIN2 Label_4_01EA51EC
 BYTE   FINE

//**************** Track 6 (Midi-Chn.5) ****************//

PokemonB2W2VsGhetsisRSflame_006:
// 000   ----------------------------------------
 BYTE   KEYSH   PokemonB2W2VsGhetsisRSflame_key+0
 BYTE   VOICE   51
 BYTE   VOL   48*PokemonB2W2VsGhetsisRSflame_mvl/mxv
 BYTE   PAN   c_v+60
 BYTE   N92  Cs1  v127
 BYTE   W96
// 001   ----------------------------------------
 BYTE   N11  Cn1
 BYTE   W96
// 002   ----------------------------------------
 BYTE   N92  Cs1
 BYTE   W96
// 003   ----------------------------------------
 BYTE   N11  Cn1
 BYTE   W96
// 004   ----------------------------------------
 BYTE   N92  En1
 BYTE   W96
// 005   ----------------------------------------
 BYTE   N11  Ds1  v116
 BYTE   W96
// 006   ----------------------------------------
 BYTE   N92  Bn1  v127
 BYTE   W96
// 007   ----------------------------------------
 BYTE   N11  As1
 BYTE   W96
// 008   ----------------------------------------
 BYTE   N92  Cs1
 BYTE   W96
// 009   ----------------------------------------
 BYTE   Gn1
 BYTE   W96
// 010   ----------------------------------------
 BYTE   Cs1
 BYTE   W96
// 011   ----------------------------------------
Label_5_01EA55DA:
 BYTE   N44  Gn1  v127
 BYTE   W48
 BYTE   Cs1
 BYTE   W48
 BYTE   PEND 
// 012   ----------------------------------------
 BYTE   N92
 BYTE   W96
// 013   ----------------------------------------
 BYTE   PATT
  POIN2 Label_5_01EA55DA
// 014   ----------------------------------------
 BYTE   N44  Cs1  v127
 BYTE   W48
 BYTE   Gn1
 BYTE   W48
// 015   ----------------------------------------
 BYTE   N92  Cs1
 BYTE   W96
// 016   ----------------------------------------
 BYTE   N92
 BYTE   W96
// 017   ----------------------------------------
 BYTE   Gn1
 BYTE   W96
// 018   ----------------------------------------
 BYTE   Cs1
 BYTE   W96
// 019   ----------------------------------------
 BYTE   Gn1
 BYTE   W96
// 020   ----------------------------------------
 BYTE   Cs1
 BYTE   W96
// 021   ----------------------------------------
 BYTE   N44  Gn1
 BYTE   W48
 BYTE   N92  Cs1
 BYTE   W48
// 022   ----------------------------------------
 BYTE   W48
 BYTE   N44  Gn1
 BYTE   W48
// 023   ----------------------------------------
 BYTE   Cs2
 BYTE   W48
 BYTE   Cs1
 BYTE   W44
 BYTE   W01
 BYTE   PAN   c_v-56
 BYTE   W03
// 024   ----------------------------------------
 BYTE   W96
// 025   ----------------------------------------
 BYTE   W96
// 026   ----------------------------------------
 BYTE   W96
// 027   ----------------------------------------
 BYTE   W96
// 028   ----------------------------------------
 BYTE   W96
// 029   ----------------------------------------
 BYTE   W96
// 030   ----------------------------------------
 BYTE   W96
// 031   ----------------------------------------
 BYTE   W92
 BYTE   W01
 BYTE   VOICE   91
 BYTE   W03
// 032   ----------------------------------------
Label_5_01EA5619:
 BYTE   W96
// 033   ----------------------------------------
 BYTE   W96
// 034   ----------------------------------------
 BYTE   W96
// 035   ----------------------------------------
 BYTE   W92
 BYTE   W01
 BYTE   PAN   c_v-15
 BYTE   W03
// 036   ----------------------------------------
 BYTE   N32  Fn2  v112
 BYTE   N32  Gn2  v092
 BYTE   N32  Cs3  v112
 BYTE   W36
 BYTE   N01  Cs1  v100
 BYTE   N01  Cs2
 BYTE   W12
 BYTE   Cs1
 BYTE   N01  Cs2
 BYTE   W24
 BYTE   N22  Dn1  v092
 BYTE   N22  Dn2
 BYTE   W24
// 037   ----------------------------------------
Label_5_01EA563B:
 BYTE   N05  Cs1  v108
 BYTE   N05  Cs2
 BYTE   W12
 BYTE   N01  Cs1  v100
 BYTE   N01  Cs2
 BYTE   W12
 BYTE   Cs1  v084
 BYTE   N01  Cs2
 BYTE   W12
 BYTE   Cs1
 BYTE   N01  Cs2
 BYTE   W12
 BYTE   N44  En1  v108
 BYTE   N44  En2
 BYTE   W48
 BYTE   PEND 
// 038   ----------------------------------------
Label_5_01EA5657:
 BYTE   N05  Cs1  v108
 BYTE   N05  Cs2
 BYTE   W12
 BYTE   N01  Cs1  v100
 BYTE   N01  Cs2
 BYTE   W12
 BYTE   Cs1  v084
 BYTE   N01  Cs2
 BYTE   W12
 BYTE   Cs1
 BYTE   N01  Cs2
 BYTE   W12
 BYTE   N44  Fs1  v108
 BYTE   N44  Fs2
 BYTE   W48
 BYTE   PEND 
// 039   ----------------------------------------
Label_5_01EA5673:
 BYTE   N05  Cs1  v108
 BYTE   N05  Cs2
 BYTE   W12
 BYTE   N01  Cs1  v100
 BYTE   N01  Cs2
 BYTE   W12
 BYTE   Cs1  v084
 BYTE   N01  Cs2
 BYTE   W12
 BYTE   Cs1
 BYTE   N01  Cs2
 BYTE   W12
 BYTE   N44  Gn1  v108
 BYTE   N44  Gn2
 BYTE   W48
 BYTE   PEND 
// 040   ----------------------------------------
 BYTE   N32  Bn2  v100
 BYTE   N32  En3
 BYTE   W36
 BYTE   N01  Cs1  v076
 BYTE   N01  Cs2
 BYTE   W12
 BYTE   Cs1  v080
 BYTE   N01  Cs2
 BYTE   W24
 BYTE   N22  Dn1  v092
 BYTE   N22  Dn2
 BYTE   W24
// 041   ----------------------------------------
 BYTE   PATT
  POIN2 Label_5_01EA563B
// 042   ----------------------------------------
 BYTE   PATT
  POIN2 Label_5_01EA5657
// 043   ----------------------------------------
 BYTE   PATT
  POIN2 Label_5_01EA5673
// 044   ----------------------------------------
 BYTE   N20  Gs1  v096
 BYTE   N20  Cs2  v108
 BYTE   W24
 BYTE   N01  Gs1  v092
 BYTE   N01  Cs2  v108
 BYTE   W12
 BYTE   Gs1  v100
 BYTE   N01  Cs2  v112
 BYTE   W12
 BYTE   N32  Gs1  v096
 BYTE   N32  Cs2  v108
 BYTE   W36
 BYTE   N01  Gs1  v092
 BYTE   N01  Cs2  v108
 BYTE   W12
// 045   ----------------------------------------
 BYTE   Gs1  v100
 BYTE   N01  Cs2  v112
 BYTE   W12
 BYTE   N20  Gs1  v096
 BYTE   N20  Cs2  v108
 BYTE   W24
 BYTE   N01  Gn1  v092
 BYTE   N01  Cn2  v108
 BYTE   W12
 BYTE   Gn1  v100
 BYTE   N01  Cn2  v112
 BYTE   W12
 BYTE   Gn1  v092
 BYTE   N01  Cn2  v108
 BYTE   W12
 BYTE   N20  Gs1  v096
 BYTE   N20  Cs2  v108
 BYTE   W24
// 046   ----------------------------------------
 BYTE   N01  Gs1  v092
 BYTE   N01  Cs2  v108
 BYTE   W12
 BYTE   Gs1  v100
 BYTE   N01  Cs2  v112
 BYTE   W12
 BYTE   Gs1  v092
 BYTE   N01  Cs2  v108
 BYTE   W12
 BYTE   Gs1  v092
 BYTE   N01  Cs2  v108
 BYTE   W12
 BYTE   N20  Gs1  v096
 BYTE   N20  En2  v092
 BYTE   W24
 BYTE   N01  Gs1
 BYTE   N01  Cs2  v108
 BYTE   W12
 BYTE   Gs1  v100
 BYTE   N01  Cs2  v112
 BYTE   W12
// 047   ----------------------------------------
 BYTE   Gs1  v092
 BYTE   N01  Cs2  v108
 BYTE   W12
 BYTE   Gs1  v092
 BYTE   N01  Cs2  v108
 BYTE   W12
 BYTE   N20
 BYTE   N20  Fs2  v100
 BYTE   W24
 BYTE   En2  v108
 BYTE   N20  Gs2  v104
 BYTE   W24
 BYTE   Fs2  v108
 BYTE   N20  An2  v104
 BYTE   W24
// 048   ----------------------------------------
 BYTE   TIE  Cs2  v124
 BYTE   W96
// 049   ----------------------------------------
 BYTE   W60
 BYTE   W02
 BYTE   EOT
 BYTE   W10
 BYTE   N02  Cs2  v100
 BYTE   W12
 BYTE   N02
 BYTE   W12
// 050   ----------------------------------------
Label_5_01EA5755:
 BYTE   N14  Cs2  v104
 BYTE   W24
 BYTE   N02  Cs2  v100
 BYTE   W12
 BYTE   N02
 BYTE   W12
 BYTE   N17  Cn2  v104
 BYTE   W24
 BYTE   N02  Cs2  v100
 BYTE   W12
 BYTE   N02
 BYTE   W12
 BYTE   PEND 
// 051   ----------------------------------------
Label_5_01EA576A:
 BYTE   N11  Cs2  v104
 BYTE   W12
 BYTE   N05  Gs1  v100
 BYTE   W12
 BYTE   N02
 BYTE   W12
 BYTE   N02
 BYTE   W12
 BYTE   N23  Cs2  v104
 BYTE   W24
 BYTE   Dn2
 BYTE   W24
 BYTE   PEND 
// 052   ----------------------------------------
 BYTE   TIE  Cs2
 BYTE   W96
// 053   ----------------------------------------
 BYTE   W60
 BYTE   W02
 BYTE   EOT
 BYTE   W10
 BYTE   N02  Cs2  v100
 BYTE   W12
 BYTE   N02
 BYTE   W12
// 054   ----------------------------------------
 BYTE   PATT
  POIN2 Label_5_01EA5755
// 055   ----------------------------------------
 BYTE   PATT
  POIN2 Label_5_01EA576A
// 056   ----------------------------------------
 BYTE   N32  Cs1  v080
 BYTE   W36
 BYTE   N08  Cs1  v068
 BYTE   W12
 BYTE   N32  En1  v080
 BYTE   W36
 BYTE   N08  En1  v068
 BYTE   W12
// 057   ----------------------------------------
 BYTE   N32  Cs1  v080
 BYTE   W36
 BYTE   N08  Cs1  v068
 BYTE   W12
 BYTE   N32  Gn1  v080
 BYTE   W36
 BYTE   N08  Gn1  v068
 BYTE   W12
// 058   ----------------------------------------
 BYTE   N32  Cs1  v080
 BYTE   W36
 BYTE   N08  Cs1  v068
 BYTE   W12
 BYTE   N22  En1  v080
 BYTE   W24
 BYTE   Gn0
 BYTE   W24
// 059   ----------------------------------------
 BYTE   N32  Cs1
 BYTE   W36
 BYTE   N08  Cs1  v068
 BYTE   W12
 BYTE   N44  Cn1  v080
 BYTE   W48
// 060   ----------------------------------------
 BYTE   N07  Cs1  v127
 BYTE   W12
 BYTE   Cs1  v096
 BYTE   W12
 BYTE   Cs1  v104
 BYTE   W12
 BYTE   N07
 BYTE   W12
 BYTE   N22  Cs2  v096
 BYTE   N22  En2  v104
 BYTE   W24
 BYTE   Gn1  v096
 BYTE   N22  Bn1  v104
 BYTE   W24
// 061   ----------------------------------------
 BYTE   N04  Cs1  v127
 BYTE   W12
 BYTE   Cs1  v096
 BYTE   W12
 BYTE   Cs1  v104
 BYTE   W12
 BYTE   N04
 BYTE   W12
 BYTE   N22  En2  v100
 BYTE   N22  Gn2  v104
 BYTE   W24
 BYTE   Gs1  v100
 BYTE   N22  Bn1  v104
 BYTE   W24
// 062   ----------------------------------------
 BYTE   N02  Cs1  v127
 BYTE   W12
 BYTE   Cs1  v096
 BYTE   W12
 BYTE   Cs1  v120
 BYTE   W12
 BYTE   Cs1  v104
 BYTE   W12
 BYTE   N14  Gs2  v100
 BYTE   N14  Bn2  v104
 BYTE   W24
 BYTE   Gn2  v100
 BYTE   N14  As2  v104
 BYTE   W24
// 063   ----------------------------------------
 BYTE   N10  Cs1  v127
 BYTE   W12
 BYTE   N16  Fs2  v100
 BYTE   N16  An2  v104
 BYTE   W36
 BYTE   N10  Cs1  v127
 BYTE   W12
 BYTE   N17  Fn2  v100
 BYTE   N17  Gs2  v104
 BYTE   W11
 BYTE   BEND   c_v+0
 BYTE   W04
 BYTE   En3
 BYTE   W03
 BYTE   En3
 BYTE   W03
 BYTE   Ds3
 BYTE   W05
 BYTE   Ds3
 BYTE   W03
 BYTE   Ds3
 BYTE   W03
 BYTE   Ds3
 BYTE   W03
 BYTE   En3
 BYTE   W01
// 064   ----------------------------------------
 BYTE   TIE  En2  v108
 BYTE   TIE  Gn2  v116
 BYTE   W08
 BYTE   BEND   c_v-1
 BYTE   W06
 BYTE   Ds3
 BYTE   W06
 BYTE   Ds3
 BYTE   W06
 BYTE   Ds3
 BYTE   W06
 BYTE   Dn3
 BYTE   W06
 BYTE   Dn3
 BYTE   W06
 BYTE   Dn3
 BYTE   W06
 BYTE   Cs3
 BYTE   W06
 BYTE   Cs3
 BYTE   W06
 BYTE   Cs3
 BYTE   W06
 BYTE   Cs3
 BYTE   W06
 BYTE   Cn3
 BYTE   W06
 BYTE   Cn3
 BYTE   W06
 BYTE   Cn3
 BYTE   W06
 BYTE   Cn3
 BYTE   W04
// 065   ----------------------------------------
 BYTE   W02
 BYTE   Bn2
 BYTE   W06
 BYTE   Bn2
 BYTE   W06
 BYTE   Bn2
 BYTE   W06
 BYTE   As2
 BYTE   W06
 BYTE   As2
 BYTE   W06
 BYTE   As2
 BYTE   W06
 BYTE   As2
 BYTE   W06
 BYTE   An2
 BYTE   W06
 BYTE   An2
 BYTE   W06
 BYTE   An2
 BYTE   W06
 BYTE   An2
 BYTE   W06
 BYTE   Gs2
 BYTE   W28
// 066   ----------------------------------------
 BYTE   W90
 BYTE   W01
 BYTE   EOT
 BYTE   En2  v055
 BYTE   W05
// 067   ----------------------------------------
 BYTE   BEND   c_v+0
 BYTE   N68  Gs1  v100
 BYTE   N68  Cs2  v112
 BYTE   W72
 BYTE   N02  Gs1  v076
 BYTE   N02  Cs2  v088
 BYTE   W12
 BYTE   Gs1  v076
 BYTE   N02  Cs2  v088
 BYTE   W12
// 068   ----------------------------------------
 BYTE   TIE  Bn1  v104
 BYTE   TIE  En2  v116
 BYTE   W96
// 069   ----------------------------------------
 BYTE   W92
 BYTE   W02
 BYTE   EOT
 BYTE   Bn1  v052
 BYTE   W02
// 070   ----------------------------------------
 BYTE   TIE  Gn1  v112
 BYTE   TIE  Cs2
 BYTE   W20
 BYTE   BEND   c_v-2
 BYTE   W07
 BYTE   Dn3
 BYTE   W06
 BYTE   Dn3
 BYTE   W06
 BYTE   Cs3
 BYTE   W06
 BYTE   Cs3
 BYTE   W06
 BYTE   Cs3
 BYTE   W08
 BYTE   Cn3
 BYTE   W06
 BYTE   Cn3
 BYTE   W06
 BYTE   Cn3
 BYTE   W06
 BYTE   Bn2
 BYTE   W06
 BYTE   Bn2
 BYTE   W07
 BYTE   Bn2
 BYTE   W06
// 071   ----------------------------------------
 BYTE   As2
 BYTE   W06
 BYTE   As2
 BYTE   W06
 BYTE   As2
 BYTE   W06
 BYTE   An2
 BYTE   W06
 BYTE   An2
 BYTE   W08
 BYTE   An2
 BYTE   W06
 BYTE   Gs2
 BYTE   W06
 BYTE   Gs2
 BYTE   W06
 BYTE   Gs2
 BYTE   W06
 BYTE   Gn2
 BYTE   W07
 BYTE   Gn2
 BYTE   W06
 BYTE   Gn2
 BYTE   W06
 BYTE   Fs2
 BYTE   W06
 BYTE   Fs2
 BYTE   W06
 BYTE   Fs2
 BYTE   W08
 BYTE   Fn2
 BYTE   W01
// 072   ----------------------------------------
 BYTE   W05
 BYTE   Fn2
 BYTE   W06
 BYTE   Fn2
 BYTE   W06
 BYTE   En2
 BYTE   W06
 BYTE   En2
 BYTE   W68
 BYTE   W01
 BYTE   EOT
 BYTE   Gn1  v049
 BYTE   W04
// 073   ----------------------------------------
 BYTE   W48
 BYTE   W02
 BYTE   BEND   c_v+0
 BYTE   W44
 BYTE   W02
// 074   ----------------------------------------
 BYTE   W96
// 075   ----------------------------------------
 BYTE   W96
// 076   ----------------------------------------
 BYTE   W96
// 077   ----------------------------------------
 BYTE   W96
// 078   ----------------------------------------
 BYTE   W96
// 079   ----------------------------------------
 BYTE   W96
// 080   ----------------------------------------
 BYTE   W96
// 081   ----------------------------------------
 BYTE   W96
// 082   ----------------------------------------
 BYTE   W96
// 083   ----------------------------------------
 BYTE   W96
// 084   ----------------------------------------
 BYTE   W96
// 085   ----------------------------------------
 BYTE   W96
// 086   ----------------------------------------
 BYTE   W96
// 087   ----------------------------------------
 BYTE   W96
// 088   ----------------------------------------
 BYTE   W96
// 089   ----------------------------------------
 BYTE   W96
// 090   ----------------------------------------
 BYTE   W96
// 091   ----------------------------------------
 BYTE   W96
// 092   ----------------------------------------
 BYTE   W96
// 093   ----------------------------------------
 BYTE   W96
// 094   ----------------------------------------
 BYTE   W96
// 095   ----------------------------------------
 BYTE   W96
// 096   ----------------------------------------
 BYTE   W96
// 097   ----------------------------------------
 BYTE   W96
// 098   ----------------------------------------
 BYTE   W96
// 099   ----------------------------------------
 BYTE   W96
// 100   ----------------------------------------
 BYTE   W96
// 101   ----------------------------------------
 BYTE   W96
// 102   ----------------------------------------
 BYTE   W96
// 103   ----------------------------------------
 BYTE   W96
// 104   ----------------------------------------
 BYTE   W96
// 105   ----------------------------------------
 BYTE   W96
// 106   ----------------------------------------
 BYTE   W92
 BYTE   W03
 BYTE   GoTo
  POIN2 Label_5_01EA5619
 BYTE   FINE

//**************** Track 7 (Midi-Chn.6) ****************//

PokemonB2W2VsGhetsisRSflame_007:
// 000   ----------------------------------------
 BYTE   KEYSH   PokemonB2W2VsGhetsisRSflame_key+0
 BYTE   VOICE   91
 BYTE   PAN   c_v+25
 BYTE   VOL   30*PokemonB2W2VsGhetsisRSflame_mvl/mxv
 BYTE   W48
 BYTE   N88  Cs3  v096
 BYTE   W48
// 001   ----------------------------------------
Label_6_5451DD:
 BYTE   W44
 BYTE   N03  Cn3  v068
 BYTE   W04
 BYTE   N92  Bn2  v084
 BYTE   W48
 BYTE   PEND 
// 002   ----------------------------------------
 BYTE   W48
 BYTE   N88  Cs3  v096
 BYTE   W48
// 003   ----------------------------------------
 BYTE   PATT
  POIN2 Label_6_5451DD
// 004   ----------------------------------------
 BYTE   W48
 BYTE   N88  Cs3  v096
 BYTE   W48
// 005   ----------------------------------------
 BYTE   PATT
  POIN2 Label_6_5451DD
// 006   ----------------------------------------
 BYTE   W48
 BYTE   N88  Cs3  v096
 BYTE   W48
// 007   ----------------------------------------
 BYTE   PATT
  POIN2 Label_6_5451DD
// 008   ----------------------------------------
 BYTE   W96
// 009   ----------------------------------------
 BYTE   W96
// 010   ----------------------------------------
 BYTE   W96
// 011   ----------------------------------------
 BYTE   W96
// 012   ----------------------------------------
 BYTE   W96
// 013   ----------------------------------------
 BYTE   W96
// 014   ----------------------------------------
 BYTE   W96
// 015   ----------------------------------------
 BYTE   W96
// 016   ----------------------------------------
 BYTE   W96
// 017   ----------------------------------------
 BYTE   W96
// 018   ----------------------------------------
 BYTE   W96
// 019   ----------------------------------------
 BYTE   W96
// 020   ----------------------------------------
 BYTE   W96
// 021   ----------------------------------------
 BYTE   W96
// 022   ----------------------------------------
 BYTE   W96
// 023   ----------------------------------------
 BYTE   W80
 BYTE   W01
 BYTE   PAN   c_v-51
 BYTE   W15
// 024   ----------------------------------------
 BYTE   N92  CsM1  v112
 BYTE   N32  Cs1  v127
 BYTE   W48
 BYTE   N32
 BYTE   W03
 BYTE   Gn1  v112
 BYTE   W44
 BYTE   W01
// 025   ----------------------------------------
Label_6_545226:
 BYTE   N92  CsM1  v112
 BYTE   N32  Cs1
 BYTE   W48
 BYTE   N32
 BYTE   W03
 BYTE   Gn1
 BYTE   W44
 BYTE   W01
 BYTE   PEND 
// 026   ----------------------------------------
 BYTE   PATT
  POIN2 Label_6_545226
// 027   ----------------------------------------
 BYTE   PATT
  POIN2 Label_6_545226
// 028   ----------------------------------------
 BYTE   N92  As0  v112
 BYTE   W96
// 029   ----------------------------------------
 BYTE   N92
 BYTE   W96
// 030   ----------------------------------------
 BYTE   N92
 BYTE   W96
// 031   ----------------------------------------
 BYTE   N92
 BYTE   W96
// 032   ----------------------------------------
Label_6_545246:
 BYTE   W96
// 033   ----------------------------------------
 BYTE   W96
// 034   ----------------------------------------
 BYTE   W96
// 035   ----------------------------------------
 BYTE   W96
// 036   ----------------------------------------
 BYTE   W96
// 037   ----------------------------------------
 BYTE   W96
// 038   ----------------------------------------
 BYTE   W96
// 039   ----------------------------------------
 BYTE   W96
// 040   ----------------------------------------
 BYTE   W96
// 041   ----------------------------------------
 BYTE   W96
// 042   ----------------------------------------
 BYTE   W96
// 043   ----------------------------------------
 BYTE   W96
// 044   ----------------------------------------
 BYTE   W96
// 045   ----------------------------------------
 BYTE   W96
// 046   ----------------------------------------
 BYTE   W96
// 047   ----------------------------------------
 BYTE   W96
// 048   ----------------------------------------
 BYTE   W96
// 049   ----------------------------------------
 BYTE   W96
// 050   ----------------------------------------
 BYTE   W96
// 051   ----------------------------------------
 BYTE   N44  Cs1  v112
 BYTE   W48
 BYTE   Gn1  v124
 BYTE   W48
// 052   ----------------------------------------
Label_6_545260:
 BYTE   N44  Cs1  v112
 BYTE   W48
 BYTE   Gn1  v127
 BYTE   W48
 BYTE   PEND 
// 053   ----------------------------------------
 BYTE   PATT
  POIN2 Label_6_545260
// 054   ----------------------------------------
 BYTE   PATT
  POIN2 Label_6_545260
// 055   ----------------------------------------
 BYTE   PATT
  POIN2 Label_6_545260
// 056   ----------------------------------------
 BYTE   N28  Cs1  v112
 BYTE   W36
 BYTE   N04  Cs1  v088
 BYTE   W12
 BYTE   N44  Gn1  v127
 BYTE   W48
// 057   ----------------------------------------
Label_6_545283:
 BYTE   N28  Cs1  v112
 BYTE   W36
 BYTE   N05  Cs1  v088
 BYTE   W12
 BYTE   N44  Gn1  v127
 BYTE   W48
 BYTE   PEND 
// 058   ----------------------------------------
 BYTE   PATT
  POIN2 Label_6_545283
// 059   ----------------------------------------
Label_6_545295:
 BYTE   N28  Cs1  v112
 BYTE   W40
 BYTE   W01
 BYTE   N05  Cs1  v088
 BYTE   W07
 BYTE   N44  Gn1  v127
 BYTE   W48
 BYTE   PEND 
// 060   ----------------------------------------
 BYTE   PATT
  POIN2 Label_6_545295
// 061   ----------------------------------------
 BYTE   PATT
  POIN2 Label_6_545295
// 062   ----------------------------------------
 BYTE   PATT
  POIN2 Label_6_545295
// 063   ----------------------------------------
 BYTE   PATT
  POIN2 Label_6_545295
// 064   ----------------------------------------
 BYTE   PATT
  POIN2 Label_6_545295
// 065   ----------------------------------------
 BYTE   PATT
  POIN2 Label_6_545295
// 066   ----------------------------------------
 BYTE   PATT
  POIN2 Label_6_545295
// 067   ----------------------------------------
 BYTE   PATT
  POIN2 Label_6_545295
// 068   ----------------------------------------
 BYTE   PATT
  POIN2 Label_6_545295
// 069   ----------------------------------------
 BYTE   PATT
  POIN2 Label_6_545295
// 070   ----------------------------------------
 BYTE   PATT
  POIN2 Label_6_545295
// 071   ----------------------------------------
 BYTE   PATT
  POIN2 Label_6_545295
// 072   ----------------------------------------
 BYTE   PATT
  POIN2 Label_6_545295
// 073   ----------------------------------------
 BYTE   PATT
  POIN2 Label_6_545295
// 074   ----------------------------------------
 BYTE   PATT
  POIN2 Label_6_545295
// 075   ----------------------------------------
 BYTE   PATT
  POIN2 Label_6_545295
// 076   ----------------------------------------
 BYTE   N40  Bn0  v112
 BYTE   W40
 BYTE   W01
 BYTE   N56  Bn0  v088
 BYTE   W54
 BYTE   W01
// 077   ----------------------------------------
 BYTE   N92  Bn1  v112
 BYTE   W96
// 078   ----------------------------------------
 BYTE   Fn1
 BYTE   W96
// 079   ----------------------------------------
 BYTE   Cs1
 BYTE   W96
// 080   ----------------------------------------
 BYTE   N92
 BYTE   W96
// 081   ----------------------------------------
 BYTE   N92
 BYTE   W96
// 082   ----------------------------------------
 BYTE   N92
 BYTE   W96
// 083   ----------------------------------------
 BYTE   N92
 BYTE   W96
// 084   ----------------------------------------
 BYTE   N92
 BYTE   W96
// 085   ----------------------------------------
 BYTE   N92
 BYTE   W96
// 086   ----------------------------------------
 BYTE   W96
// 087   ----------------------------------------
 BYTE   W96
// 088   ----------------------------------------
 BYTE   W96
// 089   ----------------------------------------
 BYTE   W96
// 090   ----------------------------------------
 BYTE   W96
// 091   ----------------------------------------
 BYTE   W96
// 092   ----------------------------------------
 BYTE   W96
// 093   ----------------------------------------
 BYTE   W96
// 094   ----------------------------------------
 BYTE   W96
// 095   ----------------------------------------
 BYTE   W96
// 096   ----------------------------------------
 BYTE   W96
// 097   ----------------------------------------
 BYTE   W96
// 098   ----------------------------------------
 BYTE   W96
// 099   ----------------------------------------
 BYTE   W96
// 100   ----------------------------------------
 BYTE   W96
// 101   ----------------------------------------
 BYTE   W96
// 102   ----------------------------------------
 BYTE   W96
// 103   ----------------------------------------
 BYTE   N92
 BYTE   W96
// 104   ----------------------------------------
 BYTE   N92
 BYTE   W96
// 105   ----------------------------------------
 BYTE   N92
 BYTE   W96
// 106   ----------------------------------------
 BYTE   N92
 BYTE   W92
 BYTE   W03
 BYTE   GoTo
  POIN2 Label_6_545246
 BYTE   FINE

//**************** Track 8 (Midi-Chn.7) ****************//

PokemonB2W2VsGhetsisRSflame_008:
// 000   ----------------------------------------
 BYTE   KEYSH   PokemonB2W2VsGhetsisRSflame_key+0
 BYTE   VOICE   47
 BYTE   PAN   c_v+20
 BYTE   VOL   42*PokemonB2W2VsGhetsisRSflame_mvl/mxv
 BYTE   VOL   39*PokemonB2W2VsGhetsisRSflame_mvl/mxv
 BYTE   PAN   c_v-30
 BYTE   N84  Cs2  v112
 BYTE   W96
// 001   ----------------------------------------
 BYTE   Cn2
 BYTE   W96
// 002   ----------------------------------------
 BYTE   Cs2
 BYTE   W96
// 003   ----------------------------------------
 BYTE   Cn2
 BYTE   W96
// 004   ----------------------------------------
 BYTE   Cs2
 BYTE   W96
// 005   ----------------------------------------
 BYTE   Cn2
 BYTE   W96
// 006   ----------------------------------------
 BYTE   Cs2
 BYTE   W96
// 007   ----------------------------------------
 BYTE   Cn2
 BYTE   W90
 BYTE   VOL   46*PokemonB2W2VsGhetsisRSflame_mvl/mxv
 BYTE   W06
// 008   ----------------------------------------
Label_7_01EA5949:
 BYTE   N68  Cs2  v100
 BYTE   W72
 BYTE   N05  Gn2
 BYTE   W12
 BYTE   N05
 BYTE   W12
 BYTE   PEND 
// 009   ----------------------------------------
 BYTE   N80
 BYTE   W96
// 010   ----------------------------------------
 BYTE   PATT
  POIN2 Label_7_01EA5949
// 011   ----------------------------------------
Label_7_01EA595A:
 BYTE   N44  Gn2  v100
 BYTE   W48
 BYTE   Cs2
 BYTE   W48
 BYTE   PEND 
// 012   ----------------------------------------
 BYTE   PATT
  POIN2 Label_7_01EA5949
// 013   ----------------------------------------
 BYTE   PATT
  POIN2 Label_7_01EA595A
// 014   ----------------------------------------
 BYTE   N44  Cs2  v100
 BYTE   W48
 BYTE   Gn2
 BYTE   W48
// 015   ----------------------------------------
 BYTE   Cs2
 BYTE   W48
 BYTE   N05  Gn2  v127
 BYTE   W12
 BYTE   En2  v100
 BYTE   W12
 BYTE   Gn2  v127
 BYTE   W12
 BYTE   En2  v100
 BYTE   W12
// 016   ----------------------------------------
 BYTE   PATT
  POIN2 Label_7_01EA5949
// 017   ----------------------------------------
 BYTE   N80  Gn2  v100
 BYTE   W96
// 018   ----------------------------------------
 BYTE   PATT
  POIN2 Label_7_01EA5949
// 019   ----------------------------------------
 BYTE   PATT
  POIN2 Label_7_01EA595A
// 020   ----------------------------------------
 BYTE   PATT
  POIN2 Label_7_01EA5949
// 021   ----------------------------------------
 BYTE   PATT
  POIN2 Label_7_01EA595A
// 022   ----------------------------------------
 BYTE   N04  Cs2  v116
 BYTE   W08
 BYTE   N04
 BYTE   W08
 BYTE   Cs2  v120
 BYTE   W08
 BYTE   Cs2  v124
 BYTE   W08
 BYTE   Cs2  v127
 BYTE   W08
 BYTE   N04
 BYTE   W08
 BYTE   Cs2  v116
 BYTE   W08
 BYTE   N04
 BYTE   W08
 BYTE   Cs2  v120
 BYTE   W08
 BYTE   Cs2  v124
 BYTE   W08
 BYTE   Cs2  v127
 BYTE   W08
 BYTE   N04
 BYTE   W08
// 023   ----------------------------------------
 BYTE   N36  Cs2  v100
 BYTE   W48
 BYTE   N05
 BYTE   W12
 BYTE   N05
 BYTE   W12
 BYTE   N05
 BYTE   W12
 BYTE   N05
 BYTE   W12
// 024   ----------------------------------------
 BYTE   VOL   39*PokemonB2W2VsGhetsisRSflame_mvl/mxv
 BYTE   N40  Cs1  v127
 BYTE   W48
 BYTE   Gn1  v112
 BYTE   W01
 BYTE   Gn2
 BYTE   W44
 BYTE   W03
// 025   ----------------------------------------
 BYTE   Cs1  v127
 BYTE   W48
 BYTE   Gn1  v112
 BYTE   W01
 BYTE   Gn2
 BYTE   W44
 BYTE   W03
// 026   ----------------------------------------
 BYTE   Cs1  v127
 BYTE   W48
 BYTE   Gn1  v112
 BYTE   N40  Gn2
 BYTE   W48
// 027   ----------------------------------------
 BYTE   N17  Cs1  v127
 BYTE   W24
 BYTE   Gn1  v112
 BYTE   W01
 BYTE   Gn2
 BYTE   W23
 BYTE   N40  Cs1
 BYTE   W48
// 028   ----------------------------------------
 BYTE   Gn1
 BYTE   N40  Gn2  v096
 BYTE   W48
 BYTE   Cs1  v112
 BYTE   N40  Cs2  v092
 BYTE   W48
// 029   ----------------------------------------
 BYTE   Gn1  v112
 BYTE   N40  Gn2  v096
 BYTE   W48
 BYTE   Cs1  v112
 BYTE   N40  Cs2  v100
 BYTE   W48
// 030   ----------------------------------------
 BYTE   Gn1  v124
 BYTE   N40  Gn2  v104
 BYTE   W48
 BYTE   N17  Cs1  v127
 BYTE   W04
 BYTE   Cs2  v108
 BYTE   W20
 BYTE   Gn1  v127
 BYTE   W04
 BYTE   Gn2  v116
 BYTE   W20
// 031   ----------------------------------------
 BYTE   N40  Cs1  v127
 BYTE   W04
 BYTE   Cs2
 BYTE   W44
 BYTE   N17  Gn1
 BYTE   W04
 BYTE   Gn2  v092
 BYTE   W20
 BYTE   N05  Gn1  v127
 BYTE   W04
 BYTE   Gn2  v088
 BYTE   W08
 BYTE   N03  Cs1  v112
 BYTE   W11
 BYTE   VOL   30*PokemonB2W2VsGhetsisRSflame_mvl/mxv
 BYTE   W01
// 032   ----------------------------------------
Label_7_01EA5A37:
 BYTE   N92  Cs1  v127
 BYTE   N92  Gn1
 BYTE   W92
 BYTE   W03
 BYTE   PAN   c_v+32
 BYTE   W01
// 033   ----------------------------------------
 BYTE   N92  Cs1  v112
 BYTE   N92  Gn1
 BYTE   W96
// 034   ----------------------------------------
 BYTE   Cs1
 BYTE   N92  Gn1
 BYTE   W96
// 035   ----------------------------------------
 BYTE   Cs1
 BYTE   W96
// 036   ----------------------------------------
 BYTE   Cs1  v127
 BYTE   N92  Gn1
 BYTE   W96
// 037   ----------------------------------------
 BYTE   Cs1  v112
 BYTE   N92  Gn1
 BYTE   W96
// 038   ----------------------------------------
 BYTE   Cs1
 BYTE   N92  Gn1
 BYTE   W96
// 039   ----------------------------------------
 BYTE   Cs1
 BYTE   W96
// 040   ----------------------------------------
 BYTE   Cs1  v124
 BYTE   N92  Gn1
 BYTE   W96
// 041   ----------------------------------------
 BYTE   Cs1  v112
 BYTE   N92  Gn1
 BYTE   W96
// 042   ----------------------------------------
 BYTE   Cs1
 BYTE   N92  Gn1
 BYTE   W96
// 043   ----------------------------------------
 BYTE   Cs1
 BYTE   W96
// 044   ----------------------------------------
 BYTE   Cs1  v127
 BYTE   N92  Gn1
 BYTE   W96
// 045   ----------------------------------------
 BYTE   Cs1  v112
 BYTE   N92  Gn1
 BYTE   W96
// 046   ----------------------------------------
 BYTE   Cs1
 BYTE   N92  Gn1
 BYTE   W96
// 047   ----------------------------------------
 BYTE   Cs1
 BYTE   W96
// 048   ----------------------------------------
 BYTE   Cs1  v127
 BYTE   N36  Gn1
 BYTE   W40
 BYTE   N02  Cs2  v100
 BYTE   W04
 BYTE   N02
 BYTE   W04
 BYTE   N44  Cs2  v124
 BYTE   W48
// 049   ----------------------------------------
 BYTE   N92  Cs1  v112
 BYTE   N44  Gn1
 BYTE   W48
 BYTE   Cs2  v116
 BYTE   W48
// 050   ----------------------------------------
Label_7_01EA5A95:
 BYTE   N92  Cs1  v127
 BYTE   N44  Gn1
 BYTE   W48
 BYTE   Cs2  v112
 BYTE   W48
 BYTE   PEND 
// 051   ----------------------------------------
 BYTE   Cs1
 BYTE   W48
 BYTE   Gn1  v116
 BYTE   W48
// 052   ----------------------------------------
 BYTE   N92  Cs1  v112
 BYTE   N44  Gn1
 BYTE   W40
 BYTE   N02  Cs2  v100
 BYTE   W04
 BYTE   N02
 BYTE   W04
 BYTE   N44  Cs2  v112
 BYTE   W48
// 053   ----------------------------------------
 BYTE   PATT
  POIN2 Label_7_01EA5A95
// 054   ----------------------------------------
 BYTE   N92  Cs1  v127
 BYTE   N44  Gn1
 BYTE   W48
 BYTE   Cs2  v124
 BYTE   W48
// 055   ----------------------------------------
 BYTE   Cs1  v112
 BYTE   W48
 BYTE   Gn1  v127
 BYTE   W48
// 056   ----------------------------------------
 BYTE   N92  Cs1
 BYTE   N92  Gn1
 BYTE   W96
// 057   ----------------------------------------
 BYTE   Cs1
 BYTE   N92  Gn1
 BYTE   W96
// 058   ----------------------------------------
 BYTE   Cs1
 BYTE   N92  Gn1
 BYTE   W96
// 059   ----------------------------------------
 BYTE   Cs1  v112
 BYTE   W96
// 060   ----------------------------------------
 BYTE   N92
 BYTE   N92  Gn1
 BYTE   W96
// 061   ----------------------------------------
 BYTE   Cs1
 BYTE   N92  Gn1
 BYTE   W96
// 062   ----------------------------------------
 BYTE   Cs1
 BYTE   N92  Gn1
 BYTE   W96
// 063   ----------------------------------------
 BYTE   Cs1
 BYTE   W96
// 064   ----------------------------------------
 BYTE   N92
 BYTE   N44  Gn1
 BYTE   W36
 BYTE   W01
 BYTE   N01  Cs2  v127
 BYTE   W05
 BYTE   Cs2  v124
 BYTE   W06
 BYTE   N44  Cs2  v127
 BYTE   W48
// 065   ----------------------------------------
Label_7_01EA5AF6:
 BYTE   N92  Cs1  v112
 BYTE   N44  Gn1
 BYTE   W48
 BYTE   Cs2  v127
 BYTE   W48
 BYTE   PEND 
// 066   ----------------------------------------
 BYTE   N92  Cs1  v112
 BYTE   N23  Cs2
 BYTE   W24
 BYTE   N23
 BYTE   W24
 BYTE   N23
 BYTE   W24
 BYTE   TIE  Gn1
 BYTE   W24
// 067   ----------------------------------------
Label_7_01EA5B0D:
 BYTE   N92  Cs1  v112
 BYTE   W92
 BYTE   W03
 BYTE   PEND 
 BYTE   EOT
 BYTE   Gn1
 BYTE   W01
// 068   ----------------------------------------
 BYTE   N92  Cs1
 BYTE   N44  Gn1
 BYTE   W36
 BYTE   W02
 BYTE   N01  Cs2
 BYTE   W05
 BYTE   Cs2  v116
 BYTE   W05
 BYTE   N44  Cs2  v127
 BYTE   W48
// 069   ----------------------------------------
 BYTE   PATT
  POIN2 Label_7_01EA5AF6
// 070   ----------------------------------------
 BYTE   N92  Cs1  v127
 BYTE   N23  Cs2
 BYTE   W24
 BYTE   Cs2  v112
 BYTE   W24
 BYTE   N23
 BYTE   W24
 BYTE   TIE  Gn1
 BYTE   W24
// 071   ----------------------------------------
 BYTE   PATT
  POIN2 Label_7_01EA5B0D
// 072   ----------------------------------------
 BYTE   EOT
 BYTE   Gn1
 BYTE   W01
 BYTE   W96
// 073   ----------------------------------------
 BYTE   W96
// 074   ----------------------------------------
 BYTE   W96
// 075   ----------------------------------------
 BYTE   W96
// 076   ----------------------------------------
 BYTE   W96
// 077   ----------------------------------------
 BYTE   W96
// 078   ----------------------------------------
 BYTE   W96
// 079   ----------------------------------------
 BYTE   W96
// 080   ----------------------------------------
 BYTE   W96
// 081   ----------------------------------------
 BYTE   W96
// 082   ----------------------------------------
 BYTE   PAN   c_v-29
 BYTE   N32  Gn1  v112
 BYTE   N21  Gn2  v096
 BYTE   W36
 BYTE   N32  Gn1  v116
 BYTE   N21  Gn2  v100
 BYTE   W36
 BYTE   N20  Gn1  v120
 BYTE   N09  Gn2  v096
 BYTE   W24
// 083   ----------------------------------------
 BYTE   N32  Gn1  v120
 BYTE   N21  Gn2  v096
 BYTE   W36
 BYTE   N32  Gn1  v120
 BYTE   N21  Gn2  v096
 BYTE   W36
 BYTE   N07  Gn2  v104
 BYTE   W12
 BYTE   N08  Gn1  v127
 BYTE   W12
// 084   ----------------------------------------
 BYTE   N28  Gn1  v112
 BYTE   N19  Gn2  v096
 BYTE   W36
 BYTE   N28  Gn1  v116
 BYTE   N19  Gn2  v100
 BYTE   W36
 BYTE   N17  Gn1  v120
 BYTE   N07  Gn2  v096
 BYTE   W24
// 085   ----------------------------------------
 BYTE   N28  Gn1  v120
 BYTE   N19  Gn2  v096
 BYTE   W36
 BYTE   N28  Gn1  v120
 BYTE   N19  Gn2  v096
 BYTE   W36
 BYTE   N06  Gn2  v104
 BYTE   W14
 BYTE   N10  Gn1  v127
 BYTE   W10
// 086   ----------------------------------------
 BYTE   PAN   c_v+21
 BYTE   VOL   35*PokemonB2W2VsGhetsisRSflame_mvl/mxv
 BYTE   N11  Cs2  v124
 BYTE   W01
 BYTE   PAN   c_v+35
 BYTE   W11
 BYTE   N11  Gn1  v112
 BYTE   W12
 BYTE   N11
 BYTE   W12
 BYTE   Cs2  v116
 BYTE   W12
 BYTE   Gn1  v112
 BYTE   W12
 BYTE   N05
 BYTE   W06
 BYTE   N05
 BYTE   W06
 BYTE   N11  Cs2  v120
 BYTE   W12
 BYTE   Gn1  v112
 BYTE   W12
// 087   ----------------------------------------
Label_7_01EA5BC5:
 BYTE   N05  Gn1  v112
 BYTE   W06
 BYTE   Cs2
 BYTE   W06
 BYTE   N11  Gn1
 BYTE   W12
 BYTE   Cs2
 BYTE   W12
 BYTE   Gn1
 BYTE   W12
 BYTE   Cs2
 BYTE   W12
 BYTE   N11
 BYTE   W12
 BYTE   Gn1
 BYTE   W12
 BYTE   N11
 BYTE   W12
 BYTE   PEND 
// 088   ----------------------------------------
Label_7_01EA5BDB:
 BYTE   N11  Cs2  v120
 BYTE   W12
 BYTE   Gn1  v112
 BYTE   W12
 BYTE   Cs2  v116
 BYTE   W12
 BYTE   Cs2  v120
 BYTE   W12
 BYTE   Gn1  v112
 BYTE   W12
 BYTE   N11
 BYTE   W12
 BYTE   Cs2  v124
 BYTE   W12
 BYTE   N05  Gn1  v112
 BYTE   W06
 BYTE   N05
 BYTE   W06
 BYTE   PEND 
// 089   ----------------------------------------
Label_7_01EA5BF7:
 BYTE   N11  Cs2  v112
 BYTE   W12
 BYTE   N11
 BYTE   W12
 BYTE   Gn1
 BYTE   W12
 BYTE   N11
 BYTE   W12
 BYTE   N11
 BYTE   W12
 BYTE   Cs2
 BYTE   W12
 BYTE   Gn1
 BYTE   W12
 BYTE   N11
 BYTE   W12
 BYTE   PEND 
// 090   ----------------------------------------
Label_7_01EA5C0A:
 BYTE   N11  Cs2  v112
 BYTE   W12
 BYTE   Gn1
 BYTE   W12
 BYTE   N11
 BYTE   W12
 BYTE   Cs2
 BYTE   W12
 BYTE   Gn1
 BYTE   W12
 BYTE   N05
 BYTE   W06
 BYTE   N05
 BYTE   W06
 BYTE   N11  Cs2
 BYTE   W12
 BYTE   Gn1
 BYTE   W12
 BYTE   PEND 
// 091   ----------------------------------------
 BYTE   PATT
  POIN2 Label_7_01EA5BC5
// 092   ----------------------------------------
Label_7_01EA5C25:
 BYTE   N11  Cs2  v112
 BYTE   W12
 BYTE   Gn1
 BYTE   W12
 BYTE   Cs2
 BYTE   W12
 BYTE   N11
 BYTE   W12
 BYTE   Gn1
 BYTE   W12
 BYTE   N11
 BYTE   W12
 BYTE   Cs2
 BYTE   W12
 BYTE   N05  Gn1
 BYTE   W06
 BYTE   N05
 BYTE   W06
 BYTE   PEND 
// 093   ----------------------------------------
Label_7_01EA5C3B:
 BYTE   N11  Cs2  v112
 BYTE   W12
 BYTE   N11
 BYTE   W12
 BYTE   Gn1
 BYTE   W12
 BYTE   N11
 BYTE   W12
 BYTE   N11
 BYTE   W12
 BYTE   Cs2
 BYTE   W12
 BYTE   N05  Gn1
 BYTE   W06
 BYTE   N05
 BYTE   W06
 BYTE   N05
 BYTE   W06
 BYTE   N05
 BYTE   W06
 BYTE   PEND 
// 094   ----------------------------------------
 BYTE   PAN   c_v+21
 BYTE   N11  Cs2  v124
 BYTE   W01
 BYTE   PAN   c_v+35
 BYTE   W11
 BYTE   N11  Gn1  v112
 BYTE   W12
 BYTE   N11
 BYTE   W12
 BYTE   Cs2  v116
 BYTE   W12
 BYTE   Gn1  v112
 BYTE   W12
 BYTE   N05
 BYTE   W06
 BYTE   N05
 BYTE   W06
 BYTE   N11  Cs2  v120
 BYTE   W12
 BYTE   Gn1  v112
 BYTE   W12
// 095   ----------------------------------------
 BYTE   PATT
  POIN2 Label_7_01EA5BC5
// 096   ----------------------------------------
 BYTE   PATT
  POIN2 Label_7_01EA5BDB
// 097   ----------------------------------------
 BYTE   PATT
  POIN2 Label_7_01EA5BF7
// 098   ----------------------------------------
 BYTE   PATT
  POIN2 Label_7_01EA5C0A
// 099   ----------------------------------------
 BYTE   PATT
  POIN2 Label_7_01EA5BC5
// 100   ----------------------------------------
 BYTE   PATT
  POIN2 Label_7_01EA5C25
// 101   ----------------------------------------
 BYTE   PATT
  POIN2 Label_7_01EA5C3B
// 102   ----------------------------------------
 BYTE   N84  Cs1  v112
 BYTE   N84  Gn1
 BYTE   N84  Cs2
 BYTE   W96
// 103   ----------------------------------------
 BYTE   PAN   c_v+26
 BYTE   N92  Cs1  v127
 BYTE   N92  Gn1
 BYTE   W01
 BYTE   VOL   30*PokemonB2W2VsGhetsisRSflame_mvl/mxv
 BYTE   W92
 BYTE   W03
// 104   ----------------------------------------
 BYTE   N92  Cs1  v112
 BYTE   N92  Gn1
 BYTE   W96
// 105   ----------------------------------------
 BYTE   Cs1
 BYTE   N92  Gn1
 BYTE   W96
// 106   ----------------------------------------
 BYTE   PATT
  POIN2 Label_7_01EA5B0D
// 107   ----------------------------------------
 BYTE   GoTo
  POIN2 Label_7_01EA5A37
 BYTE   FINE

//**************** Track 9 (Midi-Chn.8) ****************//

PokemonB2W2VsGhetsisRSflame_009:
// 000   ----------------------------------------
 BYTE   KEYSH   PokemonB2W2VsGhetsisRSflame_key+0
 BYTE   VOICE   10
 BYTE   VOL   20*PokemonB2W2VsGhetsisRSflame_mvl/mxv
 BYTE   PAN   c_v+45
 BYTE   VOL   5*PokemonB2W2VsGhetsisRSflame_mvl/mxv
 BYTE   W96
// 001   ----------------------------------------
 BYTE   W96
// 002   ----------------------------------------
 BYTE   W96
// 003   ----------------------------------------
 BYTE   W96
// 004   ----------------------------------------
 BYTE   W96
// 005   ----------------------------------------
 BYTE   W96
// 006   ----------------------------------------
 BYTE   W96
// 007   ----------------------------------------
 BYTE   W96
// 008   ----------------------------------------
 BYTE   W24
 BYTE   VOICE   63
 BYTE   TIE  Bn3  v112
 BYTE   W72
// 009   ----------------------------------------
 BYTE   W96
// 010   ----------------------------------------
 BYTE   W23
 BYTE   EOT
 BYTE   W01
 BYTE   TIE  As3
 BYTE   W72
// 011   ----------------------------------------
 BYTE   W96
// 012   ----------------------------------------
 BYTE   W23
 BYTE   EOT
 BYTE   W01
 BYTE   TIE  Bn3
 BYTE   W72
// 013   ----------------------------------------
 BYTE   W24
 BYTE   W02
 BYTE   EOT
 BYTE   W68
 BYTE   W02
// 014   ----------------------------------------
 BYTE   W96
// 015   ----------------------------------------
 BYTE   W96
// 016   ----------------------------------------
 BYTE   W24
 BYTE   TIE
 BYTE   W72
// 017   ----------------------------------------
 BYTE   W96
// 018   ----------------------------------------
 BYTE   W23
 BYTE   EOT
 BYTE   W01
 BYTE   TIE  As3
 BYTE   W72
// 019   ----------------------------------------
 BYTE   W96
// 020   ----------------------------------------
 BYTE   W23
 BYTE   EOT
 BYTE   W01
 BYTE   TIE  Bn3
 BYTE   W72
// 021   ----------------------------------------
 BYTE   W96
// 022   ----------------------------------------
 BYTE   W23
 BYTE   EOT
 BYTE   W72
 BYTE   W01
// 023   ----------------------------------------
 BYTE   W96
// 024   ----------------------------------------
 BYTE   W96
// 025   ----------------------------------------
 BYTE   W96
// 026   ----------------------------------------
 BYTE   W96
// 027   ----------------------------------------
 BYTE   W96
// 028   ----------------------------------------
 BYTE   W96
// 029   ----------------------------------------
 BYTE   W96
// 030   ----------------------------------------
 BYTE   W96
// 031   ----------------------------------------
 BYTE   W96
// 032   ----------------------------------------
Label_8_01EA5D11:
 BYTE   W96
// 033   ----------------------------------------
 BYTE   W96
// 034   ----------------------------------------
 BYTE   W96
// 035   ----------------------------------------
 BYTE   W96
// 036   ----------------------------------------
 BYTE   W96
// 037   ----------------------------------------
 BYTE   W96
// 038   ----------------------------------------
 BYTE   W96
// 039   ----------------------------------------
 BYTE   W96
// 040   ----------------------------------------
 BYTE   W96
// 041   ----------------------------------------
 BYTE   W96
// 042   ----------------------------------------
 BYTE   W96
// 043   ----------------------------------------
 BYTE   W96
// 044   ----------------------------------------
 BYTE   W96
// 045   ----------------------------------------
 BYTE   W96
// 046   ----------------------------------------
 BYTE   W96
// 047   ----------------------------------------
 BYTE   W96
// 048   ----------------------------------------
 BYTE   W96
// 049   ----------------------------------------
 BYTE   W96
// 050   ----------------------------------------
 BYTE   W96
// 051   ----------------------------------------
 BYTE   W96
// 052   ----------------------------------------
 BYTE   W96
// 053   ----------------------------------------
 BYTE   W96
// 054   ----------------------------------------
 BYTE   W96
// 055   ----------------------------------------
 BYTE   W96
// 056   ----------------------------------------
 BYTE   W96
// 057   ----------------------------------------
 BYTE   W96
// 058   ----------------------------------------
 BYTE   W96
// 059   ----------------------------------------
 BYTE   W96
// 060   ----------------------------------------
 BYTE   W96
// 061   ----------------------------------------
 BYTE   W96
// 062   ----------------------------------------
 BYTE   W96
// 063   ----------------------------------------
 BYTE   W96
// 064   ----------------------------------------
 BYTE   VOICE   36
 BYTE   W24
 BYTE   VOL   32*PokemonB2W2VsGhetsisRSflame_mvl/mxv
 BYTE   PAN   c_v+43
 BYTE   N11  Gn4  v112
 BYTE   W12
 BYTE   Cs4
 BYTE   W12
 BYTE   PAN   c_v+24
 BYTE   N11  Gn4
 BYTE   W12
 BYTE   Cs5
 BYTE   W12
 BYTE   PAN   c_v-37
 BYTE   N11  Gn5
 BYTE   W12
 BYTE   Cs5
 BYTE   W12
// 065   ----------------------------------------
Label_8_01EA5D4C:
 BYTE   PAN   c_v-19
 BYTE   N11  Gn4  v112
 BYTE   W12
 BYTE   Cs4
 BYTE   W12
 BYTE   PAN   c_v+45
 BYTE   N11  Gn4
 BYTE   W12
 BYTE   Cs5
 BYTE   W12
 BYTE   PAN   c_v+29
 BYTE   N11  Gn4
 BYTE   W12
 BYTE   Cs5
 BYTE   W12
 BYTE   PAN   c_v-39
 BYTE   N11  Gn5
 BYTE   W12
 BYTE   Cs5
 BYTE   W12
 BYTE   PEND 
// 066   ----------------------------------------
Label_8_01EA5D6A:
 BYTE   PAN   c_v-24
 BYTE   N11  Gn4  v112
 BYTE   W12
 BYTE   Cs4
 BYTE   W12
 BYTE   PAN   c_v+45
 BYTE   N11  Gn4
 BYTE   W12
 BYTE   Cs4
 BYTE   W12
 BYTE   Gn4
 BYTE   W04
 BYTE   PAN   c_v+25
 BYTE   W08
 BYTE   N11  Cs5
 BYTE   W12
 BYTE   PAN   c_v-42
 BYTE   N11  Gn5
 BYTE   W12
 BYTE   Cs5
 BYTE   W12
 BYTE   PEND 
// 067   ----------------------------------------
Label_8_01EA5D89:
 BYTE   PAN   c_v-30
 BYTE   N11  Gn4  v112
 BYTE   W12
 BYTE   Cs4
 BYTE   W12
 BYTE   PAN   c_v+44
 BYTE   N11  Gn4
 BYTE   W12
 BYTE   Cs5
 BYTE   W12
 BYTE   PAN   c_v+29
 BYTE   N11  Gn5
 BYTE   W12
 BYTE   Fn5
 BYTE   W12
 BYTE   PAN   c_v-22
 BYTE   N11  Cs5
 BYTE   W12
 BYTE   Gn4
 BYTE   W12
 BYTE   PEND 
// 068   ----------------------------------------
 BYTE   PAN   c_v-41
 BYTE   N11  Cs4
 BYTE   W12
 BYTE   Gn3
 BYTE   W12
 BYTE   PAN   c_v+43
 BYTE   N11  Gn4
 BYTE   W12
 BYTE   Cs4
 BYTE   W12
 BYTE   PAN   c_v+24
 BYTE   N11  Gn4
 BYTE   W12
 BYTE   Cs5
 BYTE   W12
 BYTE   PAN   c_v-37
 BYTE   N11  Gn5
 BYTE   W12
 BYTE   Cs5
 BYTE   W12
// 069   ----------------------------------------
 BYTE   PATT
  POIN2 Label_8_01EA5D4C
// 070   ----------------------------------------
 BYTE   PATT
  POIN2 Label_8_01EA5D6A
// 071   ----------------------------------------
 BYTE   PATT
  POIN2 Label_8_01EA5D89
// 072   ----------------------------------------
 BYTE   PAN   c_v-41
 BYTE   N11  Cs4  v112
 BYTE   W12
 BYTE   Gn3
 BYTE   W84
// 073   ----------------------------------------
 BYTE   W96
// 074   ----------------------------------------
 BYTE   W96
// 075   ----------------------------------------
 BYTE   W96
// 076   ----------------------------------------
 BYTE   W96
// 077   ----------------------------------------
 BYTE   W96
// 078   ----------------------------------------
 BYTE   W96
// 079   ----------------------------------------
 BYTE   W96
// 080   ----------------------------------------
 BYTE   W96
// 081   ----------------------------------------
 BYTE   W96
// 082   ----------------------------------------
 BYTE   W96
// 083   ----------------------------------------
 BYTE   W96
// 084   ----------------------------------------
 BYTE   W96
// 085   ----------------------------------------
 BYTE   W96
// 086   ----------------------------------------
 BYTE   W96
// 087   ----------------------------------------
 BYTE   W96
// 088   ----------------------------------------
 BYTE   W96
// 089   ----------------------------------------
 BYTE   W96
// 090   ----------------------------------------
 BYTE   W96
// 091   ----------------------------------------
 BYTE   W96
// 092   ----------------------------------------
 BYTE   W96
// 093   ----------------------------------------
 BYTE   W96
// 094   ----------------------------------------
 BYTE   W96
// 095   ----------------------------------------
 BYTE   W96
// 096   ----------------------------------------
 BYTE   W96
// 097   ----------------------------------------
 BYTE   W96
// 098   ----------------------------------------
 BYTE   W96
// 099   ----------------------------------------
 BYTE   W96
// 100   ----------------------------------------
 BYTE   W96
// 101   ----------------------------------------
 BYTE   W96
// 102   ----------------------------------------
 BYTE   W96
// 103   ----------------------------------------
 BYTE   W96
// 104   ----------------------------------------
 BYTE   W96
// 105   ----------------------------------------
 BYTE   W96
// 106   ----------------------------------------
 BYTE   W92
 BYTE   W03
 BYTE   GoTo
  POIN2 Label_8_01EA5D11
 BYTE   FINE

//**************** Track 10 (Midi-Chn.9) ****************//

PokemonB2W2VsGhetsisRSflame_010:
// 000   ----------------------------------------
 BYTE   KEYSH   PokemonB2W2VsGhetsisRSflame_key+0
 BYTE   VOICE   124
 BYTE   VOL   20*PokemonB2W2VsGhetsisRSflame_mvl/mxv
 BYTE   PAN   c_v-32
 BYTE   VOL   48*PokemonB2W2VsGhetsisRSflame_mvl/mxv
 BYTE   PAN   c_v+0
 BYTE   N80  Dn1  v127
 BYTE   N80  Cn3  v112
 BYTE   W96
// 001   ----------------------------------------
 BYTE   Dn1
 BYTE   W48
 BYTE   N30  An3  v120
 BYTE   W36
 BYTE   N01  An4  v076
 BYTE   W05
 BYTE   N01
 BYTE   W04
 BYTE   N01
 BYTE   W03
// 002   ----------------------------------------
 BYTE   N80  Dn1  v124
 BYTE   N80  Cn3
 BYTE   W96
// 003   ----------------------------------------
 BYTE   Dn1  v127
 BYTE   W48
 BYTE   N28  An3  v120
 BYTE   W36
 BYTE   N01  An4  v076
 BYTE   W05
 BYTE   N01
 BYTE   W04
 BYTE   N01
 BYTE   W03
// 004   ----------------------------------------
 BYTE   N80  Dn1  v124
 BYTE   N80  Cn3
 BYTE   W96
// 005   ----------------------------------------
 BYTE   Dn1  v127
 BYTE   W48
 BYTE   N24  An3  v120
 BYTE   W36
 BYTE   N01  An4  v076
 BYTE   W05
 BYTE   N01
 BYTE   W04
 BYTE   N01
 BYTE   W03
// 006   ----------------------------------------
 BYTE   N80  Dn1  v124
 BYTE   N80  Cn3
 BYTE   W96
// 007   ----------------------------------------
 BYTE   Dn1  v127
 BYTE   W92
 BYTE   W03
 BYTE   VOL   36*PokemonB2W2VsGhetsisRSflame_mvl/mxv
 BYTE   W01
// 008   ----------------------------------------
 BYTE   N44
 BYTE   N22  Gn1
 BYTE   N80  Cn3  v112
 BYTE   W36
 BYTE   N32  Cn1  v108
 BYTE   N22  An2  v112
 BYTE   W12
 BYTE   N20  Dn1  v100
 BYTE   W24
 BYTE   N20
 BYTE   N22  Gn1  v127
 BYTE   W24
// 009   ----------------------------------------
 BYTE   N44  Dn1  v124
 BYTE   N22  Gn1  v127
 BYTE   W36
 BYTE   N32  Cn1  v108
 BYTE   N22  An2  v112
 BYTE   W12
 BYTE   N20  Dn1  v100
 BYTE   W24
 BYTE   N20
 BYTE   N22  Gn1  v127
 BYTE   W24
// 010   ----------------------------------------
 BYTE   N32  Dn1
 BYTE   N22  Gn1
 BYTE   W36
 BYTE   N32  Cn1  v108
 BYTE   N22  An2  v127
 BYTE   W12
 BYTE   N20  Dn1  v100
 BYTE   N22  Gn1  v112
 BYTE   W24
 BYTE   N20  Dn1  v100
 BYTE   N22  Gn1  v127
 BYTE   W24
// 011   ----------------------------------------
 BYTE   N44  Dn1  v124
 BYTE   N22  An2  v112
 BYTE   N08  Cn3  v120
 BYTE   W12
 BYTE   Cn3  v104
 BYTE   W12
 BYTE   N02  Ds2  v127
 BYTE   N02  Bn2
 BYTE   W12
 BYTE   Ds2  v104
 BYTE   N02  Bn2  v120
 BYTE   W12
 BYTE   N44  Dn1  v100
 BYTE   N02  Bn1  v127
 BYTE   N02  Fn2
 BYTE   W12
 BYTE   Bn1  v108
 BYTE   N02  Fn2  v080
 BYTE   W12
 BYTE   Gn1  v127
 BYTE   N02  Bn2
 BYTE   W12
 BYTE   Gn1  v108
 BYTE   N02  Bn2  v080
 BYTE   W12
// 012   ----------------------------------------
Label_9_01EA5EDB:
 BYTE   N44  Dn1  v127
 BYTE   N22  Gn1
 BYTE   W36
 BYTE   N32  Cn1  v108
 BYTE   N22  An2  v112
 BYTE   W12
 BYTE   N44  Dn1  v100
 BYTE   W24
 BYTE   N22  Gn1  v127
 BYTE   W24
 BYTE   PEND 
// 013   ----------------------------------------
 BYTE   N44  Dn1  v124
 BYTE   N22  Gn1  v127
 BYTE   W36
 BYTE   N32  Cn1  v108
 BYTE   N22  An2  v112
 BYTE   W12
 BYTE   N44  Dn1  v100
 BYTE   W24
 BYTE   N22  Gn1  v127
 BYTE   W24
// 014   ----------------------------------------
 BYTE   PATT
  POIN2 Label_9_01EA5EDB
// 015   ----------------------------------------
 BYTE   N44  Dn1  v127
 BYTE   N05  An2  v112
 BYTE   N08  Cn3  v104
 BYTE   W12
 BYTE   N05  An2  v112
 BYTE   N08  Cn3  v096
 BYTE   W12
 BYTE   N03  Ds2  v127
 BYTE   N02  Bn2
 BYTE   W11
 BYTE   N03  Ds2  v104
 BYTE   W01
 BYTE   N02  Bn2
 BYTE   W12
 BYTE   N44  Dn1  v100
 BYTE   N03  Bn1  v127
 BYTE   N02  Fn2
 BYTE   W12
 BYTE   N03  Bn1  v108
 BYTE   N02  Fn2  v104
 BYTE   W12
 BYTE   N03  Gn1  v127
 BYTE   N02  Bn2
 BYTE   W12
 BYTE   N03  Gn1  v108
 BYTE   N02  Bn2  v080
 BYTE   W12
// 016   ----------------------------------------
 BYTE   PATT
  POIN2 Label_9_01EA5EDB
// 017   ----------------------------------------
 BYTE   PATT
  POIN2 Label_9_01EA5EDB
// 018   ----------------------------------------
 BYTE   PATT
  POIN2 Label_9_01EA5EDB
// 019   ----------------------------------------
 BYTE   N44  Dn1  v124
 BYTE   N22  An2  v112
 BYTE   N08  Cn3  v104
 BYTE   W12
 BYTE   Cn3  v076
 BYTE   W12
 BYTE   N03  Ds2  v127
 BYTE   N02  Bn2
 BYTE   W12
 BYTE   N03  Ds2  v104
 BYTE   N02  Bn2  v096
 BYTE   W12
 BYTE   N44  Dn1  v100
 BYTE   N03  Bn1  v127
 BYTE   N02  Fn2
 BYTE   W12
 BYTE   N03  Bn1  v108
 BYTE   N02  Fn2  v080
 BYTE   W12
 BYTE   N03  Gn1  v127
 BYTE   N02  Bn2
 BYTE   W12
 BYTE   N03  Gn1  v108
 BYTE   N02  Bn2  v096
 BYTE   W12
// 020   ----------------------------------------
 BYTE   N44  Dn1  v124
 BYTE   N22  Gn1  v127
 BYTE   W36
 BYTE   N32  Cn1
 BYTE   N22  An2  v112
 BYTE   W12
 BYTE   N44  Dn1  v100
 BYTE   W24
 BYTE   N22  Gn1  v127
 BYTE   W24
// 021   ----------------------------------------
 BYTE   N44  Dn1
 BYTE   N22  Gn1
 BYTE   W36
 BYTE   N32  Cn1
 BYTE   N22  An2  v112
 BYTE   W12
 BYTE   N44  Dn1  v100
 BYTE   W24
 BYTE   N22  Gn1  v127
 BYTE   W24
// 022   ----------------------------------------
 BYTE   N44  Dn1  v124
 BYTE   N22  Gn1  v127
 BYTE   W36
 BYTE   N32  Cn1
 BYTE   N32  An2  v112
 BYTE   W12
 BYTE   N44  Dn1  v100
 BYTE   W48
// 023   ----------------------------------------
 BYTE   N20  Cn1  v127
 BYTE   N22  Dn1  v124
 BYTE   N30  An2  v112
 BYTE   N22  Bn2  v124
 BYTE   W24
 BYTE   Dn1  v116
 BYTE   N13  Gn1  v127
 BYTE   W12
 BYTE   N10  Cn1
 BYTE   N30  An2  v112
 BYTE   W12
 BYTE   N02  Cn1  v127
 BYTE   N02  Dn1
 BYTE   N13  Gn1
 BYTE   W06
 BYTE   N02  Cn1
 BYTE   N02  Dn1
 BYTE   W06
 BYTE   Cn1
 BYTE   N02  Dn1
 BYTE   W06
 BYTE   Cn1
 BYTE   N02  Dn1
 BYTE   W06
 BYTE   Cn1
 BYTE   N02  Dn1  v112
 BYTE   N30  An2
 BYTE   W06
 BYTE   N02  Cn1  v127
 BYTE   N02  Dn1  v112
 BYTE   W06
 BYTE   Cn1  v127
 BYTE   N02  Dn1  v112
 BYTE   W06
 BYTE   Cn1  v127
 BYTE   N02  Dn1  v112
 BYTE   W06
// 024   ----------------------------------------
Label_9_01EA600E:
 BYTE   N44  Dn1  v127
 BYTE   N01  Bn1  v100
 BYTE   W24
 BYTE   N01
 BYTE   W12
 BYTE   Bn1  v076
 BYTE   W12
 BYTE   N44  Cn1  v127
 BYTE   W24
 BYTE   N01  Bn1  v100
 BYTE   W12
 BYTE   Bn1  v076
 BYTE   W12
 BYTE   PEND 
// 025   ----------------------------------------
 BYTE   PATT
  POIN2 Label_9_01EA600E
// 026   ----------------------------------------
 BYTE   N44  Dn1  v127
 BYTE   N01  Bn1  v100
 BYTE   W24
 BYTE   N01
 BYTE   W12
 BYTE   Bn1  v076
 BYTE   W12
 BYTE   N44  Cn1  v127
 BYTE   W24
 BYTE   N23  Cn2  v108
 BYTE   W24
// 027   ----------------------------------------
 BYTE   N22  Dn1  v127
 BYTE   N01  Bn1  v100
 BYTE   W24
 BYTE   N22  Cn1  v127
 BYTE   N01  Bn1  v100
 BYTE   W12
 BYTE   N11  Dn1  v127
 BYTE   N01  Bn1  v076
 BYTE   W24
 BYTE   N32  Cn1  v127
 BYTE   N32  Cn3
 BYTE   W12
 BYTE   N01  Bn1  v100
 BYTE   W12
 BYTE   Bn1  v076
 BYTE   W12
// 028   ----------------------------------------
Label_9_01EA6061:
 BYTE   N44  Cn1  v127
 BYTE   N01  Bn1  v100
 BYTE   W24
 BYTE   N01
 BYTE   W12
 BYTE   Bn1  v076
 BYTE   W12
 BYTE   N44  Dn1  v127
 BYTE   W24
 BYTE   N01  Bn1  v100
 BYTE   W12
 BYTE   Bn1  v076
 BYTE   W12
 BYTE   PEND 
// 029   ----------------------------------------
 BYTE   PATT
  POIN2 Label_9_01EA6061
// 030   ----------------------------------------
 BYTE   N08  Cn1  v127
 BYTE   N01  Bn1  v100
 BYTE   W12
 BYTE   N22  Cn1  v127
 BYTE   W12
 BYTE   N01  Bn1  v100
 BYTE   W12
 BYTE   N22  Dn1  v127
 BYTE   N01  Bn1  v076
 BYTE   W12
 BYTE   N23  Cn1  v127
 BYTE   W24
 BYTE   N22  Dn1
 BYTE   N23  Cn2  v108
 BYTE   W12
 BYTE   N19  Cn1  v127
 BYTE   W12
// 031   ----------------------------------------
 BYTE   N22  Dn1
 BYTE   N01  Bn1  v100
 BYTE   W12
 BYTE   N23  Cn1  v127
 BYTE   W12
 BYTE   N22  Dn1
 BYTE   N01  Bn1  v100
 BYTE   W12
 BYTE   Bn1  v076
 BYTE   W12
 BYTE   N08  Cn1  v127
 BYTE   W12
 BYTE   N08
 BYTE   N10  Dn1
 BYTE   W12
 BYTE   N22  Cn1
 BYTE   N01  Bn1  v100
 BYTE   N17  Fn2  v127
 BYTE   W11
 BYTE   VOL   25*PokemonB2W2VsGhetsisRSflame_mvl/mxv
 BYTE   W01
 BYTE   N01  Bn1  v076
 BYTE   W06
 BYTE   PAN   c_v+44
 BYTE   N03  Dn2  v084
 BYTE   W06
// 032   ----------------------------------------
Label_9_01EA60D3:
 BYTE   N28  Dn1  v127
 BYTE   N32  Fs1  v112
 BYTE   W02
 BYTE   N56  An3  v100
 BYTE   W04
 BYTE   En4
 BYTE   W30
 BYTE   N10  Dn1  v112
 BYTE   N10  Fs1
 BYTE   W12
 BYTE   N28  Dn1  v127
 BYTE   N22  Fs1  v112
 BYTE   W24
 BYTE   N22
 BYTE   W12
 BYTE   N10  Dn1
 BYTE   W12
// 033   ----------------------------------------
Label_9_01EA60F2:
 BYTE   N28  Dn1  v127
 BYTE   N10  Fs1  v112
 BYTE   W12
 BYTE   N10
 BYTE   W12
 BYTE   N32
 BYTE   W12
 BYTE   N10  Dn1
 BYTE   W12
 BYTE   N28  Dn1  v127
 BYTE   W12
 BYTE   N22  Fs1  v112
 BYTE   W24
 BYTE   N10  Dn1
 BYTE   N10  Fs1
 BYTE   W12
 BYTE   PEND 
// 034   ----------------------------------------
Label_9_01EA610E:
 BYTE   N28  Dn1  v127
 BYTE   N10  Fs1  v112
 BYTE   W12
 BYTE   N22
 BYTE   W24
 BYTE   N10  Dn1
 BYTE   N22  Fs1
 BYTE   W12
 BYTE   N28  Dn1  v127
 BYTE   W12
 BYTE   N10  Fs1  v112
 BYTE   W12
 BYTE   N22
 BYTE   W12
 BYTE   N10  Dn1
 BYTE   W12
 BYTE   PEND 
// 035   ----------------------------------------
 BYTE   N28  Dn1  v127
 BYTE   N32  Fs1
 BYTE   W36
 BYTE   N10  Dn1  v112
 BYTE   N10  Fs1
 BYTE   W12
 BYTE   N28  Dn1  v127
 BYTE   N22  Fs1  v112
 BYTE   W24
 BYTE   N10
 BYTE   W12
 BYTE   Dn1
 BYTE   N10  Fs1
 BYTE   W02
 BYTE   N01  An3  v096
 BYTE   W06
 BYTE   An3  v076
 BYTE   W04
// 036   ----------------------------------------
 BYTE   N28  Dn1  v127
 BYTE   N32  Fs1
 BYTE   W02
 BYTE   N56  An3  v108
 BYTE   W32
 BYTE   W02
 BYTE   N10  Dn1  v112
 BYTE   N10  Fs1
 BYTE   W12
 BYTE   N28  Dn1  v127
 BYTE   N22  Fs1  v112
 BYTE   W24
 BYTE   N22
 BYTE   W12
 BYTE   N10  Dn1
 BYTE   W12
// 037   ----------------------------------------
 BYTE   N28  Dn1  v127
 BYTE   N10  Fs1
 BYTE   W12
 BYTE   Fs1  v112
 BYTE   W12
 BYTE   N32
 BYTE   W12
 BYTE   N10  Dn1
 BYTE   W12
 BYTE   N28  Dn1  v127
 BYTE   W12
 BYTE   N22  Fs1  v112
 BYTE   W24
 BYTE   N10  Dn1
 BYTE   N10  Fs1
 BYTE   W12
// 038   ----------------------------------------
 BYTE   N28  Dn1  v127
 BYTE   N10  Fs1
 BYTE   W12
 BYTE   N22  Fs1  v112
 BYTE   W24
 BYTE   N10  Dn1
 BYTE   N22  Fs1
 BYTE   W12
 BYTE   N28  Dn1  v127
 BYTE   W12
 BYTE   N10  Fs1  v112
 BYTE   W12
 BYTE   N22
 BYTE   W12
 BYTE   N10  Dn1
 BYTE   W12
// 039   ----------------------------------------
 BYTE   N28  Dn1  v127
 BYTE   N32  Fs1  v112
 BYTE   W36
 BYTE   N10  Dn1
 BYTE   N10  Fs1
 BYTE   W12
 BYTE   N28  Dn1  v127
 BYTE   N22  Fs1  v112
 BYTE   W24
 BYTE   N10
 BYTE   W12
 BYTE   Dn1
 BYTE   N10  Fs1
 BYTE   W02
 BYTE   N01  An3  v100
 BYTE   W06
 BYTE   An3  v080
 BYTE   W04
// 040   ----------------------------------------
 BYTE   N28  Dn1  v127
 BYTE   N32  Fs1  v124
 BYTE   W02
 BYTE   N56  An3  v108
 BYTE   W32
 BYTE   W02
 BYTE   N10  Dn1  v112
 BYTE   N10  Fs1  v127
 BYTE   W12
 BYTE   N32  Cn1
 BYTE   N28  Dn1
 BYTE   N22  Fs1  v112
 BYTE   W24
 BYTE   Fs1  v127
 BYTE   W12
 BYTE   N10  Dn1  v112
 BYTE   W12
// 041   ----------------------------------------
 BYTE   N28  Dn1  v127
 BYTE   N10  Fs1
 BYTE   W12
 BYTE   Fs1  v112
 BYTE   W12
 BYTE   N32  Cn1  v127
 BYTE   N32  Fs1  v112
 BYTE   W12
 BYTE   N10  Dn1
 BYTE   W12
 BYTE   N28  Dn1  v127
 BYTE   W12
 BYTE   N22  Fs1  v112
 BYTE   W24
 BYTE   N10  Dn1
 BYTE   N10  Fs1
 BYTE   W12
// 042   ----------------------------------------
 BYTE   N32  Cn1  v127
 BYTE   N28  Dn1
 BYTE   N10  Fs1  v112
 BYTE   W12
 BYTE   N22
 BYTE   W24
 BYTE   N10  Dn1
 BYTE   N22  Fs1
 BYTE   W12
 BYTE   N28  Dn1  v127
 BYTE   W12
 BYTE   N10  Fs1  v112
 BYTE   W12
 BYTE   N32  Cn1  v127
 BYTE   N22  Fs1  v112
 BYTE   W12
 BYTE   N10  Dn1
 BYTE   W12
// 043   ----------------------------------------
 BYTE   N28  Dn1  v127
 BYTE   N32  Fs1  v112
 BYTE   W36
 BYTE   N10  Dn1
 BYTE   N10  Fs1
 BYTE   W12
 BYTE   N32  Cn1  v127
 BYTE   N28  Dn1
 BYTE   N22  Fs1  v112
 BYTE   W24
 BYTE   N10
 BYTE   W12
 BYTE   Dn1
 BYTE   N10  Fs1
 BYTE   W12
// 044   ----------------------------------------
 BYTE   N28  Dn1  v127
 BYTE   N32  Fs1  v112
 BYTE   N23  Bn2  v127
 BYTE   W02
 BYTE   N56  Cn3  v100
 BYTE   W32
 BYTE   W02
 BYTE   N10  Dn1  v112
 BYTE   N10  Fs1
 BYTE   N22  Bn2  v127
 BYTE   W12
 BYTE   N28  Dn1
 BYTE   N22  Fs1  v112
 BYTE   W24
 BYTE   N22
 BYTE   N04  Bn2  v116
 BYTE   W12
 BYTE   N10  Dn1  v112
 BYTE   N04  Bn2  v092
 BYTE   W12
// 045   ----------------------------------------
 BYTE   N28  Dn1  v127
 BYTE   N10  Fs1  v112
 BYTE   N04  Bn2  v116
 BYTE   W12
 BYTE   N10  Fs1  v112
 BYTE   N04  Bn2  v096
 BYTE   W12
 BYTE   N32  Fs1  v112
 BYTE   N04  Bn2  v116
 BYTE   W12
 BYTE   N10  Dn1  v112
 BYTE   N04  Bn2  v092
 BYTE   W12
 BYTE   N28  Dn1  v127
 BYTE   N04  An2  v116
 BYTE   W12
 BYTE   N22  Fs1  v112
 BYTE   N04  An2  v096
 BYTE   W12
 BYTE   Bn2  v116
 BYTE   W12
 BYTE   N10  Dn1  v112
 BYTE   N10  Fs1
 BYTE   N04  Bn2  v092
 BYTE   W12
// 046   ----------------------------------------
 BYTE   N28  Dn1  v127
 BYTE   N10  Fs1  v112
 BYTE   N04  Bn2  v116
 BYTE   W12
 BYTE   N22  Fs1  v112
 BYTE   N04  Bn2  v096
 BYTE   W12
 BYTE   An2  v116
 BYTE   W12
 BYTE   N10  Dn1  v112
 BYTE   N22  Fs1
 BYTE   N04  An2  v092
 BYTE   W12
 BYTE   N28  Dn1  v127
 BYTE   N04  En2  v116
 BYTE   W12
 BYTE   N10  Fs1  v112
 BYTE   N04  En2  v096
 BYTE   W12
 BYTE   N22  Fs1  v112
 BYTE   N04  Cn3  v100
 BYTE   W12
 BYTE   N10  Dn1  v112
 BYTE   N04  Cn3  v084
 BYTE   W12
// 047   ----------------------------------------
 BYTE   N28  Dn1  v127
 BYTE   N32  Fs1  v112
 BYTE   N01  Bn2  v100
 BYTE   W05
 BYTE   Bn2  v088
 BYTE   W05
 BYTE   An2
 BYTE   W04
 BYTE   En2  v080
 BYTE   W05
 BYTE   Bn2
 BYTE   W05
 BYTE   Bn2  v124
 BYTE   W05
 BYTE   An2  v076
 BYTE   W05
 BYTE   Gn2  v088
 BYTE   W02
 BYTE   N10  Dn1  v068
 BYTE   N10  Fs1  v112
 BYTE   W02
 BYTE   N01  Dn2  v084
 BYTE   W05
 BYTE   Bn2  v080
 BYTE   W05
 BYTE   N28  Dn1  v127
 BYTE   N22  Fs1  v112
 BYTE   N01  Bn2  v120
 BYTE   W05
 BYTE   Bn2  v084
 BYTE   W05
 BYTE   An2  v096
 BYTE   W04
 BYTE   An2  v088
 BYTE   W05
 BYTE   Bn2  v092
 BYTE   W05
 BYTE   N10  Fs1  v112
 BYTE   N01  Bn2  v100
 BYTE   W05
 BYTE   Cn3  v072
 BYTE   W05
 BYTE   Bn2  v076
 BYTE   W02
 BYTE   N10  Dn1  v088
 BYTE   N10  Fs1  v112
 BYTE   W02
 BYTE   N01  Bn2  v072
 BYTE   W05
 BYTE   Cn3
 BYTE   W05
// 048   ----------------------------------------
 BYTE   N32  Cn1  v127
 BYTE   N32  Fs1  v112
 BYTE   N56  Cn3  v127
 BYTE   TIE  An4
 BYTE   W36
 BYTE   N10  Dn1  v112
 BYTE   N10  Fs1
 BYTE   W12
 BYTE   N28  Dn1  v127
 BYTE   N22  Fs1  v112
 BYTE   W24
 BYTE   N22
 BYTE   W12
 BYTE   N10  Dn1
 BYTE   W12
// 049   ----------------------------------------
 BYTE   N28  Dn1  v127
 BYTE   N10  Fs1  v112
 BYTE   W12
 BYTE   EOT
 BYTE   An4
 BYTE   N10  Fs1
 BYTE   W12
 BYTE   N32
 BYTE   W12
 BYTE   N10  Dn1
 BYTE   W12
 BYTE   N28  Dn1  v127
 BYTE   W12
 BYTE   N22  Fs1  v112
 BYTE   W24
 BYTE   N10  Dn1
 BYTE   N10  Fs1
 BYTE   W12
// 050   ----------------------------------------
 BYTE   PATT
  POIN2 Label_9_01EA610E
// 051   ----------------------------------------
 BYTE   N28  Dn1  v127
 BYTE   N32  Fs1  v112
 BYTE   W36
 BYTE   N10  Dn1
 BYTE   N10  Fs1
 BYTE   W12
 BYTE   N28  Dn1  v127
 BYTE   N22  Fs1  v116
 BYTE   W24
 BYTE   N10  Fs1  v112
 BYTE   W12
 BYTE   Dn1
 BYTE   N10  Fs1
 BYTE   W12
// 052   ----------------------------------------
 BYTE   N28  Dn1  v127
 BYTE   N32  Fs1  v112
 BYTE   W36
 BYTE   N10  Dn1
 BYTE   N10  Fs1
 BYTE   W12
 BYTE   N28  Dn1  v127
 BYTE   N22  Fs1  v112
 BYTE   W24
 BYTE   N22
 BYTE   W12
 BYTE   N10  Dn1
 BYTE   W12
// 053   ----------------------------------------
 BYTE   PATT
  POIN2 Label_9_01EA60F2
// 054   ----------------------------------------
 BYTE   PATT
  POIN2 Label_9_01EA610E
// 055   ----------------------------------------
 BYTE   N28  Dn1  v127
 BYTE   N32  Fs1  v112
 BYTE   W36
 BYTE   N10  Dn1  v068
 BYTE   N10  Fs1  v112
 BYTE   W12
 BYTE   N28  Dn1  v127
 BYTE   N22  Fs1  v112
 BYTE   W24
 BYTE   N10
 BYTE   N05  Cn3  v088
 BYTE   W06
 BYTE   N05
 BYTE   W06
 BYTE   N10  Dn1
 BYTE   N10  Fs1  v112
 BYTE   N05  Cn3  v088
 BYTE   W06
 BYTE   N05
 BYTE   W04
 BYTE   PAN   c_v-41
 BYTE   W02
// 056   ----------------------------------------
 BYTE   N28  Dn1  v127
 BYTE   N32  Dn2
 BYTE   N92  Cn3  v088
 BYTE   W36
 BYTE   N10  Dn1
 BYTE   N11  Fs1  v127
 BYTE   W12
 BYTE   N28  Dn1
 BYTE   N22  Dn2  v112
 BYTE   W24
 BYTE   N10  Fs1
 BYTE   W12
 BYTE   Dn1  v088
 BYTE   N10  Fs1  v112
 BYTE   W12
// 057   ----------------------------------------
 BYTE   N28  Dn1  v127
 BYTE   N10  Fs1
 BYTE   W01
 BYTE   N92  Cn3  v088
 BYTE   W11
 BYTE   N22  Fs1  v112
 BYTE   W24
 BYTE   N10  Dn1  v088
 BYTE   N22  Fs1  v127
 BYTE   W12
 BYTE   N28  Dn1
 BYTE   W12
 BYTE   N10  Fs1  v112
 BYTE   W12
 BYTE   N22
 BYTE   W12
 BYTE   N10  Dn1  v088
 BYTE   W12
// 058   ----------------------------------------
 BYTE   N28  Dn1  v127
 BYTE   N32  Dn2  v124
 BYTE   W36
 BYTE   N10  Dn1  v088
 BYTE   N11  Fs1  v112
 BYTE   W12
 BYTE   N28  Dn1  v127
 BYTE   N23  Fs1  v112
 BYTE   W24
 BYTE   N11
 BYTE   W12
 BYTE   N10  Dn1  v088
 BYTE   N11  Fs1  v112
 BYTE   W12
// 059   ----------------------------------------
 BYTE   N28  Dn1  v127
 BYTE   N11  Fs1  v112
 BYTE   W12
 BYTE   N23
 BYTE   W24
 BYTE   N10  Dn1  v088
 BYTE   N23  Fs1  v112
 BYTE   W12
 BYTE   N28  Dn1  v127
 BYTE   W12
 BYTE   N11  Fs1  v112
 BYTE   W12
 BYTE   N23
 BYTE   W12
 BYTE   N10  Dn1  v088
 BYTE   W12
// 060   ----------------------------------------
 BYTE   N28  Dn1  v127
 BYTE   N32  Fs1  v112
 BYTE   W24
 BYTE   N01  Cn2  v088
 BYTE   W12
 BYTE   N10  Dn1
 BYTE   N11  Fs1  v112
 BYTE   N01  Cn2  v080
 BYTE   W12
 BYTE   N28  Dn1  v127
 BYTE   N23  Fs1  v112
 BYTE   N01  Cn2  v092
 BYTE   W24
 BYTE   N11  Fs1  v112
 BYTE   N01  Cn2  v100
 BYTE   W12
 BYTE   N10  Dn1  v088
 BYTE   N11  Fs1  v112
 BYTE   N01  Cn2  v100
 BYTE   W12
// 061   ----------------------------------------
 BYTE   N28  Dn1  v127
 BYTE   N11  Fs1  v112
 BYTE   W12
 BYTE   N23
 BYTE   W12
 BYTE   N01  Cn2  v100
 BYTE   W12
 BYTE   N10  Dn1  v088
 BYTE   N23  Fs1  v112
 BYTE   N01  Cn2  v100
 BYTE   W12
 BYTE   N28  Dn1  v127
 BYTE   N01  Cn2  v092
 BYTE   W12
 BYTE   N11  Fs1  v112
 BYTE   W12
 BYTE   N23
 BYTE   N01  Cn2  v100
 BYTE   W12
 BYTE   N09  Dn1  v127
 BYTE   N01  Cn2  v100
 BYTE   W12
// 062   ----------------------------------------
 BYTE   N20  Dn1  v127
 BYTE   N32  Fs1  v112
 BYTE   W24
 BYTE   N22  Dn1  v124
 BYTE   N01  Cn2  v088
 BYTE   W12
 BYTE   N11  Fs1  v112
 BYTE   N01  Cn2  v080
 BYTE   W12
 BYTE   Dn1  v127
 BYTE   N23  Fs1  v112
 BYTE   N01  Cn2  v092
 BYTE   W03
 BYTE   N18  Dn1  v127
 BYTE   W21
 BYTE   N01
 BYTE   N11  Fs1  v112
 BYTE   N01  Cn2  v100
 BYTE   W03
 BYTE   N08  Dn1  v127
 BYTE   W09
 BYTE   N10  Dn1  v100
 BYTE   N11  Fs1  v112
 BYTE   N01  Cn2  v100
 BYTE   W12
// 063   ----------------------------------------
 BYTE   N20  Dn1  v127
 BYTE   N11  Fs1  v112
 BYTE   N01  Cn2  v100
 BYTE   W12
 BYTE   N28  Cn1  v127
 BYTE   N23  Fs1  v112
 BYTE   N23  Cn2  v100
 BYTE   W24
 BYTE   N10  Dn1  v088
 BYTE   N23  Fs1  v112
 BYTE   N01  Cn2  v100
 BYTE   W12
 BYTE   N11  Dn1  v127
 BYTE   N01  Cn2  v092
 BYTE   W12
 BYTE   N28  Cn1  v127
 BYTE   N11  Fs1  v112
 BYTE   N23  Cn2  v100
 BYTE   W12
 BYTE   Fs1  v112
 BYTE   W12
 BYTE   N10  Dn1  v088
 BYTE   N01  Cn2  v100
 BYTE   W12
// 064   ----------------------------------------
 BYTE   N28  Dn1  v127
 BYTE   N32  Fs1  v124
 BYTE   W01
 BYTE   N80  Cn3  v100
 BYTE   W32
 BYTE   W03
 BYTE   N10  Dn1  v112
 BYTE   N11  Fs1
 BYTE   W12
 BYTE   N28  Dn1  v127
 BYTE   N23  Fs1  v112
 BYTE   W24
 BYTE   N23
 BYTE   W12
 BYTE   N10  Dn1
 BYTE   W12
// 065   ----------------------------------------
Label_9_01EA6544:
 BYTE   N28  Dn1  v127
 BYTE   N11  Fs1
 BYTE   W12
 BYTE   Fs1  v112
 BYTE   W12
 BYTE   N32
 BYTE   W12
 BYTE   N10  Dn1
 BYTE   W12
 BYTE   N28  Dn1  v127
 BYTE   W12
 BYTE   N23  Fs1  v112
 BYTE   W24
 BYTE   N10  Dn1
 BYTE   N11  Fs1
 BYTE   W12
 BYTE   PEND 
// 066   ----------------------------------------
Label_9_01EA6560:
 BYTE   N28  Dn1  v127
 BYTE   N11  Fs1  v112
 BYTE   W12
 BYTE   N23
 BYTE   W24
 BYTE   N10  Dn1
 BYTE   N23  Fs1
 BYTE   W12
 BYTE   N28  Dn1  v127
 BYTE   W12
 BYTE   N11  Fs1  v112
 BYTE   W12
 BYTE   N23
 BYTE   W12
 BYTE   N10  Dn1
 BYTE   W12
 BYTE   PEND 
// 067   ----------------------------------------
 BYTE   N28  Dn1  v127
 BYTE   N32  Fs1
 BYTE   W36
 BYTE   N10  Dn1  v112
 BYTE   N11  Fs1
 BYTE   W12
 BYTE   N28  Dn1  v127
 BYTE   N23  Fs1  v112
 BYTE   W24
 BYTE   N11
 BYTE   W12
 BYTE   N10  Dn1
 BYTE   N11  Fs1
 BYTE   W12
// 068   ----------------------------------------
Label_9_01EA6596:
 BYTE   N28  Dn1  v127
 BYTE   N32  Fs1  v112
 BYTE   W36
 BYTE   N10  Dn1
 BYTE   N11  Fs1
 BYTE   W12
 BYTE   N28  Dn1  v127
 BYTE   N23  Fs1  v112
 BYTE   W24
 BYTE   N23
 BYTE   W12
 BYTE   N10  Dn1
 BYTE   W12
 BYTE   PEND 
// 069   ----------------------------------------
 BYTE   PATT
  POIN2 Label_9_01EA6544
// 070   ----------------------------------------
 BYTE   N28  Dn1  v127
 BYTE   N11  Fs1  v124
 BYTE   W12
 BYTE   N23  Fs1  v112
 BYTE   W24
 BYTE   N10  Dn1
 BYTE   N23  Fs1
 BYTE   W12
 BYTE   N28  Dn1  v127
 BYTE   W12
 BYTE   N11  Fs1  v112
 BYTE   W12
 BYTE   N23
 BYTE   W12
 BYTE   N10  Dn1
 BYTE   W12
// 071   ----------------------------------------
Label_9_01EA65D1:
 BYTE   N28  Dn1  v127
 BYTE   N32  Fs1  v112
 BYTE   W36
 BYTE   N10  Dn1
 BYTE   N11  Fs1
 BYTE   W12
 BYTE   N28  Dn1  v127
 BYTE   N23  Fs1  v112
 BYTE   W24
 BYTE   N11
 BYTE   W12
 BYTE   N10  Dn1
 BYTE   N11  Fs1
 BYTE   W12
 BYTE   PEND 
// 072   ----------------------------------------
 BYTE   N28  Dn1  v127
 BYTE   N32  Fs1  v112
 BYTE   N03  Bn3  v088
 BYTE   W04
 BYTE   N92
 BYTE   W32
 BYTE   N10  Dn1  v112
 BYTE   N11  Fs1
 BYTE   W12
 BYTE   N28  Dn1  v127
 BYTE   N23  Fs1  v112
 BYTE   W24
 BYTE   N11
 BYTE   W12
 BYTE   N10  Dn1
 BYTE   N11  Fs1
 BYTE   W12
// 073   ----------------------------------------
 BYTE   PATT
  POIN2 Label_9_01EA6560
// 074   ----------------------------------------
 BYTE   PATT
  POIN2 Label_9_01EA65D1
// 075   ----------------------------------------
 BYTE   PATT
  POIN2 Label_9_01EA6596
// 076   ----------------------------------------
 BYTE   N28  Dn1  v124
 BYTE   N11  Fs1  v112
 BYTE   W12
 BYTE   N11
 BYTE   W12
 BYTE   N32
 BYTE   W12
 BYTE   N10  Dn1  v108
 BYTE   W12
 BYTE   N28  Dn1  v116
 BYTE   W12
 BYTE   N23  Fs1  v112
 BYTE   W24
 BYTE   N10  Dn1  v100
 BYTE   N11  Fs1  v112
 BYTE   W12
// 077   ----------------------------------------
 BYTE   N28  Dn1
 BYTE   N11  Fs1
 BYTE   W12
 BYTE   N23
 BYTE   W24
 BYTE   N10  Dn1  v096
 BYTE   N23  Fs1  v112
 BYTE   W12
 BYTE   N28  Dn1  v108
 BYTE   W12
 BYTE   N11  Fs1  v112
 BYTE   W12
 BYTE   N23
 BYTE   W12
 BYTE   N10  Dn1  v092
 BYTE   W12
// 078   ----------------------------------------
 BYTE   N28  Dn1  v100
 BYTE   N32  Fs1  v112
 BYTE   W36
 BYTE   N10  Dn1  v084
 BYTE   N11  Fs1  v112
 BYTE   W12
 BYTE   N28  Dn1  v096
 BYTE   N23  Fs1  v112
 BYTE   W24
 BYTE   N11
 BYTE   W12
 BYTE   N10  Dn1  v076
 BYTE   N11  Fs1  v112
 BYTE   W12
// 079   ----------------------------------------
 BYTE   N28  Dn1  v084
 BYTE   N32  Fs1  v112
 BYTE   W36
 BYTE   N10  Dn1  v068
 BYTE   N11  Fs1  v112
 BYTE   W12
 BYTE   N28  Dn1  v080
 BYTE   N23  Fs1  v112
 BYTE   W24
 BYTE   N11
 BYTE   W12
 BYTE   N10  Dn1  v064
 BYTE   N11  Fs1  v112
 BYTE   W12
// 080   ----------------------------------------
Label_9_01EA6691:
 BYTE   N11  Fs1  v112
 BYTE   W12
 BYTE   N23
 BYTE   W24
 BYTE   N23
 BYTE   W24
 BYTE   N11
 BYTE   W12
 BYTE   N23
 BYTE   W24
 BYTE   PEND 
// 081   ----------------------------------------
 BYTE   PATT
  POIN2 Label_9_01EA6691
// 082   ----------------------------------------
 BYTE   N28  Dn1  v088
 BYTE   N11  Fs1  v112
 BYTE   W12
 BYTE   N23
 BYTE   W24
 BYTE   N10  Dn1  v072
 BYTE   N23  Fs1  v112
 BYTE   W12
 BYTE   N28  Dn1  v100
 BYTE   W12
 BYTE   N11  Fs1  v112
 BYTE   W12
 BYTE   N23
 BYTE   W12
 BYTE   N10  Dn1  v080
 BYTE   W12
// 083   ----------------------------------------
 BYTE   N28  Dn1  v108
 BYTE   N11  Fs1  v112
 BYTE   W12
 BYTE   N23
 BYTE   W24
 BYTE   N10  Dn1  v088
 BYTE   N23  Fs1  v112
 BYTE   W12
 BYTE   N28  Dn1
 BYTE   W12
 BYTE   N11  Fs1
 BYTE   W12
 BYTE   N23
 BYTE   W12
 BYTE   N10  Dn1  v096
 BYTE   W12
// 084   ----------------------------------------
 BYTE   N28  Dn1  v116
 BYTE   N11  Fs1  v112
 BYTE   W12
 BYTE   N23
 BYTE   W24
 BYTE   N10  Dn1  v100
 BYTE   N23  Fs1  v112
 BYTE   W12
 BYTE   N28  Dn1  v127
 BYTE   W12
 BYTE   N11  Fs1  v112
 BYTE   W12
 BYTE   N23
 BYTE   W12
 BYTE   N10  Dn1
 BYTE   W12
// 085   ----------------------------------------
 BYTE   PATT
  POIN2 Label_9_01EA6560
// 086   ----------------------------------------
Label_9_01EA66FF:
 BYTE   N11  Cn1  v124
 BYTE   N11  Fs1  v112
 BYTE   N32  An3  v127
 BYTE   W12
 BYTE   N11  Dn1  v112
 BYTE   W12
 BYTE   N11
 BYTE   W12
 BYTE   Cn1  v116
 BYTE   N11  Fs1  v112
 BYTE   N56  An3  v127
 BYTE   W12
 BYTE   N11  Dn1  v112
 BYTE   N23  Fs1
 BYTE   W12
 BYTE   N05  Dn1
 BYTE   W06
 BYTE   N05
 BYTE   W06
 BYTE   N11  Cn1  v120
 BYTE   N11  Fs1  v112
 BYTE   W12
 BYTE   Dn1
 BYTE   N11  Fs1
 BYTE   W12
 BYTE   PEND 
// 087   ----------------------------------------
Label_9_01EA672F:
 BYTE   N05  Dn1  v112
 BYTE   N11  Fs1
 BYTE   W06
 BYTE   N05  Cn1
 BYTE   W06
 BYTE   N11  Dn1
 BYTE   N23  Fs1
 BYTE   W12
 BYTE   N11  Cn1
 BYTE   W12
 BYTE   Dn1
 BYTE   N23  Fs1
 BYTE   W12
 BYTE   N11  Cn1
 BYTE   W12
 BYTE   N11
 BYTE   N11  Fs1
 BYTE   W12
 BYTE   Dn1
 BYTE   N23  Fs1
 BYTE   W12
 BYTE   N11  Dn1
 BYTE   W12
 BYTE   PEND 
// 088   ----------------------------------------
Label_9_01EA6753:
 BYTE   N11  Cn1  v120
 BYTE   N32  Fs1  v112
 BYTE   W12
 BYTE   N11  Dn1
 BYTE   W12
 BYTE   Cn1  v116
 BYTE   W12
 BYTE   Cn1  v120
 BYTE   N11  Fs1  v112
 BYTE   W12
 BYTE   Dn1
 BYTE   N23  Fs1
 BYTE   W12
 BYTE   N11  Dn1
 BYTE   W12
 BYTE   Cn1  v124
 BYTE   N11  Fs1  v112
 BYTE   W12
 BYTE   N05  Dn1
 BYTE   N11  Fs1
 BYTE   W06
 BYTE   N05  Dn1
 BYTE   W06
 BYTE   PEND 
// 089   ----------------------------------------
Label_9_01EA677C:
 BYTE   N11  Cn1  v112
 BYTE   N11  Fs1
 BYTE   W12
 BYTE   Cn1
 BYTE   N23  Fs1
 BYTE   W12
 BYTE   N11  Dn1
 BYTE   W12
 BYTE   N11
 BYTE   N23  Fs1
 BYTE   W12
 BYTE   N11  Dn1
 BYTE   W12
 BYTE   Cn1
 BYTE   N11  Fs1
 BYTE   W12
 BYTE   Dn1
 BYTE   N23  Fs1
 BYTE   W12
 BYTE   N11  Dn1
 BYTE   W12
 BYTE   PEND 
// 090   ----------------------------------------
Label_9_01EA679C:
 BYTE   N11  Cn1  v112
 BYTE   N32  Fs1
 BYTE   N32  An3  v127
 BYTE   W12
 BYTE   N11  Dn1  v112
 BYTE   W12
 BYTE   N11
 BYTE   W12
 BYTE   Cn1
 BYTE   N11  Fs1
 BYTE   N56  An3  v127
 BYTE   W12
 BYTE   N11  Dn1  v112
 BYTE   N23  Fs1
 BYTE   W12
 BYTE   N05  Dn1
 BYTE   W06
 BYTE   N05
 BYTE   W06
 BYTE   N11  Cn1
 BYTE   N11  Fs1
 BYTE   W12
 BYTE   Dn1
 BYTE   N11  Fs1
 BYTE   W12
 BYTE   PEND 
// 091   ----------------------------------------
 BYTE   PATT
  POIN2 Label_9_01EA672F
// 092   ----------------------------------------
Label_9_01EA67CC:
 BYTE   N11  Cn1  v112
 BYTE   N32  Fs1
 BYTE   W12
 BYTE   N11  Dn1
 BYTE   W12
 BYTE   Cn1
 BYTE   W12
 BYTE   N11
 BYTE   N11  Fs1
 BYTE   W12
 BYTE   Dn1
 BYTE   N23  Fs1
 BYTE   W12
 BYTE   N11  Dn1
 BYTE   W12
 BYTE   Cn1
 BYTE   N11  Fs1
 BYTE   W12
 BYTE   N05  Dn1
 BYTE   N11  Fs1
 BYTE   W06
 BYTE   N05  Dn1
 BYTE   W06
 BYTE   PEND 
// 093   ----------------------------------------
Label_9_01EA67EF:
 BYTE   N11  Cn1  v112
 BYTE   N11  Fs1
 BYTE   W12
 BYTE   Cn1
 BYTE   N23  Fs1
 BYTE   W12
 BYTE   N11  Dn1
 BYTE   W12
 BYTE   N11
 BYTE   N23  Fs1
 BYTE   W12
 BYTE   N11  Dn1
 BYTE   W12
 BYTE   Cn1
 BYTE   N11  Fs1
 BYTE   N32  An3  v127
 BYTE   W12
 BYTE   N05  Dn1  v112
 BYTE   N23  Fs1
 BYTE   W06
 BYTE   N05  Dn1
 BYTE   W06
 BYTE   N05
 BYTE   W06
 BYTE   N05
 BYTE   W06
 BYTE   PEND 
// 094   ----------------------------------------
 BYTE   PATT
  POIN2 Label_9_01EA66FF
// 095   ----------------------------------------
 BYTE   PATT
  POIN2 Label_9_01EA672F
// 096   ----------------------------------------
 BYTE   PATT
  POIN2 Label_9_01EA6753
// 097   ----------------------------------------
 BYTE   PATT
  POIN2 Label_9_01EA677C
// 098   ----------------------------------------
 BYTE   PATT
  POIN2 Label_9_01EA679C
// 099   ----------------------------------------
 BYTE   PATT
  POIN2 Label_9_01EA672F
// 100   ----------------------------------------
 BYTE   PATT
  POIN2 Label_9_01EA67CC
// 101   ----------------------------------------
 BYTE   PATT
  POIN2 Label_9_01EA67EF
// 102   ----------------------------------------
 BYTE   N92  Fs2  v112
 BYTE   N66  An3  v127
 BYTE   W96
// 103   ----------------------------------------
 BYTE   PAN   c_v+47
 BYTE   N28  Dn1
 BYTE   N32  Fs1  v112
 BYTE   N56  Cn3  v100
 BYTE   W02
 BYTE   An3
 BYTE   W32
 BYTE   W02
 BYTE   N10  Dn1  v112
 BYTE   N10  Fs1
 BYTE   W12
 BYTE   N28  Dn1  v127
 BYTE   N22  Fs1  v112
 BYTE   W24
 BYTE   N22
 BYTE   W12
 BYTE   N10  Dn1
 BYTE   W12
// 104   ----------------------------------------
 BYTE   PATT
  POIN2 Label_9_01EA60F2
// 105   ----------------------------------------
 BYTE   PATT
  POIN2 Label_9_01EA610E
// 106   ----------------------------------------
 BYTE   N28  Dn1  v127
 BYTE   N32  Fs1
 BYTE   W36
 BYTE   N10  Dn1  v112
 BYTE   N10  Fs1
 BYTE   W12
 BYTE   N28  Dn1  v127
 BYTE   N22  Fs1  v112
 BYTE   W24
 BYTE   N10
 BYTE   W12
 BYTE   Dn1
 BYTE   N09  Fs1
 BYTE   W02
 BYTE   N01  An3  v096
 BYTE   W06
 BYTE   An3  v076
 BYTE   W03
 BYTE   GoTo
  POIN2 Label_9_01EA60D3
 BYTE   FINE

//******************************************************//
	ALIGN 4

PokemonB2W2VsGhetsisRSflame:
	BYTE	10	// NumTrks
	BYTE	0	// NumBlks
	BYTE	PokemonB2W2VsGhetsisRSflame_pri	// Priority
	BYTE	PokemonB2W2VsGhetsisRSflame_rev	// Reverb.
    
	POIN2	PokemonB2W2VsGhetsisRSflame_grp
    
	POIN2	PokemonB2W2VsGhetsisRSflame_001
	POIN2	PokemonB2W2VsGhetsisRSflame_002
	POIN2	PokemonB2W2VsGhetsisRSflame_003
	POIN2	PokemonB2W2VsGhetsisRSflame_004
	POIN2	PokemonB2W2VsGhetsisRSflame_005
	POIN2	PokemonB2W2VsGhetsisRSflame_006
	POIN2	PokemonB2W2VsGhetsisRSflame_007
	POIN2	PokemonB2W2VsGhetsisRSflame_008
	POIN2	PokemonB2W2VsGhetsisRSflame_009
	POIN2	PokemonB2W2VsGhetsisRSflame_010

	
