//Event file generated from Sappy .s format.
	#include "MPlayDef.event"

	#define	PokemonMDExplorersQuicksandPitRandomWizard_grp  voicegroup000
	#define	PokemonMDExplorersQuicksandPitRandomWizard_pri  0
	#define	PokemonMDExplorersQuicksandPitRandomWizard_rev  0
	#define	PokemonMDExplorersQuicksandPitRandomWizard_mvl  127
	#define	PokemonMDExplorersQuicksandPitRandomWizard_key  0
	#define	PokemonMDExplorersQuicksandPitRandomWizard_tbs  1
	#define	PokemonMDExplorersQuicksandPitRandomWizard_exg  0
	#define	PokemonMDExplorersQuicksandPitRandomWizard_cmp  1

	// .rodata
	//	PokemonMDExplorersQuicksandPitRandomWizard
	ALIGN 4


//**************** Track 1 (Midi-Chn.0) ****************//

PokemonMDExplorersQuicksandPitRandomWizard_001:
// 000   ----------------------------------------
 BYTE   KEYSH   PokemonMDExplorersQuicksandPitRandomWizard_key+0
Label_0_015A8FA2:
 BYTE   TEMPO   102*PokemonMDExplorersQuicksandPitRandomWizard_tbs/2
 BYTE   VOICE   39
 BYTE   PAN   c_v+0
 BYTE   VOL   24*PokemonMDExplorersQuicksandPitRandomWizard_mvl/mxv
 BYTE   N12  En1  v127
 BYTE   W18
 BYTE   N06
 BYTE   W06
 BYTE   W24
 BYTE   W06
 BYTE   N06
 BYTE   W18
 BYTE   N24  Dn1
 BYTE   W24
// 001   ----------------------------------------
Label_0_015A8FB7:
 BYTE   N12  En1  v127
 BYTE   W18
 BYTE   N06
 BYTE   W06
 BYTE   PEND 
 BYTE   W24
 BYTE   W06
 BYTE   N06
 BYTE   W18
 BYTE   N24  Dn1
 BYTE   W24
 BYTE   PATT
  POIN2 Label_0_015A8FB7
// 002   ----------------------------------------
 BYTE   W24
 BYTE   W06
 BYTE   N06  En1  v127
 BYTE   W18
 BYTE   N24  Dn1
 BYTE   W24
 BYTE   PATT
  POIN2 Label_0_015A8FB7
// 003   ----------------------------------------
 BYTE   W24
 BYTE   W06
 BYTE   N06  En1  v127
 BYTE   W18
 BYTE   N24  Dn1
 BYTE   W24
 BYTE   PATT
  POIN2 Label_0_015A8FB7
// 004   ----------------------------------------
 BYTE   W24
 BYTE   W06
 BYTE   N06  En1  v127
 BYTE   W18
 BYTE   N24  Dn1
 BYTE   W24
 BYTE   PATT
  POIN2 Label_0_015A8FB7
// 005   ----------------------------------------
 BYTE   W24
 BYTE   W06
 BYTE   N06  En1  v127
 BYTE   W18
 BYTE   N24  Dn1
 BYTE   W24
 BYTE   PATT
  POIN2 Label_0_015A8FB7
// 006   ----------------------------------------
 BYTE   W24
 BYTE   W06
 BYTE   N06  En1  v127
 BYTE   W18
 BYTE   N24  Dn1
 BYTE   W24
 BYTE   PATT
  POIN2 Label_0_015A8FB7
// 007   ----------------------------------------
 BYTE   W24
 BYTE   W06
 BYTE   N06  En1  v127
 BYTE   W06
 BYTE   Fn1
 BYTE   W06
 BYTE   Cn2
 BYTE   W06
 BYTE   W06
 BYTE   Bn1
 BYTE   W12
 BYTE   Fn1
 BYTE   W06
Label_0_015A901F:
 BYTE   N03  En1  v127
 BYTE   W06
 BYTE   N03
 BYTE   W12
 BYTE   N03
 BYTE   W06
 BYTE   PEND 
// 008   ----------------------------------------
Label_0_015A9028:
 BYTE   N03  En1  v127
 BYTE   W06
 BYTE   N06  Bn0  v100
 BYTE   W06
 BYTE   N03  Dn1  v127
 BYTE   W06
 BYTE   En1
 BYTE   W06
 BYTE   PEND 
Label_0_015A9037:
 BYTE   W06
 BYTE   N03  En1  v127
 BYTE   W06
 BYTE   N03
 BYTE   W06
 BYTE   N06  Bn0  v100
 BYTE   W06
 BYTE   PEND 
Label_0_015A9043:
 BYTE   N03  Dn1  v127
 BYTE   W06
 BYTE   N12  Cn1
 BYTE   W12
 BYTE   N03  Bn0
 BYTE   W06
 BYTE   PEND 
 BYTE   PATT
  POIN2 Label_0_015A901F
 BYTE   PATT
  POIN2 Label_0_015A9028
 BYTE   PATT
  POIN2 Label_0_015A9037
// 009   ----------------------------------------
Label_0_015A905D:
 BYTE   N03  Dn1  v127
 BYTE   W06
 BYTE   N12  En1
 BYTE   W12
 BYTE   N03  Bn0
 BYTE   W06
 BYTE   PEND 
Label_0_015A9068:
 BYTE   N03  Fn1  v127
 BYTE   W06
 BYTE   N03
 BYTE   W12
 BYTE   N03
 BYTE   W06
 BYTE   PEND 
Label_0_015A9071:
 BYTE   N03  Fn1  v127
 BYTE   W06
 BYTE   N06  Cn1  v100
 BYTE   W06
 BYTE   N03  En1  v127
 BYTE   W06
 BYTE   Fn1
 BYTE   W06
 BYTE   PEND 
Label_0_015A9080:
 BYTE   W06
 BYTE   N03  Fn1  v127
 BYTE   W06
 BYTE   N03
 BYTE   W06
 BYTE   N06  Cn1  v100
 BYTE   W06
 BYTE   PEND 
// 010   ----------------------------------------
Label_0_015A908C:
 BYTE   N03  Fn1  v127
 BYTE   W06
 BYTE   N12  En1
 BYTE   W12
 BYTE   N03  Cn1
 BYTE   W06
 BYTE   PEND 
 BYTE   PATT
  POIN2 Label_0_015A9068
 BYTE   PATT
  POIN2 Label_0_015A9071
 BYTE   PATT
  POIN2 Label_0_015A9080
// 011   ----------------------------------------
Label_0_015A90A6:
 BYTE   N03  En1  v127
 BYTE   W06
 BYTE   N12  Fn1
 BYTE   W12
 BYTE   N03  Cn1
 BYTE   W06
 BYTE   PEND 
 BYTE   PATT
  POIN2 Label_0_015A901F
 BYTE   PATT
  POIN2 Label_0_015A9028
 BYTE   PATT
  POIN2 Label_0_015A9037
 BYTE   PATT
  POIN2 Label_0_015A9043
 BYTE   PATT
  POIN2 Label_0_015A901F
 BYTE   PATT
  POIN2 Label_0_015A9028
 BYTE   PATT
  POIN2 Label_0_015A9037
 BYTE   PATT
  POIN2 Label_0_015A905D
 BYTE   PATT
  POIN2 Label_0_015A9068
 BYTE   PATT
  POIN2 Label_0_015A9071
 BYTE   PATT
  POIN2 Label_0_015A9080
 BYTE   PATT
  POIN2 Label_0_015A908C
 BYTE   PATT
  POIN2 Label_0_015A9068
 BYTE   PATT
  POIN2 Label_0_015A9071
 BYTE   PATT
  POIN2 Label_0_015A9080
 BYTE   PATT
  POIN2 Label_0_015A90A6
// 012   ----------------------------------------
Label_0_015A9101:
 BYTE   N03  Dn1  v127
 BYTE   W06
 BYTE   N03
 BYTE   W12
 BYTE   N03
 BYTE   W06
 BYTE   PEND 
Label_0_015A910A:
 BYTE   N03  Dn1  v127
 BYTE   W06
 BYTE   N06  An1  v100
 BYTE   W06
 BYTE   N03  Cn1  v127
 BYTE   W06
 BYTE   Dn1
 BYTE   W06
 BYTE   PEND 
Label_0_015A9119:
 BYTE   W06
 BYTE   N03  Dn1  v127
 BYTE   W06
 BYTE   N03
 BYTE   W06
 BYTE   N06  An1  v100
 BYTE   W06
 BYTE   PEND 
Label_0_015A9125:
 BYTE   N03  Dn1  v127
 BYTE   W06
 BYTE   N12  Cn1
 BYTE   W12
 BYTE   N03  An1
 BYTE   W06
 BYTE   PEND 
 BYTE   PATT
  POIN2 Label_0_015A9101
 BYTE   PATT
  POIN2 Label_0_015A910A
 BYTE   PATT
  POIN2 Label_0_015A9119
// 013   ----------------------------------------
Label_0_015A913F:
 BYTE   N03  Cn1  v127
 BYTE   W06
 BYTE   N12  Dn1
 BYTE   W12
 BYTE   N03  An1
 BYTE   W06
 BYTE   PEND 
 BYTE   PATT
  POIN2 Label_0_015A9101
 BYTE   PATT
  POIN2 Label_0_015A910A
 BYTE   PATT
  POIN2 Label_0_015A9119
 BYTE   PATT
  POIN2 Label_0_015A9125
 BYTE   PATT
  POIN2 Label_0_015A9101
 BYTE   PATT
  POIN2 Label_0_015A910A
 BYTE   PATT
  POIN2 Label_0_015A9119
 BYTE   PATT
  POIN2 Label_0_015A913F
// 014   ----------------------------------------
Label_0_015A9172:
 BYTE   N03  Cn1  v127
 BYTE   W06
 BYTE   N03
 BYTE   W12
 BYTE   N03
 BYTE   W06
 BYTE   PEND 
Label_0_015A917B:
 BYTE   N03  Cn1  v127
 BYTE   W06
 BYTE   N06  Gn1  v100
 BYTE   W06
 BYTE   N03  As0  v127
 BYTE   W06
 BYTE   Cn1
 BYTE   W06
 BYTE   PEND 
Label_0_015A918A:
 BYTE   W06
 BYTE   N03  Cn1  v127
 BYTE   W06
 BYTE   N03
 BYTE   W06
 BYTE   N06  Gn1  v100
 BYTE   W06
 BYTE   PEND 
Label_0_015A9196:
 BYTE   N03  Cn1  v127
 BYTE   W06
 BYTE   N12  As0
 BYTE   W12
 BYTE   N03  Gn1
 BYTE   W06
 BYTE   PEND 
 BYTE   PATT
  POIN2 Label_0_015A9172
 BYTE   PATT
  POIN2 Label_0_015A917B
 BYTE   PATT
  POIN2 Label_0_015A918A
// 015   ----------------------------------------
Label_0_015A91B0:
 BYTE   N03  As0  v127
 BYTE   W06
 BYTE   N12  Cn1
 BYTE   W12
 BYTE   N03  Gn1
 BYTE   W06
 BYTE   PEND 
 BYTE   PATT
  POIN2 Label_0_015A9172
 BYTE   PATT
  POIN2 Label_0_015A917B
 BYTE   PATT
  POIN2 Label_0_015A918A
 BYTE   PATT
  POIN2 Label_0_015A9196
 BYTE   PATT
  POIN2 Label_0_015A9172
 BYTE   PATT
  POIN2 Label_0_015A917B
 BYTE   PATT
  POIN2 Label_0_015A918A
 BYTE   PATT
  POIN2 Label_0_015A91B0
// 016   ----------------------------------------
 BYTE   N96  Bn0  v104
 BYTE   W24
 BYTE   W24
 BYTE   W24
 BYTE   W24
// 017   ----------------------------------------
 BYTE   Bn1
 BYTE   W24
 BYTE   W24
 BYTE   W24
 BYTE   W24
// 018   ----------------------------------------
 BYTE   GoTo
  POIN2 Label_0_015A8FA2
// 019   ----------------------------------------
 BYTE   BEND   c_v+0
 BYTE   FINE

//**************** Track 2 (Midi-Chn.1) ****************//

PokemonMDExplorersQuicksandPitRandomWizard_002:
// 000   ----------------------------------------
 BYTE   KEYSH   PokemonMDExplorersQuicksandPitRandomWizard_key+0
Label_1_015A91FA:
 BYTE   VOICE   40
 BYTE   PAN   c_v-34
 BYTE   VOL   19*PokemonMDExplorersQuicksandPitRandomWizard_mvl/mxv
 BYTE   TIE  Gs3  v127
 BYTE   W24
 BYTE   W24
 BYTE   W24
 BYTE   W24
// 001   ----------------------------------------
 BYTE   W24
 BYTE   W24
 BYTE   W24
 BYTE   W24
// 002   ----------------------------------------
 BYTE   EOT
 BYTE   TIE  An3
 BYTE   W24
 BYTE   W24
 BYTE   W24
 BYTE   W24
// 003   ----------------------------------------
 BYTE   W24
 BYTE   W24
 BYTE   W24
 BYTE   W24
// 004   ----------------------------------------
 BYTE   EOT
 BYTE   TIE  Gs3
 BYTE   W24
 BYTE   W24
 BYTE   W24
 BYTE   W24
// 005   ----------------------------------------
 BYTE   W24
 BYTE   W24
 BYTE   W24
 BYTE   W24
// 006   ----------------------------------------
 BYTE   EOT
 BYTE   TIE  An3
 BYTE   W24
 BYTE   W24
 BYTE   W24
 BYTE   W24
// 007   ----------------------------------------
 BYTE   W24
 BYTE   W24
 BYTE   W24
 BYTE   W18
 BYTE   EOT
 BYTE   W06
// 008   ----------------------------------------
 BYTE   N04  Gs3
 BYTE   W06
 BYTE   Gs3  v060
 BYTE   W06
 BYTE   Gs3  v040
 BYTE   W06
 BYTE   Gs3  v127
 BYTE   W06
 BYTE   Gs3  v040
 BYTE   W06
 BYTE   An3  v127
 BYTE   W06
 BYTE   Gs3  v040
 BYTE   W06
 BYTE   Gs3  v127
 BYTE   W06
 BYTE   Gs3  v040
 BYTE   W06
 BYTE   Gs2  v127
 BYTE   W06
 BYTE   N04
 BYTE   W06
 BYTE   Gs2  v052
 BYTE   W06
Label_1_015A9251:
 BYTE   N04  Gs2  v127
 BYTE   W06
 BYTE   An2
 BYTE   W06
 BYTE   Bn2
 BYTE   W06
 BYTE   Bn2  v052
 BYTE   W06
 BYTE   PEND 
// 009   ----------------------------------------
Label_1_015A925D:
 BYTE   N04  Fn3  v127
 BYTE   W06
 BYTE   Fn3  v060
 BYTE   W06
 BYTE   Fn3  v052
 BYTE   W06
 BYTE   Gn3  v127
 BYTE   W06
 BYTE   PEND 
 BYTE   Fn3  v052
 BYTE   W06
 BYTE   Fn3  v127
 BYTE   W06
 BYTE   Fn3  v052
 BYTE   W06
 BYTE   En3  v127
 BYTE   W06
Label_1_015A9277:
 BYTE   N04  En3  v052
 BYTE   W06
 BYTE   Gs2  v127
 BYTE   W06
 BYTE   An2
 BYTE   W06
 BYTE   Bn2
 BYTE   W06
 BYTE   PEND 
 BYTE   PATT
  POIN2 Label_1_015A9251
// 010   ----------------------------------------
Label_1_015A9288:
 BYTE   N04  An3  v127
 BYTE   W06
 BYTE   An3  v060
 BYTE   W06
 BYTE   An3  v052
 BYTE   W06
 BYTE   An3  v127
 BYTE   W06
 BYTE   PEND 
 BYTE   An3  v052
 BYTE   W06
 BYTE   Bn3  v127
 BYTE   W06
 BYTE   An3  v052
 BYTE   W06
 BYTE   An3  v127
 BYTE   W06
Label_1_015A92A2:
 BYTE   N04  An3  v052
 BYTE   W06
 BYTE   An2  v127
 BYTE   W06
 BYTE   N04
 BYTE   W06
 BYTE   An2  v052
 BYTE   W06
 BYTE   PEND 
Label_1_015A92AF:
 BYTE   N04  An2  v127
 BYTE   W06
 BYTE   Bn2
 BYTE   W06
 BYTE   Cn3
 BYTE   W06
 BYTE   Cn3  v052
 BYTE   W06
 BYTE   PEND 
// 011   ----------------------------------------
Label_1_015A92BB:
 BYTE   N04  Fn3  v127
 BYTE   W06
 BYTE   Fn3  v060
 BYTE   W06
 BYTE   Fn3  v052
 BYTE   W06
 BYTE   Fn3  v127
 BYTE   W06
 BYTE   PEND 
Label_1_015A92C9:
 BYTE   N04  Fn3  v052
 BYTE   W06
 BYTE   Gn3  v127
 BYTE   W06
 BYTE   Gn3  v052
 BYTE   W06
 BYTE   Fn3  v127
 BYTE   W06
 BYTE   PEND 
Label_1_015A92D7:
 BYTE   N04  Fn3  v052
 BYTE   W06
 BYTE   An2  v127
 BYTE   W06
 BYTE   Bn2
 BYTE   W06
 BYTE   Cn3
 BYTE   W06
 BYTE   PEND 
Label_1_015A92E3:
 BYTE   N04  Cn3  v127
 BYTE   W06
 BYTE   Bn2
 BYTE   W06
 BYTE   An2
 BYTE   W06
 BYTE   An2  v052
 BYTE   W06
 BYTE   PEND 
// 012   ----------------------------------------
 BYTE   Gs3  v127
 BYTE   W06
 BYTE   Gs3  v060
 BYTE   W06
 BYTE   Gs3  v052
 BYTE   W06
 BYTE   Gs3  v127
 BYTE   W06
 BYTE   Gs3  v052
 BYTE   W06
 BYTE   An3  v127
 BYTE   W06
 BYTE   An3  v052
 BYTE   W06
 BYTE   Gs3  v127
 BYTE   W06
 BYTE   Gs3  v052
 BYTE   W06
 BYTE   Gs2  v127
 BYTE   W06
 BYTE   N04
 BYTE   W06
 BYTE   Gs2  v052
 BYTE   W06
 BYTE   PATT
  POIN2 Label_1_015A9251
 BYTE   PATT
  POIN2 Label_1_015A925D
// 013   ----------------------------------------
 BYTE   N04  Gn3  v052
 BYTE   W06
 BYTE   Fn3  v127
 BYTE   W06
 BYTE   Fn3  v052
 BYTE   W06
 BYTE   En3  v127
 BYTE   W06
 BYTE   PATT
  POIN2 Label_1_015A9277
 BYTE   PATT
  POIN2 Label_1_015A9251
 BYTE   PATT
  POIN2 Label_1_015A9288
// 014   ----------------------------------------
 BYTE   N04  An3  v052
 BYTE   W06
 BYTE   Bn3  v127
 BYTE   W06
 BYTE   Bn3  v052
 BYTE   W06
 BYTE   An3  v127
 BYTE   W06
 BYTE   PATT
  POIN2 Label_1_015A92A2
 BYTE   PATT
  POIN2 Label_1_015A92AF
 BYTE   PATT
  POIN2 Label_1_015A92BB
 BYTE   PATT
  POIN2 Label_1_015A92C9
 BYTE   PATT
  POIN2 Label_1_015A92D7
 BYTE   PATT
  POIN2 Label_1_015A92E3
// 015   ----------------------------------------
 BYTE   N48  Dn3  v100
 BYTE   W24
 BYTE   W24
 BYTE   En3
 BYTE   W24
 BYTE   W24
// 016   ----------------------------------------
 BYTE   Fn3
 BYTE   W24
 BYTE   W24
 BYTE   Gn3
 BYTE   W24
 BYTE   W24
// 017   ----------------------------------------
 BYTE   An3
 BYTE   W24
 BYTE   W24
 BYTE   En3
 BYTE   W24
 BYTE   W24
// 018   ----------------------------------------
 BYTE   N18  Fn3
 BYTE   W18
 BYTE   Dn3
 BYTE   W06
 BYTE   W12
 BYTE   An3
 BYTE   W12
 BYTE   W06
 BYTE   Dn4
 BYTE   W18
 BYTE   N12  Fn4
 BYTE   W12
 BYTE   An4
 BYTE   W12
// 019   ----------------------------------------
 BYTE   N96  Cn5  v080
 BYTE   W24
 BYTE   W24
 BYTE   W24
 BYTE   W24
// 020   ----------------------------------------
 BYTE   As4
 BYTE   W24
 BYTE   W24
 BYTE   W24
 BYTE   W24
// 021   ----------------------------------------
 BYTE   An4
 BYTE   W24
 BYTE   W24
 BYTE   W24
 BYTE   W24
// 022   ----------------------------------------
 BYTE   N18  As4
 BYTE   W18
 BYTE   Fs4
 BYTE   W06
 BYTE   W12
 BYTE   Cs4
 BYTE   W12
 BYTE   W06
 BYTE   Cn4
 BYTE   W18
 BYTE   N24  As3
 BYTE   W24
// 023   ----------------------------------------
 BYTE   TIE  Bn3  v127
 BYTE   W24
 BYTE   W24
 BYTE   W24
 BYTE   W24
// 024   ----------------------------------------
 BYTE   W24
 BYTE   W24
 BYTE   W24
 BYTE   W24
// 025   ----------------------------------------
 BYTE   EOT
 BYTE   GoTo
  POIN2 Label_1_015A91FA
// 026   ----------------------------------------
 BYTE   BEND   c_v+0
 BYTE   FINE

//**************** Track 3 (Midi-Chn.2) ****************//

PokemonMDExplorersQuicksandPitRandomWizard_003:
// 000   ----------------------------------------
 BYTE   KEYSH   PokemonMDExplorersQuicksandPitRandomWizard_key+0
Label_2_015A93BE:
 BYTE   VOICE   40
 BYTE   PAN   c_v-14
 BYTE   VOL   19*PokemonMDExplorersQuicksandPitRandomWizard_mvl/mxv
 BYTE   TIE  Bn2  v127
 BYTE   W24
 BYTE   W24
 BYTE   W24
 BYTE   W24
// 001   ----------------------------------------
 BYTE   W24
 BYTE   W24
 BYTE   W24
 BYTE   W24
// 002   ----------------------------------------
 BYTE   EOT
 BYTE   TIE  Cn3
 BYTE   W24
 BYTE   W24
 BYTE   W24
 BYTE   W24
// 003   ----------------------------------------
 BYTE   W24
 BYTE   W24
 BYTE   W24
 BYTE   W24
// 004   ----------------------------------------
 BYTE   EOT
 BYTE   TIE  Bn2
 BYTE   W24
 BYTE   W24
 BYTE   W24
 BYTE   W24
// 005   ----------------------------------------
 BYTE   W24
 BYTE   W24
 BYTE   W24
 BYTE   W24
// 006   ----------------------------------------
 BYTE   EOT
 BYTE   TIE  Cn3
 BYTE   W24
 BYTE   W24
 BYTE   W24
 BYTE   W24
// 007   ----------------------------------------
 BYTE   W24
 BYTE   W24
 BYTE   W24
 BYTE   W18
 BYTE   EOT
 BYTE   W06
// 008   ----------------------------------------
 BYTE   N04  En3
 BYTE   W06
 BYTE   En3  v060
 BYTE   W06
 BYTE   En3  v040
 BYTE   W06
 BYTE   En3  v127
 BYTE   W06
 BYTE   En3  v040
 BYTE   W06
 BYTE   Fn3  v127
 BYTE   W06
 BYTE   En3  v040
 BYTE   W06
 BYTE   En3  v127
 BYTE   W06
 BYTE   En3  v040
 BYTE   W06
 BYTE   En2  v127
 BYTE   W06
 BYTE   N04
 BYTE   W06
 BYTE   En2  v052
 BYTE   W06
Label_2_015A9415:
 BYTE   N04  En2  v127
 BYTE   W06
 BYTE   Fn2
 BYTE   W06
 BYTE   Gs2
 BYTE   W06
 BYTE   Gs2  v052
 BYTE   W06
 BYTE   PEND 
// 009   ----------------------------------------
Label_2_015A9421:
 BYTE   N04  En3  v127
 BYTE   W06
 BYTE   En3  v060
 BYTE   W06
 BYTE   En3  v052
 BYTE   W06
 BYTE   En3  v127
 BYTE   W06
 BYTE   PEND 
 BYTE   En3  v052
 BYTE   W06
 BYTE   Dn3  v127
 BYTE   W06
 BYTE   En3  v052
 BYTE   W06
 BYTE   Cn3  v127
 BYTE   W06
Label_2_015A943B:
 BYTE   N04  Cn3  v052
 BYTE   W06
 BYTE   En2  v127
 BYTE   W06
 BYTE   Fs2
 BYTE   W06
 BYTE   Gs2
 BYTE   W06
 BYTE   PEND 
 BYTE   PATT
  POIN2 Label_2_015A9415
// 010   ----------------------------------------
Label_2_015A944C:
 BYTE   N04  Fn3  v127
 BYTE   W06
 BYTE   Fn3  v060
 BYTE   W06
 BYTE   Fn3  v052
 BYTE   W06
 BYTE   Fn3  v127
 BYTE   W06
 BYTE   PEND 
 BYTE   Fn3  v052
 BYTE   W06
 BYTE   En3  v127
 BYTE   W06
 BYTE   Fn3  v052
 BYTE   W06
 BYTE   Fn3  v127
 BYTE   W06
Label_2_015A9466:
 BYTE   N04  Fn3  v052
 BYTE   W06
 BYTE   Fn2  v127
 BYTE   W06
 BYTE   N04
 BYTE   W06
 BYTE   Fn2  v052
 BYTE   W06
 BYTE   PEND 
Label_2_015A9473:
 BYTE   N04  Fn2  v127
 BYTE   W06
 BYTE   Gs2
 BYTE   W06
 BYTE   An2
 BYTE   W06
 BYTE   An2  v052
 BYTE   W06
 BYTE   PEND 
 BYTE   PATT
  POIN2 Label_2_015A9421
// 011   ----------------------------------------
 BYTE   N04  En3  v052
 BYTE   W06
 BYTE   Cn3  v127
 BYTE   N04  En3
 BYTE   W06
 BYTE   Cn3  v052
 BYTE   N04  En3
 BYTE   W06
 BYTE   Cn3  v127
 BYTE   N04  En3
 BYTE   W06
 BYTE   Cn3  v052
 BYTE   N04  En3
 BYTE   W06
 BYTE   Fn2  v127
 BYTE   W06
 BYTE   Gs2
 BYTE   W06
 BYTE   An2
 BYTE   W06
Label_2_015A94A3:
 BYTE   N04  An2  v127
 BYTE   W06
 BYTE   Gs2
 BYTE   W06
 BYTE   Fn2
 BYTE   W06
 BYTE   Fn2  v052
 BYTE   W06
 BYTE   PEND 
 BYTE   PATT
  POIN2 Label_2_015A9421
// 012   ----------------------------------------
 BYTE   N04  En3  v052
 BYTE   W06
 BYTE   Fn3  v127
 BYTE   W06
 BYTE   Fn3  v052
 BYTE   W06
 BYTE   En3  v127
 BYTE   W06
 BYTE   En3  v052
 BYTE   W06
 BYTE   En2  v127
 BYTE   W06
 BYTE   N04
 BYTE   W06
 BYTE   En2  v052
 BYTE   W06
 BYTE   PATT
  POIN2 Label_2_015A9415
 BYTE   PATT
  POIN2 Label_2_015A9421
// 013   ----------------------------------------
 BYTE   N04  En3  v052
 BYTE   W06
 BYTE   Dn3  v127
 BYTE   W06
 BYTE   Dn3  v052
 BYTE   W06
 BYTE   Cn3  v127
 BYTE   W06
 BYTE   PATT
  POIN2 Label_2_015A943B
 BYTE   PATT
  POIN2 Label_2_015A9415
 BYTE   PATT
  POIN2 Label_2_015A944C
// 014   ----------------------------------------
 BYTE   N04  Fn3  v052
 BYTE   W06
 BYTE   En3  v127
 BYTE   W06
 BYTE   En3  v052
 BYTE   W06
 BYTE   Fn3  v127
 BYTE   W06
 BYTE   PATT
  POIN2 Label_2_015A9466
 BYTE   PATT
  POIN2 Label_2_015A9473
 BYTE   PATT
  POIN2 Label_2_015A9421
// 015   ----------------------------------------
 BYTE   N04  En3  v052
 BYTE   W06
 BYTE   En3  v127
 BYTE   W06
 BYTE   En3  v052
 BYTE   W06
 BYTE   En3  v127
 BYTE   W06
 BYTE   En3  v052
 BYTE   W06
 BYTE   Fn2  v127
 BYTE   W06
 BYTE   Gs2
 BYTE   W06
 BYTE   An2
 BYTE   W06
 BYTE   PATT
  POIN2 Label_2_015A94A3
// 016   ----------------------------------------
 BYTE   N48  Fn2  v100
 BYTE   W24
 BYTE   W24
 BYTE   Gn2
 BYTE   W24
 BYTE   W24
// 017   ----------------------------------------
 BYTE   An2
 BYTE   W24
 BYTE   W24
 BYTE   As2
 BYTE   W24
 BYTE   W24
// 018   ----------------------------------------
 BYTE   Cn3
 BYTE   W24
 BYTE   W24
 BYTE   N48
 BYTE   W24
 BYTE   W24
// 019   ----------------------------------------
 BYTE   N18  An2
 BYTE   W18
 BYTE   Fn2
 BYTE   W06
 BYTE   W12
 BYTE   Cn3
 BYTE   W12
 BYTE   W06
 BYTE   Fn3
 BYTE   W18
 BYTE   N12  An3
 BYTE   W12
 BYTE   Dn4
 BYTE   W12
// 020   ----------------------------------------
 BYTE   N96  En4  v080
 BYTE   W24
 BYTE   W24
 BYTE   W24
 BYTE   W24
// 021   ----------------------------------------
 BYTE   Dn4
 BYTE   W24
 BYTE   W24
 BYTE   W24
 BYTE   W24
// 022   ----------------------------------------
 BYTE   Cn4
 BYTE   W24
 BYTE   W24
 BYTE   W24
 BYTE   W24
// 023   ----------------------------------------
 BYTE   N18  Cs4
 BYTE   W18
 BYTE   As3
 BYTE   W06
 BYTE   W12
 BYTE   Fs3
 BYTE   W12
 BYTE   W06
 BYTE   N18
 BYTE   W18
 BYTE   N06  Cs3
 BYTE   W06
 BYTE   Ds3
 BYTE   W06
 BYTE   Fn3
 BYTE   W06
 BYTE   Fs3
 BYTE   W06
// 024   ----------------------------------------
 BYTE   TIE  Ds3  v127
 BYTE   W24
 BYTE   W24
 BYTE   W24
 BYTE   W24
// 025   ----------------------------------------
 BYTE   W24
 BYTE   W24
 BYTE   W24
 BYTE   W24
// 026   ----------------------------------------
 BYTE   EOT
 BYTE   GoTo
  POIN2 Label_2_015A93BE
// 027   ----------------------------------------
 BYTE   BEND   c_v+0
 BYTE   FINE

//**************** Track 4 (Midi-Chn.3) ****************//

PokemonMDExplorersQuicksandPitRandomWizard_004:
// 000   ----------------------------------------
 BYTE   KEYSH   PokemonMDExplorersQuicksandPitRandomWizard_key+0
Label_3_015A958A:
 BYTE   VOICE   40
 BYTE   PAN   c_v+16
 BYTE   VOL   19*PokemonMDExplorersQuicksandPitRandomWizard_mvl/mxv
 BYTE   TIE  En2  v127
 BYTE   W24
 BYTE   W24
 BYTE   W24
 BYTE   W24
// 001   ----------------------------------------
 BYTE   W24
 BYTE   W24
 BYTE   W24
 BYTE   W24
// 002   ----------------------------------------
 BYTE   EOT
 BYTE   TIE  Fn2
 BYTE   W24
 BYTE   W24
 BYTE   W24
 BYTE   W24
// 003   ----------------------------------------
 BYTE   W24
 BYTE   W24
 BYTE   W24
 BYTE   W24
// 004   ----------------------------------------
 BYTE   EOT
 BYTE   TIE  En2
 BYTE   W24
 BYTE   W24
 BYTE   W24
 BYTE   W24
// 005   ----------------------------------------
 BYTE   W24
 BYTE   W24
 BYTE   W24
 BYTE   W24
// 006   ----------------------------------------
 BYTE   EOT
 BYTE   TIE  Fn2
 BYTE   W24
 BYTE   W24
 BYTE   W24
 BYTE   W24
// 007   ----------------------------------------
 BYTE   W24
 BYTE   W24
 BYTE   W24
 BYTE   W18
 BYTE   EOT
 BYTE   W06
// 008   ----------------------------------------
 BYTE   N04  Bn2
 BYTE   W06
 BYTE   Bn2  v060
 BYTE   W06
 BYTE   Bn2  v040
 BYTE   W06
 BYTE   Bn2  v127
 BYTE   W06
 BYTE   Bn2  v040
 BYTE   W06
 BYTE   Bn2  v127
 BYTE   W06
 BYTE   Bn2  v040
 BYTE   W06
 BYTE   Bn2  v127
 BYTE   W06
 BYTE   Bn2  v040
 BYTE   W24
 BYTE   W24
// 009   ----------------------------------------
Label_3_015A95DA:
 BYTE   N04  Bn2  v127
 BYTE   W06
 BYTE   Bn2  v060
 BYTE   W06
 BYTE   Bn2  v052
 BYTE   W06
 BYTE   Bn2  v127
 BYTE   W06
 BYTE   PEND 
Label_3_015A95E8:
 BYTE   N04  Bn2  v052
 BYTE   W06
 BYTE   Bn2  v127
 BYTE   W06
 BYTE   Bn2  v052
 BYTE   W06
 BYTE   Bn2  v127
 BYTE   W06
 BYTE   PEND 
 BYTE   Bn2  v052
 BYTE   W24
 BYTE   W24
// 010   ----------------------------------------
Label_3_015A95FA:
 BYTE   N04  Cn3  v127
 BYTE   W06
 BYTE   Cn3  v060
 BYTE   W06
 BYTE   Cn3  v052
 BYTE   W06
 BYTE   Cn3  v127
 BYTE   W06
 BYTE   PEND 
Label_3_015A9608:
 BYTE   N04  Cn3  v052
 BYTE   W06
 BYTE   Cn3  v127
 BYTE   W06
 BYTE   Cn3  v052
 BYTE   W06
 BYTE   Cn3  v127
 BYTE   W06
 BYTE   PEND 
 BYTE   Cn3  v052
 BYTE   W24
 BYTE   W24
 BYTE   PATT
  POIN2 Label_3_015A95DA
// 011   ----------------------------------------
Label_3_015A961F:
 BYTE   N04  Bn2  v052
 BYTE   W06
 BYTE   Cn3  v127
 BYTE   W06
 BYTE   Cn3  v052
 BYTE   W06
 BYTE   Cn3  v127
 BYTE   W06
 BYTE   PEND 
 BYTE   Cn3  v052
 BYTE   W24
 BYTE   W24
 BYTE   PATT
  POIN2 Label_3_015A95DA
 BYTE   PATT
  POIN2 Label_3_015A95E8
// 012   ----------------------------------------
 BYTE   N04  Bn2  v052
 BYTE   W24
 BYTE   W24
 BYTE   PATT
  POIN2 Label_3_015A95DA
 BYTE   PATT
  POIN2 Label_3_015A95E8
// 013   ----------------------------------------
 BYTE   N04  Bn2  v052
 BYTE   W24
 BYTE   W24
 BYTE   PATT
  POIN2 Label_3_015A95FA
 BYTE   PATT
  POIN2 Label_3_015A9608
// 014   ----------------------------------------
 BYTE   N04  Cn3  v052
 BYTE   W24
 BYTE   W24
 BYTE   PATT
  POIN2 Label_3_015A95DA
 BYTE   PATT
  POIN2 Label_3_015A961F
// 015   ----------------------------------------
 BYTE   N04  Cn3  v052
 BYTE   W24
 BYTE   W24
 BYTE   W24
 BYTE   W24
// 016   ----------------------------------------
 BYTE   W24
 BYTE   W24
 BYTE   W24
 BYTE   W24
// 017   ----------------------------------------
 BYTE   W24
 BYTE   W24
 BYTE   W24
 BYTE   W24
// 018   ----------------------------------------
 BYTE   W24
 BYTE   W24
 BYTE   W24
 BYTE   W24
// 019   ----------------------------------------
 BYTE   W24
 BYTE   W24
 BYTE   W24
 BYTE   W24
// 020   ----------------------------------------
 BYTE   W24
 BYTE   W24
 BYTE   W24
 BYTE   W24
// 021   ----------------------------------------
 BYTE   W24
 BYTE   W24
 BYTE   W24
 BYTE   W24
// 022   ----------------------------------------
 BYTE   W24
 BYTE   W24
 BYTE   W24
 BYTE   W24
// 023   ----------------------------------------
 BYTE   W24
 BYTE   W24
 BYTE   TIE  Fs2  v127
 BYTE   W24
 BYTE   W24
// 024   ----------------------------------------
 BYTE   W24
 BYTE   W24
 BYTE   W24
 BYTE   W24
// 025   ----------------------------------------
 BYTE   W24
 BYTE   W24
 BYTE   EOT
 BYTE   GoTo
  POIN2 Label_3_015A958A
// 026   ----------------------------------------
 BYTE   BEND   c_v+0
 BYTE   FINE

//**************** Track 5 (Midi-Chn.4) ****************//

PokemonMDExplorersQuicksandPitRandomWizard_005:
// 000   ----------------------------------------
 BYTE   KEYSH   PokemonMDExplorersQuicksandPitRandomWizard_key+0
Label_4_015A96A6:
 BYTE   VOICE   73
 BYTE   PAN   c_v+0
 BYTE   VOL   27*PokemonMDExplorersQuicksandPitRandomWizard_mvl/mxv
 BYTE   W24
 BYTE   W24
 BYTE   W24
 BYTE   W24
// 001   ----------------------------------------
 BYTE   W24
 BYTE   W24
 BYTE   W24
 BYTE   W24
// 002   ----------------------------------------
 BYTE   W24
 BYTE   W24
 BYTE   W24
 BYTE   W24
// 003   ----------------------------------------
 BYTE   W24
 BYTE   W24
 BYTE   W24
 BYTE   W24
// 004   ----------------------------------------
 BYTE   W24
 BYTE   W24
 BYTE   W24
 BYTE   W24
// 005   ----------------------------------------
 BYTE   W24
 BYTE   W24
 BYTE   W24
 BYTE   W24
// 006   ----------------------------------------
 BYTE   W24
 BYTE   W24
 BYTE   W24
 BYTE   W24
// 007   ----------------------------------------
 BYTE   W24
 BYTE   W24
 BYTE   W24
 BYTE   W24
// 008   ----------------------------------------
 BYTE   N01  An4  v080
 BYTE   W01
 BYTE   N44  Bn4  v127
 BYTE   W23
 BYTE   W23
 BYTE   N12  An4  v084
 BYTE   W01
 BYTE   W01
 BYTE   N13  Bn4  v127
 BYTE   W17
 BYTE   N17
 BYTE   W06
 BYTE   W11
 BYTE   N11  Cn5
 BYTE   W12
 BYTE   N12  An4  v084
 BYTE   W01
// 009   ----------------------------------------
 BYTE   W01
 BYTE   N44  Bn4  v127
 BYTE   W23
 BYTE   W24
 BYTE   W01
 BYTE   N15
 BYTE   W17
 BYTE   N18  En4
 BYTE   W06
 BYTE   W12
 BYTE   N10  Bn4  v124
 BYTE   W12
// 010   ----------------------------------------
 BYTE   N04  An4  v127
 BYTE   W04
 BYTE   Bn4
 BYTE   W04
 BYTE   An4
 BYTE   W04
 BYTE   N05  Gs4  v124
 BYTE   W06
 BYTE   En4  v120
 BYTE   W06
 BYTE   Gs4  v124
 BYTE   W06
 BYTE   N06  En4
 BYTE   W06
 BYTE   N12  Dn4
 BYTE   W12
 BYTE   En4
 BYTE   W12
 BYTE   N03  Dn4  v100
 BYTE   W04
 BYTE   Cs4  v092
 BYTE   W04
 BYTE   Cn4  v088
 BYTE   W04
 BYTE   TIE  Bn3  v120
 BYTE   W24
// 011   ----------------------------------------
 BYTE   W24
 BYTE   W24
 BYTE   W24
 BYTE   W06
 BYTE   EOT
 BYTE   W18
// 012   ----------------------------------------
 BYTE   N01  An4  v064
 BYTE   W01
 BYTE   N44  Bn4  v124
 BYTE   W23
 BYTE   W23
 BYTE   N01  An4  v072
 BYTE   W01
 BYTE   W01
 BYTE   N13  Bn4  v127
 BYTE   W16
 BYTE   N17
 BYTE   W07
 BYTE   W11
 BYTE   N11  Cn5
 BYTE   W12
 BYTE   N01  An4  v068
 BYTE   W01
// 013   ----------------------------------------
 BYTE   W01
 BYTE   N44  Bn4  v127
 BYTE   W23
 BYTE   W24
 BYTE   W01
 BYTE   N18  Bn4  v124
 BYTE   W18
 BYTE   N17  En4
 BYTE   W05
 BYTE   W13
 BYTE   N08  Bn4  v120
 BYTE   W11
// 014   ----------------------------------------
 BYTE   N04  An4  v127
 BYTE   W04
 BYTE   Bn4
 BYTE   W04
 BYTE   An4
 BYTE   W04
 BYTE   N06  Gs4
 BYTE   W06
 BYTE   En4  v124
 BYTE   W06
 BYTE   Gs4  v127
 BYTE   W06
 BYTE   En4
 BYTE   W06
 BYTE   N12  Dn4
 BYTE   W12
 BYTE   En4
 BYTE   W12
 BYTE   N04  Dn4  v116
 BYTE   W04
 BYTE   Cs4  v104
 BYTE   W04
 BYTE   Cn4  v096
 BYTE   W03
 BYTE   TIE  Bn3  v124
 BYTE   W01
 BYTE   W24
// 015   ----------------------------------------
 BYTE   W24
 BYTE   W24
 BYTE   W24
 BYTE   W11
 BYTE   EOT
 BYTE   W11
 BYTE   N02  Gn3  v127
 BYTE   W02
// 016   ----------------------------------------
 BYTE   N42  An3  v124
 BYTE   W24
 BYTE   W22
 BYTE   N01  Gn3  v127
 BYTE   W02
 BYTE   W01
 BYTE   N14  An3
 BYTE   W16
 BYTE   N18
 BYTE   W07
 BYTE   W11
 BYTE   N06  As3
 BYTE   W06
 BYTE   Cn4
 BYTE   W06
 BYTE   N02  Gn3  v124
 BYTE   W01
// 017   ----------------------------------------
 BYTE   W02
 BYTE   N42  An3
 BYTE   W22
 BYTE   W24
 BYTE   W01
 BYTE   N14
 BYTE   W17
 BYTE   N15  An3  v127
 BYTE   W06
 BYTE   W10
 BYTE   N07  As3  v120
 BYTE   W06
 BYTE   N05  Cn4  v124
 BYTE   W06
 BYTE   Dn4
 BYTE   W02
// 018   ----------------------------------------
 BYTE   W03
 BYTE   N04  Cn4  v127
 BYTE   W05
 BYTE   N66  En4  v120
 BYTE   W16
 BYTE   W24
 BYTE   W24
 BYTE   W10
 BYTE   N07  Dn4
 BYTE   W08
 BYTE   Fn4  v127
 BYTE   W06
// 019   ----------------------------------------
 BYTE   N03  Dn4  v124
 BYTE   W04
 BYTE   N17  En4
 BYTE   W17
 BYTE   N03  Ds4  v068
 BYTE   W03
 BYTE   N48  Dn4  v127
 BYTE   W24
 BYTE   W24
 BYTE   W08
 BYTE   N07  Fn4
 BYTE   W08
 BYTE   Gn4
 BYTE   W08
// 020   ----------------------------------------
 BYTE   W02
 BYTE   N03  Fn4  v096
 BYTE   W03
 BYTE   N30  Gn4  v124
 BYTE   W19
 BYTE   W11
 BYTE   N05  Fn4  v127
 BYTE   W06
 BYTE   N08  En4
 BYTE   W07
 BYTE   W02
 BYTE   N72  Dn4
 BYTE   W22
 BYTE   W24
// 021   ----------------------------------------
 BYTE   W24
 BYTE   W12
 BYTE   N06  En4
 BYTE   W06
 BYTE   Fn4
 BYTE   W06
 BYTE   W01
 BYTE   N04  Fs4  v088
 BYTE   W02
 BYTE   N32  Gn4  v127
 BYTE   W21
 BYTE   W11
 BYTE   N05  Fn4  v124
 BYTE   W05
 BYTE   N06  En4  v127
 BYTE   W07
 BYTE   N11  Dn4
 BYTE   W01
// 022   ----------------------------------------
 BYTE   W10
 BYTE   N05  En4
 BYTE   W06
 BYTE   N07  Cn4  v124
 BYTE   W07
 BYTE   N54  Dn4
 BYTE   W01
 BYTE   W24
 BYTE   W24
 BYTE   W12
 BYTE   N05  An3
 BYTE   W05
 BYTE   N06  Cn4
 BYTE   W07
// 023   ----------------------------------------
 BYTE   N18  Cn4  v127
 BYTE   W18
 BYTE   N12  As3
 BYTE   W06
 BYTE   W04
 BYTE   N06  Fs3
 BYTE   W06
 BYTE   Cs3
 BYTE   W06
 BYTE   Cn3  v124
 BYTE   W06
 BYTE   As2
 BYTE   W02
 BYTE   W04
 BYTE   Fs2  v127
 BYTE   W06
 BYTE   Gs2
 BYTE   W06
 BYTE   As2  v120
 BYTE   W06
 BYTE   Cn3  v127
 BYTE   W02
 BYTE   W04
 BYTE   Cs3
 BYTE   W06
 BYTE   Ds3  v124
 BYTE   W06
 BYTE   Fn3  v127
 BYTE   W06
 BYTE   N92  Fs3  v124
 BYTE   W02
// 024   ----------------------------------------
 BYTE   W24
 BYTE   W24
 BYTE   W24
 BYTE   W24
// 025   ----------------------------------------
 BYTE   N06  Fs3  v127
 BYTE   W05
 BYTE   N05  Gs3
 BYTE   W05
 BYTE   N04  Fs3
 BYTE   W04
 BYTE   Gs3
 BYTE   W04
 BYTE   Fs3  v124
 BYTE   W03
 BYTE   Gs3
 BYTE   W03
 BYTE   W01
 BYTE   Fs3  v120
 BYTE   W03
 BYTE   Gs3  v116
 BYTE   W05
 BYTE   Fs3  v112
 BYTE   W03
 BYTE   Gs3  v108
 BYTE   W04
 BYTE   Fs3  v104
 BYTE   W03
 BYTE   Gs3
 BYTE   W04
 BYTE   Fs3  v100
 BYTE   W01
 BYTE   W03
 BYTE   Gs3  v096
 BYTE   W04
 BYTE   Fs3  v092
 BYTE   W04
 BYTE   Gs3  v088
 BYTE   W04
 BYTE   Fs3  v084
 BYTE   W03
 BYTE   Gs3  v080
 BYTE   W04
 BYTE   N03  Fs3  v076
 BYTE   W02
 BYTE   W01
 BYTE   N04  Gs3  v072
 BYTE   W05
 BYTE   Fs3  v068
 BYTE   W03
 BYTE   Gs3  v064
 BYTE   W04
 BYTE   N02  Fs3
 BYTE   W11
// 026   ----------------------------------------
 BYTE   GoTo
  POIN2 Label_4_015A96A6
// 027   ----------------------------------------
 BYTE   BEND   c_v+0
 BYTE   FINE

//**************** Track 6 (Midi-Chn.5) ****************//

PokemonMDExplorersQuicksandPitRandomWizard_006:
// 000   ----------------------------------------
 BYTE   KEYSH   PokemonMDExplorersQuicksandPitRandomWizard_key+0
Label_5_015A98A6:
 BYTE   VOICE   73
 BYTE   PAN   c_v-64
 BYTE   VOL   16*PokemonMDExplorersQuicksandPitRandomWizard_mvl/mxv
 BYTE   W24
 BYTE   W24
 BYTE   W24
 BYTE   W24
// 001   ----------------------------------------
 BYTE   W24
 BYTE   W24
 BYTE   W24
 BYTE   W24
// 002   ----------------------------------------
 BYTE   W24
 BYTE   W24
 BYTE   W24
 BYTE   W24
// 003   ----------------------------------------
 BYTE   W24
 BYTE   W24
 BYTE   W24
 BYTE   W24
// 004   ----------------------------------------
 BYTE   W24
 BYTE   W24
 BYTE   W24
 BYTE   W24
// 005   ----------------------------------------
 BYTE   W24
 BYTE   W24
 BYTE   W24
 BYTE   W24
// 006   ----------------------------------------
 BYTE   W24
 BYTE   W24
 BYTE   W24
 BYTE   W24
// 007   ----------------------------------------
 BYTE   W24
 BYTE   W24
 BYTE   W24
 BYTE   W24
// 008   ----------------------------------------
 BYTE   W13
 BYTE   N36  Bn4  v127
 BYTE   W11
 BYTE   W24
 BYTE   W13
 BYTE   N07
 BYTE   W11
 BYTE   W06
 BYTE   N11
 BYTE   W17
 BYTE   N05  Cn5
 BYTE   W01
// 009   ----------------------------------------
 BYTE   W13
 BYTE   N36  Bn4
 BYTE   W11
 BYTE   W24
 BYTE   W13
 BYTE   N09
 BYTE   W11
 BYTE   W06
 BYTE   N12  En4
 BYTE   W18
// 010   ----------------------------------------
 BYTE   N04  Bn4  v124
 BYTE   W24
 BYTE   W24
 BYTE   N06  Dn4
 BYTE   W12
 BYTE   En4
 BYTE   W12
 BYTE   W12
 BYTE   N96  Bn3  v120
 BYTE   W12
// 011   ----------------------------------------
 BYTE   W24
 BYTE   W24
 BYTE   W24
 BYTE   W24
// 012   ----------------------------------------
 BYTE   W13
 BYTE   N36  Bn4  v124
 BYTE   W11
 BYTE   W24
 BYTE   W13
 BYTE   N07  Bn4  v127
 BYTE   W11
 BYTE   W05
 BYTE   N11
 BYTE   W18
 BYTE   N05  Cn5
 BYTE   W01
// 013   ----------------------------------------
 BYTE   W13
 BYTE   N36  Bn4
 BYTE   W11
 BYTE   W24
 BYTE   W13
 BYTE   N12  Bn4  v124
 BYTE   W11
 BYTE   W07
 BYTE   N11  En4
 BYTE   W17
// 014   ----------------------------------------
 BYTE   W01
 BYTE   N02  Bn4  v120
 BYTE   W23
 BYTE   W24
 BYTE   N06  Dn4  v127
 BYTE   W12
 BYTE   En4
 BYTE   W12
 BYTE   W11
 BYTE   TIE  Bn3  v124
 BYTE   W13
// 015   ----------------------------------------
 BYTE   W24
 BYTE   W24
 BYTE   W24
 BYTE   W17
 BYTE   EOT
 BYTE   W07
// 016   ----------------------------------------
 BYTE   W12
 BYTE   N36  An3
 BYTE   W12
 BYTE   W24
 BYTE   W13
 BYTE   N08  An3  v127
 BYTE   W11
 BYTE   W05
 BYTE   N12
 BYTE   W19
// 017   ----------------------------------------
 BYTE   W14
 BYTE   N36  An3  v124
 BYTE   W10
 BYTE   W24
 BYTE   W13
 BYTE   N08
 BYTE   W11
 BYTE   W06
 BYTE   N09  An3  v127
 BYTE   W16
 BYTE   N01  As3  v120
 BYTE   W02
// 018   ----------------------------------------
 BYTE   W20
 BYTE   N60  En4
 BYTE   W04
 BYTE   W24
 BYTE   W24
 BYTE   W22
 BYTE   N01  Dn4
 BYTE   W02
// 019   ----------------------------------------
 BYTE   W06
 BYTE   Fn4  v127
 BYTE   W10
 BYTE   N11  En4  v124
 BYTE   W08
 BYTE   W12
 BYTE   N42  Dn4  v127
 BYTE   W12
 BYTE   W24
 BYTE   W20
 BYTE   N01  Fn4
 BYTE   W04
// 020   ----------------------------------------
 BYTE   W04
 BYTE   Gn4
 BYTE   W13
 BYTE   N24  Gn4  v124
 BYTE   W07
 BYTE   W24
 BYTE   W05
 BYTE   N02  En4  v127
 BYTE   W09
 BYTE   N68  Dn4
 BYTE   W10
 BYTE   W24
// 021   ----------------------------------------
 BYTE   W24
 BYTE   W24
 BYTE   W06
 BYTE   N01  Fn4
 BYTE   W09
 BYTE   N24  Gn4
 BYTE   W09
 BYTE   W24
// 022   ----------------------------------------
 BYTE   W04
 BYTE   N01  En4
 BYTE   W07
 BYTE   N05  Dn4
 BYTE   W13
 BYTE   W04
 BYTE   N01  Cn4  v124
 BYTE   W07
 BYTE   N48  Dn4
 BYTE   W13
 BYTE   W24
 BYTE   W24
// 023   ----------------------------------------
 BYTE   W05
 BYTE   N01  Cn4
 BYTE   W07
 BYTE   N12  Cn4  v127
 BYTE   W12
 BYTE   W06
 BYTE   N06  As3
 BYTE   W18
 BYTE   W24
 BYTE   W24
// 024   ----------------------------------------
 BYTE   W10
 BYTE   N84  Fs3  v124
 BYTE   W14
 BYTE   W24
 BYTE   W24
 BYTE   W24
// 025   ----------------------------------------
 BYTE   W24
 BYTE   W24
 BYTE   W24
 BYTE   W24
// 026   ----------------------------------------
 BYTE   GoTo
  POIN2 Label_5_015A98A6
// 027   ----------------------------------------
 BYTE   BEND   c_v+0
 BYTE   FINE

//**************** Track 7 (Midi-Chn.6) ****************//

PokemonMDExplorersQuicksandPitRandomWizard_007:
// 000   ----------------------------------------
 BYTE   KEYSH   PokemonMDExplorersQuicksandPitRandomWizard_key+0
Label_6_015A99BE:
 BYTE   VOICE   73
 BYTE   PAN   c_v+63
 BYTE   VOL   15*PokemonMDExplorersQuicksandPitRandomWizard_mvl/mxv
 BYTE   W24
 BYTE   W24
 BYTE   W24
 BYTE   W24
// 001   ----------------------------------------
 BYTE   W24
 BYTE   W24
 BYTE   W24
 BYTE   W24
// 002   ----------------------------------------
 BYTE   W24
 BYTE   W24
 BYTE   W24
 BYTE   W24
// 003   ----------------------------------------
 BYTE   W24
 BYTE   W24
 BYTE   W24
 BYTE   W24
// 004   ----------------------------------------
 BYTE   W24
 BYTE   W24
 BYTE   W24
 BYTE   W24
// 005   ----------------------------------------
 BYTE   W24
 BYTE   W24
 BYTE   W24
 BYTE   W24
// 006   ----------------------------------------
 BYTE   W24
 BYTE   W24
 BYTE   W24
 BYTE   W24
// 007   ----------------------------------------
 BYTE   W24
 BYTE   W24
 BYTE   W24
 BYTE   W24
// 008   ----------------------------------------
 BYTE   W24
 BYTE   W01
 BYTE   N36  Bn4  v127
 BYTE   W23
 BYTE   W24
 BYTE   W01
 BYTE   N07
 BYTE   W17
 BYTE   N11
 BYTE   W06
// 009   ----------------------------------------
 BYTE   W11
 BYTE   N05  Cn5
 BYTE   W13
 BYTE   W01
 BYTE   N36  Bn4
 BYTE   W23
 BYTE   W24
 BYTE   W01
 BYTE   N09
 BYTE   W17
 BYTE   N12  En4
 BYTE   W06
// 010   ----------------------------------------
 BYTE   W12
 BYTE   N04  Bn4  v124
 BYTE   W12
 BYTE   W24
 BYTE   W12
 BYTE   N06  Dn4
 BYTE   W12
 BYTE   En4
 BYTE   W24
// 011   ----------------------------------------
 BYTE   N96  Bn3  v120
 BYTE   W24
 BYTE   W24
 BYTE   W24
 BYTE   W24
// 012   ----------------------------------------
 BYTE   W24
 BYTE   W01
 BYTE   N36  Bn4  v124
 BYTE   W23
 BYTE   W24
 BYTE   W01
 BYTE   N07  Bn4  v127
 BYTE   W16
 BYTE   N11
 BYTE   W07
// 013   ----------------------------------------
 BYTE   W11
 BYTE   N05  Cn5
 BYTE   W13
 BYTE   W01
 BYTE   N36  Bn4
 BYTE   W23
 BYTE   W24
 BYTE   W01
 BYTE   N12  Bn4  v124
 BYTE   W18
 BYTE   N11  En4
 BYTE   W05
// 014   ----------------------------------------
 BYTE   W13
 BYTE   N02  Bn4  v120
 BYTE   W11
 BYTE   W24
 BYTE   W12
 BYTE   N06  Dn4  v127
 BYTE   W12
 BYTE   En4
 BYTE   W23
 BYTE   TIE  Bn3  v124
 BYTE   W01
// 015   ----------------------------------------
 BYTE   W24
 BYTE   W24
 BYTE   W24
 BYTE   W24
// 016   ----------------------------------------
 BYTE   W05
 BYTE   EOT
 BYTE   W19
 BYTE   N36  An3
 BYTE   W24
 BYTE   W24
 BYTE   W01
 BYTE   N08  An3  v127
 BYTE   W16
 BYTE   N12
 BYTE   W07
// 017   ----------------------------------------
 BYTE   W24
 BYTE   W02
 BYTE   N36  An3  v124
 BYTE   W22
 BYTE   W24
 BYTE   W01
 BYTE   N08
 BYTE   W17
 BYTE   N09  An3  v127
 BYTE   W06
// 018   ----------------------------------------
 BYTE   W10
 BYTE   N01  As3  v120
 BYTE   W14
 BYTE   W08
 BYTE   N60  En4
 BYTE   W16
 BYTE   W24
 BYTE   W24
// 019   ----------------------------------------
 BYTE   W10
 BYTE   N01  Dn4
 BYTE   W08
 BYTE   Fn4  v127
 BYTE   W06
 BYTE   W04
 BYTE   N11  En4  v124
 BYTE   W20
 BYTE   N42  Dn4  v127
 BYTE   W24
 BYTE   W24
// 020   ----------------------------------------
 BYTE   W08
 BYTE   N01  Fn4
 BYTE   W08
 BYTE   Gn4
 BYTE   W08
 BYTE   W05
 BYTE   N24  Gn4  v124
 BYTE   W19
 BYTE   W17
 BYTE   N02  En4  v127
 BYTE   W07
 BYTE   W02
 BYTE   N68  Dn4
 BYTE   W22
// 021   ----------------------------------------
 BYTE   W24
 BYTE   W24
 BYTE   W18
 BYTE   N01  Fn4
 BYTE   W06
 BYTE   W03
 BYTE   N24  Gn4
 BYTE   W21
// 022   ----------------------------------------
 BYTE   W16
 BYTE   N01  En4
 BYTE   W07
 BYTE   N05  Dn4
 BYTE   W01
 BYTE   W16
 BYTE   N01  Cn4  v124
 BYTE   W07
 BYTE   N48  Dn4
 BYTE   W01
 BYTE   W24
 BYTE   W24
// 023   ----------------------------------------
 BYTE   W17
 BYTE   N01  Cn4
 BYTE   W07
 BYTE   W18
 BYTE   N06  As3  v127
 BYTE   W06
 BYTE   W24
 BYTE   W24
// 024   ----------------------------------------
 BYTE   W22
 BYTE   N84  Fs3  v124
 BYTE   W02
 BYTE   W24
 BYTE   W24
 BYTE   W24
// 025   ----------------------------------------
 BYTE   W24
 BYTE   W24
 BYTE   W24
 BYTE   W24
// 026   ----------------------------------------
 BYTE   GoTo
  POIN2 Label_6_015A99BE
// 027   ----------------------------------------
 BYTE   BEND   c_v+0
 BYTE   FINE

//**************** Track 8 (Midi-Chn.7) ****************//

PokemonMDExplorersQuicksandPitRandomWizard_008:
// 000   ----------------------------------------
 BYTE   KEYSH   PokemonMDExplorersQuicksandPitRandomWizard_key+0
Label_7_015A9ACE:
 BYTE   VOICE   24
 BYTE   PAN   c_v+0
 BYTE   VOL   33*PokemonMDExplorersQuicksandPitRandomWizard_mvl/mxv
 BYTE   N96  En1  v127
 BYTE   N48  En2
 BYTE   W18
 BYTE   N54  Fn2
 BYTE   W06
Label_7_015A9ADD:
 BYTE   W12
 BYTE   TIE  Bn2  v127
 BYTE   W01
 BYTE   Cn3
 BYTE   TIE  En3
 BYTE   W11
 BYTE   PEND 
 BYTE   W24
 BYTE   W24
// 001   ----------------------------------------
 BYTE   W24
 BYTE   W24
 BYTE   W24
 BYTE   W23
 BYTE   EOT
 BYTE   W01
// 002   ----------------------------------------
 BYTE   EOT
 BYTE   Bn2  v060
Label_7_015A9AF2:
 BYTE   N96  En1  v127
 BYTE   N48  En2
 BYTE   W18
 BYTE   N54  Fn2
 BYTE   W06
 BYTE   PEND 
Label_7_015A9AFC:
 BYTE   W12
 BYTE   TIE  As2  v127
 BYTE   W01
 BYTE   Cn3
 BYTE   TIE  Fn3
 BYTE   W11
 BYTE   PEND 
 BYTE   W24
 BYTE   W24
// 003   ----------------------------------------
 BYTE   W24
 BYTE   W24
 BYTE   W24
 BYTE   W23
 BYTE   EOT
 BYTE   W01
// 004   ----------------------------------------
 BYTE   EOT
 BYTE   As2  v060
 BYTE   PATT
  POIN2 Label_7_015A9AF2
 BYTE   PATT
  POIN2 Label_7_015A9ADD
// 005   ----------------------------------------
 BYTE   W24
 BYTE   W24
 BYTE   W24
 BYTE   W24
// 006   ----------------------------------------
 BYTE   W24
 BYTE   W23
 BYTE   EOT
 BYTE   En3
 BYTE   W01
 BYTE   Bn2  v060
 BYTE   PATT
  POIN2 Label_7_015A9AF2
 BYTE   PATT
  POIN2 Label_7_015A9AFC
// 007   ----------------------------------------
 BYTE   W24
 BYTE   W24
 BYTE   W24
 BYTE   W24
// 008   ----------------------------------------
 BYTE   W24
 BYTE   W23
 BYTE   EOT
 BYTE   Fn3
 BYTE   W01
 BYTE   As2  v060
Label_7_015A9B3B:
 BYTE   N48  En2  v127
 BYTE   W18
 BYTE   N54  Fn2
 BYTE   W06
 BYTE   PEND 
 BYTE   PATT
  POIN2 Label_7_015A9ADD
// 009   ----------------------------------------
 BYTE   W24
 BYTE   W24
 BYTE   W24
 BYTE   W24
// 010   ----------------------------------------
 BYTE   W24
 BYTE   W23
 BYTE   EOT
 BYTE   En3
 BYTE   W01
 BYTE   Bn2  v060
 BYTE   PATT
  POIN2 Label_7_015A9B3B
 BYTE   PATT
  POIN2 Label_7_015A9AFC
// 011   ----------------------------------------
 BYTE   W24
 BYTE   W24
 BYTE   W24
 BYTE   W24
// 012   ----------------------------------------
 BYTE   W24
 BYTE   W23
 BYTE   EOT
 BYTE   Fn3
 BYTE   W01
 BYTE   As2  v060
 BYTE   PATT
  POIN2 Label_7_015A9B3B
 BYTE   PATT
  POIN2 Label_7_015A9ADD
// 013   ----------------------------------------
 BYTE   W24
 BYTE   W24
 BYTE   W24
 BYTE   W24
// 014   ----------------------------------------
 BYTE   W24
 BYTE   W23
 BYTE   EOT
 BYTE   En3
 BYTE   W01
 BYTE   Bn2  v060
 BYTE   PATT
  POIN2 Label_7_015A9B3B
 BYTE   PATT
  POIN2 Label_7_015A9AFC
// 015   ----------------------------------------
 BYTE   W24
 BYTE   W24
 BYTE   W24
 BYTE   W24
// 016   ----------------------------------------
 BYTE   W24
 BYTE   W23
 BYTE   EOT
 BYTE   Fn3
 BYTE   W01
 BYTE   As2  v060
Label_7_015A9B92:
 BYTE   N48  Dn2  v127
 BYTE   W18
 BYTE   N54  Fn2
 BYTE   W06
 BYTE   PEND 
Label_7_015A9B9A:
 BYTE   W12
 BYTE   N60  As2  v127
 BYTE   W01
 BYTE   Cn3
 BYTE   N60  En3
 BYTE   W11
 BYTE   PEND 
// 017   ----------------------------------------
 BYTE   W24
 BYTE   W24
 BYTE   PATT
  POIN2 Label_7_015A9B92
// 018   ----------------------------------------
Label_7_015A9BAB:
 BYTE   W12
 BYTE   N60  As2  v127
 BYTE   W01
 BYTE   Dn3
 BYTE   N60  Fn3
 BYTE   W11
 BYTE   PEND 
 BYTE   W24
 BYTE   W24
 BYTE   PATT
  POIN2 Label_7_015A9B92
 BYTE   PATT
  POIN2 Label_7_015A9B9A
// 019   ----------------------------------------
 BYTE   W24
 BYTE   W24
 BYTE   PATT
  POIN2 Label_7_015A9B92
 BYTE   PATT
  POIN2 Label_7_015A9BAB
// 020   ----------------------------------------
 BYTE   W24
 BYTE   W24
Label_7_015A9BCF:
 BYTE   N48  Cn2  v127
 BYTE   W18
 BYTE   N54  Fn2
 BYTE   W06
 BYTE   PEND 
Label_7_015A9BD7:
 BYTE   W12
 BYTE   N60  Gn2  v127
 BYTE   W01
 BYTE   Cn3
 BYTE   N60  En3
 BYTE   W11
 BYTE   PEND 
// 021   ----------------------------------------
 BYTE   W24
 BYTE   W24
 BYTE   PATT
  POIN2 Label_7_015A9BCF
 BYTE   PATT
  POIN2 Label_7_015A9BAB
// 022   ----------------------------------------
 BYTE   W24
 BYTE   W24
 BYTE   PATT
  POIN2 Label_7_015A9BCF
 BYTE   PATT
  POIN2 Label_7_015A9BD7
// 023   ----------------------------------------
 BYTE   W24
 BYTE   W24
 BYTE   N48  Cn2  v127
 BYTE   W18
 BYTE   N54  Fs2
 BYTE   W06
 BYTE   W12
 BYTE   N60  As2
 BYTE   W01
 BYTE   Cs3
 BYTE   N60  Fs3
 BYTE   W11
// 024   ----------------------------------------
 BYTE   W24
 BYTE   W24
 BYTE   W24
 BYTE   W24
// 025   ----------------------------------------
 BYTE   W24
 BYTE   W24
 BYTE   W24
 BYTE   W24
// 026   ----------------------------------------
 BYTE   W24
 BYTE   W24
 BYTE   GoTo
  POIN2 Label_7_015A9ACE
// 027   ----------------------------------------
 BYTE   BEND   c_v+0
 BYTE   FINE

//**************** Track 9 (Midi-Chn.8) ****************//

PokemonMDExplorersQuicksandPitRandomWizard_009:
// 000   ----------------------------------------
 BYTE   KEYSH   PokemonMDExplorersQuicksandPitRandomWizard_key+0
Label_8_015A9C1E:
 BYTE   VOICE   13
 BYTE   PAN   c_v+20
 BYTE   As5
 BYTE   VOL   22*PokemonMDExplorersQuicksandPitRandomWizard_mvl/mxv
 BYTE   N12  En3  v127
 BYTE   W12
 BYTE   N06  En4
 BYTE   W06
 BYTE   En3  v116
 BYTE   W06
Label_8_015A9C2F:
 BYTE   W06
 BYTE   N06  En4  v096
 BYTE   W06
 BYTE   En3  v092
 BYTE   W12
 BYTE   PEND 
Label_8_015A9C38:
 BYTE   N06  En4  v084
 BYTE   W06
 BYTE   En3
 BYTE   W12
 BYTE   En4  v080
 BYTE   W06
 BYTE   PEND 
Label_8_015A9C42:
 BYTE   N06  En3  v076
 BYTE   W12
 BYTE   En4  v072
 BYTE   W06
 BYTE   En3  v068
 BYTE   W06
 BYTE   PEND 
// 001   ----------------------------------------
Label_8_015A9C4D:
 BYTE   W06
 BYTE   N06  En4  v064
 BYTE   W06
 BYTE   En3
 BYTE   W12
 BYTE   PEND 
Label_8_015A9C55:
 BYTE   N06  En4  v060
 BYTE   W06
 BYTE   En3  v052
 BYTE   W12
 BYTE   En4  v048
 BYTE   W06
 BYTE   PEND 
Label_8_015A9C60:
 BYTE   N06  Bn2  v040
 BYTE   W06
 BYTE   En3  v127
 BYTE   W06
 BYTE   Bn3
 BYTE   W06
 BYTE   En4
 BYTE   W06
 BYTE   PEND 
Label_8_015A9C6C:
 BYTE   N06  Bn2  v127
 BYTE   W06
 BYTE   Cn3
 BYTE   W06
 BYTE   Bn3
 BYTE   W06
 BYTE   Cn4
 BYTE   W06
 BYTE   PEND 
// 002   ----------------------------------------
Label_8_015A9C77:
 BYTE   N12  Fn3  v127
 BYTE   W12
 BYTE   N06  Fn4
 BYTE   W06
 BYTE   Fn3  v116
 BYTE   W06
 BYTE   PEND 
Label_8_015A9C82:
 BYTE   W06
 BYTE   N06  Fn4  v096
 BYTE   W06
 BYTE   Fn3  v092
 BYTE   W12
 BYTE   PEND 
Label_8_015A9C8B:
 BYTE   N06  Fn4  v084
 BYTE   W06
 BYTE   Fn3
 BYTE   W12
 BYTE   Fn4  v080
 BYTE   W06
 BYTE   PEND 
Label_8_015A9C95:
 BYTE   N06  Fn3  v076
 BYTE   W12
 BYTE   Fn4  v072
 BYTE   W06
 BYTE   Fn3  v068
 BYTE   W06
 BYTE   PEND 
// 003   ----------------------------------------
Label_8_015A9CA0:
 BYTE   W06
 BYTE   N06  Fn4  v064
 BYTE   W06
 BYTE   Fn3
 BYTE   W12
 BYTE   PEND 
Label_8_015A9CA8:
 BYTE   N06  Fn4  v060
 BYTE   W06
 BYTE   Fn3
 BYTE   W12
 BYTE   Fn4  v056
 BYTE   W06
 BYTE   PEND 
 BYTE   Fn3
 BYTE   W06
 BYTE   Cn4  v127
 BYTE   W06
 BYTE   Fn4
 BYTE   W06
 BYTE   Fn3
 BYTE   W06
 BYTE   En3
 BYTE   W06
 BYTE   En4
 BYTE   W06
 BYTE   Cn4
 BYTE   W06
 BYTE   Fn3
 BYTE   W06
// 004   ----------------------------------------
Label_8_015A9CC3:
 BYTE   N12  En3  v127
 BYTE   W12
 BYTE   N06  En4
 BYTE   W06
 BYTE   En3  v116
 BYTE   W06
 BYTE   PEND 
 BYTE   PATT
  POIN2 Label_8_015A9C2F
 BYTE   PATT
  POIN2 Label_8_015A9C38
 BYTE   PATT
  POIN2 Label_8_015A9C42
 BYTE   PATT
  POIN2 Label_8_015A9C4D
 BYTE   PATT
  POIN2 Label_8_015A9C55
 BYTE   PATT
  POIN2 Label_8_015A9C60
 BYTE   PATT
  POIN2 Label_8_015A9C6C
 BYTE   PATT
  POIN2 Label_8_015A9C77
 BYTE   PATT
  POIN2 Label_8_015A9C82
 BYTE   PATT
  POIN2 Label_8_015A9C8B
 BYTE   PATT
  POIN2 Label_8_015A9C95
 BYTE   PATT
  POIN2 Label_8_015A9CA0
 BYTE   PATT
  POIN2 Label_8_015A9CA8
// 005   ----------------------------------------
 BYTE   N06  Fn3  v056
 BYTE   W06
 BYTE   Cn4  v127
 BYTE   N06  Fn4
 BYTE   W06
 BYTE   Cn4
 BYTE   N06  Fn4
 BYTE   W12
 BYTE   Bn3
 BYTE   N06  Fn4
 BYTE   W06
 BYTE   Bn3
 BYTE   N06  Fn4
 BYTE   W06
 BYTE   N03  En3
 BYTE   W03
 BYTE   Fn3
 BYTE   W03
 BYTE   Gn3
 BYTE   W03
 BYTE   An3
 BYTE   W03
Label_8_015A9D2D:
 BYTE   N03  Bn3  v127
 BYTE   W18
 BYTE   En3
 BYTE   W06
 BYTE   PEND 
Label_8_015A9D34:
 BYTE   W06
 BYTE   N03  En3  v127
 BYTE   W12
 BYTE   N03
 BYTE   W06
 BYTE   PEND 
// 006   ----------------------------------------
Label_8_015A9D3C:
 BYTE   W06
 BYTE   N03  Bn2  v127
 BYTE   W06
 BYTE   N03
 BYTE   W12
 BYTE   PEND 
Label_8_015A9D44:
 BYTE   W12
 BYTE   N03  En3  v127
 BYTE   W03
 BYTE   Fn3
 BYTE   W03
 BYTE   Gn3
 BYTE   W03
 BYTE   An3
 BYTE   W03
 BYTE   PEND 
 BYTE   PATT
  POIN2 Label_8_015A9D2D
 BYTE   PATT
  POIN2 Label_8_015A9D34
 BYTE   PATT
  POIN2 Label_8_015A9D3C
// 007   ----------------------------------------
Label_8_015A9D5F:
 BYTE   W12
 BYTE   N03  Bn3  v127
 BYTE   W03
 BYTE   An3
 BYTE   W03
 BYTE   Gn3
 BYTE   W03
 BYTE   Fn3
 BYTE   W03
 BYTE   PEND 
 BYTE   En3
 BYTE   W18
 BYTE   N03
 BYTE   W06
Label_8_015A9D6F:
 BYTE   W06
 BYTE   N03  Fn3  v127
 BYTE   W12
 BYTE   N03
 BYTE   W06
 BYTE   PEND 
Label_8_015A9D77:
 BYTE   W06
 BYTE   N03  Cn3  v127
 BYTE   W06
 BYTE   N03
 BYTE   W12
 BYTE   PEND 
// 008   ----------------------------------------
Label_8_015A9D7F:
 BYTE   W12
 BYTE   N03  Dn3  v127
 BYTE   W03
 BYTE   En3
 BYTE   W03
 BYTE   Fn3
 BYTE   W03
 BYTE   Gn3
 BYTE   W03
 BYTE   PEND 
Label_8_015A9D8B:
 BYTE   N03  An3  v127
 BYTE   W18
 BYTE   En3
 BYTE   W06
 BYTE   PEND 
 BYTE   PATT
  POIN2 Label_8_015A9D6F
 BYTE   PATT
  POIN2 Label_8_015A9D77
// 009   ----------------------------------------
Label_8_015A9D9C:
 BYTE   W12
 BYTE   N03  An3  v127
 BYTE   W03
 BYTE   Gn3
 BYTE   W03
 BYTE   Fn3
 BYTE   W03
 BYTE   Dn3
 BYTE   W03
 BYTE   PEND 
 BYTE   En3
 BYTE   W18
 BYTE   N03
 BYTE   W06
 BYTE   PATT
  POIN2 Label_8_015A9D34
 BYTE   PATT
  POIN2 Label_8_015A9D3C
 BYTE   PATT
  POIN2 Label_8_015A9D44
 BYTE   PATT
  POIN2 Label_8_015A9D2D
 BYTE   PATT
  POIN2 Label_8_015A9D34
 BYTE   PATT
  POIN2 Label_8_015A9D3C
 BYTE   PATT
  POIN2 Label_8_015A9D5F
// 010   ----------------------------------------
 BYTE   N03  En3  v127
 BYTE   W18
 BYTE   N03
 BYTE   W06
 BYTE   PATT
  POIN2 Label_8_015A9D6F
 BYTE   PATT
  POIN2 Label_8_015A9D77
 BYTE   PATT
  POIN2 Label_8_015A9D7F
 BYTE   PATT
  POIN2 Label_8_015A9D8B
 BYTE   PATT
  POIN2 Label_8_015A9D6F
 BYTE   PATT
  POIN2 Label_8_015A9D77
 BYTE   PATT
  POIN2 Label_8_015A9D9C
 BYTE   PATT
  POIN2 Label_8_015A9CC3
 BYTE   PATT
  POIN2 Label_8_015A9C2F
 BYTE   PATT
  POIN2 Label_8_015A9C38
// 011   ----------------------------------------
 BYTE   N06  En3  v076
 BYTE   W06
 BYTE   Cn4  v127
 BYTE   W12
 BYTE   N06
 BYTE   W06
 BYTE   Dn4
 BYTE   W06
 BYTE   Dn3
 BYTE   W12
 BYTE   En4  v104
 BYTE   W06
 BYTE   En3  v100
 BYTE   W12
 BYTE   Fn4  v092
 BYTE   W06
 BYTE   Fn3  v088
 BYTE   W06
 BYTE   W06
 BYTE   En4  v084
 BYTE   W06
 BYTE   Gn3  v080
 BYTE   W12
// 012   ----------------------------------------
 BYTE   Dn4  v127
 BYTE   W06
 BYTE   An3
 BYTE   W06
 BYTE   Gn3
 BYTE   W06
 BYTE   Cn4
 BYTE   W06
 BYTE   An3
 BYTE   W06
 BYTE   En3
 BYTE   W12
 BYTE   An3  v112
 BYTE   W06
 BYTE   En3  v100
 BYTE   W12
 BYTE   An3  v092
 BYTE   W06
 BYTE   En3  v088
 BYTE   W06
Label_8_015A9E40:
 BYTE   W06
 BYTE   N06  An3  v084
 BYTE   W06
 BYTE   En3  v080
 BYTE   W12
 BYTE   PEND 
// 013   ----------------------------------------
 BYTE   An3  v127
 BYTE   W06
 BYTE   Cn4
 BYTE   W06
 BYTE   Gn3
 BYTE   W06
 BYTE   An3
 BYTE   W06
 BYTE   Fn3
 BYTE   W06
 BYTE   Dn3
 BYTE   W12
 BYTE   Fn3  v100
 BYTE   W06
 BYTE   Dn3  v096
 BYTE   W12
 BYTE   Fn3  v088
 BYTE   W06
 BYTE   Dn3  v084
 BYTE   W06
 BYTE   W06
 BYTE   Fn3  v080
 BYTE   W06
 BYTE   Dn3  v076
 BYTE   W12
// 014   ----------------------------------------
 BYTE   Fn3  v072
 BYTE   W06
 BYTE   Dn3
 BYTE   W12
 BYTE   Fn3  v068
 BYTE   W06
 BYTE   N12  Cn3  v127
 BYTE   W12
 BYTE   N06  Cn4
 BYTE   W06
 BYTE   Cn3  v116
 BYTE   W06
 BYTE   W06
 BYTE   Cn4  v096
 BYTE   W06
 BYTE   Cn3  v092
 BYTE   W12
 BYTE   Cn4  v084
 BYTE   W06
 BYTE   Cn3
 BYTE   W12
 BYTE   Cn4  v080
 BYTE   W06
// 015   ----------------------------------------
 BYTE   Cn3  v076
 BYTE   W06
 BYTE   An3  v127
 BYTE   W12
 BYTE   N06
 BYTE   W06
 BYTE   As3
 BYTE   W06
 BYTE   As2
 BYTE   W12
 BYTE   Cn4  v104
 BYTE   W06
 BYTE   Cn3  v100
 BYTE   W12
 BYTE   As3  v092
 BYTE   W06
 BYTE   Dn3  v088
 BYTE   W06
 BYTE   PATT
  POIN2 Label_8_015A9E40
// 016   ----------------------------------------
 BYTE   N06  Gn3  v127
 BYTE   W06
 BYTE   Fn3
 BYTE   W06
 BYTE   En3
 BYTE   W06
 BYTE   Gn3
 BYTE   W06
 BYTE   An3
 BYTE   W06
 BYTE   Cn3
 BYTE   W12
 BYTE   An3  v112
 BYTE   W06
 BYTE   Cn3  v100
 BYTE   W12
 BYTE   An3  v092
 BYTE   W06
 BYTE   Cn3  v088
 BYTE   W06
 BYTE   W06
 BYTE   An3  v084
 BYTE   W06
 BYTE   Cn3  v080
 BYTE   W12
// 017   ----------------------------------------
 BYTE   An3  v127
 BYTE   W06
 BYTE   Fn3
 BYTE   W06
 BYTE   Cn3
 BYTE   W06
 BYTE   An2
 BYTE   W06
 BYTE   Fs2
 BYTE   W06
 BYTE   As2
 BYTE   W06
 BYTE   Cs3
 BYTE   W06
 BYTE   Fs3
 BYTE   W06
 BYTE   As3
 BYTE   W06
 BYTE   Cs4
 BYTE   W06
 BYTE   As4
 BYTE   W06
 BYTE   Cn5
 BYTE   W06
 BYTE   As4
 BYTE   W06
 BYTE   Fs4
 BYTE   W06
 BYTE   Cs4  v124
 BYTE   W06
 BYTE   Cn4
 BYTE   W06
// 018   ----------------------------------------
 BYTE   As3
 BYTE   W06
 BYTE   Fs3
 BYTE   W06
 BYTE   Cs3
 BYTE   W06
 BYTE   As2
 BYTE   W06
 BYTE   Fs2  v127
 BYTE   W12
 BYTE   Bn2
 BYTE   W12
 BYTE   Gs2
 BYTE   N06  Cs3
 BYTE   W18
 BYTE   Gs2  v116
 BYTE   N06  Cs3
 BYTE   W06
 BYTE   W12
 BYTE   Gs2  v096
 BYTE   N06  Cs3
 BYTE   W12
// 019   ----------------------------------------
 BYTE   W06
 BYTE   Gs2  v072
 BYTE   N06  Cs3
 BYTE   W12
 BYTE   Gs2  v120
 BYTE   N06  Cs3
 BYTE   W06
 BYTE   Ds3  v127
 BYTE   N06  Gs3
 BYTE   W18
 BYTE   Ds3  v112
 BYTE   N06  Gs3
 BYTE   W06
 BYTE   W12
 BYTE   Ds3  v092
 BYTE   N06  Gs3
 BYTE   W12
 BYTE   W06
 BYTE   Ds3  v080
 BYTE   N06  Gs3
 BYTE   W18
// 020   ----------------------------------------
 BYTE   Ds3
 BYTE   N06  Gs3
 BYTE   W18
 BYTE   Ds3
 BYTE   N06  Gs3
 BYTE   W06
 BYTE   GoTo
  POIN2 Label_8_015A9C1E
// 021   ----------------------------------------
 BYTE   BEND   c_v+0
 BYTE   FINE

//**************** Track 10 (Midi-Chn.9) ****************//

PokemonMDExplorersQuicksandPitRandomWizard_010:
// 000   ----------------------------------------
 BYTE   KEYSH   PokemonMDExplorersQuicksandPitRandomWizard_key+0
Label_9_015A9F3A:
 BYTE   VOICE   124
 BYTE   PAN   c_v+0
 BYTE   VOL   24*PokemonMDExplorersQuicksandPitRandomWizard_mvl/mxv
 BYTE   N12  Cn1  v127
 BYTE   N04  Fs1  v120
 BYTE   W05
 BYTE   Gs1  v088
 BYTE   W06
 BYTE   N06
 BYTE   W07
 BYTE   N12  Cn1  v127
 BYTE   N05  Bn1  v108
 BYTE   W06
 BYTE   Gs1  v084
 BYTE   W06
 BYTE   N04  Gs1  v120
 BYTE   W05
 BYTE   N07  Bn1  v048
 BYTE   W07
 BYTE   N06  Gs1  v096
 BYTE   W06
 BYTE   W06
 BYTE   N04  Gs1  v108
 BYTE   W06
 BYTE   Gs1  v104
 BYTE   W06
 BYTE   Gs1  v112
 BYTE   W06
Label_9_015A9F6D:
 BYTE   N07  Bn1  v108
 BYTE   W06
 BYTE   N04  Gs1  v100
 BYTE   W18
 BYTE   PEND 
// 001   ----------------------------------------
 BYTE   Fs1  v120
 BYTE   W05
 BYTE   Gs1  v092
 BYTE   W06
 BYTE   N06  Gs1  v116
 BYTE   W07
 BYTE   N05  Bn1  v108
 BYTE   W06
 BYTE   Gs1  v104
 BYTE   W06
 BYTE   N04  Gs1  v112
 BYTE   W05
 BYTE   N07  Bn1  v048
 BYTE   W07
 BYTE   N06  Gs1  v092
 BYTE   W06
 BYTE   W06
 BYTE   N04
 BYTE   W06
 BYTE   Gs1  v112
 BYTE   W06
 BYTE   Gs1  v100
 BYTE   W06
 BYTE   N07  Bn1  v108
 BYTE   W06
 BYTE   N04  Gs1  v080
 BYTE   W12
 BYTE   N06  Gs1  v100
 BYTE   W06
// 002   ----------------------------------------
 BYTE   N12  Cn1  v127
 BYTE   N04  Fs1  v120
 BYTE   W05
 BYTE   Gs1  v096
 BYTE   W06
 BYTE   N06  Gs1  v080
 BYTE   W07
 BYTE   N12  Cn1  v127
 BYTE   N05  Bn1  v108
 BYTE   W06
 BYTE   Gs1  v120
 BYTE   W06
 BYTE   N04  Gs1  v100
 BYTE   W05
 BYTE   N07  Bn1  v048
 BYTE   W07
 BYTE   N06  Gs1  v116
 BYTE   W06
 BYTE   W06
 BYTE   N04  Gs1  v108
 BYTE   W06
 BYTE   Gs1  v116
 BYTE   W06
 BYTE   Gs1  v088
 BYTE   W06
 BYTE   N07  Bn1  v108
 BYTE   W06
 BYTE   N04  Gs1  v096
 BYTE   W18
// 003   ----------------------------------------
 BYTE   Fs1  v120
 BYTE   W05
 BYTE   Gs1  v092
 BYTE   W06
 BYTE   N06  Gs1  v112
 BYTE   W07
 BYTE   N05  Bn1  v108
 BYTE   W06
 BYTE   Gs1  v084
 BYTE   W06
 BYTE   N04  Gs1  v100
 BYTE   W05
 BYTE   N07  Bn1  v048
 BYTE   W07
 BYTE   N06  Gs1  v080
 BYTE   W06
 BYTE   W06
 BYTE   N04  Gs1  v096
 BYTE   W06
 BYTE   Gs1  v112
 BYTE   W06
 BYTE   Gs1  v108
 BYTE   W06
 BYTE   N07  Bn1
 BYTE   W06
 BYTE   N04  Gs1  v100
 BYTE   W12
 BYTE   N06  Gs1  v084
 BYTE   W06
// 004   ----------------------------------------
 BYTE   N12  Cn1  v127
 BYTE   N04  Fs1  v120
 BYTE   W05
 BYTE   Gs1  v096
 BYTE   W06
 BYTE   N06
 BYTE   W07
 BYTE   N12  Cn1  v127
 BYTE   N05  Bn1  v108
 BYTE   W06
 BYTE   Gs1  v092
 BYTE   W06
 BYTE   N04  Gs1  v112
 BYTE   W05
 BYTE   N07  Bn1  v048
 BYTE   W07
 BYTE   N06  Gs1  v112
 BYTE   W06
 BYTE   W06
 BYTE   N04  Gs1  v092
 BYTE   W06
 BYTE   Gs1  v088
 BYTE   W06
 BYTE   Gs1  v108
 BYTE   W06
 BYTE   PATT
  POIN2 Label_9_015A9F6D
// 005   ----------------------------------------
 BYTE   N04  Fs1  v120
 BYTE   W05
 BYTE   Gs1  v096
 BYTE   W06
 BYTE   N06  Gs1  v100
 BYTE   W07
 BYTE   N05  Bn1  v108
 BYTE   W06
 BYTE   Gs1  v112
 BYTE   W06
 BYTE   N04  Gs1  v092
 BYTE   W05
 BYTE   N07  Bn1  v048
 BYTE   W07
 BYTE   N06  Gs1  v120
 BYTE   W06
 BYTE   W06
 BYTE   N04
 BYTE   W06
 BYTE   Gs1  v096
 BYTE   W06
 BYTE   Gs1  v092
 BYTE   W06
 BYTE   N07  Bn1  v108
 BYTE   W06
 BYTE   N04  Gs1  v116
 BYTE   W12
 BYTE   N06  Gs1  v084
 BYTE   W06
// 006   ----------------------------------------
 BYTE   N12  Cn1  v127
 BYTE   N04  Fs1  v120
 BYTE   W05
 BYTE   Gs1  v084
 BYTE   W06
 BYTE   N06  Gs1  v092
 BYTE   W07
 BYTE   N12  Cn1  v127
 BYTE   N05  Bn1  v108
 BYTE   W06
 BYTE   Gs1  v116
 BYTE   W06
 BYTE   N04  Gs1  v096
 BYTE   W05
 BYTE   N07  Bn1  v048
 BYTE   W07
 BYTE   N06  Gs1  v104
 BYTE   W06
 BYTE   W06
 BYTE   N04  Gs1  v092
 BYTE   W06
 BYTE   Gs1  v084
 BYTE   W06
 BYTE   Gs1  v104
 BYTE   W06
 BYTE   N07  Bn1  v108
 BYTE   W06
 BYTE   N04  Gs1  v120
 BYTE   W18
// 007   ----------------------------------------
 BYTE   Fs1
 BYTE   W05
 BYTE   Gs1  v092
 BYTE   W06
 BYTE   N06
 BYTE   W07
 BYTE   N05  Bn1  v108
 BYTE   W06
 BYTE   Gs1  v088
 BYTE   W06
 BYTE   N04
 BYTE   W05
 BYTE   N07  Bn1  v048
 BYTE   W07
 BYTE   N06  Gs1  v104
 BYTE   W06
 BYTE   W06
 BYTE   N04  Gs1  v112
 BYTE   W06
 BYTE   Gs1  v088
 BYTE   W06
 BYTE   Gs1  v120
 BYTE   W06
 BYTE   N07  Bn1  v108
 BYTE   W06
 BYTE   N04  Gs1  v100
 BYTE   W12
 BYTE   N06  Gs1  v088
 BYTE   W06
// 008   ----------------------------------------
 BYTE   N12  Cn1  v127
 BYTE   N04  Fs1  v120
 BYTE   W05
 BYTE   Gs1  v084
 BYTE   W06
 BYTE   N06  Gs1  v092
 BYTE   W07
 BYTE   N05  Bn1  v108
 BYTE   W06
 BYTE   Gs1  v120
 BYTE   W06
 BYTE   N04  Gs1  v088
 BYTE   W05
 BYTE   N07  Bn1  v048
 BYTE   W07
 BYTE   N12  Cn1  v127
 BYTE   N06  Gs1  v112
 BYTE   W06
 BYTE   W06
 BYTE   N04  Gs1  v092
 BYTE   W06
 BYTE   N12  Cn1  v127
 BYTE   N04  Gs1  v100
 BYTE   W06
 BYTE   Gs1  v116
 BYTE   W06
 BYTE   N07  Bn1  v108
 BYTE   W06
 BYTE   N04  Gs1  v104
 BYTE   W12
 BYTE   N06  Cn1  v127
 BYTE   W06
// 009   ----------------------------------------
 BYTE   N12
 BYTE   N04  Fs1  v120
 BYTE   W05
 BYTE   Gs1
 BYTE   W06
 BYTE   N06  Gs1  v108
 BYTE   W01
 BYTE   N12  Cn1  v127
 BYTE   W06
 BYTE   N05  Bn1  v108
 BYTE   W06
 BYTE   Gs1  v104
 BYTE   W06
 BYTE   N04  Gs1  v084
 BYTE   W05
 BYTE   N07  Bn1  v048
 BYTE   W07
 BYTE   N12  Cn1  v127
 BYTE   N06  Gs1  v088
 BYTE   W06
 BYTE   W06
 BYTE   Cn1  v127
 BYTE   N04  Gs1  v104
 BYTE   W06
 BYTE   N12  Cn1  v127
 BYTE   N04  Gs1  v092
 BYTE   W06
 BYTE   Gs1  v104
 BYTE   W06
 BYTE   N07  Bn1  v108
 BYTE   W06
 BYTE   N04  Gs1  v084
 BYTE   W06
 BYTE   N12  Cn1  v127
 BYTE   W06
 BYTE   N06  Gs1  v120
 BYTE   W06
// 010   ----------------------------------------
 BYTE   N12  Cn1  v127
 BYTE   N04  Fs1  v120
 BYTE   W05
 BYTE   Gs1  v108
 BYTE   W06
 BYTE   N06  Gs1  v112
 BYTE   W07
 BYTE   N05  Bn1  v108
 BYTE   W06
 BYTE   Gs1
 BYTE   W06
 BYTE   N04  Gs1  v112
 BYTE   W05
 BYTE   N07  Bn1  v048
 BYTE   W07
 BYTE   N12  Cn1  v127
 BYTE   N06  Gs1  v120
 BYTE   W06
 BYTE   W06
 BYTE   N04  Gs1  v100
 BYTE   W06
 BYTE   N12  Cn1  v127
 BYTE   N04  Gs1  v104
 BYTE   W06
 BYTE   N04
 BYTE   W06
Label_9_015AA193:
 BYTE   N07  Bn1  v108
 BYTE   W06
 BYTE   N04  Gs1  v096
 BYTE   W12
 BYTE   N06  Cn1  v127
 BYTE   W06
 BYTE   PEND 
// 011   ----------------------------------------
 BYTE   N12
 BYTE   N04  Fs1  v120
 BYTE   W05
 BYTE   Gs1  v116
 BYTE   W06
 BYTE   N06  Gs1  v100
 BYTE   W01
 BYTE   N12  Cn1  v127
 BYTE   W06
 BYTE   N05  Bn1  v108
 BYTE   W06
 BYTE   Gs1  v088
 BYTE   W06
 BYTE   N04  Gs1  v120
 BYTE   W05
 BYTE   N07  Bn1  v048
 BYTE   W07
 BYTE   N12  Cn1  v127
 BYTE   N06  Gs1  v108
 BYTE   W06
 BYTE   W06
 BYTE   Cn1  v127
 BYTE   N04  Gs1  v112
 BYTE   W06
 BYTE   N12  Cn1  v127
 BYTE   N04  Gs1  v104
 BYTE   W06
 BYTE   Gs1  v108
 BYTE   W06
 BYTE   N06  Cn1  v127
 BYTE   N07  Bn1  v108
 BYTE   W06
 BYTE   N12  Cn1  v127
 BYTE   N04  Gs1  v084
 BYTE   W12
 BYTE   N06  Gs1  v116
 BYTE   W06
// 012   ----------------------------------------
 BYTE   N12  Cn1  v127
 BYTE   N04  Fs1  v120
 BYTE   W05
 BYTE   Gs1  v108
 BYTE   W06
 BYTE   N06  Gs1  v116
 BYTE   W07
 BYTE   N05  Bn1  v108
 BYTE   W06
 BYTE   Gs1  v088
 BYTE   W06
 BYTE   N04
 BYTE   W05
 BYTE   N07  Bn1  v048
 BYTE   W07
 BYTE   N12  Cn1  v127
 BYTE   N06  Gs1  v108
 BYTE   W06
 BYTE   W06
 BYTE   N04  Gs1  v084
 BYTE   W06
 BYTE   N12  Cn1  v127
 BYTE   N04  Gs1  v100
 BYTE   W06
 BYTE   Gs1  v108
 BYTE   W06
 BYTE   PATT
  POIN2 Label_9_015AA193
// 013   ----------------------------------------
 BYTE   N12  Cn1  v127
 BYTE   N04  Fs1  v120
 BYTE   W05
 BYTE   Gs1  v100
 BYTE   W06
 BYTE   N06
 BYTE   W01
 BYTE   N12  Cn1  v127
 BYTE   W06
 BYTE   N05  Bn1  v108
 BYTE   W06
 BYTE   Gs1  v092
 BYTE   W06
 BYTE   N04  Gs1  v084
 BYTE   W05
 BYTE   N07  Bn1  v048
 BYTE   W07
 BYTE   N12  Cn1  v127
 BYTE   N06  Gs1  v084
 BYTE   W06
 BYTE   W06
 BYTE   Cn1  v127
 BYTE   N04  Gs1  v120
 BYTE   W06
 BYTE   N12  Cn1  v127
 BYTE   N04  Gs1  v092
 BYTE   W06
 BYTE   Gs1  v088
 BYTE   W06
 BYTE   N07  Bn1  v108
 BYTE   W06
 BYTE   N04  Gs1  v112
 BYTE   W06
 BYTE   N12  Cn1  v127
 BYTE   W06
 BYTE   N06  Gs1  v116
 BYTE   W06
// 014   ----------------------------------------
 BYTE   N12  Cn1  v127
 BYTE   N04  Fs1  v120
 BYTE   W05
 BYTE   Gs1  v100
 BYTE   W06
 BYTE   N06  Gs1  v088
 BYTE   W07
 BYTE   N05  Bn1  v108
 BYTE   W06
 BYTE   Gs1  v088
 BYTE   W06
 BYTE   N04  Gs1  v104
 BYTE   W05
 BYTE   N07  Bn1  v048
 BYTE   W07
 BYTE   N12  Cn1  v127
 BYTE   N06  Gs1  v108
 BYTE   W06
 BYTE   W06
 BYTE   N04  Gs1  v120
 BYTE   W06
 BYTE   N12  Cn1  v127
 BYTE   N04  Gs1  v112
 BYTE   W06
 BYTE   Gs1  v088
 BYTE   W06
 BYTE   N07  Bn1  v108
 BYTE   W06
 BYTE   N04  Gs1  v116
 BYTE   W12
 BYTE   N06  Cn1  v127
 BYTE   W06
// 015   ----------------------------------------
 BYTE   N12
 BYTE   N04  Fs1  v120
 BYTE   W05
 BYTE   Gs1  v084
 BYTE   W06
 BYTE   N06
 BYTE   W01
 BYTE   N12  Cn1  v127
 BYTE   W06
 BYTE   N05  Bn1  v108
 BYTE   W06
 BYTE   Gs1
 BYTE   W06
 BYTE   N04  Gs1  v112
 BYTE   W05
 BYTE   N07  Bn1  v048
 BYTE   W07
 BYTE   N12  Cn1  v127
 BYTE   N06  Gs1  v092
 BYTE   W06
 BYTE   W06
 BYTE   Cn1  v127
 BYTE   N04  Gs1  v116
 BYTE   W06
 BYTE   N12  Cn1  v127
 BYTE   N04  Gs1  v088
 BYTE   W06
 BYTE   Gs1  v116
 BYTE   W06
 BYTE   N06  Cn1  v127
 BYTE   N07  Bn1  v108
 BYTE   W06
 BYTE   N06  Cn1  v127
 BYTE   N04  Gs1  v116
 BYTE   W12
 BYTE   N06  Gs1  v088
 BYTE   W06
// 016   ----------------------------------------
 BYTE   N12  Cn1  v127
 BYTE   N04  Fs1  v120
 BYTE   W05
 BYTE   Gs1  v116
 BYTE   W06
 BYTE   N06  Gs1  v112
 BYTE   W07
 BYTE   N12  Cn1  v127
 BYTE   N05  Bn1  v108
 BYTE   W06
 BYTE   Gs1
 BYTE   W06
 BYTE   N04  Gs1  v100
 BYTE   W05
 BYTE   N07  Bn1  v048
 BYTE   W07
 BYTE   N06  Gs1  v084
 BYTE   W06
 BYTE   N12  Cn1  v127
 BYTE   W06
 BYTE   N04  Gs1  v080
 BYTE   W06
 BYTE   Gs1  v104
 BYTE   W06
 BYTE   N12  Cn1  v127
 BYTE   N04  Gs1  v080
 BYTE   W06
 BYTE   N07  Bn1  v108
 BYTE   W06
 BYTE   N04  Gs1  v096
 BYTE   W06
 BYTE   N12  Cn1  v127
 BYTE   W12
// 017   ----------------------------------------
 BYTE   N12
 BYTE   N04  Fs1  v120
 BYTE   W05
 BYTE   Gs1  v108
 BYTE   W06
 BYTE   N06  Gs1  v100
 BYTE   W07
 BYTE   N12  Cn1  v127
 BYTE   N05  Bn1  v108
 BYTE   W06
 BYTE   Gs1  v100
 BYTE   W06
 BYTE   N04  Gs1  v116
 BYTE   W05
 BYTE   N07  Bn1  v048
 BYTE   W07
 BYTE   N06  Gs1  v104
 BYTE   W06
 BYTE   N12  Cn1  v127
 BYTE   W06
 BYTE   N04  Gs1  v100
 BYTE   W06
 BYTE   Gs1  v116
 BYTE   W06
 BYTE   N12  Cn1  v127
 BYTE   N04  Gs1  v088
 BYTE   W06
 BYTE   N07  Bn1  v108
 BYTE   W06
 BYTE   N04  Gs1  v116
 BYTE   W06
 BYTE   N12  Cn1  v127
 BYTE   W06
 BYTE   N06  Gs1  v116
 BYTE   W06
// 018   ----------------------------------------
Label_9_015AA370:
 BYTE   N12  Cn1  v127
 BYTE   N04  Fs1  v120
 BYTE   W05
 BYTE   Gs1  v104
 BYTE   W06
 BYTE   N06  Gs1  v120
 BYTE   W07
 BYTE   N12  Cn1  v127
 BYTE   N05  Bn1  v108
 BYTE   W06
 BYTE   PEND 
 BYTE   Gs1  v092
 BYTE   W06
 BYTE   N04  Gs1  v120
 BYTE   W05
 BYTE   N07  Bn1  v048
 BYTE   W07
 BYTE   N06  Gs1  v104
 BYTE   W06
 BYTE   N12  Cn1  v127
 BYTE   W06
 BYTE   N04  Gs1  v104
 BYTE   W06
 BYTE   Gs1  v088
 BYTE   W06
 BYTE   N12  Cn1  v127
 BYTE   N04  Gs1  v108
 BYTE   W06
 BYTE   N07  Bn1
 BYTE   W06
 BYTE   N04  Gs1  v084
 BYTE   W06
 BYTE   N12  Cn1  v127
 BYTE   W12
// 019   ----------------------------------------
 BYTE   N12
 BYTE   N04  Fs1  v120
 BYTE   W05
 BYTE   Gs1  v088
 BYTE   W06
 BYTE   N06  Gs1  v104
 BYTE   W07
 BYTE   N12  Cn1  v127
 BYTE   N05  Bn1  v108
 BYTE   W06
 BYTE   Gs1  v120
 BYTE   W06
 BYTE   N04  Gs1  v108
 BYTE   W05
 BYTE   N07  Bn1  v048
 BYTE   W07
 BYTE   N06  Gs1  v104
 BYTE   W06
 BYTE   N12  Cn1  v127
 BYTE   W06
 BYTE   N04  Gs1  v084
 BYTE   W06
 BYTE   Gs1  v092
 BYTE   W06
 BYTE   N12  Cn1  v127
 BYTE   N04  Gs1  v112
 BYTE   W06
 BYTE   N07  Bn1  v108
 BYTE   W06
 BYTE   N04  Gs1  v088
 BYTE   W06
 BYTE   N12  Cn1  v127
 BYTE   W06
 BYTE   N06  Gs1  v100
 BYTE   W06
// 020   ----------------------------------------
 BYTE   N12  Cn1  v127
 BYTE   N04  Fs1  v120
 BYTE   W05
 BYTE   Gs1  v092
 BYTE   W06
 BYTE   N06  Gs1  v120
 BYTE   W07
 BYTE   N12  Cn1  v127
 BYTE   N05  Bn1  v108
 BYTE   W06
 BYTE   Gs1  v116
 BYTE   W06
 BYTE   N04  Gs1  v100
 BYTE   W05
 BYTE   N07  Bn1  v048
 BYTE   W07
 BYTE   N06  Gs1  v096
 BYTE   W06
 BYTE   N12  Cn1  v127
 BYTE   W06
 BYTE   N04  Gs1  v112
 BYTE   W06
 BYTE   Gs1  v084
 BYTE   W06
 BYTE   N12  Cn1  v127
 BYTE   N04  Gs1  v084
 BYTE   W06
 BYTE   N07  Bn1  v108
 BYTE   W06
 BYTE   N04  Gs1  v088
 BYTE   W06
 BYTE   N12  Cn1  v127
 BYTE   W12
// 021   ----------------------------------------
 BYTE   N12
 BYTE   N04  Fs1  v120
 BYTE   W05
 BYTE   Gs1
 BYTE   W06
 BYTE   N06  Gs1  v096
 BYTE   W07
 BYTE   N12  Cn1  v127
 BYTE   N05  Bn1  v108
 BYTE   W06
 BYTE   Gs1  v100
 BYTE   W06
 BYTE   N04  Gs1  v108
 BYTE   W05
 BYTE   N07  Bn1  v048
 BYTE   W07
 BYTE   N06  Gs1  v088
 BYTE   W06
 BYTE   N12  Cn1  v127
 BYTE   W06
 BYTE   N04  Gs1  v112
 BYTE   W06
 BYTE   Gs1  v108
 BYTE   W06
 BYTE   N12  Cn1  v127
 BYTE   N04  Gs1  v084
 BYTE   W06
 BYTE   N07  Bn1  v108
 BYTE   W06
 BYTE   N04  Gs1  v084
 BYTE   W06
 BYTE   N12  Cn1  v127
 BYTE   W06
 BYTE   N06  Gs1  v100
 BYTE   W06
 BYTE   PATT
  POIN2 Label_9_015AA370
// 022   ----------------------------------------
 BYTE   N05  Gs1  v084
 BYTE   W06
 BYTE   N04  Gs1  v120
 BYTE   W05
 BYTE   N07  Bn1  v048
 BYTE   W07
 BYTE   N06  Gs1  v092
 BYTE   W06
 BYTE   N12  Cn1  v127
 BYTE   W06
 BYTE   N04  Gs1  v092
 BYTE   W06
 BYTE   Gs1  v120
 BYTE   W06
 BYTE   N12  Cn1  v127
 BYTE   N04  Gs1  v104
 BYTE   W06
 BYTE   N07  Bn1  v108
 BYTE   W06
 BYTE   N04  Gs1  v120
 BYTE   W06
 BYTE   N12  Cn1  v127
 BYTE   W12
 BYTE   N12
 BYTE   N04  Fs1  v120
 BYTE   W05
 BYTE   Gs1  v088
 BYTE   W06
 BYTE   N06  Gs1  v084
 BYTE   W07
 BYTE   N12  Cn1  v127
 BYTE   N05  Bn1  v108
 BYTE   W06
// 023   ----------------------------------------
 BYTE   Gs1  v088
 BYTE   W06
 BYTE   N04  Gs1  v096
 BYTE   W05
 BYTE   N07  Bn1  v048
 BYTE   W07
 BYTE   N06  Gs1  v120
 BYTE   W06
 BYTE   N12  Cn1  v127
 BYTE   W06
 BYTE   N04  Gs1  v092
 BYTE   W06
 BYTE   Gs1  v116
 BYTE   W06
 BYTE   N12  Cn1  v127
 BYTE   N04  Gs1  v108
 BYTE   W06
 BYTE   N07  Bn1
 BYTE   W06
 BYTE   N04  Gs1  v104
 BYTE   W06
 BYTE   N12  Cn1  v127
 BYTE   W06
 BYTE   N06  Gs1  v120
 BYTE   W06
 BYTE   N12  Cn1  v127
 BYTE   N04  Fs1  v120
 BYTE   W05
 BYTE   Gs1  v096
 BYTE   W06
 BYTE   N06  Gs1  v112
 BYTE   W07
 BYTE   N05  Bn1  v108
 BYTE   W06
// 024   ----------------------------------------
 BYTE   Gs1  v084
 BYTE   W06
 BYTE   N04  Gs1  v116
 BYTE   W05
 BYTE   N07  Bn1  v048
 BYTE   W07
 BYTE   N06  Gs1  v100
 BYTE   W06
 BYTE   W06
 BYTE   N04  Gs1  v088
 BYTE   W06
 BYTE   Gs1  v092
 BYTE   W06
 BYTE   Gs1  v096
 BYTE   W06
 BYTE   N07  Bn1  v108
 BYTE   W06
 BYTE   N04  Gs1  v088
 BYTE   W18
 BYTE   Fs1  v120
 BYTE   W05
 BYTE   Gs1  v116
 BYTE   W06
 BYTE   N06  Gs1  v100
 BYTE   W07
 BYTE   N05  Bn1  v108
 BYTE   W06
// 025   ----------------------------------------
 BYTE   Gs1  v084
 BYTE   W06
 BYTE   N04  Gs1  v104
 BYTE   W05
 BYTE   N07  Bn1  v048
 BYTE   W07
 BYTE   N06  Gs1  v088
 BYTE   W06
 BYTE   W06
 BYTE   N04  Gs1  v100
 BYTE   W06
 BYTE   N04
 BYTE   W06
 BYTE   N04
 BYTE   W06
 BYTE   N07  Bn1  v108
 BYTE   W06
 BYTE   N04  Gs1  v100
 BYTE   W12
 BYTE   N06  Gs1  v104
 BYTE   W06
 BYTE   GoTo
  POIN2 Label_9_015A9F3A
// 026   ----------------------------------------
 BYTE   BEND   c_v+0
 BYTE   FINE

//******************************************************//
	ALIGN 4

PokemonMDExplorersQuicksandPitRandomWizard:
	BYTE	10	// NumTrks
	BYTE	0	// NumBlks
	BYTE	PokemonMDExplorersQuicksandPitRandomWizard_pri	// Priority
	BYTE	PokemonMDExplorersQuicksandPitRandomWizard_rev	// Reverb.
    
	POIN2	PokemonMDExplorersQuicksandPitRandomWizard_grp
    
	POIN2	PokemonMDExplorersQuicksandPitRandomWizard_001
	POIN2	PokemonMDExplorersQuicksandPitRandomWizard_002
	POIN2	PokemonMDExplorersQuicksandPitRandomWizard_003
	POIN2	PokemonMDExplorersQuicksandPitRandomWizard_004
	POIN2	PokemonMDExplorersQuicksandPitRandomWizard_005
	POIN2	PokemonMDExplorersQuicksandPitRandomWizard_006
	POIN2	PokemonMDExplorersQuicksandPitRandomWizard_007
	POIN2	PokemonMDExplorersQuicksandPitRandomWizard_008
	POIN2	PokemonMDExplorersQuicksandPitRandomWizard_009
	POIN2	PokemonMDExplorersQuicksandPitRandomWizard_010

	
