//Event file generated from Sappy .s format.
	#include "MPlayDef.event"

	#define	PokemonPinballBluePandan_grp  voicegroup000
	#define	PokemonPinballBluePandan_pri  10
	#define	PokemonPinballBluePandan_rev  0
	#define	PokemonPinballBluePandan_mvl  127
	#define	PokemonPinballBluePandan_key  0
	#define	PokemonPinballBluePandan_tbs  1
	#define	PokemonPinballBluePandan_exg  0
	#define	PokemonPinballBluePandan_cmp  1

	// .rodata
	//	PokemonPinballBluePandan
	ALIGN 4


//**************** Track 1 (Midi-Chn.0) ****************//

PokemonPinballBluePandan_001:
// 000   ----------------------------------------
Label_0_0131D494:
 BYTE   TEMPO   96*PokemonPinballBluePandan_tbs/2
 BYTE   KEYSH   PokemonPinballBluePandan_key+0
 BYTE   VOICE   75
 BYTE   VOL   45*PokemonPinballBluePandan_mvl/mxv
 BYTE   PAN   c_v-17
 BYTE   N12  Gs3  v127
 BYTE   W12
 BYTE   N06  Bn2
 BYTE   W06
 BYTE   N06  En3
 BYTE   W06
 BYTE   N06  Gs3
 BYTE   W06
 BYTE   N12
 BYTE   W24
 BYTE   N06  Bn2
 BYTE   W06
 BYTE   N06  Fn3
 BYTE   W06
 BYTE   N06  Gs3
 BYTE   W06
 BYTE   N12  As3
 BYTE   W12
 BYTE   N06  An3
 BYTE   W06
 BYTE   N12  Gs3
 BYTE   W12
// 001   ----------------------------------------
 BYTE   N12  Cs3
 BYTE   W96
// 002   ----------------------------------------
 BYTE   W48
 BYTE   N06  An3
 BYTE   W18
 BYTE   N06  Fs3
 BYTE   W06
 BYTE   N06  An3
 BYTE   W12
 BYTE   N06
 BYTE   W78
// 003   ----------------------------------------
 BYTE   N06  As3
 BYTE   W12
 BYTE   N06  Cs4
 BYTE   W06
 BYTE   N06  As3
 BYTE   W12
 BYTE   N12  Fs3
 BYTE   W24
 BYTE   N06  Cs3
 BYTE   W06
 BYTE   N06  En3
 BYTE   W06
 BYTE   N06  Fs3
 BYTE   W06
 BYTE   N03  Fn3
 BYTE   W03
 BYTE   N09  Fs3
 BYTE   W24
// 004   ----------------------------------------
 BYTE   W03
 BYTE   N12  Ds3
 BYTE   W42
 BYTE   N03  Gs3
 BYTE   W03
 BYTE   N09  An3
 BYTE   W24
 BYTE   W03
 BYTE   N18
 BYTE   W18
 BYTE   N06  Fs5  v081
 BYTE   W06
// 005   ----------------------------------------
 BYTE   N12  Gs5
 BYTE   W12
 BYTE   N06  An5
 BYTE   W06
 BYTE   N12  Gs3  v127
 BYTE   W12
 BYTE   N06
 BYTE   W06
 BYTE   N12
 BYTE   W12
 BYTE   N12  En3
 BYTE   W18
 BYTE   N06
 BYTE   W18
 BYTE   N06  Gs3
 BYTE   W06
 BYTE   N12  As3
 BYTE   W12
// 006   ----------------------------------------
 BYTE   N06  Cs3
 BYTE   W06
 BYTE   N12  Fs3
 BYTE   W12
 BYTE   N12  As3
 BYTE   W90
// 007   ----------------------------------------
 BYTE   N06  Bn4  v091
 BYTE   W72
 BYTE   N06  As4
 BYTE   W72
// 008   ----------------------------------------
 BYTE   N06
 BYTE   W36
 BYTE   N06  Fs4
 BYTE   W36
 BYTE   N06
 BYTE   W72
// 009   ----------------------------------------
 BYTE   N06  En4
 BYTE   W72
 BYTE   N06
 BYTE   W36
// 010   ----------------------------------------
 BYTE   N06  Fs3
 BYTE   W06
 BYTE   N06  As3
 BYTE   W06
 BYTE   N06  Fs3
 BYTE   W06
 BYTE   N06  As3
 BYTE   W06
 BYTE   N06  Fs3
 BYTE   W06
 BYTE   N06  As3
 BYTE   W24
 BYTE   N06  Fs4  v080
 BYTE   W06
 BYTE   N03  Fn3  v127
 BYTE   W03
 BYTE   N12  Fs3
 BYTE   W15
 BYTE   N12  Ds3
 BYTE   W18
// 011   ----------------------------------------
 BYTE   N12  An3
 BYTE   W18
 BYTE   N06  Cn4
 BYTE   W12
 BYTE   N03  Dn4
 BYTE   W03
 BYTE   N09  Ds4
 BYTE   W15
 BYTE   N06  Bn4  v080
 BYTE   W18
 BYTE   N12  Gs3  v127
 BYTE   W18
 BYTE   N12  Ds4
 BYTE   W06
 BYTE   N06  Bn4  v080
 BYTE   W12
// 012   ----------------------------------------
 BYTE   N06  Gs3  v127
 BYTE   W06
 BYTE   N03  Fs3
 BYTE   W03
 BYTE   N09  Gn3
 BYTE   W09
 BYTE   N12  En3
 BYTE   W06
 BYTE   N06  Cs5  v080
 BYTE   W12
 BYTE   N18  En3  v127
 BYTE   W18
 BYTE   N12  Gs3
 BYTE   W06
 BYTE   N06  Cs5  v080
 BYTE   W12
 BYTE   N06  Bn3  v127
 BYTE   W06
 BYTE   N24  As3
 BYTE   W18
// 013   ----------------------------------------
 BYTE   N06  Cs5  v080
 BYTE   W12
 BYTE   N18  Fs3  v127
 BYTE   W18
 BYTE   N12  As3
 BYTE   W06
 BYTE   N06  Cs5  v080
 BYTE   W12
 BYTE   N06  Fs3  v127
 BYTE   W06
 BYTE   N03  Fn4
 BYTE   W03
 BYTE   N12  Fs4
 BYTE   W09
 BYTE   N06  Cs5  v080
 BYTE   W06
 BYTE   N12  Gs4  v127
 BYTE   W12
 BYTE   N12  Ds4
 BYTE   W24
// 014   ----------------------------------------
 BYTE   N12  Ds5
 BYTE   W18
 BYTE   N06  En5
 BYTE   W06
 BYTE   N06  Bn4
 BYTE   W06
 BYTE   N06  Gs4
 BYTE   W06
 BYTE   N06  En4
 BYTE   W06
 BYTE   N06  Bn3
 BYTE   W06
 BYTE   N06  Gs3
 BYTE   W06
 BYTE   N06  En3
 BYTE   W06
 BYTE   N06  Cs3
 BYTE   W06
 BYTE   N06  Bn2
 BYTE   W06
 BYTE   N06  Cs3
 BYTE   W06
 BYTE   N06  Bn2
 BYTE   W06
 BYTE   N06  Cs3
 BYTE   W06
 BYTE   N06
 BYTE   W06
// 015   ----------------------------------------
 BYTE   N06  Fs3
 BYTE   W06
 BYTE   N06  Cs3
 BYTE   W06
 BYTE   N06  Fs3
 BYTE   W06
 BYTE   N06  Cs3
 BYTE   W06
 BYTE   N06  Fs3
 BYTE   W06
 BYTE   N06  Cs3
 BYTE   W06
 BYTE   N06  As3
 BYTE   W06
 BYTE   N06  Cs3
 BYTE   W06
 BYTE   N06  As3
 BYTE   W06
 BYTE   N06  Cs3  v091
 BYTE   W06
 BYTE   N06  As3
 BYTE   W06
 BYTE   N06  Fs3
 BYTE   W06
 BYTE   N06  As3
 BYTE   W06
 BYTE   N06  Fs3
 BYTE   W06
 BYTE   N06  As3
 BYTE   W06
 BYTE   N06  Fs3  v099
 BYTE   W06
// 016   ----------------------------------------
 BYTE   N06  As3
 BYTE   W06
 BYTE   N06  Fs3  v110
 BYTE   W06
 BYTE   N06  As3
 BYTE   W06
 BYTE   N06  Fs3  v120
 BYTE   W06
 BYTE   N06  As3
 BYTE   W06
 BYTE   N06  Fs3  v127
 BYTE   W06
 BYTE   N06  As3
 BYTE   W06
 BYTE   N03  En3
 BYTE   W03
 BYTE   N24  Gs3
 BYTE   W24
 BYTE   W03
 BYTE   N12  En3
 BYTE   W18
 BYTE   N18
 BYTE   W18
// 017   ----------------------------------------
 BYTE   N06  Cs3
 BYTE   W06
 BYTE   N24  Fs3
 BYTE   W36
 BYTE   N24  As3
 BYTE   W96
// 018   ----------------------------------------
 BYTE   W96
// 019   ----------------------------------------
 BYTE   W18
 BYTE   N06  An3
 BYTE   W06
 BYTE   N06
 BYTE   W12
 BYTE   N06  Fs3
 BYTE   W06
 BYTE   N06  An3
 BYTE   W12
 BYTE   N06
 BYTE   W78
// 020   ----------------------------------------
 BYTE   N06  As3
 BYTE   W12
 BYTE   N06  Cs4
 BYTE   W06
 BYTE   N06  As3
 BYTE   W12
 BYTE   N12  Fs3
 BYTE   W18
 BYTE   N06  Cs3
 BYTE   W06
 BYTE   N06
 BYTE   W06
 BYTE   N06  En3
 BYTE   W06
 BYTE   N06  Fs3
 BYTE   W06
 BYTE   N03  Fn3
 BYTE   W03
 BYTE   N09  Fs3
 BYTE   W24
// 021   ----------------------------------------
 BYTE   W03
 BYTE   N12  Ds3
 BYTE   W42
 BYTE   N03  Gs3
 BYTE   W03
 BYTE   N15  An3
 BYTE   W24
 BYTE   W03
 BYTE   N18
 BYTE   W18
 BYTE   N06  Fs5  v081
 BYTE   W06
// 022   ----------------------------------------
 BYTE   N12  Gs5
 BYTE   W12
 BYTE   N06  An5
 BYTE   W06
 BYTE   N12  Gs3  v127
 BYTE   W12
 BYTE   N06
 BYTE   W06
 BYTE   N12
 BYTE   W12
 BYTE   N12  En3
 BYTE   W18
 BYTE   N06
 BYTE   W18
 BYTE   N06
 BYTE   W06
 BYTE   N12  As3
 BYTE   W12
// 023   ----------------------------------------
 BYTE   N06  Cs3
 BYTE   W06
 BYTE   N12  Fs3
 BYTE   W12
 BYTE   N12  As3
 BYTE   W90
// 024   ----------------------------------------
 BYTE   N06  Bn4  v091
 BYTE   W72
 BYTE   N06  As4
 BYTE   W72
// 025   ----------------------------------------
 BYTE   N06
 BYTE   W36
 BYTE   N06  Fs4
 BYTE   W36
 BYTE   N06
 BYTE   W72
// 026   ----------------------------------------
 BYTE   N06  En4
 BYTE   W72
 BYTE   N06
 BYTE   W36
// 027   ----------------------------------------
 BYTE   N06  Fs3
 BYTE   W06
 BYTE   N06  As3
 BYTE   W06
 BYTE   N06  Fs3
 BYTE   W06
 BYTE   N06  As3
 BYTE   W06
 BYTE   N06  Fs3
 BYTE   W06
 BYTE   N06  As3
 BYTE   W24
 BYTE   N06  Fs4  v080
 BYTE   W06
 BYTE   N03  Fn3  v127
 BYTE   W03
 BYTE   N12  Fs3
 BYTE   W15
 BYTE   N12  Ds3
 BYTE   W18
// 028   ----------------------------------------
 BYTE   N12  An3
 BYTE   W18
 BYTE   N06  Cn4
 BYTE   W12
 BYTE   N03  Dn4
 BYTE   W03
 BYTE   N09  Ds4
 BYTE   W15
 BYTE   N06  Bn4  v080
 BYTE   W18
 BYTE   N12  Gs3  v127
 BYTE   W18
 BYTE   N12  Ds4
 BYTE   W06
 BYTE   N06  Bn4  v080
 BYTE   W12
// 029   ----------------------------------------
 BYTE   N06  Gs3  v127
 BYTE   W06
 BYTE   N03  Fs3
 BYTE   W03
 BYTE   N09  Gn3
 BYTE   W09
 BYTE   N12  En3
 BYTE   W06
 BYTE   N06  Cs5  v080
 BYTE   W12
 BYTE   N18  En3  v127
 BYTE   W18
 BYTE   N12  Gs3
 BYTE   W06
 BYTE   N06  Cs5  v080
 BYTE   W12
 BYTE   N06  Bn3  v127
 BYTE   W06
 BYTE   N24  As3
 BYTE   W18
// 030   ----------------------------------------
 BYTE   N06  Cs5  v080
 BYTE   W12
 BYTE   N18  Fs3  v127
 BYTE   W18
 BYTE   N12  As3
 BYTE   W06
 BYTE   N06  Cs5  v080
 BYTE   W12
 BYTE   N06  Fs3  v127
 BYTE   W06
 BYTE   N03  Fn4
 BYTE   W03
 BYTE   N12  Fs4
 BYTE   W09
 BYTE   N06  Cs5  v080
 BYTE   W06
 BYTE   N12  Gs4  v127
 BYTE   W12
 BYTE   N12  Ds4
 BYTE   W24
// 031   ----------------------------------------
 BYTE   N12  Ds5
 BYTE   W18
 BYTE   N06  En5
 BYTE   W06
 BYTE   N06  Bn4
 BYTE   W06
 BYTE   N06  Gs4
 BYTE   W06
 BYTE   N06  En4
 BYTE   W06
 BYTE   N06  Bn3
 BYTE   W06
 BYTE   N06  Gs3
 BYTE   W06
 BYTE   N06  En3
 BYTE   W06
 BYTE   N06  Cs3
 BYTE   W06
 BYTE   N06  Bn2
 BYTE   W06
 BYTE   N06  Cs3
 BYTE   W06
 BYTE   N06  Bn2
 BYTE   W06
 BYTE   N06  Cs3
 BYTE   W06
 BYTE   N06
 BYTE   W06
// 032   ----------------------------------------
 BYTE   N06  Fs3
 BYTE   W06
 BYTE   N06  Cs3
 BYTE   W06
 BYTE   N06  Fs3
 BYTE   W06
 BYTE   N06  Cs3
 BYTE   W06
 BYTE   N06  Fs3
 BYTE   W06
 BYTE   N06  Cs3
 BYTE   W06
 BYTE   N06  As3
 BYTE   W06
 BYTE   N06  Cs3
 BYTE   W06
 BYTE   N06  As3
 BYTE   W06
 BYTE   N06  Cs3  v091
 BYTE   W06
 BYTE   N06  As3
 BYTE   W06
 BYTE   N06  Fs3
 BYTE   W06
 BYTE   N06  As3
 BYTE   W06
 BYTE   N06  Fs3
 BYTE   W06
 BYTE   N06  As3
 BYTE   W06
 BYTE   N06  Fs3  v099
 BYTE   W06
// 033   ----------------------------------------
 BYTE   N06  As3
 BYTE   W06
 BYTE   N06  Fs3  v110
 BYTE   W06
 BYTE   N06  As3
 BYTE   W06
 BYTE   N06  Fs3  v120
 BYTE   W06
 BYTE   N06  As3
 BYTE   W06
 BYTE   N06  Fs3  v127
 BYTE   W06
 BYTE   N06  As3
 BYTE   W06
 BYTE   N03  En3
 BYTE   W03
 BYTE   N24  Gs3
 BYTE   W24
 BYTE   W03
 BYTE   N12  En3
 BYTE   W18
 BYTE   N18
 BYTE   W18
// 034   ----------------------------------------
 BYTE   N06  Cs3
 BYTE   W06
 BYTE   N24  Fs3
 BYTE   W36
 BYTE   N24  As3
 BYTE   W24
 BYTE   W96
// 035   ----------------------------------------
 BYTE   W96
// 036   ----------------------------------------
 BYTE   W30
 BYTE   GoTo
  POIN2 Label_0_0131D494
 BYTE   FINE

//**************** Track 2 (Midi-Chn.1) ****************//

PokemonPinballBluePandan_002:
// 000   ----------------------------------------
Label_1_0131D7C0:
 BYTE   TEMPO   96*PokemonPinballBluePandan_tbs/2
 BYTE   KEYSH   PokemonPinballBluePandan_key+0
 BYTE   VOICE   73
 BYTE   VOL   11*PokemonPinballBluePandan_mvl/mxv
 BYTE   PAN   c_v+33
 BYTE   N12  Ds4  v127
 BYTE   W12
 BYTE   N06  En3
 BYTE   W06
 BYTE   N06  Gs3
 BYTE   W06
 BYTE   N06  Bn3
 BYTE   W06
 BYTE   N12  Ds4
 BYTE   W24
 BYTE   N06  En3
 BYTE   W06
 BYTE   N06  Gs3
 BYTE   W06
 BYTE   N06  Bn3
 BYTE   W06
 BYTE   N12  Ds4
 BYTE   W12
 BYTE   N06  Dn4
 BYTE   W06
 BYTE   N12  Cs4
 BYTE   W12
// 001   ----------------------------------------
 BYTE   N12  Fs3
 BYTE   W18
 BYTE   N06
 BYTE   W06
 BYTE   N06  Gs3
 BYTE   W12
 BYTE   N06  As3
 BYTE   W06
 BYTE   N03  Bn3
 BYTE   W03
 BYTE   N09  Cs4
 BYTE   W09
 BYTE   N06  Fs3  v099
 BYTE   W06
 BYTE   N12  Gs3
 BYTE   W12
 BYTE   N18  Bn3  v127
 BYTE   W18
 BYTE   N06  Fs3  v099
 BYTE   W06
// 002   ----------------------------------------
 BYTE   N12  Gs3
 BYTE   W12
 BYTE   N06  Fs3
 BYTE   W06
 BYTE   N03  Dn4  v127
 BYTE   W03
 BYTE   N09  Ds4
 BYTE   W15
 BYTE   N06  Gs3  v080
 BYTE   W06
 BYTE   N06  Fs3
 BYTE   W06
 BYTE   N06  En4  v127
 BYTE   W06
 BYTE   N06  Fs3  v080
 BYTE   W06
 BYTE   N06  Gs3
 BYTE   W06
 BYTE   N06  Ds4  v127
 BYTE   W06
 BYTE   N06  En4
 BYTE   W06
 BYTE   N06  Gs3  v080
 BYTE   W06
 BYTE   N06  Fs4  v127
 BYTE   W06
 BYTE   N03  Cs4
 BYTE   W03
 BYTE   N09  Ds4
 BYTE   W09
// 003   ----------------------------------------
 BYTE   N06  Dn4
 BYTE   W06
 BYTE   N06  Cs4
 BYTE   W06
 BYTE   N06  Gn3  v080
 BYTE   W06
 BYTE   N06  Bn3  v127
 BYTE   W06
 BYTE   N06  En3  v080
 BYTE   W06
 BYTE   N06  Fs3
 BYTE   W06
 BYTE   N06  Gs3  v127
 BYTE   W06
 BYTE   N06  An3  v080
 BYTE   W06
 BYTE   N06  As3
 BYTE   W06
 BYTE   N06  Bn3  v127
 BYTE   W06
 BYTE   N06  Ds4
 BYTE   W12
 BYTE   N06  Fs4
 BYTE   W06
 BYTE   N06  Ds4
 BYTE   W12
 BYTE   N12  Cs4
 BYTE   W24
// 004   ----------------------------------------
 BYTE   N06  Fs3
 BYTE   W06
 BYTE   N06  Gs3
 BYTE   W06
 BYTE   N06  As3
 BYTE   W06
 BYTE   N03  Bn3
 BYTE   W03
 BYTE   N09  Cs4
 BYTE   W15
 BYTE   N06  Fs3
 BYTE   W06
 BYTE   N06  Gs3
 BYTE   W06
 BYTE   N12  Bn3
 BYTE   W18
 BYTE   N06  Fs5  v099
 BYTE   W06
 BYTE   N12  Fn5
 BYTE   W12
 BYTE   N06  En5
 BYTE   W06
 BYTE   N03  Dn4  v127
 BYTE   W03
 BYTE   N09  Ds4
 BYTE   W15
// 005   ----------------------------------------
 BYTE   N06  Fs3  v080
 BYTE   W06
 BYTE   N06  An3
 BYTE   W06
 BYTE   N06  En4  v127
 BYTE   W06
 BYTE   N06  An3  v080
 BYTE   W06
 BYTE   N06  Cn4
 BYTE   W06
 BYTE   N06  Ds4  v127
 BYTE   W06
 BYTE   N12  En4
 BYTE   W12
 BYTE   N06  Fs4
 BYTE   W06
 BYTE   N03  Cs4
 BYTE   W03
 BYTE   N09  Ds4
 BYTE   W09
 BYTE   N06  Dn4
 BYTE   W06
 BYTE   N06  Cs4
 BYTE   W06
 BYTE   N06  Gs3  v080
 BYTE   W06
 BYTE   N06  Bn3  v127
 BYTE   W06
 BYTE   N06  En3  v080
 BYTE   W06
// 006   ----------------------------------------
 BYTE   N06  Fs3
 BYTE   W06
 BYTE   N06  Gs3  v127
 BYTE   W06
 BYTE   N06  An3  v080
 BYTE   W06
 BYTE   N06  As3
 BYTE   W06
 BYTE   N06  Bn3  v127
 BYTE   W06
 BYTE   N06  Ds4
 BYTE   W12
 BYTE   N06  Fs4
 BYTE   W06
 BYTE   N06  Ds4
 BYTE   W12
 BYTE   N12  Cs4
 BYTE   W24
 BYTE   N06  Ds4
 BYTE   W06
 BYTE   N06  En4
 BYTE   W06
// 007   ----------------------------------------
 BYTE   N06  Fs4
 BYTE   W06
 BYTE   N03
 BYTE   W03
 BYTE   N09  Gs4
 BYTE   W09
 BYTE   N06  Bn4  v080
 BYTE   W06
 BYTE   N06  Ds3
 BYTE   W06
 BYTE   N06  En3
 BYTE   W06
 BYTE   N06  Gs3
 BYTE   W06
 BYTE   N06  Bn3
 BYTE   W12
 BYTE   N12  Ds4  v127
 BYTE   W18
 BYTE   N12  Cs4
 BYTE   W18
 BYTE   N06  As4  v080
 BYTE   W06
// 008   ----------------------------------------
 BYTE   N06  Cs3
 BYTE   W06
 BYTE   N06  Ds3
 BYTE   W06
 BYTE   N06  Gs3
 BYTE   W06
 BYTE   N06  As3
 BYTE   W12
 BYTE   N06  Cs4  v127
 BYTE   W06
 BYTE   N12  Ds4
 BYTE   W12
 BYTE   N06  En4
 BYTE   W06
 BYTE   N12  Fs4
 BYTE   W12
 BYTE   N06  As4  v080
 BYTE   W06
 BYTE   N06  Ds3
 BYTE   W06
 BYTE   N06  Fs3
 BYTE   W06
 BYTE   N06  Cs4  v127
 BYTE   W06
 BYTE   N06  As3  v080
 BYTE   W06
// 009   ----------------------------------------
 BYTE   N06  Cs4
 BYTE   W06
 BYTE   N06  Fs4  v127
 BYTE   W06
 BYTE   N06  Fs3  v080
 BYTE   W06
 BYTE   N06  As3
 BYTE   W06
 BYTE   N06  Cs4  v127
 BYTE   W06
 BYTE   N03  Cn4
 BYTE   W03
 BYTE   N09  Cs4
 BYTE   W09
 BYTE   N06  Bn3
 BYTE   W06
 BYTE   N12  As3
 BYTE   W12
 BYTE   N06  Bn3
 BYTE   W06
 BYTE   N06  Bn2  v080
 BYTE   W06
 BYTE   N06  Ds3
 BYTE   W06
 BYTE   N06  As3  v127
 BYTE   W06
 BYTE   N06  Ds3  v080
 BYTE   W06
 BYTE   N06  Fs3
 BYTE   W06
// 010   ----------------------------------------
 BYTE   N06  Bn3  v127
 BYTE   W06
 BYTE   N12  Gs3
 BYTE   W12
 BYTE   N06  En4  v080
 BYTE   W06
 BYTE   N06  Gs3
 BYTE   W06
 BYTE   N06  Bn3
 BYTE   W06
 BYTE   N06  En4  v127
 BYTE   W06
 BYTE   N06  En3  v080
 BYTE   W06
 BYTE   N06  Gs3
 BYTE   W06
 BYTE   N06  Ds4  v127
 BYTE   W06
 BYTE   N06  Cs3  v080
 BYTE   W06
 BYTE   N06  En3
 BYTE   W06
 BYTE   N06  Cs4  v127
 BYTE   W06
 BYTE   N12  Bn3
 BYTE   W12
 BYTE   N06  En4  v080
 BYTE   W06
// 011   ----------------------------------------
 BYTE   N06  Cs3
 BYTE   W06
 BYTE   N06  En3
 BYTE   W06
 BYTE   N06  As3  v127
 BYTE   W06
 BYTE   N06  En3  v080
 BYTE   W06
 BYTE   N06  Fs3
 BYTE   W06
 BYTE   N06  Bn3  v127
 BYTE   W06
 BYTE   N06  Fs3  v080
 BYTE   W06
 BYTE   N06  As3
 BYTE   W06
 BYTE   N06  Cs4  v127
 BYTE   W06
 BYTE   N24  Ds4
 BYTE   W36
 BYTE   N06  Fs3  v080
 BYTE   W06
// 012   ----------------------------------------
 BYTE   N06  As3
 BYTE   W06
 BYTE   N06  Fs3
 BYTE   W06
 BYTE   N06  As3
 BYTE   W06
 BYTE   N06  Fs3
 BYTE   W06
 BYTE   N06  As3
 BYTE   W06
 BYTE   N03  Bn3  v127
 BYTE   W03
 BYTE   N12  Cs4
 BYTE   W15
 BYTE   N12  Cn4
 BYTE   W18
 BYTE   N12  En4
 BYTE   W18
 BYTE   N06  Fs4
 BYTE   W12
// 013   ----------------------------------------
 BYTE   N03
 BYTE   W03
 BYTE   N09  Gs4
 BYTE   W15
 BYTE   N06  Bn4  v080
 BYTE   W06
 BYTE   N06  Ds3
 BYTE   W06
 BYTE   N06  En3
 BYTE   W06
 BYTE   N12  Ds4  v127
 BYTE   W18
 BYTE   N12  Gs4
 BYTE   W18
 BYTE   N06  Ds4
 BYTE   W06
 BYTE   N03  Dn4
 BYTE   W03
 BYTE   N09  Ds4
 BYTE   W09
 BYTE   N06  Cs4
 BYTE   W06
// 014   ----------------------------------------
 BYTE   N12  Cn4
 BYTE   W12
 BYTE   N18  Cs4
 BYTE   W18
 BYTE   N12  Cn4
 BYTE   W18
 BYTE   N06  Cs4
 BYTE   W06
 BYTE   N12  Fs4
 BYTE   W12
 BYTE   N06  As4  v080
 BYTE   W06
 BYTE   N06  Cs3
 BYTE   W06
 BYTE   N06  Ds3
 BYTE   W06
 BYTE   N06  Cs4  v127
 BYTE   W06
 BYTE   N06  Ds3  v080
 BYTE   W06
// 015   ----------------------------------------
 BYTE   N06  Fs3
 BYTE   W06
 BYTE   N06  Fs4  v127
 BYTE   W06
 BYTE   N06  Fs3  v080
 BYTE   W06
 BYTE   N06  As3
 BYTE   W06
 BYTE   N06  Cs4  v127
 BYTE   W06
 BYTE   N03  Gs4
 BYTE   W03
 BYTE   N09  As4
 BYTE   W09
 BYTE   N06  Gs4  v091
 BYTE   W06
 BYTE   N12  Bn4  v127
 BYTE   W12
 BYTE   N12  Gs4
 BYTE   W18
 BYTE   N06  Gs4  v091
 BYTE   W06
 BYTE   N12  Gs3  v127
 BYTE   W12
// 016   ----------------------------------------
 BYTE   N06  Bn3
 BYTE   W06
 BYTE   N03  Ds4
 BYTE   W03
 BYTE   N09  En4
 BYTE   W09
 BYTE   N06  Gs4  v080
 BYTE   W06
 BYTE   N06
 BYTE   W12
 BYTE   N06  Bn3  v127
 BYTE   W06
 BYTE   N06  Gs3  v080
 BYTE   W06
 BYTE   N06  Bn3  v127
 BYTE   W06
 BYTE   N06  En4
 BYTE   W06
 BYTE   N06  Gs4  v080
 BYTE   W06
 BYTE   N06  En4
 BYTE   W06
 BYTE   N06  Bn3  v127
 BYTE   W06
 BYTE   N12
 BYTE   W12
 BYTE   N06  As3
 BYTE   W06
// 017   ----------------------------------------
 BYTE   N12  Gs3
 BYTE   W12
 BYTE   N18  As3
 BYTE   W24
 BYTE   N12  Fs3
 BYTE   W18
 BYTE   N03  Cs4
 BYTE   W03
 BYTE   N36  Ds4
 BYTE   W68
// 018   ----------------------------------------
 BYTE   W01
 BYTE   N03  Bn3  v081
 BYTE   W03
 BYTE   N24  Cs4  v127
 BYTE   W24
 BYTE   W03
 BYTE   N12  Bn3
 BYTE   W18
 BYTE   N18
 BYTE   W18
 BYTE   N06  Gs3
 BYTE   W06
 BYTE   N03  Cs4
 BYTE   W03
 BYTE   N36  Ds4
 BYTE   W68
// 019   ----------------------------------------
 BYTE   W01
 BYTE   N03  As3  v081
 BYTE   W03
 BYTE   N12  Bn3  v080
 BYTE   W15
 BYTE   N18  Gs3
 BYTE   W18
 BYTE   N12  As3
 BYTE   W12
 BYTE   N06  Fs3  v127
 BYTE   W06
 BYTE   N12  Gs3
 BYTE   W12
 BYTE   N06  As3
 BYTE   W06
 BYTE   N03  Bn3
 BYTE   W03
 BYTE   N09  Cs4
 BYTE   W09
 BYTE   N06  Fs3  v099
 BYTE   W06
 BYTE   N12  Gs3
 BYTE   W12
// 020   ----------------------------------------
 BYTE   N18  Bn3  v127
 BYTE   W18
 BYTE   N06  Fs3  v099
 BYTE   W06
 BYTE   N12  Gs3
 BYTE   W12
 BYTE   N06  Fs3
 BYTE   W06
 BYTE   N03  Dn4  v127
 BYTE   W03
 BYTE   N09  Ds4
 BYTE   W15
 BYTE   N06  Gs3  v080
 BYTE   W06
 BYTE   N06  Fs3
 BYTE   W06
 BYTE   N06  En4  v127
 BYTE   W06
 BYTE   N06  Fs3  v080
 BYTE   W06
 BYTE   N06  Gs3
 BYTE   W06
 BYTE   N06  Ds4  v127
 BYTE   W06
// 021   ----------------------------------------
 BYTE   N06  En4
 BYTE   W06
 BYTE   N06  Gs3  v080
 BYTE   W06
 BYTE   N06  Fs4  v127
 BYTE   W06
 BYTE   N03  Cs4
 BYTE   W03
 BYTE   N09  Ds4
 BYTE   W09
 BYTE   N06  Dn4
 BYTE   W06
 BYTE   N06  Cs4
 BYTE   W06
 BYTE   N06  Gn3  v080
 BYTE   W06
 BYTE   N06  Bn3  v127
 BYTE   W06
 BYTE   N06  En3  v080
 BYTE   W06
 BYTE   N06  Fs3
 BYTE   W06
 BYTE   N06  Gs3  v127
 BYTE   W06
 BYTE   N06  An3  v080
 BYTE   W06
 BYTE   N06  As3
 BYTE   W06
 BYTE   N06  Bn3  v127
 BYTE   W06
 BYTE   N06  Ds4
 BYTE   W12
// 022   ----------------------------------------
 BYTE   N06  Fs4
 BYTE   W06
 BYTE   N06  Ds4
 BYTE   W12
 BYTE   N12  Cs4
 BYTE   W24
 BYTE   N06  Fs3
 BYTE   W06
 BYTE   N06  Gs3
 BYTE   W06
 BYTE   N06  As3
 BYTE   W06
 BYTE   N03  Bn3
 BYTE   W03
 BYTE   N09  Cs4
 BYTE   W15
 BYTE   N06  Fs3
 BYTE   W06
 BYTE   N06  Gs3
 BYTE   W06
 BYTE   N12  Bn3
 BYTE   W18
// 023   ----------------------------------------
 BYTE   N06  Fs5  v099
 BYTE   W06
 BYTE   N12  Fn5
 BYTE   W12
 BYTE   N06  En5
 BYTE   W06
 BYTE   N03  Dn4  v127
 BYTE   W03
 BYTE   N09  Ds4
 BYTE   W15
 BYTE   N06  Fs3  v080
 BYTE   W06
 BYTE   N06  An3
 BYTE   W06
 BYTE   N06  En4  v127
 BYTE   W06
 BYTE   N06  An3  v080
 BYTE   W06
 BYTE   N06  Cn4
 BYTE   W06
 BYTE   N06  Ds4  v127
 BYTE   W06
 BYTE   N12  En4
 BYTE   W12
 BYTE   N06  Fs4
 BYTE   W06
// 024   ----------------------------------------
 BYTE   N03  Cs4
 BYTE   W03
 BYTE   N09  Ds4
 BYTE   W09
 BYTE   N06  Dn4
 BYTE   W06
 BYTE   N06  Cs4
 BYTE   W06
 BYTE   N06  Gs3  v080
 BYTE   W06
 BYTE   N06  Bn3  v127
 BYTE   W06
 BYTE   N06  En3  v080
 BYTE   W06
 BYTE   N06  Fs3
 BYTE   W06
 BYTE   N06  Gs3  v127
 BYTE   W06
 BYTE   N06  An3  v080
 BYTE   W06
 BYTE   N06  As3
 BYTE   W06
 BYTE   N06  Bn3  v127
 BYTE   W06
 BYTE   N06  Ds4
 BYTE   W12
 BYTE   N06  Fs4
 BYTE   W06
 BYTE   N06  Ds4
 BYTE   W12
// 025   ----------------------------------------
 BYTE   N12  Cs4
 BYTE   W24
 BYTE   N06  Ds4
 BYTE   W06
 BYTE   N06  En4
 BYTE   W06
 BYTE   N06  Fs4
 BYTE   W06
 BYTE   N03
 BYTE   W03
 BYTE   N09  Gs4
 BYTE   W09
 BYTE   N06  Bn4  v080
 BYTE   W06
 BYTE   N06  Ds3
 BYTE   W06
 BYTE   N06  En3
 BYTE   W06
 BYTE   N06  Gs3
 BYTE   W06
 BYTE   N06  Bn3
 BYTE   W12
 BYTE   N12  Ds4  v127
 BYTE   W18
// 026   ----------------------------------------
 BYTE   N12  Cs4
 BYTE   W18
 BYTE   N06  As4  v080
 BYTE   W06
 BYTE   N06  Cs3
 BYTE   W06
 BYTE   N06  Ds3
 BYTE   W06
 BYTE   N06  Gs3
 BYTE   W06
 BYTE   N06  As3
 BYTE   W12
 BYTE   N06  Cs4  v127
 BYTE   W06
 BYTE   N12  Ds4
 BYTE   W12
 BYTE   N06  En4
 BYTE   W06
 BYTE   N12  Fs4
 BYTE   W12
 BYTE   N06  As4  v080
 BYTE   W06
// 027   ----------------------------------------
 BYTE   N06  Ds3
 BYTE   W06
 BYTE   N06  Fs3
 BYTE   W06
 BYTE   N06  Cs4  v127
 BYTE   W06
 BYTE   N06  As3  v080
 BYTE   W06
 BYTE   N06  Cs4
 BYTE   W06
 BYTE   N06  Fs4  v127
 BYTE   W06
 BYTE   N06  Fs3  v080
 BYTE   W06
 BYTE   N06  As3
 BYTE   W06
 BYTE   N06  Cs4  v127
 BYTE   W06
 BYTE   N03  Cn4
 BYTE   W03
 BYTE   N09  Cs4
 BYTE   W09
 BYTE   N06  Bn3
 BYTE   W06
 BYTE   N12  As3
 BYTE   W12
 BYTE   N06  Bn3
 BYTE   W06
 BYTE   N06  Bn2  v080
 BYTE   W06
// 028   ----------------------------------------
 BYTE   N06  Ds3
 BYTE   W06
 BYTE   N06  As3  v127
 BYTE   W06
 BYTE   N06  Ds3  v080
 BYTE   W06
 BYTE   N06  Fs3
 BYTE   W06
 BYTE   N06  Bn3  v127
 BYTE   W06
 BYTE   N12  Gs3
 BYTE   W12
 BYTE   N06  En4  v080
 BYTE   W06
 BYTE   N06  Gs3
 BYTE   W06
 BYTE   N06  Bn3
 BYTE   W06
 BYTE   N06  En4  v127
 BYTE   W06
 BYTE   N06  En3  v080
 BYTE   W06
 BYTE   N06  Gs3
 BYTE   W06
 BYTE   N06  Ds4  v127
 BYTE   W06
 BYTE   N06  Cs3  v080
 BYTE   W06
 BYTE   N06  En3
 BYTE   W06
// 029   ----------------------------------------
 BYTE   N06  Cs4  v127
 BYTE   W06
 BYTE   N12  Bn3
 BYTE   W12
 BYTE   N06  En4  v080
 BYTE   W06
 BYTE   N06  Cs3
 BYTE   W06
 BYTE   N06  En3
 BYTE   W06
 BYTE   N06  As3  v127
 BYTE   W06
 BYTE   N06  En3  v080
 BYTE   W06
 BYTE   N06  Fs3
 BYTE   W06
 BYTE   N06  Bn3  v127
 BYTE   W06
 BYTE   N06  Fs3  v080
 BYTE   W06
 BYTE   N06  As3
 BYTE   W06
 BYTE   N06  Cs4  v127
 BYTE   W06
 BYTE   N24  Ds4
 BYTE   W36
// 030   ----------------------------------------
 BYTE   N06  Fs3  v080
 BYTE   W06
 BYTE   N06  As3
 BYTE   W06
 BYTE   N06  Fs3
 BYTE   W06
 BYTE   N06  As3
 BYTE   W06
 BYTE   N06  Fs3
 BYTE   W06
 BYTE   N06  As3
 BYTE   W06
 BYTE   N03  Bn3  v127
 BYTE   W03
 BYTE   N12  Cs4
 BYTE   W15
 BYTE   N12  Cn4
 BYTE   W18
 BYTE   N12  En4
 BYTE   W18
 BYTE   N06  Fs4
 BYTE   W12
// 031   ----------------------------------------
 BYTE   N03
 BYTE   W03
 BYTE   N12  Gs4
 BYTE   W15
 BYTE   N06  Bn4  v080
 BYTE   W06
 BYTE   N06  Ds3
 BYTE   W06
 BYTE   N06  En3
 BYTE   W06
 BYTE   N12  Ds4  v127
 BYTE   W18
 BYTE   N12  Gs4
 BYTE   W18
 BYTE   N06  Ds4
 BYTE   W06
 BYTE   N12
 BYTE   W12
 BYTE   N06  Cs4
 BYTE   W06
// 032   ----------------------------------------
 BYTE   N12  Cn4
 BYTE   W12
 BYTE   N18  Cs4
 BYTE   W18
 BYTE   N18  Cn4
 BYTE   W18
 BYTE   N06  Cs4
 BYTE   W06
 BYTE   N12  Fs4
 BYTE   W12
 BYTE   N06  As4  v080
 BYTE   W06
 BYTE   N06  Cs3
 BYTE   W06
 BYTE   N06  Ds3
 BYTE   W06
 BYTE   N06  Cs4  v127
 BYTE   W06
 BYTE   N06  Ds3  v080
 BYTE   W06
// 033   ----------------------------------------
 BYTE   N06  Fs3
 BYTE   W06
 BYTE   N06  Fs4  v127
 BYTE   W06
 BYTE   N06  Fs3  v080
 BYTE   W06
 BYTE   N06  As3
 BYTE   W06
 BYTE   N06  Cs4  v127
 BYTE   W06
 BYTE   N03  Gs4
 BYTE   W03
 BYTE   N09  As4
 BYTE   W09
 BYTE   N06  Gs4  v091
 BYTE   W06
 BYTE   N12  Bn4  v127
 BYTE   W12
 BYTE   N12  Gs4
 BYTE   W18
 BYTE   N06  Gs4  v091
 BYTE   W06
 BYTE   N12  Gs3  v127
 BYTE   W12
// 034   ----------------------------------------
 BYTE   N06  Bn3
 BYTE   W06
 BYTE   N03  Ds4
 BYTE   W03
 BYTE   N09  En4
 BYTE   W09
 BYTE   N06  Gs4  v080
 BYTE   W06
 BYTE   N06
 BYTE   W12
 BYTE   N06  Bn3  v127
 BYTE   W06
 BYTE   N06  Gs3  v080
 BYTE   W06
 BYTE   N06  Bn3  v127
 BYTE   W06
 BYTE   N06  En4
 BYTE   W06
 BYTE   N06  Gs4  v080
 BYTE   W06
 BYTE   N06  En4
 BYTE   W06
 BYTE   N06  Bn3  v127
 BYTE   W06
 BYTE   N12
 BYTE   W12
 BYTE   N06  As3
 BYTE   W06
// 035   ----------------------------------------
 BYTE   N12  Gs3
 BYTE   W12
 BYTE   N18  As3
 BYTE   W24
 BYTE   N12  Fs3
 BYTE   W18
 BYTE   N03  Cs4
 BYTE   W03
 BYTE   N36  Ds4
 BYTE   W68
// 036   ----------------------------------------
 BYTE   W01
 BYTE   N03  Bn3  v081
 BYTE   W03
 BYTE   N24  Cs4  v127
 BYTE   W24
 BYTE   W03
 BYTE   N12  Bn3
 BYTE   W18
 BYTE   N18
 BYTE   W18
 BYTE   N06  Gs3
 BYTE   W06
 BYTE   N03  Cs4
 BYTE   W03
 BYTE   N36  Ds4
 BYTE   W56
// 037   ----------------------------------------
 BYTE   W01
 BYTE   W12
 BYTE   N03  As3  v081
 BYTE   W03
 BYTE   N12  Bn3  v080
 BYTE   W15
 BYTE   N18  Gs3
 BYTE   W18
 BYTE   N12  As3
 BYTE   W12
 BYTE   N06  Fs3  v127
 BYTE   W06
 BYTE   N12  Gs3
 BYTE   W12
 BYTE   N06  As3
 BYTE   W06
 BYTE   N03  Bn3
 BYTE   W03
 BYTE   N09  Cs4
 BYTE   W09
// 038   ----------------------------------------
 BYTE   N06  Fs3  v099
 BYTE   W06
 BYTE   N12  Gs3
 BYTE   W12
 BYTE   N18  Bn3  v127
 BYTE   W18
 BYTE   N06  Fs3  v099
 BYTE   W06
 BYTE   N12  Gs3
 BYTE   W12
 BYTE   N06  Fs3
 BYTE   W06
 BYTE   N03  Dn4  v127
 BYTE   W03
 BYTE   N09  Ds4
 BYTE   W15
 BYTE   N06  Gs3  v080
 BYTE   W06
 BYTE   N06  Fs3
 BYTE   W06
 BYTE   N06  En4  v127
 BYTE   W06
// 039   ----------------------------------------
 BYTE   N06  Fs3  v080
 BYTE   W06
 BYTE   N06  Gs3
 BYTE   W06
 BYTE   N06  Ds4  v127
 BYTE   W06
 BYTE   N06  En4
 BYTE   W06
 BYTE   N06  Gs3  v080
 BYTE   W06
 BYTE   N06  Fs4  v127
 BYTE   GoTo
  POIN2 Label_1_0131D7C0
 BYTE   FINE

//**************** Track 3 (Midi-Chn.2) ****************//

PokemonPinballBluePandan_003:
// 000   ----------------------------------------
Label_2_0131DDDC:
 BYTE   TEMPO   96*PokemonPinballBluePandan_tbs/2
 BYTE   KEYSH   PokemonPinballBluePandan_key+0
 BYTE   VOICE   34
 BYTE   VOL   40*PokemonPinballBluePandan_mvl/mxv
 BYTE   PAN   c_v-13
 BYTE   N12  En2  v127
 BYTE   W30
 BYTE   N24  Fn2
 BYTE   W42
 BYTE   N12  Fs2
 BYTE   W30
// 001   ----------------------------------------
 BYTE   N12  Fs1
 BYTE   W42
 BYTE   N12  Bn1
 BYTE   W12
 BYTE   N06  Bn2
 BYTE   W06
 BYTE   N12  As2
 BYTE   W18
 BYTE   N12  An2
 BYTE   W18
// 002   ----------------------------------------
 BYTE   N12  Gs2
 BYTE   W18
 BYTE   N06  Fs2
 BYTE   W06
 BYTE   N06  Ds2
 BYTE   W06
 BYTE   N06  Cn2
 BYTE   W06
 BYTE   N18  An1
 BYTE   W18
 BYTE   N18  An2
 BYTE   W18
 BYTE   N12  Gs2
 BYTE   W12
 BYTE   N06  Ds2
 BYTE   W06
 BYTE   N12  Cs2
 BYTE   W18
// 003   ----------------------------------------
 BYTE   N06  Cs3
 BYTE   W06
 BYTE   N06  Cn3
 BYTE   W06
 BYTE   N06  Bn2
 BYTE   W06
 BYTE   N12  Gs2
 BYTE   W12
 BYTE   N06  En2
 BYTE   W06
 BYTE   N12  Cs2
 BYTE   W12
 BYTE   N06  Gs2
 BYTE   W06
 BYTE   N06  As2
 BYTE   W06
 BYTE   N06  Fs2
 BYTE   W06
 BYTE   N06  En2
 BYTE   W06
 BYTE   N06  Cs2
 BYTE   W12
 BYTE   N12  As2
 BYTE   W24
// 004   ----------------------------------------
 BYTE   N06  Cs2
 BYTE   W06
 BYTE   N06  As1
 BYTE   W06
 BYTE   N06  Fs1
 BYTE   W06
 BYTE   N12  Bn1
 BYTE   W12
 BYTE   N06  Bn2
 BYTE   W06
 BYTE   N12  As2
 BYTE   W18
 BYTE   N12  An2
 BYTE   W18
 BYTE   N09  Gs2
 BYTE   W18
 BYTE   N06  Fs2
 BYTE   W06
// 005   ----------------------------------------
 BYTE   N06  Ds2
 BYTE   W06
 BYTE   N06  Cn2
 BYTE   W06
 BYTE   N18  Gs1
 BYTE   W18
 BYTE   N18  An2
 BYTE   W18
 BYTE   N12  Gs2
 BYTE   W12
 BYTE   N06  Ds2
 BYTE   W06
 BYTE   N12  Cs2
 BYTE   W18
 BYTE   N06  Cs3
 BYTE   W06
 BYTE   N06  Cn3
 BYTE   W06
// 006   ----------------------------------------
 BYTE   N06  Bn2
 BYTE   W06
 BYTE   N12  Gs2
 BYTE   W12
 BYTE   N06  En2
 BYTE   W06
 BYTE   N12  Cs2
 BYTE   W12
 BYTE   N06  En2
 BYTE   W06
 BYTE   N06  As2
 BYTE   W06
 BYTE   N06  Fs2
 BYTE   W06
 BYTE   N06  En2
 BYTE   W06
 BYTE   N06  Cs2
 BYTE   W12
 BYTE   N12  Fs1
 BYTE   W42
// 007   ----------------------------------------
 BYTE   N06  En1
 BYTE   W12
 BYTE   N06
 BYTE   N06  Ds4
 BYTE   W06
 BYTE   N06  En1
 BYTE   W06
 BYTE   N06  Ds2
 BYTE   W06
 BYTE   N06  Bn1
 BYTE   W06
 BYTE   N06  En1
 BYTE   W12
 BYTE   N06  Ds4
 BYTE   W06
 BYTE   N12  En1
 BYTE   W12
 BYTE   N06
 BYTE   W06
 BYTE   N06
 BYTE   W12
 BYTE   N06
 BYTE   N06  Cs4
 BYTE   W06
 BYTE   N06  En1
 BYTE   W06
// 008   ----------------------------------------
 BYTE   N06  Cs2
 BYTE   W06
 BYTE   N06  As1
 BYTE   W06
 BYTE   N06  En1
 BYTE   W12
 BYTE   N06  Cs4
 BYTE   W06
 BYTE   N12  En1
 BYTE   W12
 BYTE   N06
 BYTE   W06
 BYTE   N06  Ds1
 BYTE   W12
 BYTE   N06
 BYTE   N06  Cs4
 BYTE   W06
 BYTE   N06  Ds1
 BYTE   W06
 BYTE   N06  Cs2
 BYTE   W06
 BYTE   N06  As1
 BYTE   W06
 BYTE   N06  Ds1
 BYTE   W12
// 009   ----------------------------------------
 BYTE   N06  Cs4
 BYTE   W06
 BYTE   N12  Ds1
 BYTE   W12
 BYTE   N06
 BYTE   W06
 BYTE   N06
 BYTE   W12
 BYTE   N06  Bn3
 BYTE   N06  Ds1
 BYTE   W06
 BYTE   N06
 BYTE   W06
 BYTE   N06  Bn1
 BYTE   W06
 BYTE   N06  Gs1
 BYTE   W06
 BYTE   N06  Ds1
 BYTE   W12
 BYTE   N06  Bn3
 BYTE   W06
 BYTE   N06  Ds1
 BYTE   W06
 BYTE   N06  Fs1
 BYTE   W06
 BYTE   N06  Bn1
 BYTE   W06
// 010   ----------------------------------------
 BYTE   N06  Cs1
 BYTE   W12
 BYTE   N06
 BYTE   N06  Bn3
 BYTE   W06
 BYTE   N06  Cs1
 BYTE   W06
 BYTE   N06  Bn1
 BYTE   W06
 BYTE   N06  Gs1
 BYTE   W06
 BYTE   N06  Cs1
 BYTE   W12
 BYTE   N06  Bn3
 BYTE   W06
 BYTE   N12  Cs1
 BYTE   W12
 BYTE   N06
 BYTE   W06
 BYTE   N06
 BYTE   W12
 BYTE   N06
 BYTE   N06  As3
 BYTE   W06
 BYTE   N06  Cs1
 BYTE   W06
// 011   ----------------------------------------
 BYTE   N06  As1
 BYTE   W06
 BYTE   N06  Fs1
 BYTE   W06
 BYTE   N06  Cs1
 BYTE   W12
 BYTE   N06  As3
 BYTE   W06
 BYTE   N12  Cs1
 BYTE   W12
 BYTE   N06
 BYTE   W06
 BYTE   N06  Bn0
 BYTE   W12
 BYTE   N06  As3
 BYTE   N06  Bn0
 BYTE   W06
 BYTE   N06
 BYTE   W06
 BYTE   N06  As1
 BYTE   W06
 BYTE   N06  Fs1
 BYTE   W06
 BYTE   N06  Bn0
 BYTE   W12
// 012   ----------------------------------------
 BYTE   N06
 BYTE   N06  As3
 BYTE   W06
 BYTE   N06  Bn0
 BYTE   W06
 BYTE   N06  Ds1
 BYTE   W06
 BYTE   N06  Fs1
 BYTE   W06
 BYTE   N12  Cs1
 BYTE   W12
 BYTE   N06  Cn1
 BYTE   W06
 BYTE   N06  Cs1
 BYTE   W06
 BYTE   N06  An1
 BYTE   W06
 BYTE   N06  Fs1
 BYTE   W06
 BYTE   N06  Cs1
 BYTE   W12
 BYTE   N06  Cn1
 BYTE   W06
 BYTE   N12  Cs1
 BYTE   W12
 BYTE   N06  Fs1
 BYTE   W06
// 013   ----------------------------------------
 BYTE   N06  En1
 BYTE   W12
 BYTE   N06
 BYTE   N06  Ds4
 BYTE   W06
 BYTE   N06  En1
 BYTE   N06  En4
 BYTE   W06
 BYTE   N06  Ds2
 BYTE   W06
 BYTE   N06  Bn1
 BYTE   W06
 BYTE   N06  En1
 BYTE   W18
 BYTE   N06  En4
 BYTE   N12  En1
 BYTE   W12
 BYTE   N06
 BYTE   N06  En4
 BYTE   W06
 BYTE   N06  En1
 BYTE   W12
 BYTE   N06
 BYTE   N06  En4
 BYTE   W06
 BYTE   N06  En1
 BYTE   N06  Fn4
 BYTE   W06
// 014   ----------------------------------------
 BYTE   N06  Cs2
 BYTE   W06
 BYTE   N06  As1
 BYTE   W06
 BYTE   N06  En1
 BYTE   W18
 BYTE   N06  Fn4
 BYTE   N12  En1
 BYTE   W12
 BYTE   N06
 BYTE   N06  Fn4
 BYTE   W06
 BYTE   N06  Ds1
 BYTE   W12
 BYTE   N06
 BYTE   N06  Fn4
 BYTE   W06
 BYTE   N06  Ds1
 BYTE   N06  Fs4
 BYTE   W06
 BYTE   N06  Cs2
 BYTE   W06
 BYTE   N06  As1
 BYTE   W06
 BYTE   N06  Ds1
 BYTE   W18
// 015   ----------------------------------------
 BYTE   N06  Fs4
 BYTE   N12  Ds1
 BYTE   W12
 BYTE   N06
 BYTE   N06  Fs4
 BYTE   W06
 BYTE   N06  Ds1
 BYTE   W12
 BYTE   N06
 BYTE   N06  Gn4
 BYTE   W06
 BYTE   N06  Gs4
 BYTE   N06  Ds1
 BYTE   W06
 BYTE   N06  Bn1
 BYTE   W06
 BYTE   N06  Gs1
 BYTE   W06
 BYTE   N06  Ds1
 BYTE   W18
 BYTE   N06  Gs4
 BYTE   N12  Ds1
 BYTE   W12
 BYTE   N06
 BYTE   N06  Gs4
 BYTE   W06
 BYTE   N06  Cs1
 BYTE   W12
// 016   ----------------------------------------
 BYTE   N06
 BYTE   N06  Cn4
 BYTE   W06
 BYTE   N06  Cs4
 BYTE   N06  Cs1
 BYTE   W06
 BYTE   N06  Bn1
 BYTE   W06
 BYTE   N06  Gs1
 BYTE   W06
 BYTE   N06  Cs1
 BYTE   W18
 BYTE   N06  Cs4
 BYTE   N12  Cs1
 BYTE   W12
 BYTE   N06
 BYTE   N06  Cs4
 BYTE   W06
 BYTE   N06  Cs1
 BYTE   W12
 BYTE   N06
 BYTE   N06  An3
 BYTE   W06
 BYTE   N06  Cs1
 BYTE   N06  As3
 BYTE   W06
 BYTE   N06  As1
 BYTE   W06
 BYTE   N06  Fs1
 BYTE   W06
// 017   ----------------------------------------
 BYTE   N06  Cs1
 BYTE   W18
 BYTE   N06  As3
 BYTE   N12  Cs1
 BYTE   W12
 BYTE   N06
 BYTE   N06  As3
 BYTE   W06
 BYTE   N12  Bn0
 BYTE   W12
 BYTE   N06
 BYTE   W06
 BYTE   N06
 BYTE   W06
 BYTE   N06  As1
 BYTE   W06
 BYTE   N06  Fs1
 BYTE   W06
 BYTE   N06  Bn0
 BYTE   W12
 BYTE   N06
 BYTE   W06
 BYTE   N06
 BYTE   W12
// 018   ----------------------------------------
 BYTE   N06
 BYTE   W06
 BYTE   N12  Cs1
 BYTE   W12
 BYTE   N06
 BYTE   W06
 BYTE   N06
 BYTE   W06
 BYTE   N06  Bn1
 BYTE   W06
 BYTE   N06  Gs1
 BYTE   W06
 BYTE   N06  Cs1
 BYTE   W12
 BYTE   N06
 BYTE   W06
 BYTE   N06
 BYTE   W12
 BYTE   N06
 BYTE   W06
 BYTE   N12  Bn0
 BYTE   W12
 BYTE   N06
 BYTE   W06
// 019   ----------------------------------------
 BYTE   N06
 BYTE   W06
 BYTE   N06  As1
 BYTE   W06
 BYTE   N06  Fs1
 BYTE   W06
 BYTE   N06  Bn0
 BYTE   W12
 BYTE   N06
 BYTE   W06
 BYTE   N06
 BYTE   W12
 BYTE   N06
 BYTE   W06
 BYTE   N12  Cs1
 BYTE   W12
 BYTE   N06
 BYTE   W06
 BYTE   N06
 BYTE   W06
 BYTE   N06  Bn1
 BYTE   W06
 BYTE   N06  Gs1
 BYTE   W06
 BYTE   N06  Cs1
 BYTE   W12
// 020   ----------------------------------------
 BYTE   N06
 BYTE   W06
 BYTE   N06
 BYTE   W12
 BYTE   N06
 BYTE   W06
 BYTE   N12  Bn1
 BYTE   W12
 BYTE   N06  Bn2
 BYTE   W06
 BYTE   N12  As2
 BYTE   W18
 BYTE   N12  An2
 BYTE   W18
 BYTE   N12  Gs2
 BYTE   W18
// 021   ----------------------------------------
 BYTE   N06  Fs2
 BYTE   W06
 BYTE   N06  Ds2
 BYTE   W06
 BYTE   N06  Cn2
 BYTE   W06
 BYTE   N18  An1
 BYTE   W18
 BYTE   N18  An2
 BYTE   W18
 BYTE   N12  Gs2
 BYTE   W12
 BYTE   N06  Ds2
 BYTE   W06
 BYTE   N12  Cs2
 BYTE   W18
 BYTE   N06  Cs3
 BYTE   W06
// 022   ----------------------------------------
 BYTE   N06  Cn3
 BYTE   W06
 BYTE   N06  Bn2
 BYTE   W06
 BYTE   N12  Gs2
 BYTE   W12
 BYTE   N06  En2
 BYTE   W06
 BYTE   N12  Cs2
 BYTE   W12
 BYTE   N06  Gs2
 BYTE   W06
 BYTE   N06  As2
 BYTE   W06
 BYTE   N06  Fs2
 BYTE   W06
 BYTE   N06  En2
 BYTE   W06
 BYTE   N06  Cs2
 BYTE   W12
 BYTE   N12  As2
 BYTE   W24
// 023   ----------------------------------------
 BYTE   N06  Cs2
 BYTE   W06
 BYTE   N06  As1
 BYTE   W06
 BYTE   N06  Fs1
 BYTE   W06
 BYTE   N12  Bn1
 BYTE   W12
 BYTE   N06  Bn2
 BYTE   W06
 BYTE   N12  As2
 BYTE   W18
 BYTE   N12  An2
 BYTE   W18
 BYTE   N09  Gs2
 BYTE   W18
 BYTE   N06  Fs2
 BYTE   W06
// 024   ----------------------------------------
 BYTE   N06  Ds2
 BYTE   W06
 BYTE   N06  Cn2
 BYTE   W06
 BYTE   N18  Gs1
 BYTE   W18
 BYTE   N18  An2
 BYTE   W18
 BYTE   N12  Gs2
 BYTE   W12
 BYTE   N06  Ds2
 BYTE   W06
 BYTE   N12  Cs2
 BYTE   W18
 BYTE   N06  Cs3
 BYTE   W06
 BYTE   N06  Cn3
 BYTE   W06
// 025   ----------------------------------------
 BYTE   N06  Bn2
 BYTE   W06
 BYTE   N12  Gs2
 BYTE   W12
 BYTE   N06  En2
 BYTE   W06
 BYTE   N12  Cs2
 BYTE   W12
 BYTE   N06  En2
 BYTE   W06
 BYTE   N06  As2
 BYTE   W06
 BYTE   N06  Fs2
 BYTE   W06
 BYTE   N06  En2
 BYTE   W06
 BYTE   N06  Cs2
 BYTE   W12
 BYTE   N12  Fs1
 BYTE   W42
// 026   ----------------------------------------
 BYTE   N06  En1
 BYTE   W12
 BYTE   N06
 BYTE   N06  Ds4
 BYTE   W06
 BYTE   N06  En1
 BYTE   W06
 BYTE   N06  Ds2
 BYTE   W06
 BYTE   N06  Bn1
 BYTE   W06
 BYTE   N06  En1
 BYTE   W12
 BYTE   N06  Ds4
 BYTE   W06
 BYTE   N12  En1
 BYTE   W12
 BYTE   N06
 BYTE   W06
 BYTE   N06
 BYTE   W12
 BYTE   N06
 BYTE   N06  Cs4
 BYTE   W06
 BYTE   N06  En1
 BYTE   W06
// 027   ----------------------------------------
 BYTE   N06  Cs2
 BYTE   W06
 BYTE   N06  As1
 BYTE   W06
 BYTE   N06  En1
 BYTE   W12
 BYTE   N06  Cs4
 BYTE   W06
 BYTE   N12  En1
 BYTE   W12
 BYTE   N06
 BYTE   W06
 BYTE   N06  Ds1
 BYTE   W12
 BYTE   N06
 BYTE   N06  Cs4
 BYTE   W06
 BYTE   N06  Ds1
 BYTE   W06
 BYTE   N06  Cs2
 BYTE   W06
 BYTE   N06  As1
 BYTE   W06
 BYTE   N06  Ds1
 BYTE   W12
// 028   ----------------------------------------
 BYTE   N06  Cs4
 BYTE   W06
 BYTE   N12  Ds1
 BYTE   W12
 BYTE   N06
 BYTE   W06
 BYTE   N06
 BYTE   W12
 BYTE   N06  Bn3
 BYTE   N06  Ds1
 BYTE   W06
 BYTE   N06
 BYTE   W06
 BYTE   N06  Bn1
 BYTE   W06
 BYTE   N06  Gs1
 BYTE   W06
 BYTE   N06  Ds1
 BYTE   W12
 BYTE   N06  Bn3
 BYTE   W06
 BYTE   N06  Ds1
 BYTE   W06
 BYTE   N06  Fs1
 BYTE   W06
 BYTE   N06  Bn1
 BYTE   W06
// 029   ----------------------------------------
 BYTE   N06  Cs1
 BYTE   W12
 BYTE   N06
 BYTE   N06  Bn3
 BYTE   W06
 BYTE   N06  Cs1
 BYTE   W06
 BYTE   N06  Bn1
 BYTE   W06
 BYTE   N06  Gs1
 BYTE   W06
 BYTE   N06  Cs1
 BYTE   W12
 BYTE   N06  Bn3
 BYTE   W06
 BYTE   N12  Cs1
 BYTE   W12
 BYTE   N06
 BYTE   W06
 BYTE   N06
 BYTE   W12
 BYTE   N06
 BYTE   N06  As3
 BYTE   W06
 BYTE   N06  Cs1
 BYTE   W06
// 030   ----------------------------------------
 BYTE   N06  As1
 BYTE   W06
 BYTE   N06  Fs1
 BYTE   W06
 BYTE   N06  Cs1
 BYTE   W12
 BYTE   N06  As3
 BYTE   W06
 BYTE   N12  Cs1
 BYTE   W12
 BYTE   N06
 BYTE   W06
 BYTE   N06  Bn0
 BYTE   W12
 BYTE   N06  As3
 BYTE   N06  Bn0
 BYTE   W06
 BYTE   N06
 BYTE   W06
 BYTE   N06  As1
 BYTE   W06
 BYTE   N06  Fs1
 BYTE   W06
 BYTE   N06  Bn0
 BYTE   W12
// 031   ----------------------------------------
 BYTE   N06
 BYTE   N06  As3
 BYTE   W06
 BYTE   N06  Bn0
 BYTE   W06
 BYTE   N06  Ds1
 BYTE   W06
 BYTE   N06  Fs1
 BYTE   W06
 BYTE   N12  Cs1
 BYTE   W12
 BYTE   N06  Cn1
 BYTE   W06
 BYTE   N06  Cs1
 BYTE   W06
 BYTE   N06  An1
 BYTE   W06
 BYTE   N06  Fs1
 BYTE   W06
 BYTE   N06  Cs1
 BYTE   W12
 BYTE   N06  Cn1
 BYTE   W06
 BYTE   N12  Cs1
 BYTE   W12
 BYTE   N06  Fs1
 BYTE   W06
// 032   ----------------------------------------
 BYTE   N06  En1
 BYTE   W12
 BYTE   N06
 BYTE   N06  Ds4
 BYTE   W06
 BYTE   N06  En1
 BYTE   N06  En4
 BYTE   W06
 BYTE   N06  Ds2
 BYTE   W06
 BYTE   N06  Bn1
 BYTE   W06
 BYTE   N06  En1
 BYTE   W18
 BYTE   N06  En4
 BYTE   N12  En1
 BYTE   W12
 BYTE   N06
 BYTE   N06  En4
 BYTE   W06
 BYTE   N06  En1
 BYTE   W12
 BYTE   N06
 BYTE   N06  En4
 BYTE   W06
 BYTE   N06  En1
 BYTE   N06  Fn4
 BYTE   W06
// 033   ----------------------------------------
 BYTE   N06  Cs2
 BYTE   W06
 BYTE   N06  As1
 BYTE   W06
 BYTE   N06  En1
 BYTE   W18
 BYTE   N06  Fn4
 BYTE   N12  En1
 BYTE   W12
 BYTE   N06
 BYTE   N06  Fn4
 BYTE   W06
 BYTE   N06  Ds1
 BYTE   W12
 BYTE   N06
 BYTE   N06  Fn4
 BYTE   W06
 BYTE   N06  Ds1
 BYTE   N06  Fs4
 BYTE   W06
 BYTE   N06  Cs2
 BYTE   W06
 BYTE   N06  As1
 BYTE   W06
 BYTE   N06  Ds1
 BYTE   W18
// 034   ----------------------------------------
 BYTE   N06  Fs4
 BYTE   N12  Ds1
 BYTE   W12
 BYTE   N06
 BYTE   N06  Fs4
 BYTE   W06
 BYTE   N06  Ds1
 BYTE   W12
 BYTE   N06
 BYTE   N06  Gn4
 BYTE   W06
 BYTE   N06  Gs4
 BYTE   N06  Ds1
 BYTE   W06
 BYTE   N06  Bn1
 BYTE   W06
 BYTE   N06  Gs1
 BYTE   W06
 BYTE   N06  Ds1
 BYTE   W18
 BYTE   N06  Gs4
 BYTE   N12  Ds1
 BYTE   W12
 BYTE   N06
 BYTE   N06  Gs4
 BYTE   W06
 BYTE   N06  Cs1
 BYTE   W12
// 035   ----------------------------------------
 BYTE   N06
 BYTE   N06  Cn4
 BYTE   W06
 BYTE   N06  Cs4
 BYTE   N06  Cs1
 BYTE   W06
 BYTE   N06  Bn1
 BYTE   W06
 BYTE   N06  Gs1
 BYTE   W06
 BYTE   N06  Cs1
 BYTE   W18
 BYTE   N06  Cs4
 BYTE   N12  Cs1
 BYTE   W12
 BYTE   N06
 BYTE   N06  Cs4
 BYTE   W06
 BYTE   N06  Cs1
 BYTE   W12
 BYTE   N06
 BYTE   N06  An3
 BYTE   W06
 BYTE   N06  Cs1
 BYTE   N06  As3
 BYTE   W06
 BYTE   N06  As1
 BYTE   W06
 BYTE   N06  Fs1
 BYTE   W06
// 036   ----------------------------------------
 BYTE   N06  Cs1
 BYTE   W18
 BYTE   N06  As3
 BYTE   N12  Cs1
 BYTE   W12
 BYTE   N06
 BYTE   N06  As3
 BYTE   W06
 BYTE   N12  Bn0
 BYTE   W12
 BYTE   N06
 BYTE   W06
 BYTE   N06
 BYTE   W06
 BYTE   N06  As1
 BYTE   W06
 BYTE   N06  Fs1
 BYTE   W06
 BYTE   N06  Bn0
 BYTE   W12
 BYTE   N06
 BYTE   W06
 BYTE   N06
 BYTE   W12
// 037   ----------------------------------------
 BYTE   N06
 BYTE   W06
 BYTE   N12  Cs1
 BYTE   W12
 BYTE   N06
 BYTE   W06
 BYTE   N06
 BYTE   W06
 BYTE   N06  Bn1
 BYTE   W06
 BYTE   N06  Gs1
 BYTE   W06
 BYTE   N06  Cs1
 BYTE   W12
 BYTE   N06
 BYTE   W06
 BYTE   N06
 BYTE   W12
 BYTE   N06
 BYTE   W06
 BYTE   N12  Bn0
 BYTE   W12
 BYTE   N06
 BYTE   W06
// 038   ----------------------------------------
 BYTE   N06
 BYTE   W06
 BYTE   N06  As1
 BYTE   W06
 BYTE   N06  Fs1
 BYTE   W06
 BYTE   N06  Bn0
 BYTE   W12
 BYTE   N06
 BYTE   W06
 BYTE   N06
 BYTE   W06
 BYTE   W06
 BYTE   N06  Bn0  v127
 BYTE   W06
 BYTE   N12  Cs1
 BYTE   W12
 BYTE   N06
 BYTE   W06
 BYTE   N06
 BYTE   W06
 BYTE   N06  Bn1
 BYTE   W06
 BYTE   N06  Gs1
 BYTE   W06
 BYTE   N06  Cs1
 BYTE   W12
// 039   ----------------------------------------
 BYTE   N06
 BYTE   W06
 BYTE   N06
 BYTE   W12
 BYTE   N06
 BYTE   W06
 BYTE   N12  Bn1
 BYTE   W12
 BYTE   N06  Bn2
 BYTE   W06
 BYTE   N12  As2
 BYTE   W18
 BYTE   N12  An2
 BYTE   W18
 BYTE   N12  Gs2
 BYTE   W18
// 040   ----------------------------------------
 BYTE   N06  Fs2
 BYTE   W06
 BYTE   N06  Ds2
 BYTE   W06
 BYTE   N06  Cn2
 BYTE   W06
 BYTE   N18  An1
 BYTE   W18
 BYTE   N18  An2
 BYTE   W18
 BYTE   N12  Gs2
 BYTE   W12
 BYTE   N06  Ds2
 BYTE   GoTo
  POIN2 Label_2_0131DDDC
 BYTE   FINE

//**************** Track 4 (Midi-Chn.3) ****************//

PokemonPinballBluePandan_004:
// 000   ----------------------------------------
Label_3_0131E334:
 BYTE   TEMPO   96*PokemonPinballBluePandan_tbs/2
 BYTE   KEYSH   PokemonPinballBluePandan_key+0
 BYTE   VOICE   127
 BYTE   VOL   40*PokemonPinballBluePandan_mvl/mxv
 BYTE   PAN   c_v+12
 BYTE   N06  As1  v127
 BYTE   W12
 BYTE   N06  Fs1
 BYTE   W06
 BYTE   N06
 BYTE   W06
 BYTE   N06
 BYTE   W06
 BYTE   N06
 BYTE   W24
 BYTE   N06
 BYTE   W06
 BYTE   N06
 BYTE   W06
 BYTE   N06
 BYTE   W06
 BYTE   N06  As1
 BYTE   W12
 BYTE   N06  Fs1
 BYTE   W06
 BYTE   N06
 BYTE   W12
// 001   ----------------------------------------
 BYTE   N06
 BYTE   W06
 BYTE   N06  Cn1
 BYTE   W12
 BYTE   N06  Fs1
 BYTE   W06
 BYTE   N06  Cn1
 BYTE   W06
 BYTE   N06  Fs1
 BYTE   W06
 BYTE   N06
 BYTE   W06
 BYTE   N06  As1
 BYTE   W12
 BYTE   N06  Fs1
 BYTE   W06
 BYTE   N06
 BYTE   W12
 BYTE   N06
 BYTE   W06
 BYTE   N06  Cn1
 BYTE   W12
 BYTE   N06  Fs1
 BYTE   W06
// 002   ----------------------------------------
 BYTE   N06
 BYTE   W12
 BYTE   N06
 BYTE   W06
 BYTE   N06
 BYTE   W12
 BYTE   N06
 BYTE   W06
 BYTE   N06
 BYTE   W12
 BYTE   N06
 BYTE   W06
 BYTE   N06  Cn1
 BYTE   W12
 BYTE   N06  Fs1
 BYTE   W06
 BYTE   N06
 BYTE   W06
 BYTE   N06
 BYTE   W06
 BYTE   N06
 BYTE   W06
 BYTE   N06  As1
 BYTE   W12
// 003   ----------------------------------------
 BYTE   N06  Fs1
 BYTE   W06
 BYTE   N06
 BYTE   W06
 BYTE   N06
 BYTE   W06
 BYTE   N06
 BYTE   W06
 BYTE   N06
 BYTE   W12
 BYTE   N06
 BYTE   W06
 BYTE   N06  En1
 BYTE   W12
 BYTE   N06  Fs1
 BYTE   W06
 BYTE   N06
 BYTE   W06
 BYTE   N06
 BYTE   W06
 BYTE   N06
 BYTE   W06
 BYTE   N06  Dn1
 BYTE   W12
 BYTE   N06  Fs1
 BYTE   W06
// 004   ----------------------------------------
 BYTE   N06  As1
 BYTE   W12
 BYTE   N06  Fs1
 BYTE   W06
 BYTE   N06
 BYTE   W06
 BYTE   N06
 BYTE   W06
 BYTE   N06
 BYTE   W06
 BYTE   N06  Cn1
 BYTE   W12
 BYTE   N06  Fs1
 BYTE   W06
 BYTE   N06  En1
 BYTE   W12
 BYTE   N06  Fs1
 BYTE   W06
 BYTE   N06  Cn1
 BYTE   W12
 BYTE   N06  Fs1
 BYTE   W06
 BYTE   N06
 BYTE   W12
// 005   ----------------------------------------
 BYTE   N06  Cn1
 BYTE   W06
 BYTE   N06
 BYTE   W12
 BYTE   N06  Fs1
 BYTE   W06
 BYTE   N06  As1
 BYTE   W12
 BYTE   N06  Fs1
 BYTE   W06
 BYTE   N06  Cn1
 BYTE   W12
 BYTE   N06  Fs1
 BYTE   W06
 BYTE   N06  As1
 BYTE   W12
 BYTE   N06  Cn1
 BYTE   W06
 BYTE   N06
 BYTE   W12
 BYTE   N06  Fs1
 BYTE   W06
// 006   ----------------------------------------
 BYTE   N06  As1
 BYTE   W12
 BYTE   N06  Fs1
 BYTE   W06
 BYTE   N06  Cn1
 BYTE   W12
 BYTE   N06  Fs1
 BYTE   W06
 BYTE   N06  As1
 BYTE   W12
 BYTE   N06  Cn1
 BYTE   W06
 BYTE   N06
 BYTE   W12
 BYTE   N06  Fs1
 BYTE   W06
 BYTE   N06  As1
 BYTE   W12
 BYTE   N06  Fs1
 BYTE   W06
 BYTE   N06  Cn1
 BYTE   W18
// 007   ----------------------------------------
 BYTE   N06  Fs1
 BYTE   W06
 BYTE   N06
 BYTE   W06
 BYTE   N06
 BYTE   W06
 BYTE   N06  Cn1
 BYTE   W12
 BYTE   N06  Fs1
 BYTE   W06
 BYTE   N06  As1
 BYTE   W12
 BYTE   N06  Fs1
 BYTE   W06
 BYTE   N06  Cn1
 BYTE   W12
 BYTE   N06  Fs1
 BYTE   W06
 BYTE   N06  As1
 BYTE   W12
 BYTE   N06  Cn1
 BYTE   W06
 BYTE   N06
 BYTE   W12
// 008   ----------------------------------------
 BYTE   N06  Fs1
 BYTE   W06
 BYTE   N06  As1
 BYTE   W12
 BYTE   N06  Fs1
 BYTE   W06
 BYTE   N06  Cn1
 BYTE   W12
 BYTE   N06  Fs1
 BYTE   W06
 BYTE   N06  As1
 BYTE   W06
 BYTE   N06  Cn1
 BYTE   W12
 BYTE   N06
 BYTE   W12
 BYTE   N06  Fs1
 BYTE   W06
 BYTE   N06  As1
 BYTE   W12
 BYTE   N06  Fs1
 BYTE   W06
// 009   ----------------------------------------
 BYTE   N06  Cn1
 BYTE   W12
 BYTE   N06  Fs1
 BYTE   W06
 BYTE   N06  As1
 BYTE   W12
 BYTE   N06  Fs1
 BYTE   W06
 BYTE   N06  Cn1
 BYTE   W12
 BYTE   N06  Fs1
 BYTE   W06
 BYTE   N06  As1
 BYTE   W12
 BYTE   N06  Fs1
 BYTE   W06
 BYTE   N06  Cn1
 BYTE   W12
 BYTE   N06  Fs1
 BYTE   W06
 BYTE   N06  As1
 BYTE   W12
// 010   ----------------------------------------
 BYTE   N06  Cn1
 BYTE   W06
 BYTE   N06
 BYTE   W12
 BYTE   N06  Fs1
 BYTE   W06
 BYTE   N06  As1
 BYTE   W12
 BYTE   N06  Fs1
 BYTE   W06
 BYTE   N06  Cn1
 BYTE   W12
 BYTE   N06  Fs1
 BYTE   W06
 BYTE   N06  As1
 BYTE   W12
 BYTE   N06  Cn1
 BYTE   W06
 BYTE   N06
 BYTE   W12
 BYTE   N06  Fs1
 BYTE   W06
// 011   ----------------------------------------
 BYTE   N06  As1
 BYTE   W12
 BYTE   N06  Fs1
 BYTE   W06
 BYTE   N06  Cn1
 BYTE   W12
 BYTE   N06  Fs1
 BYTE   W06
 BYTE   N06  As1
 BYTE   W12
 BYTE   N06  Cn1
 BYTE   W06
 BYTE   N06
 BYTE   W12
 BYTE   N06  Fs1
 BYTE   W06
 BYTE   N06  As1
 BYTE   W12
 BYTE   N06  Fs1
 BYTE   W06
 BYTE   N06  Cn1
 BYTE   W12
// 012   ----------------------------------------
 BYTE   N06  Fs1
 BYTE   W06
 BYTE   N06  As1
 BYTE   W12
 BYTE   N06  Cn1
 BYTE   W06
 BYTE   N06
 BYTE   W12
 BYTE   N06  As1
 BYTE   W06
 BYTE   N06  Fs1
 BYTE   W06
 BYTE   N06
 BYTE   W06
 BYTE   N06
 BYTE   W06
 BYTE   N06
 BYTE   W12
 BYTE   N06
 BYTE   W06
 BYTE   N06
 BYTE   W06
 BYTE   N06
 BYTE   W06
 BYTE   N06
 BYTE   W06
// 013   ----------------------------------------
 BYTE   N06  Cn1
 BYTE   W12
 BYTE   N06  Fs1
 BYTE   W06
 BYTE   N06  As1
 BYTE   W12
 BYTE   N06  Fs1
 BYTE   W06
 BYTE   N06  Cn1
 BYTE   W12
 BYTE   N06  Fs1
 BYTE   W06
 BYTE   N06  As1
 BYTE   W12
 BYTE   N06  Cn1
 BYTE   W06
 BYTE   N06
 BYTE   W12
 BYTE   N06  Fs1
 BYTE   W06
 BYTE   N06  As1
 BYTE   W12
// 014   ----------------------------------------
 BYTE   N06  Fs1
 BYTE   W06
 BYTE   N06  Cn1
 BYTE   W12
 BYTE   N06  Fs1
 BYTE   W06
 BYTE   N06  As1
 BYTE   W12
 BYTE   N06  Cn1
 BYTE   W06
 BYTE   N06
 BYTE   W12
 BYTE   N06  Fs1
 BYTE   W06
 BYTE   N06  As1
 BYTE   W12
 BYTE   N06  Fs1
 BYTE   W06
 BYTE   N06  Cn1
 BYTE   W12
 BYTE   N06  Fs1
 BYTE   W06
// 015   ----------------------------------------
 BYTE   N06  As1
 BYTE   W12
 BYTE   N06  Cn1
 BYTE   W06
 BYTE   N06
 BYTE   W12
 BYTE   N06  Fs1
 BYTE   W06
 BYTE   N06  As1
 BYTE   W12
 BYTE   N06  Fs1
 BYTE   W06
 BYTE   N06  Cn1
 BYTE   W12
 BYTE   N06  Fs1
 BYTE   W06
 BYTE   N06  As1
 BYTE   W12
 BYTE   N06  Cn1
 BYTE   W06
 BYTE   N06
 BYTE   W12
// 016   ----------------------------------------
 BYTE   N06  Fs1
 BYTE   W06
 BYTE   N06  As1
 BYTE   W12
 BYTE   N06  Fs1
 BYTE   W06
 BYTE   N06  Cn1
 BYTE   W12
 BYTE   N06  Fs1
 BYTE   W06
 BYTE   N06  As1
 BYTE   W12
 BYTE   N06  Cn1
 BYTE   W06
 BYTE   N06
 BYTE   W12
 BYTE   N06  Fs1
 BYTE   W06
 BYTE   N06  As1
 BYTE   W12
 BYTE   N06  Fs1
 BYTE   W06
// 017   ----------------------------------------
 BYTE   N06  Cn1
 BYTE   W12
 BYTE   N06  Fs1
 BYTE   W06
 BYTE   N06  As1
 BYTE   W12
 BYTE   N06  Cn1
 BYTE   W06
 BYTE   N06
 BYTE   W12
 BYTE   N06  Fs1
 BYTE   W06
 BYTE   N06  As1
 BYTE   W12
 BYTE   N06  Fs1
 BYTE   W06
 BYTE   N06  Cn1
 BYTE   W12
 BYTE   N06  Fs1
 BYTE   W06
 BYTE   N06  As1
 BYTE   W12
// 018   ----------------------------------------
 BYTE   N06  Cn1
 BYTE   W06
 BYTE   N06
 BYTE   W12
 BYTE   N06  Fs1
 BYTE   W06
 BYTE   N06  As1
 BYTE   W12
 BYTE   N06  Fs1
 BYTE   W06
 BYTE   N06  Cn1
 BYTE   W12
 BYTE   N06  Fs1
 BYTE   W06
 BYTE   N06  As1
 BYTE   W12
 BYTE   N06  Cn1
 BYTE   W06
 BYTE   N06
 BYTE   W12
 BYTE   N06  Fs1
 BYTE   W06
// 019   ----------------------------------------
 BYTE   N06  As1
 BYTE   W12
 BYTE   N06  Fs1
 BYTE   W06
 BYTE   N06  Cn1
 BYTE   W12
 BYTE   N06  Fs1
 BYTE   W06
 BYTE   N06  As1
 BYTE   W12
 BYTE   N06  Cn1
 BYTE   W06
 BYTE   N06
 BYTE   W12
 BYTE   N06  Fs1
 BYTE   W06
 BYTE   N06  As1
 BYTE   W12
 BYTE   N06  Fs1
 BYTE   W06
 BYTE   N06  Cn1
 BYTE   W12
// 020   ----------------------------------------
 BYTE   N06  Fs1
 BYTE   W06
 BYTE   N06  As1
 BYTE   W12
 BYTE   N06  Cn1
 BYTE   W06
 BYTE   N06  As1
 BYTE   W12
 BYTE   N06  Fs1
 BYTE   W06
 BYTE   N06
 BYTE   W12
 BYTE   N06
 BYTE   W06
 BYTE   N06  Cn1
 BYTE   W12
 BYTE   N06  Fs1
 BYTE   W06
 BYTE   N06
 BYTE   W12
 BYTE   N06
 BYTE   W06
// 021   ----------------------------------------
 BYTE   N06
 BYTE   W12
 BYTE   N06
 BYTE   W06
 BYTE   N06
 BYTE   W12
 BYTE   N06
 BYTE   W06
 BYTE   N06  Cn1
 BYTE   W12
 BYTE   N06  Fs1
 BYTE   W06
 BYTE   N06
 BYTE   W06
 BYTE   N06
 BYTE   W06
 BYTE   N06
 BYTE   W06
 BYTE   N06  As1
 BYTE   W12
 BYTE   N06  Fs1
 BYTE   W06
 BYTE   N06
 BYTE   W06
// 022   ----------------------------------------
 BYTE   N06
 BYTE   W06
 BYTE   N06
 BYTE   W06
 BYTE   N06
 BYTE   W12
 BYTE   N06
 BYTE   W06
 BYTE   N06  En1
 BYTE   W12
 BYTE   N06  Fs1
 BYTE   W06
 BYTE   N06
 BYTE   W06
 BYTE   N06
 BYTE   W06
 BYTE   N06
 BYTE   W06
 BYTE   N06  Dn1
 BYTE   W12
 BYTE   N06  Fs1
 BYTE   W06
 BYTE   N06  As1
 BYTE   W12
// 023   ----------------------------------------
 BYTE   N06  Fs1
 BYTE   W06
 BYTE   N06
 BYTE   W06
 BYTE   N06
 BYTE   W06
 BYTE   N06
 BYTE   W06
 BYTE   N06  Cn1
 BYTE   W12
 BYTE   N06  Fs1
 BYTE   W06
 BYTE   N06  En1
 BYTE   W12
 BYTE   N06  Fs1
 BYTE   W06
 BYTE   N06  Cn1
 BYTE   W12
 BYTE   N06  Fs1
 BYTE   W06
 BYTE   N06
 BYTE   W12
 BYTE   N06  Cn1
 BYTE   W06
// 024   ----------------------------------------
 BYTE   N06
 BYTE   W12
 BYTE   N06  Fs1
 BYTE   W06
 BYTE   N06  As1
 BYTE   W12
 BYTE   N06  Fs1
 BYTE   W06
 BYTE   N06  Cn1
 BYTE   W12
 BYTE   N06  Fs1
 BYTE   W06
 BYTE   N06  As1
 BYTE   W12
 BYTE   N06  Cn1
 BYTE   W06
 BYTE   N06
 BYTE   W12
 BYTE   N06  Fs1
 BYTE   W06
 BYTE   N06  As1
 BYTE   W12
// 025   ----------------------------------------
 BYTE   N06  Fs1
 BYTE   W06
 BYTE   N06  Cn1
 BYTE   W12
 BYTE   N06  Fs1
 BYTE   W06
 BYTE   N06  As1
 BYTE   W12
 BYTE   N06  Cn1
 BYTE   W06
 BYTE   N06
 BYTE   W12
 BYTE   N06  Fs1
 BYTE   W06
 BYTE   N06  As1
 BYTE   W12
 BYTE   N06  Fs1
 BYTE   W06
 BYTE   N06  Cn1
 BYTE   W18
// 026   ----------------------------------------
 BYTE   N06  Fs1
 BYTE   W06
 BYTE   N06
 BYTE   W06
 BYTE   N06
 BYTE   W06
 BYTE   N06  Cn1
 BYTE   W12
 BYTE   N06  Fs1
 BYTE   W06
 BYTE   N06  As1
 BYTE   W12
 BYTE   N06  Fs1
 BYTE   W06
 BYTE   N06  Cn1
 BYTE   W12
 BYTE   N06  Fs1
 BYTE   W06
 BYTE   N06  As1
 BYTE   W12
 BYTE   N06  Cn1
 BYTE   W06
 BYTE   N06
 BYTE   W12
// 027   ----------------------------------------
 BYTE   N06  Fs1
 BYTE   W06
 BYTE   N06  As1
 BYTE   W12
 BYTE   N06  Fs1
 BYTE   W06
 BYTE   N06  Cn1
 BYTE   W12
 BYTE   N06  Fs1
 BYTE   W06
 BYTE   N06  As1
 BYTE   W06
 BYTE   N06  Cn1
 BYTE   W12
 BYTE   N06
 BYTE   W12
 BYTE   N06  Fs1
 BYTE   W06
 BYTE   N06  As1
 BYTE   W12
 BYTE   N06  Fs1
 BYTE   W06
// 028   ----------------------------------------
 BYTE   N06  Cn1
 BYTE   W12
 BYTE   N06  Fs1
 BYTE   W06
 BYTE   N06  As1
 BYTE   W12
 BYTE   N06  Fs1
 BYTE   W06
 BYTE   N06  Cn1
 BYTE   W12
 BYTE   N06  Fs1
 BYTE   W06
 BYTE   N06  As1
 BYTE   W12
 BYTE   N06  Fs1
 BYTE   W06
 BYTE   N06  Cn1
 BYTE   W12
 BYTE   N06  Fs1
 BYTE   W06
 BYTE   N06  As1
 BYTE   W12
// 029   ----------------------------------------
 BYTE   N06  Cn1
 BYTE   W06
 BYTE   N06
 BYTE   W12
 BYTE   N06  Fs1
 BYTE   W06
 BYTE   N06  As1
 BYTE   W12
 BYTE   N06  Fs1
 BYTE   W06
 BYTE   N06  Cn1
 BYTE   W12
 BYTE   N06  Fs1
 BYTE   W06
 BYTE   N06  As1
 BYTE   W12
 BYTE   N06  Cn1
 BYTE   W06
 BYTE   N06
 BYTE   W12
 BYTE   N06  Fs1
 BYTE   W06
// 030   ----------------------------------------
 BYTE   N06  As1
 BYTE   W12
 BYTE   N06  Fs1
 BYTE   W06
 BYTE   N06  Cn1
 BYTE   W12
 BYTE   N06  Fs1
 BYTE   W06
 BYTE   N06  As1
 BYTE   W12
 BYTE   N06  Cn1
 BYTE   W06
 BYTE   N06
 BYTE   W12
 BYTE   N06  Fs1
 BYTE   W06
 BYTE   N06  As1
 BYTE   W12
 BYTE   N06  Fs1
 BYTE   W06
 BYTE   N06  Cn1
 BYTE   W12
// 031   ----------------------------------------
 BYTE   N06  Fs1
 BYTE   W06
 BYTE   N06  As1
 BYTE   W12
 BYTE   N06  Cn1
 BYTE   W06
 BYTE   N06
 BYTE   W12
 BYTE   N06  As1
 BYTE   W06
 BYTE   N06  Fs1
 BYTE   W06
 BYTE   N06
 BYTE   W06
 BYTE   N06
 BYTE   W06
 BYTE   N06
 BYTE   W12
 BYTE   N06
 BYTE   W06
 BYTE   N06
 BYTE   W06
 BYTE   N06
 BYTE   W06
 BYTE   N06
 BYTE   W06
// 032   ----------------------------------------
 BYTE   N06  Cn1
 BYTE   W12
 BYTE   N06  Fs1
 BYTE   W06
 BYTE   N06  As1
 BYTE   W12
 BYTE   N06  Fs1
 BYTE   W06
 BYTE   N06  Cn1
 BYTE   W12
 BYTE   N06  Fs1
 BYTE   W06
 BYTE   N06  As1
 BYTE   W12
 BYTE   N06  Cn1
 BYTE   W06
 BYTE   N06
 BYTE   W12
 BYTE   N06  Fs1
 BYTE   W06
 BYTE   N06  As1
 BYTE   W12
// 033   ----------------------------------------
 BYTE   N06  Fs1
 BYTE   W06
 BYTE   N06  Cn1
 BYTE   W12
 BYTE   N06  Fs1
 BYTE   W06
 BYTE   N06  As1
 BYTE   W12
 BYTE   N06  Cn1
 BYTE   W06
 BYTE   N06
 BYTE   W12
 BYTE   N06  Fs1
 BYTE   W06
 BYTE   N06  As1
 BYTE   W12
 BYTE   N06  Fs1
 BYTE   W06
 BYTE   N06  Cn1
 BYTE   W12
 BYTE   N06  Fs1
 BYTE   W06
// 034   ----------------------------------------
 BYTE   N06  As1
 BYTE   W12
 BYTE   N06  Cn1
 BYTE   W06
 BYTE   N06
 BYTE   W12
 BYTE   N06  Fs1
 BYTE   W06
 BYTE   N06  As1
 BYTE   W12
 BYTE   N06  Fs1
 BYTE   W06
 BYTE   N06  Cn1
 BYTE   W12
 BYTE   N06  Fs1
 BYTE   W06
 BYTE   N06  As1
 BYTE   W12
 BYTE   N06  Cn1
 BYTE   W06
 BYTE   N06
 BYTE   W12
// 035   ----------------------------------------
 BYTE   N06  Fs1
 BYTE   W06
 BYTE   N06  As1
 BYTE   W12
 BYTE   N06  Fs1
 BYTE   W06
 BYTE   N06  Cn1
 BYTE   W12
 BYTE   N06  Fs1
 BYTE   W06
 BYTE   N06  As1
 BYTE   W12
 BYTE   N06  Cn1
 BYTE   W06
 BYTE   N06
 BYTE   W12
 BYTE   N06  Fs1
 BYTE   W06
 BYTE   N06  As1
 BYTE   W12
 BYTE   N06  Fs1
 BYTE   W06
// 036   ----------------------------------------
 BYTE   N06  Cn1
 BYTE   W12
 BYTE   N06  Fs1
 BYTE   W06
 BYTE   N06  As1
 BYTE   W12
 BYTE   N06  Cn1
 BYTE   W06
 BYTE   N06
 BYTE   W12
 BYTE   N06  Fs1
 BYTE   W06
 BYTE   N06  As1
 BYTE   W12
 BYTE   N06  Fs1
 BYTE   W06
 BYTE   N06  Cn1
 BYTE   W12
 BYTE   N06  Fs1
 BYTE   W06
 BYTE   N06  As1
 BYTE   W12
// 037   ----------------------------------------
 BYTE   N06  Cn1
 BYTE   W06
 BYTE   N06
 BYTE   W12
 BYTE   N06  Fs1
 BYTE   W06
 BYTE   N06  As1
 BYTE   W12
 BYTE   N06  Fs1
 BYTE   W06
 BYTE   N06  Cn1
 BYTE   W12
 BYTE   N06  Fs1
 BYTE   W06
 BYTE   N06  As1
 BYTE   W12
 BYTE   N06  Cn1
 BYTE   W06
 BYTE   N06
 BYTE   W12
 BYTE   N06  Fs1
 BYTE   W06
// 038   ----------------------------------------
 BYTE   N06  As1
 BYTE   W12
 BYTE   N06  Fs1
 BYTE   W06
 BYTE   N06  Cn1
 BYTE   W12
 BYTE   N06  Fs1
 BYTE   W06
 BYTE   N06  As1
 BYTE   W06
 BYTE   W06
 BYTE   N06  Cn1  v127
 BYTE   W06
 BYTE   N06
 BYTE   W12
 BYTE   N06  Fs1
 BYTE   W06
 BYTE   N06  As1
 BYTE   W12
 BYTE   N06  Fs1
 BYTE   W06
 BYTE   N06  Cn1
 BYTE   W12
// 039   ----------------------------------------
 BYTE   N06  Fs1
 BYTE   W06
 BYTE   N06  As1
 BYTE   W12
 BYTE   N06  Cn1
 BYTE   W06
 BYTE   N06  As1
 BYTE   W12
 BYTE   N06  Fs1
 BYTE   W06
 BYTE   N06
 BYTE   W12
 BYTE   N06
 BYTE   W06
 BYTE   N06  Cn1
 BYTE   W12
 BYTE   N06  Fs1
 BYTE   W06
 BYTE   N06
 BYTE   W12
 BYTE   N06
 BYTE   W06
// 040   ----------------------------------------
 BYTE   N06
 BYTE   W12
 BYTE   N06
 BYTE   W06
 BYTE   N06
 BYTE   W12
 BYTE   N06
 BYTE   W06
 BYTE   N06  Cn1
 BYTE   W12
 BYTE   N06  Fs1
 BYTE   W06
 BYTE   N06
 BYTE   W06
 BYTE   N06
 BYTE   W06
 BYTE   N06
 BYTE   GoTo
  POIN2 Label_3_0131E334
 BYTE   FINE

//**************** Track 5 (Midi-Chn.4) ****************//

PokemonPinballBluePandan_005:
// 000   ----------------------------------------
Label_4_0131E838:
 BYTE   TEMPO   96*PokemonPinballBluePandan_tbs/2
 BYTE   KEYSH   PokemonPinballBluePandan_key+0
 BYTE   VOICE   79
 BYTE   VOL   11*PokemonPinballBluePandan_mvl/mxv
 BYTE   PAN   c_v-32
 BYTE   N12  Ds4  v127
 BYTE   W12
 BYTE   N06  En3
 BYTE   W06
 BYTE   N06  Gs3
 BYTE   W06
 BYTE   N06  Bn3
 BYTE   W06
 BYTE   N12  Ds4
 BYTE   W24
 BYTE   N06  En3
 BYTE   W06
 BYTE   N06  Gs3
 BYTE   W06
 BYTE   N06  Bn3
 BYTE   W06
 BYTE   N12  Ds4
 BYTE   W12
 BYTE   N06  Dn4
 BYTE   W06
 BYTE   N12  Cs4
 BYTE   W12
// 001   ----------------------------------------
 BYTE   N12  Fs3
 BYTE   W18
 BYTE   N06
 BYTE   W06
 BYTE   N06  Gs3
 BYTE   W12
 BYTE   N06  As3
 BYTE   W06
 BYTE   N03  Bn3
 BYTE   W03
 BYTE   N09  Cs4
 BYTE   W09
 BYTE   N06  Fs3  v099
 BYTE   W06
 BYTE   N12  Gs3
 BYTE   W12
 BYTE   N18  Bn3  v127
 BYTE   W18
 BYTE   N06  Fs3  v099
 BYTE   W06
// 002   ----------------------------------------
 BYTE   N12  Gs3
 BYTE   W12
 BYTE   N06  Fs3
 BYTE   W06
 BYTE   N03  Dn4  v127
 BYTE   W03
 BYTE   N09  Ds4
 BYTE   W15
 BYTE   N06  Gs3  v080
 BYTE   W06
 BYTE   N06  Fs3
 BYTE   W06
 BYTE   N06  En4  v127
 BYTE   W06
 BYTE   N06  Fs3  v080
 BYTE   W06
 BYTE   N06  Gs3
 BYTE   W06
 BYTE   N06  Ds4  v127
 BYTE   W06
 BYTE   N06  En4
 BYTE   W06
 BYTE   N06  Gs3  v080
 BYTE   W06
 BYTE   N06  Fs4  v127
 BYTE   W06
 BYTE   N03  Cs4
 BYTE   W03
 BYTE   N09  Ds4
 BYTE   W09
// 003   ----------------------------------------
 BYTE   N06  Dn4
 BYTE   W06
 BYTE   N06  Cs4
 BYTE   W06
 BYTE   N06  Gn3  v080
 BYTE   W06
 BYTE   N06  Bn3  v127
 BYTE   W06
 BYTE   N06  En3  v080
 BYTE   W06
 BYTE   N06  Fs3
 BYTE   W06
 BYTE   N06  Gs3  v127
 BYTE   W06
 BYTE   N06  An3  v080
 BYTE   W06
 BYTE   N06  As3
 BYTE   W06
 BYTE   N06  Bn3  v127
 BYTE   W06
 BYTE   N06  Ds4
 BYTE   W12
 BYTE   N06  Fs4
 BYTE   W06
 BYTE   N06  Ds4
 BYTE   W12
 BYTE   N12  Cs4
 BYTE   W24
// 004   ----------------------------------------
 BYTE   N06  Fs3
 BYTE   W06
 BYTE   N06  Gs3
 BYTE   W06
 BYTE   N06  As3
 BYTE   W06
 BYTE   N03  Bn3
 BYTE   W03
 BYTE   N09  Cs4
 BYTE   W15
 BYTE   N06  Fs3
 BYTE   W06
 BYTE   N06  Gs3
 BYTE   W06
 BYTE   N12  Bn3
 BYTE   W18
 BYTE   N06  Fs5  v099
 BYTE   W06
 BYTE   N12  Fn5
 BYTE   W12
 BYTE   N06  En5
 BYTE   W06
 BYTE   N03  Dn4  v127
 BYTE   W03
 BYTE   N09  Ds4
 BYTE   W15
// 005   ----------------------------------------
 BYTE   N06  Fs3  v080
 BYTE   W06
 BYTE   N06  An3
 BYTE   W06
 BYTE   N06  En4  v127
 BYTE   W06
 BYTE   N06  An3  v080
 BYTE   W06
 BYTE   N06  Cn4
 BYTE   W06
 BYTE   N06  Ds4  v127
 BYTE   W06
 BYTE   N12  En4
 BYTE   W12
 BYTE   N06  Fs4
 BYTE   W06
 BYTE   N03  Cs4
 BYTE   W03
 BYTE   N09  Ds4
 BYTE   W09
 BYTE   N06  Dn4
 BYTE   W06
 BYTE   N06  Cs4
 BYTE   W06
 BYTE   N06  Gs3  v080
 BYTE   W06
 BYTE   N06  Bn3  v127
 BYTE   W06
 BYTE   N06  En3  v080
 BYTE   W06
// 006   ----------------------------------------
 BYTE   N06  Fs3
 BYTE   W06
 BYTE   N06  Gs3  v127
 BYTE   W06
 BYTE   N06  An3  v080
 BYTE   W06
 BYTE   N06  As3
 BYTE   W06
 BYTE   N06  Bn3  v127
 BYTE   W06
 BYTE   N06  Ds4
 BYTE   W12
 BYTE   N06  Fs4
 BYTE   W06
 BYTE   N06  Ds4
 BYTE   W12
 BYTE   N12  Cs4
 BYTE   W24
 BYTE   N06  Ds4
 BYTE   W06
 BYTE   N06  En4
 BYTE   W06
// 007   ----------------------------------------
 BYTE   N06  Fs4
 BYTE   W06
 BYTE   N03
 BYTE   W03
 BYTE   N09  Gs4
 BYTE   W09
 BYTE   N06  Bn4  v080
 BYTE   W06
 BYTE   N06  Ds3
 BYTE   W06
 BYTE   N06  En3
 BYTE   W06
 BYTE   N06  Gs3
 BYTE   W06
 BYTE   N06  Bn3
 BYTE   W12
 BYTE   N12  Ds4  v127
 BYTE   W18
 BYTE   N12  Cs4
 BYTE   W18
 BYTE   N06  As4  v080
 BYTE   W06
// 008   ----------------------------------------
 BYTE   N06  Cs3
 BYTE   W06
 BYTE   N06  Ds3
 BYTE   W06
 BYTE   N06  Gs3
 BYTE   W06
 BYTE   N06  As3
 BYTE   W12
 BYTE   N06  Cs4  v127
 BYTE   W06
 BYTE   N12  Ds4
 BYTE   W12
 BYTE   N06  En4
 BYTE   W06
 BYTE   N12  Fs4
 BYTE   W12
 BYTE   N06  As4  v080
 BYTE   W06
 BYTE   N06  Ds3
 BYTE   W06
 BYTE   N06  Fs3
 BYTE   W06
 BYTE   N06  Cs4  v127
 BYTE   W06
 BYTE   N06  As3  v080
 BYTE   W06
// 009   ----------------------------------------
 BYTE   N06  Cs4
 BYTE   W06
 BYTE   N06  Fs4  v127
 BYTE   W06
 BYTE   N06  Fs3  v080
 BYTE   W06
 BYTE   N06  As3
 BYTE   W06
 BYTE   N06  Cs4  v127
 BYTE   W06
 BYTE   N03  Cn4
 BYTE   W03
 BYTE   N09  Cs4
 BYTE   W09
 BYTE   N06  Bn3
 BYTE   W06
 BYTE   N12  As3
 BYTE   W12
 BYTE   N06  Bn3
 BYTE   W06
 BYTE   N06  Bn2  v080
 BYTE   W06
 BYTE   N06  Ds3
 BYTE   W06
 BYTE   N06  As3  v127
 BYTE   W06
 BYTE   N06  Ds3  v080
 BYTE   W06
 BYTE   N06  Fs3
 BYTE   W06
// 010   ----------------------------------------
 BYTE   N06  Bn3  v127
 BYTE   W06
 BYTE   N12  Gs3
 BYTE   W12
 BYTE   N06  En4  v080
 BYTE   W06
 BYTE   N06  Gs3
 BYTE   W06
 BYTE   N06  Bn3
 BYTE   W06
 BYTE   N06  En4  v127
 BYTE   W06
 BYTE   N06  En3  v080
 BYTE   W06
 BYTE   N06  Gs3
 BYTE   W06
 BYTE   N06  Ds4  v127
 BYTE   W06
 BYTE   N06  Cs3  v080
 BYTE   W06
 BYTE   N06  En3
 BYTE   W06
 BYTE   N06  Cs4  v127
 BYTE   W06
 BYTE   N12  Bn3
 BYTE   W12
 BYTE   N06  En4  v080
 BYTE   W06
// 011   ----------------------------------------
 BYTE   N06  Cs3
 BYTE   W06
 BYTE   N06  En3
 BYTE   W06
 BYTE   N06  As3  v127
 BYTE   W06
 BYTE   N06  En3  v080
 BYTE   W06
 BYTE   N06  Fs3
 BYTE   W06
 BYTE   N06  Bn3  v127
 BYTE   W06
 BYTE   N06  Fs3  v080
 BYTE   W06
 BYTE   N06  As3
 BYTE   W06
 BYTE   N06  Cs4  v127
 BYTE   W06
 BYTE   N24  Ds4
 BYTE   W36
 BYTE   N06  Fs3  v080
 BYTE   W06
// 012   ----------------------------------------
 BYTE   N06  As3
 BYTE   W06
 BYTE   N06  Fs3
 BYTE   W06
 BYTE   N06  As3
 BYTE   W06
 BYTE   N06  Fs3
 BYTE   W06
 BYTE   N06  As3
 BYTE   W06
 BYTE   N03  Bn3  v127
 BYTE   W03
 BYTE   N12  Cs4
 BYTE   W15
 BYTE   N12  Cn4
 BYTE   W18
 BYTE   N12  En4
 BYTE   W18
 BYTE   N06  Fs4
 BYTE   W12
// 013   ----------------------------------------
 BYTE   N03
 BYTE   W03
 BYTE   N09  Gs4
 BYTE   W15
 BYTE   N06  Bn4  v080
 BYTE   W06
 BYTE   N06  Ds3
 BYTE   W06
 BYTE   N06  En3
 BYTE   W06
 BYTE   N12  Ds4  v127
 BYTE   W18
 BYTE   N12  Gs4
 BYTE   W18
 BYTE   N06  Ds4
 BYTE   W06
 BYTE   N03  Dn4
 BYTE   W03
 BYTE   N09  Ds4
 BYTE   W09
 BYTE   N06  Cs4
 BYTE   W06
// 014   ----------------------------------------
 BYTE   N12  Cn4
 BYTE   W12
 BYTE   N18  Cs4
 BYTE   W18
 BYTE   N12  Cn4
 BYTE   W18
 BYTE   N06  Cs4
 BYTE   W06
 BYTE   N12  Fs4
 BYTE   W12
 BYTE   N06  As4  v080
 BYTE   W06
 BYTE   N06  Cs3
 BYTE   W06
 BYTE   N06  Ds3
 BYTE   W06
 BYTE   N06  Cs4  v127
 BYTE   W06
 BYTE   N06  Ds3  v080
 BYTE   W06
// 015   ----------------------------------------
 BYTE   N06  Fs3
 BYTE   W06
 BYTE   N06  Fs4  v127
 BYTE   W06
 BYTE   N06  Fs3  v080
 BYTE   W06
 BYTE   N06  As3
 BYTE   W06
 BYTE   N06  Cs4  v127
 BYTE   W06
 BYTE   N03  Gs4
 BYTE   W03
 BYTE   N09  As4
 BYTE   W09
 BYTE   N06  Gs4  v091
 BYTE   W06
 BYTE   N12  Bn4  v127
 BYTE   W12
 BYTE   N12  Gs4
 BYTE   W18
 BYTE   N06  Gs4  v091
 BYTE   W06
 BYTE   N12  Gs3  v127
 BYTE   W12
// 016   ----------------------------------------
 BYTE   N06  Bn3
 BYTE   W06
 BYTE   N03  Ds4
 BYTE   W03
 BYTE   N09  En4
 BYTE   W09
 BYTE   N06  Gs4  v080
 BYTE   W06
 BYTE   N06
 BYTE   W12
 BYTE   N06  Bn3  v127
 BYTE   W06
 BYTE   N06  Gs3  v080
 BYTE   W06
 BYTE   N06  Bn3  v127
 BYTE   W06
 BYTE   N06  En4
 BYTE   W06
 BYTE   N06  Gs4  v080
 BYTE   W06
 BYTE   N06  En4
 BYTE   W06
 BYTE   N06  Bn3  v127
 BYTE   W06
 BYTE   N12
 BYTE   W12
 BYTE   N06  As3
 BYTE   W06
// 017   ----------------------------------------
 BYTE   N12  Gs3
 BYTE   W12
 BYTE   N18  As3
 BYTE   W24
 BYTE   N12  Fs3
 BYTE   W18
 BYTE   N03  Cs4
 BYTE   W03
 BYTE   N36  Ds4
 BYTE   W68
// 018   ----------------------------------------
 BYTE   W01
 BYTE   N03  Bn3  v081
 BYTE   W03
 BYTE   N24  Cs4  v127
 BYTE   W24
 BYTE   W03
 BYTE   N12  Bn3
 BYTE   W18
 BYTE   N18
 BYTE   W18
 BYTE   N06  Gs3
 BYTE   W06
 BYTE   N03  Cs4
 BYTE   W03
 BYTE   N36  Ds4
 BYTE   W68
// 019   ----------------------------------------
 BYTE   W01
 BYTE   N03  As3  v081
 BYTE   W03
 BYTE   N12  Bn3  v080
 BYTE   W15
 BYTE   N18  Gs3
 BYTE   W18
 BYTE   N12  As3
 BYTE   W12
 BYTE   N06  Fs3  v127
 BYTE   W06
 BYTE   N12  Gs3
 BYTE   W12
 BYTE   N06  As3
 BYTE   W06
 BYTE   N03  Bn3
 BYTE   W03
 BYTE   N09  Cs4
 BYTE   W09
 BYTE   N06  Fs3  v099
 BYTE   W06
 BYTE   N12  Gs3
 BYTE   W12
// 020   ----------------------------------------
 BYTE   N18  Bn3  v127
 BYTE   W18
 BYTE   N06  Fs3  v099
 BYTE   W06
 BYTE   N12  Gs3
 BYTE   W12
 BYTE   N06  Fs3
 BYTE   W06
 BYTE   N03  Dn4  v127
 BYTE   W03
 BYTE   N09  Ds4
 BYTE   W15
 BYTE   N06  Gs3  v080
 BYTE   W06
 BYTE   N06  Fs3
 BYTE   W06
 BYTE   N06  En4  v127
 BYTE   W06
 BYTE   N06  Fs3  v080
 BYTE   W06
 BYTE   N06  Gs3
 BYTE   W06
 BYTE   N06  Ds4  v127
 BYTE   W06
// 021   ----------------------------------------
 BYTE   N06  En4
 BYTE   W06
 BYTE   N06  Gs3  v080
 BYTE   W06
 BYTE   N06  Fs4  v127
 BYTE   W06
 BYTE   N03  Cs4
 BYTE   W03
 BYTE   N09  Ds4
 BYTE   W09
 BYTE   N06  Dn4
 BYTE   W06
 BYTE   N06  Cs4
 BYTE   W06
 BYTE   N06  Gn3  v080
 BYTE   W06
 BYTE   N06  Bn3  v127
 BYTE   W06
 BYTE   N06  En3  v080
 BYTE   W06
 BYTE   N06  Fs3
 BYTE   W06
 BYTE   N06  Gs3  v127
 BYTE   W06
 BYTE   N06  An3  v080
 BYTE   W06
 BYTE   N06  As3
 BYTE   W06
 BYTE   N06  Bn3  v127
 BYTE   W06
 BYTE   N06  Ds4
 BYTE   W12
// 022   ----------------------------------------
 BYTE   N06  Fs4
 BYTE   W06
 BYTE   N06  Ds4
 BYTE   W12
 BYTE   N12  Cs4
 BYTE   W24
 BYTE   N06  Fs3
 BYTE   W06
 BYTE   N06  Gs3
 BYTE   W06
 BYTE   N06  As3
 BYTE   W06
 BYTE   N03  Bn3
 BYTE   W03
 BYTE   N09  Cs4
 BYTE   W15
 BYTE   N06  Fs3
 BYTE   W06
 BYTE   N06  Gs3
 BYTE   W06
 BYTE   N12  Bn3
 BYTE   W18
// 023   ----------------------------------------
 BYTE   N06  Fs5  v099
 BYTE   W06
 BYTE   N12  Fn5
 BYTE   W12
 BYTE   N06  En5
 BYTE   W06
 BYTE   N03  Dn4  v127
 BYTE   W03
 BYTE   N09  Ds4
 BYTE   W15
 BYTE   N06  Fs3  v080
 BYTE   W06
 BYTE   N06  An3
 BYTE   W06
 BYTE   N06  En4  v127
 BYTE   W06
 BYTE   N06  An3  v080
 BYTE   W06
 BYTE   N06  Cn4
 BYTE   W06
 BYTE   N06  Ds4  v127
 BYTE   W06
 BYTE   N12  En4
 BYTE   W12
 BYTE   N06  Fs4
 BYTE   W06
// 024   ----------------------------------------
 BYTE   N03  Cs4
 BYTE   W03
 BYTE   N09  Ds4
 BYTE   W09
 BYTE   N06  Dn4
 BYTE   W06
 BYTE   N06  Cs4
 BYTE   W06
 BYTE   N06  Gs3  v080
 BYTE   W06
 BYTE   N06  Bn3  v127
 BYTE   W06
 BYTE   N06  En3  v080
 BYTE   W06
 BYTE   N06  Fs3
 BYTE   W06
 BYTE   N06  Gs3  v127
 BYTE   W06
 BYTE   N06  An3  v080
 BYTE   W06
 BYTE   N06  As3
 BYTE   W06
 BYTE   N06  Bn3  v127
 BYTE   W06
 BYTE   N06  Ds4
 BYTE   W12
 BYTE   N06  Fs4
 BYTE   W06
 BYTE   N06  Ds4
 BYTE   W12
// 025   ----------------------------------------
 BYTE   N12  Cs4
 BYTE   W24
 BYTE   N06  Ds4
 BYTE   W06
 BYTE   N06  En4
 BYTE   W06
 BYTE   N06  Fs4
 BYTE   W06
 BYTE   N03
 BYTE   W03
 BYTE   N09  Gs4
 BYTE   W09
 BYTE   N06  Bn4  v080
 BYTE   W06
 BYTE   N06  Ds3
 BYTE   W06
 BYTE   N06  En3
 BYTE   W06
 BYTE   N06  Gs3
 BYTE   W06
 BYTE   N06  Bn3
 BYTE   W12
 BYTE   N12  Ds4  v127
 BYTE   W18
// 026   ----------------------------------------
 BYTE   N12  Cs4
 BYTE   W18
 BYTE   N06  As4  v080
 BYTE   W06
 BYTE   N06  Cs3
 BYTE   W06
 BYTE   N06  Ds3
 BYTE   W06
 BYTE   N06  Gs3
 BYTE   W06
 BYTE   N06  As3
 BYTE   W12
 BYTE   N06  Cs4  v127
 BYTE   W06
 BYTE   N12  Ds4
 BYTE   W12
 BYTE   N06  En4
 BYTE   W06
 BYTE   N12  Fs4
 BYTE   W12
 BYTE   N06  As4  v080
 BYTE   W06
// 027   ----------------------------------------
 BYTE   N06  Ds3
 BYTE   W06
 BYTE   N06  Fs3
 BYTE   W06
 BYTE   N06  Cs4  v127
 BYTE   W06
 BYTE   N06  As3  v080
 BYTE   W06
 BYTE   N06  Cs4
 BYTE   W06
 BYTE   N06  Fs4  v127
 BYTE   W06
 BYTE   N06  Fs3  v080
 BYTE   W06
 BYTE   N06  As3
 BYTE   W06
 BYTE   N06  Cs4  v127
 BYTE   W06
 BYTE   N03  Cn4
 BYTE   W03
 BYTE   N09  Cs4
 BYTE   W09
 BYTE   N06  Bn3
 BYTE   W06
 BYTE   N12  As3
 BYTE   W12
 BYTE   N06  Bn3
 BYTE   W06
 BYTE   N06  Bn2  v080
 BYTE   W06
// 028   ----------------------------------------
 BYTE   N06  Ds3
 BYTE   W06
 BYTE   N06  As3  v127
 BYTE   W06
 BYTE   N06  Ds3  v080
 BYTE   W06
 BYTE   N06  Fs3
 BYTE   W06
 BYTE   N06  Bn3  v127
 BYTE   W06
 BYTE   N12  Gs3
 BYTE   W12
 BYTE   N06  En4  v080
 BYTE   W06
 BYTE   N06  Gs3
 BYTE   W06
 BYTE   N06  Bn3
 BYTE   W06
 BYTE   N06  En4  v127
 BYTE   W06
 BYTE   N06  En3  v080
 BYTE   W06
 BYTE   N06  Gs3
 BYTE   W06
 BYTE   N06  Ds4  v127
 BYTE   W06
 BYTE   N06  Cs3  v080
 BYTE   W06
 BYTE   N06  En3
 BYTE   W06
// 029   ----------------------------------------
 BYTE   N06  Cs4  v127
 BYTE   W06
 BYTE   N12  Bn3
 BYTE   W12
 BYTE   N06  En4  v080
 BYTE   W06
 BYTE   N06  Cs3
 BYTE   W06
 BYTE   N06  En3
 BYTE   W06
 BYTE   N06  As3  v127
 BYTE   W06
 BYTE   N06  En3  v080
 BYTE   W06
 BYTE   N06  Fs3
 BYTE   W06
 BYTE   N06  Bn3  v127
 BYTE   W06
 BYTE   N06  Fs3  v080
 BYTE   W06
 BYTE   N06  As3
 BYTE   W06
 BYTE   N06  Cs4  v127
 BYTE   W06
 BYTE   N24  Ds4
 BYTE   W36
// 030   ----------------------------------------
 BYTE   N06  Fs3  v080
 BYTE   W06
 BYTE   N06  As3
 BYTE   W06
 BYTE   N06  Fs3
 BYTE   W06
 BYTE   N06  As3
 BYTE   W06
 BYTE   N06  Fs3
 BYTE   W06
 BYTE   N06  As3
 BYTE   W06
 BYTE   N03  Bn3  v127
 BYTE   W03
 BYTE   N12  Cs4
 BYTE   W15
 BYTE   N12  Cn4
 BYTE   W18
 BYTE   N12  En4
 BYTE   W18
 BYTE   N06  Fs4
 BYTE   W12
// 031   ----------------------------------------
 BYTE   N03
 BYTE   W03
 BYTE   N12  Gs4
 BYTE   W15
 BYTE   N06  Bn4  v080
 BYTE   W06
 BYTE   N06  Ds3
 BYTE   W06
 BYTE   N06  En3
 BYTE   W06
 BYTE   N12  Ds4  v127
 BYTE   W18
 BYTE   N12  Gs4
 BYTE   W18
 BYTE   N06  Ds4
 BYTE   W06
 BYTE   N12
 BYTE   W12
 BYTE   N06  Cs4
 BYTE   W06
// 032   ----------------------------------------
 BYTE   N12  Cn4
 BYTE   W12
 BYTE   N18  Cs4
 BYTE   W18
 BYTE   N18  Cn4
 BYTE   W18
 BYTE   N06  Cs4
 BYTE   W06
 BYTE   N12  Fs4
 BYTE   W12
 BYTE   N06  As4  v080
 BYTE   W06
 BYTE   N06  Cs3
 BYTE   W06
 BYTE   N06  Ds3
 BYTE   W06
 BYTE   N06  Cs4  v127
 BYTE   W06
 BYTE   N06  Ds3  v080
 BYTE   W06
// 033   ----------------------------------------
 BYTE   N06  Fs3
 BYTE   W06
 BYTE   N06  Fs4  v127
 BYTE   W06
 BYTE   N06  Fs3  v080
 BYTE   W06
 BYTE   N06  As3
 BYTE   W06
 BYTE   N06  Cs4  v127
 BYTE   W06
 BYTE   N03  Gs4
 BYTE   W03
 BYTE   N09  As4
 BYTE   W09
 BYTE   N06  Gs4  v091
 BYTE   W06
 BYTE   N12  Bn4  v127
 BYTE   W12
 BYTE   N12  Gs4
 BYTE   W18
 BYTE   N06  Gs4  v091
 BYTE   W06
 BYTE   N12  Gs3  v127
 BYTE   W12
// 034   ----------------------------------------
 BYTE   N06  Bn3
 BYTE   W06
 BYTE   N03  Ds4
 BYTE   W03
 BYTE   N09  En4
 BYTE   W09
 BYTE   N06  Gs4  v080
 BYTE   W06
 BYTE   N06
 BYTE   W12
 BYTE   N06  Bn3  v127
 BYTE   W06
 BYTE   N06  Gs3  v080
 BYTE   W06
 BYTE   N06  Bn3  v127
 BYTE   W06
 BYTE   N06  En4
 BYTE   W06
 BYTE   N06  Gs4  v080
 BYTE   W06
 BYTE   N06  En4
 BYTE   W06
 BYTE   N06  Bn3  v127
 BYTE   W06
 BYTE   N12
 BYTE   W12
 BYTE   N06  As3
 BYTE   W06
// 035   ----------------------------------------
 BYTE   N12  Gs3
 BYTE   W12
 BYTE   N18  As3
 BYTE   W24
 BYTE   N12  Fs3
 BYTE   W18
 BYTE   N03  Cs4
 BYTE   W03
 BYTE   N36  Ds4
 BYTE   W68
// 036   ----------------------------------------
 BYTE   W01
 BYTE   N03  Bn3  v081
 BYTE   W03
 BYTE   N24  Cs4  v127
 BYTE   W24
 BYTE   W03
 BYTE   N12  Bn3
 BYTE   W18
 BYTE   N18
 BYTE   W18
 BYTE   N06  Gs3
 BYTE   W06
 BYTE   N03  Cs4
 BYTE   W03
 BYTE   N36  Ds4
 BYTE   W56
// 037   ----------------------------------------
 BYTE   W01
 BYTE   W12
 BYTE   N03  As3  v081
 BYTE   W03
 BYTE   N12  Bn3  v080
 BYTE   W15
 BYTE   N18  Gs3
 BYTE   W18
 BYTE   N12  As3
 BYTE   W12
 BYTE   N06  Fs3  v127
 BYTE   W06
 BYTE   N12  Gs3
 BYTE   W12
 BYTE   N06  As3
 BYTE   W06
 BYTE   N03  Bn3
 BYTE   W03
 BYTE   N09  Cs4
 BYTE   W09
// 038   ----------------------------------------
 BYTE   N06  Fs3  v099
 BYTE   W06
 BYTE   N12  Gs3
 BYTE   W12
 BYTE   N18  Bn3  v127
 BYTE   W18
 BYTE   N06  Fs3  v099
 BYTE   W06
 BYTE   N12  Gs3
 BYTE   W12
 BYTE   N06  Fs3
 BYTE   W06
 BYTE   N03  Dn4  v127
 BYTE   W03
 BYTE   N09  Ds4
 BYTE   W15
 BYTE   N06  Gs3  v080
 BYTE   W06
 BYTE   N06  Fs3
 BYTE   W06
 BYTE   N06  En4  v127
 BYTE   W06
// 039   ----------------------------------------
 BYTE   N06  Fs3  v080
 BYTE   W06
 BYTE   N06  Gs3
 BYTE   W06
 BYTE   N06  Ds4  v127
 BYTE   W06
 BYTE   N06  En4
 BYTE   W06
 BYTE   N06  Gs3  v080
 BYTE   W06
 BYTE   N06  Fs4  v127
 BYTE   GoTo
  POIN2 Label_4_0131E838
 BYTE   FINE

//******************************************************//
	ALIGN 4

PokemonPinballBluePandan:
	BYTE	5	// NumTrks
	BYTE	0	// NumBlks
	BYTE	PokemonPinballBluePandan_pri	// Priority
	BYTE	PokemonPinballBluePandan_rev	// Reverb.
    
	POIN2	PokemonPinballBluePandan_grp
    
	POIN2	PokemonPinballBluePandan_001
	POIN2	PokemonPinballBluePandan_002
	POIN2	PokemonPinballBluePandan_003
	POIN2	PokemonPinballBluePandan_004
	POIN2	PokemonPinballBluePandan_005

	
