//Event file generated from Sappy .s format.
	#include "MPlayDef.event"

	#define	PokemonSnapValleyPandan_grp  voicegroup000
	#define	PokemonSnapValleyPandan_pri  0
	#define	PokemonSnapValleyPandan_rev  0
	#define	PokemonSnapValleyPandan_mvl  127
	#define	PokemonSnapValleyPandan_key  0
	#define	PokemonSnapValleyPandan_tbs  1
	#define	PokemonSnapValleyPandan_exg  0
	#define	PokemonSnapValleyPandan_cmp  1

	// .rodata
	//	PokemonSnapValleyPandan
	ALIGN 4


//**************** Track 1 (Midi-Chn.0) ****************//

PokemonSnapValleyPandan_001:
// 000   ----------------------------------------
 BYTE   KEYSH   PokemonSnapValleyPandan_key+0
Label_0_01165F8A:
 BYTE   TEMPO   120*PokemonSnapValleyPandan_tbs/2
 BYTE   VOICE   73
 BYTE   PAN   c_v+0
 BYTE   VOL   40*PokemonSnapValleyPandan_mvl/mxv
 BYTE   W90
 BYTE   N06  An4  v127
 BYTE   W06
// 001   ----------------------------------------
Label_0_01165F97:
 BYTE   BEND   c_v+0
 BYTE   N84  En4  v127
 BYTE   W02
 BYTE   BEND   c_v-1
 BYTE   W02
 BYTE   Dn3
 BYTE   W02
 BYTE   Cs3
 BYTE   W02
 BYTE   Cs3
 BYTE   W02
 BYTE   Cn3
 BYTE   W02
 BYTE   Bn2
 BYTE   W02
 BYTE   As2
 BYTE   W02
 BYTE   As2
 BYTE   W02
 BYTE   An2
 BYTE   W02
 BYTE   Gs2
 BYTE   W02
 BYTE   Gn2
 BYTE   W02
 BYTE   Gn2
 BYTE   W02
 BYTE   Fs2
 BYTE   W02
 BYTE   Fn2
 BYTE   W02
 BYTE   En2
 BYTE   W02
 BYTE   En2
 BYTE   W02
 BYTE   Ds2
 BYTE   W02
 BYTE   Dn2
 BYTE   W02
 BYTE   Cs2
 BYTE   W02
 BYTE   Cs2
 BYTE   W02
 BYTE   Cn2
 BYTE   W02
 BYTE   Bn1
 BYTE   W02
 BYTE   Bn1
 BYTE   W02
 BYTE   As1
 BYTE   W02
 BYTE   An1
 BYTE   W02
 BYTE   Gs1
 BYTE   W02
 BYTE   Gs1
 BYTE   W02
 BYTE   Gn1
 BYTE   W02
 BYTE   Fs1
 BYTE   W02
 BYTE   Fn1
 BYTE   W02
 BYTE   Fn1
 BYTE   W02
 BYTE   En1
 BYTE   W02
 BYTE   Ds1
 BYTE   W02
 BYTE   Dn1
 BYTE   W02
 BYTE   Dn1
 BYTE   W02
 BYTE   Cs1
 BYTE   W02
 BYTE   Cn1
 BYTE   W02
 BYTE   Bn0
 BYTE   W02
 BYTE   Bn0
 BYTE   W02
 BYTE   As0
 BYTE   W02
 BYTE   An0
 BYTE   W02
 BYTE   An0
 BYTE   W11
 BYTE   En3
 BYTE   W01
 BYTE   PEND 
// 002   ----------------------------------------
 BYTE   W96
// 003   ----------------------------------------
 BYTE   W96
// 004   ----------------------------------------
 BYTE   W96
// 005   ----------------------------------------
 BYTE   W96
// 006   ----------------------------------------
 BYTE   W96
// 007   ----------------------------------------
 BYTE   W96
// 008   ----------------------------------------
 BYTE   W96
// 009   ----------------------------------------
 BYTE   W96
// 010   ----------------------------------------
 BYTE   VOL   40*PokemonSnapValleyPandan_mvl/mxv
 BYTE   W96
// 011   ----------------------------------------
Label_0_01166000:
 BYTE   BEND   c_v+0
 BYTE   N06  En4  v127
 BYTE   W02
 BYTE   BEND   c_v-1
 BYTE   W02
 BYTE   Dn3
 BYTE   W02
 BYTE   Cs3
 BYTE   N06  An4
 BYTE   W02
 BYTE   BEND   c_v-3
 BYTE   W02
 BYTE   Cn3
 BYTE   W02
 BYTE   Bn2
 BYTE   N06  En4
 BYTE   W02
 BYTE   BEND   c_v-6
 BYTE   W02
 BYTE   As2
 BYTE   W02
 BYTE   An2
 BYTE   N06  An4
 BYTE   W02
 BYTE   BEND   c_v-8
 BYTE   W02
 BYTE   Gn2
 BYTE   W02
 BYTE   Gn2
 BYTE   N72  En4
 BYTE   W02
 BYTE   BEND   c_v-10
 BYTE   W02
 BYTE   Fn2
 BYTE   W02
 BYTE   En2
 BYTE   W02
 BYTE   En2
 BYTE   W02
 BYTE   Ds2
 BYTE   W02
 BYTE   Dn2
 BYTE   W02
 BYTE   Cs2
 BYTE   W02
 BYTE   Cs2
 BYTE   W02
 BYTE   Cn2
 BYTE   W02
 BYTE   Bn1
 BYTE   W02
 BYTE   Bn1
 BYTE   W02
 BYTE   As1
 BYTE   W02
 BYTE   An1
 BYTE   W02
 BYTE   Gs1
 BYTE   W02
 BYTE   Gs1
 BYTE   W02
 BYTE   Gn1
 BYTE   W02
 BYTE   Fs1
 BYTE   W02
 BYTE   Fn1
 BYTE   W02
 BYTE   Fn1
 BYTE   W02
 BYTE   En1
 BYTE   W02
 BYTE   Ds1
 BYTE   W02
 BYTE   Dn1
 BYTE   W02
 BYTE   Dn1
 BYTE   W02
 BYTE   Cs1
 BYTE   W02
 BYTE   Cn1
 BYTE   W02
 BYTE   Bn0
 BYTE   W02
 BYTE   Bn0
 BYTE   W02
 BYTE   As0
 BYTE   W02
 BYTE   An0
 BYTE   W02
 BYTE   An0
 BYTE   W11
 BYTE   En3
 BYTE   W01
 BYTE   PEND 
// 012   ----------------------------------------
 BYTE   W96
// 013   ----------------------------------------
 BYTE   W96
// 014   ----------------------------------------
 BYTE   W96
// 015   ----------------------------------------
 BYTE   W96
// 016   ----------------------------------------
 BYTE   W96
// 017   ----------------------------------------
 BYTE   W96
// 018   ----------------------------------------
 BYTE   W96
// 019   ----------------------------------------
 BYTE   PATT
  POIN2 Label_0_01166000
// 020   ----------------------------------------
 BYTE   W96
// 021   ----------------------------------------
 BYTE   W96
// 022   ----------------------------------------
 BYTE   W96
// 023   ----------------------------------------
 BYTE   W96
// 024   ----------------------------------------
Label_0_0116607A:
 BYTE   VOL   40*PokemonSnapValleyPandan_mvl/mxv
 BYTE   W90
 BYTE   N06  An4  v127
 BYTE   W06
 BYTE   PEND 
// 025   ----------------------------------------
 BYTE   PATT
  POIN2 Label_0_01165F97
// 026   ----------------------------------------
 BYTE   W96
// 027   ----------------------------------------
 BYTE   W96
// 028   ----------------------------------------
 BYTE   W96
// 029   ----------------------------------------
 BYTE   W96
// 030   ----------------------------------------
 BYTE   W96
// 031   ----------------------------------------
 BYTE   W96
// 032   ----------------------------------------
 BYTE   W96
// 033   ----------------------------------------
 BYTE   W96
// 034   ----------------------------------------
 BYTE   VOL   40*PokemonSnapValleyPandan_mvl/mxv
 BYTE   W96
// 035   ----------------------------------------
 BYTE   PATT
  POIN2 Label_0_01166000
// 036   ----------------------------------------
 BYTE   W96
// 037   ----------------------------------------
 BYTE   W96
// 038   ----------------------------------------
 BYTE   W96
// 039   ----------------------------------------
 BYTE   W96
// 040   ----------------------------------------
 BYTE   W96
// 041   ----------------------------------------
 BYTE   W96
// 042   ----------------------------------------
 BYTE   W96
// 043   ----------------------------------------
 BYTE   PATT
  POIN2 Label_0_01166000
// 044   ----------------------------------------
 BYTE   W96
// 045   ----------------------------------------
 BYTE   W96
// 046   ----------------------------------------
 BYTE   W96
// 047   ----------------------------------------
 BYTE   W96
// 048   ----------------------------------------
 BYTE   PATT
  POIN2 Label_0_0116607A
// 049   ----------------------------------------
 BYTE   PATT
  POIN2 Label_0_01165F97
// 050   ----------------------------------------
 BYTE   VOL   40*PokemonSnapValleyPandan_mvl/mxv
 BYTE   W48
 BYTE   W03
 BYTE   GoTo
  POIN2 Label_0_01165F8A
// 051   ----------------------------------------
 BYTE   W44
 BYTE   W01
 BYTE   FINE

//**************** Track 2 (Midi-Chn.1) ****************//

PokemonSnapValleyPandan_002:
// 000   ----------------------------------------
 BYTE   KEYSH   PokemonSnapValleyPandan_key+0
Label_1_011660C6:
 BYTE   VOICE   30
 BYTE   PAN   c_v+0
 BYTE   VOL   32*PokemonSnapValleyPandan_mvl/mxv
 BYTE   W96
// 001   ----------------------------------------
 BYTE   W96
// 002   ----------------------------------------
Label_1_011660CE:
 BYTE   W12
 BYTE   N06  Cn3  v127
 BYTE   N06  En3
 BYTE   W24
 BYTE   Cn3
 BYTE   N06  En3
 BYTE   W24
 BYTE   Cn3
 BYTE   N06  En3
 BYTE   W24
 BYTE   Cn3
 BYTE   N06  En3
 BYTE   W12
 BYTE   PEND 
// 003   ----------------------------------------
 BYTE   PATT
  POIN2 Label_1_011660CE
// 004   ----------------------------------------
 BYTE   PATT
  POIN2 Label_1_011660CE
// 005   ----------------------------------------
 BYTE   PATT
  POIN2 Label_1_011660CE
// 006   ----------------------------------------
 BYTE   PATT
  POIN2 Label_1_011660CE
// 007   ----------------------------------------
 BYTE   PATT
  POIN2 Label_1_011660CE
// 008   ----------------------------------------
 BYTE   PATT
  POIN2 Label_1_011660CE
// 009   ----------------------------------------
Label_1_01166100:
 BYTE   W12
 BYTE   N06  Dn3  v127
 BYTE   N06  Gn3
 BYTE   W24
 BYTE   Dn3
 BYTE   N06  Gn3
 BYTE   W24
 BYTE   Dn3
 BYTE   N06  Gn3
 BYTE   W24
 BYTE   Dn3
 BYTE   N06  Gn3
 BYTE   W12
 BYTE   PEND 
// 010   ----------------------------------------
Label_1_01166114:
 BYTE   W12
 BYTE   N06  Cn3  v127
 BYTE   N06  Fn3
 BYTE   W24
 BYTE   Cn3
 BYTE   N06  Fn3
 BYTE   W24
 BYTE   Cn3
 BYTE   N06  Fn3
 BYTE   W24
 BYTE   Cn3
 BYTE   N06  Fn3
 BYTE   W12
 BYTE   PEND 
// 011   ----------------------------------------
Label_1_01166128:
 BYTE   W12
 BYTE   N06  Bn2  v127
 BYTE   N06  En3
 BYTE   W24
 BYTE   Bn2
 BYTE   N06  En3
 BYTE   W24
 BYTE   Bn2
 BYTE   N06  En3
 BYTE   W24
 BYTE   Bn2
 BYTE   N06  En3
 BYTE   W12
 BYTE   PEND 
// 012   ----------------------------------------
 BYTE   W96
// 013   ----------------------------------------
 BYTE   W96
// 014   ----------------------------------------
 BYTE   W96
// 015   ----------------------------------------
 BYTE   W96
// 016   ----------------------------------------
 BYTE   W96
// 017   ----------------------------------------
 BYTE   W96
// 018   ----------------------------------------
 BYTE   W96
// 019   ----------------------------------------
 BYTE   W96
// 020   ----------------------------------------
 BYTE   W96
// 021   ----------------------------------------
 BYTE   W96
// 022   ----------------------------------------
 BYTE   W96
// 023   ----------------------------------------
 BYTE   W96
// 024   ----------------------------------------
 BYTE   W96
// 025   ----------------------------------------
 BYTE   W96
// 026   ----------------------------------------
 BYTE   PATT
  POIN2 Label_1_011660CE
// 027   ----------------------------------------
 BYTE   PATT
  POIN2 Label_1_011660CE
// 028   ----------------------------------------
 BYTE   PATT
  POIN2 Label_1_011660CE
// 029   ----------------------------------------
 BYTE   PATT
  POIN2 Label_1_011660CE
// 030   ----------------------------------------
 BYTE   PATT
  POIN2 Label_1_011660CE
// 031   ----------------------------------------
 BYTE   PATT
  POIN2 Label_1_011660CE
// 032   ----------------------------------------
 BYTE   PATT
  POIN2 Label_1_011660CE
// 033   ----------------------------------------
 BYTE   PATT
  POIN2 Label_1_01166100
// 034   ----------------------------------------
 BYTE   PATT
  POIN2 Label_1_01166114
// 035   ----------------------------------------
 BYTE   PATT
  POIN2 Label_1_01166128
// 036   ----------------------------------------
 BYTE   W96
// 037   ----------------------------------------
 BYTE   W96
// 038   ----------------------------------------
 BYTE   W96
// 039   ----------------------------------------
 BYTE   W96
// 040   ----------------------------------------
 BYTE   W96
// 041   ----------------------------------------
 BYTE   W96
// 042   ----------------------------------------
 BYTE   W96
// 043   ----------------------------------------
 BYTE   W96
// 044   ----------------------------------------
 BYTE   W96
// 045   ----------------------------------------
 BYTE   W96
// 046   ----------------------------------------
 BYTE   W96
// 047   ----------------------------------------
 BYTE   W96
// 048   ----------------------------------------
 BYTE   W96
// 049   ----------------------------------------
 BYTE   W96
// 050   ----------------------------------------
 BYTE   W48
 BYTE   W03
 BYTE   GoTo
  POIN2 Label_1_011660C6
// 051   ----------------------------------------
 BYTE   W44
 BYTE   W01
 BYTE   FINE

//**************** Track 3 (Midi-Chn.2) ****************//

PokemonSnapValleyPandan_003:
// 000   ----------------------------------------
 BYTE   KEYSH   PokemonSnapValleyPandan_key+0
Label_2_01166196:
 BYTE   VOICE   24
 BYTE   VOL   41*PokemonSnapValleyPandan_mvl/mxv
 BYTE   W96
// 001   ----------------------------------------
 BYTE   W96
// 002   ----------------------------------------
 BYTE   W96
// 003   ----------------------------------------
 BYTE   W96
// 004   ----------------------------------------
Label_2_0116619E:
 BYTE   N48  An1  v127
 BYTE   W72
 BYTE   N12  Cn2
 BYTE   W12
 BYTE   En2
 BYTE   W12
 BYTE   PEND 
// 005   ----------------------------------------
 BYTE   PATT
  POIN2 Label_2_0116619E
// 006   ----------------------------------------
Label_2_011661AD:
 BYTE   N48  Gn2  v127
 BYTE   W72
 BYTE   N12  En2
 BYTE   W12
 BYTE   Cn2
 BYTE   W12
 BYTE   PEND 
// 007   ----------------------------------------
Label_2_011661B7:
 BYTE   N48  En2  v127
 BYTE   W68
 BYTE   W01
 BYTE   N03  Cs2
 BYTE   W03
 BYTE   N12  Dn2
 BYTE   W12
 BYTE   En2
 BYTE   W12
 BYTE   PEND 
// 008   ----------------------------------------
Label_2_011661C5:
 BYTE   N48  An1  v127
 BYTE   W60
 BYTE   N12  Bn1
 BYTE   W12
 BYTE   Cn2
 BYTE   W12
 BYTE   En2
 BYTE   W12
 BYTE   PEND 
// 009   ----------------------------------------
Label_2_011661D1:
 BYTE   N48  Dn2  v127
 BYTE   W48
 BYTE   Gn2
 BYTE   W48
 BYTE   PEND 
// 010   ----------------------------------------
Label_2_011661D8:
 BYTE   N48  Fn2  v127
 BYTE   W48
 BYTE   N36  Cn2
 BYTE   W36
 BYTE   N06  Dn2
 BYTE   W06
 BYTE   Cn2
 BYTE   W06
 BYTE   PEND 
// 011   ----------------------------------------
 BYTE   N72  En2
 BYTE   W96
// 012   ----------------------------------------
 BYTE   W96
// 013   ----------------------------------------
 BYTE   W96
// 014   ----------------------------------------
 BYTE   W96
// 015   ----------------------------------------
 BYTE   W96
// 016   ----------------------------------------
Label_2_011661EC:
 BYTE   N48  En2  v127
 BYTE   W48
 BYTE   N36  An1
 BYTE   W36
 BYTE   N12  En2
 BYTE   W12
 BYTE   PEND 
// 017   ----------------------------------------
Label_2_011661F7:
 BYTE   N48  Dn2  v127
 BYTE   W48
 BYTE   N12  Bn1
 BYTE   W12
 BYTE   Cn2
 BYTE   W12
 BYTE   Bn1
 BYTE   W12
 BYTE   Gn1
 BYTE   W12
 BYTE   PEND 
// 018   ----------------------------------------
Label_2_01166205:
 BYTE   N84  An1  v127
 BYTE   W84
 BYTE   N12  En2
 BYTE   W12
 BYTE   PEND 
// 019   ----------------------------------------
 BYTE   N72  An1
 BYTE   W96
// 020   ----------------------------------------
 BYTE   W96
// 021   ----------------------------------------
 BYTE   W96
// 022   ----------------------------------------
 BYTE   W96
// 023   ----------------------------------------
 BYTE   W96
// 024   ----------------------------------------
 BYTE   W96
// 025   ----------------------------------------
 BYTE   W96
// 026   ----------------------------------------
 BYTE   W96
// 027   ----------------------------------------
 BYTE   W96
// 028   ----------------------------------------
 BYTE   PATT
  POIN2 Label_2_0116619E
// 029   ----------------------------------------
 BYTE   PATT
  POIN2 Label_2_0116619E
// 030   ----------------------------------------
 BYTE   PATT
  POIN2 Label_2_011661AD
// 031   ----------------------------------------
 BYTE   PATT
  POIN2 Label_2_011661B7
// 032   ----------------------------------------
 BYTE   PATT
  POIN2 Label_2_011661C5
// 033   ----------------------------------------
 BYTE   PATT
  POIN2 Label_2_011661D1
// 034   ----------------------------------------
 BYTE   PATT
  POIN2 Label_2_011661D8
// 035   ----------------------------------------
 BYTE   N72  En2  v127
 BYTE   W96
// 036   ----------------------------------------
 BYTE   W96
// 037   ----------------------------------------
 BYTE   W96
// 038   ----------------------------------------
 BYTE   W96
// 039   ----------------------------------------
 BYTE   W96
// 040   ----------------------------------------
 BYTE   PATT
  POIN2 Label_2_011661EC
// 041   ----------------------------------------
 BYTE   PATT
  POIN2 Label_2_011661F7
// 042   ----------------------------------------
 BYTE   PATT
  POIN2 Label_2_01166205
// 043   ----------------------------------------
 BYTE   N72  An1  v127
 BYTE   W96
// 044   ----------------------------------------
 BYTE   W96
// 045   ----------------------------------------
 BYTE   W96
// 046   ----------------------------------------
 BYTE   W96
// 047   ----------------------------------------
 BYTE   W96
// 048   ----------------------------------------
 BYTE   W96
// 049   ----------------------------------------
 BYTE   W96
// 050   ----------------------------------------
 BYTE   W48
 BYTE   W03
 BYTE   GoTo
  POIN2 Label_2_01166196
// 051   ----------------------------------------
 BYTE   W44
 BYTE   W01
 BYTE   FINE

//**************** Track 4 (Midi-Chn.3) ****************//

PokemonSnapValleyPandan_004:
// 000   ----------------------------------------
 BYTE   KEYSH   PokemonSnapValleyPandan_key+0
Label_3_0116626A:
 BYTE   VOICE   56
 BYTE   VOL   24*PokemonSnapValleyPandan_mvl/mxv
 BYTE   PAN   c_v+0
 BYTE   W96
// 001   ----------------------------------------
 BYTE   W96
// 002   ----------------------------------------
 BYTE   W96
// 003   ----------------------------------------
 BYTE   W96
// 004   ----------------------------------------
 BYTE   W96
// 005   ----------------------------------------
 BYTE   W96
// 006   ----------------------------------------
 BYTE   W96
// 007   ----------------------------------------
Label_3_01166277:
 BYTE   N06  An3  v127
 BYTE   W06
 BYTE   Bn3
 BYTE   W06
 BYTE   Cn4
 BYTE   W06
 BYTE   Dn4
 BYTE   W06
 BYTE   N24  En4
 BYTE   W72
 BYTE   PEND 
// 008   ----------------------------------------
 BYTE   W96
// 009   ----------------------------------------
 BYTE   W96
// 010   ----------------------------------------
 BYTE   W96
// 011   ----------------------------------------
 BYTE   W96
// 012   ----------------------------------------
Label_3_01166289:
 BYTE   W12
 BYTE   N06  En3  v127
 BYTE   N06  An3
 BYTE   W24
 BYTE   En3
 BYTE   N06  An3
 BYTE   W24
 BYTE   En3
 BYTE   N06  An3
 BYTE   W24
 BYTE   En3
 BYTE   N06  An3
 BYTE   W12
 BYTE   PEND 
// 013   ----------------------------------------
 BYTE   PATT
  POIN2 Label_3_01166289
// 014   ----------------------------------------
 BYTE   PATT
  POIN2 Label_3_01166289
// 015   ----------------------------------------
 BYTE   PATT
  POIN2 Label_3_01166289
// 016   ----------------------------------------
 BYTE   PATT
  POIN2 Label_3_01166289
// 017   ----------------------------------------
Label_3_011662B1:
 BYTE   W12
 BYTE   N06  Dn3  v127
 BYTE   N06  Gn3
 BYTE   W24
 BYTE   Dn3
 BYTE   N06  Gn3
 BYTE   W24
 BYTE   Dn3
 BYTE   N06  Gn3
 BYTE   W24
 BYTE   Dn3
 BYTE   N06  Gn3
 BYTE   W12
 BYTE   PEND 
// 018   ----------------------------------------
 BYTE   PATT
  POIN2 Label_3_01166289
// 019   ----------------------------------------
 BYTE   PATT
  POIN2 Label_3_01166289
// 020   ----------------------------------------
Label_3_011662CF:
 BYTE   W24
 BYTE   N06  An3  v127
 BYTE   W06
 BYTE   Bn3
 BYTE   W06
 BYTE   Cn4
 BYTE   W06
 BYTE   An3
 BYTE   W06
 BYTE   N36  En4
 BYTE   W36
 BYTE   N12
 BYTE   W12
 BYTE   PEND 
// 021   ----------------------------------------
Label_3_011662E0:
 BYTE   N01  En4  v127
 BYTE   W01
 BYTE   Fn4
 BYTE   W02
 BYTE   N24  Gn4
 BYTE   W24
 BYTE   W03
 BYTE   N06
 BYTE   W06
 BYTE   An4
 BYTE   W06
 BYTE   Gn4
 BYTE   W06
 BYTE   N30  Fs4
 BYTE   W30
 BYTE   N06  Dn4
 BYTE   W06
 BYTE   An3
 BYTE   W06
 BYTE   Bn3
 BYTE   W06
 BYTE   PEND 
// 022   ----------------------------------------
Label_3_011662FB:
 BYTE   N24  Cn4  v127
 BYTE   W24
 BYTE   Dn4
 BYTE   W24
 BYTE   En4
 BYTE   W24
 BYTE   N06  Cn4
 BYTE   W12
 BYTE   An3
 BYTE   W06
 BYTE   Cn4
 BYTE   W06
 BYTE   PEND 
// 023   ----------------------------------------
Label_3_0116630B:
 BYTE   W06
 BYTE   N06  An3  v127
 BYTE   W06
 BYTE   Cn4
 BYTE   W06
 BYTE   Dn4
 BYTE   W06
 BYTE   En4
 BYTE   W06
 BYTE   Fn4
 BYTE   W06
 BYTE   En4
 BYTE   W06
 BYTE   Ds4
 BYTE   W06
 BYTE   En4
 BYTE   W06
 BYTE   Gs4
 BYTE   W06
 BYTE   En4
 BYTE   W06
 BYTE   Ds4
 BYTE   W06
 BYTE   Dn4
 BYTE   W06
 BYTE   Cn4
 BYTE   W06
 BYTE   An3
 BYTE   W06
 BYTE   Cn4
 BYTE   W06
 BYTE   PEND 
// 024   ----------------------------------------
Label_3_0116632D:
 BYTE   N36  An3  v127
 BYTE   W36
 BYTE   W03
 BYTE   N01  Gs3
 BYTE   W01
 BYTE   Gn3
 BYTE   W02
 BYTE   Fs3
 BYTE   W01
 BYTE   Fn3
 BYTE   W02
 BYTE   N24  En3
 BYTE   W48
 BYTE   W03
 BYTE   PEND 
// 025   ----------------------------------------
 BYTE   W96
// 026   ----------------------------------------
 BYTE   W96
// 027   ----------------------------------------
 BYTE   W96
// 028   ----------------------------------------
 BYTE   W96
// 029   ----------------------------------------
 BYTE   W96
// 030   ----------------------------------------
 BYTE   W96
// 031   ----------------------------------------
 BYTE   PATT
  POIN2 Label_3_01166277
// 032   ----------------------------------------
 BYTE   W96
// 033   ----------------------------------------
 BYTE   W96
// 034   ----------------------------------------
 BYTE   W96
// 035   ----------------------------------------
 BYTE   W96
// 036   ----------------------------------------
 BYTE   PATT
  POIN2 Label_3_01166289
// 037   ----------------------------------------
 BYTE   PATT
  POIN2 Label_3_01166289
// 038   ----------------------------------------
 BYTE   PATT
  POIN2 Label_3_01166289
// 039   ----------------------------------------
 BYTE   PATT
  POIN2 Label_3_01166289
// 040   ----------------------------------------
 BYTE   PATT
  POIN2 Label_3_01166289
// 041   ----------------------------------------
 BYTE   PATT
  POIN2 Label_3_011662B1
// 042   ----------------------------------------
 BYTE   PATT
  POIN2 Label_3_01166289
// 043   ----------------------------------------
 BYTE   PATT
  POIN2 Label_3_01166289
// 044   ----------------------------------------
 BYTE   PATT
  POIN2 Label_3_011662CF
// 045   ----------------------------------------
 BYTE   PATT
  POIN2 Label_3_011662E0
// 046   ----------------------------------------
 BYTE   PATT
  POIN2 Label_3_011662FB
// 047   ----------------------------------------
 BYTE   PATT
  POIN2 Label_3_0116630B
// 048   ----------------------------------------
 BYTE   PATT
  POIN2 Label_3_0116632D
// 049   ----------------------------------------
 BYTE   W96
// 050   ----------------------------------------
 BYTE   W48
 BYTE   W03
 BYTE   GoTo
  POIN2 Label_3_0116626A
// 051   ----------------------------------------
 BYTE   W44
 BYTE   W01
 BYTE   FINE

//**************** Track 5 (Midi-Chn.4) ****************//

PokemonSnapValleyPandan_005:
// 000   ----------------------------------------
 BYTE   KEYSH   PokemonSnapValleyPandan_key+0
Label_4_0116639E:
 BYTE   VOICE   52
 BYTE   VOL   37*PokemonSnapValleyPandan_mvl/mxv
 BYTE   W96
// 001   ----------------------------------------
 BYTE   W96
// 002   ----------------------------------------
 BYTE   W96
// 003   ----------------------------------------
 BYTE   W96
// 004   ----------------------------------------
Label_4_011663A6:
 BYTE   W12
 BYTE   N06  En3  v127
 BYTE   N06  An3
 BYTE   W24
 BYTE   En3
 BYTE   N06  An3
 BYTE   W12
 BYTE   En3
 BYTE   N06  An3
 BYTE   W48
 BYTE   PEND 
// 005   ----------------------------------------
 BYTE   PATT
  POIN2 Label_4_011663A6
// 006   ----------------------------------------
Label_4_011663BB:
 BYTE   W12
 BYTE   N06  En3  v127
 BYTE   N06  Gn3
 BYTE   W24
 BYTE   En3
 BYTE   N06  Gn3
 BYTE   W12
 BYTE   En3
 BYTE   N06  Gn3
 BYTE   W48
 BYTE   PEND 
// 007   ----------------------------------------
 BYTE   PATT
  POIN2 Label_4_011663BB
// 008   ----------------------------------------
 BYTE   PATT
  POIN2 Label_4_011663A6
// 009   ----------------------------------------
Label_4_011663D5:
 BYTE   W12
 BYTE   N06  Dn3  v127
 BYTE   N06  Gn3
 BYTE   W24
 BYTE   Dn3
 BYTE   N06  Gn3
 BYTE   W12
 BYTE   Dn3
 BYTE   N06  Gn3
 BYTE   W48
 BYTE   PEND 
// 010   ----------------------------------------
Label_4_011663E5:
 BYTE   W12
 BYTE   N06  Cn3  v127
 BYTE   N06  Fn3
 BYTE   W24
 BYTE   Cn3
 BYTE   N06  Fn3
 BYTE   W12
 BYTE   Cn3
 BYTE   N06  Fn3
 BYTE   W48
 BYTE   PEND 
// 011   ----------------------------------------
Label_4_011663F5:
 BYTE   W12
 BYTE   N06  Bn2  v127
 BYTE   N06  En3
 BYTE   W24
 BYTE   Bn2
 BYTE   N06  En3
 BYTE   W12
 BYTE   Bn2
 BYTE   N06  En3
 BYTE   W48
 BYTE   PEND 
// 012   ----------------------------------------
 BYTE   W96
// 013   ----------------------------------------
 BYTE   W96
// 014   ----------------------------------------
 BYTE   W96
// 015   ----------------------------------------
 BYTE   W96
// 016   ----------------------------------------
 BYTE   W96
// 017   ----------------------------------------
 BYTE   W96
// 018   ----------------------------------------
 BYTE   W96
// 019   ----------------------------------------
 BYTE   W96
// 020   ----------------------------------------
 BYTE   W96
// 021   ----------------------------------------
 BYTE   W96
// 022   ----------------------------------------
 BYTE   W96
// 023   ----------------------------------------
 BYTE   W96
// 024   ----------------------------------------
 BYTE   W96
// 025   ----------------------------------------
 BYTE   W96
// 026   ----------------------------------------
 BYTE   W96
// 027   ----------------------------------------
 BYTE   W96
// 028   ----------------------------------------
 BYTE   PATT
  POIN2 Label_4_011663A6
// 029   ----------------------------------------
 BYTE   PATT
  POIN2 Label_4_011663A6
// 030   ----------------------------------------
 BYTE   PATT
  POIN2 Label_4_011663BB
// 031   ----------------------------------------
 BYTE   PATT
  POIN2 Label_4_011663BB
// 032   ----------------------------------------
 BYTE   PATT
  POIN2 Label_4_011663A6
// 033   ----------------------------------------
 BYTE   PATT
  POIN2 Label_4_011663D5
// 034   ----------------------------------------
 BYTE   PATT
  POIN2 Label_4_011663E5
// 035   ----------------------------------------
 BYTE   PATT
  POIN2 Label_4_011663F5
// 036   ----------------------------------------
 BYTE   W96
// 037   ----------------------------------------
 BYTE   W96
// 038   ----------------------------------------
 BYTE   W96
// 039   ----------------------------------------
 BYTE   W96
// 040   ----------------------------------------
 BYTE   W96
// 041   ----------------------------------------
 BYTE   W96
// 042   ----------------------------------------
 BYTE   W96
// 043   ----------------------------------------
 BYTE   W96
// 044   ----------------------------------------
 BYTE   W96
// 045   ----------------------------------------
 BYTE   W96
// 046   ----------------------------------------
 BYTE   W96
// 047   ----------------------------------------
 BYTE   W96
// 048   ----------------------------------------
 BYTE   W96
// 049   ----------------------------------------
 BYTE   W96
// 050   ----------------------------------------
 BYTE   W48
 BYTE   W03
 BYTE   GoTo
  POIN2 Label_4_0116639E
// 051   ----------------------------------------
 BYTE   W44
 BYTE   W01
 BYTE   FINE

//**************** Track 6 (Midi-Chn.5) ****************//

PokemonSnapValleyPandan_006:
// 000   ----------------------------------------
 BYTE   KEYSH   PokemonSnapValleyPandan_key+0
Label_5_0116645A:
 BYTE   VOICE   56
 BYTE   VOL   45*PokemonSnapValleyPandan_mvl/mxv
 BYTE   PAN   c_v-1
 BYTE   W96
// 001   ----------------------------------------
 BYTE   W96
// 002   ----------------------------------------
 BYTE   W96
// 003   ----------------------------------------
 BYTE   W96
// 004   ----------------------------------------
 BYTE   W96
// 005   ----------------------------------------
 BYTE   W96
// 006   ----------------------------------------
 BYTE   W96
// 007   ----------------------------------------
Label_5_01166467:
 BYTE   W06
 BYTE   N06  An3  v127
 BYTE   W06
 BYTE   Bn3
 BYTE   W06
 BYTE   Cn4
 BYTE   W06
 BYTE   Dn4
 BYTE   W06
 BYTE   N24  En4
 BYTE   W66
 BYTE   PEND 
// 008   ----------------------------------------
 BYTE   W96
// 009   ----------------------------------------
 BYTE   W96
// 010   ----------------------------------------
 BYTE   W96
// 011   ----------------------------------------
 BYTE   W96
// 012   ----------------------------------------
 BYTE   W96
// 013   ----------------------------------------
 BYTE   W96
// 014   ----------------------------------------
 BYTE   W96
// 015   ----------------------------------------
 BYTE   W96
// 016   ----------------------------------------
 BYTE   W96
// 017   ----------------------------------------
 BYTE   W96
// 018   ----------------------------------------
 BYTE   W96
// 019   ----------------------------------------
 BYTE   W96
// 020   ----------------------------------------
 BYTE   W96
// 021   ----------------------------------------
 BYTE   W96
// 022   ----------------------------------------
 BYTE   W96
// 023   ----------------------------------------
 BYTE   W96
// 024   ----------------------------------------
 BYTE   W96
// 025   ----------------------------------------
 BYTE   W96
// 026   ----------------------------------------
 BYTE   W96
// 027   ----------------------------------------
 BYTE   W96
// 028   ----------------------------------------
 BYTE   W96
// 029   ----------------------------------------
 BYTE   W96
// 030   ----------------------------------------
 BYTE   W96
// 031   ----------------------------------------
 BYTE   PATT
  POIN2 Label_5_01166467
// 032   ----------------------------------------
 BYTE   W96
// 033   ----------------------------------------
 BYTE   W96
// 034   ----------------------------------------
 BYTE   W96
// 035   ----------------------------------------
 BYTE   W96
// 036   ----------------------------------------
 BYTE   W96
// 037   ----------------------------------------
 BYTE   W96
// 038   ----------------------------------------
 BYTE   W96
// 039   ----------------------------------------
 BYTE   W96
// 040   ----------------------------------------
 BYTE   W96
// 041   ----------------------------------------
 BYTE   W96
// 042   ----------------------------------------
 BYTE   W96
// 043   ----------------------------------------
 BYTE   W96
// 044   ----------------------------------------
 BYTE   W96
// 045   ----------------------------------------
 BYTE   W96
// 046   ----------------------------------------
 BYTE   W96
// 047   ----------------------------------------
 BYTE   W96
// 048   ----------------------------------------
 BYTE   W96
// 049   ----------------------------------------
 BYTE   W96
// 050   ----------------------------------------
 BYTE   W48
 BYTE   W03
 BYTE   GoTo
  POIN2 Label_5_0116645A
// 051   ----------------------------------------
 BYTE   W44
 BYTE   W01
 BYTE   FINE

//**************** Track 7 (Midi-Chn.6) ****************//

PokemonSnapValleyPandan_007:
// 000   ----------------------------------------
 BYTE   KEYSH   PokemonSnapValleyPandan_key+0
Label_6_011664B2:
 BYTE   VOICE   32
 BYTE   VOL   71*PokemonSnapValleyPandan_mvl/mxv
 BYTE   W96
// 001   ----------------------------------------
 BYTE   W96
// 002   ----------------------------------------
 BYTE   W96
// 003   ----------------------------------------
 BYTE   W96
// 004   ----------------------------------------
Label_6_011664BA:
 BYTE   N24  An0  v127
 BYTE   W24
 BYTE   N12  Cn1
 BYTE   W12
 BYTE   En1
 BYTE   W12
 BYTE   N24  An0
 BYTE   W24
 BYTE   N12  Cn1
 BYTE   W12
 BYTE   En1
 BYTE   W12
 BYTE   PEND 
// 005   ----------------------------------------
 BYTE   PATT
  POIN2 Label_6_011664BA
// 006   ----------------------------------------
Label_6_011664D1:
 BYTE   N24  Cn1  v127
 BYTE   W24
 BYTE   N12  En1
 BYTE   W12
 BYTE   Gn1
 BYTE   W12
 BYTE   N24  Cn1
 BYTE   W24
 BYTE   N12  En1
 BYTE   W12
 BYTE   Gn1
 BYTE   W12
 BYTE   PEND 
// 007   ----------------------------------------
 BYTE   PATT
  POIN2 Label_6_011664D1
// 008   ----------------------------------------
 BYTE   PATT
  POIN2 Label_6_011664BA
// 009   ----------------------------------------
Label_6_011664ED:
 BYTE   N24  Gn0  v127
 BYTE   W24
 BYTE   N12  Bn0
 BYTE   W12
 BYTE   Dn1
 BYTE   W12
 BYTE   N24  Gn0
 BYTE   W24
 BYTE   N12  Bn0
 BYTE   W12
 BYTE   Dn1
 BYTE   W12
 BYTE   PEND 
// 010   ----------------------------------------
Label_6_011664FF:
 BYTE   N24  Fn0  v127
 BYTE   W24
 BYTE   N12  An0
 BYTE   W12
 BYTE   Cn1
 BYTE   W12
 BYTE   N24  Fn0
 BYTE   W24
 BYTE   N12  An0
 BYTE   W12
 BYTE   Cn1
 BYTE   W12
 BYTE   PEND 
// 011   ----------------------------------------
Label_6_01166511:
 BYTE   N24  En0  v127
 BYTE   W24
 BYTE   N12  Gs0
 BYTE   W12
 BYTE   Bn0
 BYTE   W12
 BYTE   N24  Gs0
 BYTE   W24
 BYTE   N12  Bn0
 BYTE   W12
 BYTE   En1
 BYTE   W12
 BYTE   PEND 
// 012   ----------------------------------------
Label_6_01166523:
 BYTE   N24  An0  v127
 BYTE   W24
 BYTE   N12  Cn1
 BYTE   W12
 BYTE   En1
 BYTE   W12
 BYTE   N24  Bn0
 BYTE   W24
 BYTE   N12  Dn1
 BYTE   W12
 BYTE   En1
 BYTE   W12
 BYTE   PEND 
// 013   ----------------------------------------
Label_6_01166535:
 BYTE   N24  Cn1  v127
 BYTE   W24
 BYTE   N12  En1
 BYTE   W12
 BYTE   Gn1
 BYTE   W12
 BYTE   An1
 BYTE   W12
 BYTE   Gn1
 BYTE   W12
 BYTE   En1
 BYTE   W12
 BYTE   Cn1
 BYTE   W12
 BYTE   PEND 
// 014   ----------------------------------------
Label_6_01166547:
 BYTE   N12  An0  v127
 BYTE   W12
 BYTE   Bn0
 BYTE   W12
 BYTE   Cn1
 BYTE   W12
 BYTE   Dn1
 BYTE   W12
 BYTE   Bn0
 BYTE   W12
 BYTE   Cn1
 BYTE   W12
 BYTE   Dn1
 BYTE   W12
 BYTE   En1
 BYTE   W12
 BYTE   PEND 
// 015   ----------------------------------------
Label_6_0116655A:
 BYTE   N12  Cn1  v127
 BYTE   W12
 BYTE   Dn1
 BYTE   W12
 BYTE   En1
 BYTE   W12
 BYTE   Gn1
 BYTE   W12
 BYTE   An1
 BYTE   W12
 BYTE   Gn1
 BYTE   W12
 BYTE   En1
 BYTE   W12
 BYTE   Cn1
 BYTE   W12
 BYTE   PEND 
// 016   ----------------------------------------
 BYTE   PATT
  POIN2 Label_6_011664BA
// 017   ----------------------------------------
 BYTE   PATT
  POIN2 Label_6_011664ED
// 018   ----------------------------------------
 BYTE   PATT
  POIN2 Label_6_011664BA
// 019   ----------------------------------------
Label_6_0116657C:
 BYTE   N24  An0  v127
 BYTE   W24
 BYTE   N12  Cn1
 BYTE   W12
 BYTE   En1
 BYTE   W12
 BYTE   An0
 BYTE   W12
 BYTE   En1
 BYTE   W12
 BYTE   Cn1
 BYTE   W12
 BYTE   En0
 BYTE   W12
 BYTE   PEND 
// 020   ----------------------------------------
Label_6_0116658E:
 BYTE   N12  An0  v127
 BYTE   W12
 BYTE   Cn1
 BYTE   W12
 BYTE   Dn1
 BYTE   W12
 BYTE   Fn1
 BYTE   W12
 BYTE   Gs0
 BYTE   W12
 BYTE   En1
 BYTE   W12
 BYTE   Dn1
 BYTE   W12
 BYTE   Bn0
 BYTE   W12
 BYTE   PEND 
// 021   ----------------------------------------
Label_6_011665A1:
 BYTE   N12  Gn0  v127
 BYTE   W12
 BYTE   Bn0
 BYTE   W12
 BYTE   Dn1
 BYTE   W12
 BYTE   En1
 BYTE   W12
 BYTE   Dn1
 BYTE   W12
 BYTE   An0
 BYTE   W12
 BYTE   As0
 BYTE   W12
 BYTE   Cn1
 BYTE   W12
 BYTE   PEND 
// 022   ----------------------------------------
Label_6_011665B4:
 BYTE   N12  Dn1  v127
 BYTE   W12
 BYTE   An0
 BYTE   W12
 BYTE   Cn1
 BYTE   W12
 BYTE   Cs1
 BYTE   W12
 BYTE   Dn1
 BYTE   W12
 BYTE   An1
 BYTE   W12
 BYTE   Gn1
 BYTE   W12
 BYTE   Fn1
 BYTE   W12
 BYTE   PEND 
// 023   ----------------------------------------
Label_6_011665C7:
 BYTE   N12  Cn1  v127
 BYTE   W12
 BYTE   En1
 BYTE   W12
 BYTE   Dn1
 BYTE   W12
 BYTE   Fn1
 BYTE   W12
 BYTE   En1
 BYTE   W12
 BYTE   An1
 BYTE   W12
 BYTE   Gs1
 BYTE   W12
 BYTE   Bn1
 BYTE   W12
 BYTE   PEND 
// 024   ----------------------------------------
 BYTE   N48  An0
 BYTE   W96
// 025   ----------------------------------------
 BYTE   W96
// 026   ----------------------------------------
 BYTE   W96
// 027   ----------------------------------------
 BYTE   W96
// 028   ----------------------------------------
 BYTE   PATT
  POIN2 Label_6_011664BA
// 029   ----------------------------------------
 BYTE   PATT
  POIN2 Label_6_011664BA
// 030   ----------------------------------------
 BYTE   PATT
  POIN2 Label_6_011664D1
// 031   ----------------------------------------
 BYTE   PATT
  POIN2 Label_6_011664D1
// 032   ----------------------------------------
 BYTE   PATT
  POIN2 Label_6_011664BA
// 033   ----------------------------------------
 BYTE   PATT
  POIN2 Label_6_011664ED
// 034   ----------------------------------------
 BYTE   PATT
  POIN2 Label_6_011664FF
// 035   ----------------------------------------
 BYTE   PATT
  POIN2 Label_6_01166511
// 036   ----------------------------------------
 BYTE   PATT
  POIN2 Label_6_01166523
// 037   ----------------------------------------
 BYTE   PATT
  POIN2 Label_6_01166535
// 038   ----------------------------------------
 BYTE   PATT
  POIN2 Label_6_01166547
// 039   ----------------------------------------
 BYTE   PATT
  POIN2 Label_6_0116655A
// 040   ----------------------------------------
 BYTE   PATT
  POIN2 Label_6_011664BA
// 041   ----------------------------------------
 BYTE   PATT
  POIN2 Label_6_011664ED
// 042   ----------------------------------------
 BYTE   PATT
  POIN2 Label_6_011664BA
// 043   ----------------------------------------
 BYTE   PATT
  POIN2 Label_6_0116657C
// 044   ----------------------------------------
 BYTE   PATT
  POIN2 Label_6_0116658E
// 045   ----------------------------------------
 BYTE   PATT
  POIN2 Label_6_011665A1
// 046   ----------------------------------------
 BYTE   PATT
  POIN2 Label_6_011665B4
// 047   ----------------------------------------
 BYTE   PATT
  POIN2 Label_6_011665C7
// 048   ----------------------------------------
 BYTE   N48  An0  v127
 BYTE   W96
// 049   ----------------------------------------
 BYTE   W96
// 050   ----------------------------------------
 BYTE   W48
 BYTE   W03
 BYTE   GoTo
  POIN2 Label_6_011664B2
// 051   ----------------------------------------
 BYTE   W44
 BYTE   W01
 BYTE   FINE

//**************** Track 8 (Midi-Chn.7) ****************//

PokemonSnapValleyPandan_008:
// 000   ----------------------------------------
 BYTE   KEYSH   PokemonSnapValleyPandan_key+0
Label_7_01166656:
 BYTE   VOICE   75
 BYTE   VOL   37*PokemonSnapValleyPandan_mvl/mxv
 BYTE   W96
// 001   ----------------------------------------
 BYTE   W96
// 002   ----------------------------------------
 BYTE   W96
// 003   ----------------------------------------
 BYTE   W96
// 004   ----------------------------------------
 BYTE   W96
// 005   ----------------------------------------
 BYTE   W96
// 006   ----------------------------------------
 BYTE   W96
// 007   ----------------------------------------
 BYTE   W96
// 008   ----------------------------------------
 BYTE   W96
// 009   ----------------------------------------
 BYTE   W96
// 010   ----------------------------------------
 BYTE   W96
// 011   ----------------------------------------
 BYTE   W96
// 012   ----------------------------------------
Label_7_01166666:
 BYTE   N24  An4  v127
 BYTE   W24
 BYTE   N12  En4
 BYTE   W12
 BYTE   An4
 BYTE   W12
 BYTE   N24  Gs4
 BYTE   W24
 BYTE   N12  En4
 BYTE   W12
 BYTE   Gs4
 BYTE   W12
 BYTE   PEND 
// 013   ----------------------------------------
Label_7_01166678:
 BYTE   N24  Gn4  v127
 BYTE   W24
 BYTE   N12  En4
 BYTE   W12
 BYTE   Gn4
 BYTE   W12
 BYTE   Fs4
 BYTE   W12
 BYTE   En4
 BYTE   W12
 BYTE   Cn4
 BYTE   W12
 BYTE   An3
 BYTE   W12
 BYTE   PEND 
// 014   ----------------------------------------
 BYTE   PATT
  POIN2 Label_7_01166666
// 015   ----------------------------------------
 BYTE   PATT
  POIN2 Label_7_01166678
// 016   ----------------------------------------
 BYTE   W96
// 017   ----------------------------------------
 BYTE   W96
// 018   ----------------------------------------
 BYTE   W96
// 019   ----------------------------------------
 BYTE   W96
// 020   ----------------------------------------
 BYTE   W96
// 021   ----------------------------------------
 BYTE   W96
// 022   ----------------------------------------
 BYTE   W96
// 023   ----------------------------------------
 BYTE   W96
// 024   ----------------------------------------
 BYTE   W96
// 025   ----------------------------------------
 BYTE   W96
// 026   ----------------------------------------
 BYTE   W96
// 027   ----------------------------------------
 BYTE   W96
// 028   ----------------------------------------
 BYTE   W96
// 029   ----------------------------------------
 BYTE   W96
// 030   ----------------------------------------
 BYTE   W96
// 031   ----------------------------------------
 BYTE   W96
// 032   ----------------------------------------
 BYTE   W96
// 033   ----------------------------------------
 BYTE   W96
// 034   ----------------------------------------
 BYTE   W96
// 035   ----------------------------------------
 BYTE   W96
// 036   ----------------------------------------
 BYTE   PATT
  POIN2 Label_7_01166666
// 037   ----------------------------------------
 BYTE   PATT
  POIN2 Label_7_01166678
// 038   ----------------------------------------
 BYTE   PATT
  POIN2 Label_7_01166666
// 039   ----------------------------------------
 BYTE   PATT
  POIN2 Label_7_01166678
// 040   ----------------------------------------
 BYTE   W96
// 041   ----------------------------------------
 BYTE   W96
// 042   ----------------------------------------
 BYTE   W96
// 043   ----------------------------------------
 BYTE   W96
// 044   ----------------------------------------
 BYTE   W96
// 045   ----------------------------------------
 BYTE   W96
// 046   ----------------------------------------
 BYTE   W96
// 047   ----------------------------------------
 BYTE   W96
// 048   ----------------------------------------
 BYTE   W96
// 049   ----------------------------------------
 BYTE   W96
// 050   ----------------------------------------
 BYTE   W48
 BYTE   W03
 BYTE   GoTo
  POIN2 Label_7_01166656
// 051   ----------------------------------------
 BYTE   W44
 BYTE   W01
 BYTE   FINE

//**************** Track 9 (Midi-Chn.8) ****************//

PokemonSnapValleyPandan_009:
// 000   ----------------------------------------
 BYTE   KEYSH   PokemonSnapValleyPandan_key+0
Label_8_011666D2:
 BYTE   VOICE   121
 BYTE   VOL   25*PokemonSnapValleyPandan_mvl/mxv
 BYTE   N12  Dn1  v127
 BYTE   W12
 BYTE   N06  En1
 BYTE   W12
 BYTE   N06
 BYTE   W12
 BYTE   N06
 BYTE   W12
 BYTE   N12  Dn1
 BYTE   W12
 BYTE   N06  En1
 BYTE   W12
 BYTE   N06
 BYTE   W12
 BYTE   N06
 BYTE   W12
// 001   ----------------------------------------
Label_8_011666EB:
 BYTE   N12  Dn1  v127
 BYTE   W12
 BYTE   N06  En1
 BYTE   W12
 BYTE   N06
 BYTE   W12
 BYTE   N06
 BYTE   W12
 BYTE   N12  Dn1
 BYTE   W12
 BYTE   N06  En1
 BYTE   W12
 BYTE   N06
 BYTE   W12
 BYTE   N06
 BYTE   W12
 BYTE   PEND 
// 002   ----------------------------------------
Label_8_01166701:
 BYTE   N06  Bn0  v127
 BYTE   W12
 BYTE   Fs2
 BYTE   W12
 BYTE   Bn0
 BYTE   W12
 BYTE   Fs2
 BYTE   W12
 BYTE   Bn0
 BYTE   W12
 BYTE   Fs2
 BYTE   W12
 BYTE   Bn0
 BYTE   W12
 BYTE   Fs2
 BYTE   W12
 BYTE   PEND 
// 003   ----------------------------------------
 BYTE   PATT
  POIN2 Label_8_01166701
// 004   ----------------------------------------
 BYTE   PATT
  POIN2 Label_8_01166701
// 005   ----------------------------------------
 BYTE   PATT
  POIN2 Label_8_01166701
// 006   ----------------------------------------
 BYTE   PATT
  POIN2 Label_8_01166701
// 007   ----------------------------------------
 BYTE   PATT
  POIN2 Label_8_01166701
// 008   ----------------------------------------
 BYTE   PATT
  POIN2 Label_8_01166701
// 009   ----------------------------------------
 BYTE   PATT
  POIN2 Label_8_01166701
// 010   ----------------------------------------
 BYTE   PATT
  POIN2 Label_8_01166701
// 011   ----------------------------------------
 BYTE   PATT
  POIN2 Label_8_01166701
// 012   ----------------------------------------
 BYTE   PATT
  POIN2 Label_8_01166701
// 013   ----------------------------------------
 BYTE   PATT
  POIN2 Label_8_01166701
// 014   ----------------------------------------
 BYTE   PATT
  POIN2 Label_8_01166701
// 015   ----------------------------------------
 BYTE   PATT
  POIN2 Label_8_01166701
// 016   ----------------------------------------
 BYTE   PATT
  POIN2 Label_8_01166701
// 017   ----------------------------------------
 BYTE   PATT
  POIN2 Label_8_01166701
// 018   ----------------------------------------
 BYTE   PATT
  POIN2 Label_8_01166701
// 019   ----------------------------------------
Label_8_01166764:
 BYTE   N06  Bn0  v127
 BYTE   W12
 BYTE   Fs2
 BYTE   W12
 BYTE   Bn0
 BYTE   W12
 BYTE   Fs2
 BYTE   W12
 BYTE   Bn0
 BYTE   W12
 BYTE   N06
 BYTE   N06  Fs2
 BYTE   W12
 BYTE   Bn0
 BYTE   N06  Fs2
 BYTE   W12
 BYTE   Bn0
 BYTE   N06  Gs1
 BYTE   N06  Fs2
 BYTE   N06  An3
 BYTE   N06  As3
 BYTE   W06
 BYTE   Gs1
 BYTE   N06  An3
 BYTE   N06  As3
 BYTE   W06
 BYTE   PEND 
// 020   ----------------------------------------
Label_8_01166789:
 BYTE   N06  Bn0  v127
 BYTE   N06  Gs1
 BYTE   W12
 BYTE   N06
 BYTE   N06  Fs2
 BYTE   W12
 BYTE   Bn0
 BYTE   N06  Gs1
 BYTE   W12
 BYTE   N06
 BYTE   N06  Fs2
 BYTE   W12
 BYTE   Bn0
 BYTE   N06  Gs1
 BYTE   W12
 BYTE   N06
 BYTE   N06  Fs2
 BYTE   W12
 BYTE   Bn0
 BYTE   N06  Gs1
 BYTE   W09
 BYTE   N03
 BYTE   W03
 BYTE   N06
 BYTE   N06  Fs2
 BYTE   W09
 BYTE   N03  As1
 BYTE   W03
 BYTE   PEND 
// 021   ----------------------------------------
 BYTE   PATT
  POIN2 Label_8_01166789
// 022   ----------------------------------------
 BYTE   PATT
  POIN2 Label_8_01166789
// 023   ----------------------------------------
Label_8_011667BB:
 BYTE   N06  Bn0  v127
 BYTE   N06  Gs1
 BYTE   W12
 BYTE   N06
 BYTE   N06  Fs2
 BYTE   W12
 BYTE   Bn0
 BYTE   N06  Gs1
 BYTE   W12
 BYTE   N06
 BYTE   N06  Fs2
 BYTE   W12
 BYTE   Bn0
 BYTE   N06  Gs1
 BYTE   W12
 BYTE   N06
 BYTE   N06  Fs2
 BYTE   W12
 BYTE   Bn0
 BYTE   N06  Gs1
 BYTE   W06
 BYTE   As3
 BYTE   W03
 BYTE   N03  Gs1
 BYTE   W03
 BYTE   N06
 BYTE   N06  Fs2
 BYTE   N06  As3
 BYTE   W06
 BYTE   N06
 BYTE   W03
 BYTE   N03  As1
 BYTE   W03
 BYTE   PEND 
// 024   ----------------------------------------
 BYTE   PATT
  POIN2 Label_8_011666EB
// 025   ----------------------------------------
 BYTE   PATT
  POIN2 Label_8_011666EB
// 026   ----------------------------------------
 BYTE   PATT
  POIN2 Label_8_01166701
// 027   ----------------------------------------
 BYTE   PATT
  POIN2 Label_8_01166701
// 028   ----------------------------------------
 BYTE   PATT
  POIN2 Label_8_01166701
// 029   ----------------------------------------
 BYTE   PATT
  POIN2 Label_8_01166701
// 030   ----------------------------------------
 BYTE   PATT
  POIN2 Label_8_01166701
// 031   ----------------------------------------
 BYTE   PATT
  POIN2 Label_8_01166701
// 032   ----------------------------------------
 BYTE   PATT
  POIN2 Label_8_01166701
// 033   ----------------------------------------
 BYTE   PATT
  POIN2 Label_8_01166701
// 034   ----------------------------------------
 BYTE   PATT
  POIN2 Label_8_01166701
// 035   ----------------------------------------
 BYTE   PATT
  POIN2 Label_8_01166701
// 036   ----------------------------------------
 BYTE   PATT
  POIN2 Label_8_01166701
// 037   ----------------------------------------
 BYTE   PATT
  POIN2 Label_8_01166701
// 038   ----------------------------------------
 BYTE   PATT
  POIN2 Label_8_01166701
// 039   ----------------------------------------
 BYTE   PATT
  POIN2 Label_8_01166701
// 040   ----------------------------------------
 BYTE   PATT
  POIN2 Label_8_01166701
// 041   ----------------------------------------
 BYTE   PATT
  POIN2 Label_8_01166701
// 042   ----------------------------------------
 BYTE   PATT
  POIN2 Label_8_01166701
// 043   ----------------------------------------
 BYTE   PATT
  POIN2 Label_8_01166764
// 044   ----------------------------------------
 BYTE   PATT
  POIN2 Label_8_01166789
// 045   ----------------------------------------
 BYTE   PATT
  POIN2 Label_8_01166789
// 046   ----------------------------------------
 BYTE   PATT
  POIN2 Label_8_01166789
// 047   ----------------------------------------
 BYTE   PATT
  POIN2 Label_8_011667BB
// 048   ----------------------------------------
 BYTE   PATT
  POIN2 Label_8_011666EB
// 049   ----------------------------------------
 BYTE   W96
// 050   ----------------------------------------
 BYTE   N96  Cs2  v127
 BYTE   W48
 BYTE   W03
 BYTE   GoTo
  POIN2 Label_8_011666D2
// 051   ----------------------------------------
 BYTE   W44
 BYTE   W01
 BYTE   FINE

//**************** Track 10 (Midi-Chn.9) ****************//

PokemonSnapValleyPandan_010:
// 000   ----------------------------------------
 BYTE   KEYSH   PokemonSnapValleyPandan_key+0
Label_9_011668F2:
 BYTE   VOICE   4
 BYTE   VOL   39*PokemonSnapValleyPandan_mvl/mxv
 BYTE   W96
// 001   ----------------------------------------
 BYTE   W96
// 002   ----------------------------------------
 BYTE   W96
// 003   ----------------------------------------
 BYTE   W96
// 004   ----------------------------------------
 BYTE   W96
// 005   ----------------------------------------
 BYTE   W96
// 006   ----------------------------------------
 BYTE   W96
// 007   ----------------------------------------
 BYTE   W96
// 008   ----------------------------------------
 BYTE   W96
// 009   ----------------------------------------
 BYTE   W96
// 010   ----------------------------------------
 BYTE   W96
// 011   ----------------------------------------
 BYTE   W96
// 012   ----------------------------------------
 BYTE   W96
// 013   ----------------------------------------
 BYTE   W96
// 014   ----------------------------------------
 BYTE   W96
// 015   ----------------------------------------
 BYTE   W96
// 016   ----------------------------------------
 BYTE   W96
// 017   ----------------------------------------
 BYTE   W96
// 018   ----------------------------------------
 BYTE   W96
// 019   ----------------------------------------
 BYTE   W96
// 020   ----------------------------------------
Label_9_0116690A:
 BYTE   W12
 BYTE   N12  Cn3  v127
 BYTE   N12  En3
 BYTE   W18
 BYTE   N12
 BYTE   N12  An3
 BYTE   W18
 BYTE   En3
 BYTE   N12  Gs3
 BYTE   W18
 BYTE   Cn3
 BYTE   N12  En3
 BYTE   W18
 BYTE   Cn3
 BYTE   N12  En3
 BYTE   N12  Gs3
 BYTE   W12
 BYTE   PEND 
// 021   ----------------------------------------
Label_9_01166924:
 BYTE   N12  Bn2  v127
 BYTE   N12  Dn3
 BYTE   N12  Gn3
 BYTE   W24
 BYTE   As2
 BYTE   N12  Dn3
 BYTE   N12  Gn3
 BYTE   W24
 BYTE   An2
 BYTE   N12  Dn3
 BYTE   N12  Fs3
 BYTE   W18
 BYTE   N18  Dn3
 BYTE   W18
 BYTE   N12  En3
 BYTE   W12
 BYTE   PEND 
// 022   ----------------------------------------
Label_9_0116693F:
 BYTE   N06  Fn3  v127
 BYTE   W06
 BYTE   En3
 BYTE   W06
 BYTE   Fn3
 BYTE   W06
 BYTE   Cn3
 BYTE   W06
 BYTE   An2
 BYTE   W06
 BYTE   Cn3
 BYTE   W06
 BYTE   Fn3
 BYTE   W06
 BYTE   En3
 BYTE   W06
 BYTE   Fn3
 BYTE   W06
 BYTE   Cn3
 BYTE   W06
 BYTE   An2
 BYTE   W06
 BYTE   Cn3
 BYTE   W06
 BYTE   Fn3
 BYTE   W06
 BYTE   En3
 BYTE   W06
 BYTE   Fn3
 BYTE   W06
 BYTE   Cn3
 BYTE   W06
 BYTE   PEND 
// 023   ----------------------------------------
Label_9_01166962:
 BYTE   N12  An2  v127
 BYTE   N12  Cn3
 BYTE   N12  En3
 BYTE   W24
 BYTE   Bn2
 BYTE   N12  Dn3
 BYTE   N12  Fn3
 BYTE   W24
 BYTE   Gs2
 BYTE   N12  Bn2
 BYTE   N12  Dn3
 BYTE   W24
 BYTE   En3
 BYTE   W18
 BYTE   N06  Dn3
 BYTE   W06
 BYTE   PEND 
// 024   ----------------------------------------
 BYTE   N48  En3
 BYTE   W96
// 025   ----------------------------------------
 BYTE   W96
// 026   ----------------------------------------
 BYTE   W96
// 027   ----------------------------------------
 BYTE   W96
// 028   ----------------------------------------
 BYTE   W96
// 029   ----------------------------------------
 BYTE   W96
// 030   ----------------------------------------
 BYTE   W96
// 031   ----------------------------------------
 BYTE   W96
// 032   ----------------------------------------
 BYTE   W96
// 033   ----------------------------------------
 BYTE   W96
// 034   ----------------------------------------
 BYTE   W96
// 035   ----------------------------------------
 BYTE   W96
// 036   ----------------------------------------
 BYTE   W96
// 037   ----------------------------------------
 BYTE   W96
// 038   ----------------------------------------
 BYTE   W96
// 039   ----------------------------------------
 BYTE   W96
// 040   ----------------------------------------
 BYTE   W96
// 041   ----------------------------------------
 BYTE   W96
// 042   ----------------------------------------
 BYTE   W96
// 043   ----------------------------------------
 BYTE   W96
// 044   ----------------------------------------
 BYTE   PATT
  POIN2 Label_9_0116690A
// 045   ----------------------------------------
 BYTE   PATT
  POIN2 Label_9_01166924
// 046   ----------------------------------------
 BYTE   PATT
  POIN2 Label_9_0116693F
// 047   ----------------------------------------
 BYTE   PATT
  POIN2 Label_9_01166962
// 048   ----------------------------------------
 BYTE   N48  En3  v127
 BYTE   W96
// 049   ----------------------------------------
 BYTE   W96
// 050   ----------------------------------------
 BYTE   W48
 BYTE   W03
 BYTE   GoTo
  POIN2 Label_9_011668F2
// 051   ----------------------------------------
 BYTE   W44
 BYTE   W01
 BYTE   FINE

//******************************************************//
	ALIGN 4

PokemonSnapValleyPandan:
	BYTE	10	// NumTrks
	BYTE	0	// NumBlks
	BYTE	PokemonSnapValleyPandan_pri	// Priority
	BYTE	PokemonSnapValleyPandan_rev	// Reverb.
    
	POIN2	PokemonSnapValleyPandan_grp
    
	POIN2	PokemonSnapValleyPandan_001
	POIN2	PokemonSnapValleyPandan_002
	POIN2	PokemonSnapValleyPandan_003
	POIN2	PokemonSnapValleyPandan_004
	POIN2	PokemonSnapValleyPandan_005
	POIN2	PokemonSnapValleyPandan_006
	POIN2	PokemonSnapValleyPandan_007
	POIN2	PokemonSnapValleyPandan_008
	POIN2	PokemonSnapValleyPandan_009
	POIN2	PokemonSnapValleyPandan_010

	
