//Event file generated from Sappy .s format.
	#include "MPlayDef.event"

	#define	PokemonDPPtBattleCyrusGratedShtick_grp  voicegroup000
	#define	PokemonDPPtBattleCyrusGratedShtick_pri  0
	#define	PokemonDPPtBattleCyrusGratedShtick_rev  0
	#define	PokemonDPPtBattleCyrusGratedShtick_mvl  127
	#define	PokemonDPPtBattleCyrusGratedShtick_key  0
	#define	PokemonDPPtBattleCyrusGratedShtick_tbs  1
	#define	PokemonDPPtBattleCyrusGratedShtick_exg  0
	#define	PokemonDPPtBattleCyrusGratedShtick_cmp  1

	// .rodata
	//	PokemonDPPtBattleCyrusGratedShtick
	ALIGN 4


//**************** Track 1 (Midi-Chn.0) ****************//

PokemonDPPtBattleCyrusGratedShtick_001:
// 000   ----------------------------------------
 BYTE   KEYSH   PokemonDPPtBattleCyrusGratedShtick_key+0
 BYTE   TEMPO   174*PokemonDPPtBattleCyrusGratedShtick_tbs/2
 BYTE   VOICE   38
 BYTE   PAN   c_v+0
 BYTE   MOD 0
 BYTE   CnM2
 BYTE   VOL   60*PokemonDPPtBattleCyrusGratedShtick_mvl/mxv
 BYTE   BEND   c_v+0
 BYTE   W96
// 001   ----------------------------------------
 BYTE   W96
// 002   ----------------------------------------
 BYTE   W96
// 003   ----------------------------------------
 BYTE   W96
// 004   ----------------------------------------
 BYTE   W96
// 005   ----------------------------------------
 BYTE   W96
// 006   ----------------------------------------
Label_0_01000614:
 BYTE   N07  Cn1  v112
 BYTE   W08
 BYTE   Cn1  v040
 BYTE   W08
 BYTE   Cn1  v112
 BYTE   W08
 BYTE   Cn1  v040
 BYTE   W08
 BYTE   Cn1  v112
 BYTE   W08
 BYTE   Cs1
 BYTE   W08
 BYTE   As0
 BYTE   W08
 BYTE   As0  v040
 BYTE   W08
 BYTE   As0  v112
 BYTE   W08
 BYTE   As0  v040
 BYTE   W08
 BYTE   As0  v112
 BYTE   W08
 BYTE   Cs1
 BYTE   W08
 BYTE   PEND 
 BYTE   PATT
  POIN2 Label_0_01000614
 BYTE   PATT
  POIN2 Label_0_01000614
// 007   ----------------------------------------
 BYTE   N07  Cn1  v112
 BYTE   W08
 BYTE   Cn1  v040
 BYTE   W08
 BYTE   Cn1  v112
 BYTE   W08
 BYTE   Cn1  v040
 BYTE   W08
 BYTE   Cn1  v112
 BYTE   W08
 BYTE   Cs1
 BYTE   W08
 BYTE   As0
 BYTE   W08
 BYTE   As0  v040
 BYTE   W08
 BYTE   As0  v112
 BYTE   W08
 BYTE   Gn0
 BYTE   W08
 BYTE   Gs0
 BYTE   W08
 BYTE   Cs1
 BYTE   W08
// 008   ----------------------------------------
Label_0_01000661:
 BYTE   PATT
  POIN2 Label_0_01000614
 BYTE   PATT
  POIN2 Label_0_01000614
 BYTE   PATT
  POIN2 Label_0_01000614
 BYTE   PATT
  POIN2 Label_0_01000614
// 009   ----------------------------------------
Label_0_01000675:
 BYTE   N07  As0  v112
 BYTE   W08
 BYTE   As0  v040
 BYTE   W08
 BYTE   As0  v112
 BYTE   W08
 BYTE   As0  v040
 BYTE   W08
 BYTE   As0  v112
 BYTE   W08
 BYTE   Cn1
 BYTE   W08
 BYTE   Gn0
 BYTE   W08
 BYTE   Gn0  v040
 BYTE   W08
 BYTE   Gn0  v112
 BYTE   W08
 BYTE   Gn0  v040
 BYTE   W08
 BYTE   Gn0  v112
 BYTE   W08
 BYTE   Cn1
 BYTE   W08
 BYTE   PEND 
// 010   ----------------------------------------
Label_0_01000698:
 BYTE   N07  As0  v112
 BYTE   W08
 BYTE   As0  v040
 BYTE   W08
 BYTE   As0  v112
 BYTE   W08
 BYTE   As0  v040
 BYTE   W08
 BYTE   As0  v112
 BYTE   W08
 BYTE   Cn1
 BYTE   W08
 BYTE   Gn0
 BYTE   W08
 BYTE   Gn0  v040
 BYTE   W08
 BYTE   Gn0  v112
 BYTE   W08
 BYTE   Gn0  v040
 BYTE   W08
 BYTE   Gn0  v112
 BYTE   W08
 BYTE   As0
 BYTE   W08
 BYTE   PEND 
 BYTE   PATT
  POIN2 Label_0_01000614
 BYTE   PATT
  POIN2 Label_0_01000614
 BYTE   PATT
  POIN2 Label_0_01000675
 BYTE   PATT
  POIN2 Label_0_01000698
 BYTE   PATT
  POIN2 Label_0_01000614
 BYTE   PATT
  POIN2 Label_0_01000614
 BYTE   PATT
  POIN2 Label_0_01000675
 BYTE   PATT
  POIN2 Label_0_01000698
 BYTE   PATT
  POIN2 Label_0_01000614
 BYTE   PATT
  POIN2 Label_0_01000614
 BYTE   PATT
  POIN2 Label_0_01000614
 BYTE   PATT
  POIN2 Label_0_01000614
 BYTE   PATT
  POIN2 Label_0_01000614
 BYTE   PATT
  POIN2 Label_0_01000614
 BYTE   PATT
  POIN2 Label_0_01000675
 BYTE   PATT
  POIN2 Label_0_01000698
 BYTE   PATT
  POIN2 Label_0_01000614
 BYTE   PATT
  POIN2 Label_0_01000614
 BYTE   PATT
  POIN2 Label_0_01000614
 BYTE   PATT
  POIN2 Label_0_01000614
 BYTE   PATT
  POIN2 Label_0_01000614
 BYTE   PATT
  POIN2 Label_0_01000614
 BYTE   PATT
  POIN2 Label_0_01000614
 BYTE   PATT
  POIN2 Label_0_01000614
 BYTE   PATT
  POIN2 Label_0_01000614
 BYTE   PATT
  POIN2 Label_0_01000614
 BYTE   PATT
  POIN2 Label_0_01000614
 BYTE   PATT
  POIN2 Label_0_01000614
 BYTE   PATT
  POIN2 Label_0_01000614
 BYTE   PATT
  POIN2 Label_0_01000614
 BYTE   PATT
  POIN2 Label_0_01000614
 BYTE   PATT
  POIN2 Label_0_01000614
 BYTE   PATT
  POIN2 Label_0_01000614
 BYTE   PATT
  POIN2 Label_0_01000614
 BYTE   PATT
  POIN2 Label_0_01000614
 BYTE   PATT
  POIN2 Label_0_01000614
 BYTE   PATT
  POIN2 Label_0_01000614
 BYTE   PATT
  POIN2 Label_0_01000614
// 011   ----------------------------------------
Label_0_01000779:
 BYTE   N07  Bn0  v112
 BYTE   W08
 BYTE   Bn0  v040
 BYTE   W08
 BYTE   Bn0  v112
 BYTE   W08
 BYTE   Bn0  v040
 BYTE   W08
 BYTE   Bn0  v112
 BYTE   W08
 BYTE   Cn1
 BYTE   W08
 BYTE   An0
 BYTE   W08
 BYTE   An0  v040
 BYTE   W08
 BYTE   An0  v112
 BYTE   W08
 BYTE   An0  v040
 BYTE   W08
 BYTE   An0  v112
 BYTE   W08
 BYTE   Cn1
 BYTE   W08
 BYTE   PEND 
 BYTE   PATT
  POIN2 Label_0_01000779
 BYTE   PATT
  POIN2 Label_0_01000614
// 012   ----------------------------------------
 BYTE   N07  Cn1  v112
 BYTE   W08
 BYTE   Cn1  v040
 BYTE   W08
 BYTE   Cn1  v112
 BYTE   W08
 BYTE   Cn1  v040
 BYTE   W08
 BYTE   Cn1  v112
 BYTE   W08
 BYTE   Cs1
 BYTE   W08
 BYTE   As0
 BYTE   W08
 BYTE   Cs1
 BYTE   W08
 BYTE   As0
 BYTE   W08
 BYTE   Cs1
 BYTE   W08
 BYTE   As0
 BYTE   W08
 BYTE   Bn0
 BYTE   W08
 BYTE   PATT
  POIN2 Label_0_01000614
 BYTE   PATT
  POIN2 Label_0_01000614
 BYTE   PATT
  POIN2 Label_0_01000614
 BYTE   PATT
  POIN2 Label_0_01000614
 BYTE   PATT
  POIN2 Label_0_01000779
 BYTE   PATT
  POIN2 Label_0_01000779
 BYTE   PATT
  POIN2 Label_0_01000614
 BYTE   PATT
  POIN2 Label_0_01000614
 BYTE   PATT
  POIN2 Label_0_01000614
// 013   ----------------------------------------
 BYTE   N07  Cn1  v112
 BYTE   W08
 BYTE   Cn1  v040
 BYTE   W08
 BYTE   Cn1  v112
 BYTE   W08
 BYTE   Cn1  v040
 BYTE   W08
 BYTE   Cn1  v112
 BYTE   W08
 BYTE   Cs1
 BYTE   W08
 BYTE   As0
 BYTE   W08
 BYTE   Cs1
 BYTE   W08
 BYTE   Ds1
 BYTE   W08
 BYTE   Fn1
 BYTE   W08
 BYTE   Ds1
 BYTE   W08
 BYTE   As0
 BYTE   W08
// 014   ----------------------------------------
Label_0_0100080F:
 BYTE   N07  Cn1  v112
 BYTE   W08
 BYTE   Cn1  v040
 BYTE   W08
 BYTE   Cn1  v112
 BYTE   W08
 BYTE   Cn1  v040
 BYTE   W08
 BYTE   Cn1  v112
 BYTE   W08
 BYTE   N07
 BYTE   W08
 BYTE   N07
 BYTE   W08
 BYTE   Cn1  v040
 BYTE   W08
 BYTE   Cn1  v112
 BYTE   W08
 BYTE   Cn1  v040
 BYTE   W08
 BYTE   Cn1  v112
 BYTE   W08
 BYTE   N07
 BYTE   W08
 BYTE   PEND 
 BYTE   PATT
  POIN2 Label_0_0100080F
 BYTE   PATT
  POIN2 Label_0_0100080F
 BYTE   PATT
  POIN2 Label_0_0100080F
 BYTE   PATT
  POIN2 Label_0_0100080F
// 015   ----------------------------------------
 BYTE   N07  Cs1  v112
 BYTE   W08
 BYTE   Cs1  v040
 BYTE   W08
 BYTE   Cs1  v112
 BYTE   W08
 BYTE   Cs1  v040
 BYTE   W08
 BYTE   Cs1  v112
 BYTE   W08
 BYTE   N07
 BYTE   W08
 BYTE   N07
 BYTE   W08
 BYTE   Cs1  v040
 BYTE   W08
 BYTE   Cs1  v112
 BYTE   W08
 BYTE   Cs1  v040
 BYTE   W08
 BYTE   Cs1  v112
 BYTE   W08
 BYTE   N07
 BYTE   W08
// 016   ----------------------------------------
 BYTE   Dn1
 BYTE   W08
 BYTE   Dn1  v040
 BYTE   W08
 BYTE   Dn1  v112
 BYTE   W08
 BYTE   Dn1  v040
 BYTE   W08
 BYTE   Dn1  v112
 BYTE   W08
 BYTE   N07
 BYTE   W08
 BYTE   N07
 BYTE   W08
 BYTE   Dn1  v040
 BYTE   W08
 BYTE   Dn1  v112
 BYTE   W08
 BYTE   Dn1  v040
 BYTE   W08
 BYTE   Dn1  v112
 BYTE   W08
 BYTE   N07
 BYTE   W08
// 017   ----------------------------------------
 BYTE   Gs1
 BYTE   W08
 BYTE   Gs1  v040
 BYTE   W08
 BYTE   Gs1  v112
 BYTE   W08
 BYTE   Gs1  v040
 BYTE   W08
 BYTE   Gs1  v112
 BYTE   W08
 BYTE   N07
 BYTE   W08
 BYTE   N07
 BYTE   W08
 BYTE   Gs1  v040
 BYTE   W08
 BYTE   Gs1  v112
 BYTE   W08
 BYTE   Gs1  v040
 BYTE   W08
 BYTE   Gs1  v112
 BYTE   W08
 BYTE   N07
 BYTE   W08
// 018   ----------------------------------------
 BYTE   W96
// 019   ----------------------------------------
 BYTE   W96
// 020   ----------------------------------------
Label_0_010008AA:
 BYTE   N07  Fs1  v112
 BYTE   W08
 BYTE   Fs1  v040
 BYTE   W08
 BYTE   Fs1  v112
 BYTE   W08
 BYTE   Fs1  v040
 BYTE   W08
 BYTE   Fs1  v112
 BYTE   W08
 BYTE   Gn1
 BYTE   W08
 BYTE   En1
 BYTE   W08
 BYTE   En1  v040
 BYTE   W08
 BYTE   En1  v112
 BYTE   W08
 BYTE   En1  v040
 BYTE   W08
 BYTE   En1  v112
 BYTE   W08
 BYTE   Gn1
 BYTE   W08
 BYTE   PEND 
 BYTE   PATT
  POIN2 Label_0_010008AA
 BYTE   PATT
  POIN2 Label_0_010008AA
 BYTE   PATT
  POIN2 Label_0_010008AA
// 021   ----------------------------------------
Label_0_010008DC:
 BYTE   N07  En1  v112
 BYTE   W08
 BYTE   En1  v040
 BYTE   W08
 BYTE   En1  v112
 BYTE   W08
 BYTE   En1  v040
 BYTE   W08
 BYTE   En1  v112
 BYTE   W08
 BYTE   Fs1
 BYTE   W08
 BYTE   Cs1
 BYTE   W08
 BYTE   Cs1  v040
 BYTE   W08
 BYTE   Cs1  v112
 BYTE   W08
 BYTE   Cs1  v040
 BYTE   W08
 BYTE   Cs1  v112
 BYTE   W08
 BYTE   Fs1
 BYTE   W08
 BYTE   PEND 
// 022   ----------------------------------------
Label_0_010008FF:
 BYTE   N07  En1  v112
 BYTE   W08
 BYTE   En1  v040
 BYTE   W08
 BYTE   En1  v112
 BYTE   W08
 BYTE   En1  v040
 BYTE   W08
 BYTE   En1  v112
 BYTE   W08
 BYTE   Fs1
 BYTE   W08
 BYTE   Cs1
 BYTE   W08
 BYTE   Cs1  v040
 BYTE   W08
 BYTE   Cs1  v112
 BYTE   W08
 BYTE   Cs1  v040
 BYTE   W08
 BYTE   Cs1  v112
 BYTE   W08
 BYTE   En1
 BYTE   W08
 BYTE   PEND 
 BYTE   PATT
  POIN2 Label_0_010008AA
// 023   ----------------------------------------
 BYTE   N07  Fs1  v112
 BYTE   W08
 BYTE   Fs1  v040
 BYTE   W08
 BYTE   Fs1  v112
 BYTE   W08
 BYTE   Fs1  v040
 BYTE   W08
 BYTE   Fs1  v112
 BYTE   W08
 BYTE   Gn1
 BYTE   W08
 BYTE   An1
 BYTE   W08
 BYTE   Bn1
 BYTE   W08
 BYTE   An1
 BYTE   W08
 BYTE   Gn1
 BYTE   W08
 BYTE   Fs1
 BYTE   W08
 BYTE   Gn1
 BYTE   W08
 BYTE   PATT
  POIN2 Label_0_010008DC
 BYTE   PATT
  POIN2 Label_0_010008FF
 BYTE   PATT
  POIN2 Label_0_010008AA
 BYTE   PATT
  POIN2 Label_0_010008AA
 BYTE   PATT
  POIN2 Label_0_010008DC
 BYTE   PATT
  POIN2 Label_0_010008FF
 BYTE   PATT
  POIN2 Label_0_010008AA
// 024   ----------------------------------------
 BYTE   N07  Fs1  v112
 BYTE   W08
 BYTE   Fs1  v040
 BYTE   W08
 BYTE   Fs1  v112
 BYTE   W08
 BYTE   Fs1  v040
 BYTE   W08
 BYTE   Fs1  v112
 BYTE   W08
 BYTE   Gn1
 BYTE   W08
 BYTE   En1
 BYTE   W08
 BYTE   Fs1
 BYTE   W08
 BYTE   Gn1
 BYTE   W08
 BYTE   Bn1
 BYTE   W08
 BYTE   Gn1
 BYTE   W08
 BYTE   En1
 BYTE   W07
 BYTE   GoTo
  POIN2 Label_0_01000661
 BYTE   FINE

//**************** Track 2 (Midi-Chn.1) ****************//

PokemonDPPtBattleCyrusGratedShtick_002:
// 000   ----------------------------------------
 BYTE   KEYSH   PokemonDPPtBattleCyrusGratedShtick_key+0
 BYTE   VOICE   48
 BYTE   MOD 0
 BYTE   CnM2
 BYTE   PAN   c_v-30
 BYTE   VOL   58*PokemonDPPtBattleCyrusGratedShtick_mvl/mxv
 BYTE   BEND   c_v+0
 BYTE   TIE  Dn2  v112
 BYTE   W96
// 001   ----------------------------------------
 BYTE   W92
 BYTE   W03
 BYTE   EOT
 BYTE   W01
// 002   ----------------------------------------
 BYTE   TIE  Ds2
 BYTE   W96
// 003   ----------------------------------------
 BYTE   W92
 BYTE   W03
 BYTE   EOT
 BYTE   W01
// 004   ----------------------------------------
 BYTE   TIE  Cn2
 BYTE   W96
// 005   ----------------------------------------
 BYTE   W92
 BYTE   W03
 BYTE   EOT
 BYTE   W01
// 006   ----------------------------------------
 BYTE   TIE
 BYTE   W96
// 007   ----------------------------------------
 BYTE   W92
 BYTE   W03
 BYTE   EOT
 BYTE   W01
// 008   ----------------------------------------
 BYTE   W96
// 009   ----------------------------------------
 BYTE   W96
// 010   ----------------------------------------
Label_1_010009B6:
 BYTE   VOICE   48
 BYTE   VOL   65*PokemonDPPtBattleCyrusGratedShtick_mvl/mxv
 BYTE   PAN   c_v+40
 BYTE   N92  Gn2  v112
 BYTE   W96
// 011   ----------------------------------------
Label_1_010009C0:
 BYTE   N80  Cn3  v112
 BYTE   W84
 BYTE   N11  Gn3
 BYTE   W12
 BYTE   PEND 
// 012   ----------------------------------------
Label_1_010009C8:
 BYTE   N15  Fn3  v112
 BYTE   W16
 BYTE   TIE  En3
 BYTE   W80
 BYTE   PEND 
// 013   ----------------------------------------
 BYTE   W92
 BYTE   W03
 BYTE   EOT
 BYTE   W01
// 014   ----------------------------------------
 BYTE   N92  As2
 BYTE   W96
// 015   ----------------------------------------
Label_1_010009D7:
 BYTE   N78  As3  v112
 BYTE   W80
 BYTE   N15  Gs3
 BYTE   W16
 BYTE   PEND 
// 016   ----------------------------------------
 BYTE   Gn3
 BYTE   W16
 BYTE   TIE  En3
 BYTE   W80
// 017   ----------------------------------------
 BYTE   W92
 BYTE   W03
 BYTE   EOT
 BYTE   W01
// 018   ----------------------------------------
 BYTE   VOICE   56
 BYTE   PAN   c_v+40
 BYTE   N15  Fn3
 BYTE   W16
 BYTE   Dn3
 BYTE   W16
 BYTE   As2
 BYTE   W16
 BYTE   TIE  As3
 BYTE   W48
// 019   ----------------------------------------
 BYTE   W78
 BYTE   W01
 BYTE   EOT
 BYTE   W01
 BYTE   N15  Gs3
 BYTE   W16
// 020   ----------------------------------------
 BYTE   Gn3
 BYTE   W16
 BYTE   N78  En3
 BYTE   W80
// 021   ----------------------------------------
 BYTE   N15  Dn3
 BYTE   W16
 BYTE   N78  En3
 BYTE   W80
// 022   ----------------------------------------
 BYTE   N15  Fn3
 BYTE   W16
 BYTE   Dn3
 BYTE   W16
 BYTE   As2
 BYTE   W16
 BYTE   N78  As3
 BYTE   W48
// 023   ----------------------------------------
 BYTE   W32
 BYTE   N15  Gs3
 BYTE   W16
 BYTE   As3
 BYTE   W16
 BYTE   Gs3
 BYTE   W16
 BYTE   Bn3
 BYTE   W16
// 024   ----------------------------------------
 BYTE   Cn4
 BYTE   W16
 BYTE   Dn4
 BYTE   W16
 BYTE   Cn4
 BYTE   W16
 BYTE   Dn4
 BYTE   W16
 BYTE   Cn4
 BYTE   W16
 BYTE   Dn4
 BYTE   W16
// 025   ----------------------------------------
 BYTE   N92  En4
 BYTE   W96
// 026   ----------------------------------------
 BYTE   Gn2
 BYTE   W96
 BYTE   PATT
  POIN2 Label_1_010009C0
 BYTE   PATT
  POIN2 Label_1_010009C8
// 027   ----------------------------------------
 BYTE   W92
 BYTE   W03
 BYTE   EOT
 BYTE   En3
 BYTE   W01
// 028   ----------------------------------------
 BYTE   N92  As2  v112
 BYTE   W96
 BYTE   PATT
  POIN2 Label_1_010009D7
// 029   ----------------------------------------
 BYTE   N15  Gn3  v112
 BYTE   W16
 BYTE   N60  En3
 BYTE   W64
 BYTE   N07  As3
 BYTE   W08
 BYTE   Bn3
 BYTE   W08
// 030   ----------------------------------------
 BYTE   N92  Cn4
 BYTE   W96
// 031   ----------------------------------------
 BYTE   N15  Cn2  v124
 BYTE   W16
 BYTE   Cs2
 BYTE   W16
 BYTE   Fn2
 BYTE   W16
 BYTE   En2
 BYTE   W16
 BYTE   Fn2
 BYTE   W16
 BYTE   En2
 BYTE   W16
// 032   ----------------------------------------
 BYTE   Gn2
 BYTE   W16
 BYTE   Fn2
 BYTE   W16
 BYTE   Gn2
 BYTE   W16
 BYTE   Gs2
 BYTE   W16
 BYTE   As2
 BYTE   W16
 BYTE   Gs2
 BYTE   W16
// 033   ----------------------------------------
 BYTE   As2
 BYTE   W16
 BYTE   Cn3
 BYTE   W16
 BYTE   As2
 BYTE   W16
 BYTE   Gs2
 BYTE   W16
 BYTE   As2
 BYTE   W16
 BYTE   Gs2
 BYTE   W16
// 034   ----------------------------------------
 BYTE   N92  Gn2
 BYTE   W96
// 035   ----------------------------------------
 BYTE   N15  Cn3
 BYTE   W16
 BYTE   Cs3
 BYTE   W16
 BYTE   Fn3
 BYTE   W16
 BYTE   En3
 BYTE   W16
 BYTE   Fn3
 BYTE   W16
 BYTE   En3
 BYTE   W16
// 036   ----------------------------------------
 BYTE   Gn3
 BYTE   W16
 BYTE   Fn3
 BYTE   W16
 BYTE   Gn3
 BYTE   W16
 BYTE   Gs3
 BYTE   W16
 BYTE   As3
 BYTE   W16
 BYTE   Gs3
 BYTE   W16
// 037   ----------------------------------------
 BYTE   As3
 BYTE   W16
 BYTE   Cn4
 BYTE   W16
 BYTE   As3
 BYTE   W16
 BYTE   Cs4
 BYTE   W16
 BYTE   Ds4
 BYTE   W16
 BYTE   Cs4
 BYTE   W16
// 038   ----------------------------------------
 BYTE   N92  Cn4
 BYTE   W48
 BYTE   VOL   65*PokemonDPPtBattleCyrusGratedShtick_mvl/mxv
 BYTE   BEND   c_v-2
 BYTE   W02
 BYTE   VOL   62*PokemonDPPtBattleCyrusGratedShtick_mvl/mxv
 BYTE   BEND   c_v-5
 BYTE   W03
 BYTE   VOL   60*PokemonDPPtBattleCyrusGratedShtick_mvl/mxv
 BYTE   BEND   c_v-8
 BYTE   W03
 BYTE   VOL   59*PokemonDPPtBattleCyrusGratedShtick_mvl/mxv
 BYTE   BEND   c_v-11
 BYTE   W03
 BYTE   VOL   55*PokemonDPPtBattleCyrusGratedShtick_mvl/mxv
 BYTE   BEND   c_v-14
 BYTE   W03
 BYTE   VOL   52*PokemonDPPtBattleCyrusGratedShtick_mvl/mxv
 BYTE   BEND   c_v-16
 BYTE   W03
 BYTE   VOL   49*PokemonDPPtBattleCyrusGratedShtick_mvl/mxv
 BYTE   BEND   c_v-19
 BYTE   W03
 BYTE   VOL   47*PokemonDPPtBattleCyrusGratedShtick_mvl/mxv
 BYTE   BEND   c_v-23
 BYTE   W03
 BYTE   VOL   46*PokemonDPPtBattleCyrusGratedShtick_mvl/mxv
 BYTE   BEND   c_v-24
 BYTE   W03
 BYTE   VOL   40*PokemonDPPtBattleCyrusGratedShtick_mvl/mxv
 BYTE   BEND   c_v-29
 BYTE   W03
 BYTE   VOL   39*PokemonDPPtBattleCyrusGratedShtick_mvl/mxv
 BYTE   BEND   c_v-30
 BYTE   W03
 BYTE   VOL   37*PokemonDPPtBattleCyrusGratedShtick_mvl/mxv
 BYTE   BEND   c_v-32
 BYTE   W03
 BYTE   VOL   36*PokemonDPPtBattleCyrusGratedShtick_mvl/mxv
 BYTE   BEND   c_v-35
 BYTE   W03
 BYTE   VOL   32*PokemonDPPtBattleCyrusGratedShtick_mvl/mxv
 BYTE   BEND   c_v-38
 BYTE   W03
 BYTE   VOL   31*PokemonDPPtBattleCyrusGratedShtick_mvl/mxv
 BYTE   BEND   c_v-40
 BYTE   W03
 BYTE   VOL   28*PokemonDPPtBattleCyrusGratedShtick_mvl/mxv
 BYTE   BEND   c_v-45
 BYTE   W04
// 039   ----------------------------------------
 BYTE   VOICE   56
 BYTE   PAN   c_v+0
 BYTE   VOL   65*PokemonDPPtBattleCyrusGratedShtick_mvl/mxv
 BYTE   BEND   c_v+0
 BYTE   N23  Ds4  v112
 BYTE   W24
 BYTE   N07  Cs4
 BYTE   W08
 BYTE   N15  Cs4  v040
 BYTE   W64
// 040   ----------------------------------------
 BYTE   W96
// 041   ----------------------------------------
Label_1_01000B09:
 BYTE   N23  Ds4  v112
 BYTE   W24
 BYTE   N07  Cs4
 BYTE   W08
 BYTE   N15  Cs4  v040
 BYTE   W64
 BYTE   PEND 
// 042   ----------------------------------------
 BYTE   W96
 BYTE   PATT
  POIN2 Label_1_01000B09
// 043   ----------------------------------------
 BYTE   W96
// 044   ----------------------------------------
 BYTE   W96
// 045   ----------------------------------------
 BYTE   W96
// 046   ----------------------------------------
 BYTE   TIE  Cn3  v112
 BYTE   W96
// 047   ----------------------------------------
 BYTE   W68
 BYTE   W03
 BYTE   EOT
 BYTE   W01
 BYTE   N23  Gn3
 BYTE   W24
// 048   ----------------------------------------
Label_1_01000B29:
 BYTE   N15  Fs3  v112
 BYTE   W16
 BYTE   N78  Dn3
 BYTE   W80
 BYTE   PEND 
// 049   ----------------------------------------
Label_1_01000B31:
 BYTE   N15  Ds3  v112
 BYTE   W16
 BYTE   N78  Cn3
 BYTE   W80
 BYTE   PEND 
// 050   ----------------------------------------
 BYTE   N92  Bn2
 BYTE   W96
// 051   ----------------------------------------
 BYTE   N84  Gs2
 BYTE   W88
 BYTE   N07  Bn2
 BYTE   W08
// 052   ----------------------------------------
 BYTE   N11  Cn3
 BYTE   W12
 BYTE   N15  Cn3  v040
 BYTE   W84
// 053   ----------------------------------------
 BYTE   W96
// 054   ----------------------------------------
 BYTE   TIE  Cn3  v112
 BYTE   W96
// 055   ----------------------------------------
 BYTE   W68
 BYTE   W03
 BYTE   EOT
 BYTE   W01
 BYTE   N23  Gn3
 BYTE   W24
 BYTE   PATT
  POIN2 Label_1_01000B29
 BYTE   PATT
  POIN2 Label_1_01000B31
// 056   ----------------------------------------
 BYTE   N92  Bn2  v112
 BYTE   W96
// 057   ----------------------------------------
 BYTE   Gs3
 BYTE   W96
// 058   ----------------------------------------
 BYTE   TIE  An3
 BYTE   W96
// 059   ----------------------------------------
 BYTE   W92
 BYTE   W03
 BYTE   EOT
 BYTE   W01
// 060   ----------------------------------------
 BYTE   VOICE   48
 BYTE   TIE  An1
 BYTE   W96
// 061   ----------------------------------------
 BYTE   W92
 BYTE   W03
 BYTE   EOT
 BYTE   W01
// 062   ----------------------------------------
 BYTE   VOICE   56
 BYTE   N07  Cn3
 BYTE   W08
 BYTE   Cn3  v040
 BYTE   W08
 BYTE   Cn3  v112
 BYTE   W08
 BYTE   Cn3  v040
 BYTE   W08
 BYTE   Cn3  v112
 BYTE   W08
 BYTE   N07
 BYTE   W08
 BYTE   N07
 BYTE   W08
 BYTE   Cn3  v040
 BYTE   W08
 BYTE   Cn3  v112
 BYTE   W08
 BYTE   Cn3  v040
 BYTE   W08
 BYTE   Cn3  v112
 BYTE   W08
 BYTE   N07
 BYTE   W08
// 063   ----------------------------------------
 BYTE   Bn2
 BYTE   W08
 BYTE   Bn2  v040
 BYTE   W08
 BYTE   Bn2  v112
 BYTE   W08
 BYTE   Bn2  v040
 BYTE   W08
 BYTE   Bn2  v112
 BYTE   W08
 BYTE   N07
 BYTE   W08
 BYTE   N07
 BYTE   W08
 BYTE   Bn2  v040
 BYTE   W08
 BYTE   Bn2  v112
 BYTE   W08
 BYTE   Bn2  v040
 BYTE   W08
 BYTE   Bn2  v112
 BYTE   W08
 BYTE   N07
 BYTE   W08
// 064   ----------------------------------------
 BYTE   As2
 BYTE   W08
 BYTE   As2  v040
 BYTE   W08
 BYTE   As2  v112
 BYTE   W08
 BYTE   As2  v040
 BYTE   W08
 BYTE   As2  v112
 BYTE   W08
 BYTE   N07
 BYTE   W08
 BYTE   N07
 BYTE   W08
 BYTE   As2  v040
 BYTE   W08
 BYTE   As2  v112
 BYTE   W08
 BYTE   As2  v040
 BYTE   W08
 BYTE   As2  v112
 BYTE   W08
 BYTE   N07
 BYTE   W08
// 065   ----------------------------------------
 BYTE   Ds3
 BYTE   W08
 BYTE   Ds3  v040
 BYTE   W08
 BYTE   Ds3  v112
 BYTE   W08
 BYTE   Ds3  v040
 BYTE   W08
 BYTE   Ds3  v112
 BYTE   W08
 BYTE   N07
 BYTE   W08
 BYTE   N07
 BYTE   W08
 BYTE   Ds3  v040
 BYTE   W08
 BYTE   Ds3  v112
 BYTE   W08
 BYTE   Ds3  v040
 BYTE   W08
 BYTE   Ds3  v112
 BYTE   W08
 BYTE   N07
 BYTE   W08
// 066   ----------------------------------------
 BYTE   Cn3
 BYTE   W08
 BYTE   Cn3  v040
 BYTE   W08
 BYTE   Cn3  v112
 BYTE   W08
 BYTE   Cn3  v040
 BYTE   W08
 BYTE   Cn3  v112
 BYTE   W08
 BYTE   N07
 BYTE   W08
 BYTE   N07
 BYTE   W08
 BYTE   Cn3  v040
 BYTE   W08
 BYTE   Cn3  v112
 BYTE   W08
 BYTE   Cn3  v040
 BYTE   W08
 BYTE   Cn3  v112
 BYTE   W08
 BYTE   N07
 BYTE   W08
// 067   ----------------------------------------
 BYTE   Cs3
 BYTE   W08
 BYTE   Cs3  v040
 BYTE   W08
 BYTE   Cs3  v112
 BYTE   W08
 BYTE   Cs3  v040
 BYTE   W08
 BYTE   Cs3  v112
 BYTE   W08
 BYTE   N07
 BYTE   W08
 BYTE   N07
 BYTE   W08
 BYTE   Cs3  v040
 BYTE   W08
 BYTE   Cs3  v112
 BYTE   W08
 BYTE   Cs3  v040
 BYTE   W08
 BYTE   Cs3  v112
 BYTE   W08
 BYTE   N07
 BYTE   W08
// 068   ----------------------------------------
 BYTE   Dn3
 BYTE   W08
 BYTE   Dn3  v040
 BYTE   W08
 BYTE   Dn3  v112
 BYTE   W08
 BYTE   Dn3  v040
 BYTE   W08
 BYTE   Dn3  v112
 BYTE   W08
 BYTE   N07
 BYTE   W08
 BYTE   N07
 BYTE   W08
 BYTE   Dn3  v040
 BYTE   W08
 BYTE   Dn3  v112
 BYTE   W08
 BYTE   Dn3  v040
 BYTE   W08
 BYTE   Dn3  v112
 BYTE   W08
 BYTE   N07
 BYTE   W08
// 069   ----------------------------------------
 BYTE   Gs3
 BYTE   W08
 BYTE   Gs3  v040
 BYTE   W08
 BYTE   Gs3  v112
 BYTE   W08
 BYTE   Gs3  v040
 BYTE   W08
 BYTE   Gs3  v112
 BYTE   W08
 BYTE   N07
 BYTE   W08
 BYTE   N07
 BYTE   W08
 BYTE   Gs3  v040
 BYTE   W08
 BYTE   Gs3  v112
 BYTE   W08
 BYTE   Gs3  v040
 BYTE   W08
 BYTE   Gs3  v112
 BYTE   W08
 BYTE   N07
 BYTE   W08
// 070   ----------------------------------------
 BYTE   W96
// 071   ----------------------------------------
 BYTE   W96
// 072   ----------------------------------------
 BYTE   N92  Cs3
 BYTE   W96
// 073   ----------------------------------------
 BYTE   N80  Fs3
 BYTE   W84
 BYTE   N11  Cs4
 BYTE   W12
// 074   ----------------------------------------
 BYTE   N15  Bn3
 BYTE   W16
 BYTE   TIE  As3
 BYTE   W80
// 075   ----------------------------------------
 BYTE   W92
 BYTE   W03
 BYTE   EOT
 BYTE   W01
// 076   ----------------------------------------
 BYTE   N92  En3
 BYTE   W96
// 077   ----------------------------------------
 BYTE   N78  En4
 BYTE   W80
 BYTE   N15  Dn4
 BYTE   W16
// 078   ----------------------------------------
 BYTE   Cs4
 BYTE   W16
 BYTE   TIE  As3
 BYTE   W80
// 079   ----------------------------------------
 BYTE   W92
 BYTE   W03
 BYTE   EOT
 BYTE   W01
// 080   ----------------------------------------
 BYTE   N15  Bn3
 BYTE   W16
 BYTE   Gs3
 BYTE   W16
 BYTE   En3
 BYTE   W16
 BYTE   TIE  En4
 BYTE   W48
// 081   ----------------------------------------
 BYTE   PAN   c_v+39
 BYTE   W78
 BYTE   W01
 BYTE   EOT
 BYTE   W01
 BYTE   N15  Dn4
 BYTE   W16
// 082   ----------------------------------------
 BYTE   Cs4
 BYTE   W16
 BYTE   N78  As3
 BYTE   W80
// 083   ----------------------------------------
 BYTE   N15  Gs3
 BYTE   W16
 BYTE   N78  As3
 BYTE   W80
// 084   ----------------------------------------
 BYTE   N15  Bn3
 BYTE   W16
 BYTE   Gs3
 BYTE   W16
 BYTE   En3
 BYTE   W16
 BYTE   N78  En4
 BYTE   W48
// 085   ----------------------------------------
 BYTE   W32
 BYTE   N15  Dn4
 BYTE   W16
 BYTE   En4
 BYTE   W16
 BYTE   Dn4
 BYTE   W16
 BYTE   Fn4
 BYTE   W16
// 086   ----------------------------------------
 BYTE   Fs4
 BYTE   W16
 BYTE   Gs4
 BYTE   W16
 BYTE   Fs4
 BYTE   W16
 BYTE   Gs4
 BYTE   W16
 BYTE   Fs4
 BYTE   W16
 BYTE   Gs4
 BYTE   W16
// 087   ----------------------------------------
 BYTE   N92  As4
 BYTE   W92
 BYTE   W03
 BYTE   GoTo
  POIN2 Label_1_010009B6
 BYTE   FINE

//**************** Track 3 (Midi-Chn.2) ****************//

PokemonDPPtBattleCyrusGratedShtick_003:
// 000   ----------------------------------------
 BYTE   KEYSH   PokemonDPPtBattleCyrusGratedShtick_key+0
 BYTE   VOICE   56
 BYTE   MOD 0
 BYTE   CnM2
 BYTE   VOL   52*PokemonDPPtBattleCyrusGratedShtick_mvl/mxv
 BYTE   PAN   c_v+13
 BYTE   BEND   c_v+0
 BYTE   TIE  Gn1  v112
 BYTE   W96
// 001   ----------------------------------------
 BYTE   W92
 BYTE   W03
 BYTE   EOT
 BYTE   W01
// 002   ----------------------------------------
 BYTE   TIE  Gs1
 BYTE   W96
// 003   ----------------------------------------
 BYTE   W92
 BYTE   W03
 BYTE   EOT
 BYTE   W01
// 004   ----------------------------------------
 BYTE   TIE  Fn1
 BYTE   W96
// 005   ----------------------------------------
 BYTE   W92
 BYTE   W03
 BYTE   EOT
 BYTE   W01
// 006   ----------------------------------------
 BYTE   TIE  En1
 BYTE   W96
// 007   ----------------------------------------
 BYTE   W92
 BYTE   W03
 BYTE   EOT
 BYTE   W01
// 008   ----------------------------------------
 BYTE   W96
// 009   ----------------------------------------
 BYTE   W96
// 010   ----------------------------------------
Label_2_01000D13:
 BYTE   VOICE   48
 BYTE   PAN   c_v-28
 BYTE   VOL   60*PokemonDPPtBattleCyrusGratedShtick_mvl/mxv
 BYTE   N92  Cn2  v112
 BYTE   W96
// 011   ----------------------------------------
Label_2_01000D1D:
 BYTE   N80  Gn2  v112
 BYTE   W84
 BYTE   N11  Cn3
 BYTE   W12
 BYTE   PEND 
// 012   ----------------------------------------
Label_2_01000D25:
 BYTE   N15  As2  v112
 BYTE   W16
 BYTE   TIE  Cn3
 BYTE   W80
 BYTE   PEND 
// 013   ----------------------------------------
 BYTE   W92
 BYTE   W03
 BYTE   EOT
 BYTE   W01
// 014   ----------------------------------------
 BYTE   TIE  Gn2
 BYTE   W96
// 015   ----------------------------------------
 BYTE   W44
 BYTE   W03
 BYTE   EOT
 BYTE   W01
 BYTE   N15  Fn2
 BYTE   W16
 BYTE   Gn2
 BYTE   W16
 BYTE   Fn2
 BYTE   W16
// 016   ----------------------------------------
Label_2_01000D3F:
 BYTE   N15  En2  v112
 BYTE   W16
 BYTE   N78  Gn2
 BYTE   W80
 BYTE   PEND 
// 017   ----------------------------------------
 BYTE   N92
 BYTE   W96
// 018   ----------------------------------------
 BYTE   VOICE   48
 BYTE   N15  Dn3
 BYTE   W16
 BYTE   As2
 BYTE   W16
 BYTE   Fn2
 BYTE   W16
 BYTE   N60  Fn3
 BYTE   W48
// 019   ----------------------------------------
 BYTE   W16
 BYTE   N15  Dn3
 BYTE   W16
 BYTE   Fn3
 BYTE   W16
 BYTE   Dn3
 BYTE   W16
 BYTE   An2
 BYTE   W16
 BYTE   As2
 BYTE   W16
// 020   ----------------------------------------
 BYTE   Bn2
 BYTE   W16
 BYTE   N78  Cn3
 BYTE   W80
// 021   ----------------------------------------
 BYTE   N15  As2
 BYTE   W16
 BYTE   N78  Cn3
 BYTE   W80
// 022   ----------------------------------------
 BYTE   N15  Dn3
 BYTE   W16
 BYTE   As2
 BYTE   W16
 BYTE   Fn2
 BYTE   W16
 BYTE   N44  Fn3
 BYTE   W48
// 023   ----------------------------------------
 BYTE   N15  Ds3
 BYTE   W16
 BYTE   Dn3
 BYTE   W16
 BYTE   Cs3
 BYTE   W16
 BYTE   Cn3
 BYTE   W16
 BYTE   Bn2
 BYTE   W16
 BYTE   Dn3
 BYTE   W16
// 024   ----------------------------------------
 BYTE   En3
 BYTE   W16
 BYTE   Fn3
 BYTE   W16
 BYTE   En3
 BYTE   W16
 BYTE   Fn3
 BYTE   W16
 BYTE   En3
 BYTE   W16
 BYTE   Fn3
 BYTE   W16
// 025   ----------------------------------------
 BYTE   N92  Gn3
 BYTE   W96
// 026   ----------------------------------------
 BYTE   Cn2
 BYTE   W96
 BYTE   PATT
  POIN2 Label_2_01000D1D
 BYTE   PATT
  POIN2 Label_2_01000D25
// 027   ----------------------------------------
 BYTE   W92
 BYTE   W03
 BYTE   EOT
 BYTE   Cn3
 BYTE   W01
// 028   ----------------------------------------
 BYTE   TIE  Gn2  v112
 BYTE   W96
// 029   ----------------------------------------
 BYTE   W44
 BYTE   W03
 BYTE   EOT
 BYTE   W01
 BYTE   N15  Fn2
 BYTE   W16
 BYTE   Gn2
 BYTE   W16
 BYTE   Gs2
 BYTE   W16
 BYTE   PATT
  POIN2 Label_2_01000D3F
// 030   ----------------------------------------
 BYTE   N92  Cn3  v112
 BYTE   W96
// 031   ----------------------------------------
 BYTE   W96
// 032   ----------------------------------------
 BYTE   W96
// 033   ----------------------------------------
 BYTE   W96
// 034   ----------------------------------------
 BYTE   W96
// 035   ----------------------------------------
 BYTE   W48
 BYTE   N15  Cn2
 BYTE   W16
 BYTE   Cs2
 BYTE   W16
 BYTE   Fn2
 BYTE   W16
// 036   ----------------------------------------
 BYTE   En2
 BYTE   W16
 BYTE   Fn2
 BYTE   W16
 BYTE   En2
 BYTE   W16
 BYTE   Gn2
 BYTE   W16
 BYTE   Fn2
 BYTE   W16
 BYTE   Gn2
 BYTE   W16
// 037   ----------------------------------------
 BYTE   Gs2
 BYTE   W16
 BYTE   As2
 BYTE   W16
 BYTE   Cn3
 BYTE   W16
 BYTE   Cs3
 BYTE   W16
 BYTE   Ds3
 BYTE   W16
 BYTE   Fn3
 BYTE   W16
// 038   ----------------------------------------
 BYTE   N92  Gn3
 BYTE   W48
 BYTE   VOL   65*PokemonDPPtBattleCyrusGratedShtick_mvl/mxv
 BYTE   W02
 BYTE   Dn3
 BYTE   W03
 BYTE   Cn3
 BYTE   W03
 BYTE   Bn2
 BYTE   W03
 BYTE   Gn2
 BYTE   W03
 BYTE   En2
 BYTE   W03
 BYTE   Cs2
 BYTE   W03
 BYTE   Bn1
 BYTE   W03
 BYTE   As1
 BYTE   W03
 BYTE   En1
 BYTE   W03
 BYTE   Ds1
 BYTE   W03
 BYTE   Cs1
 BYTE   W03
 BYTE   Cn1
 BYTE   W03
 BYTE   Gs0
 BYTE   W03
 BYTE   Gn0
 BYTE   W03
 BYTE   En0
 BYTE   W04
// 039   ----------------------------------------
 BYTE   VOICE   56
 BYTE   VOL   59*PokemonDPPtBattleCyrusGratedShtick_mvl/mxv
 BYTE   N23  Ds3
 BYTE   W24
 BYTE   N07  Cs3
 BYTE   W08
 BYTE   N15  Cs3  v040
 BYTE   W64
// 040   ----------------------------------------
 BYTE   W96
// 041   ----------------------------------------
Label_2_01000E12:
 BYTE   N23  Ds3  v112
 BYTE   W24
 BYTE   N07  Cs3
 BYTE   W08
 BYTE   N15  Cs3  v040
 BYTE   W64
 BYTE   PEND 
// 042   ----------------------------------------
 BYTE   W96
 BYTE   PATT
  POIN2 Label_2_01000E12
// 043   ----------------------------------------
 BYTE   W96
// 044   ----------------------------------------
 BYTE   W96
// 045   ----------------------------------------
 BYTE   W96
// 046   ----------------------------------------
 BYTE   TIE  Fn3  v112
 BYTE   W96
// 047   ----------------------------------------
 BYTE   W68
 BYTE   W03
 BYTE   EOT
 BYTE   W01
 BYTE   N23  Cn4
 BYTE   W24
// 048   ----------------------------------------
Label_2_01000E32:
 BYTE   N15  Bn3  v112
 BYTE   W16
 BYTE   N78  Gn3
 BYTE   W80
 BYTE   PEND 
// 049   ----------------------------------------
Label_2_01000E3A:
 BYTE   N15  Gs3  v112
 BYTE   W16
 BYTE   N78  Fn3
 BYTE   W80
 BYTE   PEND 
// 050   ----------------------------------------
 BYTE   N92  En2
 BYTE   W96
// 051   ----------------------------------------
 BYTE   N84  Bn2
 BYTE   W88
 BYTE   N07  En3
 BYTE   W08
// 052   ----------------------------------------
 BYTE   N11  Fn3
 BYTE   W12
 BYTE   N15  Fn3  v040
 BYTE   W84
// 053   ----------------------------------------
 BYTE   W96
// 054   ----------------------------------------
 BYTE   TIE  Fn3  v112
 BYTE   W96
// 055   ----------------------------------------
 BYTE   W68
 BYTE   W03
 BYTE   EOT
 BYTE   W01
 BYTE   N23  Cn4
 BYTE   W24
 BYTE   PATT
  POIN2 Label_2_01000E32
 BYTE   PATT
  POIN2 Label_2_01000E3A
// 056   ----------------------------------------
 BYTE   N92  Gs3  v112
 BYTE   W96
// 057   ----------------------------------------
 BYTE   Bn3
 BYTE   W96
// 058   ----------------------------------------
 BYTE   TIE  Cn4
 BYTE   W96
// 059   ----------------------------------------
 BYTE   W92
 BYTE   W03
 BYTE   EOT
 BYTE   W01
// 060   ----------------------------------------
 BYTE   VOICE   48
 BYTE   TIE  Cn2
 BYTE   W96
// 061   ----------------------------------------
 BYTE   W72
 BYTE   VOL   65*PokemonDPPtBattleCyrusGratedShtick_mvl/mxv
 BYTE   W08
 BYTE   N15  Bn3
 BYTE   W03
 BYTE   EOT
 BYTE   Cn2
 BYTE   W13
// 062   ----------------------------------------
 BYTE   VOICE   56
 BYTE   N07  Fn3
 BYTE   W08
 BYTE   Fn3  v040
 BYTE   W08
 BYTE   Fn3  v112
 BYTE   W08
 BYTE   Fn3  v040
 BYTE   W08
 BYTE   Fn3  v112
 BYTE   W08
 BYTE   N07
 BYTE   W08
 BYTE   N07
 BYTE   W08
 BYTE   Fn3  v040
 BYTE   W08
 BYTE   Fn3  v112
 BYTE   W08
 BYTE   Fn3  v040
 BYTE   W08
 BYTE   Fn3  v112
 BYTE   W08
 BYTE   N07
 BYTE   W08
// 063   ----------------------------------------
Label_2_01000EA7:
 BYTE   N07  Fs3  v112
 BYTE   W08
 BYTE   Fs3  v040
 BYTE   W08
 BYTE   Fs3  v112
 BYTE   W08
 BYTE   Fs3  v040
 BYTE   W08
 BYTE   Fs3  v112
 BYTE   W08
 BYTE   N07
 BYTE   W08
 BYTE   N07
 BYTE   W08
 BYTE   Fs3  v040
 BYTE   W08
 BYTE   Fs3  v112
 BYTE   W08
 BYTE   Fs3  v040
 BYTE   W08
 BYTE   Fs3  v112
 BYTE   W08
 BYTE   N07
 BYTE   W08
 BYTE   PEND 
// 064   ----------------------------------------
Label_2_01000ECA:
 BYTE   N07  Gn3  v112
 BYTE   W08
 BYTE   Gn3  v040
 BYTE   W08
 BYTE   Gn3  v112
 BYTE   W08
 BYTE   Gn3  v040
 BYTE   W08
 BYTE   Gn3  v112
 BYTE   W08
 BYTE   N07
 BYTE   W08
 BYTE   N07
 BYTE   W08
 BYTE   Gn3  v040
 BYTE   W08
 BYTE   Gn3  v112
 BYTE   W08
 BYTE   Gn3  v040
 BYTE   W08
 BYTE   Gn3  v112
 BYTE   W08
 BYTE   N07
 BYTE   W08
 BYTE   PEND 
// 065   ----------------------------------------
 BYTE   Gs3
 BYTE   W08
 BYTE   Gs3  v040
 BYTE   W08
 BYTE   Gs3  v112
 BYTE   W08
 BYTE   Gs3  v040
 BYTE   W08
 BYTE   Gs3  v112
 BYTE   W08
 BYTE   N07
 BYTE   W08
 BYTE   N07
 BYTE   W08
 BYTE   Gs3  v040
 BYTE   W08
 BYTE   Gs3  v112
 BYTE   W08
 BYTE   Gs3  v040
 BYTE   W08
 BYTE   Gs3  v112
 BYTE   W08
 BYTE   N07
 BYTE   W08
// 066   ----------------------------------------
 BYTE   Fn3
 BYTE   W08
 BYTE   Fn3  v040
 BYTE   W08
 BYTE   Fn3  v112
 BYTE   W08
 BYTE   Fn3  v040
 BYTE   W08
 BYTE   Fn3  v112
 BYTE   W08
 BYTE   N07
 BYTE   W08
 BYTE   N07
 BYTE   W08
 BYTE   Fn3  v040
 BYTE   W08
 BYTE   Fn3  v112
 BYTE   W08
 BYTE   Fn3  v040
 BYTE   W08
 BYTE   Fn3  v112
 BYTE   W08
 BYTE   N07
 BYTE   W08
 BYTE   PATT
  POIN2 Label_2_01000EA7
 BYTE   PATT
  POIN2 Label_2_01000ECA
// 067   ----------------------------------------
 BYTE   N07  Cs4  v112
 BYTE   W08
 BYTE   Cs4  v040
 BYTE   W08
 BYTE   Cs4  v112
 BYTE   W08
 BYTE   Cs4  v040
 BYTE   W08
 BYTE   Cs4  v112
 BYTE   W08
 BYTE   N07
 BYTE   W08
 BYTE   N07
 BYTE   W08
 BYTE   Cs4  v040
 BYTE   W08
 BYTE   Cs4  v112
 BYTE   W08
 BYTE   Cs4  v040
 BYTE   W08
 BYTE   Cs4  v112
 BYTE   W08
 BYTE   N07
 BYTE   W08
// 068   ----------------------------------------
 BYTE   W96
// 069   ----------------------------------------
 BYTE   W96
// 070   ----------------------------------------
 BYTE   N92  Fs2
 BYTE   W96
// 071   ----------------------------------------
 BYTE   N80  Cs3
 BYTE   W84
 BYTE   N11  Fs3
 BYTE   W12
// 072   ----------------------------------------
 BYTE   N15  En3
 BYTE   W16
 BYTE   TIE  Fs3
 BYTE   W80
// 073   ----------------------------------------
 BYTE   W92
 BYTE   W03
 BYTE   EOT
 BYTE   W01
// 074   ----------------------------------------
 BYTE   TIE  Cs3
 BYTE   W96
// 075   ----------------------------------------
 BYTE   W44
 BYTE   W03
 BYTE   EOT
 BYTE   W01
 BYTE   N15  Bn2
 BYTE   W16
 BYTE   Cs3
 BYTE   W16
 BYTE   Bn2
 BYTE   W16
// 076   ----------------------------------------
 BYTE   As2
 BYTE   W16
 BYTE   N78  Cs3
 BYTE   W80
// 077   ----------------------------------------
 BYTE   N92
 BYTE   W96
// 078   ----------------------------------------
 BYTE   N15  Gs3
 BYTE   W16
 BYTE   En3
 BYTE   W16
 BYTE   Bn2
 BYTE   W16
 BYTE   N60  Bn3
 BYTE   W48
// 079   ----------------------------------------
 BYTE   W16
 BYTE   N15  Gs3
 BYTE   W16
 BYTE   Bn3
 BYTE   W16
 BYTE   Gs3
 BYTE   W16
 BYTE   Ds3
 BYTE   W16
 BYTE   En3
 BYTE   W16
// 080   ----------------------------------------
 BYTE   Fn3
 BYTE   W16
 BYTE   N78  Fs3
 BYTE   W80
// 081   ----------------------------------------
 BYTE   N15  En3
 BYTE   W16
 BYTE   N78  Fs3
 BYTE   W80
// 082   ----------------------------------------
 BYTE   N15  Gs3
 BYTE   W16
 BYTE   En3
 BYTE   W16
 BYTE   Bn2
 BYTE   W16
 BYTE   N44  Bn3
 BYTE   W48
// 083   ----------------------------------------
 BYTE   N15  An3
 BYTE   W16
 BYTE   Gs3
 BYTE   W16
 BYTE   Gn3
 BYTE   W16
 BYTE   Fs3
 BYTE   W16
 BYTE   Fn3
 BYTE   W16
 BYTE   Gs3
 BYTE   W16
// 084   ----------------------------------------
 BYTE   As3
 BYTE   W16
 BYTE   Bn3
 BYTE   W16
 BYTE   As3
 BYTE   W16
 BYTE   Bn3
 BYTE   W16
 BYTE   As3
 BYTE   W16
 BYTE   Bn3
 BYTE   W16
// 085   ----------------------------------------
 BYTE   N92  Cs4
 BYTE   W92
 BYTE   W03
 BYTE   GoTo
  POIN2 Label_2_01000D13
 BYTE   FINE

//**************** Track 4 (Midi-Chn.3) ****************//

PokemonDPPtBattleCyrusGratedShtick_004:
// 000   ----------------------------------------
 BYTE   KEYSH   PokemonDPPtBattleCyrusGratedShtick_key+0
 BYTE   VOICE   4
 BYTE   VOL   56*PokemonDPPtBattleCyrusGratedShtick_mvl/mxv
 BYTE   MOD 0
 BYTE   CnM2
 BYTE   PAN   c_v+23
 BYTE   BEND   c_v+0
 BYTE   W88
 BYTE   VOL   51*PokemonDPPtBattleCyrusGratedShtick_mvl/mxv
 BYTE   W08
// 001   ----------------------------------------
 BYTE   W96
// 002   ----------------------------------------
 BYTE   W96
// 003   ----------------------------------------
 BYTE   W96
// 004   ----------------------------------------
 BYTE   W96
// 005   ----------------------------------------
 BYTE   W96
// 006   ----------------------------------------
 BYTE   W96
// 007   ----------------------------------------
 BYTE   W96
// 008   ----------------------------------------
 BYTE   W92
 BYTE   W01
 BYTE   VOICE   46
 BYTE   W03
// 009   ----------------------------------------
 BYTE   PAN   c_v-48
 BYTE   VOL   52*PokemonDPPtBattleCyrusGratedShtick_mvl/mxv
 BYTE   N07  Cn5  v112
 BYTE   W08
 BYTE   Gs4
 BYTE   W08
 BYTE   Gn4
 BYTE   W08
 BYTE   Gs4
 BYTE   W08
 BYTE   Gn4
 BYTE   W08
 BYTE   En4
 BYTE   W08
 BYTE   PAN   c_v+48
 BYTE   N07  Fn4
 BYTE   W08
 BYTE   En4
 BYTE   W08
 BYTE   Cn4
 BYTE   W08
 BYTE   Cs4
 BYTE   W08
 BYTE   Cn4
 BYTE   W08
 BYTE   As3
 BYTE   W08
// 010   ----------------------------------------
Label_3_01001011:
 BYTE   PAN   c_v-48
 BYTE   N07  Cn4  v112
 BYTE   W08
 BYTE   Gn3
 BYTE   W08
 BYTE   Cn4
 BYTE   W08
 BYTE   En4
 BYTE   W08
 BYTE   Cn4
 BYTE   W08
 BYTE   En4
 BYTE   W08
 BYTE   PAN   c_v+48
 BYTE   N07  Gn4
 BYTE   W08
 BYTE   Cn5
 BYTE   W08
 BYTE   Gn4
 BYTE   W08
 BYTE   En4
 BYTE   W08
 BYTE   Cn4
 BYTE   W08
 BYTE   Gn4
 BYTE   W08
 BYTE   PEND 
// 011   ----------------------------------------
Label_3_01001031:
 BYTE   PAN   c_v-48
 BYTE   N07  En4  v112
 BYTE   W08
 BYTE   Cn5
 BYTE   W08
 BYTE   Cn4
 BYTE   W08
 BYTE   En4
 BYTE   W08
 BYTE   Cn4
 BYTE   W08
 BYTE   Gn3
 BYTE   W08
 BYTE   PAN   c_v+48
 BYTE   N07  Cn4
 BYTE   W08
 BYTE   En4
 BYTE   W08
 BYTE   Gn4
 BYTE   W08
 BYTE   En4
 BYTE   W08
 BYTE   Gn4
 BYTE   W08
 BYTE   Cn5
 BYTE   W08
 BYTE   PEND 
// 012   ----------------------------------------
Label_3_01001051:
 BYTE   PAN   c_v-48
 BYTE   N07  Cn4  v112
 BYTE   W08
 BYTE   Gn3
 BYTE   W08
 BYTE   Cn4
 BYTE   W08
 BYTE   En4
 BYTE   W08
 BYTE   Cn4
 BYTE   W08
 BYTE   En4
 BYTE   W08
 BYTE   PAN   c_v+48
 BYTE   N07  Gn4
 BYTE   W08
 BYTE   Cn5
 BYTE   W08
 BYTE   En5
 BYTE   W08
 BYTE   Gn5
 BYTE   W08
 BYTE   En5
 BYTE   W08
 BYTE   Gn5
 BYTE   W08
 BYTE   PEND 
// 013   ----------------------------------------
Label_3_01001071:
 BYTE   PAN   c_v-48
 BYTE   N07  En3  v112
 BYTE   W08
 BYTE   Gn3
 BYTE   W08
 BYTE   Cn4
 BYTE   W08
 BYTE   En4
 BYTE   W08
 BYTE   Gn3
 BYTE   W08
 BYTE   Cn4
 BYTE   W08
 BYTE   PAN   c_v+48
 BYTE   N07  En4
 BYTE   W08
 BYTE   Gn4
 BYTE   W08
 BYTE   Cn5
 BYTE   W08
 BYTE   En5
 BYTE   W08
 BYTE   Gn5
 BYTE   W08
 BYTE   Cn6
 BYTE   W08
 BYTE   PEND 
// 014   ----------------------------------------
Label_3_01001091:
 BYTE   PAN   c_v-48
 BYTE   N07  As3  v112
 BYTE   W08
 BYTE   Fn3
 BYTE   W08
 BYTE   As3
 BYTE   W08
 BYTE   Dn4
 BYTE   W08
 BYTE   As3
 BYTE   W08
 BYTE   Dn4
 BYTE   W08
 BYTE   PAN   c_v+48
 BYTE   N07  Fn4
 BYTE   W08
 BYTE   As4
 BYTE   W08
 BYTE   Fn4
 BYTE   W08
 BYTE   Dn4
 BYTE   W08
 BYTE   As3
 BYTE   W08
 BYTE   Fn4
 BYTE   W08
 BYTE   PEND 
// 015   ----------------------------------------
Label_3_010010B1:
 BYTE   PAN   c_v-48
 BYTE   N07  Dn4  v112
 BYTE   W08
 BYTE   As4
 BYTE   W08
 BYTE   As3
 BYTE   W08
 BYTE   Dn4
 BYTE   W08
 BYTE   As3
 BYTE   W08
 BYTE   Fn3
 BYTE   W08
 BYTE   PAN   c_v+48
 BYTE   N07  As3
 BYTE   W08
 BYTE   Dn4
 BYTE   W08
 BYTE   Fn4
 BYTE   W08
 BYTE   Dn4
 BYTE   W08
 BYTE   Fn4
 BYTE   W08
 BYTE   As4
 BYTE   W08
 BYTE   PEND 
 BYTE   PATT
  POIN2 Label_3_01001051
 BYTE   PATT
  POIN2 Label_3_01001071
// 016   ----------------------------------------
 BYTE   W96
// 017   ----------------------------------------
 BYTE   W96
// 018   ----------------------------------------
 BYTE   W96
// 019   ----------------------------------------
 BYTE   W96
// 020   ----------------------------------------
 BYTE   W96
// 021   ----------------------------------------
 BYTE   W96
// 022   ----------------------------------------
 BYTE   W96
// 023   ----------------------------------------
 BYTE   W96
 BYTE   PATT
  POIN2 Label_3_01001011
 BYTE   PATT
  POIN2 Label_3_01001031
 BYTE   PATT
  POIN2 Label_3_01001051
 BYTE   PATT
  POIN2 Label_3_01001071
 BYTE   PATT
  POIN2 Label_3_01001091
 BYTE   PATT
  POIN2 Label_3_010010B1
 BYTE   PATT
  POIN2 Label_3_01001051
// 024   ----------------------------------------
 BYTE   PAN   c_v-48
 BYTE   N07  En2  v112
 BYTE   W08
 BYTE   Gn2
 BYTE   W08
 BYTE   Cn3
 BYTE   W08
 BYTE   En3
 BYTE   W08
 BYTE   Gn3
 BYTE   W08
 BYTE   Cn4
 BYTE   W08
 BYTE   PAN   c_v+48
 BYTE   N07  En4
 BYTE   W08
 BYTE   Gn4
 BYTE   W08
 BYTE   Cn5
 BYTE   W08
 BYTE   En5
 BYTE   W08
 BYTE   Gn5
 BYTE   W08
 BYTE   Cn6
 BYTE   W08
// 025   ----------------------------------------
 BYTE   PAN   c_v-48
 BYTE   W48
 BYTE   En7
 BYTE   W48
// 026   ----------------------------------------
 BYTE   W96
// 027   ----------------------------------------
 BYTE   W96
// 028   ----------------------------------------
 BYTE   W96
// 029   ----------------------------------------
 BYTE   W96
// 030   ----------------------------------------
 BYTE   W96
// 031   ----------------------------------------
 BYTE   W96
// 032   ----------------------------------------
 BYTE   W96
// 033   ----------------------------------------
 BYTE   VOICE   38
 BYTE   PAN   c_v+0
 BYTE   VOL   65*PokemonDPPtBattleCyrusGratedShtick_mvl/mxv
 BYTE   W48
 BYTE   N44  Gn0
 BYTE   W48
// 034   ----------------------------------------
Label_3_0100113B:
 BYTE   N44  Gn0  v112
 BYTE   W48
 BYTE   N44
 BYTE   W48
 BYTE   PEND 
// 035   ----------------------------------------
 BYTE   W48
 BYTE   N44
 BYTE   W48
 BYTE   PATT
  POIN2 Label_3_0100113B
// 036   ----------------------------------------
 BYTE   W48
 BYTE   N44  Gn0  v112
 BYTE   W48
 BYTE   PATT
  POIN2 Label_3_0100113B
 BYTE   PATT
  POIN2 Label_3_0100113B
 BYTE   PATT
  POIN2 Label_3_0100113B
// 037   ----------------------------------------
 BYTE   W96
// 038   ----------------------------------------
 BYTE   W96
// 039   ----------------------------------------
 BYTE   W96
// 040   ----------------------------------------
 BYTE   W96
// 041   ----------------------------------------
 BYTE   VOICE   11
 BYTE   PAN   c_v-33
 BYTE   VOL   55*PokemonDPPtBattleCyrusGratedShtick_mvl/mxv
 BYTE   N07  Bn3  v112
 BYTE   W08
 BYTE   En4
 BYTE   W08
 BYTE   Gn4
 BYTE   W08
 BYTE   An4
 BYTE   W08
 BYTE   Bn4
 BYTE   W08
 BYTE   Bn4  v040
 BYTE   W32
 BYTE   PAN   c_v+34
 BYTE   N07  Bn3  v112
 BYTE   W08
 BYTE   En4
 BYTE   W08
 BYTE   Gn4
 BYTE   W08
// 042   ----------------------------------------
 BYTE   An4
 BYTE   W08
 BYTE   Bn4
 BYTE   W08
 BYTE   Bn4  v040
 BYTE   W80
// 043   ----------------------------------------
 BYTE   W96
// 044   ----------------------------------------
 BYTE   VOICE   46
 BYTE   VOL   64*PokemonDPPtBattleCyrusGratedShtick_mvl/mxv
 BYTE   PAN   c_v+40
 BYTE   N07  Fn5  v112
 BYTE   W08
 BYTE   Cs5
 BYTE   W08
 BYTE   Cn5
 BYTE   W08
 BYTE   Cs5
 BYTE   W08
 BYTE   Cn5
 BYTE   W08
 BYTE   An4
 BYTE   W08
 BYTE   PAN   c_v+15
 BYTE   N07  As4
 BYTE   W08
 BYTE   An4
 BYTE   W08
 BYTE   Fn4
 BYTE   W08
 BYTE   PAN   c_v-48
 BYTE   N07  Fs4
 BYTE   W08
 BYTE   Fn4
 BYTE   W08
 BYTE   Ds4
 BYTE   W08
// 045   ----------------------------------------
 BYTE   N68  Fn4
 BYTE   W96
// 046   ----------------------------------------
 BYTE   W96
// 047   ----------------------------------------
 BYTE   W96
// 048   ----------------------------------------
 BYTE   W96
// 049   ----------------------------------------
 BYTE   VOICE   4
 BYTE   PAN   c_v-32
 BYTE   VOL   55*PokemonDPPtBattleCyrusGratedShtick_mvl/mxv
 BYTE   N07  Bn3
 BYTE   W08
 BYTE   En4
 BYTE   W08
 BYTE   Gn4
 BYTE   W08
 BYTE   An4
 BYTE   W08
 BYTE   Bn4
 BYTE   W08
 BYTE   En5
 BYTE   W08
 BYTE   En5  v040
 BYTE   W24
 BYTE   PAN   c_v+32
 BYTE   N07  Bn3  v112
 BYTE   W08
 BYTE   En4
 BYTE   W08
 BYTE   Gn4
 BYTE   W08
// 050   ----------------------------------------
 BYTE   An4
 BYTE   W08
 BYTE   Bn4
 BYTE   W08
 BYTE   En5
 BYTE   W08
 BYTE   N07
 BYTE   W08
 BYTE   Bn4
 BYTE   W08
 BYTE   En5
 BYTE   W08
 BYTE   Bn4
 BYTE   W08
 BYTE   En5
 BYTE   W08
 BYTE   Bn4
 BYTE   W08
 BYTE   En5
 BYTE   W08
 BYTE   N07
 BYTE   W08
 BYTE   Bn4
 BYTE   W08
// 051   ----------------------------------------
 BYTE   PAN   c_v+32
 BYTE   VOL   53*PokemonDPPtBattleCyrusGratedShtick_mvl/mxv
 BYTE   N07  Fn5
 BYTE   W08
 BYTE   Cn5
 BYTE   W08
 BYTE   Fn5
 BYTE   W08
 BYTE   PAN   c_v-32
 BYTE   N07  Cn5
 BYTE   W08
 BYTE   N07
 BYTE   W08
 BYTE   Fn5
 BYTE   W08
 BYTE   PAN   c_v+32
 BYTE   N07  Cn5
 BYTE   W08
 BYTE   Fn5
 BYTE   W08
 BYTE   N07
 BYTE   W08
 BYTE   PAN   c_v-32
 BYTE   N07  Cn5
 BYTE   W08
 BYTE   Fn5
 BYTE   W08
 BYTE   Cn5
 BYTE   W08
// 052   ----------------------------------------
Label_3_01001213:
 BYTE   PAN   c_v+32
 BYTE   N07  Fn5  v112
 BYTE   W08
 BYTE   Cn5
 BYTE   W08
 BYTE   Fn5
 BYTE   W08
 BYTE   PAN   c_v-32
 BYTE   N07  Cn5
 BYTE   W08
 BYTE   Fn5
 BYTE   W08
 BYTE   N07
 BYTE   W08
 BYTE   PAN   c_v+32
 BYTE   N07  Cn5
 BYTE   W08
 BYTE   Fn5
 BYTE   W08
 BYTE   N07
 BYTE   W08
 BYTE   PAN   c_v-32
 BYTE   N07  Cn5
 BYTE   W08
 BYTE   Fn5
 BYTE   W08
 BYTE   Cn5
 BYTE   W08
 BYTE   PEND 
// 053   ----------------------------------------
Label_3_01001239:
 BYTE   PAN   c_v+32
 BYTE   N07  Fn5  v112
 BYTE   W08
 BYTE   Cn5
 BYTE   W08
 BYTE   Fn5
 BYTE   W08
 BYTE   PAN   c_v-32
 BYTE   N07  Cn5
 BYTE   W08
 BYTE   N07
 BYTE   W08
 BYTE   Fn5
 BYTE   W08
 BYTE   PAN   c_v+32
 BYTE   N07  Cn5
 BYTE   W08
 BYTE   Fn5
 BYTE   W08
 BYTE   N07
 BYTE   W08
 BYTE   PAN   c_v-32
 BYTE   N07  Cn5
 BYTE   W08
 BYTE   Fn5
 BYTE   W08
 BYTE   Cn5
 BYTE   W08
 BYTE   PEND 
 BYTE   PATT
  POIN2 Label_3_01001213
 BYTE   PATT
  POIN2 Label_3_01001239
 BYTE   PATT
  POIN2 Label_3_01001213
 BYTE   PATT
  POIN2 Label_3_01001239
 BYTE   PATT
  POIN2 Label_3_01001213
 BYTE   PATT
  POIN2 Label_3_01001239
 BYTE   PATT
  POIN2 Label_3_01001213
 BYTE   PATT
  POIN2 Label_3_01001239
 BYTE   PATT
  POIN2 Label_3_01001213
// 054   ----------------------------------------
 BYTE   W96
// 055   ----------------------------------------
 BYTE   W96
// 056   ----------------------------------------
 BYTE   PAN   c_v-32
 BYTE   VOL   49*PokemonDPPtBattleCyrusGratedShtick_mvl/mxv
 BYTE   N07  Fs4  v112
 BYTE   W08
 BYTE   Cs4
 BYTE   W08
 BYTE   Fs4
 BYTE   W08
 BYTE   As4
 BYTE   W08
 BYTE   Fs4
 BYTE   W08
 BYTE   As4
 BYTE   W08
 BYTE   PAN   c_v+37
 BYTE   N07  Cs5
 BYTE   W08
 BYTE   Fs5
 BYTE   W08
 BYTE   Cs5
 BYTE   W08
 BYTE   As4
 BYTE   W08
 BYTE   Fs4
 BYTE   W08
 BYTE   Cs5
 BYTE   W08
// 057   ----------------------------------------
 BYTE   As4
 BYTE   W08
 BYTE   Fs5
 BYTE   W08
 BYTE   Fs4
 BYTE   W08
 BYTE   As4
 BYTE   W08
 BYTE   Fs4
 BYTE   W08
 BYTE   Cs4
 BYTE   W08
 BYTE   PAN   c_v-32
 BYTE   N07  Fs4
 BYTE   W08
 BYTE   As4
 BYTE   W08
 BYTE   Cs5
 BYTE   W08
 BYTE   As4
 BYTE   W08
 BYTE   Cs5
 BYTE   W08
 BYTE   Fs5
 BYTE   W08
// 058   ----------------------------------------
Label_3_010012CA:
 BYTE   PAN   c_v-32
 BYTE   N07  Fs4  v112
 BYTE   W08
 BYTE   Cs4
 BYTE   W08
 BYTE   Fs4
 BYTE   W08
 BYTE   As4
 BYTE   W08
 BYTE   Fs4
 BYTE   W08
 BYTE   As4
 BYTE   W08
 BYTE   PAN   c_v+37
 BYTE   N07  Cs5
 BYTE   W08
 BYTE   Fs5
 BYTE   W08
 BYTE   As5
 BYTE   W08
 BYTE   Cs6
 BYTE   W08
 BYTE   As5
 BYTE   W08
 BYTE   Cs6
 BYTE   W08
 BYTE   PEND 
// 059   ----------------------------------------
Label_3_010012EA:
 BYTE   N07  As3  v112
 BYTE   W08
 BYTE   Cs4
 BYTE   W08
 BYTE   Fs4
 BYTE   W08
 BYTE   As4
 BYTE   W08
 BYTE   Cs4
 BYTE   W08
 BYTE   Fs4
 BYTE   W08
 BYTE   PAN   c_v-32
 BYTE   N07  As4
 BYTE   W08
 BYTE   Cs5
 BYTE   W08
 BYTE   Fs5
 BYTE   W08
 BYTE   As5
 BYTE   W08
 BYTE   Cs6
 BYTE   W08
 BYTE   Fs6
 BYTE   W08
 BYTE   PEND 
// 060   ----------------------------------------
 BYTE   PAN   c_v-32
 BYTE   N07  En4
 BYTE   W08
 BYTE   Bn3
 BYTE   W08
 BYTE   En4
 BYTE   W08
 BYTE   Gs4
 BYTE   W08
 BYTE   En4
 BYTE   W08
 BYTE   Gs4
 BYTE   W08
 BYTE   PAN   c_v+37
 BYTE   N07  Bn4
 BYTE   W08
 BYTE   En5
 BYTE   W08
 BYTE   Bn4
 BYTE   W08
 BYTE   Gs4
 BYTE   W08
 BYTE   En4
 BYTE   W08
 BYTE   Bn4
 BYTE   W08
// 061   ----------------------------------------
 BYTE   Gs4
 BYTE   W08
 BYTE   En5
 BYTE   W08
 BYTE   En4
 BYTE   W08
 BYTE   Gs4
 BYTE   W08
 BYTE   En4
 BYTE   W08
 BYTE   Bn3
 BYTE   W08
 BYTE   PAN   c_v-32
 BYTE   N07  En4
 BYTE   W08
 BYTE   Gs4
 BYTE   W08
 BYTE   Bn4
 BYTE   W08
 BYTE   Gs4
 BYTE   W08
 BYTE   Bn4
 BYTE   W08
 BYTE   En5
 BYTE   W08
 BYTE   PATT
  POIN2 Label_3_010012CA
 BYTE   PATT
  POIN2 Label_3_010012EA
// 062   ----------------------------------------
 BYTE   VOL   53*PokemonDPPtBattleCyrusGratedShtick_mvl/mxv
 BYTE   W96
// 063   ----------------------------------------
 BYTE   W96
// 064   ----------------------------------------
 BYTE   W96
// 065   ----------------------------------------
 BYTE   W96
// 066   ----------------------------------------
 BYTE   W96
// 067   ----------------------------------------
 BYTE   W96
// 068   ----------------------------------------
 BYTE   W96
// 069   ----------------------------------------
 BYTE   W92
 BYTE   W03
 BYTE   GoTo
  POIN2 Label_3_01001011
 BYTE   FINE

//**************** Track 5 (Midi-Chn.4) ****************//

PokemonDPPtBattleCyrusGratedShtick_005:
// 000   ----------------------------------------
 BYTE   KEYSH   PokemonDPPtBattleCyrusGratedShtick_key+0
 BYTE   VOICE   56
 BYTE   VOL   56*PokemonDPPtBattleCyrusGratedShtick_mvl/mxv
 BYTE   MOD 0
 BYTE   CnM2
 BYTE   PAN   c_v+32
 BYTE   BEND   c_v+0
 BYTE   TIE  Dn3  v112
 BYTE   W96
// 001   ----------------------------------------
 BYTE   W92
 BYTE   W03
 BYTE   EOT
 BYTE   W01
// 002   ----------------------------------------
 BYTE   TIE  Ds3
 BYTE   W96
// 003   ----------------------------------------
 BYTE   W92
 BYTE   W03
 BYTE   EOT
 BYTE   W01
// 004   ----------------------------------------
 BYTE   TIE  Cn3
 BYTE   W96
// 005   ----------------------------------------
 BYTE   W92
 BYTE   W03
 BYTE   EOT
 BYTE   W01
// 006   ----------------------------------------
 BYTE   TIE
 BYTE   W96
// 007   ----------------------------------------
 BYTE   W92
 BYTE   W03
 BYTE   EOT
 BYTE   W01
// 008   ----------------------------------------
 BYTE   W96
// 009   ----------------------------------------
 BYTE   W96
// 010   ----------------------------------------
Label_4_01001386:
 BYTE   PAN   c_v+36
 BYTE   W96
// 011   ----------------------------------------
Label_4_01001389:
 BYTE   W48
 BYTE   N32  Cn2  v112
 BYTE   W36
 BYTE   N11  Gn2
 BYTE   W12
 BYTE   PEND 
// 012   ----------------------------------------
Label_4_01001392:
 BYTE   N15  Fn2  v112
 BYTE   W16
 BYTE   N66  Gn2
 BYTE   W68
 BYTE   N11  Cn2
 BYTE   W12
 BYTE   PEND 
// 013   ----------------------------------------
Label_4_0100139D:
 BYTE   N15  As1  v112
 BYTE   W16
 BYTE   N78  En2
 BYTE   W80
 BYTE   PEND 
// 014   ----------------------------------------
 BYTE   N92  Dn2
 BYTE   W96
// 015   ----------------------------------------
Label_4_010013A8:
 BYTE   N78  Dn3  v112
 BYTE   W80
 BYTE   N15  Ds3
 BYTE   W16
 BYTE   PEND 
// 016   ----------------------------------------
 BYTE   En3
 BYTE   W16
 BYTE   N78  Cn3
 BYTE   W80
// 017   ----------------------------------------
 BYTE   N92  Cn2
 BYTE   W96
// 018   ----------------------------------------
 BYTE   W96
// 019   ----------------------------------------
 BYTE   W96
// 020   ----------------------------------------
 BYTE   W96
// 021   ----------------------------------------
 BYTE   W96
// 022   ----------------------------------------
 BYTE   W96
// 023   ----------------------------------------
 BYTE   W16
 BYTE   N15  As2
 BYTE   W16
 BYTE   Gs2
 BYTE   W16
 BYTE   Gn2
 BYTE   W16
 BYTE   Fs2
 BYTE   W16
 BYTE   Fn2
 BYTE   W16
// 024   ----------------------------------------
 BYTE   En2
 BYTE   W16
 BYTE   Fn2
 BYTE   W16
 BYTE   Gn2
 BYTE   W16
 BYTE   Fn2
 BYTE   W16
 BYTE   Gn2
 BYTE   W16
 BYTE   Bn2
 BYTE   W16
// 025   ----------------------------------------
 BYTE   N92  Cn3
 BYTE   W96
// 026   ----------------------------------------
 BYTE   W96
 BYTE   PATT
  POIN2 Label_4_01001389
 BYTE   PATT
  POIN2 Label_4_01001392
 BYTE   PATT
  POIN2 Label_4_0100139D
// 027   ----------------------------------------
 BYTE   N92  Dn2  v112
 BYTE   W96
 BYTE   PATT
  POIN2 Label_4_010013A8
// 028   ----------------------------------------
 BYTE   N15  En3  v112
 BYTE   W16
 BYTE   N60  Cn3
 BYTE   W64
 BYTE   N07  Fn3
 BYTE   W08
 BYTE   Fs3
 BYTE   W08
// 029   ----------------------------------------
 BYTE   N92  Gn3
 BYTE   W96
// 030   ----------------------------------------
 BYTE   W96
// 031   ----------------------------------------
 BYTE   W96
// 032   ----------------------------------------
 BYTE   W96
// 033   ----------------------------------------
 BYTE   VOL   63*PokemonDPPtBattleCyrusGratedShtick_mvl/mxv
 BYTE   PAN   c_v-28
 BYTE   W24
 BYTE   N15  Cn4  v124
 BYTE   W16
 BYTE   Cs4  v116
 BYTE   W16
 BYTE   Ds4  v120
 BYTE   W16
 BYTE   Fn4  v124
 BYTE   W16
 BYTE   Gn4  v127
 BYTE   W08
// 034   ----------------------------------------
 BYTE   W08
 BYTE   Gn4  v040
 BYTE   W24
 BYTE   VOL   65*PokemonDPPtBattleCyrusGratedShtick_mvl/mxv
 BYTE   W64
// 035   ----------------------------------------
 BYTE   PAN   c_v+36
 BYTE   W96
// 036   ----------------------------------------
 BYTE   W96
// 037   ----------------------------------------
 BYTE   W96
// 038   ----------------------------------------
 BYTE   Gn6
 BYTE   N23  Gs3  v112
 BYTE   W24
 BYTE   N07  Gn3
 BYTE   W08
 BYTE   N15  Gn3  v040
 BYTE   W64
// 039   ----------------------------------------
 BYTE   W96
// 040   ----------------------------------------
Label_4_01001431:
 BYTE   N23  Gs3  v112
 BYTE   W24
 BYTE   N07  Gn3
 BYTE   W08
 BYTE   N15  Gn3  v040
 BYTE   W64
 BYTE   PEND 
// 041   ----------------------------------------
 BYTE   W96
 BYTE   PATT
  POIN2 Label_4_01001431
// 042   ----------------------------------------
 BYTE   W96
// 043   ----------------------------------------
 BYTE   W96
// 044   ----------------------------------------
 BYTE   W96
// 045   ----------------------------------------
 BYTE   TIE  Cn2  v112
 BYTE   W96
// 046   ----------------------------------------
 BYTE   W68
 BYTE   W03
 BYTE   EOT
 BYTE   W01
 BYTE   N23  Gn2
 BYTE   W24
// 047   ----------------------------------------
Label_4_01001451:
 BYTE   N15  Fs2  v112
 BYTE   W16
 BYTE   N78  Dn2
 BYTE   W80
 BYTE   PEND 
// 048   ----------------------------------------
Label_4_01001459:
 BYTE   N15  Ds2  v112
 BYTE   W16
 BYTE   N78  Cn2
 BYTE   W80
 BYTE   PEND 
// 049   ----------------------------------------
 BYTE   N92  Bn1
 BYTE   W96
// 050   ----------------------------------------
 BYTE   Gs1
 BYTE   W96
// 051   ----------------------------------------
 BYTE   N11  Cn2
 BYTE   W12
 BYTE   N15  Cn2  v040
 BYTE   W84
// 052   ----------------------------------------
 BYTE   W96
// 053   ----------------------------------------
 BYTE   TIE  Fn2  v112
 BYTE   W96
// 054   ----------------------------------------
 BYTE   W68
 BYTE   W03
 BYTE   EOT
 BYTE   W01
 BYTE   N23  Gn2
 BYTE   W24
 BYTE   PATT
  POIN2 Label_4_01001451
 BYTE   PATT
  POIN2 Label_4_01001459
// 055   ----------------------------------------
 BYTE   N92  En3  v112
 BYTE   W96
// 056   ----------------------------------------
 BYTE   N92
 BYTE   W96
// 057   ----------------------------------------
 BYTE   TIE  Fn3
 BYTE   W96
// 058   ----------------------------------------
 BYTE   W92
 BYTE   W03
 BYTE   EOT
 BYTE   W01
// 059   ----------------------------------------
 BYTE   TIE  Fn1
 BYTE   W96
// 060   ----------------------------------------
 BYTE   W80
 BYTE   N15  En3
 BYTE   W03
 BYTE   EOT
 BYTE   Fn1
 BYTE   W13
// 061   ----------------------------------------
Label_4_0100149A:
 BYTE   N07  Cn4  v112
 BYTE   W08
 BYTE   Cn4  v040
 BYTE   W08
 BYTE   Cn4  v112
 BYTE   W08
 BYTE   Cn4  v040
 BYTE   W08
 BYTE   Cn4  v112
 BYTE   W08
 BYTE   N07
 BYTE   W08
 BYTE   N07
 BYTE   W08
 BYTE   Cn4  v040
 BYTE   W08
 BYTE   Cn4  v112
 BYTE   W08
 BYTE   Cn4  v040
 BYTE   W08
 BYTE   Cn4  v112
 BYTE   W08
 BYTE   N07
 BYTE   W08
 BYTE   PEND 
// 062   ----------------------------------------
Label_4_010014BD:
 BYTE   N07  Cs4  v112
 BYTE   W08
 BYTE   Cs4  v040
 BYTE   W08
 BYTE   Cs4  v112
 BYTE   W08
 BYTE   Cs4  v040
 BYTE   W08
 BYTE   Cs4  v112
 BYTE   W08
 BYTE   N07
 BYTE   W08
 BYTE   N07
 BYTE   W08
 BYTE   Cs4  v040
 BYTE   W08
 BYTE   Cs4  v112
 BYTE   W08
 BYTE   Cs4  v040
 BYTE   W08
 BYTE   Cs4  v112
 BYTE   W08
 BYTE   N07
 BYTE   W08
 BYTE   PEND 
// 063   ----------------------------------------
Label_4_010014E0:
 BYTE   N07  Dn4  v112
 BYTE   W08
 BYTE   Dn4  v040
 BYTE   W08
 BYTE   Dn4  v112
 BYTE   W08
 BYTE   Dn4  v040
 BYTE   W08
 BYTE   Dn4  v112
 BYTE   W08
 BYTE   N07
 BYTE   W08
 BYTE   N07
 BYTE   W08
 BYTE   Dn4  v040
 BYTE   W08
 BYTE   Dn4  v112
 BYTE   W08
 BYTE   Dn4  v040
 BYTE   W08
 BYTE   Dn4  v112
 BYTE   W08
 BYTE   N07
 BYTE   W08
 BYTE   PEND 
// 064   ----------------------------------------
 BYTE   Ds4
 BYTE   W08
 BYTE   Ds4  v040
 BYTE   W08
 BYTE   Ds4  v112
 BYTE   W08
 BYTE   Ds4  v040
 BYTE   W08
 BYTE   Ds4  v112
 BYTE   W08
 BYTE   N07
 BYTE   W08
 BYTE   N07
 BYTE   W08
 BYTE   Ds4  v040
 BYTE   W08
 BYTE   Ds4  v112
 BYTE   W08
 BYTE   Ds4  v040
 BYTE   W08
 BYTE   Ds4  v112
 BYTE   W08
 BYTE   N07
 BYTE   W08
 BYTE   PATT
  POIN2 Label_4_0100149A
 BYTE   PATT
  POIN2 Label_4_010014BD
 BYTE   PATT
  POIN2 Label_4_010014E0
// 065   ----------------------------------------
 BYTE   N07  Gs4  v112
 BYTE   W08
 BYTE   Gs4  v040
 BYTE   W08
 BYTE   Gs4  v112
 BYTE   W08
 BYTE   Gs4  v040
 BYTE   W08
 BYTE   Gs4  v112
 BYTE   W08
 BYTE   N07
 BYTE   W08
 BYTE   N07
 BYTE   W08
 BYTE   Gs4  v040
 BYTE   W08
 BYTE   Gs4  v112
 BYTE   W08
 BYTE   Gs4  v040
 BYTE   W08
 BYTE   Gs4  v112
 BYTE   W08
 BYTE   N07
 BYTE   W08
// 066   ----------------------------------------
 BYTE   W96
// 067   ----------------------------------------
 BYTE   W96
// 068   ----------------------------------------
 BYTE   W96
// 069   ----------------------------------------
 BYTE   W48
 BYTE   N32  Fs2
 BYTE   W36
 BYTE   N11  Cs3
 BYTE   W12
// 070   ----------------------------------------
 BYTE   N15  Bn2
 BYTE   W16
 BYTE   N66  Cs3
 BYTE   W68
 BYTE   N11  Fs2
 BYTE   W12
// 071   ----------------------------------------
 BYTE   N15  En2
 BYTE   W16
 BYTE   N78  As2
 BYTE   W80
// 072   ----------------------------------------
 BYTE   N92  Gs2
 BYTE   W96
// 073   ----------------------------------------
 BYTE   N78  Gs3
 BYTE   W80
 BYTE   N15  An3
 BYTE   W16
// 074   ----------------------------------------
 BYTE   As3
 BYTE   W16
 BYTE   N78  Fs3
 BYTE   W80
// 075   ----------------------------------------
 BYTE   N92  Fs2
 BYTE   W96
// 076   ----------------------------------------
 BYTE   W96
// 077   ----------------------------------------
 BYTE   W96
// 078   ----------------------------------------
 BYTE   W96
// 079   ----------------------------------------
 BYTE   W96
// 080   ----------------------------------------
 BYTE   W96
// 081   ----------------------------------------
 BYTE   W16
 BYTE   N15  En3
 BYTE   W16
 BYTE   Dn3
 BYTE   W16
 BYTE   Cs3
 BYTE   W16
 BYTE   Cn3
 BYTE   W16
 BYTE   Bn2
 BYTE   W16
// 082   ----------------------------------------
 BYTE   As2
 BYTE   W16
 BYTE   Bn2
 BYTE   W16
 BYTE   Cs3
 BYTE   W16
 BYTE   Bn2
 BYTE   W16
 BYTE   Cs3
 BYTE   W16
 BYTE   Fn3
 BYTE   W16
// 083   ----------------------------------------
 BYTE   N92  Fs3
 BYTE   W92
 BYTE   W03
 BYTE   GoTo
  POIN2 Label_4_01001386
 BYTE   FINE

//**************** Track 6 (Midi-Chn.5) ****************//

PokemonDPPtBattleCyrusGratedShtick_006:
// 000   ----------------------------------------
 BYTE   KEYSH   PokemonDPPtBattleCyrusGratedShtick_key+0
 BYTE   VOICE   2
 BYTE   VOL   56*PokemonDPPtBattleCyrusGratedShtick_mvl/mxv
 BYTE   MOD 0
 BYTE   CnM2
 BYTE   PAN   c_v-24
 BYTE   BEND   c_v+0
 BYTE   W92
 BYTE   VOL   49*PokemonDPPtBattleCyrusGratedShtick_mvl/mxv
 BYTE   W04
// 001   ----------------------------------------
 BYTE   W96
// 002   ----------------------------------------
 BYTE   W96
// 003   ----------------------------------------
 BYTE   W96
// 004   ----------------------------------------
 BYTE   VOICE   19
 BYTE   PAN   c_v-32
 BYTE   VOL   57*PokemonDPPtBattleCyrusGratedShtick_mvl/mxv
 BYTE   N07  Cn3  v127
 BYTE   W08
 BYTE   N07
 BYTE   W08
 BYTE   N07
 BYTE   W08
 BYTE   Cs3
 BYTE   W08
 BYTE   Cs3  v040
 BYTE   W07
 BYTE   PAN   c_v+32
 BYTE   W01
 BYTE   N07  Cn3  v127
 BYTE   W08
 BYTE   Cn3  v040
 BYTE   W08
 BYTE   Cn3  v127
 BYTE   W08
 BYTE   N07
 BYTE   W08
 BYTE   Cs3
 BYTE   W08
 BYTE   Cs3  v040
 BYTE   W08
 BYTE   Cn3  v127
 BYTE   W08
// 005   ----------------------------------------
Label_5_010015E5:
 BYTE   N07  Cn3  v127
 BYTE   W08
 BYTE   N07
 BYTE   W08
 BYTE   N07
 BYTE   W08
 BYTE   Cs3
 BYTE   W08
 BYTE   Cs3  v040
 BYTE   W07
 BYTE   PAN   c_v-32
 BYTE   W01
 BYTE   N07  Cn3  v127
 BYTE   W08
 BYTE   Cn3  v040
 BYTE   W08
 BYTE   Cn3  v127
 BYTE   W08
 BYTE   N07
 BYTE   W08
 BYTE   Cs3
 BYTE   W08
 BYTE   Cs3  v040
 BYTE   W08
 BYTE   Cn3  v127
 BYTE   W08
 BYTE   PEND 
// 006   ----------------------------------------
Label_5_0100160A:
 BYTE   PAN   c_v-32
 BYTE   N07  Cn3  v127
 BYTE   W08
 BYTE   N07
 BYTE   W08
 BYTE   N07
 BYTE   W08
 BYTE   Cs3
 BYTE   W08
 BYTE   Cs3  v040
 BYTE   W07
 BYTE   PAN   c_v+32
 BYTE   W01
 BYTE   N07  Cn3  v127
 BYTE   W08
 BYTE   Cn3  v040
 BYTE   W08
 BYTE   Cn3  v127
 BYTE   W08
 BYTE   N07
 BYTE   W08
 BYTE   Cs3
 BYTE   W08
 BYTE   Cs3  v040
 BYTE   W08
 BYTE   Cn3  v127
 BYTE   W08
 BYTE   PEND 
 BYTE   PATT
  POIN2 Label_5_010015E5
 BYTE   PATT
  POIN2 Label_5_0100160A
 BYTE   PATT
  POIN2 Label_5_010015E5
// 007   ----------------------------------------
Label_5_01001640:
 BYTE   PATT
  POIN2 Label_5_0100160A
 BYTE   PATT
  POIN2 Label_5_010015E5
 BYTE   PATT
  POIN2 Label_5_0100160A
 BYTE   PATT
  POIN2 Label_5_010015E5
// 008   ----------------------------------------
Label_5_01001654:
 BYTE   PAN   c_v-32
 BYTE   N07  As2  v127
 BYTE   W08
 BYTE   N07
 BYTE   W08
 BYTE   N07
 BYTE   W08
 BYTE   Bn2
 BYTE   W08
 BYTE   Bn2  v040
 BYTE   W07
 BYTE   PAN   c_v+32
 BYTE   W01
 BYTE   N07  As2  v127
 BYTE   W08
 BYTE   As2  v040
 BYTE   W08
 BYTE   As2  v127
 BYTE   W08
 BYTE   N07
 BYTE   W08
 BYTE   Bn2
 BYTE   W08
 BYTE   Bn2  v040
 BYTE   W08
 BYTE   As2  v127
 BYTE   W08
 BYTE   PEND 
// 009   ----------------------------------------
Label_5_0100167B:
 BYTE   N07  As2  v127
 BYTE   W08
 BYTE   N07
 BYTE   W08
 BYTE   N07
 BYTE   W08
 BYTE   Bn2
 BYTE   W08
 BYTE   Bn2  v040
 BYTE   W07
 BYTE   PAN   c_v-32
 BYTE   W01
 BYTE   N07  As2  v127
 BYTE   W08
 BYTE   As2  v040
 BYTE   W08
 BYTE   As2  v127
 BYTE   W08
 BYTE   N07
 BYTE   W08
 BYTE   Bn2
 BYTE   W08
 BYTE   Bn2  v040
 BYTE   W08
 BYTE   As2  v127
 BYTE   W08
 BYTE   PEND 
 BYTE   PATT
  POIN2 Label_5_0100160A
 BYTE   PATT
  POIN2 Label_5_010015E5
// 010   ----------------------------------------
 BYTE   W96
// 011   ----------------------------------------
 BYTE   W96
// 012   ----------------------------------------
 BYTE   W96
// 013   ----------------------------------------
 BYTE   W96
// 014   ----------------------------------------
 BYTE   W96
// 015   ----------------------------------------
 BYTE   W96
// 016   ----------------------------------------
 BYTE   W96
// 017   ----------------------------------------
 BYTE   W96
 BYTE   PATT
  POIN2 Label_5_0100160A
 BYTE   PATT
  POIN2 Label_5_010015E5
 BYTE   PATT
  POIN2 Label_5_0100160A
 BYTE   PATT
  POIN2 Label_5_010015E5
 BYTE   PATT
  POIN2 Label_5_01001654
 BYTE   PATT
  POIN2 Label_5_0100167B
 BYTE   PATT
  POIN2 Label_5_0100160A
 BYTE   PATT
  POIN2 Label_5_010015E5
 BYTE   PATT
  POIN2 Label_5_0100160A
 BYTE   PATT
  POIN2 Label_5_010015E5
 BYTE   PATT
  POIN2 Label_5_0100160A
 BYTE   PATT
  POIN2 Label_5_010015E5
 BYTE   PATT
  POIN2 Label_5_0100160A
 BYTE   PATT
  POIN2 Label_5_010015E5
 BYTE   PATT
  POIN2 Label_5_0100160A
 BYTE   PATT
  POIN2 Label_5_010015E5
// 018   ----------------------------------------
 BYTE   VOICE   54
 BYTE   PAN   c_v-42
 BYTE   N11  Ds3  v127
 BYTE   W24
 BYTE   PAN   c_v+47
 BYTE   N10  Cs3
 BYTE   W72
// 019   ----------------------------------------
 BYTE   W96
// 020   ----------------------------------------
 BYTE   PAN   c_v-42
 BYTE   N11  Ds3  v112
 BYTE   W24
 BYTE   PAN   c_v+39
 BYTE   N10  Cs3
 BYTE   W72
// 021   ----------------------------------------
 BYTE   W96
// 022   ----------------------------------------
 BYTE   PAN   c_v-39
 BYTE   N11  Ds3
 BYTE   W24
 BYTE   PAN   c_v+40
 BYTE   N10  Cs3
 BYTE   W72
// 023   ----------------------------------------
 BYTE   W96
// 024   ----------------------------------------
 BYTE   W96
// 025   ----------------------------------------
 BYTE   W96
// 026   ----------------------------------------
 BYTE   VOICE   38
 BYTE   PAN   c_v-32
 BYTE   VOL   49*PokemonDPPtBattleCyrusGratedShtick_mvl/mxv
 BYTE   N07  Cn2  v127
 BYTE   W08
 BYTE   N07
 BYTE   W08
 BYTE   N07
 BYTE   W08
 BYTE   Cs2
 BYTE   W08
 BYTE   Cs2  v040
 BYTE   W07
 BYTE   PAN   c_v+32
 BYTE   W01
 BYTE   N07  Cn2  v127
 BYTE   W08
 BYTE   Cn2  v040
 BYTE   W08
 BYTE   Cn2  v127
 BYTE   W08
 BYTE   N07
 BYTE   W08
 BYTE   Cs2
 BYTE   W08
 BYTE   Cs2  v040
 BYTE   W08
 BYTE   Cn2  v127
 BYTE   W08
// 027   ----------------------------------------
Label_5_01001753:
 BYTE   N07  Cn2  v127
 BYTE   W08
 BYTE   N07
 BYTE   W08
 BYTE   N07
 BYTE   W08
 BYTE   Cs2
 BYTE   W08
 BYTE   Cs2  v040
 BYTE   W07
 BYTE   PAN   c_v-32
 BYTE   W01
 BYTE   N07  Cn2  v127
 BYTE   W08
 BYTE   Cn2  v040
 BYTE   W08
 BYTE   Cn2  v127
 BYTE   W08
 BYTE   N07
 BYTE   W08
 BYTE   Cs2
 BYTE   W08
 BYTE   Cs2  v040
 BYTE   W08
 BYTE   Cn2  v127
 BYTE   W08
 BYTE   PEND 
// 028   ----------------------------------------
Label_5_01001778:
 BYTE   PAN   c_v-32
 BYTE   N07  Cn2  v127
 BYTE   W08
 BYTE   N07
 BYTE   W08
 BYTE   N07
 BYTE   W08
 BYTE   Cs2
 BYTE   W08
 BYTE   Cs2  v040
 BYTE   W07
 BYTE   PAN   c_v+32
 BYTE   W01
 BYTE   N07  Cn2  v127
 BYTE   W08
 BYTE   Cn2  v040
 BYTE   W08
 BYTE   Cn2  v127
 BYTE   W08
 BYTE   N07
 BYTE   W08
 BYTE   Cs2
 BYTE   W08
 BYTE   Cs2  v040
 BYTE   W08
 BYTE   Cn2  v127
 BYTE   W08
 BYTE   PEND 
 BYTE   PATT
  POIN2 Label_5_01001753
// 029   ----------------------------------------
Label_5_010017A4:
 BYTE   PAN   c_v-32
 BYTE   N07  Bn1  v127
 BYTE   W08
 BYTE   N07
 BYTE   W08
 BYTE   N07
 BYTE   W08
 BYTE   Cn2
 BYTE   W08
 BYTE   Cn2  v040
 BYTE   W07
 BYTE   PAN   c_v+32
 BYTE   W01
 BYTE   N07  Bn1  v127
 BYTE   W08
 BYTE   Bn1  v040
 BYTE   W08
 BYTE   Bn1  v127
 BYTE   W08
 BYTE   N07
 BYTE   W08
 BYTE   Cn2
 BYTE   W08
 BYTE   Cn2  v040
 BYTE   W08
 BYTE   Bn1  v127
 BYTE   W08
 BYTE   PEND 
// 030   ----------------------------------------
 BYTE   N07
 BYTE   W08
 BYTE   N07
 BYTE   W08
 BYTE   N07
 BYTE   W08
 BYTE   Cn2
 BYTE   W08
 BYTE   Cn2  v040
 BYTE   W07
 BYTE   PAN   c_v-32
 BYTE   W01
 BYTE   N07  Bn1  v127
 BYTE   W08
 BYTE   Bn1  v040
 BYTE   W08
 BYTE   Bn1  v127
 BYTE   W08
 BYTE   N07
 BYTE   W08
 BYTE   Cn2
 BYTE   W08
 BYTE   Cn2  v040
 BYTE   W08
 BYTE   Bn1  v127
 BYTE   W08
 BYTE   PATT
  POIN2 Label_5_01001778
 BYTE   PATT
  POIN2 Label_5_01001753
 BYTE   PATT
  POIN2 Label_5_01001778
 BYTE   PATT
  POIN2 Label_5_01001753
 BYTE   PATT
  POIN2 Label_5_01001778
 BYTE   PATT
  POIN2 Label_5_01001753
 BYTE   PATT
  POIN2 Label_5_010017A4
// 031   ----------------------------------------
 BYTE   N07  Bn1  v127
 BYTE   W08
 BYTE   N07
 BYTE   W08
 BYTE   N07
 BYTE   W08
 BYTE   Cn2
 BYTE   W08
 BYTE   Cn2  v040
 BYTE   W07
 BYTE   PAN   c_v-32
 BYTE   W01
 BYTE   N07  Bn1  v127
 BYTE   W08
 BYTE   Bn1  v040
 BYTE   W08
 BYTE   Bn1  v127
 BYTE   W08
 BYTE   N07
 BYTE   W08
 BYTE   Cn2
 BYTE   W08
 BYTE   Cn2  v040
 BYTE   W08
 BYTE   Bn1  v112
 BYTE   W08
// 032   ----------------------------------------
Label_5_01001834:
 BYTE   PAN   c_v-32
 BYTE   N07  Cn2  v127
 BYTE   W08
 BYTE   N07
 BYTE   W08
 BYTE   N07
 BYTE   W08
 BYTE   Cs2
 BYTE   W08
 BYTE   Cs2  v040
 BYTE   W07
 BYTE   PAN   c_v+32
 BYTE   W01
 BYTE   N07  Cn2  v127
 BYTE   W08
 BYTE   Cn2  v040
 BYTE   W08
 BYTE   Cn2  v127
 BYTE   W08
 BYTE   N07
 BYTE   W08
 BYTE   Cs2
 BYTE   W08
 BYTE   Cs2  v040
 BYTE   W08
 BYTE   Cn2  v112
 BYTE   W08
 BYTE   PEND 
// 033   ----------------------------------------
Label_5_0100185B:
 BYTE   N07  Cn2  v127
 BYTE   W08
 BYTE   N07
 BYTE   W08
 BYTE   N07
 BYTE   W08
 BYTE   Cs2
 BYTE   W08
 BYTE   Cs2  v040
 BYTE   W07
 BYTE   PAN   c_v-32
 BYTE   W01
 BYTE   N07  Cn2  v127
 BYTE   W08
 BYTE   Cn2  v040
 BYTE   W08
 BYTE   Cn2  v127
 BYTE   W08
 BYTE   N07
 BYTE   W08
 BYTE   Cs2
 BYTE   W08
 BYTE   Cs2  v040
 BYTE   W08
 BYTE   Cn2  v112
 BYTE   W08
 BYTE   PEND 
 BYTE   PATT
  POIN2 Label_5_01001834
 BYTE   PATT
  POIN2 Label_5_0100185B
// 034   ----------------------------------------
 BYTE   VOICE   56
 BYTE   N07  Fn2  v112
 BYTE   W08
 BYTE   Fn2  v040
 BYTE   W08
 BYTE   Fn2  v112
 BYTE   W08
 BYTE   Fn2  v040
 BYTE   W08
 BYTE   Fn2  v112
 BYTE   W08
 BYTE   N07
 BYTE   W08
 BYTE   N07
 BYTE   W08
 BYTE   Fn2  v040
 BYTE   W08
 BYTE   Fn2  v112
 BYTE   W08
 BYTE   Fn2  v040
 BYTE   W08
 BYTE   Fn2  v112
 BYTE   W08
 BYTE   N07
 BYTE   W08
// 035   ----------------------------------------
Label_5_010018AE:
 BYTE   N07  Fs2  v112
 BYTE   W08
 BYTE   Fs2  v040
 BYTE   W08
 BYTE   Fs2  v112
 BYTE   W08
 BYTE   Fs2  v040
 BYTE   W08
 BYTE   Fs2  v112
 BYTE   W08
 BYTE   N07
 BYTE   W08
 BYTE   N07
 BYTE   W08
 BYTE   Fs2  v040
 BYTE   W08
 BYTE   Fs2  v112
 BYTE   W08
 BYTE   Fs2  v040
 BYTE   W08
 BYTE   Fs2  v112
 BYTE   W08
 BYTE   N07
 BYTE   W08
 BYTE   PEND 
// 036   ----------------------------------------
Label_5_010018D1:
 BYTE   N07  Gn2  v112
 BYTE   W08
 BYTE   Gn2  v040
 BYTE   W08
 BYTE   Gn2  v112
 BYTE   W08
 BYTE   Gn2  v040
 BYTE   W08
 BYTE   Gn2  v112
 BYTE   W08
 BYTE   N07
 BYTE   W08
 BYTE   N07
 BYTE   W08
 BYTE   Gn2  v040
 BYTE   W08
 BYTE   Gn2  v112
 BYTE   W08
 BYTE   Gn2  v040
 BYTE   W08
 BYTE   Gn2  v112
 BYTE   W08
 BYTE   N07
 BYTE   W08
 BYTE   PEND 
// 037   ----------------------------------------
 BYTE   Gs2
 BYTE   W08
 BYTE   Gs2  v040
 BYTE   W08
 BYTE   Gs2  v112
 BYTE   W08
 BYTE   Gs2  v040
 BYTE   W08
 BYTE   Gs2  v112
 BYTE   W08
 BYTE   N07
 BYTE   W08
 BYTE   N07
 BYTE   W08
 BYTE   Gs2  v040
 BYTE   W08
 BYTE   Gs2  v112
 BYTE   W08
 BYTE   Gs2  v040
 BYTE   W08
 BYTE   Gs2  v112
 BYTE   W08
 BYTE   N07
 BYTE   W08
// 038   ----------------------------------------
 BYTE   Fn2
 BYTE   W08
 BYTE   Fn2  v040
 BYTE   W08
 BYTE   Fn2  v112
 BYTE   W08
 BYTE   Fn2  v040
 BYTE   W08
 BYTE   Fn2  v112
 BYTE   W08
 BYTE   N07
 BYTE   W08
 BYTE   N07
 BYTE   W08
 BYTE   Fn2  v040
 BYTE   W08
 BYTE   Fn2  v112
 BYTE   W08
 BYTE   Fn2  v040
 BYTE   W08
 BYTE   Fn2  v112
 BYTE   W08
 BYTE   N07
 BYTE   W08
 BYTE   PATT
  POIN2 Label_5_010018AE
 BYTE   PATT
  POIN2 Label_5_010018D1
// 039   ----------------------------------------
 BYTE   N07  Cs3  v112
 BYTE   W08
 BYTE   Cs3  v040
 BYTE   W08
 BYTE   Cs3  v112
 BYTE   W08
 BYTE   Cs3  v040
 BYTE   W08
 BYTE   Cs3  v112
 BYTE   W08
 BYTE   N07
 BYTE   W08
 BYTE   N07
 BYTE   W08
 BYTE   Cs3  v040
 BYTE   W08
 BYTE   Cs3  v112
 BYTE   W08
 BYTE   Cs3  v040
 BYTE   W08
 BYTE   Cs3  v112
 BYTE   W08
 BYTE   N07
 BYTE   W08
// 040   ----------------------------------------
 BYTE   VOICE   29
 BYTE   PAN   c_v-60
 BYTE   BEND   c_v+61
 BYTE   N02  Gs0
 BYTE   W04
 BYTE   N02
 BYTE   W04
 BYTE   N02
 BYTE   W04
 BYTE   N02
 BYTE   W04
 BYTE   PAN   c_v-58
 BYTE   BEND   c_v+59
 BYTE   W03
 BYTE   PAN   c_v-55
 BYTE   BEND   c_v+51
 BYTE   W01
 BYTE   N02
 BYTE   W03
 BYTE   BEND   c_v+46
 BYTE   W04
 BYTE   Gn6
 BYTE   W01
 BYTE   N02
 BYTE   W03
 BYTE   PAN   c_v-53
 BYTE   BEND   c_v+29
 BYTE   W04
 BYTE   Dn5
 BYTE   W04
 BYTE   PAN   c_v-51
 BYTE   BEND   c_v+12
 BYTE   W01
 BYTE   PAN   c_v-48
 BYTE   N02
 BYTE   W03
 BYTE   PAN   c_v-44
 BYTE   BEND   c_v+4
 BYTE   W04
 BYTE   PAN   c_v-40
 BYTE   BEND   c_v-3
 BYTE   W04
 BYTE   Fs2
 BYTE   W04
 BYTE   PAN   c_v-36
 BYTE   BEND   c_v-14
 BYTE   W01
 BYTE   N02
 BYTE   W03
 BYTE   PAN   c_v-34
 BYTE   BEND   c_v-21
 BYTE   W04
 BYTE   PAN   c_v-30
 BYTE   BEND   c_v-28
 BYTE   W04
 BYTE   PAN   c_v-28
 BYTE   BEND   c_v-32
 BYTE   W04
 BYTE   PAN   c_v-23
 BYTE   BEND   c_v-35
 BYTE   W01
 BYTE   N06
 BYTE   W03
 BYTE   PAN   c_v-17
 BYTE   BEND   c_v-42
 BYTE   W04
 BYTE   PAN   c_v-16
 BYTE   BEND   c_v-46
 BYTE   W04
 BYTE   PAN   c_v-10
 BYTE   BEND   c_v-51
 BYTE   W04
 BYTE   PAN   c_v-6
 BYTE   BEND   c_v-60
 BYTE   W04
 BYTE   PAN   c_v-2
 BYTE   BEND   c_v-62
 BYTE   W05
// 041   ----------------------------------------
 BYTE   PAN   c_v-2
 BYTE   BEND   c_v-58
 BYTE   N22
 BYTE   W03
 BYTE   BEND   c_v-60
 BYTE   W04
 BYTE   PAN   c_v-4
 BYTE   BEND   c_v-58
 BYTE   W04
 BYTE   PAN   c_v-8
 BYTE   BEND   c_v-55
 BYTE   W04
 BYTE   PAN   c_v-14
 BYTE   BEND   c_v-51
 BYTE   W04
 BYTE   PAN   c_v-21
 BYTE   BEND   c_v-48
 BYTE   W04
 BYTE   PAN   c_v-28
 BYTE   BEND   c_v-44
 BYTE   W01
 BYTE   N07
 BYTE   W03
 BYTE   PAN   c_v-32
 BYTE   BEND   c_v-39
 BYTE   W04
 BYTE   PAN   c_v-34
 BYTE   BEND   c_v-35
 BYTE   W01
 BYTE   N03
 BYTE   W03
 BYTE   PAN   c_v-36
 BYTE   BEND   c_v-30
 BYTE   W04
 BYTE   PAN   c_v-38
 BYTE   BEND   c_v-28
 BYTE   W01
 BYTE   N07  An0
 BYTE   W03
 BYTE   PAN   c_v-36
 BYTE   BEND   c_v-26
 BYTE   W04
 BYTE   Gn1
 BYTE   W01
 BYTE   N07  As0
 BYTE   W03
 BYTE   BEND   c_v-14
 BYTE   W04
 BYTE   Fs2
 BYTE   W01
 BYTE   N07
 BYTE   W03
 BYTE   BEND   c_v+2
 BYTE   W04
 BYTE   Cs4
 BYTE   W01
 BYTE   N07  Cn1
 BYTE   W03
 BYTE   BEND   c_v+19
 BYTE   W04
 BYTE   An5
 BYTE   W01
 BYTE   PAN   c_v-30
 BYTE   N03  Dn1
 BYTE   W03
 BYTE   PAN   c_v-17
 BYTE   BEND   c_v+39
 BYTE   W01
 BYTE   N03  En1
 BYTE   W03
 BYTE   PAN   c_v-2
 BYTE   BEND   c_v+49
 BYTE   W01
 BYTE   N03  Fs1
 BYTE   W03
 BYTE   PAN   c_v+24
 BYTE   BEND   c_v+54
 BYTE   W01
 BYTE   N03  An1  v100
 BYTE   W03
 BYTE   PAN   c_v+45
 BYTE   BEND   c_v+63
 BYTE   W01
 BYTE   N03  Cn2  v088
 BYTE   W03
 BYTE   PAN   c_v+47
 BYTE   W01
 BYTE   N03  En2  v080
 BYTE   W04
// 042   ----------------------------------------
 BYTE   VOICE   19
 BYTE   PAN   c_v-32
 BYTE   VOL   49*PokemonDPPtBattleCyrusGratedShtick_mvl/mxv
 BYTE   N07  Fs3  v127
 BYTE   W08
 BYTE   N07
 BYTE   W08
 BYTE   N07
 BYTE   W08
 BYTE   Gn3
 BYTE   W08
 BYTE   Gn3  v040
 BYTE   W07
 BYTE   PAN   c_v+32
 BYTE   W01
 BYTE   N07  Fs3  v127
 BYTE   W08
 BYTE   Fs3  v040
 BYTE   W08
 BYTE   Fs3  v127
 BYTE   W08
 BYTE   N07
 BYTE   W08
 BYTE   Gn3
 BYTE   W08
 BYTE   Gn3  v040
 BYTE   W08
 BYTE   Fs3  v127
 BYTE   W08
// 043   ----------------------------------------
Label_5_01001A87:
 BYTE   N07  Fs3  v127
 BYTE   W08
 BYTE   N07
 BYTE   W08
 BYTE   N07
 BYTE   W08
 BYTE   Gn3
 BYTE   W08
 BYTE   Gn3  v040
 BYTE   W07
 BYTE   PAN   c_v-32
 BYTE   W01
 BYTE   N07  Fs3  v127
 BYTE   W08
 BYTE   Fs3  v040
 BYTE   W08
 BYTE   Fs3  v127
 BYTE   W08
 BYTE   N07
 BYTE   W08
 BYTE   Gn3
 BYTE   W08
 BYTE   Gn3  v040
 BYTE   W08
 BYTE   Fs3  v127
 BYTE   W08
 BYTE   PEND 
// 044   ----------------------------------------
Label_5_01001AAC:
 BYTE   PAN   c_v-32
 BYTE   N07  Fs3  v127
 BYTE   W08
 BYTE   N07
 BYTE   W08
 BYTE   N07
 BYTE   W08
 BYTE   Gn3
 BYTE   W08
 BYTE   Gn3  v040
 BYTE   W07
 BYTE   PAN   c_v+32
 BYTE   W01
 BYTE   N07  Fs3  v127
 BYTE   W08
 BYTE   Fs3  v040
 BYTE   W08
 BYTE   Fs3  v127
 BYTE   W08
 BYTE   N07
 BYTE   W08
 BYTE   Gn3
 BYTE   W08
 BYTE   Gn3  v040
 BYTE   W08
 BYTE   Fs3  v127
 BYTE   W08
 BYTE   PEND 
 BYTE   PATT
  POIN2 Label_5_01001A87
// 045   ----------------------------------------
 BYTE   PAN   c_v-32
 BYTE   N07  En3  v127
 BYTE   W08
 BYTE   N07
 BYTE   W08
 BYTE   N07
 BYTE   W08
 BYTE   Fn3
 BYTE   W08
 BYTE   Fn3  v040
 BYTE   W07
 BYTE   PAN   c_v+32
 BYTE   W01
 BYTE   N07  En3  v127
 BYTE   W08
 BYTE   En3  v040
 BYTE   W08
 BYTE   En3  v127
 BYTE   W08
 BYTE   N07
 BYTE   W08
 BYTE   Fn3
 BYTE   W08
 BYTE   Fn3  v040
 BYTE   W08
 BYTE   En3  v127
 BYTE   W08
// 046   ----------------------------------------
 BYTE   N07
 BYTE   W08
 BYTE   N07
 BYTE   W08
 BYTE   N07
 BYTE   W08
 BYTE   Fn3
 BYTE   W08
 BYTE   Fn3  v040
 BYTE   W07
 BYTE   PAN   c_v-32
 BYTE   W01
 BYTE   N07  En3  v127
 BYTE   W08
 BYTE   En3  v040
 BYTE   W08
 BYTE   En3  v127
 BYTE   W08
 BYTE   N07
 BYTE   W08
 BYTE   Fn3
 BYTE   W08
 BYTE   Fn3  v040
 BYTE   W08
 BYTE   En3  v127
 BYTE   W08
 BYTE   PATT
  POIN2 Label_5_01001AAC
 BYTE   PATT
  POIN2 Label_5_01001A87
// 047   ----------------------------------------
 BYTE   W96
// 048   ----------------------------------------
 BYTE   W96
// 049   ----------------------------------------
 BYTE   W96
// 050   ----------------------------------------
 BYTE   W96
// 051   ----------------------------------------
 BYTE   W96
// 052   ----------------------------------------
 BYTE   W96
// 053   ----------------------------------------
 BYTE   W96
// 054   ----------------------------------------
 BYTE   W92
 BYTE   W03
 BYTE   GoTo
  POIN2 Label_5_01001640
 BYTE   FINE

//**************** Track 7 (Midi-Chn.6) ****************//

PokemonDPPtBattleCyrusGratedShtick_007:
// 000   ----------------------------------------
 BYTE   KEYSH   PokemonDPPtBattleCyrusGratedShtick_key+0
 BYTE   VOICE   56
 BYTE   MOD 0
 BYTE   CnM2
 BYTE   PAN   c_v+6
 BYTE   VOL   29*PokemonDPPtBattleCyrusGratedShtick_mvl/mxv
 BYTE   BEND   c_v+1
 BYTE   W03
 BYTE   TIE  Dn3  v112
 BYTE   W92
 BYTE   W01
// 001   ----------------------------------------
 BYTE   W96
// 002   ----------------------------------------
 BYTE   W02
 BYTE   EOT
 BYTE   W01
 BYTE   TIE  Ds3
 BYTE   W92
 BYTE   W01
// 003   ----------------------------------------
 BYTE   W96
// 004   ----------------------------------------
 BYTE   W02
 BYTE   EOT
 BYTE   W01
 BYTE   TIE  Cn3
 BYTE   W92
 BYTE   W01
// 005   ----------------------------------------
 BYTE   W96
// 006   ----------------------------------------
 BYTE   W02
 BYTE   EOT
 BYTE   W01
 BYTE   TIE
 BYTE   W92
 BYTE   W01
// 007   ----------------------------------------
 BYTE   W96
// 008   ----------------------------------------
 BYTE   W02
 BYTE   EOT
 BYTE   W92
 BYTE   W02
// 009   ----------------------------------------
 BYTE   W96
// 010   ----------------------------------------
Label_6_01001B6B:
 BYTE   VOICE   60
 BYTE   W03
 BYTE   N92  Gn3  v112
 BYTE   W92
 BYTE   W01
// 011   ----------------------------------------
Label_6_01001B73:
 BYTE   W03
 BYTE   N80  Cn4  v112
 BYTE   W84
 BYTE   N11  Gn4
 BYTE   W09
 BYTE   PEND 
// 012   ----------------------------------------
Label_6_01001B7C:
 BYTE   W03
 BYTE   N15  Fn4  v112
 BYTE   W16
 BYTE   TIE  En4
 BYTE   W76
 BYTE   W01
 BYTE   PEND 
// 013   ----------------------------------------
 BYTE   W96
// 014   ----------------------------------------
 BYTE   W02
 BYTE   EOT
 BYTE   W01
 BYTE   N92  As3
 BYTE   W92
 BYTE   W01
// 015   ----------------------------------------
Label_6_01001B8E:
 BYTE   W03
 BYTE   N78  As4  v112
 BYTE   W80
 BYTE   N15  Gs4
 BYTE   W13
 BYTE   PEND 
// 016   ----------------------------------------
 BYTE   W03
 BYTE   Gn4
 BYTE   W16
 BYTE   TIE  En4
 BYTE   W76
 BYTE   W01
// 017   ----------------------------------------
 BYTE   W96
// 018   ----------------------------------------
 BYTE   W02
 BYTE   EOT
 BYTE   W01
 BYTE   VOICE   48
 BYTE   N15  Fn4
 BYTE   W16
 BYTE   Dn4
 BYTE   W16
 BYTE   As3
 BYTE   W16
 BYTE   N02  An4
 BYTE   W03
 BYTE   TIE  As4
 BYTE   W42
// 019   ----------------------------------------
 BYTE   W80
 BYTE   W02
 BYTE   EOT
 BYTE   W01
 BYTE   N15  Gs4
 BYTE   W13
// 020   ----------------------------------------
 BYTE   W03
 BYTE   Gn4
 BYTE   W16
 BYTE   N78  En4
 BYTE   W76
 BYTE   W01
// 021   ----------------------------------------
 BYTE   W03
 BYTE   N15  Dn4
 BYTE   W16
 BYTE   N78  En4
 BYTE   W76
 BYTE   W01
// 022   ----------------------------------------
 BYTE   W03
 BYTE   N15  Fn4
 BYTE   W16
 BYTE   Dn4
 BYTE   W16
 BYTE   As3
 BYTE   W16
 BYTE   N78  As4
 BYTE   W44
 BYTE   W01
// 023   ----------------------------------------
 BYTE   W32
 BYTE   W03
 BYTE   N15  Gs4
 BYTE   W16
 BYTE   As4
 BYTE   W16
 BYTE   Gs4
 BYTE   W16
 BYTE   Bn4
 BYTE   W13
// 024   ----------------------------------------
 BYTE   W03
 BYTE   Cn5
 BYTE   W16
 BYTE   Dn5
 BYTE   W16
 BYTE   Cn5
 BYTE   W16
 BYTE   Dn5
 BYTE   W16
 BYTE   Cn5
 BYTE   W16
 BYTE   Dn5
 BYTE   W13
// 025   ----------------------------------------
 BYTE   W03
 BYTE   N92  En5
 BYTE   W92
 BYTE   W01
// 026   ----------------------------------------
 BYTE   W03
 BYTE   VOICE   60
 BYTE   N92  Gn3
 BYTE   W92
 BYTE   W01
 BYTE   PATT
  POIN2 Label_6_01001B73
 BYTE   PATT
  POIN2 Label_6_01001B7C
// 027   ----------------------------------------
 BYTE   W96
// 028   ----------------------------------------
 BYTE   W02
 BYTE   EOT
 BYTE   En4
 BYTE   W01
 BYTE   N92  As3  v112
 BYTE   W92
 BYTE   W01
 BYTE   PATT
  POIN2 Label_6_01001B8E
// 029   ----------------------------------------
 BYTE   W03
 BYTE   N15  Gn4  v112
 BYTE   W16
 BYTE   N60  En4
 BYTE   W64
 BYTE   N07  As4
 BYTE   W08
 BYTE   Bn4
 BYTE   W05
// 030   ----------------------------------------
 BYTE   W03
 BYTE   N92  Cn5
 BYTE   W92
 BYTE   W01
// 031   ----------------------------------------
 BYTE   W03
 BYTE   VOICE   48
 BYTE   N15  Cn4
 BYTE   W16
 BYTE   Cs4
 BYTE   W16
 BYTE   Fn4
 BYTE   W16
 BYTE   En4
 BYTE   W16
 BYTE   Fn4
 BYTE   W16
 BYTE   En4
 BYTE   W13
// 032   ----------------------------------------
 BYTE   W03
 BYTE   Gn4
 BYTE   W16
 BYTE   Fn4
 BYTE   W16
 BYTE   Gn4
 BYTE   W16
 BYTE   Gs4
 BYTE   W16
 BYTE   As4
 BYTE   W16
 BYTE   Gs4
 BYTE   W13
// 033   ----------------------------------------
 BYTE   W03
 BYTE   As4
 BYTE   W16
 BYTE   Cn5
 BYTE   W16
 BYTE   As4
 BYTE   W16
 BYTE   Gs4
 BYTE   W16
 BYTE   As4
 BYTE   W16
 BYTE   Gs4
 BYTE   W13
// 034   ----------------------------------------
 BYTE   W03
 BYTE   N92  Gn4
 BYTE   W92
 BYTE   W01
// 035   ----------------------------------------
 BYTE   W03
 BYTE   N15  Cn5
 BYTE   W16
 BYTE   Cs5
 BYTE   W16
 BYTE   Fn5
 BYTE   W16
 BYTE   En5
 BYTE   W16
 BYTE   Fn5
 BYTE   W16
 BYTE   En5
 BYTE   W13
// 036   ----------------------------------------
 BYTE   W03
 BYTE   Gn5
 BYTE   W16
 BYTE   Fn5
 BYTE   W16
 BYTE   Gn5
 BYTE   W16
 BYTE   Gs5
 BYTE   W16
 BYTE   As5
 BYTE   W16
 BYTE   Gs5
 BYTE   W13
// 037   ----------------------------------------
 BYTE   W03
 BYTE   As5
 BYTE   W16
 BYTE   Cn6
 BYTE   W16
 BYTE   As5
 BYTE   W16
 BYTE   Cs6
 BYTE   W16
 BYTE   Ds6
 BYTE   W16
 BYTE   Cs6
 BYTE   W13
// 038   ----------------------------------------
 BYTE   W03
 BYTE   N92  Cn6
 BYTE   W48
 BYTE   BEND   c_v-2
 BYTE   W02
 BYTE   Bn2
 BYTE   W03
 BYTE   Gs2
 BYTE   W03
 BYTE   Fn2
 BYTE   W03
 BYTE   Dn2
 BYTE   W03
 BYTE   Cn2
 BYTE   W03
 BYTE   An1
 BYTE   W03
 BYTE   Fn1
 BYTE   W03
 BYTE   En1
 BYTE   W03
 BYTE   Bn0
 BYTE   W03
 BYTE   As0
 BYTE   W03
 BYTE   Gs0
 BYTE   W03
 BYTE   Fn0
 BYTE   W03
 BYTE   Dn0
 BYTE   W03
 BYTE   Cn0
 BYTE   W03
 BYTE   GnM1
 BYTE   W01
// 039   ----------------------------------------
 BYTE   W03
 BYTE   VOICE   56
 BYTE   BEND   c_v+1
 BYTE   N23  Ds4
 BYTE   W24
 BYTE   N07  Cs4
 BYTE   W08
 BYTE   N15  Cs4  v040
 BYTE   W60
 BYTE   W01
// 040   ----------------------------------------
 BYTE   W96
// 041   ----------------------------------------
Label_6_01001CAF:
 BYTE   W03
 BYTE   N23  Ds4  v112
 BYTE   W24
 BYTE   N07  Cs4
 BYTE   W08
 BYTE   N15  Cs4  v040
 BYTE   W60
 BYTE   W01
 BYTE   PEND 
// 042   ----------------------------------------
 BYTE   W96
 BYTE   PATT
  POIN2 Label_6_01001CAF
// 043   ----------------------------------------
 BYTE   W96
// 044   ----------------------------------------
 BYTE   W96
// 045   ----------------------------------------
 BYTE   W96
// 046   ----------------------------------------
 BYTE   PAN   c_v+40
 BYTE   VOL   52*PokemonDPPtBattleCyrusGratedShtick_mvl/mxv
 BYTE   W03
 BYTE   VOICE   56
 BYTE   TIE  Fn4  v112
 BYTE   W92
 BYTE   W01
// 047   ----------------------------------------
 BYTE   W72
 BYTE   W02
 BYTE   EOT
 BYTE   W01
 BYTE   N23  Cn5
 BYTE   W21
// 048   ----------------------------------------
Label_6_01001CD9:
 BYTE   W03
 BYTE   N15  Bn4  v112
 BYTE   W16
 BYTE   N78  Gn4
 BYTE   W76
 BYTE   W01
 BYTE   PEND 
// 049   ----------------------------------------
Label_6_01001CE3:
 BYTE   W03
 BYTE   N15  Gs4  v112
 BYTE   W16
 BYTE   N78  Fn4
 BYTE   W76
 BYTE   W01
 BYTE   PEND 
// 050   ----------------------------------------
 BYTE   W03
 BYTE   N92  En3
 BYTE   W92
 BYTE   W01
// 051   ----------------------------------------
 BYTE   W03
 BYTE   N84  Bn3
 BYTE   W88
 BYTE   N07  En4
 BYTE   W05
// 052   ----------------------------------------
 BYTE   W03
 BYTE   N11  Fn4
 BYTE   W12
 BYTE   N15  Fn4  v040
 BYTE   W80
 BYTE   W01
// 053   ----------------------------------------
 BYTE   W96
// 054   ----------------------------------------
 BYTE   W03
 BYTE   TIE  Fn4  v112
 BYTE   W92
 BYTE   W01
// 055   ----------------------------------------
 BYTE   W72
 BYTE   W02
 BYTE   EOT
 BYTE   W01
 BYTE   N23  Cn5
 BYTE   W21
 BYTE   PATT
  POIN2 Label_6_01001CD9
 BYTE   PATT
  POIN2 Label_6_01001CE3
// 056   ----------------------------------------
 BYTE   W03
 BYTE   N92  Gs4  v112
 BYTE   W92
 BYTE   W01
// 057   ----------------------------------------
 BYTE   W03
 BYTE   Bn4
 BYTE   W92
 BYTE   W01
// 058   ----------------------------------------
 BYTE   W03
 BYTE   TIE  Cn5
 BYTE   W92
 BYTE   W01
// 059   ----------------------------------------
 BYTE   W96
// 060   ----------------------------------------
 BYTE   W02
 BYTE   EOT
 BYTE   W92
 BYTE   W02
// 061   ----------------------------------------
 BYTE   W80
 BYTE   W03
 BYTE   N15  En3
 BYTE   W13
// 062   ----------------------------------------
Label_6_01001D33:
 BYTE   W03
 BYTE   N07  Cn4  v112
 BYTE   W08
 BYTE   Cn4  v040
 BYTE   W08
 BYTE   Cn4  v112
 BYTE   W08
 BYTE   Cn4  v040
 BYTE   W08
 BYTE   Cn4  v112
 BYTE   W08
 BYTE   N07
 BYTE   W08
 BYTE   N07
 BYTE   W08
 BYTE   Cn4  v040
 BYTE   W08
 BYTE   Cn4  v112
 BYTE   W08
 BYTE   Cn4  v040
 BYTE   W08
 BYTE   Cn4  v112
 BYTE   W08
 BYTE   N07
 BYTE   W05
 BYTE   PEND 
// 063   ----------------------------------------
Label_6_01001D57:
 BYTE   W03
 BYTE   N07  Cs4  v112
 BYTE   W08
 BYTE   Cs4  v040
 BYTE   W08
 BYTE   Cs4  v112
 BYTE   W08
 BYTE   Cs4  v040
 BYTE   W08
 BYTE   Cs4  v112
 BYTE   W08
 BYTE   N07
 BYTE   W08
 BYTE   N07
 BYTE   W08
 BYTE   Cs4  v040
 BYTE   W08
 BYTE   Cs4  v112
 BYTE   W08
 BYTE   Cs4  v040
 BYTE   W08
 BYTE   Cs4  v112
 BYTE   W08
 BYTE   N07
 BYTE   W05
 BYTE   PEND 
// 064   ----------------------------------------
Label_6_01001D7B:
 BYTE   W03
 BYTE   N07  Dn4  v112
 BYTE   W08
 BYTE   Dn4  v040
 BYTE   W08
 BYTE   Dn4  v112
 BYTE   W08
 BYTE   Dn4  v040
 BYTE   W08
 BYTE   Dn4  v112
 BYTE   W08
 BYTE   N07
 BYTE   W08
 BYTE   N07
 BYTE   W08
 BYTE   Dn4  v040
 BYTE   W08
 BYTE   Dn4  v112
 BYTE   W08
 BYTE   Dn4  v040
 BYTE   W08
 BYTE   Dn4  v112
 BYTE   W08
 BYTE   N07
 BYTE   W05
 BYTE   PEND 
// 065   ----------------------------------------
 BYTE   W03
 BYTE   Ds4
 BYTE   W08
 BYTE   Ds4  v040
 BYTE   W08
 BYTE   Ds4  v112
 BYTE   W08
 BYTE   Ds4  v040
 BYTE   W08
 BYTE   Ds4  v112
 BYTE   W08
 BYTE   N07
 BYTE   W08
 BYTE   N07
 BYTE   W08
 BYTE   Ds4  v040
 BYTE   W08
 BYTE   Ds4  v112
 BYTE   W08
 BYTE   Ds4  v040
 BYTE   W08
 BYTE   Ds4  v112
 BYTE   W08
 BYTE   N07
 BYTE   W05
 BYTE   PATT
  POIN2 Label_6_01001D33
 BYTE   PATT
  POIN2 Label_6_01001D57
 BYTE   PATT
  POIN2 Label_6_01001D7B
// 066   ----------------------------------------
 BYTE   W03
 BYTE   N07  Gs4  v112
 BYTE   W08
 BYTE   Gs4  v040
 BYTE   W08
 BYTE   Gs4  v112
 BYTE   W08
 BYTE   Gs4  v040
 BYTE   W08
 BYTE   Gs4  v112
 BYTE   W08
 BYTE   N07
 BYTE   W08
 BYTE   N07
 BYTE   W08
 BYTE   Gs4  v040
 BYTE   W08
 BYTE   Gs4  v112
 BYTE   W08
 BYTE   Gs4  v040
 BYTE   W08
 BYTE   Gs4  v112
 BYTE   W08
 BYTE   N07
 BYTE   W05
// 067   ----------------------------------------
 BYTE   W96
// 068   ----------------------------------------
 BYTE   W96
// 069   ----------------------------------------
 BYTE   W03
 BYTE   N92  Cs4
 BYTE   W92
 BYTE   W01
// 070   ----------------------------------------
 BYTE   W03
 BYTE   N80  Fs4
 BYTE   W84
 BYTE   N11  Cs5
 BYTE   W09
// 071   ----------------------------------------
 BYTE   W03
 BYTE   N15  Bn4
 BYTE   W16
 BYTE   TIE  As4
 BYTE   W76
 BYTE   W01
// 072   ----------------------------------------
 BYTE   W96
// 073   ----------------------------------------
 BYTE   W02
 BYTE   EOT
 BYTE   W01
 BYTE   N92  En4
 BYTE   W92
 BYTE   W01
// 074   ----------------------------------------
 BYTE   W03
 BYTE   N78  En5
 BYTE   W80
 BYTE   N15  Dn5
 BYTE   W13
// 075   ----------------------------------------
 BYTE   W03
 BYTE   Cs5
 BYTE   W16
 BYTE   TIE  As4
 BYTE   W76
 BYTE   W01
// 076   ----------------------------------------
 BYTE   W96
// 077   ----------------------------------------
 BYTE   VOL   37*PokemonDPPtBattleCyrusGratedShtick_mvl/mxv
 BYTE   W02
 BYTE   EOT
 BYTE   W01
 BYTE   N15  Bn4
 BYTE   W16
 BYTE   Gs4
 BYTE   W16
 BYTE   En4
 BYTE   W16
 BYTE   TIE  En5
 BYTE   W44
 BYTE   W01
// 078   ----------------------------------------
 BYTE   W80
 BYTE   W02
 BYTE   EOT
 BYTE   W01
 BYTE   N15  Dn5
 BYTE   W13
// 079   ----------------------------------------
 BYTE   W03
 BYTE   Cs5
 BYTE   W16
 BYTE   N78  As4
 BYTE   W76
 BYTE   W01
// 080   ----------------------------------------
 BYTE   W03
 BYTE   N15  Gs4
 BYTE   W16
 BYTE   N78  As4
 BYTE   W76
 BYTE   W01
// 081   ----------------------------------------
 BYTE   W03
 BYTE   N15  Bn4
 BYTE   W16
 BYTE   Gs4
 BYTE   W16
 BYTE   En4
 BYTE   W16
 BYTE   N78  En5
 BYTE   W44
 BYTE   W01
// 082   ----------------------------------------
 BYTE   W32
 BYTE   W03
 BYTE   N15  Dn5
 BYTE   W16
 BYTE   En5
 BYTE   W16
 BYTE   Dn5
 BYTE   W16
 BYTE   Fn5
 BYTE   W13
// 083   ----------------------------------------
 BYTE   W03
 BYTE   Fs5
 BYTE   W16
 BYTE   Gs5
 BYTE   W16
 BYTE   Fs5
 BYTE   W16
 BYTE   Gs5
 BYTE   W16
 BYTE   Fs5
 BYTE   W16
 BYTE   Gs5
 BYTE   W13
// 084   ----------------------------------------
 BYTE   W03
 BYTE   N92  As5
 BYTE   W92
 BYTE   GoTo
  POIN2 Label_6_01001B6B
 BYTE   FINE

//**************** Track 8 (Midi-Chn.7) ****************//

PokemonDPPtBattleCyrusGratedShtick_008:
// 000   ----------------------------------------
 BYTE   KEYSH   PokemonDPPtBattleCyrusGratedShtick_key+0
 BYTE   VOICE   48
 BYTE   PAN   c_v+0
 BYTE   VOL   56*PokemonDPPtBattleCyrusGratedShtick_mvl/mxv
 BYTE   MOD 0
 BYTE   CnM2
 BYTE   BEND   c_v+0
 BYTE   TIE  Dn2  v112
 BYTE   W06
 BYTE   PAN   c_v+16
 BYTE   W90
// 001   ----------------------------------------
 BYTE   W92
 BYTE   W03
 BYTE   EOT
 BYTE   W01
// 002   ----------------------------------------
 BYTE   TIE  Ds2
 BYTE   W96
// 003   ----------------------------------------
 BYTE   W92
 BYTE   W03
 BYTE   EOT
 BYTE   W01
// 004   ----------------------------------------
 BYTE   TIE  Cn2
 BYTE   W96
// 005   ----------------------------------------
 BYTE   W92
 BYTE   W03
 BYTE   EOT
 BYTE   W01
// 006   ----------------------------------------
 BYTE   TIE
 BYTE   W96
// 007   ----------------------------------------
 BYTE   W92
 BYTE   W03
 BYTE   EOT
 BYTE   W01
// 008   ----------------------------------------
 BYTE   W96
// 009   ----------------------------------------
 BYTE   W96
// 010   ----------------------------------------
Label_7_01001EA1:
 BYTE   VOICE   60
 BYTE   PAN   c_v+0
 BYTE   VOL   65*PokemonDPPtBattleCyrusGratedShtick_mvl/mxv
 BYTE   N92  Gn3  v112
 BYTE   W96
// 011   ----------------------------------------
Label_7_01001EAB:
 BYTE   N80  Cn4  v112
 BYTE   W84
 BYTE   N11  Gn4
 BYTE   W12
 BYTE   PEND 
// 012   ----------------------------------------
Label_7_01001EB3:
 BYTE   N15  Fn4  v112
 BYTE   W16
 BYTE   TIE  En4
 BYTE   W80
 BYTE   PEND 
// 013   ----------------------------------------
 BYTE   W92
 BYTE   W03
 BYTE   EOT
 BYTE   W01
// 014   ----------------------------------------
 BYTE   N92  As3
 BYTE   W96
// 015   ----------------------------------------
Label_7_01001EC2:
 BYTE   N78  As4  v112
 BYTE   W80
 BYTE   N15  Gs4
 BYTE   W16
 BYTE   PEND 
// 016   ----------------------------------------
 BYTE   Gn4
 BYTE   W16
 BYTE   TIE  En4
 BYTE   W80
// 017   ----------------------------------------
 BYTE   W92
 BYTE   W03
 BYTE   EOT
 BYTE   W01
// 018   ----------------------------------------
 BYTE   VOICE   48
 BYTE   PAN   c_v+0
 BYTE   N15  Fn4
 BYTE   W16
 BYTE   Dn4
 BYTE   W16
 BYTE   As3
 BYTE   W16
 BYTE   N02  An4
 BYTE   W03
 BYTE   TIE  As4
 BYTE   W44
 BYTE   W01
// 019   ----------------------------------------
 BYTE   W78
 BYTE   W01
 BYTE   EOT
 BYTE   W01
 BYTE   N15  Gs4
 BYTE   W16
// 020   ----------------------------------------
 BYTE   Gn4
 BYTE   W16
 BYTE   N78  En4
 BYTE   W80
// 021   ----------------------------------------
 BYTE   N15  Dn4
 BYTE   W16
 BYTE   N78  En4
 BYTE   W80
// 022   ----------------------------------------
 BYTE   N15  Fn4
 BYTE   W16
 BYTE   Dn4
 BYTE   W16
 BYTE   As3
 BYTE   W16
 BYTE   N78  As4
 BYTE   W48
// 023   ----------------------------------------
 BYTE   W32
 BYTE   N15  Gs4
 BYTE   W16
 BYTE   As4
 BYTE   W16
 BYTE   Gs4
 BYTE   W16
 BYTE   Bn4
 BYTE   W16
// 024   ----------------------------------------
 BYTE   Cn5
 BYTE   W16
 BYTE   Dn5
 BYTE   W16
 BYTE   Cn5
 BYTE   W16
 BYTE   Dn5
 BYTE   W16
 BYTE   Cn5
 BYTE   W16
 BYTE   Dn5
 BYTE   W16
// 025   ----------------------------------------
 BYTE   N92  En5
 BYTE   W96
// 026   ----------------------------------------
 BYTE   VOICE   60
 BYTE   N92  Gn3
 BYTE   W96
 BYTE   PATT
  POIN2 Label_7_01001EAB
 BYTE   PATT
  POIN2 Label_7_01001EB3
// 027   ----------------------------------------
 BYTE   W92
 BYTE   W03
 BYTE   EOT
 BYTE   En4
 BYTE   W01
// 028   ----------------------------------------
 BYTE   N92  As3  v112
 BYTE   W96
 BYTE   PATT
  POIN2 Label_7_01001EC2
// 029   ----------------------------------------
 BYTE   N15  Gn4  v112
 BYTE   W16
 BYTE   N60  En4
 BYTE   W64
 BYTE   N07  As4
 BYTE   W08
 BYTE   Bn4
 BYTE   W08
// 030   ----------------------------------------
 BYTE   N92  Cn5
 BYTE   W96
// 031   ----------------------------------------
 BYTE   VOICE   48
 BYTE   VOL   60*PokemonDPPtBattleCyrusGratedShtick_mvl/mxv
 BYTE   N15  Cn4
 BYTE   W16
 BYTE   Cs4
 BYTE   W16
 BYTE   Fn4
 BYTE   W16
 BYTE   En4
 BYTE   W16
 BYTE   Fn4
 BYTE   W16
 BYTE   En4
 BYTE   W16
// 032   ----------------------------------------
 BYTE   Gn4
 BYTE   W16
 BYTE   Fn4
 BYTE   W16
 BYTE   Gn4
 BYTE   W16
 BYTE   Gs4
 BYTE   W16
 BYTE   As4
 BYTE   W16
 BYTE   Gs4
 BYTE   W16
// 033   ----------------------------------------
 BYTE   As4
 BYTE   W16
 BYTE   Cn5
 BYTE   W16
 BYTE   As4
 BYTE   W16
 BYTE   Gs4
 BYTE   W16
 BYTE   As4
 BYTE   W16
 BYTE   Gs4
 BYTE   W16
// 034   ----------------------------------------
 BYTE   N92  Gn4
 BYTE   W96
// 035   ----------------------------------------
 BYTE   N15  Cn5
 BYTE   W16
 BYTE   Cs5
 BYTE   W16
 BYTE   Fn5
 BYTE   W16
 BYTE   En5
 BYTE   W16
 BYTE   Fn5
 BYTE   W16
 BYTE   En5
 BYTE   W16
// 036   ----------------------------------------
 BYTE   Gn5
 BYTE   W16
 BYTE   Fn5
 BYTE   W16
 BYTE   Gn5
 BYTE   W16
 BYTE   Gs5
 BYTE   W16
 BYTE   As5
 BYTE   W16
 BYTE   Gs5
 BYTE   W16
// 037   ----------------------------------------
 BYTE   As5
 BYTE   W16
 BYTE   Cn6
 BYTE   W16
 BYTE   As5
 BYTE   W16
 BYTE   Cs6
 BYTE   W16
 BYTE   Ds6
 BYTE   W16
 BYTE   Cs6
 BYTE   W16
// 038   ----------------------------------------
 BYTE   N92  Cn6
 BYTE   W48
 BYTE   BEND   c_v-2
 BYTE   W02
 BYTE   Bn2
 BYTE   W03
 BYTE   Gs2
 BYTE   W03
 BYTE   Fn2
 BYTE   W03
 BYTE   Dn2
 BYTE   W03
 BYTE   Cn2
 BYTE   W03
 BYTE   An1
 BYTE   W03
 BYTE   Fn1
 BYTE   W03
 BYTE   En1
 BYTE   W03
 BYTE   Bn0
 BYTE   W03
 BYTE   As0
 BYTE   W03
 BYTE   Gs0
 BYTE   W03
 BYTE   Fn0
 BYTE   W03
 BYTE   Dn0
 BYTE   W03
 BYTE   Cn0
 BYTE   W03
 BYTE   GnM1
 BYTE   W04
// 039   ----------------------------------------
 BYTE   VOICE   81
 BYTE   VOL   65*PokemonDPPtBattleCyrusGratedShtick_mvl/mxv
 BYTE   PAN   c_v-32
 BYTE   BEND   c_v+0
 BYTE   N44  Ds3
 BYTE   W48
 BYTE   VOICE   47
 BYTE   PAN   c_v+51
 BYTE   N44  Cn2  v127
 BYTE   W48
// 040   ----------------------------------------
 BYTE   VOICE   81
 BYTE   W48
 BYTE   Bn1
 BYTE   PAN   c_v+51
 BYTE   N44
 BYTE   W48
// 041   ----------------------------------------
 BYTE   VOICE   81
 BYTE   PAN   c_v-32
 BYTE   N44  Ds3  v112
 BYTE   W48
 BYTE   VOICE   47
 BYTE   PAN   c_v+51
 BYTE   N44  Gn1  v127
 BYTE   W48
// 042   ----------------------------------------
 BYTE   N44
 BYTE   W48
 BYTE   N23
 BYTE   W24
 BYTE   N23
 BYTE   W24
// 043   ----------------------------------------
 BYTE   VOICE   81
 BYTE   PAN   c_v-32
 BYTE   N44  Ds3  v112
 BYTE   W48
 BYTE   VOICE   47
 BYTE   PAN   c_v+51
 BYTE   N23  Gn1  v127
 BYTE   W24
 BYTE   N07  An1
 BYTE   W08
 BYTE   N15  Gn1
 BYTE   W16
// 044   ----------------------------------------
 BYTE   N23
 BYTE   W24
 BYTE   N07  An1
 BYTE   W08
 BYTE   N15  Gn1
 BYTE   W16
 BYTE   N15
 BYTE   W16
 BYTE   N07  An1
 BYTE   W08
 BYTE   N23  Gn1
 BYTE   W24
// 045   ----------------------------------------
 BYTE   N44
 BYTE   W48
 BYTE   N15
 BYTE   W16
 BYTE   N07  An1
 BYTE   W08
 BYTE   N23  Gn1
 BYTE   W24
// 046   ----------------------------------------
 BYTE   N23
 BYTE   W24
 BYTE   N07  An1
 BYTE   W08
 BYTE   N15  Gn1
 BYTE   W16
 BYTE   N15
 BYTE   W16
 BYTE   N07  An1
 BYTE   W08
 BYTE   N15  Gn1
 BYTE   W16
 BYTE   N07  An1
 BYTE   W08
// 047   ----------------------------------------
 BYTE   VOICE   56
 BYTE   PAN   c_v+2
 BYTE   VOL   65*PokemonDPPtBattleCyrusGratedShtick_mvl/mxv
 BYTE   TIE  Fn4  v112
 BYTE   W96
// 048   ----------------------------------------
 BYTE   W68
 BYTE   W03
 BYTE   EOT
 BYTE   W01
 BYTE   N23  Cn5
 BYTE   W24
// 049   ----------------------------------------
Label_7_01002040:
 BYTE   N15  Bn4  v112
 BYTE   W16
 BYTE   N78  Gn4
 BYTE   W80
 BYTE   PEND 
// 050   ----------------------------------------
Label_7_01002048:
 BYTE   N15  Gs4  v112
 BYTE   W16
 BYTE   N78  Fn4
 BYTE   W80
 BYTE   PEND 
// 051   ----------------------------------------
 BYTE   N92  En3
 BYTE   W96
// 052   ----------------------------------------
 BYTE   N84  Bn3
 BYTE   W88
 BYTE   N07  En4
 BYTE   W08
// 053   ----------------------------------------
 BYTE   N11  Fn4
 BYTE   W12
 BYTE   N15  Fn4  v040
 BYTE   W84
// 054   ----------------------------------------
 BYTE   W96
// 055   ----------------------------------------
 BYTE   TIE  Fn4  v112
 BYTE   W96
// 056   ----------------------------------------
 BYTE   W68
 BYTE   W03
 BYTE   EOT
 BYTE   W01
 BYTE   N23  Cn5
 BYTE   W24
 BYTE   PATT
  POIN2 Label_7_01002040
 BYTE   PATT
  POIN2 Label_7_01002048
// 057   ----------------------------------------
 BYTE   N92  Gs4  v112
 BYTE   W96
// 058   ----------------------------------------
 BYTE   Bn4
 BYTE   W96
// 059   ----------------------------------------
 BYTE   TIE  Cn5
 BYTE   W96
// 060   ----------------------------------------
 BYTE   W92
 BYTE   W03
 BYTE   EOT
 BYTE   W01
// 061   ----------------------------------------
 BYTE   W96
// 062   ----------------------------------------
 BYTE   W96
// 063   ----------------------------------------
 BYTE   W96
// 064   ----------------------------------------
 BYTE   W96
// 065   ----------------------------------------
 BYTE   W96
// 066   ----------------------------------------
 BYTE   W48
 BYTE   PAN   c_v-32
 BYTE   VOL   65*PokemonDPPtBattleCyrusGratedShtick_mvl/mxv
 BYTE   W24
 BYTE   VOICE   81
 BYTE   VOL   65*PokemonDPPtBattleCyrusGratedShtick_mvl/mxv
 BYTE   W08
 BYTE   N07  Cn3
 BYTE   W08
 BYTE   N07
 BYTE   W08
// 067   ----------------------------------------
 BYTE   VOICE   81
 BYTE   PAN   c_v-30
 BYTE   N72
 BYTE   W80
 BYTE   N07
 BYTE   W08
 BYTE   N07
 BYTE   W08
// 068   ----------------------------------------
 BYTE   PAN   c_v+34
 BYTE   N68  Cs3
 BYTE   W80
 BYTE   N07
 BYTE   W08
 BYTE   N07
 BYTE   W08
// 069   ----------------------------------------
 BYTE   PAN   c_v-32
 BYTE   N68  Dn3
 BYTE   W80
 BYTE   N07
 BYTE   W08
 BYTE   N07
 BYTE   W08
// 070   ----------------------------------------
 BYTE   PAN   c_v+30
 BYTE   N92  Gs3  v100
 BYTE   W96
// 071   ----------------------------------------
 BYTE   VOICE   116
 BYTE   PAN   c_v-34
 BYTE   VOL   61*PokemonDPPtBattleCyrusGratedShtick_mvl/mxv
 BYTE   BEND   c_v+56
 BYTE   N92  Cn2  v112
 BYTE   W02
 BYTE   BEND   c_v+61
 BYTE   W03
 BYTE   Ds8
 BYTE   W03
 BYTE   VOL   61*PokemonDPPtBattleCyrusGratedShtick_mvl/mxv
 BYTE   W03
 BYTE   As2
 BYTE   BEND   c_v+54
 BYTE   W03
 BYTE   VOL   56*PokemonDPPtBattleCyrusGratedShtick_mvl/mxv
 BYTE   BEND   c_v+49
 BYTE   W03
 BYTE   VOL   55*PokemonDPPtBattleCyrusGratedShtick_mvl/mxv
 BYTE   W03
 BYTE   Fn2
 BYTE   BEND   c_v+44
 BYTE   W03
 BYTE   VOL   52*PokemonDPPtBattleCyrusGratedShtick_mvl/mxv
 BYTE   BEND   c_v+39
 BYTE   W01
 BYTE   PAN   c_v-38
 BYTE   W02
 BYTE   En0
 BYTE   VOL   50*PokemonDPPtBattleCyrusGratedShtick_mvl/mxv
 BYTE   BEND   c_v+36
 BYTE   W03
 BYTE   VOL   49*PokemonDPPtBattleCyrusGratedShtick_mvl/mxv
 BYTE   BEND   c_v+29
 BYTE   W03
 BYTE   PAN   c_v-32
 BYTE   VOL   47*PokemonDPPtBattleCyrusGratedShtick_mvl/mxv
 BYTE   BEND   c_v+24
 BYTE   W03
 BYTE   PAN   c_v-30
 BYTE   VOL   45*PokemonDPPtBattleCyrusGratedShtick_mvl/mxv
 BYTE   BEND   c_v+17
 BYTE   W03
 BYTE   PAN   c_v-24
 BYTE   VOL   43*PokemonDPPtBattleCyrusGratedShtick_mvl/mxv
 BYTE   BEND   c_v+12
 BYTE   W03
 BYTE   PAN   c_v-23
 BYTE   VOL   40*PokemonDPPtBattleCyrusGratedShtick_mvl/mxv
 BYTE   BEND   c_v+7
 BYTE   W03
 BYTE   PAN   c_v-21
 BYTE   VOL   39*PokemonDPPtBattleCyrusGratedShtick_mvl/mxv
 BYTE   BEND   c_v+4
 BYTE   W03
 BYTE   PAN   c_v-17
 BYTE   VOL   36*PokemonDPPtBattleCyrusGratedShtick_mvl/mxv
 BYTE   BEND   c_v+2
 BYTE   W03
 BYTE   PAN   c_v-14
 BYTE   VOL   35*PokemonDPPtBattleCyrusGratedShtick_mvl/mxv
 BYTE   BEND   c_v-3
 BYTE   W03
 BYTE   PAN   c_v-12
 BYTE   VOL   33*PokemonDPPtBattleCyrusGratedShtick_mvl/mxv
 BYTE   BEND   c_v-7
 BYTE   W03
 BYTE   PAN   c_v-4
 BYTE   VOL   32*PokemonDPPtBattleCyrusGratedShtick_mvl/mxv
 BYTE   BEND   c_v-12
 BYTE   W01
 BYTE   PAN   c_v+0
 BYTE   W02
 BYTE   As3
 BYTE   BEND   c_v-16
 BYTE   W03
 BYTE   VOL   30*PokemonDPPtBattleCyrusGratedShtick_mvl/mxv
 BYTE   PAN   c_v+13
 BYTE   BEND   c_v-23
 BYTE   W03
 BYTE   PAN   c_v+18
 BYTE   W03
 BYTE   Gs5
 BYTE   BEND   c_v-26
 BYTE   W03
 BYTE   PAN   c_v+38
 BYTE   BEND   c_v-30
 BYTE   W03
 BYTE   PAN   c_v+47
 BYTE   BEND   c_v-35
 BYTE   W01
 BYTE   PAN   c_v+45
 BYTE   W02
 BYTE   An7
 BYTE   BEND   c_v-39
 BYTE   W03
 BYTE   PAN   c_v+62
 BYTE   BEND   c_v-46
 BYTE   W03
 BYTE   PAN   c_v+63
 BYTE   BEND   c_v-51
 BYTE   W01
 BYTE   EnM1
 BYTE   W05
 BYTE   CsM1
 BYTE   W06
 BYTE   VOL   32*PokemonDPPtBattleCyrusGratedShtick_mvl/mxv
 BYTE   BEND   c_v-48
 BYTE   W01
// 072   ----------------------------------------
 BYTE   PAN   c_v+63
 BYTE   BEND   c_v-58
 BYTE   N23  Cs1
 BYTE   W03
 BYTE   BEND   c_v-53
 BYTE   W04
 BYTE   CsM1
 BYTE   W01
 BYTE   VOL   32*PokemonDPPtBattleCyrusGratedShtick_mvl/mxv
 BYTE   W03
 BYTE   Bn0
 BYTE   BEND   c_v-46
 BYTE   W03
 BYTE   VOL   36*PokemonDPPtBattleCyrusGratedShtick_mvl/mxv
 BYTE   W01
 BYTE   BEND   c_v-44
 BYTE   W01
 BYTE   PAN   c_v-62
 BYTE   W03
 BYTE   BEND   c_v-39
 BYTE   W01
 BYTE   VOL   36*PokemonDPPtBattleCyrusGratedShtick_mvl/mxv
 BYTE   W03
 BYTE   Ds1
 BYTE   BEND   c_v-32
 BYTE   W01
 BYTE   PAN   c_v-46
 BYTE   N07
 BYTE   W02
 BYTE   VOL   40*PokemonDPPtBattleCyrusGratedShtick_mvl/mxv
 BYTE   W01
 BYTE   BEND   c_v-26
 BYTE   W04
 BYTE   Cn2
 BYTE   W01
 BYTE   VOL   41*PokemonDPPtBattleCyrusGratedShtick_mvl/mxv
 BYTE   N03
 BYTE   W03
 BYTE   VOL   43*PokemonDPPtBattleCyrusGratedShtick_mvl/mxv
 BYTE   BEND   c_v-12
 BYTE   W03
 BYTE   VOL   45*PokemonDPPtBattleCyrusGratedShtick_mvl/mxv
 BYTE   W01
 BYTE   BEND   c_v-5
 BYTE   W01
 BYTE   PAN   c_v+36
 BYTE   N07
 BYTE   W03
 BYTE   BEND   c_v-3
 BYTE   W01
 BYTE   VOL   47*PokemonDPPtBattleCyrusGratedShtick_mvl/mxv
 BYTE   W03
 BYTE   Cn2
 BYTE   BEND   c_v+4
 BYTE   W01
 BYTE   PAN   c_v-46
 BYTE   N03
 BYTE   W02
 BYTE   VOL   49*PokemonDPPtBattleCyrusGratedShtick_mvl/mxv
 BYTE   W01
 BYTE   BEND   c_v+7
 BYTE   W04
 BYTE   Cs4
 BYTE   W01
 BYTE   PAN   c_v+15
 BYTE   VOL   52*PokemonDPPtBattleCyrusGratedShtick_mvl/mxv
 BYTE   N03
 BYTE   W03
 BYTE   VOL   53*PokemonDPPtBattleCyrusGratedShtick_mvl/mxv
 BYTE   BEND   c_v+17
 BYTE   W03
 BYTE   VOL   55*PokemonDPPtBattleCyrusGratedShtick_mvl/mxv
 BYTE   W01
 BYTE   BEND   c_v+22
 BYTE   W01
 BYTE   N07
 BYTE   W01
 BYTE   VOL   56*PokemonDPPtBattleCyrusGratedShtick_mvl/mxv
 BYTE   W02
 BYTE   BEND   c_v+27
 BYTE   W04
 BYTE   VOL   58*PokemonDPPtBattleCyrusGratedShtick_mvl/mxv
 BYTE   BEND   c_v+32
 BYTE   W01
 BYTE   N03
 BYTE   W02
 BYTE   VOL   61*PokemonDPPtBattleCyrusGratedShtick_mvl/mxv
 BYTE   W01
 BYTE   BEND   c_v+39
 BYTE   W01
 BYTE   N03
 BYTE   W03
 BYTE   BEND   c_v+46
 BYTE   W01
 BYTE   VOL   63*PokemonDPPtBattleCyrusGratedShtick_mvl/mxv
 BYTE   N03
 BYTE   W03
 BYTE   VOL   65*PokemonDPPtBattleCyrusGratedShtick_mvl/mxv
 BYTE   BEND   c_v+51
 BYTE   W01
 BYTE   N03
 BYTE   W03
 BYTE   BEND   c_v+56
 BYTE   W01
 BYTE   N03
 BYTE   W03
 BYTE   BEND   c_v+63
 BYTE   W01
 BYTE   N03
 BYTE   W04
// 073   ----------------------------------------
 BYTE   VOICE   56
 BYTE   VOL   65*PokemonDPPtBattleCyrusGratedShtick_mvl/mxv
 BYTE   PAN   c_v+2
 BYTE   BEND   c_v+0
 BYTE   N92  Cs4
 BYTE   W96
// 074   ----------------------------------------
 BYTE   N80  Fs4
 BYTE   W84
 BYTE   N11  Cs5
 BYTE   W12
// 075   ----------------------------------------
 BYTE   N15  Bn4
 BYTE   W16
 BYTE   TIE  As4
 BYTE   W80
// 076   ----------------------------------------
 BYTE   W92
 BYTE   W03
 BYTE   EOT
 BYTE   W01
// 077   ----------------------------------------
 BYTE   N92  En4
 BYTE   W96
// 078   ----------------------------------------
 BYTE   N78  En5
 BYTE   W80
 BYTE   N15  Dn5
 BYTE   W16
// 079   ----------------------------------------
 BYTE   Cs5
 BYTE   W16
 BYTE   TIE  As4
 BYTE   W80
// 080   ----------------------------------------
 BYTE   W92
 BYTE   W03
 BYTE   EOT
 BYTE   W01
// 081   ----------------------------------------
 BYTE   N15  Bn4
 BYTE   W16
 BYTE   Gs4
 BYTE   W16
 BYTE   En4
 BYTE   W16
 BYTE   TIE  En5
 BYTE   W48
// 082   ----------------------------------------
 BYTE   W78
 BYTE   W01
 BYTE   EOT
 BYTE   W01
 BYTE   N15  Dn5
 BYTE   W16
// 083   ----------------------------------------
 BYTE   Cs5
 BYTE   W16
 BYTE   N78  As4
 BYTE   W80
// 084   ----------------------------------------
 BYTE   N15  Gs4
 BYTE   W16
 BYTE   N78  As4
 BYTE   W80
// 085   ----------------------------------------
 BYTE   N15  Bn4
 BYTE   W16
 BYTE   Gs4
 BYTE   W16
 BYTE   En4
 BYTE   W16
 BYTE   N78  En5
 BYTE   W48
// 086   ----------------------------------------
 BYTE   W32
 BYTE   N15  Dn5
 BYTE   W16
 BYTE   En5
 BYTE   W16
 BYTE   Dn5
 BYTE   W16
 BYTE   Fn5
 BYTE   W16
// 087   ----------------------------------------
 BYTE   Fs5
 BYTE   W16
 BYTE   Gs5
 BYTE   W16
 BYTE   Fs5
 BYTE   W16
 BYTE   Gs5
 BYTE   W16
 BYTE   Fs5
 BYTE   W16
 BYTE   Gs5
 BYTE   W16
// 088   ----------------------------------------
 BYTE   N92  As5
 BYTE   W92
 BYTE   W03
 BYTE   GoTo
  POIN2 Label_7_01001EA1
 BYTE   FINE

//**************** Track 9 (Midi-Chn.8) ****************//

PokemonDPPtBattleCyrusGratedShtick_009:
// 000   ----------------------------------------
 BYTE   KEYSH   PokemonDPPtBattleCyrusGratedShtick_key+0
 BYTE   VOICE   118
 BYTE   PAN   c_v+0
 BYTE   VOL   56*PokemonDPPtBattleCyrusGratedShtick_mvl/mxv
 BYTE   MOD 0
 BYTE   CnM2
 BYTE   BEND   c_v+0
 BYTE   W96
// 001   ----------------------------------------
 BYTE   W96
// 002   ----------------------------------------
 BYTE   W96
// 003   ----------------------------------------
 BYTE   W96
// 004   ----------------------------------------
 BYTE   VOL   65*PokemonDPPtBattleCyrusGratedShtick_mvl/mxv
 BYTE   W96
// 005   ----------------------------------------
 BYTE   W48
 BYTE   N15  En1  v112
 BYTE   W16
 BYTE   N07
 BYTE   W08
 BYTE   N07
 BYTE   W08
 BYTE   N07
 BYTE   W08
 BYTE   N07
 BYTE   W08
// 006   ----------------------------------------
Label_8_01002298:
 BYTE   N15  Bn0  v127
 BYTE   W16
 BYTE   N07
 BYTE   W08
 BYTE   N15  En1  v112
 BYTE   W16
 BYTE   N07  Bn0  v127
 BYTE   W08
 BYTE   N15
 BYTE   W16
 BYTE   N07
 BYTE   W08
 BYTE   N15  En1  v112
 BYTE   W16
 BYTE   N07  Bn0  v127
 BYTE   W08
 BYTE   PEND 
 BYTE   PATT
  POIN2 Label_8_01002298
 BYTE   PATT
  POIN2 Label_8_01002298
// 007   ----------------------------------------
Label_8_010022BD:
 BYTE   N15  Bn0  v127
 BYTE   W16
 BYTE   N07
 BYTE   W08
 BYTE   N15  En1  v112
 BYTE   W16
 BYTE   N07  Bn0  v127
 BYTE   W08
 BYTE   N15
 BYTE   W16
 BYTE   N07
 BYTE   W08
 BYTE   N15  En1  v112
 BYTE   W16
 BYTE   N07
 BYTE   W08
 BYTE   PEND 
// 008   ----------------------------------------
Label_8_010022D6:
 BYTE   PATT
  POIN2 Label_8_01002298
 BYTE   PATT
  POIN2 Label_8_01002298
 BYTE   PATT
  POIN2 Label_8_01002298
 BYTE   PATT
  POIN2 Label_8_01002298
 BYTE   PATT
  POIN2 Label_8_01002298
 BYTE   PATT
  POIN2 Label_8_01002298
 BYTE   PATT
  POIN2 Label_8_01002298
 BYTE   PATT
  POIN2 Label_8_010022BD
 BYTE   PATT
  POIN2 Label_8_01002298
 BYTE   PATT
  POIN2 Label_8_01002298
 BYTE   PATT
  POIN2 Label_8_01002298
 BYTE   PATT
  POIN2 Label_8_01002298
 BYTE   PATT
  POIN2 Label_8_01002298
 BYTE   PATT
  POIN2 Label_8_01002298
 BYTE   PATT
  POIN2 Label_8_01002298
// 009   ----------------------------------------
 BYTE   N15  En1  v112
 BYTE   W16
 BYTE   N07  Bn0  v127
 BYTE   W08
 BYTE   N15  En1  v112
 BYTE   W16
 BYTE   N07  Bn0  v127
 BYTE   W08
 BYTE   N15
 BYTE   W16
 BYTE   N07
 BYTE   W08
 BYTE   N15  En1  v112
 BYTE   W16
 BYTE   N07
 BYTE   W08
 BYTE   PATT
  POIN2 Label_8_01002298
 BYTE   PATT
  POIN2 Label_8_01002298
 BYTE   PATT
  POIN2 Label_8_01002298
 BYTE   PATT
  POIN2 Label_8_01002298
 BYTE   PATT
  POIN2 Label_8_01002298
 BYTE   PATT
  POIN2 Label_8_01002298
 BYTE   PATT
  POIN2 Label_8_01002298
 BYTE   PATT
  POIN2 Label_8_010022BD
 BYTE   PATT
  POIN2 Label_8_01002298
 BYTE   PATT
  POIN2 Label_8_01002298
 BYTE   PATT
  POIN2 Label_8_01002298
 BYTE   PATT
  POIN2 Label_8_01002298
 BYTE   PATT
  POIN2 Label_8_01002298
 BYTE   PATT
  POIN2 Label_8_01002298
 BYTE   PATT
  POIN2 Label_8_01002298
// 010   ----------------------------------------
 BYTE   N15  Bn0  v127
 BYTE   W16
 BYTE   N07
 BYTE   W08
 BYTE   N15  En1  v112
 BYTE   W16
 BYTE   N07  Bn0  v127
 BYTE   W08
 BYTE   N15
 BYTE   W16
 BYTE   N07
 BYTE   W08
 BYTE   En1  v112
 BYTE   W08
 BYTE   N07
 BYTE   W08
 BYTE   N07
 BYTE   W08
 BYTE   PATT
  POIN2 Label_8_01002298
 BYTE   PATT
  POIN2 Label_8_01002298
 BYTE   PATT
  POIN2 Label_8_01002298
 BYTE   PATT
  POIN2 Label_8_01002298
 BYTE   PATT
  POIN2 Label_8_01002298
 BYTE   PATT
  POIN2 Label_8_01002298
 BYTE   PATT
  POIN2 Label_8_01002298
 BYTE   PATT
  POIN2 Label_8_01002298
 BYTE   PATT
  POIN2 Label_8_01002298
 BYTE   PATT
  POIN2 Label_8_01002298
 BYTE   PATT
  POIN2 Label_8_01002298
 BYTE   PATT
  POIN2 Label_8_01002298
 BYTE   PATT
  POIN2 Label_8_01002298
 BYTE   PATT
  POIN2 Label_8_01002298
 BYTE   PATT
  POIN2 Label_8_01002298
 BYTE   PATT
  POIN2 Label_8_010022BD
 BYTE   PATT
  POIN2 Label_8_01002298
 BYTE   PATT
  POIN2 Label_8_01002298
 BYTE   PATT
  POIN2 Label_8_01002298
 BYTE   PATT
  POIN2 Label_8_01002298
 BYTE   PATT
  POIN2 Label_8_01002298
 BYTE   PATT
  POIN2 Label_8_01002298
 BYTE   PATT
  POIN2 Label_8_01002298
 BYTE   PATT
  POIN2 Label_8_01002298
 BYTE   PATT
  POIN2 Label_8_01002298
 BYTE   PATT
  POIN2 Label_8_010022BD
// 011   ----------------------------------------
Label_8_01002421:
 BYTE   N15  Bn0  v127
 BYTE   W16
 BYTE   N15
 BYTE   W16
 BYTE   N07
 BYTE   W08
 BYTE   N07
 BYTE   W08
 BYTE   N15
 BYTE   W16
 BYTE   N15
 BYTE   W16
 BYTE   N07
 BYTE   W08
 BYTE   N07
 BYTE   W08
 BYTE   PEND 
 BYTE   PATT
  POIN2 Label_8_01002421
 BYTE   PATT
  POIN2 Label_8_01002421
 BYTE   PATT
  POIN2 Label_8_01002421
 BYTE   PATT
  POIN2 Label_8_01002421
 BYTE   PATT
  POIN2 Label_8_01002421
 BYTE   PATT
  POIN2 Label_8_01002421
 BYTE   PATT
  POIN2 Label_8_01002421
// 012   ----------------------------------------
 BYTE   N11  Bn0  v112
 BYTE   TIE  An2
 BYTE   TIE  As2
 BYTE   W96
// 013   ----------------------------------------
 BYTE   W44
 BYTE   W03
 BYTE   EOT
 BYTE   An2  v058
 BYTE   W01
 BYTE   N07  En1
 BYTE   W08
 BYTE   N07
 BYTE   W08
 BYTE   N07
 BYTE   W08
 BYTE   N07
 BYTE   W08
 BYTE   N07
 BYTE   W08
 BYTE   N07
 BYTE   W08
// 014   ----------------------------------------
 BYTE   N15  Bn0  v127
 BYTE   N44  An2  v112
 BYTE   W16
 BYTE   N07  Bn0  v127
 BYTE   W08
 BYTE   N15  En1  v112
 BYTE   W16
 BYTE   N07  Bn0  v127
 BYTE   W08
 BYTE   N15
 BYTE   W16
 BYTE   N07
 BYTE   W08
 BYTE   N15  En1  v112
 BYTE   W16
 BYTE   N07  Bn0  v127
 BYTE   W08
 BYTE   PATT
  POIN2 Label_8_01002298
 BYTE   PATT
  POIN2 Label_8_01002298
 BYTE   PATT
  POIN2 Label_8_010022BD
 BYTE   PATT
  POIN2 Label_8_01002298
 BYTE   PATT
  POIN2 Label_8_01002298
 BYTE   PATT
  POIN2 Label_8_01002298
// 015   ----------------------------------------
 BYTE   N15  Bn0  v127
 BYTE   W16
 BYTE   N07
 BYTE   W08
 BYTE   N15  En1  v112
 BYTE   W16
 BYTE   N07  Bn0  v127
 BYTE   W08
 BYTE   N23
 BYTE   W24
 BYTE   N07  En1  v112
 BYTE   W08
 BYTE   N07
 BYTE   W08
 BYTE   N07
 BYTE   W08
 BYTE   PATT
  POIN2 Label_8_01002298
 BYTE   PATT
  POIN2 Label_8_01002298
 BYTE   PATT
  POIN2 Label_8_01002298
 BYTE   PATT
  POIN2 Label_8_01002298
 BYTE   PATT
  POIN2 Label_8_01002298
 BYTE   PATT
  POIN2 Label_8_01002298
// 016   ----------------------------------------
 BYTE   N15  Bn0  v127
 BYTE   W16
 BYTE   N07
 BYTE   W08
 BYTE   N15  En1  v112
 BYTE   W16
 BYTE   N07  Bn0  v127
 BYTE   W08
 BYTE   N15  En1  v112
 BYTE   W16
 BYTE   N07  Bn0  v127
 BYTE   W08
 BYTE   N15  En1  v112
 BYTE   W16
 BYTE   N07  Bn0  v127
 BYTE   W08
// 017   ----------------------------------------
 BYTE   N15
 BYTE   W16
 BYTE   N07  En1  v112
 BYTE   W08
 BYTE   N15  Bn0  v127
 BYTE   W16
 BYTE   N07
 BYTE   W08
 BYTE   N15
 BYTE   W16
 BYTE   N07
 BYTE   W08
 BYTE   N15  En1  v112
 BYTE   W16
 BYTE   N07
 BYTE   W07
 BYTE   GoTo
  POIN2 Label_8_010022D6
 BYTE   FINE

//**************** Track 10 (Midi-Chn.9) ****************//

PokemonDPPtBattleCyrusGratedShtick_010:
// 000   ----------------------------------------
 BYTE   KEYSH   PokemonDPPtBattleCyrusGratedShtick_key+0
 BYTE   VOICE   47
 BYTE   PAN   c_v+0
 BYTE   VOL   56*PokemonDPPtBattleCyrusGratedShtick_mvl/mxv
 BYTE   MOD 0
 BYTE   CnM2
 BYTE   BEND   c_v+0
 BYTE   W96
// 001   ----------------------------------------
 BYTE   W96
// 002   ----------------------------------------
 BYTE   W96
// 003   ----------------------------------------
 BYTE   W96
// 004   ----------------------------------------
 BYTE   W96
// 005   ----------------------------------------
 BYTE   W96
// 006   ----------------------------------------
 BYTE   W96
// 007   ----------------------------------------
 BYTE   W96
// 008   ----------------------------------------
 BYTE   W96
// 009   ----------------------------------------
 BYTE   W96
// 010   ----------------------------------------
Label_9_01002536:
 BYTE   W96
// 011   ----------------------------------------
 BYTE   W96
// 012   ----------------------------------------
 BYTE   W96
// 013   ----------------------------------------
 BYTE   W96
// 014   ----------------------------------------
 BYTE   W96
// 015   ----------------------------------------
 BYTE   W96
// 016   ----------------------------------------
 BYTE   W96
// 017   ----------------------------------------
 BYTE   W96
// 018   ----------------------------------------
 BYTE   W96
// 019   ----------------------------------------
 BYTE   W96
// 020   ----------------------------------------
 BYTE   W96
// 021   ----------------------------------------
 BYTE   W96
// 022   ----------------------------------------
 BYTE   W96
// 023   ----------------------------------------
 BYTE   W96
// 024   ----------------------------------------
 BYTE   W96
// 025   ----------------------------------------
 BYTE   W96
// 026   ----------------------------------------
 BYTE   W96
// 027   ----------------------------------------
 BYTE   W96
// 028   ----------------------------------------
 BYTE   W96
// 029   ----------------------------------------
 BYTE   W96
// 030   ----------------------------------------
 BYTE   W96
// 031   ----------------------------------------
 BYTE   W96
// 032   ----------------------------------------
 BYTE   W96
// 033   ----------------------------------------
 BYTE   W96
// 034   ----------------------------------------
 BYTE   W96
// 035   ----------------------------------------
 BYTE   W96
// 036   ----------------------------------------
 BYTE   W96
// 037   ----------------------------------------
 BYTE   W96
// 038   ----------------------------------------
 BYTE   W96
// 039   ----------------------------------------
 BYTE   W96
// 040   ----------------------------------------
 BYTE   W96
// 041   ----------------------------------------
 BYTE   W96
// 042   ----------------------------------------
 BYTE   PAN   c_v-41
 BYTE   W48
 BYTE   N44  Gn1  v127
 BYTE   W48
// 043   ----------------------------------------
 BYTE   N23  An1
 BYTE   W24
 BYTE   N07  Fn2
 BYTE   W08
 BYTE   N15  Gn1
 BYTE   W16
 BYTE   N44  An1
 BYTE   W48
// 044   ----------------------------------------
Label_9_01002569:
 BYTE   W48
 BYTE   N15  Cn2  v127
 BYTE   W16
 BYTE   N07  Fn2
 BYTE   W08
 BYTE   N23  Cn2
 BYTE   W24
 BYTE   PEND 
// 045   ----------------------------------------
Label_9_01002575:
 BYTE   N07  Fn2  v127
 BYTE   W08
 BYTE   N15  Cn2
 BYTE   W16
 BYTE   N15
 BYTE   W16
 BYTE   N07  Fn2
 BYTE   W08
 BYTE   N23  Cn2
 BYTE   W24
 BYTE   N23
 BYTE   W24
 BYTE   PEND 
 BYTE   PATT
  POIN2 Label_9_01002569
// 046   ----------------------------------------
 BYTE   N15  Cn2  v127
 BYTE   W16
 BYTE   N07  Fn2
 BYTE   W08
 BYTE   N15  Cn2
 BYTE   W16
 BYTE   N07  Fn2
 BYTE   W08
 BYTE   N15  Cn2
 BYTE   W16
 BYTE   N07  Fn2
 BYTE   W08
 BYTE   N23  Cn2
 BYTE   W24
 BYTE   PATT
  POIN2 Label_9_01002575
// 047   ----------------------------------------
 BYTE   N15  Cn2  v127
 BYTE   W16
 BYTE   N07  Fn2
 BYTE   W08
 BYTE   N15  Cn2
 BYTE   W16
 BYTE   N07  Fn2
 BYTE   W08
 BYTE   N15  Cn2
 BYTE   W16
 BYTE   N07  Fn2
 BYTE   W08
 BYTE   N07
 BYTE   W08
 BYTE   N15  Cn2
 BYTE   W16
// 048   ----------------------------------------
 BYTE   W96
// 049   ----------------------------------------
 BYTE   W96
// 050   ----------------------------------------
 BYTE   W96
// 051   ----------------------------------------
 BYTE   W96
// 052   ----------------------------------------
 BYTE   W96
// 053   ----------------------------------------
 BYTE   W96
// 054   ----------------------------------------
 BYTE   W96
// 055   ----------------------------------------
 BYTE   W96
// 056   ----------------------------------------
 BYTE   W96
// 057   ----------------------------------------
 BYTE   W96
// 058   ----------------------------------------
 BYTE   W96
// 059   ----------------------------------------
 BYTE   W96
// 060   ----------------------------------------
 BYTE   W96
// 061   ----------------------------------------
 BYTE   W96
// 062   ----------------------------------------
 BYTE   W96
// 063   ----------------------------------------
 BYTE   W96
// 064   ----------------------------------------
 BYTE   W96
// 065   ----------------------------------------
 BYTE   W96
// 066   ----------------------------------------
 BYTE   W96
// 067   ----------------------------------------
 BYTE   W96
// 068   ----------------------------------------
 BYTE   W96
// 069   ----------------------------------------
 BYTE   W96
// 070   ----------------------------------------
 BYTE   W96
// 071   ----------------------------------------
 BYTE   W96
// 072   ----------------------------------------
 BYTE   W96
// 073   ----------------------------------------
 BYTE   W96
// 074   ----------------------------------------
 BYTE   W96
// 075   ----------------------------------------
 BYTE   W96
// 076   ----------------------------------------
 BYTE   W96
// 077   ----------------------------------------
 BYTE   W96
// 078   ----------------------------------------
 BYTE   W96
// 079   ----------------------------------------
 BYTE   W96
// 080   ----------------------------------------
 BYTE   W96
// 081   ----------------------------------------
 BYTE   W96
// 082   ----------------------------------------
 BYTE   W96
// 083   ----------------------------------------
 BYTE   W96
// 084   ----------------------------------------
 BYTE   W96
// 085   ----------------------------------------
 BYTE   W96
// 086   ----------------------------------------
 BYTE   W96
// 087   ----------------------------------------
 BYTE   W96
// 088   ----------------------------------------
 BYTE   W96
// 089   ----------------------------------------
 BYTE   W96
// 090   ----------------------------------------
 BYTE   W96
// 091   ----------------------------------------
 BYTE   W92
 BYTE   W03
 BYTE   GoTo
  POIN2 Label_9_01002536
 BYTE   FINE

//******************************************************//
	ALIGN 4

PokemonDPPtBattleCyrusGratedShtick:
	BYTE	10	// NumTrks
	BYTE	0	// NumBlks
	BYTE	PokemonDPPtBattleCyrusGratedShtick_pri	// Priority
	BYTE	PokemonDPPtBattleCyrusGratedShtick_rev	// Reverb.
    
	POIN2	PokemonDPPtBattleCyrusGratedShtick_grp
    
	POIN2	PokemonDPPtBattleCyrusGratedShtick_001
	POIN2	PokemonDPPtBattleCyrusGratedShtick_002
	POIN2	PokemonDPPtBattleCyrusGratedShtick_003
	POIN2	PokemonDPPtBattleCyrusGratedShtick_004
	POIN2	PokemonDPPtBattleCyrusGratedShtick_005
	POIN2	PokemonDPPtBattleCyrusGratedShtick_006
	POIN2	PokemonDPPtBattleCyrusGratedShtick_007
	POIN2	PokemonDPPtBattleCyrusGratedShtick_008
	POIN2	PokemonDPPtBattleCyrusGratedShtick_009
	POIN2	PokemonDPPtBattleCyrusGratedShtick_010

	
