//Event file generated from Sappy .s format.
	#include "MPlayDef.event"

	#define	PokemonBWRoute10Sme_grp  voicegroup000
	#define	PokemonBWRoute10Sme_pri  0
	#define	PokemonBWRoute10Sme_rev  0
	#define	PokemonBWRoute10Sme_mvl  85
	#define	PokemonBWRoute10Sme_key  0
	#define	PokemonBWRoute10Sme_tbs  1
	#define	PokemonBWRoute10Sme_exg  0
	#define	PokemonBWRoute10Sme_cmp  1

	// .rodata
	//	PokemonBWRoute10Sme
	ALIGN 4

//**************** Track 1 (Midi-Chn.1) ****************//

PokemonBWRoute10Sme_1:
	BYTE	KEYSH   PokemonBWRoute10Sme_key+0
// 000   ----------------------------------------
	BYTE		VOICE   29
	BYTE		PAN     c_v-9
	BYTE		VOL     56*PokemonBWRoute10Sme_mvl/mxv
	BYTE		BEND    c_v+0
	BYTE		N05     Gn2   v108
	BYTE		N05     Cn3   v116
	BYTE	W01
	BYTE		        Ds3   v120
	BYTE	W11
	BYTE		N01     Gn2   v060
	BYTE		N01     Cn3   v064
	BYTE	W01
	BYTE		        Ds3   v068
	BYTE	W05
	BYTE		        Gn2   v060
	BYTE		N01     Cn3   v064
	BYTE	W01
	BYTE		        Ds3   v068
	BYTE	W05
	BYTE		N02     Gn2   v100
	BYTE		N02     Cn3   v104
	BYTE	W01
	BYTE		        Ds3   v108
	BYTE	W11
	BYTE		N22     Gn2 
	BYTE		N22     Cn3   v112
	BYTE	W01
	BYTE		        Ds3   v116
	BYTE	W23
	BYTE		        Gn2   v100
	BYTE		N22     Cn3   v104
	BYTE	W01
	BYTE		        Ds3   v108
	BYTE	W23
	BYTE		N10     Gn2   v100
	BYTE		N10     Cn3   v104
	BYTE		N10     Ds3   v108
	BYTE	W12
// 001   ----------------------------------------
PokemonBWRoute10Sme_1_001:
	BYTE		N05     Fn2   v112
	BYTE		N05     As2   v116
	BYTE	W01
	BYTE		        Dn3   v124
	BYTE	W11
	BYTE		N01     Fn2   v060
	BYTE		N01     As2   v064
	BYTE	W01
	BYTE		        Dn3   v072
	BYTE	W05
	BYTE		        Fn2   v060
	BYTE		N01     As2   v064
	BYTE	W01
	BYTE		        Dn3   v072
	BYTE	W05
	BYTE		N02     Fn2   v100
	BYTE		N02     As2   v104
	BYTE	W01
	BYTE		        Dn3   v112
	BYTE	W11
	BYTE		N22     Fn2   v108
	BYTE		N22     As2   v112
	BYTE	W01
	BYTE		        Dn3   v120
	BYTE	W23
	BYTE		        Fn2   v100
	BYTE		N22     As2   v104
	BYTE	W01
	BYTE		        Dn3   v112
	BYTE	W23
	BYTE		N10     Fn2   v100
	BYTE		N10     As2   v104
	BYTE		N10     Dn3   v112
	BYTE	W12
	BYTE	PEND
// 002   ----------------------------------------
PokemonBWRoute10Sme_1_002:
	BYTE		N05     Gs2   v108
	BYTE		N05     Cn3   v116
	BYTE	W01
	BYTE		        Ds3   v120
	BYTE	W11
	BYTE		N01     Gs2   v060
	BYTE		N01     Cn3   v064
	BYTE	W01
	BYTE		        Ds3   v072
	BYTE	W05
	BYTE		        Gs2   v060
	BYTE		N01     Cn3   v064
	BYTE	W01
	BYTE		        Ds3   v072
	BYTE	W05
	BYTE		N02     Gs2   v100
	BYTE		N02     Cn3   v104
	BYTE	W01
	BYTE		        Ds3   v112
	BYTE	W11
	BYTE		N22     Gs2   v108
	BYTE		N22     Cn3   v112
	BYTE	W01
	BYTE		        Ds3   v120
	BYTE	W23
	BYTE		        Gs2   v100
	BYTE		N22     Cn3   v104
	BYTE	W01
	BYTE		        Ds3   v112
	BYTE	W23
	BYTE		N10     Gs2   v100
	BYTE		N10     Cn3   v104
	BYTE		N10     Ds3   v112
	BYTE	W12
	BYTE	PEND
// 003   ----------------------------------------
	BYTE		N05     As2 
	BYTE		N05     Dn3   v116
	BYTE	W01
	BYTE		        Fn3   v108
	BYTE	W11
	BYTE		N01     As2   v060
	BYTE		N01     Dn3   v064
	BYTE	W01
	BYTE		        Fn3   v056
	BYTE	W05
	BYTE		        As2   v060
	BYTE		N01     Dn3   v064
	BYTE	W01
	BYTE		        Fn3   v056
	BYTE	W05
	BYTE		N02     As2   v100
	BYTE		N02     Dn3   v104
	BYTE	W01
	BYTE		        Fn3   v096
	BYTE	W11
	BYTE		N22     As2   v108
	BYTE		N22     Dn3   v112
	BYTE	W01
	BYTE		        Fn3   v104
	BYTE	W23
	BYTE		        As2   v100
	BYTE		N22     Dn3   v104
	BYTE	W01
	BYTE		        Fn3   v096
	BYTE	W23
	BYTE		N10     As2   v100
	BYTE		N10     Dn3   v104
	BYTE		N10     Fn3   v096
	BYTE	W12
// 004   ----------------------------------------
	BYTE		N05     Gn2   v108
	BYTE		N05     Cn3   v116
	BYTE	W01
	BYTE		        Ds3   v120
	BYTE	W11
	BYTE		N01     Gn2   v060
	BYTE		N01     Cn3   v064
	BYTE	W01
	BYTE		        Ds3   v068
	BYTE	W05
	BYTE		        Gn2   v060
	BYTE		N01     Cn3   v064
	BYTE	W01
	BYTE		        Ds3   v068
	BYTE	W05
	BYTE		N02     Gn2   v100
	BYTE		N02     Cn3   v104
	BYTE	W01
	BYTE		        Ds3   v108
	BYTE	W11
	BYTE		N22     Gn2 
	BYTE		N22     Cn3   v112
	BYTE	W01
	BYTE		        Ds3   v116
	BYTE	W23
	BYTE		        Gn2   v100
	BYTE		N22     Cn3   v104
	BYTE	W01
	BYTE		        Ds3   v108
	BYTE	W23
	BYTE		N10     Gn2   v100
	BYTE		N10     Cn3   v104
	BYTE		N10     Ds3   v108
	BYTE	W12
// 005   ----------------------------------------
	BYTE	PATT
	 POIN2	PokemonBWRoute10Sme_1_001
// 006   ----------------------------------------
	BYTE	PATT
	 POIN2	PokemonBWRoute10Sme_1_002
// 007   ----------------------------------------
	BYTE		N05     As2   v112
	BYTE		N05     Dn3   v116
	BYTE	W01
	BYTE		        Gn3   v108
	BYTE	W11
	BYTE		N01     As2   v060
	BYTE		N01     Dn3   v064
	BYTE	W01
	BYTE		        Gn3   v056
	BYTE	W05
	BYTE		        As2   v060
	BYTE		N01     Dn3   v064
	BYTE	W01
	BYTE		        Gn3   v056
	BYTE	W05
	BYTE		N02     As2   v100
	BYTE		N02     Dn3   v104
	BYTE	W01
	BYTE		        Gn3   v096
	BYTE	W11
	BYTE		N22     As2   v108
	BYTE		N22     Dn3   v112
	BYTE	W01
	BYTE		        Gn3   v104
	BYTE	W23
	BYTE		        As2   v100
	BYTE		N22     Dn3   v104
	BYTE	W01
	BYTE		        Gn3   v096
	BYTE	W23
	BYTE		N10     As2   v100
	BYTE		N10     Dn3   v104
	BYTE		N10     Gn3   v096
	BYTE	W12
PokemonBWRoute10Sme_1_B1:
// 008   ----------------------------------------
PokemonBWRoute10Sme_1_008:
	BYTE		N05     Cn3   v108
	BYTE		N05     Ds3   v116
	BYTE	W01
	BYTE		        Gn3   v120
	BYTE	W11
	BYTE		N01     Cn3   v060
	BYTE		N01     Ds3   v064
	BYTE	W01
	BYTE		        Gn3   v072
	BYTE	W05
	BYTE		        Cn3   v060
	BYTE		N01     Ds3   v064
	BYTE	W01
	BYTE		        Gn3   v072
	BYTE	W05
	BYTE		N02     Cn3   v100
	BYTE		N02     Ds3   v104
	BYTE	W01
	BYTE		        Gn3   v112
	BYTE	W11
	BYTE		N22     Cn3   v108
	BYTE		N22     Ds3   v112
	BYTE	W01
	BYTE		        Gn3   v120
	BYTE	W23
	BYTE		        Cn3   v100
	BYTE		N22     Ds3   v104
	BYTE	W01
	BYTE		        Gn3   v112
	BYTE	W23
	BYTE		N10     Cn3   v100
	BYTE		N10     Ds3   v104
	BYTE		N10     Gn3   v112
	BYTE	W12
	BYTE	PEND
// 009   ----------------------------------------
PokemonBWRoute10Sme_1_009:
	BYTE		N05     As2   v112
	BYTE		N05     Dn3   v116
	BYTE	W01
	BYTE		        Gn3   v124
	BYTE	W11
	BYTE		N01     As2   v060
	BYTE		N01     Dn3   v064
	BYTE	W01
	BYTE		        Gn3   v072
	BYTE	W05
	BYTE		        As2   v060
	BYTE		N01     Dn3   v064
	BYTE	W01
	BYTE		        Gn3   v072
	BYTE	W05
	BYTE		N02     As2   v100
	BYTE		N02     Dn3   v104
	BYTE	W01
	BYTE		        Gn3   v112
	BYTE	W11
	BYTE		N22     As2   v108
	BYTE		N22     Dn3   v112
	BYTE	W01
	BYTE		        Gn3   v120
	BYTE	W23
	BYTE		        As2   v100
	BYTE		N22     Dn3   v104
	BYTE	W01
	BYTE		        Gn3   v112
	BYTE	W23
	BYTE		N10     As2   v100
	BYTE		N10     Dn3   v104
	BYTE		N10     Gn3   v112
	BYTE	W12
	BYTE	PEND
// 010   ----------------------------------------
	BYTE	PATT
	 POIN2	PokemonBWRoute10Sme_1_008
// 011   ----------------------------------------
PokemonBWRoute10Sme_1_011:
	BYTE		N05     As2   v112
	BYTE		N05     Ds3   v116
	BYTE	W01
	BYTE		        Fn3   v124
	BYTE	W11
	BYTE		N01     As2   v060
	BYTE		N01     Ds3   v064
	BYTE	W01
	BYTE		        Fn3   v072
	BYTE	W05
	BYTE		        As2   v060
	BYTE		N01     Ds3   v064
	BYTE	W01
	BYTE		        Fn3   v072
	BYTE	W05
	BYTE		N02     As2   v100
	BYTE		N02     Ds3   v104
	BYTE	W01
	BYTE		        Fn3   v112
	BYTE	W11
	BYTE		N22     As2   v108
	BYTE		N22     Ds3   v112
	BYTE	W01
	BYTE		        Fn3   v120
	BYTE	W23
	BYTE		        As2   v100
	BYTE		N22     Ds3   v104
	BYTE	W01
	BYTE		        Fn3   v112
	BYTE	W23
	BYTE		N10     As2   v100
	BYTE		N10     Ds3   v104
	BYTE		N10     Fn3   v112
	BYTE	W12
	BYTE	PEND
// 012   ----------------------------------------
PokemonBWRoute10Sme_1_012:
	BYTE		N05     Gs2   v108
	BYTE		N05     Cn3   v116
	BYTE	W01
	BYTE		        Fn3   v120
	BYTE	W11
	BYTE		N01     Gs2   v060
	BYTE		N01     Cn3   v064
	BYTE	W01
	BYTE		        Fn3   v072
	BYTE	W05
	BYTE		        Gs2   v060
	BYTE		N01     Cn3   v064
	BYTE	W01
	BYTE		        Fn3   v072
	BYTE	W05
	BYTE		N02     Gs2   v100
	BYTE		N02     Cn3   v104
	BYTE	W01
	BYTE		        Fn3   v112
	BYTE	W11
	BYTE		N22     Gs2   v108
	BYTE		N22     Cn3   v112
	BYTE	W01
	BYTE		        Fn3   v120
	BYTE	W23
	BYTE		        Gs2   v100
	BYTE		N22     Cn3   v104
	BYTE	W01
	BYTE		        Fn3   v112
	BYTE	W23
	BYTE		N10     Gs2   v100
	BYTE		N10     Cn3   v104
	BYTE		N10     Fn3   v112
	BYTE	W12
	BYTE	PEND
// 013   ----------------------------------------
PokemonBWRoute10Sme_1_013:
	BYTE		N05     Gn2   v112
	BYTE		N05     Cn3   v116
	BYTE	W01
	BYTE		        Ds3   v124
	BYTE	W11
	BYTE		N01     Gn2   v060
	BYTE		N01     Cn3   v064
	BYTE	W01
	BYTE		        Ds3   v072
	BYTE	W05
	BYTE		        Gn2   v060
	BYTE		N01     Cn3   v064
	BYTE	W01
	BYTE		        Ds3   v072
	BYTE	W05
	BYTE		N02     Gn2   v100
	BYTE		N02     Cn3   v104
	BYTE	W01
	BYTE		        Ds3   v112
	BYTE	W11
	BYTE		N22     Gn2   v108
	BYTE		N22     Cn3   v112
	BYTE	W01
	BYTE		        Ds3   v120
	BYTE	W23
	BYTE		        Gn2   v100
	BYTE		N22     Cn3   v104
	BYTE	W01
	BYTE		        Ds3   v112
	BYTE	W23
	BYTE		N10     Gn2   v100
	BYTE		N10     Cn3   v104
	BYTE		N10     Ds3   v112
	BYTE	W12
	BYTE	PEND
// 014   ----------------------------------------
PokemonBWRoute10Sme_1_014:
	BYTE		N05     An2   v112
	BYTE		N05     Cn3   v116
	BYTE	W01
	BYTE		        Fs3   v124
	BYTE	W11
	BYTE		N01     An2   v060
	BYTE		N01     Cn3   v064
	BYTE	W01
	BYTE		        Fs3   v072
	BYTE	W05
	BYTE		        An2   v060
	BYTE		N01     Cn3   v064
	BYTE	W01
	BYTE		        Fs3   v072
	BYTE	W05
	BYTE		N02     An2   v100
	BYTE		N02     Cn3   v104
	BYTE	W01
	BYTE		        Fs3   v112
	BYTE	W11
	BYTE		N22     An2   v108
	BYTE		N22     Cn3   v112
	BYTE	W01
	BYTE		        Fs3   v120
	BYTE	W23
	BYTE		        An2   v100
	BYTE		N22     Cn3   v104
	BYTE	W01
	BYTE		        Fs3   v112
	BYTE	W23
	BYTE		N10     An2   v100
	BYTE		N10     Cn3   v104
	BYTE		N10     Fs3   v112
	BYTE	W12
	BYTE	PEND
// 015   ----------------------------------------
PokemonBWRoute10Sme_1_015:
	BYTE		N05     Gn2   v112
	BYTE		N05     Cn3   v116
	BYTE	W01
	BYTE		        Dn3   v124
	BYTE	W11
	BYTE		N01     Gn2   v060
	BYTE		N01     Cn3   v064
	BYTE	W01
	BYTE		        Dn3   v072
	BYTE	W05
	BYTE		        Gn2   v060
	BYTE		N01     Cn3   v064
	BYTE	W01
	BYTE		        Dn3   v072
	BYTE	W05
	BYTE		N02     Gn2   v100
	BYTE		N02     Cn3   v104
	BYTE	W01
	BYTE		        Dn3   v112
	BYTE	W11
	BYTE		N22     Gn2   v108
	BYTE		N22     Bn2   v112
	BYTE	W01
	BYTE		        Dn3   v120
	BYTE	W23
	BYTE		        Gn2   v100
	BYTE		N22     Bn2   v104
	BYTE	W01
	BYTE		        Dn3   v112
	BYTE	W23
	BYTE		N10     Gn2   v100
	BYTE		N10     Bn2   v104
	BYTE		N10     Dn3   v112
	BYTE	W12
	BYTE	PEND
// 016   ----------------------------------------
	BYTE	PATT
	 POIN2	PokemonBWRoute10Sme_1_008
// 017   ----------------------------------------
	BYTE	PATT
	 POIN2	PokemonBWRoute10Sme_1_009
// 018   ----------------------------------------
	BYTE	PATT
	 POIN2	PokemonBWRoute10Sme_1_008
// 019   ----------------------------------------
	BYTE	PATT
	 POIN2	PokemonBWRoute10Sme_1_011
// 020   ----------------------------------------
	BYTE	PATT
	 POIN2	PokemonBWRoute10Sme_1_012
// 021   ----------------------------------------
	BYTE	PATT
	 POIN2	PokemonBWRoute10Sme_1_013
// 022   ----------------------------------------
	BYTE	PATT
	 POIN2	PokemonBWRoute10Sme_1_014
// 023   ----------------------------------------
	BYTE	PATT
	 POIN2	PokemonBWRoute10Sme_1_015
// 024   ----------------------------------------
	BYTE	PATT
	 POIN2	PokemonBWRoute10Sme_1_012
// 025   ----------------------------------------
PokemonBWRoute10Sme_1_025:
	BYTE		N05     Fn2   v108
	BYTE		N05     As2   v116
	BYTE	W01
	BYTE		        Dn3   v120
	BYTE	W11
	BYTE		N01     Fn2   v060
	BYTE		N01     As2   v064
	BYTE	W01
	BYTE		        Dn3   v072
	BYTE	W05
	BYTE		        Fn2   v060
	BYTE		N01     As2   v064
	BYTE	W01
	BYTE		        Dn3   v072
	BYTE	W05
	BYTE		N02     Fn2   v100
	BYTE		N02     As2   v104
	BYTE	W01
	BYTE		        Dn3   v112
	BYTE	W11
	BYTE		N22     Fn2   v108
	BYTE		N22     As2   v112
	BYTE	W01
	BYTE		        Dn3   v120
	BYTE	W23
	BYTE		        Fn2   v100
	BYTE		N22     As2   v104
	BYTE	W01
	BYTE		        Dn3   v112
	BYTE	W23
	BYTE		N10     Fn2   v100
	BYTE		N10     As2   v104
	BYTE		N10     Dn3   v112
	BYTE	W12
	BYTE	PEND
// 026   ----------------------------------------
PokemonBWRoute10Sme_1_026:
	BYTE		N05     Gn2   v108
	BYTE		N05     As2   v116
	BYTE	W01
	BYTE		        Ds3   v120
	BYTE	W11
	BYTE		N01     Gn2   v060
	BYTE		N01     As2   v064
	BYTE	W01
	BYTE		        Ds3   v072
	BYTE	W05
	BYTE		        Gn2   v060
	BYTE		N01     As2   v064
	BYTE	W01
	BYTE		        Ds3   v072
	BYTE	W05
	BYTE		N02     Gn2   v100
	BYTE		N02     As2   v104
	BYTE	W01
	BYTE		        Ds3   v112
	BYTE	W11
	BYTE		N22     Gn2   v108
	BYTE		N22     As2   v112
	BYTE	W01
	BYTE		        Ds3   v120
	BYTE	W23
	BYTE		        Gn2   v100
	BYTE		N22     As2   v104
	BYTE	W01
	BYTE		        Ds3   v112
	BYTE	W23
	BYTE		N10     Gn2   v100
	BYTE		N10     As2   v104
	BYTE		N10     Ds3   v112
	BYTE	W12
	BYTE	PEND
// 027   ----------------------------------------
PokemonBWRoute10Sme_1_027:
	BYTE		N05     Fn2   v108
	BYTE		N05     Cn3   v116
	BYTE	W01
	BYTE		        Fn3   v120
	BYTE	W11
	BYTE		N01     Fn2   v060
	BYTE		N01     Cn3   v064
	BYTE	W01
	BYTE		        Fn3   v072
	BYTE	W05
	BYTE		        Fn2   v060
	BYTE		N01     Cn3   v064
	BYTE	W01
	BYTE		        Fn3   v072
	BYTE	W05
	BYTE		N02     Fn2   v100
	BYTE		N02     Cn3   v104
	BYTE	W01
	BYTE		        Fn3   v112
	BYTE	W11
	BYTE		N22     Gs2   v108
	BYTE		N22     Cn3   v112
	BYTE	W01
	BYTE		        Ds3   v120
	BYTE	W23
	BYTE		        Gs2   v100
	BYTE		N22     Cn3   v104
	BYTE	W01
	BYTE		        Ds3   v112
	BYTE	W23
	BYTE		N10     Gs2   v100
	BYTE		N10     Cn3   v104
	BYTE		N10     Ds3   v112
	BYTE	W12
	BYTE	PEND
// 028   ----------------------------------------
	BYTE	PATT
	 POIN2	PokemonBWRoute10Sme_1_012
// 029   ----------------------------------------
	BYTE	PATT
	 POIN2	PokemonBWRoute10Sme_1_025
// 030   ----------------------------------------
	BYTE	PATT
	 POIN2	PokemonBWRoute10Sme_1_026
// 031   ----------------------------------------
PokemonBWRoute10Sme_1_031:
	BYTE		N05     Gn2   v108
	BYTE		N05     Cn3   v116
	BYTE	W01
	BYTE		        Dn3   v120
	BYTE	W11
	BYTE		N01     Gn2   v060
	BYTE		N01     Cn3   v064
	BYTE	W01
	BYTE		        Dn3   v072
	BYTE	W05
	BYTE		        Gn2   v060
	BYTE		N01     Cn3   v064
	BYTE	W01
	BYTE		        Dn3   v072
	BYTE	W05
	BYTE		N02     Gn2   v100
	BYTE		N02     Cn3   v104
	BYTE	W01
	BYTE		        Dn3   v112
	BYTE	W11
	BYTE		N22     Gn2   v108
	BYTE		N22     Cn3   v112
	BYTE	W01
	BYTE		        Dn3   v120
	BYTE	W23
	BYTE		        Gn2   v100
	BYTE		N22     Cn3   v104
	BYTE	W01
	BYTE		        Dn3   v112
	BYTE	W23
	BYTE		N10     Gn2   v100
	BYTE		N10     Bn2   v104
	BYTE		N10     Dn3   v112
	BYTE	W12
	BYTE	PEND
// 032   ----------------------------------------
	BYTE	PATT
	 POIN2	PokemonBWRoute10Sme_1_012
// 033   ----------------------------------------
	BYTE	PATT
	 POIN2	PokemonBWRoute10Sme_1_025
// 034   ----------------------------------------
	BYTE	PATT
	 POIN2	PokemonBWRoute10Sme_1_026
// 035   ----------------------------------------
	BYTE	PATT
	 POIN2	PokemonBWRoute10Sme_1_027
// 036   ----------------------------------------
	BYTE	PATT
	 POIN2	PokemonBWRoute10Sme_1_002
// 037   ----------------------------------------
PokemonBWRoute10Sme_1_037:
	BYTE		N05     As2   v108
	BYTE		N05     Dn3   v116
	BYTE	W01
	BYTE		        Fn3   v120
	BYTE	W11
	BYTE		N01     As2   v060
	BYTE		N01     Dn3   v064
	BYTE	W01
	BYTE		        Fn3   v072
	BYTE	W05
	BYTE		        As2   v060
	BYTE		N01     Dn3   v064
	BYTE	W01
	BYTE		        Fn3   v072
	BYTE	W05
	BYTE		N02     As2   v100
	BYTE		N02     Dn3   v104
	BYTE	W01
	BYTE		        Fn3   v112
	BYTE	W11
	BYTE		N22     As2   v108
	BYTE		N22     Dn3   v112
	BYTE	W01
	BYTE		        Fn3   v120
	BYTE	W23
	BYTE		        As2   v100
	BYTE		N22     Dn3   v104
	BYTE	W01
	BYTE		        Fn3   v112
	BYTE	W23
	BYTE		N10     As2   v100
	BYTE		N10     Dn3   v104
	BYTE		N10     Fn3   v112
	BYTE	W12
	BYTE	PEND
// 038   ----------------------------------------
	BYTE	PATT
	 POIN2	PokemonBWRoute10Sme_1_008
// 039   ----------------------------------------
PokemonBWRoute10Sme_1_039:
	BYTE		N05     Cn3   v108
	BYTE		N05     Dn3   v116
	BYTE	W01
	BYTE		        Gn3   v120
	BYTE	W11
	BYTE		N01     Cn3   v060
	BYTE		N01     Dn3   v064
	BYTE	W01
	BYTE		        Gn3   v072
	BYTE	W05
	BYTE		        Cn3   v060
	BYTE		N01     Dn3   v064
	BYTE	W01
	BYTE		        Gn3   v072
	BYTE	W05
	BYTE		N02     Cn3   v100
	BYTE		N02     Dn3   v104
	BYTE	W01
	BYTE		        Gn3   v112
	BYTE	W11
	BYTE		N22     Cn3   v108
	BYTE		N22     Dn3   v112
	BYTE	W01
	BYTE		        Gn3   v120
	BYTE	W23
	BYTE		        Cn3   v100
	BYTE		N22     Dn3   v104
	BYTE	W01
	BYTE		        Gn3   v112
	BYTE	W23
	BYTE		N10     Cn3   v100
	BYTE		N10     Dn3   v104
	BYTE		N10     Gn3   v112
	BYTE	W12
	BYTE	PEND
// 040   ----------------------------------------
PokemonBWRoute10Sme_1_040:
	BYTE		N05     Gn2   v108
	BYTE		N05     Cn3   v116
	BYTE	W01
	BYTE		        Ds3   v112
	BYTE	W11
	BYTE		N01     Gn2   v060
	BYTE		N01     Cn3   v064
	BYTE	W01
	BYTE		        Ds3 
	BYTE	W05
	BYTE		        Gn2   v060
	BYTE		N01     Cn3   v064
	BYTE	W01
	BYTE		        Ds3 
	BYTE	W05
	BYTE		N02     Gn2   v100
	BYTE		N02     Cn3   v104
	BYTE	W01
	BYTE		        Ds3 
	BYTE	W11
	BYTE		N22     Gn2   v108
	BYTE		N22     Cn3   v112
	BYTE	W01
	BYTE		        Ds3 
	BYTE	W23
	BYTE		        Gn2   v100
	BYTE		N22     Cn3   v104
	BYTE	W01
	BYTE		        Ds3 
	BYTE	W23
	BYTE		N10     Gn2   v100
	BYTE		N10     Cn3   v104
	BYTE		N10     Ds3 
	BYTE	W12
	BYTE	PEND
// 041   ----------------------------------------
PokemonBWRoute10Sme_1_041:
	BYTE		N05     Fn2   v112
	BYTE		N05     As2   v116
	BYTE	W01
	BYTE		        Dn3 
	BYTE	W11
	BYTE		N01     Fn2   v060
	BYTE		N01     As2   v064
	BYTE	W01
	BYTE		        Dn3 
	BYTE	W05
	BYTE		        Fn2   v060
	BYTE		N01     As2   v064
	BYTE	W01
	BYTE		        Dn3 
	BYTE	W05
	BYTE		N02     Fn2   v100
	BYTE		N02     As2   v104
	BYTE	W01
	BYTE		        Dn3 
	BYTE	W11
	BYTE		N22     Fn2   v108
	BYTE		N22     As2   v112
	BYTE	W01
	BYTE		        Dn3 
	BYTE	W23
	BYTE		        Fn2   v100
	BYTE		N22     As2   v104
	BYTE	W01
	BYTE		        Dn3 
	BYTE	W23
	BYTE		N10     Fn2   v100
	BYTE		N10     As2   v104
	BYTE		N10     Dn3 
	BYTE	W12
	BYTE	PEND
// 042   ----------------------------------------
PokemonBWRoute10Sme_1_042:
	BYTE		N05     Gs2   v108
	BYTE		N05     Cn3   v116
	BYTE	W01
	BYTE		        Ds3   v112
	BYTE	W11
	BYTE		N01     Gs2   v060
	BYTE		N01     Cn3   v064
	BYTE	W01
	BYTE		        Ds3 
	BYTE	W05
	BYTE		        Gs2   v060
	BYTE		N01     Cn3   v064
	BYTE	W01
	BYTE		        Ds3 
	BYTE	W05
	BYTE		N02     Gs2   v100
	BYTE		N02     Cn3   v104
	BYTE	W01
	BYTE		        Ds3 
	BYTE	W11
	BYTE		N22     Gs2   v108
	BYTE		N22     Cn3   v112
	BYTE	W01
	BYTE		        Ds3 
	BYTE	W23
	BYTE		        Gs2   v100
	BYTE		N22     Cn3   v104
	BYTE	W01
	BYTE		        Ds3 
	BYTE	W23
	BYTE		N10     Gs2   v100
	BYTE		N10     Cn3   v104
	BYTE		N10     Ds3 
	BYTE	W12
	BYTE	PEND
// 043   ----------------------------------------
PokemonBWRoute10Sme_1_043:
	BYTE		N05     As2   v112
	BYTE		N05     Dn3   v116
	BYTE	W01
	BYTE		        Fn3 
	BYTE	W11
	BYTE		N01     As2   v060
	BYTE		N01     Dn3   v064
	BYTE	W01
	BYTE		        Fn3 
	BYTE	W05
	BYTE		        As2   v060
	BYTE		N01     Dn3   v064
	BYTE	W01
	BYTE		        Fn3 
	BYTE	W05
	BYTE		N02     As2   v100
	BYTE		N02     Dn3   v104
	BYTE	W01
	BYTE		        Fn3 
	BYTE	W11
	BYTE		N22     As2   v108
	BYTE		N22     Dn3   v112
	BYTE	W01
	BYTE		        Fn3 
	BYTE	W23
	BYTE		        As2   v100
	BYTE		N22     Dn3   v104
	BYTE	W01
	BYTE		        Fn3 
	BYTE	W23
	BYTE		N10     As2   v100
	BYTE		N10     Dn3   v104
	BYTE		N10     Fn3 
	BYTE	W12
	BYTE	PEND
// 044   ----------------------------------------
	BYTE	PATT
	 POIN2	PokemonBWRoute10Sme_1_008
// 045   ----------------------------------------
	BYTE	PATT
	 POIN2	PokemonBWRoute10Sme_1_009
// 046   ----------------------------------------
	BYTE	PATT
	 POIN2	PokemonBWRoute10Sme_1_008
// 047   ----------------------------------------
	BYTE	PATT
	 POIN2	PokemonBWRoute10Sme_1_011
// 048   ----------------------------------------
	BYTE	PATT
	 POIN2	PokemonBWRoute10Sme_1_012
// 049   ----------------------------------------
	BYTE	PATT
	 POIN2	PokemonBWRoute10Sme_1_013
// 050   ----------------------------------------
	BYTE	PATT
	 POIN2	PokemonBWRoute10Sme_1_014
// 051   ----------------------------------------
	BYTE	PATT
	 POIN2	PokemonBWRoute10Sme_1_015
// 052   ----------------------------------------
	BYTE	PATT
	 POIN2	PokemonBWRoute10Sme_1_008
// 053   ----------------------------------------
	BYTE	PATT
	 POIN2	PokemonBWRoute10Sme_1_009
// 054   ----------------------------------------
	BYTE	PATT
	 POIN2	PokemonBWRoute10Sme_1_008
// 055   ----------------------------------------
	BYTE	PATT
	 POIN2	PokemonBWRoute10Sme_1_011
// 056   ----------------------------------------
	BYTE	PATT
	 POIN2	PokemonBWRoute10Sme_1_012
// 057   ----------------------------------------
	BYTE	PATT
	 POIN2	PokemonBWRoute10Sme_1_013
// 058   ----------------------------------------
	BYTE	PATT
	 POIN2	PokemonBWRoute10Sme_1_014
// 059   ----------------------------------------
	BYTE	PATT
	 POIN2	PokemonBWRoute10Sme_1_015
// 060   ----------------------------------------
	BYTE	PATT
	 POIN2	PokemonBWRoute10Sme_1_012
// 061   ----------------------------------------
	BYTE	PATT
	 POIN2	PokemonBWRoute10Sme_1_025
// 062   ----------------------------------------
	BYTE	PATT
	 POIN2	PokemonBWRoute10Sme_1_026
// 063   ----------------------------------------
	BYTE	PATT
	 POIN2	PokemonBWRoute10Sme_1_027
// 064   ----------------------------------------
	BYTE	PATT
	 POIN2	PokemonBWRoute10Sme_1_012
// 065   ----------------------------------------
	BYTE	PATT
	 POIN2	PokemonBWRoute10Sme_1_025
// 066   ----------------------------------------
	BYTE	PATT
	 POIN2	PokemonBWRoute10Sme_1_026
// 067   ----------------------------------------
	BYTE	PATT
	 POIN2	PokemonBWRoute10Sme_1_031
// 068   ----------------------------------------
	BYTE	PATT
	 POIN2	PokemonBWRoute10Sme_1_012
// 069   ----------------------------------------
	BYTE	PATT
	 POIN2	PokemonBWRoute10Sme_1_025
// 070   ----------------------------------------
	BYTE	PATT
	 POIN2	PokemonBWRoute10Sme_1_026
// 071   ----------------------------------------
	BYTE	PATT
	 POIN2	PokemonBWRoute10Sme_1_027
// 072   ----------------------------------------
	BYTE	PATT
	 POIN2	PokemonBWRoute10Sme_1_002
// 073   ----------------------------------------
	BYTE	PATT
	 POIN2	PokemonBWRoute10Sme_1_037
// 074   ----------------------------------------
	BYTE	PATT
	 POIN2	PokemonBWRoute10Sme_1_008
// 075   ----------------------------------------
	BYTE	PATT
	 POIN2	PokemonBWRoute10Sme_1_039
// 076   ----------------------------------------
	BYTE	PATT
	 POIN2	PokemonBWRoute10Sme_1_040
// 077   ----------------------------------------
	BYTE	PATT
	 POIN2	PokemonBWRoute10Sme_1_041
// 078   ----------------------------------------
	BYTE	PATT
	 POIN2	PokemonBWRoute10Sme_1_042
// 079   ----------------------------------------
	BYTE	PATT
	 POIN2	PokemonBWRoute10Sme_1_043
	BYTE	GoTo
	 POIN2	PokemonBWRoute10Sme_1_B1
PokemonBWRoute10Sme_1_B2:
// 080   ----------------------------------------
	BYTE		BEND    c_v+0
	BYTE	FINE

//**************** Track 2 (Midi-Chn.2) ****************//

PokemonBWRoute10Sme_2:
	BYTE	KEYSH   PokemonBWRoute10Sme_key+0
// 000   ----------------------------------------
	BYTE		VOICE   61
	BYTE		PAN     c_v+16
	BYTE		VOL     69*PokemonBWRoute10Sme_mvl/mxv
	BYTE		BEND    c_v+0
	BYTE	W96
// 001   ----------------------------------------
	BYTE	W96
// 002   ----------------------------------------
	BYTE	W96
// 003   ----------------------------------------
	BYTE	W96
// 004   ----------------------------------------
	BYTE	W96
// 005   ----------------------------------------
	BYTE	W96
// 006   ----------------------------------------
	BYTE	W96
// 007   ----------------------------------------
	BYTE	W90
	BYTE		N02     Ds4   v112
	BYTE	W03
	BYTE		        Fn4   v100
	BYTE	W03
PokemonBWRoute10Sme_2_B1:
// 008   ----------------------------------------
PokemonBWRoute10Sme_2_008:
	BYTE		N88     Dn4   v112
	BYTE		N88     Gn4 
	BYTE	W92
	BYTE	W01
	BYTE		N02     Cn5   v100
	BYTE	W03
	BYTE	PEND
// 009   ----------------------------------------
PokemonBWRoute10Sme_2_009:
	BYTE		N88     Gn4   v112
	BYTE		N80     Dn5   v120
	BYTE	W84
	BYTE		N05     Ds5 
	BYTE	W06
	BYTE		        Dn5   v112
	BYTE	W06
	BYTE	PEND
// 010   ----------------------------------------
PokemonBWRoute10Sme_2_010:
	BYTE		N80     Dn4   v120
	BYTE		N80     Gn4 
	BYTE	W84
	BYTE	W01
	BYTE		N05     Fn4   v112
	BYTE	W06
	BYTE		N04     Gn4   v108
	BYTE	W05
	BYTE	PEND
// 011   ----------------------------------------
PokemonBWRoute10Sme_2_011:
	BYTE		N76     Fn4   v116
	BYTE		N76     As4 
	BYTE	W84
	BYTE		N05     Gs4   v112
	BYTE	W06
	BYTE		        Gn4   v108
	BYTE	W06
	BYTE	PEND
// 012   ----------------------------------------
PokemonBWRoute10Sme_2_012:
	BYTE		N32     Ds4   v116
	BYTE		N32     Gs4 
	BYTE	W36
	BYTE		        Fn4 
	BYTE		N32     As4   v112
	BYTE	W36
	BYTE		N20     Fn4   v116
	BYTE		N20     Cn5 
	BYTE	W21
	BYTE		N02     Dn5   v112
	BYTE	W03
	BYTE	PEND
// 013   ----------------------------------------
PokemonBWRoute10Sme_2_013:
	BYTE		N32     Cn5   v120
	BYTE		N32     Ds5 
	BYTE	W36
	BYTE		        Gn4   v116
	BYTE		N32     Cn5 
	BYTE	W36
	BYTE		N17     Cn5   v120
	BYTE		N17     Ds5 
	BYTE	W18
	BYTE		N01     Cn5   v076
	BYTE	W01
	BYTE		        Dn5   v092
	BYTE	W02
	BYTE		        Ds5   v100
	BYTE	W01
	BYTE		        Fn5   v096
	BYTE	W02
	BYTE	PEND
// 014   ----------------------------------------
PokemonBWRoute10Sme_2_014:
	BYTE		N32     Ds5   v112
	BYTE		N32     Fs5 
	BYTE	W36
	BYTE		        Cn5   v120
	BYTE		N32     Ds5 
	BYTE	W36
	BYTE		N23     Gn4 
	BYTE		N23     Dn5 
	BYTE	W24
	BYTE	PEND
// 015   ----------------------------------------
PokemonBWRoute10Sme_2_015:
	BYTE		N32     Ds4   v120
	BYTE		N32     Cn5 
	BYTE	W36
	BYTE		N42     Dn4 
	BYTE		N42     Bn4 
	BYTE	W60
	BYTE	PEND
// 016   ----------------------------------------
	BYTE	W96
// 017   ----------------------------------------
	BYTE	W96
// 018   ----------------------------------------
	BYTE	W96
// 019   ----------------------------------------
	BYTE	W96
// 020   ----------------------------------------
	BYTE	W96
// 021   ----------------------------------------
	BYTE	W96
// 022   ----------------------------------------
	BYTE	W96
// 023   ----------------------------------------
	BYTE	W96
// 024   ----------------------------------------
	BYTE	W96
// 025   ----------------------------------------
	BYTE	W96
// 026   ----------------------------------------
	BYTE	W96
// 027   ----------------------------------------
	BYTE	W96
// 028   ----------------------------------------
	BYTE	W96
// 029   ----------------------------------------
	BYTE	W96
// 030   ----------------------------------------
	BYTE	W96
// 031   ----------------------------------------
PokemonBWRoute10Sme_2_031:
	BYTE	W84
	BYTE		N05     Cn4   v124
	BYTE		N05     Cn5   v116
	BYTE	W06
	BYTE		        Dn4   v120
	BYTE		N05     Dn5   v108
	BYTE	W06
	BYTE	PEND
// 032   ----------------------------------------
PokemonBWRoute10Sme_2_032:
	BYTE		N32     Ds4   v127
	BYTE		N02     Ds5   v100
	BYTE	W03
	BYTE		        Fn5   v088
	BYTE	W03
	BYTE		N24     Ds5   v104
	BYTE	W30
	BYTE		N28     Cn4   v127
	BYTE		N28     Cn5   v116
	BYTE	W30
	BYTE		N04     Fn4 
	BYTE		N02     Fn5   v104
	BYTE	W03
	BYTE		N04     Fs4   v112
	BYTE		N02     Fs5   v108
	BYTE	W03
	BYTE		N23     Gn4   v127
	BYTE		N22     Gn5   v116
	BYTE	W24
	BYTE	PEND
// 033   ----------------------------------------
PokemonBWRoute10Sme_2_033:
	BYTE		N28     Fn4   v127
	BYTE		N02     Fn5   v104
	BYTE	W03
	BYTE		        Gn5   v096
	BYTE	W03
	BYTE		N24     Fn5   v112
	BYTE	W24
	BYTE	W01
	BYTE		N01     Cn4 
	BYTE	W02
	BYTE		        Cs4   v120
	BYTE	W01
	BYTE		N32     Dn4   v127
	BYTE	W02
	BYTE		        Dn5   v108
	BYTE	W36
	BYTE		N24     Cn4   v127
	BYTE		N20     Cn5   v112
	BYTE	W24
	BYTE	PEND
// 034   ----------------------------------------
PokemonBWRoute10Sme_2_034:
	BYTE		N32     As3   v124
	BYTE		N02     As4   v096
	BYTE	W03
	BYTE		        Cn5   v084
	BYTE	W03
	BYTE		N28     As4   v112
	BYTE	W30
	BYTE		        Gn3   v120
	BYTE		N32     Gn4   v104
	BYTE	W30
	BYTE		N02     Cn4   v120
	BYTE	W02
	BYTE		        Cs4   v116
	BYTE	W04
	BYTE		N20     Dn4   v124
	BYTE		N20     Dn5   v112
	BYTE	W24
	BYTE	PEND
// 035   ----------------------------------------
PokemonBWRoute10Sme_2_035:
	BYTE		N32     Dn4   v127
	BYTE		N32     Dn5   v116
	BYTE	W36
	BYTE		N40     Cn4   v120
	BYTE		N40     Cn5   v108
	BYTE	W48
	BYTE		N05     Cn4   v124
	BYTE		N05     Cn5   v108
	BYTE	W06
	BYTE		        Dn4   v120
	BYTE		N05     Dn5   v104
	BYTE	W06
	BYTE	PEND
// 036   ----------------------------------------
PokemonBWRoute10Sme_2_036:
	BYTE		N32     Ds4   v124
	BYTE		N02     Ds5   v100
	BYTE	W03
	BYTE		        Fn5   v088
	BYTE	W03
	BYTE		N28     Ds5   v112
	BYTE	W24
	BYTE	W03
	BYTE		        Cn4   v116
	BYTE	W03
	BYTE		N32     Cn5   v108
	BYTE	W28
	BYTE	W01
	BYTE		N02     Fn4   v120
	BYTE	W04
	BYTE		        Fs4   v116
	BYTE	W03
	BYTE		N22     Gn4   v127
	BYTE		N23     Gn5   v116
	BYTE	W24
	BYTE	PEND
// 037   ----------------------------------------
PokemonBWRoute10Sme_2_037:
	BYTE		N32     Fn4   v127
	BYTE		N32     Fn5   v112
	BYTE	W36
	BYTE		        Ds4   v120
	BYTE		N32     Ds5   v108
	BYTE	W36
	BYTE		N23     Dn4   v124
	BYTE		N22     Dn5   v116
	BYTE	W24
	BYTE	PEND
// 038   ----------------------------------------
PokemonBWRoute10Sme_2_038:
	BYTE		TIE     Cn4   v124
	BYTE		N02     Cn5   v100
	BYTE	W03
	BYTE		        Dn5   v092
	BYTE	W03
	BYTE		TIE     Cn5   v116
	BYTE	W90
	BYTE	PEND
// 039   ----------------------------------------
	BYTE	W64
	BYTE	W01
	BYTE		EOT     Cn4 
	BYTE	W06
	BYTE		        Cn5 
	BYTE		N21     As3   v112
	BYTE	W01
	BYTE		N23     As4   v108
	BYTE	W24
// 040   ----------------------------------------
PokemonBWRoute10Sme_2_040:
	BYTE		TIE     Cn4   v124
	BYTE		TIE     Cn5   v112
	BYTE	W96
	BYTE	PEND
// 041   ----------------------------------------
	BYTE	W68
	BYTE	W03
	BYTE		EOT     Cn4 
	BYTE		        Cn5 
	BYTE	W01
	BYTE		N17     Ds4   v104
	BYTE		N17     Gn4 
	BYTE	W18
	BYTE		N02     As4   v096
	BYTE	W03
	BYTE		        Bn4   v084
	BYTE	W03
// 042   ----------------------------------------
PokemonBWRoute10Sme_2_042:
	BYTE		TIE     Cn5   v096
	BYTE		TIE     Fn5 
	BYTE	W96
	BYTE	PEND
// 043   ----------------------------------------
	BYTE	W68
	BYTE	W03
	BYTE		EOT     Cn5 
	BYTE		        Fn5 
	BYTE	W19
	BYTE		N02     Ds4   v112
	BYTE	W03
	BYTE		        Fn4   v104
	BYTE	W03
// 044   ----------------------------------------
	BYTE	PATT
	 POIN2	PokemonBWRoute10Sme_2_008
// 045   ----------------------------------------
	BYTE	PATT
	 POIN2	PokemonBWRoute10Sme_2_009
// 046   ----------------------------------------
	BYTE	PATT
	 POIN2	PokemonBWRoute10Sme_2_010
// 047   ----------------------------------------
	BYTE	PATT
	 POIN2	PokemonBWRoute10Sme_2_011
// 048   ----------------------------------------
	BYTE	PATT
	 POIN2	PokemonBWRoute10Sme_2_012
// 049   ----------------------------------------
	BYTE	PATT
	 POIN2	PokemonBWRoute10Sme_2_013
// 050   ----------------------------------------
	BYTE	PATT
	 POIN2	PokemonBWRoute10Sme_2_014
// 051   ----------------------------------------
	BYTE	PATT
	 POIN2	PokemonBWRoute10Sme_2_015
// 052   ----------------------------------------
	BYTE	W96
// 053   ----------------------------------------
	BYTE	W96
// 054   ----------------------------------------
	BYTE	W96
// 055   ----------------------------------------
	BYTE	W96
// 056   ----------------------------------------
	BYTE	W96
// 057   ----------------------------------------
	BYTE	W96
// 058   ----------------------------------------
	BYTE	W96
// 059   ----------------------------------------
	BYTE	W96
// 060   ----------------------------------------
	BYTE	W96
// 061   ----------------------------------------
	BYTE	W96
// 062   ----------------------------------------
	BYTE	W96
// 063   ----------------------------------------
	BYTE	W96
// 064   ----------------------------------------
	BYTE	W96
// 065   ----------------------------------------
	BYTE	W96
// 066   ----------------------------------------
	BYTE	W96
// 067   ----------------------------------------
	BYTE	PATT
	 POIN2	PokemonBWRoute10Sme_2_031
// 068   ----------------------------------------
	BYTE	PATT
	 POIN2	PokemonBWRoute10Sme_2_032
// 069   ----------------------------------------
	BYTE	PATT
	 POIN2	PokemonBWRoute10Sme_2_033
// 070   ----------------------------------------
	BYTE	PATT
	 POIN2	PokemonBWRoute10Sme_2_034
// 071   ----------------------------------------
	BYTE	PATT
	 POIN2	PokemonBWRoute10Sme_2_035
// 072   ----------------------------------------
	BYTE	PATT
	 POIN2	PokemonBWRoute10Sme_2_036
// 073   ----------------------------------------
	BYTE	PATT
	 POIN2	PokemonBWRoute10Sme_2_037
// 074   ----------------------------------------
	BYTE	PATT
	 POIN2	PokemonBWRoute10Sme_2_038
// 075   ----------------------------------------
	BYTE	W64
	BYTE	W01
	BYTE		EOT     Cn4 
	BYTE	W06
	BYTE		        Cn5 
	BYTE		N21     As3   v112
	BYTE	W01
	BYTE		N23     As4   v108
	BYTE	W24
// 076   ----------------------------------------
	BYTE	PATT
	 POIN2	PokemonBWRoute10Sme_2_040
// 077   ----------------------------------------
	BYTE	W68
	BYTE	W03
	BYTE		EOT     Cn4 
	BYTE		        Cn5 
	BYTE	W01
	BYTE		N17     Ds4   v104
	BYTE		N17     Gn4 
	BYTE	W18
	BYTE		N02     As4   v096
	BYTE	W03
	BYTE		        Bn4   v084
	BYTE	W03
// 078   ----------------------------------------
	BYTE	PATT
	 POIN2	PokemonBWRoute10Sme_2_042
// 079   ----------------------------------------
	BYTE	W68
	BYTE	W03
	BYTE		EOT     Cn5 
	BYTE		        Fn5 
	BYTE	W19
	BYTE		N02     Ds4   v112
	BYTE	W03
	BYTE		        Fn4   v104
	BYTE	W03
	BYTE	GoTo
	 POIN2	PokemonBWRoute10Sme_2_B1
PokemonBWRoute10Sme_2_B2:
// 080   ----------------------------------------
	BYTE		BEND    c_v+0
	BYTE	FINE

//**************** Track 3 (Midi-Chn.3) ****************//

PokemonBWRoute10Sme_3:
	BYTE	KEYSH   PokemonBWRoute10Sme_key+0
// 000   ----------------------------------------
	BYTE		VOICE   50
	BYTE		PAN     c_v-19
	BYTE		VOL     48*PokemonBWRoute10Sme_mvl/mxv
	BYTE		BEND    c_v+0
	BYTE		N92     Cn3   v112
	BYTE		N92     Gn3   v108
	BYTE		N92     Ds4 
	BYTE	W96
// 001   ----------------------------------------
PokemonBWRoute10Sme_3_001:
	BYTE		N92     As2   v112
	BYTE		N92     Gn3   v100
	BYTE		N92     Dn4   v112
	BYTE	W96
	BYTE	PEND
// 002   ----------------------------------------
PokemonBWRoute10Sme_3_002:
	BYTE		N92     Cn3   v112
	BYTE		N92     Gn3   v108
	BYTE		N92     Cn4   v112
	BYTE	W96
	BYTE	PEND
// 003   ----------------------------------------
PokemonBWRoute10Sme_3_003:
	BYTE		N92     As2   v108
	BYTE		N92     As3   v100
	BYTE		N92     Dn4 
	BYTE	W96
	BYTE	PEND
// 004   ----------------------------------------
PokemonBWRoute10Sme_3_004:
	BYTE		N92     Cn3   v112
	BYTE		N92     Gn3   v108
	BYTE		N92     Ds4 
	BYTE	W96
	BYTE	PEND
// 005   ----------------------------------------
	BYTE	PATT
	 POIN2	PokemonBWRoute10Sme_3_001
// 006   ----------------------------------------
	BYTE	PATT
	 POIN2	PokemonBWRoute10Sme_3_002
// 007   ----------------------------------------
	BYTE	PATT
	 POIN2	PokemonBWRoute10Sme_3_003
PokemonBWRoute10Sme_3_B1:
// 008   ----------------------------------------
	BYTE	PATT
	 POIN2	PokemonBWRoute10Sme_3_004
// 009   ----------------------------------------
	BYTE	PATT
	 POIN2	PokemonBWRoute10Sme_3_001
// 010   ----------------------------------------
PokemonBWRoute10Sme_3_010:
	BYTE		N92     Gs2   v112
	BYTE		N92     Gn3   v108
	BYTE		N92     Cn4   v112
	BYTE	W96
	BYTE	PEND
// 011   ----------------------------------------
PokemonBWRoute10Sme_3_011:
	BYTE		N92     Gn2   v108
	BYTE		N92     Fn3   v100
	BYTE		N92     As3 
	BYTE	W96
	BYTE	PEND
// 012   ----------------------------------------
PokemonBWRoute10Sme_3_012:
	BYTE		N92     Fn2   v112
	BYTE		N92     Cn3   v108
	BYTE		N92     Gs3 
	BYTE	W96
	BYTE	PEND
// 013   ----------------------------------------
PokemonBWRoute10Sme_3_013:
	BYTE		N92     Ds2   v112
	BYTE		N92     Cn3   v100
	BYTE		N92     Gn3   v112
	BYTE	W96
	BYTE	PEND
// 014   ----------------------------------------
PokemonBWRoute10Sme_3_014:
	BYTE		N92     Dn2   v112
	BYTE		N92     Cn3   v108
	BYTE		N92     Fs3   v112
	BYTE	W96
	BYTE	PEND
// 015   ----------------------------------------
PokemonBWRoute10Sme_3_015:
	BYTE		N92     Gn2   v108
	BYTE		N32     Cn3   v100
	BYTE		N92     Gn3 
	BYTE	W36
	BYTE		N56     Bn2 
	BYTE	W60
	BYTE	PEND
// 016   ----------------------------------------
	BYTE	PATT
	 POIN2	PokemonBWRoute10Sme_3_004
// 017   ----------------------------------------
	BYTE	PATT
	 POIN2	PokemonBWRoute10Sme_3_001
// 018   ----------------------------------------
	BYTE	PATT
	 POIN2	PokemonBWRoute10Sme_3_010
// 019   ----------------------------------------
	BYTE	PATT
	 POIN2	PokemonBWRoute10Sme_3_011
// 020   ----------------------------------------
	BYTE	PATT
	 POIN2	PokemonBWRoute10Sme_3_012
// 021   ----------------------------------------
	BYTE	PATT
	 POIN2	PokemonBWRoute10Sme_3_013
// 022   ----------------------------------------
	BYTE	PATT
	 POIN2	PokemonBWRoute10Sme_3_014
// 023   ----------------------------------------
	BYTE	PATT
	 POIN2	PokemonBWRoute10Sme_3_015
// 024   ----------------------------------------
	BYTE	PATT
	 POIN2	PokemonBWRoute10Sme_3_012
// 025   ----------------------------------------
PokemonBWRoute10Sme_3_025:
	BYTE		N92     Fn2   v112
	BYTE		N92     Dn3   v108
	BYTE		N92     As3 
	BYTE	W96
	BYTE	PEND
// 026   ----------------------------------------
PokemonBWRoute10Sme_3_026:
	BYTE		N92     Ds2   v112
	BYTE		N92     As2   v108
	BYTE		N92     Gn3 
	BYTE	W96
	BYTE	PEND
// 027   ----------------------------------------
PokemonBWRoute10Sme_3_027:
	BYTE		N92     Gs2   v112
	BYTE		N92     Cn3   v108
	BYTE		N32     Gs3 
	BYTE	W36
	BYTE		        Fn3 
	BYTE	W36
	BYTE		N23     Ds3 
	BYTE	W24
	BYTE	PEND
// 028   ----------------------------------------
PokemonBWRoute10Sme_3_028:
	BYTE		N92     Fn2   v112
	BYTE		N92     Cn3   v108
	BYTE		N92     Gs3 
	BYTE	W92
	BYTE	W03
	BYTE		        Fn2   v112
	BYTE		N92     Dn3   v108
	BYTE		N92     As3 
	BYTE	W01
	BYTE	PEND
// 029   ----------------------------------------
PokemonBWRoute10Sme_3_029:
	BYTE	W92
	BYTE	W03
	BYTE		N92     Ds2   v112
	BYTE		N92     As2   v108
	BYTE		N92     Gn3 
	BYTE	W01
	BYTE	PEND
// 030   ----------------------------------------
PokemonBWRoute10Sme_3_030:
	BYTE	W92
	BYTE	W03
	BYTE		N92     Cn3   v108
	BYTE		N32     Gn3 
	BYTE	W01
	BYTE	PEND
// 031   ----------------------------------------
PokemonBWRoute10Sme_3_031:
	BYTE		N92     Gn2   v112
	BYTE	W36
	BYTE		N32     Dn3   v108
	BYTE	W36
	BYTE		N23     Gn3   v112
	BYTE	W24
	BYTE	PEND
// 032   ----------------------------------------
	BYTE	PATT
	 POIN2	PokemonBWRoute10Sme_3_012
// 033   ----------------------------------------
	BYTE	PATT
	 POIN2	PokemonBWRoute10Sme_3_025
// 034   ----------------------------------------
	BYTE	PATT
	 POIN2	PokemonBWRoute10Sme_3_026
// 035   ----------------------------------------
	BYTE	PATT
	 POIN2	PokemonBWRoute10Sme_3_027
// 036   ----------------------------------------
	BYTE	PATT
	 POIN2	PokemonBWRoute10Sme_3_012
// 037   ----------------------------------------
PokemonBWRoute10Sme_3_037:
	BYTE		N92     Gn2   v112
	BYTE		N92     Dn3   v108
	BYTE		N92     As3 
	BYTE	W96
	BYTE	PEND
// 038   ----------------------------------------
PokemonBWRoute10Sme_3_038:
	BYTE		N92     Gs2   v112
	BYTE		N92     Ds3   v108
	BYTE		N92     Cn4 
	BYTE	W96
	BYTE	PEND
// 039   ----------------------------------------
PokemonBWRoute10Sme_3_039:
	BYTE		N92     As2   v112
	BYTE		N92     Fn3   v108
	BYTE		N68     Cn4 
	BYTE	W72
	BYTE		N23     As3   v100
	BYTE	W24
	BYTE	PEND
// 040   ----------------------------------------
	BYTE	PATT
	 POIN2	PokemonBWRoute10Sme_3_004
// 041   ----------------------------------------
	BYTE	PATT
	 POIN2	PokemonBWRoute10Sme_3_001
// 042   ----------------------------------------
	BYTE	PATT
	 POIN2	PokemonBWRoute10Sme_3_002
// 043   ----------------------------------------
	BYTE	PATT
	 POIN2	PokemonBWRoute10Sme_3_003
// 044   ----------------------------------------
	BYTE	PATT
	 POIN2	PokemonBWRoute10Sme_3_004
// 045   ----------------------------------------
	BYTE	PATT
	 POIN2	PokemonBWRoute10Sme_3_001
// 046   ----------------------------------------
	BYTE	PATT
	 POIN2	PokemonBWRoute10Sme_3_010
// 047   ----------------------------------------
	BYTE	PATT
	 POIN2	PokemonBWRoute10Sme_3_011
// 048   ----------------------------------------
	BYTE	PATT
	 POIN2	PokemonBWRoute10Sme_3_012
// 049   ----------------------------------------
	BYTE	PATT
	 POIN2	PokemonBWRoute10Sme_3_013
// 050   ----------------------------------------
	BYTE	PATT
	 POIN2	PokemonBWRoute10Sme_3_014
// 051   ----------------------------------------
	BYTE	PATT
	 POIN2	PokemonBWRoute10Sme_3_015
// 052   ----------------------------------------
	BYTE	PATT
	 POIN2	PokemonBWRoute10Sme_3_004
// 053   ----------------------------------------
	BYTE	PATT
	 POIN2	PokemonBWRoute10Sme_3_001
// 054   ----------------------------------------
	BYTE	PATT
	 POIN2	PokemonBWRoute10Sme_3_010
// 055   ----------------------------------------
	BYTE	PATT
	 POIN2	PokemonBWRoute10Sme_3_011
// 056   ----------------------------------------
	BYTE	PATT
	 POIN2	PokemonBWRoute10Sme_3_012
// 057   ----------------------------------------
	BYTE	PATT
	 POIN2	PokemonBWRoute10Sme_3_013
// 058   ----------------------------------------
	BYTE	PATT
	 POIN2	PokemonBWRoute10Sme_3_014
// 059   ----------------------------------------
	BYTE	PATT
	 POIN2	PokemonBWRoute10Sme_3_015
// 060   ----------------------------------------
	BYTE	PATT
	 POIN2	PokemonBWRoute10Sme_3_012
// 061   ----------------------------------------
	BYTE	PATT
	 POIN2	PokemonBWRoute10Sme_3_025
// 062   ----------------------------------------
	BYTE	PATT
	 POIN2	PokemonBWRoute10Sme_3_026
// 063   ----------------------------------------
	BYTE	PATT
	 POIN2	PokemonBWRoute10Sme_3_027
// 064   ----------------------------------------
	BYTE	PATT
	 POIN2	PokemonBWRoute10Sme_3_028
// 065   ----------------------------------------
	BYTE	PATT
	 POIN2	PokemonBWRoute10Sme_3_029
// 066   ----------------------------------------
	BYTE	PATT
	 POIN2	PokemonBWRoute10Sme_3_030
// 067   ----------------------------------------
	BYTE	PATT
	 POIN2	PokemonBWRoute10Sme_3_031
// 068   ----------------------------------------
	BYTE	PATT
	 POIN2	PokemonBWRoute10Sme_3_012
// 069   ----------------------------------------
	BYTE	PATT
	 POIN2	PokemonBWRoute10Sme_3_025
// 070   ----------------------------------------
	BYTE	PATT
	 POIN2	PokemonBWRoute10Sme_3_026
// 071   ----------------------------------------
	BYTE	PATT
	 POIN2	PokemonBWRoute10Sme_3_027
// 072   ----------------------------------------
	BYTE	PATT
	 POIN2	PokemonBWRoute10Sme_3_012
// 073   ----------------------------------------
	BYTE	PATT
	 POIN2	PokemonBWRoute10Sme_3_037
// 074   ----------------------------------------
	BYTE	PATT
	 POIN2	PokemonBWRoute10Sme_3_038
// 075   ----------------------------------------
	BYTE	PATT
	 POIN2	PokemonBWRoute10Sme_3_039
// 076   ----------------------------------------
	BYTE	PATT
	 POIN2	PokemonBWRoute10Sme_3_004
// 077   ----------------------------------------
	BYTE	PATT
	 POIN2	PokemonBWRoute10Sme_3_001
// 078   ----------------------------------------
	BYTE	PATT
	 POIN2	PokemonBWRoute10Sme_3_002
// 079   ----------------------------------------
	BYTE	PATT
	 POIN2	PokemonBWRoute10Sme_3_003
	BYTE	GoTo
	 POIN2	PokemonBWRoute10Sme_3_B1
PokemonBWRoute10Sme_3_B2:
// 080   ----------------------------------------
	BYTE		BEND    c_v+0
	BYTE	FINE

//**************** Track 4 (Midi-Chn.4) ****************//

PokemonBWRoute10Sme_4:
	BYTE	KEYSH   PokemonBWRoute10Sme_key+0
// 000   ----------------------------------------
	BYTE		VOICE   60
	BYTE		PAN     c_v+19
	BYTE		VOL     80*PokemonBWRoute10Sme_mvl/mxv
	BYTE		BEND    c_v+0
	BYTE	W96
// 001   ----------------------------------------
	BYTE	W96
// 002   ----------------------------------------
	BYTE	W96
// 003   ----------------------------------------
	BYTE	W96
// 004   ----------------------------------------
	BYTE	W96
// 005   ----------------------------------------
	BYTE	W96
// 006   ----------------------------------------
	BYTE	W96
// 007   ----------------------------------------
	BYTE	W96
PokemonBWRoute10Sme_4_B1:
// 008   ----------------------------------------
	BYTE	W96
// 009   ----------------------------------------
	BYTE	W96
// 010   ----------------------------------------
	BYTE	W96
// 011   ----------------------------------------
	BYTE	W96
// 012   ----------------------------------------
	BYTE	W96
// 013   ----------------------------------------
	BYTE	W96
// 014   ----------------------------------------
	BYTE	W96
// 015   ----------------------------------------
PokemonBWRoute10Sme_4_015:
	BYTE	W84
	BYTE		N05     Cn4   v108
	BYTE		N05     Ds4   v112
	BYTE	W06
	BYTE		N03     Dn4   v100
	BYTE		N03     Fn4   v104
	BYTE	W04
	BYTE		N01     Gn4 
	BYTE	W02
	BYTE	PEND
// 016   ----------------------------------------
PokemonBWRoute10Sme_4_016:
	BYTE		N01     Gs4   v100
	BYTE	W01
	BYTE		N84     Ds4   v108
	BYTE		N84     Gn4   v112
	BYTE	W90
	BYTE		N02     As4   v092
	BYTE		N02     Dn5 
	BYTE	W03
	BYTE		        Bn4   v088
	BYTE		N02     Ds5 
	BYTE	W02
	BYTE	PEND
// 017   ----------------------------------------
PokemonBWRoute10Sme_4_017:
	BYTE	W01
	BYTE		N78     As4   v116
	BYTE		N78     Dn5   v120
	BYTE	W80
	BYTE	W03
	BYTE		N08     As4 
	BYTE		N05     Ds5 
	BYTE	W06
	BYTE		N02     Dn5   v112
	BYTE	W03
	BYTE		        Ds4   v100
	BYTE		N02     Gn4 
	BYTE	W03
	BYTE	PEND
// 018   ----------------------------------------
PokemonBWRoute10Sme_4_018:
	BYTE		N02     Fn4   v096
	BYTE		N02     Gs4 
	BYTE	W03
	BYTE		N76     Ds4   v116
	BYTE		N76     Gn4   v120
	BYTE	W80
	BYTE	W01
	BYTE		N05     Dn4   v112
	BYTE		N05     Fn4   v116
	BYTE	W06
	BYTE		N02     Ds4   v104
	BYTE		N02     Gn4   v108
	BYTE	W04
	BYTE		        Gn4   v104
	BYTE		N02     As4 
	BYTE	W02
	BYTE	PEND
// 019   ----------------------------------------
PokemonBWRoute10Sme_4_019:
	BYTE	W01
	BYTE		N02     An4   v096
	BYTE		N02     Cn5 
	BYTE	W03
	BYTE		N72     Gn4   v112
	BYTE		N72     As4   v116
	BYTE	W80
	BYTE		N05     Fn4   v112
	BYTE		N05     Gs4   v116
	BYTE	W06
	BYTE		        Ds4   v104
	BYTE		N05     Gn4   v108
	BYTE	W06
	BYTE	PEND
// 020   ----------------------------------------
PokemonBWRoute10Sme_4_020:
	BYTE		N02     Fn4   v096
	BYTE		N02     Gs4   v104
	BYTE	W03
	BYTE		        Gn4   v088
	BYTE		N02     As4   v092
	BYTE	W03
	BYTE		N24     Fn4   v116
	BYTE		N24     Gs4   v120
	BYTE	W30
	BYTE		N32     Gn4   v108
	BYTE		N32     As4   v112
	BYTE	W36
	BYTE		N20     Gs4   v116
	BYTE		N20     Cn5   v120
	BYTE	W24
	BYTE	PEND
// 021   ----------------------------------------
PokemonBWRoute10Sme_4_021:
	BYTE		N32     Cn5   v120
	BYTE		N32     Ds5   v116
	BYTE	W36
	BYTE		        Gn4   v104
	BYTE		N32     Cn5   v112
	BYTE	W36
	BYTE		N20     Cn5   v120
	BYTE		N20     Ds5   v116
	BYTE	W22
	BYTE		N02     Ds5   v088
	BYTE		N02     Fs5 
	BYTE	W02
	BYTE	PEND
// 022   ----------------------------------------
PokemonBWRoute10Sme_4_022:
	BYTE	W01
	BYTE		N02     Fs5   v080
	BYTE		N02     An5 
	BYTE	W03
	BYTE		N28     Ds5   v108
	BYTE		N28     Fs5   v112
	BYTE	W32
	BYTE		N32     Cn5   v120
	BYTE		N32     Ds5   v108
	BYTE	W36
	BYTE		N20     Fs4   v116
	BYTE		N20     Dn5   v112
	BYTE	W24
	BYTE	PEND
// 023   ----------------------------------------
PokemonBWRoute10Sme_4_023:
	BYTE		N32     Gn4   v116
	BYTE		N32     Cn5   v120
	BYTE	W36
	BYTE		N05     Gn4   v100
	BYTE		N05     Bn4   v108
	BYTE	W06
	BYTE		N03     An4   v092
	BYTE		N03     Cn5   v100
	BYTE	W04
	BYTE		N02     Bn4 
	BYTE		N02     Dn5   v108
	BYTE	W03
	BYTE		        Cn5   v092
	BYTE		N02     Ds5   v100
	BYTE	W03
	BYTE		N40     Bn4   v116
	BYTE		N40     Dn5   v120
	BYTE	W44
	BYTE	PEND
// 024   ----------------------------------------
	BYTE	W96
// 025   ----------------------------------------
	BYTE	W96
// 026   ----------------------------------------
	BYTE	W96
// 027   ----------------------------------------
	BYTE	W96
// 028   ----------------------------------------
	BYTE	W96
// 029   ----------------------------------------
	BYTE	W96
// 030   ----------------------------------------
	BYTE	W96
// 031   ----------------------------------------
	BYTE	W96
// 032   ----------------------------------------
	BYTE	W96
// 033   ----------------------------------------
	BYTE	W96
// 034   ----------------------------------------
	BYTE	W96
// 035   ----------------------------------------
	BYTE	W96
// 036   ----------------------------------------
	BYTE	W96
// 037   ----------------------------------------
	BYTE	W96
// 038   ----------------------------------------
	BYTE	W96
// 039   ----------------------------------------
	BYTE	W96
// 040   ----------------------------------------
	BYTE	W96
// 041   ----------------------------------------
	BYTE	W96
// 042   ----------------------------------------
	BYTE	W96
// 043   ----------------------------------------
	BYTE	W96
// 044   ----------------------------------------
	BYTE	W96
// 045   ----------------------------------------
	BYTE	W96
// 046   ----------------------------------------
	BYTE	W96
// 047   ----------------------------------------
	BYTE	W96
// 048   ----------------------------------------
	BYTE	W96
// 049   ----------------------------------------
	BYTE	W96
// 050   ----------------------------------------
	BYTE	W96
// 051   ----------------------------------------
	BYTE	PATT
	 POIN2	PokemonBWRoute10Sme_4_015
// 052   ----------------------------------------
	BYTE	PATT
	 POIN2	PokemonBWRoute10Sme_4_016
// 053   ----------------------------------------
	BYTE	PATT
	 POIN2	PokemonBWRoute10Sme_4_017
// 054   ----------------------------------------
	BYTE	PATT
	 POIN2	PokemonBWRoute10Sme_4_018
// 055   ----------------------------------------
	BYTE	PATT
	 POIN2	PokemonBWRoute10Sme_4_019
// 056   ----------------------------------------
	BYTE	PATT
	 POIN2	PokemonBWRoute10Sme_4_020
// 057   ----------------------------------------
	BYTE	PATT
	 POIN2	PokemonBWRoute10Sme_4_021
// 058   ----------------------------------------
	BYTE	PATT
	 POIN2	PokemonBWRoute10Sme_4_022
// 059   ----------------------------------------
	BYTE	PATT
	 POIN2	PokemonBWRoute10Sme_4_023
// 060   ----------------------------------------
	BYTE	W96
// 061   ----------------------------------------
	BYTE	W96
// 062   ----------------------------------------
	BYTE	W96
// 063   ----------------------------------------
	BYTE	W96
// 064   ----------------------------------------
	BYTE	W96
// 065   ----------------------------------------
	BYTE	W96
// 066   ----------------------------------------
	BYTE	W96
// 067   ----------------------------------------
	BYTE	W96
// 068   ----------------------------------------
	BYTE	W96
// 069   ----------------------------------------
	BYTE	W96
// 070   ----------------------------------------
	BYTE	W96
// 071   ----------------------------------------
	BYTE	W96
// 072   ----------------------------------------
	BYTE	W96
// 073   ----------------------------------------
	BYTE	W96
// 074   ----------------------------------------
	BYTE	W96
// 075   ----------------------------------------
	BYTE	W96
// 076   ----------------------------------------
	BYTE	W96
// 077   ----------------------------------------
	BYTE	W96
// 078   ----------------------------------------
	BYTE	W96
// 079   ----------------------------------------
	BYTE	W96
	BYTE	GoTo
	 POIN2	PokemonBWRoute10Sme_4_B1
PokemonBWRoute10Sme_4_B2:
// 080   ----------------------------------------
	BYTE		BEND    c_v+0
	BYTE	FINE

//**************** Track 5 (Midi-Chn.5) ****************//

PokemonBWRoute10Sme_5:
	BYTE	KEYSH   PokemonBWRoute10Sme_key+0
// 000   ----------------------------------------
	BYTE		VOICE   21
	BYTE		PAN     c_v-18
	BYTE		VOL     79*PokemonBWRoute10Sme_mvl/mxv
	BYTE		BEND    c_v+0
	BYTE	W96
// 001   ----------------------------------------
	BYTE	W96
// 002   ----------------------------------------
	BYTE	W96
// 003   ----------------------------------------
	BYTE	W96
// 004   ----------------------------------------
	BYTE	W96
// 005   ----------------------------------------
	BYTE	W96
// 006   ----------------------------------------
	BYTE	W96
// 007   ----------------------------------------
	BYTE	W96
PokemonBWRoute10Sme_5_B1:
// 008   ----------------------------------------
	BYTE	W96
// 009   ----------------------------------------
	BYTE	W96
// 010   ----------------------------------------
	BYTE	W96
// 011   ----------------------------------------
	BYTE	W96
// 012   ----------------------------------------
	BYTE	W96
// 013   ----------------------------------------
	BYTE	W96
// 014   ----------------------------------------
	BYTE	W96
// 015   ----------------------------------------
	BYTE	W96
// 016   ----------------------------------------
	BYTE	W96
// 017   ----------------------------------------
	BYTE	W96
// 018   ----------------------------------------
	BYTE	W96
// 019   ----------------------------------------
	BYTE	W96
// 020   ----------------------------------------
	BYTE	W96
// 021   ----------------------------------------
	BYTE	W96
// 022   ----------------------------------------
	BYTE	W96
// 023   ----------------------------------------
PokemonBWRoute10Sme_5_023:
	BYTE	W84
	BYTE		N05     Cn4   v124
	BYTE	W06
	BYTE		        Dn4   v120
	BYTE	W06
	BYTE	PEND
// 024   ----------------------------------------
PokemonBWRoute10Sme_5_024:
	BYTE		N32     Ds4   v127
	BYTE	W36
	BYTE		N28     Cn4 
	BYTE	W30
	BYTE		N05     Fn4   v116
	BYTE	W03
	BYTE		        Fs4   v112
	BYTE	W03
	BYTE		N23     Gn4   v127
	BYTE	W24
	BYTE	PEND
// 025   ----------------------------------------
PokemonBWRoute10Sme_5_025:
	BYTE		N28     Fn4   v127
	BYTE	W30
	BYTE	W01
	BYTE		N01     Cn4   v112
	BYTE	W02
	BYTE		        Cs4   v120
	BYTE	W01
	BYTE		N32     Dn4   v127
	BYTE	W36
	BYTE	W02
	BYTE		N24     Cn4 
	BYTE	W24
	BYTE	PEND
// 026   ----------------------------------------
PokemonBWRoute10Sme_5_026:
	BYTE		N32     As3   v124
	BYTE	W36
	BYTE		N28     Gn3   v120
	BYTE	W30
	BYTE		N02     Cn4 
	BYTE	W02
	BYTE		        Cs4   v116
	BYTE	W04
	BYTE		N20     Dn4   v124
	BYTE	W24
	BYTE	PEND
// 027   ----------------------------------------
PokemonBWRoute10Sme_5_027:
	BYTE		N32     Dn4   v127
	BYTE	W36
	BYTE		N44     Cn4   v120
	BYTE	W48
	BYTE		N05     Gs3   v108
	BYTE	W06
	BYTE		        Gn3   v100
	BYTE	W06
	BYTE	PEND
// 028   ----------------------------------------
PokemonBWRoute10Sme_5_028:
	BYTE		N32     Gs3   v116
	BYTE	W36
	BYTE		N36     As3   v108
	BYTE	W36
	BYTE		N17     Cn4   v116
	BYTE	W18
	BYTE		N02     Gn3   v108
	BYTE	W03
	BYTE		        Gs3   v104
	BYTE	W03
	BYTE	PEND
// 029   ----------------------------------------
PokemonBWRoute10Sme_5_029:
	BYTE		N32     As3   v116
	BYTE	W36
	BYTE		        Gs3   v112
	BYTE	W36
	BYTE		N23     As3   v116
	BYTE	W24
	BYTE	PEND
// 030   ----------------------------------------
PokemonBWRoute10Sme_5_030:
	BYTE		N32     Gn3   v116
	BYTE	W36
	BYTE		        Ds3   v108
	BYTE	W36
	BYTE		N17     Fn3   v112
	BYTE	W18
	BYTE		N02     Ds3   v108
	BYTE	W03
	BYTE		        Fn3   v104
	BYTE	W03
	BYTE	PEND
// 031   ----------------------------------------
	BYTE		N76     Gn3   v120
	BYTE	W96
// 032   ----------------------------------------
	BYTE	W96
// 033   ----------------------------------------
	BYTE	W96
// 034   ----------------------------------------
	BYTE	W96
// 035   ----------------------------------------
	BYTE	W96
// 036   ----------------------------------------
	BYTE	W96
// 037   ----------------------------------------
	BYTE	W96
// 038   ----------------------------------------
	BYTE	W96
// 039   ----------------------------------------
	BYTE	W96
// 040   ----------------------------------------
	BYTE	W96
// 041   ----------------------------------------
	BYTE	W96
// 042   ----------------------------------------
	BYTE	W96
// 043   ----------------------------------------
	BYTE	W96
// 044   ----------------------------------------
	BYTE	W96
// 045   ----------------------------------------
	BYTE	W96
// 046   ----------------------------------------
	BYTE	W96
// 047   ----------------------------------------
	BYTE	W96
// 048   ----------------------------------------
	BYTE	W96
// 049   ----------------------------------------
	BYTE	W96
// 050   ----------------------------------------
	BYTE	W96
// 051   ----------------------------------------
	BYTE	W96
// 052   ----------------------------------------
	BYTE	W96
// 053   ----------------------------------------
	BYTE	W96
// 054   ----------------------------------------
	BYTE	W96
// 055   ----------------------------------------
	BYTE	W96
// 056   ----------------------------------------
	BYTE	W96
// 057   ----------------------------------------
	BYTE	W96
// 058   ----------------------------------------
	BYTE	W96
// 059   ----------------------------------------
	BYTE	PATT
	 POIN2	PokemonBWRoute10Sme_5_023
// 060   ----------------------------------------
	BYTE	PATT
	 POIN2	PokemonBWRoute10Sme_5_024
// 061   ----------------------------------------
	BYTE	PATT
	 POIN2	PokemonBWRoute10Sme_5_025
// 062   ----------------------------------------
	BYTE	PATT
	 POIN2	PokemonBWRoute10Sme_5_026
// 063   ----------------------------------------
	BYTE	PATT
	 POIN2	PokemonBWRoute10Sme_5_027
// 064   ----------------------------------------
	BYTE	PATT
	 POIN2	PokemonBWRoute10Sme_5_028
// 065   ----------------------------------------
	BYTE	PATT
	 POIN2	PokemonBWRoute10Sme_5_029
// 066   ----------------------------------------
	BYTE	PATT
	 POIN2	PokemonBWRoute10Sme_5_030
// 067   ----------------------------------------
	BYTE		N76     Gn3   v120
	BYTE	W96
// 068   ----------------------------------------
	BYTE	W96
// 069   ----------------------------------------
	BYTE	W96
// 070   ----------------------------------------
	BYTE	W96
// 071   ----------------------------------------
	BYTE	W96
// 072   ----------------------------------------
	BYTE	W96
// 073   ----------------------------------------
	BYTE	W96
// 074   ----------------------------------------
	BYTE	W96
// 075   ----------------------------------------
	BYTE	W96
// 076   ----------------------------------------
	BYTE	W96
// 077   ----------------------------------------
	BYTE	W96
// 078   ----------------------------------------
	BYTE	W96
// 079   ----------------------------------------
	BYTE	W96
	BYTE	GoTo
	 POIN2	PokemonBWRoute10Sme_5_B1
PokemonBWRoute10Sme_5_B2:
// 080   ----------------------------------------
	BYTE		BEND    c_v+0
	BYTE	FINE

//**************** Track 6 (Midi-Chn.6) ****************//

PokemonBWRoute10Sme_6:
	BYTE	KEYSH   PokemonBWRoute10Sme_key+0
// 000   ----------------------------------------
	BYTE		VOICE   123
	BYTE		PAN     c_v+11
	BYTE		VOL     53*PokemonBWRoute10Sme_mvl/mxv
	BYTE		BEND    c_v+0
	BYTE	W96
// 001   ----------------------------------------
	BYTE	W96
// 002   ----------------------------------------
	BYTE	W96
// 003   ----------------------------------------
	BYTE	W96
// 004   ----------------------------------------
PokemonBWRoute10Sme_6_004:
	BYTE		N06     Fs1   v120
	BYTE	W12
	BYTE		N06   
	BYTE	W06
	BYTE		N06   
	BYTE	W06
	BYTE		N03   
	BYTE	W03
	BYTE		N03   
	BYTE	W03
	BYTE		N03   
	BYTE	W03
	BYTE		N03   
	BYTE	W03
	BYTE		N06     As1 
	BYTE	W06
	BYTE		        Gs1 
	BYTE	W06
	BYTE		        Fs1 
	BYTE	W06
	BYTE		N03   
	BYTE	W03
	BYTE		N03   
	BYTE	W03
	BYTE		N06   
	BYTE	W06
	BYTE		N06   
	BYTE	W06
	BYTE		N03   
	BYTE	W03
	BYTE		N03   
	BYTE	W03
	BYTE		N03   
	BYTE	W03
	BYTE		N03   
	BYTE	W03
	BYTE		N06     As1 
	BYTE	W06
	BYTE		        Gs1 
	BYTE	W06
	BYTE	PEND
// 005   ----------------------------------------
	BYTE	PATT
	 POIN2	PokemonBWRoute10Sme_6_004
// 006   ----------------------------------------
	BYTE	PATT
	 POIN2	PokemonBWRoute10Sme_6_004
// 007   ----------------------------------------
	BYTE		N06     Fs1   v120
	BYTE	W12
	BYTE		N06   
	BYTE	W06
	BYTE		N06   
	BYTE	W06
	BYTE		        Cn1 
	BYTE		N03     Fs1 
	BYTE	W03
	BYTE		N03   
	BYTE	W03
	BYTE		N03   
	BYTE	W03
	BYTE		N03   
	BYTE	W03
	BYTE		N06     Dn1 
	BYTE		N06     As1 
	BYTE	W06
	BYTE		        Gs1 
	BYTE	W06
	BYTE		        Cn1 
	BYTE		N06     Fs1 
	BYTE	W06
	BYTE		        Dn1 
	BYTE		N03     Fs1 
	BYTE	W03
	BYTE		N03   
	BYTE	W03
	BYTE		N06     Cn1 
	BYTE		N06     Fs1 
	BYTE	W06
	BYTE		N06   
	BYTE	W06
	BYTE		        Dn1 
	BYTE		N03     Fs1 
	BYTE	W03
	BYTE		N03   
	BYTE	W03
	BYTE		N06     Dn1 
	BYTE		N03     Fs1 
	BYTE	W03
	BYTE		N03   
	BYTE	W03
	BYTE		N06     Cn1 
	BYTE		N06     As1 
	BYTE	W06
	BYTE		        Dn1 
	BYTE	W06
PokemonBWRoute10Sme_6_B1:
// 008   ----------------------------------------
PokemonBWRoute10Sme_6_008:
	BYTE		N06     Cn1   v120
	BYTE		N06     Cs2 
	BYTE	W12
	BYTE		        As1 
	BYTE	W06
	BYTE		        Cn1 
	BYTE		N06     Fs1 
	BYTE	W06
	BYTE		        Dn1 
	BYTE		N03     Fs1 
	BYTE	W03
	BYTE		N03   
	BYTE	W03
	BYTE		N06   
	BYTE	W06
	BYTE		        Cn1 
	BYTE		N06     As1 
	BYTE	W12
	BYTE		        Cn1 
	BYTE		N06     Fs1 
	BYTE	W06
	BYTE		N03   
	BYTE	W03
	BYTE		N03   
	BYTE	W03
	BYTE		N06     As1 
	BYTE	W06
	BYTE		        Fs1 
	BYTE	W06
	BYTE		        Dn1 
	BYTE		N06     Fs1 
	BYTE	W06
	BYTE		N06   
	BYTE	W06
	BYTE		        Cn1 
	BYTE		N06     As1 
	BYTE	W06
	BYTE		        Gs1 
	BYTE	W06
	BYTE	PEND
// 009   ----------------------------------------
PokemonBWRoute10Sme_6_009:
	BYTE		N06     Cn1   v120
	BYTE		N06     Fs1 
	BYTE	W06
	BYTE		N06   
	BYTE	W06
	BYTE		        As1 
	BYTE	W06
	BYTE		        Cn1 
	BYTE		N06     Fs1 
	BYTE	W06
	BYTE		        Dn1 
	BYTE		N03     Fs1 
	BYTE	W03
	BYTE		N03   
	BYTE	W03
	BYTE		N06   
	BYTE	W06
	BYTE		        Dn1 
	BYTE		N06     As1 
	BYTE	W06
	BYTE		N03     Cn1 
	BYTE	W03
	BYTE		N03   
	BYTE	W03
	BYTE		N06   
	BYTE		N06     Fs1 
	BYTE	W06
	BYTE		N03   
	BYTE	W03
	BYTE		N03   
	BYTE	W03
	BYTE		N06     Cn1 
	BYTE		N06     As1 
	BYTE	W06
	BYTE		        Fs1 
	BYTE	W06
	BYTE		        Dn1 
	BYTE		N06     Fs1 
	BYTE	W06
	BYTE		N06   
	BYTE	W06
	BYTE		        Cn1 
	BYTE		N06     As1 
	BYTE	W06
	BYTE		        Gs1 
	BYTE	W06
	BYTE	PEND
// 010   ----------------------------------------
PokemonBWRoute10Sme_6_010:
	BYTE		N06     Cn1   v120
	BYTE		N06     Fs1 
	BYTE	W06
	BYTE		N06   
	BYTE	W06
	BYTE		        As1 
	BYTE	W06
	BYTE		        Cn1 
	BYTE		N06     Fs1 
	BYTE	W06
	BYTE		        Dn1 
	BYTE		N03     Fs1 
	BYTE	W03
	BYTE		N03   
	BYTE	W03
	BYTE		N06   
	BYTE	W06
	BYTE		        Cn1 
	BYTE		N06     As1 
	BYTE	W12
	BYTE		        Cn1 
	BYTE		N06     Fs1 
	BYTE	W06
	BYTE		N03   
	BYTE	W03
	BYTE		N03   
	BYTE	W03
	BYTE		N06     As1 
	BYTE	W06
	BYTE		        Fs1 
	BYTE	W06
	BYTE		        Dn1 
	BYTE		N06     Fs1 
	BYTE	W06
	BYTE		N06   
	BYTE	W06
	BYTE		        Cn1 
	BYTE		N06     As1 
	BYTE	W06
	BYTE		        Gs1 
	BYTE	W06
	BYTE	PEND
// 011   ----------------------------------------
PokemonBWRoute10Sme_6_011:
	BYTE		N06     Cn1   v120
	BYTE		N06     Fs1 
	BYTE	W06
	BYTE		N06   
	BYTE	W06
	BYTE		        As1 
	BYTE	W06
	BYTE		        Cn1 
	BYTE		N06     Fs1 
	BYTE	W06
	BYTE		        Dn1 
	BYTE		N03     Fs1 
	BYTE	W03
	BYTE		N03   
	BYTE	W03
	BYTE		N06   
	BYTE	W06
	BYTE		        Dn1 
	BYTE		N06     As1 
	BYTE	W06
	BYTE		N03     Cn1 
	BYTE	W03
	BYTE		N03   
	BYTE	W03
	BYTE		N06   
	BYTE		N06     Fs1 
	BYTE	W06
	BYTE		N03   
	BYTE	W03
	BYTE		N03   
	BYTE	W03
	BYTE		N06     Cn1 
	BYTE		N06     As1 
	BYTE	W06
	BYTE		        Fs1 
	BYTE	W06
	BYTE		        Dn1 
	BYTE		N06     Fs1 
	BYTE	W06
	BYTE		        Cn1 
	BYTE		N06     Fs1 
	BYTE	W06
	BYTE		        Dn1 
	BYTE		N06     As1 
	BYTE	W06
	BYTE		        Dn1 
	BYTE		N06     Gs1 
	BYTE	W06
	BYTE	PEND
// 012   ----------------------------------------
	BYTE	PATT
	 POIN2	PokemonBWRoute10Sme_6_010
// 013   ----------------------------------------
	BYTE	PATT
	 POIN2	PokemonBWRoute10Sme_6_009
// 014   ----------------------------------------
	BYTE	PATT
	 POIN2	PokemonBWRoute10Sme_6_010
// 015   ----------------------------------------
PokemonBWRoute10Sme_6_015:
	BYTE		N06     Cn1   v120
	BYTE		N06     Fs1 
	BYTE	W06
	BYTE		N06   
	BYTE	W06
	BYTE		        As1 
	BYTE	W06
	BYTE		        Cn1 
	BYTE		N06     Fs1 
	BYTE	W06
	BYTE		        Dn1 
	BYTE		N03     Fs1 
	BYTE	W03
	BYTE		N03   
	BYTE	W03
	BYTE		N06   
	BYTE	W06
	BYTE		        Dn1 
	BYTE		N06     As1 
	BYTE	W06
	BYTE		N03     Cn1 
	BYTE	W03
	BYTE		N03   
	BYTE	W03
	BYTE		N06   
	BYTE		N06     Fs1 
	BYTE	W06
	BYTE		N03   
	BYTE	W03
	BYTE		N03   
	BYTE	W03
	BYTE		N06     Cn1 
	BYTE		N06     As1 
	BYTE	W06
	BYTE		        Fs1 
	BYTE	W06
	BYTE		        Dn1 
	BYTE		N06     Fs1 
	BYTE	W06
	BYTE		        Dn1 
	BYTE		N06     Fs1 
	BYTE	W06
	BYTE		        Dn1 
	BYTE		N06     As1 
	BYTE	W06
	BYTE		        Dn1 
	BYTE	W06
	BYTE	PEND
// 016   ----------------------------------------
	BYTE	PATT
	 POIN2	PokemonBWRoute10Sme_6_008
// 017   ----------------------------------------
	BYTE	PATT
	 POIN2	PokemonBWRoute10Sme_6_009
// 018   ----------------------------------------
	BYTE	PATT
	 POIN2	PokemonBWRoute10Sme_6_010
// 019   ----------------------------------------
	BYTE	PATT
	 POIN2	PokemonBWRoute10Sme_6_011
// 020   ----------------------------------------
	BYTE	PATT
	 POIN2	PokemonBWRoute10Sme_6_010
// 021   ----------------------------------------
	BYTE	PATT
	 POIN2	PokemonBWRoute10Sme_6_009
// 022   ----------------------------------------
	BYTE	PATT
	 POIN2	PokemonBWRoute10Sme_6_010
// 023   ----------------------------------------
PokemonBWRoute10Sme_6_023:
	BYTE		N06     Cn1   v120
	BYTE		N06     Fs1 
	BYTE	W06
	BYTE		N06   
	BYTE	W06
	BYTE		        As1 
	BYTE	W06
	BYTE		        Cn1 
	BYTE		N06     Fs1 
	BYTE	W06
	BYTE		        Dn1 
	BYTE		N03     Fs1 
	BYTE	W03
	BYTE		N03   
	BYTE	W03
	BYTE		N06     Dn1 
	BYTE		N06     Fs1 
	BYTE	W06
	BYTE		N03     Cn1 
	BYTE		N06     As1 
	BYTE	W03
	BYTE		N03     Cn1 
	BYTE	W03
	BYTE		N03   
	BYTE	W03
	BYTE		N03   
	BYTE	W03
	BYTE		N06     Dn1 
	BYTE		N06     Fs1 
	BYTE	W06
	BYTE		        Cn1 
	BYTE		N03     Fs1 
	BYTE	W03
	BYTE		N03   
	BYTE	W03
	BYTE		N06     Dn1 
	BYTE		N06     As1 
	BYTE	W06
	BYTE		        Cn1 
	BYTE		N06     Fs1 
	BYTE	W06
	BYTE		        Dn1 
	BYTE		N06     Fs1 
	BYTE	W06
	BYTE		        Dn1 
	BYTE		N06     Fs1 
	BYTE	W06
	BYTE		        Dn1 
	BYTE		N06     As1 
	BYTE	W06
	BYTE		        Dn1 
	BYTE	W06
	BYTE	PEND
// 024   ----------------------------------------
PokemonBWRoute10Sme_6_024:
	BYTE		N06     Cn1   v120
	BYTE		N06     Cs2 
	BYTE	W12
	BYTE		        As1 
	BYTE	W06
	BYTE		        Fs1 
	BYTE	W06
	BYTE		        Dn1 
	BYTE		N03     Fs1 
	BYTE	W03
	BYTE		N03   
	BYTE	W03
	BYTE		N06   
	BYTE	W06
	BYTE		        Cn1 
	BYTE		N06     As1 
	BYTE	W12
	BYTE		        Cn1 
	BYTE		N06     Fs1 
	BYTE	W06
	BYTE		N03   
	BYTE	W03
	BYTE		N03   
	BYTE	W03
	BYTE		N06     As1 
	BYTE	W06
	BYTE		        Cn1 
	BYTE		N06     Fs1 
	BYTE	W06
	BYTE		        Dn1 
	BYTE		N06     Fs1 
	BYTE	W06
	BYTE		N06   
	BYTE	W06
	BYTE		        Cn1 
	BYTE		N06     As1 
	BYTE	W06
	BYTE		        Gs1 
	BYTE	W06
	BYTE	PEND
// 025   ----------------------------------------
PokemonBWRoute10Sme_6_025:
	BYTE		N06     Cn1   v120
	BYTE		N06     Fs1 
	BYTE	W06
	BYTE		N06   
	BYTE	W06
	BYTE		        As1 
	BYTE	W06
	BYTE		        Fs1 
	BYTE	W06
	BYTE		        Dn1 
	BYTE		N03     Fs1 
	BYTE	W03
	BYTE		N03   
	BYTE	W03
	BYTE		N06   
	BYTE	W06
	BYTE		        As1 
	BYTE	W12
	BYTE		        Cn1 
	BYTE		N06     Fs1 
	BYTE	W06
	BYTE		N03   
	BYTE	W03
	BYTE		N03   
	BYTE	W03
	BYTE		N06     Cn1 
	BYTE		N06     As1 
	BYTE	W06
	BYTE		        Fs1 
	BYTE	W06
	BYTE		        Dn1 
	BYTE		N06     Fs1 
	BYTE	W06
	BYTE		N06   
	BYTE	W06
	BYTE		        Cn1 
	BYTE		N06     As1 
	BYTE	W06
	BYTE		        Gs1 
	BYTE	W06
	BYTE	PEND
// 026   ----------------------------------------
PokemonBWRoute10Sme_6_026:
	BYTE		N06     Cn1   v120
	BYTE		N06     Fs1 
	BYTE	W06
	BYTE		N06   
	BYTE	W06
	BYTE		        As1 
	BYTE	W06
	BYTE		        Fs1 
	BYTE	W06
	BYTE		        Dn1 
	BYTE		N03     Fs1 
	BYTE	W03
	BYTE		N03   
	BYTE	W03
	BYTE		N06   
	BYTE	W06
	BYTE		        Cn1 
	BYTE		N06     As1 
	BYTE	W12
	BYTE		        Cn1 
	BYTE		N06     Fs1 
	BYTE	W06
	BYTE		N03   
	BYTE	W03
	BYTE		N03   
	BYTE	W03
	BYTE		N06     As1 
	BYTE	W06
	BYTE		        Cn1 
	BYTE		N06     Fs1 
	BYTE	W06
	BYTE		        Dn1 
	BYTE		N06     Fs1 
	BYTE	W06
	BYTE		N06   
	BYTE	W06
	BYTE		        Cn1 
	BYTE		N06     As1 
	BYTE	W06
	BYTE		        Gs1 
	BYTE	W06
	BYTE	PEND
// 027   ----------------------------------------
	BYTE	PATT
	 POIN2	PokemonBWRoute10Sme_6_025
// 028   ----------------------------------------
	BYTE	PATT
	 POIN2	PokemonBWRoute10Sme_6_026
// 029   ----------------------------------------
	BYTE	PATT
	 POIN2	PokemonBWRoute10Sme_6_025
// 030   ----------------------------------------
	BYTE	PATT
	 POIN2	PokemonBWRoute10Sme_6_026
// 031   ----------------------------------------
PokemonBWRoute10Sme_6_031:
	BYTE		N06     Cn1   v120
	BYTE		N06     Fs1 
	BYTE	W06
	BYTE		N06   
	BYTE	W06
	BYTE		        As1 
	BYTE	W06
	BYTE		        Fs1 
	BYTE	W06
	BYTE		        Dn1 
	BYTE		N03     Fs1 
	BYTE	W03
	BYTE		N03   
	BYTE	W03
	BYTE		N06   
	BYTE	W06
	BYTE		        As1 
	BYTE	W12
	BYTE		        Cn1 
	BYTE		N06     An1 
	BYTE	W01
	BYTE		        Bn1 
	BYTE	W11
	BYTE		        Cn1 
	BYTE		N06     Gn1 
	BYTE	W01
	BYTE		        An1 
	BYTE	W11
	BYTE		        Cn1 
	BYTE		N06     Bn1 
	BYTE	W06
	BYTE		        An1 
	BYTE	W06
	BYTE		        Cn1 
	BYTE		N06     Gn1 
	BYTE	W06
	BYTE		N03     Cn1 
	BYTE		N06     Fn1 
	BYTE	W03
	BYTE		N03     Cn1 
	BYTE	W03
	BYTE	PEND
// 032   ----------------------------------------
	BYTE	PATT
	 POIN2	PokemonBWRoute10Sme_6_024
// 033   ----------------------------------------
	BYTE	PATT
	 POIN2	PokemonBWRoute10Sme_6_025
// 034   ----------------------------------------
	BYTE	PATT
	 POIN2	PokemonBWRoute10Sme_6_026
// 035   ----------------------------------------
	BYTE	PATT
	 POIN2	PokemonBWRoute10Sme_6_025
// 036   ----------------------------------------
	BYTE	PATT
	 POIN2	PokemonBWRoute10Sme_6_026
// 037   ----------------------------------------
	BYTE	PATT
	 POIN2	PokemonBWRoute10Sme_6_025
// 038   ----------------------------------------
	BYTE	PATT
	 POIN2	PokemonBWRoute10Sme_6_026
// 039   ----------------------------------------
PokemonBWRoute10Sme_6_039:
	BYTE		N06     Fs1   v120
	BYTE	W06
	BYTE		N06   
	BYTE	W06
	BYTE		        As1 
	BYTE	W06
	BYTE		        Fs1 
	BYTE	W06
	BYTE		        Dn1 
	BYTE		N03     Fs1 
	BYTE	W03
	BYTE		N03   
	BYTE	W03
	BYTE		N06   
	BYTE	W06
	BYTE		        Cn1 
	BYTE		N06     As1 
	BYTE	W12
	BYTE		        Cn1 
	BYTE		N06     Fs1 
	BYTE	W06
	BYTE		N03   
	BYTE	W03
	BYTE		N03   
	BYTE	W03
	BYTE		N06     As1 
	BYTE	W06
	BYTE		        Cn1 
	BYTE		N06     Fs1 
	BYTE	W06
	BYTE		        Dn1 
	BYTE		N06     Fs1 
	BYTE	W06
	BYTE		N06   
	BYTE	W06
	BYTE		        Cn1 
	BYTE		N06     As1 
	BYTE	W06
	BYTE		        Gs1 
	BYTE	W06
	BYTE	PEND
// 040   ----------------------------------------
	BYTE	PATT
	 POIN2	PokemonBWRoute10Sme_6_025
// 041   ----------------------------------------
	BYTE	PATT
	 POIN2	PokemonBWRoute10Sme_6_026
// 042   ----------------------------------------
	BYTE	PATT
	 POIN2	PokemonBWRoute10Sme_6_025
// 043   ----------------------------------------
PokemonBWRoute10Sme_6_043:
	BYTE		N06     Cn1   v120
	BYTE		N06     Fs1 
	BYTE	W06
	BYTE		        Dn1 
	BYTE		N06     Fs1 
	BYTE	W06
	BYTE		        As1 
	BYTE	W06
	BYTE		        Dn1 
	BYTE		N06     Fs1 
	BYTE	W06
	BYTE		        Cn1 
	BYTE		N03     Fs1 
	BYTE	W03
	BYTE		N03   
	BYTE	W03
	BYTE		N06   
	BYTE	W06
	BYTE		        Dn1 
	BYTE		N06     As1 
	BYTE	W12
	BYTE		        Cn1 
	BYTE		N06     Fs1 
	BYTE	W06
	BYTE		        Dn1 
	BYTE		N03     Fs1 
	BYTE	W03
	BYTE		N03   
	BYTE	W03
	BYTE		N06     Cn1 
	BYTE		N06     As1 
	BYTE	W06
	BYTE		        Fs1 
	BYTE	W06
	BYTE		        Dn1 
	BYTE		N06     Fs1 
	BYTE	W06
	BYTE		        Dn1 
	BYTE		N06     Fs1 
	BYTE	W06
	BYTE		        Dn1 
	BYTE		N06     As1 
	BYTE	W06
	BYTE		        Dn1 
	BYTE	W06
	BYTE	PEND
// 044   ----------------------------------------
	BYTE	PATT
	 POIN2	PokemonBWRoute10Sme_6_008
// 045   ----------------------------------------
	BYTE	PATT
	 POIN2	PokemonBWRoute10Sme_6_009
// 046   ----------------------------------------
	BYTE	PATT
	 POIN2	PokemonBWRoute10Sme_6_010
// 047   ----------------------------------------
	BYTE	PATT
	 POIN2	PokemonBWRoute10Sme_6_011
// 048   ----------------------------------------
	BYTE	PATT
	 POIN2	PokemonBWRoute10Sme_6_010
// 049   ----------------------------------------
	BYTE	PATT
	 POIN2	PokemonBWRoute10Sme_6_009
// 050   ----------------------------------------
	BYTE	PATT
	 POIN2	PokemonBWRoute10Sme_6_010
// 051   ----------------------------------------
	BYTE	PATT
	 POIN2	PokemonBWRoute10Sme_6_015
// 052   ----------------------------------------
	BYTE	PATT
	 POIN2	PokemonBWRoute10Sme_6_008
// 053   ----------------------------------------
	BYTE	PATT
	 POIN2	PokemonBWRoute10Sme_6_009
// 054   ----------------------------------------
	BYTE	PATT
	 POIN2	PokemonBWRoute10Sme_6_010
// 055   ----------------------------------------
	BYTE	PATT
	 POIN2	PokemonBWRoute10Sme_6_011
// 056   ----------------------------------------
	BYTE	PATT
	 POIN2	PokemonBWRoute10Sme_6_010
// 057   ----------------------------------------
	BYTE	PATT
	 POIN2	PokemonBWRoute10Sme_6_009
// 058   ----------------------------------------
	BYTE	PATT
	 POIN2	PokemonBWRoute10Sme_6_010
// 059   ----------------------------------------
	BYTE	PATT
	 POIN2	PokemonBWRoute10Sme_6_023
// 060   ----------------------------------------
	BYTE	PATT
	 POIN2	PokemonBWRoute10Sme_6_024
// 061   ----------------------------------------
	BYTE	PATT
	 POIN2	PokemonBWRoute10Sme_6_025
// 062   ----------------------------------------
	BYTE	PATT
	 POIN2	PokemonBWRoute10Sme_6_026
// 063   ----------------------------------------
	BYTE	PATT
	 POIN2	PokemonBWRoute10Sme_6_025
// 064   ----------------------------------------
	BYTE	PATT
	 POIN2	PokemonBWRoute10Sme_6_026
// 065   ----------------------------------------
	BYTE	PATT
	 POIN2	PokemonBWRoute10Sme_6_025
// 066   ----------------------------------------
	BYTE	PATT
	 POIN2	PokemonBWRoute10Sme_6_026
// 067   ----------------------------------------
	BYTE	PATT
	 POIN2	PokemonBWRoute10Sme_6_031
// 068   ----------------------------------------
	BYTE	PATT
	 POIN2	PokemonBWRoute10Sme_6_024
// 069   ----------------------------------------
	BYTE	PATT
	 POIN2	PokemonBWRoute10Sme_6_025
// 070   ----------------------------------------
	BYTE	PATT
	 POIN2	PokemonBWRoute10Sme_6_026
// 071   ----------------------------------------
	BYTE	PATT
	 POIN2	PokemonBWRoute10Sme_6_025
// 072   ----------------------------------------
	BYTE	PATT
	 POIN2	PokemonBWRoute10Sme_6_026
// 073   ----------------------------------------
	BYTE	PATT
	 POIN2	PokemonBWRoute10Sme_6_025
// 074   ----------------------------------------
	BYTE	PATT
	 POIN2	PokemonBWRoute10Sme_6_026
// 075   ----------------------------------------
	BYTE	PATT
	 POIN2	PokemonBWRoute10Sme_6_039
// 076   ----------------------------------------
	BYTE	PATT
	 POIN2	PokemonBWRoute10Sme_6_025
// 077   ----------------------------------------
	BYTE	PATT
	 POIN2	PokemonBWRoute10Sme_6_026
// 078   ----------------------------------------
	BYTE	PATT
	 POIN2	PokemonBWRoute10Sme_6_025
// 079   ----------------------------------------
	BYTE	PATT
	 POIN2	PokemonBWRoute10Sme_6_043
	BYTE	GoTo
	 POIN2	PokemonBWRoute10Sme_6_B1
PokemonBWRoute10Sme_6_B2:
// 080   ----------------------------------------
	BYTE		BEND    c_v+0
	BYTE	FINE

//**************** Track 7 (Midi-Chn.7) ****************//

PokemonBWRoute10Sme_7:
	BYTE	KEYSH   PokemonBWRoute10Sme_key+0
// 000   ----------------------------------------
	BYTE		VOICE   34
	BYTE		PAN     c_v-14
	BYTE		VOL     51*PokemonBWRoute10Sme_mvl/mxv
	BYTE		BEND    c_v+0
	BYTE		N80     Cn1   v124
	BYTE	W84
	BYTE		N03     Gn1   v116
	BYTE	W12
// 001   ----------------------------------------
	BYTE		N92     Cn2   v124
	BYTE	W96
// 002   ----------------------------------------
	BYTE		        Cn1 
	BYTE	W96
// 003   ----------------------------------------
PokemonBWRoute10Sme_7_003:
	BYTE		N23     Cn1   v116
	BYTE	W24
	BYTE		N03     Gn1   v092
	BYTE	W12
	BYTE		N23     Cn2   v116
	BYTE	W24
	BYTE		N32     Gn1 
	BYTE	W36
	BYTE	PEND
// 004   ----------------------------------------
PokemonBWRoute10Sme_7_004:
	BYTE		N80     Cn1   v124
	BYTE	W84
	BYTE		N03     Gn1   v116
	BYTE	W12
	BYTE	PEND
// 005   ----------------------------------------
	BYTE		N92     Cn2   v124
	BYTE	W96
// 006   ----------------------------------------
	BYTE		        Cn1 
	BYTE	W96
// 007   ----------------------------------------
	BYTE	PATT
	 POIN2	PokemonBWRoute10Sme_7_003
PokemonBWRoute10Sme_7_B1:
// 008   ----------------------------------------
	BYTE	PATT
	 POIN2	PokemonBWRoute10Sme_7_003
// 009   ----------------------------------------
PokemonBWRoute10Sme_7_009:
	BYTE		N32     Cn1   v124
	BYTE	W36
	BYTE		N23     Gn1   v120
	BYTE	W24
	BYTE		N11     Ds1 
	BYTE	W12
	BYTE		N07     Fn1   v116
	BYTE	W12
	BYTE		N05     Gn1   v108
	BYTE	W12
	BYTE	PEND
// 010   ----------------------------------------
PokemonBWRoute10Sme_7_010:
	BYTE		N30     As0   v116
	BYTE	W36
	BYTE		N23     Fn1   v120
	BYTE	W24
	BYTE		N11     As0   v112
	BYTE	W12
	BYTE		N07     Cn1   v116
	BYTE	W12
	BYTE		N10     Dn1   v120
	BYTE	W12
	BYTE	PEND
// 011   ----------------------------------------
PokemonBWRoute10Sme_7_011:
	BYTE		N32     Gs0   v120
	BYTE	W36
	BYTE		N23     Ds1   v124
	BYTE	W24
	BYTE		N11     Gs0   v116
	BYTE	W12
	BYTE		N05     As0   v112
	BYTE	W12
	BYTE		N11     Cn1   v120
	BYTE	W12
	BYTE	PEND
// 012   ----------------------------------------
PokemonBWRoute10Sme_7_012:
	BYTE		N32     Gn0   v124
	BYTE	W36
	BYTE		N23     Ds1   v116
	BYTE	W24
	BYTE		N11     As1   v120
	BYTE	W12
	BYTE		        Gn1   v112
	BYTE	W12
	BYTE		        As0 
	BYTE	W12
	BYTE	PEND
// 013   ----------------------------------------
PokemonBWRoute10Sme_7_013:
	BYTE		N32     Fn0   v124
	BYTE	W36
	BYTE		N23     Cn1   v120
	BYTE	W24
	BYTE		N11     Gs0 
	BYTE	W12
	BYTE		N07     As0   v116
	BYTE	W12
	BYTE		N05     Cn1   v108
	BYTE	W12
	BYTE	PEND
// 014   ----------------------------------------
PokemonBWRoute10Sme_7_014:
	BYTE		N30     Ds1   v116
	BYTE	W36
	BYTE		N23     Cn2   v120
	BYTE	W24
	BYTE		N11     Ds1   v112
	BYTE	W12
	BYTE		N07     Fn1   v116
	BYTE	W12
	BYTE		N05     Gn1   v120
	BYTE	W12
	BYTE	PEND
// 015   ----------------------------------------
PokemonBWRoute10Sme_7_015:
	BYTE		N32     Dn1   v120
	BYTE	W36
	BYTE		N23     An1   v124
	BYTE	W24
	BYTE		N11     Dn1   v116
	BYTE	W12
	BYTE		N05     En1   v112
	BYTE	W12
	BYTE		N11     Fs1   v120
	BYTE	W12
	BYTE	PEND
// 016   ----------------------------------------
PokemonBWRoute10Sme_7_016:
	BYTE		N32     Gn0   v124
	BYTE	W36
	BYTE		N23     Dn1   v116
	BYTE	W24
	BYTE		N11     Gn1   v120
	BYTE	W12
	BYTE		        Dn1   v112
	BYTE	W12
	BYTE		        Bn0 
	BYTE	W12
	BYTE	PEND
// 017   ----------------------------------------
	BYTE	PATT
	 POIN2	PokemonBWRoute10Sme_7_009
// 018   ----------------------------------------
	BYTE	PATT
	 POIN2	PokemonBWRoute10Sme_7_010
// 019   ----------------------------------------
	BYTE	PATT
	 POIN2	PokemonBWRoute10Sme_7_011
// 020   ----------------------------------------
	BYTE	PATT
	 POIN2	PokemonBWRoute10Sme_7_012
// 021   ----------------------------------------
	BYTE	PATT
	 POIN2	PokemonBWRoute10Sme_7_013
// 022   ----------------------------------------
	BYTE	PATT
	 POIN2	PokemonBWRoute10Sme_7_014
// 023   ----------------------------------------
	BYTE	PATT
	 POIN2	PokemonBWRoute10Sme_7_015
// 024   ----------------------------------------
	BYTE	PATT
	 POIN2	PokemonBWRoute10Sme_7_016
// 025   ----------------------------------------
PokemonBWRoute10Sme_7_025:
	BYTE		N32     Fn0   v120
	BYTE	W36
	BYTE		N23     Cn1   v124
	BYTE	W24
	BYTE		N11     Fn0   v116
	BYTE	W12
	BYTE		N05     Gs0   v112
	BYTE	W12
	BYTE		N11     Cn1   v120
	BYTE	W12
	BYTE	PEND
// 026   ----------------------------------------
PokemonBWRoute10Sme_7_026:
	BYTE		N23     As0   v120
	BYTE	W24
	BYTE		N02     Dn1   v100
	BYTE	W12
	BYTE		N23     Fn1   v116
	BYTE	W24
	BYTE		N11     As0 
	BYTE	W12
	BYTE		N05     Dn1   v112
	BYTE	W12
	BYTE		N11     Fn1   v120
	BYTE	W12
	BYTE	PEND
// 027   ----------------------------------------
PokemonBWRoute10Sme_7_027:
	BYTE		N32     Ds0   v120
	BYTE	W36
	BYTE		N23     As0   v124
	BYTE	W24
	BYTE		N11     Ds0   v116
	BYTE	W12
	BYTE		N05     Fs0   v112
	BYTE	W12
	BYTE		N11     As0   v120
	BYTE	W12
	BYTE	PEND
// 028   ----------------------------------------
PokemonBWRoute10Sme_7_028:
	BYTE		N23     Gs0   v120
	BYTE	W24
	BYTE		N02     Ds1   v100
	BYTE	W12
	BYTE		N23     Gs0   v124
	BYTE	W24
	BYTE		        Gn0   v116
	BYTE	W24
	BYTE		N04     Gs0   v112
	BYTE	W12
	BYTE	PEND
// 029   ----------------------------------------
	BYTE	PATT
	 POIN2	PokemonBWRoute10Sme_7_025
// 030   ----------------------------------------
PokemonBWRoute10Sme_7_030:
	BYTE		N32     As0   v120
	BYTE	W36
	BYTE		N23     Fn1   v124
	BYTE	W24
	BYTE		N11     As0   v116
	BYTE	W12
	BYTE		N05     Dn1   v112
	BYTE	W12
	BYTE		N11     As0   v120
	BYTE	W12
	BYTE	PEND
// 031   ----------------------------------------
PokemonBWRoute10Sme_7_031:
	BYTE		N32     Ds0   v120
	BYTE	W36
	BYTE		        As0   v124
	BYTE	W36
	BYTE		N23     Ds0   v116
	BYTE	W24
	BYTE	PEND
// 032   ----------------------------------------
PokemonBWRoute10Sme_7_032:
	BYTE		N23     Gn0   v120
	BYTE	W24
	BYTE		N02     Dn0   v100
	BYTE	W12
	BYTE		N23     Gn0   v124
	BYTE	W24
	BYTE		        Dn1   v116
	BYTE	W24
	BYTE		N11     Gn0   v112
	BYTE	W12
	BYTE	PEND
// 033   ----------------------------------------
	BYTE	PATT
	 POIN2	PokemonBWRoute10Sme_7_025
// 034   ----------------------------------------
	BYTE	PATT
	 POIN2	PokemonBWRoute10Sme_7_026
// 035   ----------------------------------------
	BYTE	PATT
	 POIN2	PokemonBWRoute10Sme_7_027
// 036   ----------------------------------------
	BYTE	PATT
	 POIN2	PokemonBWRoute10Sme_7_028
// 037   ----------------------------------------
	BYTE	PATT
	 POIN2	PokemonBWRoute10Sme_7_025
// 038   ----------------------------------------
PokemonBWRoute10Sme_7_038:
	BYTE		N32     Gn0   v120
	BYTE	W36
	BYTE		N23     Dn1   v124
	BYTE	W24
	BYTE		N11     Gn0   v116
	BYTE	W12
	BYTE		N05     As0   v112
	BYTE	W12
	BYTE		N11     Dn1   v120
	BYTE	W12
	BYTE	PEND
// 039   ----------------------------------------
PokemonBWRoute10Sme_7_039:
	BYTE		N32     Gs0   v120
	BYTE	W36
	BYTE		N23     Ds1   v124
	BYTE	W24
	BYTE		N11     Gs0   v116
	BYTE	W12
	BYTE		N05     Cn1   v112
	BYTE	W12
	BYTE		N11     Ds1   v120
	BYTE	W12
	BYTE	PEND
// 040   ----------------------------------------
PokemonBWRoute10Sme_7_040:
	BYTE		N23     As0   v120
	BYTE	W24
	BYTE		N02     Fn1   v100
	BYTE	W12
	BYTE		N23     As1   v124
	BYTE	W24
	BYTE		N02     Fn1   v116
	BYTE	W12
	BYTE		N23     As0   v112
	BYTE	W24
	BYTE	PEND
// 041   ----------------------------------------
	BYTE	PATT
	 POIN2	PokemonBWRoute10Sme_7_004
// 042   ----------------------------------------
	BYTE		N92     Cn2   v124
	BYTE	W96
// 043   ----------------------------------------
	BYTE		        Cn1 
	BYTE	W96
// 044   ----------------------------------------
	BYTE	PATT
	 POIN2	PokemonBWRoute10Sme_7_003
// 045   ----------------------------------------
	BYTE	PATT
	 POIN2	PokemonBWRoute10Sme_7_009
// 046   ----------------------------------------
	BYTE	PATT
	 POIN2	PokemonBWRoute10Sme_7_010
// 047   ----------------------------------------
	BYTE	PATT
	 POIN2	PokemonBWRoute10Sme_7_011
// 048   ----------------------------------------
	BYTE	PATT
	 POIN2	PokemonBWRoute10Sme_7_012
// 049   ----------------------------------------
	BYTE	PATT
	 POIN2	PokemonBWRoute10Sme_7_013
// 050   ----------------------------------------
	BYTE	PATT
	 POIN2	PokemonBWRoute10Sme_7_014
// 051   ----------------------------------------
	BYTE	PATT
	 POIN2	PokemonBWRoute10Sme_7_015
// 052   ----------------------------------------
	BYTE	PATT
	 POIN2	PokemonBWRoute10Sme_7_016
// 053   ----------------------------------------
	BYTE	PATT
	 POIN2	PokemonBWRoute10Sme_7_009
// 054   ----------------------------------------
	BYTE	PATT
	 POIN2	PokemonBWRoute10Sme_7_010
// 055   ----------------------------------------
	BYTE	PATT
	 POIN2	PokemonBWRoute10Sme_7_011
// 056   ----------------------------------------
	BYTE	PATT
	 POIN2	PokemonBWRoute10Sme_7_012
// 057   ----------------------------------------
	BYTE	PATT
	 POIN2	PokemonBWRoute10Sme_7_013
// 058   ----------------------------------------
	BYTE	PATT
	 POIN2	PokemonBWRoute10Sme_7_014
// 059   ----------------------------------------
	BYTE	PATT
	 POIN2	PokemonBWRoute10Sme_7_015
// 060   ----------------------------------------
	BYTE	PATT
	 POIN2	PokemonBWRoute10Sme_7_016
// 061   ----------------------------------------
	BYTE	PATT
	 POIN2	PokemonBWRoute10Sme_7_025
// 062   ----------------------------------------
	BYTE	PATT
	 POIN2	PokemonBWRoute10Sme_7_026
// 063   ----------------------------------------
	BYTE	PATT
	 POIN2	PokemonBWRoute10Sme_7_027
// 064   ----------------------------------------
	BYTE	PATT
	 POIN2	PokemonBWRoute10Sme_7_028
// 065   ----------------------------------------
	BYTE	PATT
	 POIN2	PokemonBWRoute10Sme_7_025
// 066   ----------------------------------------
	BYTE	PATT
	 POIN2	PokemonBWRoute10Sme_7_030
// 067   ----------------------------------------
	BYTE	PATT
	 POIN2	PokemonBWRoute10Sme_7_031
// 068   ----------------------------------------
	BYTE	PATT
	 POIN2	PokemonBWRoute10Sme_7_032
// 069   ----------------------------------------
	BYTE	PATT
	 POIN2	PokemonBWRoute10Sme_7_025
// 070   ----------------------------------------
	BYTE	PATT
	 POIN2	PokemonBWRoute10Sme_7_026
// 071   ----------------------------------------
	BYTE	PATT
	 POIN2	PokemonBWRoute10Sme_7_027
// 072   ----------------------------------------
	BYTE	PATT
	 POIN2	PokemonBWRoute10Sme_7_028
// 073   ----------------------------------------
	BYTE	PATT
	 POIN2	PokemonBWRoute10Sme_7_025
// 074   ----------------------------------------
	BYTE	PATT
	 POIN2	PokemonBWRoute10Sme_7_038
// 075   ----------------------------------------
	BYTE	PATT
	 POIN2	PokemonBWRoute10Sme_7_039
// 076   ----------------------------------------
	BYTE	PATT
	 POIN2	PokemonBWRoute10Sme_7_040
// 077   ----------------------------------------
	BYTE	PATT
	 POIN2	PokemonBWRoute10Sme_7_004
// 078   ----------------------------------------
	BYTE		N92     Cn2   v124
	BYTE	W96
// 079   ----------------------------------------
	BYTE		        Cn1 
	BYTE	W96
	BYTE	GoTo
	 POIN2	PokemonBWRoute10Sme_7_B1
PokemonBWRoute10Sme_7_B2:
// 080   ----------------------------------------
	BYTE		BEND    c_v+0
	BYTE	FINE

//******************************************************//
	ALIGN 4

PokemonBWRoute10Sme:
	BYTE	7	// NumTrks
	BYTE	0	// NumBlks
	BYTE	PokemonBWRoute10Sme_pri	// Priority
	BYTE	PokemonBWRoute10Sme_rev	// Reverb.

	POIN2	PokemonBWRoute10Sme_grp

	POIN2	PokemonBWRoute10Sme_1
	POIN2	PokemonBWRoute10Sme_2
	POIN2	PokemonBWRoute10Sme_3
	POIN2	PokemonBWRoute10Sme_4
	POIN2	PokemonBWRoute10Sme_5
	POIN2	PokemonBWRoute10Sme_6
	POIN2	PokemonBWRoute10Sme_7

	
