//Event file generated from Sappy .s format.
	#include "MPlayDef.event"

	#define	PokemonMDExplorersDefendGlobePsyche_grp  voicegroup000
	#define	PokemonMDExplorersDefendGlobePsyche_pri  0
	#define	PokemonMDExplorersDefendGlobePsyche_rev  132
	#define	PokemonMDExplorersDefendGlobePsyche_mvl  127
	#define	PokemonMDExplorersDefendGlobePsyche_key  0
	#define	PokemonMDExplorersDefendGlobePsyche_tbs  1
	#define	PokemonMDExplorersDefendGlobePsyche_exg  0
	#define	PokemonMDExplorersDefendGlobePsyche_cmp  1

	// .rodata
	//	PokemonMDExplorersDefendGlobePsyche
	ALIGN 4


//**************** Track 1 (Midi-Chn.0) ****************//

PokemonMDExplorersDefendGlobePsyche_001:
//  #01 //000   ----------------------------------------
 BYTE   KEYSH   PokemonMDExplorersDefendGlobePsyche_key+0
 BYTE   TEMPO   68*PokemonMDExplorersDefendGlobePsyche_tbs/2
 BYTE   VOICE   10
 BYTE   PAN   c_v+0
 BYTE   VOL   29*PokemonMDExplorersDefendGlobePsyche_mvl/mxv
 BYTE   BEND   c_v+0
 BYTE   N24  An3  v127
 BYTE   W01
 BYTE   N44  En3  v100
 BYTE   W02
 BYTE   Dn3
 BYTE   W01
 BYTE   N42  En2
 BYTE   W20
 BYTE   N24  Bn3  v127
 BYTE   W05
 BYTE   TEMPO   68*PokemonMDExplorersDefendGlobePsyche_tbs/2
 BYTE   W06
 BYTE   TEMPO   58*PokemonMDExplorersDefendGlobePsyche_tbs/2
 BYTE   W07
 BYTE   TEMPO   56*PokemonMDExplorersDefendGlobePsyche_tbs/2
 BYTE   W06
 BYTE   TEMPO   50*PokemonMDExplorersDefendGlobePsyche_tbs/2
 BYTE   N48  Gs3
 BYTE   W01
 BYTE   N44  En3  v100
 BYTE   W02
 BYTE   Dn3
 BYTE   W01
 BYTE   N42  En2
 BYTE   W20
 BYTE   TEMPO   60*PokemonMDExplorersDefendGlobePsyche_tbs/2
 BYTE   W24
//  #01 //001   ----------------------------------------
Label_0105D6FB:
 BYTE   TEMPO   68*PokemonMDExplorersDefendGlobePsyche_tbs/2
 BYTE   N12  Cs4  v127
 BYTE   W12
 BYTE   Dn4
 BYTE   W12
 BYTE   PEND 
Label_0105D704:
 BYTE   N12  Cs4  v127
 BYTE   W12
 BYTE   En3
 BYTE   W12
 BYTE   PEND 
 BYTE   N48  Cs4
 BYTE   W24
 BYTE   W24
//  #01 //002   ----------------------------------------
 BYTE   W12
 BYTE   N12  En4
 BYTE   W12
Label_0105D713:
 BYTE   N12  En4  v127
 BYTE   W12
 BYTE   Dn4
 BYTE   W12
 BYTE   PEND 
Label_0105D71A:
 BYTE   N12  Dn4  v127
 BYTE   W12
 BYTE   Cs4
 BYTE   W12
 BYTE   PEND 
Label_0105D721:
 BYTE   N12  Bn3  v127
 BYTE   W12
 BYTE   An3
 BYTE   W12
 BYTE   PEND 
//  #01 //003   ----------------------------------------
Label_0105D728:
 BYTE   N12  Gs3  v127
 BYTE   W12
 BYTE   An3
 BYTE   W12
 BYTE   PEND 
Label_0105D72F:
 BYTE   N12  Gs3  v127
 BYTE   W12
 BYTE   Cs3
 BYTE   W12
 BYTE   PEND 
 BYTE   N48  Gs3
 BYTE   W24
 BYTE   W24
//  #01 //004   ----------------------------------------
 BYTE   W12
 BYTE   N12  Cs4
 BYTE   W12
Label_0105D73E:
 BYTE   N12  Cs4  v127
 BYTE   W12
 BYTE   Bn3
 BYTE   W12
 BYTE   PEND 
//  #01 //005   ----------------------------------------
 BYTE   PATT
  POIN2 Label_0105D721
//  #01 //006   ----------------------------------------
Label_0105D74A:
 BYTE   N12  Gs3  v127
 BYTE   W12
 BYTE   En3
 BYTE   W12
 BYTE   PEND 
 BYTE   N60  Fs3
 BYTE   W24
 BYTE   W24
 BYTE   W12
 BYTE   N12  Gs3
 BYTE   W12
//  #01 //007   ----------------------------------------
Label_0105D759:
 BYTE   N12  An3  v127
 BYTE   W12
 BYTE   Bn3
 BYTE   W12
 BYTE   PEND 
 BYTE   N60  Fs3
 BYTE   W24
 BYTE   W24
 BYTE   W12
 BYTE   N12  Gs3
 BYTE   W12
//  #01 //008   ----------------------------------------
 BYTE   PATT
  POIN2 Label_0105D759
//  #01 //009   ----------------------------------------
 BYTE   N24  An3  v127
 BYTE   W24
 BYTE   Gs3
 BYTE   W24
 BYTE   Fs3
 BYTE   W24
 BYTE   En3
 BYTE   W24
//  #01 //010   ----------------------------------------
 BYTE   Dn3
 BYTE   W24
Label_0105D779:
 BYTE   N24  Cs3  v127
 BYTE   W21
 BYTE   TEMPO   68*PokemonMDExplorersDefendGlobePsyche_tbs/2
 BYTE   W03
 BYTE   PEND 
Label_0105D781:
 BYTE   N24  Dn3  v127
 BYTE   W08
 BYTE   TEMPO   58*PokemonMDExplorersDefendGlobePsyche_tbs/2
 BYTE   W06
 BYTE   TEMPO   54*PokemonMDExplorersDefendGlobePsyche_tbs/2
 BYTE   W06
 BYTE   TEMPO   50*PokemonMDExplorersDefendGlobePsyche_tbs/2
 BYTE   W04
 BYTE   PEND 
Label_0105D78F:
 BYTE   N24  En3  v127
 BYTE   W08
 BYTE   TEMPO   40*PokemonMDExplorersDefendGlobePsyche_tbs/2
 BYTE   W16
 BYTE   PEND 
//  #01 //011   ----------------------------------------
 BYTE   PATT
  POIN2 Label_0105D6FB
//  #01 //012   ----------------------------------------
 BYTE   PATT
  POIN2 Label_0105D704
//  #01 //013   ----------------------------------------
 BYTE   N48  Cs4  v127
 BYTE   W24
 BYTE   W24
 BYTE   W12
 BYTE   N12  En4
 BYTE   W12
//  #01 //014   ----------------------------------------
 BYTE   PATT
  POIN2 Label_0105D713
//  #01 //015   ----------------------------------------
 BYTE   PATT
  POIN2 Label_0105D71A
//  #01 //016   ----------------------------------------
 BYTE   PATT
  POIN2 Label_0105D721
//  #01 //017   ----------------------------------------
 BYTE   PATT
  POIN2 Label_0105D728
//  #01 //018   ----------------------------------------
 BYTE   PATT
  POIN2 Label_0105D72F
//  #01 //019   ----------------------------------------
 BYTE   N48  Gs3  v127
 BYTE   W24
 BYTE   W24
 BYTE   W12
 BYTE   N12  Cs4
 BYTE   W12
//  #01 //020   ----------------------------------------
 BYTE   PATT
  POIN2 Label_0105D73E
//  #01 //021   ----------------------------------------
 BYTE   PATT
  POIN2 Label_0105D721
//  #01 //022   ----------------------------------------
 BYTE   PATT
  POIN2 Label_0105D74A
//  #01 //023   ----------------------------------------
 BYTE   N24  Fs3  v127
 BYTE   W24
 BYTE   Cs4
 BYTE   W24
 BYTE   Bn3
 BYTE   W24
 BYTE   An3
 BYTE   W24
//  #01 //024   ----------------------------------------
 BYTE   Fs3
 BYTE   W24
 BYTE   Cs4
 BYTE   W24
 BYTE   Bn3
 BYTE   W24
 BYTE   An3
 BYTE   W24
//  #01 //025   ----------------------------------------
 BYTE   N96
 BYTE   W24
 BYTE   W24
 BYTE   W24
 BYTE   W24
//  #01 //026   ----------------------------------------
 BYTE   W24
 BYTE   W24
 BYTE   W24
 BYTE   W24
//  #01 //027   ----------------------------------------
 BYTE   N48  En4
 BYTE   W24
 BYTE   W24
//  #01 //028   ----------------------------------------
 BYTE   PATT
  POIN2 Label_0105D713
//  #01 //029   ----------------------------------------
Label_0105D7FF:
 BYTE   N12  Cs4  v127
 BYTE   W12
 BYTE   Fs3
 BYTE   W12
 BYTE   PEND 
Label_0105D806:
 BYTE   N12  Cs4  v127
 BYTE   W12
 BYTE   N84  Dn4
 BYTE   W12
 BYTE   PEND 
 BYTE   W24
 BYTE   W24
//  #01 //030   ----------------------------------------
 BYTE   W24
 BYTE   N48
 BYTE   W24
 BYTE   W24
//  #01 //031   ----------------------------------------
 BYTE   PATT
  POIN2 Label_0105D71A
//  #01 //032   ----------------------------------------
 BYTE   PATT
  POIN2 Label_0105D721
//  #01 //033   ----------------------------------------
Label_0105D81E:
 BYTE   N12  Gs3  v127
 BYTE   W12
 BYTE   N36  An3
 BYTE   W12
 BYTE   PEND 
 BYTE   W24
//  #01 //034   ----------------------------------------
 BYTE   PATT
  POIN2 Label_0105D759
//  #01 //035   ----------------------------------------
Label_0105D82C:
 BYTE   N12  Cs4  v127
 BYTE   W12
 BYTE   An3
 BYTE   W12
 BYTE   PEND 
 BYTE   N48  Fs4
 BYTE   W24
 BYTE   W24
Label_0105D837:
 BYTE   N12  Fs4  v127
 BYTE   W12
 BYTE   Gs4
 BYTE   W12
 BYTE   PEND 
//  #01 //036   ----------------------------------------
Label_0105D83E:
 BYTE   N12  En4  v127
 BYTE   W12
 BYTE   Ds4
 BYTE   W12
 BYTE   PEND 
 BYTE   N24  En4
 BYTE   W24
 BYTE   Ds4
 BYTE   W24
 BYTE   Cs4
 BYTE   W24
//  #01 //037   ----------------------------------------
 BYTE   PATT
  POIN2 Label_0105D721
//  #01 //038   ----------------------------------------
 BYTE   W12
 BYTE   N12  Bn3  v127
 BYTE   W12
Label_0105D856:
 BYTE   N12  En4  v127
 BYTE   W12
 BYTE   Bn3
 BYTE   W12
 BYTE   PEND 
 BYTE   N36  En3
 BYTE   W24
 BYTE   W12
 BYTE   N12  Fs3
 BYTE   W12
//  #01 //039   ----------------------------------------
 BYTE   N72
 BYTE   W24
 BYTE   W24
 BYTE   W24
Label_0105D868:
 BYTE   N12  Cs3  v127
 BYTE   W12
 BYTE   Gs3
 BYTE   W12
 BYTE   PEND 
//  #01 //040   ----------------------------------------
 BYTE   N96  Fs3
 BYTE   W24
 BYTE   W24
 BYTE   W24
 BYTE   W24
//  #01 //041   ----------------------------------------
 BYTE   W24
 BYTE   W24
 BYTE   W24
 BYTE   W24
//  #01 //042   ----------------------------------------
Label_0105D879:
 BYTE   N12  Gs4  v127
 BYTE   W12
 BYTE   An4
 BYTE   W12
 BYTE   PEND 
Label_0105D880:
 BYTE   N12  Gs4  v127
 BYTE   W12
 BYTE   Bn3
 BYTE   W12
 BYTE   PEND 
 BYTE   N48  Gs4
 BYTE   W24
 BYTE   W24
//  #01 //043   ----------------------------------------
 BYTE   W12
 BYTE   N12  Bn4
 BYTE   W12
Label_0105D88F:
 BYTE   N12  Bn4  v127
 BYTE   W12
 BYTE   An4
 BYTE   W12
 BYTE   PEND 
Label_0105D896:
 BYTE   N12  An4  v127
 BYTE   W12
 BYTE   Gs4
 BYTE   W12
 BYTE   PEND 
Label_0105D89D:
 BYTE   N12  Fs4  v127
 BYTE   W12
 BYTE   En4
 BYTE   W12
 BYTE   PEND 
//  #01 //044   ----------------------------------------
Label_0105D8A4:
 BYTE   N12  Ds4  v127
 BYTE   W12
 BYTE   En4
 BYTE   W12
 BYTE   PEND 
Label_0105D8AB:
 BYTE   N12  Ds4  v127
 BYTE   W12
 BYTE   Gs3
 BYTE   W12
 BYTE   PEND 
 BYTE   N48  Ds4
 BYTE   W24
 BYTE   W24
//  #01 //045   ----------------------------------------
 BYTE   W12
 BYTE   N12  Gs4
 BYTE   W12
Label_0105D8BA:
 BYTE   N12  Gs4  v127
 BYTE   W12
 BYTE   Fs4
 BYTE   W12
 BYTE   PEND 
//  #01 //046   ----------------------------------------
 BYTE   PATT
  POIN2 Label_0105D89D
//  #01 //047   ----------------------------------------
Label_0105D8C6:
 BYTE   N12  Ds4  v127
 BYTE   W12
 BYTE   Bn3
 BYTE   W12
 BYTE   PEND 
 BYTE   N60  Cs4
 BYTE   W24
 BYTE   W24
 BYTE   W12
 BYTE   N12  Ds4
 BYTE   W12
//  #01 //048   ----------------------------------------
Label_0105D8D5:
 BYTE   N12  En4  v127
 BYTE   W12
 BYTE   Fs4
 BYTE   W12
 BYTE   PEND 
 BYTE   N48  Cs4
 BYTE   W24
 BYTE   W24
//  #01 //049   ----------------------------------------
 BYTE   PATT
  POIN2 Label_0105D88F
//  #01 //050   ----------------------------------------
 BYTE   PATT
  POIN2 Label_0105D8BA
//  #01 //051   ----------------------------------------
Label_0105D8EA:
 BYTE   W12
 BYTE   N12  Gs3  v127
 BYTE   N12  Ds4
 BYTE   N12  Fs4
 BYTE   W12
 BYTE   PEND 
Label_0105D8F4:
 BYTE   N12  Gs3  v127
 BYTE   N12  Cs4
 BYTE   N12  En4
 BYTE   W12
 BYTE   Gs3
 BYTE   N12  Ds4
 BYTE   N12  Fs4
 BYTE   W12
 BYTE   PEND 
Label_0105D903:
 BYTE   N60  Bn3  v127
 BYTE   N60  Ds4
 BYTE   N60  Gs4
 BYTE   W24
 BYTE   PEND 
 BYTE   W24
//  #01 //052   ----------------------------------------
Label_0105D90D:
 BYTE   W12
 BYTE   N12  Cs4  v127
 BYTE   N12  An4
 BYTE   W12
 BYTE   PEND 
Label_0105D915:
 BYTE   N12  Bn3  v127
 BYTE   N12  Gs4
 BYTE   W12
 BYTE   Cs4
 BYTE   N12  An4
 BYTE   W12
 BYTE   PEND 
Label_0105D920:
 BYTE   N48  En4  v127
 BYTE   N36  Bn4
 BYTE   W24
 BYTE   PEND 
 BYTE   W12
 BYTE   N12  En5
 BYTE   W12
//  #01 //053   ----------------------------------------
 BYTE   N24  Bn4
 BYTE   W24
 BYTE   An4
 BYTE   W24
 BYTE   Gs4
 BYTE   W24
 BYTE   Fs4
 BYTE   W24
//  #01 //054   ----------------------------------------
 BYTE   En4
 BYTE   W24
 BYTE   Ds4
 BYTE   W24
 BYTE   Cs4
 BYTE   W24
 BYTE   Ds4
 BYTE   W24
//  #01 //055   ----------------------------------------
Label_0105D93C:
 BYTE   N12  En4  v127
 BYTE   W12
 BYTE   An3
 BYTE   W12
 BYTE   PEND 
//  #01 //056   ----------------------------------------
 BYTE   PATT
  POIN2 Label_0105D721
//  #01 //057   ----------------------------------------
 BYTE   PATT
  POIN2 Label_0105D93C
//  #01 //058   ----------------------------------------
Label_0105D94D:
 BYTE   N12  Dn4  v127
 BYTE   W12
 BYTE   An3
 BYTE   W12
 BYTE   PEND 
//  #01 //059   ----------------------------------------
 BYTE   PATT
  POIN2 Label_0105D93C
//  #01 //060   ----------------------------------------
 BYTE   PATT
  POIN2 Label_0105D721
//  #01 //061   ----------------------------------------
 BYTE   PATT
  POIN2 Label_0105D93C
//  #01 //062   ----------------------------------------
 BYTE   PATT
  POIN2 Label_0105D94D
//  #01 //063   ----------------------------------------
 BYTE   PATT
  POIN2 Label_0105D93C
//  #01 //064   ----------------------------------------
 BYTE   PATT
  POIN2 Label_0105D721
//  #01 //065   ----------------------------------------
 BYTE   PATT
  POIN2 Label_0105D93C
//  #01 //066   ----------------------------------------
 BYTE   PATT
  POIN2 Label_0105D94D
//  #01 //067   ----------------------------------------
 BYTE   W24
 BYTE   W18
 BYTE   TEMPO   68*PokemonMDExplorersDefendGlobePsyche_tbs/2
 BYTE   W06
Label_0105D981:
 BYTE   TEMPO   58*PokemonMDExplorersDefendGlobePsyche_tbs/2
 BYTE   W08
 BYTE   TEMPO   58*PokemonMDExplorersDefendGlobePsyche_tbs/2
 BYTE   W07
 BYTE   TEMPO   54*PokemonMDExplorersDefendGlobePsyche_tbs/2
 BYTE   W07
 BYTE   TEMPO   50*PokemonMDExplorersDefendGlobePsyche_tbs/2
 BYTE   W02
 BYTE   PEND 
 BYTE   GoTo
  POIN2 Label_0105D6FB
//  #01 //068   ----------------------------------------
Label_0105D993:
 BYTE   W06
 BYTE   TEMPO   44*PokemonMDExplorersDefendGlobePsyche_tbs/2
 BYTE   W06
 BYTE   TEMPO   34*PokemonMDExplorersDefendGlobePsyche_tbs/2
 BYTE   W09
 BYTE   TEMPO   68*PokemonMDExplorersDefendGlobePsyche_tbs/2
 BYTE   W03
 BYTE   PEND 
//  #01 //069   ----------------------------------------
 BYTE   PATT
  POIN2 Label_0105D6FB
//  #01 //070   ----------------------------------------
 BYTE   PATT
  POIN2 Label_0105D704
//  #01 //071   ----------------------------------------
 BYTE   N48  Cs4  v127
 BYTE   W24
 BYTE   W24
 BYTE   W12
 BYTE   N12  En4
 BYTE   W12
//  #01 //072   ----------------------------------------
 BYTE   PATT
  POIN2 Label_0105D713
//  #01 //073   ----------------------------------------
 BYTE   PATT
  POIN2 Label_0105D71A
//  #01 //074   ----------------------------------------
 BYTE   PATT
  POIN2 Label_0105D721
//  #01 //075   ----------------------------------------
 BYTE   PATT
  POIN2 Label_0105D728
//  #01 //076   ----------------------------------------
 BYTE   PATT
  POIN2 Label_0105D72F
//  #01 //077   ----------------------------------------
 BYTE   N48  Gs3  v127
 BYTE   W24
 BYTE   W24
 BYTE   W12
 BYTE   N12  Cs4
 BYTE   W12
//  #01 //078   ----------------------------------------
 BYTE   PATT
  POIN2 Label_0105D73E
//  #01 //079   ----------------------------------------
 BYTE   PATT
  POIN2 Label_0105D721
//  #01 //080   ----------------------------------------
 BYTE   PATT
  POIN2 Label_0105D74A
//  #01 //081   ----------------------------------------
 BYTE   N60  Fs3  v127
 BYTE   W24
 BYTE   W24
 BYTE   W12
 BYTE   N12  Gs3
 BYTE   W12
//  #01 //082   ----------------------------------------
 BYTE   PATT
  POIN2 Label_0105D759
//  #01 //083   ----------------------------------------
 BYTE   N60  Fs3  v127
 BYTE   W24
 BYTE   W24
 BYTE   W12
 BYTE   N12  Gs3
 BYTE   W12
//  #01 //084   ----------------------------------------
 BYTE   PATT
  POIN2 Label_0105D759
//  #01 //085   ----------------------------------------
 BYTE   N24  An3  v127
 BYTE   W24
 BYTE   Gs3
 BYTE   W24
 BYTE   Fs3
 BYTE   W24
 BYTE   En3
 BYTE   W24
//  #01 //086   ----------------------------------------
 BYTE   Dn3
 BYTE   W24
//  #01 //087   ----------------------------------------
 BYTE   PATT
  POIN2 Label_0105D779
//  #01 //088   ----------------------------------------
 BYTE   PATT
  POIN2 Label_0105D781
//  #01 //089   ----------------------------------------
 BYTE   PATT
  POIN2 Label_0105D78F
//  #01 //090   ----------------------------------------
 BYTE   PATT
  POIN2 Label_0105D6FB
//  #01 //091   ----------------------------------------
 BYTE   PATT
  POIN2 Label_0105D704
//  #01 //092   ----------------------------------------
 BYTE   N48  Cs4  v127
 BYTE   W24
 BYTE   W24
 BYTE   W12
 BYTE   N12  En4
 BYTE   W12
//  #01 //093   ----------------------------------------
 BYTE   PATT
  POIN2 Label_0105D713
//  #01 //094   ----------------------------------------
 BYTE   PATT
  POIN2 Label_0105D71A
//  #01 //095   ----------------------------------------
 BYTE   PATT
  POIN2 Label_0105D721
//  #01 //096   ----------------------------------------
 BYTE   PATT
  POIN2 Label_0105D728
//  #01 //097   ----------------------------------------
 BYTE   PATT
  POIN2 Label_0105D72F
//  #01 //098   ----------------------------------------
 BYTE   N48  Gs3  v127
 BYTE   W24
 BYTE   W24
 BYTE   W12
 BYTE   N12  Cs4
 BYTE   W12
//  #01 //099   ----------------------------------------
 BYTE   PATT
  POIN2 Label_0105D73E
//  #01 //100   ----------------------------------------
 BYTE   PATT
  POIN2 Label_0105D721
//  #01 //101   ----------------------------------------
 BYTE   PATT
  POIN2 Label_0105D74A
//  #01 //102   ----------------------------------------
 BYTE   N24  Fs3  v127
 BYTE   W24
 BYTE   Cs4
 BYTE   W24
 BYTE   Bn3
 BYTE   W24
 BYTE   An3
 BYTE   W24
//  #01 //103   ----------------------------------------
 BYTE   Fs3
 BYTE   W24
 BYTE   Cs4
 BYTE   W24
 BYTE   Bn3
 BYTE   W24
 BYTE   An3
 BYTE   W24
//  #01 //104   ----------------------------------------
 BYTE   N96
 BYTE   W24
 BYTE   W24
 BYTE   W24
 BYTE   W24
//  #01 //105   ----------------------------------------
 BYTE   W24
 BYTE   W24
 BYTE   W24
 BYTE   W24
//  #01 //106   ----------------------------------------
 BYTE   N48  En4
 BYTE   W24
 BYTE   W24
//  #01 //107   ----------------------------------------
 BYTE   PATT
  POIN2 Label_0105D713
//  #01 //108   ----------------------------------------
 BYTE   PATT
  POIN2 Label_0105D7FF
//  #01 //109   ----------------------------------------
 BYTE   PATT
  POIN2 Label_0105D806
//  #01 //110   ----------------------------------------
 BYTE   W24
 BYTE   W24
 BYTE   W24
 BYTE   N48  Dn4  v127
 BYTE   W24
//  #01 //111   ----------------------------------------
 BYTE   W24
//  #01 //112   ----------------------------------------
 BYTE   PATT
  POIN2 Label_0105D71A
//  #01 //113   ----------------------------------------
 BYTE   PATT
  POIN2 Label_0105D721
//  #01 //114   ----------------------------------------
 BYTE   PATT
  POIN2 Label_0105D81E
//  #01 //115   ----------------------------------------
 BYTE   W24
//  #01 //116   ----------------------------------------
 BYTE   PATT
  POIN2 Label_0105D759
//  #01 //117   ----------------------------------------
 BYTE   PATT
  POIN2 Label_0105D82C
//  #01 //118   ----------------------------------------
 BYTE   N48  Fs4  v127
 BYTE   W24
 BYTE   W24
//  #01 //119   ----------------------------------------
 BYTE   PATT
  POIN2 Label_0105D837
//  #01 //120   ----------------------------------------
 BYTE   PATT
  POIN2 Label_0105D83E
//  #01 //121   ----------------------------------------
 BYTE   N24  En4  v127
 BYTE   W24
 BYTE   Ds4
 BYTE   W24
 BYTE   Cs4
 BYTE   W24
//  #01 //122   ----------------------------------------
 BYTE   PATT
  POIN2 Label_0105D721
//  #01 //123   ----------------------------------------
 BYTE   W12
 BYTE   N12  Bn3  v127
 BYTE   W12
//  #01 //124   ----------------------------------------
 BYTE   PATT
  POIN2 Label_0105D856
//  #01 //125   ----------------------------------------
 BYTE   N36  En3  v127
 BYTE   W24
 BYTE   W12
 BYTE   N12  Fs3
 BYTE   W12
 BYTE   N72
 BYTE   W24
 BYTE   W24
//  #01 //126   ----------------------------------------
 BYTE   W24
//  #01 //127   ----------------------------------------
 BYTE   PATT
  POIN2 Label_0105D868
//  #01 //128   ----------------------------------------
 BYTE   N96  Fs3  v127
 BYTE   W24
 BYTE   W24
 BYTE   W24
 BYTE   W24
//  #01 //129   ----------------------------------------
 BYTE   W24
 BYTE   W24
 BYTE   W24
 BYTE   W24
//  #01 //130   ----------------------------------------
 BYTE   PATT
  POIN2 Label_0105D879
//  #01 //131   ----------------------------------------
 BYTE   PATT
  POIN2 Label_0105D880
//  #01 //132   ----------------------------------------
 BYTE   N48  Gs4  v127
 BYTE   W24
 BYTE   W24
 BYTE   W12
 BYTE   N12  Bn4
 BYTE   W12
//  #01 //133   ----------------------------------------
 BYTE   PATT
  POIN2 Label_0105D88F
//  #01 //134   ----------------------------------------
 BYTE   PATT
  POIN2 Label_0105D896
//  #01 //135   ----------------------------------------
 BYTE   PATT
  POIN2 Label_0105D89D
//  #01 //136   ----------------------------------------
 BYTE   PATT
  POIN2 Label_0105D8A4
//  #01 //137   ----------------------------------------
 BYTE   PATT
  POIN2 Label_0105D8AB
//  #01 //138   ----------------------------------------
 BYTE   N48  Ds4  v127
 BYTE   W24
 BYTE   W24
 BYTE   W12
 BYTE   N12  Gs4
 BYTE   W12
//  #01 //139   ----------------------------------------
 BYTE   PATT
  POIN2 Label_0105D8BA
//  #01 //140   ----------------------------------------
 BYTE   PATT
  POIN2 Label_0105D89D
//  #01 //141   ----------------------------------------
 BYTE   PATT
  POIN2 Label_0105D8C6
//  #01 //142   ----------------------------------------
 BYTE   N60  Cs4  v127
 BYTE   W24
 BYTE   W24
 BYTE   W12
 BYTE   N12  Ds4
 BYTE   W12
//  #01 //143   ----------------------------------------
 BYTE   PATT
  POIN2 Label_0105D8D5
//  #01 //144   ----------------------------------------
 BYTE   N48  Cs4  v127
 BYTE   W24
 BYTE   W24
//  #01 //145   ----------------------------------------
 BYTE   PATT
  POIN2 Label_0105D88F
//  #01 //146   ----------------------------------------
 BYTE   PATT
  POIN2 Label_0105D8BA
//  #01 //147   ----------------------------------------
 BYTE   PATT
  POIN2 Label_0105D8EA
//  #01 //148   ----------------------------------------
 BYTE   PATT
  POIN2 Label_0105D8F4
//  #01 //149   ----------------------------------------
 BYTE   PATT
  POIN2 Label_0105D903
//  #01 //150   ----------------------------------------
 BYTE   W24
//  #01 //151   ----------------------------------------
 BYTE   PATT
  POIN2 Label_0105D90D
//  #01 //152   ----------------------------------------
 BYTE   PATT
  POIN2 Label_0105D915
//  #01 //153   ----------------------------------------
 BYTE   PATT
  POIN2 Label_0105D920
//  #01 //154   ----------------------------------------
 BYTE   W12
 BYTE   N12  En5  v127
 BYTE   W12
 BYTE   N24  Bn4
 BYTE   W24
 BYTE   An4
 BYTE   W24
 BYTE   Gs4
 BYTE   W24
//  #01 //155   ----------------------------------------
 BYTE   Fs4
 BYTE   W24
 BYTE   En4
 BYTE   W24
 BYTE   Ds4
 BYTE   W24
 BYTE   Cs4
 BYTE   W24
//  #01 //156   ----------------------------------------
 BYTE   Ds4
 BYTE   W24
//  #01 //157   ----------------------------------------
 BYTE   PATT
  POIN2 Label_0105D93C
//  #01 //158   ----------------------------------------
 BYTE   PATT
  POIN2 Label_0105D721
//  #01 //159   ----------------------------------------
 BYTE   PATT
  POIN2 Label_0105D93C
//  #01 //160   ----------------------------------------
 BYTE   PATT
  POIN2 Label_0105D94D
//  #01 //161   ----------------------------------------
 BYTE   PATT
  POIN2 Label_0105D93C
//  #01 //162   ----------------------------------------
 BYTE   PATT
  POIN2 Label_0105D721
//  #01 //163   ----------------------------------------
 BYTE   PATT
  POIN2 Label_0105D93C
//  #01 //164   ----------------------------------------
 BYTE   PATT
  POIN2 Label_0105D94D
//  #01 //165   ----------------------------------------
 BYTE   PATT
  POIN2 Label_0105D93C
//  #01 //166   ----------------------------------------
 BYTE   PATT
  POIN2 Label_0105D721
//  #01 //167   ----------------------------------------
 BYTE   PATT
  POIN2 Label_0105D93C
//  #01 //168   ----------------------------------------
 BYTE   PATT
  POIN2 Label_0105D94D
//  #01 //169   ----------------------------------------
 BYTE   W24
 BYTE   W18
 BYTE   TEMPO   68*PokemonMDExplorersDefendGlobePsyche_tbs/2
 BYTE   W06
//  #01 //170   ----------------------------------------
 BYTE   PATT
  POIN2 Label_0105D981
//  #01 //171   ----------------------------------------
 BYTE   PATT
  POIN2 Label_0105D993
//  #01 //172   ----------------------------------------
 BYTE   N12  Cs4  v127
 BYTE   W24
 BYTE   W24
 BYTE   W24
 BYTE   W24
 BYTE   FINE

//**************** Track 2 (Midi-Chn.1) ****************//

PokemonMDExplorersDefendGlobePsyche_002:
//  #02 //000   ----------------------------------------
 BYTE   KEYSH   PokemonMDExplorersDefendGlobePsyche_key+0
 BYTE   VOICE   10
 BYTE   PAN   c_v-64
 BYTE   VOL   15*PokemonMDExplorersDefendGlobePsyche_mvl/mxv
 BYTE   BEND   c_v+0
 BYTE   W06
 BYTE   N24  An3  v127
 BYTE   W18
 BYTE   W06
 BYTE   Bn3
 BYTE   W18
 BYTE   W06
 BYTE   N42  Gs3
 BYTE   W18
 BYTE   W24
//  #02 //001   ----------------------------------------
Label_0105DBEF:
 BYTE   W06
 BYTE   N12  Cs4  v127
 BYTE   W12
 BYTE   Dn4
 BYTE   W06
 BYTE   PEND 
Label_0105DBF7:
 BYTE   W06
 BYTE   N12  Cs4  v127
 BYTE   W12
 BYTE   En3
 BYTE   W06
 BYTE   PEND 
 BYTE   W06
 BYTE   N48  Cs4
 BYTE   W18
 BYTE   W24
//  #02 //002   ----------------------------------------
 BYTE   W18
 BYTE   N12  En4
 BYTE   W06
Label_0105DC08:
 BYTE   W06
 BYTE   N12  En4  v127
 BYTE   W12
 BYTE   Dn4
 BYTE   W06
 BYTE   PEND 
Label_0105DC10:
 BYTE   W06
 BYTE   N12  Dn4  v127
 BYTE   W12
 BYTE   Cs4
 BYTE   W06
 BYTE   PEND 
Label_0105DC18:
 BYTE   W06
 BYTE   N12  Bn3  v127
 BYTE   W12
 BYTE   An3
 BYTE   W06
 BYTE   PEND 
//  #02 //003   ----------------------------------------
Label_0105DC20:
 BYTE   W06
 BYTE   N12  Gs3  v127
 BYTE   W12
 BYTE   An3
 BYTE   W06
 BYTE   PEND 
Label_0105DC28:
 BYTE   W06
 BYTE   N12  Gs3  v127
 BYTE   W12
 BYTE   Cs3
 BYTE   W06
 BYTE   PEND 
 BYTE   W06
 BYTE   N48  Gs3
 BYTE   W18
 BYTE   W24
//  #02 //004   ----------------------------------------
 BYTE   W18
 BYTE   N12  Cs4
 BYTE   W06
Label_0105DC39:
 BYTE   W06
 BYTE   N12  Cs4  v127
 BYTE   W12
 BYTE   Bn3
 BYTE   W06
 BYTE   PEND 
//  #02 //005   ----------------------------------------
 BYTE   PATT
  POIN2 Label_0105DC18
//  #02 //006   ----------------------------------------
Label_0105DC46:
 BYTE   W06
 BYTE   N12  Gs3  v127
 BYTE   W12
 BYTE   En3
 BYTE   W06
 BYTE   PEND 
 BYTE   W06
 BYTE   N60  Fs3
 BYTE   W18
 BYTE   W24
 BYTE   W18
 BYTE   N12  Gs3
 BYTE   W06
//  #02 //007   ----------------------------------------
Label_0105DC57:
 BYTE   W06
 BYTE   N12  An3  v127
 BYTE   W12
 BYTE   Bn3
 BYTE   W06
 BYTE   PEND 
 BYTE   W06
 BYTE   N60  Fs3
 BYTE   W18
 BYTE   W24
 BYTE   W18
 BYTE   N12  Gs3
 BYTE   W06
//  #02 //008   ----------------------------------------
 BYTE   PATT
  POIN2 Label_0105DC57
//  #02 //009   ----------------------------------------
 BYTE   W06
 BYTE   N24  An3  v127
 BYTE   W18
 BYTE   W06
 BYTE   Gs3
 BYTE   W18
 BYTE   W06
 BYTE   Fs3
 BYTE   W18
 BYTE   W06
 BYTE   En3
 BYTE   W18
//  #02 //010   ----------------------------------------
 BYTE   W06
 BYTE   Dn3
 BYTE   W18
 BYTE   W06
 BYTE   Cs3
 BYTE   W18
 BYTE   W06
 BYTE   Dn3
 BYTE   W18
 BYTE   W06
 BYTE   En3
 BYTE   W18
//  #02 //011   ----------------------------------------
 BYTE   PATT
  POIN2 Label_0105DBEF
//  #02 //012   ----------------------------------------
 BYTE   PATT
  POIN2 Label_0105DBF7
//  #02 //013   ----------------------------------------
 BYTE   W06
 BYTE   N48  Cs4  v127
 BYTE   W18
 BYTE   W24
 BYTE   W18
 BYTE   N12  En4
 BYTE   W06
//  #02 //014   ----------------------------------------
 BYTE   PATT
  POIN2 Label_0105DC08
//  #02 //015   ----------------------------------------
 BYTE   PATT
  POIN2 Label_0105DC10
//  #02 //016   ----------------------------------------
 BYTE   PATT
  POIN2 Label_0105DC18
//  #02 //017   ----------------------------------------
 BYTE   PATT
  POIN2 Label_0105DC20
//  #02 //018   ----------------------------------------
 BYTE   PATT
  POIN2 Label_0105DC28
//  #02 //019   ----------------------------------------
 BYTE   W06
 BYTE   N48  Gs3  v127
 BYTE   W18
 BYTE   W24
 BYTE   W18
 BYTE   N12  Cs4
 BYTE   W06
//  #02 //020   ----------------------------------------
 BYTE   PATT
  POIN2 Label_0105DC39
//  #02 //021   ----------------------------------------
 BYTE   PATT
  POIN2 Label_0105DC18
//  #02 //022   ----------------------------------------
 BYTE   PATT
  POIN2 Label_0105DC46
//  #02 //023   ----------------------------------------
 BYTE   W06
 BYTE   N24  Fs3  v127
 BYTE   W18
 BYTE   W06
 BYTE   Cs4
 BYTE   W18
 BYTE   W06
 BYTE   Bn3
 BYTE   W18
 BYTE   W06
 BYTE   An3
 BYTE   W18
//  #02 //024   ----------------------------------------
 BYTE   W06
 BYTE   Fs3
 BYTE   W18
 BYTE   W06
 BYTE   Cs4
 BYTE   W18
 BYTE   W06
 BYTE   Bn3
 BYTE   W18
 BYTE   W06
 BYTE   An3
 BYTE   W18
//  #02 //025   ----------------------------------------
 BYTE   W06
 BYTE   N96
 BYTE   W18
 BYTE   W24
 BYTE   W24
 BYTE   W24
//  #02 //026   ----------------------------------------
 BYTE   W24
 BYTE   W24
 BYTE   W24
 BYTE   W24
//  #02 //027   ----------------------------------------
 BYTE   W06
 BYTE   N48  En4
 BYTE   W18
 BYTE   W24
//  #02 //028   ----------------------------------------
 BYTE   PATT
  POIN2 Label_0105DC08
//  #02 //029   ----------------------------------------
Label_0105DCFB:
 BYTE   W06
 BYTE   N12  Cs4  v127
 BYTE   W12
 BYTE   Fs3
 BYTE   W06
 BYTE   PEND 
Label_0105DD03:
 BYTE   W06
 BYTE   N12  Cs4  v127
 BYTE   W12
 BYTE   N84  Dn4
 BYTE   W06
 BYTE   PEND 
 BYTE   W24
 BYTE   W24
//  #02 //030   ----------------------------------------
 BYTE   W24
 BYTE   W06
 BYTE   N48
 BYTE   W18
 BYTE   W24
//  #02 //031   ----------------------------------------
 BYTE   PATT
  POIN2 Label_0105DC10
//  #02 //032   ----------------------------------------
 BYTE   PATT
  POIN2 Label_0105DC18
//  #02 //033   ----------------------------------------
Label_0105DD1D:
 BYTE   W06
 BYTE   N12  Gs3  v127
 BYTE   W12
 BYTE   N36  An3
 BYTE   W06
 BYTE   PEND 
 BYTE   W24
//  #02 //034   ----------------------------------------
 BYTE   PATT
  POIN2 Label_0105DC57
//  #02 //035   ----------------------------------------
Label_0105DD2C:
 BYTE   W06
 BYTE   N12  Cs4  v127
 BYTE   W12
 BYTE   An3
 BYTE   W06
 BYTE   PEND 
 BYTE   W06
 BYTE   N48  Fs4
 BYTE   W18
 BYTE   W24
Label_0105DD39:
 BYTE   W06
 BYTE   N12  Fs4  v127
 BYTE   W12
 BYTE   Gs4
 BYTE   W06
 BYTE   PEND 
//  #02 //036   ----------------------------------------
Label_0105DD41:
 BYTE   W06
 BYTE   N12  En4  v127
 BYTE   W12
 BYTE   Ds4
 BYTE   W06
 BYTE   PEND 
 BYTE   W06
 BYTE   N24  En4
 BYTE   W18
 BYTE   W06
 BYTE   Ds4
 BYTE   W18
 BYTE   W06
 BYTE   Cs4
 BYTE   W18
//  #02 //037   ----------------------------------------
 BYTE   PATT
  POIN2 Label_0105DC18
//  #02 //038   ----------------------------------------
 BYTE   W18
 BYTE   N12  Bn3  v127
 BYTE   W06
Label_0105DD5D:
 BYTE   W06
 BYTE   N12  En4  v127
 BYTE   W12
 BYTE   Bn3
 BYTE   W06
 BYTE   PEND 
 BYTE   W06
 BYTE   N36  En3
 BYTE   W18
 BYTE   W18
 BYTE   N12  Fs3
 BYTE   W06
//  #02 //039   ----------------------------------------
 BYTE   W06
 BYTE   N72
 BYTE   W18
 BYTE   W24
 BYTE   W24
Label_0105DD72:
 BYTE   W06
 BYTE   N12  Cs3  v127
 BYTE   W12
 BYTE   Gs3
 BYTE   W06
 BYTE   PEND 
//  #02 //040   ----------------------------------------
 BYTE   W06
 BYTE   N96  Fs3
 BYTE   W18
 BYTE   W24
 BYTE   W24
 BYTE   W24
//  #02 //041   ----------------------------------------
 BYTE   W24
 BYTE   W24
 BYTE   W24
 BYTE   W24
//  #02 //042   ----------------------------------------
Label_0105DD85:
 BYTE   W06
 BYTE   N12  Gs4  v127
 BYTE   W12
 BYTE   An4
 BYTE   W06
 BYTE   PEND 
Label_0105DD8D:
 BYTE   W06
 BYTE   N12  Gs4  v127
 BYTE   W12
 BYTE   Bn3
 BYTE   W06
 BYTE   PEND 
 BYTE   W06
 BYTE   N48  Gs4
 BYTE   W18
 BYTE   W24
//  #02 //043   ----------------------------------------
 BYTE   W18
 BYTE   N12  Bn4
 BYTE   W06
Label_0105DD9E:
 BYTE   W06
 BYTE   N12  Bn4  v127
 BYTE   W12
 BYTE   An4
 BYTE   W06
 BYTE   PEND 
Label_0105DDA6:
 BYTE   W06
 BYTE   N12  An4  v127
 BYTE   W12
 BYTE   Gs4
 BYTE   W06
 BYTE   PEND 
Label_0105DDAE:
 BYTE   W06
 BYTE   N12  Fs4  v127
 BYTE   W12
 BYTE   En4
 BYTE   W06
 BYTE   PEND 
//  #02 //044   ----------------------------------------
Label_0105DDB6:
 BYTE   W06
 BYTE   N12  Ds4  v127
 BYTE   W12
 BYTE   En4
 BYTE   W06
 BYTE   PEND 
Label_0105DDBE:
 BYTE   W06
 BYTE   N12  Ds4  v127
 BYTE   W12
 BYTE   Gs3
 BYTE   W06
 BYTE   PEND 
 BYTE   W06
 BYTE   N48  Ds4
 BYTE   W18
 BYTE   W24
//  #02 //045   ----------------------------------------
 BYTE   W18
 BYTE   N12  Gs4
 BYTE   W06
Label_0105DDCF:
 BYTE   W06
 BYTE   N12  Gs4  v127
 BYTE   W12
 BYTE   Fs4
 BYTE   W06
 BYTE   PEND 
//  #02 //046   ----------------------------------------
 BYTE   PATT
  POIN2 Label_0105DDAE
//  #02 //047   ----------------------------------------
Label_0105DDDC:
 BYTE   W06
 BYTE   N12  Ds4  v127
 BYTE   W12
 BYTE   Bn3
 BYTE   W06
 BYTE   PEND 
 BYTE   W06
 BYTE   N60  Cs4
 BYTE   W18
 BYTE   W24
 BYTE   W18
 BYTE   N12  Ds4
 BYTE   W06
//  #02 //048   ----------------------------------------
Label_0105DDED:
 BYTE   W06
 BYTE   N12  En4  v127
 BYTE   W12
 BYTE   Fs4
 BYTE   W06
 BYTE   PEND 
 BYTE   W06
 BYTE   N48  Cs4
 BYTE   W18
 BYTE   W24
//  #02 //049   ----------------------------------------
 BYTE   PATT
  POIN2 Label_0105DD9E
//  #02 //050   ----------------------------------------
 BYTE   PATT
  POIN2 Label_0105DDCF
//  #02 //051   ----------------------------------------
 BYTE   W18
 BYTE   N12  Fs4  v127
 BYTE   W06
//  #02 //052   ----------------------------------------
 BYTE   PATT
  POIN2 Label_0105DDED
//  #02 //053   ----------------------------------------
 BYTE   W06
 BYTE   N60  Gs4  v127
 BYTE   W18
 BYTE   W24
 BYTE   W18
 BYTE   N12  An4
 BYTE   W06
//  #02 //054   ----------------------------------------
 BYTE   PATT
  POIN2 Label_0105DD85
//  #02 //055   ----------------------------------------
 BYTE   W06
 BYTE   N36  Bn4  v127
 BYTE   W18
 BYTE   W18
 BYTE   N12  En5
 BYTE   W06
 BYTE   W06
 BYTE   N24  Bn4
 BYTE   W18
 BYTE   W06
 BYTE   An4
 BYTE   W18
//  #02 //056   ----------------------------------------
 BYTE   W06
 BYTE   Gs4
 BYTE   W18
 BYTE   W06
 BYTE   Fs4
 BYTE   W18
 BYTE   W06
 BYTE   En4
 BYTE   W18
 BYTE   W06
 BYTE   Ds4
 BYTE   W18
//  #02 //057   ----------------------------------------
 BYTE   W06
 BYTE   Cs4
 BYTE   W18
 BYTE   W06
 BYTE   Ds4
 BYTE   W18
Label_0105DE3F:
 BYTE   W06
 BYTE   N12  En4  v127
 BYTE   W12
 BYTE   An3
 BYTE   W06
 BYTE   PEND 
//  #02 //058   ----------------------------------------
 BYTE   PATT
  POIN2 Label_0105DC18
//  #02 //059   ----------------------------------------
 BYTE   PATT
  POIN2 Label_0105DE3F
//  #02 //060   ----------------------------------------
Label_0105DE51:
 BYTE   W06
 BYTE   N12  Dn4  v127
 BYTE   W12
 BYTE   An3
 BYTE   W06
 BYTE   PEND 
//  #02 //061   ----------------------------------------
 BYTE   PATT
  POIN2 Label_0105DE3F
//  #02 //062   ----------------------------------------
 BYTE   PATT
  POIN2 Label_0105DC18
//  #02 //063   ----------------------------------------
 BYTE   PATT
  POIN2 Label_0105DE3F
//  #02 //064   ----------------------------------------
 BYTE   PATT
  POIN2 Label_0105DE51
//  #02 //065   ----------------------------------------
 BYTE   PATT
  POIN2 Label_0105DE3F
//  #02 //066   ----------------------------------------
 BYTE   PATT
  POIN2 Label_0105DC18
//  #02 //067   ----------------------------------------
 BYTE   PATT
  POIN2 Label_0105DE3F
//  #02 //068   ----------------------------------------
 BYTE   PATT
  POIN2 Label_0105DE51
//  #02 //069   ----------------------------------------
 BYTE   W24
 BYTE   W24
 BYTE   W24
 BYTE   GoTo
  POIN2 Label_0105DBEF
//  #02 //070   ----------------------------------------
 BYTE   W24
//  #02 //071   ----------------------------------------
 BYTE   PATT
  POIN2 Label_0105DBEF
//  #02 //072   ----------------------------------------
 BYTE   PATT
  POIN2 Label_0105DBF7
//  #02 //073   ----------------------------------------
 BYTE   W06
 BYTE   N48  Cs4  v127
 BYTE   W18
 BYTE   W24
 BYTE   W18
 BYTE   N12  En4
 BYTE   W06
//  #02 //074   ----------------------------------------
 BYTE   PATT
  POIN2 Label_0105DC08
//  #02 //075   ----------------------------------------
 BYTE   PATT
  POIN2 Label_0105DC10
//  #02 //076   ----------------------------------------
 BYTE   PATT
  POIN2 Label_0105DC18
//  #02 //077   ----------------------------------------
 BYTE   PATT
  POIN2 Label_0105DC20
//  #02 //078   ----------------------------------------
 BYTE   PATT
  POIN2 Label_0105DC28
//  #02 //079   ----------------------------------------
 BYTE   W06
 BYTE   N48  Gs3  v127
 BYTE   W18
 BYTE   W24
 BYTE   W18
 BYTE   N12  Cs4
 BYTE   W06
//  #02 //080   ----------------------------------------
 BYTE   PATT
  POIN2 Label_0105DC39
//  #02 //081   ----------------------------------------
 BYTE   PATT
  POIN2 Label_0105DC18
//  #02 //082   ----------------------------------------
 BYTE   PATT
  POIN2 Label_0105DC46
//  #02 //083   ----------------------------------------
 BYTE   W06
 BYTE   N60  Fs3  v127
 BYTE   W18
 BYTE   W24
 BYTE   W18
 BYTE   N12  Gs3
 BYTE   W06
//  #02 //084   ----------------------------------------
 BYTE   PATT
  POIN2 Label_0105DC57
//  #02 //085   ----------------------------------------
 BYTE   W06
 BYTE   N60  Fs3  v127
 BYTE   W18
 BYTE   W24
 BYTE   W18
 BYTE   N12  Gs3
 BYTE   W06
//  #02 //086   ----------------------------------------
 BYTE   PATT
  POIN2 Label_0105DC57
//  #02 //087   ----------------------------------------
 BYTE   W06
 BYTE   N24  An3  v127
 BYTE   W18
 BYTE   W06
 BYTE   Gs3
 BYTE   W18
 BYTE   W06
 BYTE   Fs3
 BYTE   W18
 BYTE   W06
 BYTE   En3
 BYTE   W18
//  #02 //088   ----------------------------------------
 BYTE   W06
 BYTE   Dn3
 BYTE   W18
 BYTE   W06
 BYTE   Cs3
 BYTE   W18
 BYTE   W06
 BYTE   Dn3
 BYTE   W18
 BYTE   W06
 BYTE   En3
 BYTE   W18
//  #02 //089   ----------------------------------------
 BYTE   PATT
  POIN2 Label_0105DBEF
//  #02 //090   ----------------------------------------
 BYTE   PATT
  POIN2 Label_0105DBF7
//  #02 //091   ----------------------------------------
 BYTE   W06
 BYTE   N48  Cs4  v127
 BYTE   W18
 BYTE   W24
 BYTE   W18
 BYTE   N12  En4
 BYTE   W06
//  #02 //092   ----------------------------------------
 BYTE   PATT
  POIN2 Label_0105DC08
//  #02 //093   ----------------------------------------
 BYTE   PATT
  POIN2 Label_0105DC10
//  #02 //094   ----------------------------------------
 BYTE   PATT
  POIN2 Label_0105DC18
//  #02 //095   ----------------------------------------
 BYTE   PATT
  POIN2 Label_0105DC20
//  #02 //096   ----------------------------------------
 BYTE   PATT
  POIN2 Label_0105DC28
//  #02 //097   ----------------------------------------
 BYTE   W06
 BYTE   N48  Gs3  v127
 BYTE   W18
 BYTE   W24
 BYTE   W18
 BYTE   N12  Cs4
 BYTE   W06
//  #02 //098   ----------------------------------------
 BYTE   PATT
  POIN2 Label_0105DC39
//  #02 //099   ----------------------------------------
 BYTE   PATT
  POIN2 Label_0105DC18
//  #02 //100   ----------------------------------------
 BYTE   PATT
  POIN2 Label_0105DC46
//  #02 //101   ----------------------------------------
 BYTE   W06
 BYTE   N24  Fs3  v127
 BYTE   W18
 BYTE   W06
 BYTE   Cs4
 BYTE   W18
 BYTE   W06
 BYTE   Bn3
 BYTE   W18
 BYTE   W06
 BYTE   An3
 BYTE   W18
//  #02 //102   ----------------------------------------
 BYTE   W06
 BYTE   Fs3
 BYTE   W18
 BYTE   W06
 BYTE   Cs4
 BYTE   W18
 BYTE   W06
 BYTE   Bn3
 BYTE   W18
 BYTE   W06
 BYTE   An3
 BYTE   W18
//  #02 //103   ----------------------------------------
 BYTE   W06
 BYTE   N96
 BYTE   W18
 BYTE   W24
 BYTE   W24
 BYTE   W24
//  #02 //104   ----------------------------------------
 BYTE   W24
 BYTE   W24
 BYTE   W24
 BYTE   W24
//  #02 //105   ----------------------------------------
 BYTE   W06
 BYTE   N48  En4
 BYTE   W18
 BYTE   W24
//  #02 //106   ----------------------------------------
 BYTE   PATT
  POIN2 Label_0105DC08
//  #02 //107   ----------------------------------------
 BYTE   PATT
  POIN2 Label_0105DCFB
//  #02 //108   ----------------------------------------
 BYTE   PATT
  POIN2 Label_0105DD03
//  #02 //109   ----------------------------------------
 BYTE   W24
 BYTE   W24
 BYTE   W24
 BYTE   W06
 BYTE   N48  Dn4  v127
 BYTE   W18
//  #02 //110   ----------------------------------------
 BYTE   W24
//  #02 //111   ----------------------------------------
 BYTE   PATT
  POIN2 Label_0105DC10
//  #02 //112   ----------------------------------------
 BYTE   PATT
  POIN2 Label_0105DC18
//  #02 //113   ----------------------------------------
 BYTE   PATT
  POIN2 Label_0105DD1D
//  #02 //114   ----------------------------------------
 BYTE   W24
//  #02 //115   ----------------------------------------
 BYTE   PATT
  POIN2 Label_0105DC57
//  #02 //116   ----------------------------------------
 BYTE   PATT
  POIN2 Label_0105DD2C
//  #02 //117   ----------------------------------------
 BYTE   W06
 BYTE   N48  Fs4  v127
 BYTE   W18
 BYTE   W24
//  #02 //118   ----------------------------------------
 BYTE   PATT
  POIN2 Label_0105DD39
//  #02 //119   ----------------------------------------
 BYTE   PATT
  POIN2 Label_0105DD41
//  #02 //120   ----------------------------------------
 BYTE   W06
 BYTE   N24  En4  v127
 BYTE   W18
 BYTE   W06
 BYTE   Ds4
 BYTE   W18
 BYTE   W06
 BYTE   Cs4
 BYTE   W18
//  #02 //121   ----------------------------------------
 BYTE   PATT
  POIN2 Label_0105DC18
//  #02 //122   ----------------------------------------
 BYTE   W18
 BYTE   N12  Bn3  v127
 BYTE   W06
//  #02 //123   ----------------------------------------
 BYTE   PATT
  POIN2 Label_0105DD5D
//  #02 //124   ----------------------------------------
 BYTE   W06
 BYTE   N36  En3  v127
 BYTE   W18
 BYTE   W18
 BYTE   N12  Fs3
 BYTE   W06
 BYTE   W06
 BYTE   N72
 BYTE   W18
 BYTE   W24
//  #02 //125   ----------------------------------------
 BYTE   W24
//  #02 //126   ----------------------------------------
 BYTE   PATT
  POIN2 Label_0105DD72
//  #02 //127   ----------------------------------------
 BYTE   W06
 BYTE   N96  Fs3  v127
 BYTE   W18
 BYTE   W24
 BYTE   W24
 BYTE   W24
//  #02 //128   ----------------------------------------
 BYTE   W24
 BYTE   W24
 BYTE   W24
 BYTE   W24
//  #02 //129   ----------------------------------------
 BYTE   PATT
  POIN2 Label_0105DD85
//  #02 //130   ----------------------------------------
 BYTE   PATT
  POIN2 Label_0105DD8D
//  #02 //131   ----------------------------------------
 BYTE   W06
 BYTE   N48  Gs4  v127
 BYTE   W18
 BYTE   W24
 BYTE   W18
 BYTE   N12  Bn4
 BYTE   W06
//  #02 //132   ----------------------------------------
 BYTE   PATT
  POIN2 Label_0105DD9E
//  #02 //133   ----------------------------------------
 BYTE   PATT
  POIN2 Label_0105DDA6
//  #02 //134   ----------------------------------------
 BYTE   PATT
  POIN2 Label_0105DDAE
//  #02 //135   ----------------------------------------
 BYTE   PATT
  POIN2 Label_0105DDB6
//  #02 //136   ----------------------------------------
 BYTE   PATT
  POIN2 Label_0105DDBE
//  #02 //137   ----------------------------------------
 BYTE   W06
 BYTE   N48  Ds4  v127
 BYTE   W18
 BYTE   W24
 BYTE   W18
 BYTE   N12  Gs4
 BYTE   W06
//  #02 //138   ----------------------------------------
 BYTE   PATT
  POIN2 Label_0105DDCF
//  #02 //139   ----------------------------------------
 BYTE   PATT
  POIN2 Label_0105DDAE
//  #02 //140   ----------------------------------------
 BYTE   PATT
  POIN2 Label_0105DDDC
//  #02 //141   ----------------------------------------
 BYTE   W06
 BYTE   N60  Cs4  v127
 BYTE   W18
 BYTE   W24
 BYTE   W18
 BYTE   N12  Ds4
 BYTE   W06
//  #02 //142   ----------------------------------------
 BYTE   PATT
  POIN2 Label_0105DDED
//  #02 //143   ----------------------------------------
 BYTE   W06
 BYTE   N48  Cs4  v127
 BYTE   W18
 BYTE   W24
//  #02 //144   ----------------------------------------
 BYTE   PATT
  POIN2 Label_0105DD9E
//  #02 //145   ----------------------------------------
 BYTE   PATT
  POIN2 Label_0105DDCF
//  #02 //146   ----------------------------------------
 BYTE   W18
 BYTE   N12  Fs4  v127
 BYTE   W06
//  #02 //147   ----------------------------------------
 BYTE   PATT
  POIN2 Label_0105DDED
//  #02 //148   ----------------------------------------
 BYTE   W06
 BYTE   N60  Gs4  v127
 BYTE   W18
 BYTE   W24
 BYTE   W18
 BYTE   N12  An4
 BYTE   W06
//  #02 //149   ----------------------------------------
 BYTE   PATT
  POIN2 Label_0105DD85
//  #02 //150   ----------------------------------------
 BYTE   W06
 BYTE   N36  Bn4  v127
 BYTE   W18
 BYTE   W18
 BYTE   N12  En5
 BYTE   W06
 BYTE   W06
 BYTE   N24  Bn4
 BYTE   W18
 BYTE   W06
 BYTE   An4
 BYTE   W18
//  #02 //151   ----------------------------------------
 BYTE   W06
 BYTE   Gs4
 BYTE   W18
 BYTE   W06
 BYTE   Fs4
 BYTE   W18
 BYTE   W06
 BYTE   En4
 BYTE   W18
 BYTE   W06
 BYTE   Ds4
 BYTE   W18
//  #02 //152   ----------------------------------------
 BYTE   W06
 BYTE   Cs4
 BYTE   W18
 BYTE   W06
 BYTE   Ds4
 BYTE   W18
//  #02 //153   ----------------------------------------
 BYTE   PATT
  POIN2 Label_0105DE3F
//  #02 //154   ----------------------------------------
 BYTE   PATT
  POIN2 Label_0105DC18
//  #02 //155   ----------------------------------------
 BYTE   PATT
  POIN2 Label_0105DE3F
//  #02 //156   ----------------------------------------
 BYTE   PATT
  POIN2 Label_0105DE51
//  #02 //157   ----------------------------------------
 BYTE   PATT
  POIN2 Label_0105DE3F
//  #02 //158   ----------------------------------------
 BYTE   PATT
  POIN2 Label_0105DC18
//  #02 //159   ----------------------------------------
 BYTE   PATT
  POIN2 Label_0105DE3F
//  #02 //160   ----------------------------------------
 BYTE   PATT
  POIN2 Label_0105DE51
//  #02 //161   ----------------------------------------
 BYTE   PATT
  POIN2 Label_0105DE3F
//  #02 //162   ----------------------------------------
 BYTE   PATT
  POIN2 Label_0105DC18
//  #02 //163   ----------------------------------------
 BYTE   PATT
  POIN2 Label_0105DE3F
//  #02 //164   ----------------------------------------
 BYTE   PATT
  POIN2 Label_0105DE51
//  #02 //165   ----------------------------------------
 BYTE   W24
 BYTE   W24
 BYTE   W24
 BYTE   W24
//  #02 //166   ----------------------------------------
 BYTE   W24
 BYTE   W24
 BYTE   W24
 BYTE   W24
 BYTE   FINE

//**************** Track 3 (Midi-Chn.2) ****************//

PokemonMDExplorersDefendGlobePsyche_003:
//  #03 //000   ----------------------------------------
 BYTE   KEYSH   PokemonMDExplorersDefendGlobePsyche_key+0
 BYTE   VOICE   10
 BYTE   PAN   c_v+63
 BYTE   VOL   9*PokemonMDExplorersDefendGlobePsyche_mvl/mxv
 BYTE   BEND   c_v+0
 BYTE   W12
 BYTE   N24  An3  v127
 BYTE   W12
 BYTE   W12
 BYTE   Bn3
 BYTE   W12
 BYTE   W12
 BYTE   N36  Gs3
 BYTE   W12
 BYTE   W24
//  #03 //001   ----------------------------------------
Label_0105E0EF:
 BYTE   W12
 BYTE   N12  Cs4  v127
 BYTE   W12
Label_0105E0F4:
 BYTE   N12  Dn4  v127
 BYTE   W12
 BYTE   Cs4
 BYTE   W12
 BYTE   PEND 
Label_0105E0FB:
 BYTE   N12  En3  v127
 BYTE   W12
 BYTE   N48  Cs4
 BYTE   W12
 BYTE   PEND 
 BYTE   W24
//  #03 //002   ----------------------------------------
 BYTE   W24
Label_0105E105:
 BYTE   N12  En4  v127
 BYTE   W12
 BYTE   N12
 BYTE   W12
 BYTE   PEND 
Label_0105E10C:
 BYTE   N12  Dn4  v127
 BYTE   W12
 BYTE   N12
 BYTE   W12
 BYTE   PEND 
Label_0105E113:
 BYTE   N12  Cs4  v127
 BYTE   W12
 BYTE   Bn3
 BYTE   W12
 BYTE   PEND 
//  #03 //003   ----------------------------------------
Label_0105E11A:
 BYTE   N12  An3  v127
 BYTE   W12
 BYTE   Gs3
 BYTE   W12
 BYTE   PEND 
//  #03 //004   ----------------------------------------
 BYTE   PATT
  POIN2 Label_0105E11A
//  #03 //005   ----------------------------------------
Label_0105E126:
 BYTE   N12  Cs3  v127
 BYTE   W12
 BYTE   N48  Gs3
 BYTE   W12
 BYTE   PEND 
 BYTE   W24
 BYTE   W24
Label_0105E130:
 BYTE   N12  Cs4  v127
 BYTE   W12
 BYTE   N12
 BYTE   W12
 BYTE   PEND 
//  #03 //006   ----------------------------------------
Label_0105E137:
 BYTE   N12  Bn3  v127
 BYTE   W12
 BYTE   N12
 BYTE   W12
 BYTE   PEND 
//  #03 //007   ----------------------------------------
 BYTE   PATT
  POIN2 Label_0105E11A
//  #03 //008   ----------------------------------------
Label_0105E143:
 BYTE   N12  En3  v127
 BYTE   W12
 BYTE   N60  Fs3
 BYTE   W12
 BYTE   PEND 
 BYTE   W24
 BYTE   W24
Label_0105E14D:
 BYTE   N12  Gs3  v127
 BYTE   W12
 BYTE   An3
 BYTE   W12
 BYTE   PEND 
//  #03 //009   ----------------------------------------
Label_0105E154:
 BYTE   N12  Bn3  v127
 BYTE   W12
 BYTE   N60  Fs3
 BYTE   W12
 BYTE   PEND 
 BYTE   W24
 BYTE   W24
//  #03 //010   ----------------------------------------
 BYTE   PATT
  POIN2 Label_0105E14D
//  #03 //011   ----------------------------------------
Label_0105E163:
 BYTE   N12  Bn3  v127
 BYTE   W12
 BYTE   N24  An3
 BYTE   W12
 BYTE   PEND 
 BYTE   W12
 BYTE   Gs3
 BYTE   W12
 BYTE   W12
 BYTE   Fs3
 BYTE   W12
 BYTE   W12
 BYTE   En3
 BYTE   W12
//  #03 //012   ----------------------------------------
 BYTE   W12
 BYTE   Dn3
 BYTE   W12
 BYTE   W12
 BYTE   Cs3
 BYTE   W12
 BYTE   W12
 BYTE   Dn3
 BYTE   W12
 BYTE   W12
 BYTE   En3
 BYTE   W12
//  #03 //013   ----------------------------------------
 BYTE   W12
 BYTE   N12  Cs4
 BYTE   W12
//  #03 //014   ----------------------------------------
 BYTE   PATT
  POIN2 Label_0105E0F4
//  #03 //015   ----------------------------------------
 BYTE   PATT
  POIN2 Label_0105E0FB
//  #03 //016   ----------------------------------------
 BYTE   W24
 BYTE   W24
//  #03 //017   ----------------------------------------
 BYTE   PATT
  POIN2 Label_0105E105
//  #03 //018   ----------------------------------------
 BYTE   PATT
  POIN2 Label_0105E10C
//  #03 //019   ----------------------------------------
 BYTE   PATT
  POIN2 Label_0105E113
//  #03 //020   ----------------------------------------
 BYTE   PATT
  POIN2 Label_0105E11A
//  #03 //021   ----------------------------------------
 BYTE   PATT
  POIN2 Label_0105E11A
//  #03 //022   ----------------------------------------
 BYTE   PATT
  POIN2 Label_0105E126
//  #03 //023   ----------------------------------------
 BYTE   W24
 BYTE   W24
//  #03 //024   ----------------------------------------
 BYTE   PATT
  POIN2 Label_0105E130
//  #03 //025   ----------------------------------------
 BYTE   PATT
  POIN2 Label_0105E137
//  #03 //026   ----------------------------------------
 BYTE   PATT
  POIN2 Label_0105E11A
//  #03 //027   ----------------------------------------
Label_0105E1BF:
 BYTE   N12  En3  v127
 BYTE   W12
 BYTE   N24  Fs3
 BYTE   W12
 BYTE   PEND 
 BYTE   W12
 BYTE   Cs4
 BYTE   W12
 BYTE   W12
 BYTE   Bn3
 BYTE   W12
 BYTE   W12
 BYTE   An3
 BYTE   W12
//  #03 //028   ----------------------------------------
 BYTE   W12
 BYTE   Fs3
 BYTE   W12
 BYTE   W12
 BYTE   Cs4
 BYTE   W12
 BYTE   W12
 BYTE   Bn3
 BYTE   W12
 BYTE   W12
 BYTE   An3
 BYTE   W12
//  #03 //029   ----------------------------------------
 BYTE   W12
 BYTE   N96
 BYTE   W12
 BYTE   W24
 BYTE   W24
 BYTE   W24
//  #03 //030   ----------------------------------------
 BYTE   W24
 BYTE   W24
 BYTE   W24
 BYTE   W24
//  #03 //031   ----------------------------------------
 BYTE   W12
 BYTE   N48  En4
 BYTE   W12
 BYTE   W24
 BYTE   W12
 BYTE   N12
 BYTE   W12
//  #03 //032   ----------------------------------------
 BYTE   PATT
  POIN2 Label_0105E0F4
//  #03 //033   ----------------------------------------
Label_0105E1F3:
 BYTE   N12  Fs3  v127
 BYTE   W12
 BYTE   Cs4
 BYTE   W12
 BYTE   PEND 
 BYTE   N84  Dn4
 BYTE   W24
 BYTE   W24
 BYTE   W24
//  #03 //034   ----------------------------------------
 BYTE   W12
 BYTE   N48
 BYTE   W12
 BYTE   W24
 BYTE   W12
 BYTE   N12
 BYTE   W12
//  #03 //035   ----------------------------------------
 BYTE   PATT
  POIN2 Label_0105E113
//  #03 //036   ----------------------------------------
 BYTE   PATT
  POIN2 Label_0105E11A
//  #03 //037   ----------------------------------------
 BYTE   N36  An3  v127
 BYTE   W24
 BYTE   W12
 BYTE   N12
 BYTE   W12
Label_0105E217:
 BYTE   N12  Bn3  v127
 BYTE   W12
 BYTE   Cs4
 BYTE   W12
 BYTE   PEND 
Label_0105E21E:
 BYTE   N12  An3  v127
 BYTE   W12
 BYTE   N48  Fs4
 BYTE   W12
 BYTE   PEND 
//  #03 //038   ----------------------------------------
 BYTE   W24
 BYTE   W12
 BYTE   N12
 BYTE   W12
Label_0105E22A:
 BYTE   N12  Gs4  v127
 BYTE   W12
 BYTE   En4
 BYTE   W12
 BYTE   PEND 
Label_0105E231:
 BYTE   N12  Ds4  v127
 BYTE   W12
 BYTE   N24  En4
 BYTE   W12
 BYTE   PEND 
//  #03 //039   ----------------------------------------
 BYTE   W12
 BYTE   Ds4
 BYTE   W12
 BYTE   W12
 BYTE   Cs4
 BYTE   W12
 BYTE   W12
 BYTE   N12  Bn3
 BYTE   W12
 BYTE   An3
 BYTE   W24
//  #03 //040   ----------------------------------------
Label_0105E245:
 BYTE   N12  Bn3  v127
 BYTE   W12
 BYTE   En4
 BYTE   W12
 BYTE   PEND 
Label_0105E24C:
 BYTE   N12  Bn3  v127
 BYTE   W12
 BYTE   N36  En3
 BYTE   W12
 BYTE   PEND 
 BYTE   W24
Label_0105E255:
 BYTE   N12  Fs3  v127
 BYTE   W12
 BYTE   N72
 BYTE   W12
 BYTE   PEND 
//  #03 //041   ----------------------------------------
 BYTE   W24
 BYTE   W24
 BYTE   W12
 BYTE   N12  Cs3
 BYTE   W12
Label_0105E262:
 BYTE   N12  Gs3  v127
 BYTE   W12
 BYTE   N96  Fs3
 BYTE   W12
 BYTE   PEND 
//  #03 //042   ----------------------------------------
 BYTE   W24
 BYTE   W24
 BYTE   W24
 BYTE   W24
//  #03 //043   ----------------------------------------
 BYTE   W24
 BYTE   W24
 BYTE   W24
 BYTE   W12
 BYTE   N12  Gs4
 BYTE   W12
//  #03 //044   ----------------------------------------
Label_0105E275:
 BYTE   N12  An4  v127
 BYTE   W12
 BYTE   Gs4
 BYTE   W12
 BYTE   PEND 
Label_0105E27C:
 BYTE   N12  Bn3  v127
 BYTE   W12
 BYTE   N48  Gs4
 BYTE   W12
 BYTE   PEND 
 BYTE   W24
 BYTE   W24
//  #03 //045   ----------------------------------------
Label_0105E286:
 BYTE   N12  Bn4  v127
 BYTE   W12
 BYTE   N12
 BYTE   W12
 BYTE   PEND 
Label_0105E28D:
 BYTE   N12  An4  v127
 BYTE   W12
 BYTE   N12
 BYTE   W12
 BYTE   PEND 
Label_0105E294:
 BYTE   N12  Gs4  v127
 BYTE   W12
 BYTE   Fs4
 BYTE   W12
 BYTE   PEND 
Label_0105E29B:
 BYTE   N12  En4  v127
 BYTE   W12
 BYTE   Ds4
 BYTE   W12
 BYTE   PEND 
//  #03 //046   ----------------------------------------
 BYTE   PATT
  POIN2 Label_0105E29B
//  #03 //047   ----------------------------------------
Label_0105E2A7:
 BYTE   N12  Gs3  v127
 BYTE   W12
 BYTE   N48  Ds4
 BYTE   W12
 BYTE   PEND 
 BYTE   W24
 BYTE   W24
Label_0105E2B1:
 BYTE   N12  Gs4  v127
 BYTE   W12
 BYTE   N12
 BYTE   W12
 BYTE   PEND 
//  #03 //048   ----------------------------------------
Label_0105E2B8:
 BYTE   N12  Fs4  v127
 BYTE   W12
 BYTE   N12
 BYTE   W12
 BYTE   PEND 
//  #03 //049   ----------------------------------------
 BYTE   PATT
  POIN2 Label_0105E29B
//  #03 //050   ----------------------------------------
Label_0105E2C4:
 BYTE   N12  Bn3  v127
 BYTE   W12
 BYTE   N60  Cs4
 BYTE   W12
 BYTE   PEND 
 BYTE   W24
 BYTE   W24
Label_0105E2CE:
 BYTE   N12  Ds4  v127
 BYTE   W12
 BYTE   En4
 BYTE   W12
 BYTE   PEND 
//  #03 //051   ----------------------------------------
Label_0105E2D5:
 BYTE   N12  Fs4  v127
 BYTE   W12
 BYTE   N48  Cs4
 BYTE   W12
 BYTE   PEND 
 BYTE   W24
 BYTE   W12
 BYTE   N12  Bn4
 BYTE   W12
//  #03 //052   ----------------------------------------
 BYTE   PATT
  POIN2 Label_0105E275
//  #03 //053   ----------------------------------------
 BYTE   N12  Fs4  v127
 BYTE   W24
Label_0105E2EB:
 BYTE   N12  Fs4  v127
 BYTE   W12
 BYTE   En4
 BYTE   W12
 BYTE   PEND 
Label_0105E2F2:
 BYTE   N12  Fs4  v127
 BYTE   W12
 BYTE   N60  Gs4
 BYTE   W12
 BYTE   PEND 
 BYTE   W24
//  #03 //054   ----------------------------------------
 BYTE   W24
//  #03 //055   ----------------------------------------
 BYTE   PATT
  POIN2 Label_0105E275
//  #03 //056   ----------------------------------------
Label_0105E301:
 BYTE   N12  An4  v127
 BYTE   W12
 BYTE   N36  Bn4
 BYTE   W12
 BYTE   PEND 
 BYTE   W24
Label_0105E30A:
 BYTE   N12  En5  v127
 BYTE   W12
 BYTE   N24  Bn4
 BYTE   W12
 BYTE   PEND 
 BYTE   W12
 BYTE   An4
 BYTE   W12
//  #03 //057   ----------------------------------------
 BYTE   W12
 BYTE   Gs4
 BYTE   W12
 BYTE   W12
 BYTE   Fs4
 BYTE   W12
 BYTE   W12
 BYTE   En4
 BYTE   W12
 BYTE   W12
 BYTE   Ds4
 BYTE   W12
//  #03 //058   ----------------------------------------
 BYTE   W12
 BYTE   Cs4
 BYTE   W12
 BYTE   W12
 BYTE   Ds4
 BYTE   W12
 BYTE   W12
 BYTE   N12  En4
 BYTE   W12
Label_0105E32B:
 BYTE   N12  An3  v127
 BYTE   W12
 BYTE   Bn3
 BYTE   W12
 BYTE   PEND 
//  #03 //059   ----------------------------------------
Label_0105E332:
 BYTE   N12  An3  v127
 BYTE   W12
 BYTE   En4
 BYTE   W12
 BYTE   PEND 
Label_0105E339:
 BYTE   N12  An3  v127
 BYTE   W12
 BYTE   Dn4
 BYTE   W12
 BYTE   PEND 
//  #03 //060   ----------------------------------------
 BYTE   PATT
  POIN2 Label_0105E332
//  #03 //061   ----------------------------------------
 BYTE   PATT
  POIN2 Label_0105E32B
//  #03 //062   ----------------------------------------
 BYTE   PATT
  POIN2 Label_0105E332
//  #03 //063   ----------------------------------------
 BYTE   PATT
  POIN2 Label_0105E339
//  #03 //064   ----------------------------------------
 BYTE   PATT
  POIN2 Label_0105E332
//  #03 //065   ----------------------------------------
 BYTE   PATT
  POIN2 Label_0105E32B
//  #03 //066   ----------------------------------------
 BYTE   PATT
  POIN2 Label_0105E332
//  #03 //067   ----------------------------------------
 BYTE   PATT
  POIN2 Label_0105E339
//  #03 //068   ----------------------------------------
 BYTE   N12  An3  v127
 BYTE   W24
 BYTE   W24
 BYTE   W24
 BYTE   GoTo
  POIN2 Label_0105E0EF
//  #03 //069   ----------------------------------------
 BYTE   W24
 BYTE   W12
 BYTE   N12  Cs4  v127
 BYTE   W12
//  #03 //070   ----------------------------------------
 BYTE   PATT
  POIN2 Label_0105E0F4
//  #03 //071   ----------------------------------------
 BYTE   PATT
  POIN2 Label_0105E0FB
//  #03 //072   ----------------------------------------
 BYTE   W24
 BYTE   W24
//  #03 //073   ----------------------------------------
 BYTE   PATT
  POIN2 Label_0105E105
//  #03 //074   ----------------------------------------
 BYTE   PATT
  POIN2 Label_0105E10C
//  #03 //075   ----------------------------------------
 BYTE   PATT
  POIN2 Label_0105E113
//  #03 //076   ----------------------------------------
 BYTE   PATT
  POIN2 Label_0105E11A
//  #03 //077   ----------------------------------------
 BYTE   PATT
  POIN2 Label_0105E11A
//  #03 //078   ----------------------------------------
 BYTE   PATT
  POIN2 Label_0105E126
//  #03 //079   ----------------------------------------
 BYTE   W24
 BYTE   W24
//  #03 //080   ----------------------------------------
 BYTE   PATT
  POIN2 Label_0105E130
//  #03 //081   ----------------------------------------
 BYTE   PATT
  POIN2 Label_0105E137
//  #03 //082   ----------------------------------------
 BYTE   PATT
  POIN2 Label_0105E11A
//  #03 //083   ----------------------------------------
 BYTE   PATT
  POIN2 Label_0105E143
//  #03 //084   ----------------------------------------
 BYTE   W24
 BYTE   W24
//  #03 //085   ----------------------------------------
 BYTE   PATT
  POIN2 Label_0105E14D
//  #03 //086   ----------------------------------------
 BYTE   PATT
  POIN2 Label_0105E154
//  #03 //087   ----------------------------------------
 BYTE   W24
 BYTE   W24
//  #03 //088   ----------------------------------------
 BYTE   PATT
  POIN2 Label_0105E14D
//  #03 //089   ----------------------------------------
 BYTE   PATT
  POIN2 Label_0105E163
//  #03 //090   ----------------------------------------
 BYTE   W12
 BYTE   N24  Gs3  v127
 BYTE   W12
 BYTE   W12
 BYTE   Fs3
 BYTE   W12
 BYTE   W12
 BYTE   En3
 BYTE   W12
 BYTE   W12
 BYTE   Dn3
 BYTE   W12
//  #03 //091   ----------------------------------------
 BYTE   W12
 BYTE   Cs3
 BYTE   W12
 BYTE   W12
 BYTE   Dn3
 BYTE   W12
 BYTE   W12
 BYTE   En3
 BYTE   W12
 BYTE   W12
 BYTE   N12  Cs4
 BYTE   W12
//  #03 //092   ----------------------------------------
 BYTE   PATT
  POIN2 Label_0105E0F4
//  #03 //093   ----------------------------------------
 BYTE   PATT
  POIN2 Label_0105E0FB
//  #03 //094   ----------------------------------------
 BYTE   W24
 BYTE   W24
//  #03 //095   ----------------------------------------
 BYTE   PATT
  POIN2 Label_0105E105
//  #03 //096   ----------------------------------------
 BYTE   PATT
  POIN2 Label_0105E10C
//  #03 //097   ----------------------------------------
 BYTE   PATT
  POIN2 Label_0105E113
//  #03 //098   ----------------------------------------
 BYTE   PATT
  POIN2 Label_0105E11A
//  #03 //099   ----------------------------------------
 BYTE   PATT
  POIN2 Label_0105E11A
//  #03 //100   ----------------------------------------
 BYTE   PATT
  POIN2 Label_0105E126
//  #03 //101   ----------------------------------------
 BYTE   W24
 BYTE   W24
//  #03 //102   ----------------------------------------
 BYTE   PATT
  POIN2 Label_0105E130
//  #03 //103   ----------------------------------------
 BYTE   PATT
  POIN2 Label_0105E137
//  #03 //104   ----------------------------------------
 BYTE   PATT
  POIN2 Label_0105E11A
//  #03 //105   ----------------------------------------
 BYTE   PATT
  POIN2 Label_0105E1BF
//  #03 //106   ----------------------------------------
 BYTE   W12
 BYTE   N24  Cs4  v127
 BYTE   W12
 BYTE   W12
 BYTE   Bn3
 BYTE   W12
 BYTE   W12
 BYTE   An3
 BYTE   W12
 BYTE   W12
 BYTE   Fs3
 BYTE   W12
//  #03 //107   ----------------------------------------
 BYTE   W12
 BYTE   Cs4
 BYTE   W12
 BYTE   W12
 BYTE   Bn3
 BYTE   W12
 BYTE   W12
 BYTE   An3
 BYTE   W12
 BYTE   W12
 BYTE   N96
 BYTE   W12
//  #03 //108   ----------------------------------------
 BYTE   W24
 BYTE   W24
 BYTE   W24
 BYTE   W24
//  #03 //109   ----------------------------------------
 BYTE   W24
 BYTE   W24
 BYTE   W24
 BYTE   W12
 BYTE   N48  En4
 BYTE   W12
//  #03 //110   ----------------------------------------
 BYTE   W24
 BYTE   W12
 BYTE   N12
 BYTE   W12
//  #03 //111   ----------------------------------------
 BYTE   PATT
  POIN2 Label_0105E0F4
//  #03 //112   ----------------------------------------
 BYTE   PATT
  POIN2 Label_0105E1F3
//  #03 //113   ----------------------------------------
 BYTE   N84  Dn4  v127
 BYTE   W24
 BYTE   W24
 BYTE   W24
 BYTE   W12
 BYTE   N48
 BYTE   W12
//  #03 //114   ----------------------------------------
 BYTE   W24
 BYTE   W12
 BYTE   N12
 BYTE   W12
//  #03 //115   ----------------------------------------
 BYTE   PATT
  POIN2 Label_0105E113
//  #03 //116   ----------------------------------------
 BYTE   PATT
  POIN2 Label_0105E11A
//  #03 //117   ----------------------------------------
 BYTE   N36  An3  v127
 BYTE   W24
 BYTE   W12
 BYTE   N12
 BYTE   W12
//  #03 //118   ----------------------------------------
 BYTE   PATT
  POIN2 Label_0105E217
//  #03 //119   ----------------------------------------
 BYTE   PATT
  POIN2 Label_0105E21E
//  #03 //120   ----------------------------------------
 BYTE   W24
 BYTE   W12
 BYTE   N12  Fs4  v127
 BYTE   W12
//  #03 //121   ----------------------------------------
 BYTE   PATT
  POIN2 Label_0105E22A
//  #03 //122   ----------------------------------------
 BYTE   PATT
  POIN2 Label_0105E231
//  #03 //123   ----------------------------------------
 BYTE   W12
 BYTE   N24  Ds4  v127
 BYTE   W12
 BYTE   W12
 BYTE   Cs4
 BYTE   W12
 BYTE   W12
 BYTE   N12  Bn3
 BYTE   W12
 BYTE   An3
 BYTE   W24
//  #03 //124   ----------------------------------------
 BYTE   PATT
  POIN2 Label_0105E245
//  #03 //125   ----------------------------------------
 BYTE   PATT
  POIN2 Label_0105E24C
//  #03 //126   ----------------------------------------
 BYTE   W24
//  #03 //127   ----------------------------------------
 BYTE   PATT
  POIN2 Label_0105E255
//  #03 //128   ----------------------------------------
 BYTE   W24
 BYTE   W24
 BYTE   W12
 BYTE   N12  Cs3  v127
 BYTE   W12
//  #03 //129   ----------------------------------------
 BYTE   PATT
  POIN2 Label_0105E262
//  #03 //130   ----------------------------------------
 BYTE   W24
 BYTE   W24
 BYTE   W24
 BYTE   W24
//  #03 //131   ----------------------------------------
 BYTE   W24
 BYTE   W24
 BYTE   W24
 BYTE   W12
 BYTE   N12  Gs4  v127
 BYTE   W12
//  #03 //132   ----------------------------------------
 BYTE   PATT
  POIN2 Label_0105E275
//  #03 //133   ----------------------------------------
 BYTE   PATT
  POIN2 Label_0105E27C
//  #03 //134   ----------------------------------------
 BYTE   W24
 BYTE   W24
//  #03 //135   ----------------------------------------
 BYTE   PATT
  POIN2 Label_0105E286
//  #03 //136   ----------------------------------------
 BYTE   PATT
  POIN2 Label_0105E28D
//  #03 //137   ----------------------------------------
 BYTE   PATT
  POIN2 Label_0105E294
//  #03 //138   ----------------------------------------
 BYTE   PATT
  POIN2 Label_0105E29B
//  #03 //139   ----------------------------------------
 BYTE   PATT
  POIN2 Label_0105E29B
//  #03 //140   ----------------------------------------
 BYTE   PATT
  POIN2 Label_0105E2A7
//  #03 //141   ----------------------------------------
 BYTE   W24
 BYTE   W24
//  #03 //142   ----------------------------------------
 BYTE   PATT
  POIN2 Label_0105E2B1
//  #03 //143   ----------------------------------------
 BYTE   PATT
  POIN2 Label_0105E2B8
//  #03 //144   ----------------------------------------
 BYTE   PATT
  POIN2 Label_0105E29B
//  #03 //145   ----------------------------------------
 BYTE   PATT
  POIN2 Label_0105E2C4
//  #03 //146   ----------------------------------------
 BYTE   W24
 BYTE   W24
//  #03 //147   ----------------------------------------
 BYTE   PATT
  POIN2 Label_0105E2CE
//  #03 //148   ----------------------------------------
 BYTE   PATT
  POIN2 Label_0105E2D5
//  #03 //149   ----------------------------------------
 BYTE   W24
 BYTE   W12
 BYTE   N12  Bn4  v127
 BYTE   W12
//  #03 //150   ----------------------------------------
 BYTE   PATT
  POIN2 Label_0105E275
//  #03 //151   ----------------------------------------
 BYTE   N12  Fs4  v127
 BYTE   W24
//  #03 //152   ----------------------------------------
 BYTE   PATT
  POIN2 Label_0105E2EB
//  #03 //153   ----------------------------------------
 BYTE   PATT
  POIN2 Label_0105E2F2
//  #03 //154   ----------------------------------------
 BYTE   W24
 BYTE   W24
//  #03 //155   ----------------------------------------
 BYTE   PATT
  POIN2 Label_0105E275
//  #03 //156   ----------------------------------------
 BYTE   PATT
  POIN2 Label_0105E301
//  #03 //157   ----------------------------------------
 BYTE   W24
//  #03 //158   ----------------------------------------
 BYTE   PATT
  POIN2 Label_0105E30A
//  #03 //159   ----------------------------------------
 BYTE   W12
 BYTE   N24  An4  v127
 BYTE   W12
 BYTE   W12
 BYTE   Gs4
 BYTE   W12
 BYTE   W12
 BYTE   Fs4
 BYTE   W12
 BYTE   W12
 BYTE   En4
 BYTE   W12
//  #03 //160   ----------------------------------------
 BYTE   W12
 BYTE   Ds4
 BYTE   W12
 BYTE   W12
 BYTE   Cs4
 BYTE   W12
 BYTE   W12
 BYTE   Ds4
 BYTE   W12
 BYTE   W12
 BYTE   N12  En4
 BYTE   W12
//  #03 //161   ----------------------------------------
 BYTE   PATT
  POIN2 Label_0105E32B
//  #03 //162   ----------------------------------------
 BYTE   PATT
  POIN2 Label_0105E332
//  #03 //163   ----------------------------------------
 BYTE   PATT
  POIN2 Label_0105E339
//  #03 //164   ----------------------------------------
 BYTE   PATT
  POIN2 Label_0105E332
//  #03 //165   ----------------------------------------
 BYTE   PATT
  POIN2 Label_0105E32B
//  #03 //166   ----------------------------------------
 BYTE   PATT
  POIN2 Label_0105E332
//  #03 //167   ----------------------------------------
 BYTE   PATT
  POIN2 Label_0105E339
//  #03 //168   ----------------------------------------
 BYTE   PATT
  POIN2 Label_0105E332
//  #03 //169   ----------------------------------------
 BYTE   PATT
  POIN2 Label_0105E32B
//  #03 //170   ----------------------------------------
 BYTE   PATT
  POIN2 Label_0105E332
//  #03 //171   ----------------------------------------
 BYTE   PATT
  POIN2 Label_0105E339
//  #03 //172   ----------------------------------------
 BYTE   N12  An3  v127
 BYTE   W24
 BYTE   W24
 BYTE   W24
 BYTE   W24
//  #03 //173   ----------------------------------------
 BYTE   W24
 BYTE   W24
 BYTE   W24
 BYTE   W24
 BYTE   FINE

//**************** Track 4 (Midi-Chn.3) ****************//

PokemonMDExplorersDefendGlobePsyche_004:
//  #04 //000   ----------------------------------------
 BYTE   KEYSH   PokemonMDExplorersDefendGlobePsyche_key+0
 BYTE   VOICE   46
 BYTE   PAN   c_v-44
 BYTE   VOL   30*PokemonMDExplorersDefendGlobePsyche_mvl/mxv
 BYTE   BEND   c_v+0
 BYTE   W24
 BYTE   W24
 BYTE   W24
 BYTE   W24
//  #04 //001   ----------------------------------------
Label_56A132:
 BYTE   W24
 BYTE   W24
 BYTE   W24
 BYTE   W24
//  #04 //002   ----------------------------------------
 BYTE   W24
 BYTE   W24
 BYTE   W24
 BYTE   W24
//  #04 //003   ----------------------------------------
 BYTE   W24
 BYTE   W24
 BYTE   W24
 BYTE   W24
//  #04 //004   ----------------------------------------
 BYTE   W24
 BYTE   W24
 BYTE   W24
 BYTE   W24
//  #04 //005   ----------------------------------------
 BYTE   W24
 BYTE   W24
 BYTE   W24
 BYTE   W24
//  #04 //006   ----------------------------------------
 BYTE   W24
 BYTE   W24
 BYTE   W24
 BYTE   W24
//  #04 //007   ----------------------------------------
 BYTE   W24
 BYTE   W24
 BYTE   W24
 BYTE   W24
//  #04 //008   ----------------------------------------
 BYTE   W24
 BYTE   W24
 BYTE   W24
 BYTE   W24
//  #04 //009   ----------------------------------------
 BYTE   W24
 BYTE   W24
 BYTE   W24
 BYTE   W24
//  #04 //010   ----------------------------------------
 BYTE   W24
 BYTE   W24
 BYTE   W24
 BYTE   W24
//  #04 //011   ----------------------------------------
 BYTE   W24
 BYTE   W24
 BYTE   W24
 BYTE   W24
//  #04 //012   ----------------------------------------
 BYTE   W24
 BYTE   W24
 BYTE   W24
 BYTE   W24
//  #04 //013   ----------------------------------------
 BYTE   W24
 BYTE   W24
 BYTE   W24
 BYTE   W24
//  #04 //014   ----------------------------------------
 BYTE   W24
 BYTE   W24
 BYTE   W24
 BYTE   W24
//  #04 //015   ----------------------------------------
 BYTE   W24
 BYTE   W24
 BYTE   W24
 BYTE   W24
//  #04 //016   ----------------------------------------
 BYTE   W24
 BYTE   W24
 BYTE   W24
 BYTE   W24
//  #04 //017   ----------------------------------------
 BYTE   W24
 BYTE   W24
 BYTE   W24
 BYTE   W24
//  #04 //018   ----------------------------------------
 BYTE   W24
 BYTE   W24
 BYTE   W24
 BYTE   W24
//  #04 //019   ----------------------------------------
 BYTE   W24
 BYTE   W24
 BYTE   W24
 BYTE   W24
//  #04 //020   ----------------------------------------
 BYTE   W24
 BYTE   W24
 BYTE   W24
 BYTE   W24
//  #04 //021   ----------------------------------------
 BYTE   W24
 BYTE   W24
 BYTE   W24
 BYTE   W24
//  #04 //022   ----------------------------------------
 BYTE   W24
 BYTE   W24
 BYTE   W24
 BYTE   W24
//  #04 //023   ----------------------------------------
 BYTE   W24
 BYTE   W24
 BYTE   W24
 BYTE   W24
//  #04 //024   ----------------------------------------
 BYTE   W24
 BYTE   W24
 BYTE   W24
 BYTE   W24
//  #04 //025   ----------------------------------------
 BYTE   W24
 BYTE   W24
 BYTE   W24
 BYTE   W24
//  #04 //026   ----------------------------------------
 BYTE   W24
 BYTE   W24
 BYTE   W24
 BYTE   W24
//  #04 //027   ----------------------------------------
 BYTE   W04
 BYTE   N90  Gs3  v127
 BYTE   W20
 BYTE   W24
 BYTE   W24
 BYTE   W24
//  #04 //028   ----------------------------------------
 BYTE   W04
 BYTE   Fs3
 BYTE   W20
 BYTE   W24
 BYTE   W24
 BYTE   W24
//  #04 //029   ----------------------------------------
 BYTE   W04
 BYTE   En3
 BYTE   W20
 BYTE   W24
 BYTE   W24
 BYTE   W24
//  #04 //030   ----------------------------------------
 BYTE   W04
 BYTE   Fs3
 BYTE   W20
 BYTE   W24
 BYTE   W24
 BYTE   W24
//  #04 //031   ----------------------------------------
 BYTE   W04
 BYTE   N42
 BYTE   W20
 BYTE   W24
 BYTE   W04
 BYTE   En3
 BYTE   W20
 BYTE   W24
//  #04 //032   ----------------------------------------
 BYTE   W04
 BYTE   Fs3
 BYTE   W20
 BYTE   W24
 BYTE   W04
 BYTE   Ds3
 BYTE   W20
 BYTE   W24
//  #04 //033   ----------------------------------------
 BYTE   W24
 BYTE   W12
 BYTE   N12  En3
 BYTE   W12
 BYTE   N48  Ds3
 BYTE   W24
 BYTE   W24
//  #04 //034   ----------------------------------------
 BYTE   W24
 BYTE   W12
 BYTE   N12  Cs3
 BYTE   W12
 BYTE   N48  Bn2
 BYTE   W24
 BYTE   W24
//  #04 //035   ----------------------------------------
 BYTE   N96  En3
 BYTE   W24
 BYTE   W24
 BYTE   W24
 BYTE   W24
//  #04 //036   ----------------------------------------
 BYTE   N48
 BYTE   W24
 BYTE   W24
 BYTE   Ds3
 BYTE   W24
 BYTE   W24
//  #04 //037   ----------------------------------------
 BYTE   W24
 BYTE   W12
 BYTE   N60  Gn3
 BYTE   W12
 BYTE   W24
 BYTE   W24
//  #04 //038   ----------------------------------------
 BYTE   W24
 BYTE   W12
 BYTE   An3
 BYTE   W12
 BYTE   W24
 BYTE   W24
//  #04 //039   ----------------------------------------
 BYTE   W24
 BYTE   W12
 BYTE   Gn3
 BYTE   W12
 BYTE   W24
 BYTE   W24
//  #04 //040   ----------------------------------------
 BYTE   N24  Fs3
 BYTE   W24
 BYTE   Gs3
 BYTE   W24
 BYTE   An3
 BYTE   W24
 BYTE   GoTo
  POIN2 Label_56A132
//  #04 //041   ----------------------------------------
 BYTE   N23  As3  v127
 BYTE   W24
 BYTE   W24
 BYTE   W24
 BYTE   W24
//  #04 //042   ----------------------------------------
 BYTE   W24
 BYTE   W24
 BYTE   W24
 BYTE   W24
//  #04 //043   ----------------------------------------
 BYTE   W24
 BYTE   W24
 BYTE   W24
 BYTE   W24
//  #04 //044   ----------------------------------------
 BYTE   W24
 BYTE   W24
 BYTE   W24
 BYTE   W24
//  #04 //045   ----------------------------------------
 BYTE   W24
 BYTE   W24
 BYTE   W24
 BYTE   W24
//  #04 //046   ----------------------------------------
 BYTE   W24
 BYTE   W24
 BYTE   W24
 BYTE   W24
//  #04 //047   ----------------------------------------
 BYTE   W24
 BYTE   W24
 BYTE   W24
 BYTE   W24
//  #04 //048   ----------------------------------------
 BYTE   W24
 BYTE   W24
 BYTE   W24
 BYTE   W24
//  #04 //049   ----------------------------------------
 BYTE   W24
 BYTE   W24
 BYTE   W24
 BYTE   W24
//  #04 //050   ----------------------------------------
 BYTE   W24
 BYTE   W24
 BYTE   W24
 BYTE   W24
//  #04 //051   ----------------------------------------
 BYTE   W24
 BYTE   W24
 BYTE   W24
 BYTE   W24
//  #04 //052   ----------------------------------------
 BYTE   W24
 BYTE   W24
 BYTE   W24
 BYTE   W24
//  #04 //053   ----------------------------------------
 BYTE   W24
 BYTE   W24
 BYTE   W24
 BYTE   W24
//  #04 //054   ----------------------------------------
 BYTE   W24
 BYTE   W24
 BYTE   W24
 BYTE   W24
//  #04 //055   ----------------------------------------
 BYTE   W24
 BYTE   W24
 BYTE   W24
 BYTE   W24
//  #04 //056   ----------------------------------------
 BYTE   W24
 BYTE   W24
 BYTE   W24
 BYTE   W24
//  #04 //057   ----------------------------------------
 BYTE   W24
 BYTE   W24
 BYTE   W24
 BYTE   W24
//  #04 //058   ----------------------------------------
 BYTE   W24
 BYTE   W24
 BYTE   W24
 BYTE   W24
//  #04 //059   ----------------------------------------
 BYTE   W24
 BYTE   W24
 BYTE   W24
 BYTE   W24
//  #04 //060   ----------------------------------------
 BYTE   W24
 BYTE   W24
 BYTE   W24
 BYTE   W24
//  #04 //061   ----------------------------------------
 BYTE   W24
 BYTE   W24
 BYTE   W24
 BYTE   W24
//  #04 //062   ----------------------------------------
 BYTE   W24
 BYTE   W24
 BYTE   W24
 BYTE   W24
//  #04 //063   ----------------------------------------
 BYTE   W24
 BYTE   W24
 BYTE   W24
 BYTE   W24
//  #04 //064   ----------------------------------------
 BYTE   W24
 BYTE   W24
 BYTE   W24
 BYTE   W24
//  #04 //065   ----------------------------------------
 BYTE   W24
 BYTE   W24
 BYTE   W24
 BYTE   W24
//  #04 //066   ----------------------------------------
 BYTE   W24
 BYTE   W24
 BYTE   W24
 BYTE   W24
//  #04 //067   ----------------------------------------
 BYTE   W24
 BYTE   W04
 BYTE   N90  Gs3
 BYTE   W20
 BYTE   W24
 BYTE   W24
//  #04 //068   ----------------------------------------
 BYTE   W24
 BYTE   W04
 BYTE   Fs3
 BYTE   W20
 BYTE   W24
 BYTE   W24
//  #04 //069   ----------------------------------------
 BYTE   W24
 BYTE   W04
 BYTE   En3
 BYTE   W20
 BYTE   W24
 BYTE   W24
//  #04 //070   ----------------------------------------
 BYTE   W24
 BYTE   W04
 BYTE   Fs3
 BYTE   W20
 BYTE   W24
 BYTE   W24
//  #04 //071   ----------------------------------------
 BYTE   W24
 BYTE   W04
 BYTE   N42
 BYTE   W20
 BYTE   W24
 BYTE   W04
 BYTE   En3
 BYTE   W20
//  #04 //072   ----------------------------------------
 BYTE   W24
 BYTE   W04
 BYTE   Fs3
 BYTE   W20
 BYTE   W24
 BYTE   W04
 BYTE   Ds3
 BYTE   W20
//  #04 //073   ----------------------------------------
 BYTE   W24
 BYTE   W24
 BYTE   W12
 BYTE   N12  En3
 BYTE   W12
 BYTE   N48  Ds3
 BYTE   W24
//  #04 //074   ----------------------------------------
 BYTE   W24
 BYTE   W24
 BYTE   W12
 BYTE   N12  Cs3
 BYTE   W12
 BYTE   N48  Bn2
 BYTE   W24
//  #04 //075   ----------------------------------------
 BYTE   W24
 BYTE   N96  En3
 BYTE   W24
 BYTE   W24
 BYTE   W24
//  #04 //076   ----------------------------------------
 BYTE   W24
 BYTE   N48
 BYTE   W24
 BYTE   W24
 BYTE   Ds3
 BYTE   W24
//  #04 //077   ----------------------------------------
 BYTE   W24
 BYTE   W24
 BYTE   W12
 BYTE   N60  Gn3
 BYTE   W12
 BYTE   W24
//  #04 //078   ----------------------------------------
 BYTE   W24
 BYTE   W24
 BYTE   W12
 BYTE   An3
 BYTE   W12
 BYTE   W24
//  #04 //079   ----------------------------------------
 BYTE   W24
 BYTE   W24
 BYTE   W12
 BYTE   Gn3
 BYTE   W12
 BYTE   W24
//  #04 //080   ----------------------------------------
 BYTE   W24
 BYTE   N24  Fs3
 BYTE   W24
 BYTE   Gs3
 BYTE   W24
 BYTE   An3
 BYTE   W24
//  #04 //081   ----------------------------------------
 BYTE   N23  Bn3
 BYTE   W24
 BYTE   W24
 BYTE   W24
 BYTE   W24
//  #04 //082   ----------------------------------------
 BYTE   W24
 BYTE   FINE

//**************** Track 5 (Midi-Chn.4) ****************//

PokemonMDExplorersDefendGlobePsyche_005:
//  #05 //000   ----------------------------------------
 BYTE   KEYSH   PokemonMDExplorersDefendGlobePsyche_key+0
 BYTE   VOICE   46
 BYTE   PAN   c_v-14
 BYTE   VOL   30*PokemonMDExplorersDefendGlobePsyche_mvl/mxv
 BYTE   BEND   c_v+0
 BYTE   W24
 BYTE   W24
 BYTE   W24
 BYTE   W24
//  #05 //001   ----------------------------------------
Label_5697EA:
 BYTE   W24
 BYTE   W24
 BYTE   W24
 BYTE   W24
//  #05 //002   ----------------------------------------
 BYTE   W24
 BYTE   W24
 BYTE   W24
 BYTE   W24
//  #05 //003   ----------------------------------------
 BYTE   W24
 BYTE   W24
 BYTE   W24
 BYTE   W24
//  #05 //004   ----------------------------------------
 BYTE   W24
 BYTE   W24
 BYTE   W24
 BYTE   W24
//  #05 //005   ----------------------------------------
 BYTE   W24
 BYTE   W24
 BYTE   W24
 BYTE   W24
//  #05 //006   ----------------------------------------
 BYTE   W24
 BYTE   W24
 BYTE   W24
 BYTE   W24
//  #05 //007   ----------------------------------------
 BYTE   W24
 BYTE   W24
 BYTE   W24
 BYTE   W24
//  #05 //008   ----------------------------------------
 BYTE   W24
 BYTE   W24
 BYTE   W24
 BYTE   W24
//  #05 //009   ----------------------------------------
 BYTE   W24
 BYTE   W24
 BYTE   W24
 BYTE   W24
//  #05 //010   ----------------------------------------
 BYTE   W24
 BYTE   W24
 BYTE   W24
 BYTE   W24
//  #05 //011   ----------------------------------------
 BYTE   W24
 BYTE   W24
 BYTE   W24
 BYTE   W24
//  #05 //012   ----------------------------------------
 BYTE   W24
 BYTE   W24
 BYTE   W24
 BYTE   W24
//  #05 //013   ----------------------------------------
 BYTE   W24
 BYTE   W24
 BYTE   W24
 BYTE   W24
//  #05 //014   ----------------------------------------
 BYTE   W24
 BYTE   W24
 BYTE   W24
 BYTE   W24
//  #05 //015   ----------------------------------------
 BYTE   W24
 BYTE   W24
 BYTE   W24
 BYTE   W24
//  #05 //016   ----------------------------------------
 BYTE   W24
 BYTE   W24
 BYTE   W24
 BYTE   W24
//  #05 //017   ----------------------------------------
 BYTE   W24
 BYTE   W24
 BYTE   W24
 BYTE   W24
//  #05 //018   ----------------------------------------
 BYTE   W24
 BYTE   W24
 BYTE   W24
 BYTE   W24
//  #05 //019   ----------------------------------------
 BYTE   W24
 BYTE   W24
 BYTE   W24
 BYTE   W24
//  #05 //020   ----------------------------------------
 BYTE   W24
 BYTE   W24
 BYTE   W24
 BYTE   W24
//  #05 //021   ----------------------------------------
 BYTE   W24
 BYTE   W24
 BYTE   W24
 BYTE   W24
//  #05 //022   ----------------------------------------
 BYTE   W24
 BYTE   W24
 BYTE   W24
 BYTE   W24
//  #05 //023   ----------------------------------------
 BYTE   W24
 BYTE   W24
 BYTE   W24
 BYTE   W24
//  #05 //024   ----------------------------------------
 BYTE   W24
 BYTE   W24
 BYTE   W24
 BYTE   W24
//  #05 //025   ----------------------------------------
 BYTE   W24
 BYTE   W24
 BYTE   W24
 BYTE   W24
//  #05 //026   ----------------------------------------
 BYTE   W24
 BYTE   W24
 BYTE   W24
 BYTE   W24
//  #05 //027   ----------------------------------------
 BYTE   W03
 BYTE   N92  En3  v127
 BYTE   W21
 BYTE   W24
 BYTE   W24
 BYTE   W24
//  #05 //028   ----------------------------------------
 BYTE   W03
 BYTE   Ds3
 BYTE   W21
 BYTE   W24
 BYTE   W24
 BYTE   W24
//  #05 //029   ----------------------------------------
 BYTE   W03
 BYTE   Bn2
 BYTE   W21
 BYTE   W24
 BYTE   W24
 BYTE   W24
//  #05 //030   ----------------------------------------
 BYTE   W03
 BYTE   Ds3
 BYTE   W21
 BYTE   W24
 BYTE   W24
 BYTE   W24
//  #05 //031   ----------------------------------------
 BYTE   W03
 BYTE   N44  Cs3
 BYTE   W21
 BYTE   W24
 BYTE   W03
 BYTE   N44
 BYTE   W21
 BYTE   W24
//  #05 //032   ----------------------------------------
 BYTE   W03
 BYTE   N44
 BYTE   W21
 BYTE   W24
 BYTE   W03
 BYTE   Cn3
 BYTE   W21
 BYTE   W24
//  #05 //033   ----------------------------------------
 BYTE   W24
 BYTE   N24  Cs3
 BYTE   W24
 BYTE   N48  Gs2
 BYTE   W24
 BYTE   W24
//  #05 //034   ----------------------------------------
 BYTE   W24
 BYTE   N24  Fs2
 BYTE   W24
 BYTE   N48  En2
 BYTE   W24
 BYTE   W24
//  #05 //035   ----------------------------------------
 BYTE   N96  Cs3
 BYTE   W24
 BYTE   W24
 BYTE   W24
 BYTE   W24
//  #05 //036   ----------------------------------------
 BYTE   N48
 BYTE   W24
 BYTE   W24
 BYTE   N48
 BYTE   W24
 BYTE   W24
//  #05 //037   ----------------------------------------
 BYTE   W24
 BYTE   N72  Cn3
 BYTE   W24
 BYTE   W24
 BYTE   W24
//  #05 //038   ----------------------------------------
 BYTE   W24
 BYTE   Dn3
 BYTE   W24
 BYTE   W24
 BYTE   W24
//  #05 //039   ----------------------------------------
 BYTE   W24
 BYTE   Cn3
 BYTE   W24
 BYTE   W24
 BYTE   W24
//  #05 //040   ----------------------------------------
 BYTE   N24  Dn3
 BYTE   W24
 BYTE   En3
 BYTE   W24
 BYTE   Fs3
 BYTE   W24
 BYTE   GoTo
  POIN2 Label_5697EA
//  #05 //041   ----------------------------------------
 BYTE   N23  Gs3  v127
 BYTE   W24
 BYTE   W24
 BYTE   W24
 BYTE   W24
//  #05 //042   ----------------------------------------
 BYTE   W24
 BYTE   W24
 BYTE   W24
 BYTE   W24
//  #05 //043   ----------------------------------------
 BYTE   W24
 BYTE   W24
 BYTE   W24
 BYTE   W24
//  #05 //044   ----------------------------------------
 BYTE   W24
 BYTE   W24
 BYTE   W24
 BYTE   W24
//  #05 //045   ----------------------------------------
 BYTE   W24
 BYTE   W24
 BYTE   W24
 BYTE   W24
//  #05 //046   ----------------------------------------
 BYTE   W24
 BYTE   W24
 BYTE   W24
 BYTE   W24
//  #05 //047   ----------------------------------------
 BYTE   W24
 BYTE   W24
 BYTE   W24
 BYTE   W24
//  #05 //048   ----------------------------------------
 BYTE   W24
 BYTE   W24
 BYTE   W24
 BYTE   W24
//  #05 //049   ----------------------------------------
 BYTE   W24
 BYTE   W24
 BYTE   W24
 BYTE   W24
//  #05 //050   ----------------------------------------
 BYTE   W24
 BYTE   W24
 BYTE   W24
 BYTE   W24
//  #05 //051   ----------------------------------------
 BYTE   W24
 BYTE   W24
 BYTE   W24
 BYTE   W24
//  #05 //052   ----------------------------------------
 BYTE   W24
 BYTE   W24
 BYTE   W24
 BYTE   W24
//  #05 //053   ----------------------------------------
 BYTE   W24
 BYTE   W24
 BYTE   W24
 BYTE   W24
//  #05 //054   ----------------------------------------
 BYTE   W24
 BYTE   W24
 BYTE   W24
 BYTE   W24
//  #05 //055   ----------------------------------------
 BYTE   W24
 BYTE   W24
 BYTE   W24
 BYTE   W24
//  #05 //056   ----------------------------------------
 BYTE   W24
 BYTE   W24
 BYTE   W24
 BYTE   W24
//  #05 //057   ----------------------------------------
 BYTE   W24
 BYTE   W24
 BYTE   W24
 BYTE   W24
//  #05 //058   ----------------------------------------
 BYTE   W24
 BYTE   W24
 BYTE   W24
 BYTE   W24
//  #05 //059   ----------------------------------------
 BYTE   W24
 BYTE   W24
 BYTE   W24
 BYTE   W24
//  #05 //060   ----------------------------------------
 BYTE   W24
 BYTE   W24
 BYTE   W24
 BYTE   W24
//  #05 //061   ----------------------------------------
 BYTE   W24
 BYTE   W24
 BYTE   W24
 BYTE   W24
//  #05 //062   ----------------------------------------
 BYTE   W24
 BYTE   W24
 BYTE   W24
 BYTE   W24
//  #05 //063   ----------------------------------------
 BYTE   W24
 BYTE   W24
 BYTE   W24
 BYTE   W24
//  #05 //064   ----------------------------------------
 BYTE   W24
 BYTE   W24
 BYTE   W24
 BYTE   W24
//  #05 //065   ----------------------------------------
 BYTE   W24
 BYTE   W24
 BYTE   W24
 BYTE   W24
//  #05 //066   ----------------------------------------
 BYTE   W24
 BYTE   W24
 BYTE   W24
 BYTE   W24
//  #05 //067   ----------------------------------------
 BYTE   W24
 BYTE   W03
 BYTE   N92  En3
 BYTE   W21
 BYTE   W24
 BYTE   W24
//  #05 //068   ----------------------------------------
 BYTE   W24
 BYTE   W03
 BYTE   Ds3
 BYTE   W21
 BYTE   W24
 BYTE   W24
//  #05 //069   ----------------------------------------
 BYTE   W24
 BYTE   W03
 BYTE   Bn2
 BYTE   W21
 BYTE   W24
 BYTE   W24
//  #05 //070   ----------------------------------------
 BYTE   W24
 BYTE   W03
 BYTE   Ds3
 BYTE   W21
 BYTE   W24
 BYTE   W24
//  #05 //071   ----------------------------------------
 BYTE   W24
 BYTE   W03
 BYTE   N44  Cs3
 BYTE   W21
 BYTE   W24
 BYTE   W03
 BYTE   N44
 BYTE   W21
//  #05 //072   ----------------------------------------
 BYTE   W24
 BYTE   W03
 BYTE   N44
 BYTE   W21
 BYTE   W24
 BYTE   W03
 BYTE   Cn3
 BYTE   W21
//  #05 //073   ----------------------------------------
 BYTE   W24
 BYTE   W24
 BYTE   N24  Cs3
 BYTE   W24
 BYTE   N48  Gs2
 BYTE   W24
//  #05 //074   ----------------------------------------
 BYTE   W24
 BYTE   W24
 BYTE   N24  Fs2
 BYTE   W24
 BYTE   N48  En2
 BYTE   W24
//  #05 //075   ----------------------------------------
 BYTE   W24
 BYTE   N96  Cs3
 BYTE   W24
 BYTE   W24
 BYTE   W24
//  #05 //076   ----------------------------------------
 BYTE   W24
 BYTE   N48
 BYTE   W24
 BYTE   W24
 BYTE   N48
 BYTE   W24
//  #05 //077   ----------------------------------------
 BYTE   W24
 BYTE   W24
 BYTE   N72  Cn3
 BYTE   W24
 BYTE   W24
//  #05 //078   ----------------------------------------
 BYTE   W24
 BYTE   W24
 BYTE   Dn3
 BYTE   W24
 BYTE   W24
//  #05 //079   ----------------------------------------
 BYTE   W24
 BYTE   W24
 BYTE   Cn3
 BYTE   W24
 BYTE   W24
//  #05 //080   ----------------------------------------
 BYTE   W24
 BYTE   N24  Dn3
 BYTE   W24
 BYTE   En3
 BYTE   W24
 BYTE   Fs3
 BYTE   W24
//  #05 //081   ----------------------------------------
 BYTE   N23  Gs3
 BYTE   W24
 BYTE   W24
 BYTE   W24
 BYTE   W24
//  #05 //082   ----------------------------------------
 BYTE   W24
 BYTE   FINE

//**************** Track 6 (Midi-Chn.5) ****************//

PokemonMDExplorersDefendGlobePsyche_006:
//  #06 //000   ----------------------------------------
 BYTE   KEYSH   PokemonMDExplorersDefendGlobePsyche_key+0
 BYTE   VOICE   46
 BYTE   PAN   c_v+6
 BYTE   VOL   30*PokemonMDExplorersDefendGlobePsyche_mvl/mxv
 BYTE   BEND   c_v+0
 BYTE   W24
 BYTE   W24
 BYTE   W24
 BYTE   W24
//  #06 //001   ----------------------------------------
Label_0105E5B2:
 BYTE   W24
 BYTE   W24
 BYTE   W24
 BYTE   W24
//  #06 //002   ----------------------------------------
 BYTE   W24
 BYTE   W24
 BYTE   W24
 BYTE   W24
//  #06 //003   ----------------------------------------
 BYTE   W24
 BYTE   W24
 BYTE   W24
 BYTE   W24
//  #06 //004   ----------------------------------------
 BYTE   W24
 BYTE   W24
 BYTE   W24
 BYTE   W24
//  #06 //005   ----------------------------------------
 BYTE   W24
 BYTE   W24
 BYTE   W24
 BYTE   W24
//  #06 //006   ----------------------------------------
 BYTE   W24
 BYTE   W24
 BYTE   W24
 BYTE   W24
//  #06 //007   ----------------------------------------
 BYTE   W24
 BYTE   W24
 BYTE   W24
 BYTE   W24
//  #06 //008   ----------------------------------------
 BYTE   W24
 BYTE   W24
 BYTE   W24
 BYTE   W24
//  #06 //009   ----------------------------------------
 BYTE   W24
 BYTE   W24
 BYTE   W24
 BYTE   W24
//  #06 //010   ----------------------------------------
 BYTE   W24
 BYTE   W24
 BYTE   W24
 BYTE   W24
//  #06 //011   ----------------------------------------
 BYTE   W24
 BYTE   W24
 BYTE   W24
 BYTE   W24
//  #06 //012   ----------------------------------------
 BYTE   W24
 BYTE   W24
 BYTE   W24
 BYTE   W24
//  #06 //013   ----------------------------------------
 BYTE   W24
 BYTE   W24
 BYTE   W24
 BYTE   W24
//  #06 //014   ----------------------------------------
 BYTE   W24
 BYTE   W24
 BYTE   W24
 BYTE   W24
//  #06 //015   ----------------------------------------
 BYTE   W24
 BYTE   W24
 BYTE   W24
 BYTE   W24
//  #06 //016   ----------------------------------------
 BYTE   W24
 BYTE   W24
 BYTE   W24
 BYTE   W24
//  #06 //017   ----------------------------------------
 BYTE   W24
 BYTE   W24
 BYTE   W24
 BYTE   W24
//  #06 //018   ----------------------------------------
 BYTE   W24
 BYTE   W24
 BYTE   W24
 BYTE   W24
//  #06 //019   ----------------------------------------
 BYTE   W24
 BYTE   W24
 BYTE   W24
 BYTE   W24
//  #06 //020   ----------------------------------------
 BYTE   W24
 BYTE   W24
 BYTE   W24
 BYTE   W24
//  #06 //021   ----------------------------------------
 BYTE   W24
 BYTE   W24
 BYTE   W24
 BYTE   W24
//  #06 //022   ----------------------------------------
 BYTE   W24
 BYTE   W24
 BYTE   W24
 BYTE   W24
//  #06 //023   ----------------------------------------
 BYTE   W24
 BYTE   W24
 BYTE   W24
 BYTE   W24
//  #06 //024   ----------------------------------------
 BYTE   W24
 BYTE   W24
 BYTE   W24
 BYTE   W24
//  #06 //025   ----------------------------------------
 BYTE   W24
 BYTE   W24
 BYTE   W24
 BYTE   W24
//  #06 //026   ----------------------------------------
 BYTE   W24
 BYTE   W24
 BYTE   W24
 BYTE   W24
//  #06 //027   ----------------------------------------
 BYTE   W01
 BYTE   N92  Bn2  v127
 BYTE   W23
 BYTE   W24
 BYTE   W24
 BYTE   W24
//  #06 //028   ----------------------------------------
 BYTE   W01
 BYTE   N92
 BYTE   W23
 BYTE   W24
 BYTE   W24
 BYTE   W24
//  #06 //029   ----------------------------------------
 BYTE   W01
 BYTE   Gs2
 BYTE   W23
 BYTE   W24
 BYTE   W24
 BYTE   W24
//  #06 //030   ----------------------------------------
 BYTE   W01
 BYTE   Bn2
 BYTE   W23
 BYTE   W24
 BYTE   W24
 BYTE   W24
//  #06 //031   ----------------------------------------
 BYTE   W01
 BYTE   N44  An2
 BYTE   W23
 BYTE   W24
 BYTE   W01
 BYTE   N44
 BYTE   W23
 BYTE   W24
//  #06 //032   ----------------------------------------
 BYTE   W01
 BYTE   N44
 BYTE   W23
 BYTE   W24
 BYTE   W01
 BYTE   Fs2
 BYTE   W23
 BYTE   W24
//  #06 //033   ----------------------------------------
 BYTE   W12
 BYTE   N36  Gs2
 BYTE   W12
 BYTE   W24
 BYTE   W24
 BYTE   W24
//  #06 //034   ----------------------------------------
 BYTE   W12
 BYTE   En2
 BYTE   W12
 BYTE   W24
 BYTE   W24
 BYTE   W24
//  #06 //035   ----------------------------------------
 BYTE   N96  An2
 BYTE   W24
 BYTE   W24
 BYTE   W24
 BYTE   W24
//  #06 //036   ----------------------------------------
 BYTE   N48
 BYTE   W24
 BYTE   W24
 BYTE   N48
 BYTE   W24
 BYTE   W24
//  #06 //037   ----------------------------------------
 BYTE   W12
 BYTE   N84  Gn2
 BYTE   W12
 BYTE   W24
 BYTE   W24
 BYTE   W24
//  #06 //038   ----------------------------------------
 BYTE   W12
 BYTE   An2
 BYTE   W12
 BYTE   W24
 BYTE   W24
 BYTE   W24
//  #06 //039   ----------------------------------------
 BYTE   W12
 BYTE   Gn2
 BYTE   W12
 BYTE   W24
 BYTE   W24
 BYTE   W24
//  #06 //040   ----------------------------------------
 BYTE   N24  An2
 BYTE   W24
 BYTE   N24
 BYTE   W24
 BYTE   Dn3
 BYTE   W24
 BYTE   GoTo
  POIN2 Label_0105E5B2
//  #06 //041   ----------------------------------------
 BYTE   N23  Dn3  v127
 BYTE   W24
 BYTE   W24
 BYTE   W24
 BYTE   W24
//  #06 //042   ----------------------------------------
 BYTE   W24
 BYTE   W24
 BYTE   W24
 BYTE   W24
//  #06 //043   ----------------------------------------
 BYTE   W24
 BYTE   W24
 BYTE   W24
 BYTE   W24
//  #06 //044   ----------------------------------------
 BYTE   W24
 BYTE   W24
 BYTE   W24
 BYTE   W24
//  #06 //045   ----------------------------------------
 BYTE   W24
 BYTE   W24
 BYTE   W24
 BYTE   W24
//  #06 //046   ----------------------------------------
 BYTE   W24
 BYTE   W24
 BYTE   W24
 BYTE   W24
//  #06 //047   ----------------------------------------
 BYTE   W24
 BYTE   W24
 BYTE   W24
 BYTE   W24
//  #06 //048   ----------------------------------------
 BYTE   W24
 BYTE   W24
 BYTE   W24
 BYTE   W24
//  #06 //049   ----------------------------------------
 BYTE   W24
 BYTE   W24
 BYTE   W24
 BYTE   W24
//  #06 //050   ----------------------------------------
 BYTE   W24
 BYTE   W24
 BYTE   W24
 BYTE   W24
//  #06 //051   ----------------------------------------
 BYTE   W24
 BYTE   W24
 BYTE   W24
 BYTE   W24
//  #06 //052   ----------------------------------------
 BYTE   W24
 BYTE   W24
 BYTE   W24
 BYTE   W24
//  #06 //053   ----------------------------------------
 BYTE   W24
 BYTE   W24
 BYTE   W24
 BYTE   W24
//  #06 //054   ----------------------------------------
 BYTE   W24
 BYTE   W24
 BYTE   W24
 BYTE   W24
//  #06 //055   ----------------------------------------
 BYTE   W24
 BYTE   W24
 BYTE   W24
 BYTE   W24
//  #06 //056   ----------------------------------------
 BYTE   W24
 BYTE   W24
 BYTE   W24
 BYTE   W24
//  #06 //057   ----------------------------------------
 BYTE   W24
 BYTE   W24
 BYTE   W24
 BYTE   W24
//  #06 //058   ----------------------------------------
 BYTE   W24
 BYTE   W24
 BYTE   W24
 BYTE   W24
//  #06 //059   ----------------------------------------
 BYTE   W24
 BYTE   W24
 BYTE   W24
 BYTE   W24
//  #06 //060   ----------------------------------------
 BYTE   W24
 BYTE   W24
 BYTE   W24
 BYTE   W24
//  #06 //061   ----------------------------------------
 BYTE   W24
 BYTE   W24
 BYTE   W24
 BYTE   W24
//  #06 //062   ----------------------------------------
 BYTE   W24
 BYTE   W24
 BYTE   W24
 BYTE   W24
//  #06 //063   ----------------------------------------
 BYTE   W24
 BYTE   W24
 BYTE   W24
 BYTE   W24
//  #06 //064   ----------------------------------------
 BYTE   W24
 BYTE   W24
 BYTE   W24
 BYTE   W24
//  #06 //065   ----------------------------------------
 BYTE   W24
 BYTE   W24
 BYTE   W24
 BYTE   W24
//  #06 //066   ----------------------------------------
 BYTE   W24
 BYTE   W24
 BYTE   W24
 BYTE   W24
//  #06 //067   ----------------------------------------
 BYTE   W24
 BYTE   W01
 BYTE   N92  Bn2
 BYTE   W23
 BYTE   W24
 BYTE   W24
//  #06 //068   ----------------------------------------
 BYTE   W24
 BYTE   W01
 BYTE   N92
 BYTE   W23
 BYTE   W24
 BYTE   W24
//  #06 //069   ----------------------------------------
 BYTE   W24
 BYTE   W01
 BYTE   Gs2
 BYTE   W23
 BYTE   W24
 BYTE   W24
//  #06 //070   ----------------------------------------
 BYTE   W24
 BYTE   W01
 BYTE   Bn2
 BYTE   W23
 BYTE   W24
 BYTE   W24
//  #06 //071   ----------------------------------------
 BYTE   W24
 BYTE   W01
 BYTE   N44  An2
 BYTE   W23
 BYTE   W24
 BYTE   W01
 BYTE   N44
 BYTE   W23
//  #06 //072   ----------------------------------------
 BYTE   W24
 BYTE   W01
 BYTE   N44
 BYTE   W23
 BYTE   W24
 BYTE   W01
 BYTE   Fs2
 BYTE   W23
//  #06 //073   ----------------------------------------
 BYTE   W24
 BYTE   W12
 BYTE   N36  Gs2
 BYTE   W12
 BYTE   W24
 BYTE   W24
//  #06 //074   ----------------------------------------
 BYTE   W24
 BYTE   W12
 BYTE   En2
 BYTE   W12
 BYTE   W24
 BYTE   W24
//  #06 //075   ----------------------------------------
 BYTE   W24
 BYTE   N96  An2
 BYTE   W24
 BYTE   W24
 BYTE   W24
//  #06 //076   ----------------------------------------
 BYTE   W24
 BYTE   N48
 BYTE   W24
 BYTE   W24
 BYTE   N48
 BYTE   W24
//  #06 //077   ----------------------------------------
 BYTE   W24
 BYTE   W12
 BYTE   N84  Gn2
 BYTE   W12
 BYTE   W24
 BYTE   W24
//  #06 //078   ----------------------------------------
 BYTE   W24
 BYTE   W12
 BYTE   An2
 BYTE   W12
 BYTE   W24
 BYTE   W24
//  #06 //079   ----------------------------------------
 BYTE   W24
 BYTE   W12
 BYTE   Gn2
 BYTE   W12
 BYTE   W24
 BYTE   W24
//  #06 //080   ----------------------------------------
 BYTE   W24
 BYTE   N24  An2
 BYTE   W24
 BYTE   N24
 BYTE   W24
 BYTE   Dn3
 BYTE   W24
//  #06 //081   ----------------------------------------
 BYTE   N23
 BYTE   W24
 BYTE   W24
 BYTE   W24
 BYTE   W24
//  #06 //082   ----------------------------------------
 BYTE   W24
 BYTE   FINE

//**************** Track 7 (Midi-Chn.6) ****************//

PokemonMDExplorersDefendGlobePsyche_007:
//  #07 //000   ----------------------------------------
 BYTE   KEYSH   PokemonMDExplorersDefendGlobePsyche_key+0
 BYTE   VOICE   46
 BYTE   PAN   c_v+36
 BYTE   VOL   30*PokemonMDExplorersDefendGlobePsyche_mvl/mxv
 BYTE   BEND   c_v+0
 BYTE   W24
 BYTE   W24
 BYTE   W24
 BYTE   W24
//  #07 //001   ----------------------------------------
Label_0105E75E:
 BYTE   W24
 BYTE   W24
 BYTE   W24
 BYTE   W24
//  #07 //002   ----------------------------------------
 BYTE   W24
 BYTE   W24
 BYTE   W24
 BYTE   W24
//  #07 //003   ----------------------------------------
 BYTE   W24
 BYTE   W24
 BYTE   W24
 BYTE   W24
//  #07 //004   ----------------------------------------
 BYTE   W24
 BYTE   W24
 BYTE   W24
 BYTE   W24
//  #07 //005   ----------------------------------------
 BYTE   W24
 BYTE   W24
 BYTE   W24
 BYTE   W24
//  #07 //006   ----------------------------------------
 BYTE   W24
 BYTE   W24
 BYTE   W24
 BYTE   W24
//  #07 //007   ----------------------------------------
 BYTE   W24
 BYTE   W24
 BYTE   W24
 BYTE   W24
//  #07 //008   ----------------------------------------
 BYTE   W24
 BYTE   W24
 BYTE   W24
 BYTE   W24
//  #07 //009   ----------------------------------------
 BYTE   W24
 BYTE   W24
 BYTE   W24
 BYTE   W24
//  #07 //010   ----------------------------------------
 BYTE   W24
 BYTE   W24
 BYTE   W24
 BYTE   W24
//  #07 //011   ----------------------------------------
 BYTE   W24
 BYTE   W24
 BYTE   W24
 BYTE   W24
//  #07 //012   ----------------------------------------
 BYTE   W24
 BYTE   W24
 BYTE   W24
 BYTE   W24
//  #07 //013   ----------------------------------------
 BYTE   W24
 BYTE   W24
 BYTE   W24
 BYTE   W24
//  #07 //014   ----------------------------------------
 BYTE   W24
 BYTE   W24
 BYTE   W24
 BYTE   W24
//  #07 //015   ----------------------------------------
 BYTE   W24
 BYTE   W24
 BYTE   W24
 BYTE   W24
//  #07 //016   ----------------------------------------
 BYTE   W24
 BYTE   W24
 BYTE   W24
 BYTE   W24
//  #07 //017   ----------------------------------------
 BYTE   W24
 BYTE   W24
 BYTE   W24
 BYTE   W24
//  #07 //018   ----------------------------------------
 BYTE   W24
 BYTE   W24
 BYTE   W24
 BYTE   W24
//  #07 //019   ----------------------------------------
 BYTE   W24
 BYTE   W24
 BYTE   W24
 BYTE   W24
//  #07 //020   ----------------------------------------
 BYTE   W24
 BYTE   W24
 BYTE   W24
 BYTE   W24
//  #07 //021   ----------------------------------------
 BYTE   W24
 BYTE   W24
 BYTE   W24
 BYTE   W24
//  #07 //022   ----------------------------------------
 BYTE   W24
 BYTE   W24
 BYTE   W24
 BYTE   W24
//  #07 //023   ----------------------------------------
 BYTE   W24
 BYTE   W24
 BYTE   W24
 BYTE   W24
//  #07 //024   ----------------------------------------
 BYTE   W24
 BYTE   W24
 BYTE   W24
 BYTE   W24
//  #07 //025   ----------------------------------------
 BYTE   W24
 BYTE   W24
 BYTE   W24
 BYTE   W24
//  #07 //026   ----------------------------------------
 BYTE   W24
 BYTE   W24
 BYTE   W24
 BYTE   W24
//  #07 //027   ----------------------------------------
 BYTE   N96  En2  v127
 BYTE   W24
 BYTE   W24
 BYTE   W24
 BYTE   W24
//  #07 //028   ----------------------------------------
 BYTE   Ds2
 BYTE   W24
 BYTE   W24
 BYTE   W24
 BYTE   W24
//  #07 //029   ----------------------------------------
 BYTE   Cs2
 BYTE   W24
 BYTE   W24
 BYTE   W24
 BYTE   W24
//  #07 //030   ----------------------------------------
 BYTE   Gs1
 BYTE   W24
 BYTE   W24
 BYTE   W24
 BYTE   W24
//  #07 //031   ----------------------------------------
 BYTE   N48  Fs2
 BYTE   W24
 BYTE   W24
 BYTE   En2
 BYTE   W24
 BYTE   W24
//  #07 //032   ----------------------------------------
 BYTE   Ds2
 BYTE   W24
 BYTE   W24
 BYTE   Gs1
 BYTE   W24
 BYTE   W24
//  #07 //033   ----------------------------------------
 BYTE   Cs2
 BYTE   W24
 BYTE   W24
 BYTE   Bn1
 BYTE   W24
 BYTE   W24
//  #07 //034   ----------------------------------------
 BYTE   An1
 BYTE   W24
 BYTE   W24
 BYTE   Gs1
 BYTE   W24
 BYTE   W24
//  #07 //035   ----------------------------------------
 BYTE   N96  Fs2
 BYTE   W24
 BYTE   W24
 BYTE   W24
 BYTE   W24
//  #07 //036   ----------------------------------------
 BYTE   N48  Bn1
 BYTE   W24
 BYTE   W24
 BYTE   N48
 BYTE   W24
 BYTE   W24
//  #07 //037   ----------------------------------------
 BYTE   N96  Cn2
 BYTE   W24
 BYTE   W24
 BYTE   W24
 BYTE   W24
//  #07 //038   ----------------------------------------
 BYTE   Dn2
 BYTE   W24
 BYTE   W24
 BYTE   W24
 BYTE   W24
//  #07 //039   ----------------------------------------
 BYTE   Cn2
 BYTE   W24
 BYTE   W24
 BYTE   W24
 BYTE   W24
//  #07 //040   ----------------------------------------
 BYTE   N48  Dn2
 BYTE   W24
 BYTE   W24
 BYTE   En2
 BYTE   W24
 BYTE   GoTo
  POIN2 Label_0105E75E
//  #07 //041   ----------------------------------------
 BYTE   W24
 BYTE   W24
 BYTE   W24
 BYTE   W24
//  #07 //042   ----------------------------------------
 BYTE   W24
 BYTE   W24
 BYTE   W24
 BYTE   W24
//  #07 //043   ----------------------------------------
 BYTE   W24
 BYTE   W24
 BYTE   W24
 BYTE   W24
//  #07 //044   ----------------------------------------
 BYTE   W24
 BYTE   W24
 BYTE   W24
 BYTE   W24
//  #07 //045   ----------------------------------------
 BYTE   W24
 BYTE   W24
 BYTE   W24
 BYTE   W24
//  #07 //046   ----------------------------------------
 BYTE   W24
 BYTE   W24
 BYTE   W24
 BYTE   W24
//  #07 //047   ----------------------------------------
 BYTE   W24
 BYTE   W24
 BYTE   W24
 BYTE   W24
//  #07 //048   ----------------------------------------
 BYTE   W24
 BYTE   W24
 BYTE   W24
 BYTE   W24
//  #07 //049   ----------------------------------------
 BYTE   W24
 BYTE   W24
 BYTE   W24
 BYTE   W24
//  #07 //050   ----------------------------------------
 BYTE   W24
 BYTE   W24
 BYTE   W24
 BYTE   W24
//  #07 //051   ----------------------------------------
 BYTE   W24
 BYTE   W24
 BYTE   W24
 BYTE   W24
//  #07 //052   ----------------------------------------
 BYTE   W24
 BYTE   W24
 BYTE   W24
 BYTE   W24
//  #07 //053   ----------------------------------------
 BYTE   W24
 BYTE   W24
 BYTE   W24
 BYTE   W24
//  #07 //054   ----------------------------------------
 BYTE   W24
 BYTE   W24
 BYTE   W24
 BYTE   W24
//  #07 //055   ----------------------------------------
 BYTE   W24
 BYTE   W24
 BYTE   W24
 BYTE   W24
//  #07 //056   ----------------------------------------
 BYTE   W24
 BYTE   W24
 BYTE   W24
 BYTE   W24
//  #07 //057   ----------------------------------------
 BYTE   W24
 BYTE   W24
 BYTE   W24
 BYTE   W24
//  #07 //058   ----------------------------------------
 BYTE   W24
 BYTE   W24
 BYTE   W24
 BYTE   W24
//  #07 //059   ----------------------------------------
 BYTE   W24
 BYTE   W24
 BYTE   W24
 BYTE   W24
//  #07 //060   ----------------------------------------
 BYTE   W24
 BYTE   W24
 BYTE   W24
 BYTE   W24
//  #07 //061   ----------------------------------------
 BYTE   W24
 BYTE   W24
 BYTE   W24
 BYTE   W24
//  #07 //062   ----------------------------------------
 BYTE   W24
 BYTE   W24
 BYTE   W24
 BYTE   W24
//  #07 //063   ----------------------------------------
 BYTE   W24
 BYTE   W24
 BYTE   W24
 BYTE   W24
//  #07 //064   ----------------------------------------
 BYTE   W24
 BYTE   W24
 BYTE   W24
 BYTE   W24
//  #07 //065   ----------------------------------------
 BYTE   W24
 BYTE   W24
 BYTE   W24
 BYTE   W24
//  #07 //066   ----------------------------------------
 BYTE   W24
 BYTE   W24
 BYTE   W24
 BYTE   W24
//  #07 //067   ----------------------------------------
 BYTE   W24
 BYTE   N96  En2  v127
 BYTE   W24
 BYTE   W24
 BYTE   W24
//  #07 //068   ----------------------------------------
 BYTE   W24
 BYTE   Ds2
 BYTE   W24
 BYTE   W24
 BYTE   W24
//  #07 //069   ----------------------------------------
 BYTE   W24
 BYTE   Cs2
 BYTE   W24
 BYTE   W24
 BYTE   W24
//  #07 //070   ----------------------------------------
 BYTE   W24
 BYTE   Gs1
 BYTE   W24
 BYTE   W24
 BYTE   W24
//  #07 //071   ----------------------------------------
 BYTE   W24
 BYTE   N48  Fs2
 BYTE   W24
 BYTE   W24
 BYTE   En2
 BYTE   W24
//  #07 //072   ----------------------------------------
 BYTE   W24
 BYTE   Ds2
 BYTE   W24
 BYTE   W24
 BYTE   Gs1
 BYTE   W24
//  #07 //073   ----------------------------------------
 BYTE   W24
 BYTE   Cs2
 BYTE   W24
 BYTE   W24
 BYTE   Bn1
 BYTE   W24
//  #07 //074   ----------------------------------------
 BYTE   W24
 BYTE   An1
 BYTE   W24
 BYTE   W24
 BYTE   Gs1
 BYTE   W24
//  #07 //075   ----------------------------------------
 BYTE   W24
 BYTE   N96  Fs2
 BYTE   W24
 BYTE   W24
 BYTE   W24
//  #07 //076   ----------------------------------------
 BYTE   W24
 BYTE   N48  Bn1
 BYTE   W24
 BYTE   W24
 BYTE   N48
 BYTE   W24
//  #07 //077   ----------------------------------------
 BYTE   W24
 BYTE   N96  Cn2
 BYTE   W24
 BYTE   W24
 BYTE   W24
//  #07 //078   ----------------------------------------
 BYTE   W24
 BYTE   Dn2
 BYTE   W24
 BYTE   W24
 BYTE   W24
//  #07 //079   ----------------------------------------
 BYTE   W24
 BYTE   Cn2
 BYTE   W24
 BYTE   W24
 BYTE   W24
//  #07 //080   ----------------------------------------
 BYTE   W24
 BYTE   N48  Dn2
 BYTE   W24
 BYTE   W24
 BYTE   En2
 BYTE   W24
//  #07 //081   ----------------------------------------
 BYTE   W24
 BYTE   W24
 BYTE   W24
 BYTE   W24
//  #07 //082   ----------------------------------------
 BYTE   W24
 BYTE   FINE

//**************** Track 8 (Midi-Chn.7) ****************//

PokemonMDExplorersDefendGlobePsyche_008:
//  #08 //000   ----------------------------------------
 BYTE   KEYSH   PokemonMDExplorersDefendGlobePsyche_key+0
 BYTE   VOICE   40
 BYTE   PAN   c_v-24
 BYTE   VOL   47*PokemonMDExplorersDefendGlobePsyche_mvl/mxv
 BYTE   BEND   c_v+0
 BYTE   W24
 BYTE   W24
 BYTE   W12
 BYTE   N36  En2  v127
 BYTE   W03
 BYTE   W03
 BYTE   W03
 BYTE   W03
 BYTE   W03
 BYTE   W03
 BYTE   W03
 BYTE   W03
 BYTE   W03
 BYTE   W03
 BYTE   W03
 BYTE   W03
//  #08 //001   ----------------------------------------
Label_0105E8FC:
 BYTE   W24
 BYTE   W24
 BYTE   W24
 BYTE   W24
//  #08 //002   ----------------------------------------
 BYTE   W24
 BYTE   W24
 BYTE   W24
 BYTE   W24
//  #08 //003   ----------------------------------------
 BYTE   W24
 BYTE   W24
 BYTE   W24
 BYTE   W24
//  #08 //004   ----------------------------------------
 BYTE   W24
 BYTE   W24
 BYTE   W24
 BYTE   W24
//  #08 //005   ----------------------------------------
 BYTE   W24
 BYTE   W24
 BYTE   W24
 BYTE   W24
//  #08 //006   ----------------------------------------
 BYTE   W24
 BYTE   W24
 BYTE   W24
 BYTE   W24
//  #08 //007   ----------------------------------------
 BYTE   W24
 BYTE   W24
 BYTE   W24
 BYTE   W24
//  #08 //008   ----------------------------------------
 BYTE   W24
 BYTE   W24
 BYTE   W24
 BYTE   W24
//  #08 //009   ----------------------------------------
 BYTE   W24
 BYTE   W24
 BYTE   W24
 BYTE   W24
//  #08 //010   ----------------------------------------
 BYTE   W24
 BYTE   W24
 BYTE   W24
 BYTE   W24
//  #08 //011   ----------------------------------------
 BYTE   W24
 BYTE   W24
 BYTE   W24
 BYTE   W24
//  #08 //012   ----------------------------------------
 BYTE   W24
 BYTE   W24
 BYTE   W24
 BYTE   W24
//  #08 //013   ----------------------------------------
 BYTE   W24
 BYTE   W24
 BYTE   W24
 BYTE   W24
//  #08 //014   ----------------------------------------
 BYTE   W24
 BYTE   W24
 BYTE   W24
 BYTE   W24
//  #08 //015   ----------------------------------------
 BYTE   W24
 BYTE   W24
 BYTE   W24
 BYTE   W24
//  #08 //016   ----------------------------------------
 BYTE   W24
 BYTE   W24
 BYTE   W24
 BYTE   W24
//  #08 //017   ----------------------------------------
 BYTE   N48  En3  v104
 BYTE   W24
 BYTE   W24
 BYTE   N12
 BYTE   W12
 BYTE   Dn3
 BYTE   W12
Label_0105E945:
 BYTE   N12  Cs3  v104
 BYTE   W12
 BYTE   Fs2
 BYTE   W12
 BYTE   PEND 
//  #08 //018   ----------------------------------------
Label_0105E94C:
 BYTE   N12  Cs3  v104
 BYTE   W12
 BYTE   N60  Dn3
 BYTE   W12
 BYTE   PEND 
 BYTE   W24
 BYTE   W24
 BYTE   W24
//  #08 //019   ----------------------------------------
 BYTE   N48
 BYTE   W24
 BYTE   W24
Label_0105E95A:
 BYTE   N12  Dn3  v104
 BYTE   W12
 BYTE   Cs3
 BYTE   W12
 BYTE   PEND 
Label_0105E961:
 BYTE   N12  Bn2  v104
 BYTE   W12
 BYTE   An2
 BYTE   W12
 BYTE   PEND 
//  #08 //020   ----------------------------------------
Label_0105E968:
 BYTE   N12  Gs2  v104
 BYTE   W12
 BYTE   N36  An2
 BYTE   W12
 BYTE   PEND 
 BYTE   W24
Label_0105E971:
 BYTE   N12  An2  v104
 BYTE   W12
 BYTE   Bn2
 BYTE   W12
 BYTE   PEND 
Label_0105E978:
 BYTE   N12  Cs3  v104
 BYTE   W12
 BYTE   An2
 BYTE   W12
 BYTE   PEND 
//  #08 //021   ----------------------------------------
 BYTE   N36  Fs3
 BYTE   W24
 BYTE   W24
Label_0105E983:
 BYTE   N12  Fs3  v104
 BYTE   W12
 BYTE   Gs3
 BYTE   W12
 BYTE   PEND 
 BYTE   En3
 BYTE   W12
 BYTE   Ds3
 BYTE   W12
//  #08 //022   ----------------------------------------
 BYTE   N24  En3
 BYTE   W24
 BYTE   Ds3
 BYTE   W24
 BYTE   Cs3
 BYTE   W24
//  #08 //023   ----------------------------------------
 BYTE   PATT
  POIN2 Label_0105E961
//  #08 //024   ----------------------------------------
 BYTE   W12
 BYTE   N12  Bn2  v104
 BYTE   W12
 BYTE   En3
 BYTE   W12
 BYTE   Bn2
 BYTE   W12
 BYTE   N36  En2
 BYTE   W24
 BYTE   W12
 BYTE   N12  Fs2
 BYTE   W12
//  #08 //025   ----------------------------------------
 BYTE   N72
 BYTE   W24
 BYTE   W24
 BYTE   W24
Label_0105E9AE:
 BYTE   N12  Cs2  v104
 BYTE   W12
 BYTE   Gs2
 BYTE   W12
 BYTE   PEND 
//  #08 //026   ----------------------------------------
 BYTE   TIE  Fs2
 BYTE   W24
 BYTE   W24
 BYTE   W24
 BYTE   W24
//  #08 //027   ----------------------------------------
 BYTE   W24
 BYTE   W24
 BYTE   W24
 BYTE   EOT
 BYTE   W24
//  #08 //028   ----------------------------------------
 BYTE   W24
 BYTE   W24
 BYTE   W24
 BYTE   W24
//  #08 //029   ----------------------------------------
 BYTE   W24
 BYTE   W24
 BYTE   W24
 BYTE   W24
//  #08 //030   ----------------------------------------
 BYTE   W24
 BYTE   W24
 BYTE   W24
 BYTE   W24
//  #08 //031   ----------------------------------------
 BYTE   W24
 BYTE   W24
 BYTE   W24
 BYTE   W24
//  #08 //032   ----------------------------------------
 BYTE   W24
 BYTE   W24
 BYTE   W24
 BYTE   W24
//  #08 //033   ----------------------------------------
 BYTE   W24
 BYTE   W24
 BYTE   W24
 BYTE   W24
//  #08 //034   ----------------------------------------
 BYTE   W12
 BYTE   N12  Fs3  v112
 BYTE   W12
 BYTE   En3
 BYTE   W12
 BYTE   Fs3
 BYTE   W12
 BYTE   N48  Gs3
 BYTE   W24
 BYTE   W24
//  #08 //035   ----------------------------------------
 BYTE   W12
 BYTE   N12  An3
 BYTE   W12
Label_0105E9E9:
 BYTE   N12  Gs3  v112
 BYTE   W12
 BYTE   An3
 BYTE   W12
 BYTE   PEND 
 BYTE   N36  Bn3
 BYTE   W24
 BYTE   W12
 BYTE   N12  En4
 BYTE   W12
//  #08 //036   ----------------------------------------
 BYTE   N24  Bn3
 BYTE   W24
 BYTE   An3
 BYTE   W24
 BYTE   Gs3
 BYTE   W24
 BYTE   Fs3
 BYTE   W24
//  #08 //037   ----------------------------------------
 BYTE   En3
 BYTE   W24
 BYTE   Ds3
 BYTE   W24
 BYTE   Cs3
 BYTE   W24
 BYTE   Ds3
 BYTE   W24
//  #08 //038   ----------------------------------------
 BYTE   TIE  En3
 BYTE   W24
 BYTE   W24
 BYTE   W24
 BYTE   W24
//  #08 //039   ----------------------------------------
Label_0105EA0E:
 BYTE   W03
 BYTE   W03
 BYTE   W03
 BYTE   W03
 BYTE   W03
 BYTE   W03
 BYTE   W03
 BYTE   W03
 BYTE   PEND 
Label_0105EA17:
 BYTE   W03
 BYTE   W03
 BYTE   W03
 BYTE   W03
 BYTE   W03
 BYTE   W03
 BYTE   W03
 BYTE   W03
 BYTE   PEND 
Label_0105EA20:
 BYTE   W03
 BYTE   W03
 BYTE   W03
 BYTE   W03
 BYTE   W03
 BYTE   W03
 BYTE   W03
 BYTE   W03
 BYTE   PEND 
Label_0105EA29:
 BYTE   W03
 BYTE   W03
 BYTE   W03
 BYTE   W03
 BYTE   W03
 BYTE   W03
 BYTE   W06
 BYTE   PEND 
//  #08 //040   ----------------------------------------
 BYTE   EOT
 BYTE   En3
 BYTE   W24
 BYTE   W24
 BYTE   W24
 BYTE   W24
//  #08 //041   ----------------------------------------
 BYTE   W24
 BYTE   W24
 BYTE   W24
 BYTE   GoTo
  POIN2 Label_0105E8FC
//  #08 //042   ----------------------------------------
 BYTE   W24
 BYTE   W24
 BYTE   W24
 BYTE   W24
//  #08 //043   ----------------------------------------
 BYTE   W24
 BYTE   W24
 BYTE   W24
 BYTE   W24
//  #08 //044   ----------------------------------------
 BYTE   W24
 BYTE   W24
 BYTE   W24
 BYTE   W24
//  #08 //045   ----------------------------------------
 BYTE   W24
 BYTE   W24
 BYTE   W24
 BYTE   W24
//  #08 //046   ----------------------------------------
 BYTE   W24
 BYTE   W24
 BYTE   W24
 BYTE   W24
//  #08 //047   ----------------------------------------
 BYTE   W24
 BYTE   W24
 BYTE   W24
 BYTE   W24
//  #08 //048   ----------------------------------------
 BYTE   W24
 BYTE   W24
 BYTE   W24
 BYTE   W24
//  #08 //049   ----------------------------------------
 BYTE   W24
 BYTE   W24
 BYTE   W24
 BYTE   W24
//  #08 //050   ----------------------------------------
 BYTE   W24
 BYTE   W24
 BYTE   W24
 BYTE   W24
//  #08 //051   ----------------------------------------
 BYTE   W24
 BYTE   W24
 BYTE   W24
 BYTE   W24
//  #08 //052   ----------------------------------------
 BYTE   W24
 BYTE   W24
 BYTE   W24
 BYTE   W24
//  #08 //053   ----------------------------------------
 BYTE   W24
 BYTE   W24
 BYTE   W24
 BYTE   W24
//  #08 //054   ----------------------------------------
 BYTE   W24
 BYTE   W24
 BYTE   W24
 BYTE   W24
//  #08 //055   ----------------------------------------
 BYTE   W24
 BYTE   W24
 BYTE   W24
 BYTE   W24
//  #08 //056   ----------------------------------------
 BYTE   W24
 BYTE   W24
 BYTE   W24
 BYTE   W24
//  #08 //057   ----------------------------------------
 BYTE   W24
 BYTE   W24
 BYTE   W24
 BYTE   W24
//  #08 //058   ----------------------------------------
 BYTE   W24
 BYTE   N48  En3  v104
 BYTE   W24
 BYTE   W24
 BYTE   N12
 BYTE   W12
 BYTE   Dn3
 BYTE   W12
//  #08 //059   ----------------------------------------
 BYTE   PATT
  POIN2 Label_0105E945
//  #08 //060   ----------------------------------------
 BYTE   PATT
  POIN2 Label_0105E94C
//  #08 //061   ----------------------------------------
 BYTE   W24
 BYTE   W24
 BYTE   W24
 BYTE   N48  Dn3  v104
 BYTE   W24
//  #08 //062   ----------------------------------------
 BYTE   W24
//  #08 //063   ----------------------------------------
 BYTE   PATT
  POIN2 Label_0105E95A
//  #08 //064   ----------------------------------------
 BYTE   PATT
  POIN2 Label_0105E961
//  #08 //065   ----------------------------------------
 BYTE   PATT
  POIN2 Label_0105E968
//  #08 //066   ----------------------------------------
 BYTE   W24
//  #08 //067   ----------------------------------------
 BYTE   PATT
  POIN2 Label_0105E971
//  #08 //068   ----------------------------------------
 BYTE   PATT
  POIN2 Label_0105E978
//  #08 //069   ----------------------------------------
 BYTE   N36  Fs3  v104
 BYTE   W24
 BYTE   W24
//  #08 //070   ----------------------------------------
 BYTE   PATT
  POIN2 Label_0105E983
//  #08 //071   ----------------------------------------
 BYTE   N12  En3  v104
 BYTE   W12
 BYTE   Ds3
 BYTE   W12
 BYTE   N24  En3
 BYTE   W24
 BYTE   Ds3
 BYTE   W24
 BYTE   Cs3
 BYTE   W24
//  #08 //072   ----------------------------------------
 BYTE   PATT
  POIN2 Label_0105E961
//  #08 //073   ----------------------------------------
 BYTE   W12
 BYTE   N12  Bn2  v104
 BYTE   W12
 BYTE   En3
 BYTE   W12
 BYTE   Bn2
 BYTE   W12
 BYTE   N36  En2
 BYTE   W24
 BYTE   W12
 BYTE   N12  Fs2
 BYTE   W12
//  #08 //074   ----------------------------------------
 BYTE   N72
 BYTE   W24
 BYTE   W24
 BYTE   W24
//  #08 //075   ----------------------------------------
 BYTE   PATT
  POIN2 Label_0105E9AE
//  #08 //076   ----------------------------------------
 BYTE   TIE  Fs2  v104
 BYTE   W24
 BYTE   W24
 BYTE   W24
 BYTE   W24
//  #08 //077   ----------------------------------------
 BYTE   W24
 BYTE   W24
 BYTE   W24
 BYTE   EOT
 BYTE   W24
//  #08 //078   ----------------------------------------
 BYTE   W24
 BYTE   W24
 BYTE   W24
 BYTE   W24
//  #08 //079   ----------------------------------------
 BYTE   W24
 BYTE   W24
 BYTE   W24
 BYTE   W24
//  #08 //080   ----------------------------------------
 BYTE   W24
 BYTE   W24
 BYTE   W24
 BYTE   W24
//  #08 //081   ----------------------------------------
 BYTE   W24
 BYTE   W24
 BYTE   W24
 BYTE   W24
//  #08 //082   ----------------------------------------
 BYTE   W24
 BYTE   W24
 BYTE   W24
 BYTE   W24
//  #08 //083   ----------------------------------------
 BYTE   W24
 BYTE   W24
 BYTE   W24
 BYTE   W24
//  #08 //084   ----------------------------------------
 BYTE   W12
 BYTE   N12  Fs3  v112
 BYTE   W12
 BYTE   En3
 BYTE   W12
 BYTE   Fs3
 BYTE   W12
 BYTE   N48  Gs3
 BYTE   W24
 BYTE   W24
//  #08 //085   ----------------------------------------
 BYTE   W12
 BYTE   N12  An3
 BYTE   W12
//  #08 //086   ----------------------------------------
 BYTE   PATT
  POIN2 Label_0105E9E9
//  #08 //087   ----------------------------------------
 BYTE   N36  Bn3  v112
 BYTE   W24
 BYTE   W12
 BYTE   N12  En4
 BYTE   W12
 BYTE   N24  Bn3
 BYTE   W24
 BYTE   An3
 BYTE   W24
//  #08 //088   ----------------------------------------
 BYTE   Gs3
 BYTE   W24
 BYTE   Fs3
 BYTE   W24
 BYTE   En3
 BYTE   W24
 BYTE   Ds3
 BYTE   W24
//  #08 //089   ----------------------------------------
 BYTE   Cs3
 BYTE   W24
 BYTE   Ds3
 BYTE   W24
 BYTE   TIE  En3
 BYTE   W24
 BYTE   W24
//  #08 //090   ----------------------------------------
 BYTE   W24
 BYTE   W24
//  #08 //091   ----------------------------------------
 BYTE   PATT
  POIN2 Label_0105EA0E
//  #08 //092   ----------------------------------------
 BYTE   PATT
  POIN2 Label_0105EA17
//  #08 //093   ----------------------------------------
 BYTE   PATT
  POIN2 Label_0105EA20
//  #08 //094   ----------------------------------------
 BYTE   PATT
  POIN2 Label_0105EA29
//  #08 //095   ----------------------------------------
 BYTE   EOT
 BYTE   En3
 BYTE   W24
 BYTE   W24
 BYTE   W24
 BYTE   W24
//  #08 //096   ----------------------------------------
 BYTE   W24
 BYTE   W24
 BYTE   W24
 BYTE   W24
//  #08 //097   ----------------------------------------
 BYTE   W24
 BYTE   W24
 BYTE   W24
 BYTE   W24
 BYTE   FINE

//**************** Track 9 (Midi-Chn.8) ****************//

PokemonMDExplorersDefendGlobePsyche_009:
//  #09 //000   ----------------------------------------
 BYTE   KEYSH   PokemonMDExplorersDefendGlobePsyche_key+0
 BYTE   VOICE   40
 BYTE   PAN   c_v+63
 BYTE   VOL   23*PokemonMDExplorersDefendGlobePsyche_mvl/mxv
 BYTE   BEND   c_v+0
 BYTE   W24
 BYTE   W24
 BYTE   W24
 BYTE   N36  En2  v127
 BYTE   W03
 BYTE   W03
 BYTE   W03
 BYTE   W03
 BYTE   W03
 BYTE   W03
 BYTE   W03
 BYTE   W03
//  #09 //001   ----------------------------------------
Label_0105EB80:
 BYTE   W03
 BYTE   W03
 BYTE   W03
 BYTE   W15
 BYTE   PEND 
 BYTE   W24
 BYTE   W24
 BYTE   W24
//  #09 //002   ----------------------------------------
 BYTE   W24
 BYTE   W24
 BYTE   W24
 BYTE   W24
//  #09 //003   ----------------------------------------
 BYTE   W24
 BYTE   W24
 BYTE   W24
 BYTE   W24
//  #09 //004   ----------------------------------------
 BYTE   W24
 BYTE   W24
 BYTE   W24
 BYTE   W24
//  #09 //005   ----------------------------------------
 BYTE   W24
 BYTE   W24
 BYTE   W24
 BYTE   W24
//  #09 //006   ----------------------------------------
 BYTE   W24
 BYTE   W24
 BYTE   W24
 BYTE   W24
//  #09 //007   ----------------------------------------
 BYTE   W24
 BYTE   W24
 BYTE   W24
 BYTE   W24
//  #09 //008   ----------------------------------------
 BYTE   W24
 BYTE   W24
 BYTE   W24
 BYTE   W24
//  #09 //009   ----------------------------------------
 BYTE   W24
 BYTE   W24
 BYTE   W24
 BYTE   W24
//  #09 //010   ----------------------------------------
 BYTE   W24
 BYTE   W24
 BYTE   W24
 BYTE   W24
//  #09 //011   ----------------------------------------
 BYTE   W24
 BYTE   W24
 BYTE   W24
 BYTE   W24
//  #09 //012   ----------------------------------------
 BYTE   W24
 BYTE   W24
 BYTE   W24
 BYTE   W24
//  #09 //013   ----------------------------------------
 BYTE   W24
 BYTE   W24
 BYTE   W24
 BYTE   W24
//  #09 //014   ----------------------------------------
 BYTE   W24
 BYTE   W24
 BYTE   W24
 BYTE   W24
//  #09 //015   ----------------------------------------
 BYTE   W24
 BYTE   W24
 BYTE   W24
 BYTE   W24
//  #09 //016   ----------------------------------------
 BYTE   W24
 BYTE   W24
 BYTE   W12
 BYTE   W12
 BYTE   W24
//  #09 //017   ----------------------------------------
 BYTE   W12
 BYTE   N48  En3  v104
 BYTE   W12
 BYTE   W24
 BYTE   W12
 BYTE   N12
 BYTE   W12
Label_0105EBCE:
 BYTE   N12  Dn3  v104
 BYTE   W12
 BYTE   Cs3
 BYTE   W12
 BYTE   PEND 
//  #09 //018   ----------------------------------------
Label_0105EBD5:
 BYTE   N12  Fs2  v104
 BYTE   W12
 BYTE   Cs3
 BYTE   W12
 BYTE   PEND 
 BYTE   N60  Dn3
 BYTE   W24
 BYTE   W24
 BYTE   W24
//  #09 //019   ----------------------------------------
 BYTE   W12
 BYTE   N48
 BYTE   W12
 BYTE   W24
 BYTE   W12
 BYTE   N12
 BYTE   W12
Label_0105EBE8:
 BYTE   N12  Cs3  v104
 BYTE   W12
 BYTE   Bn2
 BYTE   W12
 BYTE   PEND 
//  #09 //020   ----------------------------------------
Label_0105EBEF:
 BYTE   N12  An2  v104
 BYTE   W12
 BYTE   Gs2
 BYTE   W12
 BYTE   PEND 
 BYTE   N36  An2
 BYTE   W24
 BYTE   W12
 BYTE   N12
 BYTE   W12
Label_0105EBFC:
 BYTE   N12  Bn2  v104
 BYTE   W12
 BYTE   Cs3
 BYTE   W12
 BYTE   PEND 
//  #09 //021   ----------------------------------------
Label_0105EC03:
 BYTE   N12  An2  v104
 BYTE   W12
 BYTE   N36  Fs3
 BYTE   W12
 BYTE   PEND 
 BYTE   W24
 BYTE   W12
 BYTE   N12
 BYTE   W12
Label_0105EC0F:
 BYTE   N12  Gs3  v104
 BYTE   W12
 BYTE   En3
 BYTE   W12
 BYTE   PEND 
//  #09 //022   ----------------------------------------
Label_0105EC16:
 BYTE   N12  Ds3  v104
 BYTE   W12
 BYTE   N24  En3
 BYTE   W12
 BYTE   PEND 
 BYTE   W12
 BYTE   Ds3
 BYTE   W12
 BYTE   W12
 BYTE   Cs3
 BYTE   W12
 BYTE   W12
 BYTE   N12  Bn2
 BYTE   W12
//  #09 //023   ----------------------------------------
 BYTE   An2
 BYTE   W24
Label_0105EC2A:
 BYTE   N12  Bn2  v104
 BYTE   W12
 BYTE   En3
 BYTE   W12
 BYTE   PEND 
Label_0105EC31:
 BYTE   N12  Bn2  v104
 BYTE   W12
 BYTE   N36  En2
 BYTE   W12
 BYTE   PEND 
 BYTE   W24
//  #09 //024   ----------------------------------------
Label_0105EC3A:
 BYTE   N12  Fs2  v104
 BYTE   W12
 BYTE   N72
 BYTE   W12
 BYTE   PEND 
 BYTE   W24
 BYTE   W24
 BYTE   W12
 BYTE   N12  Cs2
 BYTE   W12
//  #09 //025   ----------------------------------------
Label_0105EC47:
 BYTE   N12  Gs2  v104
 BYTE   W12
 BYTE   TIE  Fs2
 BYTE   W12
 BYTE   PEND 
 BYTE   W24
 BYTE   W24
 BYTE   W24
//  #09 //026   ----------------------------------------
 BYTE   W24
 BYTE   W24
 BYTE   W24
 BYTE   W12
 BYTE   EOT
 BYTE   W12
//  #09 //027   ----------------------------------------
 BYTE   W24
 BYTE   W24
 BYTE   W24
 BYTE   W24
//  #09 //028   ----------------------------------------
 BYTE   W24
 BYTE   W24
 BYTE   W24
 BYTE   W24
//  #09 //029   ----------------------------------------
 BYTE   W24
 BYTE   W24
 BYTE   W24
 BYTE   W24
//  #09 //030   ----------------------------------------
 BYTE   W24
 BYTE   W24
 BYTE   W24
 BYTE   W24
//  #09 //031   ----------------------------------------
 BYTE   W24
 BYTE   W24
 BYTE   W24
 BYTE   W24
//  #09 //032   ----------------------------------------
 BYTE   W12
 BYTE   W12
 BYTE   W24
 BYTE   W24
 BYTE   W24
//  #09 //033   ----------------------------------------
 BYTE   W24
Label_0105EC72:
 BYTE   N12  Fs3  v112
 BYTE   W12
 BYTE   En3
 BYTE   W12
 BYTE   PEND 
Label_0105EC79:
 BYTE   N12  Fs3  v112
 BYTE   W12
 BYTE   N48  Gs3
 BYTE   W12
 BYTE   PEND 
 BYTE   W24
//  #09 //034   ----------------------------------------
 BYTE   W24
Label_0105EC83:
 BYTE   N12  An3  v112
 BYTE   W12
 BYTE   Gs3
 BYTE   W12
 BYTE   PEND 
Label_0105EC8A:
 BYTE   N12  An3  v112
 BYTE   W12
 BYTE   N36  Bn3
 BYTE   W12
 BYTE   PEND 
 BYTE   W24
//  #09 //035   ----------------------------------------
Label_0105EC93:
 BYTE   N12  En4  v112
 BYTE   W12
 BYTE   N24  Bn3
 BYTE   W12
 BYTE   PEND 
 BYTE   W12
 BYTE   An3
 BYTE   W12
 BYTE   W12
 BYTE   Gs3
 BYTE   W12
 BYTE   W12
 BYTE   Fs3
 BYTE   W12
//  #09 //036   ----------------------------------------
 BYTE   W12
 BYTE   En3
 BYTE   W12
 BYTE   W12
 BYTE   Ds3
 BYTE   W12
 BYTE   W12
 BYTE   Cs3
 BYTE   W12
 BYTE   W12
 BYTE   Ds3
 BYTE   W12
//  #09 //037   ----------------------------------------
 BYTE   W12
 BYTE   TIE  En3
 BYTE   W12
 BYTE   W24
 BYTE   W24
 BYTE   W24
//  #09 //038   ----------------------------------------
Label_0105ECB7:
 BYTE   W12
 BYTE   W03
 BYTE   W03
 BYTE   W03
 BYTE   W03
 BYTE   PEND 
Label_0105ECBD:
 BYTE   W03
 BYTE   W03
 BYTE   W03
 BYTE   W03
 BYTE   W03
 BYTE   W03
 BYTE   W03
 BYTE   W03
 BYTE   PEND 
Label_0105ECC6:
 BYTE   W03
 BYTE   W03
 BYTE   W03
 BYTE   W03
 BYTE   W03
 BYTE   W03
 BYTE   W03
 BYTE   W03
 BYTE   PEND 
Label_0105ECCF:
 BYTE   W03
 BYTE   W03
 BYTE   W03
 BYTE   W03
 BYTE   W03
 BYTE   W03
 BYTE   W03
 BYTE   W03
 BYTE   PEND 
//  #09 //039   ----------------------------------------
Label_0105ECD8:
 BYTE   W03
 BYTE   W03
 BYTE   W06
 BYTE   PEND 
 BYTE   EOT
 BYTE   En3
 BYTE   W12
 BYTE   W24
 BYTE   W24
 BYTE   W24
//  #09 //040   ----------------------------------------
 BYTE   W24
 BYTE   W24
 BYTE   W24
 BYTE   GoTo
  POIN2 Label_0105EB80
//  #09 //041   ----------------------------------------
 BYTE   W24
//  #09 //042   ----------------------------------------
 BYTE   PATT
  POIN2 Label_0105EB80
//  #09 //043   ----------------------------------------
 BYTE   W24
 BYTE   W24
 BYTE   W24
 BYTE   W24
//  #09 //044   ----------------------------------------
 BYTE   W24
 BYTE   W24
 BYTE   W24
 BYTE   W24
//  #09 //045   ----------------------------------------
 BYTE   W24
 BYTE   W24
 BYTE   W24
 BYTE   W24
//  #09 //046   ----------------------------------------
 BYTE   W24
 BYTE   W24
 BYTE   W24
 BYTE   W24
//  #09 //047   ----------------------------------------
 BYTE   W24
 BYTE   W24
 BYTE   W24
 BYTE   W24
//  #09 //048   ----------------------------------------
 BYTE   W24
 BYTE   W24
 BYTE   W24
 BYTE   W24
//  #09 //049   ----------------------------------------
 BYTE   W24
 BYTE   W24
 BYTE   W24
 BYTE   W24
//  #09 //050   ----------------------------------------
 BYTE   W24
 BYTE   W24
 BYTE   W24
 BYTE   W24
//  #09 //051   ----------------------------------------
 BYTE   W24
 BYTE   W24
 BYTE   W24
 BYTE   W24
//  #09 //052   ----------------------------------------
 BYTE   W24
 BYTE   W24
 BYTE   W24
 BYTE   W24
//  #09 //053   ----------------------------------------
 BYTE   W24
 BYTE   W24
 BYTE   W24
 BYTE   W24
//  #09 //054   ----------------------------------------
 BYTE   W24
 BYTE   W24
 BYTE   W24
 BYTE   W24
//  #09 //055   ----------------------------------------
 BYTE   W24
 BYTE   W24
 BYTE   W24
 BYTE   W24
//  #09 //056   ----------------------------------------
 BYTE   W24
 BYTE   W24
 BYTE   W24
 BYTE   W24
//  #09 //057   ----------------------------------------
 BYTE   W24
 BYTE   W24
 BYTE   W24
 BYTE   W24
//  #09 //058   ----------------------------------------
 BYTE   W24
 BYTE   W12
 BYTE   W12
 BYTE   W24
 BYTE   W12
 BYTE   N48  En3  v104
 BYTE   W12
//  #09 //059   ----------------------------------------
 BYTE   W24
 BYTE   W12
 BYTE   N12
 BYTE   W12
//  #09 //060   ----------------------------------------
 BYTE   PATT
  POIN2 Label_0105EBCE
//  #09 //061   ----------------------------------------
 BYTE   PATT
  POIN2 Label_0105EBD5
//  #09 //062   ----------------------------------------
 BYTE   N60  Dn3  v104
 BYTE   W24
 BYTE   W24
 BYTE   W24
 BYTE   W12
 BYTE   N48
 BYTE   W12
//  #09 //063   ----------------------------------------
 BYTE   W24
 BYTE   W12
 BYTE   N12
 BYTE   W12
//  #09 //064   ----------------------------------------
 BYTE   PATT
  POIN2 Label_0105EBE8
//  #09 //065   ----------------------------------------
 BYTE   PATT
  POIN2 Label_0105EBEF
//  #09 //066   ----------------------------------------
 BYTE   N36  An2  v104
 BYTE   W24
 BYTE   W12
 BYTE   N12
 BYTE   W12
//  #09 //067   ----------------------------------------
 BYTE   PATT
  POIN2 Label_0105EBFC
//  #09 //068   ----------------------------------------
 BYTE   PATT
  POIN2 Label_0105EC03
//  #09 //069   ----------------------------------------
 BYTE   W24
 BYTE   W12
 BYTE   N12  Fs3  v104
 BYTE   W12
//  #09 //070   ----------------------------------------
 BYTE   PATT
  POIN2 Label_0105EC0F
//  #09 //071   ----------------------------------------
 BYTE   PATT
  POIN2 Label_0105EC16
//  #09 //072   ----------------------------------------
 BYTE   W12
 BYTE   N24  Ds3  v104
 BYTE   W12
 BYTE   W12
 BYTE   Cs3
 BYTE   W12
 BYTE   W12
 BYTE   N12  Bn2
 BYTE   W12
 BYTE   An2
 BYTE   W24
//  #09 //073   ----------------------------------------
 BYTE   PATT
  POIN2 Label_0105EC2A
//  #09 //074   ----------------------------------------
 BYTE   PATT
  POIN2 Label_0105EC31
//  #09 //075   ----------------------------------------
 BYTE   W24
//  #09 //076   ----------------------------------------
 BYTE   PATT
  POIN2 Label_0105EC3A
//  #09 //077   ----------------------------------------
 BYTE   W24
 BYTE   W24
 BYTE   W12
 BYTE   N12  Cs2  v104
 BYTE   W12
//  #09 //078   ----------------------------------------
 BYTE   PATT
  POIN2 Label_0105EC47
//  #09 //079   ----------------------------------------
 BYTE   W24
 BYTE   W24
 BYTE   W24
 BYTE   W24
//  #09 //080   ----------------------------------------
 BYTE   W24
 BYTE   W24
 BYTE   W12
 BYTE   EOT
 BYTE   Fs2
 BYTE   W12
 BYTE   W24
//  #09 //081   ----------------------------------------
 BYTE   W24
 BYTE   W24
 BYTE   W24
 BYTE   W24
//  #09 //082   ----------------------------------------
 BYTE   W24
 BYTE   W24
 BYTE   W24
 BYTE   W24
//  #09 //083   ----------------------------------------
 BYTE   W24
 BYTE   W24
 BYTE   W24
 BYTE   W24
//  #09 //084   ----------------------------------------
 BYTE   W24
 BYTE   W24
 BYTE   W24
 BYTE   W24
//  #09 //085   ----------------------------------------
 BYTE   W24
 BYTE   W24
 BYTE   W24
 BYTE   W12
 BYTE   W12
//  #09 //086   ----------------------------------------
 BYTE   W24
 BYTE   W24
 BYTE   W24
 BYTE   W24
//  #09 //087   ----------------------------------------
 BYTE   PATT
  POIN2 Label_0105EC72
//  #09 //088   ----------------------------------------
 BYTE   PATT
  POIN2 Label_0105EC79
//  #09 //089   ----------------------------------------
 BYTE   W24
 BYTE   W24
//  #09 //090   ----------------------------------------
 BYTE   PATT
  POIN2 Label_0105EC83
//  #09 //091   ----------------------------------------
 BYTE   PATT
  POIN2 Label_0105EC8A
//  #09 //092   ----------------------------------------
 BYTE   W24
//  #09 //093   ----------------------------------------
 BYTE   PATT
  POIN2 Label_0105EC93
//  #09 //094   ----------------------------------------
 BYTE   W12
 BYTE   N24  An3  v112
 BYTE   W12
 BYTE   W12
 BYTE   Gs3
 BYTE   W12
 BYTE   W12
 BYTE   Fs3
 BYTE   W12
 BYTE   W12
 BYTE   En3
 BYTE   W12
//  #09 //095   ----------------------------------------
 BYTE   W12
 BYTE   Ds3
 BYTE   W12
 BYTE   W12
 BYTE   Cs3
 BYTE   W12
 BYTE   W12
 BYTE   Ds3
 BYTE   W12
 BYTE   W12
 BYTE   TIE  En3
 BYTE   W12
//  #09 //096   ----------------------------------------
 BYTE   W24
 BYTE   W24
 BYTE   W24
//  #09 //097   ----------------------------------------
 BYTE   PATT
  POIN2 Label_0105ECB7
//  #09 //098   ----------------------------------------
 BYTE   PATT
  POIN2 Label_0105ECBD
//  #09 //099   ----------------------------------------
 BYTE   PATT
  POIN2 Label_0105ECC6
//  #09 //100   ----------------------------------------
 BYTE   PATT
  POIN2 Label_0105ECCF
//  #09 //101   ----------------------------------------
 BYTE   PATT
  POIN2 Label_0105ECD8
//  #09 //102   ----------------------------------------
 BYTE   EOT
 BYTE   En3
 BYTE   W12
 BYTE   W24
 BYTE   W24
 BYTE   W24
 BYTE   W24
//  #09 //103   ----------------------------------------
 BYTE   W24
 BYTE   W24
 BYTE   W24
 BYTE   W24
//  #09 //104   ----------------------------------------
 BYTE   W24
 BYTE   W24
 BYTE   W24
 BYTE   FINE

//**************** Track 10 (Midi-Chn.9) ****************//

PokemonMDExplorersDefendGlobePsyche_010:
//  #10 //000   ----------------------------------------
 BYTE   KEYSH   PokemonMDExplorersDefendGlobePsyche_key+0
 BYTE   VOICE   40
 BYTE   PAN   c_v-64
 BYTE   VOL   21*PokemonMDExplorersDefendGlobePsyche_mvl/mxv
 BYTE   BEND   c_v+0
 BYTE   W24
 BYTE   W24
 BYTE   W24
 BYTE   W12
 BYTE   N36  En2  v127
 BYTE   W03
 BYTE   W03
 BYTE   W03
 BYTE   W03
//  #10 //001   ----------------------------------------
Label_0105EE41:
 BYTE   W03
 BYTE   W03
 BYTE   W03
 BYTE   W03
 BYTE   W03
 BYTE   W03
 BYTE   W03
 BYTE   W03
 BYTE   PEND 
 BYTE   W24
 BYTE   W24
 BYTE   W24
//  #10 //002   ----------------------------------------
 BYTE   W24
 BYTE   W24
 BYTE   W24
 BYTE   W24
//  #10 //003   ----------------------------------------
 BYTE   W24
 BYTE   W24
 BYTE   W24
 BYTE   W24
//  #10 //004   ----------------------------------------
 BYTE   W24
 BYTE   W24
 BYTE   W24
 BYTE   W24
//  #10 //005   ----------------------------------------
 BYTE   W24
 BYTE   W24
 BYTE   W24
 BYTE   W24
//  #10 //006   ----------------------------------------
 BYTE   W24
 BYTE   W24
 BYTE   W24
 BYTE   W24
//  #10 //007   ----------------------------------------
 BYTE   W24
 BYTE   W24
 BYTE   W24
 BYTE   W24
//  #10 //008   ----------------------------------------
 BYTE   W24
 BYTE   W24
 BYTE   W24
 BYTE   W24
//  #10 //009   ----------------------------------------
 BYTE   W24
 BYTE   W24
 BYTE   W24
 BYTE   W24
//  #10 //010   ----------------------------------------
 BYTE   W24
 BYTE   W24
 BYTE   W24
 BYTE   W24
//  #10 //011   ----------------------------------------
 BYTE   W24
 BYTE   W24
 BYTE   W24
 BYTE   W24
//  #10 //012   ----------------------------------------
 BYTE   W24
 BYTE   W24
 BYTE   W24
 BYTE   W24
//  #10 //013   ----------------------------------------
 BYTE   W24
 BYTE   W24
 BYTE   W24
 BYTE   W24
//  #10 //014   ----------------------------------------
 BYTE   W24
 BYTE   W24
 BYTE   W24
 BYTE   W24
//  #10 //015   ----------------------------------------
 BYTE   W24
 BYTE   W24
 BYTE   W24
 BYTE   W24
//  #10 //016   ----------------------------------------
 BYTE   W24
 BYTE   W24
 BYTE   W24
 BYTE   W24
//  #10 //017   ----------------------------------------
 BYTE   W24
 BYTE   N48  En3  v104
 BYTE   W24
 BYTE   W24
 BYTE   N12
 BYTE   W12
 BYTE   Dn3
 BYTE   W12
//  #10 //018   ----------------------------------------
Label_0105EE93:
 BYTE   N12  Cs3  v104
 BYTE   W12
 BYTE   Fs2
 BYTE   W12
 BYTE   PEND 
Label_0105EE9A:
 BYTE   N12  Cs3  v104
 BYTE   W12
 BYTE   N60  Dn3
 BYTE   W12
 BYTE   PEND 
 BYTE   W24
 BYTE   W24
//  #10 //019   ----------------------------------------
 BYTE   W24
 BYTE   N48
 BYTE   W24
 BYTE   W24
Label_0105EEA8:
 BYTE   N12  Dn3  v104
 BYTE   W12
 BYTE   Cs3
 BYTE   W12
 BYTE   PEND 
//  #10 //020   ----------------------------------------
Label_0105EEAF:
 BYTE   N12  Bn2  v104
 BYTE   W12
 BYTE   An2
 BYTE   W12
 BYTE   PEND 
Label_0105EEB6:
 BYTE   N12  Gs2  v104
 BYTE   W12
 BYTE   N36  An2
 BYTE   W12
 BYTE   PEND 
 BYTE   W24
Label_0105EEBF:
 BYTE   N12  An2  v104
 BYTE   W12
 BYTE   Bn2
 BYTE   W12
 BYTE   PEND 
//  #10 //021   ----------------------------------------
Label_0105EEC6:
 BYTE   N12  Cs3  v104
 BYTE   W12
 BYTE   An2
 BYTE   W12
 BYTE   PEND 
 BYTE   N36  Fs3
 BYTE   W24
 BYTE   W24
Label_0105EED1:
 BYTE   N12  Fs3  v104
 BYTE   W12
 BYTE   Gs3
 BYTE   W12
 BYTE   PEND 
//  #10 //022   ----------------------------------------
 BYTE   En3
 BYTE   W12
 BYTE   Ds3
 BYTE   W12
 BYTE   N24  En3
 BYTE   W24
 BYTE   Ds3
 BYTE   W24
 BYTE   Cs3
 BYTE   W24
//  #10 //023   ----------------------------------------
 BYTE   PATT
  POIN2 Label_0105EEAF
//  #10 //024   ----------------------------------------
 BYTE   W12
 BYTE   N12  Bn2  v104
 BYTE   W12
 BYTE   En3
 BYTE   W12
 BYTE   Bn2
 BYTE   W12
 BYTE   N36  En2
 BYTE   W24
 BYTE   W12
 BYTE   N12  Fs2
 BYTE   W12
//  #10 //025   ----------------------------------------
 BYTE   N72
 BYTE   W24
 BYTE   W24
 BYTE   W24
Label_0105EEFC:
 BYTE   N12  Cs2  v104
 BYTE   W12
 BYTE   Gs2
 BYTE   W12
 BYTE   PEND 
//  #10 //026   ----------------------------------------
 BYTE   TIE  Fs2
 BYTE   W24
 BYTE   W24
 BYTE   W24
 BYTE   W24
//  #10 //027   ----------------------------------------
 BYTE   W24
 BYTE   W24
 BYTE   W24
 BYTE   EOT
 BYTE   W24
//  #10 //028   ----------------------------------------
 BYTE   W24
 BYTE   W24
 BYTE   W24
 BYTE   W24
//  #10 //029   ----------------------------------------
 BYTE   W24
 BYTE   W24
 BYTE   W24
 BYTE   W24
//  #10 //030   ----------------------------------------
 BYTE   W24
 BYTE   W24
 BYTE   W24
 BYTE   W24
//  #10 //031   ----------------------------------------
 BYTE   W24
 BYTE   W24
 BYTE   W24
 BYTE   W24
//  #10 //032   ----------------------------------------
 BYTE   W24
 BYTE   W24
 BYTE   W24
 BYTE   W24
//  #10 //033   ----------------------------------------
 BYTE   W24
 BYTE   W24
 BYTE   W24
 BYTE   W24
//  #10 //034   ----------------------------------------
 BYTE   W12
 BYTE   N12  Fs3  v112
 BYTE   W12
 BYTE   En3
 BYTE   W12
 BYTE   Fs3
 BYTE   W12
 BYTE   N48  Gs3
 BYTE   W24
 BYTE   W24
//  #10 //035   ----------------------------------------
 BYTE   W12
 BYTE   N12  An3
 BYTE   W12
Label_0105EF37:
 BYTE   N12  Gs3  v112
 BYTE   W12
 BYTE   An3
 BYTE   W12
 BYTE   PEND 
 BYTE   N36  Bn3
 BYTE   W24
 BYTE   W12
 BYTE   N12  En4
 BYTE   W12
//  #10 //036   ----------------------------------------
 BYTE   N24  Bn3
 BYTE   W24
 BYTE   An3
 BYTE   W24
 BYTE   Gs3
 BYTE   W24
 BYTE   Fs3
 BYTE   W24
//  #10 //037   ----------------------------------------
 BYTE   En3
 BYTE   W24
 BYTE   Ds3
 BYTE   W24
 BYTE   Cs3
 BYTE   W24
 BYTE   Ds3
 BYTE   W24
//  #10 //038   ----------------------------------------
 BYTE   TIE  En3
 BYTE   W24
 BYTE   W24
 BYTE   W24
 BYTE   W24
//  #10 //039   ----------------------------------------
Label_0105EF5C:
 BYTE   W03
 BYTE   W03
 BYTE   W03
 BYTE   W03
 BYTE   W03
 BYTE   W03
 BYTE   W03
 BYTE   W03
 BYTE   PEND 
Label_0105EF65:
 BYTE   W03
 BYTE   W03
 BYTE   W03
 BYTE   W03
 BYTE   W03
 BYTE   W03
 BYTE   W03
 BYTE   W03
 BYTE   PEND 
Label_0105EF6E:
 BYTE   W03
 BYTE   W03
 BYTE   W03
 BYTE   W03
 BYTE   W03
 BYTE   W03
 BYTE   W03
 BYTE   W03
 BYTE   PEND 
Label_0105EF77:
 BYTE   W03
 BYTE   W03
 BYTE   W03
 BYTE   W03
 BYTE   W03
 BYTE   W03
 BYTE   W06
 BYTE   PEND 
//  #10 //040   ----------------------------------------
 BYTE   EOT
 BYTE   En3
 BYTE   W24
 BYTE   W24
 BYTE   W24
 BYTE   W24
//  #10 //041   ----------------------------------------
 BYTE   W24
 BYTE   W24
 BYTE   GoTo
  POIN2 Label_0105EE41
//  #10 //042   ----------------------------------------
 BYTE   W24
//  #10 //043   ----------------------------------------
 BYTE   PATT
  POIN2 Label_0105EE41
//  #10 //044   ----------------------------------------
 BYTE   W24
 BYTE   W24
 BYTE   W24
 BYTE   W24
//  #10 //045   ----------------------------------------
 BYTE   W24
 BYTE   W24
 BYTE   W24
 BYTE   W24
//  #10 //046   ----------------------------------------
 BYTE   W24
 BYTE   W24
 BYTE   W24
 BYTE   W24
//  #10 //047   ----------------------------------------
 BYTE   W24
 BYTE   W24
 BYTE   W24
 BYTE   W24
//  #10 //048   ----------------------------------------
 BYTE   W24
 BYTE   W24
 BYTE   W24
 BYTE   W24
//  #10 //049   ----------------------------------------
 BYTE   W24
 BYTE   W24
 BYTE   W24
 BYTE   W24
//  #10 //050   ----------------------------------------
 BYTE   W24
 BYTE   W24
 BYTE   W24
 BYTE   W24
//  #10 //051   ----------------------------------------
 BYTE   W24
 BYTE   W24
 BYTE   W24
 BYTE   W24
//  #10 //052   ----------------------------------------
 BYTE   W24
 BYTE   W24
 BYTE   W24
 BYTE   W24
//  #10 //053   ----------------------------------------
 BYTE   W24
 BYTE   W24
 BYTE   W24
 BYTE   W24
//  #10 //054   ----------------------------------------
 BYTE   W24
 BYTE   W24
 BYTE   W24
 BYTE   W24
//  #10 //055   ----------------------------------------
 BYTE   W24
 BYTE   W24
 BYTE   W24
 BYTE   W24
//  #10 //056   ----------------------------------------
 BYTE   W24
 BYTE   W24
 BYTE   W24
 BYTE   W24
//  #10 //057   ----------------------------------------
 BYTE   W24
 BYTE   W24
 BYTE   W24
 BYTE   W24
//  #10 //058   ----------------------------------------
 BYTE   W24
 BYTE   W24
 BYTE   W24
 BYTE   W24
//  #10 //059   ----------------------------------------
 BYTE   W24
 BYTE   W24
 BYTE   W24
 BYTE   W24
//  #10 //060   ----------------------------------------
 BYTE   N48  En3  v104
 BYTE   W24
 BYTE   W24
 BYTE   N12
 BYTE   W12
 BYTE   Dn3
 BYTE   W12
//  #10 //061   ----------------------------------------
 BYTE   PATT
  POIN2 Label_0105EE93
//  #10 //062   ----------------------------------------
 BYTE   PATT
  POIN2 Label_0105EE9A
//  #10 //063   ----------------------------------------
 BYTE   W24
 BYTE   W24
 BYTE   W24
 BYTE   N48  Dn3  v104
 BYTE   W24
//  #10 //064   ----------------------------------------
 BYTE   W24
//  #10 //065   ----------------------------------------
 BYTE   PATT
  POIN2 Label_0105EEA8
//  #10 //066   ----------------------------------------
 BYTE   PATT
  POIN2 Label_0105EEAF
//  #10 //067   ----------------------------------------
 BYTE   PATT
  POIN2 Label_0105EEB6
//  #10 //068   ----------------------------------------
 BYTE   W24
//  #10 //069   ----------------------------------------
 BYTE   PATT
  POIN2 Label_0105EEBF
//  #10 //070   ----------------------------------------
 BYTE   PATT
  POIN2 Label_0105EEC6
//  #10 //071   ----------------------------------------
 BYTE   N36  Fs3  v104
 BYTE   W24
 BYTE   W24
//  #10 //072   ----------------------------------------
 BYTE   PATT
  POIN2 Label_0105EED1
//  #10 //073   ----------------------------------------
 BYTE   N12  En3  v104
 BYTE   W12
 BYTE   Ds3
 BYTE   W12
 BYTE   N24  En3
 BYTE   W24
 BYTE   Ds3
 BYTE   W24
 BYTE   Cs3
 BYTE   W24
//  #10 //074   ----------------------------------------
 BYTE   PATT
  POIN2 Label_0105EEAF
//  #10 //075   ----------------------------------------
 BYTE   W12
 BYTE   N12  Bn2  v104
 BYTE   W12
 BYTE   En3
 BYTE   W12
 BYTE   Bn2
 BYTE   W12
 BYTE   N36  En2
 BYTE   W24
 BYTE   W12
 BYTE   N12  Fs2
 BYTE   W12
//  #10 //076   ----------------------------------------
 BYTE   N72
 BYTE   W24
 BYTE   W24
 BYTE   W24
//  #10 //077   ----------------------------------------
 BYTE   PATT
  POIN2 Label_0105EEFC
//  #10 //078   ----------------------------------------
 BYTE   TIE  Fs2  v104
 BYTE   W24
 BYTE   W24
 BYTE   W24
 BYTE   W24
//  #10 //079   ----------------------------------------
 BYTE   W24
 BYTE   W24
 BYTE   W24
 BYTE   EOT
 BYTE   W24
//  #10 //080   ----------------------------------------
 BYTE   W24
 BYTE   W24
 BYTE   W24
 BYTE   W24
//  #10 //081   ----------------------------------------
 BYTE   W24
 BYTE   W24
 BYTE   W24
 BYTE   W24
//  #10 //082   ----------------------------------------
 BYTE   W24
 BYTE   W24
 BYTE   W24
 BYTE   W24
//  #10 //083   ----------------------------------------
 BYTE   W24
 BYTE   W24
 BYTE   W24
 BYTE   W24
//  #10 //084   ----------------------------------------
 BYTE   W24
 BYTE   W24
 BYTE   W24
 BYTE   W24
//  #10 //085   ----------------------------------------
 BYTE   W24
 BYTE   W24
 BYTE   W24
 BYTE   W24
//  #10 //086   ----------------------------------------
 BYTE   W12
 BYTE   N12  Fs3  v112
 BYTE   W12
 BYTE   En3
 BYTE   W12
 BYTE   Fs3
 BYTE   W12
 BYTE   N48  Gs3
 BYTE   W24
 BYTE   W24
//  #10 //087   ----------------------------------------
 BYTE   W12
 BYTE   N12  An3
 BYTE   W12
//  #10 //088   ----------------------------------------
 BYTE   PATT
  POIN2 Label_0105EF37
//  #10 //089   ----------------------------------------
 BYTE   N36  Bn3  v112
 BYTE   W24
 BYTE   W12
 BYTE   N12  En4
 BYTE   W12
 BYTE   N24  Bn3
 BYTE   W24
 BYTE   An3
 BYTE   W24
//  #10 //090   ----------------------------------------
 BYTE   Gs3
 BYTE   W24
 BYTE   Fs3
 BYTE   W24
 BYTE   En3
 BYTE   W24
 BYTE   Ds3
 BYTE   W24
//  #10 //091   ----------------------------------------
 BYTE   Cs3
 BYTE   W24
 BYTE   Ds3
 BYTE   W24
 BYTE   TIE  En3
 BYTE   W24
 BYTE   W24
//  #10 //092   ----------------------------------------
 BYTE   W24
 BYTE   W24
//  #10 //093   ----------------------------------------
 BYTE   PATT
  POIN2 Label_0105EF5C
//  #10 //094   ----------------------------------------
 BYTE   PATT
  POIN2 Label_0105EF65
//  #10 //095   ----------------------------------------
 BYTE   PATT
  POIN2 Label_0105EF6E
//  #10 //096   ----------------------------------------
 BYTE   PATT
  POIN2 Label_0105EF77
//  #10 //097   ----------------------------------------
 BYTE   EOT
 BYTE   En3
 BYTE   W24
 BYTE   W24
 BYTE   W24
 BYTE   W24
//  #10 //098   ----------------------------------------
 BYTE   W24
 BYTE   W24
 BYTE   W24
 BYTE   W24
//  #10 //099   ----------------------------------------
 BYTE   W24
 BYTE   W24
 BYTE   W24
 BYTE   FINE

//**************** Track 11 (Midi-Chn.10) ****************//

PokemonMDExplorersDefendGlobePsyche_011:
//  #11 //000   ----------------------------------------
 BYTE   KEYSH   PokemonMDExplorersDefendGlobePsyche_key+0
 BYTE   VOICE   51
 BYTE   PAN   c_v+16
 BYTE   VOL   47*PokemonMDExplorersDefendGlobePsyche_mvl/mxv
 BYTE   BEND   c_v+0
 BYTE   W24
 BYTE   W24
 BYTE   W12
 BYTE   N36  En1  v127
 BYTE   W03
 BYTE   W03
 BYTE   W03
 BYTE   W03
 BYTE   W03
 BYTE   W03
 BYTE   W03
 BYTE   W03
 BYTE   W03
 BYTE   W03
 BYTE   W03
 BYTE   W03
//  #11 //001   ----------------------------------------
Label_0105F0D4:
 BYTE   W24
 BYTE   W24
 BYTE   W24
 BYTE   W24
//  #11 //002   ----------------------------------------
 BYTE   W24
 BYTE   W24
 BYTE   W24
 BYTE   W24
//  #11 //003   ----------------------------------------
 BYTE   W24
 BYTE   W24
 BYTE   W24
 BYTE   W24
//  #11 //004   ----------------------------------------
 BYTE   W24
 BYTE   W24
 BYTE   W24
 BYTE   W24
//  #11 //005   ----------------------------------------
 BYTE   W24
 BYTE   W24
 BYTE   W24
 BYTE   W24
//  #11 //006   ----------------------------------------
 BYTE   W24
 BYTE   W24
 BYTE   W24
 BYTE   W24
//  #11 //007   ----------------------------------------
 BYTE   W24
 BYTE   W24
 BYTE   W24
Label_0105F0EF:
 BYTE   W12
 BYTE   W03
 BYTE   W09
 BYTE   PEND 
//  #11 //008   ----------------------------------------
Label_0105F0F3:
 BYTE   N96  En1  v096
 BYTE   W06
 BYTE   W03
 BYTE   W03
 BYTE   W03
 BYTE   W03
 BYTE   W03
 BYTE   W03
 BYTE   PEND 
Label_0105F0FE:
 BYTE   W03
 BYTE   W03
 BYTE   W03
 BYTE   W03
 BYTE   W03
 BYTE   W03
 BYTE   W03
 BYTE   W03
 BYTE   PEND 
Label_0105F107:
 BYTE   W03
 BYTE   W03
 BYTE   W03
 BYTE   W03
 BYTE   W03
 BYTE   W03
 BYTE   W03
 BYTE   W03
 BYTE   PEND 
Label_0105F110:
 BYTE   W03
 BYTE   W03
 BYTE   W03
 BYTE   W03
 BYTE   W03
 BYTE   W03
 BYTE   W03
 BYTE   W03
 BYTE   PEND 
//  #11 //009   ----------------------------------------
Label_0105F119:
 BYTE   N60  An1  v096
 BYTE   W15
 BYTE   W09
 BYTE   PEND 
 BYTE   W24
 BYTE   W12
 BYTE   N12  En2
 BYTE   W12
Label_0105F124:
 BYTE   N12  An2  v096
 BYTE   W12
 BYTE   Bn2
 BYTE   W12
 BYTE   PEND 
//  #11 //010   ----------------------------------------
 BYTE   N60  Gs2
 BYTE   W24
 BYTE   W24
 BYTE   W12
 BYTE   N12  En2
 BYTE   W12
Label_0105F133:
 BYTE   N12  Dn2  v096
 BYTE   W12
 BYTE   En2
 BYTE   W12
 BYTE   PEND 
//  #11 //011   ----------------------------------------
 BYTE   N36  Cs2
 BYTE   W24
 BYTE   W12
 BYTE   N12  Fs2
 BYTE   W12
 BYTE   N36  Cs3
 BYTE   W24
 BYTE   W12
 BYTE   N12  An2
 BYTE   W12
//  #11 //012   ----------------------------------------
 BYTE   N60  Gs2
 BYTE   W24
 BYTE   W24
 BYTE   W12
 BYTE   N12  En2
 BYTE   W12
Label_0105F150:
 BYTE   N12  Cs2  v096
 BYTE   W12
 BYTE   En2
 BYTE   W12
 BYTE   PEND 
//  #11 //013   ----------------------------------------
 BYTE   N60  Fs2
 BYTE   W24
 BYTE   W24
 BYTE   W12
 BYTE   N12  Gs2
 BYTE   W12
Label_0105F15F:
 BYTE   N12  An2  v096
 BYTE   W12
 BYTE   Cs3
 BYTE   W12
 BYTE   PEND 
//  #11 //014   ----------------------------------------
 BYTE   N24  Dn3
 BYTE   W24
 BYTE   Cs3
 BYTE   W24
 BYTE   Bn2
 BYTE   W24
 BYTE   En3
 BYTE   W24
//  #11 //015   ----------------------------------------
 BYTE   N72  An2
 BYTE   W24
 BYTE   W24
 BYTE   W24
Label_0105F174:
 BYTE   N12  En2  v096
 BYTE   W12
 BYTE   Bn2
 BYTE   W12
 BYTE   PEND 
//  #11 //016   ----------------------------------------
 BYTE   N36  An2
 BYTE   W24
 BYTE   W12
 BYTE   N12  En2
 BYTE   W12
 BYTE   N48  An1
 BYTE   W24
Label_0105F185:
 BYTE   W03
 BYTE   W03
 BYTE   W03
 BYTE   W03
 BYTE   W03
 BYTE   W03
 BYTE   W03
 BYTE   W03
 BYTE   PEND 
//  #11 //017   ----------------------------------------
Label_0105F18E:
 BYTE   W03
 BYTE   W03
 BYTE   W06
 BYTE   N12  Gn2  v096
 BYTE   W12
 BYTE   PEND 
Label_0105F196:
 BYTE   N12  Fs2  v096
 BYTE   W12
 BYTE   Bn2
 BYTE   W12
 BYTE   PEND 
Label_0105F19D:
 BYTE   N12  As2  v096
 BYTE   W12
 BYTE   Gn2
 BYTE   W12
 BYTE   PEND 
Label_0105F1A4:
 BYTE   N12  Fs2  v096
 BYTE   W12
 BYTE   As1
 BYTE   W12
 BYTE   PEND 
//  #11 //018   ----------------------------------------
 BYTE   W12
 BYTE   Bn1
 BYTE   W12
Label_0105F1AE:
 BYTE   N12  Cs2  v096
 BYTE   W12
 BYTE   Dn2
 BYTE   W12
 BYTE   PEND 
 BYTE   N24  Fs2
 BYTE   W24
 BYTE   Cs3
 BYTE   W24
//  #11 //019   ----------------------------------------
 BYTE   N36  Bn2
 BYTE   W24
 BYTE   W12
 BYTE   N12  An2
 BYTE   W12
Label_0105F1C1:
 BYTE   N12  Gs2  v096
 BYTE   W12
 BYTE   Fs2
 BYTE   W12
 BYTE   PEND 
Label_0105F1C8:
 BYTE   N12  Fn2  v096
 BYTE   W12
 BYTE   Cs2
 BYTE   W12
 BYTE   PEND 
//  #11 //020   ----------------------------------------
 BYTE   W12
 BYTE   Fs2
 BYTE   W12
Label_0105F1D2:
 BYTE   N12  Gs2  v096
 BYTE   W12
 BYTE   An2
 BYTE   W12
 BYTE   PEND 
Label_0105F1D9:
 BYTE   N12  Gs2  v096
 BYTE   W12
 BYTE   En2
 BYTE   W12
 BYTE   PEND 
Label_0105F1E0:
 BYTE   N12  Cs2  v096
 BYTE   W12
 BYTE   An1
 BYTE   W12
 BYTE   PEND 
//  #11 //021   ----------------------------------------
 BYTE   W12
 BYTE   Ds2
 BYTE   W12
Label_0105F1EA:
 BYTE   N12  Fs2  v096
 BYTE   W12
 BYTE   Cs3
 BYTE   W12
 BYTE   PEND 
Label_0105F1F1:
 BYTE   N12  Cn3  v096
 BYTE   W12
 BYTE   An2
 BYTE   W12
 BYTE   PEND 
//  #11 //022   ----------------------------------------
 BYTE   PATT
  POIN2 Label_0105F1C1
//  #11 //023   ----------------------------------------
Label_0105F1FD:
 BYTE   N12  En2  v096
 BYTE   W12
 BYTE   Gs2
 BYTE   W12
 BYTE   PEND 
Label_0105F204:
 BYTE   N12  Ds2  v096
 BYTE   W12
 BYTE   Gs2
 BYTE   W12
 BYTE   PEND 
 BYTE   N24  Cs2
 BYTE   W24
 BYTE   Ds2
 BYTE   W24
//  #11 //024   ----------------------------------------
Label_0105F210:
 BYTE   N12  En2  v096
 BYTE   W12
 BYTE   Bn1
 BYTE   W12
 BYTE   PEND 
//  #11 //025   ----------------------------------------
 BYTE   PATT
  POIN2 Label_0105F1D9
//  #11 //026   ----------------------------------------
 BYTE   N36  Cs3  v096
 BYTE   W24
 BYTE   W12
 BYTE   N12  Bn2
 BYTE   W12
 BYTE   N48
 BYTE   W24
 BYTE   W24
//  #11 //027   ----------------------------------------
 BYTE   As2
 BYTE   W24
 BYTE   W24
 BYTE   N60  An2
 BYTE   W24
 BYTE   W24
//  #11 //028   ----------------------------------------
 BYTE   W12
 BYTE   N12  Gs2
 BYTE   W12
Label_0105F232:
 BYTE   N12  Fs2  v096
 BYTE   W12
 BYTE   Cs2
 BYTE   W12
 BYTE   PEND 
 BYTE   N24  En2
 BYTE   W24
 BYTE   Ds2
 BYTE   W24
//  #11 //029   ----------------------------------------
 BYTE   En2
 BYTE   W24
 BYTE   Fs2
 BYTE   W24
 BYTE   N96  En2
 BYTE   W24
Label_0105F245:
 BYTE   W03
 BYTE   W03
 BYTE   W03
 BYTE   W03
 BYTE   W03
 BYTE   W03
 BYTE   W03
 BYTE   W03
 BYTE   PEND 
//  #11 //030   ----------------------------------------
Label_0105F24E:
 BYTE   W03
 BYTE   W03
 BYTE   W03
 BYTE   W03
 BYTE   W03
 BYTE   W03
 BYTE   W03
 BYTE   W03
 BYTE   PEND 
Label_0105F257:
 BYTE   W03
 BYTE   W03
 BYTE   W03
 BYTE   W03
 BYTE   W03
 BYTE   W03
 BYTE   W03
 BYTE   W03
 BYTE   PEND 
 BYTE   W24
 BYTE   W24
//  #11 //031   ----------------------------------------
 BYTE   W24
 BYTE   W24
 BYTE   W24
 BYTE   W24
//  #11 //032   ----------------------------------------
 BYTE   W24
 BYTE   W24
 BYTE   W24
 BYTE   W24
//  #11 //033   ----------------------------------------
 BYTE   W24
 BYTE   W24
 BYTE   W24
 BYTE   W24
//  #11 //034   ----------------------------------------
 BYTE   W24
 BYTE   W24
 BYTE   W24
 BYTE   W24
//  #11 //035   ----------------------------------------
 BYTE   W24
 BYTE   W24
 BYTE   W12
 BYTE   N12  Ds3  v096
 BYTE   W12
Label_0105F279:
 BYTE   N12  Cs3  v096
 BYTE   W12
 BYTE   Ds3
 BYTE   W12
 BYTE   PEND 
//  #11 //036   ----------------------------------------
 BYTE   N48  En3
 BYTE   W24
 BYTE   W24
 BYTE   W12
 BYTE   N12  Cs3
 BYTE   W12
Label_0105F288:
 BYTE   N12  Bn2  v096
 BYTE   W12
 BYTE   Cs3
 BYTE   W12
 BYTE   PEND 
//  #11 //037   ----------------------------------------
 BYTE   N36  En3
 BYTE   W24
 BYTE   W12
 BYTE   N12  Gs3
 BYTE   W12
 BYTE   N24  En3
 BYTE   W24
 BYTE   Cs3
 BYTE   W24
//  #11 //038   ----------------------------------------
 BYTE   Bn2
 BYTE   W24
 BYTE   An2
 BYTE   W24
 BYTE   Gs2
 BYTE   W24
 BYTE   Fs2
 BYTE   W24
//  #11 //039   ----------------------------------------
 BYTE   En2
 BYTE   W24
 BYTE   Fs2
 BYTE   W24
 BYTE   TIE  Gn2
 BYTE   W24
 BYTE   W24
//  #11 //040   ----------------------------------------
 BYTE   W24
 BYTE   W24
Label_0105F2AD:
 BYTE   W03
 BYTE   W03
 BYTE   W03
 BYTE   W03
 BYTE   W03
 BYTE   W03
 BYTE   W03
 BYTE   W03
 BYTE   PEND 
Label_0105F2B6:
 BYTE   W03
 BYTE   W03
 BYTE   W03
 BYTE   W03
 BYTE   W03
 BYTE   W03
 BYTE   W03
 BYTE   W03
 BYTE   PEND 
//  #11 //041   ----------------------------------------
Label_0105F2BF:
 BYTE   W03
 BYTE   W03
 BYTE   W03
 BYTE   W03
 BYTE   W03
 BYTE   W03
 BYTE   W03
 BYTE   W03
 BYTE   PEND 
Label_0105F2C8:
 BYTE   W03
 BYTE   W03
 BYTE   W03
 BYTE   W03
 BYTE   W03
 BYTE   W03
 BYTE   W03
 BYTE   W03
 BYTE   PEND 
 BYTE   EOT
 BYTE   Gn2
 BYTE   W04
 BYTE   W20
 BYTE   W24
//  #11 //042   ----------------------------------------
 BYTE   W24
 BYTE   W24
 BYTE   W24
 BYTE   W24
//  #11 //043   ----------------------------------------
 BYTE   W24
 BYTE   GoTo
  POIN2 Label_0105F0D4
//  #11 //044   ----------------------------------------
 BYTE   W24
 BYTE   W24
 BYTE   W24
 BYTE   W24
//  #11 //045   ----------------------------------------
 BYTE   W24
 BYTE   W24
 BYTE   W24
 BYTE   W24
//  #11 //046   ----------------------------------------
 BYTE   W24
 BYTE   W24
 BYTE   W24
 BYTE   W24
//  #11 //047   ----------------------------------------
 BYTE   W24
 BYTE   W24
 BYTE   W24
 BYTE   W24
//  #11 //048   ----------------------------------------
 BYTE   W24
 BYTE   W24
 BYTE   W24
 BYTE   W24
//  #11 //049   ----------------------------------------
 BYTE   W24
 BYTE   W24
 BYTE   W24
 BYTE   W24
//  #11 //050   ----------------------------------------
 BYTE   W24
 BYTE   W24
 BYTE   W24
 BYTE   W24
//  #11 //051   ----------------------------------------
 BYTE   PATT
  POIN2 Label_0105F0EF
//  #11 //052   ----------------------------------------
 BYTE   PATT
  POIN2 Label_0105F0F3
//  #11 //053   ----------------------------------------
 BYTE   PATT
  POIN2 Label_0105F0FE
//  #11 //054   ----------------------------------------
 BYTE   PATT
  POIN2 Label_0105F107
//  #11 //055   ----------------------------------------
 BYTE   PATT
  POIN2 Label_0105F110
//  #11 //056   ----------------------------------------
 BYTE   PATT
  POIN2 Label_0105F119
//  #11 //057   ----------------------------------------
 BYTE   W24
 BYTE   W12
 BYTE   N12  En2  v096
 BYTE   W12
//  #11 //058   ----------------------------------------
 BYTE   PATT
  POIN2 Label_0105F124
//  #11 //059   ----------------------------------------
 BYTE   N60  Gs2  v096
 BYTE   W24
 BYTE   W24
 BYTE   W12
 BYTE   N12  En2
 BYTE   W12
//  #11 //060   ----------------------------------------
 BYTE   PATT
  POIN2 Label_0105F133
//  #11 //061   ----------------------------------------
 BYTE   N36  Cs2  v096
 BYTE   W24
 BYTE   W12
 BYTE   N12  Fs2
 BYTE   W12
 BYTE   N36  Cs3
 BYTE   W24
 BYTE   W12
 BYTE   N12  An2
 BYTE   W12
//  #11 //062   ----------------------------------------
 BYTE   N60  Gs2
 BYTE   W24
 BYTE   W24
 BYTE   W12
 BYTE   N12  En2
 BYTE   W12
//  #11 //063   ----------------------------------------
 BYTE   PATT
  POIN2 Label_0105F150
//  #11 //064   ----------------------------------------
 BYTE   N60  Fs2  v096
 BYTE   W24
 BYTE   W24
 BYTE   W12
 BYTE   N12  Gs2
 BYTE   W12
//  #11 //065   ----------------------------------------
 BYTE   PATT
  POIN2 Label_0105F15F
//  #11 //066   ----------------------------------------
 BYTE   N24  Dn3  v096
 BYTE   W24
 BYTE   Cs3
 BYTE   W24
 BYTE   Bn2
 BYTE   W24
 BYTE   En3
 BYTE   W24
//  #11 //067   ----------------------------------------
 BYTE   N72  An2
 BYTE   W24
 BYTE   W24
 BYTE   W24
//  #11 //068   ----------------------------------------
 BYTE   PATT
  POIN2 Label_0105F174
//  #11 //069   ----------------------------------------
 BYTE   N36  An2  v096
 BYTE   W24
 BYTE   W12
 BYTE   N12  En2
 BYTE   W12
 BYTE   N48  An1
 BYTE   W24
//  #11 //070   ----------------------------------------
 BYTE   PATT
  POIN2 Label_0105F185
//  #11 //071   ----------------------------------------
 BYTE   PATT
  POIN2 Label_0105F18E
//  #11 //072   ----------------------------------------
 BYTE   PATT
  POIN2 Label_0105F196
//  #11 //073   ----------------------------------------
 BYTE   PATT
  POIN2 Label_0105F19D
//  #11 //074   ----------------------------------------
 BYTE   PATT
  POIN2 Label_0105F1A4
//  #11 //075   ----------------------------------------
 BYTE   W12
 BYTE   N12  Bn1  v096
 BYTE   W12
//  #11 //076   ----------------------------------------
 BYTE   PATT
  POIN2 Label_0105F1AE
//  #11 //077   ----------------------------------------
 BYTE   N24  Fs2  v096
 BYTE   W24
 BYTE   Cs3
 BYTE   W24
 BYTE   N36  Bn2
 BYTE   W24
 BYTE   W12
 BYTE   N12  An2
 BYTE   W12
//  #11 //078   ----------------------------------------
 BYTE   PATT
  POIN2 Label_0105F1C1
//  #11 //079   ----------------------------------------
 BYTE   PATT
  POIN2 Label_0105F1C8
//  #11 //080   ----------------------------------------
 BYTE   W12
 BYTE   N12  Fs2  v096
 BYTE   W12
//  #11 //081   ----------------------------------------
 BYTE   PATT
  POIN2 Label_0105F1D2
//  #11 //082   ----------------------------------------
 BYTE   PATT
  POIN2 Label_0105F1D9
//  #11 //083   ----------------------------------------
 BYTE   PATT
  POIN2 Label_0105F1E0
//  #11 //084   ----------------------------------------
 BYTE   W12
 BYTE   N12  Ds2  v096
 BYTE   W12
//  #11 //085   ----------------------------------------
 BYTE   PATT
  POIN2 Label_0105F1EA
//  #11 //086   ----------------------------------------
 BYTE   PATT
  POIN2 Label_0105F1F1
//  #11 //087   ----------------------------------------
 BYTE   PATT
  POIN2 Label_0105F1C1
//  #11 //088   ----------------------------------------
 BYTE   PATT
  POIN2 Label_0105F1FD
//  #11 //089   ----------------------------------------
 BYTE   PATT
  POIN2 Label_0105F204
//  #11 //090   ----------------------------------------
 BYTE   N24  Cs2  v096
 BYTE   W24
 BYTE   Ds2
 BYTE   W24
//  #11 //091   ----------------------------------------
 BYTE   PATT
  POIN2 Label_0105F210
//  #11 //092   ----------------------------------------
 BYTE   PATT
  POIN2 Label_0105F1D9
//  #11 //093   ----------------------------------------
 BYTE   N36  Cs3  v096
 BYTE   W24
 BYTE   W12
 BYTE   N12  Bn2
 BYTE   W12
 BYTE   N48
 BYTE   W24
 BYTE   W24
//  #11 //094   ----------------------------------------
 BYTE   As2
 BYTE   W24
 BYTE   W24
 BYTE   N60  An2
 BYTE   W24
 BYTE   W24
//  #11 //095   ----------------------------------------
 BYTE   W12
 BYTE   N12  Gs2
 BYTE   W12
//  #11 //096   ----------------------------------------
 BYTE   PATT
  POIN2 Label_0105F232
//  #11 //097   ----------------------------------------
 BYTE   N24  En2  v096
 BYTE   W24
 BYTE   Ds2
 BYTE   W24
 BYTE   En2
 BYTE   W24
 BYTE   Fs2
 BYTE   W24
//  #11 //098   ----------------------------------------
 BYTE   N96  En2
 BYTE   W24
//  #11 //099   ----------------------------------------
 BYTE   PATT
  POIN2 Label_0105F245
//  #11 //100   ----------------------------------------
 BYTE   PATT
  POIN2 Label_0105F24E
//  #11 //101   ----------------------------------------
 BYTE   PATT
  POIN2 Label_0105F257
//  #11 //102   ----------------------------------------
 BYTE   W24
 BYTE   W24
 BYTE   W24
 BYTE   W24
//  #11 //103   ----------------------------------------
 BYTE   W24
 BYTE   W24
 BYTE   W24
 BYTE   W24
//  #11 //104   ----------------------------------------
 BYTE   W24
 BYTE   W24
 BYTE   W24
 BYTE   W24
//  #11 //105   ----------------------------------------
 BYTE   W24
 BYTE   W24
 BYTE   W24
 BYTE   W24
//  #11 //106   ----------------------------------------
 BYTE   W24
 BYTE   W24
 BYTE   W24
 BYTE   W24
//  #11 //107   ----------------------------------------
 BYTE   W12
 BYTE   N12  Ds3  v096
 BYTE   W12
//  #11 //108   ----------------------------------------
 BYTE   PATT
  POIN2 Label_0105F279
//  #11 //109   ----------------------------------------
 BYTE   N48  En3  v096
 BYTE   W24
 BYTE   W24
 BYTE   W12
 BYTE   N12  Cs3
 BYTE   W12
//  #11 //110   ----------------------------------------
 BYTE   PATT
  POIN2 Label_0105F288
//  #11 //111   ----------------------------------------
 BYTE   N36  En3  v096
 BYTE   W24
 BYTE   W12
 BYTE   N12  Gs3
 BYTE   W12
 BYTE   N24  En3
 BYTE   W24
 BYTE   Cs3
 BYTE   W24
//  #11 //112   ----------------------------------------
 BYTE   Bn2
 BYTE   W24
 BYTE   An2
 BYTE   W24
 BYTE   Gs2
 BYTE   W24
 BYTE   Fs2
 BYTE   W24
//  #11 //113   ----------------------------------------
 BYTE   En2
 BYTE   W24
 BYTE   Fs2
 BYTE   W24
 BYTE   TIE  Gn2
 BYTE   W24
 BYTE   W24
//  #11 //114   ----------------------------------------
 BYTE   W24
 BYTE   W24
//  #11 //115   ----------------------------------------
 BYTE   PATT
  POIN2 Label_0105F2AD
//  #11 //116   ----------------------------------------
 BYTE   PATT
  POIN2 Label_0105F2B6
//  #11 //117   ----------------------------------------
 BYTE   PATT
  POIN2 Label_0105F2BF
//  #11 //118   ----------------------------------------
 BYTE   PATT
  POIN2 Label_0105F2C8
//  #11 //119   ----------------------------------------
 BYTE   EOT
 BYTE   Gn2
 BYTE   W04
 BYTE   W20
 BYTE   W24
 BYTE   W24
 BYTE   W24
//  #11 //120   ----------------------------------------
 BYTE   W24
 BYTE   W24
 BYTE   W24
 BYTE   W24
//  #11 //121   ----------------------------------------
 BYTE   W24
 BYTE   W24
 BYTE   W24
 BYTE   W24
 BYTE   FINE

//**************** Track 12 (Midi-Chn.11) ****************//

PokemonMDExplorersDefendGlobePsyche_012:
//  #12 //000   ----------------------------------------
 BYTE   KEYSH   PokemonMDExplorersDefendGlobePsyche_key+0
 BYTE   VOICE   51
 BYTE   PAN   c_v-64
 BYTE   VOL   23*PokemonMDExplorersDefendGlobePsyche_mvl/mxv
 BYTE   BEND   c_v+0
 BYTE   W24
 BYTE   W24
 BYTE   W24
 BYTE   N36  En1  v127
 BYTE   W03
 BYTE   W03
 BYTE   W03
 BYTE   W03
 BYTE   W03
 BYTE   W03
 BYTE   W03
 BYTE   W03
//  #12 //001   ----------------------------------------
Label_0105F4B8:
 BYTE   W03
 BYTE   W03
 BYTE   W03
 BYTE   W15
 BYTE   PEND 
 BYTE   W24
 BYTE   W24
 BYTE   W24
//  #12 //002   ----------------------------------------
 BYTE   W24
 BYTE   W24
 BYTE   W24
 BYTE   W24
//  #12 //003   ----------------------------------------
 BYTE   W24
 BYTE   W24
 BYTE   W24
 BYTE   W24
//  #12 //004   ----------------------------------------
 BYTE   W24
 BYTE   W24
 BYTE   W24
 BYTE   W24
//  #12 //005   ----------------------------------------
 BYTE   W24
 BYTE   W24
 BYTE   W24
 BYTE   W24
//  #12 //006   ----------------------------------------
 BYTE   W24
 BYTE   W24
 BYTE   W24
 BYTE   W24
//  #12 //007   ----------------------------------------
 BYTE   W24
 BYTE   W24
 BYTE   W24
 BYTE   W24
//  #12 //008   ----------------------------------------
Label_0105F4D8:
 BYTE   W03
 BYTE   W09
 BYTE   N96  En1  v096
 BYTE   W06
 BYTE   W03
 BYTE   W03
 BYTE   PEND 
Label_0105F4E1:
 BYTE   W03
 BYTE   W03
 BYTE   W03
 BYTE   W03
 BYTE   W03
 BYTE   W03
 BYTE   W03
 BYTE   W03
 BYTE   PEND 
Label_0105F4EA:
 BYTE   W03
 BYTE   W03
 BYTE   W03
 BYTE   W03
 BYTE   W03
 BYTE   W03
 BYTE   W03
 BYTE   W03
 BYTE   PEND 
Label_0105F4F3:
 BYTE   W03
 BYTE   W03
 BYTE   W03
 BYTE   W03
 BYTE   W03
 BYTE   W03
 BYTE   W03
 BYTE   W03
 BYTE   PEND 
//  #12 //009   ----------------------------------------
Label_0105F4FC:
 BYTE   W03
 BYTE   W03
 BYTE   W03
 BYTE   W03
 BYTE   N60  An1  v096
 BYTE   W12
 BYTE   PEND 
 BYTE   W03
 BYTE   W21
 BYTE   W24
Label_0105F508:
 BYTE   N12  En2  v096
 BYTE   W12
 BYTE   An2
 BYTE   W12
 BYTE   PEND 
//  #12 //010   ----------------------------------------
Label_0105F50F:
 BYTE   N12  Bn2  v096
 BYTE   W12
 BYTE   N60  Gs2
 BYTE   W12
 BYTE   PEND 
 BYTE   W24
 BYTE   W24
Label_0105F519:
 BYTE   N12  En2  v096
 BYTE   W12
 BYTE   Dn2
 BYTE   W12
 BYTE   PEND 
//  #12 //011   ----------------------------------------
Label_0105F520:
 BYTE   N12  En2  v096
 BYTE   W12
 BYTE   N36  Cs2
 BYTE   W12
 BYTE   PEND 
 BYTE   W24
Label_0105F529:
 BYTE   N12  Fs2  v096
 BYTE   W12
 BYTE   N36  Cs3
 BYTE   W12
 BYTE   PEND 
 BYTE   W24
//  #12 //012   ----------------------------------------
Label_0105F532:
 BYTE   N12  An2  v096
 BYTE   W12
 BYTE   N60  Gs2
 BYTE   W12
 BYTE   PEND 
 BYTE   W24
 BYTE   W24
Label_0105F53C:
 BYTE   N12  En2  v096
 BYTE   W12
 BYTE   Cs2
 BYTE   W12
 BYTE   PEND 
//  #12 //013   ----------------------------------------
Label_0105F543:
 BYTE   N12  En2  v096
 BYTE   W12
 BYTE   N60  Fs2
 BYTE   W12
 BYTE   PEND 
 BYTE   W24
 BYTE   W24
Label_0105F54D:
 BYTE   N12  Gs2  v096
 BYTE   W12
 BYTE   An2
 BYTE   W12
 BYTE   PEND 
//  #12 //014   ----------------------------------------
Label_0105F554:
 BYTE   N12  Cs3  v096
 BYTE   W12
 BYTE   N24  Dn3
 BYTE   W12
 BYTE   PEND 
 BYTE   W12
 BYTE   Cs3
 BYTE   W12
 BYTE   W12
 BYTE   Bn2
 BYTE   W12
 BYTE   W12
 BYTE   En3
 BYTE   W12
//  #12 //015   ----------------------------------------
 BYTE   W12
 BYTE   N72  An2
 BYTE   W12
 BYTE   W24
 BYTE   W24
 BYTE   W12
 BYTE   N12  En2
 BYTE   W12
//  #12 //016   ----------------------------------------
Label_0105F56F:
 BYTE   N12  Bn2  v096
 BYTE   W12
 BYTE   N36  An2
 BYTE   W12
 BYTE   PEND 
 BYTE   W24
Label_0105F578:
 BYTE   N12  En2  v096
 BYTE   W12
 BYTE   N48  An1
 BYTE   W12
 BYTE   PEND 
Label_0105F580:
 BYTE   W12
 BYTE   W03
 BYTE   W03
 BYTE   W03
 BYTE   W03
 BYTE   PEND 
//  #12 //017   ----------------------------------------
Label_0105F586:
 BYTE   W03
 BYTE   W03
 BYTE   W03
 BYTE   W03
 BYTE   W03
 BYTE   W03
 BYTE   W06
 BYTE   PEND 
Label_0105F58E:
 BYTE   N12  Gn2  v096
 BYTE   W12
 BYTE   Fs2
 BYTE   W12
 BYTE   PEND 
Label_0105F595:
 BYTE   N12  Bn2  v096
 BYTE   W12
 BYTE   As2
 BYTE   W12
 BYTE   PEND 
//  #12 //018   ----------------------------------------
 BYTE   PATT
  POIN2 Label_0105F58E
//  #12 //019   ----------------------------------------
 BYTE   N12  As1  v096
 BYTE   W24
Label_0105F5A5:
 BYTE   N12  Bn1  v096
 BYTE   W12
 BYTE   Cs2
 BYTE   W12
 BYTE   PEND 
Label_0105F5AC:
 BYTE   N12  Dn2  v096
 BYTE   W12
 BYTE   N24  Fs2
 BYTE   W12
 BYTE   PEND 
 BYTE   W12
 BYTE   Cs3
 BYTE   W12
//  #12 //020   ----------------------------------------
 BYTE   W12
 BYTE   N36  Bn2
 BYTE   W12
 BYTE   W24
Label_0105F5BC:
 BYTE   N12  An2  v096
 BYTE   W12
 BYTE   Gs2
 BYTE   W12
 BYTE   PEND 
Label_0105F5C3:
 BYTE   N12  Fs2  v096
 BYTE   W12
 BYTE   Fn2
 BYTE   W12
 BYTE   PEND 
//  #12 //021   ----------------------------------------
 BYTE   Cs2
 BYTE   W24
Label_0105F5CC:
 BYTE   N12  Fs2  v096
 BYTE   W12
 BYTE   Gs2
 BYTE   W12
 BYTE   PEND 
//  #12 //022   ----------------------------------------
 BYTE   PATT
  POIN2 Label_0105F5BC
//  #12 //023   ----------------------------------------
 BYTE   PATT
  POIN2 Label_0105F53C
//  #12 //024   ----------------------------------------
 BYTE   N12  An1  v096
 BYTE   W24
Label_0105F5E1:
 BYTE   N12  Ds2  v096
 BYTE   W12
 BYTE   Fs2
 BYTE   W12
 BYTE   PEND 
Label_0105F5E8:
 BYTE   N12  Cs3  v096
 BYTE   W12
 BYTE   Cn3
 BYTE   W12
 BYTE   PEND 
//  #12 //025   ----------------------------------------
 BYTE   PATT
  POIN2 Label_0105F5BC
//  #12 //026   ----------------------------------------
Label_0105F5F4:
 BYTE   N12  Fs2  v096
 BYTE   W12
 BYTE   En2
 BYTE   W12
 BYTE   PEND 
Label_0105F5FB:
 BYTE   N12  Gs2  v096
 BYTE   W12
 BYTE   Ds2
 BYTE   W12
 BYTE   PEND 
Label_0105F602:
 BYTE   N12  Gs2  v096
 BYTE   W12
 BYTE   N24  Cs2
 BYTE   W12
 BYTE   PEND 
 BYTE   W12
 BYTE   Ds2
 BYTE   W12
//  #12 //027   ----------------------------------------
 BYTE   W12
 BYTE   N12  En2
 BYTE   W12
Label_0105F611:
 BYTE   N12  Bn1  v096
 BYTE   W12
 BYTE   Gs2
 BYTE   W12
 BYTE   PEND 
Label_0105F618:
 BYTE   N12  En2  v096
 BYTE   W12
 BYTE   N36  Cs3
 BYTE   W12
 BYTE   PEND 
 BYTE   W24
//  #12 //028   ----------------------------------------
Label_0105F621:
 BYTE   N12  Bn2  v096
 BYTE   W12
 BYTE   N48
 BYTE   W12
 BYTE   PEND 
 BYTE   W24
 BYTE   W12
 BYTE   As2
 BYTE   W12
 BYTE   W24
//  #12 //029   ----------------------------------------
 BYTE   W12
 BYTE   N60  An2
 BYTE   W12
 BYTE   W24
 BYTE   W24
Label_0105F633:
 BYTE   N12  Gs2  v096
 BYTE   W12
 BYTE   Fs2
 BYTE   W12
 BYTE   PEND 
//  #12 //030   ----------------------------------------
Label_0105F63A:
 BYTE   N12  Cs2  v096
 BYTE   W12
 BYTE   N24  En2
 BYTE   W12
 BYTE   PEND 
 BYTE   W12
 BYTE   Ds2
 BYTE   W12
 BYTE   W12
 BYTE   En2
 BYTE   W12
 BYTE   W12
 BYTE   Fs2
 BYTE   W12
//  #12 //031   ----------------------------------------
 BYTE   W12
 BYTE   N96  En2
 BYTE   W12
Label_0105F64F:
 BYTE   W15
 BYTE   W03
 BYTE   W03
 BYTE   W03
 BYTE   PEND 
Label_0105F654:
 BYTE   W03
 BYTE   W03
 BYTE   W03
 BYTE   W03
 BYTE   W03
 BYTE   W03
 BYTE   W03
 BYTE   W03
 BYTE   PEND 
Label_0105F65D:
 BYTE   W03
 BYTE   W03
 BYTE   W03
 BYTE   W03
 BYTE   W03
 BYTE   W03
 BYTE   W03
 BYTE   W03
 BYTE   PEND 
//  #12 //032   ----------------------------------------
Label_0105F666:
 BYTE   W03
 BYTE   W03
 BYTE   W03
 BYTE   W03
 BYTE   W12
 BYTE   PEND 
 BYTE   W24
 BYTE   W24
 BYTE   W24
//  #12 //033   ----------------------------------------
 BYTE   W24
 BYTE   W12
 BYTE   W12
 BYTE   W24
 BYTE   W24
//  #12 //034   ----------------------------------------
 BYTE   W24
 BYTE   W24
 BYTE   W24
 BYTE   W24
//  #12 //035   ----------------------------------------
 BYTE   W24
 BYTE   W24
 BYTE   W24
 BYTE   W24
//  #12 //036   ----------------------------------------
 BYTE   W24
 BYTE   W24
 BYTE   W24
 BYTE   W24
//  #12 //037   ----------------------------------------
 BYTE   W24
Label_0105F681:
 BYTE   N12  Ds3  v096
 BYTE   W12
 BYTE   Cs3
 BYTE   W12
 BYTE   PEND 
Label_0105F688:
 BYTE   N12  Ds3  v096
 BYTE   W12
 BYTE   N48  En3
 BYTE   W12
 BYTE   PEND 
 BYTE   W24
//  #12 //038   ----------------------------------------
 BYTE   W24
Label_0105F692:
 BYTE   N12  Cs3  v096
 BYTE   W12
 BYTE   Bn2
 BYTE   W12
 BYTE   PEND 
Label_0105F699:
 BYTE   N12  Cs3  v096
 BYTE   W12
 BYTE   N36  En3
 BYTE   W12
 BYTE   PEND 
 BYTE   W24
//  #12 //039   ----------------------------------------
Label_0105F6A2:
 BYTE   N12  Gs3  v096
 BYTE   W12
 BYTE   N24  En3
 BYTE   W12
 BYTE   PEND 
 BYTE   W12
 BYTE   Cs3
 BYTE   W12
 BYTE   W12
 BYTE   Bn2
 BYTE   W12
 BYTE   W12
 BYTE   An2
 BYTE   W12
//  #12 //040   ----------------------------------------
 BYTE   W12
 BYTE   Gs2
 BYTE   W12
 BYTE   W12
 BYTE   Fs2
 BYTE   W12
 BYTE   W12
 BYTE   En2
 BYTE   W12
 BYTE   W12
 BYTE   Fs2
 BYTE   W12
//  #12 //041   ----------------------------------------
Label_0105F6BF:
 BYTE   W12
 BYTE   TIE  Gn2  v096
 BYTE   W12
 BYTE   PEND 
 BYTE   W24
 BYTE   W24
 BYTE   W24
//  #12 //042   ----------------------------------------
Label_0105F6C8:
 BYTE   W12
 BYTE   W03
 BYTE   W03
 BYTE   W03
 BYTE   W03
 BYTE   PEND 
Label_0105F6CE:
 BYTE   W03
 BYTE   W03
 BYTE   W03
 BYTE   W03
 BYTE   W03
 BYTE   W03
 BYTE   W03
 BYTE   W03
 BYTE   PEND 
Label_0105F6D7:
 BYTE   W03
 BYTE   W03
 BYTE   W03
 BYTE   W03
 BYTE   W03
 BYTE   W03
 BYTE   W03
 BYTE   W03
 BYTE   PEND 
Label_0105F6E0:
 BYTE   W03
 BYTE   W03
 BYTE   W03
 BYTE   W03
 BYTE   W03
 BYTE   W03
 BYTE   W03
 BYTE   W03
 BYTE   PEND 
//  #12 //043   ----------------------------------------
Label_0105F6E9:
 BYTE   W03
 BYTE   W03
 BYTE   W03
 BYTE   W03
 BYTE   PEND 
 BYTE   EOT
 BYTE   Gn2
 BYTE   W04
 BYTE   W08
 BYTE   W24
 BYTE   W24
 BYTE   W24
//  #12 //044   ----------------------------------------
 BYTE   W24
 BYTE   W24
 BYTE   W24
 BYTE   GoTo
  POIN2 Label_0105F4B8
//  #12 //045   ----------------------------------------
 BYTE   W24
//  #12 //046   ----------------------------------------
 BYTE   PATT
  POIN2 Label_0105F4B8
//  #12 //047   ----------------------------------------
 BYTE   W24
 BYTE   W24
 BYTE   W24
 BYTE   W24
//  #12 //048   ----------------------------------------
 BYTE   W24
 BYTE   W24
 BYTE   W24
 BYTE   W24
//  #12 //049   ----------------------------------------
 BYTE   W24
 BYTE   W24
 BYTE   W24
 BYTE   W24
//  #12 //050   ----------------------------------------
 BYTE   W24
 BYTE   W24
 BYTE   W24
 BYTE   W24
//  #12 //051   ----------------------------------------
 BYTE   W24
 BYTE   W24
 BYTE   W24
 BYTE   W24
//  #12 //052   ----------------------------------------
 BYTE   W24
 BYTE   W24
 BYTE   W24
 BYTE   W24
//  #12 //053   ----------------------------------------
 BYTE   W24
 BYTE   W24
 BYTE   W24
//  #12 //054   ----------------------------------------
 BYTE   PATT
  POIN2 Label_0105F4D8
//  #12 //055   ----------------------------------------
 BYTE   PATT
  POIN2 Label_0105F4E1
//  #12 //056   ----------------------------------------
 BYTE   PATT
  POIN2 Label_0105F4EA
//  #12 //057   ----------------------------------------
 BYTE   PATT
  POIN2 Label_0105F4F3
//  #12 //058   ----------------------------------------
 BYTE   PATT
  POIN2 Label_0105F4FC
//  #12 //059   ----------------------------------------
 BYTE   W03
 BYTE   W21
 BYTE   W24
//  #12 //060   ----------------------------------------
 BYTE   PATT
  POIN2 Label_0105F508
//  #12 //061   ----------------------------------------
 BYTE   PATT
  POIN2 Label_0105F50F
//  #12 //062   ----------------------------------------
 BYTE   W24
 BYTE   W24
//  #12 //063   ----------------------------------------
 BYTE   PATT
  POIN2 Label_0105F519
//  #12 //064   ----------------------------------------
 BYTE   PATT
  POIN2 Label_0105F520
//  #12 //065   ----------------------------------------
 BYTE   W24
//  #12 //066   ----------------------------------------
 BYTE   PATT
  POIN2 Label_0105F529
//  #12 //067   ----------------------------------------
 BYTE   W24
//  #12 //068   ----------------------------------------
 BYTE   PATT
  POIN2 Label_0105F532
//  #12 //069   ----------------------------------------
 BYTE   W24
 BYTE   W24
//  #12 //070   ----------------------------------------
 BYTE   PATT
  POIN2 Label_0105F53C
//  #12 //071   ----------------------------------------
 BYTE   PATT
  POIN2 Label_0105F543
//  #12 //072   ----------------------------------------
 BYTE   W24
 BYTE   W24
//  #12 //073   ----------------------------------------
 BYTE   PATT
  POIN2 Label_0105F54D
//  #12 //074   ----------------------------------------
 BYTE   PATT
  POIN2 Label_0105F554
//  #12 //075   ----------------------------------------
 BYTE   W12
 BYTE   N24  Cs3  v096
 BYTE   W12
 BYTE   W12
 BYTE   Bn2
 BYTE   W12
 BYTE   W12
 BYTE   En3
 BYTE   W12
 BYTE   W12
 BYTE   N72  An2
 BYTE   W12
//  #12 //076   ----------------------------------------
 BYTE   W24
 BYTE   W24
 BYTE   W12
 BYTE   N12  En2
 BYTE   W12
//  #12 //077   ----------------------------------------
 BYTE   PATT
  POIN2 Label_0105F56F
//  #12 //078   ----------------------------------------
 BYTE   W24
//  #12 //079   ----------------------------------------
 BYTE   PATT
  POIN2 Label_0105F578
//  #12 //080   ----------------------------------------
 BYTE   PATT
  POIN2 Label_0105F580
//  #12 //081   ----------------------------------------
 BYTE   PATT
  POIN2 Label_0105F586
//  #12 //082   ----------------------------------------
 BYTE   PATT
  POIN2 Label_0105F58E
//  #12 //083   ----------------------------------------
 BYTE   PATT
  POIN2 Label_0105F595
//  #12 //084   ----------------------------------------
 BYTE   PATT
  POIN2 Label_0105F58E
//  #12 //085   ----------------------------------------
 BYTE   N12  As1  v096
 BYTE   W24
//  #12 //086   ----------------------------------------
 BYTE   PATT
  POIN2 Label_0105F5A5
//  #12 //087   ----------------------------------------
 BYTE   PATT
  POIN2 Label_0105F5AC
//  #12 //088   ----------------------------------------
 BYTE   W12
 BYTE   N24  Cs3  v096
 BYTE   W12
 BYTE   W12
 BYTE   N36  Bn2
 BYTE   W12
 BYTE   W24
//  #12 //089   ----------------------------------------
 BYTE   PATT
  POIN2 Label_0105F5BC
//  #12 //090   ----------------------------------------
 BYTE   PATT
  POIN2 Label_0105F5C3
//  #12 //091   ----------------------------------------
 BYTE   N12  Cs2  v096
 BYTE   W24
//  #12 //092   ----------------------------------------
 BYTE   PATT
  POIN2 Label_0105F5CC
//  #12 //093   ----------------------------------------
 BYTE   PATT
  POIN2 Label_0105F5BC
//  #12 //094   ----------------------------------------
 BYTE   PATT
  POIN2 Label_0105F53C
//  #12 //095   ----------------------------------------
 BYTE   N12  An1  v096
 BYTE   W24
//  #12 //096   ----------------------------------------
 BYTE   PATT
  POIN2 Label_0105F5E1
//  #12 //097   ----------------------------------------
 BYTE   PATT
  POIN2 Label_0105F5E8
//  #12 //098   ----------------------------------------
 BYTE   PATT
  POIN2 Label_0105F5BC
//  #12 //099   ----------------------------------------
 BYTE   PATT
  POIN2 Label_0105F5F4
//  #12 //100   ----------------------------------------
 BYTE   PATT
  POIN2 Label_0105F5FB
//  #12 //101   ----------------------------------------
 BYTE   PATT
  POIN2 Label_0105F602
//  #12 //102   ----------------------------------------
 BYTE   W12
 BYTE   N24  Ds2  v096
 BYTE   W12
 BYTE   W12
 BYTE   N12  En2
 BYTE   W12
//  #12 //103   ----------------------------------------
 BYTE   PATT
  POIN2 Label_0105F611
//  #12 //104   ----------------------------------------
 BYTE   PATT
  POIN2 Label_0105F618
//  #12 //105   ----------------------------------------
 BYTE   W24
//  #12 //106   ----------------------------------------
 BYTE   PATT
  POIN2 Label_0105F621
//  #12 //107   ----------------------------------------
 BYTE   W24
 BYTE   W12
 BYTE   N48  As2  v096
 BYTE   W12
 BYTE   W24
 BYTE   W12
 BYTE   N60  An2
 BYTE   W12
//  #12 //108   ----------------------------------------
 BYTE   W24
 BYTE   W24
//  #12 //109   ----------------------------------------
 BYTE   PATT
  POIN2 Label_0105F633
//  #12 //110   ----------------------------------------
 BYTE   PATT
  POIN2 Label_0105F63A
//  #12 //111   ----------------------------------------
 BYTE   W12
 BYTE   N24  Ds2  v096
 BYTE   W12
 BYTE   W12
 BYTE   En2
 BYTE   W12
 BYTE   W12
 BYTE   Fs2
 BYTE   W12
 BYTE   W12
 BYTE   N96  En2
 BYTE   W12
//  #12 //112   ----------------------------------------
 BYTE   PATT
  POIN2 Label_0105F64F
//  #12 //113   ----------------------------------------
 BYTE   PATT
  POIN2 Label_0105F654
//  #12 //114   ----------------------------------------
 BYTE   PATT
  POIN2 Label_0105F65D
//  #12 //115   ----------------------------------------
 BYTE   PATT
  POIN2 Label_0105F666
//  #12 //116   ----------------------------------------
 BYTE   W24
 BYTE   W24
 BYTE   W24
 BYTE   W24
//  #12 //117   ----------------------------------------
 BYTE   W12
 BYTE   W12
 BYTE   W24
 BYTE   W24
 BYTE   W24
//  #12 //118   ----------------------------------------
 BYTE   W24
 BYTE   W24
 BYTE   W24
 BYTE   W24
//  #12 //119   ----------------------------------------
 BYTE   W24
 BYTE   W24
 BYTE   W24
 BYTE   W24
//  #12 //120   ----------------------------------------
 BYTE   W24
 BYTE   W24
 BYTE   W24
 BYTE   W24
//  #12 //121   ----------------------------------------
 BYTE   PATT
  POIN2 Label_0105F681
//  #12 //122   ----------------------------------------
 BYTE   PATT
  POIN2 Label_0105F688
//  #12 //123   ----------------------------------------
 BYTE   W24
 BYTE   W24
//  #12 //124   ----------------------------------------
 BYTE   PATT
  POIN2 Label_0105F692
//  #12 //125   ----------------------------------------
 BYTE   PATT
  POIN2 Label_0105F699
//  #12 //126   ----------------------------------------
 BYTE   W24
//  #12 //127   ----------------------------------------
 BYTE   PATT
  POIN2 Label_0105F6A2
//  #12 //128   ----------------------------------------
 BYTE   W12
 BYTE   N24  Cs3  v096
 BYTE   W12
 BYTE   W12
 BYTE   Bn2
 BYTE   W12
 BYTE   W12
 BYTE   An2
 BYTE   W12
 BYTE   W12
 BYTE   Gs2
 BYTE   W12
//  #12 //129   ----------------------------------------
 BYTE   W12
 BYTE   Fs2
 BYTE   W12
 BYTE   W12
 BYTE   En2
 BYTE   W12
 BYTE   W12
 BYTE   Fs2
 BYTE   W12
//  #12 //130   ----------------------------------------
 BYTE   PATT
  POIN2 Label_0105F6BF
//  #12 //131   ----------------------------------------
 BYTE   W24
 BYTE   W24
 BYTE   W24
//  #12 //132   ----------------------------------------
 BYTE   PATT
  POIN2 Label_0105F6C8
//  #12 //133   ----------------------------------------
 BYTE   PATT
  POIN2 Label_0105F6CE
//  #12 //134   ----------------------------------------
 BYTE   PATT
  POIN2 Label_0105F6D7
//  #12 //135   ----------------------------------------
 BYTE   PATT
  POIN2 Label_0105F6E0
//  #12 //136   ----------------------------------------
 BYTE   PATT
  POIN2 Label_0105F6E9
//  #12 //137   ----------------------------------------
 BYTE   EOT
 BYTE   Gn2
 BYTE   W04
 BYTE   W08
 BYTE   W24
 BYTE   W24
 BYTE   W24
 BYTE   W24
//  #12 //138   ----------------------------------------
 BYTE   W24
 BYTE   W24
 BYTE   W24
 BYTE   W24
//  #12 //139   ----------------------------------------
 BYTE   W24
 BYTE   W24
 BYTE   W24
 BYTE   FINE

//**************** Track 13 (Midi-Chn.12) ****************//

PokemonMDExplorersDefendGlobePsyche_013:
//  #13 //000   ----------------------------------------
 BYTE   KEYSH   PokemonMDExplorersDefendGlobePsyche_key+0
 BYTE   VOICE   51
 BYTE   PAN   c_v+63
 BYTE   VOL   21*PokemonMDExplorersDefendGlobePsyche_mvl/mxv
 BYTE   BEND   c_v+0
 BYTE   W24
 BYTE   W24
 BYTE   W24
 BYTE   W12
 BYTE   N36  En1  v127
 BYTE   W03
 BYTE   W03
 BYTE   W03
 BYTE   W03
//  #13 //001   ----------------------------------------
Label_0105F8E5:
 BYTE   W03
 BYTE   W03
 BYTE   W03
 BYTE   W03
 BYTE   W03
 BYTE   W03
 BYTE   W03
 BYTE   W03
 BYTE   PEND 
 BYTE   W24
 BYTE   W24
 BYTE   W24
//  #13 //002   ----------------------------------------
 BYTE   W24
 BYTE   W24
 BYTE   W24
 BYTE   W24
//  #13 //003   ----------------------------------------
 BYTE   W24
 BYTE   W24
 BYTE   W24
 BYTE   W24
//  #13 //004   ----------------------------------------
 BYTE   W24
 BYTE   W24
 BYTE   W24
 BYTE   W24
//  #13 //005   ----------------------------------------
 BYTE   W24
 BYTE   W24
 BYTE   W24
 BYTE   W24
//  #13 //006   ----------------------------------------
 BYTE   W24
 BYTE   W24
 BYTE   W24
 BYTE   W24
//  #13 //007   ----------------------------------------
 BYTE   W24
 BYTE   W24
 BYTE   W24
 BYTE   W24
//  #13 //008   ----------------------------------------
Label_0105F909:
 BYTE   W12
 BYTE   W03
 BYTE   W09
 BYTE   PEND 
Label_0105F90D:
 BYTE   N96  En1  v096
 BYTE   W06
 BYTE   W03
 BYTE   W03
 BYTE   W03
 BYTE   W03
 BYTE   W03
 BYTE   W03
 BYTE   PEND 
Label_0105F918:
 BYTE   W03
 BYTE   W03
 BYTE   W03
 BYTE   W03
 BYTE   W03
 BYTE   W03
 BYTE   W03
 BYTE   W03
 BYTE   PEND 
Label_0105F921:
 BYTE   W03
 BYTE   W03
 BYTE   W03
 BYTE   W03
 BYTE   W03
 BYTE   W03
 BYTE   W03
 BYTE   W03
 BYTE   PEND 
//  #13 //009   ----------------------------------------
Label_0105F92A:
 BYTE   W03
 BYTE   W03
 BYTE   W03
 BYTE   W03
 BYTE   W03
 BYTE   W03
 BYTE   W03
 BYTE   W03
 BYTE   PEND 
Label_0105F933:
 BYTE   N60  An1  v096
 BYTE   W15
 BYTE   W09
 BYTE   PEND 
 BYTE   W24
 BYTE   W12
 BYTE   N12  En2
 BYTE   W12
//  #13 //010   ----------------------------------------
Label_0105F93E:
 BYTE   N12  An2  v096
 BYTE   W12
 BYTE   Bn2
 BYTE   W12
 BYTE   PEND 
 BYTE   N60  Gs2
 BYTE   W24
 BYTE   W24
 BYTE   W12
 BYTE   N12  En2
 BYTE   W12
//  #13 //011   ----------------------------------------
Label_0105F94D:
 BYTE   N12  Dn2  v096
 BYTE   W12
 BYTE   En2
 BYTE   W12
 BYTE   PEND 
 BYTE   N36  Cs2
 BYTE   W24
 BYTE   W12
 BYTE   N12  Fs2
 BYTE   W12
 BYTE   N36  Cs3
 BYTE   W24
//  #13 //012   ----------------------------------------
 BYTE   W12
 BYTE   N12  An2
 BYTE   W12
 BYTE   N60  Gs2
 BYTE   W24
 BYTE   W24
 BYTE   W12
 BYTE   N12  En2
 BYTE   W12
//  #13 //013   ----------------------------------------
Label_0105F96A:
 BYTE   N12  Cs2  v096
 BYTE   W12
 BYTE   En2
 BYTE   W12
 BYTE   PEND 
 BYTE   N60  Fs2
 BYTE   W24
 BYTE   W24
 BYTE   W12
 BYTE   N12  Gs2
 BYTE   W12
//  #13 //014   ----------------------------------------
Label_0105F979:
 BYTE   N12  An2  v096
 BYTE   W12
 BYTE   Cs3
 BYTE   W12
 BYTE   PEND 
 BYTE   N24  Dn3
 BYTE   W24
 BYTE   Cs3
 BYTE   W24
 BYTE   Bn2
 BYTE   W24
//  #13 //015   ----------------------------------------
 BYTE   En3
 BYTE   W24
 BYTE   N72  An2
 BYTE   W24
 BYTE   W24
 BYTE   W24
//  #13 //016   ----------------------------------------
Label_0105F98E:
 BYTE   N12  En2  v096
 BYTE   W12
 BYTE   Bn2
 BYTE   W12
 BYTE   PEND 
 BYTE   N36  An2
 BYTE   W24
 BYTE   W12
 BYTE   N12  En2
 BYTE   W12
 BYTE   N48  An1
 BYTE   W24
//  #13 //017   ----------------------------------------
Label_0105F99F:
 BYTE   W03
 BYTE   W03
 BYTE   W03
 BYTE   W03
 BYTE   W03
 BYTE   W03
 BYTE   W03
 BYTE   W03
 BYTE   PEND 
Label_0105F9A8:
 BYTE   W03
 BYTE   W03
 BYTE   W06
 BYTE   N12  Gn2  v096
 BYTE   W12
 BYTE   PEND 
Label_0105F9B0:
 BYTE   N12  Fs2  v096
 BYTE   W12
 BYTE   Bn2
 BYTE   W12
 BYTE   PEND 
Label_0105F9B7:
 BYTE   N12  As2  v096
 BYTE   W12
 BYTE   Gn2
 BYTE   W12
 BYTE   PEND 
//  #13 //018   ----------------------------------------
Label_0105F9BE:
 BYTE   N12  Fs2  v096
 BYTE   W12
 BYTE   As1
 BYTE   W12
 BYTE   PEND 
 BYTE   W12
 BYTE   Bn1
 BYTE   W12
Label_0105F9C8:
 BYTE   N12  Cs2  v096
 BYTE   W12
 BYTE   Dn2
 BYTE   W12
 BYTE   PEND 
 BYTE   N24  Fs2
 BYTE   W24
//  #13 //019   ----------------------------------------
 BYTE   Cs3
 BYTE   W24
 BYTE   N36  Bn2
 BYTE   W24
 BYTE   W12
 BYTE   N12  An2
 BYTE   W12
Label_0105F9DB:
 BYTE   N12  Gs2  v096
 BYTE   W12
 BYTE   Fs2
 BYTE   W12
 BYTE   PEND 
//  #13 //020   ----------------------------------------
Label_0105F9E2:
 BYTE   N12  Fn2  v096
 BYTE   W12
 BYTE   Cs2
 BYTE   W12
 BYTE   PEND 
 BYTE   W12
 BYTE   Fs2
 BYTE   W12
Label_0105F9EC:
 BYTE   N12  Gs2  v096
 BYTE   W12
 BYTE   An2
 BYTE   W12
 BYTE   PEND 
Label_0105F9F3:
 BYTE   N12  Gs2  v096
 BYTE   W12
 BYTE   En2
 BYTE   W12
 BYTE   PEND 
//  #13 //021   ----------------------------------------
Label_0105F9FA:
 BYTE   N12  Cs2  v096
 BYTE   W12
 BYTE   An1
 BYTE   W12
 BYTE   PEND 
 BYTE   W12
 BYTE   Ds2
 BYTE   W12
Label_0105FA04:
 BYTE   N12  Fs2  v096
 BYTE   W12
 BYTE   Cs3
 BYTE   W12
 BYTE   PEND 
Label_0105FA0B:
 BYTE   N12  Cn3  v096
 BYTE   W12
 BYTE   An2
 BYTE   W12
 BYTE   PEND 
//  #13 //022   ----------------------------------------
 BYTE   PATT
  POIN2 Label_0105F9DB
//  #13 //023   ----------------------------------------
Label_0105FA17:
 BYTE   N12  En2  v096
 BYTE   W12
 BYTE   Gs2
 BYTE   W12
 BYTE   PEND 
Label_0105FA1E:
 BYTE   N12  Ds2  v096
 BYTE   W12
 BYTE   Gs2
 BYTE   W12
 BYTE   PEND 
 BYTE   N24  Cs2
 BYTE   W24
 BYTE   Ds2
 BYTE   W24
//  #13 //024   ----------------------------------------
Label_0105FA2A:
 BYTE   N12  En2  v096
 BYTE   W12
 BYTE   Bn1
 BYTE   W12
 BYTE   PEND 
//  #13 //025   ----------------------------------------
 BYTE   PATT
  POIN2 Label_0105F9F3
//  #13 //026   ----------------------------------------
 BYTE   N36  Cs3  v096
 BYTE   W24
 BYTE   W12
 BYTE   N12  Bn2
 BYTE   W12
 BYTE   N48
 BYTE   W24
 BYTE   W24
//  #13 //027   ----------------------------------------
 BYTE   As2
 BYTE   W24
 BYTE   W24
 BYTE   N60  An2
 BYTE   W24
 BYTE   W24
//  #13 //028   ----------------------------------------
 BYTE   W12
 BYTE   N12  Gs2
 BYTE   W12
Label_0105FA4C:
 BYTE   N12  Fs2  v096
 BYTE   W12
 BYTE   Cs2
 BYTE   W12
 BYTE   PEND 
 BYTE   N24  En2
 BYTE   W24
 BYTE   Ds2
 BYTE   W24
//  #13 //029   ----------------------------------------
 BYTE   En2
 BYTE   W24
 BYTE   Fs2
 BYTE   W24
 BYTE   N96  En2
 BYTE   W24
Label_0105FA5F:
 BYTE   W03
 BYTE   W03
 BYTE   W03
 BYTE   W03
 BYTE   W03
 BYTE   W03
 BYTE   W03
 BYTE   W03
 BYTE   PEND 
//  #13 //030   ----------------------------------------
Label_0105FA68:
 BYTE   W03
 BYTE   W03
 BYTE   W03
 BYTE   W03
 BYTE   W03
 BYTE   W03
 BYTE   W03
 BYTE   W03
 BYTE   PEND 
Label_0105FA71:
 BYTE   W03
 BYTE   W03
 BYTE   W03
 BYTE   W03
 BYTE   W03
 BYTE   W03
 BYTE   W03
 BYTE   W03
 BYTE   PEND 
 BYTE   W24
 BYTE   W24
//  #13 //031   ----------------------------------------
 BYTE   W24
 BYTE   W24
 BYTE   W24
 BYTE   W24
//  #13 //032   ----------------------------------------
 BYTE   W24
 BYTE   W24
 BYTE   W24
 BYTE   W24
//  #13 //033   ----------------------------------------
 BYTE   W24
 BYTE   W24
 BYTE   W24
 BYTE   W24
//  #13 //034   ----------------------------------------
 BYTE   W24
 BYTE   W24
 BYTE   W24
 BYTE   W24
//  #13 //035   ----------------------------------------
 BYTE   W24
 BYTE   W24
 BYTE   W12
 BYTE   N12  Ds3  v096
 BYTE   W12
Label_0105FA93:
 BYTE   N12  Cs3  v096
 BYTE   W12
 BYTE   Ds3
 BYTE   W12
 BYTE   PEND 
//  #13 //036   ----------------------------------------
 BYTE   N48  En3
 BYTE   W24
 BYTE   W24
 BYTE   W12
 BYTE   N12  Cs3
 BYTE   W12
Label_0105FAA2:
 BYTE   N12  Bn2  v096
 BYTE   W12
 BYTE   Cs3
 BYTE   W12
 BYTE   PEND 
//  #13 //037   ----------------------------------------
 BYTE   N36  En3
 BYTE   W24
 BYTE   W12
 BYTE   N12  Gs3
 BYTE   W12
 BYTE   N24  En3
 BYTE   W24
 BYTE   Cs3
 BYTE   W24
//  #13 //038   ----------------------------------------
 BYTE   Bn2
 BYTE   W24
 BYTE   An2
 BYTE   W24
 BYTE   Gs2
 BYTE   W24
 BYTE   Fs2
 BYTE   W24
//  #13 //039   ----------------------------------------
 BYTE   En2
 BYTE   W24
 BYTE   Fs2
 BYTE   W24
 BYTE   TIE  Gn2
 BYTE   W24
 BYTE   W24
//  #13 //040   ----------------------------------------
 BYTE   W24
 BYTE   W24
Label_0105FAC7:
 BYTE   W03
 BYTE   W03
 BYTE   W03
 BYTE   W03
 BYTE   W03
 BYTE   W03
 BYTE   W03
 BYTE   W03
 BYTE   PEND 
Label_0105FAD0:
 BYTE   W03
 BYTE   W03
 BYTE   W03
 BYTE   W03
 BYTE   W03
 BYTE   W03
 BYTE   W03
 BYTE   W03
 BYTE   PEND 
//  #13 //041   ----------------------------------------
Label_0105FAD9:
 BYTE   W03
 BYTE   W03
 BYTE   W03
 BYTE   W03
 BYTE   W03
 BYTE   W03
 BYTE   W03
 BYTE   W03
 BYTE   PEND 
Label_0105FAE2:
 BYTE   W03
 BYTE   W03
 BYTE   W03
 BYTE   W03
 BYTE   W03
 BYTE   W03
 BYTE   W03
 BYTE   W03
 BYTE   PEND 
 BYTE   EOT
 BYTE   Gn2
 BYTE   W04
 BYTE   W20
 BYTE   W24
//  #13 //042   ----------------------------------------
 BYTE   W24
 BYTE   W24
 BYTE   W24
 BYTE   W24
//  #13 //043   ----------------------------------------
 BYTE   GoTo
  POIN2 Label_0105F8E5
//  #13 //044   ----------------------------------------
 BYTE   W24
//  #13 //045   ----------------------------------------
 BYTE   PATT
  POIN2 Label_0105F8E5
//  #13 //046   ----------------------------------------
 BYTE   W24
 BYTE   W24
 BYTE   W24
 BYTE   W24
//  #13 //047   ----------------------------------------
 BYTE   W24
 BYTE   W24
 BYTE   W24
 BYTE   W24
//  #13 //048   ----------------------------------------
 BYTE   W24
 BYTE   W24
 BYTE   W24
 BYTE   W24
//  #13 //049   ----------------------------------------
 BYTE   W24
 BYTE   W24
 BYTE   W24
 BYTE   W24
//  #13 //050   ----------------------------------------
 BYTE   W24
 BYTE   W24
 BYTE   W24
 BYTE   W24
//  #13 //051   ----------------------------------------
 BYTE   W24
 BYTE   W24
 BYTE   W24
 BYTE   W24
//  #13 //052   ----------------------------------------
 BYTE   W24
 BYTE   W24
 BYTE   W24
//  #13 //053   ----------------------------------------
 BYTE   PATT
  POIN2 Label_0105F909
//  #13 //054   ----------------------------------------
 BYTE   PATT
  POIN2 Label_0105F90D
//  #13 //055   ----------------------------------------
 BYTE   PATT
  POIN2 Label_0105F918
//  #13 //056   ----------------------------------------
 BYTE   PATT
  POIN2 Label_0105F921
//  #13 //057   ----------------------------------------
 BYTE   PATT
  POIN2 Label_0105F92A
//  #13 //058   ----------------------------------------
 BYTE   PATT
  POIN2 Label_0105F933
//  #13 //059   ----------------------------------------
 BYTE   W24
 BYTE   W12
 BYTE   N12  En2  v096
 BYTE   W12
//  #13 //060   ----------------------------------------
 BYTE   PATT
  POIN2 Label_0105F93E
//  #13 //061   ----------------------------------------
 BYTE   N60  Gs2  v096
 BYTE   W24
 BYTE   W24
 BYTE   W12
 BYTE   N12  En2
 BYTE   W12
//  #13 //062   ----------------------------------------
 BYTE   PATT
  POIN2 Label_0105F94D
//  #13 //063   ----------------------------------------
 BYTE   N36  Cs2  v096
 BYTE   W24
 BYTE   W12
 BYTE   N12  Fs2
 BYTE   W12
 BYTE   N36  Cs3
 BYTE   W24
 BYTE   W12
 BYTE   N12  An2
 BYTE   W12
//  #13 //064   ----------------------------------------
 BYTE   N60  Gs2
 BYTE   W24
 BYTE   W24
 BYTE   W12
 BYTE   N12  En2
 BYTE   W12
//  #13 //065   ----------------------------------------
 BYTE   PATT
  POIN2 Label_0105F96A
//  #13 //066   ----------------------------------------
 BYTE   N60  Fs2  v096
 BYTE   W24
 BYTE   W24
 BYTE   W12
 BYTE   N12  Gs2
 BYTE   W12
//  #13 //067   ----------------------------------------
 BYTE   PATT
  POIN2 Label_0105F979
//  #13 //068   ----------------------------------------
 BYTE   N24  Dn3  v096
 BYTE   W24
 BYTE   Cs3
 BYTE   W24
 BYTE   Bn2
 BYTE   W24
 BYTE   En3
 BYTE   W24
//  #13 //069   ----------------------------------------
 BYTE   N72  An2
 BYTE   W24
 BYTE   W24
 BYTE   W24
//  #13 //070   ----------------------------------------
 BYTE   PATT
  POIN2 Label_0105F98E
//  #13 //071   ----------------------------------------
 BYTE   N36  An2  v096
 BYTE   W24
 BYTE   W12
 BYTE   N12  En2
 BYTE   W12
 BYTE   N48  An1
 BYTE   W24
//  #13 //072   ----------------------------------------
 BYTE   PATT
  POIN2 Label_0105F99F
//  #13 //073   ----------------------------------------
 BYTE   PATT
  POIN2 Label_0105F9A8
//  #13 //074   ----------------------------------------
 BYTE   PATT
  POIN2 Label_0105F9B0
//  #13 //075   ----------------------------------------
 BYTE   PATT
  POIN2 Label_0105F9B7
//  #13 //076   ----------------------------------------
 BYTE   PATT
  POIN2 Label_0105F9BE
//  #13 //077   ----------------------------------------
 BYTE   W12
 BYTE   N12  Bn1  v096
 BYTE   W12
//  #13 //078   ----------------------------------------
 BYTE   PATT
  POIN2 Label_0105F9C8
//  #13 //079   ----------------------------------------
 BYTE   N24  Fs2  v096
 BYTE   W24
 BYTE   Cs3
 BYTE   W24
 BYTE   N36  Bn2
 BYTE   W24
 BYTE   W12
 BYTE   N12  An2
 BYTE   W12
//  #13 //080   ----------------------------------------
 BYTE   PATT
  POIN2 Label_0105F9DB
//  #13 //081   ----------------------------------------
 BYTE   PATT
  POIN2 Label_0105F9E2
//  #13 //082   ----------------------------------------
 BYTE   W12
 BYTE   N12  Fs2  v096
 BYTE   W12
//  #13 //083   ----------------------------------------
 BYTE   PATT
  POIN2 Label_0105F9EC
//  #13 //084   ----------------------------------------
 BYTE   PATT
  POIN2 Label_0105F9F3
//  #13 //085   ----------------------------------------
 BYTE   PATT
  POIN2 Label_0105F9FA
//  #13 //086   ----------------------------------------
 BYTE   W12
 BYTE   N12  Ds2  v096
 BYTE   W12
//  #13 //087   ----------------------------------------
 BYTE   PATT
  POIN2 Label_0105FA04
//  #13 //088   ----------------------------------------
 BYTE   PATT
  POIN2 Label_0105FA0B
//  #13 //089   ----------------------------------------
 BYTE   PATT
  POIN2 Label_0105F9DB
//  #13 //090   ----------------------------------------
 BYTE   PATT
  POIN2 Label_0105FA17
//  #13 //091   ----------------------------------------
 BYTE   PATT
  POIN2 Label_0105FA1E
//  #13 //092   ----------------------------------------
 BYTE   N24  Cs2  v096
 BYTE   W24
 BYTE   Ds2
 BYTE   W24
//  #13 //093   ----------------------------------------
 BYTE   PATT
  POIN2 Label_0105FA2A
//  #13 //094   ----------------------------------------
 BYTE   PATT
  POIN2 Label_0105F9F3
//  #13 //095   ----------------------------------------
 BYTE   N36  Cs3  v096
 BYTE   W24
 BYTE   W12
 BYTE   N12  Bn2
 BYTE   W12
 BYTE   N48
 BYTE   W24
 BYTE   W24
//  #13 //096   ----------------------------------------
 BYTE   As2
 BYTE   W24
 BYTE   W24
 BYTE   N60  An2
 BYTE   W24
 BYTE   W24
//  #13 //097   ----------------------------------------
 BYTE   W12
 BYTE   N12  Gs2
 BYTE   W12
//  #13 //098   ----------------------------------------
 BYTE   PATT
  POIN2 Label_0105FA4C
//  #13 //099   ----------------------------------------
 BYTE   N24  En2  v096
 BYTE   W24
 BYTE   Ds2
 BYTE   W24
 BYTE   En2
 BYTE   W24
 BYTE   Fs2
 BYTE   W24
//  #13 //100   ----------------------------------------
 BYTE   N96  En2
 BYTE   W24
//  #13 //101   ----------------------------------------
 BYTE   PATT
  POIN2 Label_0105FA5F
//  #13 //102   ----------------------------------------
 BYTE   PATT
  POIN2 Label_0105FA68
//  #13 //103   ----------------------------------------
 BYTE   PATT
  POIN2 Label_0105FA71
//  #13 //104   ----------------------------------------
 BYTE   W24
 BYTE   W24
 BYTE   W24
 BYTE   W24
//  #13 //105   ----------------------------------------
 BYTE   W24
 BYTE   W24
 BYTE   W24
 BYTE   W24
//  #13 //106   ----------------------------------------
 BYTE   W24
 BYTE   W24
 BYTE   W24
 BYTE   W24
//  #13 //107   ----------------------------------------
 BYTE   W24
 BYTE   W24
 BYTE   W24
 BYTE   W24
//  #13 //108   ----------------------------------------
 BYTE   W24
 BYTE   W24
 BYTE   W24
 BYTE   W24
//  #13 //109   ----------------------------------------
 BYTE   W12
 BYTE   N12  Ds3  v096
 BYTE   W12
//  #13 //110   ----------------------------------------
 BYTE   PATT
  POIN2 Label_0105FA93
//  #13 //111   ----------------------------------------
 BYTE   N48  En3  v096
 BYTE   W24
 BYTE   W24
 BYTE   W12
 BYTE   N12  Cs3
 BYTE   W12
//  #13 //112   ----------------------------------------
 BYTE   PATT
  POIN2 Label_0105FAA2
//  #13 //113   ----------------------------------------
 BYTE   N36  En3  v096
 BYTE   W24
 BYTE   W12
 BYTE   N12  Gs3
 BYTE   W12
 BYTE   N24  En3
 BYTE   W24
 BYTE   Cs3
 BYTE   W24
//  #13 //114   ----------------------------------------
 BYTE   Bn2
 BYTE   W24
 BYTE   An2
 BYTE   W24
 BYTE   Gs2
 BYTE   W24
 BYTE   Fs2
 BYTE   W24
//  #13 //115   ----------------------------------------
 BYTE   En2
 BYTE   W24
 BYTE   Fs2
 BYTE   W24
 BYTE   TIE  Gn2
 BYTE   W24
 BYTE   W24
//  #13 //116   ----------------------------------------
 BYTE   W24
 BYTE   W24
//  #13 //117   ----------------------------------------
 BYTE   PATT
  POIN2 Label_0105FAC7
//  #13 //118   ----------------------------------------
 BYTE   PATT
  POIN2 Label_0105FAD0
//  #13 //119   ----------------------------------------
 BYTE   PATT
  POIN2 Label_0105FAD9
//  #13 //120   ----------------------------------------
 BYTE   PATT
  POIN2 Label_0105FAE2
//  #13 //121   ----------------------------------------
 BYTE   EOT
 BYTE   Gn2
 BYTE   W04
 BYTE   W20
 BYTE   W24
 BYTE   W24
 BYTE   W24
//  #13 //122   ----------------------------------------
 BYTE   W24
 BYTE   W24
 BYTE   W24
 BYTE   W24
//  #13 //123   ----------------------------------------
 BYTE   W24
 BYTE   W24
 BYTE   W24
 BYTE   FINE

//**************** Track 14 (Midi-Chn.13) ****************//

PokemonMDExplorersDefendGlobePsyche_014:
//  #14 //000   ----------------------------------------
 BYTE   KEYSH   PokemonMDExplorersDefendGlobePsyche_key+0
 BYTE   VOICE   24
 BYTE   PAN   c_v+0
 BYTE   VOL   49*PokemonMDExplorersDefendGlobePsyche_mvl/mxv
 BYTE   BEND   c_v+0
 BYTE   N96  En2  v127
 BYTE   N06  Fs3  v112
 BYTE   W01
 BYTE   Dn4
 BYTE   W05
 BYTE   Fs3  v048
 BYTE   W01
 BYTE   Dn4  v064
 BYTE   W05
 BYTE   En3  v112
 BYTE   W01
 BYTE   Cs4
 BYTE   W05
 BYTE   En3  v064
 BYTE   W01
 BYTE   Cs4
 BYTE   W05
 BYTE   Dn3  v112
 BYTE   W01
 BYTE   Bn3
 BYTE   W05
 BYTE   Dn3  v048
 BYTE   W01
 BYTE   Bn3  v064
 BYTE   W05
 BYTE   Cs3  v127
 BYTE   W01
 BYTE   An3
 BYTE   W05
 BYTE   Cs3  v048
 BYTE   W01
 BYTE   An3
 BYTE   W05
 BYTE   N48  Bn2  v112
 BYTE   W01
 BYTE   N44  Gs3
 BYTE   W23
 BYTE   W24
//  #14 //001   ----------------------------------------
Label_0105FCFC:
 BYTE   N96  An2  v127
 BYTE   W01
 BYTE   N92  Cs3
 BYTE   W02
 BYTE   En3
 BYTE   W21
 BYTE   W24
 BYTE   W24
 BYTE   W24
//  #14 //002   ----------------------------------------
Label_0105FD08:
 BYTE   N96  Gs2  v127
 BYTE   W01
 BYTE   N92  Bn2
 BYTE   W02
 BYTE   En3
 BYTE   W21
 BYTE   PEND 
 BYTE   W24
 BYTE   W24
 BYTE   W24
//  #14 //003   ----------------------------------------
Label_0105FD15:
 BYTE   N96  Fs2  v127
 BYTE   W01
 BYTE   N92  An2
 BYTE   W02
 BYTE   Cs3
 BYTE   W21
 BYTE   PEND 
 BYTE   W24
 BYTE   W24
 BYTE   W24
//  #14 //004   ----------------------------------------
Label_0105FD22:
 BYTE   N96  Cs2  v127
 BYTE   W01
 BYTE   N92  Bn2
 BYTE   W02
 BYTE   En3
 BYTE   W21
 BYTE   PEND 
 BYTE   W24
 BYTE   W24
 BYTE   W24
//  #14 //005   ----------------------------------------
Label_0105FD2F:
 BYTE   N96  Bn1  v127
 BYTE   W01
 BYTE   N92  An2
 BYTE   W02
 BYTE   Dn3
 BYTE   W21
 BYTE   PEND 
 BYTE   W24
 BYTE   W24
 BYTE   W24
//  #14 //006   ----------------------------------------
Label_0105FD3C:
 BYTE   N96  Ds2  v127
 BYTE   W01
 BYTE   N92  An2
 BYTE   W02
 BYTE   Ds3
 BYTE   W21
 BYTE   PEND 
 BYTE   W24
 BYTE   W24
 BYTE   W24
//  #14 //007   ----------------------------------------
Label_0105FD49:
 BYTE   N48  En2  v127
 BYTE   W12
 BYTE   N36  An2
 BYTE   W12
 BYTE   PEND 
Label_0105FD51:
 BYTE   N24  Dn3  v127
 BYTE   W12
 BYTE   N12  Fs3
 BYTE   W12
 BYTE   PEND 
Label_0105FD59:
 BYTE   N48  En2  v127
 BYTE   W01
 BYTE   N22  An2
 BYTE   W02
 BYTE   N21  Fs3
 BYTE   W21
 BYTE   PEND 
Label_0105FD64:
 BYTE   W01
 BYTE   N22  Gs2  v127
 BYTE   W02
 BYTE   N21  En3
 BYTE   W21
 BYTE   PEND 
//  #14 //008   ----------------------------------------
Label_0105FD6D:
 BYTE   N48  En2  v127
 BYTE   W12
 BYTE   N36  Fs2
 BYTE   W12
 BYTE   PEND 
Label_0105FD75:
 BYTE   N24  An2  v127
 BYTE   W12
 BYTE   N12  Dn3
 BYTE   W12
 BYTE   PEND 
Label_0105FD7D:
 BYTE   N48  En2  v127
 BYTE   W01
 BYTE   N22  Fs2
 BYTE   W02
 BYTE   N21  Dn3
 BYTE   W21
 BYTE   PEND 
//  #14 //009   ----------------------------------------
 BYTE   PATT
  POIN2 Label_0105FD64
//  #14 //010   ----------------------------------------
Label_0105FD8D:
 BYTE   N96  An2  v127
 BYTE   W01
 BYTE   N92  Cs3
 BYTE   W02
 BYTE   En3
 BYTE   W21
 BYTE   PEND 
 BYTE   W24
 BYTE   W24
 BYTE   W24
//  #14 //011   ----------------------------------------
 BYTE   PATT
  POIN2 Label_0105FD08
//  #14 //012   ----------------------------------------
 BYTE   W24
 BYTE   W24
 BYTE   W24
//  #14 //013   ----------------------------------------
 BYTE   PATT
  POIN2 Label_0105FD15
//  #14 //014   ----------------------------------------
 BYTE   W24
 BYTE   W24
 BYTE   W24
//  #14 //015   ----------------------------------------
 BYTE   PATT
  POIN2 Label_0105FD22
//  #14 //016   ----------------------------------------
 BYTE   W24
 BYTE   W24
 BYTE   W24
//  #14 //017   ----------------------------------------
 BYTE   PATT
  POIN2 Label_0105FD2F
//  #14 //018   ----------------------------------------
 BYTE   W24
 BYTE   W24
 BYTE   W24
Label_0105FDBA:
 BYTE   N48  En2  v127
 BYTE   W01
 BYTE   N44  Fs2
 BYTE   W02
 BYTE   Dn3
 BYTE   W21
 BYTE   PEND 
//  #14 //019   ----------------------------------------
 BYTE   W24
Label_0105FDC5:
 BYTE   N48  En2  v127
 BYTE   N24  Gs2
 BYTE   N24  En3
 BYTE   W24
 BYTE   PEND 
 BYTE   Fs2
 BYTE   N24  Dn3
 BYTE   W24
Label_0105FDD2:
 BYTE   N48  An1  v127
 BYTE   W01
 BYTE   N44  En2
 BYTE   W02
 BYTE   Cs3
 BYTE   W21
 BYTE   PEND 
//  #14 //020   ----------------------------------------
 BYTE   W24
Label_0105FDDD:
 BYTE   N48  An1  v127
 BYTE   W01
 BYTE   N32  Fs2
 BYTE   W02
 BYTE   Dn3
 BYTE   W21
 BYTE   PEND 
Label_0105FDE7:
 BYTE   W12
 BYTE   N12  Gs2  v127
 BYTE   N12  En3
 BYTE   W12
 BYTE   PEND 
Label_0105FDEF:
 BYTE   N96  An1  v127
 BYTE   W01
 BYTE   N92  En2
 BYTE   W02
 BYTE   Cs3
 BYTE   W21
 BYTE   PEND 
//  #14 //021   ----------------------------------------
 BYTE   W24
 BYTE   W24
 BYTE   W24
Label_0105FDFC:
 BYTE   N48  Gn2  v127
 BYTE   W01
 BYTE   N44  Bn2
 BYTE   W02
 BYTE   Cs3
 BYTE   W01
 BYTE   N42  En3
 BYTE   W20
 BYTE   PEND 
//  #14 //022   ----------------------------------------
 BYTE   W24
Label_0105FE0A:
 BYTE   N48  Fs2  v127
 BYTE   W01
 BYTE   N44  As2
 BYTE   W02
 BYTE   Cs3
 BYTE   W01
 BYTE   N42  En3
 BYTE   W20
 BYTE   PEND 
 BYTE   W24
Label_0105FE18:
 BYTE   N48  Bn1  v127
 BYTE   N12  Fs2
 BYTE   W01
 BYTE   N10  An2
 BYTE   W02
 BYTE   N09  Cs3
 BYTE   W09
 BYTE   N36  Fs2
 BYTE   N36  An2
 BYTE   N36  Dn3
 BYTE   W12
 BYTE   PEND 
//  #14 //023   ----------------------------------------
 BYTE   W24
Label_0105FE2D:
 BYTE   N48  An1  v127
 BYTE   W01
 BYTE   N44  Fs2
 BYTE   W02
 BYTE   An2
 BYTE   W01
 BYTE   N42  Dn3
 BYTE   W20
 BYTE   PEND 
 BYTE   W24
Label_0105FE3B:
 BYTE   N48  Gs1  v127
 BYTE   W01
 BYTE   N44  Fs2
 BYTE   W02
 BYTE   Bn2
 BYTE   W01
 BYTE   N42  Dn3
 BYTE   W20
 BYTE   PEND 
//  #14 //024   ----------------------------------------
 BYTE   W24
Label_0105FE49:
 BYTE   N48  Cs2  v127
 BYTE   W01
 BYTE   N44  Gs2
 BYTE   W02
 BYTE   Bn2
 BYTE   W01
 BYTE   N42  Fn3
 BYTE   W20
 BYTE   PEND 
 BYTE   W24
Label_0105FE57:
 BYTE   N48  Fs2  v127
 BYTE   W01
 BYTE   N44  An2
 BYTE   W02
 BYTE   Cs3
 BYTE   W21
 BYTE   PEND 
//  #14 //025   ----------------------------------------
 BYTE   W24
Label_0105FE62:
 BYTE   N48  En2  v127
 BYTE   W01
 BYTE   N44  An2
 BYTE   W02
 BYTE   Cs3
 BYTE   W21
 BYTE   PEND 
 BYTE   W24
Label_0105FE6D:
 BYTE   N48  Ds2  v127
 BYTE   W01
 BYTE   N44  Fs2
 BYTE   W02
 BYTE   Cs3
 BYTE   W21
 BYTE   PEND 
//  #14 //026   ----------------------------------------
 BYTE   W24
Label_0105FE78:
 BYTE   N48  Gs1  v127
 BYTE   W01
 BYTE   N44  Fs2
 BYTE   W02
 BYTE   Cn3
 BYTE   W21
 BYTE   PEND 
 BYTE   W24
Label_0105FE83:
 BYTE   N24  Cs2  v127
 BYTE   N24  Gs2
 BYTE   W01
 BYTE   N22  En3
 BYTE   W23
 BYTE   PEND 
//  #14 //027   ----------------------------------------
Label_0105FE8D:
 BYTE   N24  Bn1  v127
 BYTE   N24  Gs2
 BYTE   W01
 BYTE   N22  Ds3
 BYTE   W23
 BYTE   PEND 
Label_0105FE97:
 BYTE   N24  An1  v127
 BYTE   N24  Gs2
 BYTE   W01
 BYTE   N22  Cs3
 BYTE   W23
 BYTE   PEND 
Label_0105FEA1:
 BYTE   N24  An1  v127
 BYTE   N24  Bn2
 BYTE   W01
 BYTE   N22  Ds3
 BYTE   W23
 BYTE   PEND 
Label_0105FEAB:
 BYTE   N48  Gs1  v127
 BYTE   N48  Gs2
 BYTE   W01
 BYTE   N44  Bn2
 BYTE   W02
 BYTE   En3
 BYTE   W21
 BYTE   PEND 
//  #14 //028   ----------------------------------------
 BYTE   W24
Label_0105FEB8:
 BYTE   N48  Cs2  v127
 BYTE   N48  Bn2
 BYTE   W01
 BYTE   N44  En3
 BYTE   W02
 BYTE   Gs3
 BYTE   W21
 BYTE   PEND 
 BYTE   W24
Label_0105FEC5:
 BYTE   N48  Fs2  v127
 BYTE   W01
 BYTE   N44  Bn2
 BYTE   W02
 BYTE   Cs3
 BYTE   W21
 BYTE   PEND 
//  #14 //029   ----------------------------------------
 BYTE   W24
Label_0105FED0:
 BYTE   N48  Fs2  v127
 BYTE   W01
 BYTE   N44  As2
 BYTE   W02
 BYTE   Cs3
 BYTE   W21
 BYTE   PEND 
 BYTE   W24
Label_0105FEDB:
 BYTE   N48  Bn1  v127
 BYTE   W01
 BYTE   N44  Cs3
 BYTE   W02
 BYTE   En3
 BYTE   W21
 BYTE   PEND 
//  #14 //030   ----------------------------------------
 BYTE   W24
Label_0105FEE6:
 BYTE   N48  Bn1  v127
 BYTE   W01
 BYTE   N44  An2
 BYTE   W02
 BYTE   Ds3
 BYTE   W21
 BYTE   PEND 
 BYTE   W24
//  #14 //031   ----------------------------------------
 BYTE   PATT
  POIN2 Label_0105FEDB
//  #14 //032   ----------------------------------------
 BYTE   W24
Label_0105FEF7:
 BYTE   N48  Bn1  v127
 BYTE   W01
 BYTE   N44  Ds3
 BYTE   W02
 BYTE   Fs3
 BYTE   W21
 BYTE   PEND 
 BYTE   W24
 BYTE   W24
//  #14 //033   ----------------------------------------
 BYTE   W24
 BYTE   W24
 BYTE   W24
 BYTE   W24
//  #14 //034   ----------------------------------------
 BYTE   W24
 BYTE   W24
 BYTE   W24
 BYTE   W24
//  #14 //035   ----------------------------------------
 BYTE   W24
 BYTE   W24
 BYTE   W24
 BYTE   W24
//  #14 //036   ----------------------------------------
 BYTE   W24
 BYTE   W24
 BYTE   W24
 BYTE   W24
//  #14 //037   ----------------------------------------
 BYTE   W24
 BYTE   W24
 BYTE   W24
 BYTE   W24
//  #14 //038   ----------------------------------------
 BYTE   W24
 BYTE   W24
 BYTE   W24
Label_0105FF1A:
 BYTE   N48  Cs2  v127
 BYTE   N48  Gs2
 BYTE   N48  En3
 BYTE   W24
 BYTE   PEND 
//  #14 //039   ----------------------------------------
 BYTE   W24
Label_0105FF24:
 BYTE   N48  Bn1  v127
 BYTE   N48  Gs2
 BYTE   N48  Ds3
 BYTE   W24
 BYTE   PEND 
 BYTE   W24
Label_0105FF2E:
 BYTE   N48  An1  v127
 BYTE   N48  Gs2
 BYTE   N48  En3
 BYTE   W24
 BYTE   PEND 
//  #14 //040   ----------------------------------------
 BYTE   W24
Label_0105FF38:
 BYTE   N48  Gs1  v127
 BYTE   N48  Gs2
 BYTE   N48  En3
 BYTE   W24
 BYTE   PEND 
 BYTE   W24
Label_0105FF42:
 BYTE   N96  Fs1  v127
 BYTE   N96  En2
 BYTE   N96  Cs3
 BYTE   W24
 BYTE   PEND 
//  #14 //041   ----------------------------------------
 BYTE   W24
 BYTE   W24
 BYTE   W24
Label_0105FF4E:
 BYTE   N48  Bn1  v127
 BYTE   N48  An2
 BYTE   N48  En3
 BYTE   W24
 BYTE   PEND 
//  #14 //042   ----------------------------------------
 BYTE   W24
Label_0105FF58:
 BYTE   N48  Bn1  v127
 BYTE   N48  An2
 BYTE   N48  Ds3
 BYTE   W24
 BYTE   PEND 
 BYTE   W24
Label_0105FF62:
 BYTE   N96  Cn2  v127
 BYTE   N96  Gn2
 BYTE   N96  En3
 BYTE   W24
 BYTE   PEND 
//  #14 //043   ----------------------------------------
 BYTE   W24
 BYTE   W24
 BYTE   W24
Label_0105FF6E:
 BYTE   N96  Dn2  v127
 BYTE   N96  An2
 BYTE   N96  Fs3
 BYTE   W24
 BYTE   PEND 
//  #14 //044   ----------------------------------------
 BYTE   W24
 BYTE   W24
 BYTE   W24
//  #14 //045   ----------------------------------------
 BYTE   PATT
  POIN2 Label_0105FF62
//  #14 //046   ----------------------------------------
 BYTE   W24
 BYTE   W24
Label_0105FF81:
 BYTE   W03
 BYTE   W03
 BYTE   W03
 BYTE   W03
 BYTE   W03
 BYTE   W03
 BYTE   W03
 BYTE   W03
 BYTE   PEND 
 BYTE   W03
 BYTE   W21
//  #14 //047   ----------------------------------------
 BYTE   W24
 BYTE   W24
 BYTE   GoTo
  POIN2 Label_0105FCFC
//  #14 //048   ----------------------------------------
 BYTE   W24
 BYTE   N96  An2  v127
 BYTE   N03  En3
 BYTE   W01
 BYTE   N92  Cs3
 BYTE   W02
 BYTE   En3
 BYTE   W21
 BYTE   W24
 BYTE   W24
//  #14 //049   ----------------------------------------
 BYTE   W24
//  #14 //050   ----------------------------------------
 BYTE   PATT
  POIN2 Label_0105FD08
//  #14 //051   ----------------------------------------
 BYTE   W24
 BYTE   W24
 BYTE   W24
//  #14 //052   ----------------------------------------
 BYTE   PATT
  POIN2 Label_0105FD15
//  #14 //053   ----------------------------------------
 BYTE   W24
 BYTE   W24
 BYTE   W24
//  #14 //054   ----------------------------------------
 BYTE   PATT
  POIN2 Label_0105FD22
//  #14 //055   ----------------------------------------
 BYTE   W24
 BYTE   W24
 BYTE   W24
//  #14 //056   ----------------------------------------
 BYTE   PATT
  POIN2 Label_0105FD2F
//  #14 //057   ----------------------------------------
 BYTE   W24
 BYTE   W24
 BYTE   W24
//  #14 //058   ----------------------------------------
 BYTE   PATT
  POIN2 Label_0105FD3C
//  #14 //059   ----------------------------------------
 BYTE   W24
 BYTE   W24
 BYTE   W24
//  #14 //060   ----------------------------------------
 BYTE   PATT
  POIN2 Label_0105FD49
//  #14 //061   ----------------------------------------
 BYTE   PATT
  POIN2 Label_0105FD51
//  #14 //062   ----------------------------------------
 BYTE   PATT
  POIN2 Label_0105FD59
//  #14 //063   ----------------------------------------
 BYTE   PATT
  POIN2 Label_0105FD64
//  #14 //064   ----------------------------------------
 BYTE   PATT
  POIN2 Label_0105FD6D
//  #14 //065   ----------------------------------------
 BYTE   PATT
  POIN2 Label_0105FD75
//  #14 //066   ----------------------------------------
 BYTE   PATT
  POIN2 Label_0105FD7D
//  #14 //067   ----------------------------------------
 BYTE   PATT
  POIN2 Label_0105FD64
//  #14 //068   ----------------------------------------
 BYTE   PATT
  POIN2 Label_0105FD8D
//  #14 //069   ----------------------------------------
 BYTE   W24
 BYTE   W24
 BYTE   W24
//  #14 //070   ----------------------------------------
 BYTE   PATT
  POIN2 Label_0105FD08
//  #14 //071   ----------------------------------------
 BYTE   W24
 BYTE   W24
 BYTE   W24
//  #14 //072   ----------------------------------------
 BYTE   PATT
  POIN2 Label_0105FD15
//  #14 //073   ----------------------------------------
 BYTE   W24
 BYTE   W24
 BYTE   W24
//  #14 //074   ----------------------------------------
 BYTE   PATT
  POIN2 Label_0105FD22
//  #14 //075   ----------------------------------------
 BYTE   W24
 BYTE   W24
 BYTE   W24
//  #14 //076   ----------------------------------------
 BYTE   PATT
  POIN2 Label_0105FD2F
//  #14 //077   ----------------------------------------
 BYTE   W24
 BYTE   W24
 BYTE   W24
//  #14 //078   ----------------------------------------
 BYTE   PATT
  POIN2 Label_0105FDBA
//  #14 //079   ----------------------------------------
 BYTE   W24
//  #14 //080   ----------------------------------------
 BYTE   PATT
  POIN2 Label_0105FDC5
//  #14 //081   ----------------------------------------
 BYTE   N24  Fs2  v127
 BYTE   N24  Dn3
 BYTE   W24
//  #14 //082   ----------------------------------------
 BYTE   PATT
  POIN2 Label_0105FDD2
//  #14 //083   ----------------------------------------
 BYTE   W24
//  #14 //084   ----------------------------------------
 BYTE   PATT
  POIN2 Label_0105FDDD
//  #14 //085   ----------------------------------------
 BYTE   PATT
  POIN2 Label_0105FDE7
//  #14 //086   ----------------------------------------
 BYTE   PATT
  POIN2 Label_0105FDEF
//  #14 //087   ----------------------------------------
 BYTE   W24
 BYTE   W24
 BYTE   W24
//  #14 //088   ----------------------------------------
 BYTE   PATT
  POIN2 Label_0105FDFC
//  #14 //089   ----------------------------------------
 BYTE   W24
//  #14 //090   ----------------------------------------
 BYTE   PATT
  POIN2 Label_0105FE0A
//  #14 //091   ----------------------------------------
 BYTE   W24
//  #14 //092   ----------------------------------------
 BYTE   PATT
  POIN2 Label_0105FE18
//  #14 //093   ----------------------------------------
 BYTE   W24
//  #14 //094   ----------------------------------------
 BYTE   PATT
  POIN2 Label_0105FE2D
//  #14 //095   ----------------------------------------
 BYTE   W24
//  #14 //096   ----------------------------------------
 BYTE   PATT
  POIN2 Label_0105FE3B
//  #14 //097   ----------------------------------------
 BYTE   W24
//  #14 //098   ----------------------------------------
 BYTE   PATT
  POIN2 Label_0105FE49
//  #14 //099   ----------------------------------------
 BYTE   W24
//  #14 //100   ----------------------------------------
 BYTE   PATT
  POIN2 Label_0105FE57
//  #14 //101   ----------------------------------------
 BYTE   W24
//  #14 //102   ----------------------------------------
 BYTE   PATT
  POIN2 Label_0105FE62
//  #14 //103   ----------------------------------------
 BYTE   W24
//  #14 //104   ----------------------------------------
 BYTE   PATT
  POIN2 Label_0105FE6D
//  #14 //105   ----------------------------------------
 BYTE   W24
//  #14 //106   ----------------------------------------
 BYTE   PATT
  POIN2 Label_0105FE78
//  #14 //107   ----------------------------------------
 BYTE   W24
//  #14 //108   ----------------------------------------
 BYTE   PATT
  POIN2 Label_0105FE83
//  #14 //109   ----------------------------------------
 BYTE   PATT
  POIN2 Label_0105FE8D
//  #14 //110   ----------------------------------------
 BYTE   PATT
  POIN2 Label_0105FE97
//  #14 //111   ----------------------------------------
 BYTE   PATT
  POIN2 Label_0105FEA1
//  #14 //112   ----------------------------------------
 BYTE   PATT
  POIN2 Label_0105FEAB
//  #14 //113   ----------------------------------------
 BYTE   W24
//  #14 //114   ----------------------------------------
 BYTE   PATT
  POIN2 Label_0105FEB8
//  #14 //115   ----------------------------------------
 BYTE   W24
//  #14 //116   ----------------------------------------
 BYTE   PATT
  POIN2 Label_0105FEC5
//  #14 //117   ----------------------------------------
 BYTE   W24
//  #14 //118   ----------------------------------------
 BYTE   PATT
  POIN2 Label_0105FED0
//  #14 //119   ----------------------------------------
 BYTE   W24
//  #14 //120   ----------------------------------------
 BYTE   PATT
  POIN2 Label_0105FEDB
//  #14 //121   ----------------------------------------
 BYTE   W24
//  #14 //122   ----------------------------------------
 BYTE   PATT
  POIN2 Label_0105FEE6
//  #14 //123   ----------------------------------------
 BYTE   W24
//  #14 //124   ----------------------------------------
 BYTE   PATT
  POIN2 Label_0105FEDB
//  #14 //125   ----------------------------------------
 BYTE   W24
//  #14 //126   ----------------------------------------
 BYTE   PATT
  POIN2 Label_0105FEF7
//  #14 //127   ----------------------------------------
 BYTE   W24
 BYTE   W24
 BYTE   W24
 BYTE   W24
//  #14 //128   ----------------------------------------
 BYTE   W24
 BYTE   W24
 BYTE   W24
 BYTE   W24
//  #14 //129   ----------------------------------------
 BYTE   W24
 BYTE   W24
 BYTE   W24
 BYTE   W24
//  #14 //130   ----------------------------------------
 BYTE   W24
 BYTE   W24
 BYTE   W24
 BYTE   W24
//  #14 //131   ----------------------------------------
 BYTE   W24
 BYTE   W24
 BYTE   W24
 BYTE   W24
//  #14 //132   ----------------------------------------
 BYTE   W24
 BYTE   W24
 BYTE   W24
 BYTE   W24
//  #14 //133   ----------------------------------------
 BYTE   W24
//  #14 //134   ----------------------------------------
 BYTE   PATT
  POIN2 Label_0105FF1A
//  #14 //135   ----------------------------------------
 BYTE   W24
//  #14 //136   ----------------------------------------
 BYTE   PATT
  POIN2 Label_0105FF24
//  #14 //137   ----------------------------------------
 BYTE   W24
//  #14 //138   ----------------------------------------
 BYTE   PATT
  POIN2 Label_0105FF2E
//  #14 //139   ----------------------------------------
 BYTE   W24
//  #14 //140   ----------------------------------------
 BYTE   PATT
  POIN2 Label_0105FF38
//  #14 //141   ----------------------------------------
 BYTE   W24
//  #14 //142   ----------------------------------------
 BYTE   PATT
  POIN2 Label_0105FF42
//  #14 //143   ----------------------------------------
 BYTE   W24
 BYTE   W24
 BYTE   W24
//  #14 //144   ----------------------------------------
 BYTE   PATT
  POIN2 Label_0105FF4E
//  #14 //145   ----------------------------------------
 BYTE   W24
//  #14 //146   ----------------------------------------
 BYTE   PATT
  POIN2 Label_0105FF58
//  #14 //147   ----------------------------------------
 BYTE   W24
//  #14 //148   ----------------------------------------
 BYTE   PATT
  POIN2 Label_0105FF62
//  #14 //149   ----------------------------------------
 BYTE   W24
 BYTE   W24
 BYTE   W24
//  #14 //150   ----------------------------------------
 BYTE   PATT
  POIN2 Label_0105FF6E
//  #14 //151   ----------------------------------------
 BYTE   W24
 BYTE   W24
 BYTE   W24
//  #14 //152   ----------------------------------------
 BYTE   PATT
  POIN2 Label_0105FF62
//  #14 //153   ----------------------------------------
 BYTE   W24
 BYTE   W24
//  #14 //154   ----------------------------------------
 BYTE   PATT
  POIN2 Label_0105FF81
//  #14 //155   ----------------------------------------
 BYTE   W03
 BYTE   W21
 BYTE   W24
 BYTE   W24
 BYTE   W24
//  #14 //156   ----------------------------------------
 BYTE   N96  An2  v127
 BYTE   N96  En3
 BYTE   W24
 BYTE   W24
 BYTE   W24
 BYTE   W24
 BYTE   FINE

//**************** Track 15 (Midi-Chn.14) ****************//

PokemonMDExplorersDefendGlobePsyche_015:
//  #15 //000   ----------------------------------------
 BYTE   KEYSH   PokemonMDExplorersDefendGlobePsyche_key+0
 BYTE   VOICE   11
 BYTE   PAN   c_v+16
 BYTE   VOL   47*PokemonMDExplorersDefendGlobePsyche_mvl/mxv
 BYTE   BEND   c_v+0
 BYTE   W24
 BYTE   W24
 BYTE   W24
 BYTE   W24
//  #15 //001   ----------------------------------------
Label_01060142:
 BYTE   W24
 BYTE   W24
 BYTE   W24
 BYTE   W24
//  #15 //002   ----------------------------------------
 BYTE   W24
 BYTE   W24
 BYTE   W24
 BYTE   W24
//  #15 //003   ----------------------------------------
 BYTE   W24
 BYTE   W24
 BYTE   W24
 BYTE   W24
//  #15 //004   ----------------------------------------
 BYTE   W24
 BYTE   W24
 BYTE   W24
 BYTE   W24
//  #15 //005   ----------------------------------------
 BYTE   W24
 BYTE   W24
 BYTE   W24
 BYTE   W24
//  #15 //006   ----------------------------------------
 BYTE   W24
 BYTE   W24
 BYTE   W24
 BYTE   W24
//  #15 //007   ----------------------------------------
 BYTE   W24
 BYTE   W24
 BYTE   W24
 BYTE   W24
//  #15 //008   ----------------------------------------
 BYTE   W24
 BYTE   W24
 BYTE   W24
 BYTE   W24
//  #15 //009   ----------------------------------------
Label_01060162:
 BYTE   N06  Cs6  v064
 BYTE   W12
 BYTE   Dn6
 BYTE   W12
 BYTE   PEND 
Label_01060169:
 BYTE   N06  Cs6  v064
 BYTE   W12
 BYTE   En5
 BYTE   W12
 BYTE   PEND 
 BYTE   Cs6
 BYTE   W24
 BYTE   W24
//  #15 //010   ----------------------------------------
 BYTE   W12
 BYTE   En6
 BYTE   W12
Label_01060176:
 BYTE   N06  En6  v064
 BYTE   W12
 BYTE   Dn6
 BYTE   W12
 BYTE   PEND 
Label_0106017D:
 BYTE   N06  Dn6  v064
 BYTE   W12
 BYTE   Cs6
 BYTE   W12
 BYTE   PEND 
Label_01060184:
 BYTE   N06  Bn5  v064
 BYTE   W12
 BYTE   An5
 BYTE   W12
 BYTE   PEND 
//  #15 //011   ----------------------------------------
Label_0106018B:
 BYTE   N06  Gs5  v064
 BYTE   W12
 BYTE   An5
 BYTE   W12
 BYTE   PEND 
Label_01060192:
 BYTE   N06  Gs5  v064
 BYTE   W12
 BYTE   Cs5
 BYTE   W12
 BYTE   PEND 
 BYTE   Gs5
 BYTE   W24
 BYTE   W24
//  #15 //012   ----------------------------------------
 BYTE   W12
 BYTE   Cs6
 BYTE   W12
Label_0106019F:
 BYTE   N06  Cs6  v064
 BYTE   W12
 BYTE   Bn5
 BYTE   W12
 BYTE   PEND 
//  #15 //013   ----------------------------------------
 BYTE   PATT
  POIN2 Label_01060184
//  #15 //014   ----------------------------------------
Label_010601AB:
 BYTE   N06  Gs5  v064
 BYTE   W12
 BYTE   En5
 BYTE   W12
 BYTE   PEND 
 BYTE   Fs5
 BYTE   W24
 BYTE   Cs6
 BYTE   W24
 BYTE   Bn5
 BYTE   W24
//  #15 //015   ----------------------------------------
 BYTE   An5
 BYTE   W24
 BYTE   Fs5
 BYTE   W24
 BYTE   Cs6
 BYTE   W24
 BYTE   Bn5
 BYTE   W24
//  #15 //016   ----------------------------------------
 BYTE   An5
 BYTE   W24
 BYTE   N06
 BYTE   W24
 BYTE   W24
 BYTE   W24
//  #15 //017   ----------------------------------------
 BYTE   W24
 BYTE   W24
 BYTE   W24
 BYTE   W24
//  #15 //018   ----------------------------------------
 BYTE   W24
 BYTE   W24
 BYTE   W24
 BYTE   W24
//  #15 //019   ----------------------------------------
 BYTE   W24
 BYTE   W24
 BYTE   W24
 BYTE   W24
//  #15 //020   ----------------------------------------
 BYTE   W24
 BYTE   W24
 BYTE   W24
 BYTE   W24
//  #15 //021   ----------------------------------------
 BYTE   W24
 BYTE   W24
 BYTE   W24
 BYTE   W24
//  #15 //022   ----------------------------------------
 BYTE   W24
 BYTE   W24
 BYTE   W24
 BYTE   W24
//  #15 //023   ----------------------------------------
 BYTE   W24
 BYTE   W24
 BYTE   W24
 BYTE   W24
//  #15 //024   ----------------------------------------
 BYTE   W24
 BYTE   W24
 BYTE   W24
 BYTE   W24
//  #15 //025   ----------------------------------------
 BYTE   W24
 BYTE   W24
 BYTE   W24
 BYTE   W24
//  #15 //026   ----------------------------------------
 BYTE   W24
 BYTE   W24
 BYTE   W24
 BYTE   W24
//  #15 //027   ----------------------------------------
 BYTE   W24
 BYTE   W24
 BYTE   W24
 BYTE   W24
//  #15 //028   ----------------------------------------
 BYTE   W24
 BYTE   W24
 BYTE   W24
 BYTE   W24
//  #15 //029   ----------------------------------------
 BYTE   W24
 BYTE   W24
 BYTE   W24
 BYTE   W24
//  #15 //030   ----------------------------------------
 BYTE   W24
 BYTE   W24
 BYTE   W24
 BYTE   W24
//  #15 //031   ----------------------------------------
 BYTE   W24
 BYTE   W24
 BYTE   W24
 BYTE   W24
//  #15 //032   ----------------------------------------
 BYTE   W24
 BYTE   W24
 BYTE   W24
 BYTE   W24
//  #15 //033   ----------------------------------------
 BYTE   W24
 BYTE   W24
 BYTE   W24
 BYTE   W24
//  #15 //034   ----------------------------------------
 BYTE   W24
 BYTE   W12
 BYTE   Fs5
 BYTE   W12
Label_0106020E:
 BYTE   N06  En5  v064
 BYTE   W12
 BYTE   Fs5
 BYTE   W12
 BYTE   PEND 
 BYTE   Gs5
 BYTE   W24
//  #15 //035   ----------------------------------------
 BYTE   W24
 BYTE   W12
 BYTE   An5
 BYTE   W12
//  #15 //036   ----------------------------------------
 BYTE   PATT
  POIN2 Label_0106018B
//  #15 //037   ----------------------------------------
 BYTE   N06  Bn5  v064
 BYTE   W24
 BYTE   W12
 BYTE   En6
 BYTE   W12
 BYTE   Bn5
 BYTE   W24
 BYTE   An5
 BYTE   W24
//  #15 //038   ----------------------------------------
 BYTE   Gs5
 BYTE   W24
 BYTE   Fs5
 BYTE   W24
 BYTE   En5
 BYTE   W24
 BYTE   Ds5
 BYTE   W24
//  #15 //039   ----------------------------------------
 BYTE   Cs5
 BYTE   W24
 BYTE   Ds5
 BYTE   W24
Label_01060237:
 BYTE   N06  En5  v064
 BYTE   W12
 BYTE   An4
 BYTE   W12
 BYTE   PEND 
Label_0106023E:
 BYTE   N06  Bn4  v064
 BYTE   W12
 BYTE   An4
 BYTE   W12
 BYTE   PEND 
//  #15 //040   ----------------------------------------
 BYTE   PATT
  POIN2 Label_01060237
//  #15 //041   ----------------------------------------
Label_0106024A:
 BYTE   N06  Dn5  v064
 BYTE   W12
 BYTE   An4
 BYTE   W12
 BYTE   PEND 
//  #15 //042   ----------------------------------------
 BYTE   PATT
  POIN2 Label_01060237
//  #15 //043   ----------------------------------------
 BYTE   PATT
  POIN2 Label_0106023E
//  #15 //044   ----------------------------------------
 BYTE   PATT
  POIN2 Label_01060237
//  #15 //045   ----------------------------------------
 BYTE   PATT
  POIN2 Label_0106024A
//  #15 //046   ----------------------------------------
 BYTE   PATT
  POIN2 Label_01060237
//  #15 //047   ----------------------------------------
 BYTE   PATT
  POIN2 Label_0106023E
//  #15 //048   ----------------------------------------
 BYTE   PATT
  POIN2 Label_01060237
//  #15 //049   ----------------------------------------
 BYTE   PATT
  POIN2 Label_0106024A
//  #15 //050   ----------------------------------------
 BYTE   W24
 BYTE   W24
 BYTE   W24
 BYTE   GoTo
  POIN2 Label_01060142
//  #15 //051   ----------------------------------------
 BYTE   W24
 BYTE   W24
 BYTE   W24
 BYTE   W24
//  #15 //052   ----------------------------------------
 BYTE   W24
 BYTE   W24
 BYTE   W24
 BYTE   W24
//  #15 //053   ----------------------------------------
 BYTE   W24
 BYTE   W24
 BYTE   W24
 BYTE   W24
//  #15 //054   ----------------------------------------
 BYTE   W24
 BYTE   W24
 BYTE   W24
 BYTE   W24
//  #15 //055   ----------------------------------------
 BYTE   W24
 BYTE   W24
 BYTE   W24
 BYTE   W24
//  #15 //056   ----------------------------------------
 BYTE   W24
 BYTE   W24
 BYTE   W24
 BYTE   W24
//  #15 //057   ----------------------------------------
 BYTE   W24
 BYTE   W24
 BYTE   W24
 BYTE   W24
//  #15 //058   ----------------------------------------
 BYTE   W24
 BYTE   W24
 BYTE   W24
 BYTE   W24
//  #15 //059   ----------------------------------------
 BYTE   W24
//  #15 //060   ----------------------------------------
 BYTE   PATT
  POIN2 Label_01060162
//  #15 //061   ----------------------------------------
 BYTE   PATT
  POIN2 Label_01060169
//  #15 //062   ----------------------------------------
 BYTE   N06  Cs6  v064
 BYTE   W24
 BYTE   W24
 BYTE   W12
 BYTE   En6
 BYTE   W12
//  #15 //063   ----------------------------------------
 BYTE   PATT
  POIN2 Label_01060176
//  #15 //064   ----------------------------------------
 BYTE   PATT
  POIN2 Label_0106017D
//  #15 //065   ----------------------------------------
 BYTE   PATT
  POIN2 Label_01060184
//  #15 //066   ----------------------------------------
 BYTE   PATT
  POIN2 Label_0106018B
//  #15 //067   ----------------------------------------
 BYTE   PATT
  POIN2 Label_01060192
//  #15 //068   ----------------------------------------
 BYTE   N06  Gs5  v064
 BYTE   W24
 BYTE   W24
 BYTE   W12
 BYTE   Cs6
 BYTE   W12
//  #15 //069   ----------------------------------------
 BYTE   PATT
  POIN2 Label_0106019F
//  #15 //070   ----------------------------------------
 BYTE   PATT
  POIN2 Label_01060184
//  #15 //071   ----------------------------------------
 BYTE   PATT
  POIN2 Label_010601AB
//  #15 //072   ----------------------------------------
 BYTE   N06  Fs5  v064
 BYTE   W24
 BYTE   Cs6
 BYTE   W24
 BYTE   Bn5
 BYTE   W24
 BYTE   An5
 BYTE   W24
//  #15 //073   ----------------------------------------
 BYTE   Fs5
 BYTE   W24
 BYTE   Cs6
 BYTE   W24
 BYTE   Bn5
 BYTE   W24
 BYTE   An5
 BYTE   W24
//  #15 //074   ----------------------------------------
 BYTE   N06
 BYTE   W24
 BYTE   W24
 BYTE   W24
 BYTE   W24
//  #15 //075   ----------------------------------------
 BYTE   W24
 BYTE   W24
 BYTE   W24
 BYTE   W24
//  #15 //076   ----------------------------------------
 BYTE   W24
 BYTE   W24
 BYTE   W24
 BYTE   W24
//  #15 //077   ----------------------------------------
 BYTE   W24
 BYTE   W24
 BYTE   W24
 BYTE   W24
//  #15 //078   ----------------------------------------
 BYTE   W24
 BYTE   W24
 BYTE   W24
 BYTE   W24
//  #15 //079   ----------------------------------------
 BYTE   W24
 BYTE   W24
 BYTE   W24
 BYTE   W24
//  #15 //080   ----------------------------------------
 BYTE   W24
 BYTE   W24
 BYTE   W24
 BYTE   W24
//  #15 //081   ----------------------------------------
 BYTE   W24
 BYTE   W24
 BYTE   W24
 BYTE   W24
//  #15 //082   ----------------------------------------
 BYTE   W24
 BYTE   W24
 BYTE   W24
 BYTE   W24
//  #15 //083   ----------------------------------------
 BYTE   W24
 BYTE   W24
 BYTE   W24
 BYTE   W24
//  #15 //084   ----------------------------------------
 BYTE   W24
 BYTE   W24
 BYTE   W24
 BYTE   W24
//  #15 //085   ----------------------------------------
 BYTE   W24
 BYTE   W24
 BYTE   W24
 BYTE   W24
//  #15 //086   ----------------------------------------
 BYTE   W24
 BYTE   W24
 BYTE   W24
 BYTE   W24
//  #15 //087   ----------------------------------------
 BYTE   W24
 BYTE   W24
 BYTE   W24
 BYTE   W24
//  #15 //088   ----------------------------------------
 BYTE   W24
 BYTE   W24
 BYTE   W24
 BYTE   W24
//  #15 //089   ----------------------------------------
 BYTE   W24
 BYTE   W24
 BYTE   W24
 BYTE   W24
//  #15 //090   ----------------------------------------
 BYTE   W24
 BYTE   W24
 BYTE   W24
 BYTE   W24
//  #15 //091   ----------------------------------------
 BYTE   W24
 BYTE   W24
 BYTE   W24
 BYTE   W24
//  #15 //092   ----------------------------------------
 BYTE   W12
 BYTE   Fs5
 BYTE   W12
//  #15 //093   ----------------------------------------
 BYTE   PATT
  POIN2 Label_0106020E
//  #15 //094   ----------------------------------------
 BYTE   N06  Gs5  v064
 BYTE   W24
 BYTE   W24
 BYTE   W12
 BYTE   An5
 BYTE   W12
//  #15 //095   ----------------------------------------
 BYTE   PATT
  POIN2 Label_0106018B
//  #15 //096   ----------------------------------------
 BYTE   N06  Bn5  v064
 BYTE   W24
 BYTE   W12
 BYTE   En6
 BYTE   W12
 BYTE   Bn5
 BYTE   W24
 BYTE   An5
 BYTE   W24
//  #15 //097   ----------------------------------------
 BYTE   Gs5
 BYTE   W24
 BYTE   Fs5
 BYTE   W24
 BYTE   En5
 BYTE   W24
 BYTE   Ds5
 BYTE   W24
//  #15 //098   ----------------------------------------
 BYTE   Cs5
 BYTE   W24
 BYTE   Ds5
 BYTE   W24
//  #15 //099   ----------------------------------------
 BYTE   PATT
  POIN2 Label_01060237
//  #15 //100   ----------------------------------------
 BYTE   PATT
  POIN2 Label_0106023E
//  #15 //101   ----------------------------------------
 BYTE   PATT
  POIN2 Label_01060237
//  #15 //102   ----------------------------------------
 BYTE   PATT
  POIN2 Label_0106024A
//  #15 //103   ----------------------------------------
 BYTE   PATT
  POIN2 Label_01060237
//  #15 //104   ----------------------------------------
 BYTE   PATT
  POIN2 Label_0106023E
//  #15 //105   ----------------------------------------
 BYTE   PATT
  POIN2 Label_01060237
//  #15 //106   ----------------------------------------
 BYTE   PATT
  POIN2 Label_0106024A
//  #15 //107   ----------------------------------------
 BYTE   PATT
  POIN2 Label_01060237
//  #15 //108   ----------------------------------------
 BYTE   PATT
  POIN2 Label_0106023E
//  #15 //109   ----------------------------------------
 BYTE   PATT
  POIN2 Label_01060237
//  #15 //110   ----------------------------------------
 BYTE   PATT
  POIN2 Label_0106024A
//  #15 //111   ----------------------------------------
 BYTE   W24
 BYTE   W24
 BYTE   W24
 BYTE   W24
//  #15 //112   ----------------------------------------
 BYTE   W24
 BYTE   W24
 BYTE   W24
 BYTE   W24
 BYTE   FINE

//******************************************************//
	ALIGN 4

PokemonMDExplorersDefendGlobePsyche:
	BYTE	15	// NumTrks
	BYTE	0	// NumBlks
	BYTE	PokemonMDExplorersDefendGlobePsyche_pri	// Priority
	BYTE	PokemonMDExplorersDefendGlobePsyche_rev	// Reverb.
    
	POIN2	PokemonMDExplorersDefendGlobePsyche_grp
    
	POIN2	PokemonMDExplorersDefendGlobePsyche_001
	POIN2	PokemonMDExplorersDefendGlobePsyche_002
	POIN2	PokemonMDExplorersDefendGlobePsyche_003
	POIN2	PokemonMDExplorersDefendGlobePsyche_004
	POIN2	PokemonMDExplorersDefendGlobePsyche_005
	POIN2	PokemonMDExplorersDefendGlobePsyche_006
	POIN2	PokemonMDExplorersDefendGlobePsyche_007
	POIN2	PokemonMDExplorersDefendGlobePsyche_008
	POIN2	PokemonMDExplorersDefendGlobePsyche_009
	POIN2	PokemonMDExplorersDefendGlobePsyche_010
	POIN2	PokemonMDExplorersDefendGlobePsyche_011
	POIN2	PokemonMDExplorersDefendGlobePsyche_012
	POIN2	PokemonMDExplorersDefendGlobePsyche_013
	POIN2	PokemonMDExplorersDefendGlobePsyche_014
	POIN2	PokemonMDExplorersDefendGlobePsyche_015

	
