//Event file generated from Sappy .s format.
	#include "MPlayDef.event"

	#define	PokemonRBYWildPokemonBattlePandan_grp  voicegroup000
	#define	PokemonRBYWildPokemonBattlePandan_pri  0
	#define	PokemonRBYWildPokemonBattlePandan_rev  0
	#define	PokemonRBYWildPokemonBattlePandan_mvl  127
	#define	PokemonRBYWildPokemonBattlePandan_key  0
	#define	PokemonRBYWildPokemonBattlePandan_tbs  1
	#define	PokemonRBYWildPokemonBattlePandan_exg  0
	#define	PokemonRBYWildPokemonBattlePandan_cmp  1

	// .rodata
	//	PokemonRBYWildPokemonBattlePandan
	ALIGN 4


//**************** Track 1 (Midi-Chn.0) ****************//

PokemonRBYWildPokemonBattlePandan_001:
// 000   ----------------------------------------
 BYTE   KEYSH   PokemonRBYWildPokemonBattlePandan_key+0
Label_0_0124AFFE:
 BYTE   TEMPO   192*PokemonRBYWildPokemonBattlePandan_tbs/2
 BYTE   VOICE   36
 BYTE   VOL   44*PokemonRBYWildPokemonBattlePandan_mvl/mxv
 BYTE   PAN   c_v+0
 BYTE   N06  Cn4  v100
 BYTE   W06
 BYTE   Bn3
 BYTE   W06
 BYTE   As3
 BYTE   W06
 BYTE   An3
 BYTE   W06
 BYTE   As3
 BYTE   W06
 BYTE   An3
 BYTE   W06
 BYTE   Gs3
 BYTE   W06
 BYTE   Gn3
 BYTE   W06
 BYTE   Gs3
 BYTE   W06
 BYTE   Gn3
 BYTE   W06
 BYTE   Fs3
 BYTE   W06
 BYTE   Fn3
 BYTE   W06
 BYTE   Fs3
 BYTE   W06
 BYTE   Fn3
 BYTE   W06
 BYTE   En3
 BYTE   W06
 BYTE   Ds3
 BYTE   W06
// 001   ----------------------------------------
 BYTE   En3
 BYTE   W06
 BYTE   Ds3
 BYTE   W06
 BYTE   Dn3
 BYTE   W06
 BYTE   Cs3
 BYTE   W06
 BYTE   Dn3
 BYTE   W06
 BYTE   Cs3
 BYTE   W06
 BYTE   Cn3
 BYTE   W06
 BYTE   Bn2
 BYTE   W06
 BYTE   Cn3
 BYTE   W06
 BYTE   Bn2
 BYTE   W06
 BYTE   As2
 BYTE   W06
 BYTE   An2
 BYTE   W06
 BYTE   As2
 BYTE   W06
 BYTE   Bn2
 BYTE   W06
 BYTE   Cn3
 BYTE   W06
 BYTE   Cs3
 BYTE   W06
// 002   ----------------------------------------
Label_0_0124B048:
 BYTE   N06  Gn3  v100
 BYTE   W36
 BYTE   En3
 BYTE   W36
 BYTE   Ds3
 BYTE   W24
 BYTE   PEND 
// 003   ----------------------------------------
 BYTE   W48
 BYTE   Cs3
 BYTE   W48
// 004   ----------------------------------------
Label_0_0124B054:
 BYTE   W36
 BYTE   N06  En3  v100
 BYTE   W36
 BYTE   Ds3
 BYTE   W24
 BYTE   PEND 
// 005   ----------------------------------------
 BYTE   W36
 BYTE   N60  Cs3
 BYTE   W60
// 006   ----------------------------------------
 BYTE   PATT
  POIN2 Label_0_0124B048
// 007   ----------------------------------------
 BYTE   W48
 BYTE   N06  Cs3  v100
 BYTE   W48
// 008   ----------------------------------------
 BYTE   PATT
  POIN2 Label_0_0124B054
// 009   ----------------------------------------
 BYTE   W36
 BYTE   N06  Cs3  v100
 BYTE   W60
// 010   ----------------------------------------
Label_0_0124B074:
 BYTE   N06  Cs3  v100
 BYTE   W06
 BYTE   Dn3
 BYTE   W06
 BYTE   Cs3
 BYTE   W06
 BYTE   Cn3
 BYTE   W06
 BYTE   Cs3
 BYTE   W06
 BYTE   Dn3
 BYTE   W06
 BYTE   Cs3
 BYTE   W06
 BYTE   Cn3
 BYTE   W06
 BYTE   Cs3
 BYTE   W06
 BYTE   Dn3
 BYTE   W06
 BYTE   Ds3
 BYTE   W06
 BYTE   Dn3
 BYTE   W06
 BYTE   Cs3
 BYTE   W06
 BYTE   Cn3
 BYTE   W06
 BYTE   Bn2
 BYTE   W06
 BYTE   Cn3
 BYTE   W06
 BYTE   PEND 
// 011   ----------------------------------------
Label_0_0124B097:
 BYTE   N06  Dn3  v100
 BYTE   W06
 BYTE   Ds3
 BYTE   W06
 BYTE   Dn3
 BYTE   W06
 BYTE   Cs3
 BYTE   W06
 BYTE   Dn3
 BYTE   W06
 BYTE   Ds3
 BYTE   W06
 BYTE   Dn3
 BYTE   W06
 BYTE   Cs3
 BYTE   W06
 BYTE   Dn3
 BYTE   W06
 BYTE   Ds3
 BYTE   W06
 BYTE   En3
 BYTE   W06
 BYTE   Fn3
 BYTE   W06
 BYTE   En3
 BYTE   W06
 BYTE   Ds3
 BYTE   W06
 BYTE   Dn3
 BYTE   W06
 BYTE   Cs3
 BYTE   W06
 BYTE   PEND 
// 012   ----------------------------------------
Label_0_0124B0BA:
 BYTE   N06  Dn3  v100
 BYTE   W06
 BYTE   Ds3
 BYTE   W06
 BYTE   En3
 BYTE   W06
 BYTE   Fn3
 BYTE   W06
 BYTE   Fs3
 BYTE   W06
 BYTE   Gn3
 BYTE   W06
 BYTE   Gs3
 BYTE   W06
 BYTE   An3
 BYTE   W06
 BYTE   Gs3
 BYTE   W06
 BYTE   Gn3
 BYTE   W06
 BYTE   Fs3
 BYTE   W06
 BYTE   Fn3
 BYTE   W06
 BYTE   En3
 BYTE   W06
 BYTE   Ds3
 BYTE   W06
 BYTE   Dn3
 BYTE   W06
 BYTE   Cs3
 BYTE   W06
 BYTE   PEND 
// 013   ----------------------------------------
Label_0_0124B0DD:
 BYTE   N06  Dn3  v100
 BYTE   W06
 BYTE   Ds3
 BYTE   W06
 BYTE   En3
 BYTE   W06
 BYTE   Fn3
 BYTE   W06
 BYTE   Fs3
 BYTE   W06
 BYTE   Gn3
 BYTE   W06
 BYTE   Fs3
 BYTE   W06
 BYTE   Fn3
 BYTE   W06
 BYTE   En3
 BYTE   W06
 BYTE   Ds3
 BYTE   W06
 BYTE   Dn3
 BYTE   W06
 BYTE   Ds3
 BYTE   W06
 BYTE   En3
 BYTE   W06
 BYTE   Fn3
 BYTE   W06
 BYTE   Fs3
 BYTE   W06
 BYTE   Gn3
 BYTE   W06
 BYTE   PEND 
// 014   ----------------------------------------
Label_0_0124B100:
 BYTE   N06  Cs3  v100
 BYTE   W06
 BYTE   Dn3
 BYTE   W06
 BYTE   Ds3
 BYTE   W06
 BYTE   En3
 BYTE   W06
 BYTE   Ds3
 BYTE   W06
 BYTE   Dn3
 BYTE   W06
 BYTE   Cs3
 BYTE   W06
 BYTE   Cn3
 BYTE   W06
 BYTE   Cs3
 BYTE   W06
 BYTE   Dn3
 BYTE   W06
 BYTE   Ds3
 BYTE   W06
 BYTE   En3
 BYTE   W06
 BYTE   Ds3
 BYTE   W06
 BYTE   Dn3
 BYTE   W06
 BYTE   Cs3
 BYTE   W06
 BYTE   Cn3
 BYTE   W06
 BYTE   PEND 
// 015   ----------------------------------------
Label_0_0124B123:
 BYTE   N06  Cs3  v100
 BYTE   W06
 BYTE   Dn3
 BYTE   W06
 BYTE   Ds3
 BYTE   W06
 BYTE   En3
 BYTE   W06
 BYTE   Ds3
 BYTE   W06
 BYTE   Dn3
 BYTE   W06
 BYTE   Cs3
 BYTE   W06
 BYTE   Dn3
 BYTE   W06
 BYTE   Ds3
 BYTE   W06
 BYTE   En3
 BYTE   W06
 BYTE   Fn3
 BYTE   W06
 BYTE   Fs3
 BYTE   W06
 BYTE   Fn3
 BYTE   W06
 BYTE   En3
 BYTE   W06
 BYTE   Ds3
 BYTE   W06
 BYTE   Dn3
 BYTE   W06
 BYTE   PEND 
// 016   ----------------------------------------
Label_0_0124B146:
 BYTE   N06  Dn3  v100
 BYTE   W06
 BYTE   Ds3
 BYTE   W06
 BYTE   En3
 BYTE   W06
 BYTE   Fn3
 BYTE   W06
 BYTE   En3
 BYTE   W06
 BYTE   Ds3
 BYTE   W06
 BYTE   Dn3
 BYTE   W06
 BYTE   Cs3
 BYTE   W06
 BYTE   Dn3
 BYTE   W06
 BYTE   Ds3
 BYTE   W06
 BYTE   En3
 BYTE   W06
 BYTE   Fn3
 BYTE   W06
 BYTE   En3
 BYTE   W06
 BYTE   Ds3
 BYTE   W06
 BYTE   Dn3
 BYTE   W06
 BYTE   Cs3
 BYTE   W06
 BYTE   PEND 
// 017   ----------------------------------------
Label_0_0124B169:
 BYTE   N06  Dn3  v100
 BYTE   W06
 BYTE   Ds3
 BYTE   W06
 BYTE   En3
 BYTE   W06
 BYTE   Fn3
 BYTE   W06
 BYTE   En3
 BYTE   W06
 BYTE   Ds3
 BYTE   W06
 BYTE   Dn3
 BYTE   W06
 BYTE   Ds3
 BYTE   W06
 BYTE   En3
 BYTE   W06
 BYTE   Fn3
 BYTE   W06
 BYTE   Fs3
 BYTE   W06
 BYTE   Gn3
 BYTE   W06
 BYTE   Fs3
 BYTE   W06
 BYTE   Fn3
 BYTE   W06
 BYTE   En3
 BYTE   W06
 BYTE   Ds3
 BYTE   W06
 BYTE   PEND 
// 018   ----------------------------------------
Label_0_0124B18C:
 BYTE   N06  Cs3  v100
 BYTE   W06
 BYTE   Dn3
 BYTE   W06
 BYTE   Ds3
 BYTE   W06
 BYTE   En3
 BYTE   W06
 BYTE   Fn3
 BYTE   W06
 BYTE   Fs3
 BYTE   W06
 BYTE   Gn3
 BYTE   W06
 BYTE   Gs3
 BYTE   W06
 BYTE   An3
 BYTE   W06
 BYTE   Gs3
 BYTE   W06
 BYTE   Gn3
 BYTE   W06
 BYTE   Fs3
 BYTE   W06
 BYTE   Fn3
 BYTE   W06
 BYTE   En3
 BYTE   W06
 BYTE   Ds3
 BYTE   W06
 BYTE   Dn3
 BYTE   W06
 BYTE   PEND 
// 019   ----------------------------------------
 BYTE   PATT
  POIN2 Label_0_0124B18C
// 020   ----------------------------------------
 BYTE   PATT
  POIN2 Label_0_0124B18C
// 021   ----------------------------------------
Label_0_0124B1B9:
 BYTE   N06  Cs3  v100
 BYTE   W06
 BYTE   Dn3
 BYTE   W06
 BYTE   Ds3
 BYTE   W06
 BYTE   En3
 BYTE   W06
 BYTE   Fn3
 BYTE   W06
 BYTE   Fs3
 BYTE   W06
 BYTE   Fn3
 BYTE   W06
 BYTE   En3
 BYTE   W06
 BYTE   Ds3
 BYTE   W06
 BYTE   Dn3
 BYTE   W06
 BYTE   Cs3
 BYTE   W06
 BYTE   Dn3
 BYTE   W06
 BYTE   Ds3
 BYTE   W06
 BYTE   En3
 BYTE   W06
 BYTE   Fn3
 BYTE   W06
 BYTE   Fs3
 BYTE   W06
 BYTE   PEND 
// 022   ----------------------------------------
Label_0_0124B1DC:
 BYTE   N24  Dn3  v100
 BYTE   W24
 BYTE   Cn3
 BYTE   W24
 BYTE   Dn3
 BYTE   W24
 BYTE   Fn3
 BYTE   W24
 BYTE   PEND 
// 023   ----------------------------------------
Label_0_0124B1E7:
 BYTE   N36  En3  v100
 BYTE   W36
 BYTE   Dn3
 BYTE   W36
 BYTE   N24  Fn3
 BYTE   W24
 BYTE   PEND 
// 024   ----------------------------------------
 BYTE   N96  An3
 BYTE   W96
// 025   ----------------------------------------
 BYTE   Gn3
 BYTE   W96
// 026   ----------------------------------------
 BYTE   PATT
  POIN2 Label_0_0124B1DC
// 027   ----------------------------------------
Label_0_0124B1FB:
 BYTE   N36  Gn3  v100
 BYTE   W36
 BYTE   An3
 BYTE   W36
 BYTE   N24  Bn3
 BYTE   W24
 BYTE   PEND 
// 028   ----------------------------------------
 BYTE   N96  Cn4
 BYTE   W96
// 029   ----------------------------------------
 BYTE   Gn4
 BYTE   W96
// 030   ----------------------------------------
Label_0_0124B20A:
 BYTE   N72  Cn3  v100
 BYTE   W72
 BYTE   N12
 BYTE   W24
 BYTE   PEND 
// 031   ----------------------------------------
Label_0_0124B211:
 BYTE   N12  Dn3  v100
 BYTE   W12
 BYTE   Cn3
 BYTE   W84
 BYTE   PEND 
// 032   ----------------------------------------
Label_0_0124B218:
 BYTE   N72  Cs3  v100
 BYTE   W72
 BYTE   N12
 BYTE   W24
 BYTE   PEND 
// 033   ----------------------------------------
Label_0_0124B21F:
 BYTE   N12  Fn3  v100
 BYTE   W12
 BYTE   N24  Ds3
 BYTE   W36
 BYTE   N48  Cs3
 BYTE   W48
 BYTE   PEND 
// 034   ----------------------------------------
 BYTE   PATT
  POIN2 Label_0_0124B074
// 035   ----------------------------------------
 BYTE   PATT
  POIN2 Label_0_0124B097
// 036   ----------------------------------------
 BYTE   PATT
  POIN2 Label_0_0124B0BA
// 037   ----------------------------------------
 BYTE   PATT
  POIN2 Label_0_0124B0DD
// 038   ----------------------------------------
 BYTE   PATT
  POIN2 Label_0_0124B100
// 039   ----------------------------------------
 BYTE   PATT
  POIN2 Label_0_0124B123
// 040   ----------------------------------------
 BYTE   PATT
  POIN2 Label_0_0124B146
// 041   ----------------------------------------
 BYTE   PATT
  POIN2 Label_0_0124B169
// 042   ----------------------------------------
 BYTE   PATT
  POIN2 Label_0_0124B18C
// 043   ----------------------------------------
 BYTE   PATT
  POIN2 Label_0_0124B18C
// 044   ----------------------------------------
 BYTE   PATT
  POIN2 Label_0_0124B18C
// 045   ----------------------------------------
 BYTE   PATT
  POIN2 Label_0_0124B1B9
// 046   ----------------------------------------
 BYTE   PATT
  POIN2 Label_0_0124B1DC
// 047   ----------------------------------------
 BYTE   PATT
  POIN2 Label_0_0124B1E7
// 048   ----------------------------------------
 BYTE   N96  An3  v100
 BYTE   W96
// 049   ----------------------------------------
 BYTE   Gn3
 BYTE   W96
// 050   ----------------------------------------
 BYTE   PATT
  POIN2 Label_0_0124B1DC
// 051   ----------------------------------------
 BYTE   PATT
  POIN2 Label_0_0124B1FB
// 052   ----------------------------------------
 BYTE   N96  Cn4  v100
 BYTE   W96
// 053   ----------------------------------------
 BYTE   Gn4
 BYTE   W96
// 054   ----------------------------------------
 BYTE   PATT
  POIN2 Label_0_0124B20A
// 055   ----------------------------------------
 BYTE   PATT
  POIN2 Label_0_0124B211
// 056   ----------------------------------------
 BYTE   PATT
  POIN2 Label_0_0124B218
// 057   ----------------------------------------
 BYTE   PATT
  POIN2 Label_0_0124B21F
// 058   ----------------------------------------
 BYTE   PATT
  POIN2 Label_0_0124B074
// 059   ----------------------------------------
 BYTE   PATT
  POIN2 Label_0_0124B097
// 060   ----------------------------------------
 BYTE   GoTo
  POIN2 Label_0_0124AFFE
 BYTE   FINE

//**************** Track 2 (Midi-Chn.1) ****************//

PokemonRBYWildPokemonBattlePandan_002:
// 000   ----------------------------------------
 BYTE   KEYSH   PokemonRBYWildPokemonBattlePandan_key+0
Label_1_0124B2AE:
 BYTE   VOICE   52
 BYTE   VOL   59*PokemonRBYWildPokemonBattlePandan_mvl/mxv
 BYTE   PAN   c_v+0
 BYTE   N06  Gn4  v100
 BYTE   W06
 BYTE   Fs4
 BYTE   W06
 BYTE   Fn4
 BYTE   W06
 BYTE   Gn5
 BYTE   W06
 BYTE   Gn4
 BYTE   W06
 BYTE   Fs4
 BYTE   W06
 BYTE   Fn4
 BYTE   W06
 BYTE   Gn5
 BYTE   W06
 BYTE   Gn4
 BYTE   W06
 BYTE   Fs4
 BYTE   W06
 BYTE   Fn4
 BYTE   W06
 BYTE   Gn5
 BYTE   W06
 BYTE   Gn4
 BYTE   W06
 BYTE   Fs4
 BYTE   W06
 BYTE   Fn4
 BYTE   W06
 BYTE   Gn5
 BYTE   W06
// 001   ----------------------------------------
 BYTE   Gn4
 BYTE   W06
 BYTE   Fs4
 BYTE   W06
 BYTE   Fn4
 BYTE   W06
 BYTE   Gn5
 BYTE   W06
 BYTE   Gn4
 BYTE   W06
 BYTE   Fs4
 BYTE   W06
 BYTE   Fn4
 BYTE   W06
 BYTE   Gn5
 BYTE   W06
 BYTE   Gn4
 BYTE   W06
 BYTE   Fs4
 BYTE   W06
 BYTE   Fn4
 BYTE   W06
 BYTE   Gn5
 BYTE   W06
 BYTE   Gn4
 BYTE   W06
 BYTE   Fs4
 BYTE   W06
 BYTE   Fn4
 BYTE   W06
 BYTE   Gn5
 BYTE   W06
// 002   ----------------------------------------
 BYTE   N24  Gn4
 BYTE   W36
 BYTE   Gn3
 BYTE   W36
 BYTE   N24
 BYTE   W24
// 003   ----------------------------------------
 BYTE   W48
 BYTE   N24
 BYTE   W48
// 004   ----------------------------------------
Label_1_0124B300:
 BYTE   W36
 BYTE   N24  Gn3  v100
 BYTE   W36
 BYTE   N24
 BYTE   W24
 BYTE   PEND 
// 005   ----------------------------------------
 BYTE   W36
 BYTE   N60  Fs3
 BYTE   W60
// 006   ----------------------------------------
 BYTE   N24  Gn3
 BYTE   W36
 BYTE   N24
 BYTE   W36
 BYTE   N24
 BYTE   W24
// 007   ----------------------------------------
 BYTE   W48
 BYTE   N24
 BYTE   W48
// 008   ----------------------------------------
 BYTE   PATT
  POIN2 Label_1_0124B300
// 009   ----------------------------------------
 BYTE   W36
 BYTE   N24  Gn3  v100
 BYTE   W60
// 010   ----------------------------------------
 BYTE   N36
 BYTE   W36
 BYTE   Fs3
 BYTE   W36
 BYTE   N24  En3
 BYTE   W24
// 011   ----------------------------------------
 BYTE   N36  Gn3
 BYTE   W36
 BYTE   An3
 BYTE   W36
 BYTE   N24  Gn3
 BYTE   W24
// 012   ----------------------------------------
Label_1_0124B32F:
 BYTE   N72  Gs4  v100
 BYTE   W72
 BYTE   N12  Gn4
 BYTE   W24
 BYTE   PEND 
// 013   ----------------------------------------
Label_1_0124B337:
 BYTE   N12  Gs4  v100
 BYTE   W12
 BYTE   Gn4
 BYTE   W36
 BYTE   N48  Cs5
 BYTE   W48
 BYTE   PEND 
// 014   ----------------------------------------
Label_1_0124B341:
 BYTE   N36  Cn4  v100
 BYTE   W36
 BYTE   As3
 BYTE   W36
 BYTE   N24  Gs3
 BYTE   W24
 BYTE   PEND 
// 015   ----------------------------------------
Label_1_0124B34B:
 BYTE   N36  Cs4  v100
 BYTE   W36
 BYTE   Cn4
 BYTE   W36
 BYTE   N24  As3
 BYTE   W24
 BYTE   PEND 
// 016   ----------------------------------------
Label_1_0124B355:
 BYTE   N36  Fn4  v100
 BYTE   W36
 BYTE   En4
 BYTE   W36
 BYTE   N24  Dn4
 BYTE   W24
 BYTE   PEND 
// 017   ----------------------------------------
Label_1_0124B35F:
 BYTE   N24  As3  v100
 BYTE   W24
 BYTE   Cn4
 BYTE   W24
 BYTE   Dn4
 BYTE   W24
 BYTE   Fn4
 BYTE   W24
 BYTE   PEND 
// 018   ----------------------------------------
 BYTE   TIE  Gs4
 BYTE   W96
// 019   ----------------------------------------
 BYTE   W96
// 020   ----------------------------------------
 BYTE   EOT
 BYTE   TIE  Gn4
 BYTE   W96
// 021   ----------------------------------------
 BYTE   W96
// 022   ----------------------------------------
 BYTE   EOT
Label_1_0124B374:
 BYTE   N48  Fn3  v100
 BYTE   W48
 BYTE   As3
 BYTE   W48
 BYTE   PEND 
// 023   ----------------------------------------
Label_1_0124B37B:
 BYTE   N48  Dn4  v100
 BYTE   W48
 BYTE   Fn4
 BYTE   W48
 BYTE   PEND 
// 024   ----------------------------------------
 BYTE   TIE  En4
 BYTE   W96
// 025   ----------------------------------------
 BYTE   W96
// 026   ----------------------------------------
 BYTE   EOT
// 027   ----------------------------------------
 BYTE   PATT
  POIN2 Label_1_0124B374
// 028   ----------------------------------------
 BYTE   PATT
  POIN2 Label_1_0124B37B
// 029   ----------------------------------------
 BYTE   N96  Gn4  v100
 BYTE   W96
// 030   ----------------------------------------
 BYTE   Cn5
 BYTE   W96
// 031   ----------------------------------------
Label_1_0124B397:
 BYTE   N72  En4  v100
 BYTE   W72
 BYTE   N12
 BYTE   W24
 BYTE   PEND 
// 032   ----------------------------------------
Label_1_0124B39E:
 BYTE   N12  Fn4  v100
 BYTE   W12
 BYTE   En4
 BYTE   W84
 BYTE   PEND 
// 033   ----------------------------------------
Label_1_0124B3A5:
 BYTE   N72  Fn4  v100
 BYTE   W72
 BYTE   N12
 BYTE   W24
 BYTE   PEND 
// 034   ----------------------------------------
Label_1_0124B3AC:
 BYTE   N12  Gs4  v100
 BYTE   W12
 BYTE   N24  Gn4
 BYTE   W36
 BYTE   N48  Fn4
 BYTE   W48
 BYTE   PEND 
// 035   ----------------------------------------
Label_1_0124B3B7:
 BYTE   N36  Gn4  v100
 BYTE   W36
 BYTE   Fs4
 BYTE   W36
 BYTE   N24  En4
 BYTE   W24
 BYTE   PEND 
// 036   ----------------------------------------
Label_1_0124B3C1:
 BYTE   N36  Gn4  v100
 BYTE   W36
 BYTE   An4
 BYTE   W36
 BYTE   N24  Gn4
 BYTE   W24
 BYTE   PEND 
// 037   ----------------------------------------
 BYTE   PATT
  POIN2 Label_1_0124B32F
// 038   ----------------------------------------
 BYTE   PATT
  POIN2 Label_1_0124B337
// 039   ----------------------------------------
 BYTE   PATT
  POIN2 Label_1_0124B341
// 040   ----------------------------------------
 BYTE   PATT
  POIN2 Label_1_0124B34B
// 041   ----------------------------------------
 BYTE   PATT
  POIN2 Label_1_0124B355
// 042   ----------------------------------------
 BYTE   PATT
  POIN2 Label_1_0124B35F
// 043   ----------------------------------------
 BYTE   TIE  Gs4  v100
 BYTE   W96
// 044   ----------------------------------------
 BYTE   W96
// 045   ----------------------------------------
 BYTE   EOT
 BYTE   TIE  Gn4
 BYTE   W96
// 046   ----------------------------------------
 BYTE   W96
// 047   ----------------------------------------
 BYTE   EOT
// 048   ----------------------------------------
 BYTE   PATT
  POIN2 Label_1_0124B374
// 049   ----------------------------------------
 BYTE   PATT
  POIN2 Label_1_0124B37B
// 050   ----------------------------------------
 BYTE   TIE  En4  v100
 BYTE   W96
// 051   ----------------------------------------
 BYTE   W96
// 052   ----------------------------------------
 BYTE   EOT
// 053   ----------------------------------------
 BYTE   PATT
  POIN2 Label_1_0124B374
// 054   ----------------------------------------
 BYTE   PATT
  POIN2 Label_1_0124B37B
// 055   ----------------------------------------
 BYTE   N96  Gn4  v100
 BYTE   W96
// 056   ----------------------------------------
 BYTE   Cn5
 BYTE   W96
// 057   ----------------------------------------
 BYTE   PATT
  POIN2 Label_1_0124B397
// 058   ----------------------------------------
 BYTE   PATT
  POIN2 Label_1_0124B39E
// 059   ----------------------------------------
 BYTE   PATT
  POIN2 Label_1_0124B3A5
// 060   ----------------------------------------
 BYTE   PATT
  POIN2 Label_1_0124B3AC
// 061   ----------------------------------------
 BYTE   PATT
  POIN2 Label_1_0124B3B7
// 062   ----------------------------------------
 BYTE   PATT
  POIN2 Label_1_0124B3C1
// 063   ----------------------------------------
 BYTE   GoTo
  POIN2 Label_1_0124B2AE
 BYTE   FINE

//**************** Track 3 (Midi-Chn.2) ****************//

PokemonRBYWildPokemonBattlePandan_003:
// 000   ----------------------------------------
 BYTE   KEYSH   PokemonRBYWildPokemonBattlePandan_key+0
Label_2_0124B43A:
 BYTE   VOICE   0
 BYTE   VOL   71*PokemonRBYWildPokemonBattlePandan_mvl/mxv
 BYTE   PAN   c_v+0
 BYTE   N06  Cs3  v100
 BYTE   W12
 BYTE   N06
 BYTE   W06
 BYTE   Cn3
 BYTE   W06
 BYTE   Dn3
 BYTE   W12
 BYTE   N06
 BYTE   W06
 BYTE   Cn3
 BYTE   W06
 BYTE   Ds3
 BYTE   W12
 BYTE   N06
 BYTE   W06
 BYTE   Cn3
 BYTE   W06
 BYTE   En3
 BYTE   W12
 BYTE   N06
 BYTE   W06
 BYTE   Cn3
 BYTE   W06
// 001   ----------------------------------------
 BYTE   Fn3
 BYTE   W12
 BYTE   N06
 BYTE   W06
 BYTE   Cn3
 BYTE   W06
 BYTE   Fs3
 BYTE   W12
 BYTE   N06
 BYTE   W06
 BYTE   Cn3
 BYTE   W06
 BYTE   Gn3
 BYTE   W12
 BYTE   N06
 BYTE   W06
 BYTE   Cn3
 BYTE   W06
 BYTE   N12  As2
 BYTE   W12
 BYTE   Bn2
 BYTE   W12
// 002   ----------------------------------------
Label_2_0124B471:
 BYTE   N12  Cn3  v100
 BYTE   W12
 BYTE   Gn3
 BYTE   W12
 BYTE   Cn3
 BYTE   W12
 BYTE   Gn3
 BYTE   W12
 BYTE   Cn3
 BYTE   W12
 BYTE   Gn3
 BYTE   W12
 BYTE   Cn3
 BYTE   W12
 BYTE   Gn3
 BYTE   W12
 BYTE   PEND 
// 003   ----------------------------------------
 BYTE   PATT
  POIN2 Label_2_0124B471
// 004   ----------------------------------------
Label_2_0124B489:
 BYTE   N12  Cs3  v100
 BYTE   W12
 BYTE   Gs3
 BYTE   W12
 BYTE   Cs3
 BYTE   W12
 BYTE   N12
 BYTE   W12
 BYTE   Gs3
 BYTE   W12
 BYTE   As3
 BYTE   W12
 BYTE   Gs3
 BYTE   W12
 BYTE   Gn3
 BYTE   W12
 BYTE   PEND 
// 005   ----------------------------------------
Label_2_0124B49C:
 BYTE   N12  Cs3  v100
 BYTE   W12
 BYTE   Gs3
 BYTE   W12
 BYTE   Cs3
 BYTE   W12
 BYTE   N12
 BYTE   W12
 BYTE   Gs3
 BYTE   W12
 BYTE   As3
 BYTE   W12
 BYTE   Gs3
 BYTE   W12
 BYTE   Fn3
 BYTE   W12
 BYTE   PEND 
// 006   ----------------------------------------
 BYTE   PATT
  POIN2 Label_2_0124B471
// 007   ----------------------------------------
 BYTE   PATT
  POIN2 Label_2_0124B471
// 008   ----------------------------------------
 BYTE   PATT
  POIN2 Label_2_0124B489
// 009   ----------------------------------------
 BYTE   PATT
  POIN2 Label_2_0124B49C
// 010   ----------------------------------------
 BYTE   PATT
  POIN2 Label_2_0124B471
// 011   ----------------------------------------
 BYTE   PATT
  POIN2 Label_2_0124B471
// 012   ----------------------------------------
Label_2_0124B4CD:
 BYTE   N72  Gs3  v100
 BYTE   W72
 BYTE   N12  Gn3
 BYTE   W24
 BYTE   PEND 
// 013   ----------------------------------------
Label_2_0124B4D5:
 BYTE   N12  Gs3  v100
 BYTE   W12
 BYTE   Gn3
 BYTE   W36
 BYTE   Fn3
 BYTE   W12
 BYTE   En3
 BYTE   W12
 BYTE   Dn3
 BYTE   W12
 BYTE   Cs3
 BYTE   W12
 BYTE   PEND 
// 014   ----------------------------------------
 BYTE   PATT
  POIN2 Label_2_0124B471
// 015   ----------------------------------------
 BYTE   PATT
  POIN2 Label_2_0124B471
// 016   ----------------------------------------
 BYTE   PATT
  POIN2 Label_2_0124B471
// 017   ----------------------------------------
 BYTE   PATT
  POIN2 Label_2_0124B471
// 018   ----------------------------------------
Label_2_0124B4F8:
 BYTE   N12  Cs3  v100
 BYTE   W12
 BYTE   Gs3
 BYTE   W12
 BYTE   Cs3
 BYTE   W12
 BYTE   Gs3
 BYTE   W12
 BYTE   Cs3
 BYTE   W12
 BYTE   Gs3
 BYTE   W12
 BYTE   Cs3
 BYTE   W12
 BYTE   Gs3
 BYTE   W12
 BYTE   PEND 
// 019   ----------------------------------------
 BYTE   PATT
  POIN2 Label_2_0124B4F8
// 020   ----------------------------------------
 BYTE   PATT
  POIN2 Label_2_0124B471
// 021   ----------------------------------------
 BYTE   PATT
  POIN2 Label_2_0124B471
// 022   ----------------------------------------
Label_2_0124B51A:
 BYTE   N12  As2  v100
 BYTE   W12
 BYTE   Fn3
 BYTE   W12
 BYTE   As2
 BYTE   W12
 BYTE   Fn3
 BYTE   W12
 BYTE   As2
 BYTE   W12
 BYTE   Fn3
 BYTE   W12
 BYTE   As2
 BYTE   W12
 BYTE   Fn3
 BYTE   W12
 BYTE   PEND 
// 023   ----------------------------------------
 BYTE   PATT
  POIN2 Label_2_0124B51A
// 024   ----------------------------------------
 BYTE   PATT
  POIN2 Label_2_0124B471
// 025   ----------------------------------------
 BYTE   PATT
  POIN2 Label_2_0124B471
// 026   ----------------------------------------
Label_2_0124B53C:
 BYTE   N12  Cn3  v100
 BYTE   W12
 BYTE   Fn3
 BYTE   W12
 BYTE   Cn3
 BYTE   W12
 BYTE   Fn3
 BYTE   W12
 BYTE   Cn3
 BYTE   W12
 BYTE   Fn3
 BYTE   W12
 BYTE   Cn3
 BYTE   W12
 BYTE   Fn3
 BYTE   W12
 BYTE   PEND 
// 027   ----------------------------------------
 BYTE   PATT
  POIN2 Label_2_0124B53C
// 028   ----------------------------------------
 BYTE   PATT
  POIN2 Label_2_0124B471
// 029   ----------------------------------------
 BYTE   PATT
  POIN2 Label_2_0124B471
// 030   ----------------------------------------
 BYTE   PATT
  POIN2 Label_2_0124B471
// 031   ----------------------------------------
 BYTE   PATT
  POIN2 Label_2_0124B471
// 032   ----------------------------------------
 BYTE   PATT
  POIN2 Label_2_0124B4F8
// 033   ----------------------------------------
 BYTE   PATT
  POIN2 Label_2_0124B4F8
// 034   ----------------------------------------
 BYTE   PATT
  POIN2 Label_2_0124B471
// 035   ----------------------------------------
 BYTE   PATT
  POIN2 Label_2_0124B471
// 036   ----------------------------------------
 BYTE   PATT
  POIN2 Label_2_0124B4CD
// 037   ----------------------------------------
 BYTE   PATT
  POIN2 Label_2_0124B4D5
// 038   ----------------------------------------
 BYTE   PATT
  POIN2 Label_2_0124B471
// 039   ----------------------------------------
 BYTE   PATT
  POIN2 Label_2_0124B471
// 040   ----------------------------------------
 BYTE   PATT
  POIN2 Label_2_0124B471
// 041   ----------------------------------------
 BYTE   PATT
  POIN2 Label_2_0124B471
// 042   ----------------------------------------
 BYTE   PATT
  POIN2 Label_2_0124B4F8
// 043   ----------------------------------------
 BYTE   PATT
  POIN2 Label_2_0124B4F8
// 044   ----------------------------------------
 BYTE   PATT
  POIN2 Label_2_0124B471
// 045   ----------------------------------------
 BYTE   PATT
  POIN2 Label_2_0124B471
// 046   ----------------------------------------
 BYTE   PATT
  POIN2 Label_2_0124B51A
// 047   ----------------------------------------
 BYTE   PATT
  POIN2 Label_2_0124B51A
// 048   ----------------------------------------
 BYTE   PATT
  POIN2 Label_2_0124B471
// 049   ----------------------------------------
 BYTE   PATT
  POIN2 Label_2_0124B471
// 050   ----------------------------------------
 BYTE   PATT
  POIN2 Label_2_0124B53C
// 051   ----------------------------------------
 BYTE   PATT
  POIN2 Label_2_0124B53C
// 052   ----------------------------------------
 BYTE   PATT
  POIN2 Label_2_0124B471
// 053   ----------------------------------------
 BYTE   PATT
  POIN2 Label_2_0124B471
// 054   ----------------------------------------
 BYTE   PATT
  POIN2 Label_2_0124B471
// 055   ----------------------------------------
 BYTE   PATT
  POIN2 Label_2_0124B471
// 056   ----------------------------------------
 BYTE   PATT
  POIN2 Label_2_0124B4F8
// 057   ----------------------------------------
 BYTE   PATT
  POIN2 Label_2_0124B4F8
// 058   ----------------------------------------
 BYTE   PATT
  POIN2 Label_2_0124B471
// 059   ----------------------------------------
 BYTE   PATT
  POIN2 Label_2_0124B471
// 060   ----------------------------------------
 BYTE   GoTo
  POIN2 Label_2_0124B43A
 BYTE   FINE

//******************************************************//
	ALIGN 4

PokemonRBYWildPokemonBattlePandan:
	BYTE	3	// NumTrks
	BYTE	0	// NumBlks
	BYTE	PokemonRBYWildPokemonBattlePandan_pri	// Priority
	BYTE	PokemonRBYWildPokemonBattlePandan_rev	// Reverb.
    
	POIN2	PokemonRBYWildPokemonBattlePandan_grp
    
	POIN2	PokemonRBYWildPokemonBattlePandan_001
	POIN2	PokemonRBYWildPokemonBattlePandan_002
	POIN2	PokemonRBYWildPokemonBattlePandan_003

	
