//Event file generated from Sappy .s format.
	#include "MPlayDef.event"

	#define	PokemonB2W2PWTFinalTak_grp  voicegroup000
	#define	PokemonB2W2PWTFinalTak_pri  0
	#define	PokemonB2W2PWTFinalTak_rev  0
	#define	PokemonB2W2PWTFinalTak_mvl  127
	#define	PokemonB2W2PWTFinalTak_key  0
	#define	PokemonB2W2PWTFinalTak_tbs  1
	#define	PokemonB2W2PWTFinalTak_exg  0
	#define	PokemonB2W2PWTFinalTak_cmp  1

	// .rodata
	//	PokemonB2W2PWTFinalTak
	ALIGN 4


//**************** Track 1 (Midi-Chn.0) ****************//

PokemonB2W2PWTFinalTak_001:
//  #01 //000   ----------------------------------------
 BYTE   KEYSH   PokemonB2W2PWTFinalTak_key+0
 BYTE   TEMPO   160*PokemonB2W2PWTFinalTak_tbs/2
 BYTE   VOICE   63
 BYTE   VOL   47*PokemonB2W2PWTFinalTak_mvl/mxv
 BYTE   PAN   c_v+51
 BYTE   BENDR  12
 BYTE   N92  As2  v064  gtp2
 BYTE   W96
//  #01 //001   ----------------------------------------
 BYTE   Ds3  v070
 BYTE   W96
//  #01 //002   ----------------------------------------
 BYTE   Gs3  v077
 BYTE   W96
//  #01 //003   ----------------------------------------
 BYTE   Cs4  v084
 BYTE   W96
//  #01 //004   ----------------------------------------
Label_01003D6A:
 BYTE   N18  Gn3  v085
 BYTE   W18
 BYTE   N06
 BYTE   W78
 BYTE   PEND 
//  #01 //005   ----------------------------------------
Label_01003D71:
 BYTE   N18  Gn3  v085
 BYTE   W18
 BYTE   N06
 BYTE   W42
 BYTE   Gs3
 BYTE   W12
 BYTE   Fn3
 BYTE   W06
 BYTE   N18  Gs3
 BYTE   W18
 BYTE   PEND 
//  #01 //006   ----------------------------------------
 BYTE   PATT
  POIN2 Label_01003D6A
//  #01 //007   ----------------------------------------
Label_01003D84:
 BYTE   N18  Gn3  v085
 BYTE   W18
 BYTE   N06
 BYTE   W42
 BYTE   Fn3
 BYTE   W18
 BYTE   N18
 BYTE   W18
 BYTE   PEND 
//  #01 //008   ----------------------------------------
 BYTE   W96
//  #01 //009   ----------------------------------------
 BYTE   W96
//  #01 //010   ----------------------------------------
Label_01003D91:
 BYTE   N12  Cn4  v059
 BYTE   N12  Gs3
 BYTE   W24
 BYTE   N24  Ds4
 BYTE   N24  Cn4
 BYTE   N24  Gs3
 BYTE   W36
 BYTE   N06  Ds4
 BYTE   N06  Cn4
 BYTE   W12
 BYTE   Dn4
 BYTE   N06  Gn4
 BYTE   W12
 BYTE   As3
 BYTE   N06  Ds4
 BYTE   W12
//  #01 //011   ----------------------------------------
 BYTE   N12  As3
 BYTE   N12  Dn4
 BYTE   W24
 BYTE   N24  As3
 BYTE   N24  Dn4
 BYTE   N24  Fn4
 BYTE   W36
 BYTE   N06
 BYTE   N06  Dn4
 BYTE   W12
 BYTE   Dn4
 BYTE   N06  Gn4
 BYTE   W12
 BYTE   Fn4
 BYTE   N06  Dn4
 BYTE   W12
//  #01 //012   ----------------------------------------
 BYTE   W12
 BYTE   Cn4
 BYTE   N06  Ds4
 BYTE   W06
 BYTE   Dn4
 BYTE   N06  Bn3
 BYTE   W06
 BYTE   Ds4
 BYTE   N06  Cn4
 BYTE   W12
 BYTE   Ds4
 BYTE   N06  Cn4
 BYTE   W24
 BYTE   Cn4
 BYTE   N06  Ds4
 BYTE   W12
 BYTE   Dn4
 BYTE   N06  Fn4
 BYTE   W12
 BYTE   As3
 BYTE   N06  Dn4
 BYTE   W12
//  #01 //013   ----------------------------------------
 BYTE   As3
 BYTE   W24
 BYTE   As3
 BYTE   N06  Dn4
 BYTE   W12
 BYTE   As3
 BYTE   W06
 BYTE   As3
 BYTE   W06
 BYTE   N24  Fn4
 BYTE   N24  Dn4
 BYTE   N24  As3
 BYTE   W42
 BYTE   N06  Fn4
 BYTE   N06  Dn4
 BYTE   W06
//  #01 //014   ----------------------------------------
 BYTE   N12  Ds4  v072
 BYTE   W18
 BYTE   N06  Cn4
 BYTE   W06
 BYTE   N36  Gn4
 BYTE   W48
 BYTE   N08
 BYTE   W08
 BYTE   Fn4
 BYTE   W08
 BYTE   Ds4
 BYTE   W08
//  #01 //015   ----------------------------------------
 BYTE   N24  Dn4
 BYTE   W30
 BYTE   N06  Fn4
 BYTE   W06
 BYTE   N24  As3
 BYTE   W36
 BYTE   As3
 BYTE   W24
//  #01 //016   ----------------------------------------
 BYTE   N72  Fn3
 BYTE   TIE  Cn4
 BYTE   W72
 BYTE   N24  Dn3
 BYTE   W24
//  #01 //017   ----------------------------------------
 BYTE   N48  En3
 BYTE   W48
 BYTE   Cn3
 BYTE   W42
 BYTE   EOT
 BYTE   Cn4
 BYTE   W06
//  #01 //018   ----------------------------------------
 BYTE   N18  As3  v085
 BYTE   N18  Dn3
 BYTE   W18
 BYTE   N06  As3
 BYTE   N06  Dn3
 BYTE   W42
 BYTE   Dn3
 BYTE   N06  As3
 BYTE   W18
 BYTE   Dn3
 BYTE   N06  As3
 BYTE   W18
//  #01 //019   ----------------------------------------
 BYTE   N18
 BYTE   N18  Dn3
 BYTE   W18
 BYTE   N06  As3
 BYTE   N06  Dn3
 BYTE   W54
 BYTE   Dn3
 BYTE   N06  As3
 BYTE   W18
 BYTE   As3
 BYTE   N06  Dn3
 BYTE   W06
//  #01 //020   ----------------------------------------
 BYTE   As2
 BYTE   N06  Fn3
 BYTE   W12
 BYTE   Fn3
 BYTE   N06  As3
 BYTE   W06
 BYTE   N18  Ds4
 BYTE   N18  As3
 BYTE   W18
 BYTE   N06
 BYTE   N06  Ds4
 BYTE   W24
 BYTE   As3
 BYTE   N06  Ds4
 BYTE   W18
 BYTE   As3
 BYTE   N06  Ds4
 BYTE   W18
//  #01 //021   ----------------------------------------
 BYTE   N18
 BYTE   N18  Gs4
 BYTE   W18
 BYTE   N06  Ds4
 BYTE   N06  Gs4
 BYTE   W12
 BYTE   Gs4
 BYTE   N06  Ds4
 BYTE   W18
 BYTE   N08  Gs4
 BYTE   N08  Ds4
 BYTE   W08
 BYTE   Cn4
 BYTE   N08  Ds4
 BYTE   W08
 BYTE   Gs3
 BYTE   N08  Cn4
 BYTE   W08
 BYTE   N04  Gs3
 BYTE   N04  Ds3
 BYTE   W04
 BYTE   Cn3
 BYTE   N04  Ds3
 BYTE   W04
 BYTE   Cn3
 BYTE   N04  Gs2
 BYTE   W04
 BYTE   Gs2
 BYTE   N04  Ds2
 BYTE   W04
 BYTE   Ds2
 BYTE   N04  Cn2
 BYTE   W04
 BYTE   Cn2
 BYTE   N04  Gs1
 BYTE   W04
//  #01 //022   ----------------------------------------
 BYTE   N06  Dn3
 BYTE   N06  As3
 BYTE   W18
 BYTE   Ds4
 BYTE   N06  As3
 BYTE   W06
 BYTE   An3
 BYTE   N06  Dn4
 BYTE   W36
 BYTE   Dn3
 BYTE   N06  As3
 BYTE   W18
 BYTE   Dn3
 BYTE   N06  As3
 BYTE   W18
//  #01 //023   ----------------------------------------
 BYTE   As3
 BYTE   N06  Ds4
 BYTE   W12
 BYTE   As3
 BYTE   N06  Dn3
 BYTE   W06
 BYTE   N18  As3
 BYTE   N18  Ds4
 BYTE   W12
 BYTE   BEND   c_v-1
 BYTE   W02
 BYTE   BEND   c_v-2
 BYTE   W02
 BYTE   BEND   c_v-4
 BYTE   W02
 BYTE   BEND   c_v-5
 BYTE   W12
 BYTE   BEND   c_v+0
 BYTE   W24
 BYTE   N06  As3
 BYTE   N06  Dn3
 BYTE   W18
 BYTE   Dn3
 BYTE   N06  As3
 BYTE   W06
//  #01 //024   ----------------------------------------
 BYTE   N96  Ds4
 BYTE   N96  As3
 BYTE   W96
//  #01 //025   ----------------------------------------
 BYTE   N12  Gs4
 BYTE   N12  Cn4
 BYTE   N12  Ds4
 BYTE   W18
 BYTE   N06  Gs4
 BYTE   N06  Cn4
 BYTE   N06  Ds4
 BYTE   W12
 BYTE   Gs4
 BYTE   N06  Cn4
 BYTE   N06  Ds4
 BYTE   W18
 BYTE   N08  Fn3
 BYTE   W08
 BYTE   Ds4
 BYTE   W08
 BYTE   As3
 BYTE   W08
 BYTE   Gs4
 BYTE   W08
 BYTE   Ds4
 BYTE   W08
 BYTE   Cs5
 BYTE   W08
//  #01 //026   ----------------------------------------
 BYTE   PATT
  POIN2 Label_01003D6A
//  #01 //027   ----------------------------------------
 BYTE   PATT
  POIN2 Label_01003D71
//  #01 //028   ----------------------------------------
 BYTE   PATT
  POIN2 Label_01003D6A
//  #01 //029   ----------------------------------------
 BYTE   PATT
  POIN2 Label_01003D84
//  #01 //030   ----------------------------------------
Label_01003F01:
 BYTE   N18  Ds3  v085
 BYTE   W18
 BYTE   N06
 BYTE   W42
 BYTE   Ds3
 BYTE   W12
 BYTE   Dn3
 BYTE   W06
 BYTE   Ds3
 BYTE   W18
 BYTE   PEND 
//  #01 //031   ----------------------------------------
Label_01003F0E:
 BYTE   N18  Fn3  v085
 BYTE   W18
 BYTE   N06
 BYTE   W42
 BYTE   Fn3
 BYTE   W12
 BYTE   En3
 BYTE   W06
 BYTE   Fn3
 BYTE   W18
 BYTE   PEND 
//  #01 //032   ----------------------------------------
Label_01003F1B:
 BYTE   N18  Gn3  v085
 BYTE   W18
 BYTE   N06
 BYTE   W42
 BYTE   Gn3
 BYTE   W12
 BYTE   Fs3
 BYTE   W06
 BYTE   N18  Gn3
 BYTE   W18
 BYTE   PEND 
//  #01 //033   ----------------------------------------
 BYTE   W12
 BYTE   N06  An3
 BYTE   W12
 BYTE   N12
 BYTE   W12
 BYTE   N06  Gn3
 BYTE   W06
 BYTE   An3
 BYTE   W12
 BYTE   Gn3
 BYTE   W06
 BYTE   An3
 BYTE   W12
 BYTE   Gn3
 BYTE   W06
 BYTE   An3
 BYTE   W12
 BYTE   Cn3
 BYTE   W06
//  #01 //034   ----------------------------------------
 BYTE   PATT
  POIN2 Label_01003F01
//  #01 //035   ----------------------------------------
 BYTE   PATT
  POIN2 Label_01003F0E
//  #01 //036   ----------------------------------------
 BYTE   PATT
  POIN2 Label_01003F1B
//  #01 //037   ----------------------------------------
 BYTE   N06  Gn3  v085
 BYTE   W06
 BYTE   Gn3
 BYTE   W30
 BYTE   Gn3
 BYTE   W06
 BYTE   Gn3
 BYTE   W30
 BYTE   N24  As3
 BYTE   W24
//  #01 //038   ----------------------------------------
 BYTE   W24
 BYTE   Ds4  v072
 BYTE   N24  Cn4
 BYTE   W36
 BYTE   N06  Ds4
 BYTE   N06  Cn4
 BYTE   W12
 BYTE   Gn4
 BYTE   N06  Dn4
 BYTE   W12
 BYTE   Ds4
 BYTE   W12
//  #01 //039   ----------------------------------------
 BYTE   N12  Dn4
 BYTE   W24
 BYTE   N24  Fn4
 BYTE   N24  Dn4
 BYTE   W36
 BYTE   N06  Fn4
 BYTE   N06  Dn4
 BYTE   W12
 BYTE   Dn4
 BYTE   N06  Gn4
 BYTE   W12
 BYTE   Fn4
 BYTE   N06  Dn4
 BYTE   W12
//  #01 //040   ----------------------------------------
 BYTE   W12
 BYTE   Cn4
 BYTE   N06  Ds4
 BYTE   W06
 BYTE   Bn3
 BYTE   N06  Dn4
 BYTE   W06
 BYTE   Cn4
 BYTE   N06  Ds4
 BYTE   W12
 BYTE   Cn4
 BYTE   N06  Ds4
 BYTE   W24
 BYTE   Ds4
 BYTE   N06  Cn4
 BYTE   W12
 BYTE   Dn4
 BYTE   N06  Fn4
 BYTE   W12
 BYTE   Dn4
 BYTE   N06  As3
 BYTE   W12
//  #01 //041   ----------------------------------------
 BYTE   As3
 BYTE   W18
 BYTE   Fn3
 BYTE   W06
 BYTE   Dn3
 BYTE   N06  Dn4
 BYTE   N06  As3
 BYTE   W18
 BYTE   Fn3
 BYTE   N06  As3
 BYTE   W06
 BYTE   Dn4
 BYTE   N06  Fn3
 BYTE   W06
 BYTE   Cn4
 BYTE   N06  Ds3
 BYTE   W06
 BYTE   Fn3
 BYTE   N06  Dn4
 BYTE   W12
 BYTE   Ds4
 BYTE   N06  Cn4
 BYTE   N06  Gs3
 BYTE   W12
 BYTE   Dn4
 BYTE   N06  Gs3
 BYTE   N06  As3
 BYTE   W12
//  #01 //042   ----------------------------------------
 BYTE   N12  Ds4  v085
 BYTE   N12  Gs3
 BYTE   W18
 BYTE   N06  Ds3
 BYTE   N06  Cn4
 BYTE   W06
 BYTE   N36  Gn4
 BYTE   N24  Cn4
 BYTE   W24
 BYTE   N12  As3
 BYTE   W18
 BYTE   N06  As2
 BYTE   W06
 BYTE   N08  Gn4
 BYTE   N24  As3
 BYTE   W08
 BYTE   N08  Fn4
 BYTE   W08
 BYTE   Ds4
 BYTE   W08
//  #01 //043   ----------------------------------------
 BYTE   N24  Dn4
 BYTE   N24  Fn3
 BYTE   W30
 BYTE   N06  As3
 BYTE   N06  Fn4
 BYTE   W06
 BYTE   N24  Dn3
 BYTE   N24  As3
 BYTE   W36
 BYTE   Dn3
 BYTE   N24  As3
 BYTE   W24
//  #01 //044   ----------------------------------------
 BYTE   N72  Fn3
 BYTE   TIE  Cn4
 BYTE   W72
 BYTE   N24  Dn3
 BYTE   W24
//  #01 //045   ----------------------------------------
 BYTE   N90  En3
 BYTE   W90
 BYTE   EOT
 BYTE   Cn4
 BYTE   W06
//  #01 //046   ----------------------------------------
 BYTE   W96
//  #01 //047   ----------------------------------------
 BYTE   W96
//  #01 //048   ----------------------------------------
 BYTE   W96
//  #01 //049   ----------------------------------------
 BYTE   W96
//  #01 //050   ----------------------------------------
 BYTE   W60
 BYTE   N18  Gn3  v053
 BYTE   N18  En4
 BYTE   N18  Gn4
 BYTE   W12
 BYTE   BEND   c_v-1
 BYTE   W02
 BYTE   BEND   c_v-3
 BYTE   W02
 BYTE   BEND   c_v-8
 BYTE   W02
 BYTE   BEND   c_v-11
 BYTE   W06
 BYTE   BEND   c_v+0
 BYTE   W12
//  #01 //051   ----------------------------------------
 BYTE   W96
//  #01 //052   ----------------------------------------
 BYTE   W96
//  #01 //053   ----------------------------------------
 BYTE   W72
 BYTE   N18
 BYTE   N18  En4
 BYTE   N18  Gn3
 BYTE   W12
 BYTE   BEND   c_v-1
 BYTE   W02
 BYTE   BEND   c_v-3
 BYTE   W02
 BYTE   BEND   c_v-8
 BYTE   W02
 BYTE   BEND   c_v-11
 BYTE   W06
//  #01 //054   ----------------------------------------
 BYTE   BEND   c_v+0
 BYTE   W96
//  #01 //055   ----------------------------------------
 BYTE   W48
 BYTE   N04  Cn4  v072
 BYTE   N04  En3
 BYTE   N04  En4
 BYTE   W06
 BYTE   Bn3
 BYTE   N04  Dn3
 BYTE   N04  Dn4
 BYTE   W06
 BYTE   N12  En4
 BYTE   N12  En3
 BYTE   N12  Cn4
 BYTE   W36
//  #01 //056   ----------------------------------------
 BYTE   N06  En4  v085
 BYTE   N06  Cn4
 BYTE   W06
 BYTE   Ds4
 BYTE   N06  Bn3
 BYTE   W06
 BYTE   TIE  En4
 BYTE   N36  Cn4
 BYTE   W36
 BYTE   N48  Gn3
 BYTE   W48
//  #01 //057   ----------------------------------------
 BYTE   As3
 BYTE   W48
 BYTE   N24  An3
 BYTE   W24
 BYTE   EOT
 BYTE   En4
 BYTE   N24  En3
 BYTE   W24
//  #01 //058   ----------------------------------------
 BYTE   N48  An2
 BYTE   N48  Fn2
 BYTE   W48
 BYTE   N06  Gn2
 BYTE   N06  Bn2
 BYTE   W12
 BYTE   Cn3
 BYTE   N06  An2
 BYTE   W24
 BYTE   N60  Dn3
 BYTE   N60  Bn2
 BYTE   W12
//  #01 //059   ----------------------------------------
 BYTE   W48
 BYTE   N06  En3
 BYTE   N06  Cn3
 BYTE   W12
 BYTE   Fn3
 BYTE   N06  Dn3
 BYTE   W24
 BYTE   N84  Gn3
 BYTE   N36  Bn2
 BYTE   W12
//  #01 //060   ----------------------------------------
 BYTE   W24
 BYTE   N24  Gn2
 BYTE   W24
 BYTE   Dn3
 BYTE   W24
 BYTE   Bn2
 BYTE   N08  En3
 BYTE   W08
 BYTE   Gn3
 BYTE   W08
 BYTE   En3
 BYTE   W08
//  #01 //061   ----------------------------------------
 BYTE   N16  As4
 BYTE   N16  Cs4
 BYTE   W16
 BYTE   N08
 BYTE   N08  An4
 BYTE   W20
 BYTE   N06  Gn3
 BYTE   N06  Gn4
 BYTE   W12
 BYTE   Fn4
 BYTE   N06  As3
 BYTE   W08
 BYTE   En4
 BYTE   N06  An3
 BYTE   W08
 BYTE   Gn3
 BYTE   N06  Dn4
 BYTE   W08
 BYTE   Fn3
 BYTE   N06  Cs4
 BYTE   W16
 BYTE   En4
 BYTE   N06  An3
 BYTE   W08
//  #01 //062   ----------------------------------------
 BYTE   Cn4
 BYTE   N06  Gn4
 BYTE   W16
 BYTE   Cn4
 BYTE   N06  An3
 BYTE   W08
 BYTE   N24
 BYTE   N24  Cn4
 BYTE   W24
 BYTE   Fn3  v059
 BYTE   W24
 BYTE   N16  An3  v085
 BYTE   N16  Cn3
 BYTE   W16
 BYTE   N08  Fn3
 BYTE   N08  Cn4
 BYTE   W08
//  #01 //063   ----------------------------------------
 BYTE   N06  Gn4
 BYTE   N06  Cn4
 BYTE   W16
 BYTE   Cn4
 BYTE   N06  En3
 BYTE   W08
 BYTE   N24  Cn4
 BYTE   N24  Fn3
 BYTE   W24
 BYTE   Cn3  v059
 BYTE   W24
 BYTE   N16  Gs3  v085
 BYTE   N06  Fn3
 BYTE   W16
 BYTE   N08  Cn4
 BYTE   N06  Fn3
 BYTE   W08
//  #01 //064   ----------------------------------------
 BYTE   N84
 BYTE   W84
 BYTE   N06  Gn3
 BYTE   W12
//  #01 //065   ----------------------------------------
 BYTE   Bn2
 BYTE   N06  En3
 BYTE   W06
 BYTE   As2
 BYTE   N06  Ds3
 BYTE   W12
 BYTE   N09  En3
 BYTE   N09  Bn2
 BYTE   W30
 BYTE   N06  En3
 BYTE   N06  Gs3
 BYTE   W06
 BYTE   Ds3
 BYTE   N06  Gn3
 BYTE   W12
 BYTE   N09  En3
 BYTE   N09  Gs3
 BYTE   W30
//  #01 //066   ----------------------------------------
 BYTE   W72
 BYTE   N24  Dn2  v059
 BYTE   N24  Gn1
 BYTE   W24
//  #01 //067   ----------------------------------------
 BYTE   GoTo
  POIN2 Label_01003D91
 BYTE   FINE

//**************** Track 2 (Midi-Chn.1) ****************//

PokemonB2W2PWTFinalTak_002:
//  #02 //000   ----------------------------------------
 BYTE   KEYSH   PokemonB2W2PWTFinalTak_key+0
 BYTE   VOICE   40
 BYTE   VOL   61*PokemonB2W2PWTFinalTak_mvl/mxv
 BYTE   PAN   c_v-26
 BYTE   BENDR  12
 BYTE   N96  Fn2  v072
 BYTE   N96  Cn2
 BYTE   W96
//  #02 //001   ----------------------------------------
 BYTE   Fn2  v078
 BYTE   N96  As2
 BYTE   W96
//  #02 //002   ----------------------------------------
 BYTE   Ds3  v085
 BYTE   N96  As2
 BYTE   W96
//  #02 //003   ----------------------------------------
 BYTE   Gs3  v092
 BYTE   N96  Ds3
 BYTE   W96
//  #02 //004   ----------------------------------------
 BYTE   W96
//  #02 //005   ----------------------------------------
 BYTE   W96
//  #02 //006   ----------------------------------------
 BYTE   W96
//  #02 //007   ----------------------------------------
 BYTE   W96
//  #02 //008   ----------------------------------------
 BYTE   W96
//  #02 //009   ----------------------------------------
Label_01003048:
 BYTE   W72
 BYTE   N08  Dn3  v085
 BYTE   W08
 BYTE   Cs3
 BYTE   W08
 BYTE   Dn3
 BYTE   W08
 BYTE   PEND 
//  #02 //010   ----------------------------------------
Label_01003052:
 BYTE   N12  Ds3  v085
 BYTE   W18
 BYTE   N06  Gs3
 BYTE   W06
 BYTE   N36  Cn4
 BYTE   W48
 BYTE   N08
 BYTE   W08
 BYTE   As3
 BYTE   W08
 BYTE   Gs3
 BYTE   W08
//  #02 //011   ----------------------------------------
 BYTE   N24  Fn3
 BYTE   W24
 BYTE   N36  Dn3
 BYTE   W48
 BYTE   N08  Gn2
 BYTE   W08
 BYTE   Fs2
 BYTE   W08
 BYTE   Gn2
 BYTE   W08
//  #02 //012   ----------------------------------------
 BYTE   N12  Gs2
 BYTE   W18
 BYTE   N06  Ds3
 BYTE   W06
 BYTE   N36  Cn4
 BYTE   W48
 BYTE   N06  Dn4
 BYTE   W12
 BYTE   Fn4
 BYTE   W12
//  #02 //013   ----------------------------------------
 BYTE   Dn3
 BYTE   N06  As3
 BYTE   W18
 BYTE   As2
 BYTE   N06  Fn3
 BYTE   W06
 BYTE   N24  Dn4
 BYTE   N24  Fn3
 BYTE   W48
 BYTE   N08  Gs2
 BYTE   W08
 BYTE   Gn2
 BYTE   W08
 BYTE   Gs2
 BYTE   W08
//  #02 //014   ----------------------------------------
 BYTE   N12  Ds3
 BYTE   W18
 BYTE   N06  Cn3
 BYTE   W06
 BYTE   N36  Gn3
 BYTE   W48
 BYTE   N08
 BYTE   W08
 BYTE   Fn3
 BYTE   W08
 BYTE   Ds3
 BYTE   W08
//  #02 //015   ----------------------------------------
 BYTE   N24  Dn3
 BYTE   W30
 BYTE   N06  Fn3
 BYTE   W06
 BYTE   N24  As2
 BYTE   W36
 BYTE   As2
 BYTE   W24
//  #02 //016   ----------------------------------------
 BYTE   N72  Fn4
 BYTE   TIE  Cn3
 BYTE   W72
 BYTE   N24  Dn4
 BYTE   W24
//  #02 //017   ----------------------------------------
 BYTE   N48  En4
 BYTE   W48
 BYTE   Cn4
 BYTE   W48
//  #02 //018   ----------------------------------------
 BYTE   EOT
 BYTE   Cn3
 BYTE   N96  Dn3  v072
 BYTE   N96  Cn2
 BYTE   W96
//  #02 //019   ----------------------------------------
 BYTE   TIE  Fn3
 BYTE   N96  Cs2
 BYTE   TIE  Cn3
 BYTE   W96
//  #02 //020   ----------------------------------------
 BYTE   N96  Dn2
 BYTE   W96
//  #02 //021   ----------------------------------------
 BYTE   EOT
 BYTE   Cn3  v065
 BYTE   N48  Cs2
 BYTE   N48  Cs3
 BYTE   W48
 BYTE   Ds3
 BYTE   N24  Ds2
 BYTE   W24
 BYTE   Gs2
 BYTE   W24
//  #02 //022   ----------------------------------------
 BYTE   N96  Cn2
 BYTE   N96  Dn3
 BYTE   W96
//  #02 //023   ----------------------------------------
 BYTE   Cn3
 BYTE   N96  Cs2
 BYTE   TIE  Fn3
 BYTE   W96
//  #02 //024   ----------------------------------------
 BYTE   N96  As3
 BYTE   N72  Dn2
 BYTE   W72
 BYTE   N24  Ds2
 BYTE   W24
//  #02 //025   ----------------------------------------
 BYTE   EOT
 BYTE   Fn3
 BYTE   N48  As3
 BYTE   N48  Gs3
 BYTE   N48  Cs2
 BYTE   N48  Cs3
 BYTE   W48
 BYTE   Ds3
 BYTE   N24  Fn3
 BYTE   N24  Ds2
 BYTE   W24
 BYTE   As3
 BYTE   N24  Cs2
 BYTE   W24
//  #02 //026   ----------------------------------------
 BYTE   W96
//  #02 //027   ----------------------------------------
 BYTE   W96
//  #02 //028   ----------------------------------------
 BYTE   W96
//  #02 //029   ----------------------------------------
 BYTE   W96
//  #02 //030   ----------------------------------------
 BYTE   W96
//  #02 //031   ----------------------------------------
 BYTE   W96
//  #02 //032   ----------------------------------------
 BYTE   W96
//  #02 //033   ----------------------------------------
 BYTE   W96
//  #02 //034   ----------------------------------------
 BYTE   W96
//  #02 //035   ----------------------------------------
 BYTE   W96
//  #02 //036   ----------------------------------------
 BYTE   W96
//  #02 //037   ----------------------------------------
 BYTE   W96
//  #02 //038   ----------------------------------------
 BYTE   W96
//  #02 //039   ----------------------------------------
 BYTE   W96
//  #02 //040   ----------------------------------------
 BYTE   W96
//  #02 //041   ----------------------------------------
 BYTE   W96
//  #02 //042   ----------------------------------------
 BYTE   W96
//  #02 //043   ----------------------------------------
 BYTE   W96
//  #02 //044   ----------------------------------------
 BYTE   W96
//  #02 //045   ----------------------------------------
 BYTE   W96
//  #02 //046   ----------------------------------------
 BYTE   W96
//  #02 //047   ----------------------------------------
 BYTE   W96
//  #02 //048   ----------------------------------------
 BYTE   W96
//  #02 //049   ----------------------------------------
 BYTE   W96
//  #02 //050   ----------------------------------------
 BYTE   TIE  Fn2  v059
 BYTE   W96
//  #02 //051   ----------------------------------------
 BYTE   W48
 BYTE   EOT
 BYTE   N48  Gn2
 BYTE   W48
//  #02 //052   ----------------------------------------
 BYTE   N96  En2
 BYTE   W96
//  #02 //053   ----------------------------------------
 BYTE   Cs3
 BYTE   W96
//  #02 //054   ----------------------------------------
 BYTE   Dn3
 BYTE   W96
//  #02 //055   ----------------------------------------
 BYTE   N24  An3
 BYTE   N24  Dn4
 BYTE   W24
 BYTE   Bn3
 BYTE   N24  En4
 BYTE   W24
 BYTE   Fn4
 BYTE   W24
 BYTE   Fs4
 BYTE   W24
//  #02 //056   ----------------------------------------
 BYTE   W96
//  #02 //057   ----------------------------------------
 BYTE   W96
//  #02 //058   ----------------------------------------
 BYTE   N48  An3  v085
 BYTE   W48
 BYTE   N06  Bn3
 BYTE   W12
 BYTE   Cn4
 BYTE   W24
 BYTE   N60  Dn4
 BYTE   W12
//  #02 //059   ----------------------------------------
 BYTE   W48
 BYTE   N06  En4
 BYTE   W12
 BYTE   Fn4
 BYTE   W24
 BYTE   N84  Gn4
 BYTE   W12
//  #02 //060   ----------------------------------------
 BYTE   W72
 BYTE   N08  En4
 BYTE   W08
 BYTE   Gn4
 BYTE   W08
 BYTE   En4
 BYTE   W08
//  #02 //061   ----------------------------------------
 BYTE   N16  As4
 BYTE   W16
 BYTE   N08  An4
 BYTE   W20
 BYTE   N06  Gn4
 BYTE   W12
 BYTE   Fn4
 BYTE   W08
 BYTE   En4
 BYTE   W08
 BYTE   Dn4
 BYTE   W08
 BYTE   Cs4
 BYTE   W16
 BYTE   En4
 BYTE   W08
//  #02 //062   ----------------------------------------
 BYTE   W16
 BYTE   Cn4
 BYTE   N06  Fn3
 BYTE   W08
 BYTE   N24
 BYTE   N24  Cn4
 BYTE   W24
 BYTE   N06  Dn4  v072
 BYTE   W16
 BYTE   Cn4
 BYTE   W08
 BYTE   N24
 BYTE   W24
//  #02 //063   ----------------------------------------
 BYTE   W16
 BYTE   N06  Fn3  v085
 BYTE   N06  Cn4
 BYTE   W08
 BYTE   N24  Fn3
 BYTE   N24  Cn4
 BYTE   W24
 BYTE   N06  Dn4  v072
 BYTE   W16
 BYTE   Cn4
 BYTE   W08
 BYTE   N24
 BYTE   W24
//  #02 //064   ----------------------------------------
 BYTE   Bn2  v085
 BYTE   W24
 BYTE   Gs2
 BYTE   W24
 BYTE   Dn3
 BYTE   W24
 BYTE   Gn3
 BYTE   W24
//  #02 //065   ----------------------------------------
 BYTE   Gs2
 BYTE   W24
 BYTE   N12  Bn2
 BYTE   W12
 BYTE   Dn3
 BYTE   W12
 BYTE   Gs2
 BYTE   W12
 BYTE   Dn3
 BYTE   W12
 BYTE   Gs2
 BYTE   W12
 BYTE   Bn2
 BYTE   W12
//  #02 //066   ----------------------------------------
 BYTE   PATT
  POIN2 Label_01003048
//  #02 //067   ----------------------------------------
 BYTE   GoTo
  POIN2 Label_01003052
 BYTE   FINE

//**************** Track 3 (Midi-Chn.2) ****************//

PokemonB2W2PWTFinalTak_003:
//  #03 //000   ----------------------------------------
 BYTE   KEYSH   PokemonB2W2PWTFinalTak_key+0
 BYTE   VOICE   36
 BYTE   VOL   76*PokemonB2W2PWTFinalTak_mvl/mxv
 BYTE   BENDR  12
 BYTE   W96
//  #03 //001   ----------------------------------------
 BYTE   W96
//  #03 //002   ----------------------------------------
 BYTE   W96
//  #03 //003   ----------------------------------------
 BYTE   W96
//  #03 //004   ----------------------------------------
 BYTE   N15  Cn1  v047
 BYTE   W18
 BYTE   N06
 BYTE   W06
 BYTE   N12  Cn2
 BYTE   W12
 BYTE   Gn1
 BYTE   W12
 BYTE   Cn1
 BYTE   W12
 BYTE   N18  Cn2
 BYTE   W18
 BYTE   N15
 BYTE   W15
 BYTE   N03  Ds1  v027
 BYTE   W03
//  #03 //005   ----------------------------------------
 BYTE   N15  Cn1  v047
 BYTE   W18
 BYTE   N06
 BYTE   W06
 BYTE   N12  Cn2
 BYTE   W12
 BYTE   Gn1
 BYTE   W12
 BYTE   Cn1
 BYTE   W12
 BYTE   N18  Cs2
 BYTE   W18
 BYTE   N15
 BYTE   W15
 BYTE   N03  Cs1  v027
 BYTE   W03
//  #03 //006   ----------------------------------------
 BYTE   N15  Cn1  v047
 BYTE   W18
 BYTE   N06
 BYTE   W06
 BYTE   N12  Cn2
 BYTE   W12
 BYTE   Gn1
 BYTE   W12
 BYTE   Cn1
 BYTE   W12
 BYTE   N15  Cn2
 BYTE   W18
 BYTE   N12  Cn1
 BYTE   W15
 BYTE   N03  Cn1  v027
 BYTE   W03
//  #03 //007   ----------------------------------------
 BYTE   N15  Cn1  v047
 BYTE   W18
 BYTE   N06
 BYTE   W06
 BYTE   N12  Cn2
 BYTE   W12
 BYTE   Gn1
 BYTE   W12
 BYTE   Cn1
 BYTE   W12
 BYTE   N15  Cs1
 BYTE   W18
 BYTE   N12
 BYTE   W15
 BYTE   N03  Cs1  v027
 BYTE   W03
//  #03 //008   ----------------------------------------
 BYTE   N18  GnM1  v047
 BYTE   W18
 BYTE   N06
 BYTE   W06
 BYTE   N12  Fs2
 BYTE   W06
 BYTE   BEND   c_v+1
 BYTE   W12
 BYTE   BEND   c_v+0
 BYTE   N12  Cs2
 BYTE   W06
 BYTE   BEND   c_v+1
 BYTE   W12
 BYTE   BEND   c_v+0
 BYTE   N12  As1
 BYTE   W06
 BYTE   BEND   c_v+1
 BYTE   W12
 BYTE   BEND   c_v+0
 BYTE   N12  Fs1
 BYTE   W06
 BYTE   BEND   c_v+1
 BYTE   W12
//  #03 //009   ----------------------------------------
 BYTE   BEND   c_v+0
 BYTE   N06  GnM1
 BYTE   W06
 BYTE   GnM1
 BYTE   W06
 BYTE   Gn0
 BYTE   W06
 BYTE   GnM1
 BYTE   W06
 BYTE   N12  Fs2
 BYTE   W06
 BYTE   BEND   c_v+1
 BYTE   W06
 BYTE   N12  Cs2
 BYTE   W06
 BYTE   BEND   c_v+0
 BYTE   W06
 BYTE   N06  Gn0
 BYTE   W06
 BYTE   N12  Dn2
 BYTE   W06
 BYTE   N06  Gn0
 BYTE   W06
 BYTE   Gn0
 BYTE   W06
 BYTE   Gn0
 BYTE   W06
 BYTE   N18  Dn2
 BYTE   W18
//  #03 //010   ----------------------------------------
Label_01025C3C:
 BYTE   W96
//  #03 //011   ----------------------------------------
 BYTE   W96
//  #03 //012   ----------------------------------------
 BYTE   W96
//  #03 //013   ----------------------------------------
 BYTE   W96
//  #03 //014   ----------------------------------------
 BYTE   W96
//  #03 //015   ----------------------------------------
 BYTE   W96
//  #03 //016   ----------------------------------------
 BYTE   W96
//  #03 //017   ----------------------------------------
 BYTE   W96
//  #03 //018   ----------------------------------------
 BYTE   N12  Cn0  v047
 BYTE   W18
 BYTE   Cn2
 BYTE   W18
 BYTE   Gn0
 BYTE   W12
 BYTE   N06  Cn0
 BYTE   W06
 BYTE   Cn0
 BYTE   W06
 BYTE   N12  Cn2
 BYTE   W12
 BYTE   Cn2
 BYTE   W12
 BYTE   Cn0
 BYTE   W12
//  #03 //019   ----------------------------------------
 BYTE   Cs0
 BYTE   W18
 BYTE   Cs2
 BYTE   W18
 BYTE   N06  Cs0
 BYTE   W06
 BYTE   Cs0
 BYTE   W06
 BYTE   Cs1
 BYTE   W06
 BYTE   Cs0
 BYTE   W06
 BYTE   Cs1
 BYTE   W06
 BYTE   Cs0
 BYTE   W06
 BYTE   N12  Cs2
 BYTE   W12
 BYTE   BEND   c_v-1
 BYTE   N12  Gs0
 BYTE   W06
 BYTE   BEND   c_v+0
 BYTE   W06
//  #03 //020   ----------------------------------------
 BYTE   N12  Dn0
 BYTE   W18
 BYTE   Dn2
 BYTE   W18
 BYTE   N06  Dn0
 BYTE   W06
 BYTE   Dn0
 BYTE   W06
 BYTE   Dn0
 BYTE   W06
 BYTE   Dn0
 BYTE   W06
 BYTE   BEND   c_v-1
 BYTE   N12  Dn2
 BYTE   W06
 BYTE   BEND   c_v+0
 BYTE   W06
 BYTE   BEND   c_v-1
 BYTE   N12
 BYTE   W06
 BYTE   BEND   c_v+0
 BYTE   W06
 BYTE   BEND   c_v-1
 BYTE   N12  An0
 BYTE   W06
 BYTE   BEND   c_v+0
 BYTE   W06
//  #03 //021   ----------------------------------------
 BYTE   N12  Cs0
 BYTE   W18
 BYTE   Cs2
 BYTE   W12
 BYTE   BEND   c_v-1
 BYTE   N12  Gs0
 BYTE   W06
 BYTE   BEND   c_v+0
 BYTE   W12
 BYTE   N08  Ds0
 BYTE   W08
 BYTE   Gs0
 BYTE   W08
 BYTE   Cn1
 BYTE   W08
 BYTE   Gs1
 BYTE   W08
 BYTE   Cn2
 BYTE   W08
 BYTE   Ds2
 BYTE   W08
//  #03 //022   ----------------------------------------
 BYTE   N12  Cn0
 BYTE   W18
 BYTE   Cn2
 BYTE   W18
 BYTE   Gn0
 BYTE   W12
 BYTE   N06  Cn0
 BYTE   W06
 BYTE   Cn0
 BYTE   W06
 BYTE   N12  Cn2
 BYTE   W12
 BYTE   BEND   c_v-1
 BYTE   N12
 BYTE   W06
 BYTE   BEND   c_v+0
 BYTE   W06
 BYTE   BEND   c_v-1
 BYTE   N12  Cn0
 BYTE   W06
 BYTE   BEND   c_v+0
 BYTE   W06
//  #03 //023   ----------------------------------------
 BYTE   N12  Cs0
 BYTE   W18
 BYTE   Cs2
 BYTE   W18
 BYTE   N06  Cs0
 BYTE   W06
 BYTE   Cs0
 BYTE   W06
 BYTE   Cs0
 BYTE   W06
 BYTE   Cs0
 BYTE   W06
 BYTE   Cs1
 BYTE   W06
 BYTE   Cs0
 BYTE   W06
 BYTE   N12  Cs2
 BYTE   W12
 BYTE   BEND   c_v-1
 BYTE   N12  Gs0
 BYTE   W06
 BYTE   BEND   c_v+0
 BYTE   W06
//  #03 //024   ----------------------------------------
 BYTE   N12  Dn0
 BYTE   W16
 BYTE   Dn2
 BYTE   W16
 BYTE   Dn0
 BYTE   W16
 BYTE   N06  AsM1
 BYTE   W06
 BYTE   BEND   c_v-1
 BYTE   N12  Dn2
 BYTE   W06
 BYTE   BEND   c_v+0
 BYTE   W06
 BYTE   N06  AsM1
 BYTE   W06
 BYTE   N12  As1
 BYTE   W06
 BYTE   Ds0
 BYTE   W06
 BYTE   Ds2
 BYTE   W12
//  #03 //025   ----------------------------------------
 BYTE   Cs0
 BYTE   W18
 BYTE   Cs2
 BYTE   W12
 BYTE   BEND   c_v-1
 BYTE   N12  Gs0
 BYTE   W06
 BYTE   BEND   c_v+0
 BYTE   W12
 BYTE   N08  Cs0
 BYTE   W08
 BYTE   Cs1
 BYTE   W08
 BYTE   Fn1
 BYTE   W08
 BYTE   Cs2
 BYTE   W08
 BYTE   Fn2
 BYTE   W08
 BYTE   Gs2
 BYTE   W08
//  #03 //026   ----------------------------------------
 BYTE   N15  Cn1
 BYTE   W18
 BYTE   N06
 BYTE   W06
 BYTE   BEND   c_v-1
 BYTE   N12  Cn2
 BYTE   W06
 BYTE   BEND   c_v+0
 BYTE   W06
 BYTE   BEND   c_v-1
 BYTE   N12  Gn1
 BYTE   W06
 BYTE   BEND   c_v+0
 BYTE   W06
 BYTE   BEND   c_v-1
 BYTE   N12  Cn1
 BYTE   W06
 BYTE   BEND   c_v+0
 BYTE   W06
 BYTE   N18  Cn2
 BYTE   W18
 BYTE   N15
 BYTE   W15
 BYTE   N03  Ds1  v027
 BYTE   W03
//  #03 //027   ----------------------------------------
 BYTE   N15  Cn1  v047
 BYTE   W18
 BYTE   N06
 BYTE   W06
 BYTE   BEND   c_v-1
 BYTE   N12  Cn2
 BYTE   W06
 BYTE   BEND   c_v+0
 BYTE   W06
 BYTE   BEND   c_v-1
 BYTE   N12  Gn1
 BYTE   W06
 BYTE   BEND   c_v+0
 BYTE   W06
 BYTE   BEND   c_v-1
 BYTE   N12  Cn1
 BYTE   W06
 BYTE   BEND   c_v+0
 BYTE   W06
 BYTE   N18  Cs2
 BYTE   W18
 BYTE   N15
 BYTE   W15
 BYTE   N03  Cs1  v027
 BYTE   W03
//  #03 //028   ----------------------------------------
 BYTE   N15  Cn1  v047
 BYTE   W18
 BYTE   N06
 BYTE   W06
 BYTE   BEND   c_v-1
 BYTE   N12  Cn2
 BYTE   W06
 BYTE   BEND   c_v+0
 BYTE   W06
 BYTE   BEND   c_v-1
 BYTE   N12  Gn1
 BYTE   W06
 BYTE   BEND   c_v+0
 BYTE   W06
 BYTE   BEND   c_v-1
 BYTE   N12  Cn1
 BYTE   W06
 BYTE   BEND   c_v+0
 BYTE   W06
 BYTE   N15  Cn2
 BYTE   W18
 BYTE   N12  Cn1
 BYTE   W15
 BYTE   N03  Cn1  v027
 BYTE   W03
//  #03 //029   ----------------------------------------
 BYTE   N15  Cn1  v047
 BYTE   W18
 BYTE   N06
 BYTE   W06
 BYTE   BEND   c_v-1
 BYTE   N12  Cn2
 BYTE   W06
 BYTE   BEND   c_v+0
 BYTE   W06
 BYTE   BEND   c_v-1
 BYTE   N12  Gn1
 BYTE   W06
 BYTE   BEND   c_v+0
 BYTE   W06
 BYTE   BEND   c_v-1
 BYTE   N12  Cn1
 BYTE   W06
 BYTE   BEND   c_v+0
 BYTE   W06
 BYTE   N15  Cs1
 BYTE   W18
 BYTE   N12
 BYTE   W15
 BYTE   N03  Cs1  v027
 BYTE   W03
//  #03 //030   ----------------------------------------
Label_01025DB4:
 BYTE   N15  Gs0  v047
 BYTE   W18
 BYTE   N06
 BYTE   W06
 BYTE   BEND   c_v-1
 BYTE   N12  Gs1
 BYTE   W06
 BYTE   BEND   c_v+0
 BYTE   W06
 BYTE   BEND   c_v-1
 BYTE   N12  Ds1
 BYTE   W06
 BYTE   BEND   c_v+0
 BYTE   W06
 BYTE   N06  Cn1
 BYTE   W06
 BYTE   Cn2
 BYTE   W12
 BYTE   N18
 BYTE   W18
 BYTE   BEND   c_v-1
 BYTE   N12  Gn1
 BYTE   W06
 BYTE   BEND   c_v+0
 BYTE   W06
 BYTE   PEND 
//  #03 //031   ----------------------------------------
Label_01025DD9:
 BYTE   N15  As0  v047
 BYTE   W18
 BYTE   N06
 BYTE   W06
 BYTE   BEND   c_v-1
 BYTE   N12  As1
 BYTE   W06
 BYTE   BEND   c_v+0
 BYTE   W06
 BYTE   BEND   c_v-1
 BYTE   N12  Fn1
 BYTE   W06
 BYTE   BEND   c_v+0
 BYTE   W06
 BYTE   N06  Dn1
 BYTE   W06
 BYTE   Dn2
 BYTE   W12
 BYTE   BEND   c_v-1
 BYTE   N18
 BYTE   W06
 BYTE   BEND   c_v+0
 BYTE   W12
 BYTE   N12  As1
 BYTE   W12
 BYTE   PEND 
//  #03 //032   ----------------------------------------
Label_01025DFE:
 BYTE   N15  Cn1  v047
 BYTE   W18
 BYTE   N06
 BYTE   W06
 BYTE   BEND   c_v-1
 BYTE   N12  Cn2
 BYTE   W06
 BYTE   BEND   c_v+0
 BYTE   W06
 BYTE   BEND   c_v-1
 BYTE   N12  Gn1
 BYTE   W06
 BYTE   BEND   c_v+0
 BYTE   W06
 BYTE   N06  Cn1
 BYTE   W06
 BYTE   Cn1
 BYTE   W06
 BYTE   BEND   c_v-1
 BYTE   N12  Fn2
 BYTE   W06
 BYTE   BEND   c_v+0
 BYTE   W06
 BYTE   BEND   c_v-1
 BYTE   N12  Dn2
 BYTE   W06
 BYTE   BEND   c_v+0
 BYTE   W06
 BYTE   BEND   c_v-1
 BYTE   N12  As1
 BYTE   W06
 BYTE   BEND   c_v+0
 BYTE   W06
 BYTE   PEND 
//  #03 //033   ----------------------------------------
 BYTE   N15  Fn1
 BYTE   W18
 BYTE   N06  Cn1
 BYTE   W06
 BYTE   N12  Fn2
 BYTE   W12
 BYTE   Cn2
 BYTE   W12
 BYTE   N06  Fn0
 BYTE   W06
 BYTE   Cn1
 BYTE   W06
 BYTE   BEND   c_v-1
 BYTE   N12  Fn2
 BYTE   W06
 BYTE   BEND   c_v+0
 BYTE   W06
 BYTE   BEND   c_v-1
 BYTE   N12  Cn2
 BYTE   W06
 BYTE   BEND   c_v+0
 BYTE   W06
 BYTE   N12  Fn1
 BYTE   W12
//  #03 //034   ----------------------------------------
 BYTE   PATT
  POIN2 Label_01025DB4
//  #03 //035   ----------------------------------------
 BYTE   PATT
  POIN2 Label_01025DD9
//  #03 //036   ----------------------------------------
 BYTE   PATT
  POIN2 Label_01025DFE
//  #03 //037   ----------------------------------------
 BYTE   N06  Gn1  v047
 BYTE   W06
 BYTE   Gn1
 BYTE   W06
 BYTE   Gn0
 BYTE   W12
 BYTE   Gn0
 BYTE   W12
 BYTE   Gn1
 BYTE   W06
 BYTE   Gn1
 BYTE   W06
 BYTE   Gn0
 BYTE   W12
 BYTE   Gn0
 BYTE   W12
 BYTE   N24
 BYTE   N24  Gn1
 BYTE   W24
//  #03 //038   ----------------------------------------
Label_01025E76:
 BYTE   N15  Gs0  v047
 BYTE   W18
 BYTE   N06
 BYTE   W06
 BYTE   N15  Gs1
 BYTE   W18
 BYTE   N06  Gs0
 BYTE   W06
 BYTE   N15  Cn2
 BYTE   W18
 BYTE   N06  Gs0
 BYTE   W06
 BYTE   N12  Ds2
 BYTE   W12
 BYTE   Cn2
 BYTE   W12
 BYTE   PEND 
//  #03 //039   ----------------------------------------
Label_01025E8E:
 BYTE   N15  As0  v047
 BYTE   W18
 BYTE   N06
 BYTE   W06
 BYTE   N15  As1
 BYTE   W18
 BYTE   N06  As0
 BYTE   W06
 BYTE   As0
 BYTE   W06
 BYTE   As0
 BYTE   W06
 BYTE   N12  Fn2
 BYTE   W12
 BYTE   As0
 BYTE   W12
 BYTE   Ds2
 BYTE   W12
 BYTE   PEND 
//  #03 //040   ----------------------------------------
 BYTE   PATT
  POIN2 Label_01025E76
//  #03 //041   ----------------------------------------
 BYTE   PATT
  POIN2 Label_01025E8E
//  #03 //042   ----------------------------------------
 BYTE   N15  Gs0  v047
 BYTE   W18
 BYTE   N06
 BYTE   W06
 BYTE   N15  Gs1
 BYTE   W18
 BYTE   N06  Gs0
 BYTE   W06
 BYTE   Gs0
 BYTE   W06
 BYTE   Cn2
 BYTE   W12
 BYTE   Cn2
 BYTE   W06
 BYTE   N12  Gs1
 BYTE   W12
 BYTE   Gs0
 BYTE   W12
//  #03 //043   ----------------------------------------
 BYTE   PATT
  POIN2 Label_01025E8E
//  #03 //044   ----------------------------------------
 BYTE   N18  Cn0  v047
 BYTE   W18
 BYTE   N06
 BYTE   W06
 BYTE   N12  Gn0
 BYTE   W12
 BYTE   N06
 BYTE   W06
 BYTE   Gn0
 BYTE   W06
 BYTE   N12
 BYTE   W12
 BYTE   N06
 BYTE   W06
 BYTE   Gn0
 BYTE   W06
 BYTE   Gn0
 BYTE   W06
 BYTE   Gn0
 BYTE   W06
 BYTE   N12
 BYTE   W12
//  #03 //045   ----------------------------------------
 BYTE   N18  Cn0
 BYTE   W18
 BYTE   N06
 BYTE   W06
 BYTE   N12  Cn1
 BYTE   W12
 BYTE   Cn0
 BYTE   W12
 BYTE   Cn0
 BYTE   W12
 BYTE   Cn0
 BYTE   W24
 BYTE   Cn0
 BYTE   W12
//  #03 //046   ----------------------------------------
 BYTE   W24
 BYTE   Bn1
 BYTE   W60
 BYTE   N06  Fs0
 BYTE   W06
 BYTE   Gn0
 BYTE   W06
//  #03 //047   ----------------------------------------
 BYTE   N12  Gs0
 BYTE   W12
 BYTE   N06  Ds2
 BYTE   W12
 BYTE   N12
 BYTE   W60
 BYTE   N06  Gn0
 BYTE   W06
 BYTE   Gs0
 BYTE   W06
//  #03 //048   ----------------------------------------
 BYTE   N12  An0
 BYTE   W12
 BYTE   N06  En2
 BYTE   W12
 BYTE   N12
 BYTE   W24
 BYTE   N06
 BYTE   W36
 BYTE   Gs0
 BYTE   W06
 BYTE   An0
 BYTE   W06
//  #03 //049   ----------------------------------------
 BYTE   W96
//  #03 //050   ----------------------------------------
 BYTE   N12  Fn0
 BYTE   W36
 BYTE   Fn0
 BYTE   W36
 BYTE   An0
 BYTE   W12
 BYTE   Fn0
 BYTE   W12
//  #03 //051   ----------------------------------------
 BYTE   Fn0
 BYTE   W36
 BYTE   Fn0
 BYTE   W24
 BYTE   Fn2
 BYTE   W12
 BYTE   Cn2
 BYTE   W12
 BYTE   Fn0
 BYTE   W12
//  #03 //052   ----------------------------------------
 BYTE   En0
 BYTE   W24
 BYTE   BnM1
 BYTE   W24
 BYTE   En0
 BYTE   W24
 BYTE   Gn0
 BYTE   W24
//  #03 //053   ----------------------------------------
 BYTE   Cs0
 BYTE   W24
 BYTE   AnM1
 BYTE   W12
 BYTE   Cs0
 BYTE   W30
 BYTE   Cs2
 BYTE   W06
 BYTE   AnM1
 BYTE   W12
 BYTE   An1
 BYTE   W12
//  #03 //054   ----------------------------------------
 BYTE   Dn0
 BYTE   W18
 BYTE   AnM1
 BYTE   W18
 BYTE   Dn0
 BYTE   W18
 BYTE   Dn0
 BYTE   W12
 BYTE   N06
 BYTE   W06
 BYTE   N12
 BYTE   W12
 BYTE   An0
 BYTE   W12
//  #03 //055   ----------------------------------------
 BYTE   Gn0
 BYTE   W18
 BYTE   Dn0
 BYTE   W18
 BYTE   Gn0
 BYTE   W18
 BYTE   Dn0
 BYTE   W12
 BYTE   N06
 BYTE   W06
 BYTE   N12
 BYTE   W12
 BYTE   N06  Cn2
 BYTE   N12  Gn0
 BYTE   W06
 BYTE   N06  Dn2
 BYTE   W06
//  #03 //056   ----------------------------------------
 BYTE   N12  Gn0
 BYTE   W18
 BYTE   Cn0
 BYTE   W06
 BYTE   N06  Bn1
 BYTE   W06
 BYTE   Cn2
 BYTE   W06
 BYTE   Cn1
 BYTE   W06
 BYTE   N12  Gn0
 BYTE   W24
 BYTE   En0
 BYTE   W18
 BYTE   Cn0
 BYTE   W12
//  #03 //057   ----------------------------------------
 BYTE   Cs0
 BYTE   W18
 BYTE   AnM1
 BYTE   W18
 BYTE   Gn0
 BYTE   N12  An1
 BYTE   W18
 BYTE   Cs0
 BYTE   W18
 BYTE   AnM1
 BYTE   W12
 BYTE   Gn0
 BYTE   W12
//  #03 //058   ----------------------------------------
 BYTE   Fn0
 BYTE   W18
 BYTE   Cn0
 BYTE   W18
 BYTE   Fn0
 BYTE   W12
 BYTE   N04
 BYTE   W06
 BYTE   Fn2
 BYTE   W12
 BYTE   Fn0
 BYTE   W06
 BYTE   BEND   c_v-1
 BYTE   N12  An0
 BYTE   W06
 BYTE   BEND   c_v+0
 BYTE   W06
 BYTE   N12  Fn0
 BYTE   W12
//  #03 //059   ----------------------------------------
 BYTE   Fn0
 BYTE   W18
 BYTE   Cn0
 BYTE   W18
 BYTE   Fn0
 BYTE   W12
 BYTE   N04  Cn0
 BYTE   W06
 BYTE   Cn0
 BYTE   W06
 BYTE   An1
 BYTE   W06
 BYTE   Cn0
 BYTE   W06
 BYTE   BEND   c_v-1
 BYTE   N12  Bn1
 BYTE   W06
 BYTE   BEND   c_v+0
 BYTE   W06
 BYTE   N12  Fn0
 BYTE   W12
//  #03 //060   ----------------------------------------
 BYTE   N08  En0
 BYTE   W16
 BYTE   En0
 BYTE   W08
 BYTE   N12  BnM1
 BYTE   W24
 BYTE   N08  En0
 BYTE   W16
 BYTE   En0
 BYTE   W08
 BYTE   N12  Gn0
 BYTE   W24
//  #03 //061   ----------------------------------------
 BYTE   Cs0
 BYTE   W24
 BYTE   AnM1
 BYTE   W24
 BYTE   Gn0
 BYTE   W24
 BYTE   En0
 BYTE   W24
//  #03 //062   ----------------------------------------
 BYTE   Cn0
 BYTE   W18
 BYTE   AnM1
 BYTE   W18
 BYTE   Fn0
 BYTE   W16
 BYTE   N05  Dn1
 BYTE   W02
 BYTE   N06  Dn0
 BYTE   W10
 BYTE   N05  Dn1
 BYTE   W02
 BYTE   N06  Dn0
 BYTE   W06
 BYTE   N12
 BYTE   W18
 BYTE   N06  An0
 BYTE   W06
//  #03 //063   ----------------------------------------
 BYTE   N12  Fn0
 BYTE   W18
 BYTE   Dn0
 BYTE   W18
 BYTE   Gs0
 BYTE   W20
 BYTE   N04  Dn0
 BYTE   W08
 BYTE   Dn0
 BYTE   W08
 BYTE   N12
 BYTE   W10
 BYTE   N05  Gs1
 BYTE   W02
 BYTE   N12  Gs0
 BYTE   W12
//  #03 //064   ----------------------------------------
 BYTE   En0
 BYTE   W18
 BYTE   N06
 BYTE   W06
 BYTE   N12  BnM1
 BYTE   N12  Gs1
 BYTE   W18
 BYTE   N06  Bn0
 BYTE   N06  BnM1
 BYTE   W12
 BYTE   Gs0
 BYTE   W12
 BYTE   Gs0
 BYTE   W06
 BYTE   N12  BnM1
 BYTE   W12
 BYTE   En0
 BYTE   W12
//  #03 //065   ----------------------------------------
 BYTE   En0
 BYTE   W18
 BYTE   N06
 BYTE   W06
 BYTE   N12  BnM1
 BYTE   N09  En1
 BYTE   W12
 BYTE   N12  BnM1
 BYTE   N09  Bn0
 BYTE   W18
 BYTE   N06  BnM1
 BYTE   N06  Gs1
 BYTE   W12
 BYTE   BnM1
 BYTE   N06  Gs1
 BYTE   W06
 BYTE   N12  Bn0
 BYTE   W12
 BYTE   BEND   c_v-1
 BYTE   N12  Gs0
 BYTE   W06
 BYTE   BEND   c_v+0
 BYTE   W06
//  #03 //066   ----------------------------------------
 BYTE   N06  En0
 BYTE   W06
 BYTE   En0
 BYTE   W06
 BYTE   En0
 BYTE   W06
 BYTE   En0
 BYTE   W06
 BYTE   N12  Fn2
 BYTE   W06
 BYTE   BEND   c_v+2
 BYTE   W06
 BYTE   BEND   c_v+0
 BYTE   N06  En0
 BYTE   W06
 BYTE   N12  Dn2
 BYTE   W06
 BYTE   BEND   c_v+2
 BYTE   W06
 BYTE   BEND   c_v+0
 BYTE   N06  Gn0
 BYTE   W06
 BYTE   N12  An1
 BYTE   W06
 BYTE   BEND   c_v+2
 BYTE   W06
 BYTE   BEND   c_v+0
 BYTE   W24
//  #03 //067   ----------------------------------------
 BYTE   GoTo
  POIN2 Label_01025C3C
 BYTE   FINE

//**************** Track 4 (Midi-Chn.3) ****************//

PokemonB2W2PWTFinalTak_004:
//  #04 //000   ----------------------------------------
 BYTE   KEYSH   PokemonB2W2PWTFinalTak_key+0
 BYTE   VOICE   56
 BYTE   VOL   77*PokemonB2W2PWTFinalTak_mvl/mxv
 BYTE   PAN   c_v-20
 BYTE   BENDR  12
 BYTE   W96
//  #04 //001   ----------------------------------------
 BYTE   W96
//  #04 //002   ----------------------------------------
 BYTE   W96
//  #04 //003   ----------------------------------------
 BYTE   W96
//  #04 //004   ----------------------------------------
 BYTE   N16  Dn4  v085
 BYTE   N16  Gn4
 BYTE   N16  Cn5
 BYTE   W18
 BYTE   N04  Dn4
 BYTE   N04  Gn4
 BYTE   N04  Cn5
 BYTE   W78
//  #04 //005   ----------------------------------------
 BYTE   N16  Gn4
 BYTE   N16  Dn4
 BYTE   N16  Cn5
 BYTE   W18
 BYTE   N04  Gn4
 BYTE   N04  Dn4
 BYTE   N04  Cn5
 BYTE   W42
 BYTE   Gs4
 BYTE   N04  Ds4
 BYTE   N04  Cs5
 BYTE   W12
 BYTE   As4
 BYTE   N04  Cn4
 BYTE   N04  Fn4
 BYTE   W06
 BYTE   N16  Cs5
 BYTE   N16  Ds4
 BYTE   N16  Gs4
 BYTE   W18
//  #04 //006   ----------------------------------------
 BYTE   Cn5
 BYTE   N16  Dn4
 BYTE   N16  Gn4
 BYTE   W18
 BYTE   N04  Cn5
 BYTE   N04  Dn4
 BYTE   N04  Gn4
 BYTE   W78
//  #04 //007   ----------------------------------------
 BYTE   N16
 BYTE   N16  Dn4
 BYTE   N16  Cn5
 BYTE   W18
 BYTE   N04
 BYTE   N04  Dn4
 BYTE   N04  Gn4
 BYTE   W42
 BYTE   Fn4
 BYTE   N04  Cn4
 BYTE   N04  As4
 BYTE   W18
 BYTE   N16  Fn4
 BYTE   N16  Cn4
 BYTE   N16  As4
 BYTE   W18
//  #04 //008   ----------------------------------------
 BYTE   N24  Gn4
 BYTE   W14
 BYTE   BEND   c_v-1
 BYTE   W02
 BYTE   BEND   c_v-2
 BYTE   W03
 BYTE   BEND   c_v-3
 BYTE   W02
 BYTE   BEND   c_v-6
 BYTE   W03
 BYTE   BEND   c_v-11
 BYTE   W24
 BYTE   BEND   c_v+0
 BYTE   W48
//  #04 //009   ----------------------------------------
 BYTE   W96
//  #04 //010   ----------------------------------------
Label_010260D1:
 BYTE   W96
//  #04 //011   ----------------------------------------
 BYTE   W96
//  #04 //012   ----------------------------------------
 BYTE   W96
//  #04 //013   ----------------------------------------
 BYTE   W96
//  #04 //014   ----------------------------------------
 BYTE   W96
//  #04 //015   ----------------------------------------
 BYTE   W96
//  #04 //016   ----------------------------------------
 BYTE   W96
//  #04 //017   ----------------------------------------
 BYTE   W96
//  #04 //018   ----------------------------------------
 BYTE   W96
//  #04 //019   ----------------------------------------
 BYTE   W96
//  #04 //020   ----------------------------------------
 BYTE   W96
//  #04 //021   ----------------------------------------
 BYTE   W96
//  #04 //022   ----------------------------------------
 BYTE   W96
//  #04 //023   ----------------------------------------
 BYTE   W96
//  #04 //024   ----------------------------------------
 BYTE   W96
//  #04 //025   ----------------------------------------
 BYTE   W96
//  #04 //026   ----------------------------------------
 BYTE   N16  Cn5  v085
 BYTE   N16  Gn4
 BYTE   N16  Dn4
 BYTE   W18
 BYTE   N04  Cn5
 BYTE   N04  Gn4
 BYTE   N04  Dn4
 BYTE   W78
//  #04 //027   ----------------------------------------
 BYTE   N16  Cn5
 BYTE   N16  Dn4
 BYTE   N16  Gn4
 BYTE   W18
 BYTE   N04
 BYTE   N04  Dn4
 BYTE   N04  Cn5
 BYTE   W42
 BYTE   Cs5
 BYTE   N04  Ds4
 BYTE   N04  Gs4
 BYTE   W12
 BYTE   As4
 BYTE   N04  Cn4
 BYTE   N04  Fn4
 BYTE   W06
 BYTE   N16  Gs4
 BYTE   N16  Ds4
 BYTE   N16  Cs5
 BYTE   W18
//  #04 //028   ----------------------------------------
 BYTE   Gn4
 BYTE   N16  Dn4
 BYTE   N16  Cn5
 BYTE   W18
 BYTE   N04  Gn4
 BYTE   N04  Dn4
 BYTE   N04  Cn5
 BYTE   W78
//  #04 //029   ----------------------------------------
 BYTE   N16
 BYTE   N16  Dn4
 BYTE   N16  Gn4
 BYTE   W18
 BYTE   N04
 BYTE   N04  Dn4
 BYTE   N04  Cn5
 BYTE   W42
 BYTE   Fn4
 BYTE   N04  Cn4
 BYTE   N04  As4
 BYTE   W18
 BYTE   N16  Fn4
 BYTE   N16  Cn4
 BYTE   N16  As4
 BYTE   W18
//  #04 //030   ----------------------------------------
 BYTE   N18  Ds3  v047
 BYTE   N18  Gs3
 BYTE   W18
 BYTE   N06
 BYTE   N06  Ds3
 BYTE   W42
 BYTE   Gs3
 BYTE   N06  Ds3
 BYTE   W12
 BYTE   Dn3
 BYTE   N06  Gn3
 BYTE   W06
 BYTE   Gs3
 BYTE   N06  Ds3
 BYTE   W18
//  #04 //031   ----------------------------------------
 BYTE   N18  As3
 BYTE   N18  Fn3
 BYTE   W18
 BYTE   N06  As3
 BYTE   N06  Fn3
 BYTE   W42
 BYTE   As3
 BYTE   N06  Fn3
 BYTE   W12
 BYTE   An3
 BYTE   N06  En3
 BYTE   W06
 BYTE   Fn3
 BYTE   N06  As3
 BYTE   W18
//  #04 //032   ----------------------------------------
 BYTE   N18  Gn3
 BYTE   N18  Ds4
 BYTE   W18
 BYTE   N06  Gn3
 BYTE   N06  Ds4
 BYTE   W42
 BYTE   Ds4
 BYTE   N06  Gn3
 BYTE   W12
 BYTE   Fs3
 BYTE   N06  Dn4
 BYTE   W06
 BYTE   N18  Ds4
 BYTE   N18  Gn3
 BYTE   W18
//  #04 //033   ----------------------------------------
 BYTE   W12
 BYTE   N06  Fn4
 BYTE   N06  An3
 BYTE   W12
 BYTE   N12
 BYTE   N12  Fn4
 BYTE   W12
 BYTE   N06  Ds4
 BYTE   N06  Gn3
 BYTE   W06
 BYTE   An3
 BYTE   N06  Fn4
 BYTE   W12
 BYTE   Gn3
 BYTE   N06  Ds4
 BYTE   W06
 BYTE   Fn4
 BYTE   N06  An3
 BYTE   W12
 BYTE   Gn3
 BYTE   N06  Ds4
 BYTE   W06
 BYTE   Fn4
 BYTE   N06  An3
 BYTE   W12
 BYTE   Cn3
 BYTE   N06  Fn3
 BYTE   W06
//  #04 //034   ----------------------------------------
 BYTE   N18  Ds3
 BYTE   N18  Gs3
 BYTE   W18
 BYTE   N06  Ds3
 BYTE   N06  Gs3
 BYTE   W42
 BYTE   Ds3
 BYTE   N06  Gs3
 BYTE   W12
 BYTE   Gn3
 BYTE   N06  Dn3
 BYTE   W06
 BYTE   Gs3
 BYTE   N06  Ds3
 BYTE   W18
//  #04 //035   ----------------------------------------
 BYTE   N18  As3
 BYTE   N18  Fn3
 BYTE   W18
 BYTE   N06  As3
 BYTE   N06  Fn3
 BYTE   W42
 BYTE   Fn3
 BYTE   N06  As3
 BYTE   W12
 BYTE   An3
 BYTE   N06  En3
 BYTE   W06
 BYTE   Fn3
 BYTE   N06  As3
 BYTE   W18
//  #04 //036   ----------------------------------------
 BYTE   N18  Gn3
 BYTE   N18  Ds4
 BYTE   W18
 BYTE   N06
 BYTE   N06  Gn3
 BYTE   W42
 BYTE   Ds4
 BYTE   N06  Gn3
 BYTE   W12
 BYTE   Fs3
 BYTE   N06  Dn4
 BYTE   W06
 BYTE   N18  Gn3
 BYTE   N18  Ds4
 BYTE   W18
//  #04 //037   ----------------------------------------
 BYTE   N06  Bn3
 BYTE   N06  Ds4
 BYTE   N06  Fn4
 BYTE   W06
 BYTE   Bn3
 BYTE   N06  Ds4
 BYTE   N06  Fn4
 BYTE   W30
 BYTE   Bn3
 BYTE   N06  Ds4
 BYTE   N06  Fn4
 BYTE   W06
 BYTE   Fn4
 BYTE   N06  Ds4
 BYTE   N06  Bn3
 BYTE   W30
 BYTE   N24  Gn4
 BYTE   N24  Fn4
 BYTE   N24  Bn3
 BYTE   W24
//  #04 //038   ----------------------------------------
 BYTE   N18  Cn5
 BYTE   N18  Ds4
 BYTE   N18  Cn4
 BYTE   N18  Gn4
 BYTE   W12
 BYTE   BEND   c_v-1
 BYTE   W02
 BYTE   BEND   c_v-3
 BYTE   W02
 BYTE   BEND   c_v-8
 BYTE   W02
 BYTE   BEND   c_v-11
 BYTE   W06
 BYTE   BEND   c_v+0
 BYTE   W72
//  #04 //039   ----------------------------------------
 BYTE   W96
//  #04 //040   ----------------------------------------
 BYTE   W96
//  #04 //041   ----------------------------------------
 BYTE   W96
//  #04 //042   ----------------------------------------
 BYTE   W96
//  #04 //043   ----------------------------------------
 BYTE   W96
//  #04 //044   ----------------------------------------
 BYTE   W96
//  #04 //045   ----------------------------------------
 BYTE   W96
//  #04 //046   ----------------------------------------
 BYTE   N18  Fn3  v036
 BYTE   W36
 BYTE   Fn3
 BYTE   W36
 BYTE   Fn3
 BYTE   W24
//  #04 //047   ----------------------------------------
 BYTE   Ds3
 BYTE   W36
 BYTE   Ds3
 BYTE   W36
 BYTE   N24  Fs3
 BYTE   W24
//  #04 //048   ----------------------------------------
 BYTE   N18  En3
 BYTE   W36
 BYTE   En3
 BYTE   W36
 BYTE   N24  Gn3
 BYTE   W24
//  #04 //049   ----------------------------------------
 BYTE   N18  Gs3
 BYTE   W36
 BYTE   N12
 BYTE   W12
 BYTE   N08  Cn3  v092
 BYTE   N08  Cn4  v065
 BYTE   W08
 BYTE   Dn3  v092
 BYTE   N08  Dn4  v065
 BYTE   W08
 BYTE   En4
 BYTE   N08  En3  v092
 BYTE   W08
 BYTE   Fn3
 BYTE   N08  Fn4  v065
 BYTE   W08
 BYTE   Gn4
 BYTE   N08  Gn3  v092
 BYTE   W08
 BYTE   Gs4  v065
 BYTE   N08  Gs3  v092
 BYTE   W08
//  #04 //050   ----------------------------------------
 BYTE   N06  An4  v072
 BYTE   N06  An3
 BYTE   N06  Fn3
 BYTE   W06
 BYTE   Gs4
 BYTE   N06  Gs3
 BYTE   N06  En3
 BYTE   W06
 BYTE   N30  An4
 BYTE   N30  An3
 BYTE   N30  Fn3
 BYTE   W36
 BYTE   N06  Bn4
 BYTE   N06  Bn3
 BYTE   N06  Gn3
 BYTE   W12
 BYTE   N24  Cn5
 BYTE   N24  Cn4
 BYTE   N24  An3
 BYTE   W36
//  #04 //051   ----------------------------------------
 BYTE   N06  Dn5
 BYTE   N06  Dn4
 BYTE   N06  Bn3
 BYTE   W06
 BYTE   Cs5
 BYTE   N06  Cs4
 BYTE   N06  As3
 BYTE   W06
 BYTE   N54  Dn5
 BYTE   N54  Dn4
 BYTE   N36  Bn3
 BYTE   W36
 BYTE   N03  An3  v059
 BYTE   W03
 BYTE   Bn3
 BYTE   W03
 BYTE   N18  An3  v072
 BYTE   W18
 BYTE   N08  En5
 BYTE   N08  En4
 BYTE   N24  Gn3
 BYTE   W08
 BYTE   N08  Fn4
 BYTE   N08  Fn5
 BYTE   W08
 BYTE   Fs5
 BYTE   N08  Fs4
 BYTE   W08
//  #04 //052   ----------------------------------------
 BYTE   N24  En4
 BYTE   N72  Gn4
 BYTE   N72  Gn5
 BYTE   W24
 BYTE   N24  Bn3
 BYTE   W24
 BYTE   N03  Gn3  v059
 BYTE   W03
 BYTE   An3
 BYTE   W03
 BYTE   N18  Gn3  v072
 BYTE   W18
 BYTE   N08
 BYTE   N08  Dn4
 BYTE   N08  Dn5
 BYTE   W08
 BYTE   Bn3
 BYTE   N08  Gn4
 BYTE   N08  Gn5
 BYTE   W08
 BYTE   Dn5
 BYTE   N08  Dn4
 BYTE   N08  Gn3
 BYTE   W08
//  #04 //053   ----------------------------------------
 BYTE   N02  An3
 BYTE   N06  Cs4
 BYTE   N06  Cs5
 BYTE   W02
 BYTE   N02  Bn3  v047
 BYTE   W02
 BYTE   An3
 BYTE   W02
 BYTE   N06  Cn5  v072
 BYTE   N06  Cn4
 BYTE   N06  Gn3
 BYTE   W06
 BYTE   N30  Cs5
 BYTE   N30  Cs4
 BYTE   N30  An3
 BYTE   W30
 BYTE   N03  An4  v027
 BYTE   N03  An3
 BYTE   N03  Fn3
 BYTE   W03
 BYTE   As4
 BYTE   N03  As3
 BYTE   N03  Fs3
 BYTE   W03
 BYTE   N06  Bn4  v072
 BYTE   N06  Bn3
 BYTE   N06  Gn3
 BYTE   W12
 BYTE   N12  En3
 BYTE   N12  Cs4
 BYTE   N12  Cs5
 BYTE   W24
 BYTE   Cs3
 BYTE   N12  An3
 BYTE   N12  An4
 BYTE   W12
//  #04 //054   ----------------------------------------
 BYTE   N72  Fn5
 BYTE   N72  Fn4
 BYTE   N24  Fn3
 BYTE   W24
 BYTE   An3
 BYTE   W24
 BYTE   Cn4
 BYTE   W24
 BYTE   N08  An3
 BYTE   N08  Cn4
 BYTE   N08  Cn5
 BYTE   W08
 BYTE   Fn5
 BYTE   N08  Fn4
 BYTE   N08  Cn4
 BYTE   W08
 BYTE   Cn5
 BYTE   N08  Cn4
 BYTE   N08  An3
 BYTE   W08
//  #04 //055   ----------------------------------------
 BYTE   N06  Bn5
 BYTE   N06  Dn5
 BYTE   N06  Bn4
 BYTE   W06
 BYTE   An5
 BYTE   N06  Cs5
 BYTE   N06  An4
 BYTE   W06
 BYTE   Bn5
 BYTE   N06  Dn5
 BYTE   N06  Bn4
 BYTE   W12
 BYTE   Gn5
 BYTE   N06  Gn4
 BYTE   N06  Dn5
 BYTE   W12
 BYTE   Dn5
 BYTE   N06  Dn4
 BYTE   N06  Bn4
 BYTE   W60
//  #04 //056   ----------------------------------------
 BYTE   N04  En5
 BYTE   N04  Gn4
 BYTE   W06
 BYTE   Ds5
 BYTE   N04  Fs4
 BYTE   W06
 BYTE   Ds5
 BYTE   N04  Fs4
 BYTE   W06
 BYTE   Gn4
 BYTE   N04  En5
 BYTE   W06
 BYTE   Ds5
 BYTE   N04  Fs4
 BYTE   W06
 BYTE   Gn4
 BYTE   N04  En5
 BYTE   W06
 BYTE   En5
 BYTE   N04  Gn4
 BYTE   W06
 BYTE   Fs4
 BYTE   N04  Ds5
 BYTE   W06
 BYTE   Fs4
 BYTE   N04  Ds5
 BYTE   W06
 BYTE   Gn4
 BYTE   N04  En5
 BYTE   W06
 BYTE   En5
 BYTE   N04  Gn4
 BYTE   W06
 BYTE   Fs4
 BYTE   N04  Ds5
 BYTE   W06
 BYTE   Ds5
 BYTE   N04  Fs4
 BYTE   W06
 BYTE   Cn4
 BYTE   N04  Gn4
 BYTE   W06
 BYTE   En5
 BYTE   N04  Gn4
 BYTE   W06
 BYTE   En5
 BYTE   N04  Gn4
 BYTE   W06
//  #04 //057   ----------------------------------------
 BYTE   En5
 BYTE   N04  Cn5
 BYTE   W06
 BYTE   En5
 BYTE   N04  Gn5
 BYTE   W12
 BYTE   En5
 BYTE   N04  Cn5
 BYTE   W06
 BYTE   En5
 BYTE   N04  Gn5
 BYTE   W12
 BYTE   Cn5
 BYTE   N04  En5
 BYTE   W06
 BYTE   En5
 BYTE   N04  Gn5
 BYTE   W12
 BYTE   Cn5
 BYTE   N04  En5
 BYTE   W06
 BYTE   Gn5
 BYTE   N04  En5
 BYTE   W12
 BYTE   Cn5
 BYTE   N04  En5
 BYTE   W06
 BYTE   Gn5
 BYTE   N04  En5
 BYTE   W12
 BYTE   Cn5
 BYTE   N04  En5
 BYTE   W06
//  #04 //058   ----------------------------------------
 BYTE   W96
//  #04 //059   ----------------------------------------
 BYTE   W96
//  #04 //060   ----------------------------------------
 BYTE   W96
//  #04 //061   ----------------------------------------
 BYTE   W96
//  #04 //062   ----------------------------------------
 BYTE   W96
//  #04 //063   ----------------------------------------
 BYTE   W96
//  #04 //064   ----------------------------------------
 BYTE   W18
 BYTE   N06  Fs5  v036
 BYTE   W06
 BYTE   An5
 BYTE   W18
 BYTE   Gs5
 BYTE   W06
 BYTE   Bn5
 BYTE   W18
 BYTE   Gs5
 BYTE   W06
 BYTE   Dn6
 BYTE   W24
//  #04 //065   ----------------------------------------
 BYTE   W96
//  #04 //066   ----------------------------------------
 BYTE   W96
//  #04 //067   ----------------------------------------
 BYTE   GoTo
  POIN2 Label_010260D1
 BYTE   FINE

//**************** Track 5 (Midi-Chn.4) ****************//

PokemonB2W2PWTFinalTak_005:
//  #05 //000   ----------------------------------------
 BYTE   KEYSH   PokemonB2W2PWTFinalTak_key+0
 BYTE   VOICE   124
 BYTE   VOL   77*PokemonB2W2PWTFinalTak_mvl/mxv
 BYTE   BENDR  12
 BYTE   N05  Fn1  v085
 BYTE   W06
 BYTE   Fn1  v059
 BYTE   W18
 BYTE   Fn1  v085
 BYTE   W06
 BYTE   Fn1  v059
 BYTE   W18
 BYTE   Fn1  v085
 BYTE   W06
 BYTE   Fn1  v059
 BYTE   W18
 BYTE   Fn1  v085
 BYTE   W06
 BYTE   Fn1  v054
 BYTE   W18
//  #05 //001   ----------------------------------------
Label_010263F9:
 BYTE   N05  Fn1  v085
 BYTE   W06
 BYTE   Fn1  v059
 BYTE   W18
 BYTE   Fn1  v085
 BYTE   W06
 BYTE   Fn1  v059
 BYTE   W18
 BYTE   Fn1  v085
 BYTE   W06
 BYTE   Fn1  v059
 BYTE   W18
 BYTE   Fn1  v085
 BYTE   W06
 BYTE   Fn1  v059
 BYTE   W18
 BYTE   PEND 
//  #05 //002   ----------------------------------------
 BYTE   PATT
  POIN2 Label_010263F9
//  #05 //003   ----------------------------------------
 BYTE   N05  Fn1  v072
 BYTE   W06
 BYTE   Fn1  v047
 BYTE   W18
 BYTE   Fn1  v059
 BYTE   W06
 BYTE   Fn1  v036
 BYTE   W18
 BYTE   Fn1  v047
 BYTE   W06
 BYTE   Fn1  v027
 BYTE   W18
 BYTE   Fn1  v036
 BYTE   W06
 BYTE   Fn1  v019
 BYTE   W18
//  #05 //004   ----------------------------------------
 BYTE   Fn1  v100
 BYTE   N18  Cs2  v059
 BYTE   N01  Fs1  v036
 BYTE   W18
 BYTE   N05  Fn1  v100
 BYTE   N01  Fs1  v036
 BYTE   W06
 BYTE   Fs1
 BYTE   W06
 BYTE   Fs1
 BYTE   W06
 BYTE   Fs1
 BYTE   W06
 BYTE   Fs1
 BYTE   W06
 BYTE   N05  Fn1  v100
 BYTE   N01  Fs1  v085
 BYTE   W06
 BYTE   Fs1  v036
 BYTE   N05  Fn1  v100
 BYTE   W06
 BYTE   N09  En1  v085
 BYTE   N01  Fs1  v036
 BYTE   W06
 BYTE   Fs1
 BYTE   W06
 BYTE   Fs1  v085
 BYTE   W06
 BYTE   N05  Fn1  v100
 BYTE   N01  Fs1  v036
 BYTE   W06
 BYTE   Fs1
 BYTE   W06
 BYTE   Fs1
 BYTE   N05  Fn1  v100
 BYTE   W06
//  #05 //005   ----------------------------------------
 BYTE   Fn1
 BYTE   N32  An2  v059  gtp1
 BYTE   N01  Fs1  v036
 BYTE   W06
 BYTE   Fs1
 BYTE   W06
 BYTE   Fs1
 BYTE   W06
 BYTE   N05  Fn1  v100
 BYTE   N01  Fs1  v036
 BYTE   W06
 BYTE   Fs1  v085
 BYTE   N09  En1
 BYTE   W06
 BYTE   N01  Fs1  v036
 BYTE   W06
 BYTE   N05  Fn1  v100
 BYTE   N01  Fs1  v036
 BYTE   W06
 BYTE   Fs1
 BYTE   W06
 BYTE   Fs1  v085
 BYTE   W06
 BYTE   Fs1
 BYTE   N05  Fn1  v100
 BYTE   W06
 BYTE   N01  Fs1  v036
 BYTE   N09  En1  v085
 BYTE   W06
 BYTE   N01  Fs1  v036
 BYTE   W06
 BYTE   Fs1
 BYTE   N05  Fn1  v100
 BYTE   W06
 BYTE   N09  En1  v085
 BYTE   N01  Fs1
 BYTE   W06
 BYTE   Fs1  v036
 BYTE   W06
 BYTE   Fs1
 BYTE   W06
//  #05 //006   ----------------------------------------
 BYTE   Fs1
 BYTE   N09  En1  v085
 BYTE   N18  Cs2  v059
 BYTE   N05  Fn1  v100
 BYTE   W18
 BYTE   N01  Fs1  v036
 BYTE   N05  Fn1  v100
 BYTE   W06
 BYTE   N01  Fs1  v036
 BYTE   N09  En1  v085
 BYTE   W06
 BYTE   N01  Fs1  v036
 BYTE   W06
 BYTE   Fs1
 BYTE   W06
 BYTE   Fs1
 BYTE   W06
 BYTE   Fs1  v085
 BYTE   N05  Fn1  v100
 BYTE   W06
 BYTE   N01  Fs1  v036
 BYTE   W06
 BYTE   Fs1
 BYTE   N09  En1  v085
 BYTE   N18  Cs2  v047
 BYTE   W06
 BYTE   N01  Fs1  v036
 BYTE   W06
 BYTE   N05  Fn1  v100
 BYTE   N01  Fs1  v085
 BYTE   W06
 BYTE   Fs1  v036
 BYTE   N09  En1  v085
 BYTE   W06
 BYTE   N01  Fs1  v036
 BYTE   W06
 BYTE   Fs1
 BYTE   W06
//  #05 //007   ----------------------------------------
 BYTE   N05  Fn1  v100
 BYTE   N32  An2  v059  gtp1
 BYTE   N09  En1  v085
 BYTE   N01  Fs1  v036
 BYTE   W06
 BYTE   Fs1
 BYTE   W06
 BYTE   Fs1
 BYTE   W06
 BYTE   Fs1
 BYTE   N05  Fn1  v100
 BYTE   W06
 BYTE   N01  Fs1  v085
 BYTE   N09  En1
 BYTE   W06
 BYTE   N01  Fs1  v036
 BYTE   W06
 BYTE   N05  Fn1  v100
 BYTE   N01  Fs1  v036
 BYTE   W06
 BYTE   Fs1
 BYTE   W06
 BYTE   Fs1  v085
 BYTE   W06
 BYTE   Fs1
 BYTE   N05  Fn1  v100
 BYTE   W06
 BYTE   N01  Fs1  v036
 BYTE   N09  En1  v085
 BYTE   N32  An2  v072  gtp1
 BYTE   W06
 BYTE   N01  Fs1  v036
 BYTE   W06
 BYTE   N05  Fn1  v100
 BYTE   N01  Fs1  v036
 BYTE   W06
 BYTE   Fs1  v085
 BYTE   N09  En1
 BYTE   N18  Cs2  v072
 BYTE   W06
 BYTE   N01  Fs1  v036
 BYTE   W06
 BYTE   Fs1
 BYTE   W06
//  #05 //008   ----------------------------------------
 BYTE   Fs1  v085
 BYTE   N32  An2  v059  gtp1
 BYTE   W06
 BYTE   N01  Fs1  v085
 BYTE   W06
 BYTE   N12  As1
 BYTE   W12
 BYTE   N01  Fs1
 BYTE   W06
 BYTE   Fs1
 BYTE   W06
 BYTE   N12  As1
 BYTE   W12
 BYTE   N01  Fs1
 BYTE   N18  Cs2  v059
 BYTE   W06
 BYTE   N01  Fs1  v085
 BYTE   W06
 BYTE   Fs1
 BYTE   W03
 BYTE   N03  Gs1
 BYTE   W03
 BYTE   N01  Fs1
 BYTE   W03
 BYTE   N03  Gs1
 BYTE   W03
 BYTE   N01  Fs1
 BYTE   W06
 BYTE   Fs1
 BYTE   W06
 BYTE   N12  As1
 BYTE   W12
//  #05 //009   ----------------------------------------
 BYTE   N68  Gn2  v085  gtp2
 BYTE   N01  Fs1
 BYTE   W78
 BYTE   N88  Fn2  v054  gtp1
 BYTE   W18
//  #05 //010   ----------------------------------------
Label_01026598:
 BYTE   W96
//  #05 //011   ----------------------------------------
 BYTE   W96
//  #05 //012   ----------------------------------------
 BYTE   W96
//  #05 //013   ----------------------------------------
 BYTE   W96
//  #05 //014   ----------------------------------------
 BYTE   W96
//  #05 //015   ----------------------------------------
 BYTE   W96
//  #05 //016   ----------------------------------------
 BYTE   W96
//  #05 //017   ----------------------------------------
 BYTE   W96
//  #05 //018   ----------------------------------------
 BYTE   N01  Fs1  v085
 BYTE   N05  Fn1  v100
 BYTE   W06
 BYTE   N01  Fs1  v036
 BYTE   W06
 BYTE   Fs1
 BYTE   W06
 BYTE   Fs1
 BYTE   N05  Fn1  v100
 BYTE   W06
 BYTE   N01  Fs1  v085
 BYTE   W06
 BYTE   Fs1  v036
 BYTE   W06
 BYTE   Fs1
 BYTE   N05  Fn1  v100
 BYTE   W06
 BYTE   N01  Fs1  v036
 BYTE   W06
 BYTE   Fs1  v085
 BYTE   W06
 BYTE   Fs1  v036
 BYTE   W06
 BYTE   Fs1
 BYTE   N30  Gn2  v072
 BYTE   W06
 BYTE   N01  Fs1  v036
 BYTE   W06
 BYTE   Fs1  v085
 BYTE   N09  En1
 BYTE   W06
 BYTE   N01  Fs1  v036
 BYTE   N18  Cs2  v072
 BYTE   W06
 BYTE   N01  Fs1  v036
 BYTE   N05  Fn1  v100
 BYTE   W06
 BYTE   N01  Fs1  v036
 BYTE   W06
//  #05 //019   ----------------------------------------
 BYTE   Fs1  v085
 BYTE   N05  Fn1  v100
 BYTE   W06
 BYTE   N01  Fs1  v036
 BYTE   W06
 BYTE   Fs1
 BYTE   W06
 BYTE   Fs1
 BYTE   N05  Fn1  v100
 BYTE   W06
 BYTE   N01  Fs1  v085
 BYTE   N09  En1
 BYTE   W06
 BYTE   N01  Fs1  v036
 BYTE   W06
 BYTE   Fs1
 BYTE   N05  Fn1  v100
 BYTE   W06
 BYTE   N01  Fs1  v036
 BYTE   W06
 BYTE   Fs1  v085
 BYTE   W06
 BYTE   Fs1  v036
 BYTE   N05  Fn1  v100
 BYTE   W06
 BYTE   N01  Fs1  v036
 BYTE   N09  En1  v085
 BYTE   W06
 BYTE   N01  Fs1  v036
 BYTE   W06
 BYTE   N05  Fn1  v100
 BYTE   N30  Gn2  v072
 BYTE   N01  Fs1  v085
 BYTE   W06
 BYTE   Fs1  v036
 BYTE   W06
 BYTE   N09  En1  v085
 BYTE   N01  Fs1  v036
 BYTE   W06
 BYTE   Fs1
 BYTE   W06
//  #05 //020   ----------------------------------------
 BYTE   Fs1  v085
 BYTE   N32  An2  v072  gtp1
 BYTE   N05  Fn1  v100
 BYTE   W06
 BYTE   N01  Fs1  v036
 BYTE   W06
 BYTE   Fs1
 BYTE   W06
 BYTE   Fs1
 BYTE   N05  Fn1  v100
 BYTE   W06
 BYTE   N01  Fs1  v085
 BYTE   N09  En1
 BYTE   W06
 BYTE   N01  Fs1  v036
 BYTE   W06
 BYTE   N05  Fn1  v100
 BYTE   N01  Fs1  v036
 BYTE   W06
 BYTE   Fs1
 BYTE   W06
 BYTE   Fs1  v085
 BYTE   W06
 BYTE   Fs1  v036
 BYTE   N05  Fn1  v100
 BYTE   W06
 BYTE   N01  Fs1  v036
 BYTE   N09  En1  v085
 BYTE   W06
 BYTE   N01  Fs1  v036
 BYTE   W06
 BYTE   Fs1  v085
 BYTE   N05  Fn1  v100
 BYTE   W06
 BYTE   N01  Fs1  v036
 BYTE   W06
 BYTE   Fs1
 BYTE   N09  En1  v085
 BYTE   W06
 BYTE   N01  Fs1  v036
 BYTE   W06
//  #05 //021   ----------------------------------------
 BYTE   N05  Fn1  v100
 BYTE   N32  An2  v072  gtp1
 BYTE   N01  Fs1  v085
 BYTE   W06
 BYTE   Fs1  v036
 BYTE   W06
 BYTE   Fs1
 BYTE   W06
 BYTE   N05  Fn1  v100
 BYTE   N01  Fs1  v036
 BYTE   W06
 BYTE   Fs1  v085
 BYTE   W06
 BYTE   Fs1  v036
 BYTE   N30  Gn2  v072
 BYTE   N09  En1  v085
 BYTE   N05  Fn1  v100
 BYTE   W06
 BYTE   N01  Fs1  v036
 BYTE   W06
 BYTE   Fs1
 BYTE   W06
 BYTE   Fs1  v085
 BYTE   N05  Fn1  v100
 BYTE   W06
 BYTE   N01  Fs1  v036
 BYTE   W02
 BYTE   N05  Fn1  v100
 BYTE   N09  En1  v085
 BYTE   W04
 BYTE   N01  Fs1  v036
 BYTE   W04
 BYTE   N05  Fn1  v100
 BYTE   W02
 BYTE   N01  Fs1  v036
 BYTE   W06
 BYTE   Fs1  v085
 BYTE   N09  En1
 BYTE   N05  Fn1  v100
 BYTE   W06
 BYTE   N01  Fs1  v036
 BYTE   W06
 BYTE   Fs1
 BYTE   W04
 BYTE   N09  En1  v085
 BYTE   N05  Fn1  v100
 BYTE   W02
 BYTE   N01  Fs1  v036
 BYTE   W06
//  #05 //022   ----------------------------------------
 BYTE   N05  Fn1  v100
 BYTE   N18  Cs2  v072
 BYTE   N01  Fs1  v085
 BYTE   W06
 BYTE   Fs1  v036
 BYTE   W06
 BYTE   Fs1
 BYTE   W06
 BYTE   Fs1
 BYTE   N05  Fn1  v100
 BYTE   W06
 BYTE   N01  Fs1  v085
 BYTE   W06
 BYTE   Fs1  v036
 BYTE   W06
 BYTE   Fs1
 BYTE   N05  Fn1  v100
 BYTE   W06
 BYTE   N01  Fs1  v036
 BYTE   W06
 BYTE   N30  Gn2  v072
 BYTE   N01  Fs1  v085
 BYTE   W06
 BYTE   Fs1  v036
 BYTE   W06
 BYTE   Fs1
 BYTE   W06
 BYTE   Fs1
 BYTE   W06
 BYTE   Fs1  v085
 BYTE   N05  Fn1  v100
 BYTE   W06
 BYTE   N01  Fs1  v036
 BYTE   W06
 BYTE   Fs1
 BYTE   N09  En1  v085
 BYTE   W06
 BYTE   N01  Fs1  v036
 BYTE   W06
//  #05 //023   ----------------------------------------
 BYTE   N05  Fn1  v100
 BYTE   N01  Fs1  v085
 BYTE   W06
 BYTE   Fs1  v036
 BYTE   W06
 BYTE   Fs1
 BYTE   W06
 BYTE   N05  Fn1  v100
 BYTE   N01  Fs1  v036
 BYTE   W06
 BYTE   Fs1  v085
 BYTE   N09  En1
 BYTE   W06
 BYTE   N01  Fs1  v036
 BYTE   W06
 BYTE   Fs1
 BYTE   N05  Fn1  v100
 BYTE   W06
 BYTE   N01  Fs1  v036
 BYTE   W06
 BYTE   Fs1  v085
 BYTE   W06
 BYTE   N05  Fn1  v100
 BYTE   N01  Fs1  v036
 BYTE   W06
 BYTE   Fs1
 BYTE   N09  En1  v085
 BYTE   W06
 BYTE   N01  Fs1  v036
 BYTE   W06
 BYTE   Fs1  v085
 BYTE   N05  Fn1  v100
 BYTE   W06
 BYTE   N01  Fs1  v036
 BYTE   W06
 BYTE   N09  En1  v085
 BYTE   N01  Fs1  v036
 BYTE   W06
 BYTE   Fs1
 BYTE   W06
//  #05 //024   ----------------------------------------
 BYTE   Fs1  v085
 BYTE   N18  Cs2  v072
 BYTE   N05  Fn1  v100
 BYTE   W06
 BYTE   N01  Fs1  v036
 BYTE   W02
 BYTE   N09  En1  v085
 BYTE   W04
 BYTE   N01  Fs1  v036
 BYTE   W04
 BYTE   N05  Fn1  v100
 BYTE   W02
 BYTE   N01  Fs1  v036
 BYTE   W06
 BYTE   Fs1  v085
 BYTE   N09  En1
 BYTE   W06
 BYTE   N01  Fs1  v036
 BYTE   W02
 BYTE   N05  Fn1  v100
 BYTE   W04
 BYTE   N01  Fs1  v036
 BYTE   N30  Gn2  v072
 BYTE   W04
 BYTE   N09  En1  v085
 BYTE   W02
 BYTE   N01  Fs1  v036
 BYTE   W06
 BYTE   N05  Fn1  v100
 BYTE   N01  Fs1  v085
 BYTE   W06
 BYTE   Fs1  v036
 BYTE   W02
 BYTE   N05  Fn1  v100
 BYTE   W04
 BYTE   N01  Fs1  v036
 BYTE   W04
 BYTE   N05  Fn1  v100
 BYTE   W02
 BYTE   N01  Fs1  v036
 BYTE   W06
 BYTE   Fs1  v085
 BYTE   N09  En1
 BYTE   W06
 BYTE   N01  Fs1  v036
 BYTE   W02
 BYTE   N05  Fn1  v100
 BYTE   W04
 BYTE   N12  As1  v053
 BYTE   W04
 BYTE   N09  En1  v085
 BYTE   N05  Fn1  v100
 BYTE   W08
//  #05 //025   ----------------------------------------
 BYTE   N01  Fs1  v085
 BYTE   N32  An2  v072  gtp1
 BYTE   N05  Fn1  v100
 BYTE   W06
 BYTE   N01  Fs1  v036
 BYTE   W06
 BYTE   Fs1
 BYTE   W06
 BYTE   Fs1
 BYTE   N05  Fn1  v100
 BYTE   W06
 BYTE   N09  En1  v085
 BYTE   N01  Fs1
 BYTE   W06
 BYTE   Fs1  v036
 BYTE   W06
 BYTE   N05  Fn1  v100
 BYTE   N01  Fs1  v036
 BYTE   W06
 BYTE   Fs1
 BYTE   W06
 BYTE   Fs1  v085
 BYTE   W06
 BYTE   Fs1  v036
 BYTE   W02
 BYTE   N05  Fn1  v100
 BYTE   W04
 BYTE   N01  Fs1  v036
 BYTE   W04
 BYTE   N05  Fn1  v100
 BYTE   W02
 BYTE   N01  Fs1  v036
 BYTE   W06
 BYTE   Fs1  v085
 BYTE   N09  En1
 BYTE   W06
 BYTE   N01  Fs1  v036
 BYTE   W02
 BYTE   N05  Fn1  v100
 BYTE   W04
 BYTE   N01  Fs1  v036
 BYTE   W04
 BYTE   N05  Fn1  v100
 BYTE   W02
 BYTE   N01  Fs1  v036
 BYTE   W06
//  #05 //026   ----------------------------------------
 BYTE   Fs1
 BYTE   N18  Cs2  v059
 BYTE   N05  Fn1  v100
 BYTE   W18
 BYTE   N01  Fs1  v036
 BYTE   N05  Fn1  v100
 BYTE   W06
 BYTE   N01  Fs1  v036
 BYTE   W06
 BYTE   Fs1
 BYTE   W06
 BYTE   Fs1
 BYTE   W06
 BYTE   Fs1
 BYTE   W06
 BYTE   N05  Fn1  v100
 BYTE   N01  Fs1  v085
 BYTE   W06
 BYTE   N05  Fn1  v100
 BYTE   N01  Fs1  v036
 BYTE   W06
 BYTE   Fs1
 BYTE   N09  En1  v085
 BYTE   N30  Gn2  v072
 BYTE   W06
 BYTE   N01  Fs1  v036
 BYTE   W06
 BYTE   Fs1  v085
 BYTE   W06
 BYTE   N05  Fn1  v100
 BYTE   N01  Fs1  v036
 BYTE   W06
 BYTE   Fs1
 BYTE   W06
 BYTE   N05  Fn1  v100
 BYTE   N01  Fs1  v036
 BYTE   W06
//  #05 //027   ----------------------------------------
 BYTE   Fs1
 BYTE   N32  An2  v059  gtp1
 BYTE   N05  Fn1  v100
 BYTE   W06
 BYTE   N01  Fs1  v036
 BYTE   W06
 BYTE   Fs1
 BYTE   W06
 BYTE   N05  Fn1  v100
 BYTE   N01  Fs1  v036
 BYTE   W06
 BYTE   N09  En1  v085
 BYTE   N01  Fs1
 BYTE   W06
 BYTE   Fs1  v036
 BYTE   W06
 BYTE   Fs1
 BYTE   N05  Fn1  v100
 BYTE   W06
 BYTE   N01  Fs1  v036
 BYTE   W06
 BYTE   Fs1  v085
 BYTE   W06
 BYTE   N05  Fn1  v100
 BYTE   N01  Fs1  v085
 BYTE   W06
 BYTE   N09  En1
 BYTE   N01  Fs1  v036
 BYTE   W06
 BYTE   Fs1
 BYTE   W06
 BYTE   Fs1
 BYTE   N05  Fn1  v100
 BYTE   W06
 BYTE   N01  Fs1  v085
 BYTE   N09  En1
 BYTE   W06
 BYTE   N01  Fs1  v036
 BYTE   W06
 BYTE   Fs1
 BYTE   W06
//  #05 //028   ----------------------------------------
 BYTE   N05  Fn1  v100
 BYTE   N18  Cs2  v059
 BYTE   N09  En1  v085
 BYTE   N01  Fs1  v036
 BYTE   W18
 BYTE   N05  Fn1  v100
 BYTE   N01  Fs1  v036
 BYTE   W06
 BYTE   Fs1
 BYTE   N09  En1  v085
 BYTE   W06
 BYTE   N01  Fs1  v036
 BYTE   W06
 BYTE   Fs1
 BYTE   W06
 BYTE   Fs1
 BYTE   W06
 BYTE   N05  Fn1  v100
 BYTE   N01  Fs1  v085
 BYTE   W06
 BYTE   Fs1  v036
 BYTE   W06
 BYTE   Fs1
 BYTE   N09  En1  v085
 BYTE   N18  Cs2  v047
 BYTE   W06
 BYTE   N01  Fs1  v036
 BYTE   W06
 BYTE   Fs1  v085
 BYTE   N05  Fn1  v100
 BYTE   W06
 BYTE   N30  Gn2  v072
 BYTE   N09  En1  v085
 BYTE   N01  Fs1  v036
 BYTE   W06
 BYTE   Fs1
 BYTE   W06
 BYTE   Fs1
 BYTE   W06
//  #05 //029   ----------------------------------------
 BYTE   Fs1
 BYTE   N09  En1  v085
 BYTE   N32  An2  v059  gtp1
 BYTE   N05  Fn1  v100
 BYTE   W06
 BYTE   N01  Fs1  v036
 BYTE   W06
 BYTE   Fs1
 BYTE   W06
 BYTE   N05  Fn1  v100
 BYTE   N01  Fs1  v036
 BYTE   W06
 BYTE   N09  En1  v085
 BYTE   N01  Fs1
 BYTE   W06
 BYTE   Fs1  v036
 BYTE   W06
 BYTE   Fs1
 BYTE   N05  Fn1  v100
 BYTE   W06
 BYTE   N01  Fs1  v036
 BYTE   W06
 BYTE   Fs1  v085
 BYTE   W06
 BYTE   N05  Fn1  v100
 BYTE   N01  Fs1  v085
 BYTE   W06
 BYTE   Fs1  v036
 BYTE   N09  En1  v085
 BYTE   N32  An2  v072  gtp1
 BYTE   W06
 BYTE   N01  Fs1  v036
 BYTE   W06
 BYTE   N05  Fn1  v100
 BYTE   N01  Fs1  v036
 BYTE   W06
 BYTE   Fs1  v085
 BYTE   N09  En1
 BYTE   N18  Cs2  v072
 BYTE   W06
 BYTE   N01  Fs1  v036
 BYTE   W06
 BYTE   Fs1
 BYTE   W06
//  #05 //030   ----------------------------------------
 BYTE   N48  An2  v059  gtp3
 BYTE   N05  Fn1  v100
 BYTE   W18
 BYTE   Fn1
 BYTE   W06
 BYTE   N09  En1  v085
 BYTE   N09  Ds1
 BYTE   W18
 BYTE   Ds1
 BYTE   N09  En1
 BYTE   W06
 BYTE   N05  Fn1  v100
 BYTE   W06
 BYTE   N09  En1  v085
 BYTE   N09  Ds1
 BYTE   W06
 BYTE   N05  Fn1  v100
 BYTE   W12
 BYTE   N09  Ds1  v085
 BYTE   N09  En1
 BYTE   W18
 BYTE   En1
 BYTE   N09  Ds1
 BYTE   W06
//  #05 //031   ----------------------------------------
Label_01026999:
 BYTE   N05  Fn1  v100
 BYTE   W18
 BYTE   Fn1
 BYTE   W06
 BYTE   N09  En1  v085
 BYTE   N09  Ds1
 BYTE   W18
 BYTE   Ds1
 BYTE   N09  En1
 BYTE   W06
 BYTE   N05  Fn1  v100
 BYTE   W06
 BYTE   N09  Ds1  v085
 BYTE   N09  En1
 BYTE   W06
 BYTE   N05  Fn1  v100
 BYTE   W12
 BYTE   N09  En1  v085
 BYTE   N09  Ds1
 BYTE   W18
 BYTE   En1
 BYTE   N09  Ds1
 BYTE   W06
 BYTE   PEND 
//  #05 //032   ----------------------------------------
 BYTE   N05  Fn1  v100
 BYTE   W18
 BYTE   Fn1
 BYTE   W06
 BYTE   N09  Ds1  v085
 BYTE   N09  En1
 BYTE   W18
 BYTE   En1
 BYTE   N09  Ds1
 BYTE   W06
 BYTE   N05  Fn1  v100
 BYTE   W06
 BYTE   N09  Ds1  v085
 BYTE   N09  En1
 BYTE   W06
 BYTE   N05  Fn1  v100
 BYTE   W12
 BYTE   N09  Ds1  v085
 BYTE   N09  En1
 BYTE   W18
 BYTE   En1
 BYTE   N09  Ds1
 BYTE   W06
//  #05 //033   ----------------------------------------
 BYTE   N05  Fn1  v100
 BYTE   W12
 BYTE   N09  Ds1  v085
 BYTE   N09  En1
 BYTE   W12
 BYTE   Ds1
 BYTE   N09  En1
 BYTE   W12
 BYTE   N05  Fn1  v100
 BYTE   W06
 BYTE   N09  Ds1  v072
 BYTE   N09  En1
 BYTE   W06
 BYTE   N05  Fn1  v100
 BYTE   W12
 BYTE   N09  Ds1  v085
 BYTE   N09  En1
 BYTE   W06
 BYTE   N05  Fn1  v100
 BYTE   W06
 BYTE   N09  Ds1  v085
 BYTE   N09  En1
 BYTE   W18
 BYTE   Ds1
 BYTE   N09  En1
 BYTE   W06
//  #05 //034   ----------------------------------------
 BYTE   PATT
  POIN2 Label_01026999
//  #05 //035   ----------------------------------------
 BYTE   N05  Fn1  v100
 BYTE   W18
 BYTE   Fn1
 BYTE   W06
 BYTE   N09  En1  v085
 BYTE   N09  Ds1
 BYTE   W18
 BYTE   En1
 BYTE   N09  Ds1
 BYTE   W06
 BYTE   N05  Fn1  v100
 BYTE   W06
 BYTE   N09  En1  v085
 BYTE   N09  Ds1
 BYTE   W06
 BYTE   N05  Fn1  v100
 BYTE   W12
 BYTE   N09  Ds1  v085
 BYTE   N09  En1
 BYTE   W18
 BYTE   Ds1
 BYTE   N09  En1
 BYTE   W06
//  #05 //036   ----------------------------------------
 BYTE   N05  Fn1  v100
 BYTE   W18
 BYTE   Fn1
 BYTE   W06
 BYTE   N09  En1  v085
 BYTE   N09  Ds1
 BYTE   W18
 BYTE   Ds1
 BYTE   N09  En1
 BYTE   W06
 BYTE   N05  Fn1  v100
 BYTE   W06
 BYTE   N09  Ds1  v085
 BYTE   N09  En1
 BYTE   W06
 BYTE   N05  Fn1  v100
 BYTE   W12
 BYTE   N09  En1  v085
 BYTE   N09  Ds1
 BYTE   W18
 BYTE   N06
 BYTE   N06  En1
 BYTE   W06
//  #05 //037   ----------------------------------------
 BYTE   N03
 BYTE   N03  Ds1
 BYTE   W06
 BYTE   En1
 BYTE   N03  Ds1
 BYTE   W06
 BYTE   N05  Fn1  v100
 BYTE   W12
 BYTE   Fn1
 BYTE   W12
 BYTE   N06  En1  v085
 BYTE   N06  Ds1
 BYTE   W06
 BYTE   N03  En1
 BYTE   N03  Ds1
 BYTE   W06
 BYTE   N05  Fn1  v100
 BYTE   W12
 BYTE   Fn1
 BYTE   W12
 BYTE   N06  En1  v085
 BYTE   N06  Ds1
 BYTE   W06
 BYTE   N03
 BYTE   N03  En1
 BYTE   W06
 BYTE   Ds1
 BYTE   N03  En1
 BYTE   W06
 BYTE   Ds1
 BYTE   N03  En1
 BYTE   W06
//  #05 //038   ----------------------------------------
 BYTE   N01  Fs1  v053
 BYTE   N05  Fn1  v100
 BYTE   W06
 BYTE   N03  Gs1  v053
 BYTE   W06
 BYTE   N12  As1
 BYTE   W06
 BYTE   N05  Fn1  v100
 BYTE   W06
 BYTE   N09  En1  v085
 BYTE   N01  Fs1  v053
 BYTE   W06
 BYTE   N03  Gs1
 BYTE   W06
 BYTE   N12  As1
 BYTE   W06
 BYTE   N09  En1  v072
 BYTE   W06
 BYTE   N01  Fs1  v053
 BYTE   N05  Fn1  v100
 BYTE   W06
 BYTE   N03  Gs1  v053
 BYTE   N09  En1  v072
 BYTE   W06
 BYTE   N12  As1  v053
 BYTE   N05  Fn1  v100
 BYTE   W12
 BYTE   N09  En1  v085
 BYTE   N01  Fs1  v053
 BYTE   W06
 BYTE   N03  Gs1
 BYTE   W06
 BYTE   N12  As1
 BYTE   W06
 BYTE   N05  Fn1  v100
 BYTE   W06
//  #05 //039   ----------------------------------------
 BYTE   N01  Fs1  v053
 BYTE   N05  Fn1  v100
 BYTE   W06
 BYTE   N03  Gs1  v053
 BYTE   W06
 BYTE   N12  As1
 BYTE   W06
 BYTE   N05  Fn1  v100
 BYTE   W06
 BYTE   N09  En1  v085
 BYTE   N01  Fs1  v053
 BYTE   W06
 BYTE   N03  Gs1
 BYTE   W06
 BYTE   N12  As1
 BYTE   W06
 BYTE   N09  En1  v072
 BYTE   W06
 BYTE   N05  Fn1  v100
 BYTE   N01  Fs1  v053
 BYTE   W06
 BYTE   N09  En1  v072
 BYTE   N03  Gs1  v053
 BYTE   W06
 BYTE   N12  As1
 BYTE   N05  Fn1  v100
 BYTE   W12
 BYTE   N01  Fs1  v053
 BYTE   N09  En1  v085
 BYTE   W06
 BYTE   N03  Gs1  v053
 BYTE   W06
 BYTE   N12  As1
 BYTE   W06
 BYTE   N05  Fn1  v100
 BYTE   W06
//  #05 //040   ----------------------------------------
 BYTE   Fn1
 BYTE   N01  Fs1  v053
 BYTE   W06
 BYTE   N05  Fn1  v100
 BYTE   N03  Gs1  v053
 BYTE   W06
 BYTE   N05  Fn1  v100
 BYTE   N12  As1  v053
 BYTE   W06
 BYTE   N05  Fn1  v100
 BYTE   W06
 BYTE   N01  Fs1  v053
 BYTE   N09  En1  v085
 BYTE   W06
 BYTE   N03  Gs1  v053
 BYTE   W06
 BYTE   N12  As1
 BYTE   W06
 BYTE   N09  En1  v072
 BYTE   W06
 BYTE   N05  Fn1  v100
 BYTE   N01  Fs1  v053
 BYTE   W06
 BYTE   N03  Gs1
 BYTE   N09  En1  v072
 BYTE   W06
 BYTE   N12  As1  v053
 BYTE   N05  Fn1  v100
 BYTE   W12
 BYTE   N01  Fs1  v053
 BYTE   N09  En1  v085
 BYTE   W06
 BYTE   N03  Gs1  v053
 BYTE   W06
 BYTE   N12  As1
 BYTE   W06
 BYTE   N05  Fn1  v100
 BYTE   W06
//  #05 //041   ----------------------------------------
 BYTE   Fn1
 BYTE   N01  Fs1  v053
 BYTE   W06
 BYTE   N05  Fn1  v100
 BYTE   N03  Gs1  v053
 BYTE   W06
 BYTE   N12  As1
 BYTE   N05  Fn1  v100
 BYTE   W06
 BYTE   Fn1
 BYTE   W06
 BYTE   N01  Fs1  v053
 BYTE   N09  En1  v085
 BYTE   W06
 BYTE   N03  Gs1  v053
 BYTE   W06
 BYTE   N12  As1
 BYTE   W06
 BYTE   N09  En1  v072
 BYTE   W06
 BYTE   N01  Fs1  v053
 BYTE   N05  Fn1  v100
 BYTE   W06
 BYTE   N09  En1  v072
 BYTE   N03  Gs1  v053
 BYTE   W06
 BYTE   N05  Fn1  v100
 BYTE   N12  As1  v053
 BYTE   W12
 BYTE   N09  En1  v085
 BYTE   N01  Fs1  v053
 BYTE   W06
 BYTE   N03  Gs1
 BYTE   W06
 BYTE   N12  As1
 BYTE   N05  Fn1  v100
 BYTE   W06
 BYTE   N09  En1  v072
 BYTE   W06
//  #05 //042   ----------------------------------------
 BYTE   N01  Fs1  v053
 BYTE   N05  Fn1  v100
 BYTE   W06
 BYTE   Fn1
 BYTE   N03  Gs1  v053
 BYTE   W06
 BYTE   N05  Fn1  v100
 BYTE   N12  As1  v053
 BYTE   W06
 BYTE   N05  Fn1  v100
 BYTE   W06
 BYTE   N09  En1  v085
 BYTE   N01  Fs1  v053
 BYTE   W06
 BYTE   N03  Gs1
 BYTE   W06
 BYTE   N12  As1
 BYTE   W06
 BYTE   N09  En1  v072
 BYTE   W06
 BYTE   N05  Fn1  v100
 BYTE   N01  Fs1  v053
 BYTE   W06
 BYTE   N09  En1  v072
 BYTE   N03  Gs1  v053
 BYTE   W06
 BYTE   N12  As1
 BYTE   N05  Fn1  v100
 BYTE   W12
 BYTE   N09  En1  v085
 BYTE   N01  Fs1  v053
 BYTE   W06
 BYTE   N03  Gs1
 BYTE   W06
 BYTE   N12  As1
 BYTE   W06
 BYTE   N05  Fn1  v100
 BYTE   W06
//  #05 //043   ----------------------------------------
 BYTE   N01  Fs1  v053
 BYTE   N05  Fn1  v100
 BYTE   W06
 BYTE   N03  Gs1  v053
 BYTE   N05  Fn1  v100
 BYTE   W06
 BYTE   N12  As1  v053
 BYTE   N05  Fn1  v100
 BYTE   W06
 BYTE   Fn1
 BYTE   W06
 BYTE   N09  En1  v085
 BYTE   N01  Fs1  v053
 BYTE   W06
 BYTE   N03  Gs1
 BYTE   W06
 BYTE   N12  As1
 BYTE   W06
 BYTE   N09  En1  v072
 BYTE   W06
 BYTE   N05  Fn1  v100
 BYTE   N01  Fs1  v053
 BYTE   W06
 BYTE   N09  En1  v072
 BYTE   N03  Gs1  v053
 BYTE   W06
 BYTE   N12  As1
 BYTE   N05  Fn1  v100
 BYTE   W12
 BYTE   N01  Fs1  v053
 BYTE   N09  En1  v085
 BYTE   W06
 BYTE   N03  Gs1  v053
 BYTE   W06
 BYTE   N12  As1
 BYTE   W06
 BYTE   N09  En1  v072
 BYTE   W06
//  #05 //044   ----------------------------------------
 BYTE   N05  Fn1  v100
 BYTE   N01  Fs1  v053
 BYTE   W06
 BYTE   N03  Gs1
 BYTE   W06
 BYTE   N12  As1
 BYTE   W06
 BYTE   N05  Fn1  v100
 BYTE   W06
 BYTE   N01  Fs1  v053
 BYTE   N09  En1  v085
 BYTE   W06
 BYTE   N03  Gs1  v053
 BYTE   W06
 BYTE   N12  As1
 BYTE   W06
 BYTE   N09  En1  v072
 BYTE   W06
 BYTE   N01  Fs1  v053
 BYTE   N05  Fn1  v100
 BYTE   W06
 BYTE   N09  En1  v072
 BYTE   N03  Gs1  v053
 BYTE   W06
 BYTE   N12  As1
 BYTE   N05  Fn1  v100
 BYTE   W12
 BYTE   N09  En1  v085
 BYTE   N01  Fs1  v053
 BYTE   W06
 BYTE   N03  Gs1
 BYTE   W06
 BYTE   N12  As1
 BYTE   W06
 BYTE   N09  En1  v072
 BYTE   W06
//  #05 //045   ----------------------------------------
 BYTE   N05  Fn1  v100
 BYTE   N01  Fs1  v053
 BYTE   W06
 BYTE   N03  Gs1
 BYTE   W06
 BYTE   N12  As1
 BYTE   W06
 BYTE   N05  Fn1  v100
 BYTE   W06
 BYTE   N09  En1  v085
 BYTE   N01  Fs1  v053
 BYTE   W06
 BYTE   N03  Gs1
 BYTE   W06
 BYTE   N12  As1
 BYTE   W06
 BYTE   N09  En1  v072
 BYTE   W06
 BYTE   N01  Fs1  v053
 BYTE   N05  Fn1  v100
 BYTE   W06
 BYTE   N09  En1  v072
 BYTE   N03  Gs1  v053
 BYTE   W06
 BYTE   N05  Fn1  v100
 BYTE   N12  As1  v053
 BYTE   W12
 BYTE   N01  Fs1
 BYTE   N09  En1  v085
 BYTE   W06
 BYTE   N03  Gs1  v053
 BYTE   W06
 BYTE   N12  As1
 BYTE   W06
 BYTE   N09  En1  v072
 BYTE   W06
//  #05 //046   ----------------------------------------
 BYTE   N12  As1  v053
 BYTE   N05  Fn1  v100
 BYTE   W24
 BYTE   Fn1
 BYTE   N01  Fs1  v053
 BYTE   W12
 BYTE   N18  An1
 BYTE   W12
 BYTE   N30  Gn2  v085
 BYTE   W48
//  #05 //047   ----------------------------------------
 BYTE   N12  As1  v053
 BYTE   N05  Fn1  v100
 BYTE   W24
 BYTE   N01  Fs1  v053
 BYTE   N05  Fn1  v100
 BYTE   W12
 BYTE   N18  An1  v053
 BYTE   W12
 BYTE   N30  Gn2  v072
 BYTE   W48
//  #05 //048   ----------------------------------------
 BYTE   N12  As1  v053
 BYTE   N05  Fn1  v100
 BYTE   W24
 BYTE   Fn1
 BYTE   N01  Fs1  v053
 BYTE   W12
 BYTE   N03  Gs1
 BYTE   N30  Gn2  v072
 BYTE   W60
//  #05 //049   ----------------------------------------
 BYTE   N12  As1  v053
 BYTE   N06  En1  v072
 BYTE   W06
 BYTE   N03
 BYTE   W06
 BYTE   N05  Fn1  v100
 BYTE   N32  An2  v059  gtp1
 BYTE   W12
 BYTE   N01  Fs1  v053
 BYTE   W12
 BYTE   N06  En1  v072
 BYTE   N03  Gs1  v053
 BYTE   W06
 BYTE   En1  v072
 BYTE   W06
 BYTE   N05  Fn1  v100
 BYTE   N18  Cs2  v059
 BYTE   W24
 BYTE   N30  Gn2  v072
 BYTE   W24
//  #05 //050   ----------------------------------------
 BYTE   N05  Fn1  v100
 BYTE   N01  Fs1  v053
 BYTE   W06
 BYTE   N03  Gs1
 BYTE   W06
 BYTE   N12  As1
 BYTE   W06
 BYTE   N05  Fn1  v100
 BYTE   W06
 BYTE   N01  Fs1  v053
 BYTE   W06
 BYTE   N03  Gs1
 BYTE   W06
 BYTE   N12  As1
 BYTE   N05  Fn1  v100
 BYTE   W12
 BYTE   N01  Fs1  v053
 BYTE   W06
 BYTE   N03  Gs1
 BYTE   W06
 BYTE   N05  Fn1  v100
 BYTE   N12  As1  v053
 BYTE   W06
 BYTE   N05  Fn1  v100
 BYTE   W06
 BYTE   N01  Fs1  v053
 BYTE   N09  En1  v085
 BYTE   W06
 BYTE   N03  Gs1  v053
 BYTE   W06
 BYTE   N12  As1
 BYTE   W12
//  #05 //051   ----------------------------------------
 BYTE   N05  Fn1  v100
 BYTE   N01  Fs1  v053
 BYTE   W06
 BYTE   N03  Gs1
 BYTE   W06
 BYTE   N12  As1
 BYTE   W06
 BYTE   N05  Fn1  v100
 BYTE   W06
 BYTE   N01  Fs1  v053
 BYTE   W06
 BYTE   N03  Gs1
 BYTE   W06
 BYTE   N05  Fn1  v100
 BYTE   N12  As1  v053
 BYTE   W12
 BYTE   N01  Fs1
 BYTE   W06
 BYTE   N03  Gs1
 BYTE   W06
 BYTE   N12  As1
 BYTE   N05  Fn1  v100
 BYTE   W12
 BYTE   N01  Fs1  v053
 BYTE   N09  En1  v085
 BYTE   W06
 BYTE   N03  Gs1  v053
 BYTE   W06
 BYTE   N12  As1
 BYTE   W12
//  #05 //052   ----------------------------------------
 BYTE   N01  Fs1
 BYTE   N05  Fn1  v100
 BYTE   W06
 BYTE   N03  Gs1  v053
 BYTE   W02
 BYTE   N09  En1  v085
 BYTE   N32  An2  v072  gtp1
 BYTE   W04
 BYTE   N12  As1  v053
 BYTE   W04
 BYTE   N05  Fn1  v100
 BYTE   W08
 BYTE   N01  Fs1  v053
 BYTE   N08  En1  v085
 BYTE   W06
 BYTE   N03  Gs1  v053
 BYTE   W02
 BYTE   N01  En1  v085
 BYTE   N18  Cs2  v072
 BYTE   W04
 BYTE   N12  As1  v053
 BYTE   W04
 BYTE   N05  Fn1  v100
 BYTE   W08
 BYTE   N01  Fs1  v053
 BYTE   N09  En1  v085
 BYTE   W06
 BYTE   N03  Gs1  v053
 BYTE   W02
 BYTE   N30  Gn2  v072
 BYTE   N05  Fn1  v100
 BYTE   W04
 BYTE   N12  As1  v053
 BYTE   W04
 BYTE   N05  Fn1  v100
 BYTE   W08
 BYTE   N08  En1  v085
 BYTE   N01  Fs1  v053
 BYTE   W06
 BYTE   N03  Gs1
 BYTE   W02
 BYTE   N01  En1  v085
 BYTE   W04
 BYTE   N12  As1  v053
 BYTE   W04
 BYTE   N01  En1  v085
 BYTE   W08
//  #05 //053   ----------------------------------------
 BYTE   N30  Gn2  v072
 BYTE   N01  Fs1  v053
 BYTE   N05  Fn1  v100
 BYTE   W04
 BYTE   N32  An2  v047  gtp1
 BYTE   W02
 BYTE   N03  Gs1  v053
 BYTE   W06
 BYTE   N12  As1
 BYTE   W06
 BYTE   N05  Fn1  v100
 BYTE   W06
 BYTE   N01  Fs1  v053
 BYTE   W06
 BYTE   N03  Gs1
 BYTE   W06
 BYTE   N05  Fn1  v100
 BYTE   N12  As1  v053
 BYTE   W12
 BYTE   N01  Fs1
 BYTE   W06
 BYTE   N03  Gs1
 BYTE   W06
 BYTE   N12  As1
 BYTE   N05  Fn1  v100
 BYTE   W06
 BYTE   Fn1
 BYTE   W06
 BYTE   N06  En1  v085
 BYTE   N01  Fs1  v053
 BYTE   W06
 BYTE   N03  En1  v085
 BYTE   N03  Gs1  v053
 BYTE   W06
 BYTE   N12  As1
 BYTE   W06
 BYTE   N09  En1  v085
 BYTE   W06
//  #05 //054   ----------------------------------------
 BYTE   N05  Fn1  v100
 BYTE   N01  Fs1  v053
 BYTE   W06
 BYTE   N03  Gs1
 BYTE   W06
 BYTE   N12  As1
 BYTE   W06
 BYTE   N05  Fn1  v100
 BYTE   W06
 BYTE   N01  Fs1  v053
 BYTE   W06
 BYTE   N03  Gs1
 BYTE   W06
 BYTE   N12  As1
 BYTE   N05  Fn1  v100
 BYTE   W12
 BYTE   N01  Fs1  v053
 BYTE   W06
 BYTE   N05  Fn1  v100
 BYTE   N03  Gs1  v053
 BYTE   W06
 BYTE   N12  As1
 BYTE   W06
 BYTE   N05  Fn1  v100
 BYTE   W06
 BYTE   N09  En1  v085
 BYTE   N01  Fs1  v053
 BYTE   W06
 BYTE   N03  Gs1
 BYTE   W06
 BYTE   N12  As1
 BYTE   W12
//  #05 //055   ----------------------------------------
Label_01026EC3:
 BYTE   N01  Fs1  v053
 BYTE   N05  Fn1  v100
 BYTE   W06
 BYTE   N03  Gs1  v053
 BYTE   W06
 BYTE   N12  As1
 BYTE   W06
 BYTE   N05  Fn1  v100
 BYTE   W06
 BYTE   N01  Fs1  v053
 BYTE   W06
 BYTE   N03  Gs1
 BYTE   W06
 BYTE   N12  As1
 BYTE   N05  Fn1  v100
 BYTE   W12
 BYTE   N01  Fs1  v053
 BYTE   W06
 BYTE   N05  Fn1  v100
 BYTE   N03  Gs1  v053
 BYTE   W06
 BYTE   N12  As1
 BYTE   W06
 BYTE   N05  Fn1  v100
 BYTE   W06
 BYTE   N09  En1  v085
 BYTE   N01  Fs1  v053
 BYTE   W06
 BYTE   N03  Gs1
 BYTE   W06
 BYTE   N12  As1
 BYTE   W06
 BYTE   N05  Fn1  v100
 BYTE   W06
 BYTE   PEND 
//  #05 //056   ----------------------------------------
 BYTE   PATT
  POIN2 Label_01026EC3
//  #05 //057   ----------------------------------------
 BYTE   N01  Fs1  v053
 BYTE   N05  Fn1  v100
 BYTE   W06
 BYTE   N03  Gs1  v053
 BYTE   W06
 BYTE   N12  As1
 BYTE   W06
 BYTE   N05  Fn1  v100
 BYTE   W06
 BYTE   N01  Fs1  v053
 BYTE   W06
 BYTE   N03  Gs1
 BYTE   W06
 BYTE   N05  Fn1  v100
 BYTE   N12  As1  v053
 BYTE   W12
 BYTE   N01  Fs1
 BYTE   W06
 BYTE   N05  Fn1  v100
 BYTE   N03  Gs1  v053
 BYTE   W06
 BYTE   N12  As1
 BYTE   W06
 BYTE   N05  Fn1  v100
 BYTE   W06
 BYTE   N01  Fs1  v053
 BYTE   N09  En1  v085
 BYTE   W06
 BYTE   N03  Gs1  v053
 BYTE   W06
 BYTE   N12  As1
 BYTE   W06
 BYTE   N05  Fn1  v100
 BYTE   W06
//  #05 //058   ----------------------------------------
 BYTE   N01  Fs1  v053
 BYTE   N05  Fn1  v100
 BYTE   W06
 BYTE   N03  Gs1  v053
 BYTE   W06
 BYTE   N12  As1
 BYTE   W06
 BYTE   N05  Fn1  v100
 BYTE   W06
 BYTE   N01  Fs1  v053
 BYTE   W06
 BYTE   N03  Gs1
 BYTE   W06
 BYTE   N05  Fn1  v100
 BYTE   N12  As1  v053
 BYTE   W12
 BYTE   N01  Fs1
 BYTE   W06
 BYTE   N03  Gs1
 BYTE   W06
 BYTE   N12  As1
 BYTE   W06
 BYTE   N05  Fn1  v100
 BYTE   W06
 BYTE   N01  Fs1  v053
 BYTE   N09  En1  v085
 BYTE   W06
 BYTE   N03  Gs1  v053
 BYTE   W06
 BYTE   N12  As1
 BYTE   W06
 BYTE   N05  Fn1  v085
 BYTE   W06
//  #05 //059   ----------------------------------------
 BYTE   N01  Fs1  v053
 BYTE   N05  Fn1  v100
 BYTE   W06
 BYTE   N03  Gs1  v053
 BYTE   W06
 BYTE   N12  As1
 BYTE   W06
 BYTE   N05  Fn1  v100
 BYTE   W06
 BYTE   N01  Fs1  v053
 BYTE   W06
 BYTE   N03  Gs1
 BYTE   W06
 BYTE   N05  Fn1  v100
 BYTE   N12  As1  v053
 BYTE   W12
 BYTE   N01  Fs1
 BYTE   W06
 BYTE   N03  Gs1
 BYTE   W06
 BYTE   N12  As1
 BYTE   N05  Fn1  v100
 BYTE   W12
 BYTE   N01  Fs1  v053
 BYTE   N09  En1  v085
 BYTE   W06
 BYTE   N03  Gs1  v053
 BYTE   W06
 BYTE   N12  As1
 BYTE   W06
 BYTE   N05  Fn1  v085
 BYTE   W06
//  #05 //060   ----------------------------------------
 BYTE   N01  Fs1  v053
 BYTE   N05  Fn1  v100
 BYTE   W06
 BYTE   N03  Gs1  v053
 BYTE   W02
 BYTE   N09  En1  v085
 BYTE   W04
 BYTE   N12  As1  v053
 BYTE   W04
 BYTE   N05  Fn1  v100
 BYTE   W08
 BYTE   N01  Fs1  v053
 BYTE   N08  En1  v085
 BYTE   W06
 BYTE   N03  Gs1  v053
 BYTE   W02
 BYTE   N01  En1  v085
 BYTE   W04
 BYTE   N12  As1  v053
 BYTE   W04
 BYTE   N05  Fn1  v100
 BYTE   W08
 BYTE   N01  Fs1  v053
 BYTE   N09  En1  v085
 BYTE   W06
 BYTE   N03  Gs1  v053
 BYTE   W02
 BYTE   N05  Fn1  v100
 BYTE   W04
 BYTE   N12  As1  v053
 BYTE   W04
 BYTE   N05  Fn1  v100
 BYTE   W08
 BYTE   N01  Fs1  v053
 BYTE   N09  En1  v085
 BYTE   W06
 BYTE   N03  Gs1  v053
 BYTE   W02
 BYTE   N05  Fn1  v100
 BYTE   W04
 BYTE   N12  As1  v053
 BYTE   W04
 BYTE   N05  Fn1  v100
 BYTE   W08
//  #05 //061   ----------------------------------------
 BYTE   Fn1
 BYTE   N32  An2  v059  gtp1
 BYTE   W16
 BYTE   N09  En1  v085
 BYTE   W08
 BYTE   N05  Fn1  v100
 BYTE   N18  Cs2  v059
 BYTE   W08
 BYTE   N08  En1  v085
 BYTE   W08
 BYTE   N01
 BYTE   W08
 BYTE   N05  Fn1  v100
 BYTE   W08
 BYTE   N09  En1  v085
 BYTE   W10
 BYTE   N05  Fn1  v100
 BYTE   W06
 BYTE   N08  En1  v059
 BYTE   W08
 BYTE   N01  En1  v072
 BYTE   W08
 BYTE   En1  v085
 BYTE   W08
//  #05 //062   ----------------------------------------
 BYTE   N18  Cs2  v065
 BYTE   N01  Fs1  v053
 BYTE   N05  Fn1  v100
 BYTE   W08
 BYTE   N03  Gs1  v053
 BYTE   W08
 BYTE   N05  Fn1  v100
 BYTE   N01  Fs1  v053
 BYTE   W08
 BYTE   N32  An2  v065  gtp1
 BYTE   N03  Gs1  v053
 BYTE   W08
 BYTE   N05  Fn1  v100
 BYTE   N01  Fs1  v053
 BYTE   W08
 BYTE   N12  As1
 BYTE   W08
 BYTE   N01  Fs1
 BYTE   W08
 BYTE   N12  As1
 BYTE   W08
 BYTE   N01  Fs1
 BYTE   W08
 BYTE   N12  As1
 BYTE   N32  An2  v065  gtp1
 BYTE   W08
 BYTE   N01  Fs1  v053
 BYTE   N05  Fn1  v085
 BYTE   W08
 BYTE   N12  As1  v053
 BYTE   N05  Fn1  v085
 BYTE   W08
//  #05 //063   ----------------------------------------
 BYTE   Fn1  v100
 BYTE   N01  Fs1  v053
 BYTE   N18  Cs2  v065
 BYTE   W16
 BYTE   N05  Fn1  v100
 BYTE   W08
 BYTE   N32  An2  v065  gtp1
 BYTE   N01  Fs1  v053
 BYTE   W08
 BYTE   N05  Fn1  v085
 BYTE   W08
 BYTE   Fn1
 BYTE   W08
 BYTE   N01  Fs1  v053
 BYTE   W16
 BYTE   N05  Fn1  v100
 BYTE   W08
 BYTE   N32  An2  v065  gtp1
 BYTE   N01  Fs1  v053
 BYTE   W08
 BYTE   N12  As1
 BYTE   W08
 BYTE   N01  Fs1
 BYTE   W08
//  #05 //064   ----------------------------------------
 BYTE   Fs1
 BYTE   N05  Fn1  v100
 BYTE   W18
 BYTE   Fn1
 BYTE   W06
 BYTE   N01  Fs1  v053
 BYTE   N32  An2  v065  gtp1
 BYTE   W06
 BYTE   N03  Gs1  v053
 BYTE   W06
 BYTE   N12  As1
 BYTE   N05  Fn1  v100
 BYTE   W12
 BYTE   N01  Fs1  v053
 BYTE   W06
 BYTE   N03  Gs1
 BYTE   N05  Fn1  v100
 BYTE   W06
 BYTE   N12  As1  v053
 BYTE   W06
 BYTE   N05  Fn1  v100
 BYTE   W06
 BYTE   N01  Fs1  v053
 BYTE   N09  En1  v085
 BYTE   W06
 BYTE   N03  Gs1  v053
 BYTE   W06
 BYTE   N12  As1
 BYTE   W12
//  #05 //065   ----------------------------------------
 BYTE   N01  Fs1
 BYTE   N05  Fn1  v100
 BYTE   W06
 BYTE   N03  Gs1  v053
 BYTE   W06
 BYTE   N12  As1
 BYTE   W06
 BYTE   N05  Fn1  v100
 BYTE   W06
 BYTE   N01  Fs1  v053
 BYTE   W06
 BYTE   N03  Gs1
 BYTE   W06
 BYTE   N12  As1
 BYTE   N05  Fn1  v100
 BYTE   W12
 BYTE   N01  Fs1  v053
 BYTE   W06
 BYTE   N03  Gs1
 BYTE   N05  Fn1  v100
 BYTE   W06
 BYTE   N12  As1  v053
 BYTE   W06
 BYTE   N05  Fn1  v100
 BYTE   W06
 BYTE   N01  Fs1  v053
 BYTE   N09  En1  v085
 BYTE   W06
 BYTE   N03  Gs1  v053
 BYTE   W06
 BYTE   N12  As1
 BYTE   W12
//  #05 //066   ----------------------------------------
 BYTE   N30  Gn2  v085
 BYTE   W96
//  #05 //067   ----------------------------------------
 BYTE   GoTo
  POIN2 Label_01026598
 BYTE   FINE

//**************** Track 6 (Midi-Chn.5) ****************//

PokemonB2W2PWTFinalTak_006:
//  #06 //000   ----------------------------------------
 BYTE   KEYSH   PokemonB2W2PWTFinalTak_key+0
 BYTE   VOICE   41
 BYTE   VOL   77*PokemonB2W2PWTFinalTak_mvl/mxv
 BYTE   PAN   c_v+20
 BYTE   BENDR  12
 BYTE   W96
//  #06 //001   ----------------------------------------
 BYTE   W96
//  #06 //002   ----------------------------------------
 BYTE   W96
//  #06 //003   ----------------------------------------
 BYTE   W96
//  #06 //004   ----------------------------------------
 BYTE   W96
//  #06 //005   ----------------------------------------
 BYTE   W96
//  #06 //006   ----------------------------------------
 BYTE   W96
//  #06 //007   ----------------------------------------
 BYTE   W96
//  #06 //008   ----------------------------------------
 BYTE   W96
//  #06 //009   ----------------------------------------
Label_0100413F:
 BYTE   W72
 BYTE   N08  Gn3  v116
 BYTE   W08
 BYTE   Fs3
 BYTE   W08
 BYTE   Gn3
 BYTE   W08
 BYTE   PEND 
//  #06 //010   ----------------------------------------
Label_01004149:
 BYTE   N12  Cn4  v116
 BYTE   W18
 BYTE   N06  Ds4
 BYTE   W06
 BYTE   N36  Gn4
 BYTE   W48
 BYTE   N08
 BYTE   W08
 BYTE   Fn4
 BYTE   W08
 BYTE   Ds4
 BYTE   W08
//  #06 //011   ----------------------------------------
 BYTE   N24  Dn4
 BYTE   W24
 BYTE   N36  As3
 BYTE   W48
 BYTE   N08  Gn3
 BYTE   W08
 BYTE   Fs3
 BYTE   W08
 BYTE   Gn3
 BYTE   W08
//  #06 //012   ----------------------------------------
 BYTE   N12  Gs3
 BYTE   W18
 BYTE   N06  Ds4
 BYTE   W06
 BYTE   N36  Gn4
 BYTE   W48
 BYTE   N06  As4
 BYTE   W12
 BYTE   Cn5
 BYTE   W12
//  #06 //013   ----------------------------------------
 BYTE   Dn4
 BYTE   W18
 BYTE   As3
 BYTE   W06
 BYTE   N24  Fn4
 BYTE   W48
 BYTE   N08  Gs3
 BYTE   W08
 BYTE   Gn3
 BYTE   W08
 BYTE   Gs3
 BYTE   W08
//  #06 //014   ----------------------------------------
 BYTE   N12  Ds4
 BYTE   W18
 BYTE   N06  Cn4
 BYTE   W06
 BYTE   N36  Gn4
 BYTE   W48
 BYTE   N08
 BYTE   W08
 BYTE   Fn4
 BYTE   W08
 BYTE   Ds4
 BYTE   W08
//  #06 //015   ----------------------------------------
 BYTE   N24  Dn4
 BYTE   W30
 BYTE   N06  Fn4
 BYTE   W06
 BYTE   N24  As3
 BYTE   W36
 BYTE   As3
 BYTE   W24
//  #06 //016   ----------------------------------------
 BYTE   TIE  Cn4
 BYTE   W96
//  #06 //017   ----------------------------------------
 BYTE   W96
//  #06 //018   ----------------------------------------
 BYTE   EOT
 BYTE   N18  As3  v085
 BYTE   W18
 BYTE   N06
 BYTE   W42
 BYTE   As3
 BYTE   W18
 BYTE   As3
 BYTE   W18
//  #06 //019   ----------------------------------------
 BYTE   N18
 BYTE   W18
 BYTE   N06
 BYTE   W54
 BYTE   As3
 BYTE   W18
 BYTE   As3
 BYTE   W06
//  #06 //020   ----------------------------------------
 BYTE   Fn3
 BYTE   W12
 BYTE   As3
 BYTE   W06
 BYTE   N18  Ds4
 BYTE   W18
 BYTE   N06
 BYTE   W24
 BYTE   Ds4
 BYTE   W18
 BYTE   Ds4
 BYTE   W18
//  #06 //021   ----------------------------------------
 BYTE   N18  Gs4
 BYTE   W18
 BYTE   N06
 BYTE   W12
 BYTE   Gs4
 BYTE   W18
 BYTE   N08
 BYTE   W08
 BYTE   Ds4
 BYTE   W08
 BYTE   Cn4
 BYTE   W08
 BYTE   Gs3
 BYTE   W08
 BYTE   Ds3
 BYTE   W08
 BYTE   Cn3
 BYTE   W08
//  #06 //022   ----------------------------------------
 BYTE   N06  As3
 BYTE   W18
 BYTE   Ds4
 BYTE   W06
 BYTE   Dn4
 BYTE   W36
 BYTE   As3
 BYTE   W18
 BYTE   As3
 BYTE   W18
//  #06 //023   ----------------------------------------
 BYTE   Ds4
 BYTE   W12
 BYTE   As3
 BYTE   W06
 BYTE   N12  Ds4
 BYTE   W54
 BYTE   N06  As3
 BYTE   W18
 BYTE   As3
 BYTE   W06
//  #06 //024   ----------------------------------------
 BYTE   N96  Ds4
 BYTE   W96
//  #06 //025   ----------------------------------------
 BYTE   N18  Gs4
 BYTE   W18
 BYTE   N06
 BYTE   W12
 BYTE   Gs4
 BYTE   W24
 BYTE   W02
 BYTE   N08  As3
 BYTE   W08
 BYTE   Fn3
 BYTE   W08
 BYTE   Ds4
 BYTE   W08
 BYTE   As3
 BYTE   W08
 BYTE   Gs4
 BYTE   W08
//  #06 //026   ----------------------------------------
 BYTE   W96
//  #06 //027   ----------------------------------------
 BYTE   W96
//  #06 //028   ----------------------------------------
 BYTE   W96
//  #06 //029   ----------------------------------------
 BYTE   W96
//  #06 //030   ----------------------------------------
 BYTE   W96
//  #06 //031   ----------------------------------------
 BYTE   W96
//  #06 //032   ----------------------------------------
 BYTE   W96
//  #06 //033   ----------------------------------------
 BYTE   W96
//  #06 //034   ----------------------------------------
 BYTE   W96
//  #06 //035   ----------------------------------------
 BYTE   W96
//  #06 //036   ----------------------------------------
 BYTE   W96
//  #06 //037   ----------------------------------------
 BYTE   W96
//  #06 //038   ----------------------------------------
Label_0100420C:
 BYTE   W18
 BYTE   BEND   c_v-1
 BYTE   W06
 BYTE   BEND   c_v+0
 BYTE   W72
 BYTE   PEND 
//  #06 //039   ----------------------------------------
 BYTE   W96
//  #06 //040   ----------------------------------------
 BYTE   PATT
  POIN2 Label_0100420C
//  #06 //041   ----------------------------------------
 BYTE   W96
//  #06 //042   ----------------------------------------
 BYTE   PATT
  POIN2 Label_0100420C
//  #06 //043   ----------------------------------------
 BYTE   PATT
  POIN2 Label_0100420C
//  #06 //044   ----------------------------------------
 BYTE   PATT
  POIN2 Label_0100420C
//  #06 //045   ----------------------------------------
 BYTE   W18
 BYTE   BEND   c_v-1
 BYTE   W06
 BYTE   BEND   c_v+0
 BYTE   W30
 BYTE   BEND   c_v+11
 BYTE   W24
 BYTE   W01
 BYTE   BEND   c_v+10
 BYTE   W09
 BYTE   BEND   c_v+9
 BYTE   W03
 BYTE   BEND   c_v+8
 BYTE   W02
 BYTE   BEND   c_v+7
 BYTE   W03
//  #06 //046   ----------------------------------------
 BYTE   BEND   c_v+6
 BYTE   W02
 BYTE   BEND   c_v+4
 BYTE   W02
 BYTE   BEND   c_v+1
 BYTE   W02
 BYTE   BEND   c_v+0
 BYTE   W90
//  #06 //047   ----------------------------------------
 BYTE   W96
//  #06 //048   ----------------------------------------
 BYTE   W96
//  #06 //049   ----------------------------------------
 BYTE   W96
//  #06 //050   ----------------------------------------
 BYTE   N06  Gn4  v085
 BYTE   W12
 BYTE   N04  Cn4
 BYTE   W04
 BYTE   Bn3
 BYTE   W08
 BYTE   N12  Cn4
 BYTE   W12
 BYTE   N06  Gn4
 BYTE   W12
 BYTE   N04  Cn4
 BYTE   W04
 BYTE   Bn3
 BYTE   W08
 BYTE   N12  Cn4
 BYTE   W12
 BYTE   N06
 BYTE   W12
 BYTE   Bn3
 BYTE   W06
 BYTE   Cn4
 BYTE   W06
//  #06 //051   ----------------------------------------
 BYTE   Gn4
 BYTE   W12
 BYTE   N04  Dn4
 BYTE   W04
 BYTE   Cs4
 BYTE   W08
 BYTE   N12  Dn4
 BYTE   W12
 BYTE   N06  Gn4
 BYTE   W12
 BYTE   N04  Dn4
 BYTE   W04
 BYTE   Cs4
 BYTE   W08
 BYTE   N12  Dn4
 BYTE   W12
 BYTE   N06  Bn3
 BYTE   W06
 BYTE   Dn4
 BYTE   W06
 BYTE   Cs4
 BYTE   W06
 BYTE   Dn4
 BYTE   W06
//  #06 //052   ----------------------------------------
 BYTE   N08
 BYTE   W08
 BYTE   Cs4  v053
 BYTE   W08
 BYTE   Dn4  v085
 BYTE   W08
 BYTE   Ds4
 BYTE   W08
 BYTE   Dn4  v053
 BYTE   W08
 BYTE   Ds4  v085
 BYTE   W08
 BYTE   En4
 BYTE   W08
 BYTE   Ds4  v053
 BYTE   W08
 BYTE   En4  v085
 BYTE   W08
 BYTE   Fn4
 BYTE   W08
 BYTE   En4  v053
 BYTE   W08
 BYTE   Fn4  v085
 BYTE   W08
//  #06 //053   ----------------------------------------
 BYTE   N48  Gn4
 BYTE   W48
 BYTE   N24  Fn4
 BYTE   W24
 BYTE   En4
 BYTE   W24
//  #06 //054   ----------------------------------------
 BYTE   N06  Gn4
 BYTE   W12
 BYTE   N04  Cn4
 BYTE   W04
 BYTE   Bn3
 BYTE   W08
 BYTE   N12  Cn4
 BYTE   W12
 BYTE   N06  Gn4
 BYTE   W12
 BYTE   N04  Cn4
 BYTE   W04
 BYTE   Bn3
 BYTE   W08
 BYTE   N12  Cn4
 BYTE   W12
 BYTE   N04
 BYTE   W06
 BYTE   Dn4
 BYTE   W06
 BYTE   En4
 BYTE   W06
 BYTE   Fn4
 BYTE   W06
//  #06 //055   ----------------------------------------
 BYTE   N06  Bn4
 BYTE   W12
 BYTE   N04  Dn4
 BYTE   W04
 BYTE   Cs4
 BYTE   W08
 BYTE   N12  Dn4
 BYTE   W12
 BYTE   N06  Bn4
 BYTE   W12
 BYTE   N04  Dn4
 BYTE   W04
 BYTE   Cs4
 BYTE   W08
 BYTE   N12  Dn4
 BYTE   W12
 BYTE   N04
 BYTE   W12
 BYTE   En4
 BYTE   W06
 BYTE   En4
 BYTE   W06
//  #06 //056   ----------------------------------------
 BYTE   N48  Gn4
 BYTE   W48
 BYTE   N24  Cn5
 BYTE   W24
 BYTE   N12  Gn4
 BYTE   N12  En5
 BYTE   W12
 BYTE   N06  Ds5
 BYTE   N06  Fs4
 BYTE   W06
 BYTE   Dn5
 BYTE   N06  Fn4
 BYTE   W06
//  #06 //057   ----------------------------------------
 BYTE   N72  En4
 BYTE   N72  Cn5
 BYTE   W72
 BYTE   N24  Gn4
 BYTE   W24
//  #06 //058   ----------------------------------------
 BYTE   W96
//  #06 //059   ----------------------------------------
 BYTE   W96
//  #06 //060   ----------------------------------------
 BYTE   W96
//  #06 //061   ----------------------------------------
 BYTE   W96
//  #06 //062   ----------------------------------------
 BYTE   N06
 BYTE   W96
//  #06 //063   ----------------------------------------
 BYTE   Gn4
 BYTE   W96
//  #06 //064   ----------------------------------------
 BYTE   N84  Fn4
 BYTE   W84
 BYTE   N06  Gn4
 BYTE   W12
//  #06 //065   ----------------------------------------
 BYTE   N96  En4
 BYTE   W96
//  #06 //066   ----------------------------------------
 BYTE   PATT
  POIN2 Label_0100413F
//  #06 //067   ----------------------------------------
 BYTE   GoTo
  POIN2 Label_01004149
 BYTE   FINE

//**************** Track 7 (Midi-Chn.6) ****************//

PokemonB2W2PWTFinalTak_007:
//  #07 //000   ----------------------------------------
 BYTE   KEYSH   PokemonB2W2PWTFinalTak_key+0
 BYTE   VOICE   66
 BYTE   VOL   68*PokemonB2W2PWTFinalTak_mvl/mxv
 BYTE   PAN   c_v-19
 BYTE   BENDR  12
 BYTE   W96
//  #07 //001   ----------------------------------------
 BYTE   W96
//  #07 //002   ----------------------------------------
 BYTE   W96
//  #07 //003   ----------------------------------------
 BYTE   W96
//  #07 //004   ----------------------------------------
 BYTE   W96
//  #07 //005   ----------------------------------------
 BYTE   W96
//  #07 //006   ----------------------------------------
 BYTE   W96
//  #07 //007   ----------------------------------------
 BYTE   W96
//  #07 //008   ----------------------------------------
 BYTE   W96
//  #07 //009   ----------------------------------------
Label_0102715F:
 BYTE   W72
 BYTE   N24  Dn2  v085
 BYTE   W24
 BYTE   PEND 
//  #07 //010   ----------------------------------------
Label_01027165:
 BYTE   N21  Gs1  v085
 BYTE   N21  Ds2
 BYTE   W36
 BYTE   Gs1
 BYTE   N21  Ds2
 BYTE   W36
 BYTE   Gs1
 BYTE   N21  Ds2
 BYTE   W24
//  #07 //011   ----------------------------------------
 BYTE   As1
 BYTE   N21  Fn2
 BYTE   W36
 BYTE   As1
 BYTE   N21  Fn2
 BYTE   W36
 BYTE   As1
 BYTE   N21  Fn2
 BYTE   W24
//  #07 //012   ----------------------------------------
 BYTE   Ds2
 BYTE   N21  Gs1
 BYTE   W36
 BYTE   Gs1
 BYTE   N21  Ds2
 BYTE   W36
 BYTE   Ds2
 BYTE   N21  Gs1
 BYTE   W24
//  #07 //013   ----------------------------------------
 BYTE   N12  Fn2
 BYTE   N12  As1
 BYTE   W18
 BYTE   As1
 BYTE   N12  Fn2
 BYTE   W18
 BYTE   As1
 BYTE   N12  Fn2
 BYTE   W36
 BYTE   N21  As1
 BYTE   N21  Fn2
 BYTE   W24
//  #07 //014   ----------------------------------------
 BYTE   Gs1
 BYTE   N21  Ds2
 BYTE   W36
 BYTE   Gs1
 BYTE   N21  Ds2
 BYTE   W36
 BYTE   Gs1
 BYTE   N21  Ds2
 BYTE   W24
//  #07 //015   ----------------------------------------
 BYTE   Fn2
 BYTE   N21  As1
 BYTE   W36
 BYTE   Fn2
 BYTE   N21  As1
 BYTE   W36
 BYTE   As1
 BYTE   N21  Fn2
 BYTE   W24
//  #07 //016   ----------------------------------------
Label_010271B5:
 BYTE   N21  Cn2  v085
 BYTE   N21  Gn2
 BYTE   W36
 BYTE   Cn2
 BYTE   N21  Gn2
 BYTE   W36
 BYTE   Gn2
 BYTE   N21  Cn2
 BYTE   W24
 BYTE   PEND 
//  #07 //017   ----------------------------------------
 BYTE   PATT
  POIN2 Label_010271B5
//  #07 //018   ----------------------------------------
 BYTE   W96
//  #07 //019   ----------------------------------------
 BYTE   W96
//  #07 //020   ----------------------------------------
 BYTE   W96
//  #07 //021   ----------------------------------------
 BYTE   W96
//  #07 //022   ----------------------------------------
 BYTE   W96
//  #07 //023   ----------------------------------------
 BYTE   W96
//  #07 //024   ----------------------------------------
 BYTE   W96
//  #07 //025   ----------------------------------------
 BYTE   W96
//  #07 //026   ----------------------------------------
 BYTE   W96
//  #07 //027   ----------------------------------------
 BYTE   W96
//  #07 //028   ----------------------------------------
 BYTE   W96
//  #07 //029   ----------------------------------------
 BYTE   W96
//  #07 //030   ----------------------------------------
 BYTE   W96
//  #07 //031   ----------------------------------------
 BYTE   W96
//  #07 //032   ----------------------------------------
 BYTE   W96
//  #07 //033   ----------------------------------------
 BYTE   W96
//  #07 //034   ----------------------------------------
 BYTE   W96
//  #07 //035   ----------------------------------------
 BYTE   W96
//  #07 //036   ----------------------------------------
 BYTE   W96
//  #07 //037   ----------------------------------------
 BYTE   W72
 BYTE   N24  Gn2  v085
 BYTE   N24  Gn3
 BYTE   W24
//  #07 //038   ----------------------------------------
 BYTE   N12  Cn4
 BYTE   N12  Cn3
 BYTE   W18
 BYTE   N06  Ds4
 BYTE   N06  Ds3
 BYTE   W06
 BYTE   N36  Gn3
 BYTE   N36  Gn4
 BYTE   W48
 BYTE   N08  Gn3
 BYTE   N08  Gn4
 BYTE   W08
 BYTE   Fn4
 BYTE   N08  Fn3
 BYTE   W08
 BYTE   Ds4
 BYTE   N08  Ds3
 BYTE   W08
//  #07 //039   ----------------------------------------
 BYTE   N24  Dn4
 BYTE   N24  Dn3
 BYTE   W24
 BYTE   N36  As2
 BYTE   N36  As3
 BYTE   W48
 BYTE   N08  Gn3
 BYTE   N08  Gn2
 BYTE   W08
 BYTE   Fs3
 BYTE   N08  Fs2
 BYTE   W08
 BYTE   Gn2
 BYTE   N08  Gn3
 BYTE   W08
//  #07 //040   ----------------------------------------
 BYTE   N12  Gs2
 BYTE   N12  Gs3
 BYTE   W18
 BYTE   N06  Ds3
 BYTE   N06  Ds4
 BYTE   W06
 BYTE   N42  Gn4
 BYTE   N42  Gn3
 BYTE   W48
 BYTE   N06  As4
 BYTE   N06  As3
 BYTE   W12
 BYTE   Cn5
 BYTE   N06  Cn4
 BYTE   W12
//  #07 //041   ----------------------------------------
 BYTE   Dn3
 BYTE   N06  Dn4
 BYTE   W18
 BYTE   As3
 BYTE   N06  As2
 BYTE   W06
 BYTE   N24  Fn4
 BYTE   N24  Fn3
 BYTE   W48
 BYTE   N08  Gs2
 BYTE   N08  Gs3
 BYTE   W08
 BYTE   Gn3
 BYTE   N08  Gn2
 BYTE   W08
 BYTE   Gs3
 BYTE   N08  Gs2
 BYTE   W08
//  #07 //042   ----------------------------------------
 BYTE   N12  Cn3
 BYTE   N12  Ds4
 BYTE   N12  Ds3
 BYTE   W18
 BYTE   N06  Cn3
 BYTE   N06  Cn4
 BYTE   N06  Gs2
 BYTE   W06
 BYTE   N36  Gn3
 BYTE   N36  Gn4
 BYTE   N24  Ds3
 BYTE   W24
 BYTE   N12  Dn3
 BYTE   W24
 BYTE   N08  Gn3
 BYTE   N08  Gn4
 BYTE   N08  Dn3
 BYTE   W08
 BYTE   Cn3
 BYTE   N08  Fn4
 BYTE   N08  Fn3
 BYTE   W08
 BYTE   Ds3
 BYTE   N08  Ds4
 BYTE   N08  As2
 BYTE   W08
//  #07 //043   ----------------------------------------
 BYTE   N18  Dn3
 BYTE   N24  Dn4
 BYTE   W24
 BYTE   N18  As2
 BYTE   W12
 BYTE   N24  As3
 BYTE   W12
 BYTE   N18  Fn2
 BYTE   W24
 BYTE   N12  Fn3
 BYTE   N12  Fn2
 BYTE   N24  As3
 BYTE   N24  As2
 BYTE   W12
 BYTE   N06  Ds3
 BYTE   N06  Ds2
 BYTE   W06
 BYTE   Dn3
 BYTE   N06  Dn2
 BYTE   W06
//  #07 //044   ----------------------------------------
 BYTE   TIE  Cn3
 BYTE   W96
//  #07 //045   ----------------------------------------
 BYTE   W96
//  #07 //046   ----------------------------------------
 BYTE   EOT
 BYTE   W96
//  #07 //047   ----------------------------------------
 BYTE   W96
//  #07 //048   ----------------------------------------
 BYTE   W96
//  #07 //049   ----------------------------------------
 BYTE   W96
//  #07 //050   ----------------------------------------
 BYTE   W96
//  #07 //051   ----------------------------------------
 BYTE   W96
//  #07 //052   ----------------------------------------
 BYTE   W96
//  #07 //053   ----------------------------------------
 BYTE   W96
//  #07 //054   ----------------------------------------
 BYTE   W96
//  #07 //055   ----------------------------------------
 BYTE   W96
//  #07 //056   ----------------------------------------
 BYTE   W96
//  #07 //057   ----------------------------------------
 BYTE   W96
//  #07 //058   ----------------------------------------
 BYTE   W96
//  #07 //059   ----------------------------------------
 BYTE   W96
//  #07 //060   ----------------------------------------
 BYTE   W96
//  #07 //061   ----------------------------------------
 BYTE   N24  Cs3  v065
 BYTE   W24
 BYTE   An2
 BYTE   W24
 BYTE   Gn3
 BYTE   W24
 BYTE   En3
 BYTE   W24
//  #07 //062   ----------------------------------------
 BYTE   W96
//  #07 //063   ----------------------------------------
 BYTE   W96
//  #07 //064   ----------------------------------------
 BYTE   W96
//  #07 //065   ----------------------------------------
 BYTE   W96
//  #07 //066   ----------------------------------------
 BYTE   PATT
  POIN2 Label_0102715F
//  #07 //067   ----------------------------------------
 BYTE   GoTo
  POIN2 Label_01027165
 BYTE   FINE

//**************** Track 8 (Midi-Chn.7) ****************//

PokemonB2W2PWTFinalTak_008:
//  #08 //000   ----------------------------------------
 BYTE   KEYSH   PokemonB2W2PWTFinalTak_key+0
 BYTE   VOICE   73
 BYTE   VOL   77*PokemonB2W2PWTFinalTak_mvl/mxv
 BYTE   BENDR  12
 BYTE   W96
//  #08 //001   ----------------------------------------
 BYTE   W96
//  #08 //002   ----------------------------------------
 BYTE   W96
//  #08 //003   ----------------------------------------
 BYTE   W96
//  #08 //004   ----------------------------------------
 BYTE   W96
//  #08 //005   ----------------------------------------
 BYTE   W96
//  #08 //006   ----------------------------------------
 BYTE   W96
//  #08 //007   ----------------------------------------
 BYTE   W96
//  #08 //008   ----------------------------------------
 BYTE   W96
//  #08 //009   ----------------------------------------
 BYTE   W96
//  #08 //010   ----------------------------------------
Label_010005E2:
 BYTE   W96
//  #08 //011   ----------------------------------------
 BYTE   W96
//  #08 //012   ----------------------------------------
 BYTE   W96
//  #08 //013   ----------------------------------------
 BYTE   W96
//  #08 //014   ----------------------------------------
 BYTE   W96
//  #08 //015   ----------------------------------------
 BYTE   W96
//  #08 //016   ----------------------------------------
 BYTE   W96
//  #08 //017   ----------------------------------------
 BYTE   W96
//  #08 //018   ----------------------------------------
 BYTE   W96
//  #08 //019   ----------------------------------------
 BYTE   W96
//  #08 //020   ----------------------------------------
 BYTE   W96
//  #08 //021   ----------------------------------------
 BYTE   W96
//  #08 //022   ----------------------------------------
 BYTE   W96
//  #08 //023   ----------------------------------------
 BYTE   W96
//  #08 //024   ----------------------------------------
 BYTE   W96
//  #08 //025   ----------------------------------------
 BYTE   W96
//  #08 //026   ----------------------------------------
 BYTE   W96
//  #08 //027   ----------------------------------------
 BYTE   W96
//  #08 //028   ----------------------------------------
 BYTE   W96
//  #08 //029   ----------------------------------------
 BYTE   W96
//  #08 //030   ----------------------------------------
Label_010005F6:
 BYTE   N03  En4  v085
 BYTE   W01
 BYTE   N32  Fn4  v085  gtp3
 BYTE   W32
 BYTE   W03
 BYTE   N36  Gn4
 BYTE   W36
 BYTE   N12  As4
 BYTE   W24
 BYTE   PEND 
//  #08 //031   ----------------------------------------
 BYTE   N36  Fn4
 BYTE   W36
 BYTE   Gn4
 BYTE   W36
 BYTE   N12  Ds4
 BYTE   W24
//  #08 //032   ----------------------------------------
 BYTE   N03  Cs4
 BYTE   W01
 BYTE   N23  Dn4
 BYTE   W23
 BYTE   N12  Ds4
 BYTE   W12
 BYTE   Fn4
 BYTE   W24
 BYTE   As3
 BYTE   W24
 BYTE   Ds4
 BYTE   W12
//  #08 //033   ----------------------------------------
 BYTE   Dn4
 BYTE   W12
 BYTE   Ds4
 BYTE   W12
 BYTE   Dn4
 BYTE   W12
 BYTE   N36  Cn4
 BYTE   W36
 BYTE   N06  Cn5
 BYTE   W06
 BYTE   As4
 BYTE   W06
 BYTE   Gs4
 BYTE   W06
 BYTE   Gn4
 BYTE   W06
//  #08 //034   ----------------------------------------
 BYTE   PATT
  POIN2 Label_010005F6
//  #08 //035   ----------------------------------------
 BYTE   N03  Cs5  v085
 BYTE   W01
 BYTE   N11  Dn5
 BYTE   W11
 BYTE   N12  Ds5
 BYTE   W12
 BYTE   Dn5
 BYTE   W12
 BYTE   As4
 BYTE   W24
 BYTE   Fn4
 BYTE   W12
 BYTE   As4
 BYTE   W12
 BYTE   Fn5
 BYTE   W12
//  #08 //036   ----------------------------------------
 BYTE   N03  Cs5
 BYTE   W01
 BYTE   N23  Dn5
 BYTE   W23
 BYTE   N12  Ds5
 BYTE   W12
 BYTE   Fn5
 BYTE   W24
 BYTE   As4
 BYTE   W12
 BYTE   N03  Cs5
 BYTE   W01
 BYTE   N11  Dn5
 BYTE   W11
 BYTE   N12  Ds5
 BYTE   W12
//  #08 //037   ----------------------------------------
 BYTE   N36  Fn5
 BYTE   W36
 BYTE   N60  Gn5  v072
 BYTE   W60
//  #08 //038   ----------------------------------------
 BYTE   W96
//  #08 //039   ----------------------------------------
 BYTE   W96
//  #08 //040   ----------------------------------------
 BYTE   W96
//  #08 //041   ----------------------------------------
 BYTE   W96
//  #08 //042   ----------------------------------------
 BYTE   W96
//  #08 //043   ----------------------------------------
 BYTE   W96
//  #08 //044   ----------------------------------------
 BYTE   W96
//  #08 //045   ----------------------------------------
 BYTE   W96
//  #08 //046   ----------------------------------------
 BYTE   W96
//  #08 //047   ----------------------------------------
 BYTE   W96
//  #08 //048   ----------------------------------------
 BYTE   W96
//  #08 //049   ----------------------------------------
 BYTE   W96
//  #08 //050   ----------------------------------------
 BYTE   W96
//  #08 //051   ----------------------------------------
 BYTE   W96
//  #08 //052   ----------------------------------------
 BYTE   W96
//  #08 //053   ----------------------------------------
 BYTE   W96
//  #08 //054   ----------------------------------------
 BYTE   W96
//  #08 //055   ----------------------------------------
 BYTE   W96
//  #08 //056   ----------------------------------------
 BYTE   W96
//  #08 //057   ----------------------------------------
 BYTE   W96
//  #08 //058   ----------------------------------------
 BYTE   W96
//  #08 //059   ----------------------------------------
 BYTE   W96
//  #08 //060   ----------------------------------------
 BYTE   W96
//  #08 //061   ----------------------------------------
 BYTE   W96
//  #08 //062   ----------------------------------------
 BYTE   W96
//  #08 //063   ----------------------------------------
 BYTE   W96
//  #08 //064   ----------------------------------------
 BYTE   W96
//  #08 //065   ----------------------------------------
 BYTE   W96
//  #08 //066   ----------------------------------------
 BYTE   W96
//  #08 //067   ----------------------------------------
 BYTE   GoTo
  POIN2 Label_010005E2
 BYTE   FINE

//**************** Track 9 (Midi-Chn.8) ****************//

PokemonB2W2PWTFinalTak_009:
//  #09 //000   ----------------------------------------
 BYTE   KEYSH   PokemonB2W2PWTFinalTak_key+0
 BYTE   VOICE   127
 BYTE   VOL   95*PokemonB2W2PWTFinalTak_mvl/mxv
 BYTE   BENDR  12
 BYTE   W96
//  #09 //001   ----------------------------------------
 BYTE   W96
//  #09 //002   ----------------------------------------
 BYTE   W96
//  #09 //003   ----------------------------------------
 BYTE   W96
//  #09 //004   ----------------------------------------
 BYTE   W96
//  #09 //005   ----------------------------------------
 BYTE   W96
//  #09 //006   ----------------------------------------
 BYTE   W96
//  #09 //007   ----------------------------------------
 BYTE   W96
//  #09 //008   ----------------------------------------
 BYTE   W96
//  #09 //009   ----------------------------------------
 BYTE   W96
//  #09 //010   ----------------------------------------
Label_0100433E:
 BYTE   N12  Dn1  v054
 BYTE   W12
 BYTE   N06
 BYTE   W06
 BYTE   Dn1
 BYTE   W06
 BYTE   N12
 BYTE   W12
 BYTE   Dn1
 BYTE   W24
 BYTE   N18
 BYTE   W24
 BYTE   N12
 BYTE   W12
//  #09 //011   ----------------------------------------
Label_0100434E:
 BYTE   N12  Dn1  v054
 BYTE   W12
 BYTE   N06
 BYTE   W06
 BYTE   Dn1
 BYTE   W06
 BYTE   N12
 BYTE   W12
 BYTE   Dn1
 BYTE   W24
 BYTE   N18
 BYTE   W24
 BYTE   N12
 BYTE   W12
 BYTE   PEND 
//  #09 //012   ----------------------------------------
 BYTE   PATT
  POIN2 Label_0100434E
//  #09 //013   ----------------------------------------
 BYTE   N12  Dn1  v054
 BYTE   W12
 BYTE   N06
 BYTE   W06
 BYTE   Dn1
 BYTE   W06
 BYTE   N12
 BYTE   W12
 BYTE   Dn1
 BYTE   W36
 BYTE   N06
 BYTE   W06
 BYTE   Dn1
 BYTE   W06
 BYTE   Dn1
 BYTE   W06
 BYTE   Dn1
 BYTE   W06
//  #09 //014   ----------------------------------------
 BYTE   PATT
  POIN2 Label_0100434E
//  #09 //015   ----------------------------------------
 BYTE   N12  Dn1  v054
 BYTE   W12
 BYTE   N06
 BYTE   W06
 BYTE   Dn1
 BYTE   W06
 BYTE   N12
 BYTE   W12
 BYTE   Dn1
 BYTE   W24
 BYTE   N06
 BYTE   W06
 BYTE   Dn1
 BYTE   W06
 BYTE   Dn1
 BYTE   W06
 BYTE   Dn1
 BYTE   W06
 BYTE   Dn1
 BYTE   W06
 BYTE   Dn1
 BYTE   W06
//  #09 //016   ----------------------------------------
 BYTE   PATT
  POIN2 Label_0100434E
//  #09 //017   ----------------------------------------
 BYTE   N12  Dn1  v054
 BYTE   W12
 BYTE   N06
 BYTE   W06
 BYTE   Dn1
 BYTE   W06
 BYTE   N12
 BYTE   W12
 BYTE   Dn1
 BYTE   W12
 BYTE   N48  Ds1
 BYTE   W48
//  #09 //018   ----------------------------------------
 BYTE   W96
//  #09 //019   ----------------------------------------
 BYTE   W96
//  #09 //020   ----------------------------------------
 BYTE   W96
//  #09 //021   ----------------------------------------
 BYTE   W96
//  #09 //022   ----------------------------------------
 BYTE   W96
//  #09 //023   ----------------------------------------
 BYTE   W96
//  #09 //024   ----------------------------------------
 BYTE   W96
//  #09 //025   ----------------------------------------
 BYTE   W96
//  #09 //026   ----------------------------------------
 BYTE   W96
//  #09 //027   ----------------------------------------
 BYTE   W96
//  #09 //028   ----------------------------------------
 BYTE   W96
//  #09 //029   ----------------------------------------
 BYTE   W96
//  #09 //030   ----------------------------------------
 BYTE   W96
//  #09 //031   ----------------------------------------
 BYTE   W96
//  #09 //032   ----------------------------------------
 BYTE   W96
//  #09 //033   ----------------------------------------
 BYTE   W96
//  #09 //034   ----------------------------------------
 BYTE   W96
//  #09 //035   ----------------------------------------
 BYTE   W96
//  #09 //036   ----------------------------------------
 BYTE   W96
//  #09 //037   ----------------------------------------
 BYTE   W96
//  #09 //038   ----------------------------------------
 BYTE   W96
//  #09 //039   ----------------------------------------
 BYTE   W96
//  #09 //040   ----------------------------------------
 BYTE   W96
//  #09 //041   ----------------------------------------
 BYTE   W96
//  #09 //042   ----------------------------------------
 BYTE   W96
//  #09 //043   ----------------------------------------
 BYTE   W96
//  #09 //044   ----------------------------------------
 BYTE   W96
//  #09 //045   ----------------------------------------
 BYTE   W96
//  #09 //046   ----------------------------------------
 BYTE   W96
//  #09 //047   ----------------------------------------
 BYTE   W96
//  #09 //048   ----------------------------------------
 BYTE   W96
//  #09 //049   ----------------------------------------
 BYTE   W96
//  #09 //050   ----------------------------------------
 BYTE   W96
//  #09 //051   ----------------------------------------
 BYTE   W96
//  #09 //052   ----------------------------------------
 BYTE   W96
//  #09 //053   ----------------------------------------
 BYTE   W96
//  #09 //054   ----------------------------------------
 BYTE   W96
//  #09 //055   ----------------------------------------
 BYTE   W96
//  #09 //056   ----------------------------------------
 BYTE   W96
//  #09 //057   ----------------------------------------
 BYTE   W96
//  #09 //058   ----------------------------------------
 BYTE   W96
//  #09 //059   ----------------------------------------
 BYTE   W96
//  #09 //060   ----------------------------------------
 BYTE   W96
//  #09 //061   ----------------------------------------
 BYTE   W96
//  #09 //062   ----------------------------------------
 BYTE   W96
//  #09 //063   ----------------------------------------
 BYTE   W96
//  #09 //064   ----------------------------------------
 BYTE   W96
//  #09 //065   ----------------------------------------
 BYTE   W96
//  #09 //066   ----------------------------------------
 BYTE   W96
//  #09 //067   ----------------------------------------
 BYTE   GoTo
  POIN2 Label_0100433E
 BYTE   FINE

//**************** Track 10 (Midi-Chn.9) ****************//

PokemonB2W2PWTFinalTak_010:
//  #10 //000   ----------------------------------------
 BYTE   KEYSH   PokemonB2W2PWTFinalTak_key+0
 BYTE   VOICE   11
 BYTE   VOL   33*PokemonB2W2PWTFinalTak_mvl/mxv
 BYTE   PAN   c_v+51
 BYTE   BENDR  12
 BYTE   W96
//  #10 //001   ----------------------------------------
 BYTE   W96
//  #10 //002   ----------------------------------------
 BYTE   W96
//  #10 //003   ----------------------------------------
 BYTE   W96
//  #10 //004   ----------------------------------------
 BYTE   W96
//  #10 //005   ----------------------------------------
 BYTE   W96
//  #10 //006   ----------------------------------------
 BYTE   W96
//  #10 //007   ----------------------------------------
 BYTE   W96
//  #10 //008   ----------------------------------------
 BYTE   W96
//  #10 //009   ----------------------------------------
 BYTE   W96
//  #10 //010   ----------------------------------------
Label_010272D4:
 BYTE   W96
//  #10 //011   ----------------------------------------
 BYTE   W96
//  #10 //012   ----------------------------------------
 BYTE   W96
//  #10 //013   ----------------------------------------
 BYTE   W12
 BYTE   N04  Gs5  v059
 BYTE   W06
 BYTE   As5
 BYTE   W06
 BYTE   Fn5
 BYTE   W06
 BYTE   Gn5
 BYTE   W06
 BYTE   Dn5
 BYTE   W06
 BYTE   Ds5
 BYTE   W06
 BYTE   Cn5
 BYTE   W06
 BYTE   Dn5
 BYTE   W06
 BYTE   An4
 BYTE   W06
 BYTE   As4
 BYTE   W06
 BYTE   N06  Fn4  v085
 BYTE   W06
 BYTE   An4
 BYTE   W06
 BYTE   N04  As4  v059
 BYTE   W06
 BYTE   Dn5
 BYTE   W06
//  #10 //014   ----------------------------------------
 BYTE   N32  Fn5  v059  gtp2
 BYTE   W36
 BYTE   Gn5
 BYTE   W36
 BYTE   N22  As5
 BYTE   W24
//  #10 //015   ----------------------------------------
 BYTE   N28  Dn5
 BYTE   W30
 BYTE   N04  Fn5
 BYTE   W06
 BYTE   N22  As4
 BYTE   W60
//  #10 //016   ----------------------------------------
 BYTE   N04  Cn5
 BYTE   W06
 BYTE   Gn4
 BYTE   W06
 BYTE   Fn5
 BYTE   W06
 BYTE   Gn5
 BYTE   W06
 BYTE   Cn6
 BYTE   W06
 BYTE   Cn5
 BYTE   W06
 BYTE   Gn4
 BYTE   W06
 BYTE   Fn5
 BYTE   W06
 BYTE   Gn5
 BYTE   W06
 BYTE   Cn6
 BYTE   W06
 BYTE   Gn5
 BYTE   W06
 BYTE   Fn5
 BYTE   W06
 BYTE   Cn5
 BYTE   W06
 BYTE   Gn4
 BYTE   W06
 BYTE   Fn5
 BYTE   W06
 BYTE   Gn5
 BYTE   W06
//  #10 //017   ----------------------------------------
 BYTE   Cn6
 BYTE   W06
 BYTE   Cn5
 BYTE   W06
 BYTE   Gn4
 BYTE   W06
 BYTE   Fn5
 BYTE   W06
 BYTE   Gn5
 BYTE   W06
 BYTE   Cn6
 BYTE   W06
 BYTE   Gn5
 BYTE   W06
 BYTE   Fn5
 BYTE   W06
 BYTE   Cn5
 BYTE   W06
 BYTE   Fn5
 BYTE   W06
 BYTE   Gn5
 BYTE   W06
 BYTE   Cn6
 BYTE   W06
 BYTE   Fn6
 BYTE   W03
 BYTE   Cn6
 BYTE   W03
 BYTE   Gn5
 BYTE   W03
 BYTE   Fn5
 BYTE   W03
 BYTE   Cn5
 BYTE   W03
 BYTE   Gn4
 BYTE   W09
//  #10 //018   ----------------------------------------
 BYTE   W96
//  #10 //019   ----------------------------------------
 BYTE   W96
//  #10 //020   ----------------------------------------
 BYTE   W96
//  #10 //021   ----------------------------------------
 BYTE   W96
//  #10 //022   ----------------------------------------
 BYTE   W96
//  #10 //023   ----------------------------------------
 BYTE   W96
//  #10 //024   ----------------------------------------
 BYTE   W96
//  #10 //025   ----------------------------------------
 BYTE   W96
//  #10 //026   ----------------------------------------
 BYTE   W96
//  #10 //027   ----------------------------------------
 BYTE   W96
//  #10 //028   ----------------------------------------
 BYTE   W96
//  #10 //029   ----------------------------------------
 BYTE   W96
//  #10 //030   ----------------------------------------
 BYTE   N03  Cn6  v058
 BYTE   W06
 BYTE   Gn5
 BYTE   W06
 BYTE   Fn5
 BYTE   W06
 BYTE   Cn5
 BYTE   W06
 BYTE   Cn6
 BYTE   W06
 BYTE   Cn5
 BYTE   W06
 BYTE   Fn5
 BYTE   W06
 BYTE   Gn5
 BYTE   W06
 BYTE   Cn6
 BYTE   W06
 BYTE   Cn5
 BYTE   W06
 BYTE   Fn5
 BYTE   W06
 BYTE   Gn5
 BYTE   W06
 BYTE   Cn6
 BYTE   W06
 BYTE   Gn5
 BYTE   W06
 BYTE   Fn5
 BYTE   W06
 BYTE   Cn5
 BYTE   W06
//  #10 //031   ----------------------------------------
 BYTE   Cn6
 BYTE   W06
 BYTE   Gn5
 BYTE   W06
 BYTE   Fn5
 BYTE   W06
 BYTE   Cn5
 BYTE   W06
 BYTE   Cn6
 BYTE   W06
 BYTE   Gn5
 BYTE   W06
 BYTE   Cn6
 BYTE   W06
 BYTE   Gn5
 BYTE   W06
 BYTE   Cn6
 BYTE   W06
 BYTE   Cn5
 BYTE   W06
 BYTE   Fn5
 BYTE   W06
 BYTE   Gn5
 BYTE   W06
 BYTE   Cn6
 BYTE   W06
 BYTE   Gn5
 BYTE   W06
 BYTE   Fn5
 BYTE   W06
 BYTE   Cn5
 BYTE   W06
//  #10 //032   ----------------------------------------
Label_010273A0:
 BYTE   N03  Cn6  v058
 BYTE   W06
 BYTE   Gn5
 BYTE   W06
 BYTE   Fn5
 BYTE   W06
 BYTE   Cn5
 BYTE   W06
 BYTE   Fn5
 BYTE   W06
 BYTE   Gn5
 BYTE   W06
 BYTE   Cn6
 BYTE   W06
 BYTE   Gn5
 BYTE   W06
 BYTE   Fn5
 BYTE   W06
 BYTE   Cn5
 BYTE   W06
 BYTE   Fn5
 BYTE   W06
 BYTE   Gn5
 BYTE   W06
 BYTE   Cn6
 BYTE   W06
 BYTE   Gn5
 BYTE   W06
 BYTE   Fn5
 BYTE   W06
 BYTE   Cn5
 BYTE   W06
 BYTE   PEND 
//  #10 //033   ----------------------------------------
 BYTE   PATT
  POIN2 Label_010273A0
//  #10 //034   ----------------------------------------
 BYTE   PATT
  POIN2 Label_010273A0
//  #10 //035   ----------------------------------------
 BYTE   PATT
  POIN2 Label_010273A0
//  #10 //036   ----------------------------------------
 BYTE   PATT
  POIN2 Label_010273A0
//  #10 //037   ----------------------------------------
 BYTE   W96
//  #10 //038   ----------------------------------------
 BYTE   W96
//  #10 //039   ----------------------------------------
 BYTE   W96
//  #10 //040   ----------------------------------------
 BYTE   W96
//  #10 //041   ----------------------------------------
 BYTE   W96
//  #10 //042   ----------------------------------------
 BYTE   W96
//  #10 //043   ----------------------------------------
 BYTE   W96
//  #10 //044   ----------------------------------------
 BYTE   W96
//  #10 //045   ----------------------------------------
 BYTE   W96
//  #10 //046   ----------------------------------------
 BYTE   W96
//  #10 //047   ----------------------------------------
 BYTE   W96
//  #10 //048   ----------------------------------------
 BYTE   W96
//  #10 //049   ----------------------------------------
 BYTE   W96
//  #10 //050   ----------------------------------------
 BYTE   W96
//  #10 //051   ----------------------------------------
 BYTE   W96
//  #10 //052   ----------------------------------------
 BYTE   N04  An6  v042
 BYTE   W02
 BYTE   An7
 BYTE   W02
 BYTE   Cs7
 BYTE   W04
 BYTE   Gs6
 BYTE   W02
 BYTE   Gs7
 BYTE   W02
 BYTE   Cn7
 BYTE   W04
 BYTE   Gn6
 BYTE   W02
 BYTE   Gn7
 BYTE   W02
 BYTE   Bn6
 BYTE   W04
 BYTE   Fs6
 BYTE   W02
 BYTE   Fs7
 BYTE   W02
 BYTE   As6
 BYTE   W04
 BYTE   Fn6
 BYTE   W02
 BYTE   Fn7
 BYTE   W02
 BYTE   An6
 BYTE   W04
 BYTE   En6
 BYTE   W02
 BYTE   En7
 BYTE   W02
 BYTE   Gs6
 BYTE   W04
 BYTE   Ds6
 BYTE   W02
 BYTE   Ds7
 BYTE   W02
 BYTE   Gn6
 BYTE   W04
 BYTE   Dn6
 BYTE   W02
 BYTE   Dn7
 BYTE   W02
 BYTE   Fs6
 BYTE   W04
 BYTE   Cs6
 BYTE   W02
 BYTE   Cs7
 BYTE   W02
 BYTE   Fn6
 BYTE   W04
 BYTE   Cn6
 BYTE   W02
 BYTE   Cn7
 BYTE   W02
 BYTE   En6
 BYTE   W04
 BYTE   Bn5
 BYTE   W02
 BYTE   Bn6
 BYTE   W02
 BYTE   Ds6
 BYTE   W04
 BYTE   As5
 BYTE   W02
 BYTE   As6
 BYTE   W02
 BYTE   Dn6
 BYTE   W04
//  #10 //053   ----------------------------------------
 BYTE   W96
//  #10 //054   ----------------------------------------
 BYTE   W96
//  #10 //055   ----------------------------------------
 BYTE   W96
//  #10 //056   ----------------------------------------
 BYTE   W96
//  #10 //057   ----------------------------------------
 BYTE   W96
//  #10 //058   ----------------------------------------
 BYTE   W96
//  #10 //059   ----------------------------------------
 BYTE   W96
//  #10 //060   ----------------------------------------
 BYTE   W96
//  #10 //061   ----------------------------------------
 BYTE   W96
//  #10 //062   ----------------------------------------
 BYTE   W96
//  #10 //063   ----------------------------------------
 BYTE   W96
//  #10 //064   ----------------------------------------
 BYTE   W96
//  #10 //065   ----------------------------------------
 BYTE   W96
//  #10 //066   ----------------------------------------
 BYTE   W96
//  #10 //067   ----------------------------------------
 BYTE   GoTo
  POIN2 Label_010272D4
 BYTE   FINE

//**************** Track 11 (Midi-Chn.10) ****************//

PokemonB2W2PWTFinalTak_011:
//  #11 //000   ----------------------------------------
 BYTE   KEYSH   PokemonB2W2PWTFinalTak_key+0
 BYTE   VOICE   61
 BYTE   VOL   53*PokemonB2W2PWTFinalTak_mvl/mxv
 BYTE   PAN   c_v-45
 BYTE   BENDR  12
 BYTE   W96
//  #11 //001   ----------------------------------------
 BYTE   W96
//  #11 //002   ----------------------------------------
 BYTE   W96
//  #11 //003   ----------------------------------------
 BYTE   W96
//  #11 //004   ----------------------------------------
 BYTE   W96
//  #11 //005   ----------------------------------------
 BYTE   W96
//  #11 //006   ----------------------------------------
 BYTE   W96
//  #11 //007   ----------------------------------------
 BYTE   W96
//  #11 //008   ----------------------------------------
 BYTE   W96
//  #11 //009   ----------------------------------------
 BYTE   W72
 BYTE   N24  Dn3  v085
 BYTE   W24
//  #11 //010   ----------------------------------------
Label_0102745C:
 BYTE   N21  Ds3  v085
 BYTE   W36
 BYTE   Ds3
 BYTE   W36
 BYTE   Ds3
 BYTE   W24
//  #11 //011   ----------------------------------------
Label_01027464:
 BYTE   N21  Fn3  v085
 BYTE   W36
 BYTE   Fn3
 BYTE   W36
 BYTE   Fn3
 BYTE   W24
 BYTE   PEND 
//  #11 //012   ----------------------------------------
Label_0102746D:
 BYTE   N21  Ds3  v085
 BYTE   W36
 BYTE   Ds3
 BYTE   W36
 BYTE   Ds3
 BYTE   W24
 BYTE   PEND 
//  #11 //013   ----------------------------------------
 BYTE   N12  Fn3
 BYTE   W18
 BYTE   Fn3
 BYTE   W18
 BYTE   Fn3
 BYTE   W36
 BYTE   N21
 BYTE   W24
//  #11 //014   ----------------------------------------
 BYTE   PATT
  POIN2 Label_0102746D
//  #11 //015   ----------------------------------------
 BYTE   PATT
  POIN2 Label_01027464
//  #11 //016   ----------------------------------------
Label_01027489:
 BYTE   N21  Gn3  v085
 BYTE   W36
 BYTE   Gn3
 BYTE   W36
 BYTE   Gn3
 BYTE   W24
 BYTE   PEND 
//  #11 //017   ----------------------------------------
 BYTE   PATT
  POIN2 Label_01027489
//  #11 //018   ----------------------------------------
 BYTE   W96
//  #11 //019   ----------------------------------------
 BYTE   W96
//  #11 //020   ----------------------------------------
 BYTE   W96
//  #11 //021   ----------------------------------------
 BYTE   W96
//  #11 //022   ----------------------------------------
 BYTE   W96
//  #11 //023   ----------------------------------------
 BYTE   W96
//  #11 //024   ----------------------------------------
 BYTE   W96
//  #11 //025   ----------------------------------------
 BYTE   W96
//  #11 //026   ----------------------------------------
 BYTE   W96
//  #11 //027   ----------------------------------------
 BYTE   W96
//  #11 //028   ----------------------------------------
 BYTE   W96
//  #11 //029   ----------------------------------------
 BYTE   W96
//  #11 //030   ----------------------------------------
 BYTE   W96
//  #11 //031   ----------------------------------------
 BYTE   W96
//  #11 //032   ----------------------------------------
 BYTE   W96
//  #11 //033   ----------------------------------------
 BYTE   W96
//  #11 //034   ----------------------------------------
 BYTE   W96
//  #11 //035   ----------------------------------------
 BYTE   W96
//  #11 //036   ----------------------------------------
 BYTE   W96
//  #11 //037   ----------------------------------------
 BYTE   W96
//  #11 //038   ----------------------------------------
 BYTE   W96
//  #11 //039   ----------------------------------------
 BYTE   W96
//  #11 //040   ----------------------------------------
 BYTE   W96
//  #11 //041   ----------------------------------------
 BYTE   W96
//  #11 //042   ----------------------------------------
 BYTE   W96
//  #11 //043   ----------------------------------------
 BYTE   W96
//  #11 //044   ----------------------------------------
 BYTE   W96
//  #11 //045   ----------------------------------------
 BYTE   W96
//  #11 //046   ----------------------------------------
 BYTE   N18  Gn3  v085
 BYTE   N18  Gn2
 BYTE   W36
 BYTE   Gn3
 BYTE   N18  Gn2
 BYTE   W36
 BYTE   Gn3
 BYTE   N18  Gn2
 BYTE   W24
//  #11 //047   ----------------------------------------
 BYTE   Gs3
 BYTE   N18  Gs2
 BYTE   W36
 BYTE   Gs3
 BYTE   N18  Gs2
 BYTE   W24
 BYTE   Gs3
 BYTE   N18  Gs2
 BYTE   W24
 BYTE   N12
 BYTE   N12  Gs3
 BYTE   W12
//  #11 //048   ----------------------------------------
 BYTE   N18  An2
 BYTE   N18  An3
 BYTE   W36
 BYTE   An2
 BYTE   N18  An3
 BYTE   W36
 BYTE   An2
 BYTE   N18  An3
 BYTE   W24
//  #11 //049   ----------------------------------------
 BYTE   N24  As2
 BYTE   N24  As3
 BYTE   W36
 BYTE   As2
 BYTE   N24  Cn4
 BYTE   W36
 BYTE   As2
 BYTE   N24  Dn4
 BYTE   W24
//  #11 //050   ----------------------------------------
 BYTE   W96
//  #11 //051   ----------------------------------------
 BYTE   W96
//  #11 //052   ----------------------------------------
 BYTE   W96
//  #11 //053   ----------------------------------------
 BYTE   W96
//  #11 //054   ----------------------------------------
 BYTE   W96
//  #11 //055   ----------------------------------------
 BYTE   W96
//  #11 //056   ----------------------------------------
 BYTE   W96
//  #11 //057   ----------------------------------------
 BYTE   W96
//  #11 //058   ----------------------------------------
 BYTE   W96
//  #11 //059   ----------------------------------------
 BYTE   W96
//  #11 //060   ----------------------------------------
 BYTE   W96
//  #11 //061   ----------------------------------------
 BYTE   Cs4  v065
 BYTE   W24
 BYTE   An3
 BYTE   W24
 BYTE   Gn4
 BYTE   W24
 BYTE   En4
 BYTE   W24
//  #11 //062   ----------------------------------------
 BYTE   W96
//  #11 //063   ----------------------------------------
 BYTE   W96
//  #11 //064   ----------------------------------------
 BYTE   W96
//  #11 //065   ----------------------------------------
 BYTE   W96
//  #11 //066   ----------------------------------------
 BYTE   W96
//  #11 //067   ----------------------------------------
 BYTE   GoTo
  POIN2 Label_0102745C
 BYTE   FINE

//******************************************************//
	ALIGN 4

PokemonB2W2PWTFinalTak:
	BYTE	11	// NumTrks
	BYTE	0	// NumBlks
	BYTE	PokemonB2W2PWTFinalTak_pri	// Priority
	BYTE	PokemonB2W2PWTFinalTak_rev	// Reverb.
    
	POIN2	PokemonB2W2PWTFinalTak_grp
    
	POIN2	PokemonB2W2PWTFinalTak_001
	POIN2	PokemonB2W2PWTFinalTak_002
	POIN2	PokemonB2W2PWTFinalTak_003
	POIN2	PokemonB2W2PWTFinalTak_004
	POIN2	PokemonB2W2PWTFinalTak_005
	POIN2	PokemonB2W2PWTFinalTak_006
	POIN2	PokemonB2W2PWTFinalTak_007
	POIN2	PokemonB2W2PWTFinalTak_008
	POIN2	PokemonB2W2PWTFinalTak_009
	POIN2	PokemonB2W2PWTFinalTak_010
	POIN2	PokemonB2W2PWTFinalTak_011

	
