//Event file generated from Sappy .s format.
	#include "MPlayDef.event"

	#define	AceAttorney2WantingtoFindtheTruthSurfingKyogre_grp  voicegroup000
	#define	AceAttorney2WantingtoFindtheTruthSurfingKyogre_pri  0
	#define	AceAttorney2WantingtoFindtheTruthSurfingKyogre_rev  0
	#define	AceAttorney2WantingtoFindtheTruthSurfingKyogre_mvl  127
	#define	AceAttorney2WantingtoFindtheTruthSurfingKyogre_key  0
	#define	AceAttorney2WantingtoFindtheTruthSurfingKyogre_tbs  1
	#define	AceAttorney2WantingtoFindtheTruthSurfingKyogre_exg  0
	#define	AceAttorney2WantingtoFindtheTruthSurfingKyogre_cmp  1

	// .rodata
	//	AceAttorney2WantingtoFindtheTruthSurfingKyogre
	ALIGN 4


//**************** Track 1 (Midi-Chn.0) ****************//

AceAttorney2WantingtoFindtheTruthSurfingKyogre_001:
//  #01 //000   ----------------------------------------
 BYTE   KEYSH   AceAttorney2WantingtoFindtheTruthSurfingKyogre_key+0
 BYTE   TEMPO   168*AceAttorney2WantingtoFindtheTruthSurfingKyogre_tbs/2
 BYTE   VOICE   34
 BYTE   PAN   c_v+0
 BYTE   VOL   50*AceAttorney2WantingtoFindtheTruthSurfingKyogre_mvl/mxv
 BYTE   N11  Fn2  v120
 BYTE   W12
 BYTE   N11
 BYTE   W12
 BYTE   N11
 BYTE   W12
 BYTE   N11
 BYTE   W12
 BYTE   N11
 BYTE   W12
 BYTE   N11
 BYTE   W12
 BYTE   N11
 BYTE   W12
 BYTE   N11
 BYTE   W12
//  #01 //001   ----------------------------------------
Label_01029154:
 BYTE   N11  Fn2  v120
 BYTE   W12
 BYTE   N11
 BYTE   W12
 BYTE   N11
 BYTE   W12
 BYTE   N11
 BYTE   W12
 BYTE   N11
 BYTE   W12
 BYTE   N11
 BYTE   W12
 BYTE   N11
 BYTE   W12
 BYTE   N11
 BYTE   W12
 BYTE   PEND 
//  #01 //002   ----------------------------------------
Label_01029167:
//  #01 //003   ----------------------------------------
 BYTE   PATT
  POIN2 Label_01029154
//  #01 //004   ----------------------------------------
 BYTE   PATT
  POIN2 Label_01029154
//  #01 //005   ----------------------------------------
 BYTE   PATT
  POIN2 Label_01029154
//  #01 //006   ----------------------------------------
Label_01029176:
 BYTE   N11  Fn2  v120
 BYTE   W12
 BYTE   N11
 BYTE   W12
 BYTE   N11
 BYTE   W12
 BYTE   N11
 BYTE   W12
 BYTE   N11
 BYTE   W12
 BYTE   N11
 BYTE   W12
 BYTE   N11
 BYTE   W12
 BYTE   N23
 BYTE   W12
 BYTE   PEND 
//  #01 //007   ----------------------------------------
Label_01029189:
 BYTE   W12
 BYTE   N11  Fn2  v120
 BYTE   W12
 BYTE   N11
 BYTE   W12
 BYTE   N11
 BYTE   W12
 BYTE   N11
 BYTE   W12
 BYTE   N11
 BYTE   W12
 BYTE   N11
 BYTE   W12
 BYTE   Cn3
 BYTE   W12
 BYTE   PEND 
//  #01 //008   ----------------------------------------
Label_0102919B:
 BYTE   W36
 BYTE   N11  Cn3  v120
 BYTE   W24
 BYTE   N11
 BYTE   W36
 BYTE   PEND 
//  #01 //009   ----------------------------------------
Label_010291A3:
 BYTE   N11  Fn2  v120
 BYTE   W12
 BYTE   N11
 BYTE   W12
 BYTE   N11
 BYTE   W12
 BYTE   N23
 BYTE   W24
 BYTE   N11
 BYTE   W12
 BYTE   N11
 BYTE   W12
 BYTE   N23
 BYTE   W12
 BYTE   PEND 
//  #01 //010   ----------------------------------------
Label_010291B4:
 BYTE   W12
 BYTE   N11  Fn2  v120
 BYTE   W12
 BYTE   N11
 BYTE   W12
 BYTE   N23  Ds3
 BYTE   W24
 BYTE   N11
 BYTE   W12
 BYTE   N11
 BYTE   W12
 BYTE   N11
 BYTE   W12
 BYTE   PEND 
//  #01 //011   ----------------------------------------
Label_010291C5:
 BYTE   N11  Cs3  v120
 BYTE   W12
 BYTE   N11
 BYTE   W12
 BYTE   N11
 BYTE   W12
 BYTE   N23
 BYTE   W24
 BYTE   N11
 BYTE   W12
 BYTE   N11
 BYTE   W12
 BYTE   N11
 BYTE   W12
 BYTE   PEND 
//  #01 //012   ----------------------------------------
 BYTE   PATT
  POIN2 Label_010291C5
//  #01 //013   ----------------------------------------
Label_010291DB:
 BYTE   N11  Cn3  v120
 BYTE   W12
 BYTE   N11
 BYTE   W12
 BYTE   N11
 BYTE   W12
 BYTE   N23
 BYTE   W24
 BYTE   N11
 BYTE   W12
 BYTE   N11
 BYTE   W12
 BYTE   N11
 BYTE   W12
 BYTE   PEND 
//  #01 //014   ----------------------------------------
Label_010291EC:
 BYTE   N11  Fn3  v120
 BYTE   W12
 BYTE   N11
 BYTE   W12
 BYTE   N11
 BYTE   W12
 BYTE   N23  Ds3
 BYTE   W24
 BYTE   N11
 BYTE   W12
 BYTE   N11
 BYTE   W12
 BYTE   N11
 BYTE   W12
 BYTE   PEND 
//  #01 //015   ----------------------------------------
 BYTE   PATT
  POIN2 Label_010291C5
//  #01 //016   ----------------------------------------
Label_01029203:
 BYTE   N16  Cn3  v120
 BYTE   W36
 BYTE   N16
 BYTE   W24
 BYTE   N05  As3
 BYTE   W06
 BYTE   Cn4
 BYTE   W06
 BYTE   Fn3
 BYTE   W06
 BYTE   Gn3
 BYTE   W06
 BYTE   N11  Cn3
 BYTE   W12
 BYTE   PEND 
//  #01 //017   ----------------------------------------
Label_01029216:
 BYTE   N11  Fn2  v120
 BYTE   W12
 BYTE   N11
 BYTE   W12
 BYTE   N11
 BYTE   W12
 BYTE   N23
 BYTE   W24
 BYTE   N11
 BYTE   W12
 BYTE   N11
 BYTE   W12
 BYTE   N05  As2
 BYTE   W06
 BYTE   Cn3
 BYTE   W06
 BYTE   PEND 
//  #01 //018   ----------------------------------------
 BYTE   PATT
  POIN2 Label_010291EC
//  #01 //019   ----------------------------------------
 BYTE   PATT
  POIN2 Label_010291C5
//  #01 //020   ----------------------------------------
 BYTE   PATT
  POIN2 Label_010291C5
//  #01 //021   ----------------------------------------
Label_01029239:
 BYTE   N11  Cn3  v120
 BYTE   W12
 BYTE   N11
 BYTE   W12
 BYTE   N11
 BYTE   W12
 BYTE   N23
 BYTE   W24
 BYTE   N11
 BYTE   W12
 BYTE   N23
 BYTE   W24
 BYTE   PEND 
//  #01 //022   ----------------------------------------
Label_01029248:
 BYTE   N11  Fn3  v120
 BYTE   W12
 BYTE   Cn3
 BYTE   W12
 BYTE   Fn3
 BYTE   W12
 BYTE   N22  Ds3
 BYTE   W24
 BYTE   N11
 BYTE   W12
 BYTE   N23
 BYTE   W24
 BYTE   PEND 
//  #01 //023   ----------------------------------------
Label_01029258:
 BYTE   N11  Cs3  v120
 BYTE   W12
 BYTE   N11
 BYTE   W12
 BYTE   N11
 BYTE   W12
 BYTE   N11
 BYTE   W12
 BYTE   Ds3
 BYTE   W12
 BYTE   N11
 BYTE   W12
 BYTE   N11
 BYTE   W12
 BYTE   Fn3
 BYTE   W12
 BYTE   PEND 
//  #01 //024   ----------------------------------------
Label_0102926B:
 BYTE   W12
 BYTE   N11  Fn2  v120
 BYTE   W12
 BYTE   Gn2
 BYTE   W12
 BYTE   Gs2
 BYTE   W24
 BYTE   N20  Fn2
 BYTE   W24
 BYTE   N10
 BYTE   W12
 BYTE   PEND 
//  #01 //025   ----------------------------------------
Label_0102927A:
 BYTE   N28  Cs3  v120
 BYTE   W36
 BYTE   N11
 BYTE   W12
 BYTE   N23
 BYTE   W24
 BYTE   N11  Gs2
 BYTE   W12
 BYTE   Cs3
 BYTE   W12
 BYTE   PEND 
//  #01 //026   ----------------------------------------
Label_01029288:
 BYTE   N11  Cs3  v120
 BYTE   W12
 BYTE   Gs3
 BYTE   W12
 BYTE   Gn3
 BYTE   W12
 BYTE   N23  Fn3
 BYTE   W24
 BYTE   N11  Cs3
 BYTE   W12
 BYTE   Gs2
 BYTE   W12
 BYTE   Cs3
 BYTE   W12
 BYTE   PEND 
//  #01 //027   ----------------------------------------
Label_0102929B:
 BYTE   N32  Cn3  v120
 BYTE   W36
 BYTE   N11
 BYTE   W12
 BYTE   N23
 BYTE   W24
 BYTE   N11  Gn2
 BYTE   W12
 BYTE   Cn3
 BYTE   W12
 BYTE   PEND 
//  #01 //028   ----------------------------------------
Label_010292A9:
 BYTE   N11  Cn3  v120
 BYTE   W12
 BYTE   Gn2
 BYTE   W12
 BYTE   As2
 BYTE   W12
 BYTE   N23  Cn3
 BYTE   W24
 BYTE   N11  Ds3
 BYTE   W12
 BYTE   Gn3
 BYTE   W12
 BYTE   N12  Gs3
 BYTE   W12
 BYTE   PEND 
//  #01 //029   ----------------------------------------
Label_010292BD:
 BYTE   N32  As3  v120
 BYTE   W36
 BYTE   N23  As2
 BYTE   W24
 BYTE   N11
 BYTE   W12
 BYTE   Fn2
 BYTE   W12
 BYTE   As2
 BYTE   W12
 BYTE   PEND 
//  #01 //030   ----------------------------------------
Label_010292CB:
 BYTE   N11  Fn2  v120
 BYTE   W12
 BYTE   As2
 BYTE   W12
 BYTE   Cn3
 BYTE   W12
 BYTE   N23  Cs3
 BYTE   W24
 BYTE   N11  Cn3
 BYTE   W12
 BYTE   N23  As2
 BYTE   W24
 BYTE   PEND 
//  #01 //031   ----------------------------------------
Label_010292DD:
 BYTE   N32  Gs2  v120
 BYTE   W36
 BYTE   Ds3
 BYTE   W36
 BYTE   N11  Gs2
 BYTE   W12
 BYTE   N23  Cn4
 BYTE   W12
 BYTE   PEND 
//  #01 //032   ----------------------------------------
Label_010292EA:
 BYTE   W12
 BYTE   N11  As3  v120
 BYTE   W12
 BYTE   Gs3
 BYTE   W12
 BYTE   N23  Ds3
 BYTE   W24
 BYTE   N18  Gs2
 BYTE   W24
 BYTE   N12
 BYTE   W12
 BYTE   PEND 
//  #01 //033   ----------------------------------------
Label_010292FA:
 BYTE   N30  Fs2  v120
 BYTE   W36
 BYTE   N07
 BYTE   W24
 BYTE   N05
 BYTE   W12
 BYTE   N32
 BYTE   W24
 BYTE   PEND 
//  #01 //034   ----------------------------------------
Label_01029305:
 BYTE   W12
 BYTE   N08  Fs2  v120
 BYTE   W24
 BYTE   N04
 BYTE   W12
 BYTE   N18
 BYTE   W24
 BYTE   N18
 BYTE   W24
 BYTE   PEND 
//  #01 //035   ----------------------------------------
Label_01029311:
 BYTE   N23  Fn2  v120
 BYTE   W24
 BYTE   N11
 BYTE   W12
 BYTE   N23
 BYTE   W24
 BYTE   N11  Gn2
 BYTE   W12
 BYTE   An2
 BYTE   W12
 BYTE   N23  Cn3
 BYTE   W12
 BYTE   PEND 
//  #01 //036   ----------------------------------------
Label_01029322:
 BYTE   W12
 BYTE   N11  Cn4  v120
 BYTE   W12
 BYTE   As3
 BYTE   W12
 BYTE   Gs3
 BYTE   W12
 BYTE   Fn3
 BYTE   W12
 BYTE   Ds3
 BYTE   W12
 BYTE   Cn3
 BYTE   W12
 BYTE   Gs2
 BYTE   W12
 BYTE   PEND 
//  #01 //037   ----------------------------------------
Label_01029334:
 BYTE   N11  Dn3  v120
 BYTE   W12
 BYTE   N11
 BYTE   W12
 BYTE   N11
 BYTE   W12
 BYTE   N23
 BYTE   W24
 BYTE   N11
 BYTE   W12
 BYTE   N11
 BYTE   W12
 BYTE   N11
 BYTE   W12
 BYTE   PEND 
//  #01 //038   ----------------------------------------
 BYTE   PATT
  POIN2 Label_01029334
//  #01 //039   ----------------------------------------
 BYTE   PATT
  POIN2 Label_010291DB
//  #01 //040   ----------------------------------------
 BYTE   PATT
  POIN2 Label_010291DB
//  #01 //041   ----------------------------------------
Label_01029354:
 BYTE   W12
 BYTE   N11  Ds3  v120
 BYTE   W12
 BYTE   Cs3
 BYTE   W12
 BYTE   Cn3
 BYTE   W12
 BYTE   As2
 BYTE   W12
 BYTE   Gs2
 BYTE   W12
 BYTE   Gn2
 BYTE   W12
 BYTE   Cn3
 BYTE   W12
 BYTE   PEND 
//  #01 //042   ----------------------------------------
Label_01029366:
 BYTE   W12
 BYTE   N11  Cn3  v120
 BYTE   W12
 BYTE   As2
 BYTE   W12
 BYTE   Cn3
 BYTE   W12
 BYTE   Gs2
 BYTE   W12
 BYTE   Cn3
 BYTE   W12
 BYTE   Gn2
 BYTE   W12
 BYTE   Cn3
 BYTE   W12
 BYTE   PEND 
//  #01 //043   ----------------------------------------
Label_01029378:
 BYTE   N11  Fn2  v120
 BYTE   W12
 BYTE   Gn2
 BYTE   W12
 BYTE   Gs2
 BYTE   W12
 BYTE   As2
 BYTE   W12
 BYTE   Gn2
 BYTE   W12
 BYTE   Gs2
 BYTE   W12
 BYTE   As2
 BYTE   W12
 BYTE   Cn3
 BYTE   W12
 BYTE   PEND 
//  #01 //044   ----------------------------------------
Label_0102938B:
 BYTE   N11  Gs2  v120
 BYTE   W12
 BYTE   As2
 BYTE   W12
 BYTE   Cn3
 BYTE   W12
 BYTE   N22  As2
 BYTE   W24
 BYTE   N09
 BYTE   W12
 BYTE   N22
 BYTE   W24
 BYTE   PEND 
//  #01 //045   ----------------------------------------
 BYTE   PATT
  POIN2 Label_01029378
//  #01 //046   ----------------------------------------
Label_010293A0:
 BYTE   N11  Gs2  v120
 BYTE   W12
 BYTE   As2
 BYTE   W12
 BYTE   Cn3
 BYTE   W12
 BYTE   N20  As2
 BYTE   W24
 BYTE   N10
 BYTE   W12
 BYTE   N20
 BYTE   W24
 BYTE   PEND 
//  #01 //047   ----------------------------------------
 BYTE   PATT
  POIN2 Label_01029378
//  #01 //048   ----------------------------------------
Label_010293B5:
 BYTE   N11  Gs2  v120
 BYTE   W12
 BYTE   As2
 BYTE   W12
 BYTE   Cn3
 BYTE   W12
 BYTE   N21  As2
 BYTE   W24
 BYTE   N10
 BYTE   W12
 BYTE   N09  Cn3
 BYTE   W12
 BYTE   N09
 BYTE   W12
 BYTE   PEND 
//  #01 //049   ----------------------------------------
 BYTE   PATT
  POIN2 Label_01029378
//  #01 //050   ----------------------------------------
Label_010293CD:
 BYTE   N11  Gs2  v120
 BYTE   W12
 BYTE   As2
 BYTE   W12
 BYTE   Cn3
 BYTE   W12
 BYTE   N24  As2
 BYTE   W24
 BYTE   N11  Cn3
 BYTE   W12
 BYTE   N23  Ds3
 BYTE   W24
 BYTE   PEND 
//  #01 //051   ----------------------------------------
 BYTE   PATT
  POIN2 Label_01029154
//  #01 //052   ----------------------------------------
 BYTE   PATT
  POIN2 Label_01029154
//  #01 //053   ----------------------------------------
 BYTE   GoTo
  POIN2 Label_01029167
//  #01 //054   ----------------------------------------
 BYTE   PATT
  POIN2 Label_01029154
//  #01 //055   ----------------------------------------
 BYTE   PATT
  POIN2 Label_01029154
//  #01 //056   ----------------------------------------
 BYTE   PATT
  POIN2 Label_01029154
//  #01 //057   ----------------------------------------
 BYTE   PATT
  POIN2 Label_01029176
//  #01 //058   ----------------------------------------
 BYTE   PATT
  POIN2 Label_01029189
//  #01 //059   ----------------------------------------
 BYTE   PATT
  POIN2 Label_0102919B
//  #01 //060   ----------------------------------------
 BYTE   PATT
  POIN2 Label_010291A3
//  #01 //061   ----------------------------------------
 BYTE   PATT
  POIN2 Label_010291B4
//  #01 //062   ----------------------------------------
 BYTE   PATT
  POIN2 Label_010291C5
//  #01 //063   ----------------------------------------
 BYTE   PATT
  POIN2 Label_010291C5
//  #01 //064   ----------------------------------------
 BYTE   PATT
  POIN2 Label_010291DB
//  #01 //065   ----------------------------------------
 BYTE   PATT
  POIN2 Label_010291EC
//  #01 //066   ----------------------------------------
 BYTE   PATT
  POIN2 Label_010291C5
//  #01 //067   ----------------------------------------
 BYTE   PATT
  POIN2 Label_01029203
//  #01 //068   ----------------------------------------
 BYTE   PATT
  POIN2 Label_01029216
//  #01 //069   ----------------------------------------
 BYTE   PATT
  POIN2 Label_010291EC
//  #01 //070   ----------------------------------------
 BYTE   PATT
  POIN2 Label_010291C5
//  #01 //071   ----------------------------------------
 BYTE   PATT
  POIN2 Label_010291C5
//  #01 //072   ----------------------------------------
 BYTE   PATT
  POIN2 Label_01029239
//  #01 //073   ----------------------------------------
 BYTE   PATT
  POIN2 Label_01029248
//  #01 //074   ----------------------------------------
 BYTE   PATT
  POIN2 Label_01029258
//  #01 //075   ----------------------------------------
 BYTE   PATT
  POIN2 Label_0102926B
//  #01 //076   ----------------------------------------
 BYTE   PATT
  POIN2 Label_0102927A
//  #01 //077   ----------------------------------------
 BYTE   PATT
  POIN2 Label_01029288
//  #01 //078   ----------------------------------------
 BYTE   PATT
  POIN2 Label_0102929B
//  #01 //079   ----------------------------------------
 BYTE   PATT
  POIN2 Label_010292A9
//  #01 //080   ----------------------------------------
 BYTE   PATT
  POIN2 Label_010292BD
//  #01 //081   ----------------------------------------
 BYTE   PATT
  POIN2 Label_010292CB
//  #01 //082   ----------------------------------------
 BYTE   PATT
  POIN2 Label_010292DD
//  #01 //083   ----------------------------------------
 BYTE   PATT
  POIN2 Label_010292EA
//  #01 //084   ----------------------------------------
 BYTE   PATT
  POIN2 Label_010292FA
//  #01 //085   ----------------------------------------
 BYTE   PATT
  POIN2 Label_01029305
//  #01 //086   ----------------------------------------
 BYTE   PATT
  POIN2 Label_01029311
//  #01 //087   ----------------------------------------
 BYTE   PATT
  POIN2 Label_01029322
//  #01 //088   ----------------------------------------
 BYTE   PATT
  POIN2 Label_01029334
//  #01 //089   ----------------------------------------
 BYTE   PATT
  POIN2 Label_01029334
//  #01 //090   ----------------------------------------
 BYTE   PATT
  POIN2 Label_010291DB
//  #01 //091   ----------------------------------------
 BYTE   PATT
  POIN2 Label_010291DB
//  #01 //092   ----------------------------------------
 BYTE   PATT
  POIN2 Label_01029354
//  #01 //093   ----------------------------------------
 BYTE   PATT
  POIN2 Label_01029366
//  #01 //094   ----------------------------------------
 BYTE   PATT
  POIN2 Label_01029378
//  #01 //095   ----------------------------------------
 BYTE   PATT
  POIN2 Label_0102938B
//  #01 //096   ----------------------------------------
 BYTE   PATT
  POIN2 Label_01029378
//  #01 //097   ----------------------------------------
 BYTE   PATT
  POIN2 Label_010293A0
//  #01 //098   ----------------------------------------
 BYTE   PATT
  POIN2 Label_01029378
//  #01 //099   ----------------------------------------
 BYTE   PATT
  POIN2 Label_010293B5
//  #01 //100   ----------------------------------------
 BYTE   PATT
  POIN2 Label_01029378
//  #01 //101   ----------------------------------------
 BYTE   PATT
  POIN2 Label_010293CD
//  #01 //102   ----------------------------------------
 BYTE   W96
//  #01 //103   ----------------------------------------
 BYTE   W96
//  #01 //104   ----------------------------------------
 BYTE   W96
//  #01 //105   ----------------------------------------
 BYTE   W96
//  #01 //106   ----------------------------------------
 BYTE   W15
 BYTE   FINE

//**************** Track 2 (Midi-Chn.1) ****************//

AceAttorney2WantingtoFindtheTruthSurfingKyogre_002:
//  #02 //000   ----------------------------------------
 BYTE   KEYSH   AceAttorney2WantingtoFindtheTruthSurfingKyogre_key+0
 BYTE   VOICE   29
 BYTE   PAN   c_v+0
 BYTE   VOL   61*AceAttorney2WantingtoFindtheTruthSurfingKyogre_mvl/mxv
 BYTE   W96
//  #02 //001   ----------------------------------------
 BYTE   W96
//  #02 //002   ----------------------------------------
Label_01029BBA:
 BYTE   W96
//  #02 //003   ----------------------------------------
 BYTE   W96
//  #02 //004   ----------------------------------------
 BYTE   W96
//  #02 //005   ----------------------------------------
 BYTE   W96
//  #02 //006   ----------------------------------------
 BYTE   W96
//  #02 //007   ----------------------------------------
 BYTE   W96
//  #02 //008   ----------------------------------------
 BYTE   W96
//  #02 //009   ----------------------------------------
 BYTE   W96
//  #02 //010   ----------------------------------------
 BYTE   W96
//  #02 //011   ----------------------------------------
 BYTE   W96
//  #02 //012   ----------------------------------------
 BYTE   W96
//  #02 //013   ----------------------------------------
 BYTE   W96
//  #02 //014   ----------------------------------------
 BYTE   W96
//  #02 //015   ----------------------------------------
 BYTE   W96
//  #02 //016   ----------------------------------------
 BYTE   W96
//  #02 //017   ----------------------------------------
 BYTE   W96
//  #02 //018   ----------------------------------------
 BYTE   W96
//  #02 //019   ----------------------------------------
 BYTE   W96
//  #02 //020   ----------------------------------------
 BYTE   W96
//  #02 //021   ----------------------------------------
 BYTE   W96
//  #02 //022   ----------------------------------------
 BYTE   W96
//  #02 //023   ----------------------------------------
Label_01029BCF:
 BYTE   W48
 BYTE   N05  Cs3  v104
 BYTE   W06
 BYTE   Ds3  v092
 BYTE   W06
 BYTE   Fn3  v104
 BYTE   W06
 BYTE   Gn3  v092
 BYTE   W06
 BYTE   Gs3  v104
 BYTE   W06
 BYTE   As3  v092
 BYTE   W06
 BYTE   Cn4  v104
 BYTE   W06
 BYTE   Cs4  v092
 BYTE   W06
 BYTE   PEND 
//  #02 //024   ----------------------------------------
Label_01029BEA:
 BYTE   TIE  Ds4  v104
 BYTE   W06
 BYTE   BEND   c_v+0
 BYTE   W42
 BYTE   W01
 BYTE   LFOS 7
 BYTE   W02
 BYTE   LFOS 16
 BYTE   W02
 BYTE   LFOS 28
 BYTE   W01
 BYTE   LFOS 36
 BYTE   W01
 BYTE   LFOS 44
 BYTE   W02
 BYTE   LFOS 55
 BYTE   W04
 BYTE   LFOS 67
 BYTE   W03
 BYTE   LFOS 82
 BYTE   W01
 BYTE   LFOS 90
 BYTE   W02
 BYTE   LFOS 99
 BYTE   W03
 BYTE   LFOS 106
 BYTE   W05
 BYTE   LFOS 115
 BYTE   W04
 BYTE   LFOS 121
 BYTE   W02
 BYTE   LFOS 127
 BYTE   W12
 BYTE   LFOS 116
 BYTE   W02
 BYTE   LFOS 103
 BYTE   W01
 BYTE   PEND 
//  #02 //025   ----------------------------------------
Label_01029C14:
 BYTE   LFOS 84
 BYTE   W01
 BYTE   LFOS 64
 BYTE   W01
 BYTE   LFOS 42
 BYTE   W01
 BYTE   LFOS 16
 BYTE   W01
 BYTE   LFOS 0
 BYTE   W19
 BYTE   PEND 
 BYTE   EOT
 BYTE   Ds4
 BYTE   W01
 BYTE   N23  Ds4  v104
 BYTE   W02
 BYTE   BEND   c_v+0
 BYTE   W22
 BYTE   N23  Fn4
 BYTE   W24
 BYTE   As3
 BYTE   W24
//  #02 //026   ----------------------------------------
Label_01029C2F:
 BYTE   TIE  Cn4  v104
 BYTE   W78
 BYTE   LFOS 6
 BYTE   W17
 BYTE   LFOS 0
 BYTE   W01
 BYTE   PEND 
//  #02 //027   ----------------------------------------
 BYTE   W14
 BYTE   BEND   c_v+0
 BYTE   W03
 BYTE   EOT
 BYTE   W07
 BYTE   N23
 BYTE   W24
 BYTE   Ds4
 BYTE   W24
 BYTE   Gn4
 BYTE   W24
//  #02 //028   ----------------------------------------
Label_01029C45:
 BYTE   N32  Gn4  v104
 BYTE   W36
 BYTE   N11  Gs4
 BYTE   W12
 BYTE   N68  Fn4
 BYTE   W32
 BYTE   W03
 BYTE   LFOS 10
 BYTE   W03
 BYTE   LFOS 22
 BYTE   W02
 BYTE   LFOS 33
 BYTE   W02
 BYTE   LFOS 40
 BYTE   W01
 BYTE   LFOS 50
 BYTE   W02
 BYTE   LFOS 62
 BYTE   W01
 BYTE   LFOS 69
 BYTE   W02
 BYTE   PEND 
//  #02 //029   ----------------------------------------
Label_01029C60:
 BYTE   LFOS 77
 BYTE   W03
 BYTE   LFOS 85
 BYTE   W02
 BYTE   LFOS 94
 BYTE   W03
 BYTE   LFOS 103
 BYTE   W02
 BYTE   LFOS 110
 BYTE   W08
 BYTE   LFOS 100
 BYTE   W01
 BYTE   LFOS 84
 BYTE   W02
 BYTE   LFOS 66
 BYTE   W01
 BYTE   LFOS 42
 BYTE   W01
 BYTE   LFOS 0
 BYTE   W01
 BYTE   N23  Ds4  v104
 BYTE   W24
 BYTE   Cn4
 BYTE   W24
 BYTE   As3
 BYTE   W24
 BYTE   PEND 
//  #02 //030   ----------------------------------------
Label_01029C7E:
 BYTE   N32  As3  v104
 BYTE   W07
 BYTE   BEND   c_v+0
 BYTE   W28
 BYTE   W01
 BYTE   TIE  Cn4
 BYTE   W54
 BYTE   W01
 BYTE   LFOS 2
 BYTE   W03
 BYTE   LFOS 12
 BYTE   W02
 BYTE   PEND 
//  #02 //031   ----------------------------------------
Label_01029C90:
 BYTE   W07
 BYTE   LFOS 19
 BYTE   W04
 BYTE   LFOS 26
 BYTE   W02
 BYTE   LFOS 33
 BYTE   W04
 BYTE   LFOS 41
 BYTE   W03
 BYTE   LFOS 49
 BYTE   W04
 BYTE   LFOS 56
 BYTE   W04
 BYTE   LFOS 64
 BYTE   W14
 BYTE   LFOS 71
 BYTE   W21
 BYTE   LFOS 77
 BYTE   W24
 BYTE   W02
 BYTE   PEND 
 BYTE   EOT
 BYTE   Cn4
 BYTE   LFOS 70
 BYTE   W01
 BYTE   LFOS 59
 BYTE   W01
 BYTE   LFOS 22
 BYTE   W01
 BYTE   LFOS 0
 BYTE   W04
//  #02 //032   ----------------------------------------
 BYTE   W96
//  #02 //033   ----------------------------------------
 BYTE   W96
//  #02 //034   ----------------------------------------
 BYTE   W96
//  #02 //035   ----------------------------------------
 BYTE   W96
//  #02 //036   ----------------------------------------
 BYTE   W96
//  #02 //037   ----------------------------------------
 BYTE   W96
//  #02 //038   ----------------------------------------
 BYTE   W96
//  #02 //039   ----------------------------------------
 BYTE   W96
//  #02 //040   ----------------------------------------
 BYTE   W96
//  #02 //041   ----------------------------------------
 BYTE   W96
//  #02 //042   ----------------------------------------
 BYTE   W96
//  #02 //043   ----------------------------------------
 BYTE   W96
//  #02 //044   ----------------------------------------
 BYTE   W96
//  #02 //045   ----------------------------------------
 BYTE   W96
//  #02 //046   ----------------------------------------
 BYTE   W96
//  #02 //047   ----------------------------------------
 BYTE   W96
//  #02 //048   ----------------------------------------
 BYTE   W96
//  #02 //049   ----------------------------------------
 BYTE   W96
//  #02 //050   ----------------------------------------
 BYTE   W96
//  #02 //051   ----------------------------------------
 BYTE   W96
//  #02 //052   ----------------------------------------
 BYTE   GoTo
  POIN2 Label_01029BBA
//  #02 //053   ----------------------------------------
 BYTE   W96
//  #02 //054   ----------------------------------------
 BYTE   W96
//  #02 //055   ----------------------------------------
 BYTE   W96
//  #02 //056   ----------------------------------------
 BYTE   W96
//  #02 //057   ----------------------------------------
 BYTE   W96
//  #02 //058   ----------------------------------------
 BYTE   W96
//  #02 //059   ----------------------------------------
 BYTE   W96
//  #02 //060   ----------------------------------------
 BYTE   W96
//  #02 //061   ----------------------------------------
 BYTE   W96
//  #02 //062   ----------------------------------------
 BYTE   W96
//  #02 //063   ----------------------------------------
 BYTE   W96
//  #02 //064   ----------------------------------------
 BYTE   W96
//  #02 //065   ----------------------------------------
 BYTE   W96
//  #02 //066   ----------------------------------------
 BYTE   W96
//  #02 //067   ----------------------------------------
 BYTE   W96
//  #02 //068   ----------------------------------------
 BYTE   W96
//  #02 //069   ----------------------------------------
 BYTE   W96
//  #02 //070   ----------------------------------------
 BYTE   W96
//  #02 //071   ----------------------------------------
 BYTE   W96
//  #02 //072   ----------------------------------------
 BYTE   W96
//  #02 //073   ----------------------------------------
 BYTE   W96
//  #02 //074   ----------------------------------------
 BYTE   PATT
  POIN2 Label_01029BCF
//  #02 //075   ----------------------------------------
 BYTE   PATT
  POIN2 Label_01029BEA
//  #02 //076   ----------------------------------------
 BYTE   PATT
  POIN2 Label_01029C14
//  #02 //077   ----------------------------------------
 BYTE   EOT
 BYTE   Ds4
 BYTE   W01
 BYTE   N23  Ds4  v104
 BYTE   W02
 BYTE   BEND   c_v+0
 BYTE   W22
 BYTE   N23  Fn4
 BYTE   W24
 BYTE   As3
 BYTE   W24
//  #02 //078   ----------------------------------------
 BYTE   PATT
  POIN2 Label_01029C2F
//  #02 //079   ----------------------------------------
 BYTE   W14
 BYTE   BEND   c_v+0
 BYTE   W03
 BYTE   EOT
 BYTE   Cn4
 BYTE   W07
 BYTE   N23  Cn4  v104
 BYTE   W24
 BYTE   Ds4
 BYTE   W24
 BYTE   Gn4
 BYTE   W24
//  #02 //080   ----------------------------------------
 BYTE   PATT
  POIN2 Label_01029C45
//  #02 //081   ----------------------------------------
 BYTE   PATT
  POIN2 Label_01029C60
//  #02 //082   ----------------------------------------
 BYTE   PATT
  POIN2 Label_01029C7E
//  #02 //083   ----------------------------------------
 BYTE   PATT
  POIN2 Label_01029C90
//  #02 //084   ----------------------------------------
 BYTE   EOT
 BYTE   Cn4
 BYTE   LFOS 70
 BYTE   W01
 BYTE   LFOS 59
 BYTE   W01
 BYTE   LFOS 22
 BYTE   W01
 BYTE   LFOS 0
 BYTE   W04
 BYTE   W96
//  #02 //085   ----------------------------------------
 BYTE   W96
//  #02 //086   ----------------------------------------
 BYTE   W96
//  #02 //087   ----------------------------------------
 BYTE   W96
//  #02 //088   ----------------------------------------
 BYTE   W96
//  #02 //089   ----------------------------------------
 BYTE   W96
//  #02 //090   ----------------------------------------
 BYTE   W96
//  #02 //091   ----------------------------------------
 BYTE   W96
//  #02 //092   ----------------------------------------
 BYTE   W96
//  #02 //093   ----------------------------------------
 BYTE   W96
//  #02 //094   ----------------------------------------
 BYTE   W96
//  #02 //095   ----------------------------------------
 BYTE   W96
//  #02 //096   ----------------------------------------
 BYTE   W96
//  #02 //097   ----------------------------------------
 BYTE   W96
//  #02 //098   ----------------------------------------
 BYTE   W96
//  #02 //099   ----------------------------------------
 BYTE   W96
//  #02 //100   ----------------------------------------
 BYTE   W96
//  #02 //101   ----------------------------------------
 BYTE   W96
//  #02 //102   ----------------------------------------
 BYTE   W96
//  #02 //103   ----------------------------------------
 BYTE   W96
//  #02 //104   ----------------------------------------
 BYTE   W96
//  #02 //105   ----------------------------------------
 BYTE   W96
//  #02 //106   ----------------------------------------
 BYTE   W15
 BYTE   FINE

//**************** Track 3 (Midi-Chn.2) ****************//

AceAttorney2WantingtoFindtheTruthSurfingKyogre_003:
//  #03 //000   ----------------------------------------
 BYTE   KEYSH   AceAttorney2WantingtoFindtheTruthSurfingKyogre_key+0
 BYTE   VOICE   48
 BYTE   PAN   c_v+0
 BYTE   VOL   37*AceAttorney2WantingtoFindtheTruthSurfingKyogre_mvl/mxv
 BYTE   PAN   c_v+0
 BYTE   VOL   37*AceAttorney2WantingtoFindtheTruthSurfingKyogre_mvl/mxv
 BYTE   PAN   c_v+0
 BYTE   VOL   37*AceAttorney2WantingtoFindtheTruthSurfingKyogre_mvl/mxv
 BYTE   PAN   c_v+0
 BYTE   VOL   37*AceAttorney2WantingtoFindtheTruthSurfingKyogre_mvl/mxv
 BYTE   BEND   c_v+0
 BYTE   N15  Gs3  v116
 BYTE   N15  Cn4
 BYTE   N15  Fn4
 BYTE   W18
 BYTE   N04  Gs3
 BYTE   N04  Cn4
 BYTE   N04  Fn4
 BYTE   W06
 BYTE   N05  Fn4  v040
 BYTE   W06
 BYTE   Fn4  v032
 BYTE   W06
 BYTE   N04  Gn3  v116
 BYTE   N04  As3
 BYTE   N04  Ds4
 BYTE   W06
 BYTE   N05  Ds4  v040
 BYTE   W06
 BYTE   Ds4  v032
 BYTE   W12
 BYTE   N04  Ds3  v116
 BYTE   N04  Gn3
 BYTE   N04  Cn4
 BYTE   W06
 BYTE   N05  Cn4  v040
 BYTE   W06
 BYTE   Cn4  v032
 BYTE   W12
 BYTE   N32  Fn3  v116
 BYTE   N32  Gs3
 BYTE   N32  Cs4
 BYTE   W12
//  #03 //001   ----------------------------------------
Label_01029E4E:
 BYTE   W24
 BYTE   N05  Cs4  v040
 BYTE   W06
 BYTE   Cs4  v032
 BYTE   W06
 BYTE   N11  Gn3  v116
 BYTE   N11  As3
 BYTE   N11  Ds4
 BYTE   W12
 BYTE   N05  Ds4  v040
 BYTE   W06
 BYTE   Ds4  v032
 BYTE   W42
 BYTE   PEND 
//  #03 //002   ----------------------------------------
Label_01029E66:
 BYTE   N15  Gs3  v116
 BYTE   N15  Cn4
 BYTE   N15  Fn4
 BYTE   W18
 BYTE   N04  Gs3
 BYTE   N04  Cn4
 BYTE   N04  Fn4
 BYTE   W06
 BYTE   N05  Fn4  v040
 BYTE   W06
 BYTE   Fn4  v032
 BYTE   W06
 BYTE   N04  Gn3  v116
 BYTE   N04  As3
 BYTE   N04  Ds4
 BYTE   W06
 BYTE   N05  Ds4  v040
 BYTE   W06
 BYTE   Ds4  v032
 BYTE   W12
 BYTE   N04  Cn4  v116
 BYTE   N04  Ds4
 BYTE   N04  Gs4
 BYTE   W06
 BYTE   N05  Gs4  v040
 BYTE   W06
 BYTE   Gs4  v032
 BYTE   W12
 BYTE   N32  As3  v116
 BYTE   N32  Ds4
 BYTE   N32  Gn4
 BYTE   W12
 BYTE   PEND 
//  #03 //003   ----------------------------------------
Label_01029EA3:
 BYTE   W24
 BYTE   N05  Gn4  v040
 BYTE   W06
 BYTE   Gn4  v032
 BYTE   W06
 BYTE   N11  Gn3  v116
 BYTE   N11  As3
 BYTE   N11  Ds4
 BYTE   W12
 BYTE   N05  Ds4  v040
 BYTE   W06
 BYTE   Ds4  v032
 BYTE   W42
 BYTE   PEND 
//  #03 //004   ----------------------------------------
Label_01029EBB:
 BYTE   N15  Gs3  v116
 BYTE   N15  Cn4
 BYTE   N15  Fn4
 BYTE   W18
 BYTE   N04  Gs3
 BYTE   N04  Cn4
 BYTE   N04  Fn4
 BYTE   W06
 BYTE   N05  Fn4  v040
 BYTE   W06
 BYTE   Fn4  v032
 BYTE   W06
 BYTE   N04  Gn3  v116
 BYTE   N04  As3
 BYTE   N04  Ds4
 BYTE   W06
 BYTE   N05  Ds4  v040
 BYTE   W06
 BYTE   Ds4  v032
 BYTE   W12
 BYTE   N04  Ds3  v116
 BYTE   N04  Gs3
 BYTE   N04  Cn4
 BYTE   W06
 BYTE   N05  Cn4  v040
 BYTE   W06
 BYTE   Cn4  v032
 BYTE   W12
 BYTE   N32  Fn3  v116
 BYTE   N32  Gs3
 BYTE   N32  Cs4
 BYTE   W12
 BYTE   PEND 
//  #03 //005   ----------------------------------------
Label_01029EF8:
 BYTE   W24
 BYTE   N05  Cs4  v040
 BYTE   W06
 BYTE   Cs4  v032
 BYTE   W06
 BYTE   N11  Gn3  v116
 BYTE   N11  As3
 BYTE   N11  Ds4
 BYTE   W12
 BYTE   N05  Ds4  v040
 BYTE   W06
 BYTE   Ds4  v032
 BYTE   W30
 BYTE   N92  Fn2  v116
 BYTE   W12
 BYTE   PEND 
//  #03 //006   ----------------------------------------
Label_01029F14:
 BYTE   W24
 BYTE   N56  Cn3  v116
 BYTE   W24
 BYTE   N32  Ds3
 BYTE   W24
 BYTE   N11  As3
 BYTE   W12
 BYTE   N04  Ds3  v120
 BYTE   N04  As3  v116
 BYTE   N04  Gn4
 BYTE   W06
 BYTE   N05  Gn4  v040
 BYTE   W06
 BYTE   PEND 
//  #03 //007   ----------------------------------------
Label_01029F2D:
 BYTE   N05  Gn4  v032
 BYTE   W36
 BYTE   N04  Ds3  v120
 BYTE   N04  As3  v116
 BYTE   N04  Gn4  v120
 BYTE   W06
 BYTE   N05  Gn4  v040
 BYTE   W06
 BYTE   Gn4  v032
 BYTE   W12
 BYTE   N32  Ds3  v120
 BYTE   N32  As3
 BYTE   N32  Gn4  v116
 BYTE   W36
 BYTE   PEND 
//  #03 //008   ----------------------------------------
Label_01029F4C:
 BYTE   N05  Gn4  v040
 BYTE   W06
 BYTE   Gn4  v032
 BYTE   W90
 BYTE   PEND 
//  #03 //009   ----------------------------------------
 BYTE   W96
//  #03 //010   ----------------------------------------
 BYTE   W96
//  #03 //011   ----------------------------------------
 BYTE   W96
//  #03 //012   ----------------------------------------
 BYTE   W96
//  #03 //013   ----------------------------------------
 BYTE   W96
//  #03 //014   ----------------------------------------
 BYTE   W96
//  #03 //015   ----------------------------------------
Label_01029F5A:
 BYTE   N05  As3  v112
 BYTE   N05  Ds4
 BYTE   N05  Gn4  v120
 BYTE   W06
 BYTE   Gn4  v040
 BYTE   W06
 BYTE   Gn4  v032
 BYTE   W24
 BYTE   As3  v120
 BYTE   N05  Ds4  v112
 BYTE   N05  Gn4  v120
 BYTE   W06
 BYTE   Gn4  v040
 BYTE   W06
 BYTE   Gn4  v032
 BYTE   W12
 BYTE   N32  As3  v120
 BYTE   N32  Ds4
 BYTE   N32  Gn4
 BYTE   W36
 BYTE   PEND 
//  #03 //016   ----------------------------------------
Label_01029F81:
 BYTE   N17  Cn4  v112
 BYTE   N17  Fn4
 BYTE   N17  Gs4  v120
 BYTE   W18
 BYTE   N05  Gs4  v040
 BYTE   W06
 BYTE   Gs4  v032
 BYTE   W72
 BYTE   PEND 
//  #03 //017   ----------------------------------------
 BYTE   W96
//  #03 //018   ----------------------------------------
 BYTE   W96
//  #03 //019   ----------------------------------------
Label_01029F94:
 BYTE   W24
 BYTE   N23  Cn3  v112
 BYTE   W24
 BYTE   Fn3
 BYTE   W24
 BYTE   Cn4
 BYTE   W24
 BYTE   PEND 
//  #03 //020   ----------------------------------------
Label_01029F9E:
 BYTE   N32  As3  v112
 BYTE   W36
 BYTE   N11  Gn3
 BYTE   W24
 BYTE   N11
 BYTE   W12
 BYTE   Gs3
 BYTE   W12
 BYTE   N23  As3
 BYTE   W12
 BYTE   PEND 
//  #03 //021   ----------------------------------------
Label_01029FAD:
 BYTE   W12
 BYTE   N11  Cn4  v112
 BYTE   W12
 BYTE   As3
 BYTE   W12
 BYTE   N23  Gs3
 BYTE   W24
 BYTE   N11  Gn3
 BYTE   W12
 BYTE   N16  Gs3
 BYTE   W24
 BYTE   PEND 
//  #03 //022   ----------------------------------------
Label_01029FBE:
 BYTE   N23  Fn3  v112
 BYTE   W24
 BYTE   Gs3
 BYTE   N23  Cn4
 BYTE   W24
 BYTE   Gn3
 BYTE   N23  As3
 BYTE   W24
 BYTE   N11  Ds3
 BYTE   N11  Ds4
 BYTE   W12
 BYTE   N12  Fn3  v120
 BYTE   N12  Fn4
 BYTE   W12
 BYTE   PEND 
//  #03 //023   ----------------------------------------
Label_01029FD6:
 BYTE   W24
 BYTE   N72  Fn3  v120
 BYTE   N72  Fn4
 BYTE   W06
 BYTE   VOL   38*AceAttorney2WantingtoFindtheTruthSurfingKyogre_mvl/mxv
 BYTE   W04
 BYTE   VOL   39*AceAttorney2WantingtoFindtheTruthSurfingKyogre_mvl/mxv
 BYTE   W05
 BYTE   VOL   39*AceAttorney2WantingtoFindtheTruthSurfingKyogre_mvl/mxv
 BYTE   W05
 BYTE   VOL   40*AceAttorney2WantingtoFindtheTruthSurfingKyogre_mvl/mxv
 BYTE   W05
 BYTE   VOL   41*AceAttorney2WantingtoFindtheTruthSurfingKyogre_mvl/mxv
 BYTE   W05
 BYTE   VOL   41*AceAttorney2WantingtoFindtheTruthSurfingKyogre_mvl/mxv
 BYTE   W05
 BYTE   VOL   42*AceAttorney2WantingtoFindtheTruthSurfingKyogre_mvl/mxv
 BYTE   W05
 BYTE   VOL   43*AceAttorney2WantingtoFindtheTruthSurfingKyogre_mvl/mxv
 BYTE   W04
 BYTE   VOL   43*AceAttorney2WantingtoFindtheTruthSurfingKyogre_mvl/mxv
 BYTE   W01
 BYTE   VOL   44*AceAttorney2WantingtoFindtheTruthSurfingKyogre_mvl/mxv
 BYTE   W24
 BYTE   W03
 BYTE   PEND 
//  #03 //024   ----------------------------------------
Label_01029FF4:
 BYTE   W03
 BYTE   VOL   43*AceAttorney2WantingtoFindtheTruthSurfingKyogre_mvl/mxv
 BYTE   W02
 BYTE   VOL   43*AceAttorney2WantingtoFindtheTruthSurfingKyogre_mvl/mxv
 BYTE   W02
 BYTE   VOL   42*AceAttorney2WantingtoFindtheTruthSurfingKyogre_mvl/mxv
 BYTE   W02
 BYTE   VOL   41*AceAttorney2WantingtoFindtheTruthSurfingKyogre_mvl/mxv
 BYTE   W02
 BYTE   VOL   41*AceAttorney2WantingtoFindtheTruthSurfingKyogre_mvl/mxv
 BYTE   W02
 BYTE   VOL   40*AceAttorney2WantingtoFindtheTruthSurfingKyogre_mvl/mxv
 BYTE   W02
 BYTE   VOL   39*AceAttorney2WantingtoFindtheTruthSurfingKyogre_mvl/mxv
 BYTE   W02
 BYTE   VOL   39*AceAttorney2WantingtoFindtheTruthSurfingKyogre_mvl/mxv
 BYTE   W02
 BYTE   VOL   38*AceAttorney2WantingtoFindtheTruthSurfingKyogre_mvl/mxv
 BYTE   W02
 BYTE   VOL   37*AceAttorney2WantingtoFindtheTruthSurfingKyogre_mvl/mxv
 BYTE   W72
 BYTE   W03
 BYTE   PEND 
//  #03 //025   ----------------------------------------
 BYTE   W96
//  #03 //026   ----------------------------------------
 BYTE   W96
//  #03 //027   ----------------------------------------
 BYTE   W96
//  #03 //028   ----------------------------------------
 BYTE   W96
//  #03 //029   ----------------------------------------
 BYTE   W96
//  #03 //030   ----------------------------------------
 BYTE   W96
//  #03 //031   ----------------------------------------
 BYTE   W96
//  #03 //032   ----------------------------------------
Label_0102A013:
 BYTE   N28  Fn3  v112
 BYTE   N28  Cn4  v120
 BYTE   W36
 BYTE   N04  Fn3  v108
 BYTE   N04  As3  v120
 BYTE   W06
 BYTE   N05  As3  v040
 BYTE   W06
 BYTE   As3  v032
 BYTE   W24
 BYTE   N28  Fn3  v120
 BYTE   N28  Cn4  v116
 BYTE   W24
 BYTE   PEND 
//  #03 //033   ----------------------------------------
Label_0102A030:
 BYTE   W12
 BYTE   N04  Fn3  v112
 BYTE   N04  As3  v116
 BYTE   W06
 BYTE   N05  As3  v040
 BYTE   W06
 BYTE   As3  v032
 BYTE   W24
 BYTE   N11  Fn3  v108
 BYTE   N11  Cn4  v116
 BYTE   W12
 BYTE   N05  Cn4  v040
 BYTE   W06
 BYTE   Cn4  v032
 BYTE   W06
 BYTE   N11  Fn3  v108
 BYTE   N11  As3  v120
 BYTE   W12
 BYTE   N05  As3  v040
 BYTE   W06
 BYTE   As3  v032
 BYTE   W06
 BYTE   PEND 
//  #03 //034   ----------------------------------------
Label_0102A05C:
 BYTE   N11  Fn3  v112
 BYTE   N11  Cn4  v120
 BYTE   W12
 BYTE   N05  Cn4  v040
 BYTE   W06
 BYTE   Cn4  v032
 BYTE   W78
 BYTE   PEND 
//  #03 //035   ----------------------------------------
Label_0102A06B:
 BYTE   W72
 BYTE   W02
 BYTE   VOL   38*AceAttorney2WantingtoFindtheTruthSurfingKyogre_mvl/mxv
 BYTE   W01
 BYTE   VOL   39*AceAttorney2WantingtoFindtheTruthSurfingKyogre_mvl/mxv
 BYTE   W01
 BYTE   VOL   39*AceAttorney2WantingtoFindtheTruthSurfingKyogre_mvl/mxv
 BYTE   W01
 BYTE   VOL   40*AceAttorney2WantingtoFindtheTruthSurfingKyogre_mvl/mxv
 BYTE   W01
 BYTE   VOL   41*AceAttorney2WantingtoFindtheTruthSurfingKyogre_mvl/mxv
 BYTE   W01
 BYTE   VOL   41*AceAttorney2WantingtoFindtheTruthSurfingKyogre_mvl/mxv
 BYTE   W01
 BYTE   VOL   42*AceAttorney2WantingtoFindtheTruthSurfingKyogre_mvl/mxv
 BYTE   W01
 BYTE   VOL   43*AceAttorney2WantingtoFindtheTruthSurfingKyogre_mvl/mxv
 BYTE   W01
 BYTE   VOL   44*AceAttorney2WantingtoFindtheTruthSurfingKyogre_mvl/mxv
 BYTE   W14
 BYTE   PEND 
//  #03 //036   ----------------------------------------
Label_0102A081:
 BYTE   N28  Cn3  v127
 BYTE   N28  Fn3
 BYTE   N28  Cn4
 BYTE   W36
 BYTE   As2
 BYTE   N28  Fn3
 BYTE   N28  As3
 BYTE   W32
 BYTE   W03
 BYTE   TIE  Cn3
 BYTE   TIE  Fn3
 BYTE   TIE  Fn4
 BYTE   W06
 BYTE   VOL   43*AceAttorney2WantingtoFindtheTruthSurfingKyogre_mvl/mxv
 BYTE   W01
 BYTE   VOL   44*AceAttorney2WantingtoFindtheTruthSurfingKyogre_mvl/mxv
 BYTE   W01
 BYTE   VOL   43*AceAttorney2WantingtoFindtheTruthSurfingKyogre_mvl/mxv
 BYTE   W01
 BYTE   VOL   42*AceAttorney2WantingtoFindtheTruthSurfingKyogre_mvl/mxv
 BYTE   W01
 BYTE   VOL   41*AceAttorney2WantingtoFindtheTruthSurfingKyogre_mvl/mxv
 BYTE   W01
 BYTE   VOL   40*AceAttorney2WantingtoFindtheTruthSurfingKyogre_mvl/mxv
 BYTE   W01
 BYTE   VOL   39*AceAttorney2WantingtoFindtheTruthSurfingKyogre_mvl/mxv
 BYTE   W01
 BYTE   VOL   38*AceAttorney2WantingtoFindtheTruthSurfingKyogre_mvl/mxv
 BYTE   W01
 BYTE   VOL   37*AceAttorney2WantingtoFindtheTruthSurfingKyogre_mvl/mxv
 BYTE   W01
 BYTE   VOL   36*AceAttorney2WantingtoFindtheTruthSurfingKyogre_mvl/mxv
 BYTE   W01
 BYTE   VOL   36*AceAttorney2WantingtoFindtheTruthSurfingKyogre_mvl/mxv
 BYTE   W01
 BYTE   VOL   35*AceAttorney2WantingtoFindtheTruthSurfingKyogre_mvl/mxv
 BYTE   W01
 BYTE   VOL   34*AceAttorney2WantingtoFindtheTruthSurfingKyogre_mvl/mxv
 BYTE   W01
 BYTE   VOL   34*AceAttorney2WantingtoFindtheTruthSurfingKyogre_mvl/mxv
 BYTE   W02
 BYTE   VOL   33*AceAttorney2WantingtoFindtheTruthSurfingKyogre_mvl/mxv
 BYTE   W02
 BYTE   VOL   32*AceAttorney2WantingtoFindtheTruthSurfingKyogre_mvl/mxv
 BYTE   W02
 BYTE   PEND 
//  #03 //037   ----------------------------------------
Label_0102A0B9:
 BYTE   W01
 BYTE   VOL   32*AceAttorney2WantingtoFindtheTruthSurfingKyogre_mvl/mxv
 BYTE   W03
 BYTE   VOL   31*AceAttorney2WantingtoFindtheTruthSurfingKyogre_mvl/mxv
 BYTE   W14
 BYTE   VOL   32*AceAttorney2WantingtoFindtheTruthSurfingKyogre_mvl/mxv
 BYTE   W10
 BYTE   VOL   34*AceAttorney2WantingtoFindtheTruthSurfingKyogre_mvl/mxv
 BYTE   W09
 BYTE   VOL   35*AceAttorney2WantingtoFindtheTruthSurfingKyogre_mvl/mxv
 BYTE   W03
 BYTE   VOL   36*AceAttorney2WantingtoFindtheTruthSurfingKyogre_mvl/mxv
 BYTE   W02
 BYTE   VOL   36*AceAttorney2WantingtoFindtheTruthSurfingKyogre_mvl/mxv
 BYTE   W01
 BYTE   VOL   37*AceAttorney2WantingtoFindtheTruthSurfingKyogre_mvl/mxv
 BYTE   W02
 BYTE   VOL   37*AceAttorney2WantingtoFindtheTruthSurfingKyogre_mvl/mxv
 BYTE   W01
 BYTE   VOL   38*AceAttorney2WantingtoFindtheTruthSurfingKyogre_mvl/mxv
 BYTE   W01
 BYTE   VOL   39*AceAttorney2WantingtoFindtheTruthSurfingKyogre_mvl/mxv
 BYTE   W03
 BYTE   VOL   39*AceAttorney2WantingtoFindtheTruthSurfingKyogre_mvl/mxv
 BYTE   W02
 BYTE   VOL   40*AceAttorney2WantingtoFindtheTruthSurfingKyogre_mvl/mxv
 BYTE   W03
 BYTE   VOL   41*AceAttorney2WantingtoFindtheTruthSurfingKyogre_mvl/mxv
 BYTE   W02
 BYTE   VOL   41*AceAttorney2WantingtoFindtheTruthSurfingKyogre_mvl/mxv
 BYTE   W02
 BYTE   VOL   42*AceAttorney2WantingtoFindtheTruthSurfingKyogre_mvl/mxv
 BYTE   W03
 BYTE   VOL   43*AceAttorney2WantingtoFindtheTruthSurfingKyogre_mvl/mxv
 BYTE   W02
 BYTE   VOL   43*AceAttorney2WantingtoFindtheTruthSurfingKyogre_mvl/mxv
 BYTE   W03
 BYTE   VOL   44*AceAttorney2WantingtoFindtheTruthSurfingKyogre_mvl/mxv
 BYTE   W21
 BYTE   PEND 
 BYTE   EOT
 BYTE   Cn3  v065
 BYTE   Fn4
 BYTE   W07
 BYTE   N88  As2  v127
 BYTE   N88  Fn3
 BYTE   N88  Fn4
 BYTE   W01
//  #03 //038   ----------------------------------------
Label_0102A0EF:
 BYTE   W03
 BYTE   VOL   43*AceAttorney2WantingtoFindtheTruthSurfingKyogre_mvl/mxv
 BYTE   W01
 BYTE   VOL   43*AceAttorney2WantingtoFindtheTruthSurfingKyogre_mvl/mxv
 BYTE   W01
 BYTE   VOL   42*AceAttorney2WantingtoFindtheTruthSurfingKyogre_mvl/mxv
 BYTE   W01
 BYTE   VOL   41*AceAttorney2WantingtoFindtheTruthSurfingKyogre_mvl/mxv
 BYTE   W01
 BYTE   VOL   41*AceAttorney2WantingtoFindtheTruthSurfingKyogre_mvl/mxv
 BYTE   W01
 BYTE   VOL   40*AceAttorney2WantingtoFindtheTruthSurfingKyogre_mvl/mxv
 BYTE   W01
 BYTE   VOL   39*AceAttorney2WantingtoFindtheTruthSurfingKyogre_mvl/mxv
 BYTE   W01
 BYTE   VOL   39*AceAttorney2WantingtoFindtheTruthSurfingKyogre_mvl/mxv
 BYTE   W01
 BYTE   VOL   37*AceAttorney2WantingtoFindtheTruthSurfingKyogre_mvl/mxv
 BYTE   W01
 BYTE   VOL   36*AceAttorney2WantingtoFindtheTruthSurfingKyogre_mvl/mxv
 BYTE   W02
 BYTE   VOL   36*AceAttorney2WantingtoFindtheTruthSurfingKyogre_mvl/mxv
 BYTE   W02
 BYTE   VOL   35*AceAttorney2WantingtoFindtheTruthSurfingKyogre_mvl/mxv
 BYTE   W02
 BYTE   VOL   34*AceAttorney2WantingtoFindtheTruthSurfingKyogre_mvl/mxv
 BYTE   W02
 BYTE   VOL   34*AceAttorney2WantingtoFindtheTruthSurfingKyogre_mvl/mxv
 BYTE   W01
 BYTE   VOL   33*AceAttorney2WantingtoFindtheTruthSurfingKyogre_mvl/mxv
 BYTE   W02
 BYTE   VOL   32*AceAttorney2WantingtoFindtheTruthSurfingKyogre_mvl/mxv
 BYTE   W08
 BYTE   VOL   31*AceAttorney2WantingtoFindtheTruthSurfingKyogre_mvl/mxv
 BYTE   W10
 BYTE   VOL   30*AceAttorney2WantingtoFindtheTruthSurfingKyogre_mvl/mxv
 BYTE   W23
 BYTE   VOL   31*AceAttorney2WantingtoFindtheTruthSurfingKyogre_mvl/mxv
 BYTE   W20
 BYTE   VOL   32*AceAttorney2WantingtoFindtheTruthSurfingKyogre_mvl/mxv
 BYTE   W12
 BYTE   PEND 
//  #03 //039   ----------------------------------------
Label_0102A11A:
 BYTE   N92  Cn3  v127
 BYTE   N92  Gn3
 BYTE   N92  Gn4
 BYTE   W07
 BYTE   VOL   34*AceAttorney2WantingtoFindtheTruthSurfingKyogre_mvl/mxv
 BYTE   W10
 BYTE   VOL   35*AceAttorney2WantingtoFindtheTruthSurfingKyogre_mvl/mxv
 BYTE   W10
 BYTE   VOL   36*AceAttorney2WantingtoFindtheTruthSurfingKyogre_mvl/mxv
 BYTE   W09
 BYTE   VOL   39*AceAttorney2WantingtoFindtheTruthSurfingKyogre_mvl/mxv
 BYTE   W10
 BYTE   VOL   40*AceAttorney2WantingtoFindtheTruthSurfingKyogre_mvl/mxv
 BYTE   W10
 BYTE   VOL   41*AceAttorney2WantingtoFindtheTruthSurfingKyogre_mvl/mxv
 BYTE   W10
 BYTE   VOL   43*AceAttorney2WantingtoFindtheTruthSurfingKyogre_mvl/mxv
 BYTE   W10
 BYTE   VOL   44*AceAttorney2WantingtoFindtheTruthSurfingKyogre_mvl/mxv
 BYTE   W20
 BYTE   PEND 
//  #03 //040   ----------------------------------------
Label_0102A134:
 BYTE   W52
 BYTE   VOL   43*AceAttorney2WantingtoFindtheTruthSurfingKyogre_mvl/mxv
 BYTE   W02
 BYTE   VOL   43*AceAttorney2WantingtoFindtheTruthSurfingKyogre_mvl/mxv
 BYTE   W02
 BYTE   VOL   42*AceAttorney2WantingtoFindtheTruthSurfingKyogre_mvl/mxv
 BYTE   W01
 BYTE   VOL   41*AceAttorney2WantingtoFindtheTruthSurfingKyogre_mvl/mxv
 BYTE   W02
 BYTE   VOL   41*AceAttorney2WantingtoFindtheTruthSurfingKyogre_mvl/mxv
 BYTE   W02
 BYTE   VOL   40*AceAttorney2WantingtoFindtheTruthSurfingKyogre_mvl/mxv
 BYTE   W02
 BYTE   VOL   39*AceAttorney2WantingtoFindtheTruthSurfingKyogre_mvl/mxv
 BYTE   W02
 BYTE   VOL   39*AceAttorney2WantingtoFindtheTruthSurfingKyogre_mvl/mxv
 BYTE   W02
 BYTE   VOL   37*AceAttorney2WantingtoFindtheTruthSurfingKyogre_mvl/mxv
 BYTE   W28
 BYTE   W01
 BYTE   PEND 
//  #03 //041   ----------------------------------------
 BYTE   W96
//  #03 //042   ----------------------------------------
 BYTE   W96
//  #03 //043   ----------------------------------------
Label_0102A14C:
 BYTE   W36
 BYTE   N28  As3  v108
 BYTE   N28  Dn4  v104
 BYTE   W30
 BYTE   N05  Dn4  v040
 BYTE   W06
 BYTE   N17  As3  v112
 BYTE   N17  Ds4  v108
 BYTE   W18
 BYTE   N05  Ds4  v040
 BYTE   W06
 BYTE   PEND 
//  #03 //044   ----------------------------------------
Label_0102A164:
 BYTE   N11  Cn4  v120
 BYTE   N11  Fn4  v108
 BYTE   W12
 BYTE   N05  Fn4  v040
 BYTE   W06
 BYTE   Fn4  v032
 BYTE   W78
 BYTE   PEND 
//  #03 //045   ----------------------------------------
Label_0102A173:
 BYTE   W36
 BYTE   N28  As3  v108
 BYTE   N28  Dn4
 BYTE   W30
 BYTE   N05  Dn4  v040
 BYTE   W06
 BYTE   N17  As3  v108
 BYTE   N17  Ds4  v120
 BYTE   W18
 BYTE   N05  Ds4  v040
 BYTE   W06
 BYTE   PEND 
//  #03 //046   ----------------------------------------
Label_0102A18A:
 BYTE   N11  Cn4  v120
 BYTE   N11  Fn4
 BYTE   W12
 BYTE   N05  Fn4  v040
 BYTE   W06
 BYTE   Fn4  v032
 BYTE   W78
 BYTE   PEND 
//  #03 //047   ----------------------------------------
Label_0102A198:
 BYTE   W36
 BYTE   N28  As3  v120
 BYTE   N28  Dn4
 BYTE   W30
 BYTE   N05  Dn4  v040
 BYTE   W06
 BYTE   N17  As3  v120
 BYTE   N17  Ds4
 BYTE   W18
 BYTE   N05  Ds4  v040
 BYTE   W06
 BYTE   PEND 
//  #03 //048   ----------------------------------------
Label_0102A1AE:
 BYTE   N11  Cn4  v120
 BYTE   N11  Fn4  v112
 BYTE   W12
 BYTE   N05  Fn4  v040
 BYTE   W06
 BYTE   Fn4  v032
 BYTE   W78
 BYTE   PEND 
//  #03 //049   ----------------------------------------
 BYTE   PATT
  POIN2 Label_0102A198
//  #03 //050   ----------------------------------------
 BYTE   PAN   c_v+0
 BYTE   VOL   37*AceAttorney2WantingtoFindtheTruthSurfingKyogre_mvl/mxv
 BYTE   PAN   c_v+0
 BYTE   VOL   37*AceAttorney2WantingtoFindtheTruthSurfingKyogre_mvl/mxv
 BYTE   PAN   c_v+0
 BYTE   VOL   37*AceAttorney2WantingtoFindtheTruthSurfingKyogre_mvl/mxv
 BYTE   PAN   c_v+0
 BYTE   VOL   37*AceAttorney2WantingtoFindtheTruthSurfingKyogre_mvl/mxv
 BYTE   BEND   c_v+0
 BYTE   N15  Gs3  v116
 BYTE   N15  Cn4
 BYTE   N15  Fn4
 BYTE   W18
 BYTE   N04  Gs3
 BYTE   N04  Cn4
 BYTE   N04  Fn4
 BYTE   W06
 BYTE   N05  Fn4  v040
 BYTE   W06
 BYTE   Fn4  v032
 BYTE   W06
 BYTE   N04  Gn3  v116
 BYTE   N04  As3
 BYTE   N04  Ds4
 BYTE   W06
 BYTE   N05  Ds4  v040
 BYTE   W06
 BYTE   Ds4  v032
 BYTE   W12
 BYTE   N04  Ds3  v116
 BYTE   N04  Gn3
 BYTE   N04  Cn4
 BYTE   W06
 BYTE   N05  Cn4  v040
 BYTE   W06
 BYTE   Cn4  v032
 BYTE   W12
 BYTE   N32  Fn3  v116
 BYTE   N32  Gs3
 BYTE   N32  Cs4
 BYTE   W12
//  #03 //051   ----------------------------------------
 BYTE   PATT
  POIN2 Label_01029E4E
//  #03 //052   ----------------------------------------
 BYTE   GoTo
  POIN2 Label_01029E66
//  #03 //053   ----------------------------------------
 BYTE   PATT
  POIN2 Label_01029E66
//  #03 //054   ----------------------------------------
 BYTE   PATT
  POIN2 Label_01029EA3
//  #03 //055   ----------------------------------------
 BYTE   PATT
  POIN2 Label_01029EBB
//  #03 //056   ----------------------------------------
 BYTE   PATT
  POIN2 Label_01029EF8
//  #03 //057   ----------------------------------------
 BYTE   PATT
  POIN2 Label_01029F14
//  #03 //058   ----------------------------------------
 BYTE   PATT
  POIN2 Label_01029F2D
//  #03 //059   ----------------------------------------
 BYTE   PATT
  POIN2 Label_01029F4C
//  #03 //060   ----------------------------------------
 BYTE   W96
//  #03 //061   ----------------------------------------
 BYTE   W96
//  #03 //062   ----------------------------------------
 BYTE   W96
//  #03 //063   ----------------------------------------
 BYTE   W96
//  #03 //064   ----------------------------------------
 BYTE   W96
//  #03 //065   ----------------------------------------
 BYTE   W96
//  #03 //066   ----------------------------------------
 BYTE   PATT
  POIN2 Label_01029F5A
//  #03 //067   ----------------------------------------
 BYTE   PATT
  POIN2 Label_01029F81
//  #03 //068   ----------------------------------------
 BYTE   W96
//  #03 //069   ----------------------------------------
 BYTE   W96
//  #03 //070   ----------------------------------------
 BYTE   PATT
  POIN2 Label_01029F94
//  #03 //071   ----------------------------------------
 BYTE   PATT
  POIN2 Label_01029F9E
//  #03 //072   ----------------------------------------
 BYTE   PATT
  POIN2 Label_01029FAD
//  #03 //073   ----------------------------------------
 BYTE   PATT
  POIN2 Label_01029FBE
//  #03 //074   ----------------------------------------
 BYTE   PATT
  POIN2 Label_01029FD6
//  #03 //075   ----------------------------------------
 BYTE   PATT
  POIN2 Label_01029FF4
//  #03 //076   ----------------------------------------
 BYTE   W96
//  #03 //077   ----------------------------------------
 BYTE   W96
//  #03 //078   ----------------------------------------
 BYTE   W96
//  #03 //079   ----------------------------------------
 BYTE   W96
//  #03 //080   ----------------------------------------
 BYTE   W96
//  #03 //081   ----------------------------------------
 BYTE   W96
//  #03 //082   ----------------------------------------
 BYTE   W96
//  #03 //083   ----------------------------------------
 BYTE   PATT
  POIN2 Label_0102A013
//  #03 //084   ----------------------------------------
 BYTE   PATT
  POIN2 Label_0102A030
//  #03 //085   ----------------------------------------
 BYTE   PATT
  POIN2 Label_0102A05C
//  #03 //086   ----------------------------------------
 BYTE   PATT
  POIN2 Label_0102A06B
//  #03 //087   ----------------------------------------
 BYTE   PATT
  POIN2 Label_0102A081
//  #03 //088   ----------------------------------------
 BYTE   PATT
  POIN2 Label_0102A0B9
//  #03 //089   ----------------------------------------
 BYTE   EOT
 BYTE   Cn3  v065
 BYTE   Fn4
 BYTE   W07
 BYTE   N88  As2  v127
 BYTE   N88  Fn3
 BYTE   N88  Fn4
 BYTE   W01
//  #03 //090   ----------------------------------------
 BYTE   PATT
  POIN2 Label_0102A0EF
//  #03 //091   ----------------------------------------
 BYTE   PATT
  POIN2 Label_0102A11A
//  #03 //092   ----------------------------------------
 BYTE   PATT
  POIN2 Label_0102A134
//  #03 //093   ----------------------------------------
 BYTE   W96
//  #03 //094   ----------------------------------------
 BYTE   W96
//  #03 //095   ----------------------------------------
 BYTE   PATT
  POIN2 Label_0102A14C
//  #03 //096   ----------------------------------------
 BYTE   PATT
  POIN2 Label_0102A164
//  #03 //097   ----------------------------------------
 BYTE   PATT
  POIN2 Label_0102A173
//  #03 //098   ----------------------------------------
 BYTE   PATT
  POIN2 Label_0102A18A
//  #03 //099   ----------------------------------------
 BYTE   PATT
  POIN2 Label_0102A198
//  #03 //100   ----------------------------------------
 BYTE   PATT
  POIN2 Label_0102A1AE
//  #03 //101   ----------------------------------------
 BYTE   PATT
  POIN2 Label_0102A198
//  #03 //102   ----------------------------------------
 BYTE   PAN   c_v+0
 BYTE   VOL   37*AceAttorney2WantingtoFindtheTruthSurfingKyogre_mvl/mxv
 BYTE   BEND   c_v+0
 BYTE   W96
//  #03 //103   ----------------------------------------
 BYTE   W48
 BYTE   W03
 BYTE   VOL   37*AceAttorney2WantingtoFindtheTruthSurfingKyogre_mvl/mxv
 BYTE   PAN   c_v+0
 BYTE   VOL   37*AceAttorney2WantingtoFindtheTruthSurfingKyogre_mvl/mxv
 BYTE   BEND   c_v+0
 BYTE   W44
 BYTE   W01
//  #03 //104   ----------------------------------------
 BYTE   W60
 BYTE   PAN   c_v+0
 BYTE   VOL   37*AceAttorney2WantingtoFindtheTruthSurfingKyogre_mvl/mxv
 BYTE   BEND   c_v+0
 BYTE   W36
//  #03 //105   ----------------------------------------
 BYTE   W96
//  #03 //106   ----------------------------------------
 BYTE   W15
 BYTE   VOL   37*AceAttorney2WantingtoFindtheTruthSurfingKyogre_mvl/mxv
 BYTE   PAN   c_v+0
 BYTE   VOL   37*AceAttorney2WantingtoFindtheTruthSurfingKyogre_mvl/mxv
 BYTE   BEND   c_v+0
 BYTE   FINE

//**************** Track 4 (Midi-Chn.3) ****************//

AceAttorney2WantingtoFindtheTruthSurfingKyogre_004:
//  #04 //000   ----------------------------------------
 BYTE   KEYSH   AceAttorney2WantingtoFindtheTruthSurfingKyogre_key+0
 BYTE   VOICE   30
 BYTE   PAN   c_v-20
 BYTE   VOL   19*AceAttorney2WantingtoFindtheTruthSurfingKyogre_mvl/mxv
 BYTE   W96
//  #04 //001   ----------------------------------------
 BYTE   W96
//  #04 //002   ----------------------------------------
Label_01027CFA:
 BYTE   N11  Fn1  v100
 BYTE   W12
 BYTE   N11
 BYTE   W12
 BYTE   N02  Fn1  v120
 BYTE   W12
 BYTE   N11  Fn1  v100
 BYTE   W12
 BYTE   N11
 BYTE   W12
 BYTE   N02  Fn1  v120
 BYTE   W12
 BYTE   N11  Fn1  v100
 BYTE   W12
 BYTE   N02  Fn1  v120
 BYTE   W12
 BYTE   PEND 
//  #04 //003   ----------------------------------------
Label_01027D17:
 BYTE   N11  Fn1  v100
 BYTE   W12
 BYTE   N11
 BYTE   W12
 BYTE   N02  Fn1  v120
 BYTE   W12
 BYTE   N11  Fn1  v100
 BYTE   W12
 BYTE   N11
 BYTE   W12
 BYTE   N02  Fn1  v120
 BYTE   W12
 BYTE   N11  Fn1  v100
 BYTE   W12
 BYTE   N11
 BYTE   W12
 BYTE   PEND 
//  #04 //004   ----------------------------------------
 BYTE   PATT
  POIN2 Label_01027CFA
//  #04 //005   ----------------------------------------
 BYTE   PATT
  POIN2 Label_01027CFA
//  #04 //006   ----------------------------------------
Label_01027D3C:
 BYTE   N11  Fn1  v100
 BYTE   W12
 BYTE   N11
 BYTE   W12
 BYTE   N02  Fn1  v120
 BYTE   W12
 BYTE   N11  Fn1  v100
 BYTE   W12
 BYTE   N11
 BYTE   W12
 BYTE   N02  Fn1  v120
 BYTE   W12
 BYTE   N11  Fn1  v100
 BYTE   W12
 BYTE   N02  Cn2  v120
 BYTE   W12
 BYTE   PEND 
//  #04 //007   ----------------------------------------
Label_01027D59:
 BYTE   W24
 BYTE   N11  Cn2  v100
 BYTE   W12
 BYTE   N02  Cn2  v120
 BYTE   W12
 BYTE   N11  Cn2  v100
 BYTE   W12
 BYTE   N32  Cn1  v120
 BYTE   W36
 BYTE   PEND 
//  #04 //008   ----------------------------------------
 BYTE   PATT
  POIN2 Label_01027D17
//  #04 //009   ----------------------------------------
Label_01027D70:
 BYTE   N11  Fn1  v100
 BYTE   W12
 BYTE   N11
 BYTE   W12
 BYTE   N02  Fn1  v120
 BYTE   W12
 BYTE   Ds2
 BYTE   W12
 BYTE   N11  Ds2  v100
 BYTE   W12
 BYTE   N02  Ds2  v120
 BYTE   W12
 BYTE   N11  Ds2  v100
 BYTE   W12
 BYTE   N11
 BYTE   W12
 BYTE   PEND 
//  #04 //010   ----------------------------------------
Label_01027D8B:
 BYTE   N11  Cs2  v100
 BYTE   W12
 BYTE   N11
 BYTE   W12
 BYTE   N02  Cs2  v120
 BYTE   W12
 BYTE   N11  Cs2  v100
 BYTE   W12
 BYTE   N11
 BYTE   W12
 BYTE   N02  Cs2  v120
 BYTE   W12
 BYTE   N11  Cs2  v100
 BYTE   W12
 BYTE   N02  Cs2  v120
 BYTE   W12
 BYTE   PEND 
//  #04 //011   ----------------------------------------
Label_01027DA8:
 BYTE   N11  Cs2  v100
 BYTE   W12
 BYTE   N11
 BYTE   W12
 BYTE   N02  Cs2  v120
 BYTE   W12
 BYTE   N11  Cs2  v100
 BYTE   W12
 BYTE   N11
 BYTE   W12
 BYTE   N02  Cs2  v120
 BYTE   W12
 BYTE   N11  Cs2  v100
 BYTE   W12
 BYTE   N11
 BYTE   W12
 BYTE   PEND 
//  #04 //012   ----------------------------------------
Label_01027DC3:
 BYTE   N11  Cn2  v100
 BYTE   W12
 BYTE   N11
 BYTE   W12
 BYTE   N02  Cn2  v120
 BYTE   W12
 BYTE   N11  Cn2  v100
 BYTE   W12
 BYTE   N11
 BYTE   W12
 BYTE   N02  Cn2  v120
 BYTE   W12
 BYTE   N11  Cn2  v100
 BYTE   W12
 BYTE   N11
 BYTE   W12
 BYTE   PEND 
//  #04 //013   ----------------------------------------
Label_01027DDE:
 BYTE   N02  Cn2  v120
 BYTE   W12
 BYTE   N11  Fn2  v100
 BYTE   W12
 BYTE   N02  Cn2  v120
 BYTE   W12
 BYTE   Ds2
 BYTE   W12
 BYTE   N11  Ds2  v100
 BYTE   W12
 BYTE   N02  Ds2  v120
 BYTE   W12
 BYTE   N11  Ds2  v100
 BYTE   W12
 BYTE   N11
 BYTE   W12
 BYTE   PEND 
//  #04 //014   ----------------------------------------
 BYTE   PATT
  POIN2 Label_01027DA8
//  #04 //015   ----------------------------------------
Label_01027E00:
 BYTE   N02  Cn2  v120
 BYTE   W12
 BYTE   N11  Cn2  v100
 BYTE   W12
 BYTE   N11
 BYTE   W12
 BYTE   N02  Cn2  v120
 BYTE   W12
 BYTE   N11  Cn2  v100
 BYTE   W12
 BYTE   N32  Cn1  v120
 BYTE   W36
 BYTE   PEND 
//  #04 //016   ----------------------------------------
 BYTE   PATT
  POIN2 Label_01027D17
//  #04 //017   ----------------------------------------
 BYTE   PATT
  POIN2 Label_01027D70
//  #04 //018   ----------------------------------------
 BYTE   PATT
  POIN2 Label_01027D8B
//  #04 //019   ----------------------------------------
 BYTE   PATT
  POIN2 Label_01027DA8
//  #04 //020   ----------------------------------------
 BYTE   PATT
  POIN2 Label_01027DC3
//  #04 //021   ----------------------------------------
 BYTE   PATT
  POIN2 Label_01027DDE
//  #04 //022   ----------------------------------------
Label_01027E35:
 BYTE   N11  Cs2  v100
 BYTE   W12
 BYTE   N11
 BYTE   W12
 BYTE   N02  Cs2  v120
 BYTE   W12
 BYTE   N11  Cs2  v100
 BYTE   W12
 BYTE   N02  Ds2  v120
 BYTE   W12
 BYTE   N11  Ds2  v100
 BYTE   W12
 BYTE   N02  Ds2  v120
 BYTE   W12
 BYTE   N02
 BYTE   W12
 BYTE   PEND 
//  #04 //023   ----------------------------------------
Label_01027E52:
 BYTE   N11  Cn2  v100
 BYTE   W12
 BYTE   Fn0  v120
 BYTE   W12
 BYTE   Gn0
 BYTE   W12
 BYTE   Gs0
 BYTE   W12
 BYTE   Gs1  v100
 BYTE   W12
 BYTE   N32  Fn0  v120
 BYTE   W36
 BYTE   PEND 
//  #04 //024   ----------------------------------------
 BYTE   W96
//  #04 //025   ----------------------------------------
 BYTE   W96
//  #04 //026   ----------------------------------------
 BYTE   W96
//  #04 //027   ----------------------------------------
 BYTE   W96
//  #04 //028   ----------------------------------------
 BYTE   W96
//  #04 //029   ----------------------------------------
 BYTE   W96
//  #04 //030   ----------------------------------------
 BYTE   W96
//  #04 //031   ----------------------------------------
 BYTE   W96
//  #04 //032   ----------------------------------------
Label_01027E6D:
 BYTE   N28  Fs0  v120
 BYTE   W36
 BYTE   N02  Fs1
 BYTE   W24
 BYTE   N11  Fs1  v100
 BYTE   W12
 BYTE   N32  Fs0  v120
 BYTE   W24
 BYTE   PEND 
//  #04 //033   ----------------------------------------
Label_01027E7D:
 BYTE   W12
 BYTE   N02  Fs1  v120
 BYTE   W24
 BYTE   N11  Fs1  v100
 BYTE   W12
 BYTE   N02  Fs1  v120
 BYTE   W24
 BYTE   N24  Fs0
 BYTE   W24
 BYTE   PEND 
//  #04 //034   ----------------------------------------
 BYTE   PATT
  POIN2 Label_01027D17
//  #04 //035   ----------------------------------------
 BYTE   PATT
  POIN2 Label_01027D70
//  #04 //036   ----------------------------------------
Label_01027E98:
 BYTE   N11  Dn2  v100
 BYTE   W12
 BYTE   N11
 BYTE   W12
 BYTE   N02  Dn2  v120
 BYTE   W12
 BYTE   N11  Dn2  v100
 BYTE   W12
 BYTE   N11
 BYTE   W12
 BYTE   N02  Dn2  v120
 BYTE   W12
 BYTE   N11  Dn2  v100
 BYTE   W12
 BYTE   N11
 BYTE   W12
 BYTE   PEND 
//  #04 //037   ----------------------------------------
Label_01027EB3:
 BYTE   N11  Dn2  v100
 BYTE   W12
 BYTE   N11
 BYTE   W12
 BYTE   N02  Dn2  v120
 BYTE   W12
 BYTE   N02
 BYTE   W12
 BYTE   N11  Dn2  v100
 BYTE   W12
 BYTE   N02  Dn2  v120
 BYTE   W12
 BYTE   N11  Dn2  v100
 BYTE   W12
 BYTE   N02  Dn2  v120
 BYTE   W12
 BYTE   PEND 
//  #04 //038   ----------------------------------------
 BYTE   PATT
  POIN2 Label_01027DC3
//  #04 //039   ----------------------------------------
Label_01027ED5:
 BYTE   N11  Cn2  v100
 BYTE   W12
 BYTE   N11
 BYTE   W12
 BYTE   N02  Cn2  v120
 BYTE   W12
 BYTE   N02
 BYTE   W12
 BYTE   N11  Cn2  v100
 BYTE   W12
 BYTE   N02  Cn2  v120
 BYTE   W12
 BYTE   N11  Cn2  v100
 BYTE   W12
 BYTE   N02  Cn2  v120
 BYTE   W12
 BYTE   PEND 
//  #04 //040   ----------------------------------------
Label_01027EF2:
 BYTE   W12
 BYTE   N11  Ds1  v127
 BYTE   W12
 BYTE   Cs1  v120
 BYTE   W12
 BYTE   Cn1
 BYTE   W12
 BYTE   As0
 BYTE   W12
 BYTE   Gs0
 BYTE   W12
 BYTE   Gn0
 BYTE   W12
 BYTE   Cn1
 BYTE   W12
 BYTE   PEND 
//  #04 //041   ----------------------------------------
Label_01027F05:
 BYTE   W12
 BYTE   N11  Cn1  v120
 BYTE   W12
 BYTE   As0
 BYTE   W12
 BYTE   Cn1
 BYTE   W12
 BYTE   Gs0
 BYTE   W12
 BYTE   Cn1
 BYTE   W12
 BYTE   Gn0
 BYTE   W12
 BYTE   Cn1
 BYTE   W12
 BYTE   PEND 
//  #04 //042   ----------------------------------------
 BYTE   PATT
  POIN2 Label_01027CFA
//  #04 //043   ----------------------------------------
Label_01027F1C:
 BYTE   N11  Fn1  v100
 BYTE   W12
 BYTE   N11
 BYTE   W12
 BYTE   N02  Fn1  v120
 BYTE   W12
 BYTE   N23  As0
 BYTE   W24
 BYTE   N11  As1  v100
 BYTE   W12
 BYTE   N02  Cn2  v120
 BYTE   W12
 BYTE   N11  Cn2  v100
 BYTE   W12
 BYTE   PEND 
//  #04 //044   ----------------------------------------
 BYTE   PATT
  POIN2 Label_01027CFA
//  #04 //045   ----------------------------------------
 BYTE   PATT
  POIN2 Label_01027F1C
//  #04 //046   ----------------------------------------
 BYTE   PATT
  POIN2 Label_01027CFA
//  #04 //047   ----------------------------------------
 BYTE   PATT
  POIN2 Label_01027F1C
//  #04 //048   ----------------------------------------
 BYTE   PATT
  POIN2 Label_01027CFA
//  #04 //049   ----------------------------------------
 BYTE   PATT
  POIN2 Label_01027F1C
//  #04 //050   ----------------------------------------
 BYTE   W96
//  #04 //051   ----------------------------------------
 BYTE   W96
//  #04 //052   ----------------------------------------
 BYTE   GoTo
  POIN2 Label_01027CFA
//  #04 //053   ----------------------------------------
 BYTE   PATT
  POIN2 Label_01027CFA
//  #04 //054   ----------------------------------------
 BYTE   PATT
  POIN2 Label_01027D17
//  #04 //055   ----------------------------------------
 BYTE   PATT
  POIN2 Label_01027CFA
//  #04 //056   ----------------------------------------
 BYTE   PATT
  POIN2 Label_01027CFA
//  #04 //057   ----------------------------------------
 BYTE   PATT
  POIN2 Label_01027D3C
//  #04 //058   ----------------------------------------
 BYTE   PATT
  POIN2 Label_01027D59
//  #04 //059   ----------------------------------------
 BYTE   PATT
  POIN2 Label_01027D17
//  #04 //060   ----------------------------------------
 BYTE   PATT
  POIN2 Label_01027D70
//  #04 //061   ----------------------------------------
 BYTE   PATT
  POIN2 Label_01027D8B
//  #04 //062   ----------------------------------------
 BYTE   PATT
  POIN2 Label_01027DA8
//  #04 //063   ----------------------------------------
 BYTE   PATT
  POIN2 Label_01027DC3
//  #04 //064   ----------------------------------------
 BYTE   PATT
  POIN2 Label_01027DDE
//  #04 //065   ----------------------------------------
 BYTE   PATT
  POIN2 Label_01027DA8
//  #04 //066   ----------------------------------------
 BYTE   PATT
  POIN2 Label_01027E00
//  #04 //067   ----------------------------------------
 BYTE   PATT
  POIN2 Label_01027D17
//  #04 //068   ----------------------------------------
 BYTE   PATT
  POIN2 Label_01027D70
//  #04 //069   ----------------------------------------
 BYTE   PATT
  POIN2 Label_01027D8B
//  #04 //070   ----------------------------------------
 BYTE   PATT
  POIN2 Label_01027DA8
//  #04 //071   ----------------------------------------
 BYTE   PATT
  POIN2 Label_01027DC3
//  #04 //072   ----------------------------------------
 BYTE   PATT
  POIN2 Label_01027DDE
//  #04 //073   ----------------------------------------
 BYTE   PATT
  POIN2 Label_01027E35
//  #04 //074   ----------------------------------------
 BYTE   PATT
  POIN2 Label_01027E52
//  #04 //075   ----------------------------------------
 BYTE   W96
//  #04 //076   ----------------------------------------
 BYTE   W96
//  #04 //077   ----------------------------------------
 BYTE   W96
//  #04 //078   ----------------------------------------
 BYTE   W96
//  #04 //079   ----------------------------------------
 BYTE   W96
//  #04 //080   ----------------------------------------
 BYTE   W96
//  #04 //081   ----------------------------------------
 BYTE   W96
//  #04 //082   ----------------------------------------
 BYTE   W96
//  #04 //083   ----------------------------------------
 BYTE   PATT
  POIN2 Label_01027E6D
//  #04 //084   ----------------------------------------
 BYTE   PATT
  POIN2 Label_01027E7D
//  #04 //085   ----------------------------------------
 BYTE   PATT
  POIN2 Label_01027D17
//  #04 //086   ----------------------------------------
 BYTE   PATT
  POIN2 Label_01027D70
//  #04 //087   ----------------------------------------
 BYTE   PATT
  POIN2 Label_01027E98
//  #04 //088   ----------------------------------------
 BYTE   PATT
  POIN2 Label_01027EB3
//  #04 //089   ----------------------------------------
 BYTE   PATT
  POIN2 Label_01027DC3
//  #04 //090   ----------------------------------------
 BYTE   PATT
  POIN2 Label_01027ED5
//  #04 //091   ----------------------------------------
 BYTE   PATT
  POIN2 Label_01027EF2
//  #04 //092   ----------------------------------------
 BYTE   PATT
  POIN2 Label_01027F05
//  #04 //093   ----------------------------------------
 BYTE   PATT
  POIN2 Label_01027CFA
//  #04 //094   ----------------------------------------
 BYTE   PATT
  POIN2 Label_01027F1C
//  #04 //095   ----------------------------------------
 BYTE   PATT
  POIN2 Label_01027CFA
//  #04 //096   ----------------------------------------
 BYTE   PATT
  POIN2 Label_01027F1C
//  #04 //097   ----------------------------------------
 BYTE   PATT
  POIN2 Label_01027CFA
//  #04 //098   ----------------------------------------
 BYTE   PATT
  POIN2 Label_01027F1C
//  #04 //099   ----------------------------------------
 BYTE   PATT
  POIN2 Label_01027CFA
//  #04 //100   ----------------------------------------
 BYTE   PATT
  POIN2 Label_01027F1C
//  #04 //101   ----------------------------------------
 BYTE   W96
//  #04 //102   ----------------------------------------
 BYTE   W96
//  #04 //103   ----------------------------------------
 BYTE   W96
//  #04 //104   ----------------------------------------
 BYTE   W96
//  #04 //105   ----------------------------------------
 BYTE   W15
 BYTE   FINE

//**************** Track 5 (Midi-Chn.4) ****************//

AceAttorney2WantingtoFindtheTruthSurfingKyogre_005:
//  #05 //000   ----------------------------------------
 BYTE   KEYSH   AceAttorney2WantingtoFindtheTruthSurfingKyogre_key+0
 BYTE   VOICE   40
 BYTE   PAN   c_v-40
 BYTE   VOL   32*AceAttorney2WantingtoFindtheTruthSurfingKyogre_mvl/mxv
 BYTE   N12  Gs3  v100
 BYTE   N12  Fn4
 BYTE   W96
//  #05 //001   ----------------------------------------
 BYTE   W96
//  #05 //002   ----------------------------------------
Label_01029597:
 BYTE   N12  Gs3  v100
 BYTE   N12  Fn4
 BYTE   W96
//  #05 //003   ----------------------------------------
 BYTE   W96
//  #05 //004   ----------------------------------------
 BYTE   Gs3
 BYTE   N12  Fn4
 BYTE   W96
//  #05 //005   ----------------------------------------
 BYTE   W96
//  #05 //006   ----------------------------------------
Label_010295A3:
 BYTE   W84
 BYTE   N12  As3  v100
 BYTE   N12  Gn4
 BYTE   W12
 BYTE   PEND 
//  #05 //007   ----------------------------------------
Label_010295AB:
 BYTE   W36
 BYTE   N12  As3  v100
 BYTE   N12  Gn4
 BYTE   W24
 BYTE   N30  As3
 BYTE   N30  Gn4
 BYTE   W36
 BYTE   PEND 
//  #05 //008   ----------------------------------------
 BYTE   W96
//  #05 //009   ----------------------------------------
 BYTE   W96
//  #05 //010   ----------------------------------------
 BYTE   W96
//  #05 //011   ----------------------------------------
 BYTE   W96
//  #05 //012   ----------------------------------------
 BYTE   W96
//  #05 //013   ----------------------------------------
 BYTE   W96
//  #05 //014   ----------------------------------------
 BYTE   W96
//  #05 //015   ----------------------------------------
 BYTE   W96
//  #05 //016   ----------------------------------------
 BYTE   W96
//  #05 //017   ----------------------------------------
Label_010295C1:
 BYTE   N32  Ds5  v112
 BYTE   W36
 BYTE   N23  Cs5
 BYTE   W24
 BYTE   N32  As4
 BYTE   W36
 BYTE   PEND 
//  #05 //018   ----------------------------------------
Label_010295CC:
 BYTE   N32  Cn5  v112
 BYTE   W36
 BYTE   N23  As4
 BYTE   W24
 BYTE   N32  Gn4
 BYTE   W36
 BYTE   PEND 
//  #05 //019   ----------------------------------------
 BYTE   N92  Gs4
 BYTE   W96
//  #05 //020   ----------------------------------------
Label_010295DA:
 BYTE   N32  As4  v112
 BYTE   W36
 BYTE   N17  Gn4
 BYTE   W24
 BYTE   N11
 BYTE   W12
 BYTE   Gs4
 BYTE   W12
 BYTE   N23  As4
 BYTE   W12
 BYTE   PEND 
//  #05 //021   ----------------------------------------
Label_010295E9:
 BYTE   W12
 BYTE   N11  Cn5  v112
 BYTE   W12
 BYTE   As4
 BYTE   W12
 BYTE   N23  Gs4
 BYTE   W24
 BYTE   N11  Gn4
 BYTE   W12
 BYTE   N23  Gs4
 BYTE   W24
 BYTE   PEND 
//  #05 //022   ----------------------------------------
Label_010295FA:
 BYTE   N17  Fn4  v112
 BYTE   W24
 BYTE   Cn5
 BYTE   W24
 BYTE   As4
 BYTE   W24
 BYTE   N11  Ds5
 BYTE   W12
 BYTE   N12  Fn5
 BYTE   W12
 BYTE   PEND 
//  #05 //023   ----------------------------------------
Label_01029609:
 BYTE   W12
 BYTE   N11  Fn3  v100
 BYTE   W12
 BYTE   Gn3
 BYTE   W12
 BYTE   Gs3
 BYTE   W24
 BYTE   N32  Fn3  v112
 BYTE   W36
 BYTE   PEND 
//  #05 //024   ----------------------------------------
 BYTE   TIE  Fn3  v100
 BYTE   W96
//  #05 //025   ----------------------------------------
 BYTE   W92
 BYTE   W03
 BYTE   EOT
 BYTE   W01
//  #05 //026   ----------------------------------------
 BYTE   TIE  Gn3
 BYTE   W96
//  #05 //027   ----------------------------------------
 BYTE   W92
 BYTE   W03
 BYTE   EOT
 BYTE   W01
//  #05 //028   ----------------------------------------
 BYTE   N92  Fn3
 BYTE   W96
//  #05 //029   ----------------------------------------
 BYTE   Cn4
 BYTE   W96
//  #05 //030   ----------------------------------------
Label_0102962B:
 BYTE   N44  Gn3  v100
 BYTE   W48
 BYTE   Cn4
 BYTE   W48
 BYTE   PEND 
//  #05 //031   ----------------------------------------
Label_01029632:
 BYTE   N44  Ds4  v100
 BYTE   W54
 BYTE   N05  Cn4  v112
 BYTE   W06
 BYTE   Dn4
 BYTE   W06
 BYTE   Ds4
 BYTE   W06
 BYTE   Fn4
 BYTE   W06
 BYTE   Gn4
 BYTE   W06
 BYTE   Gs4
 BYTE   W06
 BYTE   As4
 BYTE   W06
 BYTE   PEND 
//  #05 //032   ----------------------------------------
Label_01029647:
 BYTE   N32  Cn5  v112
 BYTE   W36
 BYTE   N07  As4
 BYTE   W36
 BYTE   N32  Cn5
 BYTE   W24
 BYTE   PEND 
//  #05 //033   ----------------------------------------
Label_01029652:
 BYTE   W12
 BYTE   N07  As4  v112
 BYTE   W24
 BYTE   N10
 BYTE   W12
 BYTE   N23  Cn5
 BYTE   W24
 BYTE   N18  As4
 BYTE   W24
 BYTE   PEND 
//  #05 //034   ----------------------------------------
Label_01029660:
 BYTE   N32  As4  v112
 BYTE   W36
 BYTE   N23  Gs4
 BYTE   W24
 BYTE   N11  Gn4
 BYTE   W12
 BYTE   N23  Gs4
 BYTE   W24
 BYTE   PEND 
//  #05 //035   ----------------------------------------
Label_0102966E:
 BYTE   N32  Fn4  v112
 BYTE   W36
 BYTE   N23  Gn4
 BYTE   W24
 BYTE   N11  Gs4
 BYTE   W12
 BYTE   N23  As4
 BYTE   W24
 BYTE   PEND 
//  #05 //036   ----------------------------------------
Label_0102967C:
 BYTE   N04  Cn5  v112
 BYTE   W06
 BYTE   N04
 BYTE   W06
 BYTE   Gs4
 BYTE   W06
 BYTE   N04
 BYTE   W06
 BYTE   Fn4
 BYTE   W06
 BYTE   N04
 BYTE   W06
 BYTE   Cn4
 BYTE   W06
 BYTE   N04
 BYTE   W06
 BYTE   Cn5
 BYTE   W06
 BYTE   N04
 BYTE   W06
 BYTE   As4
 BYTE   W06
 BYTE   N04
 BYTE   W06
 BYTE   Fn4
 BYTE   W06
 BYTE   N04
 BYTE   W06
 BYTE   Cn4
 BYTE   W06
 BYTE   N04
 BYTE   W06
 BYTE   PEND 
//  #05 //037   ----------------------------------------
Label_0102969F:
 BYTE   N04  Cn5  v112
 BYTE   W06
 BYTE   N04
 BYTE   W06
 BYTE   Gs4
 BYTE   W06
 BYTE   N04
 BYTE   W06
 BYTE   Fn4
 BYTE   W06
 BYTE   N04
 BYTE   W06
 BYTE   Cn4
 BYTE   W06
 BYTE   N04
 BYTE   W06
 BYTE   Cn5
 BYTE   W06
 BYTE   N04
 BYTE   W06
 BYTE   Gs4
 BYTE   W06
 BYTE   N04
 BYTE   W06
 BYTE   Fn4
 BYTE   W06
 BYTE   N04
 BYTE   W06
 BYTE   Cn4
 BYTE   W06
 BYTE   N04
 BYTE   W06
 BYTE   PEND 
//  #05 //038   ----------------------------------------
Label_010296C2:
 BYTE   N04  Cn5  v112
 BYTE   W06
 BYTE   N04
 BYTE   W06
 BYTE   Gn4
 BYTE   W06
 BYTE   N04
 BYTE   W06
 BYTE   Fn4
 BYTE   W06
 BYTE   N04
 BYTE   W06
 BYTE   Cn4
 BYTE   W06
 BYTE   N04
 BYTE   W06
 BYTE   Cn5
 BYTE   W06
 BYTE   N04
 BYTE   W06
 BYTE   Gn4
 BYTE   W06
 BYTE   N04
 BYTE   W06
 BYTE   Fn4
 BYTE   W06
 BYTE   N04
 BYTE   W06
 BYTE   Cn4
 BYTE   W06
 BYTE   N04
 BYTE   W06
 BYTE   PEND 
//  #05 //039   ----------------------------------------
Label_010296E5:
 BYTE   N04  Cn5  v112
 BYTE   W06
 BYTE   N04
 BYTE   W06
 BYTE   Gn4
 BYTE   W06
 BYTE   N04
 BYTE   W06
 BYTE   En4
 BYTE   W06
 BYTE   N04
 BYTE   W06
 BYTE   Cn4
 BYTE   W06
 BYTE   N04
 BYTE   W06
 BYTE   Cn5
 BYTE   W06
 BYTE   N04
 BYTE   W06
 BYTE   Gn4
 BYTE   W06
 BYTE   N04
 BYTE   W06
 BYTE   En4
 BYTE   W06
 BYTE   N04
 BYTE   W06
 BYTE   Cn4
 BYTE   W06
 BYTE   N04
 BYTE   W06
 BYTE   PEND 
//  #05 //040   ----------------------------------------
Label_01029708:
 BYTE   W12
 BYTE   N04  Ds5  v124
 BYTE   W06
 BYTE   N04
 BYTE   W06
 BYTE   Cs5  v100
 BYTE   W06
 BYTE   N04
 BYTE   W06
 BYTE   Cn5  v096
 BYTE   W06
 BYTE   N04
 BYTE   W06
 BYTE   As4  v100
 BYTE   W06
 BYTE   N04
 BYTE   W06
 BYTE   Gs4
 BYTE   W06
 BYTE   N04
 BYTE   W06
 BYTE   Gn4  v120
 BYTE   W06
 BYTE   N04
 BYTE   W06
 BYTE   Cn5
 BYTE   W06
 BYTE   N04
 BYTE   W06
 BYTE   PEND 
//  #05 //041   ----------------------------------------
Label_0102972C:
 BYTE   N04  Cn5  v052
 BYTE   W06
 BYTE   Cn5  v040
 BYTE   W06
 BYTE   Cn5  v032
 BYTE   W84
 BYTE   PEND 
//  #05 //042   ----------------------------------------
 BYTE   W96
//  #05 //043   ----------------------------------------
Label_01029738:
 BYTE   W36
 BYTE   N32  Gs3  v127
 BYTE   W36
 BYTE   N15  As3
 BYTE   W24
 BYTE   PEND 
//  #05 //044   ----------------------------------------
Label_01029741:
 BYTE   N04  Gs2  v120
 BYTE   W06
 BYTE   N04
 BYTE   W06
 BYTE   As2
 BYTE   W06
 BYTE   N04
 BYTE   W06
 BYTE   Cn3
 BYTE   W06
 BYTE   N04
 BYTE   W06
 BYTE   Dn3
 BYTE   W06
 BYTE   N04
 BYTE   W06
 BYTE   As2
 BYTE   W06
 BYTE   N04
 BYTE   W06
 BYTE   Cn3
 BYTE   W06
 BYTE   N04
 BYTE   W06
 BYTE   Dn3
 BYTE   W06
 BYTE   N04
 BYTE   W06
 BYTE   Ds3
 BYTE   W06
 BYTE   N04
 BYTE   W06
 BYTE   PEND 
//  #05 //045   ----------------------------------------
Label_01029764:
 BYTE   N04  Cn3  v120
 BYTE   W06
 BYTE   N04
 BYTE   W06
 BYTE   Dn3
 BYTE   W06
 BYTE   N04
 BYTE   W06
 BYTE   N12  Ds3
 BYTE   W12
 BYTE   N32  Fn3
 BYTE   W36
 BYTE   N15  Gn3
 BYTE   W24
 BYTE   PEND 
//  #05 //046   ----------------------------------------
Label_01029778:
 BYTE   N04  Fn3  v120
 BYTE   W06
 BYTE   N04
 BYTE   W06
 BYTE   Gn3
 BYTE   W06
 BYTE   N04
 BYTE   W06
 BYTE   Gs3
 BYTE   W06
 BYTE   N04
 BYTE   W06
 BYTE   As3
 BYTE   W06
 BYTE   N04
 BYTE   W06
 BYTE   Gn3
 BYTE   W06
 BYTE   N04
 BYTE   W06
 BYTE   Gs3
 BYTE   W06
 BYTE   N04
 BYTE   W06
 BYTE   As3
 BYTE   W06
 BYTE   N04
 BYTE   W06
 BYTE   Cn4
 BYTE   W06
 BYTE   N04
 BYTE   W06
 BYTE   PEND 
//  #05 //047   ----------------------------------------
Label_0102979B:
 BYTE   N04  Gs3  v120
 BYTE   W06
 BYTE   N04
 BYTE   W06
 BYTE   As3
 BYTE   W06
 BYTE   N04
 BYTE   W06
 BYTE   N12  Cn4
 BYTE   W12
 BYTE   N32  Dn4
 BYTE   W36
 BYTE   N15  Ds4
 BYTE   W24
 BYTE   PEND 
//  #05 //048   ----------------------------------------
Label_010297AF:
 BYTE   N04  Gs3  v120
 BYTE   W06
 BYTE   N04
 BYTE   W06
 BYTE   As3
 BYTE   W06
 BYTE   N04
 BYTE   W06
 BYTE   Cn4
 BYTE   W06
 BYTE   N04
 BYTE   W06
 BYTE   Dn4
 BYTE   W06
 BYTE   N04
 BYTE   W06
 BYTE   As3
 BYTE   W06
 BYTE   N04
 BYTE   W06
 BYTE   Cn4
 BYTE   W06
 BYTE   N04
 BYTE   W06
 BYTE   Dn4
 BYTE   W06
 BYTE   N04
 BYTE   W06
 BYTE   Ds4
 BYTE   W06
 BYTE   N04
 BYTE   W06
 BYTE   PEND 
//  #05 //049   ----------------------------------------
Label_010297D2:
 BYTE   N04  Cn4  v120
 BYTE   W06
 BYTE   N04
 BYTE   W06
 BYTE   Dn4
 BYTE   W06
 BYTE   N04
 BYTE   W06
 BYTE   N12  Ds4
 BYTE   W12
 BYTE   N32  Fn4
 BYTE   W36
 BYTE   N15  Ds5
 BYTE   W18
 BYTE   N05  Ds5  v060
 BYTE   W06
 BYTE   PEND 
//  #05 //050   ----------------------------------------
 BYTE   N12  Gs3  v100
 BYTE   N12  Fn4
 BYTE   W96
//  #05 //051   ----------------------------------------
 BYTE   W96
//  #05 //052   ----------------------------------------
 BYTE   GoTo
  POIN2 Label_01029597
//  #05 //053   ----------------------------------------
 BYTE   N12  Gs3  v100
 BYTE   N12  Fn4
 BYTE   W96
//  #05 //054   ----------------------------------------
 BYTE   W96
//  #05 //055   ----------------------------------------
 BYTE   Gs3
 BYTE   N12  Fn4
 BYTE   W96
//  #05 //056   ----------------------------------------
 BYTE   W96
//  #05 //057   ----------------------------------------
 BYTE   PATT
  POIN2 Label_010295A3
//  #05 //058   ----------------------------------------
 BYTE   PATT
  POIN2 Label_010295AB
//  #05 //059   ----------------------------------------
 BYTE   W96
//  #05 //060   ----------------------------------------
 BYTE   W96
//  #05 //061   ----------------------------------------
 BYTE   W96
//  #05 //062   ----------------------------------------
 BYTE   W96
//  #05 //063   ----------------------------------------
 BYTE   W96
//  #05 //064   ----------------------------------------
 BYTE   W96
//  #05 //065   ----------------------------------------
 BYTE   W96
//  #05 //066   ----------------------------------------
 BYTE   W96
//  #05 //067   ----------------------------------------
 BYTE   W96
//  #05 //068   ----------------------------------------
 BYTE   PATT
  POIN2 Label_010295C1
//  #05 //069   ----------------------------------------
 BYTE   PATT
  POIN2 Label_010295CC
//  #05 //070   ----------------------------------------
 BYTE   N92  Gs4  v112
 BYTE   W96
//  #05 //071   ----------------------------------------
 BYTE   PATT
  POIN2 Label_010295DA
//  #05 //072   ----------------------------------------
 BYTE   PATT
  POIN2 Label_010295E9
//  #05 //073   ----------------------------------------
 BYTE   PATT
  POIN2 Label_010295FA
//  #05 //074   ----------------------------------------
 BYTE   PATT
  POIN2 Label_01029609
//  #05 //075   ----------------------------------------
 BYTE   TIE  Fn3  v100
 BYTE   W96
//  #05 //076   ----------------------------------------
 BYTE   W92
 BYTE   W03
 BYTE   EOT
 BYTE   W01
//  #05 //077   ----------------------------------------
 BYTE   TIE  Gn3
 BYTE   W96
//  #05 //078   ----------------------------------------
 BYTE   W92
 BYTE   W03
 BYTE   EOT
 BYTE   W01
//  #05 //079   ----------------------------------------
 BYTE   N92  Fn3
 BYTE   W96
//  #05 //080   ----------------------------------------
 BYTE   Cn4
 BYTE   W96
//  #05 //081   ----------------------------------------
 BYTE   PATT
  POIN2 Label_0102962B
//  #05 //082   ----------------------------------------
 BYTE   PATT
  POIN2 Label_01029632
//  #05 //083   ----------------------------------------
 BYTE   PATT
  POIN2 Label_01029647
//  #05 //084   ----------------------------------------
 BYTE   PATT
  POIN2 Label_01029652
//  #05 //085   ----------------------------------------
 BYTE   PATT
  POIN2 Label_01029660
//  #05 //086   ----------------------------------------
 BYTE   PATT
  POIN2 Label_0102966E
//  #05 //087   ----------------------------------------
 BYTE   PATT
  POIN2 Label_0102967C
//  #05 //088   ----------------------------------------
 BYTE   PATT
  POIN2 Label_0102969F
//  #05 //089   ----------------------------------------
 BYTE   PATT
  POIN2 Label_010296C2
//  #05 //090   ----------------------------------------
 BYTE   PATT
  POIN2 Label_010296E5
//  #05 //091   ----------------------------------------
 BYTE   PATT
  POIN2 Label_01029708
//  #05 //092   ----------------------------------------
 BYTE   PATT
  POIN2 Label_0102972C
//  #05 //093   ----------------------------------------
 BYTE   W96
//  #05 //094   ----------------------------------------
 BYTE   PATT
  POIN2 Label_01029738
//  #05 //095   ----------------------------------------
 BYTE   PATT
  POIN2 Label_01029741
//  #05 //096   ----------------------------------------
 BYTE   PATT
  POIN2 Label_01029764
//  #05 //097   ----------------------------------------
 BYTE   PATT
  POIN2 Label_01029778
//  #05 //098   ----------------------------------------
 BYTE   PATT
  POIN2 Label_0102979B
//  #05 //099   ----------------------------------------
 BYTE   PATT
  POIN2 Label_010297AF
//  #05 //100   ----------------------------------------
 BYTE   PATT
  POIN2 Label_010297D2
//  #05 //101   ----------------------------------------
 BYTE   W96
//  #05 //102   ----------------------------------------
 BYTE   W96
//  #05 //103   ----------------------------------------
 BYTE   W96
//  #05 //104   ----------------------------------------
 BYTE   W96
//  #05 //105   ----------------------------------------
 BYTE   W15
 BYTE   FINE

//**************** Track 6 (Midi-Chn.5) ****************//

AceAttorney2WantingtoFindtheTruthSurfingKyogre_006:
//  #06 //000   ----------------------------------------
 BYTE   KEYSH   AceAttorney2WantingtoFindtheTruthSurfingKyogre_key+0
 BYTE   VOICE   40
 BYTE   PAN   c_v-20
 BYTE   VOL   32*AceAttorney2WantingtoFindtheTruthSurfingKyogre_mvl/mxv
 BYTE   W96
//  #06 //001   ----------------------------------------
 BYTE   W96
//  #06 //002   ----------------------------------------
Label_0102A306:
 BYTE   W96
//  #06 //003   ----------------------------------------
 BYTE   W96
//  #06 //004   ----------------------------------------
 BYTE   W96
//  #06 //005   ----------------------------------------
 BYTE   W96
//  #06 //006   ----------------------------------------
 BYTE   W96
//  #06 //007   ----------------------------------------
 BYTE   W96
//  #06 //008   ----------------------------------------
 BYTE   W96
//  #06 //009   ----------------------------------------
 BYTE   W96
//  #06 //010   ----------------------------------------
 BYTE   W96
//  #06 //011   ----------------------------------------
 BYTE   W96
//  #06 //012   ----------------------------------------
 BYTE   W96
//  #06 //013   ----------------------------------------
 BYTE   W96
//  #06 //014   ----------------------------------------
 BYTE   W96
//  #06 //015   ----------------------------------------
 BYTE   W96
//  #06 //016   ----------------------------------------
 BYTE   W96
//  #06 //017   ----------------------------------------
Label_0102A315:
 BYTE   N32  Cn5  v112
 BYTE   W36
 BYTE   N23  As4
 BYTE   W24
 BYTE   N32  Gn4
 BYTE   W36
 BYTE   PEND 
//  #06 //018   ----------------------------------------
Label_0102A320:
 BYTE   N32  Gs4  v112
 BYTE   W36
 BYTE   N23  Gn4
 BYTE   W24
 BYTE   N32  Ds4
 BYTE   W36
 BYTE   PEND 
//  #06 //019   ----------------------------------------
 BYTE   N92  Fn4
 BYTE   W96
//  #06 //020   ----------------------------------------
Label_0102A32E:
 BYTE   N32  Gn4  v112
 BYTE   W36
 BYTE   N17  Ds4
 BYTE   W24
 BYTE   N11
 BYTE   W12
 BYTE   Fn4
 BYTE   W12
 BYTE   N23  Gn4
 BYTE   W12
 BYTE   PEND 
//  #06 //021   ----------------------------------------
Label_0102A33D:
 BYTE   W12
 BYTE   N11  Gs4  v112
 BYTE   W12
 BYTE   Gn4
 BYTE   W12
 BYTE   N23  Fn4
 BYTE   W24
 BYTE   N11  Ds4
 BYTE   W12
 BYTE   N23  Fn4
 BYTE   W24
 BYTE   PEND 
//  #06 //022   ----------------------------------------
Label_0102A34E:
 BYTE   N17  Gs3  v112
 BYTE   W24
 BYTE   Fn4
 BYTE   W24
 BYTE   Ds4
 BYTE   W24
 BYTE   N11  Gn4
 BYTE   W12
 BYTE   N12  Gs4
 BYTE   W12
 BYTE   PEND 
//  #06 //023   ----------------------------------------
Label_0102A35D:
 BYTE   W12
 BYTE   N12  Gs2  v100
 BYTE   W12
 BYTE   As2
 BYTE   W12
 BYTE   N11  Cn3
 BYTE   W24
 BYTE   N32  Gs2  v112
 BYTE   W36
 BYTE   PEND 
//  #06 //024   ----------------------------------------
 BYTE   TIE  Cn3  v100
 BYTE   W96
//  #06 //025   ----------------------------------------
 BYTE   W92
 BYTE   W03
 BYTE   EOT
 BYTE   W01
//  #06 //026   ----------------------------------------
 BYTE   TIE  Ds3
 BYTE   W96
//  #06 //027   ----------------------------------------
 BYTE   W92
 BYTE   W03
 BYTE   EOT
 BYTE   W01
//  #06 //028   ----------------------------------------
 BYTE   TIE  Cs3
 BYTE   W96
//  #06 //029   ----------------------------------------
 BYTE   W92
 BYTE   W03
 BYTE   EOT
 BYTE   W01
//  #06 //030   ----------------------------------------
Label_0102A382:
 BYTE   N44  Cn3  v100
 BYTE   W48
 BYTE   Ds3
 BYTE   W48
 BYTE   PEND 
//  #06 //031   ----------------------------------------
Label_0102A389:
 BYTE   N44  Cn4  v100
 BYTE   W54
 BYTE   N05  Cn3  v112
 BYTE   W06
 BYTE   Dn3
 BYTE   W06
 BYTE   Ds3
 BYTE   W06
 BYTE   Fn3
 BYTE   W06
 BYTE   Gn3
 BYTE   W06
 BYTE   Gs3
 BYTE   W06
 BYTE   As3
 BYTE   W06
 BYTE   PEND 
//  #06 //032   ----------------------------------------
Label_0102A39E:
 BYTE   N36  Cn4  v112
 BYTE   W36
 BYTE   N07  As3
 BYTE   W36
 BYTE   N32  Cn4
 BYTE   W24
 BYTE   PEND 
//  #06 //033   ----------------------------------------
Label_0102A3A9:
 BYTE   W12
 BYTE   N07  As3  v112
 BYTE   W24
 BYTE   N10
 BYTE   W12
 BYTE   N23  Cn4
 BYTE   W24
 BYTE   N18  As3
 BYTE   W24
 BYTE   PEND 
//  #06 //034   ----------------------------------------
Label_0102A3B7:
 BYTE   N32  As3  v112
 BYTE   W36
 BYTE   N23  Gs3
 BYTE   W24
 BYTE   N11  Gn3
 BYTE   W12
 BYTE   N23  Gs3
 BYTE   W24
 BYTE   PEND 
//  #06 //035   ----------------------------------------
Label_0102A3C5:
 BYTE   N32  Fn3  v112
 BYTE   W36
 BYTE   N23  Gn3
 BYTE   W24
 BYTE   N11  Gs3
 BYTE   W12
 BYTE   N23  As3
 BYTE   W24
 BYTE   PEND 
//  #06 //036   ----------------------------------------
Label_0102A3D3:
 BYTE   N04  Gs4  v112
 BYTE   W06
 BYTE   N04
 BYTE   W06
 BYTE   Fn4
 BYTE   W06
 BYTE   N04
 BYTE   W06
 BYTE   Cn4
 BYTE   W06
 BYTE   N04
 BYTE   W06
 BYTE   Gs3
 BYTE   W06
 BYTE   N04
 BYTE   W06
 BYTE   Gs4
 BYTE   W06
 BYTE   N04
 BYTE   W06
 BYTE   Fn4
 BYTE   W06
 BYTE   N04
 BYTE   W06
 BYTE   Cn4
 BYTE   W06
 BYTE   N04
 BYTE   W06
 BYTE   Gs3
 BYTE   W06
 BYTE   N04
 BYTE   W06
 BYTE   PEND 
//  #06 //037   ----------------------------------------
 BYTE   PATT
  POIN2 Label_0102A3D3
//  #06 //038   ----------------------------------------
Label_0102A3FB:
 BYTE   N04  Gn4  v112
 BYTE   W06
 BYTE   N04
 BYTE   W06
 BYTE   Fn4
 BYTE   W06
 BYTE   N04
 BYTE   W06
 BYTE   Cn4
 BYTE   W06
 BYTE   N04
 BYTE   W06
 BYTE   Gn3
 BYTE   W06
 BYTE   N04
 BYTE   W06
 BYTE   Gn4
 BYTE   W06
 BYTE   N04
 BYTE   W06
 BYTE   Fn4
 BYTE   W06
 BYTE   N04
 BYTE   W06
 BYTE   Cn4
 BYTE   W06
 BYTE   N04
 BYTE   W06
 BYTE   Gn3
 BYTE   W06
 BYTE   N04
 BYTE   W06
 BYTE   PEND 
//  #06 //039   ----------------------------------------
Label_0102A41E:
 BYTE   N04  Gn4  v112
 BYTE   W06
 BYTE   N04
 BYTE   W06
 BYTE   En4
 BYTE   W06
 BYTE   N04
 BYTE   W06
 BYTE   Cn4
 BYTE   W06
 BYTE   N04
 BYTE   W06
 BYTE   Gn3
 BYTE   W06
 BYTE   N04
 BYTE   W06
 BYTE   Gn4
 BYTE   W06
 BYTE   N04
 BYTE   W06
 BYTE   En4
 BYTE   W06
 BYTE   N04
 BYTE   W06
 BYTE   Cn4
 BYTE   W06
 BYTE   N04
 BYTE   W06
 BYTE   Gn3
 BYTE   W06
 BYTE   N04
 BYTE   W06
 BYTE   PEND 
//  #06 //040   ----------------------------------------
Label_0102A441:
 BYTE   W12
 BYTE   N04  Ds4  v124
 BYTE   W06
 BYTE   N04
 BYTE   W06
 BYTE   Cs4  v100
 BYTE   W06
 BYTE   N04
 BYTE   W06
 BYTE   Cn4
 BYTE   W06
 BYTE   N04
 BYTE   W06
 BYTE   As3
 BYTE   W06
 BYTE   N04
 BYTE   W06
 BYTE   Gs3
 BYTE   W06
 BYTE   N04
 BYTE   W06
 BYTE   Gn3  v120
 BYTE   W06
 BYTE   N04
 BYTE   W06
 BYTE   Cn4
 BYTE   W06
 BYTE   N04
 BYTE   W06
 BYTE   PEND 
//  #06 //041   ----------------------------------------
Label_0102A463:
 BYTE   N04  Cn4  v052
 BYTE   W06
 BYTE   Cn4  v040
 BYTE   W06
 BYTE   Cn4  v032
 BYTE   W84
 BYTE   PEND 
//  #06 //042   ----------------------------------------
 BYTE   W96
//  #06 //043   ----------------------------------------
Label_0102A46F:
 BYTE   W36
 BYTE   N32  Fn3  v120
 BYTE   W36
 BYTE   N15  Gn3  v127
 BYTE   W24
 BYTE   PEND 
//  #06 //044   ----------------------------------------
Label_0102A479:
 BYTE   N04  Fn2  v120
 BYTE   W06
 BYTE   N04
 BYTE   W06
 BYTE   Gn2
 BYTE   W06
 BYTE   N04
 BYTE   W06
 BYTE   Gs2
 BYTE   W06
 BYTE   N04
 BYTE   W06
 BYTE   As2
 BYTE   W06
 BYTE   N04
 BYTE   W06
 BYTE   Gn2
 BYTE   W06
 BYTE   N04
 BYTE   W06
 BYTE   Gs2
 BYTE   W06
 BYTE   N04
 BYTE   W06
 BYTE   As2
 BYTE   W06
 BYTE   N04
 BYTE   W06
 BYTE   Cn3
 BYTE   W06
 BYTE   N04
 BYTE   W06
 BYTE   PEND 
//  #06 //045   ----------------------------------------
Label_0102A49C:
 BYTE   N04  Gs2  v120
 BYTE   W06
 BYTE   N04
 BYTE   W06
 BYTE   As2
 BYTE   W06
 BYTE   N04
 BYTE   W06
 BYTE   N11  Cn3
 BYTE   W12
 BYTE   N32  Dn3
 BYTE   W36
 BYTE   N15  Ds3
 BYTE   W24
 BYTE   PEND 
//  #06 //046   ----------------------------------------
Label_0102A4B0:
 BYTE   N04  Gs2  v120
 BYTE   W06
 BYTE   N04
 BYTE   W06
 BYTE   As2
 BYTE   W06
 BYTE   N04
 BYTE   W06
 BYTE   Cn3
 BYTE   W06
 BYTE   N04
 BYTE   W06
 BYTE   Dn3
 BYTE   W06
 BYTE   N04
 BYTE   W06
 BYTE   As2
 BYTE   W06
 BYTE   N04
 BYTE   W06
 BYTE   Cn3
 BYTE   W06
 BYTE   N04
 BYTE   W06
 BYTE   Dn3
 BYTE   W06
 BYTE   N04
 BYTE   W06
 BYTE   Ds3
 BYTE   W06
 BYTE   N04
 BYTE   W06
 BYTE   PEND 
//  #06 //047   ----------------------------------------
Label_0102A4D3:
 BYTE   N04  Cn3  v120
 BYTE   W06
 BYTE   N04
 BYTE   W06
 BYTE   Dn3
 BYTE   W06
 BYTE   N04
 BYTE   W06
 BYTE   N12  Ds3
 BYTE   W12
 BYTE   N32  Fn3
 BYTE   W36
 BYTE   N15  Gn3
 BYTE   W24
 BYTE   PEND 
//  #06 //048   ----------------------------------------
Label_0102A4E7:
 BYTE   N04  Fn3  v120
 BYTE   W06
 BYTE   N04
 BYTE   W06
 BYTE   Gn3
 BYTE   W06
 BYTE   N04
 BYTE   W06
 BYTE   Gs3
 BYTE   W06
 BYTE   N04
 BYTE   W06
 BYTE   As3
 BYTE   W06
 BYTE   N04
 BYTE   W06
 BYTE   Gn3
 BYTE   W06
 BYTE   N04
 BYTE   W06
 BYTE   Gs3
 BYTE   W06
 BYTE   N04
 BYTE   W06
 BYTE   As3
 BYTE   W06
 BYTE   N04
 BYTE   W06
 BYTE   Cn4
 BYTE   W06
 BYTE   N04
 BYTE   W06
 BYTE   PEND 
//  #06 //049   ----------------------------------------
Label_0102A50A:
 BYTE   N04  Gs3  v120
 BYTE   W06
 BYTE   N04
 BYTE   W06
 BYTE   As3
 BYTE   W06
 BYTE   N04
 BYTE   W06
 BYTE   N12  Cn4
 BYTE   W12
 BYTE   N32  Dn4
 BYTE   W36
 BYTE   N15  Ds4
 BYTE   W18
 BYTE   N05  Ds4  v060
 BYTE   W06
 BYTE   PEND 
//  #06 //050   ----------------------------------------
 BYTE   W96
//  #06 //051   ----------------------------------------
 BYTE   W96
//  #06 //052   ----------------------------------------
 BYTE   GoTo
  POIN2 Label_0102A306
//  #06 //053   ----------------------------------------
 BYTE   W96
//  #06 //054   ----------------------------------------
 BYTE   W96
//  #06 //055   ----------------------------------------
 BYTE   W96
//  #06 //056   ----------------------------------------
 BYTE   W96
//  #06 //057   ----------------------------------------
 BYTE   W96
//  #06 //058   ----------------------------------------
 BYTE   W96
//  #06 //059   ----------------------------------------
 BYTE   W96
//  #06 //060   ----------------------------------------
 BYTE   W96
//  #06 //061   ----------------------------------------
 BYTE   W96
//  #06 //062   ----------------------------------------
 BYTE   W96
//  #06 //063   ----------------------------------------
 BYTE   W96
//  #06 //064   ----------------------------------------
 BYTE   W96
//  #06 //065   ----------------------------------------
 BYTE   W96
//  #06 //066   ----------------------------------------
 BYTE   W96
//  #06 //067   ----------------------------------------
 BYTE   W96
//  #06 //068   ----------------------------------------
 BYTE   PATT
  POIN2 Label_0102A315
//  #06 //069   ----------------------------------------
 BYTE   PATT
  POIN2 Label_0102A320
//  #06 //070   ----------------------------------------
 BYTE   N92  Fn4  v112
 BYTE   W96
//  #06 //071   ----------------------------------------
 BYTE   PATT
  POIN2 Label_0102A32E
//  #06 //072   ----------------------------------------
 BYTE   PATT
  POIN2 Label_0102A33D
//  #06 //073   ----------------------------------------
 BYTE   PATT
  POIN2 Label_0102A34E
//  #06 //074   ----------------------------------------
 BYTE   PATT
  POIN2 Label_0102A35D
//  #06 //075   ----------------------------------------
 BYTE   TIE  Cn3  v100
 BYTE   W96
//  #06 //076   ----------------------------------------
 BYTE   W92
 BYTE   W03
 BYTE   EOT
 BYTE   W01
//  #06 //077   ----------------------------------------
 BYTE   TIE  Ds3
 BYTE   W96
//  #06 //078   ----------------------------------------
 BYTE   W92
 BYTE   W03
 BYTE   EOT
 BYTE   W01
//  #06 //079   ----------------------------------------
 BYTE   TIE  Cs3
 BYTE   W96
//  #06 //080   ----------------------------------------
 BYTE   W92
 BYTE   W03
 BYTE   EOT
 BYTE   W01
//  #06 //081   ----------------------------------------
 BYTE   PATT
  POIN2 Label_0102A382
//  #06 //082   ----------------------------------------
 BYTE   PATT
  POIN2 Label_0102A389
//  #06 //083   ----------------------------------------
 BYTE   PATT
  POIN2 Label_0102A39E
//  #06 //084   ----------------------------------------
 BYTE   PATT
  POIN2 Label_0102A3A9
//  #06 //085   ----------------------------------------
 BYTE   PATT
  POIN2 Label_0102A3B7
//  #06 //086   ----------------------------------------
 BYTE   PATT
  POIN2 Label_0102A3C5
//  #06 //087   ----------------------------------------
 BYTE   PATT
  POIN2 Label_0102A3D3
//  #06 //088   ----------------------------------------
 BYTE   PATT
  POIN2 Label_0102A3D3
//  #06 //089   ----------------------------------------
 BYTE   PATT
  POIN2 Label_0102A3FB
//  #06 //090   ----------------------------------------
 BYTE   PATT
  POIN2 Label_0102A41E
//  #06 //091   ----------------------------------------
 BYTE   PATT
  POIN2 Label_0102A441
//  #06 //092   ----------------------------------------
 BYTE   PATT
  POIN2 Label_0102A463
//  #06 //093   ----------------------------------------
 BYTE   W96
//  #06 //094   ----------------------------------------
 BYTE   PATT
  POIN2 Label_0102A46F
//  #06 //095   ----------------------------------------
 BYTE   PATT
  POIN2 Label_0102A479
//  #06 //096   ----------------------------------------
 BYTE   PATT
  POIN2 Label_0102A49C
//  #06 //097   ----------------------------------------
 BYTE   PATT
  POIN2 Label_0102A4B0
//  #06 //098   ----------------------------------------
 BYTE   PATT
  POIN2 Label_0102A4D3
//  #06 //099   ----------------------------------------
 BYTE   PATT
  POIN2 Label_0102A4E7
//  #06 //100   ----------------------------------------
 BYTE   PATT
  POIN2 Label_0102A50A
//  #06 //101   ----------------------------------------
 BYTE   W96
//  #06 //102   ----------------------------------------
 BYTE   W96
//  #06 //103   ----------------------------------------
 BYTE   W96
//  #06 //104   ----------------------------------------
 BYTE   W96
//  #06 //105   ----------------------------------------
 BYTE   W15
 BYTE   FINE

//**************** Track 7 (Midi-Chn.6) ****************//

AceAttorney2WantingtoFindtheTruthSurfingKyogre_007:
//  #07 //000   ----------------------------------------
 BYTE   KEYSH   AceAttorney2WantingtoFindtheTruthSurfingKyogre_key+0
 BYTE   VOICE   40
 BYTE   PAN   c_v+20
 BYTE   VOL   32*AceAttorney2WantingtoFindtheTruthSurfingKyogre_mvl/mxv
 BYTE   W96
//  #07 //001   ----------------------------------------
 BYTE   W96
//  #07 //002   ----------------------------------------
Label_0102A5E2:
 BYTE   W96
//  #07 //003   ----------------------------------------
 BYTE   W96
//  #07 //004   ----------------------------------------
 BYTE   W96
//  #07 //005   ----------------------------------------
 BYTE   W96
//  #07 //006   ----------------------------------------
 BYTE   W96
//  #07 //007   ----------------------------------------
 BYTE   W96
//  #07 //008   ----------------------------------------
Label_0102A5E8:
 BYTE   N32  Gs4  v112
 BYTE   W36
 BYTE   N23  Gn4
 BYTE   W24
 BYTE   N32  Ds4
 BYTE   W36
 BYTE   PEND 
//  #07 //009   ----------------------------------------
Label_0102A5F3:
 BYTE   N68  Cn4  v112
 BYTE   W72
 BYTE   N11  As3
 BYTE   W12
 BYTE   Ds4
 BYTE   W12
 BYTE   PEND 
//  #07 //010   ----------------------------------------
 BYTE   TIE  Cn4
 BYTE   W96
//  #07 //011   ----------------------------------------
 BYTE   W11
 BYTE   EOT
 BYTE   W24
 BYTE   W01
 BYTE   N32  Fn3
 BYTE   W36
 BYTE   N23  Cn4
 BYTE   W24
//  #07 //012   ----------------------------------------
Label_0102A60A:
 BYTE   N32  As3  v112
 BYTE   W36
 BYTE   Ds4
 BYTE   W36
 BYTE   N44  Gn3
 BYTE   W24
 BYTE   PEND 
//  #07 //013   ----------------------------------------
Label_0102A614:
 BYTE   W24
 BYTE   N23  Gs3  v112
 BYTE   W24
 BYTE   As3
 BYTE   W24
 BYTE   N17  Cn4
 BYTE   W24
 BYTE   PEND 
//  #07 //014   ----------------------------------------
 BYTE   N88
 BYTE   W96
//  #07 //015   ----------------------------------------
Label_0102A621:
 BYTE   N32  Cn4  v112
 BYTE   W36
 BYTE   Ds4
 BYTE   W36
 BYTE   N23  Cn4
 BYTE   W24
 BYTE   PEND 
//  #07 //016   ----------------------------------------
 BYTE   PATT
  POIN2 Label_0102A5E8
//  #07 //017   ----------------------------------------
 BYTE   PATT
  POIN2 Label_0102A5F3
//  #07 //018   ----------------------------------------
 BYTE   TIE  Cn4  v112
 BYTE   W96
//  #07 //019   ----------------------------------------
 BYTE   W11
 BYTE   EOT
 BYTE   W13
 BYTE   N23  Cn3
 BYTE   W24
 BYTE   Fn3
 BYTE   W24
 BYTE   Cn4
 BYTE   W24
//  #07 //020   ----------------------------------------
Label_0102A643:
 BYTE   N32  Ds4  v112
 BYTE   W36
 BYTE   N17  Gn3
 BYTE   W24
 BYTE   N11
 BYTE   W12
 BYTE   Gs3
 BYTE   W12
 BYTE   N23  As3
 BYTE   W12
 BYTE   PEND 
//  #07 //021   ----------------------------------------
Label_0102A652:
 BYTE   W12
 BYTE   N11  Cn4  v112
 BYTE   W12
 BYTE   As3
 BYTE   W12
 BYTE   N23  Gs3
 BYTE   W24
 BYTE   N11  Gn3
 BYTE   W12
 BYTE   N23  Gs3
 BYTE   W24
 BYTE   PEND 
//  #07 //022   ----------------------------------------
Label_0102A663:
 BYTE   N23  Cs3  v112
 BYTE   W24
 BYTE   Gs3
 BYTE   W24
 BYTE   Gn3
 BYTE   W24
 BYTE   N11  As3
 BYTE   W12
 BYTE   N12  Cn4
 BYTE   W12
 BYTE   PEND 
//  #07 //023   ----------------------------------------
Label_0102A672:
 BYTE   W12
 BYTE   N11  Fn2  v100
 BYTE   W12
 BYTE   Gn2
 BYTE   W12
 BYTE   Gs2
 BYTE   W24
 BYTE   N32  Fn2  v112
 BYTE   W36
 BYTE   PEND 
//  #07 //024   ----------------------------------------
 BYTE   TIE  Gs2  v100
 BYTE   W96
//  #07 //025   ----------------------------------------
 BYTE   W92
 BYTE   W03
 BYTE   EOT
 BYTE   W01
//  #07 //026   ----------------------------------------
 BYTE   TIE  As2
 BYTE   W96
//  #07 //027   ----------------------------------------
 BYTE   W92
 BYTE   W03
 BYTE   EOT
 BYTE   W01
//  #07 //028   ----------------------------------------
 BYTE   TIE  Gs2
 BYTE   W96
//  #07 //029   ----------------------------------------
 BYTE   W92
 BYTE   W03
 BYTE   EOT
 BYTE   W01
//  #07 //030   ----------------------------------------
Label_0102A696:
 BYTE   N44  Ds2  v100
 BYTE   W48
 BYTE   Cn3
 BYTE   W48
 BYTE   PEND 
//  #07 //031   ----------------------------------------
 BYTE   N92  Gn3
 BYTE   W96
//  #07 //032   ----------------------------------------
Label_0102A6A0:
 BYTE   N30  Fn3  v100
 BYTE   W36
 BYTE   N09  Fn3  v120
 BYTE   W36
 BYTE   N30
 BYTE   W24
 BYTE   PEND 
//  #07 //033   ----------------------------------------
Label_0102A6AB:
 BYTE   W12
 BYTE   N09  Fn3  v112
 BYTE   W36
 BYTE   N13  Fn3  v100
 BYTE   W24
 BYTE   N15  Fn3  v120
 BYTE   W24
 BYTE   PEND 
//  #07 //034   ----------------------------------------
 BYTE   N92  Ds3  v096
 BYTE   W96
//  #07 //035   ----------------------------------------
 BYTE   Cn3
 BYTE   W96
//  #07 //036   ----------------------------------------
Label_0102A6BF:
 BYTE   N08  Dn3  v072
 BYTE   W24
 BYTE   Dn3  v064
 BYTE   W24
 BYTE   N08
 BYTE   W24
 BYTE   N09
 BYTE   W24
 BYTE   PEND 
//  #07 //037   ----------------------------------------
Label_0102A6CB:
 BYTE   N09  Dn3  v096
 BYTE   W24
 BYTE   Dn3  v064
 BYTE   W24
 BYTE   N08  Dn3  v072
 BYTE   W24
 BYTE   N07  Dn3  v096
 BYTE   W24
 BYTE   PEND 
//  #07 //038   ----------------------------------------
Label_0102A6DB:
 BYTE   N09  Fn3  v072
 BYTE   W24
 BYTE   Fn3  v044
 BYTE   W24
 BYTE   Fn3  v084
 BYTE   W24
 BYTE   N08
 BYTE   W24
 BYTE   PEND 
//  #07 //039   ----------------------------------------
Label_0102A6E8:
 BYTE   N08  En3  v120
 BYTE   W24
 BYTE   En3  v092
 BYTE   W24
 BYTE   N07
 BYTE   W24
 BYTE   N08  En3  v100
 BYTE   W24
 BYTE   PEND 
//  #07 //040   ----------------------------------------
Label_0102A6F6:
 BYTE   W12
 BYTE   N04  Ds3  v092
 BYTE   W06
 BYTE   N04
 BYTE   W06
 BYTE   Cs3
 BYTE   W06
 BYTE   N04
 BYTE   W06
 BYTE   Cn3
 BYTE   W06
 BYTE   N04
 BYTE   W06
 BYTE   As2
 BYTE   W06
 BYTE   N04
 BYTE   W06
 BYTE   Gs2
 BYTE   W06
 BYTE   N04
 BYTE   W06
 BYTE   Gn2
 BYTE   W06
 BYTE   N04
 BYTE   W06
 BYTE   Cn3
 BYTE   W06
 BYTE   N04
 BYTE   W06
 BYTE   PEND 
//  #07 //041   ----------------------------------------
Label_0102A716:
 BYTE   W12
 BYTE   N11  Cn3  v120
 BYTE   W12
 BYTE   N08  As2  v116
 BYTE   W12
 BYTE   N11  Cn3  v112
 BYTE   W12
 BYTE   N10  Gs2  v120
 BYTE   W12
 BYTE   N11  Cn3
 BYTE   W12
 BYTE   N09  Gn2  v116
 BYTE   W12
 BYTE   N08  Cn3  v120
 BYTE   W12
 BYTE   PEND 
//  #07 //042   ----------------------------------------
Label_0102A733:
 BYTE   N04  Fn2  v120
 BYTE   W06
 BYTE   N04
 BYTE   W06
 BYTE   Gn2
 BYTE   W06
 BYTE   N04
 BYTE   W06
 BYTE   Gs2
 BYTE   W06
 BYTE   N04
 BYTE   W06
 BYTE   As2
 BYTE   W06
 BYTE   N04
 BYTE   W06
 BYTE   Gn2
 BYTE   W06
 BYTE   N04
 BYTE   W06
 BYTE   Gs2
 BYTE   W06
 BYTE   N04
 BYTE   W06
 BYTE   As2
 BYTE   W06
 BYTE   N04
 BYTE   W06
 BYTE   Cn3
 BYTE   W06
 BYTE   N04
 BYTE   W06
 BYTE   PEND 
//  #07 //043   ----------------------------------------
Label_0102A756:
 BYTE   N04  Gs2  v120
 BYTE   W06
 BYTE   N04
 BYTE   W06
 BYTE   As2
 BYTE   W06
 BYTE   N04
 BYTE   W06
 BYTE   N11  Cn3
 BYTE   W12
 BYTE   N32  Dn3
 BYTE   W36
 BYTE   N15  Ds3
 BYTE   W24
 BYTE   PEND 
//  #07 //044   ----------------------------------------
 BYTE   PATT
  POIN2 Label_0102A733
//  #07 //045   ----------------------------------------
 BYTE   PATT
  POIN2 Label_0102A756
//  #07 //046   ----------------------------------------
 BYTE   PATT
  POIN2 Label_0102A733
//  #07 //047   ----------------------------------------
 BYTE   PATT
  POIN2 Label_0102A756
//  #07 //048   ----------------------------------------
Label_0102A77E:
 BYTE   N04  Gs2  v120
 BYTE   W06
 BYTE   N04
 BYTE   W06
 BYTE   As2
 BYTE   W06
 BYTE   N04
 BYTE   W06
 BYTE   Cn3
 BYTE   W06
 BYTE   N04
 BYTE   W06
 BYTE   Dn3
 BYTE   W06
 BYTE   N04
 BYTE   W06
 BYTE   As2
 BYTE   W06
 BYTE   N04
 BYTE   W06
 BYTE   Cn3
 BYTE   W06
 BYTE   N04
 BYTE   W06
 BYTE   Dn3
 BYTE   W06
 BYTE   N04
 BYTE   W06
 BYTE   Ds3
 BYTE   W06
 BYTE   N04
 BYTE   W06
 BYTE   PEND 
//  #07 //049   ----------------------------------------
Label_0102A7A1:
 BYTE   N04  Cn3  v120
 BYTE   W06
 BYTE   N04
 BYTE   W06
 BYTE   Dn3
 BYTE   W06
 BYTE   N04
 BYTE   W06
 BYTE   N11  Ds3
 BYTE   W12
 BYTE   N32  Fn3
 BYTE   W36
 BYTE   N15  Ds4
 BYTE   W18
 BYTE   N05  Ds4  v060
 BYTE   W06
 BYTE   PEND 
//  #07 //050   ----------------------------------------
 BYTE   W96
//  #07 //051   ----------------------------------------
 BYTE   W96
//  #07 //052   ----------------------------------------
 BYTE   GoTo
  POIN2 Label_0102A5E2
//  #07 //053   ----------------------------------------
 BYTE   W96
//  #07 //054   ----------------------------------------
 BYTE   W96
//  #07 //055   ----------------------------------------
 BYTE   W96
//  #07 //056   ----------------------------------------
 BYTE   W96
//  #07 //057   ----------------------------------------
 BYTE   W96
//  #07 //058   ----------------------------------------
 BYTE   W96
//  #07 //059   ----------------------------------------
 BYTE   PATT
  POIN2 Label_0102A5E8
//  #07 //060   ----------------------------------------
 BYTE   PATT
  POIN2 Label_0102A5F3
//  #07 //061   ----------------------------------------
 BYTE   TIE  Cn4  v112
 BYTE   W96
//  #07 //062   ----------------------------------------
 BYTE   W11
 BYTE   EOT
 BYTE   W24
 BYTE   W01
 BYTE   N32  Fn3
 BYTE   W36
 BYTE   N23  Cn4
 BYTE   W24
//  #07 //063   ----------------------------------------
 BYTE   PATT
  POIN2 Label_0102A60A
//  #07 //064   ----------------------------------------
 BYTE   PATT
  POIN2 Label_0102A614
//  #07 //065   ----------------------------------------
 BYTE   N88  Cn4  v112
 BYTE   W96
//  #07 //066   ----------------------------------------
 BYTE   PATT
  POIN2 Label_0102A621
//  #07 //067   ----------------------------------------
 BYTE   PATT
  POIN2 Label_0102A5E8
//  #07 //068   ----------------------------------------
 BYTE   PATT
  POIN2 Label_0102A5F3
//  #07 //069   ----------------------------------------
 BYTE   TIE  Cn4  v112
 BYTE   W96
//  #07 //070   ----------------------------------------
 BYTE   W11
 BYTE   EOT
 BYTE   W13
 BYTE   N23  Cn3
 BYTE   W24
 BYTE   Fn3
 BYTE   W24
 BYTE   Cn4
 BYTE   W24
//  #07 //071   ----------------------------------------
 BYTE   PATT
  POIN2 Label_0102A643
//  #07 //072   ----------------------------------------
 BYTE   PATT
  POIN2 Label_0102A652
//  #07 //073   ----------------------------------------
 BYTE   PATT
  POIN2 Label_0102A663
//  #07 //074   ----------------------------------------
 BYTE   PATT
  POIN2 Label_0102A672
//  #07 //075   ----------------------------------------
 BYTE   TIE  Gs2  v100
 BYTE   W96
//  #07 //076   ----------------------------------------
 BYTE   W92
 BYTE   W03
 BYTE   EOT
 BYTE   W01
//  #07 //077   ----------------------------------------
 BYTE   TIE  As2
 BYTE   W96
//  #07 //078   ----------------------------------------
 BYTE   W92
 BYTE   W03
 BYTE   EOT
 BYTE   W01
//  #07 //079   ----------------------------------------
 BYTE   TIE  Gs2
 BYTE   W96
//  #07 //080   ----------------------------------------
 BYTE   W92
 BYTE   W03
 BYTE   EOT
 BYTE   W01
//  #07 //081   ----------------------------------------
 BYTE   PATT
  POIN2 Label_0102A696
//  #07 //082   ----------------------------------------
 BYTE   N92  Gn3  v100
 BYTE   W96
//  #07 //083   ----------------------------------------
 BYTE   PATT
  POIN2 Label_0102A6A0
//  #07 //084   ----------------------------------------
 BYTE   PATT
  POIN2 Label_0102A6AB
//  #07 //085   ----------------------------------------
 BYTE   N92  Ds3  v096
 BYTE   W96
//  #07 //086   ----------------------------------------
 BYTE   Cn3
 BYTE   W96
//  #07 //087   ----------------------------------------
 BYTE   PATT
  POIN2 Label_0102A6BF
//  #07 //088   ----------------------------------------
 BYTE   PATT
  POIN2 Label_0102A6CB
//  #07 //089   ----------------------------------------
 BYTE   PATT
  POIN2 Label_0102A6DB
//  #07 //090   ----------------------------------------
 BYTE   PATT
  POIN2 Label_0102A6E8
//  #07 //091   ----------------------------------------
 BYTE   PATT
  POIN2 Label_0102A6F6
//  #07 //092   ----------------------------------------
 BYTE   PATT
  POIN2 Label_0102A716
//  #07 //093   ----------------------------------------
 BYTE   PATT
  POIN2 Label_0102A733
//  #07 //094   ----------------------------------------
 BYTE   PATT
  POIN2 Label_0102A756
//  #07 //095   ----------------------------------------
 BYTE   PATT
  POIN2 Label_0102A733
//  #07 //096   ----------------------------------------
 BYTE   PATT
  POIN2 Label_0102A756
//  #07 //097   ----------------------------------------
 BYTE   PATT
  POIN2 Label_0102A733
//  #07 //098   ----------------------------------------
 BYTE   PATT
  POIN2 Label_0102A756
//  #07 //099   ----------------------------------------
 BYTE   PATT
  POIN2 Label_0102A77E
//  #07 //100   ----------------------------------------
 BYTE   PATT
  POIN2 Label_0102A7A1
//  #07 //101   ----------------------------------------
 BYTE   W96
//  #07 //102   ----------------------------------------
 BYTE   W96
//  #07 //103   ----------------------------------------
 BYTE   W96
//  #07 //104   ----------------------------------------
 BYTE   W96
//  #07 //105   ----------------------------------------
 BYTE   W15
 BYTE   FINE

//**************** Track 8 (Midi-Chn.7) ****************//

AceAttorney2WantingtoFindtheTruthSurfingKyogre_008:
//  #08 //000   ----------------------------------------
 BYTE   KEYSH   AceAttorney2WantingtoFindtheTruthSurfingKyogre_key+0
 BYTE   VOICE   40
 BYTE   PAN   c_v+40
 BYTE   VOL   32*AceAttorney2WantingtoFindtheTruthSurfingKyogre_mvl/mxv
 BYTE   N12  Fn2  v100
 BYTE   W96
//  #08 //001   ----------------------------------------
 BYTE   W96
//  #08 //002   ----------------------------------------
Label_0100EA79:
 BYTE   N12  Fn2  v100
 BYTE   W96
//  #08 //003   ----------------------------------------
 BYTE   W96
//  #08 //004   ----------------------------------------
 BYTE   N12
 BYTE   W96
//  #08 //005   ----------------------------------------
 BYTE   W96
//  #08 //006   ----------------------------------------
 BYTE   W84
 BYTE   As2
 BYTE   W12
//  #08 //007   ----------------------------------------
Label_0100EA84:
 BYTE   W36
 BYTE   N12  As2  v100
 BYTE   W24
 BYTE   N12
 BYTE   W36
 BYTE   PEND 
//  #08 //008   ----------------------------------------
Label_0100EA8C:
 BYTE   N32  Gs3  v112
 BYTE   W36
 BYTE   N23  Gn3
 BYTE   W24
 BYTE   N32  Ds3
 BYTE   W36
 BYTE   PEND 
//  #08 //009   ----------------------------------------
Label_0100EA97:
 BYTE   N68  Cn3  v112
 BYTE   W72
 BYTE   N11  As2
 BYTE   W12
 BYTE   Ds3
 BYTE   W12
 BYTE   PEND 
//  #08 //010   ----------------------------------------
 BYTE   TIE  Cn3
 BYTE   W96
//  #08 //011   ----------------------------------------
 BYTE   W11
 BYTE   EOT
 BYTE   W24
 BYTE   W01
 BYTE   N32  Fn2
 BYTE   W36
 BYTE   N23  Cn3
 BYTE   W24
//  #08 //012   ----------------------------------------
Label_0100EAAE:
 BYTE   N32  As2  v112
 BYTE   W36
 BYTE   Ds3
 BYTE   W36
 BYTE   N44  Gn2
 BYTE   W24
 BYTE   PEND 
//  #08 //013   ----------------------------------------
Label_0100EAB8:
 BYTE   W24
 BYTE   N23  Gs2  v112
 BYTE   W24
 BYTE   As2
 BYTE   W24
 BYTE   N17  Cn3
 BYTE   W24
 BYTE   PEND 
//  #08 //014   ----------------------------------------
 BYTE   N88
 BYTE   W96
//  #08 //015   ----------------------------------------
Label_0100EAC5:
 BYTE   N32  Cn3  v112
 BYTE   W36
 BYTE   Ds3
 BYTE   W36
 BYTE   N23  Cn3
 BYTE   W24
 BYTE   PEND 
//  #08 //016   ----------------------------------------
 BYTE   PATT
  POIN2 Label_0100EA8C
//  #08 //017   ----------------------------------------
 BYTE   PATT
  POIN2 Label_0100EA97
//  #08 //018   ----------------------------------------
 BYTE   TIE  Cn3  v112
 BYTE   W96
//  #08 //019   ----------------------------------------
 BYTE   W11
 BYTE   EOT
 BYTE   W13
 BYTE   N23  Cn2
 BYTE   W24
 BYTE   Fn2
 BYTE   W24
 BYTE   Cn3
 BYTE   W24
//  #08 //020   ----------------------------------------
Label_0100EAE7:
 BYTE   N32  As2  v112
 BYTE   W36
 BYTE   N17  Gn2
 BYTE   W24
 BYTE   N11
 BYTE   W12
 BYTE   Gs2
 BYTE   W12
 BYTE   N23  As2
 BYTE   W12
 BYTE   PEND 
//  #08 //021   ----------------------------------------
Label_0100EAF6:
 BYTE   W12
 BYTE   N11  Cn3  v112
 BYTE   W12
 BYTE   As2
 BYTE   W12
 BYTE   N23  Gs2
 BYTE   W24
 BYTE   N11  Gn2
 BYTE   W12
 BYTE   N23  Gs2
 BYTE   W24
 BYTE   PEND 
//  #08 //022   ----------------------------------------
Label_0100EB07:
 BYTE   N23  Fn2  v112
 BYTE   W24
 BYTE   Cn3
 BYTE   W24
 BYTE   As2
 BYTE   W24
 BYTE   N11  Ds2
 BYTE   W12
 BYTE   N12  Fn2
 BYTE   W12
 BYTE   PEND 
//  #08 //023   ----------------------------------------
Label_0100EB16:
 BYTE   W12
 BYTE   N11  Fn1  v100
 BYTE   W12
 BYTE   Gn1
 BYTE   W12
 BYTE   Gs1
 BYTE   W24
 BYTE   N32  Fn1  v112
 BYTE   W36
 BYTE   PEND 
//  #08 //024   ----------------------------------------
 BYTE   TIE  Cs2  v100
 BYTE   W96
//  #08 //025   ----------------------------------------
 BYTE   W92
 BYTE   W03
 BYTE   EOT
 BYTE   W01
//  #08 //026   ----------------------------------------
 BYTE   TIE  Cn2
 BYTE   W96
//  #08 //027   ----------------------------------------
 BYTE   W92
 BYTE   W03
 BYTE   EOT
 BYTE   W01
//  #08 //028   ----------------------------------------
 BYTE   TIE  As1
 BYTE   W96
//  #08 //029   ----------------------------------------
 BYTE   W92
 BYTE   W03
 BYTE   EOT
 BYTE   W01
//  #08 //030   ----------------------------------------
 BYTE   TIE  Gs1
 BYTE   W96
//  #08 //031   ----------------------------------------
 BYTE   W92
 BYTE   W03
 BYTE   EOT
 BYTE   W01
//  #08 //032   ----------------------------------------
Label_0100EB41:
 BYTE   N30  Cs2  v127
 BYTE   W36
 BYTE   N09  Cs2  v116
 BYTE   W36
 BYTE   N30  Cs2  v127
 BYTE   W24
 BYTE   PEND 
//  #08 //033   ----------------------------------------
Label_0100EB4E:
 BYTE   W12
 BYTE   N08  Cs2  v127
 BYTE   W36
 BYTE   N11
 BYTE   W24
 BYTE   N18
 BYTE   W24
 BYTE   PEND 
//  #08 //034   ----------------------------------------
 BYTE   N92  Fn1  v120
 BYTE   W96
//  #08 //035   ----------------------------------------
Label_0100EB5C:
 BYTE   N44  Fn2  v127
 BYTE   W48
 BYTE   Ds2  v120
 BYTE   W48
 BYTE   PEND 
//  #08 //036   ----------------------------------------
Label_0100EB64:
 BYTE   N05  Gs2  v116
 BYTE   W24
 BYTE   N06  Gs2  v120
 BYTE   W24
 BYTE   N06
 BYTE   W24
 BYTE   N08  Gs2  v096
 BYTE   W24
 BYTE   PEND 
//  #08 //037   ----------------------------------------
Label_0100EB73:
 BYTE   N08  Gs2  v096
 BYTE   W24
 BYTE   N07  Gs2  v116
 BYTE   W24
 BYTE   N08  Gs2  v100
 BYTE   W24
 BYTE   Gs2  v120
 BYTE   W24
 BYTE   PEND 
//  #08 //038   ----------------------------------------
Label_0100EB83:
 BYTE   N07  Gn2  v120
 BYTE   W24
 BYTE   N09  Gn2  v116
 BYTE   W24
 BYTE   Gn2  v092
 BYTE   W24
 BYTE   N10  Gn2  v096
 BYTE   W24
 BYTE   PEND 
//  #08 //039   ----------------------------------------
Label_0100EB93:
 BYTE   N10  Gn2  v108
 BYTE   W24
 BYTE   N11  Gn2  v112
 BYTE   W24
 BYTE   Gn2  v108
 BYTE   W24
 BYTE   Gn2  v116
 BYTE   W24
 BYTE   PEND 
//  #08 //040   ----------------------------------------
Label_0100EBA2:
 BYTE   W12
 BYTE   N04  Ds2  v092
 BYTE   W06
 BYTE   N04
 BYTE   W06
 BYTE   Cs2
 BYTE   W06
 BYTE   N04
 BYTE   W06
 BYTE   Cn2
 BYTE   W06
 BYTE   N04
 BYTE   W06
 BYTE   As1
 BYTE   W06
 BYTE   N04
 BYTE   W06
 BYTE   Gs1
 BYTE   W06
 BYTE   N04
 BYTE   W06
 BYTE   Gn1
 BYTE   W06
 BYTE   N04
 BYTE   W06
 BYTE   Cn2
 BYTE   W06
 BYTE   N04
 BYTE   W06
 BYTE   PEND 
//  #08 //041   ----------------------------------------
Label_0100EBC2:
 BYTE   W12
 BYTE   N11  Cn2  v120
 BYTE   W12
 BYTE   N10  As1
 BYTE   W12
 BYTE   N11  Cn2  v116
 BYTE   W12
 BYTE   Gs1  v120
 BYTE   W12
 BYTE   Cn2  v112
 BYTE   W12
 BYTE   Gn1  v116
 BYTE   W12
 BYTE   N09  Cn2  v112
 BYTE   W12
 BYTE   PEND 
//  #08 //042   ----------------------------------------
Label_0100EBDC:
 BYTE   N04  Fn1  v120
 BYTE   W06
 BYTE   N04
 BYTE   W06
 BYTE   Gn1
 BYTE   W06
 BYTE   N04
 BYTE   W06
 BYTE   Gs1
 BYTE   W06
 BYTE   N04
 BYTE   W06
 BYTE   As1
 BYTE   W06
 BYTE   N04
 BYTE   W06
 BYTE   Gn1
 BYTE   W06
 BYTE   N04
 BYTE   W06
 BYTE   Gs1
 BYTE   W06
 BYTE   N04
 BYTE   W06
 BYTE   As1
 BYTE   W06
 BYTE   N04
 BYTE   W06
 BYTE   Cn2
 BYTE   W06
 BYTE   N04
 BYTE   W06
 BYTE   PEND 
//  #08 //043   ----------------------------------------
Label_0100EBFF:
 BYTE   N04  Gs1  v120
 BYTE   W06
 BYTE   N04
 BYTE   W06
 BYTE   As1
 BYTE   W06
 BYTE   N04
 BYTE   W06
 BYTE   N11  Cn2
 BYTE   W12
 BYTE   N32  As1
 BYTE   W36
 BYTE   N15  Cn2
 BYTE   W24
 BYTE   PEND 
//  #08 //044   ----------------------------------------
 BYTE   PATT
  POIN2 Label_0100EBDC
//  #08 //045   ----------------------------------------
 BYTE   PATT
  POIN2 Label_0100EBFF
//  #08 //046   ----------------------------------------
 BYTE   PATT
  POIN2 Label_0100EBDC
//  #08 //047   ----------------------------------------
 BYTE   PATT
  POIN2 Label_0100EBFF
//  #08 //048   ----------------------------------------
Label_0100EC27:
 BYTE   N04  Fn2  v120
 BYTE   W06
 BYTE   N04
 BYTE   W06
 BYTE   Gn2
 BYTE   W06
 BYTE   N04
 BYTE   W06
 BYTE   Gs2
 BYTE   W06
 BYTE   N04
 BYTE   W06
 BYTE   As2
 BYTE   W06
 BYTE   N04
 BYTE   W06
 BYTE   Gn2
 BYTE   W06
 BYTE   N04
 BYTE   W06
 BYTE   Gs2
 BYTE   W06
 BYTE   N04
 BYTE   W06
 BYTE   As2
 BYTE   W06
 BYTE   N04
 BYTE   W06
 BYTE   Cn3
 BYTE   W06
 BYTE   N04
 BYTE   W06
 BYTE   PEND 
//  #08 //049   ----------------------------------------
Label_0100EC4A:
 BYTE   N04  Gs2  v120
 BYTE   W06
 BYTE   N04
 BYTE   W06
 BYTE   As2
 BYTE   W06
 BYTE   N04
 BYTE   W06
 BYTE   N11  Cn3
 BYTE   W12
 BYTE   N32  Dn3
 BYTE   W36
 BYTE   N15  Ds3
 BYTE   W24
 BYTE   PEND 
//  #08 //050   ----------------------------------------
 BYTE   N12  Fn2  v100
 BYTE   W96
//  #08 //051   ----------------------------------------
 BYTE   W96
//  #08 //052   ----------------------------------------
 BYTE   GoTo
  POIN2 Label_0100EA79
//  #08 //053   ----------------------------------------
 BYTE   N12  Fn2  v100
 BYTE   W96
//  #08 //054   ----------------------------------------
 BYTE   W96
//  #08 //055   ----------------------------------------
 BYTE   N12
 BYTE   W96
//  #08 //056   ----------------------------------------
 BYTE   W96
//  #08 //057   ----------------------------------------
 BYTE   W84
 BYTE   As2
 BYTE   W12
//  #08 //058   ----------------------------------------
 BYTE   PATT
  POIN2 Label_0100EA84
//  #08 //059   ----------------------------------------
 BYTE   PATT
  POIN2 Label_0100EA8C
//  #08 //060   ----------------------------------------
 BYTE   PATT
  POIN2 Label_0100EA97
//  #08 //061   ----------------------------------------
 BYTE   TIE  Cn3  v112
 BYTE   W96
//  #08 //062   ----------------------------------------
 BYTE   W11
 BYTE   EOT
 BYTE   W24
 BYTE   W01
 BYTE   N32  Fn2
 BYTE   W36
 BYTE   N23  Cn3
 BYTE   W24
//  #08 //063   ----------------------------------------
 BYTE   PATT
  POIN2 Label_0100EAAE
//  #08 //064   ----------------------------------------
 BYTE   PATT
  POIN2 Label_0100EAB8
//  #08 //065   ----------------------------------------
 BYTE   N88  Cn3  v112
 BYTE   W96
//  #08 //066   ----------------------------------------
 BYTE   PATT
  POIN2 Label_0100EAC5
//  #08 //067   ----------------------------------------
 BYTE   PATT
  POIN2 Label_0100EA8C
//  #08 //068   ----------------------------------------
 BYTE   PATT
  POIN2 Label_0100EA97
//  #08 //069   ----------------------------------------
 BYTE   TIE  Cn3  v112
 BYTE   W96
//  #08 //070   ----------------------------------------
 BYTE   W11
 BYTE   EOT
 BYTE   W13
 BYTE   N23  Cn2
 BYTE   W24
 BYTE   Fn2
 BYTE   W24
 BYTE   Cn3
 BYTE   W24
//  #08 //071   ----------------------------------------
 BYTE   PATT
  POIN2 Label_0100EAE7
//  #08 //072   ----------------------------------------
 BYTE   PATT
  POIN2 Label_0100EAF6
//  #08 //073   ----------------------------------------
 BYTE   PATT
  POIN2 Label_0100EB07
//  #08 //074   ----------------------------------------
 BYTE   PATT
  POIN2 Label_0100EB16
//  #08 //075   ----------------------------------------
 BYTE   TIE  Cs2  v100
 BYTE   W96
//  #08 //076   ----------------------------------------
 BYTE   W92
 BYTE   W03
 BYTE   EOT
 BYTE   W01
//  #08 //077   ----------------------------------------
 BYTE   TIE  Cn2
 BYTE   W96
//  #08 //078   ----------------------------------------
 BYTE   W92
 BYTE   W03
 BYTE   EOT
 BYTE   W01
//  #08 //079   ----------------------------------------
 BYTE   TIE  As1
 BYTE   W96
//  #08 //080   ----------------------------------------
 BYTE   W92
 BYTE   W03
 BYTE   EOT
 BYTE   W01
//  #08 //081   ----------------------------------------
 BYTE   TIE  Gs1
 BYTE   W96
//  #08 //082   ----------------------------------------
 BYTE   W92
 BYTE   W03
 BYTE   EOT
 BYTE   W01
//  #08 //083   ----------------------------------------
 BYTE   PATT
  POIN2 Label_0100EB41
//  #08 //084   ----------------------------------------
 BYTE   PATT
  POIN2 Label_0100EB4E
//  #08 //085   ----------------------------------------
 BYTE   N92  Fn1  v120
 BYTE   W96
//  #08 //086   ----------------------------------------
 BYTE   PATT
  POIN2 Label_0100EB5C
//  #08 //087   ----------------------------------------
 BYTE   PATT
  POIN2 Label_0100EB64
//  #08 //088   ----------------------------------------
 BYTE   PATT
  POIN2 Label_0100EB73
//  #08 //089   ----------------------------------------
 BYTE   PATT
  POIN2 Label_0100EB83
//  #08 //090   ----------------------------------------
 BYTE   PATT
  POIN2 Label_0100EB93
//  #08 //091   ----------------------------------------
 BYTE   PATT
  POIN2 Label_0100EBA2
//  #08 //092   ----------------------------------------
 BYTE   PATT
  POIN2 Label_0100EBC2
//  #08 //093   ----------------------------------------
 BYTE   PATT
  POIN2 Label_0100EBDC
//  #08 //094   ----------------------------------------
 BYTE   PATT
  POIN2 Label_0100EBFF
//  #08 //095   ----------------------------------------
 BYTE   PATT
  POIN2 Label_0100EBDC
//  #08 //096   ----------------------------------------
 BYTE   PATT
  POIN2 Label_0100EBFF
//  #08 //097   ----------------------------------------
 BYTE   PATT
  POIN2 Label_0100EBDC
//  #08 //098   ----------------------------------------
 BYTE   PATT
  POIN2 Label_0100EBFF
//  #08 //099   ----------------------------------------
 BYTE   PATT
  POIN2 Label_0100EC27
//  #08 //100   ----------------------------------------
 BYTE   PATT
  POIN2 Label_0100EC4A
//  #08 //101   ----------------------------------------
 BYTE   W96
//  #08 //102   ----------------------------------------
 BYTE   W96
//  #08 //103   ----------------------------------------
 BYTE   W96
//  #08 //104   ----------------------------------------
 BYTE   W96
//  #08 //105   ----------------------------------------
 BYTE   W15
 BYTE   FINE

//**************** Track 9 (Midi-Chn.8) ****************//

AceAttorney2WantingtoFindtheTruthSurfingKyogre_009:
//  #09 //000   ----------------------------------------
 BYTE   KEYSH   AceAttorney2WantingtoFindtheTruthSurfingKyogre_key+0
 BYTE   VOICE   14
 BYTE   PAN   c_v-20
 BYTE   VOL   50*AceAttorney2WantingtoFindtheTruthSurfingKyogre_mvl/mxv
 BYTE   N52  Fn3  v120
 BYTE   W96
//  #09 //001   ----------------------------------------
 BYTE   W96
//  #09 //002   ----------------------------------------
Label_54B8ED:
 BYTE   W96
//  #09 //003   ----------------------------------------
 BYTE   W96
//  #09 //004   ----------------------------------------
 BYTE   W96
//  #09 //005   ----------------------------------------
 BYTE   W96
//  #09 //006   ----------------------------------------
 BYTE   W84
 BYTE   N44  Cn4  v120
 BYTE   W12
//  #09 //007   ----------------------------------------
Label_54B8F6:
 BYTE   W36
 BYTE   N23  Cn4  v120
 BYTE   W24
 BYTE   N23
 BYTE   W36
 BYTE   PEND 
//  #09 //008   ----------------------------------------
 BYTE   W96
//  #09 //009   ----------------------------------------
 BYTE   W96
//  #09 //010   ----------------------------------------
 BYTE   W96
//  #09 //011   ----------------------------------------
 BYTE   W96
//  #09 //012   ----------------------------------------
 BYTE   W96
//  #09 //013   ----------------------------------------
 BYTE   W96
//  #09 //014   ----------------------------------------
 BYTE   W96
//  #09 //015   ----------------------------------------
Label_54B905:
 BYTE   N32  Cn4  v120
 BYTE   W36
 BYTE   N23
 BYTE   W24
 BYTE   N32
 BYTE   W36
 BYTE   PEND 
//  #09 //016   ----------------------------------------
 BYTE   N52  Fn3
 BYTE   W96
//  #09 //017   ----------------------------------------
 BYTE   W96
//  #09 //018   ----------------------------------------
 BYTE   W96
//  #09 //019   ----------------------------------------
 BYTE   W96
//  #09 //020   ----------------------------------------
 BYTE   W96
//  #09 //021   ----------------------------------------
 BYTE   W96
//  #09 //022   ----------------------------------------
 BYTE   W84
 BYTE   N44
 BYTE   W12
//  #09 //023   ----------------------------------------
 BYTE   W60
 BYTE   N28
 BYTE   W36
//  #09 //024   ----------------------------------------
 BYTE   W96
//  #09 //025   ----------------------------------------
 BYTE   W96
//  #09 //026   ----------------------------------------
 BYTE   W96
//  #09 //027   ----------------------------------------
 BYTE   W96
//  #09 //028   ----------------------------------------
 BYTE   W96
//  #09 //029   ----------------------------------------
 BYTE   W96
//  #09 //030   ----------------------------------------
 BYTE   W96
//  #09 //031   ----------------------------------------
 BYTE   W96
//  #09 //032   ----------------------------------------
 BYTE   W96
//  #09 //033   ----------------------------------------
 BYTE   W96
//  #09 //034   ----------------------------------------
 BYTE   W96
//  #09 //035   ----------------------------------------
 BYTE   W96
//  #09 //036   ----------------------------------------
 BYTE   W96
//  #09 //037   ----------------------------------------
 BYTE   W96
//  #09 //038   ----------------------------------------
Label_54B92A:
 BYTE   N23  Cn4  v120
 BYTE   W24
 BYTE   Cn4  v112
 BYTE   W24
 BYTE   Cn4  v120
 BYTE   W24
 BYTE   Cn4  v112
 BYTE   W24
 BYTE   PEND 
//  #09 //039   ----------------------------------------
 BYTE   PATT
  POIN2 Label_54B92A
//  #09 //040   ----------------------------------------
 BYTE   W96
//  #09 //041   ----------------------------------------
 BYTE   W84
 BYTE   N11  Cn4  v120
 BYTE   W12
//  #09 //042   ----------------------------------------
 BYTE   N52  Fn3
 BYTE   W96
//  #09 //043   ----------------------------------------
 BYTE   W84
 BYTE   N11  Cn4
 BYTE   W12
//  #09 //044   ----------------------------------------
 BYTE   N52  Fn3
 BYTE   W96
//  #09 //045   ----------------------------------------
 BYTE   W84
 BYTE   N11  Cn4
 BYTE   W12
//  #09 //046   ----------------------------------------
 BYTE   N52  Fn3
 BYTE   W96
//  #09 //047   ----------------------------------------
 BYTE   W84
 BYTE   N11  Cn4
 BYTE   W12
//  #09 //048   ----------------------------------------
 BYTE   N52  Fn3
 BYTE   W96
//  #09 //049   ----------------------------------------
 BYTE   W96
//  #09 //050   ----------------------------------------
 BYTE   N52
 BYTE   W96
//  #09 //051   ----------------------------------------
 BYTE   W96
//  #09 //052   ----------------------------------------
 BYTE   GoTo
  POIN2 Label_54B8ED
//  #09 //053   ----------------------------------------
 BYTE   W96
//  #09 //054   ----------------------------------------
 BYTE   W96
//  #09 //055   ----------------------------------------
 BYTE   W96
//  #09 //056   ----------------------------------------
 BYTE   W96
//  #09 //057   ----------------------------------------
 BYTE   W84
 BYTE   N44  Cn4  v120
 BYTE   W12
//  #09 //058   ----------------------------------------
 BYTE   PATT
  POIN2 Label_54B8F6
//  #09 //059   ----------------------------------------
 BYTE   W96
//  #09 //060   ----------------------------------------
 BYTE   W96
//  #09 //061   ----------------------------------------
 BYTE   W96
//  #09 //062   ----------------------------------------
 BYTE   W96
//  #09 //063   ----------------------------------------
 BYTE   W96
//  #09 //064   ----------------------------------------
 BYTE   W96
//  #09 //065   ----------------------------------------
 BYTE   W96
//  #09 //066   ----------------------------------------
 BYTE   PATT
  POIN2 Label_54B905
//  #09 //067   ----------------------------------------
 BYTE   N52  Fn3  v120
 BYTE   W96
//  #09 //068   ----------------------------------------
 BYTE   W96
//  #09 //069   ----------------------------------------
 BYTE   W96
//  #09 //070   ----------------------------------------
 BYTE   W96
//  #09 //071   ----------------------------------------
 BYTE   W96
//  #09 //072   ----------------------------------------
 BYTE   W96
//  #09 //073   ----------------------------------------
 BYTE   W84
 BYTE   N44
 BYTE   W12
//  #09 //074   ----------------------------------------
 BYTE   W60
 BYTE   N28
 BYTE   W36
//  #09 //075   ----------------------------------------
 BYTE   W96
//  #09 //076   ----------------------------------------
 BYTE   W96
//  #09 //077   ----------------------------------------
 BYTE   W96
//  #09 //078   ----------------------------------------
 BYTE   W96
//  #09 //079   ----------------------------------------
 BYTE   W96
//  #09 //080   ----------------------------------------
 BYTE   W96
//  #09 //081   ----------------------------------------
 BYTE   W96
//  #09 //082   ----------------------------------------
 BYTE   W96
//  #09 //083   ----------------------------------------
 BYTE   W96
//  #09 //084   ----------------------------------------
 BYTE   W96
//  #09 //085   ----------------------------------------
 BYTE   W96
//  #09 //086   ----------------------------------------
 BYTE   W96
//  #09 //087   ----------------------------------------
 BYTE   W96
//  #09 //088   ----------------------------------------
 BYTE   W96
//  #09 //089   ----------------------------------------
 BYTE   PATT
  POIN2 Label_54B92A
//  #09 //090   ----------------------------------------
 BYTE   PATT
  POIN2 Label_54B92A
//  #09 //091   ----------------------------------------
 BYTE   W96
//  #09 //092   ----------------------------------------
 BYTE   W84
 BYTE   N11  Cn4  v120
 BYTE   W12
//  #09 //093   ----------------------------------------
 BYTE   N52  Fn3
 BYTE   W96
//  #09 //094   ----------------------------------------
 BYTE   W84
 BYTE   N11  Cn4
 BYTE   W12
//  #09 //095   ----------------------------------------
 BYTE   N52  Fn3
 BYTE   W96
//  #09 //096   ----------------------------------------
 BYTE   W84
 BYTE   N11  Cn4
 BYTE   W12
//  #09 //097   ----------------------------------------
 BYTE   N52  Fn3
 BYTE   W96
//  #09 //098   ----------------------------------------
 BYTE   W84
 BYTE   N11  Cn4
 BYTE   W12
//  #09 //099   ----------------------------------------
 BYTE   N52  Fn3
 BYTE   W96
//  #09 //100   ----------------------------------------
 BYTE   W96
//  #09 //101   ----------------------------------------
 BYTE   W96
//  #09 //102   ----------------------------------------
 BYTE   W96
//  #09 //103   ----------------------------------------
 BYTE   W96
//  #09 //104   ----------------------------------------
 BYTE   W96
//  #09 //105   ----------------------------------------
 BYTE   W15
 BYTE   FINE

//**************** Track 10 (Midi-Chn.9) ****************//

AceAttorney2WantingtoFindtheTruthSurfingKyogre_010:
//  #10 //000   ----------------------------------------
 BYTE   KEYSH   AceAttorney2WantingtoFindtheTruthSurfingKyogre_key+0
 BYTE   VOICE   14
 BYTE   PAN   c_v+0
 BYTE   VOL   50*AceAttorney2WantingtoFindtheTruthSurfingKyogre_mvl/mxv
 BYTE   N48  Fn2  v112
 BYTE   W96
//  #10 //001   ----------------------------------------
 BYTE   W96
//  #10 //002   ----------------------------------------
Label_01025949:
 BYTE   N48  Fn2  v112
 BYTE   W96
//  #10 //003   ----------------------------------------
 BYTE   W96
//  #10 //004   ----------------------------------------
 BYTE   N48
 BYTE   W96
//  #10 //005   ----------------------------------------
 BYTE   W96
//  #10 //006   ----------------------------------------
 BYTE   W84
 BYTE   N24  Cn3
 BYTE   W12
//  #10 //007   ----------------------------------------
Label_01025955:
 BYTE   W36
 BYTE   N12  Cn3  v112
 BYTE   W24
 BYTE   N36
 BYTE   W36
 BYTE   PEND 
//  #10 //008   ----------------------------------------
 BYTE   Fn2
 BYTE   W96
//  #10 //009   ----------------------------------------
 BYTE   W96
//  #10 //010   ----------------------------------------
 BYTE   W96
//  #10 //011   ----------------------------------------
 BYTE   W96
//  #10 //012   ----------------------------------------
 BYTE   W96
//  #10 //013   ----------------------------------------
 BYTE   W96
//  #10 //014   ----------------------------------------
 BYTE   W96
//  #10 //015   ----------------------------------------
Label_01025965:
 BYTE   N28  Cn3  v112
 BYTE   W36
 BYTE   N11
 BYTE   W24
 BYTE   N32
 BYTE   W36
 BYTE   PEND 
//  #10 //016   ----------------------------------------
 BYTE   N44  Fn2
 BYTE   W96
//  #10 //017   ----------------------------------------
 BYTE   W96
//  #10 //018   ----------------------------------------
 BYTE   W96
//  #10 //019   ----------------------------------------
 BYTE   W96
//  #10 //020   ----------------------------------------
 BYTE   W96
//  #10 //021   ----------------------------------------
 BYTE   W96
//  #10 //022   ----------------------------------------
 BYTE   W84
 BYTE   N44
 BYTE   W12
//  #10 //023   ----------------------------------------
 BYTE   W60
 BYTE   N28
 BYTE   W36
//  #10 //024   ----------------------------------------
 BYTE   W96
//  #10 //025   ----------------------------------------
 BYTE   W96
//  #10 //026   ----------------------------------------
 BYTE   W96
//  #10 //027   ----------------------------------------
 BYTE   W96
//  #10 //028   ----------------------------------------
 BYTE   W96
//  #10 //029   ----------------------------------------
 BYTE   W96
//  #10 //030   ----------------------------------------
 BYTE   W96
//  #10 //031   ----------------------------------------
 BYTE   W96
//  #10 //032   ----------------------------------------
 BYTE   W96
//  #10 //033   ----------------------------------------
 BYTE   W96
//  #10 //034   ----------------------------------------
 BYTE   W96
//  #10 //035   ----------------------------------------
 BYTE   W96
//  #10 //036   ----------------------------------------
 BYTE   W96
//  #10 //037   ----------------------------------------
 BYTE   W96
//  #10 //038   ----------------------------------------
 BYTE   W96
//  #10 //039   ----------------------------------------
 BYTE   W96
//  #10 //040   ----------------------------------------
 BYTE   N44  Cn3
 BYTE   W96
//  #10 //041   ----------------------------------------
 BYTE   W96
//  #10 //042   ----------------------------------------
 BYTE   Fn2
 BYTE   W96
//  #10 //043   ----------------------------------------
 BYTE   W96
//  #10 //044   ----------------------------------------
 BYTE   N44
 BYTE   W96
//  #10 //045   ----------------------------------------
 BYTE   W96
//  #10 //046   ----------------------------------------
 BYTE   N44
 BYTE   W96
//  #10 //047   ----------------------------------------
 BYTE   W96
//  #10 //048   ----------------------------------------
 BYTE   N44
 BYTE   W96
//  #10 //049   ----------------------------------------
 BYTE   W96
//  #10 //050   ----------------------------------------
 BYTE   N48
 BYTE   W96
//  #10 //051   ----------------------------------------
 BYTE   W96
//  #10 //052   ----------------------------------------
 BYTE   GoTo
  POIN2 Label_01025949
//  #10 //053   ----------------------------------------
 BYTE   N48  Fn2  v112
 BYTE   W96
//  #10 //054   ----------------------------------------
 BYTE   W96
//  #10 //055   ----------------------------------------
 BYTE   N48
 BYTE   W96
//  #10 //056   ----------------------------------------
 BYTE   W96
//  #10 //057   ----------------------------------------
 BYTE   W84
 BYTE   N24  Cn3
 BYTE   W12
//  #10 //058   ----------------------------------------
 BYTE   PATT
  POIN2 Label_01025955
//  #10 //059   ----------------------------------------
 BYTE   N36  Fn2  v112
 BYTE   W96
//  #10 //060   ----------------------------------------
 BYTE   W96
//  #10 //061   ----------------------------------------
 BYTE   W96
//  #10 //062   ----------------------------------------
 BYTE   W96
//  #10 //063   ----------------------------------------
 BYTE   W96
//  #10 //064   ----------------------------------------
 BYTE   W96
//  #10 //065   ----------------------------------------
 BYTE   W96
//  #10 //066   ----------------------------------------
 BYTE   PATT
  POIN2 Label_01025965
//  #10 //067   ----------------------------------------
 BYTE   N44  Fn2  v112
 BYTE   W96
//  #10 //068   ----------------------------------------
 BYTE   W96
//  #10 //069   ----------------------------------------
 BYTE   W96
//  #10 //070   ----------------------------------------
 BYTE   W96
//  #10 //071   ----------------------------------------
 BYTE   W96
//  #10 //072   ----------------------------------------
 BYTE   W96
//  #10 //073   ----------------------------------------
 BYTE   W84
 BYTE   N44
 BYTE   W12
//  #10 //074   ----------------------------------------
 BYTE   W60
 BYTE   N28
 BYTE   W36
//  #10 //075   ----------------------------------------
 BYTE   W96
//  #10 //076   ----------------------------------------
 BYTE   W96
//  #10 //077   ----------------------------------------
 BYTE   W96
//  #10 //078   ----------------------------------------
 BYTE   W96
//  #10 //079   ----------------------------------------
 BYTE   W96
//  #10 //080   ----------------------------------------
 BYTE   W96
//  #10 //081   ----------------------------------------
 BYTE   W96
//  #10 //082   ----------------------------------------
 BYTE   W96
//  #10 //083   ----------------------------------------
 BYTE   W96
//  #10 //084   ----------------------------------------
 BYTE   W96
//  #10 //085   ----------------------------------------
 BYTE   W96
//  #10 //086   ----------------------------------------
 BYTE   W96
//  #10 //087   ----------------------------------------
 BYTE   W96
//  #10 //088   ----------------------------------------
 BYTE   W96
//  #10 //089   ----------------------------------------
 BYTE   W96
//  #10 //090   ----------------------------------------
 BYTE   W96
//  #10 //091   ----------------------------------------
 BYTE   N44  Cn3
 BYTE   W96
//  #10 //092   ----------------------------------------
 BYTE   W96
//  #10 //093   ----------------------------------------
 BYTE   Fn2
 BYTE   W96
//  #10 //094   ----------------------------------------
 BYTE   W96
//  #10 //095   ----------------------------------------
 BYTE   N44
 BYTE   W96
//  #10 //096   ----------------------------------------
 BYTE   W96
//  #10 //097   ----------------------------------------
 BYTE   N44
 BYTE   W96
//  #10 //098   ----------------------------------------
 BYTE   W96
//  #10 //099   ----------------------------------------
 BYTE   N44
 BYTE   W96
//  #10 //100   ----------------------------------------
 BYTE   W96
//  #10 //101   ----------------------------------------
 BYTE   W96
//  #10 //102   ----------------------------------------
 BYTE   W96
//  #10 //103   ----------------------------------------
 BYTE   W96
//  #10 //104   ----------------------------------------
 BYTE   W96
//  #10 //105   ----------------------------------------
 BYTE   W15
 BYTE   FINE

//**************** Track 11 (Midi-Chn.10) ****************//

AceAttorney2WantingtoFindtheTruthSurfingKyogre_011:
//  #11 //000   ----------------------------------------
 BYTE   KEYSH   AceAttorney2WantingtoFindtheTruthSurfingKyogre_key+0
 BYTE   VOICE   46
 BYTE   PAN   c_v+0
 BYTE   VOL   15*AceAttorney2WantingtoFindtheTruthSurfingKyogre_mvl/mxv
 BYTE   N05  Fn2  v112
 BYTE   W06
 BYTE   Cn3
 BYTE   W06
 BYTE   Fn3
 BYTE   W06
 BYTE   Cn4
 BYTE   W06
 BYTE   Fn4
 BYTE   W06
 BYTE   Cn4
 BYTE   W06
 BYTE   Fn3
 BYTE   W06
 BYTE   Cn3
 BYTE   W06
 BYTE   Fn2
 BYTE   W06
 BYTE   Cn3
 BYTE   W06
 BYTE   Fn3
 BYTE   W06
 BYTE   Cn4
 BYTE   W06
 BYTE   Fn4
 BYTE   W06
 BYTE   Cn4
 BYTE   W06
 BYTE   Gs3
 BYTE   W06
 BYTE   Cs3
 BYTE   W06
//  #11 //001   ----------------------------------------
Label_0102C096:
 BYTE   N05  Fn2  v112
 BYTE   W06
 BYTE   Cs3
 BYTE   W06
 BYTE   Gs3
 BYTE   W06
 BYTE   Cs4
 BYTE   W06
 BYTE   Fn4
 BYTE   W06
 BYTE   Cs4
 BYTE   W06
 BYTE   As3
 BYTE   W06
 BYTE   Ds3
 BYTE   W06
 BYTE   Gn2
 BYTE   W06
 BYTE   Ds3
 BYTE   W06
 BYTE   As3
 BYTE   W06
 BYTE   Ds4
 BYTE   W06
 BYTE   Gn4
 BYTE   W06
 BYTE   Ds4
 BYTE   W06
 BYTE   As3
 BYTE   W06
 BYTE   Ds3
 BYTE   W06
 BYTE   PEND 
//  #11 //002   ----------------------------------------
Label_0102C0B9:
 BYTE   N05  Fn2  v112
 BYTE   W06
 BYTE   Cn3
 BYTE   W06
 BYTE   Fn3
 BYTE   W06
 BYTE   Cn4
 BYTE   W06
 BYTE   Fn4
 BYTE   W06
 BYTE   Cn4
 BYTE   W06
 BYTE   Fn3
 BYTE   W06
 BYTE   Cn3
 BYTE   W06
 BYTE   Fn2
 BYTE   W06
 BYTE   Cn3
 BYTE   W06
 BYTE   Fn3
 BYTE   W06
 BYTE   Cn4
 BYTE   W06
 BYTE   Fn4
 BYTE   W06
 BYTE   Cn4
 BYTE   W06
 BYTE   As3
 BYTE   W06
 BYTE   Ds3
 BYTE   W06
 BYTE   PEND 
//  #11 //003   ----------------------------------------
Label_0102C0DC:
 BYTE   N05  Gn2  v112
 BYTE   W06
 BYTE   Ds3
 BYTE   W06
 BYTE   As3
 BYTE   W06
 BYTE   Ds4
 BYTE   W06
 BYTE   Gn4
 BYTE   W06
 BYTE   Ds4
 BYTE   W06
 BYTE   As3
 BYTE   W06
 BYTE   Ds3
 BYTE   W06
 BYTE   Gn2
 BYTE   W06
 BYTE   Ds3
 BYTE   W06
 BYTE   As3
 BYTE   W06
 BYTE   Ds4
 BYTE   W06
 BYTE   Gn4
 BYTE   W06
 BYTE   Ds4
 BYTE   W06
 BYTE   As3
 BYTE   W06
 BYTE   Ds3
 BYTE   W06
 BYTE   PEND 
//  #11 //004   ----------------------------------------
Label_0102C0FF:
 BYTE   N05  Fn2  v112
 BYTE   W06
 BYTE   Cn3
 BYTE   W06
 BYTE   Fn3
 BYTE   W06
 BYTE   Cn4
 BYTE   W06
 BYTE   Fn4
 BYTE   W06
 BYTE   Cn4
 BYTE   W06
 BYTE   Fn3
 BYTE   W06
 BYTE   Cn3
 BYTE   W06
 BYTE   Fn2
 BYTE   W06
 BYTE   Cn3
 BYTE   W06
 BYTE   Fn3
 BYTE   W06
 BYTE   Cn4
 BYTE   W06
 BYTE   Fn4
 BYTE   W06
 BYTE   Cn4
 BYTE   W06
 BYTE   Gs3
 BYTE   W06
 BYTE   Cs3
 BYTE   W06
 BYTE   PEND 
//  #11 //005   ----------------------------------------
 BYTE   PATT
  POIN2 Label_0102C096
//  #11 //006   ----------------------------------------
Label_0102C127:
 BYTE   N05  Fn2  v112
 BYTE   W06
 BYTE   Cn3
 BYTE   W06
 BYTE   Fn3
 BYTE   W06
 BYTE   Cn4
 BYTE   W06
 BYTE   Fn4
 BYTE   W06
 BYTE   Cn4
 BYTE   W06
 BYTE   Fn3
 BYTE   W06
 BYTE   Cn3
 BYTE   W06
 BYTE   Fn2
 BYTE   W06
 BYTE   Cn3
 BYTE   W06
 BYTE   Fn3
 BYTE   W06
 BYTE   Cn4
 BYTE   W06
 BYTE   Fn4
 BYTE   W06
 BYTE   Cn4
 BYTE   W06
 BYTE   Gn3
 BYTE   W06
 BYTE   Gn2
 BYTE   W06
 BYTE   PEND 
//  #11 //007   ----------------------------------------
Label_0102C14A:
 BYTE   N05  Cn3  v112
 BYTE   W06
 BYTE   Cn4
 BYTE   W06
 BYTE   Cn5
 BYTE   W06
 BYTE   Gn4
 BYTE   W06
 BYTE   Cn4
 BYTE   W06
 BYTE   Gn3
 BYTE   W06
 BYTE   Cn3
 BYTE   W06
 BYTE   Gn2
 BYTE   W06
 BYTE   Cn2
 BYTE   W06
 BYTE   Gn2
 BYTE   W06
 BYTE   Cn3
 BYTE   W06
 BYTE   Gn3
 BYTE   W06
 BYTE   Cn4
 BYTE   W06
 BYTE   Gn4
 BYTE   W06
 BYTE   Cn5
 BYTE   W06
 BYTE   Cn4
 BYTE   W06
 BYTE   PEND 
//  #11 //008   ----------------------------------------
Label_0102C16D:
 BYTE   N05  Fn2  v112
 BYTE   W06
 BYTE   Fn3
 BYTE   W06
 BYTE   Cn4
 BYTE   W12
 BYTE   Fn4
 BYTE   W12
 BYTE   Cn4
 BYTE   W12
 BYTE   Fn3
 BYTE   W06
 BYTE   Cn4
 BYTE   W06
 BYTE   Fn4
 BYTE   W12
 BYTE   Cn5
 BYTE   W12
 BYTE   Fn4
 BYTE   W06
 BYTE   Cn4
 BYTE   W06
 BYTE   PEND 
//  #11 //009   ----------------------------------------
Label_0102C186:
 BYTE   N05  Fn2  v112
 BYTE   W06
 BYTE   Fn3
 BYTE   W06
 BYTE   Cn4
 BYTE   W06
 BYTE   Fn4
 BYTE   W06
 BYTE   Cn5
 BYTE   W12
 BYTE   Fn4
 BYTE   W12
 BYTE   Fn3
 BYTE   W06
 BYTE   Cn4
 BYTE   W06
 BYTE   Fn4
 BYTE   W12
 BYTE   Cn5
 BYTE   W12
 BYTE   Cn4
 BYTE   W12
 BYTE   PEND 
//  #11 //010   ----------------------------------------
 BYTE   PATT
  POIN2 Label_0102C16D
//  #11 //011   ----------------------------------------
 BYTE   PATT
  POIN2 Label_0102C186
//  #11 //012   ----------------------------------------
Label_0102C1A9:
 BYTE   N05  Gn2  v112
 BYTE   W06
 BYTE   Cn3
 BYTE   W06
 BYTE   Gn3
 BYTE   W06
 BYTE   Cn4
 BYTE   W06
 BYTE   Gn4
 BYTE   W12
 BYTE   Cn4
 BYTE   W12
 BYTE   Gn3
 BYTE   W12
 BYTE   Cn4
 BYTE   W12
 BYTE   Gn4
 BYTE   W12
 BYTE   Cn4
 BYTE   W12
 BYTE   PEND 
//  #11 //013   ----------------------------------------
 BYTE   PATT
  POIN2 Label_0102C16D
//  #11 //014   ----------------------------------------
 BYTE   PATT
  POIN2 Label_0102C186
//  #11 //015   ----------------------------------------
Label_0102C1CA:
 BYTE   N05  Cn4  v112
 BYTE   W06
 BYTE   Gn4
 BYTE   W06
 BYTE   Cn5
 BYTE   W06
 BYTE   Gn4
 BYTE   W06
 BYTE   Cn4
 BYTE   W06
 BYTE   Gn3
 BYTE   W06
 BYTE   Cn4
 BYTE   W06
 BYTE   Gn4
 BYTE   W06
 BYTE   Cn5
 BYTE   W06
 BYTE   Gn4
 BYTE   W06
 BYTE   Gn5
 BYTE   W06
 BYTE   Ds5
 BYTE   W06
 BYTE   Cn5
 BYTE   W06
 BYTE   Gn4
 BYTE   W06
 BYTE   Cn4
 BYTE   W06
 BYTE   Gn3
 BYTE   W06
 BYTE   PEND 
//  #11 //016   ----------------------------------------
 BYTE   PATT
  POIN2 Label_0102C16D
//  #11 //017   ----------------------------------------
 BYTE   PATT
  POIN2 Label_0102C186
//  #11 //018   ----------------------------------------
 BYTE   PATT
  POIN2 Label_0102C16D
//  #11 //019   ----------------------------------------
 BYTE   PATT
  POIN2 Label_0102C186
//  #11 //020   ----------------------------------------
 BYTE   PATT
  POIN2 Label_0102C1A9
//  #11 //021   ----------------------------------------
 BYTE   PATT
  POIN2 Label_0102C16D
//  #11 //022   ----------------------------------------
Label_0102C20B:
 BYTE   N05  Fn2  v112
 BYTE   W06
 BYTE   Fn3
 BYTE   W06
 BYTE   Cn4
 BYTE   W06
 BYTE   Fn4
 BYTE   W06
 BYTE   Cn5
 BYTE   W12
 BYTE   Fn4
 BYTE   W12
 BYTE   Gn3
 BYTE   W06
 BYTE   Cn4
 BYTE   W06
 BYTE   Gn4
 BYTE   W12
 BYTE   Cn5
 BYTE   W12
 BYTE   Gn4
 BYTE   W12
 BYTE   PEND 
//  #11 //023   ----------------------------------------
Label_0102C224:
 BYTE   N05  Fn5  v112
 BYTE   W06
 BYTE   Cn5
 BYTE   W06
 BYTE   Gs4
 BYTE   W06
 BYTE   Fn4
 BYTE   W06
 BYTE   Cn4
 BYTE   W06
 BYTE   Gs3
 BYTE   W06
 BYTE   Fn3
 BYTE   W18
 BYTE   Cn3
 BYTE   W06
 BYTE   Fn3
 BYTE   W06
 BYTE   Cn4
 BYTE   W06
 BYTE   Fn4
 BYTE   W06
 BYTE   Cn5
 BYTE   W06
 BYTE   Fn5
 BYTE   W06
 BYTE   Fn4
 BYTE   W06
 BYTE   PEND 
//  #11 //024   ----------------------------------------
Label_0102C243:
 BYTE   N05  Fn3  v112
 BYTE   W12
 BYTE   Cn4
 BYTE   W12
 BYTE   Fn4
 BYTE   W12
 BYTE   Cn5
 BYTE   W12
 BYTE   Fn3
 BYTE   W12
 BYTE   Cn4
 BYTE   W12
 BYTE   Fn4
 BYTE   W12
 BYTE   Cn5
 BYTE   W12
 BYTE   PEND 
//  #11 //025   ----------------------------------------
 BYTE   PATT
  POIN2 Label_0102C243
//  #11 //026   ----------------------------------------
Label_0102C25B:
 BYTE   N05  Gn3  v112
 BYTE   W12
 BYTE   Cn4
 BYTE   W12
 BYTE   Gn4
 BYTE   W12
 BYTE   Cn5
 BYTE   W12
 BYTE   Gn3
 BYTE   W12
 BYTE   Cn4
 BYTE   W12
 BYTE   Gn4
 BYTE   W12
 BYTE   Cn5
 BYTE   W12
 BYTE   PEND 
//  #11 //027   ----------------------------------------
 BYTE   PATT
  POIN2 Label_0102C25B
//  #11 //028   ----------------------------------------
 BYTE   PATT
  POIN2 Label_0102C243
//  #11 //029   ----------------------------------------
 BYTE   PATT
  POIN2 Label_0102C243
//  #11 //030   ----------------------------------------
 BYTE   PATT
  POIN2 Label_0102C25B
//  #11 //031   ----------------------------------------
 BYTE   PATT
  POIN2 Label_0102C25B
//  #11 //032   ----------------------------------------
Label_0102C287:
 BYTE   N05  Fn3  v112
 BYTE   W06
 BYTE   Cn4
 BYTE   W06
 BYTE   Fn4
 BYTE   W06
 BYTE   Cn5
 BYTE   W06
 BYTE   Fn5
 BYTE   W06
 BYTE   Cn5
 BYTE   W06
 BYTE   Fn4
 BYTE   W06
 BYTE   Cn4
 BYTE   W06
 BYTE   Fn3
 BYTE   W06
 BYTE   Cn4
 BYTE   W06
 BYTE   Fn4
 BYTE   W06
 BYTE   Cn5
 BYTE   W06
 BYTE   Fn5
 BYTE   W06
 BYTE   Cn5
 BYTE   W06
 BYTE   Fn4
 BYTE   W06
 BYTE   Cn4
 BYTE   W06
 BYTE   PEND 
//  #11 //033   ----------------------------------------
 BYTE   PATT
  POIN2 Label_0102C287
//  #11 //034   ----------------------------------------
 BYTE   PATT
  POIN2 Label_0102C243
//  #11 //035   ----------------------------------------
 BYTE   PATT
  POIN2 Label_0102C243
//  #11 //036   ----------------------------------------
 BYTE   W96
//  #11 //037   ----------------------------------------
 BYTE   W96
//  #11 //038   ----------------------------------------
 BYTE   W96
//  #11 //039   ----------------------------------------
 BYTE   W96
//  #11 //040   ----------------------------------------
 BYTE   W96
//  #11 //041   ----------------------------------------
 BYTE   W96
//  #11 //042   ----------------------------------------
 BYTE   PATT
  POIN2 Label_0102C287
//  #11 //043   ----------------------------------------
Label_0102C2C4:
 BYTE   N05  Fn3  v112
 BYTE   W06
 BYTE   Cn4
 BYTE   W06
 BYTE   Fn4
 BYTE   W06
 BYTE   Cn5
 BYTE   W06
 BYTE   Fn5
 BYTE   W06
 BYTE   Cn5
 BYTE   W06
 BYTE   Fn4
 BYTE   W06
 BYTE   Cn4
 BYTE   W06
 BYTE   Fn3
 BYTE   W06
 BYTE   Cn4
 BYTE   W06
 BYTE   Fn4
 BYTE   W06
 BYTE   As4
 BYTE   W06
 BYTE   Gn5
 BYTE   W06
 BYTE   Cn5
 BYTE   W06
 BYTE   Gn4
 BYTE   W06
 BYTE   Cn4
 BYTE   W06
 BYTE   PEND 
//  #11 //044   ----------------------------------------
 BYTE   PATT
  POIN2 Label_0102C287
//  #11 //045   ----------------------------------------
 BYTE   PATT
  POIN2 Label_0102C2C4
//  #11 //046   ----------------------------------------
 BYTE   PATT
  POIN2 Label_0102C287
//  #11 //047   ----------------------------------------
 BYTE   PATT
  POIN2 Label_0102C2C4
//  #11 //048   ----------------------------------------
 BYTE   PATT
  POIN2 Label_0102C287
//  #11 //049   ----------------------------------------
 BYTE   PATT
  POIN2 Label_0102C2C4
//  #11 //050   ----------------------------------------
 BYTE   PATT
  POIN2 Label_0102C0FF
//  #11 //051   ----------------------------------------
 BYTE   PATT
  POIN2 Label_0102C096
//  #11 //052   ----------------------------------------
 BYTE   GoTo
  POIN2 Label_0102C0B9
//  #11 //053   ----------------------------------------
 BYTE   PATT
  POIN2 Label_0102C0B9
//  #11 //054   ----------------------------------------
 BYTE   PATT
  POIN2 Label_0102C0DC
//  #11 //055   ----------------------------------------
 BYTE   PATT
  POIN2 Label_0102C0FF
//  #11 //056   ----------------------------------------
 BYTE   PATT
  POIN2 Label_0102C096
//  #11 //057   ----------------------------------------
 BYTE   PATT
  POIN2 Label_0102C127
//  #11 //058   ----------------------------------------
 BYTE   PATT
  POIN2 Label_0102C14A
//  #11 //059   ----------------------------------------
 BYTE   PATT
  POIN2 Label_0102C16D
//  #11 //060   ----------------------------------------
 BYTE   PATT
  POIN2 Label_0102C186
//  #11 //061   ----------------------------------------
 BYTE   PATT
  POIN2 Label_0102C16D
//  #11 //062   ----------------------------------------
 BYTE   PATT
  POIN2 Label_0102C186
//  #11 //063   ----------------------------------------
 BYTE   PATT
  POIN2 Label_0102C1A9
//  #11 //064   ----------------------------------------
 BYTE   PATT
  POIN2 Label_0102C16D
//  #11 //065   ----------------------------------------
 BYTE   PATT
  POIN2 Label_0102C186
//  #11 //066   ----------------------------------------
 BYTE   PATT
  POIN2 Label_0102C1CA
//  #11 //067   ----------------------------------------
 BYTE   PATT
  POIN2 Label_0102C16D
//  #11 //068   ----------------------------------------
 BYTE   PATT
  POIN2 Label_0102C186
//  #11 //069   ----------------------------------------
 BYTE   PATT
  POIN2 Label_0102C16D
//  #11 //070   ----------------------------------------
 BYTE   PATT
  POIN2 Label_0102C186
//  #11 //071   ----------------------------------------
 BYTE   PATT
  POIN2 Label_0102C1A9
//  #11 //072   ----------------------------------------
 BYTE   PATT
  POIN2 Label_0102C16D
//  #11 //073   ----------------------------------------
 BYTE   PATT
  POIN2 Label_0102C20B
//  #11 //074   ----------------------------------------
 BYTE   PATT
  POIN2 Label_0102C224
//  #11 //075   ----------------------------------------
 BYTE   PATT
  POIN2 Label_0102C243
//  #11 //076   ----------------------------------------
 BYTE   PATT
  POIN2 Label_0102C243
//  #11 //077   ----------------------------------------
 BYTE   PATT
  POIN2 Label_0102C25B
//  #11 //078   ----------------------------------------
 BYTE   PATT
  POIN2 Label_0102C25B
//  #11 //079   ----------------------------------------
 BYTE   PATT
  POIN2 Label_0102C243
//  #11 //080   ----------------------------------------
 BYTE   PATT
  POIN2 Label_0102C243
//  #11 //081   ----------------------------------------
 BYTE   PATT
  POIN2 Label_0102C25B
//  #11 //082   ----------------------------------------
 BYTE   PATT
  POIN2 Label_0102C25B
//  #11 //083   ----------------------------------------
 BYTE   PATT
  POIN2 Label_0102C287
//  #11 //084   ----------------------------------------
 BYTE   PATT
  POIN2 Label_0102C287
//  #11 //085   ----------------------------------------
 BYTE   PATT
  POIN2 Label_0102C243
//  #11 //086   ----------------------------------------
 BYTE   PATT
  POIN2 Label_0102C243
//  #11 //087   ----------------------------------------
 BYTE   W96
//  #11 //088   ----------------------------------------
 BYTE   W96
//  #11 //089   ----------------------------------------
 BYTE   W96
//  #11 //090   ----------------------------------------
 BYTE   W96
//  #11 //091   ----------------------------------------
 BYTE   W96
//  #11 //092   ----------------------------------------
 BYTE   W96
//  #11 //093   ----------------------------------------
 BYTE   PATT
  POIN2 Label_0102C287
//  #11 //094   ----------------------------------------
 BYTE   PATT
  POIN2 Label_0102C2C4
//  #11 //095   ----------------------------------------
 BYTE   PATT
  POIN2 Label_0102C287
//  #11 //096   ----------------------------------------
 BYTE   PATT
  POIN2 Label_0102C2C4
//  #11 //097   ----------------------------------------
 BYTE   PATT
  POIN2 Label_0102C287
//  #11 //098   ----------------------------------------
 BYTE   PATT
  POIN2 Label_0102C2C4
//  #11 //099   ----------------------------------------
 BYTE   PATT
  POIN2 Label_0102C287
//  #11 //100   ----------------------------------------
 BYTE   PATT
  POIN2 Label_0102C2C4
//  #11 //101   ----------------------------------------
 BYTE   W96
//  #11 //102   ----------------------------------------
 BYTE   W96
//  #11 //103   ----------------------------------------
 BYTE   W96
//  #11 //104   ----------------------------------------
 BYTE   W96
//  #11 //105   ----------------------------------------
 BYTE   W15
 BYTE   FINE

//**************** Track 12 (Midi-Chn.11) ****************//

AceAttorney2WantingtoFindtheTruthSurfingKyogre_012:
//  #12 //000   ----------------------------------------
 BYTE   KEYSH   AceAttorney2WantingtoFindtheTruthSurfingKyogre_key+0
 BYTE   VOICE   44
 BYTE   PAN   c_v+0
 BYTE   VOL   31*AceAttorney2WantingtoFindtheTruthSurfingKyogre_mvl/mxv
 BYTE   N44  Fn3  v112
 BYTE   W03
 BYTE   Fn4
 BYTE   W92
 BYTE   W01
//  #12 //001   ----------------------------------------
 BYTE   W96
//  #12 //002   ----------------------------------------
Label_01029A80:
 BYTE   W96
//  #12 //003   ----------------------------------------
 BYTE   W96
//  #12 //004   ----------------------------------------
 BYTE   W96
//  #12 //005   ----------------------------------------
 BYTE   W96
//  #12 //006   ----------------------------------------
Label_01029A84:
 BYTE   W84
 BYTE   N23  As3  v100
 BYTE   N23  Ds4  v108
 BYTE   W12
 BYTE   PEND 
//  #12 //007   ----------------------------------------
Label_01029A8D:
 BYTE   W36
 BYTE   N11  As3  v100
 BYTE   N11  Ds4  v112
 BYTE   W24
 BYTE   N44  As3
 BYTE   N44  Ds4
 BYTE   W36
 BYTE   PEND 
//  #12 //008   ----------------------------------------
 BYTE   W96
//  #12 //009   ----------------------------------------
 BYTE   W96
//  #12 //010   ----------------------------------------
 BYTE   W96
//  #12 //011   ----------------------------------------
 BYTE   W96
//  #12 //012   ----------------------------------------
 BYTE   W96
//  #12 //013   ----------------------------------------
 BYTE   W96
//  #12 //014   ----------------------------------------
 BYTE   W96
//  #12 //015   ----------------------------------------
 BYTE   W96
//  #12 //016   ----------------------------------------
 BYTE   W96
//  #12 //017   ----------------------------------------
 BYTE   W96
//  #12 //018   ----------------------------------------
 BYTE   W96
//  #12 //019   ----------------------------------------
 BYTE   W96
//  #12 //020   ----------------------------------------
 BYTE   W96
//  #12 //021   ----------------------------------------
 BYTE   W96
//  #12 //022   ----------------------------------------
 BYTE   W96
//  #12 //023   ----------------------------------------
 BYTE   W96
//  #12 //024   ----------------------------------------
 BYTE   W96
//  #12 //025   ----------------------------------------
 BYTE   W96
//  #12 //026   ----------------------------------------
 BYTE   W96
//  #12 //027   ----------------------------------------
 BYTE   W96
//  #12 //028   ----------------------------------------
 BYTE   W96
//  #12 //029   ----------------------------------------
 BYTE   W96
//  #12 //030   ----------------------------------------
 BYTE   W96
//  #12 //031   ----------------------------------------
 BYTE   W96
//  #12 //032   ----------------------------------------
 BYTE   W96
//  #12 //033   ----------------------------------------
 BYTE   W96
//  #12 //034   ----------------------------------------
 BYTE   W96
//  #12 //035   ----------------------------------------
 BYTE   W96
//  #12 //036   ----------------------------------------
 BYTE   W96
//  #12 //037   ----------------------------------------
 BYTE   W96
//  #12 //038   ----------------------------------------
 BYTE   W96
//  #12 //039   ----------------------------------------
 BYTE   W96
//  #12 //040   ----------------------------------------
 BYTE   W96
//  #12 //041   ----------------------------------------
 BYTE   W96
//  #12 //042   ----------------------------------------
 BYTE   W96
//  #12 //043   ----------------------------------------
 BYTE   W96
//  #12 //044   ----------------------------------------
 BYTE   W96
//  #12 //045   ----------------------------------------
 BYTE   W96
//  #12 //046   ----------------------------------------
Label_01029AC1:
 BYTE   N05  Fn2  v092
 BYTE   W12
 BYTE   Fn3  v084
 BYTE   W12
 BYTE   Fn4  v096
 BYTE   W12
 BYTE   Fn3  v088
 BYTE   W12
 BYTE   Fn2  v100
 BYTE   W12
 BYTE   Fn3  v092
 BYTE   W12
 BYTE   Fn4  v104
 BYTE   W12
 BYTE   Fn3  v096
 BYTE   W12
 BYTE   PEND 
//  #12 //047   ----------------------------------------
Label_01029ADB:
 BYTE   N05  Fn2  v100
 BYTE   W12
 BYTE   Fn3  v096
 BYTE   W12
 BYTE   Fn4  v112
 BYTE   W12
 BYTE   Fn3  v104
 BYTE   W12
 BYTE   Fn2  v108
 BYTE   W12
 BYTE   Fn3
 BYTE   W12
 BYTE   Fn4
 BYTE   W12
 BYTE   Fn3  v104
 BYTE   W12
 BYTE   PEND 
//  #12 //048   ----------------------------------------
Label_01029AF3:
 BYTE   N05  Fn2  v104
 BYTE   W12
 BYTE   Fn3  v100
 BYTE   W12
 BYTE   Fn4  v108
 BYTE   W12
 BYTE   Fn3  v104
 BYTE   W12
 BYTE   Fn2  v108
 BYTE   W12
 BYTE   Fn3  v096
 BYTE   W12
 BYTE   Fn4  v112
 BYTE   W12
 BYTE   Fn3  v108
 BYTE   W12
 BYTE   PEND 
//  #12 //049   ----------------------------------------
Label_01029B0D:
 BYTE   N05  Fn2  v108
 BYTE   W12
 BYTE   Fn3  v104
 BYTE   W12
 BYTE   Fn4  v116
 BYTE   W12
 BYTE   Fn3  v112
 BYTE   W12
 BYTE   Fn2  v116
 BYTE   W24
 BYTE   Ds4  v108
 BYTE   W24
 BYTE   PEND 
//  #12 //050   ----------------------------------------
 BYTE   N44  Fn3  v112
 BYTE   W03
 BYTE   Fn4
 BYTE   W92
 BYTE   W01
//  #12 //051   ----------------------------------------
 BYTE   W96
//  #12 //052   ----------------------------------------
 BYTE   GoTo
  POIN2 Label_01029A80
//  #12 //053   ----------------------------------------
 BYTE   W96
//  #12 //054   ----------------------------------------
 BYTE   W96
//  #12 //055   ----------------------------------------
 BYTE   W96
//  #12 //056   ----------------------------------------
 BYTE   W96
//  #12 //057   ----------------------------------------
 BYTE   PATT
  POIN2 Label_01029A84
//  #12 //058   ----------------------------------------
 BYTE   PATT
  POIN2 Label_01029A8D
//  #12 //059   ----------------------------------------
 BYTE   W96
//  #12 //060   ----------------------------------------
 BYTE   W96
//  #12 //061   ----------------------------------------
 BYTE   W96
//  #12 //062   ----------------------------------------
 BYTE   W96
//  #12 //063   ----------------------------------------
 BYTE   W96
//  #12 //064   ----------------------------------------
 BYTE   W96
//  #12 //065   ----------------------------------------
 BYTE   W96
//  #12 //066   ----------------------------------------
 BYTE   W96
//  #12 //067   ----------------------------------------
 BYTE   W96
//  #12 //068   ----------------------------------------
 BYTE   W96
//  #12 //069   ----------------------------------------
 BYTE   W96
//  #12 //070   ----------------------------------------
 BYTE   W96
//  #12 //071   ----------------------------------------
 BYTE   W96
//  #12 //072   ----------------------------------------
 BYTE   W96
//  #12 //073   ----------------------------------------
 BYTE   W96
//  #12 //074   ----------------------------------------
 BYTE   W96
//  #12 //075   ----------------------------------------
 BYTE   W96
//  #12 //076   ----------------------------------------
 BYTE   W96
//  #12 //077   ----------------------------------------
 BYTE   W96
//  #12 //078   ----------------------------------------
 BYTE   W96
//  #12 //079   ----------------------------------------
 BYTE   W96
//  #12 //080   ----------------------------------------
 BYTE   W96
//  #12 //081   ----------------------------------------
 BYTE   W96
//  #12 //082   ----------------------------------------
 BYTE   W96
//  #12 //083   ----------------------------------------
 BYTE   W96
//  #12 //084   ----------------------------------------
 BYTE   W96
//  #12 //085   ----------------------------------------
 BYTE   W96
//  #12 //086   ----------------------------------------
 BYTE   W96
//  #12 //087   ----------------------------------------
 BYTE   W96
//  #12 //088   ----------------------------------------
 BYTE   W96
//  #12 //089   ----------------------------------------
 BYTE   W96
//  #12 //090   ----------------------------------------
 BYTE   W96
//  #12 //091   ----------------------------------------
 BYTE   W96
//  #12 //092   ----------------------------------------
 BYTE   W96
//  #12 //093   ----------------------------------------
 BYTE   W96
//  #12 //094   ----------------------------------------
 BYTE   W96
//  #12 //095   ----------------------------------------
 BYTE   W96
//  #12 //096   ----------------------------------------
 BYTE   W96
//  #12 //097   ----------------------------------------
 BYTE   PATT
  POIN2 Label_01029AC1
//  #12 //098   ----------------------------------------
 BYTE   PATT
  POIN2 Label_01029ADB
//  #12 //099   ----------------------------------------
 BYTE   PATT
  POIN2 Label_01029AF3
//  #12 //100   ----------------------------------------
 BYTE   PATT
  POIN2 Label_01029B0D
//  #12 //101   ----------------------------------------
 BYTE   W96
//  #12 //102   ----------------------------------------
 BYTE   W96
//  #12 //103   ----------------------------------------
 BYTE   W96
//  #12 //104   ----------------------------------------
 BYTE   W96
//  #12 //105   ----------------------------------------
 BYTE   W15
 BYTE   FINE

//**************** Track 13 (Midi-Chn.12) ****************//

AceAttorney2WantingtoFindtheTruthSurfingKyogre_013:
//  #13 //000   ----------------------------------------
 BYTE   KEYSH   AceAttorney2WantingtoFindtheTruthSurfingKyogre_key+0
 BYTE   VOICE   1
 BYTE   PAN   c_v+20
 BYTE   VOL   34*AceAttorney2WantingtoFindtheTruthSurfingKyogre_mvl/mxv
 BYTE   N14  Fn1  v092
 BYTE   N14  Fn2
 BYTE   N14  Cn3  v080
 BYTE   W18
 BYTE   N06  Fn1  v084
 BYTE   N06  Fn2
 BYTE   N06  Cn3  v060
 BYTE   W78
//  #13 //001   ----------------------------------------
 BYTE   W96
//  #13 //002   ----------------------------------------
Label_0102C40F:
 BYTE   N14  Fn1  v092
 BYTE   N13  Fn2  v088
 BYTE   N13  Cn3
 BYTE   W18
 BYTE   N06  Fn1  v084
 BYTE   N07  Fn2  v088
 BYTE   N06  Cn3  v064
 BYTE   W78
 BYTE   PEND 
//  #13 //003   ----------------------------------------
Label_0102C423:
 BYTE   W72
 BYTE   N05  As2  v072
 BYTE   W06
 BYTE   Cn3  v076
 BYTE   W06
 BYTE   Ds3  v064
 BYTE   W06
 BYTE   As2  v060
 BYTE   W06
 BYTE   PEND 
//  #13 //004   ----------------------------------------
Label_0102C432:
 BYTE   N10  Fn1  v092
 BYTE   N10  Fn2
 BYTE   N10  Cn3  v084
 BYTE   W12
 BYTE   N06  Fn1
 BYTE   N06  Fn2  v088
 BYTE   N06  Cn3  v076
 BYTE   W12
 BYTE   N23  Fn1  v060
 BYTE   W36
 BYTE   N11  Fn1  v056
 BYTE   W24
 BYTE   Fn1  v072
 BYTE   W12
 BYTE   PEND 
//  #13 //005   ----------------------------------------
Label_0102C450:
 BYTE   W12
 BYTE   N11  Fn1  v056
 BYTE   W24
 BYTE   Fn1  v048
 BYTE   W24
 BYTE   Fn1  v080
 BYTE   W24
 BYTE   Fn1  v044
 BYTE   W12
 BYTE   PEND 
//  #13 //006   ----------------------------------------
Label_0102C45F:
 BYTE   W12
 BYTE   N11  Fn1  v040
 BYTE   W24
 BYTE   Fn1  v048
 BYTE   W24
 BYTE   Fn1  v056
 BYTE   W24
 BYTE   As3  v096
 BYTE   N11  Ds4  v100
 BYTE   N11  Gn4
 BYTE   W12
 BYTE   PEND 
//  #13 //007   ----------------------------------------
Label_0102C473:
 BYTE   W36
 BYTE   N09  As3  v088
 BYTE   N07  Ds4  v100
 BYTE   N09  Gn4
 BYTE   W24
 BYTE   N32  As3
 BYTE   N32  Ds4
 BYTE   N32  Gn4  v080
 BYTE   W36
 BYTE   PEND 
//  #13 //008   ----------------------------------------
Label_0102C486:
 BYTE   TIE  Cn3  v100
 BYTE   TIE  Fn3
 BYTE   TIE  Gs3
 BYTE   W96
 BYTE   PEND 
//  #13 //009   ----------------------------------------
 BYTE   W23
 BYTE   EOT
 BYTE   Cn3  v065
 BYTE   Gs3
 BYTE   W13
 BYTE   N56  Cn3  v092
 BYTE   N56  Ds3  v088
 BYTE   N56  Gn3  v096
 BYTE   W60
//  #13 //010   ----------------------------------------
Label_0102C49F:
 BYTE   N80  Cn3  v088
 BYTE   N80  Fn3
 BYTE   N80  Gs3  v100
 BYTE   W84
 BYTE   N32  Cn4
 BYTE   N32  Fn4  v088
 BYTE   N32  Cn5  v100
 BYTE   W12
 BYTE   PEND 
//  #13 //011   ----------------------------------------
Label_0102C4B2:
 BYTE   W24
 BYTE   N68  Cn4  v064
 BYTE   N11  Fn4
 BYTE   N11  As4  v100
 BYTE   W12
 BYTE   N56  Gs4  v056
 BYTE   W60
 BYTE   PEND 
//  #13 //012   ----------------------------------------
Label_0102C4C1:
 BYTE   N92  Cn3  v092
 BYTE   N92  Ds3  v100
 BYTE   N52  Gn3  v088
 BYTE   W60
 BYTE   N32  As3  v100
 BYTE   W36
 BYTE   PEND 
//  #13 //013   ----------------------------------------
Label_0102C4D0:
 BYTE   N32  Cn3  v100
 BYTE   N32  Fn3
 BYTE   N32  Gs3
 BYTE   W36
 BYTE   N22  As2  v096
 BYTE   N28  Ds3  v080
 BYTE   N32  Gn3  v096
 BYTE   W24
 BYTE   N08  As2  v072
 BYTE   W12
 BYTE   N23  As2  v100
 BYTE   N23  Ds3  v080
 BYTE   N23  Gs3  v100
 BYTE   W24
 BYTE   PEND 
//  #13 //014   ----------------------------------------
Label_0102C4F1:
 BYTE   N92  Gs2  v088
 BYTE   N92  Cs3  v092
 BYTE   N92  Fn3  v056
 BYTE   W96
 BYTE   PEND 
//  #13 //015   ----------------------------------------
Label_0102C4FC:
 BYTE   N09  Gn2  v096
 BYTE   N09  As2  v092
 BYTE   N10  En3  v100
 BYTE   W36
 BYTE   N07  Cn3
 BYTE   N07  En3  v072
 BYTE   N08  Gn3
 BYTE   W24
 BYTE   N32  En3  v092
 BYTE   N32  Gn3  v100
 BYTE   N32  As3
 BYTE   W36
 BYTE   PEND 
//  #13 //016   ----------------------------------------
Label_0102C518:
 BYTE   N92  Cn3  v100
 BYTE   N92  Fn3
 BYTE   N92  Gs3
 BYTE   N92  Cn4  v072
 BYTE   W96
 BYTE   PEND 
//  #13 //017   ----------------------------------------
Label_0102C524:
 BYTE   W12
 BYTE   N11  Fn3  v096
 BYTE   N11  Gs3  v088
 BYTE   N11  Fn4  v092
 BYTE   W12
 BYTE   Gn3  v068
 BYTE   N11  As3  v100
 BYTE   N11  Gn4  v092
 BYTE   W12
 BYTE   N56  Gs3  v100
 BYTE   N56  Cn4  v096
 BYTE   N56  Gs4  v100
 BYTE   W60
 BYTE   PEND 
//  #13 //018   ----------------------------------------
Label_0102C543:
 BYTE   N28  Cn4  v100
 BYTE   N28  Fn4
 BYTE   N28  Cn5
 BYTE   W36
 BYTE   N32  Cn4  v068
 BYTE   N23  Gs4  v100
 BYTE   W24
 BYTE   N11  Gn4  v064
 BYTE   W12
 BYTE   Gs4  v100
 BYTE   W12
 BYTE   N23  Fn4  v072
 BYTE   W12
 BYTE   PEND 
//  #13 //019   ----------------------------------------
Label_0102C55E:
 BYTE   W12
 BYTE   N11  Cn4  v092
 BYTE   W12
 BYTE   As3  v068
 BYTE   W12
 BYTE   N23  Cn4  v092
 BYTE   W24
 BYTE   N32  Fn3  v064
 BYTE   N32  Gs3  v100
 BYTE   W36
 BYTE   PEND 
//  #13 //020   ----------------------------------------
Label_0102C572:
 BYTE   N32  Ds3  v084
 BYTE   N30  Gn3  v100
 BYTE   W36
 BYTE   N54  Ds3  v072
 BYTE   N36  As3  v092
 BYTE   W36
 BYTE   N20  Gn3  v060
 BYTE   W24
 BYTE   PEND 
//  #13 //021   ----------------------------------------
Label_0102C585:
 BYTE   N32  Fn3  v096
 BYTE   N32  As3  v100
 BYTE   W36
 BYTE   N19  Ds3
 BYTE   N19  Gs3
 BYTE   W24
 BYTE   N32  Ds3  v060
 BYTE   N08  Gn3  v064
 BYTE   W12
 BYTE   N21  Gs3  v092
 BYTE   W24
 BYTE   PEND 
//  #13 //022   ----------------------------------------
Label_0102C59D:
 BYTE   N19  Fn3  v072
 BYTE   N19  Gs3  v096
 BYTE   W24
 BYTE   N23  Fn3  v076
 BYTE   N23  Gs3
 BYTE   W24
 BYTE   N28  Ds3  v072
 BYTE   N28  Gn3  v096
 BYTE   W36
 BYTE   N11  Cn3
 BYTE   N11  Fn3
 BYTE   W12
 BYTE   PEND 
//  #13 //023   ----------------------------------------
Label_0102C5B7:
 BYTE   W12
 BYTE   N11  Fn2  v100
 BYTE   W12
 BYTE   Gn2  v092
 BYTE   W12
 BYTE   N05  Gs2
 BYTE   W24
 BYTE   N32  Fn2  v088
 BYTE   W36
 BYTE   PEND 
//  #13 //024   ----------------------------------------
Label_0102C5C7:
 BYTE   N32  Gs2  v088
 BYTE   N32  Cn3
 BYTE   W36
 BYTE   Fn4  v096
 BYTE   N32  Fn5  v100
 BYTE   W36
 BYTE   N20  Ds4  v088
 BYTE   N20  Ds5  v100
 BYTE   W24
 BYTE   PEND 
//  #13 //025   ----------------------------------------
Label_0102C5DB:
 BYTE   N22  Cs4  v100
 BYTE   N22  Cs5
 BYTE   W24
 BYTE   Cn4  v096
 BYTE   N22  Cn5  v092
 BYTE   W24
 BYTE   As3  v100
 BYTE   N22  As4
 BYTE   W24
 BYTE   Gs3
 BYTE   N22  Gs4
 BYTE   W24
 BYTE   PEND 
//  #13 //026   ----------------------------------------
Label_0102C5F1:
 BYTE   N32  Ds3  v100
 BYTE   N32  Gn3
 BYTE   W36
 BYTE   N42  Gn3  v084
 BYTE   N42  As3  v100
 BYTE   W48
 BYTE   N44
 BYTE   N44  Ds4
 BYTE   W12
 BYTE   PEND 
//  #13 //027   ----------------------------------------
Label_0102C603:
 BYTE   W36
 BYTE   N11  As3  v100
 BYTE   W12
 BYTE   N09  Cn4  v068
 BYTE   W12
 BYTE   N32  Gn3  v100
 BYTE   W36
 BYTE   PEND 
//  #13 //028   ----------------------------------------
Label_0102C611:
 BYTE   N36  Cs3  v100
 BYTE   N36  Fn3  v084
 BYTE   W36
 BYTE   N32  Gs3  v100
 BYTE   N32  Gs4
 BYTE   W36
 BYTE   N21  Fn3  v088
 BYTE   N21  Fn4  v092
 BYTE   W24
 BYTE   PEND 
//  #13 //029   ----------------------------------------
Label_0102C626:
 BYTE   N56  Cn4  v088
 BYTE   N56  Fn4
 BYTE   N56  Cn5  v100
 BYTE   W60
 BYTE   N09  As2  v096
 BYTE   W12
 BYTE   N23  Fn2  v100
 BYTE   W24
 BYTE   PEND 
//  #13 //030   ----------------------------------------
Label_0102C638:
 BYTE   N06  Gn2  v064
 BYTE   N22  Cn3  v088
 BYTE   W12
 BYTE   N11  Gn2  v060
 BYTE   W12
 BYTE   N12  Gs2  v068
 BYTE   W12
 BYTE   N32  Cn3  v100
 BYTE   W36
 BYTE   N11  Ds3
 BYTE   W12
 BYTE   N23  Cn3  v096
 BYTE   W12
 BYTE   PEND 
//  #13 //031   ----------------------------------------
Label_0102C653:
 BYTE   W12
 BYTE   N23  Gn3  v068
 BYTE   W24
 BYTE   N32  Cn4  v100
 BYTE   W36
 BYTE   N20  Ds4  v088
 BYTE   W24
 BYTE   PEND 
//  #13 //032   ----------------------------------------
Label_0102C661:
 BYTE   N32  Gs3  v100
 BYTE   N30  Cs4
 BYTE   N28  Fn4  v088
 BYTE   W24
 BYTE   N44  Fs2  v076
 BYTE   W12
 BYTE   TIE  Gs3  v088
 BYTE   TIE  Cs4  v100
 BYTE   TIE  Fn4
 BYTE   W60
 BYTE   PEND 
//  #13 //033   ----------------------------------------
 BYTE   W36
 BYTE   N56  Fs2  v072
 BYTE   W05
 BYTE   EOT
 BYTE   Gs3  v073
 BYTE   Fn4
 BYTE   W07
 BYTE   N18  Fn3  v088
 BYTE   N09  Gs3  v100
 BYTE   W12
 BYTE   N16  As3  v044
 BYTE   W12
 BYTE   N19  Fn3  v040
 BYTE   W12
 BYTE   N09  Cs3  v100
 BYTE   W12
//  #13 //034   ----------------------------------------
Label_0102C695:
 BYTE   N30  Cn3  v100
 BYTE   W36
 BYTE   N32  Cn3  v092
 BYTE   N24  Fn3  v100
 BYTE   W24
 BYTE   N08  Gn3  v044
 BYTE   W12
 BYTE   N09  Cn3  v036
 BYTE   N16  Gs3  v092
 BYTE   W12
 BYTE   N40  Cn3  v088
 BYTE   N42  Fn3  v096
 BYTE   N44  Cn4  v100
 BYTE   W12
 BYTE   PEND 
//  #13 //035   ----------------------------------------
Label_0102C6B6:
 BYTE   W36
 BYTE   N30  Fn3  v100
 BYTE   N30  Cn4
 BYTE   N30  Fn4  v084
 BYTE   W36
 BYTE   N22  Gn3  v100
 BYTE   N22  Cn4
 BYTE   N23  Gn4  v096
 BYTE   W24
 BYTE   PEND 
//  #13 //036   ----------------------------------------
Label_0102C6CA:
 BYTE   N30  Gs3  v100
 BYTE   N28  Cn4
 BYTE   W36
 BYTE   N92  Gs3  v092
 BYTE   N92  Cn4
 BYTE   W60
 BYTE   PEND 
//  #13 //037   ----------------------------------------
Label_0102C6D7:
 BYTE   W36
 BYTE   N13  As3  v100
 BYTE   W12
 BYTE   N18  Cn4  v068
 BYTE   W12
 BYTE   N32  Gs3  v100
 BYTE   W36
 BYTE   PEND 
//  #13 //038   ----------------------------------------
Label_0102C6E5:
 BYTE   N32  Cn3  v092
 BYTE   N07  En3  v064
 BYTE   N32  As3  v100
 BYTE   W12
 BYTE   N20  En3  v044
 BYTE   N20  Gn3  v048
 BYTE   W24
 BYTE   N32  En3  v072
 BYTE   N32  Cn4  v100
 BYTE   W36
 BYTE   N21  Gn3  v068
 BYTE   N21  En4  v100
 BYTE   W24
 BYTE   PEND 
//  #13 //039   ----------------------------------------
Label_0102C705:
 BYTE   N18  Cn4  v100
 BYTE   N18  En4  v080
 BYTE   N18  Cn5  v100
 BYTE   W19
 BYTE   N06  Cn4  v032
 BYTE   W02
 BYTE   N07  Cn5  v048
 BYTE   W04
 BYTE   N06  Cn4  v040
 BYTE   W04
 BYTE   N05  Cn5  v036
 BYTE   W02
 BYTE   N06  Cn4  v052
 BYTE   W04
 BYTE   N05  Cn5  v028
 BYTE   W03
 BYTE   Cn4  v040
 BYTE   W02
 BYTE   N06  Cn5  v052
 BYTE   W04
 BYTE   Cn4  v072
 BYTE   W03
 BYTE   N04  Cn5  v028
 BYTE   W03
 BYTE   N21  Cn4  v040
 BYTE   W02
 BYTE   N19  Cn5  v056
 BYTE   W20
 BYTE   N23  Cn4  v096
 BYTE   N22  Cn5  v100
 BYTE   W24
 BYTE   PEND 
//  #13 //040   ----------------------------------------
Label_0102C745:
 BYTE   W12
 BYTE   N11  Ds1  v096
 BYTE   N11  Ds5
 BYTE   W12
 BYTE   Cs1  v048
 BYTE   N11  Cs5  v100
 BYTE   W12
 BYTE   Cn1  v048
 BYTE   N11  Cn5  v088
 BYTE   W12
 BYTE   As0  v072
 BYTE   N11  As4  v100
 BYTE   W12
 BYTE   Gs0  v052
 BYTE   N11  Gs4  v100
 BYTE   W12
 BYTE   Gn0  v060
 BYTE   N11  Gn4  v088
 BYTE   W12
 BYTE   N10  Cn1  v096
 BYTE   N11  Cn5  v100
 BYTE   W12
 BYTE   PEND 
//  #13 //041   ----------------------------------------
Label_0102C772:
 BYTE   W12
 BYTE   N11  En3  v092
 BYTE   N11  Gn3  v100
 BYTE   N11  Cn4
 BYTE   W12
 BYTE   As3  v060
 BYTE   W12
 BYTE   Cn4  v092
 BYTE   W12
 BYTE   Gs3  v068
 BYTE   W12
 BYTE   Cn4  v100
 BYTE   W12
 BYTE   Gn3  v068
 BYTE   W12
 BYTE   Cn4  v096
 BYTE   W12
 BYTE   PEND 
//  #13 //042   ----------------------------------------
Label_0102C78F:
 BYTE   N11  Fn0  v096
 BYTE   N11  Fn4  v100
 BYTE   N11  Fn5
 BYTE   W12
 BYTE   Gn0  v092
 BYTE   W12
 BYTE   Gs0  v068
 BYTE   N11  Fn4  v100
 BYTE   N11  Fn5
 BYTE   W12
 BYTE   As0  v068
 BYTE   W12
 BYTE   Gn0  v072
 BYTE   N11  Fn4  v100
 BYTE   N11  Fn5
 BYTE   W12
 BYTE   Gs0  v068
 BYTE   W12
 BYTE   As0  v100
 BYTE   N11  Fn4  v096
 BYTE   N11  Fn5  v100
 BYTE   W12
 BYTE   Cn1  v068
 BYTE   W12
 BYTE   PEND 
//  #13 //043   ----------------------------------------
Label_0102C7BE:
 BYTE   N11  Gs0  v088
 BYTE   N11  Fn4  v100
 BYTE   N11  Fn5
 BYTE   W12
 BYTE   As0  v092
 BYTE   W12
 BYTE   Cn1
 BYTE   N11  Fn4  v080
 BYTE   N11  Fn5  v100
 BYTE   W12
 BYTE   N28  As0
 BYTE   W12
 BYTE   N11  Fn4  v088
 BYTE   N11  Fn5  v100
 BYTE   W24
 BYTE   N23  Cn1  v072
 BYTE   N11  Fn4  v088
 BYTE   N11  Fn5  v100
 BYTE   W24
 BYTE   PEND 
//  #13 //044   ----------------------------------------
Label_0102C7E7:
 BYTE   N11  Fn0  v092
 BYTE   N11  Fn4  v100
 BYTE   N11  Fn5
 BYTE   W12
 BYTE   Gn0  v068
 BYTE   W12
 BYTE   Gs0  v072
 BYTE   N11  Fn4  v092
 BYTE   N11  Fn5  v100
 BYTE   W12
 BYTE   As0  v096
 BYTE   W12
 BYTE   Gn0  v092
 BYTE   N11  Fn4  v100
 BYTE   N11  Fn5
 BYTE   W12
 BYTE   Gs0  v096
 BYTE   W12
 BYTE   As0  v072
 BYTE   N11  Fn4  v088
 BYTE   N11  Fn5  v100
 BYTE   W12
 BYTE   Cn1  v068
 BYTE   W12
 BYTE   PEND 
//  #13 //045   ----------------------------------------
Label_0102C817:
 BYTE   N11  Gs0  v068
 BYTE   N11  Fn4  v084
 BYTE   N11  Fn5  v100
 BYTE   W12
 BYTE   As0  v096
 BYTE   W12
 BYTE   Cn1  v100
 BYTE   N11  Fn4
 BYTE   N11  Fn5
 BYTE   W12
 BYTE   N17  As0
 BYTE   W12
 BYTE   N11  Fn4
 BYTE   N11  Fn5
 BYTE   W12
 BYTE   As0  v096
 BYTE   W12
 BYTE   N23  Cn1  v088
 BYTE   N11  Fn4  v100
 BYTE   N11  Fn5
 BYTE   W24
 BYTE   PEND 
//  #13 //046   ----------------------------------------
Label_0102C840:
 BYTE   N11  Fn0  v072
 BYTE   N11  Fn4  v068
 BYTE   N11  Fn5  v100
 BYTE   W12
 BYTE   Gn0  v072
 BYTE   W12
 BYTE   Gs0
 BYTE   N11  Fn4  v096
 BYTE   N11  Fn5  v092
 BYTE   W12
 BYTE   As0  v088
 BYTE   W12
 BYTE   Gn0  v072
 BYTE   N11  Fn4  v100
 BYTE   N11  Fn5
 BYTE   W12
 BYTE   Gs0  v092
 BYTE   W12
 BYTE   As0  v088
 BYTE   N11  Fn4  v100
 BYTE   N11  Fn5
 BYTE   W12
 BYTE   Cn1  v068
 BYTE   W12
 BYTE   PEND 
//  #13 //047   ----------------------------------------
Label_0102C86F:
 BYTE   N11  Gs0  v072
 BYTE   N11  Fn4  v100
 BYTE   N11  Fn5
 BYTE   W12
 BYTE   As0  v092
 BYTE   W12
 BYTE   Cn1  v072
 BYTE   N11  Fn4  v100
 BYTE   N11  Fn5
 BYTE   W12
 BYTE   N17  As0
 BYTE   W12
 BYTE   N11  Fn4
 BYTE   N11  Fn5
 BYTE   W12
 BYTE   As0
 BYTE   W12
 BYTE   Cn1  v064
 BYTE   N11  Fn4  v100
 BYTE   N11  Fn5
 BYTE   W12
 BYTE   Cn1  v096
 BYTE   W12
 BYTE   PEND 
//  #13 //048   ----------------------------------------
Label_0102C899:
 BYTE   N11  Fn0  v092
 BYTE   N11  Fn4  v088
 BYTE   N11  Fn5  v100
 BYTE   W12
 BYTE   Gn0  v068
 BYTE   W12
 BYTE   Gs0  v088
 BYTE   N11  Fn4
 BYTE   N11  Fn5  v100
 BYTE   W12
 BYTE   As0
 BYTE   W12
 BYTE   Gn0  v096
 BYTE   N11  Fn4  v100
 BYTE   N11  Fn5
 BYTE   W12
 BYTE   Gs0  v088
 BYTE   W12
 BYTE   As0
 BYTE   N11  Fn4
 BYTE   N11  Fn5  v100
 BYTE   W12
 BYTE   Cn1  v072
 BYTE   W12
 BYTE   PEND 
//  #13 //049   ----------------------------------------
Label_0102C8C6:
 BYTE   N11  Gs0  v100
 BYTE   N11  Fn4
 BYTE   N11  Fn5
 BYTE   W12
 BYTE   As0  v096
 BYTE   W12
 BYTE   Cn1  v092
 BYTE   N11  Fn4  v100
 BYTE   N11  Fn5
 BYTE   W12
 BYTE   N17  As0
 BYTE   W12
 BYTE   N11  Fn4  v088
 BYTE   N11  Fn5  v100
 BYTE   W12
 BYTE   As0
 BYTE   W12
 BYTE   N23  Ds1  v092
 BYTE   N23  Gn3  v084
 BYTE   N23  As3  v100
 BYTE   N23  Ds4
 BYTE   W24
 BYTE   PEND 
//  #13 //050   ----------------------------------------
 BYTE   N14  Fn1  v092
 BYTE   N14  Fn2
 BYTE   N14  Cn3  v080
 BYTE   W18
 BYTE   N06  Fn1  v084
 BYTE   N06  Fn2
 BYTE   N06  Cn3  v060
 BYTE   W78
//  #13 //051   ----------------------------------------
 BYTE   W96
//  #13 //052   ----------------------------------------
 BYTE   GoTo
  POIN2 Label_0102C40F
//  #13 //053   ----------------------------------------
 BYTE   PATT
  POIN2 Label_0102C40F
//  #13 //054   ----------------------------------------
 BYTE   PATT
  POIN2 Label_0102C423
//  #13 //055   ----------------------------------------
 BYTE   PATT
  POIN2 Label_0102C432
//  #13 //056   ----------------------------------------
 BYTE   PATT
  POIN2 Label_0102C450
//  #13 //057   ----------------------------------------
 BYTE   PATT
  POIN2 Label_0102C45F
//  #13 //058   ----------------------------------------
 BYTE   PATT
  POIN2 Label_0102C473
//  #13 //059   ----------------------------------------
 BYTE   PATT
  POIN2 Label_0102C486
//  #13 //060   ----------------------------------------
 BYTE   W23
 BYTE   EOT
 BYTE   Cn3  v065
 BYTE   Gs3
 BYTE   W13
 BYTE   N56  Cn3  v092
 BYTE   N56  Ds3  v088
 BYTE   N56  Gn3  v096
 BYTE   W60
//  #13 //061   ----------------------------------------
 BYTE   PATT
  POIN2 Label_0102C49F
//  #13 //062   ----------------------------------------
 BYTE   PATT
  POIN2 Label_0102C4B2
//  #13 //063   ----------------------------------------
 BYTE   PATT
  POIN2 Label_0102C4C1
//  #13 //064   ----------------------------------------
 BYTE   PATT
  POIN2 Label_0102C4D0
//  #13 //065   ----------------------------------------
 BYTE   PATT
  POIN2 Label_0102C4F1
//  #13 //066   ----------------------------------------
 BYTE   PATT
  POIN2 Label_0102C4FC
//  #13 //067   ----------------------------------------
 BYTE   PATT
  POIN2 Label_0102C518
//  #13 //068   ----------------------------------------
 BYTE   PATT
  POIN2 Label_0102C524
//  #13 //069   ----------------------------------------
 BYTE   PATT
  POIN2 Label_0102C543
//  #13 //070   ----------------------------------------
 BYTE   PATT
  POIN2 Label_0102C55E
//  #13 //071   ----------------------------------------
 BYTE   PATT
  POIN2 Label_0102C572
//  #13 //072   ----------------------------------------
 BYTE   PATT
  POIN2 Label_0102C585
//  #13 //073   ----------------------------------------
 BYTE   PATT
  POIN2 Label_0102C59D
//  #13 //074   ----------------------------------------
 BYTE   PATT
  POIN2 Label_0102C5B7
//  #13 //075   ----------------------------------------
 BYTE   PATT
  POIN2 Label_0102C5C7
//  #13 //076   ----------------------------------------
 BYTE   PATT
  POIN2 Label_0102C5DB
//  #13 //077   ----------------------------------------
 BYTE   PATT
  POIN2 Label_0102C5F1
//  #13 //078   ----------------------------------------
 BYTE   PATT
  POIN2 Label_0102C603
//  #13 //079   ----------------------------------------
 BYTE   PATT
  POIN2 Label_0102C611
//  #13 //080   ----------------------------------------
 BYTE   PATT
  POIN2 Label_0102C626
//  #13 //081   ----------------------------------------
 BYTE   PATT
  POIN2 Label_0102C638
//  #13 //082   ----------------------------------------
 BYTE   PATT
  POIN2 Label_0102C653
//  #13 //083   ----------------------------------------
 BYTE   PATT
  POIN2 Label_0102C661
//  #13 //084   ----------------------------------------
 BYTE   W36
 BYTE   N56  Fs2  v072
 BYTE   W05
 BYTE   EOT
 BYTE   Gs3  v073
 BYTE   Fn4
 BYTE   W07
 BYTE   N18  Fn3  v088
 BYTE   N09  Gs3  v100
 BYTE   W12
 BYTE   N16  As3  v044
 BYTE   W12
 BYTE   N19  Fn3  v040
 BYTE   W12
 BYTE   N09  Cs3  v100
 BYTE   W12
//  #13 //085   ----------------------------------------
 BYTE   PATT
  POIN2 Label_0102C695
//  #13 //086   ----------------------------------------
 BYTE   PATT
  POIN2 Label_0102C6B6
//  #13 //087   ----------------------------------------
 BYTE   PATT
  POIN2 Label_0102C6CA
//  #13 //088   ----------------------------------------
 BYTE   PATT
  POIN2 Label_0102C6D7
//  #13 //089   ----------------------------------------
 BYTE   PATT
  POIN2 Label_0102C6E5
//  #13 //090   ----------------------------------------
 BYTE   PATT
  POIN2 Label_0102C705
//  #13 //091   ----------------------------------------
 BYTE   PATT
  POIN2 Label_0102C745
//  #13 //092   ----------------------------------------
 BYTE   PATT
  POIN2 Label_0102C772
//  #13 //093   ----------------------------------------
 BYTE   PATT
  POIN2 Label_0102C78F
//  #13 //094   ----------------------------------------
 BYTE   PATT
  POIN2 Label_0102C7BE
//  #13 //095   ----------------------------------------
 BYTE   PATT
  POIN2 Label_0102C7E7
//  #13 //096   ----------------------------------------
 BYTE   PATT
  POIN2 Label_0102C817
//  #13 //097   ----------------------------------------
 BYTE   PATT
  POIN2 Label_0102C840
//  #13 //098   ----------------------------------------
 BYTE   PATT
  POIN2 Label_0102C86F
//  #13 //099   ----------------------------------------
 BYTE   PATT
  POIN2 Label_0102C899
//  #13 //100   ----------------------------------------
 BYTE   PATT
  POIN2 Label_0102C8C6
//  #13 //101   ----------------------------------------
 BYTE   W96
//  #13 //102   ----------------------------------------
 BYTE   W96
//  #13 //103   ----------------------------------------
 BYTE   W96
//  #13 //104   ----------------------------------------
 BYTE   W96
//  #13 //105   ----------------------------------------
 BYTE   W15
 BYTE   FINE

//**************** Track 14 (Midi-Chn.13) ****************//

AceAttorney2WantingtoFindtheTruthSurfingKyogre_014:
//  #14 //000   ----------------------------------------
 BYTE   KEYSH   AceAttorney2WantingtoFindtheTruthSurfingKyogre_key+0
 BYTE   VOICE   121
 BYTE   PAN   c_v+0
 BYTE   VOL   44*AceAttorney2WantingtoFindtheTruthSurfingKyogre_mvl/mxv
 BYTE   N01  Cn1  v120
 BYTE   N01  Cs2  v112
 BYTE   W96
//  #14 //001   ----------------------------------------
 BYTE   W96
//  #14 //002   ----------------------------------------
Label_0102CA34:
 BYTE   N01  Cn1  v120
 BYTE   N01  Fs1  v080
 BYTE   W12
 BYTE   Fs1  v064
 BYTE   W06
 BYTE   N01
 BYTE   W06
 BYTE   Cn1  v120
 BYTE   N01  Fs1  v088
 BYTE   W12
 BYTE   Fs1  v072
 BYTE   W06
 BYTE   Fs1  v056
 BYTE   W06
 BYTE   Cn1  v120
 BYTE   N01  Fs1  v084
 BYTE   W12
 BYTE   Fs1  v072
 BYTE   W06
 BYTE   Fs1  v068
 BYTE   W06
 BYTE   Cn1  v120
 BYTE   N01  Fs1  v084
 BYTE   W12
 BYTE   Fs1  v072
 BYTE   W06
 BYTE   Fs1  v064
 BYTE   W06
 BYTE   PEND 
//  #14 //003   ----------------------------------------
 BYTE   PATT
  POIN2 Label_0102CA34
//  #14 //004   ----------------------------------------
Label_0102CA6A:
 BYTE   N01  Cn1  v120
 BYTE   N01  Fs1  v088
 BYTE   W12
 BYTE   Fs1  v072
 BYTE   W06
 BYTE   Fs1  v064
 BYTE   W06
 BYTE   Cn1  v120
 BYTE   N01  En1
 BYTE   N01  Fs1  v080
 BYTE   W12
 BYTE   Fs1  v064
 BYTE   W06
 BYTE   Fs1  v068
 BYTE   W06
 BYTE   Cn1  v120
 BYTE   N01  Fs1  v084
 BYTE   W12
 BYTE   Fs1  v068
 BYTE   W06
 BYTE   Fs1  v060
 BYTE   W06
 BYTE   Cn1  v120
 BYTE   N01  En1
 BYTE   N01  Fs1  v080
 BYTE   W12
 BYTE   Fs1  v072
 BYTE   W06
 BYTE   Fs1  v060
 BYTE   W06
 BYTE   PEND 
//  #14 //005   ----------------------------------------
Label_0102CAA0:
 BYTE   N01  Cn1  v120
 BYTE   N01  Fs1  v080
 BYTE   W12
 BYTE   Fs1  v064
 BYTE   W06
 BYTE   N01
 BYTE   W06
 BYTE   Cn1  v120
 BYTE   N01  En1
 BYTE   N01  Fs1  v088
 BYTE   W12
 BYTE   Fs1  v072
 BYTE   W06
 BYTE   Fs1  v056
 BYTE   W06
 BYTE   Cn1  v120
 BYTE   N01  Fs1  v084
 BYTE   W12
 BYTE   Fs1  v072
 BYTE   W06
 BYTE   Fs1  v068
 BYTE   W06
 BYTE   Cn1  v120
 BYTE   N01  En1
 BYTE   N01  Fs1  v084
 BYTE   W12
 BYTE   Cn1  v120
 BYTE   N01  Fs1  v072
 BYTE   W06
 BYTE   Fs1  v064
 BYTE   W06
 BYTE   PEND 
//  #14 //006   ----------------------------------------
Label_0102CAD8:
 BYTE   N01  Fs1  v080
 BYTE   W12
 BYTE   Cn1  v120
 BYTE   N01  Fs1  v064
 BYTE   W06
 BYTE   N01
 BYTE   W06
 BYTE   Cn1  v120
 BYTE   N01  En1
 BYTE   N01  Fs1  v088
 BYTE   W12
 BYTE   Fs1  v072
 BYTE   W06
 BYTE   Fs1  v056
 BYTE   W06
 BYTE   Cn1  v120
 BYTE   N01  Fs1  v084
 BYTE   W12
 BYTE   Fs1  v072
 BYTE   W06
 BYTE   Fs1  v068
 BYTE   W06
 BYTE   Cn1  v120
 BYTE   N01  En1
 BYTE   N01  Fs1  v084
 BYTE   W12
 BYTE   Cn1  v120
 BYTE   N01  En1
 BYTE   N01  As1  v080
 BYTE   W12
 BYTE   PEND 
//  #14 //007   ----------------------------------------
Label_0102CB0F:
 BYTE   N01  En1  v084
 BYTE   W06
 BYTE   En1  v108
 BYTE   W06
 BYTE   En1  v120
 BYTE   W12
 BYTE   Gs1  v064
 BYTE   N01  An1  v112
 BYTE   W12
 BYTE   Cn1  v120
 BYTE   N01  Fn1
 BYTE   W06
 BYTE   An1
 BYTE   W12
 BYTE   Cn2  v100
 BYTE   W06
 BYTE   Cn1  v120
 BYTE   N01  Cn2  v112
 BYTE   N01  En2
 BYTE   W06
 BYTE   Cn2  v120
 BYTE   W06
 BYTE   En1
 BYTE   W06
 BYTE   Fs1  v072
 BYTE   N01  An1  v120
 BYTE   W06
 BYTE   Fn1  v112
 BYTE   N01  As1  v080
 BYTE   W06
 BYTE   En1  v120
 BYTE   W06
 BYTE   PEND 
//  #14 //008   ----------------------------------------
Label_0102CB46:
 BYTE   N01  Cn1  v120
 BYTE   N01  Fs1  v068
 BYTE   N01  Cs2  v112
 BYTE   N01  En3  v060
 BYTE   W06
 BYTE   En3  v040
 BYTE   W06
 BYTE   As1  v076
 BYTE   N01  En3  v092
 BYTE   W06
 BYTE   En3  v040
 BYTE   W06
 BYTE   En1  v120
 BYTE   N01  Fs1  v080
 BYTE   N01  En3  v060
 BYTE   W06
 BYTE   En3  v040
 BYTE   W06
 BYTE   Cn1  v120
 BYTE   N01  As1  v076
 BYTE   N01  En3  v092
 BYTE   W06
 BYTE   En3  v040
 BYTE   W06
 BYTE   Fs1  v080
 BYTE   N01  En3  v060
 BYTE   W06
 BYTE   En3  v040
 BYTE   W06
 BYTE   Cn1  v120
 BYTE   N01  As1  v076
 BYTE   N01  En3  v092
 BYTE   W06
 BYTE   En3  v040
 BYTE   W06
 BYTE   En1  v120
 BYTE   N01  Fs1  v080
 BYTE   N01  En3  v060
 BYTE   W06
 BYTE   En3  v040
 BYTE   W06
 BYTE   As1  v076
 BYTE   N01  En3  v092
 BYTE   W06
 BYTE   En3  v040
 BYTE   W06
 BYTE   PEND 
//  #14 //009   ----------------------------------------
Label_0102CBA2:
 BYTE   N01  Cn1  v120
 BYTE   N01  Fs1  v080
 BYTE   N01  En3  v060
 BYTE   W06
 BYTE   En3  v040
 BYTE   W06
 BYTE   As1  v076
 BYTE   N01  En3  v092
 BYTE   W06
 BYTE   En3  v040
 BYTE   W06
 BYTE   En1  v120
 BYTE   N01  Fs1  v080
 BYTE   N01  En3  v060
 BYTE   W06
 BYTE   En3  v040
 BYTE   W06
 BYTE   As1  v076
 BYTE   N01  En3  v092
 BYTE   W06
 BYTE   En3  v040
 BYTE   W06
 BYTE   Cn1  v120
 BYTE   N01  Fs1  v080
 BYTE   N01  En3  v060
 BYTE   W06
 BYTE   En3  v040
 BYTE   W06
 BYTE   As1  v076
 BYTE   N01  En3  v092
 BYTE   W06
 BYTE   En3  v040
 BYTE   W06
 BYTE   En1  v120
 BYTE   N01  Fs1  v080
 BYTE   N01  En3  v060
 BYTE   W06
 BYTE   En3  v040
 BYTE   W06
 BYTE   As1  v076
 BYTE   N01  En3  v092
 BYTE   W06
 BYTE   En3  v040
 BYTE   W06
 BYTE   PEND 
//  #14 //010   ----------------------------------------
Label_0102CBF8:
 BYTE   N01  Cn1  v120
 BYTE   N01  Fs1  v080
 BYTE   N01  En3  v060
 BYTE   W06
 BYTE   En3  v040
 BYTE   W06
 BYTE   As1  v076
 BYTE   N01  En3  v092
 BYTE   W06
 BYTE   En3  v040
 BYTE   W06
 BYTE   En1  v120
 BYTE   N01  Fs1  v080
 BYTE   N01  En3  v060
 BYTE   W06
 BYTE   En3  v040
 BYTE   W06
 BYTE   Cn1  v120
 BYTE   N01  As1  v076
 BYTE   N01  En3  v092
 BYTE   W06
 BYTE   En3  v040
 BYTE   W06
 BYTE   Fs1  v080
 BYTE   N01  En3  v060
 BYTE   W06
 BYTE   En3  v040
 BYTE   W06
 BYTE   Cn1  v120
 BYTE   N01  As1  v076
 BYTE   N01  En3  v092
 BYTE   W06
 BYTE   En3  v040
 BYTE   W06
 BYTE   En1  v120
 BYTE   N01  Fs1  v080
 BYTE   N01  En3  v060
 BYTE   W06
 BYTE   En3  v040
 BYTE   W06
 BYTE   As1  v076
 BYTE   N01  En3  v092
 BYTE   W06
 BYTE   En3  v040
 BYTE   W06
 BYTE   PEND 
//  #14 //011   ----------------------------------------
 BYTE   PATT
  POIN2 Label_0102CBF8
//  #14 //012   ----------------------------------------
 BYTE   PATT
  POIN2 Label_0102CBF8
//  #14 //013   ----------------------------------------
 BYTE   PATT
  POIN2 Label_0102CBF8
//  #14 //014   ----------------------------------------
 BYTE   PATT
  POIN2 Label_0102CBF8
//  #14 //015   ----------------------------------------
Label_0102CC65:
 BYTE   N01  Cn1  v120
 BYTE   N01  En1
 BYTE   N01  Fs1  v080
 BYTE   N01  En3
 BYTE   W36
 BYTE   Cn1  v120
 BYTE   N01  En3  v092
 BYTE   W24
 BYTE   Cn1  v120
 BYTE   W08
 BYTE   En1  v100
 BYTE   W04
 BYTE   En1  v120
 BYTE   W12
 BYTE   Cn1
 BYTE   N01  As1  v076
 BYTE   W12
 BYTE   PEND 
//  #14 //016   ----------------------------------------
Label_0102CC85:
 BYTE   N01  Cn1  v120
 BYTE   N01  Fs1  v080
 BYTE   N01  Cs2  v112
 BYTE   N01  En3  v060
 BYTE   W06
 BYTE   En3  v040
 BYTE   W06
 BYTE   As1  v076
 BYTE   N01  En3  v092
 BYTE   W06
 BYTE   En3  v040
 BYTE   W06
 BYTE   En1  v120
 BYTE   N01  Fs1  v080
 BYTE   N01  En3  v060
 BYTE   W06
 BYTE   En3  v040
 BYTE   W06
 BYTE   Cn1  v120
 BYTE   N01  As1  v076
 BYTE   N01  En3  v092
 BYTE   W06
 BYTE   En3  v040
 BYTE   W06
 BYTE   Fs1  v080
 BYTE   N01  En3  v060
 BYTE   W06
 BYTE   En3  v040
 BYTE   W06
 BYTE   Cn1  v120
 BYTE   N01  As1  v076
 BYTE   N01  En3  v092
 BYTE   W06
 BYTE   En3  v040
 BYTE   W06
 BYTE   En1  v120
 BYTE   N01  Fs1  v080
 BYTE   N01  En3  v060
 BYTE   W06
 BYTE   En3  v040
 BYTE   W06
 BYTE   As1  v076
 BYTE   N01  En3  v092
 BYTE   W06
 BYTE   En3  v040
 BYTE   W06
 BYTE   PEND 
//  #14 //017   ----------------------------------------
Label_0102CCE1:
 BYTE   N01  Cn1  v120
 BYTE   N01  Fs1  v080
 BYTE   N01  En3  v060
 BYTE   W06
 BYTE   En3  v040
 BYTE   W06
 BYTE   As1  v076
 BYTE   N01  En3  v092
 BYTE   W06
 BYTE   En3  v040
 BYTE   W06
 BYTE   En1  v120
 BYTE   N01  Fs1  v080
 BYTE   N01  En3  v060
 BYTE   W06
 BYTE   En3  v040
 BYTE   W06
 BYTE   Cn1  v120
 BYTE   N01  As1  v076
 BYTE   N01  En3  v092
 BYTE   W06
 BYTE   En3  v040
 BYTE   W06
 BYTE   Fs1  v080
 BYTE   N01  En3  v060
 BYTE   W06
 BYTE   En3  v040
 BYTE   W06
 BYTE   Cn1  v120
 BYTE   N01  As1  v076
 BYTE   N01  En3  v092
 BYTE   W06
 BYTE   En3  v040
 BYTE   W06
 BYTE   En1  v120
 BYTE   N01  Fs1  v080
 BYTE   N01  En3  v060
 BYTE   W06
 BYTE   En3  v040
 BYTE   W06
 BYTE   Cn1  v120
 BYTE   N01  As1  v076
 BYTE   N01  En3  v092
 BYTE   W06
 BYTE   En3  v040
 BYTE   W06
 BYTE   PEND 
//  #14 //018   ----------------------------------------
 BYTE   PATT
  POIN2 Label_0102CBF8
//  #14 //019   ----------------------------------------
 BYTE   PATT
  POIN2 Label_0102CBA2
//  #14 //020   ----------------------------------------
 BYTE   PATT
  POIN2 Label_0102CBF8
//  #14 //021   ----------------------------------------
Label_0102CD4C:
 BYTE   N01  Cn1  v120
 BYTE   N01  Cs2  v112
 BYTE   N01  En3  v060
 BYTE   W06
 BYTE   En3  v040
 BYTE   W06
 BYTE   As1  v076
 BYTE   N01  En3  v092
 BYTE   W06
 BYTE   En3  v040
 BYTE   W06
 BYTE   En1  v120
 BYTE   N01  Fs1  v080
 BYTE   N01  En3  v060
 BYTE   W06
 BYTE   En3  v040
 BYTE   W06
 BYTE   Cn1  v120
 BYTE   N01  En2  v116
 BYTE   N01  En3  v092
 BYTE   W06
 BYTE   En3  v040
 BYTE   W06
 BYTE   Fs1  v080
 BYTE   N01  En3  v060
 BYTE   W06
 BYTE   En3  v040
 BYTE   W06
 BYTE   Cn1  v120
 BYTE   N01  As1  v076
 BYTE   N01  En3  v092
 BYTE   W06
 BYTE   En3  v040
 BYTE   W06
 BYTE   En1  v120
 BYTE   N01  Fs1  v080
 BYTE   N01  En3  v060
 BYTE   W06
 BYTE   En3  v040
 BYTE   W06
 BYTE   As1  v076
 BYTE   N01  En3  v092
 BYTE   W06
 BYTE   En3  v040
 BYTE   W06
 BYTE   PEND 
//  #14 //022   ----------------------------------------
Label_0102CDA5:
 BYTE   N01  Cn1  v120
 BYTE   N01  Fs1  v080
 BYTE   N01  En3  v060
 BYTE   W06
 BYTE   En3  v040
 BYTE   W06
 BYTE   As1  v076
 BYTE   N01  En3  v092
 BYTE   W06
 BYTE   En3  v040
 BYTE   W06
 BYTE   En1  v120
 BYTE   N01  Fs1  v080
 BYTE   N01  En3  v060
 BYTE   W06
 BYTE   En3  v040
 BYTE   W06
 BYTE   As1  v076
 BYTE   N01  En3  v092
 BYTE   W06
 BYTE   En3  v040
 BYTE   W06
 BYTE   Cn1  v120
 BYTE   N01  Fs1  v080
 BYTE   N01  En3  v060
 BYTE   W06
 BYTE   En3  v040
 BYTE   W06
 BYTE   As1  v076
 BYTE   N01  En3  v092
 BYTE   W06
 BYTE   En3  v040
 BYTE   W06
 BYTE   En1  v120
 BYTE   N01  Fs1  v080
 BYTE   N01  En3  v060
 BYTE   W06
 BYTE   En3  v040
 BYTE   W06
 BYTE   Cn1  v120
 BYTE   N01  En3  v092
 BYTE   W12
 BYTE   PEND 
//  #14 //023   ----------------------------------------
Label_0102CDF8:
 BYTE   W12
 BYTE   N01  Cn1  v120
 BYTE   N01  En3  v092
 BYTE   W12
 BYTE   En1  v120
 BYTE   N01  En3  v080
 BYTE   W12
 BYTE   An1  v120
 BYTE   N01  En3  v092
 BYTE   W12
 BYTE   Cn1  v120
 BYTE   W12
 BYTE   N01
 BYTE   N01  En3  v092
 BYTE   W12
 BYTE   En1  v120
 BYTE   W12
 BYTE   N01
 BYTE   W12
 BYTE   PEND 
//  #14 //024   ----------------------------------------
Label_0102CE1A:
 BYTE   N01  Cn1  v120
 BYTE   N01  En2  v112
 BYTE   W24
 BYTE   Fn2  v076
 BYTE   W12
 BYTE   Cn1  v060
 BYTE   W06
 BYTE   Cn1  v076
 BYTE   W06
 BYTE   En1  v120
 BYTE   N01  Fn2  v084
 BYTE   W12
 BYTE   Cn1  v120
 BYTE   W12
 BYTE   Fn2  v076
 BYTE   W12
 BYTE   Cn1  v120
 BYTE   W12
 BYTE   PEND 
//  #14 //025   ----------------------------------------
Label_0102CE3A:
 BYTE   N01  Fn2  v076
 BYTE   W12
 BYTE   Cn1  v120
 BYTE   W12
 BYTE   N01
 BYTE   N01  Fn2  v076
 BYTE   W24
 BYTE   En1  v120
 BYTE   N01  Fn2  v076
 BYTE   W12
 BYTE   Cn1  v120
 BYTE   W12
 BYTE   Fn2  v076
 BYTE   W12
 BYTE   Cn1  v120
 BYTE   W12
 BYTE   PEND 
//  #14 //026   ----------------------------------------
Label_0102CE56:
 BYTE   N01  Cn1  v120
 BYTE   N01  Fn2  v084
 BYTE   W12
 BYTE   Cn1  v108
 BYTE   W12
 BYTE   Fn2  v076
 BYTE   W12
 BYTE   Cn1  v108
 BYTE   W12
 BYTE   En1  v120
 BYTE   N01  Fn2  v076
 BYTE   W12
 BYTE   Cn1  v120
 BYTE   W12
 BYTE   Fn2  v084
 BYTE   W12
 BYTE   Cn1  v120
 BYTE   W12
 BYTE   PEND 
//  #14 //027   ----------------------------------------
Label_0102CE76:
 BYTE   N01  Fn2  v076
 BYTE   W12
 BYTE   Cn1  v120
 BYTE   W12
 BYTE   N01
 BYTE   N01  Fn2  v072
 BYTE   W12
 BYTE   Fn2  v076
 BYTE   W12
 BYTE   En1  v120
 BYTE   W12
 BYTE   Cn1
 BYTE   N01  Fn2  v072
 BYTE   W12
 BYTE   Fn2  v076
 BYTE   W12
 BYTE   Cn1  v120
 BYTE   N01  Fn2  v076
 BYTE   W12
 BYTE   PEND 
//  #14 //028   ----------------------------------------
Label_0102CE97:
 BYTE   N01  Cn1  v120
 BYTE   N01  Fn2  v084
 BYTE   W24
 BYTE   Fn2  v076
 BYTE   W12
 BYTE   Cn1  v060
 BYTE   W06
 BYTE   Cn1  v076
 BYTE   W06
 BYTE   En1  v120
 BYTE   N01  Fn2  v076
 BYTE   W12
 BYTE   Cn1  v120
 BYTE   W12
 BYTE   Fn2  v076
 BYTE   W12
 BYTE   Cn1  v120
 BYTE   W12
 BYTE   PEND 
//  #14 //029   ----------------------------------------
Label_0102CEB7:
 BYTE   N01  Fn2  v072
 BYTE   W12
 BYTE   Cn1  v120
 BYTE   W12
 BYTE   N01
 BYTE   N01  Fn2  v076
 BYTE   W24
 BYTE   En1  v120
 BYTE   N01  Fn2  v072
 BYTE   W12
 BYTE   Cn1  v120
 BYTE   W12
 BYTE   Fn2  v072
 BYTE   W12
 BYTE   Cn1  v120
 BYTE   N01  Fn2  v076
 BYTE   W12
 BYTE   PEND 
//  #14 //030   ----------------------------------------
Label_0102CED6:
 BYTE   N01  Cn1  v120
 BYTE   N01  Fn2  v084
 BYTE   W12
 BYTE   Cn1  v108
 BYTE   W12
 BYTE   Fn2  v076
 BYTE   W12
 BYTE   Cn1  v108
 BYTE   W12
 BYTE   En1  v120
 BYTE   N01  Fn2  v084
 BYTE   W12
 BYTE   Cn1  v120
 BYTE   W12
 BYTE   Fn2  v076
 BYTE   W12
 BYTE   Cn1  v120
 BYTE   W12
 BYTE   PEND 
//  #14 //031   ----------------------------------------
Label_0102CEF6:
 BYTE   N01  Cn1  v120
 BYTE   N01  Fn2  v084
 BYTE   W24
 BYTE   Fn2  v076
 BYTE   W12
 BYTE   Cn1  v120
 BYTE   N01  En1  v052
 BYTE   W06
 BYTE   En1  v064
 BYTE   W06
 BYTE   En1  v120
 BYTE   N01  Fn2  v076
 BYTE   W12
 BYTE   Cn1  v120
 BYTE   N01  Cn2  v112
 BYTE   W06
 BYTE   Cn2  v120
 BYTE   W06
 BYTE   An1  v112
 BYTE   N01  Fn2  v084
 BYTE   W06
 BYTE   An1  v120
 BYTE   W06
 BYTE   Fn1  v112
 BYTE   W06
 BYTE   Fn1  v116
 BYTE   W06
 BYTE   PEND 
//  #14 //032   ----------------------------------------
Label_0102CF28:
 BYTE   N01  Cn1  v120
 BYTE   N01  En2  v112
 BYTE   W12
 BYTE   As1  v076
 BYTE   N01  Cn2  v112
 BYTE   W12
 BYTE   En1  v120
 BYTE   N01  Fs1  v080
 BYTE   W12
 BYTE   Cn1  v120
 BYTE   N01  Fn1  v112
 BYTE   N01  As1  v076
 BYTE   W12
 BYTE   Fs1  v080
 BYTE   W12
 BYTE   Cn1  v120
 BYTE   N01  As1  v076
 BYTE   W12
 BYTE   En1  v120
 BYTE   N01  Fs1  v080
 BYTE   W12
 BYTE   As1  v076
 BYTE   W12
 BYTE   PEND 
//  #14 //033   ----------------------------------------
Label_0102CF57:
 BYTE   N01  Cn1  v120
 BYTE   N01  Fs1  v080
 BYTE   W12
 BYTE   En1  v120
 BYTE   N01  As1  v076
 BYTE   W12
 BYTE   Fs1  v080
 BYTE   W12
 BYTE   Cn1  v120
 BYTE   N01  As1  v076
 BYTE   W12
 BYTE   En1  v120
 BYTE   N01  Fs1  v080
 BYTE   W12
 BYTE   As1  v076
 BYTE   W12
 BYTE   En1  v120
 BYTE   N01  Fs1  v080
 BYTE   W12
 BYTE   As1  v076
 BYTE   W12
 BYTE   PEND 
//  #14 //034   ----------------------------------------
Label_0102CF80:
 BYTE   N01  Cn1  v120
 BYTE   N01  Fs1  v080
 BYTE   W12
 BYTE   As1  v076
 BYTE   W12
 BYTE   En1  v120
 BYTE   N01  Fs1  v080
 BYTE   W12
 BYTE   Cn1  v120
 BYTE   N01  As1  v076
 BYTE   W12
 BYTE   Fs1  v080
 BYTE   W12
 BYTE   Cn1  v120
 BYTE   N01  As1  v076
 BYTE   W12
 BYTE   En1  v120
 BYTE   N01  Fs1  v080
 BYTE   W12
 BYTE   As1  v076
 BYTE   W12
 BYTE   PEND 
//  #14 //035   ----------------------------------------
Label_0102CFA9:
 BYTE   N01  Cn1  v120
 BYTE   N01  Fs1  v080
 BYTE   W12
 BYTE   En1  v120
 BYTE   N01  As1  v076
 BYTE   W12
 BYTE   Fs1  v080
 BYTE   W12
 BYTE   En1  v120
 BYTE   N01  As1  v076
 BYTE   W12
 BYTE   Cn1  v120
 BYTE   N01  Fs1  v080
 BYTE   W12
 BYTE   As1  v076
 BYTE   W12
 BYTE   En1  v120
 BYTE   N01  Fs1  v080
 BYTE   W12
 BYTE   En2  v112
 BYTE   W12
 BYTE   PEND 
//  #14 //036   ----------------------------------------
Label_0102CFD2:
 BYTE   N01  Cn1  v120
 BYTE   N01  Cs2  v112
 BYTE   W12
 BYTE   As1  v076
 BYTE   W12
 BYTE   En1  v120
 BYTE   N01  Fs1  v080
 BYTE   W12
 BYTE   Cn1  v120
 BYTE   N01  As1  v076
 BYTE   W12
 BYTE   Fs1  v080
 BYTE   W12
 BYTE   Cn1  v120
 BYTE   N01  As1  v076
 BYTE   W12
 BYTE   En1  v120
 BYTE   N01  Fs1  v080
 BYTE   W12
 BYTE   As1  v076
 BYTE   W12
 BYTE   PEND 
//  #14 //037   ----------------------------------------
 BYTE   PATT
  POIN2 Label_0102CF80
//  #14 //038   ----------------------------------------
Label_0102D000:
 BYTE   N01  Cn1  v120
 BYTE   N01  Fs1  v080
 BYTE   W12
 BYTE   As1  v076
 BYTE   W12
 BYTE   En1  v120
 BYTE   N01  Fs1  v080
 BYTE   W12
 BYTE   Cn1  v120
 BYTE   N01  As1  v076
 BYTE   W12
 BYTE   Fs1  v080
 BYTE   W12
 BYTE   Cn1  v120
 BYTE   N01  As1  v076
 BYTE   W12
 BYTE   En1  v120
 BYTE   N01  Fs1  v080
 BYTE   W12
 BYTE   Cn1  v120
 BYTE   N01  As1  v076
 BYTE   W12
 BYTE   PEND 
//  #14 //039   ----------------------------------------
Label_0102D02C:
 BYTE   N01  Fs1  v080
 BYTE   W12
 BYTE   Cn1  v120
 BYTE   N01  As1  v076
 BYTE   W12
 BYTE   En1  v120
 BYTE   N01  Fs1  v080
 BYTE   W12
 BYTE   Cn1  v120
 BYTE   N01  As1  v076
 BYTE   W12
 BYTE   Fs1  v080
 BYTE   W12
 BYTE   Cn1  v120
 BYTE   N01  As1  v076
 BYTE   W12
 BYTE   En1  v120
 BYTE   N01  Fs1  v080
 BYTE   W12
 BYTE   Cn1  v120
 BYTE   N01  En1  v084
 BYTE   N01  As1  v076
 BYTE   W06
 BYTE   En1  v108
 BYTE   W06
 BYTE   PEND 
//  #14 //040   ----------------------------------------
Label_0102D05E:
 BYTE   N01  Cn1  v120
 BYTE   N01  En1
 BYTE   N01  Fs1  v080
 BYTE   W24
 BYTE   Cn1  v120
 BYTE   W24
 BYTE   N01
 BYTE   W24
 BYTE   N01
 BYTE   W24
 BYTE   PEND 
//  #14 //041   ----------------------------------------
Label_0102D06F:
 BYTE   N01  Cn1  v120
 BYTE   W12
 BYTE   Cn2  v112
 BYTE   W12
 BYTE   En1
 BYTE   W12
 BYTE   Cn1  v120
 BYTE   N01  An1
 BYTE   W12
 BYTE   Gn1  v100
 BYTE   W12
 BYTE   Cn1  v120
 BYTE   N01  Cn2
 BYTE   W12
 BYTE   En1
 BYTE   W12
 BYTE   Fn1  v112
 BYTE   W12
 BYTE   PEND 
//  #14 //042   ----------------------------------------
Label_0102D08B:
 BYTE   N01  Cn1  v120
 BYTE   N01  En2  v112
 BYTE   N01  En3  v060
 BYTE   W06
 BYTE   En3  v040
 BYTE   W06
 BYTE   As1  v076
 BYTE   N01  En3  v092
 BYTE   W06
 BYTE   En3  v040
 BYTE   W06
 BYTE   En1  v120
 BYTE   N01  Fs1  v080
 BYTE   N01  En3  v060
 BYTE   W06
 BYTE   En3  v040
 BYTE   W06
 BYTE   Cn1  v120
 BYTE   N01  As1  v076
 BYTE   N01  En3  v092
 BYTE   W06
 BYTE   En1  v080
 BYTE   N01  En3  v040
 BYTE   W06
 BYTE   Fs1  v080
 BYTE   N01  En3  v060
 BYTE   W06
 BYTE   En1  v100
 BYTE   N01  En3  v040
 BYTE   W06
 BYTE   Cn1  v120
 BYTE   N01  As1  v076
 BYTE   N01  En3  v092
 BYTE   W06
 BYTE   En3  v040
 BYTE   W06
 BYTE   En1  v120
 BYTE   N01  Fs1  v080
 BYTE   N01  En3  v060
 BYTE   W06
 BYTE   En3  v040
 BYTE   W06
 BYTE   Cn1  v120
 BYTE   N01  As1  v076
 BYTE   N01  En3  v092
 BYTE   W06
 BYTE   En3  v040
 BYTE   W06
 BYTE   PEND 
//  #14 //043   ----------------------------------------
Label_0102D0ED:
 BYTE   N01  Fs1  v080
 BYTE   N01  En3  v060
 BYTE   W06
 BYTE   En3  v040
 BYTE   W06
 BYTE   Cn1  v120
 BYTE   N01  As1  v076
 BYTE   N01  En3  v092
 BYTE   W06
 BYTE   En3  v040
 BYTE   W06
 BYTE   En1  v120
 BYTE   N01  Fs1  v080
 BYTE   N01  En3  v060
 BYTE   W06
 BYTE   En3  v040
 BYTE   W06
 BYTE   Cn1  v120
 BYTE   N01  As1  v076
 BYTE   N01  En3  v092
 BYTE   W06
 BYTE   En1  v080
 BYTE   N01  En3  v040
 BYTE   W06
 BYTE   Fs1  v080
 BYTE   N01  En3  v060
 BYTE   W06
 BYTE   En1  v100
 BYTE   N01  En3  v040
 BYTE   W06
 BYTE   Cn1  v120
 BYTE   N01  As1  v076
 BYTE   N01  En3  v092
 BYTE   W06
 BYTE   En3  v040
 BYTE   W06
 BYTE   En1  v120
 BYTE   N01  Fs1  v080
 BYTE   N01  En3  v060
 BYTE   W06
 BYTE   En3  v040
 BYTE   W06
 BYTE   As1  v076
 BYTE   N01  En3  v092
 BYTE   W06
 BYTE   En3  v040
 BYTE   W06
 BYTE   PEND 
//  #14 //044   ----------------------------------------
Label_0102D14C:
 BYTE   N01  Cn1  v120
 BYTE   N01  Fs1  v080
 BYTE   N01  En3  v060
 BYTE   W06
 BYTE   En3  v040
 BYTE   W06
 BYTE   As1  v076
 BYTE   N01  En3  v092
 BYTE   W06
 BYTE   En3  v040
 BYTE   W06
 BYTE   En1  v120
 BYTE   N01  Fs1  v080
 BYTE   N01  En3  v060
 BYTE   W06
 BYTE   En3  v040
 BYTE   W06
 BYTE   Cn1  v120
 BYTE   N01  As1  v076
 BYTE   N01  En3  v092
 BYTE   W06
 BYTE   En1  v080
 BYTE   N01  En3  v040
 BYTE   W06
 BYTE   Cn1  v120
 BYTE   N01  Fs1  v080
 BYTE   N01  En3  v060
 BYTE   W06
 BYTE   En1  v100
 BYTE   N01  En3  v040
 BYTE   W06
 BYTE   As1  v076
 BYTE   N01  En3  v092
 BYTE   W06
 BYTE   En3  v040
 BYTE   W06
 BYTE   En1  v120
 BYTE   N01  Fs1  v080
 BYTE   N01  En3  v060
 BYTE   W06
 BYTE   En3  v040
 BYTE   W06
 BYTE   Cn1  v120
 BYTE   N01  As1  v076
 BYTE   N01  En3  v092
 BYTE   W06
 BYTE   En3  v040
 BYTE   W06
 BYTE   PEND 
//  #14 //045   ----------------------------------------
 BYTE   PATT
  POIN2 Label_0102D0ED
//  #14 //046   ----------------------------------------
Label_0102D1B3:
 BYTE   N01  Cn1  v120
 BYTE   N01  Fs1  v080
 BYTE   N01  En3  v060
 BYTE   W06
 BYTE   En3  v040
 BYTE   W06
 BYTE   As1  v076
 BYTE   N01  En3  v092
 BYTE   W06
 BYTE   En3  v040
 BYTE   W06
 BYTE   En1  v120
 BYTE   N01  Fs1  v080
 BYTE   N01  En3  v060
 BYTE   W06
 BYTE   En3  v040
 BYTE   W06
 BYTE   Cn1  v120
 BYTE   N01  As1  v076
 BYTE   N01  En3  v092
 BYTE   W06
 BYTE   En1  v080
 BYTE   N01  En3  v040
 BYTE   W06
 BYTE   Fs1  v080
 BYTE   N01  En3  v060
 BYTE   W06
 BYTE   En1  v100
 BYTE   N01  En3  v040
 BYTE   W06
 BYTE   Cn1  v120
 BYTE   N01  As1  v076
 BYTE   N01  En3  v092
 BYTE   W06
 BYTE   En3  v040
 BYTE   W06
 BYTE   En1  v120
 BYTE   N01  Fs1  v080
 BYTE   N01  En3  v060
 BYTE   W06
 BYTE   En3  v040
 BYTE   W06
 BYTE   Cn1  v120
 BYTE   N01  As1  v076
 BYTE   N01  En3  v092
 BYTE   W06
 BYTE   En3  v040
 BYTE   W06
 BYTE   PEND 
//  #14 //047   ----------------------------------------
 BYTE   PATT
  POIN2 Label_0102D0ED
//  #14 //048   ----------------------------------------
Label_0102D21A:
 BYTE   N01  En1  v120
 BYTE   N01  Fs1  v080
 BYTE   N01  En3  v060
 BYTE   W06
 BYTE   En3  v040
 BYTE   W06
 BYTE   Cn1  v112
 BYTE   N01  As1  v076
 BYTE   N01  En3  v092
 BYTE   W06
 BYTE   Cn1  v120
 BYTE   N01  En3  v040
 BYTE   W06
 BYTE   En1  v120
 BYTE   N01  Fs1  v080
 BYTE   N01  En3  v060
 BYTE   W06
 BYTE   En3  v040
 BYTE   W06
 BYTE   Cn1  v112
 BYTE   N01  As1  v076
 BYTE   N01  En3  v092
 BYTE   W06
 BYTE   Cn1  v120
 BYTE   N01  En1  v100
 BYTE   N01  En3  v040
 BYTE   W06
 BYTE   En1  v120
 BYTE   N01  Fs1  v080
 BYTE   N01  En3  v060
 BYTE   W06
 BYTE   En1  v100
 BYTE   N01  En3  v040
 BYTE   W06
 BYTE   Cn1  v112
 BYTE   N01  As1  v076
 BYTE   N01  En3  v092
 BYTE   W06
 BYTE   Cn1  v120
 BYTE   N01  En3  v040
 BYTE   W06
 BYTE   En1  v120
 BYTE   N01  Fs1  v080
 BYTE   N01  En3  v060
 BYTE   W06
 BYTE   En3  v040
 BYTE   W06
 BYTE   Cn1  v112
 BYTE   N01  As1  v076
 BYTE   N01  En3  v092
 BYTE   W06
 BYTE   Cn1  v120
 BYTE   N01  En3  v040
 BYTE   W06
 BYTE   PEND 
//  #14 //049   ----------------------------------------
Label_0102D28E:
 BYTE   N01  En1  v120
 BYTE   N01  Fs1  v080
 BYTE   N01  En3  v060
 BYTE   W06
 BYTE   En3  v040
 BYTE   W06
 BYTE   Cn1  v112
 BYTE   N01  As1  v076
 BYTE   N01  En3  v092
 BYTE   W06
 BYTE   Cn1  v120
 BYTE   N01  En3  v040
 BYTE   W06
 BYTE   En1  v120
 BYTE   N01  Fs1  v080
 BYTE   N01  En3  v060
 BYTE   W06
 BYTE   En3  v040
 BYTE   W06
 BYTE   Cn1  v112
 BYTE   N01  As1  v076
 BYTE   N01  En3  v092
 BYTE   W06
 BYTE   Cn1  v120
 BYTE   N01  En1  v100
 BYTE   N01  En3  v040
 BYTE   W06
 BYTE   En1  v112
 BYTE   N01  Fs1  v080
 BYTE   N01  En3  v060
 BYTE   W06
 BYTE   En1  v116
 BYTE   N01  En3  v040
 BYTE   W06
 BYTE   Cn1  v120
 BYTE   N01  En1
 BYTE   N01  As1  v076
 BYTE   N01  En3  v092
 BYTE   W06
 BYTE   En1  v124
 BYTE   N01  En3  v040
 BYTE   W06
 BYTE   En1  v127
 BYTE   N01  As1  v076
 BYTE   N01  En3  v080
 BYTE   W24
 BYTE   PEND 
//  #14 //050   ----------------------------------------
 BYTE   Cn1  v120
 BYTE   N01  Cs2  v112
 BYTE   W96
//  #14 //051   ----------------------------------------
 BYTE   W96
//  #14 //052   ----------------------------------------
 BYTE   GoTo
  POIN2 Label_0102CA34
//  #14 //053   ----------------------------------------
 BYTE   PATT
  POIN2 Label_0102CA34
//  #14 //054   ----------------------------------------
 BYTE   PATT
  POIN2 Label_0102CA34
//  #14 //055   ----------------------------------------
 BYTE   PATT
  POIN2 Label_0102CA6A
//  #14 //056   ----------------------------------------
 BYTE   PATT
  POIN2 Label_0102CAA0
//  #14 //057   ----------------------------------------
 BYTE   PATT
  POIN2 Label_0102CAD8
//  #14 //058   ----------------------------------------
 BYTE   PATT
  POIN2 Label_0102CB0F
//  #14 //059   ----------------------------------------
 BYTE   PATT
  POIN2 Label_0102CB46
//  #14 //060   ----------------------------------------
 BYTE   PATT
  POIN2 Label_0102CBA2
//  #14 //061   ----------------------------------------
 BYTE   PATT
  POIN2 Label_0102CBF8
//  #14 //062   ----------------------------------------
 BYTE   PATT
  POIN2 Label_0102CBF8
//  #14 //063   ----------------------------------------
 BYTE   PATT
  POIN2 Label_0102CBF8
//  #14 //064   ----------------------------------------
 BYTE   PATT
  POIN2 Label_0102CBF8
//  #14 //065   ----------------------------------------
 BYTE   PATT
  POIN2 Label_0102CBF8
//  #14 //066   ----------------------------------------
 BYTE   PATT
  POIN2 Label_0102CC65
//  #14 //067   ----------------------------------------
 BYTE   PATT
  POIN2 Label_0102CC85
//  #14 //068   ----------------------------------------
 BYTE   PATT
  POIN2 Label_0102CCE1
//  #14 //069   ----------------------------------------
 BYTE   PATT
  POIN2 Label_0102CBF8
//  #14 //070   ----------------------------------------
 BYTE   PATT
  POIN2 Label_0102CBA2
//  #14 //071   ----------------------------------------
 BYTE   PATT
  POIN2 Label_0102CBF8
//  #14 //072   ----------------------------------------
 BYTE   PATT
  POIN2 Label_0102CD4C
//  #14 //073   ----------------------------------------
 BYTE   PATT
  POIN2 Label_0102CDA5
//  #14 //074   ----------------------------------------
 BYTE   PATT
  POIN2 Label_0102CDF8
//  #14 //075   ----------------------------------------
 BYTE   PATT
  POIN2 Label_0102CE1A
//  #14 //076   ----------------------------------------
 BYTE   PATT
  POIN2 Label_0102CE3A
//  #14 //077   ----------------------------------------
 BYTE   PATT
  POIN2 Label_0102CE56
//  #14 //078   ----------------------------------------
 BYTE   PATT
  POIN2 Label_0102CE76
//  #14 //079   ----------------------------------------
 BYTE   PATT
  POIN2 Label_0102CE97
//  #14 //080   ----------------------------------------
 BYTE   PATT
  POIN2 Label_0102CEB7
//  #14 //081   ----------------------------------------
 BYTE   PATT
  POIN2 Label_0102CED6
//  #14 //082   ----------------------------------------
 BYTE   PATT
  POIN2 Label_0102CEF6
//  #14 //083   ----------------------------------------
 BYTE   PATT
  POIN2 Label_0102CF28
//  #14 //084   ----------------------------------------
 BYTE   PATT
  POIN2 Label_0102CF57
//  #14 //085   ----------------------------------------
 BYTE   PATT
  POIN2 Label_0102CF80
//  #14 //086   ----------------------------------------
 BYTE   PATT
  POIN2 Label_0102CFA9
//  #14 //087   ----------------------------------------
 BYTE   PATT
  POIN2 Label_0102CFD2
//  #14 //088   ----------------------------------------
 BYTE   PATT
  POIN2 Label_0102CF80
//  #14 //089   ----------------------------------------
 BYTE   PATT
  POIN2 Label_0102D000
//  #14 //090   ----------------------------------------
 BYTE   PATT
  POIN2 Label_0102D02C
//  #14 //091   ----------------------------------------
 BYTE   PATT
  POIN2 Label_0102D05E
//  #14 //092   ----------------------------------------
 BYTE   PATT
  POIN2 Label_0102D06F
//  #14 //093   ----------------------------------------
 BYTE   PATT
  POIN2 Label_0102D08B
//  #14 //094   ----------------------------------------
 BYTE   PATT
  POIN2 Label_0102D0ED
//  #14 //095   ----------------------------------------
 BYTE   PATT
  POIN2 Label_0102D14C
//  #14 //096   ----------------------------------------
 BYTE   PATT
  POIN2 Label_0102D0ED
//  #14 //097   ----------------------------------------
 BYTE   PATT
  POIN2 Label_0102D1B3
//  #14 //098   ----------------------------------------
 BYTE   PATT
  POIN2 Label_0102D0ED
//  #14 //099   ----------------------------------------
 BYTE   PATT
  POIN2 Label_0102D21A
//  #14 //100   ----------------------------------------
 BYTE   PATT
  POIN2 Label_0102D28E
//  #14 //101   ----------------------------------------
 BYTE   W96
//  #14 //102   ----------------------------------------
 BYTE   W96
//  #14 //103   ----------------------------------------
 BYTE   W96
//  #14 //104   ----------------------------------------
 BYTE   W96
//  #14 //105   ----------------------------------------
 BYTE   W15
 BYTE   FINE

//******************************************************//
	ALIGN 4

AceAttorney2WantingtoFindtheTruthSurfingKyogre:
	BYTE	14	// NumTrks
	BYTE	0	// NumBlks
	BYTE	AceAttorney2WantingtoFindtheTruthSurfingKyogre_pri	// Priority
	BYTE	AceAttorney2WantingtoFindtheTruthSurfingKyogre_rev	// Reverb.
    
	POIN2	AceAttorney2WantingtoFindtheTruthSurfingKyogre_grp
    
	POIN2	AceAttorney2WantingtoFindtheTruthSurfingKyogre_001
	POIN2	AceAttorney2WantingtoFindtheTruthSurfingKyogre_002
	POIN2	AceAttorney2WantingtoFindtheTruthSurfingKyogre_003
	POIN2	AceAttorney2WantingtoFindtheTruthSurfingKyogre_004
	POIN2	AceAttorney2WantingtoFindtheTruthSurfingKyogre_005
	POIN2	AceAttorney2WantingtoFindtheTruthSurfingKyogre_006
	POIN2	AceAttorney2WantingtoFindtheTruthSurfingKyogre_007
	POIN2	AceAttorney2WantingtoFindtheTruthSurfingKyogre_008
	POIN2	AceAttorney2WantingtoFindtheTruthSurfingKyogre_009
	POIN2	AceAttorney2WantingtoFindtheTruthSurfingKyogre_010
	POIN2	AceAttorney2WantingtoFindtheTruthSurfingKyogre_011
	POIN2	AceAttorney2WantingtoFindtheTruthSurfingKyogre_012
	POIN2	AceAttorney2WantingtoFindtheTruthSurfingKyogre_013
	POIN2	AceAttorney2WantingtoFindtheTruthSurfingKyogre_014

	
