//Event file generated from Sappy .s format.
	#include "MPlayDef.event"

	#define	ApolloJusticeTellingtheTruth2009_grp  voicegroup000
	#define	ApolloJusticeTellingtheTruth2009_pri  0
	#define	ApolloJusticeTellingtheTruth2009_rev  0
	#define	ApolloJusticeTellingtheTruth2009_mvl  95
	#define	ApolloJusticeTellingtheTruth2009_key  0
	#define	ApolloJusticeTellingtheTruth2009_tbs  1
	#define	ApolloJusticeTellingtheTruth2009_exg  0
	#define	ApolloJusticeTellingtheTruth2009_cmp  1

	// .rodata
	//	ApolloJusticeTellingtheTruth2009
	ALIGN 4

//**************** Track 1 (Midi-Chn.1) ****************//

ApolloJusticeTellingtheTruth2009_1:
	BYTE	KEYSH   ApolloJusticeTellingtheTruth2009_key+0
// 000   ----------------------------------------
	BYTE	TEMPO   82*ApolloJusticeTellingtheTruth2009_tbs/2
	BYTE		VOICE   121
	BYTE		MODT    0
	BYTE		LFOS    44
	BYTE		VOL     117*ApolloJusticeTellingtheTruth2009_mvl/mxv
	BYTE		PAN     c_v+0
	BYTE		N03     Cs2   v004
	BYTE	W03
	BYTE		N03   
	BYTE	W03
	BYTE		N03   
	BYTE	W03
	BYTE		N03   
	BYTE	W03
	BYTE		N03   
	BYTE	W03
	BYTE		N03   
	BYTE	W03
	BYTE		N03   
	BYTE	W03
	BYTE		        Cs2   v008
	BYTE	W03
	BYTE		N03   
	BYTE	W03
	BYTE		N03   
	BYTE	W03
	BYTE		N03   
	BYTE	W03
	BYTE		        Cs2   v012
	BYTE	W03
	BYTE		N03   
	BYTE	W03
	BYTE		N03   
	BYTE	W03
	BYTE		        Cs2   v016
	BYTE	W03
	BYTE		N03   
	BYTE	W03
	BYTE		N03   
	BYTE	W03
	BYTE		        Cs2   v020
	BYTE	W03
	BYTE		N03   
	BYTE	W03
	BYTE		N03   
	BYTE	W03
	BYTE		        Cs2   v024
	BYTE	W03
	BYTE		N03   
	BYTE	W03
	BYTE		        Cs2   v028
	BYTE	W03
	BYTE		N03   
	BYTE	W03
	BYTE		        Cs2   v032
	BYTE	W03
	BYTE		N03   
	BYTE	W03
	BYTE		N03   
	BYTE	W03
	BYTE		        Cs2   v036
	BYTE	W03
	BYTE		N03   
	BYTE	W03
	BYTE		        Cs2   v040
	BYTE	W03
	BYTE		        Cs2   v044
	BYTE	W03
	BYTE		N10   
	BYTE	W03
// 001   ----------------------------------------
	BYTE	W96
// 002   ----------------------------------------
ApolloJusticeTellingtheTruth2009_1_002:
	BYTE		N05     Cn1   v127
	BYTE	W24
	BYTE		N05   
	BYTE		N05     Gs1   v036
	BYTE	W24
	BYTE		        Cn1   v127
	BYTE	W24
	BYTE		N05   
	BYTE		N05     Gs1   v036
	BYTE	W24
	BYTE	PEND
// 003   ----------------------------------------
	BYTE	PATT
	 POIN2	ApolloJusticeTellingtheTruth2009_1_002
// 004   ----------------------------------------
	BYTE		N05     Cn1   v127
	BYTE		N05     Fs1   v056
	BYTE		N05     Fn3   v028
	BYTE	W06
	BYTE		        Fs1   v008
	BYTE	W06
	BYTE		        Fs1   v024
	BYTE	W06
	BYTE		        Cn1   v100
	BYTE		N05     Fs1   v008
	BYTE	W06
	BYTE		        Fs1   v056
	BYTE		N05     Fn3   v028
	BYTE	W06
	BYTE		        Fs1   v008
	BYTE	W06
	BYTE		        Fs1   v024
	BYTE	W06
	BYTE		        Cn1   v100
	BYTE		N05     Fs1   v008
	BYTE	W06
	BYTE		        Cn1   v127
	BYTE		N05     Fs1   v056
	BYTE		N05     Fn3   v028
	BYTE	W06
	BYTE		        Fs1   v008
	BYTE	W06
	BYTE		        Cn1   v100
	BYTE		N05     Fs1   v024
	BYTE	W06
	BYTE		        Fs1   v008
	BYTE	W06
	BYTE		        Fs1   v056
	BYTE		N05     Fn3   v028
	BYTE	W06
	BYTE		        Fs1   v008
	BYTE	W06
	BYTE		        Fs1   v024
	BYTE	W06
	BYTE		        Cn1   v100
	BYTE		N05     Fs1   v008
	BYTE	W06
// 005   ----------------------------------------
ApolloJusticeTellingtheTruth2009_1_005:
	BYTE		N05     Cn1   v127
	BYTE		N05     Fs1   v056
	BYTE		N05     Fn3   v028
	BYTE	W06
	BYTE		        Fs1   v008
	BYTE	W06
	BYTE		        Fs1   v024
	BYTE	W06
	BYTE		        Fs1   v008
	BYTE	W06
	BYTE		        Fs1   v056
	BYTE		N05     Fn3   v028
	BYTE	W06
	BYTE		        Fs1   v008
	BYTE	W06
	BYTE		        Cn1   v100
	BYTE		N05     Fs1   v024
	BYTE	W06
	BYTE		        Fs1   v008
	BYTE	W06
	BYTE		        Cn1   v127
	BYTE		N05     Fs1   v056
	BYTE		N05     Fn3   v028
	BYTE	W06
	BYTE		        Fs1   v008
	BYTE	W06
	BYTE		        Fs1   v024
	BYTE	W06
	BYTE		        Cn1   v100
	BYTE		N05     Fs1   v008
	BYTE		N05     Fn3   v012
	BYTE	W06
	BYTE		        Fs1   v056
	BYTE		N05     Fn3   v028
	BYTE	W06
	BYTE		        Fs1   v008
	BYTE	W06
	BYTE		        Fs1   v024
	BYTE	W06
	BYTE		        Fs1   v008
	BYTE	W06
	BYTE	PEND
// 006   ----------------------------------------
	BYTE		        Cn1   v127
	BYTE		N05     Fs1   v056
	BYTE		N05     Fn3   v028
	BYTE	W06
	BYTE		        Fs1   v008
	BYTE	W06
	BYTE		        Fs1   v024
	BYTE	W06
	BYTE		        Fs1   v008
	BYTE	W06
	BYTE		        Fs1   v056
	BYTE		N05     Fn3   v028
	BYTE	W06
	BYTE		        Fs1   v008
	BYTE	W06
	BYTE		        Cn1   v100
	BYTE		N05     Fs1   v024
	BYTE	W06
	BYTE		        Fs1   v008
	BYTE	W06
	BYTE		        Cn1   v127
	BYTE		N05     Fs1   v056
	BYTE		N05     Fn3   v028
	BYTE	W06
	BYTE		        Fs1   v008
	BYTE	W06
	BYTE		        Fs1   v024
	BYTE	W06
	BYTE		        Cn1   v100
	BYTE		N05     Fs1   v008
	BYTE	W06
	BYTE		        Fs1   v056
	BYTE		N05     Fn3   v028
	BYTE	W06
	BYTE		        Fs1   v008
	BYTE	W06
	BYTE		        Fs1   v024
	BYTE	W06
	BYTE		        Cn1   v100
	BYTE		N05     Fs1   v008
	BYTE	W06
// 007   ----------------------------------------
	BYTE	PATT
	 POIN2	ApolloJusticeTellingtheTruth2009_1_005
ApolloJusticeTellingtheTruth2009_1_B1:
// 008   ----------------------------------------
	BYTE		N05     Cn1   v127
	BYTE		N18     Cs2   v048
	BYTE	W24
	BYTE		N05     Cn1   v127
	BYTE		N05     Gs1   v036
	BYTE	W24
	BYTE		        Cn1   v127
	BYTE	W24
	BYTE		N05   
	BYTE		N10     Dn1   v100
	BYTE		N05     Gs1   v036
	BYTE	W24
// 009   ----------------------------------------
ApolloJusticeTellingtheTruth2009_1_009:
	BYTE		N05     Cn1   v127
	BYTE	W24
	BYTE		N05   
	BYTE		N05     Gs1   v036
	BYTE	W24
	BYTE		        Cn1   v127
	BYTE	W24
	BYTE		N05   
	BYTE		N10     Dn1   v100
	BYTE		N05     Gs1   v036
	BYTE	W24
	BYTE	PEND
// 010   ----------------------------------------
	BYTE	PATT
	 POIN2	ApolloJusticeTellingtheTruth2009_1_009
// 011   ----------------------------------------
	BYTE	PATT
	 POIN2	ApolloJusticeTellingtheTruth2009_1_009
// 012   ----------------------------------------
	BYTE		N05     Cn1   v127
	BYTE		N05     Fs1   v060
	BYTE		N05     Fn3   v028
	BYTE	W06
	BYTE		        Fs1   v012
	BYTE	W06
	BYTE		        Fs1   v028
	BYTE	W06
	BYTE		        Cn1   v100
	BYTE		N05     Fs1   v012
	BYTE	W06
	BYTE		N10     Dn1   v100
	BYTE		N05     Fs1   v060
	BYTE		N05     Fn3   v028
	BYTE	W06
	BYTE		        Fs1   v012
	BYTE	W06
	BYTE		        Fs1   v028
	BYTE	W06
	BYTE		        Cn1   v100
	BYTE		N05     Fs1   v012
	BYTE	W06
	BYTE		        Cn1   v127
	BYTE		N05     Fs1   v060
	BYTE		N05     Fn3   v028
	BYTE	W06
	BYTE		        Fs1   v012
	BYTE	W06
	BYTE		        Cn1   v100
	BYTE		N05     Fs1   v028
	BYTE	W06
	BYTE		        Fs1   v012
	BYTE	W06
	BYTE		N10     Dn1   v100
	BYTE		N05     Fs1   v060
	BYTE		N05     Fn3   v028
	BYTE	W06
	BYTE		        Fs1   v012
	BYTE	W06
	BYTE		        Fs1   v028
	BYTE	W06
	BYTE		        Cn1   v100
	BYTE		N05     Fs1   v012
	BYTE	W06
// 013   ----------------------------------------
	BYTE		        Cn1   v127
	BYTE		N05     Fs1   v060
	BYTE		N05     Fn3   v028
	BYTE	W06
	BYTE		        Fs1   v012
	BYTE	W06
	BYTE		        Fs1   v028
	BYTE	W06
	BYTE		        Fs1   v012
	BYTE	W06
	BYTE		N10     Dn1   v100
	BYTE		N05     Fs1   v060
	BYTE		N05     Fn3   v028
	BYTE	W06
	BYTE		        Fs1   v012
	BYTE	W06
	BYTE		        Cn1   v100
	BYTE		N05     Fs1   v028
	BYTE	W06
	BYTE		        Fs1   v012
	BYTE	W06
	BYTE		        Cn1   v127
	BYTE		N05     Fs1   v060
	BYTE		N05     Fn3   v028
	BYTE	W06
	BYTE		        Fs1   v012
	BYTE	W06
	BYTE		        Fs1   v028
	BYTE	W06
	BYTE		        Cn1   v100
	BYTE		N05     Fs1   v012
	BYTE		N05     Fn3 
	BYTE	W06
	BYTE		N10     Dn1   v100
	BYTE		N05     Fs1   v060
	BYTE		N05     Fn3   v028
	BYTE	W06
	BYTE		        Fs1   v012
	BYTE	W06
	BYTE		        Fs1   v028
	BYTE	W06
	BYTE		        Fs1   v012
	BYTE	W06
// 014   ----------------------------------------
	BYTE		        Cn1   v127
	BYTE		N05     Fs1   v060
	BYTE		N05     Fn3   v028
	BYTE	W06
	BYTE		        Fs1   v012
	BYTE	W06
	BYTE		        Fs1   v028
	BYTE	W06
	BYTE		        Fs1   v012
	BYTE	W06
	BYTE		N10     Dn1   v100
	BYTE		N05     Fs1   v060
	BYTE		N05     Fn3   v028
	BYTE	W06
	BYTE		        Fs1   v012
	BYTE	W06
	BYTE		        Cn1   v100
	BYTE		N05     Fs1   v028
	BYTE	W06
	BYTE		        Fs1   v012
	BYTE	W06
	BYTE		        Cn1   v127
	BYTE		N05     Fs1   v060
	BYTE		N05     Fn3   v028
	BYTE	W06
	BYTE		        Fs1   v012
	BYTE	W06
	BYTE		        Fs1   v028
	BYTE	W06
	BYTE		        Cn1   v100
	BYTE		N05     Fs1   v012
	BYTE	W06
	BYTE		N10     Dn1   v100
	BYTE		N05     Fs1   v060
	BYTE		N05     Fn3   v028
	BYTE	W06
	BYTE		        Fs1   v012
	BYTE	W06
	BYTE		        Fs1   v028
	BYTE	W06
	BYTE		        Cn1   v100
	BYTE		N05     Fs1   v012
	BYTE	W06
// 015   ----------------------------------------
	BYTE		        Cn1   v127
	BYTE		N05     Fs1   v060
	BYTE		N05     Fn3   v028
	BYTE	W06
	BYTE		        Fs1   v012
	BYTE	W06
	BYTE		        Fs1   v028
	BYTE	W06
	BYTE		        Fs1   v012
	BYTE	W06
	BYTE		N10     Dn1   v100
	BYTE		N05     Fs1   v060
	BYTE		N05     Fn3   v028
	BYTE	W06
	BYTE		        Fs1   v012
	BYTE	W06
	BYTE		        Cn1   v100
	BYTE		N05     Fs1   v028
	BYTE	W06
	BYTE		        Fs1   v012
	BYTE	W06
	BYTE		        Cn1   v127
	BYTE		N05     Fs1   v060
	BYTE		N05     Fn3   v028
	BYTE	W06
	BYTE		        Fs1   v012
	BYTE	W06
	BYTE		        Fs1   v028
	BYTE	W06
	BYTE		        Cn1   v100
	BYTE		N05     Fs1   v012
	BYTE		N05     Fn3   v008
	BYTE	W06
	BYTE		N10     Dn1   v100
	BYTE		N05     Fs1   v060
	BYTE		N05     Fn3   v028
	BYTE	W06
	BYTE		        Fs1   v012
	BYTE	W06
	BYTE		        Fs1   v028
	BYTE	W06
	BYTE		        Fs1   v012
	BYTE	W06
// 016   ----------------------------------------
	BYTE		        Cn1   v127
	BYTE		N05     Fs1   v060
	BYTE		N05     Fn3   v028
	BYTE	W06
	BYTE		        Fs1   v012
	BYTE	W06
	BYTE		        Fs1   v028
	BYTE	W06
	BYTE		        Cn1   v100
	BYTE		N05     Fs1   v012
	BYTE	W06
	BYTE		N10     Dn1   v100
	BYTE		N05     Fs1   v060
	BYTE		N05     Fn3   v028
	BYTE	W06
	BYTE		        Fs1   v012
	BYTE	W06
	BYTE		        Fs1   v028
	BYTE	W06
	BYTE		        Cn1   v100
	BYTE		N05     Fs1   v012
	BYTE	W06
	BYTE	GoTo
	 POIN2	ApolloJusticeTellingtheTruth2009_1_B1
ApolloJusticeTellingtheTruth2009_1_B2:
	BYTE	FINE

//**************** Track 2 (Midi-Chn.2) ****************//

ApolloJusticeTellingtheTruth2009_2:
	BYTE	KEYSH   ApolloJusticeTellingtheTruth2009_key+0
// 000   ----------------------------------------
	BYTE		VOICE   47
	BYTE		MODT    0
	BYTE		LFOS    44
	BYTE		VOL     127*ApolloJusticeTellingtheTruth2009_mvl/mxv
	BYTE		PAN     c_v-4
	BYTE	W96
// 001   ----------------------------------------
	BYTE	W96
// 002   ----------------------------------------
	BYTE	W96
// 003   ----------------------------------------
	BYTE	W96
// 004   ----------------------------------------
	BYTE	W96
// 005   ----------------------------------------
	BYTE	W96
// 006   ----------------------------------------
	BYTE	W96
// 007   ----------------------------------------
	BYTE	W96
ApolloJusticeTellingtheTruth2009_2_B1:
// 008   ----------------------------------------
	BYTE	W96
// 009   ----------------------------------------
	BYTE	W96
// 010   ----------------------------------------
	BYTE	W96
// 011   ----------------------------------------
	BYTE	W96
// 012   ----------------------------------------
	BYTE	W96
// 013   ----------------------------------------
	BYTE	W96
// 014   ----------------------------------------
	BYTE	W96
// 015   ----------------------------------------
	BYTE	W96
// 016   ----------------------------------------
	BYTE	W30
	BYTE		N06     Cn3   v060
	BYTE	W06
	BYTE		        As2   v088
	BYTE	W06
	BYTE		        Gs2   v116
	BYTE	W06
	BYTE	GoTo
	 POIN2	ApolloJusticeTellingtheTruth2009_2_B1
ApolloJusticeTellingtheTruth2009_2_B2:
	BYTE	FINE

//**************** Track 3 (Midi-Chn.3) ****************//

ApolloJusticeTellingtheTruth2009_3:
	BYTE	KEYSH   ApolloJusticeTellingtheTruth2009_key+0
// 000   ----------------------------------------
	BYTE		VOICE   38
	BYTE		MODT    0
	BYTE		LFOS    44
	BYTE		VOL     91*ApolloJusticeTellingtheTruth2009_mvl/mxv
	BYTE		PAN     c_v+0
	BYTE		N12     Fs1   v127
	BYTE	W18
	BYTE		N05   
	BYTE	W06
	BYTE		N12   
	BYTE	W18
	BYTE		N05   
	BYTE	W06
	BYTE		N12     En1 
	BYTE	W18
	BYTE		N05   
	BYTE	W06
	BYTE		N12   
	BYTE	W18
	BYTE		N05   
	BYTE	W06
// 001   ----------------------------------------
ApolloJusticeTellingtheTruth2009_3_001:
	BYTE		N12     Dn1   v127
	BYTE	W18
	BYTE		N05   
	BYTE	W06
	BYTE		N12   
	BYTE	W18
	BYTE		N05   
	BYTE	W06
	BYTE		N12     En1 
	BYTE	W18
	BYTE		N05   
	BYTE	W06
	BYTE		N12   
	BYTE	W18
	BYTE		N05   
	BYTE	W06
	BYTE	PEND
// 002   ----------------------------------------
ApolloJusticeTellingtheTruth2009_3_002:
	BYTE		N05     Fs1   v127
	BYTE	W06
	BYTE		N05   
	BYTE	W06
	BYTE		N05   
	BYTE	W06
	BYTE		N05   
	BYTE	W06
	BYTE		N05   
	BYTE	W06
	BYTE		N05   
	BYTE	W06
	BYTE		N05   
	BYTE	W06
	BYTE		N05   
	BYTE	W06
	BYTE		        En1 
	BYTE	W06
	BYTE		N05   
	BYTE	W06
	BYTE		N05   
	BYTE	W06
	BYTE		N05   
	BYTE	W06
	BYTE		N05   
	BYTE	W06
	BYTE		N05   
	BYTE	W06
	BYTE		N05   
	BYTE	W06
	BYTE		N05   
	BYTE	W06
	BYTE	PEND
// 003   ----------------------------------------
ApolloJusticeTellingtheTruth2009_3_003:
	BYTE		N05     Dn1   v127
	BYTE	W06
	BYTE		N05   
	BYTE	W06
	BYTE		N05   
	BYTE	W06
	BYTE		N05   
	BYTE	W06
	BYTE		N05   
	BYTE	W06
	BYTE		N05   
	BYTE	W06
	BYTE		N05   
	BYTE	W06
	BYTE		N05   
	BYTE	W06
	BYTE		        En1 
	BYTE	W06
	BYTE		N05   
	BYTE	W06
	BYTE		N05   
	BYTE	W06
	BYTE		N05   
	BYTE	W06
	BYTE		N05   
	BYTE	W06
	BYTE		N05   
	BYTE	W06
	BYTE		N05   
	BYTE	W06
	BYTE		N05   
	BYTE	W06
	BYTE	PEND
// 004   ----------------------------------------
ApolloJusticeTellingtheTruth2009_3_004:
	BYTE		N05     Bn0   v127
	BYTE	W06
	BYTE		N05   
	BYTE	W06
	BYTE		N05   
	BYTE	W06
	BYTE		N05   
	BYTE	W06
	BYTE		N05   
	BYTE	W06
	BYTE		N05   
	BYTE	W06
	BYTE		N05   
	BYTE	W06
	BYTE		N05   
	BYTE	W06
	BYTE		        Cs1 
	BYTE	W06
	BYTE		N05   
	BYTE	W06
	BYTE		N05   
	BYTE	W06
	BYTE		N05   
	BYTE	W06
	BYTE		N05   
	BYTE	W06
	BYTE		N05   
	BYTE	W06
	BYTE		N05   
	BYTE	W06
	BYTE		N05   
	BYTE	W06
	BYTE	PEND
// 005   ----------------------------------------
ApolloJusticeTellingtheTruth2009_3_005:
	BYTE		N05     Ds1   v127
	BYTE	W06
	BYTE		N05   
	BYTE	W06
	BYTE		N05   
	BYTE	W06
	BYTE		N05   
	BYTE	W06
	BYTE		N05   
	BYTE	W06
	BYTE		N05   
	BYTE	W06
	BYTE		N05   
	BYTE	W06
	BYTE		N05   
	BYTE	W06
	BYTE		        En1 
	BYTE	W06
	BYTE		N05   
	BYTE	W06
	BYTE		N05   
	BYTE	W06
	BYTE		N05   
	BYTE	W06
	BYTE		N05   
	BYTE	W06
	BYTE		N05   
	BYTE	W06
	BYTE		N05   
	BYTE	W06
	BYTE		N05   
	BYTE	W06
	BYTE	PEND
// 006   ----------------------------------------
	BYTE	PATT
	 POIN2	ApolloJusticeTellingtheTruth2009_3_004
// 007   ----------------------------------------
	BYTE	PATT
	 POIN2	ApolloJusticeTellingtheTruth2009_3_005
ApolloJusticeTellingtheTruth2009_3_B1:
// 008   ----------------------------------------
	BYTE		N12     Fs1   v127
	BYTE	W18
	BYTE		N05   
	BYTE	W06
	BYTE		N12   
	BYTE	W18
	BYTE		N05   
	BYTE	W06
	BYTE		N12     En1 
	BYTE	W18
	BYTE		N05   
	BYTE	W06
	BYTE		N12   
	BYTE	W18
	BYTE		N05   
	BYTE	W06
// 009   ----------------------------------------
	BYTE	PATT
	 POIN2	ApolloJusticeTellingtheTruth2009_3_001
// 010   ----------------------------------------
	BYTE	PATT
	 POIN2	ApolloJusticeTellingtheTruth2009_3_002
// 011   ----------------------------------------
	BYTE	PATT
	 POIN2	ApolloJusticeTellingtheTruth2009_3_003
// 012   ----------------------------------------
	BYTE	PATT
	 POIN2	ApolloJusticeTellingtheTruth2009_3_004
// 013   ----------------------------------------
	BYTE	PATT
	 POIN2	ApolloJusticeTellingtheTruth2009_3_005
// 014   ----------------------------------------
	BYTE	PATT
	 POIN2	ApolloJusticeTellingtheTruth2009_3_004
// 015   ----------------------------------------
	BYTE	PATT
	 POIN2	ApolloJusticeTellingtheTruth2009_3_005
// 016   ----------------------------------------
	BYTE	W48
	BYTE	GoTo
	 POIN2	ApolloJusticeTellingtheTruth2009_3_B1
ApolloJusticeTellingtheTruth2009_3_B2:
	BYTE	FINE

//**************** Track 4 (Midi-Chn.4) ****************//

ApolloJusticeTellingtheTruth2009_4:
	BYTE	KEYSH   ApolloJusticeTellingtheTruth2009_key+0
// 000   ----------------------------------------
	BYTE		VOICE   36
	BYTE		MODT    0
	BYTE		LFOS    44
	BYTE		VOL     41*ApolloJusticeTellingtheTruth2009_mvl/mxv
	BYTE		PAN     c_v+2
	BYTE		MOD     2
	BYTE		N44     Cs3   v116
	BYTE		N44     Fs3 
	BYTE		N44     Gs3 
	BYTE		N44     An3 
	BYTE	W48
	BYTE		        Cs3 
	BYTE		N44     En3 
	BYTE		N44     Gs3 
	BYTE		N44     An3 
	BYTE	W48
// 001   ----------------------------------------
ApolloJusticeTellingtheTruth2009_4_001:
	BYTE		N44     Cs3   v116
	BYTE		N44     En3 
	BYTE		N44     Fs3 
	BYTE		N44     An3 
	BYTE	W48
	BYTE		        Cs3 
	BYTE		N44     En3 
	BYTE		N44     Gs3 
	BYTE		N44     An3 
	BYTE	W48
	BYTE	PEND
// 002   ----------------------------------------
ApolloJusticeTellingtheTruth2009_4_002:
	BYTE		N44     Cs3   v116
	BYTE		N44     Fs3 
	BYTE		N44     Gs3 
	BYTE		N44     An3 
	BYTE	W48
	BYTE		        Cs3 
	BYTE		N44     En3 
	BYTE		N44     Gs3 
	BYTE		N44     An3 
	BYTE	W48
	BYTE	PEND
// 003   ----------------------------------------
	BYTE	PATT
	 POIN2	ApolloJusticeTellingtheTruth2009_4_001
// 004   ----------------------------------------
ApolloJusticeTellingtheTruth2009_4_004:
	BYTE		N44     Dn3   v116
	BYTE		N44     En3 
	BYTE		N44     Fs3 
	BYTE		N44     An3 
	BYTE	W48
	BYTE		        En3 
	BYTE		N44     Fs3 
	BYTE		N44     Gs3 
	BYTE		N44     Bn3 
	BYTE	W48
	BYTE	PEND
// 005   ----------------------------------------
ApolloJusticeTellingtheTruth2009_4_005:
	BYTE		N44     Cs3   v116
	BYTE		N44     Ds3 
	BYTE		N44     Fs3 
	BYTE		N44     An3 
	BYTE	W48
	BYTE		        En3 
	BYTE		N44     Fs3 
	BYTE		N44     Gs3 
	BYTE		N44     Bn3 
	BYTE	W48
	BYTE	PEND
// 006   ----------------------------------------
	BYTE	PATT
	 POIN2	ApolloJusticeTellingtheTruth2009_4_004
// 007   ----------------------------------------
	BYTE	PATT
	 POIN2	ApolloJusticeTellingtheTruth2009_4_005
ApolloJusticeTellingtheTruth2009_4_B1:
// 008   ----------------------------------------
	BYTE	PATT
	 POIN2	ApolloJusticeTellingtheTruth2009_4_002
// 009   ----------------------------------------
	BYTE	PATT
	 POIN2	ApolloJusticeTellingtheTruth2009_4_001
// 010   ----------------------------------------
	BYTE	PATT
	 POIN2	ApolloJusticeTellingtheTruth2009_4_002
// 011   ----------------------------------------
	BYTE	PATT
	 POIN2	ApolloJusticeTellingtheTruth2009_4_001
// 012   ----------------------------------------
	BYTE	PATT
	 POIN2	ApolloJusticeTellingtheTruth2009_4_004
// 013   ----------------------------------------
	BYTE	PATT
	 POIN2	ApolloJusticeTellingtheTruth2009_4_005
// 014   ----------------------------------------
	BYTE	PATT
	 POIN2	ApolloJusticeTellingtheTruth2009_4_004
// 015   ----------------------------------------
	BYTE	PATT
	 POIN2	ApolloJusticeTellingtheTruth2009_4_005
// 016   ----------------------------------------
	BYTE	W48
	BYTE	GoTo
	 POIN2	ApolloJusticeTellingtheTruth2009_4_B1
ApolloJusticeTellingtheTruth2009_4_B2:
	BYTE	FINE

//**************** Track 5 (Midi-Chn.5) ****************//

ApolloJusticeTellingtheTruth2009_5:
	BYTE	KEYSH   ApolloJusticeTellingtheTruth2009_key+0
// 000   ----------------------------------------
	BYTE		VOICE   62
	BYTE		MODT    0
	BYTE		LFOS    44
	BYTE		VOL     72*ApolloJusticeTellingtheTruth2009_mvl/mxv
	BYTE		MOD     2
	BYTE		PAN     c_v+0
	BYTE		N05     Cs4   v116
	BYTE	W06
	BYTE		        Fs3 
	BYTE	W06
	BYTE		        Fs4 
	BYTE	W06
	BYTE		        Fs3 
	BYTE	W06
	BYTE		        Cs4 
	BYTE	W06
	BYTE		        Fs3 
	BYTE	W06
	BYTE		        Fs4 
	BYTE	W06
	BYTE		        Fs3 
	BYTE	W06
	BYTE		        Cs4 
	BYTE	W06
	BYTE		        Fs3 
	BYTE	W06
	BYTE		        Fs4 
	BYTE	W06
	BYTE		        Fs3 
	BYTE	W06
	BYTE		        Cs4 
	BYTE	W06
	BYTE		        Fs3 
	BYTE	W06
	BYTE		        Fs4 
	BYTE	W06
	BYTE		        Fs3 
	BYTE	W06
// 001   ----------------------------------------
ApolloJusticeTellingtheTruth2009_5_001:
	BYTE		N05     Cs4   v116
	BYTE	W06
	BYTE		        Fs3 
	BYTE	W06
	BYTE		        Fs4 
	BYTE	W06
	BYTE		        Fs3 
	BYTE	W06
	BYTE		        Cs4 
	BYTE	W06
	BYTE		        Fs3 
	BYTE	W06
	BYTE		        Fs4 
	BYTE	W06
	BYTE		        Fs3 
	BYTE	W06
	BYTE		        Cs4 
	BYTE	W06
	BYTE		        Fs3 
	BYTE	W06
	BYTE		        Fs4 
	BYTE	W06
	BYTE		        Fs3 
	BYTE	W06
	BYTE		        Cs4 
	BYTE	W06
	BYTE		        Fs3 
	BYTE	W06
	BYTE		        Fs4 
	BYTE	W06
	BYTE		        Fs3 
	BYTE	W06
	BYTE	PEND
// 002   ----------------------------------------
ApolloJusticeTellingtheTruth2009_5_002:
	BYTE		N05     Cs4   v116
	BYTE	W06
	BYTE		        Fs3 
	BYTE	W06
	BYTE		        Fs4 
	BYTE	W06
	BYTE		        Fs3 
	BYTE	W06
	BYTE		        Gs4 
	BYTE	W06
	BYTE		        Fs3 
	BYTE	W06
	BYTE		        Fs4 
	BYTE	W06
	BYTE		        Fs3 
	BYTE	W06
	BYTE		        Cs4 
	BYTE	W06
	BYTE		        Fs3 
	BYTE	W06
	BYTE		        Fs4 
	BYTE	W06
	BYTE		        Fs3 
	BYTE	W06
	BYTE		        Gs4 
	BYTE	W06
	BYTE		        Fs3 
	BYTE	W06
	BYTE		        Fs4 
	BYTE	W06
	BYTE		        Fs3 
	BYTE	W06
	BYTE	PEND
// 003   ----------------------------------------
ApolloJusticeTellingtheTruth2009_5_003:
	BYTE		N05     Cs4   v116
	BYTE	W06
	BYTE		        Fs3 
	BYTE	W06
	BYTE		        Fs4 
	BYTE	W06
	BYTE		        Fs3 
	BYTE	W06
	BYTE		        Gs4 
	BYTE	W06
	BYTE		        Fs3 
	BYTE	W06
	BYTE		        Fs4 
	BYTE	W06
	BYTE		        Fs3 
	BYTE	W06
	BYTE		        Cs4 
	BYTE	W06
	BYTE		        Fs3 
	BYTE	W06
	BYTE		        Fs4 
	BYTE	W06
	BYTE		        Fs3 
	BYTE	W06
	BYTE		        Gs4 
	BYTE	W06
	BYTE		        An4 
	BYTE	W06
	BYTE		        Gs4 
	BYTE	W06
	BYTE		        Fs4 
	BYTE	W06
	BYTE	PEND
// 004   ----------------------------------------
ApolloJusticeTellingtheTruth2009_5_004:
	BYTE		N05     Bn3   v116
	BYTE	W06
	BYTE		        Fs3 
	BYTE	W06
	BYTE		        Bn3 
	BYTE	W06
	BYTE		        Cs4 
	BYTE	W06
	BYTE		        Dn4 
	BYTE	W06
	BYTE		        Cs4 
	BYTE	W06
	BYTE		        Dn4 
	BYTE	W06
	BYTE		        En4 
	BYTE	W06
	BYTE		N02     Cs4 
	BYTE	W03
	BYTE		        Fs3 
	BYTE	W03
	BYTE		N05     Gs3 
	BYTE	W06
	BYTE		        Cs4 
	BYTE	W06
	BYTE		        Ds4 
	BYTE	W06
	BYTE		        En4 
	BYTE	W06
	BYTE		        Ds4 
	BYTE	W06
	BYTE		        En4 
	BYTE	W06
	BYTE		        Fs4 
	BYTE	W06
	BYTE	PEND
// 005   ----------------------------------------
ApolloJusticeTellingtheTruth2009_5_005:
	BYTE		N05     Gs4   v116
	BYTE	W06
	BYTE		        Fs4 
	BYTE	W06
	BYTE		        En4 
	BYTE	W06
	BYTE		        Fs4 
	BYTE	W06
	BYTE		        En4 
	BYTE	W06
	BYTE		        Ds4 
	BYTE	W06
	BYTE		        Cs4 
	BYTE	W06
	BYTE		        Ds4 
	BYTE	W06
	BYTE		        Bn3 
	BYTE	W06
	BYTE		        Fs3 
	BYTE	W06
	BYTE		        Bn3 
	BYTE	W06
	BYTE		        Cs4 
	BYTE	W06
	BYTE		N17     Dn4 
	BYTE	W18
	BYTE		N02     Cs4 
	BYTE	W03
	BYTE		        Bn3 
	BYTE	W03
	BYTE	PEND
// 006   ----------------------------------------
ApolloJusticeTellingtheTruth2009_5_006:
	BYTE		N05     Bn3   v116
	BYTE	W06
	BYTE		        Fs3 
	BYTE	W06
	BYTE		        Bn3 
	BYTE	W06
	BYTE		        Cs4 
	BYTE	W06
	BYTE		        Dn4 
	BYTE	W06
	BYTE		        Cs4 
	BYTE	W06
	BYTE		        Dn4 
	BYTE	W06
	BYTE		        En4 
	BYTE	W06
	BYTE		        Cs4 
	BYTE	W06
	BYTE		        Gs3 
	BYTE	W06
	BYTE		        Cs4 
	BYTE	W06
	BYTE		        Ds4 
	BYTE	W06
	BYTE		        En4 
	BYTE	W06
	BYTE		        Ds4 
	BYTE	W06
	BYTE		        En4 
	BYTE	W06
	BYTE		        Fs4 
	BYTE	W06
	BYTE	PEND
// 007   ----------------------------------------
ApolloJusticeTellingtheTruth2009_5_007:
	BYTE		N05     Bn4   v116
	BYTE	W06
	BYTE		        An4 
	BYTE	W06
	BYTE		        Gs4 
	BYTE	W06
	BYTE		        An4 
	BYTE	W06
	BYTE		        Gs4 
	BYTE	W06
	BYTE		        Fs4 
	BYTE	W06
	BYTE		        En4 
	BYTE	W06
	BYTE		        Fs4 
	BYTE	W06
	BYTE		N02     Ds4 
	BYTE	W03
	BYTE		        En4 
	BYTE	W03
	BYTE		        Fs4 
	BYTE	W03
	BYTE		        Gs4 
	BYTE	W03
	BYTE		        En4 
	BYTE	W03
	BYTE		        Fs4 
	BYTE	W03
	BYTE		        Gs4 
	BYTE	W03
	BYTE		        An4 
	BYTE	W03
	BYTE		        Fs4 
	BYTE	W03
	BYTE		        Gs4 
	BYTE	W03
	BYTE		        An4 
	BYTE	W03
	BYTE		        Bn4 
	BYTE	W03
	BYTE		        Gs4 
	BYTE	W03
	BYTE		        An4 
	BYTE	W03
	BYTE		        Bn4 
	BYTE	W03
	BYTE		        Cs5 
	BYTE	W03
	BYTE	PEND
ApolloJusticeTellingtheTruth2009_5_B1:
// 008   ----------------------------------------
	BYTE	PATT
	 POIN2	ApolloJusticeTellingtheTruth2009_5_001
// 009   ----------------------------------------
	BYTE	PATT
	 POIN2	ApolloJusticeTellingtheTruth2009_5_001
// 010   ----------------------------------------
	BYTE	PATT
	 POIN2	ApolloJusticeTellingtheTruth2009_5_002
// 011   ----------------------------------------
	BYTE	PATT
	 POIN2	ApolloJusticeTellingtheTruth2009_5_003
// 012   ----------------------------------------
	BYTE	PATT
	 POIN2	ApolloJusticeTellingtheTruth2009_5_004
// 013   ----------------------------------------
	BYTE	PATT
	 POIN2	ApolloJusticeTellingtheTruth2009_5_005
// 014   ----------------------------------------
	BYTE	PATT
	 POIN2	ApolloJusticeTellingtheTruth2009_5_006
// 015   ----------------------------------------
	BYTE	PATT
	 POIN2	ApolloJusticeTellingtheTruth2009_5_007
// 016   ----------------------------------------
	BYTE		N02     Ds4   v068
	BYTE	W03
	BYTE		        En4 
	BYTE	W03
	BYTE		        Fs4 
	BYTE	W03
	BYTE		        Gs4 
	BYTE	W03
	BYTE		        En4 
	BYTE	W03
	BYTE		        Fs4 
	BYTE	W03
	BYTE		        Gs4 
	BYTE	W03
	BYTE		        An4 
	BYTE	W03
	BYTE		        Fs4 
	BYTE	W03
	BYTE		        Gs4 
	BYTE	W03
	BYTE		        An4 
	BYTE	W03
	BYTE		        Bn4 
	BYTE	W03
	BYTE		        Gs4 
	BYTE	W03
	BYTE		        An4 
	BYTE	W03
	BYTE		        Bn4 
	BYTE	W03
	BYTE		        Cs5 
	BYTE	W03
	BYTE	GoTo
	 POIN2	ApolloJusticeTellingtheTruth2009_5_B1
ApolloJusticeTellingtheTruth2009_5_B2:
	BYTE	FINE

//**************** Track 6 (Midi-Chn.6) ****************//

ApolloJusticeTellingtheTruth2009_6:
	BYTE	KEYSH   ApolloJusticeTellingtheTruth2009_key+0
// 000   ----------------------------------------
	BYTE		VOICE   29
	BYTE		MODT    0
	BYTE		LFOS    44
	BYTE		VOL     69*ApolloJusticeTellingtheTruth2009_mvl/mxv
	BYTE		PAN     c_v+3
	BYTE	W96
// 001   ----------------------------------------
	BYTE	W96
// 002   ----------------------------------------
	BYTE	W96
// 003   ----------------------------------------
	BYTE	W96
// 004   ----------------------------------------
	BYTE	W96
// 005   ----------------------------------------
	BYTE	W96
// 006   ----------------------------------------
ApolloJusticeTellingtheTruth2009_6_006:
	BYTE		N05     Fs3   v116
	BYTE	W06
	BYTE		        Dn3 
	BYTE	W06
	BYTE		        Fs3 
	BYTE	W06
	BYTE		        An3 
	BYTE	W06
	BYTE		        Bn3 
	BYTE	W06
	BYTE		        An3 
	BYTE	W06
	BYTE		        Bn3 
	BYTE	W06
	BYTE		        Cs4 
	BYTE	W06
	BYTE		        Gs3 
	BYTE	W06
	BYTE		        En3 
	BYTE	W06
	BYTE		        Gs3 
	BYTE	W06
	BYTE		        Bn3 
	BYTE	W06
	BYTE		        Cs4 
	BYTE	W06
	BYTE		        Bn3 
	BYTE	W06
	BYTE		        Cs4 
	BYTE	W06
	BYTE		        Ds4 
	BYTE	W06
	BYTE	PEND
// 007   ----------------------------------------
ApolloJusticeTellingtheTruth2009_6_007:
	BYTE		N05     Gs4   v116
	BYTE	W06
	BYTE		        Fs4 
	BYTE	W06
	BYTE		        En4 
	BYTE	W06
	BYTE		        Fs4 
	BYTE	W06
	BYTE		        En4 
	BYTE	W06
	BYTE		        Ds4 
	BYTE	W06
	BYTE		        Cs4 
	BYTE	W06
	BYTE		        Ds4 
	BYTE	W06
	BYTE		N02     Bn3 
	BYTE	W03
	BYTE		        Cs4 
	BYTE	W03
	BYTE		        Ds4 
	BYTE	W03
	BYTE		        En4 
	BYTE	W03
	BYTE		        Cs4 
	BYTE	W03
	BYTE		        Ds4 
	BYTE	W03
	BYTE		        En4 
	BYTE	W03
	BYTE		        Fs4 
	BYTE	W03
	BYTE		        Ds4 
	BYTE	W03
	BYTE		        En4 
	BYTE	W03
	BYTE		        Fs4 
	BYTE	W03
	BYTE		        Gs4 
	BYTE	W03
	BYTE		        En4 
	BYTE	W03
	BYTE		        Fs4 
	BYTE	W03
	BYTE		        Gs4 
	BYTE	W03
	BYTE		        An4 
	BYTE	W03
	BYTE	PEND
ApolloJusticeTellingtheTruth2009_6_B1:
// 008   ----------------------------------------
	BYTE	W96
// 009   ----------------------------------------
	BYTE	W96
// 010   ----------------------------------------
	BYTE	W96
// 011   ----------------------------------------
	BYTE	W96
// 012   ----------------------------------------
	BYTE	W96
// 013   ----------------------------------------
	BYTE	W96
// 014   ----------------------------------------
	BYTE	PATT
	 POIN2	ApolloJusticeTellingtheTruth2009_6_006
// 015   ----------------------------------------
	BYTE	PATT
	 POIN2	ApolloJusticeTellingtheTruth2009_6_007
// 016   ----------------------------------------
	BYTE		N02     Bn3   v068
	BYTE	W03
	BYTE		        Cs4 
	BYTE	W03
	BYTE		        Ds4 
	BYTE	W03
	BYTE		        En4 
	BYTE	W03
	BYTE		        Cs4 
	BYTE	W03
	BYTE		        Ds4 
	BYTE	W03
	BYTE		        En4 
	BYTE	W03
	BYTE		        Fs4 
	BYTE	W03
	BYTE		        Ds4 
	BYTE	W03
	BYTE		        En4 
	BYTE	W03
	BYTE		        Fs4 
	BYTE	W03
	BYTE		        Gs4 
	BYTE	W03
	BYTE		        En4 
	BYTE	W03
	BYTE		        Fs4 
	BYTE	W03
	BYTE		        Gs4 
	BYTE	W03
	BYTE		        An4 
	BYTE	W03
	BYTE	GoTo
	 POIN2	ApolloJusticeTellingtheTruth2009_6_B1
ApolloJusticeTellingtheTruth2009_6_B2:
	BYTE	FINE

//**************** Track 7 (Midi-Chn.7) ****************//

ApolloJusticeTellingtheTruth2009_7:
	BYTE	KEYSH   ApolloJusticeTellingtheTruth2009_key+0
// 000   ----------------------------------------
	BYTE		VOICE   29
	BYTE		MODT    0
	BYTE		LFOS    44
	BYTE		VOL     49*ApolloJusticeTellingtheTruth2009_mvl/mxv
	BYTE		PAN     c_v+2
	BYTE		BEND    c_v+3
	BYTE	W96
// 001   ----------------------------------------
	BYTE	W96
// 002   ----------------------------------------
	BYTE	W96
// 003   ----------------------------------------
	BYTE	W96
// 004   ----------------------------------------
	BYTE	W96
// 005   ----------------------------------------
	BYTE	W96
// 006   ----------------------------------------
ApolloJusticeTellingtheTruth2009_7_006:
	BYTE	W09
	BYTE		N05     Fs3   v116
	BYTE	W06
	BYTE		        Dn3 
	BYTE	W06
	BYTE		        Fs3 
	BYTE	W06
	BYTE		        An3 
	BYTE	W06
	BYTE		        Bn3 
	BYTE	W06
	BYTE		        An3 
	BYTE	W06
	BYTE		        Bn3 
	BYTE	W06
	BYTE		        Cs4 
	BYTE	W06
	BYTE		        Gs3 
	BYTE	W06
	BYTE		        En3 
	BYTE	W06
	BYTE		        Gs3 
	BYTE	W06
	BYTE		        Bn3 
	BYTE	W06
	BYTE		        Cs4 
	BYTE	W06
	BYTE		        Bn3 
	BYTE	W06
	BYTE		        Cs4 
	BYTE	W03
	BYTE	PEND
// 007   ----------------------------------------
ApolloJusticeTellingtheTruth2009_7_007:
	BYTE	W03
	BYTE		N05     Ds4   v116
	BYTE	W06
	BYTE		        Gs4 
	BYTE	W06
	BYTE		        Fs4 
	BYTE	W06
	BYTE		        En4 
	BYTE	W06
	BYTE		        Fs4 
	BYTE	W06
	BYTE		        En4 
	BYTE	W06
	BYTE		        Ds4 
	BYTE	W06
	BYTE		        Cs4 
	BYTE	W06
	BYTE		        Ds4 
	BYTE	W06
	BYTE		N02     Bn3 
	BYTE	W03
	BYTE		        Cs4 
	BYTE	W03
	BYTE		        Ds4 
	BYTE	W03
	BYTE		        En4 
	BYTE	W03
	BYTE		        Cs4 
	BYTE	W03
	BYTE		        Ds4 
	BYTE	W03
	BYTE		        En4 
	BYTE	W03
	BYTE		        Fs4 
	BYTE	W03
	BYTE		        Ds4 
	BYTE	W03
	BYTE		        En4 
	BYTE	W03
	BYTE		        Fs4 
	BYTE	W03
	BYTE		        Gs4 
	BYTE	W03
	BYTE		        En4 
	BYTE	W03
	BYTE	PEND
ApolloJusticeTellingtheTruth2009_7_B1:
// 008   ----------------------------------------
	BYTE		N02     Fs4   v116
	BYTE	W03
	BYTE		        Gs4 
	BYTE	W03
	BYTE		        An4 
	BYTE	W90
// 009   ----------------------------------------
	BYTE	W96
// 010   ----------------------------------------
	BYTE	W96
// 011   ----------------------------------------
	BYTE	W96
// 012   ----------------------------------------
	BYTE	W96
// 013   ----------------------------------------
	BYTE	W96
// 014   ----------------------------------------
	BYTE	PATT
	 POIN2	ApolloJusticeTellingtheTruth2009_7_006
// 015   ----------------------------------------
	BYTE	PATT
	 POIN2	ApolloJusticeTellingtheTruth2009_7_007
// 016   ----------------------------------------
	BYTE		N02     Fs4   v116
	BYTE	W03
	BYTE		        Gs4 
	BYTE	W03
	BYTE		        An4 
	BYTE	W03
	BYTE		        Bn3   v068
	BYTE	W03
	BYTE		        Cs4 
	BYTE	W03
	BYTE		        Ds4 
	BYTE	W03
	BYTE		        En4 
	BYTE	W03
	BYTE		        Cs4 
	BYTE	W03
	BYTE		        Ds4 
	BYTE	W03
	BYTE		        En4 
	BYTE	W03
	BYTE		        Fs4 
	BYTE	W03
	BYTE		        Ds4 
	BYTE	W03
	BYTE		        En4 
	BYTE	W03
	BYTE		        Fs4 
	BYTE	W03
	BYTE		        Gs4 
	BYTE	W03
	BYTE		        En4 
	BYTE	W03
	BYTE	GoTo
	 POIN2	ApolloJusticeTellingtheTruth2009_7_B1
ApolloJusticeTellingtheTruth2009_7_B2:
	BYTE	FINE

//**************** Track 8 (Midi-Chn.8) ****************//

ApolloJusticeTellingtheTruth2009_8:
	BYTE	KEYSH   ApolloJusticeTellingtheTruth2009_key+0
// 000   ----------------------------------------
	BYTE		VOICE   62
	BYTE		MODT    0
	BYTE		LFOS    44
	BYTE		VOL     39*ApolloJusticeTellingtheTruth2009_mvl/mxv
	BYTE		PAN     c_v-5
	BYTE		MOD     1
	BYTE		BEND    c_v+1
	BYTE	W09
	BYTE		N05     Cs4   v116
	BYTE	W06
	BYTE		        Fs3 
	BYTE	W06
	BYTE		        Fs4 
	BYTE	W06
	BYTE		        Fs3 
	BYTE	W06
	BYTE		        Cs4 
	BYTE	W06
	BYTE		        Fs3 
	BYTE	W06
	BYTE		        Fs4 
	BYTE	W06
	BYTE		        Fs3 
	BYTE	W06
	BYTE		        Cs4 
	BYTE	W06
	BYTE		        Fs3 
	BYTE	W06
	BYTE		        Fs4 
	BYTE	W06
	BYTE		        Fs3 
	BYTE	W06
	BYTE		        Cs4 
	BYTE	W06
	BYTE		        Fs3 
	BYTE	W06
	BYTE		        Fs4 
	BYTE	W03
// 001   ----------------------------------------
ApolloJusticeTellingtheTruth2009_8_001:
	BYTE	W03
	BYTE		N05     Fs3   v116
	BYTE	W06
	BYTE		        Cs4 
	BYTE	W06
	BYTE		        Fs3 
	BYTE	W06
	BYTE		        Fs4 
	BYTE	W06
	BYTE		        Fs3 
	BYTE	W06
	BYTE		        Cs4 
	BYTE	W06
	BYTE		        Fs3 
	BYTE	W06
	BYTE		        Fs4 
	BYTE	W06
	BYTE		        Fs3 
	BYTE	W06
	BYTE		        Cs4 
	BYTE	W06
	BYTE		        Fs3 
	BYTE	W06
	BYTE		        Fs4 
	BYTE	W06
	BYTE		        Fs3 
	BYTE	W06
	BYTE		        Cs4 
	BYTE	W06
	BYTE		        Fs3 
	BYTE	W06
	BYTE		        Fs4 
	BYTE	W03
	BYTE	PEND
// 002   ----------------------------------------
ApolloJusticeTellingtheTruth2009_8_002:
	BYTE	W03
	BYTE		N05     Fs3   v116
	BYTE	W06
	BYTE		        Cs4 
	BYTE	W06
	BYTE		        Fs3 
	BYTE	W06
	BYTE		        Fs4 
	BYTE	W06
	BYTE		        Fs3 
	BYTE	W06
	BYTE		        Gs4 
	BYTE	W06
	BYTE		        Fs3 
	BYTE	W06
	BYTE		        Fs4 
	BYTE	W06
	BYTE		        Fs3 
	BYTE	W06
	BYTE		        Cs4 
	BYTE	W06
	BYTE		        Fs3 
	BYTE	W06
	BYTE		        Fs4 
	BYTE	W06
	BYTE		        Fs3 
	BYTE	W06
	BYTE		        Gs4 
	BYTE	W06
	BYTE		        Fs3 
	BYTE	W06
	BYTE		        Fs4 
	BYTE	W03
	BYTE	PEND
// 003   ----------------------------------------
ApolloJusticeTellingtheTruth2009_8_003:
	BYTE	W03
	BYTE		N05     Fs3   v116
	BYTE	W06
	BYTE		        Cs4 
	BYTE	W06
	BYTE		        Fs3 
	BYTE	W06
	BYTE		        Fs4 
	BYTE	W06
	BYTE		        Fs3 
	BYTE	W06
	BYTE		        Gs4 
	BYTE	W06
	BYTE		        Fs3 
	BYTE	W06
	BYTE		        Fs4 
	BYTE	W06
	BYTE		        Fs3 
	BYTE	W06
	BYTE		        Cs4 
	BYTE	W06
	BYTE		        Fs3 
	BYTE	W06
	BYTE		        Fs4 
	BYTE	W06
	BYTE		        Fs3 
	BYTE	W06
	BYTE		        Gs4 
	BYTE	W06
	BYTE		        An4 
	BYTE	W06
	BYTE		        Gs4 
	BYTE	W03
	BYTE	PEND
// 004   ----------------------------------------
ApolloJusticeTellingtheTruth2009_8_004:
	BYTE	W03
	BYTE		N05     Fs4   v116
	BYTE	W06
	BYTE		        Bn3 
	BYTE	W06
	BYTE		        Fs3 
	BYTE	W06
	BYTE		        Bn3 
	BYTE	W06
	BYTE		        Cs4 
	BYTE	W06
	BYTE		        Dn4 
	BYTE	W06
	BYTE		        Cs4 
	BYTE	W06
	BYTE		        Dn4 
	BYTE	W06
	BYTE		        En4 
	BYTE	W06
	BYTE		N02     Cs4 
	BYTE	W03
	BYTE		        Fs3 
	BYTE	W03
	BYTE		N05     Gs3 
	BYTE	W06
	BYTE		        Cs4 
	BYTE	W06
	BYTE		        Ds4 
	BYTE	W06
	BYTE		        En4 
	BYTE	W06
	BYTE		        Ds4 
	BYTE	W06
	BYTE		        En4 
	BYTE	W03
	BYTE	PEND
// 005   ----------------------------------------
ApolloJusticeTellingtheTruth2009_8_005:
	BYTE	W03
	BYTE		N05     Fs4   v116
	BYTE	W06
	BYTE		        Gs4 
	BYTE	W06
	BYTE		        Fs4 
	BYTE	W06
	BYTE		        En4 
	BYTE	W06
	BYTE		        Fs4 
	BYTE	W06
	BYTE		        En4 
	BYTE	W06
	BYTE		        Ds4 
	BYTE	W06
	BYTE		        Cs4 
	BYTE	W06
	BYTE		        Ds4 
	BYTE	W06
	BYTE		        Bn3 
	BYTE	W06
	BYTE		        Fs3 
	BYTE	W06
	BYTE		        Bn3 
	BYTE	W06
	BYTE		        Cs4 
	BYTE	W06
	BYTE		N17     Dn4 
	BYTE	W15
	BYTE	PEND
// 006   ----------------------------------------
ApolloJusticeTellingtheTruth2009_8_006:
	BYTE	W03
	BYTE		N02     Cs4   v116
	BYTE	W03
	BYTE		        Bn3 
	BYTE	W03
	BYTE		N05   
	BYTE	W06
	BYTE		        Fs3 
	BYTE	W06
	BYTE		        Bn3 
	BYTE	W06
	BYTE		        Cs4 
	BYTE	W06
	BYTE		        Dn4 
	BYTE	W06
	BYTE		        Cs4 
	BYTE	W06
	BYTE		        Dn4 
	BYTE	W06
	BYTE		        En4 
	BYTE	W06
	BYTE		        Cs4 
	BYTE	W06
	BYTE		        Gs3 
	BYTE	W06
	BYTE		        Cs4 
	BYTE	W06
	BYTE		        Ds4 
	BYTE	W06
	BYTE		        En4 
	BYTE	W06
	BYTE		        Ds4 
	BYTE	W06
	BYTE		        En4 
	BYTE	W03
	BYTE	PEND
// 007   ----------------------------------------
ApolloJusticeTellingtheTruth2009_8_007:
	BYTE	W03
	BYTE		N05     Fs4   v116
	BYTE	W06
	BYTE		        Bn4 
	BYTE	W06
	BYTE		        An4 
	BYTE	W06
	BYTE		        Gs4 
	BYTE	W06
	BYTE		        An4 
	BYTE	W06
	BYTE		        Gs4 
	BYTE	W06
	BYTE		        Fs4 
	BYTE	W06
	BYTE		        En4 
	BYTE	W06
	BYTE		        Fs4 
	BYTE	W06
	BYTE		N02     Ds4 
	BYTE	W03
	BYTE		        En4 
	BYTE	W03
	BYTE		        Fs4 
	BYTE	W03
	BYTE		        Gs4 
	BYTE	W03
	BYTE		        En4 
	BYTE	W03
	BYTE		        Fs4 
	BYTE	W03
	BYTE		        Gs4 
	BYTE	W03
	BYTE		        An4 
	BYTE	W03
	BYTE		        Fs4 
	BYTE	W03
	BYTE		        Gs4 
	BYTE	W03
	BYTE		        An4 
	BYTE	W03
	BYTE		        Bn4 
	BYTE	W03
	BYTE		        Gs4 
	BYTE	W03
	BYTE	PEND
ApolloJusticeTellingtheTruth2009_8_B1:
// 008   ----------------------------------------
	BYTE		N02     An4   v116
	BYTE	W03
	BYTE		        Bn4 
	BYTE	W03
	BYTE		        Cs5 
	BYTE	W03
	BYTE		N05     Cs4 
	BYTE	W06
	BYTE		        Fs3 
	BYTE	W06
	BYTE		        Fs4 
	BYTE	W06
	BYTE		        Fs3 
	BYTE	W06
	BYTE		        Cs4 
	BYTE	W06
	BYTE		        Fs3 
	BYTE	W06
	BYTE		        Fs4 
	BYTE	W06
	BYTE		        Fs3 
	BYTE	W06
	BYTE		        Cs4 
	BYTE	W06
	BYTE		        Fs3 
	BYTE	W06
	BYTE		        Fs4 
	BYTE	W06
	BYTE		        Fs3 
	BYTE	W06
	BYTE		        Cs4 
	BYTE	W06
	BYTE		        Fs3 
	BYTE	W06
	BYTE		        Fs4 
	BYTE	W03
// 009   ----------------------------------------
	BYTE	PATT
	 POIN2	ApolloJusticeTellingtheTruth2009_8_001
// 010   ----------------------------------------
	BYTE	PATT
	 POIN2	ApolloJusticeTellingtheTruth2009_8_002
// 011   ----------------------------------------
	BYTE	PATT
	 POIN2	ApolloJusticeTellingtheTruth2009_8_003
// 012   ----------------------------------------
	BYTE	PATT
	 POIN2	ApolloJusticeTellingtheTruth2009_8_004
// 013   ----------------------------------------
	BYTE	PATT
	 POIN2	ApolloJusticeTellingtheTruth2009_8_005
// 014   ----------------------------------------
	BYTE	PATT
	 POIN2	ApolloJusticeTellingtheTruth2009_8_006
// 015   ----------------------------------------
	BYTE	PATT
	 POIN2	ApolloJusticeTellingtheTruth2009_8_007
// 016   ----------------------------------------
	BYTE		N02     An4   v116
	BYTE	W03
	BYTE		        Bn4 
	BYTE	W03
	BYTE		        Cs5 
	BYTE	W03
	BYTE		        Ds4   v068
	BYTE	W03
	BYTE		        En4 
	BYTE	W03
	BYTE		        Fs4 
	BYTE	W03
	BYTE		        Gs4 
	BYTE	W03
	BYTE		        En4 
	BYTE	W03
	BYTE		        Fs4 
	BYTE	W03
	BYTE		        Gs4 
	BYTE	W03
	BYTE		        An4 
	BYTE	W03
	BYTE		        Fs4 
	BYTE	W03
	BYTE		        Gs4 
	BYTE	W03
	BYTE		        An4 
	BYTE	W03
	BYTE		        Bn4 
	BYTE	W03
	BYTE		        Gs4 
	BYTE	W03
	BYTE	GoTo
	 POIN2	ApolloJusticeTellingtheTruth2009_8_B1
ApolloJusticeTellingtheTruth2009_8_B2:
	BYTE	FINE

//******************************************************//
	ALIGN 4

ApolloJusticeTellingtheTruth2009:
	BYTE	8	// NumTrks
	BYTE	0	// NumBlks
	BYTE	ApolloJusticeTellingtheTruth2009_pri	// Priority
	BYTE	ApolloJusticeTellingtheTruth2009_rev	// Reverb.

	POIN2	ApolloJusticeTellingtheTruth2009_grp

	POIN2	ApolloJusticeTellingtheTruth2009_1
	POIN2	ApolloJusticeTellingtheTruth2009_2
	POIN2	ApolloJusticeTellingtheTruth2009_3
	POIN2	ApolloJusticeTellingtheTruth2009_4
	POIN2	ApolloJusticeTellingtheTruth2009_5
	POIN2	ApolloJusticeTellingtheTruth2009_6
	POIN2	ApolloJusticeTellingtheTruth2009_7
	POIN2	ApolloJusticeTellingtheTruth2009_8

	
