	.include "MPlayDef.s"

	.equ	ApolloJusticeAceAttorneyTroupeGramarye_grp, voicegroup000
	.equ	ApolloJusticeAceAttorneyTroupeGramarye_pri, 0
	.equ	ApolloJusticeAceAttorneyTroupeGramarye_rev, 0
	.equ	ApolloJusticeAceAttorneyTroupeGramarye_mvl, 127
	.equ	ApolloJusticeAceAttorneyTroupeGramarye_key, 0
	.equ	ApolloJusticeAceAttorneyTroupeGramarye_tbs, 1
	.equ	ApolloJusticeAceAttorneyTroupeGramarye_exg, 0
	.equ	ApolloJusticeAceAttorneyTroupeGramarye_cmp, 1

	.section .rodata
	.global	ApolloJusticeAceAttorneyTroupeGramarye
	.align	2


@**************** Track 1 (Midi-Chn.0) ****************@

ApolloJusticeAceAttorneyTroupeGramarye_001:
@  #01 @000   ----------------------------------------
 .byte   KEYSH , ApolloJusticeAceAttorneyTroupeGramarye_key+0
 .byte   TEMPO , 130*ApolloJusticeAceAttorneyTroupeGramarye_tbs/2
 .byte   VOICE , 121
 .byte   MODT 0
 .byte   LFOS 44
 .byte   VOL , 68*ApolloJusticeAceAttorneyTroupeGramarye_mvl/mxv
 .byte   PAN , c_v+0
 .byte   N05 ,Cn1 ,v127
 .byte   N05 ,Cs2 ,v072
 .byte   N04 ,Dn3 ,v100
 .byte   W04
 .byte   Dn3 ,v060
 .byte   W04
 .byte   Dn3 ,v028
 .byte   W04
 .byte   N05 ,Gs1 ,v072
 .byte   N05 ,Dn3
 .byte   W06
 .byte   Cn1 ,v088
 .byte   N05 ,Dn3 ,v036
 .byte   W06
 .byte   Cn1 ,v127
 .byte   N04 ,Bn2 ,v100
 .byte   W04
 .byte   Bn2 ,v060
 .byte   W04
 .byte   Bn2 ,v028
 .byte   W04
 .byte   N05 ,Gs1 ,v072
 .byte   N04 ,Bn2
 .byte   W06
 .byte   N05 ,Cn1 ,v088
 .byte   N04 ,Bn2 ,v036
 .byte   W06
 .byte   N05 ,Cn1 ,v127
 .byte   N04 ,An2 ,v100
 .byte   W04
 .byte   An2 ,v060
 .byte   W04
 .byte   An2 ,v028
 .byte   W04
 .byte   N05 ,Gs1 ,v072
 .byte   N04 ,An2
 .byte   W06
 .byte   N05 ,Cn1 ,v088
 .byte   N04 ,An2 ,v036
 .byte   W06
 .byte   N05 ,Cn1 ,v127
 .byte   N04 ,Gn2 ,v100
 .byte   W04
 .byte   Gn2 ,v060
 .byte   W04
 .byte   Gn2 ,v028
 .byte   W04
 .byte   N05 ,Cn1 ,v127
 .byte   N05 ,Gs1 ,v072
 .byte   N04 ,Gn2
 .byte   W06
 .byte   Gn2 ,v036
 .byte   W06
@  #01 @001   ----------------------------------------
 .byte   N05 ,Cn1 ,v127
 .byte   N05 ,Cs2 ,v072
 .byte   N04 ,Gn2 ,v068
 .byte   W04
 .byte   Gn2 ,v032
 .byte   W04
 .byte   Gn2 ,v008
 .byte   W04
 .byte   N05 ,Gs1 ,v072
 .byte   N05 ,Gn2 ,v044
 .byte   W06
 .byte   Cn1 ,v088
 .byte   N05 ,Gn2 ,v016
 .byte   W06
 .byte   Cn1 ,v127
 .byte   N04 ,Gn2 ,v088
 .byte   W04
 .byte   Gn2 ,v048
 .byte   W04
 .byte   Gn2 ,v020
 .byte   W04
 .byte   N05 ,Gs1 ,v072
 .byte   N05 ,Cs2
 .byte   N04 ,Gn2 ,v060
 .byte   W06
 .byte   N05 ,Cn1 ,v088
 .byte   N04 ,Gn2 ,v028
 .byte   W06
 .byte   N05 ,Cn1 ,v127
 .byte   N04 ,Gn2 ,v108
 .byte   W04
 .byte   Gn2 ,v068
 .byte   W04
 .byte   Gn2 ,v032
 .byte   W04
 .byte   N05 ,Gs1 ,v072
 .byte   N04 ,Gn2 ,v080
 .byte   W06
 .byte   N05 ,Cn1 ,v088
 .byte   N04 ,Gn2 ,v044
 .byte   W06
 .byte   N05 ,Cn1 ,v127
 .byte   N04 ,Gn2 ,v100
 .byte   W04
 .byte   Gn2 ,v060
 .byte   W04
 .byte   Gn2 ,v028
 .byte   W04
 .byte   N05 ,Cn1 ,v127
 .byte   N05 ,Gs1 ,v072
 .byte   N04 ,Gn2
 .byte   W06
 .byte   Gn2 ,v036
 .byte   W06
@  #01 @002   ----------------------------------------
 .byte   N05 ,Cn1 ,v127
 .byte   N05 ,Gn2 ,v100
 .byte   W12
 .byte   Dn1 ,v048
 .byte   W12
 .byte   Cn1 ,v127
 .byte   N05 ,Dn1 ,v056
 .byte   W12
 .byte   Dn1 ,v068
 .byte   W12
 .byte   Cn1 ,v127
 .byte   N05 ,Dn1 ,v080
 .byte   N05 ,Cs2 ,v072
 .byte   W06
 .byte   Cn1 ,v088
 .byte   N05 ,Dn1
 .byte   W06
 .byte   Dn1 ,v092
 .byte   W06
 .byte   Cn1 ,v088
 .byte   N05 ,Dn1 ,v100
 .byte   W06
 .byte   Cn1 ,v127
 .byte   N05 ,Dn1 ,v108
 .byte   W06
 .byte   Dn1 ,v112
 .byte   W06
 .byte   Cn1 ,v100
 .byte   N05 ,Dn1 ,v120
 .byte   W06
 .byte   Cn1 ,v088
 .byte   N05 ,Dn1 ,v127
 .byte   W06
@  #01 @003   ----------------------------------------
Label_016607FE:
 .byte   N05 ,Cn1 ,v127
 .byte   N05 ,Fs1 ,v048
 .byte   N05 ,Cs2 ,v072
 .byte   W12
 .byte   Fs1 ,v028
 .byte   W06
 .byte   Fs1 ,v012
 .byte   N05 ,Cs4 ,v044
 .byte   W06
 .byte   Dn1 ,v108
 .byte   N05 ,Fs1 ,v048
 .byte   W12
 .byte   Fs1 ,v028
 .byte   N05 ,Cs4 ,v056
 .byte   W06
 .byte   Dn1 ,v028
 .byte   N05 ,Fs1 ,v012
 .byte   W06
 .byte   Cn1 ,v127
 .byte   N05 ,Fs1 ,v048
 .byte   W12
 .byte   Fs1 ,v028
 .byte   W06
 .byte   Fs1 ,v012
 .byte   W06
 .byte   Dn1 ,v108
 .byte   N05 ,Fs1 ,v048
 .byte   W12
 .byte   Fs1 ,v028
 .byte   W06
 .byte   Fs1 ,v012
 .byte   W06
@  #01 @004   ----------------------------------------
Label_0166083B:
 .byte   N05 ,Cn1 ,v127
 .byte   N05 ,Fs1 ,v048
 .byte   W12
 .byte   Fs1 ,v028
 .byte   W06
 .byte   Fs1 ,v012
 .byte   N05 ,Cs4 ,v044
 .byte   W06
 .byte   Dn1 ,v108
 .byte   N05 ,Fs1 ,v048
 .byte   W12
 .byte   Fs1 ,v028
 .byte   N05 ,Cs4 ,v056
 .byte   W06
 .byte   Dn1 ,v028
 .byte   N05 ,Fs1 ,v012
 .byte   W06
 .byte   Cn1 ,v127
 .byte   N05 ,Fs1 ,v048
 .byte   W12
 .byte   Fs1 ,v028
 .byte   W06
 .byte   Fs1 ,v012
 .byte   W06
 .byte   Dn1 ,v108
 .byte   N05 ,Fs1 ,v048
 .byte   W12
 .byte   Fs1 ,v028
 .byte   W06
 .byte   Fs1 ,v012
 .byte   W06
 .byte   PEND 
@  #01 @005   ----------------------------------------
 .byte   PATT
  .word Label_0166083B
@  #01 @006   ----------------------------------------
 .byte   N05 ,Cn1 ,v127
 .byte   N05 ,Fs1 ,v048
 .byte   W12
 .byte   Fs1 ,v028
 .byte   W06
 .byte   Fs1 ,v012
 .byte   N05 ,Cs4 ,v044
 .byte   W06
 .byte   Dn1 ,v108
 .byte   N05 ,Fs1 ,v048
 .byte   W12
 .byte   Fs1 ,v028
 .byte   N05 ,Cs4 ,v056
 .byte   W06
 .byte   Dn1 ,v028
 .byte   N05 ,Fs1 ,v012
 .byte   W06
 .byte   Cn1 ,v127
 .byte   N05 ,Fs1 ,v048
 .byte   W12
 .byte   Fs1 ,v028
 .byte   W06
 .byte   Fs1 ,v012
 .byte   W06
 .byte   Dn1 ,v108
 .byte   N05 ,Fs1 ,v048
 .byte   W12
 .byte   Dn1 ,v072
 .byte   N05 ,Fs1 ,v028
 .byte   W06
 .byte   Fs1 ,v012
 .byte   W06
@  #01 @007   ----------------------------------------
 .byte   PATT
  .word Label_0166083B
@  #01 @008   ----------------------------------------
 .byte   PATT
  .word Label_0166083B
@  #01 @009   ----------------------------------------
 .byte   PATT
  .word Label_0166083B
@  #01 @010   ----------------------------------------
 .byte   N05 ,Cn1 ,v127
 .byte   W72
 .byte   Dn1 ,v108
 .byte   W12
 .byte   Dn1 ,v060
 .byte   W06
 .byte   Dn1 ,v036
 .byte   W06
@  #01 @011   ----------------------------------------
 .byte   Cn1 ,v127
 .byte   N05 ,Fs1 ,v048
 .byte   N05 ,Cs2 ,v072
 .byte   W06
 .byte   Fs1 ,v012
 .byte   W06
 .byte   Fs1 ,v028
 .byte   W06
 .byte   Fs1 ,v012
 .byte   N05 ,Cs4 ,v044
 .byte   W06
 .byte   Dn1 ,v108
 .byte   N05 ,Fs1 ,v048
 .byte   W06
 .byte   Fs1 ,v012
 .byte   W06
 .byte   Fs1 ,v028
 .byte   N05 ,Cs4 ,v056
 .byte   W06
 .byte   Dn1 ,v028
 .byte   N05 ,Fs1 ,v012
 .byte   W06
 .byte   Cn1 ,v127
 .byte   N05 ,Fs1 ,v048
 .byte   W06
 .byte   Fs1 ,v012
 .byte   W06
 .byte   Fs1 ,v028
 .byte   W06
 .byte   Fs1 ,v012
 .byte   W06
 .byte   Dn1 ,v108
 .byte   N05 ,Fs1 ,v048
 .byte   W06
 .byte   Fs1 ,v012
 .byte   W06
 .byte   Fs1 ,v028
 .byte   W06
 .byte   Fs1 ,v012
 .byte   W06
@  #01 @012   ----------------------------------------
Label_0166091C:
 .byte   N05 ,Cn1 ,v127
 .byte   N05 ,Fs1 ,v048
 .byte   W06
 .byte   Fs1 ,v012
 .byte   W06
 .byte   Fs1 ,v028
 .byte   W06
 .byte   Fs1 ,v012
 .byte   N05 ,Cs4 ,v044
 .byte   W06
 .byte   Dn1 ,v108
 .byte   N05 ,Fs1 ,v048
 .byte   W06
 .byte   Fs1 ,v012
 .byte   W06
 .byte   Fs1 ,v028
 .byte   N05 ,Cs4 ,v056
 .byte   W06
 .byte   Dn1 ,v028
 .byte   N05 ,Fs1 ,v012
 .byte   W06
 .byte   Cn1 ,v127
 .byte   N05 ,Fs1 ,v048
 .byte   W06
 .byte   Fs1 ,v012
 .byte   W06
 .byte   Fs1 ,v028
 .byte   W06
 .byte   Fs1 ,v012
 .byte   W06
 .byte   Dn1 ,v108
 .byte   N05 ,Fs1 ,v048
 .byte   W06
 .byte   Fs1 ,v012
 .byte   W06
 .byte   Fs1 ,v028
 .byte   W06
 .byte   Fs1 ,v012
 .byte   W06
 .byte   PEND 
@  #01 @013   ----------------------------------------
 .byte   PATT
  .word Label_0166091C
@  #01 @014   ----------------------------------------
 .byte   N05 ,Cn1 ,v127
 .byte   N05 ,Fs1 ,v048
 .byte   W06
 .byte   Fs1 ,v012
 .byte   W06
 .byte   Fs1 ,v028
 .byte   W06
 .byte   Fs1 ,v012
 .byte   N05 ,Cs4 ,v044
 .byte   W06
 .byte   Dn1 ,v108
 .byte   N05 ,Fs1 ,v048
 .byte   W06
 .byte   Fs1 ,v012
 .byte   W06
 .byte   Fs1 ,v028
 .byte   N05 ,Cs4 ,v056
 .byte   W06
 .byte   Dn1 ,v028
 .byte   N05 ,Fs1 ,v012
 .byte   W06
 .byte   Cn1 ,v127
 .byte   N05 ,Fs1 ,v048
 .byte   W06
 .byte   Fs1 ,v012
 .byte   W06
 .byte   Fs1 ,v028
 .byte   W06
 .byte   Fs1 ,v012
 .byte   W06
 .byte   Dn1 ,v108
 .byte   N05 ,Fs1 ,v048
 .byte   W06
 .byte   Fs1 ,v012
 .byte   W06
 .byte   Dn1 ,v072
 .byte   N05 ,Fs1 ,v028
 .byte   W06
 .byte   Fs1 ,v012
 .byte   W06
@  #01 @015   ----------------------------------------
 .byte   PATT
  .word Label_0166091C
@  #01 @016   ----------------------------------------
 .byte   PATT
  .word Label_0166091C
@  #01 @017   ----------------------------------------
 .byte   PATT
  .word Label_0166091C
@  #01 @018   ----------------------------------------
 .byte   N05 ,Cn1 ,v127
 .byte   N05 ,Fs1 ,v048
 .byte   W06
 .byte   Fs1 ,v012
 .byte   W06
 .byte   Fs1 ,v028
 .byte   W06
 .byte   Fs1 ,v012
 .byte   N05 ,Cs4 ,v044
 .byte   W06
 .byte   Dn1 ,v108
 .byte   N05 ,Fs1 ,v048
 .byte   W06
 .byte   Fs1 ,v012
 .byte   W06
 .byte   Fs1 ,v028
 .byte   N05 ,Cs4 ,v056
 .byte   W06
 .byte   Fs1 ,v012
 .byte   W06
 .byte   Dn1 ,v108
 .byte   W06
 .byte   N06 ,Dn3 ,v072
 .byte   W12
 .byte   Bn2 ,v060
 .byte   W12
 .byte   An2 ,v056
 .byte   W12
 .byte   Gn2 ,v048
 .byte   W06
@  #01 @019   ----------------------------------------
Label_016609F5:
 .byte   N05 ,Dn1 ,v108
 .byte   N05 ,Fs1 ,v048
 .byte   N05 ,Cs2 ,v072
 .byte   W12
 .byte   Cn1 ,v100
 .byte   N05 ,Fs1 ,v020
 .byte   W12
 .byte   Dn1 ,v108
 .byte   N05 ,Fs1 ,v048
 .byte   W12
 .byte   Cn1 ,v100
 .byte   N05 ,Fs1 ,v020
 .byte   W12
 .byte   Dn1 ,v108
 .byte   N05 ,Fs1 ,v048
 .byte   W12
 .byte   Cn1 ,v100
 .byte   N05 ,Fs1 ,v020
 .byte   W12
 .byte   Dn1 ,v108
 .byte   N05 ,Fs1 ,v048
 .byte   W12
 .byte   Cn1 ,v100
 .byte   N05 ,Fs1 ,v020
 .byte   N05 ,An2 ,v072
 .byte   W12
 .byte   PEND 
@  #01 @020   ----------------------------------------
 .byte   Dn1 ,v108
 .byte   N05 ,Fs1 ,v048
 .byte   N05 ,Cs2 ,v072
 .byte   W12
 .byte   Cn1 ,v100
 .byte   N05 ,Fs1 ,v020
 .byte   W12
 .byte   Dn1 ,v108
 .byte   N05 ,Fs1 ,v048
 .byte   W12
 .byte   Cn1 ,v100
 .byte   N05 ,Fs1 ,v020
 .byte   W12
 .byte   Dn1 ,v108
 .byte   N05 ,Fs1 ,v048
 .byte   W12
 .byte   Cn1 ,v100
 .byte   N05 ,Fs1 ,v020
 .byte   W12
 .byte   Dn1 ,v108
 .byte   N05 ,Fs1 ,v048
 .byte   W12
 .byte   Cn1 ,v100
 .byte   N05 ,Fs1 ,v020
 .byte   W12
@  #01 @021   ----------------------------------------
 .byte   PATT
  .word Label_016609F5
@  #01 @022   ----------------------------------------
 .byte   N05 ,Dn1 ,v108
 .byte   N05 ,Fs1 ,v048
 .byte   N05 ,Cs2 ,v072
 .byte   W12
 .byte   Cn1 ,v100
 .byte   N05 ,Fs1 ,v020
 .byte   W12
 .byte   Dn1 ,v108
 .byte   N05 ,Fs1 ,v048
 .byte   W12
 .byte   Cn1 ,v100
 .byte   N05 ,Fs1 ,v020
 .byte   W12
 .byte   Dn1 ,v108
 .byte   N05 ,Fs1 ,v048
 .byte   W12
 .byte   Cn1 ,v100
 .byte   N05 ,Fs1 ,v020
 .byte   W12
 .byte   Dn1 ,v108
 .byte   N05 ,Fs1 ,v048
 .byte   W06
 .byte   Dn1 ,v088
 .byte   W06
 .byte   Fs1 ,v020
 .byte   N05 ,An2 ,v072
 .byte   W12
@  #01 @023   ----------------------------------------
 .byte   Dn1 ,v108
 .byte   N05 ,Fs1 ,v048
 .byte   N05 ,Cs2 ,v072
 .byte   W12
 .byte   Cn1 ,v100
 .byte   N05 ,Fs1 ,v020
 .byte   W12
 .byte   Dn1 ,v108
 .byte   N05 ,Fs1 ,v048
 .byte   W12
 .byte   Cn1 ,v100
 .byte   N05 ,Fs1 ,v020
 .byte   W12
 .byte   Dn1 ,v108
 .byte   N05 ,Fs1 ,v048
 .byte   W12
 .byte   Cn1 ,v100
 .byte   N05 ,Fs1 ,v020
 .byte   W12
 .byte   Dn1 ,v108
 .byte   N05 ,Fs1 ,v048
 .byte   W12
 .byte   Dn1 ,v088
 .byte   N05 ,Fs1 ,v020
 .byte   W12
@  #01 @024   ----------------------------------------
 .byte   Dn1 ,v108
 .byte   N05 ,Fs1 ,v048
 .byte   W12
 .byte   Cn1 ,v100
 .byte   N05 ,Fs1 ,v020
 .byte   W12
 .byte   Dn1 ,v108
 .byte   N05 ,Fs1 ,v048
 .byte   W12
 .byte   Cn1 ,v100
 .byte   N05 ,Fs1 ,v020
 .byte   W12
 .byte   Dn1 ,v108
 .byte   N05 ,Fs1 ,v048
 .byte   W12
 .byte   Cn1 ,v100
 .byte   N05 ,Fs1 ,v020
 .byte   W12
 .byte   Dn1 ,v108
 .byte   N05 ,Fs1 ,v048
 .byte   W06
 .byte   Dn1 ,v088
 .byte   W06
 .byte   Cn1 ,v100
 .byte   N05 ,Fs1 ,v020
 .byte   W12
@  #01 @025   ----------------------------------------
 .byte   Dn1 ,v108
 .byte   N05 ,Fs1 ,v048
 .byte   W12
 .byte   Cn1 ,v100
 .byte   N05 ,Fs1 ,v020
 .byte   W12
 .byte   Dn1 ,v108
 .byte   N05 ,Fs1 ,v048
 .byte   W12
 .byte   Cn1 ,v100
 .byte   N05 ,Fs1 ,v020
 .byte   W12
 .byte   Dn1 ,v108
 .byte   N05 ,Fs1 ,v048
 .byte   W12
 .byte   Cn1 ,v100
 .byte   N05 ,Fs1 ,v020
 .byte   W12
 .byte   Dn1 ,v108
 .byte   N05 ,Fs1 ,v048
 .byte   W12
 .byte   Cn1 ,v100
 .byte   N05 ,Fs1 ,v020
 .byte   W12
@  #01 @026   ----------------------------------------
 .byte   Dn1 ,v108
 .byte   N05 ,Fs1 ,v048
 .byte   W12
 .byte   Cn1 ,v100
 .byte   N05 ,Fs1 ,v020
 .byte   W12
 .byte   Dn1 ,v108
 .byte   N05 ,Fs1 ,v048
 .byte   W12
 .byte   Dn1 ,v088
 .byte   N05 ,Fs1 ,v020
 .byte   W06
 .byte   Dn1 ,v060
 .byte   W06
 .byte   Dn1 ,v108
 .byte   W06
 .byte   N06 ,Dn3 ,v072
 .byte   W12
 .byte   Bn2 ,v060
 .byte   W12
 .byte   An2 ,v056
 .byte   W12
 .byte   Gn2 ,v048
 .byte   W06
@  #01 @027   ----------------------------------------
 .byte   N05 ,Cn1 ,v080
 .byte   N04 ,Dn1 ,v072
 .byte   N05 ,Gs1 ,v044
 .byte   N05 ,Cs2
 .byte   W04
 .byte   N04 ,Dn1
 .byte   W04
 .byte   Dn1 ,v032
 .byte   W04
 .byte   Dn1 ,v064
 .byte   W06
 .byte   Dn1 ,v044
 .byte   W06
 .byte   N05 ,Cn1 ,v080
 .byte   N04 ,Dn1 ,v072
 .byte   N05 ,Gs1 ,v044
 .byte   W04
 .byte   N04 ,Dn1
 .byte   W04
 .byte   Dn1 ,v032
 .byte   W04
 .byte   Dn1 ,v064
 .byte   W06
 .byte   Dn1 ,v044
 .byte   W06
 .byte   N05 ,Cn1 ,v080
 .byte   N04 ,Dn1 ,v072
 .byte   N05 ,Gs1 ,v044
 .byte   W04
 .byte   N04 ,Dn1
 .byte   W04
 .byte   Dn1 ,v032
 .byte   W04
 .byte   Dn1 ,v064
 .byte   W06
 .byte   Dn1 ,v044
 .byte   W06
 .byte   N05 ,Cn1 ,v080
 .byte   N05 ,Dn1 ,v056
 .byte   N05 ,Gs1 ,v044
 .byte   W06
 .byte   Dn1 ,v064
 .byte   W06
 .byte   Dn1 ,v072
 .byte   W06
 .byte   Dn1 ,v068
 .byte   W06
@  #01 @028   ----------------------------------------
 .byte   Cn1 ,v080
 .byte   N05 ,Gs1 ,v044
 .byte   N04 ,Dn3 ,v064
 .byte   W04
 .byte   Dn3 ,v036
 .byte   W04
 .byte   Dn3 ,v016
 .byte   W04
 .byte   N05 ,Dn3 ,v044
 .byte   W06
 .byte   Dn3 ,v024
 .byte   W06
 .byte   Cn1 ,v080
 .byte   N05 ,Gs1 ,v044
 .byte   N04 ,Bn2 ,v064
 .byte   W04
 .byte   Bn2 ,v036
 .byte   W04
 .byte   Bn2 ,v016
 .byte   W04
 .byte   Bn2 ,v044
 .byte   W06
 .byte   Bn2 ,v024
 .byte   W06
 .byte   N05 ,Cn1 ,v080
 .byte   N05 ,Gs1 ,v044
 .byte   N04 ,An2 ,v064
 .byte   W04
 .byte   An2 ,v036
 .byte   W04
 .byte   An2 ,v016
 .byte   W04
 .byte   An2 ,v044
 .byte   W06
 .byte   An2 ,v024
 .byte   W06
 .byte   N05 ,Cn1 ,v080
 .byte   N05 ,Dn1 ,v068
 .byte   N05 ,Gs1 ,v044
 .byte   W12
 .byte   Dn1 ,v056
 .byte   W06
 .byte   Dn1 ,v036
 .byte   W06
@  #01 @029   ----------------------------------------
 .byte   GOTO
  .word Label_016607FE
 .byte   FINE

@**************** Track 2 (Midi-Chn.1) ****************@

ApolloJusticeAceAttorneyTroupeGramarye_002:
@  #02 @000   ----------------------------------------
 .byte   KEYSH , ApolloJusticeAceAttorneyTroupeGramarye_key+0
 .byte   VOICE , 1
 .byte   MODT 0
 .byte   LFOS 44
 .byte   VOL , 73*ApolloJusticeAceAttorneyTroupeGramarye_mvl/mxv
 .byte   PAN , c_v+0
 .byte   N06 ,As1 ,v088
 .byte   W06
 .byte   N06
 .byte   W12
 .byte   N06
 .byte   W06
 .byte   N06
 .byte   W12
 .byte   N06
 .byte   W06
 .byte   N06
 .byte   W12
 .byte   N06
 .byte   W06
 .byte   N06
 .byte   W12
 .byte   N06
 .byte   W12
 .byte   N06
 .byte   W12
@  #02 @001   ----------------------------------------
 .byte   Fs1
 .byte   W06
 .byte   N06
 .byte   W12
 .byte   N06
 .byte   W06
 .byte   N06
 .byte   W12
 .byte   N60 ,Gs1
 .byte   W60
@  #02 @002   ----------------------------------------
 .byte   W12
 .byte   N06
 .byte   W12
 .byte   N06
 .byte   W12
 .byte   N06
 .byte   W12
 .byte   N06
 .byte   W12
 .byte   N06
 .byte   W12
 .byte   N06
 .byte   W12
 .byte   N06
 .byte   W12
@  #02 @003   ----------------------------------------
Label_01660CD8:
 .byte   N24 ,Cs2 ,v088
 .byte   W24
 .byte   Gs1
 .byte   W24
 .byte   N12 ,Cs2
 .byte   W18
 .byte   N17
 .byte   W18
 .byte   N12 ,Gs1
 .byte   W12
 .byte   PEND 
@  #02 @004   ----------------------------------------
 .byte   PATT
  .word Label_01660CD8
@  #02 @005   ----------------------------------------
Label_01660CEC:
 .byte   N24 ,Bn1 ,v088
 .byte   W24
 .byte   Fs1
 .byte   W24
 .byte   N12 ,Bn1
 .byte   W18
 .byte   N17
 .byte   W18
 .byte   N12 ,Ds2
 .byte   W12
 .byte   PEND 
@  #02 @006   ----------------------------------------
Label_01660CFB:
 .byte   N24 ,En2 ,v088
 .byte   W24
 .byte   Bn1
 .byte   W24
 .byte   N12 ,En2
 .byte   W18
 .byte   N17
 .byte   W18
 .byte   N12 ,Ds2
 .byte   W12
 .byte   PEND 
@  #02 @007   ----------------------------------------
 .byte   PATT
  .word Label_01660CD8
@  #02 @008   ----------------------------------------
Label_01660D0F:
 .byte   N24 ,An1 ,v088
 .byte   W24
 .byte   En1
 .byte   W24
 .byte   N12 ,An1
 .byte   W18
 .byte   N17
 .byte   W18
 .byte   N12 ,En1
 .byte   W12
 .byte   PEND 
@  #02 @009   ----------------------------------------
 .byte   PATT
  .word Label_01660CEC
@  #02 @010   ----------------------------------------
 .byte   PATT
  .word Label_01660CFB
@  #02 @011   ----------------------------------------
 .byte   PATT
  .word Label_01660CD8
@  #02 @012   ----------------------------------------
 .byte   PATT
  .word Label_01660CD8
@  #02 @013   ----------------------------------------
 .byte   PATT
  .word Label_01660CEC
@  #02 @014   ----------------------------------------
 .byte   PATT
  .word Label_01660CFB
@  #02 @015   ----------------------------------------
 .byte   PATT
  .word Label_01660CD8
@  #02 @016   ----------------------------------------
 .byte   PATT
  .word Label_01660D0F
@  #02 @017   ----------------------------------------
 .byte   N24 ,Bn1 ,v088
 .byte   W24
 .byte   Gs1
 .byte   W24
 .byte   N12 ,Bn1
 .byte   W18
 .byte   N17
 .byte   W18
 .byte   N12
 .byte   W12
@  #02 @018   ----------------------------------------
 .byte   N06 ,Cs2
 .byte   W12
 .byte   N06
 .byte   W12
 .byte   N06
 .byte   W12
 .byte   N06
 .byte   W12
 .byte   N42
 .byte   W48
@  #02 @019   ----------------------------------------
Label_01660D5E:
 .byte   N18 ,An1 ,v088
 .byte   W18
 .byte   En2
 .byte   W18
 .byte   N11 ,An2
 .byte   W12
 .byte   N18 ,An1
 .byte   W18
 .byte   En2
 .byte   W18
 .byte   N11 ,An2
 .byte   W12
 .byte   PEND 
@  #02 @020   ----------------------------------------
Label_01660D70:
 .byte   N18 ,Bn1 ,v088
 .byte   W18
 .byte   Fs2
 .byte   W18
 .byte   N11 ,Bn2
 .byte   W12
 .byte   N18 ,Bn1
 .byte   W18
 .byte   Fs2
 .byte   W18
 .byte   N11 ,Bn2
 .byte   W12
 .byte   PEND 
@  #02 @021   ----------------------------------------
 .byte   PATT
  .word Label_01660D5E
@  #02 @022   ----------------------------------------
 .byte   PATT
  .word Label_01660D70
@  #02 @023   ----------------------------------------
 .byte   N18 ,Cn2 ,v088
 .byte   W18
 .byte   Gn2
 .byte   W18
 .byte   N11 ,Cn3
 .byte   W12
 .byte   N18 ,Cn2
 .byte   W18
 .byte   Gn2
 .byte   W18
 .byte   N11 ,Cn3
 .byte   W12
@  #02 @024   ----------------------------------------
 .byte   N18 ,As1
 .byte   W18
 .byte   Fn2
 .byte   W18
 .byte   N11 ,As2
 .byte   W12
 .byte   N18 ,As1
 .byte   W18
 .byte   Fn2
 .byte   W18
 .byte   N11 ,As2
 .byte   W12
@  #02 @025   ----------------------------------------
 .byte   PATT
  .word Label_01660D5E
@  #02 @026   ----------------------------------------
 .byte   N18 ,Dn1 ,v088
 .byte   W18
 .byte   An1
 .byte   W18
 .byte   N11 ,Dn2
 .byte   W12
 .byte   N06 ,Dn1
 .byte   W12
 .byte   N06
 .byte   W12
 .byte   N06
 .byte   W12
 .byte   N06
 .byte   W12
@  #02 @027   ----------------------------------------
 .byte   N12
 .byte   W96
@  #02 @028   ----------------------------------------
 .byte   W96
@  #02 @029   ----------------------------------------
 .byte   GOTO
  .word Label_01660CD8
 .byte   FINE

@**************** Track 3 (Midi-Chn.2) ****************@

ApolloJusticeAceAttorneyTroupeGramarye_003:
@  #03 @000   ----------------------------------------
 .byte   KEYSH , ApolloJusticeAceAttorneyTroupeGramarye_key+0
 .byte   VOICE , 58
 .byte   MODT 0
 .byte   LFOS 44
 .byte   VOL , 31*ApolloJusticeAceAttorneyTroupeGramarye_mvl/mxv
 .byte   PAN , c_v+0
 .byte   W96
@  #03 @001   ----------------------------------------
 .byte   W96
@  #03 @002   ----------------------------------------
 .byte   W96
@  #03 @003   ----------------------------------------
Label_01660DDF:
 .byte   N90 ,Ds3 ,v072
 .byte   N90 ,En3
 .byte   N90 ,Gs3
 .byte   N90 ,Bn3
 .byte   W96
 .byte   PEND 
@  #03 @004   ----------------------------------------
Label_01660DEA:
 .byte   N90 ,Cs3 ,v072
 .byte   N90 ,En3
 .byte   N90 ,Gs3
 .byte   N90 ,An3
 .byte   W96
 .byte   PEND 
@  #03 @005   ----------------------------------------
Label_01660DF5:
 .byte   N90 ,Bn2 ,v072
 .byte   N90 ,Ds3
 .byte   N90 ,Fs3
 .byte   N90 ,An3
 .byte   W96
 .byte   PEND 
@  #03 @006   ----------------------------------------
Label_01660E00:
 .byte   N90 ,Bn2 ,v072
 .byte   N90 ,Ds3
 .byte   N90 ,Fs3
 .byte   N90 ,Gs3
 .byte   W96
 .byte   PEND 
@  #03 @007   ----------------------------------------
 .byte   PATT
  .word Label_01660DDF
@  #03 @008   ----------------------------------------
 .byte   PATT
  .word Label_01660DEA
@  #03 @009   ----------------------------------------
 .byte   PATT
  .word Label_01660DF5
@  #03 @010   ----------------------------------------
 .byte   PATT
  .word Label_01660E00
@  #03 @011   ----------------------------------------
 .byte   PATT
  .word Label_01660DDF
@  #03 @012   ----------------------------------------
 .byte   PATT
  .word Label_01660DEA
@  #03 @013   ----------------------------------------
 .byte   PATT
  .word Label_01660DF5
@  #03 @014   ----------------------------------------
 .byte   PATT
  .word Label_01660E00
@  #03 @015   ----------------------------------------
 .byte   PATT
  .word Label_01660DDF
@  #03 @016   ----------------------------------------
 .byte   PATT
  .word Label_01660DEA
@  #03 @017   ----------------------------------------
 .byte   PATT
  .word Label_01660E00
@  #03 @018   ----------------------------------------
 .byte   PATT
  .word Label_01660DDF
@  #03 @019   ----------------------------------------
Label_01660E47:
 .byte   N90 ,Cn3 ,v072
 .byte   N90 ,En3
 .byte   N90 ,Gn3
 .byte   N90 ,An3
 .byte   W96
 .byte   PEND 
@  #03 @020   ----------------------------------------
Label_01660E52:
 .byte   N90 ,Bn2 ,v072
 .byte   N90 ,Dn3
 .byte   N90 ,Fs3
 .byte   N90 ,An3
 .byte   W96
 .byte   PEND 
@  #03 @021   ----------------------------------------
 .byte   PATT
  .word Label_01660E47
@  #03 @022   ----------------------------------------
 .byte   PATT
  .word Label_01660E52
@  #03 @023   ----------------------------------------
 .byte   N90 ,Cn3 ,v072
 .byte   N90 ,Ds3
 .byte   N90 ,Gn3
 .byte   N90 ,As3
 .byte   W96
@  #03 @024   ----------------------------------------
 .byte   As2
 .byte   N90 ,Dn3
 .byte   N90 ,Fn3
 .byte   N90 ,An3
 .byte   W96
@  #03 @025   ----------------------------------------
 .byte   An2
 .byte   N90 ,Cn3
 .byte   N90 ,En3
 .byte   N90 ,Gn3
 .byte   W96
@  #03 @026   ----------------------------------------
 .byte   N30 ,An2
 .byte   N30 ,Cn3
 .byte   N30 ,Dn3
 .byte   N30 ,Gn3
 .byte   W96
@  #03 @027   ----------------------------------------
 .byte   W96
@  #03 @028   ----------------------------------------
 .byte   W96
@  #03 @029   ----------------------------------------
 .byte   GOTO
  .word Label_01660DDF
 .byte   FINE

@**************** Track 4 (Midi-Chn.3) ****************@

ApolloJusticeAceAttorneyTroupeGramarye_004:
@  #04 @000   ----------------------------------------
 .byte   KEYSH , ApolloJusticeAceAttorneyTroupeGramarye_key+0
 .byte   VOICE , 0
 .byte   MODT 0
 .byte   LFOS 44
 .byte   PAN , c_v-1
 .byte   VOL , 34*ApolloJusticeAceAttorneyTroupeGramarye_mvl/mxv
 .byte   W96
@  #04 @001   ----------------------------------------
 .byte   W96
@  #04 @002   ----------------------------------------
 .byte   W96
@  #04 @003   ----------------------------------------
Label_01660EA3:
 .byte   N05 ,En4 ,v088
 .byte   W06
 .byte   Ds4
 .byte   W06
 .byte   En4
 .byte   W06
 .byte   Cs4
 .byte   W06
 .byte   En4
 .byte   W06
 .byte   Ds4
 .byte   W06
 .byte   En4
 .byte   W06
 .byte   Cs4
 .byte   W06
 .byte   En4
 .byte   W06
 .byte   Ds4
 .byte   W06
 .byte   En4
 .byte   W06
 .byte   Cs4
 .byte   W06
 .byte   En4
 .byte   W06
 .byte   Ds4
 .byte   W06
 .byte   En4
 .byte   W06
 .byte   Cs4
 .byte   W06
 .byte   PEND 
@  #04 @004   ----------------------------------------
 .byte   PATT
  .word Label_01660EA3
@  #04 @005   ----------------------------------------
Label_01660ECB:
 .byte   N15 ,Fs4 ,v088
 .byte   W18
 .byte   N15
 .byte   W18
 .byte   N10
 .byte   W12
 .byte   N15 ,Ds4
 .byte   N15 ,Fs4
 .byte   W18
 .byte   Ds4
 .byte   N15 ,Fs4
 .byte   W18
 .byte   N10 ,Ds4
 .byte   N10 ,Fs4
 .byte   W12
 .byte   PEND 
@  #04 @006   ----------------------------------------
Label_01660EE2:
 .byte   N32 ,Fs4 ,v088
 .byte   N32 ,An4
 .byte   W36
 .byte   N05 ,En4
 .byte   N05 ,Gs4
 .byte   W06
 .byte   Ds4
 .byte   N05 ,Fs4
 .byte   W06
 .byte   N36 ,En4
 .byte   N36 ,Gs4
 .byte   W48
 .byte   PEND 
@  #04 @007   ----------------------------------------
 .byte   PATT
  .word Label_01660EA3
@  #04 @008   ----------------------------------------
 .byte   PATT
  .word Label_01660EA3
@  #04 @009   ----------------------------------------
 .byte   N15 ,Bn4 ,v088
 .byte   N15 ,Ds5
 .byte   W18
 .byte   An4
 .byte   N15 ,Cs5
 .byte   W18
 .byte   N21 ,Gs4
 .byte   N21 ,Bn4
 .byte   W24
 .byte   N10 ,Fs4
 .byte   N10 ,An4
 .byte   W12
 .byte   Gs4
 .byte   N10 ,Bn4
 .byte   W12
 .byte   Fs4
 .byte   N10 ,An4
 .byte   W12
@  #04 @010   ----------------------------------------
 .byte   N44 ,Gs4
 .byte   W48
 .byte   N05 ,Ds5 ,v108
 .byte   W06
 .byte   Cs5
 .byte   W06
 .byte   Bn4
 .byte   W06
 .byte   An4
 .byte   W06
 .byte   Gs4
 .byte   W06
 .byte   Fs4
 .byte   W06
 .byte   En4
 .byte   W06
 .byte   Ds4
 .byte   W06
@  #04 @011   ----------------------------------------
 .byte   PATT
  .word Label_01660EA3
@  #04 @012   ----------------------------------------
 .byte   PATT
  .word Label_01660EA3
@  #04 @013   ----------------------------------------
 .byte   PATT
  .word Label_01660ECB
@  #04 @014   ----------------------------------------
 .byte   PATT
  .word Label_01660EE2
@  #04 @015   ----------------------------------------
 .byte   PATT
  .word Label_01660EA3
@  #04 @016   ----------------------------------------
 .byte   PATT
  .word Label_01660EA3
@  #04 @017   ----------------------------------------
 .byte   N15 ,Bn4 ,v088
 .byte   N15 ,Ds5
 .byte   W18
 .byte   An4
 .byte   N15 ,Cs5
 .byte   W18
 .byte   N28 ,Gs4
 .byte   N28 ,Bn4
 .byte   W36
 .byte   N20 ,Gs4
 .byte   N20 ,Bn4
 .byte   W24
@  #04 @018   ----------------------------------------
 .byte   N84 ,Gs4
 .byte   N84 ,Cs5
 .byte   W96
@  #04 @019   ----------------------------------------
 .byte   W96
@  #04 @020   ----------------------------------------
 .byte   W96
@  #04 @021   ----------------------------------------
 .byte   W96
@  #04 @022   ----------------------------------------
 .byte   W96
@  #04 @023   ----------------------------------------
 .byte   W96
@  #04 @024   ----------------------------------------
 .byte   W96
@  #04 @025   ----------------------------------------
 .byte   W96
@  #04 @026   ----------------------------------------
 .byte   W96
@  #04 @027   ----------------------------------------
 .byte   W96
@  #04 @028   ----------------------------------------
 .byte   W96
@  #04 @029   ----------------------------------------
 .byte   GOTO
  .word Label_01660EA3
 .byte   FINE

@**************** Track 5 (Midi-Chn.4) ****************@

ApolloJusticeAceAttorneyTroupeGramarye_005:
@  #05 @000   ----------------------------------------
 .byte   KEYSH , ApolloJusticeAceAttorneyTroupeGramarye_key+0
 .byte   VOICE , 47
 .byte   MODT 0
 .byte   LFOS 44
 .byte   PAN , c_v-1
 .byte   VOL , 38*ApolloJusticeAceAttorneyTroupeGramarye_mvl/mxv
 .byte   W96
@  #05 @001   ----------------------------------------
 .byte   W96
@  #05 @002   ----------------------------------------
 .byte   W96
@  #05 @003   ----------------------------------------
Label_01660F8B:
 .byte   W96
@  #05 @004   ----------------------------------------
 .byte   W96
@  #05 @005   ----------------------------------------
 .byte   W96
@  #05 @006   ----------------------------------------
 .byte   W96
@  #05 @007   ----------------------------------------
 .byte   W96
@  #05 @008   ----------------------------------------
 .byte   W96
@  #05 @009   ----------------------------------------
 .byte   W96
@  #05 @010   ----------------------------------------
 .byte   W96
@  #05 @011   ----------------------------------------
 .byte   W96
@  #05 @012   ----------------------------------------
 .byte   W96
@  #05 @013   ----------------------------------------
 .byte   W96
@  #05 @014   ----------------------------------------
 .byte   W96
@  #05 @015   ----------------------------------------
 .byte   W96
@  #05 @016   ----------------------------------------
 .byte   W96
@  #05 @017   ----------------------------------------
 .byte   W96
@  #05 @018   ----------------------------------------
 .byte   W96
@  #05 @019   ----------------------------------------
Label_01660F9B:
 .byte   N18 ,An3 ,v072
 .byte   N18 ,An4
 .byte   W24
 .byte   An3
 .byte   N18 ,An4
 .byte   W24
 .byte   An3
 .byte   N18 ,An4
 .byte   W24
 .byte   An3
 .byte   N18 ,An4
 .byte   W24
 .byte   PEND 
@  #05 @020   ----------------------------------------
 .byte   PATT
  .word Label_01660F9B
@  #05 @021   ----------------------------------------
 .byte   PATT
  .word Label_01660F9B
@  #05 @022   ----------------------------------------
 .byte   PATT
  .word Label_01660F9B
@  #05 @023   ----------------------------------------
 .byte   N20 ,Gn3 ,v088
 .byte   N20 ,Gn4
 .byte   W24
 .byte   Fn3
 .byte   N20 ,Fn4
 .byte   W24
 .byte   Gn3
 .byte   N20 ,Gn4
 .byte   W24
 .byte   An3
 .byte   N20 ,An4
 .byte   W24
@  #05 @024   ----------------------------------------
 .byte   As3
 .byte   N20 ,As4
 .byte   W24
 .byte   An3
 .byte   N20 ,An4
 .byte   W24
 .byte   As3
 .byte   N20 ,As4
 .byte   W24
 .byte   Cn4
 .byte   N20 ,Cn5
 .byte   W24
@  #05 @025   ----------------------------------------
 .byte   N24 ,Cn4
 .byte   N24 ,Gn4
 .byte   N24 ,Cn5
 .byte   W36
 .byte   N06 ,Cn4
 .byte   N06 ,Gn4
 .byte   N06 ,Cn5
 .byte   W12
 .byte   N24 ,Cn4
 .byte   N24 ,Gn4
 .byte   N24 ,Cn5
 .byte   W36
 .byte   N06 ,Cn4
 .byte   N06 ,Gn4
 .byte   N06 ,Cn5
 .byte   W12
@  #05 @026   ----------------------------------------
 .byte   N30 ,Dn4
 .byte   N30 ,Gn4
 .byte   N30 ,Dn5
 .byte   W96
@  #05 @027   ----------------------------------------
 .byte   W96
@  #05 @028   ----------------------------------------
 .byte   W96
@  #05 @029   ----------------------------------------
 .byte   GOTO
  .word Label_01660F8B
 .byte   FINE

@**************** Track 6 (Midi-Chn.5) ****************@

ApolloJusticeAceAttorneyTroupeGramarye_006:
@  #06 @000   ----------------------------------------
 .byte   KEYSH , ApolloJusticeAceAttorneyTroupeGramarye_key+0
 .byte   VOICE , 61
 .byte   MODT 0
 .byte   LFOS 44
 .byte   PAN , c_v+0
 .byte   VOL , 49*ApolloJusticeAceAttorneyTroupeGramarye_mvl/mxv
 .byte   N05 ,As3 ,v096
 .byte   N05 ,Fn4
 .byte   N05 ,As4
 .byte   W06
 .byte   As3
 .byte   N05 ,Fn4
 .byte   N05 ,As4
 .byte   W12
 .byte   As3
 .byte   N05 ,Fn4
 .byte   N05 ,As4
 .byte   W06
 .byte   As3
 .byte   N05 ,Fn4
 .byte   N05 ,As4
 .byte   W12
 .byte   As3
 .byte   N05 ,Fn4
 .byte   N05 ,As4
 .byte   W06
 .byte   As3
 .byte   N05 ,Fn4
 .byte   N05 ,As4
 .byte   W12
 .byte   As3
 .byte   N05 ,Fn4
 .byte   N05 ,As4
 .byte   W06
 .byte   As3
 .byte   N05 ,Fn4
 .byte   N05 ,As4
 .byte   W12
 .byte   As3
 .byte   N05 ,Fn4
 .byte   N05 ,As4
 .byte   W12
 .byte   As3
 .byte   N05 ,Fn4
 .byte   N05 ,As4
 .byte   W12
@  #06 @001   ----------------------------------------
 .byte   As3
 .byte   N05 ,Cs4
 .byte   N05 ,Ds4
 .byte   N05 ,Fs4
 .byte   W06
 .byte   As3
 .byte   N05 ,Cs4
 .byte   N05 ,Ds4
 .byte   N05 ,Fs4
 .byte   W12
 .byte   As3
 .byte   N05 ,Cs4
 .byte   N05 ,Ds4
 .byte   N05 ,Fs4
 .byte   W06
 .byte   As3
 .byte   N05 ,Cs4
 .byte   N05 ,Ds4
 .byte   N05 ,Fs4
 .byte   W12
 .byte   N60 ,As3 ,v127
 .byte   N60 ,Cs4
 .byte   N60 ,Ds4
 .byte   N60 ,Gs4
 .byte   W06
 .byte   VOL , 41*ApolloJusticeAceAttorneyTroupeGramarye_mvl/mxv
 .byte   W01
 .byte   VOL , 35*ApolloJusticeAceAttorneyTroupeGramarye_mvl/mxv
 .byte   W01
 .byte   VOL , 30*ApolloJusticeAceAttorneyTroupeGramarye_mvl/mxv
 .byte   W01
 .byte   VOL , 24*ApolloJusticeAceAttorneyTroupeGramarye_mvl/mxv
 .byte   W01
 .byte   VOL , 20*ApolloJusticeAceAttorneyTroupeGramarye_mvl/mxv
 .byte   W01
 .byte   VOL , 15*ApolloJusticeAceAttorneyTroupeGramarye_mvl/mxv
 .byte   W01
 .byte   VOL , 14*ApolloJusticeAceAttorneyTroupeGramarye_mvl/mxv
 .byte   W01
 .byte   VOL , 15*ApolloJusticeAceAttorneyTroupeGramarye_mvl/mxv
 .byte   W01
 .byte   VOL , 15*ApolloJusticeAceAttorneyTroupeGramarye_mvl/mxv
 .byte   W01
 .byte   VOL , 17*ApolloJusticeAceAttorneyTroupeGramarye_mvl/mxv
 .byte   W01
 .byte   VOL , 17*ApolloJusticeAceAttorneyTroupeGramarye_mvl/mxv
 .byte   W01
 .byte   VOL , 18*ApolloJusticeAceAttorneyTroupeGramarye_mvl/mxv
 .byte   W01
 .byte   VOL , 18*ApolloJusticeAceAttorneyTroupeGramarye_mvl/mxv
 .byte   W01
 .byte   VOL , 19*ApolloJusticeAceAttorneyTroupeGramarye_mvl/mxv
 .byte   W01
 .byte   VOL , 20*ApolloJusticeAceAttorneyTroupeGramarye_mvl/mxv
 .byte   W01
 .byte   VOL , 21*ApolloJusticeAceAttorneyTroupeGramarye_mvl/mxv
 .byte   W01
 .byte   VOL , 22*ApolloJusticeAceAttorneyTroupeGramarye_mvl/mxv
 .byte   W01
 .byte   VOL , 23*ApolloJusticeAceAttorneyTroupeGramarye_mvl/mxv
 .byte   W01
 .byte   VOL , 23*ApolloJusticeAceAttorneyTroupeGramarye_mvl/mxv
 .byte   W01
 .byte   VOL , 24*ApolloJusticeAceAttorneyTroupeGramarye_mvl/mxv
 .byte   W01
 .byte   VOL , 26*ApolloJusticeAceAttorneyTroupeGramarye_mvl/mxv
 .byte   W01
 .byte   VOL , 27*ApolloJusticeAceAttorneyTroupeGramarye_mvl/mxv
 .byte   W01
 .byte   VOL , 28*ApolloJusticeAceAttorneyTroupeGramarye_mvl/mxv
 .byte   W01
 .byte   VOL , 28*ApolloJusticeAceAttorneyTroupeGramarye_mvl/mxv
 .byte   W01
 .byte   VOL , 30*ApolloJusticeAceAttorneyTroupeGramarye_mvl/mxv
 .byte   W01
 .byte   VOL , 30*ApolloJusticeAceAttorneyTroupeGramarye_mvl/mxv
 .byte   W01
 .byte   VOL , 31*ApolloJusticeAceAttorneyTroupeGramarye_mvl/mxv
 .byte   W01
 .byte   VOL , 32*ApolloJusticeAceAttorneyTroupeGramarye_mvl/mxv
 .byte   W01
 .byte   VOL , 34*ApolloJusticeAceAttorneyTroupeGramarye_mvl/mxv
 .byte   W01
 .byte   VOL , 34*ApolloJusticeAceAttorneyTroupeGramarye_mvl/mxv
 .byte   W01
 .byte   VOL , 36*ApolloJusticeAceAttorneyTroupeGramarye_mvl/mxv
 .byte   W01
 .byte   VOL , 37*ApolloJusticeAceAttorneyTroupeGramarye_mvl/mxv
 .byte   W01
 .byte   VOL , 37*ApolloJusticeAceAttorneyTroupeGramarye_mvl/mxv
 .byte   W01
 .byte   VOL , 39*ApolloJusticeAceAttorneyTroupeGramarye_mvl/mxv
 .byte   W01
 .byte   VOL , 40*ApolloJusticeAceAttorneyTroupeGramarye_mvl/mxv
 .byte   W01
 .byte   VOL , 41*ApolloJusticeAceAttorneyTroupeGramarye_mvl/mxv
 .byte   W01
 .byte   VOL , 42*ApolloJusticeAceAttorneyTroupeGramarye_mvl/mxv
 .byte   W01
 .byte   VOL , 44*ApolloJusticeAceAttorneyTroupeGramarye_mvl/mxv
 .byte   W01
 .byte   VOL , 44*ApolloJusticeAceAttorneyTroupeGramarye_mvl/mxv
 .byte   W01
 .byte   VOL , 45*ApolloJusticeAceAttorneyTroupeGramarye_mvl/mxv
 .byte   W01
 .byte   VOL , 46*ApolloJusticeAceAttorneyTroupeGramarye_mvl/mxv
 .byte   W01
 .byte   VOL , 48*ApolloJusticeAceAttorneyTroupeGramarye_mvl/mxv
 .byte   W01
 .byte   VOL , 49*ApolloJusticeAceAttorneyTroupeGramarye_mvl/mxv
 .byte   W12
@  #06 @002   ----------------------------------------
 .byte   W12
 .byte   N05 ,As3 ,v048
 .byte   N05 ,Cs4
 .byte   N05 ,Ds4
 .byte   N05 ,Gs4
 .byte   W12
 .byte   As3 ,v060
 .byte   N05 ,Cs4
 .byte   N05 ,Ds4
 .byte   N05 ,Gs4
 .byte   W12
 .byte   As3 ,v072
 .byte   N05 ,Cs4
 .byte   N05 ,Ds4
 .byte   N05 ,Gs4
 .byte   W12
 .byte   As3 ,v084
 .byte   N05 ,Cs4
 .byte   N05 ,Ds4
 .byte   N05 ,Gs4
 .byte   W12
 .byte   As3 ,v096
 .byte   N05 ,Cs4
 .byte   N05 ,Ds4
 .byte   N05 ,Gs4
 .byte   W12
 .byte   As3 ,v112
 .byte   N05 ,Cs4
 .byte   N05 ,Ds4
 .byte   N05 ,Gs4
 .byte   W12
 .byte   As3 ,v127
 .byte   N05 ,Cs4
 .byte   N05 ,Ds4
 .byte   N05 ,Gs4
 .byte   W12
@  #06 @003   ----------------------------------------
Label_01661118:
 .byte   VOL , 49*ApolloJusticeAceAttorneyTroupeGramarye_mvl/mxv
 .byte   W96
@  #06 @004   ----------------------------------------
 .byte   W96
@  #06 @005   ----------------------------------------
 .byte   W96
@  #06 @006   ----------------------------------------
 .byte   W96
@  #06 @007   ----------------------------------------
 .byte   W96
@  #06 @008   ----------------------------------------
 .byte   W96
@  #06 @009   ----------------------------------------
 .byte   W96
@  #06 @010   ----------------------------------------
 .byte   W96
@  #06 @011   ----------------------------------------
 .byte   W96
@  #06 @012   ----------------------------------------
 .byte   W96
@  #06 @013   ----------------------------------------
 .byte   W96
@  #06 @014   ----------------------------------------
 .byte   W96
@  #06 @015   ----------------------------------------
 .byte   W96
@  #06 @016   ----------------------------------------
 .byte   W96
@  #06 @017   ----------------------------------------
 .byte   W96
@  #06 @018   ----------------------------------------
 .byte   W96
@  #06 @019   ----------------------------------------
 .byte   W96
@  #06 @020   ----------------------------------------
 .byte   W96
@  #06 @021   ----------------------------------------
 .byte   W96
@  #06 @022   ----------------------------------------
 .byte   W96
@  #06 @023   ----------------------------------------
 .byte   W96
@  #06 @024   ----------------------------------------
 .byte   W96
@  #06 @025   ----------------------------------------
 .byte   W96
@  #06 @026   ----------------------------------------
 .byte   VOL , 53*ApolloJusticeAceAttorneyTroupeGramarye_mvl/mxv
 .byte   W36
 .byte   N05 ,An3 ,v100
 .byte   N05 ,Cn4
 .byte   N05 ,Dn4
 .byte   N05 ,Gn4
 .byte   W06
 .byte   An3 ,v104
 .byte   N05 ,Cn4
 .byte   N05 ,Dn4
 .byte   N05 ,Gn4
 .byte   W06
 .byte   An3 ,v108
 .byte   N05 ,Cn4
 .byte   N05 ,Dn4
 .byte   N05 ,Gn4
 .byte   W12
 .byte   An3 ,v112
 .byte   N05 ,Cn4
 .byte   N05 ,Dn4
 .byte   N05 ,Gn4
 .byte   W12
 .byte   An3 ,v116
 .byte   N05 ,Cn4
 .byte   N05 ,Dn4
 .byte   N05 ,Gn4
 .byte   W12
 .byte   An3 ,v120
 .byte   N05 ,Cn4
 .byte   N05 ,Dn4
 .byte   N05 ,Gn4
 .byte   W12
@  #06 @027   ----------------------------------------
 .byte   N12 ,An3 ,v127
 .byte   N12 ,Cn4
 .byte   N12 ,Dn4
 .byte   N12 ,Gn4
 .byte   W96
@  #06 @028   ----------------------------------------
 .byte   W96
@  #06 @029   ----------------------------------------
 .byte   GOTO
  .word Label_01661118
 .byte   FINE

@**************** Track 7 (Midi-Chn.6) ****************@

ApolloJusticeAceAttorneyTroupeGramarye_007:
@  #07 @000   ----------------------------------------
 .byte   KEYSH , ApolloJusticeAceAttorneyTroupeGramarye_key+0
 .byte   VOICE , 24
 .byte   MODT 0
 .byte   LFOS 44
 .byte   PAN , c_v-5
 .byte   VOL , 25*ApolloJusticeAceAttorneyTroupeGramarye_mvl/mxv
 .byte   W96
@  #07 @001   ----------------------------------------
 .byte   W96
@  #07 @002   ----------------------------------------
 .byte   W96
@  #07 @003   ----------------------------------------
Label_0166118B:
 .byte   W84
 .byte   N06 ,Cs4 ,v104
 .byte   N06 ,Cs5
 .byte   W12
 .byte   PEND 
@  #07 @004   ----------------------------------------
 .byte   PATT
  .word Label_0166118B
@  #07 @005   ----------------------------------------
 .byte   W96
@  #07 @006   ----------------------------------------
Label_01661199:
 .byte   W72
 .byte   N06 ,En4 ,v104
 .byte   N06 ,En5
 .byte   W12
 .byte   En4
 .byte   N06 ,En5
 .byte   W12
 .byte   PEND 
@  #07 @007   ----------------------------------------
 .byte   PATT
  .word Label_0166118B
@  #07 @008   ----------------------------------------
 .byte   PATT
  .word Label_0166118B
@  #07 @009   ----------------------------------------
 .byte   W96
@  #07 @010   ----------------------------------------
 .byte   W12
 .byte   N05 ,En4 ,v104
 .byte   N05 ,En5
 .byte   W12
 .byte   En4
 .byte   N05 ,En5
 .byte   W12
 .byte   En4
 .byte   N05 ,En5
 .byte   W12
 .byte   N15 ,En4
 .byte   N15 ,En5
 .byte   W18
 .byte   En4
 .byte   N15 ,En5
 .byte   W30
@  #07 @011   ----------------------------------------
 .byte   PATT
  .word Label_0166118B
@  #07 @012   ----------------------------------------
 .byte   PATT
  .word Label_0166118B
@  #07 @013   ----------------------------------------
 .byte   W96
@  #07 @014   ----------------------------------------
 .byte   PATT
  .word Label_01661199
@  #07 @015   ----------------------------------------
 .byte   PATT
  .word Label_0166118B
@  #07 @016   ----------------------------------------
 .byte   PATT
  .word Label_0166118B
@  #07 @017   ----------------------------------------
 .byte   W96
@  #07 @018   ----------------------------------------
 .byte   N05 ,Cs4 ,v104
 .byte   N05 ,Cs5
 .byte   W12
 .byte   Cs4
 .byte   N05 ,Cs5
 .byte   W12
 .byte   Cs4
 .byte   N05 ,Cs5
 .byte   W12
 .byte   Cs4
 .byte   N05 ,Cs5
 .byte   W12
 .byte   N15 ,Cs4
 .byte   N15 ,Cs5
 .byte   W18
 .byte   Cs4
 .byte   N15 ,Cs5
 .byte   W18
 .byte   N06 ,Cs4
 .byte   N06 ,Cs5
 .byte   W12
@  #07 @019   ----------------------------------------
 .byte   W96
@  #07 @020   ----------------------------------------
 .byte   W96
@  #07 @021   ----------------------------------------
 .byte   W96
@  #07 @022   ----------------------------------------
 .byte   W96
@  #07 @023   ----------------------------------------
 .byte   W96
@  #07 @024   ----------------------------------------
 .byte   W96
@  #07 @025   ----------------------------------------
 .byte   W96
@  #07 @026   ----------------------------------------
 .byte   W96
@  #07 @027   ----------------------------------------
 .byte   W96
@  #07 @028   ----------------------------------------
 .byte   W96
@  #07 @029   ----------------------------------------
 .byte   GOTO
  .word Label_0166118B
 .byte   FINE

@**************** Track 8 (Midi-Chn.7) ****************@

ApolloJusticeAceAttorneyTroupeGramarye_008:
@  #08 @000   ----------------------------------------
 .byte   KEYSH , ApolloJusticeAceAttorneyTroupeGramarye_key+0
 .byte   VOICE , 100
 .byte   MODT 0
 .byte   LFOS 44
 .byte   VOL , 59*ApolloJusticeAceAttorneyTroupeGramarye_mvl/mxv
 .byte   PAN , c_v+2
 .byte   W96
@  #08 @001   ----------------------------------------
 .byte   W96
@  #08 @002   ----------------------------------------
 .byte   W96
@  #08 @003   ----------------------------------------
Label_01661503:
 .byte   W12
 .byte   N12 ,Gs3 ,v100
 .byte   W12
 .byte   En3
 .byte   W12
 .byte   Cs3
 .byte   W12
 .byte   N18 ,Gs3
 .byte   W18
 .byte   N10 ,En3
 .byte   W30
 .byte   PEND 
@  #08 @004   ----------------------------------------
 .byte   PATT
  .word Label_01661503
@  #08 @005   ----------------------------------------
Label_01661518:
 .byte   N18 ,Ds3 ,v100
 .byte   W18
 .byte   En3
 .byte   W18
 .byte   N24 ,Fs3
 .byte   W24
 .byte   N12 ,En3
 .byte   W12
 .byte   Fs3
 .byte   W12
 .byte   Gs3
 .byte   W12
 .byte   PEND 
@  #08 @006   ----------------------------------------
Label_01661529:
 .byte   N36 ,An3 ,v100
 .byte   W36
 .byte   N06 ,Gs3
 .byte   W06
 .byte   Fs3
 .byte   W06
 .byte   N36 ,Gs3
 .byte   W48
 .byte   PEND 
@  #08 @007   ----------------------------------------
 .byte   PATT
  .word Label_01661503
@  #08 @008   ----------------------------------------
Label_0166153B:
 .byte   W12
 .byte   N12 ,An3 ,v100
 .byte   W12
 .byte   En3
 .byte   W12
 .byte   Cs3
 .byte   W12
 .byte   N18 ,An3
 .byte   W18
 .byte   N10 ,En3
 .byte   W30
 .byte   PEND 
@  #08 @009   ----------------------------------------
 .byte   N18 ,Ds4
 .byte   W18
 .byte   Cs4
 .byte   W18
 .byte   N24 ,Bn3
 .byte   W24
 .byte   N12 ,An3
 .byte   W12
 .byte   Bn3
 .byte   W12
 .byte   An3
 .byte   W12
@  #08 @010   ----------------------------------------
 .byte   N78 ,Gs3
 .byte   W96
@  #08 @011   ----------------------------------------
 .byte   PATT
  .word Label_01661503
@  #08 @012   ----------------------------------------
 .byte   PATT
  .word Label_01661503
@  #08 @013   ----------------------------------------
 .byte   PATT
  .word Label_01661518
@  #08 @014   ----------------------------------------
 .byte   PATT
  .word Label_01661529
@  #08 @015   ----------------------------------------
 .byte   PATT
  .word Label_01661503
@  #08 @016   ----------------------------------------
 .byte   PATT
  .word Label_0166153B
@  #08 @017   ----------------------------------------
 .byte   N18 ,Ds4 ,v100
 .byte   W18
 .byte   Cs4
 .byte   W18
 .byte   N24 ,Bn3
 .byte   W24
 .byte   N12 ,An3
 .byte   W12
 .byte   Bn3
 .byte   W12
 .byte   Cn4
 .byte   W12
@  #08 @018   ----------------------------------------
 .byte   N84 ,Cs4
 .byte   W96
@  #08 @019   ----------------------------------------
 .byte   W96
@  #08 @020   ----------------------------------------
 .byte   W96
@  #08 @021   ----------------------------------------
 .byte   W96
@  #08 @022   ----------------------------------------
 .byte   W96
@  #08 @023   ----------------------------------------
 .byte   W96
@  #08 @024   ----------------------------------------
 .byte   W96
@  #08 @025   ----------------------------------------
 .byte   W96
@  #08 @026   ----------------------------------------
 .byte   W96
@  #08 @027   ----------------------------------------
 .byte   W96
@  #08 @028   ----------------------------------------
 .byte   W96
@  #08 @029   ----------------------------------------
 .byte   GOTO
  .word Label_01661503
 .byte   FINE

@**************** Track 9 (Midi-Chn.8) ****************@

ApolloJusticeAceAttorneyTroupeGramarye_009:
@  #09 @000   ----------------------------------------
 .byte   KEYSH , ApolloJusticeAceAttorneyTroupeGramarye_key+0
 .byte   VOICE , 10
 .byte   MODT 0
 .byte   LFOS 44
 .byte   VOL , 45*ApolloJusticeAceAttorneyTroupeGramarye_mvl/mxv
 .byte   PAN , c_v-4
 .byte   W96
@  #09 @001   ----------------------------------------
 .byte   W96
@  #09 @002   ----------------------------------------
 .byte   W96
@  #09 @003   ----------------------------------------
Label_016612CF:
 .byte   W96
@  #09 @004   ----------------------------------------
 .byte   W96
@  #09 @005   ----------------------------------------
 .byte   W96
@  #09 @006   ----------------------------------------
 .byte   W96
@  #09 @007   ----------------------------------------
 .byte   W96
@  #09 @008   ----------------------------------------
 .byte   W96
@  #09 @009   ----------------------------------------
 .byte   W96
@  #09 @010   ----------------------------------------
 .byte   W96
@  #09 @011   ----------------------------------------
 .byte   W96
@  #09 @012   ----------------------------------------
 .byte   W96
@  #09 @013   ----------------------------------------
 .byte   W96
@  #09 @014   ----------------------------------------
 .byte   W96
@  #09 @015   ----------------------------------------
 .byte   W96
@  #09 @016   ----------------------------------------
 .byte   W96
@  #09 @017   ----------------------------------------
 .byte   W96
@  #09 @018   ----------------------------------------
 .byte   W96
@  #09 @019   ----------------------------------------
 .byte   N12 ,An3 ,v092
 .byte   W12
 .byte   N07 ,Bn3
 .byte   W12
 .byte   N12 ,An3
 .byte   W12
 .byte   N07 ,Bn3
 .byte   W12
 .byte   N12 ,An3
 .byte   W12
 .byte   N06 ,Bn3
 .byte   W06
 .byte   N18 ,An3
 .byte   W18
 .byte   N12 ,Gn3
 .byte   W12
@  #09 @020   ----------------------------------------
 .byte   Fs3
 .byte   W12
 .byte   N07 ,Gn3
 .byte   W12
 .byte   N12 ,Fs3
 .byte   W12
 .byte   N07 ,Gn3
 .byte   W12
 .byte   N12 ,Fs3
 .byte   W12
 .byte   N06 ,Gn3
 .byte   W06
 .byte   N18 ,An3
 .byte   W18
 .byte   N12 ,Bn3
 .byte   W12
@  #09 @021   ----------------------------------------
 .byte   N12
 .byte   W12
 .byte   N07 ,Cn4
 .byte   W12
 .byte   N12 ,Bn3
 .byte   W12
 .byte   N07 ,Cn4
 .byte   W12
 .byte   N12 ,Bn3
 .byte   W12
 .byte   N06 ,Cn4
 .byte   W06
 .byte   N18 ,Dn4
 .byte   W18
 .byte   N12 ,Cn4
 .byte   W12
@  #09 @022   ----------------------------------------
 .byte   N30 ,Bn3
 .byte   W30
 .byte   N06 ,An3
 .byte   W06
 .byte   Gn3
 .byte   W06
 .byte   An3
 .byte   W06
 .byte   N42 ,Bn3
 .byte   W48
@  #09 @023   ----------------------------------------
 .byte   N36 ,Ds4
 .byte   W36
 .byte   N06 ,Fn4
 .byte   W06
 .byte   Ds4
 .byte   W06
 .byte   N12 ,Dn4
 .byte   W12
 .byte   N07 ,Cn4
 .byte   W12
 .byte   N12 ,As3
 .byte   W12
 .byte   An3
 .byte   W12
@  #09 @024   ----------------------------------------
 .byte   N36 ,Dn4
 .byte   W36
 .byte   N06 ,Ds4
 .byte   W06
 .byte   Dn4
 .byte   W06
 .byte   N12 ,Cn4
 .byte   W12
 .byte   N07 ,As3
 .byte   W12
 .byte   N12 ,An3
 .byte   W12
 .byte   Gn3
 .byte   W12
@  #09 @025   ----------------------------------------
 .byte   N30 ,Cn4
 .byte   W36
 .byte   N06
 .byte   W12
 .byte   N30
 .byte   W36
 .byte   N06
 .byte   W12
@  #09 @026   ----------------------------------------
 .byte   N30 ,Dn4
 .byte   W36
 .byte   N05
 .byte   W06
 .byte   N05
 .byte   W06
 .byte   N06
 .byte   W12
 .byte   N06
 .byte   W12
 .byte   N06
 .byte   W12
 .byte   N06
 .byte   W12
@  #09 @027   ----------------------------------------
 .byte   N12
 .byte   W96
@  #09 @028   ----------------------------------------
 .byte   W96
@  #09 @029   ----------------------------------------
 .byte   GOTO
  .word Label_016612CF
 .byte   FINE

@**************** Track 10 (Midi-Chn.9) ****************@

ApolloJusticeAceAttorneyTroupeGramarye_010:
@  #10 @000   ----------------------------------------
 .byte   KEYSH , ApolloJusticeAceAttorneyTroupeGramarye_key+0
 .byte   VOICE , 61
 .byte   MODT 0
 .byte   LFOS 44
 .byte   PAN , c_v+0
 .byte   VOL , 19*ApolloJusticeAceAttorneyTroupeGramarye_mvl/mxv
 .byte   BEND , c_v+3
 .byte   W05
 .byte   N05 ,As3 ,v096
 .byte   N05 ,Fn4
 .byte   N05 ,As4
 .byte   W06
 .byte   As3
 .byte   N05 ,Fn4
 .byte   N05 ,As4
 .byte   W12
 .byte   As3
 .byte   N05 ,Fn4
 .byte   N05 ,As4
 .byte   W06
 .byte   As3
 .byte   N05 ,Fn4
 .byte   N05 ,As4
 .byte   W12
 .byte   As3
 .byte   N05 ,Fn4
 .byte   N05 ,As4
 .byte   W06
 .byte   As3
 .byte   N05 ,Fn4
 .byte   N05 ,As4
 .byte   W12
 .byte   As3
 .byte   N05 ,Fn4
 .byte   N05 ,As4
 .byte   W06
 .byte   As3
 .byte   N05 ,Fn4
 .byte   N05 ,As4
 .byte   W12
 .byte   As3
 .byte   N05 ,Fn4
 .byte   N05 ,As4
 .byte   W12
 .byte   As3
 .byte   N05 ,Fn4
 .byte   N05 ,As4
 .byte   W07
@  #10 @001   ----------------------------------------
 .byte   W05
 .byte   As3
 .byte   N05 ,Cs4
 .byte   N05 ,Ds4
 .byte   N05 ,Fs4
 .byte   W06
 .byte   As3
 .byte   N05 ,Cs4
 .byte   N05 ,Ds4
 .byte   N05 ,Fs4
 .byte   W12
 .byte   As3
 .byte   N05 ,Cs4
 .byte   N05 ,Ds4
 .byte   N05 ,Fs4
 .byte   W06
 .byte   As3
 .byte   N05 ,Cs4
 .byte   N05 ,Ds4
 .byte   N05 ,Fs4
 .byte   W12
 .byte   N60 ,As3 ,v127
 .byte   N60 ,Cs4
 .byte   N60 ,Ds4
 .byte   N60 ,Gs4
 .byte   W06
 .byte   VOL , 16*ApolloJusticeAceAttorneyTroupeGramarye_mvl/mxv
 .byte   W01
 .byte   VOL , 14*ApolloJusticeAceAttorneyTroupeGramarye_mvl/mxv
 .byte   W01
 .byte   VOL , 11*ApolloJusticeAceAttorneyTroupeGramarye_mvl/mxv
 .byte   W01
 .byte   VOL , 10*ApolloJusticeAceAttorneyTroupeGramarye_mvl/mxv
 .byte   W01
 .byte   VOL , 8*ApolloJusticeAceAttorneyTroupeGramarye_mvl/mxv
 .byte   W01
 .byte   VOL , 6*ApolloJusticeAceAttorneyTroupeGramarye_mvl/mxv
 .byte   W01
 .byte   VOL , 5*ApolloJusticeAceAttorneyTroupeGramarye_mvl/mxv
 .byte   W01
 .byte   VOL , 6*ApolloJusticeAceAttorneyTroupeGramarye_mvl/mxv
 .byte   W01
 .byte   VOL , 6*ApolloJusticeAceAttorneyTroupeGramarye_mvl/mxv
 .byte   W01
 .byte   VOL , 6*ApolloJusticeAceAttorneyTroupeGramarye_mvl/mxv
 .byte   W01
 .byte   VOL , 6*ApolloJusticeAceAttorneyTroupeGramarye_mvl/mxv
 .byte   W01
 .byte   VOL , 6*ApolloJusticeAceAttorneyTroupeGramarye_mvl/mxv
 .byte   W01
 .byte   VOL , 7*ApolloJusticeAceAttorneyTroupeGramarye_mvl/mxv
 .byte   W01
 .byte   VOL , 8*ApolloJusticeAceAttorneyTroupeGramarye_mvl/mxv
 .byte   W01
 .byte   VOL , 8*ApolloJusticeAceAttorneyTroupeGramarye_mvl/mxv
 .byte   W01
 .byte   VOL , 8*ApolloJusticeAceAttorneyTroupeGramarye_mvl/mxv
 .byte   W01
 .byte   VOL , 8*ApolloJusticeAceAttorneyTroupeGramarye_mvl/mxv
 .byte   W01
 .byte   VOL , 9*ApolloJusticeAceAttorneyTroupeGramarye_mvl/mxv
 .byte   W01
 .byte   VOL , 9*ApolloJusticeAceAttorneyTroupeGramarye_mvl/mxv
 .byte   W01
 .byte   VOL , 10*ApolloJusticeAceAttorneyTroupeGramarye_mvl/mxv
 .byte   W01
 .byte   VOL , 10*ApolloJusticeAceAttorneyTroupeGramarye_mvl/mxv
 .byte   W01
 .byte   VOL , 10*ApolloJusticeAceAttorneyTroupeGramarye_mvl/mxv
 .byte   W01
 .byte   VOL , 11*ApolloJusticeAceAttorneyTroupeGramarye_mvl/mxv
 .byte   W01
 .byte   VOL , 11*ApolloJusticeAceAttorneyTroupeGramarye_mvl/mxv
 .byte   W01
 .byte   VOL , 11*ApolloJusticeAceAttorneyTroupeGramarye_mvl/mxv
 .byte   W01
 .byte   VOL , 11*ApolloJusticeAceAttorneyTroupeGramarye_mvl/mxv
 .byte   W01
 .byte   VOL , 12*ApolloJusticeAceAttorneyTroupeGramarye_mvl/mxv
 .byte   W01
 .byte   VOL , 13*ApolloJusticeAceAttorneyTroupeGramarye_mvl/mxv
 .byte   W01
 .byte   VOL , 13*ApolloJusticeAceAttorneyTroupeGramarye_mvl/mxv
 .byte   W01
 .byte   VOL , 14*ApolloJusticeAceAttorneyTroupeGramarye_mvl/mxv
 .byte   W01
 .byte   VOL , 14*ApolloJusticeAceAttorneyTroupeGramarye_mvl/mxv
 .byte   W01
 .byte   VOL , 14*ApolloJusticeAceAttorneyTroupeGramarye_mvl/mxv
 .byte   W01
 .byte   VOL , 15*ApolloJusticeAceAttorneyTroupeGramarye_mvl/mxv
 .byte   W01
 .byte   VOL , 15*ApolloJusticeAceAttorneyTroupeGramarye_mvl/mxv
 .byte   W01
 .byte   VOL , 15*ApolloJusticeAceAttorneyTroupeGramarye_mvl/mxv
 .byte   W01
 .byte   VOL , 16*ApolloJusticeAceAttorneyTroupeGramarye_mvl/mxv
 .byte   W01
 .byte   VOL , 17*ApolloJusticeAceAttorneyTroupeGramarye_mvl/mxv
 .byte   W01
 .byte   VOL , 17*ApolloJusticeAceAttorneyTroupeGramarye_mvl/mxv
 .byte   W01
 .byte   VOL , 17*ApolloJusticeAceAttorneyTroupeGramarye_mvl/mxv
 .byte   W01
 .byte   VOL , 18*ApolloJusticeAceAttorneyTroupeGramarye_mvl/mxv
 .byte   W01
 .byte   VOL , 18*ApolloJusticeAceAttorneyTroupeGramarye_mvl/mxv
 .byte   W01
 .byte   VOL , 19*ApolloJusticeAceAttorneyTroupeGramarye_mvl/mxv
 .byte   W01
 .byte   VOL , 19*ApolloJusticeAceAttorneyTroupeGramarye_mvl/mxv
 .byte   W07
@  #10 @002   ----------------------------------------
 .byte   W17
 .byte   N05 ,As3 ,v048
 .byte   N05 ,Cs4
 .byte   N05 ,Ds4
 .byte   N05 ,Gs4
 .byte   W12
 .byte   As3 ,v060
 .byte   N05 ,Cs4
 .byte   N05 ,Ds4
 .byte   N05 ,Gs4
 .byte   W12
 .byte   As3 ,v072
 .byte   N05 ,Cs4
 .byte   N05 ,Ds4
 .byte   N05 ,Gs4
 .byte   W12
 .byte   As3 ,v084
 .byte   N05 ,Cs4
 .byte   N05 ,Ds4
 .byte   N05 ,Gs4
 .byte   W12
 .byte   As3 ,v096
 .byte   N05 ,Cs4
 .byte   N05 ,Ds4
 .byte   N05 ,Gs4
 .byte   W12
 .byte   As3 ,v112
 .byte   N05 ,Cs4
 .byte   N05 ,Ds4
 .byte   N05 ,Gs4
 .byte   W12
 .byte   As3 ,v127
 .byte   N05 ,Cs4
 .byte   N05 ,Ds4
 .byte   N05 ,Gs4
 .byte   W07
@  #10 @003   ----------------------------------------
Label_0166148C:
 .byte   VOL , 19*ApolloJusticeAceAttorneyTroupeGramarye_mvl/mxv
 .byte   W96
@  #10 @004   ----------------------------------------
 .byte   W96
@  #10 @005   ----------------------------------------
 .byte   W96
@  #10 @006   ----------------------------------------
 .byte   W96
@  #10 @007   ----------------------------------------
 .byte   W96
@  #10 @008   ----------------------------------------
 .byte   W96
@  #10 @009   ----------------------------------------
 .byte   W96
@  #10 @010   ----------------------------------------
 .byte   W96
@  #10 @011   ----------------------------------------
 .byte   W96
@  #10 @012   ----------------------------------------
 .byte   W96
@  #10 @013   ----------------------------------------
 .byte   W96
@  #10 @014   ----------------------------------------
 .byte   W96
@  #10 @015   ----------------------------------------
 .byte   W96
@  #10 @016   ----------------------------------------
 .byte   W96
@  #10 @017   ----------------------------------------
 .byte   W96
@  #10 @018   ----------------------------------------
 .byte   W96
@  #10 @019   ----------------------------------------
 .byte   W96
@  #10 @020   ----------------------------------------
 .byte   W96
@  #10 @021   ----------------------------------------
 .byte   W96
@  #10 @022   ----------------------------------------
 .byte   W96
@  #10 @023   ----------------------------------------
 .byte   W96
@  #10 @024   ----------------------------------------
 .byte   W96
@  #10 @025   ----------------------------------------
 .byte   W96
@  #10 @026   ----------------------------------------
 .byte   VOL , 29*ApolloJusticeAceAttorneyTroupeGramarye_mvl/mxv
 .byte   W36
 .byte   W03
 .byte   N05 ,An3 ,v100
 .byte   N05 ,Cn4
 .byte   N05 ,Dn4
 .byte   N05 ,Gn4
 .byte   W06
 .byte   An3 ,v104
 .byte   N05 ,Cn4
 .byte   N05 ,Dn4
 .byte   N05 ,Gn4
 .byte   W06
 .byte   An3 ,v108
 .byte   N05 ,Cn4
 .byte   N05 ,Dn4
 .byte   N05 ,Gn4
 .byte   W12
 .byte   An3 ,v112
 .byte   N05 ,Cn4
 .byte   N05 ,Dn4
 .byte   N05 ,Gn4
 .byte   W12
 .byte   An3 ,v116
 .byte   N05 ,Cn4
 .byte   N05 ,Dn4
 .byte   N05 ,Gn4
 .byte   W12
 .byte   An3 ,v120
 .byte   N05 ,Cn4
 .byte   N05 ,Dn4
 .byte   N05 ,Gn4
 .byte   W09
@  #10 @027   ----------------------------------------
 .byte   W03
 .byte   N12 ,An3 ,v127
 .byte   N12 ,Cn4
 .byte   N12 ,Dn4
 .byte   N12 ,Gn4
 .byte   W92
 .byte   W01
@  #10 @028   ----------------------------------------
 .byte   W96
@  #10 @029   ----------------------------------------
 .byte   GOTO
  .word Label_0166148C
 .byte   FINE

@**************** Track 11 (Midi-Chn.10) ****************@

ApolloJusticeAceAttorneyTroupeGramarye_011:
@  #11 @000   ----------------------------------------
 .byte   KEYSH , ApolloJusticeAceAttorneyTroupeGramarye_key+0
 .byte   VOICE , 100
 .byte   MODT 0
 .byte   LFOS 44
 .byte   VOL , 19*ApolloJusticeAceAttorneyTroupeGramarye_mvl/mxv
 .byte   PAN , c_v+0
 .byte   BEND , c_v+3
 .byte   W96
@  #11 @001   ----------------------------------------
 .byte   W96
@  #11 @002   ----------------------------------------
 .byte   W96
@  #11 @003   ----------------------------------------
Label_01661225:
 .byte   W24
 .byte   N12 ,Gs3 ,v100
 .byte   W12
 .byte   En3
 .byte   W12
 .byte   Cs3
 .byte   W12
 .byte   N18 ,Gs3
 .byte   W18
 .byte   N10 ,En3
 .byte   W18
 .byte   PEND 
@  #11 @004   ----------------------------------------
 .byte   PATT
  .word Label_01661225
@  #11 @005   ----------------------------------------
Label_0166123A:
 .byte   W12
 .byte   N18 ,Ds3 ,v100
 .byte   W18
 .byte   En3
 .byte   W18
 .byte   N24 ,Fs3
 .byte   W24
 .byte   N12 ,En3
 .byte   W12
 .byte   Fs3
 .byte   W12
 .byte   PEND 
@  #11 @006   ----------------------------------------
Label_0166124A:
 .byte   N12 ,Gs3 ,v100
 .byte   W12
 .byte   N36 ,An3
 .byte   W36
 .byte   N06 ,Gs3
 .byte   W06
 .byte   Fs3
 .byte   W06
 .byte   N36 ,Gs3
 .byte   W36
 .byte   PEND 
@  #11 @007   ----------------------------------------
 .byte   PATT
  .word Label_01661225
@  #11 @008   ----------------------------------------
Label_0166125F:
 .byte   W24
 .byte   N12 ,An3 ,v100
 .byte   W12
 .byte   En3
 .byte   W12
 .byte   Cs3
 .byte   W12
 .byte   N18 ,An3
 .byte   W18
 .byte   N10 ,En3
 .byte   W18
 .byte   PEND 
@  #11 @009   ----------------------------------------
Label_0166126F:
 .byte   W12
 .byte   N18 ,Ds4 ,v100
 .byte   W18
 .byte   Cs4
 .byte   W18
 .byte   N24 ,Bn3
 .byte   W24
 .byte   N12 ,An3
 .byte   W12
 .byte   Bn3
 .byte   W12
 .byte   PEND 
@  #11 @010   ----------------------------------------
 .byte   An3
 .byte   W12
 .byte   N78 ,Gs3
 .byte   W84
@  #11 @011   ----------------------------------------
 .byte   PATT
  .word Label_01661225
@  #11 @012   ----------------------------------------
 .byte   PATT
  .word Label_01661225
@  #11 @013   ----------------------------------------
 .byte   PATT
  .word Label_0166123A
@  #11 @014   ----------------------------------------
 .byte   PATT
  .word Label_0166124A
@  #11 @015   ----------------------------------------
 .byte   PATT
  .word Label_01661225
@  #11 @016   ----------------------------------------
 .byte   PATT
  .word Label_0166125F
@  #11 @017   ----------------------------------------
 .byte   PATT
  .word Label_0166126F
@  #11 @018   ----------------------------------------
 .byte   N12 ,Cn4 ,v100
 .byte   W12
 .byte   N84 ,Cs4
 .byte   W84
@  #11 @019   ----------------------------------------
 .byte   W96
@  #11 @020   ----------------------------------------
 .byte   W96
@  #11 @021   ----------------------------------------
 .byte   W96
@  #11 @022   ----------------------------------------
 .byte   W96
@  #11 @023   ----------------------------------------
 .byte   W96
@  #11 @024   ----------------------------------------
 .byte   W96
@  #11 @025   ----------------------------------------
 .byte   W96
@  #11 @026   ----------------------------------------
 .byte   W96
@  #11 @027   ----------------------------------------
 .byte   W96
@  #11 @028   ----------------------------------------
 .byte   W96
@  #11 @029   ----------------------------------------
 .byte   GOTO
  .word Label_01661225
 .byte   FINE

@**************** Track 12 (Midi-Chn.11) ****************@

ApolloJusticeAceAttorneyTroupeGramarye_012:
@  #12 @000   ----------------------------------------
 .byte   KEYSH , ApolloJusticeAceAttorneyTroupeGramarye_key+0
 .byte   VOICE , 10
 .byte   MODT 0
 .byte   LFOS 44
 .byte   VOL , 13*ApolloJusticeAceAttorneyTroupeGramarye_mvl/mxv
 .byte   PAN , c_v-1
 .byte   BEND , c_v+3
 .byte   W96
@  #12 @001   ----------------------------------------
 .byte   W96
@  #12 @002   ----------------------------------------
 .byte   W96
@  #12 @003   ----------------------------------------
Label_016615B1:
 .byte   W96
@  #12 @004   ----------------------------------------
 .byte   W96
@  #12 @005   ----------------------------------------
 .byte   W96
@  #12 @006   ----------------------------------------
 .byte   W96
@  #12 @007   ----------------------------------------
 .byte   W96
@  #12 @008   ----------------------------------------
 .byte   W96
@  #12 @009   ----------------------------------------
 .byte   W96
@  #12 @010   ----------------------------------------
 .byte   W96
@  #12 @011   ----------------------------------------
 .byte   W96
@  #12 @012   ----------------------------------------
 .byte   W96
@  #12 @013   ----------------------------------------
 .byte   W96
@  #12 @014   ----------------------------------------
 .byte   W96
@  #12 @015   ----------------------------------------
 .byte   W96
@  #12 @016   ----------------------------------------
 .byte   W96
@  #12 @017   ----------------------------------------
 .byte   W96
@  #12 @018   ----------------------------------------
 .byte   W96
@  #12 @019   ----------------------------------------
 .byte   W18
 .byte   N12 ,An3 ,v092
 .byte   W12
 .byte   N07 ,Bn3
 .byte   W12
 .byte   N12 ,An3
 .byte   W12
 .byte   N07 ,Bn3
 .byte   W12
 .byte   N12 ,An3
 .byte   W12
 .byte   N06 ,Bn3
 .byte   W06
 .byte   N18 ,An3
 .byte   W12
@  #12 @020   ----------------------------------------
 .byte   W06
 .byte   N12 ,Gn3
 .byte   W12
 .byte   Fs3
 .byte   W12
 .byte   N07 ,Gn3
 .byte   W12
 .byte   N12 ,Fs3
 .byte   W12
 .byte   N07 ,Gn3
 .byte   W12
 .byte   N12 ,Fs3
 .byte   W12
 .byte   N06 ,Gn3
 .byte   W06
 .byte   N18 ,An3
 .byte   W12
@  #12 @021   ----------------------------------------
 .byte   W06
 .byte   N12 ,Bn3
 .byte   W12
 .byte   N12
 .byte   W12
 .byte   N07 ,Cn4
 .byte   W12
 .byte   N12 ,Bn3
 .byte   W12
 .byte   N07 ,Cn4
 .byte   W12
 .byte   N12 ,Bn3
 .byte   W12
 .byte   N06 ,Cn4
 .byte   W06
 .byte   N18 ,Dn4
 .byte   W12
@  #12 @022   ----------------------------------------
 .byte   W06
 .byte   N12 ,Cn4
 .byte   W12
 .byte   N30 ,Bn3
 .byte   W30
 .byte   N06 ,An3
 .byte   W06
 .byte   Gn3
 .byte   W06
 .byte   An3
 .byte   W06
 .byte   N42 ,Bn3
 .byte   W30
@  #12 @023   ----------------------------------------
 .byte   W18
 .byte   N36 ,Ds4
 .byte   W36
 .byte   N06 ,Fn4
 .byte   W06
 .byte   Ds4
 .byte   W06
 .byte   N12 ,Dn4
 .byte   W12
 .byte   N07 ,Cn4
 .byte   W12
 .byte   N12 ,As3
 .byte   W06
@  #12 @024   ----------------------------------------
 .byte   W06
 .byte   An3
 .byte   W12
 .byte   N36 ,Dn4
 .byte   W36
 .byte   N06 ,Ds4
 .byte   W06
 .byte   Dn4
 .byte   W06
 .byte   N12 ,Cn4
 .byte   W12
 .byte   N07 ,As3
 .byte   W12
 .byte   N12 ,An3
 .byte   W06
@  #12 @025   ----------------------------------------
 .byte   W06
 .byte   Gn3
 .byte   W12
 .byte   N30 ,Cn4
 .byte   W36
 .byte   N06
 .byte   W12
 .byte   N30
 .byte   W30
@  #12 @026   ----------------------------------------
 .byte   W06
 .byte   N06
 .byte   W12
 .byte   N30 ,Dn4
 .byte   W78
@  #12 @027   ----------------------------------------
 .byte   W96
@  #12 @028   ----------------------------------------
 .byte   W96
@  #12 @029   ----------------------------------------
 .byte   GOTO
  .word Label_016615B1
 .byte   FINE

@**************** Track 13 (Midi-Chn.12) ****************@

ApolloJusticeAceAttorneyTroupeGramarye_013:
@  #13 @000   ----------------------------------------
 .byte   KEYSH , ApolloJusticeAceAttorneyTroupeGramarye_key+0
 .byte   VOICE , 24
 .byte   MODT 0
 .byte   LFOS 44
 .byte   PAN , c_v+3
 .byte   VOL , 17*ApolloJusticeAceAttorneyTroupeGramarye_mvl/mxv
 .byte   BEND , c_v+3
 .byte   W96
@  #13 @001   ----------------------------------------
 .byte   W96
@  #13 @002   ----------------------------------------
 .byte   W96
@  #13 @003   ----------------------------------------
Label_01661669:
 .byte   W90
 .byte   N06 ,Cs5 ,v104
 .byte   W06
@  #13 @004   ----------------------------------------
 .byte   W90
 .byte   N06
 .byte   W06
@  #13 @005   ----------------------------------------
 .byte   W96
@  #13 @006   ----------------------------------------
Label_01661672:
 .byte   W78
 .byte   N06 ,En5 ,v104
 .byte   W12
 .byte   N06
 .byte   W06
 .byte   PEND 
@  #13 @007   ----------------------------------------
 .byte   W90
 .byte   Cs5
 .byte   W06
@  #13 @008   ----------------------------------------
 .byte   W90
 .byte   N06
 .byte   W06
@  #13 @009   ----------------------------------------
 .byte   W96
@  #13 @010   ----------------------------------------
 .byte   W18
 .byte   N05 ,En5
 .byte   W12
 .byte   N05
 .byte   W12
 .byte   N05
 .byte   W12
 .byte   N15
 .byte   W18
 .byte   N15
 .byte   W24
@  #13 @011   ----------------------------------------
 .byte   W90
 .byte   N06 ,Cs5
 .byte   W06
@  #13 @012   ----------------------------------------
 .byte   W90
 .byte   N06
 .byte   W06
@  #13 @013   ----------------------------------------
 .byte   W96
@  #13 @014   ----------------------------------------
 .byte   PATT
  .word Label_01661672
@  #13 @015   ----------------------------------------
 .byte   W90
 .byte   N06 ,Cs5 ,v104
 .byte   W06
@  #13 @016   ----------------------------------------
 .byte   W90
 .byte   N06
 .byte   W06
@  #13 @017   ----------------------------------------
 .byte   W96
@  #13 @018   ----------------------------------------
 .byte   W06
 .byte   N05
 .byte   W12
 .byte   N05
 .byte   W12
 .byte   N05
 .byte   W12
 .byte   N05
 .byte   W12
 .byte   N15
 .byte   W18
 .byte   N15
 .byte   W18
 .byte   N06
 .byte   W06
@  #13 @019   ----------------------------------------
 .byte   W96
@  #13 @020   ----------------------------------------
 .byte   W96
@  #13 @021   ----------------------------------------
 .byte   W96
@  #13 @022   ----------------------------------------
 .byte   W96
@  #13 @023   ----------------------------------------
 .byte   W96
@  #13 @024   ----------------------------------------
 .byte   W96
@  #13 @025   ----------------------------------------
 .byte   W96
@  #13 @026   ----------------------------------------
 .byte   W96
@  #13 @027   ----------------------------------------
 .byte   W96
@  #13 @028   ----------------------------------------
 .byte   W96
@  #13 @029   ----------------------------------------
 .byte   GOTO
  .word Label_01661669
 .byte   FINE

@******************************************************@
	.align	2

ApolloJusticeAceAttorneyTroupeGramarye:
	.byte	13	@ NumTrks
	.byte	0	@ NumBlks
	.byte	ApolloJusticeAceAttorneyTroupeGramarye_pri	@ Priority
	.byte	ApolloJusticeAceAttorneyTroupeGramarye_rev	@ Reverb.
    
	.word	ApolloJusticeAceAttorneyTroupeGramarye_grp
    
	.word	ApolloJusticeAceAttorneyTroupeGramarye_001
	.word	ApolloJusticeAceAttorneyTroupeGramarye_002
	.word	ApolloJusticeAceAttorneyTroupeGramarye_003
	.word	ApolloJusticeAceAttorneyTroupeGramarye_004
	.word	ApolloJusticeAceAttorneyTroupeGramarye_005
	.word	ApolloJusticeAceAttorneyTroupeGramarye_006
	.word	ApolloJusticeAceAttorneyTroupeGramarye_007
	.word	ApolloJusticeAceAttorneyTroupeGramarye_008
	.word	ApolloJusticeAceAttorneyTroupeGramarye_009
	.word	ApolloJusticeAceAttorneyTroupeGramarye_010
	.word	ApolloJusticeAceAttorneyTroupeGramarye_011
	.word	ApolloJusticeAceAttorneyTroupeGramarye_012
	.word	ApolloJusticeAceAttorneyTroupeGramarye_013

	.end
