	.include "MPlayDef.s"

	.equ	PhoenixWrightTrialsandTribulationsSceneryatDuskyBridge_grp, voicegroup000
	.equ	PhoenixWrightTrialsandTribulationsSceneryatDuskyBridge_pri, 0
	.equ	PhoenixWrightTrialsandTribulationsSceneryatDuskyBridge_rev, 0
	.equ	PhoenixWrightTrialsandTribulationsSceneryatDuskyBridge_mvl, 127
	.equ	PhoenixWrightTrialsandTribulationsSceneryatDuskyBridge_key, 0
	.equ	PhoenixWrightTrialsandTribulationsSceneryatDuskyBridge_tbs, 1
	.equ	PhoenixWrightTrialsandTribulationsSceneryatDuskyBridge_exg, 0
	.equ	PhoenixWrightTrialsandTribulationsSceneryatDuskyBridge_cmp, 1

	.section .rodata
	.global	PhoenixWrightTrialsandTribulationsSceneryatDuskyBridge
	.align	2


@**************** Track 1 (Midi-Chn.0) ****************@

PhoenixWrightTrialsandTribulationsSceneryatDuskyBridge_001:
@  #01 @000   ----------------------------------------
 .byte   KEYSH , PhoenixWrightTrialsandTribulationsSceneryatDuskyBridge_key+0
Label_0168C93E:
 .byte   TEMPO , 48*PhoenixWrightTrialsandTribulationsSceneryatDuskyBridge_tbs/2
 .byte   VOICE , 48
 .byte   MODT 0
 .byte   LFOS 44
 .byte   VOL , 27*PhoenixWrightTrialsandTribulationsSceneryatDuskyBridge_mvl/mxv
 .byte   PAN , c_v+0
 .byte   MOD 0
 .byte   N15 ,Gn3 ,v088
 .byte   W16
 .byte   N07 ,Gs3
 .byte   W08
 .byte   N56 ,Gn3
 .byte   W72
@  #01 @001   ----------------------------------------
 .byte   N15
 .byte   W16
 .byte   N07 ,Gs3
 .byte   W08
 .byte   N56 ,Gn3
 .byte   W72
@  #01 @002   ----------------------------------------
 .byte   N15
 .byte   W16
 .byte   N07 ,Cn4
 .byte   W08
 .byte   N23 ,Gn3
 .byte   W32
 .byte   N07
 .byte   W08
 .byte   N07
 .byte   W08
 .byte   N07
 .byte   W08
 .byte   Fn3
 .byte   W08
 .byte   Ds3
 .byte   W08
@  #01 @003   ----------------------------------------
 .byte   N56 ,Fn3
 .byte   W72
 .byte   N07 ,As2
 .byte   W08
 .byte   Cn3
 .byte   W08
 .byte   Dn3
 .byte   W08
@  #01 @004   ----------------------------------------
 .byte   N23 ,Ds3
 .byte   W24
 .byte   N07
 .byte   W08
 .byte   Fn3
 .byte   W08
 .byte   Gn3
 .byte   W08
 .byte   N23 ,Dn3
 .byte   W24
 .byte   As2
 .byte   W24
@  #01 @005   ----------------------------------------
 .byte   W08
 .byte   N07 ,As3
 .byte   W08
 .byte   Gs3
 .byte   W08
 .byte   Gn3
 .byte   W08
 .byte   Fn3
 .byte   W08
 .byte   Ds3
 .byte   W08
 .byte   N23
 .byte   W24
 .byte   Dn3
 .byte   W24
@  #01 @006   ----------------------------------------
 .byte   N07 ,Gn4 ,v072
 .byte   W08
 .byte   Gn4 ,v020
 .byte   W08
 .byte   Gs4 ,v072
 .byte   W08
 .byte   Gn4
 .byte   W08
 .byte   N15 ,Gn4 ,v020
 .byte   W24
 .byte   N07 ,Gn3 ,v088
 .byte   W08
 .byte   Cn4 ,v072
 .byte   W08
 .byte   Dn4
 .byte   W08
 .byte   Ds4
 .byte   W08
 .byte   Fn4
 .byte   W08
@  #01 @007   ----------------------------------------
 .byte   Gn4
 .byte   W08
 .byte   Gn4 ,v020
 .byte   W08
 .byte   Gs4 ,v072
 .byte   W08
 .byte   Gn4
 .byte   W08
 .byte   N36 ,Gn4 ,v020
 .byte   W64
@  #01 @008   ----------------------------------------
 .byte   N07 ,Gn4 ,v072
 .byte   W08
 .byte   Gn4 ,v020
 .byte   W08
 .byte   Cn5 ,v072
 .byte   W08
 .byte   Gn4
 .byte   W08
 .byte   N15 ,Gn4 ,v020
 .byte   W24
 .byte   N07 ,As4 ,v072
 .byte   W08
 .byte   Gs4
 .byte   W08
 .byte   Gn4
 .byte   W08
 .byte   Fn4
 .byte   W08
 .byte   Ds4
 .byte   W08
@  #01 @009   ----------------------------------------
 .byte   Fn4
 .byte   W08
 .byte   N15 ,Fn4 ,v020
 .byte   W16
 .byte   N07 ,As2 ,v088
 .byte   W08
 .byte   Dn3
 .byte   W08
 .byte   Fn3
 .byte   W08
 .byte   Gn3
 .byte   W08
 .byte   As3
 .byte   W08
 .byte   Cn4 ,v072
 .byte   W08
 .byte   Dn4
 .byte   W08
 .byte   Ds4
 .byte   W08
 .byte   Fn4
 .byte   W08
@  #01 @010   ----------------------------------------
 .byte   N07
 .byte   W08
 .byte   Fn4 ,v020
 .byte   W08
 .byte   Fn4 ,v072
 .byte   W08
 .byte   Fn4 ,v020
 .byte   W08
 .byte   Ds4 ,v072
 .byte   W08
 .byte   Fn4
 .byte   W08
 .byte   Gs4
 .byte   W08
 .byte   Gs4 ,v020
 .byte   W08
 .byte   Ds4 ,v072
 .byte   W08
 .byte   N15 ,Ds4 ,v020
 .byte   W16
 .byte   N07 ,Cn4 ,v072
 .byte   W08
@  #01 @011   ----------------------------------------
 .byte   Cs4
 .byte   W08
 .byte   Cn4
 .byte   W08
 .byte   Cs4
 .byte   W08
 .byte   Cs4 ,v020
 .byte   W08
 .byte   Ds4 ,v072
 .byte   W08
 .byte   Fn4
 .byte   W08
 .byte   Fs4
 .byte   W08
 .byte   N36 ,Fs4 ,v020
 .byte   W40
@  #01 @012   ----------------------------------------
Label_0168CA2E:
 .byte   W16
 .byte   N07 ,Cn4 ,v072
 .byte   W08
 .byte   Cs4
 .byte   W08
 .byte   Ds4
 .byte   W08
 .byte   Fn4
 .byte   W08
 .byte   Ds4
 .byte   W08
 .byte   N36 ,Ds4 ,v020
 .byte   W40
 .byte   PEND 
@  #01 @013   ----------------------------------------
Label_0168CA40:
 .byte   W16
 .byte   N07 ,As3 ,v088
 .byte   W08
 .byte   Cn4 ,v072
 .byte   W08
 .byte   Cs4
 .byte   W08
 .byte   Fn4
 .byte   W08
 .byte   Ds4
 .byte   W08
 .byte   N15 ,Ds4 ,v020
 .byte   W16
 .byte   N07 ,Cn4 ,v072
 .byte   W08
 .byte   N15 ,Cn4 ,v020
 .byte   W16
 .byte   PEND 
@  #01 @014   ----------------------------------------
 .byte   PATT
  .word Label_0168CA2E
@  #01 @015   ----------------------------------------
 .byte   PATT
  .word Label_0168CA40
@  #01 @016   ----------------------------------------
 .byte   N07 ,Dn4 ,v072
 .byte   W08
 .byte   N84 ,Dn4 ,v020
 .byte   W88
@  #01 @017   ----------------------------------------
 .byte   W96
@  #01 @018   ----------------------------------------
 .byte   W96
@  #01 @019   ----------------------------------------
Label_0168CA6F:
 .byte   W40
 .byte   N03 ,As4 ,v052
 .byte   W08
 .byte   As3
 .byte   W48
 .byte   PEND 
@  #01 @020   ----------------------------------------
 .byte   PATT
  .word Label_0168CA6F
@  #01 @021   ----------------------------------------
 .byte   W24
 .byte   N01 ,Dn4 ,v072
 .byte   W02
 .byte   N02 ,Ds4
 .byte   W03
 .byte   N06 ,Dn4
 .byte   W07
 .byte   N56 ,Dn4 ,v052
 .byte   W60
@  #01 @022   ----------------------------------------
 .byte   GOTO
  .word Label_0168C93E
 .byte   FINE

@**************** Track 2 (Midi-Chn.1) ****************@

PhoenixWrightTrialsandTribulationsSceneryatDuskyBridge_002:
@  #02 @000   ----------------------------------------
 .byte   KEYSH , PhoenixWrightTrialsandTribulationsSceneryatDuskyBridge_key+0
Label_0168CA96:
 .byte   VOICE , 41
 .byte   MODT 0
 .byte   LFOS 44
 .byte   VOL , 11*PhoenixWrightTrialsandTribulationsSceneryatDuskyBridge_mvl/mxv
 .byte   PAN , c_v-32
 .byte   MOD 0
 .byte   W08
 .byte   N15 ,Gn3 ,v088
 .byte   W16
 .byte   N07 ,Gs3
 .byte   W08
 .byte   N56 ,Gn3
 .byte   W64
@  #02 @001   ----------------------------------------
 .byte   W08
 .byte   N15
 .byte   W16
 .byte   N07 ,Gs3
 .byte   W08
 .byte   N56 ,Gn3
 .byte   W64
@  #02 @002   ----------------------------------------
 .byte   W08
 .byte   N15
 .byte   W16
 .byte   N07 ,Cn4 ,v072
 .byte   W08
 .byte   N23 ,Gn3 ,v088
 .byte   W32
 .byte   N07
 .byte   W08
 .byte   N07
 .byte   W08
 .byte   N07
 .byte   W08
 .byte   Fn3
 .byte   W08
@  #02 @003   ----------------------------------------
 .byte   Ds3
 .byte   W08
 .byte   N56 ,Fn3
 .byte   W72
 .byte   N07 ,As2
 .byte   W08
 .byte   Cn3
 .byte   W08
@  #02 @004   ----------------------------------------
 .byte   Dn3
 .byte   W08
 .byte   N23 ,Ds3
 .byte   W24
 .byte   N07
 .byte   W08
 .byte   Fn3
 .byte   W08
 .byte   Gn3
 .byte   W08
 .byte   N23 ,Dn3
 .byte   W24
 .byte   As2
 .byte   W16
@  #02 @005   ----------------------------------------
 .byte   W16
 .byte   N07 ,As3
 .byte   W08
 .byte   Gs3
 .byte   W08
 .byte   Gn3
 .byte   W08
 .byte   Fn3
 .byte   W08
 .byte   Ds3
 .byte   W08
 .byte   N23
 .byte   W24
 .byte   Dn3
 .byte   W16
@  #02 @006   ----------------------------------------
 .byte   W08
 .byte   N07 ,Gn4 ,v072
 .byte   W08
 .byte   Gn4 ,v052
 .byte   W08
 .byte   Gs4 ,v072
 .byte   W08
 .byte   Gn4
 .byte   W08
 .byte   N15 ,Gn4 ,v052
 .byte   W24
 .byte   N07 ,Gn3 ,v088
 .byte   W08
 .byte   Cn4 ,v072
 .byte   W08
 .byte   Dn4
 .byte   W08
 .byte   Ds4
 .byte   W08
@  #02 @007   ----------------------------------------
 .byte   Fn4
 .byte   W08
 .byte   Gn4
 .byte   W08
 .byte   Gn4 ,v052
 .byte   W08
 .byte   Gs4 ,v072
 .byte   W08
 .byte   Gn4
 .byte   W08
 .byte   N36 ,Gn4 ,v052
 .byte   W56
@  #02 @008   ----------------------------------------
 .byte   W08
 .byte   N07 ,Gn4 ,v072
 .byte   W08
 .byte   Gn4 ,v052
 .byte   W08
 .byte   Cn5 ,v072
 .byte   W08
 .byte   Gn4
 .byte   W08
 .byte   N15 ,Gn4 ,v052
 .byte   W24
 .byte   N07 ,As4 ,v072
 .byte   W08
 .byte   Gs4
 .byte   W08
 .byte   Gn4
 .byte   W08
 .byte   Fn4
 .byte   W08
@  #02 @009   ----------------------------------------
 .byte   Ds4
 .byte   W08
 .byte   Fn4
 .byte   W08
 .byte   N15 ,Fn4 ,v052
 .byte   W16
 .byte   N07 ,As2 ,v088
 .byte   W08
 .byte   Dn3
 .byte   W08
 .byte   Fn3
 .byte   W08
 .byte   Gn3
 .byte   W08
 .byte   As3
 .byte   W08
 .byte   Cn4 ,v072
 .byte   W08
 .byte   Dn4
 .byte   W08
 .byte   Ds4
 .byte   W08
@  #02 @010   ----------------------------------------
 .byte   Fn4
 .byte   W08
 .byte   N07
 .byte   W08
 .byte   Fn4 ,v052
 .byte   W08
 .byte   Fn4 ,v072
 .byte   W08
 .byte   Fn4 ,v052
 .byte   W08
 .byte   Ds4 ,v072
 .byte   W08
 .byte   Fn4
 .byte   W08
 .byte   Gs4
 .byte   W08
 .byte   Gs4 ,v052
 .byte   W08
 .byte   Ds4 ,v072
 .byte   W08
 .byte   N15 ,Ds4 ,v052
 .byte   W16
@  #02 @011   ----------------------------------------
 .byte   N07 ,Cn4 ,v072
 .byte   W08
 .byte   Cs4
 .byte   W08
 .byte   Cn4
 .byte   W08
 .byte   Cs4
 .byte   W08
 .byte   Cs4 ,v052
 .byte   W08
 .byte   Ds4 ,v072
 .byte   W08
 .byte   Fn4
 .byte   W08
 .byte   Fs4
 .byte   W08
 .byte   N36 ,Fs4 ,v052
 .byte   W32
@  #02 @012   ----------------------------------------
Label_0168CB8B:
 .byte   W24
 .byte   N07 ,Cn4 ,v072
 .byte   W08
 .byte   Cs4
 .byte   W08
 .byte   Ds4
 .byte   W08
 .byte   Fn4
 .byte   W08
 .byte   Ds4
 .byte   W08
 .byte   N36 ,Ds4 ,v052
 .byte   W32
 .byte   PEND 
@  #02 @013   ----------------------------------------
Label_0168CB9D:
 .byte   W24
 .byte   N07 ,As3 ,v088
 .byte   W08
 .byte   Cn4 ,v072
 .byte   W08
 .byte   Cs4
 .byte   W08
 .byte   Fn4
 .byte   W08
 .byte   Ds4
 .byte   W08
 .byte   N15 ,Ds4 ,v052
 .byte   W16
 .byte   N07 ,Cn4 ,v072
 .byte   W08
 .byte   N15 ,Cn4 ,v052
 .byte   W08
 .byte   PEND 
@  #02 @014   ----------------------------------------
 .byte   PATT
  .word Label_0168CB8B
@  #02 @015   ----------------------------------------
 .byte   PATT
  .word Label_0168CB9D
@  #02 @016   ----------------------------------------
 .byte   W08
 .byte   N07 ,Dn4 ,v072
 .byte   W08
 .byte   N84 ,Dn4 ,v052
 .byte   W80
@  #02 @017   ----------------------------------------
 .byte   W96
@  #02 @018   ----------------------------------------
 .byte   W96
@  #02 @019   ----------------------------------------
Label_0168CBCD:
 .byte   W48
 .byte   N03 ,As4 ,v052
 .byte   W08
 .byte   As3
 .byte   W40
 .byte   PEND 
@  #02 @020   ----------------------------------------
 .byte   PATT
  .word Label_0168CBCD
@  #02 @021   ----------------------------------------
 .byte   W32
 .byte   N01 ,Dn4 ,v072
 .byte   W02
 .byte   N02 ,Ds4
 .byte   W03
 .byte   N06 ,Dn4
 .byte   W07
 .byte   N48 ,Dn4 ,v052
 .byte   W52
@  #02 @022   ----------------------------------------
 .byte   GOTO
  .word Label_0168CA96
 .byte   FINE

@**************** Track 3 (Midi-Chn.2) ****************@

PhoenixWrightTrialsandTribulationsSceneryatDuskyBridge_003:
@  #03 @000   ----------------------------------------
 .byte   KEYSH , PhoenixWrightTrialsandTribulationsSceneryatDuskyBridge_key+0
Label_0168CBF2:
 .byte   VOICE , 88
 .byte   MODT 0
 .byte   LFOS 44
 .byte   VOL , 45*PhoenixWrightTrialsandTribulationsSceneryatDuskyBridge_mvl/mxv
 .byte   PAN , c_v+0
 .byte   MOD 0
 .byte   W56
 .byte   N03 ,Gn3 ,v052
 .byte   W08
 .byte   Fn3
 .byte   W08
 .byte   Ds3 ,v080
 .byte   W08
 .byte   Dn3
 .byte   W08
 .byte   Cn3
 .byte   W08
@  #03 @001   ----------------------------------------
Label_0168CC0C:
 .byte   N03 ,Gn2 ,v096
 .byte   W08
 .byte   Gn2 ,v036
 .byte   W08
 .byte   Gn2 ,v028
 .byte   W08
 .byte   Gn2 ,v020
 .byte   W08
 .byte   Gn2 ,v012
 .byte   W08
 .byte   Gn2 ,v008
 .byte   W16
 .byte   Gn3 ,v052
 .byte   W08
 .byte   Fn3
 .byte   W08
 .byte   Ds3 ,v080
 .byte   W08
 .byte   Dn3
 .byte   W08
 .byte   As2
 .byte   W08
 .byte   PEND 
@  #03 @002   ----------------------------------------
 .byte   Gn2 ,v096
 .byte   W08
 .byte   Gn2 ,v036
 .byte   W08
 .byte   Gn2 ,v028
 .byte   W08
 .byte   Gn2 ,v020
 .byte   W08
 .byte   Gn2 ,v012
 .byte   W08
 .byte   Gn2 ,v008
 .byte   W16
 .byte   Ds3 ,v080
 .byte   W08
 .byte   Dn3
 .byte   W08
 .byte   Cn3
 .byte   W08
 .byte   As2
 .byte   W08
 .byte   Gn2 ,v096
 .byte   W08
@  #03 @003   ----------------------------------------
Label_0168CC4A:
 .byte   N03 ,Dn2 ,v096
 .byte   W08
 .byte   Dn2 ,v036
 .byte   W08
 .byte   Dn2 ,v028
 .byte   W08
 .byte   Dn2 ,v020
 .byte   W08
 .byte   Dn2 ,v012
 .byte   W08
 .byte   Dn2 ,v008
 .byte   W08
 .byte   N03
 .byte   W08
 .byte   Dn3 ,v080
 .byte   W08
 .byte   As2
 .byte   W08
 .byte   Gn2 ,v096
 .byte   W08
 .byte   Dn2
 .byte   W08
 .byte   As1
 .byte   W08
 .byte   PEND 
@  #03 @004   ----------------------------------------
 .byte   Cn2
 .byte   W08
 .byte   Cn2 ,v028
 .byte   W08
 .byte   Cn2 ,v024
 .byte   W08
 .byte   Cn2 ,v016
 .byte   W08
 .byte   Cn2 ,v012
 .byte   W08
 .byte   Cn2 ,v008
 .byte   W08
 .byte   Dn2 ,v096
 .byte   W08
 .byte   Dn2 ,v028
 .byte   W08
 .byte   Dn2 ,v024
 .byte   W08
 .byte   Dn2 ,v016
 .byte   W08
 .byte   Dn2 ,v012
 .byte   W08
 .byte   Dn2 ,v008
 .byte   W08
@  #03 @005   ----------------------------------------
 .byte   Ds2 ,v096
 .byte   W08
 .byte   Ds2 ,v028
 .byte   W08
 .byte   Ds2 ,v024
 .byte   W08
 .byte   Ds2 ,v016
 .byte   W08
 .byte   Ds2 ,v012
 .byte   W08
 .byte   Ds2 ,v008
 .byte   W56
@  #03 @006   ----------------------------------------
 .byte   W56
 .byte   Gn3 ,v052
 .byte   W08
 .byte   Fn3
 .byte   W08
 .byte   Ds3 ,v080
 .byte   W08
 .byte   Dn3
 .byte   W08
 .byte   Cn3
 .byte   W08
@  #03 @007   ----------------------------------------
 .byte   PATT
  .word Label_0168CC0C
@  #03 @008   ----------------------------------------
 .byte   N03 ,Gn2 ,v096
 .byte   W08
 .byte   Gn2 ,v036
 .byte   W08
 .byte   Gn2 ,v028
 .byte   W08
 .byte   Gn2 ,v020
 .byte   W08
 .byte   Gn2 ,v012
 .byte   W08
 .byte   Gn2 ,v008
 .byte   W16
 .byte   Cn2 ,v096
 .byte   W08
 .byte   Dn2
 .byte   W08
 .byte   Ds2
 .byte   W08
 .byte   Fn2
 .byte   W08
 .byte   Gn2
 .byte   W08
@  #03 @009   ----------------------------------------
 .byte   PATT
  .word Label_0168CC4A
@  #03 @010   ----------------------------------------
 .byte   N07 ,Cs3 ,v068
 .byte   W16
 .byte   N11
 .byte   W32
 .byte   N07 ,Cn3
 .byte   W16
 .byte   N11
 .byte   W32
@  #03 @011   ----------------------------------------
 .byte   N07 ,As2
 .byte   W16
 .byte   N11
 .byte   W32
 .byte   N03 ,Cs3 ,v056
 .byte   W08
 .byte   Cs3 ,v028
 .byte   W08
 .byte   Cs3 ,v024
 .byte   W08
 .byte   Cs3 ,v016
 .byte   W08
 .byte   Cs3 ,v012
 .byte   W08
 .byte   Cs3 ,v008
 .byte   W08
@  #03 @012   ----------------------------------------
 .byte   W96
@  #03 @013   ----------------------------------------
 .byte   W96
@  #03 @014   ----------------------------------------
 .byte   W96
@  #03 @015   ----------------------------------------
 .byte   W96
@  #03 @016   ----------------------------------------
 .byte   W08
 .byte   En2 ,v036
 .byte   W08
 .byte   Gn2 ,v040
 .byte   W08
 .byte   Dn3 ,v036
 .byte   W08
 .byte   En2 ,v048
 .byte   W08
 .byte   Gn2
 .byte   W08
 .byte   Dn3
 .byte   W08
 .byte   En2 ,v056
 .byte   W08
 .byte   Gn2 ,v060
 .byte   W08
 .byte   Dn3 ,v056
 .byte   W08
 .byte   En2 ,v068
 .byte   W08
 .byte   Gn2 ,v072
 .byte   W08
@  #03 @017   ----------------------------------------
 .byte   Dn3 ,v068
 .byte   W08
 .byte   En2 ,v072
 .byte   W08
 .byte   Gn2 ,v068
 .byte   W08
 .byte   Dn3 ,v056
 .byte   W08
 .byte   En2 ,v060
 .byte   W08
 .byte   Gn2 ,v056
 .byte   W08
 .byte   Dn3 ,v048
 .byte   W08
 .byte   En2
 .byte   W08
 .byte   Gn2
 .byte   W08
 .byte   Dn3 ,v036
 .byte   W08
 .byte   En2 ,v040
 .byte   W08
 .byte   Gn2 ,v036
 .byte   W08
@  #03 @018   ----------------------------------------
 .byte   Dn3 ,v028
 .byte   W08
 .byte   En2 ,v036
 .byte   W08
 .byte   Gn2
 .byte   W08
 .byte   Dn3
 .byte   W08
 .byte   En2 ,v044
 .byte   W08
 .byte   Gn2 ,v048
 .byte   W08
 .byte   Dn3 ,v044
 .byte   W08
 .byte   En2 ,v056
 .byte   W08
 .byte   Gn2 ,v060
 .byte   W08
 .byte   Dn3 ,v056
 .byte   W08
 .byte   En2 ,v068
 .byte   W08
 .byte   Gn2 ,v072
 .byte   W08
@  #03 @019   ----------------------------------------
 .byte   Dn3 ,v068
 .byte   W08
 .byte   En2 ,v072
 .byte   W08
 .byte   Gn2 ,v068
 .byte   W08
 .byte   Dn3 ,v056
 .byte   W08
 .byte   En2 ,v060
 .byte   W08
 .byte   Gn2 ,v056
 .byte   W08
 .byte   Dn3 ,v044
 .byte   W08
 .byte   En2 ,v048
 .byte   W08
 .byte   Gn2 ,v044
 .byte   W08
 .byte   Dn3 ,v036
 .byte   W08
 .byte   En2
 .byte   W08
 .byte   Gn2 ,v032
 .byte   W08
@  #03 @020   ----------------------------------------
 .byte   Dn3 ,v028
 .byte   W08
 .byte   En2 ,v032
 .byte   W08
 .byte   Gn2 ,v036
 .byte   W08
 .byte   Dn3
 .byte   W08
 .byte   En2 ,v044
 .byte   W08
 .byte   Gn2 ,v048
 .byte   W08
 .byte   Dn3 ,v044
 .byte   W08
 .byte   En2 ,v056
 .byte   W08
 .byte   Gn2 ,v060
 .byte   W08
 .byte   Dn3 ,v056
 .byte   W08
 .byte   En2 ,v068
 .byte   W08
 .byte   Gn2 ,v072
 .byte   W08
@  #03 @021   ----------------------------------------
 .byte   W96
@  #03 @022   ----------------------------------------
 .byte   GOTO
  .word Label_0168CBF2
 .byte   FINE

@**************** Track 4 (Midi-Chn.3) ****************@

PhoenixWrightTrialsandTribulationsSceneryatDuskyBridge_004:
@  #04 @000   ----------------------------------------
 .byte   KEYSH , PhoenixWrightTrialsandTribulationsSceneryatDuskyBridge_key+0
Label_0168CDB2:
 .byte   VOICE , 1
 .byte   MODT 0
 .byte   LFOS 44
 .byte   VOL , 20*PhoenixWrightTrialsandTribulationsSceneryatDuskyBridge_mvl/mxv
 .byte   PAN , c_v-10
 .byte   MOD 0
 .byte   W16
 .byte   N15 ,Ds3 ,v100
 .byte   W16
 .byte   N15
 .byte   W32
 .byte   N15
 .byte   W16
 .byte   N15
 .byte   W16
@  #04 @001   ----------------------------------------
Label_0168CDC9:
 .byte   N09 ,Dn3 ,v100
 .byte   W16
 .byte   N15
 .byte   W16
 .byte   N15
 .byte   W32
 .byte   N15
 .byte   W16
 .byte   N15
 .byte   W16
 .byte   PEND 
@  #04 @002   ----------------------------------------
Label_0168CDD6:
 .byte   W16
 .byte   N15 ,Gs2 ,v124
 .byte   W16
 .byte   Cn3
 .byte   W32
 .byte   Gs2
 .byte   W16
 .byte   Cn3
 .byte   W16
 .byte   PEND 
@  #04 @003   ----------------------------------------
Label_0168CDE2:
 .byte   W16
 .byte   N15 ,Gn2 ,v124
 .byte   W16
 .byte   Gn3 ,v100
 .byte   W32
 .byte   Dn3
 .byte   W16
 .byte   N15
 .byte   W16
 .byte   PEND 
@  #04 @004   ----------------------------------------
 .byte   W16
 .byte   Fn2 ,v124
 .byte   W16
 .byte   Ds3 ,v100
 .byte   W32
 .byte   Gn2 ,v124
 .byte   W16
 .byte   Fn3 ,v100
 .byte   W16
@  #04 @005   ----------------------------------------
 .byte   W16
 .byte   Fn2 ,v124
 .byte   W16
 .byte   Fn3 ,v100
 .byte   W16
 .byte   N23 ,Bn2 ,v124
 .byte   W24
 .byte   N23
 .byte   W24
@  #04 @006   ----------------------------------------
 .byte   W16
 .byte   N15 ,Ds3 ,v100
 .byte   W16
 .byte   N15
 .byte   W32
 .byte   N15
 .byte   W16
 .byte   N15
 .byte   W16
@  #04 @007   ----------------------------------------
 .byte   PATT
  .word Label_0168CDC9
@  #04 @008   ----------------------------------------
 .byte   PATT
  .word Label_0168CDD6
@  #04 @009   ----------------------------------------
 .byte   PATT
  .word Label_0168CDE2
@  #04 @010   ----------------------------------------
 .byte   W16
 .byte   N30 ,Fs3 ,v100
 .byte   W48
 .byte   Fn3
 .byte   W32
@  #04 @011   ----------------------------------------
 .byte   W16
 .byte   Ds3
 .byte   W32
 .byte   N42 ,An3
 .byte   W48
@  #04 @012   ----------------------------------------
Label_0168CE30:
 .byte   W08
 .byte   N36 ,Fn3 ,v100
 .byte   W40
 .byte   N42 ,Cn4
 .byte   W48
 .byte   PEND 
@  #04 @013   ----------------------------------------
Label_0168CE39:
 .byte   W08
 .byte   N36 ,Fn3 ,v100
 .byte   W40
 .byte   N23 ,Gs3
 .byte   W24
 .byte   Ds3
 .byte   W24
 .byte   PEND 
@  #04 @014   ----------------------------------------
 .byte   PATT
  .word Label_0168CE30
@  #04 @015   ----------------------------------------
 .byte   PATT
  .word Label_0168CE39
@  #04 @016   ----------------------------------------
 .byte   W96
@  #04 @017   ----------------------------------------
 .byte   W96
@  #04 @018   ----------------------------------------
 .byte   W96
@  #04 @019   ----------------------------------------
 .byte   W96
@  #04 @020   ----------------------------------------
 .byte   W96
@  #04 @021   ----------------------------------------
 .byte   N44 ,Gs3 ,v100
 .byte   W48
 .byte   Gn3
 .byte   W48
@  #04 @022   ----------------------------------------
 .byte   GOTO
  .word Label_0168CDB2
 .byte   FINE

@**************** Track 5 (Midi-Chn.4) ****************@

PhoenixWrightTrialsandTribulationsSceneryatDuskyBridge_005:
@  #05 @000   ----------------------------------------
 .byte   KEYSH , PhoenixWrightTrialsandTribulationsSceneryatDuskyBridge_key+0
Label_0168CE62:
 .byte   VOICE , 1
 .byte   MODT 0
 .byte   LFOS 44
 .byte   VOL , 22*PhoenixWrightTrialsandTribulationsSceneryatDuskyBridge_mvl/mxv
 .byte   PAN , c_v+10
 .byte   MOD 0
 .byte   W08
 .byte   N15 ,Cn3 ,v124
 .byte   W16
 .byte   Gn3 ,v100
 .byte   W16
 .byte   N07 ,Cn3 ,v124
 .byte   W16
 .byte   N15
 .byte   W16
 .byte   Gn3 ,v100
 .byte   W16
 .byte   N07 ,Cn3 ,v124
 .byte   W08
@  #05 @001   ----------------------------------------
Label_0168CE83:
 .byte   W08
 .byte   N15 ,As2 ,v124
 .byte   W16
 .byte   Gn3 ,v100
 .byte   W16
 .byte   N07 ,As2 ,v124
 .byte   W16
 .byte   N15
 .byte   W16
 .byte   Gn3 ,v100
 .byte   W16
 .byte   N07 ,As2 ,v124
 .byte   W08
 .byte   PEND 
@  #05 @002   ----------------------------------------
Label_0168CE99:
 .byte   W08
 .byte   N15 ,Ds2 ,v124
 .byte   W16
 .byte   Ds3 ,v100
 .byte   W16
 .byte   N07 ,Gs2 ,v124
 .byte   W16
 .byte   N15 ,Ds2
 .byte   W16
 .byte   Ds3 ,v100
 .byte   W16
 .byte   N07 ,Gs2 ,v124
 .byte   W08
 .byte   PEND 
@  #05 @003   ----------------------------------------
Label_0168CEB0:
 .byte   W08
 .byte   N15 ,Dn2 ,v124
 .byte   W16
 .byte   As3 ,v100
 .byte   W16
 .byte   N07 ,Dn3
 .byte   W16
 .byte   N15 ,As2 ,v124
 .byte   W16
 .byte   Fn3 ,v100
 .byte   W16
 .byte   N07 ,As2 ,v124
 .byte   W08
 .byte   PEND 
@  #05 @004   ----------------------------------------
 .byte   W08
 .byte   N15 ,Cn2 ,v127
 .byte   W16
 .byte   Gs3 ,v100
 .byte   W16
 .byte   N07 ,Cn3 ,v124
 .byte   W16
 .byte   N15 ,Dn2
 .byte   W16
 .byte   As3 ,v100
 .byte   W16
 .byte   N07 ,Dn3
 .byte   W08
@  #05 @005   ----------------------------------------
 .byte   W08
 .byte   N15 ,Cn2 ,v127
 .byte   W16
 .byte   Gs3 ,v100
 .byte   W16
 .byte   N07 ,Cn3 ,v124
 .byte   W08
 .byte   N23 ,Fn2
 .byte   W24
 .byte   N23
 .byte   W24
@  #05 @006   ----------------------------------------
 .byte   W08
 .byte   N15 ,Cn3
 .byte   W16
 .byte   Gn3 ,v100
 .byte   W16
 .byte   N07 ,Cn3 ,v124
 .byte   W16
 .byte   N15
 .byte   W16
 .byte   Gn3 ,v100
 .byte   W16
 .byte   N07 ,Cn3 ,v124
 .byte   W08
@  #05 @007   ----------------------------------------
 .byte   PATT
  .word Label_0168CE83
@  #05 @008   ----------------------------------------
 .byte   PATT
  .word Label_0168CE99
@  #05 @009   ----------------------------------------
 .byte   PATT
  .word Label_0168CEB0
@  #05 @010   ----------------------------------------
 .byte   W08
 .byte   N15 ,Cs3 ,v100
 .byte   W16
 .byte   N23 ,As3
 .byte   W32
 .byte   N15 ,Cn3 ,v124
 .byte   W16
 .byte   N23 ,Gs3 ,v100
 .byte   W24
@  #05 @011   ----------------------------------------
 .byte   W08
 .byte   N15 ,As2 ,v124
 .byte   W16
 .byte   N23 ,Fs3 ,v100
 .byte   W24
 .byte   N42 ,Cs3
 .byte   W48
@  #05 @012   ----------------------------------------
Label_0168CF2C:
 .byte   W08
 .byte   N36 ,Cs3 ,v100
 .byte   W40
 .byte   N42 ,Ds3
 .byte   W48
 .byte   PEND 
@  #05 @013   ----------------------------------------
Label_0168CF35:
 .byte   W08
 .byte   N36 ,Cs3 ,v100
 .byte   W40
 .byte   N23 ,Ds3
 .byte   W24
 .byte   Cn3 ,v124
 .byte   W24
 .byte   PEND 
@  #05 @014   ----------------------------------------
 .byte   PATT
  .word Label_0168CF2C
@  #05 @015   ----------------------------------------
 .byte   PATT
  .word Label_0168CF35
@  #05 @016   ----------------------------------------
 .byte   TIE ,Bn2 ,v124
 .byte   W96
@  #05 @017   ----------------------------------------
 .byte   W92
 .byte   W01
 .byte   EOT
 .byte   W03
@  #05 @018   ----------------------------------------
 .byte   W96
@  #05 @019   ----------------------------------------
 .byte   W96
@  #05 @020   ----------------------------------------
 .byte   W96
@  #05 @021   ----------------------------------------
 .byte   N92
 .byte   W96
@  #05 @022   ----------------------------------------
 .byte   GOTO
  .word Label_0168CE62
 .byte   FINE

@**************** Track 6 (Midi-Chn.5) ****************@

PhoenixWrightTrialsandTribulationsSceneryatDuskyBridge_006:
@  #06 @000   ----------------------------------------
 .byte   KEYSH , PhoenixWrightTrialsandTribulationsSceneryatDuskyBridge_key+0
Label_0168CF62:
 .byte   VOICE , 1
 .byte   MODT 0
 .byte   LFOS 44
 .byte   VOL , 16*PhoenixWrightTrialsandTribulationsSceneryatDuskyBridge_mvl/mxv
 .byte   PAN , c_v+10
 .byte   MOD 0
 .byte   N44 ,Cn2 ,v127
 .byte   W48
 .byte   N44
 .byte   W48
@  #06 @001   ----------------------------------------
Label_0168CF74:
 .byte   N44 ,As1 ,v127
 .byte   W48
 .byte   N44
 .byte   W48
 .byte   PEND 
@  #06 @002   ----------------------------------------
Label_0168CF7B:
 .byte   N44 ,Gs1 ,v127
 .byte   W48
 .byte   N44
 .byte   W48
 .byte   PEND 
@  #06 @003   ----------------------------------------
Label_0168CF82:
 .byte   N44 ,Gn1 ,v127
 .byte   W48
 .byte   Gn2 ,v124
 .byte   W48
 .byte   PEND 
@  #06 @004   ----------------------------------------
 .byte   N36 ,Fn1 ,v127
 .byte   W48
 .byte   N30 ,Gn1
 .byte   W48
@  #06 @005   ----------------------------------------
 .byte   N44 ,Fn1
 .byte   W48
 .byte   N23 ,Gn1
 .byte   W24
 .byte   N23
 .byte   W24
@  #06 @006   ----------------------------------------
 .byte   N44 ,Cn2
 .byte   W48
 .byte   N44
 .byte   W48
@  #06 @007   ----------------------------------------
 .byte   PATT
  .word Label_0168CF74
@  #06 @008   ----------------------------------------
 .byte   PATT
  .word Label_0168CF7B
@  #06 @009   ----------------------------------------
 .byte   PATT
  .word Label_0168CF82
@  #06 @010   ----------------------------------------
Label_0168CFAD:
 .byte   N44 ,Fs2 ,v124
 .byte   W48
 .byte   Fn2
 .byte   W48
 .byte   PEND 
@  #06 @011   ----------------------------------------
 .byte   Ds2
 .byte   W48
 .byte   N44
 .byte   W48
@  #06 @012   ----------------------------------------
Label_0168CFB8:
 .byte   N44 ,As2 ,v124
 .byte   W48
 .byte   Gs2
 .byte   W48
 .byte   PEND 
@  #06 @013   ----------------------------------------
 .byte   PATT
  .word Label_0168CFAD
@  #06 @014   ----------------------------------------
 .byte   PATT
  .word Label_0168CFB8
@  #06 @015   ----------------------------------------
 .byte   PATT
  .word Label_0168CFAD
@  #06 @016   ----------------------------------------
 .byte   TIE ,En2 ,v124
 .byte   W96
@  #06 @017   ----------------------------------------
 .byte   W92
 .byte   W01
 .byte   EOT
 .byte   W03
@  #06 @018   ----------------------------------------
 .byte   W96
@  #06 @019   ----------------------------------------
 .byte   W96
@  #06 @020   ----------------------------------------
 .byte   W96
@  #06 @021   ----------------------------------------
 .byte   N68 ,Gn1 ,v127
 .byte   W72
 .byte   N23 ,Gn2 ,v124
 .byte   W24
@  #06 @022   ----------------------------------------
 .byte   GOTO
  .word Label_0168CF62
 .byte   FINE

@**************** Track 7 (Midi-Chn.6) ****************@

PhoenixWrightTrialsandTribulationsSceneryatDuskyBridge_007:
@  #07 @000   ----------------------------------------
 .byte   KEYSH , PhoenixWrightTrialsandTribulationsSceneryatDuskyBridge_key+0
Label_0168CFEA:
 .byte   VOICE , 101
 .byte   MODT 0
 .byte   LFOS 44
 .byte   VOL , 28*PhoenixWrightTrialsandTribulationsSceneryatDuskyBridge_mvl/mxv
 .byte   PAN , c_v+0
 .byte   MOD 0
 .byte   W96
@  #07 @001   ----------------------------------------
 .byte   W96
@  #07 @002   ----------------------------------------
 .byte   W96
@  #07 @003   ----------------------------------------
 .byte   W96
@  #07 @004   ----------------------------------------
 .byte   W96
@  #07 @005   ----------------------------------------
 .byte   W96
@  #07 @006   ----------------------------------------
 .byte   W96
@  #07 @007   ----------------------------------------
 .byte   W96
@  #07 @008   ----------------------------------------
 .byte   W96
@  #07 @009   ----------------------------------------
 .byte   W96
@  #07 @010   ----------------------------------------
 .byte   W96
@  #07 @011   ----------------------------------------
 .byte   W96
@  #07 @012   ----------------------------------------
 .byte   W96
@  #07 @013   ----------------------------------------
 .byte   W96
@  #07 @014   ----------------------------------------
 .byte   W96
@  #07 @015   ----------------------------------------
 .byte   W96
@  #07 @016   ----------------------------------------
 .byte   W96
@  #07 @017   ----------------------------------------
 .byte   W96
@  #07 @018   ----------------------------------------
 .byte   N23 ,En2 ,v060
 .byte   W24
 .byte   Gn2
 .byte   W24
 .byte   Fs2
 .byte   W24
 .byte   An2
 .byte   W24
@  #07 @019   ----------------------------------------
 .byte   TIE ,As2
 .byte   W96
@  #07 @020   ----------------------------------------
 .byte   W92
 .byte   W03
 .byte   EOT
 .byte   W01
@  #07 @021   ----------------------------------------
 .byte   W96
@  #07 @022   ----------------------------------------
 .byte   GOTO
  .word Label_0168CFEA
 .byte   FINE

@**************** Track 8 (Midi-Chn.7) ****************@

PhoenixWrightTrialsandTribulationsSceneryatDuskyBridge_008:
@  #08 @000   ----------------------------------------
 .byte   KEYSH , PhoenixWrightTrialsandTribulationsSceneryatDuskyBridge_key+0
Label_0168D022:
 .byte   VOICE , 101
 .byte   MODT 0
 .byte   LFOS 44
 .byte   VOL , 42*PhoenixWrightTrialsandTribulationsSceneryatDuskyBridge_mvl/mxv
 .byte   PAN , c_v+0
 .byte   MOD 0
 .byte   W96
@  #08 @001   ----------------------------------------
 .byte   W96
@  #08 @002   ----------------------------------------
 .byte   W96
@  #08 @003   ----------------------------------------
 .byte   W96
@  #08 @004   ----------------------------------------
 .byte   W96
@  #08 @005   ----------------------------------------
 .byte   W96
@  #08 @006   ----------------------------------------
 .byte   W96
@  #08 @007   ----------------------------------------
 .byte   W96
@  #08 @008   ----------------------------------------
 .byte   W96
@  #08 @009   ----------------------------------------
 .byte   W96
@  #08 @010   ----------------------------------------
 .byte   W96
@  #08 @011   ----------------------------------------
 .byte   W96
@  #08 @012   ----------------------------------------
 .byte   W96
@  #08 @013   ----------------------------------------
 .byte   W96
@  #08 @014   ----------------------------------------
 .byte   W96
@  #08 @015   ----------------------------------------
 .byte   W96
@  #08 @016   ----------------------------------------
 .byte   W96
@  #08 @017   ----------------------------------------
 .byte   W96
@  #08 @018   ----------------------------------------
 .byte   W06
 .byte   N23 ,En2 ,v020
 .byte   W24
 .byte   Gn2
 .byte   W24
 .byte   Fs2
 .byte   W24
 .byte   An2
 .byte   W18
@  #08 @019   ----------------------------------------
 .byte   W06
 .byte   TIE ,As2
 .byte   W90
@  #08 @020   ----------------------------------------
 .byte   W96
@  #08 @021   ----------------------------------------
 .byte   W05
 .byte   EOT
 .byte   W90
 .byte   W01
@  #08 @022   ----------------------------------------
 .byte   GOTO
  .word Label_0168D022
 .byte   FINE

@**************** Track 9 (Midi-Chn.8) ****************@

PhoenixWrightTrialsandTribulationsSceneryatDuskyBridge_009:
@  #09 @000   ----------------------------------------
 .byte   KEYSH , PhoenixWrightTrialsandTribulationsSceneryatDuskyBridge_key+0
Label_0168D05E:
 .byte   VOICE , 88
 .byte   MODT 0
 .byte   LFOS 44
 .byte   VOL , 22*PhoenixWrightTrialsandTribulationsSceneryatDuskyBridge_mvl/mxv
 .byte   PAN , c_v+0
 .byte   MOD 0
 .byte   W60
 .byte   N03 ,Gn3 ,v104
 .byte   W08
 .byte   Fn3
 .byte   W08
 .byte   Ds3 ,v127
 .byte   W08
 .byte   Dn3
 .byte   W08
 .byte   Cn3
 .byte   W04
@  #09 @001   ----------------------------------------
 .byte   W04
 .byte   Gn2 ,v052
 .byte   W08
 .byte   Gn2 ,v044
 .byte   W08
 .byte   Gn2 ,v036
 .byte   W08
 .byte   Gn2 ,v032
 .byte   W08
 .byte   Gn2 ,v028
 .byte   W08
 .byte   Gn2 ,v020
 .byte   W16
 .byte   Gn3 ,v104
 .byte   W08
 .byte   Fn3
 .byte   W08
 .byte   Ds3 ,v127
 .byte   W08
 .byte   Dn3
 .byte   W08
 .byte   As2
 .byte   W04
@  #09 @002   ----------------------------------------
 .byte   W04
 .byte   Gn2 ,v048
 .byte   W08
 .byte   Gn2 ,v040
 .byte   W08
 .byte   Gn2 ,v036
 .byte   W08
 .byte   Gn2 ,v032
 .byte   W08
 .byte   Gn2 ,v024
 .byte   W08
 .byte   Gn2 ,v020
 .byte   W16
 .byte   Ds3 ,v127
 .byte   W08
 .byte   Dn3
 .byte   W08
 .byte   Cn3
 .byte   W08
 .byte   As2
 .byte   W08
 .byte   Gn2
 .byte   W04
@  #09 @003   ----------------------------------------
 .byte   W04
 .byte   Dn2 ,v056
 .byte   W08
 .byte   Dn2 ,v052
 .byte   W08
 .byte   Dn2 ,v044
 .byte   W08
 .byte   Dn2 ,v040
 .byte   W08
 .byte   Dn2 ,v032
 .byte   W08
 .byte   Dn2 ,v028
 .byte   W08
 .byte   Dn2 ,v024
 .byte   W08
 .byte   Dn3 ,v127
 .byte   W08
 .byte   As2
 .byte   W08
 .byte   Gn2
 .byte   W08
 .byte   Dn2
 .byte   W08
 .byte   As1
 .byte   W04
@  #09 @004   ----------------------------------------
 .byte   W04
 .byte   Cn2
 .byte   W08
 .byte   Cn2 ,v036
 .byte   W08
 .byte   Cn2 ,v032
 .byte   W08
 .byte   Cn2 ,v028
 .byte   W08
 .byte   Cn2 ,v020
 .byte   W08
 .byte   Cn2 ,v016
 .byte   W08
 .byte   Dn2
 .byte   W08
 .byte   Dn2 ,v127
 .byte   W08
 .byte   Dn2 ,v032
 .byte   W08
 .byte   Dn2 ,v028
 .byte   W08
 .byte   Dn2 ,v020
 .byte   W08
 .byte   Dn2 ,v016
 .byte   W04
@  #09 @005   ----------------------------------------
 .byte   W04
 .byte   Ds2 ,v127
 .byte   W08
 .byte   Ds2 ,v036
 .byte   W08
 .byte   Ds2 ,v032
 .byte   W08
 .byte   Ds2 ,v028
 .byte   W08
 .byte   Ds2 ,v024
 .byte   W08
 .byte   Ds2 ,v020
 .byte   W52
@  #09 @006   ----------------------------------------
 .byte   W60
 .byte   Gn3 ,v104
 .byte   W08
 .byte   Fn3
 .byte   W08
 .byte   Ds3 ,v127
 .byte   W08
 .byte   Dn3
 .byte   W08
 .byte   Cn3
 .byte   W04
@  #09 @007   ----------------------------------------
 .byte   W04
 .byte   Gn2 ,v056
 .byte   W08
 .byte   Gn2 ,v024
 .byte   W08
 .byte   Gn2 ,v020
 .byte   W08
 .byte   Gn2 ,v012
 .byte   W08
 .byte   Gn2 ,v008
 .byte   W08
 .byte   Gn2 ,v004
 .byte   W16
 .byte   Gn3 ,v104
 .byte   W08
 .byte   Fn3
 .byte   W08
 .byte   Ds3 ,v127
 .byte   W08
 .byte   Dn3
 .byte   W08
 .byte   As2
 .byte   W04
@  #09 @008   ----------------------------------------
 .byte   W04
 .byte   Gn2 ,v068
 .byte   W08
 .byte   Gn2 ,v032
 .byte   W08
 .byte   Gn2 ,v024
 .byte   W08
 .byte   Gn2 ,v016
 .byte   W08
 .byte   Gn2 ,v012
 .byte   W08
 .byte   Gn2 ,v004
 .byte   W16
 .byte   Cn2 ,v127
 .byte   W08
 .byte   Dn2
 .byte   W08
 .byte   Ds2
 .byte   W08
 .byte   Fn2
 .byte   W08
 .byte   Gn2
 .byte   W04
@  #09 @009   ----------------------------------------
 .byte   W04
 .byte   Dn2 ,v056
 .byte   W08
 .byte   Dn2 ,v028
 .byte   W08
 .byte   Dn2 ,v024
 .byte   W08
 .byte   Dn2 ,v016
 .byte   W08
 .byte   Dn2 ,v012
 .byte   W08
 .byte   Dn2 ,v008
 .byte   W08
 .byte   Dn2 ,v004
 .byte   W08
 .byte   Dn3 ,v127
 .byte   W08
 .byte   As2
 .byte   W08
 .byte   Gn2
 .byte   W08
 .byte   Dn2
 .byte   W08
 .byte   As1
 .byte   W04
@  #09 @010   ----------------------------------------
 .byte   W04
 .byte   N07 ,Cs3
 .byte   W16
 .byte   N11
 .byte   W32
 .byte   N07 ,Cn3
 .byte   W16
 .byte   N11
 .byte   W28
@  #09 @011   ----------------------------------------
 .byte   W04
 .byte   N07 ,As2
 .byte   W16
 .byte   N11
 .byte   W32
 .byte   N03 ,Cs3 ,v056
 .byte   W08
 .byte   Cs3 ,v028
 .byte   W08
 .byte   Cs3 ,v024
 .byte   W08
 .byte   Cs3 ,v016
 .byte   W08
 .byte   Cs3 ,v012
 .byte   W08
 .byte   Cs3 ,v008
 .byte   W04
@  #09 @012   ----------------------------------------
 .byte   W96
@  #09 @013   ----------------------------------------
 .byte   W96
@  #09 @014   ----------------------------------------
 .byte   W96
@  #09 @015   ----------------------------------------
 .byte   W96
@  #09 @016   ----------------------------------------
 .byte   W12
 .byte   En2 ,v116
 .byte   W08
 .byte   Gn2 ,v120
 .byte   W08
 .byte   Dn3 ,v116
 .byte   W08
 .byte   En2 ,v127
 .byte   W08
 .byte   Gn2
 .byte   W08
 .byte   Dn3
 .byte   W08
 .byte   En2
 .byte   W08
 .byte   Gn2
 .byte   W08
 .byte   Dn3
 .byte   W08
 .byte   En2
 .byte   W08
 .byte   Gn2
 .byte   W04
@  #09 @017   ----------------------------------------
 .byte   W04
 .byte   Dn3
 .byte   W08
 .byte   En2
 .byte   W08
 .byte   Gn2
 .byte   W08
 .byte   Dn3
 .byte   W08
 .byte   En2
 .byte   W08
 .byte   Gn2
 .byte   W08
 .byte   Dn3
 .byte   W08
 .byte   En2
 .byte   W08
 .byte   Gn2
 .byte   W08
 .byte   Dn3 ,v116
 .byte   W08
 .byte   En2 ,v120
 .byte   W08
 .byte   Gn2 ,v116
 .byte   W04
@  #09 @018   ----------------------------------------
 .byte   W04
 .byte   Dn3 ,v104
 .byte   W08
 .byte   En2 ,v112
 .byte   W08
 .byte   Gn2 ,v116
 .byte   W08
 .byte   Dn3
 .byte   W08
 .byte   En2 ,v127
 .byte   W08
 .byte   Gn2
 .byte   W08
 .byte   Dn3
 .byte   W08
 .byte   En2
 .byte   W08
 .byte   Gn2
 .byte   W08
 .byte   Dn3
 .byte   W08
 .byte   En2
 .byte   W08
 .byte   Gn2
 .byte   W04
@  #09 @019   ----------------------------------------
 .byte   W04
 .byte   Dn3
 .byte   W08
 .byte   En2
 .byte   W08
 .byte   Gn2
 .byte   W08
 .byte   Dn3
 .byte   W08
 .byte   En2
 .byte   W08
 .byte   Gn2
 .byte   W08
 .byte   Dn3
 .byte   W08
 .byte   En2
 .byte   W08
 .byte   Gn2
 .byte   W08
 .byte   Dn3 ,v112
 .byte   W08
 .byte   En2 ,v116
 .byte   W08
 .byte   Gn2 ,v108
 .byte   W04
@  #09 @020   ----------------------------------------
 .byte   W04
 .byte   Dn3 ,v100
 .byte   W08
 .byte   En2 ,v108
 .byte   W08
 .byte   Gn2 ,v112
 .byte   W08
 .byte   Dn3
 .byte   W08
 .byte   En2 ,v124
 .byte   W08
 .byte   Gn2 ,v127
 .byte   W08
 .byte   Dn3
 .byte   W08
 .byte   En2
 .byte   W08
 .byte   Gn2
 .byte   W08
 .byte   Dn3
 .byte   W08
 .byte   En2
 .byte   W08
 .byte   Gn2
 .byte   W04
@  #09 @021   ----------------------------------------
 .byte   W96
@  #09 @022   ----------------------------------------
 .byte   GOTO
  .word Label_0168D05E
 .byte   FINE

@**************** Track 10 (Midi-Chn.9) ****************@

PhoenixWrightTrialsandTribulationsSceneryatDuskyBridge_010:
@  #10 @000   ----------------------------------------
 .byte   KEYSH , PhoenixWrightTrialsandTribulationsSceneryatDuskyBridge_key+0
Label_0168D236:
 .byte   VOICE , 48
 .byte   MODT 0
 .byte   LFOS 44
 .byte   VOL , 16*PhoenixWrightTrialsandTribulationsSceneryatDuskyBridge_mvl/mxv
 .byte   PAN , c_v+0
 .byte   MOD 0
 .byte   BEND , c_v+5
 .byte   N15 ,Gn3 ,v088
 .byte   W16
 .byte   N07 ,Gs3
 .byte   W08
 .byte   N56 ,Gn3
 .byte   W72
@  #10 @001   ----------------------------------------
 .byte   N15
 .byte   W16
 .byte   N07 ,Gs3
 .byte   W08
 .byte   N56 ,Gn3
 .byte   W72
@  #10 @002   ----------------------------------------
 .byte   N15
 .byte   W16
 .byte   N07 ,Cn4 ,v072
 .byte   W08
 .byte   N23 ,Gn3 ,v088
 .byte   W32
 .byte   N07
 .byte   W08
 .byte   N07
 .byte   W08
 .byte   N07
 .byte   W08
 .byte   Fn3
 .byte   W08
 .byte   Ds3
 .byte   W08
@  #10 @003   ----------------------------------------
 .byte   N56 ,Fn3
 .byte   W72
 .byte   N07 ,As2
 .byte   W08
 .byte   Cn3
 .byte   W08
 .byte   Dn3
 .byte   W08
@  #10 @004   ----------------------------------------
 .byte   N23 ,Ds3
 .byte   W24
 .byte   N07
 .byte   W08
 .byte   Fn3
 .byte   W08
 .byte   Gn3
 .byte   W08
 .byte   N23 ,Dn3
 .byte   W24
 .byte   As2
 .byte   W24
@  #10 @005   ----------------------------------------
 .byte   W08
 .byte   N07 ,As3
 .byte   W08
 .byte   Gs3
 .byte   W08
 .byte   Gn3
 .byte   W08
 .byte   Fn3
 .byte   W08
 .byte   Ds3
 .byte   W08
 .byte   N23
 .byte   W24
 .byte   Dn3
 .byte   W24
@  #10 @006   ----------------------------------------
 .byte   N07 ,Gn4 ,v072
 .byte   W08
 .byte   Gn4 ,v052
 .byte   W08
 .byte   Gs4 ,v072
 .byte   W08
 .byte   Gn4
 .byte   W08
 .byte   N15 ,Gn4 ,v052
 .byte   W24
 .byte   N07 ,Gn3 ,v088
 .byte   W08
 .byte   Cn4 ,v072
 .byte   W08
 .byte   Dn4
 .byte   W08
 .byte   Ds4
 .byte   W08
 .byte   Fn4
 .byte   W08
@  #10 @007   ----------------------------------------
 .byte   Gn4
 .byte   W08
 .byte   Gn4 ,v052
 .byte   W08
 .byte   Gs4 ,v072
 .byte   W08
 .byte   Gn4
 .byte   W08
 .byte   N36 ,Gn4 ,v052
 .byte   W64
@  #10 @008   ----------------------------------------
 .byte   N07 ,Gn4 ,v072
 .byte   W08
 .byte   Gn4 ,v052
 .byte   W08
 .byte   Cn5 ,v072
 .byte   W08
 .byte   Gn4
 .byte   W08
 .byte   N15 ,Gn4 ,v052
 .byte   W24
 .byte   N07 ,As4 ,v072
 .byte   W08
 .byte   Gs4
 .byte   W08
 .byte   Gn4
 .byte   W08
 .byte   Fn4
 .byte   W08
 .byte   Ds4
 .byte   W08
@  #10 @009   ----------------------------------------
 .byte   Fn4
 .byte   W08
 .byte   N15 ,Fn4 ,v052
 .byte   W16
 .byte   N07 ,As2 ,v088
 .byte   W08
 .byte   Dn3
 .byte   W08
 .byte   Fn3
 .byte   W08
 .byte   Gn3
 .byte   W08
 .byte   As3
 .byte   W08
 .byte   Cn4 ,v072
 .byte   W08
 .byte   Dn4
 .byte   W08
 .byte   Ds4
 .byte   W08
 .byte   Fn4
 .byte   W08
@  #10 @010   ----------------------------------------
 .byte   N07
 .byte   W08
 .byte   Fn4 ,v052
 .byte   W08
 .byte   Fn4 ,v072
 .byte   W08
 .byte   Fn4 ,v052
 .byte   W08
 .byte   Ds4 ,v072
 .byte   W08
 .byte   Fn4
 .byte   W08
 .byte   Gs4
 .byte   W08
 .byte   Gs4 ,v052
 .byte   W08
 .byte   Ds4 ,v072
 .byte   W08
 .byte   N15 ,Ds4 ,v052
 .byte   W16
 .byte   N07 ,Cn4 ,v072
 .byte   W08
@  #10 @011   ----------------------------------------
 .byte   Cs4
 .byte   W08
 .byte   Cn4
 .byte   W08
 .byte   Cs4
 .byte   W08
 .byte   Cs4 ,v052
 .byte   W08
 .byte   Ds4 ,v072
 .byte   W08
 .byte   Fn4
 .byte   W08
 .byte   N44 ,Fs4
 .byte   W48
@  #10 @012   ----------------------------------------
Label_0168D325:
 .byte   W16
 .byte   N07 ,Cn4 ,v072
 .byte   W08
 .byte   Cs4
 .byte   W08
 .byte   Ds4
 .byte   W08
 .byte   Fn4
 .byte   W08
 .byte   N44 ,Ds4
 .byte   W48
 .byte   PEND 
@  #10 @013   ----------------------------------------
 .byte   W16
 .byte   N07 ,As3 ,v088
 .byte   W08
 .byte   Cn4 ,v072
 .byte   W08
 .byte   Cs4
 .byte   W08
 .byte   Fn4
 .byte   W08
 .byte   N23 ,Ds4
 .byte   W24
 .byte   Cn4
 .byte   W24
@  #10 @014   ----------------------------------------
 .byte   PATT
  .word Label_0168D325
@  #10 @015   ----------------------------------------
 .byte   W16
 .byte   N07 ,As3 ,v088
 .byte   W08
 .byte   Cn4 ,v072
 .byte   W08
 .byte   Cs4
 .byte   W08
 .byte   Fn4
 .byte   W08
 .byte   Ds4
 .byte   W08
 .byte   N15 ,Ds4 ,v052
 .byte   W16
 .byte   N07 ,Cn4 ,v072
 .byte   W08
 .byte   N15 ,Cn4 ,v052
 .byte   W16
@  #10 @016   ----------------------------------------
 .byte   N07 ,Dn4 ,v072
 .byte   W08
 .byte   N84 ,Dn4 ,v052
 .byte   W88
@  #10 @017   ----------------------------------------
 .byte   W96
@  #10 @018   ----------------------------------------
 .byte   W96
@  #10 @019   ----------------------------------------
Label_0168D36E:
 .byte   W40
 .byte   N03 ,As4 ,v052
 .byte   W08
 .byte   As3
 .byte   W48
 .byte   PEND 
@  #10 @020   ----------------------------------------
 .byte   PATT
  .word Label_0168D36E
@  #10 @021   ----------------------------------------
 .byte   W24
 .byte   N01 ,Dn4 ,v072
 .byte   W02
 .byte   N02 ,Ds4
 .byte   W03
 .byte   N06 ,Dn4
 .byte   W07
 .byte   N52 ,Dn4 ,v052
 .byte   W60
@  #10 @022   ----------------------------------------
 .byte   GOTO
  .word Label_0168D236
 .byte   FINE

@******************************************************@
	.align	2

PhoenixWrightTrialsandTribulationsSceneryatDuskyBridge:
	.byte	10	@ NumTrks
	.byte	0	@ NumBlks
	.byte	PhoenixWrightTrialsandTribulationsSceneryatDuskyBridge_pri	@ Priority
	.byte	PhoenixWrightTrialsandTribulationsSceneryatDuskyBridge_rev	@ Reverb.
    
	.word	PhoenixWrightTrialsandTribulationsSceneryatDuskyBridge_grp
    
	.word	PhoenixWrightTrialsandTribulationsSceneryatDuskyBridge_001
	.word	PhoenixWrightTrialsandTribulationsSceneryatDuskyBridge_002
	.word	PhoenixWrightTrialsandTribulationsSceneryatDuskyBridge_003
	.word	PhoenixWrightTrialsandTribulationsSceneryatDuskyBridge_004
	.word	PhoenixWrightTrialsandTribulationsSceneryatDuskyBridge_005
	.word	PhoenixWrightTrialsandTribulationsSceneryatDuskyBridge_006
	.word	PhoenixWrightTrialsandTribulationsSceneryatDuskyBridge_007
	.word	PhoenixWrightTrialsandTribulationsSceneryatDuskyBridge_008
	.word	PhoenixWrightTrialsandTribulationsSceneryatDuskyBridge_009
	.word	PhoenixWrightTrialsandTribulationsSceneryatDuskyBridge_010

	.end
