//Event file generated from Sappy .s format.
	#include "MPlayDef.event"

	#define	SonicAdventure2AGhostsPumpkinSoupRandomWizard_grp  voicegroup000
	#define	SonicAdventure2AGhostsPumpkinSoupRandomWizard_pri  0
	#define	SonicAdventure2AGhostsPumpkinSoupRandomWizard_rev  0
	#define	SonicAdventure2AGhostsPumpkinSoupRandomWizard_mvl  127
	#define	SonicAdventure2AGhostsPumpkinSoupRandomWizard_key  0
	#define	SonicAdventure2AGhostsPumpkinSoupRandomWizard_tbs  1
	#define	SonicAdventure2AGhostsPumpkinSoupRandomWizard_exg  0
	#define	SonicAdventure2AGhostsPumpkinSoupRandomWizard_cmp  1

	// .rodata
	//	SonicAdventure2AGhostsPumpkinSoupRandomWizard
	ALIGN 4


//**************** Track 1 (Midi-Chn.0) ****************//

SonicAdventure2AGhostsPumpkinSoupRandomWizard_001:
// 000   ----------------------------------------
 BYTE   KEYSH   SonicAdventure2AGhostsPumpkinSoupRandomWizard_key+0
Label_0_54771F:
 BYTE   TEMPO   90*SonicAdventure2AGhostsPumpkinSoupRandomWizard_tbs/2
 BYTE   VOICE   35
 BYTE   VOL   40*SonicAdventure2AGhostsPumpkinSoupRandomWizard_mvl/mxv
 BYTE   PAN   c_v+0
 BYTE   VOL   40*SonicAdventure2AGhostsPumpkinSoupRandomWizard_mvl/mxv
 BYTE   BEND   c_v+0
 BYTE   N12  An0  v127
 BYTE   W12
 BYTE   Dn1
 BYTE   W24
 BYTE   An0
 BYTE   W12
 BYTE   Cn1
 BYTE   W12
 BYTE   Dn1
 BYTE   W12
 BYTE   Gn0
 BYTE   W12
 BYTE   Cn1
 BYTE   W12
// 001   ----------------------------------------
Label_0_54773B:
 BYTE   N12  An0  v127
 BYTE   W12
 BYTE   Dn1
 BYTE   W24
 BYTE   An0
 BYTE   W12
 BYTE   Cn1
 BYTE   W12
 BYTE   Dn1
 BYTE   W12
 BYTE   Gn0
 BYTE   W12
 BYTE   Cn1
 BYTE   W12
 BYTE   PEND 
 BYTE   PATT
  POIN2 Label_0_54773B
 BYTE   PATT
  POIN2 Label_0_54773B
 BYTE   PATT
  POIN2 Label_0_54773B
 BYTE   PATT
  POIN2 Label_0_54773B
 BYTE   PATT
  POIN2 Label_0_54773B
 BYTE   PATT
  POIN2 Label_0_54773B
 BYTE   PATT
  POIN2 Label_0_54773B
 BYTE   PATT
  POIN2 Label_0_54773B
 BYTE   PATT
  POIN2 Label_0_54773B
 BYTE   PATT
  POIN2 Label_0_54773B
 BYTE   PATT
  POIN2 Label_0_54773B
 BYTE   PATT
  POIN2 Label_0_54773B
 BYTE   PATT
  POIN2 Label_0_54773B
 BYTE   PATT
  POIN2 Label_0_54773B
 BYTE   PATT
  POIN2 Label_0_54773B
 BYTE   PATT
  POIN2 Label_0_54773B
 BYTE   PATT
  POIN2 Label_0_54773B
 BYTE   PATT
  POIN2 Label_0_54773B
 BYTE   PATT
  POIN2 Label_0_54773B
 BYTE   PATT
  POIN2 Label_0_54773B
// 002   ----------------------------------------
Label_0_5477B0:
 BYTE   N12  An0  v127
 BYTE   W12
 BYTE   Dn1
 BYTE   W84
 BYTE   PEND 
// 003   ----------------------------------------
 BYTE   W72
 BYTE   Gn0
 BYTE   W12
 BYTE   N12
 BYTE   W12
 BYTE   PATT
  POIN2 Label_0_54773B
 BYTE   PATT
  POIN2 Label_0_54773B
// 004   ----------------------------------------
 BYTE   W36
 BYTE   N12  An0  v127
 BYTE   W12
 BYTE   Cn1
 BYTE   W12
 BYTE   Dn1
 BYTE   W12
 BYTE   Gn0
 BYTE   W12
 BYTE   Cn1
 BYTE   W12
 BYTE   PATT
  POIN2 Label_0_54773B
 BYTE   PATT
  POIN2 Label_0_54773B
 BYTE   PATT
  POIN2 Label_0_54773B
 BYTE   PATT
  POIN2 Label_0_54773B
 BYTE   PATT
  POIN2 Label_0_54773B
 BYTE   PATT
  POIN2 Label_0_54773B
 BYTE   PATT
  POIN2 Label_0_54773B
 BYTE   PATT
  POIN2 Label_0_54773B
 BYTE   PATT
  POIN2 Label_0_5477B0
// 005   ----------------------------------------
 BYTE   GoTo
  POIN2 Label_0_54771F
 BYTE   FINE

//**************** Track 2 (Midi-Chn.1) ****************//

SonicAdventure2AGhostsPumpkinSoupRandomWizard_002:
// 000   ----------------------------------------
 BYTE   KEYSH   SonicAdventure2AGhostsPumpkinSoupRandomWizard_key+0
Label_1_5462B2:
 BYTE   VOICE   24
 BYTE   VOL   40*SonicAdventure2AGhostsPumpkinSoupRandomWizard_mvl/mxv
 BYTE   PAN   c_v+0
 BYTE   VOL   40*SonicAdventure2AGhostsPumpkinSoupRandomWizard_mvl/mxv
 BYTE   BEND   c_v+0
 BYTE   N24  En3  v127
 BYTE   W32
 BYTE   N04  En3  v092
 BYTE   W04
 BYTE   N08  An3  v127
 BYTE   W08
 BYTE   N04  Bn3
 BYTE   W04
 BYTE   N08  Cn4
 BYTE   W08
 BYTE   N04  Bn3
 BYTE   W04
 BYTE   N08  Cn4
 BYTE   W08
 BYTE   N04  Bn3
 BYTE   W12
 BYTE   N04
 BYTE   W04
 BYTE   N12  Gn3
 BYTE   W12
// 001   ----------------------------------------
Label_1_5462DC:
 BYTE   N24  En3  v127
 BYTE   W32
 BYTE   N04  En3  v092
 BYTE   W04
 BYTE   N08  An3  v127
 BYTE   W08
 BYTE   N04  Bn3
 BYTE   W04
 BYTE   N08  Cn4
 BYTE   W08
 BYTE   N04  Bn3
 BYTE   W04
 BYTE   N08  Cn4
 BYTE   W08
 BYTE   N04  Bn3
 BYTE   W12
 BYTE   N04
 BYTE   W04
 BYTE   N12  Gn3
 BYTE   W12
 BYTE   PEND 
 BYTE   PATT
  POIN2 Label_1_5462DC
// 002   ----------------------------------------
Label_1_546302:
 BYTE   N24  En3  v127
 BYTE   W48
 BYTE   N08  An3  v092
 BYTE   W08
 BYTE   N04  Bn3
 BYTE   W04
 BYTE   N08  Cn4
 BYTE   W08
 BYTE   N04  Bn3
 BYTE   W12
 BYTE   N04
 BYTE   W04
 BYTE   N12  Gn3
 BYTE   W12
 BYTE   PEND 
 BYTE   PATT
  POIN2 Label_1_5462DC
 BYTE   PATT
  POIN2 Label_1_5462DC
 BYTE   PATT
  POIN2 Label_1_5462DC
 BYTE   PATT
  POIN2 Label_1_5462DC
 BYTE   PATT
  POIN2 Label_1_5462DC
 BYTE   PATT
  POIN2 Label_1_5462DC
 BYTE   PATT
  POIN2 Label_1_5462DC
 BYTE   PATT
  POIN2 Label_1_546302
 BYTE   PATT
  POIN2 Label_1_5462DC
 BYTE   PATT
  POIN2 Label_1_5462DC
 BYTE   PATT
  POIN2 Label_1_5462DC
 BYTE   PATT
  POIN2 Label_1_5462DC
 BYTE   PATT
  POIN2 Label_1_5462DC
 BYTE   PATT
  POIN2 Label_1_5462DC
 BYTE   PATT
  POIN2 Label_1_546302
 BYTE   PATT
  POIN2 Label_1_546302
 BYTE   PATT
  POIN2 Label_1_5462DC
 BYTE   PATT
  POIN2 Label_1_5462DC
// 003   ----------------------------------------
 BYTE   N24  En3  v127
 BYTE   W44
 BYTE   N04  En3  v092
 BYTE   W04
 BYTE   N08  An3
 BYTE   W08
 BYTE   N04  Bn3
 BYTE   W04
 BYTE   N08  Cn4
 BYTE   W08
 BYTE   N04  Bn3
 BYTE   W12
 BYTE   N04
 BYTE   W16
// 004   ----------------------------------------
 BYTE   N12  En3
 BYTE   W12
 BYTE   En3  v112
 BYTE   W32
 BYTE   N04  En3  v092
 BYTE   W04
 BYTE   N08  An3
 BYTE   W08
 BYTE   N04  Bn3
 BYTE   W04
 BYTE   N08  Cn4
 BYTE   W08
 BYTE   N04  Bn3
 BYTE   W12
 BYTE   N04
 BYTE   W16
 BYTE   PATT
  POIN2 Label_1_5462DC
 BYTE   PATT
  POIN2 Label_1_5462DC
 BYTE   PATT
  POIN2 Label_1_5462DC
 BYTE   PATT
  POIN2 Label_1_546302
// 005   ----------------------------------------
Label_1_5463B5:
 BYTE   N24  En3  v112
 BYTE   W48
 BYTE   N08  An3  v092
 BYTE   W08
 BYTE   N04  Bn3
 BYTE   W04
 BYTE   N08  Cn4
 BYTE   W08
 BYTE   N04  Bn3  v072
 BYTE   W12
 BYTE   Bn3  v092
 BYTE   W16
 BYTE   PEND 
// 006   ----------------------------------------
Label_1_5463CB:
 BYTE   W12
 BYTE   N08  An3  v127
 BYTE   W08
 BYTE   N04  Bn3
 BYTE   W04
 BYTE   N08  Cn4  v112
 BYTE   W08
 BYTE   N04  Bn3  v092
 BYTE   W04
 BYTE   N08  Cn4  v072
 BYTE   W08
 BYTE   N04  Bn3  v112
 BYTE   W12
 BYTE   Bn3  v092
 BYTE   W40
 BYTE   PEND 
 BYTE   PATT
  POIN2 Label_1_5463B5
 BYTE   PATT
  POIN2 Label_1_5463CB
 BYTE   PATT
  POIN2 Label_1_5463B5
 BYTE   PATT
  POIN2 Label_1_5463CB
 BYTE   PATT
  POIN2 Label_1_5463B5
 BYTE   PATT
  POIN2 Label_1_5463CB
// 007   ----------------------------------------
 BYTE   GoTo
  POIN2 Label_1_5462B2
 BYTE   FINE

//**************** Track 3 (Midi-Chn.2) ****************//

SonicAdventure2AGhostsPumpkinSoupRandomWizard_003:
// 000   ----------------------------------------
 BYTE   KEYSH   SonicAdventure2AGhostsPumpkinSoupRandomWizard_key+0
Label_2_546E4C:
 BYTE   VOICE   1
 BYTE   VOL   40*SonicAdventure2AGhostsPumpkinSoupRandomWizard_mvl/mxv
 BYTE   PAN   c_v-32
 BYTE   VOL   40*SonicAdventure2AGhostsPumpkinSoupRandomWizard_mvl/mxv
 BYTE   BEND   c_v+0
 BYTE   W12
 BYTE   N24  En3  v112
 BYTE   W32
 BYTE   N04  En3  v072
 BYTE   W04
 BYTE   N08  An3  v112
 BYTE   W08
 BYTE   N04  Bn3
 BYTE   W04
 BYTE   N08  Cn4
 BYTE   W08
 BYTE   N04  Bn3
 BYTE   W04
 BYTE   N08  Cn4
 BYTE   W08
 BYTE   N04  Bn3
 BYTE   W12
 BYTE   N04
 BYTE   W04
// 001   ----------------------------------------
Label_2_546E74:
 BYTE   N12  Gn3  v112
 BYTE   W12
 BYTE   N24  En3
 BYTE   W32
 BYTE   N04  En3  v072
 BYTE   W04
 BYTE   N08  An3  v112
 BYTE   W08
 BYTE   N04  Bn3
 BYTE   W04
 BYTE   N08  Cn4
 BYTE   W08
 BYTE   N04  Bn3
 BYTE   W04
 BYTE   N08  Cn4
 BYTE   W08
 BYTE   N04  Bn3
 BYTE   W12
 BYTE   N04
 BYTE   W04
 BYTE   PEND 
 BYTE   PATT
  POIN2 Label_2_546E74
// 002   ----------------------------------------
Label_2_546E9A:
 BYTE   N12  Gn3  v112
 BYTE   W12
 BYTE   N24  En3
 BYTE   W48
 BYTE   N08  An3  v072
 BYTE   W08
 BYTE   N04  Bn3
 BYTE   W04
 BYTE   N08  Cn4
 BYTE   W08
 BYTE   N04  Bn3
 BYTE   W12
 BYTE   N04
 BYTE   W04
 BYTE   PEND 
// 003   ----------------------------------------
Label_2_546EB1:
 BYTE   N12  Gn3  v072
 BYTE   W12
 BYTE   N24  En3  v112
 BYTE   W32
 BYTE   N04  En3  v072
 BYTE   W04
 BYTE   N08  An3  v112
 BYTE   W08
 BYTE   N04  Bn3
 BYTE   W04
 BYTE   N08  Cn4
 BYTE   W08
 BYTE   N04  Bn3
 BYTE   W04
 BYTE   N08  Cn4
 BYTE   W08
 BYTE   N04  Bn3
 BYTE   W12
 BYTE   N04
 BYTE   W04
 BYTE   PEND 
 BYTE   PATT
  POIN2 Label_2_546E74
 BYTE   PATT
  POIN2 Label_2_546E74
 BYTE   PATT
  POIN2 Label_2_546E74
 BYTE   PATT
  POIN2 Label_2_546E74
 BYTE   PATT
  POIN2 Label_2_546E74
 BYTE   PATT
  POIN2 Label_2_546E74
 BYTE   PATT
  POIN2 Label_2_546E9A
 BYTE   PATT
  POIN2 Label_2_546EB1
// 004   ----------------------------------------
 BYTE   N12  Gn3  v112
 BYTE   W12
 BYTE   N24  En3
 BYTE   W32
 BYTE   N04  En3  v072
 BYTE   W04
 BYTE   N08  An3  v108
 BYTE   W08
 BYTE   N04  Bn3  v112
 BYTE   W04
 BYTE   N08  Cn4
 BYTE   W08
 BYTE   N04  Bn3
 BYTE   W04
 BYTE   N08  Cn4
 BYTE   W08
 BYTE   N04  Bn3
 BYTE   W12
 BYTE   N04
 BYTE   W04
 BYTE   PATT
  POIN2 Label_2_546E74
 BYTE   PATT
  POIN2 Label_2_546E74
 BYTE   PATT
  POIN2 Label_2_546E74
 BYTE   PATT
  POIN2 Label_2_546E74
 BYTE   PATT
  POIN2 Label_2_546E9A
// 005   ----------------------------------------
 BYTE   N12  Gn3  v072
 BYTE   W12
 BYTE   N24  En3  v112
 BYTE   W48
 BYTE   N08  An3  v072
 BYTE   W08
 BYTE   N04  Bn3
 BYTE   W04
 BYTE   N08  Cn4
 BYTE   W08
 BYTE   N04  Bn3
 BYTE   W12
 BYTE   N04
 BYTE   W04
 BYTE   PATT
  POIN2 Label_2_546EB1
 BYTE   PATT
  POIN2 Label_2_546E74
// 006   ----------------------------------------
 BYTE   N12  Gn3  v112
 BYTE   W12
 BYTE   N24  En3
 BYTE   W44
 BYTE   N04  En3  v072
 BYTE   W04
 BYTE   N08  An3
 BYTE   W08
 BYTE   N04  Bn3
 BYTE   W04
 BYTE   N08  Cn4
 BYTE   W08
 BYTE   N04  Bn3
 BYTE   W12
 BYTE   N04
 BYTE   W04
// 007   ----------------------------------------
 BYTE   W12
 BYTE   N12  En3
 BYTE   W12
 BYTE   En3  v092
 BYTE   W32
 BYTE   N04  En3  v072
 BYTE   W04
 BYTE   N08  An3
 BYTE   W08
 BYTE   N04  Bn3
 BYTE   W04
 BYTE   N08  Cn4
 BYTE   W08
 BYTE   N04  Bn3
 BYTE   W12
 BYTE   N04
 BYTE   W04
// 008   ----------------------------------------
 BYTE   W12
 BYTE   N24  En3  v112
 BYTE   W32
 BYTE   N04  En3  v072
 BYTE   W04
 BYTE   N08  An3  v112
 BYTE   W08
 BYTE   N04  Bn3
 BYTE   W04
 BYTE   N08  Cn4
 BYTE   W08
 BYTE   N04  Bn3
 BYTE   W04
 BYTE   N08  Cn4
 BYTE   W08
 BYTE   N04  Bn3
 BYTE   W12
 BYTE   N04
 BYTE   W04
 BYTE   PATT
  POIN2 Label_2_546E74
 BYTE   PATT
  POIN2 Label_2_546E74
 BYTE   PATT
  POIN2 Label_2_546E9A
// 009   ----------------------------------------
 BYTE   N12  Gn3  v072
 BYTE   W12
 BYTE   N24  En3  v092
 BYTE   W48
 BYTE   N08  An3  v072
 BYTE   W08
 BYTE   N04  Bn3
 BYTE   W04
 BYTE   N08  Cn4
 BYTE   W08
 BYTE   N04  Bn3  v052
 BYTE   W12
 BYTE   Bn3  v072
 BYTE   W04
// 010   ----------------------------------------
Label_2_546FCE:
 BYTE   W24
 BYTE   N08  An3  v112
 BYTE   W08
 BYTE   N04  Bn3
 BYTE   W04
 BYTE   N08  Cn4  v092
 BYTE   W08
 BYTE   N04  Bn3  v072
 BYTE   W04
 BYTE   N08  Cn4  v052
 BYTE   W08
 BYTE   N04  Bn3  v092
 BYTE   W12
 BYTE   Bn3  v072
 BYTE   W28
 BYTE   PEND 
// 011   ----------------------------------------
Label_2_546FEA:
 BYTE   W12
 BYTE   N24  En3  v092
 BYTE   W48
 BYTE   N08  An3  v072
 BYTE   W08
 BYTE   N04  Bn3
 BYTE   W04
 BYTE   N08  Cn4
 BYTE   W08
 BYTE   N04  Bn3  v052
 BYTE   W12
 BYTE   Bn3  v072
 BYTE   W04
 BYTE   PEND 
 BYTE   PATT
  POIN2 Label_2_546FCE
 BYTE   PATT
  POIN2 Label_2_546FEA
 BYTE   PATT
  POIN2 Label_2_546FCE
 BYTE   PATT
  POIN2 Label_2_546FEA
 BYTE   PATT
  POIN2 Label_2_546FCE
// 012   ----------------------------------------
 BYTE   GoTo
  POIN2 Label_2_546E4C
 BYTE   FINE

//**************** Track 4 (Midi-Chn.3) ****************//

SonicAdventure2AGhostsPumpkinSoupRandomWizard_004:
// 000   ----------------------------------------
 BYTE   KEYSH   SonicAdventure2AGhostsPumpkinSoupRandomWizard_key+0
Label_3_015D9DA2:
 BYTE   VOICE   1
 BYTE   VOL   40*SonicAdventure2AGhostsPumpkinSoupRandomWizard_mvl/mxv
 BYTE   PAN   c_v+32
 BYTE   VOL   40*SonicAdventure2AGhostsPumpkinSoupRandomWizard_mvl/mxv
 BYTE   BEND   c_v+0
 BYTE   W24
 BYTE   N24  En3  v092
 BYTE   W32
 BYTE   N04  En3  v052
 BYTE   W04
 BYTE   N08  An3  v092
 BYTE   W08
 BYTE   N04  Bn3
 BYTE   W04
 BYTE   N08  Cn4
 BYTE   W08
 BYTE   N04  Bn3
 BYTE   W04
 BYTE   N08  Cn4
 BYTE   W08
 BYTE   N04  Bn3
 BYTE   W04
// 001   ----------------------------------------
Label_3_015D9DC8:
 BYTE   W08
 BYTE   N04  Bn3  v092
 BYTE   W04
 BYTE   N12  Gn3
 BYTE   W12
 BYTE   N24  En3
 BYTE   W32
 BYTE   N04  En3  v052
 BYTE   W04
 BYTE   N08  An3  v092
 BYTE   W08
 BYTE   N04  Bn3
 BYTE   W04
 BYTE   N08  Cn4
 BYTE   W08
 BYTE   N04  Bn3
 BYTE   W04
 BYTE   N08  Cn4
 BYTE   W08
 BYTE   N04  Bn3
 BYTE   W04
 BYTE   PEND 
 BYTE   PATT
  POIN2 Label_3_015D9DC8
// 002   ----------------------------------------
Label_3_015D9DF0:
 BYTE   W08
 BYTE   N04  Bn3  v092
 BYTE   W04
 BYTE   N12  Gn3
 BYTE   W12
 BYTE   N24  En3
 BYTE   W48
 BYTE   N08  An3  v052
 BYTE   W08
 BYTE   N04  Bn3
 BYTE   W04
 BYTE   N08  Cn4
 BYTE   W08
 BYTE   N04  Bn3
 BYTE   W04
 BYTE   PEND 
// 003   ----------------------------------------
Label_3_015D9E09:
 BYTE   W08
 BYTE   N04  Bn3  v052
 BYTE   W04
 BYTE   N12  Gn3
 BYTE   W12
 BYTE   N24  En3  v092
 BYTE   W32
 BYTE   N04  En3  v052
 BYTE   W04
 BYTE   N08  An3  v092
 BYTE   W08
 BYTE   N04  Bn3
 BYTE   W04
 BYTE   N08  Cn4
 BYTE   W08
 BYTE   N04  Bn3
 BYTE   W04
 BYTE   N08  Cn4
 BYTE   W08
 BYTE   N04  Bn3
 BYTE   W04
 BYTE   PEND 
 BYTE   PATT
  POIN2 Label_3_015D9DC8
 BYTE   PATT
  POIN2 Label_3_015D9DC8
 BYTE   PATT
  POIN2 Label_3_015D9DC8
 BYTE   PATT
  POIN2 Label_3_015D9DC8
 BYTE   PATT
  POIN2 Label_3_015D9DC8
 BYTE   PATT
  POIN2 Label_3_015D9DC8
 BYTE   PATT
  POIN2 Label_3_015D9DF0
 BYTE   PATT
  POIN2 Label_3_015D9E09
// 004   ----------------------------------------
 BYTE   W08
 BYTE   N04  Bn3  v092
 BYTE   W04
 BYTE   N12  Gn3
 BYTE   W12
 BYTE   N24  En3
 BYTE   W32
 BYTE   N04  En3  v052
 BYTE   W04
 BYTE   N08  An3  v088
 BYTE   W08
 BYTE   N04  Bn3  v092
 BYTE   W04
 BYTE   N08  Cn4
 BYTE   W08
 BYTE   N04  Bn3
 BYTE   W04
 BYTE   N08  Cn4
 BYTE   W08
 BYTE   N04  Bn3
 BYTE   W04
 BYTE   PATT
  POIN2 Label_3_015D9DC8
 BYTE   PATT
  POIN2 Label_3_015D9DC8
 BYTE   PATT
  POIN2 Label_3_015D9DC8
 BYTE   PATT
  POIN2 Label_3_015D9DC8
 BYTE   PATT
  POIN2 Label_3_015D9DF0
// 005   ----------------------------------------
 BYTE   W08
 BYTE   N04  Bn3  v052
 BYTE   W04
 BYTE   N12  Gn3
 BYTE   W12
 BYTE   N24  En3  v092
 BYTE   W48
 BYTE   N08  An3  v052
 BYTE   W08
 BYTE   N04  Bn3
 BYTE   W04
 BYTE   N08  Cn4
 BYTE   W08
 BYTE   N04  Bn3
 BYTE   W04
 BYTE   PATT
  POIN2 Label_3_015D9E09
 BYTE   PATT
  POIN2 Label_3_015D9DC8
// 006   ----------------------------------------
 BYTE   W08
 BYTE   N04  Bn3  v092
 BYTE   W04
 BYTE   N12  Gn3
 BYTE   W12
 BYTE   N24  En3
 BYTE   W44
 BYTE   N04  En3  v052
 BYTE   W04
 BYTE   N08  An3
 BYTE   W08
 BYTE   N04  Bn3
 BYTE   W04
 BYTE   N08  Cn4
 BYTE   W08
 BYTE   N04  Bn3
 BYTE   W04
// 007   ----------------------------------------
 BYTE   W08
 BYTE   N04
 BYTE   W16
 BYTE   N12  En3
 BYTE   W12
 BYTE   En3  v072
 BYTE   W32
 BYTE   N04  En3  v052
 BYTE   W04
 BYTE   N08  An3
 BYTE   W08
 BYTE   N04  Bn3
 BYTE   W04
 BYTE   N08  Cn4
 BYTE   W08
 BYTE   N04  Bn3
 BYTE   W04
// 008   ----------------------------------------
 BYTE   W08
 BYTE   N04
 BYTE   W16
 BYTE   N24  En3  v092
 BYTE   W32
 BYTE   N04  En3  v052
 BYTE   W04
 BYTE   N08  An3  v092
 BYTE   W08
 BYTE   N04  Bn3
 BYTE   W04
 BYTE   N08  Cn4
 BYTE   W08
 BYTE   N04  Bn3
 BYTE   W04
 BYTE   N08  Cn4
 BYTE   W08
 BYTE   N04  Bn3
 BYTE   W04
 BYTE   PATT
  POIN2 Label_3_015D9DC8
 BYTE   PATT
  POIN2 Label_3_015D9DC8
 BYTE   PATT
  POIN2 Label_3_015D9DF0
// 009   ----------------------------------------
 BYTE   W08
 BYTE   N04  Bn3  v052
 BYTE   W04
 BYTE   N12  Gn3
 BYTE   W12
 BYTE   N24  En3  v072
 BYTE   W48
 BYTE   N08  An3  v052
 BYTE   W08
 BYTE   N04  Bn3
 BYTE   W04
 BYTE   N08  Cn4
 BYTE   W08
 BYTE   N04  Bn3  v032
 BYTE   W04
// 010   ----------------------------------------
Label_3_015D9F2F:
 BYTE   W08
 BYTE   N04  Bn3  v052
 BYTE   W28
 BYTE   N08  An3  v092
 BYTE   W08
 BYTE   N04  Bn3
 BYTE   W04
 BYTE   N08  Cn4  v072
 BYTE   W08
 BYTE   N04  Bn3  v052
 BYTE   W04
 BYTE   N08  Cn4  v032
 BYTE   W08
 BYTE   N04  Bn3  v072
 BYTE   W12
 BYTE   Bn3  v052
 BYTE   W16
 BYTE   PEND 
// 011   ----------------------------------------
Label_3_015D9F4F:
 BYTE   W24
 BYTE   N24  En3  v072
 BYTE   W48
 BYTE   N08  An3  v052
 BYTE   W08
 BYTE   N04  Bn3
 BYTE   W04
 BYTE   N08  Cn4
 BYTE   W08
 BYTE   N04  Bn3  v032
 BYTE   W04
 BYTE   PEND 
 BYTE   PATT
  POIN2 Label_3_015D9F2F
 BYTE   PATT
  POIN2 Label_3_015D9F4F
 BYTE   PATT
  POIN2 Label_3_015D9F2F
 BYTE   PATT
  POIN2 Label_3_015D9F4F
 BYTE   PATT
  POIN2 Label_3_015D9F2F
// 012   ----------------------------------------
 BYTE   GoTo
  POIN2 Label_3_015D9DA2
 BYTE   FINE

//**************** Track 5 (Midi-Chn.4) ****************//

SonicAdventure2AGhostsPumpkinSoupRandomWizard_005:
// 000   ----------------------------------------
 BYTE   VOL   40*SonicAdventure2AGhostsPumpkinSoupRandomWizard_mvl/mxv
 BYTE   KEYSH   SonicAdventure2AGhostsPumpkinSoupRandomWizard_key+0
Label_4_5466C2:
 BYTE   VOICE   79
 BYTE   W96
// 001   ----------------------------------------
 BYTE   W96
// 002   ----------------------------------------
 BYTE   W96
// 003   ----------------------------------------
 BYTE   W96
// 004   ----------------------------------------
 BYTE   W96
// 005   ----------------------------------------
 BYTE   W96
// 006   ----------------------------------------
 BYTE   W96
// 007   ----------------------------------------
 BYTE   W96
// 008   ----------------------------------------
 BYTE   W96
// 009   ----------------------------------------
 BYTE   W96
// 010   ----------------------------------------
 BYTE   W96
// 011   ----------------------------------------
 BYTE   W96
// 012   ----------------------------------------
 BYTE   W96
// 013   ----------------------------------------
 BYTE   W96
// 014   ----------------------------------------
 BYTE   W96
// 015   ----------------------------------------
 BYTE   W96
// 016   ----------------------------------------
 BYTE   W96
// 017   ----------------------------------------
 BYTE   W96
// 018   ----------------------------------------
 BYTE   W96
// 019   ----------------------------------------
 BYTE   W96
// 020   ----------------------------------------
 BYTE   TIE  En5  v072
 BYTE   W96
// 021   ----------------------------------------
 BYTE   W72
 BYTE   EOT
 BYTE   N12  Dn5
 BYTE   W12
 BYTE   Gn5
 BYTE   W12
// 022   ----------------------------------------
 BYTE   TIE  En5
 BYTE   W96
// 023   ----------------------------------------
 BYTE   W72
 BYTE   EOT
 BYTE   N24  An5
 BYTE   W24
// 024   ----------------------------------------
 BYTE   TIE  En5
 BYTE   W96
// 025   ----------------------------------------
 BYTE   W72
 BYTE   EOT
 BYTE   N12  Dn5
 BYTE   W12
 BYTE   Gn5
 BYTE   W12
// 026   ----------------------------------------
 BYTE   TIE  En5
 BYTE   W96
// 027   ----------------------------------------
 BYTE   W72
 BYTE   EOT
 BYTE   N24  An5
 BYTE   W24
// 028   ----------------------------------------
 BYTE   TIE  En5
 BYTE   W96
// 029   ----------------------------------------
 BYTE   W72
 BYTE   EOT
 BYTE   N12  Dn5
 BYTE   W12
 BYTE   Gn5
 BYTE   W12
// 030   ----------------------------------------
 BYTE   TIE  En5
 BYTE   W96
// 031   ----------------------------------------
 BYTE   W72
 BYTE   EOT
 BYTE   N24  An5
 BYTE   W24
// 032   ----------------------------------------
 BYTE   TIE  En5
 BYTE   W96
// 033   ----------------------------------------
 BYTE   W72
 BYTE   EOT
 BYTE   N12  Dn5
 BYTE   W12
 BYTE   Gn5
 BYTE   W12
// 034   ----------------------------------------
 BYTE   TIE  En5
 BYTE   W96
// 035   ----------------------------------------
 BYTE   W72
 BYTE   EOT
 BYTE   N24  An5
 BYTE   W24
// 036   ----------------------------------------
 BYTE   GoTo
  POIN2 Label_4_5466C2
 BYTE   FINE

//**************** Track 6 (Midi-Chn.5) ****************//

SonicAdventure2AGhostsPumpkinSoupRandomWizard_006:
// 000   ----------------------------------------
 BYTE   KEYSH   SonicAdventure2AGhostsPumpkinSoupRandomWizard_key+0
Label_5_54691E:
 BYTE   VOICE   67
 BYTE   VOL   40*SonicAdventure2AGhostsPumpkinSoupRandomWizard_mvl/mxv
 BYTE   PAN   c_v+32
 BYTE   VOL   40*SonicAdventure2AGhostsPumpkinSoupRandomWizard_mvl/mxv
 BYTE   BEND   c_v+0
 BYTE   W96
// 001   ----------------------------------------
 BYTE   W96
// 002   ----------------------------------------
 BYTE   W96
// 003   ----------------------------------------
 BYTE   W96
// 004   ----------------------------------------
 BYTE   W96
// 005   ----------------------------------------
 BYTE   W96
// 006   ----------------------------------------
 BYTE   W96
// 007   ----------------------------------------
 BYTE   W96
// 008   ----------------------------------------
 BYTE   W96
// 009   ----------------------------------------
 BYTE   W96
// 010   ----------------------------------------
 BYTE   W96
// 011   ----------------------------------------
 BYTE   W96
// 012   ----------------------------------------
 BYTE   W96
// 013   ----------------------------------------
 BYTE   W96
// 014   ----------------------------------------
 BYTE   W96
// 015   ----------------------------------------
 BYTE   W96
// 016   ----------------------------------------
 BYTE   W96
// 017   ----------------------------------------
 BYTE   W96
// 018   ----------------------------------------
Label_5_54693A:
 BYTE   N08  An1  v127
 BYTE   W08
 BYTE   N04  En1
 BYTE   W04
 BYTE   N08  Gn1
 BYTE   W08
 BYTE   N04  An1
 BYTE   W36
 BYTE   En1
 BYTE   W04
 BYTE   N08  Gn1
 BYTE   W12
 BYTE   N04  An1
 BYTE   W24
 BYTE   PEND 
// 019   ----------------------------------------
 BYTE   W96
// 020   ----------------------------------------
 BYTE   W96
// 021   ----------------------------------------
 BYTE   W96
// 022   ----------------------------------------
 BYTE   W96
// 023   ----------------------------------------
 BYTE   W96
// 024   ----------------------------------------
 BYTE   W96
// 025   ----------------------------------------
 BYTE   W96
// 026   ----------------------------------------
 BYTE   W96
// 027   ----------------------------------------
 BYTE   W96
 BYTE   PATT
  POIN2 Label_5_54693A
// 028   ----------------------------------------
Label_5_54695E:
 BYTE   N04  An1  v127
 BYTE   W12
 BYTE   N08  Gn1
 BYTE   W08
 BYTE   N04  An1
 BYTE   W36
 BYTE   En1
 BYTE   W04
 BYTE   N08  Gn1
 BYTE   W12
 BYTE   N04  An1
 BYTE   W24
 BYTE   PEND 
 BYTE   PATT
  POIN2 Label_5_54693A
 BYTE   PATT
  POIN2 Label_5_54695E
 BYTE   PATT
  POIN2 Label_5_54693A
 BYTE   PATT
  POIN2 Label_5_54695E
 BYTE   PATT
  POIN2 Label_5_54693A
 BYTE   PATT
  POIN2 Label_5_54695E
// 029   ----------------------------------------
 BYTE   GoTo
  POIN2 Label_5_54691E
 BYTE   FINE

//**************** Track 7 (Midi-Chn.6) ****************//

SonicAdventure2AGhostsPumpkinSoupRandomWizard_007:
// 000   ----------------------------------------
 BYTE   KEYSH   SonicAdventure2AGhostsPumpkinSoupRandomWizard_key+0
Label_6_547022:
 BYTE   VOICE   79
 BYTE   VOL   40*SonicAdventure2AGhostsPumpkinSoupRandomWizard_mvl/mxv
 BYTE   PAN   c_v-16
 BYTE   VOL   40*SonicAdventure2AGhostsPumpkinSoupRandomWizard_mvl/mxv
 BYTE   BEND   c_v+0
 BYTE   W96
// 001   ----------------------------------------
 BYTE   W96
// 002   ----------------------------------------
 BYTE   W96
// 003   ----------------------------------------
 BYTE   W96
// 004   ----------------------------------------
 BYTE   W96
// 005   ----------------------------------------
 BYTE   W96
// 006   ----------------------------------------
 BYTE   W96
// 007   ----------------------------------------
 BYTE   W96
// 008   ----------------------------------------
 BYTE   W96
// 009   ----------------------------------------
 BYTE   W96
// 010   ----------------------------------------
 BYTE   W96
// 011   ----------------------------------------
 BYTE   W96
// 012   ----------------------------------------
Label_6_547038:
 BYTE   N48  En3  v060
 BYTE   W48
 BYTE   N24  Dn3
 BYTE   W24
 BYTE   Gn3
 BYTE   W24
 BYTE   PEND 
 BYTE   PATT
  POIN2 Label_6_547038
 BYTE   PATT
  POIN2 Label_6_547038
 BYTE   PATT
  POIN2 Label_6_547038
 BYTE   PATT
  POIN2 Label_6_547038
 BYTE   PATT
  POIN2 Label_6_547038
 BYTE   PATT
  POIN2 Label_6_547038
 BYTE   PATT
  POIN2 Label_6_547038
 BYTE   PATT
  POIN2 Label_6_547038
 BYTE   PATT
  POIN2 Label_6_547038
// 013   ----------------------------------------
Label_6_54706F:
 BYTE   N48  En3  v060
 BYTE   W01
 BYTE   W02
 BYTE   W01
 BYTE   W02
 BYTE   W01
 BYTE   W02
 BYTE   W01
 BYTE   W02
 BYTE   W01
 BYTE   W02
 BYTE   W01
 BYTE   W02
 BYTE   W01
 BYTE   W02
 BYTE   W01
 BYTE   W02
 BYTE   W01
 BYTE   W02
 BYTE   W01
 BYTE   W02
 BYTE   W01
 BYTE   W02
 BYTE   W01
 BYTE   W02
 BYTE   W01
 BYTE   W02
 BYTE   W56
 BYTE   W01
 BYTE   PEND 
// 014   ----------------------------------------
 BYTE   W72
 BYTE   N24  Gn3
 BYTE   W24
 BYTE   PATT
  POIN2 Label_6_547038
 BYTE   PATT
  POIN2 Label_6_547038
 BYTE   PATT
  POIN2 Label_6_547038
 BYTE   PATT
  POIN2 Label_6_547038
 BYTE   PATT
  POIN2 Label_6_547038
 BYTE   PATT
  POIN2 Label_6_547038
 BYTE   PATT
  POIN2 Label_6_547038
 BYTE   PATT
  POIN2 Label_6_547038
 BYTE   PATT
  POIN2 Label_6_547038
 BYTE   PATT
  POIN2 Label_6_547038
 BYTE   PATT
  POIN2 Label_6_547038
 BYTE   PATT
  POIN2 Label_6_54706F
// 015   ----------------------------------------
 BYTE   GoTo
  POIN2 Label_6_547022
 BYTE   FINE

//**************** Track 8 (Midi-Chn.7) ****************//

SonicAdventure2AGhostsPumpkinSoupRandomWizard_008:
// 000   ----------------------------------------
 BYTE   KEYSH   SonicAdventure2AGhostsPumpkinSoupRandomWizard_key+0
Label_7_015D9F86:
 BYTE   VOICE   124
 BYTE   VOL   40*SonicAdventure2AGhostsPumpkinSoupRandomWizard_mvl/mxv
 BYTE   PAN   c_v+0
 BYTE   VOL   40*SonicAdventure2AGhostsPumpkinSoupRandomWizard_mvl/mxv
 BYTE   BEND   c_v+0
 BYTE   N01  Fs1  v127
 BYTE   W12
 BYTE   Bn2
 BYTE   W12
 BYTE   Fs1
 BYTE   W12
 BYTE   Bn2
 BYTE   W12
 BYTE   Fs1
 BYTE   W12
 BYTE   Bn2
 BYTE   W12
 BYTE   Fs1
 BYTE   W12
 BYTE   Bn2
 BYTE   W08
 BYTE   N01
 BYTE   W04
// 001   ----------------------------------------
 BYTE   Fs1
 BYTE   W12
 BYTE   Bn2
 BYTE   W12
 BYTE   Fs1
 BYTE   W12
 BYTE   Bn2
 BYTE   W12
 BYTE   Fs1
 BYTE   W12
 BYTE   Bn2
 BYTE   W12
 BYTE   Fs1
 BYTE   W12
 BYTE   Bn2
 BYTE   W12
// 002   ----------------------------------------
 BYTE   N01
 BYTE   W12
 BYTE   N01
 BYTE   W12
 BYTE   Fs1
 BYTE   W12
 BYTE   Bn2
 BYTE   W12
 BYTE   Fs1
 BYTE   W12
 BYTE   Bn2
 BYTE   W12
 BYTE   Fs1
 BYTE   W12
 BYTE   Bn2
 BYTE   W08
 BYTE   N01
 BYTE   W04
// 003   ----------------------------------------
 BYTE   Fs1
 BYTE   W12
 BYTE   Bn2
 BYTE   W12
 BYTE   Fs1
 BYTE   W12
 BYTE   Bn2
 BYTE   W12
 BYTE   Fs1
 BYTE   W12
 BYTE   Bn2
 BYTE   W12
 BYTE   En1
 BYTE   N01  Bn2
 BYTE   W12
 BYTE   N01
 BYTE   W12
// 004   ----------------------------------------
Label_7_015D9FD8:
 BYTE   N01  Bn0  v127
 BYTE   N01  Fs1
 BYTE   W12
 BYTE   N01
 BYTE   W12
 BYTE   En1
 BYTE   N01  Fs1
 BYTE   W12
 BYTE   N01
 BYTE   W08
 BYTE   N01
 BYTE   W04
 BYTE   N01
 BYTE   W12
 BYTE   N01
 BYTE   W08
 BYTE   Bn0
 BYTE   W04
 BYTE   En1
 BYTE   N01  Fs1
 BYTE   W12
 BYTE   N01
 BYTE   W12
 BYTE   PEND 
// 005   ----------------------------------------
Label_7_015D9FF5:
 BYTE   N01  Bn0  v127
 BYTE   N01  Fs1
 BYTE   W12
 BYTE   N01
 BYTE   W12
 BYTE   En1
 BYTE   N01  Fs1
 BYTE   W12
 BYTE   N01
 BYTE   W08
 BYTE   Bn0
 BYTE   N01  Fs1
 BYTE   W04
 BYTE   N01
 BYTE   W12
 BYTE   N01
 BYTE   W08
 BYTE   Bn0
 BYTE   W04
 BYTE   En1
 BYTE   N01  Fs1
 BYTE   W12
 BYTE   N01
 BYTE   W08
 BYTE   Bn0
 BYTE   W04
 BYTE   PEND 
// 006   ----------------------------------------
Label_7_015DA016:
 BYTE   N01  Bn0  v127
 BYTE   N01  Fs1
 BYTE   W12
 BYTE   N01
 BYTE   W08
 BYTE   Bn0
 BYTE   W04
 BYTE   En1
 BYTE   N01  Fs1
 BYTE   W12
 BYTE   N01
 BYTE   W08
 BYTE   N01
 BYTE   W04
 BYTE   N01
 BYTE   W12
 BYTE   N01
 BYTE   W08
 BYTE   Bn0
 BYTE   W04
 BYTE   En1
 BYTE   N01  Fs1
 BYTE   W12
 BYTE   N01
 BYTE   W12
 BYTE   PEND 
// 007   ----------------------------------------
 BYTE   Bn0
 BYTE   N01  Fs1
 BYTE   W12
 BYTE   N01
 BYTE   W12
 BYTE   En1
 BYTE   N01  Fs1
 BYTE   W12
 BYTE   N01
 BYTE   W08
 BYTE   Bn0
 BYTE   N01  Fs1
 BYTE   W04
 BYTE   N01
 BYTE   W12
 BYTE   N01
 BYTE   W08
 BYTE   Bn0
 BYTE   W04
 BYTE   En1
 BYTE   N01  Fs1
 BYTE   W12
 BYTE   N01
 BYTE   W12
 BYTE   PATT
  POIN2 Label_7_015D9FD8
 BYTE   PATT
  POIN2 Label_7_015D9FF5
 BYTE   PATT
  POIN2 Label_7_015DA016
// 008   ----------------------------------------
 BYTE   N01  Bn0  v127
 BYTE   N01  Fs1
 BYTE   W12
 BYTE   N01
 BYTE   W12
 BYTE   En1
 BYTE   N01  Fs1
 BYTE   W12
 BYTE   N01
 BYTE   W12
 BYTE   Fn0
 BYTE   N01  Bn0
 BYTE   N01  Fs1
 BYTE   W12
 BYTE   Fs0
 BYTE   N01  Fs1
 BYTE   W06
 BYTE   Fn0
 BYTE   W06
 BYTE   En1
 BYTE   N01  Fs1
 BYTE   W08
 BYTE   Fs0
 BYTE   W04
 BYTE   Fn0
 BYTE   N01  Bn2
 BYTE   W12
// 009   ----------------------------------------
 BYTE   Bn0
 BYTE   N01  Fs1
 BYTE   W12
 BYTE   Fs0
 BYTE   N01  Bn2
 BYTE   W12
 BYTE   Fs0  v092
 BYTE   N01  En1  v127
 BYTE   N01  Fs1
 BYTE   W12
 BYTE   Fs0  v052
 BYTE   N01  Bn2  v127
 BYTE   W12
 BYTE   Fs0  v012
 BYTE   N01  Fs1  v127
 BYTE   W12
 BYTE   Bn2
 BYTE   W08
 BYTE   Bn0
 BYTE   W04
 BYTE   En1
 BYTE   N01  Fs1
 BYTE   W12
 BYTE   Bn2
 BYTE   W08
 BYTE   N01
 BYTE   W04
// 010   ----------------------------------------
Label_7_015DA0AC:
 BYTE   N01  Bn0  v127
 BYTE   N01  Fs1
 BYTE   W12
 BYTE   Bn2
 BYTE   W12
 BYTE   En1
 BYTE   N01  Fs1
 BYTE   W12
 BYTE   Bn2
 BYTE   W08
 BYTE   Bn0
 BYTE   W04
 BYTE   Fs1
 BYTE   W12
 BYTE   Bn2
 BYTE   W08
 BYTE   Bn0
 BYTE   W04
 BYTE   En1
 BYTE   N01  Fs1
 BYTE   W12
 BYTE   Bn2
 BYTE   W08
 BYTE   Bn0
 BYTE   W04
 BYTE   PEND 
// 011   ----------------------------------------
Label_7_015DA0CB:
 BYTE   N01  Bn0  v127
 BYTE   N01  Fs1
 BYTE   W12
 BYTE   Bn2
 BYTE   W08
 BYTE   Bn0
 BYTE   W04
 BYTE   En1
 BYTE   N01  Fs1
 BYTE   W12
 BYTE   Bn2
 BYTE   W12
 BYTE   Fs1
 BYTE   W12
 BYTE   Bn2
 BYTE   W08
 BYTE   Bn0
 BYTE   W04
 BYTE   En1
 BYTE   N01  Fs1
 BYTE   W12
 BYTE   Bn2
 BYTE   W08
 BYTE   N01
 BYTE   W04
 BYTE   PEND 
// 012   ----------------------------------------
Label_7_015DA0EA:
 BYTE   N01  Bn0  v127
 BYTE   N01  Fs1
 BYTE   W12
 BYTE   Bn2
 BYTE   W12
 BYTE   En1
 BYTE   N01  Fs1
 BYTE   W12
 BYTE   Bn2
 BYTE   W08
 BYTE   Bn0
 BYTE   W04
 BYTE   Fs1
 BYTE   W12
 BYTE   Bn2
 BYTE   W08
 BYTE   Bn0
 BYTE   W04
 BYTE   En1
 BYTE   N01  Fs1
 BYTE   W12
 BYTE   Bn2
 BYTE   W12
 BYTE   PEND 
// 013   ----------------------------------------
Label_7_015DA107:
 BYTE   N01  Bn0  v127
 BYTE   N01  Fs1
 BYTE   W12
 BYTE   Bn2
 BYTE   W12
 BYTE   En1
 BYTE   N01  Fs1
 BYTE   W12
 BYTE   Bn2
 BYTE   W12
 BYTE   Fs1
 BYTE   W12
 BYTE   Bn2
 BYTE   W08
 BYTE   Bn0
 BYTE   W04
 BYTE   En1
 BYTE   N01  Fs1
 BYTE   W12
 BYTE   Bn2
 BYTE   W08
 BYTE   N01
 BYTE   W04
 BYTE   PEND 
 BYTE   PATT
  POIN2 Label_7_015DA0EA
// 014   ----------------------------------------
 BYTE   N01  Fs1  v127
 BYTE   W12
 BYTE   Bn2
 BYTE   W12
 BYTE   Fs1
 BYTE   W12
 BYTE   Bn2
 BYTE   W12
 BYTE   Fs1
 BYTE   W12
 BYTE   Fn0
 BYTE   N01  Bn2
 BYTE   W08
 BYTE   Bn0
 BYTE   W04
 BYTE   Fn0
 BYTE   N01  En1
 BYTE   N01  Fs1
 BYTE   W08
 BYTE   Fs0
 BYTE   W04
 BYTE   Fn0
 BYTE   N01  Bn2
 BYTE   W04
 BYTE   Fn0  v112
 BYTE   W04
 BYTE   Fn0  v092
 BYTE   N01  Bn2  v127
 BYTE   W04
// 015   ----------------------------------------
 BYTE   Fs0
 BYTE   N01  Bn0
 BYTE   N01  Fs1
 BYTE   W12
 BYTE   Fn0
 BYTE   N01  Bn2
 BYTE   W04
 BYTE   Fn0  v112
 BYTE   W04
 BYTE   Fn0  v092
 BYTE   W04
 BYTE   Fs0  v127
 BYTE   N01  En1
 BYTE   N01  Fs1
 BYTE   W12
 BYTE   Fs0  v092
 BYTE   N01  Bn2  v127
 BYTE   W08
 BYTE   Bn0
 BYTE   W04
 BYTE   Fs0  v052
 BYTE   N01  Fs1  v127
 BYTE   W12
 BYTE   Fs0  v012
 BYTE   N01  Bn2  v127
 BYTE   W08
 BYTE   Bn0
 BYTE   W04
 BYTE   En1
 BYTE   N01  Fs1
 BYTE   W12
 BYTE   Bn2
 BYTE   W12
 BYTE   PATT
  POIN2 Label_7_015DA107
 BYTE   PATT
  POIN2 Label_7_015DA0AC
// 016   ----------------------------------------
 BYTE   N01  Bn0  v127
 BYTE   N01  Fs1
 BYTE   W12
 BYTE   N01
 BYTE   W08
 BYTE   Bn0
 BYTE   W04
 BYTE   En1
 BYTE   N01  Fs1
 BYTE   W12
 BYTE   N01
 BYTE   W12
 BYTE   N01
 BYTE   W12
 BYTE   N01
 BYTE   W08
 BYTE   Bn0
 BYTE   W04
 BYTE   En1
 BYTE   N01  Fs1
 BYTE   W12
 BYTE   N01
 BYTE   W12
// 017   ----------------------------------------
 BYTE   Bn0
 BYTE   N01  Fs1
 BYTE   W12
 BYTE   N01
 BYTE   W12
 BYTE   En1
 BYTE   N01  Fs1
 BYTE   W12
 BYTE   N01
 BYTE   W08
 BYTE   Bn0
 BYTE   W04
 BYTE   Fs1
 BYTE   W12
 BYTE   N01
 BYTE   W08
 BYTE   Bn0
 BYTE   W04
 BYTE   En1
 BYTE   N01  Fs1
 BYTE   W12
 BYTE   N01
 BYTE   W12
 BYTE   PATT
  POIN2 Label_7_015DA107
// 018   ----------------------------------------
 BYTE   N01  Bn0  v127
 BYTE   N01  Fs1
 BYTE   W12
 BYTE   Bn2
 BYTE   W12
 BYTE   En1
 BYTE   N01  Fs1
 BYTE   W12
 BYTE   Bn2
 BYTE   W08
 BYTE   Bn0
 BYTE   W04
 BYTE   Fs1
 BYTE   W12
 BYTE   Bn2
 BYTE   W08
 BYTE   Bn0
 BYTE   W04
 BYTE   En1
 BYTE   N01  Fs1
 BYTE   W12
 BYTE   Fs0
 BYTE   N01  Bn2
 BYTE   W12
// 019   ----------------------------------------
 BYTE   Fn0
 BYTE   N01  Bn0
 BYTE   N01  Fs1
 BYTE   W12
 BYTE   Bn2
 BYTE   W08
 BYTE   Fs0
 BYTE   N01  Bn0
 BYTE   W04
 BYTE   Fn0
 BYTE   N01  En1
 BYTE   N01  Fs1
 BYTE   W12
 BYTE   Bn2
 BYTE   W08
 BYTE   Fs0
 BYTE   W04
 BYTE   Fn0
 BYTE   N01  Fs1
 BYTE   W12
 BYTE   Fn0  v092
 BYTE   N01  Bn2  v127
 BYTE   W08
 BYTE   Bn0
 BYTE   W04
 BYTE   Fn0  v052
 BYTE   N01  En1  v127
 BYTE   N01  Fs1
 BYTE   W12
 BYTE   Fn0  v012
 BYTE   N01  Bn2  v127
 BYTE   W08
 BYTE   N01
 BYTE   W04
// 020   ----------------------------------------
 BYTE   Bn0
 BYTE   N01  Fs1
 BYTE   W12
 BYTE   Bn2
 BYTE   W12
 BYTE   En1
 BYTE   N01  Fs1
 BYTE   W12
 BYTE   Bn2
 BYTE   W08
 BYTE   Bn0
 BYTE   W04
 BYTE   Fs1
 BYTE   W12
 BYTE   Bn2
 BYTE   W08
 BYTE   Bn0
 BYTE   W04
 BYTE   Fn0  v092
 BYTE   N01  En1  v127
 BYTE   N01  Fs1
 BYTE   W12
 BYTE   Fn0
 BYTE   N01  Bn2
 BYTE   W12
// 021   ----------------------------------------
 BYTE   Fn0  v092
 BYTE   N01  Bn0  v127
 BYTE   N01  Fs1
 BYTE   W12
 BYTE   Fn0  v052
 BYTE   N01  Bn2  v127
 BYTE   W12
 BYTE   Fn0  v012
 BYTE   N01  En1  v127
 BYTE   N01  Fs1
 BYTE   W12
 BYTE   Bn2
 BYTE   W12
 BYTE   Fs1
 BYTE   W12
 BYTE   Bn2
 BYTE   W08
 BYTE   Bn0
 BYTE   W04
 BYTE   En1
 BYTE   N01  Fs1
 BYTE   W12
 BYTE   Bn2
 BYTE   W08
 BYTE   N01
 BYTE   W04
 BYTE   PATT
  POIN2 Label_7_015DA0EA
 BYTE   PATT
  POIN2 Label_7_015DA107
 BYTE   PATT
  POIN2 Label_7_015DA0EA
 BYTE   PATT
  POIN2 Label_7_015DA107
 BYTE   PATT
  POIN2 Label_7_015DA0EA
 BYTE   PATT
  POIN2 Label_7_015DA0CB
 BYTE   PATT
  POIN2 Label_7_015DA0EA
// 022   ----------------------------------------
 BYTE   GoTo
  POIN2 Label_7_015D9F86
 BYTE   FINE

//******************************************************//
	ALIGN 4

SonicAdventure2AGhostsPumpkinSoupRandomWizard:
	BYTE	8	// NumTrks
	BYTE	0	// NumBlks
	BYTE	SonicAdventure2AGhostsPumpkinSoupRandomWizard_pri	// Priority
	BYTE	SonicAdventure2AGhostsPumpkinSoupRandomWizard_rev	// Reverb.
    
	POIN2	SonicAdventure2AGhostsPumpkinSoupRandomWizard_grp
    
	POIN2	SonicAdventure2AGhostsPumpkinSoupRandomWizard_001
	POIN2	SonicAdventure2AGhostsPumpkinSoupRandomWizard_002
	POIN2	SonicAdventure2AGhostsPumpkinSoupRandomWizard_003
	POIN2	SonicAdventure2AGhostsPumpkinSoupRandomWizard_004
	POIN2	SonicAdventure2AGhostsPumpkinSoupRandomWizard_005
	POIN2	SonicAdventure2AGhostsPumpkinSoupRandomWizard_006
	POIN2	SonicAdventure2AGhostsPumpkinSoupRandomWizard_007
	POIN2	SonicAdventure2AGhostsPumpkinSoupRandomWizard_008

	
