//Event file generated from Sappy .s format.
	#include "MPlayDef.event"

	#define	SonictheHedgehog3HydrocityZoneAct2MeatOfJustice_grp  voicegroup000
	#define	SonictheHedgehog3HydrocityZoneAct2MeatOfJustice_pri  0
	#define	SonictheHedgehog3HydrocityZoneAct2MeatOfJustice_rev  0
	#define	SonictheHedgehog3HydrocityZoneAct2MeatOfJustice_mvl  127
	#define	SonictheHedgehog3HydrocityZoneAct2MeatOfJustice_key  0
	#define	SonictheHedgehog3HydrocityZoneAct2MeatOfJustice_tbs  1
	#define	SonictheHedgehog3HydrocityZoneAct2MeatOfJustice_exg  0
	#define	SonictheHedgehog3HydrocityZoneAct2MeatOfJustice_cmp  1

	// .rodata
	//	SonictheHedgehog3HydrocityZoneAct2MeatOfJustice
	ALIGN 4


//**************** Track 1 (Midi-Chn.0) ****************//

SonictheHedgehog3HydrocityZoneAct2MeatOfJustice_001:
// 000   ----------------------------------------
 BYTE   KEYSH   SonictheHedgehog3HydrocityZoneAct2MeatOfJustice_key+0
Label_0_014DC8AA:
 BYTE   TEMPO   128*SonictheHedgehog3HydrocityZoneAct2MeatOfJustice_tbs/2
 BYTE   VOICE   109
 BYTE   PAN   c_v-32
 BYTE   VOL   48*SonictheHedgehog3HydrocityZoneAct2MeatOfJustice_mvl/mxv
 BYTE   MOD 0
 BYTE   W96
// 001   ----------------------------------------
 BYTE   W96
// 002   ----------------------------------------
 BYTE   W96
// 003   ----------------------------------------
Label_0_014DC8B7:
 BYTE   W84
 BYTE   N06  Gn4  v127
 BYTE   W06
 BYTE   As4
 BYTE   W06
 BYTE   PEND 
// 004   ----------------------------------------
Label_0_014DC8BF:
 BYTE   N06  Cn5  v127
 BYTE   W06
 BYTE   Gn4
 BYTE   W06
 BYTE   N02  Fs4  v120
 BYTE   W01
 BYTE   Fn4
 BYTE   W02
 BYTE   Ds4  v116
 BYTE   W01
 BYTE   Dn4
 BYTE   W02
 BYTE   Cn4  v112
 BYTE   W01
 BYTE   As3
 BYTE   W02
 BYTE   An3  v108
 BYTE   W01
 BYTE   Gn3
 BYTE   W02
 BYTE   Fs3  v104
 BYTE   W01
 BYTE   Fn3
 BYTE   W02
 BYTE   Ds3  v100
 BYTE   W01
 BYTE   Dn3
 BYTE   W02
 BYTE   N06  As3  v127
 BYTE   W06
 BYTE   Cn4
 BYTE   W06
 BYTE   Gn3
 BYTE   W06
 BYTE   N02  Fn3
 BYTE   W01
 BYTE   N04  Fs3
 BYTE   W05
 BYTE   N06  Fn3
 BYTE   W06
 BYTE   Ds3
 BYTE   W06
 BYTE   Cn3
 BYTE   W06
 BYTE   N02  An3
 BYTE   W01
 BYTE   N16  As3
 BYTE   W17
 BYTE   N18  An3
 BYTE   W06
 BYTE   PEND 
// 005   ----------------------------------------
Label_0_014DC903:
 BYTE   W12
 BYTE   N02  Gn3  v127
 BYTE   W01
 BYTE   Fs3
 BYTE   W02
 BYTE   Fn3  v124
 BYTE   W01
 BYTE   Ds3
 BYTE   W02
 BYTE   Dn3  v120
 BYTE   W01
 BYTE   Cn3
 BYTE   W02
 BYTE   As2  v116
 BYTE   W01
 BYTE   An2
 BYTE   W02
 BYTE   Gn2  v112
 BYTE   W01
 BYTE   Fs2
 BYTE   W02
 BYTE   Fn2  v108
 BYTE   W01
 BYTE   Ds2
 BYTE   W02
 BYTE   Dn2  v104
 BYTE   W01
 BYTE   Cn2
 BYTE   W02
 BYTE   As1  v100
 BYTE   W01
 BYTE   An1
 BYTE   W48
 BYTE   W02
 BYTE   N06  As3  v127
 BYTE   W06
 BYTE   Bn3
 BYTE   W06
 BYTE   PEND 
// 006   ----------------------------------------
Label_0_014DC935:
 BYTE   N06  Cn4  v127
 BYTE   W06
 BYTE   Gn3
 BYTE   W06
 BYTE   N02  Fs3  v120
 BYTE   W01
 BYTE   Fn3
 BYTE   W02
 BYTE   Ds3  v116
 BYTE   W01
 BYTE   Dn3
 BYTE   W02
 BYTE   Cn3  v112
 BYTE   W01
 BYTE   As2
 BYTE   W02
 BYTE   An2  v108
 BYTE   W01
 BYTE   Gn2
 BYTE   W02
 BYTE   Fs2  v104
 BYTE   W01
 BYTE   Fn2
 BYTE   W02
 BYTE   Ds2  v100
 BYTE   W01
 BYTE   Dn2
 BYTE   W02
 BYTE   Fn3  v127
 BYTE   W01
 BYTE   N04  Fs3
 BYTE   W05
 BYTE   N06  Fn3
 BYTE   W06
 BYTE   Ds3
 BYTE   W06
 BYTE   Fn3
 BYTE   W06
 BYTE   Ds3
 BYTE   W06
 BYTE   Cn3
 BYTE   W06
 BYTE   As2
 BYTE   W06
 BYTE   N18  Gn3
 BYTE   W18
 BYTE   Cn4
 BYTE   W06
 BYTE   PEND 
// 007   ----------------------------------------
Label_0_014DC973:
 BYTE   W12
 BYTE   N02  As3  v127
 BYTE   W01
 BYTE   An3
 BYTE   W02
 BYTE   Gn3  v124
 BYTE   W01
 BYTE   Fs3
 BYTE   W02
 BYTE   Fn3  v120
 BYTE   W01
 BYTE   Ds3
 BYTE   W02
 BYTE   Dn3  v116
 BYTE   W01
 BYTE   Cn3
 BYTE   W02
 BYTE   As2  v112
 BYTE   W01
 BYTE   An2
 BYTE   W02
 BYTE   Gn2  v108
 BYTE   W01
 BYTE   Fs2
 BYTE   W02
 BYTE   Fn2  v104
 BYTE   W01
 BYTE   Ds2
 BYTE   W02
 BYTE   Dn2  v100
 BYTE   W01
 BYTE   Cn2
 BYTE   W48
 BYTE   W02
 BYTE   N06  Gn4  v127
 BYTE   W06
 BYTE   As4
 BYTE   W06
 BYTE   PEND 
// 008   ----------------------------------------
 BYTE   PATT
  POIN2 Label_0_014DC8BF
// 009   ----------------------------------------
 BYTE   PATT
  POIN2 Label_0_014DC903
// 010   ----------------------------------------
Label_0_014DC9AF:
 BYTE   N06  Cn4  v127
 BYTE   W06
 BYTE   Gn3
 BYTE   W06
 BYTE   N02  Fs3  v120
 BYTE   W01
 BYTE   Fn3
 BYTE   W02
 BYTE   Ds3  v116
 BYTE   W01
 BYTE   Dn3
 BYTE   W02
 BYTE   Cn3  v112
 BYTE   W01
 BYTE   As2
 BYTE   W02
 BYTE   An2  v108
 BYTE   W01
 BYTE   Gn2
 BYTE   W02
 BYTE   Fs2  v104
 BYTE   W01
 BYTE   Fn2
 BYTE   W02
 BYTE   Ds2  v100
 BYTE   W01
 BYTE   Dn2
 BYTE   W02
 BYTE   Fn3  v127
 BYTE   W01
 BYTE   N04  Fs3
 BYTE   W05
 BYTE   N06  Fn3
 BYTE   W06
 BYTE   Ds3
 BYTE   W06
 BYTE   Fn3
 BYTE   W06
 BYTE   Ds3
 BYTE   W06
 BYTE   Cn3
 BYTE   W06
 BYTE   As2
 BYTE   W06
 BYTE   N18  Gn3
 BYTE   W18
 BYTE   Ds3
 BYTE   W06
 BYTE   PEND 
// 011   ----------------------------------------
Label_0_014DC9ED:
 BYTE   W12
 BYTE   N02  Dn3  v127
 BYTE   W01
 BYTE   Cn3
 BYTE   W02
 BYTE   As2  v124
 BYTE   W01
 BYTE   An2
 BYTE   W02
 BYTE   Gn2  v120
 BYTE   W01
 BYTE   Fs2
 BYTE   W02
 BYTE   Fn2  v116
 BYTE   W01
 BYTE   Ds2
 BYTE   W02
 BYTE   Dn2  v112
 BYTE   W01
 BYTE   Cn2
 BYTE   W02
 BYTE   As1  v108
 BYTE   W01
 BYTE   An1
 BYTE   W02
 BYTE   Gn1  v104
 BYTE   W01
 BYTE   Fs1
 BYTE   W02
 BYTE   Fn1  v100
 BYTE   W01
 BYTE   Ds1
 BYTE   W60
 BYTE   W02
 BYTE   PEND 
// 012   ----------------------------------------
 BYTE   W96
// 013   ----------------------------------------
 BYTE   W96
// 014   ----------------------------------------
 BYTE   W96
// 015   ----------------------------------------
 BYTE   W96
// 016   ----------------------------------------
 BYTE   W96
// 017   ----------------------------------------
 BYTE   W96
// 018   ----------------------------------------
 BYTE   W96
// 019   ----------------------------------------
Label_0_014DCA20:
 BYTE   W84
 BYTE   N06  Cn4  v127
 BYTE   W06
 BYTE   Dn4
 BYTE   W06
 BYTE   PEND 
// 020   ----------------------------------------
Label_0_014DCA28:
 BYTE   N12  Ds4  v127
 BYTE   W12
 BYTE   N02  Dn4
 BYTE   W01
 BYTE   Cn4
 BYTE   W02
 BYTE   As3  v124
 BYTE   W01
 BYTE   An3
 BYTE   W02
 BYTE   Gn3  v120
 BYTE   W01
 BYTE   Fs3
 BYTE   W02
 BYTE   Fn3  v116
 BYTE   W01
 BYTE   Ds3
 BYTE   W02
 BYTE   N12  Cn4  v127
 BYTE   W12
 BYTE   N06  Ds4
 BYTE   W06
 BYTE   N02  En4
 BYTE   W01
 BYTE   Fn4
 BYTE   W11
 BYTE   N18  Dn4
 BYTE   W18
 BYTE   N06  Cn4
 BYTE   W12
 BYTE   As3
 BYTE   W12
 BYTE   PEND 
// 021   ----------------------------------------
Label_0_014DCA55:
 BYTE   N24  Gn3  v127
 BYTE   W24
 BYTE   N12
 BYTE   W12
 BYTE   N06  Fn3
 BYTE   W06
 BYTE   N42  Gn3
 BYTE   W42
 BYTE   N06  Cn4
 BYTE   W06
 BYTE   Dn4
 BYTE   W06
 BYTE   PEND 
// 022   ----------------------------------------
Label_0_014DCA67:
 BYTE   N12  Ds4  v127
 BYTE   W12
 BYTE   N02  Dn4
 BYTE   W01
 BYTE   Cn4
 BYTE   W02
 BYTE   As3  v124
 BYTE   W01
 BYTE   An3
 BYTE   W02
 BYTE   Gn3  v120
 BYTE   W01
 BYTE   Fs3
 BYTE   W02
 BYTE   Fn3  v116
 BYTE   W01
 BYTE   Ds3
 BYTE   W02
 BYTE   N12  Cn4  v127
 BYTE   W12
 BYTE   N06  Ds4
 BYTE   W06
 BYTE   N02  En4
 BYTE   W01
 BYTE   Fn4
 BYTE   W11
 BYTE   N18  Dn4
 BYTE   W18
 BYTE   N06  Cn4
 BYTE   W12
 BYTE   Bn3
 BYTE   W12
 BYTE   PEND 
// 023   ----------------------------------------
Label_0_014DCA94:
 BYTE   N24  Cn4  v127
 BYTE   W24
 BYTE   N12  Dn4
 BYTE   W12
 BYTE   N06  Cn4
 BYTE   W06
 BYTE   Dn4
 BYTE   W12
 BYTE   N18  Ds4
 BYTE   W18
 BYTE   N12  Fn4
 BYTE   W12
 BYTE   N06  Cn4
 BYTE   W06
 BYTE   Dn4
 BYTE   W06
 BYTE   PEND 
// 024   ----------------------------------------
 BYTE   PATT
  POIN2 Label_0_014DCA28
// 025   ----------------------------------------
 BYTE   PATT
  POIN2 Label_0_014DCA55
// 026   ----------------------------------------
Label_0_014DCAB6:
 BYTE   N18  Ds4  v127
 BYTE   W18
 BYTE   N06
 BYTE   W12
 BYTE   Dn4
 BYTE   W06
 BYTE   N24  Ds4
 BYTE   W24
 BYTE   N12  Fn4
 BYTE   W12
 BYTE   Ds4
 BYTE   W12
 BYTE   Gs4
 BYTE   W12
 BYTE   PEND 
// 027   ----------------------------------------
Label_0_014DCAC9:
 BYTE   W06
 BYTE   N06  Cn5  v127
 BYTE   W12
 BYTE   N06
 BYTE   W12
 BYTE   N06
 BYTE   W06
 BYTE   N12
 BYTE   W12
 BYTE   N06  Bn4
 BYTE   W48
 BYTE   PEND 
// 028   ----------------------------------------
 BYTE   W96
// 029   ----------------------------------------
 BYTE   W96
// 030   ----------------------------------------
 BYTE   W96
// 031   ----------------------------------------
 BYTE   PATT
  POIN2 Label_0_014DC8B7
// 032   ----------------------------------------
 BYTE   PATT
  POIN2 Label_0_014DC8BF
// 033   ----------------------------------------
 BYTE   PATT
  POIN2 Label_0_014DC903
// 034   ----------------------------------------
 BYTE   PATT
  POIN2 Label_0_014DC935
// 035   ----------------------------------------
 BYTE   PATT
  POIN2 Label_0_014DC973
// 036   ----------------------------------------
 BYTE   PATT
  POIN2 Label_0_014DC8BF
// 037   ----------------------------------------
 BYTE   PATT
  POIN2 Label_0_014DC903
// 038   ----------------------------------------
 BYTE   PATT
  POIN2 Label_0_014DC9AF
// 039   ----------------------------------------
 BYTE   PATT
  POIN2 Label_0_014DC9ED
// 040   ----------------------------------------
 BYTE   W96
// 041   ----------------------------------------
 BYTE   W96
// 042   ----------------------------------------
 BYTE   W96
// 043   ----------------------------------------
 BYTE   W96
// 044   ----------------------------------------
 BYTE   W96
// 045   ----------------------------------------
 BYTE   W96
// 046   ----------------------------------------
 BYTE   W96
// 047   ----------------------------------------
 BYTE   PATT
  POIN2 Label_0_014DCA20
// 048   ----------------------------------------
 BYTE   PATT
  POIN2 Label_0_014DCA28
// 049   ----------------------------------------
 BYTE   PATT
  POIN2 Label_0_014DCA55
// 050   ----------------------------------------
 BYTE   PATT
  POIN2 Label_0_014DCA67
// 051   ----------------------------------------
 BYTE   PATT
  POIN2 Label_0_014DCA94
// 052   ----------------------------------------
 BYTE   PATT
  POIN2 Label_0_014DCA28
// 053   ----------------------------------------
 BYTE   PATT
  POIN2 Label_0_014DCA55
// 054   ----------------------------------------
 BYTE   PATT
  POIN2 Label_0_014DCAB6
// 055   ----------------------------------------
 BYTE   PATT
  POIN2 Label_0_014DCAC9
// 056   ----------------------------------------
 BYTE   GoTo
  POIN2 Label_0_014DC8AA
// 057   ----------------------------------------
 BYTE   W96
// 058   ----------------------------------------
 BYTE   W96
// 059   ----------------------------------------
 BYTE   W96
// 060   ----------------------------------------
 BYTE   PATT
  POIN2 Label_0_014DC8B7
// 061   ----------------------------------------
 BYTE   PATT
  POIN2 Label_0_014DC8BF
// 062   ----------------------------------------
 BYTE   PATT
  POIN2 Label_0_014DC903
// 063   ----------------------------------------
 BYTE   VOL   47*SonictheHedgehog3HydrocityZoneAct2MeatOfJustice_mvl/mxv
 BYTE   N06  Cn4  v127
 BYTE   W06
 BYTE   Gn3
 BYTE   W06
 BYTE   VOL   45*SonictheHedgehog3HydrocityZoneAct2MeatOfJustice_mvl/mxv
 BYTE   N02  Fs3  v120
 BYTE   W01
 BYTE   Fn3
 BYTE   W02
 BYTE   Ds3  v116
 BYTE   W01
 BYTE   Dn3
 BYTE   W02
 BYTE   Cn3  v112
 BYTE   W01
 BYTE   As2
 BYTE   W02
 BYTE   An2  v108
 BYTE   W01
 BYTE   Gn2
 BYTE   W02
 BYTE   VOL   45*SonictheHedgehog3HydrocityZoneAct2MeatOfJustice_mvl/mxv
 BYTE   N02  Fs2  v104
 BYTE   W01
 BYTE   Fn2
 BYTE   W02
 BYTE   Ds2  v100
 BYTE   W01
 BYTE   Dn2
 BYTE   W02
 BYTE   Fn3  v127
 BYTE   W01
 BYTE   N04  Fs3
 BYTE   W05
 BYTE   VOL   44*SonictheHedgehog3HydrocityZoneAct2MeatOfJustice_mvl/mxv
 BYTE   N06  Fn3
 BYTE   W06
 BYTE   Ds3
 BYTE   W06
 BYTE   VOL   42*SonictheHedgehog3HydrocityZoneAct2MeatOfJustice_mvl/mxv
 BYTE   N06  Fn3
 BYTE   W06
 BYTE   Ds3
 BYTE   W06
 BYTE   VOL   41*SonictheHedgehog3HydrocityZoneAct2MeatOfJustice_mvl/mxv
 BYTE   N06  Cn3
 BYTE   W06
 BYTE   As2
 BYTE   W06
 BYTE   VOL   40*SonictheHedgehog3HydrocityZoneAct2MeatOfJustice_mvl/mxv
 BYTE   N18  Gn3
 BYTE   W12
 BYTE   VOL   39*SonictheHedgehog3HydrocityZoneAct2MeatOfJustice_mvl/mxv
 BYTE   W06
 BYTE   N18  Cn4
 BYTE   W06
// 064   ----------------------------------------
 BYTE   VOL   38*SonictheHedgehog3HydrocityZoneAct2MeatOfJustice_mvl/mxv
 BYTE   W12
 BYTE   VOL   37*SonictheHedgehog3HydrocityZoneAct2MeatOfJustice_mvl/mxv
 BYTE   N02  As3
 BYTE   W01
 BYTE   An3
 BYTE   W02
 BYTE   Gn3  v124
 BYTE   W01
 BYTE   Fs3
 BYTE   W02
 BYTE   Fn3  v120
 BYTE   W01
 BYTE   Ds3
 BYTE   W02
 BYTE   Dn3  v116
 BYTE   W01
 BYTE   Cn3
 BYTE   W02
 BYTE   VOL   35*SonictheHedgehog3HydrocityZoneAct2MeatOfJustice_mvl/mxv
 BYTE   N02  As2  v112
 BYTE   W01
 BYTE   An2
 BYTE   W02
 BYTE   Gn2  v108
 BYTE   W01
 BYTE   Fs2
 BYTE   W02
 BYTE   Fn2  v104
 BYTE   W01
 BYTE   Ds2
 BYTE   W02
 BYTE   Dn2  v100
 BYTE   W01
 BYTE   Cn2
 BYTE   W02
 BYTE   VOL   35*SonictheHedgehog3HydrocityZoneAct2MeatOfJustice_mvl/mxv
 BYTE   W12
 BYTE   VOL   33*SonictheHedgehog3HydrocityZoneAct2MeatOfJustice_mvl/mxv
 BYTE   W12
 BYTE   VOL   32*SonictheHedgehog3HydrocityZoneAct2MeatOfJustice_mvl/mxv
 BYTE   W12
 BYTE   VOL   31*SonictheHedgehog3HydrocityZoneAct2MeatOfJustice_mvl/mxv
 BYTE   W12
 BYTE   VOL   30*SonictheHedgehog3HydrocityZoneAct2MeatOfJustice_mvl/mxv
 BYTE   N06  Gn4  v127
 BYTE   W06
 BYTE   As4
 BYTE   W06
// 065   ----------------------------------------
 BYTE   VOL   29*SonictheHedgehog3HydrocityZoneAct2MeatOfJustice_mvl/mxv
 BYTE   N06  Cn5
 BYTE   W06
 BYTE   Gn4
 BYTE   W06
 BYTE   VOL   28*SonictheHedgehog3HydrocityZoneAct2MeatOfJustice_mvl/mxv
 BYTE   N02  Fs4  v120
 BYTE   W01
 BYTE   Fn4
 BYTE   W02
 BYTE   Ds4  v116
 BYTE   W01
 BYTE   Dn4
 BYTE   W02
 BYTE   Cn4  v112
 BYTE   W01
 BYTE   As3
 BYTE   W02
 BYTE   An3  v108
 BYTE   W01
 BYTE   Gn3
 BYTE   W02
 BYTE   VOL   27*SonictheHedgehog3HydrocityZoneAct2MeatOfJustice_mvl/mxv
 BYTE   N02  Fs3  v104
 BYTE   W01
 BYTE   Fn3
 BYTE   W02
 BYTE   Ds3  v100
 BYTE   W01
 BYTE   Dn3
 BYTE   W02
 BYTE   N06  As3  v127
 BYTE   W06
 BYTE   VOL   26*SonictheHedgehog3HydrocityZoneAct2MeatOfJustice_mvl/mxv
 BYTE   N06  Cn4
 BYTE   W06
 BYTE   Gn3
 BYTE   W06
 BYTE   VOL   25*SonictheHedgehog3HydrocityZoneAct2MeatOfJustice_mvl/mxv
 BYTE   N02  Fn3
 BYTE   W01
 BYTE   N04  Fs3
 BYTE   W05
 BYTE   N06  Fn3
 BYTE   W06
 BYTE   VOL   23*SonictheHedgehog3HydrocityZoneAct2MeatOfJustice_mvl/mxv
 BYTE   N06  Ds3
 BYTE   W06
 BYTE   Cn3
 BYTE   W06
 BYTE   VOL   22*SonictheHedgehog3HydrocityZoneAct2MeatOfJustice_mvl/mxv
 BYTE   N02  An3
 BYTE   W01
 BYTE   N16  As3
 BYTE   W11
 BYTE   VOL   22*SonictheHedgehog3HydrocityZoneAct2MeatOfJustice_mvl/mxv
 BYTE   W06
 BYTE   N18  An3
 BYTE   W06
// 066   ----------------------------------------
 BYTE   VOL   20*SonictheHedgehog3HydrocityZoneAct2MeatOfJustice_mvl/mxv
 BYTE   W12
 BYTE   VOL   19*SonictheHedgehog3HydrocityZoneAct2MeatOfJustice_mvl/mxv
 BYTE   N02  Gn3
 BYTE   W01
 BYTE   Fs3
 BYTE   W02
 BYTE   Fn3  v124
 BYTE   W01
 BYTE   Ds3
 BYTE   W02
 BYTE   Dn3  v120
 BYTE   W01
 BYTE   Cn3
 BYTE   W02
 BYTE   As2  v116
 BYTE   W01
 BYTE   An2
 BYTE   W02
 BYTE   VOL   18*SonictheHedgehog3HydrocityZoneAct2MeatOfJustice_mvl/mxv
 BYTE   N02  Gn2  v112
 BYTE   W01
 BYTE   Fs2
 BYTE   W02
 BYTE   Fn2  v108
 BYTE   W01
 BYTE   Ds2
 BYTE   W02
 BYTE   Dn2  v104
 BYTE   W01
 BYTE   Cn2
 BYTE   W02
 BYTE   As1  v100
 BYTE   W01
 BYTE   An1
 BYTE   W02
 BYTE   VOL   17*SonictheHedgehog3HydrocityZoneAct2MeatOfJustice_mvl/mxv
 BYTE   W12
 BYTE   VOL   16*SonictheHedgehog3HydrocityZoneAct2MeatOfJustice_mvl/mxv
 BYTE   W12
 BYTE   VOL   15*SonictheHedgehog3HydrocityZoneAct2MeatOfJustice_mvl/mxv
 BYTE   W12
 BYTE   VOL   14*SonictheHedgehog3HydrocityZoneAct2MeatOfJustice_mvl/mxv
 BYTE   W12
 BYTE   VOL   13*SonictheHedgehog3HydrocityZoneAct2MeatOfJustice_mvl/mxv
 BYTE   N06  As3  v127
 BYTE   W06
 BYTE   Bn3
 BYTE   W06
// 067   ----------------------------------------
 BYTE   VOL   11*SonictheHedgehog3HydrocityZoneAct2MeatOfJustice_mvl/mxv
 BYTE   N06  Cn4
 BYTE   W06
 BYTE   Gn3
 BYTE   W06
 BYTE   VOL   11*SonictheHedgehog3HydrocityZoneAct2MeatOfJustice_mvl/mxv
 BYTE   N02  Fs3  v120
 BYTE   W01
 BYTE   Fn3
 BYTE   W02
 BYTE   Ds3  v116
 BYTE   W01
 BYTE   Dn3
 BYTE   W02
 BYTE   Cn3  v112
 BYTE   W01
 BYTE   As2
 BYTE   W02
 BYTE   An2  v108
 BYTE   W01
 BYTE   Gn2
 BYTE   W02
 BYTE   VOL   10*SonictheHedgehog3HydrocityZoneAct2MeatOfJustice_mvl/mxv
 BYTE   N02  Fs2  v104
 BYTE   W01
 BYTE   Fn2
 BYTE   W02
 BYTE   Ds2  v100
 BYTE   W01
 BYTE   Dn2
 BYTE   W02
 BYTE   Fn3  v127
 BYTE   W01
 BYTE   N04  Fs3
 BYTE   W05
 BYTE   VOL   8*SonictheHedgehog3HydrocityZoneAct2MeatOfJustice_mvl/mxv
 BYTE   N06  Fn3
 BYTE   W06
 BYTE   Ds3
 BYTE   W06
 BYTE   VOL   8*SonictheHedgehog3HydrocityZoneAct2MeatOfJustice_mvl/mxv
 BYTE   N06  Fn3
 BYTE   W06
 BYTE   Ds3
 BYTE   W06
 BYTE   VOL   6*SonictheHedgehog3HydrocityZoneAct2MeatOfJustice_mvl/mxv
 BYTE   N06  Cn3
 BYTE   W06
 BYTE   As2
 BYTE   W06
 BYTE   VOL   5*SonictheHedgehog3HydrocityZoneAct2MeatOfJustice_mvl/mxv
 BYTE   N18  Gn3
 BYTE   W12
 BYTE   VOL   5*SonictheHedgehog3HydrocityZoneAct2MeatOfJustice_mvl/mxv
 BYTE   W12
 BYTE   FINE

//**************** Track 2 (Midi-Chn.1) ****************//

SonictheHedgehog3HydrocityZoneAct2MeatOfJustice_002:
// 000   ----------------------------------------
 BYTE   KEYSH   SonictheHedgehog3HydrocityZoneAct2MeatOfJustice_key+0
Label_1_014DCCCA:
 BYTE   VOICE   109
 BYTE   PAN   c_v+31
 BYTE   VOL   32*SonictheHedgehog3HydrocityZoneAct2MeatOfJustice_mvl/mxv
 BYTE   MOD 0
 BYTE   W96
// 001   ----------------------------------------
 BYTE   W96
// 002   ----------------------------------------
 BYTE   W96
// 003   ----------------------------------------
 BYTE   W90
 BYTE   N06  Gn4  v127
 BYTE   W06
// 004   ----------------------------------------
Label_1_014DCCDA:
 BYTE   N06  As4  v127
 BYTE   W06
 BYTE   Cn5
 BYTE   W06
 BYTE   Gn4
 BYTE   W06
 BYTE   N02  Fs4  v120
 BYTE   W01
 BYTE   Fn4
 BYTE   W02
 BYTE   Ds4  v116
 BYTE   W01
 BYTE   Dn4
 BYTE   W02
 BYTE   Cn4  v112
 BYTE   W01
 BYTE   As3
 BYTE   W02
 BYTE   An3  v108
 BYTE   W01
 BYTE   Gn3
 BYTE   W02
 BYTE   Fs3  v104
 BYTE   W01
 BYTE   Fn3
 BYTE   W02
 BYTE   Ds3  v100
 BYTE   W01
 BYTE   Dn3
 BYTE   W02
 BYTE   N06  As3  v127
 BYTE   W06
 BYTE   Cn4
 BYTE   W06
 BYTE   Gn3
 BYTE   W06
 BYTE   N02  Fn3
 BYTE   W01
 BYTE   N04  Fs3
 BYTE   W05
 BYTE   N06  Fn3
 BYTE   W06
 BYTE   Ds3
 BYTE   W06
 BYTE   Cn3
 BYTE   W06
 BYTE   N02  An3
 BYTE   W01
 BYTE   N16  As3
 BYTE   W17
 BYTE   PEND 
// 005   ----------------------------------------
Label_1_014DCD1D:
 BYTE   N18  An3  v127
 BYTE   W18
 BYTE   N02  Gn3
 BYTE   W01
 BYTE   Fs3
 BYTE   W02
 BYTE   Fn3  v124
 BYTE   W01
 BYTE   Ds3
 BYTE   W02
 BYTE   Dn3  v120
 BYTE   W01
 BYTE   Cn3
 BYTE   W02
 BYTE   As2  v116
 BYTE   W01
 BYTE   An2
 BYTE   W02
 BYTE   Gn2  v112
 BYTE   W01
 BYTE   Fs2
 BYTE   W02
 BYTE   Fn2  v108
 BYTE   W01
 BYTE   Ds2
 BYTE   W02
 BYTE   Dn2  v104
 BYTE   W01
 BYTE   Cn2
 BYTE   W02
 BYTE   As1  v100
 BYTE   W01
 BYTE   An1
 BYTE   W48
 BYTE   W02
 BYTE   N06  As3  v127
 BYTE   W06
 BYTE   PEND 
// 006   ----------------------------------------
Label_1_014DCD4F:
 BYTE   N06  Bn3  v127
 BYTE   W06
 BYTE   Cn4
 BYTE   W06
 BYTE   Gn3
 BYTE   W06
 BYTE   N02  Fs3  v120
 BYTE   W01
 BYTE   Fn3
 BYTE   W02
 BYTE   Ds3  v116
 BYTE   W01
 BYTE   Dn3
 BYTE   W02
 BYTE   Cn3  v112
 BYTE   W01
 BYTE   As2
 BYTE   W02
 BYTE   An2  v108
 BYTE   W01
 BYTE   Gn2
 BYTE   W02
 BYTE   Fs2  v104
 BYTE   W01
 BYTE   Fn2
 BYTE   W02
 BYTE   Ds2  v100
 BYTE   W01
 BYTE   Dn2
 BYTE   W02
 BYTE   Fn3  v127
 BYTE   W01
 BYTE   N04  Fs3
 BYTE   W05
 BYTE   N06  Fn3
 BYTE   W06
 BYTE   Ds3
 BYTE   W06
 BYTE   Fn3
 BYTE   W06
 BYTE   Ds3
 BYTE   W06
 BYTE   Cn3
 BYTE   W06
 BYTE   As2
 BYTE   W06
 BYTE   N18  Gn3
 BYTE   W18
 BYTE   PEND 
// 007   ----------------------------------------
Label_1_014DCD8D:
 BYTE   N18  Cn4  v127
 BYTE   W18
 BYTE   N02  As3
 BYTE   W01
 BYTE   An3
 BYTE   W02
 BYTE   Gn3  v124
 BYTE   W01
 BYTE   Fs3
 BYTE   W02
 BYTE   Fn3  v120
 BYTE   W01
 BYTE   Ds3
 BYTE   W02
 BYTE   Dn3  v116
 BYTE   W01
 BYTE   Cn3
 BYTE   W02
 BYTE   As2  v112
 BYTE   W01
 BYTE   An2
 BYTE   W02
 BYTE   Gn2  v108
 BYTE   W01
 BYTE   Fs2
 BYTE   W02
 BYTE   Fn2  v104
 BYTE   W01
 BYTE   Ds2
 BYTE   W02
 BYTE   Dn2  v100
 BYTE   W01
 BYTE   Cn2
 BYTE   W48
 BYTE   W02
 BYTE   N06  Gn4  v127
 BYTE   W06
 BYTE   PEND 
// 008   ----------------------------------------
 BYTE   PATT
  POIN2 Label_1_014DCCDA
// 009   ----------------------------------------
 BYTE   PATT
  POIN2 Label_1_014DCD1D
// 010   ----------------------------------------
 BYTE   PATT
  POIN2 Label_1_014DCD4F
// 011   ----------------------------------------
Label_1_014DCDCE:
 BYTE   N18  Ds3  v127
 BYTE   W18
 BYTE   N02  Dn3
 BYTE   W01
 BYTE   Cn3
 BYTE   W02
 BYTE   As2  v124
 BYTE   W01
 BYTE   An2
 BYTE   W02
 BYTE   Gn2  v120
 BYTE   W01
 BYTE   Fs2
 BYTE   W02
 BYTE   Fn2  v116
 BYTE   W01
 BYTE   Ds2
 BYTE   W02
 BYTE   Dn2  v112
 BYTE   W01
 BYTE   Cn2
 BYTE   W02
 BYTE   As1  v108
 BYTE   W01
 BYTE   An1
 BYTE   W02
 BYTE   Gn1  v104
 BYTE   W01
 BYTE   Fs1
 BYTE   W02
 BYTE   Fn1  v100
 BYTE   W01
 BYTE   Ds1
 BYTE   W56
 BYTE   PEND 
// 012   ----------------------------------------
 BYTE   W96
// 013   ----------------------------------------
 BYTE   W96
// 014   ----------------------------------------
 BYTE   W96
// 015   ----------------------------------------
 BYTE   W96
// 016   ----------------------------------------
 BYTE   W96
// 017   ----------------------------------------
 BYTE   W96
// 018   ----------------------------------------
 BYTE   W96
// 019   ----------------------------------------
 BYTE   W90
 BYTE   N06  Cn4  v127
 BYTE   W06
// 020   ----------------------------------------
Label_1_014DCE07:
 BYTE   N06  Dn4  v127
 BYTE   W06
 BYTE   N12  Ds4
 BYTE   W12
 BYTE   N02  Dn4
 BYTE   W01
 BYTE   Cn4
 BYTE   W02
 BYTE   As3  v124
 BYTE   W01
 BYTE   An3
 BYTE   W02
 BYTE   Gn3  v120
 BYTE   W01
 BYTE   Fs3
 BYTE   W02
 BYTE   Fn3  v116
 BYTE   W01
 BYTE   Ds3
 BYTE   W02
 BYTE   N12  Cn4  v127
 BYTE   W12
 BYTE   N06  Ds4
 BYTE   W06
 BYTE   N02  En4
 BYTE   W01
 BYTE   Fn4
 BYTE   W11
 BYTE   N18  Dn4
 BYTE   W18
 BYTE   N06  Cn4
 BYTE   W12
 BYTE   As3
 BYTE   W06
 BYTE   PEND 
// 021   ----------------------------------------
Label_1_014DCE37:
 BYTE   W06
 BYTE   N24  Gn3  v127
 BYTE   W24
 BYTE   N12
 BYTE   W12
 BYTE   N06  Fn3
 BYTE   W06
 BYTE   N42  Gn3
 BYTE   W42
 BYTE   N06  Cn4
 BYTE   W06
 BYTE   PEND 
// 022   ----------------------------------------
Label_1_014DCE48:
 BYTE   N06  Dn4  v127
 BYTE   W06
 BYTE   N12  Ds4
 BYTE   W12
 BYTE   N02  Dn4
 BYTE   W01
 BYTE   Cn4
 BYTE   W02
 BYTE   As3  v124
 BYTE   W01
 BYTE   An3
 BYTE   W02
 BYTE   Gn3  v120
 BYTE   W01
 BYTE   Fs3
 BYTE   W02
 BYTE   Fn3  v116
 BYTE   W01
 BYTE   Ds3
 BYTE   W02
 BYTE   N12  Cn4  v127
 BYTE   W12
 BYTE   N06  Ds4
 BYTE   W06
 BYTE   N02  En4
 BYTE   W01
 BYTE   Fn4
 BYTE   W11
 BYTE   N18  Dn4
 BYTE   W18
 BYTE   N06  Cn4
 BYTE   W12
 BYTE   Bn3
 BYTE   W06
 BYTE   PEND 
// 023   ----------------------------------------
Label_1_014DCE78:
 BYTE   W06
 BYTE   N24  Cn4  v127
 BYTE   W24
 BYTE   N12  Dn4
 BYTE   W12
 BYTE   N06  Cn4
 BYTE   W06
 BYTE   Dn4
 BYTE   W12
 BYTE   N18  Ds4
 BYTE   W18
 BYTE   N12  Fn4
 BYTE   W12
 BYTE   N06  Cn4
 BYTE   W06
 BYTE   PEND 
// 024   ----------------------------------------
 BYTE   PATT
  POIN2 Label_1_014DCE07
// 025   ----------------------------------------
 BYTE   PATT
  POIN2 Label_1_014DCE37
// 026   ----------------------------------------
Label_1_014DCE99:
 BYTE   N06  Dn4  v127
 BYTE   W06
 BYTE   N18  Ds4
 BYTE   W18
 BYTE   N06
 BYTE   W12
 BYTE   Dn4
 BYTE   W06
 BYTE   N24  Ds4
 BYTE   W24
 BYTE   N12  Fn4
 BYTE   W12
 BYTE   Ds4
 BYTE   W12
 BYTE   Gs4
 BYTE   W06
 BYTE   PEND 
// 027   ----------------------------------------
Label_1_014DCEAF:
 BYTE   W12
 BYTE   N06  Cn5  v127
 BYTE   W12
 BYTE   N06
 BYTE   W12
 BYTE   N06
 BYTE   W06
 BYTE   N12
 BYTE   W12
 BYTE   N06  Bn4
 BYTE   W42
 BYTE   PEND 
// 028   ----------------------------------------
 BYTE   W96
// 029   ----------------------------------------
 BYTE   W96
// 030   ----------------------------------------
 BYTE   W96
// 031   ----------------------------------------
 BYTE   W90
 BYTE   Gn4
 BYTE   W06
// 032   ----------------------------------------
 BYTE   PATT
  POIN2 Label_1_014DCCDA
// 033   ----------------------------------------
 BYTE   PATT
  POIN2 Label_1_014DCD1D
// 034   ----------------------------------------
 BYTE   PATT
  POIN2 Label_1_014DCD4F
// 035   ----------------------------------------
 BYTE   PATT
  POIN2 Label_1_014DCD8D
// 036   ----------------------------------------
 BYTE   PATT
  POIN2 Label_1_014DCCDA
// 037   ----------------------------------------
 BYTE   PATT
  POIN2 Label_1_014DCD1D
// 038   ----------------------------------------
 BYTE   PATT
  POIN2 Label_1_014DCD4F
// 039   ----------------------------------------
 BYTE   PATT
  POIN2 Label_1_014DCDCE
// 040   ----------------------------------------
 BYTE   W96
// 041   ----------------------------------------
 BYTE   W96
// 042   ----------------------------------------
 BYTE   W96
// 043   ----------------------------------------
 BYTE   W96
// 044   ----------------------------------------
 BYTE   W96
// 045   ----------------------------------------
 BYTE   W96
// 046   ----------------------------------------
 BYTE   W96
// 047   ----------------------------------------
 BYTE   W90
 BYTE   N06  Cn4  v127
 BYTE   W06
// 048   ----------------------------------------
 BYTE   PATT
  POIN2 Label_1_014DCE07
// 049   ----------------------------------------
 BYTE   PATT
  POIN2 Label_1_014DCE37
// 050   ----------------------------------------
 BYTE   PATT
  POIN2 Label_1_014DCE48
// 051   ----------------------------------------
 BYTE   PATT
  POIN2 Label_1_014DCE78
// 052   ----------------------------------------
 BYTE   PATT
  POIN2 Label_1_014DCE07
// 053   ----------------------------------------
 BYTE   PATT
  POIN2 Label_1_014DCE37
// 054   ----------------------------------------
 BYTE   PATT
  POIN2 Label_1_014DCE99
// 055   ----------------------------------------
 BYTE   PATT
  POIN2 Label_1_014DCEAF
// 056   ----------------------------------------
 BYTE   GoTo
  POIN2 Label_1_014DCCCA
// 057   ----------------------------------------
 BYTE   W96
// 058   ----------------------------------------
 BYTE   W96
// 059   ----------------------------------------
 BYTE   W96
// 060   ----------------------------------------
 BYTE   W90
 BYTE   N06  Gn4  v127
 BYTE   W06
// 061   ----------------------------------------
 BYTE   PATT
  POIN2 Label_1_014DCCDA
// 062   ----------------------------------------
 BYTE   PATT
  POIN2 Label_1_014DCD1D
// 063   ----------------------------------------
 BYTE   VOL   32*SonictheHedgehog3HydrocityZoneAct2MeatOfJustice_mvl/mxv
 BYTE   N06  Bn3  v127
 BYTE   W06
 BYTE   Cn4
 BYTE   W06
 BYTE   VOL   31*SonictheHedgehog3HydrocityZoneAct2MeatOfJustice_mvl/mxv
 BYTE   N06  Gn3
 BYTE   W06
 BYTE   N02  Fs3  v120
 BYTE   W01
 BYTE   Fn3
 BYTE   W02
 BYTE   Ds3  v116
 BYTE   W01
 BYTE   Dn3
 BYTE   W02
 BYTE   VOL   30*SonictheHedgehog3HydrocityZoneAct2MeatOfJustice_mvl/mxv
 BYTE   N02  Cn3  v112
 BYTE   W01
 BYTE   As2
 BYTE   W02
 BYTE   An2  v108
 BYTE   W01
 BYTE   Gn2
 BYTE   W02
 BYTE   Fs2  v104
 BYTE   W01
 BYTE   Fn2
 BYTE   W02
 BYTE   Ds2  v100
 BYTE   W01
 BYTE   Dn2
 BYTE   W02
 BYTE   VOL   29*SonictheHedgehog3HydrocityZoneAct2MeatOfJustice_mvl/mxv
 BYTE   N02  Fn3  v127
 BYTE   W01
 BYTE   N04  Fs3
 BYTE   W05
 BYTE   N06  Fn3
 BYTE   W06
 BYTE   VOL   29*SonictheHedgehog3HydrocityZoneAct2MeatOfJustice_mvl/mxv
 BYTE   N06  Ds3
 BYTE   W06
 BYTE   Fn3
 BYTE   W06
 BYTE   VOL   28*SonictheHedgehog3HydrocityZoneAct2MeatOfJustice_mvl/mxv
 BYTE   N06  Ds3
 BYTE   W06
 BYTE   Cn3
 BYTE   W06
 BYTE   VOL   27*SonictheHedgehog3HydrocityZoneAct2MeatOfJustice_mvl/mxv
 BYTE   N06  As2
 BYTE   W06
 BYTE   N18  Gn3
 BYTE   W06
 BYTE   VOL   27*SonictheHedgehog3HydrocityZoneAct2MeatOfJustice_mvl/mxv
 BYTE   W12
// 064   ----------------------------------------
 BYTE   VOL   26*SonictheHedgehog3HydrocityZoneAct2MeatOfJustice_mvl/mxv
 BYTE   N18  Cn4
 BYTE   W12
 BYTE   VOL   25*SonictheHedgehog3HydrocityZoneAct2MeatOfJustice_mvl/mxv
 BYTE   W06
 BYTE   N02  As3
 BYTE   W01
 BYTE   An3
 BYTE   W02
 BYTE   Gn3  v124
 BYTE   W01
 BYTE   Fs3
 BYTE   W02
 BYTE   VOL   25*SonictheHedgehog3HydrocityZoneAct2MeatOfJustice_mvl/mxv
 BYTE   N02  Fn3  v120
 BYTE   W01
 BYTE   Ds3
 BYTE   W02
 BYTE   Dn3  v116
 BYTE   W01
 BYTE   Cn3
 BYTE   W02
 BYTE   As2  v112
 BYTE   W01
 BYTE   An2
 BYTE   W02
 BYTE   Gn2  v108
 BYTE   W01
 BYTE   Fs2
 BYTE   W02
 BYTE   VOL   23*SonictheHedgehog3HydrocityZoneAct2MeatOfJustice_mvl/mxv
 BYTE   N02  Fn2  v104
 BYTE   W01
 BYTE   Ds2
 BYTE   W02
 BYTE   Dn2  v100
 BYTE   W01
 BYTE   Cn2
 BYTE   W08
 BYTE   VOL   23*SonictheHedgehog3HydrocityZoneAct2MeatOfJustice_mvl/mxv
 BYTE   W12
 BYTE   VOL   22*SonictheHedgehog3HydrocityZoneAct2MeatOfJustice_mvl/mxv
 BYTE   W12
 BYTE   VOL   22*SonictheHedgehog3HydrocityZoneAct2MeatOfJustice_mvl/mxv
 BYTE   W12
 BYTE   VOL   21*SonictheHedgehog3HydrocityZoneAct2MeatOfJustice_mvl/mxv
 BYTE   W06
 BYTE   N06  Gn4  v127
 BYTE   W06
// 065   ----------------------------------------
 BYTE   VOL   20*SonictheHedgehog3HydrocityZoneAct2MeatOfJustice_mvl/mxv
 BYTE   N06  As4
 BYTE   W06
 BYTE   Cn5
 BYTE   W06
 BYTE   VOL   19*SonictheHedgehog3HydrocityZoneAct2MeatOfJustice_mvl/mxv
 BYTE   N06  Gn4
 BYTE   W06
 BYTE   N02  Fs4  v120
 BYTE   W01
 BYTE   Fn4
 BYTE   W02
 BYTE   Ds4  v116
 BYTE   W01
 BYTE   Dn4
 BYTE   W02
 BYTE   VOL   19*SonictheHedgehog3HydrocityZoneAct2MeatOfJustice_mvl/mxv
 BYTE   N02  Cn4  v112
 BYTE   W01
 BYTE   As3
 BYTE   W02
 BYTE   An3  v108
 BYTE   W01
 BYTE   Gn3
 BYTE   W02
 BYTE   Fs3  v104
 BYTE   W01
 BYTE   Fn3
 BYTE   W02
 BYTE   Ds3  v100
 BYTE   W01
 BYTE   Dn3
 BYTE   W02
 BYTE   VOL   18*SonictheHedgehog3HydrocityZoneAct2MeatOfJustice_mvl/mxv
 BYTE   N06  As3  v127
 BYTE   W06
 BYTE   Cn4
 BYTE   W06
 BYTE   VOL   17*SonictheHedgehog3HydrocityZoneAct2MeatOfJustice_mvl/mxv
 BYTE   N06  Gn3
 BYTE   W06
 BYTE   N02  Fn3
 BYTE   W01
 BYTE   N04  Fs3
 BYTE   W05
 BYTE   VOL   16*SonictheHedgehog3HydrocityZoneAct2MeatOfJustice_mvl/mxv
 BYTE   N06  Fn3
 BYTE   W06
 BYTE   Ds3
 BYTE   W06
 BYTE   VOL   16*SonictheHedgehog3HydrocityZoneAct2MeatOfJustice_mvl/mxv
 BYTE   N06  Cn3
 BYTE   W06
 BYTE   N02  An3
 BYTE   W01
 BYTE   N16  As3
 BYTE   W05
 BYTE   VOL   15*SonictheHedgehog3HydrocityZoneAct2MeatOfJustice_mvl/mxv
 BYTE   W12
// 066   ----------------------------------------
 BYTE   VOL   15*SonictheHedgehog3HydrocityZoneAct2MeatOfJustice_mvl/mxv
 BYTE   N18  An3
 BYTE   W12
 BYTE   VOL   14*SonictheHedgehog3HydrocityZoneAct2MeatOfJustice_mvl/mxv
 BYTE   W06
 BYTE   N02  Gn3
 BYTE   W01
 BYTE   Fs3
 BYTE   W02
 BYTE   Fn3  v124
 BYTE   W01
 BYTE   Ds3
 BYTE   W02
 BYTE   VOL   13*SonictheHedgehog3HydrocityZoneAct2MeatOfJustice_mvl/mxv
 BYTE   N02  Dn3  v120
 BYTE   W01
 BYTE   Cn3
 BYTE   W02
 BYTE   As2  v116
 BYTE   W01
 BYTE   An2
 BYTE   W02
 BYTE   Gn2  v112
 BYTE   W01
 BYTE   Fs2
 BYTE   W02
 BYTE   Fn2  v108
 BYTE   W01
 BYTE   Ds2
 BYTE   W02
 BYTE   VOL   13*SonictheHedgehog3HydrocityZoneAct2MeatOfJustice_mvl/mxv
 BYTE   N02  Dn2  v104
 BYTE   W01
 BYTE   Cn2
 BYTE   W02
 BYTE   As1  v100
 BYTE   W01
 BYTE   An1
 BYTE   W08
 BYTE   VOL   11*SonictheHedgehog3HydrocityZoneAct2MeatOfJustice_mvl/mxv
 BYTE   W12
 BYTE   VOL   11*SonictheHedgehog3HydrocityZoneAct2MeatOfJustice_mvl/mxv
 BYTE   W12
 BYTE   VOL   10*SonictheHedgehog3HydrocityZoneAct2MeatOfJustice_mvl/mxv
 BYTE   W12
 BYTE   VOL   10*SonictheHedgehog3HydrocityZoneAct2MeatOfJustice_mvl/mxv
 BYTE   W06
 BYTE   N06  As3  v127
 BYTE   W06
// 067   ----------------------------------------
 BYTE   VOL   9*SonictheHedgehog3HydrocityZoneAct2MeatOfJustice_mvl/mxv
 BYTE   N06  Bn3
 BYTE   W06
 BYTE   Cn4
 BYTE   W06
 BYTE   VOL   8*SonictheHedgehog3HydrocityZoneAct2MeatOfJustice_mvl/mxv
 BYTE   N06  Gn3
 BYTE   W06
 BYTE   N02  Fs3  v120
 BYTE   W01
 BYTE   Fn3
 BYTE   W02
 BYTE   Ds3  v116
 BYTE   W01
 BYTE   Dn3
 BYTE   W02
 BYTE   VOL   8*SonictheHedgehog3HydrocityZoneAct2MeatOfJustice_mvl/mxv
 BYTE   N02  Cn3  v112
 BYTE   W01
 BYTE   As2
 BYTE   W02
 BYTE   An2  v108
 BYTE   W01
 BYTE   Gn2
 BYTE   W02
 BYTE   Fs2  v104
 BYTE   W01
 BYTE   Fn2
 BYTE   W02
 BYTE   Ds2  v100
 BYTE   W01
 BYTE   Dn2
 BYTE   W02
 BYTE   VOL   7*SonictheHedgehog3HydrocityZoneAct2MeatOfJustice_mvl/mxv
 BYTE   N02  Fn3  v127
 BYTE   W01
 BYTE   N04  Fs3
 BYTE   W05
 BYTE   N06  Fn3
 BYTE   W06
 BYTE   VOL   6*SonictheHedgehog3HydrocityZoneAct2MeatOfJustice_mvl/mxv
 BYTE   N06  Ds3
 BYTE   W06
 BYTE   Fn3
 BYTE   W06
 BYTE   VOL   5*SonictheHedgehog3HydrocityZoneAct2MeatOfJustice_mvl/mxv
 BYTE   N06  Ds3
 BYTE   W06
 BYTE   Cn3
 BYTE   W06
 BYTE   VOL   5*SonictheHedgehog3HydrocityZoneAct2MeatOfJustice_mvl/mxv
 BYTE   N06  As2
 BYTE   W06
 BYTE   N18  Gn3
 BYTE   W06
 BYTE   VOL   5*SonictheHedgehog3HydrocityZoneAct2MeatOfJustice_mvl/mxv
 BYTE   W12
 BYTE   FINE

//**************** Track 3 (Midi-Chn.2) ****************//

SonictheHedgehog3HydrocityZoneAct2MeatOfJustice_003:
// 000   ----------------------------------------
 BYTE   KEYSH   SonictheHedgehog3HydrocityZoneAct2MeatOfJustice_key+0
Label_2_54C6EE:
 BYTE   VOICE   73
 BYTE   PAN   c_v-32
 BYTE   VOL   48*SonictheHedgehog3HydrocityZoneAct2MeatOfJustice_mvl/mxv
 BYTE   MOD 0
 BYTE   W96
// 001   ----------------------------------------
 BYTE   W96
// 002   ----------------------------------------
 BYTE   W96
// 003   ----------------------------------------
 BYTE   W96
// 004   ----------------------------------------
 BYTE   W96
// 005   ----------------------------------------
 BYTE   W96
// 006   ----------------------------------------
 BYTE   W96
// 007   ----------------------------------------
 BYTE   W96
// 008   ----------------------------------------
 BYTE   W96
// 009   ----------------------------------------
 BYTE   W96
// 010   ----------------------------------------
 BYTE   W96
// 011   ----------------------------------------
Label_2_54C701:
 BYTE   W54
 BYTE   N06  Fn2  v127
 BYTE   W06
 BYTE   Gn2
 BYTE   W06
 BYTE   As2
 BYTE   W06
 BYTE   Ds3
 BYTE   W06
 BYTE   Fn3
 BYTE   W06
 BYTE   Gn3
 BYTE   W06
 BYTE   As3
 BYTE   W06
 BYTE   PEND 
// 012   ----------------------------------------
Label_2_54C713:
 BYTE   N02  Dn4  v127
 BYTE   W01
 BYTE   N10  Ds4
 BYTE   W11
 BYTE   N06  Fn4
 BYTE   W06
 BYTE   N02  Fs4
 BYTE   W01
 BYTE   N12  Gn4
 BYTE   W11
 BYTE   Cn4
 BYTE   W12
 BYTE   N02  Fs4
 BYTE   W01
 BYTE   N40  Gn4
 BYTE   W40
 BYTE   W01
 BYTE   N06  Fn4
 BYTE   W06
 BYTE   Ds4
 BYTE   W06
 BYTE   PEND 
// 013   ----------------------------------------
Label_2_54C732:
 BYTE   N02  Cs4  v127
 BYTE   W01
 BYTE   N40  Dn4
 BYTE   W40
 BYTE   W01
 BYTE   N54  As3
 BYTE   W54
 BYTE   PEND 
// 014   ----------------------------------------
Label_2_54C73E:
 BYTE   N02  Cs4  v127
 BYTE   W01
 BYTE   N10  Dn4
 BYTE   W11
 BYTE   N06  Ds4
 BYTE   W06
 BYTE   N02  En4
 BYTE   W01
 BYTE   N10  Fn4
 BYTE   W11
 BYTE   N12  As3
 BYTE   W12
 BYTE   N42  Fn4
 BYTE   W42
 BYTE   N06  Ds4
 BYTE   W06
 BYTE   Dn4
 BYTE   W06
 BYTE   PEND 
// 015   ----------------------------------------
Label_2_54C75A:
 BYTE   N54  Cn4  v127
 BYTE   W54
 BYTE   N18  Dn4
 BYTE   W18
 BYTE   N12  Ds4
 BYTE   W12
 BYTE   Fn4
 BYTE   W12
 BYTE   PEND 
// 016   ----------------------------------------
Label_2_54C767:
 BYTE   N02  Dn4  v127
 BYTE   W01
 BYTE   N10  Ds4
 BYTE   W11
 BYTE   N06  Fn4
 BYTE   W06
 BYTE   N02  Fs4
 BYTE   W01
 BYTE   N12  Gn4
 BYTE   W11
 BYTE   Cn4
 BYTE   W12
 BYTE   N42  Gn4
 BYTE   W42
 BYTE   N06  Fn4
 BYTE   W06
 BYTE   Ds4
 BYTE   W06
 BYTE   PEND 
// 017   ----------------------------------------
Label_2_54C782:
 BYTE   N02  Cs4  v127
 BYTE   W01
 BYTE   N40  Dn4
 BYTE   W40
 BYTE   W01
 BYTE   N36  Ds4
 BYTE   W42
 BYTE   N06
 BYTE   W06
 BYTE   Fn4
 BYTE   W06
 BYTE   PEND 
// 018   ----------------------------------------
Label_2_54C792:
 BYTE   N02  Fs4  v127
 BYTE   W01
 BYTE   N10  Gn4
 BYTE   W11
 BYTE   N06  Ds4
 BYTE   W06
 BYTE   N12  Gn4
 BYTE   W12
 BYTE   As3
 BYTE   W12
 BYTE   N42  Cn4
 BYTE   W42
 BYTE   N06  Ds4
 BYTE   W06
 BYTE   Fn4
 BYTE   W06
 BYTE   PEND 
// 019   ----------------------------------------
Label_2_54C7AA:
 BYTE   N02  Fs4  v127
 BYTE   W01
 BYTE   N44  Gn4
 BYTE   W44
 BYTE   W03
 BYTE   N18  Fn4
 BYTE   W18
 BYTE   N02  Ds4
 BYTE   W01
 BYTE   Dn4
 BYTE   W02
 BYTE   Cn4  v124
 BYTE   W01
 BYTE   As3
 BYTE   W02
 BYTE   An3  v120
 BYTE   W01
 BYTE   Gn3
 BYTE   W02
 BYTE   Fs3  v116
 BYTE   W01
 BYTE   Fn3
 BYTE   W02
 BYTE   Ds3  v112
 BYTE   W01
 BYTE   Dn3
 BYTE   W02
 BYTE   Cn3  v108
 BYTE   W01
 BYTE   As2
 BYTE   W14
 BYTE   PEND 
// 020   ----------------------------------------
 BYTE   W96
// 021   ----------------------------------------
 BYTE   W96
// 022   ----------------------------------------
 BYTE   W96
// 023   ----------------------------------------
 BYTE   W96
// 024   ----------------------------------------
 BYTE   W96
// 025   ----------------------------------------
 BYTE   W96
// 026   ----------------------------------------
 BYTE   W96
// 027   ----------------------------------------
 BYTE   W96
// 028   ----------------------------------------
 BYTE   W96
// 029   ----------------------------------------
 BYTE   W96
// 030   ----------------------------------------
 BYTE   W96
// 031   ----------------------------------------
 BYTE   W96
// 032   ----------------------------------------
 BYTE   W96
// 033   ----------------------------------------
 BYTE   W96
// 034   ----------------------------------------
 BYTE   W96
// 035   ----------------------------------------
 BYTE   W96
// 036   ----------------------------------------
 BYTE   W96
// 037   ----------------------------------------
 BYTE   W96
// 038   ----------------------------------------
 BYTE   W96
// 039   ----------------------------------------
 BYTE   PATT
  POIN2 Label_2_54C701
// 040   ----------------------------------------
 BYTE   PATT
  POIN2 Label_2_54C713
// 041   ----------------------------------------
 BYTE   PATT
  POIN2 Label_2_54C732
// 042   ----------------------------------------
 BYTE   PATT
  POIN2 Label_2_54C73E
// 043   ----------------------------------------
 BYTE   PATT
  POIN2 Label_2_54C75A
// 044   ----------------------------------------
 BYTE   PATT
  POIN2 Label_2_54C767
// 045   ----------------------------------------
 BYTE   PATT
  POIN2 Label_2_54C782
// 046   ----------------------------------------
 BYTE   PATT
  POIN2 Label_2_54C792
// 047   ----------------------------------------
 BYTE   PATT
  POIN2 Label_2_54C7AA
// 048   ----------------------------------------
 BYTE   W96
// 049   ----------------------------------------
 BYTE   W96
// 050   ----------------------------------------
 BYTE   W96
// 051   ----------------------------------------
 BYTE   W96
// 052   ----------------------------------------
 BYTE   W96
// 053   ----------------------------------------
 BYTE   W96
// 054   ----------------------------------------
 BYTE   W96
// 055   ----------------------------------------
 BYTE   W96
// 056   ----------------------------------------
 BYTE   GoTo
  POIN2 Label_2_54C6EE
// 057   ----------------------------------------
 BYTE   W96
// 058   ----------------------------------------
 BYTE   W96
// 059   ----------------------------------------
 BYTE   W96
// 060   ----------------------------------------
 BYTE   W96
// 061   ----------------------------------------
 BYTE   W96
// 062   ----------------------------------------
 BYTE   W96
// 063   ----------------------------------------
 BYTE   W96
// 064   ----------------------------------------
 BYTE   W96
// 065   ----------------------------------------
 BYTE   W96
// 066   ----------------------------------------
 BYTE   W96
// 067   ----------------------------------------
 BYTE   W96
 BYTE   FINE

//**************** Track 4 (Midi-Chn.3) ****************//

SonictheHedgehog3HydrocityZoneAct2MeatOfJustice_004:
// 000   ----------------------------------------
 BYTE   KEYSH   SonictheHedgehog3HydrocityZoneAct2MeatOfJustice_key+0
Label_3_54CF1A:
 BYTE   VOICE   73
 BYTE   PAN   c_v+31
 BYTE   VOL   32*SonictheHedgehog3HydrocityZoneAct2MeatOfJustice_mvl/mxv
 BYTE   MOD 0
 BYTE   W96
// 001   ----------------------------------------
 BYTE   W96
// 002   ----------------------------------------
 BYTE   W96
// 003   ----------------------------------------
 BYTE   W96
// 004   ----------------------------------------
 BYTE   W96
// 005   ----------------------------------------
 BYTE   W96
// 006   ----------------------------------------
 BYTE   W96
// 007   ----------------------------------------
 BYTE   W96
// 008   ----------------------------------------
 BYTE   W96
// 009   ----------------------------------------
 BYTE   W96
// 010   ----------------------------------------
 BYTE   W96
// 011   ----------------------------------------
Label_3_54CF2D:
 BYTE   W60
 BYTE   N06  Fn2  v127
 BYTE   W06
 BYTE   Gn2
 BYTE   W06
 BYTE   As2
 BYTE   W06
 BYTE   Ds3
 BYTE   W06
 BYTE   Fn3
 BYTE   W06
 BYTE   Gn3
 BYTE   W06
 BYTE   PEND 
// 012   ----------------------------------------
Label_3_54CF3D:
 BYTE   N06  As3  v127
 BYTE   W06
 BYTE   N02  Dn4
 BYTE   W01
 BYTE   N10  Ds4
 BYTE   W11
 BYTE   N06  Fn4
 BYTE   W06
 BYTE   N02  Fs4
 BYTE   W01
 BYTE   N12  Gn4
 BYTE   W11
 BYTE   Cn4
 BYTE   W12
 BYTE   N02  Fs4
 BYTE   W01
 BYTE   N40  Gn4
 BYTE   W40
 BYTE   W01
 BYTE   N06  Fn4
 BYTE   W06
 BYTE   PEND 
// 013   ----------------------------------------
Label_3_54CF5D:
 BYTE   N06  Ds4  v127
 BYTE   W06
 BYTE   N02  Cs4
 BYTE   W01
 BYTE   N40  Dn4
 BYTE   W40
 BYTE   W01
 BYTE   N54  As3
 BYTE   W48
 BYTE   PEND 
// 014   ----------------------------------------
Label_3_54CF6C:
 BYTE   W06
 BYTE   N02  Cs4  v127
 BYTE   W01
 BYTE   N10  Dn4
 BYTE   W11
 BYTE   N06  Ds4
 BYTE   W06
 BYTE   N02  En4
 BYTE   W01
 BYTE   N10  Fn4
 BYTE   W11
 BYTE   N12  As3
 BYTE   W12
 BYTE   N42  Fn4
 BYTE   W42
 BYTE   N06  Ds4
 BYTE   W06
 BYTE   PEND 
// 015   ----------------------------------------
Label_3_54CF87:
 BYTE   N06  Dn4  v127
 BYTE   W06
 BYTE   N54  Cn4
 BYTE   W54
 BYTE   N18  Dn4
 BYTE   W18
 BYTE   N12  Ds4
 BYTE   W12
 BYTE   Fn4
 BYTE   W06
 BYTE   PEND 
// 016   ----------------------------------------
Label_3_54CF97:
 BYTE   W06
 BYTE   N02  Dn4  v127
 BYTE   W01
 BYTE   N10  Ds4
 BYTE   W11
 BYTE   N06  Fn4
 BYTE   W06
 BYTE   N02  Fs4
 BYTE   W01
 BYTE   N12  Gn4
 BYTE   W11
 BYTE   Cn4
 BYTE   W12
 BYTE   N42  Gn4
 BYTE   W42
 BYTE   N06  Fn4
 BYTE   W06
 BYTE   PEND 
// 017   ----------------------------------------
Label_3_54CFB1:
 BYTE   N06  Ds4  v127
 BYTE   W06
 BYTE   N02  Cs4
 BYTE   W01
 BYTE   N40  Dn4
 BYTE   W40
 BYTE   W01
 BYTE   N36  Ds4
 BYTE   W42
 BYTE   N06
 BYTE   W06
 BYTE   PEND 
// 018   ----------------------------------------
Label_3_54CFC2:
 BYTE   N06  Fn4  v127
 BYTE   W06
 BYTE   N02  Fs4
 BYTE   W01
 BYTE   N10  Gn4
 BYTE   W11
 BYTE   N06  Ds4
 BYTE   W06
 BYTE   N12  Gn4
 BYTE   W12
 BYTE   As3
 BYTE   W12
 BYTE   N42  Cn4
 BYTE   W42
 BYTE   N06  Ds4
 BYTE   W06
 BYTE   PEND 
// 019   ----------------------------------------
Label_3_54CFDB:
 BYTE   N06  Fn4  v127
 BYTE   W06
 BYTE   N02  Fs4
 BYTE   W01
 BYTE   N44  Gn4
 BYTE   W44
 BYTE   W03
 BYTE   N18  Fn4
 BYTE   W18
 BYTE   N02  Ds4
 BYTE   W01
 BYTE   Dn4
 BYTE   W02
 BYTE   Cn4  v124
 BYTE   W01
 BYTE   As3
 BYTE   W02
 BYTE   An3  v120
 BYTE   W01
 BYTE   Gn3
 BYTE   W02
 BYTE   Fs3  v116
 BYTE   W01
 BYTE   Fn3
 BYTE   W02
 BYTE   Ds3  v112
 BYTE   W01
 BYTE   Dn3
 BYTE   W02
 BYTE   Cn3  v108
 BYTE   W01
 BYTE   As2
 BYTE   W08
 BYTE   PEND 
// 020   ----------------------------------------
 BYTE   W96
// 021   ----------------------------------------
 BYTE   W96
// 022   ----------------------------------------
 BYTE   W96
// 023   ----------------------------------------
 BYTE   W96
// 024   ----------------------------------------
 BYTE   W96
// 025   ----------------------------------------
 BYTE   W96
// 026   ----------------------------------------
 BYTE   W96
// 027   ----------------------------------------
 BYTE   W96
// 028   ----------------------------------------
 BYTE   W96
// 029   ----------------------------------------
 BYTE   W96
// 030   ----------------------------------------
 BYTE   W96
// 031   ----------------------------------------
 BYTE   W96
// 032   ----------------------------------------
 BYTE   W96
// 033   ----------------------------------------
 BYTE   W96
// 034   ----------------------------------------
 BYTE   W96
// 035   ----------------------------------------
 BYTE   W96
// 036   ----------------------------------------
 BYTE   W96
// 037   ----------------------------------------
 BYTE   W96
// 038   ----------------------------------------
 BYTE   W96
// 039   ----------------------------------------
 BYTE   PATT
  POIN2 Label_3_54CF2D
// 040   ----------------------------------------
 BYTE   PATT
  POIN2 Label_3_54CF3D
// 041   ----------------------------------------
 BYTE   PATT
  POIN2 Label_3_54CF5D
// 042   ----------------------------------------
 BYTE   PATT
  POIN2 Label_3_54CF6C
// 043   ----------------------------------------
 BYTE   PATT
  POIN2 Label_3_54CF87
// 044   ----------------------------------------
 BYTE   PATT
  POIN2 Label_3_54CF97
// 045   ----------------------------------------
 BYTE   PATT
  POIN2 Label_3_54CFB1
// 046   ----------------------------------------
 BYTE   PATT
  POIN2 Label_3_54CFC2
// 047   ----------------------------------------
 BYTE   PATT
  POIN2 Label_3_54CFDB
// 048   ----------------------------------------
 BYTE   W96
// 049   ----------------------------------------
 BYTE   W96
// 050   ----------------------------------------
 BYTE   W96
// 051   ----------------------------------------
 BYTE   W96
// 052   ----------------------------------------
 BYTE   W96
// 053   ----------------------------------------
 BYTE   W96
// 054   ----------------------------------------
 BYTE   W96
// 055   ----------------------------------------
 BYTE   W96
// 056   ----------------------------------------
 BYTE   GoTo
  POIN2 Label_3_54CF1A
// 057   ----------------------------------------
 BYTE   W96
// 058   ----------------------------------------
 BYTE   W96
// 059   ----------------------------------------
 BYTE   W96
// 060   ----------------------------------------
 BYTE   W96
// 061   ----------------------------------------
 BYTE   W96
// 062   ----------------------------------------
 BYTE   W96
// 063   ----------------------------------------
 BYTE   W96
// 064   ----------------------------------------
 BYTE   W96
// 065   ----------------------------------------
 BYTE   W96
// 066   ----------------------------------------
 BYTE   W96
// 067   ----------------------------------------
 BYTE   W96
 BYTE   FINE

//**************** Track 5 (Midi-Chn.4) ****************//

SonictheHedgehog3HydrocityZoneAct2MeatOfJustice_005:
// 000   ----------------------------------------
 BYTE   KEYSH   SonictheHedgehog3HydrocityZoneAct2MeatOfJustice_key+0
Label_4_014DD0BE:
 BYTE   VOICE   36
 BYTE   PAN   c_v+0
 BYTE   VOL   48*SonictheHedgehog3HydrocityZoneAct2MeatOfJustice_mvl/mxv
 BYTE   MOD 0
 BYTE   BEND   c_v+0
 BYTE   N12  Cn2  v127
 BYTE   W12
 BYTE   N06  As1  v096
 BYTE   W06
 BYTE   N12  Cn2  v127
 BYTE   W18
 BYTE   N03  Ds2
 BYTE   W06
 BYTE   Fn2
 BYTE   W12
 BYTE   N18  Ds2
 BYTE   W18
 BYTE   N24  Fn2
 BYTE   W12
 BYTE   BEND   c_v-8
 BYTE   W03
 BYTE   BEND   c_v-16
 BYTE   W03
 BYTE   BEND   c_v-24
 BYTE   W03
 BYTE   BEND   c_v-32
 BYTE   W03
// 001   ----------------------------------------
Label_4_014DD0E8:
 BYTE   BEND   c_v+0
 BYTE   N12  Cn2  v127
 BYTE   W12
 BYTE   N06  As1  v096
 BYTE   W06
 BYTE   N18  Cn2  v127
 BYTE   W18
 BYTE   N03  An1
 BYTE   W06
 BYTE   As1
 BYTE   W12
 BYTE   N18  Gn1
 BYTE   W18
 BYTE   N24  As1
 BYTE   W12
 BYTE   BEND   c_v-8
 BYTE   W03
 BYTE   BEND   c_v-16
 BYTE   W03
 BYTE   BEND   c_v-24
 BYTE   W03
 BYTE   BEND   c_v-32
 BYTE   W03
 BYTE   PEND 
// 002   ----------------------------------------
Label_4_014DD10B:
 BYTE   BEND   c_v+0
 BYTE   N12  Cn2  v127
 BYTE   W12
 BYTE   N06  As1  v096
 BYTE   W06
 BYTE   N12  Cn2  v127
 BYTE   W18
 BYTE   N03  Ds2
 BYTE   W06
 BYTE   Fn2
 BYTE   W12
 BYTE   N18  Ds2
 BYTE   W18
 BYTE   N24  Fn2
 BYTE   W12
 BYTE   BEND   c_v-8
 BYTE   W03
 BYTE   BEND   c_v-16
 BYTE   W03
 BYTE   BEND   c_v-24
 BYTE   W03
 BYTE   BEND   c_v-32
 BYTE   W03
 BYTE   PEND 
// 003   ----------------------------------------
 BYTE   PATT
  POIN2 Label_4_014DD0E8
// 004   ----------------------------------------
 BYTE   PATT
  POIN2 Label_4_014DD10B
// 005   ----------------------------------------
 BYTE   PATT
  POIN2 Label_4_014DD0E8
// 006   ----------------------------------------
 BYTE   PATT
  POIN2 Label_4_014DD10B
// 007   ----------------------------------------
 BYTE   PATT
  POIN2 Label_4_014DD0E8
// 008   ----------------------------------------
 BYTE   PATT
  POIN2 Label_4_014DD10B
// 009   ----------------------------------------
 BYTE   PATT
  POIN2 Label_4_014DD0E8
// 010   ----------------------------------------
Label_4_014DD151:
 BYTE   BEND   c_v+0
 BYTE   N12  Cn2  v127
 BYTE   W12
 BYTE   N06  As1  v096
 BYTE   W06
 BYTE   N12  Cn2  v127
 BYTE   W18
 BYTE   N03  Ds2
 BYTE   W06
 BYTE   Fn2
 BYTE   W12
 BYTE   N18  Ds2
 BYTE   W18
 BYTE   Fn2
 BYTE   W24
 BYTE   PEND 
// 011   ----------------------------------------
Label_4_014DD16A:
 BYTE   W06
 BYTE   N06  Cn3  v127
 BYTE   W06
 BYTE   As2
 BYTE   W06
 BYTE   Gn2
 BYTE   W06
 BYTE   N04  Fn2
 BYTE   W04
 BYTE   Fs2
 BYTE   W04
 BYTE   Fn2
 BYTE   W04
 BYTE   N06  Ds2
 BYTE   W06
 BYTE   Cn2
 BYTE   W24
 BYTE   N30  Gn1
 BYTE   W30
 BYTE   PEND 
// 012   ----------------------------------------
Label_4_014DD183:
 BYTE   N12  Gs1  v127
 BYTE   W12
 BYTE   N06  Gn1  v096
 BYTE   W06
 BYTE   N12  Gs1  v127
 BYTE   W12
 BYTE   Gn1  v096
 BYTE   W12
 BYTE   N06  Gs1  v127
 BYTE   W12
 BYTE   Gs2
 BYTE   W06
 BYTE   N24  Gs1
 BYTE   W12
 BYTE   BEND   c_v-8
 BYTE   W03
 BYTE   BEND   c_v-16
 BYTE   W03
 BYTE   BEND   c_v-24
 BYTE   W03
 BYTE   BEND   c_v-32
 BYTE   W03
 BYTE   BEND   c_v+0
 BYTE   W12
 BYTE   PEND 
// 013   ----------------------------------------
Label_4_014DD1A7:
 BYTE   N12  Gn1  v127
 BYTE   W12
 BYTE   N06  Fn1  v096
 BYTE   W06
 BYTE   N12  Gn1  v127
 BYTE   W12
 BYTE   Fn1  v096
 BYTE   W12
 BYTE   N06  Gn1  v127
 BYTE   W12
 BYTE   Gn2
 BYTE   W06
 BYTE   N24  Gn1
 BYTE   W12
 BYTE   BEND   c_v-8
 BYTE   W03
 BYTE   BEND   c_v-16
 BYTE   W03
 BYTE   BEND   c_v-24
 BYTE   W03
 BYTE   BEND   c_v-32
 BYTE   W03
 BYTE   BEND   c_v+0
 BYTE   W12
 BYTE   PEND 
// 014   ----------------------------------------
Label_4_014DD1CB:
 BYTE   N12  As1  v127
 BYTE   W12
 BYTE   N06  Gs1  v096
 BYTE   W06
 BYTE   N12  As1  v127
 BYTE   W12
 BYTE   Gs1  v096
 BYTE   W12
 BYTE   N06  As1  v127
 BYTE   W12
 BYTE   As2
 BYTE   W06
 BYTE   N12  As1
 BYTE   W36
 BYTE   PEND 
// 015   ----------------------------------------
Label_4_014DD1E4:
 BYTE   W06
 BYTE   N06  Cn2  v096
 BYTE   W12
 BYTE   N12
 BYTE   W12
 BYTE   N06
 BYTE   W06
 BYTE   N06
 BYTE   W18
 BYTE   N18  Cn3  v127
 BYTE   W18
 BYTE   N12  Cn2
 BYTE   W12
 BYTE   Cn3
 BYTE   W12
 BYTE   PEND 
// 016   ----------------------------------------
 BYTE   PATT
  POIN2 Label_4_014DD183
// 017   ----------------------------------------
 BYTE   PATT
  POIN2 Label_4_014DD1A7
// 018   ----------------------------------------
Label_4_014DD203:
 BYTE   N12  Fn1  v127
 BYTE   W12
 BYTE   N06  Ds1  v096
 BYTE   W06
 BYTE   N12  Fn1  v127
 BYTE   W12
 BYTE   Ds1  v096
 BYTE   W12
 BYTE   N06  Fn1  v127
 BYTE   W12
 BYTE   Fn2
 BYTE   W06
 BYTE   N24  Fn1
 BYTE   W12
 BYTE   BEND   c_v-8
 BYTE   W03
 BYTE   BEND   c_v-16
 BYTE   W03
 BYTE   BEND   c_v-24
 BYTE   W03
 BYTE   BEND   c_v-32
 BYTE   W03
 BYTE   BEND   c_v+0
 BYTE   W12
 BYTE   PEND 
// 019   ----------------------------------------
Label_4_014DD227:
 BYTE   W06
 BYTE   N06  Gs1  v096
 BYTE   W12
 BYTE   N06
 BYTE   W12
 BYTE   N06
 BYTE   W06
 BYTE   N12
 BYTE   W12
 BYTE   N06  Gn1
 BYTE   W06
 BYTE   N06
 BYTE   W12
 BYTE   N06
 BYTE   W30
 BYTE   PEND 
// 020   ----------------------------------------
Label_4_014DD23A:
 BYTE   N18  Fn1  v127
 BYTE   W18
 BYTE   N06
 BYTE   W36
 BYTE   N06
 BYTE   W06
 BYTE   N12  Gn2
 BYTE   W12
 BYTE   N24  Gn1
 BYTE   W24
 BYTE   PEND 
// 021   ----------------------------------------
Label_4_014DD249:
 BYTE   N18  Gs1  v127
 BYTE   W18
 BYTE   N06
 BYTE   W36
 BYTE   N06
 BYTE   W06
 BYTE   N12  As2
 BYTE   W12
 BYTE   As1
 BYTE   W12
 BYTE   As2
 BYTE   W12
 BYTE   PEND 
// 022   ----------------------------------------
 BYTE   PATT
  POIN2 Label_4_014DD23A
// 023   ----------------------------------------
Label_4_014DD25E:
 BYTE   N18  Cn2  v127
 BYTE   W18
 BYTE   N06
 BYTE   W06
 BYTE   N18  As1
 BYTE   W18
 BYTE   N06
 BYTE   W18
 BYTE   N12  Gs2
 BYTE   W12
 BYTE   Gn1
 BYTE   W12
 BYTE   Gn2
 BYTE   W12
 BYTE   PEND 
// 024   ----------------------------------------
 BYTE   PATT
  POIN2 Label_4_014DD23A
// 025   ----------------------------------------
 BYTE   PATT
  POIN2 Label_4_014DD249
// 026   ----------------------------------------
Label_4_014DD27B:
 BYTE   N18  Gs1  v127
 BYTE   W18
 BYTE   N06
 BYTE   W36
 BYTE   Ds1
 BYTE   W06
 BYTE   N12  Fn1
 BYTE   W12
 BYTE   Ds1
 BYTE   W12
 BYTE   Fn1
 BYTE   W12
 BYTE   PEND 
// 027   ----------------------------------------
Label_4_014DD28B:
 BYTE   W06
 BYTE   N06  Gn1  v127
 BYTE   W12
 BYTE   N06
 BYTE   W12
 BYTE   N06
 BYTE   W06
 BYTE   N12
 BYTE   W12
 BYTE   N06
 BYTE   W24
 BYTE   N04  Gn1  v096
 BYTE   W04
 BYTE   N04
 BYTE   W04
 BYTE   N04
 BYTE   W04
 BYTE   N06
 BYTE   W06
 BYTE   As1
 BYTE   W06
 BYTE   PEND 
// 028   ----------------------------------------
 BYTE   PATT
  POIN2 Label_4_014DD10B
// 029   ----------------------------------------
 BYTE   PATT
  POIN2 Label_4_014DD0E8
// 030   ----------------------------------------
 BYTE   PATT
  POIN2 Label_4_014DD10B
// 031   ----------------------------------------
 BYTE   PATT
  POIN2 Label_4_014DD0E8
// 032   ----------------------------------------
 BYTE   PATT
  POIN2 Label_4_014DD10B
// 033   ----------------------------------------
 BYTE   PATT
  POIN2 Label_4_014DD0E8
// 034   ----------------------------------------
 BYTE   PATT
  POIN2 Label_4_014DD10B
// 035   ----------------------------------------
 BYTE   PATT
  POIN2 Label_4_014DD0E8
// 036   ----------------------------------------
 BYTE   PATT
  POIN2 Label_4_014DD10B
// 037   ----------------------------------------
 BYTE   PATT
  POIN2 Label_4_014DD0E8
// 038   ----------------------------------------
 BYTE   PATT
  POIN2 Label_4_014DD151
// 039   ----------------------------------------
 BYTE   PATT
  POIN2 Label_4_014DD16A
// 040   ----------------------------------------
 BYTE   PATT
  POIN2 Label_4_014DD183
// 041   ----------------------------------------
 BYTE   PATT
  POIN2 Label_4_014DD1A7
// 042   ----------------------------------------
 BYTE   PATT
  POIN2 Label_4_014DD1CB
// 043   ----------------------------------------
 BYTE   PATT
  POIN2 Label_4_014DD1E4
// 044   ----------------------------------------
 BYTE   PATT
  POIN2 Label_4_014DD183
// 045   ----------------------------------------
 BYTE   PATT
  POIN2 Label_4_014DD1A7
// 046   ----------------------------------------
 BYTE   PATT
  POIN2 Label_4_014DD203
// 047   ----------------------------------------
 BYTE   PATT
  POIN2 Label_4_014DD227
// 048   ----------------------------------------
 BYTE   PATT
  POIN2 Label_4_014DD23A
// 049   ----------------------------------------
 BYTE   PATT
  POIN2 Label_4_014DD249
// 050   ----------------------------------------
 BYTE   PATT
  POIN2 Label_4_014DD23A
// 051   ----------------------------------------
 BYTE   PATT
  POIN2 Label_4_014DD25E
// 052   ----------------------------------------
 BYTE   PATT
  POIN2 Label_4_014DD23A
// 053   ----------------------------------------
 BYTE   PATT
  POIN2 Label_4_014DD249
// 054   ----------------------------------------
 BYTE   PATT
  POIN2 Label_4_014DD27B
// 055   ----------------------------------------
 BYTE   PATT
  POIN2 Label_4_014DD28B
// 056   ----------------------------------------
 BYTE   GoTo
  POIN2 Label_4_014DD0BE
// 057   ----------------------------------------
 BYTE   PATT
  POIN2 Label_4_014DD10B
// 058   ----------------------------------------
 BYTE   PATT
  POIN2 Label_4_014DD0E8
// 059   ----------------------------------------
 BYTE   PATT
  POIN2 Label_4_014DD10B
// 060   ----------------------------------------
 BYTE   PATT
  POIN2 Label_4_014DD0E8
// 061   ----------------------------------------
 BYTE   PATT
  POIN2 Label_4_014DD10B
// 062   ----------------------------------------
 BYTE   PATT
  POIN2 Label_4_014DD0E8
// 063   ----------------------------------------
 BYTE   VOL   47*SonictheHedgehog3HydrocityZoneAct2MeatOfJustice_mvl/mxv
 BYTE   BEND   c_v+0
 BYTE   N12  Cn2  v127
 BYTE   W12
 BYTE   VOL   45*SonictheHedgehog3HydrocityZoneAct2MeatOfJustice_mvl/mxv
 BYTE   N06  As1  v096
 BYTE   W06
 BYTE   N12  Cn2  v127
 BYTE   W06
 BYTE   VOL   45*SonictheHedgehog3HydrocityZoneAct2MeatOfJustice_mvl/mxv
 BYTE   W12
 BYTE   VOL   44*SonictheHedgehog3HydrocityZoneAct2MeatOfJustice_mvl/mxv
 BYTE   N03  Ds2
 BYTE   W06
 BYTE   Fn2
 BYTE   W06
 BYTE   VOL   42*SonictheHedgehog3HydrocityZoneAct2MeatOfJustice_mvl/mxv
 BYTE   W06
 BYTE   N18  Ds2
 BYTE   W06
 BYTE   VOL   41*SonictheHedgehog3HydrocityZoneAct2MeatOfJustice_mvl/mxv
 BYTE   W12
 BYTE   VOL   40*SonictheHedgehog3HydrocityZoneAct2MeatOfJustice_mvl/mxv
 BYTE   N24  Fn2
 BYTE   W12
 BYTE   VOL   39*SonictheHedgehog3HydrocityZoneAct2MeatOfJustice_mvl/mxv
 BYTE   BEND   c_v-8
 BYTE   W03
 BYTE   BEND   c_v-16
 BYTE   W03
 BYTE   BEND   c_v-24
 BYTE   W03
 BYTE   BEND   c_v-32
 BYTE   W03
// 064   ----------------------------------------
 BYTE   VOL   38*SonictheHedgehog3HydrocityZoneAct2MeatOfJustice_mvl/mxv
 BYTE   BEND   c_v+0
 BYTE   N12  Cn2
 BYTE   W12
 BYTE   VOL   37*SonictheHedgehog3HydrocityZoneAct2MeatOfJustice_mvl/mxv
 BYTE   N06  As1  v096
 BYTE   W06
 BYTE   N18  Cn2  v127
 BYTE   W06
 BYTE   VOL   35*SonictheHedgehog3HydrocityZoneAct2MeatOfJustice_mvl/mxv
 BYTE   W12
 BYTE   VOL   35*SonictheHedgehog3HydrocityZoneAct2MeatOfJustice_mvl/mxv
 BYTE   N03  An1
 BYTE   W06
 BYTE   As1
 BYTE   W06
 BYTE   VOL   33*SonictheHedgehog3HydrocityZoneAct2MeatOfJustice_mvl/mxv
 BYTE   W06
 BYTE   N18  Gn1
 BYTE   W06
 BYTE   VOL   32*SonictheHedgehog3HydrocityZoneAct2MeatOfJustice_mvl/mxv
 BYTE   W12
 BYTE   VOL   31*SonictheHedgehog3HydrocityZoneAct2MeatOfJustice_mvl/mxv
 BYTE   N24  As1
 BYTE   W12
 BYTE   VOL   30*SonictheHedgehog3HydrocityZoneAct2MeatOfJustice_mvl/mxv
 BYTE   BEND   c_v-8
 BYTE   W03
 BYTE   BEND   c_v-16
 BYTE   W03
 BYTE   BEND   c_v-24
 BYTE   W03
 BYTE   BEND   c_v-32
 BYTE   W03
// 065   ----------------------------------------
 BYTE   VOL   29*SonictheHedgehog3HydrocityZoneAct2MeatOfJustice_mvl/mxv
 BYTE   BEND   c_v+0
 BYTE   N12  Cn2
 BYTE   W12
 BYTE   VOL   28*SonictheHedgehog3HydrocityZoneAct2MeatOfJustice_mvl/mxv
 BYTE   N06  As1  v096
 BYTE   W06
 BYTE   N12  Cn2  v127
 BYTE   W06
 BYTE   VOL   27*SonictheHedgehog3HydrocityZoneAct2MeatOfJustice_mvl/mxv
 BYTE   W12
 BYTE   VOL   26*SonictheHedgehog3HydrocityZoneAct2MeatOfJustice_mvl/mxv
 BYTE   N03  Ds2
 BYTE   W06
 BYTE   Fn2
 BYTE   W06
 BYTE   VOL   25*SonictheHedgehog3HydrocityZoneAct2MeatOfJustice_mvl/mxv
 BYTE   W06
 BYTE   N18  Ds2
 BYTE   W06
 BYTE   VOL   23*SonictheHedgehog3HydrocityZoneAct2MeatOfJustice_mvl/mxv
 BYTE   W12
 BYTE   VOL   22*SonictheHedgehog3HydrocityZoneAct2MeatOfJustice_mvl/mxv
 BYTE   N24  Fn2
 BYTE   W12
 BYTE   VOL   22*SonictheHedgehog3HydrocityZoneAct2MeatOfJustice_mvl/mxv
 BYTE   BEND   c_v-8
 BYTE   W03
 BYTE   BEND   c_v-16
 BYTE   W03
 BYTE   BEND   c_v-24
 BYTE   W03
 BYTE   BEND   c_v-32
 BYTE   W03
// 066   ----------------------------------------
 BYTE   VOL   20*SonictheHedgehog3HydrocityZoneAct2MeatOfJustice_mvl/mxv
 BYTE   BEND   c_v+0
 BYTE   N12  Cn2
 BYTE   W12
 BYTE   VOL   19*SonictheHedgehog3HydrocityZoneAct2MeatOfJustice_mvl/mxv
 BYTE   N06  As1  v096
 BYTE   W06
 BYTE   N18  Cn2  v127
 BYTE   W06
 BYTE   VOL   18*SonictheHedgehog3HydrocityZoneAct2MeatOfJustice_mvl/mxv
 BYTE   W12
 BYTE   VOL   17*SonictheHedgehog3HydrocityZoneAct2MeatOfJustice_mvl/mxv
 BYTE   N03  An1
 BYTE   W06
 BYTE   As1
 BYTE   W06
 BYTE   VOL   16*SonictheHedgehog3HydrocityZoneAct2MeatOfJustice_mvl/mxv
 BYTE   W06
 BYTE   N18  Gn1
 BYTE   W06
 BYTE   VOL   15*SonictheHedgehog3HydrocityZoneAct2MeatOfJustice_mvl/mxv
 BYTE   W12
 BYTE   VOL   14*SonictheHedgehog3HydrocityZoneAct2MeatOfJustice_mvl/mxv
 BYTE   N24  As1
 BYTE   W12
 BYTE   VOL   13*SonictheHedgehog3HydrocityZoneAct2MeatOfJustice_mvl/mxv
 BYTE   BEND   c_v-8
 BYTE   W03
 BYTE   BEND   c_v-16
 BYTE   W03
 BYTE   BEND   c_v-24
 BYTE   W03
 BYTE   BEND   c_v-32
 BYTE   W03
// 067   ----------------------------------------
 BYTE   VOL   11*SonictheHedgehog3HydrocityZoneAct2MeatOfJustice_mvl/mxv
 BYTE   BEND   c_v+0
 BYTE   N12  Cn2
 BYTE   W12
 BYTE   VOL   11*SonictheHedgehog3HydrocityZoneAct2MeatOfJustice_mvl/mxv
 BYTE   N06  As1  v096
 BYTE   W06
 BYTE   N12  Cn2  v127
 BYTE   W06
 BYTE   VOL   10*SonictheHedgehog3HydrocityZoneAct2MeatOfJustice_mvl/mxv
 BYTE   W12
 BYTE   VOL   8*SonictheHedgehog3HydrocityZoneAct2MeatOfJustice_mvl/mxv
 BYTE   N03  Ds2
 BYTE   W06
 BYTE   Fn2
 BYTE   W06
 BYTE   VOL   8*SonictheHedgehog3HydrocityZoneAct2MeatOfJustice_mvl/mxv
 BYTE   W06
 BYTE   N18  Ds2
 BYTE   W06
 BYTE   VOL   6*SonictheHedgehog3HydrocityZoneAct2MeatOfJustice_mvl/mxv
 BYTE   W12
 BYTE   VOL   5*SonictheHedgehog3HydrocityZoneAct2MeatOfJustice_mvl/mxv
 BYTE   N18  Fn2
 BYTE   W12
 BYTE   VOL   5*SonictheHedgehog3HydrocityZoneAct2MeatOfJustice_mvl/mxv
 BYTE   W12
 BYTE   FINE

//**************** Track 6 (Midi-Chn.5) ****************//

SonictheHedgehog3HydrocityZoneAct2MeatOfJustice_006:
// 000   ----------------------------------------
 BYTE   KEYSH   SonictheHedgehog3HydrocityZoneAct2MeatOfJustice_key+0
Label_5_014DD44A:
 BYTE   VOICE   68
 BYTE   PAN   c_v+0
 BYTE   VOL   48*SonictheHedgehog3HydrocityZoneAct2MeatOfJustice_mvl/mxv
 BYTE   MOD 0
 BYTE   N06  Cn4  v127
 BYTE   W06
 BYTE   Gn3
 BYTE   W06
 BYTE   As3
 BYTE   W06
 BYTE   Gn3
 BYTE   W12
 BYTE   N06
 BYTE   W06
 BYTE   As3
 BYTE   W06
 BYTE   Gn3
 BYTE   W06
 BYTE   Cn4
 BYTE   W06
 BYTE   Gn3
 BYTE   W06
 BYTE   As3
 BYTE   W06
 BYTE   Gn3
 BYTE   W30
// 001   ----------------------------------------
 BYTE   W96
// 002   ----------------------------------------
Label_5_014DD46B:
 BYTE   N06  Cn4  v127
 BYTE   W06
 BYTE   Gn3
 BYTE   W06
 BYTE   As3
 BYTE   W06
 BYTE   Gn3
 BYTE   W12
 BYTE   N06
 BYTE   W06
 BYTE   As3
 BYTE   W06
 BYTE   Gn3
 BYTE   W06
 BYTE   Cn4
 BYTE   W06
 BYTE   Gn3
 BYTE   W06
 BYTE   As3
 BYTE   W06
 BYTE   Gn3
 BYTE   W30
 BYTE   PEND 
// 003   ----------------------------------------
 BYTE   W96
// 004   ----------------------------------------
 BYTE   W96
// 005   ----------------------------------------
Label_5_014DD486:
 BYTE   W30
 BYTE   N06  Fn4  v127
 BYTE   W06
 BYTE   Fs4
 BYTE   W06
 BYTE   Gn4
 BYTE   W06
 BYTE   As5
 BYTE   W06
 BYTE   Gn4
 BYTE   W06
 BYTE   Cn5
 BYTE   W06
 BYTE   N03  Fs5
 BYTE   W03
 BYTE   N15  Gn5
 BYTE   W24
 BYTE   W03
 BYTE   PEND 
// 006   ----------------------------------------
 BYTE   W96
// 007   ----------------------------------------
Label_5_014DD49E:
 BYTE   W06
 BYTE   N06  Cn4  v127
 BYTE   W06
 BYTE   An4
 BYTE   W06
 BYTE   Gn4
 BYTE   W12
 BYTE   Fn4
 BYTE   W06
 BYTE   Gn4
 BYTE   W06
 BYTE   En4
 BYTE   W54
 BYTE   PEND 
// 008   ----------------------------------------
 BYTE   W96
// 009   ----------------------------------------
 BYTE   PATT
  POIN2 Label_5_014DD486
// 010   ----------------------------------------
 BYTE   W96
// 011   ----------------------------------------
Label_5_014DD4B5:
 BYTE   W06
 BYTE   N06  Cn5  v127
 BYTE   W06
 BYTE   As4
 BYTE   W06
 BYTE   Gn4
 BYTE   W06
 BYTE   N04  Fn4
 BYTE   W04
 BYTE   Fs4
 BYTE   W04
 BYTE   Fn4
 BYTE   W04
 BYTE   N06  Ds4
 BYTE   W06
 BYTE   Cn4
 BYTE   W54
 BYTE   PEND 
// 012   ----------------------------------------
 BYTE   W96
// 013   ----------------------------------------
 BYTE   W96
// 014   ----------------------------------------
 BYTE   W96
// 015   ----------------------------------------
Label_5_014DD4CE:
 BYTE   W06
 BYTE   N04  Ds5  v127
 BYTE   W18
 BYTE   N10  Dn5
 BYTE   W12
 BYTE   N04
 BYTE   W06
 BYTE   Ds5
 BYTE   W54
 BYTE   PEND 
// 016   ----------------------------------------
 BYTE   W96
// 017   ----------------------------------------
 BYTE   W96
// 018   ----------------------------------------
 BYTE   W96
// 019   ----------------------------------------
Label_5_014DD4DE:
 BYTE   W06
 BYTE   N04  Gn3  v127
 BYTE   W06
 BYTE   Ds3
 BYTE   W06
 BYTE   Gn3
 BYTE   W06
 BYTE   Ds3
 BYTE   W06
 BYTE   Gn3
 BYTE   W06
 BYTE   Fn3
 BYTE   W06
 BYTE   Ds3
 BYTE   W06
 BYTE   Fn3
 BYTE   W48
 BYTE   PEND 
// 020   ----------------------------------------
Label_5_014DD4F2:
 BYTE   W54
 BYTE   N04  As3  v127
 BYTE   W06
 BYTE   Gn3
 BYTE   W06
 BYTE   As3
 BYTE   W06
 BYTE   Dn4
 BYTE   W06
 BYTE   As3
 BYTE   W06
 BYTE   Gn3
 BYTE   W06
 BYTE   As3
 BYTE   W06
 BYTE   PEND 
// 021   ----------------------------------------
Label_5_014DD504:
 BYTE   W54
 BYTE   N04  Dn4  v127
 BYTE   W06
 BYTE   As3
 BYTE   W06
 BYTE   Dn4
 BYTE   W06
 BYTE   Fn4
 BYTE   W06
 BYTE   Dn4
 BYTE   W06
 BYTE   As3
 BYTE   W06
 BYTE   Gn3
 BYTE   W06
 BYTE   PEND 
// 022   ----------------------------------------
Label_5_014DD516:
 BYTE   W54
 BYTE   N04  Bn3  v127
 BYTE   W06
 BYTE   Gn3
 BYTE   W06
 BYTE   Bn3
 BYTE   W06
 BYTE   Dn3
 BYTE   W06
 BYTE   Gn3
 BYTE   W06
 BYTE   Bn3
 BYTE   W06
 BYTE   Dn4
 BYTE   W06
 BYTE   PEND 
// 023   ----------------------------------------
Label_5_014DD528:
 BYTE   N04  Ds3  v127
 BYTE   W06
 BYTE   Gn3
 BYTE   W06
 BYTE   Cn4
 BYTE   W06
 BYTE   Gn3
 BYTE   W06
 BYTE   Dn3
 BYTE   W06
 BYTE   Fn3
 BYTE   W06
 BYTE   As3
 BYTE   W06
 BYTE   Fn3
 BYTE   W06
 BYTE   Cn3
 BYTE   W06
 BYTE   Ds3
 BYTE   W06
 BYTE   Gs3
 BYTE   W06
 BYTE   Ds3
 BYTE   W06
 BYTE   Bn2
 BYTE   W06
 BYTE   Dn3
 BYTE   W06
 BYTE   Gn3
 BYTE   W06
 BYTE   Dn3
 BYTE   W06
 BYTE   PEND 
// 024   ----------------------------------------
 BYTE   PATT
  POIN2 Label_5_014DD4F2
// 025   ----------------------------------------
 BYTE   PATT
  POIN2 Label_5_014DD504
// 026   ----------------------------------------
Label_5_014DD555:
 BYTE   W54
 BYTE   N04  Ds3  v127
 BYTE   W06
 BYTE   Gs3
 BYTE   W06
 BYTE   Ds3
 BYTE   W06
 BYTE   Gs3
 BYTE   W06
 BYTE   Cn4
 BYTE   W06
 BYTE   Gs3
 BYTE   W06
 BYTE   Ds4
 BYTE   W06
 BYTE   PEND 
// 027   ----------------------------------------
 BYTE   W96
// 028   ----------------------------------------
 BYTE   PATT
  POIN2 Label_5_014DD46B
// 029   ----------------------------------------
 BYTE   W96
// 030   ----------------------------------------
 BYTE   PATT
  POIN2 Label_5_014DD46B
// 031   ----------------------------------------
 BYTE   W96
// 032   ----------------------------------------
 BYTE   W96
// 033   ----------------------------------------
 BYTE   PATT
  POIN2 Label_5_014DD486
// 034   ----------------------------------------
 BYTE   W96
// 035   ----------------------------------------
 BYTE   PATT
  POIN2 Label_5_014DD49E
// 036   ----------------------------------------
 BYTE   W96
// 037   ----------------------------------------
 BYTE   PATT
  POIN2 Label_5_014DD486
// 038   ----------------------------------------
 BYTE   W96
// 039   ----------------------------------------
 BYTE   PATT
  POIN2 Label_5_014DD4B5
// 040   ----------------------------------------
 BYTE   W96
// 041   ----------------------------------------
 BYTE   W96
// 042   ----------------------------------------
 BYTE   W96
// 043   ----------------------------------------
 BYTE   PATT
  POIN2 Label_5_014DD4CE
// 044   ----------------------------------------
 BYTE   W96
// 045   ----------------------------------------
 BYTE   W96
// 046   ----------------------------------------
 BYTE   W96
// 047   ----------------------------------------
 BYTE   PATT
  POIN2 Label_5_014DD4DE
// 048   ----------------------------------------
 BYTE   PATT
  POIN2 Label_5_014DD4F2
// 049   ----------------------------------------
 BYTE   PATT
  POIN2 Label_5_014DD504
// 050   ----------------------------------------
 BYTE   PATT
  POIN2 Label_5_014DD516
// 051   ----------------------------------------
 BYTE   PATT
  POIN2 Label_5_014DD528
// 052   ----------------------------------------
 BYTE   PATT
  POIN2 Label_5_014DD4F2
// 053   ----------------------------------------
 BYTE   PATT
  POIN2 Label_5_014DD504
// 054   ----------------------------------------
 BYTE   PATT
  POIN2 Label_5_014DD555
// 055   ----------------------------------------
 BYTE   W96
// 056   ----------------------------------------
 BYTE   GoTo
  POIN2 Label_5_014DD44A
// 057   ----------------------------------------
 BYTE   PATT
  POIN2 Label_5_014DD46B
// 058   ----------------------------------------
 BYTE   W96
// 059   ----------------------------------------
 BYTE   PATT
  POIN2 Label_5_014DD46B
// 060   ----------------------------------------
 BYTE   W96
// 061   ----------------------------------------
 BYTE   W96
// 062   ----------------------------------------
 BYTE   PATT
  POIN2 Label_5_014DD486
// 063   ----------------------------------------
 BYTE   VOL   47*SonictheHedgehog3HydrocityZoneAct2MeatOfJustice_mvl/mxv
 BYTE   W12
 BYTE   VOL   45*SonictheHedgehog3HydrocityZoneAct2MeatOfJustice_mvl/mxv
 BYTE   W12
 BYTE   VOL   45*SonictheHedgehog3HydrocityZoneAct2MeatOfJustice_mvl/mxv
 BYTE   W12
 BYTE   VOL   44*SonictheHedgehog3HydrocityZoneAct2MeatOfJustice_mvl/mxv
 BYTE   W12
 BYTE   VOL   42*SonictheHedgehog3HydrocityZoneAct2MeatOfJustice_mvl/mxv
 BYTE   W12
 BYTE   VOL   41*SonictheHedgehog3HydrocityZoneAct2MeatOfJustice_mvl/mxv
 BYTE   W12
 BYTE   VOL   40*SonictheHedgehog3HydrocityZoneAct2MeatOfJustice_mvl/mxv
 BYTE   W12
 BYTE   VOL   39*SonictheHedgehog3HydrocityZoneAct2MeatOfJustice_mvl/mxv
 BYTE   W12
// 064   ----------------------------------------
 BYTE   VOL   38*SonictheHedgehog3HydrocityZoneAct2MeatOfJustice_mvl/mxv
 BYTE   W06
 BYTE   N06  Cn4  v127
 BYTE   W06
 BYTE   VOL   37*SonictheHedgehog3HydrocityZoneAct2MeatOfJustice_mvl/mxv
 BYTE   N06  An4
 BYTE   W06
 BYTE   Gn4
 BYTE   W06
 BYTE   VOL   35*SonictheHedgehog3HydrocityZoneAct2MeatOfJustice_mvl/mxv
 BYTE   W06
 BYTE   N06  Fn4
 BYTE   W06
 BYTE   VOL   35*SonictheHedgehog3HydrocityZoneAct2MeatOfJustice_mvl/mxv
 BYTE   N06  Gn4
 BYTE   W06
 BYTE   En4
 BYTE   W06
 BYTE   VOL   33*SonictheHedgehog3HydrocityZoneAct2MeatOfJustice_mvl/mxv
 BYTE   W12
 BYTE   VOL   32*SonictheHedgehog3HydrocityZoneAct2MeatOfJustice_mvl/mxv
 BYTE   W12
 BYTE   VOL   31*SonictheHedgehog3HydrocityZoneAct2MeatOfJustice_mvl/mxv
 BYTE   W12
 BYTE   VOL   30*SonictheHedgehog3HydrocityZoneAct2MeatOfJustice_mvl/mxv
 BYTE   W12
// 065   ----------------------------------------
 BYTE   VOL   29*SonictheHedgehog3HydrocityZoneAct2MeatOfJustice_mvl/mxv
 BYTE   W12
 BYTE   VOL   28*SonictheHedgehog3HydrocityZoneAct2MeatOfJustice_mvl/mxv
 BYTE   W12
 BYTE   VOL   27*SonictheHedgehog3HydrocityZoneAct2MeatOfJustice_mvl/mxv
 BYTE   W12
 BYTE   VOL   26*SonictheHedgehog3HydrocityZoneAct2MeatOfJustice_mvl/mxv
 BYTE   W12
 BYTE   VOL   25*SonictheHedgehog3HydrocityZoneAct2MeatOfJustice_mvl/mxv
 BYTE   W12
 BYTE   VOL   23*SonictheHedgehog3HydrocityZoneAct2MeatOfJustice_mvl/mxv
 BYTE   W12
 BYTE   VOL   22*SonictheHedgehog3HydrocityZoneAct2MeatOfJustice_mvl/mxv
 BYTE   W12
 BYTE   VOL   22*SonictheHedgehog3HydrocityZoneAct2MeatOfJustice_mvl/mxv
 BYTE   W12
// 066   ----------------------------------------
 BYTE   VOL   20*SonictheHedgehog3HydrocityZoneAct2MeatOfJustice_mvl/mxv
 BYTE   W12
 BYTE   VOL   19*SonictheHedgehog3HydrocityZoneAct2MeatOfJustice_mvl/mxv
 BYTE   W12
 BYTE   VOL   18*SonictheHedgehog3HydrocityZoneAct2MeatOfJustice_mvl/mxv
 BYTE   W06
 BYTE   N06  Fn4
 BYTE   W06
 BYTE   VOL   17*SonictheHedgehog3HydrocityZoneAct2MeatOfJustice_mvl/mxv
 BYTE   N06  Fs4
 BYTE   W06
 BYTE   Gn4
 BYTE   W06
 BYTE   VOL   16*SonictheHedgehog3HydrocityZoneAct2MeatOfJustice_mvl/mxv
 BYTE   N06  As5
 BYTE   W06
 BYTE   Gn4
 BYTE   W06
 BYTE   VOL   15*SonictheHedgehog3HydrocityZoneAct2MeatOfJustice_mvl/mxv
 BYTE   N06  Cn5
 BYTE   W06
 BYTE   N03  Fs5
 BYTE   W03
 BYTE   N15  Gn5
 BYTE   W03
 BYTE   VOL   14*SonictheHedgehog3HydrocityZoneAct2MeatOfJustice_mvl/mxv
 BYTE   W12
 BYTE   VOL   13*SonictheHedgehog3HydrocityZoneAct2MeatOfJustice_mvl/mxv
 BYTE   W12
// 067   ----------------------------------------
 BYTE   VOL   11*SonictheHedgehog3HydrocityZoneAct2MeatOfJustice_mvl/mxv
 BYTE   W12
 BYTE   VOL   11*SonictheHedgehog3HydrocityZoneAct2MeatOfJustice_mvl/mxv
 BYTE   W12
 BYTE   VOL   10*SonictheHedgehog3HydrocityZoneAct2MeatOfJustice_mvl/mxv
 BYTE   W12
 BYTE   VOL   8*SonictheHedgehog3HydrocityZoneAct2MeatOfJustice_mvl/mxv
 BYTE   W12
 BYTE   VOL   8*SonictheHedgehog3HydrocityZoneAct2MeatOfJustice_mvl/mxv
 BYTE   W12
 BYTE   VOL   6*SonictheHedgehog3HydrocityZoneAct2MeatOfJustice_mvl/mxv
 BYTE   W12
 BYTE   VOL   5*SonictheHedgehog3HydrocityZoneAct2MeatOfJustice_mvl/mxv
 BYTE   W12
 BYTE   VOL   5*SonictheHedgehog3HydrocityZoneAct2MeatOfJustice_mvl/mxv
 BYTE   W12
 BYTE   FINE

//**************** Track 7 (Midi-Chn.6) ****************//

SonictheHedgehog3HydrocityZoneAct2MeatOfJustice_007:
// 000   ----------------------------------------
 BYTE   KEYSH   SonictheHedgehog3HydrocityZoneAct2MeatOfJustice_key+0
Label_6_014DD656:
 BYTE   VOICE   62
 BYTE   PAN   c_v+0
 BYTE   VOL   48*SonictheHedgehog3HydrocityZoneAct2MeatOfJustice_mvl/mxv
 BYTE   MOD 0
 BYTE   N03  As2  v127
 BYTE   N03  Fn3
 BYTE   W12
 BYTE   As2
 BYTE   N03  Fn3
 BYTE   W18
 BYTE   As2
 BYTE   N03  Fn3
 BYTE   W12
 BYTE   N09  As2
 BYTE   N09  Fn3
 BYTE   W12
 BYTE   As2
 BYTE   N09  Fn3
 BYTE   W12
 BYTE   N03  As2
 BYTE   N03  Fn3
 BYTE   W06
 BYTE   As2
 BYTE   N03  Fn3
 BYTE   W12
 BYTE   As2
 BYTE   N03  Fn3
 BYTE   W12
// 001   ----------------------------------------
Label_6_014DD682:
 BYTE   N03  An2  v127
 BYTE   N03  Ds3
 BYTE   W12
 BYTE   An2
 BYTE   N03  Ds3
 BYTE   W18
 BYTE   An2
 BYTE   N03  Ds3
 BYTE   W06
 BYTE   An2
 BYTE   N03  Ds3
 BYTE   W06
 BYTE   As2
 BYTE   N03  En3
 BYTE   W12
 BYTE   N15  As2
 BYTE   N15  En3
 BYTE   W18
 BYTE   N03  As2
 BYTE   N03  En3
 BYTE   W12
 BYTE   As2
 BYTE   N03  En3
 BYTE   W12
 BYTE   PEND 
// 002   ----------------------------------------
Label_6_014DD6A7:
 BYTE   N03  As2  v127
 BYTE   N03  Fn3
 BYTE   W12
 BYTE   As2
 BYTE   N03  Fn3
 BYTE   W18
 BYTE   As2
 BYTE   N03  Fn3
 BYTE   W12
 BYTE   N09  As2
 BYTE   N09  Fn3
 BYTE   W12
 BYTE   As2
 BYTE   N09  Fn3
 BYTE   W12
 BYTE   N03  As2
 BYTE   N03  Fn3
 BYTE   W06
 BYTE   As2
 BYTE   N03  Fn3
 BYTE   W12
 BYTE   As2
 BYTE   N03  Fn3
 BYTE   W12
 BYTE   PEND 
// 003   ----------------------------------------
 BYTE   PATT
  POIN2 Label_6_014DD682
// 004   ----------------------------------------
 BYTE   PATT
  POIN2 Label_6_014DD6A7
// 005   ----------------------------------------
 BYTE   PATT
  POIN2 Label_6_014DD682
// 006   ----------------------------------------
 BYTE   PATT
  POIN2 Label_6_014DD6A7
// 007   ----------------------------------------
 BYTE   PATT
  POIN2 Label_6_014DD682
// 008   ----------------------------------------
 BYTE   PATT
  POIN2 Label_6_014DD6A7
// 009   ----------------------------------------
 BYTE   PATT
  POIN2 Label_6_014DD682
// 010   ----------------------------------------
 BYTE   PATT
  POIN2 Label_6_014DD6A7
// 011   ----------------------------------------
Label_6_014DD6F4:
 BYTE   W66
 BYTE   N24  Bn2  v127
 BYTE   N24  Bn3
 BYTE   W30
 BYTE   PEND 
// 012   ----------------------------------------
Label_6_014DD6FC:
 BYTE   N09  Cn3  v127
 BYTE   N09  Ds3
 BYTE   W12
 BYTE   N03  As2
 BYTE   N03  Dn3
 BYTE   W06
 BYTE   N09  Cn3
 BYTE   N09  Ds3
 BYTE   W12
 BYTE   As2
 BYTE   N09  Dn3
 BYTE   W12
 BYTE   N03  Cn3
 BYTE   N03  Ds3
 BYTE   W54
 BYTE   PEND 
// 013   ----------------------------------------
Label_6_014DD716:
 BYTE   N09  As2  v127
 BYTE   N09  Dn3
 BYTE   W12
 BYTE   N03
 BYTE   N03  Fn3
 BYTE   W06
 BYTE   N09  As2
 BYTE   N09  Dn3
 BYTE   W12
 BYTE   N09
 BYTE   N09  Fn3
 BYTE   W12
 BYTE   N03  As2
 BYTE   N03  Dn3
 BYTE   W54
 BYTE   PEND 
// 014   ----------------------------------------
Label_6_014DD72F:
 BYTE   N09  As2  v127
 BYTE   N09  Dn3
 BYTE   W12
 BYTE   N03  Gs2
 BYTE   N03  Cn3
 BYTE   W06
 BYTE   N09  As2
 BYTE   N09  Dn3
 BYTE   W12
 BYTE   Gs2
 BYTE   N09  Cn3
 BYTE   W12
 BYTE   N03  As2
 BYTE   N03  Dn3
 BYTE   W54
 BYTE   PEND 
// 015   ----------------------------------------
Label_6_014DD749:
 BYTE   W06
 BYTE   N03  Gn3  v127
 BYTE   N03  Cn4
 BYTE   W18
 BYTE   N09  Fn3
 BYTE   N09  As3
 BYTE   W12
 BYTE   N03  Fn3
 BYTE   N03  As3
 BYTE   W06
 BYTE   Gn3
 BYTE   N03  Cn4
 BYTE   W12
 BYTE   N15  As2
 BYTE   N15  As3
 BYTE   W18
 BYTE   N09  Cn3
 BYTE   N09  Cn4
 BYTE   W12
 BYTE   Cn3
 BYTE   N09  Cn4
 BYTE   W12
 BYTE   PEND 
// 016   ----------------------------------------
 BYTE   PATT
  POIN2 Label_6_014DD6FC
// 017   ----------------------------------------
 BYTE   PATT
  POIN2 Label_6_014DD716
// 018   ----------------------------------------
Label_6_014DD777:
 BYTE   N09  As2  v127
 BYTE   N09  Ds3
 BYTE   W12
 BYTE   N03  Gn2
 BYTE   N03  As2
 BYTE   W06
 BYTE   N09
 BYTE   N09  Ds3
 BYTE   W12
 BYTE   Gn2
 BYTE   N09  As2
 BYTE   W12
 BYTE   N03  An2
 BYTE   N03  Cn3
 BYTE   W54
 BYTE   PEND 
// 019   ----------------------------------------
 BYTE   W96
// 020   ----------------------------------------
Label_6_014DD791:
 BYTE   W06
 BYTE   N03  Ds3  v127
 BYTE   N03  Gn3
 BYTE   W06
 BYTE   Dn3
 BYTE   N03  Fn3
 BYTE   W06
 BYTE   Cn3
 BYTE   N03  Ds3
 BYTE   W12
 BYTE   As2
 BYTE   N03  Dn3
 BYTE   W06
 BYTE   Cn3
 BYTE   N03  Ds3
 BYTE   W06
 BYTE   Gs2
 BYTE   N03  Cn3
 BYTE   W54
 BYTE   PEND 
// 021   ----------------------------------------
Label_6_014DD7AD:
 BYTE   W06
 BYTE   N03  As3  v127
 BYTE   N03  Dn4
 BYTE   W06
 BYTE   Gn3
 BYTE   N03  As3
 BYTE   W06
 BYTE   Ds3
 BYTE   N03  Gn3
 BYTE   W06
 BYTE   N15  Ds2
 BYTE   N15  Cn3
 BYTE   N15  Ds3
 BYTE   W18
 BYTE   N24  Fn2
 BYTE   N24  Dn3
 BYTE   N24  Fn3
 BYTE   W54
 BYTE   PEND 
// 022   ----------------------------------------
 BYTE   PATT
  POIN2 Label_6_014DD791
// 023   ----------------------------------------
Label_6_014DD7D0:
 BYTE   N21  Ds3  v127
 BYTE   N21  Gn3
 BYTE   N21  Cn4
 BYTE   W24
 BYTE   N09  Dn3
 BYTE   N09  Fn3
 BYTE   N09  As3
 BYTE   W18
 BYTE   N03  Dn3
 BYTE   N03  Fn3
 BYTE   N03  As3
 BYTE   W18
 BYTE   N09  Cn3
 BYTE   N09  Ds3
 BYTE   N09  Gs3
 BYTE   W12
 BYTE   N21  Bn2
 BYTE   N21  Dn3
 BYTE   N21  Gn3
 BYTE   W24
 BYTE   PEND 
// 024   ----------------------------------------
 BYTE   PATT
  POIN2 Label_6_014DD791
// 025   ----------------------------------------
 BYTE   PATT
  POIN2 Label_6_014DD7AD
// 026   ----------------------------------------
 BYTE   PATT
  POIN2 Label_6_014DD791
// 027   ----------------------------------------
Label_6_014DD804:
 BYTE   W06
 BYTE   N03  Cn3  v127
 BYTE   N03  Ds3
 BYTE   N03  Gs3
 BYTE   W12
 BYTE   Cn3
 BYTE   N03  Ds3
 BYTE   N03  Gs3
 BYTE   W12
 BYTE   Cn3
 BYTE   N03  Ds3
 BYTE   N03  Gs3
 BYTE   W06
 BYTE   N09  Cn3
 BYTE   N09  Ds3
 BYTE   N09  Gs3
 BYTE   W12
 BYTE   N03  Bn2
 BYTE   N03  Dn3
 BYTE   N03  Gn3
 BYTE   W48
 BYTE   PEND 
// 028   ----------------------------------------
 BYTE   PATT
  POIN2 Label_6_014DD6A7
// 029   ----------------------------------------
 BYTE   PATT
  POIN2 Label_6_014DD682
// 030   ----------------------------------------
 BYTE   PATT
  POIN2 Label_6_014DD6A7
// 031   ----------------------------------------
 BYTE   PATT
  POIN2 Label_6_014DD682
// 032   ----------------------------------------
 BYTE   PATT
  POIN2 Label_6_014DD6A7
// 033   ----------------------------------------
 BYTE   PATT
  POIN2 Label_6_014DD682
// 034   ----------------------------------------
 BYTE   PATT
  POIN2 Label_6_014DD6A7
// 035   ----------------------------------------
 BYTE   PATT
  POIN2 Label_6_014DD682
// 036   ----------------------------------------
 BYTE   PATT
  POIN2 Label_6_014DD6A7
// 037   ----------------------------------------
 BYTE   PATT
  POIN2 Label_6_014DD682
// 038   ----------------------------------------
 BYTE   PATT
  POIN2 Label_6_014DD6A7
// 039   ----------------------------------------
 BYTE   PATT
  POIN2 Label_6_014DD6F4
// 040   ----------------------------------------
 BYTE   PATT
  POIN2 Label_6_014DD6FC
// 041   ----------------------------------------
 BYTE   PATT
  POIN2 Label_6_014DD716
// 042   ----------------------------------------
 BYTE   PATT
  POIN2 Label_6_014DD72F
// 043   ----------------------------------------
 BYTE   PATT
  POIN2 Label_6_014DD749
// 044   ----------------------------------------
 BYTE   PATT
  POIN2 Label_6_014DD6FC
// 045   ----------------------------------------
 BYTE   PATT
  POIN2 Label_6_014DD716
// 046   ----------------------------------------
 BYTE   PATT
  POIN2 Label_6_014DD777
// 047   ----------------------------------------
 BYTE   W96
// 048   ----------------------------------------
 BYTE   PATT
  POIN2 Label_6_014DD791
// 049   ----------------------------------------
 BYTE   PATT
  POIN2 Label_6_014DD7AD
// 050   ----------------------------------------
 BYTE   PATT
  POIN2 Label_6_014DD791
// 051   ----------------------------------------
 BYTE   PATT
  POIN2 Label_6_014DD7D0
// 052   ----------------------------------------
 BYTE   PATT
  POIN2 Label_6_014DD791
// 053   ----------------------------------------
 BYTE   PATT
  POIN2 Label_6_014DD7AD
// 054   ----------------------------------------
 BYTE   PATT
  POIN2 Label_6_014DD791
// 055   ----------------------------------------
 BYTE   PATT
  POIN2 Label_6_014DD804
// 056   ----------------------------------------
 BYTE   GoTo
  POIN2 Label_6_014DD656
// 057   ----------------------------------------
 BYTE   PATT
  POIN2 Label_6_014DD6A7
// 058   ----------------------------------------
 BYTE   PATT
  POIN2 Label_6_014DD682
// 059   ----------------------------------------
 BYTE   PATT
  POIN2 Label_6_014DD6A7
// 060   ----------------------------------------
 BYTE   PATT
  POIN2 Label_6_014DD682
// 061   ----------------------------------------
 BYTE   PATT
  POIN2 Label_6_014DD6A7
// 062   ----------------------------------------
 BYTE   PATT
  POIN2 Label_6_014DD682
// 063   ----------------------------------------
 BYTE   VOL   47*SonictheHedgehog3HydrocityZoneAct2MeatOfJustice_mvl/mxv
 BYTE   N03  As2  v127
 BYTE   N03  Fn3
 BYTE   W12
 BYTE   VOL   46*SonictheHedgehog3HydrocityZoneAct2MeatOfJustice_mvl/mxv
 BYTE   N03  As2
 BYTE   N03  Fn3
 BYTE   W12
 BYTE   VOL   44*SonictheHedgehog3HydrocityZoneAct2MeatOfJustice_mvl/mxv
 BYTE   W06
 BYTE   N03  As2
 BYTE   N03  Fn3
 BYTE   W06
 BYTE   VOL   44*SonictheHedgehog3HydrocityZoneAct2MeatOfJustice_mvl/mxv
 BYTE   W06
 BYTE   N09  As2
 BYTE   N09  Fn3
 BYTE   W06
 BYTE   VOL   43*SonictheHedgehog3HydrocityZoneAct2MeatOfJustice_mvl/mxv
 BYTE   W06
 BYTE   N09  As2
 BYTE   N09  Fn3
 BYTE   W06
 BYTE   VOL   42*SonictheHedgehog3HydrocityZoneAct2MeatOfJustice_mvl/mxv
 BYTE   W06
 BYTE   N03  As2
 BYTE   N03  Fn3
 BYTE   W06
 BYTE   VOL   41*SonictheHedgehog3HydrocityZoneAct2MeatOfJustice_mvl/mxv
 BYTE   N03  As2
 BYTE   N03  Fn3
 BYTE   W12
 BYTE   VOL   40*SonictheHedgehog3HydrocityZoneAct2MeatOfJustice_mvl/mxv
 BYTE   N03  As2
 BYTE   N03  Fn3
 BYTE   W12
// 064   ----------------------------------------
 BYTE   VOL   39*SonictheHedgehog3HydrocityZoneAct2MeatOfJustice_mvl/mxv
 BYTE   N03  An2
 BYTE   N03  Ds3
 BYTE   W12
 BYTE   VOL   38*SonictheHedgehog3HydrocityZoneAct2MeatOfJustice_mvl/mxv
 BYTE   N03  An2
 BYTE   N03  Ds3
 BYTE   W12
 BYTE   VOL   37*SonictheHedgehog3HydrocityZoneAct2MeatOfJustice_mvl/mxv
 BYTE   W06
 BYTE   N03  An2
 BYTE   N03  Ds3
 BYTE   W06
 BYTE   VOL   36*SonictheHedgehog3HydrocityZoneAct2MeatOfJustice_mvl/mxv
 BYTE   N03  An2
 BYTE   N03  Ds3
 BYTE   W06
 BYTE   As2
 BYTE   N03  En3
 BYTE   W06
 BYTE   VOL   35*SonictheHedgehog3HydrocityZoneAct2MeatOfJustice_mvl/mxv
 BYTE   W06
 BYTE   N15  As2
 BYTE   N15  En3
 BYTE   W06
 BYTE   VOL   34*SonictheHedgehog3HydrocityZoneAct2MeatOfJustice_mvl/mxv
 BYTE   W12
 BYTE   VOL   33*SonictheHedgehog3HydrocityZoneAct2MeatOfJustice_mvl/mxv
 BYTE   N03  As2
 BYTE   N03  En3
 BYTE   W12
 BYTE   VOL   32*SonictheHedgehog3HydrocityZoneAct2MeatOfJustice_mvl/mxv
 BYTE   N03  As2
 BYTE   N03  En3
 BYTE   W12
// 065   ----------------------------------------
 BYTE   VOL   31*SonictheHedgehog3HydrocityZoneAct2MeatOfJustice_mvl/mxv
 BYTE   N03  As2
 BYTE   N03  Fn3
 BYTE   W12
 BYTE   VOL   30*SonictheHedgehog3HydrocityZoneAct2MeatOfJustice_mvl/mxv
 BYTE   N03  As2
 BYTE   N03  Fn3
 BYTE   W12
 BYTE   VOL   29*SonictheHedgehog3HydrocityZoneAct2MeatOfJustice_mvl/mxv
 BYTE   W06
 BYTE   N03  As2
 BYTE   N03  Fn3
 BYTE   W06
 BYTE   VOL   28*SonictheHedgehog3HydrocityZoneAct2MeatOfJustice_mvl/mxv
 BYTE   W06
 BYTE   N09  As2
 BYTE   N09  Fn3
 BYTE   W06
 BYTE   VOL   27*SonictheHedgehog3HydrocityZoneAct2MeatOfJustice_mvl/mxv
 BYTE   W06
 BYTE   N09  As2
 BYTE   N09  Fn3
 BYTE   W06
 BYTE   VOL   26*SonictheHedgehog3HydrocityZoneAct2MeatOfJustice_mvl/mxv
 BYTE   W06
 BYTE   N03  As2
 BYTE   N03  Fn3
 BYTE   W06
 BYTE   VOL   25*SonictheHedgehog3HydrocityZoneAct2MeatOfJustice_mvl/mxv
 BYTE   N03  As2
 BYTE   N03  Fn3
 BYTE   W12
 BYTE   VOL   24*SonictheHedgehog3HydrocityZoneAct2MeatOfJustice_mvl/mxv
 BYTE   N03  As2
 BYTE   N03  Fn3
 BYTE   W12
// 066   ----------------------------------------
 BYTE   VOL   23*SonictheHedgehog3HydrocityZoneAct2MeatOfJustice_mvl/mxv
 BYTE   N03  An2
 BYTE   N03  Ds3
 BYTE   W12
 BYTE   VOL   22*SonictheHedgehog3HydrocityZoneAct2MeatOfJustice_mvl/mxv
 BYTE   N03  An2
 BYTE   N03  Ds3
 BYTE   W12
 BYTE   VOL   21*SonictheHedgehog3HydrocityZoneAct2MeatOfJustice_mvl/mxv
 BYTE   W06
 BYTE   N03  An2
 BYTE   N03  Ds3
 BYTE   W06
 BYTE   VOL   20*SonictheHedgehog3HydrocityZoneAct2MeatOfJustice_mvl/mxv
 BYTE   N03  An2
 BYTE   N03  Ds3
 BYTE   W06
 BYTE   As2
 BYTE   N03  En3
 BYTE   W06
 BYTE   VOL   19*SonictheHedgehog3HydrocityZoneAct2MeatOfJustice_mvl/mxv
 BYTE   W06
 BYTE   N15  As2
 BYTE   N15  En3
 BYTE   W06
 BYTE   VOL   18*SonictheHedgehog3HydrocityZoneAct2MeatOfJustice_mvl/mxv
 BYTE   W12
 BYTE   VOL   17*SonictheHedgehog3HydrocityZoneAct2MeatOfJustice_mvl/mxv
 BYTE   N03  As2
 BYTE   N03  En3
 BYTE   W12
 BYTE   VOL   16*SonictheHedgehog3HydrocityZoneAct2MeatOfJustice_mvl/mxv
 BYTE   N03  As2
 BYTE   N03  En3
 BYTE   W12
// 067   ----------------------------------------
 BYTE   VOL   15*SonictheHedgehog3HydrocityZoneAct2MeatOfJustice_mvl/mxv
 BYTE   N03  As2
 BYTE   N03  Fn3
 BYTE   W12
 BYTE   VOL   14*SonictheHedgehog3HydrocityZoneAct2MeatOfJustice_mvl/mxv
 BYTE   N03  As2
 BYTE   N03  Fn3
 BYTE   W12
 BYTE   VOL   13*SonictheHedgehog3HydrocityZoneAct2MeatOfJustice_mvl/mxv
 BYTE   W06
 BYTE   N03  As2
 BYTE   N03  Fn3
 BYTE   W06
 BYTE   VOL   12*SonictheHedgehog3HydrocityZoneAct2MeatOfJustice_mvl/mxv
 BYTE   W06
 BYTE   N09  As2
 BYTE   N09  Fn3
 BYTE   W06
 BYTE   VOL   11*SonictheHedgehog3HydrocityZoneAct2MeatOfJustice_mvl/mxv
 BYTE   W06
 BYTE   N09  As2
 BYTE   N09  Fn3
 BYTE   W06
 BYTE   VOL   10*SonictheHedgehog3HydrocityZoneAct2MeatOfJustice_mvl/mxv
 BYTE   W06
 BYTE   N03  As2
 BYTE   N03  Fn3
 BYTE   W06
 BYTE   VOL   9*SonictheHedgehog3HydrocityZoneAct2MeatOfJustice_mvl/mxv
 BYTE   N03  As2
 BYTE   N03  Fn3
 BYTE   W12
 BYTE   VOL   9*SonictheHedgehog3HydrocityZoneAct2MeatOfJustice_mvl/mxv
 BYTE   N03  As2
 BYTE   N03  Fn3
 BYTE   W12
 BYTE   FINE

//**************** Track 8 (Midi-Chn.7) ****************//

SonictheHedgehog3HydrocityZoneAct2MeatOfJustice_008:
// 000   ----------------------------------------
 BYTE   KEYSH   SonictheHedgehog3HydrocityZoneAct2MeatOfJustice_key+0
Label_7_54D49E:
 BYTE   VOICE   21
 BYTE   PAN   c_v+0
 BYTE   VOL   48*SonictheHedgehog3HydrocityZoneAct2MeatOfJustice_mvl/mxv
 BYTE   MOD 0
 BYTE   W96
// 001   ----------------------------------------
 BYTE   W96
// 002   ----------------------------------------
 BYTE   W96
// 003   ----------------------------------------
 BYTE   W96
// 004   ----------------------------------------
 BYTE   W96
// 005   ----------------------------------------
 BYTE   W96
// 006   ----------------------------------------
 BYTE   W96
// 007   ----------------------------------------
 BYTE   W96
// 008   ----------------------------------------
 BYTE   W96
// 009   ----------------------------------------
 BYTE   W96
// 010   ----------------------------------------
 BYTE   W96
// 011   ----------------------------------------
 BYTE   W96
// 012   ----------------------------------------
Label_7_54D4B2:
 BYTE   W60
 BYTE   N04  Gs3  v127
 BYTE   N04  Cn4
 BYTE   W06
 BYTE   Gs3
 BYTE   N04  Cn4
 BYTE   W12
 BYTE   As3
 BYTE   N04  Dn4
 BYTE   W06
 BYTE   N10  Cn4
 BYTE   N10  Ds4
 BYTE   W12
 BYTE   PEND 
// 013   ----------------------------------------
Label_7_54D4C7:
 BYTE   W60
 BYTE   N04  Gn3  v127
 BYTE   N04  As3
 BYTE   W06
 BYTE   Gn3
 BYTE   N04  As3
 BYTE   W12
 BYTE   Gs3
 BYTE   N04  Cn4
 BYTE   W06
 BYTE   N10  As3
 BYTE   N10  Dn4
 BYTE   W12
 BYTE   PEND 
// 014   ----------------------------------------
Label_7_54D4DC:
 BYTE   W60
 BYTE   N04  As3  v127
 BYTE   N04  Dn4
 BYTE   W06
 BYTE   As3
 BYTE   N04  Dn4
 BYTE   W12
 BYTE   Cn4
 BYTE   N04  Ds4
 BYTE   W06
 BYTE   N10  Dn4
 BYTE   N10  Fn4
 BYTE   W12
 BYTE   PEND 
// 015   ----------------------------------------
 BYTE   W96
// 016   ----------------------------------------
 BYTE   PATT
  POIN2 Label_7_54D4B2
// 017   ----------------------------------------
Label_7_54D4F7:
 BYTE   W60
 BYTE   N04  Gn3  v127
 BYTE   N04  As3
 BYTE   W06
 BYTE   Gn3
 BYTE   N04  As3
 BYTE   W12
 BYTE   N04
 BYTE   N04  Ds4
 BYTE   W06
 BYTE   N10
 BYTE   N10  Gn4
 BYTE   W12
 BYTE   PEND 
// 018   ----------------------------------------
Label_7_54D50B:
 BYTE   W60
 BYTE   N04  Fn3  v127
 BYTE   N04  An3
 BYTE   W06
 BYTE   Fn3
 BYTE   N04  An3
 BYTE   W12
 BYTE   N04
 BYTE   N04  Cn4
 BYTE   W06
 BYTE   N10
 BYTE   N10  Ds4
 BYTE   W12
 BYTE   PEND 
// 019   ----------------------------------------
Label_7_54D51F:
 BYTE   W06
 BYTE   N04  Cn4  v127
 BYTE   N04  Ds4
 BYTE   W12
 BYTE   Cn4
 BYTE   N04  Ds4
 BYTE   W12
 BYTE   Cn4
 BYTE   N04  Ds4
 BYTE   W06
 BYTE   N10  Cn4
 BYTE   N10  Ds4
 BYTE   W12
 BYTE   N04  Bn3
 BYTE   N04  Dn4
 BYTE   W06
 BYTE   Bn3
 BYTE   N04  Dn4
 BYTE   W12
 BYTE   Bn3
 BYTE   N04  Dn4
 BYTE   W30
 BYTE   PEND 
// 020   ----------------------------------------
 BYTE   W96
// 021   ----------------------------------------
 BYTE   W96
// 022   ----------------------------------------
 BYTE   W96
// 023   ----------------------------------------
 BYTE   W96
// 024   ----------------------------------------
 BYTE   W96
// 025   ----------------------------------------
 BYTE   W96
// 026   ----------------------------------------
 BYTE   W96
// 027   ----------------------------------------
 BYTE   W96
// 028   ----------------------------------------
 BYTE   W96
// 029   ----------------------------------------
 BYTE   W96
// 030   ----------------------------------------
 BYTE   W96
// 031   ----------------------------------------
 BYTE   W96
// 032   ----------------------------------------
 BYTE   W96
// 033   ----------------------------------------
 BYTE   W96
// 034   ----------------------------------------
 BYTE   W96
// 035   ----------------------------------------
 BYTE   W96
// 036   ----------------------------------------
 BYTE   W96
// 037   ----------------------------------------
 BYTE   W96
// 038   ----------------------------------------
 BYTE   W96
// 039   ----------------------------------------
 BYTE   W96
// 040   ----------------------------------------
 BYTE   PATT
  POIN2 Label_7_54D4B2
// 041   ----------------------------------------
 BYTE   PATT
  POIN2 Label_7_54D4C7
// 042   ----------------------------------------
 BYTE   PATT
  POIN2 Label_7_54D4DC
// 043   ----------------------------------------
 BYTE   W96
// 044   ----------------------------------------
 BYTE   PATT
  POIN2 Label_7_54D4B2
// 045   ----------------------------------------
 BYTE   PATT
  POIN2 Label_7_54D4F7
// 046   ----------------------------------------
 BYTE   PATT
  POIN2 Label_7_54D50B
// 047   ----------------------------------------
 BYTE   PATT
  POIN2 Label_7_54D51F
// 048   ----------------------------------------
 BYTE   W96
// 049   ----------------------------------------
 BYTE   W96
// 050   ----------------------------------------
 BYTE   W96
// 051   ----------------------------------------
 BYTE   W96
// 052   ----------------------------------------
 BYTE   W96
// 053   ----------------------------------------
 BYTE   W96
// 054   ----------------------------------------
 BYTE   W96
// 055   ----------------------------------------
 BYTE   W96
// 056   ----------------------------------------
 BYTE   GoTo
  POIN2 Label_7_54D49E
// 057   ----------------------------------------
 BYTE   W96
// 058   ----------------------------------------
 BYTE   W96
// 059   ----------------------------------------
 BYTE   W96
// 060   ----------------------------------------
 BYTE   W96
// 061   ----------------------------------------
 BYTE   W96
// 062   ----------------------------------------
 BYTE   W96
// 063   ----------------------------------------
 BYTE   W96
// 064   ----------------------------------------
 BYTE   W96
// 065   ----------------------------------------
 BYTE   W96
// 066   ----------------------------------------
 BYTE   W96
// 067   ----------------------------------------
 BYTE   W96
 BYTE   FINE

//**************** Track 9 (Midi-Chn.8) ****************//

SonictheHedgehog3HydrocityZoneAct2MeatOfJustice_009:
// 000   ----------------------------------------
 BYTE   KEYSH   SonictheHedgehog3HydrocityZoneAct2MeatOfJustice_key+0
Label_8_014DD9FE:
 BYTE   VOICE   123
 BYTE   PAN   c_v+0
 BYTE   VOL   48*SonictheHedgehog3HydrocityZoneAct2MeatOfJustice_mvl/mxv
 BYTE   MOD 0
 BYTE   W06
 BYTE   N06  Dn2  v127
 BYTE   W06
 BYTE   N06
 BYTE   W06
 BYTE   N06
 BYTE   W06
 BYTE   N06
 BYTE   W06
 BYTE   N06
 BYTE   W06
 BYTE   Bn1
 BYTE   W06
 BYTE   N06
 BYTE   W06
 BYTE   N06
 BYTE   W06
 BYTE   N06
 BYTE   W06
 BYTE   N06
 BYTE   W06
 BYTE   N06
 BYTE   W06
 BYTE   Gn1
 BYTE   W06
 BYTE   N06
 BYTE   W06
 BYTE   N06
 BYTE   W06
 BYTE   N06
 BYTE   W06
// 001   ----------------------------------------
Label_8_014DDA27:
 BYTE   N06  Cn1  v127
 BYTE   W12
 BYTE   Dn1
 BYTE   W06
 BYTE   Cn1
 BYTE   W06
 BYTE   N04  Fs1
 BYTE   W04
 BYTE   N04
 BYTE   W04
 BYTE   N04
 BYTE   W04
 BYTE   N06  As1
 BYTE   W06
 BYTE   Fs1  v064
 BYTE   W12
 BYTE   As1  v127
 BYTE   W06
 BYTE   Fs1  v064
 BYTE   W12
 BYTE   Cn1  v127
 BYTE   W12
 BYTE   Dn1
 BYTE   W12
 BYTE   PEND 
// 002   ----------------------------------------
Label_8_014DDA48:
 BYTE   W06
 BYTE   N06  Dn2  v127
 BYTE   W06
 BYTE   N06
 BYTE   W06
 BYTE   N06
 BYTE   W06
 BYTE   N06
 BYTE   W06
 BYTE   N06
 BYTE   W06
 BYTE   Bn1
 BYTE   W06
 BYTE   N06
 BYTE   W06
 BYTE   N06
 BYTE   W06
 BYTE   N06
 BYTE   W06
 BYTE   N06
 BYTE   W06
 BYTE   N06
 BYTE   W06
 BYTE   Gn1
 BYTE   W06
 BYTE   N06
 BYTE   W06
 BYTE   N06
 BYTE   W06
 BYTE   N06
 BYTE   W06
 BYTE   PEND 
// 003   ----------------------------------------
 BYTE   PATT
  POIN2 Label_8_014DDA27
// 004   ----------------------------------------
Label_8_014DDA6F:
 BYTE   N06  Cn1  v127
 BYTE   N06  Fs1
 BYTE   W06
 BYTE   N06
 BYTE   W06
 BYTE   As1
 BYTE   W06
 BYTE   Cn1
 BYTE   N06  Fs1
 BYTE   W06
 BYTE   Dn1
 BYTE   N06  Fs1
 BYTE   W06
 BYTE   Cn1
 BYTE   N06  As1
 BYTE   W06
 BYTE   Fs1
 BYTE   W06
 BYTE   Cn1
 BYTE   N06  Fs1
 BYTE   W06
 BYTE   N06
 BYTE   W06
 BYTE   N06
 BYTE   W06
 BYTE   Cn1
 BYTE   N06  Fs1
 BYTE   W06
 BYTE   N06
 BYTE   W06
 BYTE   Dn1
 BYTE   N06  Fs1
 BYTE   W06
 BYTE   N06
 BYTE   W06
 BYTE   Cn1
 BYTE   N06  Fs1
 BYTE   W06
 BYTE   N06
 BYTE   W06
 BYTE   PEND 
// 005   ----------------------------------------
Label_8_014DDAA2:
 BYTE   N06  Cn1  v127
 BYTE   N06  Fs1
 BYTE   W06
 BYTE   N06
 BYTE   W06
 BYTE   As1
 BYTE   W06
 BYTE   Cn1
 BYTE   N06  Fs1
 BYTE   W06
 BYTE   Dn1
 BYTE   N06  Fs1
 BYTE   W06
 BYTE   Cn1
 BYTE   N06  As1
 BYTE   W06
 BYTE   Fs1
 BYTE   W06
 BYTE   Cn1
 BYTE   N06  Fs1
 BYTE   W06
 BYTE   N06
 BYTE   W06
 BYTE   N06
 BYTE   W06
 BYTE   Cn1
 BYTE   N06  Fs1
 BYTE   W06
 BYTE   N06
 BYTE   W06
 BYTE   Dn1
 BYTE   N06  Fs1
 BYTE   W06
 BYTE   N06
 BYTE   W06
 BYTE   Cn1
 BYTE   N06  As1
 BYTE   W06
 BYTE   Fs1
 BYTE   W06
 BYTE   PEND 
// 006   ----------------------------------------
 BYTE   PATT
  POIN2 Label_8_014DDA6F
// 007   ----------------------------------------
Label_8_014DDADA:
 BYTE   N06  Cn1  v127
 BYTE   N06  Fs1
 BYTE   W06
 BYTE   N06
 BYTE   W06
 BYTE   As1
 BYTE   W06
 BYTE   Cn1
 BYTE   N06  Fs1
 BYTE   W06
 BYTE   N06
 BYTE   W06
 BYTE   Cn1
 BYTE   N06  As1
 BYTE   W06
 BYTE   Dn1
 BYTE   N06  Fs1
 BYTE   W06
 BYTE   N06
 BYTE   W06
 BYTE   N06
 BYTE   W06
 BYTE   Cn1
 BYTE   N06  Fs1
 BYTE   W06
 BYTE   N06
 BYTE   W06
 BYTE   N06
 BYTE   W06
 BYTE   Cn1
 BYTE   N06  Fs1
 BYTE   W06
 BYTE   N06
 BYTE   W06
 BYTE   Dn1
 BYTE   N06  As1
 BYTE   W06
 BYTE   Fs1
 BYTE   W06
 BYTE   PEND 
// 008   ----------------------------------------
 BYTE   PATT
  POIN2 Label_8_014DDA6F
// 009   ----------------------------------------
 BYTE   PATT
  POIN2 Label_8_014DDAA2
// 010   ----------------------------------------
Label_8_014DDB15:
 BYTE   N06  Cn1  v127
 BYTE   N06  Fs1
 BYTE   W06
 BYTE   N06
 BYTE   W06
 BYTE   As1
 BYTE   W06
 BYTE   Cn1
 BYTE   N06  Fs1
 BYTE   W06
 BYTE   Dn1
 BYTE   N06  Fs1
 BYTE   W06
 BYTE   Cn1
 BYTE   N06  As1
 BYTE   W06
 BYTE   Fs1
 BYTE   W06
 BYTE   Cn1
 BYTE   N06  Fs1
 BYTE   W06
 BYTE   N06
 BYTE   W06
 BYTE   N06
 BYTE   W06
 BYTE   Cn1
 BYTE   N06  Fs1
 BYTE   W06
 BYTE   N06
 BYTE   W06
 BYTE   Dn1
 BYTE   N06  Fs1
 BYTE   W06
 BYTE   N06
 BYTE   W06
 BYTE   Cn1
 BYTE   N06  Fs1
 BYTE   W06
 BYTE   Dn1
 BYTE   N06  Fs1
 BYTE   W06
 BYTE   PEND 
// 011   ----------------------------------------
Label_8_014DDB4A:
 BYTE   W06
 BYTE   N06  Cn1  v127
 BYTE   W12
 BYTE   N06
 BYTE   W18
 BYTE   N06
 BYTE   W06
 BYTE   Dn1
 BYTE   W24
 BYTE   N06
 BYTE   W12
 BYTE   Cn1
 BYTE   N06  Dn1
 BYTE   W06
 BYTE   Cn1
 BYTE   N06  Dn1
 BYTE   W06
 BYTE   Cn1
 BYTE   N06  Dn1
 BYTE   W06
 BYTE   PEND 
// 012   ----------------------------------------
Label_8_014DDB64:
 BYTE   N06  Cn1  v127
 BYTE   N06  Fs1
 BYTE   W06
 BYTE   N06
 BYTE   W06
 BYTE   As1
 BYTE   W06
 BYTE   Cn1
 BYTE   W06
 BYTE   Dn1
 BYTE   N06  Fs1
 BYTE   W06
 BYTE   Cn1
 BYTE   N06  Fs1
 BYTE   W06
 BYTE   As1
 BYTE   W06
 BYTE   Cn1
 BYTE   W06
 BYTE   Fs1
 BYTE   W06
 BYTE   N06
 BYTE   W06
 BYTE   Cn1
 BYTE   N06  As1
 BYTE   W12
 BYTE   Dn1
 BYTE   N06  Fs1
 BYTE   W06
 BYTE   N06
 BYTE   W06
 BYTE   Cn1
 BYTE   N06  As1
 BYTE   W12
 BYTE   PEND 
// 013   ----------------------------------------
 BYTE   PATT
  POIN2 Label_8_014DDB64
// 014   ----------------------------------------
 BYTE   PATT
  POIN2 Label_8_014DDB64
// 015   ----------------------------------------
Label_8_014DDB99:
 BYTE   W06
 BYTE   N06  Dn1  v127
 BYTE   W18
 BYTE   N06
 BYTE   W12
 BYTE   N06
 BYTE   W06
 BYTE   N06
 BYTE   W12
 BYTE   N06
 BYTE   W18
 BYTE   Cn1
 BYTE   N06  Dn1
 BYTE   W06
 BYTE   Cn1
 BYTE   N06  Dn1
 BYTE   W06
 BYTE   Cn1
 BYTE   N06  Dn1
 BYTE   W06
 BYTE   Cn1
 BYTE   N06  Dn1
 BYTE   W06
 BYTE   PEND 
// 016   ----------------------------------------
 BYTE   PATT
  POIN2 Label_8_014DDB64
// 017   ----------------------------------------
 BYTE   PATT
  POIN2 Label_8_014DDB64
// 018   ----------------------------------------
Label_8_014DDBC1:
 BYTE   N06  Cn1  v127
 BYTE   N06  Fs1
 BYTE   W06
 BYTE   N06
 BYTE   W06
 BYTE   As1
 BYTE   W06
 BYTE   Cn1
 BYTE   W06
 BYTE   Dn1
 BYTE   N06  Fs1
 BYTE   W06
 BYTE   Cn1
 BYTE   N06  Fs1
 BYTE   W06
 BYTE   As1
 BYTE   W06
 BYTE   Cn1
 BYTE   W06
 BYTE   Fs1
 BYTE   W06
 BYTE   N06
 BYTE   W06
 BYTE   Cn1
 BYTE   N06  As1
 BYTE   W12
 BYTE   Dn1
 BYTE   N06  Fs1
 BYTE   W06
 BYTE   N06
 BYTE   W06
 BYTE   Cn1
 BYTE   N06  As1
 BYTE   W06
 BYTE   Dn1
 BYTE   W06
 BYTE   PEND 
// 019   ----------------------------------------
Label_8_014DDBEE:
 BYTE   N06  Cn1  v127
 BYTE   W18
 BYTE   N06
 BYTE   W06
 BYTE   Dn1
 BYTE   W12
 BYTE   Cn1
 BYTE   W06
 BYTE   Dn1
 BYTE   W06
 BYTE   Cn1
 BYTE   W06
 BYTE   N06
 BYTE   W12
 BYTE   N06
 BYTE   W12
 BYTE   N06
 BYTE   W06
 BYTE   N06
 BYTE   W12
 BYTE   PEND 
// 020   ----------------------------------------
Label_8_014DDC05:
 BYTE   N06  Cn1  v127
 BYTE   N06  Fs1
 BYTE   W06
 BYTE   N06
 BYTE   W06
 BYTE   As1
 BYTE   W06
 BYTE   Cn1
 BYTE   W06
 BYTE   Dn1
 BYTE   N06  Fs1
 BYTE   W06
 BYTE   N06
 BYTE   W06
 BYTE   As1
 BYTE   W12
 BYTE   Fs1
 BYTE   W06
 BYTE   Cn1
 BYTE   N06  Fs1
 BYTE   W06
 BYTE   Cn1
 BYTE   N06  Fs1
 BYTE   W06
 BYTE   N06
 BYTE   W06
 BYTE   Dn1
 BYTE   N06  Fs1
 BYTE   W06
 BYTE   N06
 BYTE   W06
 BYTE   As1
 BYTE   W12
 BYTE   PEND 
// 021   ----------------------------------------
Label_8_014DDC2E:
 BYTE   N06  Cn1  v127
 BYTE   N06  Fs1
 BYTE   W06
 BYTE   N06
 BYTE   W06
 BYTE   N06
 BYTE   W06
 BYTE   Cn1
 BYTE   N06  Fs1
 BYTE   W06
 BYTE   Dn1
 BYTE   N06  Fs1
 BYTE   W06
 BYTE   N06
 BYTE   W06
 BYTE   N06
 BYTE   W06
 BYTE   N06
 BYTE   W06
 BYTE   N06
 BYTE   W06
 BYTE   Cn1
 BYTE   N06  Fs1
 BYTE   W06
 BYTE   Cn1
 BYTE   N06  Fs1
 BYTE   W06
 BYTE   N06
 BYTE   W06
 BYTE   Dn1
 BYTE   N06  Fs1
 BYTE   W06
 BYTE   N06
 BYTE   W06
 BYTE   As1
 BYTE   W12
 BYTE   PEND 
// 022   ----------------------------------------
 BYTE   PATT
  POIN2 Label_8_014DDC05
// 023   ----------------------------------------
Label_8_014DDC60:
 BYTE   N06  Cn1  v127
 BYTE   W12
 BYTE   Dn1
 BYTE   W12
 BYTE   Cn1
 BYTE   W06
 BYTE   Dn1
 BYTE   W12
 BYTE   Cn1
 BYTE   W12
 BYTE   N06
 BYTE   W06
 BYTE   N06
 BYTE   W12
 BYTE   N04
 BYTE   N04  Dn1
 BYTE   W04
 BYTE   Cn1
 BYTE   N04  Dn1
 BYTE   W04
 BYTE   Cn1
 BYTE   N04  Dn1
 BYTE   W04
 BYTE   N06  Cn1
 BYTE   N06  Dn1
 BYTE   W06
 BYTE   Cn1
 BYTE   N06  Dn1
 BYTE   W06
 BYTE   PEND 
// 024   ----------------------------------------
 BYTE   PATT
  POIN2 Label_8_014DDC05
// 025   ----------------------------------------
 BYTE   PATT
  POIN2 Label_8_014DDC2E
// 026   ----------------------------------------
Label_8_014DDC90:
 BYTE   N06  Cn1  v127
 BYTE   N06  Fs1
 BYTE   W06
 BYTE   N06
 BYTE   W06
 BYTE   As1
 BYTE   W06
 BYTE   Cn1
 BYTE   W06
 BYTE   Dn1
 BYTE   N06  Fs1
 BYTE   W06
 BYTE   N06
 BYTE   W06
 BYTE   As1
 BYTE   W12
 BYTE   Fs1
 BYTE   W06
 BYTE   Cn1
 BYTE   N06  Fs1
 BYTE   W06
 BYTE   Cn1
 BYTE   N06  As1
 BYTE   W12
 BYTE   Dn1
 BYTE   N06  Fs1
 BYTE   W06
 BYTE   N06
 BYTE   W06
 BYTE   As1
 BYTE   W12
 BYTE   PEND 
// 027   ----------------------------------------
Label_8_014DDCB7:
 BYTE   W06
 BYTE   N06  Dn1  v127
 BYTE   W12
 BYTE   N06
 BYTE   W12
 BYTE   N06
 BYTE   W06
 BYTE   N06
 BYTE   W12
 BYTE   N06
 BYTE   W24
 BYTE   N04  Cn1
 BYTE   N04  Dn1
 BYTE   W04
 BYTE   Cn1
 BYTE   N04  Dn1
 BYTE   W04
 BYTE   Cn1
 BYTE   N04  Dn1
 BYTE   W04
 BYTE   N06  Cn1
 BYTE   N06  Dn1
 BYTE   W06
 BYTE   Cn1
 BYTE   N06  Dn1
 BYTE   W06
 BYTE   PEND 
// 028   ----------------------------------------
 BYTE   PATT
  POIN2 Label_8_014DDA48
// 029   ----------------------------------------
 BYTE   PATT
  POIN2 Label_8_014DDA27
// 030   ----------------------------------------
 BYTE   PATT
  POIN2 Label_8_014DDA48
// 031   ----------------------------------------
 BYTE   PATT
  POIN2 Label_8_014DDA27
// 032   ----------------------------------------
 BYTE   PATT
  POIN2 Label_8_014DDA6F
// 033   ----------------------------------------
 BYTE   PATT
  POIN2 Label_8_014DDAA2
// 034   ----------------------------------------
 BYTE   PATT
  POIN2 Label_8_014DDA6F
// 035   ----------------------------------------
 BYTE   PATT
  POIN2 Label_8_014DDADA
// 036   ----------------------------------------
 BYTE   PATT
  POIN2 Label_8_014DDA6F
// 037   ----------------------------------------
 BYTE   PATT
  POIN2 Label_8_014DDAA2
// 038   ----------------------------------------
 BYTE   PATT
  POIN2 Label_8_014DDB15
// 039   ----------------------------------------
 BYTE   PATT
  POIN2 Label_8_014DDB4A
// 040   ----------------------------------------
 BYTE   PATT
  POIN2 Label_8_014DDB64
// 041   ----------------------------------------
 BYTE   PATT
  POIN2 Label_8_014DDB64
// 042   ----------------------------------------
 BYTE   PATT
  POIN2 Label_8_014DDB64
// 043   ----------------------------------------
 BYTE   PATT
  POIN2 Label_8_014DDB99
// 044   ----------------------------------------
 BYTE   PATT
  POIN2 Label_8_014DDB64
// 045   ----------------------------------------
 BYTE   PATT
  POIN2 Label_8_014DDB64
// 046   ----------------------------------------
 BYTE   PATT
  POIN2 Label_8_014DDBC1
// 047   ----------------------------------------
 BYTE   PATT
  POIN2 Label_8_014DDBEE
// 048   ----------------------------------------
 BYTE   PATT
  POIN2 Label_8_014DDC05
// 049   ----------------------------------------
 BYTE   PATT
  POIN2 Label_8_014DDC2E
// 050   ----------------------------------------
 BYTE   PATT
  POIN2 Label_8_014DDC05
// 051   ----------------------------------------
 BYTE   PATT
  POIN2 Label_8_014DDC60
// 052   ----------------------------------------
 BYTE   PATT
  POIN2 Label_8_014DDC05
// 053   ----------------------------------------
 BYTE   PATT
  POIN2 Label_8_014DDC2E
// 054   ----------------------------------------
 BYTE   PATT
  POIN2 Label_8_014DDC90
// 055   ----------------------------------------
 BYTE   PATT
  POIN2 Label_8_014DDCB7
// 056   ----------------------------------------
 BYTE   GoTo
  POIN2 Label_8_014DD9FE
// 057   ----------------------------------------
 BYTE   PATT
  POIN2 Label_8_014DDA48
// 058   ----------------------------------------
 BYTE   PATT
  POIN2 Label_8_014DDA27
// 059   ----------------------------------------
 BYTE   PATT
  POIN2 Label_8_014DDA48
// 060   ----------------------------------------
 BYTE   PATT
  POIN2 Label_8_014DDA27
// 061   ----------------------------------------
 BYTE   PATT
  POIN2 Label_8_014DDA6F
// 062   ----------------------------------------
 BYTE   PATT
  POIN2 Label_8_014DDAA2
// 063   ----------------------------------------
 BYTE   VOL   47*SonictheHedgehog3HydrocityZoneAct2MeatOfJustice_mvl/mxv
 BYTE   N06  Cn1  v127
 BYTE   N06  Fs1
 BYTE   W06
 BYTE   N06
 BYTE   W06
 BYTE   VOL   45*SonictheHedgehog3HydrocityZoneAct2MeatOfJustice_mvl/mxv
 BYTE   N06  As1
 BYTE   W06
 BYTE   Cn1
 BYTE   N06  Fs1
 BYTE   W06
 BYTE   VOL   45*SonictheHedgehog3HydrocityZoneAct2MeatOfJustice_mvl/mxv
 BYTE   N06  Dn1
 BYTE   N06  Fs1
 BYTE   W06
 BYTE   Cn1
 BYTE   N06  As1
 BYTE   W06
 BYTE   VOL   44*SonictheHedgehog3HydrocityZoneAct2MeatOfJustice_mvl/mxv
 BYTE   N06  Fs1
 BYTE   W06
 BYTE   Cn1
 BYTE   N06  Fs1
 BYTE   W06
 BYTE   VOL   42*SonictheHedgehog3HydrocityZoneAct2MeatOfJustice_mvl/mxv
 BYTE   N06
 BYTE   W06
 BYTE   N06
 BYTE   W06
 BYTE   VOL   41*SonictheHedgehog3HydrocityZoneAct2MeatOfJustice_mvl/mxv
 BYTE   N06  Cn1
 BYTE   N06  Fs1
 BYTE   W06
 BYTE   N06
 BYTE   W06
 BYTE   VOL   40*SonictheHedgehog3HydrocityZoneAct2MeatOfJustice_mvl/mxv
 BYTE   N06  Dn1
 BYTE   N06  Fs1
 BYTE   W06
 BYTE   N06
 BYTE   W06
 BYTE   VOL   39*SonictheHedgehog3HydrocityZoneAct2MeatOfJustice_mvl/mxv
 BYTE   N06  Cn1
 BYTE   N06  Fs1
 BYTE   W06
 BYTE   N06
 BYTE   W06
// 064   ----------------------------------------
 BYTE   VOL   38*SonictheHedgehog3HydrocityZoneAct2MeatOfJustice_mvl/mxv
 BYTE   N06  Cn1
 BYTE   N06  Fs1
 BYTE   W06
 BYTE   N06
 BYTE   W06
 BYTE   VOL   37*SonictheHedgehog3HydrocityZoneAct2MeatOfJustice_mvl/mxv
 BYTE   N06  As1
 BYTE   W06
 BYTE   Cn1
 BYTE   N06  Fs1
 BYTE   W06
 BYTE   VOL   35*SonictheHedgehog3HydrocityZoneAct2MeatOfJustice_mvl/mxv
 BYTE   N06
 BYTE   W06
 BYTE   Cn1
 BYTE   N06  As1
 BYTE   W06
 BYTE   VOL   35*SonictheHedgehog3HydrocityZoneAct2MeatOfJustice_mvl/mxv
 BYTE   N06  Dn1
 BYTE   N06  Fs1
 BYTE   W06
 BYTE   N06
 BYTE   W06
 BYTE   VOL   33*SonictheHedgehog3HydrocityZoneAct2MeatOfJustice_mvl/mxv
 BYTE   N06
 BYTE   W06
 BYTE   Cn1
 BYTE   N06  Fs1
 BYTE   W06
 BYTE   VOL   32*SonictheHedgehog3HydrocityZoneAct2MeatOfJustice_mvl/mxv
 BYTE   N06
 BYTE   W06
 BYTE   N06
 BYTE   W06
 BYTE   VOL   31*SonictheHedgehog3HydrocityZoneAct2MeatOfJustice_mvl/mxv
 BYTE   N06  Cn1
 BYTE   N06  Fs1
 BYTE   W06
 BYTE   N06
 BYTE   W06
 BYTE   VOL   30*SonictheHedgehog3HydrocityZoneAct2MeatOfJustice_mvl/mxv
 BYTE   N06  Dn1
 BYTE   N06  As1
 BYTE   W06
 BYTE   Fs1
 BYTE   W06
// 065   ----------------------------------------
 BYTE   VOL   29*SonictheHedgehog3HydrocityZoneAct2MeatOfJustice_mvl/mxv
 BYTE   N06  Cn1
 BYTE   N06  Fs1
 BYTE   W06
 BYTE   N06
 BYTE   W06
 BYTE   VOL   28*SonictheHedgehog3HydrocityZoneAct2MeatOfJustice_mvl/mxv
 BYTE   N06  As1
 BYTE   W06
 BYTE   Cn1
 BYTE   N06  Fs1
 BYTE   W06
 BYTE   VOL   27*SonictheHedgehog3HydrocityZoneAct2MeatOfJustice_mvl/mxv
 BYTE   N06  Dn1
 BYTE   N06  Fs1
 BYTE   W06
 BYTE   Cn1
 BYTE   N06  As1
 BYTE   W06
 BYTE   VOL   26*SonictheHedgehog3HydrocityZoneAct2MeatOfJustice_mvl/mxv
 BYTE   N06  Fs1
 BYTE   W06
 BYTE   Cn1
 BYTE   N06  Fs1
 BYTE   W06
 BYTE   VOL   25*SonictheHedgehog3HydrocityZoneAct2MeatOfJustice_mvl/mxv
 BYTE   N06
 BYTE   W06
 BYTE   N06
 BYTE   W06
 BYTE   VOL   23*SonictheHedgehog3HydrocityZoneAct2MeatOfJustice_mvl/mxv
 BYTE   N06  Cn1
 BYTE   N06  Fs1
 BYTE   W06
 BYTE   N06
 BYTE   W06
 BYTE   VOL   22*SonictheHedgehog3HydrocityZoneAct2MeatOfJustice_mvl/mxv
 BYTE   N06  Dn1
 BYTE   N06  Fs1
 BYTE   W06
 BYTE   N06
 BYTE   W06
 BYTE   VOL   22*SonictheHedgehog3HydrocityZoneAct2MeatOfJustice_mvl/mxv
 BYTE   N06  Cn1
 BYTE   N06  Fs1
 BYTE   W06
 BYTE   N06
 BYTE   W06
// 066   ----------------------------------------
 BYTE   VOL   20*SonictheHedgehog3HydrocityZoneAct2MeatOfJustice_mvl/mxv
 BYTE   N06  Cn1
 BYTE   N06  Fs1
 BYTE   W06
 BYTE   N06
 BYTE   W06
 BYTE   VOL   19*SonictheHedgehog3HydrocityZoneAct2MeatOfJustice_mvl/mxv
 BYTE   N06  As1
 BYTE   W06
 BYTE   Cn1
 BYTE   N06  Fs1
 BYTE   W06
 BYTE   VOL   18*SonictheHedgehog3HydrocityZoneAct2MeatOfJustice_mvl/mxv
 BYTE   N06  Dn1
 BYTE   N06  Fs1
 BYTE   W06
 BYTE   Cn1
 BYTE   N06  As1
 BYTE   W06
 BYTE   VOL   17*SonictheHedgehog3HydrocityZoneAct2MeatOfJustice_mvl/mxv
 BYTE   N06  Fs1
 BYTE   W06
 BYTE   Cn1
 BYTE   N06  Fs1
 BYTE   W06
 BYTE   VOL   16*SonictheHedgehog3HydrocityZoneAct2MeatOfJustice_mvl/mxv
 BYTE   N06
 BYTE   W06
 BYTE   N06
 BYTE   W06
 BYTE   VOL   15*SonictheHedgehog3HydrocityZoneAct2MeatOfJustice_mvl/mxv
 BYTE   N06  Cn1
 BYTE   N06  Fs1
 BYTE   W06
 BYTE   N06
 BYTE   W06
 BYTE   VOL   14*SonictheHedgehog3HydrocityZoneAct2MeatOfJustice_mvl/mxv
 BYTE   N06  Dn1
 BYTE   N06  Fs1
 BYTE   W06
 BYTE   N06
 BYTE   W06
 BYTE   VOL   13*SonictheHedgehog3HydrocityZoneAct2MeatOfJustice_mvl/mxv
 BYTE   N06  Cn1
 BYTE   N06  As1
 BYTE   W06
 BYTE   Fs1
 BYTE   W06
// 067   ----------------------------------------
 BYTE   VOL   11*SonictheHedgehog3HydrocityZoneAct2MeatOfJustice_mvl/mxv
 BYTE   N06  Cn1
 BYTE   N06  Fs1
 BYTE   W06
 BYTE   N06
 BYTE   W06
 BYTE   VOL   11*SonictheHedgehog3HydrocityZoneAct2MeatOfJustice_mvl/mxv
 BYTE   N06  As1
 BYTE   W06
 BYTE   Cn1
 BYTE   N06  Fs1
 BYTE   W06
 BYTE   VOL   10*SonictheHedgehog3HydrocityZoneAct2MeatOfJustice_mvl/mxv
 BYTE   N06  Dn1
 BYTE   N06  Fs1
 BYTE   W06
 BYTE   Cn1
 BYTE   N06  As1
 BYTE   W06
 BYTE   VOL   8*SonictheHedgehog3HydrocityZoneAct2MeatOfJustice_mvl/mxv
 BYTE   N06  Fs1
 BYTE   W06
 BYTE   Cn1
 BYTE   N06  Fs1
 BYTE   W06
 BYTE   VOL   8*SonictheHedgehog3HydrocityZoneAct2MeatOfJustice_mvl/mxv
 BYTE   N06
 BYTE   W06
 BYTE   N06
 BYTE   W06
 BYTE   VOL   6*SonictheHedgehog3HydrocityZoneAct2MeatOfJustice_mvl/mxv
 BYTE   N06  Cn1
 BYTE   N06  Fs1
 BYTE   W06
 BYTE   N06
 BYTE   W06
 BYTE   VOL   5*SonictheHedgehog3HydrocityZoneAct2MeatOfJustice_mvl/mxv
 BYTE   N06  Dn1
 BYTE   N06  Fs1
 BYTE   W06
 BYTE   N06
 BYTE   W06
 BYTE   VOL   5*SonictheHedgehog3HydrocityZoneAct2MeatOfJustice_mvl/mxv
 BYTE   N06  Cn1
 BYTE   N06  Fs1
 BYTE   W06
 BYTE   Dn1
 BYTE   N06  Fs1
 BYTE   W06
 BYTE   FINE

//******************************************************//
	ALIGN 4

SonictheHedgehog3HydrocityZoneAct2MeatOfJustice:
	BYTE	9	// NumTrks
	BYTE	0	// NumBlks
	BYTE	SonictheHedgehog3HydrocityZoneAct2MeatOfJustice_pri	// Priority
	BYTE	SonictheHedgehog3HydrocityZoneAct2MeatOfJustice_rev	// Reverb.
    
	POIN2	SonictheHedgehog3HydrocityZoneAct2MeatOfJustice_grp
    
	POIN2	SonictheHedgehog3HydrocityZoneAct2MeatOfJustice_001
	POIN2	SonictheHedgehog3HydrocityZoneAct2MeatOfJustice_002
	POIN2	SonictheHedgehog3HydrocityZoneAct2MeatOfJustice_003
	POIN2	SonictheHedgehog3HydrocityZoneAct2MeatOfJustice_004
	POIN2	SonictheHedgehog3HydrocityZoneAct2MeatOfJustice_005
	POIN2	SonictheHedgehog3HydrocityZoneAct2MeatOfJustice_006
	POIN2	SonictheHedgehog3HydrocityZoneAct2MeatOfJustice_007
	POIN2	SonictheHedgehog3HydrocityZoneAct2MeatOfJustice_008
	POIN2	SonictheHedgehog3HydrocityZoneAct2MeatOfJustice_009

	
