//Event file generated from Sappy .s format.
	#include "MPlayDef.event"

	#define	SonictheHedgehog3IceCapZoneAct1MeatOfJustice_grp  voicegroup000
	#define	SonictheHedgehog3IceCapZoneAct1MeatOfJustice_pri  0
	#define	SonictheHedgehog3IceCapZoneAct1MeatOfJustice_rev  0
	#define	SonictheHedgehog3IceCapZoneAct1MeatOfJustice_mvl  127
	#define	SonictheHedgehog3IceCapZoneAct1MeatOfJustice_key  0
	#define	SonictheHedgehog3IceCapZoneAct1MeatOfJustice_tbs  1
	#define	SonictheHedgehog3IceCapZoneAct1MeatOfJustice_exg  0
	#define	SonictheHedgehog3IceCapZoneAct1MeatOfJustice_cmp  1

	// .rodata
	//	SonictheHedgehog3IceCapZoneAct1MeatOfJustice
	ALIGN 4


//**************** Track 1 (Midi-Chn.0) ****************//

SonictheHedgehog3IceCapZoneAct1MeatOfJustice_001:
// 000   ----------------------------------------
 BYTE   KEYSH   SonictheHedgehog3IceCapZoneAct1MeatOfJustice_key+0
 BYTE   TEMPO   130*SonictheHedgehog3IceCapZoneAct1MeatOfJustice_tbs/2
 BYTE   VOICE   46
 BYTE   VOL   24*SonictheHedgehog3IceCapZoneAct1MeatOfJustice_mvl/mxv
 BYTE   N48  Cn4  v127
 BYTE   N96  Ds4
 BYTE   N96  Gn4
 BYTE   W48
 BYTE   N48  As3
 BYTE   W48
// 001   ----------------------------------------
Label_0_014DC8BB:
 BYTE   N48  Gs3  v127
 BYTE   N48  Cn4
 BYTE   W48
 BYTE   As3
 BYTE   N48  Dn4
 BYTE   N48  Fn4
 BYTE   W48
 BYTE   PEND 
// 002   ----------------------------------------
Label_0_014DC8C8:
 BYTE   N48  Cn4  v127
 BYTE   N96  Ds4
 BYTE   N96  Gn4
 BYTE   W48
 BYTE   N48  As3
 BYTE   W48
 BYTE   PEND 
// 003   ----------------------------------------
Label_0_014DC8D4:
 BYTE   N96  As3  v127
 BYTE   N96  Dn4
 BYTE   N96  Fn4
 BYTE   W96
 BYTE   PEND 
// 004   ----------------------------------------
Label_0_014DC8DD:
 BYTE   VOL   32*SonictheHedgehog3IceCapZoneAct1MeatOfJustice_mvl/mxv
 BYTE   N48  Cn4  v127
 BYTE   N96  Ds4
 BYTE   N96  Gn4
 BYTE   W48
 BYTE   N48  As3
 BYTE   W48
 BYTE   PEND 
// 005   ----------------------------------------
 BYTE   PATT
  POIN2 Label_0_014DC8BB
// 006   ----------------------------------------
 BYTE   PATT
  POIN2 Label_0_014DC8C8
// 007   ----------------------------------------
 BYTE   PATT
  POIN2 Label_0_014DC8D4
// 008   ----------------------------------------
Label_0_014DC8FA:
 BYTE   N06  Cn4  v127
 BYTE   W06
 BYTE   N06
 BYTE   N06  Gn4
 BYTE   W06
 BYTE   Ds4
 BYTE   N06  Cn5
 BYTE   W06
 BYTE   Ds4
 BYTE   N06  Gn4
 BYTE   W06
 BYTE   Cn4
 BYTE   W06
 BYTE   N06
 BYTE   N06  Gn4
 BYTE   W06
 BYTE   Ds4
 BYTE   N06  Cn5
 BYTE   W06
 BYTE   Ds4
 BYTE   N06  Gn4
 BYTE   W06
 BYTE   Cn4
 BYTE   W06
 BYTE   N06
 BYTE   N06  Gs4
 BYTE   W06
 BYTE   Ds4
 BYTE   N06  Cn5
 BYTE   W06
 BYTE   Ds4
 BYTE   N06  Gs4
 BYTE   W06
 BYTE   Cn4
 BYTE   W06
 BYTE   N06
 BYTE   N06  Gs4
 BYTE   W06
 BYTE   Ds4
 BYTE   N06  Cn5
 BYTE   W06
 BYTE   Ds4
 BYTE   N06  Gs4
 BYTE   W06
 BYTE   PEND 
// 009   ----------------------------------------
Label_0_014DC935:
 BYTE   N06  Dn4  v127
 BYTE   W06
 BYTE   N06
 BYTE   N06  As4
 BYTE   W06
 BYTE   Fn4
 BYTE   N06  Dn5
 BYTE   W06
 BYTE   Fn4
 BYTE   N06  As4
 BYTE   W06
 BYTE   Dn4
 BYTE   W06
 BYTE   N06
 BYTE   N06  As4
 BYTE   W06
 BYTE   Fn4
 BYTE   N06  Dn5
 BYTE   W06
 BYTE   Fn4
 BYTE   N06  As4
 BYTE   W06
 BYTE   Dn4
 BYTE   W06
 BYTE   N06
 BYTE   N06  As4
 BYTE   W06
 BYTE   Gn4
 BYTE   N06  Dn5
 BYTE   W06
 BYTE   Gn4
 BYTE   N06  As4
 BYTE   W06
 BYTE   Dn4
 BYTE   W06
 BYTE   N06
 BYTE   N06  As4
 BYTE   W06
 BYTE   Gn4
 BYTE   N06  Dn5
 BYTE   W06
 BYTE   Gn4
 BYTE   N06  As4
 BYTE   W06
 BYTE   PEND 
// 010   ----------------------------------------
 BYTE   PATT
  POIN2 Label_0_014DC8FA
// 011   ----------------------------------------
 BYTE   PATT
  POIN2 Label_0_014DC935
// 012   ----------------------------------------
 BYTE   PATT
  POIN2 Label_0_014DC8FA
// 013   ----------------------------------------
Label_0_014DC97F:
// 014   ----------------------------------------
 BYTE   PATT
  POIN2 Label_0_014DC935
// 015   ----------------------------------------
 BYTE   PATT
  POIN2 Label_0_014DC8FA
// 016   ----------------------------------------
Label_0_014DC989:
 BYTE   N06  Dn4  v127
 BYTE   W06
 BYTE   N06
 BYTE   N06  As4
 BYTE   W06
 BYTE   Fn4
 BYTE   N06  Dn5
 BYTE   W06
 BYTE   Fn4
 BYTE   N06  As4
 BYTE   W06
 BYTE   Dn4
 BYTE   W06
 BYTE   N06
 BYTE   N06  As4
 BYTE   W06
 BYTE   Fn4
 BYTE   N06  Dn5
 BYTE   W06
 BYTE   Fn4
 BYTE   N06  As4
 BYTE   W06
 BYTE   Dn4
 BYTE   W06
 BYTE   N06
 BYTE   N06  As4
 BYTE   W06
 BYTE   Fn4
 BYTE   N06  Dn5
 BYTE   W06
 BYTE   Fn4
 BYTE   N06  As4
 BYTE   W06
 BYTE   Dn4
 BYTE   W06
 BYTE   N06
 BYTE   N06  As4
 BYTE   W06
 BYTE   Fn4
 BYTE   N06  Dn5
 BYTE   W06
 BYTE   Fn4
 BYTE   N06  As4
 BYTE   W06
 BYTE   PEND 
// 017   ----------------------------------------
 BYTE   VOL   39*SonictheHedgehog3IceCapZoneAct1MeatOfJustice_mvl/mxv
 BYTE   N48  Cn4
 BYTE   N96  Ds4
 BYTE   N96  Gn4
 BYTE   W48
 BYTE   N48  As3
 BYTE   W48
// 018   ----------------------------------------
 BYTE   PATT
  POIN2 Label_0_014DC8BB
// 019   ----------------------------------------
 BYTE   PATT
  POIN2 Label_0_014DC8C8
// 020   ----------------------------------------
 BYTE   PATT
  POIN2 Label_0_014DC8D4
// 021   ----------------------------------------
 BYTE   PATT
  POIN2 Label_0_014DC8DD
// 022   ----------------------------------------
 BYTE   PATT
  POIN2 Label_0_014DC8BB
// 023   ----------------------------------------
 BYTE   PATT
  POIN2 Label_0_014DC8C8
// 024   ----------------------------------------
 BYTE   PATT
  POIN2 Label_0_014DC8D4
// 025   ----------------------------------------
 BYTE   PATT
  POIN2 Label_0_014DC8FA
// 026   ----------------------------------------
 BYTE   PATT
  POIN2 Label_0_014DC935
// 027   ----------------------------------------
 BYTE   PATT
  POIN2 Label_0_014DC8FA
// 028   ----------------------------------------
 BYTE   PATT
  POIN2 Label_0_014DC935
// 029   ----------------------------------------
 BYTE   PATT
  POIN2 Label_0_014DC8FA
// 030   ----------------------------------------
 BYTE   PATT
  POIN2 Label_0_014DC935
// 031   ----------------------------------------
 BYTE   PATT
  POIN2 Label_0_014DC8FA
// 032   ----------------------------------------
 BYTE   PATT
  POIN2 Label_0_014DC989
// 033   ----------------------------------------
 BYTE   VOL   32*SonictheHedgehog3IceCapZoneAct1MeatOfJustice_mvl/mxv
 BYTE   N06  Cn4  v127
 BYTE   W06
 BYTE   N06
 BYTE   N06  Gn4
 BYTE   W06
 BYTE   Ds4
 BYTE   N06  Cn5
 BYTE   W06
 BYTE   Ds4
 BYTE   N06  Gn4
 BYTE   W06
 BYTE   Cn4
 BYTE   W06
 BYTE   N06
 BYTE   N06  Gn4
 BYTE   W06
 BYTE   Ds4
 BYTE   N06  Cn5
 BYTE   W06
 BYTE   Ds4
 BYTE   N06  Gn4
 BYTE   W06
 BYTE   VOL   30*SonictheHedgehog3IceCapZoneAct1MeatOfJustice_mvl/mxv
 BYTE   N06  Cn4
 BYTE   W06
 BYTE   N06
 BYTE   N06  Gs4
 BYTE   W06
 BYTE   Ds4
 BYTE   N06  Cn5
 BYTE   W06
 BYTE   Ds4
 BYTE   N06  Gs4
 BYTE   W06
 BYTE   Cn4
 BYTE   W06
 BYTE   N06
 BYTE   N06  Gs4
 BYTE   W06
 BYTE   Ds4
 BYTE   N06  Cn5
 BYTE   W06
 BYTE   Ds4
 BYTE   N06  Gs4
 BYTE   W06
// 034   ----------------------------------------
 BYTE   GoTo
  POIN2 Label_0_014DC97F
// 035   ----------------------------------------
 BYTE   VOL   28*SonictheHedgehog3IceCapZoneAct1MeatOfJustice_mvl/mxv
 BYTE   N06  Dn4  v127
 BYTE   W06
 BYTE   N06
 BYTE   N06  As4
 BYTE   W06
 BYTE   Fn4
 BYTE   N06  Dn5
 BYTE   W06
 BYTE   Fn4
 BYTE   N06  As4
 BYTE   W06
 BYTE   Dn4
 BYTE   W06
 BYTE   N06
 BYTE   N06  As4
 BYTE   W06
 BYTE   Fn4
 BYTE   N06  Dn5
 BYTE   W06
 BYTE   Fn4
 BYTE   N06  As4
 BYTE   W06
 BYTE   VOL   25*SonictheHedgehog3IceCapZoneAct1MeatOfJustice_mvl/mxv
 BYTE   N06  Dn4
 BYTE   W06
 BYTE   N06
 BYTE   N06  As4
 BYTE   W06
 BYTE   Gn4
 BYTE   N06  Dn5
 BYTE   W06
 BYTE   Gn4
 BYTE   N06  As4
 BYTE   W06
 BYTE   Dn4
 BYTE   W06
 BYTE   N06
 BYTE   N06  As4
 BYTE   W06
 BYTE   Gn4
 BYTE   N06  Dn5
 BYTE   W06
 BYTE   Gn4
 BYTE   N06  As4
 BYTE   W06
// 036   ----------------------------------------
 BYTE   VOL   24*SonictheHedgehog3IceCapZoneAct1MeatOfJustice_mvl/mxv
 BYTE   N06  Cn4
 BYTE   W06
 BYTE   N06
 BYTE   N06  Gn4
 BYTE   W06
 BYTE   Ds4
 BYTE   N06  Cn5
 BYTE   W06
 BYTE   Ds4
 BYTE   N06  Gn4
 BYTE   W06
 BYTE   Cn4
 BYTE   W06
 BYTE   N06
 BYTE   N06  Gn4
 BYTE   W06
 BYTE   Ds4
 BYTE   N06  Cn5
 BYTE   W06
 BYTE   Ds4
 BYTE   N06  Gn4
 BYTE   W06
 BYTE   VOL   22*SonictheHedgehog3IceCapZoneAct1MeatOfJustice_mvl/mxv
 BYTE   N06  Cn4
 BYTE   W06
 BYTE   N06
 BYTE   N06  Gs4
 BYTE   W06
 BYTE   Ds4
 BYTE   N06  Cn5
 BYTE   W06
 BYTE   Ds4
 BYTE   N06  Gs4
 BYTE   W06
 BYTE   Cn4
 BYTE   W06
 BYTE   N06
 BYTE   N06  Gs4
 BYTE   W06
 BYTE   Ds4
 BYTE   N06  Cn5
 BYTE   W06
 BYTE   Ds4
 BYTE   N06  Gs4
 BYTE   W06
// 037   ----------------------------------------
 BYTE   VOL   20*SonictheHedgehog3IceCapZoneAct1MeatOfJustice_mvl/mxv
 BYTE   N06  Dn4
 BYTE   W06
 BYTE   N06
 BYTE   N06  As4
 BYTE   W06
 BYTE   Fn4
 BYTE   N06  Dn5
 BYTE   W06
 BYTE   Fn4
 BYTE   N06  As4
 BYTE   W06
 BYTE   Dn4
 BYTE   W06
 BYTE   N06
 BYTE   N06  As4
 BYTE   W06
 BYTE   Fn4
 BYTE   N06  Dn5
 BYTE   W06
 BYTE   Fn4
 BYTE   N06  As4
 BYTE   W06
 BYTE   VOL   18*SonictheHedgehog3IceCapZoneAct1MeatOfJustice_mvl/mxv
 BYTE   N06  Dn4
 BYTE   W06
 BYTE   N06
 BYTE   N06  As4
 BYTE   W06
 BYTE   Gn4
 BYTE   N06  Dn5
 BYTE   W06
 BYTE   Gn4
 BYTE   N06  As4
 BYTE   W06
 BYTE   Dn4
 BYTE   W06
 BYTE   N06
 BYTE   N06  As4
 BYTE   W06
 BYTE   Gn4
 BYTE   N06  Dn5
 BYTE   W06
 BYTE   Gn4
 BYTE   N06  As4
 BYTE   W06
// 038   ----------------------------------------
 BYTE   VOL   16*SonictheHedgehog3IceCapZoneAct1MeatOfJustice_mvl/mxv
 BYTE   N06  Cn4
 BYTE   W06
 BYTE   N06
 BYTE   N06  Gn4
 BYTE   W06
 BYTE   Ds4
 BYTE   N06  Cn5
 BYTE   W06
 BYTE   Ds4
 BYTE   N06  Gn4
 BYTE   W06
 BYTE   Cn4
 BYTE   W06
 BYTE   N06
 BYTE   N06  Gn4
 BYTE   W06
 BYTE   Ds4
 BYTE   N06  Cn5
 BYTE   W06
 BYTE   Ds4
 BYTE   N06  Gn4
 BYTE   W06
 BYTE   VOL   14*SonictheHedgehog3IceCapZoneAct1MeatOfJustice_mvl/mxv
 BYTE   N06  Cn4
 BYTE   W06
 BYTE   N06
 BYTE   N06  Gs4
 BYTE   W06
 BYTE   Ds4
 BYTE   N06  Cn5
 BYTE   W06
 BYTE   Ds4
 BYTE   N06  Gs4
 BYTE   W06
 BYTE   Cn4
 BYTE   W06
 BYTE   N06
 BYTE   N06  Gs4
 BYTE   W06
 BYTE   Ds4
 BYTE   N06  Cn5
 BYTE   W06
 BYTE   Ds4
 BYTE   N06  Gs4
 BYTE   W06
// 039   ----------------------------------------
 BYTE   VOL   12*SonictheHedgehog3IceCapZoneAct1MeatOfJustice_mvl/mxv
 BYTE   N06  Dn4
 BYTE   W06
 BYTE   N06
 BYTE   N06  As4
 BYTE   W06
 BYTE   Fn4
 BYTE   N06  Dn5
 BYTE   W06
 BYTE   Fn4
 BYTE   N06  As4
 BYTE   W06
 BYTE   Dn4
 BYTE   W06
 BYTE   N06
 BYTE   N06  As4
 BYTE   W06
 BYTE   Fn4
 BYTE   N06  Dn5
 BYTE   W06
 BYTE   Fn4
 BYTE   N06  As4
 BYTE   W06
 BYTE   VOL   10*SonictheHedgehog3IceCapZoneAct1MeatOfJustice_mvl/mxv
 BYTE   N06  Dn4
 BYTE   W06
 BYTE   N06
 BYTE   N06  As4
 BYTE   W06
 BYTE   Gn4
 BYTE   N06  Dn5
 BYTE   W06
 BYTE   Gn4
 BYTE   N06  As4
 BYTE   W06
 BYTE   Dn4
 BYTE   W06
 BYTE   N06
 BYTE   N06  As4
 BYTE   W06
 BYTE   Gn4
 BYTE   N06  Dn5
 BYTE   W06
 BYTE   Gn4
 BYTE   N06  As4
 BYTE   W06
// 040   ----------------------------------------
 BYTE   VOL   8*SonictheHedgehog3IceCapZoneAct1MeatOfJustice_mvl/mxv
 BYTE   N06  Cn4
 BYTE   W06
 BYTE   N06
 BYTE   N06  Gn4
 BYTE   W06
 BYTE   Ds4
 BYTE   N06  Cn5
 BYTE   W06
 BYTE   Ds4
 BYTE   N06  Gn4
 BYTE   W06
 BYTE   Cn4
 BYTE   W06
 BYTE   N06
 BYTE   N06  Gn4
 BYTE   W06
 BYTE   Ds4
 BYTE   N06  Cn5
 BYTE   W06
 BYTE   Ds4
 BYTE   N06  Gn4
 BYTE   W06
 BYTE   VOL   6*SonictheHedgehog3IceCapZoneAct1MeatOfJustice_mvl/mxv
 BYTE   N06  Cn4
 BYTE   W06
 BYTE   N06
 BYTE   N06  Gs4
 BYTE   W06
 BYTE   Ds4
 BYTE   N06  Cn5
 BYTE   W06
 BYTE   Ds4
 BYTE   N06  Gs4
 BYTE   W06
 BYTE   Cn4
 BYTE   W06
 BYTE   N06
 BYTE   N06  Gs4
 BYTE   W06
 BYTE   Ds4
 BYTE   N06  Cn5
 BYTE   W06
 BYTE   Ds4
 BYTE   N06  Gs4
 BYTE   W06
// 041   ----------------------------------------
 BYTE   VOL   4*SonictheHedgehog3IceCapZoneAct1MeatOfJustice_mvl/mxv
 BYTE   N06  Dn4
 BYTE   W06
 BYTE   N06
 BYTE   N06  As4
 BYTE   W06
 BYTE   Fn4
 BYTE   N06  Dn5
 BYTE   W06
 BYTE   Fn4
 BYTE   N06  As4
 BYTE   W06
 BYTE   Dn4
 BYTE   W06
 BYTE   N06
 BYTE   N06  As4
 BYTE   W06
 BYTE   Fn4
 BYTE   N06  Dn5
 BYTE   W06
 BYTE   Fn4
 BYTE   N06  As4
 BYTE   W06
 BYTE   VOL   2*SonictheHedgehog3IceCapZoneAct1MeatOfJustice_mvl/mxv
 BYTE   N06  Dn4
 BYTE   W06
 BYTE   N06
 BYTE   N06  As4
 BYTE   W06
 BYTE   Fn4
 BYTE   N06  Dn5
 BYTE   W06
 BYTE   Fn4
 BYTE   N06  As4
 BYTE   W06
 BYTE   Dn4
 BYTE   W06
 BYTE   N06
 BYTE   N06  As4
 BYTE   W06
 BYTE   Fn4
 BYTE   N06  Dn5
 BYTE   W06
 BYTE   Fn4
 BYTE   N06  As4
 BYTE   W06
 BYTE   FINE

//**************** Track 2 (Midi-Chn.1) ****************//

SonictheHedgehog3IceCapZoneAct1MeatOfJustice_002:
// 000   ----------------------------------------
 BYTE   KEYSH   SonictheHedgehog3IceCapZoneAct1MeatOfJustice_key+0
 BYTE   VOICE   40
 BYTE   VOL   40*SonictheHedgehog3IceCapZoneAct1MeatOfJustice_mvl/mxv
 BYTE   W96
// 001   ----------------------------------------
 BYTE   W96
// 002   ----------------------------------------
 BYTE   W96
// 003   ----------------------------------------
 BYTE   W96
// 004   ----------------------------------------
 BYTE   W96
// 005   ----------------------------------------
 BYTE   W96
// 006   ----------------------------------------
 BYTE   W96
// 007   ----------------------------------------
 BYTE   W96
// 008   ----------------------------------------
Label_1_54BEC2:
 BYTE   N24  Cn4  v127
 BYTE   W24
 BYTE   Cn5
 BYTE   W24
 BYTE   N48  As4
 BYTE   W48
 BYTE   PEND 
// 009   ----------------------------------------
Label_1_54BECC:
 BYTE   N18  Dn4  v127
 BYTE   W18
 BYTE   Ds4
 BYTE   W18
 BYTE   N12  Fn4
 BYTE   W12
 BYTE   N48  As3
 BYTE   W48
 BYTE   PEND 
// 010   ----------------------------------------
 BYTE   PATT
  POIN2 Label_1_54BEC2
// 011   ----------------------------------------
 BYTE   N96  Dn4  v127
 BYTE   W96
// 012   ----------------------------------------
 BYTE   PATT
  POIN2 Label_1_54BEC2
// 013   ----------------------------------------
Label_1_54BEE7:
// 014   ----------------------------------------
 BYTE   PATT
  POIN2 Label_1_54BECC
// 015   ----------------------------------------
 BYTE   PATT
  POIN2 Label_1_54BEC2
// 016   ----------------------------------------
 BYTE   N96  Dn4  v127
 BYTE   W96
// 017   ----------------------------------------
 BYTE   VOL   40*SonictheHedgehog3IceCapZoneAct1MeatOfJustice_mvl/mxv
 BYTE   W96
// 018   ----------------------------------------
 BYTE   W96
// 019   ----------------------------------------
 BYTE   W96
// 020   ----------------------------------------
 BYTE   W96
// 021   ----------------------------------------
 BYTE   W96
// 022   ----------------------------------------
 BYTE   W96
// 023   ----------------------------------------
 BYTE   W96
// 024   ----------------------------------------
 BYTE   W96
// 025   ----------------------------------------
 BYTE   PATT
  POIN2 Label_1_54BEC2
// 026   ----------------------------------------
 BYTE   PATT
  POIN2 Label_1_54BECC
// 027   ----------------------------------------
 BYTE   PATT
  POIN2 Label_1_54BEC2
// 028   ----------------------------------------
 BYTE   N96  Dn4  v127
 BYTE   W96
// 029   ----------------------------------------
 BYTE   PATT
  POIN2 Label_1_54BEC2
// 030   ----------------------------------------
 BYTE   PATT
  POIN2 Label_1_54BECC
// 031   ----------------------------------------
 BYTE   PATT
  POIN2 Label_1_54BEC2
// 032   ----------------------------------------
 BYTE   N96  Dn4  v127
 BYTE   W96
// 033   ----------------------------------------
 BYTE   VOL   40*SonictheHedgehog3IceCapZoneAct1MeatOfJustice_mvl/mxv
 BYTE   N24  Cn4
 BYTE   W24
 BYTE   Cn5
 BYTE   W14
 BYTE   VOL   38*SonictheHedgehog3IceCapZoneAct1MeatOfJustice_mvl/mxv
 BYTE   W10
 BYTE   N48  As4
 BYTE   W28
 BYTE   VOL   36*SonictheHedgehog3IceCapZoneAct1MeatOfJustice_mvl/mxv
 BYTE   W20
// 034   ----------------------------------------
 BYTE   GoTo
  POIN2 Label_1_54BEE7
// 035   ----------------------------------------
 BYTE   N18  Dn4  v127
 BYTE   W18
 BYTE   Ds4
 BYTE   W01
 BYTE   VOL   34*SonictheHedgehog3IceCapZoneAct1MeatOfJustice_mvl/mxv
 BYTE   W17
 BYTE   N12  Fn4
 BYTE   W12
 BYTE   N48  As3
 BYTE   W09
 BYTE   VOL   32*SonictheHedgehog3IceCapZoneAct1MeatOfJustice_mvl/mxv
 BYTE   W36
 BYTE   W03
// 036   ----------------------------------------
 BYTE   VOL   30*SonictheHedgehog3IceCapZoneAct1MeatOfJustice_mvl/mxv
 BYTE   N24  Cn4
 BYTE   W24
 BYTE   Cn5
 BYTE   W14
 BYTE   VOL   28*SonictheHedgehog3IceCapZoneAct1MeatOfJustice_mvl/mxv
 BYTE   W10
 BYTE   N48  As4
 BYTE   W28
 BYTE   VOL   26*SonictheHedgehog3IceCapZoneAct1MeatOfJustice_mvl/mxv
 BYTE   W20
// 037   ----------------------------------------
 BYTE   N96  Dn4
 BYTE   W19
 BYTE   VOL   24*SonictheHedgehog3IceCapZoneAct1MeatOfJustice_mvl/mxv
 BYTE   W36
 BYTE   W02
 BYTE   VOL   22*SonictheHedgehog3IceCapZoneAct1MeatOfJustice_mvl/mxv
 BYTE   W36
 BYTE   W03
// 038   ----------------------------------------
 BYTE   VOL   20*SonictheHedgehog3IceCapZoneAct1MeatOfJustice_mvl/mxv
 BYTE   N24  Cn4
 BYTE   W24
 BYTE   Cn5
 BYTE   W14
 BYTE   VOL   18*SonictheHedgehog3IceCapZoneAct1MeatOfJustice_mvl/mxv
 BYTE   W10
 BYTE   N48  As4
 BYTE   W28
 BYTE   VOL   16*SonictheHedgehog3IceCapZoneAct1MeatOfJustice_mvl/mxv
 BYTE   W20
// 039   ----------------------------------------
 BYTE   N18  Dn4
 BYTE   W18
 BYTE   Ds4
 BYTE   W01
 BYTE   VOL   14*SonictheHedgehog3IceCapZoneAct1MeatOfJustice_mvl/mxv
 BYTE   W17
 BYTE   N12  Fn4
 BYTE   W12
 BYTE   N48  As3
 BYTE   W09
 BYTE   VOL   12*SonictheHedgehog3IceCapZoneAct1MeatOfJustice_mvl/mxv
 BYTE   W36
 BYTE   W03
// 040   ----------------------------------------
 BYTE   VOL   10*SonictheHedgehog3IceCapZoneAct1MeatOfJustice_mvl/mxv
 BYTE   N24  Cn4
 BYTE   W24
 BYTE   Cn5
 BYTE   W14
 BYTE   VOL   8*SonictheHedgehog3IceCapZoneAct1MeatOfJustice_mvl/mxv
 BYTE   W10
 BYTE   N48  As4
 BYTE   W28
 BYTE   VOL   6*SonictheHedgehog3IceCapZoneAct1MeatOfJustice_mvl/mxv
 BYTE   W20
// 041   ----------------------------------------
 BYTE   N96  Dn4
 BYTE   W19
 BYTE   VOL   4*SonictheHedgehog3IceCapZoneAct1MeatOfJustice_mvl/mxv
 BYTE   W36
 BYTE   W02
 BYTE   VOL   2*SonictheHedgehog3IceCapZoneAct1MeatOfJustice_mvl/mxv
 BYTE   W36
 BYTE   W03
 BYTE   FINE

//**************** Track 3 (Midi-Chn.2) ****************//

SonictheHedgehog3IceCapZoneAct1MeatOfJustice_003:
// 000   ----------------------------------------
 BYTE   KEYSH   SonictheHedgehog3IceCapZoneAct1MeatOfJustice_key+0
 BYTE   VOICE   38
 BYTE   VOL   32*SonictheHedgehog3IceCapZoneAct1MeatOfJustice_mvl/mxv
 BYTE   N48  Cn3  v127
 BYTE   N96  Ds3
 BYTE   N96  Gn3
 BYTE   W48
 BYTE   N48  As2
 BYTE   W48
// 001   ----------------------------------------
Label_2_54D4AD:
 BYTE   N48  Gs2  v127
 BYTE   N48  Cn3
 BYTE   W48
 BYTE   As2
 BYTE   N48  Dn3
 BYTE   N48  Fn3
 BYTE   W48
 BYTE   PEND 
// 002   ----------------------------------------
Label_2_54D4BA:
 BYTE   N48  Cn3  v127
 BYTE   N96  Ds3
 BYTE   N96  Gn3
 BYTE   W48
 BYTE   N48  As2
 BYTE   W48
 BYTE   PEND 
// 003   ----------------------------------------
Label_2_54D4C6:
 BYTE   N96  As2  v127
 BYTE   N96  Dn3
 BYTE   N96  Fn3
 BYTE   W96
 BYTE   PEND 
// 004   ----------------------------------------
 BYTE   PATT
  POIN2 Label_2_54D4BA
// 005   ----------------------------------------
 BYTE   PATT
  POIN2 Label_2_54D4AD
// 006   ----------------------------------------
 BYTE   PATT
  POIN2 Label_2_54D4BA
// 007   ----------------------------------------
 BYTE   PATT
  POIN2 Label_2_54D4C6
// 008   ----------------------------------------
Label_2_54D4E3:
 BYTE   N48  Ds2  v127
 BYTE   W48
 BYTE   Cn2
 BYTE   W48
 BYTE   PEND 
// 009   ----------------------------------------
 BYTE   N96  Dn2
 BYTE   W96
// 010   ----------------------------------------
 BYTE   PATT
  POIN2 Label_2_54D4E3
// 011   ----------------------------------------
 BYTE   N96  Dn2  v127
 BYTE   W96
// 012   ----------------------------------------
 BYTE   PATT
  POIN2 Label_2_54D4E3
// 013   ----------------------------------------
Label_2_54D4FB:
 BYTE   N96  Dn2  v127
 BYTE   W96
// 014   ----------------------------------------
 BYTE   PATT
  POIN2 Label_2_54D4E3
// 015   ----------------------------------------
 BYTE   N96  Dn2  v127
 BYTE   W96
// 016   ----------------------------------------
 BYTE   VOL   32*SonictheHedgehog3IceCapZoneAct1MeatOfJustice_mvl/mxv
 BYTE   N48  Cn3
 BYTE   N96  Ds3
 BYTE   N96  Gn3
 BYTE   W48
 BYTE   N48  As2
 BYTE   W48
// 017   ----------------------------------------
 BYTE   PATT
  POIN2 Label_2_54D4AD
// 018   ----------------------------------------
 BYTE   PATT
  POIN2 Label_2_54D4BA
// 019   ----------------------------------------
 BYTE   PATT
  POIN2 Label_2_54D4C6
// 020   ----------------------------------------
 BYTE   PATT
  POIN2 Label_2_54D4BA
// 021   ----------------------------------------
 BYTE   PATT
  POIN2 Label_2_54D4AD
// 022   ----------------------------------------
 BYTE   PATT
  POIN2 Label_2_54D4BA
// 023   ----------------------------------------
 BYTE   PATT
  POIN2 Label_2_54D4C6
// 024   ----------------------------------------
 BYTE   PATT
  POIN2 Label_2_54D4E3
// 025   ----------------------------------------
 BYTE   N96  Dn2  v127
 BYTE   W96
// 026   ----------------------------------------
 BYTE   PATT
  POIN2 Label_2_54D4E3
// 027   ----------------------------------------
 BYTE   N96  Dn2  v127
 BYTE   W96
// 028   ----------------------------------------
 BYTE   PATT
  POIN2 Label_2_54D4E3
// 029   ----------------------------------------
 BYTE   N96  Dn2  v127
 BYTE   W96
// 030   ----------------------------------------
 BYTE   PATT
  POIN2 Label_2_54D4E3
// 031   ----------------------------------------
 BYTE   N96  Dn2  v127
 BYTE   W96
// 032   ----------------------------------------
 BYTE   VOL   32*SonictheHedgehog3IceCapZoneAct1MeatOfJustice_mvl/mxv
 BYTE   N48  Ds2
 BYTE   W48
 BYTE   VOL   30*SonictheHedgehog3IceCapZoneAct1MeatOfJustice_mvl/mxv
 BYTE   N48  Cn2
 BYTE   W48
// 033   ----------------------------------------
 BYTE   GoTo
  POIN2 Label_2_54D4FB
// 034   ----------------------------------------
 BYTE   VOL   28*SonictheHedgehog3IceCapZoneAct1MeatOfJustice_mvl/mxv
 BYTE   N96  Dn2  v127
 BYTE   W48
 BYTE   VOL   26*SonictheHedgehog3IceCapZoneAct1MeatOfJustice_mvl/mxv
 BYTE   W48
// 035   ----------------------------------------
 BYTE   VOL   24*SonictheHedgehog3IceCapZoneAct1MeatOfJustice_mvl/mxv
 BYTE   N48  Ds2
 BYTE   W48
 BYTE   VOL   22*SonictheHedgehog3IceCapZoneAct1MeatOfJustice_mvl/mxv
 BYTE   N48  Cn2
 BYTE   W48
// 036   ----------------------------------------
 BYTE   VOL   20*SonictheHedgehog3IceCapZoneAct1MeatOfJustice_mvl/mxv
 BYTE   N96  Dn2
 BYTE   W48
 BYTE   VOL   18*SonictheHedgehog3IceCapZoneAct1MeatOfJustice_mvl/mxv
 BYTE   W48
// 037   ----------------------------------------
 BYTE   VOL   16*SonictheHedgehog3IceCapZoneAct1MeatOfJustice_mvl/mxv
 BYTE   N48  Ds2
 BYTE   W48
 BYTE   VOL   14*SonictheHedgehog3IceCapZoneAct1MeatOfJustice_mvl/mxv
 BYTE   N48  Cn2
 BYTE   W48
// 038   ----------------------------------------
 BYTE   VOL   12*SonictheHedgehog3IceCapZoneAct1MeatOfJustice_mvl/mxv
 BYTE   N96  Dn2
 BYTE   W48
 BYTE   VOL   10*SonictheHedgehog3IceCapZoneAct1MeatOfJustice_mvl/mxv
 BYTE   W48
// 039   ----------------------------------------
 BYTE   VOL   8*SonictheHedgehog3IceCapZoneAct1MeatOfJustice_mvl/mxv
 BYTE   N48  Ds2
 BYTE   W48
 BYTE   VOL   6*SonictheHedgehog3IceCapZoneAct1MeatOfJustice_mvl/mxv
 BYTE   N48  Cn2
 BYTE   W48
// 040   ----------------------------------------
 BYTE   VOL   4*SonictheHedgehog3IceCapZoneAct1MeatOfJustice_mvl/mxv
 BYTE   N96  Dn2
 BYTE   W48
 BYTE   VOL   2*SonictheHedgehog3IceCapZoneAct1MeatOfJustice_mvl/mxv
 BYTE   W48
 BYTE   FINE

//**************** Track 4 (Midi-Chn.3) ****************//

SonictheHedgehog3IceCapZoneAct1MeatOfJustice_004:
// 000   ----------------------------------------
 BYTE   KEYSH   SonictheHedgehog3IceCapZoneAct1MeatOfJustice_key+0
 BYTE   VOICE   46
 BYTE   VOL   40*SonictheHedgehog3IceCapZoneAct1MeatOfJustice_mvl/mxv
 BYTE   W96
// 001   ----------------------------------------
Label_3_54D5AF:
 BYTE   N48  Gs1  v127
 BYTE   W48
 BYTE   Gn1
 BYTE   W48
 BYTE   PEND 
// 002   ----------------------------------------
 BYTE   W96
// 003   ----------------------------------------
 BYTE   W96
// 004   ----------------------------------------
 BYTE   W96
// 005   ----------------------------------------
 BYTE   PATT
  POIN2 Label_3_54D5AF
// 006   ----------------------------------------
 BYTE   W96
// 007   ----------------------------------------
 BYTE   W96
// 008   ----------------------------------------
Label_3_54D5C0:
 BYTE   N48  Gn2  v127
 BYTE   W48
 BYTE   Gs2
 BYTE   W48
 BYTE   PEND 
// 009   ----------------------------------------
Label_3_54D5C7:
 BYTE   N48  Fn2  v127
 BYTE   W48
 BYTE   As2
 BYTE   W48
 BYTE   PEND 
// 010   ----------------------------------------
 BYTE   PATT
  POIN2 Label_3_54D5C0
// 011   ----------------------------------------
 BYTE   PATT
  POIN2 Label_3_54D5C7
// 012   ----------------------------------------
 BYTE   PATT
  POIN2 Label_3_54D5C0
// 013   ----------------------------------------
Label_3_54D5DD:
// 014   ----------------------------------------
 BYTE   PATT
  POIN2 Label_3_54D5C7
// 015   ----------------------------------------
 BYTE   PATT
  POIN2 Label_3_54D5C0
// 016   ----------------------------------------
 BYTE   N96  Fn2  v127
 BYTE   W96
// 017   ----------------------------------------
 BYTE   VOL   40*SonictheHedgehog3IceCapZoneAct1MeatOfJustice_mvl/mxv
 BYTE   W96
// 018   ----------------------------------------
 BYTE   PATT
  POIN2 Label_3_54D5AF
// 019   ----------------------------------------
 BYTE   W96
// 020   ----------------------------------------
 BYTE   W96
// 021   ----------------------------------------
 BYTE   W96
// 022   ----------------------------------------
 BYTE   PATT
  POIN2 Label_3_54D5AF
// 023   ----------------------------------------
 BYTE   W96
// 024   ----------------------------------------
 BYTE   W96
// 025   ----------------------------------------
 BYTE   PATT
  POIN2 Label_3_54D5C0
// 026   ----------------------------------------
 BYTE   PATT
  POIN2 Label_3_54D5C7
// 027   ----------------------------------------
 BYTE   PATT
  POIN2 Label_3_54D5C0
// 028   ----------------------------------------
 BYTE   PATT
  POIN2 Label_3_54D5C7
// 029   ----------------------------------------
 BYTE   PATT
  POIN2 Label_3_54D5C0
// 030   ----------------------------------------
 BYTE   PATT
  POIN2 Label_3_54D5C7
// 031   ----------------------------------------
 BYTE   PATT
  POIN2 Label_3_54D5C0
// 032   ----------------------------------------
 BYTE   N96  Fn2  v127
 BYTE   W96
// 033   ----------------------------------------
 BYTE   VOL   32*SonictheHedgehog3IceCapZoneAct1MeatOfJustice_mvl/mxv
 BYTE   N48  Gn2
 BYTE   W48
 BYTE   VOL   30*SonictheHedgehog3IceCapZoneAct1MeatOfJustice_mvl/mxv
 BYTE   N48  Gs2
 BYTE   W48
// 034   ----------------------------------------
 BYTE   GoTo
  POIN2 Label_3_54D5DD
// 035   ----------------------------------------
 BYTE   VOL   28*SonictheHedgehog3IceCapZoneAct1MeatOfJustice_mvl/mxv
 BYTE   N48  Fn2  v127
 BYTE   W48
 BYTE   VOL   26*SonictheHedgehog3IceCapZoneAct1MeatOfJustice_mvl/mxv
 BYTE   N48  As2
 BYTE   W48
// 036   ----------------------------------------
 BYTE   VOL   24*SonictheHedgehog3IceCapZoneAct1MeatOfJustice_mvl/mxv
 BYTE   N48  Gn2
 BYTE   W48
 BYTE   VOL   22*SonictheHedgehog3IceCapZoneAct1MeatOfJustice_mvl/mxv
 BYTE   N48  Gs2
 BYTE   W48
// 037   ----------------------------------------
 BYTE   VOL   20*SonictheHedgehog3IceCapZoneAct1MeatOfJustice_mvl/mxv
 BYTE   N48  Fn2
 BYTE   W48
 BYTE   VOL   18*SonictheHedgehog3IceCapZoneAct1MeatOfJustice_mvl/mxv
 BYTE   N48  As2
 BYTE   W48
// 038   ----------------------------------------
 BYTE   VOL   17*SonictheHedgehog3IceCapZoneAct1MeatOfJustice_mvl/mxv
 BYTE   N48  Gn2
 BYTE   W48
 BYTE   VOL   15*SonictheHedgehog3IceCapZoneAct1MeatOfJustice_mvl/mxv
 BYTE   N48  Gs2
 BYTE   W48
// 039   ----------------------------------------
 BYTE   VOL   12*SonictheHedgehog3IceCapZoneAct1MeatOfJustice_mvl/mxv
 BYTE   N48  Fn2
 BYTE   W48
 BYTE   VOL   10*SonictheHedgehog3IceCapZoneAct1MeatOfJustice_mvl/mxv
 BYTE   N48  As2
 BYTE   W48
// 040   ----------------------------------------
 BYTE   VOL   8*SonictheHedgehog3IceCapZoneAct1MeatOfJustice_mvl/mxv
 BYTE   N48  Gn2
 BYTE   W48
 BYTE   VOL   6*SonictheHedgehog3IceCapZoneAct1MeatOfJustice_mvl/mxv
 BYTE   N48  Gs2
 BYTE   W48
// 041   ----------------------------------------
 BYTE   VOL   5*SonictheHedgehog3IceCapZoneAct1MeatOfJustice_mvl/mxv
 BYTE   N96  Fn2
 BYTE   W48
 BYTE   VOL   5*SonictheHedgehog3IceCapZoneAct1MeatOfJustice_mvl/mxv
 BYTE   W48
 BYTE   FINE

//**************** Track 5 (Midi-Chn.4) ****************//

SonictheHedgehog3IceCapZoneAct1MeatOfJustice_005:
// 000   ----------------------------------------
 BYTE   KEYSH   SonictheHedgehog3IceCapZoneAct1MeatOfJustice_key+0
 BYTE   VOICE   39
 BYTE   VOL   40*SonictheHedgehog3IceCapZoneAct1MeatOfJustice_mvl/mxv
 BYTE   N06  Cn1  v127
 BYTE   W12
 BYTE   N06
 BYTE   W24
 BYTE   N06
 BYTE   W06
 BYTE   N06
 BYTE   W06
 BYTE   As0
 BYTE   W12
 BYTE   N06
 BYTE   W24
 BYTE   N06
 BYTE   W06
 BYTE   N06
 BYTE   W06
// 001   ----------------------------------------
Label_4_54CF30:
 BYTE   N06  Gs0  v127
 BYTE   W12
 BYTE   N06
 BYTE   W24
 BYTE   N06
 BYTE   W06
 BYTE   N06
 BYTE   W06
 BYTE   Gn0
 BYTE   W12
 BYTE   N06
 BYTE   W24
 BYTE   N06
 BYTE   W06
 BYTE   N06
 BYTE   W06
 BYTE   PEND 
// 002   ----------------------------------------
Label_4_54CF43:
 BYTE   N06  Cn1  v127
 BYTE   W12
 BYTE   N06
 BYTE   W24
 BYTE   N06
 BYTE   W06
 BYTE   N06
 BYTE   W06
 BYTE   Ds1
 BYTE   W12
 BYTE   N06
 BYTE   W24
 BYTE   N06
 BYTE   W06
 BYTE   N06
 BYTE   W06
 BYTE   PEND 
// 003   ----------------------------------------
Label_4_54CF56:
 BYTE   N06  As0  v127
 BYTE   W12
 BYTE   N06
 BYTE   W24
 BYTE   N06
 BYTE   W06
 BYTE   N06
 BYTE   W06
 BYTE   N06
 BYTE   W12
 BYTE   N06
 BYTE   W24
 BYTE   N06
 BYTE   W06
 BYTE   N06
 BYTE   W06
 BYTE   PEND 
// 004   ----------------------------------------
Label_4_54CF69:
 BYTE   N06  Cn1  v127
 BYTE   W12
 BYTE   N06
 BYTE   W24
 BYTE   N06
 BYTE   W06
 BYTE   N06
 BYTE   W06
 BYTE   As0
 BYTE   W12
 BYTE   N06
 BYTE   W24
 BYTE   N06
 BYTE   W06
 BYTE   N06
 BYTE   W06
 BYTE   PEND 
// 005   ----------------------------------------
 BYTE   PATT
  POIN2 Label_4_54CF30
// 006   ----------------------------------------
 BYTE   PATT
  POIN2 Label_4_54CF43
// 007   ----------------------------------------
 BYTE   PATT
  POIN2 Label_4_54CF56
// 008   ----------------------------------------
Label_4_54CF8B:
 BYTE   N06  Cn1  v127
 BYTE   W12
 BYTE   N06
 BYTE   W06
 BYTE   N06
 BYTE   W06
 BYTE   N06
 BYTE   W12
 BYTE   N06
 BYTE   W06
 BYTE   N06
 BYTE   W06
 BYTE   Gs0
 BYTE   W12
 BYTE   N06
 BYTE   W06
 BYTE   N06
 BYTE   W06
 BYTE   N06
 BYTE   W12
 BYTE   N06
 BYTE   W06
 BYTE   N06
 BYTE   W06
 BYTE   PEND 
// 009   ----------------------------------------
Label_4_54CFA6:
 BYTE   N06  As0  v127
 BYTE   W12
 BYTE   N06
 BYTE   W06
 BYTE   N06
 BYTE   W06
 BYTE   N06
 BYTE   W06
 BYTE   N06
 BYTE   W06
 BYTE   N06
 BYTE   W06
 BYTE   N06
 BYTE   W06
 BYTE   Gn0
 BYTE   W12
 BYTE   N06
 BYTE   W06
 BYTE   N06
 BYTE   W06
 BYTE   N06
 BYTE   W12
 BYTE   N06
 BYTE   W06
 BYTE   N06
 BYTE   W06
 BYTE   PEND 
// 010   ----------------------------------------
 BYTE   PATT
  POIN2 Label_4_54CF8B
// 011   ----------------------------------------
Label_4_54CFC8:
 BYTE   N06  As0  v127
 BYTE   W12
 BYTE   N06
 BYTE   W06
 BYTE   N06
 BYTE   W06
 BYTE   N06
 BYTE   W12
 BYTE   N06
 BYTE   W06
 BYTE   N06
 BYTE   W06
 BYTE   Gn0
 BYTE   W12
 BYTE   N06
 BYTE   W06
 BYTE   N06
 BYTE   W06
 BYTE   N06
 BYTE   W12
 BYTE   N06
 BYTE   W06
 BYTE   N06
 BYTE   W06
 BYTE   PEND 
// 012   ----------------------------------------
 BYTE   PATT
  POIN2 Label_4_54CF8B
// 013   ----------------------------------------
Label_4_54CFE8:
// 014   ----------------------------------------
 BYTE   PATT
  POIN2 Label_4_54CFA6
// 015   ----------------------------------------
 BYTE   PATT
  POIN2 Label_4_54CF8B
// 016   ----------------------------------------
Label_4_54CFF2:
 BYTE   N06  As0  v127
 BYTE   W12
 BYTE   N06
 BYTE   W06
 BYTE   N06
 BYTE   W06
 BYTE   N06
 BYTE   W12
 BYTE   N06
 BYTE   W06
 BYTE   N06
 BYTE   W06
 BYTE   N06
 BYTE   W12
 BYTE   N06
 BYTE   W06
 BYTE   N06
 BYTE   W06
 BYTE   N06
 BYTE   W12
 BYTE   N06
 BYTE   W06
 BYTE   N06
 BYTE   W06
 BYTE   PEND 
// 017   ----------------------------------------
 BYTE   VOL   40*SonictheHedgehog3IceCapZoneAct1MeatOfJustice_mvl/mxv
 BYTE   N06  Cn1
 BYTE   W12
 BYTE   N06
 BYTE   W24
 BYTE   N06
 BYTE   W06
 BYTE   N06
 BYTE   W06
 BYTE   As0
 BYTE   W12
 BYTE   N06
 BYTE   W24
 BYTE   N06
 BYTE   W06
 BYTE   N06
 BYTE   W06
// 018   ----------------------------------------
 BYTE   PATT
  POIN2 Label_4_54CF30
// 019   ----------------------------------------
 BYTE   PATT
  POIN2 Label_4_54CF43
// 020   ----------------------------------------
 BYTE   PATT
  POIN2 Label_4_54CF56
// 021   ----------------------------------------
 BYTE   PATT
  POIN2 Label_4_54CF69
// 022   ----------------------------------------
 BYTE   PATT
  POIN2 Label_4_54CF30
// 023   ----------------------------------------
 BYTE   PATT
  POIN2 Label_4_54CF43
// 024   ----------------------------------------
 BYTE   PATT
  POIN2 Label_4_54CF56
// 025   ----------------------------------------
 BYTE   PATT
  POIN2 Label_4_54CF8B
// 026   ----------------------------------------
 BYTE   PATT
  POIN2 Label_4_54CFA6
// 027   ----------------------------------------
 BYTE   PATT
  POIN2 Label_4_54CF8B
// 028   ----------------------------------------
 BYTE   PATT
  POIN2 Label_4_54CFC8
// 029   ----------------------------------------
 BYTE   PATT
  POIN2 Label_4_54CF8B
// 030   ----------------------------------------
 BYTE   PATT
  POIN2 Label_4_54CFA6
// 031   ----------------------------------------
 BYTE   PATT
  POIN2 Label_4_54CF8B
// 032   ----------------------------------------
 BYTE   PATT
  POIN2 Label_4_54CFF2
// 033   ----------------------------------------
 BYTE   VOL   32*SonictheHedgehog3IceCapZoneAct1MeatOfJustice_mvl/mxv
 BYTE   N06  Cn1  v127
 BYTE   W12
 BYTE   N06
 BYTE   W06
 BYTE   N06
 BYTE   W06
 BYTE   N06
 BYTE   W12
 BYTE   N06
 BYTE   W06
 BYTE   N06
 BYTE   W06
 BYTE   VOL   30*SonictheHedgehog3IceCapZoneAct1MeatOfJustice_mvl/mxv
 BYTE   N06  Gs0
 BYTE   W12
 BYTE   N06
 BYTE   W06
 BYTE   N06
 BYTE   W06
 BYTE   N06
 BYTE   W12
 BYTE   N06
 BYTE   W06
 BYTE   N06
 BYTE   W06
// 034   ----------------------------------------
 BYTE   GoTo
  POIN2 Label_4_54CFE8
// 035   ----------------------------------------
 BYTE   VOL   28*SonictheHedgehog3IceCapZoneAct1MeatOfJustice_mvl/mxv
 BYTE   N06  As0  v127
 BYTE   W12
 BYTE   N06
 BYTE   W06
 BYTE   N06
 BYTE   W06
 BYTE   N06
 BYTE   W06
 BYTE   N06
 BYTE   W06
 BYTE   N06
 BYTE   W06
 BYTE   N06
 BYTE   W06
 BYTE   VOL   26*SonictheHedgehog3IceCapZoneAct1MeatOfJustice_mvl/mxv
 BYTE   N06  Gn0
 BYTE   W12
 BYTE   N06
 BYTE   W06
 BYTE   N06
 BYTE   W06
 BYTE   N06
 BYTE   W12
 BYTE   N06
 BYTE   W06
 BYTE   N06
 BYTE   W06
// 036   ----------------------------------------
 BYTE   VOL   24*SonictheHedgehog3IceCapZoneAct1MeatOfJustice_mvl/mxv
 BYTE   N06  Cn1
 BYTE   W12
 BYTE   N06
 BYTE   W06
 BYTE   N06
 BYTE   W06
 BYTE   N06
 BYTE   W12
 BYTE   N06
 BYTE   W06
 BYTE   N06
 BYTE   W06
 BYTE   VOL   22*SonictheHedgehog3IceCapZoneAct1MeatOfJustice_mvl/mxv
 BYTE   N06  Gs0
 BYTE   W12
 BYTE   N06
 BYTE   W06
 BYTE   N06
 BYTE   W06
 BYTE   N06
 BYTE   W12
 BYTE   N06
 BYTE   W06
 BYTE   N06
 BYTE   W06
// 037   ----------------------------------------
 BYTE   VOL   20*SonictheHedgehog3IceCapZoneAct1MeatOfJustice_mvl/mxv
 BYTE   N06  As0
 BYTE   W12
 BYTE   N06
 BYTE   W06
 BYTE   N06
 BYTE   W06
 BYTE   N06
 BYTE   W12
 BYTE   N06
 BYTE   W06
 BYTE   N06
 BYTE   W06
 BYTE   VOL   18*SonictheHedgehog3IceCapZoneAct1MeatOfJustice_mvl/mxv
 BYTE   N06  Gn0
 BYTE   W12
 BYTE   N06
 BYTE   W06
 BYTE   N06
 BYTE   W06
 BYTE   N06
 BYTE   W12
 BYTE   N06
 BYTE   W06
 BYTE   N06
 BYTE   W06
// 038   ----------------------------------------
 BYTE   VOL   16*SonictheHedgehog3IceCapZoneAct1MeatOfJustice_mvl/mxv
 BYTE   N06  Cn1
 BYTE   W12
 BYTE   N06
 BYTE   W06
 BYTE   N06
 BYTE   W06
 BYTE   N06
 BYTE   W12
 BYTE   N06
 BYTE   W06
 BYTE   N06
 BYTE   W06
 BYTE   VOL   14*SonictheHedgehog3IceCapZoneAct1MeatOfJustice_mvl/mxv
 BYTE   N06  Gs0
 BYTE   W12
 BYTE   N06
 BYTE   W06
 BYTE   N06
 BYTE   W06
 BYTE   N06
 BYTE   W12
 BYTE   N06
 BYTE   W06
 BYTE   N06
 BYTE   W06
// 039   ----------------------------------------
 BYTE   VOL   12*SonictheHedgehog3IceCapZoneAct1MeatOfJustice_mvl/mxv
 BYTE   N06  As0
 BYTE   W12
 BYTE   N06
 BYTE   W06
 BYTE   N06
 BYTE   W06
 BYTE   N06
 BYTE   W06
 BYTE   N06
 BYTE   W06
 BYTE   N06
 BYTE   W06
 BYTE   N06
 BYTE   W06
 BYTE   VOL   10*SonictheHedgehog3IceCapZoneAct1MeatOfJustice_mvl/mxv
 BYTE   N06  Gn0
 BYTE   W12
 BYTE   N06
 BYTE   W06
 BYTE   N06
 BYTE   W06
 BYTE   N06
 BYTE   W12
 BYTE   N06
 BYTE   W06
 BYTE   N06
 BYTE   W06
// 040   ----------------------------------------
 BYTE   VOL   8*SonictheHedgehog3IceCapZoneAct1MeatOfJustice_mvl/mxv
 BYTE   N06  Cn1
 BYTE   W12
 BYTE   N06
 BYTE   W06
 BYTE   N06
 BYTE   W06
 BYTE   N06
 BYTE   W12
 BYTE   N06
 BYTE   W06
 BYTE   N06
 BYTE   W06
 BYTE   VOL   6*SonictheHedgehog3IceCapZoneAct1MeatOfJustice_mvl/mxv
 BYTE   N06  Gs0
 BYTE   W12
 BYTE   N06
 BYTE   W06
 BYTE   N06
 BYTE   W06
 BYTE   N06
 BYTE   W12
 BYTE   N06
 BYTE   W06
 BYTE   N06
 BYTE   W06
// 041   ----------------------------------------
 BYTE   VOL   4*SonictheHedgehog3IceCapZoneAct1MeatOfJustice_mvl/mxv
 BYTE   N06  As0
 BYTE   W12
 BYTE   N06
 BYTE   W06
 BYTE   N06
 BYTE   W06
 BYTE   N06
 BYTE   W12
 BYTE   N06
 BYTE   W06
 BYTE   N06
 BYTE   W06
 BYTE   VOL   2*SonictheHedgehog3IceCapZoneAct1MeatOfJustice_mvl/mxv
 BYTE   N06
 BYTE   W12
 BYTE   N06
 BYTE   W06
 BYTE   N06
 BYTE   W06
 BYTE   N06
 BYTE   W12
 BYTE   N06
 BYTE   W06
 BYTE   N06
 BYTE   W06
 BYTE   FINE

//**************** Track 6 (Midi-Chn.5) ****************//

SonictheHedgehog3IceCapZoneAct1MeatOfJustice_006:
// 000   ----------------------------------------
 BYTE   KEYSH   SonictheHedgehog3IceCapZoneAct1MeatOfJustice_key+0
 BYTE   VOICE   123
 BYTE   VOL   40*SonictheHedgehog3IceCapZoneAct1MeatOfJustice_mvl/mxv
 BYTE   N02  Bn0  v127
 BYTE   W24
 BYTE   N02
 BYTE   W24
 BYTE   N02
 BYTE   W24
 BYTE   N02
 BYTE   W24
// 001   ----------------------------------------
Label_5_54C6FC:
 BYTE   N02  Bn0  v127
 BYTE   W24
 BYTE   N02
 BYTE   W24
 BYTE   N02
 BYTE   W24
 BYTE   N02
 BYTE   W24
 BYTE   PEND 
// 002   ----------------------------------------
 BYTE   PATT
  POIN2 Label_5_54C6FC
// 003   ----------------------------------------
 BYTE   PATT
  POIN2 Label_5_54C6FC
// 004   ----------------------------------------
 BYTE   PATT
  POIN2 Label_5_54C6FC
// 005   ----------------------------------------
 BYTE   PATT
  POIN2 Label_5_54C6FC
// 006   ----------------------------------------
 BYTE   PATT
  POIN2 Label_5_54C6FC
// 007   ----------------------------------------
 BYTE   PATT
  POIN2 Label_5_54C6FC
// 008   ----------------------------------------
Label_5_54C725:
 BYTE   N02  Bn0  v127
 BYTE   W24
 BYTE   N02
 BYTE   W24
 BYTE   N02
 BYTE   W48
 BYTE   PEND 
// 009   ----------------------------------------
Label_5_54C72E:
 BYTE   N02  Bn0  v127
 BYTE   W24
 BYTE   N02
 BYTE   W24
 BYTE   N02
 BYTE   W24
 BYTE   N01
 BYTE   W06
 BYTE   N01
 BYTE   W12
 BYTE   N01
 BYTE   W06
 BYTE   PEND 
// 010   ----------------------------------------
 BYTE   PATT
  POIN2 Label_5_54C6FC
// 011   ----------------------------------------
 BYTE   PATT
  POIN2 Label_5_54C6FC
// 012   ----------------------------------------
 BYTE   PATT
  POIN2 Label_5_54C725
// 013   ----------------------------------------
Label_5_54C74C:
// 014   ----------------------------------------
 BYTE   PATT
  POIN2 Label_5_54C72E
// 015   ----------------------------------------
 BYTE   PATT
  POIN2 Label_5_54C6FC
// 016   ----------------------------------------
 BYTE   PATT
  POIN2 Label_5_54C6FC
// 017   ----------------------------------------
 BYTE   VOL   40*SonictheHedgehog3IceCapZoneAct1MeatOfJustice_mvl/mxv
 BYTE   N02  Bn0  v127
 BYTE   W24
 BYTE   N02
 BYTE   W24
 BYTE   N02
 BYTE   W24
 BYTE   N02
 BYTE   W24
// 018   ----------------------------------------
 BYTE   PATT
  POIN2 Label_5_54C6FC
// 019   ----------------------------------------
 BYTE   PATT
  POIN2 Label_5_54C6FC
// 020   ----------------------------------------
 BYTE   PATT
  POIN2 Label_5_54C6FC
// 021   ----------------------------------------
 BYTE   PATT
  POIN2 Label_5_54C6FC
// 022   ----------------------------------------
 BYTE   PATT
  POIN2 Label_5_54C6FC
// 023   ----------------------------------------
 BYTE   PATT
  POIN2 Label_5_54C6FC
// 024   ----------------------------------------
 BYTE   PATT
  POIN2 Label_5_54C6FC
// 025   ----------------------------------------
 BYTE   PATT
  POIN2 Label_5_54C725
// 026   ----------------------------------------
 BYTE   PATT
  POIN2 Label_5_54C72E
// 027   ----------------------------------------
 BYTE   PATT
  POIN2 Label_5_54C6FC
// 028   ----------------------------------------
 BYTE   PATT
  POIN2 Label_5_54C6FC
// 029   ----------------------------------------
 BYTE   PATT
  POIN2 Label_5_54C725
// 030   ----------------------------------------
 BYTE   PATT
  POIN2 Label_5_54C72E
// 031   ----------------------------------------
 BYTE   PATT
  POIN2 Label_5_54C6FC
// 032   ----------------------------------------
 BYTE   PATT
  POIN2 Label_5_54C6FC
// 033   ----------------------------------------
 BYTE   VOL   40*SonictheHedgehog3IceCapZoneAct1MeatOfJustice_mvl/mxv
 BYTE   N02  Bn0  v127
 BYTE   W07
 BYTE   VOL   40*SonictheHedgehog3IceCapZoneAct1MeatOfJustice_mvl/mxv
 BYTE   W08
 BYTE   VOL   39*SonictheHedgehog3IceCapZoneAct1MeatOfJustice_mvl/mxv
 BYTE   W08
 BYTE   VOL   39*SonictheHedgehog3IceCapZoneAct1MeatOfJustice_mvl/mxv
 BYTE   W01
 BYTE   N02
 BYTE   W06
 BYTE   VOL   38*SonictheHedgehog3IceCapZoneAct1MeatOfJustice_mvl/mxv
 BYTE   W08
 BYTE   VOL   38*SonictheHedgehog3IceCapZoneAct1MeatOfJustice_mvl/mxv
 BYTE   W08
 BYTE   VOL   38*SonictheHedgehog3IceCapZoneAct1MeatOfJustice_mvl/mxv
 BYTE   W02
 BYTE   N02
 BYTE   W05
 BYTE   VOL   37*SonictheHedgehog3IceCapZoneAct1MeatOfJustice_mvl/mxv
 BYTE   W08
 BYTE   VOL   36*SonictheHedgehog3IceCapZoneAct1MeatOfJustice_mvl/mxv
 BYTE   W08
 BYTE   VOL   36*SonictheHedgehog3IceCapZoneAct1MeatOfJustice_mvl/mxv
 BYTE   W07
 BYTE   VOL   36*SonictheHedgehog3IceCapZoneAct1MeatOfJustice_mvl/mxv
 BYTE   W08
 BYTE   VOL   36*SonictheHedgehog3IceCapZoneAct1MeatOfJustice_mvl/mxv
 BYTE   W08
 BYTE   VOL   35*SonictheHedgehog3IceCapZoneAct1MeatOfJustice_mvl/mxv
 BYTE   W04
// 034   ----------------------------------------
 BYTE   GoTo
  POIN2 Label_5_54C74C
// 035   ----------------------------------------
 BYTE   N02  Bn0  v127
 BYTE   W03
 BYTE   VOL   35*SonictheHedgehog3IceCapZoneAct1MeatOfJustice_mvl/mxv
 BYTE   W08
 BYTE   VOL   35*SonictheHedgehog3IceCapZoneAct1MeatOfJustice_mvl/mxv
 BYTE   W08
 BYTE   VOL   34*SonictheHedgehog3IceCapZoneAct1MeatOfJustice_mvl/mxv
 BYTE   W05
 BYTE   N02
 BYTE   W02
 BYTE   VOL   33*SonictheHedgehog3IceCapZoneAct1MeatOfJustice_mvl/mxv
 BYTE   W08
 BYTE   VOL   33*SonictheHedgehog3IceCapZoneAct1MeatOfJustice_mvl/mxv
 BYTE   W08
 BYTE   VOL   33*SonictheHedgehog3IceCapZoneAct1MeatOfJustice_mvl/mxv
 BYTE   W06
 BYTE   N02
 BYTE   W01
 BYTE   VOL   33*SonictheHedgehog3IceCapZoneAct1MeatOfJustice_mvl/mxv
 BYTE   W08
 BYTE   VOL   32*SonictheHedgehog3IceCapZoneAct1MeatOfJustice_mvl/mxv
 BYTE   W08
 BYTE   VOL   31*SonictheHedgehog3IceCapZoneAct1MeatOfJustice_mvl/mxv
 BYTE   W07
 BYTE   VOL   31*SonictheHedgehog3IceCapZoneAct1MeatOfJustice_mvl/mxv
 BYTE   N01
 BYTE   W06
 BYTE   N01
 BYTE   W02
 BYTE   VOL   31*SonictheHedgehog3IceCapZoneAct1MeatOfJustice_mvl/mxv
 BYTE   W08
 BYTE   VOL   30*SonictheHedgehog3IceCapZoneAct1MeatOfJustice_mvl/mxv
 BYTE   W02
 BYTE   N01
 BYTE   W06
// 036   ----------------------------------------
 BYTE   VOL   30*SonictheHedgehog3IceCapZoneAct1MeatOfJustice_mvl/mxv
 BYTE   N02
 BYTE   W07
 BYTE   VOL   29*SonictheHedgehog3IceCapZoneAct1MeatOfJustice_mvl/mxv
 BYTE   W08
 BYTE   VOL   29*SonictheHedgehog3IceCapZoneAct1MeatOfJustice_mvl/mxv
 BYTE   W08
 BYTE   VOL   29*SonictheHedgehog3IceCapZoneAct1MeatOfJustice_mvl/mxv
 BYTE   W01
 BYTE   N02
 BYTE   W06
 BYTE   VOL   28*SonictheHedgehog3IceCapZoneAct1MeatOfJustice_mvl/mxv
 BYTE   W08
 BYTE   VOL   28*SonictheHedgehog3IceCapZoneAct1MeatOfJustice_mvl/mxv
 BYTE   W08
 BYTE   VOL   28*SonictheHedgehog3IceCapZoneAct1MeatOfJustice_mvl/mxv
 BYTE   W02
 BYTE   N02
 BYTE   W05
 BYTE   VOL   27*SonictheHedgehog3IceCapZoneAct1MeatOfJustice_mvl/mxv
 BYTE   W08
 BYTE   VOL   27*SonictheHedgehog3IceCapZoneAct1MeatOfJustice_mvl/mxv
 BYTE   W08
 BYTE   VOL   26*SonictheHedgehog3IceCapZoneAct1MeatOfJustice_mvl/mxv
 BYTE   W03
 BYTE   N02
 BYTE   W04
 BYTE   VOL   26*SonictheHedgehog3IceCapZoneAct1MeatOfJustice_mvl/mxv
 BYTE   W08
 BYTE   VOL   26*SonictheHedgehog3IceCapZoneAct1MeatOfJustice_mvl/mxv
 BYTE   W08
 BYTE   VOL   25*SonictheHedgehog3IceCapZoneAct1MeatOfJustice_mvl/mxv
 BYTE   W04
// 037   ----------------------------------------
 BYTE   N02
 BYTE   W03
 BYTE   VOL   25*SonictheHedgehog3IceCapZoneAct1MeatOfJustice_mvl/mxv
 BYTE   W08
 BYTE   VOL   24*SonictheHedgehog3IceCapZoneAct1MeatOfJustice_mvl/mxv
 BYTE   W08
 BYTE   VOL   24*SonictheHedgehog3IceCapZoneAct1MeatOfJustice_mvl/mxv
 BYTE   W05
 BYTE   N02
 BYTE   W02
 BYTE   VOL   24*SonictheHedgehog3IceCapZoneAct1MeatOfJustice_mvl/mxv
 BYTE   W08
 BYTE   VOL   23*SonictheHedgehog3IceCapZoneAct1MeatOfJustice_mvl/mxv
 BYTE   W08
 BYTE   VOL   23*SonictheHedgehog3IceCapZoneAct1MeatOfJustice_mvl/mxv
 BYTE   W06
 BYTE   N02
 BYTE   W01
 BYTE   VOL   23*SonictheHedgehog3IceCapZoneAct1MeatOfJustice_mvl/mxv
 BYTE   W08
 BYTE   VOL   22*SonictheHedgehog3IceCapZoneAct1MeatOfJustice_mvl/mxv
 BYTE   W08
 BYTE   VOL   22*SonictheHedgehog3IceCapZoneAct1MeatOfJustice_mvl/mxv
 BYTE   W07
 BYTE   VOL   21*SonictheHedgehog3IceCapZoneAct1MeatOfJustice_mvl/mxv
 BYTE   N02
 BYTE   W08
 BYTE   VOL   21*SonictheHedgehog3IceCapZoneAct1MeatOfJustice_mvl/mxv
 BYTE   W08
 BYTE   VOL   21*SonictheHedgehog3IceCapZoneAct1MeatOfJustice_mvl/mxv
 BYTE   W08
// 038   ----------------------------------------
 BYTE   VOL   20*SonictheHedgehog3IceCapZoneAct1MeatOfJustice_mvl/mxv
 BYTE   N02
 BYTE   W07
 BYTE   VOL   19*SonictheHedgehog3IceCapZoneAct1MeatOfJustice_mvl/mxv
 BYTE   W08
 BYTE   VOL   19*SonictheHedgehog3IceCapZoneAct1MeatOfJustice_mvl/mxv
 BYTE   W08
 BYTE   VOL   19*SonictheHedgehog3IceCapZoneAct1MeatOfJustice_mvl/mxv
 BYTE   W01
 BYTE   N02
 BYTE   W06
 BYTE   VOL   18*SonictheHedgehog3IceCapZoneAct1MeatOfJustice_mvl/mxv
 BYTE   W08
 BYTE   VOL   18*SonictheHedgehog3IceCapZoneAct1MeatOfJustice_mvl/mxv
 BYTE   W08
 BYTE   VOL   18*SonictheHedgehog3IceCapZoneAct1MeatOfJustice_mvl/mxv
 BYTE   W02
 BYTE   N02
 BYTE   W05
 BYTE   VOL   18*SonictheHedgehog3IceCapZoneAct1MeatOfJustice_mvl/mxv
 BYTE   W08
 BYTE   VOL   17*SonictheHedgehog3IceCapZoneAct1MeatOfJustice_mvl/mxv
 BYTE   W08
 BYTE   VOL   16*SonictheHedgehog3IceCapZoneAct1MeatOfJustice_mvl/mxv
 BYTE   W07
 BYTE   VOL   16*SonictheHedgehog3IceCapZoneAct1MeatOfJustice_mvl/mxv
 BYTE   W08
 BYTE   VOL   16*SonictheHedgehog3IceCapZoneAct1MeatOfJustice_mvl/mxv
 BYTE   W08
 BYTE   VOL   15*SonictheHedgehog3IceCapZoneAct1MeatOfJustice_mvl/mxv
 BYTE   W04
// 039   ----------------------------------------
 BYTE   N02
 BYTE   W03
 BYTE   VOL   15*SonictheHedgehog3IceCapZoneAct1MeatOfJustice_mvl/mxv
 BYTE   W08
 BYTE   VOL   14*SonictheHedgehog3IceCapZoneAct1MeatOfJustice_mvl/mxv
 BYTE   W08
 BYTE   VOL   14*SonictheHedgehog3IceCapZoneAct1MeatOfJustice_mvl/mxv
 BYTE   W05
 BYTE   N02
 BYTE   W02
 BYTE   VOL   14*SonictheHedgehog3IceCapZoneAct1MeatOfJustice_mvl/mxv
 BYTE   W08
 BYTE   VOL   13*SonictheHedgehog3IceCapZoneAct1MeatOfJustice_mvl/mxv
 BYTE   W08
 BYTE   VOL   13*SonictheHedgehog3IceCapZoneAct1MeatOfJustice_mvl/mxv
 BYTE   W06
 BYTE   N02
 BYTE   W01
 BYTE   VOL   12*SonictheHedgehog3IceCapZoneAct1MeatOfJustice_mvl/mxv
 BYTE   W08
 BYTE   VOL   12*SonictheHedgehog3IceCapZoneAct1MeatOfJustice_mvl/mxv
 BYTE   W08
 BYTE   VOL   12*SonictheHedgehog3IceCapZoneAct1MeatOfJustice_mvl/mxv
 BYTE   W07
 BYTE   VOL   11*SonictheHedgehog3IceCapZoneAct1MeatOfJustice_mvl/mxv
 BYTE   N01
 BYTE   W06
 BYTE   N01
 BYTE   W02
 BYTE   VOL   11*SonictheHedgehog3IceCapZoneAct1MeatOfJustice_mvl/mxv
 BYTE   W08
 BYTE   VOL   11*SonictheHedgehog3IceCapZoneAct1MeatOfJustice_mvl/mxv
 BYTE   W02
 BYTE   N01
 BYTE   W06
// 040   ----------------------------------------
 BYTE   VOL   10*SonictheHedgehog3IceCapZoneAct1MeatOfJustice_mvl/mxv
 BYTE   N02
 BYTE   W07
 BYTE   VOL   10*SonictheHedgehog3IceCapZoneAct1MeatOfJustice_mvl/mxv
 BYTE   W08
 BYTE   VOL   9*SonictheHedgehog3IceCapZoneAct1MeatOfJustice_mvl/mxv
 BYTE   W08
 BYTE   VOL   9*SonictheHedgehog3IceCapZoneAct1MeatOfJustice_mvl/mxv
 BYTE   W01
 BYTE   N02
 BYTE   W06
 BYTE   VOL   9*SonictheHedgehog3IceCapZoneAct1MeatOfJustice_mvl/mxv
 BYTE   W08
 BYTE   VOL   8*SonictheHedgehog3IceCapZoneAct1MeatOfJustice_mvl/mxv
 BYTE   W08
 BYTE   VOL   7*SonictheHedgehog3IceCapZoneAct1MeatOfJustice_mvl/mxv
 BYTE   W02
 BYTE   N02
 BYTE   W05
 BYTE   VOL   7*SonictheHedgehog3IceCapZoneAct1MeatOfJustice_mvl/mxv
 BYTE   W08
 BYTE   VOL   7*SonictheHedgehog3IceCapZoneAct1MeatOfJustice_mvl/mxv
 BYTE   W08
 BYTE   VOL   7*SonictheHedgehog3IceCapZoneAct1MeatOfJustice_mvl/mxv
 BYTE   W03
 BYTE   N02
 BYTE   W04
 BYTE   VOL   6*SonictheHedgehog3IceCapZoneAct1MeatOfJustice_mvl/mxv
 BYTE   W08
 BYTE   VOL   6*SonictheHedgehog3IceCapZoneAct1MeatOfJustice_mvl/mxv
 BYTE   W08
 BYTE   VOL   6*SonictheHedgehog3IceCapZoneAct1MeatOfJustice_mvl/mxv
 BYTE   W04
// 041   ----------------------------------------
 BYTE   N02
 BYTE   W03
 BYTE   VOL   5*SonictheHedgehog3IceCapZoneAct1MeatOfJustice_mvl/mxv
 BYTE   W08
 BYTE   VOL   4*SonictheHedgehog3IceCapZoneAct1MeatOfJustice_mvl/mxv
 BYTE   W08
 BYTE   VOL   4*SonictheHedgehog3IceCapZoneAct1MeatOfJustice_mvl/mxv
 BYTE   W05
 BYTE   N02
 BYTE   W02
 BYTE   VOL   4*SonictheHedgehog3IceCapZoneAct1MeatOfJustice_mvl/mxv
 BYTE   W08
 BYTE   VOL   4*SonictheHedgehog3IceCapZoneAct1MeatOfJustice_mvl/mxv
 BYTE   W08
 BYTE   VOL   3*SonictheHedgehog3IceCapZoneAct1MeatOfJustice_mvl/mxv
 BYTE   W06
 BYTE   N02
 BYTE   W01
 BYTE   VOL   2*SonictheHedgehog3IceCapZoneAct1MeatOfJustice_mvl/mxv
 BYTE   W08
 BYTE   VOL   2*SonictheHedgehog3IceCapZoneAct1MeatOfJustice_mvl/mxv
 BYTE   W08
 BYTE   VOL   2*SonictheHedgehog3IceCapZoneAct1MeatOfJustice_mvl/mxv
 BYTE   W07
 BYTE   VOL   1*SonictheHedgehog3IceCapZoneAct1MeatOfJustice_mvl/mxv
 BYTE   N02
 BYTE   W08
 BYTE   VOL   1*SonictheHedgehog3IceCapZoneAct1MeatOfJustice_mvl/mxv
 BYTE   W08
 BYTE   VOL   1*SonictheHedgehog3IceCapZoneAct1MeatOfJustice_mvl/mxv
 BYTE   W08
 BYTE   FINE

//**************** Track 7 (Midi-Chn.6) ****************//

SonictheHedgehog3IceCapZoneAct1MeatOfJustice_007:
// 000   ----------------------------------------
 BYTE   KEYSH   SonictheHedgehog3IceCapZoneAct1MeatOfJustice_key+0
 BYTE   VOICE   119
 BYTE   VOL   40*SonictheHedgehog3IceCapZoneAct1MeatOfJustice_mvl/mxv
 BYTE   W96
// 001   ----------------------------------------
 BYTE   W96
// 002   ----------------------------------------
 BYTE   W96
// 003   ----------------------------------------
 BYTE   W96
// 004   ----------------------------------------
 BYTE   W96
// 005   ----------------------------------------
 BYTE   W96
// 006   ----------------------------------------
 BYTE   W96
// 007   ----------------------------------------
 BYTE   W96
// 008   ----------------------------------------
 BYTE   W72
 BYTE   N24  Gn3  v127
 BYTE   W24
// 009   ----------------------------------------
 BYTE   W96
// 010   ----------------------------------------
 BYTE   W96
// 011   ----------------------------------------
 BYTE   W96
// 012   ----------------------------------------
 BYTE   W72
 BYTE   N24
 BYTE   W24
// 013   ----------------------------------------
Label_6_54C8FD:
 BYTE   W96
// 014   ----------------------------------------
 BYTE   W96
// 015   ----------------------------------------
 BYTE   W96
// 016   ----------------------------------------
 BYTE   VOL   40*SonictheHedgehog3IceCapZoneAct1MeatOfJustice_mvl/mxv
 BYTE   W96
// 017   ----------------------------------------
 BYTE   W96
// 018   ----------------------------------------
 BYTE   W96
// 019   ----------------------------------------
 BYTE   W96
// 020   ----------------------------------------
 BYTE   W96
// 021   ----------------------------------------
 BYTE   W96
// 022   ----------------------------------------
 BYTE   W96
// 023   ----------------------------------------
 BYTE   W96
// 024   ----------------------------------------
 BYTE   W72
 BYTE   N24  Gn3  v127
 BYTE   W24
// 025   ----------------------------------------
 BYTE   W96
// 026   ----------------------------------------
 BYTE   W96
// 027   ----------------------------------------
 BYTE   W96
// 028   ----------------------------------------
 BYTE   W72
 BYTE   N24
 BYTE   W24
// 029   ----------------------------------------
 BYTE   W96
// 030   ----------------------------------------
 BYTE   W96
// 031   ----------------------------------------
 BYTE   W96
// 032   ----------------------------------------
 BYTE   VOL   40*SonictheHedgehog3IceCapZoneAct1MeatOfJustice_mvl/mxv
 BYTE   W07
 BYTE   VOL   40*SonictheHedgehog3IceCapZoneAct1MeatOfJustice_mvl/mxv
 BYTE   W08
 BYTE   VOL   39*SonictheHedgehog3IceCapZoneAct1MeatOfJustice_mvl/mxv
 BYTE   W08
 BYTE   VOL   39*SonictheHedgehog3IceCapZoneAct1MeatOfJustice_mvl/mxv
 BYTE   W07
 BYTE   VOL   38*SonictheHedgehog3IceCapZoneAct1MeatOfJustice_mvl/mxv
 BYTE   W08
 BYTE   VOL   38*SonictheHedgehog3IceCapZoneAct1MeatOfJustice_mvl/mxv
 BYTE   W08
 BYTE   VOL   38*SonictheHedgehog3IceCapZoneAct1MeatOfJustice_mvl/mxv
 BYTE   W07
 BYTE   VOL   37*SonictheHedgehog3IceCapZoneAct1MeatOfJustice_mvl/mxv
 BYTE   W08
 BYTE   VOL   36*SonictheHedgehog3IceCapZoneAct1MeatOfJustice_mvl/mxv
 BYTE   W08
 BYTE   VOL   36*SonictheHedgehog3IceCapZoneAct1MeatOfJustice_mvl/mxv
 BYTE   W03
 BYTE   N24
 BYTE   W04
 BYTE   VOL   36*SonictheHedgehog3IceCapZoneAct1MeatOfJustice_mvl/mxv
 BYTE   W08
 BYTE   VOL   36*SonictheHedgehog3IceCapZoneAct1MeatOfJustice_mvl/mxv
 BYTE   W08
 BYTE   VOL   35*SonictheHedgehog3IceCapZoneAct1MeatOfJustice_mvl/mxv
 BYTE   W04
// 033   ----------------------------------------
 BYTE   GoTo
  POIN2 Label_6_54C8FD
// 034   ----------------------------------------
 BYTE   W03
 BYTE   VOL   35*SonictheHedgehog3IceCapZoneAct1MeatOfJustice_mvl/mxv
 BYTE   W08
 BYTE   VOL   35*SonictheHedgehog3IceCapZoneAct1MeatOfJustice_mvl/mxv
 BYTE   W08
 BYTE   VOL   34*SonictheHedgehog3IceCapZoneAct1MeatOfJustice_mvl/mxv
 BYTE   W07
 BYTE   VOL   33*SonictheHedgehog3IceCapZoneAct1MeatOfJustice_mvl/mxv
 BYTE   W08
 BYTE   VOL   33*SonictheHedgehog3IceCapZoneAct1MeatOfJustice_mvl/mxv
 BYTE   W08
 BYTE   VOL   33*SonictheHedgehog3IceCapZoneAct1MeatOfJustice_mvl/mxv
 BYTE   W07
 BYTE   VOL   33*SonictheHedgehog3IceCapZoneAct1MeatOfJustice_mvl/mxv
 BYTE   W08
 BYTE   VOL   32*SonictheHedgehog3IceCapZoneAct1MeatOfJustice_mvl/mxv
 BYTE   W08
 BYTE   VOL   31*SonictheHedgehog3IceCapZoneAct1MeatOfJustice_mvl/mxv
 BYTE   W07
 BYTE   VOL   31*SonictheHedgehog3IceCapZoneAct1MeatOfJustice_mvl/mxv
 BYTE   W08
 BYTE   VOL   31*SonictheHedgehog3IceCapZoneAct1MeatOfJustice_mvl/mxv
 BYTE   W08
 BYTE   VOL   30*SonictheHedgehog3IceCapZoneAct1MeatOfJustice_mvl/mxv
 BYTE   W08
// 035   ----------------------------------------
 BYTE   VOL   30*SonictheHedgehog3IceCapZoneAct1MeatOfJustice_mvl/mxv
 BYTE   W07
 BYTE   VOL   29*SonictheHedgehog3IceCapZoneAct1MeatOfJustice_mvl/mxv
 BYTE   W08
 BYTE   VOL   29*SonictheHedgehog3IceCapZoneAct1MeatOfJustice_mvl/mxv
 BYTE   W08
 BYTE   VOL   29*SonictheHedgehog3IceCapZoneAct1MeatOfJustice_mvl/mxv
 BYTE   W07
 BYTE   VOL   28*SonictheHedgehog3IceCapZoneAct1MeatOfJustice_mvl/mxv
 BYTE   W08
 BYTE   VOL   28*SonictheHedgehog3IceCapZoneAct1MeatOfJustice_mvl/mxv
 BYTE   W08
 BYTE   VOL   28*SonictheHedgehog3IceCapZoneAct1MeatOfJustice_mvl/mxv
 BYTE   W07
 BYTE   VOL   27*SonictheHedgehog3IceCapZoneAct1MeatOfJustice_mvl/mxv
 BYTE   W08
 BYTE   VOL   27*SonictheHedgehog3IceCapZoneAct1MeatOfJustice_mvl/mxv
 BYTE   W08
 BYTE   VOL   26*SonictheHedgehog3IceCapZoneAct1MeatOfJustice_mvl/mxv
 BYTE   W07
 BYTE   VOL   26*SonictheHedgehog3IceCapZoneAct1MeatOfJustice_mvl/mxv
 BYTE   W08
 BYTE   VOL   26*SonictheHedgehog3IceCapZoneAct1MeatOfJustice_mvl/mxv
 BYTE   W08
 BYTE   VOL   25*SonictheHedgehog3IceCapZoneAct1MeatOfJustice_mvl/mxv
 BYTE   W04
// 036   ----------------------------------------
 BYTE   W03
 BYTE   VOL   25*SonictheHedgehog3IceCapZoneAct1MeatOfJustice_mvl/mxv
 BYTE   W08
 BYTE   VOL   24*SonictheHedgehog3IceCapZoneAct1MeatOfJustice_mvl/mxv
 BYTE   W08
 BYTE   VOL   24*SonictheHedgehog3IceCapZoneAct1MeatOfJustice_mvl/mxv
 BYTE   W07
 BYTE   VOL   24*SonictheHedgehog3IceCapZoneAct1MeatOfJustice_mvl/mxv
 BYTE   W08
 BYTE   VOL   23*SonictheHedgehog3IceCapZoneAct1MeatOfJustice_mvl/mxv
 BYTE   W08
 BYTE   VOL   23*SonictheHedgehog3IceCapZoneAct1MeatOfJustice_mvl/mxv
 BYTE   W07
 BYTE   VOL   23*SonictheHedgehog3IceCapZoneAct1MeatOfJustice_mvl/mxv
 BYTE   W08
 BYTE   VOL   22*SonictheHedgehog3IceCapZoneAct1MeatOfJustice_mvl/mxv
 BYTE   W08
 BYTE   VOL   22*SonictheHedgehog3IceCapZoneAct1MeatOfJustice_mvl/mxv
 BYTE   W07
 BYTE   VOL   21*SonictheHedgehog3IceCapZoneAct1MeatOfJustice_mvl/mxv
 BYTE   W08
 BYTE   VOL   21*SonictheHedgehog3IceCapZoneAct1MeatOfJustice_mvl/mxv
 BYTE   W08
 BYTE   VOL   21*SonictheHedgehog3IceCapZoneAct1MeatOfJustice_mvl/mxv
 BYTE   W08
// 037   ----------------------------------------
 BYTE   VOL   20*SonictheHedgehog3IceCapZoneAct1MeatOfJustice_mvl/mxv
 BYTE   W07
 BYTE   VOL   19*SonictheHedgehog3IceCapZoneAct1MeatOfJustice_mvl/mxv
 BYTE   W08
 BYTE   VOL   19*SonictheHedgehog3IceCapZoneAct1MeatOfJustice_mvl/mxv
 BYTE   W08
 BYTE   VOL   19*SonictheHedgehog3IceCapZoneAct1MeatOfJustice_mvl/mxv
 BYTE   W07
 BYTE   VOL   18*SonictheHedgehog3IceCapZoneAct1MeatOfJustice_mvl/mxv
 BYTE   W08
 BYTE   VOL   18*SonictheHedgehog3IceCapZoneAct1MeatOfJustice_mvl/mxv
 BYTE   W08
 BYTE   VOL   18*SonictheHedgehog3IceCapZoneAct1MeatOfJustice_mvl/mxv
 BYTE   W07
 BYTE   VOL   18*SonictheHedgehog3IceCapZoneAct1MeatOfJustice_mvl/mxv
 BYTE   W08
 BYTE   VOL   17*SonictheHedgehog3IceCapZoneAct1MeatOfJustice_mvl/mxv
 BYTE   W08
 BYTE   VOL   16*SonictheHedgehog3IceCapZoneAct1MeatOfJustice_mvl/mxv
 BYTE   W03
 BYTE   N24  Gn3  v127
 BYTE   W04
 BYTE   VOL   16*SonictheHedgehog3IceCapZoneAct1MeatOfJustice_mvl/mxv
 BYTE   W08
 BYTE   VOL   16*SonictheHedgehog3IceCapZoneAct1MeatOfJustice_mvl/mxv
 BYTE   W08
 BYTE   VOL   15*SonictheHedgehog3IceCapZoneAct1MeatOfJustice_mvl/mxv
 BYTE   W04
// 038   ----------------------------------------
 BYTE   W03
 BYTE   VOL   15*SonictheHedgehog3IceCapZoneAct1MeatOfJustice_mvl/mxv
 BYTE   W08
 BYTE   VOL   14*SonictheHedgehog3IceCapZoneAct1MeatOfJustice_mvl/mxv
 BYTE   W08
 BYTE   VOL   14*SonictheHedgehog3IceCapZoneAct1MeatOfJustice_mvl/mxv
 BYTE   W07
 BYTE   VOL   14*SonictheHedgehog3IceCapZoneAct1MeatOfJustice_mvl/mxv
 BYTE   W08
 BYTE   VOL   13*SonictheHedgehog3IceCapZoneAct1MeatOfJustice_mvl/mxv
 BYTE   W08
 BYTE   VOL   13*SonictheHedgehog3IceCapZoneAct1MeatOfJustice_mvl/mxv
 BYTE   W07
 BYTE   VOL   12*SonictheHedgehog3IceCapZoneAct1MeatOfJustice_mvl/mxv
 BYTE   W08
 BYTE   VOL   12*SonictheHedgehog3IceCapZoneAct1MeatOfJustice_mvl/mxv
 BYTE   W08
 BYTE   VOL   12*SonictheHedgehog3IceCapZoneAct1MeatOfJustice_mvl/mxv
 BYTE   W07
 BYTE   VOL   11*SonictheHedgehog3IceCapZoneAct1MeatOfJustice_mvl/mxv
 BYTE   W08
 BYTE   VOL   11*SonictheHedgehog3IceCapZoneAct1MeatOfJustice_mvl/mxv
 BYTE   W08
 BYTE   VOL   11*SonictheHedgehog3IceCapZoneAct1MeatOfJustice_mvl/mxv
 BYTE   W08
// 039   ----------------------------------------
 BYTE   VOL   10*SonictheHedgehog3IceCapZoneAct1MeatOfJustice_mvl/mxv
 BYTE   W07
 BYTE   VOL   10*SonictheHedgehog3IceCapZoneAct1MeatOfJustice_mvl/mxv
 BYTE   W08
 BYTE   VOL   9*SonictheHedgehog3IceCapZoneAct1MeatOfJustice_mvl/mxv
 BYTE   W08
 BYTE   VOL   9*SonictheHedgehog3IceCapZoneAct1MeatOfJustice_mvl/mxv
 BYTE   W07
 BYTE   VOL   9*SonictheHedgehog3IceCapZoneAct1MeatOfJustice_mvl/mxv
 BYTE   W08
 BYTE   VOL   8*SonictheHedgehog3IceCapZoneAct1MeatOfJustice_mvl/mxv
 BYTE   W08
 BYTE   VOL   7*SonictheHedgehog3IceCapZoneAct1MeatOfJustice_mvl/mxv
 BYTE   W07
 BYTE   VOL   7*SonictheHedgehog3IceCapZoneAct1MeatOfJustice_mvl/mxv
 BYTE   W08
 BYTE   VOL   7*SonictheHedgehog3IceCapZoneAct1MeatOfJustice_mvl/mxv
 BYTE   W08
 BYTE   VOL   7*SonictheHedgehog3IceCapZoneAct1MeatOfJustice_mvl/mxv
 BYTE   W07
 BYTE   VOL   6*SonictheHedgehog3IceCapZoneAct1MeatOfJustice_mvl/mxv
 BYTE   W08
 BYTE   VOL   6*SonictheHedgehog3IceCapZoneAct1MeatOfJustice_mvl/mxv
 BYTE   W08
 BYTE   VOL   6*SonictheHedgehog3IceCapZoneAct1MeatOfJustice_mvl/mxv
 BYTE   W04
// 040   ----------------------------------------
 BYTE   W03
 BYTE   VOL   5*SonictheHedgehog3IceCapZoneAct1MeatOfJustice_mvl/mxv
 BYTE   W08
 BYTE   VOL   4*SonictheHedgehog3IceCapZoneAct1MeatOfJustice_mvl/mxv
 BYTE   W08
 BYTE   VOL   4*SonictheHedgehog3IceCapZoneAct1MeatOfJustice_mvl/mxv
 BYTE   W07
 BYTE   VOL   4*SonictheHedgehog3IceCapZoneAct1MeatOfJustice_mvl/mxv
 BYTE   W08
 BYTE   VOL   4*SonictheHedgehog3IceCapZoneAct1MeatOfJustice_mvl/mxv
 BYTE   W08
 BYTE   VOL   3*SonictheHedgehog3IceCapZoneAct1MeatOfJustice_mvl/mxv
 BYTE   W07
 BYTE   VOL   2*SonictheHedgehog3IceCapZoneAct1MeatOfJustice_mvl/mxv
 BYTE   W08
 BYTE   VOL   2*SonictheHedgehog3IceCapZoneAct1MeatOfJustice_mvl/mxv
 BYTE   W08
 BYTE   VOL   2*SonictheHedgehog3IceCapZoneAct1MeatOfJustice_mvl/mxv
 BYTE   W07
 BYTE   VOL   1*SonictheHedgehog3IceCapZoneAct1MeatOfJustice_mvl/mxv
 BYTE   W08
 BYTE   VOL   1*SonictheHedgehog3IceCapZoneAct1MeatOfJustice_mvl/mxv
 BYTE   W08
 BYTE   VOL   1*SonictheHedgehog3IceCapZoneAct1MeatOfJustice_mvl/mxv
 BYTE   W08
 BYTE   FINE

//******************************************************//
	ALIGN 4

SonictheHedgehog3IceCapZoneAct1MeatOfJustice:
	BYTE	7	// NumTrks
	BYTE	0	// NumBlks
	BYTE	SonictheHedgehog3IceCapZoneAct1MeatOfJustice_pri	// Priority
	BYTE	SonictheHedgehog3IceCapZoneAct1MeatOfJustice_rev	// Reverb.
    
	POIN2	SonictheHedgehog3IceCapZoneAct1MeatOfJustice_grp
    
	POIN2	SonictheHedgehog3IceCapZoneAct1MeatOfJustice_001
	POIN2	SonictheHedgehog3IceCapZoneAct1MeatOfJustice_002
	POIN2	SonictheHedgehog3IceCapZoneAct1MeatOfJustice_003
	POIN2	SonictheHedgehog3IceCapZoneAct1MeatOfJustice_004
	POIN2	SonictheHedgehog3IceCapZoneAct1MeatOfJustice_005
	POIN2	SonictheHedgehog3IceCapZoneAct1MeatOfJustice_006
	POIN2	SonictheHedgehog3IceCapZoneAct1MeatOfJustice_007

	
