//Event file generated from Sappy .s format.
	#include "MPlayDef.event"

	#define	SonictheHedgehog3AngelIslandZoneAct2MeatOfJustice_grp  voicegroup000
	#define	SonictheHedgehog3AngelIslandZoneAct2MeatOfJustice_pri  0
	#define	SonictheHedgehog3AngelIslandZoneAct2MeatOfJustice_rev  0
	#define	SonictheHedgehog3AngelIslandZoneAct2MeatOfJustice_mvl  127
	#define	SonictheHedgehog3AngelIslandZoneAct2MeatOfJustice_key  0
	#define	SonictheHedgehog3AngelIslandZoneAct2MeatOfJustice_tbs  1
	#define	SonictheHedgehog3AngelIslandZoneAct2MeatOfJustice_exg  0
	#define	SonictheHedgehog3AngelIslandZoneAct2MeatOfJustice_cmp  1

	// .rodata
	//	SonictheHedgehog3AngelIslandZoneAct2MeatOfJustice
	ALIGN 4


//**************** Track 1 (Midi-Chn.0) ****************//

SonictheHedgehog3AngelIslandZoneAct2MeatOfJustice_001:
// 000   ----------------------------------------
 BYTE   KEYSH   SonictheHedgehog3AngelIslandZoneAct2MeatOfJustice_key+0
Label_0_014E0A56:
 BYTE   TEMPO   140*SonictheHedgehog3AngelIslandZoneAct2MeatOfJustice_tbs/2
 BYTE   VOICE   1
 BYTE   VOL   56*SonictheHedgehog3AngelIslandZoneAct2MeatOfJustice_mvl/mxv
 BYTE   N12  Cn3  v100
 BYTE   W12
 BYTE   Ds3
 BYTE   N12  Gn3
 BYTE   W12
 BYTE   N06  Cn3
 BYTE   W06
 BYTE   N12  Fn3
 BYTE   N12  An3
 BYTE   W12
 BYTE   N06  Cn3
 BYTE   W06
 BYTE   N12  Gn3
 BYTE   N12  As3
 BYTE   W12
 BYTE   N06  Cn3
 BYTE   W06
 BYTE   N12  Fn3
 BYTE   N12  An3
 BYTE   W12
 BYTE   N06  Cn3
 BYTE   W06
 BYTE   N12  Ds3
 BYTE   N12  Gn3
 BYTE   W12
// 001   ----------------------------------------
Label_0_014E0A84:
 BYTE   N12  Fn3  v100
 BYTE   N12  As3
 BYTE   W12
 BYTE   Gn3
 BYTE   N12  Cn4
 BYTE   W24
 BYTE   N06  As2
 BYTE   N06  Dn3
 BYTE   W06
 BYTE   Gn2
 BYTE   N06  Cn3
 BYTE   W54
 BYTE   PEND 
// 002   ----------------------------------------
Label_0_014E0A98:
 BYTE   N12  Cn3  v100
 BYTE   W12
 BYTE   Ds3
 BYTE   N12  Gn3
 BYTE   W12
 BYTE   N06  Cn3
 BYTE   W06
 BYTE   N12  Fn3
 BYTE   N12  An3
 BYTE   W12
 BYTE   N06  Cn3
 BYTE   W06
 BYTE   N12  Gn3
 BYTE   N12  As3
 BYTE   W12
 BYTE   N06  Cn3
 BYTE   W06
 BYTE   N12  Fn3
 BYTE   N12  An3
 BYTE   W12
 BYTE   N06  Cn3
 BYTE   W06
 BYTE   N12  Ds3
 BYTE   N12  Gn3
 BYTE   W12
 BYTE   PEND 
// 003   ----------------------------------------
Label_0_014E0AC1:
 BYTE   N06  Cn3  v100
 BYTE   W06
 BYTE   N06
 BYTE   W06
 BYTE   Gn3
 BYTE   W06
 BYTE   Cn3
 BYTE   W06
 BYTE   N06
 BYTE   W06
 BYTE   Gn3
 BYTE   W06
 BYTE   Cn3
 BYTE   W06
 BYTE   N06
 BYTE   W06
 BYTE   Gn3
 BYTE   W06
 BYTE   Cn4
 BYTE   W06
 BYTE   Gn2
 BYTE   N06  Cn3
 BYTE   N06  Fn3
 BYTE   N06  Gn3
 BYTE   N06  Cn4
 BYTE   N06  Fn4
 BYTE   W06
 BYTE   N30  Fn2
 BYTE   N30  As2
 BYTE   N30  Ds3
 BYTE   N30  Fn3
 BYTE   N30  As3
 BYTE   N30  Ds4
 BYTE   W30
 BYTE   PEND 
// 004   ----------------------------------------
 BYTE   PATT
  POIN2 Label_0_014E0A98
// 005   ----------------------------------------
 BYTE   PATT
  POIN2 Label_0_014E0A84
// 006   ----------------------------------------
 BYTE   PATT
  POIN2 Label_0_014E0A98
// 007   ----------------------------------------
Label_0_014E0B00:
 BYTE   N06  Fn3  v100
 BYTE   N06  An3
 BYTE   W18
 BYTE   Fn3
 BYTE   N06  An3
 BYTE   W18
 BYTE   N36  Gn3
 BYTE   N36  Bn3
 BYTE   W60
 BYTE   PEND 
// 008   ----------------------------------------
Label_0_014E0B10:
 BYTE   N12  Cn3  v100
 BYTE   W12
 BYTE   Ds3
 BYTE   N12  Gn3
 BYTE   W12
 BYTE   N06  Cn3
 BYTE   W06
 BYTE   N12  Ds3
 BYTE   N12  Gn3
 BYTE   W12
 BYTE   N06  Cn3
 BYTE   W06
 BYTE   N12  Fn3
 BYTE   N12  An3
 BYTE   W12
 BYTE   N06  Cn3
 BYTE   W06
 BYTE   N12  Fn3
 BYTE   N12  An3
 BYTE   W12
 BYTE   N06  Cn3
 BYTE   W06
 BYTE   N12  Fn3
 BYTE   N12  An3
 BYTE   W12
 BYTE   PEND 
// 009   ----------------------------------------
Label_0_014E0B39:
 BYTE   N12  Cn3  v100
 BYTE   W12
 BYTE   Gn3
 BYTE   N12  As3
 BYTE   W12
 BYTE   N06  Cn3
 BYTE   W06
 BYTE   N12  Gn3
 BYTE   N12  As3
 BYTE   W12
 BYTE   N06  Cn3
 BYTE   W06
 BYTE   N12  Fn3
 BYTE   N12  An3
 BYTE   W12
 BYTE   N06  Cn3
 BYTE   W06
 BYTE   N12  Fn3
 BYTE   N12  An3
 BYTE   W12
 BYTE   N06  Cn3
 BYTE   W06
 BYTE   N12  Fn3
 BYTE   N12  An3
 BYTE   W12
 BYTE   PEND 
// 010   ----------------------------------------
 BYTE   PATT
  POIN2 Label_0_014E0B10
// 011   ----------------------------------------
Label_0_014E0B67:
 BYTE   N12  Ds3  v100
 BYTE   N12  Gn3
 BYTE   W12
 BYTE   N06  Dn4
 BYTE   N06  An4
 BYTE   W06
 BYTE   Ds4
 BYTE   N06  As4
 BYTE   W06
 BYTE   Ds4
 BYTE   N06  As4
 BYTE   W06
 BYTE   Ds4
 BYTE   N06  As4
 BYTE   W06
 BYTE   Ds4
 BYTE   N06  As4
 BYTE   W06
 BYTE   Ds4
 BYTE   N06  As4
 BYTE   W06
 BYTE   Ds4
 BYTE   N06  As4
 BYTE   W12
 BYTE   Fn4
 BYTE   N06  Cn5
 BYTE   W06
 BYTE   N30  Ds4
 BYTE   N30  As4
 BYTE   W30
 BYTE   PEND 
// 012   ----------------------------------------
 BYTE   PATT
  POIN2 Label_0_014E0B10
// 013   ----------------------------------------
 BYTE   PATT
  POIN2 Label_0_014E0B39
// 014   ----------------------------------------
 BYTE   PATT
  POIN2 Label_0_014E0B10
// 015   ----------------------------------------
Label_0_014E0BA3:
 BYTE   W12
 BYTE   N06  As3  v100
 BYTE   N06  Cs4
 BYTE   W06
 BYTE   Bn3
 BYTE   N06  Dn4
 BYTE   W06
 BYTE   Bn3
 BYTE   N06  Dn4
 BYTE   W06
 BYTE   Bn3
 BYTE   N06  Dn4
 BYTE   W06
 BYTE   Bn3
 BYTE   N06  Dn4
 BYTE   W06
 BYTE   Bn3
 BYTE   N06  Dn4
 BYTE   W06
 BYTE   Bn3
 BYTE   N06  Dn4
 BYTE   W12
 BYTE   Cn4
 BYTE   N06  Ds4
 BYTE   W06
 BYTE   N18  Bn3
 BYTE   N18  Dn4
 BYTE   W30
 BYTE   PEND 
// 016   ----------------------------------------
 BYTE   PATT
  POIN2 Label_0_014E0A98
// 017   ----------------------------------------
Label_0_014E0BD1:
 BYTE   N12  Cn3  v100
 BYTE   W12
 BYTE   Fn3
 BYTE   N12  An3
 BYTE   W12
 BYTE   N06  Cn3
 BYTE   W06
 BYTE   N12  Gn3
 BYTE   N12  As3
 BYTE   W12
 BYTE   N06  Cn3
 BYTE   W06
 BYTE   N12  Fn3
 BYTE   N12  An3
 BYTE   W12
 BYTE   N06  Cn3
 BYTE   W06
 BYTE   N12  Gn3
 BYTE   N12  As3
 BYTE   W12
 BYTE   N06  Cn3
 BYTE   W06
 BYTE   N12  Fn3
 BYTE   N12  An3
 BYTE   W12
 BYTE   PEND 
// 018   ----------------------------------------
 BYTE   PATT
  POIN2 Label_0_014E0A98
// 019   ----------------------------------------
Label_0_014E0BFF:
 BYTE   N12  Cn3  v100
 BYTE   W12
 BYTE   N06  Ds3
 BYTE   N06  Gn3
 BYTE   W06
 BYTE   Fn3
 BYTE   N06  An3
 BYTE   W06
 BYTE   Fn3
 BYTE   N06  An3
 BYTE   W06
 BYTE   Fn3
 BYTE   N06  An3
 BYTE   W06
 BYTE   Fn3
 BYTE   N06  An3
 BYTE   W06
 BYTE   Fn3
 BYTE   N06  An3
 BYTE   W06
 BYTE   Fn3
 BYTE   N06  An3
 BYTE   W12
 BYTE   Gn3
 BYTE   N06  As3
 BYTE   W06
 BYTE   N30  Fn3
 BYTE   N30  An3
 BYTE   W30
 BYTE   PEND 
// 020   ----------------------------------------
 BYTE   PATT
  POIN2 Label_0_014E0A98
// 021   ----------------------------------------
 BYTE   PATT
  POIN2 Label_0_014E0BD1
// 022   ----------------------------------------
 BYTE   PATT
  POIN2 Label_0_014E0A98
// 023   ----------------------------------------
 BYTE   PATT
  POIN2 Label_0_014E0BD1
// 024   ----------------------------------------
Label_0_014E0C3E:
 BYTE   N96  Gs2  v100
 BYTE   N96  Cn3
 BYTE   N96  Ds3
 BYTE   N96  Fn3
 BYTE   W96
 BYTE   PEND 
// 025   ----------------------------------------
Label_0_014E0C49:
 BYTE   N96  Gn2  v100
 BYTE   N96  Bn2
 BYTE   N96  Dn3
 BYTE   N96  Fn3
 BYTE   W96
 BYTE   PEND 
// 026   ----------------------------------------
Label_0_014E0C54:
 BYTE   N48  Gn2  v100
 BYTE   N48  Cn3
 BYTE   N48  Ds3
 BYTE   W48
 BYTE   Fn2
 BYTE   N48  As2
 BYTE   N48  Dn3
 BYTE   W48
 BYTE   PEND 
// 027   ----------------------------------------
Label_0_014E0C63:
 BYTE   N96  Gn2  v100
 BYTE   N96  Cn3
 BYTE   N96  Ds3
 BYTE   W96
 BYTE   PEND 
// 028   ----------------------------------------
 BYTE   PATT
  POIN2 Label_0_014E0C3E
// 029   ----------------------------------------
 BYTE   PATT
  POIN2 Label_0_014E0C49
// 030   ----------------------------------------
 BYTE   PATT
  POIN2 Label_0_014E0C54
// 031   ----------------------------------------
 BYTE   PATT
  POIN2 Label_0_014E0C63
// 032   ----------------------------------------
 BYTE   PATT
  POIN2 Label_0_014E0C3E
// 033   ----------------------------------------
Label_0_014E0C85:
 BYTE   N96  Gn2  v100
 BYTE   N96  As2
 BYTE   N96  Dn3
 BYTE   W96
 BYTE   PEND 
// 034   ----------------------------------------
Label_0_014E0C8E:
 BYTE   N96  Gs2  v100
 BYTE   N96  Cn3
 BYTE   N96  Ds3
 BYTE   W96
 BYTE   PEND 
// 035   ----------------------------------------
Label_0_014E0C97:
 BYTE   N24  Ds3  v100
 BYTE   N24  Gn3
 BYTE   W24
 BYTE   Dn3
 BYTE   N24  Fn3
 BYTE   W24
 BYTE   Cn3
 BYTE   N24  Ds3
 BYTE   W24
 BYTE   Dn3
 BYTE   N24  Fn3
 BYTE   W24
 BYTE   PEND 
// 036   ----------------------------------------
 BYTE   VOL   56*SonictheHedgehog3AngelIslandZoneAct2MeatOfJustice_mvl/mxv
 BYTE   N12  Cn3
 BYTE   W12
 BYTE   Ds3
 BYTE   N12  Gn3
 BYTE   W12
 BYTE   N06  Cn3
 BYTE   W06
 BYTE   N12  Fn3
 BYTE   N12  An3
 BYTE   W12
 BYTE   N06  Cn3
 BYTE   W06
 BYTE   N12  Gn3
 BYTE   N12  As3
 BYTE   W12
 BYTE   N06  Cn3
 BYTE   W06
 BYTE   N12  Fn3
 BYTE   N12  An3
 BYTE   W12
 BYTE   N06  Cn3
 BYTE   W06
 BYTE   N12  Ds3
 BYTE   N12  Gn3
 BYTE   W12
// 037   ----------------------------------------
 BYTE   PATT
  POIN2 Label_0_014E0A84
// 038   ----------------------------------------
 BYTE   PATT
  POIN2 Label_0_014E0A98
// 039   ----------------------------------------
 BYTE   PATT
  POIN2 Label_0_014E0AC1
// 040   ----------------------------------------
 BYTE   PATT
  POIN2 Label_0_014E0A98
// 041   ----------------------------------------
 BYTE   PATT
  POIN2 Label_0_014E0A84
// 042   ----------------------------------------
 BYTE   PATT
  POIN2 Label_0_014E0A98
// 043   ----------------------------------------
 BYTE   PATT
  POIN2 Label_0_014E0B00
// 044   ----------------------------------------
 BYTE   PATT
  POIN2 Label_0_014E0B10
// 045   ----------------------------------------
 BYTE   PATT
  POIN2 Label_0_014E0B39
// 046   ----------------------------------------
 BYTE   PATT
  POIN2 Label_0_014E0B10
// 047   ----------------------------------------
 BYTE   PATT
  POIN2 Label_0_014E0B67
// 048   ----------------------------------------
 BYTE   PATT
  POIN2 Label_0_014E0B10
// 049   ----------------------------------------
 BYTE   PATT
  POIN2 Label_0_014E0B39
// 050   ----------------------------------------
 BYTE   PATT
  POIN2 Label_0_014E0B10
// 051   ----------------------------------------
 BYTE   PATT
  POIN2 Label_0_014E0BA3
// 052   ----------------------------------------
 BYTE   PATT
  POIN2 Label_0_014E0A98
// 053   ----------------------------------------
 BYTE   PATT
  POIN2 Label_0_014E0BD1
// 054   ----------------------------------------
 BYTE   PATT
  POIN2 Label_0_014E0A98
// 055   ----------------------------------------
 BYTE   PATT
  POIN2 Label_0_014E0BFF
// 056   ----------------------------------------
 BYTE   PATT
  POIN2 Label_0_014E0A98
// 057   ----------------------------------------
 BYTE   PATT
  POIN2 Label_0_014E0BD1
// 058   ----------------------------------------
 BYTE   PATT
  POIN2 Label_0_014E0A98
// 059   ----------------------------------------
 BYTE   PATT
  POIN2 Label_0_014E0BD1
// 060   ----------------------------------------
 BYTE   PATT
  POIN2 Label_0_014E0C3E
// 061   ----------------------------------------
 BYTE   PATT
  POIN2 Label_0_014E0C49
// 062   ----------------------------------------
 BYTE   PATT
  POIN2 Label_0_014E0C54
// 063   ----------------------------------------
 BYTE   PATT
  POIN2 Label_0_014E0C63
// 064   ----------------------------------------
 BYTE   PATT
  POIN2 Label_0_014E0C3E
// 065   ----------------------------------------
 BYTE   PATT
  POIN2 Label_0_014E0C49
// 066   ----------------------------------------
 BYTE   PATT
  POIN2 Label_0_014E0C54
// 067   ----------------------------------------
 BYTE   PATT
  POIN2 Label_0_014E0C63
// 068   ----------------------------------------
 BYTE   PATT
  POIN2 Label_0_014E0C3E
// 069   ----------------------------------------
 BYTE   PATT
  POIN2 Label_0_014E0C85
// 070   ----------------------------------------
 BYTE   PATT
  POIN2 Label_0_014E0C8E
// 071   ----------------------------------------
 BYTE   PATT
  POIN2 Label_0_014E0C97
// 072   ----------------------------------------
 BYTE   GoTo
  POIN2 Label_0_014E0A56
// 073   ----------------------------------------
 BYTE   VOL   56*SonictheHedgehog3AngelIslandZoneAct2MeatOfJustice_mvl/mxv
 BYTE   N12  Cn3  v100
 BYTE   W12
 BYTE   Ds3
 BYTE   N12  Gn3
 BYTE   W12
 BYTE   N06  Cn3
 BYTE   W06
 BYTE   N12  Fn3
 BYTE   N12  An3
 BYTE   W03
 BYTE   VOL   53*SonictheHedgehog3AngelIslandZoneAct2MeatOfJustice_mvl/mxv
 BYTE   W09
 BYTE   N06  Cn3
 BYTE   W06
 BYTE   N12  Gn3
 BYTE   N12  As3
 BYTE   W12
 BYTE   N06  Cn3
 BYTE   W06
 BYTE   N12  Fn3
 BYTE   N12  An3
 BYTE   W01
 BYTE   VOL   50*SonictheHedgehog3AngelIslandZoneAct2MeatOfJustice_mvl/mxv
 BYTE   W11
 BYTE   N06  Cn3
 BYTE   W06
 BYTE   N12  Ds3
 BYTE   N12  Gn3
 BYTE   W12
// 074   ----------------------------------------
 BYTE   Fn3
 BYTE   N12  As3
 BYTE   W04
 BYTE   VOL   47*SonictheHedgehog3AngelIslandZoneAct2MeatOfJustice_mvl/mxv
 BYTE   W08
 BYTE   N12  Gn3
 BYTE   N12  Cn4
 BYTE   W24
 BYTE   N06  As2
 BYTE   N06  Dn3
 BYTE   W02
 BYTE   VOL   44*SonictheHedgehog3AngelIslandZoneAct2MeatOfJustice_mvl/mxv
 BYTE   W04
 BYTE   N06  Gn2
 BYTE   N06  Cn3
 BYTE   W30
 BYTE   VOL   41*SonictheHedgehog3AngelIslandZoneAct2MeatOfJustice_mvl/mxv
 BYTE   W24
// 075   ----------------------------------------
 BYTE   N12
 BYTE   W09
 BYTE   VOL   38*SonictheHedgehog3AngelIslandZoneAct2MeatOfJustice_mvl/mxv
 BYTE   W03
 BYTE   N12  Ds3
 BYTE   N12  Gn3
 BYTE   W12
 BYTE   N06  Cn3
 BYTE   W06
 BYTE   N12  Fn3
 BYTE   N12  An3
 BYTE   W12
 BYTE   N06  Cn3
 BYTE   W01
 BYTE   VOL   34*SonictheHedgehog3AngelIslandZoneAct2MeatOfJustice_mvl/mxv
 BYTE   W05
 BYTE   N12  Gn3
 BYTE   N12  As3
 BYTE   W12
 BYTE   N06  Cn3
 BYTE   W06
 BYTE   N12  Fn3
 BYTE   N12  An3
 BYTE   W10
 BYTE   VOL   31*SonictheHedgehog3AngelIslandZoneAct2MeatOfJustice_mvl/mxv
 BYTE   W02
 BYTE   N06  Cn3
 BYTE   W06
 BYTE   N12  Ds3
 BYTE   N12  Gn3
 BYTE   W12
// 076   ----------------------------------------
 BYTE   N06  Cn3
 BYTE   W06
 BYTE   N06
 BYTE   W06
 BYTE   Gn3
 BYTE   W02
 BYTE   VOL   28*SonictheHedgehog3AngelIslandZoneAct2MeatOfJustice_mvl/mxv
 BYTE   W04
 BYTE   N06  Cn3
 BYTE   W06
 BYTE   N06
 BYTE   W06
 BYTE   Gn3
 BYTE   W06
 BYTE   Cn3
 BYTE   W06
 BYTE   N06
 BYTE   W06
 BYTE   VOL   25*SonictheHedgehog3AngelIslandZoneAct2MeatOfJustice_mvl/mxv
 BYTE   N06  Gn3
 BYTE   W06
 BYTE   Cn4
 BYTE   W06
 BYTE   Gn2
 BYTE   N06  Cn3
 BYTE   N06  Fn3
 BYTE   N06  Gn3
 BYTE   N06  Cn4
 BYTE   N06  Fn4
 BYTE   W06
 BYTE   N30  Fn2
 BYTE   N30  As2
 BYTE   N30  Ds3
 BYTE   N30  Fn3
 BYTE   N30  As3
 BYTE   N30  Ds4
 BYTE   W15
 BYTE   VOL   22*SonictheHedgehog3AngelIslandZoneAct2MeatOfJustice_mvl/mxv
 BYTE   W15
// 077   ----------------------------------------
 BYTE   N12  Cn3
 BYTE   W12
 BYTE   Ds3
 BYTE   N12  Gn3
 BYTE   W07
 BYTE   VOL   19*SonictheHedgehog3AngelIslandZoneAct2MeatOfJustice_mvl/mxv
 BYTE   W05
 BYTE   N06  Cn3
 BYTE   W06
 BYTE   N12  Fn3
 BYTE   N12  An3
 BYTE   W12
 BYTE   N06  Cn3
 BYTE   W06
 BYTE   N12  Gn3
 BYTE   N12  As3
 BYTE   W04
 BYTE   VOL   16*SonictheHedgehog3AngelIslandZoneAct2MeatOfJustice_mvl/mxv
 BYTE   W08
 BYTE   N06  Cn3
 BYTE   W06
 BYTE   N12  Fn3
 BYTE   N12  An3
 BYTE   W12
 BYTE   N06  Cn3
 BYTE   W06
 BYTE   N12  Ds3
 BYTE   N12  Gn3
 BYTE   W02
 BYTE   VOL   12*SonictheHedgehog3AngelIslandZoneAct2MeatOfJustice_mvl/mxv
 BYTE   W10
// 078   ----------------------------------------
 BYTE   N12  Fn3
 BYTE   N12  As3
 BYTE   W12
 BYTE   Gn3
 BYTE   N12  Cn4
 BYTE   W12
 BYTE   VOL   9*SonictheHedgehog3AngelIslandZoneAct2MeatOfJustice_mvl/mxv
 BYTE   W12
 BYTE   N06  As2
 BYTE   N06  Dn3
 BYTE   W06
 BYTE   Gn2
 BYTE   N06  Cn3
 BYTE   W15
 BYTE   VOL   6*SonictheHedgehog3AngelIslandZoneAct2MeatOfJustice_mvl/mxv
 BYTE   W32
 BYTE   W02
 BYTE   VOL   3*SonictheHedgehog3AngelIslandZoneAct2MeatOfJustice_mvl/mxv
 BYTE   W05
// 079   ----------------------------------------
 BYTE   N12
 BYTE   W12
 BYTE   Ds3
 BYTE   N12  Gn3
 BYTE   W12
 BYTE   N06  Cn3
 BYTE   W04
 BYTE   VOL   0*SonictheHedgehog3AngelIslandZoneAct2MeatOfJustice_mvl/mxv
 BYTE   W02
 BYTE   N12  Fn3
 BYTE   N12  An3
 BYTE   W12
 BYTE   N06  Cn3
 BYTE   W06
 BYTE   N12  Gn3
 BYTE   N12  As3
 BYTE   W12
 BYTE   N06  Cn3
 BYTE   W02
 BYTE   VOL   0*SonictheHedgehog3AngelIslandZoneAct2MeatOfJustice_mvl/mxv
 BYTE   W04
 BYTE   N12  Fn3
 BYTE   N12  An3
 BYTE   W12
 BYTE   N06  Cn3
 BYTE   W06
 BYTE   N12  Ds3
 BYTE   N12  Gn3
 BYTE   W12
 BYTE   FINE

//**************** Track 2 (Midi-Chn.1) ****************//

SonictheHedgehog3AngelIslandZoneAct2MeatOfJustice_002:
// 000   ----------------------------------------
 BYTE   KEYSH   SonictheHedgehog3AngelIslandZoneAct2MeatOfJustice_key+0
Label_1_014E0EB6:
 BYTE   VOICE   38
 BYTE   VOL   64*SonictheHedgehog3AngelIslandZoneAct2MeatOfJustice_mvl/mxv
 BYTE   N12  Cn1  v127
 BYTE   W24
 BYTE   An0
 BYTE   W18
 BYTE   N18  As0
 BYTE   W18
 BYTE   N12  An0
 BYTE   W12
 BYTE   As0
 BYTE   W12
 BYTE   An0
 BYTE   W12
// 001   ----------------------------------------
Label_1_014E0ECA:
 BYTE   N12  Cn1  v127
 BYTE   W24
 BYTE   An0
 BYTE   W18
 BYTE   N18  As0
 BYTE   W18
 BYTE   N12  An0
 BYTE   W12
 BYTE   Gn0
 BYTE   W12
 BYTE   N06  An0
 BYTE   W06
 BYTE   As0
 BYTE   W06
 BYTE   PEND 
// 002   ----------------------------------------
Label_1_014E0EDE:
 BYTE   N12  Cn1  v127
 BYTE   W24
 BYTE   An0
 BYTE   W18
 BYTE   N18  As0
 BYTE   W18
 BYTE   N12  An0
 BYTE   W12
 BYTE   As0
 BYTE   W12
 BYTE   An0
 BYTE   W12
 BYTE   PEND 
// 003   ----------------------------------------
 BYTE   PATT
  POIN2 Label_1_014E0ECA
// 004   ----------------------------------------
 BYTE   PATT
  POIN2 Label_1_014E0EDE
// 005   ----------------------------------------
 BYTE   PATT
  POIN2 Label_1_014E0ECA
// 006   ----------------------------------------
 BYTE   PATT
  POIN2 Label_1_014E0EDE
// 007   ----------------------------------------
Label_1_014E0F03:
 BYTE   N06  Fn1  v127
 BYTE   W18
 BYTE   N06
 BYTE   W18
 BYTE   N24  Gn1
 BYTE   W24
 BYTE   N12  Fn0
 BYTE   W12
 BYTE   Gn0
 BYTE   W12
 BYTE   N06  An0
 BYTE   W06
 BYTE   As0
 BYTE   W06
 BYTE   PEND 
// 008   ----------------------------------------
Label_1_014E0F17:
 BYTE   N12  Cn1  v127
 BYTE   W12
 BYTE   N12
 BYTE   W12
 BYTE   Ds1
 BYTE   W12
 BYTE   N06
 BYTE   W06
 BYTE   N18  Fn1
 BYTE   W18
 BYTE   N12
 BYTE   W12
 BYTE   Gn1
 BYTE   W12
 BYTE   Ds1
 BYTE   W12
 BYTE   PEND 
// 009   ----------------------------------------
Label_1_014E0F2B:
 BYTE   N12  Cn1  v127
 BYTE   W12
 BYTE   N12
 BYTE   W12
 BYTE   Ds1
 BYTE   W12
 BYTE   N06
 BYTE   W06
 BYTE   N18  Fn1
 BYTE   W18
 BYTE   N12  Fn0
 BYTE   W12
 BYTE   Gn0
 BYTE   W12
 BYTE   As0
 BYTE   W12
 BYTE   PEND 
// 010   ----------------------------------------
 BYTE   PATT
  POIN2 Label_1_014E0F17
// 011   ----------------------------------------
 BYTE   PATT
  POIN2 Label_1_014E0F2B
// 012   ----------------------------------------
 BYTE   PATT
  POIN2 Label_1_014E0F17
// 013   ----------------------------------------
 BYTE   PATT
  POIN2 Label_1_014E0F2B
// 014   ----------------------------------------
Label_1_014E0F54:
 BYTE   N12  Cn1  v127
 BYTE   W12
 BYTE   N12
 BYTE   W12
 BYTE   Ds1
 BYTE   W12
 BYTE   N06
 BYTE   W06
 BYTE   N18  Fn1
 BYTE   W18
 BYTE   N12
 BYTE   W12
 BYTE   Ds1
 BYTE   W12
 BYTE   Fn1
 BYTE   W12
 BYTE   PEND 
// 015   ----------------------------------------
Label_1_014E0F68:
 BYTE   N24  Gn0  v127
 BYTE   W24
 BYTE   Dn1
 BYTE   W24
 BYTE   N12  Fn1
 BYTE   W12
 BYTE   N36  Gn1
 BYTE   W36
 BYTE   PEND 
// 016   ----------------------------------------
Label_1_014E0F75:
 BYTE   N12  Cn1  v127
 BYTE   W12
 BYTE   N12
 BYTE   W12
 BYTE   N12
 BYTE   W12
 BYTE   N06
 BYTE   W06
 BYTE   N18  Ds1
 BYTE   W18
 BYTE   N12
 BYTE   W12
 BYTE   Fn1
 BYTE   W12
 BYTE   Gn1
 BYTE   W12
 BYTE   PEND 
// 017   ----------------------------------------
Label_1_014E0F89:
 BYTE   N12  Fn0  v127
 BYTE   W12
 BYTE   N12
 BYTE   W12
 BYTE   N12
 BYTE   W12
 BYTE   N06
 BYTE   W06
 BYTE   N18  Gn0
 BYTE   W18
 BYTE   N12
 BYTE   W12
 BYTE   As0
 BYTE   W12
 BYTE   Bn0
 BYTE   W12
 BYTE   PEND 
// 018   ----------------------------------------
 BYTE   PATT
  POIN2 Label_1_014E0F75
// 019   ----------------------------------------
 BYTE   PATT
  POIN2 Label_1_014E0F89
// 020   ----------------------------------------
 BYTE   PATT
  POIN2 Label_1_014E0F75
// 021   ----------------------------------------
 BYTE   PATT
  POIN2 Label_1_014E0F89
// 022   ----------------------------------------
 BYTE   PATT
  POIN2 Label_1_014E0F75
// 023   ----------------------------------------
Label_1_014E0FB6:
 BYTE   N12  Fn0  v127
 BYTE   W12
 BYTE   N12
 BYTE   W12
 BYTE   N12
 BYTE   W12
 BYTE   N06
 BYTE   W06
 BYTE   N18  Gn0
 BYTE   W18
 BYTE   N12
 BYTE   W12
 BYTE   Fn0
 BYTE   W12
 BYTE   Ds0
 BYTE   W12
 BYTE   PEND 
// 024   ----------------------------------------
Label_1_014E0FCA:
 BYTE   N12  Fn0  v127
 BYTE   W12
 BYTE   N12
 BYTE   W12
 BYTE   N12
 BYTE   W12
 BYTE   N06  Ds0
 BYTE   W06
 BYTE   N18  Cn0
 BYTE   W18
 BYTE   N12
 BYTE   W12
 BYTE   Ds0
 BYTE   W12
 BYTE   Fn0
 BYTE   W12
 BYTE   PEND 
// 025   ----------------------------------------
Label_1_014E0FDF:
 BYTE   N12  Gn0  v127
 BYTE   W12
 BYTE   N12
 BYTE   W12
 BYTE   N12
 BYTE   W12
 BYTE   N06  Fn0
 BYTE   W06
 BYTE   N18  Gn0
 BYTE   W18
 BYTE   N12  Dn0
 BYTE   W12
 BYTE   Gn0
 BYTE   W12
 BYTE   N06  An0
 BYTE   W06
 BYTE   Bn0
 BYTE   W06
 BYTE   PEND 
// 026   ----------------------------------------
Label_1_014E0FF8:
 BYTE   N12  Cn1  v127
 BYTE   W12
 BYTE   N12
 BYTE   W12
 BYTE   N12
 BYTE   W12
 BYTE   N06  As0
 BYTE   W06
 BYTE   N18  Cn1
 BYTE   W18
 BYTE   N12  Gn0
 BYTE   W12
 BYTE   Cn0
 BYTE   W12
 BYTE   N06  Gn0
 BYTE   W06
 BYTE   As0
 BYTE   W06
 BYTE   PEND 
// 027   ----------------------------------------
Label_1_014E1011:
 BYTE   N12  Cn1  v127
 BYTE   W12
 BYTE   N12
 BYTE   W12
 BYTE   N12
 BYTE   W12
 BYTE   N06  As0
 BYTE   W06
 BYTE   N18  Cn1
 BYTE   W18
 BYTE   N12  Gn0
 BYTE   W12
 BYTE   Cn0
 BYTE   W12
 BYTE   N06  Dn0
 BYTE   W06
 BYTE   Ds0
 BYTE   W06
 BYTE   PEND 
// 028   ----------------------------------------
 BYTE   PATT
  POIN2 Label_1_014E0FCA
// 029   ----------------------------------------
 BYTE   PATT
  POIN2 Label_1_014E0FDF
// 030   ----------------------------------------
 BYTE   PATT
  POIN2 Label_1_014E0FF8
// 031   ----------------------------------------
 BYTE   PATT
  POIN2 Label_1_014E1011
// 032   ----------------------------------------
 BYTE   PATT
  POIN2 Label_1_014E0FCA
// 033   ----------------------------------------
Label_1_014E1043:
 BYTE   N12  Gn0  v127
 BYTE   W12
 BYTE   N12
 BYTE   W12
 BYTE   N12
 BYTE   W12
 BYTE   N06  Fn0
 BYTE   W06
 BYTE   N18  Gn0
 BYTE   W18
 BYTE   N12  Dn0
 BYTE   W12
 BYTE   Gn0
 BYTE   W12
 BYTE   N06  Fn0
 BYTE   W06
 BYTE   Gn0
 BYTE   W06
 BYTE   PEND 
// 034   ----------------------------------------
Label_1_014E105C:
 BYTE   N12  Gs0  v127
 BYTE   W12
 BYTE   N12
 BYTE   W12
 BYTE   N12
 BYTE   W12
 BYTE   N06  Gn0
 BYTE   W06
 BYTE   N18  Gs0
 BYTE   W18
 BYTE   N12  Ds0
 BYTE   W12
 BYTE   Gs0
 BYTE   W12
 BYTE   N06  Gn0
 BYTE   W06
 BYTE   Gs0
 BYTE   W06
 BYTE   PEND 
// 035   ----------------------------------------
Label_1_014E1075:
 BYTE   N24  As0  v127
 BYTE   W24
 BYTE   As1
 BYTE   W24
 BYTE   Fn1
 BYTE   W24
 BYTE   As0
 BYTE   W24
 BYTE   PEND 
// 036   ----------------------------------------
 BYTE   VOL   64*SonictheHedgehog3AngelIslandZoneAct2MeatOfJustice_mvl/mxv
 BYTE   N12  Cn1
 BYTE   W24
 BYTE   An0
 BYTE   W18
 BYTE   N18  As0
 BYTE   W18
 BYTE   N12  An0
 BYTE   W12
 BYTE   As0
 BYTE   W12
 BYTE   An0
 BYTE   W12
// 037   ----------------------------------------
 BYTE   PATT
  POIN2 Label_1_014E0ECA
// 038   ----------------------------------------
 BYTE   PATT
  POIN2 Label_1_014E0EDE
// 039   ----------------------------------------
 BYTE   PATT
  POIN2 Label_1_014E0ECA
// 040   ----------------------------------------
 BYTE   PATT
  POIN2 Label_1_014E0EDE
// 041   ----------------------------------------
 BYTE   PATT
  POIN2 Label_1_014E0ECA
// 042   ----------------------------------------
 BYTE   PATT
  POIN2 Label_1_014E0EDE
// 043   ----------------------------------------
 BYTE   PATT
  POIN2 Label_1_014E0F03
// 044   ----------------------------------------
 BYTE   PATT
  POIN2 Label_1_014E0F17
// 045   ----------------------------------------
 BYTE   PATT
  POIN2 Label_1_014E0F2B
// 046   ----------------------------------------
 BYTE   PATT
  POIN2 Label_1_014E0F17
// 047   ----------------------------------------
 BYTE   PATT
  POIN2 Label_1_014E0F2B
// 048   ----------------------------------------
 BYTE   PATT
  POIN2 Label_1_014E0F17
// 049   ----------------------------------------
 BYTE   PATT
  POIN2 Label_1_014E0F2B
// 050   ----------------------------------------
 BYTE   PATT
  POIN2 Label_1_014E0F54
// 051   ----------------------------------------
 BYTE   PATT
  POIN2 Label_1_014E0F68
// 052   ----------------------------------------
 BYTE   PATT
  POIN2 Label_1_014E0F75
// 053   ----------------------------------------
 BYTE   PATT
  POIN2 Label_1_014E0F89
// 054   ----------------------------------------
 BYTE   PATT
  POIN2 Label_1_014E0F75
// 055   ----------------------------------------
 BYTE   PATT
  POIN2 Label_1_014E0F89
// 056   ----------------------------------------
 BYTE   PATT
  POIN2 Label_1_014E0F75
// 057   ----------------------------------------
 BYTE   PATT
  POIN2 Label_1_014E0F89
// 058   ----------------------------------------
 BYTE   PATT
  POIN2 Label_1_014E0F75
// 059   ----------------------------------------
 BYTE   PATT
  POIN2 Label_1_014E0FB6
// 060   ----------------------------------------
 BYTE   PATT
  POIN2 Label_1_014E0FCA
// 061   ----------------------------------------
 BYTE   PATT
  POIN2 Label_1_014E0FDF
// 062   ----------------------------------------
 BYTE   PATT
  POIN2 Label_1_014E0FF8
// 063   ----------------------------------------
 BYTE   PATT
  POIN2 Label_1_014E1011
// 064   ----------------------------------------
 BYTE   PATT
  POIN2 Label_1_014E0FCA
// 065   ----------------------------------------
 BYTE   PATT
  POIN2 Label_1_014E0FDF
// 066   ----------------------------------------
 BYTE   PATT
  POIN2 Label_1_014E0FF8
// 067   ----------------------------------------
 BYTE   PATT
  POIN2 Label_1_014E1011
// 068   ----------------------------------------
 BYTE   PATT
  POIN2 Label_1_014E0FCA
// 069   ----------------------------------------
 BYTE   PATT
  POIN2 Label_1_014E1043
// 070   ----------------------------------------
 BYTE   PATT
  POIN2 Label_1_014E105C
// 071   ----------------------------------------
 BYTE   PATT
  POIN2 Label_1_014E1075
// 072   ----------------------------------------
 BYTE   GoTo
  POIN2 Label_1_014E0EB6
// 073   ----------------------------------------
 BYTE   VOL   64*SonictheHedgehog3AngelIslandZoneAct2MeatOfJustice_mvl/mxv
 BYTE   N12  Cn1  v127
 BYTE   W24
 BYTE   An0
 BYTE   W09
 BYTE   VOL   61*SonictheHedgehog3AngelIslandZoneAct2MeatOfJustice_mvl/mxv
 BYTE   W09
 BYTE   N18  As0
 BYTE   W18
 BYTE   N12  An0
 BYTE   W07
 BYTE   VOL   58*SonictheHedgehog3AngelIslandZoneAct2MeatOfJustice_mvl/mxv
 BYTE   W05
 BYTE   N12  As0
 BYTE   W12
 BYTE   An0
 BYTE   W12
// 074   ----------------------------------------
 BYTE   Cn1
 BYTE   W04
 BYTE   VOL   55*SonictheHedgehog3AngelIslandZoneAct2MeatOfJustice_mvl/mxv
 BYTE   W20
 BYTE   N12  An0
 BYTE   W14
 BYTE   VOL   52*SonictheHedgehog3AngelIslandZoneAct2MeatOfJustice_mvl/mxv
 BYTE   W04
 BYTE   N18  As0
 BYTE   W18
 BYTE   N12  An0
 BYTE   W12
 BYTE   VOL   49*SonictheHedgehog3AngelIslandZoneAct2MeatOfJustice_mvl/mxv
 BYTE   N12  Gn0
 BYTE   W12
 BYTE   N06  An0
 BYTE   W06
 BYTE   As0
 BYTE   W06
// 075   ----------------------------------------
 BYTE   N12  Cn1
 BYTE   W09
 BYTE   VOL   46*SonictheHedgehog3AngelIslandZoneAct2MeatOfJustice_mvl/mxv
 BYTE   W15
 BYTE   N12  An0
 BYTE   W18
 BYTE   N18  As0
 BYTE   W01
 BYTE   VOL   42*SonictheHedgehog3AngelIslandZoneAct2MeatOfJustice_mvl/mxv
 BYTE   W17
 BYTE   N12  An0
 BYTE   W12
 BYTE   As0
 BYTE   W04
 BYTE   VOL   39*SonictheHedgehog3AngelIslandZoneAct2MeatOfJustice_mvl/mxv
 BYTE   W08
 BYTE   N12  An0
 BYTE   W12
// 076   ----------------------------------------
 BYTE   Cn1
 BYTE   W14
 BYTE   VOL   36*SonictheHedgehog3AngelIslandZoneAct2MeatOfJustice_mvl/mxv
 BYTE   W10
 BYTE   N12  An0
 BYTE   W18
 BYTE   N18  As0
 BYTE   W06
 BYTE   VOL   33*SonictheHedgehog3AngelIslandZoneAct2MeatOfJustice_mvl/mxv
 BYTE   W12
 BYTE   N12  An0
 BYTE   W12
 BYTE   Gn0
 BYTE   W09
 BYTE   VOL   30*SonictheHedgehog3AngelIslandZoneAct2MeatOfJustice_mvl/mxv
 BYTE   W03
 BYTE   N06  An0
 BYTE   W06
 BYTE   As0
 BYTE   W06
// 077   ----------------------------------------
 BYTE   N12  Cn1
 BYTE   W19
 BYTE   VOL   27*SonictheHedgehog3AngelIslandZoneAct2MeatOfJustice_mvl/mxv
 BYTE   W05
 BYTE   N12  An0
 BYTE   W18
 BYTE   N18  As0
 BYTE   W10
 BYTE   VOL   24*SonictheHedgehog3AngelIslandZoneAct2MeatOfJustice_mvl/mxv
 BYTE   W08
 BYTE   N12  An0
 BYTE   W12
 BYTE   As0
 BYTE   W12
 BYTE   An0
 BYTE   W02
 BYTE   VOL   20*SonictheHedgehog3AngelIslandZoneAct2MeatOfJustice_mvl/mxv
 BYTE   W10
// 078   ----------------------------------------
 BYTE   N12  Cn1
 BYTE   W24
 BYTE   VOL   17*SonictheHedgehog3AngelIslandZoneAct2MeatOfJustice_mvl/mxv
 BYTE   N12  An0
 BYTE   W18
 BYTE   N18  As0
 BYTE   W15
 BYTE   VOL   14*SonictheHedgehog3AngelIslandZoneAct2MeatOfJustice_mvl/mxv
 BYTE   W03
 BYTE   N12  An0
 BYTE   W12
 BYTE   Gn0
 BYTE   W12
 BYTE   N06  An0
 BYTE   W06
 BYTE   As0
 BYTE   W01
 BYTE   VOL   11*SonictheHedgehog3AngelIslandZoneAct2MeatOfJustice_mvl/mxv
 BYTE   W05
// 079   ----------------------------------------
 BYTE   N12  Cn1
 BYTE   W24
 BYTE   An0
 BYTE   W04
 BYTE   VOL   8*SonictheHedgehog3AngelIslandZoneAct2MeatOfJustice_mvl/mxv
 BYTE   W14
 BYTE   N18  As0
 BYTE   W18
 BYTE   N12  An0
 BYTE   W02
 BYTE   VOL   5*SonictheHedgehog3AngelIslandZoneAct2MeatOfJustice_mvl/mxv
 BYTE   W10
 BYTE   N12  As0
 BYTE   W12
 BYTE   An0
 BYTE   W12
 BYTE   FINE

//**************** Track 3 (Midi-Chn.2) ****************//

SonictheHedgehog3AngelIslandZoneAct2MeatOfJustice_003:
// 000   ----------------------------------------
 BYTE   KEYSH   SonictheHedgehog3AngelIslandZoneAct2MeatOfJustice_key+0
Label_2_014E11FE:
 BYTE   VOICE   29
 BYTE   VOL   56*SonictheHedgehog3AngelIslandZoneAct2MeatOfJustice_mvl/mxv
 BYTE   W96
// 001   ----------------------------------------
 BYTE   W96
// 002   ----------------------------------------
 BYTE   W96
// 003   ----------------------------------------
 BYTE   W96
// 004   ----------------------------------------
 BYTE   W96
// 005   ----------------------------------------
 BYTE   W96
// 006   ----------------------------------------
 BYTE   W96
// 007   ----------------------------------------
Label_2_014E1209:
 BYTE   W60
 BYTE   N12  Ds2  v127
 BYTE   W12
 BYTE   Gn2
 BYTE   W12
 BYTE   Ds3
 BYTE   W12
 BYTE   PEND 
// 008   ----------------------------------------
Label_2_014E1213:
 BYTE   N06  Dn3  v127
 BYTE   W18
 BYTE   As2
 BYTE   W18
 BYTE   N36  Gn2
 BYTE   W60
 BYTE   PEND 
// 009   ----------------------------------------
 BYTE   PATT
  POIN2 Label_2_014E1209
// 010   ----------------------------------------
Label_2_014E1222:
 BYTE   N06  Dn3  v127
 BYTE   W18
 BYTE   As2
 BYTE   W18
 BYTE   N36  Cn3
 BYTE   W60
 BYTE   PEND 
// 011   ----------------------------------------
 BYTE   PATT
  POIN2 Label_2_014E1209
// 012   ----------------------------------------
 BYTE   PATT
  POIN2 Label_2_014E1213
// 013   ----------------------------------------
 BYTE   PATT
  POIN2 Label_2_014E1209
// 014   ----------------------------------------
 BYTE   PATT
  POIN2 Label_2_014E1222
// 015   ----------------------------------------
Label_2_014E1240:
 BYTE   N24  Gn1  v127
 BYTE   W24
 BYTE   Dn2
 BYTE   W24
 BYTE   N12  Fn2
 BYTE   W12
 BYTE   N36  Gn2
 BYTE   W36
 BYTE   PEND 
// 016   ----------------------------------------
Label_2_014E124D:
 BYTE   N12  Cn2  v127
 BYTE   W12
 BYTE   N12
 BYTE   W12
 BYTE   N12
 BYTE   W12
 BYTE   N06
 BYTE   W06
 BYTE   N18  Ds2
 BYTE   W18
 BYTE   N12
 BYTE   W12
 BYTE   Fn2
 BYTE   W12
 BYTE   Gn2
 BYTE   W12
 BYTE   PEND 
// 017   ----------------------------------------
Label_2_014E1261:
 BYTE   N12  Fn1  v127
 BYTE   W12
 BYTE   N12
 BYTE   W12
 BYTE   N12
 BYTE   W12
 BYTE   N06
 BYTE   W06
 BYTE   N18  Gn1
 BYTE   W18
 BYTE   N12
 BYTE   W12
 BYTE   As1
 BYTE   W12
 BYTE   Bn1
 BYTE   W12
 BYTE   PEND 
// 018   ----------------------------------------
 BYTE   PATT
  POIN2 Label_2_014E124D
// 019   ----------------------------------------
 BYTE   PATT
  POIN2 Label_2_014E1261
// 020   ----------------------------------------
 BYTE   PATT
  POIN2 Label_2_014E124D
// 021   ----------------------------------------
 BYTE   PATT
  POIN2 Label_2_014E1261
// 022   ----------------------------------------
 BYTE   PATT
  POIN2 Label_2_014E124D
// 023   ----------------------------------------
Label_2_014E128E:
 BYTE   N12  Fn1  v127
 BYTE   W12
 BYTE   N12
 BYTE   W12
 BYTE   N12
 BYTE   W12
 BYTE   N06
 BYTE   W06
 BYTE   N18  Gn1
 BYTE   W18
 BYTE   N12
 BYTE   W12
 BYTE   Fn1
 BYTE   W12
 BYTE   Ds1
 BYTE   W12
 BYTE   PEND 
// 024   ----------------------------------------
Label_2_014E12A2:
 BYTE   N12  Fn1  v127
 BYTE   W12
 BYTE   N12
 BYTE   W12
 BYTE   N12
 BYTE   W12
 BYTE   N06  Ds1
 BYTE   W06
 BYTE   N18  Cn1
 BYTE   W18
 BYTE   N12
 BYTE   W12
 BYTE   Ds1
 BYTE   W12
 BYTE   Fn1
 BYTE   W12
 BYTE   PEND 
// 025   ----------------------------------------
Label_2_014E12B7:
 BYTE   N12  Gn1  v127
 BYTE   W12
 BYTE   N12
 BYTE   W12
 BYTE   N12
 BYTE   W12
 BYTE   N06  Fn1
 BYTE   W06
 BYTE   N18  Gn1
 BYTE   W18
 BYTE   N12  Dn1
 BYTE   W12
 BYTE   Gn1
 BYTE   W12
 BYTE   N06  An1
 BYTE   W06
 BYTE   Bn1
 BYTE   W06
 BYTE   PEND 
// 026   ----------------------------------------
Label_2_014E12D0:
 BYTE   N12  Cn2  v127
 BYTE   W12
 BYTE   N12
 BYTE   W12
 BYTE   N12
 BYTE   W12
 BYTE   N06  As1
 BYTE   W06
 BYTE   N18  Cn2
 BYTE   W18
 BYTE   N12  Gn1
 BYTE   W12
 BYTE   Cn1
 BYTE   W12
 BYTE   N06  Gn1
 BYTE   W06
 BYTE   As1
 BYTE   W06
 BYTE   PEND 
// 027   ----------------------------------------
Label_2_014E12E9:
 BYTE   N12  Cn2  v127
 BYTE   W12
 BYTE   N12
 BYTE   W12
 BYTE   N12
 BYTE   W12
 BYTE   N06  As1
 BYTE   W06
 BYTE   N18  Cn2
 BYTE   W18
 BYTE   N12  Gn1
 BYTE   W12
 BYTE   Cn1
 BYTE   W12
 BYTE   N06  Dn1
 BYTE   W06
 BYTE   Ds1
 BYTE   W06
 BYTE   PEND 
// 028   ----------------------------------------
 BYTE   PATT
  POIN2 Label_2_014E12A2
// 029   ----------------------------------------
 BYTE   PATT
  POIN2 Label_2_014E12B7
// 030   ----------------------------------------
 BYTE   PATT
  POIN2 Label_2_014E12D0
// 031   ----------------------------------------
 BYTE   PATT
  POIN2 Label_2_014E12E9
// 032   ----------------------------------------
 BYTE   PATT
  POIN2 Label_2_014E12A2
// 033   ----------------------------------------
Label_2_014E131B:
 BYTE   N12  Gn1  v127
 BYTE   W12
 BYTE   N12
 BYTE   W12
 BYTE   N12
 BYTE   W12
 BYTE   N06  Fn1
 BYTE   W06
 BYTE   N18  Gn1
 BYTE   W18
 BYTE   N12  Dn1
 BYTE   W12
 BYTE   Gn1
 BYTE   W12
 BYTE   N06  Fn1
 BYTE   W06
 BYTE   Gn1
 BYTE   W06
 BYTE   PEND 
// 034   ----------------------------------------
Label_2_014E1334:
 BYTE   N12  Gs1  v127
 BYTE   W12
 BYTE   N12
 BYTE   W12
 BYTE   N12
 BYTE   W12
 BYTE   N06  Gn1
 BYTE   W06
 BYTE   N18  Gs1
 BYTE   W18
 BYTE   N12  Ds1
 BYTE   W12
 BYTE   Gs1
 BYTE   W12
 BYTE   N06  Gn1
 BYTE   W06
 BYTE   Gs1
 BYTE   W06
 BYTE   PEND 
// 035   ----------------------------------------
Label_2_014E134D:
 BYTE   N24  As1  v127
 BYTE   W24
 BYTE   As2
 BYTE   W24
 BYTE   Fn2
 BYTE   W24
 BYTE   As1
 BYTE   W24
 BYTE   PEND 
// 036   ----------------------------------------
 BYTE   VOL   56*SonictheHedgehog3AngelIslandZoneAct2MeatOfJustice_mvl/mxv
 BYTE   W96
// 037   ----------------------------------------
 BYTE   W96
// 038   ----------------------------------------
 BYTE   W96
// 039   ----------------------------------------
 BYTE   W96
// 040   ----------------------------------------
 BYTE   W96
// 041   ----------------------------------------
 BYTE   W96
// 042   ----------------------------------------
 BYTE   W96
// 043   ----------------------------------------
 BYTE   PATT
  POIN2 Label_2_014E1209
// 044   ----------------------------------------
 BYTE   PATT
  POIN2 Label_2_014E1213
// 045   ----------------------------------------
 BYTE   PATT
  POIN2 Label_2_014E1209
// 046   ----------------------------------------
 BYTE   PATT
  POIN2 Label_2_014E1222
// 047   ----------------------------------------
 BYTE   PATT
  POIN2 Label_2_014E1209
// 048   ----------------------------------------
 BYTE   PATT
  POIN2 Label_2_014E1213
// 049   ----------------------------------------
 BYTE   PATT
  POIN2 Label_2_014E1209
// 050   ----------------------------------------
 BYTE   PATT
  POIN2 Label_2_014E1222
// 051   ----------------------------------------
 BYTE   PATT
  POIN2 Label_2_014E1240
// 052   ----------------------------------------
 BYTE   PATT
  POIN2 Label_2_014E124D
// 053   ----------------------------------------
 BYTE   PATT
  POIN2 Label_2_014E1261
// 054   ----------------------------------------
 BYTE   PATT
  POIN2 Label_2_014E124D
// 055   ----------------------------------------
 BYTE   PATT
  POIN2 Label_2_014E1261
// 056   ----------------------------------------
 BYTE   PATT
  POIN2 Label_2_014E124D
// 057   ----------------------------------------
 BYTE   PATT
  POIN2 Label_2_014E1261
// 058   ----------------------------------------
 BYTE   PATT
  POIN2 Label_2_014E124D
// 059   ----------------------------------------
 BYTE   PATT
  POIN2 Label_2_014E128E
// 060   ----------------------------------------
 BYTE   PATT
  POIN2 Label_2_014E12A2
// 061   ----------------------------------------
 BYTE   PATT
  POIN2 Label_2_014E12B7
// 062   ----------------------------------------
 BYTE   PATT
  POIN2 Label_2_014E12D0
// 063   ----------------------------------------
 BYTE   PATT
  POIN2 Label_2_014E12E9
// 064   ----------------------------------------
 BYTE   PATT
  POIN2 Label_2_014E12A2
// 065   ----------------------------------------
 BYTE   PATT
  POIN2 Label_2_014E12B7
// 066   ----------------------------------------
 BYTE   PATT
  POIN2 Label_2_014E12D0
// 067   ----------------------------------------
 BYTE   PATT
  POIN2 Label_2_014E12E9
// 068   ----------------------------------------
 BYTE   PATT
  POIN2 Label_2_014E12A2
// 069   ----------------------------------------
 BYTE   PATT
  POIN2 Label_2_014E131B
// 070   ----------------------------------------
 BYTE   PATT
  POIN2 Label_2_014E1334
// 071   ----------------------------------------
 BYTE   PATT
  POIN2 Label_2_014E134D
// 072   ----------------------------------------
 BYTE   GoTo
  POIN2 Label_2_014E11FE
// 073   ----------------------------------------
 BYTE   W96
// 074   ----------------------------------------
 BYTE   W96
// 075   ----------------------------------------
 BYTE   W96
// 076   ----------------------------------------
 BYTE   W96
// 077   ----------------------------------------
 BYTE   W96
// 078   ----------------------------------------
 BYTE   W96
// 079   ----------------------------------------
 BYTE   W96
 BYTE   FINE

//**************** Track 4 (Midi-Chn.3) ****************//

SonictheHedgehog3AngelIslandZoneAct2MeatOfJustice_004:
// 000   ----------------------------------------
 BYTE   KEYSH   SonictheHedgehog3AngelIslandZoneAct2MeatOfJustice_key+0
Label_3_014E1402:
 BYTE   VOICE   73
 BYTE   VOL   40*SonictheHedgehog3AngelIslandZoneAct2MeatOfJustice_mvl/mxv
 BYTE   W96
// 001   ----------------------------------------
 BYTE   W96
// 002   ----------------------------------------
 BYTE   W96
// 003   ----------------------------------------
 BYTE   W96
// 004   ----------------------------------------
 BYTE   W96
// 005   ----------------------------------------
 BYTE   W96
// 006   ----------------------------------------
 BYTE   W96
// 007   ----------------------------------------
 BYTE   W96
// 008   ----------------------------------------
 BYTE   W96
// 009   ----------------------------------------
 BYTE   W96
// 010   ----------------------------------------
 BYTE   W96
// 011   ----------------------------------------
 BYTE   W96
// 012   ----------------------------------------
 BYTE   W96
// 013   ----------------------------------------
 BYTE   W96
// 014   ----------------------------------------
 BYTE   W96
// 015   ----------------------------------------
Label_3_014E1415:
 BYTE   W84
 BYTE   N06  Ds4  v100
 BYTE   N06  Ds5
 BYTE   W06
 BYTE   Fn4
 BYTE   N06  Fn5
 BYTE   W06
 BYTE   PEND 
// 016   ----------------------------------------
Label_3_014E1421:
 BYTE   N06  Gn4  v100
 BYTE   N06  Gn5
 BYTE   W18
 BYTE   Cn4
 BYTE   N06  Cn5
 BYTE   W18
 BYTE   N24  As4
 BYTE   N24  As5
 BYTE   W24
 BYTE   N12  As4
 BYTE   N12  As5
 BYTE   W12
 BYTE   As4
 BYTE   N12  As5
 BYTE   W12
 BYTE   Gn4
 BYTE   N12  Gn5
 BYTE   W12
 BYTE   PEND 
// 017   ----------------------------------------
Label_3_014E143E:
 BYTE   N06  An4  v100
 BYTE   N06  An5
 BYTE   W18
 BYTE   Fn4
 BYTE   N06  Fn5
 BYTE   W18
 BYTE   N36  Cn4
 BYTE   N36  Cn5
 BYTE   W48
 BYTE   N06  Ds4
 BYTE   N06  Ds5
 BYTE   W06
 BYTE   Fn4
 BYTE   N06  Fn5
 BYTE   W06
 BYTE   PEND 
// 018   ----------------------------------------
Label_3_014E1457:
 BYTE   N06  Gn4  v100
 BYTE   N06  Gn5
 BYTE   W18
 BYTE   Cn4
 BYTE   N06  Cn5
 BYTE   W18
 BYTE   N24  As4
 BYTE   N24  As5
 BYTE   W24
 BYTE   N12  As4
 BYTE   N12  As5
 BYTE   W12
 BYTE   As4
 BYTE   N12  As5
 BYTE   W12
 BYTE   Cn5
 BYTE   N12  Cn6
 BYTE   W12
 BYTE   PEND 
// 019   ----------------------------------------
Label_3_014E1474:
 BYTE   N48  An4  v100
 BYTE   N48  An5
 BYTE   W84
 BYTE   N06  Ds4
 BYTE   N06  Ds5
 BYTE   W06
 BYTE   Fn4
 BYTE   N06  Fn5
 BYTE   W06
 BYTE   PEND 
// 020   ----------------------------------------
Label_3_014E1484:
 BYTE   N06  Gn4  v100
 BYTE   N06  Gn5
 BYTE   W18
 BYTE   Cn4
 BYTE   N06  Cn5
 BYTE   W18
 BYTE   N18  As4
 BYTE   N18  As5
 BYTE   W18
 BYTE   N06  As4
 BYTE   N06  As5
 BYTE   W06
 BYTE   N12  As4
 BYTE   N12  As5
 BYTE   W12
 BYTE   As4
 BYTE   N12  As5
 BYTE   W12
 BYTE   Gn4
 BYTE   N12  Gn5
 BYTE   W12
 BYTE   PEND 
// 021   ----------------------------------------
 BYTE   PATT
  POIN2 Label_3_014E143E
// 022   ----------------------------------------
 BYTE   PATT
  POIN2 Label_3_014E1457
// 023   ----------------------------------------
Label_3_014E14B0:
 BYTE   N18  An4  v100
 BYTE   N18  An5
 BYTE   W18
 BYTE   As4
 BYTE   N18  As5
 BYTE   W18
 BYTE   N36  Cn5
 BYTE   N36  Cn6
 BYTE   W60
 BYTE   PEND 
// 024   ----------------------------------------
Label_3_014E14C0:
 BYTE   N06  Ds5  v100
 BYTE   W06
 BYTE   Cn5
 BYTE   W06
 BYTE   Gs4
 BYTE   W06
 BYTE   Fn4
 BYTE   W06
 BYTE   Ds4
 BYTE   W06
 BYTE   Cn4
 BYTE   W06
 BYTE   Gs3
 BYTE   W06
 BYTE   Fn3
 BYTE   W06
 BYTE   Ds5
 BYTE   W06
 BYTE   Cn5
 BYTE   W06
 BYTE   Gs4
 BYTE   W06
 BYTE   Fn4
 BYTE   W06
 BYTE   Ds4
 BYTE   W06
 BYTE   Cn4
 BYTE   W06
 BYTE   Gs3
 BYTE   W06
 BYTE   Fn3
 BYTE   W06
 BYTE   PEND 
// 025   ----------------------------------------
Label_3_014E14E3:
 BYTE   N06  Dn5  v100
 BYTE   W06
 BYTE   Bn4
 BYTE   W06
 BYTE   Gn4
 BYTE   W06
 BYTE   Fn4
 BYTE   W06
 BYTE   Dn4
 BYTE   W06
 BYTE   Bn3
 BYTE   W06
 BYTE   Gn3
 BYTE   W06
 BYTE   Fn3
 BYTE   W06
 BYTE   Dn5
 BYTE   W06
 BYTE   Bn4
 BYTE   W06
 BYTE   Gn4
 BYTE   W06
 BYTE   Fn4
 BYTE   W06
 BYTE   Dn4
 BYTE   W06
 BYTE   Bn3
 BYTE   W06
 BYTE   Gn3
 BYTE   W06
 BYTE   Fn3
 BYTE   W06
 BYTE   PEND 
// 026   ----------------------------------------
Label_3_014E1506:
 BYTE   N06  Cn5  v100
 BYTE   W06
 BYTE   Gn4
 BYTE   W06
 BYTE   Ds4
 BYTE   W06
 BYTE   Cn4
 BYTE   W06
 BYTE   Gn3
 BYTE   W06
 BYTE   Cn4
 BYTE   W06
 BYTE   Ds4
 BYTE   W06
 BYTE   Gn4
 BYTE   W06
 BYTE   As4
 BYTE   W06
 BYTE   Fn4
 BYTE   W06
 BYTE   Dn4
 BYTE   W06
 BYTE   As3
 BYTE   W06
 BYTE   Fn3
 BYTE   W06
 BYTE   As3
 BYTE   W06
 BYTE   Dn4
 BYTE   W06
 BYTE   Fn4
 BYTE   W06
 BYTE   PEND 
// 027   ----------------------------------------
Label_3_014E1529:
 BYTE   N12  Ds4  v100
 BYTE   W12
 BYTE   Ds3
 BYTE   W12
 BYTE   Gn3
 BYTE   W12
 BYTE   Ds4
 BYTE   N12  Gn4
 BYTE   W12
 BYTE   N06  Dn4
 BYTE   N06  Fn4
 BYTE   W18
 BYTE   Cn4
 BYTE   N06  Ds4
 BYTE   W18
 BYTE   As3
 BYTE   N06  Dn4
 BYTE   W12
 BYTE   PEND 
// 028   ----------------------------------------
Label_3_014E1543:
 BYTE   N36  Gs3  v100
 BYTE   N30  Cn4
 BYTE   N06  Ds5  v127
 BYTE   W06
 BYTE   Cn5
 BYTE   W06
 BYTE   Gs4
 BYTE   W06
 BYTE   Fn4
 BYTE   W06
 BYTE   Ds4
 BYTE   W06
 BYTE   Cn4
 BYTE   W06
 BYTE   Gs3
 BYTE   W06
 BYTE   Fn3
 BYTE   W06
 BYTE   Ds5
 BYTE   W06
 BYTE   Cn5
 BYTE   W06
 BYTE   Gs4
 BYTE   W06
 BYTE   Fn4
 BYTE   W06
 BYTE   Ds4
 BYTE   W06
 BYTE   Cn4
 BYTE   W06
 BYTE   Gs3
 BYTE   W06
 BYTE   Fn3
 BYTE   W06
 BYTE   PEND 
// 029   ----------------------------------------
 BYTE   PATT
  POIN2 Label_3_014E14E3
// 030   ----------------------------------------
 BYTE   PATT
  POIN2 Label_3_014E1506
// 031   ----------------------------------------
Label_3_014E1575:
 BYTE   N12  Ds4  v100
 BYTE   W12
 BYTE   Ds3
 BYTE   W12
 BYTE   Gn3
 BYTE   W12
 BYTE   As3
 BYTE   N12  Dn4
 BYTE   W12
 BYTE   N06  Cn4
 BYTE   N06  Ds4
 BYTE   W18
 BYTE   Dn4
 BYTE   N06  Fn4
 BYTE   W18
 BYTE   Ds4
 BYTE   N06  Gn4
 BYTE   W12
 BYTE   PEND 
// 032   ----------------------------------------
Label_3_014E158F:
 BYTE   N18  Gs3  v100
 BYTE   N18  Cn4
 BYTE   N18  Ds4
 BYTE   N18  Fn4
 BYTE   W18
 BYTE   N06  Gs3
 BYTE   N06  Cn4
 BYTE   N06  Ds4
 BYTE   N06  Fn4
 BYTE   W78
 BYTE   PEND 
// 033   ----------------------------------------
Label_3_014E15A3:
 BYTE   N18  As3  v100
 BYTE   N18  Dn4
 BYTE   N18  Fn4
 BYTE   N18  Gn4
 BYTE   W18
 BYTE   N06  As3
 BYTE   N06  Dn4
 BYTE   N06  Fn4
 BYTE   N06  Gn4
 BYTE   W78
 BYTE   PEND 
// 034   ----------------------------------------
Label_3_014E15B7:
 BYTE   N24  Cn5  v100
 BYTE   W36
 BYTE   N06  Ds4
 BYTE   W06
 BYTE   Gs4
 BYTE   W06
 BYTE   N18  Cn5
 BYTE   W18
 BYTE   Dn5
 BYTE   W18
 BYTE   N12  Ds5
 BYTE   W12
 BYTE   PEND 
// 035   ----------------------------------------
Label_3_014E15C9:
 BYTE   N24  Ds5  v100
 BYTE   W24
 BYTE   Dn5
 BYTE   W24
 BYTE   Ds5
 BYTE   W24
 BYTE   Fn5
 BYTE   W24
 BYTE   PEND 
// 036   ----------------------------------------
 BYTE   VOL   40*SonictheHedgehog3AngelIslandZoneAct2MeatOfJustice_mvl/mxv
 BYTE   W96
// 037   ----------------------------------------
 BYTE   W96
// 038   ----------------------------------------
 BYTE   W96
// 039   ----------------------------------------
 BYTE   W96
// 040   ----------------------------------------
 BYTE   W96
// 041   ----------------------------------------
 BYTE   W96
// 042   ----------------------------------------
 BYTE   W96
// 043   ----------------------------------------
 BYTE   W96
// 044   ----------------------------------------
 BYTE   W96
// 045   ----------------------------------------
 BYTE   W96
// 046   ----------------------------------------
 BYTE   W96
// 047   ----------------------------------------
 BYTE   W96
// 048   ----------------------------------------
 BYTE   W96
// 049   ----------------------------------------
 BYTE   W96
// 050   ----------------------------------------
 BYTE   W96
// 051   ----------------------------------------
 BYTE   PATT
  POIN2 Label_3_014E1415
// 052   ----------------------------------------
 BYTE   PATT
  POIN2 Label_3_014E1421
// 053   ----------------------------------------
 BYTE   PATT
  POIN2 Label_3_014E143E
// 054   ----------------------------------------
 BYTE   PATT
  POIN2 Label_3_014E1457
// 055   ----------------------------------------
 BYTE   PATT
  POIN2 Label_3_014E1474
// 056   ----------------------------------------
 BYTE   PATT
  POIN2 Label_3_014E1484
// 057   ----------------------------------------
 BYTE   PATT
  POIN2 Label_3_014E143E
// 058   ----------------------------------------
 BYTE   PATT
  POIN2 Label_3_014E1457
// 059   ----------------------------------------
 BYTE   PATT
  POIN2 Label_3_014E14B0
// 060   ----------------------------------------
 BYTE   PATT
  POIN2 Label_3_014E14C0
// 061   ----------------------------------------
 BYTE   PATT
  POIN2 Label_3_014E14E3
// 062   ----------------------------------------
 BYTE   PATT
  POIN2 Label_3_014E1506
// 063   ----------------------------------------
 BYTE   PATT
  POIN2 Label_3_014E1529
// 064   ----------------------------------------
 BYTE   PATT
  POIN2 Label_3_014E1543
// 065   ----------------------------------------
 BYTE   PATT
  POIN2 Label_3_014E14E3
// 066   ----------------------------------------
 BYTE   PATT
  POIN2 Label_3_014E1506
// 067   ----------------------------------------
 BYTE   PATT
  POIN2 Label_3_014E1575
// 068   ----------------------------------------
 BYTE   PATT
  POIN2 Label_3_014E158F
// 069   ----------------------------------------
 BYTE   PATT
  POIN2 Label_3_014E15A3
// 070   ----------------------------------------
 BYTE   PATT
  POIN2 Label_3_014E15B7
// 071   ----------------------------------------
 BYTE   PATT
  POIN2 Label_3_014E15C9
// 072   ----------------------------------------
 BYTE   GoTo
  POIN2 Label_3_014E1402
// 073   ----------------------------------------
 BYTE   W96
// 074   ----------------------------------------
 BYTE   W96
// 075   ----------------------------------------
 BYTE   W96
// 076   ----------------------------------------
 BYTE   W96
// 077   ----------------------------------------
 BYTE   W96
// 078   ----------------------------------------
 BYTE   W96
// 079   ----------------------------------------
 BYTE   W96
 BYTE   FINE

//**************** Track 5 (Midi-Chn.4) ****************//

SonictheHedgehog3AngelIslandZoneAct2MeatOfJustice_005:
// 000   ----------------------------------------
 BYTE   KEYSH   SonictheHedgehog3AngelIslandZoneAct2MeatOfJustice_key+0
Label_4_014E165E:
 BYTE   VOICE   47
 BYTE   VOL   48*SonictheHedgehog3AngelIslandZoneAct2MeatOfJustice_mvl/mxv
 BYTE   N01  Bn0  v127
 BYTE   N01  En2
 BYTE   W12
 BYTE   Bn0
 BYTE   N01  Fs1
 BYTE   W12
 BYTE   N01
 BYTE   N03  En5  v068
 BYTE   W12
 BYTE   N01  Bn0  v127
 BYTE   N01  Fs1
 BYTE   W06
 BYTE   Bn0
 BYTE   N01  Fs1
 BYTE   W06
 BYTE   N01
 BYTE   W06
 BYTE   N02  En5  v068
 BYTE   W06
 BYTE   N01  Bn0  v127
 BYTE   N01  Fs1
 BYTE   W06
 BYTE   N01
 BYTE   W06
 BYTE   N03  En5  v068
 BYTE   W06
 BYTE   N01  Fs1  v127
 BYTE   W06
 BYTE   Bn0
 BYTE   N01  As1
 BYTE   W12
// 001   ----------------------------------------
Label_4_014E1695:
 BYTE   N01  Bn0  v127
 BYTE   N01  Fs1
 BYTE   W12
 BYTE   Bn0
 BYTE   N01  Fs1
 BYTE   W12
 BYTE   N01
 BYTE   N03  En5  v064
 BYTE   W12
 BYTE   N01  Bn0  v127
 BYTE   N01  Fs1
 BYTE   W06
 BYTE   Bn0
 BYTE   N01  Fs1
 BYTE   W06
 BYTE   N01
 BYTE   W06
 BYTE   N02  En5  v064
 BYTE   W06
 BYTE   N01  Bn0  v127
 BYTE   N01  Fs1
 BYTE   W06
 BYTE   N01
 BYTE   W06
 BYTE   N03  En5  v064
 BYTE   W06
 BYTE   N01  Fs1  v127
 BYTE   W06
 BYTE   Bn0
 BYTE   N01  As1
 BYTE   W12
 BYTE   PEND 
// 002   ----------------------------------------
 BYTE   PATT
  POIN2 Label_4_014E1695
// 003   ----------------------------------------
 BYTE   PATT
  POIN2 Label_4_014E1695
// 004   ----------------------------------------
 BYTE   PATT
  POIN2 Label_4_014E1695
// 005   ----------------------------------------
 BYTE   PATT
  POIN2 Label_4_014E1695
// 006   ----------------------------------------
 BYTE   PATT
  POIN2 Label_4_014E1695
// 007   ----------------------------------------
Label_4_014E16E2:
 BYTE   N02  En5  v064
 BYTE   W06
 BYTE   N01  Fs1  v127
 BYTE   W06
 BYTE   N01
 BYTE   W06
 BYTE   N02  En5  v064
 BYTE   W06
 BYTE   N01  Fs1  v127
 BYTE   W06
 BYTE   N01
 BYTE   W06
 BYTE   N03  En5  v064
 BYTE   W12
 BYTE   N01  Fs1  v127
 BYTE   W12
 BYTE   En5  v064
 BYTE   W12
 BYTE   N01
 BYTE   W12
 BYTE   N01
 BYTE   W06
 BYTE   N01
 BYTE   W06
 BYTE   PEND 
// 008   ----------------------------------------
Label_4_014E1708:
 BYTE   N01  Bn0  v127
 BYTE   N01  En2
 BYTE   W12
 BYTE   Bn0
 BYTE   N01  Fs1
 BYTE   W12
 BYTE   N01
 BYTE   N03  En5  v064
 BYTE   W12
 BYTE   N01  Bn0  v127
 BYTE   N01  Fs1
 BYTE   W06
 BYTE   Bn0
 BYTE   N01  Fs1
 BYTE   W06
 BYTE   N01
 BYTE   W06
 BYTE   N02  En5  v064
 BYTE   W06
 BYTE   N01  Bn0  v127
 BYTE   N01  Fs1
 BYTE   W06
 BYTE   N01
 BYTE   W06
 BYTE   N03  En5  v064
 BYTE   W06
 BYTE   N01  Fs1  v127
 BYTE   W06
 BYTE   Bn0
 BYTE   N01  As1
 BYTE   W12
 BYTE   PEND 
// 009   ----------------------------------------
 BYTE   PATT
  POIN2 Label_4_014E1695
// 010   ----------------------------------------
 BYTE   PATT
  POIN2 Label_4_014E1695
// 011   ----------------------------------------
Label_4_014E1746:
 BYTE   N01  Bn0  v127
 BYTE   N01  Fs1
 BYTE   W12
 BYTE   Bn0
 BYTE   N01  Fs1
 BYTE   W12
 BYTE   N01
 BYTE   N03  En5  v064
 BYTE   W12
 BYTE   N01  Bn0  v127
 BYTE   N01  Fs1
 BYTE   W06
 BYTE   Bn0
 BYTE   N01  Fs1
 BYTE   W06
 BYTE   N01
 BYTE   W06
 BYTE   En5  v064
 BYTE   W06
 BYTE   Bn0  v127
 BYTE   N01  Fs1
 BYTE   W06
 BYTE   N01
 BYTE   N01  En5  v064
 BYTE   W06
 BYTE   N03
 BYTE   W06
 BYTE   N01  Fs1  v127
 BYTE   W06
 BYTE   Bn0
 BYTE   N01  As1
 BYTE   W12
 BYTE   PEND 
// 012   ----------------------------------------
 BYTE   PATT
  POIN2 Label_4_014E1695
// 013   ----------------------------------------
 BYTE   PATT
  POIN2 Label_4_014E1695
// 014   ----------------------------------------
 BYTE   PATT
  POIN2 Label_4_014E1695
// 015   ----------------------------------------
Label_4_014E1788:
 BYTE   N03  Bn0  v127
 BYTE   N01  Fs1
 BYTE   W12
 BYTE   N01
 BYTE   W06
 BYTE   N01
 BYTE   W06
 BYTE   N03  Bn0
 BYTE   N01  Fs1
 BYTE   W12
 BYTE   N01
 BYTE   W06
 BYTE   N01
 BYTE   W06
 BYTE   N03  Bn0
 BYTE   N01  Fs1
 BYTE   W12
 BYTE   En5  v064
 BYTE   W06
 BYTE   N01
 BYTE   W06
 BYTE   Fs1  v127
 BYTE   W12
 BYTE   En5  v064
 BYTE   W06
 BYTE   N01
 BYTE   W06
 BYTE   PEND 
// 016   ----------------------------------------
 BYTE   PATT
  POIN2 Label_4_014E1708
// 017   ----------------------------------------
 BYTE   PATT
  POIN2 Label_4_014E1695
// 018   ----------------------------------------
 BYTE   PATT
  POIN2 Label_4_014E1695
// 019   ----------------------------------------
 BYTE   PATT
  POIN2 Label_4_014E1695
// 020   ----------------------------------------
 BYTE   PATT
  POIN2 Label_4_014E1695
// 021   ----------------------------------------
 BYTE   PATT
  POIN2 Label_4_014E1695
// 022   ----------------------------------------
 BYTE   PATT
  POIN2 Label_4_014E1695
// 023   ----------------------------------------
Label_4_014E17D1:
 BYTE   N01  Bn0  v127
 BYTE   N01  Fs1
 BYTE   W12
 BYTE   Bn0
 BYTE   N01  Fs1
 BYTE   W12
 BYTE   N01
 BYTE   N03  En5  v064
 BYTE   W12
 BYTE   N01  Bn0  v127
 BYTE   N01  Fs1
 BYTE   W06
 BYTE   Bn0
 BYTE   W06
 BYTE   Fs1
 BYTE   N01  En5  v064
 BYTE   W06
 BYTE   N01
 BYTE   W06
 BYTE   Bn0  v127
 BYTE   N01  Fs1
 BYTE   W06
 BYTE   Bn0
 BYTE   W06
 BYTE   Fs1
 BYTE   N01  En5  v064
 BYTE   W12
 BYTE   Fs1  v127
 BYTE   N01  En5  v064
 BYTE   W06
 BYTE   N01
 BYTE   W06
 BYTE   PEND 
// 024   ----------------------------------------
 BYTE   PATT
  POIN2 Label_4_014E1708
// 025   ----------------------------------------
 BYTE   PATT
  POIN2 Label_4_014E1695
// 026   ----------------------------------------
 BYTE   PATT
  POIN2 Label_4_014E1695
// 027   ----------------------------------------
 BYTE   PATT
  POIN2 Label_4_014E1695
// 028   ----------------------------------------
 BYTE   PATT
  POIN2 Label_4_014E1708
// 029   ----------------------------------------
 BYTE   PATT
  POIN2 Label_4_014E1695
// 030   ----------------------------------------
 BYTE   PATT
  POIN2 Label_4_014E1695
// 031   ----------------------------------------
Label_4_014E1827:
 BYTE   N01  Bn0  v127
 BYTE   N01  Fs1
 BYTE   W12
 BYTE   Bn0
 BYTE   N01  Fs1
 BYTE   W12
 BYTE   N01
 BYTE   N03  En5  v064
 BYTE   W12
 BYTE   N01  Bn0  v127
 BYTE   N01  Fs1
 BYTE   W06
 BYTE   Bn0
 BYTE   N01  Fs1
 BYTE   W06
 BYTE   N01
 BYTE   W06
 BYTE   En5  v064
 BYTE   W06
 BYTE   Bn0  v127
 BYTE   N01  Fs1
 BYTE   W06
 BYTE   En5  v064
 BYTE   W06
 BYTE   N01
 BYTE   W06
 BYTE   N02  Bn0  v127
 BYTE   W06
 BYTE   N01  En5  v064
 BYTE   W06
 BYTE   N01
 BYTE   W06
 BYTE   PEND 
// 032   ----------------------------------------
 BYTE   PATT
  POIN2 Label_4_014E1708
// 033   ----------------------------------------
 BYTE   PATT
  POIN2 Label_4_014E1695
// 034   ----------------------------------------
 BYTE   PATT
  POIN2 Label_4_014E1695
// 035   ----------------------------------------
Label_4_014E1869:
 BYTE   N03  Bn0  v127
 BYTE   N01  Fs1
 BYTE   W12
 BYTE   N01
 BYTE   W06
 BYTE   N01
 BYTE   W06
 BYTE   N03  Bn0
 BYTE   N01  Fs1
 BYTE   W12
 BYTE   N01
 BYTE   W06
 BYTE   N01
 BYTE   W06
 BYTE   N03  Bn0
 BYTE   N01  Fs1
 BYTE   W12
 BYTE   N01
 BYTE   W06
 BYTE   N01
 BYTE   W06
 BYTE   N03  Bn0
 BYTE   N01  Fs1
 BYTE   W12
 BYTE   En5  v064
 BYTE   W06
 BYTE   N01
 BYTE   W06
 BYTE   PEND 
// 036   ----------------------------------------
 BYTE   VOL   48*SonictheHedgehog3AngelIslandZoneAct2MeatOfJustice_mvl/mxv
 BYTE   N01  Bn0  v127
 BYTE   N01  En2
 BYTE   W12
 BYTE   Bn0
 BYTE   N01  Fs1
 BYTE   W12
 BYTE   N01
 BYTE   N03  En5  v068
 BYTE   W12
 BYTE   N01  Bn0  v127
 BYTE   N01  Fs1
 BYTE   W06
 BYTE   Bn0
 BYTE   N01  Fs1
 BYTE   W06
 BYTE   N01
 BYTE   W06
 BYTE   N02  En5  v068
 BYTE   W06
 BYTE   N01  Bn0  v127
 BYTE   N01  Fs1
 BYTE   W06
 BYTE   N01
 BYTE   W06
 BYTE   N03  En5  v068
 BYTE   W06
 BYTE   N01  Fs1  v127
 BYTE   W06
 BYTE   Bn0
 BYTE   N01  As1
 BYTE   W12
// 037   ----------------------------------------
 BYTE   PATT
  POIN2 Label_4_014E1695
// 038   ----------------------------------------
 BYTE   PATT
  POIN2 Label_4_014E1695
// 039   ----------------------------------------
 BYTE   PATT
  POIN2 Label_4_014E1695
// 040   ----------------------------------------
 BYTE   PATT
  POIN2 Label_4_014E1695
// 041   ----------------------------------------
 BYTE   PATT
  POIN2 Label_4_014E1695
// 042   ----------------------------------------
 BYTE   PATT
  POIN2 Label_4_014E1695
// 043   ----------------------------------------
 BYTE   PATT
  POIN2 Label_4_014E16E2
// 044   ----------------------------------------
 BYTE   PATT
  POIN2 Label_4_014E1708
// 045   ----------------------------------------
 BYTE   PATT
  POIN2 Label_4_014E1695
// 046   ----------------------------------------
 BYTE   PATT
  POIN2 Label_4_014E1695
// 047   ----------------------------------------
 BYTE   PATT
  POIN2 Label_4_014E1746
// 048   ----------------------------------------
 BYTE   PATT
  POIN2 Label_4_014E1695
// 049   ----------------------------------------
 BYTE   PATT
  POIN2 Label_4_014E1695
// 050   ----------------------------------------
 BYTE   PATT
  POIN2 Label_4_014E1695
// 051   ----------------------------------------
 BYTE   PATT
  POIN2 Label_4_014E1788
// 052   ----------------------------------------
 BYTE   PATT
  POIN2 Label_4_014E1708
// 053   ----------------------------------------
 BYTE   PATT
  POIN2 Label_4_014E1695
// 054   ----------------------------------------
 BYTE   PATT
  POIN2 Label_4_014E1695
// 055   ----------------------------------------
 BYTE   PATT
  POIN2 Label_4_014E1695
// 056   ----------------------------------------
 BYTE   PATT
  POIN2 Label_4_014E1695
// 057   ----------------------------------------
 BYTE   PATT
  POIN2 Label_4_014E1695
// 058   ----------------------------------------
 BYTE   PATT
  POIN2 Label_4_014E1695
// 059   ----------------------------------------
 BYTE   PATT
  POIN2 Label_4_014E17D1
// 060   ----------------------------------------
 BYTE   PATT
  POIN2 Label_4_014E1708
// 061   ----------------------------------------
 BYTE   PATT
  POIN2 Label_4_014E1695
// 062   ----------------------------------------
 BYTE   PATT
  POIN2 Label_4_014E1695
// 063   ----------------------------------------
 BYTE   PATT
  POIN2 Label_4_014E1695
// 064   ----------------------------------------
 BYTE   PATT
  POIN2 Label_4_014E1708
// 065   ----------------------------------------
 BYTE   PATT
  POIN2 Label_4_014E1695
// 066   ----------------------------------------
 BYTE   PATT
  POIN2 Label_4_014E1695
// 067   ----------------------------------------
 BYTE   PATT
  POIN2 Label_4_014E1827
// 068   ----------------------------------------
 BYTE   PATT
  POIN2 Label_4_014E1708
// 069   ----------------------------------------
 BYTE   PATT
  POIN2 Label_4_014E1695
// 070   ----------------------------------------
 BYTE   PATT
  POIN2 Label_4_014E1695
// 071   ----------------------------------------
 BYTE   PATT
  POIN2 Label_4_014E1869
// 072   ----------------------------------------
 BYTE   GoTo
  POIN2 Label_4_014E165E
// 073   ----------------------------------------
 BYTE   VOL   48*SonictheHedgehog3AngelIslandZoneAct2MeatOfJustice_mvl/mxv
 BYTE   N01  Bn0  v127
 BYTE   N01  En2
 BYTE   W12
 BYTE   Bn0
 BYTE   N01  Fs1
 BYTE   W12
 BYTE   N01
 BYTE   N03  En5  v068
 BYTE   W09
 BYTE   VOL   45*SonictheHedgehog3AngelIslandZoneAct2MeatOfJustice_mvl/mxv
 BYTE   W03
 BYTE   N01  Bn0  v127
 BYTE   N01  Fs1
 BYTE   W06
 BYTE   Bn0
 BYTE   N01  Fs1
 BYTE   W06
 BYTE   N01
 BYTE   W06
 BYTE   N02  En5  v068
 BYTE   W06
 BYTE   N01  Bn0  v127
 BYTE   N01  Fs1
 BYTE   W06
 BYTE   N01
 BYTE   W01
 BYTE   VOL   42*SonictheHedgehog3AngelIslandZoneAct2MeatOfJustice_mvl/mxv
 BYTE   W05
 BYTE   N03  En5  v068
 BYTE   W06
 BYTE   N01  Fs1  v127
 BYTE   W06
 BYTE   Bn0
 BYTE   N01  As1
 BYTE   W12
// 074   ----------------------------------------
 BYTE   Bn0
 BYTE   N01  Fs1
 BYTE   W04
 BYTE   VOL   39*SonictheHedgehog3AngelIslandZoneAct2MeatOfJustice_mvl/mxv
 BYTE   W08
 BYTE   N01  Bn0
 BYTE   N01  Fs1
 BYTE   W12
 BYTE   N01
 BYTE   N03  En5  v064
 BYTE   W12
 BYTE   N01  Bn0  v127
 BYTE   N01  Fs1
 BYTE   W02
 BYTE   VOL   36*SonictheHedgehog3AngelIslandZoneAct2MeatOfJustice_mvl/mxv
 BYTE   W04
 BYTE   N01  Bn0
 BYTE   N01  Fs1
 BYTE   W06
 BYTE   N01
 BYTE   W06
 BYTE   N02  En5  v064
 BYTE   W06
 BYTE   N01  Bn0  v127
 BYTE   N01  Fs1
 BYTE   W06
 BYTE   N01
 BYTE   W06
 BYTE   VOL   33*SonictheHedgehog3AngelIslandZoneAct2MeatOfJustice_mvl/mxv
 BYTE   N03  En5  v064
 BYTE   W06
 BYTE   N01  Fs1  v127
 BYTE   W06
 BYTE   Bn0
 BYTE   N01  As1
 BYTE   W12
// 075   ----------------------------------------
 BYTE   Bn0
 BYTE   N01  Fs1
 BYTE   W09
 BYTE   VOL   30*SonictheHedgehog3AngelIslandZoneAct2MeatOfJustice_mvl/mxv
 BYTE   W03
 BYTE   N01  Bn0
 BYTE   N01  Fs1
 BYTE   W12
 BYTE   N01
 BYTE   N03  En5  v064
 BYTE   W12
 BYTE   N01  Bn0  v127
 BYTE   N01  Fs1
 BYTE   W06
 BYTE   Bn0
 BYTE   N01  Fs1
 BYTE   W01
 BYTE   VOL   26*SonictheHedgehog3AngelIslandZoneAct2MeatOfJustice_mvl/mxv
 BYTE   W05
 BYTE   N01
 BYTE   W06
 BYTE   N02  En5  v064
 BYTE   W06
 BYTE   N01  Bn0  v127
 BYTE   N01  Fs1
 BYTE   W06
 BYTE   N01
 BYTE   W06
 BYTE   N03  En5  v064
 BYTE   W04
 BYTE   VOL   23*SonictheHedgehog3AngelIslandZoneAct2MeatOfJustice_mvl/mxv
 BYTE   W02
 BYTE   N01  Fs1  v127
 BYTE   W06
 BYTE   Bn0
 BYTE   N01  As1
 BYTE   W12
// 076   ----------------------------------------
 BYTE   Bn0
 BYTE   N01  Fs1
 BYTE   W12
 BYTE   Bn0
 BYTE   N01  Fs1
 BYTE   W02
 BYTE   VOL   20*SonictheHedgehog3AngelIslandZoneAct2MeatOfJustice_mvl/mxv
 BYTE   W10
 BYTE   N01
 BYTE   N03  En5  v064
 BYTE   W12
 BYTE   N01  Bn0  v127
 BYTE   N01  Fs1
 BYTE   W06
 BYTE   Bn0
 BYTE   N01  Fs1
 BYTE   W06
 BYTE   VOL   17*SonictheHedgehog3AngelIslandZoneAct2MeatOfJustice_mvl/mxv
 BYTE   N01
 BYTE   W06
 BYTE   N02  En5  v064
 BYTE   W06
 BYTE   N01  Bn0  v127
 BYTE   N01  Fs1
 BYTE   W06
 BYTE   N01
 BYTE   W06
 BYTE   N03  En5  v064
 BYTE   W06
 BYTE   N01  Fs1  v127
 BYTE   W03
 BYTE   VOL   14*SonictheHedgehog3AngelIslandZoneAct2MeatOfJustice_mvl/mxv
 BYTE   W03
 BYTE   N01  Bn0
 BYTE   N01  As1
 BYTE   W12
// 077   ----------------------------------------
 BYTE   Bn0
 BYTE   N01  Fs1
 BYTE   W12
 BYTE   Bn0
 BYTE   N01  Fs1
 BYTE   W07
 BYTE   VOL   11*SonictheHedgehog3AngelIslandZoneAct2MeatOfJustice_mvl/mxv
 BYTE   W05
 BYTE   N01
 BYTE   N03  En5  v064
 BYTE   W12
 BYTE   N01  Bn0  v127
 BYTE   N01  Fs1
 BYTE   W06
 BYTE   Bn0
 BYTE   N01  Fs1
 BYTE   W06
 BYTE   N01
 BYTE   W04
 BYTE   VOL   8*SonictheHedgehog3AngelIslandZoneAct2MeatOfJustice_mvl/mxv
 BYTE   W02
 BYTE   N02  En5  v064
 BYTE   W06
 BYTE   N01  Bn0  v127
 BYTE   N01  Fs1
 BYTE   W06
 BYTE   N01
 BYTE   W06
 BYTE   N03  En5  v064
 BYTE   W06
 BYTE   N01  Fs1  v127
 BYTE   W06
 BYTE   Bn0
 BYTE   N01  As1
 BYTE   W02
 BYTE   VOL   4*SonictheHedgehog3AngelIslandZoneAct2MeatOfJustice_mvl/mxv
 BYTE   W10
// 078   ----------------------------------------
 BYTE   N01  Bn0
 BYTE   N01  Fs1
 BYTE   W12
 BYTE   Bn0
 BYTE   N01  Fs1
 BYTE   W12
 BYTE   VOL   1*SonictheHedgehog3AngelIslandZoneAct2MeatOfJustice_mvl/mxv
 BYTE   N01
 BYTE   N03  En5  v064
 BYTE   W12
 BYTE   N01  Bn0  v127
 BYTE   N01  Fs1
 BYTE   W06
 BYTE   Bn0
 BYTE   N01  Fs1
 BYTE   W06
 BYTE   N01
 BYTE   W06
 BYTE   N02  En5  v064
 BYTE   W03
 BYTE   VOL   0*SonictheHedgehog3AngelIslandZoneAct2MeatOfJustice_mvl/mxv
 BYTE   W03
 BYTE   N01  Bn0  v127
 BYTE   N01  Fs1
 BYTE   W06
 BYTE   N01
 BYTE   W06
 BYTE   N03  En5  v064
 BYTE   W06
 BYTE   N01  Fs1  v127
 BYTE   W06
 BYTE   Bn0
 BYTE   N01  As1
 BYTE   W07
 BYTE   VOL   0*SonictheHedgehog3AngelIslandZoneAct2MeatOfJustice_mvl/mxv
 BYTE   W05
// 079   ----------------------------------------
 BYTE   N01  Bn0
 BYTE   N01  Fs1
 BYTE   W12
 BYTE   Bn0
 BYTE   N01  Fs1
 BYTE   W12
 BYTE   N01
 BYTE   N03  En5  v064
 BYTE   W04
 BYTE   VOL   0*SonictheHedgehog3AngelIslandZoneAct2MeatOfJustice_mvl/mxv
 BYTE   W08
 BYTE   N01  Bn0  v127
 BYTE   N01  Fs1
 BYTE   W06
 BYTE   Bn0
 BYTE   N01  Fs1
 BYTE   W06
 BYTE   N01
 BYTE   W06
 BYTE   N02  En5  v064
 BYTE   W06
 BYTE   N01  Bn0  v127
 BYTE   N01  Fs1
 BYTE   W02
 BYTE   VOL   0*SonictheHedgehog3AngelIslandZoneAct2MeatOfJustice_mvl/mxv
 BYTE   W04
 BYTE   N01
 BYTE   W06
 BYTE   N03  En5  v064
 BYTE   W06
 BYTE   N01  Fs1  v127
 BYTE   W06
 BYTE   Bn0
 BYTE   N01  As1
 BYTE   W12
 BYTE   FINE

//**************** Track 6 (Midi-Chn.5) ****************//

SonictheHedgehog3AngelIslandZoneAct2MeatOfJustice_006:
// 000   ----------------------------------------
 BYTE   KEYSH   SonictheHedgehog3AngelIslandZoneAct2MeatOfJustice_key+0
Label_5_014DEFD6:
 BYTE   VOICE   30
 BYTE   VOL   64*SonictheHedgehog3AngelIslandZoneAct2MeatOfJustice_mvl/mxv
 BYTE   W96
// 001   ----------------------------------------
 BYTE   W96
// 002   ----------------------------------------
 BYTE   W96
// 003   ----------------------------------------
 BYTE   W96
// 004   ----------------------------------------
 BYTE   W96
// 005   ----------------------------------------
 BYTE   W96
// 006   ----------------------------------------
 BYTE   W96
// 007   ----------------------------------------
 BYTE   W96
// 008   ----------------------------------------
 BYTE   W96
// 009   ----------------------------------------
 BYTE   W96
// 010   ----------------------------------------
 BYTE   W96
// 011   ----------------------------------------
 BYTE   W96
// 012   ----------------------------------------
 BYTE   W96
// 013   ----------------------------------------
 BYTE   W96
// 014   ----------------------------------------
 BYTE   W96
// 015   ----------------------------------------
 BYTE   W96
// 016   ----------------------------------------
 BYTE   W96
// 017   ----------------------------------------
 BYTE   W96
// 018   ----------------------------------------
 BYTE   W96
// 019   ----------------------------------------
 BYTE   W96
// 020   ----------------------------------------
 BYTE   W96
// 021   ----------------------------------------
 BYTE   W96
// 022   ----------------------------------------
 BYTE   W96
// 023   ----------------------------------------
Label_5_014DEFF1:
 BYTE   W54
 BYTE   N06  Gn3  v127
 BYTE   W06
 BYTE   As3
 BYTE   W06
 BYTE   Cn4
 BYTE   W06
 BYTE   Ds4
 BYTE   N06  Gn4
 BYTE   W06
 BYTE   Dn4
 BYTE   N06  Fn4
 BYTE   W06
 BYTE   As3
 BYTE   N06  Dn4
 BYTE   W06
 BYTE   Cn4
 BYTE   N06  Ds4
 BYTE   W06
 BYTE   PEND 
// 024   ----------------------------------------
Label_5_014DF00B:
 BYTE   W12
 BYTE   N12  Gs3  v127
 BYTE   W12
 BYTE   Cn4
 BYTE   W12
 BYTE   Gn4
 BYTE   W12
 BYTE   N06  Fn4
 BYTE   W18
 BYTE   Ds4
 BYTE   W18
 BYTE   Dn4
 BYTE   W12
 BYTE   PEND 
// 025   ----------------------------------------
Label_5_014DF01C:
 BYTE   N36  Bn3  v127
 BYTE   W36
 BYTE   N06  Dn3
 BYTE   W06
 BYTE   Gn3
 BYTE   W06
 BYTE   Bn3
 BYTE   W18
 BYTE   Cn4
 BYTE   W18
 BYTE   Dn4
 BYTE   W12
 BYTE   PEND 
// 026   ----------------------------------------
Label_5_014DF02C:
 BYTE   N48  Ds4  v127
 BYTE   W48
 BYTE   Dn4
 BYTE   W48
 BYTE   PEND 
// 027   ----------------------------------------
Label_5_014DF033:
 BYTE   N48  Cn4  v127
 BYTE   W48
 BYTE   Gn3
 BYTE   W48
 BYTE   PEND 
// 028   ----------------------------------------
 BYTE   PATT
  POIN2 Label_5_014DF00B
// 029   ----------------------------------------
 BYTE   PATT
  POIN2 Label_5_014DF01C
// 030   ----------------------------------------
Label_5_014DF044:
 BYTE   N36  Ds4  v127
 BYTE   W36
 BYTE   N06  Dn4
 BYTE   W06
 BYTE   Ds4
 BYTE   W06
 BYTE   N24  Fn4
 BYTE   W24
 BYTE   Cn4
 BYTE   W24
 BYTE   PEND 
// 031   ----------------------------------------
 BYTE   N96  Gn4
 BYTE   W96
// 032   ----------------------------------------
Label_5_014DF056:
 BYTE   W36
 BYTE   N06  Cn3  v127
 BYTE   W06
 BYTE   Fn3
 BYTE   W06
 BYTE   N06
 BYTE   N06  Gs3
 BYTE   W18
 BYTE   Gn3
 BYTE   N06  As3
 BYTE   W18
 BYTE   Gs3
 BYTE   N06  Cn4
 BYTE   W12
 BYTE   PEND 
// 033   ----------------------------------------
Label_5_014DF06A:
 BYTE   N24  As2  v127
 BYTE   N24  Dn3
 BYTE   W36
 BYTE   N06
 BYTE   W06
 BYTE   Gn3
 BYTE   W06
 BYTE   Dn3
 BYTE   N06  As3
 BYTE   W18
 BYTE   Ds3
 BYTE   N06  Cn4
 BYTE   W18
 BYTE   Fn3
 BYTE   N06  Dn4
 BYTE   W12
 BYTE   PEND 
// 034   ----------------------------------------
Label_5_014DF081:
 BYTE   N24  Ds3  v127
 BYTE   N24  Cn4
 BYTE   W36
 BYTE   N06  Ds3
 BYTE   W06
 BYTE   Gs3
 BYTE   W06
 BYTE   N18
 BYTE   N18  Cn4
 BYTE   W18
 BYTE   As3
 BYTE   N18  Dn4
 BYTE   W18
 BYTE   N12  Cn4
 BYTE   N12  Ds4
 BYTE   W12
 BYTE   PEND 
// 035   ----------------------------------------
Label_5_014DF09A:
 BYTE   N24  Ds4  v127
 BYTE   N24  Gn4
 BYTE   W24
 BYTE   Dn4
 BYTE   N24  Fn4
 BYTE   W24
 BYTE   Cn4
 BYTE   N24  Ds4
 BYTE   W24
 BYTE   Dn4
 BYTE   N24  Fn4
 BYTE   W24
 BYTE   PEND 
// 036   ----------------------------------------
 BYTE   VOL   64*SonictheHedgehog3AngelIslandZoneAct2MeatOfJustice_mvl/mxv
 BYTE   W96
// 037   ----------------------------------------
 BYTE   W96
// 038   ----------------------------------------
 BYTE   W96
// 039   ----------------------------------------
 BYTE   W96
// 040   ----------------------------------------
 BYTE   W96
// 041   ----------------------------------------
 BYTE   W96
// 042   ----------------------------------------
 BYTE   W96
// 043   ----------------------------------------
 BYTE   W96
// 044   ----------------------------------------
 BYTE   W96
// 045   ----------------------------------------
 BYTE   W96
// 046   ----------------------------------------
 BYTE   W96
// 047   ----------------------------------------
 BYTE   W96
// 048   ----------------------------------------
 BYTE   W96
// 049   ----------------------------------------
 BYTE   W96
// 050   ----------------------------------------
 BYTE   W96
// 051   ----------------------------------------
 BYTE   W96
// 052   ----------------------------------------
 BYTE   W96
// 053   ----------------------------------------
 BYTE   W96
// 054   ----------------------------------------
 BYTE   W96
// 055   ----------------------------------------
 BYTE   W96
// 056   ----------------------------------------
 BYTE   W96
// 057   ----------------------------------------
 BYTE   W96
// 058   ----------------------------------------
 BYTE   W96
// 059   ----------------------------------------
 BYTE   PATT
  POIN2 Label_5_014DEFF1
// 060   ----------------------------------------
 BYTE   PATT
  POIN2 Label_5_014DF00B
// 061   ----------------------------------------
 BYTE   PATT
  POIN2 Label_5_014DF01C
// 062   ----------------------------------------
 BYTE   PATT
  POIN2 Label_5_014DF02C
// 063   ----------------------------------------
 BYTE   PATT
  POIN2 Label_5_014DF033
// 064   ----------------------------------------
 BYTE   PATT
  POIN2 Label_5_014DF00B
// 065   ----------------------------------------
 BYTE   PATT
  POIN2 Label_5_014DF01C
// 066   ----------------------------------------
 BYTE   PATT
  POIN2 Label_5_014DF044
// 067   ----------------------------------------
 BYTE   N96  Gn4  v127
 BYTE   W96
// 068   ----------------------------------------
 BYTE   PATT
  POIN2 Label_5_014DF056
// 069   ----------------------------------------
 BYTE   PATT
  POIN2 Label_5_014DF06A
// 070   ----------------------------------------
 BYTE   PATT
  POIN2 Label_5_014DF081
// 071   ----------------------------------------
 BYTE   PATT
  POIN2 Label_5_014DF09A
// 072   ----------------------------------------
 BYTE   GoTo
  POIN2 Label_5_014DEFD6
// 073   ----------------------------------------
 BYTE   W96
// 074   ----------------------------------------
 BYTE   W96
// 075   ----------------------------------------
 BYTE   W96
// 076   ----------------------------------------
 BYTE   W96
// 077   ----------------------------------------
 BYTE   W96
// 078   ----------------------------------------
 BYTE   W96
// 079   ----------------------------------------
 BYTE   W96
 BYTE   FINE

//******************************************************//
	ALIGN 4

SonictheHedgehog3AngelIslandZoneAct2MeatOfJustice:
	BYTE	6	// NumTrks
	BYTE	0	// NumBlks
	BYTE	SonictheHedgehog3AngelIslandZoneAct2MeatOfJustice_pri	// Priority
	BYTE	SonictheHedgehog3AngelIslandZoneAct2MeatOfJustice_rev	// Reverb.
    
	POIN2	SonictheHedgehog3AngelIslandZoneAct2MeatOfJustice_grp
    
	POIN2	SonictheHedgehog3AngelIslandZoneAct2MeatOfJustice_001
	POIN2	SonictheHedgehog3AngelIslandZoneAct2MeatOfJustice_002
	POIN2	SonictheHedgehog3AngelIslandZoneAct2MeatOfJustice_003
	POIN2	SonictheHedgehog3AngelIslandZoneAct2MeatOfJustice_004
	POIN2	SonictheHedgehog3AngelIslandZoneAct2MeatOfJustice_005
	POIN2	SonictheHedgehog3AngelIslandZoneAct2MeatOfJustice_006

	
