//Event file generated from Sappy .s format.
	#include "MPlayDef.event"

	#define	SonicRRadicalCityTak_grp  voicegroup000
	#define	SonicRRadicalCityTak_pri  0
	#define	SonicRRadicalCityTak_rev  0
	#define	SonicRRadicalCityTak_mvl  127
	#define	SonicRRadicalCityTak_key  0
	#define	SonicRRadicalCityTak_tbs  1
	#define	SonicRRadicalCityTak_exg  0
	#define	SonicRRadicalCityTak_cmp  1

	// .rodata
	//	SonicRRadicalCityTak
	ALIGN 4


//**************** Track 1 (Midi-Chn.0) ****************//

SonicRRadicalCityTak_001:
//  #01 //000   ----------------------------------------
 BYTE   KEYSH   SonicRRadicalCityTak_key+0
 BYTE   VOICE   4
 BYTE   VOL   50*SonicRRadicalCityTak_mvl/mxv
 BYTE   PAN   c_v-26
 BYTE   BENDR  12
 BYTE   W24
 BYTE   N90  As2  v074
 BYTE   N90  Cs3
 BYTE   W72
//  #01 //001   ----------------------------------------
 BYTE   W24
 BYTE   N32  Ds3
 BYTE   N32  Cn3
 BYTE   N32  Gs2
 BYTE   W36
 BYTE   N54  Fn3
 BYTE   N54  Cs3
 BYTE   N54  As2
 BYTE   W36
//  #01 //002   ----------------------------------------
Label_0102694C:
 BYTE   W24
 BYTE   N90  As2  v074
 BYTE   N90  Cs3
 BYTE   W72
 BYTE   PEND 
//  #01 //003   ----------------------------------------
 BYTE   W24
 BYTE   N32  Ds3
 BYTE   N32  Cn3
 BYTE   N32  Gs2
 BYTE   W36
 BYTE   N54  As2
 BYTE   N54  Cs3
 BYTE   N54  Fn3
 BYTE   W36
//  #01 //004   ----------------------------------------
 BYTE   W24
 BYTE   N90  Cs3
 BYTE   N90  As2
 BYTE   W72
//  #01 //005   ----------------------------------------
 BYTE   W24
 BYTE   N32  Gs2
 BYTE   N32  Cn3
 BYTE   N32  Ds3
 BYTE   W36
 BYTE   N54  Fn3
 BYTE   N54  Cs3
 BYTE   N54  As2
 BYTE   W36
//  #01 //006   ----------------------------------------
 BYTE   PATT
  POIN2 Label_0102694C
//  #01 //007   ----------------------------------------
 BYTE   W24
 BYTE   N32  Cs3  v074
 BYTE   N32  As2
 BYTE   W36
 BYTE   N54  Gs2
 BYTE   N54  Cn3
 BYTE   N54  Ds3
 BYTE   W36
//  #01 //008   ----------------------------------------
 BYTE   W96
//  #01 //009   ----------------------------------------
 BYTE   W96
//  #01 //010   ----------------------------------------
Label_0102698D:
 BYTE   W96
//  #01 //011   ----------------------------------------
 BYTE   W96
//  #01 //012   ----------------------------------------
 BYTE   W96
//  #01 //013   ----------------------------------------
 BYTE   W96
//  #01 //014   ----------------------------------------
 BYTE   W96
//  #01 //015   ----------------------------------------
 BYTE   W96
//  #01 //016   ----------------------------------------
 BYTE   W96
//  #01 //017   ----------------------------------------
Label_01026994:
 BYTE   W24
 BYTE   N20  Cs3  v074
 BYTE   N20  As2
 BYTE   W24
 BYTE   N17  Cs3
 BYTE   N17  As2
 BYTE   W18
 BYTE   As2
 BYTE   N17  Cs3
 BYTE   W18
 BYTE   Cs3
 BYTE   N17  As2
 BYTE   W12
 BYTE   PEND 
//  #01 //018   ----------------------------------------
Label_010269A9:
 BYTE   W06
 BYTE   N17  Cs3  v074
 BYTE   N17  As2
 BYTE   W18
 BYTE   Ds3
 BYTE   N17  Cn3
 BYTE   N17  Gs2
 BYTE   W18
 BYTE   Gs2
 BYTE   N17  Cn3
 BYTE   N17  Ds3
 BYTE   W18
 BYTE   Fn3
 BYTE   N17  Cs3
 BYTE   N17  As2
 BYTE   W18
 BYTE   As2
 BYTE   N17  Cs3
 BYTE   N17  Fn3
 BYTE   W18
 BYTE   PEND 
//  #01 //019   ----------------------------------------
Label_010269C9:
 BYTE   N11  Fn3  v074
 BYTE   N11  Cs3
 BYTE   N11  As2
 BYTE   W12
 BYTE   Fn3
 BYTE   N11  Cs3
 BYTE   N11  As2
 BYTE   W12
 BYTE   N20  Cs3
 BYTE   N20  As2
 BYTE   W24
 BYTE   N17  Cs3
 BYTE   N17  As2
 BYTE   W18
 BYTE   As2
 BYTE   N17  Cs3
 BYTE   W18
 BYTE   Cs3
 BYTE   N17  As2
 BYTE   W12
 BYTE   PEND 
//  #01 //020   ----------------------------------------
 BYTE   PATT
  POIN2 Label_010269A9
//  #01 //021   ----------------------------------------
 BYTE   PATT
  POIN2 Label_010269C9
//  #01 //022   ----------------------------------------
 BYTE   PATT
  POIN2 Label_010269A9
//  #01 //023   ----------------------------------------
 BYTE   PATT
  POIN2 Label_010269C9
//  #01 //024   ----------------------------------------
Label_010269FE:
 BYTE   W06
 BYTE   N17  Cs3  v074
 BYTE   N17  As2
 BYTE   W18
 BYTE   Cs3
 BYTE   N17  As2
 BYTE   W18
 BYTE   As2
 BYTE   N17  Cs3
 BYTE   W18
 BYTE   Ds3
 BYTE   N17  Cn3
 BYTE   N17  Gs2
 BYTE   W18
 BYTE   Gs2
 BYTE   N17  Cn3
 BYTE   N17  Ds3
 BYTE   W18
 BYTE   PEND 
//  #01 //025   ----------------------------------------
 BYTE   N11
 BYTE   N11  Cn3
 BYTE   N11  Gs2
 BYTE   W12
 BYTE   Ds3
 BYTE   N11  Cn3
 BYTE   N11  Gs2
 BYTE   W12
 BYTE   N90  Fn3
 BYTE   N90  Dn3
 BYTE   N90  An2
 BYTE   W72
//  #01 //026   ----------------------------------------
Label_01026A2D:
 BYTE   W24
 BYTE   N90  Fn3  v074
 BYTE   N90  Dn3
 BYTE   N90  An2
 BYTE   W72
 BYTE   PEND 
//  #01 //027   ----------------------------------------
Label_01026A37:
 BYTE   W24
 BYTE   N80  Fn3  v074  gtp3
 BYTE   Cs3
 BYTE   N80  Gs2  v074  gtp3
 BYTE   W72
 BYTE   PEND 
//  #01 //028   ----------------------------------------
Label_01026A43:
 BYTE   W12
 BYTE   N17  Ds3  v074
 BYTE   N17  As2
 BYTE   N17  Gs2
 BYTE   W24
 BYTE   N04  Cn3
 BYTE   N04  As2
 BYTE   W12
 BYTE   N66  Ds3
 BYTE   N66  As2
 BYTE   N66  Gs2
 BYTE   W48
 BYTE   PEND 
//  #01 //029   ----------------------------------------
 BYTE   PATT
  POIN2 Label_01026A2D
//  #01 //030   ----------------------------------------
 BYTE   PATT
  POIN2 Label_01026A2D
//  #01 //031   ----------------------------------------
 BYTE   PATT
  POIN2 Label_01026A37
//  #01 //032   ----------------------------------------
 BYTE   PATT
  POIN2 Label_01026A43
//  #01 //033   ----------------------------------------
Label_01026A6D:
 BYTE   W24
 BYTE   N90  As2  v074
 BYTE   N90  Gn2
 BYTE   N90  Ds2
 BYTE   W72
 BYTE   PEND 
//  #01 //034   ----------------------------------------
Label_01026A77:
 BYTE   W24
 BYTE   N32  Cn3  v074
 BYTE   N32  An2
 BYTE   N32  Cn2
 BYTE   W36
 BYTE   N54  Dn3
 BYTE   N54  As2
 BYTE   N54  Gn2
 BYTE   N54  Dn2
 BYTE   W36
 BYTE   PEND 
//  #01 //035   ----------------------------------------
 BYTE   PATT
  POIN2 Label_01026A6D
//  #01 //036   ----------------------------------------
 BYTE   PATT
  POIN2 Label_01026A77
//  #01 //037   ----------------------------------------
 BYTE   PATT
  POIN2 Label_01026A6D
//  #01 //038   ----------------------------------------
 BYTE   PATT
  POIN2 Label_01026A77
//  #01 //039   ----------------------------------------
 BYTE   W24
 BYTE   N90  Ds3  v074
 BYTE   N90  As2
 BYTE   N90  Gs2
 BYTE   N90  Ds2
 BYTE   W72
//  #01 //040   ----------------------------------------
 BYTE   W24
 BYTE   N32  Ds3
 BYTE   N32  As2
 BYTE   N32  Gs2
 BYTE   N32  Ds2
 BYTE   W36
 BYTE   N54  Ds3
 BYTE   N54  As2
 BYTE   N54  Gs2
 BYTE   N54  Ds2
 BYTE   W36
//  #01 //041   ----------------------------------------
 BYTE   PATT
  POIN2 Label_01026994
//  #01 //042   ----------------------------------------
 BYTE   PATT
  POIN2 Label_010269A9
//  #01 //043   ----------------------------------------
 BYTE   PATT
  POIN2 Label_010269C9
//  #01 //044   ----------------------------------------
 BYTE   PATT
  POIN2 Label_010269A9
//  #01 //045   ----------------------------------------
 BYTE   PATT
  POIN2 Label_010269C9
//  #01 //046   ----------------------------------------
 BYTE   PATT
  POIN2 Label_010269A9
//  #01 //047   ----------------------------------------
 BYTE   PATT
  POIN2 Label_010269C9
//  #01 //048   ----------------------------------------
 BYTE   PATT
  POIN2 Label_010269FE
//  #01 //049   ----------------------------------------
 BYTE   N11  Gs2  v074
 BYTE   N11  Cn3
 BYTE   N11  Ds3
 BYTE   W12
 BYTE   Gs2
 BYTE   N11  Cn3
 BYTE   N11  Ds3
 BYTE   W12
 BYTE   N20  As2
 BYTE   N20  Cs3
 BYTE   W24
 BYTE   N17  As2
 BYTE   N17  Cs3
 BYTE   W18
 BYTE   Cs3
 BYTE   N17  As2
 BYTE   W18
 BYTE   As2
 BYTE   N17  Cs3
 BYTE   W12
//  #01 //050   ----------------------------------------
 BYTE   PATT
  POIN2 Label_010269A9
//  #01 //051   ----------------------------------------
 BYTE   PATT
  POIN2 Label_010269C9
//  #01 //052   ----------------------------------------
 BYTE   W06
 BYTE   N17  As2  v074
 BYTE   N17  Cs3
 BYTE   W18
 BYTE   Gs2
 BYTE   N17  Cn3
 BYTE   N17  Ds3
 BYTE   W18
 BYTE   Ds3
 BYTE   N17  Cn3
 BYTE   N17  Gs2
 BYTE   W18
 BYTE   As2
 BYTE   N17  Cs3
 BYTE   N17  Fn3
 BYTE   W18
 BYTE   Fn3
 BYTE   N17  Cs3
 BYTE   N17  As2
 BYTE   W18
//  #01 //053   ----------------------------------------
 BYTE   N11
 BYTE   N11  Cs3
 BYTE   N11  Fn3
 BYTE   W12
 BYTE   As2
 BYTE   N11  Cs3
 BYTE   N11  Fn3
 BYTE   W12
 BYTE   N20  As2
 BYTE   N20  Cs3
 BYTE   W24
 BYTE   N17  As2
 BYTE   N17  Cs3
 BYTE   W18
 BYTE   Cs3
 BYTE   N17  As2
 BYTE   W18
 BYTE   As2
 BYTE   N17  Cs3
 BYTE   W12
//  #01 //054   ----------------------------------------
 BYTE   PATT
  POIN2 Label_010269A9
//  #01 //055   ----------------------------------------
 BYTE   PATT
  POIN2 Label_010269C9
//  #01 //056   ----------------------------------------
 BYTE   W06
 BYTE   N17  As2  v074
 BYTE   N17  Cs3
 BYTE   W18
 BYTE   As2
 BYTE   N17  Cs3
 BYTE   W18
 BYTE   Cs3
 BYTE   N17  As2
 BYTE   W18
 BYTE   Ds3
 BYTE   N17  Cn3
 BYTE   N17  Gs2
 BYTE   W18
 BYTE   Gs2
 BYTE   N17  Cn3
 BYTE   N17  Ds3
 BYTE   W18
//  #01 //057   ----------------------------------------
 BYTE   N11  Gs2
 BYTE   N11  Cn3
 BYTE   N11  Ds3
 BYTE   W12
 BYTE   Gs2
 BYTE   N11  Cn3
 BYTE   N11  Ds3
 BYTE   W12
 BYTE   N90  An2
 BYTE   N90  Dn3
 BYTE   W72
//  #01 //058   ----------------------------------------
Label_01026B82:
 BYTE   W24
 BYTE   N90  Bn2  v074
 BYTE   N90  Cs3
 BYTE   N90  Fs3
 BYTE   W72
 BYTE   PEND 
//  #01 //059   ----------------------------------------
 BYTE   W24
 BYTE   Dn3
 BYTE   N90  An2
 BYTE   W72
//  #01 //060   ----------------------------------------
 BYTE   PATT
  POIN2 Label_01026B82
//  #01 //061   ----------------------------------------
 BYTE   W24
 BYTE   N90  As2  v074
 BYTE   N90  Dn3
 BYTE   W72
//  #01 //062   ----------------------------------------
 BYTE   W24
 BYTE   Gn2
 BYTE   N90  Cn3
 BYTE   N90  Dn3
 BYTE   W72
//  #01 //063   ----------------------------------------
 BYTE   W24
 BYTE   En3
 BYTE   N90  Cs3
 BYTE   N90  An2
 BYTE   W72
//  #01 //064   ----------------------------------------
 BYTE   W24
 BYTE   Gs3
 BYTE   N90  Fs3
 BYTE   N90  Bn2
 BYTE   W72
//  #01 //065   ----------------------------------------
 BYTE   W24
 BYTE   N20  As2
 BYTE   N20  Cs3
 BYTE   W24
 BYTE   N17  As2
 BYTE   N17  Cs3
 BYTE   W18
 BYTE   As2
 BYTE   N17  Cs3
 BYTE   W18
 BYTE   Cs3
 BYTE   N17  As2
 BYTE   W12
//  #01 //066   ----------------------------------------
 BYTE   GoTo
  POIN2 Label_0102698D
//  #01 //067   ----------------------------------------
 BYTE   W06
 BYTE   N01  Cs3
 BYTE   N01  As2
 BYTE   W05
 BYTE   FINE

//**************** Track 2 (Midi-Chn.1) ****************//

SonicRRadicalCityTak_002:
//  #02 //000   ----------------------------------------
 BYTE   KEYSH   SonicRRadicalCityTak_key+0
 BYTE   VOICE   1
 BYTE   PAN   c_v+12
 BYTE   VOL   65*SonicRRadicalCityTak_mvl/mxv
 BYTE   BENDR  12
 BYTE   W24
 BYTE   N11  Fs3  v074
 BYTE   W12
 BYTE   Cs4
 BYTE   W12
 BYTE   N17  Fn4
 BYTE   W18
 BYTE   N05  Fs3
 BYTE   W06
 BYTE   Cs4
 BYTE   W06
 BYTE   Fs3
 BYTE   W06
 BYTE   N20  Fn4
 BYTE   W12
//  #02 //001   ----------------------------------------
Label_0102657E:
 BYTE   W12
 BYTE   N11  Fs3  v074
 BYTE   W12
 BYTE   Gs3
 BYTE   W12
 BYTE   Cn4
 BYTE   W12
 BYTE   N17  Ds4
 BYTE   W18
 BYTE   N05  As3
 BYTE   W06
 BYTE   Cs4
 BYTE   W06
 BYTE   As3
 BYTE   W06
 BYTE   N20  Fn4
 BYTE   W12
 BYTE   PEND 
//  #02 //002   ----------------------------------------
Label_01026595:
 BYTE   W12
 BYTE   N11  Cs4  v074
 BYTE   W12
 BYTE   Fs3
 BYTE   W12
 BYTE   Cs4
 BYTE   W12
 BYTE   N17  Fn4
 BYTE   W18
 BYTE   N05  Fs3
 BYTE   W06
 BYTE   Cs4
 BYTE   W06
 BYTE   Fs3
 BYTE   W06
 BYTE   N20  Fn4
 BYTE   W12
 BYTE   PEND 
//  #02 //003   ----------------------------------------
 BYTE   PATT
  POIN2 Label_0102657E
//  #02 //004   ----------------------------------------
 BYTE   PATT
  POIN2 Label_01026595
//  #02 //005   ----------------------------------------
 BYTE   PATT
  POIN2 Label_0102657E
//  #02 //006   ----------------------------------------
 BYTE   PATT
  POIN2 Label_01026595
//  #02 //007   ----------------------------------------
 BYTE   W12
 BYTE   N11  Fs3  v074
 BYTE   W12
 BYTE   Gs3
 BYTE   W12
 BYTE   Cn4
 BYTE   W12
 BYTE   N17  Ds4
 BYTE   W18
 BYTE   N05  Gs3
 BYTE   W06
 BYTE   Cn4
 BYTE   W06
 BYTE   Gs3
 BYTE   W06
 BYTE   N20  Ds4
 BYTE   W12
//  #02 //008   ----------------------------------------
 BYTE   W12
 BYTE   N84  Cn4
 BYTE   W84
//  #02 //009   ----------------------------------------
 BYTE   W96
//  #02 //010   ----------------------------------------
Label_010265DB:
 BYTE   W96
//  #02 //011   ----------------------------------------
 BYTE   W96
//  #02 //012   ----------------------------------------
 BYTE   W96
//  #02 //013   ----------------------------------------
 BYTE   W96
//  #02 //014   ----------------------------------------
 BYTE   W96
//  #02 //015   ----------------------------------------
 BYTE   W96
//  #02 //016   ----------------------------------------
 BYTE   W96
//  #02 //017   ----------------------------------------
 BYTE   W96
//  #02 //018   ----------------------------------------
 BYTE   W96
//  #02 //019   ----------------------------------------
 BYTE   W96
//  #02 //020   ----------------------------------------
 BYTE   W96
//  #02 //021   ----------------------------------------
 BYTE   W96
//  #02 //022   ----------------------------------------
 BYTE   W96
//  #02 //023   ----------------------------------------
 BYTE   W96
//  #02 //024   ----------------------------------------
 BYTE   W96
//  #02 //025   ----------------------------------------
 BYTE   W96
//  #02 //026   ----------------------------------------
 BYTE   W96
//  #02 //027   ----------------------------------------
 BYTE   W96
//  #02 //028   ----------------------------------------
 BYTE   W96
//  #02 //029   ----------------------------------------
 BYTE   W96
//  #02 //030   ----------------------------------------
 BYTE   W96
//  #02 //031   ----------------------------------------
 BYTE   W96
//  #02 //032   ----------------------------------------
 BYTE   W96
//  #02 //033   ----------------------------------------
 BYTE   W96
//  #02 //034   ----------------------------------------
 BYTE   W96
//  #02 //035   ----------------------------------------
 BYTE   W96
//  #02 //036   ----------------------------------------
 BYTE   W96
//  #02 //037   ----------------------------------------
 BYTE   W96
//  #02 //038   ----------------------------------------
 BYTE   W96
//  #02 //039   ----------------------------------------
 BYTE   W96
//  #02 //040   ----------------------------------------
 BYTE   W96
//  #02 //041   ----------------------------------------
 BYTE   W96
//  #02 //042   ----------------------------------------
 BYTE   W96
//  #02 //043   ----------------------------------------
 BYTE   W96
//  #02 //044   ----------------------------------------
 BYTE   W96
//  #02 //045   ----------------------------------------
 BYTE   W96
//  #02 //046   ----------------------------------------
 BYTE   W96
//  #02 //047   ----------------------------------------
 BYTE   W96
//  #02 //048   ----------------------------------------
 BYTE   W96
//  #02 //049   ----------------------------------------
 BYTE   W96
//  #02 //050   ----------------------------------------
 BYTE   W96
//  #02 //051   ----------------------------------------
 BYTE   W96
//  #02 //052   ----------------------------------------
 BYTE   W96
//  #02 //053   ----------------------------------------
 BYTE   W96
//  #02 //054   ----------------------------------------
 BYTE   W96
//  #02 //055   ----------------------------------------
 BYTE   W96
//  #02 //056   ----------------------------------------
 BYTE   W96
//  #02 //057   ----------------------------------------
 BYTE   W96
//  #02 //058   ----------------------------------------
 BYTE   W96
//  #02 //059   ----------------------------------------
 BYTE   W96
//  #02 //060   ----------------------------------------
 BYTE   W96
//  #02 //061   ----------------------------------------
 BYTE   W96
//  #02 //062   ----------------------------------------
 BYTE   W96
//  #02 //063   ----------------------------------------
 BYTE   W96
//  #02 //064   ----------------------------------------
 BYTE   W96
//  #02 //065   ----------------------------------------
 BYTE   W96
//  #02 //066   ----------------------------------------
 BYTE   GoTo
  POIN2 Label_010265DB
//  #02 //067   ----------------------------------------
 BYTE   W11
 BYTE   FINE

//**************** Track 3 (Midi-Chn.2) ****************//

SonicRRadicalCityTak_003:
//  #03 //000   ----------------------------------------
 BYTE   KEYSH   SonicRRadicalCityTak_key+0
 BYTE   VOICE   34
 BYTE   VOL   78*SonicRRadicalCityTak_mvl/mxv
 BYTE   BENDR  12
 BYTE   W96
//  #03 //001   ----------------------------------------
 BYTE   W96
//  #03 //002   ----------------------------------------
 BYTE   W96
//  #03 //003   ----------------------------------------
 BYTE   W96
//  #03 //004   ----------------------------------------
 BYTE   W96
//  #03 //005   ----------------------------------------
 BYTE   W96
//  #03 //006   ----------------------------------------
 BYTE   W96
//  #03 //007   ----------------------------------------
 BYTE   W96
//  #03 //008   ----------------------------------------
 BYTE   W96
//  #03 //009   ----------------------------------------
Label_01026BE5:
 BYTE   W24
 BYTE   N20  Fs1  v074
 BYTE   W24
 BYTE   N17
 BYTE   W18
 BYTE   Fs1
 BYTE   W18
 BYTE   N11
 BYTE   W12
 BYTE   PEND 
//  #03 //010   ----------------------------------------
Label_01026BF1:
 BYTE   N11  Gn1  v074
 BYTE   W12
 BYTE   Gs1
 BYTE   W12
 BYTE   N17
 BYTE   W18
 BYTE   Gs1
 BYTE   W18
 BYTE   N20  As1
 BYTE   W24
 BYTE   N11
 BYTE   W12
//  #03 //011   ----------------------------------------
Label_01026C00:
 BYTE   N11  Gs1  v074
 BYTE   W12
 BYTE   As1
 BYTE   W12
 BYTE   N20  Fs1
 BYTE   W24
 BYTE   N17
 BYTE   W18
 BYTE   Fs1
 BYTE   W18
 BYTE   N11
 BYTE   W12
 BYTE   PEND 
//  #03 //012   ----------------------------------------
Label_01026C10:
 BYTE   N11  Gn1  v074
 BYTE   W12
 BYTE   Gs1
 BYTE   W12
 BYTE   N17
 BYTE   W18
 BYTE   Gs1
 BYTE   W18
 BYTE   N20  As1
 BYTE   W24
 BYTE   N11
 BYTE   W12
 BYTE   PEND 
//  #03 //013   ----------------------------------------
 BYTE   PATT
  POIN2 Label_01026C00
//  #03 //014   ----------------------------------------
 BYTE   PATT
  POIN2 Label_01026C10
//  #03 //015   ----------------------------------------
 BYTE   PATT
  POIN2 Label_01026C00
//  #03 //016   ----------------------------------------
Label_01026C2F:
 BYTE   N11  Gn1  v074
 BYTE   W12
 BYTE   Gs1
 BYTE   W12
 BYTE   N17
 BYTE   W18
 BYTE   Gs1
 BYTE   W18
 BYTE   Gs1
 BYTE   W18
 BYTE   Gs1
 BYTE   W18
 BYTE   PEND 
//  #03 //017   ----------------------------------------
Label_01026C3E:
 BYTE   N11  As1  v074
 BYTE   W12
 BYTE   As1
 BYTE   W12
 BYTE   N20  Fs1
 BYTE   W24
 BYTE   N17
 BYTE   W18
 BYTE   Fs1
 BYTE   W18
 BYTE   N11
 BYTE   W12
 BYTE   PEND 
//  #03 //018   ----------------------------------------
 BYTE   PATT
  POIN2 Label_01026C10
//  #03 //019   ----------------------------------------
 BYTE   PATT
  POIN2 Label_01026C00
//  #03 //020   ----------------------------------------
 BYTE   PATT
  POIN2 Label_01026C10
//  #03 //021   ----------------------------------------
 BYTE   PATT
  POIN2 Label_01026C00
//  #03 //022   ----------------------------------------
 BYTE   PATT
  POIN2 Label_01026C10
//  #03 //023   ----------------------------------------
 BYTE   PATT
  POIN2 Label_01026C00
//  #03 //024   ----------------------------------------
 BYTE   PATT
  POIN2 Label_01026C2F
//  #03 //025   ----------------------------------------
Label_01026C71:
 BYTE   N11  As1  v074
 BYTE   W12
 BYTE   As1
 BYTE   W12
 BYTE   N20
 BYTE   W24
 BYTE   N17
 BYTE   W18
 BYTE   N05  Fn1
 BYTE   W06
 BYTE   N11  As1
 BYTE   W12
 BYTE   N20
 BYTE   W12
 BYTE   PEND 
//  #03 //026   ----------------------------------------
Label_01026C84:
 BYTE   W12
 BYTE   N11  An1  v074
 BYTE   W12
 BYTE   N20  Gn1
 BYTE   W24
 BYTE   N17
 BYTE   W18
 BYTE   N05  Dn1
 BYTE   W06
 BYTE   N11  Gn1
 BYTE   W12
 BYTE   N20
 BYTE   W12
 BYTE   PEND 
//  #03 //027   ----------------------------------------
Label_01026C97:
 BYTE   W12
 BYTE   N11  Fn1  v074
 BYTE   W12
 BYTE   N20  Ds1
 BYTE   W24
 BYTE   N17
 BYTE   W18
 BYTE   N05  As0
 BYTE   W06
 BYTE   N11  Ds1
 BYTE   W12
 BYTE   N20
 BYTE   W12
 BYTE   PEND 
//  #03 //028   ----------------------------------------
Label_01026CAA:
 BYTE   W12
 BYTE   N23  As1  v074
 BYTE   W24
 BYTE   N11  Fn1
 BYTE   W12
 BYTE   N17  As1
 BYTE   W18
 BYTE   N05
 BYTE   W06
 BYTE   N11
 BYTE   W12
 BYTE   As1
 BYTE   W12
 BYTE   PEND 
//  #03 //029   ----------------------------------------
 BYTE   PATT
  POIN2 Label_01026C71
//  #03 //030   ----------------------------------------
 BYTE   PATT
  POIN2 Label_01026C84
//  #03 //031   ----------------------------------------
 BYTE   PATT
  POIN2 Label_01026C97
//  #03 //032   ----------------------------------------
 BYTE   PATT
  POIN2 Label_01026CAA
//  #03 //033   ----------------------------------------
 BYTE   N11  As1  v074
 BYTE   W12
 BYTE   As1
 BYTE   W12
 BYTE   N20  Ds1
 BYTE   W24
 BYTE   N17
 BYTE   W18
 BYTE   N05  As0
 BYTE   W06
 BYTE   N11  Ds1
 BYTE   W12
 BYTE   N20
 BYTE   W12
//  #03 //034   ----------------------------------------
Label_01026CE3:
 BYTE   W12
 BYTE   N11  Ds1  v074
 BYTE   W12
 BYTE   Fn1
 BYTE   W12
 BYTE   Fn1
 BYTE   W12
 BYTE   Fn1
 BYTE   W12
 BYTE   N20  Gn1
 BYTE   W24
 BYTE   N11
 BYTE   W12
 BYTE   PEND 
//  #03 //035   ----------------------------------------
 BYTE   Fn1
 BYTE   W12
 BYTE   Gn1
 BYTE   W12
 BYTE   N20  Ds1
 BYTE   W24
 BYTE   N17
 BYTE   W18
 BYTE   N05  As0
 BYTE   W06
 BYTE   N11  Ds1
 BYTE   W12
 BYTE   N20
 BYTE   W12
//  #03 //036   ----------------------------------------
 BYTE   W12
 BYTE   N11
 BYTE   W12
 BYTE   An1
 BYTE   W12
 BYTE   An1
 BYTE   W12
 BYTE   An1
 BYTE   W12
 BYTE   N20  Gn1
 BYTE   W24
 BYTE   N11
 BYTE   W12
//  #03 //037   ----------------------------------------
 BYTE   Fn1
 BYTE   W12
 BYTE   Fn1
 BYTE   W12
 BYTE   N20  Ds1
 BYTE   W24
 BYTE   N17
 BYTE   W18
 BYTE   N05  As0
 BYTE   W06
 BYTE   N11  Ds1
 BYTE   W12
 BYTE   N20
 BYTE   W12
//  #03 //038   ----------------------------------------
 BYTE   PATT
  POIN2 Label_01026CE3
//  #03 //039   ----------------------------------------
 BYTE   N11  Fn1  v074
 BYTE   W12
 BYTE   Gn1
 BYTE   W12
 BYTE   N20  Gs1
 BYTE   W24
 BYTE   N17
 BYTE   W18
 BYTE   N05  Ds1
 BYTE   W06
 BYTE   N11  Gs1
 BYTE   W12
 BYTE   N20
 BYTE   W12
//  #03 //040   ----------------------------------------
 BYTE   W12
 BYTE   N23
 BYTE   W24
 BYTE   N11
 BYTE   W12
 BYTE   N17
 BYTE   W18
 BYTE   N05  Ds1
 BYTE   W06
 BYTE   N11  Gs1
 BYTE   W12
 BYTE   Gs1
 BYTE   W12
//  #03 //041   ----------------------------------------
 BYTE   Gs1
 BYTE   W12
 BYTE   Gs1
 BYTE   W12
 BYTE   N20  Fs1
 BYTE   W24
 BYTE   N17
 BYTE   W18
 BYTE   Fs1
 BYTE   W18
 BYTE   N11
 BYTE   W12
//  #03 //042   ----------------------------------------
 BYTE   PATT
  POIN2 Label_01026C10
//  #03 //043   ----------------------------------------
 BYTE   PATT
  POIN2 Label_01026C00
//  #03 //044   ----------------------------------------
 BYTE   PATT
  POIN2 Label_01026C10
//  #03 //045   ----------------------------------------
 BYTE   PATT
  POIN2 Label_01026C00
//  #03 //046   ----------------------------------------
 BYTE   PATT
  POIN2 Label_01026C10
//  #03 //047   ----------------------------------------
 BYTE   PATT
  POIN2 Label_01026C00
//  #03 //048   ----------------------------------------
 BYTE   PATT
  POIN2 Label_01026C2F
//  #03 //049   ----------------------------------------
 BYTE   PATT
  POIN2 Label_01026C3E
//  #03 //050   ----------------------------------------
 BYTE   PATT
  POIN2 Label_01026C10
//  #03 //051   ----------------------------------------
 BYTE   PATT
  POIN2 Label_01026C00
//  #03 //052   ----------------------------------------
 BYTE   PATT
  POIN2 Label_01026C10
//  #03 //053   ----------------------------------------
 BYTE   PATT
  POIN2 Label_01026C00
//  #03 //054   ----------------------------------------
 BYTE   PATT
  POIN2 Label_01026C10
//  #03 //055   ----------------------------------------
 BYTE   PATT
  POIN2 Label_01026C00
//  #03 //056   ----------------------------------------
 BYTE   PATT
  POIN2 Label_01026C2F
//  #03 //057   ----------------------------------------
 BYTE   N11  As1  v074
 BYTE   W12
 BYTE   As1
 BYTE   W12
 BYTE   N90  Dn1
 BYTE   W72
//  #03 //058   ----------------------------------------
Label_01026DAC:
 BYTE   W24
 BYTE   N90  Fs1  v074
 BYTE   W72
 BYTE   PEND 
//  #03 //059   ----------------------------------------
 BYTE   W24
 BYTE   Bn1
 BYTE   W72
//  #03 //060   ----------------------------------------
 BYTE   PATT
  POIN2 Label_01026DAC
//  #03 //061   ----------------------------------------
 BYTE   W24
 BYTE   N90  Cn1  v074
 BYTE   W72
//  #03 //062   ----------------------------------------
 BYTE   W24
 BYTE   Gn1
 BYTE   W72
//  #03 //063   ----------------------------------------
 BYTE   W24
 BYTE   Cs1
 BYTE   W72
//  #03 //064   ----------------------------------------
 BYTE   W24
 BYTE   Bn0
 BYTE   W72
//  #03 //065   ----------------------------------------
 BYTE   PATT
  POIN2 Label_01026BE5
//  #03 //066   ----------------------------------------
 BYTE   N11  Gn1  v074
 BYTE   GoTo
  POIN2 Label_01026BF1
//  #03 //067   ----------------------------------------
 BYTE   W11
 BYTE   FINE

//**************** Track 4 (Midi-Chn.3) ****************//

SonicRRadicalCityTak_004:
//  #04 //000   ----------------------------------------
 BYTE   KEYSH   SonicRRadicalCityTak_key+0
 BYTE   VOICE   127
 BYTE   VOL   72*SonicRRadicalCityTak_mvl/mxv
 BYTE   BENDR  12
 BYTE   W24
 BYTE   N20  Fs1  v074
 BYTE   W24
 BYTE   En1
 BYTE   W42
 BYTE   N05
 BYTE   W06
//  #04 //001   ----------------------------------------
Label_01003D61:
 BYTE   N20  En1  v074
 BYTE   W24
 BYTE   Fs1
 BYTE   W24
 BYTE   En1
 BYTE   W42
 BYTE   N05
 BYTE   W06
 BYTE   PEND 
//  #04 //002   ----------------------------------------
Label_01003D6C:
 BYTE   N11  En1  v074
 BYTE   W12
 BYTE   En1
 BYTE   N11  Fs1
 BYTE   W12
 BYTE   N20
 BYTE   W24
 BYTE   En1
 BYTE   W42
 BYTE   N05
 BYTE   W06
 BYTE   PEND 
//  #04 //003   ----------------------------------------
 BYTE   PATT
  POIN2 Label_01003D61
//  #04 //004   ----------------------------------------
 BYTE   N11  En1  v074
 BYTE   W12
 BYTE   Fs1
 BYTE   N11  En1
 BYTE   W12
 BYTE   N20  Fs1
 BYTE   W24
 BYTE   En1
 BYTE   W42
 BYTE   N05
 BYTE   W06
//  #04 //005   ----------------------------------------
 BYTE   PATT
  POIN2 Label_01003D61
//  #04 //006   ----------------------------------------
 BYTE   PATT
  POIN2 Label_01003D6C
//  #04 //007   ----------------------------------------
 BYTE   PATT
  POIN2 Label_01003D61
//  #04 //008   ----------------------------------------
 BYTE   N11  En1  v074
 BYTE   TIE  En2
 BYTE   W12
 BYTE   N11  Fs1
 BYTE   N11  En1
 BYTE   W12
 BYTE   N72  Ds1  v085  gtp1
 BYTE   N20  Fs1  v074
 BYTE   W72
//  #04 //009   ----------------------------------------
 BYTE   N11  Dn1
 BYTE   W01
 BYTE   EOT
 BYTE   En2
 BYTE   W11
 BYTE   N05  Dn1
 BYTE   W06
 BYTE   Dn1
 BYTE   W06
 BYTE   N11  Fs1
 BYTE   W12
 BYTE   Fs1
 BYTE   W12
 BYTE   As1
 BYTE   W12
 BYTE   Fs1
 BYTE   W12
 BYTE   Fs1
 BYTE   W12
 BYTE   Fs1
 BYTE   W12
//  #04 //010   ----------------------------------------
Label_01003DC9:
 BYTE   N11  As1  v074
 BYTE   W12
 BYTE   Fs1
 BYTE   W12
 BYTE   Fs1
 BYTE   W12
 BYTE   Fs1
 BYTE   W12
 BYTE   As1
 BYTE   W12
 BYTE   Fs1
 BYTE   W12
 BYTE   Fs1
 BYTE   W12
 BYTE   Fs1
 BYTE   W12
//  #04 //011   ----------------------------------------
Label_01003DDB:
 BYTE   N11  As1  v074
 BYTE   W12
 BYTE   Fs1
 BYTE   W12
 BYTE   Fs1
 BYTE   W12
 BYTE   Fs1
 BYTE   W12
 BYTE   As1
 BYTE   W12
 BYTE   Fs1
 BYTE   W12
 BYTE   Fs1
 BYTE   W12
 BYTE   Fs1
 BYTE   W12
 BYTE   PEND 
//  #04 //012   ----------------------------------------
 BYTE   PATT
  POIN2 Label_01003DDB
//  #04 //013   ----------------------------------------
 BYTE   PATT
  POIN2 Label_01003DDB
//  #04 //014   ----------------------------------------
 BYTE   PATT
  POIN2 Label_01003DDB
//  #04 //015   ----------------------------------------
 BYTE   PATT
  POIN2 Label_01003DDB
//  #04 //016   ----------------------------------------
 BYTE   PATT
  POIN2 Label_01003DDB
//  #04 //017   ----------------------------------------
 BYTE   PATT
  POIN2 Label_01003DDB
//  #04 //018   ----------------------------------------
 BYTE   PATT
  POIN2 Label_01003DDB
//  #04 //019   ----------------------------------------
 BYTE   PATT
  POIN2 Label_01003DDB
//  #04 //020   ----------------------------------------
 BYTE   PATT
  POIN2 Label_01003DDB
//  #04 //021   ----------------------------------------
 BYTE   PATT
  POIN2 Label_01003DDB
//  #04 //022   ----------------------------------------
 BYTE   PATT
  POIN2 Label_01003DDB
//  #04 //023   ----------------------------------------
 BYTE   PATT
  POIN2 Label_01003DDB
//  #04 //024   ----------------------------------------
 BYTE   PATT
  POIN2 Label_01003DDB
//  #04 //025   ----------------------------------------
 BYTE   PATT
  POIN2 Label_01003DDB
//  #04 //026   ----------------------------------------
 BYTE   PATT
  POIN2 Label_01003DDB
//  #04 //027   ----------------------------------------
 BYTE   PATT
  POIN2 Label_01003DDB
//  #04 //028   ----------------------------------------
 BYTE   PATT
  POIN2 Label_01003DDB
//  #04 //029   ----------------------------------------
 BYTE   PATT
  POIN2 Label_01003DDB
//  #04 //030   ----------------------------------------
 BYTE   PATT
  POIN2 Label_01003DDB
//  #04 //031   ----------------------------------------
 BYTE   PATT
  POIN2 Label_01003DDB
//  #04 //032   ----------------------------------------
 BYTE   PATT
  POIN2 Label_01003DDB
//  #04 //033   ----------------------------------------
 BYTE   PATT
  POIN2 Label_01003DDB
//  #04 //034   ----------------------------------------
 BYTE   PATT
  POIN2 Label_01003DDB
//  #04 //035   ----------------------------------------
 BYTE   PATT
  POIN2 Label_01003DDB
//  #04 //036   ----------------------------------------
 BYTE   PATT
  POIN2 Label_01003DDB
//  #04 //037   ----------------------------------------
 BYTE   PATT
  POIN2 Label_01003DDB
//  #04 //038   ----------------------------------------
 BYTE   PATT
  POIN2 Label_01003DDB
//  #04 //039   ----------------------------------------
 BYTE   PATT
  POIN2 Label_01003DDB
//  #04 //040   ----------------------------------------
 BYTE   PATT
  POIN2 Label_01003DDB
//  #04 //041   ----------------------------------------
 BYTE   PATT
  POIN2 Label_01003DDB
//  #04 //042   ----------------------------------------
 BYTE   PATT
  POIN2 Label_01003DDB
//  #04 //043   ----------------------------------------
 BYTE   PATT
  POIN2 Label_01003DDB
//  #04 //044   ----------------------------------------
 BYTE   PATT
  POIN2 Label_01003DDB
//  #04 //045   ----------------------------------------
 BYTE   PATT
  POIN2 Label_01003DDB
//  #04 //046   ----------------------------------------
 BYTE   PATT
  POIN2 Label_01003DDB
//  #04 //047   ----------------------------------------
 BYTE   PATT
  POIN2 Label_01003DDB
//  #04 //048   ----------------------------------------
 BYTE   PATT
  POIN2 Label_01003DDB
//  #04 //049   ----------------------------------------
 BYTE   PATT
  POIN2 Label_01003DDB
//  #04 //050   ----------------------------------------
 BYTE   PATT
  POIN2 Label_01003DDB
//  #04 //051   ----------------------------------------
 BYTE   PATT
  POIN2 Label_01003DDB
//  #04 //052   ----------------------------------------
 BYTE   PATT
  POIN2 Label_01003DDB
//  #04 //053   ----------------------------------------
 BYTE   PATT
  POIN2 Label_01003DDB
//  #04 //054   ----------------------------------------
 BYTE   PATT
  POIN2 Label_01003DDB
//  #04 //055   ----------------------------------------
 BYTE   PATT
  POIN2 Label_01003DDB
//  #04 //056   ----------------------------------------
 BYTE   PATT
  POIN2 Label_01003DDB
//  #04 //057   ----------------------------------------
 BYTE   N11  As1  v074
 BYTE   W12
 BYTE   Fs1
 BYTE   W12
 BYTE   N20
 BYTE   W24
 BYTE   Fs1
 BYTE   W24
 BYTE   Fs1
 BYTE   W24
//  #04 //058   ----------------------------------------
Label_01003EDB:
 BYTE   N20  Fs1  v074
 BYTE   W24
 BYTE   Fs1
 BYTE   W24
 BYTE   Fs1
 BYTE   W24
 BYTE   Fs1
 BYTE   W24
 BYTE   PEND 
//  #04 //059   ----------------------------------------
Label_01003EE6:
 BYTE   N11  Fs1  v074
 BYTE   W12
 BYTE   Fs1
 BYTE   W12
 BYTE   N20
 BYTE   W24
 BYTE   Fs1
 BYTE   W24
 BYTE   Fs1
 BYTE   W24
 BYTE   PEND 
//  #04 //060   ----------------------------------------
 BYTE   PATT
  POIN2 Label_01003EDB
//  #04 //061   ----------------------------------------
 BYTE   PATT
  POIN2 Label_01003EE6
//  #04 //062   ----------------------------------------
 BYTE   PATT
  POIN2 Label_01003EDB
//  #04 //063   ----------------------------------------
 BYTE   PATT
  POIN2 Label_01003EE6
//  #04 //064   ----------------------------------------
 BYTE   PATT
  POIN2 Label_01003EDB
//  #04 //065   ----------------------------------------
 BYTE   N11  Fs1  v074
 BYTE   W12
 BYTE   Fs1
 BYTE   W12
 BYTE   Fs1
 BYTE   W12
 BYTE   Fs1
 BYTE   W12
 BYTE   As1
 BYTE   W12
 BYTE   Fs1
 BYTE   W12
 BYTE   Fs1
 BYTE   W12
 BYTE   Fs1
 BYTE   W12
//  #04 //066   ----------------------------------------
 BYTE   GoTo
  POIN2 Label_01003DC9
//  #04 //067   ----------------------------------------
 BYTE   W11
 BYTE   FINE

//**************** Track 5 (Midi-Chn.4) ****************//

SonicRRadicalCityTak_005:
//  #05 //000   ----------------------------------------
 BYTE   KEYSH   SonicRRadicalCityTak_key+0
 BYTE   VOICE   4
 BYTE   VOL   54*SonicRRadicalCityTak_mvl/mxv
 BYTE   PAN   c_v-13
 BYTE   BENDR  12
 BYTE   W96
//  #05 //001   ----------------------------------------
 BYTE   W96
//  #05 //002   ----------------------------------------
 BYTE   W96
//  #05 //003   ----------------------------------------
 BYTE   W96
//  #05 //004   ----------------------------------------
 BYTE   W96
//  #05 //005   ----------------------------------------
 BYTE   W96
//  #05 //006   ----------------------------------------
 BYTE   W96
//  #05 //007   ----------------------------------------
 BYTE   W96
//  #05 //008   ----------------------------------------
 BYTE   W96
//  #05 //009   ----------------------------------------
Label_01003037:
 BYTE   W24
 BYTE   N90  Cs4  v036
 BYTE   N90  As3
 BYTE   N90  Fs3
 BYTE   N90  Cs3
 BYTE   W72
 BYTE   PEND 
//  #05 //010   ----------------------------------------
Label_01003043:
 BYTE   W24
 BYTE   N32  Ds4  v036
 BYTE   N32  Cn4
 BYTE   N32  Gs3
 BYTE   N32  Ds3
 BYTE   W36
 BYTE   N54  Fn3
 BYTE   N54  As3
 BYTE   N54  Cs4
 BYTE   N54  Fn4
 BYTE   W36
//  #05 //011   ----------------------------------------
 BYTE   W24
 BYTE   N90  Cs3
 BYTE   N90  Fs3
 BYTE   N90  As3
 BYTE   N90  Cs4
 BYTE   W72
//  #05 //012   ----------------------------------------
 BYTE   W24
 BYTE   N32  Ds3
 BYTE   N32  Gs3
 BYTE   N32  Cn4
 BYTE   N32  Ds4
 BYTE   W36
 BYTE   N54  Fn4
 BYTE   N54  Cs4
 BYTE   N54  As3
 BYTE   N54  Fn3
 BYTE   W36
//  #05 //013   ----------------------------------------
 BYTE   PATT
  POIN2 Label_01003037
//  #05 //014   ----------------------------------------
 BYTE   W24
 BYTE   N32  Ds4  v036
 BYTE   N32  Cn4
 BYTE   N32  Gs3
 BYTE   N32  Ds3
 BYTE   W36
 BYTE   N54  Fn4
 BYTE   N54  Cs4
 BYTE   N54  As3
 BYTE   N54  Fn3
 BYTE   W36
//  #05 //015   ----------------------------------------
 BYTE   PATT
  POIN2 Label_01003037
//  #05 //016   ----------------------------------------
 BYTE   W24
 BYTE   N32  Cs4  v036
 BYTE   N32  As3
 BYTE   N32  Fs3
 BYTE   N32  Cs3
 BYTE   W36
 BYTE   N54  Ds4
 BYTE   N54  Cn4
 BYTE   N54  Gs3
 BYTE   N54  Ds3
 BYTE   W36
//  #05 //017   ----------------------------------------
 BYTE   W96
//  #05 //018   ----------------------------------------
 BYTE   W96
//  #05 //019   ----------------------------------------
 BYTE   W96
//  #05 //020   ----------------------------------------
 BYTE   W96
//  #05 //021   ----------------------------------------
 BYTE   W96
//  #05 //022   ----------------------------------------
 BYTE   W96
//  #05 //023   ----------------------------------------
 BYTE   W96
//  #05 //024   ----------------------------------------
 BYTE   W96
//  #05 //025   ----------------------------------------
 BYTE   W96
//  #05 //026   ----------------------------------------
 BYTE   W96
//  #05 //027   ----------------------------------------
 BYTE   W96
//  #05 //028   ----------------------------------------
 BYTE   W96
//  #05 //029   ----------------------------------------
 BYTE   W96
//  #05 //030   ----------------------------------------
 BYTE   W96
//  #05 //031   ----------------------------------------
 BYTE   W96
//  #05 //032   ----------------------------------------
 BYTE   W96
//  #05 //033   ----------------------------------------
 BYTE   W96
//  #05 //034   ----------------------------------------
 BYTE   W96
//  #05 //035   ----------------------------------------
 BYTE   W96
//  #05 //036   ----------------------------------------
 BYTE   W96
//  #05 //037   ----------------------------------------
 BYTE   W96
//  #05 //038   ----------------------------------------
 BYTE   W96
//  #05 //039   ----------------------------------------
 BYTE   W96
//  #05 //040   ----------------------------------------
 BYTE   W96
//  #05 //041   ----------------------------------------
 BYTE   W96
//  #05 //042   ----------------------------------------
 BYTE   W96
//  #05 //043   ----------------------------------------
 BYTE   W96
//  #05 //044   ----------------------------------------
 BYTE   W96
//  #05 //045   ----------------------------------------
 BYTE   W96
//  #05 //046   ----------------------------------------
 BYTE   W96
//  #05 //047   ----------------------------------------
 BYTE   W96
//  #05 //048   ----------------------------------------
 BYTE   W96
//  #05 //049   ----------------------------------------
 BYTE   W96
//  #05 //050   ----------------------------------------
 BYTE   W96
//  #05 //051   ----------------------------------------
 BYTE   W96
//  #05 //052   ----------------------------------------
 BYTE   W96
//  #05 //053   ----------------------------------------
 BYTE   W96
//  #05 //054   ----------------------------------------
 BYTE   W96
//  #05 //055   ----------------------------------------
 BYTE   W96
//  #05 //056   ----------------------------------------
 BYTE   W96
//  #05 //057   ----------------------------------------
 BYTE   W96
//  #05 //058   ----------------------------------------
 BYTE   W96
//  #05 //059   ----------------------------------------
 BYTE   W96
//  #05 //060   ----------------------------------------
 BYTE   W96
//  #05 //061   ----------------------------------------
 BYTE   W96
//  #05 //062   ----------------------------------------
 BYTE   W96
//  #05 //063   ----------------------------------------
 BYTE   W96
//  #05 //064   ----------------------------------------
 BYTE   W96
//  #05 //065   ----------------------------------------
 BYTE   W96
//  #05 //066   ----------------------------------------
 BYTE   GoTo
  POIN2 Label_01003043
//  #05 //067   ----------------------------------------
 BYTE   W11
 BYTE   FINE

//**************** Track 6 (Midi-Chn.5) ****************//

SonicRRadicalCityTak_006:
//  #06 //000   ----------------------------------------
 BYTE   KEYSH   SonicRRadicalCityTak_key+0
 BYTE   VOICE   100
 BYTE   PAN   c_v+26
 BYTE   VOL   56*SonicRRadicalCityTak_mvl/mxv
 BYTE   BENDR  12
 BYTE   N05  Fn4  v127
 BYTE   N05  Fn3
 BYTE   W06
 BYTE   Cs4
 BYTE   N05  Cs3
 BYTE   W06
 BYTE   Gs3
 BYTE   N05  Gs2
 BYTE   W06
 BYTE   Fs3
 BYTE   N05  Fs2
 BYTE   W06
 BYTE   TIE  Fn2
 BYTE   TIE  Fn3
 BYTE   W72
//  #06 //001   ----------------------------------------
 BYTE   W60
 BYTE   EOT
 BYTE   Fn2  v065
 BYTE   W36
//  #06 //002   ----------------------------------------
 BYTE   W96
//  #06 //003   ----------------------------------------
 BYTE   W96
//  #06 //004   ----------------------------------------
 BYTE   W96
//  #06 //005   ----------------------------------------
 BYTE   W96
//  #06 //006   ----------------------------------------
 BYTE   W96
//  #06 //007   ----------------------------------------
 BYTE   W96
//  #06 //008   ----------------------------------------
 BYTE   W96
//  #06 //009   ----------------------------------------
 BYTE   W96
//  #06 //010   ----------------------------------------
Label_0102664E:
 BYTE   W96
//  #06 //011   ----------------------------------------
 BYTE   W96
//  #06 //012   ----------------------------------------
 BYTE   W96
//  #06 //013   ----------------------------------------
 BYTE   W96
//  #06 //014   ----------------------------------------
 BYTE   W96
//  #06 //015   ----------------------------------------
 BYTE   W96
//  #06 //016   ----------------------------------------
 BYTE   W96
//  #06 //017   ----------------------------------------
 BYTE   W96
//  #06 //018   ----------------------------------------
 BYTE   W96
//  #06 //019   ----------------------------------------
 BYTE   W96
//  #06 //020   ----------------------------------------
 BYTE   W96
//  #06 //021   ----------------------------------------
 BYTE   W96
//  #06 //022   ----------------------------------------
 BYTE   W96
//  #06 //023   ----------------------------------------
 BYTE   W96
//  #06 //024   ----------------------------------------
 BYTE   W96
//  #06 //025   ----------------------------------------
 BYTE   W96
//  #06 //026   ----------------------------------------
 BYTE   W96
//  #06 //027   ----------------------------------------
 BYTE   W96
//  #06 //028   ----------------------------------------
 BYTE   W96
//  #06 //029   ----------------------------------------
 BYTE   W96
//  #06 //030   ----------------------------------------
 BYTE   W96
//  #06 //031   ----------------------------------------
 BYTE   W96
//  #06 //032   ----------------------------------------
 BYTE   W96
//  #06 //033   ----------------------------------------
 BYTE   W96
//  #06 //034   ----------------------------------------
 BYTE   W96
//  #06 //035   ----------------------------------------
 BYTE   W96
//  #06 //036   ----------------------------------------
 BYTE   W96
//  #06 //037   ----------------------------------------
 BYTE   W96
//  #06 //038   ----------------------------------------
 BYTE   W96
//  #06 //039   ----------------------------------------
 BYTE   W96
//  #06 //040   ----------------------------------------
 BYTE   W96
//  #06 //041   ----------------------------------------
 BYTE   W96
//  #06 //042   ----------------------------------------
 BYTE   W96
//  #06 //043   ----------------------------------------
 BYTE   W96
//  #06 //044   ----------------------------------------
 BYTE   W96
//  #06 //045   ----------------------------------------
 BYTE   W96
//  #06 //046   ----------------------------------------
 BYTE   W96
//  #06 //047   ----------------------------------------
 BYTE   W96
//  #06 //048   ----------------------------------------
 BYTE   W96
//  #06 //049   ----------------------------------------
 BYTE   W96
//  #06 //050   ----------------------------------------
 BYTE   W96
//  #06 //051   ----------------------------------------
 BYTE   W96
//  #06 //052   ----------------------------------------
 BYTE   W96
//  #06 //053   ----------------------------------------
 BYTE   W96
//  #06 //054   ----------------------------------------
 BYTE   W96
//  #06 //055   ----------------------------------------
 BYTE   W96
//  #06 //056   ----------------------------------------
 BYTE   W96
//  #06 //057   ----------------------------------------
 BYTE   W24
 BYTE   N11  En4  v053
 BYTE   W12
 BYTE   Dn4
 BYTE   W12
 BYTE   Cs4
 BYTE   W12
 BYTE   N20  An3
 BYTE   W24
 BYTE   Fs3
 BYTE   W12
//  #06 //058   ----------------------------------------
Label_0102668B:
 BYTE   W12
 BYTE   N92  Bn3  v053  gtp3
 BYTE   W84
 BYTE   PEND 
//  #06 //059   ----------------------------------------
 BYTE   W12
 BYTE   N11  An3
 BYTE   W12
 BYTE   En4
 BYTE   W12
 BYTE   Dn4
 BYTE   W12
 BYTE   Cs4
 BYTE   W12
 BYTE   N20  An3
 BYTE   W24
 BYTE   Fs3
 BYTE   W12
//  #06 //060   ----------------------------------------
 BYTE   PATT
  POIN2 Label_0102668B
//  #06 //061   ----------------------------------------
 BYTE   W12
 BYTE   N11  An3  v053
 BYTE   W12
 BYTE   Fn4
 BYTE   W12
 BYTE   Ds4
 BYTE   W12
 BYTE   Dn4
 BYTE   W12
 BYTE   N20  As3
 BYTE   W24
 BYTE   Gn3
 BYTE   W12
//  #06 //062   ----------------------------------------
 BYTE   W12
 BYTE   N92  Cn4  v053  gtp3
 BYTE   W84
//  #06 //063   ----------------------------------------
 BYTE   W12
 BYTE   N11
 BYTE   W12
 BYTE   N20  Cs4
 BYTE   W24
 BYTE   N11  Ds4
 BYTE   W12
 BYTE   N20  En4
 BYTE   W24
 BYTE   Fs4
 BYTE   W12
//  #06 //064   ----------------------------------------
 BYTE   W12
 BYTE   TIE  Gs4
 BYTE   W84
//  #06 //065   ----------------------------------------
 BYTE   W18
 BYTE   EOT
 BYTE   W78
//  #06 //066   ----------------------------------------
 BYTE   GoTo
  POIN2 Label_0102664E
//  #06 //067   ----------------------------------------
 BYTE   W11
 BYTE   FINE

//**************** Track 7 (Midi-Chn.6) ****************//

SonicRRadicalCityTak_007:
//  #07 //000   ----------------------------------------
 BYTE   KEYSH   SonicRRadicalCityTak_key+0
 BYTE   VOICE   63
 BYTE   PAN   c_v-13
 BYTE   VOL   56*SonicRRadicalCityTak_mvl/mxv
 BYTE   BENDR  12
 BYTE   W96
//  #07 //001   ----------------------------------------
 BYTE   W96
//  #07 //002   ----------------------------------------
 BYTE   W96
//  #07 //003   ----------------------------------------
 BYTE   W96
//  #07 //004   ----------------------------------------
 BYTE   W96
//  #07 //005   ----------------------------------------
 BYTE   W96
//  #07 //006   ----------------------------------------
 BYTE   W96
//  #07 //007   ----------------------------------------
 BYTE   W96
//  #07 //008   ----------------------------------------
 BYTE   W96
//  #07 //009   ----------------------------------------
 BYTE   W24
 BYTE   N11  Fn3  v074
 BYTE   N11  Cs3
 BYTE   W12
 BYTE   Cs3
 BYTE   N11  Fn3
 BYTE   W12
 BYTE   Ds3
 BYTE   N11  Cn3
 BYTE   W12
 BYTE   Ds3
 BYTE   N11  Cn3
 BYTE   W12
 BYTE   Cs3
 BYTE   N11  As2
 BYTE   W12
 BYTE   Fn3
 BYTE   N11  Cs3
 BYTE   W12
//  #07 //010   ----------------------------------------
Label_01026776:
 BYTE   W96
//  #07 //011   ----------------------------------------
Label_01026777:
 BYTE   W24
 BYTE   N11  Cs3  v074
 BYTE   N11  Fn3
 BYTE   W12
 BYTE   Cs3
 BYTE   N11  Fn3
 BYTE   W12
 BYTE   Ds3
 BYTE   N11  Cn3
 BYTE   W12
 BYTE   Cn3
 BYTE   N11  Ds3
 BYTE   W12
 BYTE   As2
 BYTE   N11  Cs3
 BYTE   W12
 BYTE   Cs3
 BYTE   N11  Fn3
 BYTE   W12
 BYTE   PEND 
//  #07 //012   ----------------------------------------
 BYTE   W96
//  #07 //013   ----------------------------------------
Label_01026794:
 BYTE   W24
 BYTE   N11  Fn3  v074
 BYTE   N11  Cs3
 BYTE   W12
 BYTE   Fn3
 BYTE   N11  Cs3
 BYTE   W12
 BYTE   Cn3
 BYTE   N11  Ds3
 BYTE   W12
 BYTE   Ds3
 BYTE   N11  Cn3
 BYTE   W12
 BYTE   Cs3
 BYTE   N11  As2
 BYTE   W12
 BYTE   Fn3
 BYTE   N11  Cs3
 BYTE   W12
 BYTE   PEND 
//  #07 //014   ----------------------------------------
 BYTE   W96
//  #07 //015   ----------------------------------------
 BYTE   W96
//  #07 //016   ----------------------------------------
 BYTE   W96
//  #07 //017   ----------------------------------------
 BYTE   PATT
  POIN2 Label_01026794
//  #07 //018   ----------------------------------------
 BYTE   W96
//  #07 //019   ----------------------------------------
 BYTE   PATT
  POIN2 Label_01026794
//  #07 //020   ----------------------------------------
 BYTE   W96
//  #07 //021   ----------------------------------------
 BYTE   PATT
  POIN2 Label_01026794
//  #07 //022   ----------------------------------------
 BYTE   W96
//  #07 //023   ----------------------------------------
 BYTE   W96
//  #07 //024   ----------------------------------------
 BYTE   W96
//  #07 //025   ----------------------------------------
 BYTE   W96
//  #07 //026   ----------------------------------------
 BYTE   W96
//  #07 //027   ----------------------------------------
 BYTE   W96
//  #07 //028   ----------------------------------------
 BYTE   W96
//  #07 //029   ----------------------------------------
 BYTE   W96
//  #07 //030   ----------------------------------------
 BYTE   W96
//  #07 //031   ----------------------------------------
 BYTE   W96
//  #07 //032   ----------------------------------------
 BYTE   W96
//  #07 //033   ----------------------------------------
 BYTE   W96
//  #07 //034   ----------------------------------------
 BYTE   W96
//  #07 //035   ----------------------------------------
 BYTE   W96
//  #07 //036   ----------------------------------------
 BYTE   W96
//  #07 //037   ----------------------------------------
 BYTE   W96
//  #07 //038   ----------------------------------------
 BYTE   W96
//  #07 //039   ----------------------------------------
 BYTE   W96
//  #07 //040   ----------------------------------------
 BYTE   W96
//  #07 //041   ----------------------------------------
 BYTE   PATT
  POIN2 Label_01026794
//  #07 //042   ----------------------------------------
 BYTE   W96
//  #07 //043   ----------------------------------------
 BYTE   PATT
  POIN2 Label_01026794
//  #07 //044   ----------------------------------------
 BYTE   W96
//  #07 //045   ----------------------------------------
 BYTE   PATT
  POIN2 Label_01026794
//  #07 //046   ----------------------------------------
 BYTE   W96
//  #07 //047   ----------------------------------------
 BYTE   W96
//  #07 //048   ----------------------------------------
 BYTE   W96
//  #07 //049   ----------------------------------------
 BYTE   PATT
  POIN2 Label_01026777
//  #07 //050   ----------------------------------------
 BYTE   W24
 BYTE   BEND   c_v-4
 BYTE   W02
 BYTE   BEND   c_v-3
 BYTE   W03
 BYTE   BEND   c_v-2
 BYTE   W02
 BYTE   BEND   c_v-1
 BYTE   W03
 BYTE   BEND   c_v+0
 BYTE   W60
 BYTE   W02
//  #07 //051   ----------------------------------------
 BYTE   PATT
  POIN2 Label_01026794
//  #07 //052   ----------------------------------------
 BYTE   W96
//  #07 //053   ----------------------------------------
 BYTE   PATT
  POIN2 Label_01026777
//  #07 //054   ----------------------------------------
 BYTE   W96
//  #07 //055   ----------------------------------------
 BYTE   W96
//  #07 //056   ----------------------------------------
 BYTE   W96
//  #07 //057   ----------------------------------------
 BYTE   W96
//  #07 //058   ----------------------------------------
 BYTE   W96
//  #07 //059   ----------------------------------------
 BYTE   W96
//  #07 //060   ----------------------------------------
 BYTE   W96
//  #07 //061   ----------------------------------------
 BYTE   W96
//  #07 //062   ----------------------------------------
 BYTE   W96
//  #07 //063   ----------------------------------------
 BYTE   W96
//  #07 //064   ----------------------------------------
 BYTE   W96
//  #07 //065   ----------------------------------------
 BYTE   W24
 BYTE   N11  Cs3  v074
 BYTE   N11  Fn3
 BYTE   W12
 BYTE   Cs3
 BYTE   N11  Fn3
 BYTE   W12
 BYTE   Ds3
 BYTE   N11  Cn3
 BYTE   W12
 BYTE   Ds3
 BYTE   N11  Cn3
 BYTE   W12
 BYTE   Cs3
 BYTE   N11  As2
 BYTE   W12
 BYTE   Fn3
 BYTE   N11  Cs3
 BYTE   W12
//  #07 //066   ----------------------------------------
 BYTE   GoTo
  POIN2 Label_01026776
//  #07 //067   ----------------------------------------
 BYTE   W11
 BYTE   FINE

//**************** Track 8 (Midi-Chn.7) ****************//

SonicRRadicalCityTak_008:
//  #08 //000   ----------------------------------------
 BYTE   KEYSH   SonicRRadicalCityTak_key+0
 BYTE   VOICE   68
 BYTE   VOL   87*SonicRRadicalCityTak_mvl/mxv
 BYTE   PAN   c_v+6
 BYTE   BENDR  12
 BYTE   W96
//  #08 //001   ----------------------------------------
 BYTE   W96
//  #08 //002   ----------------------------------------
 BYTE   W96
//  #08 //003   ----------------------------------------
 BYTE   W96
//  #08 //004   ----------------------------------------
 BYTE   W96
//  #08 //005   ----------------------------------------
 BYTE   W96
//  #08 //006   ----------------------------------------
 BYTE   W96
//  #08 //007   ----------------------------------------
 BYTE   W96
//  #08 //008   ----------------------------------------
 BYTE   W96
//  #08 //009   ----------------------------------------
 BYTE   W96
//  #08 //010   ----------------------------------------
Label_010261A8:
 BYTE   W12
 BYTE   N11  As2  v074
 BYTE   W12
 BYTE   N32  Cn3
 BYTE   W36
 BYTE   N11
 BYTE   W12
 BYTE   Cs3
 BYTE   W12
 BYTE   Cs3
 BYTE   W12
//  #08 //011   ----------------------------------------
Label_010261B6:
 BYTE   N11  Ds3  v074
 BYTE   W12
 BYTE   N92  Fn3  v074  gtp3
 BYTE   W84
 BYTE   PEND 
//  #08 //012   ----------------------------------------
Label_010261C0:
 BYTE   W12
 BYTE   N11  As2  v074
 BYTE   W12
 BYTE   N20  Cn3
 BYTE   W24
 BYTE   N11
 BYTE   W12
 BYTE   N20  Gs3
 BYTE   W24
 BYTE   Fs3
 BYTE   W12
 BYTE   PEND 
//  #08 //013   ----------------------------------------
 BYTE   W12
 BYTE   N23  Fn3
 BYTE   W24
 BYTE   N11  As2
 BYTE   W12
 BYTE   N48  Cs3
 BYTE   W48
//  #08 //014   ----------------------------------------
Label_010261DA:
 BYTE   W12
 BYTE   N11  As2  v074
 BYTE   W12
 BYTE   N20  Cn3
 BYTE   W24
 BYTE   N11
 BYTE   W12
 BYTE   N32  Cs3
 BYTE   W36
 BYTE   PEND 
//  #08 //015   ----------------------------------------
Label_010261E8:
 BYTE   N20  Ds3  v074
 BYTE   W24
 BYTE   N42  Fn3
 BYTE   W48
 BYTE   N20  Cs3
 BYTE   W24
 BYTE   PEND 
//  #08 //016   ----------------------------------------
Label_010261F3:
 BYTE   N11  As3  v074
 BYTE   W12
 BYTE   TIE  Gs3
 BYTE   W84
 BYTE   PEND 
//  #08 //017   ----------------------------------------
 BYTE   W18
 BYTE   EOT
 BYTE   W78
//  #08 //018   ----------------------------------------
Label_010261FE:
 BYTE   W12
 BYTE   N11  As2  v074
 BYTE   W12
 BYTE   N32  Cn3
 BYTE   W36
 BYTE   N11
 BYTE   W12
 BYTE   Cs3
 BYTE   W12
 BYTE   Cs3
 BYTE   W12
 BYTE   PEND 
//  #08 //019   ----------------------------------------
 BYTE   PATT
  POIN2 Label_010261B6
//  #08 //020   ----------------------------------------
 BYTE   PATT
  POIN2 Label_010261C0
//  #08 //021   ----------------------------------------
Label_01026217:
 BYTE   W12
 BYTE   N23  Fn3  v074
 BYTE   W24
 BYTE   N11  As2
 BYTE   W12
 BYTE   N54  Cs3  v074  gtp1
 BYTE   W48
 BYTE   PEND 
//  #08 //022   ----------------------------------------
 BYTE   PATT
  POIN2 Label_010261DA
//  #08 //023   ----------------------------------------
 BYTE   N20  Ds3  v074
 BYTE   W24
 BYTE   N40  Fn3
 BYTE   W48
 BYTE   N20  Cs3
 BYTE   W24
//  #08 //024   ----------------------------------------
 BYTE   PATT
  POIN2 Label_010261F3
//  #08 //025   ----------------------------------------
 BYTE   W18
 BYTE   EOT
 BYTE   Gs3
 BYTE   W54
 BYTE   N11  Dn3  v074
 BYTE   W12
 BYTE   Ds3
 BYTE   W12
//  #08 //026   ----------------------------------------
Label_01026243:
 BYTE   N11  Fn3  v074
 BYTE   W12
 BYTE   N32  An3
 BYTE   W36
 BYTE   N20  As3
 BYTE   W24
 BYTE   Fn3
 BYTE   W24
 BYTE   PEND 
//  #08 //027   ----------------------------------------
 BYTE   N11  Ds3
 BYTE   W12
 BYTE   Cs3
 BYTE   W12
 BYTE   N42
 BYTE   W60
 BYTE   N11  As2
 BYTE   W12
//  #08 //028   ----------------------------------------
 BYTE   Cs3
 BYTE   W12
 BYTE   N23  Ds3
 BYTE   W24
 BYTE   N80  Fn3  v074  gtp3
 BYTE   W60
//  #08 //029   ----------------------------------------
 BYTE   W72
 BYTE   N11  Dn3
 BYTE   W12
 BYTE   Ds3
 BYTE   W12
//  #08 //030   ----------------------------------------
 BYTE   PATT
  POIN2 Label_01026243
//  #08 //031   ----------------------------------------
 BYTE   N11  Ds3  v074
 BYTE   W12
 BYTE   Cs3
 BYTE   W12
 BYTE   N32
 BYTE   W36
 BYTE   N11  As2
 BYTE   W12
 BYTE   N20  Cs3
 BYTE   W24
//  #08 //032   ----------------------------------------
 BYTE   N11  Fn3
 BYTE   W12
 BYTE   N23  Ds3
 BYTE   W24
 BYTE   N68  Fn3
 BYTE   W60
//  #08 //033   ----------------------------------------
Label_01026286:
 BYTE   W24
 BYTE   N11  Dn3  v074
 BYTE   W12
 BYTE   Ds3
 BYTE   W12
 BYTE   Fn3
 BYTE   W12
 BYTE   N20
 BYTE   W24
 BYTE   N32  As2
 BYTE   W12
 BYTE   PEND 
//  #08 //034   ----------------------------------------
Label_01026295:
 BYTE   W24
 BYTE   N20  Cn3  v074
 BYTE   W24
 BYTE   N11  Dn3
 BYTE   W12
 BYTE   N32
 BYTE   W36
 BYTE   PEND 
//  #08 //035   ----------------------------------------
 BYTE   PATT
  POIN2 Label_01026286
//  #08 //036   ----------------------------------------
 BYTE   PATT
  POIN2 Label_01026295
//  #08 //037   ----------------------------------------
 BYTE   W24
 BYTE   N11  Dn3  v074
 BYTE   W12
 BYTE   Dn3
 BYTE   W12
 BYTE   Ds3
 BYTE   W12
 BYTE   Ds3
 BYTE   W12
 BYTE   Fn3
 BYTE   W12
 BYTE   Fn3
 BYTE   W12
//  #08 //038   ----------------------------------------
 BYTE   As2
 BYTE   W12
 BYTE   As2
 BYTE   W12
 BYTE   N20  Cn3
 BYTE   W24
 BYTE   Cn3
 BYTE   W24
 BYTE   Cs3
 BYTE   BEND   c_v-3
 BYTE   W01
 BYTE   BEND   c_v-2
 BYTE   W02
 BYTE   BEND   c_v-1
 BYTE   W02
 BYTE   BEND   c_v+0
 BYTE   W19
//  #08 //039   ----------------------------------------
 BYTE   N11  Ds3
 BYTE   W12
 BYTE   N23  Cs3
 BYTE   BEND   c_v-3
 BYTE   W01
 BYTE   BEND   c_v-2
 BYTE   W02
 BYTE   BEND   c_v-1
 BYTE   W02
 BYTE   BEND   c_v+0
 BYTE   W19
 BYTE   N11  Cn3
 BYTE   W12
 BYTE   TIE  As2
 BYTE   W48
//  #08 //040   ----------------------------------------
 BYTE   W54
 BYTE   W01
 BYTE   EOT
 BYTE   W40
 BYTE   W01
//  #08 //041   ----------------------------------------
 BYTE   W96
//  #08 //042   ----------------------------------------
 BYTE   PATT
  POIN2 Label_010261FE
//  #08 //043   ----------------------------------------
 BYTE   PATT
  POIN2 Label_010261B6
//  #08 //044   ----------------------------------------
 BYTE   PATT
  POIN2 Label_010261C0
//  #08 //045   ----------------------------------------
 BYTE   PATT
  POIN2 Label_01026217
//  #08 //046   ----------------------------------------
 BYTE   PATT
  POIN2 Label_010261DA
//  #08 //047   ----------------------------------------
 BYTE   PATT
  POIN2 Label_010261E8
//  #08 //048   ----------------------------------------
 BYTE   PATT
  POIN2 Label_010261F3
//  #08 //049   ----------------------------------------
 BYTE   W44
 BYTE   W01
 BYTE   EOT
 BYTE   Gs3
 BYTE   W48
 BYTE   W03
//  #08 //050   ----------------------------------------
 BYTE   PATT
  POIN2 Label_010261FE
//  #08 //051   ----------------------------------------
 BYTE   PATT
  POIN2 Label_010261B6
//  #08 //052   ----------------------------------------
 BYTE   PATT
  POIN2 Label_010261C0
//  #08 //053   ----------------------------------------
 BYTE   W12
 BYTE   N23  Fn3  v074
 BYTE   W24
 BYTE   N11  As2
 BYTE   W12
 BYTE   N56  Cs3
 BYTE   W48
//  #08 //054   ----------------------------------------
 BYTE   PATT
  POIN2 Label_010261DA
//  #08 //055   ----------------------------------------
 BYTE   N20  Ds3  v074
 BYTE   W24
 BYTE   N40  Fn3  v074  gtp1
 BYTE   W48
 BYTE   N20  Cs3
 BYTE   W24
//  #08 //056   ----------------------------------------
 BYTE   PATT
  POIN2 Label_010261F3
//  #08 //057   ----------------------------------------
 BYTE   W18
 BYTE   EOT
 BYTE   Gs3
 BYTE   W06
 BYTE   N20  En3  v074
 BYTE   W24
 BYTE   N11  Dn3
 BYTE   W12
 BYTE   N20  Cs3
 BYTE   W24
 BYTE   An2
 BYTE   W12
//  #08 //058   ----------------------------------------
Label_0102634F:
 BYTE   W12
 BYTE   N78  Bn2  v074
 BYTE   W84
 BYTE   PEND 
//  #08 //059   ----------------------------------------
 BYTE   W12
 BYTE   N11  An2
 BYTE   W12
 BYTE   N20  Cs3
 BYTE   W24
 BYTE   N11  Dn3
 BYTE   W12
 BYTE   N20  En3
 BYTE   W24
 BYTE   Fs3
 BYTE   W12
//  #08 //060   ----------------------------------------
 BYTE   PATT
  POIN2 Label_0102634F
//  #08 //061   ----------------------------------------
 BYTE   W24
 BYTE   N20  Dn3  v074
 BYTE   W24
 BYTE   N11  Ds3
 BYTE   W12
 BYTE   N20  Fn3
 BYTE   W24
 BYTE   Gn3
 BYTE   W12
//  #08 //062   ----------------------------------------
 BYTE   W12
 BYTE   N78  Cn3
 BYTE   W84
//  #08 //063   ----------------------------------------
 BYTE   W12
 BYTE   N11
 BYTE   W12
 BYTE   N20  Cs3
 BYTE   W24
 BYTE   N11  Ds3
 BYTE   W12
 BYTE   N20  En3
 BYTE   W24
 BYTE   Fs3
 BYTE   W12
//  #08 //064   ----------------------------------------
 BYTE   W12
 BYTE   TIE  Gs3
 BYTE   W84
//  #08 //065   ----------------------------------------
 BYTE   W24
 BYTE   EOT
 BYTE   W72
//  #08 //066   ----------------------------------------
 BYTE   GoTo
  POIN2 Label_010261A8
//  #08 //067   ----------------------------------------
 BYTE   W11
 BYTE   FINE

//******************************************************//
	ALIGN 4

SonicRRadicalCityTak:
	BYTE	8	// NumTrks
	BYTE	0	// NumBlks
	BYTE	SonicRRadicalCityTak_pri	// Priority
	BYTE	SonicRRadicalCityTak_rev	// Reverb.
    
	POIN2	SonicRRadicalCityTak_grp
    
	POIN2	SonicRRadicalCityTak_001
	POIN2	SonicRRadicalCityTak_002
	POIN2	SonicRRadicalCityTak_003
	POIN2	SonicRRadicalCityTak_004
	POIN2	SonicRRadicalCityTak_005
	POIN2	SonicRRadicalCityTak_006
	POIN2	SonicRRadicalCityTak_007
	POIN2	SonicRRadicalCityTak_008

	
