//Event file generated from Sappy .s format.
	#include "MPlayDef.event"

	#define	AdvanceWarsAndysThemeMrGreen3339_grp  voicegroup000
	#define	AdvanceWarsAndysThemeMrGreen3339_pri  0
	#define	AdvanceWarsAndysThemeMrGreen3339_rev  0
	#define	AdvanceWarsAndysThemeMrGreen3339_mvl  127
	#define	AdvanceWarsAndysThemeMrGreen3339_key  0
	#define	AdvanceWarsAndysThemeMrGreen3339_tbs  1
	#define	AdvanceWarsAndysThemeMrGreen3339_exg  0
	#define	AdvanceWarsAndysThemeMrGreen3339_cmp  1

	// .rodata
	//	AdvanceWarsAndysThemeMrGreen3339
	ALIGN 4


//**************** Track 1 (Midi-Chn.0) ****************//

AdvanceWarsAndysThemeMrGreen3339_001:
// 000   ----------------------------------------
 BYTE   KEYSH   AdvanceWarsAndysThemeMrGreen3339_key+0
 BYTE   TEMPO   110*AdvanceWarsAndysThemeMrGreen3339_tbs/2
 BYTE   VOICE   30
 BYTE   VOL   65*AdvanceWarsAndysThemeMrGreen3339_mvl/mxv
 BYTE   PAN   c_v+0
 BYTE   VOL   65*AdvanceWarsAndysThemeMrGreen3339_mvl/mxv
 BYTE   PAN   c_v+0
 BYTE   W96
// 001   ----------------------------------------
 BYTE   W96
// 002   ----------------------------------------
Label_0_0100A4D8:
 BYTE   W96
// 003   ----------------------------------------
 BYTE   W96
// 004   ----------------------------------------
 BYTE   W96
// 005   ----------------------------------------
 BYTE   W96
// 006   ----------------------------------------
 BYTE   W96
// 007   ----------------------------------------
 BYTE   W96
// 008   ----------------------------------------
 BYTE   W96
// 009   ----------------------------------------
 BYTE   W96
// 010   ----------------------------------------
Label_0_0100A4E0:
 BYTE   N17  Bn3  v112
 BYTE   W18
 BYTE   N36  En4
 BYTE   W42
 BYTE   N11  Gs4
 BYTE   W12
 BYTE   Fs4
 BYTE   W12
 BYTE   En4
 BYTE   W12
 BYTE   PEND 
// 011   ----------------------------------------
Label_0_0100A4EF:
 BYTE   N11  Dn4  v112
 BYTE   W12
 BYTE   N04  Cs4
 BYTE   W04
 BYTE   Dn4
 BYTE   W04
 BYTE   N03  Cs4
 BYTE   W04
 BYTE   N11  Bn3
 BYTE   W12
 BYTE   N20  An3
 BYTE   W24
 BYTE   N04  Gs3
 BYTE   W04
 BYTE   An3
 BYTE   W04
 BYTE   N03  Gs3
 BYTE   W04
 BYTE   N20  En3
 BYTE   W24
 BYTE   PEND 
 BYTE   PATT
  POIN2 Label_0_0100A4E0
// 012   ----------------------------------------
Label_0_0100A512:
 BYTE   N11  Dn4  v112
 BYTE   W12
 BYTE   Cs4
 BYTE   W12
 BYTE   Bn3
 BYTE   W12
 BYTE   N56  An4
 BYTE   W60
 BYTE   PEND 
// 013   ----------------------------------------
 BYTE   W96
// 014   ----------------------------------------
Label_0_0100A51F:
 BYTE   N11  An4  v112
 BYTE   W12
 BYTE   N03  Gs4
 BYTE   W04
 BYTE   An4
 BYTE   W04
 BYTE   Gs4
 BYTE   W04
 BYTE   N11  En4
 BYTE   W12
 BYTE   N20  An4
 BYTE   W24
 BYTE   N11  Gs4
 BYTE   W12
 BYTE   N20  En4
 BYTE   W24
 BYTE   PEND 
// 015   ----------------------------------------
 BYTE   N90  Bn3
 BYTE   W96
// 016   ----------------------------------------
Label_0_0100A53A:
 BYTE   N11  An4  v112
 BYTE   W12
 BYTE   N03  Gs4
 BYTE   W04
 BYTE   An4
 BYTE   W04
 BYTE   Gs4
 BYTE   W04
 BYTE   N11  En4
 BYTE   W12
 BYTE   N20  Bn3
 BYTE   W24
 BYTE   N32  En4
 BYTE   W36
 BYTE   PEND 
 BYTE   PATT
  POIN2 Label_0_0100A4E0
 BYTE   PATT
  POIN2 Label_0_0100A4EF
 BYTE   PATT
  POIN2 Label_0_0100A4E0
 BYTE   PATT
  POIN2 Label_0_0100A512
// 017   ----------------------------------------
 BYTE   W96
 BYTE   PATT
  POIN2 Label_0_0100A51F
// 018   ----------------------------------------
 BYTE   N90  Bn3  v112
 BYTE   W96
 BYTE   PATT
  POIN2 Label_0_0100A53A
// 019   ----------------------------------------
Label_0_0100A572:
 BYTE   W12
 BYTE   N05  Bn3  v112
 BYTE   W06
 BYTE   N05
 BYTE   W06
 BYTE   Dn4
 BYTE   W06
 BYTE   N11  En4
 BYTE   W12
 BYTE   An4
 BYTE   W12
 BYTE   N05  Gn4
 BYTE   W06
 BYTE   N11  An4
 BYTE   W12
 BYTE   N20  Gn4
 BYTE   W24
 BYTE   PEND 
// 020   ----------------------------------------
Label_0_0100A58A:
 BYTE   N17  Dn5  v112
 BYTE   W18
 BYTE   N05  Cs5
 BYTE   W06
 BYTE   Bn4
 BYTE   W06
 BYTE   N11  An4
 BYTE   W12
 BYTE   En4
 BYTE   W12
 BYTE   N05  An4
 BYTE   W06
 BYTE   Gs4
 BYTE   W06
 BYTE   En4
 BYTE   W06
 BYTE   N11  An4
 BYTE   W12
 BYTE   N05  Gs4
 BYTE   W06
 BYTE   En4
 BYTE   W06
 BYTE   PEND 
// 021   ----------------------------------------
Label_0_0100A5A8:
 BYTE   W12
 BYTE   N32  Gn4  v112
 BYTE   W36
 BYTE   Bn4
 BYTE   W36
 BYTE   N11  An4
 BYTE   W12
 BYTE   PEND 
// 022   ----------------------------------------
 BYTE   N05  Gn4
 BYTE   W06
 BYTE   En4
 BYTE   W12
 BYTE   N11  Dn4
 BYTE   W12
 BYTE   N05  Bn3
 BYTE   W06
 BYTE   N11  En4
 BYTE   W12
 BYTE   Dn4
 BYTE   W12
 BYTE   N05
 BYTE   W06
 BYTE   Cs4
 BYTE   W06
 BYTE   N20  Bn3
 BYTE   W24
 BYTE   PATT
  POIN2 Label_0_0100A572
 BYTE   PATT
  POIN2 Label_0_0100A58A
 BYTE   PATT
  POIN2 Label_0_0100A5A8
// 023   ----------------------------------------
 BYTE   N05  Gn4  v112
 BYTE   W06
 BYTE   En4
 BYTE   W12
 BYTE   N11  Dn4
 BYTE   W12
 BYTE   N05  Bn3
 BYTE   W06
 BYTE   N11  En4
 BYTE   W12
 BYTE   N42  Dn4
 BYTE   W48
// 024   ----------------------------------------
 BYTE   GoTo
  POIN2 Label_0_0100A4D8
 BYTE   FINE

//**************** Track 2 (Midi-Chn.1) ****************//

AdvanceWarsAndysThemeMrGreen3339_002:
// 000   ----------------------------------------
 BYTE   KEYSH   AdvanceWarsAndysThemeMrGreen3339_key+0
 BYTE   VOICE   30
 BYTE   VOL   65*AdvanceWarsAndysThemeMrGreen3339_mvl/mxv
 BYTE   PAN   c_v+0
 BYTE   VOL   65*AdvanceWarsAndysThemeMrGreen3339_mvl/mxv
 BYTE   PAN   c_v+0
 BYTE   W96
// 001   ----------------------------------------
 BYTE   W96
// 002   ----------------------------------------
Label_1_0100A602:
 BYTE   N17  Bn2  v060
 BYTE   N17  En3
 BYTE   W18
 BYTE   N05  Bn2
 BYTE   N05  En3
 BYTE   W06
 BYTE   Bn2
 BYTE   N05  En3
 BYTE   W06
 BYTE   N11  Bn2
 BYTE   N11  En3
 BYTE   W12
 BYTE   N17  Bn2
 BYTE   N17  Ds3
 BYTE   W18
 BYTE   N20  Bn2
 BYTE   N20  Ds3
 BYTE   W24
 BYTE   N11  Bn2
 BYTE   N11  Ds3
 BYTE   W12
 BYTE   PEND 
// 003   ----------------------------------------
Label_1_0100A626:
 BYTE   N17  An2  v060
 BYTE   N17  Dn3
 BYTE   W18
 BYTE   N05  An2
 BYTE   N05  Dn3
 BYTE   W06
 BYTE   An2
 BYTE   N05  Dn3
 BYTE   W06
 BYTE   N11  An2
 BYTE   N11  Dn3
 BYTE   W12
 BYTE   N17  An2
 BYTE   N17  Cs3
 BYTE   W18
 BYTE   N20  An2
 BYTE   N20  Cs3
 BYTE   W24
 BYTE   N11  An2
 BYTE   N11  Cs3
 BYTE   W12
 BYTE   PEND 
// 004   ----------------------------------------
Label_1_0100A64A:
 BYTE   N17  Bn2  v060
 BYTE   N17  En3
 BYTE   W18
 BYTE   N05  Bn2
 BYTE   N05  En3
 BYTE   W06
 BYTE   Bn2
 BYTE   N05  En3
 BYTE   W06
 BYTE   N11  Bn2
 BYTE   N11  En3
 BYTE   W12
 BYTE   N17  Bn2
 BYTE   N17  Ds3
 BYTE   W18
 BYTE   N20  Bn2
 BYTE   N20  Ds3
 BYTE   W24
 BYTE   N54  Dn3
 BYTE   N54  Gn3
 BYTE   W12
 BYTE   PEND 
// 005   ----------------------------------------
Label_1_0100A66E:
 BYTE   W48
 BYTE   N32  An2  v060
 BYTE   N32  Fs3
 BYTE   W48
 BYTE   PEND 
 BYTE   PATT
  POIN2 Label_1_0100A602
 BYTE   PATT
  POIN2 Label_1_0100A626
 BYTE   PATT
  POIN2 Label_1_0100A64A
 BYTE   PATT
  POIN2 Label_1_0100A66E
// 006   ----------------------------------------
 BYTE   W96
// 007   ----------------------------------------
 BYTE   W96
// 008   ----------------------------------------
 BYTE   W96
// 009   ----------------------------------------
 BYTE   W96
// 010   ----------------------------------------
 BYTE   W96
// 011   ----------------------------------------
 BYTE   W96
// 012   ----------------------------------------
 BYTE   W96
// 013   ----------------------------------------
 BYTE   W96
// 014   ----------------------------------------
 BYTE   W96
// 015   ----------------------------------------
 BYTE   W96
// 016   ----------------------------------------
 BYTE   W96
// 017   ----------------------------------------
 BYTE   W96
// 018   ----------------------------------------
 BYTE   W96
// 019   ----------------------------------------
 BYTE   W96
// 020   ----------------------------------------
 BYTE   W96
// 021   ----------------------------------------
 BYTE   W96
 BYTE   PATT
  POIN2 Label_1_0100A602
 BYTE   PATT
  POIN2 Label_1_0100A626
 BYTE   PATT
  POIN2 Label_1_0100A64A
 BYTE   PATT
  POIN2 Label_1_0100A66E
 BYTE   PATT
  POIN2 Label_1_0100A602
 BYTE   PATT
  POIN2 Label_1_0100A626
 BYTE   PATT
  POIN2 Label_1_0100A64A
 BYTE   PATT
  POIN2 Label_1_0100A66E
// 022   ----------------------------------------
 BYTE   GoTo
  POIN2 Label_1_0100A602
 BYTE   FINE

//**************** Track 3 (Midi-Chn.2) ****************//

AdvanceWarsAndysThemeMrGreen3339_003:
// 000   ----------------------------------------
 BYTE   KEYSH   AdvanceWarsAndysThemeMrGreen3339_key+0
 BYTE   VOICE   127
 BYTE   VOL   65*AdvanceWarsAndysThemeMrGreen3339_mvl/mxv
 BYTE   PAN   c_v+0
 BYTE   VOL   65*AdvanceWarsAndysThemeMrGreen3339_mvl/mxv
 BYTE   PAN   c_v+0
 BYTE   N11  Bn0  v112
 BYTE   N11  Cn1
 BYTE   N11  Fs1
 BYTE   W12
 BYTE   N05
 BYTE   W06
 BYTE   Bn0
 BYTE   N05  Cn1
 BYTE   W06
 BYTE   Dn1
 BYTE   N05  Ds1
 BYTE   N05  As1
 BYTE   W06
 BYTE   Bn0
 BYTE   N05  Cn1
 BYTE   W06
 BYTE   Fs1
 BYTE   W06
 BYTE   Bn0
 BYTE   N05  Cn1
 BYTE   W06
 BYTE   N03  Fs1
 BYTE   W04
 BYTE   N03
 BYTE   W04
 BYTE   N03
 BYTE   W04
 BYTE   N11  Bn0
 BYTE   N11  Cn1
 BYTE   N11  As1
 BYTE   W12
 BYTE   N05  Dn1
 BYTE   N05  Ds1
 BYTE   N05  Fs1
 BYTE   W06
 BYTE   Bn0
 BYTE   N05  Cn1
 BYTE   W06
 BYTE   N11  As1
 BYTE   W12
// 001   ----------------------------------------
 BYTE   Bn0
 BYTE   N11  Cn1
 BYTE   N11  Fs1
 BYTE   W12
 BYTE   N05
 BYTE   W06
 BYTE   Bn0
 BYTE   N05  Cn1
 BYTE   W06
 BYTE   Dn1
 BYTE   N05  Ds1
 BYTE   N05  As1
 BYTE   W06
 BYTE   Bn0
 BYTE   N05  Cn1
 BYTE   W06
 BYTE   Fs1
 BYTE   W06
 BYTE   Bn0
 BYTE   N05  Cn1
 BYTE   W06
 BYTE   N03  Fs1
 BYTE   W04
 BYTE   N03
 BYTE   W04
 BYTE   N03
 BYTE   W04
 BYTE   N11  Bn0
 BYTE   N11  Cn1
 BYTE   N11  As1
 BYTE   W12
 BYTE   N05  Dn1
 BYTE   N05  Ds1
 BYTE   N05  Fs1
 BYTE   W06
 BYTE   Dn1
 BYTE   N05  Ds1
 BYTE   W06
 BYTE   Bn0
 BYTE   N05  Cn1
 BYTE   N05  As1
 BYTE   W06
 BYTE   Dn1
 BYTE   N05  Ds1
 BYTE   W06
// 002   ----------------------------------------
Label_2_0100A74D:
 BYTE   N11  Bn0  v112
 BYTE   N11  Cn1
 BYTE   N11  Fs1
 BYTE   N11  Cs2
 BYTE   W12
 BYTE   N05  Fs1
 BYTE   W06
 BYTE   Bn0
 BYTE   N05  Cn1
 BYTE   W06
 BYTE   N11  Dn1
 BYTE   N11  Ds1
 BYTE   N11  As1
 BYTE   W12
 BYTE   Fs1
 BYTE   W12
 BYTE   N03  Bn0
 BYTE   N03  Cn1
 BYTE   N03  Fs1
 BYTE   W04
 BYTE   N03
 BYTE   W04
 BYTE   N03
 BYTE   W04
 BYTE   N11  Bn0
 BYTE   N11  Cn1
 BYTE   N11  As1
 BYTE   W12
 BYTE   N05  Dn1
 BYTE   N05  Ds1
 BYTE   N05  Fs1
 BYTE   W06
 BYTE   Bn0
 BYTE   N05  Cn1
 BYTE   W06
 BYTE   N11  As1
 BYTE   W12
 BYTE   PEND 
// 003   ----------------------------------------
Label_2_0100A788:
 BYTE   N11  Bn0  v112
 BYTE   N11  Cn1
 BYTE   N11  Fs1
 BYTE   W12
 BYTE   N05
 BYTE   W06
 BYTE   Bn0
 BYTE   N05  Cn1
 BYTE   W06
 BYTE   N11  Dn1
 BYTE   N11  Ds1
 BYTE   N11  As1
 BYTE   W12
 BYTE   Fs1
 BYTE   W12
 BYTE   N03  Bn0
 BYTE   N03  Cn1
 BYTE   N03  Fs1
 BYTE   W04
 BYTE   N03
 BYTE   W04
 BYTE   N03
 BYTE   W04
 BYTE   N11  Bn0
 BYTE   N11  Cn1
 BYTE   N11  As1
 BYTE   W12
 BYTE   N05  Dn1
 BYTE   N05  Ds1
 BYTE   N05  Fs1
 BYTE   W06
 BYTE   Bn0
 BYTE   N05  Cn1
 BYTE   W06
 BYTE   N11  As1
 BYTE   W12
 BYTE   PEND 
 BYTE   PATT
  POIN2 Label_2_0100A788
 BYTE   PATT
  POIN2 Label_2_0100A788
 BYTE   PATT
  POIN2 Label_2_0100A74D
 BYTE   PATT
  POIN2 Label_2_0100A788
 BYTE   PATT
  POIN2 Label_2_0100A788
// 004   ----------------------------------------
 BYTE   N11  Bn0  v112
 BYTE   N11  Cn1
 BYTE   N11  Fs1
 BYTE   W12
 BYTE   N05
 BYTE   W06
 BYTE   Bn0
 BYTE   N05  Cn1
 BYTE   W06
 BYTE   N11  Dn1
 BYTE   N11  Ds1
 BYTE   N11  As1
 BYTE   W12
 BYTE   Fs1
 BYTE   W12
 BYTE   N05  Bn0
 BYTE   N05  Cn1
 BYTE   N05  Dn1
 BYTE   N05  Ds1
 BYTE   N05  Fs1
 BYTE   W06
 BYTE   Dn1
 BYTE   N05  Ds1
 BYTE   N05  Fs1
 BYTE   W06
 BYTE   N11  Bn0
 BYTE   N11  Cn1
 BYTE   N11  Dn1
 BYTE   N11  Ds1
 BYTE   N11  As1
 BYTE   W12
 BYTE   N05  Dn1
 BYTE   N05  Ds1
 BYTE   N05  Fs1
 BYTE   W06
 BYTE   Bn0
 BYTE   N05  Cn1
 BYTE   W06
 BYTE   N11  Dn1
 BYTE   N11  Ds1
 BYTE   N11  As1
 BYTE   W12
 BYTE   PATT
  POIN2 Label_2_0100A74D
 BYTE   PATT
  POIN2 Label_2_0100A788
 BYTE   PATT
  POIN2 Label_2_0100A788
 BYTE   PATT
  POIN2 Label_2_0100A788
 BYTE   PATT
  POIN2 Label_2_0100A788
 BYTE   PATT
  POIN2 Label_2_0100A788
 BYTE   PATT
  POIN2 Label_2_0100A788
 BYTE   PATT
  POIN2 Label_2_0100A788
 BYTE   PATT
  POIN2 Label_2_0100A74D
 BYTE   PATT
  POIN2 Label_2_0100A788
 BYTE   PATT
  POIN2 Label_2_0100A788
 BYTE   PATT
  POIN2 Label_2_0100A788
 BYTE   PATT
  POIN2 Label_2_0100A788
 BYTE   PATT
  POIN2 Label_2_0100A788
 BYTE   PATT
  POIN2 Label_2_0100A788
 BYTE   PATT
  POIN2 Label_2_0100A788
 BYTE   PATT
  POIN2 Label_2_0100A788
 BYTE   PATT
  POIN2 Label_2_0100A788
 BYTE   PATT
  POIN2 Label_2_0100A788
 BYTE   PATT
  POIN2 Label_2_0100A788
 BYTE   PATT
  POIN2 Label_2_0100A788
 BYTE   PATT
  POIN2 Label_2_0100A788
 BYTE   PATT
  POIN2 Label_2_0100A788
// 005   ----------------------------------------
 BYTE   N11  Bn0  v112
 BYTE   N11  Cn1
 BYTE   N11  Fs1
 BYTE   W12
 BYTE   N05
 BYTE   W06
 BYTE   Bn0
 BYTE   N05  Cn1
 BYTE   W06
 BYTE   Dn1
 BYTE   N05  Ds1
 BYTE   N05  As1
 BYTE   W06
 BYTE   Bn0
 BYTE   N05  Cn1
 BYTE   W06
 BYTE   Fs1
 BYTE   W06
 BYTE   Bn0
 BYTE   N05  Cn1
 BYTE   W06
 BYTE   Dn1
 BYTE   N05  Ds1
 BYTE   W06
 BYTE   Dn1
 BYTE   N05  Ds1
 BYTE   W06
 BYTE   N11  Bn0
 BYTE   N11  Cn1
 BYTE   N11  Dn1
 BYTE   N11  Ds1
 BYTE   N11  As1
 BYTE   W12
 BYTE   N05  Dn1
 BYTE   N05  Ds1
 BYTE   N05  Fs1
 BYTE   W06
 BYTE   Bn0
 BYTE   N05  Cn1
 BYTE   W06
 BYTE   Bn0
 BYTE   N05  Cn1
 BYTE   N05  Dn1
 BYTE   N05  Ds1
 BYTE   N05  As1
 BYTE   W06
 BYTE   Bn0
 BYTE   N05  Cn1
 BYTE   N05  Dn1
 BYTE   N05  Ds1
 BYTE   N05  As1
 BYTE   W06
// 006   ----------------------------------------
 BYTE   GoTo
  POIN2 Label_2_0100A74D
 BYTE   FINE

//**************** Track 4 (Midi-Chn.3) ****************//

AdvanceWarsAndysThemeMrGreen3339_004:
// 000   ----------------------------------------
 BYTE   KEYSH   AdvanceWarsAndysThemeMrGreen3339_key+0
 BYTE   VOICE   36
 BYTE   VOL   65*AdvanceWarsAndysThemeMrGreen3339_mvl/mxv
 BYTE   PAN   c_v+0
 BYTE   VOL   65*AdvanceWarsAndysThemeMrGreen3339_mvl/mxv
 BYTE   PAN   c_v+0
 BYTE   W96
// 001   ----------------------------------------
 BYTE   W96
// 002   ----------------------------------------
Label_3_0100A8F6:
 BYTE   N04  En0  v112
 BYTE   W18
 BYTE   N05
 BYTE   W06
 BYTE   N05
 BYTE   W06
 BYTE   Bn0
 BYTE   W06
 BYTE   En0
 BYTE   W06
 BYTE   En1
 BYTE   W06
 BYTE   N04  Bn0
 BYTE   W12
 BYTE   N04
 BYTE   W12
 BYTE   N05
 BYTE   W06
 BYTE   N17  Gn0
 BYTE   W18
 BYTE   PEND 
// 003   ----------------------------------------
Label_3_0100A90F:
 BYTE   N04  Dn0  v112
 BYTE   W18
 BYTE   N05
 BYTE   W06
 BYTE   N05
 BYTE   W06
 BYTE   An0
 BYTE   W06
 BYTE   Dn0
 BYTE   W06
 BYTE   Dn1
 BYTE   W06
 BYTE   N04  An0
 BYTE   W12
 BYTE   N04
 BYTE   W12
 BYTE   N05
 BYTE   W06
 BYTE   N17  En1
 BYTE   W18
 BYTE   PEND 
// 004   ----------------------------------------
Label_3_0100A928:
 BYTE   N04  En0  v112
 BYTE   W18
 BYTE   N05
 BYTE   W06
 BYTE   N05
 BYTE   W06
 BYTE   Bn0
 BYTE   W06
 BYTE   En0
 BYTE   W06
 BYTE   En1
 BYTE   W06
 BYTE   N04  Bn0
 BYTE   W12
 BYTE   N04
 BYTE   W12
 BYTE   N05
 BYTE   W06
 BYTE   Gn1
 BYTE   W06
 BYTE   N28  Gn0
 BYTE   W12
 BYTE   PEND 
// 005   ----------------------------------------
Label_3_0100A943:
 BYTE   W18
 BYTE   N05  Gn0  v112
 BYTE   W06
 BYTE   N05
 BYTE   W06
 BYTE   Dn1
 BYTE   W06
 BYTE   Gn0
 BYTE   W06
 BYTE   Dn1
 BYTE   W06
 BYTE   N04
 BYTE   W12
 BYTE   N04
 BYTE   W12
 BYTE   N05
 BYTE   W06
 BYTE   N17  An0
 BYTE   W18
 BYTE   PEND 
 BYTE   PATT
  POIN2 Label_3_0100A8F6
 BYTE   PATT
  POIN2 Label_3_0100A90F
 BYTE   PATT
  POIN2 Label_3_0100A928
 BYTE   PATT
  POIN2 Label_3_0100A943
// 006   ----------------------------------------
Label_3_0100A96E:
 BYTE   N04  En0  v112
 BYTE   W18
 BYTE   N05
 BYTE   W06
 BYTE   N05
 BYTE   W06
 BYTE   Bn0
 BYTE   W06
 BYTE   En0
 BYTE   W06
 BYTE   En1
 BYTE   W06
 BYTE   N04  En0
 BYTE   W12
 BYTE   N04
 BYTE   W12
 BYTE   N05
 BYTE   W06
 BYTE   N17
 BYTE   W18
 BYTE   PEND 
// 007   ----------------------------------------
Label_3_0100A986:
 BYTE   N04  An0  v112
 BYTE   W18
 BYTE   N05
 BYTE   W06
 BYTE   N05
 BYTE   W06
 BYTE   En1
 BYTE   W06
 BYTE   An0
 BYTE   W06
 BYTE   An1
 BYTE   W06
 BYTE   N04  Bn0
 BYTE   W12
 BYTE   N04
 BYTE   W12
 BYTE   N05  Dn0
 BYTE   W06
 BYTE   N17  En0
 BYTE   W18
 BYTE   PEND 
 BYTE   PATT
  POIN2 Label_3_0100A96E
// 008   ----------------------------------------
Label_3_0100A9A5:
 BYTE   N04  An0  v112
 BYTE   W18
 BYTE   N05
 BYTE   W06
 BYTE   N05
 BYTE   W06
 BYTE   En1
 BYTE   W06
 BYTE   An0
 BYTE   W06
 BYTE   An1
 BYTE   W06
 BYTE   N04  Bn0
 BYTE   W12
 BYTE   N04
 BYTE   W12
 BYTE   N05  Cs1
 BYTE   W06
 BYTE   N17  Bn0
 BYTE   W18
 BYTE   PEND 
 BYTE   PATT
  POIN2 Label_3_0100A96E
 BYTE   PATT
  POIN2 Label_3_0100A986
 BYTE   PATT
  POIN2 Label_3_0100A96E
 BYTE   PATT
  POIN2 Label_3_0100A9A5
 BYTE   PATT
  POIN2 Label_3_0100A96E
 BYTE   PATT
  POIN2 Label_3_0100A986
 BYTE   PATT
  POIN2 Label_3_0100A96E
 BYTE   PATT
  POIN2 Label_3_0100A9A5
 BYTE   PATT
  POIN2 Label_3_0100A96E
 BYTE   PATT
  POIN2 Label_3_0100A986
 BYTE   PATT
  POIN2 Label_3_0100A96E
 BYTE   PATT
  POIN2 Label_3_0100A9A5
 BYTE   PATT
  POIN2 Label_3_0100A8F6
 BYTE   PATT
  POIN2 Label_3_0100A90F
 BYTE   PATT
  POIN2 Label_3_0100A928
 BYTE   PATT
  POIN2 Label_3_0100A943
 BYTE   PATT
  POIN2 Label_3_0100A8F6
 BYTE   PATT
  POIN2 Label_3_0100A90F
 BYTE   PATT
  POIN2 Label_3_0100A928
 BYTE   PATT
  POIN2 Label_3_0100A943
// 009   ----------------------------------------
 BYTE   GoTo
  POIN2 Label_3_0100A8F6
 BYTE   FINE

//**************** Track 5 (Midi-Chn.4) ****************//

AdvanceWarsAndysThemeMrGreen3339_005:
// 000   ----------------------------------------
 BYTE   KEYSH   AdvanceWarsAndysThemeMrGreen3339_key+0
 BYTE   VOICE   39
 BYTE   VOL   65*AdvanceWarsAndysThemeMrGreen3339_mvl/mxv
 BYTE   PAN   c_v+0
 BYTE   VOL   65*AdvanceWarsAndysThemeMrGreen3339_mvl/mxv
 BYTE   PAN   c_v+0
 BYTE   W96
// 001   ----------------------------------------
 BYTE   W96
// 002   ----------------------------------------
Label_4_0100AA3A:
 BYTE   N04  En0  v112
 BYTE   W18
 BYTE   N05
 BYTE   W06
 BYTE   N05
 BYTE   W06
 BYTE   Bn0
 BYTE   W06
 BYTE   En0
 BYTE   W06
 BYTE   En1
 BYTE   W06
 BYTE   N04  Bn0
 BYTE   W12
 BYTE   N04
 BYTE   W12
 BYTE   N05
 BYTE   W06
 BYTE   N17  Gn0
 BYTE   W18
 BYTE   PEND 
// 003   ----------------------------------------
Label_4_0100AA53:
 BYTE   N04  Dn0  v112
 BYTE   W18
 BYTE   N05
 BYTE   W06
 BYTE   N05
 BYTE   W06
 BYTE   An0
 BYTE   W06
 BYTE   Dn0
 BYTE   W06
 BYTE   Dn1
 BYTE   W06
 BYTE   N04  An0
 BYTE   W12
 BYTE   N04
 BYTE   W12
 BYTE   N05
 BYTE   W06
 BYTE   N17  En1
 BYTE   W18
 BYTE   PEND 
// 004   ----------------------------------------
Label_4_0100AA6C:
 BYTE   N04  En0  v112
 BYTE   W18
 BYTE   N05
 BYTE   W06
 BYTE   N05
 BYTE   W06
 BYTE   Bn0
 BYTE   W06
 BYTE   En0
 BYTE   W06
 BYTE   En1
 BYTE   W06
 BYTE   N04  Bn0
 BYTE   W12
 BYTE   N04
 BYTE   W12
 BYTE   N05
 BYTE   W06
 BYTE   Gn1
 BYTE   W06
 BYTE   N28  Gn0
 BYTE   W12
 BYTE   PEND 
// 005   ----------------------------------------
Label_4_0100AA87:
 BYTE   W18
 BYTE   N05  Gn0  v112
 BYTE   W06
 BYTE   N05
 BYTE   W06
 BYTE   Dn1
 BYTE   W06
 BYTE   Gn0
 BYTE   W06
 BYTE   Dn1
 BYTE   W06
 BYTE   N04
 BYTE   W12
 BYTE   N04
 BYTE   W12
 BYTE   N05
 BYTE   W06
 BYTE   N17  An0
 BYTE   W18
 BYTE   PEND 
 BYTE   PATT
  POIN2 Label_4_0100AA3A
 BYTE   PATT
  POIN2 Label_4_0100AA53
 BYTE   PATT
  POIN2 Label_4_0100AA6C
 BYTE   PATT
  POIN2 Label_4_0100AA87
// 006   ----------------------------------------
Label_4_0100AAB2:
 BYTE   N04  En0  v112
 BYTE   W18
 BYTE   N05
 BYTE   W06
 BYTE   N05
 BYTE   W06
 BYTE   Bn0
 BYTE   W06
 BYTE   En0
 BYTE   W06
 BYTE   En1
 BYTE   W06
 BYTE   N04  En0
 BYTE   W12
 BYTE   N04
 BYTE   W12
 BYTE   N05
 BYTE   W06
 BYTE   N17
 BYTE   W18
 BYTE   PEND 
// 007   ----------------------------------------
Label_4_0100AACA:
 BYTE   N04  An0  v112
 BYTE   W18
 BYTE   N05
 BYTE   W06
 BYTE   N05
 BYTE   W06
 BYTE   En1
 BYTE   W06
 BYTE   An0
 BYTE   W06
 BYTE   An1
 BYTE   W06
 BYTE   N04  Bn0
 BYTE   W12
 BYTE   N04
 BYTE   W12
 BYTE   N05  Dn0
 BYTE   W06
 BYTE   N17  En0
 BYTE   W18
 BYTE   PEND 
 BYTE   PATT
  POIN2 Label_4_0100AAB2
// 008   ----------------------------------------
Label_4_0100AAE9:
 BYTE   N04  An0  v112
 BYTE   W18
 BYTE   N05
 BYTE   W06
 BYTE   N05
 BYTE   W06
 BYTE   En1
 BYTE   W06
 BYTE   An0
 BYTE   W06
 BYTE   An1
 BYTE   W06
 BYTE   N04  Bn0
 BYTE   W12
 BYTE   N04
 BYTE   W12
 BYTE   N05  Cs1
 BYTE   W06
 BYTE   N17  Bn0
 BYTE   W18
 BYTE   PEND 
 BYTE   PATT
  POIN2 Label_4_0100AAB2
 BYTE   PATT
  POIN2 Label_4_0100AACA
 BYTE   PATT
  POIN2 Label_4_0100AAB2
 BYTE   PATT
  POIN2 Label_4_0100AAE9
 BYTE   PATT
  POIN2 Label_4_0100AAB2
 BYTE   PATT
  POIN2 Label_4_0100AACA
 BYTE   PATT
  POIN2 Label_4_0100AAB2
 BYTE   PATT
  POIN2 Label_4_0100AAE9
 BYTE   PATT
  POIN2 Label_4_0100AAB2
 BYTE   PATT
  POIN2 Label_4_0100AACA
 BYTE   PATT
  POIN2 Label_4_0100AAB2
 BYTE   PATT
  POIN2 Label_4_0100AAE9
 BYTE   PATT
  POIN2 Label_4_0100AA3A
 BYTE   PATT
  POIN2 Label_4_0100AA53
 BYTE   PATT
  POIN2 Label_4_0100AA6C
 BYTE   PATT
  POIN2 Label_4_0100AA87
 BYTE   PATT
  POIN2 Label_4_0100AA3A
 BYTE   PATT
  POIN2 Label_4_0100AA53
 BYTE   PATT
  POIN2 Label_4_0100AA6C
 BYTE   PATT
  POIN2 Label_4_0100AA87
// 009   ----------------------------------------
 BYTE   GoTo
  POIN2 Label_4_0100AA3A
 BYTE   FINE

//**************** Track 6 (Midi-Chn.5) ****************//

AdvanceWarsAndysThemeMrGreen3339_006:
// 000   ----------------------------------------
 BYTE   KEYSH   AdvanceWarsAndysThemeMrGreen3339_key+0
 BYTE   VOICE   29
 BYTE   VOL   65*AdvanceWarsAndysThemeMrGreen3339_mvl/mxv
 BYTE   PAN   c_v+0
 BYTE   VOL   65*AdvanceWarsAndysThemeMrGreen3339_mvl/mxv
 BYTE   PAN   c_v+0
 BYTE   W96
// 001   ----------------------------------------
 BYTE   W96
// 002   ----------------------------------------
Label_5_0100AB7E:
 BYTE   N17  En3  v060
 BYTE   W18
 BYTE   N05
 BYTE   W06
 BYTE   N17
 BYTE   W18
 BYTE   N11  Ds3
 BYTE   W12
 BYTE   N05
 BYTE   W06
 BYTE   N11
 BYTE   W12
 BYTE   N11
 BYTE   W12
 BYTE   N11
 BYTE   W12
 BYTE   PEND 
// 003   ----------------------------------------
Label_5_0100AB92:
 BYTE   N17  Dn3  v060
 BYTE   W18
 BYTE   N05
 BYTE   W06
 BYTE   N17
 BYTE   W18
 BYTE   N11  Cs3
 BYTE   W12
 BYTE   N05
 BYTE   W06
 BYTE   N11
 BYTE   W12
 BYTE   N11
 BYTE   W12
 BYTE   En3
 BYTE   W12
 BYTE   PEND 
// 004   ----------------------------------------
Label_5_0100ABA6:
 BYTE   N17  En3  v060
 BYTE   W18
 BYTE   N05
 BYTE   W06
 BYTE   N17
 BYTE   W18
 BYTE   N11  Ds3
 BYTE   W12
 BYTE   N05
 BYTE   W06
 BYTE   N11
 BYTE   W12
 BYTE   N11
 BYTE   W12
 BYTE   N54  Gn3
 BYTE   W12
 BYTE   PEND 
// 005   ----------------------------------------
 BYTE   W48
 BYTE   N42  Fs3
 BYTE   W48
 BYTE   PATT
  POIN2 Label_5_0100AB7E
 BYTE   PATT
  POIN2 Label_5_0100AB92
 BYTE   PATT
  POIN2 Label_5_0100ABA6
// 006   ----------------------------------------
 BYTE   W48
 BYTE   N42  Fs3  v060
 BYTE   W48
// 007   ----------------------------------------
 BYTE   W96
// 008   ----------------------------------------
 BYTE   W96
// 009   ----------------------------------------
 BYTE   W96
// 010   ----------------------------------------
 BYTE   W96
// 011   ----------------------------------------
 BYTE   N90  Bn3
 BYTE   W96
// 012   ----------------------------------------
 BYTE   W96
// 013   ----------------------------------------
 BYTE   N90
 BYTE   W96
// 014   ----------------------------------------
 BYTE   W96
// 015   ----------------------------------------
 BYTE   W96
// 016   ----------------------------------------
 BYTE   W96
// 017   ----------------------------------------
 BYTE   W96
// 018   ----------------------------------------
 BYTE   W96
// 019   ----------------------------------------
 BYTE   N90
 BYTE   W96
// 020   ----------------------------------------
 BYTE   W96
// 021   ----------------------------------------
 BYTE   N90
 BYTE   W96
// 022   ----------------------------------------
 BYTE   W96
 BYTE   PATT
  POIN2 Label_5_0100AB7E
 BYTE   PATT
  POIN2 Label_5_0100AB92
 BYTE   PATT
  POIN2 Label_5_0100ABA6
// 023   ----------------------------------------
 BYTE   W48
 BYTE   N42  Fs3  v060
 BYTE   W48
 BYTE   PATT
  POIN2 Label_5_0100AB7E
 BYTE   PATT
  POIN2 Label_5_0100AB92
 BYTE   PATT
  POIN2 Label_5_0100ABA6
// 024   ----------------------------------------
 BYTE   W48
 BYTE   N42  Fs3  v060
 BYTE   W48
// 025   ----------------------------------------
 BYTE   GoTo
  POIN2 Label_5_0100AB7E
 BYTE   FINE

//**************** Track 7 (Midi-Chn.6) ****************//

AdvanceWarsAndysThemeMrGreen3339_007:
// 000   ----------------------------------------
 BYTE   KEYSH   AdvanceWarsAndysThemeMrGreen3339_key+0
 BYTE   VOICE   61
 BYTE   VOL   65*AdvanceWarsAndysThemeMrGreen3339_mvl/mxv
 BYTE   PAN   c_v+0
 BYTE   VOL   65*AdvanceWarsAndysThemeMrGreen3339_mvl/mxv
 BYTE   PAN   c_v+0
 BYTE   W96
// 001   ----------------------------------------
 BYTE   W96
// 002   ----------------------------------------
Label_6_0100AC26:
 BYTE   N17  En3  v060
 BYTE   W18
 BYTE   N05
 BYTE   W06
 BYTE   N17
 BYTE   W18
 BYTE   N11  Ds3
 BYTE   W12
 BYTE   N05
 BYTE   W06
 BYTE   N11
 BYTE   W12
 BYTE   N11
 BYTE   W12
 BYTE   N11
 BYTE   W12
 BYTE   PEND 
// 003   ----------------------------------------
Label_6_0100AC3A:
 BYTE   N17  Dn3  v060
 BYTE   W18
 BYTE   N05
 BYTE   W06
 BYTE   N17
 BYTE   W18
 BYTE   N11  Cs3
 BYTE   W12
 BYTE   N05
 BYTE   W06
 BYTE   N11
 BYTE   W12
 BYTE   N11
 BYTE   W12
 BYTE   En3
 BYTE   W12
 BYTE   PEND 
// 004   ----------------------------------------
Label_6_0100AC4E:
 BYTE   N17  En3  v060
 BYTE   W18
 BYTE   N05
 BYTE   W06
 BYTE   N17
 BYTE   W18
 BYTE   N11  Ds3
 BYTE   W12
 BYTE   N05
 BYTE   W06
 BYTE   N11
 BYTE   W12
 BYTE   N11
 BYTE   W12
 BYTE   N54  Bn3
 BYTE   W12
 BYTE   PEND 
// 005   ----------------------------------------
 BYTE   W48
 BYTE   N42  An3
 BYTE   W48
 BYTE   PATT
  POIN2 Label_6_0100AC26
 BYTE   PATT
  POIN2 Label_6_0100AC3A
 BYTE   PATT
  POIN2 Label_6_0100AC4E
// 006   ----------------------------------------
 BYTE   W48
 BYTE   N42  An3  v060
 BYTE   W48
// 007   ----------------------------------------
 BYTE   W96
// 008   ----------------------------------------
 BYTE   W96
// 009   ----------------------------------------
 BYTE   W96
// 010   ----------------------------------------
 BYTE   W96
// 011   ----------------------------------------
 BYTE   N90  En3
 BYTE   N90  En4
 BYTE   W96
// 012   ----------------------------------------
 BYTE   W96
// 013   ----------------------------------------
 BYTE   En3
 BYTE   N90  En4
 BYTE   W96
// 014   ----------------------------------------
 BYTE   W96
// 015   ----------------------------------------
 BYTE   W96
// 016   ----------------------------------------
 BYTE   W96
// 017   ----------------------------------------
 BYTE   W96
// 018   ----------------------------------------
 BYTE   W96
// 019   ----------------------------------------
 BYTE   En3
 BYTE   N90  En4
 BYTE   W96
// 020   ----------------------------------------
 BYTE   W96
// 021   ----------------------------------------
 BYTE   En3
 BYTE   N90  En4
 BYTE   W96
// 022   ----------------------------------------
 BYTE   W96
 BYTE   PATT
  POIN2 Label_6_0100AC26
 BYTE   PATT
  POIN2 Label_6_0100AC3A
// 023   ----------------------------------------
Label_6_0100ACA2:
 BYTE   N17  En3  v060
 BYTE   W18
 BYTE   N05
 BYTE   W06
 BYTE   N17
 BYTE   W18
 BYTE   N11  Ds3
 BYTE   W12
 BYTE   N05
 BYTE   W06
 BYTE   N11
 BYTE   W12
 BYTE   N11
 BYTE   W12
 BYTE   N54  Gn3
 BYTE   W12
 BYTE   PEND 
// 024   ----------------------------------------
 BYTE   W48
 BYTE   N42  Fs3
 BYTE   W48
 BYTE   PATT
  POIN2 Label_6_0100AC26
 BYTE   PATT
  POIN2 Label_6_0100AC3A
 BYTE   PATT
  POIN2 Label_6_0100ACA2
// 025   ----------------------------------------
 BYTE   W48
 BYTE   N42  Fs3  v060
 BYTE   W48
// 026   ----------------------------------------
 BYTE   GoTo
  POIN2 Label_6_0100AC26
 BYTE   FINE

//**************** Track 8 (Midi-Chn.7) ****************//

AdvanceWarsAndysThemeMrGreen3339_008:
// 000   ----------------------------------------
 BYTE   KEYSH   AdvanceWarsAndysThemeMrGreen3339_key+0
 BYTE   VOICE   30
 BYTE   VOL   65*AdvanceWarsAndysThemeMrGreen3339_mvl/mxv
 BYTE   PAN   c_v+0
 BYTE   VOL   65*AdvanceWarsAndysThemeMrGreen3339_mvl/mxv
 BYTE   PAN   c_v+0
 BYTE   W96
// 001   ----------------------------------------
 BYTE   W96
// 002   ----------------------------------------
Label_7_0100ACE6:
 BYTE   N11  En3  v060
 BYTE   W12
 BYTE   N04  Bn2
 BYTE   W06
 BYTE   N04
 BYTE   W06
 BYTE   N11  En3
 BYTE   W12
 BYTE   N04  Bn2
 BYTE   W06
 BYTE   N11  Ds3
 BYTE   W12
 BYTE   N04
 BYTE   W06
 BYTE   N11
 BYTE   W12
 BYTE   N11
 BYTE   W12
 BYTE   N11
 BYTE   W12
 BYTE   PEND 
// 003   ----------------------------------------
Label_7_0100AD01:
 BYTE   N11  Dn3  v060
 BYTE   W12
 BYTE   N04  An2
 BYTE   W06
 BYTE   N04
 BYTE   W06
 BYTE   N11  Dn3
 BYTE   W12
 BYTE   N04  An2
 BYTE   W06
 BYTE   N11  Cs3
 BYTE   W12
 BYTE   N05
 BYTE   W06
 BYTE   N11
 BYTE   W12
 BYTE   N11
 BYTE   W12
 BYTE   N11
 BYTE   W12
 BYTE   PEND 
// 004   ----------------------------------------
Label_7_0100AD1C:
 BYTE   N11  En3  v060
 BYTE   W12
 BYTE   N04  Bn2
 BYTE   W06
 BYTE   N04
 BYTE   W06
 BYTE   N11  En3
 BYTE   W12
 BYTE   N04  Bn2
 BYTE   W06
 BYTE   N11  Ds3
 BYTE   W12
 BYTE   N04
 BYTE   W06
 BYTE   N11
 BYTE   W12
 BYTE   N11
 BYTE   W12
 BYTE   N54  Gn2
 BYTE   W12
 BYTE   PEND 
// 005   ----------------------------------------
 BYTE   W48
 BYTE   N42  Dn3
 BYTE   W48
 BYTE   PATT
  POIN2 Label_7_0100ACE6
 BYTE   PATT
  POIN2 Label_7_0100AD01
 BYTE   PATT
  POIN2 Label_7_0100AD1C
// 006   ----------------------------------------
 BYTE   W48
 BYTE   N42  Dn3  v060
 BYTE   W48
// 007   ----------------------------------------
 BYTE   W96
// 008   ----------------------------------------
 BYTE   W96
// 009   ----------------------------------------
 BYTE   W96
// 010   ----------------------------------------
 BYTE   W96
// 011   ----------------------------------------
Label_7_0100AD54:
 BYTE   W18
 BYTE   N05  Bn4  v060
 BYTE   W06
 BYTE   N11  Gs3
 BYTE   N11  Gs4
 BYTE   W12
 BYTE   N05  En3
 BYTE   N05  En4
 BYTE   W06
 BYTE   N11  Gs3
 BYTE   N11  Gs4
 BYTE   W12
 BYTE   N05  En3
 BYTE   N05  En4
 BYTE   W06
 BYTE   N11  Gs3
 BYTE   N32  Gs4
 BYTE   W12
 BYTE   N20  Gs3
 BYTE   W24
 BYTE   PEND 
// 012   ----------------------------------------
 BYTE   W96
 BYTE   PATT
  POIN2 Label_7_0100AD54
// 013   ----------------------------------------
 BYTE   W96
// 014   ----------------------------------------
 BYTE   W96
// 015   ----------------------------------------
 BYTE   W96
// 016   ----------------------------------------
 BYTE   W96
// 017   ----------------------------------------
 BYTE   W96
 BYTE   PATT
  POIN2 Label_7_0100AD54
// 018   ----------------------------------------
 BYTE   W96
 BYTE   PATT
  POIN2 Label_7_0100AD54
// 019   ----------------------------------------
 BYTE   W96
 BYTE   PATT
  POIN2 Label_7_0100ACE6
 BYTE   PATT
  POIN2 Label_7_0100AD01
 BYTE   PATT
  POIN2 Label_7_0100AD1C
// 020   ----------------------------------------
 BYTE   W48
 BYTE   N42  Dn3  v060
 BYTE   W48
 BYTE   PATT
  POIN2 Label_7_0100ACE6
 BYTE   PATT
  POIN2 Label_7_0100AD01
 BYTE   PATT
  POIN2 Label_7_0100AD1C
// 021   ----------------------------------------
 BYTE   W48
 BYTE   N42  Dn3  v060
 BYTE   W48
// 022   ----------------------------------------
 BYTE   GoTo
  POIN2 Label_7_0100ACE6
 BYTE   FINE

//**************** Track 9 (Midi-Chn.8) ****************//

AdvanceWarsAndysThemeMrGreen3339_009:
// 000   ----------------------------------------
 BYTE   KEYSH   AdvanceWarsAndysThemeMrGreen3339_key+0
 BYTE   VOICE   30
 BYTE   VOL   65*AdvanceWarsAndysThemeMrGreen3339_mvl/mxv
 BYTE   PAN   c_v+0
 BYTE   VOL   65*AdvanceWarsAndysThemeMrGreen3339_mvl/mxv
 BYTE   PAN   c_v+0
 BYTE   W96
// 001   ----------------------------------------
 BYTE   W96
// 002   ----------------------------------------
Label_8_0100ADCA:
 BYTE   W96
// 003   ----------------------------------------
 BYTE   W96
// 004   ----------------------------------------
 BYTE   W96
// 005   ----------------------------------------
 BYTE   W96
// 006   ----------------------------------------
 BYTE   W96
// 007   ----------------------------------------
 BYTE   W96
// 008   ----------------------------------------
 BYTE   W96
// 009   ----------------------------------------
 BYTE   W96
// 010   ----------------------------------------
Label_8_0100ADD2:
 BYTE   N17  Bn2  v112
 BYTE   W18
 BYTE   N36  En3
 BYTE   W42
 BYTE   N11  Gs3
 BYTE   W12
 BYTE   Fs3
 BYTE   W12
 BYTE   En3
 BYTE   W12
 BYTE   PEND 
// 011   ----------------------------------------
Label_8_0100ADE1:
 BYTE   N11  Dn3  v112
 BYTE   W12
 BYTE   N04  Cs3
 BYTE   W04
 BYTE   Dn3
 BYTE   W04
 BYTE   N03  Cs3
 BYTE   W04
 BYTE   N11  Bn2
 BYTE   W12
 BYTE   N20  An2
 BYTE   W24
 BYTE   N04  Gs2
 BYTE   W04
 BYTE   An2
 BYTE   W04
 BYTE   N03  Gs2
 BYTE   W04
 BYTE   N20  En2
 BYTE   W24
 BYTE   PEND 
 BYTE   PATT
  POIN2 Label_8_0100ADD2
// 012   ----------------------------------------
Label_8_0100AE04:
 BYTE   N11  Dn3  v112
 BYTE   W12
 BYTE   Cs3
 BYTE   W12
 BYTE   Bn2
 BYTE   W12
 BYTE   N56  An3
 BYTE   W60
 BYTE   PEND 
// 013   ----------------------------------------
 BYTE   W96
// 014   ----------------------------------------
Label_8_0100AE11:
 BYTE   N11  An3  v112
 BYTE   W12
 BYTE   Gs3
 BYTE   W12
 BYTE   En3
 BYTE   W12
 BYTE   N20  An3
 BYTE   W24
 BYTE   N11  Gs3
 BYTE   W12
 BYTE   N20  En3
 BYTE   W24
 BYTE   PEND 
// 015   ----------------------------------------
 BYTE   N90  Bn2
 BYTE   W96
// 016   ----------------------------------------
Label_8_0100AE26:
 BYTE   N11  An3  v112
 BYTE   W12
 BYTE   Gs3
 BYTE   W12
 BYTE   En3
 BYTE   W12
 BYTE   N20  Bn2
 BYTE   W24
 BYTE   N32  En3
 BYTE   W36
 BYTE   PEND 
 BYTE   PATT
  POIN2 Label_8_0100ADD2
 BYTE   PATT
  POIN2 Label_8_0100ADE1
 BYTE   PATT
  POIN2 Label_8_0100ADD2
 BYTE   PATT
  POIN2 Label_8_0100AE04
// 017   ----------------------------------------
 BYTE   W96
 BYTE   PATT
  POIN2 Label_8_0100AE11
// 018   ----------------------------------------
 BYTE   N90  Bn2  v112
 BYTE   W96
 BYTE   PATT
  POIN2 Label_8_0100AE26
// 019   ----------------------------------------
Label_8_0100AE58:
 BYTE   W12
 BYTE   N05  Bn2  v112
 BYTE   W06
 BYTE   N05
 BYTE   W06
 BYTE   Dn3
 BYTE   W06
 BYTE   N11  En3
 BYTE   W12
 BYTE   An3
 BYTE   W12
 BYTE   N05  Gn3
 BYTE   W06
 BYTE   N11  An3
 BYTE   W12
 BYTE   N20  Gn3
 BYTE   W24
 BYTE   PEND 
// 020   ----------------------------------------
Label_8_0100AE70:
 BYTE   N17  Dn4  v112
 BYTE   W18
 BYTE   N05  Cs4
 BYTE   W06
 BYTE   Bn3
 BYTE   W06
 BYTE   N11  An3
 BYTE   W12
 BYTE   En3
 BYTE   W12
 BYTE   N05  An3
 BYTE   W06
 BYTE   Gs3
 BYTE   W06
 BYTE   En3
 BYTE   W06
 BYTE   N11  An3
 BYTE   W12
 BYTE   N05  Gs3
 BYTE   W06
 BYTE   En3
 BYTE   W06
 BYTE   PEND 
// 021   ----------------------------------------
Label_8_0100AE8E:
 BYTE   W12
 BYTE   N32  Gn3  v112
 BYTE   W36
 BYTE   Bn3
 BYTE   W36
 BYTE   N11  An3
 BYTE   W12
 BYTE   PEND 
// 022   ----------------------------------------
 BYTE   N05  Gn3
 BYTE   W06
 BYTE   En3
 BYTE   W12
 BYTE   N11  Dn3
 BYTE   W12
 BYTE   N05  Bn2
 BYTE   W06
 BYTE   N11  En3
 BYTE   W12
 BYTE   Dn3
 BYTE   W12
 BYTE   N05
 BYTE   W06
 BYTE   Cs3
 BYTE   W06
 BYTE   N20  Bn2
 BYTE   W24
 BYTE   PATT
  POIN2 Label_8_0100AE58
 BYTE   PATT
  POIN2 Label_8_0100AE70
 BYTE   PATT
  POIN2 Label_8_0100AE8E
// 023   ----------------------------------------
 BYTE   N05  Gn3  v112
 BYTE   W06
 BYTE   En3
 BYTE   W12
 BYTE   N11  Dn3
 BYTE   W12
 BYTE   N05  Bn2
 BYTE   W06
 BYTE   N11  En3
 BYTE   W12
 BYTE   N42  Dn3
 BYTE   W48
// 024   ----------------------------------------
 BYTE   GoTo
  POIN2 Label_8_0100ADCA
 BYTE   FINE

//******************************************************//
	ALIGN 4

AdvanceWarsAndysThemeMrGreen3339:
	BYTE	9	// NumTrks
	BYTE	0	// NumBlks
	BYTE	AdvanceWarsAndysThemeMrGreen3339_pri	// Priority
	BYTE	AdvanceWarsAndysThemeMrGreen3339_rev	// Reverb.
    
	POIN2	AdvanceWarsAndysThemeMrGreen3339_grp
    
	POIN2	AdvanceWarsAndysThemeMrGreen3339_001
	POIN2	AdvanceWarsAndysThemeMrGreen3339_002
	POIN2	AdvanceWarsAndysThemeMrGreen3339_003
	POIN2	AdvanceWarsAndysThemeMrGreen3339_004
	POIN2	AdvanceWarsAndysThemeMrGreen3339_005
	POIN2	AdvanceWarsAndysThemeMrGreen3339_006
	POIN2	AdvanceWarsAndysThemeMrGreen3339_007
	POIN2	AdvanceWarsAndysThemeMrGreen3339_008
	POIN2	AdvanceWarsAndysThemeMrGreen3339_009

	
