//Event file generated from Sappy .s format.
	#include "MPlayDef.event"

	#define	MarioTennisRound2Pandan_grp  voicegroup000
	#define	MarioTennisRound2Pandan_pri  0
	#define	MarioTennisRound2Pandan_rev  0
	#define	MarioTennisRound2Pandan_mvl  127
	#define	MarioTennisRound2Pandan_key  0
	#define	MarioTennisRound2Pandan_tbs  1
	#define	MarioTennisRound2Pandan_exg  0
	#define	MarioTennisRound2Pandan_cmp  1

	// .rodata
	//	MarioTennisRound2Pandan
	ALIGN 4


//**************** Track 1 (Midi-Chn.0) ****************//

MarioTennisRound2Pandan_001:
// 000   ----------------------------------------
 BYTE   KEYSH   MarioTennisRound2Pandan_key+0
 BYTE   TEMPO   194*MarioTennisRound2Pandan_tbs/2
 BYTE   VOICE   61
 BYTE   VOL   32*MarioTennisRound2Pandan_mvl/mxv
 BYTE   PAN   c_v+0
 BYTE   N32  En2  v100
 BYTE   N32  En3
 BYTE   W32
 BYTE   W03
 BYTE   N60  Bn2
 BYTE   N56  Bn3
 BYTE   W60
 BYTE   W01
// 001   ----------------------------------------
Label_0_014A066F:
 BYTE   N06  Dn3  v100
 BYTE   N06  Dn4
 BYTE   W12
 BYTE   Cs3
 BYTE   N06  Cs4
 BYTE   W12
 BYTE   Bn2
 BYTE   N06  Bn3
 BYTE   W12
 BYTE   An2
 BYTE   N06  An3
 BYTE   W24
 BYTE   N24  Bn2
 BYTE   N24  Bn3
 BYTE   W36
 BYTE   PEND 
// 002   ----------------------------------------
Label_0_014A0687:
 BYTE   N36  En2  v100
 BYTE   N36  En3
 BYTE   W36
 BYTE   W02
 BYTE   Bn2
 BYTE   N36  Bn3
 BYTE   W44
 BYTE   W02
 BYTE   N96  An2
 BYTE   N96  An3
 BYTE   W12
 BYTE   PEND 
// 003   ----------------------------------------
 BYTE   W96
// 004   ----------------------------------------
 BYTE   N24  En2
 BYTE   N24  En3
 BYTE   W32
 BYTE   W03
 BYTE   N48  Bn2
 BYTE   N48  Bn3
 BYTE   W60
 BYTE   N06  Dn3
 BYTE   N06  Dn4
 BYTE   W01
// 005   ----------------------------------------
 BYTE   W12
 BYTE   Cs3
 BYTE   N06  Cs4
 BYTE   W12
 BYTE   Bn2
 BYTE   N06  Bn3
 BYTE   W11
 BYTE   An2
 BYTE   N06  An3
 BYTE   W24
 BYTE   N24  Bn2
 BYTE   N24  Bn3
 BYTE   W24
 BYTE   N12  Cs3
 BYTE   N12  Cs4
 BYTE   W13
// 006   ----------------------------------------
 BYTE   N24  Cn3
 BYTE   N24  Cn4
 BYTE   W36
 BYTE   Gn2
 BYTE   N24  Gn3
 BYTE   W36
 BYTE   Cn3
 BYTE   N24  Cn4
 BYTE   W24
// 007   ----------------------------------------
 BYTE   N80  Dn3
 BYTE   N80  Dn4
 BYTE   W96
// 008   ----------------------------------------
Label_0_014A06D3:
 BYTE   N32  En2  v100
 BYTE   N32  En3
 BYTE   W32
 BYTE   W03
 BYTE   N60  Bn2
 BYTE   N56  Bn3
 BYTE   W60
 BYTE   N06  Dn3
 BYTE   N06  Dn4
 BYTE   W01
 BYTE   PEND 
// 009   ----------------------------------------
Label_0_014A06E5:
 BYTE   W12
 BYTE   N06  Cs3  v100
 BYTE   N06  Cs4
 BYTE   W12
 BYTE   Bn2
 BYTE   N06  Bn3
 BYTE   W11
 BYTE   An2
 BYTE   N06  An3
 BYTE   W24
 BYTE   N24  Bn2
 BYTE   N24  Bn3
 BYTE   W36
 BYTE   W01
 BYTE   PEND 
// 010   ----------------------------------------
Label_0_014A06FB:
 BYTE   N36  En2  v100
 BYTE   N36  En3
 BYTE   W36
 BYTE   W01
 BYTE   Bn2
 BYTE   N36  Bn3
 BYTE   W44
 BYTE   W02
 BYTE   N96  An2
 BYTE   N96  An3
 BYTE   W13
 BYTE   PEND 
// 011   ----------------------------------------
 BYTE   W96
// 012   ----------------------------------------
 BYTE   N32  En2
 BYTE   N32  En3
 BYTE   W32
 BYTE   W03
 BYTE   N48  Bn2
 BYTE   N48  Bn3
 BYTE   W60
 BYTE   W01
// 013   ----------------------------------------
Label_0_014A071A:
 BYTE   N12  An3  v100
 BYTE   N12  Cs4
 BYTE   W19
 BYTE   Dn4
 BYTE   W01
 BYTE   Bn3
 BYTE   W17
 BYTE   N06  Cs4
 BYTE   N06  En4
 BYTE   W11
 BYTE   N12  Cs4
 BYTE   N12  En4
 BYTE   W18
 BYTE   Dn4
 BYTE   W01
 BYTE   Bn3
 BYTE   W18
 BYTE   Cs4
 BYTE   N12  En4
 BYTE   W11
 BYTE   PEND 
// 014   ----------------------------------------
 BYTE   N42  Cn4
 BYTE   N44  Fn4
 BYTE   W48
 BYTE   N05  Cn4
 BYTE   N06  Fn4
 BYTE   W12
 BYTE   N05  Cn4
 BYTE   N06  En4
 BYTE   W12
 BYTE   N05  Bn3
 BYTE   N06  Dn4
 BYTE   W11
 BYTE   N05  An3
 BYTE   N06  Cn4
 BYTE   W13
// 015   ----------------------------------------
 BYTE   N80  Bn3
 BYTE   N80  Dn4
 BYTE   W96
// 016   ----------------------------------------
Label_0_014A0755:
 BYTE   N30  An3  v100
 BYTE   W36
 BYTE   N24  Bn3
 BYTE   W36
 BYTE   N96  Cn4
 BYTE   W24
 BYTE   PEND 
// 017   ----------------------------------------
 BYTE   W96
// 018   ----------------------------------------
Label_0_014A0761:
 BYTE   N30  Bn3  v100
 BYTE   W36
 BYTE   N24  Cn4
 BYTE   W36
 BYTE   W01
 BYTE   N96  Dn4
 BYTE   W23
 BYTE   PEND 
// 019   ----------------------------------------
 BYTE   W96
 BYTE   PATT
  POIN2 Label_0_014A0755
// 020   ----------------------------------------
 BYTE   W96
// 021   ----------------------------------------
Label_0_014A0774:
 BYTE   N48  Gn3  v100
 BYTE   W48
 BYTE   N15  Cn4
 BYTE   W20
 BYTE   N12  Dn4
 BYTE   W15
 BYTE   En4
 BYTE   W13
 BYTE   PEND 
// 022   ----------------------------------------
Label_0_014A0781:
 BYTE   N48  Dn4  v100
 BYTE   W48
 BYTE   Gn3
 BYTE   W48
 BYTE   PEND 
// 023   ----------------------------------------
Label_0_014A0788:
 BYTE   N30  An3  v100
 BYTE   W32
 BYTE   W03
 BYTE   N24  Bn3
 BYTE   W36
 BYTE   W01
 BYTE   N96  Cn4
 BYTE   W24
 BYTE   PEND 
// 024   ----------------------------------------
 BYTE   W96
// 025   ----------------------------------------
Label_0_014A0796:
 BYTE   N30  Bn3  v100
 BYTE   W36
 BYTE   N24  Cn4
 BYTE   W36
 BYTE   N96  Dn4
 BYTE   W24
 BYTE   PEND 
// 026   ----------------------------------------
Label_0_014A07A1:
 BYTE   W92
 BYTE   W03
 BYTE   N30  An3  v100
 BYTE   W01
 BYTE   PEND 
// 027   ----------------------------------------
Label_0_014A07A8:
 BYTE   W32
 BYTE   W03
 BYTE   N24  Bn3  v100
 BYTE   W36
 BYTE   W01
 BYTE   N96  Cn4
 BYTE   W24
 BYTE   PEND 
// 028   ----------------------------------------
 BYTE   W96
 BYTE   PATT
  POIN2 Label_0_014A0774
// 029   ----------------------------------------
Label_0_014A07B9:
 BYTE   N48  Dn4  v100
 BYTE   W44
 BYTE   W03
 BYTE   Gn3
 BYTE   W48
 BYTE   W01
 BYTE   PEND 
// 030   ----------------------------------------
Label_0_014A07C2:
 BYTE   N32  En2  v100
 BYTE   N32  En3
 BYTE   W32
 BYTE   W03
 BYTE   N60  Bn2
 BYTE   N60  Bn3
 BYTE   W60
 BYTE   W01
 BYTE   PEND 
 BYTE   PATT
  POIN2 Label_0_014A066F
// 031   ----------------------------------------
 BYTE   N36  En2  v100
 BYTE   N36  En3
 BYTE   W36
 BYTE   W02
 BYTE   N28  Bn2
 BYTE   N28  Bn3
 BYTE   W44
 BYTE   W02
 BYTE   N96  An2
 BYTE   N96  An3
 BYTE   W12
// 032   ----------------------------------------
 BYTE   W96
 BYTE   PATT
  POIN2 Label_0_014A07C2
 BYTE   PATT
  POIN2 Label_0_014A071A
// 033   ----------------------------------------
 BYTE   N42  Cn4  v100
 BYTE   N42  Fn4
 BYTE   W48
 BYTE   N05  Cn4
 BYTE   N06  Fn4
 BYTE   W12
 BYTE   N05  Cn4
 BYTE   N06  En4
 BYTE   W12
 BYTE   N05  Bn3
 BYTE   N06  Dn4
 BYTE   W11
 BYTE   N05  An3
 BYTE   N06  Cn4
 BYTE   W13
// 034   ----------------------------------------
 BYTE   N80  Bn3
 BYTE   N80  Dn4
 BYTE   W96
// 035   ----------------------------------------
 BYTE   W96
// 036   ----------------------------------------
 BYTE   W96
// 037   ----------------------------------------
 BYTE   W96
// 038   ----------------------------------------
 BYTE   W96
// 039   ----------------------------------------
 BYTE   W96
// 040   ----------------------------------------
 BYTE   W96
// 041   ----------------------------------------
 BYTE   W96
// 042   ----------------------------------------
 BYTE   W96
// 043   ----------------------------------------
 BYTE   N06  An2
 BYTE   N06  An3
 BYTE   W11
 BYTE   N06
 BYTE   W01
 BYTE   An2
 BYTE   W12
 BYTE   Gn2
 BYTE   N06  Gn3
 BYTE   W11
 BYTE   N12  An3
 BYTE   W01
 BYTE   An2
 BYTE   W23
 BYTE   Cn4
 BYTE   W01
 BYTE   Cn3
 BYTE   W22
 BYTE   En4
 BYTE   W01
 BYTE   En3
 BYTE   W13
// 044   ----------------------------------------
 BYTE   W11
 BYTE   N06  En4
 BYTE   W01
 BYTE   En3
 BYTE   W11
 BYTE   Dn4
 BYTE   W01
 BYTE   Dn3
 BYTE   W11
 BYTE   Cn4
 BYTE   W01
 BYTE   Cn3
 BYTE   W12
 BYTE   Bn2
 BYTE   N06  Bn3
 BYTE   W11
 BYTE   Dn3
 BYTE   N06  Dn4
 BYTE   W13
 BYTE   Cn3
 BYTE   N06  Cn4
 BYTE   W11
 BYTE   Gn3
 BYTE   W01
 BYTE   Gn2
 BYTE   W12
// 045   ----------------------------------------
 BYTE   An3
 BYTE   W01
 BYTE   An2
 BYTE   W11
 BYTE   Gn2
 BYTE   N06  Gn3
 BYTE   W11
 BYTE   An3
 BYTE   W01
 BYTE   An2
 BYTE   W12
 BYTE   Bn2
 BYTE   N06  Bn3
 BYTE   W23
 BYTE   En4
 BYTE   W01
 BYTE   En3
 BYTE   W11
 BYTE   Dn4
 BYTE   W01
 BYTE   Dn3
 BYTE   W11
 BYTE   Cn4
 BYTE   W01
 BYTE   Cn3
 BYTE   W11
 BYTE   Dn4
 BYTE   W01
// 046   ----------------------------------------
 BYTE   Dn3
 BYTE   W12
 BYTE   N06
 BYTE   N06  Dn4
 BYTE   W23
 BYTE   Cn4
 BYTE   W01
 BYTE   Cn3
 BYTE   W23
 BYTE   N12  Bn3
 BYTE   W01
 BYTE   Bn2
 BYTE   W22
 BYTE   Gn3
 BYTE   W01
 BYTE   Gn2
 BYTE   W13
// 047   ----------------------------------------
 BYTE   N06  An2
 BYTE   N06  An3
 BYTE   W11
 BYTE   An2
 BYTE   N06  An3
 BYTE   W12
 BYTE   Gn3
 BYTE   W01
 BYTE   Gn2
 BYTE   W11
 BYTE   N12  An2
 BYTE   N12  An3
 BYTE   W24
 BYTE   W01
 BYTE   Cn3
 BYTE   N12  Cn4
 BYTE   W21
 BYTE   En4
 BYTE   W01
 BYTE   En3
 BYTE   W14
// 048   ----------------------------------------
Label_0_014A089D:
 BYTE   W11
 BYTE   N06  En3  v100
 BYTE   N06  En4
 BYTE   W11
 BYTE   Dn4
 BYTE   W01
 BYTE   Dn3
 BYTE   W12
 BYTE   Cn3
 BYTE   N06  Cn4
 BYTE   W12
 BYTE   Bn3
 BYTE   W01
 BYTE   Bn2
 BYTE   W10
 BYTE   Dn4
 BYTE   W01
 BYTE   Dn3
 BYTE   W12
 BYTE   Cn4
 BYTE   W01
 BYTE   Cn3
 BYTE   W11
 BYTE   Gn2
 BYTE   N06  Gn3
 BYTE   W13
 BYTE   PEND 
// 049   ----------------------------------------
 BYTE   An2
 BYTE   N06  An3
 BYTE   W05
 BYTE   Bn3
 BYTE   W01
 BYTE   Bn2
 BYTE   W06
 BYTE   N42  Cn3
 BYTE   N44  Cn4
 BYTE   W44
 BYTE   W03
 BYTE   N06  En4
 BYTE   W01
 BYTE   En3
 BYTE   W12
 BYTE   Dn3
 BYTE   N06  Dn4
 BYTE   W11
 BYTE   Cn3
 BYTE   N06  Cn4
 BYTE   W12
 BYTE   N96  Dn4
 BYTE   W01
// 050   ----------------------------------------
 BYTE   Dn3
 BYTE   W96
// 051   ----------------------------------------
 BYTE   En3
 BYTE   W96
// 052   ----------------------------------------
Label_0_014A08DF:
 BYTE   W01
 BYTE   N96  Fn3  v100
 BYTE   W92
 BYTE   W03
 BYTE   PEND 
// 053   ----------------------------------------
 BYTE   Gn3
 BYTE   W96
// 054   ----------------------------------------
 BYTE   Fn3
 BYTE   W96
// 055   ----------------------------------------
 BYTE   En3
 BYTE   W96
// 056   ----------------------------------------
Label_0_014A08EC:
 BYTE   N48  Fn3  v100
 BYTE   W48
 BYTE   Dn3
 BYTE   W48
 BYTE   PEND 
// 057   ----------------------------------------
 BYTE   N96  Cn3
 BYTE   W96
// 058   ----------------------------------------
 BYTE   Dn3
 BYTE   W96
// 059   ----------------------------------------
 BYTE   En3
 BYTE   W96
 BYTE   PATT
  POIN2 Label_0_014A08DF
// 060   ----------------------------------------
 BYTE   N96  Gn3  v100
 BYTE   W96
// 061   ----------------------------------------
 BYTE   Fn3
 BYTE   W96
// 062   ----------------------------------------
 BYTE   En3
 BYTE   W96
 BYTE   PATT
  POIN2 Label_0_014A08EC
// 063   ----------------------------------------
 BYTE   N96  Cn3  v100
 BYTE   W96
// 064   ----------------------------------------
 BYTE   Dn3
 BYTE   W96
 BYTE   PATT
  POIN2 Label_0_014A0755
// 065   ----------------------------------------
 BYTE   W96
 BYTE   PATT
  POIN2 Label_0_014A0761
// 066   ----------------------------------------
 BYTE   W96
 BYTE   PATT
  POIN2 Label_0_014A0755
// 067   ----------------------------------------
 BYTE   W96
 BYTE   PATT
  POIN2 Label_0_014A0774
 BYTE   PATT
  POIN2 Label_0_014A0781
 BYTE   PATT
  POIN2 Label_0_014A0788
// 068   ----------------------------------------
 BYTE   W96
 BYTE   PATT
  POIN2 Label_0_014A0796
 BYTE   PATT
  POIN2 Label_0_014A07A1
 BYTE   PATT
  POIN2 Label_0_014A07A8
// 069   ----------------------------------------
 BYTE   W96
 BYTE   PATT
  POIN2 Label_0_014A0774
 BYTE   PATT
  POIN2 Label_0_014A07B9
// 070   ----------------------------------------
Label_0_014A094E:
 BYTE   N12  An2  v100
 BYTE   N12  An3
 BYTE   W32
 BYTE   W03
 BYTE   N12
 BYTE   W01
 BYTE   An2
 BYTE   W24
 BYTE   N12
 BYTE   N12  An3
 BYTE   W12
 BYTE   Gn2
 BYTE   N12  Gn3
 BYTE   W11
 BYTE   An3
 BYTE   W01
 BYTE   An2
 BYTE   W12
 BYTE   PEND 
// 071   ----------------------------------------
Label_0_014A0966:
 BYTE   W92
 BYTE   W03
 BYTE   N12  An3  v100
 BYTE   W01
 BYTE   PEND 
// 072   ----------------------------------------
 BYTE   An2
 BYTE   W11
 BYTE   An3
 BYTE   W01
 BYTE   An2
 BYTE   W24
 BYTE   N12
 BYTE   N12  An3
 BYTE   W23
 BYTE   An2
 BYTE   N12  An3
 BYTE   W24
 BYTE   An2
 BYTE   N12  An3
 BYTE   W13
// 073   ----------------------------------------
 BYTE   W96
 BYTE   PATT
  POIN2 Label_0_014A094E
// 074   ----------------------------------------
 BYTE   W96
// 075   ----------------------------------------
 BYTE   N12  Bn2  v100
 BYTE   N12  Bn3
 BYTE   W12
 BYTE   Bn2
 BYTE   N12  Bn3
 BYTE   W23
 BYTE   Cn4
 BYTE   W01
 BYTE   Cn3
 BYTE   W23
 BYTE   Dn4
 BYTE   W01
 BYTE   Dn3
 BYTE   W23
 BYTE   Dn4
 BYTE   W01
 BYTE   Dn3
 BYTE   W12
// 076   ----------------------------------------
 BYTE   W12
 BYTE   N12
 BYTE   N12  Dn4
 BYTE   W12
 BYTE   Cn3
 BYTE   N12  Cn4
 BYTE   W12
 BYTE   Bn2
 BYTE   N12  Bn3
 BYTE   W12
 BYTE   Gn2
 BYTE   N12  Gn3
 BYTE   W48
// 077   ----------------------------------------
 BYTE   N32  An2
 BYTE   N32  An3
 BYTE   W32
 BYTE   W03
 BYTE   En3
 BYTE   W01
 BYTE   En2
 BYTE   W32
 BYTE   W03
 BYTE   TIE  An3
 BYTE   W01
 BYTE   An2
 BYTE   W24
// 078   ----------------------------------------
 BYTE   W92
 BYTE   W03
 BYTE   EOT
 BYTE   An3
 BYTE   W01
// 079   ----------------------------------------
 BYTE   An2
Label_0_014A09C3:
 BYTE   N32  Bn2  v100
 BYTE   N32  Bn3
 BYTE   W32
 BYTE   W03
 BYTE   Cn3
 BYTE   N32  Cn4
 BYTE   W36
 BYTE   W01
 BYTE   TIE  Dn3
 BYTE   TIE  Dn4
 BYTE   W24
 BYTE   PEND 
// 080   ----------------------------------------
 BYTE   W92
 BYTE   W03
 BYTE   EOT
 BYTE   Dn3
 BYTE   W01
// 081   ----------------------------------------
 BYTE   Dn4
 BYTE   N68  Cn3
 BYTE   N68  Cn4
 BYTE   W72
 BYTE   N06  Bn2
 BYTE   N06  Bn3
 BYTE   W12
 BYTE   An2
 BYTE   N06  An3
 BYTE   W12
// 082   ----------------------------------------
 BYTE   Gn2
 BYTE   N06  Gn3
 BYTE   W12
 BYTE   N80  An2
 BYTE   N80  An3
 BYTE   W84
 BYTE   PATT
  POIN2 Label_0_014A09C3
// 083   ----------------------------------------
 BYTE   W92
 BYTE   W03
 BYTE   EOT
 BYTE   Dn3  v074
 BYTE   W01
// 084   ----------------------------------------
 BYTE   N32  En2  v100
 BYTE   N32  En3
 BYTE   W32
 BYTE   W03
 BYTE   N60  Bn2
 BYTE   N56  Bn3
 BYTE   W60
 BYTE   W01
 BYTE   PATT
  POIN2 Label_0_014A066F
 BYTE   PATT
  POIN2 Label_0_014A0687
// 085   ----------------------------------------
 BYTE   W96
// 086   ----------------------------------------
 BYTE   N32  En2  v100
 BYTE   N30  En3
 BYTE   W32
 BYTE   W02
 BYTE   N48  Bn2
 BYTE   N48  Bn3
 BYTE   W60
 BYTE   N06  Dn3
 BYTE   N06  Dn4
 BYTE   W02
// 087   ----------------------------------------
 BYTE   W11
 BYTE   Cs3
 BYTE   N06  Cs4
 BYTE   W12
 BYTE   Bn2
 BYTE   N06  Bn3
 BYTE   W12
 BYTE   An2
 BYTE   N06  An3
 BYTE   W24
 BYTE   N24  Bn2
 BYTE   N24  Bn3
 BYTE   W24
 BYTE   N12  Cs3
 BYTE   N12  Cs4
 BYTE   W13
// 088   ----------------------------------------
 BYTE   N24  Cn3
 BYTE   N24  Cn4
 BYTE   W32
 BYTE   W03
 BYTE   Gn2
 BYTE   N24  Gn3
 BYTE   W36
 BYTE   Cn3
 BYTE   N24  Cn4
 BYTE   W24
 BYTE   W01
// 089   ----------------------------------------
 BYTE   N80  Dn3
 BYTE   N80  Dn4
 BYTE   W96
 BYTE   PATT
  POIN2 Label_0_014A06D3
 BYTE   PATT
  POIN2 Label_0_014A06E5
 BYTE   PATT
  POIN2 Label_0_014A06FB
// 090   ----------------------------------------
 BYTE   W92
 BYTE   W03
 BYTE   N32  En2  v100
 BYTE   W01
// 091   ----------------------------------------
 BYTE   N30  En3
 BYTE   W32
 BYTE   W02
 BYTE   N48  Bn2
 BYTE   N48  Bn3
 BYTE   W60
 BYTE   W01
 BYTE   N12  Cs4
 BYTE   W01
// 092   ----------------------------------------
 BYTE   An3
 BYTE   W18
 BYTE   Dn4
 BYTE   W01
 BYTE   Bn3
 BYTE   W17
 BYTE   N06  En4
 BYTE   W01
 BYTE   Cs4
 BYTE   W10
 BYTE   N12  En4
 BYTE   W01
 BYTE   Cs4
 BYTE   W18
 BYTE   Bn3
 BYTE   N12  Dn4
 BYTE   W18
 BYTE   En4
 BYTE   W01
 BYTE   Cs4
 BYTE   W10
 BYTE   N42  Cn4
 BYTE   N44  Fn4
 BYTE   W01
// 093   ----------------------------------------
Label_0_014A0A90:
 BYTE   W48
 BYTE   N05  Cn4  v100
 BYTE   N06  Fn4
 BYTE   W12
 BYTE   N05  Cn4
 BYTE   N06  En4
 BYTE   W11
 BYTE   N05  Bn3
 BYTE   N06  Dn4
 BYTE   W12
 BYTE   N05  An3
 BYTE   N06  Cn4
 BYTE   W12
 BYTE   N80  Bn3
 BYTE   W01
 BYTE   PEND 
// 094   ----------------------------------------
 BYTE   Dn4
 BYTE   W92
 BYTE   W03
 BYTE   N30  An3
 BYTE   W01
 BYTE   PATT
  POIN2 Label_0_014A07A8
// 095   ----------------------------------------
 BYTE   W96
 BYTE   PATT
  POIN2 Label_0_014A0796
 BYTE   PATT
  POIN2 Label_0_014A07A1
 BYTE   PATT
  POIN2 Label_0_014A07A8
// 096   ----------------------------------------
 BYTE   W96
 BYTE   PATT
  POIN2 Label_0_014A0774
// 097   ----------------------------------------
Label_0_014A0ACB:
 BYTE   N48  Dn4  v100
 BYTE   W44
 BYTE   W03
 BYTE   Gn3
 BYTE   W48
 BYTE   N30  An3
 BYTE   W01
 BYTE   PEND 
// 098   ----------------------------------------
Label_0_014A0AD6:
 BYTE   W32
 BYTE   W03
 BYTE   N24  Bn3  v100
 BYTE   W36
 BYTE   N96  Cn4
 BYTE   W24
 BYTE   W01
 BYTE   PEND 
// 099   ----------------------------------------
Label_0_014A0AE1:
 BYTE   W92
 BYTE   W03
 BYTE   N30  Bn3  v100
 BYTE   W01
 BYTE   PEND 
// 100   ----------------------------------------
Label_0_014A0AE8:
 BYTE   W32
 BYTE   W03
 BYTE   N24  Cn4  v100
 BYTE   W36
 BYTE   W01
 BYTE   N96  Dn4
 BYTE   W24
 BYTE   PEND 
// 101   ----------------------------------------
Label_0_014A0AF3:
 BYTE   W92
 BYTE   W02
 BYTE   N30  An3  v100
 BYTE   W02
 BYTE   PEND 
 BYTE   PATT
  POIN2 Label_0_014A0AD6
// 102   ----------------------------------------
Label_0_014A0AFF:
 BYTE   W92
 BYTE   W03
 BYTE   N48  Gn3  v100
 BYTE   W01
 BYTE   PEND 
// 103   ----------------------------------------
Label_0_014A0B06:
 BYTE   W44
 BYTE   W03
 BYTE   N15  Cn4  v100
 BYTE   W20
 BYTE   N12  Dn4
 BYTE   W15
 BYTE   En4
 BYTE   W13
 BYTE   N48  Dn4
 BYTE   W01
 BYTE   PEND 
// 104   ----------------------------------------
 BYTE   W44
 BYTE   W02
 BYTE   Gn3
 BYTE   W48
 BYTE   W01
 BYTE   N32  En2
 BYTE   N32  En3
 BYTE   W01
// 105   ----------------------------------------
 BYTE   W32
 BYTE   W02
 BYTE   N60  Bn2
 BYTE   N56  Bn3
 BYTE   W60
 BYTE   N06  Dn3
 BYTE   N06  Dn4
 BYTE   W02
// 106   ----------------------------------------
 BYTE   W11
 BYTE   Cs3
 BYTE   N06  Cs4
 BYTE   W12
 BYTE   Bn2
 BYTE   N06  Bn3
 BYTE   W12
 BYTE   An2
 BYTE   N06  An3
 BYTE   W24
 BYTE   N24  Bn2
 BYTE   N24  Bn3
 BYTE   W36
 BYTE   N36  En2
 BYTE   N36  En3
 BYTE   W01
// 107   ----------------------------------------
 BYTE   W36
 BYTE   W01
 BYTE   Bn2
 BYTE   N36  Bn3
 BYTE   W44
 BYTE   W02
 BYTE   N96  An2
 BYTE   N96  An3
 BYTE   W13
// 108   ----------------------------------------
 BYTE   W92
 BYTE   W02
 BYTE   N32  En2
 BYTE   W02
// 109   ----------------------------------------
 BYTE   N30  En3
 BYTE   W32
 BYTE   W01
 BYTE   N48  Bn2
 BYTE   N48  Bn3
 BYTE   W60
 BYTE   W01
 BYTE   N12  Cs4
 BYTE   W01
 BYTE   N01  An3
 BYTE   W01
// 110   ----------------------------------------
 BYTE   N12
 BYTE   W18
 BYTE   Dn4
 BYTE   W01
 BYTE   Bn3
 BYTE   W17
 BYTE   N06  En4
 BYTE   W01
 BYTE   Cs4
 BYTE   W10
 BYTE   N12  En4
 BYTE   W01
 BYTE   Cs4
 BYTE   W18
 BYTE   Bn3
 BYTE   N12  Dn4
 BYTE   W18
 BYTE   En4
 BYTE   W01
 BYTE   Cs4
 BYTE   W10
 BYTE   N42  Cn4
 BYTE   N42  Fn4
 BYTE   W01
 BYTE   PATT
  POIN2 Label_0_014A0A90
// 111   ----------------------------------------
 BYTE   N80  Dn4  v100
 BYTE   W96
// 112   ----------------------------------------
 BYTE   W96
// 113   ----------------------------------------
 BYTE   W96
// 114   ----------------------------------------
 BYTE   W96
// 115   ----------------------------------------
 BYTE   W96
// 116   ----------------------------------------
 BYTE   W96
// 117   ----------------------------------------
 BYTE   W96
// 118   ----------------------------------------
 BYTE   W96
// 119   ----------------------------------------
 BYTE   W92
 BYTE   W03
 BYTE   N06  An2
 BYTE   W01
// 120   ----------------------------------------
 BYTE   An3
 BYTE   W11
 BYTE   An2
 BYTE   N06  An3
 BYTE   W12
 BYTE   Gn3
 BYTE   W01
 BYTE   Gn2
 BYTE   W11
 BYTE   N12  An2
 BYTE   N12  An3
 BYTE   W24
 BYTE   Cn3
 BYTE   N12  Cn4
 BYTE   W22
 BYTE   En4
 BYTE   W01
 BYTE   En3
 BYTE   W14
 BYTE   PATT
  POIN2 Label_0_014A089D
// 121   ----------------------------------------
 BYTE   N06  An2  v100
 BYTE   N06  An3
 BYTE   W11
 BYTE   Gn3
 BYTE   W01
 BYTE   Gn2
 BYTE   W10
 BYTE   An3
 BYTE   W01
 BYTE   An2
 BYTE   W12
 BYTE   Bn3
 BYTE   W01
 BYTE   Bn2
 BYTE   W23
 BYTE   En3
 BYTE   N06  En4
 BYTE   W11
 BYTE   Dn4
 BYTE   W01
 BYTE   Dn3
 BYTE   W12
 BYTE   Cn3
 BYTE   N06  Cn4
 BYTE   W11
 BYTE   Dn4
 BYTE   W01
 BYTE   Dn3
 BYTE   W01
// 122   ----------------------------------------
 BYTE   W11
 BYTE   Dn4
 BYTE   W01
 BYTE   Dn3
 BYTE   W23
 BYTE   Cn3
 BYTE   N06  Cn4
 BYTE   W24
 BYTE   N12  Bn2
 BYTE   N12  Bn3
 BYTE   W22
 BYTE   Gn3
 BYTE   W01
 BYTE   Gn2
 BYTE   W13
 BYTE   N06  An3
 BYTE   W01
// 123   ----------------------------------------
 BYTE   An2
 BYTE   W10
 BYTE   An3
 BYTE   W01
 BYTE   An2
 BYTE   W11
 BYTE   Gn3
 BYTE   W01
 BYTE   Gn2
 BYTE   W11
 BYTE   N12  An3
 BYTE   W01
 BYTE   An2
 BYTE   W24
 BYTE   Cn3
 BYTE   N12  Cn4
 BYTE   W22
 BYTE   En3
 BYTE   N12  En4
 BYTE   W15
// 124   ----------------------------------------
 BYTE   W10
 BYTE   N06
 BYTE   W01
 BYTE   En3
 BYTE   W11
 BYTE   Dn3
 BYTE   N06  Dn4
 BYTE   W12
 BYTE   Cn4
 BYTE   W01
 BYTE   Cn3
 BYTE   W11
 BYTE   Bn3
 BYTE   W01
 BYTE   Bn2
 BYTE   W10
 BYTE   Dn4
 BYTE   W01
 BYTE   Dn3
 BYTE   W12
 BYTE   Cn4
 BYTE   W01
 BYTE   Cn3
 BYTE   W11
 BYTE   Gn3
 BYTE   W01
 BYTE   Gn2
 BYTE   W12
 BYTE   An3
 BYTE   W01
// 125   ----------------------------------------
 BYTE   An2
 BYTE   W05
 BYTE   Bn2
 BYTE   N06  Bn3
 BYTE   W06
 BYTE   N44  Cn4
 BYTE   W01
 BYTE   N42  Cn3
 BYTE   W44
 BYTE   W03
 BYTE   N06  En3
 BYTE   N06  En4
 BYTE   W12
 BYTE   Dn4
 BYTE   W01
 BYTE   Dn3
 BYTE   W10
 BYTE   Cn4
 BYTE   W01
 BYTE   Cn3
 BYTE   W11
 BYTE   N96  Dn4
 BYTE   W01
 BYTE   Dn3
 BYTE   W01
// 126   ----------------------------------------
 BYTE   W96
// 127   ----------------------------------------
 BYTE   En3
 BYTE   W96
// 128   ----------------------------------------
 BYTE   Fn3
 BYTE   W96
// 129   ----------------------------------------
Label_0_014A0C42:
 BYTE   N96  Gn3  v100
 BYTE   W92
 BYTE   W03
 BYTE   Fn3
 BYTE   W01
 BYTE   PEND 
// 130   ----------------------------------------
 BYTE   W96
// 131   ----------------------------------------
 BYTE   En3
 BYTE   W96
 BYTE   PATT
  POIN2 Label_0_014A08EC
// 132   ----------------------------------------
Label_0_014A0C52:
 BYTE   N96  Cn3  v100
 BYTE   W92
 BYTE   W03
 BYTE   Dn3
 BYTE   W01
 BYTE   PEND 
// 133   ----------------------------------------
 BYTE   W96
// 134   ----------------------------------------
 BYTE   En3
 BYTE   W96
// 135   ----------------------------------------
 BYTE   Fn3
 BYTE   W96
 BYTE   PATT
  POIN2 Label_0_014A0C42
// 136   ----------------------------------------
 BYTE   W96
// 137   ----------------------------------------
 BYTE   N96  En3  v100
 BYTE   W96
 BYTE   PATT
  POIN2 Label_0_014A08EC
 BYTE   PATT
  POIN2 Label_0_014A0C52
 BYTE   PATT
  POIN2 Label_0_014A07A1
 BYTE   PATT
  POIN2 Label_0_014A07A8
// 138   ----------------------------------------
 BYTE   W96
 BYTE   PATT
  POIN2 Label_0_014A0796
 BYTE   PATT
  POIN2 Label_0_014A07A1
 BYTE   PATT
  POIN2 Label_0_014A07A8
// 139   ----------------------------------------
 BYTE   W96
 BYTE   PATT
  POIN2 Label_0_014A0774
 BYTE   PATT
  POIN2 Label_0_014A0ACB
 BYTE   PATT
  POIN2 Label_0_014A0AD6
 BYTE   PATT
  POIN2 Label_0_014A0AE1
 BYTE   PATT
  POIN2 Label_0_014A0AE8
 BYTE   PATT
  POIN2 Label_0_014A0AF3
 BYTE   PATT
  POIN2 Label_0_014A0AD6
 BYTE   PATT
  POIN2 Label_0_014A0AFF
 BYTE   PATT
  POIN2 Label_0_014A0B06
// 140   ----------------------------------------
 BYTE   W44
 BYTE   W02
 BYTE   N48  Gn3  v100
 BYTE   W48
 BYTE   W01
 BYTE   N12  An3
 BYTE   W01
// 141   ----------------------------------------
Label_0_014A0CC5:
 BYTE   N12  An2  v100
 BYTE   W32
 BYTE   W03
 BYTE   N12
 BYTE   N12  An3
 BYTE   W24
 BYTE   N12
 BYTE   W01
 BYTE   An2
 BYTE   W11
 BYTE   Gn3
 BYTE   W01
 BYTE   Gn2
 BYTE   W11
 BYTE   An2
 BYTE   N12  An3
 BYTE   W13
 BYTE   PEND 
// 142   ----------------------------------------
 BYTE   W92
 BYTE   W02
 BYTE   N12
 BYTE   W01
 BYTE   An2
 BYTE   W01
// 143   ----------------------------------------
 BYTE   W11
 BYTE   N12
 BYTE   N12  An3
 BYTE   W24
 BYTE   N12
 BYTE   W01
 BYTE   An2
 BYTE   W22
 BYTE   An3
 BYTE   W01
 BYTE   An2
 BYTE   W23
 BYTE   An3
 BYTE   W01
 BYTE   An2
 BYTE   W13
 BYTE   PATT
  POIN2 Label_0_014A0966
 BYTE   PATT
  POIN2 Label_0_014A0CC5
// 144   ----------------------------------------
 BYTE   W92
 BYTE   W03
 BYTE   N12  Bn3  v100
 BYTE   W01
// 145   ----------------------------------------
 BYTE   Bn2
 BYTE   W11
 BYTE   Bn3
 BYTE   W01
 BYTE   Bn2
 BYTE   W23
 BYTE   Cn3
 BYTE   N12  Cn4
 BYTE   W24
 BYTE   Dn3
 BYTE   N12  Dn4
 BYTE   W24
 BYTE   Dn3
 BYTE   N12  Dn4
 BYTE   W13
// 146   ----------------------------------------
 BYTE   W11
 BYTE   N12
 BYTE   W01
 BYTE   Dn3
 BYTE   W11
 BYTE   Cn4
 BYTE   W01
 BYTE   Cn3
 BYTE   W11
 BYTE   Bn3
 BYTE   W01
 BYTE   Bn2
 BYTE   W11
 BYTE   Gn3
 BYTE   W01
 BYTE   Gn2
 BYTE   W44
 BYTE   W03
 BYTE   N32  An3
 BYTE   W01
// 147   ----------------------------------------
 BYTE   An2
 BYTE   W32
 BYTE   W03
 BYTE   En2
 BYTE   N32  En3
 BYTE   W32
 BYTE   W03
 BYTE   TIE  An3
 BYTE   W01
 BYTE   An2
 BYTE   W24
 BYTE   W01
// 148   ----------------------------------------
 BYTE   W92
 BYTE   W02
 BYTE   EOT
 BYTE   An3
 BYTE   W01
 BYTE   An2
 BYTE   N32  Bn3
 BYTE   W01
// 149   ----------------------------------------
Label_0_014A0D40:
 BYTE   N32  Bn2  v100
 BYTE   W32
 BYTE   W02
 BYTE   Cn4
 BYTE   W01
 BYTE   Cn3
 BYTE   W36
 BYTE   TIE  Dn4
 BYTE   W01
 BYTE   Dn3
 BYTE   W24
 BYTE   PEND 
// 150   ----------------------------------------
 BYTE   W92
 BYTE   W03
 BYTE   EOT
 BYTE   EOT
 BYTE   Dn4
 BYTE   N68  Cn4
 BYTE   W01
// 151   ----------------------------------------
 BYTE   Cn3
 BYTE   W68
 BYTE   W03
 BYTE   N06  Bn3
 BYTE   W01
 BYTE   Bn2
 BYTE   W11
 BYTE   An3
 BYTE   W01
 BYTE   An2
 BYTE   W11
 BYTE   Gn3
 BYTE   W01
// 152   ----------------------------------------
 BYTE   Gn2
 BYTE   W11
 BYTE   N80  An3
 BYTE   W01
 BYTE   An2
 BYTE   W80
 BYTE   W03
 BYTE   N32  Bn3
 BYTE   W01
 BYTE   PATT
  POIN2 Label_0_014A0D40
// 153   ----------------------------------------
 BYTE   W92
 BYTE   W02
 BYTE   EOT
 BYTE   Dn4
 BYTE   W01
 BYTE   Dn3
 BYTE   FINE

//**************** Track 2 (Midi-Chn.1) ****************//

MarioTennisRound2Pandan_002:
// 000   ----------------------------------------
 BYTE   KEYSH   MarioTennisRound2Pandan_key+0
 BYTE   VOICE   1
 BYTE   VOL   16*MarioTennisRound2Pandan_mvl/mxv
 BYTE   PAN   c_v+0
 BYTE   N24  Cs2  v100
 BYTE   W24
 BYTE   N12  En1
 BYTE   N12  Ds2
 BYTE   W12
 BYTE   N12
 BYTE   W12
 BYTE   Cn1
 BYTE   W01
 BYTE   Ds2
 BYTE   W12
 BYTE   N12
 BYTE   W11
 BYTE   En1
 BYTE   W01
 BYTE   Ds2
 BYTE   W13
 BYTE   N10
 BYTE   W10
// 001   ----------------------------------------
Label_1_014A0D9B:
 BYTE   N12  Cn1  v100
 BYTE   N12  Ds2
 BYTE   W12
 BYTE   N12
 BYTE   W12
 BYTE   En1
 BYTE   W01
 BYTE   Ds2
 BYTE   W12
 BYTE   N10
 BYTE   W11
 BYTE   N12  Cn1
 BYTE   N12  Ds2
 BYTE   W12
 BYTE   N12
 BYTE   W12
 BYTE   En1
 BYTE   N12  Ds2
 BYTE   W12
 BYTE   N12
 BYTE   W12
 BYTE   PEND 
// 002   ----------------------------------------
Label_1_014A0DB7:
 BYTE   N12  Cn1  v100
 BYTE   W01
 BYTE   Ds2
 BYTE   W12
 BYTE   N12
 BYTE   W11
 BYTE   En1
 BYTE   W01
 BYTE   Ds2
 BYTE   W13
 BYTE   N10
 BYTE   W10
 BYTE   N12  Cn1
 BYTE   N12  Ds2
 BYTE   W12
 BYTE   N12
 BYTE   W12
 BYTE   En1
 BYTE   W01
 BYTE   Ds2
 BYTE   W12
 BYTE   N11
 BYTE   W11
 BYTE   PEND 
 BYTE   PATT
  POIN2 Label_1_014A0D9B
 BYTE   PATT
  POIN2 Label_1_014A0DB7
 BYTE   PATT
  POIN2 Label_1_014A0D9B
 BYTE   PATT
  POIN2 Label_1_014A0DB7
// 003   ----------------------------------------
Label_1_014A0DE7:
 BYTE   N12  Cn1  v100
 BYTE   N12  Ds2
 BYTE   W12
 BYTE   N12
 BYTE   W12
 BYTE   En1
 BYTE   W01
 BYTE   Ds2
 BYTE   W12
 BYTE   N10
 BYTE   W11
 BYTE   N12  Cn1
 BYTE   N12  Ds2
 BYTE   W12
 BYTE   N12
 BYTE   W12
 BYTE   En1
 BYTE   N12  Ds2
 BYTE   W12
 BYTE   En1
 BYTE   N12  Ds2
 BYTE   W12
 BYTE   PEND 
// 004   ----------------------------------------
Label_1_014A0E05:
 BYTE   N24  Cs2  v100
 BYTE   W24
 BYTE   N12  En1
 BYTE   N12  Ds2
 BYTE   W12
 BYTE   N12
 BYTE   W12
 BYTE   Cn1
 BYTE   W01
 BYTE   Ds2
 BYTE   W12
 BYTE   N12
 BYTE   W11
 BYTE   En1
 BYTE   W01
 BYTE   Ds2
 BYTE   W13
 BYTE   N10
 BYTE   W10
 BYTE   PEND 
 BYTE   PATT
  POIN2 Label_1_014A0D9B
 BYTE   PATT
  POIN2 Label_1_014A0DB7
 BYTE   PATT
  POIN2 Label_1_014A0D9B
 BYTE   PATT
  POIN2 Label_1_014A0DB7
 BYTE   PATT
  POIN2 Label_1_014A0D9B
 BYTE   PATT
  POIN2 Label_1_014A0DB7
 BYTE   PATT
  POIN2 Label_1_014A0DE7
 BYTE   PATT
  POIN2 Label_1_014A0E05
 BYTE   PATT
  POIN2 Label_1_014A0D9B
 BYTE   PATT
  POIN2 Label_1_014A0DB7
 BYTE   PATT
  POIN2 Label_1_014A0DE7
// 005   ----------------------------------------
Label_1_014A0E54:
 BYTE   N12  Cn1  v100
 BYTE   N24  Cs2
 BYTE   W24
 BYTE   N12  En1
 BYTE   W01
 BYTE   Ds2
 BYTE   W13
 BYTE   N10
 BYTE   W10
 BYTE   N12  Cn1
 BYTE   N12  Ds2
 BYTE   W12
 BYTE   N12
 BYTE   W12
 BYTE   En1
 BYTE   W01
 BYTE   Ds2
 BYTE   W12
 BYTE   N11
 BYTE   W11
 BYTE   PEND 
 BYTE   PATT
  POIN2 Label_1_014A0D9B
 BYTE   PATT
  POIN2 Label_1_014A0DB7
 BYTE   PATT
  POIN2 Label_1_014A0DE7
// 006   ----------------------------------------
Label_1_014A0E7E:
 BYTE   N24  Cs2  v100
 BYTE   W24
 BYTE   N12  En1
 BYTE   N12  Ds2
 BYTE   W12
 BYTE   N12
 BYTE   W12
 BYTE   Cn1
 BYTE   N12  Ds2
 BYTE   W13
 BYTE   N12
 BYTE   W10
 BYTE   En1
 BYTE   W02
 BYTE   Ds2
 BYTE   W12
 BYTE   N10
 BYTE   W10
 BYTE   N12  Cn1
 BYTE   W01
 BYTE   PEND 
// 007   ----------------------------------------
Label_1_014A0E99:
 BYTE   N12  Ds2  v100
 BYTE   W12
 BYTE   N12
 BYTE   W11
 BYTE   En1
 BYTE   W01
 BYTE   Ds2
 BYTE   W13
 BYTE   N10
 BYTE   W10
 BYTE   N12  Cn1
 BYTE   N12  Ds2
 BYTE   W12
 BYTE   N12
 BYTE   W12
 BYTE   En1
 BYTE   W01
 BYTE   Ds2
 BYTE   W12
 BYTE   N12
 BYTE   W12
 BYTE   PEND 
// 008   ----------------------------------------
Label_1_014A0EB3:
 BYTE   N12  Cn1  v100
 BYTE   N12  Ds2
 BYTE   W12
 BYTE   N12
 BYTE   W12
 BYTE   En1
 BYTE   W01
 BYTE   Ds2
 BYTE   W12
 BYTE   N10
 BYTE   W11
 BYTE   N12  Cn1
 BYTE   N12  Ds2
 BYTE   W12
 BYTE   N12
 BYTE   W12
 BYTE   En1
 BYTE   N12  Ds2
 BYTE   W12
 BYTE   N11
 BYTE   W11
 BYTE   N12  Cn1
 BYTE   W01
 BYTE   PEND 
// 009   ----------------------------------------
Label_1_014A0ED2:
 BYTE   N12  Ds2  v100
 BYTE   W12
 BYTE   N12
 BYTE   W11
 BYTE   En1
 BYTE   W01
 BYTE   Ds2
 BYTE   W13
 BYTE   N10
 BYTE   W10
 BYTE   N12  Cn1
 BYTE   N12  Ds2
 BYTE   W12
 BYTE   N12
 BYTE   W12
 BYTE   En1
 BYTE   W01
 BYTE   Ds2
 BYTE   W11
 BYTE   En1
 BYTE   W01
 BYTE   Ds2
 BYTE   W12
 BYTE   PEND 
// 010   ----------------------------------------
Label_1_014A0EEE:
 BYTE   N12  Cn1  v100
 BYTE   N24  Cs2
 BYTE   W24
 BYTE   N12  En1
 BYTE   W01
 BYTE   Ds2
 BYTE   W12
 BYTE   N10
 BYTE   W11
 BYTE   N12  Cn1
 BYTE   N12  Ds2
 BYTE   W12
 BYTE   N12
 BYTE   W12
 BYTE   En1
 BYTE   N12  Ds2
 BYTE   W12
 BYTE   N11
 BYTE   W11
 BYTE   N12  Cn1
 BYTE   W01
 BYTE   PEND 
 BYTE   PATT
  POIN2 Label_1_014A0E99
 BYTE   PATT
  POIN2 Label_1_014A0EB3
 BYTE   PATT
  POIN2 Label_1_014A0ED2
 BYTE   PATT
  POIN2 Label_1_014A0E7E
 BYTE   PATT
  POIN2 Label_1_014A0E99
 BYTE   PATT
  POIN2 Label_1_014A0EB3
 BYTE   PATT
  POIN2 Label_1_014A0E99
 BYTE   PATT
  POIN2 Label_1_014A0EEE
 BYTE   PATT
  POIN2 Label_1_014A0E99
 BYTE   PATT
  POIN2 Label_1_014A0EB3
 BYTE   PATT
  POIN2 Label_1_014A0ED2
 BYTE   PATT
  POIN2 Label_1_014A0E7E
 BYTE   PATT
  POIN2 Label_1_014A0E99
 BYTE   PATT
  POIN2 Label_1_014A0EB3
 BYTE   PATT
  POIN2 Label_1_014A0ED2
 BYTE   PATT
  POIN2 Label_1_014A0EB3
 BYTE   PATT
  POIN2 Label_1_014A0E99
 BYTE   PATT
  POIN2 Label_1_014A0EB3
 BYTE   PATT
  POIN2 Label_1_014A0ED2
// 011   ----------------------------------------
Label_1_014A0F6B:
 BYTE   N24  Cs2  v100
 BYTE   W23
 BYTE   N12  En1
 BYTE   N12  Ds2
 BYTE   W12
 BYTE   N12
 BYTE   W12
 BYTE   Cn1
 BYTE   W01
 BYTE   Ds2
 BYTE   W12
 BYTE   N12
 BYTE   W10
 BYTE   En1
 BYTE   W02
 BYTE   Ds2
 BYTE   W13
 BYTE   N10
 BYTE   W09
 BYTE   N12  Cn1
 BYTE   W01
 BYTE   Ds2
 BYTE   W01
 BYTE   PEND 
// 012   ----------------------------------------
Label_1_014A0F88:
 BYTE   W11
 BYTE   N12  Ds2  v100
 BYTE   W11
 BYTE   En1
 BYTE   W02
 BYTE   Ds2
 BYTE   W12
 BYTE   N10
 BYTE   W10
 BYTE   N12  Cn1
 BYTE   N12  Ds2
 BYTE   W13
 BYTE   N12
 BYTE   W11
 BYTE   En1
 BYTE   W01
 BYTE   Ds2
 BYTE   W12
 BYTE   N12
 BYTE   W12
 BYTE   Cn1
 BYTE   W01
 BYTE   PEND 
// 013   ----------------------------------------
Label_1_014A0FA3:
 BYTE   N12  Ds2  v100
 BYTE   W12
 BYTE   N12
 BYTE   W11
 BYTE   En1
 BYTE   W01
 BYTE   Ds2
 BYTE   W13
 BYTE   N10
 BYTE   W10
 BYTE   N12  Cn1
 BYTE   N12  Ds2
 BYTE   W12
 BYTE   N12
 BYTE   W12
 BYTE   En1
 BYTE   W01
 BYTE   Ds2
 BYTE   W12
 BYTE   N11
 BYTE   W10
 BYTE   N12  Cn1
 BYTE   W01
 BYTE   Ds2
 BYTE   W01
 BYTE   PEND 
 BYTE   PATT
  POIN2 Label_1_014A0F88
 BYTE   PATT
  POIN2 Label_1_014A0FA3
 BYTE   PATT
  POIN2 Label_1_014A0F88
 BYTE   PATT
  POIN2 Label_1_014A0FA3
// 014   ----------------------------------------
Label_1_014A0FD6:
 BYTE   W11
 BYTE   N12  Ds2  v100
 BYTE   W11
 BYTE   En1
 BYTE   W02
 BYTE   Ds2
 BYTE   W12
 BYTE   N10
 BYTE   W10
 BYTE   N12  Cn1
 BYTE   N12  Ds2
 BYTE   W13
 BYTE   N12
 BYTE   W11
 BYTE   En1
 BYTE   W01
 BYTE   Ds2
 BYTE   W12
 BYTE   En1
 BYTE   N12  Ds2
 BYTE   W13
 BYTE   PEND 
 BYTE   PATT
  POIN2 Label_1_014A0E7E
 BYTE   PATT
  POIN2 Label_1_014A0E99
 BYTE   PATT
  POIN2 Label_1_014A0EB3
 BYTE   PATT
  POIN2 Label_1_014A0E99
 BYTE   PATT
  POIN2 Label_1_014A0EEE
 BYTE   PATT
  POIN2 Label_1_014A0E99
 BYTE   PATT
  POIN2 Label_1_014A0EB3
 BYTE   PATT
  POIN2 Label_1_014A0ED2
 BYTE   PATT
  POIN2 Label_1_014A0F6B
 BYTE   PATT
  POIN2 Label_1_014A0F88
 BYTE   PATT
  POIN2 Label_1_014A0FA3
// 015   ----------------------------------------
Label_1_014A1028:
 BYTE   W11
 BYTE   N12  Ds2  v100
 BYTE   W11
 BYTE   En1
 BYTE   W02
 BYTE   Ds2
 BYTE   W12
 BYTE   N10
 BYTE   W10
 BYTE   N12  Cn1
 BYTE   N12  Ds2
 BYTE   W13
 BYTE   N12
 BYTE   W11
 BYTE   En1
 BYTE   W01
 BYTE   Ds2
 BYTE   W12
 BYTE   N12
 BYTE   W12
 BYTE   Cn1
 BYTE   N24  Cs2
 BYTE   W01
 BYTE   PEND 
// 016   ----------------------------------------
Label_1_014A1045:
 BYTE   W23
 BYTE   N12  En1  v100
 BYTE   W01
 BYTE   Ds2
 BYTE   W13
 BYTE   N10
 BYTE   W10
 BYTE   N12  Cn1
 BYTE   N12  Ds2
 BYTE   W12
 BYTE   N12
 BYTE   W12
 BYTE   En1
 BYTE   W01
 BYTE   Ds2
 BYTE   W12
 BYTE   N11
 BYTE   W10
 BYTE   N12  Cn1
 BYTE   W01
 BYTE   Ds2
 BYTE   W01
 BYTE   PEND 
 BYTE   PATT
  POIN2 Label_1_014A0F88
 BYTE   PATT
  POIN2 Label_1_014A0FA3
 BYTE   PATT
  POIN2 Label_1_014A0FD6
// 017   ----------------------------------------
Label_1_014A1070:
 BYTE   N24  Cs2  v100
 BYTE   W24
 BYTE   N12  Ds2
 BYTE   W12
 BYTE   Cn1
 BYTE   W01
 BYTE   N10  Ds2
 BYTE   W10
 BYTE   N12
 BYTE   W12
 BYTE   N12
 BYTE   W13
 BYTE   En1
 BYTE   N12  Ds2
 BYTE   W12
 BYTE   N12
 BYTE   W12
 BYTE   PEND 
// 018   ----------------------------------------
Label_1_014A1087:
 BYTE   N12  Cn1  v100
 BYTE   N11  Ds2
 BYTE   W12
 BYTE   N12
 BYTE   W12
 BYTE   N12
 BYTE   W12
 BYTE   Cn1
 BYTE   W01
 BYTE   N10  Ds2
 BYTE   W10
 BYTE   N12
 BYTE   W12
 BYTE   N12
 BYTE   W13
 BYTE   En1
 BYTE   N12  Ds2
 BYTE   W12
 BYTE   N12
 BYTE   W12
 BYTE   PEND 
 BYTE   PATT
  POIN2 Label_1_014A1087
// 019   ----------------------------------------
Label_1_014A10A6:
 BYTE   N12  Cn1  v100
 BYTE   N11  Ds2
 BYTE   W12
 BYTE   N12
 BYTE   W12
 BYTE   N12
 BYTE   W12
 BYTE   Cn1
 BYTE   W01
 BYTE   N10  Ds2
 BYTE   W10
 BYTE   N12
 BYTE   W12
 BYTE   N12
 BYTE   W13
 BYTE   En1
 BYTE   N12  Ds2
 BYTE   W12
 BYTE   En1
 BYTE   N12  Ds2
 BYTE   W12
 BYTE   PEND 
// 020   ----------------------------------------
Label_1_014A10C2:
 BYTE   W01
 BYTE   N12  Cn1  v100
 BYTE   N11  Ds2
 BYTE   W11
 BYTE   N12
 BYTE   W13
 BYTE   N12
 BYTE   W12
 BYTE   Cn1
 BYTE   N10  Ds2
 BYTE   W11
 BYTE   N12
 BYTE   W12
 BYTE   N12
 BYTE   W12
 BYTE   N12
 BYTE   W01
 BYTE   En1
 BYTE   W11
 BYTE   Ds2
 BYTE   W12
 BYTE   PEND 
 BYTE   PATT
  POIN2 Label_1_014A10C2
 BYTE   PATT
  POIN2 Label_1_014A0DB7
 BYTE   PATT
  POIN2 Label_1_014A0D9B
// 021   ----------------------------------------
Label_1_014A10EB:
 BYTE   N24  Cs2  v100
 BYTE   W24
 BYTE   N12  En1
 BYTE   N12  Ds2
 BYTE   W12
 BYTE   N12
 BYTE   W12
 BYTE   Cn1
 BYTE   W01
 BYTE   Ds2
 BYTE   W12
 BYTE   N12
 BYTE   W11
 BYTE   En1
 BYTE   W01
 BYTE   Ds2
 BYTE   W13
 BYTE   N09
 BYTE   W10
 BYTE   PEND 
// 022   ----------------------------------------
Label_1_014A1103:
 BYTE   N12  Cn1  v100
 BYTE   N12  Ds2
 BYTE   W12
 BYTE   N12
 BYTE   W11
 BYTE   En1
 BYTE   W01
 BYTE   Ds2
 BYTE   W13
 BYTE   N10
 BYTE   W10
 BYTE   N12  Cn1
 BYTE   N12  Ds2
 BYTE   W12
 BYTE   N12
 BYTE   W12
 BYTE   En1
 BYTE   W01
 BYTE   Ds2
 BYTE   W12
 BYTE   N12
 BYTE   W12
 BYTE   PEND 
 BYTE   PATT
  POIN2 Label_1_014A0EB3
 BYTE   PATT
  POIN2 Label_1_014A0E99
 BYTE   PATT
  POIN2 Label_1_014A0EEE
 BYTE   PATT
  POIN2 Label_1_014A0E99
 BYTE   PATT
  POIN2 Label_1_014A0EB3
 BYTE   PATT
  POIN2 Label_1_014A0ED2
 BYTE   PATT
  POIN2 Label_1_014A0E7E
 BYTE   PATT
  POIN2 Label_1_014A0E99
 BYTE   PATT
  POIN2 Label_1_014A0EB3
 BYTE   PATT
  POIN2 Label_1_014A0E99
 BYTE   PATT
  POIN2 Label_1_014A0EB3
 BYTE   PATT
  POIN2 Label_1_014A0E99
 BYTE   PATT
  POIN2 Label_1_014A0EB3
 BYTE   PATT
  POIN2 Label_1_014A0ED2
 BYTE   PATT
  POIN2 Label_1_014A0E7E
 BYTE   PATT
  POIN2 Label_1_014A0E99
 BYTE   PATT
  POIN2 Label_1_014A0EB3
 BYTE   PATT
  POIN2 Label_1_014A0E99
 BYTE   PATT
  POIN2 Label_1_014A0EB3
 BYTE   PATT
  POIN2 Label_1_014A0E99
 BYTE   PATT
  POIN2 Label_1_014A0EB3
 BYTE   PATT
  POIN2 Label_1_014A0ED2
 BYTE   PATT
  POIN2 Label_1_014A0E05
 BYTE   PATT
  POIN2 Label_1_014A0D9B
 BYTE   PATT
  POIN2 Label_1_014A0DB7
 BYTE   PATT
  POIN2 Label_1_014A0D9B
 BYTE   PATT
  POIN2 Label_1_014A0DB7
 BYTE   PATT
  POIN2 Label_1_014A0D9B
 BYTE   PATT
  POIN2 Label_1_014A0DB7
 BYTE   PATT
  POIN2 Label_1_014A0DE7
 BYTE   PATT
  POIN2 Label_1_014A0E05
 BYTE   PATT
  POIN2 Label_1_014A0D9B
 BYTE   PATT
  POIN2 Label_1_014A0DB7
 BYTE   PATT
  POIN2 Label_1_014A0D9B
 BYTE   PATT
  POIN2 Label_1_014A0DB7
 BYTE   PATT
  POIN2 Label_1_014A0D9B
 BYTE   PATT
  POIN2 Label_1_014A0DB7
 BYTE   PATT
  POIN2 Label_1_014A0DE7
 BYTE   PATT
  POIN2 Label_1_014A0E05
 BYTE   PATT
  POIN2 Label_1_014A0D9B
 BYTE   PATT
  POIN2 Label_1_014A0DB7
 BYTE   PATT
  POIN2 Label_1_014A0DE7
 BYTE   PATT
  POIN2 Label_1_014A0E54
 BYTE   PATT
  POIN2 Label_1_014A0D9B
 BYTE   PATT
  POIN2 Label_1_014A0DB7
 BYTE   PATT
  POIN2 Label_1_014A0DE7
 BYTE   PATT
  POIN2 Label_1_014A0E7E
 BYTE   PATT
  POIN2 Label_1_014A0E99
 BYTE   PATT
  POIN2 Label_1_014A0EB3
 BYTE   PATT
  POIN2 Label_1_014A0ED2
 BYTE   PATT
  POIN2 Label_1_014A0EEE
 BYTE   PATT
  POIN2 Label_1_014A0E99
 BYTE   PATT
  POIN2 Label_1_014A0EB3
 BYTE   PATT
  POIN2 Label_1_014A0ED2
 BYTE   PATT
  POIN2 Label_1_014A0E7E
 BYTE   PATT
  POIN2 Label_1_014A0E99
 BYTE   PATT
  POIN2 Label_1_014A0EB3
 BYTE   PATT
  POIN2 Label_1_014A0E99
 BYTE   PATT
  POIN2 Label_1_014A0EEE
 BYTE   PATT
  POIN2 Label_1_014A0E99
 BYTE   PATT
  POIN2 Label_1_014A0EB3
 BYTE   PATT
  POIN2 Label_1_014A0ED2
 BYTE   PATT
  POIN2 Label_1_014A0E7E
 BYTE   PATT
  POIN2 Label_1_014A0E99
 BYTE   PATT
  POIN2 Label_1_014A0EB3
 BYTE   PATT
  POIN2 Label_1_014A0ED2
 BYTE   PATT
  POIN2 Label_1_014A0EB3
 BYTE   PATT
  POIN2 Label_1_014A0E99
 BYTE   PATT
  POIN2 Label_1_014A0EB3
 BYTE   PATT
  POIN2 Label_1_014A0ED2
 BYTE   PATT
  POIN2 Label_1_014A0F6B
 BYTE   PATT
  POIN2 Label_1_014A0F88
 BYTE   PATT
  POIN2 Label_1_014A0FA3
 BYTE   PATT
  POIN2 Label_1_014A0F88
 BYTE   PATT
  POIN2 Label_1_014A0FA3
 BYTE   PATT
  POIN2 Label_1_014A0F88
 BYTE   PATT
  POIN2 Label_1_014A0FA3
 BYTE   PATT
  POIN2 Label_1_014A0FD6
 BYTE   PATT
  POIN2 Label_1_014A0E7E
 BYTE   PATT
  POIN2 Label_1_014A0E99
 BYTE   PATT
  POIN2 Label_1_014A0EB3
 BYTE   PATT
  POIN2 Label_1_014A0E99
 BYTE   PATT
  POIN2 Label_1_014A0EEE
 BYTE   PATT
  POIN2 Label_1_014A0E99
 BYTE   PATT
  POIN2 Label_1_014A0EB3
 BYTE   PATT
  POIN2 Label_1_014A0ED2
 BYTE   PATT
  POIN2 Label_1_014A0F6B
 BYTE   PATT
  POIN2 Label_1_014A0F88
 BYTE   PATT
  POIN2 Label_1_014A0FA3
 BYTE   PATT
  POIN2 Label_1_014A1028
 BYTE   PATT
  POIN2 Label_1_014A1045
 BYTE   PATT
  POIN2 Label_1_014A0F88
 BYTE   PATT
  POIN2 Label_1_014A0FA3
 BYTE   PATT
  POIN2 Label_1_014A0FD6
 BYTE   PATT
  POIN2 Label_1_014A1070
 BYTE   PATT
  POIN2 Label_1_014A1087
 BYTE   PATT
  POIN2 Label_1_014A1087
 BYTE   PATT
  POIN2 Label_1_014A10A6
 BYTE   PATT
  POIN2 Label_1_014A10C2
 BYTE   PATT
  POIN2 Label_1_014A10C2
 BYTE   PATT
  POIN2 Label_1_014A0DB7
 BYTE   PATT
  POIN2 Label_1_014A0D9B
 BYTE   PATT
  POIN2 Label_1_014A10EB
 BYTE   PATT
  POIN2 Label_1_014A1103
 BYTE   PATT
  POIN2 Label_1_014A0EB3
 BYTE   PATT
  POIN2 Label_1_014A0E99
 BYTE   PATT
  POIN2 Label_1_014A0EEE
 BYTE   PATT
  POIN2 Label_1_014A0E99
 BYTE   PATT
  POIN2 Label_1_014A0EB3
 BYTE   PATT
  POIN2 Label_1_014A0ED2
 BYTE   PATT
  POIN2 Label_1_014A0E7E
 BYTE   PATT
  POIN2 Label_1_014A0E99
 BYTE   PATT
  POIN2 Label_1_014A0EB3
 BYTE   PATT
  POIN2 Label_1_014A0E99
 BYTE   PATT
  POIN2 Label_1_014A0EB3
 BYTE   PATT
  POIN2 Label_1_014A0E99
 BYTE   PATT
  POIN2 Label_1_014A0EB3
 BYTE   PATT
  POIN2 Label_1_014A0ED2
 BYTE   PATT
  POIN2 Label_1_014A0E7E
 BYTE   PATT
  POIN2 Label_1_014A0E99
 BYTE   PATT
  POIN2 Label_1_014A0EB3
 BYTE   PATT
  POIN2 Label_1_014A0E99
 BYTE   PATT
  POIN2 Label_1_014A0EB3
 BYTE   PATT
  POIN2 Label_1_014A0E99
 BYTE   PATT
  POIN2 Label_1_014A0EB3
 BYTE   PATT
  POIN2 Label_1_014A0ED2
 BYTE   FINE

//**************** Track 3 (Midi-Chn.2) ****************//

MarioTennisRound2Pandan_003:
// 000   ----------------------------------------
 BYTE   KEYSH   MarioTennisRound2Pandan_key+0
 BYTE   VOICE   103
 BYTE   VOL   32*MarioTennisRound2Pandan_mvl/mxv
 BYTE   PAN   c_v+0
 BYTE   N32  En2  v100
 BYTE   N32  En3
 BYTE   W32
 BYTE   W03
 BYTE   N60  Bn2
 BYTE   N56  Bn3
 BYTE   W60
 BYTE   W01
// 001   ----------------------------------------
Label_2_014A13AD:
 BYTE   N06  Dn3  v100
 BYTE   N06  Dn4
 BYTE   W12
 BYTE   Cs3
 BYTE   N06  Cs4
 BYTE   W12
 BYTE   Bn2
 BYTE   N06  Bn3
 BYTE   W12
 BYTE   An2
 BYTE   N06  An3
 BYTE   W24
 BYTE   N24  Bn2
 BYTE   N24  Bn3
 BYTE   W36
 BYTE   PEND 
// 002   ----------------------------------------
 BYTE   N36  En2
 BYTE   N36  En3
 BYTE   W36
 BYTE   W02
 BYTE   Bn2
 BYTE   N36  Bn3
 BYTE   W44
 BYTE   W02
 BYTE   N96  An2
 BYTE   N96  An3
 BYTE   W12
// 003   ----------------------------------------
 BYTE   W96
// 004   ----------------------------------------
 BYTE   N32  En2
 BYTE   N32  En3
 BYTE   W32
 BYTE   W03
 BYTE   N56  Bn2
 BYTE   N56  Bn3
 BYTE   W60
 BYTE   N06  Dn3
 BYTE   N06  Dn4
 BYTE   W01
// 005   ----------------------------------------
 BYTE   W12
 BYTE   Cs3
 BYTE   N06  Cs4
 BYTE   W12
 BYTE   Bn2
 BYTE   N06  Bn3
 BYTE   W11
 BYTE   An2
 BYTE   N06  An3
 BYTE   W24
 BYTE   N24  Bn2
 BYTE   N24  Bn3
 BYTE   W24
 BYTE   N12  Cs3
 BYTE   N12  Cs4
 BYTE   W13
// 006   ----------------------------------------
Label_2_014A13FD:
 BYTE   N24  Cn3  v100
 BYTE   N24  Cn4
 BYTE   W36
 BYTE   Gn2
 BYTE   N24  Gn3
 BYTE   W36
 BYTE   Cn3
 BYTE   N24  Cn4
 BYTE   W24
 BYTE   PEND 
// 007   ----------------------------------------
 BYTE   N80  Dn3
 BYTE   N80  Dn4
 BYTE   W96
// 008   ----------------------------------------
 BYTE   N32  En2
 BYTE   N32  En3
 BYTE   W32
 BYTE   W03
 BYTE   N60  Bn2
 BYTE   N56  Bn3
 BYTE   W60
 BYTE   N06  Dn3
 BYTE   N06  Dn4
 BYTE   W01
// 009   ----------------------------------------
 BYTE   W12
 BYTE   Cs3
 BYTE   N06  Cs4
 BYTE   W12
 BYTE   Bn2
 BYTE   N06  Bn3
 BYTE   W11
 BYTE   An2
 BYTE   N06  An3
 BYTE   W24
 BYTE   N24  Bn2
 BYTE   N24  Bn3
 BYTE   W36
 BYTE   W01
// 010   ----------------------------------------
 BYTE   N36  En2
 BYTE   N36  En3
 BYTE   W36
 BYTE   W01
 BYTE   Bn2
 BYTE   N36  Bn3
 BYTE   W44
 BYTE   W02
 BYTE   N96  An2
 BYTE   N96  An3
 BYTE   W13
// 011   ----------------------------------------
 BYTE   W96
// 012   ----------------------------------------
 BYTE   N32  En2
 BYTE   N32  En3
 BYTE   W32
 BYTE   W03
 BYTE   N48  Bn2
 BYTE   N48  Bn3
 BYTE   W60
 BYTE   W01
// 013   ----------------------------------------
Label_2_014A1451:
 BYTE   N12  An3  v100
 BYTE   N12  Cs4
 BYTE   W19
 BYTE   Dn4
 BYTE   W01
 BYTE   Bn3
 BYTE   W17
 BYTE   N06  Cs4
 BYTE   N06  En4
 BYTE   W11
 BYTE   N12  Cs4
 BYTE   N12  En4
 BYTE   W18
 BYTE   Dn4
 BYTE   W01
 BYTE   Bn3
 BYTE   W18
 BYTE   Cs4
 BYTE   N12  En4
 BYTE   W11
 BYTE   PEND 
// 014   ----------------------------------------
Label_2_014A146E:
 BYTE   N42  Cn4  v100
 BYTE   N42  Fn4
 BYTE   W48
 BYTE   N05  Cn4
 BYTE   N06  Fn4
 BYTE   W12
 BYTE   N05  Cn4
 BYTE   N06  En4
 BYTE   W12
 BYTE   N05  Bn3
 BYTE   N06  Dn4
 BYTE   W11
 BYTE   N05  An3
 BYTE   N06  Cn4
 BYTE   W13
 BYTE   PEND 
// 015   ----------------------------------------
 BYTE   N80  Bn3
 BYTE   N80  Dn4
 BYTE   W96
// 016   ----------------------------------------
Label_2_014A148E:
 BYTE   N30  An3  v100
 BYTE   W36
 BYTE   N24  Bn3
 BYTE   W36
 BYTE   N96  Cn4
 BYTE   W24
 BYTE   PEND 
// 017   ----------------------------------------
 BYTE   W96
// 018   ----------------------------------------
Label_2_014A149A:
 BYTE   N30  Bn3  v100
 BYTE   W36
 BYTE   N24  Cn4
 BYTE   W36
 BYTE   W01
 BYTE   N96  Dn4
 BYTE   W23
 BYTE   PEND 
// 019   ----------------------------------------
 BYTE   W96
 BYTE   PATT
  POIN2 Label_2_014A148E
// 020   ----------------------------------------
 BYTE   W96
// 021   ----------------------------------------
Label_2_014A14AD:
 BYTE   N48  Gn3  v100
 BYTE   W48
 BYTE   N15  Cn4
 BYTE   W20
 BYTE   N12  Dn4
 BYTE   W15
 BYTE   En4
 BYTE   W13
 BYTE   PEND 
// 022   ----------------------------------------
Label_2_014A14BA:
 BYTE   N48  Dn4  v100
 BYTE   W48
 BYTE   Gn3
 BYTE   W48
 BYTE   PEND 
// 023   ----------------------------------------
Label_2_014A14C1:
 BYTE   N30  An3  v100
 BYTE   W32
 BYTE   W03
 BYTE   N24  Bn3
 BYTE   W36
 BYTE   W01
 BYTE   N96  Cn4
 BYTE   W24
 BYTE   PEND 
// 024   ----------------------------------------
 BYTE   W96
// 025   ----------------------------------------
Label_2_014A14CF:
 BYTE   N30  Bn3  v100
 BYTE   W36
 BYTE   N24  Cn4
 BYTE   W36
 BYTE   N96  Dn4
 BYTE   W24
 BYTE   PEND 
// 026   ----------------------------------------
Label_2_014A14DA:
 BYTE   W92
 BYTE   W03
 BYTE   N30  An3  v100
 BYTE   W01
 BYTE   PEND 
// 027   ----------------------------------------
Label_2_014A14E1:
 BYTE   W32
 BYTE   W03
 BYTE   N24  Bn3  v100
 BYTE   W36
 BYTE   W01
 BYTE   N96  Cn4
 BYTE   W24
 BYTE   PEND 
// 028   ----------------------------------------
 BYTE   W96
 BYTE   PATT
  POIN2 Label_2_014A14AD
// 029   ----------------------------------------
Label_2_014A14F2:
 BYTE   N48  Dn4  v100
 BYTE   W44
 BYTE   W03
 BYTE   Gn3
 BYTE   W48
 BYTE   W01
 BYTE   PEND 
// 030   ----------------------------------------
Label_2_014A14FB:
 BYTE   N32  En2  v100
 BYTE   N32  En3
 BYTE   W32
 BYTE   W03
 BYTE   N60  Bn2
 BYTE   N60  Bn3
 BYTE   W60
 BYTE   W01
 BYTE   PEND 
 BYTE   PATT
  POIN2 Label_2_014A13AD
// 031   ----------------------------------------
 BYTE   N32  En2  v100
 BYTE   N32  En3
 BYTE   W36
 BYTE   W02
 BYTE   N40  Bn2
 BYTE   N36  Bn3
 BYTE   W44
 BYTE   W02
 BYTE   N96  An2
 BYTE   N96  An3
 BYTE   W12
// 032   ----------------------------------------
 BYTE   W96
 BYTE   PATT
  POIN2 Label_2_014A14FB
 BYTE   PATT
  POIN2 Label_2_014A1451
// 033   ----------------------------------------
Label_2_014A152B:
 BYTE   N40  Cn4  v100
 BYTE   N42  Fn4
 BYTE   W48
 BYTE   N05  Cn4
 BYTE   N06  Fn4
 BYTE   W12
 BYTE   N05  Cn4
 BYTE   N06  En4
 BYTE   W12
 BYTE   N05  Bn3
 BYTE   N06  Dn4
 BYTE   W11
 BYTE   N05  An3
 BYTE   N06  Cn4
 BYTE   W13
 BYTE   PEND 
// 034   ----------------------------------------
 BYTE   N80  Bn3
 BYTE   N80  Dn4
 BYTE   W96
// 035   ----------------------------------------
 BYTE   W96
// 036   ----------------------------------------
 BYTE   W96
// 037   ----------------------------------------
 BYTE   W96
// 038   ----------------------------------------
 BYTE   W96
// 039   ----------------------------------------
 BYTE   W96
// 040   ----------------------------------------
 BYTE   W96
// 041   ----------------------------------------
 BYTE   W96
// 042   ----------------------------------------
 BYTE   W96
// 043   ----------------------------------------
Label_2_014A1553:
 BYTE   N06  An2  v100
 BYTE   W01
 BYTE   An3
 BYTE   W11
 BYTE   An2
 BYTE   N06  An3
 BYTE   W12
 BYTE   Gn3
 BYTE   W01
 BYTE   Gn2
 BYTE   W11
 BYTE   N12  An2
 BYTE   N12  An3
 BYTE   W24
 BYTE   Cn3
 BYTE   N12  Cn4
 BYTE   W23
 BYTE   En3
 BYTE   N12  En4
 BYTE   W13
 BYTE   PEND 
// 044   ----------------------------------------
Label_2_014A156F:
 BYTE   W12
 BYTE   N06  En3  v100
 BYTE   N06  En4
 BYTE   W12
 BYTE   Dn3
 BYTE   N06  Dn4
 BYTE   W12
 BYTE   Cn3
 BYTE   N06  Cn4
 BYTE   W12
 BYTE   Bn3
 BYTE   W01
 BYTE   Bn2
 BYTE   W10
 BYTE   Dn4
 BYTE   W01
 BYTE   Dn3
 BYTE   W12
 BYTE   Cn4
 BYTE   W01
 BYTE   Cn3
 BYTE   W11
 BYTE   Gn2
 BYTE   N06  Gn3
 BYTE   W12
 BYTE   PEND 
// 045   ----------------------------------------
Label_2_014A158F:
 BYTE   W01
 BYTE   N06  An2  v100
 BYTE   N06  An3
 BYTE   W11
 BYTE   Gn3
 BYTE   W01
 BYTE   Gn2
 BYTE   W11
 BYTE   An2
 BYTE   N06  An3
 BYTE   W12
 BYTE   Bn3
 BYTE   W01
 BYTE   Bn2
 BYTE   W23
 BYTE   En3
 BYTE   N06  En4
 BYTE   W12
 BYTE   Dn3
 BYTE   N06  Dn4
 BYTE   W12
 BYTE   Cn3
 BYTE   N06  Cn4
 BYTE   W12
 BYTE   PEND 
// 046   ----------------------------------------
Label_2_014A15AF:
 BYTE   N06  Dn3  v100
 BYTE   N06  Dn4
 BYTE   W12
 BYTE   N06
 BYTE   W01
 BYTE   Dn3
 BYTE   W23
 BYTE   Cn3
 BYTE   N06  Cn4
 BYTE   W24
 BYTE   N12  Bn2
 BYTE   N12  Bn3
 BYTE   W23
 BYTE   Gn2
 BYTE   N12  Gn3
 BYTE   W13
 BYTE   PEND 
// 047   ----------------------------------------
Label_2_014A15C7:
 BYTE   N06  An3  v100
 BYTE   W01
 BYTE   An2
 BYTE   W10
 BYTE   An3
 BYTE   W01
 BYTE   An2
 BYTE   W12
 BYTE   Gn2
 BYTE   N06  Gn3
 BYTE   W11
 BYTE   N12  An3
 BYTE   W01
 BYTE   An2
 BYTE   W24
 BYTE   Cn3
 BYTE   N12  Cn4
 BYTE   W22
 BYTE   En4
 BYTE   W01
 BYTE   En3
 BYTE   W13
 BYTE   PEND 
// 048   ----------------------------------------
Label_2_014A15E3:
 BYTE   W11
 BYTE   N06  En4  v100
 BYTE   W01
 BYTE   En3
 BYTE   W11
 BYTE   Dn4
 BYTE   W01
 BYTE   Dn3
 BYTE   W11
 BYTE   Cn4
 BYTE   W01
 BYTE   Cn3
 BYTE   W12
 BYTE   Bn2
 BYTE   N06  Bn3
 BYTE   W11
 BYTE   Dn3
 BYTE   N06  Dn4
 BYTE   W13
 BYTE   Cn3
 BYTE   N06  Cn4
 BYTE   W11
 BYTE   Gn3
 BYTE   W01
 BYTE   Gn2
 BYTE   W12
 BYTE   PEND 
// 049   ----------------------------------------
Label_2_014A1603:
 BYTE   N06  An3  v100
 BYTE   W01
 BYTE   An2
 BYTE   W05
 BYTE   Bn3
 BYTE   W01
 BYTE   Bn2
 BYTE   W05
 BYTE   N44  Cn4
 BYTE   W01
 BYTE   N42  Cn3
 BYTE   W44
 BYTE   W03
 BYTE   N06  En3
 BYTE   N06  En4
 BYTE   W12
 BYTE   Dn4
 BYTE   W01
 BYTE   Dn3
 BYTE   W10
 BYTE   Cn4
 BYTE   W01
 BYTE   Cn3
 BYTE   W12
 BYTE   PEND 
// 050   ----------------------------------------
 BYTE   N96  Dn3
 BYTE   N96  Dn4
 BYTE   W96
// 051   ----------------------------------------
 BYTE   En3
 BYTE   W96
// 052   ----------------------------------------
Label_2_014A1629:
 BYTE   W01
 BYTE   N96  Fn3  v100
 BYTE   W92
 BYTE   W03
 BYTE   PEND 
// 053   ----------------------------------------
 BYTE   Gn3
 BYTE   W96
// 054   ----------------------------------------
 BYTE   Fn3
 BYTE   W96
// 055   ----------------------------------------
 BYTE   En3
 BYTE   W96
// 056   ----------------------------------------
Label_2_014A1636:
 BYTE   N48  Fn3  v100
 BYTE   W48
 BYTE   Dn3
 BYTE   W48
 BYTE   PEND 
// 057   ----------------------------------------
 BYTE   N96  Cn3
 BYTE   W96
// 058   ----------------------------------------
 BYTE   Dn3
 BYTE   W96
// 059   ----------------------------------------
 BYTE   En3
 BYTE   W96
 BYTE   PATT
  POIN2 Label_2_014A1629
// 060   ----------------------------------------
 BYTE   N96  Gn3  v100
 BYTE   W96
// 061   ----------------------------------------
 BYTE   Fn3
 BYTE   W96
// 062   ----------------------------------------
 BYTE   En3
 BYTE   W96
 BYTE   PATT
  POIN2 Label_2_014A1636
// 063   ----------------------------------------
 BYTE   N96  Cn3  v100
 BYTE   W96
// 064   ----------------------------------------
 BYTE   Dn3
 BYTE   W96
// 065   ----------------------------------------
Label_2_014A165C:
 BYTE   N30  An3  v100
 BYTE   W36
 BYTE   N24  Bn3
 BYTE   W36
 BYTE   W01
 BYTE   N96  Cn4
 BYTE   W23
 BYTE   PEND 
// 066   ----------------------------------------
 BYTE   W96
// 067   ----------------------------------------
Label_2_014A1669:
 BYTE   W01
 BYTE   N30  Bn3  v100
 BYTE   W36
 BYTE   N24  Cn4
 BYTE   W36
 BYTE   N96  Dn4
 BYTE   W23
 BYTE   PEND 
// 068   ----------------------------------------
 BYTE   W96
 BYTE   PATT
  POIN2 Label_2_014A165C
// 069   ----------------------------------------
 BYTE   W96
// 070   ----------------------------------------
Label_2_014A167C:
 BYTE   W01
 BYTE   N48  Gn3  v100
 BYTE   W48
 BYTE   N15  Cn4
 BYTE   W20
 BYTE   N12  Dn4
 BYTE   W15
 BYTE   En4
 BYTE   W12
 BYTE   PEND 
// 071   ----------------------------------------
Label_2_014A168A:
 BYTE   W01
 BYTE   N48  Dn4  v100
 BYTE   W44
 BYTE   W03
 BYTE   Gn3
 BYTE   W48
 BYTE   PEND 
 BYTE   PATT
  POIN2 Label_2_014A148E
// 072   ----------------------------------------
 BYTE   W96
 BYTE   PATT
  POIN2 Label_2_014A149A
// 073   ----------------------------------------
 BYTE   W96
 BYTE   PATT
  POIN2 Label_2_014A148E
// 074   ----------------------------------------
 BYTE   W96
 BYTE   PATT
  POIN2 Label_2_014A14AD
 BYTE   PATT
  POIN2 Label_2_014A14BA
// 075   ----------------------------------------
Label_2_014A16AF:
 BYTE   N12  An2  v100
 BYTE   N12  An3
 BYTE   W32
 BYTE   W03
 BYTE   N12
 BYTE   W01
 BYTE   An2
 BYTE   W24
 BYTE   N12
 BYTE   N12  An3
 BYTE   W12
 BYTE   Gn2
 BYTE   N12  Gn3
 BYTE   W11
 BYTE   An3
 BYTE   W01
 BYTE   An2
 BYTE   W12
 BYTE   PEND 
// 076   ----------------------------------------
Label_2_014A16C7:
 BYTE   W92
 BYTE   W03
 BYTE   N12  An3  v100
 BYTE   W01
 BYTE   PEND 
// 077   ----------------------------------------
Label_2_014A16CE:
 BYTE   N12  An2  v100
 BYTE   W11
 BYTE   An3
 BYTE   W01
 BYTE   An2
 BYTE   W24
 BYTE   N12
 BYTE   N12  An3
 BYTE   W23
 BYTE   An2
 BYTE   N12  An3
 BYTE   W24
 BYTE   An2
 BYTE   N12  An3
 BYTE   W13
 BYTE   PEND 
// 078   ----------------------------------------
 BYTE   W96
 BYTE   PATT
  POIN2 Label_2_014A16AF
// 079   ----------------------------------------
 BYTE   W96
// 080   ----------------------------------------
Label_2_014A16EA:
 BYTE   N12  Bn2  v100
 BYTE   N12  Bn3
 BYTE   W12
 BYTE   Bn2
 BYTE   N12  Bn3
 BYTE   W23
 BYTE   Cn4
 BYTE   W01
 BYTE   Cn3
 BYTE   W23
 BYTE   Dn4
 BYTE   W01
 BYTE   Dn3
 BYTE   W23
 BYTE   Dn4
 BYTE   W01
 BYTE   Dn3
 BYTE   W12
 BYTE   PEND 
// 081   ----------------------------------------
Label_2_014A1701:
 BYTE   W12
 BYTE   N12  Dn3  v100
 BYTE   N12  Dn4
 BYTE   W12
 BYTE   Cn3
 BYTE   N12  Cn4
 BYTE   W12
 BYTE   Bn2
 BYTE   N12  Bn3
 BYTE   W12
 BYTE   Gn2
 BYTE   N12  Gn3
 BYTE   W48
 BYTE   PEND 
// 082   ----------------------------------------
Label_2_014A1715:
 BYTE   N32  An2  v100
 BYTE   N32  An3
 BYTE   W32
 BYTE   W03
 BYTE   En2
 BYTE   N32  En3
 BYTE   W32
 BYTE   W03
 BYTE   TIE  An3
 BYTE   W01
 BYTE   An2
 BYTE   W24
 BYTE   W01
 BYTE   PEND 
// 083   ----------------------------------------
 BYTE   W92
 BYTE   W02
 BYTE   EOT
 BYTE   An3
 BYTE   W01
 BYTE   An2
 BYTE   N32  Bn3
 BYTE   W01
// 084   ----------------------------------------
Label_2_014A1731:
 BYTE   N32  Bn2  v100
 BYTE   W32
 BYTE   W02
 BYTE   Cn4
 BYTE   W01
 BYTE   Cn3
 BYTE   W36
 BYTE   TIE  Dn4
 BYTE   W01
 BYTE   Dn3
 BYTE   W24
 BYTE   PEND 
// 085   ----------------------------------------
 BYTE   W92
 BYTE   W03
 BYTE   EOT
 BYTE   EOT
 BYTE   Dn4
 BYTE   N68  Cn4
 BYTE   W01
// 086   ----------------------------------------
Label_2_014A1748:
 BYTE   N68  Cn3  v100
 BYTE   W68
 BYTE   W03
 BYTE   N06  Bn3
 BYTE   W01
 BYTE   Bn2
 BYTE   W11
 BYTE   An3
 BYTE   W01
 BYTE   An2
 BYTE   W11
 BYTE   Gn3
 BYTE   W01
 BYTE   PEND 
// 087   ----------------------------------------
Label_2_014A1759:
 BYTE   N06  Gn2  v100
 BYTE   W11
 BYTE   N80  An3
 BYTE   W01
 BYTE   An2
 BYTE   W80
 BYTE   W03
 BYTE   N32  Bn3
 BYTE   W01
 BYTE   PEND 
 BYTE   PATT
  POIN2 Label_2_014A1731
// 088   ----------------------------------------
 BYTE   W92
 BYTE   W02
 BYTE   EOT
 BYTE   Dn4
 BYTE   W01
 BYTE   Dn3
 BYTE   W01
 BYTE   PATT
  POIN2 Label_2_014A14FB
// 089   ----------------------------------------
 BYTE   N06  Dn3  v100
 BYTE   N06  Dn4
 BYTE   W12
 BYTE   Cs3
 BYTE   N06  Cs4
 BYTE   W12
 BYTE   Bn2
 BYTE   N06  Bn3
 BYTE   W12
 BYTE   An2
 BYTE   N06  An3
 BYTE   W24
 BYTE   N32  Bn2
 BYTE   N32  Bn3
 BYTE   W36
// 090   ----------------------------------------
Label_2_014A178F:
 BYTE   N24  En2  v100
 BYTE   N24  En3
 BYTE   W36
 BYTE   W02
 BYTE   N28  Bn2
 BYTE   N28  Bn3
 BYTE   W44
 BYTE   W02
 BYTE   N96  An2
 BYTE   N96  An3
 BYTE   W12
 BYTE   PEND 
// 091   ----------------------------------------
 BYTE   W96
 BYTE   PATT
  POIN2 Label_2_014A14FB
// 092   ----------------------------------------
 BYTE   N06  Dn3  v100
 BYTE   N06  Dn4
 BYTE   W12
 BYTE   Cs3
 BYTE   N06  Cs4
 BYTE   W12
 BYTE   Bn2
 BYTE   N06  Bn3
 BYTE   W11
 BYTE   An2
 BYTE   N06  An3
 BYTE   W24
 BYTE   N24  Bn2
 BYTE   N24  Bn3
 BYTE   W24
 BYTE   N12  Cs3
 BYTE   N12  Cs4
 BYTE   W13
 BYTE   PATT
  POIN2 Label_2_014A13FD
// 093   ----------------------------------------
 BYTE   N80  Dn3  v100
 BYTE   N80  Dn4
 BYTE   W96
 BYTE   PATT
  POIN2 Label_2_014A14FB
 BYTE   PATT
  POIN2 Label_2_014A13AD
 BYTE   PATT
  POIN2 Label_2_014A178F
// 094   ----------------------------------------
 BYTE   W96
 BYTE   PATT
  POIN2 Label_2_014A14FB
 BYTE   PATT
  POIN2 Label_2_014A1451
 BYTE   PATT
  POIN2 Label_2_014A146E
// 095   ----------------------------------------
 BYTE   N80  Bn3  v100
 BYTE   N80  Dn4
 BYTE   W96
 BYTE   PATT
  POIN2 Label_2_014A148E
// 096   ----------------------------------------
 BYTE   W96
 BYTE   PATT
  POIN2 Label_2_014A149A
// 097   ----------------------------------------
 BYTE   W96
 BYTE   PATT
  POIN2 Label_2_014A148E
// 098   ----------------------------------------
 BYTE   W96
 BYTE   PATT
  POIN2 Label_2_014A14AD
 BYTE   PATT
  POIN2 Label_2_014A14BA
 BYTE   PATT
  POIN2 Label_2_014A14C1
// 099   ----------------------------------------
 BYTE   W96
 BYTE   PATT
  POIN2 Label_2_014A14CF
 BYTE   PATT
  POIN2 Label_2_014A14DA
 BYTE   PATT
  POIN2 Label_2_014A14E1
// 100   ----------------------------------------
 BYTE   W96
 BYTE   PATT
  POIN2 Label_2_014A14AD
 BYTE   PATT
  POIN2 Label_2_014A14F2
 BYTE   PATT
  POIN2 Label_2_014A14FB
 BYTE   PATT
  POIN2 Label_2_014A13AD
 BYTE   PATT
  POIN2 Label_2_014A178F
// 101   ----------------------------------------
 BYTE   W96
 BYTE   PATT
  POIN2 Label_2_014A14FB
 BYTE   PATT
  POIN2 Label_2_014A1451
 BYTE   PATT
  POIN2 Label_2_014A152B
// 102   ----------------------------------------
 BYTE   N80  Bn3  v100
 BYTE   N80  Dn4
 BYTE   W96
// 103   ----------------------------------------
 BYTE   W96
// 104   ----------------------------------------
 BYTE   W96
// 105   ----------------------------------------
 BYTE   W96
// 106   ----------------------------------------
 BYTE   W96
// 107   ----------------------------------------
 BYTE   W96
// 108   ----------------------------------------
 BYTE   W96
// 109   ----------------------------------------
 BYTE   W96
// 110   ----------------------------------------
 BYTE   W96
 BYTE   PATT
  POIN2 Label_2_014A1553
 BYTE   PATT
  POIN2 Label_2_014A156F
 BYTE   PATT
  POIN2 Label_2_014A158F
 BYTE   PATT
  POIN2 Label_2_014A15AF
 BYTE   PATT
  POIN2 Label_2_014A15C7
 BYTE   PATT
  POIN2 Label_2_014A15E3
 BYTE   PATT
  POIN2 Label_2_014A1603
// 111   ----------------------------------------
 BYTE   N96  Dn3  v100
 BYTE   N96  Dn4
 BYTE   W96
// 112   ----------------------------------------
 BYTE   En3
 BYTE   W96
 BYTE   PATT
  POIN2 Label_2_014A1629
// 113   ----------------------------------------
 BYTE   N96  Gn3  v100
 BYTE   W96
// 114   ----------------------------------------
 BYTE   Fn3
 BYTE   W96
// 115   ----------------------------------------
 BYTE   En3
 BYTE   W96
 BYTE   PATT
  POIN2 Label_2_014A1636
// 116   ----------------------------------------
 BYTE   N96  Cn3  v100
 BYTE   W96
// 117   ----------------------------------------
 BYTE   Dn3
 BYTE   W96
// 118   ----------------------------------------
 BYTE   En3
 BYTE   W96
 BYTE   PATT
  POIN2 Label_2_014A1629
// 119   ----------------------------------------
 BYTE   N96  Gn3  v100
 BYTE   W96
// 120   ----------------------------------------
 BYTE   Fn3
 BYTE   W96
// 121   ----------------------------------------
 BYTE   En3
 BYTE   W96
 BYTE   PATT
  POIN2 Label_2_014A1636
// 122   ----------------------------------------
 BYTE   N96  Cn3  v100
 BYTE   W96
// 123   ----------------------------------------
 BYTE   Dn3
 BYTE   W96
 BYTE   PATT
  POIN2 Label_2_014A165C
// 124   ----------------------------------------
 BYTE   W96
 BYTE   PATT
  POIN2 Label_2_014A1669
// 125   ----------------------------------------
 BYTE   W96
 BYTE   PATT
  POIN2 Label_2_014A165C
// 126   ----------------------------------------
 BYTE   W96
 BYTE   PATT
  POIN2 Label_2_014A167C
 BYTE   PATT
  POIN2 Label_2_014A168A
 BYTE   PATT
  POIN2 Label_2_014A148E
// 127   ----------------------------------------
 BYTE   W96
 BYTE   PATT
  POIN2 Label_2_014A149A
// 128   ----------------------------------------
 BYTE   W96
 BYTE   PATT
  POIN2 Label_2_014A148E
// 129   ----------------------------------------
 BYTE   W96
 BYTE   PATT
  POIN2 Label_2_014A14AD
 BYTE   PATT
  POIN2 Label_2_014A14BA
 BYTE   PATT
  POIN2 Label_2_014A16AF
 BYTE   PATT
  POIN2 Label_2_014A16C7
 BYTE   PATT
  POIN2 Label_2_014A16CE
// 130   ----------------------------------------
 BYTE   W96
 BYTE   PATT
  POIN2 Label_2_014A16AF
// 131   ----------------------------------------
 BYTE   W96
 BYTE   PATT
  POIN2 Label_2_014A16EA
 BYTE   PATT
  POIN2 Label_2_014A1701
 BYTE   PATT
  POIN2 Label_2_014A1715
// 132   ----------------------------------------
 BYTE   W92
 BYTE   W02
 BYTE   EOT
 BYTE   An3
 BYTE   W01
 BYTE   An2
 BYTE   N32  Bn3  v100
 BYTE   W01
 BYTE   PATT
  POIN2 Label_2_014A1731
// 133   ----------------------------------------
 BYTE   W92
 BYTE   W03
 BYTE   EOT
 BYTE   Dn3  v074
 BYTE   N68  Cn4  v100
 BYTE   W01
 BYTE   PATT
  POIN2 Label_2_014A1748
 BYTE   PATT
  POIN2 Label_2_014A1759
 BYTE   PATT
  POIN2 Label_2_014A1731
// 134   ----------------------------------------
 BYTE   W92
 BYTE   W02
 BYTE   EOT
 BYTE   Dn4
 BYTE   W01
 BYTE   Dn3
 BYTE   FINE

//**************** Track 4 (Midi-Chn.3) ****************//

MarioTennisRound2Pandan_004:
// 000   ----------------------------------------
 BYTE   KEYSH   MarioTennisRound2Pandan_key+0
 BYTE   VOICE   52
 BYTE   VOL   32*MarioTennisRound2Pandan_mvl/mxv
 BYTE   PAN   c_v+0
 BYTE   N96  Bn2  v100
 BYTE   N92  En3
 BYTE   W01
 BYTE   N96  En2
 BYTE   W92
 BYTE   W03
// 001   ----------------------------------------
Label_3_014A195A:
 BYTE   N96  An1  v100
 BYTE   N96  Bn2
 BYTE   N96  En3
 BYTE   W96
 BYTE   PEND 
// 002   ----------------------------------------
Label_3_014A1963:
 BYTE   N96  Cn2  v100
 BYTE   N96  Bn2
 BYTE   N96  En3
 BYTE   W96
 BYTE   PEND 
// 003   ----------------------------------------
Label_3_014A196C:
 BYTE   N96  Dn2  v100
 BYTE   N96  Fs2
 BYTE   N96  Dn3
 BYTE   W96
 BYTE   PEND 
// 004   ----------------------------------------
Label_3_014A1975:
 BYTE   N96  Bn2  v100
 BYTE   W01
 BYTE   En2
 BYTE   W92
 BYTE   W03
 BYTE   PEND 
// 005   ----------------------------------------
Label_3_014A197D:
 BYTE   N96  Bn2  v100
 BYTE   N96  En3
 BYTE   W01
 BYTE   An1
 BYTE   W92
 BYTE   W03
 BYTE   PEND 
// 006   ----------------------------------------
Label_3_014A1987:
 BYTE   N96  Cn2  v100
 BYTE   W01
 BYTE   Bn2
 BYTE   N96  En3
 BYTE   W92
 BYTE   W03
 BYTE   PEND 
// 007   ----------------------------------------
 BYTE   Dn2
 BYTE   W01
 BYTE   N48  Fs2
 BYTE   N48  Dn3
 BYTE   W44
 BYTE   W03
 BYTE   An2
 BYTE   N48  Fs3
 BYTE   W48
// 008   ----------------------------------------
 BYTE   N96  Bn2
 BYTE   W01
 BYTE   N92  En2
 BYTE   W92
 BYTE   W03
// 009   ----------------------------------------
 BYTE   N96
 BYTE   N96  Bn2
 BYTE   N96  En3
 BYTE   W01
 BYTE   An1
 BYTE   W92
 BYTE   W03
 BYTE   PATT
  POIN2 Label_3_014A1987
 BYTE   PATT
  POIN2 Label_3_014A196C
// 010   ----------------------------------------
 BYTE   N96  En2  v100
 BYTE   N96  Bn2
 BYTE   W96
// 011   ----------------------------------------
 BYTE   An2
 BYTE   N96  Cs3
 BYTE   W96
// 012   ----------------------------------------
 BYTE   Fn2
 BYTE   N96  Cn3
 BYTE   W96
// 013   ----------------------------------------
 BYTE   Gn2
 BYTE   N96  Dn3
 BYTE   W96
// 014   ----------------------------------------
 BYTE   Fn2
 BYTE   N96  Cn3
 BYTE   W96
// 015   ----------------------------------------
 BYTE   Fn2
 BYTE   N96  Fn3
 BYTE   W96
// 016   ----------------------------------------
 BYTE   Gn2
 BYTE   N96  Gn3
 BYTE   W96
// 017   ----------------------------------------
 BYTE   Gn2
 BYTE   N96  Dn3
 BYTE   W96
// 018   ----------------------------------------
Label_3_014A19D9:
 BYTE   TIE  Fn2  v100
 BYTE   N96  Cn3
 BYTE   W96
 BYTE   PEND 
// 019   ----------------------------------------
Label_3_014A19E0:
 BYTE   N96  Fn3  v100
 BYTE   W92
 BYTE   W03
 BYTE   PEND 
 BYTE   EOT
 BYTE   Fn2
 BYTE   W01
// 020   ----------------------------------------
 BYTE   N96  Cn3
 BYTE   N96  Gn3
 BYTE   W96
// 021   ----------------------------------------
 BYTE   Dn2
 BYTE   N48  Dn3
 BYTE   W48
 BYTE   Gn2
 BYTE   W48
// 022   ----------------------------------------
 BYTE   N92  Fn2
 BYTE   N96  Cn3
 BYTE   W92
 BYTE   W03
 BYTE   Fn2
 BYTE   N96  Fn3
 BYTE   W01
// 023   ----------------------------------------
Label_3_014A19FE:
 BYTE   W92
 BYTE   W03
 BYTE   N96  Gn3  v100
 BYTE   W01
 BYTE   PEND 
// 024   ----------------------------------------
 BYTE   Gn2
 BYTE   W96
// 025   ----------------------------------------
 BYTE   N96
 BYTE   N96  Dn3
 BYTE   W96
 BYTE   PATT
  POIN2 Label_3_014A19D9
 BYTE   PATT
  POIN2 Label_3_014A19E0
// 026   ----------------------------------------
 BYTE   EOT
 BYTE   Fn2
 BYTE   W01
Label_3_014A1A18:
 BYTE   N96  Cn3  v100
 BYTE   N96  Gn3
 BYTE   W92
 BYTE   W03
// 027   ----------------------------------------
 BYTE   N48  Dn3
 BYTE   W01
 BYTE   PEND 
 BYTE   N96  Dn2
 BYTE   W44
 BYTE   W03
 BYTE   N48  Gn2
 BYTE   W48
// 028   ----------------------------------------
 BYTE   W01
 BYTE   N92  Bn2
 BYTE   W01
 BYTE   N96  En2
 BYTE   W92
 BYTE   W03
 BYTE   PATT
  POIN2 Label_3_014A195A
 BYTE   PATT
  POIN2 Label_3_014A1963
// 029   ----------------------------------------
Label_3_014A1A3C:
 BYTE   N96  Dn2  v100
 BYTE   N48  Fs2
 BYTE   N48  Dn3
 BYTE   W48
 BYTE   An2
 BYTE   N48  Fs3
 BYTE   W48
 BYTE   PEND 
 BYTE   PATT
  POIN2 Label_3_014A1975
 BYTE   PATT
  POIN2 Label_3_014A197D
// 030   ----------------------------------------
 BYTE   N96  Fn2  v100
 BYTE   N96  Cn3
 BYTE   W96
// 031   ----------------------------------------
 BYTE   Gn2
 BYTE   N96  Dn3
 BYTE   W96
// 032   ----------------------------------------
 BYTE   An2
 BYTE   N96  En3
 BYTE   W96
// 033   ----------------------------------------
Label_3_014A1A61:
 BYTE   N96  An2  v100
 BYTE   N48  Dn3
 BYTE   W48
 BYTE   Fn3
 BYTE   W48
 BYTE   PEND 
// 034   ----------------------------------------
Label_3_014A1A6A:
 BYTE   W01
 BYTE   N96  An2  v100
 BYTE   N96  En3
 BYTE   W92
 BYTE   W03
 BYTE   PEND 
// 035   ----------------------------------------
 BYTE   Gn2
 BYTE   N96  Dn3
 BYTE   W96
// 036   ----------------------------------------
 BYTE   An2
 BYTE   N96  En3
 BYTE   W96
// 037   ----------------------------------------
Label_3_014A1A7B:
 BYTE   N48  Dn3  v100
 BYTE   W01
 BYTE   N96  An2
 BYTE   W44
 BYTE   W03
 BYTE   N48  Fn3
 BYTE   W48
 BYTE   PEND 
// 038   ----------------------------------------
 BYTE   N96  Fn2
 BYTE   N96  Cn3
 BYTE   W96
// 039   ----------------------------------------
 BYTE   Gn2
 BYTE   N96  Dn3
 BYTE   W96
// 040   ----------------------------------------
 BYTE   An2
 BYTE   N96  En3
 BYTE   W96
 BYTE   PATT
  POIN2 Label_3_014A1A61
 BYTE   PATT
  POIN2 Label_3_014A1A6A
// 041   ----------------------------------------
 BYTE   N96  Gn2  v100
 BYTE   N96  Dn3
 BYTE   W96
// 042   ----------------------------------------
 BYTE   An2
 BYTE   N96  En3
 BYTE   W96
 BYTE   PATT
  POIN2 Label_3_014A1A7B
// 043   ----------------------------------------
 BYTE   N96  Fn2  v100
 BYTE   N96  Cn3
 BYTE   W96
// 044   ----------------------------------------
 BYTE   Gn2
 BYTE   N96  Dn3
 BYTE   W96
// 045   ----------------------------------------
Label_3_014A1AB7:
 BYTE   TIE  Cn2  v100
 BYTE   N96  En2
 BYTE   N96  En3
 BYTE   W96
 BYTE   PEND 
// 046   ----------------------------------------
 BYTE   Fn2
 BYTE   N96  Fn3
 BYTE   W96
// 047   ----------------------------------------
 BYTE   Gn2
 BYTE   N96  Gn3
 BYTE   W96
// 048   ----------------------------------------
 BYTE   An2
 BYTE   N96  Fn3
 BYTE   W96
// 049   ----------------------------------------
 BYTE   En2
 BYTE   N96  En3
 BYTE   W96
// 050   ----------------------------------------
Label_3_014A1AD0:
 BYTE   N96  Fn2  v100
 BYTE   N48  Fn3
 BYTE   W48
 BYTE   Dn3
 BYTE   W48
 BYTE   PEND 
// 051   ----------------------------------------
 BYTE   N96  Ds2
 BYTE   N96  Cn3
 BYTE   W96
// 052   ----------------------------------------
 BYTE   Fn2
 BYTE   N96  Dn3
 BYTE   W96
// 053   ----------------------------------------
 BYTE   EOT
 BYTE   Cn2
 BYTE   PATT
  POIN2 Label_3_014A1AB7
// 054   ----------------------------------------
 BYTE   N96  Fn2  v100
 BYTE   N96  Fn3
 BYTE   W96
// 055   ----------------------------------------
 BYTE   Gn2
 BYTE   N96  Gn3
 BYTE   W96
// 056   ----------------------------------------
 BYTE   An2
 BYTE   N96  Fn3
 BYTE   W96
// 057   ----------------------------------------
 BYTE   En2
 BYTE   N96  En3
 BYTE   W96
 BYTE   PATT
  POIN2 Label_3_014A1AD0
// 058   ----------------------------------------
 BYTE   N96  Ds2  v100
 BYTE   N96  Cn3
 BYTE   W96
// 059   ----------------------------------------
Label_3_014A1B06:
 BYTE   N96  Fn2  v100
 BYTE   N96  Dn3
 BYTE   W92
 BYTE   W03
 BYTE   PEND 
 BYTE   EOT
 BYTE   Cn2
 BYTE   W01
// 060   ----------------------------------------
 BYTE   TIE  An2
 BYTE   N96  Cn3
 BYTE   W96
 BYTE   PATT
  POIN2 Label_3_014A19E0
// 061   ----------------------------------------
 BYTE   EOT
 BYTE   An2
 BYTE   W01
Label_3_014A1B1E:
 BYTE   TIE  Bn2  v100
 BYTE   N96  Gn3
 BYTE   W96
 BYTE   PEND 
// 062   ----------------------------------------
Label_3_014A1B25:
 BYTE   N96  Dn3  v100
 BYTE   W92
 BYTE   W03
 BYTE   PEND 
 BYTE   EOT
 BYTE   Bn2
 BYTE   W01
// 063   ----------------------------------------
 BYTE   TIE  An2
 BYTE   N96  Fn3
 BYTE   W96
 BYTE   PATT
  POIN2 Label_3_014A19E0
// 064   ----------------------------------------
 BYTE   EOT
 BYTE   An2
 BYTE   W01
 BYTE   N96  Gn2  v100
 BYTE   N96  En3
 BYTE   W96
// 065   ----------------------------------------
Label_3_014A1B41:
 BYTE   N48  Dn3  v100
 BYTE   N48  Gn3
 BYTE   W48
 BYTE   Gn2
 BYTE   N48  Dn3
 BYTE   W48
 BYTE   PEND 
// 066   ----------------------------------------
 BYTE   TIE  An2
 BYTE   N96  Cn3
 BYTE   W92
 BYTE   W03
 BYTE   Fn3
 BYTE   W01
// 067   ----------------------------------------
 BYTE   W92
 BYTE   W03
 BYTE   EOT
 BYTE   An2
 BYTE   W01
 BYTE   PATT
  POIN2 Label_3_014A1B1E
 BYTE   PATT
  POIN2 Label_3_014A1B25
// 068   ----------------------------------------
 BYTE   EOT
 BYTE   Bn2
 BYTE   N96  Fn3  v100
 BYTE   W01
 BYTE   TIE  An2
 BYTE   W96
 BYTE   PATT
  POIN2 Label_3_014A19E0
// 069   ----------------------------------------
 BYTE   EOT
 BYTE   An2
 BYTE   N96  Gn2  v100
 BYTE   W01
 BYTE   En3
 BYTE   W96
 BYTE   PATT
  POIN2 Label_3_014A1B41
// 070   ----------------------------------------
 BYTE   N48  An2  v100
 BYTE   N48  Cs3
 BYTE   W48
 BYTE   Bn2
 BYTE   N48  Dn3
 BYTE   W48
// 071   ----------------------------------------
 BYTE   Cs3
 BYTE   N44  En3
 BYTE   W48
 BYTE   An3
 BYTE   W01
 BYTE   En3
 BYTE   W44
 BYTE   W03
// 072   ----------------------------------------
 BYTE   N96  Dn3
 BYTE   N96  Gn3
 BYTE   W96
// 073   ----------------------------------------
 BYTE   Bn2
 BYTE   N96  Dn3
 BYTE   W96
// 074   ----------------------------------------
 BYTE   Cn3
 BYTE   N96  Fn3
 BYTE   W96
// 075   ----------------------------------------
 BYTE   Cn3
 BYTE   N48  En3
 BYTE   W48
 BYTE   Fn3
 BYTE   W48
// 076   ----------------------------------------
 BYTE   N96  Bn2
 BYTE   N96  Gn3
 BYTE   W96
// 077   ----------------------------------------
 BYTE   Gn2
 BYTE   N96  Dn3
 BYTE   W96
// 078   ----------------------------------------
Label_3_014A1BAD:
 BYTE   N48  An2  v100
 BYTE   N48  Cs3
 BYTE   W48
 BYTE   Bn2
 BYTE   N48  Dn3
 BYTE   W44
 BYTE   W03
 BYTE   Cs3
 BYTE   W01
 BYTE   PEND 
// 079   ----------------------------------------
Label_3_014A1BBB:
 BYTE   N44  En3  v100
 BYTE   W48
 BYTE   N44
 BYTE   N44  An3
 BYTE   W48
 BYTE   PEND 
// 080   ----------------------------------------
Label_3_014A1BC4:
 BYTE   N96  Dn3  v100
 BYTE   N96  Gn3
 BYTE   W92
 BYTE   W03
 BYTE   Bn2
 BYTE   W01
 BYTE   PEND 
// 081   ----------------------------------------
Label_3_014A1BCE:
 BYTE   N96  Dn3  v100
 BYTE   W92
 BYTE   W03
 BYTE   Cn3
 BYTE   W01
 BYTE   PEND 
// 082   ----------------------------------------
 BYTE   Fn3
 BYTE   W96
// 083   ----------------------------------------
Label_3_014A1BD8:
 BYTE   N96  Cn3  v100
 BYTE   N48  En3
 BYTE   W44
 BYTE   W03
 BYTE   Fn3
 BYTE   W48
 BYTE   N96  Bn2
 BYTE   W01
 BYTE   PEND 
// 084   ----------------------------------------
Label_3_014A1BE5:
 BYTE   N96  Gn3  v100
 BYTE   W92
 BYTE   W03
 BYTE   Gn2
 BYTE   W01
 BYTE   PEND 
// 085   ----------------------------------------
 BYTE   Dn3
 BYTE   W96
// 086   ----------------------------------------
 BYTE   En2
 BYTE   N92  En3
 BYTE   W92
 BYTE   W03
 BYTE   N96  Bn2
 BYTE   N96  En3
 BYTE   W01
// 087   ----------------------------------------
Label_3_014A1BF9:
 BYTE   N96  An1  v100
 BYTE   W92
 BYTE   W03
 BYTE   Cn2
 BYTE   W01
 BYTE   PEND 
// 088   ----------------------------------------
Label_3_014A1C01:
 BYTE   N96  Bn2  v100
 BYTE   N96  En3
 BYTE   W92
 BYTE   W03
 BYTE   Dn2
 BYTE   W01
 BYTE   PEND 
// 089   ----------------------------------------
 BYTE   Fs2
 BYTE   N96  Dn3
 BYTE   W96
 BYTE   PATT
  POIN2 Label_3_014A1975
 BYTE   PATT
  POIN2 Label_3_014A195A
 BYTE   PATT
  POIN2 Label_3_014A1963
 BYTE   PATT
  POIN2 Label_3_014A1A3C
// 090   ----------------------------------------
 BYTE   N92  En2  v100
 BYTE   N96  Bn2
 BYTE   W96
// 091   ----------------------------------------
 BYTE   An1
 BYTE   N96  En2
 BYTE   N96  Bn2
 BYTE   N96  En3
 BYTE   W96
// 092   ----------------------------------------
 BYTE   Cn2
 BYTE   N96  Bn2
 BYTE   N96  En3
 BYTE   W92
 BYTE   W03
 BYTE   Fs2
 BYTE   W01
// 093   ----------------------------------------
 BYTE   Dn2
 BYTE   N96  Dn3
 BYTE   W92
 BYTE   W03
 BYTE   En2
 BYTE   W01
// 094   ----------------------------------------
 BYTE   Bn2
 BYTE   W92
 BYTE   W03
 BYTE   An2
 BYTE   N96  Cs3
 BYTE   W01
// 095   ----------------------------------------
 BYTE   W96
// 096   ----------------------------------------
 BYTE   Fn2
 BYTE   N96  Cn3
 BYTE   W96
// 097   ----------------------------------------
 BYTE   Gn2
 BYTE   N96  Dn3
 BYTE   W92
 BYTE   W03
 BYTE   Fn2
 BYTE   W01
// 098   ----------------------------------------
 BYTE   Cn3
 BYTE   W92
 BYTE   W03
 BYTE   Fn2
 BYTE   N96  Fn3
 BYTE   W01
 BYTE   PATT
  POIN2 Label_3_014A19FE
// 099   ----------------------------------------
 BYTE   N96  Gn2  v100
 BYTE   W96
// 100   ----------------------------------------
 BYTE   N96
 BYTE   N96  Dn3
 BYTE   W96
 BYTE   PATT
  POIN2 Label_3_014A19D9
 BYTE   PATT
  POIN2 Label_3_014A19E0
// 101   ----------------------------------------
 BYTE   EOT
 BYTE   Fn2
 BYTE   W01
 BYTE   PATT
  POIN2 Label_3_014A1A18
// 102   ----------------------------------------
 BYTE   N96  Dn2  v100
 BYTE   W44
 BYTE   W03
 BYTE   N48  Gn2
 BYTE   W48
 BYTE   N96  Cn3
 BYTE   W01
// 103   ----------------------------------------
 BYTE   N92  Fn2
 BYTE   W92
 BYTE   W02
 BYTE   N96
 BYTE   N96  Fn3
 BYTE   W02
// 104   ----------------------------------------
 BYTE   W92
 BYTE   W02
 BYTE   Gn3
 BYTE   W01
 BYTE   Gn2
 BYTE   W01
// 105   ----------------------------------------
 BYTE   W92
 BYTE   W03
 BYTE   N96
 BYTE   N96  Dn3
 BYTE   W01
// 106   ----------------------------------------
 BYTE   W92
 BYTE   W03
 BYTE   TIE  Fn2
 BYTE   N96  Cn3
 BYTE   W01
// 107   ----------------------------------------
Label_3_014A1CA0:
 BYTE   W92
 BYTE   W03
 BYTE   N96  Fn3  v100
 BYTE   W01
 BYTE   PEND 
// 108   ----------------------------------------
 BYTE   W92
 BYTE   W02
 BYTE   EOT
 BYTE   Fn2
 BYTE   W01
 BYTE   N96  Cn3
 BYTE   N96  Gn3
 BYTE   W01
// 109   ----------------------------------------
 BYTE   W92
 BYTE   W02
 BYTE   N48  Dn3
 BYTE   W01
 BYTE   N96  Dn2
 BYTE   W01
// 110   ----------------------------------------
 BYTE   W44
 BYTE   W02
 BYTE   N48  Gn2
 BYTE   W48
 BYTE   W02
// 111   ----------------------------------------
 BYTE   N96  En2
 BYTE   N92  Bn2
 BYTE   W92
 BYTE   W03
 BYTE   N96
 BYTE   N96  En3
 BYTE   W01
 BYTE   PATT
  POIN2 Label_3_014A1BF9
 BYTE   PATT
  POIN2 Label_3_014A1C01
// 112   ----------------------------------------
 BYTE   N48  Fs2  v100
 BYTE   N48  Dn3
 BYTE   W44
 BYTE   W03
 BYTE   An2
 BYTE   N48  Fs3
 BYTE   W48
 BYTE   W01
 BYTE   PATT
  POIN2 Label_3_014A1975
 BYTE   PATT
  POIN2 Label_3_014A195A
// 113   ----------------------------------------
 BYTE   N96  Fn2  v100
 BYTE   N96  Cn3
 BYTE   W96
// 114   ----------------------------------------
 BYTE   Gn2
 BYTE   N96  Dn3
 BYTE   W92
 BYTE   W03
 BYTE   An2
 BYTE   W01
// 115   ----------------------------------------
 BYTE   En3
 BYTE   W96
// 116   ----------------------------------------
Label_3_014A1CF8:
 BYTE   N96  An2  v100
 BYTE   N48  Dn3
 BYTE   W44
 BYTE   W03
 BYTE   Fn3
 BYTE   W48
 BYTE   W01
 BYTE   PEND 
// 117   ----------------------------------------
Label_3_014A1D03:
 BYTE   N96  An2  v100
 BYTE   N96  En3
 BYTE   W92
 BYTE   W03
 BYTE   Dn3
 BYTE   W01
 BYTE   PEND 
// 118   ----------------------------------------
 BYTE   Gn2
 BYTE   W96
// 119   ----------------------------------------
Label_3_014A1D0F:
 BYTE   N96  An2  v100
 BYTE   N96  En3
 BYTE   W92
 BYTE   W03
 BYTE   N48  Dn3
 BYTE   W01
 BYTE   PEND 
// 120   ----------------------------------------
Label_3_014A1D1A:
 BYTE   N96  An2  v100
 BYTE   W44
 BYTE   W03
 BYTE   N48  Fn3
 BYTE   W48
 BYTE   W01
 BYTE   PEND 
// 121   ----------------------------------------
Label_3_014A1D24:
 BYTE   N96  Fn2  v100
 BYTE   N96  Cn3
 BYTE   W92
 BYTE   W03
 BYTE   Dn3
 BYTE   W01
 BYTE   PEND 
// 122   ----------------------------------------
Label_3_014A1D2E:
 BYTE   N96  Gn2  v100
 BYTE   W92
 BYTE   W03
 BYTE   An2
 BYTE   W01
 BYTE   PEND 
// 123   ----------------------------------------
 BYTE   En3
 BYTE   W96
 BYTE   PATT
  POIN2 Label_3_014A1CF8
 BYTE   PATT
  POIN2 Label_3_014A1D03
// 124   ----------------------------------------
 BYTE   N96  Gn2  v100
 BYTE   W96
 BYTE   PATT
  POIN2 Label_3_014A1D0F
 BYTE   PATT
  POIN2 Label_3_014A1D1A
 BYTE   PATT
  POIN2 Label_3_014A1D24
// 125   ----------------------------------------
 BYTE   N96  Gn2  v100
 BYTE   W92
 BYTE   W03
 BYTE   TIE  Cn2
 BYTE   W01
// 126   ----------------------------------------
 BYTE   N96  En2
 BYTE   N96  En3
 BYTE   W96
// 127   ----------------------------------------
Label_3_014A1D62:
 BYTE   N96  Fn2  v100
 BYTE   N96  Fn3
 BYTE   W92
 BYTE   W03
 BYTE   Gn3
 BYTE   W01
 BYTE   PEND 
 BYTE   PATT
  POIN2 Label_3_014A1D2E
// 128   ----------------------------------------
 BYTE   N96  Fn3  v100
 BYTE   W96
// 129   ----------------------------------------
 BYTE   En2
 BYTE   N96  En3
 BYTE   W96
// 130   ----------------------------------------
Label_3_014A1D79:
 BYTE   N96  Fn2  v100
 BYTE   N48  Fn3
 BYTE   W48
 BYTE   Dn3
 BYTE   W44
 BYTE   W03
 BYTE   N96  Cn3
 BYTE   W01
 BYTE   PEND 
// 131   ----------------------------------------
 BYTE   Ds2
 BYTE   W96
 BYTE   PATT
  POIN2 Label_3_014A1B06
// 132   ----------------------------------------
 BYTE   EOT
 BYTE   Cn2
 BYTE   W01
 BYTE   PATT
  POIN2 Label_3_014A1AB7
 BYTE   PATT
  POIN2 Label_3_014A1D62
 BYTE   PATT
  POIN2 Label_3_014A1D2E
// 133   ----------------------------------------
 BYTE   N96  Fn3  v100
 BYTE   W96
// 134   ----------------------------------------
 BYTE   En2
 BYTE   N96  En3
 BYTE   W96
 BYTE   PATT
  POIN2 Label_3_014A1D79
// 135   ----------------------------------------
 BYTE   N96  Ds2  v100
 BYTE   W96
 BYTE   PATT
  POIN2 Label_3_014A1B06
// 136   ----------------------------------------
 BYTE   EOT
 BYTE   Cn2
 BYTE   N96  Cn3  v100
 BYTE   W01
 BYTE   TIE  An2
 BYTE   W92
 BYTE   W03
// 137   ----------------------------------------
 BYTE   N96  Fn3
 BYTE   W01
 BYTE   W92
 BYTE   W03
// 138   ----------------------------------------
 BYTE   EOT
 BYTE   An2
 BYTE   W01
 BYTE   PATT
  POIN2 Label_3_014A1B1E
 BYTE   PATT
  POIN2 Label_3_014A1B25
// 139   ----------------------------------------
 BYTE   EOT
 BYTE   Bn2
 BYTE   N96  Fn3  v100
 BYTE   W01
 BYTE   TIE  An2
 BYTE   W96
 BYTE   PATT
  POIN2 Label_3_014A19E0
// 140   ----------------------------------------
 BYTE   EOT
 BYTE   An2
 BYTE   N96  Gn2  v100
 BYTE   W01
 BYTE   En3
 BYTE   W96
// 141   ----------------------------------------
 BYTE   N48  Dn3
 BYTE   N48  Gn3
 BYTE   W48
 BYTE   Gn2
 BYTE   N48  Dn3
 BYTE   W44
 BYTE   W03
 BYTE   TIE  An2
 BYTE   W01
// 142   ----------------------------------------
 BYTE   N96  Cn3
 BYTE   W92
 BYTE   W02
 BYTE   Fn3
 BYTE   W02
// 143   ----------------------------------------
 BYTE   W92
 BYTE   W02
 BYTE   EOT
 BYTE   An2
 BYTE   W01
 BYTE   TIE  Bn2
 BYTE   N96  Gn3
 BYTE   W01
// 144   ----------------------------------------
 BYTE   W92
 BYTE   W03
 BYTE   Dn3
 BYTE   W01
// 145   ----------------------------------------
 BYTE   W92
 BYTE   W02
 BYTE   EOT
 BYTE   Bn2
 BYTE   N96  Fn3
 BYTE   W01
 BYTE   TIE  An2
 BYTE   W01
 BYTE   PATT
  POIN2 Label_3_014A1CA0
// 146   ----------------------------------------
 BYTE   W92
 BYTE   W02
 BYTE   EOT
 BYTE   An2
 BYTE   N96  Gn2  v100
 BYTE   W01
 BYTE   En3
 BYTE   W01
// 147   ----------------------------------------
 BYTE   W92
 BYTE   W03
 BYTE   N48  Dn3
 BYTE   N48  Gn3
 BYTE   W01
// 148   ----------------------------------------
 BYTE   W44
 BYTE   W03
 BYTE   Gn2
 BYTE   N48  Dn3
 BYTE   W48
 BYTE   W01
 BYTE   PATT
  POIN2 Label_3_014A1BAD
 BYTE   PATT
  POIN2 Label_3_014A1BBB
 BYTE   PATT
  POIN2 Label_3_014A1BC4
 BYTE   PATT
  POIN2 Label_3_014A1BCE
// 149   ----------------------------------------
 BYTE   N96  Fn3  v100
 BYTE   W96
 BYTE   PATT
  POIN2 Label_3_014A1BD8
 BYTE   PATT
  POIN2 Label_3_014A1BE5
// 150   ----------------------------------------
 BYTE   N96  Dn3  v100
 BYTE   W92
 BYTE   W03
 BYTE   N48  An2
 BYTE   N48  Cs3
 BYTE   W01
// 151   ----------------------------------------
 BYTE   W44
 BYTE   W03
 BYTE   Bn2
 BYTE   N48  Dn3
 BYTE   W44
 BYTE   W03
 BYTE   Cs3
 BYTE   W01
 BYTE   N44  En3
 BYTE   W01
// 152   ----------------------------------------
 BYTE   W44
 BYTE   W03
 BYTE   An3
 BYTE   W01
 BYTE   En3
 BYTE   W44
 BYTE   W03
 BYTE   N96  Dn3
 BYTE   N96  Gn3
 BYTE   W01
// 153   ----------------------------------------
 BYTE   W92
 BYTE   W02
 BYTE   Bn2
 BYTE   W01
 BYTE   Dn3
 BYTE   W01
// 154   ----------------------------------------
 BYTE   W92
 BYTE   W02
 BYTE   Cn3
 BYTE   W01
 BYTE   Fn3
 BYTE   W01
// 155   ----------------------------------------
 BYTE   W92
 BYTE   W03
 BYTE   Cn3
 BYTE   N48  En3
 BYTE   W01
// 156   ----------------------------------------
 BYTE   W44
 BYTE   W02
 BYTE   Fn3
 BYTE   W48
 BYTE   N96  Bn2
 BYTE   W01
 BYTE   Gn3
 BYTE   W01
// 157   ----------------------------------------
 BYTE   W92
 BYTE   W02
 BYTE   Gn2
 BYTE   W01
 BYTE   Dn3
 BYTE   W01
// 158   ----------------------------------------
 BYTE   W92
 BYTE   W03
 BYTE   FINE

//**************** Track 5 (Midi-Chn.4) ****************//

MarioTennisRound2Pandan_005:
// 000   ----------------------------------------
 BYTE   KEYSH   MarioTennisRound2Pandan_key+0
 BYTE   VOICE   36
 BYTE   VOL   0*MarioTennisRound2Pandan_mvl/mxv
 BYTE   PAN   c_v+0
 BYTE   N12  En1  v100
 BYTE   W12
 BYTE   N12
 BYTE   W13
 BYTE   En2
 BYTE   W12
 BYTE   En1
 BYTE   W12
 BYTE   N12
 BYTE   W13
 BYTE   N12
 BYTE   W11
 BYTE   En2
 BYTE   W11
 BYTE   En1
 BYTE   W12
// 001   ----------------------------------------
Label_4_014A1EB2:
 BYTE   N12  An0  v100
 BYTE   W13
 BYTE   N12
 BYTE   W12
 BYTE   An1
 BYTE   W11
 BYTE   N11  An0
 BYTE   W12
 BYTE   N12
 BYTE   W13
 BYTE   N12
 BYTE   W12
 BYTE   An1
 BYTE   W11
 BYTE   An0
 BYTE   W12
 BYTE   PEND 
// 002   ----------------------------------------
Label_4_014A1EC6:
 BYTE   W01
 BYTE   N12  Cn1  v100
 BYTE   W13
 BYTE   N12
 BYTE   W11
 BYTE   Cn2
 BYTE   W12
 BYTE   N11  Cn1
 BYTE   W11
 BYTE   N12
 BYTE   W14
 BYTE   N12
 BYTE   W11
 BYTE   Cn2
 BYTE   W11
 BYTE   Cn1
 BYTE   W12
 BYTE   PEND 
// 003   ----------------------------------------
Label_4_014A1EDB:
 BYTE   N12  Dn1  v100
 BYTE   W13
 BYTE   N12
 BYTE   W12
 BYTE   Dn2
 BYTE   W11
 BYTE   N11  Dn1
 BYTE   W12
 BYTE   N12
 BYTE   W13
 BYTE   N12
 BYTE   W12
 BYTE   Dn2
 BYTE   W11
 BYTE   Dn1
 BYTE   W12
 BYTE   PEND 
// 004   ----------------------------------------
Label_4_014A1EEF:
 BYTE   N12  En1  v100
 BYTE   W12
 BYTE   N12
 BYTE   W13
 BYTE   En2
 BYTE   W12
 BYTE   En1
 BYTE   W12
 BYTE   N12
 BYTE   W13
 BYTE   N12
 BYTE   W11
 BYTE   En2
 BYTE   W11
 BYTE   En1
 BYTE   W12
 BYTE   PEND 
 BYTE   PATT
  POIN2 Label_4_014A1EB2
 BYTE   PATT
  POIN2 Label_4_014A1EC6
 BYTE   PATT
  POIN2 Label_4_014A1EDB
// 005   ----------------------------------------
Label_4_014A1F11:
 BYTE   N12  En1  v100
 BYTE   W12
 BYTE   N12
 BYTE   W12
 BYTE   En2
 BYTE   W12
 BYTE   En1
 BYTE   W13
 BYTE   N12
 BYTE   W12
 BYTE   N12
 BYTE   W11
 BYTE   En2
 BYTE   W12
 BYTE   En1
 BYTE   W12
 BYTE   PEND 
// 006   ----------------------------------------
Label_4_014A1F24:
 BYTE   N12  An0  v100
 BYTE   W12
 BYTE   N12
 BYTE   W12
 BYTE   An1
 BYTE   W12
 BYTE   N11  An0
 BYTE   W12
 BYTE   N12
 BYTE   W12
 BYTE   N12
 BYTE   W12
 BYTE   An1
 BYTE   W11
 BYTE   An0
 BYTE   W13
 BYTE   PEND 
// 007   ----------------------------------------
Label_4_014A1F38:
 BYTE   N12  Cn1  v100
 BYTE   W13
 BYTE   N12
 BYTE   W12
 BYTE   Cn2
 BYTE   W11
 BYTE   N11  Cn1
 BYTE   W12
 BYTE   N12
 BYTE   W13
 BYTE   N12
 BYTE   W12
 BYTE   Cn2
 BYTE   W11
 BYTE   Cn1
 BYTE   W12
 BYTE   PEND 
// 008   ----------------------------------------
Label_4_014A1F4C:
 BYTE   N12  Dn1  v100
 BYTE   W12
 BYTE   N12
 BYTE   W12
 BYTE   Dn2
 BYTE   W12
 BYTE   N11  Dn1
 BYTE   W11
 BYTE   N12
 BYTE   W13
 BYTE   N12
 BYTE   W12
 BYTE   Dn2
 BYTE   W11
 BYTE   Dn1
 BYTE   W13
 BYTE   PEND 
 BYTE   PATT
  POIN2 Label_4_014A1F11
 BYTE   PATT
  POIN2 Label_4_014A1F24
// 009   ----------------------------------------
 BYTE   N12  Fn0  v100
 BYTE   W12
 BYTE   N12
 BYTE   W13
 BYTE   Fn1
 BYTE   W12
 BYTE   Fn0
 BYTE   W12
 BYTE   N12
 BYTE   W13
 BYTE   N12
 BYTE   W11
 BYTE   Fn1
 BYTE   W11
 BYTE   Fn0
 BYTE   W12
// 010   ----------------------------------------
 BYTE   Gn0
 BYTE   W13
 BYTE   Gn1
 BYTE   W12
 BYTE   Gn0
 BYTE   W11
 BYTE   Fn1
 BYTE   W12
 BYTE   Gn0
 BYTE   W13
 BYTE   Gn1
 BYTE   W12
 BYTE   Fn1
 BYTE   W11
 BYTE   Gn1
 BYTE   W12
// 011   ----------------------------------------
Label_4_014A1F8C:
 BYTE   W01
 BYTE   N12  Fn0  v100
 BYTE   W12
 BYTE   N12
 BYTE   W11
 BYTE   Fn1
 BYTE   W12
 BYTE   Fn0
 BYTE   W13
 BYTE   N12
 BYTE   W12
 BYTE   N12
 BYTE   W11
 BYTE   Fn1
 BYTE   W12
 BYTE   Fn0
 BYTE   W12
 BYTE   PEND 
// 012   ----------------------------------------
Label_4_014A1FA0:
 BYTE   W01
 BYTE   N12  Fn0  v100
 BYTE   W12
 BYTE   N12
 BYTE   W11
 BYTE   Fn1
 BYTE   W12
 BYTE   Fn0
 BYTE   W13
 BYTE   N12
 BYTE   W11
 BYTE   Fn1
 BYTE   W12
 BYTE   Fn0
 BYTE   W11
 BYTE   Fn1
 BYTE   W13
 BYTE   PEND 
// 013   ----------------------------------------
Label_4_014A1FB4:
 BYTE   W01
 BYTE   N12  Gn0  v100
 BYTE   W12
 BYTE   N12
 BYTE   W11
 BYTE   Gn1
 BYTE   W12
 BYTE   Gn0
 BYTE   W13
 BYTE   N12
 BYTE   W12
 BYTE   N12
 BYTE   W11
 BYTE   Gn1
 BYTE   W12
 BYTE   Gn0
 BYTE   W12
 BYTE   PEND 
// 014   ----------------------------------------
Label_4_014A1FC8:
 BYTE   W01
 BYTE   N12  Gn0  v100
 BYTE   W12
 BYTE   N12
 BYTE   W11
 BYTE   Gn1
 BYTE   W12
 BYTE   Gn0
 BYTE   W13
 BYTE   N12
 BYTE   W11
 BYTE   Gn1
 BYTE   W12
 BYTE   Gn0
 BYTE   W11
 BYTE   Gn1
 BYTE   W13
 BYTE   PEND 
// 015   ----------------------------------------
Label_4_014A1FDC:
 BYTE   W01
 BYTE   N12  Dn1  v100
 BYTE   W13
 BYTE   N12
 BYTE   W11
 BYTE   Dn2
 BYTE   W12
 BYTE   Dn1
 BYTE   W12
 BYTE   N12
 BYTE   W13
 BYTE   N12
 BYTE   W11
 BYTE   Dn2
 BYTE   W12
 BYTE   Dn1
 BYTE   W11
 BYTE   PEND 
// 016   ----------------------------------------
Label_4_014A1FF0:
 BYTE   W01
 BYTE   N12  Dn1  v100
 BYTE   W13
 BYTE   N12
 BYTE   W11
 BYTE   Dn2
 BYTE   W12
 BYTE   Dn1
 BYTE   W12
 BYTE   N12
 BYTE   W11
 BYTE   Dn2
 BYTE   W13
 BYTE   Dn1
 BYTE   W11
 BYTE   Dn2
 BYTE   W12
 BYTE   PEND 
// 017   ----------------------------------------
Label_4_014A2004:
 BYTE   W01
 BYTE   N12  Cn1  v100
 BYTE   W13
 BYTE   N12
 BYTE   W11
 BYTE   Cn2
 BYTE   W12
 BYTE   Cn1
 BYTE   W12
 BYTE   N12
 BYTE   W13
 BYTE   N12
 BYTE   W11
 BYTE   Cn2
 BYTE   W12
 BYTE   Cn1
 BYTE   W11
 BYTE   PEND 
// 018   ----------------------------------------
Label_4_014A2018:
 BYTE   W01
 BYTE   N12  Gn0  v100
 BYTE   W13
 BYTE   N12
 BYTE   W11
 BYTE   Gn1
 BYTE   W12
 BYTE   Gn0
 BYTE   W12
 BYTE   N12
 BYTE   W11
 BYTE   Gn1
 BYTE   W13
 BYTE   Gn0
 BYTE   W11
 BYTE   Gn1
 BYTE   W12
 BYTE   PEND 
// 019   ----------------------------------------
Label_4_014A202C:
 BYTE   N12  Fn0  v100
 BYTE   W13
 BYTE   N12
 BYTE   W11
 BYTE   Fn1
 BYTE   W12
 BYTE   Fn0
 BYTE   W12
 BYTE   N12
 BYTE   W13
 BYTE   N12
 BYTE   W11
 BYTE   Fn1
 BYTE   W12
 BYTE   Fn0
 BYTE   W12
 BYTE   PEND 
// 020   ----------------------------------------
Label_4_014A203F:
 BYTE   N12  Fn0  v100
 BYTE   W13
 BYTE   N12
 BYTE   W11
 BYTE   Fn1
 BYTE   W12
 BYTE   Fn0
 BYTE   W12
 BYTE   N12
 BYTE   W11
 BYTE   Fn1
 BYTE   W13
 BYTE   Fn0
 BYTE   W11
 BYTE   Fn1
 BYTE   W13
 BYTE   PEND 
// 021   ----------------------------------------
Label_4_014A2052:
 BYTE   N12  Gn0  v100
 BYTE   W13
 BYTE   N12
 BYTE   W11
 BYTE   Gn1
 BYTE   W12
 BYTE   Gn0
 BYTE   W12
 BYTE   N12
 BYTE   W13
 BYTE   N12
 BYTE   W11
 BYTE   Gn1
 BYTE   W12
 BYTE   Gn0
 BYTE   W12
 BYTE   PEND 
// 022   ----------------------------------------
Label_4_014A2065:
 BYTE   N12  Gn0  v100
 BYTE   W13
 BYTE   N12
 BYTE   W11
 BYTE   Gn1
 BYTE   W12
 BYTE   Gn0
 BYTE   W12
 BYTE   N12
 BYTE   W11
 BYTE   Gn1
 BYTE   W13
 BYTE   Gn0
 BYTE   W11
 BYTE   Gn1
 BYTE   W13
 BYTE   PEND 
// 023   ----------------------------------------
Label_4_014A2078:
 BYTE   W01
 BYTE   N12  Dn1  v100
 BYTE   W12
 BYTE   N12
 BYTE   W11
 BYTE   Dn2
 BYTE   W12
 BYTE   Dn1
 BYTE   W13
 BYTE   N12
 BYTE   W12
 BYTE   N12
 BYTE   W11
 BYTE   Dn2
 BYTE   W12
 BYTE   Dn1
 BYTE   W12
 BYTE   PEND 
// 024   ----------------------------------------
Label_4_014A208C:
 BYTE   W01
 BYTE   N12  Dn1  v100
 BYTE   W12
 BYTE   N12
 BYTE   W11
 BYTE   Dn2
 BYTE   W12
 BYTE   Dn1
 BYTE   W13
 BYTE   N12
 BYTE   W11
 BYTE   Dn2
 BYTE   W12
 BYTE   Dn1
 BYTE   W11
 BYTE   Dn2
 BYTE   W13
 BYTE   PEND 
// 025   ----------------------------------------
Label_4_014A20A0:
 BYTE   W01
 BYTE   N12  Cn1  v100
 BYTE   W12
 BYTE   N12
 BYTE   W11
 BYTE   Cn2
 BYTE   W12
 BYTE   Cn1
 BYTE   W13
 BYTE   N12
 BYTE   W12
 BYTE   N12
 BYTE   W11
 BYTE   Cn2
 BYTE   W12
 BYTE   Cn1
 BYTE   W12
 BYTE   PEND 
 BYTE   PATT
  POIN2 Label_4_014A1FC8
 BYTE   PATT
  POIN2 Label_4_014A1EEF
 BYTE   PATT
  POIN2 Label_4_014A1EB2
 BYTE   PATT
  POIN2 Label_4_014A1EC6
 BYTE   PATT
  POIN2 Label_4_014A1EDB
// 026   ----------------------------------------
Label_4_014A20CD:
 BYTE   W11
 BYTE   N12  En1  v100
 BYTE   W13
 BYTE   En2
 BYTE   W12
 BYTE   En1
 BYTE   W12
 BYTE   N12
 BYTE   W13
 BYTE   N12
 BYTE   W11
 BYTE   En2
 BYTE   W11
 BYTE   En1
 BYTE   W12
 BYTE   An0
 BYTE   W01
 BYTE   PEND 
// 027   ----------------------------------------
Label_4_014A20E1:
 BYTE   W12
 BYTE   N12  An0  v100
 BYTE   W12
 BYTE   An1
 BYTE   W11
 BYTE   N11  An0
 BYTE   W12
 BYTE   N12
 BYTE   W13
 BYTE   N12
 BYTE   W12
 BYTE   An1
 BYTE   W11
 BYTE   An0
 BYTE   W13
 BYTE   PEND 
// 028   ----------------------------------------
Label_4_014A20F4:
 BYTE   N12  Fn0  v100
 BYTE   W12
 BYTE   N12
 BYTE   W12
 BYTE   Fn1
 BYTE   W12
 BYTE   Fn0
 BYTE   W13
 BYTE   N12
 BYTE   W12
 BYTE   N12
 BYTE   W11
 BYTE   Fn1
 BYTE   W12
 BYTE   Fn0
 BYTE   W12
 BYTE   PEND 
// 029   ----------------------------------------
Label_4_014A2107:
 BYTE   N12  Gn0  v100
 BYTE   W12
 BYTE   Gn1
 BYTE   W12
 BYTE   Gn0
 BYTE   W12
 BYTE   Fn1
 BYTE   W12
 BYTE   Gn0
 BYTE   W12
 BYTE   Gn1
 BYTE   W12
 BYTE   Fn1
 BYTE   W11
 BYTE   Gn1
 BYTE   W13
 BYTE   PEND 
// 030   ----------------------------------------
 BYTE   An0
 BYTE   W12
 BYTE   N12
 BYTE   W12
 BYTE   An1
 BYTE   W12
 BYTE   An0
 BYTE   W13
 BYTE   N12
 BYTE   W12
 BYTE   N12
 BYTE   W11
 BYTE   An1
 BYTE   W12
 BYTE   N11  An0
 BYTE   W12
// 031   ----------------------------------------
Label_4_014A212B:
 BYTE   N12  An0  v100
 BYTE   W12
 BYTE   An1
 BYTE   W12
 BYTE   An0
 BYTE   W12
 BYTE   An1
 BYTE   W12
 BYTE   An0
 BYTE   W12
 BYTE   An1
 BYTE   W12
 BYTE   An0
 BYTE   W12
 BYTE   An1
 BYTE   W12
 BYTE   PEND 
// 032   ----------------------------------------
Label_4_014A213E:
 BYTE   W12
 BYTE   N12  An0  v100
 BYTE   W12
 BYTE   An1
 BYTE   W12
 BYTE   An0
 BYTE   W13
 BYTE   N12
 BYTE   W12
 BYTE   N12
 BYTE   W11
 BYTE   An1
 BYTE   W12
 BYTE   An0
 BYTE   W12
 BYTE   PEND 
// 033   ----------------------------------------
 BYTE   Gn0
 BYTE   W12
 BYTE   Gn1
 BYTE   W12
 BYTE   Gn0
 BYTE   W11
 BYTE   Gn1
 BYTE   W13
 BYTE   Gn0
 BYTE   W12
 BYTE   Gn1
 BYTE   W12
 BYTE   Fn1
 BYTE   W11
 BYTE   Gn1
 BYTE   W13
// 034   ----------------------------------------
Label_4_014A2160:
 BYTE   W12
 BYTE   N12  An0  v100
 BYTE   W12
 BYTE   An1
 BYTE   W12
 BYTE   An0
 BYTE   W13
 BYTE   N12
 BYTE   W12
 BYTE   N12
 BYTE   W11
 BYTE   An1
 BYTE   W12
 BYTE   N11  An0
 BYTE   W12
 BYTE   PEND 
 BYTE   PATT
  POIN2 Label_4_014A212B
// 035   ----------------------------------------
 BYTE   W11
 BYTE   N12  Fn0  v100
 BYTE   W13
 BYTE   Fn1
 BYTE   W12
 BYTE   Fn0
 BYTE   W12
 BYTE   N12
 BYTE   W13
 BYTE   N12
 BYTE   W10
 BYTE   Fn1
 BYTE   W13
 BYTE   Fn0
 BYTE   W12
// 036   ----------------------------------------
Label_4_014A2189:
 BYTE   N12  Gn0  v100
 BYTE   W12
 BYTE   Gn1
 BYTE   W12
 BYTE   Gn0
 BYTE   W11
 BYTE   Gn1
 BYTE   W13
 BYTE   Gn0
 BYTE   W12
 BYTE   Gn1
 BYTE   W12
 BYTE   Gn0
 BYTE   W11
 BYTE   Gn1
 BYTE   W13
 BYTE   PEND 
 BYTE   PATT
  POIN2 Label_4_014A2160
 BYTE   PATT
  POIN2 Label_4_014A212B
 BYTE   PATT
  POIN2 Label_4_014A213E
// 037   ----------------------------------------
 BYTE   N12  Gn0  v100
 BYTE   W11
 BYTE   Gn1
 BYTE   W12
 BYTE   Gn0
 BYTE   W12
 BYTE   Gn1
 BYTE   W12
 BYTE   Gn0
 BYTE   W12
 BYTE   Gn1
 BYTE   W12
 BYTE   Fn1
 BYTE   W12
 BYTE   Gn1
 BYTE   W13
// 038   ----------------------------------------
 BYTE   N11  An0
 BYTE   W12
 BYTE   N12
 BYTE   W12
 BYTE   An1
 BYTE   W12
 BYTE   An0
 BYTE   W13
 BYTE   N12
 BYTE   W12
 BYTE   N12
 BYTE   W11
 BYTE   An1
 BYTE   W12
 BYTE   N11  An0
 BYTE   W12
 BYTE   PATT
  POIN2 Label_4_014A212B
// 039   ----------------------------------------
 BYTE   N11  Fn0  v100
 BYTE   W11
 BYTE   N12
 BYTE   W13
 BYTE   Fn1
 BYTE   W12
 BYTE   Fn0
 BYTE   W12
 BYTE   N12
 BYTE   W13
 BYTE   N12
 BYTE   W10
 BYTE   Fn1
 BYTE   W13
 BYTE   Fn0
 BYTE   W12
 BYTE   PATT
  POIN2 Label_4_014A2189
// 040   ----------------------------------------
Label_4_014A21EB:
 BYTE   W01
 BYTE   N12  Cn1  v100
 BYTE   W12
 BYTE   N12
 BYTE   W12
 BYTE   Cn2
 BYTE   W11
 BYTE   Cn1
 BYTE   W13
 BYTE   N12
 BYTE   W12
 BYTE   N12
 BYTE   W11
 BYTE   Cn2
 BYTE   W13
 BYTE   N11  Cn1
 BYTE   W11
 BYTE   PEND 
// 041   ----------------------------------------
Label_4_014A2200:
 BYTE   N12  Cn1  v100
 BYTE   W12
 BYTE   N12
 BYTE   W12
 BYTE   Cn2
 BYTE   W12
 BYTE   Cn1
 BYTE   W12
 BYTE   N12
 BYTE   W12
 BYTE   N12
 BYTE   W12
 BYTE   Cn2
 BYTE   W12
 BYTE   Cn1
 BYTE   W12
 BYTE   PEND 
// 042   ----------------------------------------
Label_4_014A2213:
 BYTE   W01
 BYTE   N12  Cn1  v100
 BYTE   W13
 BYTE   N12
 BYTE   W11
 BYTE   Cn2
 BYTE   W12
 BYTE   Cn1
 BYTE   W12
 BYTE   N12
 BYTE   W13
 BYTE   N12
 BYTE   W11
 BYTE   Cn2
 BYTE   W13
 BYTE   N11  Cn1
 BYTE   W10
 BYTE   PEND 
// 043   ----------------------------------------
Label_4_014A2228:
 BYTE   W01
 BYTE   N12  Cn1  v100
 BYTE   W12
 BYTE   N12
 BYTE   W12
 BYTE   Cn2
 BYTE   W11
 BYTE   Cn1
 BYTE   W13
 BYTE   N12
 BYTE   W12
 BYTE   Cn2
 BYTE   W11
 BYTE   Cn1
 BYTE   W13
 BYTE   N11
 BYTE   W11
 BYTE   PEND 
 BYTE   PATT
  POIN2 Label_4_014A21EB
 BYTE   PATT
  POIN2 Label_4_014A2200
 BYTE   PATT
  POIN2 Label_4_014A2213
 BYTE   PATT
  POIN2 Label_4_014A2228
 BYTE   PATT
  POIN2 Label_4_014A21EB
 BYTE   PATT
  POIN2 Label_4_014A2200
 BYTE   PATT
  POIN2 Label_4_014A2213
 BYTE   PATT
  POIN2 Label_4_014A2228
 BYTE   PATT
  POIN2 Label_4_014A21EB
 BYTE   PATT
  POIN2 Label_4_014A2200
 BYTE   PATT
  POIN2 Label_4_014A2213
// 044   ----------------------------------------
 BYTE   W01
 BYTE   N12  Cn1  v100
 BYTE   W12
 BYTE   N12
 BYTE   W12
 BYTE   Cn2
 BYTE   W11
 BYTE   Cn1
 BYTE   W13
 BYTE   N12
 BYTE   W12
 BYTE   Cn2
 BYTE   W11
 BYTE   Cn1
 BYTE   W13
 BYTE   N12
 BYTE   W11
// 045   ----------------------------------------
 BYTE   W01
 BYTE   Fn1
 BYTE   W12
 BYTE   Fn0
 BYTE   W12
 BYTE   N12
 BYTE   W12
 BYTE   Fn1
 BYTE   W12
 BYTE   Fn0
 BYTE   W12
 BYTE   N12
 BYTE   W12
 BYTE   Fn1
 BYTE   W12
 BYTE   Fn0
 BYTE   W11
// 046   ----------------------------------------
 BYTE   Fn1
 BYTE   W12
 BYTE   Fn0
 BYTE   W13
 BYTE   N12
 BYTE   W11
 BYTE   Fn1
 BYTE   W12
 BYTE   Fn0
 BYTE   W12
 BYTE   N12
 BYTE   W12
 BYTE   Fn1
 BYTE   W12
 BYTE   Fn0
 BYTE   W11
 BYTE   Gn1
 BYTE   W01
// 047   ----------------------------------------
 BYTE   W12
 BYTE   Gn0
 BYTE   W12
 BYTE   N12
 BYTE   W12
 BYTE   Gn1
 BYTE   W11
 BYTE   Gn0
 BYTE   W13
 BYTE   N12
 BYTE   W11
 BYTE   Gn1
 BYTE   W13
 BYTE   Gn0
 BYTE   W12
// 048   ----------------------------------------
 BYTE   Gn1
 BYTE   W12
 BYTE   Gn0
 BYTE   W13
 BYTE   N12
 BYTE   W11
 BYTE   Gn1
 BYTE   W12
 BYTE   Gn0
 BYTE   W12
 BYTE   N12
 BYTE   W12
 BYTE   Gn1
 BYTE   W12
 BYTE   N12
 BYTE   W12
// 049   ----------------------------------------
Label_4_014A22C8:
 BYTE   N12  Dn1  v100
 BYTE   W12
 BYTE   Dn0
 BYTE   W13
 BYTE   N12
 BYTE   W11
 BYTE   Dn1
 BYTE   W12
 BYTE   Dn0
 BYTE   W12
 BYTE   N12
 BYTE   W12
 BYTE   Dn1
 BYTE   W12
 BYTE   Dn0
 BYTE   W12
 BYTE   PEND 
 BYTE   PATT
  POIN2 Label_4_014A22C8
 BYTE   PATT
  POIN2 Label_4_014A2004
 BYTE   PATT
  POIN2 Label_4_014A2018
 BYTE   PATT
  POIN2 Label_4_014A1F8C
 BYTE   PATT
  POIN2 Label_4_014A1FA0
 BYTE   PATT
  POIN2 Label_4_014A1FB4
 BYTE   PATT
  POIN2 Label_4_014A1FC8
 BYTE   PATT
  POIN2 Label_4_014A1FDC
 BYTE   PATT
  POIN2 Label_4_014A1FF0
 BYTE   PATT
  POIN2 Label_4_014A2004
 BYTE   PATT
  POIN2 Label_4_014A2018
// 050   ----------------------------------------
 BYTE   N12  An0  v100
 BYTE   W12
 BYTE   N12
 BYTE   W13
 BYTE   An1
 BYTE   W11
 BYTE   An0
 BYTE   W13
 BYTE   N12
 BYTE   W12
 BYTE   N12
 BYTE   W12
 BYTE   An1
 BYTE   W11
 BYTE   An0
 BYTE   W12
// 051   ----------------------------------------
 BYTE   W01
 BYTE   N12
 BYTE   W12
 BYTE   N12
 BYTE   W12
 BYTE   An1
 BYTE   W12
 BYTE   An0
 BYTE   W11
 BYTE   Gn1
 BYTE   W12
 BYTE   An0
 BYTE   W13
 BYTE   An1
 BYTE   W12
 BYTE   An0
 BYTE   W11
// 052   ----------------------------------------
 BYTE   W01
 BYTE   N11
 BYTE   W11
 BYTE   N12
 BYTE   W13
 BYTE   An1
 BYTE   W11
 BYTE   An0
 BYTE   W13
 BYTE   N12
 BYTE   W12
 BYTE   N12
 BYTE   W12
 BYTE   An1
 BYTE   W11
 BYTE   An0
 BYTE   W12
// 053   ----------------------------------------
 BYTE   W01
 BYTE   N12
 BYTE   W12
 BYTE   N12
 BYTE   W12
 BYTE   An1
 BYTE   W12
 BYTE   An0
 BYTE   W12
 BYTE   N12
 BYTE   W12
 BYTE   Gn1
 BYTE   W12
 BYTE   An0
 BYTE   W11
 BYTE   An1
 BYTE   W12
// 054   ----------------------------------------
Label_4_014A2357:
 BYTE   W12
 BYTE   N12  An0  v100
 BYTE   W12
 BYTE   An1
 BYTE   W12
 BYTE   An0
 BYTE   W12
 BYTE   N12
 BYTE   W12
 BYTE   N12
 BYTE   W12
 BYTE   An1
 BYTE   W12
 BYTE   An0
 BYTE   W12
 BYTE   PEND 
// 055   ----------------------------------------
Label_4_014A2369:
 BYTE   N12  An0  v100
 BYTE   W12
 BYTE   N12
 BYTE   W12
 BYTE   An1
 BYTE   W12
 BYTE   An0
 BYTE   W12
 BYTE   Gn1
 BYTE   W12
 BYTE   An0
 BYTE   W12
 BYTE   An1
 BYTE   W12
 BYTE   An0
 BYTE   W12
 BYTE   PEND 
// 056   ----------------------------------------
Label_4_014A237C:
 BYTE   W01
 BYTE   N11  An0  v100
 BYTE   W11
 BYTE   N12
 BYTE   W12
 BYTE   An1
 BYTE   W12
 BYTE   An0
 BYTE   W12
 BYTE   N12
 BYTE   W12
 BYTE   N12
 BYTE   W12
 BYTE   An1
 BYTE   W12
 BYTE   An0
 BYTE   W12
 BYTE   PEND 
// 057   ----------------------------------------
Label_4_014A2390:
 BYTE   N12  An0  v100
 BYTE   W12
 BYTE   N12
 BYTE   W12
 BYTE   An1
 BYTE   W12
 BYTE   An0
 BYTE   W13
 BYTE   N12
 BYTE   W11
 BYTE   Gn1
 BYTE   W12
 BYTE   An0
 BYTE   W12
 BYTE   An1
 BYTE   W12
 BYTE   PEND 
 BYTE   PATT
  POIN2 Label_4_014A2357
 BYTE   PATT
  POIN2 Label_4_014A2369
 BYTE   PATT
  POIN2 Label_4_014A237C
 BYTE   PATT
  POIN2 Label_4_014A2390
 BYTE   PATT
  POIN2 Label_4_014A2357
 BYTE   PATT
  POIN2 Label_4_014A2369
 BYTE   PATT
  POIN2 Label_4_014A237C
 BYTE   PATT
  POIN2 Label_4_014A2390
 BYTE   PATT
  POIN2 Label_4_014A1F11
 BYTE   PATT
  POIN2 Label_4_014A1F24
 BYTE   PATT
  POIN2 Label_4_014A1F38
// 058   ----------------------------------------
 BYTE   N12  Dn1  v100
 BYTE   W12
 BYTE   N12
 BYTE   W12
 BYTE   Dn2
 BYTE   W12
 BYTE   N11  Dn1
 BYTE   W11
 BYTE   N12
 BYTE   W13
 BYTE   N12
 BYTE   W12
 BYTE   Dn2
 BYTE   W11
 BYTE   Dn1
 BYTE   W12
 BYTE   N01  En1
 BYTE   W01
 BYTE   PATT
  POIN2 Label_4_014A1F11
 BYTE   PATT
  POIN2 Label_4_014A1F24
 BYTE   PATT
  POIN2 Label_4_014A1F38
// 059   ----------------------------------------
 BYTE   N12  Dn1  v100
 BYTE   W12
 BYTE   N12
 BYTE   W12
 BYTE   Dn2
 BYTE   W12
 BYTE   N11  Dn1
 BYTE   W11
 BYTE   N12
 BYTE   W13
 BYTE   N12
 BYTE   W12
 BYTE   Dn2
 BYTE   W11
 BYTE   Dn1
 BYTE   W12
 BYTE   En1
 BYTE   W01
 BYTE   PATT
  POIN2 Label_4_014A20CD
 BYTE   PATT
  POIN2 Label_4_014A20E1
// 060   ----------------------------------------
 BYTE   N12  Cn1  v100
 BYTE   W12
 BYTE   N12
 BYTE   W12
 BYTE   Cn2
 BYTE   W12
 BYTE   N11  Cn1
 BYTE   W11
 BYTE   N12
 BYTE   W13
 BYTE   N12
 BYTE   W12
 BYTE   Cn2
 BYTE   W11
 BYTE   Cn1
 BYTE   W12
 BYTE   Dn1
 BYTE   W01
// 061   ----------------------------------------
 BYTE   W12
 BYTE   N12
 BYTE   W12
 BYTE   Dn2
 BYTE   W11
 BYTE   N11  Dn1
 BYTE   W11
 BYTE   N12
 BYTE   W14
 BYTE   N12
 BYTE   W12
 BYTE   Dn2
 BYTE   W11
 BYTE   Dn1
 BYTE   W12
 BYTE   En1
 BYTE   W01
 BYTE   PATT
  POIN2 Label_4_014A20CD
 BYTE   PATT
  POIN2 Label_4_014A20E1
 BYTE   PATT
  POIN2 Label_4_014A20F4
 BYTE   PATT
  POIN2 Label_4_014A2107
 BYTE   PATT
  POIN2 Label_4_014A202C
 BYTE   PATT
  POIN2 Label_4_014A203F
 BYTE   PATT
  POIN2 Label_4_014A2052
 BYTE   PATT
  POIN2 Label_4_014A2065
 BYTE   PATT
  POIN2 Label_4_014A2078
 BYTE   PATT
  POIN2 Label_4_014A208C
 BYTE   PATT
  POIN2 Label_4_014A20A0
 BYTE   PATT
  POIN2 Label_4_014A1FC8
// 062   ----------------------------------------
 BYTE   N12  Fn0  v100
 BYTE   W12
 BYTE   N12
 BYTE   W11
 BYTE   Fn1
 BYTE   W12
 BYTE   Fn0
 BYTE   W13
 BYTE   N12
 BYTE   W12
 BYTE   N12
 BYTE   W11
 BYTE   Fn1
 BYTE   W12
 BYTE   Fn0
 BYTE   W13
// 063   ----------------------------------------
 BYTE   N12
 BYTE   W12
 BYTE   N12
 BYTE   W11
 BYTE   Fn1
 BYTE   W12
 BYTE   Fn0
 BYTE   W13
 BYTE   N12
 BYTE   W11
 BYTE   Fn1
 BYTE   W12
 BYTE   Fn0
 BYTE   W11
 BYTE   Fn1
 BYTE   W14
// 064   ----------------------------------------
 BYTE   Gn0
 BYTE   W12
 BYTE   N12
 BYTE   W11
 BYTE   Gn1
 BYTE   W12
 BYTE   Gn0
 BYTE   W13
 BYTE   N12
 BYTE   W12
 BYTE   N12
 BYTE   W11
 BYTE   Gn1
 BYTE   W12
 BYTE   Gn0
 BYTE   W13
// 065   ----------------------------------------
 BYTE   N12
 BYTE   W12
 BYTE   N12
 BYTE   W11
 BYTE   Gn1
 BYTE   W12
 BYTE   Gn0
 BYTE   W13
 BYTE   N12
 BYTE   W11
 BYTE   Gn1
 BYTE   W12
 BYTE   Gn0
 BYTE   W11
 BYTE   Gn1
 BYTE   W14
// 066   ----------------------------------------
 BYTE   Dn1
 BYTE   W13
 BYTE   N12
 BYTE   W11
 BYTE   Dn2
 BYTE   W12
 BYTE   Dn1
 BYTE   W12
 BYTE   N12
 BYTE   W13
 BYTE   N12
 BYTE   W11
 BYTE   Dn2
 BYTE   W12
 BYTE   Dn1
 BYTE   W12
// 067   ----------------------------------------
 BYTE   N12
 BYTE   W13
 BYTE   N12
 BYTE   W11
 BYTE   Dn2
 BYTE   W12
 BYTE   Dn1
 BYTE   W12
 BYTE   N12
 BYTE   W11
 BYTE   Dn2
 BYTE   W13
 BYTE   Dn1
 BYTE   W11
 BYTE   Dn2
 BYTE   W13
// 068   ----------------------------------------
 BYTE   Cn1
 BYTE   W13
 BYTE   N12
 BYTE   W11
 BYTE   Cn2
 BYTE   W12
 BYTE   Cn1
 BYTE   W12
 BYTE   N12
 BYTE   W13
 BYTE   N12
 BYTE   W11
 BYTE   Cn2
 BYTE   W12
 BYTE   Cn1
 BYTE   W12
 BYTE   PATT
  POIN2 Label_4_014A2065
 BYTE   PATT
  POIN2 Label_4_014A1F11
 BYTE   PATT
  POIN2 Label_4_014A1F24
 BYTE   PATT
  POIN2 Label_4_014A1F38
 BYTE   PATT
  POIN2 Label_4_014A1F4C
// 069   ----------------------------------------
 BYTE   W11
 BYTE   N12  En1  v100
 BYTE   W12
 BYTE   En2
 BYTE   W12
 BYTE   En1
 BYTE   W13
 BYTE   N12
 BYTE   W12
 BYTE   N12
 BYTE   W11
 BYTE   En2
 BYTE   W12
 BYTE   En1
 BYTE   W11
 BYTE   An0
 BYTE   W02
// 070   ----------------------------------------
 BYTE   W11
 BYTE   N12
 BYTE   W12
 BYTE   An1
 BYTE   W12
 BYTE   N11  An0
 BYTE   W11
 BYTE   N12
 BYTE   W13
 BYTE   N12
 BYTE   W12
 BYTE   An1
 BYTE   W11
 BYTE   An0
 BYTE   W13
 BYTE   Fn0
 BYTE   W01
// 071   ----------------------------------------
 BYTE   W11
 BYTE   N12
 BYTE   W13
 BYTE   Fn1
 BYTE   W12
 BYTE   Fn0
 BYTE   W12
 BYTE   N12
 BYTE   W13
 BYTE   N12
 BYTE   W11
 BYTE   Fn1
 BYTE   W11
 BYTE   Fn0
 BYTE   W12
 BYTE   Gn0
 BYTE   W01
// 072   ----------------------------------------
 BYTE   W12
 BYTE   Gn1
 BYTE   W12
 BYTE   Gn0
 BYTE   W11
 BYTE   Fn1
 BYTE   W12
 BYTE   Gn0
 BYTE   W13
 BYTE   Gn1
 BYTE   W12
 BYTE   Fn1
 BYTE   W11
 BYTE   Gn1
 BYTE   W12
 BYTE   An0
 BYTE   W01
// 073   ----------------------------------------
Label_4_014A2553:
 BYTE   W11
 BYTE   N12  An0  v100
 BYTE   W13
 BYTE   An1
 BYTE   W12
 BYTE   An0
 BYTE   W12
 BYTE   N12
 BYTE   W13
 BYTE   N12
 BYTE   W10
 BYTE   An1
 BYTE   W13
 BYTE   N11  An0
 BYTE   W12
 BYTE   PEND 
// 074   ----------------------------------------
Label_4_014A2566:
 BYTE   N12  An0  v100
 BYTE   W12
 BYTE   An1
 BYTE   W12
 BYTE   An0
 BYTE   W11
 BYTE   An1
 BYTE   W13
 BYTE   An0
 BYTE   W12
 BYTE   An1
 BYTE   W12
 BYTE   An0
 BYTE   W11
 BYTE   An1
 BYTE   W13
 BYTE   PEND 
// 075   ----------------------------------------
 BYTE   W11
 BYTE   An0
 BYTE   W13
 BYTE   An1
 BYTE   W12
 BYTE   An0
 BYTE   W12
 BYTE   N12
 BYTE   W13
 BYTE   N12
 BYTE   W10
 BYTE   An1
 BYTE   W13
 BYTE   An0
 BYTE   W11
 BYTE   Gn0
 BYTE   W01
// 076   ----------------------------------------
 BYTE   W11
 BYTE   Gn1
 BYTE   W12
 BYTE   Gn0
 BYTE   W12
 BYTE   Gn1
 BYTE   W12
 BYTE   Gn0
 BYTE   W12
 BYTE   Gn1
 BYTE   W12
 BYTE   Fn1
 BYTE   W12
 BYTE   Gn1
 BYTE   W13
 BYTE   PATT
  POIN2 Label_4_014A2553
 BYTE   PATT
  POIN2 Label_4_014A2566
// 077   ----------------------------------------
 BYTE   W11
 BYTE   N12  Fn0  v100
 BYTE   W12
 BYTE   Fn1
 BYTE   W12
 BYTE   Fn0
 BYTE   W13
 BYTE   N12
 BYTE   W12
 BYTE   N12
 BYTE   W10
 BYTE   Fn1
 BYTE   W13
 BYTE   Fn0
 BYTE   W12
 BYTE   Gn0
 BYTE   W01
// 078   ----------------------------------------
Label_4_014A25B6:
 BYTE   W11
 BYTE   N12  Gn1  v100
 BYTE   W12
 BYTE   Gn0
 BYTE   W12
 BYTE   Gn1
 BYTE   W12
 BYTE   Gn0
 BYTE   W12
 BYTE   Gn1
 BYTE   W12
 BYTE   Gn0
 BYTE   W12
 BYTE   Gn1
 BYTE   W13
 BYTE   PEND 
 BYTE   PATT
  POIN2 Label_4_014A2553
 BYTE   PATT
  POIN2 Label_4_014A2566
// 079   ----------------------------------------
 BYTE   W11
 BYTE   N12  An0  v100
 BYTE   W13
 BYTE   An1
 BYTE   W12
 BYTE   An0
 BYTE   W12
 BYTE   N12
 BYTE   W13
 BYTE   N12
 BYTE   W10
 BYTE   An1
 BYTE   W13
 BYTE   An0
 BYTE   W12
// 080   ----------------------------------------
 BYTE   Gn0
 BYTE   W11
 BYTE   Gn1
 BYTE   W11
 BYTE   Gn0
 BYTE   W12
 BYTE   Gn1
 BYTE   W12
 BYTE   Gn0
 BYTE   W13
 BYTE   Gn1
 BYTE   W11
 BYTE   Fn1
 BYTE   W12
 BYTE   Gn1
 BYTE   W14
// 081   ----------------------------------------
 BYTE   N11  An0
 BYTE   W11
 BYTE   N12
 BYTE   W13
 BYTE   An1
 BYTE   W12
 BYTE   An0
 BYTE   W12
 BYTE   N12
 BYTE   W13
 BYTE   N12
 BYTE   W10
 BYTE   An1
 BYTE   W13
 BYTE   N11  An0
 BYTE   W12
 BYTE   PATT
  POIN2 Label_4_014A2566
// 082   ----------------------------------------
 BYTE   N11  Fn0  v100
 BYTE   W11
 BYTE   N12
 BYTE   W12
 BYTE   Fn1
 BYTE   W12
 BYTE   Fn0
 BYTE   W13
 BYTE   N12
 BYTE   W12
 BYTE   N12
 BYTE   W10
 BYTE   Fn1
 BYTE   W13
 BYTE   Fn0
 BYTE   W12
 BYTE   Gn0
 BYTE   W01
 BYTE   PATT
  POIN2 Label_4_014A25B6
// 083   ----------------------------------------
Label_4_014A2623:
 BYTE   N12  Cn1  v100
 BYTE   W12
 BYTE   N12
 BYTE   W12
 BYTE   Cn2
 BYTE   W12
 BYTE   Cn1
 BYTE   W12
 BYTE   N12
 BYTE   W12
 BYTE   N12
 BYTE   W12
 BYTE   Cn2
 BYTE   W12
 BYTE   N11  Cn1
 BYTE   W12
 BYTE   PEND 
// 084   ----------------------------------------
Label_4_014A2637:
 BYTE   N12  Cn1  v100
 BYTE   W12
 BYTE   N12
 BYTE   W12
 BYTE   Cn2
 BYTE   W11
 BYTE   Cn1
 BYTE   W13
 BYTE   N12
 BYTE   W12
 BYTE   N12
 BYTE   W11
 BYTE   Cn2
 BYTE   W13
 BYTE   Cn1
 BYTE   W12
 BYTE   PEND 
 BYTE   PATT
  POIN2 Label_4_014A21EB
// 085   ----------------------------------------
Label_4_014A264F:
 BYTE   N12  Cn1  v100
 BYTE   W12
 BYTE   N12
 BYTE   W12
 BYTE   Cn2
 BYTE   W12
 BYTE   Cn1
 BYTE   W12
 BYTE   N12
 BYTE   W12
 BYTE   Cn2
 BYTE   W12
 BYTE   Cn1
 BYTE   W12
 BYTE   N11
 BYTE   W12
 BYTE   PEND 
 BYTE   PATT
  POIN2 Label_4_014A2623
 BYTE   PATT
  POIN2 Label_4_014A2637
 BYTE   PATT
  POIN2 Label_4_014A21EB
 BYTE   PATT
  POIN2 Label_4_014A264F
 BYTE   PATT
  POIN2 Label_4_014A2623
 BYTE   PATT
  POIN2 Label_4_014A2637
 BYTE   PATT
  POIN2 Label_4_014A21EB
 BYTE   PATT
  POIN2 Label_4_014A264F
 BYTE   PATT
  POIN2 Label_4_014A2623
 BYTE   PATT
  POIN2 Label_4_014A2637
 BYTE   PATT
  POIN2 Label_4_014A21EB
// 086   ----------------------------------------
 BYTE   N12  Cn1  v100
 BYTE   W12
 BYTE   N12
 BYTE   W12
 BYTE   Cn2
 BYTE   W12
 BYTE   Cn1
 BYTE   W12
 BYTE   N12
 BYTE   W12
 BYTE   Cn2
 BYTE   W12
 BYTE   Cn1
 BYTE   W12
 BYTE   N12
 BYTE   W12
// 087   ----------------------------------------
 BYTE   Fn1
 BYTE   W12
 BYTE   Fn0
 BYTE   W13
 BYTE   N12
 BYTE   W11
 BYTE   Fn1
 BYTE   W12
 BYTE   Fn0
 BYTE   W12
 BYTE   N12
 BYTE   W12
 BYTE   Fn1
 BYTE   W12
 BYTE   Fn0
 BYTE   W12
// 088   ----------------------------------------
 BYTE   Fn1
 BYTE   W12
 BYTE   Fn0
 BYTE   W12
 BYTE   N12
 BYTE   W12
 BYTE   Fn1
 BYTE   W12
 BYTE   Fn0
 BYTE   W12
 BYTE   N12
 BYTE   W12
 BYTE   Fn1
 BYTE   W12
 BYTE   Fn0
 BYTE   W11
 BYTE   Gn1
 BYTE   W01
// 089   ----------------------------------------
 BYTE   W11
 BYTE   Gn0
 BYTE   W13
 BYTE   N12
 BYTE   W11
 BYTE   Gn1
 BYTE   W12
 BYTE   Gn0
 BYTE   W12
 BYTE   N12
 BYTE   W12
 BYTE   Gn1
 BYTE   W12
 BYTE   Gn0
 BYTE   W13
// 090   ----------------------------------------
 BYTE   Gn1
 BYTE   W12
 BYTE   Gn0
 BYTE   W12
 BYTE   N12
 BYTE   W12
 BYTE   Gn1
 BYTE   W12
 BYTE   Gn0
 BYTE   W12
 BYTE   N12
 BYTE   W12
 BYTE   Gn1
 BYTE   W12
 BYTE   N12
 BYTE   W12
// 091   ----------------------------------------
 BYTE   Dn1
 BYTE   W12
 BYTE   Dn0
 BYTE   W12
 BYTE   N12
 BYTE   W12
 BYTE   Dn1
 BYTE   W12
 BYTE   Dn0
 BYTE   W12
 BYTE   N12
 BYTE   W12
 BYTE   Dn1
 BYTE   W11
 BYTE   Dn0
 BYTE   W13
// 092   ----------------------------------------
 BYTE   Dn1
 BYTE   W12
 BYTE   Dn0
 BYTE   W12
 BYTE   N12
 BYTE   W12
 BYTE   Dn1
 BYTE   W12
 BYTE   Dn0
 BYTE   W12
 BYTE   N12
 BYTE   W12
 BYTE   Dn1
 BYTE   W12
 BYTE   Dn0
 BYTE   W12
 BYTE   PATT
  POIN2 Label_4_014A20A0
 BYTE   PATT
  POIN2 Label_4_014A1FC8
 BYTE   PATT
  POIN2 Label_4_014A202C
 BYTE   PATT
  POIN2 Label_4_014A203F
 BYTE   PATT
  POIN2 Label_4_014A2052
 BYTE   PATT
  POIN2 Label_4_014A2065
 BYTE   PATT
  POIN2 Label_4_014A2078
 BYTE   PATT
  POIN2 Label_4_014A208C
 BYTE   PATT
  POIN2 Label_4_014A20A0
 BYTE   PATT
  POIN2 Label_4_014A1FC8
// 093   ----------------------------------------
 BYTE   N12  An0  v100
 BYTE   W12
 BYTE   N12
 BYTE   W12
 BYTE   An1
 BYTE   W12
 BYTE   An0
 BYTE   W12
 BYTE   N12
 BYTE   W12
 BYTE   N12
 BYTE   W12
 BYTE   An1
 BYTE   W12
 BYTE   An0
 BYTE   W12
 BYTE   PATT
  POIN2 Label_4_014A2369
 BYTE   PATT
  POIN2 Label_4_014A237C
 BYTE   PATT
  POIN2 Label_4_014A2390
// 094   ----------------------------------------
Label_4_014A275F:
 BYTE   W11
 BYTE   N12  An0  v100
 BYTE   W13
 BYTE   An1
 BYTE   W11
 BYTE   An0
 BYTE   W13
 BYTE   N12
 BYTE   W12
 BYTE   N12
 BYTE   W12
 BYTE   An1
 BYTE   W11
 BYTE   An0
 BYTE   W13
 BYTE   PEND 
// 095   ----------------------------------------
Label_4_014A2771:
 BYTE   N12  An0  v100
 BYTE   W12
 BYTE   N12
 BYTE   W12
 BYTE   An1
 BYTE   W12
 BYTE   An0
 BYTE   W11
 BYTE   Gn1
 BYTE   W12
 BYTE   An0
 BYTE   W13
 BYTE   An1
 BYTE   W12
 BYTE   An0
 BYTE   W12
 BYTE   PEND 
// 096   ----------------------------------------
Label_4_014A2784:
 BYTE   N11  An0  v100
 BYTE   W11
 BYTE   N12
 BYTE   W13
 BYTE   An1
 BYTE   W11
 BYTE   An0
 BYTE   W13
 BYTE   N12
 BYTE   W12
 BYTE   N12
 BYTE   W12
 BYTE   An1
 BYTE   W11
 BYTE   An0
 BYTE   W13
 BYTE   PEND 
// 097   ----------------------------------------
Label_4_014A2797:
 BYTE   N12  An0  v100
 BYTE   W12
 BYTE   N12
 BYTE   W12
 BYTE   An1
 BYTE   W12
 BYTE   An0
 BYTE   W12
 BYTE   N12
 BYTE   W12
 BYTE   Gn1
 BYTE   W12
 BYTE   An0
 BYTE   W11
 BYTE   An1
 BYTE   W13
 BYTE   PEND 
 BYTE   PATT
  POIN2 Label_4_014A275F
 BYTE   PATT
  POIN2 Label_4_014A2771
 BYTE   PATT
  POIN2 Label_4_014A2784
 BYTE   PATT
  POIN2 Label_4_014A2797
 BYTE   PATT
  POIN2 Label_4_014A275F
 BYTE   PATT
  POIN2 Label_4_014A2771
 BYTE   PATT
  POIN2 Label_4_014A2784
// 098   ----------------------------------------
 BYTE   N12  An0  v100
 BYTE   W12
 BYTE   N12
 BYTE   W12
 BYTE   An1
 BYTE   W12
 BYTE   An0
 BYTE   W12
 BYTE   N12
 BYTE   W12
 BYTE   Gn1
 BYTE   W12
 BYTE   An0
 BYTE   W11
 BYTE   An1
 BYTE   W12
 BYTE   FINE

//**************** Track 6 (Midi-Chn.5) ****************//

MarioTennisRound2Pandan_006:
// 000   ----------------------------------------
 BYTE   KEYSH   MarioTennisRound2Pandan_key+0
 BYTE   VOICE   33
 BYTE   VOL   0*MarioTennisRound2Pandan_mvl/mxv
 BYTE   PAN   c_v+0
 BYTE   N12  En1  v100
 BYTE   W12
 BYTE   N12
 BYTE   W13
 BYTE   En2
 BYTE   W12
 BYTE   En1
 BYTE   W12
 BYTE   N12
 BYTE   W13
 BYTE   N12
 BYTE   W11
 BYTE   En2
 BYTE   W11
 BYTE   En1
 BYTE   W12
// 001   ----------------------------------------
Label_5_014A27FA:
 BYTE   N12  An0  v100
 BYTE   W13
 BYTE   N12
 BYTE   W12
 BYTE   An1
 BYTE   W11
 BYTE   N11  An0
 BYTE   W12
 BYTE   N12
 BYTE   W13
 BYTE   N12
 BYTE   W12
 BYTE   An1
 BYTE   W11
 BYTE   An0
 BYTE   W12
 BYTE   PEND 
// 002   ----------------------------------------
Label_5_014A280E:
 BYTE   W01
 BYTE   N12  Cn1  v100
 BYTE   W13
 BYTE   N12
 BYTE   W11
 BYTE   Cn2
 BYTE   W12
 BYTE   N11  Cn1
 BYTE   W11
 BYTE   N12
 BYTE   W14
 BYTE   N12
 BYTE   W11
 BYTE   Cn2
 BYTE   W11
 BYTE   Cn1
 BYTE   W12
 BYTE   PEND 
// 003   ----------------------------------------
Label_5_014A2823:
 BYTE   N12  Dn1  v100
 BYTE   W13
 BYTE   N12
 BYTE   W12
 BYTE   Dn2
 BYTE   W11
 BYTE   N11  Dn1
 BYTE   W12
 BYTE   N12
 BYTE   W13
 BYTE   N12
 BYTE   W12
 BYTE   Dn2
 BYTE   W11
 BYTE   Dn1
 BYTE   W12
 BYTE   PEND 
// 004   ----------------------------------------
Label_5_014A2837:
 BYTE   N12  En1  v100
 BYTE   W12
 BYTE   N12
 BYTE   W12
 BYTE   En2
 BYTE   W12
 BYTE   En1
 BYTE   W13
 BYTE   N12
 BYTE   W12
 BYTE   N12
 BYTE   W11
 BYTE   En2
 BYTE   W12
 BYTE   En1
 BYTE   W12
 BYTE   PEND 
// 005   ----------------------------------------
Label_5_014A284A:
 BYTE   N12  An0  v100
 BYTE   W12
 BYTE   N12
 BYTE   W12
 BYTE   An1
 BYTE   W12
 BYTE   N11  An0
 BYTE   W12
 BYTE   N12
 BYTE   W12
 BYTE   N12
 BYTE   W12
 BYTE   An1
 BYTE   W11
 BYTE   An0
 BYTE   W13
 BYTE   PEND 
// 006   ----------------------------------------
Label_5_014A285E:
 BYTE   N12  Cn1  v100
 BYTE   W13
 BYTE   N12
 BYTE   W12
 BYTE   Cn2
 BYTE   W11
 BYTE   N11  Cn1
 BYTE   W12
 BYTE   N12
 BYTE   W13
 BYTE   N12
 BYTE   W12
 BYTE   Cn2
 BYTE   W11
 BYTE   Cn1
 BYTE   W12
 BYTE   PEND 
// 007   ----------------------------------------
Label_5_014A2872:
 BYTE   N12  Dn1  v100
 BYTE   W12
 BYTE   N12
 BYTE   W12
 BYTE   Dn2
 BYTE   W12
 BYTE   N11  Dn1
 BYTE   W11
 BYTE   N12
 BYTE   W13
 BYTE   N12
 BYTE   W12
 BYTE   Dn2
 BYTE   W11
 BYTE   Dn1
 BYTE   W13
 BYTE   PEND 
// 008   ----------------------------------------
Label_5_014A2886:
 BYTE   N12  En1  v100
 BYTE   W12
 BYTE   N12
 BYTE   W13
 BYTE   En2
 BYTE   W12
 BYTE   En1
 BYTE   W12
 BYTE   N12
 BYTE   W13
 BYTE   N12
 BYTE   W11
 BYTE   En2
 BYTE   W11
 BYTE   En1
 BYTE   W12
 BYTE   PEND 
 BYTE   PATT
  POIN2 Label_5_014A27FA
 BYTE   PATT
  POIN2 Label_5_014A280E
 BYTE   PATT
  POIN2 Label_5_014A2823
// 009   ----------------------------------------
Label_5_014A28A8:
 BYTE   W11
 BYTE   N12  En1  v100
 BYTE   W13
 BYTE   En2
 BYTE   W12
 BYTE   En1
 BYTE   W12
 BYTE   N12
 BYTE   W13
 BYTE   N12
 BYTE   W11
 BYTE   En2
 BYTE   W11
 BYTE   En1
 BYTE   W12
 BYTE   An0
 BYTE   W01
 BYTE   PEND 
// 010   ----------------------------------------
Label_5_014A28BC:
 BYTE   W12
 BYTE   N12  An0  v100
 BYTE   W12
 BYTE   An1
 BYTE   W11
 BYTE   N11  An0
 BYTE   W12
 BYTE   N12
 BYTE   W13
 BYTE   N12
 BYTE   W12
 BYTE   An1
 BYTE   W11
 BYTE   An0
 BYTE   W13
 BYTE   PEND 
// 011   ----------------------------------------
Label_5_014A28CF:
 BYTE   N12  Fn0  v100
 BYTE   W12
 BYTE   N12
 BYTE   W12
 BYTE   Fn1
 BYTE   W12
 BYTE   Fn0
 BYTE   W13
 BYTE   N12
 BYTE   W12
 BYTE   N12
 BYTE   W11
 BYTE   Fn1
 BYTE   W12
 BYTE   Fn0
 BYTE   W12
 BYTE   PEND 
// 012   ----------------------------------------
Label_5_014A28E2:
 BYTE   N12  Gn0  v100
 BYTE   W12
 BYTE   Gn1
 BYTE   W12
 BYTE   Gn0
 BYTE   W12
 BYTE   Fn1
 BYTE   W12
 BYTE   Gn0
 BYTE   W12
 BYTE   Gn1
 BYTE   W12
 BYTE   Fn1
 BYTE   W11
 BYTE   Gn1
 BYTE   W13
 BYTE   PEND 
// 013   ----------------------------------------
Label_5_014A28F5:
 BYTE   W01
 BYTE   N12  Fn0  v100
 BYTE   W12
 BYTE   N12
 BYTE   W11
 BYTE   Fn1
 BYTE   W12
 BYTE   Fn0
 BYTE   W13
 BYTE   N12
 BYTE   W12
 BYTE   N12
 BYTE   W11
 BYTE   Fn1
 BYTE   W12
 BYTE   Fn0
 BYTE   W12
 BYTE   PEND 
// 014   ----------------------------------------
Label_5_014A2909:
 BYTE   W01
 BYTE   N12  Fn0  v100
 BYTE   W12
 BYTE   N12
 BYTE   W11
 BYTE   Fn1
 BYTE   W12
 BYTE   Fn0
 BYTE   W13
 BYTE   N12
 BYTE   W11
 BYTE   Fn1
 BYTE   W12
 BYTE   Fn0
 BYTE   W11
 BYTE   Fn1
 BYTE   W13
 BYTE   PEND 
// 015   ----------------------------------------
Label_5_014A291D:
 BYTE   W01
 BYTE   N12  Gn0  v100
 BYTE   W12
 BYTE   N12
 BYTE   W11
 BYTE   Gn1
 BYTE   W12
 BYTE   Gn0
 BYTE   W13
 BYTE   N12
 BYTE   W12
 BYTE   N12
 BYTE   W11
 BYTE   Gn1
 BYTE   W12
 BYTE   Gn0
 BYTE   W12
 BYTE   PEND 
// 016   ----------------------------------------
Label_5_014A2931:
 BYTE   W01
 BYTE   N12  Gn0  v100
 BYTE   W12
 BYTE   N12
 BYTE   W11
 BYTE   Gn1
 BYTE   W12
 BYTE   Gn0
 BYTE   W13
 BYTE   N12
 BYTE   W11
 BYTE   Gn1
 BYTE   W12
 BYTE   Gn0
 BYTE   W11
 BYTE   Gn1
 BYTE   W13
 BYTE   PEND 
// 017   ----------------------------------------
Label_5_014A2945:
 BYTE   W01
 BYTE   N12  Dn1  v100
 BYTE   W13
 BYTE   N12
 BYTE   W11
 BYTE   Dn2
 BYTE   W12
 BYTE   Dn1
 BYTE   W12
 BYTE   N12
 BYTE   W13
 BYTE   N12
 BYTE   W11
 BYTE   Dn2
 BYTE   W12
 BYTE   Dn1
 BYTE   W11
 BYTE   PEND 
// 018   ----------------------------------------
Label_5_014A2959:
 BYTE   W01
 BYTE   N12  Dn1  v100
 BYTE   W13
 BYTE   N12
 BYTE   W11
 BYTE   Dn2
 BYTE   W12
 BYTE   Dn1
 BYTE   W12
 BYTE   N12
 BYTE   W11
 BYTE   Dn2
 BYTE   W13
 BYTE   Dn1
 BYTE   W11
 BYTE   Dn2
 BYTE   W12
 BYTE   PEND 
// 019   ----------------------------------------
Label_5_014A296D:
 BYTE   W01
 BYTE   N12  Cn1  v100
 BYTE   W13
 BYTE   N12
 BYTE   W11
 BYTE   Cn2
 BYTE   W12
 BYTE   Cn1
 BYTE   W12
 BYTE   N12
 BYTE   W13
 BYTE   N12
 BYTE   W11
 BYTE   Cn2
 BYTE   W12
 BYTE   Cn1
 BYTE   W11
 BYTE   PEND 
// 020   ----------------------------------------
Label_5_014A2981:
 BYTE   W01
 BYTE   N12  Gn0  v100
 BYTE   W13
 BYTE   N12
 BYTE   W11
 BYTE   Gn1
 BYTE   W12
 BYTE   Gn0
 BYTE   W12
 BYTE   N12
 BYTE   W11
 BYTE   Gn1
 BYTE   W13
 BYTE   Gn0
 BYTE   W11
 BYTE   Gn1
 BYTE   W12
 BYTE   PEND 
 BYTE   PATT
  POIN2 Label_5_014A28F5
 BYTE   PATT
  POIN2 Label_5_014A2909
 BYTE   PATT
  POIN2 Label_5_014A291D
 BYTE   PATT
  POIN2 Label_5_014A2931
 BYTE   PATT
  POIN2 Label_5_014A2945
 BYTE   PATT
  POIN2 Label_5_014A2959
 BYTE   PATT
  POIN2 Label_5_014A296D
 BYTE   PATT
  POIN2 Label_5_014A2981
 BYTE   PATT
  POIN2 Label_5_014A2886
 BYTE   PATT
  POIN2 Label_5_014A27FA
 BYTE   PATT
  POIN2 Label_5_014A280E
 BYTE   PATT
  POIN2 Label_5_014A2823
// 021   ----------------------------------------
 BYTE   W12
 BYTE   N12  En1  v100
 BYTE   W12
 BYTE   En2
 BYTE   W12
 BYTE   En1
 BYTE   W13
 BYTE   N12
 BYTE   W12
 BYTE   N12
 BYTE   W11
 BYTE   En2
 BYTE   W12
 BYTE   En1
 BYTE   W12
 BYTE   PATT
  POIN2 Label_5_014A284A
// 022   ----------------------------------------
Label_5_014A29E7:
 BYTE   N12  Fn0  v100
 BYTE   W12
 BYTE   N12
 BYTE   W13
 BYTE   Fn1
 BYTE   W12
 BYTE   Fn0
 BYTE   W12
 BYTE   N12
 BYTE   W13
 BYTE   N12
 BYTE   W11
 BYTE   Fn1
 BYTE   W11
 BYTE   Fn0
 BYTE   W12
 BYTE   PEND 
// 023   ----------------------------------------
Label_5_014A29FA:
 BYTE   N12  Gn0  v100
 BYTE   W13
 BYTE   Gn1
 BYTE   W12
 BYTE   Gn0
 BYTE   W11
 BYTE   Fn1
 BYTE   W12
 BYTE   Gn0
 BYTE   W13
 BYTE   Gn1
 BYTE   W12
 BYTE   Fn1
 BYTE   W11
 BYTE   Gn1
 BYTE   W12
 BYTE   PEND 
// 024   ----------------------------------------
Label_5_014A2A0D:
 BYTE   W12
 BYTE   N12  An0  v100
 BYTE   W12
 BYTE   An1
 BYTE   W12
 BYTE   An0
 BYTE   W13
 BYTE   N12
 BYTE   W12
 BYTE   N12
 BYTE   W11
 BYTE   An1
 BYTE   W12
 BYTE   N11  An0
 BYTE   W12
 BYTE   PEND 
// 025   ----------------------------------------
Label_5_014A2A20:
 BYTE   N12  An0  v100
 BYTE   W12
 BYTE   An1
 BYTE   W12
 BYTE   An0
 BYTE   W12
 BYTE   An1
 BYTE   W12
 BYTE   An0
 BYTE   W12
 BYTE   An1
 BYTE   W12
 BYTE   An0
 BYTE   W12
 BYTE   An1
 BYTE   W12
 BYTE   PEND 
// 026   ----------------------------------------
Label_5_014A2A33:
 BYTE   W12
 BYTE   N12  An0  v100
 BYTE   W12
 BYTE   An1
 BYTE   W12
 BYTE   An0
 BYTE   W13
 BYTE   N12
 BYTE   W12
 BYTE   N12
 BYTE   W11
 BYTE   An1
 BYTE   W12
 BYTE   An0
 BYTE   W12
 BYTE   PEND 
// 027   ----------------------------------------
Label_5_014A2A45:
 BYTE   N12  Gn0  v100
 BYTE   W12
 BYTE   Gn1
 BYTE   W12
 BYTE   Gn0
 BYTE   W11
 BYTE   Gn1
 BYTE   W13
 BYTE   Gn0
 BYTE   W12
 BYTE   Gn1
 BYTE   W12
 BYTE   Fn1
 BYTE   W11
 BYTE   Gn1
 BYTE   W13
 BYTE   PEND 
 BYTE   PATT
  POIN2 Label_5_014A2A0D
 BYTE   PATT
  POIN2 Label_5_014A2A20
// 028   ----------------------------------------
Label_5_014A2A62:
 BYTE   W11
 BYTE   N12  Fn0  v100
 BYTE   W13
 BYTE   Fn1
 BYTE   W12
 BYTE   Fn0
 BYTE   W12
 BYTE   N12
 BYTE   W13
 BYTE   N12
 BYTE   W10
 BYTE   Fn1
 BYTE   W13
 BYTE   Fn0
 BYTE   W12
 BYTE   PEND 
// 029   ----------------------------------------
Label_5_014A2A74:
 BYTE   N12  Gn0  v100
 BYTE   W12
 BYTE   Gn1
 BYTE   W12
 BYTE   Gn0
 BYTE   W11
 BYTE   Gn1
 BYTE   W13
 BYTE   Gn0
 BYTE   W12
 BYTE   Gn1
 BYTE   W12
 BYTE   Gn0
 BYTE   W11
 BYTE   Gn1
 BYTE   W13
 BYTE   PEND 
// 030   ----------------------------------------
Label_5_014A2A87:
 BYTE   N11  An0  v100
 BYTE   W12
 BYTE   N12
 BYTE   W12
 BYTE   An1
 BYTE   W12
 BYTE   An0
 BYTE   W13
 BYTE   N12
 BYTE   W12
 BYTE   N12
 BYTE   W11
 BYTE   An1
 BYTE   W12
 BYTE   N11  An0
 BYTE   W12
 BYTE   PEND 
 BYTE   PATT
  POIN2 Label_5_014A2A20
 BYTE   PATT
  POIN2 Label_5_014A2A33
 BYTE   PATT
  POIN2 Label_5_014A2A45
 BYTE   PATT
  POIN2 Label_5_014A2A87
 BYTE   PATT
  POIN2 Label_5_014A2A20
// 031   ----------------------------------------
Label_5_014A2AB4:
 BYTE   N11  Fn0  v100
 BYTE   W11
 BYTE   N12
 BYTE   W13
 BYTE   Fn1
 BYTE   W12
 BYTE   Fn0
 BYTE   W12
 BYTE   N12
 BYTE   W13
 BYTE   N12
 BYTE   W10
 BYTE   Fn1
 BYTE   W13
 BYTE   Fn0
 BYTE   W12
 BYTE   PEND 
 BYTE   PATT
  POIN2 Label_5_014A2A74
// 032   ----------------------------------------
Label_5_014A2ACC:
 BYTE   N12  Cn1  v100
 BYTE   W12
 BYTE   N12
 BYTE   W12
 BYTE   Cn2
 BYTE   W12
 BYTE   Cn1
 BYTE   W12
 BYTE   N12
 BYTE   W12
 BYTE   N12
 BYTE   W12
 BYTE   Cn2
 BYTE   W12
 BYTE   N11  Cn1
 BYTE   W12
 BYTE   PEND 
// 033   ----------------------------------------
Label_5_014A2AE0:
 BYTE   N12  Cn1  v100
 BYTE   W12
 BYTE   N12
 BYTE   W12
 BYTE   Cn2
 BYTE   W11
 BYTE   Cn1
 BYTE   W13
 BYTE   N12
 BYTE   W12
 BYTE   N12
 BYTE   W11
 BYTE   Cn2
 BYTE   W13
 BYTE   Cn1
 BYTE   W12
 BYTE   PEND 
// 034   ----------------------------------------
Label_5_014A2AF3:
 BYTE   W01
 BYTE   N12  Cn1  v100
 BYTE   W12
 BYTE   N12
 BYTE   W12
 BYTE   Cn2
 BYTE   W11
 BYTE   Cn1
 BYTE   W13
 BYTE   N12
 BYTE   W12
 BYTE   N12
 BYTE   W11
 BYTE   Cn2
 BYTE   W13
 BYTE   N11  Cn1
 BYTE   W11
 BYTE   PEND 
// 035   ----------------------------------------
Label_5_014A2B08:
 BYTE   N12  Cn1  v100
 BYTE   W12
 BYTE   N12
 BYTE   W12
 BYTE   Cn2
 BYTE   W12
 BYTE   Cn1
 BYTE   W12
 BYTE   N12
 BYTE   W12
 BYTE   Cn2
 BYTE   W12
 BYTE   Cn1
 BYTE   W12
 BYTE   N11
 BYTE   W12
 BYTE   PEND 
 BYTE   PATT
  POIN2 Label_5_014A2ACC
 BYTE   PATT
  POIN2 Label_5_014A2AE0
 BYTE   PATT
  POIN2 Label_5_014A2AF3
 BYTE   PATT
  POIN2 Label_5_014A2B08
 BYTE   PATT
  POIN2 Label_5_014A2ACC
 BYTE   PATT
  POIN2 Label_5_014A2AE0
 BYTE   PATT
  POIN2 Label_5_014A2AF3
 BYTE   PATT
  POIN2 Label_5_014A2B08
 BYTE   PATT
  POIN2 Label_5_014A2ACC
 BYTE   PATT
  POIN2 Label_5_014A2AE0
 BYTE   PATT
  POIN2 Label_5_014A2AF3
// 036   ----------------------------------------
 BYTE   N12  Cn1  v100
 BYTE   W12
 BYTE   N12
 BYTE   W12
 BYTE   Cn2
 BYTE   W12
 BYTE   Cn1
 BYTE   W12
 BYTE   N12
 BYTE   W12
 BYTE   Cn2
 BYTE   W12
 BYTE   Cn1
 BYTE   W12
 BYTE   N12
 BYTE   W12
// 037   ----------------------------------------
 BYTE   Fn1
 BYTE   W12
 BYTE   Fn0
 BYTE   W13
 BYTE   N12
 BYTE   W11
 BYTE   Fn1
 BYTE   W12
 BYTE   Fn0
 BYTE   W12
 BYTE   N12
 BYTE   W12
 BYTE   Fn1
 BYTE   W12
 BYTE   Fn0
 BYTE   W12
// 038   ----------------------------------------
 BYTE   Fn1
 BYTE   W12
 BYTE   Fn0
 BYTE   W12
 BYTE   N12
 BYTE   W12
 BYTE   Fn1
 BYTE   W12
 BYTE   Fn0
 BYTE   W12
 BYTE   N12
 BYTE   W12
 BYTE   Fn1
 BYTE   W12
 BYTE   Fn0
 BYTE   W11
 BYTE   Gn1
 BYTE   W01
// 039   ----------------------------------------
 BYTE   W11
 BYTE   Gn0
 BYTE   W13
 BYTE   N12
 BYTE   W11
 BYTE   Gn1
 BYTE   W12
 BYTE   Gn0
 BYTE   W12
 BYTE   N12
 BYTE   W12
 BYTE   Gn1
 BYTE   W12
 BYTE   Gn0
 BYTE   W13
// 040   ----------------------------------------
 BYTE   Gn1
 BYTE   W12
 BYTE   Gn0
 BYTE   W12
 BYTE   N12
 BYTE   W12
 BYTE   Gn1
 BYTE   W12
 BYTE   Gn0
 BYTE   W12
 BYTE   N12
 BYTE   W12
 BYTE   Gn1
 BYTE   W12
 BYTE   N12
 BYTE   W12
// 041   ----------------------------------------
 BYTE   Dn1
 BYTE   W12
 BYTE   Dn0
 BYTE   W12
 BYTE   N12
 BYTE   W12
 BYTE   Dn1
 BYTE   W12
 BYTE   Dn0
 BYTE   W12
 BYTE   N12
 BYTE   W12
 BYTE   Dn1
 BYTE   W11
 BYTE   Dn0
 BYTE   W13
// 042   ----------------------------------------
 BYTE   Dn1
 BYTE   W12
 BYTE   Dn0
 BYTE   W12
 BYTE   N12
 BYTE   W12
 BYTE   Dn1
 BYTE   W12
 BYTE   Dn0
 BYTE   W12
 BYTE   N12
 BYTE   W12
 BYTE   Dn1
 BYTE   W12
 BYTE   Dn0
 BYTE   W12
// 043   ----------------------------------------
Label_5_014A2BC5:
 BYTE   W01
 BYTE   N12  Cn1  v100
 BYTE   W12
 BYTE   N12
 BYTE   W11
 BYTE   Cn2
 BYTE   W12
 BYTE   Cn1
 BYTE   W13
 BYTE   N12
 BYTE   W12
 BYTE   N12
 BYTE   W11
 BYTE   Cn2
 BYTE   W12
 BYTE   Cn1
 BYTE   W12
 BYTE   PEND 
 BYTE   PATT
  POIN2 Label_5_014A2931
// 044   ----------------------------------------
Label_5_014A2BDE:
 BYTE   N12  Fn0  v100
 BYTE   W13
 BYTE   N12
 BYTE   W11
 BYTE   Fn1
 BYTE   W12
 BYTE   Fn0
 BYTE   W12
 BYTE   N12
 BYTE   W13
 BYTE   N12
 BYTE   W11
 BYTE   Fn1
 BYTE   W12
 BYTE   Fn0
 BYTE   W12
 BYTE   PEND 
// 045   ----------------------------------------
Label_5_014A2BF1:
 BYTE   N12  Fn0  v100
 BYTE   W13
 BYTE   N12
 BYTE   W11
 BYTE   Fn1
 BYTE   W12
 BYTE   Fn0
 BYTE   W12
 BYTE   N12
 BYTE   W11
 BYTE   Fn1
 BYTE   W13
 BYTE   Fn0
 BYTE   W11
 BYTE   Fn1
 BYTE   W13
 BYTE   PEND 
// 046   ----------------------------------------
Label_5_014A2C04:
 BYTE   N12  Gn0  v100
 BYTE   W13
 BYTE   N12
 BYTE   W11
 BYTE   Gn1
 BYTE   W12
 BYTE   Gn0
 BYTE   W12
 BYTE   N12
 BYTE   W13
 BYTE   N12
 BYTE   W11
 BYTE   Gn1
 BYTE   W12
 BYTE   Gn0
 BYTE   W12
 BYTE   PEND 
// 047   ----------------------------------------
Label_5_014A2C17:
 BYTE   N12  Gn0  v100
 BYTE   W13
 BYTE   N12
 BYTE   W11
 BYTE   Gn1
 BYTE   W12
 BYTE   Gn0
 BYTE   W12
 BYTE   N12
 BYTE   W11
 BYTE   Gn1
 BYTE   W13
 BYTE   Gn0
 BYTE   W11
 BYTE   Gn1
 BYTE   W13
 BYTE   PEND 
// 048   ----------------------------------------
Label_5_014A2C2A:
 BYTE   W01
 BYTE   N12  Dn1  v100
 BYTE   W12
 BYTE   N12
 BYTE   W11
 BYTE   Dn2
 BYTE   W12
 BYTE   Dn1
 BYTE   W13
 BYTE   N12
 BYTE   W12
 BYTE   N12
 BYTE   W11
 BYTE   Dn2
 BYTE   W12
 BYTE   Dn1
 BYTE   W12
 BYTE   PEND 
// 049   ----------------------------------------
Label_5_014A2C3E:
 BYTE   W01
 BYTE   N12  Dn1  v100
 BYTE   W12
 BYTE   N12
 BYTE   W11
 BYTE   Dn2
 BYTE   W12
 BYTE   Dn1
 BYTE   W13
 BYTE   N12
 BYTE   W11
 BYTE   Dn2
 BYTE   W12
 BYTE   Dn1
 BYTE   W11
 BYTE   Dn2
 BYTE   W13
 BYTE   PEND 
 BYTE   PATT
  POIN2 Label_5_014A2BC5
 BYTE   PATT
  POIN2 Label_5_014A2931
// 050   ----------------------------------------
 BYTE   N12  An0  v100
 BYTE   W12
 BYTE   N12
 BYTE   W12
 BYTE   An1
 BYTE   W12
 BYTE   An0
 BYTE   W12
 BYTE   N12
 BYTE   W12
 BYTE   N12
 BYTE   W12
 BYTE   An1
 BYTE   W12
 BYTE   An0
 BYTE   W12
// 051   ----------------------------------------
Label_5_014A2C6E:
 BYTE   N12  An0  v100
 BYTE   W12
 BYTE   N12
 BYTE   W12
 BYTE   An1
 BYTE   W12
 BYTE   An0
 BYTE   W12
 BYTE   Gn1
 BYTE   W12
 BYTE   An0
 BYTE   W12
 BYTE   An1
 BYTE   W12
 BYTE   An0
 BYTE   W12
 BYTE   PEND 
// 052   ----------------------------------------
Label_5_014A2C81:
 BYTE   W01
 BYTE   N11  An0  v100
 BYTE   W11
 BYTE   N12
 BYTE   W12
 BYTE   An1
 BYTE   W12
 BYTE   An0
 BYTE   W12
 BYTE   N12
 BYTE   W12
 BYTE   N12
 BYTE   W12
 BYTE   An1
 BYTE   W12
 BYTE   An0
 BYTE   W12
 BYTE   PEND 
// 053   ----------------------------------------
Label_5_014A2C95:
 BYTE   N12  An0  v100
 BYTE   W12
 BYTE   N12
 BYTE   W12
 BYTE   An1
 BYTE   W12
 BYTE   An0
 BYTE   W13
 BYTE   N12
 BYTE   W11
 BYTE   Gn1
 BYTE   W12
 BYTE   An0
 BYTE   W12
 BYTE   An1
 BYTE   W12
 BYTE   PEND 
// 054   ----------------------------------------
Label_5_014A2CA8:
 BYTE   W11
 BYTE   N12  An0  v100
 BYTE   W13
 BYTE   An1
 BYTE   W11
 BYTE   An0
 BYTE   W13
 BYTE   N12
 BYTE   W12
 BYTE   N12
 BYTE   W12
 BYTE   An1
 BYTE   W11
 BYTE   An0
 BYTE   W13
 BYTE   PEND 
// 055   ----------------------------------------
Label_5_014A2CBA:
 BYTE   N12  An0  v100
 BYTE   W12
 BYTE   N12
 BYTE   W12
 BYTE   An1
 BYTE   W12
 BYTE   An0
 BYTE   W11
 BYTE   Gn1
 BYTE   W12
 BYTE   An0
 BYTE   W13
 BYTE   An1
 BYTE   W12
 BYTE   An0
 BYTE   W12
 BYTE   PEND 
// 056   ----------------------------------------
Label_5_014A2CCD:
 BYTE   N11  An0  v100
 BYTE   W11
 BYTE   N12
 BYTE   W13
 BYTE   An1
 BYTE   W11
 BYTE   An0
 BYTE   W13
 BYTE   N12
 BYTE   W12
 BYTE   N12
 BYTE   W12
 BYTE   An1
 BYTE   W11
 BYTE   An0
 BYTE   W13
 BYTE   PEND 
// 057   ----------------------------------------
Label_5_014A2CE0:
 BYTE   N12  An0  v100
 BYTE   W12
 BYTE   N12
 BYTE   W12
 BYTE   An1
 BYTE   W12
 BYTE   An0
 BYTE   W12
 BYTE   N12
 BYTE   W12
 BYTE   Gn1
 BYTE   W12
 BYTE   An0
 BYTE   W11
 BYTE   An1
 BYTE   W13
 BYTE   PEND 
 BYTE   PATT
  POIN2 Label_5_014A2CA8
 BYTE   PATT
  POIN2 Label_5_014A2CBA
 BYTE   PATT
  POIN2 Label_5_014A2CCD
 BYTE   PATT
  POIN2 Label_5_014A2CE0
 BYTE   PATT
  POIN2 Label_5_014A2CA8
 BYTE   PATT
  POIN2 Label_5_014A2CBA
 BYTE   PATT
  POIN2 Label_5_014A2CCD
 BYTE   PATT
  POIN2 Label_5_014A2CE0
 BYTE   PATT
  POIN2 Label_5_014A2886
 BYTE   PATT
  POIN2 Label_5_014A27FA
 BYTE   PATT
  POIN2 Label_5_014A280E
 BYTE   PATT
  POIN2 Label_5_014A2823
 BYTE   PATT
  POIN2 Label_5_014A2886
 BYTE   PATT
  POIN2 Label_5_014A27FA
 BYTE   PATT
  POIN2 Label_5_014A280E
 BYTE   PATT
  POIN2 Label_5_014A2823
 BYTE   PATT
  POIN2 Label_5_014A2837
 BYTE   PATT
  POIN2 Label_5_014A284A
 BYTE   PATT
  POIN2 Label_5_014A285E
 BYTE   PATT
  POIN2 Label_5_014A2872
 BYTE   PATT
  POIN2 Label_5_014A2837
 BYTE   PATT
  POIN2 Label_5_014A284A
 BYTE   PATT
  POIN2 Label_5_014A29E7
 BYTE   PATT
  POIN2 Label_5_014A29FA
 BYTE   PATT
  POIN2 Label_5_014A28F5
 BYTE   PATT
  POIN2 Label_5_014A2909
 BYTE   PATT
  POIN2 Label_5_014A291D
 BYTE   PATT
  POIN2 Label_5_014A2931
 BYTE   PATT
  POIN2 Label_5_014A2945
 BYTE   PATT
  POIN2 Label_5_014A2959
 BYTE   PATT
  POIN2 Label_5_014A296D
 BYTE   PATT
  POIN2 Label_5_014A2981
 BYTE   PATT
  POIN2 Label_5_014A2BDE
 BYTE   PATT
  POIN2 Label_5_014A2BF1
 BYTE   PATT
  POIN2 Label_5_014A2C04
 BYTE   PATT
  POIN2 Label_5_014A2C17
 BYTE   PATT
  POIN2 Label_5_014A2C2A
 BYTE   PATT
  POIN2 Label_5_014A2C3E
 BYTE   PATT
  POIN2 Label_5_014A2BC5
 BYTE   PATT
  POIN2 Label_5_014A2931
 BYTE   PATT
  POIN2 Label_5_014A2886
 BYTE   PATT
  POIN2 Label_5_014A27FA
 BYTE   PATT
  POIN2 Label_5_014A280E
 BYTE   PATT
  POIN2 Label_5_014A2823
 BYTE   PATT
  POIN2 Label_5_014A28A8
 BYTE   PATT
  POIN2 Label_5_014A28BC
 BYTE   PATT
  POIN2 Label_5_014A28CF
 BYTE   PATT
  POIN2 Label_5_014A28E2
// 058   ----------------------------------------
 BYTE   N12  An0  v100
 BYTE   W12
 BYTE   N12
 BYTE   W12
 BYTE   An1
 BYTE   W12
 BYTE   An0
 BYTE   W13
 BYTE   N12
 BYTE   W12
 BYTE   N12
 BYTE   W11
 BYTE   An1
 BYTE   W12
 BYTE   N11  An0
 BYTE   W12
 BYTE   PATT
  POIN2 Label_5_014A2A20
 BYTE   PATT
  POIN2 Label_5_014A2A33
 BYTE   PATT
  POIN2 Label_5_014A2A45
 BYTE   PATT
  POIN2 Label_5_014A2A0D
 BYTE   PATT
  POIN2 Label_5_014A2A20
 BYTE   PATT
  POIN2 Label_5_014A2A62
 BYTE   PATT
  POIN2 Label_5_014A2A74
 BYTE   PATT
  POIN2 Label_5_014A2A0D
 BYTE   PATT
  POIN2 Label_5_014A2A20
 BYTE   PATT
  POIN2 Label_5_014A2A33
// 059   ----------------------------------------
 BYTE   N12  Gn0  v100
 BYTE   W11
 BYTE   Gn1
 BYTE   W12
 BYTE   Gn0
 BYTE   W12
 BYTE   Gn1
 BYTE   W12
 BYTE   Gn0
 BYTE   W12
 BYTE   Gn1
 BYTE   W12
 BYTE   Fn1
 BYTE   W12
 BYTE   Gn1
 BYTE   W13
 BYTE   PATT
  POIN2 Label_5_014A2A87
 BYTE   PATT
  POIN2 Label_5_014A2A20
 BYTE   PATT
  POIN2 Label_5_014A2AB4
 BYTE   PATT
  POIN2 Label_5_014A2A74
 BYTE   PATT
  POIN2 Label_5_014A2AF3
// 060   ----------------------------------------
Label_5_014A2E53:
 BYTE   N12  Cn1  v100
 BYTE   W12
 BYTE   N12
 BYTE   W12
 BYTE   Cn2
 BYTE   W12
 BYTE   Cn1
 BYTE   W12
 BYTE   N12
 BYTE   W12
 BYTE   N12
 BYTE   W12
 BYTE   Cn2
 BYTE   W12
 BYTE   Cn1
 BYTE   W12
 BYTE   PEND 
// 061   ----------------------------------------
Label_5_014A2E66:
 BYTE   W01
 BYTE   N12  Cn1  v100
 BYTE   W13
 BYTE   N12
 BYTE   W11
 BYTE   Cn2
 BYTE   W12
 BYTE   Cn1
 BYTE   W12
 BYTE   N12
 BYTE   W13
 BYTE   N12
 BYTE   W11
 BYTE   Cn2
 BYTE   W13
 BYTE   N11  Cn1
 BYTE   W10
 BYTE   PEND 
// 062   ----------------------------------------
Label_5_014A2E7B:
 BYTE   W01
 BYTE   N12  Cn1  v100
 BYTE   W12
 BYTE   N12
 BYTE   W12
 BYTE   Cn2
 BYTE   W11
 BYTE   Cn1
 BYTE   W13
 BYTE   N12
 BYTE   W12
 BYTE   Cn2
 BYTE   W11
 BYTE   Cn1
 BYTE   W13
 BYTE   N11
 BYTE   W11
 BYTE   PEND 
 BYTE   PATT
  POIN2 Label_5_014A2AF3
 BYTE   PATT
  POIN2 Label_5_014A2E53
 BYTE   PATT
  POIN2 Label_5_014A2E66
 BYTE   PATT
  POIN2 Label_5_014A2E7B
 BYTE   PATT
  POIN2 Label_5_014A2AF3
 BYTE   PATT
  POIN2 Label_5_014A2E53
 BYTE   PATT
  POIN2 Label_5_014A2E66
 BYTE   PATT
  POIN2 Label_5_014A2E7B
 BYTE   PATT
  POIN2 Label_5_014A2AF3
 BYTE   PATT
  POIN2 Label_5_014A2E53
 BYTE   PATT
  POIN2 Label_5_014A2E66
// 063   ----------------------------------------
 BYTE   W01
 BYTE   N12  Cn1  v100
 BYTE   W12
 BYTE   N12
 BYTE   W12
 BYTE   Cn2
 BYTE   W11
 BYTE   Cn1
 BYTE   W13
 BYTE   N12
 BYTE   W12
 BYTE   Cn2
 BYTE   W11
 BYTE   Cn1
 BYTE   W13
 BYTE   N12
 BYTE   W11
// 064   ----------------------------------------
 BYTE   W01
 BYTE   Fn1
 BYTE   W12
 BYTE   Fn0
 BYTE   W12
 BYTE   N12
 BYTE   W12
 BYTE   Fn1
 BYTE   W12
 BYTE   Fn0
 BYTE   W12
 BYTE   N12
 BYTE   W12
 BYTE   Fn1
 BYTE   W12
 BYTE   Fn0
 BYTE   W11
// 065   ----------------------------------------
 BYTE   Fn1
 BYTE   W12
 BYTE   Fn0
 BYTE   W13
 BYTE   N12
 BYTE   W11
 BYTE   Fn1
 BYTE   W12
 BYTE   Fn0
 BYTE   W12
 BYTE   N12
 BYTE   W12
 BYTE   Fn1
 BYTE   W12
 BYTE   Fn0
 BYTE   W11
 BYTE   Gn1
 BYTE   W01
// 066   ----------------------------------------
 BYTE   W12
 BYTE   Gn0
 BYTE   W12
 BYTE   N12
 BYTE   W12
 BYTE   Gn1
 BYTE   W11
 BYTE   Gn0
 BYTE   W13
 BYTE   N12
 BYTE   W11
 BYTE   Gn1
 BYTE   W13
 BYTE   Gn0
 BYTE   W12
// 067   ----------------------------------------
 BYTE   Gn1
 BYTE   W12
 BYTE   Gn0
 BYTE   W13
 BYTE   N12
 BYTE   W11
 BYTE   Gn1
 BYTE   W12
 BYTE   Gn0
 BYTE   W12
 BYTE   N12
 BYTE   W12
 BYTE   Gn1
 BYTE   W12
 BYTE   N12
 BYTE   W12
// 068   ----------------------------------------
Label_5_014A2F1B:
 BYTE   N12  Dn1  v100
 BYTE   W12
 BYTE   Dn0
 BYTE   W13
 BYTE   N12
 BYTE   W11
 BYTE   Dn1
 BYTE   W12
 BYTE   Dn0
 BYTE   W12
 BYTE   N12
 BYTE   W12
 BYTE   Dn1
 BYTE   W12
 BYTE   Dn0
 BYTE   W12
 BYTE   PEND 
 BYTE   PATT
  POIN2 Label_5_014A2F1B
 BYTE   PATT
  POIN2 Label_5_014A296D
 BYTE   PATT
  POIN2 Label_5_014A2981
 BYTE   PATT
  POIN2 Label_5_014A28F5
 BYTE   PATT
  POIN2 Label_5_014A2909
 BYTE   PATT
  POIN2 Label_5_014A291D
 BYTE   PATT
  POIN2 Label_5_014A2931
 BYTE   PATT
  POIN2 Label_5_014A2945
 BYTE   PATT
  POIN2 Label_5_014A2959
 BYTE   PATT
  POIN2 Label_5_014A296D
 BYTE   PATT
  POIN2 Label_5_014A2981
// 069   ----------------------------------------
 BYTE   N12  An0  v100
 BYTE   W12
 BYTE   N12
 BYTE   W13
 BYTE   An1
 BYTE   W11
 BYTE   An0
 BYTE   W13
 BYTE   N12
 BYTE   W12
 BYTE   N12
 BYTE   W12
 BYTE   An1
 BYTE   W11
 BYTE   An0
 BYTE   W12
// 070   ----------------------------------------
 BYTE   W01
 BYTE   N12
 BYTE   W12
 BYTE   N12
 BYTE   W12
 BYTE   An1
 BYTE   W12
 BYTE   An0
 BYTE   W11
 BYTE   Gn1
 BYTE   W12
 BYTE   An0
 BYTE   W13
 BYTE   An1
 BYTE   W12
 BYTE   An0
 BYTE   W11
// 071   ----------------------------------------
 BYTE   W01
 BYTE   N11
 BYTE   W11
 BYTE   N12
 BYTE   W13
 BYTE   An1
 BYTE   W11
 BYTE   An0
 BYTE   W13
 BYTE   N12
 BYTE   W12
 BYTE   N12
 BYTE   W12
 BYTE   An1
 BYTE   W11
 BYTE   An0
 BYTE   W12
// 072   ----------------------------------------
 BYTE   W01
 BYTE   N12
 BYTE   W12
 BYTE   N12
 BYTE   W12
 BYTE   An1
 BYTE   W12
 BYTE   An0
 BYTE   W12
 BYTE   N12
 BYTE   W12
 BYTE   Gn1
 BYTE   W12
 BYTE   An0
 BYTE   W11
 BYTE   An1
 BYTE   W12
// 073   ----------------------------------------
Label_5_014A2FAA:
 BYTE   W12
 BYTE   N12  An0  v100
 BYTE   W12
 BYTE   An1
 BYTE   W12
 BYTE   An0
 BYTE   W12
 BYTE   N12
 BYTE   W12
 BYTE   N12
 BYTE   W12
 BYTE   An1
 BYTE   W12
 BYTE   An0
 BYTE   W12
 BYTE   PEND 
 BYTE   PATT
  POIN2 Label_5_014A2C6E
 BYTE   PATT
  POIN2 Label_5_014A2C81
 BYTE   PATT
  POIN2 Label_5_014A2C95
 BYTE   PATT
  POIN2 Label_5_014A2FAA
 BYTE   PATT
  POIN2 Label_5_014A2C6E
 BYTE   PATT
  POIN2 Label_5_014A2C81
 BYTE   PATT
  POIN2 Label_5_014A2C95
 BYTE   PATT
  POIN2 Label_5_014A2FAA
 BYTE   PATT
  POIN2 Label_5_014A2C6E
 BYTE   PATT
  POIN2 Label_5_014A2C81
 BYTE   PATT
  POIN2 Label_5_014A2C95
 BYTE   FINE

//**************** Track 7 (Midi-Chn.6) ****************//

MarioTennisRound2Pandan_007:
// 000   ----------------------------------------
 BYTE   KEYSH   MarioTennisRound2Pandan_key+0
 BYTE   VOICE   2
 BYTE   VOL   32*MarioTennisRound2Pandan_mvl/mxv
 BYTE   PAN   c_v+0
 BYTE   W96
// 001   ----------------------------------------
 BYTE   W96
// 002   ----------------------------------------
 BYTE   W96
// 003   ----------------------------------------
 BYTE   W96
// 004   ----------------------------------------
 BYTE   W96
// 005   ----------------------------------------
 BYTE   W96
// 006   ----------------------------------------
 BYTE   W96
// 007   ----------------------------------------
 BYTE   W96
// 008   ----------------------------------------
 BYTE   N06  Gn3  v100
 BYTE   W07
 BYTE   En3
 BYTE   W05
 BYTE   Gn3
 BYTE   W07
 BYTE   Bn3
 BYTE   W05
 BYTE   Dn4
 BYTE   W07
 BYTE   Bn3
 BYTE   W06
 BYTE   Gn3
 BYTE   W07
 BYTE   En3
 BYTE   W04
 BYTE   Gn3
 BYTE   W09
 BYTE   En3
 BYTE   W05
 BYTE   Gn3
 BYTE   W05
 BYTE   Bn3
 BYTE   W05
 BYTE   Dn4
 BYTE   W07
 BYTE   Bn3
 BYTE   W07
 BYTE   En3
 BYTE   W04
 BYTE   Bn3
 BYTE   W06
// 009   ----------------------------------------
 BYTE   An3
 BYTE   W07
 BYTE   En3
 BYTE   W05
 BYTE   An3
 BYTE   W07
 BYTE   Cs4
 BYTE   W05
 BYTE   En4
 BYTE   W07
 BYTE   Cs4
 BYTE   W06
 BYTE   An3
 BYTE   W07
 BYTE   En3
 BYTE   W04
 BYTE   An3
 BYTE   W09
 BYTE   En3
 BYTE   W05
 BYTE   An3
 BYTE   W05
 BYTE   Cs4
 BYTE   W05
 BYTE   En4
 BYTE   W07
 BYTE   Cs4
 BYTE   W07
 BYTE   An3
 BYTE   W04
 BYTE   Cs4
 BYTE   W06
// 010   ----------------------------------------
 BYTE   Gn3
 BYTE   W07
 BYTE   En3
 BYTE   W05
 BYTE   Gn3
 BYTE   W07
 BYTE   Cn4
 BYTE   W05
 BYTE   En4
 BYTE   W07
 BYTE   Cn4
 BYTE   W06
 BYTE   Gn3
 BYTE   W07
 BYTE   Cn4
 BYTE   W04
 BYTE   Gn3
 BYTE   W09
 BYTE   En3
 BYTE   W05
 BYTE   Gn3
 BYTE   W05
 BYTE   Cn4
 BYTE   W05
 BYTE   En4
 BYTE   W07
 BYTE   Cn4
 BYTE   W07
 BYTE   Gn3
 BYTE   W04
 BYTE   Cn4
 BYTE   W06
// 011   ----------------------------------------
 BYTE   An3
 BYTE   W07
 BYTE   Dn3
 BYTE   W05
 BYTE   Fs3
 BYTE   W07
 BYTE   An3
 BYTE   W05
 BYTE   Dn4
 BYTE   W07
 BYTE   An3
 BYTE   W06
 BYTE   Dn3
 BYTE   W07
 BYTE   Fs3
 BYTE   W04
 BYTE   An3
 BYTE   W09
 BYTE   Dn3
 BYTE   W05
 BYTE   Fs3
 BYTE   W05
 BYTE   An3
 BYTE   W05
 BYTE   Dn4
 BYTE   W07
 BYTE   An3
 BYTE   W07
 BYTE   Fs3
 BYTE   W04
 BYTE   An3
 BYTE   W06
// 012   ----------------------------------------
Label_6_014A3086:
 BYTE   N06  Gn3  v100
 BYTE   W07
 BYTE   En3
 BYTE   W05
 BYTE   Gn3
 BYTE   W06
 BYTE   Bn3
 BYTE   W06
 BYTE   Dn4
 BYTE   W06
 BYTE   Bn3
 BYTE   W07
 BYTE   Gn3
 BYTE   W06
 BYTE   En3
 BYTE   W05
 BYTE   Gn3
 BYTE   W08
 BYTE   En3
 BYTE   W05
 BYTE   Gn3
 BYTE   W05
 BYTE   Bn3
 BYTE   W06
 BYTE   Dn4
 BYTE   W07
 BYTE   Bn3
 BYTE   W06
 BYTE   En3
 BYTE   W05
 BYTE   Bn3
 BYTE   W06
 BYTE   PEND 
// 013   ----------------------------------------
Label_6_014A30A9:
 BYTE   N06  An3  v100
 BYTE   W07
 BYTE   En3
 BYTE   W05
 BYTE   An3
 BYTE   W06
 BYTE   Cs4
 BYTE   W06
 BYTE   En4
 BYTE   W06
 BYTE   Cs4
 BYTE   W07
 BYTE   An3
 BYTE   W06
 BYTE   En3
 BYTE   W05
 BYTE   An3
 BYTE   W08
 BYTE   En3
 BYTE   W05
 BYTE   An3
 BYTE   W05
 BYTE   Cs4
 BYTE   W06
 BYTE   En4
 BYTE   W07
 BYTE   Cs4
 BYTE   W06
 BYTE   An3
 BYTE   W05
 BYTE   Cs4
 BYTE   W06
 BYTE   PEND 
// 014   ----------------------------------------
 BYTE   An3
 BYTE   W06
 BYTE   Fn3
 BYTE   W06
 BYTE   An3
 BYTE   W06
 BYTE   Cn4
 BYTE   W06
 BYTE   Fn4
 BYTE   W07
 BYTE   Cn4
 BYTE   W06
 BYTE   An3
 BYTE   W07
 BYTE   Fn3
 BYTE   W04
 BYTE   An3
 BYTE   W07
 BYTE   Fn3
 BYTE   W07
 BYTE   An3
 BYTE   W05
 BYTE   Cn4
 BYTE   W05
 BYTE   Fn4
 BYTE   W08
 BYTE   Cn4
 BYTE   W06
 BYTE   An3
 BYTE   W05
 BYTE   Cn4
 BYTE   W05
// 015   ----------------------------------------
 BYTE   Gn3
 BYTE   W07
 BYTE   Dn3
 BYTE   W05
 BYTE   Gn3
 BYTE   W07
 BYTE   Bn3
 BYTE   W06
 BYTE   Dn4
 BYTE   W06
 BYTE   Bn3
 BYTE   W07
 BYTE   Gn3
 BYTE   W07
 BYTE   Dn3
 BYTE   W04
 BYTE   Gn3
 BYTE   W07
 BYTE   Dn3
 BYTE   W06
 BYTE   Gn3
 BYTE   W06
 BYTE   Bn3
 BYTE   W05
 BYTE   Dn4
 BYTE   W08
 BYTE   Bn3
 BYTE   W06
 BYTE   Dn3
 BYTE   W05
 BYTE   Gn3
 BYTE   W04
// 016   ----------------------------------------
 BYTE   W96
// 017   ----------------------------------------
 BYTE   W96
// 018   ----------------------------------------
 BYTE   W96
// 019   ----------------------------------------
 BYTE   W96
// 020   ----------------------------------------
 BYTE   W96
// 021   ----------------------------------------
 BYTE   W96
// 022   ----------------------------------------
 BYTE   W96
// 023   ----------------------------------------
 BYTE   W96
// 024   ----------------------------------------
 BYTE   W96
// 025   ----------------------------------------
 BYTE   W96
// 026   ----------------------------------------
 BYTE   W96
// 027   ----------------------------------------
 BYTE   W96
// 028   ----------------------------------------
 BYTE   W96
// 029   ----------------------------------------
 BYTE   W96
// 030   ----------------------------------------
 BYTE   W96
// 031   ----------------------------------------
 BYTE   W96
// 032   ----------------------------------------
 BYTE   W96
// 033   ----------------------------------------
 BYTE   W96
// 034   ----------------------------------------
 BYTE   W96
// 035   ----------------------------------------
 BYTE   W96
// 036   ----------------------------------------
 BYTE   W96
// 037   ----------------------------------------
 BYTE   W96
// 038   ----------------------------------------
 BYTE   W96
// 039   ----------------------------------------
 BYTE   W96
// 040   ----------------------------------------
 BYTE   W96
// 041   ----------------------------------------
 BYTE   W96
// 042   ----------------------------------------
 BYTE   W96
// 043   ----------------------------------------
 BYTE   W96
// 044   ----------------------------------------
 BYTE   W96
// 045   ----------------------------------------
 BYTE   W96
// 046   ----------------------------------------
 BYTE   W96
// 047   ----------------------------------------
 BYTE   W96
// 048   ----------------------------------------
 BYTE   W96
// 049   ----------------------------------------
 BYTE   W96
// 050   ----------------------------------------
 BYTE   W96
// 051   ----------------------------------------
 BYTE   W96
// 052   ----------------------------------------
 BYTE   W96
// 053   ----------------------------------------
 BYTE   W96
// 054   ----------------------------------------
 BYTE   W96
// 055   ----------------------------------------
 BYTE   W96
// 056   ----------------------------------------
Label_6_014A3134:
 BYTE   N06  Gn3  v100
 BYTE   W07
 BYTE   Cn3
 BYTE   W05
 BYTE   En3
 BYTE   W06
 BYTE   Gn3
 BYTE   W06
 BYTE   Cn4
 BYTE   W07
 BYTE   Gn3
 BYTE   W07
 BYTE   En3
 BYTE   W05
 BYTE   Dn3
 BYTE   W05
 BYTE   En3
 BYTE   W07
 BYTE   Cn3
 BYTE   W05
 BYTE   En3
 BYTE   W06
 BYTE   Gn3
 BYTE   W06
 BYTE   Cn4
 BYTE   W07
 BYTE   Gn3
 BYTE   W06
 BYTE   En3
 BYTE   W06
 BYTE   Gn3
 BYTE   W05
 BYTE   PEND 
// 057   ----------------------------------------
Label_6_014A3157:
 BYTE   N06  Fn3  v100
 BYTE   W07
 BYTE   As2
 BYTE   W05
 BYTE   Dn3
 BYTE   W06
 BYTE   Fn3
 BYTE   W06
 BYTE   As3
 BYTE   W07
 BYTE   Fn3
 BYTE   W07
 BYTE   Dn3
 BYTE   W05
 BYTE   Fn3
 BYTE   W05
 BYTE   Dn3
 BYTE   W07
 BYTE   As2
 BYTE   W05
 BYTE   Dn3
 BYTE   W06
 BYTE   Fn3
 BYTE   W06
 BYTE   As3
 BYTE   W07
 BYTE   Fn3
 BYTE   W06
 BYTE   Dn3
 BYTE   W06
 BYTE   Fn3
 BYTE   W05
 BYTE   PEND 
// 058   ----------------------------------------
 BYTE   Gn3
 BYTE   W07
 BYTE   Cn3
 BYTE   W06
 BYTE   En3
 BYTE   W06
 BYTE   Gn3
 BYTE   W06
 BYTE   Cn4
 BYTE   W07
 BYTE   Gn3
 BYTE   W07
 BYTE   En3
 BYTE   W05
 BYTE   Dn3
 BYTE   W05
 BYTE   En3
 BYTE   W06
 BYTE   Cn3
 BYTE   W06
 BYTE   En3
 BYTE   W06
 BYTE   Gn3
 BYTE   W06
 BYTE   Cn4
 BYTE   W07
 BYTE   Gn3
 BYTE   W06
 BYTE   En3
 BYTE   W06
 BYTE   Gn3
 BYTE   W04
// 059   ----------------------------------------
 BYTE   W01
 BYTE   An3
 BYTE   W07
 BYTE   Cn3
 BYTE   W06
 BYTE   Fn3
 BYTE   W06
 BYTE   An3
 BYTE   W05
 BYTE   Cn4
 BYTE   W07
 BYTE   An3
 BYTE   W08
 BYTE   Fn3
 BYTE   W04
 BYTE   Cn3
 BYTE   W05
 BYTE   Fn3
 BYTE   W07
 BYTE   Cn3
 BYTE   W06
 BYTE   Fn3
 BYTE   W06
 BYTE   An3
 BYTE   W05
 BYTE   Cn4
 BYTE   W07
 BYTE   An3
 BYTE   W06
 BYTE   Fn3
 BYTE   W05
 BYTE   An3
 BYTE   W05
 BYTE   PATT
  POIN2 Label_6_014A3134
 BYTE   PATT
  POIN2 Label_6_014A3157
// 060   ----------------------------------------
 BYTE   N06  Ds3  v100
 BYTE   W06
 BYTE   Gs2
 BYTE   W06
 BYTE   Cn3
 BYTE   W06
 BYTE   Ds3
 BYTE   W06
 BYTE   Gs3
 BYTE   W07
 BYTE   Ds3
 BYTE   W07
 BYTE   Cn3
 BYTE   W04
 BYTE   As2
 BYTE   W06
 BYTE   Cn3
 BYTE   W06
 BYTE   Gs2
 BYTE   W06
 BYTE   Cn3
 BYTE   W06
 BYTE   Ds3
 BYTE   W06
 BYTE   Gs3
 BYTE   W07
 BYTE   Ds3
 BYTE   W06
 BYTE   Cn3
 BYTE   W05
 BYTE   Ds3
 BYTE   W05
 BYTE   Fn3
 BYTE   W01
// 061   ----------------------------------------
Label_6_014A31E9:
 BYTE   W06
 BYTE   N06  As2  v100
 BYTE   W06
 BYTE   Dn3
 BYTE   W06
 BYTE   Fn3
 BYTE   W06
 BYTE   As3
 BYTE   W07
 BYTE   Fn3
 BYTE   W07
 BYTE   Dn3
 BYTE   W04
 BYTE   Fn3
 BYTE   W06
 BYTE   Dn3
 BYTE   W06
 BYTE   As2
 BYTE   W06
 BYTE   Dn3
 BYTE   W06
 BYTE   Fn3
 BYTE   W06
 BYTE   As3
 BYTE   W07
 BYTE   Fn3
 BYTE   W06
 BYTE   Dn3
 BYTE   W05
 BYTE   Fn3
 BYTE   W06
 BYTE   PEND 
// 062   ----------------------------------------
 BYTE   W96
// 063   ----------------------------------------
 BYTE   W96
// 064   ----------------------------------------
 BYTE   W96
// 065   ----------------------------------------
 BYTE   W96
// 066   ----------------------------------------
 BYTE   W96
// 067   ----------------------------------------
 BYTE   W96
// 068   ----------------------------------------
 BYTE   W96
// 069   ----------------------------------------
 BYTE   W96
// 070   ----------------------------------------
 BYTE   W96
// 071   ----------------------------------------
 BYTE   W96
// 072   ----------------------------------------
 BYTE   W96
// 073   ----------------------------------------
 BYTE   W96
// 074   ----------------------------------------
 BYTE   W96
// 075   ----------------------------------------
 BYTE   W96
// 076   ----------------------------------------
 BYTE   W96
// 077   ----------------------------------------
 BYTE   W96
// 078   ----------------------------------------
 BYTE   W96
// 079   ----------------------------------------
 BYTE   W96
// 080   ----------------------------------------
 BYTE   W96
// 081   ----------------------------------------
 BYTE   W96
// 082   ----------------------------------------
 BYTE   W96
// 083   ----------------------------------------
 BYTE   W96
// 084   ----------------------------------------
 BYTE   W96
// 085   ----------------------------------------
 BYTE   W96
// 086   ----------------------------------------
 BYTE   W96
// 087   ----------------------------------------
 BYTE   W96
// 088   ----------------------------------------
 BYTE   W96
// 089   ----------------------------------------
 BYTE   W96
// 090   ----------------------------------------
 BYTE   W96
// 091   ----------------------------------------
 BYTE   W96
// 092   ----------------------------------------
 BYTE   W96
// 093   ----------------------------------------
 BYTE   W96
// 094   ----------------------------------------
Label_6_014A322B:
 BYTE   N06  An3  v100
 BYTE   W07
 BYTE   En3
 BYTE   W05
 BYTE   An3
 BYTE   W07
 BYTE   Cs4
 BYTE   W05
 BYTE   En4
 BYTE   W07
 BYTE   Cs4
 BYTE   W06
 BYTE   An3
 BYTE   W06
 BYTE   En3
 BYTE   W05
 BYTE   An3
 BYTE   W07
 BYTE   En3
 BYTE   W05
 BYTE   An3
 BYTE   W06
 BYTE   Cs4
 BYTE   W06
 BYTE   En4
 BYTE   W07
 BYTE   Cs4
 BYTE   W05
 BYTE   An3
 BYTE   W06
 BYTE   En3
 BYTE   W06
 BYTE   PEND 
 BYTE   PATT
  POIN2 Label_6_014A322B
// 095   ----------------------------------------
Label_6_014A3253:
 BYTE   W01
 BYTE   N06  Gn3  v100
 BYTE   W07
 BYTE   Dn3
 BYTE   W05
 BYTE   Gn3
 BYTE   W07
 BYTE   Bn3
 BYTE   W05
 BYTE   Dn4
 BYTE   W06
 BYTE   Bn3
 BYTE   W07
 BYTE   Gn3
 BYTE   W06
 BYTE   Dn3
 BYTE   W05
 BYTE   Gn3
 BYTE   W07
 BYTE   Dn3
 BYTE   W05
 BYTE   Gn3
 BYTE   W06
 BYTE   Bn3
 BYTE   W06
 BYTE   Dn4
 BYTE   W06
 BYTE   Bn3
 BYTE   W06
 BYTE   Gn3
 BYTE   W06
 BYTE   Dn3
 BYTE   W05
 BYTE   PEND 
 BYTE   PATT
  POIN2 Label_6_014A3253
// 096   ----------------------------------------
Label_6_014A327C:
 BYTE   N06  Fn3  v100
 BYTE   W07
 BYTE   Cn3
 BYTE   W05
 BYTE   Fn3
 BYTE   W07
 BYTE   An3
 BYTE   W05
 BYTE   Cn4
 BYTE   W07
 BYTE   An3
 BYTE   W06
 BYTE   Fn3
 BYTE   W06
 BYTE   Cn3
 BYTE   W05
 BYTE   Fn3
 BYTE   W07
 BYTE   Cn3
 BYTE   W05
 BYTE   Fn3
 BYTE   W06
 BYTE   An3
 BYTE   W06
 BYTE   Cn4
 BYTE   W07
 BYTE   An3
 BYTE   W05
 BYTE   Fn3
 BYTE   W06
 BYTE   Cn3
 BYTE   W06
 BYTE   PEND 
 BYTE   PATT
  POIN2 Label_6_014A327C
 BYTE   PATT
  POIN2 Label_6_014A3253
 BYTE   PATT
  POIN2 Label_6_014A3253
// 097   ----------------------------------------
 BYTE   W96
// 098   ----------------------------------------
 BYTE   W96
// 099   ----------------------------------------
 BYTE   W96
// 100   ----------------------------------------
 BYTE   W96
// 101   ----------------------------------------
 BYTE   W96
// 102   ----------------------------------------
 BYTE   W96
// 103   ----------------------------------------
 BYTE   W96
// 104   ----------------------------------------
 BYTE   W96
 BYTE   PATT
  POIN2 Label_6_014A3086
 BYTE   PATT
  POIN2 Label_6_014A30A9
// 105   ----------------------------------------
 BYTE   N06  Gn3  v100
 BYTE   W07
 BYTE   En3
 BYTE   W05
 BYTE   Gn3
 BYTE   W06
 BYTE   Cn4
 BYTE   W06
 BYTE   En4
 BYTE   W06
 BYTE   Cn4
 BYTE   W07
 BYTE   Gn3
 BYTE   W06
 BYTE   Cn4
 BYTE   W05
 BYTE   Gn3
 BYTE   W08
 BYTE   En3
 BYTE   W05
 BYTE   Gn3
 BYTE   W05
 BYTE   Cn4
 BYTE   W06
 BYTE   En4
 BYTE   W07
 BYTE   Cn4
 BYTE   W06
 BYTE   Gn3
 BYTE   W05
 BYTE   Cn4
 BYTE   W06
// 106   ----------------------------------------
 BYTE   An3
 BYTE   W07
 BYTE   Dn3
 BYTE   W05
 BYTE   Fs3
 BYTE   W06
 BYTE   An3
 BYTE   W06
 BYTE   Dn4
 BYTE   W06
 BYTE   An3
 BYTE   W07
 BYTE   Dn3
 BYTE   W06
 BYTE   Fs3
 BYTE   W05
 BYTE   An3
 BYTE   W08
 BYTE   Dn3
 BYTE   W05
 BYTE   Fs3
 BYTE   W05
 BYTE   An3
 BYTE   W06
 BYTE   Dn4
 BYTE   W07
 BYTE   An3
 BYTE   W06
 BYTE   Fs3
 BYTE   W05
 BYTE   An3
 BYTE   W05
 BYTE   Gn3
 BYTE   W01
// 107   ----------------------------------------
 BYTE   W06
 BYTE   En3
 BYTE   W05
 BYTE   Gn3
 BYTE   W07
 BYTE   Bn3
 BYTE   W05
 BYTE   Dn4
 BYTE   W06
 BYTE   Bn3
 BYTE   W07
 BYTE   Gn3
 BYTE   W06
 BYTE   En3
 BYTE   W05
 BYTE   Gn3
 BYTE   W08
 BYTE   En3
 BYTE   W06
 BYTE   Gn3
 BYTE   W05
 BYTE   Bn3
 BYTE   W05
 BYTE   Dn4
 BYTE   W07
 BYTE   Bn3
 BYTE   W07
 BYTE   En3
 BYTE   W04
 BYTE   Bn3
 BYTE   W06
 BYTE   An3
 BYTE   W01
// 108   ----------------------------------------
 BYTE   W06
 BYTE   En3
 BYTE   W05
 BYTE   An3
 BYTE   W07
 BYTE   Cs4
 BYTE   W05
 BYTE   En4
 BYTE   W06
 BYTE   Cs4
 BYTE   W07
 BYTE   An3
 BYTE   W06
 BYTE   En3
 BYTE   W05
 BYTE   An3
 BYTE   W08
 BYTE   En3
 BYTE   W06
 BYTE   An3
 BYTE   W05
 BYTE   Cs4
 BYTE   W05
 BYTE   En4
 BYTE   W07
 BYTE   Cs4
 BYTE   W07
 BYTE   An3
 BYTE   W04
 BYTE   Cs4
 BYTE   W06
 BYTE   An3
 BYTE   W01
// 109   ----------------------------------------
 BYTE   W05
 BYTE   Fn3
 BYTE   W06
 BYTE   An3
 BYTE   W07
 BYTE   Cn4
 BYTE   W06
 BYTE   Fn4
 BYTE   W06
 BYTE   Cn4
 BYTE   W07
 BYTE   An3
 BYTE   W07
 BYTE   Fn3
 BYTE   W04
 BYTE   An3
 BYTE   W07
 BYTE   Fn3
 BYTE   W06
 BYTE   An3
 BYTE   W05
 BYTE   Cn4
 BYTE   W06
 BYTE   Fn4
 BYTE   W07
 BYTE   Cn4
 BYTE   W07
 BYTE   An3
 BYTE   W04
 BYTE   Cn4
 BYTE   W06
// 110   ----------------------------------------
 BYTE   Gn3
 BYTE   W06
 BYTE   Dn3
 BYTE   W06
 BYTE   Gn3
 BYTE   W06
 BYTE   Bn3
 BYTE   W06
 BYTE   Dn4
 BYTE   W07
 BYTE   Bn3
 BYTE   W06
 BYTE   Gn3
 BYTE   W07
 BYTE   Dn3
 BYTE   W04
 BYTE   Gn3
 BYTE   W07
 BYTE   Dn3
 BYTE   W07
 BYTE   Gn3
 BYTE   W05
 BYTE   Bn3
 BYTE   W05
 BYTE   Dn4
 BYTE   W08
 BYTE   Bn3
 BYTE   W06
 BYTE   Dn3
 BYTE   W05
 BYTE   Gn3
 BYTE   W05
// 111   ----------------------------------------
 BYTE   W96
// 112   ----------------------------------------
 BYTE   W96
// 113   ----------------------------------------
 BYTE   W96
// 114   ----------------------------------------
 BYTE   W96
// 115   ----------------------------------------
 BYTE   W96
// 116   ----------------------------------------
 BYTE   W96
// 117   ----------------------------------------
 BYTE   W96
// 118   ----------------------------------------
 BYTE   W96
// 119   ----------------------------------------
 BYTE   W96
// 120   ----------------------------------------
 BYTE   W96
// 121   ----------------------------------------
 BYTE   W96
// 122   ----------------------------------------
 BYTE   W96
// 123   ----------------------------------------
 BYTE   W96
// 124   ----------------------------------------
 BYTE   W96
// 125   ----------------------------------------
 BYTE   W96
// 126   ----------------------------------------
 BYTE   W96
// 127   ----------------------------------------
 BYTE   W96
// 128   ----------------------------------------
 BYTE   W96
// 129   ----------------------------------------
 BYTE   W96
// 130   ----------------------------------------
 BYTE   W96
// 131   ----------------------------------------
 BYTE   W96
// 132   ----------------------------------------
 BYTE   W96
// 133   ----------------------------------------
 BYTE   W96
// 134   ----------------------------------------
 BYTE   W96
// 135   ----------------------------------------
 BYTE   W96
// 136   ----------------------------------------
 BYTE   W96
// 137   ----------------------------------------
 BYTE   W96
// 138   ----------------------------------------
 BYTE   W96
// 139   ----------------------------------------
 BYTE   W96
// 140   ----------------------------------------
 BYTE   W96
// 141   ----------------------------------------
 BYTE   W96
// 142   ----------------------------------------
 BYTE   W96
// 143   ----------------------------------------
 BYTE   W96
// 144   ----------------------------------------
 BYTE   W96
// 145   ----------------------------------------
 BYTE   W96
// 146   ----------------------------------------
 BYTE   W96
// 147   ----------------------------------------
 BYTE   W96
// 148   ----------------------------------------
 BYTE   W96
// 149   ----------------------------------------
 BYTE   W96
// 150   ----------------------------------------
 BYTE   W92
 BYTE   W03
 BYTE   N06
 BYTE   W01
// 151   ----------------------------------------
 BYTE   W06
 BYTE   Cn3
 BYTE   W06
 BYTE   En3
 BYTE   W06
 BYTE   Gn3
 BYTE   W06
 BYTE   Cn4
 BYTE   W07
 BYTE   Gn3
 BYTE   W07
 BYTE   En3
 BYTE   W04
 BYTE   Dn3
 BYTE   W06
 BYTE   En3
 BYTE   W06
 BYTE   Cn3
 BYTE   W06
 BYTE   En3
 BYTE   W06
 BYTE   Gn3
 BYTE   W06
 BYTE   Cn4
 BYTE   W07
 BYTE   Gn3
 BYTE   W06
 BYTE   En3
 BYTE   W05
 BYTE   Gn3
 BYTE   W05
 BYTE   Fn3
 BYTE   W01
 BYTE   PATT
  POIN2 Label_6_014A31E9
 BYTE   PATT
  POIN2 Label_6_014A3134
// 152   ----------------------------------------
 BYTE   N06  An3  v100
 BYTE   W07
 BYTE   Cn3
 BYTE   W06
 BYTE   Fn3
 BYTE   W06
 BYTE   An3
 BYTE   W06
 BYTE   Cn4
 BYTE   W07
 BYTE   An3
 BYTE   W07
 BYTE   Fn3
 BYTE   W05
 BYTE   Cn3
 BYTE   W05
 BYTE   Fn3
 BYTE   W06
 BYTE   Cn3
 BYTE   W06
 BYTE   Fn3
 BYTE   W06
 BYTE   An3
 BYTE   W06
 BYTE   Cn4
 BYTE   W07
 BYTE   An3
 BYTE   W06
 BYTE   Fn3
 BYTE   W04
 BYTE   An3
 BYTE   W06
// 153   ----------------------------------------
 BYTE   Gn3
 BYTE   W06
 BYTE   Cn3
 BYTE   W06
 BYTE   En3
 BYTE   W06
 BYTE   Gn3
 BYTE   W06
 BYTE   Cn4
 BYTE   W07
 BYTE   Gn3
 BYTE   W07
 BYTE   En3
 BYTE   W04
 BYTE   Dn3
 BYTE   W06
 BYTE   En3
 BYTE   W06
 BYTE   Cn3
 BYTE   W06
 BYTE   En3
 BYTE   W06
 BYTE   Gn3
 BYTE   W06
 BYTE   Cn4
 BYTE   W07
 BYTE   Gn3
 BYTE   W06
 BYTE   En3
 BYTE   W05
 BYTE   Gn3
 BYTE   W05
 BYTE   Fn3
 BYTE   W01
 BYTE   PATT
  POIN2 Label_6_014A31E9
// 154   ----------------------------------------
 BYTE   N06  Ds3  v100
 BYTE   W05
 BYTE   Gs2
 BYTE   W06
 BYTE   Cn3
 BYTE   W06
 BYTE   Ds3
 BYTE   W06
 BYTE   Gs3
 BYTE   W07
 BYTE   Ds3
 BYTE   W07
 BYTE   Cn3
 BYTE   W05
 BYTE   As2
 BYTE   W05
 BYTE   Cn3
 BYTE   W06
 BYTE   Gs2
 BYTE   W06
 BYTE   Cn3
 BYTE   W06
 BYTE   Ds3
 BYTE   W06
 BYTE   Gs3
 BYTE   W07
 BYTE   Ds3
 BYTE   W06
 BYTE   Cn3
 BYTE   W06
 BYTE   Ds3
 BYTE   W04
 BYTE   Fn3
 BYTE   W02
// 155   ----------------------------------------
 BYTE   W05
 BYTE   As2
 BYTE   W06
 BYTE   Dn3
 BYTE   W06
 BYTE   Fn3
 BYTE   W06
 BYTE   As3
 BYTE   W07
 BYTE   Fn3
 BYTE   W07
 BYTE   Dn3
 BYTE   W05
 BYTE   Fn3
 BYTE   W05
 BYTE   Dn3
 BYTE   W06
 BYTE   As2
 BYTE   W06
 BYTE   Dn3
 BYTE   W06
 BYTE   Fn3
 BYTE   W06
 BYTE   As3
 BYTE   W07
 BYTE   Fn3
 BYTE   W06
 BYTE   Dn3
 BYTE   W06
 BYTE   Fn3
 BYTE   W06
// 156   ----------------------------------------
 BYTE   W96
// 157   ----------------------------------------
 BYTE   W96
// 158   ----------------------------------------
 BYTE   W96
// 159   ----------------------------------------
 BYTE   W96
// 160   ----------------------------------------
 BYTE   W96
// 161   ----------------------------------------
 BYTE   W96
// 162   ----------------------------------------
 BYTE   W96
// 163   ----------------------------------------
 BYTE   W96
// 164   ----------------------------------------
 BYTE   W96
// 165   ----------------------------------------
 BYTE   W96
// 166   ----------------------------------------
 BYTE   W96
// 167   ----------------------------------------
 BYTE   W96
// 168   ----------------------------------------
 BYTE   W96
// 169   ----------------------------------------
 BYTE   W96
// 170   ----------------------------------------
 BYTE   W96
// 171   ----------------------------------------
 BYTE   W96
// 172   ----------------------------------------
 BYTE   W96
// 173   ----------------------------------------
 BYTE   W96
// 174   ----------------------------------------
 BYTE   W96
// 175   ----------------------------------------
 BYTE   W96
// 176   ----------------------------------------
 BYTE   W96
// 177   ----------------------------------------
 BYTE   W96
// 178   ----------------------------------------
 BYTE   W96
// 179   ----------------------------------------
 BYTE   W96
// 180   ----------------------------------------
 BYTE   W96
// 181   ----------------------------------------
 BYTE   W96
// 182   ----------------------------------------
 BYTE   W96
// 183   ----------------------------------------
 BYTE   W96
// 184   ----------------------------------------
 BYTE   W96
// 185   ----------------------------------------
 BYTE   W96
// 186   ----------------------------------------
 BYTE   W96
// 187   ----------------------------------------
 BYTE   W96
// 188   ----------------------------------------
Label_6_014A3487:
 BYTE   N06  An3  v100
 BYTE   W07
 BYTE   En3
 BYTE   W05
 BYTE   An3
 BYTE   W06
 BYTE   Cs4
 BYTE   W06
 BYTE   En4
 BYTE   W06
 BYTE   Cs4
 BYTE   W07
 BYTE   An3
 BYTE   W05
 BYTE   En3
 BYTE   W06
 BYTE   An3
 BYTE   W07
 BYTE   En3
 BYTE   W05
 BYTE   An3
 BYTE   W06
 BYTE   Cs4
 BYTE   W06
 BYTE   En4
 BYTE   W06
 BYTE   Cs4
 BYTE   W06
 BYTE   An3
 BYTE   W06
 BYTE   En3
 BYTE   W06
 BYTE   PEND 
 BYTE   PATT
  POIN2 Label_6_014A3487
// 189   ----------------------------------------
Label_6_014A34AF:
 BYTE   N06  Gn3  v100
 BYTE   W07
 BYTE   Dn3
 BYTE   W05
 BYTE   Gn3
 BYTE   W07
 BYTE   Bn3
 BYTE   W05
 BYTE   Dn4
 BYTE   W07
 BYTE   Bn3
 BYTE   W06
 BYTE   Gn3
 BYTE   W06
 BYTE   Dn3
 BYTE   W05
 BYTE   Gn3
 BYTE   W07
 BYTE   Dn3
 BYTE   W05
 BYTE   Gn3
 BYTE   W06
 BYTE   Bn3
 BYTE   W06
 BYTE   Dn4
 BYTE   W07
 BYTE   Bn3
 BYTE   W05
 BYTE   Gn3
 BYTE   W06
 BYTE   Dn3
 BYTE   W06
 BYTE   PEND 
 BYTE   PATT
  POIN2 Label_6_014A34AF
// 190   ----------------------------------------
Label_6_014A34D7:
 BYTE   N06  Fn3  v100
 BYTE   W07
 BYTE   Cn3
 BYTE   W05
 BYTE   Fn3
 BYTE   W06
 BYTE   An3
 BYTE   W06
 BYTE   Cn4
 BYTE   W06
 BYTE   An3
 BYTE   W07
 BYTE   Fn3
 BYTE   W05
 BYTE   Cn3
 BYTE   W06
 BYTE   Fn3
 BYTE   W07
 BYTE   Cn3
 BYTE   W05
 BYTE   Fn3
 BYTE   W06
 BYTE   An3
 BYTE   W06
 BYTE   Cn4
 BYTE   W06
 BYTE   An3
 BYTE   W06
 BYTE   Fn3
 BYTE   W06
 BYTE   Cn3
 BYTE   W06
 BYTE   PEND 
 BYTE   PATT
  POIN2 Label_6_014A34D7
 BYTE   PATT
  POIN2 Label_6_014A34AF
 BYTE   PATT
  POIN2 Label_6_014A34AF
 BYTE   FINE

//**************** Track 8 (Midi-Chn.7) ****************//

MarioTennisRound2Pandan_008:
// 000   ----------------------------------------
 BYTE   KEYSH   MarioTennisRound2Pandan_key+0
 BYTE   VOICE   74
 BYTE   VOL   18*MarioTennisRound2Pandan_mvl/mxv
 BYTE   PAN   c_v+0
 BYTE   W96
// 001   ----------------------------------------
 BYTE   W96
// 002   ----------------------------------------
 BYTE   W96
// 003   ----------------------------------------
 BYTE   W96
// 004   ----------------------------------------
 BYTE   W96
// 005   ----------------------------------------
 BYTE   W96
// 006   ----------------------------------------
 BYTE   W96
// 007   ----------------------------------------
 BYTE   W96
// 008   ----------------------------------------
 BYTE   W96
// 009   ----------------------------------------
 BYTE   W96
// 010   ----------------------------------------
 BYTE   W96
// 011   ----------------------------------------
 BYTE   W96
// 012   ----------------------------------------
 BYTE   W96
// 013   ----------------------------------------
 BYTE   W96
// 014   ----------------------------------------
 BYTE   W96
// 015   ----------------------------------------
 BYTE   W96
// 016   ----------------------------------------
Label_7_014A3524:
 BYTE   N12  Cn4  v100
 BYTE   W12
 BYTE   An3
 BYTE   W12
 BYTE   Cn4
 BYTE   W11
 BYTE   Dn4
 BYTE   W13
 BYTE   Cn4
 BYTE   W12
 BYTE   Dn4
 BYTE   W12
 BYTE   N24  Fn4
 BYTE   W24
 BYTE   PEND 
// 017   ----------------------------------------
Label_7_014A3536:
 BYTE   N12  An4  v100
 BYTE   W12
 BYTE   Gn4
 BYTE   W12
 BYTE   An4
 BYTE   W12
 BYTE   Fn4
 BYTE   W12
 BYTE   An3
 BYTE   W12
 BYTE   Gn3
 BYTE   W12
 BYTE   An3
 BYTE   W11
 BYTE   Fn3
 BYTE   W13
 BYTE   PEND 
// 018   ----------------------------------------
Label_7_014A3549:
 BYTE   N06  Bn3  v100
 BYTE   W06
 BYTE   Gn3
 BYTE   W06
 BYTE   Bn3
 BYTE   W06
 BYTE   Dn4
 BYTE   W06
 BYTE   Gn4
 BYTE   W07
 BYTE   Dn4
 BYTE   W05
 BYTE   Gn4
 BYTE   W06
 BYTE   An4
 BYTE   W06
 BYTE   Bn4
 BYTE   W07
 BYTE   Gn4
 BYTE   W06
 BYTE   Dn4
 BYTE   W07
 BYTE   Gn3
 BYTE   W04
 BYTE   Bn3
 BYTE   W06
 BYTE   An3
 BYTE   W06
 BYTE   Gn3
 BYTE   W06
 BYTE   An3
 BYTE   W06
 BYTE   PEND 
// 019   ----------------------------------------
Label_7_014A356C:
 BYTE   N06  Bn3  v100
 BYTE   W07
 BYTE   Gn3
 BYTE   W05
 BYTE   Bn3
 BYTE   W06
 BYTE   Dn4
 BYTE   W06
 BYTE   Gn4
 BYTE   W07
 BYTE   An4
 BYTE   W05
 BYTE   Bn4
 BYTE   W06
 BYTE   An4
 BYTE   W06
 BYTE   Gn4
 BYTE   W07
 BYTE   Dn4
 BYTE   W06
 BYTE   Bn3
 BYTE   W07
 BYTE   An3
 BYTE   W04
 BYTE   Bn3
 BYTE   W05
 BYTE   Dn4
 BYTE   W07
 BYTE   Bn3
 BYTE   W06
 BYTE   Gn3
 BYTE   W06
 BYTE   PEND 
// 020   ----------------------------------------
Label_7_014A358F:
 BYTE   N12  Cn4  v100
 BYTE   W12
 BYTE   An3
 BYTE   W11
 BYTE   Cn4
 BYTE   W12
 BYTE   Dn4
 BYTE   W13
 BYTE   Cn4
 BYTE   W11
 BYTE   Dn4
 BYTE   W12
 BYTE   N24  Fn4
 BYTE   W24
 BYTE   W01
 BYTE   PEND 
// 021   ----------------------------------------
Label_7_014A35A2:
 BYTE   N12  An4  v100
 BYTE   W12
 BYTE   Gn4
 BYTE   W12
 BYTE   An4
 BYTE   W11
 BYTE   Fn4
 BYTE   W12
 BYTE   An3
 BYTE   W12
 BYTE   Gn3
 BYTE   W12
 BYTE   Fn3
 BYTE   W12
 BYTE   An3
 BYTE   W13
 BYTE   PEND 
// 022   ----------------------------------------
Label_7_014A35B5:
 BYTE   N06  Gn3  v100
 BYTE   W07
 BYTE   En3
 BYTE   W05
 BYTE   Gn3
 BYTE   W06
 BYTE   Cn4
 BYTE   W06
 BYTE   En4
 BYTE   W07
 BYTE   Cn4
 BYTE   W06
 BYTE   Gn3
 BYTE   W06
 BYTE   En3
 BYTE   W05
 BYTE   Gn3
 BYTE   W07
 BYTE   En3
 BYTE   W05
 BYTE   Gn3
 BYTE   W06
 BYTE   Cn4
 BYTE   W06
 BYTE   En4
 BYTE   W06
 BYTE   Cn4
 BYTE   W06
 BYTE   Gn3
 BYTE   W06
 BYTE   An3
 BYTE   W06
 BYTE   PEND 
// 023   ----------------------------------------
Label_7_014A35D8:
 BYTE   W01
 BYTE   N06  Bn3  v100
 BYTE   W06
 BYTE   An3
 BYTE   W05
 BYTE   Bn3
 BYTE   W06
 BYTE   Dn4
 BYTE   W06
 BYTE   Gn4
 BYTE   W07
 BYTE   Dn4
 BYTE   W07
 BYTE   Gn3
 BYTE   W06
 BYTE   An3
 BYTE   W05
 BYTE   Bn3
 BYTE   W07
 BYTE   An3
 BYTE   W06
 BYTE   Bn3
 BYTE   W06
 BYTE   Dn4
 BYTE   W06
 BYTE   Gn4
 BYTE   W07
 BYTE   Dn4
 BYTE   W05
 BYTE   Bn3
 BYTE   W04
 BYTE   Gn3
 BYTE   W06
 BYTE   PEND 
 BYTE   PATT
  POIN2 Label_7_014A3524
 BYTE   PATT
  POIN2 Label_7_014A3536
 BYTE   PATT
  POIN2 Label_7_014A3549
 BYTE   PATT
  POIN2 Label_7_014A356C
 BYTE   PATT
  POIN2 Label_7_014A358F
 BYTE   PATT
  POIN2 Label_7_014A35A2
 BYTE   PATT
  POIN2 Label_7_014A35B5
 BYTE   PATT
  POIN2 Label_7_014A35D8
// 024   ----------------------------------------
 BYTE   W96
// 025   ----------------------------------------
 BYTE   W96
// 026   ----------------------------------------
 BYTE   W96
// 027   ----------------------------------------
 BYTE   W96
// 028   ----------------------------------------
 BYTE   W96
// 029   ----------------------------------------
 BYTE   W96
// 030   ----------------------------------------
 BYTE   W96
// 031   ----------------------------------------
 BYTE   W96
// 032   ----------------------------------------
 BYTE   W96
// 033   ----------------------------------------
 BYTE   W96
// 034   ----------------------------------------
 BYTE   W96
// 035   ----------------------------------------
 BYTE   W96
// 036   ----------------------------------------
 BYTE   W96
// 037   ----------------------------------------
 BYTE   W96
// 038   ----------------------------------------
 BYTE   W96
// 039   ----------------------------------------
 BYTE   W96
// 040   ----------------------------------------
 BYTE   W96
// 041   ----------------------------------------
 BYTE   W96
// 042   ----------------------------------------
 BYTE   W96
// 043   ----------------------------------------
 BYTE   W96
// 044   ----------------------------------------
 BYTE   W96
// 045   ----------------------------------------
 BYTE   W96
// 046   ----------------------------------------
 BYTE   W96
// 047   ----------------------------------------
 BYTE   W96
// 048   ----------------------------------------
 BYTE   W96
// 049   ----------------------------------------
 BYTE   W96
// 050   ----------------------------------------
 BYTE   W96
// 051   ----------------------------------------
 BYTE   W96
// 052   ----------------------------------------
 BYTE   W96
// 053   ----------------------------------------
 BYTE   W96
// 054   ----------------------------------------
 BYTE   W96
// 055   ----------------------------------------
 BYTE   W96
// 056   ----------------------------------------
Label_7_014A3644:
 BYTE   N12  En4  v100
 BYTE   W11
 BYTE   Fn4
 BYTE   W13
 BYTE   Gn4
 BYTE   W12
 BYTE   Cn4
 BYTE   W24
 BYTE   Gn4
 BYTE   W24
 BYTE   As4
 BYTE   W12
 BYTE   PEND 
// 057   ----------------------------------------
Label_7_014A3653:
 BYTE   W12
 BYTE   N12  As4  v100
 BYTE   W12
 BYTE   An4
 BYTE   W12
 BYTE   Gn4
 BYTE   W13
 BYTE   N24  Fn4
 BYTE   W44
 BYTE   W03
 BYTE   PEND 
// 058   ----------------------------------------
Label_7_014A3661:
 BYTE   N12  Gn4  v100
 BYTE   W12
 BYTE   Cn4
 BYTE   W13
 BYTE   N12
 BYTE   W11
 BYTE   Gn4
 BYTE   W12
 BYTE   En4
 BYTE   W11
 BYTE   Fn4
 BYTE   W13
 BYTE   Gn4
 BYTE   W11
 BYTE   Cn4
 BYTE   W13
 BYTE   PEND 
// 059   ----------------------------------------
Label_7_014A3674:
 BYTE   N12  An4  v100
 BYTE   W12
 BYTE   As4
 BYTE   W12
 BYTE   Cn5
 BYTE   W11
 BYTE   As4
 BYTE   W13
 BYTE   An4
 BYTE   W12
 BYTE   Gn4
 BYTE   W12
 BYTE   Fn4
 BYTE   W11
 BYTE   An4
 BYTE   W13
 BYTE   PEND 
 BYTE   PATT
  POIN2 Label_7_014A3644
 BYTE   PATT
  POIN2 Label_7_014A3653
// 060   ----------------------------------------
Label_7_014A3691:
 BYTE   N12  Gs4  v100
 BYTE   W12
 BYTE   N12
 BYTE   W12
 BYTE   As4
 BYTE   W11
 BYTE   Cn5
 BYTE   W13
 BYTE   N12
 BYTE   W12
 BYTE   As4
 BYTE   W12
 BYTE   Gs4
 BYTE   W11
 BYTE   As4
 BYTE   W13
 BYTE   PEND 
// 061   ----------------------------------------
Label_7_014A36A4:
 BYTE   W12
 BYTE   N24  Dn4  v100
 BYTE   W24
 BYTE   N12  As4
 BYTE   W12
 BYTE   Dn4
 BYTE   W11
 BYTE   Fn4
 BYTE   W13
 BYTE   As4
 BYTE   W12
 BYTE   Dn4
 BYTE   W12
 BYTE   PEND 
// 062   ----------------------------------------
 BYTE   W96
// 063   ----------------------------------------
 BYTE   W96
// 064   ----------------------------------------
 BYTE   W96
// 065   ----------------------------------------
 BYTE   W96
// 066   ----------------------------------------
 BYTE   W96
// 067   ----------------------------------------
 BYTE   W96
// 068   ----------------------------------------
Label_7_014A36BB:
 BYTE   N06  Gn3  v100
 BYTE   W06
 BYTE   En3
 BYTE   W05
 BYTE   Gn3
 BYTE   W06
 BYTE   Cn4
 BYTE   W07
 BYTE   En4
 BYTE   W06
 BYTE   Cn4
 BYTE   W07
 BYTE   Gn3
 BYTE   W05
 BYTE   En3
 BYTE   W06
 BYTE   Gn3
 BYTE   W06
 BYTE   En3
 BYTE   W06
 BYTE   Gn3
 BYTE   W06
 BYTE   Cn4
 BYTE   W05
 BYTE   En4
 BYTE   W06
 BYTE   Cn4
 BYTE   W07
 BYTE   Gn3
 BYTE   W05
 BYTE   An3
 BYTE   W07
 BYTE   PEND 
// 069   ----------------------------------------
Label_7_014A36DE:
 BYTE   N06  Bn3  v100
 BYTE   W06
 BYTE   An3
 BYTE   W06
 BYTE   Bn3
 BYTE   W06
 BYTE   Dn4
 BYTE   W05
 BYTE   Gn4
 BYTE   W07
 BYTE   Dn4
 BYTE   W07
 BYTE   Gn3
 BYTE   W06
 BYTE   An3
 BYTE   W06
 BYTE   Bn3
 BYTE   W06
 BYTE   An3
 BYTE   W07
 BYTE   Bn3
 BYTE   W06
 BYTE   Dn4
 BYTE   W05
 BYTE   Gn4
 BYTE   W07
 BYTE   Dn4
 BYTE   W06
 BYTE   Bn3
 BYTE   W04
 BYTE   Gn3
 BYTE   W06
 BYTE   PEND 
 BYTE   PATT
  POIN2 Label_7_014A358F
// 070   ----------------------------------------
 BYTE   N12  An4  v100
 BYTE   W12
 BYTE   Gn4
 BYTE   W12
 BYTE   An4
 BYTE   W11
 BYTE   Fn4
 BYTE   W12
 BYTE   An3
 BYTE   W12
 BYTE   Gn3
 BYTE   W12
 BYTE   An3
 BYTE   W12
 BYTE   Fn3
 BYTE   W13
// 071   ----------------------------------------
 BYTE   N06  Bn3
 BYTE   W05
 BYTE   Gn3
 BYTE   W06
 BYTE   Bn3
 BYTE   W06
 BYTE   Dn4
 BYTE   W07
 BYTE   Gn4
 BYTE   W07
 BYTE   Dn4
 BYTE   W05
 BYTE   Gn4
 BYTE   W05
 BYTE   An4
 BYTE   W07
 BYTE   Bn4
 BYTE   W06
 BYTE   Gn4
 BYTE   W07
 BYTE   Dn4
 BYTE   W06
 BYTE   Gn3
 BYTE   W04
 BYTE   Bn3
 BYTE   W06
 BYTE   An3
 BYTE   W07
 BYTE   Gn3
 BYTE   W05
 BYTE   An3
 BYTE   W07
// 072   ----------------------------------------
 BYTE   Bn3
 BYTE   W06
 BYTE   Gn3
 BYTE   W06
 BYTE   Bn3
 BYTE   W06
 BYTE   Dn4
 BYTE   W06
 BYTE   Gn4
 BYTE   W06
 BYTE   An4
 BYTE   W06
 BYTE   Bn4
 BYTE   W06
 BYTE   An4
 BYTE   W06
 BYTE   Gn4
 BYTE   W06
 BYTE   Dn4
 BYTE   W07
 BYTE   Bn3
 BYTE   W06
 BYTE   An3
 BYTE   W05
 BYTE   Bn3
 BYTE   W05
 BYTE   Dn4
 BYTE   W06
 BYTE   Bn3
 BYTE   W07
 BYTE   Gn3
 BYTE   W05
 BYTE   N12  Cn4
 BYTE   W01
// 073   ----------------------------------------
 BYTE   W11
 BYTE   An3
 BYTE   W11
 BYTE   Cn4
 BYTE   W12
 BYTE   Dn4
 BYTE   W13
 BYTE   Cn4
 BYTE   W12
 BYTE   Dn4
 BYTE   W11
 BYTE   N24  Fn4
 BYTE   W24
 BYTE   W01
 BYTE   N12  An4
 BYTE   W01
// 074   ----------------------------------------
 BYTE   W11
 BYTE   Gn4
 BYTE   W12
 BYTE   An4
 BYTE   W12
 BYTE   Fn4
 BYTE   W11
 BYTE   An3
 BYTE   W13
 BYTE   Gn3
 BYTE   W11
 BYTE   Fn3
 BYTE   W12
 BYTE   An3
 BYTE   W14
 BYTE   PATT
  POIN2 Label_7_014A36BB
 BYTE   PATT
  POIN2 Label_7_014A36DE
// 075   ----------------------------------------
 BYTE   W96
// 076   ----------------------------------------
 BYTE   W96
// 077   ----------------------------------------
 BYTE   W96
// 078   ----------------------------------------
 BYTE   W96
// 079   ----------------------------------------
 BYTE   W96
// 080   ----------------------------------------
 BYTE   W96
// 081   ----------------------------------------
 BYTE   W96
// 082   ----------------------------------------
 BYTE   W96
// 083   ----------------------------------------
 BYTE   W96
// 084   ----------------------------------------
 BYTE   W96
// 085   ----------------------------------------
 BYTE   W96
// 086   ----------------------------------------
 BYTE   W96
// 087   ----------------------------------------
 BYTE   W96
// 088   ----------------------------------------
 BYTE   W96
// 089   ----------------------------------------
 BYTE   W96
// 090   ----------------------------------------
 BYTE   W96
// 091   ----------------------------------------
 BYTE   W96
// 092   ----------------------------------------
 BYTE   W96
// 093   ----------------------------------------
 BYTE   W96
// 094   ----------------------------------------
 BYTE   W96
// 095   ----------------------------------------
 BYTE   W96
// 096   ----------------------------------------
 BYTE   W96
// 097   ----------------------------------------
 BYTE   W96
// 098   ----------------------------------------
 BYTE   W96
// 099   ----------------------------------------
 BYTE   W96
// 100   ----------------------------------------
 BYTE   W96
// 101   ----------------------------------------
 BYTE   W96
// 102   ----------------------------------------
 BYTE   W96
// 103   ----------------------------------------
 BYTE   W96
// 104   ----------------------------------------
 BYTE   W96
// 105   ----------------------------------------
 BYTE   W96
// 106   ----------------------------------------
 BYTE   W96
// 107   ----------------------------------------
Label_7_014A37A7:
 BYTE   W01
 BYTE   N12  Cn4  v100
 BYTE   W12
 BYTE   An3
 BYTE   W11
 BYTE   Cn4
 BYTE   W12
 BYTE   Dn4
 BYTE   W13
 BYTE   Cn4
 BYTE   W11
 BYTE   Dn4
 BYTE   W12
 BYTE   N24  Fn4
 BYTE   W24
 BYTE   PEND 
// 108   ----------------------------------------
Label_7_014A37BA:
 BYTE   W01
 BYTE   N12  An4  v100
 BYTE   W12
 BYTE   Gn4
 BYTE   W12
 BYTE   An4
 BYTE   W11
 BYTE   Fn4
 BYTE   W12
 BYTE   An3
 BYTE   W12
 BYTE   Gn3
 BYTE   W12
 BYTE   An3
 BYTE   W12
 BYTE   Fn3
 BYTE   W12
 BYTE   PEND 
// 109   ----------------------------------------
Label_7_014A37CE:
 BYTE   W01
 BYTE   N06  Bn3  v100
 BYTE   W06
 BYTE   Gn3
 BYTE   W05
 BYTE   Bn3
 BYTE   W06
 BYTE   Dn4
 BYTE   W07
 BYTE   Gn4
 BYTE   W07
 BYTE   Dn4
 BYTE   W05
 BYTE   Gn4
 BYTE   W05
 BYTE   An4
 BYTE   W07
 BYTE   Bn4
 BYTE   W06
 BYTE   Gn4
 BYTE   W07
 BYTE   Dn4
 BYTE   W06
 BYTE   Gn3
 BYTE   W04
 BYTE   Bn3
 BYTE   W07
 BYTE   An3
 BYTE   W06
 BYTE   Gn3
 BYTE   W05
 BYTE   An3
 BYTE   W06
 BYTE   PEND 
// 110   ----------------------------------------
Label_7_014A37F2:
 BYTE   W01
 BYTE   N06  Bn3  v100
 BYTE   W06
 BYTE   Gn3
 BYTE   W06
 BYTE   Bn3
 BYTE   W06
 BYTE   Dn4
 BYTE   W06
 BYTE   Gn4
 BYTE   W06
 BYTE   An4
 BYTE   W06
 BYTE   Bn4
 BYTE   W06
 BYTE   An4
 BYTE   W06
 BYTE   Gn4
 BYTE   W06
 BYTE   Dn4
 BYTE   W07
 BYTE   Bn3
 BYTE   W06
 BYTE   An3
 BYTE   W05
 BYTE   Bn3
 BYTE   W05
 BYTE   Dn4
 BYTE   W06
 BYTE   Bn3
 BYTE   W07
 BYTE   Gn3
 BYTE   W05
 BYTE   PEND 
 BYTE   PATT
  POIN2 Label_7_014A3524
// 111   ----------------------------------------
Label_7_014A381B:
 BYTE   N12  An4  v100
 BYTE   W12
 BYTE   Gn4
 BYTE   W12
 BYTE   An4
 BYTE   W12
 BYTE   Fn4
 BYTE   W12
 BYTE   An3
 BYTE   W12
 BYTE   Gn3
 BYTE   W12
 BYTE   Fn3
 BYTE   W11
 BYTE   An3
 BYTE   W13
 BYTE   PEND 
// 112   ----------------------------------------
Label_7_014A382E:
 BYTE   W01
 BYTE   N06  Gn3  v100
 BYTE   W06
 BYTE   En3
 BYTE   W05
 BYTE   Gn3
 BYTE   W06
 BYTE   Cn4
 BYTE   W07
 BYTE   En4
 BYTE   W06
 BYTE   Cn4
 BYTE   W07
 BYTE   Gn3
 BYTE   W06
 BYTE   En3
 BYTE   W05
 BYTE   Gn3
 BYTE   W06
 BYTE   En3
 BYTE   W06
 BYTE   Gn3
 BYTE   W06
 BYTE   Cn4
 BYTE   W05
 BYTE   En4
 BYTE   W07
 BYTE   Cn4
 BYTE   W06
 BYTE   Gn3
 BYTE   W05
 BYTE   An3
 BYTE   W06
 BYTE   PEND 
// 113   ----------------------------------------
Label_7_014A3852:
 BYTE   W01
 BYTE   N06  Bn3  v100
 BYTE   W06
 BYTE   An3
 BYTE   W06
 BYTE   Bn3
 BYTE   W06
 BYTE   Dn4
 BYTE   W05
 BYTE   Gn4
 BYTE   W07
 BYTE   Dn4
 BYTE   W07
 BYTE   Gn3
 BYTE   W06
 BYTE   An3
 BYTE   W06
 BYTE   Bn3
 BYTE   W07
 BYTE   An3
 BYTE   W06
 BYTE   Bn3
 BYTE   W06
 BYTE   Dn4
 BYTE   W06
 BYTE   Gn4
 BYTE   W06
 BYTE   Dn4
 BYTE   W06
 BYTE   Bn3
 BYTE   W04
 BYTE   Gn3
 BYTE   W05
 BYTE   PEND 
 BYTE   PATT
  POIN2 Label_7_014A37A7
 BYTE   PATT
  POIN2 Label_7_014A37BA
 BYTE   PATT
  POIN2 Label_7_014A37CE
 BYTE   PATT
  POIN2 Label_7_014A37F2
 BYTE   PATT
  POIN2 Label_7_014A3524
 BYTE   PATT
  POIN2 Label_7_014A381B
 BYTE   PATT
  POIN2 Label_7_014A382E
 BYTE   PATT
  POIN2 Label_7_014A3852
// 114   ----------------------------------------
 BYTE   W96
// 115   ----------------------------------------
 BYTE   W96
// 116   ----------------------------------------
 BYTE   W96
// 117   ----------------------------------------
 BYTE   W96
// 118   ----------------------------------------
 BYTE   W96
// 119   ----------------------------------------
 BYTE   W96
// 120   ----------------------------------------
 BYTE   W96
// 121   ----------------------------------------
 BYTE   W96
// 122   ----------------------------------------
 BYTE   W96
// 123   ----------------------------------------
 BYTE   W96
// 124   ----------------------------------------
 BYTE   W96
// 125   ----------------------------------------
 BYTE   W96
// 126   ----------------------------------------
 BYTE   W96
// 127   ----------------------------------------
 BYTE   W96
// 128   ----------------------------------------
 BYTE   W96
// 129   ----------------------------------------
 BYTE   W96
// 130   ----------------------------------------
 BYTE   W96
// 131   ----------------------------------------
 BYTE   W96
// 132   ----------------------------------------
 BYTE   W96
// 133   ----------------------------------------
 BYTE   W96
// 134   ----------------------------------------
 BYTE   W96
// 135   ----------------------------------------
 BYTE   W96
// 136   ----------------------------------------
 BYTE   W96
// 137   ----------------------------------------
 BYTE   W96
// 138   ----------------------------------------
 BYTE   W96
// 139   ----------------------------------------
 BYTE   W96
// 140   ----------------------------------------
 BYTE   W96
// 141   ----------------------------------------
 BYTE   W96
// 142   ----------------------------------------
 BYTE   W96
// 143   ----------------------------------------
 BYTE   W96
// 144   ----------------------------------------
 BYTE   W96
// 145   ----------------------------------------
 BYTE   W96
 BYTE   PATT
  POIN2 Label_7_014A3644
 BYTE   PATT
  POIN2 Label_7_014A3653
 BYTE   PATT
  POIN2 Label_7_014A3661
 BYTE   PATT
  POIN2 Label_7_014A3674
 BYTE   PATT
  POIN2 Label_7_014A3644
 BYTE   PATT
  POIN2 Label_7_014A3653
 BYTE   PATT
  POIN2 Label_7_014A3691
 BYTE   PATT
  POIN2 Label_7_014A36A4
// 146   ----------------------------------------
 BYTE   W96
// 147   ----------------------------------------
 BYTE   W96
// 148   ----------------------------------------
 BYTE   W96
// 149   ----------------------------------------
 BYTE   W96
// 150   ----------------------------------------
 BYTE   W96
// 151   ----------------------------------------
 BYTE   W96
 BYTE   PATT
  POIN2 Label_7_014A35B5
 BYTE   PATT
  POIN2 Label_7_014A35D8
 BYTE   PATT
  POIN2 Label_7_014A3524
 BYTE   PATT
  POIN2 Label_7_014A3536
 BYTE   PATT
  POIN2 Label_7_014A3549
 BYTE   PATT
  POIN2 Label_7_014A356C
 BYTE   PATT
  POIN2 Label_7_014A358F
 BYTE   PATT
  POIN2 Label_7_014A35A2
 BYTE   PATT
  POIN2 Label_7_014A35B5
 BYTE   PATT
  POIN2 Label_7_014A35D8
 BYTE   FINE

//**************** Track 9 (Midi-Chn.8) ****************//

MarioTennisRound2Pandan_009:
// 000   ----------------------------------------
 BYTE   KEYSH   MarioTennisRound2Pandan_key+0
 BYTE   VOICE   100
 BYTE   VOL   18*MarioTennisRound2Pandan_mvl/mxv
 BYTE   PAN   c_v+0
 BYTE   W96
// 001   ----------------------------------------
 BYTE   W96
// 002   ----------------------------------------
 BYTE   W96
// 003   ----------------------------------------
 BYTE   W96
// 004   ----------------------------------------
 BYTE   W96
// 005   ----------------------------------------
 BYTE   W96
// 006   ----------------------------------------
 BYTE   W96
// 007   ----------------------------------------
 BYTE   W96
// 008   ----------------------------------------
 BYTE   W96
// 009   ----------------------------------------
 BYTE   W96
// 010   ----------------------------------------
 BYTE   W96
// 011   ----------------------------------------
 BYTE   W96
// 012   ----------------------------------------
 BYTE   W96
// 013   ----------------------------------------
 BYTE   W96
// 014   ----------------------------------------
 BYTE   W96
// 015   ----------------------------------------
 BYTE   W96
// 016   ----------------------------------------
Label_8_014A3938:
 BYTE   N12  Cn4  v100
 BYTE   W12
 BYTE   An3
 BYTE   W12
 BYTE   Cn4
 BYTE   W11
 BYTE   Dn4
 BYTE   W13
 BYTE   Cn4
 BYTE   W12
 BYTE   Dn4
 BYTE   W12
 BYTE   N24  Fn4
 BYTE   W24
 BYTE   PEND 
// 017   ----------------------------------------
Label_8_014A394A:
 BYTE   N12  An4  v100
 BYTE   W12
 BYTE   Gn4
 BYTE   W12
 BYTE   An4
 BYTE   W12
 BYTE   Fn4
 BYTE   W12
 BYTE   An3
 BYTE   W12
 BYTE   Gn3
 BYTE   W12
 BYTE   An3
 BYTE   W11
 BYTE   Fn3
 BYTE   W13
 BYTE   PEND 
// 018   ----------------------------------------
Label_8_014A395D:
 BYTE   N06  Bn3  v100
 BYTE   W06
 BYTE   Gn3
 BYTE   W06
 BYTE   Bn3
 BYTE   W06
 BYTE   Dn4
 BYTE   W06
 BYTE   Gn4
 BYTE   W07
 BYTE   Dn4
 BYTE   W05
 BYTE   Gn4
 BYTE   W06
 BYTE   An4
 BYTE   W06
 BYTE   Bn4
 BYTE   W07
 BYTE   Gn4
 BYTE   W06
 BYTE   Dn4
 BYTE   W07
 BYTE   Gn3
 BYTE   W04
 BYTE   Bn3
 BYTE   W06
 BYTE   An3
 BYTE   W06
 BYTE   Gn3
 BYTE   W06
 BYTE   An3
 BYTE   W06
 BYTE   PEND 
// 019   ----------------------------------------
Label_8_014A3980:
 BYTE   N06  Bn3  v100
 BYTE   W07
 BYTE   Gn3
 BYTE   W05
 BYTE   Bn3
 BYTE   W06
 BYTE   Dn4
 BYTE   W06
 BYTE   Gn4
 BYTE   W07
 BYTE   An4
 BYTE   W05
 BYTE   Bn4
 BYTE   W06
 BYTE   An4
 BYTE   W06
 BYTE   Gn4
 BYTE   W07
 BYTE   Dn4
 BYTE   W06
 BYTE   Bn3
 BYTE   W07
 BYTE   An3
 BYTE   W04
 BYTE   Bn3
 BYTE   W05
 BYTE   Dn4
 BYTE   W07
 BYTE   Bn3
 BYTE   W06
 BYTE   Gn3
 BYTE   W06
 BYTE   PEND 
// 020   ----------------------------------------
Label_8_014A39A3:
 BYTE   N12  Cn4  v100
 BYTE   W12
 BYTE   An3
 BYTE   W11
 BYTE   Cn4
 BYTE   W12
 BYTE   Dn4
 BYTE   W13
 BYTE   Cn4
 BYTE   W11
 BYTE   Dn4
 BYTE   W12
 BYTE   N24  Fn4
 BYTE   W24
 BYTE   W01
 BYTE   PEND 
// 021   ----------------------------------------
Label_8_014A39B6:
 BYTE   N12  An4  v100
 BYTE   W12
 BYTE   Gn4
 BYTE   W12
 BYTE   An4
 BYTE   W11
 BYTE   Fn4
 BYTE   W12
 BYTE   An3
 BYTE   W12
 BYTE   Gn3
 BYTE   W12
 BYTE   Fn3
 BYTE   W12
 BYTE   An3
 BYTE   W13
 BYTE   PEND 
// 022   ----------------------------------------
Label_8_014A39C9:
 BYTE   N06  Gn3  v100
 BYTE   W07
 BYTE   En3
 BYTE   W05
 BYTE   Gn3
 BYTE   W06
 BYTE   Cn4
 BYTE   W06
 BYTE   En4
 BYTE   W07
 BYTE   Cn4
 BYTE   W06
 BYTE   Gn3
 BYTE   W06
 BYTE   En3
 BYTE   W05
 BYTE   Gn3
 BYTE   W07
 BYTE   En3
 BYTE   W05
 BYTE   Gn3
 BYTE   W06
 BYTE   Cn4
 BYTE   W06
 BYTE   En4
 BYTE   W06
 BYTE   Cn4
 BYTE   W06
 BYTE   Gn3
 BYTE   W06
 BYTE   An3
 BYTE   W06
 BYTE   PEND 
// 023   ----------------------------------------
Label_8_014A39EC:
 BYTE   W01
 BYTE   N06  Bn3  v100
 BYTE   W06
 BYTE   An3
 BYTE   W05
 BYTE   Bn3
 BYTE   W06
 BYTE   Dn4
 BYTE   W06
 BYTE   Gn4
 BYTE   W07
 BYTE   Dn4
 BYTE   W07
 BYTE   Gn3
 BYTE   W06
 BYTE   An3
 BYTE   W05
 BYTE   Bn3
 BYTE   W07
 BYTE   An3
 BYTE   W06
 BYTE   Bn3
 BYTE   W06
 BYTE   Dn4
 BYTE   W06
 BYTE   Gn4
 BYTE   W07
 BYTE   Dn4
 BYTE   W05
 BYTE   Bn3
 BYTE   W04
 BYTE   Gn3
 BYTE   W06
 BYTE   PEND 
 BYTE   PATT
  POIN2 Label_8_014A3938
 BYTE   PATT
  POIN2 Label_8_014A394A
 BYTE   PATT
  POIN2 Label_8_014A395D
 BYTE   PATT
  POIN2 Label_8_014A3980
 BYTE   PATT
  POIN2 Label_8_014A39A3
 BYTE   PATT
  POIN2 Label_8_014A39B6
 BYTE   PATT
  POIN2 Label_8_014A39C9
 BYTE   PATT
  POIN2 Label_8_014A39EC
// 024   ----------------------------------------
 BYTE   W96
// 025   ----------------------------------------
 BYTE   W96
// 026   ----------------------------------------
 BYTE   W96
// 027   ----------------------------------------
 BYTE   W96
// 028   ----------------------------------------
 BYTE   W96
// 029   ----------------------------------------
 BYTE   W96
// 030   ----------------------------------------
 BYTE   W96
// 031   ----------------------------------------
 BYTE   W96
// 032   ----------------------------------------
 BYTE   W96
// 033   ----------------------------------------
 BYTE   W96
// 034   ----------------------------------------
 BYTE   W96
// 035   ----------------------------------------
 BYTE   W96
// 036   ----------------------------------------
 BYTE   W96
// 037   ----------------------------------------
 BYTE   W96
// 038   ----------------------------------------
 BYTE   W96
// 039   ----------------------------------------
 BYTE   W96
// 040   ----------------------------------------
 BYTE   W96
// 041   ----------------------------------------
 BYTE   W96
// 042   ----------------------------------------
 BYTE   W96
// 043   ----------------------------------------
 BYTE   W96
// 044   ----------------------------------------
 BYTE   W96
// 045   ----------------------------------------
 BYTE   W96
// 046   ----------------------------------------
 BYTE   W96
// 047   ----------------------------------------
 BYTE   W96
// 048   ----------------------------------------
 BYTE   W96
// 049   ----------------------------------------
 BYTE   W96
// 050   ----------------------------------------
 BYTE   W96
// 051   ----------------------------------------
 BYTE   W96
// 052   ----------------------------------------
 BYTE   W96
// 053   ----------------------------------------
 BYTE   W96
// 054   ----------------------------------------
 BYTE   W96
// 055   ----------------------------------------
 BYTE   W96
// 056   ----------------------------------------
Label_8_014A3A58:
 BYTE   N12  En4  v100
 BYTE   W11
 BYTE   Fn4
 BYTE   W13
 BYTE   Gn4
 BYTE   W12
 BYTE   Cn4
 BYTE   W24
 BYTE   Gn4
 BYTE   W24
 BYTE   As4
 BYTE   W12
 BYTE   PEND 
// 057   ----------------------------------------
Label_8_014A3A67:
 BYTE   W12
 BYTE   N12  As4  v100
 BYTE   W12
 BYTE   An4
 BYTE   W12
 BYTE   Gn4
 BYTE   W13
 BYTE   N44  Fn4
 BYTE   W44
 BYTE   W03
 BYTE   PEND 
// 058   ----------------------------------------
 BYTE   N12  Gn4
 BYTE   W12
 BYTE   Cn4
 BYTE   W13
 BYTE   N12
 BYTE   W11
 BYTE   Gn4
 BYTE   W12
 BYTE   En4
 BYTE   W11
 BYTE   Fn4
 BYTE   W13
 BYTE   Gn4
 BYTE   W11
 BYTE   Cn4
 BYTE   W13
// 059   ----------------------------------------
 BYTE   An4
 BYTE   W12
 BYTE   As4
 BYTE   W12
 BYTE   Cn5
 BYTE   W11
 BYTE   As4
 BYTE   W13
 BYTE   An4
 BYTE   W12
 BYTE   Gn4
 BYTE   W12
 BYTE   Fn4
 BYTE   W11
 BYTE   An4
 BYTE   W13
 BYTE   PATT
  POIN2 Label_8_014A3A58
 BYTE   PATT
  POIN2 Label_8_014A3A67
// 060   ----------------------------------------
 BYTE   N12  Gs4  v100
 BYTE   W12
 BYTE   N12
 BYTE   W12
 BYTE   As4
 BYTE   W11
 BYTE   Cn5
 BYTE   W13
 BYTE   N12
 BYTE   W12
 BYTE   As4
 BYTE   W12
 BYTE   Gs4
 BYTE   W11
 BYTE   N24  As4
 BYTE   W13
// 061   ----------------------------------------
 BYTE   W12
 BYTE   Dn4
 BYTE   W24
 BYTE   N12  As4
 BYTE   W12
 BYTE   Dn4
 BYTE   W11
 BYTE   Fn4
 BYTE   W13
 BYTE   As4
 BYTE   W12
 BYTE   Dn4
 BYTE   W12
// 062   ----------------------------------------
 BYTE   W96
// 063   ----------------------------------------
 BYTE   W96
// 064   ----------------------------------------
 BYTE   W96
// 065   ----------------------------------------
 BYTE   W96
// 066   ----------------------------------------
 BYTE   W96
// 067   ----------------------------------------
 BYTE   W96
// 068   ----------------------------------------
Label_8_014A3AC7:
 BYTE   N06  Gn3  v100
 BYTE   W06
 BYTE   En3
 BYTE   W05
 BYTE   Gn3
 BYTE   W06
 BYTE   Cn4
 BYTE   W07
 BYTE   En4
 BYTE   W06
 BYTE   Cn4
 BYTE   W07
 BYTE   Gn3
 BYTE   W05
 BYTE   En3
 BYTE   W06
 BYTE   Gn3
 BYTE   W06
 BYTE   En3
 BYTE   W06
 BYTE   Gn3
 BYTE   W06
 BYTE   Cn4
 BYTE   W05
 BYTE   En4
 BYTE   W06
 BYTE   Cn4
 BYTE   W07
 BYTE   Gn3
 BYTE   W05
 BYTE   An3
 BYTE   W07
 BYTE   PEND 
// 069   ----------------------------------------
Label_8_014A3AEA:
 BYTE   N06  Bn3  v100
 BYTE   W06
 BYTE   An3
 BYTE   W06
 BYTE   Bn3
 BYTE   W06
 BYTE   Dn4
 BYTE   W05
 BYTE   Gn4
 BYTE   W07
 BYTE   Dn4
 BYTE   W07
 BYTE   Gn3
 BYTE   W06
 BYTE   An3
 BYTE   W06
 BYTE   Bn3
 BYTE   W06
 BYTE   An3
 BYTE   W07
 BYTE   Bn3
 BYTE   W06
 BYTE   Dn4
 BYTE   W05
 BYTE   Gn4
 BYTE   W07
 BYTE   Dn4
 BYTE   W06
 BYTE   Bn3
 BYTE   W04
 BYTE   Gn3
 BYTE   W06
 BYTE   PEND 
 BYTE   PATT
  POIN2 Label_8_014A39A3
// 070   ----------------------------------------
Label_8_014A3B12:
 BYTE   N12  An4  v100
 BYTE   W12
 BYTE   Gn4
 BYTE   W12
 BYTE   An4
 BYTE   W11
 BYTE   Fn4
 BYTE   W12
 BYTE   An3
 BYTE   W12
 BYTE   Gn3
 BYTE   W12
 BYTE   An3
 BYTE   W12
 BYTE   Fn3
 BYTE   W13
 BYTE   PEND 
// 071   ----------------------------------------
Label_8_014A3B25:
 BYTE   N06  Bn3  v100
 BYTE   W05
 BYTE   Gn3
 BYTE   W06
 BYTE   Bn3
 BYTE   W06
 BYTE   Dn4
 BYTE   W07
 BYTE   Gn4
 BYTE   W07
 BYTE   Dn4
 BYTE   W05
 BYTE   Gn4
 BYTE   W05
 BYTE   An4
 BYTE   W07
 BYTE   Bn4
 BYTE   W06
 BYTE   Gn4
 BYTE   W07
 BYTE   Dn4
 BYTE   W06
 BYTE   Gn3
 BYTE   W04
 BYTE   Bn3
 BYTE   W06
 BYTE   An3
 BYTE   W07
 BYTE   Gn3
 BYTE   W05
 BYTE   An3
 BYTE   W07
 BYTE   PEND 
// 072   ----------------------------------------
Label_8_014A3B48:
 BYTE   N06  Bn3  v100
 BYTE   W06
 BYTE   Gn3
 BYTE   W06
 BYTE   Bn3
 BYTE   W06
 BYTE   Dn4
 BYTE   W06
 BYTE   Gn4
 BYTE   W06
 BYTE   An4
 BYTE   W06
 BYTE   Bn4
 BYTE   W06
 BYTE   An4
 BYTE   W06
 BYTE   Gn4
 BYTE   W06
 BYTE   Dn4
 BYTE   W07
 BYTE   Bn3
 BYTE   W06
 BYTE   An3
 BYTE   W05
 BYTE   Bn3
 BYTE   W05
 BYTE   Dn4
 BYTE   W06
 BYTE   Bn3
 BYTE   W07
 BYTE   Gn3
 BYTE   W05
 BYTE   N12  Cn4
 BYTE   W01
 BYTE   PEND 
// 073   ----------------------------------------
Label_8_014A3B6E:
 BYTE   W11
 BYTE   N12  An3  v100
 BYTE   W11
 BYTE   Cn4
 BYTE   W12
 BYTE   Dn4
 BYTE   W13
 BYTE   Cn4
 BYTE   W12
 BYTE   Dn4
 BYTE   W11
 BYTE   N24  Fn4
 BYTE   W24
 BYTE   W01
 BYTE   N12  An4
 BYTE   W01
 BYTE   PEND 
// 074   ----------------------------------------
Label_8_014A3B83:
 BYTE   W11
 BYTE   N12  Gn4  v100
 BYTE   W12
 BYTE   An4
 BYTE   W12
 BYTE   Fn4
 BYTE   W11
 BYTE   An3
 BYTE   W13
 BYTE   Gn3
 BYTE   W11
 BYTE   Fn3
 BYTE   W12
 BYTE   An3
 BYTE   W14
 BYTE   PEND 
 BYTE   PATT
  POIN2 Label_8_014A3AC7
 BYTE   PATT
  POIN2 Label_8_014A3AEA
// 075   ----------------------------------------
 BYTE   W96
// 076   ----------------------------------------
 BYTE   W96
// 077   ----------------------------------------
 BYTE   W96
// 078   ----------------------------------------
 BYTE   W96
// 079   ----------------------------------------
 BYTE   W96
// 080   ----------------------------------------
 BYTE   W96
// 081   ----------------------------------------
 BYTE   W96
// 082   ----------------------------------------
 BYTE   W96
// 083   ----------------------------------------
 BYTE   W96
// 084   ----------------------------------------
 BYTE   W96
// 085   ----------------------------------------
 BYTE   W96
// 086   ----------------------------------------
 BYTE   W96
// 087   ----------------------------------------
 BYTE   W96
// 088   ----------------------------------------
 BYTE   W96
// 089   ----------------------------------------
 BYTE   W96
// 090   ----------------------------------------
 BYTE   W96
// 091   ----------------------------------------
 BYTE   W96
// 092   ----------------------------------------
 BYTE   W96
// 093   ----------------------------------------
 BYTE   W96
// 094   ----------------------------------------
 BYTE   W96
// 095   ----------------------------------------
 BYTE   W96
// 096   ----------------------------------------
 BYTE   W96
// 097   ----------------------------------------
 BYTE   W96
// 098   ----------------------------------------
 BYTE   W96
// 099   ----------------------------------------
 BYTE   W96
// 100   ----------------------------------------
 BYTE   W96
// 101   ----------------------------------------
 BYTE   W96
// 102   ----------------------------------------
 BYTE   W96
// 103   ----------------------------------------
 BYTE   W96
// 104   ----------------------------------------
 BYTE   W96
// 105   ----------------------------------------
 BYTE   W96
// 106   ----------------------------------------
 BYTE   W96
 BYTE   PATT
  POIN2 Label_8_014A3938
 BYTE   PATT
  POIN2 Label_8_014A394A
 BYTE   PATT
  POIN2 Label_8_014A395D
 BYTE   PATT
  POIN2 Label_8_014A3980
 BYTE   PATT
  POIN2 Label_8_014A39A3
 BYTE   PATT
  POIN2 Label_8_014A39B6
 BYTE   PATT
  POIN2 Label_8_014A39C9
 BYTE   PATT
  POIN2 Label_8_014A39EC
 BYTE   PATT
  POIN2 Label_8_014A3938
 BYTE   PATT
  POIN2 Label_8_014A394A
 BYTE   PATT
  POIN2 Label_8_014A395D
 BYTE   PATT
  POIN2 Label_8_014A3980
 BYTE   PATT
  POIN2 Label_8_014A39A3
 BYTE   PATT
  POIN2 Label_8_014A39B6
 BYTE   PATT
  POIN2 Label_8_014A39C9
 BYTE   PATT
  POIN2 Label_8_014A39EC
// 107   ----------------------------------------
 BYTE   W96
// 108   ----------------------------------------
 BYTE   W96
// 109   ----------------------------------------
 BYTE   W96
// 110   ----------------------------------------
 BYTE   W96
// 111   ----------------------------------------
 BYTE   W96
// 112   ----------------------------------------
 BYTE   W96
// 113   ----------------------------------------
 BYTE   W96
// 114   ----------------------------------------
 BYTE   W96
// 115   ----------------------------------------
 BYTE   W96
// 116   ----------------------------------------
 BYTE   W96
// 117   ----------------------------------------
 BYTE   W96
// 118   ----------------------------------------
 BYTE   W96
// 119   ----------------------------------------
 BYTE   W96
// 120   ----------------------------------------
 BYTE   W96
// 121   ----------------------------------------
 BYTE   W96
// 122   ----------------------------------------
 BYTE   W96
// 123   ----------------------------------------
 BYTE   W96
// 124   ----------------------------------------
 BYTE   W96
// 125   ----------------------------------------
 BYTE   W96
// 126   ----------------------------------------
 BYTE   W96
// 127   ----------------------------------------
 BYTE   W96
// 128   ----------------------------------------
 BYTE   W96
// 129   ----------------------------------------
 BYTE   W96
// 130   ----------------------------------------
 BYTE   W96
// 131   ----------------------------------------
 BYTE   W96
// 132   ----------------------------------------
 BYTE   W96
// 133   ----------------------------------------
 BYTE   W96
// 134   ----------------------------------------
 BYTE   W96
// 135   ----------------------------------------
 BYTE   W96
// 136   ----------------------------------------
 BYTE   W96
// 137   ----------------------------------------
 BYTE   W96
// 138   ----------------------------------------
 BYTE   W96
// 139   ----------------------------------------
Label_8_014A3C2F:
 BYTE   N12  En4  v100
 BYTE   W11
 BYTE   Fn4
 BYTE   W12
 BYTE   Gn4
 BYTE   W12
 BYTE   Cn4
 BYTE   W24
 BYTE   Gn4
 BYTE   W24
 BYTE   As4
 BYTE   W13
 BYTE   PEND 
// 140   ----------------------------------------
 BYTE   W12
 BYTE   N12
 BYTE   W11
 BYTE   An4
 BYTE   W12
 BYTE   Gn4
 BYTE   W13
 BYTE   N24  Fn4
 BYTE   W48
// 141   ----------------------------------------
 BYTE   N12  Gn4
 BYTE   W12
 BYTE   Cn4
 BYTE   W12
 BYTE   N12
 BYTE   W11
 BYTE   Gn4
 BYTE   W12
 BYTE   En4
 BYTE   W12
 BYTE   Fn4
 BYTE   W12
 BYTE   Gn4
 BYTE   W12
 BYTE   Cn4
 BYTE   W13
// 142   ----------------------------------------
 BYTE   An4
 BYTE   W11
 BYTE   As4
 BYTE   W12
 BYTE   Cn5
 BYTE   W12
 BYTE   As4
 BYTE   W12
 BYTE   An4
 BYTE   W12
 BYTE   Gn4
 BYTE   W12
 BYTE   Fn4
 BYTE   W12
 BYTE   An4
 BYTE   W13
 BYTE   PATT
  POIN2 Label_8_014A3C2F
// 143   ----------------------------------------
 BYTE   W12
 BYTE   N12  As4  v100
 BYTE   W11
 BYTE   An4
 BYTE   W12
 BYTE   Gn4
 BYTE   W13
 BYTE   N24  Fn4
 BYTE   W44
 BYTE   W03
 BYTE   N12  Gs4
 BYTE   W01
// 144   ----------------------------------------
 BYTE   W11
 BYTE   N12
 BYTE   W12
 BYTE   As4
 BYTE   W11
 BYTE   Cn5
 BYTE   W13
 BYTE   N12
 BYTE   W12
 BYTE   As4
 BYTE   W12
 BYTE   Gs4
 BYTE   W11
 BYTE   As4
 BYTE   W14
// 145   ----------------------------------------
 BYTE   W12
 BYTE   N24  Dn4
 BYTE   W23
 BYTE   N12  As4
 BYTE   W13
 BYTE   Dn4
 BYTE   W11
 BYTE   Fn4
 BYTE   W13
 BYTE   As4
 BYTE   W11
 BYTE   Dn4
 BYTE   W13
// 146   ----------------------------------------
 BYTE   W96
// 147   ----------------------------------------
 BYTE   W96
// 148   ----------------------------------------
 BYTE   W96
// 149   ----------------------------------------
 BYTE   W96
// 150   ----------------------------------------
 BYTE   W96
// 151   ----------------------------------------
 BYTE   W96
 BYTE   PATT
  POIN2 Label_8_014A3AC7
 BYTE   PATT
  POIN2 Label_8_014A3AEA
 BYTE   PATT
  POIN2 Label_8_014A39A3
 BYTE   PATT
  POIN2 Label_8_014A3B12
 BYTE   PATT
  POIN2 Label_8_014A3B25
 BYTE   PATT
  POIN2 Label_8_014A3B48
 BYTE   PATT
  POIN2 Label_8_014A3B6E
 BYTE   PATT
  POIN2 Label_8_014A3B83
 BYTE   PATT
  POIN2 Label_8_014A3AC7
 BYTE   PATT
  POIN2 Label_8_014A3AEA
 BYTE   FINE

//**************** Track 10 (Midi-Chn.9) ****************//

MarioTennisRound2Pandan_010:
// 000   ----------------------------------------
 BYTE   KEYSH   MarioTennisRound2Pandan_key+0
 BYTE   VOICE   100
 BYTE   VOL   4*MarioTennisRound2Pandan_mvl/mxv
 BYTE   PAN   c_v+0
 BYTE   W96
// 001   ----------------------------------------
 BYTE   W96
// 002   ----------------------------------------
 BYTE   W96
// 003   ----------------------------------------
 BYTE   W96
// 004   ----------------------------------------
 BYTE   W96
// 005   ----------------------------------------
 BYTE   W96
// 006   ----------------------------------------
 BYTE   W96
// 007   ----------------------------------------
 BYTE   W96
// 008   ----------------------------------------
 BYTE   W96
// 009   ----------------------------------------
 BYTE   W96
// 010   ----------------------------------------
 BYTE   W96
// 011   ----------------------------------------
 BYTE   W96
// 012   ----------------------------------------
 BYTE   W96
// 013   ----------------------------------------
 BYTE   W96
// 014   ----------------------------------------
 BYTE   W96
// 015   ----------------------------------------
 BYTE   W96
// 016   ----------------------------------------
 BYTE   W24
 BYTE   N12  Cn4  v100
 BYTE   W12
 BYTE   An3
 BYTE   W11
 BYTE   Cn4
 BYTE   W12
 BYTE   Dn4
 BYTE   W13
 BYTE   Cn4
 BYTE   W11
 BYTE   Dn4
 BYTE   W12
 BYTE   N24  Fn4
 BYTE   W01
// 017   ----------------------------------------
Label_9_014A3D02:
 BYTE   W24
 BYTE   N12  An4  v100
 BYTE   W12
 BYTE   Gn4
 BYTE   W12
 BYTE   An4
 BYTE   W11
 BYTE   Fn4
 BYTE   W12
 BYTE   An3
 BYTE   W12
 BYTE   Gn3
 BYTE   W12
 BYTE   An3
 BYTE   W01
 BYTE   PEND 
// 018   ----------------------------------------
Label_9_014A3D14:
 BYTE   W11
 BYTE   N12  Fn3  v100
 BYTE   W13
 BYTE   N06  Bn3
 BYTE   W05
 BYTE   Gn3
 BYTE   W06
 BYTE   Bn3
 BYTE   W06
 BYTE   Dn4
 BYTE   W07
 BYTE   Gn4
 BYTE   W07
 BYTE   Dn4
 BYTE   W05
 BYTE   Gn4
 BYTE   W05
 BYTE   An4
 BYTE   W07
 BYTE   Bn4
 BYTE   W06
 BYTE   Gn4
 BYTE   W07
 BYTE   Dn4
 BYTE   W06
 BYTE   Gn3
 BYTE   W04
 BYTE   Bn3
 BYTE   W01
 BYTE   PEND 
// 019   ----------------------------------------
Label_9_014A3D35:
 BYTE   W05
 BYTE   N06  An3  v100
 BYTE   W07
 BYTE   Gn3
 BYTE   W05
 BYTE   An3
 BYTE   W07
 BYTE   Bn3
 BYTE   W06
 BYTE   Gn3
 BYTE   W06
 BYTE   Bn3
 BYTE   W06
 BYTE   Dn4
 BYTE   W06
 BYTE   Gn4
 BYTE   W06
 BYTE   An4
 BYTE   W06
 BYTE   Bn4
 BYTE   W06
 BYTE   An4
 BYTE   W06
 BYTE   Gn4
 BYTE   W06
 BYTE   Dn4
 BYTE   W07
 BYTE   Bn3
 BYTE   W06
 BYTE   An3
 BYTE   W05
 BYTE   PEND 
// 020   ----------------------------------------
Label_9_014A3D57:
 BYTE   N06  Bn3  v100
 BYTE   W05
 BYTE   Dn4
 BYTE   W06
 BYTE   Bn3
 BYTE   W07
 BYTE   Gn3
 BYTE   W05
 BYTE   N12  Cn4
 BYTE   W12
 BYTE   An3
 BYTE   W11
 BYTE   Cn4
 BYTE   W12
 BYTE   Dn4
 BYTE   W13
 BYTE   Cn4
 BYTE   W12
 BYTE   Dn4
 BYTE   W11
 BYTE   N24  Fn4
 BYTE   W02
 BYTE   PEND 
// 021   ----------------------------------------
Label_9_014A3D72:
 BYTE   W23
 BYTE   N12  An4  v100
 BYTE   W12
 BYTE   Gn4
 BYTE   W12
 BYTE   An4
 BYTE   W12
 BYTE   Fn4
 BYTE   W11
 BYTE   An3
 BYTE   W13
 BYTE   Gn3
 BYTE   W11
 BYTE   Fn3
 BYTE   W02
 BYTE   PEND 
// 022   ----------------------------------------
Label_9_014A3D84:
 BYTE   W10
 BYTE   N12  An3  v100
 BYTE   W14
 BYTE   N06  Gn3
 BYTE   W06
 BYTE   En3
 BYTE   W05
 BYTE   Gn3
 BYTE   W06
 BYTE   Cn4
 BYTE   W07
 BYTE   En4
 BYTE   W06
 BYTE   Cn4
 BYTE   W07
 BYTE   Gn3
 BYTE   W05
 BYTE   En3
 BYTE   W06
 BYTE   Gn3
 BYTE   W06
 BYTE   En3
 BYTE   W06
 BYTE   Gn3
 BYTE   W06
 BYTE   Cn4
 BYTE   W05
 BYTE   En4
 BYTE   W01
 BYTE   PEND 
// 023   ----------------------------------------
Label_9_014A3DA5:
 BYTE   W05
 BYTE   N06  Cn4  v100
 BYTE   W07
 BYTE   Gn3
 BYTE   W05
 BYTE   An3
 BYTE   W07
 BYTE   Bn3
 BYTE   W06
 BYTE   An3
 BYTE   W06
 BYTE   Bn3
 BYTE   W06
 BYTE   Dn4
 BYTE   W05
 BYTE   Gn4
 BYTE   W07
 BYTE   Dn4
 BYTE   W07
 BYTE   Gn3
 BYTE   W06
 BYTE   An3
 BYTE   W06
 BYTE   Bn3
 BYTE   W06
 BYTE   An3
 BYTE   W07
 BYTE   Bn3
 BYTE   W06
 BYTE   Dn4
 BYTE   W04
 BYTE   PEND 
// 024   ----------------------------------------
 BYTE   W01
 BYTE   Gn4
 BYTE   W07
 BYTE   Dn4
 BYTE   W06
 BYTE   Bn3
 BYTE   W04
 BYTE   Gn3
 BYTE   W06
 BYTE   N12  Cn4
 BYTE   W12
 BYTE   An3
 BYTE   W11
 BYTE   Cn4
 BYTE   W12
 BYTE   Dn4
 BYTE   W13
 BYTE   Cn4
 BYTE   W11
 BYTE   Dn4
 BYTE   W12
 BYTE   N24  Fn4
 BYTE   W01
 BYTE   PATT
  POIN2 Label_9_014A3D02
 BYTE   PATT
  POIN2 Label_9_014A3D14
 BYTE   PATT
  POIN2 Label_9_014A3D35
 BYTE   PATT
  POIN2 Label_9_014A3D57
 BYTE   PATT
  POIN2 Label_9_014A3D72
 BYTE   PATT
  POIN2 Label_9_014A3D84
 BYTE   PATT
  POIN2 Label_9_014A3DA5
// 025   ----------------------------------------
 BYTE   W01
 BYTE   N06  Gn4  v100
 BYTE   W07
 BYTE   Dn4
 BYTE   W06
 BYTE   Bn3
 BYTE   W04
 BYTE   Gn3
 BYTE   W78
// 026   ----------------------------------------
 BYTE   W96
// 027   ----------------------------------------
 BYTE   W96
// 028   ----------------------------------------
 BYTE   W96
// 029   ----------------------------------------
 BYTE   W96
// 030   ----------------------------------------
 BYTE   W96
// 031   ----------------------------------------
 BYTE   W96
// 032   ----------------------------------------
 BYTE   W96
// 033   ----------------------------------------
 BYTE   W96
// 034   ----------------------------------------
 BYTE   W96
// 035   ----------------------------------------
 BYTE   W96
// 036   ----------------------------------------
 BYTE   W96
// 037   ----------------------------------------
 BYTE   W96
// 038   ----------------------------------------
 BYTE   W96
// 039   ----------------------------------------
 BYTE   W96
// 040   ----------------------------------------
 BYTE   W96
// 041   ----------------------------------------
 BYTE   W96
// 042   ----------------------------------------
 BYTE   W96
// 043   ----------------------------------------
 BYTE   W96
// 044   ----------------------------------------
 BYTE   W96
// 045   ----------------------------------------
 BYTE   W96
// 046   ----------------------------------------
 BYTE   W96
// 047   ----------------------------------------
 BYTE   W96
// 048   ----------------------------------------
 BYTE   W96
// 049   ----------------------------------------
 BYTE   W96
// 050   ----------------------------------------
 BYTE   W96
// 051   ----------------------------------------
 BYTE   W96
// 052   ----------------------------------------
 BYTE   W96
// 053   ----------------------------------------
 BYTE   W96
// 054   ----------------------------------------
 BYTE   W96
// 055   ----------------------------------------
 BYTE   W96
// 056   ----------------------------------------
 BYTE   W96
// 057   ----------------------------------------
 BYTE   W24
 BYTE   N12  En4
 BYTE   W11
 BYTE   Fn4
 BYTE   W13
 BYTE   Gn4
 BYTE   W12
 BYTE   Cn4
 BYTE   W24
 BYTE   Gn4
 BYTE   W12
// 058   ----------------------------------------
Label_9_014A3E39:
 BYTE   W12
 BYTE   N12  As4  v100
 BYTE   W24
 BYTE   N12
 BYTE   W12
 BYTE   An4
 BYTE   W12
 BYTE   Gn4
 BYTE   W13
 BYTE   N44  Fn4
 BYTE   W23
 BYTE   PEND 
// 059   ----------------------------------------
 BYTE   W24
 BYTE   N12  Gn4
 BYTE   W12
 BYTE   Cn4
 BYTE   W13
 BYTE   N12
 BYTE   W11
 BYTE   Gn4
 BYTE   W12
 BYTE   En4
 BYTE   W11
 BYTE   Fn4
 BYTE   W13
// 060   ----------------------------------------
 BYTE   Gn4
 BYTE   W11
 BYTE   Cn4
 BYTE   W13
 BYTE   An4
 BYTE   W12
 BYTE   As4
 BYTE   W12
 BYTE   Cn5
 BYTE   W11
 BYTE   As4
 BYTE   W13
 BYTE   An4
 BYTE   W12
 BYTE   Gn4
 BYTE   W12
// 061   ----------------------------------------
 BYTE   Fn4
 BYTE   W11
 BYTE   An4
 BYTE   W13
 BYTE   En4
 BYTE   W11
 BYTE   Fn4
 BYTE   W13
 BYTE   Gn4
 BYTE   W12
 BYTE   Cn4
 BYTE   W24
 BYTE   Gn4
 BYTE   W12
 BYTE   PATT
  POIN2 Label_9_014A3E39
// 062   ----------------------------------------
Label_9_014A3E79:
 BYTE   W24
 BYTE   N12  Gs4  v100
 BYTE   W12
 BYTE   N12
 BYTE   W12
 BYTE   As4
 BYTE   W11
 BYTE   Cn5
 BYTE   W13
 BYTE   N12
 BYTE   W12
 BYTE   As4
 BYTE   W12
 BYTE   PEND 
// 063   ----------------------------------------
 BYTE   Gs4
 BYTE   W11
 BYTE   N24  As4
 BYTE   W24
 BYTE   W01
 BYTE   Dn4
 BYTE   W24
 BYTE   N12  As4
 BYTE   W12
 BYTE   Dn4
 BYTE   W11
 BYTE   Fn4
 BYTE   W13
// 064   ----------------------------------------
 BYTE   As4
 BYTE   W12
 BYTE   Dn4
 BYTE   W84
// 065   ----------------------------------------
 BYTE   W96
// 066   ----------------------------------------
 BYTE   W96
// 067   ----------------------------------------
 BYTE   W96
// 068   ----------------------------------------
 BYTE   W96
// 069   ----------------------------------------
 BYTE   W96
// 070   ----------------------------------------
Label_9_014A3EA1:
 BYTE   W24
 BYTE   N06  Gn3  v100
 BYTE   W07
 BYTE   En3
 BYTE   W05
 BYTE   Gn3
 BYTE   W06
 BYTE   Cn4
 BYTE   W06
 BYTE   En4
 BYTE   W07
 BYTE   Cn4
 BYTE   W06
 BYTE   Gn3
 BYTE   W06
 BYTE   En3
 BYTE   W05
 BYTE   Gn3
 BYTE   W07
 BYTE   En3
 BYTE   W05
 BYTE   Gn3
 BYTE   W06
 BYTE   Cn4
 BYTE   W06
 BYTE   PEND 
// 071   ----------------------------------------
Label_9_014A3EBD:
 BYTE   N06  En4  v100
 BYTE   W06
 BYTE   Cn4
 BYTE   W06
 BYTE   Gn3
 BYTE   W06
 BYTE   An3
 BYTE   W07
 BYTE   Bn3
 BYTE   W06
 BYTE   An3
 BYTE   W05
 BYTE   Bn3
 BYTE   W06
 BYTE   Dn4
 BYTE   W06
 BYTE   Gn4
 BYTE   W07
 BYTE   Dn4
 BYTE   W07
 BYTE   Gn3
 BYTE   W06
 BYTE   An3
 BYTE   W05
 BYTE   Bn3
 BYTE   W07
 BYTE   An3
 BYTE   W06
 BYTE   Bn3
 BYTE   W06
 BYTE   Dn4
 BYTE   W04
 BYTE   PEND 
// 072   ----------------------------------------
Label_9_014A3EE0:
 BYTE   W02
 BYTE   N06  Gn4  v100
 BYTE   W07
 BYTE   Dn4
 BYTE   W05
 BYTE   Bn3
 BYTE   W04
 BYTE   Gn3
 BYTE   W06
 BYTE   N12  Cn4
 BYTE   W12
 BYTE   An3
 BYTE   W12
 BYTE   Cn4
 BYTE   W11
 BYTE   Dn4
 BYTE   W13
 BYTE   Cn4
 BYTE   W12
 BYTE   Dn4
 BYTE   W12
 BYTE   PEND 
// 073   ----------------------------------------
Label_9_014A3EF9:
 BYTE   N24  Fn4  v100
 BYTE   W24
 BYTE   N12  An4
 BYTE   W12
 BYTE   Gn4
 BYTE   W12
 BYTE   An4
 BYTE   W12
 BYTE   Fn4
 BYTE   W12
 BYTE   An3
 BYTE   W12
 BYTE   Gn3
 BYTE   W12
 BYTE   PEND 
// 074   ----------------------------------------
Label_9_014A3F0B:
 BYTE   N12  An3  v100
 BYTE   W11
 BYTE   Fn3
 BYTE   W13
 BYTE   N06  Bn3
 BYTE   W06
 BYTE   Gn3
 BYTE   W06
 BYTE   Bn3
 BYTE   W06
 BYTE   Dn4
 BYTE   W06
 BYTE   Gn4
 BYTE   W07
 BYTE   Dn4
 BYTE   W05
 BYTE   Gn4
 BYTE   W06
 BYTE   An4
 BYTE   W06
 BYTE   Bn4
 BYTE   W07
 BYTE   Gn4
 BYTE   W06
 BYTE   Dn4
 BYTE   W07
 BYTE   Gn3
 BYTE   W04
 BYTE   PEND 
// 075   ----------------------------------------
Label_9_014A3F2B:
 BYTE   N06  Bn3  v100
 BYTE   W06
 BYTE   An3
 BYTE   W06
 BYTE   Gn3
 BYTE   W06
 BYTE   An3
 BYTE   W06
 BYTE   Bn3
 BYTE   W07
 BYTE   Gn3
 BYTE   W05
 BYTE   Bn3
 BYTE   W06
 BYTE   Dn4
 BYTE   W06
 BYTE   Gn4
 BYTE   W07
 BYTE   An4
 BYTE   W05
 BYTE   Bn4
 BYTE   W06
 BYTE   An4
 BYTE   W06
 BYTE   Gn4
 BYTE   W07
 BYTE   Dn4
 BYTE   W06
 BYTE   Bn3
 BYTE   W07
 BYTE   An3
 BYTE   W04
 BYTE   PEND 
// 076   ----------------------------------------
Label_9_014A3F4E:
 BYTE   N06  Bn3  v100
 BYTE   W05
 BYTE   Dn4
 BYTE   W07
 BYTE   Bn3
 BYTE   W06
 BYTE   Gn3
 BYTE   W06
 BYTE   N12  Cn4
 BYTE   W12
 BYTE   An3
 BYTE   W11
 BYTE   Cn4
 BYTE   W12
 BYTE   Dn4
 BYTE   W13
 BYTE   Cn4
 BYTE   W11
 BYTE   Dn4
 BYTE   W12
 BYTE   N24  Fn4
 BYTE   W01
 BYTE   PEND 
// 077   ----------------------------------------
Label_9_014A3F69:
 BYTE   W24
 BYTE   N12  An4  v100
 BYTE   W12
 BYTE   Gn4
 BYTE   W12
 BYTE   An4
 BYTE   W11
 BYTE   Fn4
 BYTE   W12
 BYTE   An3
 BYTE   W12
 BYTE   Gn3
 BYTE   W12
 BYTE   Fn3
 BYTE   W01
 BYTE   PEND 
// 078   ----------------------------------------
Label_9_014A3F7B:
 BYTE   W11
 BYTE   N12  An3  v100
 BYTE   W13
 BYTE   N06  Gn3
 BYTE   W07
 BYTE   En3
 BYTE   W05
 BYTE   Gn3
 BYTE   W06
 BYTE   Cn4
 BYTE   W06
 BYTE   En4
 BYTE   W07
 BYTE   Cn4
 BYTE   W06
 BYTE   Gn3
 BYTE   W06
 BYTE   En3
 BYTE   W05
 BYTE   Gn3
 BYTE   W07
 BYTE   En3
 BYTE   W05
 BYTE   Gn3
 BYTE   W06
 BYTE   Cn4
 BYTE   W06
 BYTE   PEND 
 BYTE   PATT
  POIN2 Label_9_014A3EBD
// 079   ----------------------------------------
 BYTE   W02
 BYTE   N06  Gn4  v100
 BYTE   W07
 BYTE   Dn4
 BYTE   W05
 BYTE   Bn3
 BYTE   W04
 BYTE   Gn3
 BYTE   W78
// 080   ----------------------------------------
 BYTE   W96
// 081   ----------------------------------------
 BYTE   W96
// 082   ----------------------------------------
 BYTE   W96
// 083   ----------------------------------------
 BYTE   W96
// 084   ----------------------------------------
 BYTE   W96
// 085   ----------------------------------------
 BYTE   W96
// 086   ----------------------------------------
 BYTE   W96
// 087   ----------------------------------------
 BYTE   W96
// 088   ----------------------------------------
 BYTE   W96
// 089   ----------------------------------------
 BYTE   W96
// 090   ----------------------------------------
 BYTE   W96
// 091   ----------------------------------------
 BYTE   W96
// 092   ----------------------------------------
 BYTE   W96
// 093   ----------------------------------------
 BYTE   W96
// 094   ----------------------------------------
 BYTE   W96
// 095   ----------------------------------------
 BYTE   W96
// 096   ----------------------------------------
 BYTE   W96
// 097   ----------------------------------------
 BYTE   W96
// 098   ----------------------------------------
 BYTE   W96
// 099   ----------------------------------------
 BYTE   W96
// 100   ----------------------------------------
 BYTE   W96
// 101   ----------------------------------------
 BYTE   W96
// 102   ----------------------------------------
 BYTE   W96
// 103   ----------------------------------------
 BYTE   W96
// 104   ----------------------------------------
 BYTE   W96
// 105   ----------------------------------------
 BYTE   W96
// 106   ----------------------------------------
 BYTE   W96
// 107   ----------------------------------------
 BYTE   W96
// 108   ----------------------------------------
 BYTE   W96
// 109   ----------------------------------------
 BYTE   W96
// 110   ----------------------------------------
 BYTE   W96
// 111   ----------------------------------------
 BYTE   W24
 BYTE   W01
 BYTE   N12  Cn4
 BYTE   W12
 BYTE   An3
 BYTE   W11
 BYTE   Cn4
 BYTE   W12
 BYTE   Dn4
 BYTE   W13
 BYTE   Cn4
 BYTE   W11
 BYTE   Dn4
 BYTE   W12
// 112   ----------------------------------------
Label_9_014A3FD8:
 BYTE   N24  Fn4  v100
 BYTE   W24
 BYTE   W01
 BYTE   N12  An4
 BYTE   W12
 BYTE   Gn4
 BYTE   W12
 BYTE   An4
 BYTE   W11
 BYTE   Fn4
 BYTE   W12
 BYTE   An3
 BYTE   W12
 BYTE   Gn3
 BYTE   W12
 BYTE   PEND 
// 113   ----------------------------------------
Label_9_014A3FEB:
 BYTE   N12  An3  v100
 BYTE   W12
 BYTE   Fn3
 BYTE   W13
 BYTE   N06  Bn3
 BYTE   W06
 BYTE   Gn3
 BYTE   W05
 BYTE   Bn3
 BYTE   W06
 BYTE   Dn4
 BYTE   W07
 BYTE   Gn4
 BYTE   W07
 BYTE   Dn4
 BYTE   W05
 BYTE   Gn4
 BYTE   W05
 BYTE   An4
 BYTE   W07
 BYTE   Bn4
 BYTE   W06
 BYTE   Gn4
 BYTE   W07
 BYTE   Dn4
 BYTE   W06
 BYTE   Gn3
 BYTE   W04
 BYTE   PEND 
// 114   ----------------------------------------
Label_9_014A400B:
 BYTE   N06  Bn3  v100
 BYTE   W07
 BYTE   An3
 BYTE   W06
 BYTE   Gn3
 BYTE   W05
 BYTE   An3
 BYTE   W07
 BYTE   Bn3
 BYTE   W06
 BYTE   Gn3
 BYTE   W06
 BYTE   Bn3
 BYTE   W06
 BYTE   Dn4
 BYTE   W06
 BYTE   Gn4
 BYTE   W06
 BYTE   An4
 BYTE   W06
 BYTE   Bn4
 BYTE   W06
 BYTE   An4
 BYTE   W06
 BYTE   Gn4
 BYTE   W06
 BYTE   Dn4
 BYTE   W07
 BYTE   Bn3
 BYTE   W06
 BYTE   An3
 BYTE   W04
 BYTE   PEND 
// 115   ----------------------------------------
Label_9_014A402E:
 BYTE   W01
 BYTE   N06  Bn3  v100
 BYTE   W05
 BYTE   Dn4
 BYTE   W06
 BYTE   Bn3
 BYTE   W07
 BYTE   Gn3
 BYTE   W05
 BYTE   N12  Cn4
 BYTE   W12
 BYTE   An3
 BYTE   W12
 BYTE   Cn4
 BYTE   W11
 BYTE   Dn4
 BYTE   W13
 BYTE   Cn4
 BYTE   W12
 BYTE   Dn4
 BYTE   W12
 BYTE   PEND 
 BYTE   PATT
  POIN2 Label_9_014A3EF9
// 116   ----------------------------------------
Label_9_014A404C:
 BYTE   N12  Fn3  v100
 BYTE   W11
 BYTE   An3
 BYTE   W14
 BYTE   N06  Gn3
 BYTE   W06
 BYTE   En3
 BYTE   W05
 BYTE   Gn3
 BYTE   W06
 BYTE   Cn4
 BYTE   W07
 BYTE   En4
 BYTE   W06
 BYTE   Cn4
 BYTE   W07
 BYTE   Gn3
 BYTE   W06
 BYTE   En3
 BYTE   W05
 BYTE   Gn3
 BYTE   W06
 BYTE   En3
 BYTE   W06
 BYTE   Gn3
 BYTE   W06
 BYTE   Cn4
 BYTE   W05
 BYTE   PEND 
// 117   ----------------------------------------
Label_9_014A406C:
 BYTE   N06  En4  v100
 BYTE   W07
 BYTE   Cn4
 BYTE   W06
 BYTE   Gn3
 BYTE   W05
 BYTE   An3
 BYTE   W07
 BYTE   Bn3
 BYTE   W06
 BYTE   An3
 BYTE   W06
 BYTE   Bn3
 BYTE   W06
 BYTE   Dn4
 BYTE   W05
 BYTE   Gn4
 BYTE   W07
 BYTE   Dn4
 BYTE   W07
 BYTE   Gn3
 BYTE   W06
 BYTE   An3
 BYTE   W06
 BYTE   Bn3
 BYTE   W07
 BYTE   An3
 BYTE   W06
 BYTE   Bn3
 BYTE   W06
 BYTE   Dn4
 BYTE   W03
 BYTE   PEND 
// 118   ----------------------------------------
 BYTE   W03
 BYTE   Gn4
 BYTE   W06
 BYTE   Dn4
 BYTE   W06
 BYTE   Bn3
 BYTE   W04
 BYTE   Gn3
 BYTE   W06
 BYTE   N12  Cn4
 BYTE   W12
 BYTE   An3
 BYTE   W11
 BYTE   Cn4
 BYTE   W12
 BYTE   Dn4
 BYTE   W13
 BYTE   Cn4
 BYTE   W11
 BYTE   Dn4
 BYTE   W12
 BYTE   PATT
  POIN2 Label_9_014A3FD8
 BYTE   PATT
  POIN2 Label_9_014A3FEB
 BYTE   PATT
  POIN2 Label_9_014A400B
 BYTE   PATT
  POIN2 Label_9_014A402E
 BYTE   PATT
  POIN2 Label_9_014A3EF9
 BYTE   PATT
  POIN2 Label_9_014A404C
 BYTE   PATT
  POIN2 Label_9_014A406C
// 119   ----------------------------------------
 BYTE   W03
 BYTE   N06  Gn4  v100
 BYTE   W06
 BYTE   Dn4
 BYTE   W06
 BYTE   Bn3
 BYTE   W04
 BYTE   Gn3
 BYTE   W76
 BYTE   W01
// 120   ----------------------------------------
 BYTE   W96
// 121   ----------------------------------------
 BYTE   W96
// 122   ----------------------------------------
 BYTE   W96
// 123   ----------------------------------------
 BYTE   W96
// 124   ----------------------------------------
 BYTE   W96
// 125   ----------------------------------------
 BYTE   W96
// 126   ----------------------------------------
 BYTE   W96
// 127   ----------------------------------------
 BYTE   W96
// 128   ----------------------------------------
 BYTE   W96
// 129   ----------------------------------------
 BYTE   W96
// 130   ----------------------------------------
 BYTE   W96
// 131   ----------------------------------------
 BYTE   W96
// 132   ----------------------------------------
 BYTE   W96
// 133   ----------------------------------------
 BYTE   W96
// 134   ----------------------------------------
 BYTE   W96
// 135   ----------------------------------------
 BYTE   W96
// 136   ----------------------------------------
 BYTE   W96
// 137   ----------------------------------------
 BYTE   W96
// 138   ----------------------------------------
 BYTE   W96
// 139   ----------------------------------------
 BYTE   W96
// 140   ----------------------------------------
 BYTE   W96
// 141   ----------------------------------------
 BYTE   W96
// 142   ----------------------------------------
 BYTE   W96
// 143   ----------------------------------------
 BYTE   W96
// 144   ----------------------------------------
 BYTE   W96
// 145   ----------------------------------------
 BYTE   W96
// 146   ----------------------------------------
 BYTE   W96
// 147   ----------------------------------------
 BYTE   W96
// 148   ----------------------------------------
 BYTE   W96
// 149   ----------------------------------------
 BYTE   W96
// 150   ----------------------------------------
 BYTE   W96
// 151   ----------------------------------------
 BYTE   W24
 BYTE   W01
 BYTE   N12  En4
 BYTE   W11
 BYTE   Fn4
 BYTE   W12
 BYTE   Gn4
 BYTE   W12
 BYTE   Cn4
 BYTE   W24
 BYTE   Gn4
 BYTE   W12
// 152   ----------------------------------------
Label_9_014A4100:
 BYTE   W12
 BYTE   N12  As4  v100
 BYTE   W24
 BYTE   W01
 BYTE   N12
 BYTE   W11
 BYTE   An4
 BYTE   W12
 BYTE   Gn4
 BYTE   W13
 BYTE   N24  Fn4
 BYTE   W23
 BYTE   PEND 
// 153   ----------------------------------------
 BYTE   W24
 BYTE   W01
 BYTE   N12  Gn4
 BYTE   W12
 BYTE   Cn4
 BYTE   W12
 BYTE   N12
 BYTE   W11
 BYTE   Gn4
 BYTE   W12
 BYTE   En4
 BYTE   W12
 BYTE   Fn4
 BYTE   W12
// 154   ----------------------------------------
 BYTE   Gn4
 BYTE   W12
 BYTE   Cn4
 BYTE   W13
 BYTE   An4
 BYTE   W11
 BYTE   As4
 BYTE   W12
 BYTE   Cn5
 BYTE   W12
 BYTE   As4
 BYTE   W12
 BYTE   An4
 BYTE   W12
 BYTE   Gn4
 BYTE   W12
// 155   ----------------------------------------
 BYTE   Fn4
 BYTE   W12
 BYTE   An4
 BYTE   W13
 BYTE   En4
 BYTE   W11
 BYTE   Fn4
 BYTE   W12
 BYTE   Gn4
 BYTE   W12
 BYTE   Cn4
 BYTE   W24
 BYTE   Gn4
 BYTE   W12
 BYTE   PATT
  POIN2 Label_9_014A4100
 BYTE   PATT
  POIN2 Label_9_014A3E79
// 156   ----------------------------------------
 BYTE   N12  Gs4  v100
 BYTE   W11
 BYTE   As4
 BYTE   W24
 BYTE   W02
 BYTE   N24  Dn4
 BYTE   W23
 BYTE   N12  As4
 BYTE   W13
 BYTE   Dn4
 BYTE   W11
 BYTE   Fn4
 BYTE   W12
// 157   ----------------------------------------
 BYTE   W01
 BYTE   As4
 BYTE   W11
 BYTE   Dn4
 BYTE   W84
// 158   ----------------------------------------
 BYTE   W96
// 159   ----------------------------------------
 BYTE   W96
// 160   ----------------------------------------
 BYTE   W96
// 161   ----------------------------------------
 BYTE   W96
// 162   ----------------------------------------
 BYTE   W96
 BYTE   PATT
  POIN2 Label_9_014A3EA1
 BYTE   PATT
  POIN2 Label_9_014A3EBD
 BYTE   PATT
  POIN2 Label_9_014A3EE0
 BYTE   PATT
  POIN2 Label_9_014A3EF9
 BYTE   PATT
  POIN2 Label_9_014A3F0B
 BYTE   PATT
  POIN2 Label_9_014A3F2B
 BYTE   PATT
  POIN2 Label_9_014A3F4E
 BYTE   PATT
  POIN2 Label_9_014A3F69
 BYTE   PATT
  POIN2 Label_9_014A3F7B
 BYTE   PATT
  POIN2 Label_9_014A3EBD
// 163   ----------------------------------------
 BYTE   W02
 BYTE   N06  Gn4  v100
 BYTE   W07
 BYTE   Dn4
 BYTE   W05
 BYTE   Bn3
 BYTE   W04
 BYTE   Gn3
 BYTE   W06
 BYTE   FINE

//**************** Track 11 (Midi-Chn.10) ****************//

MarioTennisRound2Pandan_011:
// 000   ----------------------------------------
 BYTE   KEYSH   MarioTennisRound2Pandan_key+0
 BYTE   VOICE   20
 BYTE   VOL   16*MarioTennisRound2Pandan_mvl/mxv
 BYTE   PAN   c_v+0
 BYTE   W96
// 001   ----------------------------------------
 BYTE   W96
// 002   ----------------------------------------
 BYTE   W96
// 003   ----------------------------------------
 BYTE   W96
// 004   ----------------------------------------
 BYTE   W96
// 005   ----------------------------------------
 BYTE   W96
// 006   ----------------------------------------
 BYTE   W96
// 007   ----------------------------------------
 BYTE   W96
// 008   ----------------------------------------
 BYTE   W96
// 009   ----------------------------------------
 BYTE   W96
// 010   ----------------------------------------
 BYTE   W96
// 011   ----------------------------------------
 BYTE   W96
// 012   ----------------------------------------
 BYTE   W96
// 013   ----------------------------------------
 BYTE   W96
// 014   ----------------------------------------
 BYTE   W96
// 015   ----------------------------------------
 BYTE   W96
// 016   ----------------------------------------
 BYTE   W96
// 017   ----------------------------------------
 BYTE   W96
// 018   ----------------------------------------
 BYTE   W96
// 019   ----------------------------------------
 BYTE   W96
// 020   ----------------------------------------
 BYTE   W96
// 021   ----------------------------------------
 BYTE   W96
// 022   ----------------------------------------
 BYTE   W96
// 023   ----------------------------------------
 BYTE   W96
// 024   ----------------------------------------
 BYTE   W96
// 025   ----------------------------------------
 BYTE   W96
// 026   ----------------------------------------
 BYTE   W96
// 027   ----------------------------------------
 BYTE   W96
// 028   ----------------------------------------
 BYTE   W96
// 029   ----------------------------------------
 BYTE   W96
// 030   ----------------------------------------
 BYTE   W96
// 031   ----------------------------------------
 BYTE   W96
// 032   ----------------------------------------
 BYTE   W96
// 033   ----------------------------------------
 BYTE   W96
// 034   ----------------------------------------
 BYTE   W96
// 035   ----------------------------------------
 BYTE   W96
// 036   ----------------------------------------
 BYTE   W96
// 037   ----------------------------------------
 BYTE   W96
// 038   ----------------------------------------
 BYTE   W96
// 039   ----------------------------------------
 BYTE   W96
// 040   ----------------------------------------
Label_10_014A41D0:
 BYTE   N11  An3  v100
 BYTE   N12  Cn4
 BYTE   W12
 BYTE   En3
 BYTE   N12  An3
 BYTE   W12
 BYTE   N12
 BYTE   N12  Cn4
 BYTE   W11
 BYTE   Dn4
 BYTE   W01
 BYTE   Bn3
 BYTE   W23
 BYTE   Cn4
 BYTE   W01
 BYTE   An3
 BYTE   W23
 BYTE   Bn3
 BYTE   W01
 BYTE   Gn3
 BYTE   W12
 BYTE   PEND 
// 041   ----------------------------------------
Label_10_014A41EB:
 BYTE   W12
 BYTE   N12  Cn4  v100
 BYTE   N12  En4
 BYTE   W24
 BYTE   Bn3
 BYTE   N12  Dn4
 BYTE   W23
 BYTE   Cn4
 BYTE   W01
 BYTE   An3
 BYTE   W23
 BYTE   Gn3
 BYTE   N12  Bn3
 BYTE   W13
 BYTE   PEND 
 BYTE   PATT
  POIN2 Label_10_014A41D0
// 042   ----------------------------------------
Label_10_014A4204:
 BYTE   W11
 BYTE   N12  Gn3  v100
 BYTE   W01
 BYTE   En3
 BYTE   W23
 BYTE   An3
 BYTE   W01
 BYTE   Fn3
 BYTE   W23
 BYTE   Bn3
 BYTE   W01
 BYTE   Gn3
 BYTE   W23
 BYTE   Cn4
 BYTE   W01
 BYTE   An3
 BYTE   W12
 BYTE   PEND 
 BYTE   PATT
  POIN2 Label_10_014A41D0
// 043   ----------------------------------------
Label_10_014A421D:
 BYTE   W12
 BYTE   N12  En3  v100
 BYTE   N12  Gn3
 BYTE   W24
 BYTE   Fn3
 BYTE   N12  An3
 BYTE   W24
 BYTE   Gn3
 BYTE   N12  Bn3
 BYTE   W24
 BYTE   An3
 BYTE   N12  Cn4
 BYTE   W12
 BYTE   PEND 
// 044   ----------------------------------------
Label_10_014A4231:
 BYTE   W01
 BYTE   N48  Fn3  v100
 BYTE   N48  An3
 BYTE   W48
 BYTE   N13  Fn3
 BYTE   N14  An3
 BYTE   W14
 BYTE   N15  Bn3
 BYTE   W01
 BYTE   N14  Gn3
 BYTE   W14
 BYTE   N17  Cn4
 BYTE   W01
 BYTE   N16  An3
 BYTE   W17
 BYTE   PEND 
// 045   ----------------------------------------
 BYTE   N96  Gn3
 BYTE   N96  Bn3
 BYTE   W96
 BYTE   PATT
  POIN2 Label_10_014A41D0
 BYTE   PATT
  POIN2 Label_10_014A41EB
 BYTE   PATT
  POIN2 Label_10_014A41D0
 BYTE   PATT
  POIN2 Label_10_014A4204
 BYTE   PATT
  POIN2 Label_10_014A41D0
 BYTE   PATT
  POIN2 Label_10_014A421D
 BYTE   PATT
  POIN2 Label_10_014A4231
// 046   ----------------------------------------
 BYTE   N96  Gn3  v100
 BYTE   N96  Bn3
 BYTE   W96
// 047   ----------------------------------------
 BYTE   W96
// 048   ----------------------------------------
 BYTE   W96
// 049   ----------------------------------------
 BYTE   W96
// 050   ----------------------------------------
 BYTE   W96
// 051   ----------------------------------------
 BYTE   W96
// 052   ----------------------------------------
 BYTE   W96
// 053   ----------------------------------------
 BYTE   W96
// 054   ----------------------------------------
 BYTE   W96
// 055   ----------------------------------------
 BYTE   W96
// 056   ----------------------------------------
 BYTE   W96
// 057   ----------------------------------------
 BYTE   W96
// 058   ----------------------------------------
 BYTE   W96
// 059   ----------------------------------------
 BYTE   W96
// 060   ----------------------------------------
 BYTE   W96
// 061   ----------------------------------------
 BYTE   W96
// 062   ----------------------------------------
 BYTE   W96
// 063   ----------------------------------------
 BYTE   W96
// 064   ----------------------------------------
 BYTE   W96
// 065   ----------------------------------------
 BYTE   W96
// 066   ----------------------------------------
 BYTE   W96
// 067   ----------------------------------------
 BYTE   W96
// 068   ----------------------------------------
 BYTE   W96
// 069   ----------------------------------------
 BYTE   W96
// 070   ----------------------------------------
 BYTE   W96
// 071   ----------------------------------------
 BYTE   W96
// 072   ----------------------------------------
 BYTE   W96
// 073   ----------------------------------------
 BYTE   W96
// 074   ----------------------------------------
 BYTE   W96
// 075   ----------------------------------------
 BYTE   W96
// 076   ----------------------------------------
 BYTE   W96
// 077   ----------------------------------------
 BYTE   W96
// 078   ----------------------------------------
 BYTE   W96
// 079   ----------------------------------------
 BYTE   W96
// 080   ----------------------------------------
 BYTE   W96
// 081   ----------------------------------------
 BYTE   W96
// 082   ----------------------------------------
 BYTE   W96
// 083   ----------------------------------------
 BYTE   W96
// 084   ----------------------------------------
 BYTE   W96
// 085   ----------------------------------------
 BYTE   W96
// 086   ----------------------------------------
 BYTE   W96
// 087   ----------------------------------------
 BYTE   W96
// 088   ----------------------------------------
 BYTE   W96
// 089   ----------------------------------------
 BYTE   W96
// 090   ----------------------------------------
 BYTE   W96
// 091   ----------------------------------------
 BYTE   W96
// 092   ----------------------------------------
 BYTE   W96
// 093   ----------------------------------------
 BYTE   W96
// 094   ----------------------------------------
 BYTE   W96
// 095   ----------------------------------------
 BYTE   W96
// 096   ----------------------------------------
 BYTE   W96
// 097   ----------------------------------------
 BYTE   W96
// 098   ----------------------------------------
 BYTE   W96
// 099   ----------------------------------------
 BYTE   W96
// 100   ----------------------------------------
 BYTE   W96
// 101   ----------------------------------------
 BYTE   W96
// 102   ----------------------------------------
 BYTE   W96
// 103   ----------------------------------------
 BYTE   W96
// 104   ----------------------------------------
 BYTE   W96
// 105   ----------------------------------------
 BYTE   W96
// 106   ----------------------------------------
 BYTE   W96
// 107   ----------------------------------------
 BYTE   W96
// 108   ----------------------------------------
 BYTE   W96
// 109   ----------------------------------------
 BYTE   W96
// 110   ----------------------------------------
 BYTE   W96
// 111   ----------------------------------------
 BYTE   W96
// 112   ----------------------------------------
 BYTE   W96
// 113   ----------------------------------------
 BYTE   W96
// 114   ----------------------------------------
 BYTE   W96
// 115   ----------------------------------------
 BYTE   W96
// 116   ----------------------------------------
 BYTE   W96
// 117   ----------------------------------------
 BYTE   W96
// 118   ----------------------------------------
 BYTE   W96
// 119   ----------------------------------------
 BYTE   W96
// 120   ----------------------------------------
 BYTE   W96
// 121   ----------------------------------------
 BYTE   W96
// 122   ----------------------------------------
 BYTE   W96
// 123   ----------------------------------------
 BYTE   W96
// 124   ----------------------------------------
 BYTE   W96
// 125   ----------------------------------------
 BYTE   W96
// 126   ----------------------------------------
 BYTE   W96
// 127   ----------------------------------------
 BYTE   W96
// 128   ----------------------------------------
 BYTE   W96
// 129   ----------------------------------------
 BYTE   W96
// 130   ----------------------------------------
 BYTE   W96
// 131   ----------------------------------------
 BYTE   W96
// 132   ----------------------------------------
 BYTE   W96
// 133   ----------------------------------------
 BYTE   W96
// 134   ----------------------------------------
 BYTE   W96
// 135   ----------------------------------------
Label_10_014A42D0:
 BYTE   N12  Cn4  v100
 BYTE   W01
 BYTE   N11  An3
 BYTE   W11
 BYTE   N12
 BYTE   W01
 BYTE   En3
 BYTE   W11
 BYTE   Cn4
 BYTE   W01
 BYTE   An3
 BYTE   W11
 BYTE   Bn3
 BYTE   N12  Dn4
 BYTE   W24
 BYTE   An3
 BYTE   N12  Cn4
 BYTE   W24
 BYTE   Gn3
 BYTE   N12  Bn3
 BYTE   W12
 BYTE   PEND 
// 136   ----------------------------------------
Label_10_014A42EC:
 BYTE   W12
 BYTE   N12  En4  v100
 BYTE   W01
 BYTE   Cn4
 BYTE   W23
 BYTE   Dn4
 BYTE   W01
 BYTE   Bn3
 BYTE   W23
 BYTE   An3
 BYTE   N12  Cn4
 BYTE   W23
 BYTE   Bn3
 BYTE   W01
 BYTE   Gn3
 BYTE   W12
 BYTE   PEND 
 BYTE   PATT
  POIN2 Label_10_014A42D0
 BYTE   PATT
  POIN2 Label_10_014A421D
 BYTE   PATT
  POIN2 Label_10_014A42D0
// 137   ----------------------------------------
Label_10_014A430F:
 BYTE   W12
 BYTE   N12  Gn3  v100
 BYTE   W01
 BYTE   En3
 BYTE   W23
 BYTE   An3
 BYTE   W01
 BYTE   Fn3
 BYTE   W23
 BYTE   Bn3
 BYTE   W01
 BYTE   Gn3
 BYTE   W23
 BYTE   An3
 BYTE   N12  Cn4
 BYTE   W12
 BYTE   PEND 
// 138   ----------------------------------------
Label_10_014A4323:
 BYTE   N48  An3  v100
 BYTE   W01
 BYTE   Fn3
 BYTE   W48
 BYTE   N14  An3
 BYTE   W01
 BYTE   N13  Fn3
 BYTE   W14
 BYTE   N14  Gn3
 BYTE   N15  Bn3
 BYTE   W15
 BYTE   N16  An3
 BYTE   N17  Cn4
 BYTE   W17
 BYTE   PEND 
// 139   ----------------------------------------
Label_10_014A433A:
 BYTE   W01
 BYTE   N96  Gn3  v100
 BYTE   N96  Bn3
 BYTE   W92
 BYTE   W03
 BYTE   PEND 
 BYTE   PATT
  POIN2 Label_10_014A42D0
 BYTE   PATT
  POIN2 Label_10_014A42EC
 BYTE   PATT
  POIN2 Label_10_014A42D0
 BYTE   PATT
  POIN2 Label_10_014A421D
 BYTE   PATT
  POIN2 Label_10_014A42D0
 BYTE   PATT
  POIN2 Label_10_014A430F
 BYTE   PATT
  POIN2 Label_10_014A4323
 BYTE   PATT
  POIN2 Label_10_014A433A
// 140   ----------------------------------------
 BYTE   W01
 BYTE   FINE

//******************************************************//
	ALIGN 4

MarioTennisRound2Pandan:
	BYTE	11	// NumTrks
	BYTE	0	// NumBlks
	BYTE	MarioTennisRound2Pandan_pri	// Priority
	BYTE	MarioTennisRound2Pandan_rev	// Reverb.
    
	POIN2	MarioTennisRound2Pandan_grp
    
	POIN2	MarioTennisRound2Pandan_001
	POIN2	MarioTennisRound2Pandan_002
	POIN2	MarioTennisRound2Pandan_003
	POIN2	MarioTennisRound2Pandan_004
	POIN2	MarioTennisRound2Pandan_005
	POIN2	MarioTennisRound2Pandan_006
	POIN2	MarioTennisRound2Pandan_007
	POIN2	MarioTennisRound2Pandan_008
	POIN2	MarioTennisRound2Pandan_009
	POIN2	MarioTennisRound2Pandan_010
	POIN2	MarioTennisRound2Pandan_011

	
