//Event file generated from Sappy .s format.
	#include "MPlayDef.event"

	#define	MarioGolfGBCVsPuttsPandan_grp  voicegroup000
	#define	MarioGolfGBCVsPuttsPandan_pri  0
	#define	MarioGolfGBCVsPuttsPandan_rev  0
	#define	MarioGolfGBCVsPuttsPandan_mvl  127
	#define	MarioGolfGBCVsPuttsPandan_key  0
	#define	MarioGolfGBCVsPuttsPandan_tbs  1
	#define	MarioGolfGBCVsPuttsPandan_exg  0
	#define	MarioGolfGBCVsPuttsPandan_cmp  1

	// .rodata
	//	MarioGolfGBCVsPuttsPandan
	ALIGN 4


//**************** Track 1 (Midi-Chn.0) ****************//

MarioGolfGBCVsPuttsPandan_001:
// 000   ----------------------------------------
 BYTE   KEYSH   MarioGolfGBCVsPuttsPandan_key+0
Label_0_0128B26E:
 BYTE   TEMPO   132*MarioGolfGBCVsPuttsPandan_tbs/2
 BYTE   VOICE   79
 BYTE   VOL   45*MarioGolfGBCVsPuttsPandan_mvl/mxv
 BYTE   PAN   c_v+0
 BYTE   W96
// 001   ----------------------------------------
 BYTE   W96
// 002   ----------------------------------------
 BYTE   W96
// 003   ----------------------------------------
 BYTE   W96
// 004   ----------------------------------------
 BYTE   W96
// 005   ----------------------------------------
 BYTE   W96
// 006   ----------------------------------------
 BYTE   W96
// 007   ----------------------------------------
 BYTE   W96
// 008   ----------------------------------------
 BYTE   W96
// 009   ----------------------------------------
 BYTE   N92  Bn3  v044
 BYTE   W96
// 010   ----------------------------------------
 BYTE   W96
// 011   ----------------------------------------
 BYTE   N92
 BYTE   W96
// 012   ----------------------------------------
 BYTE   W96
// 013   ----------------------------------------
 BYTE   N92
 BYTE   W96
// 014   ----------------------------------------
 BYTE   W96
// 015   ----------------------------------------
 BYTE   N32  Ds4
 BYTE   W36
 BYTE   N56  Bn3  v036
 BYTE   W60
// 016   ----------------------------------------
 BYTE   TEMPO   132*MarioGolfGBCVsPuttsPandan_tbs/2
 BYTE   W96
// 017   ----------------------------------------
 BYTE   W96
// 018   ----------------------------------------
 BYTE   W96
// 019   ----------------------------------------
 BYTE   W96
// 020   ----------------------------------------
 BYTE   W96
// 021   ----------------------------------------
 BYTE   W96
// 022   ----------------------------------------
 BYTE   W96
// 023   ----------------------------------------
 BYTE   W96
// 024   ----------------------------------------
 BYTE   W96
// 025   ----------------------------------------
 BYTE   N92  Bn3  v044
 BYTE   W96
// 026   ----------------------------------------
 BYTE   W96
// 027   ----------------------------------------
 BYTE   N92
 BYTE   W96
// 028   ----------------------------------------
 BYTE   W96
// 029   ----------------------------------------
 BYTE   N92
 BYTE   W96
// 030   ----------------------------------------
 BYTE   W96
// 031   ----------------------------------------
 BYTE   N32  Ds4
 BYTE   W36
 BYTE   N56  Bn3  v036
 BYTE   W56
 BYTE   W03
 BYTE   GoTo
  POIN2 Label_0_0128B26E
 BYTE   FINE

//**************** Track 2 (Midi-Chn.1) ****************//

MarioGolfGBCVsPuttsPandan_002:
// 000   ----------------------------------------
 BYTE   KEYSH   MarioGolfGBCVsPuttsPandan_key+0
Label_1_0128B2BA:
 BYTE   VOICE   57
 BYTE   VOL   30*MarioGolfGBCVsPuttsPandan_mvl/mxv
 BYTE   PAN   c_v+0
 BYTE   W12
 BYTE   N09  Bn3  v060
 BYTE   W24
 BYTE   N09
 BYTE   W24
 BYTE   N09
 BYTE   W24
 BYTE   N09
 BYTE   W12
// 001   ----------------------------------------
Label_1_0128B2CB:
 BYTE   W12
 BYTE   N09  Bn3  v060
 BYTE   W24
 BYTE   N09
 BYTE   W24
 BYTE   N09
 BYTE   W24
 BYTE   N09
 BYTE   W12
 BYTE   PEND 
// 002   ----------------------------------------
 BYTE   PATT
  POIN2 Label_1_0128B2CB
// 003   ----------------------------------------
 BYTE   PATT
  POIN2 Label_1_0128B2CB
// 004   ----------------------------------------
 BYTE   PATT
  POIN2 Label_1_0128B2CB
// 005   ----------------------------------------
 BYTE   PATT
  POIN2 Label_1_0128B2CB
// 006   ----------------------------------------
Label_1_0128B2EB:
 BYTE   W12
 BYTE   N09  Bn3  v060
 BYTE   W24
 BYTE   N09
 BYTE   W24
 BYTE   Cs4
 BYTE   W24
 BYTE   N09
 BYTE   W12
 BYTE   PEND 
// 007   ----------------------------------------
Label_1_0128B2F7:
 BYTE   N16  Bn3  v076
 BYTE   W18
 BYTE   N15  As3  v072
 BYTE   W18
 BYTE   N21  An3
 BYTE   W24
 BYTE   N09  Gn3
 BYTE   W12
 BYTE   En3
 BYTE   W12
 BYTE   Dn3
 BYTE   W12
 BYTE   PEND 
// 008   ----------------------------------------
Label_1_0128B30A:
 BYTE   N32  Dn4  v076
 BYTE   W36
 BYTE   N04  Cs4  v072
 BYTE   W06
 BYTE   Dn4
 BYTE   W06
 BYTE   N21  En4
 BYTE   W24
 BYTE   Fs4
 BYTE   W24
 BYTE   PEND 
// 009   ----------------------------------------
Label_1_0128B31A:
 BYTE   N16  Gn4  v076
 BYTE   W18
 BYTE   N15  Fs4  v072
 BYTE   W18
 BYTE   N09  Gn4
 BYTE   W12
 BYTE   N15  An4
 BYTE   W18
 BYTE   Gn4
 BYTE   W18
 BYTE   N09  Fs4
 BYTE   W12
 BYTE   PEND 
// 010   ----------------------------------------
 BYTE   PATT
  POIN2 Label_1_0128B31A
// 011   ----------------------------------------
 BYTE   N92  En4  v072
 BYTE   W96
// 012   ----------------------------------------
 BYTE   PATT
  POIN2 Label_1_0128B30A
// 013   ----------------------------------------
 BYTE   PATT
  POIN2 Label_1_0128B31A
// 014   ----------------------------------------
Label_1_0128B341:
 BYTE   N16  Gn4  v076
 BYTE   W18
 BYTE   N15  Fs4  v072
 BYTE   W18
 BYTE   N09  Gn4
 BYTE   W12
 BYTE   N15  An4
 BYTE   W18
 BYTE   Gn4
 BYTE   W18
 BYTE   N09  An4
 BYTE   W12
 BYTE   PEND 
// 015   ----------------------------------------
 BYTE   N32  Fs4  v076
 BYTE   W36
 BYTE   N56  Ds4  v072
 BYTE   W60
// 016   ----------------------------------------
 BYTE   W12
 BYTE   N09  Bn3  v060
 BYTE   W24
 BYTE   N09
 BYTE   W24
 BYTE   N09
 BYTE   W24
 BYTE   N09
 BYTE   W12
// 017   ----------------------------------------
 BYTE   PATT
  POIN2 Label_1_0128B2CB
// 018   ----------------------------------------
 BYTE   PATT
  POIN2 Label_1_0128B2CB
// 019   ----------------------------------------
 BYTE   PATT
  POIN2 Label_1_0128B2CB
// 020   ----------------------------------------
 BYTE   PATT
  POIN2 Label_1_0128B2CB
// 021   ----------------------------------------
 BYTE   PATT
  POIN2 Label_1_0128B2CB
// 022   ----------------------------------------
 BYTE   PATT
  POIN2 Label_1_0128B2EB
// 023   ----------------------------------------
 BYTE   PATT
  POIN2 Label_1_0128B2F7
// 024   ----------------------------------------
 BYTE   PATT
  POIN2 Label_1_0128B30A
// 025   ----------------------------------------
 BYTE   PATT
  POIN2 Label_1_0128B31A
// 026   ----------------------------------------
 BYTE   PATT
  POIN2 Label_1_0128B31A
// 027   ----------------------------------------
 BYTE   N92  En4  v072
 BYTE   W96
// 028   ----------------------------------------
 BYTE   PATT
  POIN2 Label_1_0128B30A
// 029   ----------------------------------------
 BYTE   PATT
  POIN2 Label_1_0128B31A
// 030   ----------------------------------------
 BYTE   PATT
  POIN2 Label_1_0128B341
// 031   ----------------------------------------
 BYTE   N32  Fs4  v076
 BYTE   W36
 BYTE   N56  Ds4  v072
 BYTE   W56
 BYTE   W03
 BYTE   GoTo
  POIN2 Label_1_0128B2BA
 BYTE   FINE

//**************** Track 3 (Midi-Chn.2) ****************//

MarioGolfGBCVsPuttsPandan_003:
// 000   ----------------------------------------
 BYTE   KEYSH   MarioGolfGBCVsPuttsPandan_key+0
Label_2_0128B3BE:
 BYTE   VOICE   58
 BYTE   VOL   39*MarioGolfGBCVsPuttsPandan_mvl/mxv
 BYTE   PAN   c_v+0
 BYTE   W12
 BYTE   N09  En3  v052
 BYTE   W24
 BYTE   N09
 BYTE   W24
 BYTE   N09
 BYTE   W24
 BYTE   N09
 BYTE   W12
// 001   ----------------------------------------
Label_2_0128B3CF:
 BYTE   W12
 BYTE   N09  En3  v052
 BYTE   W24
 BYTE   N09
 BYTE   W24
 BYTE   N09
 BYTE   W24
 BYTE   N09
 BYTE   W12
 BYTE   PEND 
// 002   ----------------------------------------
 BYTE   PATT
  POIN2 Label_2_0128B3CF
// 003   ----------------------------------------
 BYTE   PATT
  POIN2 Label_2_0128B3CF
// 004   ----------------------------------------
 BYTE   PATT
  POIN2 Label_2_0128B3CF
// 005   ----------------------------------------
 BYTE   PATT
  POIN2 Label_2_0128B3CF
// 006   ----------------------------------------
 BYTE   PATT
  POIN2 Label_2_0128B3CF
// 007   ----------------------------------------
 BYTE   W96
// 008   ----------------------------------------
Label_2_0128B3F5:
 BYTE   N32  Bn3  v076
 BYTE   W36
 BYTE   N04  An3  v072
 BYTE   W06
 BYTE   Bn3
 BYTE   W06
 BYTE   N21  Cs4
 BYTE   W24
 BYTE   N09
 BYTE   W12
 BYTE   Dn4
 BYTE   W12
 BYTE   PEND 
// 009   ----------------------------------------
 BYTE   N92  Bn3
 BYTE   W96
// 010   ----------------------------------------
Label_2_0128B40A:
 BYTE   N16  Dn4  v076
 BYTE   W18
 BYTE   N15  Cs4  v072
 BYTE   W18
 BYTE   N09  Dn4
 BYTE   W12
 BYTE   N15  En4
 BYTE   W18
 BYTE   Dn4
 BYTE   W18
 BYTE   N09  Cs4
 BYTE   W12
 BYTE   PEND 
// 011   ----------------------------------------
 BYTE   N92  Bn3
 BYTE   W96
// 012   ----------------------------------------
 BYTE   PATT
  POIN2 Label_2_0128B3F5
// 013   ----------------------------------------
 BYTE   N92  Bn3  v072
 BYTE   W96
// 014   ----------------------------------------
 BYTE   PATT
  POIN2 Label_2_0128B40A
// 015   ----------------------------------------
 BYTE   N32  Ds4  v076
 BYTE   W36
 BYTE   N56  Bn3  v072
 BYTE   W60
// 016   ----------------------------------------
 BYTE   W12
 BYTE   N09  En3  v052
 BYTE   W24
 BYTE   N09
 BYTE   W24
 BYTE   N09
 BYTE   W24
 BYTE   N09
 BYTE   W12
// 017   ----------------------------------------
 BYTE   PATT
  POIN2 Label_2_0128B3CF
// 018   ----------------------------------------
 BYTE   PATT
  POIN2 Label_2_0128B3CF
// 019   ----------------------------------------
 BYTE   PATT
  POIN2 Label_2_0128B3CF
// 020   ----------------------------------------
 BYTE   PATT
  POIN2 Label_2_0128B3CF
// 021   ----------------------------------------
 BYTE   PATT
  POIN2 Label_2_0128B3CF
// 022   ----------------------------------------
 BYTE   PATT
  POIN2 Label_2_0128B3CF
// 023   ----------------------------------------
 BYTE   W96
// 024   ----------------------------------------
 BYTE   PATT
  POIN2 Label_2_0128B3F5
// 025   ----------------------------------------
 BYTE   N92  Bn3  v072
 BYTE   W96
// 026   ----------------------------------------
 BYTE   PATT
  POIN2 Label_2_0128B40A
// 027   ----------------------------------------
 BYTE   N92  Bn3  v072
 BYTE   W96
// 028   ----------------------------------------
 BYTE   PATT
  POIN2 Label_2_0128B3F5
// 029   ----------------------------------------
 BYTE   N92  Bn3  v072
 BYTE   W96
// 030   ----------------------------------------
 BYTE   PATT
  POIN2 Label_2_0128B40A
// 031   ----------------------------------------
 BYTE   N32  Ds4  v076
 BYTE   W36
 BYTE   N56  Bn3  v072
 BYTE   W56
 BYTE   W03
 BYTE   GoTo
  POIN2 Label_2_0128B3BE
 BYTE   FINE

//**************** Track 4 (Midi-Chn.3) ****************//

MarioGolfGBCVsPuttsPandan_004:
// 000   ----------------------------------------
 BYTE   KEYSH   MarioGolfGBCVsPuttsPandan_key+0
Label_3_0128B492:
 BYTE   VOICE   36
 BYTE   VOL   65*MarioGolfGBCVsPuttsPandan_mvl/mxv
 BYTE   PAN   c_v+0
 BYTE   N10  En1  v072
 BYTE   W12
 BYTE   N09  En2  v064
 BYTE   W12
 BYTE   En1  v068
 BYTE   W12
 BYTE   N04  En2  v064
 BYTE   W06
 BYTE   N10  Dn2
 BYTE   W12
 BYTE   N04  En1
 BYTE   W06
 BYTE   N09  Bn1
 BYTE   W12
 BYTE   Dn2  v068
 BYTE   W12
 BYTE   En2  v064
 BYTE   W12
// 001   ----------------------------------------
Label_3_0128B4B6:
 BYTE   N10  En1  v072
 BYTE   W12
 BYTE   N09  En2  v064
 BYTE   W12
 BYTE   En1  v068
 BYTE   W12
 BYTE   N04  En2  v064
 BYTE   W06
 BYTE   N10  Dn2
 BYTE   W12
 BYTE   N04  En1
 BYTE   W06
 BYTE   N09  Cs2
 BYTE   W12
 BYTE   Bn1  v068
 BYTE   W12
 BYTE   An1  v064
 BYTE   W12
 BYTE   PEND 
// 002   ----------------------------------------
Label_3_0128B4D5:
 BYTE   N10  Gn1  v072
 BYTE   W12
 BYTE   N09  Gn2  v064
 BYTE   W12
 BYTE   Gn1  v068
 BYTE   W12
 BYTE   N04  Gn2  v064
 BYTE   W06
 BYTE   N10  An1
 BYTE   W12
 BYTE   N04
 BYTE   W06
 BYTE   N09  An2
 BYTE   W12
 BYTE   An1  v068
 BYTE   W12
 BYTE   An2  v064
 BYTE   W12
 BYTE   PEND 
// 003   ----------------------------------------
Label_3_0128B4F3:
 BYTE   N10  En1  v072
 BYTE   W12
 BYTE   N09  En2  v064
 BYTE   W12
 BYTE   En1  v068
 BYTE   W12
 BYTE   N04  En2  v064
 BYTE   W06
 BYTE   N10  Dn2
 BYTE   W12
 BYTE   N04  En1
 BYTE   W06
 BYTE   N09  Bn1
 BYTE   W12
 BYTE   Dn2  v068
 BYTE   W12
 BYTE   En2  v064
 BYTE   W12
 BYTE   PEND 
// 004   ----------------------------------------
 BYTE   PATT
  POIN2 Label_3_0128B4F3
// 005   ----------------------------------------
 BYTE   PATT
  POIN2 Label_3_0128B4B6
// 006   ----------------------------------------
 BYTE   PATT
  POIN2 Label_3_0128B4D5
// 007   ----------------------------------------
Label_3_0128B521:
 BYTE   N16  Bn2  v072
 BYTE   W18
 BYTE   N15  As2  v064
 BYTE   W18
 BYTE   N21  An2
 BYTE   W24
 BYTE   N09  Gn2
 BYTE   W12
 BYTE   En2  v068
 BYTE   W12
 BYTE   Dn2  v064
 BYTE   W12
 BYTE   PEND 
// 008   ----------------------------------------
 BYTE   PATT
  POIN2 Label_3_0128B4D5
// 009   ----------------------------------------
Label_3_0128B53B:
 BYTE   N10  En1  v072
 BYTE   W12
 BYTE   N09  En2  v064
 BYTE   W12
 BYTE   En1  v068
 BYTE   W12
 BYTE   N04  En2  v064
 BYTE   W06
 BYTE   N10  Dn2
 BYTE   W12
 BYTE   N04  En1
 BYTE   W06
 BYTE   N09  Cs2
 BYTE   W12
 BYTE   Dn2  v068
 BYTE   W12
 BYTE   En2  v064
 BYTE   W12
 BYTE   PEND 
// 010   ----------------------------------------
 BYTE   PATT
  POIN2 Label_3_0128B4D5
// 011   ----------------------------------------
Label_3_0128B55F:
 BYTE   N10  En1  v072
 BYTE   W12
 BYTE   N09  En2  v064
 BYTE   W12
 BYTE   En1  v068
 BYTE   W12
 BYTE   N04  En2  v064
 BYTE   W06
 BYTE   N10  Dn2
 BYTE   W12
 BYTE   N04
 BYTE   W06
 BYTE   N09  Bn1
 BYTE   W12
 BYTE   Dn2  v068
 BYTE   W12
 BYTE   En2  v064
 BYTE   W12
 BYTE   PEND 
// 012   ----------------------------------------
 BYTE   PATT
  POIN2 Label_3_0128B4D5
// 013   ----------------------------------------
 BYTE   PATT
  POIN2 Label_3_0128B53B
// 014   ----------------------------------------
 BYTE   PATT
  POIN2 Label_3_0128B4D5
// 015   ----------------------------------------
 BYTE   N10  Bn1  v072
 BYTE   W12
 BYTE   N09  Bn2  v064
 BYTE   W12
 BYTE   Bn1  v068
 BYTE   W12
 BYTE   Bn2  v064
 BYTE   W12
 BYTE   N04  Bn1  v068
 BYTE   W06
 BYTE   Bn1  v064
 BYTE   W06
 BYTE   Bn2
 BYTE   W06
 BYTE   N04
 BYTE   W06
 BYTE   Bn1  v068
 BYTE   W06
 BYTE   Bn1  v064
 BYTE   W06
 BYTE   Bn2
 BYTE   W05
 BYTE   N04
 BYTE   W07
// 016   ----------------------------------------
 BYTE   N10  En1  v072
 BYTE   W12
 BYTE   N09  En2  v064
 BYTE   W12
 BYTE   En1  v068
 BYTE   W12
 BYTE   N04  En2  v064
 BYTE   W06
 BYTE   N10  Dn2
 BYTE   W12
 BYTE   N04  En1
 BYTE   W06
 BYTE   N09  Bn1
 BYTE   W12
 BYTE   Dn2  v068
 BYTE   W12
 BYTE   En2  v064
 BYTE   W12
// 017   ----------------------------------------
 BYTE   PATT
  POIN2 Label_3_0128B4B6
// 018   ----------------------------------------
 BYTE   PATT
  POIN2 Label_3_0128B4D5
// 019   ----------------------------------------
 BYTE   PATT
  POIN2 Label_3_0128B4F3
// 020   ----------------------------------------
 BYTE   PATT
  POIN2 Label_3_0128B4F3
// 021   ----------------------------------------
 BYTE   PATT
  POIN2 Label_3_0128B4B6
// 022   ----------------------------------------
 BYTE   PATT
  POIN2 Label_3_0128B4D5
// 023   ----------------------------------------
 BYTE   PATT
  POIN2 Label_3_0128B521
// 024   ----------------------------------------
 BYTE   PATT
  POIN2 Label_3_0128B4D5
// 025   ----------------------------------------
 BYTE   PATT
  POIN2 Label_3_0128B53B
// 026   ----------------------------------------
 BYTE   PATT
  POIN2 Label_3_0128B4D5
// 027   ----------------------------------------
 BYTE   PATT
  POIN2 Label_3_0128B55F
// 028   ----------------------------------------
 BYTE   PATT
  POIN2 Label_3_0128B4D5
// 029   ----------------------------------------
 BYTE   PATT
  POIN2 Label_3_0128B53B
// 030   ----------------------------------------
 BYTE   PATT
  POIN2 Label_3_0128B4D5
// 031   ----------------------------------------
 BYTE   N10  Bn1  v072
 BYTE   W12
 BYTE   N09  Bn2  v064
 BYTE   W12
 BYTE   Bn1  v068
 BYTE   W12
 BYTE   Bn2  v064
 BYTE   W12
 BYTE   N04  Bn1  v068
 BYTE   W06
 BYTE   Bn1  v064
 BYTE   W06
 BYTE   Bn2
 BYTE   W06
 BYTE   N04
 BYTE   W06
 BYTE   Bn1  v068
 BYTE   W06
 BYTE   Bn1  v064
 BYTE   W06
 BYTE   Bn2
 BYTE   W05
 BYTE   N04
 BYTE   W06
 BYTE   GoTo
  POIN2 Label_3_0128B492
 BYTE   FINE

//**************** Track 5 (Midi-Chn.4) ****************//

MarioGolfGBCVsPuttsPandan_005:
// 000   ----------------------------------------
 BYTE   KEYSH   MarioGolfGBCVsPuttsPandan_key+0
Label_4_0128B63E:
 BYTE   VOICE   121
 BYTE   VOL   36*MarioGolfGBCVsPuttsPandan_mvl/mxv
 BYTE   PAN   c_v+0
 BYTE   N12  Cn1  v072
 BYTE   W12
 BYTE   N11  Cn1  v064
 BYTE   W12
 BYTE   Dn1  v068
 BYTE   W12
 BYTE   N05  Cn1  v064
 BYTE   W06
 BYTE   N12
 BYTE   W12
 BYTE   N05
 BYTE   W06
 BYTE   N11
 BYTE   W12
 BYTE   N23  Dn1  v068
 BYTE   W24
// 001   ----------------------------------------
Label_4_0128B65D:
 BYTE   N06  Cn1  v072
 BYTE   W07
 BYTE   N17  Dn1  v064
 BYTE   W17
 BYTE   N11  Dn1  v068
 BYTE   W12
 BYTE   N05  Cn1  v064
 BYTE   W06
 BYTE   N11
 BYTE   W13
 BYTE   N05
 BYTE   W05
 BYTE   N11
 BYTE   W12
 BYTE   N05  Dn1  v068
 BYTE   W06
 BYTE   Cn1  v064
 BYTE   N05  Dn1
 BYTE   W06
 BYTE   N11
 BYTE   N11  Fs2
 BYTE   W12
 BYTE   PEND 
// 002   ----------------------------------------
Label_4_0128B681:
 BYTE   N12  Cn1  v072
 BYTE   W12
 BYTE   N11  Cn1  v064
 BYTE   W12
 BYTE   Dn1  v068
 BYTE   W12
 BYTE   N05  Cn1  v064
 BYTE   W06
 BYTE   N11
 BYTE   W12
 BYTE   N05
 BYTE   W06
 BYTE   N11
 BYTE   W12
 BYTE   N23  Dn1  v068
 BYTE   W24
 BYTE   PEND 
// 003   ----------------------------------------
Label_4_0128B69B:
 BYTE   N06  Cn1  v072
 BYTE   W07
 BYTE   N17  Dn1  v064
 BYTE   W17
 BYTE   N11  Dn1  v068
 BYTE   W13
 BYTE   N05  Cn1  v064
 BYTE   W05
 BYTE   N11
 BYTE   W13
 BYTE   N05
 BYTE   W05
 BYTE   N11
 BYTE   W12
 BYTE   N05  Dn1  v068
 BYTE   W06
 BYTE   Cn1  v064
 BYTE   N05  Dn1
 BYTE   W06
 BYTE   N11
 BYTE   N11  Fs2
 BYTE   W12
 BYTE   PEND 
// 004   ----------------------------------------
 BYTE   PATT
  POIN2 Label_4_0128B681
// 005   ----------------------------------------
Label_4_0128B6C4:
 BYTE   N06  Cn1  v072
 BYTE   W07
 BYTE   N17  Dn1  v064
 BYTE   W17
 BYTE   N11  Dn1  v068
 BYTE   W12
 BYTE   N05  Cn1  v064
 BYTE   W06
 BYTE   N12
 BYTE   W13
 BYTE   N05
 BYTE   W05
 BYTE   N11
 BYTE   W12
 BYTE   N05  Dn1  v068
 BYTE   W06
 BYTE   Cn1  v064
 BYTE   N05  Dn1
 BYTE   W06
 BYTE   N11
 BYTE   N11  Fs2
 BYTE   W12
 BYTE   PEND 
// 006   ----------------------------------------
Label_4_0128B6E8:
 BYTE   N12  Cn1  v072
 BYTE   W12
 BYTE   N11  Cn1  v064
 BYTE   W12
 BYTE   Dn1  v068
 BYTE   W12
 BYTE   N05  Cn1  v064
 BYTE   W06
 BYTE   N11
 BYTE   W13
 BYTE   N05
 BYTE   W05
 BYTE   N11
 BYTE   W12
 BYTE   N23  Dn1  v068
 BYTE   W24
 BYTE   PEND 
// 007   ----------------------------------------
Label_4_0128B702:
 BYTE   N18  As1  v072
 BYTE   W19
 BYTE   N17  As1  v064
 BYTE   W17
 BYTE   N23
 BYTE   W24
 BYTE   N05  Cn1
 BYTE   W06
 BYTE   N06
 BYTE   W06
 BYTE   N05  Dn1  v068
 BYTE   W06
 BYTE   Dn1  v064
 BYTE   W06
 BYTE   Cn1
 BYTE   N05  Dn1
 BYTE   W05
 BYTE   N06
 BYTE   W01
 BYTE   N05  Cn1
 BYTE   W06
 BYTE   PEND 
// 008   ----------------------------------------
 BYTE   PATT
  POIN2 Label_4_0128B681
// 009   ----------------------------------------
Label_4_0128B727:
 BYTE   N12  Cn1  v072
 BYTE   W12
 BYTE   N11  Cn1  v064
 BYTE   W12
 BYTE   Dn1  v068
 BYTE   W13
 BYTE   N05  Cn1  v064
 BYTE   W05
 BYTE   N12
 BYTE   W12
 BYTE   N05
 BYTE   W06
 BYTE   N11
 BYTE   W12
 BYTE   Dn1  v068
 BYTE   W12
 BYTE   N05  Dn1  v064
 BYTE   W05
 BYTE   N06
 BYTE   W07
 BYTE   PEND 
// 010   ----------------------------------------
Label_4_0128B746:
 BYTE   N12  Cn1  v072
 BYTE   W12
 BYTE   N11  Cn1  v064
 BYTE   W12
 BYTE   Dn1  v068
 BYTE   W13
 BYTE   N05  Cn1  v064
 BYTE   W05
 BYTE   N12
 BYTE   W13
 BYTE   N05
 BYTE   W05
 BYTE   N11
 BYTE   W12
 BYTE   N23  Dn1  v068
 BYTE   W24
 BYTE   PEND 
// 011   ----------------------------------------
Label_4_0128B760:
 BYTE   N12  Cn1  v072
 BYTE   W12
 BYTE   N11  Cn1  v064
 BYTE   W12
 BYTE   Dn1  v068
 BYTE   W12
 BYTE   N05  Cn1  v064
 BYTE   W06
 BYTE   N12
 BYTE   W12
 BYTE   N05
 BYTE   W06
 BYTE   N11
 BYTE   W12
 BYTE   Dn1  v068
 BYTE   W12
 BYTE   N05  Dn1  v064
 BYTE   W05
 BYTE   N06
 BYTE   W07
 BYTE   PEND 
// 012   ----------------------------------------
 BYTE   PATT
  POIN2 Label_4_0128B6E8
// 013   ----------------------------------------
Label_4_0128B784:
 BYTE   N12  Cn1  v072
 BYTE   W12
 BYTE   N11  Cn1  v064
 BYTE   W12
 BYTE   Dn1  v068
 BYTE   W13
 BYTE   N05  Cn1  v064
 BYTE   W06
 BYTE   N11
 BYTE   W11
 BYTE   N05
 BYTE   W06
 BYTE   N11
 BYTE   W12
 BYTE   Dn1  v068
 BYTE   W12
 BYTE   N05  Dn1  v064
 BYTE   W05
 BYTE   N06
 BYTE   W07
 BYTE   PEND 
// 014   ----------------------------------------
Label_4_0128B7A3:
 BYTE   N12  Cn1  v072
 BYTE   W12
 BYTE   N11  Cn1  v064
 BYTE   W12
 BYTE   Dn1  v068
 BYTE   W12
 BYTE   N05  Cn1  v064
 BYTE   W06
 BYTE   N12
 BYTE   W13
 BYTE   N05
 BYTE   W05
 BYTE   N11
 BYTE   W12
 BYTE   N23  Dn1  v068
 BYTE   W24
 BYTE   PEND 
// 015   ----------------------------------------
 BYTE   N12  Cn1  v072
 BYTE   W12
 BYTE   N11  Cn1  v064
 BYTE   W12
 BYTE   Dn1  v068
 BYTE   W12
 BYTE   N05  Cn1  v064
 BYTE   W06
 BYTE   N12
 BYTE   W12
 BYTE   N05
 BYTE   W06
 BYTE   N11
 BYTE   W12
 BYTE   N05  Dn1  v068
 BYTE   W06
 BYTE   Dn1  v064
 BYTE   W06
 BYTE   Cn1
 BYTE   N05  Dn1
 BYTE   W05
 BYTE   N06  Cn1
 BYTE   N06  Dn1
 BYTE   W07
// 016   ----------------------------------------
 BYTE   N12  Cn1  v072
 BYTE   W12
 BYTE   N11  Cn1  v064
 BYTE   W12
 BYTE   Dn1  v068
 BYTE   W12
 BYTE   N05  Cn1  v064
 BYTE   W06
 BYTE   N12
 BYTE   W12
 BYTE   N05
 BYTE   W06
 BYTE   N11
 BYTE   W12
 BYTE   N23  Dn1  v068
 BYTE   W24
// 017   ----------------------------------------
 BYTE   PATT
  POIN2 Label_4_0128B65D
// 018   ----------------------------------------
 BYTE   PATT
  POIN2 Label_4_0128B681
// 019   ----------------------------------------
 BYTE   PATT
  POIN2 Label_4_0128B69B
// 020   ----------------------------------------
 BYTE   PATT
  POIN2 Label_4_0128B681
// 021   ----------------------------------------
 BYTE   PATT
  POIN2 Label_4_0128B6C4
// 022   ----------------------------------------
 BYTE   PATT
  POIN2 Label_4_0128B6E8
// 023   ----------------------------------------
 BYTE   PATT
  POIN2 Label_4_0128B702
// 024   ----------------------------------------
 BYTE   PATT
  POIN2 Label_4_0128B681
// 025   ----------------------------------------
 BYTE   PATT
  POIN2 Label_4_0128B727
// 026   ----------------------------------------
 BYTE   PATT
  POIN2 Label_4_0128B746
// 027   ----------------------------------------
 BYTE   PATT
  POIN2 Label_4_0128B760
// 028   ----------------------------------------
 BYTE   PATT
  POIN2 Label_4_0128B6E8
// 029   ----------------------------------------
 BYTE   PATT
  POIN2 Label_4_0128B784
// 030   ----------------------------------------
 BYTE   PATT
  POIN2 Label_4_0128B7A3
// 031   ----------------------------------------
 BYTE   N12  Cn1  v072
 BYTE   W12
 BYTE   N11  Cn1  v064
 BYTE   W12
 BYTE   Dn1  v068
 BYTE   W12
 BYTE   N05  Cn1  v064
 BYTE   W06
 BYTE   N12
 BYTE   W12
 BYTE   N05
 BYTE   W06
 BYTE   N11
 BYTE   W12
 BYTE   N05  Dn1  v068
 BYTE   W06
 BYTE   Dn1  v064
 BYTE   W06
 BYTE   Cn1
 BYTE   N05  Dn1
 BYTE   W05
 BYTE   N06  Cn1
 BYTE   N06  Dn1
 BYTE   W06
 BYTE   GoTo
  POIN2 Label_4_0128B63E
 BYTE   FINE

//******************************************************//
	ALIGN 4

MarioGolfGBCVsPuttsPandan:
	BYTE	5	// NumTrks
	BYTE	0	// NumBlks
	BYTE	MarioGolfGBCVsPuttsPandan_pri	// Priority
	BYTE	MarioGolfGBCVsPuttsPandan_rev	// Reverb.
    
	POIN2	MarioGolfGBCVsPuttsPandan_grp
    
	POIN2	MarioGolfGBCVsPuttsPandan_001
	POIN2	MarioGolfGBCVsPuttsPandan_002
	POIN2	MarioGolfGBCVsPuttsPandan_003
	POIN2	MarioGolfGBCVsPuttsPandan_004
	POIN2	MarioGolfGBCVsPuttsPandan_005

	
