	.include "MPlayDef.s"

	.equ	MarioKartDSChocoMountain_grp, voicegroup000
	.equ	MarioKartDSChocoMountain_pri, 0
	.equ	MarioKartDSChocoMountain_rev, 0
	.equ	MarioKartDSChocoMountain_mvl, 127
	.equ	MarioKartDSChocoMountain_key, 0
	.equ	MarioKartDSChocoMountain_tbs, 1
	.equ	MarioKartDSChocoMountain_exg, 0
	.equ	MarioKartDSChocoMountain_cmp, 1

	.section .rodata
	.global	MarioKartDSChocoMountain
	.align	2


@**************** Track 1 (Midi-Chn.0) ****************@

MarioKartDSChocoMountain_001:
@  #01 @000   ----------------------------------------
 .byte   KEYSH , MarioKartDSChocoMountain_key+0
 .byte   TEMPO , 150*MarioKartDSChocoMountain_tbs/2
 .byte   VOICE , 33
 .byte   MODT 0
 .byte   LFOS 44
 .byte   VOL , 76*MarioKartDSChocoMountain_mvl/mxv
 .byte   N06 ,Gn1 ,v127
 .byte   W12
 .byte   N06
 .byte   W12
 .byte   Bn1
 .byte   W12
 .byte   N06
 .byte   W12
 .byte   Dn1
 .byte   W12
 .byte   N06
 .byte   W12
 .byte   N12 ,En1
 .byte   W12
 .byte   Fs1
 .byte   W12
@  #01 @001   ----------------------------------------
Label_0100E44F:
 .byte   N06 ,Gn1 ,v127
 .byte   W12
 .byte   N06
 .byte   W12
 .byte   Bn1
 .byte   W12
 .byte   N06
 .byte   W12
 .byte   Dn1
 .byte   W12
 .byte   N06
 .byte   W12
 .byte   N12 ,En1
 .byte   W12
 .byte   Fs1
 .byte   W12
 .byte   PEND 
@  #01 @002   ----------------------------------------
 .byte   PATT
  .word Label_0100E44F
@  #01 @003   ----------------------------------------
Label_0100E468:
 .byte   N06 ,Cn1 ,v127
 .byte   W12
 .byte   N06
 .byte   W12
 .byte   Gn1
 .byte   W12
 .byte   N06
 .byte   W12
 .byte   Cn2
 .byte   W12
 .byte   N06
 .byte   W12
 .byte   N12 ,Gn1
 .byte   W12
 .byte   Cn1
 .byte   W12
 .byte   PEND 
@  #01 @004   ----------------------------------------
Label_0100E47C:
 .byte   N06 ,Gn1 ,v127
 .byte   W12
 .byte   N06
 .byte   W12
 .byte   N12 ,Bn1
 .byte   W12
 .byte   N06 ,Dn2
 .byte   W12
 .byte   Fs1
 .byte   W12
 .byte   N06
 .byte   W12
 .byte   N12 ,As1
 .byte   W12
 .byte   N06 ,Dn2
 .byte   W12
 .byte   PEND 
@  #01 @005   ----------------------------------------
Label_0100E493:
 .byte   N06 ,Fn1 ,v127
 .byte   W12
 .byte   N06
 .byte   W12
 .byte   N12 ,Dn2
 .byte   W12
 .byte   N06 ,Fn2
 .byte   W12
 .byte   Cn1
 .byte   W12
 .byte   N06
 .byte   W12
 .byte   N12 ,Gn1
 .byte   W12
 .byte   N06 ,Dn2
 .byte   W12
 .byte   PEND 
@  #01 @006   ----------------------------------------
Label_0100E4AA:
 .byte   N06 ,An0 ,v127
 .byte   W12
 .byte   N06
 .byte   W12
 .byte   Cs1
 .byte   W12
 .byte   N06
 .byte   W12
 .byte   En1
 .byte   W12
 .byte   N06
 .byte   W12
 .byte   An1
 .byte   W12
 .byte   En1
 .byte   W12
 .byte   PEND 
@  #01 @007   ----------------------------------------
Label_0100E4BD:
 .byte   N06 ,Dn1 ,v127
 .byte   W12
 .byte   N06
 .byte   W12
 .byte   N12 ,Fs1
 .byte   W12
 .byte   N06 ,Dn1
 .byte   W12
 .byte   Dn2
 .byte   W48
 .byte   PEND 
@  #01 @008   ----------------------------------------
 .byte   PATT
  .word Label_0100E44F
@  #01 @009   ----------------------------------------
 .byte   PATT
  .word Label_0100E44F
@  #01 @010   ----------------------------------------
 .byte   PATT
  .word Label_0100E44F
@  #01 @011   ----------------------------------------
 .byte   PATT
  .word Label_0100E468
@  #01 @012   ----------------------------------------
 .byte   PATT
  .word Label_0100E47C
@  #01 @013   ----------------------------------------
 .byte   PATT
  .word Label_0100E493
@  #01 @014   ----------------------------------------
Label_0100E4EA:
 .byte   N06 ,Dn1 ,v127
 .byte   W12
 .byte   N06
 .byte   W12
 .byte   N06
 .byte   W12
 .byte   N06
 .byte   W12
 .byte   Fn1
 .byte   W12
 .byte   N06
 .byte   W12
 .byte   An1
 .byte   W12
 .byte   En1
 .byte   W12
 .byte   PEND 
@  #01 @015   ----------------------------------------
Label_0100E4FD:
 .byte   N06 ,Gn1 ,v127
 .byte   W12
 .byte   N06
 .byte   W12
 .byte   N12 ,Gn0
 .byte   W12
 .byte   N06 ,Gn1
 .byte   W12
 .byte   Gn0
 .byte   W48
 .byte   PEND 
@  #01 @016   ----------------------------------------
Label_0100E50C:
 .byte   N24 ,Cn2 ,v127
 .byte   W24
 .byte   Gn1
 .byte   W24
 .byte   Cn2
 .byte   W24
 .byte   Gn1
 .byte   W24
 .byte   PEND 
@  #01 @017   ----------------------------------------
Label_0100E517:
 .byte   N24 ,Gn1 ,v127
 .byte   W24
 .byte   Dn1
 .byte   W24
 .byte   Gn1
 .byte   W24
 .byte   Dn1
 .byte   W24
 .byte   PEND 
@  #01 @018   ----------------------------------------
Label_0100E522:
 .byte   N24 ,Dn2 ,v127
 .byte   W24
 .byte   An1
 .byte   W24
 .byte   Dn2
 .byte   W24
 .byte   An1
 .byte   W24
 .byte   PEND 
@  #01 @019   ----------------------------------------
Label_0100E52D:
 .byte   N24 ,Gn1 ,v127
 .byte   W24
 .byte   Dn1
 .byte   W24
 .byte   N06 ,Gn1
 .byte   W12
 .byte   N12
 .byte   W12
 .byte   An1
 .byte   W12
 .byte   Bn1
 .byte   W12
 .byte   PEND 
@  #01 @020   ----------------------------------------
 .byte   PATT
  .word Label_0100E50C
@  #01 @021   ----------------------------------------
 .byte   PATT
  .word Label_0100E517
@  #01 @022   ----------------------------------------
Label_0100E547:
 .byte   N24 ,Dn2 ,v127
 .byte   W24
 .byte   An1
 .byte   W24
 .byte   Dn1
 .byte   W24
 .byte   Dn2
 .byte   W24
 .byte   PEND 
@  #01 @023   ----------------------------------------
 .byte   PATT
  .word Label_0100E52D
@  #01 @024   ----------------------------------------
 .byte   PATT
  .word Label_0100E50C
@  #01 @025   ----------------------------------------
 .byte   PATT
  .word Label_0100E517
@  #01 @026   ----------------------------------------
 .byte   PATT
  .word Label_0100E522
@  #01 @027   ----------------------------------------
 .byte   PATT
  .word Label_0100E52D
@  #01 @028   ----------------------------------------
 .byte   PATT
  .word Label_0100E50C
@  #01 @029   ----------------------------------------
 .byte   PATT
  .word Label_0100E517
@  #01 @030   ----------------------------------------
 .byte   PATT
  .word Label_0100E547
@  #01 @031   ----------------------------------------
Label_0100E57A:
 .byte   N24 ,Dn1 ,v127
 .byte   W24
 .byte   Dn2
 .byte   W24
 .byte   N12 ,Dn1
 .byte   W12
 .byte   N12
 .byte   W12
 .byte   Dn2
 .byte   W12
 .byte   Dn1
 .byte   W12
 .byte   PEND 
@  #01 @032   ----------------------------------------
Label_0100E58A:
 .byte   N18 ,Gn1 ,v127
 .byte   W24
 .byte   Dn1
 .byte   W24
 .byte   En1
 .byte   W24
 .byte   Fs1
 .byte   W24
 .byte   PEND 
@  #01 @033   ----------------------------------------
 .byte   PATT
  .word Label_0100E58A
@  #01 @034   ----------------------------------------
 .byte   PATT
  .word Label_0100E58A
@  #01 @035   ----------------------------------------
 .byte   PATT
  .word Label_0100E58A
@  #01 @036   ----------------------------------------
 .byte   PATT
  .word Label_0100E58A
@  #01 @037   ----------------------------------------
 .byte   PATT
  .word Label_0100E58A
@  #01 @038   ----------------------------------------
 .byte   PATT
  .word Label_0100E58A
@  #01 @039   ----------------------------------------
 .byte   PATT
  .word Label_0100E58A
@  #01 @040   ----------------------------------------
 .byte   PATT
  .word Label_0100E44F
@  #01 @041   ----------------------------------------
 .byte   PATT
  .word Label_0100E44F
@  #01 @042   ----------------------------------------
 .byte   PATT
  .word Label_0100E44F
@  #01 @043   ----------------------------------------
Label_0100E5C7:
 .byte   N06 ,Gn1 ,v127
 .byte   W12
 .byte   N06
 .byte   W12
 .byte   Bn1
 .byte   W12
 .byte   N06
 .byte   W12
 .byte   Dn1
 .byte   W12
 .byte   N06
 .byte   W12
 .byte   N12
 .byte   W12
 .byte   Cs1
 .byte   W12
 .byte   PEND 
@  #01 @044   ----------------------------------------
Label_0100E5DA:
 .byte   N06 ,Cn1 ,v127
 .byte   W12
 .byte   N06
 .byte   W12
 .byte   En1
 .byte   W12
 .byte   N06
 .byte   W12
 .byte   Gn0
 .byte   W12
 .byte   N06
 .byte   W12
 .byte   N12 ,An0
 .byte   W12
 .byte   Bn0
 .byte   W12
 .byte   PEND 
@  #01 @045   ----------------------------------------
Label_0100E5EE:
 .byte   N06 ,Cn1 ,v127
 .byte   W12
 .byte   N06
 .byte   W12
 .byte   En1
 .byte   W12
 .byte   N06
 .byte   W12
 .byte   Gn0
 .byte   W12
 .byte   N06
 .byte   W12
 .byte   N12 ,Dn1
 .byte   W12
 .byte   Fs1
 .byte   W12
 .byte   PEND 
@  #01 @046   ----------------------------------------
 .byte   PATT
  .word Label_0100E44F
@  #01 @047   ----------------------------------------
 .byte   PATT
  .word Label_0100E44F
@  #01 @048   ----------------------------------------
Label_0100E60C:
 .byte   N06 ,Dn1 ,v127
 .byte   W12
 .byte   N06
 .byte   W12
 .byte   Fs1
 .byte   W12
 .byte   N06
 .byte   W12
 .byte   An1
 .byte   W12
 .byte   N06
 .byte   W12
 .byte   N12 ,Dn1
 .byte   W12
 .byte   Cs1
 .byte   W12
 .byte   PEND 
@  #01 @049   ----------------------------------------
Label_0100E620:
 .byte   N06 ,Cn1 ,v127
 .byte   W12
 .byte   N06
 .byte   W12
 .byte   En1
 .byte   W12
 .byte   N06
 .byte   W12
 .byte   Gn1
 .byte   W12
 .byte   N06
 .byte   W12
 .byte   N12 ,Cn1
 .byte   W12
 .byte   Cs1
 .byte   W12
 .byte   PEND 
@  #01 @050   ----------------------------------------
 .byte   PATT
  .word Label_0100E60C
@  #01 @051   ----------------------------------------
 .byte   PATT
  .word Label_0100E620
@  #01 @052   ----------------------------------------
 .byte   PATT
  .word Label_0100E60C
@  #01 @053   ----------------------------------------
 .byte   PATT
  .word Label_0100E620
@  #01 @054   ----------------------------------------
Label_0100E648:
 .byte   N06 ,Dn1 ,v127
 .byte   W12
 .byte   N06
 .byte   W12
 .byte   Fs1
 .byte   W12
 .byte   N06
 .byte   W12
 .byte   An1
 .byte   W12
 .byte   N06
 .byte   W12
 .byte   Fs1
 .byte   W12
 .byte   N06
 .byte   W12
 .byte   PEND 
@  #01 @055   ----------------------------------------
Label_0100E65B:
 .byte   N06 ,Dn1 ,v127
 .byte   W12
 .byte   N06
 .byte   W12
 .byte   N06
 .byte   W12
 .byte   N06
 .byte   W12
 .byte   N06
 .byte   W12
 .byte   N06
 .byte   W12
 .byte   N06
 .byte   W12
 .byte   N06
 .byte   W12
 .byte   PEND 
@  #01 @056   ----------------------------------------
 .byte   PATT
  .word Label_0100E44F
@  #01 @057   ----------------------------------------
 .byte   PATT
  .word Label_0100E44F
@  #01 @058   ----------------------------------------
 .byte   PATT
  .word Label_0100E44F
@  #01 @059   ----------------------------------------
 .byte   PATT
  .word Label_0100E468
@  #01 @060   ----------------------------------------
 .byte   PATT
  .word Label_0100E47C
@  #01 @061   ----------------------------------------
 .byte   PATT
  .word Label_0100E493
@  #01 @062   ----------------------------------------
 .byte   PATT
  .word Label_0100E4AA
@  #01 @063   ----------------------------------------
 .byte   PATT
  .word Label_0100E4BD
@  #01 @064   ----------------------------------------
 .byte   PATT
  .word Label_0100E44F
@  #01 @065   ----------------------------------------
 .byte   PATT
  .word Label_0100E44F
@  #01 @066   ----------------------------------------
 .byte   PATT
  .word Label_0100E44F
@  #01 @067   ----------------------------------------
 .byte   PATT
  .word Label_0100E468
@  #01 @068   ----------------------------------------
 .byte   PATT
  .word Label_0100E47C
@  #01 @069   ----------------------------------------
 .byte   PATT
  .word Label_0100E493
@  #01 @070   ----------------------------------------
 .byte   PATT
  .word Label_0100E4EA
@  #01 @071   ----------------------------------------
 .byte   PATT
  .word Label_0100E4FD
@  #01 @072   ----------------------------------------
 .byte   PATT
  .word Label_0100E50C
@  #01 @073   ----------------------------------------
 .byte   PATT
  .word Label_0100E517
@  #01 @074   ----------------------------------------
 .byte   PATT
  .word Label_0100E522
@  #01 @075   ----------------------------------------
 .byte   PATT
  .word Label_0100E52D
@  #01 @076   ----------------------------------------
 .byte   PATT
  .word Label_0100E50C
@  #01 @077   ----------------------------------------
 .byte   PATT
  .word Label_0100E517
@  #01 @078   ----------------------------------------
 .byte   PATT
  .word Label_0100E547
@  #01 @079   ----------------------------------------
 .byte   PATT
  .word Label_0100E52D
@  #01 @080   ----------------------------------------
 .byte   PATT
  .word Label_0100E50C
@  #01 @081   ----------------------------------------
 .byte   PATT
  .word Label_0100E517
@  #01 @082   ----------------------------------------
 .byte   PATT
  .word Label_0100E522
@  #01 @083   ----------------------------------------
 .byte   PATT
  .word Label_0100E52D
@  #01 @084   ----------------------------------------
 .byte   PATT
  .word Label_0100E50C
@  #01 @085   ----------------------------------------
 .byte   PATT
  .word Label_0100E517
@  #01 @086   ----------------------------------------
 .byte   PATT
  .word Label_0100E547
@  #01 @087   ----------------------------------------
 .byte   PATT
  .word Label_0100E57A
@  #01 @088   ----------------------------------------
 .byte   PATT
  .word Label_0100E58A
@  #01 @089   ----------------------------------------
 .byte   PATT
  .word Label_0100E58A
@  #01 @090   ----------------------------------------
 .byte   PATT
  .word Label_0100E58A
@  #01 @091   ----------------------------------------
 .byte   PATT
  .word Label_0100E58A
@  #01 @092   ----------------------------------------
 .byte   PATT
  .word Label_0100E58A
@  #01 @093   ----------------------------------------
 .byte   PATT
  .word Label_0100E58A
@  #01 @094   ----------------------------------------
 .byte   PATT
  .word Label_0100E58A
@  #01 @095   ----------------------------------------
 .byte   PATT
  .word Label_0100E58A
@  #01 @096   ----------------------------------------
 .byte   PATT
  .word Label_0100E44F
@  #01 @097   ----------------------------------------
 .byte   PATT
  .word Label_0100E44F
@  #01 @098   ----------------------------------------
 .byte   PATT
  .word Label_0100E44F
@  #01 @099   ----------------------------------------
 .byte   PATT
  .word Label_0100E5C7
@  #01 @100   ----------------------------------------
 .byte   PATT
  .word Label_0100E5DA
@  #01 @101   ----------------------------------------
 .byte   PATT
  .word Label_0100E5EE
@  #01 @102   ----------------------------------------
 .byte   PATT
  .word Label_0100E44F
@  #01 @103   ----------------------------------------
 .byte   PATT
  .word Label_0100E44F
@  #01 @104   ----------------------------------------
 .byte   PATT
  .word Label_0100E60C
@  #01 @105   ----------------------------------------
 .byte   PATT
  .word Label_0100E620
@  #01 @106   ----------------------------------------
 .byte   PATT
  .word Label_0100E60C
@  #01 @107   ----------------------------------------
 .byte   PATT
  .word Label_0100E620
@  #01 @108   ----------------------------------------
 .byte   PATT
  .word Label_0100E60C
@  #01 @109   ----------------------------------------
 .byte   PATT
  .word Label_0100E620
@  #01 @110   ----------------------------------------
 .byte   PATT
  .word Label_0100E648
@  #01 @111   ----------------------------------------
 .byte   PATT
  .word Label_0100E65B
 .byte   FINE

@**************** Track 2 (Midi-Chn.1) ****************@

MarioKartDSChocoMountain_002:
@  #02 @000   ----------------------------------------
 .byte   VOL , 81*MarioKartDSChocoMountain_mvl/mxv
 .byte   KEYSH , MarioKartDSChocoMountain_key+0
 .byte   VOICE , 104
 .byte   MODT 0
 .byte   LFOS 44
 .byte   W96
@  #02 @001   ----------------------------------------
 .byte   W96
@  #02 @002   ----------------------------------------
 .byte   W96
@  #02 @003   ----------------------------------------
 .byte   W96
@  #02 @004   ----------------------------------------
 .byte   W96
@  #02 @005   ----------------------------------------
 .byte   W96
@  #02 @006   ----------------------------------------
 .byte   W96
@  #02 @007   ----------------------------------------
 .byte   W96
@  #02 @008   ----------------------------------------
 .byte   W96
@  #02 @009   ----------------------------------------
 .byte   W96
@  #02 @010   ----------------------------------------
 .byte   W96
@  #02 @011   ----------------------------------------
 .byte   W96
@  #02 @012   ----------------------------------------
 .byte   W96
@  #02 @013   ----------------------------------------
 .byte   W96
@  #02 @014   ----------------------------------------
 .byte   W96
@  #02 @015   ----------------------------------------
 .byte   W96
@  #02 @016   ----------------------------------------
Label_0100E7A2:
 .byte   N48 ,Cn4 ,v127
 .byte   N48 ,En4
 .byte   W48
 .byte   N24
 .byte   N24 ,Gn4
 .byte   W24
 .byte   Cn4
 .byte   N24 ,En4
 .byte   W24
 .byte   PEND 
@  #02 @017   ----------------------------------------
Label_0100E7B1:
 .byte   N06 ,Bn3 ,v127
 .byte   N06 ,Dn4
 .byte   W12
 .byte   N84
 .byte   N84 ,Gn4
 .byte   W84
 .byte   PEND 
@  #02 @018   ----------------------------------------
Label_0100E7BC:
 .byte   N48 ,An3 ,v127
 .byte   N48 ,Dn4
 .byte   W48
 .byte   N18 ,An3
 .byte   N18 ,Cn4
 .byte   W24
 .byte   An3
 .byte   N18 ,Cn4
 .byte   W24
 .byte   PEND 
@  #02 @019   ----------------------------------------
Label_0100E7CC:
 .byte   N06 ,Gn3 ,v127
 .byte   N06 ,Bn3
 .byte   W12
 .byte   N12 ,Gn3
 .byte   N12 ,Bn3
 .byte   W24
 .byte   N24 ,An3
 .byte   N24 ,Cn4
 .byte   W24
 .byte   N06 ,Bn3
 .byte   N06 ,Dn4
 .byte   W12
 .byte   N24 ,Bn3
 .byte   N24 ,Dn4
 .byte   W24
 .byte   PEND 
@  #02 @020   ----------------------------------------
 .byte   PATT
  .word Label_0100E7A2
@  #02 @021   ----------------------------------------
 .byte   PATT
  .word Label_0100E7B1
@  #02 @022   ----------------------------------------
Label_0100E7F1:
 .byte   N24 ,Dn4 ,v127
 .byte   N24 ,Fs4
 .byte   W24
 .byte   N18 ,Dn4
 .byte   N18 ,Fs4
 .byte   W18
 .byte   Dn4
 .byte   N06 ,Fs4
 .byte   W06
 .byte   An4
 .byte   W12
 .byte   N24 ,Dn4
 .byte   N24 ,Gn4
 .byte   W24
 .byte   N06 ,Cn4
 .byte   N06 ,En4
 .byte   W12
 .byte   PEND 
@  #02 @023   ----------------------------------------
 .byte   N72 ,Dn4
 .byte   N72 ,Gn4
 .byte   W96
@  #02 @024   ----------------------------------------
 .byte   PATT
  .word Label_0100E7A2
@  #02 @025   ----------------------------------------
 .byte   PATT
  .word Label_0100E7B1
@  #02 @026   ----------------------------------------
 .byte   PATT
  .word Label_0100E7BC
@  #02 @027   ----------------------------------------
 .byte   PATT
  .word Label_0100E7CC
@  #02 @028   ----------------------------------------
Label_0100E826:
 .byte   N48 ,Cn4 ,v127
 .byte   N48 ,En4
 .byte   W48
 .byte   N24
 .byte   N24 ,Gn4
 .byte   W24
 .byte   En4
 .byte   N24 ,Bn4
 .byte   W24
 .byte   PEND 
@  #02 @029   ----------------------------------------
Label_0100E835:
 .byte   N12 ,Bn3 ,v127
 .byte   N12 ,Dn4
 .byte   N06 ,An4
 .byte   W12
 .byte   N84 ,Dn4
 .byte   N84 ,Gn4
 .byte   W84
 .byte   PEND 
@  #02 @030   ----------------------------------------
Label_0100E843:
 .byte   N24 ,Dn4 ,v127
 .byte   N24 ,Fs4
 .byte   W24
 .byte   N18 ,Dn4
 .byte   N18 ,Fs4
 .byte   W18
 .byte   N06 ,Dn4
 .byte   N06 ,Fs4
 .byte   W06
 .byte   Dn4
 .byte   N06 ,Fs4
 .byte   W12
 .byte   N24 ,Dn4
 .byte   N24 ,Gn4
 .byte   W24
 .byte   N06 ,Dn4
 .byte   N06 ,An4
 .byte   W12
 .byte   PEND 
@  #02 @031   ----------------------------------------
 .byte   N72 ,Dn4
 .byte   N72 ,An4
 .byte   W96
@  #02 @032   ----------------------------------------
 .byte   W96
@  #02 @033   ----------------------------------------
 .byte   W96
@  #02 @034   ----------------------------------------
 .byte   W96
@  #02 @035   ----------------------------------------
 .byte   W96
@  #02 @036   ----------------------------------------
 .byte   W96
@  #02 @037   ----------------------------------------
 .byte   W96
@  #02 @038   ----------------------------------------
 .byte   W96
@  #02 @039   ----------------------------------------
 .byte   W96
@  #02 @040   ----------------------------------------
 .byte   W96
@  #02 @041   ----------------------------------------
 .byte   W96
@  #02 @042   ----------------------------------------
 .byte   W96
@  #02 @043   ----------------------------------------
 .byte   W96
@  #02 @044   ----------------------------------------
 .byte   W96
@  #02 @045   ----------------------------------------
 .byte   W96
@  #02 @046   ----------------------------------------
 .byte   W96
@  #02 @047   ----------------------------------------
 .byte   W96
@  #02 @048   ----------------------------------------
 .byte   W96
@  #02 @049   ----------------------------------------
 .byte   W96
@  #02 @050   ----------------------------------------
 .byte   W96
@  #02 @051   ----------------------------------------
 .byte   W96
@  #02 @052   ----------------------------------------
 .byte   W96
@  #02 @053   ----------------------------------------
 .byte   W96
@  #02 @054   ----------------------------------------
 .byte   W96
@  #02 @055   ----------------------------------------
 .byte   W96
@  #02 @056   ----------------------------------------
 .byte   W96
@  #02 @057   ----------------------------------------
 .byte   W96
@  #02 @058   ----------------------------------------
 .byte   W96
@  #02 @059   ----------------------------------------
 .byte   W96
@  #02 @060   ----------------------------------------
 .byte   W96
@  #02 @061   ----------------------------------------
 .byte   W96
@  #02 @062   ----------------------------------------
 .byte   W96
@  #02 @063   ----------------------------------------
 .byte   W96
@  #02 @064   ----------------------------------------
 .byte   W96
@  #02 @065   ----------------------------------------
 .byte   W96
@  #02 @066   ----------------------------------------
 .byte   W96
@  #02 @067   ----------------------------------------
 .byte   W96
@  #02 @068   ----------------------------------------
 .byte   W96
@  #02 @069   ----------------------------------------
 .byte   W96
@  #02 @070   ----------------------------------------
 .byte   W96
@  #02 @071   ----------------------------------------
 .byte   W96
@  #02 @072   ----------------------------------------
 .byte   PATT
  .word Label_0100E7A2
@  #02 @073   ----------------------------------------
Label_0100E894:
 .byte   N12 ,Bn3 ,v127
 .byte   N12 ,Dn4
 .byte   W12
 .byte   N84
 .byte   N84 ,Gn4
 .byte   W84
 .byte   PEND 
@  #02 @074   ----------------------------------------
 .byte   PATT
  .word Label_0100E7BC
@  #02 @075   ----------------------------------------
 .byte   PATT
  .word Label_0100E7CC
@  #02 @076   ----------------------------------------
 .byte   PATT
  .word Label_0100E7A2
@  #02 @077   ----------------------------------------
 .byte   PATT
  .word Label_0100E894
@  #02 @078   ----------------------------------------
 .byte   PATT
  .word Label_0100E7F1
@  #02 @079   ----------------------------------------
 .byte   N72 ,Dn4 ,v127
 .byte   N72 ,Gn4
 .byte   W96
@  #02 @080   ----------------------------------------
 .byte   PATT
  .word Label_0100E7A2
@  #02 @081   ----------------------------------------
 .byte   PATT
  .word Label_0100E894
@  #02 @082   ----------------------------------------
 .byte   PATT
  .word Label_0100E7BC
@  #02 @083   ----------------------------------------
 .byte   PATT
  .word Label_0100E7CC
@  #02 @084   ----------------------------------------
 .byte   PATT
  .word Label_0100E826
@  #02 @085   ----------------------------------------
 .byte   PATT
  .word Label_0100E835
@  #02 @086   ----------------------------------------
 .byte   PATT
  .word Label_0100E843
@  #02 @087   ----------------------------------------
 .byte   N72 ,Dn4 ,v127
 .byte   N72 ,An4
 .byte   W96
@  #02 @088   ----------------------------------------
 .byte   W96
@  #02 @089   ----------------------------------------
 .byte   W96
@  #02 @090   ----------------------------------------
 .byte   W96
@  #02 @091   ----------------------------------------
 .byte   W96
@  #02 @092   ----------------------------------------
 .byte   W96
@  #02 @093   ----------------------------------------
 .byte   W96
@  #02 @094   ----------------------------------------
 .byte   W96
@  #02 @095   ----------------------------------------
 .byte   W96
@  #02 @096   ----------------------------------------
 .byte   W96
@  #02 @097   ----------------------------------------
 .byte   W96
@  #02 @098   ----------------------------------------
 .byte   W96
@  #02 @099   ----------------------------------------
 .byte   W96
@  #02 @100   ----------------------------------------
 .byte   W96
@  #02 @101   ----------------------------------------
 .byte   W96
@  #02 @102   ----------------------------------------
 .byte   W96
@  #02 @103   ----------------------------------------
 .byte   W96
@  #02 @104   ----------------------------------------
 .byte   W96
@  #02 @105   ----------------------------------------
 .byte   W96
@  #02 @106   ----------------------------------------
 .byte   W96
@  #02 @107   ----------------------------------------
 .byte   W96
@  #02 @108   ----------------------------------------
 .byte   W96
@  #02 @109   ----------------------------------------
 .byte   W96
@  #02 @110   ----------------------------------------
 .byte   W96
@  #02 @111   ----------------------------------------
 .byte   W96
 .byte   FINE

@**************** Track 3 (Midi-Chn.2) ****************@

MarioKartDSChocoMountain_003:
@  #03 @000   ----------------------------------------
 .byte   KEYSH , MarioKartDSChocoMountain_key+0
 .byte   VOICE , 40
 .byte   MODT 0
 .byte   LFOS 44
 .byte   VOL , 76*MarioKartDSChocoMountain_mvl/mxv
 .byte   N24 ,Dn4 ,v127
 .byte   W24
 .byte   N18
 .byte   W18
 .byte   N06
 .byte   W06
 .byte   Bn3
 .byte   W12
 .byte   N24 ,Dn4
 .byte   W24
 .byte   N06
 .byte   W12
@  #03 @001   ----------------------------------------
Label_0100E919:
 .byte   N06 ,En4 ,v127
 .byte   W12
 .byte   N84 ,Dn4
 .byte   W84
 .byte   PEND 
@  #03 @002   ----------------------------------------
Label_0100E921:
 .byte   N24 ,Dn4 ,v127
 .byte   W24
 .byte   N18
 .byte   W18
 .byte   N06
 .byte   W06
 .byte   Bn3
 .byte   W12
 .byte   N24 ,Dn4
 .byte   W24
 .byte   N06
 .byte   W12
 .byte   PEND 
@  #03 @003   ----------------------------------------
Label_0100E931:
 .byte   N06 ,Gn4 ,v127
 .byte   W12
 .byte   N60 ,Gn3
 .byte   W60
 .byte   N06
 .byte   W12
 .byte   An3
 .byte   W12
 .byte   PEND 
@  #03 @004   ----------------------------------------
Label_0100E93D:
 .byte   N18 ,Bn3 ,v127
 .byte   W24
 .byte   N12
 .byte   W18
 .byte   N06
 .byte   W06
 .byte   An3
 .byte   W12
 .byte   N06
 .byte   W12
 .byte   Dn4
 .byte   W12
 .byte   Cn4
 .byte   W12
 .byte   PEND 
@  #03 @005   ----------------------------------------
Label_0100E94E:
 .byte   N18 ,Bn3 ,v127
 .byte   W24
 .byte   N12
 .byte   W18
 .byte   N06 ,Dn4
 .byte   W06
 .byte   N18 ,Gn4
 .byte   W24
 .byte   N06 ,En4
 .byte   W12
 .byte   Dn4
 .byte   W12
 .byte   PEND 
@  #03 @006   ----------------------------------------
Label_0100E960:
 .byte   N18 ,Cs4 ,v127
 .byte   W24
 .byte   N12
 .byte   W18
 .byte   N06
 .byte   W06
 .byte   N06
 .byte   W12
 .byte   N06
 .byte   W12
 .byte   Dn4
 .byte   W12
 .byte   En4
 .byte   W12
 .byte   PEND 
@  #03 @007   ----------------------------------------
 .byte   N48 ,Dn4
 .byte   W96
@  #03 @008   ----------------------------------------
 .byte   PATT
  .word Label_0100E921
@  #03 @009   ----------------------------------------
 .byte   PATT
  .word Label_0100E919
@  #03 @010   ----------------------------------------
 .byte   PATT
  .word Label_0100E921
@  #03 @011   ----------------------------------------
 .byte   PATT
  .word Label_0100E931
@  #03 @012   ----------------------------------------
Label_0100E988:
 .byte   N18 ,Bn3 ,v127
 .byte   W24
 .byte   N12
 .byte   W18
 .byte   N06
 .byte   W06
 .byte   An3
 .byte   W12
 .byte   N06
 .byte   W12
 .byte   Bn3
 .byte   W12
 .byte   An3
 .byte   W12
 .byte   PEND 
@  #03 @013   ----------------------------------------
Label_0100E999:
 .byte   N18 ,Gn3 ,v127
 .byte   W24
 .byte   N12
 .byte   W18
 .byte   N06 ,Bn3
 .byte   W06
 .byte   N18 ,En4
 .byte   W24
 .byte   N06 ,Dn4
 .byte   W12
 .byte   Cn4
 .byte   W12
 .byte   PEND 
@  #03 @014   ----------------------------------------
Label_0100E9AB:
 .byte   N18 ,Bn3 ,v127
 .byte   W24
 .byte   N12
 .byte   W18
 .byte   N06
 .byte   W06
 .byte   Cn4
 .byte   W12
 .byte   An3
 .byte   W12
 .byte   Gn3
 .byte   W12
 .byte   Fs3
 .byte   W12
 .byte   PEND 
@  #03 @015   ----------------------------------------
 .byte   N48 ,Gn3
 .byte   W96
@  #03 @016   ----------------------------------------
 .byte   W96
@  #03 @017   ----------------------------------------
 .byte   W96
@  #03 @018   ----------------------------------------
 .byte   W96
@  #03 @019   ----------------------------------------
 .byte   W96
@  #03 @020   ----------------------------------------
 .byte   W96
@  #03 @021   ----------------------------------------
 .byte   W96
@  #03 @022   ----------------------------------------
 .byte   W96
@  #03 @023   ----------------------------------------
 .byte   W96
@  #03 @024   ----------------------------------------
 .byte   W96
@  #03 @025   ----------------------------------------
 .byte   W96
@  #03 @026   ----------------------------------------
 .byte   W96
@  #03 @027   ----------------------------------------
 .byte   W96
@  #03 @028   ----------------------------------------
 .byte   W96
@  #03 @029   ----------------------------------------
 .byte   W96
@  #03 @030   ----------------------------------------
 .byte   W96
@  #03 @031   ----------------------------------------
 .byte   W96
@  #03 @032   ----------------------------------------
 .byte   N96
 .byte   W96
@  #03 @033   ----------------------------------------
Label_0100E9D1:
 .byte   N06 ,An3 ,v127
 .byte   W12
 .byte   N84 ,Gn3
 .byte   W84
 .byte   PEND 
@  #03 @034   ----------------------------------------
 .byte   N96
 .byte   W96
@  #03 @035   ----------------------------------------
Label_0100E9DB:
 .byte   N06 ,En3 ,v127
 .byte   W12
 .byte   N84 ,Gn3
 .byte   W84
 .byte   PEND 
@  #03 @036   ----------------------------------------
 .byte   N96
 .byte   W96
@  #03 @037   ----------------------------------------
 .byte   PATT
  .word Label_0100E9D1
@  #03 @038   ----------------------------------------
 .byte   N96 ,Gn3 ,v127
 .byte   W96
@  #03 @039   ----------------------------------------
 .byte   PATT
  .word Label_0100E9DB
@  #03 @040   ----------------------------------------
 .byte   W96
@  #03 @041   ----------------------------------------
 .byte   W96
@  #03 @042   ----------------------------------------
 .byte   W96
@  #03 @043   ----------------------------------------
 .byte   W96
@  #03 @044   ----------------------------------------
 .byte   W96
@  #03 @045   ----------------------------------------
 .byte   W96
@  #03 @046   ----------------------------------------
 .byte   W96
@  #03 @047   ----------------------------------------
 .byte   W96
@  #03 @048   ----------------------------------------
 .byte   W96
@  #03 @049   ----------------------------------------
 .byte   W96
@  #03 @050   ----------------------------------------
 .byte   W96
@  #03 @051   ----------------------------------------
 .byte   W96
@  #03 @052   ----------------------------------------
 .byte   W96
@  #03 @053   ----------------------------------------
 .byte   W96
@  #03 @054   ----------------------------------------
 .byte   W96
@  #03 @055   ----------------------------------------
 .byte   W96
@  #03 @056   ----------------------------------------
 .byte   PATT
  .word Label_0100E921
@  #03 @057   ----------------------------------------
 .byte   PATT
  .word Label_0100E919
@  #03 @058   ----------------------------------------
 .byte   PATT
  .word Label_0100E921
@  #03 @059   ----------------------------------------
 .byte   PATT
  .word Label_0100E931
@  #03 @060   ----------------------------------------
 .byte   PATT
  .word Label_0100E93D
@  #03 @061   ----------------------------------------
 .byte   PATT
  .word Label_0100E94E
@  #03 @062   ----------------------------------------
 .byte   PATT
  .word Label_0100E960
@  #03 @063   ----------------------------------------
 .byte   N48 ,Dn4 ,v127
 .byte   W96
@  #03 @064   ----------------------------------------
 .byte   PATT
  .word Label_0100E921
@  #03 @065   ----------------------------------------
 .byte   PATT
  .word Label_0100E919
@  #03 @066   ----------------------------------------
 .byte   PATT
  .word Label_0100E921
@  #03 @067   ----------------------------------------
 .byte   PATT
  .word Label_0100E931
@  #03 @068   ----------------------------------------
 .byte   PATT
  .word Label_0100E988
@  #03 @069   ----------------------------------------
 .byte   PATT
  .word Label_0100E999
@  #03 @070   ----------------------------------------
 .byte   PATT
  .word Label_0100E9AB
@  #03 @071   ----------------------------------------
 .byte   N48 ,Gn3 ,v127
 .byte   W96
@  #03 @072   ----------------------------------------
 .byte   W96
@  #03 @073   ----------------------------------------
 .byte   W96
@  #03 @074   ----------------------------------------
 .byte   W96
@  #03 @075   ----------------------------------------
 .byte   W96
@  #03 @076   ----------------------------------------
 .byte   W96
@  #03 @077   ----------------------------------------
 .byte   W96
@  #03 @078   ----------------------------------------
 .byte   W96
@  #03 @079   ----------------------------------------
 .byte   W96
@  #03 @080   ----------------------------------------
 .byte   W96
@  #03 @081   ----------------------------------------
 .byte   W96
@  #03 @082   ----------------------------------------
 .byte   W96
@  #03 @083   ----------------------------------------
 .byte   W96
@  #03 @084   ----------------------------------------
 .byte   W96
@  #03 @085   ----------------------------------------
 .byte   W96
@  #03 @086   ----------------------------------------
 .byte   W96
@  #03 @087   ----------------------------------------
 .byte   W96
@  #03 @088   ----------------------------------------
 .byte   N96
 .byte   W96
@  #03 @089   ----------------------------------------
 .byte   PATT
  .word Label_0100E9D1
@  #03 @090   ----------------------------------------
 .byte   N96 ,Gn3 ,v127
 .byte   W96
@  #03 @091   ----------------------------------------
 .byte   PATT
  .word Label_0100E9DB
@  #03 @092   ----------------------------------------
 .byte   N96 ,Gn3 ,v127
 .byte   W96
@  #03 @093   ----------------------------------------
 .byte   PATT
  .word Label_0100E9D1
@  #03 @094   ----------------------------------------
 .byte   N96 ,Gn3 ,v127
 .byte   W96
@  #03 @095   ----------------------------------------
 .byte   PATT
  .word Label_0100E9DB
@  #03 @096   ----------------------------------------
 .byte   W96
@  #03 @097   ----------------------------------------
 .byte   W96
@  #03 @098   ----------------------------------------
 .byte   W96
@  #03 @099   ----------------------------------------
 .byte   W96
@  #03 @100   ----------------------------------------
 .byte   W96
@  #03 @101   ----------------------------------------
 .byte   W96
@  #03 @102   ----------------------------------------
 .byte   W96
@  #03 @103   ----------------------------------------
 .byte   W96
@  #03 @104   ----------------------------------------
 .byte   W96
@  #03 @105   ----------------------------------------
 .byte   W96
@  #03 @106   ----------------------------------------
 .byte   W96
@  #03 @107   ----------------------------------------
 .byte   W96
@  #03 @108   ----------------------------------------
 .byte   W96
@  #03 @109   ----------------------------------------
 .byte   W96
@  #03 @110   ----------------------------------------
 .byte   W96
@  #03 @111   ----------------------------------------
 .byte   W96
 .byte   FINE

@**************** Track 4 (Midi-Chn.3) ****************@

MarioKartDSChocoMountain_004:
@  #04 @000   ----------------------------------------
 .byte   VOL , 91*MarioKartDSChocoMountain_mvl/mxv
 .byte   KEYSH , MarioKartDSChocoMountain_key+0
 .byte   VOICE , 18
 .byte   MODT 0
 .byte   LFOS 44
 .byte   N24 ,Dn3 ,v127
 .byte   N24 ,Bn3
 .byte   W24
 .byte   N18 ,Dn3
 .byte   N18 ,Bn3
 .byte   W18
 .byte   N12 ,Dn3
 .byte   N06 ,Bn3
 .byte   W06
 .byte   An3
 .byte   W12
 .byte   N24 ,Dn3
 .byte   N24 ,Bn3
 .byte   W24
 .byte   N06 ,Dn3
 .byte   N06 ,Bn3
 .byte   W12
@  #04 @001   ----------------------------------------
Label_0100EABA:
 .byte   N06 ,En3 ,v127
 .byte   N06 ,Cn4
 .byte   W12
 .byte   N84 ,Dn3
 .byte   N84 ,Bn3
 .byte   W84
 .byte   PEND 
@  #04 @002   ----------------------------------------
Label_0100EAC6:
 .byte   N24 ,Dn3 ,v127
 .byte   N24 ,Bn3
 .byte   W24
 .byte   N18 ,Dn3
 .byte   N18 ,Bn3
 .byte   W18
 .byte   N12 ,Dn3
 .byte   N06 ,Bn3
 .byte   W06
 .byte   An3
 .byte   W12
 .byte   N24 ,Dn3
 .byte   N24 ,Bn3
 .byte   W24
 .byte   N06 ,Dn3
 .byte   N06 ,Bn3
 .byte   W12
 .byte   PEND 
@  #04 @003   ----------------------------------------
Label_0100EAE3:
 .byte   N06 ,En3 ,v127
 .byte   N06 ,Cn4
 .byte   W12
 .byte   N84 ,En3
 .byte   N84 ,Cn4
 .byte   W84
 .byte   PEND 
@  #04 @004   ----------------------------------------
 .byte   W96
@  #04 @005   ----------------------------------------
 .byte   W96
@  #04 @006   ----------------------------------------
 .byte   W96
@  #04 @007   ----------------------------------------
 .byte   W96
@  #04 @008   ----------------------------------------
 .byte   PATT
  .word Label_0100EAC6
@  #04 @009   ----------------------------------------
 .byte   PATT
  .word Label_0100EABA
@  #04 @010   ----------------------------------------
 .byte   PATT
  .word Label_0100EAC6
@  #04 @011   ----------------------------------------
 .byte   PATT
  .word Label_0100EAE3
@  #04 @012   ----------------------------------------
 .byte   W96
@  #04 @013   ----------------------------------------
 .byte   W96
@  #04 @014   ----------------------------------------
 .byte   W96
@  #04 @015   ----------------------------------------
 .byte   W96
@  #04 @016   ----------------------------------------
 .byte   N96 ,En4 ,v127
 .byte   N96 ,Cn5
 .byte   W96
@  #04 @017   ----------------------------------------
 .byte   Dn4
 .byte   N96 ,Bn4
 .byte   W96
@  #04 @018   ----------------------------------------
 .byte   Dn4
 .byte   N96 ,An4
 .byte   W96
@  #04 @019   ----------------------------------------
 .byte   Dn4
 .byte   N96 ,Bn4
 .byte   W96
@  #04 @020   ----------------------------------------
 .byte   En4
 .byte   N96 ,Cn5
 .byte   W96
@  #04 @021   ----------------------------------------
 .byte   Dn4
 .byte   N96 ,Bn4
 .byte   W96
@  #04 @022   ----------------------------------------
 .byte   Dn4
 .byte   N96 ,An4
 .byte   W96
@  #04 @023   ----------------------------------------
 .byte   Dn4
 .byte   N96 ,Gn4
 .byte   W96
@  #04 @024   ----------------------------------------
 .byte   En4
 .byte   N96 ,Cn5
 .byte   W96
@  #04 @025   ----------------------------------------
 .byte   Dn4
 .byte   N96 ,Bn4
 .byte   W96
@  #04 @026   ----------------------------------------
 .byte   Dn4
 .byte   N96 ,An4
 .byte   W96
@  #04 @027   ----------------------------------------
 .byte   Dn4
 .byte   N96 ,Bn4
 .byte   W96
@  #04 @028   ----------------------------------------
 .byte   En4
 .byte   N96 ,Cn5
 .byte   W96
@  #04 @029   ----------------------------------------
 .byte   Dn4
 .byte   N96 ,Bn4
 .byte   W96
@  #04 @030   ----------------------------------------
 .byte   Dn4
 .byte   N96 ,An4
 .byte   W96
@  #04 @031   ----------------------------------------
 .byte   Fs4
 .byte   N96 ,Dn5
 .byte   W96
@  #04 @032   ----------------------------------------
 .byte   Gn4
 .byte   N96 ,Bn4
 .byte   W96
@  #04 @033   ----------------------------------------
Label_0100EB51:
 .byte   N06 ,An4 ,v127
 .byte   N06 ,Cn5
 .byte   W12
 .byte   N84 ,Gn4
 .byte   N84 ,Bn4
 .byte   W84
 .byte   PEND 
@  #04 @034   ----------------------------------------
 .byte   N96 ,Gn4
 .byte   N96 ,Bn4
 .byte   W96
@  #04 @035   ----------------------------------------
 .byte   PATT
  .word Label_0100EB51
@  #04 @036   ----------------------------------------
 .byte   N96 ,Gn4 ,v127
 .byte   N96 ,Bn4
 .byte   W96
@  #04 @037   ----------------------------------------
 .byte   PATT
  .word Label_0100EB51
@  #04 @038   ----------------------------------------
 .byte   N96 ,Gn4 ,v127
 .byte   N96 ,Bn4
 .byte   W96
@  #04 @039   ----------------------------------------
 .byte   PATT
  .word Label_0100EB51
@  #04 @040   ----------------------------------------
Label_0100EB7D:
 .byte   N18 ,Gn3 ,v127
 .byte   N18 ,Dn4
 .byte   N18 ,Bn4
 .byte   W24
 .byte   Gn3
 .byte   N18 ,Dn4
 .byte   N18 ,Bn4
 .byte   W24
 .byte   Gn3
 .byte   N18 ,Dn4
 .byte   N18 ,Bn4
 .byte   W24
 .byte   N06 ,Gn3
 .byte   N06 ,Dn4
 .byte   N06 ,Bn4
 .byte   W12
 .byte   Fs3
 .byte   N06 ,Cs4
 .byte   N06 ,As4
 .byte   W12
 .byte   PEND 
@  #04 @041   ----------------------------------------
Label_0100EB9F:
 .byte   N06 ,En3 ,v127
 .byte   N06 ,Cn4
 .byte   N06 ,An4
 .byte   W12
 .byte   N12 ,Dn3
 .byte   N12 ,Bn3
 .byte   N12 ,Gn4
 .byte   W24
 .byte   N48 ,Dn3
 .byte   N48 ,Bn3
 .byte   N48 ,Gn4
 .byte   W48
 .byte   N06 ,Dn3
 .byte   W06
 .byte   En3
 .byte   W06
 .byte   PEND 
@  #04 @042   ----------------------------------------
Label_0100EBBB:
 .byte   N18 ,Gn3 ,v127
 .byte   N18 ,Dn4
 .byte   N18 ,Bn4
 .byte   W24
 .byte   Gn3
 .byte   N18 ,Dn4
 .byte   N18 ,Bn4
 .byte   W24
 .byte   Gn3
 .byte   N18 ,Dn4
 .byte   N18 ,Bn4
 .byte   W24
 .byte   N06 ,Fs3
 .byte   N06 ,Cs4
 .byte   N06 ,As4
 .byte   W12
 .byte   Gn3
 .byte   N06 ,Dn4
 .byte   N06 ,Bn4
 .byte   W12
 .byte   PEND 
@  #04 @043   ----------------------------------------
Label_0100EBDD:
 .byte   N06 ,Bn3 ,v127
 .byte   N06 ,Gn4
 .byte   N06 ,Dn5
 .byte   W12
 .byte   N12 ,Bn3
 .byte   N12 ,Gn4
 .byte   N12 ,Dn5
 .byte   W24
 .byte   N48 ,Bn3
 .byte   N48 ,Gn4
 .byte   N48 ,Dn5
 .byte   W60
 .byte   PEND 
@  #04 @044   ----------------------------------------
Label_0100EBF4:
 .byte   N30 ,Gn3 ,v127
 .byte   N30 ,En4
 .byte   N30 ,Cn5
 .byte   W36
 .byte   N12 ,Gn3
 .byte   N12 ,En4
 .byte   N12 ,Cn5
 .byte   W12
 .byte   N24 ,Cn4
 .byte   N24 ,Gn4
 .byte   N24 ,En5
 .byte   W36
 .byte   N06 ,Cn4
 .byte   N06 ,Gn4
 .byte   N06 ,En5
 .byte   W12
 .byte   PEND 
@  #04 @045   ----------------------------------------
Label_0100EC12:
 .byte   N06 ,Cn4 ,v127
 .byte   N06 ,Gn4
 .byte   N06 ,En5
 .byte   W12
 .byte   Bn3
 .byte   N06 ,Fs4
 .byte   N06 ,Ds5
 .byte   W12
 .byte   Cn4
 .byte   N06 ,Gn4
 .byte   N06 ,En5
 .byte   W12
 .byte   N48 ,Cn4
 .byte   N48 ,Gn4
 .byte   N48 ,En5
 .byte   W60
 .byte   PEND 
@  #04 @046   ----------------------------------------
Label_0100EC2E:
 .byte   N18 ,Bn3 ,v127
 .byte   N18 ,Gn4
 .byte   N18 ,Dn5
 .byte   W24
 .byte   Bn3
 .byte   N18 ,Gn4
 .byte   N18 ,Dn5
 .byte   W24
 .byte   N06 ,Gn4
 .byte   N06 ,Dn5
 .byte   N06 ,Bn5
 .byte   W12
 .byte   N18 ,Gn4
 .byte   N18 ,Dn5
 .byte   N18 ,Bn5
 .byte   W24
 .byte   N06 ,Bn3
 .byte   N06 ,Gn4
 .byte   N06 ,Dn5
 .byte   W12
 .byte   PEND 
@  #04 @047   ----------------------------------------
Label_0100EC52:
 .byte   N06 ,Gn4 ,v127
 .byte   N06 ,Dn5
 .byte   N06 ,Bn5
 .byte   W12
 .byte   N18 ,Gn4
 .byte   N18 ,Dn5
 .byte   N18 ,Bn5
 .byte   W24
 .byte   N48 ,Bn3
 .byte   N48 ,Gn4
 .byte   N48 ,Dn5
 .byte   W60
 .byte   PEND 
@  #04 @048   ----------------------------------------
Label_0100EC69:
 .byte   N30 ,Fs4 ,v127
 .byte   N30 ,An4
 .byte   N30 ,Dn5
 .byte   W36
 .byte   Fs4
 .byte   N30 ,An4
 .byte   N30 ,Dn5
 .byte   W36
 .byte   N06 ,Fs4
 .byte   N06 ,An4
 .byte   N06 ,Dn5
 .byte   W12
 .byte   Fn4
 .byte   N06 ,Gs4
 .byte   N06 ,Cs5
 .byte   W12
 .byte   PEND 
@  #04 @049   ----------------------------------------
Label_0100EC85:
 .byte   N24 ,En4 ,v127
 .byte   N24 ,Gn4
 .byte   N24 ,Cn5
 .byte   W36
 .byte   N54 ,En4
 .byte   N54 ,Gn4
 .byte   N54 ,Cn5
 .byte   W60
 .byte   PEND 
@  #04 @050   ----------------------------------------
Label_0100EC95:
 .byte   N30 ,Dn4 ,v127
 .byte   N30 ,Fs4
 .byte   N30 ,An4
 .byte   W36
 .byte   Dn4
 .byte   N30 ,Fs4
 .byte   N30 ,An4
 .byte   W36
 .byte   N06 ,Dn4
 .byte   N06 ,Fs4
 .byte   N06 ,An4
 .byte   W12
 .byte   Dn4
 .byte   N06 ,Gn4
 .byte   N06 ,Bn4
 .byte   W12
 .byte   PEND 
@  #04 @051   ----------------------------------------
 .byte   PATT
  .word Label_0100EC85
@  #04 @052   ----------------------------------------
 .byte   PATT
  .word Label_0100EC69
@  #04 @053   ----------------------------------------
 .byte   PATT
  .word Label_0100EC85
@  #04 @054   ----------------------------------------
Label_0100ECC0:
 .byte   N18 ,Dn4 ,v127
 .byte   N18 ,Fs4
 .byte   N18 ,An4
 .byte   W24
 .byte   Dn4
 .byte   N18 ,Fs4
 .byte   N18 ,An4
 .byte   W24
 .byte   An3
 .byte   N18 ,Dn4
 .byte   N18 ,Fs4
 .byte   W24
 .byte   An3
 .byte   N18 ,Dn4
 .byte   N18 ,Fs4
 .byte   W24
 .byte   PEND 
@  #04 @055   ----------------------------------------
Label_0100ECDB:
 .byte   N06 ,Fs3 ,v127
 .byte   N06 ,An3
 .byte   N06 ,Dn4
 .byte   W12
 .byte   Fs3
 .byte   N06 ,An3
 .byte   N06 ,Dn4
 .byte   W12
 .byte   An3
 .byte   N06 ,Dn4
 .byte   N06 ,Fs4
 .byte   W12
 .byte   An3
 .byte   N06 ,Dn4
 .byte   N06 ,Fs4
 .byte   W12
 .byte   N42 ,Dn4
 .byte   N42 ,Fs4
 .byte   N42 ,An4
 .byte   W48
 .byte   PEND 
@  #04 @056   ----------------------------------------
 .byte   PATT
  .word Label_0100EAC6
@  #04 @057   ----------------------------------------
 .byte   PATT
  .word Label_0100EABA
@  #04 @058   ----------------------------------------
 .byte   PATT
  .word Label_0100EAC6
@  #04 @059   ----------------------------------------
 .byte   PATT
  .word Label_0100EAE3
@  #04 @060   ----------------------------------------
 .byte   W96
@  #04 @061   ----------------------------------------
 .byte   W96
@  #04 @062   ----------------------------------------
 .byte   W96
@  #04 @063   ----------------------------------------
 .byte   W96
@  #04 @064   ----------------------------------------
 .byte   PATT
  .word Label_0100EAC6
@  #04 @065   ----------------------------------------
 .byte   PATT
  .word Label_0100EABA
@  #04 @066   ----------------------------------------
 .byte   PATT
  .word Label_0100EAC6
@  #04 @067   ----------------------------------------
 .byte   PATT
  .word Label_0100EAE3
@  #04 @068   ----------------------------------------
 .byte   W96
@  #04 @069   ----------------------------------------
 .byte   W96
@  #04 @070   ----------------------------------------
 .byte   W96
@  #04 @071   ----------------------------------------
 .byte   W96
@  #04 @072   ----------------------------------------
 .byte   N96 ,En4 ,v127
 .byte   N96 ,Cn5
 .byte   W96
@  #04 @073   ----------------------------------------
 .byte   Dn4
 .byte   N96 ,Bn4
 .byte   W96
@  #04 @074   ----------------------------------------
 .byte   Dn4
 .byte   N96 ,An4
 .byte   W96
@  #04 @075   ----------------------------------------
 .byte   Dn4
 .byte   N96 ,Bn4
 .byte   W96
@  #04 @076   ----------------------------------------
 .byte   En4
 .byte   N96 ,Cn5
 .byte   W96
@  #04 @077   ----------------------------------------
 .byte   Dn4
 .byte   N96 ,Bn4
 .byte   W96
@  #04 @078   ----------------------------------------
 .byte   Dn4
 .byte   N96 ,An4
 .byte   W96
@  #04 @079   ----------------------------------------
 .byte   Dn4
 .byte   N96 ,Gn4
 .byte   W96
@  #04 @080   ----------------------------------------
 .byte   En4
 .byte   N96 ,Cn5
 .byte   W96
@  #04 @081   ----------------------------------------
 .byte   Dn4
 .byte   N96 ,Bn4
 .byte   W96
@  #04 @082   ----------------------------------------
 .byte   Dn4
 .byte   N96 ,An4
 .byte   W96
@  #04 @083   ----------------------------------------
 .byte   Dn4
 .byte   N96 ,Bn4
 .byte   W96
@  #04 @084   ----------------------------------------
 .byte   En4
 .byte   N96 ,Cn5
 .byte   W96
@  #04 @085   ----------------------------------------
 .byte   Dn4
 .byte   N96 ,Bn4
 .byte   W96
@  #04 @086   ----------------------------------------
 .byte   Dn4
 .byte   N96 ,An4
 .byte   W96
@  #04 @087   ----------------------------------------
 .byte   Fs4
 .byte   N96 ,Dn5
 .byte   W96
@  #04 @088   ----------------------------------------
 .byte   Gn4
 .byte   N96 ,Bn4
 .byte   W96
@  #04 @089   ----------------------------------------
 .byte   PATT
  .word Label_0100EB51
@  #04 @090   ----------------------------------------
 .byte   N96 ,Gn4 ,v127
 .byte   N96 ,Bn4
 .byte   W96
@  #04 @091   ----------------------------------------
 .byte   PATT
  .word Label_0100EB51
@  #04 @092   ----------------------------------------
 .byte   N96 ,Gn4 ,v127
 .byte   N96 ,Bn4
 .byte   W96
@  #04 @093   ----------------------------------------
 .byte   PATT
  .word Label_0100EB51
@  #04 @094   ----------------------------------------
 .byte   N96 ,Gn4 ,v127
 .byte   N96 ,Bn4
 .byte   W96
@  #04 @095   ----------------------------------------
 .byte   PATT
  .word Label_0100EB51
@  #04 @096   ----------------------------------------
 .byte   PATT
  .word Label_0100EB7D
@  #04 @097   ----------------------------------------
 .byte   PATT
  .word Label_0100EB9F
@  #04 @098   ----------------------------------------
 .byte   PATT
  .word Label_0100EBBB
@  #04 @099   ----------------------------------------
 .byte   PATT
  .word Label_0100EBDD
@  #04 @100   ----------------------------------------
 .byte   PATT
  .word Label_0100EBF4
@  #04 @101   ----------------------------------------
 .byte   PATT
  .word Label_0100EC12
@  #04 @102   ----------------------------------------
 .byte   PATT
  .word Label_0100EC2E
@  #04 @103   ----------------------------------------
 .byte   PATT
  .word Label_0100EC52
@  #04 @104   ----------------------------------------
 .byte   PATT
  .word Label_0100EC69
@  #04 @105   ----------------------------------------
 .byte   PATT
  .word Label_0100EC85
@  #04 @106   ----------------------------------------
 .byte   PATT
  .word Label_0100EC95
@  #04 @107   ----------------------------------------
 .byte   PATT
  .word Label_0100EC85
@  #04 @108   ----------------------------------------
 .byte   PATT
  .word Label_0100EC69
@  #04 @109   ----------------------------------------
 .byte   PATT
  .word Label_0100EC85
@  #04 @110   ----------------------------------------
 .byte   PATT
  .word Label_0100ECC0
@  #04 @111   ----------------------------------------
 .byte   PATT
  .word Label_0100ECDB
 .byte   FINE

@**************** Track 5 (Midi-Chn.4) ****************@

MarioKartDSChocoMountain_005:
@  #05 @000   ----------------------------------------
 .byte   KEYSH , MarioKartDSChocoMountain_key+0
 .byte   VOICE , 71
 .byte   MODT 0
 .byte   LFOS 44
 .byte   VOL , 64*MarioKartDSChocoMountain_mvl/mxv
 .byte   W12
 .byte   N18 ,Dn3 ,v127
 .byte   N18 ,Gn3
 .byte   W24
 .byte   N06 ,Dn3
 .byte   N06 ,Gn3
 .byte   W24
 .byte   N18 ,Dn3
 .byte   N18 ,Fs3
 .byte   W24
 .byte   N06 ,Dn3
 .byte   N06 ,Fs3
 .byte   W12
@  #05 @001   ----------------------------------------
Label_0100EE0C:
 .byte   W12
 .byte   N18 ,Dn3 ,v127
 .byte   N18 ,Gn3
 .byte   W24
 .byte   N06 ,Dn3
 .byte   N06 ,Gn3
 .byte   W24
 .byte   N18 ,Dn3
 .byte   N18 ,Fs3
 .byte   W24
 .byte   N06 ,Dn3
 .byte   N06 ,Fs3
 .byte   W12
 .byte   PEND 
@  #05 @002   ----------------------------------------
 .byte   PATT
  .word Label_0100EE0C
@  #05 @003   ----------------------------------------
Label_0100EE28:
 .byte   W12
 .byte   N18 ,En3 ,v127
 .byte   N18 ,Gn3
 .byte   W24
 .byte   N06 ,En3
 .byte   N06 ,Gn3
 .byte   W24
 .byte   N18 ,Cn3
 .byte   N18 ,Gn3
 .byte   W24
 .byte   N06 ,Cn3
 .byte   N06 ,Gn3
 .byte   W12
 .byte   PEND 
@  #05 @004   ----------------------------------------
 .byte   PATT
  .word Label_0100EE0C
@  #05 @005   ----------------------------------------
Label_0100EE44:
 .byte   W12
 .byte   N18 ,Fn3 ,v127
 .byte   N18 ,An3
 .byte   W24
 .byte   N06 ,Fn3
 .byte   N06 ,An3
 .byte   W24
 .byte   N18 ,En3
 .byte   N18 ,Gn3
 .byte   W24
 .byte   N06 ,En3
 .byte   N06 ,Gn3
 .byte   W12
 .byte   PEND 
@  #05 @006   ----------------------------------------
Label_0100EE5B:
 .byte   W12
 .byte   N18 ,En3 ,v127
 .byte   N18 ,An3
 .byte   W24
 .byte   N06 ,En3
 .byte   N06 ,An3
 .byte   W24
 .byte   N18 ,En3
 .byte   N18 ,An3
 .byte   W24
 .byte   N06 ,En3
 .byte   N06 ,An3
 .byte   W12
 .byte   PEND 
@  #05 @007   ----------------------------------------
Label_0100EE72:
 .byte   W12
 .byte   N18 ,Fs3 ,v127
 .byte   N18 ,An3
 .byte   W24
 .byte   N06 ,Fs3
 .byte   N06 ,An3
 .byte   W12
 .byte   Fs3
 .byte   N06 ,An3
 .byte   W48
 .byte   PEND 
@  #05 @008   ----------------------------------------
 .byte   PATT
  .word Label_0100EE0C
@  #05 @009   ----------------------------------------
 .byte   PATT
  .word Label_0100EE0C
@  #05 @010   ----------------------------------------
 .byte   PATT
  .word Label_0100EE0C
@  #05 @011   ----------------------------------------
 .byte   PATT
  .word Label_0100EE28
@  #05 @012   ----------------------------------------
 .byte   PATT
  .word Label_0100EE0C
@  #05 @013   ----------------------------------------
 .byte   PATT
  .word Label_0100EE44
@  #05 @014   ----------------------------------------
Label_0100EEA1:
 .byte   W12
 .byte   N18 ,Dn3 ,v127
 .byte   N18 ,Fs3
 .byte   W24
 .byte   N06 ,Dn3
 .byte   N06 ,Fs3
 .byte   W24
 .byte   N18
 .byte   N18 ,An3
 .byte   W24
 .byte   N06 ,Fs3
 .byte   N06 ,An3
 .byte   W12
 .byte   PEND 
@  #05 @015   ----------------------------------------
Label_0100EEB7:
 .byte   W12
 .byte   N18 ,Gn3 ,v127
 .byte   N18 ,Bn3
 .byte   W24
 .byte   N06 ,Gn3
 .byte   N06 ,Bn3
 .byte   W12
 .byte   Gn3
 .byte   N06 ,Bn3
 .byte   W48
 .byte   PEND 
@  #05 @016   ----------------------------------------
Label_0100EEC8:
 .byte   N06 ,Gn3 ,v127
 .byte   W06
 .byte   Gn4
 .byte   W06
 .byte   Cn4
 .byte   W06
 .byte   En4
 .byte   W06
 .byte   Gn4
 .byte   W06
 .byte   Gn3
 .byte   W06
 .byte   En4
 .byte   W06
 .byte   Cn4
 .byte   W06
 .byte   Gn4
 .byte   W06
 .byte   En4
 .byte   W06
 .byte   Cn4
 .byte   W06
 .byte   Gn4
 .byte   W06
 .byte   Cn4
 .byte   W06
 .byte   En4
 .byte   W06
 .byte   Gn3
 .byte   W06
 .byte   Cn4
 .byte   W06
 .byte   PEND 
@  #05 @017   ----------------------------------------
Label_0100EEEB:
 .byte   N06 ,Gn4 ,v127
 .byte   W06
 .byte   Dn4
 .byte   W06
 .byte   Bn3
 .byte   W06
 .byte   Gn4
 .byte   W06
 .byte   Dn4
 .byte   W06
 .byte   Bn3
 .byte   W06
 .byte   Gn4
 .byte   W06
 .byte   Bn3
 .byte   W06
 .byte   Dn4
 .byte   W06
 .byte   Gn3
 .byte   W06
 .byte   Bn3
 .byte   W06
 .byte   Gn4
 .byte   W06
 .byte   Dn4
 .byte   W06
 .byte   Gn3
 .byte   W06
 .byte   Dn4
 .byte   W06
 .byte   Bn3
 .byte   W06
 .byte   PEND 
@  #05 @018   ----------------------------------------
Label_0100EF0E:
 .byte   N06 ,Fs3 ,v127
 .byte   W06
 .byte   Fs4
 .byte   W06
 .byte   An3
 .byte   W06
 .byte   Dn4
 .byte   W06
 .byte   An3
 .byte   W06
 .byte   Fs4
 .byte   W06
 .byte   Dn4
 .byte   W06
 .byte   An3
 .byte   W06
 .byte   Fs4
 .byte   W06
 .byte   Fs3
 .byte   W06
 .byte   An3
 .byte   W06
 .byte   Fs3
 .byte   W06
 .byte   An3
 .byte   W06
 .byte   Dn4
 .byte   W06
 .byte   Fs4
 .byte   W06
 .byte   An3
 .byte   W06
 .byte   PEND 
@  #05 @019   ----------------------------------------
 .byte   PATT
  .word Label_0100EEEB
@  #05 @020   ----------------------------------------
 .byte   PATT
  .word Label_0100EEC8
@  #05 @021   ----------------------------------------
 .byte   PATT
  .word Label_0100EEEB
@  #05 @022   ----------------------------------------
 .byte   PATT
  .word Label_0100EF0E
@  #05 @023   ----------------------------------------
 .byte   PATT
  .word Label_0100EEEB
@  #05 @024   ----------------------------------------
 .byte   PATT
  .word Label_0100EEC8
@  #05 @025   ----------------------------------------
 .byte   PATT
  .word Label_0100EEEB
@  #05 @026   ----------------------------------------
 .byte   PATT
  .word Label_0100EF0E
@  #05 @027   ----------------------------------------
 .byte   PATT
  .word Label_0100EEEB
@  #05 @028   ----------------------------------------
 .byte   PATT
  .word Label_0100EEC8
@  #05 @029   ----------------------------------------
 .byte   PATT
  .word Label_0100EEEB
@  #05 @030   ----------------------------------------
 .byte   PATT
  .word Label_0100EF0E
@  #05 @031   ----------------------------------------
Label_0100EF6D:
 .byte   N06 ,An4 ,v127
 .byte   W06
 .byte   Fs4
 .byte   W06
 .byte   Dn4
 .byte   W06
 .byte   An4
 .byte   W06
 .byte   An3
 .byte   W06
 .byte   Dn4
 .byte   W06
 .byte   An4
 .byte   W06
 .byte   Dn4
 .byte   W06
 .byte   An4
 .byte   W48
 .byte   PEND 
@  #05 @032   ----------------------------------------
Label_0100EF82:
 .byte   W12
 .byte   N06 ,Gn3 ,v127
 .byte   N06 ,Bn3
 .byte   W24
 .byte   Gn3
 .byte   N06 ,Bn3
 .byte   W24
 .byte   Gn3
 .byte   N06 ,Bn3
 .byte   W24
 .byte   Gn3
 .byte   N06 ,Bn3
 .byte   W12
 .byte   PEND 
@  #05 @033   ----------------------------------------
 .byte   PATT
  .word Label_0100EF82
@  #05 @034   ----------------------------------------
 .byte   PATT
  .word Label_0100EF82
@  #05 @035   ----------------------------------------
 .byte   PATT
  .word Label_0100EF82
@  #05 @036   ----------------------------------------
 .byte   PATT
  .word Label_0100EF82
@  #05 @037   ----------------------------------------
 .byte   PATT
  .word Label_0100EF82
@  #05 @038   ----------------------------------------
 .byte   PATT
  .word Label_0100EF82
@  #05 @039   ----------------------------------------
 .byte   PATT
  .word Label_0100EF82
@  #05 @040   ----------------------------------------
Label_0100EFB9:
 .byte   W12
 .byte   N06 ,Dn3 ,v127
 .byte   N06 ,Gn3
 .byte   W24
 .byte   Dn3
 .byte   N06 ,Gn3
 .byte   W24
 .byte   N18 ,Dn3
 .byte   N18 ,Fs3
 .byte   W24
 .byte   N06 ,Dn3
 .byte   N06 ,Fs3
 .byte   W12
 .byte   PEND 
@  #05 @041   ----------------------------------------
 .byte   PATT
  .word Label_0100EFB9
@  #05 @042   ----------------------------------------
 .byte   PATT
  .word Label_0100EFB9
@  #05 @043   ----------------------------------------
 .byte   PATT
  .word Label_0100EFB9
@  #05 @044   ----------------------------------------
Label_0100EFDE:
 .byte   W12
 .byte   N06 ,En3 ,v127
 .byte   N06 ,Gn3
 .byte   W24
 .byte   En3
 .byte   N06 ,Gn3
 .byte   W24
 .byte   N18 ,Dn3
 .byte   N18 ,Gn3
 .byte   W24
 .byte   N06 ,Dn3
 .byte   N06 ,Gn3
 .byte   W12
 .byte   PEND 
@  #05 @045   ----------------------------------------
 .byte   PATT
  .word Label_0100EFDE
@  #05 @046   ----------------------------------------
 .byte   PATT
  .word Label_0100EFB9
@  #05 @047   ----------------------------------------
 .byte   PATT
  .word Label_0100EFB9
@  #05 @048   ----------------------------------------
Label_0100F003:
 .byte   W12
 .byte   N06 ,Fs3 ,v127
 .byte   N06 ,An3
 .byte   W24
 .byte   Fs3
 .byte   N06 ,An3
 .byte   W24
 .byte   Fs3
 .byte   N06 ,An3
 .byte   W12
 .byte   N12 ,Fs3
 .byte   N12 ,An3
 .byte   W12
 .byte   Fn3
 .byte   N12 ,An3
 .byte   W12
 .byte   PEND 
@  #05 @049   ----------------------------------------
Label_0100F01C:
 .byte   W12
 .byte   N06 ,En3 ,v127
 .byte   N06 ,An3
 .byte   W24
 .byte   En3
 .byte   N06 ,An3
 .byte   W24
 .byte   En3
 .byte   N06 ,An3
 .byte   W12
 .byte   N12 ,En3
 .byte   N24 ,An3
 .byte   W12
 .byte   N12 ,Fn3
 .byte   W12
 .byte   PEND 
@  #05 @050   ----------------------------------------
 .byte   PATT
  .word Label_0100F003
@  #05 @051   ----------------------------------------
 .byte   PATT
  .word Label_0100F01C
@  #05 @052   ----------------------------------------
 .byte   PATT
  .word Label_0100F003
@  #05 @053   ----------------------------------------
 .byte   PATT
  .word Label_0100F01C
@  #05 @054   ----------------------------------------
Label_0100F048:
 .byte   W12
 .byte   N06 ,Fs3 ,v127
 .byte   N06 ,An3
 .byte   W24
 .byte   Fs3
 .byte   N06 ,An3
 .byte   W24
 .byte   Fs3
 .byte   N06 ,An3
 .byte   W12
 .byte   N12 ,Fs3
 .byte   N12 ,An3
 .byte   W12
 .byte   Fs3
 .byte   N12 ,An3
 .byte   W12
 .byte   PEND 
@  #05 @055   ----------------------------------------
Label_0100F061:
 .byte   W12
 .byte   N06 ,Fs3 ,v127
 .byte   N06 ,An3
 .byte   W24
 .byte   Fs3
 .byte   N06 ,An3
 .byte   W24
 .byte   Fs3
 .byte   N06 ,An3
 .byte   W12
 .byte   Fs3
 .byte   N06 ,An3
 .byte   W12
 .byte   Fs3
 .byte   N06 ,An3
 .byte   W12
 .byte   PEND 
@  #05 @056   ----------------------------------------
 .byte   PATT
  .word Label_0100EE0C
@  #05 @057   ----------------------------------------
 .byte   PATT
  .word Label_0100EE0C
@  #05 @058   ----------------------------------------
 .byte   PATT
  .word Label_0100EE0C
@  #05 @059   ----------------------------------------
 .byte   PATT
  .word Label_0100EE28
@  #05 @060   ----------------------------------------
 .byte   PATT
  .word Label_0100EE0C
@  #05 @061   ----------------------------------------
 .byte   PATT
  .word Label_0100EE44
@  #05 @062   ----------------------------------------
 .byte   PATT
  .word Label_0100EE5B
@  #05 @063   ----------------------------------------
 .byte   PATT
  .word Label_0100EE72
@  #05 @064   ----------------------------------------
 .byte   PATT
  .word Label_0100EE0C
@  #05 @065   ----------------------------------------
 .byte   PATT
  .word Label_0100EE0C
@  #05 @066   ----------------------------------------
 .byte   PATT
  .word Label_0100EE0C
@  #05 @067   ----------------------------------------
 .byte   PATT
  .word Label_0100EE28
@  #05 @068   ----------------------------------------
 .byte   PATT
  .word Label_0100EE0C
@  #05 @069   ----------------------------------------
 .byte   PATT
  .word Label_0100EE44
@  #05 @070   ----------------------------------------
 .byte   PATT
  .word Label_0100EEA1
@  #05 @071   ----------------------------------------
 .byte   PATT
  .word Label_0100EEB7
@  #05 @072   ----------------------------------------
 .byte   PATT
  .word Label_0100EEC8
@  #05 @073   ----------------------------------------
 .byte   PATT
  .word Label_0100EEEB
@  #05 @074   ----------------------------------------
 .byte   PATT
  .word Label_0100EF0E
@  #05 @075   ----------------------------------------
 .byte   PATT
  .word Label_0100EEEB
@  #05 @076   ----------------------------------------
 .byte   PATT
  .word Label_0100EEC8
@  #05 @077   ----------------------------------------
 .byte   PATT
  .word Label_0100EEEB
@  #05 @078   ----------------------------------------
 .byte   PATT
  .word Label_0100EF0E
@  #05 @079   ----------------------------------------
 .byte   PATT
  .word Label_0100EEEB
@  #05 @080   ----------------------------------------
 .byte   PATT
  .word Label_0100EEC8
@  #05 @081   ----------------------------------------
 .byte   PATT
  .word Label_0100EEEB
@  #05 @082   ----------------------------------------
 .byte   PATT
  .word Label_0100EF0E
@  #05 @083   ----------------------------------------
 .byte   PATT
  .word Label_0100EEEB
@  #05 @084   ----------------------------------------
 .byte   PATT
  .word Label_0100EEC8
@  #05 @085   ----------------------------------------
 .byte   PATT
  .word Label_0100EEEB
@  #05 @086   ----------------------------------------
 .byte   PATT
  .word Label_0100EF0E
@  #05 @087   ----------------------------------------
 .byte   PATT
  .word Label_0100EF6D
@  #05 @088   ----------------------------------------
 .byte   PATT
  .word Label_0100EF82
@  #05 @089   ----------------------------------------
 .byte   PATT
  .word Label_0100EF82
@  #05 @090   ----------------------------------------
 .byte   PATT
  .word Label_0100EF82
@  #05 @091   ----------------------------------------
 .byte   PATT
  .word Label_0100EF82
@  #05 @092   ----------------------------------------
 .byte   PATT
  .word Label_0100EF82
@  #05 @093   ----------------------------------------
 .byte   PATT
  .word Label_0100EF82
@  #05 @094   ----------------------------------------
 .byte   PATT
  .word Label_0100EF82
@  #05 @095   ----------------------------------------
 .byte   PATT
  .word Label_0100EF82
@  #05 @096   ----------------------------------------
 .byte   PATT
  .word Label_0100EFB9
@  #05 @097   ----------------------------------------
 .byte   PATT
  .word Label_0100EFB9
@  #05 @098   ----------------------------------------
 .byte   PATT
  .word Label_0100EFB9
@  #05 @099   ----------------------------------------
 .byte   PATT
  .word Label_0100EFB9
@  #05 @100   ----------------------------------------
 .byte   PATT
  .word Label_0100EFDE
@  #05 @101   ----------------------------------------
 .byte   PATT
  .word Label_0100EFDE
@  #05 @102   ----------------------------------------
 .byte   PATT
  .word Label_0100EFB9
@  #05 @103   ----------------------------------------
 .byte   PATT
  .word Label_0100EFB9
@  #05 @104   ----------------------------------------
 .byte   PATT
  .word Label_0100F003
@  #05 @105   ----------------------------------------
 .byte   PATT
  .word Label_0100F01C
@  #05 @106   ----------------------------------------
 .byte   PATT
  .word Label_0100F003
@  #05 @107   ----------------------------------------
 .byte   PATT
  .word Label_0100F01C
@  #05 @108   ----------------------------------------
 .byte   PATT
  .word Label_0100F003
@  #05 @109   ----------------------------------------
 .byte   PATT
  .word Label_0100F01C
@  #05 @110   ----------------------------------------
 .byte   PATT
  .word Label_0100F048
@  #05 @111   ----------------------------------------
 .byte   PATT
  .word Label_0100F061
 .byte   FINE

@**************** Track 6 (Midi-Chn.5) ****************@

MarioKartDSChocoMountain_006:
@  #06 @000   ----------------------------------------
 .byte   KEYSH , MarioKartDSChocoMountain_key+0
 .byte   VOICE , 41
 .byte   MODT 0
 .byte   LFOS 44
 .byte   VOL , 27*MarioKartDSChocoMountain_mvl/mxv
 .byte   N24 ,Gn4 ,v127
 .byte   W24
 .byte   N18
 .byte   W18
 .byte   N06
 .byte   W06
 .byte   En4
 .byte   W12
 .byte   N24 ,Gn4
 .byte   W24
 .byte   N06
 .byte   W12
@  #06 @001   ----------------------------------------
Label_0100F1AD:
 .byte   N06 ,An4 ,v127
 .byte   W12
 .byte   N84 ,Gn4
 .byte   W84
 .byte   PEND 
@  #06 @002   ----------------------------------------
Label_0100F1B5:
 .byte   N24 ,Gn4 ,v127
 .byte   W24
 .byte   N18
 .byte   W18
 .byte   N06
 .byte   W06
 .byte   En4
 .byte   W12
 .byte   N24 ,Gn4
 .byte   W24
 .byte   N06
 .byte   W12
 .byte   PEND 
@  #06 @003   ----------------------------------------
Label_0100F1C5:
 .byte   N06 ,Cn5 ,v127
 .byte   W12
 .byte   N84 ,En4
 .byte   W84
 .byte   PEND 
@  #06 @004   ----------------------------------------
 .byte   W96
@  #06 @005   ----------------------------------------
 .byte   W96
@  #06 @006   ----------------------------------------
 .byte   W96
@  #06 @007   ----------------------------------------
 .byte   W96
@  #06 @008   ----------------------------------------
 .byte   PATT
  .word Label_0100F1B5
@  #06 @009   ----------------------------------------
 .byte   PATT
  .word Label_0100F1AD
@  #06 @010   ----------------------------------------
 .byte   PATT
  .word Label_0100F1B5
@  #06 @011   ----------------------------------------
 .byte   PATT
  .word Label_0100F1C5
@  #06 @012   ----------------------------------------
 .byte   W96
@  #06 @013   ----------------------------------------
 .byte   W96
@  #06 @014   ----------------------------------------
 .byte   W96
@  #06 @015   ----------------------------------------
 .byte   W96
@  #06 @016   ----------------------------------------
 .byte   W96
@  #06 @017   ----------------------------------------
 .byte   W96
@  #06 @018   ----------------------------------------
 .byte   W96
@  #06 @019   ----------------------------------------
 .byte   W96
@  #06 @020   ----------------------------------------
 .byte   W96
@  #06 @021   ----------------------------------------
 .byte   W96
@  #06 @022   ----------------------------------------
 .byte   W96
@  #06 @023   ----------------------------------------
 .byte   W96
@  #06 @024   ----------------------------------------
 .byte   W96
@  #06 @025   ----------------------------------------
 .byte   W96
@  #06 @026   ----------------------------------------
 .byte   W96
@  #06 @027   ----------------------------------------
 .byte   W96
@  #06 @028   ----------------------------------------
 .byte   W96
@  #06 @029   ----------------------------------------
 .byte   W96
@  #06 @030   ----------------------------------------
 .byte   W96
@  #06 @031   ----------------------------------------
 .byte   W96
@  #06 @032   ----------------------------------------
 .byte   W96
@  #06 @033   ----------------------------------------
 .byte   W96
@  #06 @034   ----------------------------------------
 .byte   W96
@  #06 @035   ----------------------------------------
 .byte   W96
@  #06 @036   ----------------------------------------
 .byte   W96
@  #06 @037   ----------------------------------------
 .byte   W96
@  #06 @038   ----------------------------------------
 .byte   W96
@  #06 @039   ----------------------------------------
 .byte   W96
@  #06 @040   ----------------------------------------
 .byte   W96
@  #06 @041   ----------------------------------------
 .byte   W96
@  #06 @042   ----------------------------------------
 .byte   W96
@  #06 @043   ----------------------------------------
 .byte   W96
@  #06 @044   ----------------------------------------
 .byte   W96
@  #06 @045   ----------------------------------------
 .byte   W96
@  #06 @046   ----------------------------------------
 .byte   W96
@  #06 @047   ----------------------------------------
 .byte   W96
@  #06 @048   ----------------------------------------
 .byte   W96
@  #06 @049   ----------------------------------------
 .byte   W96
@  #06 @050   ----------------------------------------
 .byte   W96
@  #06 @051   ----------------------------------------
 .byte   W96
@  #06 @052   ----------------------------------------
 .byte   W96
@  #06 @053   ----------------------------------------
 .byte   W96
@  #06 @054   ----------------------------------------
 .byte   W96
@  #06 @055   ----------------------------------------
 .byte   W96
@  #06 @056   ----------------------------------------
 .byte   PATT
  .word Label_0100F1B5
@  #06 @057   ----------------------------------------
 .byte   PATT
  .word Label_0100F1AD
@  #06 @058   ----------------------------------------
 .byte   PATT
  .word Label_0100F1B5
@  #06 @059   ----------------------------------------
 .byte   PATT
  .word Label_0100F1C5
@  #06 @060   ----------------------------------------
 .byte   W96
@  #06 @061   ----------------------------------------
 .byte   W96
@  #06 @062   ----------------------------------------
 .byte   W96
@  #06 @063   ----------------------------------------
 .byte   W96
@  #06 @064   ----------------------------------------
 .byte   PATT
  .word Label_0100F1B5
@  #06 @065   ----------------------------------------
 .byte   PATT
  .word Label_0100F1AD
@  #06 @066   ----------------------------------------
 .byte   PATT
  .word Label_0100F1B5
@  #06 @067   ----------------------------------------
 .byte   PATT
  .word Label_0100F1C5
@  #06 @068   ----------------------------------------
 .byte   W96
@  #06 @069   ----------------------------------------
 .byte   W96
@  #06 @070   ----------------------------------------
 .byte   W96
@  #06 @071   ----------------------------------------
 .byte   W96
@  #06 @072   ----------------------------------------
 .byte   W96
@  #06 @073   ----------------------------------------
 .byte   W96
@  #06 @074   ----------------------------------------
 .byte   W96
@  #06 @075   ----------------------------------------
 .byte   W96
@  #06 @076   ----------------------------------------
 .byte   W96
@  #06 @077   ----------------------------------------
 .byte   W96
@  #06 @078   ----------------------------------------
 .byte   W96
@  #06 @079   ----------------------------------------
 .byte   W96
@  #06 @080   ----------------------------------------
 .byte   W96
@  #06 @081   ----------------------------------------
 .byte   W96
@  #06 @082   ----------------------------------------
 .byte   W96
@  #06 @083   ----------------------------------------
 .byte   W96
@  #06 @084   ----------------------------------------
 .byte   W96
@  #06 @085   ----------------------------------------
 .byte   W96
@  #06 @086   ----------------------------------------
 .byte   W96
@  #06 @087   ----------------------------------------
 .byte   W96
@  #06 @088   ----------------------------------------
 .byte   W96
@  #06 @089   ----------------------------------------
 .byte   W96
@  #06 @090   ----------------------------------------
 .byte   W96
@  #06 @091   ----------------------------------------
 .byte   W96
@  #06 @092   ----------------------------------------
 .byte   W96
@  #06 @093   ----------------------------------------
 .byte   W96
@  #06 @094   ----------------------------------------
 .byte   W96
@  #06 @095   ----------------------------------------
 .byte   W96
@  #06 @096   ----------------------------------------
 .byte   W96
@  #06 @097   ----------------------------------------
 .byte   W96
@  #06 @098   ----------------------------------------
 .byte   W96
@  #06 @099   ----------------------------------------
 .byte   W96
@  #06 @100   ----------------------------------------
 .byte   W96
@  #06 @101   ----------------------------------------
 .byte   W96
@  #06 @102   ----------------------------------------
 .byte   W96
@  #06 @103   ----------------------------------------
 .byte   W96
@  #06 @104   ----------------------------------------
 .byte   W96
@  #06 @105   ----------------------------------------
 .byte   W96
@  #06 @106   ----------------------------------------
 .byte   W96
@  #06 @107   ----------------------------------------
 .byte   W96
@  #06 @108   ----------------------------------------
 .byte   W96
@  #06 @109   ----------------------------------------
 .byte   W96
@  #06 @110   ----------------------------------------
 .byte   W96
@  #06 @111   ----------------------------------------
 .byte   W96
 .byte   FINE

@**************** Track 7 (Midi-Chn.6) ****************@

MarioKartDSChocoMountain_007:
@  #07 @000   ----------------------------------------
 .byte   KEYSH , MarioKartDSChocoMountain_key+0
 .byte   VOICE , 121
 .byte   MODT 0
 .byte   LFOS 44
 .byte   VOL , 76*MarioKartDSChocoMountain_mvl/mxv
 .byte   N06 ,Cn1 ,v127
 .byte   N06 ,Cs2
 .byte   N06 ,Fs2
 .byte   W12
 .byte   Dn1
 .byte   N06 ,As1
 .byte   W12
 .byte   Cn1
 .byte   W12
 .byte   Dn1
 .byte   N06 ,As1
 .byte   W12
 .byte   Cn1
 .byte   W12
 .byte   Dn1
 .byte   N06 ,As1
 .byte   W12
 .byte   Cn1
 .byte   W12
 .byte   Dn1
 .byte   N06 ,As1
 .byte   W12
@  #07 @001   ----------------------------------------
Label_0100F294:
 .byte   N06 ,Cn1 ,v127
 .byte   W12
 .byte   Dn1
 .byte   N06 ,As1
 .byte   W12
 .byte   Cn1
 .byte   W12
 .byte   Dn1
 .byte   N06 ,As1
 .byte   W12
 .byte   Cn1
 .byte   W12
 .byte   Dn1
 .byte   N06 ,As1
 .byte   W12
 .byte   Cn1
 .byte   W12
 .byte   Dn1
 .byte   N06 ,As1
 .byte   W12
 .byte   PEND 
@  #07 @002   ----------------------------------------
 .byte   PATT
  .word Label_0100F294
@  #07 @003   ----------------------------------------
Label_0100F2B4:
 .byte   N06 ,Cn1 ,v127
 .byte   W12
 .byte   Dn1
 .byte   N06 ,As1
 .byte   W12
 .byte   Cn1
 .byte   W12
 .byte   Dn1
 .byte   N06 ,As1
 .byte   W12
 .byte   Cn1
 .byte   W12
 .byte   Dn1
 .byte   N06 ,As1
 .byte   N06 ,Cn2
 .byte   W12
 .byte   Cn1
 .byte   W12
 .byte   Dn1
 .byte   N06 ,As1
 .byte   W12
 .byte   PEND 
@  #07 @004   ----------------------------------------
 .byte   PATT
  .word Label_0100F294
@  #07 @005   ----------------------------------------
 .byte   PATT
  .word Label_0100F294
@  #07 @006   ----------------------------------------
 .byte   PATT
  .word Label_0100F294
@  #07 @007   ----------------------------------------
Label_0100F2E0:
 .byte   N06 ,Cn1 ,v127
 .byte   W12
 .byte   Dn1
 .byte   N06 ,As1
 .byte   W12
 .byte   Cn1
 .byte   W12
 .byte   Dn1
 .byte   N06 ,As1
 .byte   W12
 .byte   Cn1
 .byte   W12
 .byte   Fs2
 .byte   N06 ,Fn3
 .byte   N06 ,Gs3
 .byte   W12
 .byte   Fs2
 .byte   N06 ,Fn3
 .byte   N06 ,Gs3
 .byte   W12
 .byte   Fs2
 .byte   N06 ,Fn3
 .byte   N06 ,Gs3
 .byte   W12
 .byte   PEND 
@  #07 @008   ----------------------------------------
Label_0100F303:
 .byte   N06 ,Cn1 ,v127
 .byte   N06 ,Cs2
 .byte   N06 ,Fs2
 .byte   W12
 .byte   Dn1
 .byte   N06 ,As1
 .byte   W12
 .byte   Cn1
 .byte   W12
 .byte   Dn1
 .byte   N06 ,As1
 .byte   W12
 .byte   Cn1
 .byte   W12
 .byte   Dn1
 .byte   N06 ,As1
 .byte   W12
 .byte   Cn1
 .byte   W12
 .byte   Dn1
 .byte   N06 ,As1
 .byte   W12
 .byte   PEND 
@  #07 @009   ----------------------------------------
 .byte   PATT
  .word Label_0100F294
@  #07 @010   ----------------------------------------
 .byte   PATT
  .word Label_0100F294
@  #07 @011   ----------------------------------------
 .byte   PATT
  .word Label_0100F2B4
@  #07 @012   ----------------------------------------
 .byte   PATT
  .word Label_0100F294
@  #07 @013   ----------------------------------------
 .byte   PATT
  .word Label_0100F294
@  #07 @014   ----------------------------------------
 .byte   PATT
  .word Label_0100F294
@  #07 @015   ----------------------------------------
 .byte   PATT
  .word Label_0100F2E0
@  #07 @016   ----------------------------------------
Label_0100F345:
 .byte   N06 ,Cn1 ,v127
 .byte   N06 ,Gs1
 .byte   N06 ,Cs2
 .byte   N06 ,Fs2
 .byte   W06
 .byte   Gs1
 .byte   W06
 .byte   Dn1
 .byte   N06 ,As1
 .byte   W12
 .byte   Cn1
 .byte   N06 ,Gs1
 .byte   W06
 .byte   N06
 .byte   W06
 .byte   Dn1
 .byte   N06 ,As1
 .byte   W12
 .byte   Cn1
 .byte   N06 ,Gs1
 .byte   W06
 .byte   N06
 .byte   W06
 .byte   Dn1
 .byte   N06 ,As1
 .byte   W12
 .byte   Cn1
 .byte   N06 ,Gs1
 .byte   W06
 .byte   N06
 .byte   W06
 .byte   Dn1
 .byte   N06 ,As1
 .byte   W12
 .byte   PEND 
@  #07 @017   ----------------------------------------
Label_0100F374:
 .byte   N06 ,Cn1 ,v127
 .byte   N06 ,Gs1
 .byte   W06
 .byte   N06
 .byte   W06
 .byte   Dn1
 .byte   N06 ,As1
 .byte   W12
 .byte   Cn1
 .byte   N06 ,Gs1
 .byte   W06
 .byte   N06
 .byte   W06
 .byte   Dn1
 .byte   N06 ,As1
 .byte   W12
 .byte   Cn1
 .byte   N06 ,Gs1
 .byte   W06
 .byte   N06
 .byte   W06
 .byte   Dn1
 .byte   N06 ,As1
 .byte   W12
 .byte   Cn1
 .byte   N06 ,Gs1
 .byte   W06
 .byte   N06
 .byte   W06
 .byte   Dn1
 .byte   N06 ,As1
 .byte   W12
 .byte   PEND 
@  #07 @018   ----------------------------------------
 .byte   PATT
  .word Label_0100F374
@  #07 @019   ----------------------------------------
 .byte   PATT
  .word Label_0100F374
@  #07 @020   ----------------------------------------
 .byte   PATT
  .word Label_0100F374
@  #07 @021   ----------------------------------------
 .byte   PATT
  .word Label_0100F374
@  #07 @022   ----------------------------------------
 .byte   PATT
  .word Label_0100F374
@  #07 @023   ----------------------------------------
Label_0100F3B8:
 .byte   N06 ,Cn1 ,v127
 .byte   N06 ,Gs1
 .byte   W06
 .byte   N06
 .byte   W06
 .byte   Dn1
 .byte   N06 ,As1
 .byte   W12
 .byte   Cn1
 .byte   N06 ,Gs1
 .byte   W06
 .byte   N06
 .byte   W06
 .byte   Dn1
 .byte   N06 ,As1
 .byte   W12
 .byte   Cn1
 .byte   N06 ,Gs1
 .byte   W12
 .byte   Fs2
 .byte   N06 ,Fn3
 .byte   N06 ,Gs3
 .byte   W12
 .byte   Fs2
 .byte   N06 ,Fn3
 .byte   N06 ,Gs3
 .byte   W12
 .byte   Fs2
 .byte   N06 ,Fn3
 .byte   N06 ,Gs3
 .byte   W12
 .byte   PEND 
@  #07 @024   ----------------------------------------
 .byte   PATT
  .word Label_0100F345
@  #07 @025   ----------------------------------------
 .byte   PATT
  .word Label_0100F374
@  #07 @026   ----------------------------------------
 .byte   PATT
  .word Label_0100F374
@  #07 @027   ----------------------------------------
 .byte   PATT
  .word Label_0100F374
@  #07 @028   ----------------------------------------
 .byte   PATT
  .word Label_0100F374
@  #07 @029   ----------------------------------------
 .byte   PATT
  .word Label_0100F374
@  #07 @030   ----------------------------------------
 .byte   PATT
  .word Label_0100F374
@  #07 @031   ----------------------------------------
 .byte   PATT
  .word Label_0100F3B8
@  #07 @032   ----------------------------------------
 .byte   PATT
  .word Label_0100F303
@  #07 @033   ----------------------------------------
 .byte   PATT
  .word Label_0100F294
@  #07 @034   ----------------------------------------
 .byte   PATT
  .word Label_0100F294
@  #07 @035   ----------------------------------------
 .byte   PATT
  .word Label_0100F294
@  #07 @036   ----------------------------------------
 .byte   PATT
  .word Label_0100F294
@  #07 @037   ----------------------------------------
 .byte   PATT
  .word Label_0100F294
@  #07 @038   ----------------------------------------
 .byte   PATT
  .word Label_0100F294
@  #07 @039   ----------------------------------------
 .byte   PATT
  .word Label_0100F294
@  #07 @040   ----------------------------------------
 .byte   PATT
  .word Label_0100F303
@  #07 @041   ----------------------------------------
 .byte   PATT
  .word Label_0100F294
@  #07 @042   ----------------------------------------
 .byte   PATT
  .word Label_0100F294
@  #07 @043   ----------------------------------------
 .byte   PATT
  .word Label_0100F294
@  #07 @044   ----------------------------------------
 .byte   PATT
  .word Label_0100F294
@  #07 @045   ----------------------------------------
 .byte   PATT
  .word Label_0100F294
@  #07 @046   ----------------------------------------
 .byte   PATT
  .word Label_0100F294
@  #07 @047   ----------------------------------------
 .byte   PATT
  .word Label_0100F294
@  #07 @048   ----------------------------------------
 .byte   PATT
  .word Label_0100F303
@  #07 @049   ----------------------------------------
 .byte   PATT
  .word Label_0100F294
@  #07 @050   ----------------------------------------
 .byte   PATT
  .word Label_0100F294
@  #07 @051   ----------------------------------------
 .byte   PATT
  .word Label_0100F294
@  #07 @052   ----------------------------------------
 .byte   PATT
  .word Label_0100F294
@  #07 @053   ----------------------------------------
 .byte   PATT
  .word Label_0100F294
@  #07 @054   ----------------------------------------
 .byte   PATT
  .word Label_0100F294
@  #07 @055   ----------------------------------------
 .byte   PATT
  .word Label_0100F294
@  #07 @056   ----------------------------------------
 .byte   PATT
  .word Label_0100F303
@  #07 @057   ----------------------------------------
 .byte   PATT
  .word Label_0100F294
@  #07 @058   ----------------------------------------
 .byte   PATT
  .word Label_0100F294
@  #07 @059   ----------------------------------------
 .byte   PATT
  .word Label_0100F2B4
@  #07 @060   ----------------------------------------
 .byte   PATT
  .word Label_0100F294
@  #07 @061   ----------------------------------------
 .byte   PATT
  .word Label_0100F294
@  #07 @062   ----------------------------------------
 .byte   PATT
  .word Label_0100F294
@  #07 @063   ----------------------------------------
 .byte   PATT
  .word Label_0100F2E0
@  #07 @064   ----------------------------------------
 .byte   PATT
  .word Label_0100F303
@  #07 @065   ----------------------------------------
 .byte   PATT
  .word Label_0100F294
@  #07 @066   ----------------------------------------
 .byte   PATT
  .word Label_0100F294
@  #07 @067   ----------------------------------------
 .byte   PATT
  .word Label_0100F2B4
@  #07 @068   ----------------------------------------
 .byte   PATT
  .word Label_0100F294
@  #07 @069   ----------------------------------------
 .byte   PATT
  .word Label_0100F294
@  #07 @070   ----------------------------------------
 .byte   PATT
  .word Label_0100F294
@  #07 @071   ----------------------------------------
 .byte   PATT
  .word Label_0100F2E0
@  #07 @072   ----------------------------------------
 .byte   PATT
  .word Label_0100F345
@  #07 @073   ----------------------------------------
 .byte   PATT
  .word Label_0100F374
@  #07 @074   ----------------------------------------
 .byte   PATT
  .word Label_0100F374
@  #07 @075   ----------------------------------------
 .byte   PATT
  .word Label_0100F374
@  #07 @076   ----------------------------------------
 .byte   PATT
  .word Label_0100F374
@  #07 @077   ----------------------------------------
 .byte   PATT
  .word Label_0100F374
@  #07 @078   ----------------------------------------
 .byte   PATT
  .word Label_0100F374
@  #07 @079   ----------------------------------------
 .byte   PATT
  .word Label_0100F3B8
@  #07 @080   ----------------------------------------
 .byte   PATT
  .word Label_0100F345
@  #07 @081   ----------------------------------------
 .byte   PATT
  .word Label_0100F374
@  #07 @082   ----------------------------------------
 .byte   PATT
  .word Label_0100F374
@  #07 @083   ----------------------------------------
 .byte   PATT
  .word Label_0100F374
@  #07 @084   ----------------------------------------
 .byte   PATT
  .word Label_0100F374
@  #07 @085   ----------------------------------------
 .byte   PATT
  .word Label_0100F374
@  #07 @086   ----------------------------------------
 .byte   PATT
  .word Label_0100F374
@  #07 @087   ----------------------------------------
 .byte   PATT
  .word Label_0100F3B8
@  #07 @088   ----------------------------------------
 .byte   PATT
  .word Label_0100F303
@  #07 @089   ----------------------------------------
 .byte   PATT
  .word Label_0100F294
@  #07 @090   ----------------------------------------
 .byte   PATT
  .word Label_0100F294
@  #07 @091   ----------------------------------------
 .byte   PATT
  .word Label_0100F294
@  #07 @092   ----------------------------------------
 .byte   PATT
  .word Label_0100F294
@  #07 @093   ----------------------------------------
 .byte   PATT
  .word Label_0100F294
@  #07 @094   ----------------------------------------
 .byte   PATT
  .word Label_0100F294
@  #07 @095   ----------------------------------------
 .byte   PATT
  .word Label_0100F294
@  #07 @096   ----------------------------------------
 .byte   PATT
  .word Label_0100F303
@  #07 @097   ----------------------------------------
 .byte   PATT
  .word Label_0100F294
@  #07 @098   ----------------------------------------
 .byte   PATT
  .word Label_0100F294
@  #07 @099   ----------------------------------------
 .byte   PATT
  .word Label_0100F294
@  #07 @100   ----------------------------------------
 .byte   PATT
  .word Label_0100F294
@  #07 @101   ----------------------------------------
 .byte   PATT
  .word Label_0100F294
@  #07 @102   ----------------------------------------
 .byte   PATT
  .word Label_0100F294
@  #07 @103   ----------------------------------------
 .byte   PATT
  .word Label_0100F294
@  #07 @104   ----------------------------------------
 .byte   PATT
  .word Label_0100F303
@  #07 @105   ----------------------------------------
 .byte   PATT
  .word Label_0100F294
@  #07 @106   ----------------------------------------
 .byte   PATT
  .word Label_0100F294
@  #07 @107   ----------------------------------------
 .byte   PATT
  .word Label_0100F294
@  #07 @108   ----------------------------------------
 .byte   PATT
  .word Label_0100F294
@  #07 @109   ----------------------------------------
 .byte   PATT
  .word Label_0100F294
@  #07 @110   ----------------------------------------
 .byte   PATT
  .word Label_0100F294
@  #07 @111   ----------------------------------------
 .byte   PATT
  .word Label_0100F294
 .byte   FINE

@******************************************************@
	.align	2

MarioKartDSChocoMountain:
	.byte	7	@ NumTrks
	.byte	0	@ NumBlks
	.byte	MarioKartDSChocoMountain_pri	@ Priority
	.byte	MarioKartDSChocoMountain_rev	@ Reverb.
    
	.word	MarioKartDSChocoMountain_grp
    
	.word	MarioKartDSChocoMountain_001
	.word	MarioKartDSChocoMountain_002
	.word	MarioKartDSChocoMountain_003
	.word	MarioKartDSChocoMountain_004
	.word	MarioKartDSChocoMountain_005
	.word	MarioKartDSChocoMountain_006
	.word	MarioKartDSChocoMountain_007

	.end
