//Event file generated from Sappy .s format.
	#include "MPlayDef.event"

	#define	MarioTennisBreakPointPsyche_grp  voicegroup000
	#define	MarioTennisBreakPointPsyche_pri  0
	#define	MarioTennisBreakPointPsyche_rev  132
	#define	MarioTennisBreakPointPsyche_mvl  127
	#define	MarioTennisBreakPointPsyche_key  0
	#define	MarioTennisBreakPointPsyche_tbs  1
	#define	MarioTennisBreakPointPsyche_exg  0
	#define	MarioTennisBreakPointPsyche_cmp  1

	// .rodata
	//	MarioTennisBreakPointPsyche
	ALIGN 4


//**************** Track 1 (Midi-Chn.0) ****************//

MarioTennisBreakPointPsyche_001:
//  #01 //000   ----------------------------------------
 BYTE   KEYSH   MarioTennisBreakPointPsyche_key+0
Label_0104A73E:
 BYTE   TEMPO   240*MarioTennisBreakPointPsyche_tbs/2
 BYTE   VOICE   65
 BYTE   PAN   c_v+6
 BYTE   VOL   60*MarioTennisBreakPointPsyche_mvl/mxv
 BYTE   N10  Gn2  v104
 BYTE   N10  Bn2
 BYTE   W12
 BYTE   Cn3
 BYTE   N10  En3
 BYTE   W12
 BYTE   Dn3
 BYTE   N10  Fs3
 BYTE   W12
 BYTE   N12  En3
 BYTE   N12  Gn3
 BYTE   W24
 BYTE   An3
 BYTE   N12  Cn4
 BYTE   W24
 BYTE   Gn3
 BYTE   N12  Bn3
 BYTE   W12
//  #01 //001   ----------------------------------------
Label_0104A761:
 BYTE   W12
 BYTE   N12  Fs3  v104
 BYTE   N12  An3
 BYTE   W24
 BYTE   N10  En3
 BYTE   N10  Gn3
 BYTE   W12
 BYTE   Fs3
 BYTE   N10  An3
 BYTE   W12
 BYTE   En3
 BYTE   N10  Gn3
 BYTE   W12
 BYTE   Dn3
 BYTE   N10  Fs3
 BYTE   W12
 BYTE   Bn2
 BYTE   N10  Dn3
 BYTE   W12
 BYTE   PEND 
//  #01 //002   ----------------------------------------
Label_0104A77E:
 BYTE   N32  Cn3  v104
 BYTE   N32  En3
 BYTE   W36
 BYTE   Gn2
 BYTE   N32  Cn3
 BYTE   W36
 BYTE   N22  En3
 BYTE   N22  Gn3
 BYTE   W24
 BYTE   PEND 
//  #01 //003   ----------------------------------------
Label_0104A78E:
 BYTE   N32  Dn3  v104
 BYTE   N32  Fs3
 BYTE   W36
 BYTE   N56  An2
 BYTE   N56  Dn3
 BYTE   W60
 BYTE   PEND 
//  #01 //004   ----------------------------------------
Label_0104A79A:
 BYTE   N56  Bn2  v104
 BYTE   N56  En3
 BYTE   W60
 BYTE   N10  Dn3
 BYTE   N10  Fs3
 BYTE   W12
 BYTE   En3
 BYTE   N10  Gn3
 BYTE   W12
 BYTE   N10
 BYTE   N10  Bn3
 BYTE   W12
 BYTE   PEND 
//  #01 //005   ----------------------------------------
Label_0104A7AE:
 BYTE   N44  Fs3  v104
 BYTE   N44  An3
 BYTE   W48
 BYTE   N44
 BYTE   N44  Dn4
 BYTE   W48
 BYTE   PEND 
//  #01 //006   ----------------------------------------
Label_0104A7B9:
 BYTE   N56  An3  v104
 BYTE   N56  Cn4
 BYTE   W60
 BYTE   N10  Gn3
 BYTE   N10  Bn3
 BYTE   W12
 BYTE   Fs3
 BYTE   N10  An3
 BYTE   W12
 BYTE   En3
 BYTE   N10  Gn3
 BYTE   W12
 BYTE   PEND 
//  #01 //007   ----------------------------------------
 BYTE   N92  Fs3
 BYTE   N92  An3
 BYTE   W96
//  #01 //008   ----------------------------------------
Label_0104A7D2:
 BYTE   N10  Gn3  v104
 BYTE   N10  Bn3
 BYTE   W12
 BYTE   Fs3
 BYTE   N10  An3
 BYTE   W12
 BYTE   En3
 BYTE   N10  Gn3
 BYTE   W12
 BYTE   Fs3
 BYTE   N10  An3
 BYTE   W24
 BYTE   En3
 BYTE   N10  Gn3
 BYTE   W24
 BYTE   Dn3
 BYTE   N10  Fs3
 BYTE   W12
 BYTE   PEND 
//  #01 //009   ----------------------------------------
Label_0104A7ED:
 BYTE   W12
 BYTE   N10  En3  v104
 BYTE   N10  Gn3
 BYTE   W24
 BYTE   Dn3
 BYTE   N10  Fs3
 BYTE   W12
 BYTE   Bn2
 BYTE   N10  En3
 BYTE   W12
 BYTE   Bn2
 BYTE   N10  Dn3
 BYTE   W12
 BYTE   Gn2
 BYTE   N10  Bn2
 BYTE   W12
 BYTE   N10
 BYTE   N10  Dn3
 BYTE   W12
 BYTE   PEND 
//  #01 //010   ----------------------------------------
Label_0104A809:
 BYTE   N10  Dn2  v104
 BYTE   N10  Gn2
 BYTE   W12
 BYTE   N10
 BYTE   N10  Bn2
 BYTE   W12
 BYTE   N10
 BYTE   N10  Dn3
 BYTE   W12
 BYTE   Dn2
 BYTE   N10  Gn2
 BYTE   W12
 BYTE   N10
 BYTE   N10  Bn2
 BYTE   W12
 BYTE   N10
 BYTE   N10  Dn3
 BYTE   W12
 BYTE   Gn2
 BYTE   N10  Bn2
 BYTE   W12
 BYTE   N10
 BYTE   N10  Dn3
 BYTE   W12
 BYTE   PEND 
//  #01 //011   ----------------------------------------
Label_0104A82C:
 BYTE   N10  En3  v104
 BYTE   N10  An3
 BYTE   W12
 BYTE   En2
 BYTE   N10  An2
 BYTE   W12
 BYTE   En2
 BYTE   N10  An2
 BYTE   W12
 BYTE   En3
 BYTE   N10  An3
 BYTE   W12
 BYTE   En2
 BYTE   N10  An2
 BYTE   W12
 BYTE   En2
 BYTE   N10  An2
 BYTE   W12
 BYTE   En3
 BYTE   N10  Gn3
 BYTE   W12
 BYTE   En3
 BYTE   N10  An3
 BYTE   W12
 BYTE   PEND 
//  #01 //012   ----------------------------------------
Label_0104A84F:
 BYTE   N32  Cn3  v104
 BYTE   N32  En3
 BYTE   W36
 BYTE   Gn2
 BYTE   N32  Cn3
 BYTE   W36
 BYTE   N22
 BYTE   N22  En3
 BYTE   W24
 BYTE   PEND 
//  #01 //013   ----------------------------------------
Label_0104A85E:
 BYTE   N32  Dn3  v104
 BYTE   N32  Fs3
 BYTE   W36
 BYTE   En3
 BYTE   N32  Gn3
 BYTE   W36
 BYTE   N22  Fs3
 BYTE   N22  An3
 BYTE   W24
 BYTE   PEND 
//  #01 //014   ----------------------------------------
 BYTE   N92  En3
 BYTE   N68  Bn3
 BYTE   W72
 BYTE   N06  An3
 BYTE   W08
 BYTE   Bn3
 BYTE   W08
 BYTE   An3
 BYTE   W08
//  #01 //015   ----------------------------------------
 BYTE   N92  En3
 BYTE   N92  Gs3
 BYTE   W96
//  #01 //016   ----------------------------------------
 BYTE   N10  Gn2
 BYTE   N10  Bn2
 BYTE   W12
 BYTE   Cn3
 BYTE   N10  En3
 BYTE   W12
 BYTE   Dn3
 BYTE   N10  Fs3
 BYTE   W12
 BYTE   N12  En3
 BYTE   N12  Gn3
 BYTE   W24
 BYTE   An3
 BYTE   N12  Cn4
 BYTE   W24
 BYTE   Gn3
 BYTE   N12  Bn3
 BYTE   W12
//  #01 //017   ----------------------------------------
 BYTE   PATT
  POIN2 Label_0104A761
//  #01 //018   ----------------------------------------
 BYTE   PATT
  POIN2 Label_0104A77E
//  #01 //019   ----------------------------------------
 BYTE   PATT
  POIN2 Label_0104A78E
//  #01 //020   ----------------------------------------
 BYTE   PATT
  POIN2 Label_0104A79A
//  #01 //021   ----------------------------------------
 BYTE   PATT
  POIN2 Label_0104A7AE
//  #01 //022   ----------------------------------------
 BYTE   PATT
  POIN2 Label_0104A7B9
//  #01 //023   ----------------------------------------
 BYTE   N92  Fs3  v104
 BYTE   N92  An3
 BYTE   W96
//  #01 //024   ----------------------------------------
 BYTE   PATT
  POIN2 Label_0104A7D2
//  #01 //025   ----------------------------------------
 BYTE   PATT
  POIN2 Label_0104A7ED
//  #01 //026   ----------------------------------------
 BYTE   PATT
  POIN2 Label_0104A809
//  #01 //027   ----------------------------------------
 BYTE   PATT
  POIN2 Label_0104A82C
//  #01 //028   ----------------------------------------
 BYTE   PATT
  POIN2 Label_0104A84F
//  #01 //029   ----------------------------------------
 BYTE   PATT
  POIN2 Label_0104A85E
//  #01 //030   ----------------------------------------
 BYTE   N92  En3  v104
 BYTE   N92  Bn3
 BYTE   W96
//  #01 //031   ----------------------------------------
 BYTE   N10  En3
 BYTE   N10  Gs3
 BYTE   W12
 BYTE   Fs3
 BYTE   N10  An3
 BYTE   W12
 BYTE   En3
 BYTE   N10  Gs3
 BYTE   W12
 BYTE   Bn2
 BYTE   N10  En3
 BYTE   W12
 BYTE   Gs2
 BYTE   N10  Bn2
 BYTE   W12
 BYTE   Fs2
 BYTE   N10  An2
 BYTE   W12
 BYTE   En2
 BYTE   N10  Gs2
 BYTE   W12
 BYTE   Bn1
 BYTE   N10  En2
 BYTE   W12
//  #01 //032   ----------------------------------------
 BYTE   W96
//  #01 //033   ----------------------------------------
 BYTE   W96
//  #01 //034   ----------------------------------------
 BYTE   W96
//  #01 //035   ----------------------------------------
 BYTE   W96
//  #01 //036   ----------------------------------------
 BYTE   W96
//  #01 //037   ----------------------------------------
 BYTE   W96
//  #01 //038   ----------------------------------------
 BYTE   W96
//  #01 //039   ----------------------------------------
 BYTE   W96
//  #01 //040   ----------------------------------------
 BYTE   W96
//  #01 //041   ----------------------------------------
 BYTE   W96
//  #01 //042   ----------------------------------------
 BYTE   W96
//  #01 //043   ----------------------------------------
 BYTE   W96
//  #01 //044   ----------------------------------------
 BYTE   W96
//  #01 //045   ----------------------------------------
 BYTE   W96
//  #01 //046   ----------------------------------------
 BYTE   W96
//  #01 //047   ----------------------------------------
 BYTE   W96
//  #01 //048   ----------------------------------------
Label_0104A912:
 BYTE   N32  As3  v104
 BYTE   N32  Dn4
 BYTE   W36
 BYTE   An3
 BYTE   N32  Cn4
 BYTE   W36
 BYTE   N22  Gn3
 BYTE   N22  As3
 BYTE   W24
 BYTE   PEND 
//  #01 //049   ----------------------------------------
Label_0104A922:
 BYTE   N32  An3  v104
 BYTE   N32  Cn4
 BYTE   W36
 BYTE   Gn3
 BYTE   N32  As3
 BYTE   W36
 BYTE   N22  Fn3
 BYTE   N22  An3
 BYTE   W24
 BYTE   PEND 
//  #01 //050   ----------------------------------------
Label_0104A932:
 BYTE   N10  Gn3  v104
 BYTE   N10  As3
 BYTE   W12
 BYTE   Fn3
 BYTE   N10  An3
 BYTE   W12
 BYTE   TIE  Ds3
 BYTE   TIE  Gn3
 BYTE   W72
 BYTE   PEND 
//  #01 //051   ----------------------------------------
 BYTE   W92
 BYTE   W02
 BYTE   EOT
 BYTE   Ds3  v067
 BYTE   W02
//  #01 //052   ----------------------------------------
Label_0104A948:
 BYTE   N92  Dn3  v104
 BYTE   N92  En3
 BYTE   N92  An3
 BYTE   W96
 BYTE   PEND 
//  #01 //053   ----------------------------------------
Label_0104A951:
 BYTE   N92  Fn3  v104
 BYTE   N92  Gn3
 BYTE   N92  Cn4
 BYTE   W96
 BYTE   PEND 
//  #01 //054   ----------------------------------------
 BYTE   En3
 BYTE   N92  Fs3
 BYTE   N92  Bn3
 BYTE   W96
//  #01 //055   ----------------------------------------
Label_0104A960:
 BYTE   N92  Cn3  v104
 BYTE   N92  Dn3
 BYTE   N92  Gn3
 BYTE   W96
 BYTE   PEND 
//  #01 //056   ----------------------------------------
 BYTE   PATT
  POIN2 Label_0104A912
//  #01 //057   ----------------------------------------
 BYTE   PATT
  POIN2 Label_0104A922
//  #01 //058   ----------------------------------------
 BYTE   PATT
  POIN2 Label_0104A932
//  #01 //059   ----------------------------------------
 BYTE   W92
 BYTE   W02
 BYTE   EOT
 BYTE   Ds3  v067
 BYTE   W02
//  #01 //060   ----------------------------------------
 BYTE   PATT
  POIN2 Label_0104A948
//  #01 //061   ----------------------------------------
 BYTE   PATT
  POIN2 Label_0104A951
//  #01 //062   ----------------------------------------
Label_0104A988:
 BYTE   N92  Ds3  v104
 BYTE   N92  Fn3
 BYTE   N92  As3
 BYTE   W96
 BYTE   PEND 
//  #01 //063   ----------------------------------------
Label_0104A991:
 BYTE   N92  As2  v104
 BYTE   N92  Cn3
 BYTE   N92  Fn3
 BYTE   W96
 BYTE   PEND 
//  #01 //064   ----------------------------------------
Label_0104A99A:
 BYTE   N10  An2  v084
 BYTE   N10  Dn3
 BYTE   W12
 BYTE   Cn3
 BYTE   N10  En3
 BYTE   W12
 BYTE   Dn3
 BYTE   N10  Fn3
 BYTE   W12
 BYTE   An2
 BYTE   N10  Dn3
 BYTE   W12
 BYTE   Cn3
 BYTE   N10  En3
 BYTE   W12
 BYTE   Dn3
 BYTE   N10  Fn3
 BYTE   W12
 BYTE   En3
 BYTE   N10  Gn3
 BYTE   W12
 BYTE   Cn3
 BYTE   N10  En3
 BYTE   W12
 BYTE   PEND 
//  #01 //065   ----------------------------------------
Label_0104A9BD:
 BYTE   N10  Dn3  v084
 BYTE   N10  Fn3
 BYTE   W12
 BYTE   En3
 BYTE   N10  Gn3
 BYTE   W12
 BYTE   Fn3
 BYTE   N10  An3
 BYTE   W12
 BYTE   Dn3
 BYTE   N10  Fn3
 BYTE   W12
 BYTE   En3
 BYTE   N10  Gn3
 BYTE   W12
 BYTE   Fn3
 BYTE   N10  An3
 BYTE   W12
 BYTE   Gn3
 BYTE   N10  As3
 BYTE   W12
 BYTE   En3
 BYTE   N10  Gn3
 BYTE   W12
 BYTE   PEND 
//  #01 //066   ----------------------------------------
Label_0104A9E0:
 BYTE   N10  Fn3  v084
 BYTE   N10  An3
 BYTE   W12
 BYTE   Dn3
 BYTE   N10  Fn3
 BYTE   W12
 BYTE   En3
 BYTE   N10  Gn3
 BYTE   W12
 BYTE   Cn3
 BYTE   N10  En3
 BYTE   W12
 BYTE   Dn3
 BYTE   N10  Fn3
 BYTE   W12
 BYTE   An2
 BYTE   N10  Dn3
 BYTE   W12
 BYTE   Cn3
 BYTE   N10  En3
 BYTE   W12
 BYTE   An2
 BYTE   N10  Cn3
 BYTE   W12
 BYTE   PEND 
//  #01 //067   ----------------------------------------
Label_0104AA03:
 BYTE   N10  Cn3  v084
 BYTE   N10  En3
 BYTE   W12
 BYTE   Dn3
 BYTE   N10  Fn3
 BYTE   W12
 BYTE   En3
 BYTE   N10  Gn3
 BYTE   W12
 BYTE   Fn3
 BYTE   N10  An3
 BYTE   W12
 BYTE   En3
 BYTE   N10  Gn3
 BYTE   W12
 BYTE   Dn3
 BYTE   N10  Fn3
 BYTE   W12
 BYTE   Cn3
 BYTE   N10  En3
 BYTE   W12
 BYTE   An2
 BYTE   N10  Cn3
 BYTE   W12
 BYTE   PEND 
//  #01 //068   ----------------------------------------
 BYTE   PATT
  POIN2 Label_0104A99A
//  #01 //069   ----------------------------------------
 BYTE   PATT
  POIN2 Label_0104A9BD
//  #01 //070   ----------------------------------------
Label_0104AA30:
 BYTE   N92  Dn3  v084
 BYTE   N92  En3
 BYTE   N92  An3
 BYTE   W96
 BYTE   PEND 
//  #01 //071   ----------------------------------------
 BYTE   An2
 BYTE   N92  Dn3
 BYTE   N92  En3
 BYTE   W96
//  #01 //072   ----------------------------------------
 BYTE   PATT
  POIN2 Label_0104A99A
//  #01 //073   ----------------------------------------
 BYTE   PATT
  POIN2 Label_0104A9BD
//  #01 //074   ----------------------------------------
 BYTE   PATT
  POIN2 Label_0104A9E0
//  #01 //075   ----------------------------------------
 BYTE   PATT
  POIN2 Label_0104AA03
//  #01 //076   ----------------------------------------
 BYTE   PATT
  POIN2 Label_0104A99A
//  #01 //077   ----------------------------------------
 BYTE   PATT
  POIN2 Label_0104A9BD
//  #01 //078   ----------------------------------------
 BYTE   N92  Dn3  v084
 BYTE   N92  En3
 BYTE   N56  An3
 BYTE   W60
 BYTE   N10  As3
 BYTE   W12
 BYTE   An3
 BYTE   W12
 BYTE   Gn3
 BYTE   W12
//  #01 //079   ----------------------------------------
 BYTE   PATT
  POIN2 Label_0104AA30
//  #01 //080   ----------------------------------------
 BYTE   PATT
  POIN2 Label_0104A948
//  #01 //081   ----------------------------------------
 BYTE   PATT
  POIN2 Label_0104A951
//  #01 //082   ----------------------------------------
 BYTE   N92  En3  v104
 BYTE   N92  Fs3
 BYTE   N92  Bn3
 BYTE   W96
//  #01 //083   ----------------------------------------
 BYTE   PATT
  POIN2 Label_0104A960
//  #01 //084   ----------------------------------------
 BYTE   PATT
  POIN2 Label_0104A948
//  #01 //085   ----------------------------------------
 BYTE   PATT
  POIN2 Label_0104A951
//  #01 //086   ----------------------------------------
 BYTE   PATT
  POIN2 Label_0104A988
//  #01 //087   ----------------------------------------
 BYTE   PATT
  POIN2 Label_0104A991
//  #01 //088   ----------------------------------------
 BYTE   PATT
  POIN2 Label_0104A948
//  #01 //089   ----------------------------------------
 BYTE   PATT
  POIN2 Label_0104A951
//  #01 //090   ----------------------------------------
 BYTE   N92  En3  v104
 BYTE   N92  Fs3
 BYTE   N92  Bn3
 BYTE   W96
//  #01 //091   ----------------------------------------
 BYTE   PATT
  POIN2 Label_0104A960
//  #01 //092   ----------------------------------------
 BYTE   PATT
  POIN2 Label_0104A948
//  #01 //093   ----------------------------------------
 BYTE   PATT
  POIN2 Label_0104A951
//  #01 //094   ----------------------------------------
 BYTE   PATT
  POIN2 Label_0104A988
//  #01 //095   ----------------------------------------
 BYTE   PATT
  POIN2 Label_0104A991
//  #01 //096   ----------------------------------------
 BYTE   PATT
  POIN2 Label_0104A912
//  #01 //097   ----------------------------------------
 BYTE   PATT
  POIN2 Label_0104A922
//  #01 //098   ----------------------------------------
 BYTE   PATT
  POIN2 Label_0104A932
//  #01 //099   ----------------------------------------
 BYTE   W92
 BYTE   W02
 BYTE   EOT
 BYTE   Ds3  v067
 BYTE   W02
//  #01 //100   ----------------------------------------
 BYTE   N32  Fn3  v104
 BYTE   N32  An3
 BYTE   W36
 BYTE   Gn3
 BYTE   N32  As3
 BYTE   W36
 BYTE   N22  An3
 BYTE   N22  Cn4
 BYTE   W24
//  #01 //101   ----------------------------------------
 BYTE   N32  Gn3
 BYTE   N32  As3
 BYTE   W36
 BYTE   Fn3
 BYTE   N32  An3
 BYTE   W36
 BYTE   N22  Dn3
 BYTE   N22  Fn3
 BYTE   W24
//  #01 //102   ----------------------------------------
 BYTE   N92  Dn3
 BYTE   N92  Gn3
 BYTE   W96
//  #01 //103   ----------------------------------------
 BYTE   As2
 BYTE   N92  Dn3
 BYTE   W96
//  #01 //104   ----------------------------------------
 BYTE   PATT
  POIN2 Label_0104A912
//  #01 //105   ----------------------------------------
 BYTE   PATT
  POIN2 Label_0104A922
//  #01 //106   ----------------------------------------
 BYTE   PATT
  POIN2 Label_0104A932
//  #01 //107   ----------------------------------------
 BYTE   W92
 BYTE   W02
 BYTE   EOT
 BYTE   Ds3  v067
 BYTE   W02
//  #01 //108   ----------------------------------------
 BYTE   N92  Fn3  v104
 BYTE   N92  An3
 BYTE   W96
//  #01 //109   ----------------------------------------
 BYTE   N32  Fn3
 BYTE   N32  An3
 BYTE   W36
 BYTE   En3
 BYTE   N32  Gn3
 BYTE   W36
 BYTE   N22  Dn3
 BYTE   N22  Fn3
 BYTE   W24
//  #01 //110   ----------------------------------------
 BYTE   TIE  Dn3
 BYTE   TIE  Gn3
 BYTE   W96
//  #01 //111   ----------------------------------------
 BYTE   W92
 BYTE   W02
 BYTE   EOT
 BYTE   Dn3  v067
 BYTE   W02
//  #01 //112   ----------------------------------------
 BYTE   GoTo
  POIN2 Label_0104A73E
//  #01 //113   ----------------------------------------
 BYTE   W06
 BYTE   FINE

//**************** Track 2 (Midi-Chn.1) ****************//

MarioTennisBreakPointPsyche_002:
//  #02 //000   ----------------------------------------
 BYTE   KEYSH   MarioTennisBreakPointPsyche_key+0
Label_0104B592:
 BYTE   VOICE   61
 BYTE   VOL   38*MarioTennisBreakPointPsyche_mvl/mxv
 BYTE   W24
 BYTE   PAN   c_v-20
 BYTE   N10  Gn2  v104
 BYTE   N10  Bn2
 BYTE   W12
 BYTE   Cn3
 BYTE   N10  En3
 BYTE   W12
 BYTE   Dn3
 BYTE   N10  Fs3
 BYTE   W12
 BYTE   N12  En3
 BYTE   N12  Gn3
 BYTE   W24
 BYTE   An3
 BYTE   N12  Cn4
 BYTE   W12
//  #02 //001   ----------------------------------------
Label_0104B5B0:
 BYTE   W12
 BYTE   N12  Gn3  v104
 BYTE   N12  Bn3
 BYTE   W24
 BYTE   Fs3
 BYTE   N12  An3
 BYTE   W24
 BYTE   N10  En3
 BYTE   N10  Gn3
 BYTE   W12
 BYTE   Fs3
 BYTE   N10  An3
 BYTE   W12
 BYTE   En3
 BYTE   N10  Gn3
 BYTE   W12
 BYTE   PEND 
//  #02 //002   ----------------------------------------
Label_0104B5C9:
 BYTE   N10  Dn3  v104
 BYTE   N10  Fs3
 BYTE   W12
 BYTE   Bn2
 BYTE   N10  Dn3
 BYTE   W12
 BYTE   N32  Cn3
 BYTE   N32  En3
 BYTE   W36
 BYTE   Gn2
 BYTE   N32  Cn3
 BYTE   W36
 BYTE   PEND 
//  #02 //003   ----------------------------------------
Label_0104B5DD:
 BYTE   N22  En3  v104
 BYTE   N22  Gn3
 BYTE   W24
 BYTE   N32  Dn3
 BYTE   N32  Fs3
 BYTE   W36
 BYTE   N56  An2
 BYTE   N56  Dn3
 BYTE   W36
 BYTE   PEND 
//  #02 //004   ----------------------------------------
Label_0104B5EE:
 BYTE   W24
 BYTE   N56  Bn2  v104
 BYTE   N56  En3
 BYTE   W60
 BYTE   N10  Dn3
 BYTE   N10  Fs3
 BYTE   W12
 BYTE   PEND 
//  #02 //005   ----------------------------------------
Label_0104B5FB:
 BYTE   N10  En3  v104
 BYTE   N10  Gn3
 BYTE   W12
 BYTE   N10
 BYTE   N10  Bn3
 BYTE   W12
 BYTE   N44  Fs3
 BYTE   N44  An3
 BYTE   W48
 BYTE   N44
 BYTE   N44  Dn4
 BYTE   W24
 BYTE   PEND 
//  #02 //006   ----------------------------------------
Label_0104B60F:
 BYTE   W24
 BYTE   N56  An3  v104
 BYTE   N56  Cn4
 BYTE   W60
 BYTE   N10  Gn3
 BYTE   N10  Bn3
 BYTE   W12
 BYTE   PEND 
//  #02 //007   ----------------------------------------
Label_0104B61C:
 BYTE   N10  Fs3  v104
 BYTE   N10  An3
 BYTE   W12
 BYTE   En3
 BYTE   N10  Gn3
 BYTE   W12
 BYTE   N92  Fs3
 BYTE   N92  An3
 BYTE   W72
 BYTE   PEND 
//  #02 //008   ----------------------------------------
Label_0104B62C:
 BYTE   W24
 BYTE   N10  Gn3  v104
 BYTE   N10  Bn3
 BYTE   W12
 BYTE   Fs3
 BYTE   N10  An3
 BYTE   W12
 BYTE   En3
 BYTE   N10  Gn3
 BYTE   W12
 BYTE   Fs3
 BYTE   N10  An3
 BYTE   W24
 BYTE   En3
 BYTE   N10  Gn3
 BYTE   W12
 BYTE   PEND 
//  #02 //009   ----------------------------------------
Label_0104B644:
 BYTE   W12
 BYTE   N10  Dn3  v104
 BYTE   N10  Fs3
 BYTE   W24
 BYTE   En3
 BYTE   N10  Gn3
 BYTE   W24
 BYTE   Dn3
 BYTE   N10  Fs3
 BYTE   W12
 BYTE   Bn2
 BYTE   N10  En3
 BYTE   W12
 BYTE   Bn2
 BYTE   N10  Dn3
 BYTE   W12
 BYTE   PEND 
//  #02 //010   ----------------------------------------
Label_0104B65C:
 BYTE   N10  Gn2  v104
 BYTE   N10  Bn2
 BYTE   W12
 BYTE   N10
 BYTE   N10  Dn3
 BYTE   W12
 BYTE   Dn2
 BYTE   N10  Gn2
 BYTE   W12
 BYTE   N10
 BYTE   N10  Bn2
 BYTE   W12
 BYTE   N10
 BYTE   N10  Dn3
 BYTE   W12
 BYTE   Dn2
 BYTE   N10  Gn2
 BYTE   W12
 BYTE   N10
 BYTE   N10  Bn2
 BYTE   W12
 BYTE   N10
 BYTE   N10  Dn3
 BYTE   W12
 BYTE   PEND 
//  #02 //011   ----------------------------------------
Label_0104B67F:
 BYTE   N10  Gn2  v104
 BYTE   N10  Bn2
 BYTE   W12
 BYTE   N10
 BYTE   N10  Dn3
 BYTE   W12
 BYTE   En3
 BYTE   N10  An3
 BYTE   W12
 BYTE   En2
 BYTE   N10  An2
 BYTE   W12
 BYTE   En2
 BYTE   N10  An2
 BYTE   W12
 BYTE   En3
 BYTE   N10  An3
 BYTE   W12
 BYTE   En2
 BYTE   N10  An2
 BYTE   W12
 BYTE   En2
 BYTE   N10  An2
 BYTE   W12
 BYTE   PEND 
//  #02 //012   ----------------------------------------
Label_0104B6A2:
 BYTE   N10  En3  v104
 BYTE   N10  Gn3
 BYTE   W12
 BYTE   En3
 BYTE   N10  An3
 BYTE   W12
 BYTE   N32  Cn3
 BYTE   N32  En3
 BYTE   W36
 BYTE   Gn2
 BYTE   N32  Cn3
 BYTE   W36
 BYTE   PEND 
//  #02 //013   ----------------------------------------
Label_0104B6B6:
 BYTE   N22  Cn3  v104
 BYTE   N22  En3
 BYTE   W24
 BYTE   N32  Dn3
 BYTE   N32  Fs3
 BYTE   W36
 BYTE   En3
 BYTE   N32  Gn3
 BYTE   W36
 BYTE   PEND 
//  #02 //014   ----------------------------------------
 BYTE   N22  Fs3
 BYTE   N22  An3
 BYTE   W24
 BYTE   N92  En3
 BYTE   N68  Bn3
 BYTE   W72
//  #02 //015   ----------------------------------------
 BYTE   N06  An3
 BYTE   W08
 BYTE   Bn3
 BYTE   W08
 BYTE   An3
 BYTE   W08
 BYTE   N92  En3
 BYTE   N92  Gs3
 BYTE   W72
//  #02 //016   ----------------------------------------
 BYTE   W24
 BYTE   N10  Gn2
 BYTE   N10  Bn2
 BYTE   W12
 BYTE   Cn3
 BYTE   N10  En3
 BYTE   W12
 BYTE   Dn3
 BYTE   N10  Fs3
 BYTE   W12
 BYTE   N12  En3
 BYTE   N12  Gn3
 BYTE   W24
 BYTE   An3
 BYTE   N12  Cn4
 BYTE   W12
//  #02 //017   ----------------------------------------
 BYTE   PATT
  POIN2 Label_0104B5B0
//  #02 //018   ----------------------------------------
 BYTE   PATT
  POIN2 Label_0104B5C9
//  #02 //019   ----------------------------------------
 BYTE   PATT
  POIN2 Label_0104B5DD
//  #02 //020   ----------------------------------------
 BYTE   PATT
  POIN2 Label_0104B5EE
//  #02 //021   ----------------------------------------
 BYTE   PATT
  POIN2 Label_0104B5FB
//  #02 //022   ----------------------------------------
 BYTE   PATT
  POIN2 Label_0104B60F
//  #02 //023   ----------------------------------------
 BYTE   PATT
  POIN2 Label_0104B61C
//  #02 //024   ----------------------------------------
 BYTE   PATT
  POIN2 Label_0104B62C
//  #02 //025   ----------------------------------------
 BYTE   PATT
  POIN2 Label_0104B644
//  #02 //026   ----------------------------------------
 BYTE   PATT
  POIN2 Label_0104B65C
//  #02 //027   ----------------------------------------
 BYTE   PATT
  POIN2 Label_0104B67F
//  #02 //028   ----------------------------------------
 BYTE   PATT
  POIN2 Label_0104B6A2
//  #02 //029   ----------------------------------------
 BYTE   PATT
  POIN2 Label_0104B6B6
//  #02 //030   ----------------------------------------
 BYTE   N22  Fs3  v104
 BYTE   N22  An3
 BYTE   W24
 BYTE   N92  En3
 BYTE   N92  Bn3
 BYTE   W72
//  #02 //031   ----------------------------------------
 BYTE   W24
 BYTE   N10  En3
 BYTE   N10  Gs3
 BYTE   W12
 BYTE   Fs3
 BYTE   N10  An3
 BYTE   W12
 BYTE   En3
 BYTE   N10  Gs3
 BYTE   W12
 BYTE   Bn2
 BYTE   N10  En3
 BYTE   W12
 BYTE   Gs2
 BYTE   N10  Bn2
 BYTE   W12
 BYTE   Fs2
 BYTE   N10  An2
 BYTE   W12
//  #02 //032   ----------------------------------------
 BYTE   En2
 BYTE   N10  Gs2
 BYTE   W12
 BYTE   Bn1
 BYTE   N10  En2
 BYTE   W84
//  #02 //033   ----------------------------------------
 BYTE   W96
//  #02 //034   ----------------------------------------
 BYTE   W96
//  #02 //035   ----------------------------------------
 BYTE   W96
//  #02 //036   ----------------------------------------
 BYTE   W96
//  #02 //037   ----------------------------------------
 BYTE   W96
//  #02 //038   ----------------------------------------
 BYTE   W96
//  #02 //039   ----------------------------------------
 BYTE   W96
//  #02 //040   ----------------------------------------
 BYTE   W96
//  #02 //041   ----------------------------------------
 BYTE   W96
//  #02 //042   ----------------------------------------
 BYTE   W96
//  #02 //043   ----------------------------------------
 BYTE   W96
//  #02 //044   ----------------------------------------
 BYTE   W96
//  #02 //045   ----------------------------------------
 BYTE   W96
//  #02 //046   ----------------------------------------
 BYTE   W96
//  #02 //047   ----------------------------------------
 BYTE   W96
//  #02 //048   ----------------------------------------
Label_0104B770:
 BYTE   W22
 BYTE   N32  As3  v104
 BYTE   N32  Dn4
 BYTE   W36
 BYTE   An3
 BYTE   N32  Cn4
 BYTE   W36
 BYTE   N22  Gn3
 BYTE   N22  As3
 BYTE   W02
 BYTE   PEND 
//  #02 //049   ----------------------------------------
Label_0104B781:
 BYTE   W22
 BYTE   N32  An3  v104
 BYTE   N32  Cn4
 BYTE   W36
 BYTE   Gn3
 BYTE   N32  As3
 BYTE   W36
 BYTE   N22  Fn3
 BYTE   N22  An3
 BYTE   W02
 BYTE   PEND 
//  #02 //050   ----------------------------------------
Label_0104B792:
 BYTE   W22
 BYTE   N10  Gn3  v104
 BYTE   N10  As3
 BYTE   W12
 BYTE   Fn3
 BYTE   N10  An3
 BYTE   W12
 BYTE   TIE  Ds3
 BYTE   TIE  Gn3
 BYTE   W48
 BYTE   W02
 BYTE   PEND 
//  #02 //051   ----------------------------------------
 BYTE   W96
//  #02 //052   ----------------------------------------
 BYTE   W20
 BYTE   EOT
 BYTE   Ds3  v067
 BYTE   W02
 BYTE   N92  Dn3
 BYTE   N92  En3
 BYTE   N92  An3
 BYTE   W72
 BYTE   W02
//  #02 //053   ----------------------------------------
Label_0104B7B2:
 BYTE   W22
 BYTE   N92  Fn3  v104
 BYTE   N92  Gn3
 BYTE   N92  Cn4
 BYTE   W72
 BYTE   W02
 BYTE   PEND 
//  #02 //054   ----------------------------------------
 BYTE   W22
 BYTE   En3
 BYTE   N92  Fs3
 BYTE   N92  Bn3
 BYTE   W72
 BYTE   W02
//  #02 //055   ----------------------------------------
 BYTE   W22
 BYTE   Cn3
 BYTE   N92  Dn3
 BYTE   N92  Gn3
 BYTE   W72
 BYTE   W02
//  #02 //056   ----------------------------------------
 BYTE   PATT
  POIN2 Label_0104B770
//  #02 //057   ----------------------------------------
 BYTE   PATT
  POIN2 Label_0104B781
//  #02 //058   ----------------------------------------
 BYTE   PATT
  POIN2 Label_0104B792
//  #02 //059   ----------------------------------------
 BYTE   W96
//  #02 //060   ----------------------------------------
 BYTE   W20
 BYTE   EOT
 BYTE   Ds3  v067
 BYTE   W02
 BYTE   N92  Dn3  v104
 BYTE   N92  En3
 BYTE   N92  An3
 BYTE   W72
 BYTE   W02
//  #02 //061   ----------------------------------------
 BYTE   PATT
  POIN2 Label_0104B7B2
//  #02 //062   ----------------------------------------
 BYTE   W22
 BYTE   N92  Ds3  v104
 BYTE   N92  Fn3
 BYTE   N92  As3
 BYTE   W72
 BYTE   W02
//  #02 //063   ----------------------------------------
 BYTE   W22
 BYTE   As2
 BYTE   N92  Cn3
 BYTE   N92  Fn3
 BYTE   W72
 BYTE   W02
//  #02 //064   ----------------------------------------
 BYTE   W96
//  #02 //065   ----------------------------------------
 BYTE   W96
//  #02 //066   ----------------------------------------
 BYTE   W96
//  #02 //067   ----------------------------------------
 BYTE   W96
//  #02 //068   ----------------------------------------
 BYTE   W96
//  #02 //069   ----------------------------------------
 BYTE   W96
//  #02 //070   ----------------------------------------
 BYTE   W96
//  #02 //071   ----------------------------------------
 BYTE   W96
//  #02 //072   ----------------------------------------
 BYTE   W96
//  #02 //073   ----------------------------------------
 BYTE   W96
//  #02 //074   ----------------------------------------
 BYTE   W96
//  #02 //075   ----------------------------------------
 BYTE   W96
//  #02 //076   ----------------------------------------
 BYTE   W96
//  #02 //077   ----------------------------------------
 BYTE   W96
//  #02 //078   ----------------------------------------
 BYTE   W96
//  #02 //079   ----------------------------------------
 BYTE   W96
//  #02 //080   ----------------------------------------
Label_0104B812:
 BYTE   W24
 BYTE   N92  Dn3  v104
 BYTE   N92  En3
 BYTE   N92  An3
 BYTE   W72
 BYTE   PEND 
//  #02 //081   ----------------------------------------
Label_0104B81C:
 BYTE   W24
 BYTE   N92  Fn3  v104
 BYTE   N92  Gn3
 BYTE   N92  Cn4
 BYTE   W72
 BYTE   PEND 
//  #02 //082   ----------------------------------------
Label_0104B826:
 BYTE   W24
 BYTE   N92  En3  v104
 BYTE   N92  Fs3
 BYTE   N92  Bn3
 BYTE   W72
 BYTE   PEND 
//  #02 //083   ----------------------------------------
Label_0104B830:
 BYTE   W24
 BYTE   N92  Cn3  v104
 BYTE   N92  Dn3
 BYTE   N92  Gn3
 BYTE   W72
 BYTE   PEND 
//  #02 //084   ----------------------------------------
 BYTE   PATT
  POIN2 Label_0104B812
//  #02 //085   ----------------------------------------
 BYTE   PATT
  POIN2 Label_0104B81C
//  #02 //086   ----------------------------------------
Label_0104B844:
 BYTE   W24
 BYTE   N92  Ds3  v104
 BYTE   N92  Fn3
 BYTE   N92  As3
 BYTE   W72
 BYTE   PEND 
//  #02 //087   ----------------------------------------
Label_0104B84E:
 BYTE   W24
 BYTE   N92  As2  v104
 BYTE   N92  Cn3
 BYTE   N92  Fn3
 BYTE   W72
 BYTE   PEND 
//  #02 //088   ----------------------------------------
 BYTE   PATT
  POIN2 Label_0104B812
//  #02 //089   ----------------------------------------
 BYTE   PATT
  POIN2 Label_0104B81C
//  #02 //090   ----------------------------------------
 BYTE   PATT
  POIN2 Label_0104B826
//  #02 //091   ----------------------------------------
 BYTE   PATT
  POIN2 Label_0104B830
//  #02 //092   ----------------------------------------
 BYTE   PATT
  POIN2 Label_0104B812
//  #02 //093   ----------------------------------------
 BYTE   PATT
  POIN2 Label_0104B81C
//  #02 //094   ----------------------------------------
 BYTE   PATT
  POIN2 Label_0104B844
//  #02 //095   ----------------------------------------
 BYTE   PATT
  POIN2 Label_0104B84E
//  #02 //096   ----------------------------------------
Label_0104B880:
 BYTE   W24
 BYTE   N32  As3  v104
 BYTE   N32  Dn4
 BYTE   W36
 BYTE   An3
 BYTE   N32  Cn4
 BYTE   W36
 BYTE   PEND 
//  #02 //097   ----------------------------------------
Label_0104B88C:
 BYTE   N22  Gn3  v104
 BYTE   N22  As3
 BYTE   W24
 BYTE   N32  An3
 BYTE   N32  Cn4
 BYTE   W36
 BYTE   Gn3
 BYTE   N32  As3
 BYTE   W36
 BYTE   PEND 
//  #02 //098   ----------------------------------------
Label_0104B89C:
 BYTE   N22  Fn3  v104
 BYTE   N22  An3
 BYTE   W24
 BYTE   N10  Gn3
 BYTE   N10  As3
 BYTE   W12
 BYTE   Fn3
 BYTE   N10  An3
 BYTE   W12
 BYTE   TIE  Ds3
 BYTE   TIE  Gn3
 BYTE   W48
 BYTE   PEND 
//  #02 //099   ----------------------------------------
 BYTE   W96
//  #02 //100   ----------------------------------------
 BYTE   W22
 BYTE   EOT
 BYTE   Ds3  v067
 BYTE   W02
 BYTE   N32  Fn3
 BYTE   N32  An3
 BYTE   W36
 BYTE   Gn3
 BYTE   N32  As3
 BYTE   W36
//  #02 //101   ----------------------------------------
 BYTE   N22  An3
 BYTE   N22  Cn4
 BYTE   W24
 BYTE   N32  Gn3
 BYTE   N32  As3
 BYTE   W36
 BYTE   Fn3
 BYTE   N32  An3
 BYTE   W36
//  #02 //102   ----------------------------------------
 BYTE   N22  Dn3
 BYTE   N22  Fn3
 BYTE   W24
 BYTE   N92  Dn3
 BYTE   N92  Gn3
 BYTE   W72
//  #02 //103   ----------------------------------------
 BYTE   W24
 BYTE   As2
 BYTE   N92  Dn3
 BYTE   W72
//  #02 //104   ----------------------------------------
 BYTE   PATT
  POIN2 Label_0104B880
//  #02 //105   ----------------------------------------
 BYTE   PATT
  POIN2 Label_0104B88C
//  #02 //106   ----------------------------------------
 BYTE   PATT
  POIN2 Label_0104B89C
//  #02 //107   ----------------------------------------
 BYTE   W96
//  #02 //108   ----------------------------------------
 BYTE   W22
 BYTE   EOT
 BYTE   Ds3  v067
 BYTE   W02
 BYTE   N92  Fn3  v104
 BYTE   N92  An3
 BYTE   W72
//  #02 //109   ----------------------------------------
 BYTE   W24
 BYTE   N32  Fn3
 BYTE   N32  An3
 BYTE   W36
 BYTE   En3
 BYTE   N32  Gn3
 BYTE   W36
//  #02 //110   ----------------------------------------
 BYTE   N20  Dn3
 BYTE   N21  Fn3
 BYTE   W96
//  #02 //111   ----------------------------------------
 BYTE   W96
//  #02 //112   ----------------------------------------
 BYTE   GoTo
  POIN2 Label_0104B592
//  #02 //113   ----------------------------------------
 BYTE   W06
 BYTE   FINE

//**************** Track 3 (Midi-Chn.2) ****************//

MarioTennisBreakPointPsyche_003:
//  #03 //000   ----------------------------------------
 BYTE   KEYSH   MarioTennisBreakPointPsyche_key+0
Label_564796:
 BYTE   VOICE   48
 BYTE   VOL   36*MarioTennisBreakPointPsyche_mvl/mxv
 BYTE   W96
//  #03 //001   ----------------------------------------
 BYTE   W96
//  #03 //002   ----------------------------------------
 BYTE   W96
//  #03 //003   ----------------------------------------
 BYTE   W96
//  #03 //004   ----------------------------------------
 BYTE   W96
//  #03 //005   ----------------------------------------
 BYTE   W96
//  #03 //006   ----------------------------------------
 BYTE   W96
//  #03 //007   ----------------------------------------
 BYTE   W96
//  #03 //008   ----------------------------------------
 BYTE   N96  Gn4  v104
 BYTE   W96
//  #03 //009   ----------------------------------------
Label_5647A6:
 BYTE   N48  Fs4  v104
 BYTE   W48
 BYTE   TIE  Dn4
 BYTE   W48
 BYTE   PEND 
//  #03 //010   ----------------------------------------
 BYTE   W96
//  #03 //011   ----------------------------------------
 BYTE   EOT
 BYTE   N96  Cs4
 BYTE   W96
//  #03 //012   ----------------------------------------
 BYTE   Cn4
 BYTE   W96
//  #03 //013   ----------------------------------------
 BYTE   Dn4
 BYTE   W96
//  #03 //014   ----------------------------------------
 BYTE   TIE  En4
 BYTE   W96
//  #03 //015   ----------------------------------------
 BYTE   W96
//  #03 //016   ----------------------------------------
 BYTE   EOT
 BYTE   W96
//  #03 //017   ----------------------------------------
 BYTE   W96
//  #03 //018   ----------------------------------------
 BYTE   W96
//  #03 //019   ----------------------------------------
 BYTE   W96
//  #03 //020   ----------------------------------------
 BYTE   W96
//  #03 //021   ----------------------------------------
 BYTE   W96
//  #03 //022   ----------------------------------------
 BYTE   W96
//  #03 //023   ----------------------------------------
 BYTE   W96
//  #03 //024   ----------------------------------------
 BYTE   N96  Gn4
 BYTE   W96
//  #03 //025   ----------------------------------------
 BYTE   PATT
  POIN2 Label_5647A6
//  #03 //026   ----------------------------------------
 BYTE   W96
//  #03 //027   ----------------------------------------
 BYTE   EOT
 BYTE   Dn4
 BYTE   N96  Cs4  v104
 BYTE   W96
//  #03 //028   ----------------------------------------
 BYTE   Cn4
 BYTE   W96
//  #03 //029   ----------------------------------------
 BYTE   Dn4
 BYTE   W96
//  #03 //030   ----------------------------------------
 BYTE   TIE  En4
 BYTE   W96
//  #03 //031   ----------------------------------------
 BYTE   W96
//  #03 //032   ----------------------------------------
 BYTE   EOT
 BYTE   N96
 BYTE   W96
//  #03 //033   ----------------------------------------
 BYTE   Fs4
 BYTE   W96
//  #03 //034   ----------------------------------------
 BYTE   TIE  Gn4
 BYTE   W96
//  #03 //035   ----------------------------------------
 BYTE   W96
//  #03 //036   ----------------------------------------
 BYTE   W96
//  #03 //037   ----------------------------------------
 BYTE   EOT
Label_5647E6:
 BYTE   N48  Fs4  v104
 BYTE   W48
 BYTE   Dn4
 BYTE   W48
 BYTE   PEND 
//  #03 //038   ----------------------------------------
 BYTE   N96  En4
 BYTE   W96
//  #03 //039   ----------------------------------------
 BYTE   Fs4
 BYTE   W96
//  #03 //040   ----------------------------------------
 BYTE   TIE  Gn4
 BYTE   W96
//  #03 //041   ----------------------------------------
 BYTE   W96
//  #03 //042   ----------------------------------------
 BYTE   W96
//  #03 //043   ----------------------------------------
 BYTE   EOT
//  #03 //044   ----------------------------------------
 BYTE   PATT
  POIN2 Label_5647E6
//  #03 //045   ----------------------------------------
 BYTE   N96  En4  v104
 BYTE   W96
//  #03 //046   ----------------------------------------
 BYTE   Fs4
 BYTE   W96
//  #03 //047   ----------------------------------------
 BYTE   Gn4
 BYTE   W96
//  #03 //048   ----------------------------------------
 BYTE   An4
 BYTE   W96
//  #03 //049   ----------------------------------------
 BYTE   TIE  Gn4
 BYTE   W96
//  #03 //050   ----------------------------------------
 BYTE   W96
//  #03 //051   ----------------------------------------
 BYTE   W96
//  #03 //052   ----------------------------------------
 BYTE   W96
//  #03 //053   ----------------------------------------
 BYTE   EOT
 BYTE   TIE  An4
 BYTE   W96
//  #03 //054   ----------------------------------------
 BYTE   W96
//  #03 //055   ----------------------------------------
 BYTE   W96
//  #03 //056   ----------------------------------------
 BYTE   W96
//  #03 //057   ----------------------------------------
 BYTE   EOT
 BYTE   TIE  Gn4
 BYTE   W96
//  #03 //058   ----------------------------------------
 BYTE   W96
//  #03 //059   ----------------------------------------
 BYTE   W96
//  #03 //060   ----------------------------------------
 BYTE   W96
//  #03 //061   ----------------------------------------
 BYTE   EOT
 BYTE   TIE  An4
 BYTE   W96
//  #03 //062   ----------------------------------------
 BYTE   W96
//  #03 //063   ----------------------------------------
 BYTE   EOT
 BYTE   TIE  As4
 BYTE   W96
//  #03 //064   ----------------------------------------
 BYTE   W96
//  #03 //065   ----------------------------------------
 BYTE   EOT
 BYTE   W96
//  #03 //066   ----------------------------------------
 BYTE   W96
//  #03 //067   ----------------------------------------
 BYTE   W96
//  #03 //068   ----------------------------------------
 BYTE   W96
//  #03 //069   ----------------------------------------
 BYTE   W96
//  #03 //070   ----------------------------------------
 BYTE   W96
//  #03 //071   ----------------------------------------
 BYTE   W96
//  #03 //072   ----------------------------------------
 BYTE   W96
//  #03 //073   ----------------------------------------
 BYTE   W96
//  #03 //074   ----------------------------------------
 BYTE   W96
//  #03 //075   ----------------------------------------
 BYTE   W96
//  #03 //076   ----------------------------------------
 BYTE   W96
//  #03 //077   ----------------------------------------
 BYTE   W96
//  #03 //078   ----------------------------------------
 BYTE   W96
//  #03 //079   ----------------------------------------
 BYTE   W96
//  #03 //080   ----------------------------------------
 BYTE   W96
//  #03 //081   ----------------------------------------
 BYTE   TIE  An4
 BYTE   W96
//  #03 //082   ----------------------------------------
 BYTE   W96
//  #03 //083   ----------------------------------------
 BYTE   W96
//  #03 //084   ----------------------------------------
 BYTE   W48
 BYTE   EOT
 BYTE   N48  Dn4
 BYTE   W48
//  #03 //085   ----------------------------------------
 BYTE   TIE  An4
 BYTE   W96
//  #03 //086   ----------------------------------------
 BYTE   W96
//  #03 //087   ----------------------------------------
 BYTE   EOT
 BYTE   TIE  As4
 BYTE   W96
//  #03 //088   ----------------------------------------
 BYTE   W48
 BYTE   EOT
 BYTE   N48  Fn4
 BYTE   W48
//  #03 //089   ----------------------------------------
 BYTE   TIE  An4
 BYTE   W96
//  #03 //090   ----------------------------------------
 BYTE   W96
//  #03 //091   ----------------------------------------
 BYTE   W96
//  #03 //092   ----------------------------------------
 BYTE   W48
 BYTE   EOT
 BYTE   N48  Dn4
 BYTE   W48
//  #03 //093   ----------------------------------------
 BYTE   TIE  An4
 BYTE   W96
//  #03 //094   ----------------------------------------
 BYTE   W96
//  #03 //095   ----------------------------------------
 BYTE   EOT
 BYTE   TIE  As4
 BYTE   W96
//  #03 //096   ----------------------------------------
 BYTE   W48
 BYTE   EOT
 BYTE   N48  Fn4
 BYTE   W48
//  #03 //097   ----------------------------------------
 BYTE   TIE  Gn4
 BYTE   W96
//  #03 //098   ----------------------------------------
 BYTE   W96
//  #03 //099   ----------------------------------------
 BYTE   W96
//  #03 //100   ----------------------------------------
 BYTE   W96
//  #03 //101   ----------------------------------------
 BYTE   EOT
 BYTE   TIE  Fn4
 BYTE   W96
//  #03 //102   ----------------------------------------
 BYTE   W96
//  #03 //103   ----------------------------------------
 BYTE   EOT
 BYTE   TIE  Gn4
 BYTE   W96
//  #03 //104   ----------------------------------------
 BYTE   W96
//  #03 //105   ----------------------------------------
 BYTE   EOT
 BYTE   TIE
 BYTE   W96
//  #03 //106   ----------------------------------------
 BYTE   W96
//  #03 //107   ----------------------------------------
 BYTE   W96
//  #03 //108   ----------------------------------------
 BYTE   W96
//  #03 //109   ----------------------------------------
 BYTE   EOT
 BYTE   TIE  Fn4
 BYTE   W96
//  #03 //110   ----------------------------------------
 BYTE   W96
//  #03 //111   ----------------------------------------
 BYTE   EOT
 BYTE   TIE  Gn4
 BYTE   W96
//  #03 //112   ----------------------------------------
 BYTE   W96
//  #03 //113   ----------------------------------------
 BYTE   EOT
 BYTE   GoTo
  POIN2 Label_564796
//  #03 //114   ----------------------------------------
 BYTE   W06
 BYTE   FINE

//**************** Track 4 (Midi-Chn.3) ****************//

MarioTennisBreakPointPsyche_004:
//  #04 //000   ----------------------------------------
 BYTE   KEYSH   MarioTennisBreakPointPsyche_key+0
Label_563FD2:
 BYTE   VOICE   42
 BYTE   VOL   34*MarioTennisBreakPointPsyche_mvl/mxv
 BYTE   W96
//  #04 //001   ----------------------------------------
 BYTE   W96
//  #04 //002   ----------------------------------------
 BYTE   W96
//  #04 //003   ----------------------------------------
 BYTE   W96
//  #04 //004   ----------------------------------------
 BYTE   W96
//  #04 //005   ----------------------------------------
 BYTE   W96
//  #04 //006   ----------------------------------------
 BYTE   W96
//  #04 //007   ----------------------------------------
 BYTE   W96
//  #04 //008   ----------------------------------------
 BYTE   N96  Gn4  v104
 BYTE   W96
//  #04 //009   ----------------------------------------
Label_563FE2:
 BYTE   N48  Fs4  v104
 BYTE   W48
 BYTE   TIE  Dn4
 BYTE   W48
 BYTE   PEND 
//  #04 //010   ----------------------------------------
 BYTE   W96
//  #04 //011   ----------------------------------------
 BYTE   EOT
 BYTE   N96  Cs4
 BYTE   W96
//  #04 //012   ----------------------------------------
 BYTE   Cn4
 BYTE   W96
//  #04 //013   ----------------------------------------
 BYTE   Dn4
 BYTE   W96
//  #04 //014   ----------------------------------------
 BYTE   TIE  En4
 BYTE   W96
//  #04 //015   ----------------------------------------
 BYTE   W96
//  #04 //016   ----------------------------------------
 BYTE   EOT
 BYTE   W96
//  #04 //017   ----------------------------------------
 BYTE   W96
//  #04 //018   ----------------------------------------
 BYTE   W96
//  #04 //019   ----------------------------------------
 BYTE   W96
//  #04 //020   ----------------------------------------
 BYTE   W96
//  #04 //021   ----------------------------------------
 BYTE   W96
//  #04 //022   ----------------------------------------
 BYTE   W96
//  #04 //023   ----------------------------------------
 BYTE   W96
//  #04 //024   ----------------------------------------
 BYTE   N96  Gn4
 BYTE   W96
//  #04 //025   ----------------------------------------
 BYTE   PATT
  POIN2 Label_563FE2
//  #04 //026   ----------------------------------------
 BYTE   W96
//  #04 //027   ----------------------------------------
 BYTE   EOT
 BYTE   Dn4
 BYTE   N96  Cs4  v104
 BYTE   W96
//  #04 //028   ----------------------------------------
 BYTE   Cn4
 BYTE   W96
//  #04 //029   ----------------------------------------
 BYTE   Dn4
 BYTE   W96
//  #04 //030   ----------------------------------------
 BYTE   TIE  En4
 BYTE   W96
//  #04 //031   ----------------------------------------
 BYTE   W96
//  #04 //032   ----------------------------------------
 BYTE   EOT
 BYTE   N96
 BYTE   W96
//  #04 //033   ----------------------------------------
 BYTE   Fs4
 BYTE   W96
//  #04 //034   ----------------------------------------
 BYTE   TIE  Gn4
 BYTE   W96
//  #04 //035   ----------------------------------------
 BYTE   W96
//  #04 //036   ----------------------------------------
 BYTE   W96
//  #04 //037   ----------------------------------------
 BYTE   EOT
Label_564022:
 BYTE   N48  Fs4  v104
 BYTE   W48
 BYTE   Dn4
 BYTE   W48
 BYTE   PEND 
//  #04 //038   ----------------------------------------
 BYTE   N96  En4
 BYTE   W96
//  #04 //039   ----------------------------------------
 BYTE   Fs4
 BYTE   W96
//  #04 //040   ----------------------------------------
 BYTE   TIE  Gn4
 BYTE   W96
//  #04 //041   ----------------------------------------
 BYTE   W96
//  #04 //042   ----------------------------------------
 BYTE   W96
//  #04 //043   ----------------------------------------
 BYTE   EOT
//  #04 //044   ----------------------------------------
 BYTE   PATT
  POIN2 Label_564022
//  #04 //045   ----------------------------------------
 BYTE   N96  En4  v104
 BYTE   W96
//  #04 //046   ----------------------------------------
 BYTE   Fs4
 BYTE   W96
//  #04 //047   ----------------------------------------
 BYTE   Gn4
 BYTE   W96
//  #04 //048   ----------------------------------------
 BYTE   An4
 BYTE   W96
//  #04 //049   ----------------------------------------
 BYTE   TIE  Gn4
 BYTE   W96
//  #04 //050   ----------------------------------------
 BYTE   W96
//  #04 //051   ----------------------------------------
 BYTE   W96
//  #04 //052   ----------------------------------------
 BYTE   W96
//  #04 //053   ----------------------------------------
 BYTE   EOT
 BYTE   TIE  An4
 BYTE   W96
//  #04 //054   ----------------------------------------
 BYTE   W96
//  #04 //055   ----------------------------------------
 BYTE   W96
//  #04 //056   ----------------------------------------
 BYTE   W96
//  #04 //057   ----------------------------------------
 BYTE   EOT
 BYTE   TIE  Gn4
 BYTE   W96
//  #04 //058   ----------------------------------------
 BYTE   W96
//  #04 //059   ----------------------------------------
 BYTE   W96
//  #04 //060   ----------------------------------------
 BYTE   W96
//  #04 //061   ----------------------------------------
 BYTE   EOT
 BYTE   TIE  An4
 BYTE   W96
//  #04 //062   ----------------------------------------
 BYTE   W96
//  #04 //063   ----------------------------------------
 BYTE   EOT
 BYTE   TIE  As4
 BYTE   W96
//  #04 //064   ----------------------------------------
 BYTE   W96
//  #04 //065   ----------------------------------------
 BYTE   EOT
 BYTE   N96  Dn4
 BYTE   W96
//  #04 //066   ----------------------------------------
 BYTE   An4
 BYTE   W96
//  #04 //067   ----------------------------------------
 BYTE   As4
 BYTE   W96
//  #04 //068   ----------------------------------------
 BYTE   Gn4
 BYTE   W96
//  #04 //069   ----------------------------------------
 BYTE   An4
 BYTE   W96
//  #04 //070   ----------------------------------------
 BYTE   Dn4
 BYTE   W96
//  #04 //071   ----------------------------------------
 BYTE   En4
 BYTE   W96
//  #04 //072   ----------------------------------------
 BYTE   An4
 BYTE   W96
//  #04 //073   ----------------------------------------
 BYTE   Dn4
 BYTE   W96
//  #04 //074   ----------------------------------------
 BYTE   An4
 BYTE   W96
//  #04 //075   ----------------------------------------
 BYTE   As4
 BYTE   W96
//  #04 //076   ----------------------------------------
 BYTE   Gn4
 BYTE   W96
//  #04 //077   ----------------------------------------
 BYTE   An4
 BYTE   W96
//  #04 //078   ----------------------------------------
 BYTE   Dn4
 BYTE   W96
//  #04 //079   ----------------------------------------
 BYTE   En4
 BYTE   W96
//  #04 //080   ----------------------------------------
 BYTE   N96
 BYTE   W96
//  #04 //081   ----------------------------------------
 BYTE   TIE  An4
 BYTE   W96
//  #04 //082   ----------------------------------------
 BYTE   W96
//  #04 //083   ----------------------------------------
 BYTE   W96
//  #04 //084   ----------------------------------------
 BYTE   W48
 BYTE   EOT
 BYTE   N48  Dn4
 BYTE   W48
//  #04 //085   ----------------------------------------
 BYTE   TIE  An4
 BYTE   W96
//  #04 //086   ----------------------------------------
 BYTE   W96
//  #04 //087   ----------------------------------------
 BYTE   EOT
 BYTE   TIE  As4
 BYTE   W96
//  #04 //088   ----------------------------------------
 BYTE   W48
 BYTE   EOT
 BYTE   N48  Fn4
 BYTE   W48
//  #04 //089   ----------------------------------------
 BYTE   TIE  An4
 BYTE   W96
//  #04 //090   ----------------------------------------
 BYTE   W96
//  #04 //091   ----------------------------------------
 BYTE   W96
//  #04 //092   ----------------------------------------
 BYTE   W48
 BYTE   EOT
 BYTE   N48  Dn4
 BYTE   W48
//  #04 //093   ----------------------------------------
 BYTE   TIE  An4
 BYTE   W96
//  #04 //094   ----------------------------------------
 BYTE   W96
//  #04 //095   ----------------------------------------
 BYTE   EOT
 BYTE   TIE  As4
 BYTE   W96
//  #04 //096   ----------------------------------------
 BYTE   W48
 BYTE   EOT
 BYTE   N48  Fn4
 BYTE   W48
//  #04 //097   ----------------------------------------
 BYTE   TIE  Gn4
 BYTE   W96
//  #04 //098   ----------------------------------------
 BYTE   W96
//  #04 //099   ----------------------------------------
 BYTE   W96
//  #04 //100   ----------------------------------------
 BYTE   W96
//  #04 //101   ----------------------------------------
 BYTE   EOT
 BYTE   TIE  Fn4
 BYTE   W96
//  #04 //102   ----------------------------------------
 BYTE   W96
//  #04 //103   ----------------------------------------
 BYTE   EOT
 BYTE   TIE  Gn4
 BYTE   W96
//  #04 //104   ----------------------------------------
 BYTE   W96
//  #04 //105   ----------------------------------------
 BYTE   EOT
 BYTE   TIE
 BYTE   W96
//  #04 //106   ----------------------------------------
 BYTE   W96
//  #04 //107   ----------------------------------------
 BYTE   W96
//  #04 //108   ----------------------------------------
 BYTE   W96
//  #04 //109   ----------------------------------------
 BYTE   EOT
 BYTE   TIE  Fn4
 BYTE   W96
//  #04 //110   ----------------------------------------
 BYTE   W96
//  #04 //111   ----------------------------------------
 BYTE   EOT
 BYTE   TIE  Gn4
 BYTE   W96
//  #04 //112   ----------------------------------------
 BYTE   W96
//  #04 //113   ----------------------------------------
 BYTE   EOT
 BYTE   GoTo
  POIN2 Label_563FD2
//  #04 //114   ----------------------------------------
 BYTE   W06
 BYTE   FINE

//**************** Track 5 (Midi-Chn.4) ****************//

MarioTennisBreakPointPsyche_005:
//  #05 //000   ----------------------------------------
 BYTE   KEYSH   MarioTennisBreakPointPsyche_key+0
Label_5648D2:
 BYTE   VOICE   40
 BYTE   VOL   55*MarioTennisBreakPointPsyche_mvl/mxv
 BYTE   PAN   c_v+7
 BYTE   W96
//  #05 //001   ----------------------------------------
 BYTE   W96
//  #05 //002   ----------------------------------------
 BYTE   W96
//  #05 //003   ----------------------------------------
 BYTE   W96
//  #05 //004   ----------------------------------------
 BYTE   W96
//  #05 //005   ----------------------------------------
 BYTE   W96
//  #05 //006   ----------------------------------------
 BYTE   W96
//  #05 //007   ----------------------------------------
 BYTE   W96
//  #05 //008   ----------------------------------------
 BYTE   W96
//  #05 //009   ----------------------------------------
 BYTE   W96
//  #05 //010   ----------------------------------------
 BYTE   W96
//  #05 //011   ----------------------------------------
 BYTE   W96
//  #05 //012   ----------------------------------------
 BYTE   W96
//  #05 //013   ----------------------------------------
 BYTE   W96
//  #05 //014   ----------------------------------------
 BYTE   W96
//  #05 //015   ----------------------------------------
 BYTE   W96
//  #05 //016   ----------------------------------------
 BYTE   W96
//  #05 //017   ----------------------------------------
 BYTE   W96
//  #05 //018   ----------------------------------------
 BYTE   W96
//  #05 //019   ----------------------------------------
 BYTE   W96
//  #05 //020   ----------------------------------------
 BYTE   W96
//  #05 //021   ----------------------------------------
 BYTE   W96
//  #05 //022   ----------------------------------------
 BYTE   W96
//  #05 //023   ----------------------------------------
 BYTE   W96
//  #05 //024   ----------------------------------------
 BYTE   W96
//  #05 //025   ----------------------------------------
 BYTE   W96
//  #05 //026   ----------------------------------------
 BYTE   W96
//  #05 //027   ----------------------------------------
 BYTE   W96
//  #05 //028   ----------------------------------------
 BYTE   W96
//  #05 //029   ----------------------------------------
 BYTE   W96
//  #05 //030   ----------------------------------------
 BYTE   W96
//  #05 //031   ----------------------------------------
 BYTE   W96
//  #05 //032   ----------------------------------------
Label_5648F8:
 BYTE   N36  En3  v104
 BYTE   N36  Gn3
 BYTE   W36
 BYTE   Dn3
 BYTE   N36  Fs3
 BYTE   W36
 BYTE   N24  En3
 BYTE   N24  Gn3
 BYTE   W24
 BYTE   PEND 
//  #05 //033   ----------------------------------------
Label_564908:
 BYTE   N36  Fs3  v104
 BYTE   N36  An3
 BYTE   W36
 BYTE   Gn3
 BYTE   N36  Bn3
 BYTE   W36
 BYTE   N24  An3
 BYTE   N24  Cn4
 BYTE   W24
 BYTE   PEND 
//  #05 //034   ----------------------------------------
Label_564918:
 BYTE   TIE  Gn3  v104
 BYTE   TIE  Bn3
 BYTE   W96
 BYTE   PEND 
//  #05 //035   ----------------------------------------
 BYTE   W96
//  #05 //036   ----------------------------------------
 BYTE   EOT
 BYTE   Gn3  v071
//  #05 //037   ----------------------------------------
 BYTE   PATT
  POIN2 Label_5648F8
//  #05 //038   ----------------------------------------
 BYTE   PATT
  POIN2 Label_564908
//  #05 //039   ----------------------------------------
 BYTE   N96  Bn3  v104
 BYTE   N96  En4
 BYTE   W96
//  #05 //040   ----------------------------------------
 BYTE   Bn3
 BYTE   N96  Ds4
 BYTE   W96
//  #05 //041   ----------------------------------------
 BYTE   PATT
  POIN2 Label_5648F8
//  #05 //042   ----------------------------------------
 BYTE   PATT
  POIN2 Label_564908
//  #05 //043   ----------------------------------------
 BYTE   PATT
  POIN2 Label_564918
//  #05 //044   ----------------------------------------
 BYTE   W96
//  #05 //045   ----------------------------------------
 BYTE   EOT
 BYTE   Gn3  v071
 BYTE   N36  Cn3  v104
 BYTE   N36  En3
 BYTE   W36
 BYTE   Dn3
 BYTE   N36  Fs3
 BYTE   W36
 BYTE   N24  En3
 BYTE   N24  Gn3
 BYTE   W24
//  #05 //046   ----------------------------------------
 BYTE   N36  Dn3
 BYTE   N36  Fs3
 BYTE   W36
 BYTE   En3
 BYTE   N36  Gn3
 BYTE   W36
 BYTE   N24  Fs3
 BYTE   N24  An3
 BYTE   W24
//  #05 //047   ----------------------------------------
 BYTE   N36  Ds3
 BYTE   N36  Gn3
 BYTE   W36
 BYTE   Fn3
 BYTE   N36  An3
 BYTE   W36
 BYTE   N24  Gn3
 BYTE   N24  As3
 BYTE   W24
//  #05 //048   ----------------------------------------
 BYTE   N36  Fn3
 BYTE   N36  An3
 BYTE   W36
 BYTE   Gn3
 BYTE   N36  As3
 BYTE   W36
 BYTE   N24  An3
 BYTE   N24  Cn4
 BYTE   W24
//  #05 //049   ----------------------------------------
 BYTE   W96
//  #05 //050   ----------------------------------------
 BYTE   W96
//  #05 //051   ----------------------------------------
 BYTE   W96
//  #05 //052   ----------------------------------------
 BYTE   W96
//  #05 //053   ----------------------------------------
 BYTE   W96
//  #05 //054   ----------------------------------------
 BYTE   W96
//  #05 //055   ----------------------------------------
 BYTE   W96
//  #05 //056   ----------------------------------------
 BYTE   W96
//  #05 //057   ----------------------------------------
 BYTE   W96
//  #05 //058   ----------------------------------------
 BYTE   W96
//  #05 //059   ----------------------------------------
 BYTE   W96
//  #05 //060   ----------------------------------------
 BYTE   W96
//  #05 //061   ----------------------------------------
 BYTE   W96
//  #05 //062   ----------------------------------------
 BYTE   W96
//  #05 //063   ----------------------------------------
 BYTE   W96
//  #05 //064   ----------------------------------------
 BYTE   W96
//  #05 //065   ----------------------------------------
 BYTE   W96
//  #05 //066   ----------------------------------------
 BYTE   W96
//  #05 //067   ----------------------------------------
 BYTE   W96
//  #05 //068   ----------------------------------------
 BYTE   W96
//  #05 //069   ----------------------------------------
 BYTE   W96
//  #05 //070   ----------------------------------------
 BYTE   W96
//  #05 //071   ----------------------------------------
 BYTE   W96
//  #05 //072   ----------------------------------------
 BYTE   W96
//  #05 //073   ----------------------------------------
 BYTE   W96
//  #05 //074   ----------------------------------------
 BYTE   W96
//  #05 //075   ----------------------------------------
 BYTE   W96
//  #05 //076   ----------------------------------------
 BYTE   W96
//  #05 //077   ----------------------------------------
 BYTE   W96
//  #05 //078   ----------------------------------------
 BYTE   W96
//  #05 //079   ----------------------------------------
 BYTE   W96
//  #05 //080   ----------------------------------------
 BYTE   W96
//  #05 //081   ----------------------------------------
 BYTE   W96
//  #05 //082   ----------------------------------------
 BYTE   W96
//  #05 //083   ----------------------------------------
 BYTE   W96
//  #05 //084   ----------------------------------------
 BYTE   W96
//  #05 //085   ----------------------------------------
 BYTE   W96
//  #05 //086   ----------------------------------------
 BYTE   W96
//  #05 //087   ----------------------------------------
 BYTE   W96
//  #05 //088   ----------------------------------------
 BYTE   W96
//  #05 //089   ----------------------------------------
 BYTE   W96
//  #05 //090   ----------------------------------------
 BYTE   W96
//  #05 //091   ----------------------------------------
 BYTE   W96
//  #05 //092   ----------------------------------------
 BYTE   W96
//  #05 //093   ----------------------------------------
 BYTE   W96
//  #05 //094   ----------------------------------------
 BYTE   W96
//  #05 //095   ----------------------------------------
 BYTE   W96
//  #05 //096   ----------------------------------------
 BYTE   W96
//  #05 //097   ----------------------------------------
 BYTE   W96
//  #05 //098   ----------------------------------------
 BYTE   W96
//  #05 //099   ----------------------------------------
 BYTE   W96
//  #05 //100   ----------------------------------------
 BYTE   W96
//  #05 //101   ----------------------------------------
 BYTE   W96
//  #05 //102   ----------------------------------------
 BYTE   W96
//  #05 //103   ----------------------------------------
 BYTE   W96
//  #05 //104   ----------------------------------------
 BYTE   W96
//  #05 //105   ----------------------------------------
 BYTE   W96
//  #05 //106   ----------------------------------------
 BYTE   W96
//  #05 //107   ----------------------------------------
 BYTE   W96
//  #05 //108   ----------------------------------------
 BYTE   W96
//  #05 //109   ----------------------------------------
 BYTE   W96
//  #05 //110   ----------------------------------------
 BYTE   W96
//  #05 //111   ----------------------------------------
 BYTE   W96
//  #05 //112   ----------------------------------------
 BYTE   W96
//  #05 //113   ----------------------------------------
 BYTE   GoTo
  POIN2 Label_5648D2
//  #05 //114   ----------------------------------------
 BYTE   W06
 BYTE   FINE

//**************** Track 6 (Midi-Chn.5) ****************//

MarioTennisBreakPointPsyche_006:
//  #06 //000   ----------------------------------------
 BYTE   KEYSH   MarioTennisBreakPointPsyche_key+0
Label_0104B3AA:
 BYTE   VOICE   40
 BYTE   VOL   36*MarioTennisBreakPointPsyche_mvl/mxv
 BYTE   PAN   c_v-20
 BYTE   W96
//  #06 //001   ----------------------------------------
 BYTE   W96
//  #06 //002   ----------------------------------------
 BYTE   W96
//  #06 //003   ----------------------------------------
 BYTE   W96
//  #06 //004   ----------------------------------------
 BYTE   W96
//  #06 //005   ----------------------------------------
 BYTE   W96
//  #06 //006   ----------------------------------------
 BYTE   W96
//  #06 //007   ----------------------------------------
 BYTE   W96
//  #06 //008   ----------------------------------------
 BYTE   W96
//  #06 //009   ----------------------------------------
 BYTE   W96
//  #06 //010   ----------------------------------------
 BYTE   W96
//  #06 //011   ----------------------------------------
 BYTE   W96
//  #06 //012   ----------------------------------------
 BYTE   W96
//  #06 //013   ----------------------------------------
 BYTE   W96
//  #06 //014   ----------------------------------------
 BYTE   W96
//  #06 //015   ----------------------------------------
 BYTE   W96
//  #06 //016   ----------------------------------------
 BYTE   W96
//  #06 //017   ----------------------------------------
 BYTE   W96
//  #06 //018   ----------------------------------------
 BYTE   W96
//  #06 //019   ----------------------------------------
 BYTE   W96
//  #06 //020   ----------------------------------------
 BYTE   W96
//  #06 //021   ----------------------------------------
 BYTE   W96
//  #06 //022   ----------------------------------------
 BYTE   W96
//  #06 //023   ----------------------------------------
 BYTE   W96
//  #06 //024   ----------------------------------------
 BYTE   W96
//  #06 //025   ----------------------------------------
 BYTE   W96
//  #06 //026   ----------------------------------------
 BYTE   W96
//  #06 //027   ----------------------------------------
 BYTE   W96
//  #06 //028   ----------------------------------------
 BYTE   W96
//  #06 //029   ----------------------------------------
 BYTE   W96
//  #06 //030   ----------------------------------------
 BYTE   W96
//  #06 //031   ----------------------------------------
 BYTE   W96
//  #06 //032   ----------------------------------------
Label_0104B3D0:
 BYTE   W12
 BYTE   N36  En3  v104
 BYTE   N36  Gn3
 BYTE   W36
 BYTE   Dn3
 BYTE   N36  Fs3
 BYTE   W36
 BYTE   N24  En3
 BYTE   N24  Gn3
 BYTE   W12
 BYTE   PEND 
//  #06 //033   ----------------------------------------
Label_0104B3E1:
 BYTE   W12
 BYTE   N36  Fs3  v104
 BYTE   N36  An3
 BYTE   W36
 BYTE   Gn3
 BYTE   N36  Bn3
 BYTE   W36
 BYTE   N24  An3
 BYTE   N24  Cn4
 BYTE   W12
 BYTE   PEND 
//  #06 //034   ----------------------------------------
Label_0104B3F2:
 BYTE   W12
 BYTE   TIE  Gn3  v104
 BYTE   TIE  Bn3
 BYTE   W84
 BYTE   PEND 
//  #06 //035   ----------------------------------------
 BYTE   W96
//  #06 //036   ----------------------------------------
 BYTE   W12
 BYTE   EOT
 BYTE   Gn3  v071
 BYTE   N36  En3
 BYTE   N36  Gn3
 BYTE   W36
 BYTE   Dn3
 BYTE   N36  Fs3
 BYTE   W36
 BYTE   N24  En3
 BYTE   N24  Gn3
 BYTE   W12
//  #06 //037   ----------------------------------------
 BYTE   PATT
  POIN2 Label_0104B3E1
//  #06 //038   ----------------------------------------
 BYTE   W12
 BYTE   N96  Bn3  v104
 BYTE   N96  En4
 BYTE   W84
//  #06 //039   ----------------------------------------
 BYTE   W12
 BYTE   Bn3
 BYTE   N96  Ds4
 BYTE   W84
//  #06 //040   ----------------------------------------
 BYTE   PATT
  POIN2 Label_0104B3D0
//  #06 //041   ----------------------------------------
 BYTE   PATT
  POIN2 Label_0104B3E1
//  #06 //042   ----------------------------------------
 BYTE   PATT
  POIN2 Label_0104B3F2
//  #06 //043   ----------------------------------------
 BYTE   W96
//  #06 //044   ----------------------------------------
 BYTE   W12
 BYTE   EOT
 BYTE   Gn3  v071
 BYTE   N36  Cn3  v104
 BYTE   N36  En3
 BYTE   W36
 BYTE   Dn3
 BYTE   N36  Fs3
 BYTE   W36
 BYTE   N24  En3
 BYTE   N24  Gn3
 BYTE   W12
//  #06 //045   ----------------------------------------
 BYTE   W12
 BYTE   N36  Dn3
 BYTE   N36  Fs3
 BYTE   W36
 BYTE   En3
 BYTE   N36  Gn3
 BYTE   W36
 BYTE   N24  Fs3
 BYTE   N24  An3
 BYTE   W12
//  #06 //046   ----------------------------------------
 BYTE   W12
 BYTE   N36  Ds3
 BYTE   N36  Gn3
 BYTE   W36
 BYTE   Fn3
 BYTE   N36  An3
 BYTE   W36
 BYTE   N24  Gn3
 BYTE   N24  As3
 BYTE   W12
//  #06 //047   ----------------------------------------
 BYTE   W12
 BYTE   N36  Fn3
 BYTE   N36  An3
 BYTE   W36
 BYTE   Gn3
 BYTE   N36  As3
 BYTE   W36
 BYTE   N24  An3
 BYTE   N24  Cn4
 BYTE   W12
//  #06 //048   ----------------------------------------
 BYTE   W96
//  #06 //049   ----------------------------------------
 BYTE   W96
//  #06 //050   ----------------------------------------
 BYTE   W96
//  #06 //051   ----------------------------------------
 BYTE   W96
//  #06 //052   ----------------------------------------
 BYTE   W96
//  #06 //053   ----------------------------------------
 BYTE   W96
//  #06 //054   ----------------------------------------
 BYTE   W96
//  #06 //055   ----------------------------------------
 BYTE   W96
//  #06 //056   ----------------------------------------
 BYTE   W96
//  #06 //057   ----------------------------------------
 BYTE   W96
//  #06 //058   ----------------------------------------
 BYTE   W96
//  #06 //059   ----------------------------------------
 BYTE   W96
//  #06 //060   ----------------------------------------
 BYTE   W96
//  #06 //061   ----------------------------------------
 BYTE   W96
//  #06 //062   ----------------------------------------
 BYTE   W96
//  #06 //063   ----------------------------------------
 BYTE   W96
//  #06 //064   ----------------------------------------
 BYTE   W96
//  #06 //065   ----------------------------------------
 BYTE   W96
//  #06 //066   ----------------------------------------
 BYTE   W96
//  #06 //067   ----------------------------------------
 BYTE   W96
//  #06 //068   ----------------------------------------
 BYTE   W96
//  #06 //069   ----------------------------------------
 BYTE   W96
//  #06 //070   ----------------------------------------
 BYTE   W96
//  #06 //071   ----------------------------------------
 BYTE   W96
//  #06 //072   ----------------------------------------
 BYTE   W96
//  #06 //073   ----------------------------------------
 BYTE   W96
//  #06 //074   ----------------------------------------
 BYTE   W96
//  #06 //075   ----------------------------------------
 BYTE   W96
//  #06 //076   ----------------------------------------
 BYTE   W96
//  #06 //077   ----------------------------------------
 BYTE   W96
//  #06 //078   ----------------------------------------
 BYTE   W96
//  #06 //079   ----------------------------------------
 BYTE   W96
//  #06 //080   ----------------------------------------
 BYTE   W96
//  #06 //081   ----------------------------------------
 BYTE   W96
//  #06 //082   ----------------------------------------
 BYTE   W96
//  #06 //083   ----------------------------------------
 BYTE   W96
//  #06 //084   ----------------------------------------
 BYTE   W96
//  #06 //085   ----------------------------------------
 BYTE   W96
//  #06 //086   ----------------------------------------
 BYTE   W96
//  #06 //087   ----------------------------------------
 BYTE   W96
//  #06 //088   ----------------------------------------
 BYTE   W96
//  #06 //089   ----------------------------------------
 BYTE   W96
//  #06 //090   ----------------------------------------
 BYTE   W96
//  #06 //091   ----------------------------------------
 BYTE   W96
//  #06 //092   ----------------------------------------
 BYTE   W96
//  #06 //093   ----------------------------------------
 BYTE   W96
//  #06 //094   ----------------------------------------
 BYTE   W96
//  #06 //095   ----------------------------------------
 BYTE   W96
//  #06 //096   ----------------------------------------
 BYTE   W96
//  #06 //097   ----------------------------------------
 BYTE   W96
//  #06 //098   ----------------------------------------
 BYTE   W96
//  #06 //099   ----------------------------------------
 BYTE   W96
//  #06 //100   ----------------------------------------
 BYTE   W96
//  #06 //101   ----------------------------------------
 BYTE   W96
//  #06 //102   ----------------------------------------
 BYTE   W96
//  #06 //103   ----------------------------------------
 BYTE   W96
//  #06 //104   ----------------------------------------
 BYTE   W96
//  #06 //105   ----------------------------------------
 BYTE   W96
//  #06 //106   ----------------------------------------
 BYTE   W96
//  #06 //107   ----------------------------------------
 BYTE   W96
//  #06 //108   ----------------------------------------
 BYTE   W96
//  #06 //109   ----------------------------------------
 BYTE   W96
//  #06 //110   ----------------------------------------
 BYTE   W96
//  #06 //111   ----------------------------------------
 BYTE   W96
//  #06 //112   ----------------------------------------
 BYTE   GoTo
  POIN2 Label_0104B3AA
//  #06 //113   ----------------------------------------
 BYTE   W06
 BYTE   FINE

//**************** Track 7 (Midi-Chn.6) ****************//

MarioTennisBreakPointPsyche_007:
//  #07 //000   ----------------------------------------
 BYTE   KEYSH   MarioTennisBreakPointPsyche_key+0
Label_0104B1B6:
 BYTE   VOICE   40
 BYTE   VOL   31*MarioTennisBreakPointPsyche_mvl/mxv
 BYTE   PAN   c_v+19
 BYTE   W96
//  #07 //001   ----------------------------------------
 BYTE   W96
//  #07 //002   ----------------------------------------
 BYTE   W96
//  #07 //003   ----------------------------------------
 BYTE   W96
//  #07 //004   ----------------------------------------
 BYTE   W96
//  #07 //005   ----------------------------------------
 BYTE   W96
//  #07 //006   ----------------------------------------
 BYTE   W96
//  #07 //007   ----------------------------------------
 BYTE   W96
//  #07 //008   ----------------------------------------
 BYTE   W96
//  #07 //009   ----------------------------------------
 BYTE   W96
//  #07 //010   ----------------------------------------
 BYTE   W96
//  #07 //011   ----------------------------------------
 BYTE   W96
//  #07 //012   ----------------------------------------
 BYTE   W96
//  #07 //013   ----------------------------------------
 BYTE   W96
//  #07 //014   ----------------------------------------
 BYTE   W96
//  #07 //015   ----------------------------------------
 BYTE   W96
//  #07 //016   ----------------------------------------
 BYTE   W96
//  #07 //017   ----------------------------------------
 BYTE   W96
//  #07 //018   ----------------------------------------
 BYTE   W96
//  #07 //019   ----------------------------------------
 BYTE   W96
//  #07 //020   ----------------------------------------
 BYTE   W96
//  #07 //021   ----------------------------------------
 BYTE   W96
//  #07 //022   ----------------------------------------
 BYTE   W96
//  #07 //023   ----------------------------------------
 BYTE   W96
//  #07 //024   ----------------------------------------
 BYTE   W96
//  #07 //025   ----------------------------------------
 BYTE   W96
//  #07 //026   ----------------------------------------
 BYTE   W96
//  #07 //027   ----------------------------------------
 BYTE   W96
//  #07 //028   ----------------------------------------
 BYTE   W96
//  #07 //029   ----------------------------------------
 BYTE   W96
//  #07 //030   ----------------------------------------
 BYTE   W96
//  #07 //031   ----------------------------------------
 BYTE   W96
//  #07 //032   ----------------------------------------
Label_0104B1DC:
 BYTE   W24
 BYTE   N36  En3  v104
 BYTE   N36  Gn3
 BYTE   W36
 BYTE   Dn3
 BYTE   N36  Fs3
 BYTE   W36
 BYTE   PEND 
//  #07 //033   ----------------------------------------
Label_0104B1E8:
 BYTE   N24  En3  v104
 BYTE   N24  Gn3
 BYTE   W24
 BYTE   N36  Fs3
 BYTE   N36  An3
 BYTE   W36
 BYTE   Gn3
 BYTE   N36  Bn3
 BYTE   W36
 BYTE   PEND 
//  #07 //034   ----------------------------------------
Label_0104B1F8:
 BYTE   N24  An3  v104
 BYTE   N24  Cn4
 BYTE   W24
 BYTE   TIE  Gn3
 BYTE   TIE  Bn3
 BYTE   W72
 BYTE   PEND 
//  #07 //035   ----------------------------------------
 BYTE   W96
//  #07 //036   ----------------------------------------
 BYTE   W24
 BYTE   EOT
 BYTE   Gn3  v071
 BYTE   N36  En3
 BYTE   N36  Gn3
 BYTE   W36
 BYTE   Dn3
 BYTE   N36  Fs3
 BYTE   W36
//  #07 //037   ----------------------------------------
 BYTE   PATT
  POIN2 Label_0104B1E8
//  #07 //038   ----------------------------------------
 BYTE   N24  An3  v104
 BYTE   N24  Cn4
 BYTE   W24
 BYTE   N96  Bn3
 BYTE   N96  En4
 BYTE   W72
//  #07 //039   ----------------------------------------
 BYTE   W24
 BYTE   Bn3
 BYTE   N96  Ds4
 BYTE   W72
//  #07 //040   ----------------------------------------
 BYTE   PATT
  POIN2 Label_0104B1DC
//  #07 //041   ----------------------------------------
 BYTE   PATT
  POIN2 Label_0104B1E8
//  #07 //042   ----------------------------------------
 BYTE   PATT
  POIN2 Label_0104B1F8
//  #07 //043   ----------------------------------------
 BYTE   W96
//  #07 //044   ----------------------------------------
 BYTE   W24
 BYTE   EOT
 BYTE   Gn3  v071
 BYTE   N36  Cn3  v104
 BYTE   N36  En3
 BYTE   W36
 BYTE   Dn3
 BYTE   N36  Fs3
 BYTE   W36
//  #07 //045   ----------------------------------------
 BYTE   N24  En3
 BYTE   N24  Gn3
 BYTE   W24
 BYTE   N36  Dn3
 BYTE   N36  Fs3
 BYTE   W36
 BYTE   En3
 BYTE   N36  Gn3
 BYTE   W36
//  #07 //046   ----------------------------------------
 BYTE   N24  Fs3
 BYTE   N24  An3
 BYTE   W24
 BYTE   N36  Ds3
 BYTE   N36  Gn3
 BYTE   W36
 BYTE   Fn3
 BYTE   N36  An3
 BYTE   W36
//  #07 //047   ----------------------------------------
 BYTE   N24  Gn3
 BYTE   N24  As3
 BYTE   W24
 BYTE   N36  Fn3
 BYTE   N36  An3
 BYTE   W36
 BYTE   Gn3
 BYTE   N36  As3
 BYTE   W36
//  #07 //048   ----------------------------------------
 BYTE   N24  An3
 BYTE   N24  Cn4
 BYTE   W96
//  #07 //049   ----------------------------------------
 BYTE   W96
//  #07 //050   ----------------------------------------
 BYTE   W96
//  #07 //051   ----------------------------------------
 BYTE   W96
//  #07 //052   ----------------------------------------
 BYTE   W96
//  #07 //053   ----------------------------------------
 BYTE   W96
//  #07 //054   ----------------------------------------
 BYTE   W96
//  #07 //055   ----------------------------------------
 BYTE   W96
//  #07 //056   ----------------------------------------
 BYTE   W96
//  #07 //057   ----------------------------------------
 BYTE   W96
//  #07 //058   ----------------------------------------
 BYTE   W96
//  #07 //059   ----------------------------------------
 BYTE   W96
//  #07 //060   ----------------------------------------
 BYTE   W96
//  #07 //061   ----------------------------------------
 BYTE   W96
//  #07 //062   ----------------------------------------
 BYTE   W96
//  #07 //063   ----------------------------------------
 BYTE   W96
//  #07 //064   ----------------------------------------
 BYTE   W96
//  #07 //065   ----------------------------------------
 BYTE   W96
//  #07 //066   ----------------------------------------
 BYTE   W96
//  #07 //067   ----------------------------------------
 BYTE   W96
//  #07 //068   ----------------------------------------
 BYTE   W96
//  #07 //069   ----------------------------------------
 BYTE   W96
//  #07 //070   ----------------------------------------
 BYTE   W96
//  #07 //071   ----------------------------------------
 BYTE   W96
//  #07 //072   ----------------------------------------
 BYTE   W96
//  #07 //073   ----------------------------------------
 BYTE   W96
//  #07 //074   ----------------------------------------
 BYTE   W96
//  #07 //075   ----------------------------------------
 BYTE   W96
//  #07 //076   ----------------------------------------
 BYTE   W96
//  #07 //077   ----------------------------------------
 BYTE   W96
//  #07 //078   ----------------------------------------
 BYTE   W96
//  #07 //079   ----------------------------------------
 BYTE   W96
//  #07 //080   ----------------------------------------
 BYTE   W96
//  #07 //081   ----------------------------------------
 BYTE   W96
//  #07 //082   ----------------------------------------
 BYTE   W96
//  #07 //083   ----------------------------------------
 BYTE   W96
//  #07 //084   ----------------------------------------
 BYTE   W96
//  #07 //085   ----------------------------------------
 BYTE   W96
//  #07 //086   ----------------------------------------
 BYTE   W96
//  #07 //087   ----------------------------------------
 BYTE   W96
//  #07 //088   ----------------------------------------
 BYTE   W96
//  #07 //089   ----------------------------------------
 BYTE   W96
//  #07 //090   ----------------------------------------
 BYTE   W96
//  #07 //091   ----------------------------------------
 BYTE   W96
//  #07 //092   ----------------------------------------
 BYTE   W96
//  #07 //093   ----------------------------------------
 BYTE   W96
//  #07 //094   ----------------------------------------
 BYTE   W96
//  #07 //095   ----------------------------------------
 BYTE   W96
//  #07 //096   ----------------------------------------
 BYTE   W96
//  #07 //097   ----------------------------------------
 BYTE   W96
//  #07 //098   ----------------------------------------
 BYTE   W96
//  #07 //099   ----------------------------------------
 BYTE   W96
//  #07 //100   ----------------------------------------
 BYTE   W96
//  #07 //101   ----------------------------------------
 BYTE   W96
//  #07 //102   ----------------------------------------
 BYTE   W96
//  #07 //103   ----------------------------------------
 BYTE   W96
//  #07 //104   ----------------------------------------
 BYTE   W96
//  #07 //105   ----------------------------------------
 BYTE   W96
//  #07 //106   ----------------------------------------
 BYTE   W96
//  #07 //107   ----------------------------------------
 BYTE   W96
//  #07 //108   ----------------------------------------
 BYTE   W96
//  #07 //109   ----------------------------------------
 BYTE   W96
//  #07 //110   ----------------------------------------
 BYTE   W96
//  #07 //111   ----------------------------------------
 BYTE   W96
//  #07 //112   ----------------------------------------
 BYTE   GoTo
  POIN2 Label_0104B1B6
//  #07 //113   ----------------------------------------
 BYTE   W06
 BYTE   FINE

//**************** Track 8 (Midi-Chn.7) ****************//

MarioTennisBreakPointPsyche_008:
//  #08 //000   ----------------------------------------
 BYTE   KEYSH   MarioTennisBreakPointPsyche_key+0
Label_5649CE:
 BYTE   VOICE   100
 BYTE   PAN   c_v+13
 BYTE   VOL   60*MarioTennisBreakPointPsyche_mvl/mxv
 BYTE   W96
//  #08 //001   ----------------------------------------
 BYTE   W96
//  #08 //002   ----------------------------------------
 BYTE   W96
//  #08 //003   ----------------------------------------
 BYTE   W96
//  #08 //004   ----------------------------------------
 BYTE   W96
//  #08 //005   ----------------------------------------
 BYTE   W96
//  #08 //006   ----------------------------------------
 BYTE   W96
//  #08 //007   ----------------------------------------
 BYTE   W96
//  #08 //008   ----------------------------------------
 BYTE   W96
//  #08 //009   ----------------------------------------
 BYTE   W96
//  #08 //010   ----------------------------------------
 BYTE   W96
//  #08 //011   ----------------------------------------
 BYTE   W96
//  #08 //012   ----------------------------------------
 BYTE   W96
//  #08 //013   ----------------------------------------
 BYTE   W96
//  #08 //014   ----------------------------------------
 BYTE   W96
//  #08 //015   ----------------------------------------
 BYTE   W96
//  #08 //016   ----------------------------------------
 BYTE   W96
//  #08 //017   ----------------------------------------
 BYTE   W96
//  #08 //018   ----------------------------------------
 BYTE   W96
//  #08 //019   ----------------------------------------
 BYTE   W96
//  #08 //020   ----------------------------------------
 BYTE   W96
//  #08 //021   ----------------------------------------
 BYTE   W96
//  #08 //022   ----------------------------------------
 BYTE   W96
//  #08 //023   ----------------------------------------
 BYTE   W96
//  #08 //024   ----------------------------------------
 BYTE   W96
//  #08 //025   ----------------------------------------
 BYTE   W96
//  #08 //026   ----------------------------------------
 BYTE   W96
//  #08 //027   ----------------------------------------
 BYTE   W96
//  #08 //028   ----------------------------------------
 BYTE   W96
//  #08 //029   ----------------------------------------
 BYTE   W96
//  #08 //030   ----------------------------------------
 BYTE   W96
//  #08 //031   ----------------------------------------
 BYTE   W96
//  #08 //032   ----------------------------------------
 BYTE   W96
//  #08 //033   ----------------------------------------
 BYTE   W96
//  #08 //034   ----------------------------------------
 BYTE   W96
//  #08 //035   ----------------------------------------
 BYTE   W96
//  #08 //036   ----------------------------------------
 BYTE   W96
//  #08 //037   ----------------------------------------
 BYTE   W96
//  #08 //038   ----------------------------------------
 BYTE   W96
//  #08 //039   ----------------------------------------
 BYTE   W96
//  #08 //040   ----------------------------------------
 BYTE   W96
//  #08 //041   ----------------------------------------
 BYTE   W96
//  #08 //042   ----------------------------------------
 BYTE   W96
//  #08 //043   ----------------------------------------
 BYTE   W96
//  #08 //044   ----------------------------------------
 BYTE   W96
//  #08 //045   ----------------------------------------
 BYTE   W96
//  #08 //046   ----------------------------------------
 BYTE   W96
//  #08 //047   ----------------------------------------
 BYTE   W96
//  #08 //048   ----------------------------------------
 BYTE   W96
//  #08 //049   ----------------------------------------
 BYTE   W96
//  #08 //050   ----------------------------------------
 BYTE   W96
//  #08 //051   ----------------------------------------
 BYTE   W96
//  #08 //052   ----------------------------------------
 BYTE   W96
//  #08 //053   ----------------------------------------
 BYTE   W96
//  #08 //054   ----------------------------------------
 BYTE   W96
//  #08 //055   ----------------------------------------
 BYTE   W96
//  #08 //056   ----------------------------------------
 BYTE   W96
//  #08 //057   ----------------------------------------
 BYTE   W96
//  #08 //058   ----------------------------------------
 BYTE   W96
//  #08 //059   ----------------------------------------
 BYTE   W96
//  #08 //060   ----------------------------------------
 BYTE   W96
//  #08 //061   ----------------------------------------
 BYTE   W96
//  #08 //062   ----------------------------------------
 BYTE   W96
//  #08 //063   ----------------------------------------
 BYTE   W96
//  #08 //064   ----------------------------------------
 BYTE   N96  Dn4  v104
 BYTE   W96
//  #08 //065   ----------------------------------------
 BYTE   An4
 BYTE   W96
//  #08 //066   ----------------------------------------
 BYTE   As4
 BYTE   W96
//  #08 //067   ----------------------------------------
 BYTE   Gn4
 BYTE   W96
//  #08 //068   ----------------------------------------
 BYTE   An4
 BYTE   W96
//  #08 //069   ----------------------------------------
 BYTE   Dn4
 BYTE   W96
//  #08 //070   ----------------------------------------
 BYTE   En4
 BYTE   W96
//  #08 //071   ----------------------------------------
 BYTE   An4
 BYTE   W96
//  #08 //072   ----------------------------------------
 BYTE   Dn4
 BYTE   W96
//  #08 //073   ----------------------------------------
 BYTE   An4
 BYTE   W96
//  #08 //074   ----------------------------------------
 BYTE   As4
 BYTE   W96
//  #08 //075   ----------------------------------------
 BYTE   Gn4
 BYTE   W96
//  #08 //076   ----------------------------------------
 BYTE   An4
 BYTE   W96
//  #08 //077   ----------------------------------------
 BYTE   Dn4
 BYTE   W96
//  #08 //078   ----------------------------------------
 BYTE   En4
 BYTE   W96
//  #08 //079   ----------------------------------------
 BYTE   N96
 BYTE   W96
//  #08 //080   ----------------------------------------
 BYTE   W96
//  #08 //081   ----------------------------------------
 BYTE   W96
//  #08 //082   ----------------------------------------
 BYTE   W96
//  #08 //083   ----------------------------------------
 BYTE   W96
//  #08 //084   ----------------------------------------
 BYTE   W96
//  #08 //085   ----------------------------------------
 BYTE   W96
//  #08 //086   ----------------------------------------
 BYTE   W96
//  #08 //087   ----------------------------------------
 BYTE   W96
//  #08 //088   ----------------------------------------
 BYTE   W96
//  #08 //089   ----------------------------------------
 BYTE   W96
//  #08 //090   ----------------------------------------
 BYTE   W96
//  #08 //091   ----------------------------------------
 BYTE   W96
//  #08 //092   ----------------------------------------
 BYTE   W96
//  #08 //093   ----------------------------------------
 BYTE   W96
//  #08 //094   ----------------------------------------
 BYTE   W96
//  #08 //095   ----------------------------------------
 BYTE   W96
//  #08 //096   ----------------------------------------
 BYTE   W96
//  #08 //097   ----------------------------------------
 BYTE   W96
//  #08 //098   ----------------------------------------
 BYTE   W96
//  #08 //099   ----------------------------------------
 BYTE   W96
//  #08 //100   ----------------------------------------
 BYTE   W96
//  #08 //101   ----------------------------------------
 BYTE   W96
//  #08 //102   ----------------------------------------
 BYTE   W96
//  #08 //103   ----------------------------------------
 BYTE   W96
//  #08 //104   ----------------------------------------
 BYTE   W96
//  #08 //105   ----------------------------------------
 BYTE   W96
//  #08 //106   ----------------------------------------
 BYTE   W96
//  #08 //107   ----------------------------------------
 BYTE   W96
//  #08 //108   ----------------------------------------
 BYTE   W96
//  #08 //109   ----------------------------------------
 BYTE   W96
//  #08 //110   ----------------------------------------
 BYTE   W96
//  #08 //111   ----------------------------------------
 BYTE   W96
//  #08 //112   ----------------------------------------
 BYTE   GoTo
  POIN2 Label_5649CE
//  #08 //113   ----------------------------------------
 BYTE   W06
 BYTE   FINE

//**************** Track 9 (Midi-Chn.8) ****************//

MarioTennisBreakPointPsyche_009:
//  #09 //000   ----------------------------------------
 BYTE   KEYSH   MarioTennisBreakPointPsyche_key+0
Label_0104B4BA:
 BYTE   VOICE   100
 BYTE   VOL   40*MarioTennisBreakPointPsyche_mvl/mxv
 BYTE   PAN   c_v-20
 BYTE   W96
//  #09 //001   ----------------------------------------
 BYTE   W96
//  #09 //002   ----------------------------------------
 BYTE   W96
//  #09 //003   ----------------------------------------
 BYTE   W96
//  #09 //004   ----------------------------------------
 BYTE   W96
//  #09 //005   ----------------------------------------
 BYTE   W96
//  #09 //006   ----------------------------------------
 BYTE   W96
//  #09 //007   ----------------------------------------
 BYTE   W96
//  #09 //008   ----------------------------------------
 BYTE   W96
//  #09 //009   ----------------------------------------
 BYTE   W96
//  #09 //010   ----------------------------------------
 BYTE   W96
//  #09 //011   ----------------------------------------
 BYTE   W96
//  #09 //012   ----------------------------------------
 BYTE   W96
//  #09 //013   ----------------------------------------
 BYTE   W96
//  #09 //014   ----------------------------------------
 BYTE   W96
//  #09 //015   ----------------------------------------
 BYTE   W96
//  #09 //016   ----------------------------------------
 BYTE   W96
//  #09 //017   ----------------------------------------
 BYTE   W96
//  #09 //018   ----------------------------------------
 BYTE   W96
//  #09 //019   ----------------------------------------
 BYTE   W96
//  #09 //020   ----------------------------------------
 BYTE   W96
//  #09 //021   ----------------------------------------
 BYTE   W96
//  #09 //022   ----------------------------------------
 BYTE   W96
//  #09 //023   ----------------------------------------
 BYTE   W96
//  #09 //024   ----------------------------------------
 BYTE   W96
//  #09 //025   ----------------------------------------
 BYTE   W96
//  #09 //026   ----------------------------------------
 BYTE   W96
//  #09 //027   ----------------------------------------
 BYTE   W96
//  #09 //028   ----------------------------------------
 BYTE   W96
//  #09 //029   ----------------------------------------
 BYTE   W96
//  #09 //030   ----------------------------------------
 BYTE   W96
//  #09 //031   ----------------------------------------
 BYTE   W96
//  #09 //032   ----------------------------------------
 BYTE   W96
//  #09 //033   ----------------------------------------
 BYTE   W96
//  #09 //034   ----------------------------------------
 BYTE   W96
//  #09 //035   ----------------------------------------
 BYTE   W96
//  #09 //036   ----------------------------------------
 BYTE   W96
//  #09 //037   ----------------------------------------
 BYTE   W96
//  #09 //038   ----------------------------------------
 BYTE   W96
//  #09 //039   ----------------------------------------
 BYTE   W96
//  #09 //040   ----------------------------------------
 BYTE   W96
//  #09 //041   ----------------------------------------
 BYTE   W96
//  #09 //042   ----------------------------------------
 BYTE   W96
//  #09 //043   ----------------------------------------
 BYTE   W96
//  #09 //044   ----------------------------------------
 BYTE   W96
//  #09 //045   ----------------------------------------
 BYTE   W96
//  #09 //046   ----------------------------------------
 BYTE   W96
//  #09 //047   ----------------------------------------
 BYTE   W96
//  #09 //048   ----------------------------------------
 BYTE   W96
//  #09 //049   ----------------------------------------
 BYTE   W96
//  #09 //050   ----------------------------------------
 BYTE   W96
//  #09 //051   ----------------------------------------
 BYTE   W96
//  #09 //052   ----------------------------------------
 BYTE   W96
//  #09 //053   ----------------------------------------
 BYTE   W96
//  #09 //054   ----------------------------------------
 BYTE   W96
//  #09 //055   ----------------------------------------
 BYTE   W96
//  #09 //056   ----------------------------------------
 BYTE   W96
//  #09 //057   ----------------------------------------
 BYTE   W96
//  #09 //058   ----------------------------------------
 BYTE   W96
//  #09 //059   ----------------------------------------
 BYTE   W96
//  #09 //060   ----------------------------------------
 BYTE   W96
//  #09 //061   ----------------------------------------
 BYTE   W96
//  #09 //062   ----------------------------------------
 BYTE   W96
//  #09 //063   ----------------------------------------
 BYTE   W96
//  #09 //064   ----------------------------------------
 BYTE   W24
 BYTE   N96  Dn4  v104
 BYTE   W72
//  #09 //065   ----------------------------------------
 BYTE   W24
 BYTE   An4
 BYTE   W72
//  #09 //066   ----------------------------------------
 BYTE   W24
 BYTE   As4
 BYTE   W72
//  #09 //067   ----------------------------------------
 BYTE   W24
 BYTE   Gn4
 BYTE   W72
//  #09 //068   ----------------------------------------
 BYTE   W24
 BYTE   An4
 BYTE   W72
//  #09 //069   ----------------------------------------
 BYTE   W24
 BYTE   Dn4
 BYTE   W72
//  #09 //070   ----------------------------------------
 BYTE   W24
 BYTE   En4
 BYTE   W72
//  #09 //071   ----------------------------------------
 BYTE   W24
 BYTE   An4
 BYTE   W72
//  #09 //072   ----------------------------------------
 BYTE   W24
 BYTE   Dn4
 BYTE   W72
//  #09 //073   ----------------------------------------
 BYTE   W24
 BYTE   An4
 BYTE   W72
//  #09 //074   ----------------------------------------
 BYTE   W24
 BYTE   As4
 BYTE   W72
//  #09 //075   ----------------------------------------
 BYTE   W24
 BYTE   Gn4
 BYTE   W72
//  #09 //076   ----------------------------------------
 BYTE   W24
 BYTE   An4
 BYTE   W72
//  #09 //077   ----------------------------------------
 BYTE   W24
 BYTE   Dn4
 BYTE   W72
//  #09 //078   ----------------------------------------
 BYTE   W24
 BYTE   En4
 BYTE   W72
//  #09 //079   ----------------------------------------
 BYTE   W24
 BYTE   N96
 BYTE   W72
//  #09 //080   ----------------------------------------
 BYTE   W96
//  #09 //081   ----------------------------------------
 BYTE   W96
//  #09 //082   ----------------------------------------
 BYTE   W96
//  #09 //083   ----------------------------------------
 BYTE   W96
//  #09 //084   ----------------------------------------
 BYTE   W96
//  #09 //085   ----------------------------------------
 BYTE   W96
//  #09 //086   ----------------------------------------
 BYTE   W96
//  #09 //087   ----------------------------------------
 BYTE   W96
//  #09 //088   ----------------------------------------
 BYTE   W96
//  #09 //089   ----------------------------------------
 BYTE   W96
//  #09 //090   ----------------------------------------
 BYTE   W96
//  #09 //091   ----------------------------------------
 BYTE   W96
//  #09 //092   ----------------------------------------
 BYTE   W96
//  #09 //093   ----------------------------------------
 BYTE   W96
//  #09 //094   ----------------------------------------
 BYTE   W96
//  #09 //095   ----------------------------------------
 BYTE   W96
//  #09 //096   ----------------------------------------
 BYTE   W96
//  #09 //097   ----------------------------------------
 BYTE   W96
//  #09 //098   ----------------------------------------
 BYTE   W96
//  #09 //099   ----------------------------------------
 BYTE   W96
//  #09 //100   ----------------------------------------
 BYTE   W96
//  #09 //101   ----------------------------------------
 BYTE   W96
//  #09 //102   ----------------------------------------
 BYTE   W96
//  #09 //103   ----------------------------------------
 BYTE   W96
//  #09 //104   ----------------------------------------
 BYTE   W96
//  #09 //105   ----------------------------------------
 BYTE   W96
//  #09 //106   ----------------------------------------
 BYTE   W96
//  #09 //107   ----------------------------------------
 BYTE   W96
//  #09 //108   ----------------------------------------
 BYTE   W96
//  #09 //109   ----------------------------------------
 BYTE   W96
//  #09 //110   ----------------------------------------
 BYTE   W96
//  #09 //111   ----------------------------------------
 BYTE   W96
//  #09 //112   ----------------------------------------
 BYTE   GoTo
  POIN2 Label_0104B4BA
//  #09 //113   ----------------------------------------
 BYTE   W06
 BYTE   FINE

//**************** Track 10 (Midi-Chn.9) ****************//

MarioTennisBreakPointPsyche_010:
//  #10 //000   ----------------------------------------
 BYTE   KEYSH   MarioTennisBreakPointPsyche_key+0
Label_0104AB42:
 BYTE   VOICE   123
 BYTE   VOL   60*MarioTennisBreakPointPsyche_mvl/mxv
 BYTE   N06  Cn1  v104
 BYTE   N06  As1
 BYTE   N06  Cs2
 BYTE   W24
 BYTE   Dn1
 BYTE   N06  As1
 BYTE   W24
 BYTE   Cn1
 BYTE   N06  As1
 BYTE   W12
 BYTE   Cn1
 BYTE   W12
 BYTE   Dn1
 BYTE   N06  As1
 BYTE   W24
//  #10 //001   ----------------------------------------
Label_0104AB5C:
 BYTE   N06  Cn1  v104
 BYTE   N06  As1
 BYTE   W24
 BYTE   Dn1
 BYTE   N06  As1
 BYTE   W24
 BYTE   Cn1
 BYTE   N06  As1
 BYTE   W12
 BYTE   Cn1
 BYTE   W12
 BYTE   Dn1
 BYTE   N06  As1
 BYTE   W24
 BYTE   PEND 
//  #10 //002   ----------------------------------------
 BYTE   PATT
  POIN2 Label_0104AB5C
//  #10 //003   ----------------------------------------
Label_0104AB76:
 BYTE   N06  Dn1  v104
 BYTE   N06  As1
 BYTE   W12
 BYTE   Cn1
 BYTE   W12
 BYTE   N06
 BYTE   N06  As1
 BYTE   W12
 BYTE   Dn1
 BYTE   W12
 BYTE   Cn1
 BYTE   N06  As1
 BYTE   W12
 BYTE   Cn1
 BYTE   W12
 BYTE   Dn1
 BYTE   N06  As1
 BYTE   W12
 BYTE   Dn1
 BYTE   W12
 BYTE   PEND 
//  #10 //004   ----------------------------------------
 BYTE   PATT
  POIN2 Label_0104AB5C
//  #10 //005   ----------------------------------------
 BYTE   PATT
  POIN2 Label_0104AB5C
//  #10 //006   ----------------------------------------
 BYTE   PATT
  POIN2 Label_0104AB5C
//  #10 //007   ----------------------------------------
Label_0104ABA0:
 BYTE   N06  Cn1  v104
 BYTE   N06  As1
 BYTE   W24
 BYTE   Dn1
 BYTE   N06  As1
 BYTE   W24
 BYTE   Cn1
 BYTE   N06  As1
 BYTE   W12
 BYTE   Cn1
 BYTE   W12
 BYTE   Dn1
 BYTE   N06  As1
 BYTE   W12
 BYTE   Dn1
 BYTE   W12
 BYTE   PEND 
//  #10 //008   ----------------------------------------
Label_0104ABB7:
 BYTE   N06  Cn1  v104
 BYTE   N06  As1
 BYTE   N06  Cs2
 BYTE   W24
 BYTE   Dn1
 BYTE   N06  As1
 BYTE   W24
 BYTE   Cn1
 BYTE   N06  As1
 BYTE   W12
 BYTE   Cn1
 BYTE   W12
 BYTE   Dn1
 BYTE   N06  As1
 BYTE   W24
 BYTE   PEND 
//  #10 //009   ----------------------------------------
 BYTE   PATT
  POIN2 Label_0104AB5C
//  #10 //010   ----------------------------------------
Label_0104ABD3:
 BYTE   N06  Cn1  v104
 BYTE   N06  As1
 BYTE   N06  Cs2
 BYTE   W24
 BYTE   Dn1
 BYTE   N06  As1
 BYTE   W12
 BYTE   Cs2
 BYTE   W12
 BYTE   Cn1
 BYTE   N06  As1
 BYTE   W12
 BYTE   Cn1
 BYTE   W12
 BYTE   Dn1
 BYTE   N06  As1
 BYTE   N06  Cs2
 BYTE   W24
 BYTE   PEND 
//  #10 //011   ----------------------------------------
Label_0104ABEE:
 BYTE   N06  Dn1  v104
 BYTE   N06  As1
 BYTE   N06  Cs2
 BYTE   W12
 BYTE   Cn1
 BYTE   W12
 BYTE   N06
 BYTE   N06  As1
 BYTE   W12
 BYTE   Dn1
 BYTE   W12
 BYTE   Cn1
 BYTE   N06  As1
 BYTE   W12
 BYTE   Cn1
 BYTE   W12
 BYTE   Dn1
 BYTE   N06  As1
 BYTE   W12
 BYTE   Dn1
 BYTE   W12
 BYTE   PEND 
//  #10 //012   ----------------------------------------
 BYTE   PATT
  POIN2 Label_0104ABB7
//  #10 //013   ----------------------------------------
 BYTE   PATT
  POIN2 Label_0104AB5C
//  #10 //014   ----------------------------------------
 BYTE   PATT
  POIN2 Label_0104ABB7
//  #10 //015   ----------------------------------------
 BYTE   PATT
  POIN2 Label_0104ABA0
//  #10 //016   ----------------------------------------
 BYTE   PATT
  POIN2 Label_0104ABB7
//  #10 //017   ----------------------------------------
 BYTE   PATT
  POIN2 Label_0104AB5C
//  #10 //018   ----------------------------------------
 BYTE   PATT
  POIN2 Label_0104AB5C
//  #10 //019   ----------------------------------------
 BYTE   PATT
  POIN2 Label_0104AB76
//  #10 //020   ----------------------------------------
 BYTE   PATT
  POIN2 Label_0104AB5C
//  #10 //021   ----------------------------------------
 BYTE   PATT
  POIN2 Label_0104AB5C
//  #10 //022   ----------------------------------------
 BYTE   PATT
  POIN2 Label_0104AB5C
//  #10 //023   ----------------------------------------
 BYTE   PATT
  POIN2 Label_0104ABA0
//  #10 //024   ----------------------------------------
 BYTE   PATT
  POIN2 Label_0104ABB7
//  #10 //025   ----------------------------------------
 BYTE   PATT
  POIN2 Label_0104AB5C
//  #10 //026   ----------------------------------------
 BYTE   PATT
  POIN2 Label_0104ABD3
//  #10 //027   ----------------------------------------
 BYTE   PATT
  POIN2 Label_0104ABEE
//  #10 //028   ----------------------------------------
 BYTE   PATT
  POIN2 Label_0104ABB7
//  #10 //029   ----------------------------------------
 BYTE   PATT
  POIN2 Label_0104AB5C
//  #10 //030   ----------------------------------------
 BYTE   PATT
  POIN2 Label_0104ABB7
//  #10 //031   ----------------------------------------
 BYTE   PATT
  POIN2 Label_0104ABA0
//  #10 //032   ----------------------------------------
 BYTE   PATT
  POIN2 Label_0104ABB7
//  #10 //033   ----------------------------------------
 BYTE   PATT
  POIN2 Label_0104AB5C
//  #10 //034   ----------------------------------------
 BYTE   PATT
  POIN2 Label_0104AB5C
//  #10 //035   ----------------------------------------
 BYTE   PATT
  POIN2 Label_0104ABA0
//  #10 //036   ----------------------------------------
 BYTE   PATT
  POIN2 Label_0104ABB7
//  #10 //037   ----------------------------------------
 BYTE   PATT
  POIN2 Label_0104AB5C
//  #10 //038   ----------------------------------------
 BYTE   PATT
  POIN2 Label_0104ABB7
//  #10 //039   ----------------------------------------
Label_0104AC92:
 BYTE   N06  Cn1  v104
 BYTE   N06  As1
 BYTE   N06  Cs2
 BYTE   W24
 BYTE   Dn1
 BYTE   N06  As1
 BYTE   W24
 BYTE   Cn1
 BYTE   N06  As1
 BYTE   W12
 BYTE   Cn1
 BYTE   W12
 BYTE   Dn1
 BYTE   N06  As1
 BYTE   W12
 BYTE   Dn1
 BYTE   W12
 BYTE   PEND 
//  #10 //040   ----------------------------------------
 BYTE   PATT
  POIN2 Label_0104ABB7
//  #10 //041   ----------------------------------------
 BYTE   PATT
  POIN2 Label_0104AB5C
//  #10 //042   ----------------------------------------
 BYTE   PATT
  POIN2 Label_0104AB5C
//  #10 //043   ----------------------------------------
 BYTE   PATT
  POIN2 Label_0104ABA0
//  #10 //044   ----------------------------------------
 BYTE   PATT
  POIN2 Label_0104ABB7
//  #10 //045   ----------------------------------------
 BYTE   PATT
  POIN2 Label_0104AB5C
//  #10 //046   ----------------------------------------
 BYTE   PATT
  POIN2 Label_0104ABB7
//  #10 //047   ----------------------------------------
 BYTE   PATT
  POIN2 Label_0104AC92
//  #10 //048   ----------------------------------------
Label_0104ACD3:
 BYTE   N06  Dn1  v104
 BYTE   N06  As1
 BYTE   N06  Cs2
 BYTE   W24
 BYTE   Cn1
 BYTE   W24
 BYTE   Dn1
 BYTE   N06  As1
 BYTE   W24
 BYTE   Cn1
 BYTE   W24
 BYTE   PEND 
//  #10 //049   ----------------------------------------
Label_0104ACE4:
 BYTE   N06  Dn1  v104
 BYTE   N06  As1
 BYTE   W24
 BYTE   Cn1
 BYTE   W24
 BYTE   Dn1
 BYTE   N06  As1
 BYTE   W24
 BYTE   Cn1
 BYTE   W24
 BYTE   PEND 
//  #10 //050   ----------------------------------------
 BYTE   PATT
  POIN2 Label_0104ACE4
//  #10 //051   ----------------------------------------
Label_0104ACF8:
 BYTE   N06  Dn1  v104
 BYTE   N06  As1
 BYTE   W24
 BYTE   Cn1
 BYTE   W24
 BYTE   Dn1
 BYTE   N06  As1
 BYTE   W24
 BYTE   Dn1
 BYTE   W12
 BYTE   N06
 BYTE   W12
 BYTE   PEND 
//  #10 //052   ----------------------------------------
 BYTE   PATT
  POIN2 Label_0104ABB7
//  #10 //053   ----------------------------------------
 BYTE   PATT
  POIN2 Label_0104AB5C
//  #10 //054   ----------------------------------------
Label_0104AD13:
 BYTE   N06  Cn1  v104
 BYTE   N06  As1
 BYTE   N06  Cs2
 BYTE   W24
 BYTE   Dn1
 BYTE   N06  As1
 BYTE   W24
 BYTE   Cn1
 BYTE   N06  As1
 BYTE   W12
 BYTE   Cn1
 BYTE   W12
 BYTE   Dn1
 BYTE   N06  As1
 BYTE   N06  An2
 BYTE   W24
 BYTE   PEND 
//  #10 //055   ----------------------------------------
Label_0104AD2C:
 BYTE   N06  Cn1  v104
 BYTE   N06  As1
 BYTE   N06  An2
 BYTE   W24
 BYTE   Dn1
 BYTE   N06  As1
 BYTE   W24
 BYTE   Cn1
 BYTE   N06  As1
 BYTE   W12
 BYTE   Cn1
 BYTE   W12
 BYTE   Dn1
 BYTE   N06  As1
 BYTE   W12
 BYTE   Dn1
 BYTE   W12
 BYTE   PEND 
//  #10 //056   ----------------------------------------
 BYTE   PATT
  POIN2 Label_0104ACD3
//  #10 //057   ----------------------------------------
 BYTE   PATT
  POIN2 Label_0104ACE4
//  #10 //058   ----------------------------------------
 BYTE   PATT
  POIN2 Label_0104ACE4
//  #10 //059   ----------------------------------------
 BYTE   PATT
  POIN2 Label_0104ACF8
//  #10 //060   ----------------------------------------
 BYTE   PATT
  POIN2 Label_0104ABB7
//  #10 //061   ----------------------------------------
 BYTE   PATT
  POIN2 Label_0104AB5C
//  #10 //062   ----------------------------------------
 BYTE   PATT
  POIN2 Label_0104AD13
//  #10 //063   ----------------------------------------
 BYTE   PATT
  POIN2 Label_0104AD2C
//  #10 //064   ----------------------------------------
 BYTE   PATT
  POIN2 Label_0104ABB7
//  #10 //065   ----------------------------------------
 BYTE   PATT
  POIN2 Label_0104AB5C
//  #10 //066   ----------------------------------------
 BYTE   PATT
  POIN2 Label_0104AB5C
//  #10 //067   ----------------------------------------
Label_0104AD7C:
 BYTE   N06  Dn1  v104
 BYTE   N06  Cs2
 BYTE   W12
 BYTE   Cn1
 BYTE   W12
 BYTE   N06
 BYTE   W12
 BYTE   Dn1
 BYTE   N06  Cs2
 BYTE   W12
 BYTE   Cn1
 BYTE   W12
 BYTE   N06
 BYTE   W12
 BYTE   Dn1
 BYTE   N06  Cs2
 BYTE   W12
 BYTE   Dn1
 BYTE   W12
 BYTE   PEND 
//  #10 //068   ----------------------------------------
 BYTE   PATT
  POIN2 Label_0104ABB7
//  #10 //069   ----------------------------------------
 BYTE   PATT
  POIN2 Label_0104AB5C
//  #10 //070   ----------------------------------------
 BYTE   PATT
  POIN2 Label_0104ABB7
//  #10 //071   ----------------------------------------
 BYTE   PATT
  POIN2 Label_0104AC92
//  #10 //072   ----------------------------------------
 BYTE   PATT
  POIN2 Label_0104ABB7
//  #10 //073   ----------------------------------------
 BYTE   PATT
  POIN2 Label_0104AB5C
//  #10 //074   ----------------------------------------
 BYTE   PATT
  POIN2 Label_0104AB5C
//  #10 //075   ----------------------------------------
 BYTE   PATT
  POIN2 Label_0104AD7C
//  #10 //076   ----------------------------------------
 BYTE   PATT
  POIN2 Label_0104ABB7
//  #10 //077   ----------------------------------------
 BYTE   PATT
  POIN2 Label_0104AB5C
//  #10 //078   ----------------------------------------
 BYTE   PATT
  POIN2 Label_0104ABB7
//  #10 //079   ----------------------------------------
 BYTE   PATT
  POIN2 Label_0104AC92
//  #10 //080   ----------------------------------------
 BYTE   PATT
  POIN2 Label_0104ABB7
//  #10 //081   ----------------------------------------
 BYTE   PATT
  POIN2 Label_0104AB5C
//  #10 //082   ----------------------------------------
 BYTE   PATT
  POIN2 Label_0104AB5C
//  #10 //083   ----------------------------------------
 BYTE   PATT
  POIN2 Label_0104AB76
//  #10 //084   ----------------------------------------
 BYTE   PATT
  POIN2 Label_0104ABB7
//  #10 //085   ----------------------------------------
 BYTE   PATT
  POIN2 Label_0104AB5C
//  #10 //086   ----------------------------------------
 BYTE   PATT
  POIN2 Label_0104ABB7
//  #10 //087   ----------------------------------------
Label_0104ADF4:
 BYTE   N06  Cn1  v104
 BYTE   N06  As1
 BYTE   N06  Cs2
 BYTE   W24
 BYTE   Dn1
 BYTE   N06  As1
 BYTE   W12
 BYTE   Cs2
 BYTE   W12
 BYTE   Cn1
 BYTE   N06  As1
 BYTE   W12
 BYTE   Cn1
 BYTE   W12
 BYTE   Dn1
 BYTE   N06  As1
 BYTE   N06  Cs2
 BYTE   W12
 BYTE   Dn1
 BYTE   W12
 BYTE   PEND 
//  #10 //088   ----------------------------------------
 BYTE   PATT
  POIN2 Label_0104ABB7
//  #10 //089   ----------------------------------------
 BYTE   PATT
  POIN2 Label_0104AB5C
//  #10 //090   ----------------------------------------
 BYTE   PATT
  POIN2 Label_0104AB5C
//  #10 //091   ----------------------------------------
 BYTE   PATT
  POIN2 Label_0104AB76
//  #10 //092   ----------------------------------------
 BYTE   PATT
  POIN2 Label_0104ABB7
//  #10 //093   ----------------------------------------
 BYTE   PATT
  POIN2 Label_0104AB5C
//  #10 //094   ----------------------------------------
 BYTE   PATT
  POIN2 Label_0104ABB7
//  #10 //095   ----------------------------------------
 BYTE   PATT
  POIN2 Label_0104ADF4
//  #10 //096   ----------------------------------------
 BYTE   PATT
  POIN2 Label_0104ACD3
//  #10 //097   ----------------------------------------
 BYTE   PATT
  POIN2 Label_0104ACE4
//  #10 //098   ----------------------------------------
 BYTE   PATT
  POIN2 Label_0104ACE4
//  #10 //099   ----------------------------------------
 BYTE   PATT
  POIN2 Label_0104ACE4
//  #10 //100   ----------------------------------------
 BYTE   PATT
  POIN2 Label_0104ABB7
//  #10 //101   ----------------------------------------
 BYTE   PATT
  POIN2 Label_0104ABA0
//  #10 //102   ----------------------------------------
 BYTE   PATT
  POIN2 Label_0104AB5C
//  #10 //103   ----------------------------------------
 BYTE   PATT
  POIN2 Label_0104AB76
//  #10 //104   ----------------------------------------
 BYTE   PATT
  POIN2 Label_0104ABB7
//  #10 //105   ----------------------------------------
 BYTE   PATT
  POIN2 Label_0104AB5C
//  #10 //106   ----------------------------------------
 BYTE   PATT
  POIN2 Label_0104AB5C
//  #10 //107   ----------------------------------------
 BYTE   PATT
  POIN2 Label_0104ABA0
//  #10 //108   ----------------------------------------
 BYTE   PATT
  POIN2 Label_0104AB5C
//  #10 //109   ----------------------------------------
 BYTE   PATT
  POIN2 Label_0104AB5C
//  #10 //110   ----------------------------------------
 BYTE   PATT
  POIN2 Label_0104ABB7
//  #10 //111   ----------------------------------------
 BYTE   N06  Dn1  v104
 BYTE   N06  Cs2
 BYTE   W12
 BYTE   Cn1
 BYTE   W12
 BYTE   N06
 BYTE   W12
 BYTE   Dn1
 BYTE   N06  Cs2
 BYTE   W12
 BYTE   Cn1
 BYTE   W12
 BYTE   N06
 BYTE   W12
 BYTE   Dn1
 BYTE   N06  Cs2
 BYTE   W12
 BYTE   Cn1
 BYTE   W12
//  #10 //112   ----------------------------------------
 BYTE   GoTo
  POIN2 Label_0104AB42
//  #10 //113   ----------------------------------------
 BYTE   W06
 BYTE   FINE

//**************** Track 11 (Midi-Chn.10) ****************//

MarioTennisBreakPointPsyche_011:
//  #11 //000   ----------------------------------------
 BYTE   KEYSH   MarioTennisBreakPointPsyche_key+0
Label_0104B912:
 BYTE   VOICE   50
 BYTE   VOL   50*MarioTennisBreakPointPsyche_mvl/mxv
 BYTE   N12  En0  v104
 BYTE   W12
 BYTE   N12
 BYTE   W12
 BYTE   En1
 BYTE   W12
 BYTE   En0
 BYTE   W12
 BYTE   Dn1
 BYTE   W12
 BYTE   En0
 BYTE   W12
 BYTE   En1
 BYTE   W12
 BYTE   En0
 BYTE   W12
//  #11 //001   ----------------------------------------
Label_0104B928:
 BYTE   N12  En1  v104
 BYTE   W12
 BYTE   En0
 BYTE   W12
 BYTE   N12
 BYTE   W12
 BYTE   En1
 BYTE   W12
 BYTE   En0
 BYTE   W12
 BYTE   N12
 BYTE   W12
 BYTE   Dn1
 BYTE   W12
 BYTE   En1
 BYTE   W12
 BYTE   PEND 
//  #11 //002   ----------------------------------------
Label_0104B93B:
 BYTE   N12  Cn1  v104
 BYTE   W12
 BYTE   Cn0
 BYTE   W12
 BYTE   N12
 BYTE   W12
 BYTE   Cn1
 BYTE   W12
 BYTE   Cn0
 BYTE   W12
 BYTE   N12
 BYTE   W12
 BYTE   Cn1
 BYTE   W12
 BYTE   Cn0
 BYTE   W12
 BYTE   PEND 
//  #11 //003   ----------------------------------------
Label_0104B94E:
 BYTE   N12  Dn0  v104
 BYTE   W12
 BYTE   N12
 BYTE   W12
 BYTE   Dn1
 BYTE   W12
 BYTE   Dn0
 BYTE   W12
 BYTE   Cn1
 BYTE   W12
 BYTE   Dn0
 BYTE   W12
 BYTE   Dn1
 BYTE   W12
 BYTE   Dn0
 BYTE   W12
 BYTE   PEND 
//  #11 //004   ----------------------------------------
Label_0104B961:
 BYTE   N12  En0  v104
 BYTE   W12
 BYTE   N12
 BYTE   W12
 BYTE   En1
 BYTE   W12
 BYTE   En0
 BYTE   W12
 BYTE   Dn1
 BYTE   W12
 BYTE   En0
 BYTE   W12
 BYTE   En1
 BYTE   W12
 BYTE   En0
 BYTE   W12
 BYTE   PEND 
//  #11 //005   ----------------------------------------
 BYTE   PATT
  POIN2 Label_0104B94E
//  #11 //006   ----------------------------------------
 BYTE   PATT
  POIN2 Label_0104B93B
//  #11 //007   ----------------------------------------
 BYTE   PATT
  POIN2 Label_0104B94E
//  #11 //008   ----------------------------------------
 BYTE   PATT
  POIN2 Label_0104B961
//  #11 //009   ----------------------------------------
 BYTE   PATT
  POIN2 Label_0104B928
//  #11 //010   ----------------------------------------
Label_0104B98D:
 BYTE   N12  Gn0  v104
 BYTE   W12
 BYTE   N12
 BYTE   W12
 BYTE   N12
 BYTE   W12
 BYTE   N12
 BYTE   W12
 BYTE   N12
 BYTE   W12
 BYTE   N12
 BYTE   W12
 BYTE   N12
 BYTE   W12
 BYTE   N12
 BYTE   W12
 BYTE   PEND 
//  #11 //011   ----------------------------------------
Label_0104B9A0:
 BYTE   N12  An0  v104
 BYTE   W12
 BYTE   N12
 BYTE   W12
 BYTE   N12
 BYTE   W12
 BYTE   N12
 BYTE   W12
 BYTE   N12
 BYTE   W12
 BYTE   N12
 BYTE   W12
 BYTE   N12
 BYTE   W12
 BYTE   N12
 BYTE   W12
 BYTE   PEND 
//  #11 //012   ----------------------------------------
 BYTE   PATT
  POIN2 Label_0104B93B
//  #11 //013   ----------------------------------------
 BYTE   PATT
  POIN2 Label_0104B94E
//  #11 //014   ----------------------------------------
 BYTE   PATT
  POIN2 Label_0104B961
//  #11 //015   ----------------------------------------
 BYTE   PATT
  POIN2 Label_0104B928
//  #11 //016   ----------------------------------------
 BYTE   PATT
  POIN2 Label_0104B961
//  #11 //017   ----------------------------------------
 BYTE   PATT
  POIN2 Label_0104B928
//  #11 //018   ----------------------------------------
 BYTE   PATT
  POIN2 Label_0104B93B
//  #11 //019   ----------------------------------------
 BYTE   PATT
  POIN2 Label_0104B94E
//  #11 //020   ----------------------------------------
 BYTE   PATT
  POIN2 Label_0104B961
//  #11 //021   ----------------------------------------
 BYTE   PATT
  POIN2 Label_0104B94E
//  #11 //022   ----------------------------------------
 BYTE   PATT
  POIN2 Label_0104B93B
//  #11 //023   ----------------------------------------
 BYTE   PATT
  POIN2 Label_0104B94E
//  #11 //024   ----------------------------------------
 BYTE   PATT
  POIN2 Label_0104B961
//  #11 //025   ----------------------------------------
 BYTE   PATT
  POIN2 Label_0104B928
//  #11 //026   ----------------------------------------
 BYTE   PATT
  POIN2 Label_0104B98D
//  #11 //027   ----------------------------------------
 BYTE   PATT
  POIN2 Label_0104B9A0
//  #11 //028   ----------------------------------------
 BYTE   PATT
  POIN2 Label_0104B93B
//  #11 //029   ----------------------------------------
 BYTE   PATT
  POIN2 Label_0104B94E
//  #11 //030   ----------------------------------------
 BYTE   PATT
  POIN2 Label_0104B961
//  #11 //031   ----------------------------------------
 BYTE   PATT
  POIN2 Label_0104B928
//  #11 //032   ----------------------------------------
 BYTE   PATT
  POIN2 Label_0104B961
//  #11 //033   ----------------------------------------
 BYTE   PATT
  POIN2 Label_0104B961
//  #11 //034   ----------------------------------------
 BYTE   PATT
  POIN2 Label_0104B961
//  #11 //035   ----------------------------------------
 BYTE   N12  En0  v104
 BYTE   W12
 BYTE   N12
 BYTE   W12
 BYTE   N12
 BYTE   W12
 BYTE   Dn0
 BYTE   W12
 BYTE   En0
 BYTE   W12
 BYTE   Dn0
 BYTE   W12
 BYTE   BnM1
 BYTE   W12
 BYTE   Dn0
 BYTE   W12
//  #11 //036   ----------------------------------------
 BYTE   PATT
  POIN2 Label_0104B961
//  #11 //037   ----------------------------------------
 BYTE   N12  En1  v104
 BYTE   W12
 BYTE   En0
 BYTE   W12
 BYTE   N12
 BYTE   W12
 BYTE   Dn1
 BYTE   W12
 BYTE   En0
 BYTE   W12
 BYTE   N12
 BYTE   W12
 BYTE   En1
 BYTE   W12
 BYTE   En0
 BYTE   W12
//  #11 //038   ----------------------------------------
 BYTE   Bn0
 BYTE   W12
 BYTE   N12
 BYTE   W12
 BYTE   N12
 BYTE   W12
 BYTE   Fs0
 BYTE   W12
 BYTE   Bn0
 BYTE   W12
 BYTE   N12
 BYTE   W12
 BYTE   N12
 BYTE   W12
 BYTE   Fs0
 BYTE   W12
//  #11 //039   ----------------------------------------
 BYTE   Bn0
 BYTE   W12
 BYTE   Fs0
 BYTE   W12
 BYTE   Bn0
 BYTE   W12
 BYTE   Ds1
 BYTE   W12
 BYTE   Fs1
 BYTE   W12
 BYTE   Ds1
 BYTE   W12
 BYTE   Bn0
 BYTE   W12
 BYTE   Fs0
 BYTE   W12
//  #11 //040   ----------------------------------------
Label_0104BA6F:
 BYTE   N12  Dn0  v104
 BYTE   W12
 BYTE   En0
 BYTE   W12
 BYTE   N12
 BYTE   W12
 BYTE   Dn0
 BYTE   W12
 BYTE   En0
 BYTE   W12
 BYTE   Dn0
 BYTE   W12
 BYTE   BnM1
 BYTE   W12
 BYTE   Dn0
 BYTE   W12
 BYTE   PEND 
//  #11 //041   ----------------------------------------
 BYTE   PATT
  POIN2 Label_0104BA6F
//  #11 //042   ----------------------------------------
 BYTE   PATT
  POIN2 Label_0104BA6F
//  #11 //043   ----------------------------------------
 BYTE   N12  Dn0  v104
 BYTE   W12
 BYTE   En0
 BYTE   W12
 BYTE   N12
 BYTE   W12
 BYTE   Dn0
 BYTE   W12
 BYTE   En0
 BYTE   W12
 BYTE   Bn0
 BYTE   W12
 BYTE   En1
 BYTE   W12
 BYTE   En0
 BYTE   W12
//  #11 //044   ----------------------------------------
 BYTE   PATT
  POIN2 Label_0104B93B
//  #11 //045   ----------------------------------------
 BYTE   PATT
  POIN2 Label_0104B94E
//  #11 //046   ----------------------------------------
 BYTE   N12  Ds1  v104
 BYTE   W12
 BYTE   Ds0
 BYTE   W12
 BYTE   N12
 BYTE   W12
 BYTE   Ds1
 BYTE   W12
 BYTE   Ds0
 BYTE   W12
 BYTE   N12
 BYTE   W12
 BYTE   Ds1
 BYTE   W12
 BYTE   Ds0
 BYTE   W12
//  #11 //047   ----------------------------------------
Label_0104BABA:
 BYTE   N12  Fn0  v104
 BYTE   W12
 BYTE   N12
 BYTE   W12
 BYTE   Fn1
 BYTE   W12
 BYTE   Fn0
 BYTE   W12
 BYTE   Ds1
 BYTE   W12
 BYTE   Fn0
 BYTE   W12
 BYTE   Fn1
 BYTE   W12
 BYTE   Fn0
 BYTE   W12
 BYTE   PEND 
//  #11 //048   ----------------------------------------
 BYTE   Gn0
 BYTE   W12
 BYTE   Gn0  v076
 BYTE   W12
 BYTE   Gn0  v104
 BYTE   W12
 BYTE   Gn0  v076
 BYTE   W12
 BYTE   Gn0  v104
 BYTE   W12
 BYTE   Gn0  v076
 BYTE   W12
 BYTE   Gn0  v104
 BYTE   W12
 BYTE   Gn0  v076
 BYTE   W12
//  #11 //049   ----------------------------------------
 BYTE   Fn0  v104
 BYTE   W12
 BYTE   Fn0  v076
 BYTE   W12
 BYTE   Fn0  v104
 BYTE   W12
 BYTE   Fn0  v076
 BYTE   W12
 BYTE   Fn0  v104
 BYTE   W12
 BYTE   Fn0  v076
 BYTE   W12
 BYTE   Fn0  v104
 BYTE   W12
 BYTE   Fn0  v076
 BYTE   W12
//  #11 //050   ----------------------------------------
Label_0104BAFC:
 BYTE   N12  Ds0  v104
 BYTE   W12
 BYTE   Ds0  v076
 BYTE   W12
 BYTE   Ds0  v104
 BYTE   W12
 BYTE   Ds0  v076
 BYTE   W12
 BYTE   Ds0  v104
 BYTE   W12
 BYTE   Ds0  v076
 BYTE   W12
 BYTE   Ds0  v104
 BYTE   W12
 BYTE   Ds0  v076
 BYTE   W12
 BYTE   PEND 
//  #11 //051   ----------------------------------------
 BYTE   PATT
  POIN2 Label_0104BAFC
//  #11 //052   ----------------------------------------
Label_0104BB1B:
 BYTE   N12  An0  v104
 BYTE   W12
 BYTE   N12
 BYTE   W12
 BYTE   N12
 BYTE   W12
 BYTE   Gn0
 BYTE   W12
 BYTE   An0
 BYTE   W12
 BYTE   Gn0
 BYTE   W12
 BYTE   An0
 BYTE   W12
 BYTE   N12
 BYTE   W12
 BYTE   PEND 
//  #11 //053   ----------------------------------------
Label_0104BB2E:
 BYTE   N12  An0  v104
 BYTE   W12
 BYTE   Gn0
 BYTE   W12
 BYTE   An0
 BYTE   W12
 BYTE   Gn0
 BYTE   W12
 BYTE   An0
 BYTE   W12
 BYTE   N12
 BYTE   W12
 BYTE   Gn0
 BYTE   W12
 BYTE   An0
 BYTE   W12
 BYTE   PEND 
//  #11 //054   ----------------------------------------
Label_0104BB41:
 BYTE   N12  An0  v104
 BYTE   W12
 BYTE   N12
 BYTE   W12
 BYTE   N12
 BYTE   W12
 BYTE   Gn0
 BYTE   W12
 BYTE   An0
 BYTE   W12
 BYTE   Gn0
 BYTE   W12
 BYTE   An0
 BYTE   W12
 BYTE   Gn0
 BYTE   W12
 BYTE   PEND 
//  #11 //055   ----------------------------------------
 BYTE   PATT
  POIN2 Label_0104BB1B
//  #11 //056   ----------------------------------------
Label_0104BB59:
 BYTE   N12  Gn0  v104
 BYTE   W12
 BYTE   N12
 BYTE   W12
 BYTE   N12
 BYTE   W12
 BYTE   Dn0
 BYTE   W12
 BYTE   Gn0
 BYTE   W12
 BYTE   Dn0
 BYTE   W12
 BYTE   Gn0
 BYTE   W12
 BYTE   N12
 BYTE   W12
 BYTE   PEND 
//  #11 //057   ----------------------------------------
 BYTE   PATT
  POIN2 Label_0104BABA
//  #11 //058   ----------------------------------------
Label_0104BB71:
 BYTE   N12  Ds0  v104
 BYTE   W12
 BYTE   N12
 BYTE   W12
 BYTE   Ds1
 BYTE   W12
 BYTE   Ds0
 BYTE   W12
 BYTE   Dn1
 BYTE   W12
 BYTE   Ds0
 BYTE   W12
 BYTE   Ds1
 BYTE   W12
 BYTE   Ds0
 BYTE   W12
 BYTE   PEND 
//  #11 //059   ----------------------------------------
Label_0104BB84:
 BYTE   N12  Ds1  v104
 BYTE   W12
 BYTE   Ds0
 BYTE   W12
 BYTE   N12
 BYTE   W12
 BYTE   Ds1
 BYTE   W12
 BYTE   Ds0
 BYTE   W12
 BYTE   N12
 BYTE   W12
 BYTE   Dn1
 BYTE   W12
 BYTE   Ds1
 BYTE   W12
 BYTE   PEND 
//  #11 //060   ----------------------------------------
Label_0104BB97:
 BYTE   N12  An0  v104
 BYTE   W12
 BYTE   An0  v076
 BYTE   W12
 BYTE   An0  v104
 BYTE   W12
 BYTE   An0  v076
 BYTE   W12
 BYTE   An0  v104
 BYTE   W12
 BYTE   An0  v076
 BYTE   W12
 BYTE   An0  v104
 BYTE   W12
 BYTE   An0  v076
 BYTE   W12
 BYTE   PEND 
//  #11 //061   ----------------------------------------
 BYTE   PATT
  POIN2 Label_0104BB97
//  #11 //062   ----------------------------------------
 BYTE   PATT
  POIN2 Label_0104BB97
//  #11 //063   ----------------------------------------
 BYTE   PATT
  POIN2 Label_0104BB97
//  #11 //064   ----------------------------------------
 BYTE   PATT
  POIN2 Label_0104B94E
//  #11 //065   ----------------------------------------
Label_0104BBC5:
 BYTE   N12  Dn1  v104
 BYTE   W12
 BYTE   Dn0
 BYTE   W12
 BYTE   N12
 BYTE   W12
 BYTE   Dn1
 BYTE   W12
 BYTE   Dn0
 BYTE   W12
 BYTE   N12
 BYTE   W12
 BYTE   Cn1
 BYTE   W12
 BYTE   Dn1
 BYTE   W12
 BYTE   PEND 
//  #11 //066   ----------------------------------------
 BYTE   PATT
  POIN2 Label_0104B94E
//  #11 //067   ----------------------------------------
 BYTE   PATT
  POIN2 Label_0104BBC5
//  #11 //068   ----------------------------------------
Label_0104BBE2:
 BYTE   N12  Dn0  v104
 BYTE   W12
 BYTE   N12
 BYTE   W12
 BYTE   Dn1
 BYTE   W12
 BYTE   Dn0
 BYTE   W12
 BYTE   Cn1
 BYTE   W12
 BYTE   N12
 BYTE   W12
 BYTE   Dn1
 BYTE   W12
 BYTE   Dn0
 BYTE   W12
 BYTE   PEND 
//  #11 //069   ----------------------------------------
Label_0104BBF5:
 BYTE   N12  Dn0  v104
 BYTE   W12
 BYTE   N12
 BYTE   W12
 BYTE   N12
 BYTE   W12
 BYTE   Cn0
 BYTE   W12
 BYTE   Dn0
 BYTE   W12
 BYTE   N12
 BYTE   W12
 BYTE   An0
 BYTE   W12
 BYTE   Dn0
 BYTE   W12
 BYTE   PEND 
//  #11 //070   ----------------------------------------
Label_0104BC08:
 BYTE   N12  An0  v104
 BYTE   W12
 BYTE   Gn0
 BYTE   W12
 BYTE   An0
 BYTE   W12
 BYTE   N12
 BYTE   W12
 BYTE   Gn0
 BYTE   W12
 BYTE   An0
 BYTE   W12
 BYTE   N12
 BYTE   W12
 BYTE   Gn0
 BYTE   W12
 BYTE   PEND 
//  #11 //071   ----------------------------------------
Label_0104BC1B:
 BYTE   N12  An0  v104
 BYTE   W12
 BYTE   N12
 BYTE   W12
 BYTE   N12
 BYTE   W12
 BYTE   Gn0
 BYTE   W12
 BYTE   An0
 BYTE   W12
 BYTE   N12
 BYTE   W12
 BYTE   Gn0
 BYTE   W12
 BYTE   An0
 BYTE   W12
 BYTE   PEND 
//  #11 //072   ----------------------------------------
 BYTE   PATT
  POIN2 Label_0104B94E
//  #11 //073   ----------------------------------------
 BYTE   PATT
  POIN2 Label_0104BBC5
//  #11 //074   ----------------------------------------
 BYTE   PATT
  POIN2 Label_0104B94E
//  #11 //075   ----------------------------------------
 BYTE   PATT
  POIN2 Label_0104BBC5
//  #11 //076   ----------------------------------------
 BYTE   PATT
  POIN2 Label_0104BBE2
//  #11 //077   ----------------------------------------
 BYTE   PATT
  POIN2 Label_0104BBF5
//  #11 //078   ----------------------------------------
 BYTE   PATT
  POIN2 Label_0104BC08
//  #11 //079   ----------------------------------------
 BYTE   PATT
  POIN2 Label_0104BC1B
//  #11 //080   ----------------------------------------
 BYTE   PATT
  POIN2 Label_0104BB97
//  #11 //081   ----------------------------------------
 BYTE   PATT
  POIN2 Label_0104BB97
//  #11 //082   ----------------------------------------
 BYTE   PATT
  POIN2 Label_0104BB97
//  #11 //083   ----------------------------------------
 BYTE   PATT
  POIN2 Label_0104BB97
//  #11 //084   ----------------------------------------
 BYTE   PATT
  POIN2 Label_0104BB97
//  #11 //085   ----------------------------------------
 BYTE   PATT
  POIN2 Label_0104BB97
//  #11 //086   ----------------------------------------
 BYTE   PATT
  POIN2 Label_0104BB97
//  #11 //087   ----------------------------------------
 BYTE   PATT
  POIN2 Label_0104BB97
//  #11 //088   ----------------------------------------
 BYTE   PATT
  POIN2 Label_0104BB1B
//  #11 //089   ----------------------------------------
 BYTE   PATT
  POIN2 Label_0104BB2E
//  #11 //090   ----------------------------------------
 BYTE   PATT
  POIN2 Label_0104BB41
//  #11 //091   ----------------------------------------
 BYTE   PATT
  POIN2 Label_0104BB1B
//  #11 //092   ----------------------------------------
 BYTE   PATT
  POIN2 Label_0104BB1B
//  #11 //093   ----------------------------------------
 BYTE   PATT
  POIN2 Label_0104BB2E
//  #11 //094   ----------------------------------------
 BYTE   PATT
  POIN2 Label_0104BB41
//  #11 //095   ----------------------------------------
 BYTE   PATT
  POIN2 Label_0104BB1B
//  #11 //096   ----------------------------------------
 BYTE   PATT
  POIN2 Label_0104BB59
//  #11 //097   ----------------------------------------
 BYTE   PATT
  POIN2 Label_0104BABA
//  #11 //098   ----------------------------------------
 BYTE   PATT
  POIN2 Label_0104BB71
//  #11 //099   ----------------------------------------
 BYTE   PATT
  POIN2 Label_0104BB84
//  #11 //100   ----------------------------------------
 BYTE   PATT
  POIN2 Label_0104B94E
//  #11 //101   ----------------------------------------
 BYTE   PATT
  POIN2 Label_0104BBC5
//  #11 //102   ----------------------------------------
 BYTE   PATT
  POIN2 Label_0104BB59
//  #11 //103   ----------------------------------------
 BYTE   PATT
  POIN2 Label_0104BB59
//  #11 //104   ----------------------------------------
 BYTE   PATT
  POIN2 Label_0104BB59
//  #11 //105   ----------------------------------------
 BYTE   PATT
  POIN2 Label_0104BABA
//  #11 //106   ----------------------------------------
 BYTE   PATT
  POIN2 Label_0104BB71
//  #11 //107   ----------------------------------------
 BYTE   PATT
  POIN2 Label_0104BB84
//  #11 //108   ----------------------------------------
 BYTE   PATT
  POIN2 Label_0104B94E
//  #11 //109   ----------------------------------------
 BYTE   PATT
  POIN2 Label_0104BBC5
//  #11 //110   ----------------------------------------
 BYTE   PATT
  POIN2 Label_0104BB59
//  #11 //111   ----------------------------------------
 BYTE   PATT
  POIN2 Label_0104BB59
//  #11 //112   ----------------------------------------
 BYTE   GoTo
  POIN2 Label_0104B912
//  #11 //113   ----------------------------------------
 BYTE   W06
 BYTE   FINE

//**************** Track 12 (Midi-Chn.11) ****************//

MarioTennisBreakPointPsyche_012:
//  #12 //000   ----------------------------------------
 BYTE   KEYSH   MarioTennisBreakPointPsyche_key+0
Label_0104BDD2:
 BYTE   VOICE   30
 BYTE   VOL   60*MarioTennisBreakPointPsyche_mvl/mxv
 BYTE   PAN   c_v-13
 BYTE   N12  En1  v104
 BYTE   W12
 BYTE   N12
 BYTE   W12
 BYTE   En2
 BYTE   W12
 BYTE   En1
 BYTE   W12
 BYTE   Dn2
 BYTE   W12
 BYTE   En1
 BYTE   W12
 BYTE   En2
 BYTE   W12
 BYTE   En1
 BYTE   W12
//  #12 //001   ----------------------------------------
Label_0104BDEA:
 BYTE   N12  En2  v104
 BYTE   W12
 BYTE   En1
 BYTE   W12
 BYTE   N12
 BYTE   W12
 BYTE   En2
 BYTE   W12
 BYTE   En1
 BYTE   W12
 BYTE   N12
 BYTE   W12
 BYTE   Dn2
 BYTE   W12
 BYTE   En2
 BYTE   W12
 BYTE   PEND 
//  #12 //002   ----------------------------------------
Label_0104BDFD:
 BYTE   N12  Cn2  v104
 BYTE   W12
 BYTE   Cn1
 BYTE   W12
 BYTE   N12
 BYTE   W12
 BYTE   Cn2
 BYTE   W12
 BYTE   Cn1
 BYTE   W12
 BYTE   N12
 BYTE   W12
 BYTE   Cn2
 BYTE   W12
 BYTE   Cn1
 BYTE   W12
 BYTE   PEND 
//  #12 //003   ----------------------------------------
Label_0104BE10:
 BYTE   N12  Dn1  v104
 BYTE   W12
 BYTE   N12
 BYTE   W12
 BYTE   Dn2
 BYTE   W12
 BYTE   Dn1
 BYTE   W12
 BYTE   Cn2
 BYTE   W12
 BYTE   Dn1
 BYTE   W12
 BYTE   Dn2
 BYTE   W12
 BYTE   Dn1
 BYTE   W12
 BYTE   PEND 
//  #12 //004   ----------------------------------------
Label_0104BE23:
 BYTE   N12  En1  v104
 BYTE   W12
 BYTE   N12
 BYTE   W12
 BYTE   En2
 BYTE   W12
 BYTE   En1
 BYTE   W12
 BYTE   Dn2
 BYTE   W12
 BYTE   En1
 BYTE   W12
 BYTE   En2
 BYTE   W12
 BYTE   En1
 BYTE   W12
 BYTE   PEND 
//  #12 //005   ----------------------------------------
 BYTE   PATT
  POIN2 Label_0104BE10
//  #12 //006   ----------------------------------------
 BYTE   PATT
  POIN2 Label_0104BDFD
//  #12 //007   ----------------------------------------
 BYTE   PATT
  POIN2 Label_0104BE10
//  #12 //008   ----------------------------------------
 BYTE   PATT
  POIN2 Label_0104BE23
//  #12 //009   ----------------------------------------
 BYTE   PATT
  POIN2 Label_0104BDEA
//  #12 //010   ----------------------------------------
Label_0104BE4F:
 BYTE   N12  Gn1  v104
 BYTE   W12
 BYTE   N12
 BYTE   W12
 BYTE   N12
 BYTE   W12
 BYTE   N12
 BYTE   W12
 BYTE   N12
 BYTE   W12
 BYTE   N12
 BYTE   W12
 BYTE   N12
 BYTE   W12
 BYTE   N12
 BYTE   W12
 BYTE   PEND 
//  #12 //011   ----------------------------------------
Label_0104BE62:
 BYTE   N12  An1  v104
 BYTE   W12
 BYTE   N12
 BYTE   W12
 BYTE   N12
 BYTE   W12
 BYTE   N12
 BYTE   W12
 BYTE   N12
 BYTE   W12
 BYTE   N12
 BYTE   W12
 BYTE   N12
 BYTE   W12
 BYTE   N12
 BYTE   W12
 BYTE   PEND 
//  #12 //012   ----------------------------------------
 BYTE   PATT
  POIN2 Label_0104BDFD
//  #12 //013   ----------------------------------------
 BYTE   PATT
  POIN2 Label_0104BE10
//  #12 //014   ----------------------------------------
 BYTE   PATT
  POIN2 Label_0104BE23
//  #12 //015   ----------------------------------------
 BYTE   PATT
  POIN2 Label_0104BDEA
//  #12 //016   ----------------------------------------
 BYTE   PATT
  POIN2 Label_0104BE23
//  #12 //017   ----------------------------------------
 BYTE   PATT
  POIN2 Label_0104BDEA
//  #12 //018   ----------------------------------------
 BYTE   PATT
  POIN2 Label_0104BDFD
//  #12 //019   ----------------------------------------
 BYTE   PATT
  POIN2 Label_0104BE10
//  #12 //020   ----------------------------------------
 BYTE   PATT
  POIN2 Label_0104BE23
//  #12 //021   ----------------------------------------
 BYTE   PATT
  POIN2 Label_0104BE10
//  #12 //022   ----------------------------------------
 BYTE   PATT
  POIN2 Label_0104BDFD
//  #12 //023   ----------------------------------------
 BYTE   PATT
  POIN2 Label_0104BE10
//  #12 //024   ----------------------------------------
 BYTE   PATT
  POIN2 Label_0104BE23
//  #12 //025   ----------------------------------------
 BYTE   PATT
  POIN2 Label_0104BDEA
//  #12 //026   ----------------------------------------
 BYTE   PATT
  POIN2 Label_0104BE4F
//  #12 //027   ----------------------------------------
 BYTE   PATT
  POIN2 Label_0104BE62
//  #12 //028   ----------------------------------------
 BYTE   PATT
  POIN2 Label_0104BDFD
//  #12 //029   ----------------------------------------
 BYTE   PATT
  POIN2 Label_0104BE10
//  #12 //030   ----------------------------------------
 BYTE   PATT
  POIN2 Label_0104BE23
//  #12 //031   ----------------------------------------
 BYTE   PATT
  POIN2 Label_0104BDEA
//  #12 //032   ----------------------------------------
 BYTE   PATT
  POIN2 Label_0104BE23
//  #12 //033   ----------------------------------------
 BYTE   PATT
  POIN2 Label_0104BE23
//  #12 //034   ----------------------------------------
 BYTE   PATT
  POIN2 Label_0104BE23
//  #12 //035   ----------------------------------------
 BYTE   N12  En1  v104
 BYTE   W12
 BYTE   N12
 BYTE   W12
 BYTE   N12
 BYTE   W12
 BYTE   Dn1
 BYTE   W12
 BYTE   En1
 BYTE   W12
 BYTE   Dn1
 BYTE   W12
 BYTE   Bn0
 BYTE   W12
 BYTE   Dn1
 BYTE   W12
//  #12 //036   ----------------------------------------
 BYTE   PATT
  POIN2 Label_0104BE23
//  #12 //037   ----------------------------------------
 BYTE   N12  En2  v104
 BYTE   W12
 BYTE   En1
 BYTE   W12
 BYTE   N12
 BYTE   W12
 BYTE   Dn2
 BYTE   W12
 BYTE   En1
 BYTE   W12
 BYTE   N12
 BYTE   W12
 BYTE   En2
 BYTE   W12
 BYTE   En1
 BYTE   W12
//  #12 //038   ----------------------------------------
 BYTE   Bn1
 BYTE   W12
 BYTE   N12
 BYTE   W12
 BYTE   N12
 BYTE   W12
 BYTE   Fs1
 BYTE   W12
 BYTE   Bn1
 BYTE   W12
 BYTE   N12
 BYTE   W12
 BYTE   N12
 BYTE   W12
 BYTE   Fs1
 BYTE   W12
//  #12 //039   ----------------------------------------
 BYTE   Bn1
 BYTE   W12
 BYTE   Fs1
 BYTE   W12
 BYTE   Bn1
 BYTE   W12
 BYTE   Ds2
 BYTE   W12
 BYTE   Fs2
 BYTE   W12
 BYTE   Ds2
 BYTE   W12
 BYTE   Bn1
 BYTE   W12
 BYTE   Fs1
 BYTE   W12
//  #12 //040   ----------------------------------------
Label_0104BF31:
 BYTE   N12  Dn1  v104
 BYTE   W12
 BYTE   En1
 BYTE   W12
 BYTE   N12
 BYTE   W12
 BYTE   Dn1
 BYTE   W12
 BYTE   En1
 BYTE   W12
 BYTE   Dn1
 BYTE   W12
 BYTE   Bn0
 BYTE   W12
 BYTE   Dn1
 BYTE   W12
 BYTE   PEND 
//  #12 //041   ----------------------------------------
 BYTE   PATT
  POIN2 Label_0104BF31
//  #12 //042   ----------------------------------------
 BYTE   PATT
  POIN2 Label_0104BF31
//  #12 //043   ----------------------------------------
 BYTE   N12  Dn1  v104
 BYTE   W12
 BYTE   En1
 BYTE   W12
 BYTE   N12
 BYTE   W12
 BYTE   Dn1
 BYTE   W12
 BYTE   En1
 BYTE   W12
 BYTE   Bn1
 BYTE   W12
 BYTE   En2
 BYTE   W12
 BYTE   En1
 BYTE   W12
//  #12 //044   ----------------------------------------
 BYTE   PATT
  POIN2 Label_0104BDFD
//  #12 //045   ----------------------------------------
 BYTE   PATT
  POIN2 Label_0104BE10
//  #12 //046   ----------------------------------------
 BYTE   N12  Ds2  v104
 BYTE   W12
 BYTE   Ds1
 BYTE   W12
 BYTE   N12
 BYTE   W12
 BYTE   Ds2
 BYTE   W12
 BYTE   Ds1
 BYTE   W12
 BYTE   N12
 BYTE   W12
 BYTE   Ds2
 BYTE   W12
 BYTE   Ds1
 BYTE   W12
//  #12 //047   ----------------------------------------
Label_0104BF7C:
 BYTE   N12  Fn1  v104
 BYTE   W12
 BYTE   N12
 BYTE   W12
 BYTE   Fn2
 BYTE   W12
 BYTE   Fn1
 BYTE   W12
 BYTE   Ds2
 BYTE   W12
 BYTE   Fn1
 BYTE   W12
 BYTE   Fn2
 BYTE   W12
 BYTE   Fn1
 BYTE   W12
 BYTE   PEND 
//  #12 //048   ----------------------------------------
 BYTE   Gn1
 BYTE   W12
 BYTE   Gn1  v076
 BYTE   W12
 BYTE   Gn1  v104
 BYTE   W12
 BYTE   Gn1  v076
 BYTE   W12
 BYTE   Gn1  v104
 BYTE   W12
 BYTE   Gn1  v076
 BYTE   W12
 BYTE   Gn1  v104
 BYTE   W12
 BYTE   Gn1  v076
 BYTE   W12
//  #12 //049   ----------------------------------------
 BYTE   Fn1  v104
 BYTE   W12
 BYTE   Fn1  v076
 BYTE   W12
 BYTE   Fn1  v104
 BYTE   W12
 BYTE   Fn1  v076
 BYTE   W12
 BYTE   Fn1  v104
 BYTE   W12
 BYTE   Fn1  v076
 BYTE   W12
 BYTE   Fn1  v104
 BYTE   W12
 BYTE   Fn1  v076
 BYTE   W12
//  #12 //050   ----------------------------------------
Label_0104BFBE:
 BYTE   N12  Ds1  v104
 BYTE   W12
 BYTE   Ds1  v076
 BYTE   W12
 BYTE   Ds1  v104
 BYTE   W12
 BYTE   Ds1  v076
 BYTE   W12
 BYTE   Ds1  v104
 BYTE   W12
 BYTE   Ds1  v076
 BYTE   W12
 BYTE   Ds1  v104
 BYTE   W12
 BYTE   Ds1  v076
 BYTE   W12
 BYTE   PEND 
//  #12 //051   ----------------------------------------
 BYTE   PATT
  POIN2 Label_0104BFBE
//  #12 //052   ----------------------------------------
Label_0104BFDD:
 BYTE   N12  An1  v104
 BYTE   W12
 BYTE   N12
 BYTE   W12
 BYTE   N12
 BYTE   W12
 BYTE   Gn1
 BYTE   W12
 BYTE   An1
 BYTE   W12
 BYTE   Gn1
 BYTE   W12
 BYTE   An1
 BYTE   W12
 BYTE   N12
 BYTE   W12
 BYTE   PEND 
//  #12 //053   ----------------------------------------
Label_0104BFF0:
 BYTE   N12  An1  v104
 BYTE   W12
 BYTE   Gn1
 BYTE   W12
 BYTE   An1
 BYTE   W12
 BYTE   Gn1
 BYTE   W12
 BYTE   An1
 BYTE   W12
 BYTE   N12
 BYTE   W12
 BYTE   Gn1
 BYTE   W12
 BYTE   An1
 BYTE   W12
 BYTE   PEND 
//  #12 //054   ----------------------------------------
Label_0104C003:
 BYTE   N12  An1  v104
 BYTE   W12
 BYTE   N12
 BYTE   W12
 BYTE   N12
 BYTE   W12
 BYTE   Gn1
 BYTE   W12
 BYTE   An1
 BYTE   W12
 BYTE   Gn1
 BYTE   W12
 BYTE   An1
 BYTE   W12
 BYTE   Gn1
 BYTE   W12
 BYTE   PEND 
//  #12 //055   ----------------------------------------
 BYTE   PATT
  POIN2 Label_0104BFDD
//  #12 //056   ----------------------------------------
Label_0104C01B:
 BYTE   N12  Gn1  v104
 BYTE   W12
 BYTE   N12
 BYTE   W12
 BYTE   N12
 BYTE   W12
 BYTE   Dn1
 BYTE   W12
 BYTE   Gn1
 BYTE   W12
 BYTE   Dn1
 BYTE   W12
 BYTE   Gn1
 BYTE   W12
 BYTE   N12
 BYTE   W12
 BYTE   PEND 
//  #12 //057   ----------------------------------------
 BYTE   PATT
  POIN2 Label_0104BF7C
//  #12 //058   ----------------------------------------
Label_0104C033:
 BYTE   N12  Ds1  v104
 BYTE   W12
 BYTE   N12
 BYTE   W12
 BYTE   Ds2
 BYTE   W12
 BYTE   Ds1
 BYTE   W12
 BYTE   Dn2
 BYTE   W12
 BYTE   Ds1
 BYTE   W12
 BYTE   Ds2
 BYTE   W12
 BYTE   Ds1
 BYTE   W12
 BYTE   PEND 
//  #12 //059   ----------------------------------------
Label_0104C046:
 BYTE   N12  Ds2  v104
 BYTE   W12
 BYTE   Ds1
 BYTE   W12
 BYTE   N12
 BYTE   W12
 BYTE   Ds2
 BYTE   W12
 BYTE   Ds1
 BYTE   W12
 BYTE   N12
 BYTE   W12
 BYTE   Dn2
 BYTE   W12
 BYTE   Ds2
 BYTE   W12
 BYTE   PEND 
//  #12 //060   ----------------------------------------
Label_0104C059:
 BYTE   N12  An1  v104
 BYTE   W12
 BYTE   An1  v076
 BYTE   W12
 BYTE   An1  v104
 BYTE   W12
 BYTE   An1  v076
 BYTE   W12
 BYTE   An1  v104
 BYTE   W12
 BYTE   An1  v076
 BYTE   W12
 BYTE   An1  v104
 BYTE   W12
 BYTE   An1  v076
 BYTE   W12
 BYTE   PEND 
//  #12 //061   ----------------------------------------
 BYTE   PATT
  POIN2 Label_0104C059
//  #12 //062   ----------------------------------------
 BYTE   PATT
  POIN2 Label_0104C059
//  #12 //063   ----------------------------------------
 BYTE   PATT
  POIN2 Label_0104C059
//  #12 //064   ----------------------------------------
 BYTE   PATT
  POIN2 Label_0104BE10
//  #12 //065   ----------------------------------------
Label_0104C087:
 BYTE   N12  Dn2  v104
 BYTE   W12
 BYTE   Dn1
 BYTE   W12
 BYTE   N12
 BYTE   W12
 BYTE   Dn2
 BYTE   W12
 BYTE   Dn1
 BYTE   W12
 BYTE   N12
 BYTE   W12
 BYTE   Cn2
 BYTE   W12
 BYTE   Dn2
 BYTE   W12
 BYTE   PEND 
//  #12 //066   ----------------------------------------
 BYTE   PATT
  POIN2 Label_0104BE10
//  #12 //067   ----------------------------------------
 BYTE   PATT
  POIN2 Label_0104C087
//  #12 //068   ----------------------------------------
Label_0104C0A4:
 BYTE   N12  Dn1  v104
 BYTE   W12
 BYTE   N12
 BYTE   W12
 BYTE   Dn2
 BYTE   W12
 BYTE   Dn1
 BYTE   W12
 BYTE   Cn2
 BYTE   W12
 BYTE   N12
 BYTE   W12
 BYTE   Dn2
 BYTE   W12
 BYTE   Dn1
 BYTE   W12
 BYTE   PEND 
//  #12 //069   ----------------------------------------
Label_0104C0B7:
 BYTE   N12  Dn1  v104
 BYTE   W12
 BYTE   N12
 BYTE   W12
 BYTE   N12
 BYTE   W12
 BYTE   Cn1
 BYTE   W12
 BYTE   Dn1
 BYTE   W12
 BYTE   N12
 BYTE   W12
 BYTE   An1
 BYTE   W12
 BYTE   Dn1
 BYTE   W12
 BYTE   PEND 
//  #12 //070   ----------------------------------------
Label_0104C0CA:
 BYTE   N12  An1  v104
 BYTE   W12
 BYTE   Gn1
 BYTE   W12
 BYTE   An1
 BYTE   W12
 BYTE   N12
 BYTE   W12
 BYTE   Gn1
 BYTE   W12
 BYTE   An1
 BYTE   W12
 BYTE   N12
 BYTE   W12
 BYTE   Gn1
 BYTE   W12
 BYTE   PEND 
//  #12 //071   ----------------------------------------
Label_0104C0DD:
 BYTE   N12  An1  v104
 BYTE   W12
 BYTE   N12
 BYTE   W12
 BYTE   N12
 BYTE   W12
 BYTE   Gn1
 BYTE   W12
 BYTE   An1
 BYTE   W12
 BYTE   N12
 BYTE   W12
 BYTE   Gn1
 BYTE   W12
 BYTE   An1
 BYTE   W12
 BYTE   PEND 
//  #12 //072   ----------------------------------------
 BYTE   PATT
  POIN2 Label_0104BE10
//  #12 //073   ----------------------------------------
 BYTE   PATT
  POIN2 Label_0104C087
//  #12 //074   ----------------------------------------
 BYTE   PATT
  POIN2 Label_0104BE10
//  #12 //075   ----------------------------------------
 BYTE   PATT
  POIN2 Label_0104C087
//  #12 //076   ----------------------------------------
 BYTE   PATT
  POIN2 Label_0104C0A4
//  #12 //077   ----------------------------------------
 BYTE   PATT
  POIN2 Label_0104C0B7
//  #12 //078   ----------------------------------------
 BYTE   PATT
  POIN2 Label_0104C0CA
//  #12 //079   ----------------------------------------
 BYTE   PATT
  POIN2 Label_0104C0DD
//  #12 //080   ----------------------------------------
 BYTE   PATT
  POIN2 Label_0104C059
//  #12 //081   ----------------------------------------
 BYTE   PATT
  POIN2 Label_0104C059
//  #12 //082   ----------------------------------------
 BYTE   PATT
  POIN2 Label_0104C059
//  #12 //083   ----------------------------------------
 BYTE   PATT
  POIN2 Label_0104C059
//  #12 //084   ----------------------------------------
 BYTE   PATT
  POIN2 Label_0104C059
//  #12 //085   ----------------------------------------
 BYTE   PATT
  POIN2 Label_0104C059
//  #12 //086   ----------------------------------------
 BYTE   PATT
  POIN2 Label_0104C059
//  #12 //087   ----------------------------------------
 BYTE   PATT
  POIN2 Label_0104C059
//  #12 //088   ----------------------------------------
 BYTE   PATT
  POIN2 Label_0104BFDD
//  #12 //089   ----------------------------------------
 BYTE   PATT
  POIN2 Label_0104BFF0
//  #12 //090   ----------------------------------------
 BYTE   PATT
  POIN2 Label_0104C003
//  #12 //091   ----------------------------------------
 BYTE   PATT
  POIN2 Label_0104BFDD
//  #12 //092   ----------------------------------------
 BYTE   PATT
  POIN2 Label_0104BFDD
//  #12 //093   ----------------------------------------
 BYTE   PATT
  POIN2 Label_0104BFF0
//  #12 //094   ----------------------------------------
 BYTE   PATT
  POIN2 Label_0104C003
//  #12 //095   ----------------------------------------
 BYTE   PATT
  POIN2 Label_0104BFDD
//  #12 //096   ----------------------------------------
 BYTE   PATT
  POIN2 Label_0104C01B
//  #12 //097   ----------------------------------------
 BYTE   PATT
  POIN2 Label_0104BF7C
//  #12 //098   ----------------------------------------
 BYTE   PATT
  POIN2 Label_0104C033
//  #12 //099   ----------------------------------------
 BYTE   PATT
  POIN2 Label_0104C046
//  #12 //100   ----------------------------------------
 BYTE   PATT
  POIN2 Label_0104BE10
//  #12 //101   ----------------------------------------
 BYTE   PATT
  POIN2 Label_0104C087
//  #12 //102   ----------------------------------------
 BYTE   PATT
  POIN2 Label_0104C01B
//  #12 //103   ----------------------------------------
 BYTE   PATT
  POIN2 Label_0104C01B
//  #12 //104   ----------------------------------------
 BYTE   PATT
  POIN2 Label_0104C01B
//  #12 //105   ----------------------------------------
 BYTE   PATT
  POIN2 Label_0104BF7C
//  #12 //106   ----------------------------------------
 BYTE   PATT
  POIN2 Label_0104C033
//  #12 //107   ----------------------------------------
 BYTE   PATT
  POIN2 Label_0104C046
//  #12 //108   ----------------------------------------
 BYTE   PATT
  POIN2 Label_0104BE10
//  #12 //109   ----------------------------------------
 BYTE   PATT
  POIN2 Label_0104C087
//  #12 //110   ----------------------------------------
 BYTE   PATT
  POIN2 Label_0104C01B
//  #12 //111   ----------------------------------------
 BYTE   PATT
  POIN2 Label_0104C01B
//  #12 //112   ----------------------------------------
 BYTE   GoTo
  POIN2 Label_0104BDD2
//  #12 //113   ----------------------------------------
 BYTE   W06
 BYTE   FINE

//**************** Track 13 (Midi-Chn.12) ****************//

MarioTennisBreakPointPsyche_013:
//  #13 //000   ----------------------------------------
 BYTE   KEYSH   MarioTennisBreakPointPsyche_key+0
Label_01049E9A:
 BYTE   VOICE   30
 BYTE   VOL   40*MarioTennisBreakPointPsyche_mvl/mxv
 BYTE   PAN   c_v+12
 BYTE   W18
 BYTE   N12  En1  v104
 BYTE   W12
 BYTE   N12
 BYTE   W12
 BYTE   En2
 BYTE   W12
 BYTE   En1
 BYTE   W12
 BYTE   Dn2
 BYTE   W12
 BYTE   En1
 BYTE   W12
 BYTE   En2
 BYTE   W06
//  #13 //001   ----------------------------------------
Label_01049EB1:
 BYTE   W06
 BYTE   N12  En1  v104
 BYTE   W12
 BYTE   En2
 BYTE   W12
 BYTE   En1
 BYTE   W12
 BYTE   N12
 BYTE   W12
 BYTE   En2
 BYTE   W12
 BYTE   En1
 BYTE   W12
 BYTE   N12
 BYTE   W12
 BYTE   Dn2
 BYTE   W06
 BYTE   PEND 
//  #13 //002   ----------------------------------------
Label_01049EC5:
 BYTE   W06
 BYTE   N12  En2  v104
 BYTE   W12
 BYTE   Cn2
 BYTE   W12
 BYTE   Cn1
 BYTE   W12
 BYTE   N12
 BYTE   W12
 BYTE   Cn2
 BYTE   W12
 BYTE   Cn1
 BYTE   W12
 BYTE   N12
 BYTE   W12
 BYTE   Cn2
 BYTE   W06
 BYTE   PEND 
//  #13 //003   ----------------------------------------
Label_01049ED9:
 BYTE   W06
 BYTE   N12  Cn1  v104
 BYTE   W12
 BYTE   Dn1
 BYTE   W12
 BYTE   N12
 BYTE   W12
 BYTE   Dn2
 BYTE   W12
 BYTE   Dn1
 BYTE   W12
 BYTE   Cn2
 BYTE   W12
 BYTE   Dn1
 BYTE   W12
 BYTE   Dn2
 BYTE   W06
 BYTE   PEND 
//  #13 //004   ----------------------------------------
Label_01049EED:
 BYTE   W06
 BYTE   N12  Dn1  v104
 BYTE   W12
 BYTE   En1
 BYTE   W12
 BYTE   N12
 BYTE   W12
 BYTE   En2
 BYTE   W12
 BYTE   En1
 BYTE   W12
 BYTE   Dn2
 BYTE   W12
 BYTE   En1
 BYTE   W12
 BYTE   En2
 BYTE   W06
 BYTE   PEND 
//  #13 //005   ----------------------------------------
Label_01049F01:
 BYTE   W06
 BYTE   N12  En1  v104
 BYTE   W12
 BYTE   Dn1
 BYTE   W12
 BYTE   N12
 BYTE   W12
 BYTE   Dn2
 BYTE   W12
 BYTE   Dn1
 BYTE   W12
 BYTE   Cn2
 BYTE   W12
 BYTE   Dn1
 BYTE   W12
 BYTE   Dn2
 BYTE   W06
 BYTE   PEND 
//  #13 //006   ----------------------------------------
Label_01049F15:
 BYTE   W06
 BYTE   N12  Dn1  v104
 BYTE   W12
 BYTE   Cn2
 BYTE   W12
 BYTE   Cn1
 BYTE   W12
 BYTE   N12
 BYTE   W12
 BYTE   Cn2
 BYTE   W12
 BYTE   Cn1
 BYTE   W12
 BYTE   N12
 BYTE   W12
 BYTE   Cn2
 BYTE   W06
 BYTE   PEND 
//  #13 //007   ----------------------------------------
 BYTE   PATT
  POIN2 Label_01049ED9
//  #13 //008   ----------------------------------------
 BYTE   PATT
  POIN2 Label_01049EED
//  #13 //009   ----------------------------------------
 BYTE   PATT
  POIN2 Label_01049EB1
//  #13 //010   ----------------------------------------
Label_01049F38:
 BYTE   W06
 BYTE   N12  En2  v104
 BYTE   W12
 BYTE   Gn1
 BYTE   W12
 BYTE   N12
 BYTE   W12
 BYTE   N12
 BYTE   W12
 BYTE   N12
 BYTE   W12
 BYTE   N12
 BYTE   W12
 BYTE   N12
 BYTE   W12
 BYTE   N12
 BYTE   W06
 BYTE   PEND 
//  #13 //011   ----------------------------------------
Label_01049F4C:
 BYTE   W06
 BYTE   N12  Gn1  v104
 BYTE   W12
 BYTE   An1
 BYTE   W12
 BYTE   N12
 BYTE   W12
 BYTE   N12
 BYTE   W12
 BYTE   N12
 BYTE   W12
 BYTE   N12
 BYTE   W12
 BYTE   N12
 BYTE   W12
 BYTE   N12
 BYTE   W06
 BYTE   PEND 
//  #13 //012   ----------------------------------------
Label_01049F60:
 BYTE   W06
 BYTE   N12  An1  v104
 BYTE   W12
 BYTE   Cn2
 BYTE   W12
 BYTE   Cn1
 BYTE   W12
 BYTE   N12
 BYTE   W12
 BYTE   Cn2
 BYTE   W12
 BYTE   Cn1
 BYTE   W12
 BYTE   N12
 BYTE   W12
 BYTE   Cn2
 BYTE   W06
 BYTE   PEND 
//  #13 //013   ----------------------------------------
 BYTE   PATT
  POIN2 Label_01049ED9
//  #13 //014   ----------------------------------------
 BYTE   PATT
  POIN2 Label_01049EED
//  #13 //015   ----------------------------------------
 BYTE   PATT
  POIN2 Label_01049EB1
//  #13 //016   ----------------------------------------
Label_01049F83:
 BYTE   W06
 BYTE   N12  En2  v104
 BYTE   W12
 BYTE   En1
 BYTE   W12
 BYTE   N12
 BYTE   W12
 BYTE   En2
 BYTE   W12
 BYTE   En1
 BYTE   W12
 BYTE   Dn2
 BYTE   W12
 BYTE   En1
 BYTE   W12
 BYTE   En2
 BYTE   W06
 BYTE   PEND 
//  #13 //017   ----------------------------------------
 BYTE   PATT
  POIN2 Label_01049EB1
//  #13 //018   ----------------------------------------
 BYTE   PATT
  POIN2 Label_01049EC5
//  #13 //019   ----------------------------------------
 BYTE   PATT
  POIN2 Label_01049ED9
//  #13 //020   ----------------------------------------
 BYTE   PATT
  POIN2 Label_01049EED
//  #13 //021   ----------------------------------------
 BYTE   PATT
  POIN2 Label_01049F01
//  #13 //022   ----------------------------------------
 BYTE   PATT
  POIN2 Label_01049F15
//  #13 //023   ----------------------------------------
 BYTE   PATT
  POIN2 Label_01049ED9
//  #13 //024   ----------------------------------------
 BYTE   PATT
  POIN2 Label_01049EED
//  #13 //025   ----------------------------------------
 BYTE   PATT
  POIN2 Label_01049EB1
//  #13 //026   ----------------------------------------
 BYTE   PATT
  POIN2 Label_01049F38
//  #13 //027   ----------------------------------------
 BYTE   PATT
  POIN2 Label_01049F4C
//  #13 //028   ----------------------------------------
 BYTE   PATT
  POIN2 Label_01049F60
//  #13 //029   ----------------------------------------
 BYTE   PATT
  POIN2 Label_01049ED9
//  #13 //030   ----------------------------------------
 BYTE   PATT
  POIN2 Label_01049EED
//  #13 //031   ----------------------------------------
 BYTE   PATT
  POIN2 Label_01049EB1
//  #13 //032   ----------------------------------------
 BYTE   PATT
  POIN2 Label_01049F83
//  #13 //033   ----------------------------------------
Label_01049FE7:
 BYTE   W06
 BYTE   N12  En1  v104
 BYTE   W12
 BYTE   N12
 BYTE   W12
 BYTE   N12
 BYTE   W12
 BYTE   En2
 BYTE   W12
 BYTE   En1
 BYTE   W12
 BYTE   Dn2
 BYTE   W12
 BYTE   En1
 BYTE   W12
 BYTE   En2
 BYTE   W06
 BYTE   PEND 
//  #13 //034   ----------------------------------------
 BYTE   PATT
  POIN2 Label_01049FE7
//  #13 //035   ----------------------------------------
 BYTE   W06
 BYTE   N12  En1  v104
 BYTE   W12
 BYTE   N12
 BYTE   W12
 BYTE   N12
 BYTE   W12
 BYTE   N12
 BYTE   W12
 BYTE   Dn1
 BYTE   W12
 BYTE   En1
 BYTE   W12
 BYTE   Dn1
 BYTE   W12
 BYTE   Bn0
 BYTE   W06
//  #13 //036   ----------------------------------------
 BYTE   PATT
  POIN2 Label_01049EED
//  #13 //037   ----------------------------------------
 BYTE   W06
 BYTE   N12  En1  v104
 BYTE   W12
 BYTE   En2
 BYTE   W12
 BYTE   En1
 BYTE   W12
 BYTE   N12
 BYTE   W12
 BYTE   Dn2
 BYTE   W12
 BYTE   En1
 BYTE   W12
 BYTE   N12
 BYTE   W12
 BYTE   En2
 BYTE   W06
//  #13 //038   ----------------------------------------
 BYTE   W06
 BYTE   En1
 BYTE   W12
 BYTE   Bn1
 BYTE   W12
 BYTE   N12
 BYTE   W12
 BYTE   N12
 BYTE   W12
 BYTE   Fs1
 BYTE   W12
 BYTE   Bn1
 BYTE   W12
 BYTE   N12
 BYTE   W12
 BYTE   N12
 BYTE   W06
//  #13 //039   ----------------------------------------
 BYTE   W06
 BYTE   Fs1
 BYTE   W12
 BYTE   Bn1
 BYTE   W12
 BYTE   Fs1
 BYTE   W12
 BYTE   Bn1
 BYTE   W12
 BYTE   Ds2
 BYTE   W12
 BYTE   Fs2
 BYTE   W12
 BYTE   Ds2
 BYTE   W12
 BYTE   Bn1
 BYTE   W06
//  #13 //040   ----------------------------------------
 BYTE   W06
 BYTE   Fs1
 BYTE   W12
 BYTE   Dn1
 BYTE   W12
 BYTE   En1
 BYTE   W12
 BYTE   N12
 BYTE   W12
 BYTE   Dn1
 BYTE   W12
 BYTE   En1
 BYTE   W12
 BYTE   Dn1
 BYTE   W12
 BYTE   Bn0
 BYTE   W06
//  #13 //041   ----------------------------------------
Label_0104A05E:
 BYTE   W06
 BYTE   N12  Dn1  v104
 BYTE   W12
 BYTE   N12
 BYTE   W12
 BYTE   En1
 BYTE   W12
 BYTE   N12
 BYTE   W12
 BYTE   Dn1
 BYTE   W12
 BYTE   En1
 BYTE   W12
 BYTE   Dn1
 BYTE   W12
 BYTE   Bn0
 BYTE   W06
 BYTE   PEND 
//  #13 //042   ----------------------------------------
 BYTE   PATT
  POIN2 Label_0104A05E
//  #13 //043   ----------------------------------------
 BYTE   W06
 BYTE   N12  Dn1  v104
 BYTE   W12
 BYTE   N12
 BYTE   W12
 BYTE   En1
 BYTE   W12
 BYTE   N12
 BYTE   W12
 BYTE   Dn1
 BYTE   W12
 BYTE   En1
 BYTE   W12
 BYTE   Bn1
 BYTE   W12
 BYTE   En2
 BYTE   W06
//  #13 //044   ----------------------------------------
 BYTE   W06
 BYTE   En1
 BYTE   W12
 BYTE   Cn2
 BYTE   W12
 BYTE   Cn1
 BYTE   W12
 BYTE   N12
 BYTE   W12
 BYTE   Cn2
 BYTE   W12
 BYTE   Cn1
 BYTE   W12
 BYTE   N12
 BYTE   W12
 BYTE   Cn2
 BYTE   W06
//  #13 //045   ----------------------------------------
 BYTE   PATT
  POIN2 Label_01049ED9
//  #13 //046   ----------------------------------------
 BYTE   W06
 BYTE   N12  Dn1  v104
 BYTE   W12
 BYTE   Ds2
 BYTE   W12
 BYTE   Ds1
 BYTE   W12
 BYTE   N12
 BYTE   W12
 BYTE   Ds2
 BYTE   W12
 BYTE   Ds1
 BYTE   W12
 BYTE   N12
 BYTE   W12
 BYTE   Ds2
 BYTE   W06
//  #13 //047   ----------------------------------------
 BYTE   W06
 BYTE   Ds1
 BYTE   W12
 BYTE   Fn1
 BYTE   W12
 BYTE   N12
 BYTE   W12
 BYTE   Fn2
 BYTE   W12
 BYTE   Fn1
 BYTE   W12
 BYTE   Ds2
 BYTE   W12
 BYTE   Fn1
 BYTE   W12
 BYTE   Fn2
 BYTE   W06
//  #13 //048   ----------------------------------------
 BYTE   W06
 BYTE   Fn1
 BYTE   W12
 BYTE   Gn1
 BYTE   W12
 BYTE   Gn1  v076
 BYTE   W12
 BYTE   Gn1  v104
 BYTE   W12
 BYTE   Gn1  v076
 BYTE   W12
 BYTE   Gn1  v104
 BYTE   W12
 BYTE   Gn1  v076
 BYTE   W12
 BYTE   Gn1  v104
 BYTE   W06
//  #13 //049   ----------------------------------------
 BYTE   W06
 BYTE   Gn1  v076
 BYTE   W12
 BYTE   Fn1  v104
 BYTE   W12
 BYTE   Fn1  v076
 BYTE   W12
 BYTE   Fn1  v104
 BYTE   W12
 BYTE   Fn1  v076
 BYTE   W12
 BYTE   Fn1  v104
 BYTE   W12
 BYTE   Fn1  v076
 BYTE   W12
 BYTE   Fn1  v104
 BYTE   W06
//  #13 //050   ----------------------------------------
 BYTE   W06
 BYTE   Fn1  v076
 BYTE   W12
 BYTE   Ds1  v104
 BYTE   W12
 BYTE   Ds1  v076
 BYTE   W12
 BYTE   Ds1  v104
 BYTE   W12
 BYTE   Ds1  v076
 BYTE   W12
 BYTE   Ds1  v104
 BYTE   W12
 BYTE   Ds1  v076
 BYTE   W12
 BYTE   Ds1  v104
 BYTE   W06
//  #13 //051   ----------------------------------------
 BYTE   W06
 BYTE   Ds1  v076
 BYTE   W12
 BYTE   Ds1  v104
 BYTE   W12
 BYTE   Ds1  v076
 BYTE   W12
 BYTE   Ds1  v104
 BYTE   W12
 BYTE   Ds1  v076
 BYTE   W12
 BYTE   Ds1  v104
 BYTE   W12
 BYTE   Ds1  v076
 BYTE   W12
 BYTE   Ds1  v104
 BYTE   W06
//  #13 //052   ----------------------------------------
 BYTE   W06
 BYTE   Ds1  v076
 BYTE   W12
 BYTE   An1  v104
 BYTE   W12
 BYTE   N12
 BYTE   W12
 BYTE   N12
 BYTE   W12
 BYTE   Gn1
 BYTE   W12
 BYTE   An1
 BYTE   W12
 BYTE   Gn1
 BYTE   W12
 BYTE   An1
 BYTE   W06
//  #13 //053   ----------------------------------------
Label_0104A139:
 BYTE   W06
 BYTE   N12  An1  v104
 BYTE   W12
 BYTE   N12
 BYTE   W12
 BYTE   Gn1
 BYTE   W12
 BYTE   An1
 BYTE   W12
 BYTE   Gn1
 BYTE   W12
 BYTE   An1
 BYTE   W12
 BYTE   N12
 BYTE   W12
 BYTE   Gn1
 BYTE   W06
 BYTE   PEND 
//  #13 //054   ----------------------------------------
Label_0104A14D:
 BYTE   W06
 BYTE   N12  An1  v104
 BYTE   W12
 BYTE   N12
 BYTE   W12
 BYTE   N12
 BYTE   W12
 BYTE   N12
 BYTE   W12
 BYTE   Gn1
 BYTE   W12
 BYTE   An1
 BYTE   W12
 BYTE   Gn1
 BYTE   W12
 BYTE   An1
 BYTE   W06
 BYTE   PEND 
//  #13 //055   ----------------------------------------
Label_0104A161:
 BYTE   W06
 BYTE   N12  Gn1  v104
 BYTE   W12
 BYTE   An1
 BYTE   W12
 BYTE   N12
 BYTE   W12
 BYTE   N12
 BYTE   W12
 BYTE   Gn1
 BYTE   W12
 BYTE   An1
 BYTE   W12
 BYTE   Gn1
 BYTE   W12
 BYTE   An1
 BYTE   W06
 BYTE   PEND 
//  #13 //056   ----------------------------------------
Label_0104A175:
 BYTE   W06
 BYTE   N12  An1  v104
 BYTE   W12
 BYTE   Gn1
 BYTE   W12
 BYTE   N12
 BYTE   W12
 BYTE   N12
 BYTE   W12
 BYTE   Dn1
 BYTE   W12
 BYTE   Gn1
 BYTE   W12
 BYTE   Dn1
 BYTE   W12
 BYTE   Gn1
 BYTE   W06
 BYTE   PEND 
//  #13 //057   ----------------------------------------
Label_0104A189:
 BYTE   W06
 BYTE   N12  Gn1  v104
 BYTE   W12
 BYTE   Fn1
 BYTE   W12
 BYTE   N12
 BYTE   W12
 BYTE   Fn2
 BYTE   W12
 BYTE   Fn1
 BYTE   W12
 BYTE   Ds2
 BYTE   W12
 BYTE   Fn1
 BYTE   W12
 BYTE   Fn2
 BYTE   W06
 BYTE   PEND 
//  #13 //058   ----------------------------------------
Label_0104A19D:
 BYTE   W06
 BYTE   N12  Fn1  v104
 BYTE   W12
 BYTE   Ds1
 BYTE   W12
 BYTE   N12
 BYTE   W12
 BYTE   Ds2
 BYTE   W12
 BYTE   Ds1
 BYTE   W12
 BYTE   Dn2
 BYTE   W12
 BYTE   Ds1
 BYTE   W12
 BYTE   Ds2
 BYTE   W06
 BYTE   PEND 
//  #13 //059   ----------------------------------------
Label_0104A1B1:
 BYTE   W06
 BYTE   N12  Ds1  v104
 BYTE   W12
 BYTE   Ds2
 BYTE   W12
 BYTE   Ds1
 BYTE   W12
 BYTE   N12
 BYTE   W12
 BYTE   Ds2
 BYTE   W12
 BYTE   Ds1
 BYTE   W12
 BYTE   N12
 BYTE   W12
 BYTE   Dn2
 BYTE   W06
 BYTE   PEND 
//  #13 //060   ----------------------------------------
 BYTE   W06
 BYTE   Ds2
 BYTE   W12
 BYTE   An1
 BYTE   W12
 BYTE   An1  v076
 BYTE   W12
 BYTE   An1  v104
 BYTE   W12
 BYTE   An1  v076
 BYTE   W12
 BYTE   An1  v104
 BYTE   W12
 BYTE   An1  v076
 BYTE   W12
 BYTE   An1  v104
 BYTE   W06
//  #13 //061   ----------------------------------------
Label_0104A1DC:
 BYTE   W06
 BYTE   N12  An1  v076
 BYTE   W12
 BYTE   An1  v104
 BYTE   W12
 BYTE   An1  v076
 BYTE   W12
 BYTE   An1  v104
 BYTE   W12
 BYTE   An1  v076
 BYTE   W12
 BYTE   An1  v104
 BYTE   W12
 BYTE   An1  v076
 BYTE   W12
 BYTE   An1  v104
 BYTE   W06
 BYTE   PEND 
//  #13 //062   ----------------------------------------
 BYTE   PATT
  POIN2 Label_0104A1DC
//  #13 //063   ----------------------------------------
 BYTE   PATT
  POIN2 Label_0104A1DC
//  #13 //064   ----------------------------------------
 BYTE   W06
 BYTE   N12  An1  v076
 BYTE   W12
 BYTE   Dn1  v104
 BYTE   W12
 BYTE   N12
 BYTE   W12
 BYTE   Dn2
 BYTE   W12
 BYTE   Dn1
 BYTE   W12
 BYTE   Cn2
 BYTE   W12
 BYTE   Dn1
 BYTE   W12
 BYTE   Dn2
 BYTE   W06
//  #13 //065   ----------------------------------------
Label_0104A215:
 BYTE   W06
 BYTE   N12  Dn1  v104
 BYTE   W12
 BYTE   Dn2
 BYTE   W12
 BYTE   Dn1
 BYTE   W12
 BYTE   N12
 BYTE   W12
 BYTE   Dn2
 BYTE   W12
 BYTE   Dn1
 BYTE   W12
 BYTE   N12
 BYTE   W12
 BYTE   Cn2
 BYTE   W06
 BYTE   PEND 
//  #13 //066   ----------------------------------------
Label_0104A229:
 BYTE   W06
 BYTE   N12  Dn2  v104
 BYTE   W12
 BYTE   Dn1
 BYTE   W12
 BYTE   N12
 BYTE   W12
 BYTE   Dn2
 BYTE   W12
 BYTE   Dn1
 BYTE   W12
 BYTE   Cn2
 BYTE   W12
 BYTE   Dn1
 BYTE   W12
 BYTE   Dn2
 BYTE   W06
 BYTE   PEND 
//  #13 //067   ----------------------------------------
 BYTE   PATT
  POIN2 Label_0104A215
//  #13 //068   ----------------------------------------
Label_0104A242:
 BYTE   W06
 BYTE   N12  Dn2  v104
 BYTE   W12
 BYTE   Dn1
 BYTE   W12
 BYTE   N12
 BYTE   W12
 BYTE   Dn2
 BYTE   W12
 BYTE   Dn1
 BYTE   W12
 BYTE   Cn2
 BYTE   W12
 BYTE   N12
 BYTE   W12
 BYTE   Dn2
 BYTE   W06
 BYTE   PEND 
//  #13 //069   ----------------------------------------
Label_0104A256:
 BYTE   W06
 BYTE   N12  Dn1  v104
 BYTE   W12
 BYTE   N12
 BYTE   W12
 BYTE   N12
 BYTE   W12
 BYTE   N12
 BYTE   W12
 BYTE   Cn1
 BYTE   W12
 BYTE   Dn1
 BYTE   W12
 BYTE   N12
 BYTE   W12
 BYTE   An1
 BYTE   W06
 BYTE   PEND 
//  #13 //070   ----------------------------------------
Label_0104A26A:
 BYTE   W06
 BYTE   N12  Dn1  v104
 BYTE   W12
 BYTE   An1
 BYTE   W12
 BYTE   Gn1
 BYTE   W12
 BYTE   An1
 BYTE   W12
 BYTE   N12
 BYTE   W12
 BYTE   Gn1
 BYTE   W12
 BYTE   An1
 BYTE   W12
 BYTE   N12
 BYTE   W06
 BYTE   PEND 
//  #13 //071   ----------------------------------------
Label_0104A27E:
 BYTE   W06
 BYTE   N12  Gn1  v104
 BYTE   W12
 BYTE   An1
 BYTE   W12
 BYTE   N12
 BYTE   W12
 BYTE   N12
 BYTE   W12
 BYTE   Gn1
 BYTE   W12
 BYTE   An1
 BYTE   W12
 BYTE   N12
 BYTE   W12
 BYTE   Gn1
 BYTE   W06
 BYTE   PEND 
//  #13 //072   ----------------------------------------
 BYTE   W06
 BYTE   An1
 BYTE   W12
 BYTE   Dn1
 BYTE   W12
 BYTE   N12
 BYTE   W12
 BYTE   Dn2
 BYTE   W12
 BYTE   Dn1
 BYTE   W12
 BYTE   Cn2
 BYTE   W12
 BYTE   Dn1
 BYTE   W12
 BYTE   Dn2
 BYTE   W06
//  #13 //073   ----------------------------------------
 BYTE   PATT
  POIN2 Label_0104A215
//  #13 //074   ----------------------------------------
 BYTE   PATT
  POIN2 Label_0104A229
//  #13 //075   ----------------------------------------
 BYTE   PATT
  POIN2 Label_0104A215
//  #13 //076   ----------------------------------------
 BYTE   PATT
  POIN2 Label_0104A242
//  #13 //077   ----------------------------------------
 BYTE   PATT
  POIN2 Label_0104A256
//  #13 //078   ----------------------------------------
 BYTE   PATT
  POIN2 Label_0104A26A
//  #13 //079   ----------------------------------------
 BYTE   PATT
  POIN2 Label_0104A27E
//  #13 //080   ----------------------------------------
 BYTE   W06
 BYTE   N12  An1  v104
 BYTE   W12
 BYTE   N12
 BYTE   W12
 BYTE   An1  v076
 BYTE   W12
 BYTE   An1  v104
 BYTE   W12
 BYTE   An1  v076
 BYTE   W12
 BYTE   An1  v104
 BYTE   W12
 BYTE   An1  v076
 BYTE   W12
 BYTE   An1  v104
 BYTE   W06
//  #13 //081   ----------------------------------------
 BYTE   PATT
  POIN2 Label_0104A1DC
//  #13 //082   ----------------------------------------
 BYTE   PATT
  POIN2 Label_0104A1DC
//  #13 //083   ----------------------------------------
 BYTE   PATT
  POIN2 Label_0104A1DC
//  #13 //084   ----------------------------------------
 BYTE   PATT
  POIN2 Label_0104A1DC
//  #13 //085   ----------------------------------------
 BYTE   PATT
  POIN2 Label_0104A1DC
//  #13 //086   ----------------------------------------
 BYTE   PATT
  POIN2 Label_0104A1DC
//  #13 //087   ----------------------------------------
 BYTE   PATT
  POIN2 Label_0104A1DC
//  #13 //088   ----------------------------------------
 BYTE   W06
 BYTE   N12  An1  v076
 BYTE   W12
 BYTE   An1  v104
 BYTE   W12
 BYTE   N12
 BYTE   W12
 BYTE   N12
 BYTE   W12
 BYTE   Gn1
 BYTE   W12
 BYTE   An1
 BYTE   W12
 BYTE   Gn1
 BYTE   W12
 BYTE   An1
 BYTE   W06
//  #13 //089   ----------------------------------------
 BYTE   PATT
  POIN2 Label_0104A139
//  #13 //090   ----------------------------------------
 BYTE   PATT
  POIN2 Label_0104A14D
//  #13 //091   ----------------------------------------
 BYTE   PATT
  POIN2 Label_0104A161
//  #13 //092   ----------------------------------------
 BYTE   PATT
  POIN2 Label_0104A14D
//  #13 //093   ----------------------------------------
 BYTE   PATT
  POIN2 Label_0104A139
//  #13 //094   ----------------------------------------
 BYTE   PATT
  POIN2 Label_0104A14D
//  #13 //095   ----------------------------------------
 BYTE   PATT
  POIN2 Label_0104A161
//  #13 //096   ----------------------------------------
 BYTE   PATT
  POIN2 Label_0104A175
//  #13 //097   ----------------------------------------
 BYTE   PATT
  POIN2 Label_0104A189
//  #13 //098   ----------------------------------------
 BYTE   PATT
  POIN2 Label_0104A19D
//  #13 //099   ----------------------------------------
 BYTE   PATT
  POIN2 Label_0104A1B1
//  #13 //100   ----------------------------------------
Label_0104A34D:
 BYTE   W06
 BYTE   N12  Ds2  v104
 BYTE   W12
 BYTE   Dn1
 BYTE   W12
 BYTE   N12
 BYTE   W12
 BYTE   Dn2
 BYTE   W12
 BYTE   Dn1
 BYTE   W12
 BYTE   Cn2
 BYTE   W12
 BYTE   Dn1
 BYTE   W12
 BYTE   Dn2
 BYTE   W06
 BYTE   PEND 
//  #13 //101   ----------------------------------------
 BYTE   PATT
  POIN2 Label_0104A215
//  #13 //102   ----------------------------------------
Label_0104A366:
 BYTE   W06
 BYTE   N12  Dn2  v104
 BYTE   W12
 BYTE   Gn1
 BYTE   W12
 BYTE   N12
 BYTE   W12
 BYTE   N12
 BYTE   W12
 BYTE   Dn1
 BYTE   W12
 BYTE   Gn1
 BYTE   W12
 BYTE   Dn1
 BYTE   W12
 BYTE   Gn1
 BYTE   W06
 BYTE   PEND 
//  #13 //103   ----------------------------------------
Label_0104A37A:
 BYTE   W06
 BYTE   N12  Gn1  v104
 BYTE   W12
 BYTE   N12
 BYTE   W12
 BYTE   N12
 BYTE   W12
 BYTE   N12
 BYTE   W12
 BYTE   Dn1
 BYTE   W12
 BYTE   Gn1
 BYTE   W12
 BYTE   Dn1
 BYTE   W12
 BYTE   Gn1
 BYTE   W06
 BYTE   PEND 
//  #13 //104   ----------------------------------------
 BYTE   PATT
  POIN2 Label_0104A37A
//  #13 //105   ----------------------------------------
 BYTE   PATT
  POIN2 Label_0104A189
//  #13 //106   ----------------------------------------
 BYTE   PATT
  POIN2 Label_0104A19D
//  #13 //107   ----------------------------------------
 BYTE   PATT
  POIN2 Label_0104A1B1
//  #13 //108   ----------------------------------------
 BYTE   PATT
  POIN2 Label_0104A34D
//  #13 //109   ----------------------------------------
 BYTE   PATT
  POIN2 Label_0104A215
//  #13 //110   ----------------------------------------
 BYTE   PATT
  POIN2 Label_0104A366
//  #13 //111   ----------------------------------------
 BYTE   PATT
  POIN2 Label_0104A37A
//  #13 //112   ----------------------------------------
 BYTE   GoTo
  POIN2 Label_01049E9A
//  #13 //113   ----------------------------------------
 BYTE   W06
 BYTE   FINE

//******************************************************//
	ALIGN 4

MarioTennisBreakPointPsyche:
	BYTE	13	// NumTrks
	BYTE	0	// NumBlks
	BYTE	MarioTennisBreakPointPsyche_pri	// Priority
	BYTE	MarioTennisBreakPointPsyche_rev	// Reverb.
    
	POIN2	MarioTennisBreakPointPsyche_grp
    
	POIN2	MarioTennisBreakPointPsyche_001
	POIN2	MarioTennisBreakPointPsyche_002
	POIN2	MarioTennisBreakPointPsyche_003
	POIN2	MarioTennisBreakPointPsyche_004
	POIN2	MarioTennisBreakPointPsyche_005
	POIN2	MarioTennisBreakPointPsyche_006
	POIN2	MarioTennisBreakPointPsyche_007
	POIN2	MarioTennisBreakPointPsyche_008
	POIN2	MarioTennisBreakPointPsyche_009
	POIN2	MarioTennisBreakPointPsyche_010
	POIN2	MarioTennisBreakPointPsyche_011
	POIN2	MarioTennisBreakPointPsyche_012
	POIN2	MarioTennisBreakPointPsyche_013

	
