//Event file generated from Sappy .s format.
	#include "MPlayDef.event"

	#define	MLBowsersInsideStoryToughGuyAlertMeteorSR23_grp  voicegroup000
	#define	MLBowsersInsideStoryToughGuyAlertMeteorSR23_pri  0
	#define	MLBowsersInsideStoryToughGuyAlertMeteorSR23_rev  0
	#define	MLBowsersInsideStoryToughGuyAlertMeteorSR23_mvl  127
	#define	MLBowsersInsideStoryToughGuyAlertMeteorSR23_key  0
	#define	MLBowsersInsideStoryToughGuyAlertMeteorSR23_tbs  1
	#define	MLBowsersInsideStoryToughGuyAlertMeteorSR23_exg  0
	#define	MLBowsersInsideStoryToughGuyAlertMeteorSR23_cmp  1

	// .rodata
	//	MLBowsersInsideStoryToughGuyAlertMeteorSR23
	ALIGN 4


//**************** Track 1 (Midi-Chn.0) ****************//

MLBowsersInsideStoryToughGuyAlertMeteorSR23_001:
//  #01 //000   ----------------------------------------
 BYTE   KEYSH   MLBowsersInsideStoryToughGuyAlertMeteorSR23_key+0
 BYTE   TEMPO   184*MLBowsersInsideStoryToughGuyAlertMeteorSR23_tbs/2
 BYTE   VOICE   60
 BYTE   BEND   c_v-1
 BYTE   VOL   87*MLBowsersInsideStoryToughGuyAlertMeteorSR23_mvl/mxv
 BYTE   W96
//  #01 //001   ----------------------------------------
 BYTE   W96
//  #01 //002   ----------------------------------------
 BYTE   W96
//  #01 //003   ----------------------------------------
 BYTE   W96
//  #01 //004   ----------------------------------------
Label_010036F6:
 BYTE   W12
 BYTE   N11  Cn3  v057
 BYTE   N11  Fn3  v077
 BYTE   W12
 BYTE   N05  En3  v047
 BYTE   N05  Gn3  v067
 BYTE   W12
 BYTE   N08  Fn3  v057
 BYTE   N08  An3  v077
 BYTE   W12
 BYTE   N11  Gn3  v057
 BYTE   N11  Bn3  v077
 BYTE   W12
 BYTE   N08  An3  v047
 BYTE   N08  Cn4  v067
 BYTE   W12
 BYTE   Gn3  v042
 BYTE   N08  Bn3  v062
 BYTE   W12
 BYTE   Fn3  v037
 BYTE   N08  An3  v057
 BYTE   W12
 BYTE   PEND 
//  #01 //005   ----------------------------------------
Label_01003727:
 BYTE   N23  Bn3  v052
 BYTE   N23  Dn4  v072
 BYTE   W24
 BYTE   N11  An3  v042
 BYTE   N11  Cn4  v062
 BYTE   W12
 BYTE   N23  Gn3  v047
 BYTE   N23  Bn3  v067
 BYTE   W24
 BYTE   N11  An3  v047
 BYTE   N11  Cn4  v067
 BYTE   W12
 BYTE   N17  Fn3  v047
 BYTE   N17  An3  v067
 BYTE   W24
//  #01 //006   ----------------------------------------
 BYTE   N05  Fn3  v057
 BYTE   N05  An3  v077
 BYTE   W06
 BYTE   Gn3  v047
 BYTE   N05  Bn3  v067
 BYTE   W06
 BYTE   An3  v047
 BYTE   N05  Cn4  v067
 BYTE   W06
 BYTE   Bn3  v047
 BYTE   N05  Dn4  v067
 BYTE   W06
 BYTE   An3  v047
 BYTE   N05  Cn4  v067
 BYTE   W12
 BYTE   Fn3  v057
 BYTE   N05  An3  v077
 BYTE   W06
 BYTE   Gn3  v047
 BYTE   N05  Bn3  v067
 BYTE   W06
 BYTE   An3  v047
 BYTE   N05  Cn4  v067
 BYTE   W06
 BYTE   Bn3  v047
 BYTE   N05  Dn4  v067
 BYTE   W06
 BYTE   An3  v047
 BYTE   N05  Cn4  v067
 BYTE   W24
 BYTE   Fn3  v057
 BYTE   N05  An3  v077
 BYTE   W06
 BYTE   Gn3  v047
 BYTE   N05  Bn3  v067
 BYTE   W06
//  #01 //007   ----------------------------------------
 BYTE   An3  v047
 BYTE   N05  Cn4  v067
 BYTE   W06
 BYTE   Bn3  v047
 BYTE   N05  Dn4  v067
 BYTE   W06
 BYTE   An3  v047
 BYTE   N05  Cn4  v067
 BYTE   W84
//  #01 //008   ----------------------------------------
 BYTE   W96
//  #01 //009   ----------------------------------------
 BYTE   W96
//  #01 //010   ----------------------------------------
 BYTE   W96
//  #01 //011   ----------------------------------------
 BYTE   W84
 BYTE   N03  An2  v057
 BYTE   N03  Cn3  v077
 BYTE   W04
 BYTE   As2  v057
 BYTE   N03  Cs3  v077
 BYTE   W04
 BYTE   Bn2  v057
 BYTE   N03  Dn3  v077
 BYTE   W04
//  #01 //012   ----------------------------------------
 BYTE   N68  As2  v047  gtp3
 BYTE   Ds3  v067
 BYTE   W72
 BYTE   N23  Gn3  v047
 BYTE   N23  As3  v067
 BYTE   W24
//  #01 //013   ----------------------------------------
 BYTE   N44  Fn3  v047  gtp3
 BYTE   An3  v067
 BYTE   W48
 BYTE   Dn3  v047
 BYTE   N44  Fn3  v067  gtp3
 BYTE   W48
//  #01 //014   ----------------------------------------
 BYTE   N17  As2  v047
 BYTE   N17  Ds3  v067
 BYTE   W24
 BYTE   N23  As2  v047
 BYTE   N23  Ds3  v067
 BYTE   W24
 BYTE   Gn3  v047
 BYTE   N23  As3  v067
 BYTE   W24
 BYTE   Ds3  v042
 BYTE   N23  Gn3  v062
 BYTE   W24
//  #01 //015   ----------------------------------------
 BYTE   Fn3  v059
 BYTE   N23  An3  v071
 BYTE   W24
 BYTE   Gn3  v064
 BYTE   N23  As3  v076
 BYTE   W24
 BYTE   An3  v069
 BYTE   N23  Cn4  v081
 BYTE   W24
 BYTE   An3  v069
 BYTE   N23  Dn4  v081
 BYTE   W24
//  #01 //016   ----------------------------------------
 BYTE   W12
 BYTE   N11  Dn3  v057
 BYTE   N11  Gn3  v077
 BYTE   W12
 BYTE   N05  Fs3  v047
 BYTE   N05  An3  v067
 BYTE   W12
 BYTE   N08  Gn3  v057
 BYTE   N08  Bn3  v077
 BYTE   W12
 BYTE   N11  An3  v057
 BYTE   N11  Cs4  v077
 BYTE   W12
 BYTE   N08  Bn3  v047
 BYTE   N08  Dn4  v067
 BYTE   W12
 BYTE   An3  v042
 BYTE   N08  Cs4  v062
 BYTE   W12
 BYTE   Gn3  v037
 BYTE   N08  Bn3  v057
 BYTE   W12
//  #01 //017   ----------------------------------------
 BYTE   N23  Cs4  v052
 BYTE   N23  En4  v072
 BYTE   W24
 BYTE   N11  Bn3  v042
 BYTE   N11  Dn4  v062
 BYTE   W12
 BYTE   N23  An3  v047
 BYTE   N23  Cs4  v067
 BYTE   W24
 BYTE   N11  Bn3  v047
 BYTE   N11  Dn4  v067
 BYTE   W12
 BYTE   N17  Gn3  v047
 BYTE   N17  Bn3  v067
 BYTE   W24
//  #01 //018   ----------------------------------------
 BYTE   N05  Gn3  v057
 BYTE   N05  Bn3  v077
 BYTE   W06
 BYTE   An3  v047
 BYTE   N05  Cs4  v067
 BYTE   W06
 BYTE   Bn3  v047
 BYTE   N05  Dn4  v067
 BYTE   W06
 BYTE   Cs4  v047
 BYTE   N05  En4  v067
 BYTE   W06
 BYTE   Bn3  v047
 BYTE   N05  Dn4  v067
 BYTE   W12
 BYTE   Gn3  v057
 BYTE   N05  Bn3  v077
 BYTE   W06
 BYTE   An3  v047
 BYTE   N05  Cs4  v067
 BYTE   W06
 BYTE   Bn3  v047
 BYTE   N05  Dn4  v067
 BYTE   W06
 BYTE   Cs4  v047
 BYTE   N05  En4  v067
 BYTE   W06
 BYTE   Bn3  v047
 BYTE   N05  Dn4  v067
 BYTE   W24
 BYTE   Gn3  v057
 BYTE   N05  Bn3  v077
 BYTE   W06
 BYTE   An3  v047
 BYTE   N05  Cs4  v067
 BYTE   W06
//  #01 //019   ----------------------------------------
 BYTE   Bn3  v047
 BYTE   N05  Dn4  v067
 BYTE   W06
 BYTE   Cs4  v047
 BYTE   N05  En4  v067
 BYTE   W06
 BYTE   Bn3  v047
 BYTE   N05  Dn4  v067
 BYTE   W84
//  #01 //020   ----------------------------------------
 BYTE   W96
//  #01 //021   ----------------------------------------
 BYTE   W96
//  #01 //022   ----------------------------------------
 BYTE   W96
//  #01 //023   ----------------------------------------
 BYTE   W84
 BYTE   N03  Bn2  v057
 BYTE   N03  Dn3  v077
 BYTE   W04
 BYTE   Cn3  v057
 BYTE   N03  Ds3  v077
 BYTE   W04
 BYTE   Cs3  v057
 BYTE   N03  En3  v077
 BYTE   W04
//  #01 //024   ----------------------------------------
 BYTE   N68  Cn3  v047  gtp3
 BYTE   Fn3  v067
 BYTE   W72
 BYTE   N23  An3  v047
 BYTE   N23  Cn4  v067
 BYTE   W24
//  #01 //025   ----------------------------------------
 BYTE   N44  Gn3  v047  gtp3
 BYTE   Bn3  v067
 BYTE   W48
 BYTE   En3  v047
 BYTE   N44  Gn3  v067  gtp3
 BYTE   W48
//  #01 //026   ----------------------------------------
 BYTE   N17  Cn3  v047
 BYTE   N17  Fn3  v067
 BYTE   W24
 BYTE   N23  Cn3  v047
 BYTE   N23  Fn3  v067
 BYTE   W24
 BYTE   An3  v047
 BYTE   N23  Cn4  v067
 BYTE   W24
 BYTE   Fn3  v042
 BYTE   N23  An3  v062
 BYTE   W24
//  #01 //027   ----------------------------------------
 BYTE   Gn3  v058
 BYTE   N23  Bn3  v070
 BYTE   W24
 BYTE   An3  v063
 BYTE   N23  Cn4  v075
 BYTE   W24
 BYTE   Bn3  v068
 BYTE   N23  Dn4  v080
 BYTE   W24
 BYTE   Bn3  v068
 BYTE   N23  En4  v080
 BYTE   W24
//  #01 //028   ----------------------------------------
 BYTE   W96
//  #01 //029   ----------------------------------------
 BYTE   W96
//  #01 //030   ----------------------------------------
 BYTE   W96
//  #01 //031   ----------------------------------------
 BYTE   W96
//  #01 //032   ----------------------------------------
 BYTE   W96
//  #01 //033   ----------------------------------------
 BYTE   W96
//  #01 //034   ----------------------------------------
 BYTE   W96
//  #01 //035   ----------------------------------------
 BYTE   W96
//  #01 //036   ----------------------------------------
 BYTE   W96
//  #01 //037   ----------------------------------------
 BYTE   W96
//  #01 //038   ----------------------------------------
 BYTE   W96
//  #01 //039   ----------------------------------------
 BYTE   W84
 BYTE   N03  Gn2  v052
 BYTE   N03  Bn2  v082
 BYTE   W04
 BYTE   An2  v047
 BYTE   N03  Cn3  v077
 BYTE   W04
 BYTE   Bn2  v047
 BYTE   N03  Dn3  v077
 BYTE   W04
//  #01 //040   ----------------------------------------
 BYTE   N23  Cn3  v047
 BYTE   N23  En3  v077
 BYTE   W24
 BYTE   An3  v042
 BYTE   N23  Cn4  v072
 BYTE   W24
 BYTE   N11  En3  v042
 BYTE   N11  Bn3  v072
 BYTE   W12
 BYTE   N23  Bn3  v042
 BYTE   N23  Dn4  v072
 BYTE   W24
 BYTE   N11  An3  v042
 BYTE   N11  Cn4  v072
 BYTE   W12
//  #01 //041   ----------------------------------------
 BYTE   N23  Cn4  v042
 BYTE   N23  En4  v072
 BYTE   W24
 BYTE   N11  Bn3  v042
 BYTE   N11  Dn4  v072
 BYTE   W12
 BYTE   N40  An3  v042  gtp1
 BYTE   Cn4  v072
 BYTE   W48
 BYTE   N09  Gn3  v047
 BYTE   N09  Bn3  v077
 BYTE   W12
//  #01 //042   ----------------------------------------
 BYTE   N28  An3  v047  gtp1
 BYTE   Cn4  v077
 BYTE   W36
 BYTE   N09  Gn3  v047
 BYTE   N09  Bn3  v077
 BYTE   W12
 BYTE   N28  An3  v047  gtp1
 BYTE   Cn4  v077
 BYTE   W36
 BYTE   N09  Gn3  v047
 BYTE   N09  Bn3  v077
 BYTE   W12
//  #01 //043   ----------------------------------------
 BYTE   N23  An3  v047
 BYTE   N23  Cn4  v077
 BYTE   W24
 BYTE   N11  Gn3  v042
 BYTE   N11  Bn3  v072
 BYTE   W12
 BYTE   N32  En3  v042  gtp3
 BYTE   An3  v072
 BYTE   W12
 BYTE   VOL   65*MLBowsersInsideStoryToughGuyAlertMeteorSR23_mvl/mxv
 BYTE   PAN   c_v+56
 BYTE   W23
 BYTE   N23  Gn2  v075
 BYTE   W24
 BYTE   Fn2
 BYTE   W01
//  #01 //044   ----------------------------------------
 BYTE   W23
 BYTE   Cn3
 BYTE   W24
 BYTE   Fn2
 BYTE   W24
 BYTE   Cn3
 BYTE   W24
 BYTE   Bn2
 BYTE   W01
//  #01 //045   ----------------------------------------
 BYTE   W23
 BYTE   En2
 BYTE   W24
 BYTE   Bn2
 BYTE   W24
 BYTE   En2
 BYTE   W24
 BYTE   Fn2
 BYTE   W01
//  #01 //046   ----------------------------------------
 BYTE   W23
 BYTE   Cn3
 BYTE   W24
 BYTE   Dn3
 BYTE   W24
 BYTE   Cn3
 BYTE   W24
 BYTE   N44  Bn2  v075  gtp3
 BYTE   W01
//  #01 //047   ----------------------------------------
 BYTE   W44
 BYTE   W03
 BYTE   Gn2
 BYTE   W48
 BYTE   TIE  An2
 BYTE   W01
//  #01 //048   ----------------------------------------
 BYTE   W96
//  #01 //049   ----------------------------------------
 BYTE   W44
 BYTE   W02
 BYTE   EOT
 BYTE   W48
 BYTE   W02
//  #01 //050   ----------------------------------------
 BYTE   W96
//  #01 //051   ----------------------------------------
 BYTE   W96
//  #01 //052   ----------------------------------------
 BYTE   W96
//  #01 //053   ----------------------------------------
 BYTE   W96
//  #01 //054   ----------------------------------------
 BYTE   VOL   87*MLBowsersInsideStoryToughGuyAlertMeteorSR23_mvl/mxv
 BYTE   PAN   c_v+0
//  #01 //055   ----------------------------------------
 BYTE   PATT
  POIN2 Label_010036F6
//  #01 //056   ----------------------------------------
 BYTE   GoTo
  POIN2 Label_01003727
 BYTE   FINE

//**************** Track 2 (Midi-Chn.1) ****************//

MLBowsersInsideStoryToughGuyAlertMeteorSR23_002:
//  #02 //000   ----------------------------------------
 BYTE   KEYSH   MLBowsersInsideStoryToughGuyAlertMeteorSR23_key+0
 BYTE   VOICE   71
 BYTE   VOL   87*MLBowsersInsideStoryToughGuyAlertMeteorSR23_mvl/mxv
 BYTE   W96
//  #02 //001   ----------------------------------------
 BYTE   W96
//  #02 //002   ----------------------------------------
 BYTE   W96
//  #02 //003   ----------------------------------------
 BYTE   W96
//  #02 //004   ----------------------------------------
 BYTE   W96
//  #02 //005   ----------------------------------------
Label_01004457:
 BYTE   W96
//  #02 //006   ----------------------------------------
 BYTE   W96
//  #02 //007   ----------------------------------------
 BYTE   W96
//  #02 //008   ----------------------------------------
 BYTE   N23  Cn3  v052
 BYTE   N23  Fn3  v082
 BYTE   W24
 BYTE   An3  v052
 BYTE   N23  Cn4  v082
 BYTE   W24
 BYTE   N11  Gn3  v052
 BYTE   N11  Bn3  v082
 BYTE   W12
 BYTE   N23  Bn3  v052
 BYTE   N23  Dn4  v082
 BYTE   W24
 BYTE   N11  An3  v052
 BYTE   N11  Cn4  v082
 BYTE   W12
//  #02 //009   ----------------------------------------
 BYTE   N23  Cn4  v052
 BYTE   N23  En4  v082
 BYTE   W24
 BYTE   N11  Bn3  v052
 BYTE   N11  Dn4  v082
 BYTE   W12
 BYTE   N40  An3  v052  gtp1
 BYTE   Cn4  v082
 BYTE   W48
 BYTE   N11  Gn3  v052
 BYTE   N11  Bn3  v082
 BYTE   W12
//  #02 //010   ----------------------------------------
 BYTE   N28  An3  v052  gtp1
 BYTE   Cn4  v082
 BYTE   W36
 BYTE   N11  Gn3  v052
 BYTE   N11  Bn3  v082
 BYTE   W12
 BYTE   N28  An3  v052  gtp1
 BYTE   Cn4  v082
 BYTE   W36
 BYTE   N11  Gn3  v052
 BYTE   N11  Bn3  v082
 BYTE   W12
//  #02 //011   ----------------------------------------
 BYTE   N23  An3  v052
 BYTE   N23  Cn4  v082
 BYTE   W24
 BYTE   N11  Gn3  v052
 BYTE   N11  Bn3  v082
 BYTE   W12
 BYTE   N44  Fn3  v052  gtp3
 BYTE   An3  v082
 BYTE   W60
//  #02 //012   ----------------------------------------
 BYTE   W96
//  #02 //013   ----------------------------------------
 BYTE   W96
//  #02 //014   ----------------------------------------
 BYTE   W96
//  #02 //015   ----------------------------------------
 BYTE   W96
//  #02 //016   ----------------------------------------
 BYTE   W96
//  #02 //017   ----------------------------------------
 BYTE   W96
//  #02 //018   ----------------------------------------
 BYTE   W96
//  #02 //019   ----------------------------------------
 BYTE   W96
//  #02 //020   ----------------------------------------
 BYTE   N23  Dn3  v052
 BYTE   N23  Gn3  v082
 BYTE   W24
 BYTE   Bn3  v052
 BYTE   N23  Dn4  v082
 BYTE   W24
 BYTE   N11  An3  v052
 BYTE   N11  Cs4  v082
 BYTE   W12
 BYTE   N23  Cs4  v052
 BYTE   N23  En4  v082
 BYTE   W24
 BYTE   N11  Bn3  v052
 BYTE   N11  Dn4  v082
 BYTE   W12
//  #02 //021   ----------------------------------------
 BYTE   N23  Dn4  v052
 BYTE   N23  Fs4  v082
 BYTE   W24
 BYTE   N11  Cs4  v052
 BYTE   N11  En4  v082
 BYTE   W12
 BYTE   N40  Bn3  v052  gtp1
 BYTE   Dn4  v082
 BYTE   W48
 BYTE   N11  An3  v052
 BYTE   N11  Cs4  v082
 BYTE   W12
//  #02 //022   ----------------------------------------
 BYTE   N28  Bn3  v052  gtp1
 BYTE   Dn4  v082
 BYTE   W36
 BYTE   N11  An3  v052
 BYTE   N11  Cs4  v082
 BYTE   W12
 BYTE   N28  Bn3  v052  gtp1
 BYTE   Dn4  v082
 BYTE   W36
 BYTE   N11  An3  v052
 BYTE   N11  Cs4  v082
 BYTE   W12
//  #02 //023   ----------------------------------------
 BYTE   N23  Bn3  v052
 BYTE   N23  Dn4  v082
 BYTE   W24
 BYTE   N11  An3  v052
 BYTE   N11  Cs4  v082
 BYTE   W12
 BYTE   N44  Gn3  v052  gtp3
 BYTE   Bn3  v082
 BYTE   W60
//  #02 //024   ----------------------------------------
 BYTE   W96
//  #02 //025   ----------------------------------------
 BYTE   W96
//  #02 //026   ----------------------------------------
 BYTE   W96
//  #02 //027   ----------------------------------------
 BYTE   W96
//  #02 //028   ----------------------------------------
 BYTE   W96
//  #02 //029   ----------------------------------------
 BYTE   W96
//  #02 //030   ----------------------------------------
 BYTE   W96
//  #02 //031   ----------------------------------------
 BYTE   W96
//  #02 //032   ----------------------------------------
 BYTE   W96
//  #02 //033   ----------------------------------------
 BYTE   W96
//  #02 //034   ----------------------------------------
 BYTE   W96
//  #02 //035   ----------------------------------------
 BYTE   W96
//  #02 //036   ----------------------------------------
 BYTE   W12
 BYTE   N11  En3  v057
 BYTE   N11  An3  v087
 BYTE   W12
 BYTE   N05  En3  v057
 BYTE   N05  Bn3  v087
 BYTE   W12
 BYTE   N08  An3  v057
 BYTE   N08  Cn4  v087
 BYTE   W12
 BYTE   N11  Bn3  v057
 BYTE   N11  Dn4  v087
 BYTE   W12
 BYTE   N08  Cn4  v057
 BYTE   N08  En4  v087
 BYTE   W12
 BYTE   Bn3  v057
 BYTE   N08  Dn4  v087
 BYTE   W12
 BYTE   An3  v057
 BYTE   N08  Cn4  v087
 BYTE   W12
//  #02 //037   ----------------------------------------
 BYTE   N23  Dn4  v057
 BYTE   N23  Fn4  v087
 BYTE   W24
 BYTE   N11  Cn4  v057
 BYTE   N11  En4  v087
 BYTE   W12
 BYTE   N23  Bn3  v057
 BYTE   N23  Dn4  v087
 BYTE   W24
 BYTE   N11  Cn4  v057
 BYTE   N11  En4  v087
 BYTE   W12
 BYTE   N17  An3  v057
 BYTE   N17  Cn4  v087
 BYTE   W24
//  #02 //038   ----------------------------------------
 BYTE   N05  En3  v057
 BYTE   N05  An3  v087
 BYTE   W06
 BYTE   Gn3  v057
 BYTE   N05  Bn3  v087
 BYTE   W06
 BYTE   An3  v057
 BYTE   N05  Cn4  v087
 BYTE   W06
 BYTE   Bn3  v057
 BYTE   N05  Dn4  v087
 BYTE   W06
 BYTE   An3  v057
 BYTE   N05  Cn4  v087
 BYTE   W12
 BYTE   En3  v057
 BYTE   N05  An3  v087
 BYTE   W06
 BYTE   Gn3  v057
 BYTE   N05  Bn3  v087
 BYTE   W06
 BYTE   An3  v057
 BYTE   N05  Cn4  v087
 BYTE   W06
 BYTE   Bn3  v057
 BYTE   N05  Dn4  v087
 BYTE   W06
 BYTE   An3  v057
 BYTE   N05  Cn4  v087
 BYTE   W24
 BYTE   En3  v057
 BYTE   N05  An3  v087
 BYTE   W06
 BYTE   Gn3  v057
 BYTE   N05  Bn3  v087
 BYTE   W06
//  #02 //039   ----------------------------------------
 BYTE   An3  v057
 BYTE   N05  Cn4  v087
 BYTE   W06
 BYTE   Bn3  v057
 BYTE   N05  Dn4  v087
 BYTE   W06
 BYTE   An3  v057
 BYTE   N05  Cn4  v087
 BYTE   W84
//  #02 //040   ----------------------------------------
 BYTE   W96
//  #02 //041   ----------------------------------------
 BYTE   W96
//  #02 //042   ----------------------------------------
 BYTE   W96
//  #02 //043   ----------------------------------------
 BYTE   W96
//  #02 //044   ----------------------------------------
 BYTE   W96
//  #02 //045   ----------------------------------------
 BYTE   W96
//  #02 //046   ----------------------------------------
 BYTE   W96
//  #02 //047   ----------------------------------------
 BYTE   W96
//  #02 //048   ----------------------------------------
 BYTE   W96
//  #02 //049   ----------------------------------------
 BYTE   W96
//  #02 //050   ----------------------------------------
 BYTE   W96
//  #02 //051   ----------------------------------------
 BYTE   W96
//  #02 //052   ----------------------------------------
 BYTE   W96
//  #02 //053   ----------------------------------------
 BYTE   W96
//  #02 //054   ----------------------------------------
 BYTE   W96
//  #02 //055   ----------------------------------------
 BYTE   GoTo
  POIN2 Label_01004457
 BYTE   FINE

//**************** Track 3 (Midi-Chn.2) ****************//

MLBowsersInsideStoryToughGuyAlertMeteorSR23_003:
//  #03 //000   ----------------------------------------
 BYTE   KEYSH   MLBowsersInsideStoryToughGuyAlertMeteorSR23_key+0
 BYTE   BEND   c_v-1
 BYTE   VOL   87*MLBowsersInsideStoryToughGuyAlertMeteorSR23_mvl/mxv
 BYTE   W96
//  #03 //001   ----------------------------------------
 BYTE   W96
//  #03 //002   ----------------------------------------
 BYTE   W96
//  #03 //003   ----------------------------------------
 BYTE   W96
//  #03 //004   ----------------------------------------
 BYTE   W96
//  #03 //005   ----------------------------------------
Label_01003053:
 BYTE   W96
//  #03 //006   ----------------------------------------
 BYTE   W96
//  #03 //007   ----------------------------------------
 BYTE   W96
//  #03 //008   ----------------------------------------
 BYTE   W96
//  #03 //009   ----------------------------------------
 BYTE   W96
//  #03 //010   ----------------------------------------
 BYTE   W96
//  #03 //011   ----------------------------------------
 BYTE   W96
//  #03 //012   ----------------------------------------
 BYTE   W96
//  #03 //013   ----------------------------------------
 BYTE   W96
//  #03 //014   ----------------------------------------
 BYTE   W96
//  #03 //015   ----------------------------------------
 BYTE   W96
//  #03 //016   ----------------------------------------
 BYTE   W96
//  #03 //017   ----------------------------------------
 BYTE   W96
//  #03 //018   ----------------------------------------
 BYTE   W96
//  #03 //019   ----------------------------------------
 BYTE   W96
//  #03 //020   ----------------------------------------
 BYTE   W96
//  #03 //021   ----------------------------------------
 BYTE   W96
//  #03 //022   ----------------------------------------
 BYTE   W96
//  #03 //023   ----------------------------------------
 BYTE   W96
//  #03 //024   ----------------------------------------
 BYTE   W96
//  #03 //025   ----------------------------------------
 BYTE   W96
//  #03 //026   ----------------------------------------
 BYTE   W96
//  #03 //027   ----------------------------------------
 BYTE   W72
 BYTE   VOICE   61
 BYTE   W23
 BYTE   TIE  An1  v082
 BYTE   W01
//  #03 //028   ----------------------------------------
 BYTE   W92
 BYTE   W03
 BYTE   En2
 BYTE   W01
//  #03 //029   ----------------------------------------
 BYTE   W92
 BYTE   W02
 BYTE   EOT
 BYTE   An1
 BYTE   W01
 BYTE   N92  An2  v082  gtp3
 BYTE   W01
//  #03 //030   ----------------------------------------
 BYTE   W92
 BYTE   W03
 BYTE   Gn2
 BYTE   W01
//  #03 //031   ----------------------------------------
 BYTE   W92
 BYTE   W02
 BYTE   EOT
 BYTE   En2
 BYTE   VOICE   62
 BYTE   W01
 BYTE   TIE  An1  v072
 BYTE   N92  Fn2  v082  gtp3
 BYTE   W01
//  #03 //032   ----------------------------------------
 BYTE   W92
 BYTE   W03
 BYTE   Dn2
 BYTE   W01
//  #03 //033   ----------------------------------------
 BYTE   W92
 BYTE   W03
 BYTE   En2
 BYTE   W01
//  #03 //034   ----------------------------------------
 BYTE   W92
 BYTE   W03
 BYTE   Cn2
 BYTE   W01
//  #03 //035   ----------------------------------------
 BYTE   W92
 BYTE   W02
 BYTE   EOT
 BYTE   An1
 BYTE   W02
//  #03 //036   ----------------------------------------
 BYTE   W96
//  #03 //037   ----------------------------------------
 BYTE   W96
//  #03 //038   ----------------------------------------
 BYTE   W96
//  #03 //039   ----------------------------------------
 BYTE   W96
//  #03 //040   ----------------------------------------
 BYTE   W96
//  #03 //041   ----------------------------------------
 BYTE   W96
//  #03 //042   ----------------------------------------
 BYTE   W96
//  #03 //043   ----------------------------------------
 BYTE   VOICE   60
 BYTE   VOL   65*MLBowsersInsideStoryToughGuyAlertMeteorSR23_mvl/mxv
 BYTE   W48
 BYTE   BEND   c_v+1
 BYTE   PAN   c_v-39
 BYTE   W23
 BYTE   N23  Gn2  v075
 BYTE   W24
 BYTE   Fn2  v080
 BYTE   W01
//  #03 //044   ----------------------------------------
 BYTE   W23
 BYTE   Cn3
 BYTE   W24
 BYTE   Fn2
 BYTE   W24
 BYTE   Cn3
 BYTE   W24
 BYTE   Bn2
 BYTE   W01
//  #03 //045   ----------------------------------------
 BYTE   W23
 BYTE   En2
 BYTE   W24
 BYTE   Bn2
 BYTE   W24
 BYTE   En2
 BYTE   W24
 BYTE   Fn2
 BYTE   W01
//  #03 //046   ----------------------------------------
 BYTE   W23
 BYTE   Cn3
 BYTE   W24
 BYTE   Dn3
 BYTE   W24
 BYTE   Cn3
 BYTE   W24
 BYTE   N44  Bn2  v080  gtp3
 BYTE   W01
//  #03 //047   ----------------------------------------
 BYTE   W44
 BYTE   W03
 BYTE   Gn2
 BYTE   W48
 BYTE   TIE  An2
 BYTE   W01
//  #03 //048   ----------------------------------------
 BYTE   W96
//  #03 //049   ----------------------------------------
 BYTE   W44
 BYTE   W02
 BYTE   EOT
 BYTE   W48
 BYTE   W02
//  #03 //050   ----------------------------------------
 BYTE   W96
//  #03 //051   ----------------------------------------
 BYTE   W96
//  #03 //052   ----------------------------------------
 BYTE   BEND   c_v+0
 BYTE   PAN   c_v+0
 BYTE   W96
//  #03 //053   ----------------------------------------
 BYTE   W96
//  #03 //054   ----------------------------------------
 BYTE   W96
//  #03 //055   ----------------------------------------
 BYTE   VOL   87*MLBowsersInsideStoryToughGuyAlertMeteorSR23_mvl/mxv
 BYTE   VOICE   0
 BYTE   BEND   c_v-1
 BYTE   GoTo
  POIN2 Label_01003053
 BYTE   FINE

//**************** Track 4 (Midi-Chn.3) ****************//

MLBowsersInsideStoryToughGuyAlertMeteorSR23_004:
//  #04 //000   ----------------------------------------
 BYTE   KEYSH   MLBowsersInsideStoryToughGuyAlertMeteorSR23_key+0
 BYTE   VOICE   105
 BYTE   N92  Fn3  v065  gtp3
 BYTE   An3
 BYTE   VOL   87*MLBowsersInsideStoryToughGuyAlertMeteorSR23_mvl/mxv
 BYTE   W96
//  #04 //001   ----------------------------------------
Label_01003BBC:
 BYTE   N92  Fn3  v070  gtp3
 BYTE   Bn3
 BYTE   W96
 BYTE   PEND 
//  #04 //002   ----------------------------------------
 BYTE   N05  En3  v101
 BYTE   N05  Cn4
 BYTE   W96
//  #04 //003   ----------------------------------------
 BYTE   W96
//  #04 //004   ----------------------------------------
 BYTE   W96
//  #04 //005   ----------------------------------------
Label_01003BCB:
 BYTE   W96
//  #04 //006   ----------------------------------------
 BYTE   W96
//  #04 //007   ----------------------------------------
 BYTE   W96
//  #04 //008   ----------------------------------------
 BYTE   W96
//  #04 //009   ----------------------------------------
 BYTE   W96
//  #04 //010   ----------------------------------------
 BYTE   W96
//  #04 //011   ----------------------------------------
 BYTE   W72
 BYTE   VOICE   49
 BYTE   W24
//  #04 //012   ----------------------------------------
Label_01003BD5:
 BYTE   N92  Ds3  v070  gtp3
 BYTE   Gn3
 BYTE   W96
 BYTE   PEND 
//  #04 //013   ----------------------------------------
Label_01003BDC:
 BYTE   N92  Dn3  v070  gtp3
 BYTE   Fn3
 BYTE   W96
 BYTE   PEND 
//  #04 //014   ----------------------------------------
 BYTE   PATT
  POIN2 Label_01003BD5
//  #04 //015   ----------------------------------------
 BYTE   PATT
  POIN2 Label_01003BDC
//  #04 //016   ----------------------------------------
 BYTE   W96
//  #04 //017   ----------------------------------------
 BYTE   W96
//  #04 //018   ----------------------------------------
 BYTE   W96
//  #04 //019   ----------------------------------------
 BYTE   W96
//  #04 //020   ----------------------------------------
 BYTE   W96
//  #04 //021   ----------------------------------------
 BYTE   W96
//  #04 //022   ----------------------------------------
 BYTE   W96
//  #04 //023   ----------------------------------------
 BYTE   W72
 BYTE   VOICE   48
 BYTE   W24
//  #04 //024   ----------------------------------------
Label_01003BF8:
 BYTE   N92  Fn3  v070  gtp3
 BYTE   An3
 BYTE   W96
 BYTE   PEND 
//  #04 //025   ----------------------------------------
Label_01003BFF:
 BYTE   N92  En3  v070  gtp3
 BYTE   Gn3
 BYTE   W96
 BYTE   PEND 
//  #04 //026   ----------------------------------------
 BYTE   PATT
  POIN2 Label_01003BF8
//  #04 //027   ----------------------------------------
 BYTE   PATT
  POIN2 Label_01003BFF
//  #04 //028   ----------------------------------------
 BYTE   VOICE   50
 BYTE   TIE  An0  v107
 BYTE   TIE  An1  v086
 BYTE   W96
//  #04 //029   ----------------------------------------
 BYTE   W96
//  #04 //030   ----------------------------------------
 BYTE   W96
//  #04 //031   ----------------------------------------
 BYTE   W92
 BYTE   W03
 BYTE   EOT
 BYTE   An0  v045
 BYTE   W01
//  #04 //032   ----------------------------------------
 BYTE   TIE  An0  v107
 BYTE   N92  Fn2  v076  gtp3
 BYTE   W96
//  #04 //033   ----------------------------------------
 BYTE   An2
 BYTE   W96
//  #04 //034   ----------------------------------------
 BYTE   Cn3
 BYTE   W96
//  #04 //035   ----------------------------------------
 BYTE   Dn3
 BYTE   W92
 BYTE   W03
 BYTE   EOT
 BYTE   An0
 BYTE   W01
//  #04 //036   ----------------------------------------
 BYTE   VOICE   51
 BYTE   N08  An2  v091
 BYTE   N08  En3
 BYTE   W96
//  #04 //037   ----------------------------------------
 BYTE   W96
//  #04 //038   ----------------------------------------
 BYTE   W96
//  #04 //039   ----------------------------------------
 BYTE   W96
//  #04 //040   ----------------------------------------
 BYTE   W96
//  #04 //041   ----------------------------------------
 BYTE   W96
//  #04 //042   ----------------------------------------
 BYTE   W96
//  #04 //043   ----------------------------------------
 BYTE   W72
 BYTE   VOICE   48
 BYTE   W24
//  #04 //044   ----------------------------------------
 BYTE   N92  Cn3  v070  gtp3
 BYTE   An3
 BYTE   W96
//  #04 //045   ----------------------------------------
 BYTE   Bn2
 BYTE   N92  Gn3  v070  gtp3
 BYTE   W96
//  #04 //046   ----------------------------------------
 BYTE   Cn3  v075
 BYTE   N92  An3  v075  gtp3
 BYTE   W96
//  #04 //047   ----------------------------------------
 BYTE   Dn3  v080
 BYTE   N92  Bn3  v080  gtp3
 BYTE   W96
//  #04 //048   ----------------------------------------
 BYTE   VOICE   50
 BYTE   TIE  An3  v075
 BYTE   TIE  Cs4
 BYTE   W96
//  #04 //049   ----------------------------------------
 BYTE   W24
 BYTE   VOL   83*MLBowsersInsideStoryToughGuyAlertMeteorSR23_mvl/mxv
 BYTE   W03
 BYTE   VOL   73*MLBowsersInsideStoryToughGuyAlertMeteorSR23_mvl/mxv
 BYTE   W03
 BYTE   VOL   63*MLBowsersInsideStoryToughGuyAlertMeteorSR23_mvl/mxv
 BYTE   W03
 BYTE   VOL   53*MLBowsersInsideStoryToughGuyAlertMeteorSR23_mvl/mxv
 BYTE   W03
 BYTE   VOL   43*MLBowsersInsideStoryToughGuyAlertMeteorSR23_mvl/mxv
 BYTE   W04
 BYTE   VOL   33*MLBowsersInsideStoryToughGuyAlertMeteorSR23_mvl/mxv
 BYTE   W03
 BYTE   VOL   23*MLBowsersInsideStoryToughGuyAlertMeteorSR23_mvl/mxv
 BYTE   W03
 BYTE   VOL   13*MLBowsersInsideStoryToughGuyAlertMeteorSR23_mvl/mxv
 BYTE   W01
 BYTE   EOT
 BYTE   An3  v073
 BYTE   W36
 BYTE   W01
 BYTE   VOICE   48
 BYTE   W12
//  #04 //050   ----------------------------------------
 BYTE   VOL   87*MLBowsersInsideStoryToughGuyAlertMeteorSR23_mvl/mxv
 BYTE   N92  Fn3  v065  gtp3
 BYTE   An3
 BYTE   W96
//  #04 //051   ----------------------------------------
 BYTE   PATT
  POIN2 Label_01003BBC
//  #04 //052   ----------------------------------------
 BYTE   N92  An3  v065  gtp3
 BYTE   Cn4
 BYTE   W96
//  #04 //053   ----------------------------------------
 BYTE   N68  Bn3  v070  gtp3
 BYTE   Dn4
 BYTE   W72
 BYTE   N23  An3
 BYTE   N23  Cn4
 BYTE   W24
//  #04 //054   ----------------------------------------
 BYTE   N08  An3  v100
 BYTE   N08  Cn4
 BYTE   W96
//  #04 //055   ----------------------------------------
 BYTE   VOICE   105
 BYTE   GoTo
  POIN2 Label_01003BCB
 BYTE   FINE

//**************** Track 5 (Midi-Chn.4) ****************//

MLBowsersInsideStoryToughGuyAlertMeteorSR23_005:
//  #05 //000   ----------------------------------------
 BYTE   KEYSH   MLBowsersInsideStoryToughGuyAlertMeteorSR23_key+0
 BYTE   VOICE   61
 BYTE   PAN   c_v+20
 BYTE   VOL   87*MLBowsersInsideStoryToughGuyAlertMeteorSR23_mvl/mxv
 BYTE   W96
//  #05 //001   ----------------------------------------
 BYTE   W96
//  #05 //002   ----------------------------------------
 BYTE   W96
//  #05 //003   ----------------------------------------
 BYTE   W96
//  #05 //004   ----------------------------------------
Label_01003164:
 BYTE   W12
 BYTE   N02  An2  v107
 BYTE   W24
 BYTE   An2
 BYTE   W24
 BYTE   N01
 BYTE   W06
 BYTE   An2
 BYTE   W18
 BYTE   N02
 BYTE   W12
 BYTE   PEND 
//  #05 //005   ----------------------------------------
Label_01003172:
 BYTE   W12
 BYTE   N02  An2  v107
 BYTE   W24
 BYTE   An2
 BYTE   W24
 BYTE   N01
 BYTE   W06
 BYTE   An2
 BYTE   W18
 BYTE   N02
 BYTE   W12
//  #05 //006   ----------------------------------------
 BYTE   PATT
  POIN2 Label_01003164
//  #05 //007   ----------------------------------------
 BYTE   PATT
  POIN2 Label_01003164
//  #05 //008   ----------------------------------------
 BYTE   PATT
  POIN2 Label_01003164
//  #05 //009   ----------------------------------------
 BYTE   PATT
  POIN2 Label_01003164
//  #05 //010   ----------------------------------------
 BYTE   PATT
  POIN2 Label_01003164
//  #05 //011   ----------------------------------------
 BYTE   PATT
  POIN2 Label_01003164
//  #05 //012   ----------------------------------------
Label_0100319D:
 BYTE   W12
 BYTE   N02  Gn2  v107
 BYTE   W24
 BYTE   Gn2
 BYTE   W24
 BYTE   N01
 BYTE   W06
 BYTE   Gn2
 BYTE   W18
 BYTE   N02
 BYTE   W12
 BYTE   PEND 
//  #05 //013   ----------------------------------------
 BYTE   W12
 BYTE   N01  Fn2
 BYTE   W06
 BYTE   Fn2
 BYTE   W18
 BYTE   N02
 BYTE   W24
 BYTE   Fn2
 BYTE   W24
 BYTE   Fn2
 BYTE   W12
//  #05 //014   ----------------------------------------
 BYTE   PATT
  POIN2 Label_0100319D
//  #05 //015   ----------------------------------------
 BYTE   W12
 BYTE   N02  Fn2  v117
 BYTE   W06
 BYTE   N01
 BYTE   W06
 BYTE   N22  Gn2  v087
 BYTE   W24
 BYTE   An2  v092
 BYTE   W24
 BYTE   An2  v097
 BYTE   W24
//  #05 //016   ----------------------------------------
 BYTE   N02  Bn2  v107
 BYTE   W12
 BYTE   Bn2
 BYTE   W24
 BYTE   Bn2
 BYTE   W24
 BYTE   N01
 BYTE   W06
 BYTE   Bn2
 BYTE   W18
 BYTE   N02
 BYTE   W12
//  #05 //017   ----------------------------------------
Label_010031DB:
 BYTE   W12
 BYTE   N02  Bn2  v107
 BYTE   W24
 BYTE   Bn2
 BYTE   W24
 BYTE   N01
 BYTE   W06
 BYTE   Bn2
 BYTE   W18
 BYTE   N02
 BYTE   W12
 BYTE   PEND 
//  #05 //018   ----------------------------------------
 BYTE   PATT
  POIN2 Label_010031DB
//  #05 //019   ----------------------------------------
 BYTE   PATT
  POIN2 Label_010031DB
//  #05 //020   ----------------------------------------
 BYTE   PATT
  POIN2 Label_010031DB
//  #05 //021   ----------------------------------------
 BYTE   PATT
  POIN2 Label_010031DB
//  #05 //022   ----------------------------------------
 BYTE   PATT
  POIN2 Label_010031DB
//  #05 //023   ----------------------------------------
 BYTE   PATT
  POIN2 Label_010031DB
//  #05 //024   ----------------------------------------
 BYTE   PATT
  POIN2 Label_01003164
//  #05 //025   ----------------------------------------
 BYTE   W12
 BYTE   N01  Gn2  v107
 BYTE   W06
 BYTE   Gn2
 BYTE   W18
 BYTE   N02
 BYTE   W24
 BYTE   Gn2
 BYTE   W24
 BYTE   Gn2
 BYTE   W12
//  #05 //026   ----------------------------------------
 BYTE   PATT
  POIN2 Label_01003164
//  #05 //027   ----------------------------------------
 BYTE   W12
 BYTE   N02  Gn2  v117
 BYTE   W06
 BYTE   N01
 BYTE   W06
 BYTE   N22  An2  v087
 BYTE   W24
 BYTE   Bn2  v092
 BYTE   W24
 BYTE   Bn2  v097
 BYTE   W24
//  #05 //028   ----------------------------------------
 BYTE   W96
//  #05 //029   ----------------------------------------
 BYTE   W96
//  #05 //030   ----------------------------------------
 BYTE   W96
//  #05 //031   ----------------------------------------
 BYTE   W96
//  #05 //032   ----------------------------------------
 BYTE   W96
//  #05 //033   ----------------------------------------
 BYTE   W96
//  #05 //034   ----------------------------------------
 BYTE   W96
//  #05 //035   ----------------------------------------
 BYTE   W96
//  #05 //036   ----------------------------------------
Label_01003237:
 BYTE   W12
 BYTE   N02  An2  v112
 BYTE   W24
 BYTE   An2
 BYTE   W24
 BYTE   N01
 BYTE   W06
 BYTE   An2
 BYTE   W18
 BYTE   N02
 BYTE   W12
 BYTE   PEND 
//  #05 //037   ----------------------------------------
 BYTE   PATT
  POIN2 Label_01003237
//  #05 //038   ----------------------------------------
 BYTE   PATT
  POIN2 Label_01003237
//  #05 //039   ----------------------------------------
 BYTE   PATT
  POIN2 Label_01003237
//  #05 //040   ----------------------------------------
 BYTE   PATT
  POIN2 Label_01003237
//  #05 //041   ----------------------------------------
 BYTE   PATT
  POIN2 Label_01003237
//  #05 //042   ----------------------------------------
 BYTE   PATT
  POIN2 Label_01003237
//  #05 //043   ----------------------------------------
 BYTE   PATT
  POIN2 Label_01003237
//  #05 //044   ----------------------------------------
 BYTE   PATT
  POIN2 Label_01003237
//  #05 //045   ----------------------------------------
 BYTE   W12
 BYTE   N02  Gn2  v112
 BYTE   W24
 BYTE   Gn2
 BYTE   W24
 BYTE   N01
 BYTE   W06
 BYTE   Gn2
 BYTE   W18
 BYTE   N02
 BYTE   W12
//  #05 //046   ----------------------------------------
 BYTE   PATT
  POIN2 Label_01003237
//  #05 //047   ----------------------------------------
 BYTE   N44  Gn2  v093  gtp3
 BYTE   W48
 BYTE   Dn2
 BYTE   W48
//  #05 //048   ----------------------------------------
 BYTE   N05  Cs2  v112
 BYTE   W12
 BYTE   N02  An2
 BYTE   W24
 BYTE   An2
 BYTE   W24
 BYTE   N01
 BYTE   W06
 BYTE   An2
 BYTE   W18
 BYTE   N02
 BYTE   W12
//  #05 //049   ----------------------------------------
 BYTE   W96
//  #05 //050   ----------------------------------------
 BYTE   W96
//  #05 //051   ----------------------------------------
 BYTE   W96
//  #05 //052   ----------------------------------------
 BYTE   W96
//  #05 //053   ----------------------------------------
 BYTE   W96
//  #05 //054   ----------------------------------------
 BYTE   PATT
  POIN2 Label_01003164
//  #05 //055   ----------------------------------------
 BYTE   GoTo
  POIN2 Label_01003172
 BYTE   FINE

//**************** Track 6 (Midi-Chn.5) ****************//

MLBowsersInsideStoryToughGuyAlertMeteorSR23_006:
//  #06 //000   ----------------------------------------
 BYTE   KEYSH   MLBowsersInsideStoryToughGuyAlertMeteorSR23_key+0
 BYTE   VOICE   47
 BYTE   PAN   c_v+14
 BYTE   VOL   37*MLBowsersInsideStoryToughGuyAlertMeteorSR23_mvl/mxv
 BYTE   W96
//  #06 //001   ----------------------------------------
 BYTE   W96
//  #06 //002   ----------------------------------------
 BYTE   N23  Cn3  v085
 BYTE   N23  Cn4
 BYTE   W96
//  #06 //003   ----------------------------------------
 BYTE   VOICE   55
 BYTE   W72
 BYTE   N23  Cn3
 BYTE   N23  Cn4
 BYTE   W24
//  #06 //004   ----------------------------------------
Label_01004318:
 BYTE   N11  Fn3  v085
 BYTE   N11  Fn4
 BYTE   W96
 BYTE   PEND 
//  #06 //005   ----------------------------------------
Label_0100431F:
 BYTE   W96
//  #06 //006   ----------------------------------------
 BYTE   W96
//  #06 //007   ----------------------------------------
Label_01004321:
 BYTE   W72
 BYTE   N23  Cn3  v085
 BYTE   N23  Cn4
 BYTE   W24
 BYTE   PEND 
//  #06 //008   ----------------------------------------
 BYTE   PATT
  POIN2 Label_01004318
//  #06 //009   ----------------------------------------
 BYTE   W96
//  #06 //010   ----------------------------------------
 BYTE   W96
//  #06 //011   ----------------------------------------
 BYTE   PATT
  POIN2 Label_01004321
//  #06 //012   ----------------------------------------
 BYTE   N11  As2  v085
 BYTE   N11  As3
 BYTE   W96
//  #06 //013   ----------------------------------------
 BYTE   W96
//  #06 //014   ----------------------------------------
 BYTE   W96
//  #06 //015   ----------------------------------------
Label_0100433D:
 BYTE   W72
 BYTE   N23  Dn3  v085
 BYTE   N23  Dn4
 BYTE   W24
 BYTE   PEND 
//  #06 //016   ----------------------------------------
Label_01004345:
 BYTE   N11  Gn3  v085
 BYTE   N11  Gn4
 BYTE   W96
 BYTE   PEND 
//  #06 //017   ----------------------------------------
 BYTE   W96
//  #06 //018   ----------------------------------------
 BYTE   W96
//  #06 //019   ----------------------------------------
 BYTE   PATT
  POIN2 Label_0100433D
//  #06 //020   ----------------------------------------
 BYTE   PATT
  POIN2 Label_01004345
//  #06 //021   ----------------------------------------
 BYTE   W96
//  #06 //022   ----------------------------------------
 BYTE   W96
//  #06 //023   ----------------------------------------
 BYTE   PATT
  POIN2 Label_0100433D
//  #06 //024   ----------------------------------------
 BYTE   N11  Cn3  v085
 BYTE   N11  Cn4
 BYTE   W96
//  #06 //025   ----------------------------------------
 BYTE   W96
//  #06 //026   ----------------------------------------
 BYTE   W96
//  #06 //027   ----------------------------------------
Label_01004367:
 BYTE   W72
 BYTE   N23  En3  v085
 BYTE   N23  En4
 BYTE   W24
 BYTE   PEND 
//  #06 //028   ----------------------------------------
Label_0100436F:
 BYTE   N11  An2  v095
 BYTE   N11  An3
 BYTE   W96
 BYTE   PEND 
//  #06 //029   ----------------------------------------
 BYTE   W96
//  #06 //030   ----------------------------------------
 BYTE   W96
//  #06 //031   ----------------------------------------
 BYTE   W96
//  #06 //032   ----------------------------------------
 BYTE   W96
//  #06 //033   ----------------------------------------
 BYTE   W96
//  #06 //034   ----------------------------------------
 BYTE   W96
//  #06 //035   ----------------------------------------
 BYTE   PATT
  POIN2 Label_01004367
//  #06 //036   ----------------------------------------
 BYTE   PATT
  POIN2 Label_0100436F
//  #06 //037   ----------------------------------------
 BYTE   W96
//  #06 //038   ----------------------------------------
Label_01004387:
 BYTE   N11  An2  v085
 BYTE   N11  An3
 BYTE   W72
 BYTE   VOICE   54
 BYTE   W12
 BYTE   N05  En2  v075
 BYTE   N05  En3
 BYTE   W12
 BYTE   PEND 
//  #06 //039   ----------------------------------------
Label_01004397:
 BYTE   VOICE   55
 BYTE   N11  An2  v080
 BYTE   N11  An3
 BYTE   W96
 BYTE   PEND 
//  #06 //040   ----------------------------------------
 BYTE   An2  v085
 BYTE   N11  An3
 BYTE   W96
//  #06 //041   ----------------------------------------
 BYTE   W96
//  #06 //042   ----------------------------------------
 BYTE   PATT
  POIN2 Label_01004387
//  #06 //043   ----------------------------------------
 BYTE   PATT
  POIN2 Label_01004397
//  #06 //044   ----------------------------------------
 BYTE   W96
//  #06 //045   ----------------------------------------
 BYTE   W96
//  #06 //046   ----------------------------------------
 BYTE   W96
//  #06 //047   ----------------------------------------
 BYTE   W96
//  #06 //048   ----------------------------------------
 BYTE   W06
 BYTE   VOICE   47
 BYTE   W90
//  #06 //049   ----------------------------------------
 BYTE   N11  An2  v090
 BYTE   N11  An3
 BYTE   W36
 BYTE   An2
 BYTE   N11  An3
 BYTE   W60
//  #06 //050   ----------------------------------------
 BYTE   W90
 BYTE   VOICE   55
 BYTE   W06
//  #06 //051   ----------------------------------------
 BYTE   W96
//  #06 //052   ----------------------------------------
 BYTE   W96
//  #06 //053   ----------------------------------------
 BYTE   PATT
  POIN2 Label_01004321
//  #06 //054   ----------------------------------------
 BYTE   PATT
  POIN2 Label_01004318
//  #06 //055   ----------------------------------------
 BYTE   GoTo
  POIN2 Label_0100431F
 BYTE   FINE

//**************** Track 7 (Midi-Chn.6) ****************//

MLBowsersInsideStoryToughGuyAlertMeteorSR23_007:
//  #07 //000   ----------------------------------------
 BYTE   KEYSH   MLBowsersInsideStoryToughGuyAlertMeteorSR23_key+0
 BYTE   VOICE   6
 BYTE   VOL   36*MLBowsersInsideStoryToughGuyAlertMeteorSR23_mvl/mxv
 BYTE   BEND   c_v-1
 BYTE   PAN   c_v+56
 BYTE   N07  Fn0  v062
 BYTE   W12
 BYTE   N05  Fn1
 BYTE   W24
 BYTE   N08
 BYTE   W12
 BYTE   N07
 BYTE   W12
 BYTE   N05  Cn2
 BYTE   W12
 BYTE   Cn1
 BYTE   W12
 BYTE   N08  Fn1
 BYTE   W12
//  #07 //001   ----------------------------------------
Label_01002AF5:
 BYTE   N07  Fn1  v062
 BYTE   W12
 BYTE   N05
 BYTE   W24
 BYTE   N08
 BYTE   W12
 BYTE   N07
 BYTE   W12
 BYTE   N05  Cn2
 BYTE   W12
 BYTE   Fn2
 BYTE   W12
 BYTE   N08  Cn2
 BYTE   W12
 BYTE   PEND 
//  #07 //002   ----------------------------------------
 BYTE   W96
//  #07 //003   ----------------------------------------
Label_01002B09:
 BYTE   W72
 BYTE   N17  Cn1  v062
 BYTE   W24
 BYTE   PEND 
//  #07 //004   ----------------------------------------
Label_01002B0F:
 BYTE   N07  Fn1  v062
 BYTE   W12
 BYTE   N05  Cn2
 BYTE   W12
 BYTE   Fn2
 BYTE   W12
 BYTE   N08  Cn2
 BYTE   W12
 BYTE   N07  Fn1
 BYTE   W12
 BYTE   N05  Cn2
 BYTE   W12
 BYTE   Fn2
 BYTE   W12
 BYTE   N08  Cn2
 BYTE   W12
 BYTE   PEND 
//  #07 //005   ----------------------------------------
Label_01002B27:
 BYTE   N07  Fn1  v062
 BYTE   W12
 BYTE   N05  Cn2
 BYTE   W12
 BYTE   Fn2
 BYTE   W12
 BYTE   N08  Cn2
 BYTE   W12
 BYTE   N07  Fn1
 BYTE   W12
 BYTE   N05  Cn2
 BYTE   W12
 BYTE   Fn2
 BYTE   W12
 BYTE   N08  Cn2
 BYTE   W12
//  #07 //006   ----------------------------------------
 BYTE   PATT
  POIN2 Label_01002B0F
//  #07 //007   ----------------------------------------
 BYTE   PATT
  POIN2 Label_01002B0F
//  #07 //008   ----------------------------------------
 BYTE   PATT
  POIN2 Label_01002B0F
//  #07 //009   ----------------------------------------
 BYTE   PATT
  POIN2 Label_01002B0F
//  #07 //010   ----------------------------------------
 BYTE   PATT
  POIN2 Label_01002B0F
//  #07 //011   ----------------------------------------
 BYTE   PATT
  POIN2 Label_01002B0F
//  #07 //012   ----------------------------------------
Label_01002B5C:
 BYTE   N05  Ds1  v062
 BYTE   W12
 BYTE   As1
 BYTE   W12
 BYTE   Ds1
 BYTE   W12
 BYTE   As1
 BYTE   W12
 BYTE   Ds1
 BYTE   W12
 BYTE   As1
 BYTE   W12
 BYTE   Ds1
 BYTE   W12
 BYTE   As1
 BYTE   W12
 BYTE   PEND 
//  #07 //013   ----------------------------------------
Label_01002B6F:
 BYTE   N05  Dn1  v062
 BYTE   W12
 BYTE   An1
 BYTE   W12
 BYTE   Dn1
 BYTE   W12
 BYTE   An1
 BYTE   W12
 BYTE   Dn1
 BYTE   W12
 BYTE   An1
 BYTE   W12
 BYTE   Dn1
 BYTE   W12
 BYTE   An1
 BYTE   W12
 BYTE   PEND 
//  #07 //014   ----------------------------------------
 BYTE   PATT
  POIN2 Label_01002B5C
//  #07 //015   ----------------------------------------
 BYTE   PATT
  POIN2 Label_01002B6F
//  #07 //016   ----------------------------------------
Label_01002B8C:
 BYTE   N07  Gn1  v062
 BYTE   W12
 BYTE   N05  Dn2
 BYTE   W12
 BYTE   Gn2
 BYTE   W12
 BYTE   N08  Dn2
 BYTE   W12
 BYTE   N07  Gn1
 BYTE   W12
 BYTE   N05  Dn2
 BYTE   W12
 BYTE   Gn2
 BYTE   W12
 BYTE   N08  Dn2
 BYTE   W12
 BYTE   PEND 
//  #07 //017   ----------------------------------------
 BYTE   PATT
  POIN2 Label_01002B8C
//  #07 //018   ----------------------------------------
 BYTE   PATT
  POIN2 Label_01002B8C
//  #07 //019   ----------------------------------------
 BYTE   PATT
  POIN2 Label_01002B8C
//  #07 //020   ----------------------------------------
 BYTE   PATT
  POIN2 Label_01002B8C
//  #07 //021   ----------------------------------------
 BYTE   PATT
  POIN2 Label_01002B8C
//  #07 //022   ----------------------------------------
 BYTE   PATT
  POIN2 Label_01002B8C
//  #07 //023   ----------------------------------------
 BYTE   PATT
  POIN2 Label_01002B8C
//  #07 //024   ----------------------------------------
Label_01002BC7:
 BYTE   N05  Fn1  v062
 BYTE   W12
 BYTE   Cn2
 BYTE   W12
 BYTE   Fn1
 BYTE   W12
 BYTE   Cn2
 BYTE   W12
 BYTE   Fn1
 BYTE   W12
 BYTE   Cn2
 BYTE   W12
 BYTE   Fn1
 BYTE   W12
 BYTE   Cn2
 BYTE   W12
 BYTE   PEND 
//  #07 //025   ----------------------------------------
Label_01002BDA:
 BYTE   N05  En1  v062
 BYTE   W12
 BYTE   Bn1
 BYTE   W12
 BYTE   En1
 BYTE   W12
 BYTE   Bn1
 BYTE   W12
 BYTE   En1
 BYTE   W12
 BYTE   Bn1
 BYTE   W12
 BYTE   En1
 BYTE   W12
 BYTE   Bn1
 BYTE   W12
 BYTE   PEND 
//  #07 //026   ----------------------------------------
 BYTE   PATT
  POIN2 Label_01002BC7
//  #07 //027   ----------------------------------------
 BYTE   N23  En1  v062
 BYTE   W96
//  #07 //028   ----------------------------------------
 BYTE   W96
//  #07 //029   ----------------------------------------
 BYTE   W96
//  #07 //030   ----------------------------------------
 BYTE   W96
//  #07 //031   ----------------------------------------
 BYTE   W96
//  #07 //032   ----------------------------------------
 BYTE   W96
//  #07 //033   ----------------------------------------
 BYTE   W96
//  #07 //034   ----------------------------------------
 BYTE   W96
//  #07 //035   ----------------------------------------
 BYTE   W96
//  #07 //036   ----------------------------------------
Label_01002BFE:
 BYTE   N08  An0  v062
 BYTE   W12
 BYTE   N03  En1
 BYTE   W12
 BYTE   N05  An1
 BYTE   W12
 BYTE   En1
 BYTE   W12
 BYTE   An1
 BYTE   W12
 BYTE   En1
 BYTE   W12
 BYTE   Cn2
 BYTE   W12
 BYTE   An1
 BYTE   W12
 BYTE   PEND 
//  #07 //037   ----------------------------------------
Label_01002C13:
 BYTE   N08  An0  v062
 BYTE   W12
 BYTE   N03  En1
 BYTE   W12
 BYTE   N05  An1
 BYTE   W12
 BYTE   En1
 BYTE   W12
 BYTE   Cn2
 BYTE   W12
 BYTE   An1
 BYTE   W12
 BYTE   En1
 BYTE   W12
 BYTE   An1
 BYTE   W12
 BYTE   PEND 
//  #07 //038   ----------------------------------------
 BYTE   PATT
  POIN2 Label_01002BFE
//  #07 //039   ----------------------------------------
 BYTE   PATT
  POIN2 Label_01002C13
//  #07 //040   ----------------------------------------
 BYTE   PATT
  POIN2 Label_01002BFE
//  #07 //041   ----------------------------------------
 BYTE   PATT
  POIN2 Label_01002C13
//  #07 //042   ----------------------------------------
 BYTE   PATT
  POIN2 Label_01002BFE
//  #07 //043   ----------------------------------------
 BYTE   PATT
  POIN2 Label_01002C13
//  #07 //044   ----------------------------------------
Label_01002C46:
 BYTE   N08  Fn1  v062
 BYTE   W12
 BYTE   N03  Cn2
 BYTE   W12
 BYTE   N05  Fn2
 BYTE   W12
 BYTE   Cn2
 BYTE   W12
 BYTE   Fn2
 BYTE   W12
 BYTE   Cn2
 BYTE   W12
 BYTE   An2
 BYTE   W12
 BYTE   Fn2
 BYTE   W12
 BYTE   PEND 
//  #07 //045   ----------------------------------------
Label_01002C5B:
 BYTE   N08  En1  v062
 BYTE   W12
 BYTE   N03  Bn1
 BYTE   W12
 BYTE   N05  En2
 BYTE   W12
 BYTE   Bn1
 BYTE   W12
 BYTE   Gn2
 BYTE   W12
 BYTE   En2
 BYTE   W12
 BYTE   Bn1
 BYTE   W12
 BYTE   En2
 BYTE   W12
 BYTE   PEND 
//  #07 //046   ----------------------------------------
 BYTE   PATT
  POIN2 Label_01002C46
//  #07 //047   ----------------------------------------
Label_01002C75:
 BYTE   N08  Gn1  v062
 BYTE   W12
 BYTE   N03  Dn2
 BYTE   W12
 BYTE   N05  Gn2
 BYTE   W12
 BYTE   Dn2
 BYTE   W12
 BYTE   Bn2
 BYTE   W12
 BYTE   Gn2
 BYTE   W12
 BYTE   Dn2
 BYTE   W12
 BYTE   Gn2
 BYTE   W12
 BYTE   PEND 
//  #07 //048   ----------------------------------------
Label_01002C8A:
 BYTE   N08  An0  v062
 BYTE   W12
 BYTE   N03  En1
 BYTE   W12
 BYTE   N05  An1
 BYTE   W12
 BYTE   En1
 BYTE   W12
 BYTE   An1
 BYTE   W12
 BYTE   En1
 BYTE   W12
 BYTE   Cs2
 BYTE   W12
 BYTE   An1
 BYTE   W12
 BYTE   PEND 
//  #07 //049   ----------------------------------------
Label_01002C9F:
 BYTE   N08  An1  v072
 BYTE   W12
 BYTE   N02  En1  v062
 BYTE   W12
 BYTE   En1  v052
 BYTE   W12
 BYTE   N08  An1  v072
 BYTE   W60
 BYTE   PEND 
//  #07 //050   ----------------------------------------
Label_01002CAF:
 BYTE   N07  Fn1  v062
 BYTE   W12
 BYTE   N05
 BYTE   W24
 BYTE   N08
 BYTE   W12
 BYTE   N07
 BYTE   W12
 BYTE   N05  Cn2
 BYTE   W12
 BYTE   Cn1
 BYTE   W12
 BYTE   N08  Fn1
 BYTE   W12
 BYTE   PEND 
//  #07 //051   ----------------------------------------
 BYTE   PATT
  POIN2 Label_01002AF5
//  #07 //052   ----------------------------------------
 BYTE   PATT
  POIN2 Label_01002CAF
//  #07 //053   ----------------------------------------
Label_01002CCC:
 BYTE   N07  Fn1  v062
 BYTE   W12
 BYTE   N05
 BYTE   W24
 BYTE   N08
 BYTE   W12
 BYTE   N07
 BYTE   W12
 BYTE   N05  Cn2
 BYTE   W12
 BYTE   N17  Cn1
 BYTE   W24
 BYTE   PEND 
//  #07 //054   ----------------------------------------
 BYTE   PATT
  POIN2 Label_01002B0F
//  #07 //055   ----------------------------------------
 BYTE   GoTo
  POIN2 Label_01002B27
 BYTE   FINE

//**************** Track 8 (Midi-Chn.7) ****************//

MLBowsersInsideStoryToughGuyAlertMeteorSR23_008:
//  #08 //000   ----------------------------------------
 BYTE   KEYSH   MLBowsersInsideStoryToughGuyAlertMeteorSR23_key+0
 BYTE   VOICE   30
 BYTE   VOL   87*MLBowsersInsideStoryToughGuyAlertMeteorSR23_mvl/mxv
 BYTE   W96
//  #08 //001   ----------------------------------------
 BYTE   W96
//  #08 //002   ----------------------------------------
 BYTE   W96
//  #08 //003   ----------------------------------------
 BYTE   W96
//  #08 //004   ----------------------------------------
 BYTE   W96
//  #08 //005   ----------------------------------------
Label_0100261B:
 BYTE   W96
//  #08 //006   ----------------------------------------
 BYTE   W96
//  #08 //007   ----------------------------------------
 BYTE   W96
//  #08 //008   ----------------------------------------
 BYTE   W96
//  #08 //009   ----------------------------------------
 BYTE   W96
//  #08 //010   ----------------------------------------
 BYTE   W96
//  #08 //011   ----------------------------------------
 BYTE   W96
//  #08 //012   ----------------------------------------
 BYTE   W96
//  #08 //013   ----------------------------------------
 BYTE   W96
//  #08 //014   ----------------------------------------
 BYTE   W96
//  #08 //015   ----------------------------------------
 BYTE   W96
//  #08 //016   ----------------------------------------
 BYTE   W96
//  #08 //017   ----------------------------------------
 BYTE   W96
//  #08 //018   ----------------------------------------
 BYTE   W96
//  #08 //019   ----------------------------------------
 BYTE   W96
//  #08 //020   ----------------------------------------
 BYTE   W96
//  #08 //021   ----------------------------------------
 BYTE   W96
//  #08 //022   ----------------------------------------
 BYTE   W96
//  #08 //023   ----------------------------------------
 BYTE   W96
//  #08 //024   ----------------------------------------
 BYTE   W96
//  #08 //025   ----------------------------------------
 BYTE   W96
//  #08 //026   ----------------------------------------
 BYTE   W96
//  #08 //027   ----------------------------------------
 BYTE   W96
//  #08 //028   ----------------------------------------
Label_01002632:
 BYTE   N08  An1  v089
 BYTE   W24
 BYTE   N05  An1  v059
 BYTE   W12
 BYTE   An1  v079
 BYTE   W12
 BYTE   N08  An1  v089
 BYTE   W24
 BYTE   N05  An1  v059
 BYTE   W12
 BYTE   An1  v079
 BYTE   W12
 BYTE   PEND 
//  #08 //029   ----------------------------------------
Label_01002649:
 BYTE   N11  An1  v069
 BYTE   W12
 BYTE   An1  v099
 BYTE   W12
 BYTE   N05  An1  v059
 BYTE   W12
 BYTE   An1  v079
 BYTE   W12
 BYTE   An1  v099
 BYTE   W24
 BYTE   An1  v059
 BYTE   W12
 BYTE   An1  v079
 BYTE   W12
 BYTE   PEND 
//  #08 //030   ----------------------------------------
 BYTE   PATT
  POIN2 Label_01002632
//  #08 //031   ----------------------------------------
 BYTE   PATT
  POIN2 Label_01002649
//  #08 //032   ----------------------------------------
 BYTE   PATT
  POIN2 Label_01002632
//  #08 //033   ----------------------------------------
 BYTE   PATT
  POIN2 Label_01002649
//  #08 //034   ----------------------------------------
 BYTE   PATT
  POIN2 Label_01002632
//  #08 //035   ----------------------------------------
 BYTE   PATT
  POIN2 Label_01002649
//  #08 //036   ----------------------------------------
 BYTE   W96
//  #08 //037   ----------------------------------------
 BYTE   W96
//  #08 //038   ----------------------------------------
 BYTE   W96
//  #08 //039   ----------------------------------------
 BYTE   W96
//  #08 //040   ----------------------------------------
 BYTE   W96
//  #08 //041   ----------------------------------------
 BYTE   W96
//  #08 //042   ----------------------------------------
 BYTE   W96
//  #08 //043   ----------------------------------------
 BYTE   W96
//  #08 //044   ----------------------------------------
 BYTE   W96
//  #08 //045   ----------------------------------------
 BYTE   W96
//  #08 //046   ----------------------------------------
 BYTE   W96
//  #08 //047   ----------------------------------------
 BYTE   W96
//  #08 //048   ----------------------------------------
 BYTE   W96
//  #08 //049   ----------------------------------------
 BYTE   W96
//  #08 //050   ----------------------------------------
 BYTE   W96
//  #08 //051   ----------------------------------------
 BYTE   W96
//  #08 //052   ----------------------------------------
 BYTE   W96
//  #08 //053   ----------------------------------------
 BYTE   W96
//  #08 //054   ----------------------------------------
 BYTE   W96
//  #08 //055   ----------------------------------------
 BYTE   GoTo
  POIN2 Label_0100261B
 BYTE   FINE

//**************** Track 9 (Midi-Chn.8) ****************//

MLBowsersInsideStoryToughGuyAlertMeteorSR23_009:
//  #09 //000   ----------------------------------------
 BYTE   KEYSH   MLBowsersInsideStoryToughGuyAlertMeteorSR23_key+0
 BYTE   VOICE   38
 BYTE   VOL   87*MLBowsersInsideStoryToughGuyAlertMeteorSR23_mvl/mxv
 BYTE   W96
//  #09 //001   ----------------------------------------
 BYTE   W96
//  #09 //002   ----------------------------------------
 BYTE   W96
//  #09 //003   ----------------------------------------
 BYTE   W96
//  #09 //004   ----------------------------------------
 BYTE   W96
//  #09 //005   ----------------------------------------
Label_01004177:
 BYTE   W96
//  #09 //006   ----------------------------------------
 BYTE   W96
//  #09 //007   ----------------------------------------
 BYTE   W96
//  #09 //008   ----------------------------------------
 BYTE   W96
//  #09 //009   ----------------------------------------
 BYTE   W96
//  #09 //010   ----------------------------------------
 BYTE   W96
//  #09 //011   ----------------------------------------
 BYTE   W96
//  #09 //012   ----------------------------------------
 BYTE   W96
//  #09 //013   ----------------------------------------
 BYTE   W96
//  #09 //014   ----------------------------------------
 BYTE   W96
//  #09 //015   ----------------------------------------
 BYTE   W96
//  #09 //016   ----------------------------------------
 BYTE   W96
//  #09 //017   ----------------------------------------
 BYTE   W96
//  #09 //018   ----------------------------------------
 BYTE   W96
//  #09 //019   ----------------------------------------
 BYTE   W96
//  #09 //020   ----------------------------------------
 BYTE   W96
//  #09 //021   ----------------------------------------
 BYTE   W96
//  #09 //022   ----------------------------------------
 BYTE   W96
//  #09 //023   ----------------------------------------
 BYTE   W96
//  #09 //024   ----------------------------------------
 BYTE   W96
//  #09 //025   ----------------------------------------
 BYTE   W96
//  #09 //026   ----------------------------------------
 BYTE   W96
//  #09 //027   ----------------------------------------
 BYTE   W72
 BYTE   N23  En1  v117
 BYTE   W24
//  #09 //028   ----------------------------------------
Label_01004192:
 BYTE   N05  An0  v117
 BYTE   W24
 BYTE   An0
 BYTE   W24
 BYTE   N17  An1
 BYTE   W12
 BYTE   N11  An0
 BYTE   W24
 BYTE   N17
 BYTE   W12
 BYTE   PEND 
//  #09 //029   ----------------------------------------
Label_010041A1:
 BYTE   W12
 BYTE   N11  En1  v117
 BYTE   W12
 BYTE   N23  An0
 BYTE   W24
 BYTE   N11  An1
 BYTE   W12
 BYTE   N05  An0
 BYTE   W24
 BYTE   An0
 BYTE   W12
 BYTE   PEND 
//  #09 //030   ----------------------------------------
 BYTE   PATT
  POIN2 Label_01004192
//  #09 //031   ----------------------------------------
Label_010041B7:
 BYTE   W12
 BYTE   N11  En1  v117
 BYTE   W12
 BYTE   N05  An0
 BYTE   W12
 BYTE   N11
 BYTE   W12
 BYTE   An1
 BYTE   W24
 BYTE   N23  An0
 BYTE   W24
 BYTE   PEND 
//  #09 //032   ----------------------------------------
 BYTE   PATT
  POIN2 Label_01004192
//  #09 //033   ----------------------------------------
 BYTE   PATT
  POIN2 Label_010041A1
//  #09 //034   ----------------------------------------
 BYTE   PATT
  POIN2 Label_01004192
//  #09 //035   ----------------------------------------
 BYTE   PATT
  POIN2 Label_010041B7
//  #09 //036   ----------------------------------------
Label_010041DB:
 BYTE   N03  An0  v117
 BYTE   W12
 BYTE   N06
 BYTE   W12
 BYTE   N03  An1
 BYTE   W12
 BYTE   N06  An0
 BYTE   W12
 BYTE   N03
 BYTE   W12
 BYTE   N06  An1
 BYTE   W12
 BYTE   N03  An0
 BYTE   W12
 BYTE   N06
 BYTE   W12
 BYTE   PEND 
//  #09 //037   ----------------------------------------
Label_010041F2:
 BYTE   N09  An1  v117
 BYTE   W12
 BYTE   N03  An0
 BYTE   W12
 BYTE   N06
 BYTE   W12
 BYTE   N09  An1
 BYTE   W12
 BYTE   N03  An0
 BYTE   W12
 BYTE   N06
 BYTE   W12
 BYTE   N09  An1
 BYTE   W12
 BYTE   N03  An0
 BYTE   W12
 BYTE   PEND 
//  #09 //038   ----------------------------------------
 BYTE   PATT
  POIN2 Label_010041DB
//  #09 //039   ----------------------------------------
 BYTE   PATT
  POIN2 Label_010041F2
//  #09 //040   ----------------------------------------
 BYTE   PATT
  POIN2 Label_010041DB
//  #09 //041   ----------------------------------------
 BYTE   PATT
  POIN2 Label_010041F2
//  #09 //042   ----------------------------------------
 BYTE   PATT
  POIN2 Label_010041DB
//  #09 //043   ----------------------------------------
 BYTE   PATT
  POIN2 Label_010041F2
//  #09 //044   ----------------------------------------
Label_01004228:
 BYTE   N03  Fn0  v117
 BYTE   W12
 BYTE   N06
 BYTE   W12
 BYTE   N03  Fn1
 BYTE   W12
 BYTE   N06  Fn0
 BYTE   W12
 BYTE   N03
 BYTE   W12
 BYTE   N06  Fn1
 BYTE   W12
 BYTE   N03  Fn0
 BYTE   W12
 BYTE   N06
 BYTE   W12
 BYTE   PEND 
//  #09 //045   ----------------------------------------
 BYTE   N09  En1
 BYTE   W12
 BYTE   N03  En0
 BYTE   W12
 BYTE   N06
 BYTE   W12
 BYTE   N09  En1
 BYTE   W12
 BYTE   N03  En0
 BYTE   W12
 BYTE   N06
 BYTE   W12
 BYTE   N09  En1
 BYTE   W12
 BYTE   N03  En0
 BYTE   W12
//  #09 //046   ----------------------------------------
 BYTE   PATT
  POIN2 Label_01004228
//  #09 //047   ----------------------------------------
 BYTE   N09  Gn1  v117
 BYTE   W12
 BYTE   N03  Gn0
 BYTE   W12
 BYTE   N06
 BYTE   W12
 BYTE   N09  Gn1
 BYTE   W12
 BYTE   N03  Gn0
 BYTE   W12
 BYTE   N06
 BYTE   W12
 BYTE   N09  Gn1
 BYTE   W12
 BYTE   N03  Gn0
 BYTE   W12
//  #09 //048   ----------------------------------------
 BYTE   PATT
  POIN2 Label_010041DB
//  #09 //049   ----------------------------------------
 BYTE   N11  An1  v122
 BYTE   W12
 BYTE   N03  An0  v117
 BYTE   W12
 BYTE   N06
 BYTE   W12
 BYTE   N11  An1  v122
 BYTE   W60
//  #09 //050   ----------------------------------------
 BYTE   W96
//  #09 //051   ----------------------------------------
 BYTE   W96
//  #09 //052   ----------------------------------------
 BYTE   W96
//  #09 //053   ----------------------------------------
 BYTE   W96
//  #09 //054   ----------------------------------------
 BYTE   W96
//  #09 //055   ----------------------------------------
 BYTE   GoTo
  POIN2 Label_01004177
 BYTE   FINE

//**************** Track 10 (Midi-Chn.9) ****************//

MLBowsersInsideStoryToughGuyAlertMeteorSR23_010:
//  #10 //000   ----------------------------------------
 BYTE   KEYSH   MLBowsersInsideStoryToughGuyAlertMeteorSR23_key+0
 BYTE   VOICE   13
 BYTE   VOL   66*MLBowsersInsideStoryToughGuyAlertMeteorSR23_mvl/mxv
 BYTE   W96
//  #10 //001   ----------------------------------------
 BYTE   W96
//  #10 //002   ----------------------------------------
 BYTE   W12
 BYTE   N02  Cn2  v082
 BYTE   W03
 BYTE   Gn1  v052
 BYTE   W03
 BYTE   Cn2
 BYTE   W03
 BYTE   Gn1
 BYTE   W03
 BYTE   N11  As1  v062
 BYTE   N11  Dn2  v072
 BYTE   W12
 BYTE   Cn2  v062
 BYTE   N11  En2  v072
 BYTE   W12
 BYTE   Dn2  v062
 BYTE   N11  Fn2  v072
 BYTE   W12
 BYTE   En2  v062
 BYTE   N11  Gn2  v072
 BYTE   W12
 BYTE   Fn2  v062
 BYTE   N11  An2  v072
 BYTE   W12
 BYTE   Gn2  v062
 BYTE   N11  As2  v072
 BYTE   W12
//  #10 //003   ----------------------------------------
 BYTE   W12
 BYTE   N02  Cn3  v087
 BYTE   W03
 BYTE   Gn2  v057
 BYTE   W03
 BYTE   Cn3
 BYTE   W03
 BYTE   Gn2
 BYTE   W03
 BYTE   N11  As2  v067
 BYTE   N11  Dn3  v077
 BYTE   W12
 BYTE   Cn3  v067
 BYTE   N11  En3  v077
 BYTE   W12
 BYTE   Dn3  v067
 BYTE   N11  Fn3  v077
 BYTE   W12
 BYTE   En3  v067
 BYTE   N11  Gn3  v077
 BYTE   W12
 BYTE   Fn3  v067
 BYTE   N11  An3  v077
 BYTE   W12
 BYTE   Gn3  v067
 BYTE   N11  As3  v077
 BYTE   W12
//  #10 //004   ----------------------------------------
Label_010046FA:
 BYTE   W12
 BYTE   N05  Fn2  v062
 BYTE   N05  An2  v067
 BYTE   W06
 BYTE   Fn2  v062
 BYTE   N05  An2  v067
 BYTE   W18
 BYTE   Fn2  v062
 BYTE   N05  An2  v067
 BYTE   W06
 BYTE   Fn2  v062
 BYTE   N05  An2  v067
 BYTE   W18
 BYTE   Fn2  v062
 BYTE   N05  An2  v067
 BYTE   W06
 BYTE   Fn2  v062
 BYTE   N05  An2  v067
 BYTE   W06
 BYTE   Fn2  v062
 BYTE   N05  An2  v067
 BYTE   W06
 BYTE   Gn2  v062
 BYTE   N05  Bn2  v067
 BYTE   W06
 BYTE   An2  v062
 BYTE   N05  Cn3  v067
 BYTE   W06
 BYTE   Fn2  v062
 BYTE   N05  An2  v067
 BYTE   W06
 BYTE   PEND 
//  #10 //005   ----------------------------------------
Label_01004739:
 BYTE   N02  Dn3  v087
 BYTE   W03
 BYTE   Bn2  v057
 BYTE   W03
 BYTE   Dn3  v062
 BYTE   W03
 BYTE   Bn2  v067
 BYTE   W03
 BYTE   N11  An2
 BYTE   N11  Cn3
 BYTE   W12
 BYTE   Gn2  v062
 BYTE   N11  Bn2  v067
 BYTE   W12
 BYTE   N23  Fn2  v062
 BYTE   N23  An2  v067
 BYTE   W24
 BYTE   N11  Gn2  v062
 BYTE   N11  Bn2  v067
 BYTE   W12
 BYTE   An2  v062
 BYTE   N11  Cn3  v067
 BYTE   W12
 BYTE   Fn2  v062
 BYTE   N11  An2  v067
 BYTE   W12
//  #10 //006   ----------------------------------------
 BYTE   PATT
  POIN2 Label_010046FA
//  #10 //007   ----------------------------------------
 BYTE   W12
 BYTE   N02  Fn2  v092
 BYTE   W03
 BYTE   Dn2  v062
 BYTE   W03
 BYTE   Fn2
 BYTE   W03
 BYTE   Dn2
 BYTE   W03
 BYTE   N11  En2  v072
 BYTE   N11  Gn2  v082
 BYTE   W12
 BYTE   Fn2  v072
 BYTE   N11  An2  v082
 BYTE   W12
 BYTE   Gn2  v072
 BYTE   N11  Bn2  v082
 BYTE   W12
 BYTE   An2  v072
 BYTE   N11  Cn3  v082
 BYTE   W12
 BYTE   Bn2  v072
 BYTE   N11  Dn3  v082
 BYTE   W12
 BYTE   Cn3  v072
 BYTE   N11  En3  v082
 BYTE   W12
//  #10 //008   ----------------------------------------
 BYTE   PATT
  POIN2 Label_010046FA
//  #10 //009   ----------------------------------------
 BYTE   N02  Dn3  v087
 BYTE   W03
 BYTE   Bn2  v057
 BYTE   W03
 BYTE   Dn3  v062
 BYTE   W03
 BYTE   Bn2  v067
 BYTE   W03
 BYTE   N11  An2
 BYTE   N11  Cn3
 BYTE   W12
 BYTE   Gn2  v062
 BYTE   N11  Bn2  v067
 BYTE   W12
 BYTE   N23  Fn2  v062
 BYTE   N23  An2  v067
 BYTE   W24
 BYTE   N11  Gn2  v062
 BYTE   N11  Bn2  v067
 BYTE   W12
 BYTE   An2  v062
 BYTE   N11  Cn3  v067
 BYTE   W12
 BYTE   Fn2  v062
 BYTE   N11  An2  v067
 BYTE   W12
//  #10 //010   ----------------------------------------
 BYTE   PATT
  POIN2 Label_010046FA
//  #10 //011   ----------------------------------------
 BYTE   W12
 BYTE   N02  Fn2  v087
 BYTE   W03
 BYTE   Dn2  v057
 BYTE   W03
 BYTE   Fn2
 BYTE   W03
 BYTE   Dn2
 BYTE   W03
 BYTE   N11  En2  v067
 BYTE   N11  Gn2  v077
 BYTE   W12
 BYTE   Fn2  v067
 BYTE   N11  An2  v077
 BYTE   W12
 BYTE   Gn2  v067
 BYTE   N11  Bn2  v077
 BYTE   W12
 BYTE   An2  v067
 BYTE   N11  Cn3  v077
 BYTE   W12
 BYTE   Bn2  v067
 BYTE   N11  Dn3  v077
 BYTE   W12
 BYTE   Cn3  v067
 BYTE   N11  En3  v077
 BYTE   W12
//  #10 //012   ----------------------------------------
 BYTE   W96
//  #10 //013   ----------------------------------------
 BYTE   W96
//  #10 //014   ----------------------------------------
 BYTE   W96
//  #10 //015   ----------------------------------------
 BYTE   W96
//  #10 //016   ----------------------------------------
Label_01004812:
 BYTE   W12
 BYTE   N05  Gn2  v062
 BYTE   N05  Bn2  v067
 BYTE   W06
 BYTE   Gn2  v062
 BYTE   N05  Bn2  v067
 BYTE   W18
 BYTE   Gn2  v062
 BYTE   N05  Bn2  v067
 BYTE   W06
 BYTE   Gn2  v062
 BYTE   N05  Bn2  v067
 BYTE   W18
 BYTE   Gn2  v062
 BYTE   N05  Bn2  v067
 BYTE   W06
 BYTE   Gn2  v062
 BYTE   N05  Bn2  v067
 BYTE   W06
 BYTE   Gn2  v062
 BYTE   N05  Bn2  v067
 BYTE   W06
 BYTE   An2  v062
 BYTE   N05  Cs3  v067
 BYTE   W06
 BYTE   Bn2  v062
 BYTE   N05  Dn3  v067
 BYTE   W06
 BYTE   Gn2  v062
 BYTE   N05  Bn2  v067
 BYTE   W06
 BYTE   PEND 
//  #10 //017   ----------------------------------------
Label_01004851:
 BYTE   N02  En3  v087
 BYTE   W03
 BYTE   Cs3  v057
 BYTE   W03
 BYTE   En3  v062
 BYTE   W03
 BYTE   Cs3  v067
 BYTE   W03
 BYTE   N11  Bn2
 BYTE   N11  Dn3
 BYTE   W12
 BYTE   An2  v062
 BYTE   N11  Cs3  v067
 BYTE   W12
 BYTE   N23  Gn2  v062
 BYTE   N23  Bn2  v067
 BYTE   W24
 BYTE   N11  An2  v062
 BYTE   N11  Cs3  v067
 BYTE   W12
 BYTE   Bn2  v062
 BYTE   N11  Dn3  v067
 BYTE   W12
 BYTE   Gn2  v062
 BYTE   N11  Bn2  v067
 BYTE   W12
 BYTE   PEND 
//  #10 //018   ----------------------------------------
 BYTE   PATT
  POIN2 Label_01004812
//  #10 //019   ----------------------------------------
 BYTE   W12
 BYTE   N02  Gn2  v092
 BYTE   W03
 BYTE   En2  v062
 BYTE   W03
 BYTE   Gn2
 BYTE   W03
 BYTE   En2
 BYTE   W03
 BYTE   N11  Fs2  v072
 BYTE   N11  An2  v082
 BYTE   W12
 BYTE   Gn2  v072
 BYTE   N11  Bn2  v082
 BYTE   W12
 BYTE   An2  v072
 BYTE   N11  Cs3  v082
 BYTE   W12
 BYTE   Bn2  v072
 BYTE   N11  Dn3  v082
 BYTE   W12
 BYTE   Cs3  v072
 BYTE   N11  En3  v082
 BYTE   W12
 BYTE   Dn3  v072
 BYTE   N11  Fs3  v082
 BYTE   W12
//  #10 //020   ----------------------------------------
 BYTE   PATT
  POIN2 Label_01004812
//  #10 //021   ----------------------------------------
 BYTE   PATT
  POIN2 Label_01004851
//  #10 //022   ----------------------------------------
 BYTE   PATT
  POIN2 Label_01004812
//  #10 //023   ----------------------------------------
 BYTE   W12
 BYTE   N02  Gn2  v087
 BYTE   W03
 BYTE   En2  v057
 BYTE   W03
 BYTE   Gn2
 BYTE   W03
 BYTE   En2
 BYTE   W03
 BYTE   N11  Fs2  v067
 BYTE   N11  An2  v077
 BYTE   W12
 BYTE   Gn2  v067
 BYTE   N11  Bn2  v077
 BYTE   W12
 BYTE   An2  v067
 BYTE   N11  Cs3  v077
 BYTE   W12
 BYTE   Bn2  v067
 BYTE   N11  Dn3  v077
 BYTE   W12
 BYTE   Cs3  v067
 BYTE   N11  En3  v077
 BYTE   W12
 BYTE   Dn3  v067
 BYTE   N11  Fs3  v077
 BYTE   W12
//  #10 //024   ----------------------------------------
 BYTE   W96
//  #10 //025   ----------------------------------------
 BYTE   W96
//  #10 //026   ----------------------------------------
 BYTE   W96
//  #10 //027   ----------------------------------------
 BYTE   W96
//  #10 //028   ----------------------------------------
 BYTE   W96
//  #10 //029   ----------------------------------------
 BYTE   W96
//  #10 //030   ----------------------------------------
 BYTE   W96
//  #10 //031   ----------------------------------------
 BYTE   W96
//  #10 //032   ----------------------------------------
 BYTE   W96
//  #10 //033   ----------------------------------------
 BYTE   W96
//  #10 //034   ----------------------------------------
 BYTE   W96
//  #10 //035   ----------------------------------------
 BYTE   W96
//  #10 //036   ----------------------------------------
Label_01004906:
 BYTE   W12
 BYTE   N05  En2  v072
 BYTE   N05  An2  v077
 BYTE   W06
 BYTE   En2  v072
 BYTE   N05  An2  v077
 BYTE   W18
 BYTE   En2  v072
 BYTE   N05  An2  v077
 BYTE   W06
 BYTE   En2  v072
 BYTE   N05  An2  v077
 BYTE   W18
 BYTE   En2  v072
 BYTE   N05  An2  v077
 BYTE   W06
 BYTE   En2  v072
 BYTE   N05  An2  v077
 BYTE   W06
 BYTE   En2  v072
 BYTE   N05  An2  v077
 BYTE   W06
 BYTE   Gn2  v072
 BYTE   N05  Bn2  v077
 BYTE   W06
 BYTE   An2  v072
 BYTE   N05  Cn3  v077
 BYTE   W06
 BYTE   Gn2  v072
 BYTE   N05  Bn2  v077
 BYTE   W06
 BYTE   PEND 
//  #10 //037   ----------------------------------------
Label_01004945:
 BYTE   N02  Dn3  v097
 BYTE   W03
 BYTE   Bn2  v067
 BYTE   W03
 BYTE   Dn3  v072
 BYTE   W03
 BYTE   Bn2  v077
 BYTE   W03
 BYTE   N11  An2
 BYTE   N11  Cn3
 BYTE   W12
 BYTE   Gn2  v072
 BYTE   N11  Bn2  v077
 BYTE   W12
 BYTE   N23  En2  v072
 BYTE   N23  An2  v077
 BYTE   W24
 BYTE   N11  Gn2  v072
 BYTE   N11  Bn2  v077
 BYTE   W12
 BYTE   An2  v072
 BYTE   N11  Cn3  v077
 BYTE   W12
 BYTE   En2  v072
 BYTE   N11  An2  v077
 BYTE   W12
 BYTE   PEND 
//  #10 //038   ----------------------------------------
Label_01004978:
 BYTE   W12
 BYTE   N05  En2  v072
 BYTE   N05  An2  v077
 BYTE   W06
 BYTE   En2  v072
 BYTE   N05  An2  v077
 BYTE   W18
 BYTE   En2  v072
 BYTE   N05  An2  v077
 BYTE   W06
 BYTE   En2  v072
 BYTE   N05  An2  v077
 BYTE   W18
 BYTE   En2  v072
 BYTE   N05  An2  v077
 BYTE   W06
 BYTE   En2  v072
 BYTE   N05  An2  v077
 BYTE   W06
 BYTE   En2  v072
 BYTE   N05  An2  v077
 BYTE   W24
 BYTE   PEND 
//  #10 //039   ----------------------------------------
 BYTE   W12
 BYTE   N02  En2  v097
 BYTE   W03
 BYTE   Cn2  v067
 BYTE   W03
 BYTE   En2
 BYTE   W03
 BYTE   Cn2
 BYTE   W03
 BYTE   N11  En2  v077
 BYTE   N11  Gn2  v087
 BYTE   W12
 BYTE   Fn2  v077
 BYTE   N11  An2  v087
 BYTE   W12
 BYTE   Gn2  v077
 BYTE   N11  Bn2  v087
 BYTE   W12
 BYTE   An2  v077
 BYTE   N11  Cn3  v087
 BYTE   W12
 BYTE   Bn2  v077
 BYTE   N11  Dn3  v087
 BYTE   W12
 BYTE   Cn3  v077
 BYTE   N11  En3  v087
 BYTE   W12
//  #10 //040   ----------------------------------------
 BYTE   PATT
  POIN2 Label_01004906
//  #10 //041   ----------------------------------------
 BYTE   PATT
  POIN2 Label_01004945
//  #10 //042   ----------------------------------------
 BYTE   PATT
  POIN2 Label_01004978
//  #10 //043   ----------------------------------------
 BYTE   W12
 BYTE   N02  En2  v098
 BYTE   W03
 BYTE   Cn2  v068
 BYTE   W03
 BYTE   En2
 BYTE   W03
 BYTE   Cn2
 BYTE   W03
 BYTE   N11  En2  v078
 BYTE   N11  Gn2  v088
 BYTE   W12
 BYTE   Fn2  v078
 BYTE   N11  An2  v088
 BYTE   W12
 BYTE   Gn2  v078
 BYTE   N11  Bn2  v088
 BYTE   W12
 BYTE   An2  v078
 BYTE   N11  Cn3  v088
 BYTE   W12
 BYTE   Bn2  v078
 BYTE   N11  Dn3  v088
 BYTE   W12
 BYTE   Cn3  v078
 BYTE   N11  En3  v088
 BYTE   W12
//  #10 //044   ----------------------------------------
Label_01004A16:
 BYTE   W12
 BYTE   N11  An3  v078
 BYTE   N11  Cn4  v088
 BYTE   W12
 BYTE   Fn3  v078
 BYTE   N11  An3  v088
 BYTE   W12
 BYTE   An3  v078
 BYTE   N11  Cn4  v088
 BYTE   W24
 BYTE   N05  An3  v078
 BYTE   N05  Cn4  v088
 BYTE   W06
 BYTE   An3  v078
 BYTE   N05  Cn4  v088
 BYTE   W06
 BYTE   N11  Fn3  v078
 BYTE   N11  An3  v088
 BYTE   W12
 BYTE   An3  v078
 BYTE   N11  Cn4  v088
 BYTE   W12
 BYTE   PEND 
//  #10 //045   ----------------------------------------
 BYTE   W12
 BYTE   Gn3  v078
 BYTE   N11  Bn3  v088
 BYTE   W12
 BYTE   En3  v078
 BYTE   N11  Gn3  v088
 BYTE   W12
 BYTE   Gn3  v078
 BYTE   N11  Bn3  v088
 BYTE   W24
 BYTE   N05  Gn3  v078
 BYTE   N05  Bn3  v088
 BYTE   W06
 BYTE   Gn3  v078
 BYTE   N05  Bn3  v088
 BYTE   W06
 BYTE   N11  En3  v078
 BYTE   N11  Gn3  v088
 BYTE   W12
 BYTE   Gn3  v078
 BYTE   N11  Bn3  v088
 BYTE   W12
//  #10 //046   ----------------------------------------
 BYTE   PATT
  POIN2 Label_01004A16
//  #10 //047   ----------------------------------------
 BYTE   W12
 BYTE   N11  Gn3  v078
 BYTE   N11  Bn3  v088
 BYTE   W12
 BYTE   Dn3  v078
 BYTE   N11  Gn3  v088
 BYTE   W12
 BYTE   Gn3  v078
 BYTE   N11  Bn3  v088
 BYTE   W24
 BYTE   N05  Gn3  v078
 BYTE   N05  Bn3  v088
 BYTE   W06
 BYTE   Gn3  v078
 BYTE   N05  Bn3  v088
 BYTE   W06
 BYTE   N11  Dn3  v078
 BYTE   N11  Gn3  v088
 BYTE   W12
 BYTE   Gn3  v078
 BYTE   N11  Bn3  v088
 BYTE   W12
//  #10 //048   ----------------------------------------
 BYTE   N07  Cs2  v053
 BYTE   N07  En2  v063
 BYTE   W08
 BYTE   Dn2  v058
 BYTE   N07  Fs2  v068
 BYTE   W08
 BYTE   En2  v063
 BYTE   N07  Gs2  v073
 BYTE   W08
 BYTE   Fs2  v063
 BYTE   N07  An2  v073
 BYTE   W08
 BYTE   Gs2  v068
 BYTE   N07  Bn2  v078
 BYTE   W08
 BYTE   An2  v068
 BYTE   N07  Cs3  v078
 BYTE   W08
 BYTE   Bn2  v073
 BYTE   N07  Dn3  v083
 BYTE   W08
 BYTE   Cs3  v073
 BYTE   N07  En3  v083
 BYTE   W08
 BYTE   Dn3  v073
 BYTE   N07  Fs3  v083
 BYTE   W08
 BYTE   En3  v078
 BYTE   N07  Gs3  v088
 BYTE   W08
 BYTE   Fs3  v078
 BYTE   N07  An3  v088
 BYTE   W08
 BYTE   Gs3  v078
 BYTE   N07  Bn3  v088
 BYTE   W08
//  #10 //049   ----------------------------------------
 BYTE   An3  v078
 BYTE   N07  Cs4  v088
 BYTE   W12
 BYTE   N11  Cs3  v078
 BYTE   W06
 BYTE   En3
 BYTE   W06
 BYTE   An2  v068
 BYTE   N11  Cs3  v078
 BYTE   W12
 BYTE   En3
 BYTE   N11  An3  v088
 BYTE   W36
 BYTE   N05  Cn4  v078
 BYTE   N05  En4  v088
 BYTE   W06
 BYTE   Bn3  v073
 BYTE   N05  Dn4  v083
 BYTE   W06
 BYTE   An3  v068
 BYTE   N05  Cn4  v078
 BYTE   W06
 BYTE   Gn3  v063
 BYTE   N05  Bn3  v073
 BYTE   W06
//  #10 //050   ----------------------------------------
 BYTE   N11  Fn3
 BYTE   N11  An3  v083
 BYTE   W96
//  #10 //051   ----------------------------------------
 BYTE   W96
//  #10 //052   ----------------------------------------
 BYTE   W96
//  #10 //053   ----------------------------------------
 BYTE   W12
 BYTE   N02  Cn3  v088
 BYTE   W03
 BYTE   An2  v058
 BYTE   W03
 BYTE   Cn3
 BYTE   W03
 BYTE   An2
 BYTE   W03
 BYTE   N11  Bn2  v068
 BYTE   N11  Dn3  v078
 BYTE   W12
 BYTE   Cn3  v068
 BYTE   N11  En3  v078
 BYTE   W12
 BYTE   Dn3  v068
 BYTE   N11  Fn3  v078
 BYTE   W12
 BYTE   En3  v068
 BYTE   N11  Gn3  v078
 BYTE   W12
 BYTE   Fn3  v068
 BYTE   N11  An3  v078
 BYTE   W12
 BYTE   En3  v068
 BYTE   N11  Gn3  v078
 BYTE   W12
//  #10 //054   ----------------------------------------
 BYTE   Fn3  v068
 BYTE   N11  An3  v078
 BYTE   W12
 BYTE   N05  Fn2  v062
 BYTE   N05  An2  v067
 BYTE   W06
 BYTE   Fn2  v062
 BYTE   N05  An2  v067
 BYTE   W18
 BYTE   Fn2  v062
 BYTE   N05  An2  v067
 BYTE   W06
 BYTE   Fn2  v062
 BYTE   N05  An2  v067
 BYTE   W18
 BYTE   Fn2  v062
 BYTE   N05  An2  v067
 BYTE   W06
 BYTE   Fn2  v062
 BYTE   N05  An2  v067
 BYTE   W06
 BYTE   Fn2  v062
 BYTE   N05  An2  v067
 BYTE   W06
 BYTE   Gn2  v062
 BYTE   N05  Bn2  v067
 BYTE   W06
 BYTE   An2  v062
 BYTE   N05  Cn3  v067
 BYTE   W06
 BYTE   Fn2  v062
 BYTE   N05  An2  v067
 BYTE   W06
//  #10 //055   ----------------------------------------
 BYTE   GoTo
  POIN2 Label_01004739
 BYTE   FINE

//**************** Track 11 (Midi-Chn.10) ****************//

MLBowsersInsideStoryToughGuyAlertMeteorSR23_011:
//  #11 //000   ----------------------------------------
 BYTE   KEYSH   MLBowsersInsideStoryToughGuyAlertMeteorSR23_key+0
 BYTE   VOICE   11
 BYTE   VOL   73*MLBowsersInsideStoryToughGuyAlertMeteorSR23_mvl/mxv
 BYTE   W96
//  #11 //001   ----------------------------------------
 BYTE   W96
//  #11 //002   ----------------------------------------
 BYTE   W96
//  #11 //003   ----------------------------------------
 BYTE   W96
//  #11 //004   ----------------------------------------
 BYTE   W96
//  #11 //005   ----------------------------------------
Label_01003A2B:
 BYTE   W96
//  #11 //006   ----------------------------------------
 BYTE   W96
//  #11 //007   ----------------------------------------
 BYTE   W96
//  #11 //008   ----------------------------------------
 BYTE   W96
//  #11 //009   ----------------------------------------
 BYTE   W96
//  #11 //010   ----------------------------------------
 BYTE   W96
//  #11 //011   ----------------------------------------
 BYTE   W96
//  #11 //012   ----------------------------------------
 BYTE   W96
//  #11 //013   ----------------------------------------
 BYTE   W96
//  #11 //014   ----------------------------------------
 BYTE   W96
//  #11 //015   ----------------------------------------
 BYTE   W96
//  #11 //016   ----------------------------------------
 BYTE   W96
//  #11 //017   ----------------------------------------
 BYTE   W96
//  #11 //018   ----------------------------------------
 BYTE   W96
//  #11 //019   ----------------------------------------
 BYTE   W96
//  #11 //020   ----------------------------------------
 BYTE   W96
//  #11 //021   ----------------------------------------
 BYTE   W96
//  #11 //022   ----------------------------------------
 BYTE   W96
//  #11 //023   ----------------------------------------
 BYTE   W96
//  #11 //024   ----------------------------------------
 BYTE   W96
//  #11 //025   ----------------------------------------
 BYTE   W96
//  #11 //026   ----------------------------------------
 BYTE   W96
//  #11 //027   ----------------------------------------
 BYTE   W96
//  #11 //028   ----------------------------------------
 BYTE   W96
//  #11 //029   ----------------------------------------
 BYTE   W96
//  #11 //030   ----------------------------------------
 BYTE   W96
//  #11 //031   ----------------------------------------
 BYTE   W96
//  #11 //032   ----------------------------------------
 BYTE   W96
//  #11 //033   ----------------------------------------
 BYTE   W96
//  #11 //034   ----------------------------------------
 BYTE   W96
//  #11 //035   ----------------------------------------
 BYTE   W96
//  #11 //036   ----------------------------------------
 BYTE   W96
//  #11 //037   ----------------------------------------
 BYTE   W96
//  #11 //038   ----------------------------------------
 BYTE   W96
//  #11 //039   ----------------------------------------
Label_01003A4D:
 BYTE   W24
 BYTE   N11  Gn5  v056
 BYTE   W12
 BYTE   An5
 BYTE   W12
 BYTE   Bn5
 BYTE   W12
 BYTE   Cn6
 BYTE   W12
 BYTE   Dn6
 BYTE   W12
 BYTE   En6
 BYTE   W12
 BYTE   PEND 
//  #11 //040   ----------------------------------------
 BYTE   W96
//  #11 //041   ----------------------------------------
 BYTE   W96
//  #11 //042   ----------------------------------------
 BYTE   W96
//  #11 //043   ----------------------------------------
 BYTE   PATT
  POIN2 Label_01003A4D
//  #11 //044   ----------------------------------------
 BYTE   W96
//  #11 //045   ----------------------------------------
 BYTE   W96
//  #11 //046   ----------------------------------------
 BYTE   W96
//  #11 //047   ----------------------------------------
 BYTE   W96
//  #11 //048   ----------------------------------------
 BYTE   W96
//  #11 //049   ----------------------------------------
 BYTE   W72
 BYTE   N05  En6  v051
 BYTE   W06
 BYTE   Dn6  v046
 BYTE   W06
 BYTE   Cn6  v041
 BYTE   W06
 BYTE   Bn5  v036
 BYTE   W06
//  #11 //050   ----------------------------------------
 BYTE   N11  An5  v046
 BYTE   W96
//  #11 //051   ----------------------------------------
 BYTE   W96
//  #11 //052   ----------------------------------------
 BYTE   W96
//  #11 //053   ----------------------------------------
 BYTE   W96
//  #11 //054   ----------------------------------------
 BYTE   W96
//  #11 //055   ----------------------------------------
 BYTE   GoTo
  POIN2 Label_01003A2B
 BYTE   FINE

//**************** Track 12 (Midi-Chn.11) ****************//

MLBowsersInsideStoryToughGuyAlertMeteorSR23_012:
//  #12 //000   ----------------------------------------
 BYTE   KEYSH   MLBowsersInsideStoryToughGuyAlertMeteorSR23_key+0
 BYTE   VOICE   47
 BYTE   VOL   42*MLBowsersInsideStoryToughGuyAlertMeteorSR23_mvl/mxv
 BYTE   N23  Fn1  v094
 BYTE   W24
 BYTE   Cn3
 BYTE   W24
 BYTE   Cn3
 BYTE   W24
 BYTE   Fn2
 BYTE   W24
//  #12 //001   ----------------------------------------
Label_01002E04:
 BYTE   N23  Fn2  v094
 BYTE   W24
 BYTE   Cn3
 BYTE   W24
 BYTE   Cn3
 BYTE   W24
 BYTE   Fn2
 BYTE   W24
 BYTE   PEND 
//  #12 //002   ----------------------------------------
 BYTE   Cn2  v114
 BYTE   W96
//  #12 //003   ----------------------------------------
 BYTE   W72
 BYTE   Cn2  v104
 BYTE   W24
//  #12 //004   ----------------------------------------
 BYTE   PATT
  POIN2 Label_01002E04
//  #12 //005   ----------------------------------------
Label_01002E1B:
 BYTE   N23  Fn2  v094
 BYTE   W24
 BYTE   Cn3
 BYTE   W24
 BYTE   Cn3
 BYTE   W24
 BYTE   Fn2
 BYTE   W24
//  #12 //006   ----------------------------------------
 BYTE   PATT
  POIN2 Label_01002E04
//  #12 //007   ----------------------------------------
 BYTE   PATT
  POIN2 Label_01002E04
//  #12 //008   ----------------------------------------
 BYTE   PATT
  POIN2 Label_01002E04
//  #12 //009   ----------------------------------------
 BYTE   PATT
  POIN2 Label_01002E04
//  #12 //010   ----------------------------------------
 BYTE   PATT
  POIN2 Label_01002E04
//  #12 //011   ----------------------------------------
 BYTE   PATT
  POIN2 Label_01002E04
//  #12 //012   ----------------------------------------
 BYTE   N23  Ds2  v094
 BYTE   W24
 BYTE   As2
 BYTE   W24
 BYTE   As2
 BYTE   W24
 BYTE   Ds2
 BYTE   W24
//  #12 //013   ----------------------------------------
 BYTE   Dn2
 BYTE   W24
 BYTE   An2
 BYTE   W24
 BYTE   An2
 BYTE   W24
 BYTE   Dn2
 BYTE   W24
//  #12 //014   ----------------------------------------
 BYTE   Ds2
 BYTE   W24
 BYTE   As2
 BYTE   W24
 BYTE   As2  v099
 BYTE   W24
 BYTE   Ds2
 BYTE   W24
//  #12 //015   ----------------------------------------
 BYTE   Dn2  v094
 BYTE   W24
 BYTE   Dn2  v104
 BYTE   W24
 BYTE   Dn2  v119
 BYTE   W24
 BYTE   Dn2  v127
 BYTE   W24
//  #12 //016   ----------------------------------------
 BYTE   Gn2  v124
 BYTE   W24
 BYTE   Dn3  v094
 BYTE   W24
 BYTE   Dn3
 BYTE   W24
 BYTE   Gn2
 BYTE   W24
//  #12 //017   ----------------------------------------
Label_01002E74:
 BYTE   N23  Gn2  v094
 BYTE   W24
 BYTE   Dn3
 BYTE   W24
 BYTE   Dn3
 BYTE   W24
 BYTE   Gn2
 BYTE   W24
 BYTE   PEND 
//  #12 //018   ----------------------------------------
 BYTE   PATT
  POIN2 Label_01002E74
//  #12 //019   ----------------------------------------
 BYTE   PATT
  POIN2 Label_01002E74
//  #12 //020   ----------------------------------------
 BYTE   PATT
  POIN2 Label_01002E74
//  #12 //021   ----------------------------------------
 BYTE   PATT
  POIN2 Label_01002E74
//  #12 //022   ----------------------------------------
 BYTE   PATT
  POIN2 Label_01002E74
//  #12 //023   ----------------------------------------
 BYTE   PATT
  POIN2 Label_01002E74
//  #12 //024   ----------------------------------------
 BYTE   PATT
  POIN2 Label_01002E04
//  #12 //025   ----------------------------------------
 BYTE   N23  En2  v094
 BYTE   W24
 BYTE   Bn2
 BYTE   W24
 BYTE   Bn2
 BYTE   W24
 BYTE   En2
 BYTE   W24
//  #12 //026   ----------------------------------------
 BYTE   PATT
  POIN2 Label_01002E04
//  #12 //027   ----------------------------------------
 BYTE   N23  En2  v114
 BYTE   W84
 BYTE   N03  En2  v104
 BYTE   W04
 BYTE   En2  v114
 BYTE   W04
 BYTE   En2  v124
 BYTE   W04
//  #12 //028   ----------------------------------------
 BYTE   N23  An2  v127
 BYTE   W96
//  #12 //029   ----------------------------------------
 BYTE   W60
 BYTE   En2  v124
 BYTE   W24
 BYTE   N11  En2  v114
 BYTE   W12
//  #12 //030   ----------------------------------------
 BYTE   N23  An2  v124
 BYTE   W96
//  #12 //031   ----------------------------------------
 BYTE   W72
 BYTE   N11  En2
 BYTE   W12
 BYTE   En2
 BYTE   W12
//  #12 //032   ----------------------------------------
 BYTE   N23  An2  v127
 BYTE   W96
//  #12 //033   ----------------------------------------
 BYTE   W60
 BYTE   En2  v124
 BYTE   W36
//  #12 //034   ----------------------------------------
 BYTE   An2
 BYTE   W96
//  #12 //035   ----------------------------------------
 BYTE   W48
 BYTE   En2  v127
 BYTE   W36
 BYTE   N03
 BYTE   W04
 BYTE   En2  v114
 BYTE   W04
 BYTE   En2  v124
 BYTE   W04
//  #12 //036   ----------------------------------------
Label_01002EEB:
 BYTE   N23  An2  v127
 BYTE   W24
 BYTE   En3  v104
 BYTE   W24
 BYTE   En3
 BYTE   W24
 BYTE   An2
 BYTE   W24
 BYTE   PEND 
//  #12 //037   ----------------------------------------
Label_01002EF7:
 BYTE   N23  An2  v104
 BYTE   W24
 BYTE   En3
 BYTE   W24
 BYTE   En3
 BYTE   W24
 BYTE   An2
 BYTE   W24
 BYTE   PEND 
//  #12 //038   ----------------------------------------
 BYTE   PATT
  POIN2 Label_01002EF7
//  #12 //039   ----------------------------------------
 BYTE   N23  An2  v104
 BYTE   W24
 BYTE   En3
 BYTE   W24
 BYTE   En3
 BYTE   W24
 BYTE   N11  An2
 BYTE   W12
 BYTE   N05  En2  v127
 BYTE   W06
 BYTE   En2  v124
 BYTE   W06
//  #12 //040   ----------------------------------------
 BYTE   PATT
  POIN2 Label_01002EEB
//  #12 //041   ----------------------------------------
 BYTE   PATT
  POIN2 Label_01002EF7
//  #12 //042   ----------------------------------------
 BYTE   PATT
  POIN2 Label_01002EF7
//  #12 //043   ----------------------------------------
 BYTE   N23  An2  v104
 BYTE   W24
 BYTE   En3
 BYTE   W24
 BYTE   En3
 BYTE   W24
 BYTE   N11  An2
 BYTE   W12
 BYTE   N03  En2  v127
 BYTE   W04
 BYTE   En2  v104
 BYTE   W04
 BYTE   En2  v114
 BYTE   W04
//  #12 //044   ----------------------------------------
 BYTE   N23  Fn2  v124
 BYTE   W36
 BYTE   Cn3  v114
 BYTE   W24
 BYTE   N11
 BYTE   W12
 BYTE   N23  Fn2
 BYTE   W24
//  #12 //045   ----------------------------------------
 BYTE   En2
 BYTE   W24
 BYTE   N11
 BYTE   W12
 BYTE   N23  Bn2
 BYTE   W24
 BYTE   N11
 BYTE   W12
 BYTE   N23  En2
 BYTE   W24
//  #12 //046   ----------------------------------------
 BYTE   Fn2
 BYTE   W36
 BYTE   Cn3
 BYTE   W24
 BYTE   N11
 BYTE   W12
 BYTE   N23  Fn2
 BYTE   W24
//  #12 //047   ----------------------------------------
 BYTE   Gn2  v124
 BYTE   W36
 BYTE   Gn2  v114
 BYTE   W36
 BYTE   N11  Gn2  v124
 BYTE   W12
 BYTE   N05
 BYTE   W06
 BYTE   Gn2  v114
 BYTE   W06
//  #12 //048   ----------------------------------------
 BYTE   N23  An2  v124
 BYTE   W24
 BYTE   En3  v104
 BYTE   W24
 BYTE   En3
 BYTE   W24
 BYTE   An2
 BYTE   W24
//  #12 //049   ----------------------------------------
 BYTE   An2  v124
 BYTE   W36
 BYTE   An2  v114
 BYTE   W48
 BYTE   N03  Cn3  v094
 BYTE   W04
 BYTE   Cn3  v104
 BYTE   W04
 BYTE   Cn3  v114
 BYTE   W04
//  #12 //050   ----------------------------------------
Label_01002F88:
 BYTE   N23  Fn2  v114
 BYTE   W24
 BYTE   Cn3  v094
 BYTE   W24
 BYTE   Cn3
 BYTE   W24
 BYTE   Fn2
 BYTE   W24
 BYTE   PEND 
//  #12 //051   ----------------------------------------
 BYTE   PATT
  POIN2 Label_01002E04
//  #12 //052   ----------------------------------------
 BYTE   PATT
  POIN2 Label_01002F88
//  #12 //053   ----------------------------------------
 BYTE   N23  Fn2  v114
 BYTE   W24
 BYTE   N11  Cn3  v094
 BYTE   W12
 BYTE   N23  Fn2  v114
 BYTE   W36
 BYTE   N11  Cn3  v094
 BYTE   W12
 BYTE   N03
 BYTE   W04
 BYTE   Cn3  v104
 BYTE   W04
 BYTE   Cn3  v114
 BYTE   W04
//  #12 //054   ----------------------------------------
 BYTE   PATT
  POIN2 Label_01002E04
//  #12 //055   ----------------------------------------
 BYTE   GoTo
  POIN2 Label_01002E1B
 BYTE   FINE

//**************** Track 13 (Midi-Chn.12) ****************//

MLBowsersInsideStoryToughGuyAlertMeteorSR23_013:
//  #13 //000   ----------------------------------------
 BYTE   KEYSH   MLBowsersInsideStoryToughGuyAlertMeteorSR23_key+0
 BYTE   VOICE   6
 BYTE   VOL   29*MLBowsersInsideStoryToughGuyAlertMeteorSR23_mvl/mxv
 BYTE   BEND   c_v+1
 BYTE   PAN   c_v-56
 BYTE   N07  Fn0  v062
 BYTE   W12
 BYTE   N05  Fn1
 BYTE   W24
 BYTE   N08
 BYTE   W12
 BYTE   N07
 BYTE   W12
 BYTE   N05  Cn2
 BYTE   W12
 BYTE   Cn1
 BYTE   W12
 BYTE   N08  Fn1
 BYTE   W12
//  #13 //001   ----------------------------------------
 BYTE   PATT
  POIN2 Label_01002AF5
//  #13 //002   ----------------------------------------
 BYTE   W96
//  #13 //003   ----------------------------------------
 BYTE   PATT
  POIN2 Label_01002B09
//  #13 //004   ----------------------------------------
 BYTE   PATT
  POIN2 Label_01002B0F
//  #13 //005   ----------------------------------------
Label_01003399:
 BYTE   N07  Fn1  v062
 BYTE   W12
 BYTE   N05  Cn2
 BYTE   W12
 BYTE   Fn2
 BYTE   W12
 BYTE   N08  Cn2
 BYTE   W12
 BYTE   N07  Fn1
 BYTE   W12
 BYTE   N05  Cn2
 BYTE   W12
 BYTE   Fn2
 BYTE   W12
 BYTE   N08  Cn2
 BYTE   W12
//  #13 //006   ----------------------------------------
 BYTE   PATT
  POIN2 Label_01002B0F
//  #13 //007   ----------------------------------------
 BYTE   PATT
  POIN2 Label_01002B0F
//  #13 //008   ----------------------------------------
 BYTE   PATT
  POIN2 Label_01002B0F
//  #13 //009   ----------------------------------------
 BYTE   PATT
  POIN2 Label_01002B0F
//  #13 //010   ----------------------------------------
 BYTE   PATT
  POIN2 Label_01002B0F
//  #13 //011   ----------------------------------------
 BYTE   PATT
  POIN2 Label_01002B0F
//  #13 //012   ----------------------------------------
 BYTE   PATT
  POIN2 Label_01002B5C
//  #13 //013   ----------------------------------------
 BYTE   PATT
  POIN2 Label_01002B6F
//  #13 //014   ----------------------------------------
 BYTE   PATT
  POIN2 Label_01002B5C
//  #13 //015   ----------------------------------------
 BYTE   PATT
  POIN2 Label_01002B6F
//  #13 //016   ----------------------------------------
 BYTE   PATT
  POIN2 Label_01002B8C
//  #13 //017   ----------------------------------------
 BYTE   PATT
  POIN2 Label_01002B8C
//  #13 //018   ----------------------------------------
 BYTE   PATT
  POIN2 Label_01002B8C
//  #13 //019   ----------------------------------------
 BYTE   PATT
  POIN2 Label_01002B8C
//  #13 //020   ----------------------------------------
 BYTE   PATT
  POIN2 Label_01002B8C
//  #13 //021   ----------------------------------------
 BYTE   PATT
  POIN2 Label_01002B8C
//  #13 //022   ----------------------------------------
 BYTE   PATT
  POIN2 Label_01002B8C
//  #13 //023   ----------------------------------------
 BYTE   PATT
  POIN2 Label_01002B8C
//  #13 //024   ----------------------------------------
 BYTE   PATT
  POIN2 Label_01002BC7
//  #13 //025   ----------------------------------------
 BYTE   PATT
  POIN2 Label_01002BDA
//  #13 //026   ----------------------------------------
 BYTE   PATT
  POIN2 Label_01002BC7
//  #13 //027   ----------------------------------------
 BYTE   N23  En1  v062
 BYTE   W96
//  #13 //028   ----------------------------------------
 BYTE   W96
//  #13 //029   ----------------------------------------
 BYTE   W96
//  #13 //030   ----------------------------------------
 BYTE   W96
//  #13 //031   ----------------------------------------
 BYTE   W96
//  #13 //032   ----------------------------------------
 BYTE   W96
//  #13 //033   ----------------------------------------
 BYTE   W96
//  #13 //034   ----------------------------------------
 BYTE   W96
//  #13 //035   ----------------------------------------
 BYTE   W96
//  #13 //036   ----------------------------------------
 BYTE   PATT
  POIN2 Label_01002BFE
//  #13 //037   ----------------------------------------
 BYTE   PATT
  POIN2 Label_01002C13
//  #13 //038   ----------------------------------------
 BYTE   PATT
  POIN2 Label_01002BFE
//  #13 //039   ----------------------------------------
 BYTE   PATT
  POIN2 Label_01002C13
//  #13 //040   ----------------------------------------
 BYTE   PATT
  POIN2 Label_01002BFE
//  #13 //041   ----------------------------------------
 BYTE   PATT
  POIN2 Label_01002C13
//  #13 //042   ----------------------------------------
 BYTE   PATT
  POIN2 Label_01002BFE
//  #13 //043   ----------------------------------------
 BYTE   PATT
  POIN2 Label_01002C13
//  #13 //044   ----------------------------------------
 BYTE   PATT
  POIN2 Label_01002C46
//  #13 //045   ----------------------------------------
 BYTE   PATT
  POIN2 Label_01002C5B
//  #13 //046   ----------------------------------------
 BYTE   PATT
  POIN2 Label_01002C46
//  #13 //047   ----------------------------------------
 BYTE   PATT
  POIN2 Label_01002C75
//  #13 //048   ----------------------------------------
 BYTE   PATT
  POIN2 Label_01002C8A
//  #13 //049   ----------------------------------------
 BYTE   PATT
  POIN2 Label_01002C9F
//  #13 //050   ----------------------------------------
 BYTE   PATT
  POIN2 Label_01002CAF
//  #13 //051   ----------------------------------------
 BYTE   PATT
  POIN2 Label_01002AF5
//  #13 //052   ----------------------------------------
 BYTE   PATT
  POIN2 Label_01002CAF
//  #13 //053   ----------------------------------------
 BYTE   PATT
  POIN2 Label_01002CCC
//  #13 //054   ----------------------------------------
 BYTE   PATT
  POIN2 Label_01002B0F
//  #13 //055   ----------------------------------------
 BYTE   GoTo
  POIN2 Label_01003399
 BYTE   FINE

//**************** Track 14 (Midi-Chn.13) ****************//

MLBowsersInsideStoryToughGuyAlertMeteorSR23_014:
//  #14 //000   ----------------------------------------
 BYTE   KEYSH   MLBowsersInsideStoryToughGuyAlertMeteorSR23_key+0
 BYTE   VOICE   117
 BYTE   VOL   38*MLBowsersInsideStoryToughGuyAlertMeteorSR23_mvl/mxv
 BYTE   N11  Cn1  v105
 BYTE   W12
 BYTE   Dn2  v084
 BYTE   W12
 BYTE   Cn2  v105
 BYTE   W12
 BYTE   Dn2  v084
 BYTE   W12
 BYTE   Cn2  v105
 BYTE   W12
 BYTE   N05  Dn2  v084
 BYTE   W06
 BYTE   En2  v089
 BYTE   W06
 BYTE   N11  Cn2  v105
 BYTE   W12
 BYTE   Dn2  v084
 BYTE   W12
//  #14 //001   ----------------------------------------
Label_01003D34:
 BYTE   N11  Cn2  v105
 BYTE   W12
 BYTE   Dn2  v084
 BYTE   W12
 BYTE   Cn2  v105
 BYTE   W12
 BYTE   Dn2  v084
 BYTE   W12
 BYTE   Cn2  v105
 BYTE   W12
 BYTE   N05  Dn2  v084
 BYTE   W06
 BYTE   En2  v089
 BYTE   W06
 BYTE   N11  Cn2  v105
 BYTE   W12
 BYTE   Dn2  v084
 BYTE   W12
 BYTE   PEND 
//  #14 //002   ----------------------------------------
 BYTE   N92  Fn3  v078  gtp3
 BYTE   Fs2  v113
 BYTE   W96
//  #14 //003   ----------------------------------------
 BYTE   W72
 BYTE   N23  Fs2  v103
 BYTE   W24
//  #14 //004   ----------------------------------------
Label_01003D5F:
 BYTE   N23  Fs2  v103
 BYTE   N11  Cn2  v105
 BYTE   W12
 BYTE   Dn2  v084
 BYTE   W12
 BYTE   Cn2  v105
 BYTE   W12
 BYTE   Dn2  v084
 BYTE   W12
 BYTE   Cn2  v105
 BYTE   W12
 BYTE   N05  Dn2  v084
 BYTE   W06
 BYTE   En2  v089
 BYTE   W06
 BYTE   N11  Cn2  v105
 BYTE   W12
 BYTE   Dn2  v084
 BYTE   W12
 BYTE   PEND 
//  #14 //005   ----------------------------------------
Label_01003D81:
 BYTE   N11  Cn2  v105
 BYTE   W12
 BYTE   Dn2  v084
 BYTE   W12
 BYTE   Cn2  v105
 BYTE   W12
 BYTE   Dn2  v084
 BYTE   W12
 BYTE   Cn2  v105
 BYTE   W12
 BYTE   N05  Dn2  v084
 BYTE   W06
 BYTE   En2  v089
 BYTE   W06
 BYTE   N11  Cn2  v105
 BYTE   W12
 BYTE   Dn2  v084
 BYTE   W12
//  #14 //006   ----------------------------------------
 BYTE   PATT
  POIN2 Label_01003D34
//  #14 //007   ----------------------------------------
 BYTE   PATT
  POIN2 Label_01003D34
//  #14 //008   ----------------------------------------
 BYTE   PATT
  POIN2 Label_01003D34
//  #14 //009   ----------------------------------------
 BYTE   PATT
  POIN2 Label_01003D34
//  #14 //010   ----------------------------------------
 BYTE   PATT
  POIN2 Label_01003D34
//  #14 //011   ----------------------------------------
 BYTE   PATT
  POIN2 Label_01003D34
//  #14 //012   ----------------------------------------
 BYTE   PATT
  POIN2 Label_01003D34
//  #14 //013   ----------------------------------------
 BYTE   PATT
  POIN2 Label_01003D34
//  #14 //014   ----------------------------------------
 BYTE   PATT
  POIN2 Label_01003D34
//  #14 //015   ----------------------------------------
 BYTE   N11  Cn2  v105
 BYTE   W12
 BYTE   Dn2  v084
 BYTE   W12
 BYTE   N23  Fn3  v056
 BYTE   N11  Cn2  v105
 BYTE   W12
 BYTE   Dn2  v084
 BYTE   W12
 BYTE   N23  Fn3  v066
 BYTE   N11  Cn2  v105
 BYTE   W12
 BYTE   N05  Dn2  v084
 BYTE   W06
 BYTE   En2  v089
 BYTE   W06
 BYTE   N23  Fn3  v076
 BYTE   N11  Cn2  v105
 BYTE   W12
 BYTE   Dn2  v084
 BYTE   W12
//  #14 //016   ----------------------------------------
 BYTE   PATT
  POIN2 Label_01003D5F
//  #14 //017   ----------------------------------------
 BYTE   PATT
  POIN2 Label_01003D34
//  #14 //018   ----------------------------------------
 BYTE   PATT
  POIN2 Label_01003D34
//  #14 //019   ----------------------------------------
 BYTE   PATT
  POIN2 Label_01003D34
//  #14 //020   ----------------------------------------
 BYTE   PATT
  POIN2 Label_01003D34
//  #14 //021   ----------------------------------------
 BYTE   PATT
  POIN2 Label_01003D34
//  #14 //022   ----------------------------------------
 BYTE   PATT
  POIN2 Label_01003D34
//  #14 //023   ----------------------------------------
 BYTE   PATT
  POIN2 Label_01003D34
//  #14 //024   ----------------------------------------
 BYTE   PATT
  POIN2 Label_01003D34
//  #14 //025   ----------------------------------------
 BYTE   PATT
  POIN2 Label_01003D34
//  #14 //026   ----------------------------------------
 BYTE   PATT
  POIN2 Label_01003D34
//  #14 //027   ----------------------------------------
 BYTE   N92  Fn3  v076  gtp3
 BYTE   N11  Cn2  v115
 BYTE   W24
 BYTE   Fs2  v088
 BYTE   N11  Bn1  v115
 BYTE   W24
 BYTE   Fs2  v098
 BYTE   N11  Bn1  v115
 BYTE   W24
 BYTE   Fs2  v108
 BYTE   N11  Bn1  v115
 BYTE   W24
//  #14 //028   ----------------------------------------
 BYTE   N92  Fn3  v086  gtp3
 BYTE   N11  Fs2  v113
 BYTE   N23  Cn4  v120
 BYTE   W24
 BYTE   Bn3
 BYTE   W24
 BYTE   N11  Dn4  v115
 BYTE   W12
 BYTE   Cn4  v120
 BYTE   W12
 BYTE   Cn4  v080
 BYTE   W12
 BYTE   Dn4  v095
 BYTE   W12
//  #14 //029   ----------------------------------------
Label_01003E60:
 BYTE   N11  Cn4  v120
 BYTE   W12
 BYTE   Dn4  v105
 BYTE   W12
 BYTE   N23  Cn4  v120
 BYTE   W24
 BYTE   En4  v115
 BYTE   W24
 BYTE   N11  Cn4  v120
 BYTE   W12
 BYTE   Bn3  v100
 BYTE   W12
 BYTE   PEND 
//  #14 //030   ----------------------------------------
Label_01003E76:
 BYTE   N23  Cn4  v120
 BYTE   W24
 BYTE   Bn3
 BYTE   W24
 BYTE   N11  Dn4  v115
 BYTE   W12
 BYTE   Cn4  v120
 BYTE   W12
 BYTE   Cn4  v080
 BYTE   W12
 BYTE   Dn4  v095
 BYTE   W12
 BYTE   PEND 
//  #14 //031   ----------------------------------------
Label_01003E8A:
 BYTE   N11  Cn4  v120
 BYTE   W12
 BYTE   Dn4  v105
 BYTE   W12
 BYTE   Cn4  v120
 BYTE   W12
 BYTE   En4  v075
 BYTE   W12
 BYTE   N23  En4  v115
 BYTE   W24
 BYTE   Cn4  v120
 BYTE   W24
 BYTE   PEND 
//  #14 //032   ----------------------------------------
 BYTE   PATT
  POIN2 Label_01003E76
//  #14 //033   ----------------------------------------
 BYTE   PATT
  POIN2 Label_01003E60
//  #14 //034   ----------------------------------------
 BYTE   PATT
  POIN2 Label_01003E76
//  #14 //035   ----------------------------------------
 BYTE   PATT
  POIN2 Label_01003E8A
//  #14 //036   ----------------------------------------
Label_01003EB3:
 BYTE   N11  Cn2  v105
 BYTE   W12
 BYTE   Dn2  v074
 BYTE   W12
 BYTE   Cn2  v105
 BYTE   W12
 BYTE   Dn2  v074
 BYTE   W12
 BYTE   Cn2  v105
 BYTE   W12
 BYTE   N05  Dn2  v074
 BYTE   W06
 BYTE   En2  v079
 BYTE   W06
 BYTE   N11  Cn2  v105
 BYTE   W12
 BYTE   Dn2  v074
 BYTE   W12
 BYTE   PEND 
//  #14 //037   ----------------------------------------
 BYTE   PATT
  POIN2 Label_01003EB3
//  #14 //038   ----------------------------------------
Label_01003ED7:
 BYTE   N05  Dn2  v104
 BYTE   W06
 BYTE   Dn2  v074
 BYTE   W06
 BYTE   N11  Cn2  v105
 BYTE   W12
 BYTE   En2  v104
 BYTE   W12
 BYTE   Dn2  v084
 BYTE   W12
 BYTE   Cn2  v105
 BYTE   W12
 BYTE   N05  Dn2  v094
 BYTE   W06
 BYTE   En2  v099
 BYTE   W06
 BYTE   N11  Cn2  v105
 BYTE   W12
 BYTE   Dn2  v074
 BYTE   W12
 BYTE   PEND 
//  #14 //039   ----------------------------------------
 BYTE   PATT
  POIN2 Label_01003ED7
//  #14 //040   ----------------------------------------
 BYTE   PATT
  POIN2 Label_01003EB3
//  #14 //041   ----------------------------------------
 BYTE   PATT
  POIN2 Label_01003EB3
//  #14 //042   ----------------------------------------
 BYTE   PATT
  POIN2 Label_01003ED7
//  #14 //043   ----------------------------------------
 BYTE   PATT
  POIN2 Label_01003ED7
//  #14 //044   ----------------------------------------
 BYTE   PATT
  POIN2 Label_01003EB3
//  #14 //045   ----------------------------------------
Label_01003F18:
 BYTE   N11  Dn2  v104
 BYTE   W12
 BYTE   Cn2  v075
 BYTE   W12
 BYTE   Cn2  v055
 BYTE   W12
 BYTE   Dn2  v089
 BYTE   W12
 BYTE   N05  Cn2  v075
 BYTE   W06
 BYTE   Cn2  v055
 BYTE   W06
 BYTE   N11  Cn2  v065
 BYTE   W12
 BYTE   Dn2  v104
 BYTE   W12
 BYTE   Cn2  v075
 BYTE   W12
 BYTE   PEND 
//  #14 //046   ----------------------------------------
 BYTE   PATT
  POIN2 Label_01003EB3
//  #14 //047   ----------------------------------------
 BYTE   PATT
  POIN2 Label_01003F18
//  #14 //048   ----------------------------------------
 BYTE   PATT
  POIN2 Label_01003EB3
//  #14 //049   ----------------------------------------
 BYTE   N11  Dn2  v104
 BYTE   W12
 BYTE   N05  Cn2  v075
 BYTE   W06
 BYTE   Cn2  v065
 BYTE   W06
 BYTE   N11  Cn2  v075
 BYTE   W12
 BYTE   Dn2  v094
 BYTE   W60
//  #14 //050   ----------------------------------------
 BYTE   PATT
  POIN2 Label_01003D34
//  #14 //051   ----------------------------------------
 BYTE   PATT
  POIN2 Label_01003D34
//  #14 //052   ----------------------------------------
 BYTE   PATT
  POIN2 Label_01003D34
//  #14 //053   ----------------------------------------
 BYTE   N11  Dn2  v104
 BYTE   W12
 BYTE   Cn2  v075
 BYTE   W12
 BYTE   Cn2  v055
 BYTE   W12
 BYTE   Dn2  v089
 BYTE   W12
 BYTE   N05  Cn2  v075
 BYTE   W06
 BYTE   Cn2  v055
 BYTE   W06
 BYTE   N11  Cn2  v065
 BYTE   W12
 BYTE   N23  Fs2  v103
 BYTE   N11  Dn2  v104
 BYTE   W12
 BYTE   Cn2  v075
 BYTE   W12
//  #14 //054   ----------------------------------------
 BYTE   PATT
  POIN2 Label_01003D5F
//  #14 //055   ----------------------------------------
 BYTE   GoTo
  POIN2 Label_01003D81
 BYTE   FINE

//**************** Track 15 (Midi-Chn.14) ****************//

MLBowsersInsideStoryToughGuyAlertMeteorSR23_015:
//  #15 //000   ----------------------------------------
 BYTE   KEYSH   MLBowsersInsideStoryToughGuyAlertMeteorSR23_key+0
 BYTE   VOICE   56
 BYTE   PAN   c_v-24
 BYTE   VOL   87*MLBowsersInsideStoryToughGuyAlertMeteorSR23_mvl/mxv
 BYTE   W96
//  #15 //001   ----------------------------------------
 BYTE   W96
//  #15 //002   ----------------------------------------
 BYTE   W96
//  #15 //003   ----------------------------------------
 BYTE   W96
//  #15 //004   ----------------------------------------
Label_01003498:
 BYTE   W12
 BYTE   N02  Fn2  v107
 BYTE   W24
 BYTE   Fn2
 BYTE   W24
 BYTE   N01
 BYTE   W06
 BYTE   Fn2
 BYTE   W18
 BYTE   N02
 BYTE   W12
 BYTE   PEND 
//  #15 //005   ----------------------------------------
Label_010034A6:
 BYTE   W12
 BYTE   N02  Fn2  v107
 BYTE   W24
 BYTE   Fn2
 BYTE   W24
 BYTE   N01
 BYTE   W06
 BYTE   Fn2
 BYTE   W18
 BYTE   N02
 BYTE   W12
//  #15 //006   ----------------------------------------
 BYTE   PATT
  POIN2 Label_01003498
//  #15 //007   ----------------------------------------
 BYTE   PATT
  POIN2 Label_01003498
//  #15 //008   ----------------------------------------
 BYTE   PATT
  POIN2 Label_01003498
//  #15 //009   ----------------------------------------
 BYTE   PATT
  POIN2 Label_01003498
//  #15 //010   ----------------------------------------
 BYTE   PATT
  POIN2 Label_01003498
//  #15 //011   ----------------------------------------
 BYTE   PATT
  POIN2 Label_01003498
//  #15 //012   ----------------------------------------
Label_010034D1:
 BYTE   W12
 BYTE   N02  Ds2  v107
 BYTE   W24
 BYTE   Ds2
 BYTE   W24
 BYTE   N01
 BYTE   W06
 BYTE   Ds2
 BYTE   W18
 BYTE   N02
 BYTE   W12
 BYTE   PEND 
//  #15 //013   ----------------------------------------
 BYTE   W12
 BYTE   N01  Dn2
 BYTE   W06
 BYTE   Dn2
 BYTE   W18
 BYTE   N02
 BYTE   W24
 BYTE   Dn2
 BYTE   W24
 BYTE   Dn2
 BYTE   W12
//  #15 //014   ----------------------------------------
 BYTE   PATT
  POIN2 Label_010034D1
//  #15 //015   ----------------------------------------
 BYTE   W12
 BYTE   N02  Dn2  v117
 BYTE   W06
 BYTE   N01
 BYTE   W06
 BYTE   N22  Ds2  v087
 BYTE   W24
 BYTE   Fn2  v092
 BYTE   W24
 BYTE   Fn2  v097
 BYTE   W24
//  #15 //016   ----------------------------------------
 BYTE   N02  Gn2  v107
 BYTE   W12
 BYTE   Gn2
 BYTE   W24
 BYTE   Gn2
 BYTE   W24
 BYTE   N01
 BYTE   W06
 BYTE   Gn2
 BYTE   W18
 BYTE   N02
 BYTE   W12
//  #15 //017   ----------------------------------------
 BYTE   PATT
  POIN2 Label_0100319D
//  #15 //018   ----------------------------------------
 BYTE   PATT
  POIN2 Label_0100319D
//  #15 //019   ----------------------------------------
 BYTE   PATT
  POIN2 Label_0100319D
//  #15 //020   ----------------------------------------
 BYTE   PATT
  POIN2 Label_0100319D
//  #15 //021   ----------------------------------------
 BYTE   PATT
  POIN2 Label_0100319D
//  #15 //022   ----------------------------------------
 BYTE   PATT
  POIN2 Label_0100319D
//  #15 //023   ----------------------------------------
 BYTE   PATT
  POIN2 Label_0100319D
//  #15 //024   ----------------------------------------
 BYTE   PATT
  POIN2 Label_01003498
//  #15 //025   ----------------------------------------
 BYTE   W12
 BYTE   N01  En2  v107
 BYTE   W06
 BYTE   En2
 BYTE   W18
 BYTE   N02
 BYTE   W24
 BYTE   En2
 BYTE   W24
 BYTE   En2
 BYTE   W12
//  #15 //026   ----------------------------------------
 BYTE   PATT
  POIN2 Label_01003498
//  #15 //027   ----------------------------------------
 BYTE   W12
 BYTE   N02  En2  v117
 BYTE   W06
 BYTE   N01
 BYTE   W06
 BYTE   N22  Fn2  v087
 BYTE   W24
 BYTE   Gn2  v092
 BYTE   W24
 BYTE   Gn2  v097
 BYTE   W24
//  #15 //028   ----------------------------------------
 BYTE   W96
//  #15 //029   ----------------------------------------
 BYTE   W96
//  #15 //030   ----------------------------------------
 BYTE   W96
//  #15 //031   ----------------------------------------
 BYTE   W96
//  #15 //032   ----------------------------------------
 BYTE   W96
//  #15 //033   ----------------------------------------
 BYTE   W96
//  #15 //034   ----------------------------------------
 BYTE   W96
//  #15 //035   ----------------------------------------
 BYTE   W96
//  #15 //036   ----------------------------------------
Label_01003562:
 BYTE   W12
 BYTE   N02  En2  v112
 BYTE   W24
 BYTE   En2
 BYTE   W24
 BYTE   N01
 BYTE   W06
 BYTE   En2
 BYTE   W18
 BYTE   N02
 BYTE   W12
 BYTE   PEND 
//  #15 //037   ----------------------------------------
 BYTE   PATT
  POIN2 Label_01003562
//  #15 //038   ----------------------------------------
 BYTE   PATT
  POIN2 Label_01003562
//  #15 //039   ----------------------------------------
 BYTE   PATT
  POIN2 Label_01003562
//  #15 //040   ----------------------------------------
 BYTE   PATT
  POIN2 Label_01003562
//  #15 //041   ----------------------------------------
 BYTE   PATT
  POIN2 Label_01003562
//  #15 //042   ----------------------------------------
 BYTE   PATT
  POIN2 Label_01003562
//  #15 //043   ----------------------------------------
 BYTE   PATT
  POIN2 Label_01003562
//  #15 //044   ----------------------------------------
Label_01003593:
 BYTE   W12
 BYTE   N02  Fn2  v112
 BYTE   W24
 BYTE   Fn2
 BYTE   W24
 BYTE   N01
 BYTE   W06
 BYTE   Fn2
 BYTE   W18
 BYTE   N02
 BYTE   W12
 BYTE   PEND 
//  #15 //045   ----------------------------------------
 BYTE   PATT
  POIN2 Label_01003562
//  #15 //046   ----------------------------------------
 BYTE   PATT
  POIN2 Label_01003593
//  #15 //047   ----------------------------------------
 BYTE   N44  Dn2  v093  gtp3
 BYTE   W48
 BYTE   Bn1
 BYTE   W48
//  #15 //048   ----------------------------------------
 BYTE   N05  An1  v112
 BYTE   W12
 BYTE   N02  En2
 BYTE   W24
 BYTE   En2
 BYTE   W24
 BYTE   N01
 BYTE   W06
 BYTE   En2
 BYTE   W18
 BYTE   N02
 BYTE   W12
//  #15 //049   ----------------------------------------
 BYTE   W96
//  #15 //050   ----------------------------------------
 BYTE   W96
//  #15 //051   ----------------------------------------
 BYTE   W96
//  #15 //052   ----------------------------------------
 BYTE   W96
//  #15 //053   ----------------------------------------
 BYTE   W96
//  #15 //054   ----------------------------------------
 BYTE   PATT
  POIN2 Label_01003498
//  #15 //055   ----------------------------------------
 BYTE   GoTo
  POIN2 Label_010034A6
 BYTE   FINE

//******************************************************//
	ALIGN 4

MLBowsersInsideStoryToughGuyAlertMeteorSR23:
	BYTE	15	// NumTrks
	BYTE	0	// NumBlks
	BYTE	MLBowsersInsideStoryToughGuyAlertMeteorSR23_pri	// Priority
	BYTE	MLBowsersInsideStoryToughGuyAlertMeteorSR23_rev	// Reverb.
    
	POIN2	MLBowsersInsideStoryToughGuyAlertMeteorSR23_grp
    
	POIN2	MLBowsersInsideStoryToughGuyAlertMeteorSR23_001
	POIN2	MLBowsersInsideStoryToughGuyAlertMeteorSR23_002
	POIN2	MLBowsersInsideStoryToughGuyAlertMeteorSR23_003
	POIN2	MLBowsersInsideStoryToughGuyAlertMeteorSR23_004
	POIN2	MLBowsersInsideStoryToughGuyAlertMeteorSR23_005
	POIN2	MLBowsersInsideStoryToughGuyAlertMeteorSR23_006
	POIN2	MLBowsersInsideStoryToughGuyAlertMeteorSR23_007
	POIN2	MLBowsersInsideStoryToughGuyAlertMeteorSR23_008
	POIN2	MLBowsersInsideStoryToughGuyAlertMeteorSR23_009
	POIN2	MLBowsersInsideStoryToughGuyAlertMeteorSR23_010
	POIN2	MLBowsersInsideStoryToughGuyAlertMeteorSR23_011
	POIN2	MLBowsersInsideStoryToughGuyAlertMeteorSR23_012
	POIN2	MLBowsersInsideStoryToughGuyAlertMeteorSR23_013
	POIN2	MLBowsersInsideStoryToughGuyAlertMeteorSR23_014
	POIN2	MLBowsersInsideStoryToughGuyAlertMeteorSR23_015

	
