//Event file generated from Sappy .s format.
	#include "MPlayDef.event"

	#define	MLSuperstarSagaCacklettaBattleDolkar_grp  voicegroup000
	#define	MLSuperstarSagaCacklettaBattleDolkar_pri  0
	#define	MLSuperstarSagaCacklettaBattleDolkar_rev  0
	#define	MLSuperstarSagaCacklettaBattleDolkar_mvl  127
	#define	MLSuperstarSagaCacklettaBattleDolkar_key  0
	#define	MLSuperstarSagaCacklettaBattleDolkar_tbs  1
	#define	MLSuperstarSagaCacklettaBattleDolkar_exg  0
	#define	MLSuperstarSagaCacklettaBattleDolkar_cmp  1

	// .rodata
	//	MLSuperstarSagaCacklettaBattleDolkar
	ALIGN 4


//**************** Track 1 (Midi-Chn.0) ****************//

MLSuperstarSagaCacklettaBattleDolkar_001:
//  #01 //000   ----------------------------------------
 BYTE   KEYSH   MLSuperstarSagaCacklettaBattleDolkar_key+0
Label_0100444E:
 BYTE   TEMPO   180*MLSuperstarSagaCacklettaBattleDolkar_tbs/2
 BYTE   VOICE   23
 BYTE   VOL   76*MLSuperstarSagaCacklettaBattleDolkar_mvl/mxv
 BYTE   N08  An2  v100
 BYTE   N06  An3
 BYTE   W12
 BYTE   N04  An2
 BYTE   N04  An3
 BYTE   W06
 BYTE   Gs2
 BYTE   N04  Gs3
 BYTE   W06
 BYTE   N08  An2
 BYTE   N06  An3
 BYTE   W12
 BYTE   N04  An2
 BYTE   N04  An3
 BYTE   W06
 BYTE   Gs2
 BYTE   N04  Gs3
 BYTE   W06
 BYTE   N06  An3
 BYTE   W01
 BYTE   N04  An2
 BYTE   W11
 BYTE   N08  Cs3
 BYTE   N08  Cs4
 BYTE   W24
 BYTE   N48  Ds3
 BYTE   N48  Ds4
 BYTE   W12
//  #01 //001   ----------------------------------------
Label_01004481:
 BYTE   W48
 BYTE   N12  Fs4  v100
 BYTE   W01
 BYTE   Fs3
 BYTE   W23
 BYTE   En3
 BYTE   N12  En4
 BYTE   W24
 BYTE   PEND 
//  #01 //002   ----------------------------------------
Label_0100448D:
 BYTE   N08  Ds3  v100
 BYTE   N06  Ds4
 BYTE   W12
 BYTE   N04  Ds3
 BYTE   N04  Ds4
 BYTE   W06
 BYTE   Cs3
 BYTE   N04  Cs4
 BYTE   W06
 BYTE   N08  Ds3
 BYTE   N06  Ds4
 BYTE   W12
 BYTE   N04  Ds3
 BYTE   N04  Ds4
 BYTE   W06
 BYTE   Cs3
 BYTE   N04  Cs4
 BYTE   W06
 BYTE   N08  Ds3
 BYTE   N08  Ds4
 BYTE   W12
 BYTE   Bn2
 BYTE   N08  Bn3
 BYTE   W24
 BYTE   N48  Fn2
 BYTE   W01
 BYTE   Fn3
 BYTE   W11
 BYTE   PEND 
//  #01 //003   ----------------------------------------
Label_010044B9:
 BYTE   W44
 BYTE   W03
 BYTE   N12  En3  v100
 BYTE   W01
 BYTE   En2
 BYTE   W24
 BYTE   Fs2
 BYTE   N12  Fs3
 BYTE   W24
 BYTE   PEND 
//  #01 //004   ----------------------------------------
Label_010044C6:
 BYTE   N08  Gn2  v100
 BYTE   N08  Gn3
 BYTE   W12
 BYTE   N04  Gn2
 BYTE   N04  Gn3
 BYTE   W06
 BYTE   Fs2
 BYTE   N04  Fs3
 BYTE   W06
 BYTE   N08  Gn2
 BYTE   N08  Gn3
 BYTE   W12
 BYTE   N04  Gn2
 BYTE   N04  Gn3
 BYTE   W06
 BYTE   Fs2
 BYTE   N04  Fs3
 BYTE   W06
 BYTE   N08  Gn2
 BYTE   N08  Gn3
 BYTE   W12
 BYTE   Bn2
 BYTE   N08  Bn3
 BYTE   W24
 BYTE   N48  Cs3
 BYTE   N48  Cs4
 BYTE   W12
 BYTE   PEND 
//  #01 //005   ----------------------------------------
Label_010044F2:
 BYTE   W48
 BYTE   N12  En3  v100
 BYTE   W01
 BYTE   En4
 BYTE   W23
 BYTE   Dn4
 BYTE   W01
 BYTE   Dn3
 BYTE   W23
 BYTE   PEND 
//  #01 //006   ----------------------------------------
Label_010044FE:
 BYTE   N08  Cs3  v100
 BYTE   N08  Cs4
 BYTE   W12
 BYTE   N04  Cs3
 BYTE   N04  Cs4
 BYTE   W06
 BYTE   Bn2
 BYTE   N04  Bn3
 BYTE   W06
 BYTE   N08  Cs3
 BYTE   N08  Cs4
 BYTE   W12
 BYTE   N04  Cs3
 BYTE   N04  Cs4
 BYTE   W06
 BYTE   Bn2
 BYTE   N04  Bn3
 BYTE   W06
 BYTE   N08  Cs3
 BYTE   N08  Cs4
 BYTE   W12
 BYTE   An2
 BYTE   N08  An3
 BYTE   W23
 BYTE   N48  Ds2
 BYTE   W01
 BYTE   Ds3
 BYTE   W12
 BYTE   PEND 
//  #01 //007   ----------------------------------------
Label_0100452A:
 BYTE   W48
 BYTE   N12  Dn3  v100
 BYTE   W01
 BYTE   Dn2
 BYTE   W44
 BYTE   W03
 BYTE   PEND 
//  #01 //008   ----------------------------------------
 BYTE   W96
//  #01 //009   ----------------------------------------
 BYTE   W96
//  #01 //010   ----------------------------------------
 BYTE   W96
//  #01 //011   ----------------------------------------
 BYTE   W96
//  #01 //012   ----------------------------------------
 BYTE   W96
//  #01 //013   ----------------------------------------
 BYTE   W96
//  #01 //014   ----------------------------------------
 BYTE   W96
//  #01 //015   ----------------------------------------
 BYTE   W96
//  #01 //016   ----------------------------------------
 BYTE   W96
//  #01 //017   ----------------------------------------
 BYTE   W96
//  #01 //018   ----------------------------------------
 BYTE   W96
//  #01 //019   ----------------------------------------
 BYTE   W96
//  #01 //020   ----------------------------------------
 BYTE   W96
//  #01 //021   ----------------------------------------
 BYTE   W90
 BYTE   N04  Gs2
 BYTE   N04  Gs3
 BYTE   W06
//  #01 //022   ----------------------------------------
 BYTE   N08  An2
 BYTE   N06  An3
 BYTE   W12
 BYTE   N04  An2
 BYTE   N04  An3
 BYTE   W06
 BYTE   Gs2
 BYTE   N04  Gs3
 BYTE   W06
 BYTE   N08  An2
 BYTE   N06  An3
 BYTE   W12
 BYTE   N04  An2
 BYTE   N04  An3
 BYTE   W06
 BYTE   Gs2
 BYTE   N04  Gs3
 BYTE   W06
 BYTE   N06  An3
 BYTE   W01
 BYTE   N04  An2
 BYTE   W11
 BYTE   N08  Cs3
 BYTE   N08  Cs4
 BYTE   W24
 BYTE   N48  Ds3
 BYTE   N48  Ds4
 BYTE   W12
//  #01 //023   ----------------------------------------
 BYTE   PATT
  POIN2 Label_01004481
//  #01 //024   ----------------------------------------
 BYTE   PATT
  POIN2 Label_0100448D
//  #01 //025   ----------------------------------------
 BYTE   PATT
  POIN2 Label_010044B9
//  #01 //026   ----------------------------------------
 BYTE   PATT
  POIN2 Label_010044C6
//  #01 //027   ----------------------------------------
 BYTE   PATT
  POIN2 Label_010044F2
//  #01 //028   ----------------------------------------
 BYTE   PATT
  POIN2 Label_010044FE
//  #01 //029   ----------------------------------------
 BYTE   PATT
  POIN2 Label_0100452A
//  #01 //030   ----------------------------------------
 BYTE   W96
//  #01 //031   ----------------------------------------
 BYTE   W96
//  #01 //032   ----------------------------------------
 BYTE   W96
//  #01 //033   ----------------------------------------
 BYTE   W96
//  #01 //034   ----------------------------------------
 BYTE   W96
//  #01 //035   ----------------------------------------
 BYTE   W96
//  #01 //036   ----------------------------------------
 BYTE   W96
//  #01 //037   ----------------------------------------
 BYTE   W96
//  #01 //038   ----------------------------------------
 BYTE   W96
//  #01 //039   ----------------------------------------
 BYTE   W96
//  #01 //040   ----------------------------------------
 BYTE   W96
//  #01 //041   ----------------------------------------
 BYTE   W96
//  #01 //042   ----------------------------------------
 BYTE   W96
//  #01 //043   ----------------------------------------
 BYTE   W96
//  #01 //044   ----------------------------------------
 BYTE   GoTo
  POIN2 Label_0100444E
 BYTE   FINE

//**************** Track 2 (Midi-Chn.1) ****************//

MLSuperstarSagaCacklettaBattleDolkar_002:
//  #02 //000   ----------------------------------------
 BYTE   KEYSH   MLSuperstarSagaCacklettaBattleDolkar_key+0
Label_01002DF6:
 BYTE   VOICE   47
 BYTE   VOL   76*MLSuperstarSagaCacklettaBattleDolkar_mvl/mxv
 BYTE   N08  An0  v100
 BYTE   N08  An1
 BYTE   W24
 BYTE   An0
 BYTE   N08  An1
 BYTE   W24
 BYTE   An0
 BYTE   N08  An1
 BYTE   W24
 BYTE   An0
 BYTE   N08  An1
 BYTE   W24
//  #02 //001   ----------------------------------------
Label_01002E0C:
 BYTE   N08  An0  v100
 BYTE   N08  An1
 BYTE   W24
 BYTE   An0
 BYTE   N08  An1
 BYTE   W24
 BYTE   An0
 BYTE   N08  An1
 BYTE   W24
 BYTE   An0
 BYTE   N08  An1
 BYTE   W24
 BYTE   PEND 
//  #02 //002   ----------------------------------------
 BYTE   PATT
  POIN2 Label_01002E0C
//  #02 //003   ----------------------------------------
Label_01002E24:
 BYTE   N08  An0  v100
 BYTE   N08  An1
 BYTE   W24
 BYTE   An0
 BYTE   N08  An1
 BYTE   W24
 BYTE   An0
 BYTE   N08  An1
 BYTE   W48
 BYTE   PEND 
//  #02 //004   ----------------------------------------
Label_01002E33:
 BYTE   N08  Gn0  v100
 BYTE   N08  Gn1
 BYTE   W24
 BYTE   Gn0
 BYTE   N08  Gn1
 BYTE   W24
 BYTE   Gn0
 BYTE   N08  Gn1
 BYTE   W24
 BYTE   Gn0
 BYTE   N08  Gn1
 BYTE   W24
 BYTE   PEND 
//  #02 //005   ----------------------------------------
 BYTE   PATT
  POIN2 Label_01002E33
//  #02 //006   ----------------------------------------
 BYTE   PATT
  POIN2 Label_01002E33
//  #02 //007   ----------------------------------------
Label_01002E50:
 BYTE   N08  Gn0  v100
 BYTE   N08  Gn1
 BYTE   W24
 BYTE   Gn0
 BYTE   N08  Gn1
 BYTE   W24
 BYTE   Gn0
 BYTE   N08  Gn1
 BYTE   W48
 BYTE   PEND 
//  #02 //008   ----------------------------------------
Label_01002E5F:
 BYTE   W12
 BYTE   N08  Bn0  v100
 BYTE   N08  Bn1
 BYTE   W24
 BYTE   Bn0
 BYTE   N08  Bn1
 BYTE   W24
 BYTE   Bn0
 BYTE   N08  Bn1
 BYTE   W24
 BYTE   Bn0
 BYTE   N08  Bn1
 BYTE   W12
 BYTE   PEND 
//  #02 //009   ----------------------------------------
 BYTE   PATT
  POIN2 Label_01002E5F
//  #02 //010   ----------------------------------------
 BYTE   PATT
  POIN2 Label_01002E5F
//  #02 //011   ----------------------------------------
 BYTE   PATT
  POIN2 Label_01002E5F
//  #02 //012   ----------------------------------------
 BYTE   PATT
  POIN2 Label_01002E0C
//  #02 //013   ----------------------------------------
 BYTE   PATT
  POIN2 Label_01002E0C
//  #02 //014   ----------------------------------------
 BYTE   PATT
  POIN2 Label_01002E0C
//  #02 //015   ----------------------------------------
 BYTE   PATT
  POIN2 Label_01002E0C
//  #02 //016   ----------------------------------------
Label_01002E96:
 BYTE   N08  Cn1  v100
 BYTE   N08  Cn2
 BYTE   W24
 BYTE   Cn1
 BYTE   N08  Cn2
 BYTE   W24
 BYTE   As0
 BYTE   N08  As1
 BYTE   W24
 BYTE   As0
 BYTE   W01
 BYTE   As1
 BYTE   W23
 BYTE   PEND 
//  #02 //017   ----------------------------------------
Label_01002EA9:
 BYTE   N08  Gn0  v100
 BYTE   N08  Gn1
 BYTE   W24
 BYTE   Gn0
 BYTE   N08  Gn1
 BYTE   W24
 BYTE   Fn0
 BYTE   N08  Fn1
 BYTE   W24
 BYTE   Fn0
 BYTE   N08  Fn1
 BYTE   W24
 BYTE   PEND 
//  #02 //018   ----------------------------------------
Label_01002EBC:
 BYTE   N08  Gs0  v100
 BYTE   N08  Gs1
 BYTE   W24
 BYTE   Gs0
 BYTE   N08  Gs1
 BYTE   W24
 BYTE   Fn0
 BYTE   N08  Fn1
 BYTE   W24
 BYTE   Fn0
 BYTE   N08  Fn1
 BYTE   W24
 BYTE   PEND 
//  #02 //019   ----------------------------------------
Label_01002ECF:
 BYTE   N08  Gn0  v100
 BYTE   N08  Gn1
 BYTE   W24
 BYTE   Gn0
 BYTE   N08  Gn1
 BYTE   W24
 BYTE   En0
 BYTE   N08  En1
 BYTE   W24
 BYTE   Fn0
 BYTE   N08  Fn1
 BYTE   W24
 BYTE   PEND 
//  #02 //020   ----------------------------------------
 BYTE   PATT
  POIN2 Label_01002EBC
//  #02 //021   ----------------------------------------
Label_01002EE7:
 BYTE   N08  En0  v100
 BYTE   N08  En1
 BYTE   W24
 BYTE   En0
 BYTE   N08  En1
 BYTE   W24
 BYTE   Cn0
 BYTE   W01
 BYTE   Cn1
 BYTE   W44
 BYTE   W03
 BYTE   PEND 
//  #02 //022   ----------------------------------------
 BYTE   PATT
  POIN2 Label_01002E0C
//  #02 //023   ----------------------------------------
 BYTE   PATT
  POIN2 Label_01002E0C
//  #02 //024   ----------------------------------------
 BYTE   PATT
  POIN2 Label_01002E0C
//  #02 //025   ----------------------------------------
 BYTE   PATT
  POIN2 Label_01002E24
//  #02 //026   ----------------------------------------
 BYTE   PATT
  POIN2 Label_01002E33
//  #02 //027   ----------------------------------------
 BYTE   PATT
  POIN2 Label_01002E33
//  #02 //028   ----------------------------------------
 BYTE   PATT
  POIN2 Label_01002E33
//  #02 //029   ----------------------------------------
 BYTE   PATT
  POIN2 Label_01002E50
//  #02 //030   ----------------------------------------
 BYTE   PATT
  POIN2 Label_01002E5F
//  #02 //031   ----------------------------------------
 BYTE   PATT
  POIN2 Label_01002E5F
//  #02 //032   ----------------------------------------
 BYTE   PATT
  POIN2 Label_01002E5F
//  #02 //033   ----------------------------------------
 BYTE   PATT
  POIN2 Label_01002E5F
//  #02 //034   ----------------------------------------
 BYTE   PATT
  POIN2 Label_01002E0C
//  #02 //035   ----------------------------------------
 BYTE   PATT
  POIN2 Label_01002E0C
//  #02 //036   ----------------------------------------
 BYTE   PATT
  POIN2 Label_01002E0C
//  #02 //037   ----------------------------------------
 BYTE   PATT
  POIN2 Label_01002E0C
//  #02 //038   ----------------------------------------
 BYTE   PATT
  POIN2 Label_01002E96
//  #02 //039   ----------------------------------------
 BYTE   PATT
  POIN2 Label_01002EA9
//  #02 //040   ----------------------------------------
 BYTE   PATT
  POIN2 Label_01002EBC
//  #02 //041   ----------------------------------------
 BYTE   PATT
  POIN2 Label_01002ECF
//  #02 //042   ----------------------------------------
 BYTE   PATT
  POIN2 Label_01002EBC
//  #02 //043   ----------------------------------------
 BYTE   PATT
  POIN2 Label_01002EE7
//  #02 //044   ----------------------------------------
 BYTE   GoTo
  POIN2 Label_01002DF6
 BYTE   FINE

//**************** Track 3 (Midi-Chn.2) ****************//

MLSuperstarSagaCacklettaBattleDolkar_003:
//  #03 //000   ----------------------------------------
 BYTE   KEYSH   MLSuperstarSagaCacklettaBattleDolkar_key+0
Label_01004302:
 BYTE   VOICE   68
 BYTE   VOL   76*MLSuperstarSagaCacklettaBattleDolkar_mvl/mxv
 BYTE   W96
//  #03 //001   ----------------------------------------
 BYTE   W96
//  #03 //002   ----------------------------------------
 BYTE   W96
//  #03 //003   ----------------------------------------
 BYTE   W96
//  #03 //004   ----------------------------------------
 BYTE   W96
//  #03 //005   ----------------------------------------
 BYTE   W96
//  #03 //006   ----------------------------------------
 BYTE   W96
//  #03 //007   ----------------------------------------
 BYTE   W96
//  #03 //008   ----------------------------------------
Label_0100430E:
 BYTE   N08  Bn3  v100
 BYTE   N08  Bn4
 BYTE   W12
 BYTE   Bn3
 BYTE   N08  Bn4
 BYTE   W12
 BYTE   Cn4
 BYTE   N08  Cn5
 BYTE   W12
 BYTE   En4
 BYTE   N08  En5
 BYTE   W12
 BYTE   N02  Ds4
 BYTE   N02  Ds5
 BYTE   W04
 BYTE   En4
 BYTE   N02  En5
 BYTE   W04
 BYTE   Ds4
 BYTE   N02  Ds5
 BYTE   W04
 BYTE   N08  Cn4
 BYTE   N08  Cn5
 BYTE   W12
 BYTE   Bn3
 BYTE   N08  Bn4
 BYTE   W12
 BYTE   An3
 BYTE   N08  An4
 BYTE   W12
 BYTE   PEND 
//  #03 //009   ----------------------------------------
Label_0100433B:
 BYTE   N08  Gs3  v100
 BYTE   N08  Gs4
 BYTE   W12
 BYTE   An3
 BYTE   N08  An4
 BYTE   W12
 BYTE   Bn3
 BYTE   N08  Bn4
 BYTE   W12
 BYTE   En4
 BYTE   W12
 BYTE   Fs3
 BYTE   N08  Fs4
 BYTE   W12
 BYTE   Gs3
 BYTE   N08  Gs4
 BYTE   W12
 BYTE   An3
 BYTE   N08  An4
 BYTE   W12
 BYTE   Bn3
 BYTE   N08  Bn4
 BYTE   W12
 BYTE   PEND 
//  #03 //010   ----------------------------------------
 BYTE   PATT
  POIN2 Label_0100430E
//  #03 //011   ----------------------------------------
 BYTE   PATT
  POIN2 Label_0100433B
//  #03 //012   ----------------------------------------
 BYTE   W96
//  #03 //013   ----------------------------------------
 BYTE   W96
//  #03 //014   ----------------------------------------
 BYTE   W96
//  #03 //015   ----------------------------------------
 BYTE   W96
//  #03 //016   ----------------------------------------
 BYTE   W96
//  #03 //017   ----------------------------------------
 BYTE   W96
//  #03 //018   ----------------------------------------
 BYTE   W96
//  #03 //019   ----------------------------------------
 BYTE   W96
//  #03 //020   ----------------------------------------
 BYTE   W96
//  #03 //021   ----------------------------------------
 BYTE   W96
//  #03 //022   ----------------------------------------
 BYTE   W96
//  #03 //023   ----------------------------------------
 BYTE   W96
//  #03 //024   ----------------------------------------
 BYTE   W96
//  #03 //025   ----------------------------------------
 BYTE   W96
//  #03 //026   ----------------------------------------
 BYTE   W96
//  #03 //027   ----------------------------------------
 BYTE   W96
//  #03 //028   ----------------------------------------
 BYTE   W96
//  #03 //029   ----------------------------------------
 BYTE   W96
//  #03 //030   ----------------------------------------
 BYTE   PATT
  POIN2 Label_0100430E
//  #03 //031   ----------------------------------------
 BYTE   PATT
  POIN2 Label_0100433B
//  #03 //032   ----------------------------------------
 BYTE   PATT
  POIN2 Label_0100430E
//  #03 //033   ----------------------------------------
 BYTE   PATT
  POIN2 Label_0100433B
//  #03 //034   ----------------------------------------
 BYTE   W96
//  #03 //035   ----------------------------------------
 BYTE   W96
//  #03 //036   ----------------------------------------
 BYTE   W96
//  #03 //037   ----------------------------------------
 BYTE   W96
//  #03 //038   ----------------------------------------
 BYTE   W96
//  #03 //039   ----------------------------------------
 BYTE   W96
//  #03 //040   ----------------------------------------
 BYTE   W96
//  #03 //041   ----------------------------------------
 BYTE   W96
//  #03 //042   ----------------------------------------
 BYTE   W96
//  #03 //043   ----------------------------------------
 BYTE   W96
//  #03 //044   ----------------------------------------
 BYTE   GoTo
  POIN2 Label_01004302
 BYTE   FINE

//**************** Track 4 (Midi-Chn.3) ****************//

MLSuperstarSagaCacklettaBattleDolkar_004:
//  #04 //000   ----------------------------------------
 BYTE   KEYSH   MLSuperstarSagaCacklettaBattleDolkar_key+0
Label_010036EA:
 BYTE   VOICE   38
 BYTE   VOL   55*MLSuperstarSagaCacklettaBattleDolkar_mvl/mxv
 BYTE   N08  An0  v100
 BYTE   N08  An1
 BYTE   W12
 BYTE   N08
 BYTE   N08  An2
 BYTE   W12
 BYTE   An0
 BYTE   N08  An1
 BYTE   W12
 BYTE   N08
 BYTE   N08  An2
 BYTE   W12
 BYTE   An0
 BYTE   N08  An1
 BYTE   W12
 BYTE   N08
 BYTE   N08  An2
 BYTE   W12
 BYTE   An0
 BYTE   N08  An1
 BYTE   W12
 BYTE   N08
 BYTE   N08  An2
 BYTE   W12
//  #04 //001   ----------------------------------------
Label_01003710:
 BYTE   N08  An0  v100
 BYTE   N08  An1
 BYTE   W12
 BYTE   N08
 BYTE   N08  An2
 BYTE   W12
 BYTE   An0
 BYTE   N08  An1
 BYTE   W12
 BYTE   N08
 BYTE   N08  An2
 BYTE   W12
 BYTE   An0
 BYTE   N08  An1
 BYTE   W12
 BYTE   N08
 BYTE   N08  An2
 BYTE   W12
 BYTE   An0
 BYTE   N08  An1
 BYTE   W12
 BYTE   N08
 BYTE   N08  An2
 BYTE   W12
 BYTE   PEND 
//  #04 //002   ----------------------------------------
 BYTE   PATT
  POIN2 Label_01003710
//  #04 //003   ----------------------------------------
Label_01003738:
 BYTE   N08  An0  v100
 BYTE   N08  An1
 BYTE   W12
 BYTE   N08
 BYTE   N08  An2
 BYTE   W12
 BYTE   An0
 BYTE   N08  An1
 BYTE   W12
 BYTE   N08
 BYTE   N08  An2
 BYTE   W12
 BYTE   An0
 BYTE   N08  An1
 BYTE   W12
 BYTE   N08
 BYTE   N08  An2
 BYTE   W36
 BYTE   PEND 
//  #04 //004   ----------------------------------------
Label_01003753:
 BYTE   N08  Gn0  v100
 BYTE   N08  Gn1
 BYTE   W12
 BYTE   N08
 BYTE   N08  Gn2
 BYTE   W12
 BYTE   Gn0
 BYTE   N08  Gn1
 BYTE   W12
 BYTE   N08
 BYTE   N08  Gn2
 BYTE   W12
 BYTE   Gn0
 BYTE   N08  Gn1
 BYTE   W12
 BYTE   N08
 BYTE   N08  Gn2
 BYTE   W12
 BYTE   Gn0
 BYTE   N08  Gn1
 BYTE   W12
 BYTE   N08
 BYTE   N08  Gn2
 BYTE   W12
 BYTE   PEND 
//  #04 //005   ----------------------------------------
 BYTE   PATT
  POIN2 Label_01003753
//  #04 //006   ----------------------------------------
 BYTE   PATT
  POIN2 Label_01003753
//  #04 //007   ----------------------------------------
Label_01003780:
 BYTE   N08  Gn0  v100
 BYTE   N08  Gn1
 BYTE   W12
 BYTE   N08
 BYTE   N08  Gn2
 BYTE   W12
 BYTE   Gn0
 BYTE   N08  Gn1
 BYTE   W12
 BYTE   N08
 BYTE   N08  Gn2
 BYTE   W12
 BYTE   Gn0
 BYTE   N08  Gn1
 BYTE   W12
 BYTE   N08
 BYTE   N08  Gn2
 BYTE   W36
 BYTE   PEND 
//  #04 //008   ----------------------------------------
Label_0100379B:
 BYTE   W12
 BYTE   N04  Bn0  v100
 BYTE   N04  Bn1
 BYTE   W06
 BYTE   Bn0
 BYTE   N04  Bn1
 BYTE   W18
 BYTE   Bn0
 BYTE   N04  Bn1
 BYTE   W06
 BYTE   Bn0
 BYTE   N04  Bn1
 BYTE   W18
 BYTE   Bn0
 BYTE   N04  Bn1
 BYTE   W06
 BYTE   Bn0
 BYTE   N04  Bn1
 BYTE   W18
 BYTE   Bn0
 BYTE   N04  Bn1
 BYTE   W06
 BYTE   Bn0
 BYTE   N04  Bn1
 BYTE   W06
 BYTE   PEND 
//  #04 //009   ----------------------------------------
 BYTE   PATT
  POIN2 Label_0100379B
//  #04 //010   ----------------------------------------
Label_010037C4:
 BYTE   W13
 BYTE   N04  Bn0  v100
 BYTE   N04  Bn1
 BYTE   W06
 BYTE   Bn0
 BYTE   N04  Bn1
 BYTE   W18
 BYTE   Bn0
 BYTE   N04  Bn1
 BYTE   W06
 BYTE   Bn0
 BYTE   N04  Bn1
 BYTE   W18
 BYTE   Bn0
 BYTE   N04  Bn1
 BYTE   W06
 BYTE   Bn0
 BYTE   N04  Bn1
 BYTE   W18
 BYTE   Bn0
 BYTE   N04  Bn1
 BYTE   W06
 BYTE   Bn0
 BYTE   N04  Bn1
 BYTE   W05
 BYTE   PEND 
//  #04 //011   ----------------------------------------
 BYTE   PATT
  POIN2 Label_0100379B
//  #04 //012   ----------------------------------------
Label_010037ED:
 BYTE   N05  An0  v100
 BYTE   W12
 BYTE   An1
 BYTE   W12
 BYTE   An0
 BYTE   W12
 BYTE   An1
 BYTE   W12
 BYTE   An0
 BYTE   W12
 BYTE   An1
 BYTE   W12
 BYTE   An0
 BYTE   W12
 BYTE   An1
 BYTE   W12
 BYTE   PEND 
//  #04 //013   ----------------------------------------
 BYTE   PATT
  POIN2 Label_010037ED
//  #04 //014   ----------------------------------------
 BYTE   PATT
  POIN2 Label_010037ED
//  #04 //015   ----------------------------------------
 BYTE   PATT
  POIN2 Label_010037ED
//  #04 //016   ----------------------------------------
Label_0100380F:
 BYTE   N08  Cn1  v100
 BYTE   W12
 BYTE   Cn2
 BYTE   W12
 BYTE   Cn1
 BYTE   W12
 BYTE   Cn2
 BYTE   W12
 BYTE   As0
 BYTE   W12
 BYTE   As1
 BYTE   W12
 BYTE   As0
 BYTE   W12
 BYTE   As1
 BYTE   W12
 BYTE   PEND 
//  #04 //017   ----------------------------------------
Label_01003822:
 BYTE   N08  Gn0  v100
 BYTE   W12
 BYTE   Gn1
 BYTE   W12
 BYTE   Gn0
 BYTE   W12
 BYTE   Gn1
 BYTE   W12
 BYTE   Fn0
 BYTE   W12
 BYTE   Fn1
 BYTE   W12
 BYTE   Fn0
 BYTE   W12
 BYTE   Fn1
 BYTE   W12
 BYTE   PEND 
//  #04 //018   ----------------------------------------
Label_01003835:
 BYTE   N08  Gs0  v100
 BYTE   W12
 BYTE   Gs1
 BYTE   W12
 BYTE   Gs0
 BYTE   W12
 BYTE   Gs1
 BYTE   W12
 BYTE   Fn0
 BYTE   W12
 BYTE   Fn1
 BYTE   W12
 BYTE   Fn0
 BYTE   W11
 BYTE   Fn1
 BYTE   W13
 BYTE   PEND 
//  #04 //019   ----------------------------------------
Label_01003848:
 BYTE   N08  Gn0  v100
 BYTE   W12
 BYTE   Gn1
 BYTE   W12
 BYTE   Gn0
 BYTE   W12
 BYTE   Gn1
 BYTE   W12
 BYTE   En0
 BYTE   W12
 BYTE   En1
 BYTE   W12
 BYTE   Fn0
 BYTE   W12
 BYTE   Fn1
 BYTE   W12
 BYTE   PEND 
//  #04 //020   ----------------------------------------
Label_0100385B:
 BYTE   N08  Gs0  v100
 BYTE   W12
 BYTE   Gs1
 BYTE   W12
 BYTE   Gs0
 BYTE   W12
 BYTE   Gs1
 BYTE   W12
 BYTE   Fn0
 BYTE   W12
 BYTE   Fn1
 BYTE   W12
 BYTE   Fn0
 BYTE   W12
 BYTE   Fn1
 BYTE   W12
 BYTE   PEND 
//  #04 //021   ----------------------------------------
Label_0100386E:
 BYTE   N08  En0  v100
 BYTE   W12
 BYTE   En1
 BYTE   W12
 BYTE   En0
 BYTE   W12
 BYTE   En1
 BYTE   W12
 BYTE   Cn0
 BYTE   W48
 BYTE   PEND 
//  #04 //022   ----------------------------------------
 BYTE   PATT
  POIN2 Label_01003710
//  #04 //023   ----------------------------------------
 BYTE   PATT
  POIN2 Label_01003710
//  #04 //024   ----------------------------------------
 BYTE   PATT
  POIN2 Label_01003710
//  #04 //025   ----------------------------------------
 BYTE   PATT
  POIN2 Label_01003738
//  #04 //026   ----------------------------------------
 BYTE   PATT
  POIN2 Label_01003753
//  #04 //027   ----------------------------------------
 BYTE   PATT
  POIN2 Label_01003753
//  #04 //028   ----------------------------------------
 BYTE   PATT
  POIN2 Label_01003753
//  #04 //029   ----------------------------------------
 BYTE   PATT
  POIN2 Label_01003780
//  #04 //030   ----------------------------------------
 BYTE   PATT
  POIN2 Label_0100379B
//  #04 //031   ----------------------------------------
 BYTE   PATT
  POIN2 Label_0100379B
//  #04 //032   ----------------------------------------
 BYTE   PATT
  POIN2 Label_010037C4
//  #04 //033   ----------------------------------------
 BYTE   PATT
  POIN2 Label_0100379B
//  #04 //034   ----------------------------------------
 BYTE   PATT
  POIN2 Label_010037ED
//  #04 //035   ----------------------------------------
 BYTE   PATT
  POIN2 Label_010037ED
//  #04 //036   ----------------------------------------
 BYTE   PATT
  POIN2 Label_010037ED
//  #04 //037   ----------------------------------------
 BYTE   PATT
  POIN2 Label_010037ED
//  #04 //038   ----------------------------------------
 BYTE   PATT
  POIN2 Label_0100380F
//  #04 //039   ----------------------------------------
 BYTE   PATT
  POIN2 Label_01003822
//  #04 //040   ----------------------------------------
 BYTE   PATT
  POIN2 Label_01003835
//  #04 //041   ----------------------------------------
 BYTE   PATT
  POIN2 Label_01003848
//  #04 //042   ----------------------------------------
 BYTE   PATT
  POIN2 Label_0100385B
//  #04 //043   ----------------------------------------
 BYTE   PATT
  POIN2 Label_0100386E
//  #04 //044   ----------------------------------------
 BYTE   GoTo
  POIN2 Label_010036EA
 BYTE   FINE

//**************** Track 5 (Midi-Chn.4) ****************//

MLSuperstarSagaCacklettaBattleDolkar_005:
//  #05 //000   ----------------------------------------
 BYTE   KEYSH   MLSuperstarSagaCacklettaBattleDolkar_key+0
Label_010038F2:
 BYTE   VOICE   48
 BYTE   VOL   76*MLSuperstarSagaCacklettaBattleDolkar_mvl/mxv
 BYTE   W96
//  #05 //001   ----------------------------------------
 BYTE   W96
//  #05 //002   ----------------------------------------
 BYTE   W96
//  #05 //003   ----------------------------------------
 BYTE   W96
//  #05 //004   ----------------------------------------
 BYTE   W96
//  #05 //005   ----------------------------------------
 BYTE   W96
//  #05 //006   ----------------------------------------
 BYTE   W96
//  #05 //007   ----------------------------------------
 BYTE   W96
//  #05 //008   ----------------------------------------
Label_010038FE:
 BYTE   N08  Bn0  v100
 BYTE   N08  Bn1
 BYTE   W24
 BYTE   Bn0
 BYTE   N08  Bn1
 BYTE   W24
 BYTE   Bn0
 BYTE   N08  Bn1
 BYTE   W24
 BYTE   Bn0
 BYTE   N08  Bn1
 BYTE   W24
 BYTE   PEND 
//  #05 //009   ----------------------------------------
 BYTE   PATT
  POIN2 Label_010038FE
//  #05 //010   ----------------------------------------
 BYTE   PATT
  POIN2 Label_010038FE
//  #05 //011   ----------------------------------------
 BYTE   PATT
  POIN2 Label_010038FE
//  #05 //012   ----------------------------------------
 BYTE   W96
//  #05 //013   ----------------------------------------
 BYTE   W96
//  #05 //014   ----------------------------------------
 BYTE   W96
//  #05 //015   ----------------------------------------
 BYTE   W96
//  #05 //016   ----------------------------------------
 BYTE   W96
//  #05 //017   ----------------------------------------
 BYTE   W96
//  #05 //018   ----------------------------------------
 BYTE   W96
//  #05 //019   ----------------------------------------
 BYTE   W96
//  #05 //020   ----------------------------------------
 BYTE   W96
//  #05 //021   ----------------------------------------
 BYTE   W96
//  #05 //022   ----------------------------------------
 BYTE   W96
//  #05 //023   ----------------------------------------
 BYTE   W96
//  #05 //024   ----------------------------------------
 BYTE   W96
//  #05 //025   ----------------------------------------
 BYTE   W96
//  #05 //026   ----------------------------------------
 BYTE   W96
//  #05 //027   ----------------------------------------
 BYTE   W96
//  #05 //028   ----------------------------------------
 BYTE   W96
//  #05 //029   ----------------------------------------
 BYTE   W96
//  #05 //030   ----------------------------------------
 BYTE   PATT
  POIN2 Label_010038FE
//  #05 //031   ----------------------------------------
 BYTE   PATT
  POIN2 Label_010038FE
//  #05 //032   ----------------------------------------
 BYTE   PATT
  POIN2 Label_010038FE
//  #05 //033   ----------------------------------------
 BYTE   PATT
  POIN2 Label_010038FE
//  #05 //034   ----------------------------------------
 BYTE   W96
//  #05 //035   ----------------------------------------
 BYTE   W96
//  #05 //036   ----------------------------------------
 BYTE   W96
//  #05 //037   ----------------------------------------
 BYTE   W96
//  #05 //038   ----------------------------------------
 BYTE   W96
//  #05 //039   ----------------------------------------
 BYTE   W96
//  #05 //040   ----------------------------------------
 BYTE   W96
//  #05 //041   ----------------------------------------
 BYTE   W96
//  #05 //042   ----------------------------------------
 BYTE   W96
//  #05 //043   ----------------------------------------
 BYTE   W96
//  #05 //044   ----------------------------------------
 BYTE   GoTo
  POIN2 Label_010038F2
 BYTE   FINE

//**************** Track 6 (Midi-Chn.5) ****************//

MLSuperstarSagaCacklettaBattleDolkar_006:
//  #06 //000   ----------------------------------------
 BYTE   KEYSH   MLSuperstarSagaCacklettaBattleDolkar_key+0
Label_01004BA2:
 BYTE   VOICE   30
 BYTE   VOL   76*MLSuperstarSagaCacklettaBattleDolkar_mvl/mxv
 BYTE   W96
//  #06 //001   ----------------------------------------
 BYTE   W96
//  #06 //002   ----------------------------------------
 BYTE   W96
//  #06 //003   ----------------------------------------
 BYTE   W96
//  #06 //004   ----------------------------------------
 BYTE   W96
//  #06 //005   ----------------------------------------
 BYTE   W96
//  #06 //006   ----------------------------------------
 BYTE   W96
//  #06 //007   ----------------------------------------
 BYTE   W96
//  #06 //008   ----------------------------------------
 BYTE   W96
//  #06 //009   ----------------------------------------
 BYTE   W96
//  #06 //010   ----------------------------------------
 BYTE   W96
//  #06 //011   ----------------------------------------
 BYTE   W96
//  #06 //012   ----------------------------------------
Label_01004BB2:
 BYTE   N11  An3  v100
 BYTE   N16  Cn4
 BYTE   W12
 BYTE   N05  An4
 BYTE   W06
 BYTE   Gs4
 BYTE   W06
 BYTE   An4
 BYTE   W12
 BYTE   N08  En4
 BYTE   W12
 BYTE   N05  Fn4
 BYTE   W06
 BYTE   Gn4
 BYTE   W06
 BYTE   Fn4
 BYTE   W06
 BYTE   En4
 BYTE   W06
 BYTE   Dn4
 BYTE   W12
 BYTE   Fn4
 BYTE   W12
 BYTE   PEND 
//  #06 //013   ----------------------------------------
Label_01004BD0:
 BYTE   W12
 BYTE   N05  Gs4  v100
 BYTE   W06
 BYTE   An4
 BYTE   W06
 BYTE   Bn4
 BYTE   W12
 BYTE   Gs4
 BYTE   W12
 BYTE   N11  Dn4
 BYTE   W12
 BYTE   N05  Cn4
 BYTE   W12
 BYTE   N17  An4
 BYTE   W24
 BYTE   PEND 
//  #06 //014   ----------------------------------------
Label_01004BE5:
 BYTE   N11  An3  v100
 BYTE   N16  Cn4
 BYTE   W12
 BYTE   N05  An4
 BYTE   N05  An5
 BYTE   W06
 BYTE   Gs4
 BYTE   N05  Gs5
 BYTE   W06
 BYTE   An4
 BYTE   N05  An5
 BYTE   W12
 BYTE   N08  En4
 BYTE   N05  En5
 BYTE   W12
 BYTE   Fn4
 BYTE   N05  Fn5
 BYTE   W06
 BYTE   Gn4
 BYTE   N05  Gn5
 BYTE   W06
 BYTE   Fn4
 BYTE   N05  Fn5
 BYTE   W06
 BYTE   En4
 BYTE   N05  En5
 BYTE   W06
 BYTE   Dn4
 BYTE   N05  Dn5
 BYTE   W12
 BYTE   Fn4
 BYTE   N05  Fn5
 BYTE   W12
 BYTE   PEND 
//  #06 //015   ----------------------------------------
Label_01004C16:
 BYTE   W12
 BYTE   N05  Gs4  v100
 BYTE   N05  Gs5
 BYTE   W06
 BYTE   An4
 BYTE   N05  An5
 BYTE   W06
 BYTE   Bn4
 BYTE   N05  Bn5
 BYTE   W12
 BYTE   Gs4
 BYTE   N05  Gs5
 BYTE   W12
 BYTE   N11  Dn4
 BYTE   N11  Dn5
 BYTE   W12
 BYTE   N05  Cn4
 BYTE   N05  Cn5
 BYTE   W12
 BYTE   N17  An4
 BYTE   N17  An5
 BYTE   W24
 BYTE   PEND 
//  #06 //016   ----------------------------------------
Label_01004C39:
 BYTE   N05  An4  v100
 BYTE   W12
 BYTE   Cn5
 BYTE   W06
 BYTE   Bn4
 BYTE   W06
 BYTE   Cn5
 BYTE   W06
 BYTE   Bn4
 BYTE   W06
 BYTE   An4
 BYTE   W06
 BYTE   Bn4
 BYTE   W06
 BYTE   Fn4
 BYTE   W12
 BYTE   Cs5
 BYTE   W06
 BYTE   Cn5
 BYTE   W06
 BYTE   Cs5
 BYTE   W06
 BYTE   Cn5
 BYTE   W06
 BYTE   As4
 BYTE   W06
 BYTE   Gs4
 BYTE   W06
 BYTE   PEND 
//  #06 //017   ----------------------------------------
Label_01004C58:
 BYTE   N05  Gn4  v100
 BYTE   W06
 BYTE   Gs4
 BYTE   W06
 BYTE   As4
 BYTE   W06
 BYTE   Gs4
 BYTE   W06
 BYTE   Cn5
 BYTE   W06
 BYTE   As4
 BYTE   W06
 BYTE   Gs4
 BYTE   W06
 BYTE   Gn4
 BYTE   W06
 BYTE   Fn4
 BYTE   W06
 BYTE   En4
 BYTE   W06
 BYTE   Fn4
 BYTE   W06
 BYTE   Gn4
 BYTE   W06
 BYTE   Gs4
 BYTE   W06
 BYTE   Gn4
 BYTE   W06
 BYTE   Fn4
 BYTE   W06
 BYTE   En4
 BYTE   W06
 BYTE   PEND 
//  #06 //018   ----------------------------------------
Label_01004C7B:
 BYTE   N05  Fn4  v100
 BYTE   W12
 BYTE   N04
 BYTE   W06
 BYTE   En4
 BYTE   W06
 BYTE   N08  Fn4
 BYTE   W12
 BYTE   Cn4
 BYTE   W12
 BYTE   N04  Cs4
 BYTE   W06
 BYTE   Ds4
 BYTE   W06
 BYTE   Cs4
 BYTE   W06
 BYTE   Cn4
 BYTE   W06
 BYTE   N08  As3
 BYTE   W12
 BYTE   Cs4
 BYTE   W12
 BYTE   PEND 
//  #06 //019   ----------------------------------------
Label_01004C97:
 BYTE   N08  Gn4  v100
 BYTE   W12
 BYTE   N04  As4
 BYTE   W06
 BYTE   Gs4
 BYTE   W06
 BYTE   As4
 BYTE   W12
 BYTE   N08  Gs4
 BYTE   W12
 BYTE   N04  Gn4
 BYTE   W12
 BYTE   N08  Fn4
 BYTE   W12
 BYTE   Cn4
 BYTE   W24
 BYTE   PEND 
//  #06 //020   ----------------------------------------
Label_01004CAE:
 BYTE   W12
 BYTE   N04  Fn4  v100
 BYTE   N04  Gs4
 BYTE   W06
 BYTE   Cn4
 BYTE   N04  Gn4
 BYTE   W06
 BYTE   Fn4
 BYTE   N04  Gs4
 BYTE   W12
 BYTE   N08  Cn4
 BYTE   N08  Fn4
 BYTE   W24
 BYTE   N04  Gn4
 BYTE   N04  As4
 BYTE   W06
 BYTE   Fn4
 BYTE   N04  Gs4
 BYTE   W06
 BYTE   Gn4
 BYTE   N04  As4
 BYTE   W12
 BYTE   N08  Cn4
 BYTE   N08  Fn4
 BYTE   W12
 BYTE   PEND 
//  #06 //021   ----------------------------------------
Label_01004CD5:
 BYTE   N96  Gn3  v100
 BYTE   N96  Cn4
 BYTE   N96  En4
 BYTE   W96
 BYTE   PEND 
//  #06 //022   ----------------------------------------
 BYTE   W96
//  #06 //023   ----------------------------------------
 BYTE   W96
//  #06 //024   ----------------------------------------
 BYTE   W96
//  #06 //025   ----------------------------------------
 BYTE   W96
//  #06 //026   ----------------------------------------
 BYTE   W96
//  #06 //027   ----------------------------------------
 BYTE   W96
//  #06 //028   ----------------------------------------
 BYTE   W96
//  #06 //029   ----------------------------------------
 BYTE   W96
//  #06 //030   ----------------------------------------
 BYTE   W96
//  #06 //031   ----------------------------------------
 BYTE   W96
//  #06 //032   ----------------------------------------
 BYTE   W96
//  #06 //033   ----------------------------------------
 BYTE   W96
//  #06 //034   ----------------------------------------
 BYTE   PATT
  POIN2 Label_01004BB2
//  #06 //035   ----------------------------------------
 BYTE   PATT
  POIN2 Label_01004BD0
//  #06 //036   ----------------------------------------
 BYTE   PATT
  POIN2 Label_01004BE5
//  #06 //037   ----------------------------------------
 BYTE   PATT
  POIN2 Label_01004C16
//  #06 //038   ----------------------------------------
 BYTE   PATT
  POIN2 Label_01004C39
//  #06 //039   ----------------------------------------
 BYTE   PATT
  POIN2 Label_01004C58
//  #06 //040   ----------------------------------------
 BYTE   PATT
  POIN2 Label_01004C7B
//  #06 //041   ----------------------------------------
 BYTE   PATT
  POIN2 Label_01004C97
//  #06 //042   ----------------------------------------
 BYTE   PATT
  POIN2 Label_01004CAE
//  #06 //043   ----------------------------------------
 BYTE   PATT
  POIN2 Label_01004CD5
//  #06 //044   ----------------------------------------
 BYTE   GoTo
  POIN2 Label_01004BA2
 BYTE   FINE

//**************** Track 7 (Midi-Chn.6) ****************//

MLSuperstarSagaCacklettaBattleDolkar_007:
//  #07 //000   ----------------------------------------
 BYTE   KEYSH   MLSuperstarSagaCacklettaBattleDolkar_key+0
Label_01004D26:
 BYTE   VOICE   30
 BYTE   VOL   76*MLSuperstarSagaCacklettaBattleDolkar_mvl/mxv
 BYTE   W96
//  #07 //001   ----------------------------------------
 BYTE   W96
//  #07 //002   ----------------------------------------
 BYTE   W96
//  #07 //003   ----------------------------------------
 BYTE   W96
//  #07 //004   ----------------------------------------
 BYTE   W96
//  #07 //005   ----------------------------------------
 BYTE   W96
//  #07 //006   ----------------------------------------
 BYTE   W96
//  #07 //007   ----------------------------------------
 BYTE   W96
//  #07 //008   ----------------------------------------
 BYTE   W96
//  #07 //009   ----------------------------------------
 BYTE   W96
//  #07 //010   ----------------------------------------
 BYTE   W96
//  #07 //011   ----------------------------------------
 BYTE   W96
//  #07 //012   ----------------------------------------
 BYTE   W96
//  #07 //013   ----------------------------------------
 BYTE   W96
//  #07 //014   ----------------------------------------
Label_01004D38:
 BYTE   W12
 BYTE   N05  Cn5  v100
 BYTE   W06
 BYTE   Bn4
 BYTE   W06
 BYTE   Cn5
 BYTE   W24
 BYTE   Dn5
 BYTE   W06
 BYTE   En5
 BYTE   W06
 BYTE   Dn5
 BYTE   W06
 BYTE   Cn5
 BYTE   W06
 BYTE   Dn5
 BYTE   W06
 BYTE   En5
 BYTE   W06
 BYTE   Dn5
 BYTE   W06
 BYTE   Cn5
 BYTE   W06
 BYTE   PEND 
//  #07 //015   ----------------------------------------
Label_01004D52:
 BYTE   W06
 BYTE   N05  En5  v100
 BYTE   W06
 BYTE   Fn5
 BYTE   W06
 BYTE   En5
 BYTE   W06
 BYTE   Dn5
 BYTE   W12
 BYTE   Cn5
 BYTE   W12
 BYTE   N11  Bn4
 BYTE   W12
 BYTE   N05  An4
 BYTE   W12
 BYTE   Cn5
 BYTE   W06
 BYTE   Bn4
 BYTE   W06
 BYTE   An4
 BYTE   W06
 BYTE   Gn4
 BYTE   W06
 BYTE   PEND 
//  #07 //016   ----------------------------------------
Label_01004D6E:
 BYTE   N05  Fn4  v100
 BYTE   W12
 BYTE   Cn5
 BYTE   W12
 BYTE   N23  Fn5
 BYTE   W24
 BYTE   N05  Fn4
 BYTE   W12
 BYTE   Gs4
 BYTE   W12
 BYTE   N23  Cs5
 BYTE   W24
 BYTE   PEND 
//  #07 //017   ----------------------------------------
Label_01004D80:
 BYTE   N44  En5  v100
 BYTE   W48
 BYTE   Cn5
 BYTE   W48
 BYTE   PEND 
//  #07 //018   ----------------------------------------
Label_01004D87:
 BYTE   N04  Gs4  v100
 BYTE   W12
 BYTE   N04
 BYTE   W06
 BYTE   Gn4
 BYTE   W06
 BYTE   Gs4
 BYTE   W12
 BYTE   Fn4
 BYTE   W12
 BYTE   N08
 BYTE   W12
 BYTE   Gn4
 BYTE   W12
 BYTE   N04  Gs4
 BYTE   W06
 BYTE   Gn4
 BYTE   W06
 BYTE   Fn4
 BYTE   W06
 BYTE   Gn4
 BYTE   W06
 BYTE   PEND 
//  #07 //019   ----------------------------------------
Label_01004DA1:
 BYTE   N08  En4  v100
 BYTE   W12
 BYTE   N04  Gn4
 BYTE   W06
 BYTE   Fn4
 BYTE   W06
 BYTE   Gn4
 BYTE   W12
 BYTE   N08  Fn4
 BYTE   W12
 BYTE   N04  En4
 BYTE   W12
 BYTE   N08  Cn4
 BYTE   W12
 BYTE   N16  Fn4
 BYTE   N16  Gs4
 BYTE   W24
 BYTE   PEND 
//  #07 //020   ----------------------------------------
 BYTE   W96
//  #07 //021   ----------------------------------------
 BYTE   W96
//  #07 //022   ----------------------------------------
 BYTE   W96
//  #07 //023   ----------------------------------------
 BYTE   W96
//  #07 //024   ----------------------------------------
 BYTE   W96
//  #07 //025   ----------------------------------------
 BYTE   W96
//  #07 //026   ----------------------------------------
 BYTE   W96
//  #07 //027   ----------------------------------------
 BYTE   W96
//  #07 //028   ----------------------------------------
 BYTE   W96
//  #07 //029   ----------------------------------------
 BYTE   W96
//  #07 //030   ----------------------------------------
 BYTE   W96
//  #07 //031   ----------------------------------------
 BYTE   W96
//  #07 //032   ----------------------------------------
 BYTE   W96
//  #07 //033   ----------------------------------------
 BYTE   W96
//  #07 //034   ----------------------------------------
 BYTE   W96
//  #07 //035   ----------------------------------------
 BYTE   W96
//  #07 //036   ----------------------------------------
 BYTE   PATT
  POIN2 Label_01004D38
//  #07 //037   ----------------------------------------
 BYTE   PATT
  POIN2 Label_01004D52
//  #07 //038   ----------------------------------------
 BYTE   PATT
  POIN2 Label_01004D6E
//  #07 //039   ----------------------------------------
 BYTE   PATT
  POIN2 Label_01004D80
//  #07 //040   ----------------------------------------
 BYTE   PATT
  POIN2 Label_01004D87
//  #07 //041   ----------------------------------------
 BYTE   PATT
  POIN2 Label_01004DA1
//  #07 //042   ----------------------------------------
 BYTE   W96
//  #07 //043   ----------------------------------------
 BYTE   W96
//  #07 //044   ----------------------------------------
 BYTE   GoTo
  POIN2 Label_01004D26
 BYTE   FINE

//**************** Track 8 (Midi-Chn.7) ****************//

MLSuperstarSagaCacklettaBattleDolkar_008:
//  #08 //000   ----------------------------------------
 BYTE   KEYSH   MLSuperstarSagaCacklettaBattleDolkar_key+0
Label_01004DF6:
 BYTE   VOL   68*MLSuperstarSagaCacklettaBattleDolkar_mvl/mxv
 BYTE   N04  Dn1  v100
 BYTE   W12
 BYTE   N04
 BYTE   N04  An2
 BYTE   W06
 BYTE   Dn1
 BYTE   W06
 BYTE   N04
 BYTE   W12
 BYTE   N04
 BYTE   N04  An2
 BYTE   W06
 BYTE   Dn1
 BYTE   W06
 BYTE   N04
 BYTE   W12
 BYTE   N04
 BYTE   N04  An2
 BYTE   W06
 BYTE   Dn1
 BYTE   W06
 BYTE   N04
 BYTE   N04  Dn4
 BYTE   W12
 BYTE   Dn1
 BYTE   N04  An2
 BYTE   W06
 BYTE   Dn1
 BYTE   W06
//  #08 //001   ----------------------------------------
Label_01004E1C:
 BYTE   N04  Dn1  v100
 BYTE   W12
 BYTE   N04
 BYTE   N04  An2
 BYTE   W06
 BYTE   Dn1
 BYTE   W06
 BYTE   N04
 BYTE   W12
 BYTE   N04
 BYTE   N04  An2
 BYTE   W06
 BYTE   Dn1
 BYTE   W06
 BYTE   N04
 BYTE   W12
 BYTE   N04
 BYTE   N04  An2
 BYTE   W06
 BYTE   Dn1
 BYTE   W06
 BYTE   N04
 BYTE   N04  Dn4
 BYTE   W12
 BYTE   Dn1
 BYTE   N04  An2
 BYTE   W06
 BYTE   Dn1
 BYTE   W06
 BYTE   PEND 
//  #08 //002   ----------------------------------------
 BYTE   PATT
  POIN2 Label_01004E1C
//  #08 //003   ----------------------------------------
Label_01004E46:
 BYTE   N04  Dn1  v100
 BYTE   W12
 BYTE   N04
 BYTE   N04  An2
 BYTE   W06
 BYTE   Dn1
 BYTE   W06
 BYTE   N04
 BYTE   W12
 BYTE   N04
 BYTE   N04  An2
 BYTE   W06
 BYTE   Dn1
 BYTE   W06
 BYTE   N04
 BYTE   W12
 BYTE   N04
 BYTE   N04  An2
 BYTE   W06
 BYTE   Dn1
 BYTE   W06
 BYTE   Dn4
 BYTE   W24
 BYTE   PEND 
//  #08 //004   ----------------------------------------
 BYTE   PATT
  POIN2 Label_01004E1C
//  #08 //005   ----------------------------------------
 BYTE   PATT
  POIN2 Label_01004E1C
//  #08 //006   ----------------------------------------
 BYTE   PATT
  POIN2 Label_01004E1C
//  #08 //007   ----------------------------------------
Label_01004E72:
 BYTE   N04  Dn1  v100
 BYTE   W12
 BYTE   N04
 BYTE   N04  An2
 BYTE   W06
 BYTE   Dn1
 BYTE   W06
 BYTE   N04
 BYTE   W12
 BYTE   N04
 BYTE   N04  An2
 BYTE   W06
 BYTE   Dn1
 BYTE   W06
 BYTE   N04
 BYTE   W12
 BYTE   N04
 BYTE   N04  An2
 BYTE   W06
 BYTE   Dn1
 BYTE   W06
 BYTE   An4
 BYTE   W24
 BYTE   PEND 
//  #08 //008   ----------------------------------------
Label_01004E8F:
 BYTE   N04  Dn1  v100
 BYTE   N04  An2
 BYTE   W12
 BYTE   Dn1
 BYTE   W06
 BYTE   N04
 BYTE   W06
 BYTE   N04
 BYTE   W12
 BYTE   N04
 BYTE   W06
 BYTE   N04
 BYTE   W06
 BYTE   N04
 BYTE   W12
 BYTE   N04
 BYTE   W06
 BYTE   N04
 BYTE   W06
 BYTE   N04
 BYTE   N04  Dn4
 BYTE   W12
 BYTE   Dn1
 BYTE   W06
 BYTE   N04
 BYTE   W06
 BYTE   PEND 
//  #08 //009   ----------------------------------------
 BYTE   PATT
  POIN2 Label_01004E8F
//  #08 //010   ----------------------------------------
 BYTE   PATT
  POIN2 Label_01004E8F
//  #08 //011   ----------------------------------------
 BYTE   PATT
  POIN2 Label_01004E8F
//  #08 //012   ----------------------------------------
Label_01004EBD:
 BYTE   N04  Dn1  v100
 BYTE   N04  An2
 BYTE   W12
 BYTE   Dn1
 BYTE   W06
 BYTE   N04
 BYTE   W06
 BYTE   N04
 BYTE   W12
 BYTE   N04
 BYTE   W24
 BYTE   N04
 BYTE   W06
 BYTE   N05
 BYTE   W06
 BYTE   N05
 BYTE   W12
 BYTE   N04
 BYTE   W06
 BYTE   N05
 BYTE   W06
 BYTE   PEND 
//  #08 //013   ----------------------------------------
Label_01004ED6:
 BYTE   N05  Dn1  v100
 BYTE   W12
 BYTE   N05
 BYTE   W06
 BYTE   N05
 BYTE   W06
 BYTE   N05
 BYTE   W12
 BYTE   N05
 BYTE   W24
 BYTE   N05
 BYTE   W06
 BYTE   N05
 BYTE   W06
 BYTE   N05
 BYTE   W12
 BYTE   N05
 BYTE   W06
 BYTE   N05
 BYTE   W06
 BYTE   PEND 
//  #08 //014   ----------------------------------------
 BYTE   PATT
  POIN2 Label_01004EBD
//  #08 //015   ----------------------------------------
 BYTE   PATT
  POIN2 Label_01004ED6
//  #08 //016   ----------------------------------------
 BYTE   PATT
  POIN2 Label_01004EBD
//  #08 //017   ----------------------------------------
Label_01004EFC:
 BYTE   N04  Dn1  v100
 BYTE   W12
 BYTE   N04
 BYTE   W06
 BYTE   N04
 BYTE   W06
 BYTE   N04
 BYTE   W12
 BYTE   N04
 BYTE   W06
 BYTE   N04
 BYTE   W06
 BYTE   N04
 BYTE   W12
 BYTE   N04
 BYTE   W06
 BYTE   N04
 BYTE   W06
 BYTE   N04
 BYTE   W12
 BYTE   N04
 BYTE   W06
 BYTE   N04
 BYTE   W06
 BYTE   PEND 
//  #08 //018   ----------------------------------------
Label_01004F17:
 BYTE   N04  Dn1  v100
 BYTE   N04  An2
 BYTE   W12
 BYTE   Dn1
 BYTE   W24
 BYTE   N04
 BYTE   W24
 BYTE   N04
 BYTE   W24
 BYTE   N04
 BYTE   W06
 BYTE   N04
 BYTE   W06
 BYTE   PEND 
//  #08 //019   ----------------------------------------
 BYTE   PATT
  POIN2 Label_01004F17
//  #08 //020   ----------------------------------------
Label_01004F2D:
 BYTE   N04  Dn1  v100
 BYTE   N04  An2
 BYTE   W12
 BYTE   Dn1
 BYTE   W24
 BYTE   N04
 BYTE   W06
 BYTE   N04
 BYTE   W05
 BYTE   N04
 BYTE   N04  An2
 BYTE   W13
 BYTE   Dn1
 BYTE   W24
 BYTE   N04
 BYTE   W06
 BYTE   N04
 BYTE   W06
 BYTE   PEND 
//  #08 //021   ----------------------------------------
Label_01004F44:
 BYTE   N04  Dn1  v100
 BYTE   N04  An2
 BYTE   W12
 BYTE   Dn1
 BYTE   W12
 BYTE   N04
 BYTE   N04  An2
 BYTE   W12
 BYTE   Dn1
 BYTE   W12
 BYTE   N04
 BYTE   N04  An2
 BYTE   W48
 BYTE   PEND 
//  #08 //022   ----------------------------------------
 BYTE   PATT
  POIN2 Label_01004E1C
//  #08 //023   ----------------------------------------
 BYTE   PATT
  POIN2 Label_01004E1C
//  #08 //024   ----------------------------------------
 BYTE   PATT
  POIN2 Label_01004E1C
//  #08 //025   ----------------------------------------
 BYTE   PATT
  POIN2 Label_01004E46
//  #08 //026   ----------------------------------------
 BYTE   PATT
  POIN2 Label_01004E1C
//  #08 //027   ----------------------------------------
 BYTE   PATT
  POIN2 Label_01004E1C
//  #08 //028   ----------------------------------------
 BYTE   PATT
  POIN2 Label_01004E1C
//  #08 //029   ----------------------------------------
 BYTE   PATT
  POIN2 Label_01004E72
//  #08 //030   ----------------------------------------
 BYTE   PATT
  POIN2 Label_01004E8F
//  #08 //031   ----------------------------------------
 BYTE   PATT
  POIN2 Label_01004E8F
//  #08 //032   ----------------------------------------
 BYTE   PATT
  POIN2 Label_01004E8F
//  #08 //033   ----------------------------------------
 BYTE   PATT
  POIN2 Label_01004E8F
//  #08 //034   ----------------------------------------
 BYTE   PATT
  POIN2 Label_01004EBD
//  #08 //035   ----------------------------------------
 BYTE   PATT
  POIN2 Label_01004ED6
//  #08 //036   ----------------------------------------
 BYTE   PATT
  POIN2 Label_01004EBD
//  #08 //037   ----------------------------------------
 BYTE   PATT
  POIN2 Label_01004ED6
//  #08 //038   ----------------------------------------
 BYTE   PATT
  POIN2 Label_01004EBD
//  #08 //039   ----------------------------------------
 BYTE   PATT
  POIN2 Label_01004EFC
//  #08 //040   ----------------------------------------
 BYTE   PATT
  POIN2 Label_01004F17
//  #08 //041   ----------------------------------------
 BYTE   PATT
  POIN2 Label_01004F17
//  #08 //042   ----------------------------------------
 BYTE   PATT
  POIN2 Label_01004F2D
//  #08 //043   ----------------------------------------
 BYTE   PATT
  POIN2 Label_01004F44
//  #08 //044   ----------------------------------------
 BYTE   GoTo
  POIN2 Label_01004DF6
 BYTE   FINE

//******************************************************//
	ALIGN 4

MLSuperstarSagaCacklettaBattleDolkar:
	BYTE	8	// NumTrks
	BYTE	0	// NumBlks
	BYTE	MLSuperstarSagaCacklettaBattleDolkar_pri	// Priority
	BYTE	MLSuperstarSagaCacklettaBattleDolkar_rev	// Reverb.
    
	POIN2	MLSuperstarSagaCacklettaBattleDolkar_grp
    
	POIN2	MLSuperstarSagaCacklettaBattleDolkar_001
	POIN2	MLSuperstarSagaCacklettaBattleDolkar_002
	POIN2	MLSuperstarSagaCacklettaBattleDolkar_003
	POIN2	MLSuperstarSagaCacklettaBattleDolkar_004
	POIN2	MLSuperstarSagaCacklettaBattleDolkar_005
	POIN2	MLSuperstarSagaCacklettaBattleDolkar_006
	POIN2	MLSuperstarSagaCacklettaBattleDolkar_007
	POIN2	MLSuperstarSagaCacklettaBattleDolkar_008

	
