//Event file generated from Sappy .s format.
	#include "MPlayDef.event"

	#define	MLSuperstarSagaPoppleBattleSme_grp  voicegroup000
	#define	MLSuperstarSagaPoppleBattleSme_pri  0
	#define	MLSuperstarSagaPoppleBattleSme_rev  0
	#define	MLSuperstarSagaPoppleBattleSme_mvl  127
	#define	MLSuperstarSagaPoppleBattleSme_key  0
	#define	MLSuperstarSagaPoppleBattleSme_tbs  1
	#define	MLSuperstarSagaPoppleBattleSme_exg  0
	#define	MLSuperstarSagaPoppleBattleSme_cmp  1

	// .rodata
	//	MLSuperstarSagaPoppleBattleSme
	ALIGN 4


//**************** Track 1 (Midi-Chn.0) ****************//

MLSuperstarSagaPoppleBattleSme_001:
//  #01 //000   ----------------------------------------
 BYTE   KEYSH   MLSuperstarSagaPoppleBattleSme_key+0
Label_01002366:
 BYTE   TEMPO   184*MLSuperstarSagaPoppleBattleSme_tbs/2
 BYTE   VOICE   34
 BYTE   VOL   51*MLSuperstarSagaPoppleBattleSme_mvl/mxv
 BYTE   N12  Cn2  v104
 BYTE   W12
 BYTE   N12
 BYTE   W12
 BYTE   Ds2
 BYTE   W12
 BYTE   Fn2
 BYTE   W12
 BYTE   Cn2
 BYTE   W12
 BYTE   N12
 BYTE   W12
 BYTE   Ds2
 BYTE   W12
 BYTE   Fn2
 BYTE   W12
//  #01 //001   ----------------------------------------
Label_0100237E:
 BYTE   N12  Cn2  v104
 BYTE   W12
 BYTE   N12
 BYTE   W12
 BYTE   Ds2
 BYTE   W12
 BYTE   Fn2
 BYTE   W12
 BYTE   Fs2
 BYTE   W12
 BYTE   Gn2
 BYTE   W12
 BYTE   Fn2
 BYTE   W12
 BYTE   Dn2
 BYTE   W12
 BYTE   PEND 
//  #01 //002   ----------------------------------------
Label_01002391:
 BYTE   N12  Cn2  v104
 BYTE   W12
 BYTE   N12
 BYTE   W12
 BYTE   Ds2
 BYTE   W12
 BYTE   Fn2
 BYTE   W12
 BYTE   Cn2
 BYTE   W12
 BYTE   N12
 BYTE   W12
 BYTE   Ds2
 BYTE   W12
 BYTE   Fn2
 BYTE   W12
 BYTE   PEND 
//  #01 //003   ----------------------------------------
 BYTE   PATT
  POIN2 Label_0100237E
//  #01 //004   ----------------------------------------
Label_010023A9:
 BYTE   N12  As1  v104
 BYTE   W12
 BYTE   N12
 BYTE   W12
 BYTE   Dn2
 BYTE   W12
 BYTE   Ds2
 BYTE   W12
 BYTE   As1
 BYTE   W12
 BYTE   N12
 BYTE   W12
 BYTE   Dn2
 BYTE   W12
 BYTE   Ds2
 BYTE   W12
 BYTE   PEND 
//  #01 //005   ----------------------------------------
Label_010023BC:
 BYTE   N12  As1  v104
 BYTE   W12
 BYTE   N12
 BYTE   W12
 BYTE   Dn2
 BYTE   W12
 BYTE   Ds2
 BYTE   W12
 BYTE   Fn2
 BYTE   W12
 BYTE   Fs2
 BYTE   W12
 BYTE   Ds2
 BYTE   W12
 BYTE   Bn1
 BYTE   W12
 BYTE   PEND 
//  #01 //006   ----------------------------------------
 BYTE   PATT
  POIN2 Label_01002391
//  #01 //007   ----------------------------------------
 BYTE   PATT
  POIN2 Label_0100237E
//  #01 //008   ----------------------------------------
 BYTE   PATT
  POIN2 Label_01002391
//  #01 //009   ----------------------------------------
 BYTE   PATT
  POIN2 Label_0100237E
//  #01 //010   ----------------------------------------
 BYTE   PATT
  POIN2 Label_01002391
//  #01 //011   ----------------------------------------
 BYTE   PATT
  POIN2 Label_0100237E
//  #01 //012   ----------------------------------------
 BYTE   PATT
  POIN2 Label_010023A9
//  #01 //013   ----------------------------------------
 BYTE   PATT
  POIN2 Label_010023BC
//  #01 //014   ----------------------------------------
 BYTE   PATT
  POIN2 Label_01002391
//  #01 //015   ----------------------------------------
 BYTE   PATT
  POIN2 Label_0100237E
//  #01 //016   ----------------------------------------
 BYTE   PATT
  POIN2 Label_01002391
//  #01 //017   ----------------------------------------
 BYTE   PATT
  POIN2 Label_0100237E
//  #01 //018   ----------------------------------------
 BYTE   PATT
  POIN2 Label_01002391
//  #01 //019   ----------------------------------------
 BYTE   PATT
  POIN2 Label_0100237E
//  #01 //020   ----------------------------------------
 BYTE   PATT
  POIN2 Label_01002391
//  #01 //021   ----------------------------------------
 BYTE   PATT
  POIN2 Label_0100237E
//  #01 //022   ----------------------------------------
 BYTE   PATT
  POIN2 Label_01002391
//  #01 //023   ----------------------------------------
 BYTE   PATT
  POIN2 Label_0100237E
//  #01 //024   ----------------------------------------
 BYTE   PATT
  POIN2 Label_01002391
//  #01 //025   ----------------------------------------
 BYTE   PATT
  POIN2 Label_0100237E
//  #01 //026   ----------------------------------------
 BYTE   PATT
  POIN2 Label_01002391
//  #01 //027   ----------------------------------------
 BYTE   PATT
  POIN2 Label_0100237E
//  #01 //028   ----------------------------------------
 BYTE   PATT
  POIN2 Label_01002391
//  #01 //029   ----------------------------------------
 BYTE   PATT
  POIN2 Label_0100237E
//  #01 //030   ----------------------------------------
 BYTE   PATT
  POIN2 Label_01002391
//  #01 //031   ----------------------------------------
 BYTE   PATT
  POIN2 Label_0100237E
//  #01 //032   ----------------------------------------
 BYTE   PATT
  POIN2 Label_010023A9
//  #01 //033   ----------------------------------------
 BYTE   PATT
  POIN2 Label_010023BC
//  #01 //034   ----------------------------------------
 BYTE   PATT
  POIN2 Label_01002391
//  #01 //035   ----------------------------------------
 BYTE   PATT
  POIN2 Label_0100237E
//  #01 //036   ----------------------------------------
 BYTE   GoTo
  POIN2 Label_01002366
 BYTE   FINE

//**************** Track 2 (Midi-Chn.1) ****************//

MLSuperstarSagaPoppleBattleSme_002:
//  #02 //000   ----------------------------------------
 BYTE   KEYSH   MLSuperstarSagaPoppleBattleSme_key+0
Label_0100229E:
 BYTE   VOICE   61
 BYTE   VOL   59*MLSuperstarSagaPoppleBattleSme_mvl/mxv
 BYTE   N06  Cn3  v104
 BYTE   W12
 BYTE   Gn3
 BYTE   W12
 BYTE   Fs3
 BYTE   W12
 BYTE   N12  An3
 BYTE   W24
 BYTE   Gn3
 BYTE   W24
 BYTE   N06  Fn3
 BYTE   W12
//  #02 //001   ----------------------------------------
Label_010022B2:
 BYTE   N06  Ds3  v104
 BYTE   W12
 BYTE   N06
 BYTE   W12
 BYTE   Fn3
 BYTE   W12
 BYTE   N12  Gn3
 BYTE   W24
 BYTE   N24  Cn3
 BYTE   W36
 BYTE   PEND 
//  #02 //002   ----------------------------------------
Label_010022C1:
 BYTE   N06  Bn2  v104
 BYTE   W12
 BYTE   Cn3
 BYTE   W12
 BYTE   Gn3
 BYTE   W12
 BYTE   N12  Fs3
 BYTE   W24
 BYTE   N24  Cn3
 BYTE   W36
 BYTE   PEND 
//  #02 //003   ----------------------------------------
Label_010022D0:
 BYTE   N06  Bn2  v104
 BYTE   W12
 BYTE   Cn3
 BYTE   W12
 BYTE   Bn2
 BYTE   W12
 BYTE   N36  Cn3
 BYTE   W60
 BYTE   PEND 
//  #02 //004   ----------------------------------------
Label_010022DC:
 BYTE   N06  An2  v104
 BYTE   W12
 BYTE   As2
 BYTE   W12
 BYTE   Fn3
 BYTE   W12
 BYTE   N12  En3
 BYTE   W24
 BYTE   N24  As2
 BYTE   W36
 BYTE   PEND 
//  #02 //005   ----------------------------------------
Label_010022EB:
 BYTE   N06  An2  v104
 BYTE   W12
 BYTE   As2
 BYTE   W12
 BYTE   An2
 BYTE   W12
 BYTE   N36  As2
 BYTE   W60
 BYTE   PEND 
//  #02 //006   ----------------------------------------
 BYTE   PATT
  POIN2 Label_010022C1
//  #02 //007   ----------------------------------------
 BYTE   PATT
  POIN2 Label_010022D0
//  #02 //008   ----------------------------------------
 BYTE   N06  Cn3  v104
 BYTE   W12
 BYTE   Gn3
 BYTE   W12
 BYTE   Fs3
 BYTE   W12
 BYTE   N12  An3
 BYTE   W24
 BYTE   Gn3
 BYTE   W24
 BYTE   N06  Fn3
 BYTE   W12
//  #02 //009   ----------------------------------------
 BYTE   PATT
  POIN2 Label_010022B2
//  #02 //010   ----------------------------------------
 BYTE   PATT
  POIN2 Label_010022C1
//  #02 //011   ----------------------------------------
 BYTE   PATT
  POIN2 Label_010022D0
//  #02 //012   ----------------------------------------
 BYTE   PATT
  POIN2 Label_010022DC
//  #02 //013   ----------------------------------------
 BYTE   PATT
  POIN2 Label_010022EB
//  #02 //014   ----------------------------------------
 BYTE   PATT
  POIN2 Label_010022C1
//  #02 //015   ----------------------------------------
 BYTE   PATT
  POIN2 Label_010022D0
//  #02 //016   ----------------------------------------
 BYTE   W96
//  #02 //017   ----------------------------------------
 BYTE   W96
//  #02 //018   ----------------------------------------
 BYTE   W96
//  #02 //019   ----------------------------------------
 BYTE   W96
//  #02 //020   ----------------------------------------
 BYTE   W96
//  #02 //021   ----------------------------------------
 BYTE   W96
//  #02 //022   ----------------------------------------
 BYTE   W96
//  #02 //023   ----------------------------------------
 BYTE   W96
//  #02 //024   ----------------------------------------
 BYTE   W96
//  #02 //025   ----------------------------------------
 BYTE   W96
//  #02 //026   ----------------------------------------
 BYTE   W96
//  #02 //027   ----------------------------------------
 BYTE   W96
//  #02 //028   ----------------------------------------
 BYTE   W96
//  #02 //029   ----------------------------------------
 BYTE   W96
//  #02 //030   ----------------------------------------
 BYTE   W96
//  #02 //031   ----------------------------------------
 BYTE   W96
//  #02 //032   ----------------------------------------
 BYTE   W96
//  #02 //033   ----------------------------------------
 BYTE   W96
//  #02 //034   ----------------------------------------
 BYTE   W96
//  #02 //035   ----------------------------------------
 BYTE   W96
//  #02 //036   ----------------------------------------
 BYTE   GoTo
  POIN2 Label_0100229E
 BYTE   FINE

//**************** Track 3 (Midi-Chn.2) ****************//

MLSuperstarSagaPoppleBattleSme_003:
//  #03 //000   ----------------------------------------
 BYTE   KEYSH   MLSuperstarSagaPoppleBattleSme_key+0
Label_5451D2:
 BYTE   VOICE   0
 BYTE   VOL   60*MLSuperstarSagaPoppleBattleSme_mvl/mxv
 BYTE   W96
//  #03 //001   ----------------------------------------
 BYTE   W96
//  #03 //002   ----------------------------------------
 BYTE   W96
//  #03 //003   ----------------------------------------
 BYTE   W96
//  #03 //004   ----------------------------------------
 BYTE   W96
//  #03 //005   ----------------------------------------
 BYTE   W96
//  #03 //006   ----------------------------------------
 BYTE   W96
//  #03 //007   ----------------------------------------
 BYTE   W96
//  #03 //008   ----------------------------------------
 BYTE   W96
//  #03 //009   ----------------------------------------
 BYTE   W96
//  #03 //010   ----------------------------------------
 BYTE   W96
//  #03 //011   ----------------------------------------
 BYTE   W96
//  #03 //012   ----------------------------------------
 BYTE   W96
//  #03 //013   ----------------------------------------
 BYTE   W96
//  #03 //014   ----------------------------------------
 BYTE   W96
//  #03 //015   ----------------------------------------
 BYTE   W96
//  #03 //016   ----------------------------------------
 BYTE   W48
 BYTE   N96  Cn2  v104
 BYTE   W48
//  #03 //017   ----------------------------------------
 BYTE   W48
 BYTE   N48  As1
 BYTE   W48
//  #03 //018   ----------------------------------------
 BYTE   TIE  Gn1
 BYTE   W96
//  #03 //019   ----------------------------------------
 BYTE   W48
 BYTE   EOT
 BYTE   N24  Fn1
 BYTE   W24
 BYTE   Gn1
 BYTE   W24
//  #03 //020   ----------------------------------------
 BYTE   TIE  Cn2
 BYTE   W96
//  #03 //021   ----------------------------------------
 BYTE   W48
 BYTE   EOT
 BYTE   N48  Cs2
 BYTE   W48
//  #03 //022   ----------------------------------------
 BYTE   TIE  Gn1
 BYTE   W96
//  #03 //023   ----------------------------------------
 BYTE   W96
//  #03 //024   ----------------------------------------
 BYTE   EOT
 BYTE   N48  Cn2
 BYTE   W96
//  #03 //025   ----------------------------------------
 BYTE   N12  Ds2
 BYTE   W12
 BYTE   N12
 BYTE   W12
 BYTE   Fn2
 BYTE   W12
 BYTE   Gn2
 BYTE   W24
 BYTE   N48  Cn2
 BYTE   W36
//  #03 //026   ----------------------------------------
 BYTE   W96
//  #03 //027   ----------------------------------------
 BYTE   N12  Bn1
 BYTE   W12
 BYTE   Cn2
 BYTE   W12
 BYTE   Bn1
 BYTE   W12
 BYTE   N60  Cn2
 BYTE   W60
//  #03 //028   ----------------------------------------
 BYTE   N12
 BYTE   W12
 BYTE   Gn2
 BYTE   W12
 BYTE   Fs2
 BYTE   W12
 BYTE   An2
 BYTE   W24
 BYTE   Gn2
 BYTE   W24
 BYTE   Fn2
 BYTE   W12
//  #03 //029   ----------------------------------------
 BYTE   Ds2
 BYTE   W12
 BYTE   N12
 BYTE   W12
 BYTE   Fn2
 BYTE   W12
 BYTE   Gn2
 BYTE   W24
 BYTE   N36  Cn2
 BYTE   W36
//  #03 //030   ----------------------------------------
 BYTE   N12  Bn1
 BYTE   W12
 BYTE   Cn2
 BYTE   W12
 BYTE   Gn2
 BYTE   W12
 BYTE   Fs2
 BYTE   W24
 BYTE   N24  Cn2
 BYTE   W36
//  #03 //031   ----------------------------------------
 BYTE   N12  Bn1
 BYTE   W12
 BYTE   Cn2
 BYTE   W12
 BYTE   Bn1
 BYTE   W12
 BYTE   N36  Cn2
 BYTE   W60
//  #03 //032   ----------------------------------------
 BYTE   W96
//  #03 //033   ----------------------------------------
 BYTE   W96
//  #03 //034   ----------------------------------------
 BYTE   W96
//  #03 //035   ----------------------------------------
 BYTE   W96
//  #03 //036   ----------------------------------------
 BYTE   GoTo
  POIN2 Label_5451D2
 BYTE   FINE

//**************** Track 4 (Midi-Chn.3) ****************//

MLSuperstarSagaPoppleBattleSme_004:
//  #04 //000   ----------------------------------------
 BYTE   KEYSH   MLSuperstarSagaPoppleBattleSme_key+0
Label_545666:
 BYTE   VOICE   59
 BYTE   VOL   50*MLSuperstarSagaPoppleBattleSme_mvl/mxv
 BYTE   W96
//  #04 //001   ----------------------------------------
Label_54566B:
 BYTE   W24
 BYTE   N06  Gn3  v104
 BYTE   W12
 BYTE   Fs3
 BYTE   W36
 BYTE   Gn3
 BYTE   W12
 BYTE   Cn4
 BYTE   W12
 BYTE   PEND 
//  #04 //002   ----------------------------------------
 BYTE   W96
//  #04 //003   ----------------------------------------
 BYTE   PATT
  POIN2 Label_54566B
//  #04 //004   ----------------------------------------
 BYTE   W96
//  #04 //005   ----------------------------------------
Label_54567E:
 BYTE   W24
 BYTE   N06  Fn3  v104
 BYTE   W12
 BYTE   En3
 BYTE   W36
 BYTE   Fn3
 BYTE   W12
 BYTE   As3
 BYTE   W12
 BYTE   PEND 
//  #04 //006   ----------------------------------------
 BYTE   W96
//  #04 //007   ----------------------------------------
 BYTE   PATT
  POIN2 Label_54566B
//  #04 //008   ----------------------------------------
 BYTE   W96
//  #04 //009   ----------------------------------------
 BYTE   PATT
  POIN2 Label_54566B
//  #04 //010   ----------------------------------------
 BYTE   W96
//  #04 //011   ----------------------------------------
 BYTE   PATT
  POIN2 Label_54566B
//  #04 //012   ----------------------------------------
 BYTE   W96
//  #04 //013   ----------------------------------------
 BYTE   PATT
  POIN2 Label_54567E
//  #04 //014   ----------------------------------------
 BYTE   W96
//  #04 //015   ----------------------------------------
 BYTE   PATT
  POIN2 Label_54566B
//  #04 //016   ----------------------------------------
 BYTE   W96
//  #04 //017   ----------------------------------------
 BYTE   W96
//  #04 //018   ----------------------------------------
 BYTE   W96
//  #04 //019   ----------------------------------------
 BYTE   W96
//  #04 //020   ----------------------------------------
 BYTE   W96
//  #04 //021   ----------------------------------------
 BYTE   W96
//  #04 //022   ----------------------------------------
 BYTE   W96
//  #04 //023   ----------------------------------------
 BYTE   W96
//  #04 //024   ----------------------------------------
Label_5456B0:
 BYTE   N06  Cn3  v104
 BYTE   W12
 BYTE   Gn3
 BYTE   W12
 BYTE   Fs3
 BYTE   W12
 BYTE   N12  An3
 BYTE   W24
 BYTE   Gn3
 BYTE   W24
 BYTE   N06  Fn3
 BYTE   W12
 BYTE   PEND 
//  #04 //025   ----------------------------------------
 BYTE   W96
//  #04 //026   ----------------------------------------
Label_5456C2:
 BYTE   N06  Bn2  v104
 BYTE   W12
 BYTE   Cn3
 BYTE   W12
 BYTE   Gn3
 BYTE   W12
 BYTE   N12  Fs3
 BYTE   W24
 BYTE   N24  Cn3
 BYTE   W36
 BYTE   PEND 
//  #04 //027   ----------------------------------------
 BYTE   W96
//  #04 //028   ----------------------------------------
 BYTE   PATT
  POIN2 Label_5456B0
//  #04 //029   ----------------------------------------
 BYTE   N06  Ds3  v104
 BYTE   W12
 BYTE   N06
 BYTE   W12
 BYTE   Fn3
 BYTE   W12
 BYTE   N12  Gn3
 BYTE   W24
 BYTE   N24  Cn3
 BYTE   W36
//  #04 //030   ----------------------------------------
 BYTE   PATT
  POIN2 Label_5456C2
//  #04 //031   ----------------------------------------
 BYTE   N06  Bn2  v104
 BYTE   W12
 BYTE   Cn3
 BYTE   W12
 BYTE   Bn2
 BYTE   W12
 BYTE   N36  Cn3
 BYTE   W60
//  #04 //032   ----------------------------------------
 BYTE   W96
//  #04 //033   ----------------------------------------
 BYTE   PATT
  POIN2 Label_54567E
//  #04 //034   ----------------------------------------
 BYTE   W96
//  #04 //035   ----------------------------------------
 BYTE   PATT
  POIN2 Label_54566B
//  #04 //036   ----------------------------------------
 BYTE   GoTo
  POIN2 Label_545666
 BYTE   FINE

//**************** Track 5 (Midi-Chn.4) ****************//

MLSuperstarSagaPoppleBattleSme_005:
//  #05 //000   ----------------------------------------
 BYTE   KEYSH   MLSuperstarSagaPoppleBattleSme_key+0
Label_010028AE:
 BYTE   VOICE   59
 BYTE   VOL   52*MLSuperstarSagaPoppleBattleSme_mvl/mxv
 BYTE   W96
//  #05 //001   ----------------------------------------
Label_010028B3:
 BYTE   W24
 BYTE   N06  Ds3  v104
 BYTE   W12
 BYTE   Cn3
 BYTE   W36
 BYTE   Ds3
 BYTE   W12
 BYTE   Gn3
 BYTE   W12
 BYTE   PEND 
//  #05 //002   ----------------------------------------
 BYTE   W96
//  #05 //003   ----------------------------------------
 BYTE   PATT
  POIN2 Label_010028B3
//  #05 //004   ----------------------------------------
 BYTE   W96
//  #05 //005   ----------------------------------------
Label_010028C6:
 BYTE   W24
 BYTE   N06  Cs3  v104
 BYTE   W12
 BYTE   As2
 BYTE   W36
 BYTE   Cs3
 BYTE   W12
 BYTE   Fn3
 BYTE   W12
 BYTE   PEND 
//  #05 //006   ----------------------------------------
 BYTE   W96
//  #05 //007   ----------------------------------------
 BYTE   PATT
  POIN2 Label_010028B3
//  #05 //008   ----------------------------------------
 BYTE   W96
//  #05 //009   ----------------------------------------
 BYTE   PATT
  POIN2 Label_010028B3
//  #05 //010   ----------------------------------------
 BYTE   W96
//  #05 //011   ----------------------------------------
 BYTE   PATT
  POIN2 Label_010028B3
//  #05 //012   ----------------------------------------
 BYTE   W96
//  #05 //013   ----------------------------------------
 BYTE   PATT
  POIN2 Label_010028C6
//  #05 //014   ----------------------------------------
 BYTE   W96
//  #05 //015   ----------------------------------------
 BYTE   PATT
  POIN2 Label_010028B3
//  #05 //016   ----------------------------------------
 BYTE   W96
//  #05 //017   ----------------------------------------
 BYTE   W96
//  #05 //018   ----------------------------------------
 BYTE   W96
//  #05 //019   ----------------------------------------
 BYTE   W96
//  #05 //020   ----------------------------------------
 BYTE   W96
//  #05 //021   ----------------------------------------
 BYTE   W96
//  #05 //022   ----------------------------------------
 BYTE   W96
//  #05 //023   ----------------------------------------
 BYTE   W96
//  #05 //024   ----------------------------------------
 BYTE   W96
//  #05 //025   ----------------------------------------
 BYTE   W96
//  #05 //026   ----------------------------------------
 BYTE   W96
//  #05 //027   ----------------------------------------
 BYTE   W96
//  #05 //028   ----------------------------------------
 BYTE   W96
//  #05 //029   ----------------------------------------
 BYTE   W96
//  #05 //030   ----------------------------------------
 BYTE   W96
//  #05 //031   ----------------------------------------
 BYTE   W96
//  #05 //032   ----------------------------------------
 BYTE   W96
//  #05 //033   ----------------------------------------
 BYTE   PATT
  POIN2 Label_010028C6
//  #05 //034   ----------------------------------------
 BYTE   W96
//  #05 //035   ----------------------------------------
 BYTE   PATT
  POIN2 Label_010028B3
//  #05 //036   ----------------------------------------
 BYTE   GoTo
  POIN2 Label_010028AE
 BYTE   FINE

//**************** Track 6 (Midi-Chn.5) ****************//

MLSuperstarSagaPoppleBattleSme_006:
//  #06 //000   ----------------------------------------
 BYTE   KEYSH   MLSuperstarSagaPoppleBattleSme_key+0
Label_010024BE:
 BYTE   VOICE   0
 BYTE   VOL   67*MLSuperstarSagaPoppleBattleSme_mvl/mxv
 BYTE   W96
//  #06 //001   ----------------------------------------
 BYTE   W96
//  #06 //002   ----------------------------------------
 BYTE   W96
//  #06 //003   ----------------------------------------
 BYTE   W96
//  #06 //004   ----------------------------------------
 BYTE   W96
//  #06 //005   ----------------------------------------
 BYTE   W96
//  #06 //006   ----------------------------------------
 BYTE   W96
//  #06 //007   ----------------------------------------
 BYTE   W96
//  #06 //008   ----------------------------------------
 BYTE   W96
//  #06 //009   ----------------------------------------
 BYTE   W96
//  #06 //010   ----------------------------------------
 BYTE   W96
//  #06 //011   ----------------------------------------
 BYTE   W96
//  #06 //012   ----------------------------------------
 BYTE   W96
//  #06 //013   ----------------------------------------
 BYTE   W96
//  #06 //014   ----------------------------------------
 BYTE   W96
//  #06 //015   ----------------------------------------
 BYTE   W96
//  #06 //016   ----------------------------------------
 BYTE   W48
 BYTE   N96  Cn3  v104
 BYTE   W48
//  #06 //017   ----------------------------------------
 BYTE   W48
 BYTE   N48  As2
 BYTE   W48
//  #06 //018   ----------------------------------------
 BYTE   TIE  Gn2
 BYTE   W96
//  #06 //019   ----------------------------------------
 BYTE   W48
 BYTE   EOT
 BYTE   N24  Fn2
 BYTE   W24
 BYTE   Gn2
 BYTE   W24
//  #06 //020   ----------------------------------------
 BYTE   TIE  Cn3
 BYTE   W96
//  #06 //021   ----------------------------------------
 BYTE   W48
 BYTE   EOT
 BYTE   N48  Cs3
 BYTE   W48
//  #06 //022   ----------------------------------------
 BYTE   TIE  Gn2
 BYTE   W96
//  #06 //023   ----------------------------------------
 BYTE   W96
//  #06 //024   ----------------------------------------
 BYTE   EOT
Label_010024F2:
 BYTE   N06  Cn3  v104
 BYTE   W12
 BYTE   Gn3
 BYTE   W12
 BYTE   Fs3
 BYTE   W12
 BYTE   N12  An3
 BYTE   W24
 BYTE   Gn3
 BYTE   W24
 BYTE   N06  Fn3
 BYTE   W12
 BYTE   PEND 
//  #06 //025   ----------------------------------------
 BYTE   W96
//  #06 //026   ----------------------------------------
Label_01002504:
 BYTE   N06  Bn2  v104
 BYTE   W12
 BYTE   Cn3
 BYTE   W12
 BYTE   Gn3
 BYTE   W12
 BYTE   N12  Fs3
 BYTE   W24
 BYTE   N24  Cn3
 BYTE   W36
 BYTE   PEND 
//  #06 //027   ----------------------------------------
 BYTE   W96
//  #06 //028   ----------------------------------------
 BYTE   PATT
  POIN2 Label_010024F2
//  #06 //029   ----------------------------------------
 BYTE   N06  Ds3  v104
 BYTE   W12
 BYTE   N06
 BYTE   W12
 BYTE   Fn3
 BYTE   W12
 BYTE   N12  Gn3
 BYTE   W24
 BYTE   N24  Cn3
 BYTE   W36
//  #06 //030   ----------------------------------------
 BYTE   PATT
  POIN2 Label_01002504
//  #06 //031   ----------------------------------------
 BYTE   N06  Bn2  v104
 BYTE   W12
 BYTE   Cn3
 BYTE   W12
 BYTE   Bn2
 BYTE   W12
 BYTE   N36  Cn3
 BYTE   W60
//  #06 //032   ----------------------------------------
 BYTE   W96
//  #06 //033   ----------------------------------------
 BYTE   W96
//  #06 //034   ----------------------------------------
 BYTE   W96
//  #06 //035   ----------------------------------------
 BYTE   W96
//  #06 //036   ----------------------------------------
 BYTE   GoTo
  POIN2 Label_010024BE
 BYTE   FINE

//**************** Track 7 (Midi-Chn.6) ****************//

MLSuperstarSagaPoppleBattleSme_007:
//  #07 //000   ----------------------------------------
 BYTE   KEYSH   MLSuperstarSagaPoppleBattleSme_key+0
Label_01002612:
 BYTE   VOICE   123
 BYTE   VOL   56*MLSuperstarSagaPoppleBattleSme_mvl/mxv
 BYTE   N12  Cn1  v104
 BYTE   W24
 BYTE   N12
 BYTE   W24
 BYTE   N12
 BYTE   W24
 BYTE   N12
 BYTE   W24
//  #07 //001   ----------------------------------------
Label_01002620:
 BYTE   N12  Cn1  v104
 BYTE   W24
 BYTE   N12
 BYTE   W24
 BYTE   N12
 BYTE   W24
 BYTE   N06
 BYTE   W12
 BYTE   N06
 BYTE   W12
 BYTE   PEND 
//  #07 //002   ----------------------------------------
Label_0100262D:
 BYTE   N12  Cn1  v104
 BYTE   W24
 BYTE   N12
 BYTE   W24
 BYTE   N12
 BYTE   W24
 BYTE   N12
 BYTE   W24
 BYTE   PEND 
//  #07 //003   ----------------------------------------
 BYTE   PATT
  POIN2 Label_01002620
//  #07 //004   ----------------------------------------
 BYTE   PATT
  POIN2 Label_0100262D
//  #07 //005   ----------------------------------------
 BYTE   PATT
  POIN2 Label_01002620
//  #07 //006   ----------------------------------------
 BYTE   PATT
  POIN2 Label_0100262D
//  #07 //007   ----------------------------------------
 BYTE   PATT
  POIN2 Label_01002620
//  #07 //008   ----------------------------------------
 BYTE   PATT
  POIN2 Label_0100262D
//  #07 //009   ----------------------------------------
 BYTE   PATT
  POIN2 Label_01002620
//  #07 //010   ----------------------------------------
 BYTE   PATT
  POIN2 Label_0100262D
//  #07 //011   ----------------------------------------
 BYTE   PATT
  POIN2 Label_01002620
//  #07 //012   ----------------------------------------
 BYTE   PATT
  POIN2 Label_0100262D
//  #07 //013   ----------------------------------------
 BYTE   PATT
  POIN2 Label_01002620
//  #07 //014   ----------------------------------------
 BYTE   PATT
  POIN2 Label_0100262D
//  #07 //015   ----------------------------------------
 BYTE   PATT
  POIN2 Label_01002620
//  #07 //016   ----------------------------------------
 BYTE   PATT
  POIN2 Label_0100262D
//  #07 //017   ----------------------------------------
 BYTE   PATT
  POIN2 Label_01002620
//  #07 //018   ----------------------------------------
 BYTE   PATT
  POIN2 Label_0100262D
//  #07 //019   ----------------------------------------
 BYTE   PATT
  POIN2 Label_01002620
//  #07 //020   ----------------------------------------
 BYTE   PATT
  POIN2 Label_0100262D
//  #07 //021   ----------------------------------------
 BYTE   PATT
  POIN2 Label_01002620
//  #07 //022   ----------------------------------------
 BYTE   PATT
  POIN2 Label_0100262D
//  #07 //023   ----------------------------------------
 BYTE   PATT
  POIN2 Label_01002620
//  #07 //024   ----------------------------------------
 BYTE   PATT
  POIN2 Label_0100262D
//  #07 //025   ----------------------------------------
 BYTE   PATT
  POIN2 Label_01002620
//  #07 //026   ----------------------------------------
 BYTE   PATT
  POIN2 Label_0100262D
//  #07 //027   ----------------------------------------
 BYTE   PATT
  POIN2 Label_01002620
//  #07 //028   ----------------------------------------
 BYTE   PATT
  POIN2 Label_0100262D
//  #07 //029   ----------------------------------------
 BYTE   PATT
  POIN2 Label_01002620
//  #07 //030   ----------------------------------------
 BYTE   PATT
  POIN2 Label_0100262D
//  #07 //031   ----------------------------------------
 BYTE   PATT
  POIN2 Label_01002620
//  #07 //032   ----------------------------------------
 BYTE   PATT
  POIN2 Label_0100262D
//  #07 //033   ----------------------------------------
 BYTE   PATT
  POIN2 Label_01002620
//  #07 //034   ----------------------------------------
 BYTE   PATT
  POIN2 Label_0100262D
//  #07 //035   ----------------------------------------
 BYTE   PATT
  POIN2 Label_01002620
//  #07 //036   ----------------------------------------
 BYTE   GoTo
  POIN2 Label_01002612
 BYTE   FINE

//**************** Track 8 (Midi-Chn.7) ****************//

MLSuperstarSagaPoppleBattleSme_008:
//  #08 //000   ----------------------------------------
 BYTE   KEYSH   MLSuperstarSagaPoppleBattleSme_key+0
Label_545746:
 BYTE   VOICE   123
 BYTE   VOL   56*MLSuperstarSagaPoppleBattleSme_mvl/mxv
 BYTE   W24
 BYTE   N24  En1  v104
 BYTE   W48
 BYTE   N24
 BYTE   W24
//  #08 //001   ----------------------------------------
Label_545751:
 BYTE   W24
 BYTE   N24  En1  v104
 BYTE   W36
 BYTE   N12
 BYTE   W12
 BYTE   N12
 BYTE   W24
 BYTE   PEND 
//  #08 //002   ----------------------------------------
Label_54575B:
 BYTE   VOL   56*MLSuperstarSagaPoppleBattleSme_mvl/mxv
 BYTE   W24
 BYTE   N24  En1  v104
 BYTE   W48
 BYTE   N24
 BYTE   W24
 BYTE   PEND 
//  #08 //003   ----------------------------------------
 BYTE   PATT
  POIN2 Label_545751
//  #08 //004   ----------------------------------------
 BYTE   PATT
  POIN2 Label_54575B
//  #08 //005   ----------------------------------------
 BYTE   PATT
  POIN2 Label_545751
//  #08 //006   ----------------------------------------
 BYTE   PATT
  POIN2 Label_54575B
//  #08 //007   ----------------------------------------
 BYTE   PATT
  POIN2 Label_545751
//  #08 //008   ----------------------------------------
 BYTE   PATT
  POIN2 Label_54575B
//  #08 //009   ----------------------------------------
 BYTE   PATT
  POIN2 Label_545751
//  #08 //010   ----------------------------------------
 BYTE   PATT
  POIN2 Label_54575B
//  #08 //011   ----------------------------------------
 BYTE   PATT
  POIN2 Label_545751
//  #08 //012   ----------------------------------------
 BYTE   PATT
  POIN2 Label_54575B
//  #08 //013   ----------------------------------------
 BYTE   PATT
  POIN2 Label_545751
//  #08 //014   ----------------------------------------
 BYTE   PATT
  POIN2 Label_54575B
//  #08 //015   ----------------------------------------
 BYTE   PATT
  POIN2 Label_545751
//  #08 //016   ----------------------------------------
 BYTE   W96
//  #08 //017   ----------------------------------------
 BYTE   W96
//  #08 //018   ----------------------------------------
 BYTE   W96
//  #08 //019   ----------------------------------------
 BYTE   W96
//  #08 //020   ----------------------------------------
 BYTE   W96
//  #08 //021   ----------------------------------------
 BYTE   W96
//  #08 //022   ----------------------------------------
 BYTE   W96
//  #08 //023   ----------------------------------------
 BYTE   W96
//  #08 //024   ----------------------------------------
 BYTE   W96
//  #08 //025   ----------------------------------------
 BYTE   W96
//  #08 //026   ----------------------------------------
 BYTE   W96
//  #08 //027   ----------------------------------------
 BYTE   W96
//  #08 //028   ----------------------------------------
 BYTE   W96
//  #08 //029   ----------------------------------------
 BYTE   W96
//  #08 //030   ----------------------------------------
 BYTE   W96
//  #08 //031   ----------------------------------------
 BYTE   W96
//  #08 //032   ----------------------------------------
 BYTE   PATT
  POIN2 Label_54575B
//  #08 //033   ----------------------------------------
 BYTE   PATT
  POIN2 Label_545751
//  #08 //034   ----------------------------------------
 BYTE   PATT
  POIN2 Label_54575B
//  #08 //035   ----------------------------------------
 BYTE   PATT
  POIN2 Label_545751
//  #08 //036   ----------------------------------------
 BYTE   GoTo
  POIN2 Label_545746
 BYTE   FINE

//**************** Track 9 (Midi-Chn.8) ****************//

MLSuperstarSagaPoppleBattleSme_009:
//  #09 //000   ----------------------------------------
 BYTE   KEYSH   MLSuperstarSagaPoppleBattleSme_key+0
Label_0100212E:
 BYTE   VOICE   81
 BYTE   VOL   46*MLSuperstarSagaPoppleBattleSme_mvl/mxv
 BYTE   N06  Cn3  v104
 BYTE   W12
 BYTE   N03
 BYTE   W06
 BYTE   N03
 BYTE   W18
 BYTE   N06
 BYTE   W24
 BYTE   N06
 BYTE   W24
 BYTE   N06
 BYTE   W12
//  #09 //001   ----------------------------------------
Label_01002140:
 BYTE   N06  Cn3  v104
 BYTE   W18
 BYTE   N03
 BYTE   W18
 BYTE   N06
 BYTE   W24
 BYTE   N06
 BYTE   W24
 BYTE   N06
 BYTE   W12
 BYTE   PEND 
//  #09 //002   ----------------------------------------
Label_0100214D:
 BYTE   N06  Cn3  v104
 BYTE   W12
 BYTE   N03
 BYTE   W06
 BYTE   N03
 BYTE   W18
 BYTE   N06
 BYTE   W24
 BYTE   N06
 BYTE   W24
 BYTE   N06
 BYTE   W12
 BYTE   PEND 
//  #09 //003   ----------------------------------------
 BYTE   PATT
  POIN2 Label_01002140
//  #09 //004   ----------------------------------------
Label_01002161:
 BYTE   N06  As2  v104
 BYTE   W12
 BYTE   N03
 BYTE   W06
 BYTE   N03
 BYTE   W18
 BYTE   N06
 BYTE   W24
 BYTE   N06
 BYTE   W24
 BYTE   N06
 BYTE   W12
 BYTE   PEND 
//  #09 //005   ----------------------------------------
 BYTE   PATT
  POIN2 Label_01002161
//  #09 //006   ----------------------------------------
 BYTE   PATT
  POIN2 Label_0100214D
//  #09 //007   ----------------------------------------
 BYTE   PATT
  POIN2 Label_0100214D
//  #09 //008   ----------------------------------------
 BYTE   PATT
  POIN2 Label_0100214D
//  #09 //009   ----------------------------------------
 BYTE   PATT
  POIN2 Label_0100214D
//  #09 //010   ----------------------------------------
 BYTE   PATT
  POIN2 Label_0100214D
//  #09 //011   ----------------------------------------
 BYTE   PATT
  POIN2 Label_0100214D
//  #09 //012   ----------------------------------------
 BYTE   PATT
  POIN2 Label_01002161
//  #09 //013   ----------------------------------------
 BYTE   PATT
  POIN2 Label_01002161
//  #09 //014   ----------------------------------------
 BYTE   PATT
  POIN2 Label_0100214D
//  #09 //015   ----------------------------------------
 BYTE   PATT
  POIN2 Label_0100214D
//  #09 //016   ----------------------------------------
 BYTE   PATT
  POIN2 Label_0100214D
//  #09 //017   ----------------------------------------
 BYTE   PATT
  POIN2 Label_0100214D
//  #09 //018   ----------------------------------------
 BYTE   PATT
  POIN2 Label_0100214D
//  #09 //019   ----------------------------------------
 BYTE   PATT
  POIN2 Label_0100214D
//  #09 //020   ----------------------------------------
 BYTE   PATT
  POIN2 Label_0100214D
//  #09 //021   ----------------------------------------
 BYTE   PATT
  POIN2 Label_0100214D
//  #09 //022   ----------------------------------------
 BYTE   PATT
  POIN2 Label_0100214D
//  #09 //023   ----------------------------------------
 BYTE   PATT
  POIN2 Label_0100214D
//  #09 //024   ----------------------------------------
 BYTE   PATT
  POIN2 Label_0100214D
//  #09 //025   ----------------------------------------
 BYTE   PATT
  POIN2 Label_0100214D
//  #09 //026   ----------------------------------------
 BYTE   PATT
  POIN2 Label_0100214D
//  #09 //027   ----------------------------------------
 BYTE   PATT
  POIN2 Label_0100214D
//  #09 //028   ----------------------------------------
 BYTE   PATT
  POIN2 Label_0100214D
//  #09 //029   ----------------------------------------
 BYTE   PATT
  POIN2 Label_0100214D
//  #09 //030   ----------------------------------------
 BYTE   PATT
  POIN2 Label_0100214D
//  #09 //031   ----------------------------------------
 BYTE   PATT
  POIN2 Label_0100214D
//  #09 //032   ----------------------------------------
Label_010021F7:
 BYTE   N12  As2  v104
 BYTE   W12
 BYTE   N06
 BYTE   W06
 BYTE   N06
 BYTE   W18
 BYTE   N12
 BYTE   W24
 BYTE   N12
 BYTE   W24
 BYTE   N12
 BYTE   W12
 BYTE   PEND 
//  #09 //033   ----------------------------------------
 BYTE   PATT
  POIN2 Label_010021F7
//  #09 //034   ----------------------------------------
Label_0100220B:
 BYTE   N12  Cn3  v104
 BYTE   W12
 BYTE   N06
 BYTE   W06
 BYTE   N06
 BYTE   W18
 BYTE   N12
 BYTE   W24
 BYTE   N12
 BYTE   W24
 BYTE   N12
 BYTE   W12
 BYTE   PEND 
//  #09 //035   ----------------------------------------
 BYTE   PATT
  POIN2 Label_0100220B
//  #09 //036   ----------------------------------------
 BYTE   GoTo
  POIN2 Label_0100212E
 BYTE   FINE

//**************** Track 10 (Midi-Chn.9) ****************//

MLSuperstarSagaPoppleBattleSme_010:
//  #10 //000   ----------------------------------------
 BYTE   KEYSH   MLSuperstarSagaPoppleBattleSme_key+0
Label_010029F2:
 BYTE   VOICE   81
 BYTE   VOL   46*MLSuperstarSagaPoppleBattleSme_mvl/mxv
 BYTE   N06  Gn3  v104
 BYTE   W12
 BYTE   N03
 BYTE   W06
 BYTE   N03
 BYTE   W18
 BYTE   N06
 BYTE   W24
 BYTE   N06
 BYTE   W24
 BYTE   N06
 BYTE   W12
//  #10 //001   ----------------------------------------
Label_01002A04:
 BYTE   N06  Gn3  v104
 BYTE   W18
 BYTE   N03
 BYTE   W18
 BYTE   N06
 BYTE   W24
 BYTE   N06
 BYTE   W24
 BYTE   N06
 BYTE   W12
 BYTE   PEND 
//  #10 //002   ----------------------------------------
Label_01002A11:
 BYTE   N06  Gn3  v104
 BYTE   W12
 BYTE   N03
 BYTE   W06
 BYTE   N03
 BYTE   W18
 BYTE   N06
 BYTE   W24
 BYTE   N06
 BYTE   W24
 BYTE   N06
 BYTE   W12
 BYTE   PEND 
//  #10 //003   ----------------------------------------
 BYTE   PATT
  POIN2 Label_01002A04
//  #10 //004   ----------------------------------------
Label_01002A25:
 BYTE   N06  Fn3  v104
 BYTE   W12
 BYTE   N03
 BYTE   W06
 BYTE   N03
 BYTE   W18
 BYTE   N06
 BYTE   W24
 BYTE   N06
 BYTE   W24
 BYTE   N06
 BYTE   W12
 BYTE   PEND 
//  #10 //005   ----------------------------------------
 BYTE   PATT
  POIN2 Label_01002A25
//  #10 //006   ----------------------------------------
 BYTE   PATT
  POIN2 Label_01002A11
//  #10 //007   ----------------------------------------
 BYTE   PATT
  POIN2 Label_01002A11
//  #10 //008   ----------------------------------------
 BYTE   PATT
  POIN2 Label_01002A11
//  #10 //009   ----------------------------------------
 BYTE   PATT
  POIN2 Label_01002A11
//  #10 //010   ----------------------------------------
 BYTE   PATT
  POIN2 Label_01002A11
//  #10 //011   ----------------------------------------
 BYTE   PATT
  POIN2 Label_01002A11
//  #10 //012   ----------------------------------------
 BYTE   PATT
  POIN2 Label_01002A25
//  #10 //013   ----------------------------------------
 BYTE   PATT
  POIN2 Label_01002A25
//  #10 //014   ----------------------------------------
 BYTE   PATT
  POIN2 Label_01002A11
//  #10 //015   ----------------------------------------
 BYTE   PATT
  POIN2 Label_01002A11
//  #10 //016   ----------------------------------------
 BYTE   PATT
  POIN2 Label_01002A11
//  #10 //017   ----------------------------------------
 BYTE   PATT
  POIN2 Label_01002A11
//  #10 //018   ----------------------------------------
 BYTE   PATT
  POIN2 Label_01002A11
//  #10 //019   ----------------------------------------
 BYTE   PATT
  POIN2 Label_01002A11
//  #10 //020   ----------------------------------------
 BYTE   PATT
  POIN2 Label_01002A11
//  #10 //021   ----------------------------------------
 BYTE   PATT
  POIN2 Label_01002A11
//  #10 //022   ----------------------------------------
 BYTE   PATT
  POIN2 Label_01002A11
//  #10 //023   ----------------------------------------
 BYTE   PATT
  POIN2 Label_01002A11
//  #10 //024   ----------------------------------------
 BYTE   PATT
  POIN2 Label_01002A11
//  #10 //025   ----------------------------------------
 BYTE   PATT
  POIN2 Label_01002A11
//  #10 //026   ----------------------------------------
 BYTE   PATT
  POIN2 Label_01002A11
//  #10 //027   ----------------------------------------
 BYTE   PATT
  POIN2 Label_01002A11
//  #10 //028   ----------------------------------------
 BYTE   PATT
  POIN2 Label_01002A11
//  #10 //029   ----------------------------------------
 BYTE   PATT
  POIN2 Label_01002A11
//  #10 //030   ----------------------------------------
 BYTE   PATT
  POIN2 Label_01002A11
//  #10 //031   ----------------------------------------
 BYTE   PATT
  POIN2 Label_01002A11
//  #10 //032   ----------------------------------------
 BYTE   PATT
  POIN2 Label_01002A25
//  #10 //033   ----------------------------------------
 BYTE   PATT
  POIN2 Label_01002A25
//  #10 //034   ----------------------------------------
 BYTE   PATT
  POIN2 Label_01002A11
//  #10 //035   ----------------------------------------
 BYTE   PATT
  POIN2 Label_01002A11
//  #10 //036   ----------------------------------------
 BYTE   GoTo
  POIN2 Label_010029F2
 BYTE   FINE

//**************** Track 11 (Midi-Chn.10) ****************//

MLSuperstarSagaPoppleBattleSme_011:
//  #11 //000   ----------------------------------------
 BYTE   KEYSH   MLSuperstarSagaPoppleBattleSme_key+0
Label_5457D2:
 BYTE   VOICE   40
 BYTE   VOL   54*MLSuperstarSagaPoppleBattleSme_mvl/mxv
 BYTE   N06  Cn3  v104
 BYTE   W12
 BYTE   Gn3
 BYTE   W12
 BYTE   Fs3
 BYTE   W12
 BYTE   N12  An3
 BYTE   W24
 BYTE   Gn3
 BYTE   W24
 BYTE   N06  Fn3
 BYTE   W12
//  #11 //001   ----------------------------------------
Label_5457E6:
 BYTE   N06  Ds3  v104
 BYTE   W12
 BYTE   N06
 BYTE   W12
 BYTE   Fn3
 BYTE   W12
 BYTE   N12  Gn3
 BYTE   W24
 BYTE   N24  Cn3
 BYTE   W36
 BYTE   PEND 
//  #11 //002   ----------------------------------------
Label_5457F5:
 BYTE   N06  Bn2  v104
 BYTE   W12
 BYTE   Cn3
 BYTE   W12
 BYTE   Gn3
 BYTE   W12
 BYTE   N12  Fs3
 BYTE   W24
 BYTE   N24  Cn3
 BYTE   W36
 BYTE   PEND 
//  #11 //003   ----------------------------------------
Label_545804:
 BYTE   N06  Bn2  v104
 BYTE   W12
 BYTE   Cn3
 BYTE   W12
 BYTE   Bn2
 BYTE   W12
 BYTE   N36  Cn3
 BYTE   W60
 BYTE   PEND 
//  #11 //004   ----------------------------------------
Label_545810:
 BYTE   N06  An2  v104
 BYTE   W12
 BYTE   As2
 BYTE   W12
 BYTE   Fn3
 BYTE   W12
 BYTE   N12  En3
 BYTE   W24
 BYTE   N24  As2
 BYTE   W36
 BYTE   PEND 
//  #11 //005   ----------------------------------------
Label_54581F:
 BYTE   N06  An2  v104
 BYTE   W12
 BYTE   As2
 BYTE   W12
 BYTE   An2
 BYTE   W12
 BYTE   N36  As2
 BYTE   W60
 BYTE   PEND 
//  #11 //006   ----------------------------------------
 BYTE   PATT
  POIN2 Label_5457F5
//  #11 //007   ----------------------------------------
 BYTE   PATT
  POIN2 Label_545804
//  #11 //008   ----------------------------------------
 BYTE   N06  Cn3  v104
 BYTE   W12
 BYTE   Gn3
 BYTE   W12
 BYTE   Fs3
 BYTE   W12
 BYTE   N12  An3
 BYTE   W24
 BYTE   Gn3
 BYTE   W24
 BYTE   N06  Fn3
 BYTE   W12
//  #11 //009   ----------------------------------------
 BYTE   PATT
  POIN2 Label_5457E6
//  #11 //010   ----------------------------------------
 BYTE   PATT
  POIN2 Label_5457F5
//  #11 //011   ----------------------------------------
 BYTE   PATT
  POIN2 Label_545804
//  #11 //012   ----------------------------------------
 BYTE   PATT
  POIN2 Label_545810
//  #11 //013   ----------------------------------------
 BYTE   PATT
  POIN2 Label_54581F
//  #11 //014   ----------------------------------------
 BYTE   PATT
  POIN2 Label_5457F5
//  #11 //015   ----------------------------------------
 BYTE   PATT
  POIN2 Label_545804
//  #11 //016   ----------------------------------------
 BYTE   W96
//  #11 //017   ----------------------------------------
 BYTE   W96
//  #11 //018   ----------------------------------------
 BYTE   W96
//  #11 //019   ----------------------------------------
 BYTE   W96
//  #11 //020   ----------------------------------------
 BYTE   W96
//  #11 //021   ----------------------------------------
 BYTE   W96
//  #11 //022   ----------------------------------------
 BYTE   W96
//  #11 //023   ----------------------------------------
 BYTE   W96
//  #11 //024   ----------------------------------------
 BYTE   W96
//  #11 //025   ----------------------------------------
 BYTE   W96
//  #11 //026   ----------------------------------------
 BYTE   W96
//  #11 //027   ----------------------------------------
 BYTE   W96
//  #11 //028   ----------------------------------------
 BYTE   W96
//  #11 //029   ----------------------------------------
 BYTE   W96
//  #11 //030   ----------------------------------------
 BYTE   W96
//  #11 //031   ----------------------------------------
 BYTE   W96
//  #11 //032   ----------------------------------------
 BYTE   W96
//  #11 //033   ----------------------------------------
 BYTE   W96
//  #11 //034   ----------------------------------------
 BYTE   W96
//  #11 //035   ----------------------------------------
 BYTE   W96
//  #11 //036   ----------------------------------------
 BYTE   GoTo
  POIN2 Label_5457D2
 BYTE   FINE

//******************************************************//
	ALIGN 4

MLSuperstarSagaPoppleBattleSme:
	BYTE	11	// NumTrks
	BYTE	0	// NumBlks
	BYTE	MLSuperstarSagaPoppleBattleSme_pri	// Priority
	BYTE	MLSuperstarSagaPoppleBattleSme_rev	// Reverb.
    
	POIN2	MLSuperstarSagaPoppleBattleSme_grp
    
	POIN2	MLSuperstarSagaPoppleBattleSme_001
	POIN2	MLSuperstarSagaPoppleBattleSme_002
	POIN2	MLSuperstarSagaPoppleBattleSme_003
	POIN2	MLSuperstarSagaPoppleBattleSme_004
	POIN2	MLSuperstarSagaPoppleBattleSme_005
	POIN2	MLSuperstarSagaPoppleBattleSme_006
	POIN2	MLSuperstarSagaPoppleBattleSme_007
	POIN2	MLSuperstarSagaPoppleBattleSme_008
	POIN2	MLSuperstarSagaPoppleBattleSme_009
	POIN2	MLSuperstarSagaPoppleBattleSme_010
	POIN2	MLSuperstarSagaPoppleBattleSme_011

	
