//Event file generated from Sappy .s format.
	#include "MPlayDef.event"

	#define	PaperMarioShyGuysToyboxDolkar_grp  voicegroup000
	#define	PaperMarioShyGuysToyboxDolkar_pri  0
	#define	PaperMarioShyGuysToyboxDolkar_rev  0
	#define	PaperMarioShyGuysToyboxDolkar_mvl  127
	#define	PaperMarioShyGuysToyboxDolkar_key  0
	#define	PaperMarioShyGuysToyboxDolkar_tbs  1
	#define	PaperMarioShyGuysToyboxDolkar_exg  0
	#define	PaperMarioShyGuysToyboxDolkar_cmp  1

	// .rodata
	//	PaperMarioShyGuysToyboxDolkar
	ALIGN 4


//**************** Track 1 (Midi-Chn.0) ****************//

PaperMarioShyGuysToyboxDolkar_001:
// 000   ----------------------------------------
 BYTE   VOL   65*PaperMarioShyGuysToyboxDolkar_mvl/mxv
 BYTE   KEYSH   PaperMarioShyGuysToyboxDolkar_key+0
Label_0_01909D84:
 BYTE   TEMPO   130*PaperMarioShyGuysToyboxDolkar_tbs/2
 BYTE   VOICE   11
 BYTE   PAN   c_v+0
 BYTE   N06  Fn4  v100
 BYTE   N12  As5
 BYTE   W06
 BYTE   N06  En4
 BYTE   W05
 BYTE   Fn4
 BYTE   W01
 BYTE   N12  Fn6
 BYTE   W05
 BYTE   N06  Fs4
 BYTE   W07
 BYTE   Gn4
 BYTE   N12  En6
 BYTE   W06
 BYTE   N06  An4
 BYTE   W06
 BYTE   Gn4
 BYTE   N12  Fn6
 BYTE   W06
 BYTE   N06  Fs4
 BYTE   W06
 BYTE   Fn4
 BYTE   N12  Gn6
 BYTE   W05
 BYTE   N06  En4
 BYTE   W06
 BYTE   Fn4
 BYTE   W01
 BYTE   N12  Fn6
 BYTE   W04
 BYTE   N06  Fs4
 BYTE   W08
 BYTE   Gn4
 BYTE   N12  En6
 BYTE   W05
 BYTE   N06  An4
 BYTE   W06
 BYTE   Gn4
 BYTE   W01
 BYTE   N12  Fn6
 BYTE   W05
 BYTE   N06  Fs4
 BYTE   W07
// 001   ----------------------------------------
Label_0_01909DC7:
 BYTE   N06  Fn4  v100
 BYTE   N12  Ds6
 BYTE   W12
 BYTE   N06  As4
 BYTE   N12  Dn6
 BYTE   W12
 BYTE   N06  Dn5
 BYTE   N12  Cn6
 BYTE   W12
 BYTE   N06  As4
 BYTE   N12  Dn6
 BYTE   W12
 BYTE   N06  En5
 BYTE   N12  As5
 BYTE   W12
 BYTE   Fn5
 BYTE   W12
 BYTE   N12
 BYTE   N12  Gn5
 BYTE   W11
 BYTE   An5
 BYTE   W13
 BYTE   PEND 
// 002   ----------------------------------------
Label_0_01909DEA:
 BYTE   N03  Fs4  v100
 BYTE   W03
 BYTE   Gs4
 BYTE   W02
 BYTE   Fs4
 BYTE   W03
 BYTE   Gs4
 BYTE   W03
 BYTE   Fs4
 BYTE   W02
 BYTE   Gs4
 BYTE   W03
 BYTE   Fs4
 BYTE   W02
 BYTE   Gs4
 BYTE   W04
 BYTE   Fs4
 BYTE   W01
 BYTE   Gs4
 BYTE   W04
 BYTE   Fs4
 BYTE   W01
 BYTE   Gs4
 BYTE   W05
 BYTE   Fs4
 BYTE   W03
 BYTE   Gs4
 BYTE   W04
 BYTE   Fs4
 BYTE   W08
 BYTE   N12  Fn4
 BYTE   W24
 BYTE   Fn5
 BYTE   W24
 BYTE   PEND 
// 003   ----------------------------------------
Label_0_01909E10:
 BYTE   W01
 BYTE   N03  Fs4  v100
 BYTE   W02
 BYTE   Gs4
 BYTE   W03
 BYTE   Fs4
 BYTE   W03
 BYTE   Gs4
 BYTE   W02
 BYTE   Fs4
 BYTE   W03
 BYTE   Gs4
 BYTE   W02
 BYTE   Fs4
 BYTE   W03
 BYTE   Gs4
 BYTE   W03
 BYTE   Fs4
 BYTE   W01
 BYTE   Gs4
 BYTE   W04
 BYTE   Fs4
 BYTE   W02
 BYTE   Gs4
 BYTE   W04
 BYTE   Fs4
 BYTE   W04
 BYTE   Gs4
 BYTE   W03
 BYTE   Fs4
 BYTE   W09
 BYTE   N12  Fn4
 BYTE   W10
 BYTE   Cn5
 BYTE   W13
 BYTE   Fn5
 BYTE   W24
 BYTE   PEND 
// 004   ----------------------------------------
 BYTE   W96
// 005   ----------------------------------------
 BYTE   W96
// 006   ----------------------------------------
Label_0_01909E3B:
 BYTE   N06  Gn4  v100
 BYTE   N12  Cn6
 BYTE   W05
 BYTE   N06  An4
 BYTE   W06
 BYTE   Gn4
 BYTE   W01
 BYTE   N12  Gn6
 BYTE   W06
 BYTE   N06  Fs4
 BYTE   W06
 BYTE   Gn4
 BYTE   N12  Fs6
 BYTE   W06
 BYTE   N06  An4
 BYTE   W06
 BYTE   Gn4
 BYTE   N12  Gn6
 BYTE   W06
 BYTE   N06  Fs4
 BYTE   W06
 BYTE   N12  Gn4
 BYTE   N12  An6
 BYTE   W12
 BYTE   Cn5
 BYTE   N12  Gn6
 BYTE   W12
 BYTE   En5
 BYTE   N12  Fs6
 BYTE   W12
 BYTE   Cn5
 BYTE   N12  Gn6
 BYTE   W12
 BYTE   PEND 
// 007   ----------------------------------------
Label_0_01909E6C:
 BYTE   N12  Fs5  v100
 BYTE   N12  Fn6
 BYTE   W12
 BYTE   N06  Gn5
 BYTE   N12  En6
 BYTE   W05
 BYTE   N06  An5
 BYTE   W07
 BYTE   N12  Gn5
 BYTE   N12  Ds6
 BYTE   W12
 BYTE   Dn6
 BYTE   W01
 BYTE   En5
 BYTE   W11
 BYTE   N48  As4
 BYTE   N12  En6
 BYTE   W12
 BYTE   Cn6
 BYTE   W12
 BYTE   Gn5
 BYTE   W24
 BYTE   PEND 
// 008   ----------------------------------------
 BYTE   W96
// 009   ----------------------------------------
 BYTE   W96
// 010   ----------------------------------------
 BYTE   W96
// 011   ----------------------------------------
 BYTE   W96
// 012   ----------------------------------------
 BYTE   W96
// 013   ----------------------------------------
 BYTE   W96
// 014   ----------------------------------------
 BYTE   W96
// 015   ----------------------------------------
 BYTE   W96
// 016   ----------------------------------------
 BYTE   W96
// 017   ----------------------------------------
Label_0_01909E96:
 BYTE   N12  Ds4  v100
 BYTE   W11
 BYTE   Gs4
 BYTE   W13
 BYTE   Ds5
 BYTE   W12
 BYTE   As4
 BYTE   W12
 BYTE   Fn5
 BYTE   W12
 BYTE   Fn4
 BYTE   W12
 BYTE   Gs5
 BYTE   W12
 BYTE   As4
 BYTE   W12
 BYTE   PEND 
// 018   ----------------------------------------
 BYTE   W96
// 019   ----------------------------------------
 BYTE   W96
// 020   ----------------------------------------
 BYTE   W96
// 021   ----------------------------------------
 BYTE   W96
// 022   ----------------------------------------
 BYTE   N06  Fn4
 BYTE   N12  As5
 BYTE   W06
 BYTE   N06  En4
 BYTE   W05
 BYTE   Fn4
 BYTE   W01
 BYTE   N12  Fn6
 BYTE   W05
 BYTE   N06  Fs4
 BYTE   W07
 BYTE   Gn4
 BYTE   N12  En6
 BYTE   W06
 BYTE   N06  An4
 BYTE   W06
 BYTE   Gn4
 BYTE   N12  Fn6
 BYTE   W06
 BYTE   N06  Fs4
 BYTE   W06
 BYTE   Fn4
 BYTE   N12  Gn6
 BYTE   W05
 BYTE   N06  En4
 BYTE   W06
 BYTE   Fn4
 BYTE   W01
 BYTE   N12  Fn6
 BYTE   W04
 BYTE   N06  Fs4
 BYTE   W08
 BYTE   Gn4
 BYTE   N12  En6
 BYTE   W05
 BYTE   N06  An4
 BYTE   W06
 BYTE   Gn4
 BYTE   W01
 BYTE   N12  Fn6
 BYTE   W05
 BYTE   N06  Fs4
 BYTE   W07
 BYTE   PATT
  POIN2 Label_0_01909DC7
 BYTE   PATT
  POIN2 Label_0_01909DEA
 BYTE   PATT
  POIN2 Label_0_01909E10
// 023   ----------------------------------------
 BYTE   W96
// 024   ----------------------------------------
 BYTE   W96
 BYTE   PATT
  POIN2 Label_0_01909E3B
 BYTE   PATT
  POIN2 Label_0_01909E6C
// 025   ----------------------------------------
 BYTE   W96
// 026   ----------------------------------------
 BYTE   W96
// 027   ----------------------------------------
 BYTE   W96
// 028   ----------------------------------------
 BYTE   W96
// 029   ----------------------------------------
 BYTE   W96
// 030   ----------------------------------------
 BYTE   W96
// 031   ----------------------------------------
 BYTE   W96
// 032   ----------------------------------------
 BYTE   W96
// 033   ----------------------------------------
 BYTE   W96
 BYTE   PATT
  POIN2 Label_0_01909E96
// 034   ----------------------------------------
 BYTE   W96
// 035   ----------------------------------------
 BYTE   W96
// 036   ----------------------------------------
 BYTE   W96
// 037   ----------------------------------------
 BYTE   W96
// 038   ----------------------------------------
 BYTE   N06  Fn4  v100
 BYTE   N12  As5
 BYTE   W06
 BYTE   N06  En4
 BYTE   W05
 BYTE   Fn4
 BYTE   W01
 BYTE   N12  Fn6
 BYTE   W05
 BYTE   N06  Fs4
 BYTE   W07
 BYTE   Gn4
 BYTE   N12  En6
 BYTE   W06
 BYTE   N06  An4
 BYTE   W06
 BYTE   Gn4
 BYTE   N12  Fn6
 BYTE   W06
 BYTE   N06  Fs4
 BYTE   W06
 BYTE   Fn4
 BYTE   N12  Gn6
 BYTE   W05
 BYTE   N06  En4
 BYTE   W06
 BYTE   Fn4
 BYTE   W01
 BYTE   N12  Fn6
 BYTE   W04
 BYTE   N06  Fs4
 BYTE   W08
 BYTE   Gn4
 BYTE   N12  En6
 BYTE   W05
 BYTE   N06  An4
 BYTE   W06
 BYTE   Gn4
 BYTE   W01
 BYTE   VOL   38*PaperMarioShyGuysToyboxDolkar_mvl/mxv
 BYTE   N12  Fn6
 BYTE   W05
 BYTE   N06  Fs4
 BYTE   W07
// 039   ----------------------------------------
 BYTE   Fn4
 BYTE   N12  Ds6
 BYTE   W12
 BYTE   N06  As4
 BYTE   N12  Dn6
 BYTE   W12
 BYTE   N06  Dn5
 BYTE   N12  Cn6
 BYTE   W12
 BYTE   VOL   25*PaperMarioShyGuysToyboxDolkar_mvl/mxv
 BYTE   N06  As4
 BYTE   N12  Dn6
 BYTE   W12
 BYTE   N06  En5
 BYTE   N12  As5
 BYTE   W12
 BYTE   Fn5
 BYTE   W12
 BYTE   N12
 BYTE   N12  Gn5
 BYTE   W11
 BYTE   An5
 BYTE   W13
// 040   ----------------------------------------
 BYTE   N03  Fs4
 BYTE   W03
 BYTE   Gs4
 BYTE   W02
 BYTE   Fs4
 BYTE   W03
 BYTE   Gs4
 BYTE   W03
 BYTE   Fs4
 BYTE   W02
 BYTE   Gs4
 BYTE   W03
 BYTE   Fs4
 BYTE   W02
 BYTE   Gs4
 BYTE   W04
 BYTE   Fs4
 BYTE   W01
 BYTE   Gs4
 BYTE   W04
 BYTE   Fs4
 BYTE   W01
 BYTE   Gs4
 BYTE   W05
 BYTE   Fs4
 BYTE   W03
 BYTE   Gs4
 BYTE   W04
 BYTE   Fs4
 BYTE   W08
 BYTE   N12  Fn4
 BYTE   W24
 BYTE   VOL   11*PaperMarioShyGuysToyboxDolkar_mvl/mxv
 BYTE   N12  Fn5
 BYTE   W24
// 041   ----------------------------------------
 BYTE   W01
 BYTE   N03  Fs4
 BYTE   W02
 BYTE   Gs4
 BYTE   W03
 BYTE   Fs4
 BYTE   W03
 BYTE   Gs4
 BYTE   W02
 BYTE   Fs4
 BYTE   W03
 BYTE   Gs4
 BYTE   W02
 BYTE   Fs4
 BYTE   W03
 BYTE   Gs4
 BYTE   W03
 BYTE   Fs4
 BYTE   W01
 BYTE   Gs4
 BYTE   W04
 BYTE   Fs4
 BYTE   W02
 BYTE   Gs4
 BYTE   W04
 BYTE   Fs4
 BYTE   W04
 BYTE   Gs4
 BYTE   W03
 BYTE   VOL   7*PaperMarioShyGuysToyboxDolkar_mvl/mxv
 BYTE   N03  Fs4
 BYTE   W09
 BYTE   N12  Fn4
 BYTE   W10
 BYTE   Cn5
 BYTE   W13
 BYTE   Fn5
 BYTE   W24
// 042   ----------------------------------------
 BYTE   W96
// 043   ----------------------------------------
 BYTE   W84
 BYTE   W03
 BYTE   GoTo
  POIN2 Label_0_01909D84
 BYTE   FINE

//**************** Track 2 (Midi-Chn.1) ****************//

PaperMarioShyGuysToyboxDolkar_002:
// 000   ----------------------------------------
 BYTE   VOL   65*PaperMarioShyGuysToyboxDolkar_mvl/mxv
 BYTE   KEYSH   PaperMarioShyGuysToyboxDolkar_key+0
Label_1_01909FD8:
 BYTE   VOICE   58
 BYTE   PAN   c_v+0
 BYTE   N12  As0  v100
 BYTE   W24
 BYTE   Fn0
 BYTE   W24
 BYTE   As0
 BYTE   W23
 BYTE   Fn0
 BYTE   W24
 BYTE   W01
// 001   ----------------------------------------
Label_1_01909FE7:
 BYTE   N12  As0  v100
 BYTE   W24
 BYTE   Fn0
 BYTE   W24
 BYTE   As0
 BYTE   W23
 BYTE   Fn0
 BYTE   W24
 BYTE   W01
 BYTE   PEND 
// 002   ----------------------------------------
Label_1_01909FF3:
 BYTE   N12  As0  v100
 BYTE   W13
 BYTE   Fn1
 BYTE   W11
 BYTE   En1
 BYTE   W12
 BYTE   Fn1
 BYTE   W12
 BYTE   Fs1
 BYTE   W12
 BYTE   Fn1
 BYTE   W12
 BYTE   Ds1
 BYTE   W12
 BYTE   Cs1
 BYTE   W12
 BYTE   PEND 
// 003   ----------------------------------------
Label_1_0190A006:
 BYTE   N12  Cn1  v100
 BYTE   W12
 BYTE   As0
 BYTE   W12
 BYTE   An0
 BYTE   W12
 BYTE   Fs0
 BYTE   W12
 BYTE   Fn0
 BYTE   W48
 BYTE   PEND 
// 004   ----------------------------------------
 BYTE   W96
// 005   ----------------------------------------
 BYTE   W72
 BYTE   As0
 BYTE   W24
// 006   ----------------------------------------
Label_1_0190A017:
 BYTE   N12  Cn1  v100
 BYTE   W24
 BYTE   Gn0
 BYTE   W24
 BYTE   Cn1
 BYTE   W24
 BYTE   Gn0
 BYTE   W24
 BYTE   PEND 
 BYTE   PATT
  POIN2 Label_1_0190A017
// 007   ----------------------------------------
Label_1_0190A027:
 BYTE   N12  Fn1  v100
 BYTE   W24
 BYTE   Cn1
 BYTE   W24
 BYTE   Fn1
 BYTE   W24
 BYTE   Cn1
 BYTE   W24
 BYTE   PEND 
// 008   ----------------------------------------
Label_1_0190A032:
 BYTE   N12  Fn1  v100
 BYTE   W12
 BYTE   Cn1
 BYTE   W12
 BYTE   An0
 BYTE   W12
 BYTE   Gn0
 BYTE   W12
 BYTE   Fn0
 BYTE   W48
 BYTE   PEND 
 BYTE   PATT
  POIN2 Label_1_01909FE7
// 009   ----------------------------------------
Label_1_0190A044:
 BYTE   N12  As0  v100
 BYTE   W24
 BYTE   Fn0
 BYTE   W24
 BYTE   As0
 BYTE   W12
 BYTE   An0
 BYTE   W11
 BYTE   As0
 BYTE   W12
 BYTE   Bn0
 BYTE   W13
 BYTE   PEND 
// 010   ----------------------------------------
Label_1_0190A053:
 BYTE   N12  Cn1  v100
 BYTE   W24
 BYTE   Gn0
 BYTE   W24
 BYTE   Cn1
 BYTE   W23
 BYTE   Gn0
 BYTE   W24
 BYTE   W01
 BYTE   PEND 
// 011   ----------------------------------------
Label_1_0190A05F:
 BYTE   N12  Cn1  v100
 BYTE   W24
 BYTE   Gn0
 BYTE   W24
 BYTE   Cn1
 BYTE   W12
 BYTE   Bn0
 BYTE   W11
 BYTE   Cn1
 BYTE   W12
 BYTE   Cs1
 BYTE   W13
 BYTE   PEND 
// 012   ----------------------------------------
Label_1_0190A06E:
 BYTE   N12  Dn1  v100
 BYTE   W24
 BYTE   An0
 BYTE   W24
 BYTE   Dn1
 BYTE   W23
 BYTE   An0
 BYTE   W24
 BYTE   W01
 BYTE   PEND 
// 013   ----------------------------------------
Label_1_0190A07A:
 BYTE   N12  Ds1  v100
 BYTE   W24
 BYTE   As0
 BYTE   W24
 BYTE   Ds1
 BYTE   W23
 BYTE   As0
 BYTE   W24
 BYTE   W01
 BYTE   PEND 
// 014   ----------------------------------------
 BYTE   W96
// 015   ----------------------------------------
 BYTE   W96
// 016   ----------------------------------------
Label_1_0190A088:
 BYTE   N12  As0  v100
 BYTE   W23
 BYTE   Fn0
 BYTE   W24
 BYTE   As0
 BYTE   W23
 BYTE   Fn0
 BYTE   W24
 BYTE   W02
 BYTE   PEND 
// 017   ----------------------------------------
Label_1_0190A094:
 BYTE   N12  As0  v100
 BYTE   W23
 BYTE   Fn0
 BYTE   W24
 BYTE   As0
 BYTE   W48
 BYTE   W01
 BYTE   PEND 
 BYTE   PATT
  POIN2 Label_1_01909FE7
// 018   ----------------------------------------
Label_1_0190A0A3:
 BYTE   N12  As0  v100
 BYTE   W24
 BYTE   Fn0
 BYTE   W24
 BYTE   As0
 BYTE   W48
 BYTE   PEND 
 BYTE   PATT
  POIN2 Label_1_01909FE7
 BYTE   PATT
  POIN2 Label_1_01909FE7
 BYTE   PATT
  POIN2 Label_1_01909FF3
 BYTE   PATT
  POIN2 Label_1_0190A006
// 019   ----------------------------------------
 BYTE   W96
// 020   ----------------------------------------
 BYTE   W72
 BYTE   N12  As0  v100
 BYTE   W24
 BYTE   PATT
  POIN2 Label_1_0190A017
 BYTE   PATT
  POIN2 Label_1_0190A017
 BYTE   PATT
  POIN2 Label_1_0190A027
 BYTE   PATT
  POIN2 Label_1_0190A032
 BYTE   PATT
  POIN2 Label_1_01909FE7
 BYTE   PATT
  POIN2 Label_1_0190A044
 BYTE   PATT
  POIN2 Label_1_0190A053
 BYTE   PATT
  POIN2 Label_1_0190A05F
 BYTE   PATT
  POIN2 Label_1_0190A06E
 BYTE   PATT
  POIN2 Label_1_0190A07A
// 021   ----------------------------------------
 BYTE   W96
// 022   ----------------------------------------
 BYTE   W96
 BYTE   PATT
  POIN2 Label_1_0190A088
 BYTE   PATT
  POIN2 Label_1_0190A094
 BYTE   PATT
  POIN2 Label_1_01909FE7
 BYTE   PATT
  POIN2 Label_1_0190A0A3
 BYTE   PATT
  POIN2 Label_1_01909FE7
// 023   ----------------------------------------
 BYTE   N12  As0  v100
 BYTE   W24
 BYTE   Fn0
 BYTE   W24
 BYTE   As0
 BYTE   W23
 BYTE   Fn0
 BYTE   W24
 BYTE   W01
// 024   ----------------------------------------
 BYTE   As0
 BYTE   W13
 BYTE   VOL   36*PaperMarioShyGuysToyboxDolkar_mvl/mxv
 BYTE   N12  Fn1
 BYTE   W11
 BYTE   En1
 BYTE   W12
 BYTE   Fn1
 BYTE   W12
 BYTE   Fs1
 BYTE   W12
 BYTE   VOL   25*PaperMarioShyGuysToyboxDolkar_mvl/mxv
 BYTE   N12  Fn1
 BYTE   W12
 BYTE   Ds1
 BYTE   W12
 BYTE   Cs1
 BYTE   W12
// 025   ----------------------------------------
 BYTE   VOL   10*PaperMarioShyGuysToyboxDolkar_mvl/mxv
 BYTE   N12  Cn1
 BYTE   W12
 BYTE   As0
 BYTE   W12
 BYTE   An0
 BYTE   W12
 BYTE   Fs0
 BYTE   W12
 BYTE   Fn0
 BYTE   W48
// 026   ----------------------------------------
 BYTE   W96
// 027   ----------------------------------------
 BYTE   W72
 BYTE   VOL   0*PaperMarioShyGuysToyboxDolkar_mvl/mxv
 BYTE   N12  As0
 BYTE   W15
 BYTE   GoTo
  POIN2 Label_1_01909FD8
 BYTE   FINE

//**************** Track 3 (Midi-Chn.2) ****************//

PaperMarioShyGuysToyboxDolkar_003:
// 000   ----------------------------------------
 BYTE   VOL   65*PaperMarioShyGuysToyboxDolkar_mvl/mxv
 BYTE   KEYSH   PaperMarioShyGuysToyboxDolkar_key+0
Label_2_0190A154:
 BYTE   VOICE   45
 BYTE   PAN   c_v+0
 BYTE   N06  Fn3  v100
 BYTE   N06  As3
 BYTE   W13
 BYTE   Fn4
 BYTE   W11
 BYTE   Fn3
 BYTE   W12
 BYTE   Fn4
 BYTE   W12
 BYTE   Fn3
 BYTE   N06  As3
 BYTE   W12
 BYTE   Fn4
 BYTE   W12
 BYTE   Fn3
 BYTE   W12
 BYTE   Fn4
 BYTE   W12
// 001   ----------------------------------------
Label_2_0190A16E:
 BYTE   W01
 BYTE   N06  Fn3  v100
 BYTE   N06  As3
 BYTE   W13
 BYTE   Fn4
 BYTE   W11
 BYTE   Fn3
 BYTE   W12
 BYTE   Fn4
 BYTE   W11
 BYTE   Fn3
 BYTE   N06  As3
 BYTE   W13
 BYTE   Fn4
 BYTE   W11
 BYTE   Fn3
 BYTE   W12
 BYTE   Fn4
 BYTE   W12
 BYTE   PEND 
// 002   ----------------------------------------
Label_2_0190A186:
 BYTE   N12  Fs3  v100
 BYTE   W48
 BYTE   Fn3
 BYTE   W48
 BYTE   PEND 
 BYTE   PATT
  POIN2 Label_2_0190A186
// 003   ----------------------------------------
Label_2_0190A192:
 BYTE   N12  Bn3  v100
 BYTE   N12  Fs4
 BYTE   W12
 BYTE   Bn3
 BYTE   N12  Fs4
 BYTE   W12
 BYTE   N12
 BYTE   W01
 BYTE   Bn3
 BYTE   W23
 BYTE   Bn2
 BYTE   N12  Fs3
 BYTE   W12
 BYTE   Bn2
 BYTE   N12  Fs3
 BYTE   W13
 BYTE   Bn2
 BYTE   N12  Fs3
 BYTE   W23
 BYTE   PEND 
// 004   ----------------------------------------
Label_2_0190A1AD:
 BYTE   N06  Fn3  v100
 BYTE   N06  Fn4
 BYTE   W05
 BYTE   En3
 BYTE   N06  En4
 BYTE   W06
 BYTE   N05  Fn4
 BYTE   W01
 BYTE   Fn3
 BYTE   W06
 BYTE   N06  Fs3
 BYTE   N06  Fs4
 BYTE   W06
 BYTE   Gn3
 BYTE   N06  Gn4
 BYTE   W05
 BYTE   Fs4
 BYTE   W01
 BYTE   Fs3
 BYTE   W06
 BYTE   Gn3
 BYTE   N06  Gn4
 BYTE   W06
 BYTE   An3
 BYTE   N06  An4
 BYTE   W06
 BYTE   As4
 BYTE   W01
 BYTE   As3
 BYTE   W23
 BYTE   N12  As2
 BYTE   N12  As3
 BYTE   W24
 BYTE   PEND 
// 005   ----------------------------------------
Label_2_0190A1DB:
 BYTE   N06  Gn3  v100
 BYTE   N06  Cn4
 BYTE   W13
 BYTE   En4
 BYTE   N06  Gn4
 BYTE   W11
 BYTE   Gn3
 BYTE   W12
 BYTE   En4
 BYTE   N06  Gn4
 BYTE   W11
 BYTE   Gn3
 BYTE   N06  Cn4
 BYTE   W13
 BYTE   Gn4
 BYTE   W01
 BYTE   En4
 BYTE   W10
 BYTE   Gn3
 BYTE   W12
 BYTE   Gn4
 BYTE   W01
 BYTE   En4
 BYTE   W12
 BYTE   PEND 
// 006   ----------------------------------------
Label_2_0190A1FA:
 BYTE   N06  Gn3  v100
 BYTE   N06  Cn4
 BYTE   W13
 BYTE   En4
 BYTE   N06  Gn4
 BYTE   W11
 BYTE   Gn3
 BYTE   W12
 BYTE   En4
 BYTE   N06  Gn4
 BYTE   W12
 BYTE   Gn3
 BYTE   N06  Cn4
 BYTE   W12
 BYTE   En4
 BYTE   N06  Gn4
 BYTE   W12
 BYTE   Gn3
 BYTE   W12
 BYTE   En4
 BYTE   N06  Gn4
 BYTE   W12
 BYTE   PEND 
// 007   ----------------------------------------
Label_2_0190A219:
 BYTE   N06  Cn4  v100
 BYTE   N06  Fn4
 BYTE   W13
 BYTE   Cn5
 BYTE   W01
 BYTE   An4
 BYTE   W10
 BYTE   Cn4
 BYTE   W12
 BYTE   Cn5
 BYTE   W01
 BYTE   An4
 BYTE   W11
 BYTE   Cn4
 BYTE   N06  Fn4
 BYTE   W12
 BYTE   Cn5
 BYTE   W02
 BYTE   An4
 BYTE   W10
 BYTE   Cn4
 BYTE   W12
 BYTE   An4
 BYTE   N06  Cn5
 BYTE   W12
 BYTE   PEND 
// 008   ----------------------------------------
Label_2_0190A238:
 BYTE   N06  Fn4  v100
 BYTE   W12
 BYTE   Cn4
 BYTE   W12
 BYTE   An3
 BYTE   W12
 BYTE   Gn3
 BYTE   W12
 BYTE   Fn3
 BYTE   W24
 BYTE   Fn4
 BYTE   N06  An4
 BYTE   W24
 BYTE   PEND 
// 009   ----------------------------------------
Label_2_0190A249:
 BYTE   N06  Fn3  v100
 BYTE   N06  As3
 BYTE   W13
 BYTE   Fn4
 BYTE   W11
 BYTE   Fn3
 BYTE   W12
 BYTE   Fn4
 BYTE   W11
 BYTE   Fn3
 BYTE   N06  As3
 BYTE   W13
 BYTE   Fn4
 BYTE   W11
 BYTE   Fn3
 BYTE   W12
 BYTE   Fn4
 BYTE   W13
 BYTE   PEND 
// 010   ----------------------------------------
Label_2_0190A260:
 BYTE   N06  Fn3  v100
 BYTE   N06  As3
 BYTE   W13
 BYTE   Fn4
 BYTE   W11
 BYTE   Fn3
 BYTE   W12
 BYTE   Fn4
 BYTE   W12
 BYTE   Fn3
 BYTE   N06  As3
 BYTE   W11
 BYTE   An3
 BYTE   W13
 BYTE   As3
 BYTE   W11
 BYTE   Bn3
 BYTE   W13
 BYTE   PEND 
// 011   ----------------------------------------
Label_2_0190A277:
 BYTE   N06  Gn3  v100
 BYTE   N06  Cn4
 BYTE   W12
 BYTE   Gn4
 BYTE   W01
 BYTE   En4
 BYTE   W10
 BYTE   Gn3
 BYTE   W12
 BYTE   Gn4
 BYTE   W01
 BYTE   En4
 BYTE   W10
 BYTE   Gn3
 BYTE   N06  Cn4
 BYTE   W13
 BYTE   Gn4
 BYTE   W02
 BYTE   En4
 BYTE   W09
 BYTE   Gn3
 BYTE   W13
 BYTE   En4
 BYTE   N06  Gn4
 BYTE   W13
 BYTE   PEND 
// 012   ----------------------------------------
Label_2_0190A296:
 BYTE   N06  Gn3  v100
 BYTE   N06  Cn4
 BYTE   W13
 BYTE   En4
 BYTE   N06  Gn4
 BYTE   W11
 BYTE   Gn3
 BYTE   W11
 BYTE   En4
 BYTE   W01
 BYTE   Gn4
 BYTE   W11
 BYTE   Gn3
 BYTE   N06  Cn4
 BYTE   W13
 BYTE   Bn3
 BYTE   W11
 BYTE   Cn4
 BYTE   W12
 BYTE   Cs4
 BYTE   W13
 BYTE   PEND 
// 013   ----------------------------------------
Label_2_0190A2B1:
 BYTE   N06  An3  v100
 BYTE   N06  Dn4
 BYTE   W13
 BYTE   Fs4
 BYTE   N06  An4
 BYTE   W11
 BYTE   An3
 BYTE   W12
 BYTE   Fs4
 BYTE   N06  An4
 BYTE   W11
 BYTE   An3
 BYTE   N06  Dn4
 BYTE   W13
 BYTE   An4
 BYTE   W01
 BYTE   Fs4
 BYTE   W10
 BYTE   An3
 BYTE   W12
 BYTE   An4
 BYTE   W01
 BYTE   Fs4
 BYTE   W12
 BYTE   PEND 
// 014   ----------------------------------------
Label_2_0190A2D0:
 BYTE   N06  As3  v100
 BYTE   N06  Ds4
 BYTE   W13
 BYTE   As4
 BYTE   W01
 BYTE   Gn4
 BYTE   W10
 BYTE   As3
 BYTE   W12
 BYTE   As4
 BYTE   W01
 BYTE   Gn4
 BYTE   W11
 BYTE   As3
 BYTE   N06  Ds4
 BYTE   W12
 BYTE   As4
 BYTE   W02
 BYTE   Gn4
 BYTE   W10
 BYTE   As3
 BYTE   W12
 BYTE   Gn4
 BYTE   N06  As4
 BYTE   W12
 BYTE   PEND 
// 015   ----------------------------------------
Label_2_0190A2EF:
 BYTE   N12  Fn4  v100
 BYTE   N12  Cn5
 BYTE   W12
 BYTE   Fn4
 BYTE   N12  Cn5
 BYTE   W12
 BYTE   N12
 BYTE   W01
 BYTE   Fn4
 BYTE   W23
 BYTE   Cn4
 BYTE   N12  An4
 BYTE   W12
 BYTE   Cn4
 BYTE   N12  An4
 BYTE   W13
 BYTE   Cn4
 BYTE   N12  An4
 BYTE   W23
 BYTE   PEND 
// 016   ----------------------------------------
Label_2_0190A30A:
 BYTE   N06  Fn4  v100
 BYTE   W01
 BYTE   Cn5
 BYTE   W11
 BYTE   En4
 BYTE   N06  Bn4
 BYTE   W12
 BYTE   Ds4
 BYTE   N06  As4
 BYTE   W12
 BYTE   Dn4
 BYTE   N06  An4
 BYTE   W12
 BYTE   Cs4
 BYTE   N06  Gs4
 BYTE   W12
 BYTE   Cn4
 BYTE   N06  Gn4
 BYTE   W12
 BYTE   Bn3
 BYTE   N06  Fs4
 BYTE   W11
 BYTE   As3
 BYTE   N06  Fn4
 BYTE   W13
 BYTE   PEND 
// 017   ----------------------------------------
Label_2_0190A32D:
 BYTE   N06  Fn3  v100
 BYTE   N06  As3
 BYTE   W13
 BYTE   Fn4
 BYTE   W11
 BYTE   Fn3
 BYTE   W12
 BYTE   Fn4
 BYTE   W12
 BYTE   Fn3
 BYTE   N06  As3
 BYTE   W12
 BYTE   Fn4
 BYTE   W12
 BYTE   Fn3
 BYTE   W12
 BYTE   Fn4
 BYTE   W12
 BYTE   PEND 
// 018   ----------------------------------------
Label_2_0190A344:
 BYTE   W01
 BYTE   N06  Fn3  v100
 BYTE   N06  As3
 BYTE   W13
 BYTE   Fn4
 BYTE   W11
 BYTE   Fn3
 BYTE   W12
 BYTE   Fn4
 BYTE   W11
 BYTE   Fn3
 BYTE   N06  As3
 BYTE   W13
 BYTE   Fn4
 BYTE   N06  An4
 BYTE   W11
 BYTE   Fn4
 BYTE   N06  An4
 BYTE   W24
 BYTE   PEND 
 BYTE   PATT
  POIN2 Label_2_0190A249
// 019   ----------------------------------------
Label_2_0190A363:
 BYTE   N06  Fn3  v100
 BYTE   N06  As3
 BYTE   W13
 BYTE   Fn4
 BYTE   W11
 BYTE   Fn3
 BYTE   W12
 BYTE   Fn4
 BYTE   W12
 BYTE   Fn3
 BYTE   N06  As3
 BYTE   W12
 BYTE   Fn4
 BYTE   W01
 BYTE   An4
 BYTE   W11
 BYTE   Fn4
 BYTE   N06  An4
 BYTE   W24
 BYTE   PEND 
 BYTE   PATT
  POIN2 Label_2_0190A32D
 BYTE   PATT
  POIN2 Label_2_0190A16E
 BYTE   PATT
  POIN2 Label_2_0190A186
 BYTE   PATT
  POIN2 Label_2_0190A186
 BYTE   PATT
  POIN2 Label_2_0190A192
 BYTE   PATT
  POIN2 Label_2_0190A1AD
 BYTE   PATT
  POIN2 Label_2_0190A1DB
 BYTE   PATT
  POIN2 Label_2_0190A1FA
 BYTE   PATT
  POIN2 Label_2_0190A219
 BYTE   PATT
  POIN2 Label_2_0190A238
 BYTE   PATT
  POIN2 Label_2_0190A249
 BYTE   PATT
  POIN2 Label_2_0190A260
 BYTE   PATT
  POIN2 Label_2_0190A277
 BYTE   PATT
  POIN2 Label_2_0190A296
 BYTE   PATT
  POIN2 Label_2_0190A2B1
 BYTE   PATT
  POIN2 Label_2_0190A2D0
 BYTE   PATT
  POIN2 Label_2_0190A2EF
 BYTE   PATT
  POIN2 Label_2_0190A30A
 BYTE   PATT
  POIN2 Label_2_0190A32D
 BYTE   PATT
  POIN2 Label_2_0190A344
 BYTE   PATT
  POIN2 Label_2_0190A249
 BYTE   PATT
  POIN2 Label_2_0190A363
// 020   ----------------------------------------
 BYTE   N06  Fn3  v100
 BYTE   N06  As3
 BYTE   W13
 BYTE   Fn4
 BYTE   W11
 BYTE   Fn3
 BYTE   W12
 BYTE   Fn4
 BYTE   W12
 BYTE   VOL   45*PaperMarioShyGuysToyboxDolkar_mvl/mxv
 BYTE   N06  Fn3
 BYTE   N06  As3
 BYTE   W12
 BYTE   Fn4
 BYTE   W12
 BYTE   Fn3
 BYTE   W12
 BYTE   Fn4
 BYTE   W12
// 021   ----------------------------------------
 BYTE   W01
 BYTE   Fn3
 BYTE   N06  As3
 BYTE   W13
 BYTE   VOL   36*PaperMarioShyGuysToyboxDolkar_mvl/mxv
 BYTE   N06  Fn4
 BYTE   W11
 BYTE   Fn3
 BYTE   W12
 BYTE   Fn4
 BYTE   W11
 BYTE   Fn3
 BYTE   N06  As3
 BYTE   W13
 BYTE   Fn4
 BYTE   W11
 BYTE   Fn3
 BYTE   W12
 BYTE   Fn4
 BYTE   W12
 BYTE   PATT
  POIN2 Label_2_0190A186
 BYTE   PATT
  POIN2 Label_2_0190A186
// 022   ----------------------------------------
 BYTE   VOL   28*PaperMarioShyGuysToyboxDolkar_mvl/mxv
 BYTE   N12  Bn3  v100
 BYTE   N12  Fs4
 BYTE   W12
 BYTE   Bn3
 BYTE   N12  Fs4
 BYTE   W12
 BYTE   N12
 BYTE   W01
 BYTE   Bn3
 BYTE   W23
 BYTE   Bn2
 BYTE   N12  Fs3
 BYTE   W12
 BYTE   Bn2
 BYTE   N12  Fs3
 BYTE   W13
 BYTE   VOL   22*PaperMarioShyGuysToyboxDolkar_mvl/mxv
 BYTE   N12  Bn2
 BYTE   N12  Fs3
 BYTE   W23
// 023   ----------------------------------------
 BYTE   VOL   11*PaperMarioShyGuysToyboxDolkar_mvl/mxv
 BYTE   N06  Fn3
 BYTE   N06  Fn4
 BYTE   W05
 BYTE   En3
 BYTE   N06  En4
 BYTE   W06
 BYTE   VOL   0*PaperMarioShyGuysToyboxDolkar_mvl/mxv
 BYTE   N05  Fn4
 BYTE   W01
 BYTE   Fn3
 BYTE   W06
 BYTE   N06  Fs3
 BYTE   N06  Fs4
 BYTE   W06
 BYTE   Gn3
 BYTE   N06  Gn4
 BYTE   W05
 BYTE   Fs4
 BYTE   W01
 BYTE   Fs3
 BYTE   W06
 BYTE   Gn3
 BYTE   N06  Gn4
 BYTE   W06
 BYTE   An3
 BYTE   N06  An4
 BYTE   W06
 BYTE   As4
 BYTE   W01
 BYTE   As3
 BYTE   W23
 BYTE   VOL   0*PaperMarioShyGuysToyboxDolkar_mvl/mxv
 BYTE   N12  As2
 BYTE   N12  As3
 BYTE   W15
 BYTE   GoTo
  POIN2 Label_2_0190A154
 BYTE   FINE

//**************** Track 4 (Midi-Chn.3) ****************//

PaperMarioShyGuysToyboxDolkar_004:
// 000   ----------------------------------------
 BYTE   VOL   65*PaperMarioShyGuysToyboxDolkar_mvl/mxv
 BYTE   KEYSH   PaperMarioShyGuysToyboxDolkar_key+0
Label_3_0190A480:
 BYTE   VOICE   127
 BYTE   PAN   c_v+0
 BYTE   W96
// 001   ----------------------------------------
 BYTE   W96
// 002   ----------------------------------------
 BYTE   W96
// 003   ----------------------------------------
 BYTE   W96
// 004   ----------------------------------------
 BYTE   W96
// 005   ----------------------------------------
 BYTE   N06  Dn5  v100
 BYTE   W05
 BYTE   Cs5
 BYTE   W06
 BYTE   Dn5
 BYTE   W07
 BYTE   Ds5
 BYTE   W06
 BYTE   En5
 BYTE   W05
 BYTE   Ds5
 BYTE   W07
 BYTE   En5
 BYTE   W06
 BYTE   Fs5
 BYTE   W06
 BYTE   Gn5
 BYTE   W48
// 006   ----------------------------------------
 BYTE   W96
// 007   ----------------------------------------
 BYTE   W96
// 008   ----------------------------------------
 BYTE   W96
// 009   ----------------------------------------
 BYTE   W96
// 010   ----------------------------------------
 BYTE   W96
// 011   ----------------------------------------
 BYTE   W96
// 012   ----------------------------------------
 BYTE   W96
// 013   ----------------------------------------
 BYTE   W96
// 014   ----------------------------------------
 BYTE   W96
// 015   ----------------------------------------
 BYTE   W96
// 016   ----------------------------------------
 BYTE   W96
// 017   ----------------------------------------
 BYTE   W96
// 018   ----------------------------------------
 BYTE   W96
// 019   ----------------------------------------
 BYTE   W96
// 020   ----------------------------------------
 BYTE   W96
// 021   ----------------------------------------
 BYTE   W96
// 022   ----------------------------------------
 BYTE   W96
// 023   ----------------------------------------
 BYTE   W96
// 024   ----------------------------------------
 BYTE   W96
// 025   ----------------------------------------
 BYTE   W96
// 026   ----------------------------------------
 BYTE   W96
// 027   ----------------------------------------
 BYTE   Dn5
 BYTE   W05
 BYTE   Cs5
 BYTE   W06
 BYTE   Dn5
 BYTE   W07
 BYTE   Ds5
 BYTE   W06
 BYTE   En5
 BYTE   W05
 BYTE   Ds5
 BYTE   W07
 BYTE   En5
 BYTE   W06
 BYTE   Fs5
 BYTE   W06
 BYTE   VOL   20*PaperMarioShyGuysToyboxDolkar_mvl/mxv
 BYTE   N06  Gn5
 BYTE   W48
// 028   ----------------------------------------
 BYTE   W96
// 029   ----------------------------------------
 BYTE   W96
// 030   ----------------------------------------
 BYTE   W96
// 031   ----------------------------------------
 BYTE   W96
// 032   ----------------------------------------
 BYTE   W96
// 033   ----------------------------------------
 BYTE   W96
// 034   ----------------------------------------
 BYTE   W96
// 035   ----------------------------------------
 BYTE   W96
// 036   ----------------------------------------
 BYTE   W96
// 037   ----------------------------------------
 BYTE   W96
// 038   ----------------------------------------
 BYTE   W96
// 039   ----------------------------------------
 BYTE   W96
// 040   ----------------------------------------
 BYTE   W96
// 041   ----------------------------------------
 BYTE   W96
// 042   ----------------------------------------
 BYTE   W96
// 043   ----------------------------------------
 BYTE   W96
// 044   ----------------------------------------
 BYTE   W96
// 045   ----------------------------------------
 BYTE   W96
// 046   ----------------------------------------
 BYTE   W96
// 047   ----------------------------------------
 BYTE   W96
// 048   ----------------------------------------
 BYTE   W96
// 049   ----------------------------------------
 BYTE   Dn5
 BYTE   W05
 BYTE   Cs5
 BYTE   W06
 BYTE   Dn5
 BYTE   W07
 BYTE   VOL   9*PaperMarioShyGuysToyboxDolkar_mvl/mxv
 BYTE   N06  Ds5
 BYTE   W06
 BYTE   En5
 BYTE   W05
 BYTE   Ds5
 BYTE   W07
 BYTE   En5
 BYTE   W06
 BYTE   Fs5
 BYTE   W06
 BYTE   VOL   0*PaperMarioShyGuysToyboxDolkar_mvl/mxv
 BYTE   N06  Gn5
 BYTE   W36
 BYTE   W03
 BYTE   GoTo
  POIN2 Label_3_0190A480
 BYTE   FINE

//**************** Track 5 (Midi-Chn.4) ****************//

PaperMarioShyGuysToyboxDolkar_005:
// 000   ----------------------------------------
 BYTE   VOL   65*PaperMarioShyGuysToyboxDolkar_mvl/mxv
 BYTE   KEYSH   PaperMarioShyGuysToyboxDolkar_key+0
Label_4_0190A500:
 BYTE   W96
// 001   ----------------------------------------
 BYTE   W96
// 002   ----------------------------------------
 BYTE   W96
// 003   ----------------------------------------
 BYTE   W96
// 004   ----------------------------------------
 BYTE   W96
// 005   ----------------------------------------
 BYTE   W96
// 006   ----------------------------------------
 BYTE   W96
// 007   ----------------------------------------
 BYTE   W96
// 008   ----------------------------------------
 BYTE   W96
// 009   ----------------------------------------
 BYTE   W96
// 010   ----------------------------------------
Label_4_0190A50A:
 BYTE   N12  Ds4  v100
 BYTE   W11
 BYTE   Dn4
 BYTE   W13
 BYTE   As3
 BYTE   W12
 BYTE   Fn3
 BYTE   W12
 BYTE   N24  Gs3
 BYTE   W24
 BYTE   N12  As3
 BYTE   W12
 BYTE   Fn3
 BYTE   W12
 BYTE   PEND 
// 011   ----------------------------------------
Label_4_0190A51D:
 BYTE   N12  Gs3  v100
 BYTE   W12
 BYTE   As3
 BYTE   W12
 BYTE   Dn4
 BYTE   W12
 BYTE   Fn4
 BYTE   W12
 BYTE   N24  Gn4
 BYTE   W24
 BYTE   Fn4
 BYTE   W24
 BYTE   PEND 
// 012   ----------------------------------------
 BYTE   W96
// 013   ----------------------------------------
 BYTE   W96
// 014   ----------------------------------------
 BYTE   W96
// 015   ----------------------------------------
 BYTE   W96
// 016   ----------------------------------------
 BYTE   W96
// 017   ----------------------------------------
 BYTE   W96
// 018   ----------------------------------------
 BYTE   W96
// 019   ----------------------------------------
 BYTE   W96
// 020   ----------------------------------------
 BYTE   W96
// 021   ----------------------------------------
 BYTE   W96
// 022   ----------------------------------------
 BYTE   W96
// 023   ----------------------------------------
 BYTE   W96
// 024   ----------------------------------------
 BYTE   W96
// 025   ----------------------------------------
 BYTE   W96
// 026   ----------------------------------------
 BYTE   W96
// 027   ----------------------------------------
 BYTE   W96
// 028   ----------------------------------------
 BYTE   W96
// 029   ----------------------------------------
 BYTE   W96
// 030   ----------------------------------------
 BYTE   W96
// 031   ----------------------------------------
 BYTE   W96
 BYTE   PATT
  POIN2 Label_4_0190A50A
 BYTE   PATT
  POIN2 Label_4_0190A51D
// 032   ----------------------------------------
 BYTE   W96
// 033   ----------------------------------------
 BYTE   W96
// 034   ----------------------------------------
 BYTE   W96
// 035   ----------------------------------------
 BYTE   W96
// 036   ----------------------------------------
 BYTE   W96
// 037   ----------------------------------------
 BYTE   W96
// 038   ----------------------------------------
 BYTE   W96
// 039   ----------------------------------------
 BYTE   W96
// 040   ----------------------------------------
 BYTE   W96
// 041   ----------------------------------------
 BYTE   W96
// 042   ----------------------------------------
 BYTE   W96
// 043   ----------------------------------------
 BYTE   W96
// 044   ----------------------------------------
 BYTE   W96
// 045   ----------------------------------------
 BYTE   W96
// 046   ----------------------------------------
 BYTE   W96
// 047   ----------------------------------------
 BYTE   W84
 BYTE   W03
 BYTE   GoTo
  POIN2 Label_4_0190A500
 BYTE   FINE

//**************** Track 6 (Midi-Chn.5) ****************//

PaperMarioShyGuysToyboxDolkar_006:
// 000   ----------------------------------------
 BYTE   VOL   65*PaperMarioShyGuysToyboxDolkar_mvl/mxv
 BYTE   KEYSH   PaperMarioShyGuysToyboxDolkar_key+0
Label_5_0190A568:
 BYTE   W96
// 001   ----------------------------------------
 BYTE   W96
// 002   ----------------------------------------
 BYTE   W96
// 003   ----------------------------------------
 BYTE   W96
// 004   ----------------------------------------
 BYTE   W96
// 005   ----------------------------------------
 BYTE   W96
// 006   ----------------------------------------
 BYTE   W96
// 007   ----------------------------------------
 BYTE   W96
// 008   ----------------------------------------
 BYTE   W96
// 009   ----------------------------------------
 BYTE   W96
// 010   ----------------------------------------
 BYTE   W96
// 011   ----------------------------------------
 BYTE   W96
// 012   ----------------------------------------
Label_5_0190A574:
 BYTE   N12  En3  v100
 BYTE   W12
 BYTE   Gn3
 BYTE   W13
 BYTE   N12
 BYTE   W23
 BYTE   N12
 BYTE   W11
 BYTE   Dn4
 BYTE   W13
 BYTE   N12
 BYTE   W24
 BYTE   PEND 
// 013   ----------------------------------------
Label_5_0190A583:
 BYTE   N12  Dn4  v100
 BYTE   W11
 BYTE   Fn4
 BYTE   W12
 BYTE   N12
 BYTE   W24
 BYTE   W01
 BYTE   N12
 BYTE   W11
 BYTE   En4
 BYTE   W13
 BYTE   Dn4
 BYTE   W12
 BYTE   Cn4
 BYTE   W12
 BYTE   PEND 
// 014   ----------------------------------------
Label_5_0190A595:
 BYTE   N12  An3  v100
 BYTE   W11
 BYTE   Dn4
 BYTE   W13
 BYTE   N12
 BYTE   W24
 BYTE   N12
 BYTE   W12
 BYTE   Fs4
 BYTE   W12
 BYTE   N12
 BYTE   W12
 BYTE   N12
 BYTE   W12
 BYTE   PEND 
// 015   ----------------------------------------
Label_5_0190A5A6:
 BYTE   W01
 BYTE   N12  Fs4  v100
 BYTE   W11
 BYTE   Gn4
 BYTE   W12
 BYTE   N12
 BYTE   W24
 BYTE   N12
 BYTE   W11
 BYTE   An4
 BYTE   W13
 BYTE   As4
 BYTE   W11
 BYTE   Bn4
 BYTE   W13
 BYTE   PEND 
// 016   ----------------------------------------
 BYTE   W96
// 017   ----------------------------------------
 BYTE   W96
// 018   ----------------------------------------
 BYTE   W96
// 019   ----------------------------------------
 BYTE   W96
// 020   ----------------------------------------
 BYTE   W96
// 021   ----------------------------------------
 BYTE   W96
// 022   ----------------------------------------
 BYTE   W96
// 023   ----------------------------------------
 BYTE   W96
// 024   ----------------------------------------
 BYTE   W96
// 025   ----------------------------------------
 BYTE   W96
// 026   ----------------------------------------
 BYTE   W96
// 027   ----------------------------------------
 BYTE   W96
// 028   ----------------------------------------
 BYTE   W96
// 029   ----------------------------------------
 BYTE   W96
// 030   ----------------------------------------
 BYTE   W96
// 031   ----------------------------------------
 BYTE   W96
// 032   ----------------------------------------
 BYTE   W96
// 033   ----------------------------------------
 BYTE   W96
 BYTE   PATT
  POIN2 Label_5_0190A574
 BYTE   PATT
  POIN2 Label_5_0190A583
 BYTE   PATT
  POIN2 Label_5_0190A595
 BYTE   PATT
  POIN2 Label_5_0190A5A6
// 034   ----------------------------------------
 BYTE   W96
// 035   ----------------------------------------
 BYTE   W96
// 036   ----------------------------------------
 BYTE   W96
// 037   ----------------------------------------
 BYTE   W96
// 038   ----------------------------------------
 BYTE   W96
// 039   ----------------------------------------
 BYTE   W96
// 040   ----------------------------------------
 BYTE   W96
// 041   ----------------------------------------
 BYTE   W96
// 042   ----------------------------------------
 BYTE   W96
// 043   ----------------------------------------
 BYTE   W96
// 044   ----------------------------------------
 BYTE   W96
// 045   ----------------------------------------
 BYTE   W84
 BYTE   W03
 BYTE   GoTo
  POIN2 Label_5_0190A568
 BYTE   FINE

//**************** Track 7 (Midi-Chn.6) ****************//

PaperMarioShyGuysToyboxDolkar_007:
// 000   ----------------------------------------
 BYTE   VOL   65*PaperMarioShyGuysToyboxDolkar_mvl/mxv
 BYTE   KEYSH   PaperMarioShyGuysToyboxDolkar_key+0
Label_6_0190A5F8:
 BYTE   W96
// 001   ----------------------------------------
 BYTE   W96
// 002   ----------------------------------------
 BYTE   W96
// 003   ----------------------------------------
 BYTE   W96
// 004   ----------------------------------------
 BYTE   W96
// 005   ----------------------------------------
 BYTE   W96
// 006   ----------------------------------------
 BYTE   W96
// 007   ----------------------------------------
 BYTE   W96
// 008   ----------------------------------------
 BYTE   W96
// 009   ----------------------------------------
 BYTE   W96
// 010   ----------------------------------------
 BYTE   W96
// 011   ----------------------------------------
 BYTE   W96
// 012   ----------------------------------------
Label_6_0190A604:
 BYTE   N12  En4  v100
 BYTE   W12
 BYTE   Gn4
 BYTE   W13
 BYTE   N12
 BYTE   W23
 BYTE   N12
 BYTE   W11
 BYTE   Dn5
 BYTE   W13
 BYTE   N12
 BYTE   W24
 BYTE   PEND 
// 013   ----------------------------------------
Label_6_0190A613:
 BYTE   N12  Dn5  v100
 BYTE   W11
 BYTE   Fn5
 BYTE   W12
 BYTE   N12
 BYTE   W24
 BYTE   W01
 BYTE   N12
 BYTE   W11
 BYTE   En5
 BYTE   W13
 BYTE   Dn5
 BYTE   W12
 BYTE   Cn5
 BYTE   W12
 BYTE   PEND 
// 014   ----------------------------------------
Label_6_0190A625:
 BYTE   N12  An4  v100
 BYTE   W11
 BYTE   Dn5
 BYTE   W13
 BYTE   N12
 BYTE   W24
 BYTE   N12
 BYTE   W12
 BYTE   Fs5
 BYTE   W12
 BYTE   N12
 BYTE   W12
 BYTE   N12
 BYTE   W12
 BYTE   PEND 
// 015   ----------------------------------------
Label_6_0190A636:
 BYTE   W01
 BYTE   N12  Fs5  v100
 BYTE   W11
 BYTE   Gn5
 BYTE   W12
 BYTE   N12
 BYTE   W24
 BYTE   N12
 BYTE   W11
 BYTE   An5
 BYTE   W13
 BYTE   As5
 BYTE   W11
 BYTE   Bn5
 BYTE   W13
 BYTE   PEND 
// 016   ----------------------------------------
 BYTE   W96
// 017   ----------------------------------------
 BYTE   W96
// 018   ----------------------------------------
 BYTE   W96
// 019   ----------------------------------------
 BYTE   W96
// 020   ----------------------------------------
 BYTE   W96
// 021   ----------------------------------------
 BYTE   W96
// 022   ----------------------------------------
 BYTE   W96
// 023   ----------------------------------------
 BYTE   W96
// 024   ----------------------------------------
 BYTE   W96
// 025   ----------------------------------------
 BYTE   W96
// 026   ----------------------------------------
 BYTE   W96
// 027   ----------------------------------------
 BYTE   W96
// 028   ----------------------------------------
 BYTE   W96
// 029   ----------------------------------------
 BYTE   W96
// 030   ----------------------------------------
 BYTE   W96
// 031   ----------------------------------------
 BYTE   W96
// 032   ----------------------------------------
 BYTE   W96
// 033   ----------------------------------------
 BYTE   W96
 BYTE   PATT
  POIN2 Label_6_0190A604
 BYTE   PATT
  POIN2 Label_6_0190A613
 BYTE   PATT
  POIN2 Label_6_0190A625
 BYTE   PATT
  POIN2 Label_6_0190A636
// 034   ----------------------------------------
 BYTE   W96
// 035   ----------------------------------------
 BYTE   W96
// 036   ----------------------------------------
 BYTE   W96
// 037   ----------------------------------------
 BYTE   W96
// 038   ----------------------------------------
 BYTE   W96
// 039   ----------------------------------------
 BYTE   W96
// 040   ----------------------------------------
 BYTE   W96
// 041   ----------------------------------------
 BYTE   W96
// 042   ----------------------------------------
 BYTE   W96
// 043   ----------------------------------------
 BYTE   W96
// 044   ----------------------------------------
 BYTE   W96
// 045   ----------------------------------------
 BYTE   W84
 BYTE   W03
 BYTE   GoTo
  POIN2 Label_6_0190A5F8
 BYTE   FINE

//**************** Track 8 (Midi-Chn.7) ****************//

PaperMarioShyGuysToyboxDolkar_008:
// 000   ----------------------------------------
 BYTE   VOL   65*PaperMarioShyGuysToyboxDolkar_mvl/mxv
 BYTE   KEYSH   PaperMarioShyGuysToyboxDolkar_key+0
Label_7_0190A688:
 BYTE   N12  As0  v100
 BYTE   W24
 BYTE   Fn0
 BYTE   W24
 BYTE   As0
 BYTE   W23
 BYTE   Fn0
 BYTE   W24
 BYTE   W01
 BYTE   PEND 
 BYTE   PATT
  POIN2 Label_7_0190A688
// 001   ----------------------------------------
Label_7_0190A699:
 BYTE   N12  As0  v100
 BYTE   W13
 BYTE   Fn1
 BYTE   W11
 BYTE   En1
 BYTE   W12
 BYTE   Fn1
 BYTE   W12
 BYTE   Fs1
 BYTE   W12
 BYTE   Fn1
 BYTE   W12
 BYTE   Ds1
 BYTE   W12
 BYTE   Cs1
 BYTE   W12
 BYTE   PEND 
// 002   ----------------------------------------
Label_7_0190A6AC:
 BYTE   N12  Cn1  v100
 BYTE   W12
 BYTE   As0
 BYTE   W12
 BYTE   An0
 BYTE   W12
 BYTE   Fs0
 BYTE   W12
 BYTE   Fn0
 BYTE   W48
 BYTE   PEND 
// 003   ----------------------------------------
 BYTE   W96
// 004   ----------------------------------------
 BYTE   W72
 BYTE   As0
 BYTE   W24
// 005   ----------------------------------------
Label_7_0190A6BD:
 BYTE   N12  Cn1  v100
 BYTE   W24
 BYTE   Gn0
 BYTE   W24
 BYTE   Cn1
 BYTE   W24
 BYTE   Gn0
 BYTE   W24
 BYTE   PEND 
 BYTE   PATT
  POIN2 Label_7_0190A6BD
// 006   ----------------------------------------
Label_7_0190A6CD:
 BYTE   N12  Fn1  v100
 BYTE   W24
 BYTE   Cn1
 BYTE   W24
 BYTE   Fn1
 BYTE   W24
 BYTE   Cn1
 BYTE   W24
 BYTE   PEND 
// 007   ----------------------------------------
Label_7_0190A6D8:
 BYTE   N12  Fn1  v100
 BYTE   W12
 BYTE   Cn1
 BYTE   W12
 BYTE   An0
 BYTE   W12
 BYTE   Gn0
 BYTE   W12
 BYTE   Fn0
 BYTE   W48
 BYTE   PEND 
 BYTE   PATT
  POIN2 Label_7_0190A688
// 008   ----------------------------------------
Label_7_0190A6EA:
 BYTE   N12  As0  v100
 BYTE   W24
 BYTE   Fn0
 BYTE   W24
 BYTE   As0
 BYTE   W12
 BYTE   An0
 BYTE   W11
 BYTE   As0
 BYTE   W12
 BYTE   Bn0
 BYTE   W13
 BYTE   PEND 
// 009   ----------------------------------------
Label_7_0190A6F9:
 BYTE   N12  Cn1  v100
 BYTE   W24
 BYTE   Gn0
 BYTE   W24
 BYTE   Cn1
 BYTE   W23
 BYTE   Gn0
 BYTE   W24
 BYTE   W01
 BYTE   PEND 
// 010   ----------------------------------------
Label_7_0190A705:
 BYTE   N12  Cn1  v100
 BYTE   W24
 BYTE   Gn0
 BYTE   W24
 BYTE   Cn1
 BYTE   W12
 BYTE   Bn0
 BYTE   W11
 BYTE   Cn1
 BYTE   W12
 BYTE   Cs1
 BYTE   W13
 BYTE   PEND 
// 011   ----------------------------------------
Label_7_0190A714:
 BYTE   N12  Dn1  v100
 BYTE   W24
 BYTE   An0
 BYTE   W24
 BYTE   Dn1
 BYTE   W23
 BYTE   An0
 BYTE   W24
 BYTE   W01
 BYTE   PEND 
// 012   ----------------------------------------
Label_7_0190A720:
 BYTE   N12  Ds1  v100
 BYTE   W24
 BYTE   As0
 BYTE   W24
 BYTE   Ds1
 BYTE   W23
 BYTE   As0
 BYTE   W24
 BYTE   W01
 BYTE   PEND 
// 013   ----------------------------------------
 BYTE   W96
// 014   ----------------------------------------
 BYTE   W96
// 015   ----------------------------------------
Label_7_0190A72E:
 BYTE   N12  As0  v100
 BYTE   W23
 BYTE   Fn0
 BYTE   W24
 BYTE   As0
 BYTE   W23
 BYTE   Fn0
 BYTE   W24
 BYTE   W02
 BYTE   PEND 
// 016   ----------------------------------------
Label_7_0190A73A:
 BYTE   N12  As0  v100
 BYTE   W23
 BYTE   Fn0
 BYTE   W24
 BYTE   As0
 BYTE   W48
 BYTE   W01
 BYTE   PEND 
 BYTE   PATT
  POIN2 Label_7_0190A688
// 017   ----------------------------------------
Label_7_0190A749:
 BYTE   N12  As0  v100
 BYTE   W24
 BYTE   Fn0
 BYTE   W24
 BYTE   As0
 BYTE   W48
 BYTE   PEND 
 BYTE   PATT
  POIN2 Label_7_0190A688
 BYTE   PATT
  POIN2 Label_7_0190A688
 BYTE   PATT
  POIN2 Label_7_0190A699
 BYTE   PATT
  POIN2 Label_7_0190A6AC
// 018   ----------------------------------------
 BYTE   W96
// 019   ----------------------------------------
 BYTE   W72
 BYTE   N12  As0  v100
 BYTE   W24
 BYTE   PATT
  POIN2 Label_7_0190A6BD
 BYTE   PATT
  POIN2 Label_7_0190A6BD
 BYTE   PATT
  POIN2 Label_7_0190A6CD
 BYTE   PATT
  POIN2 Label_7_0190A6D8
 BYTE   PATT
  POIN2 Label_7_0190A688
 BYTE   PATT
  POIN2 Label_7_0190A6EA
 BYTE   PATT
  POIN2 Label_7_0190A6F9
 BYTE   PATT
  POIN2 Label_7_0190A705
 BYTE   PATT
  POIN2 Label_7_0190A714
 BYTE   PATT
  POIN2 Label_7_0190A720
// 020   ----------------------------------------
 BYTE   W96
// 021   ----------------------------------------
 BYTE   W96
 BYTE   PATT
  POIN2 Label_7_0190A72E
 BYTE   PATT
  POIN2 Label_7_0190A73A
 BYTE   PATT
  POIN2 Label_7_0190A688
 BYTE   PATT
  POIN2 Label_7_0190A749
 BYTE   PATT
  POIN2 Label_7_0190A688
// 022   ----------------------------------------
 BYTE   VOL   49*PaperMarioShyGuysToyboxDolkar_mvl/mxv
 BYTE   N12  As0  v100
 BYTE   W24
 BYTE   Fn0
 BYTE   W24
 BYTE   As0
 BYTE   W23
 BYTE   VOL   36*PaperMarioShyGuysToyboxDolkar_mvl/mxv
 BYTE   N12  Fn0
 BYTE   W24
 BYTE   W01
 BYTE   PATT
  POIN2 Label_7_0190A699
// 023   ----------------------------------------
 BYTE   VOL   22*PaperMarioShyGuysToyboxDolkar_mvl/mxv
 BYTE   N12  Cn1  v100
 BYTE   W12
 BYTE   As0
 BYTE   W12
 BYTE   An0
 BYTE   W12
 BYTE   Fs0
 BYTE   W12
 BYTE   Fn0
 BYTE   W48
// 024   ----------------------------------------
 BYTE   W96
// 025   ----------------------------------------
 BYTE   W72
 BYTE   VOL   0*PaperMarioShyGuysToyboxDolkar_mvl/mxv
 BYTE   N12  As0
 BYTE   W15
 BYTE   GoTo
  POIN2 Label_7_0190A688
 BYTE   FINE

//**************** Track 9 (Midi-Chn.8) ****************//

PaperMarioShyGuysToyboxDolkar_009:
// 000   ----------------------------------------
 BYTE   VOL   65*PaperMarioShyGuysToyboxDolkar_mvl/mxv
 BYTE   KEYSH   PaperMarioShyGuysToyboxDolkar_key+0
Label_8_0190A7F0:
 BYTE   W96
// 001   ----------------------------------------
 BYTE   W96
// 002   ----------------------------------------
 BYTE   W96
// 003   ----------------------------------------
 BYTE   W96
// 004   ----------------------------------------
 BYTE   W96
// 005   ----------------------------------------
 BYTE   W96
// 006   ----------------------------------------
 BYTE   W96
// 007   ----------------------------------------
 BYTE   W96
// 008   ----------------------------------------
 BYTE   W96
// 009   ----------------------------------------
 BYTE   W96
// 010   ----------------------------------------
 BYTE   W96
// 011   ----------------------------------------
 BYTE   W96
// 012   ----------------------------------------
 BYTE   W96
// 013   ----------------------------------------
 BYTE   W96
// 014   ----------------------------------------
 BYTE   W96
// 015   ----------------------------------------
 BYTE   W96
// 016   ----------------------------------------
 BYTE   W96
// 017   ----------------------------------------
 BYTE   W96
// 018   ----------------------------------------
Label_8_0190A802:
 BYTE   N12  As2  v100
 BYTE   W12
 BYTE   Fn3
 BYTE   W12
 BYTE   En3
 BYTE   W11
 BYTE   Fn3
 BYTE   W13
 BYTE   Gn3
 BYTE   W12
 BYTE   Fn3
 BYTE   W12
 BYTE   En3
 BYTE   W11
 BYTE   Fn3
 BYTE   W13
 BYTE   PEND 
// 019   ----------------------------------------
Label_8_0190A815:
 BYTE   N12  Ds3  v100
 BYTE   W12
 BYTE   Dn3
 BYTE   W12
 BYTE   Cn3
 BYTE   W12
 BYTE   Dn3
 BYTE   W12
 BYTE   As2
 BYTE   W12
 BYTE   Fn2
 BYTE   W12
 BYTE   N12
 BYTE   W24
 BYTE   PEND 
// 020   ----------------------------------------
Label_8_0190A826:
 BYTE   N12  Fn2  v100
 BYTE   N12  As2
 BYTE   W11
 BYTE   Dn3
 BYTE   W01
 BYTE   Fn3
 BYTE   W11
 BYTE   Cs3
 BYTE   W02
 BYTE   En3
 BYTE   W10
 BYTE   Dn3
 BYTE   W01
 BYTE   Fn3
 BYTE   W11
 BYTE   En3
 BYTE   W01
 BYTE   Gn3
 BYTE   W11
 BYTE   Dn3
 BYTE   W01
 BYTE   Fn3
 BYTE   W11
 BYTE   Cs3
 BYTE   W01
 BYTE   En3
 BYTE   W11
 BYTE   Dn3
 BYTE   N12  Fn3
 BYTE   W12
 BYTE   Cn3
 BYTE   W01
 BYTE   PEND 
// 021   ----------------------------------------
Label_8_0190A84B:
 BYTE   N12  Ds3  v100
 BYTE   W11
 BYTE   Bn2
 BYTE   W01
 BYTE   Dn3
 BYTE   W12
 BYTE   As2
 BYTE   N12  Cn3
 BYTE   W11
 BYTE   Bn2
 BYTE   W01
 BYTE   Dn3
 BYTE   W12
 BYTE   N11  Fn2
 BYTE   N12  As2
 BYTE   W11
 BYTE   Dn2
 BYTE   N01  Fn2
 BYTE   W13
 BYTE   N12  Dn2
 BYTE   N12  Fn2
 BYTE   W24
 BYTE   PEND 
// 022   ----------------------------------------
 BYTE   W96
// 023   ----------------------------------------
 BYTE   W96
// 024   ----------------------------------------
 BYTE   W96
// 025   ----------------------------------------
 BYTE   W96
// 026   ----------------------------------------
 BYTE   W96
// 027   ----------------------------------------
 BYTE   W96
// 028   ----------------------------------------
 BYTE   W96
// 029   ----------------------------------------
 BYTE   W96
// 030   ----------------------------------------
 BYTE   W96
// 031   ----------------------------------------
 BYTE   W96
// 032   ----------------------------------------
 BYTE   W96
// 033   ----------------------------------------
 BYTE   W96
// 034   ----------------------------------------
 BYTE   W96
// 035   ----------------------------------------
 BYTE   W96
// 036   ----------------------------------------
 BYTE   W96
// 037   ----------------------------------------
 BYTE   W96
// 038   ----------------------------------------
 BYTE   W96
// 039   ----------------------------------------
 BYTE   W96
 BYTE   PATT
  POIN2 Label_8_0190A802
 BYTE   PATT
  POIN2 Label_8_0190A815
 BYTE   PATT
  POIN2 Label_8_0190A826
 BYTE   PATT
  POIN2 Label_8_0190A84B
// 040   ----------------------------------------
 BYTE   W96
// 041   ----------------------------------------
 BYTE   W96
// 042   ----------------------------------------
 BYTE   W96
// 043   ----------------------------------------
 BYTE   W96
// 044   ----------------------------------------
 BYTE   W96
// 045   ----------------------------------------
 BYTE   W84
 BYTE   W03
 BYTE   GoTo
  POIN2 Label_8_0190A7F0
 BYTE   FINE

//**************** Track 10 (Midi-Chn.9) ****************//

PaperMarioShyGuysToyboxDolkar_010:
// 000   ----------------------------------------
 BYTE   VOL   65*PaperMarioShyGuysToyboxDolkar_mvl/mxv
 BYTE   KEYSH   PaperMarioShyGuysToyboxDolkar_key+0
Label_9_0190A8A4:
 BYTE   W96
// 001   ----------------------------------------
 BYTE   W72
 BYTE   N14  Fn1  v100
 BYTE   W24
// 002   ----------------------------------------
Label_9_0190A8AA:
 BYTE   W68
 BYTE   W03
 BYTE   N12  Dn1  v100
 BYTE   W24
 BYTE   W01
 BYTE   PEND 
// 003   ----------------------------------------
 BYTE   W72
 BYTE   N13  Fn1
 BYTE   W24
// 004   ----------------------------------------
Label_9_0190A8B6:
 BYTE   W24
 BYTE   N13  En2  v100
 BYTE   W48
 BYTE   N13
 BYTE   W24
 BYTE   PEND 
// 005   ----------------------------------------
Label_9_0190A8BE:
 BYTE   N06  Dn1  v100
 BYTE   W06
 BYTE   N01
 BYTE   W06
 BYTE   N01
 BYTE   W07
 BYTE   N01
 BYTE   W07
 BYTE   N03
 BYTE   W04
 BYTE   N03
 BYTE   W03
 BYTE   N01
 BYTE   W03
 BYTE   N01
 BYTE   W04
 BYTE   N01
 BYTE   W03
 BYTE   N01
 BYTE   W03
 BYTE   N01
 BYTE   W02
 BYTE   N13  Fn1
 BYTE   W01
 BYTE   N01  Dn1
 BYTE   W24
 BYTE   N13  En2
 BYTE   W23
 BYTE   PEND 
// 006   ----------------------------------------
Label_9_0190A8E0:
 BYTE   W12
 BYTE   N12  Fs2  v100
 BYTE   W24
 BYTE   N12
 BYTE   W24
 BYTE   N12
 BYTE   W23
 BYTE   N12
 BYTE   W13
 BYTE   PEND 
// 007   ----------------------------------------
Label_9_0190A8EC:
 BYTE   N03  Dn1  v100
 BYTE   W04
 BYTE   N03
 BYTE   W03
 BYTE   N01
 BYTE   W04
 BYTE   N01
 BYTE   W03
 BYTE   N01
 BYTE   W03
 BYTE   N01
 BYTE   W03
 BYTE   N01
 BYTE   W04
 BYTE   N03
 BYTE   W03
 BYTE   N01
 BYTE   W03
 BYTE   N01
 BYTE   W03
 BYTE   N01
 BYTE   W03
 BYTE   N01
 BYTE   W04
 BYTE   N03
 BYTE   W04
 BYTE   N01
 BYTE   W04
 BYTE   N03
 BYTE   W12
 BYTE   N12  Fs2
 BYTE   W12
 BYTE   N13  Fn1
 BYTE   W11
 BYTE   N12  Fs2
 BYTE   W13
 BYTE   PEND 
 BYTE   PATT
  POIN2 Label_9_0190A8E0
// 008   ----------------------------------------
Label_9_0190A91B:
 BYTE   N03  Dn1  v100
 BYTE   W03
 BYTE   N03
 BYTE   W04
 BYTE   N03
 BYTE   W03
 BYTE   N03
 BYTE   W03
 BYTE   N03
 BYTE   W03
 BYTE   N03
 BYTE   W04
 BYTE   N03
 BYTE   W03
 BYTE   N03
 BYTE   W03
 BYTE   N03
 BYTE   W03
 BYTE   N03
 BYTE   W04
 BYTE   N03
 BYTE   W03
 BYTE   N03
 BYTE   W04
 BYTE   N03
 BYTE   W03
 BYTE   N03
 BYTE   W04
 BYTE   N03
 BYTE   W13
 BYTE   N12  Fs2
 BYTE   W11
 BYTE   Fn1
 BYTE   W13
 BYTE   En2
 BYTE   W12
 BYTE   PEND 
// 009   ----------------------------------------
 BYTE   W96
// 010   ----------------------------------------
Label_9_0190A944:
 BYTE   W48
 BYTE   N12  Dn4  v100
 BYTE   W24
 BYTE   Fn1
 BYTE   W24
 BYTE   PEND 
// 011   ----------------------------------------
 BYTE   W96
 BYTE   PATT
  POIN2 Label_9_0190A944
// 012   ----------------------------------------
Label_9_0190A952:
 BYTE   W13
 BYTE   N12  Fs2  v100
 BYTE   W23
 BYTE   N12
 BYTE   W24
 BYTE   N12
 BYTE   W24
 BYTE   N12
 BYTE   W12
 BYTE   PEND 
 BYTE   PATT
  POIN2 Label_9_0190A952
// 013   ----------------------------------------
Label_9_0190A963:
 BYTE   N12  Dn1  v100
 BYTE   W12
 BYTE   N01
 BYTE   W12
 BYTE   N01
 BYTE   W24
 BYTE   N12
 BYTE   W12
 BYTE   N01
 BYTE   W12
 BYTE   N01
 BYTE   W24
 BYTE   PEND 
// 014   ----------------------------------------
Label_9_0190A972:
 BYTE   N02  Dn1  v100
 BYTE   W03
 BYTE   N02
 BYTE   W04
 BYTE   N02
 BYTE   W03
 BYTE   N02
 BYTE   W03
 BYTE   N02
 BYTE   W03
 BYTE   N02
 BYTE   W04
 BYTE   N03
 BYTE   W04
 BYTE   N02
 BYTE   W03
 BYTE   N02
 BYTE   W03
 BYTE   N02
 BYTE   W03
 BYTE   N02
 BYTE   W03
 BYTE   N02
 BYTE   W04
 BYTE   N02
 BYTE   W03
 BYTE   N02
 BYTE   W03
 BYTE   N02
 BYTE   W03
 BYTE   N02
 BYTE   W04
 BYTE   N02
 BYTE   W03
 BYTE   N02
 BYTE   W03
 BYTE   N02
 BYTE   W03
 BYTE   N02
 BYTE   W04
 BYTE   N02
 BYTE   W03
 BYTE   N03
 BYTE   W03
 BYTE   N02
 BYTE   N11  En2
 BYTE   W03
 BYTE   N02  Dn1
 BYTE   W04
 BYTE   N02
 BYTE   W03
 BYTE   N02
 BYTE   W03
 BYTE   N02
 BYTE   W03
 BYTE   N02
 BYTE   W04
 BYTE   N02
 BYTE   W03
 BYTE   N02
 BYTE   W01
 BYTE   PEND 
// 015   ----------------------------------------
Label_9_0190A9B4:
 BYTE   N11  Fn1  v100
 BYTE   W12
 BYTE   N12  Fs2
 BYTE   W12
 BYTE   N11  Fn1
 BYTE   W12
 BYTE   N12  Fs2
 BYTE   W23
 BYTE   N12
 BYTE   W13
 BYTE   N11  Fn1
 BYTE   W11
 BYTE   N12  Fs2
 BYTE   W13
 BYTE   PEND 
// 016   ----------------------------------------
Label_9_0190A9CA:
 BYTE   N11  Fn1  v100
 BYTE   W11
 BYTE   N12  Fs2
 BYTE   W13
 BYTE   N11  Fn1
 BYTE   W11
 BYTE   N12  Fs2
 BYTE   W13
 BYTE   N11  Fn1
 BYTE   W12
 BYTE   N12  Fs2
 BYTE   W23
 BYTE   N12
 BYTE   W13
 BYTE   PEND 
// 017   ----------------------------------------
Label_9_0190A9E0:
 BYTE   N11  Fn1  v100
 BYTE   W12
 BYTE   N12  Fs2
 BYTE   W12
 BYTE   N11  Fn1
 BYTE   W12
 BYTE   N12  Fs2
 BYTE   W12
 BYTE   Fn1
 BYTE   W11
 BYTE   Fs2
 BYTE   W13
 BYTE   N11  Fn1
 BYTE   W11
 BYTE   N12  Fs2
 BYTE   W13
 BYTE   PEND 
// 018   ----------------------------------------
Label_9_0190A9F8:
 BYTE   N11  Fn1  v100
 BYTE   W11
 BYTE   N12  Fs2
 BYTE   W13
 BYTE   N11  Fn1
 BYTE   W11
 BYTE   N12  Fs2
 BYTE   W13
 BYTE   N11  Fn1
 BYTE   W11
 BYTE   N12  Dn1
 BYTE   W01
 BYTE   Fs2
 BYTE   W12
 BYTE   Dn1
 BYTE   W11
 BYTE   En2
 BYTE   W13
 BYTE   PEND 
// 019   ----------------------------------------
 BYTE   W96
// 020   ----------------------------------------
 BYTE   W72
 BYTE   N14  Fn1
 BYTE   W24
 BYTE   PATT
  POIN2 Label_9_0190A8AA
// 021   ----------------------------------------
 BYTE   W72
 BYTE   N13  Fn1  v100
 BYTE   W24
 BYTE   PATT
  POIN2 Label_9_0190A8B6
 BYTE   PATT
  POIN2 Label_9_0190A8BE
 BYTE   PATT
  POIN2 Label_9_0190A8E0
 BYTE   PATT
  POIN2 Label_9_0190A8EC
 BYTE   PATT
  POIN2 Label_9_0190A8E0
 BYTE   PATT
  POIN2 Label_9_0190A91B
// 022   ----------------------------------------
 BYTE   W96
 BYTE   PATT
  POIN2 Label_9_0190A944
// 023   ----------------------------------------
 BYTE   W96
 BYTE   PATT
  POIN2 Label_9_0190A944
 BYTE   PATT
  POIN2 Label_9_0190A952
 BYTE   PATT
  POIN2 Label_9_0190A952
 BYTE   PATT
  POIN2 Label_9_0190A963
 BYTE   PATT
  POIN2 Label_9_0190A972
 BYTE   PATT
  POIN2 Label_9_0190A9B4
 BYTE   PATT
  POIN2 Label_9_0190A9CA
 BYTE   PATT
  POIN2 Label_9_0190A9E0
 BYTE   PATT
  POIN2 Label_9_0190A9F8
// 024   ----------------------------------------
 BYTE   W96
// 025   ----------------------------------------
 BYTE   W72
 BYTE   VOL   34*PaperMarioShyGuysToyboxDolkar_mvl/mxv
 BYTE   N14  Fn1  v100
 BYTE   W24
// 026   ----------------------------------------
 BYTE   W68
 BYTE   W03
 BYTE   VOL   28*PaperMarioShyGuysToyboxDolkar_mvl/mxv
 BYTE   N12  Dn1
 BYTE   W24
 BYTE   W01
// 027   ----------------------------------------
 BYTE   W72
 BYTE   VOL   20*PaperMarioShyGuysToyboxDolkar_mvl/mxv
 BYTE   N13  Fn1
 BYTE   W24
 BYTE   PATT
  POIN2 Label_9_0190A8B6
// 028   ----------------------------------------
 BYTE   VOL   11*PaperMarioShyGuysToyboxDolkar_mvl/mxv
 BYTE   N06  Dn1  v100
 BYTE   W06
 BYTE   N01
 BYTE   W06
 BYTE   N01
 BYTE   W07
 BYTE   N01
 BYTE   W07
 BYTE   VOL   3*PaperMarioShyGuysToyboxDolkar_mvl/mxv
 BYTE   N03
 BYTE   W04
 BYTE   N03
 BYTE   W03
 BYTE   N01
 BYTE   W03
 BYTE   N01
 BYTE   W04
 BYTE   N01
 BYTE   W03
 BYTE   N01
 BYTE   W03
 BYTE   N01
 BYTE   W02
 BYTE   N13  Fn1
 BYTE   W01
 BYTE   N01  Dn1
 BYTE   W24
 BYTE   N13  En2
 BYTE   W14
 BYTE   GoTo
  POIN2 Label_9_0190A8A4
 BYTE   FINE

//**************** Track 11 (Midi-Chn.10) ****************//

PaperMarioShyGuysToyboxDolkar_011:
// 000   ----------------------------------------
 BYTE   VOL   65*PaperMarioShyGuysToyboxDolkar_mvl/mxv
 BYTE   KEYSH   PaperMarioShyGuysToyboxDolkar_key+0
Label_10_0190AAC0:
 BYTE   W96
// 001   ----------------------------------------
 BYTE   W72
 BYTE   N12  Fs0  v100
 BYTE   W24
// 002   ----------------------------------------
 BYTE   W96
// 003   ----------------------------------------
 BYTE   W72
 BYTE   N12
 BYTE   W24
// 004   ----------------------------------------
 BYTE   W96
// 005   ----------------------------------------
 BYTE   W72
 BYTE   As0
 BYTE   W24
// 006   ----------------------------------------
 BYTE   W96
// 007   ----------------------------------------
 BYTE   W96
// 008   ----------------------------------------
 BYTE   W96
// 009   ----------------------------------------
 BYTE   W96
// 010   ----------------------------------------
 BYTE   W96
// 011   ----------------------------------------
Label_10_0190AAD3:
 BYTE   W68
 BYTE   W03
 BYTE   N12  As0  v100
 BYTE   W24
 BYTE   W01
 BYTE   PEND 
// 012   ----------------------------------------
 BYTE   W96
// 013   ----------------------------------------
Label_10_0190AADC:
 BYTE   W68
 BYTE   W03
 BYTE   N12  Cn1  v100
 BYTE   W24
 BYTE   W01
 BYTE   PEND 
// 014   ----------------------------------------
 BYTE   W96
// 015   ----------------------------------------
 BYTE   W96
// 016   ----------------------------------------
 BYTE   W96
// 017   ----------------------------------------
 BYTE   W96
// 018   ----------------------------------------
 BYTE   W96
// 019   ----------------------------------------
 BYTE   W96
// 020   ----------------------------------------
Label_10_0190AAEA:
 BYTE   N12  As0  v100
 BYTE   W24
 BYTE   Fn0
 BYTE   W24
 BYTE   As0
 BYTE   W23
 BYTE   Fn0
 BYTE   W24
 BYTE   W01
 BYTE   PEND 
// 021   ----------------------------------------
Label_10_0190AAF6:
 BYTE   N12  As0  v100
 BYTE   W24
 BYTE   Fn0
 BYTE   W24
 BYTE   As0
 BYTE   W48
 BYTE   PEND 
// 022   ----------------------------------------
 BYTE   W96
// 023   ----------------------------------------
 BYTE   W72
 BYTE   Fs0
 BYTE   W24
// 024   ----------------------------------------
 BYTE   W96
// 025   ----------------------------------------
 BYTE   W72
 BYTE   N12
 BYTE   W24
// 026   ----------------------------------------
 BYTE   W96
// 027   ----------------------------------------
 BYTE   W96
// 028   ----------------------------------------
 BYTE   W96
// 029   ----------------------------------------
 BYTE   W96
// 030   ----------------------------------------
 BYTE   W96
// 031   ----------------------------------------
 BYTE   W96
// 032   ----------------------------------------
 BYTE   W96
 BYTE   PATT
  POIN2 Label_10_0190AAD3
// 033   ----------------------------------------
 BYTE   W96
 BYTE   PATT
  POIN2 Label_10_0190AADC
// 034   ----------------------------------------
 BYTE   W96
// 035   ----------------------------------------
 BYTE   W96
// 036   ----------------------------------------
 BYTE   W96
// 037   ----------------------------------------
 BYTE   W96
// 038   ----------------------------------------
 BYTE   W96
// 039   ----------------------------------------
 BYTE   W96
 BYTE   PATT
  POIN2 Label_10_0190AAEA
 BYTE   PATT
  POIN2 Label_10_0190AAF6
// 040   ----------------------------------------
 BYTE   W96
// 041   ----------------------------------------
 BYTE   W68
 BYTE   W03
 BYTE   N12  Fn0  v100
 BYTE   W24
 BYTE   W01
// 042   ----------------------------------------
 BYTE   W13
 BYTE   VOL   36*PaperMarioShyGuysToyboxDolkar_mvl/mxv
 BYTE   W44
 BYTE   W03
 BYTE   En1
 BYTE   W36
// 043   ----------------------------------------
 BYTE   Cs0
 BYTE   W96
// 044   ----------------------------------------
 BYTE   W96
// 045   ----------------------------------------
 BYTE   W72
 BYTE   BnM2
 BYTE   N12  As0
 BYTE   W15
 BYTE   GoTo
  POIN2 Label_10_0190AAC0
 BYTE   FINE

//******************************************************//
	ALIGN 4

PaperMarioShyGuysToyboxDolkar:
	BYTE	11	// NumTrks
	BYTE	0	// NumBlks
	BYTE	PaperMarioShyGuysToyboxDolkar_pri	// Priority
	BYTE	PaperMarioShyGuysToyboxDolkar_rev	// Reverb.
    
	POIN2	PaperMarioShyGuysToyboxDolkar_grp
    
	POIN2	PaperMarioShyGuysToyboxDolkar_001
	POIN2	PaperMarioShyGuysToyboxDolkar_002
	POIN2	PaperMarioShyGuysToyboxDolkar_003
	POIN2	PaperMarioShyGuysToyboxDolkar_004
	POIN2	PaperMarioShyGuysToyboxDolkar_005
	POIN2	PaperMarioShyGuysToyboxDolkar_006
	POIN2	PaperMarioShyGuysToyboxDolkar_007
	POIN2	PaperMarioShyGuysToyboxDolkar_008
	POIN2	PaperMarioShyGuysToyboxDolkar_009
	POIN2	PaperMarioShyGuysToyboxDolkar_010
	POIN2	PaperMarioShyGuysToyboxDolkar_011

	
