//Event file generated from Sappy .s format.
	#include "MPlayDef.event"

	#define	SuperSmashBrosBrawlMainThemeMrGreen3339_grp  voicegroup000
	#define	SuperSmashBrosBrawlMainThemeMrGreen3339_pri  10
	#define	SuperSmashBrosBrawlMainThemeMrGreen3339_rev  128
	#define	SuperSmashBrosBrawlMainThemeMrGreen3339_mvl  127
	#define	SuperSmashBrosBrawlMainThemeMrGreen3339_key  0
	#define	SuperSmashBrosBrawlMainThemeMrGreen3339_tbs  1
	#define	SuperSmashBrosBrawlMainThemeMrGreen3339_exg  0
	#define	SuperSmashBrosBrawlMainThemeMrGreen3339_cmp  1

	// .rodata
	//	SuperSmashBrosBrawlMainThemeMrGreen3339
	ALIGN 4


//**************** Track 1 (Midi-Chn.0) ****************//

SuperSmashBrosBrawlMainThemeMrGreen3339_001:
// 000   ----------------------------------------
 BYTE   KEYSH   SuperSmashBrosBrawlMainThemeMrGreen3339_key+0
Label_0_015AE29E:
 BYTE   TEMPO   154*SuperSmashBrosBrawlMainThemeMrGreen3339_tbs/2
 BYTE   VOICE   1
 BYTE   PAN   c_v+24
 BYTE   VOL   50*SuperSmashBrosBrawlMainThemeMrGreen3339_mvl/mxv
 BYTE   PAN   c_v+24
 BYTE   W96
// 001   ----------------------------------------
 BYTE   W96
// 002   ----------------------------------------
 BYTE   W24
 BYTE   N06  En4  v127
 BYTE   W08
 BYTE   N06
 BYTE   W08
 BYTE   N06
 BYTE   W08
 BYTE   N92
 BYTE   W48
// 003   ----------------------------------------
 BYTE   W48
 BYTE   N22  Cs4
 BYTE   W24
 BYTE   N11  Bn3
 BYTE   W12
 BYTE   An3
 BYTE   W12
// 004   ----------------------------------------
 BYTE   N92  Gs3
 BYTE   W96
// 005   ----------------------------------------
Label_0_015AE2C1:
 BYTE   W48
 BYTE   N11  An3  v127
 BYTE   W12
 BYTE   Gs3
 BYTE   W12
 BYTE   An3
 BYTE   W12
 BYTE   Bn3
 BYTE   W12
 BYTE   PEND 
// 006   ----------------------------------------
 BYTE   N92  Gs3
 BYTE   W96
// 007   ----------------------------------------
Label_0_015AE2D0:
 BYTE   W36
 BYTE   N05  Fs3  v127
 BYTE   W06
 BYTE   En3
 BYTE   W06
 BYTE   N11  Fs3
 BYTE   W12
 BYTE   Gs3
 BYTE   W12
 BYTE   An3
 BYTE   W12
 BYTE   Bn3
 BYTE   W12
 BYTE   PEND 
// 008   ----------------------------------------
 BYTE   N96  Gs3
 BYTE   W96
// 009   ----------------------------------------
 BYTE   W24
 BYTE   N11  Ds3
 BYTE   W12
 BYTE   En3
 BYTE   W12
 BYTE   N23  Fs3
 BYTE   W24
 BYTE   N11  En3
 BYTE   W12
 BYTE   Ds3
 BYTE   W12
// 010   ----------------------------------------
 BYTE   N23  Cs3
 BYTE   W24
 BYTE   N68  Gs3
 BYTE   W72
// 011   ----------------------------------------
 BYTE   W48
 BYTE   N23  Cs4
 BYTE   W24
 BYTE   N11  Bn3
 BYTE   W12
 BYTE   An3
 BYTE   W12
// 012   ----------------------------------------
 BYTE   N92  Gs3
 BYTE   W96
 BYTE   PATT
  POIN2 Label_0_015AE2C1
// 013   ----------------------------------------
 BYTE   N92  Gs3  v127
 BYTE   W96
 BYTE   PATT
  POIN2 Label_0_015AE2D0
// 014   ----------------------------------------
 BYTE   N96  Gs3  v127
 BYTE   W96
// 015   ----------------------------------------
 BYTE   W24
 BYTE   N11  Ds4
 BYTE   W12
 BYTE   En4
 BYTE   W12
 BYTE   N23  Fs4
 BYTE   W24
 BYTE   N11  En4
 BYTE   W12
 BYTE   Ds4
 BYTE   W12
// 016   ----------------------------------------
 BYTE   N23  En4
 BYTE   W24
 BYTE   N68  Cs4
 BYTE   W72
// 017   ----------------------------------------
 BYTE   N23  Gs4  v116
 BYTE   W24
 BYTE   Fs4  v104
 BYTE   W24
 BYTE   N48  En4  v092
 BYTE   W48
// 018   ----------------------------------------
 BYTE   W96
// 019   ----------------------------------------
 BYTE   W96
// 020   ----------------------------------------
 BYTE   W96
// 021   ----------------------------------------
 BYTE   W96
// 022   ----------------------------------------
 BYTE   N96  As3  v088
 BYTE   W96
// 023   ----------------------------------------
 BYTE   Ds4  v100
 BYTE   W96
// 024   ----------------------------------------
 BYTE   N22  Cs3  v052
 BYTE   N22  En4  v088
 BYTE   W24
 BYTE   Ds3  v064
 BYTE   N22  Fs4  v088
 BYTE   W24
 BYTE   En3  v076
 BYTE   TIE  Gs4  v100
 BYTE   W24
 BYTE   N22  Ds3  v076
 BYTE   W24
// 025   ----------------------------------------
 BYTE   En3  v088
 BYTE   W24
 BYTE   Fs3
 BYTE   W24
 BYTE   Gs3  v100
 BYTE   W24
 BYTE   As3  v112
 BYTE   W23
 BYTE   EOT
 BYTE   Gs4
 BYTE   W01
// 026   ----------------------------------------
 BYTE   W96
// 027   ----------------------------------------
 BYTE   W96
// 028   ----------------------------------------
 BYTE   N44  Gs4  v127
 BYTE   W48
 BYTE   N22  An4
 BYTE   W24
 BYTE   Bn4
 BYTE   W24
// 029   ----------------------------------------
 BYTE   N22
 BYTE   W24
 BYTE   An4
 BYTE   W24
 BYTE   N44  Gs4
 BYTE   W48
// 030   ----------------------------------------
 BYTE   As3  v112
 BYTE   N44  Cs4
 BYTE   W48
 BYTE   N22  Bn3
 BYTE   N22  Ds4
 BYTE   W24
 BYTE   Cs4
 BYTE   N22  En4
 BYTE   W24
// 031   ----------------------------------------
 BYTE   Cs4
 BYTE   N22  En4
 BYTE   W24
 BYTE   Bn3
 BYTE   N22  Ds4
 BYTE   W24
 BYTE   Bn3
 BYTE   N22  Ds4
 BYTE   W24
 BYTE   As3
 BYTE   N22  Cs4
 BYTE   W24
// 032   ----------------------------------------
 BYTE   N44  Gs4
 BYTE   W48
 BYTE   N44
 BYTE   W48
// 033   ----------------------------------------
 BYTE   W48
 BYTE   N44
 BYTE   W48
// 034   ----------------------------------------
 BYTE   Fs4
 BYTE   W48
 BYTE   N32  Cs4
 BYTE   W36
 BYTE   N05
 BYTE   W06
 BYTE   N05
 BYTE   W06
// 035   ----------------------------------------
 BYTE   N92  Fs4
 BYTE   W96
// 036   ----------------------------------------
 BYTE   N44  Gs4
 BYTE   W48
 BYTE   N22  Fs4
 BYTE   W24
 BYTE   Gs4
 BYTE   W24
// 037   ----------------------------------------
 BYTE   Fs4
 BYTE   W24
 BYTE   Gs4
 BYTE   W24
 BYTE   N44  En4
 BYTE   W48
// 038   ----------------------------------------
 BYTE   Fs3
 BYTE   W48
 BYTE   N32  Cs4  v127
 BYTE   W36
 BYTE   N05
 BYTE   W06
 BYTE   N05
 BYTE   W06
// 039   ----------------------------------------
 BYTE   N92  Fs4
 BYTE   W96
// 040   ----------------------------------------
 BYTE   W96
// 041   ----------------------------------------
 BYTE   W96
// 042   ----------------------------------------
 BYTE   W96
// 043   ----------------------------------------
 BYTE   W96
// 044   ----------------------------------------
 BYTE   W96
// 045   ----------------------------------------
 BYTE   W96
// 046   ----------------------------------------
 BYTE   W96
// 047   ----------------------------------------
 BYTE   W96
// 048   ----------------------------------------
 BYTE   W96
// 049   ----------------------------------------
 BYTE   W96
// 050   ----------------------------------------
 BYTE   N44  Gs3
 BYTE   W48
 BYTE   N23
 BYTE   W24
 BYTE   An3
 BYTE   W24
// 051   ----------------------------------------
 BYTE   Gs3
 BYTE   W24
 BYTE   Fs3
 BYTE   W24
 BYTE   N44  En3
 BYTE   W48
// 052   ----------------------------------------
 BYTE   Fs3
 BYTE   W48
 BYTE   N23
 BYTE   W24
 BYTE   En3
 BYTE   W24
// 053   ----------------------------------------
 BYTE   N44  Bn3
 BYTE   W48
 BYTE   N23  An3
 BYTE   W24
 BYTE   Gs3
 BYTE   W24
// 054   ----------------------------------------
 BYTE   N44  Fs3
 BYTE   W48
 BYTE   N23
 BYTE   W24
 BYTE   Fn3
 BYTE   W24
// 055   ----------------------------------------
 BYTE   N44  An3
 BYTE   W48
 BYTE   Fs3
 BYTE   W48
// 056   ----------------------------------------
 BYTE   N68  En4
 BYTE   W72
 BYTE   N23  Fs4
 BYTE   W24
// 057   ----------------------------------------
 BYTE   An4
 BYTE   W24
 BYTE   Gs4
 BYTE   W24
 BYTE   Fs4
 BYTE   W24
 BYTE   En4
 BYTE   W24
// 058   ----------------------------------------
 BYTE   N44  Gn4
 BYTE   W48
 BYTE   TIE  En4
 BYTE   W48
// 059   ----------------------------------------
 BYTE   W92
 BYTE   W02
 BYTE   EOT
 BYTE   W02
// 060   ----------------------------------------
 BYTE   W96
// 061   ----------------------------------------
 BYTE   W96
// 062   ----------------------------------------
 BYTE   W96
// 063   ----------------------------------------
 BYTE   W48
 BYTE   N48  Cn4
 BYTE   W48
// 064   ----------------------------------------
 BYTE   TIE  Bn3
 BYTE   W96
// 065   ----------------------------------------
 BYTE   W44
 BYTE   W02
 BYTE   EOT
 BYTE   W02
 BYTE   N48  An3
 BYTE   W48
// 066   ----------------------------------------
 BYTE   TIE  Dn4
 BYTE   W96
// 067   ----------------------------------------
 BYTE   W44
 BYTE   W02
 BYTE   EOT
 BYTE   W02
 BYTE   N48  Fn4
 BYTE   W48
// 068   ----------------------------------------
 BYTE   N23  Gn4
 BYTE   W96
// 069   ----------------------------------------
 BYTE   N68  Cn4
 BYTE   N68  Fn4
 BYTE   W72
 BYTE   N06  Cn4
 BYTE   N06  Fn4
 BYTE   W08
 BYTE   Cn4
 BYTE   N06  Fn4
 BYTE   W08
 BYTE   Cn4
 BYTE   N06  Fn4
 BYTE   W08
// 070   ----------------------------------------
 BYTE   N11  Dn4
 BYTE   N11  Gn4
 BYTE   W96
// 071   ----------------------------------------
 BYTE   W92
 BYTE   W03
 BYTE   GoTo
  POIN2 Label_0_015AE29E
 BYTE   FINE

//**************** Track 2 (Midi-Chn.1) ****************//

SuperSmashBrosBrawlMainThemeMrGreen3339_002:
// 000   ----------------------------------------
 BYTE   KEYSH   SuperSmashBrosBrawlMainThemeMrGreen3339_key+0
Label_1_015AE44E:
 BYTE   VOICE   2
 BYTE   PAN   c_v-24
 BYTE   VOL   50*SuperSmashBrosBrawlMainThemeMrGreen3339_mvl/mxv
 BYTE   W96
// 001   ----------------------------------------
 BYTE   W96
// 002   ----------------------------------------
 BYTE   W96
// 003   ----------------------------------------
 BYTE   W48
 BYTE   N44  An2  v100
 BYTE   W48
// 004   ----------------------------------------
 BYTE   N92  Gs2  v127
 BYTE   W96
// 005   ----------------------------------------
Label_1_015AE460:
 BYTE   W48
 BYTE   N11  Bn2  v127
 BYTE   N11  Ds3
 BYTE   W12
 BYTE   Cs3
 BYTE   N11  En3
 BYTE   W12
 BYTE   Ds3
 BYTE   N11  Fs3
 BYTE   W12
 BYTE   En3
 BYTE   N11  Gs3
 BYTE   W12
 BYTE   PEND 
// 006   ----------------------------------------
 BYTE   N92  Cs3
 BYTE   N92  En3
 BYTE   W96
// 007   ----------------------------------------
Label_1_015AE479:
 BYTE   W36
 BYTE   N11  Bn2  v127
 BYTE   W12
 BYTE   N11
 BYTE   N11  Ds3
 BYTE   W12
 BYTE   Cs3
 BYTE   N11  En3
 BYTE   W12
 BYTE   Ds3
 BYTE   N11  Fs3
 BYTE   W12
 BYTE   En3
 BYTE   N11  Gs3
 BYTE   W12
 BYTE   PEND 
// 008   ----------------------------------------
 BYTE   N96  Cs3
 BYTE   N96  En3
 BYTE   W96
// 009   ----------------------------------------
 BYTE   W24
 BYTE   N11  Cs3
 BYTE   W12
 BYTE   N11
 BYTE   W12
 BYTE   N23  Bn2
 BYTE   W24
 BYTE   N11
 BYTE   W12
 BYTE   N11
 BYTE   W12
// 010   ----------------------------------------
 BYTE   N23  Gs2
 BYTE   W24
 BYTE   N68  Cs3
 BYTE   W72
// 011   ----------------------------------------
 BYTE   W48
 BYTE   N23  Fs3
 BYTE   W24
 BYTE   N11
 BYTE   W12
 BYTE   N11
 BYTE   W12
// 012   ----------------------------------------
 BYTE   N92  Gs2
 BYTE   W96
 BYTE   PATT
  POIN2 Label_1_015AE460
// 013   ----------------------------------------
 BYTE   N92  Cs3  v127
 BYTE   N92  En3
 BYTE   W96
 BYTE   PATT
  POIN2 Label_1_015AE479
// 014   ----------------------------------------
 BYTE   N96  Cs3  v127
 BYTE   N96  En3
 BYTE   W96
// 015   ----------------------------------------
 BYTE   W24
 BYTE   N11  Ds3
 BYTE   N11  Cn4
 BYTE   W12
 BYTE   En3
 BYTE   N11  Cs4
 BYTE   W12
 BYTE   N23  Fs3
 BYTE   N23  Ds4
 BYTE   W24
 BYTE   N11  En3
 BYTE   N11  Cs4
 BYTE   W12
 BYTE   Ds3
 BYTE   N11  Cn4
 BYTE   W12
// 016   ----------------------------------------
 BYTE   N23  En3
 BYTE   N23  Cs4
 BYTE   W24
 BYTE   N68  Cs3
 BYTE   W72
// 017   ----------------------------------------
 BYTE   N23  En3  v116
 BYTE   W24
 BYTE   Fs3  v104
 BYTE   W24
 BYTE   N48  En3  v092
 BYTE   W24
 BYTE   N23  Gs3  v116
 BYTE   W24
// 018   ----------------------------------------
 BYTE   N92  Fs3  v064
 BYTE   N92  An3
 BYTE   W96
// 019   ----------------------------------------
 BYTE   Cn3
 BYTE   N92  Gs3
 BYTE   W96
// 020   ----------------------------------------
 BYTE   Gs2
 BYTE   N92  En3
 BYTE   W96
// 021   ----------------------------------------
 BYTE   Fn3
 BYTE   N92  Gs3
 BYTE   W96
// 022   ----------------------------------------
 BYTE   As2  v076
 BYTE   N92  Cs3
 BYTE   W96
// 023   ----------------------------------------
 BYTE   Cn3  v088
 BYTE   N92  Ds3  v076
 BYTE   W96
// 024   ----------------------------------------
 BYTE   TIE  En3  v088
 BYTE   W96
// 025   ----------------------------------------
 BYTE   W92
 BYTE   W03
 BYTE   EOT
 BYTE   W01
// 026   ----------------------------------------
Label_1_015AE51C:
 BYTE   N09  Bn2  v088
 BYTE   N09  Ds3
 BYTE   W12
 BYTE   Bn2
 BYTE   N09  Ds3
 BYTE   W12
 BYTE   Bn2
 BYTE   N09  Ds3
 BYTE   W12
 BYTE   Bn2
 BYTE   N09  Ds3
 BYTE   W12
 BYTE   Bn2
 BYTE   N09  Ds3
 BYTE   W12
 BYTE   Bn2
 BYTE   N09  Ds3
 BYTE   W12
 BYTE   Bn2
 BYTE   N09  Ds3
 BYTE   W12
 BYTE   Bn2
 BYTE   N09  Ds3
 BYTE   W12
 BYTE   PEND 
 BYTE   PATT
  POIN2 Label_1_015AE51C
// 027   ----------------------------------------
Label_1_015AE544:
 BYTE   N09  Bn2  v088
 BYTE   N09  En3
 BYTE   W12
 BYTE   Bn2
 BYTE   N09  En3
 BYTE   W12
 BYTE   Bn2
 BYTE   N09  En3
 BYTE   W12
 BYTE   Bn2
 BYTE   N09  En3
 BYTE   W12
 BYTE   Bn2
 BYTE   N09  En3
 BYTE   W12
 BYTE   Bn2
 BYTE   N09  En3
 BYTE   W12
 BYTE   Bn2
 BYTE   N09  En3
 BYTE   W12
 BYTE   Bn2
 BYTE   N09  En3
 BYTE   W12
 BYTE   PEND 
 BYTE   PATT
  POIN2 Label_1_015AE544
// 028   ----------------------------------------
Label_1_015AE56C:
 BYTE   N09  Ds3  v088
 BYTE   N09  Gn3
 BYTE   W12
 BYTE   Ds3
 BYTE   N09  Gn3
 BYTE   W12
 BYTE   Ds3
 BYTE   N09  Gn3
 BYTE   W12
 BYTE   Ds3
 BYTE   N09  Gn3
 BYTE   W12
 BYTE   Ds3
 BYTE   N09  Gn3
 BYTE   W12
 BYTE   Ds3
 BYTE   N09  Gn3
 BYTE   W12
 BYTE   Ds3
 BYTE   N09  Gn3
 BYTE   W12
 BYTE   Ds3
 BYTE   N09  Gn3
 BYTE   W12
 BYTE   PEND 
 BYTE   PATT
  POIN2 Label_1_015AE56C
// 029   ----------------------------------------
 BYTE   N44  Ds3  v112
 BYTE   N44  Ds4
 BYTE   W48
 BYTE   Ds3
 BYTE   N44  Ds4
 BYTE   W48
// 030   ----------------------------------------
 BYTE   W48
 BYTE   Gs2
 BYTE   N44  Gs3
 BYTE   W48
// 031   ----------------------------------------
 BYTE   Cs3
 BYTE   N44  Cs4
 BYTE   W48
 BYTE   N32  Fs3
 BYTE   W36
 BYTE   N05
 BYTE   W06
 BYTE   N05
 BYTE   W06
// 032   ----------------------------------------
 BYTE   N92
 BYTE   N92  Cs4
 BYTE   W96
// 033   ----------------------------------------
 BYTE   N44  Gs3
 BYTE   W48
 BYTE   N22  En3
 BYTE   W24
 BYTE   Fs3
 BYTE   W24
// 034   ----------------------------------------
 BYTE   En3
 BYTE   W24
 BYTE   Fs3
 BYTE   W24
 BYTE   N44  Gs3
 BYTE   W48
// 035   ----------------------------------------
 BYTE   Fs3
 BYTE   W48
 BYTE   N32  Cs3  v127
 BYTE   W36
 BYTE   N05
 BYTE   W06
 BYTE   N05
 BYTE   W06
// 036   ----------------------------------------
 BYTE   N92  Fs3
 BYTE   N92  Cs4
 BYTE   W96
// 037   ----------------------------------------
 BYTE   W96
// 038   ----------------------------------------
 BYTE   W96
// 039   ----------------------------------------
 BYTE   W96
// 040   ----------------------------------------
 BYTE   W96
// 041   ----------------------------------------
 BYTE   W96
// 042   ----------------------------------------
 BYTE   W96
// 043   ----------------------------------------
 BYTE   W96
// 044   ----------------------------------------
 BYTE   W96
// 045   ----------------------------------------
 BYTE   W96
// 046   ----------------------------------------
 BYTE   W96
// 047   ----------------------------------------
 BYTE   N44  En3
 BYTE   W48
 BYTE   N23
 BYTE   W24
 BYTE   N23
 BYTE   W24
// 048   ----------------------------------------
 BYTE   N23
 BYTE   W24
 BYTE   Cs3
 BYTE   W24
 BYTE   N44  Bn2
 BYTE   W48
// 049   ----------------------------------------
 BYTE   Ds3
 BYTE   W48
 BYTE   N23
 BYTE   W24
 BYTE   Cs3
 BYTE   W24
// 050   ----------------------------------------
 BYTE   N44  Fn3
 BYTE   W48
 BYTE   N23
 BYTE   W24
 BYTE   Dn3
 BYTE   W24
// 051   ----------------------------------------
 BYTE   N44  Cs3
 BYTE   W48
 BYTE   N23
 BYTE   W24
 BYTE   N23
 BYTE   W24
// 052   ----------------------------------------
 BYTE   N44  Ds3
 BYTE   W48
 BYTE   N44
 BYTE   W48
// 053   ----------------------------------------
 BYTE   N68  An3
 BYTE   W72
 BYTE   N23
 BYTE   W24
// 054   ----------------------------------------
 BYTE   N23
 BYTE   W24
 BYTE   Gs3
 BYTE   W24
 BYTE   Fs3
 BYTE   W24
 BYTE   En3
 BYTE   W24
// 055   ----------------------------------------
 BYTE   N44  Gn3
 BYTE   W48
 BYTE   TIE  Cn3
 BYTE   W48
// 056   ----------------------------------------
 BYTE   W92
 BYTE   W02
 BYTE   EOT
 BYTE   W02
// 057   ----------------------------------------
 BYTE   W96
// 058   ----------------------------------------
 BYTE   W96
// 059   ----------------------------------------
 BYTE   W96
// 060   ----------------------------------------
 BYTE   W48
 BYTE   N48
 BYTE   W48
// 061   ----------------------------------------
 BYTE   TIE  Dn3
 BYTE   W96
// 062   ----------------------------------------
 BYTE   W44
 BYTE   W02
 BYTE   EOT
 BYTE   W02
 BYTE   N48  Fn3
 BYTE   W48
// 063   ----------------------------------------
 BYTE   TIE  Gn3
 BYTE   W96
// 064   ----------------------------------------
 BYTE   W44
 BYTE   W02
 BYTE   EOT
 BYTE   W02
 BYTE   N48  Fn3
 BYTE   W48
// 065   ----------------------------------------
 BYTE   N23  Dn3
 BYTE   W96
// 066   ----------------------------------------
 BYTE   N68  As2
 BYTE   N68  Dn3
 BYTE   W72
 BYTE   N06  As2
 BYTE   N06  Dn3
 BYTE   W08
 BYTE   As2
 BYTE   N06  Dn3
 BYTE   W08
 BYTE   As2
 BYTE   N06  Dn3
 BYTE   W08
// 067   ----------------------------------------
 BYTE   N11  Gn2
 BYTE   N11  Dn3
 BYTE   W24
 BYTE   N05  Gn2
 BYTE   W08
 BYTE   N05
 BYTE   W08
 BYTE   N05
 BYTE   W08
 BYTE   N21
 BYTE   W48
// 068   ----------------------------------------
 BYTE   W92
 BYTE   W03
 BYTE   GoTo
  POIN2 Label_1_015AE44E
 BYTE   FINE

//**************** Track 3 (Midi-Chn.2) ****************//

SuperSmashBrosBrawlMainThemeMrGreen3339_003:
// 000   ----------------------------------------
 BYTE   KEYSH   SuperSmashBrosBrawlMainThemeMrGreen3339_key+0
Label_2_015AE65F:
 BYTE   VOICE   3
 BYTE   PAN   c_v+0
 BYTE   VOL   50*SuperSmashBrosBrawlMainThemeMrGreen3339_mvl/mxv
 BYTE   TIE  En2  v112
 BYTE   W96
// 001   ----------------------------------------
 BYTE   W92
 BYTE   W02
 BYTE   EOT
 BYTE   W02
// 002   ----------------------------------------
 BYTE   N44  Gs2  v100
 BYTE   W48
 BYTE   N44
 BYTE   W48
// 003   ----------------------------------------
 BYTE   N11
 BYTE   W12
 BYTE   N11
 BYTE   W24
 BYTE   N11
 BYTE   W12
 BYTE   N44  Fs2
 BYTE   N44  An2
 BYTE   N22  Ds3  v127
 BYTE   W24
 BYTE   N11
 BYTE   W12
 BYTE   N11
 BYTE   W12
// 004   ----------------------------------------
 BYTE   N92  Cs3
 BYTE   W96
// 005   ----------------------------------------
 BYTE   W48
 BYTE   N11  Bn2
 BYTE   W12
 BYTE   Cs3
 BYTE   W12
 BYTE   Ds3
 BYTE   W12
 BYTE   En3
 BYTE   W12
// 006   ----------------------------------------
 BYTE   N92  Cs3
 BYTE   W96
// 007   ----------------------------------------
 BYTE   W36
 BYTE   N11  Bn2
 BYTE   N11  En3
 BYTE   N11  Fs3
 BYTE   W12
 BYTE   Bn2
 BYTE   W12
 BYTE   Cs3
 BYTE   W12
 BYTE   Ds3
 BYTE   W12
 BYTE   En3
 BYTE   W12
// 008   ----------------------------------------
 BYTE   N92  Cs3
 BYTE   W96
// 009   ----------------------------------------
 BYTE   N23
 BYTE   W96
// 010   ----------------------------------------
 BYTE   W96
// 011   ----------------------------------------
 BYTE   W48
 BYTE   N22  Fs2
 BYTE   N44  Bn2
 BYTE   W24
 BYTE   N11  Fs2
 BYTE   W12
 BYTE   An2
 BYTE   W12
// 012   ----------------------------------------
 BYTE   N44  Gs2  v112
 BYTE   N92  Cs3  v127
 BYTE   W48
 BYTE   N44  Cs2  v112
 BYTE   W48
// 013   ----------------------------------------
 BYTE   Gs2
 BYTE   W48
 BYTE   N11  Bn2  v127
 BYTE   W12
 BYTE   Cs3
 BYTE   W12
 BYTE   Ds3
 BYTE   W12
 BYTE   En3
 BYTE   W12
// 014   ----------------------------------------
Label_2_015AE6CD:
 BYTE   N92  Gs2  v112
 BYTE   N92  Cs3  v127
 BYTE   W96
 BYTE   PEND 
// 015   ----------------------------------------
 BYTE   N44  Gs2  v112
 BYTE   W36
 BYTE   N11  Bn2  v127
 BYTE   N11  En3
 BYTE   N11  Fs3
 BYTE   W12
 BYTE   N44  Fs2  v112
 BYTE   N11  Bn2  v127
 BYTE   W12
 BYTE   Cs3
 BYTE   W12
 BYTE   Ds3
 BYTE   W12
 BYTE   En3
 BYTE   W12
 BYTE   PATT
  POIN2 Label_2_015AE6CD
// 016   ----------------------------------------
 BYTE   W24
 BYTE   N11  Cn3  v127
 BYTE   W12
 BYTE   Cs3
 BYTE   W12
 BYTE   N24  Ds3
 BYTE   W24
 BYTE   N11  Cs3
 BYTE   W12
 BYTE   Cn3
 BYTE   W12
// 017   ----------------------------------------
 BYTE   N24  Cs3
 BYTE   W96
// 018   ----------------------------------------
 BYTE   Gs2  v112
 BYTE   W24
 BYTE   Fs2  v100
 BYTE   W24
 BYTE   En3  v088
 BYTE   W24
 BYTE   Cs3  v076
 BYTE   W24
// 019   ----------------------------------------
 BYTE   N92  An2
 BYTE   W96
// 020   ----------------------------------------
 BYTE   Cn3  v088
 BYTE   W96
// 021   ----------------------------------------
 BYTE   En3  v100
 BYTE   W96
// 022   ----------------------------------------
 BYTE   Gs3  v112
 BYTE   W96
// 023   ----------------------------------------
 BYTE   N44  Ds3  v088
 BYTE   W48
 BYTE   N22  En3  v100
 BYTE   W24
 BYTE   Fs3  v112
 BYTE   W24
// 024   ----------------------------------------
 BYTE   N22
 BYTE   W24
 BYTE   En3  v100
 BYTE   W24
 BYTE   N44  Ds3  v088
 BYTE   W48
// 025   ----------------------------------------
 BYTE   N22  En3  v100
 BYTE   W24
 BYTE   Fs3  v112
 BYTE   W24
 BYTE   TIE  Gs3  v127
 BYTE   W48
// 026   ----------------------------------------
 BYTE   W92
 BYTE   W03
 BYTE   EOT
 BYTE   W01
// 027   ----------------------------------------
 BYTE   N44  Fs2
 BYTE   W48
 BYTE   N22  Gs2
 BYTE   W24
 BYTE   An2
 BYTE   W24
// 028   ----------------------------------------
 BYTE   N22
 BYTE   W24
 BYTE   Gs2
 BYTE   W24
 BYTE   N44  Fs2
 BYTE   W48
// 029   ----------------------------------------
 BYTE   W96
// 030   ----------------------------------------
 BYTE   W96
// 031   ----------------------------------------
 BYTE   Gn3  v112
 BYTE   W48
 BYTE   N22  Gs3
 BYTE   W24
 BYTE   As3
 BYTE   W24
// 032   ----------------------------------------
 BYTE   N22
 BYTE   W24
 BYTE   Gs3
 BYTE   W24
 BYTE   N22
 BYTE   W24
 BYTE   Gn3
 BYTE   W24
// 033   ----------------------------------------
 BYTE   N44  Gs3
 BYTE   W48
 BYTE   Fs3
 BYTE   W48
// 034   ----------------------------------------
 BYTE   En3
 BYTE   W48
 BYTE   Ds3
 BYTE   N44  Gs3
 BYTE   W48
// 035   ----------------------------------------
 BYTE   Fs3
 BYTE   W48
 BYTE   N32
 BYTE   W36
 BYTE   N05
 BYTE   W06
 BYTE   N05
 BYTE   W06
// 036   ----------------------------------------
 BYTE   N92
 BYTE   W96
// 037   ----------------------------------------
 BYTE   N44  Cs3
 BYTE   W48
 BYTE   N22
 BYTE   W24
 BYTE   Gs2
 BYTE   W24
// 038   ----------------------------------------
 BYTE   Cs3
 BYTE   W24
 BYTE   Gs2
 BYTE   W24
 BYTE   N44  Cs3
 BYTE   W48
// 039   ----------------------------------------
 BYTE   N11  Fs2
 BYTE   W12
 BYTE   Gs2
 BYTE   W12
 BYTE   As2
 BYTE   W12
 BYTE   Bn2
 BYTE   W12
 BYTE   Cs3
 BYTE   W12
 BYTE   Bn2
 BYTE   W12
 BYTE   Cs3
 BYTE   W12
 BYTE   Ds3
 BYTE   W12
// 040   ----------------------------------------
 BYTE   En3
 BYTE   W12
 BYTE   Ds3
 BYTE   W12
 BYTE   En3
 BYTE   W12
 BYTE   Fs3
 BYTE   W12
 BYTE   Gs3
 BYTE   W12
 BYTE   As3
 BYTE   W12
 BYTE   Bn3
 BYTE   W12
 BYTE   Cn4
 BYTE   W12
// 041   ----------------------------------------
 BYTE   N92  An2  v100
 BYTE   W96
// 042   ----------------------------------------
 BYTE   Fs3  v088
 BYTE   W96
// 043   ----------------------------------------
 BYTE   N44  Bn2  v064
 BYTE   W48
 BYTE   N22  Bn2  v080
 BYTE   W24
 BYTE   Cs3
 BYTE   W24
// 044   ----------------------------------------
 BYTE   Bn2
 BYTE   W24
 BYTE   An2
 BYTE   W24
 BYTE   N44  Gs2  v064
 BYTE   W48
// 045   ----------------------------------------
 BYTE   Ds3
 BYTE   W48
 BYTE   N22  Ds3  v080
 BYTE   W24
 BYTE   N22
 BYTE   W24
// 046   ----------------------------------------
 BYTE   N44  Dn3  v064
 BYTE   W48
 BYTE   N22  Dn3  v080
 BYTE   W24
 BYTE   N22
 BYTE   W24
// 047   ----------------------------------------
 BYTE   N44  Cs3  v064
 BYTE   W48
 BYTE   N22  Cs3  v080
 BYTE   W24
 BYTE   N22
 BYTE   W24
// 048   ----------------------------------------
 BYTE   N44  Cs3  v064
 BYTE   W48
 BYTE   N22  Bn2  v080
 BYTE   W24
 BYTE   An2
 BYTE   W24
// 049   ----------------------------------------
 BYTE   N22
 BYTE   W24
 BYTE   Gs2
 BYTE   W24
 BYTE   TIE  Bn2
 BYTE   W48
// 050   ----------------------------------------
 BYTE   W92
 BYTE   W02
 BYTE   EOT
 BYTE   W02
// 051   ----------------------------------------
 BYTE   N44  Bn2  v127
 BYTE   W48
 BYTE   N23
 BYTE   W24
 BYTE   Cs3
 BYTE   W24
// 052   ----------------------------------------
 BYTE   Bn2
 BYTE   W24
 BYTE   An2
 BYTE   W24
 BYTE   N44  Gs2
 BYTE   W48
// 053   ----------------------------------------
 BYTE   Cs3
 BYTE   W48
 BYTE   N23
 BYTE   W24
 BYTE   Gs2
 BYTE   W24
// 054   ----------------------------------------
 BYTE   N44  Dn3
 BYTE   W48
 BYTE   N23
 BYTE   W24
 BYTE   Bn2
 BYTE   W24
// 055   ----------------------------------------
 BYTE   N44  An2
 BYTE   W48
 BYTE   N23
 BYTE   W24
 BYTE   Gs2
 BYTE   W24
// 056   ----------------------------------------
 BYTE   N44  Cs3
 BYTE   W48
 BYTE   Bn2
 BYTE   W48
// 057   ----------------------------------------
 BYTE   N68  En3
 BYTE   W72
 BYTE   N23
 BYTE   W24
// 058   ----------------------------------------
 BYTE   W96
// 059   ----------------------------------------
 BYTE   N44  Gn3
 BYTE   W48
 BYTE   TIE  En3
 BYTE   W48
// 060   ----------------------------------------
 BYTE   W92
 BYTE   W02
 BYTE   EOT
 BYTE   W02
// 061   ----------------------------------------
 BYTE   W96
// 062   ----------------------------------------
 BYTE   W96
// 063   ----------------------------------------
 BYTE   W96
// 064   ----------------------------------------
 BYTE   W48
 BYTE   N48  An2
 BYTE   N48  Fn3
 BYTE   W48
// 065   ----------------------------------------
Label_2_015AE830:
 BYTE   TIE  Bn2  v127
 BYTE   TIE  Gn3
 BYTE   W96
 BYTE   PEND 
// 066   ----------------------------------------
 BYTE   W44
 BYTE   W02
 BYTE   EOT
 BYTE   Bn2  v067
 BYTE   W02
 BYTE   N48  Cn3
 BYTE   N48  An3
 BYTE   W48
 BYTE   PATT
  POIN2 Label_2_015AE830
// 067   ----------------------------------------
 BYTE   W44
 BYTE   W02
 BYTE   EOT
 BYTE   Bn2  v067
 BYTE   W02
 BYTE   N48  Bn2  v127
 BYTE   N48  Fn3
 BYTE   W48
// 068   ----------------------------------------
 BYTE   N23  Dn3
 BYTE   N23  Gn3
 BYTE   W96
// 069   ----------------------------------------
 BYTE   N68  Fn2
 BYTE   N68  As2
 BYTE   W72
 BYTE   N06  Fn2
 BYTE   N06  As2
 BYTE   W08
 BYTE   Fn2
 BYTE   N06  As2
 BYTE   W08
 BYTE   Fn2
 BYTE   N06  As2
 BYTE   W08
// 070   ----------------------------------------
 BYTE   N11  Gn2
 BYTE   N11  Bn2
 BYTE   W96
// 071   ----------------------------------------
 BYTE   W92
 BYTE   W03
 BYTE   GoTo
  POIN2 Label_2_015AE65F
 BYTE   FINE

//**************** Track 4 (Midi-Chn.3) ****************//

SuperSmashBrosBrawlMainThemeMrGreen3339_004:
// 000   ----------------------------------------
 BYTE   KEYSH   SuperSmashBrosBrawlMainThemeMrGreen3339_key+0
Label_3_015AE879:
 BYTE   VOICE   4
 BYTE   PAN   c_v+24
 BYTE   VOL   50*SuperSmashBrosBrawlMainThemeMrGreen3339_mvl/mxv
 BYTE   W96
// 001   ----------------------------------------
 BYTE   W96
// 002   ----------------------------------------
 BYTE   TIE  Bn4  v112
 BYTE   W96
// 003   ----------------------------------------
 BYTE   W48
 BYTE   EOT
 BYTE   W48
// 004   ----------------------------------------
Label_3_015AE888:
 BYTE   W48
 BYTE   N05  En4  v127
 BYTE   W06
 BYTE   Cs4
 BYTE   W06
 BYTE   En4
 BYTE   W06
 BYTE   Gs4
 BYTE   W06
 BYTE   Cs5
 BYTE   W06
 BYTE   Gs4
 BYTE   W06
 BYTE   Cs5
 BYTE   W06
 BYTE   En5
 BYTE   W06
 BYTE   PEND 
// 005   ----------------------------------------
Label_3_015AE89C:
 BYTE   N05  Gs5  v127
 BYTE   W06
 BYTE   En5
 BYTE   W06
 BYTE   Cs5
 BYTE   W06
 BYTE   Gs4
 BYTE   W78
 BYTE   PEND 
 BYTE   PATT
  POIN2 Label_3_015AE888
 BYTE   PATT
  POIN2 Label_3_015AE89C
 BYTE   PATT
  POIN2 Label_3_015AE888
 BYTE   PATT
  POIN2 Label_3_015AE89C
 BYTE   PATT
  POIN2 Label_3_015AE888
 BYTE   PATT
  POIN2 Label_3_015AE89C
 BYTE   PATT
  POIN2 Label_3_015AE888
 BYTE   PATT
  POIN2 Label_3_015AE89C
 BYTE   PATT
  POIN2 Label_3_015AE888
 BYTE   PATT
  POIN2 Label_3_015AE89C
 BYTE   PATT
  POIN2 Label_3_015AE888
 BYTE   PATT
  POIN2 Label_3_015AE89C
// 006   ----------------------------------------
 BYTE   W96
// 007   ----------------------------------------
 BYTE   N22  Gs5  v100
 BYTE   W24
 BYTE   Fs5  v088
 BYTE   W24
 BYTE   N44  En5  v076
 BYTE   W48
// 008   ----------------------------------------
 BYTE   Ds5  v064
 BYTE   W48
 BYTE   N22  En5  v076
 BYTE   W24
 BYTE   Fs5  v088
 BYTE   W24
// 009   ----------------------------------------
 BYTE   N22
 BYTE   W24
 BYTE   En5  v076
 BYTE   W24
 BYTE   N44  Ds5  v064
 BYTE   W48
// 010   ----------------------------------------
 BYTE   N22
 BYTE   W24
 BYTE   Cs5  v052
 BYTE   W24
 BYTE   TIE
 BYTE   W48
// 011   ----------------------------------------
 BYTE   W92
 BYTE   W03
 BYTE   EOT
 BYTE   W01
// 012   ----------------------------------------
 BYTE   W96
// 013   ----------------------------------------
 BYTE   W96
// 014   ----------------------------------------
 BYTE   W96
// 015   ----------------------------------------
 BYTE   W96
// 016   ----------------------------------------
 BYTE   W96
// 017   ----------------------------------------
 BYTE   W96
// 018   ----------------------------------------
 BYTE   W96
// 019   ----------------------------------------
 BYTE   W96
// 020   ----------------------------------------
 BYTE   N44  As4  v112
 BYTE   N44  Cs5
 BYTE   W48
 BYTE   N22  Bn4
 BYTE   N22  Ds5
 BYTE   W24
 BYTE   Cs5
 BYTE   N22  En5
 BYTE   W24
// 021   ----------------------------------------
 BYTE   Cs5
 BYTE   N22  En5
 BYTE   W24
 BYTE   Bn4
 BYTE   N22  Ds5
 BYTE   W24
 BYTE   Bn4
 BYTE   N22  Ds5
 BYTE   W24
 BYTE   As4
 BYTE   N22  Cs5
 BYTE   W24
// 022   ----------------------------------------
Label_3_015AE934:
 BYTE   W24
 BYTE   N05  Gs5  v127
 BYTE   W06
 BYTE   Ds5
 BYTE   W06
 BYTE   Bn4
 BYTE   W06
 BYTE   Gs4
 BYTE   W30
 BYTE   Gs5
 BYTE   W06
 BYTE   Ds5
 BYTE   W06
 BYTE   Bn4
 BYTE   W06
 BYTE   Gs4
 BYTE   W06
 BYTE   PEND 
 BYTE   PATT
  POIN2 Label_3_015AE934
// 023   ----------------------------------------
 BYTE   W96
// 024   ----------------------------------------
 BYTE   W96
// 025   ----------------------------------------
 BYTE   N44  Gs5  v112
 BYTE   W48
 BYTE   N22
 BYTE   W24
 BYTE   Fs5
 BYTE   W24
// 026   ----------------------------------------
 BYTE   Gs5
 BYTE   W24
 BYTE   Fs5
 BYTE   W24
 BYTE   N44  En5
 BYTE   W48
// 027   ----------------------------------------
 BYTE   TIE  Cs5
 BYTE   W96
// 028   ----------------------------------------
 BYTE   W92
 BYTE   W02
 BYTE   EOT
 BYTE   W02
// 029   ----------------------------------------
 BYTE   W96
// 030   ----------------------------------------
 BYTE   W96
// 031   ----------------------------------------
 BYTE   N44  Gs4  v064
 BYTE   W48
 BYTE   N22  Gs4  v080
 BYTE   W24
 BYTE   An4
 BYTE   W24
// 032   ----------------------------------------
 BYTE   Gs4
 BYTE   W24
 BYTE   Fs4
 BYTE   W24
 BYTE   N44  En4  v064
 BYTE   W48
// 033   ----------------------------------------
 BYTE   Bn4
 BYTE   W48
 BYTE   N22  Bn4  v080
 BYTE   W24
 BYTE   Cs5
 BYTE   W24
// 034   ----------------------------------------
 BYTE   N44  Bn4  v064
 BYTE   W48
 BYTE   N22  An4  v080
 BYTE   W24
 BYTE   Gs4
 BYTE   W24
// 035   ----------------------------------------
 BYTE   N44  An4  v064
 BYTE   W48
 BYTE   N22  Fs4  v080
 BYTE   W24
 BYTE   Gs4
 BYTE   W24
// 036   ----------------------------------------
 BYTE   N44  An4  v064
 BYTE   W48
 BYTE   N22  Gs4  v080
 BYTE   W24
 BYTE   Fs4
 BYTE   W24
// 037   ----------------------------------------
 BYTE   N22
 BYTE   W24
 BYTE   En4
 BYTE   W24
 BYTE   TIE  Gs4
 BYTE   W48
// 038   ----------------------------------------
 BYTE   W92
 BYTE   W02
 BYTE   EOT
 BYTE   W02
// 039   ----------------------------------------
 BYTE   N44  Gs4  v127
 BYTE   W48
 BYTE   N23
 BYTE   W24
 BYTE   An4
 BYTE   W24
// 040   ----------------------------------------
 BYTE   Gs4
 BYTE   W24
 BYTE   Fs4
 BYTE   W24
 BYTE   N44  En4
 BYTE   W48
// 041   ----------------------------------------
 BYTE   Fs4
 BYTE   W48
 BYTE   N23
 BYTE   W24
 BYTE   En4
 BYTE   W24
// 042   ----------------------------------------
 BYTE   N44  Bn4
 BYTE   W48
 BYTE   N23  An4
 BYTE   W24
 BYTE   Gs4
 BYTE   W24
// 043   ----------------------------------------
 BYTE   N44  Fs4
 BYTE   W48
 BYTE   N23
 BYTE   W24
 BYTE   Fn4
 BYTE   W24
// 044   ----------------------------------------
 BYTE   N44  An4
 BYTE   W48
 BYTE   Fs4
 BYTE   W48
// 045   ----------------------------------------
 BYTE   W96
// 046   ----------------------------------------
 BYTE   W96
// 047   ----------------------------------------
 BYTE   W96
// 048   ----------------------------------------
 BYTE   W96
// 049   ----------------------------------------
 BYTE   N68  Gn4
 BYTE   W72
 BYTE   N23  An4
 BYTE   W24
// 050   ----------------------------------------
 BYTE   Cn5
 BYTE   W24
 BYTE   As4
 BYTE   W24
 BYTE   An4
 BYTE   W24
 BYTE   Gn4
 BYTE   W24
// 051   ----------------------------------------
 BYTE   N48  As4
 BYTE   W48
 BYTE   N92  Gn4
 BYTE   W48
// 052   ----------------------------------------
 BYTE   W48
 BYTE   N48  Cn5
 BYTE   W48
// 053   ----------------------------------------
 BYTE   TIE  Bn4
 BYTE   W96
// 054   ----------------------------------------
 BYTE   W44
 BYTE   W02
 BYTE   EOT
 BYTE   W02
 BYTE   N48  Cn5
 BYTE   W48
// 055   ----------------------------------------
 BYTE   TIE  Bn4
 BYTE   W96
// 056   ----------------------------------------
 BYTE   W44
 BYTE   W02
 BYTE   EOT
 BYTE   W02
 BYTE   N48  Cn5
 BYTE   W48
// 057   ----------------------------------------
 BYTE   N23  Gn5
 BYTE   W96
// 058   ----------------------------------------
 BYTE   N68  Fn5
 BYTE   W72
 BYTE   N06
 BYTE   W08
 BYTE   N06
 BYTE   W08
 BYTE   N06
 BYTE   W08
// 059   ----------------------------------------
 BYTE   N11  Gn5
 BYTE   W96
// 060   ----------------------------------------
 BYTE   W92
 BYTE   W03
 BYTE   GoTo
  POIN2 Label_3_015AE879
 BYTE   FINE

//**************** Track 5 (Midi-Chn.4) ****************//

SuperSmashBrosBrawlMainThemeMrGreen3339_005:
// 000   ----------------------------------------
 BYTE   KEYSH   SuperSmashBrosBrawlMainThemeMrGreen3339_key+0
Label_4_015AEA1C:
 BYTE   VOICE   5
 BYTE   PAN   c_v-24
 BYTE   VOL   50*SuperSmashBrosBrawlMainThemeMrGreen3339_mvl/mxv
 BYTE   W96
// 001   ----------------------------------------
 BYTE   W96
// 002   ----------------------------------------
 BYTE   TIE  Bn2  v088
 BYTE   TIE  Bn3
 BYTE   W96
// 003   ----------------------------------------
 BYTE   W48
 BYTE   EOT
 BYTE   Bn2  v071
 BYTE   W48
// 004   ----------------------------------------
Label_4_015AEA2F:
 BYTE   W48
 BYTE   N05  En3  v100
 BYTE   W06
 BYTE   Cs3
 BYTE   W06
 BYTE   En3
 BYTE   W06
 BYTE   Gs3
 BYTE   W06
 BYTE   Cs4
 BYTE   W06
 BYTE   Gs3
 BYTE   W06
 BYTE   Cs4
 BYTE   W06
 BYTE   En4
 BYTE   W06
 BYTE   PEND 
// 005   ----------------------------------------
Label_4_015AEA43:
 BYTE   N05  Gs4  v100
 BYTE   W06
 BYTE   En4
 BYTE   W06
 BYTE   Cs4
 BYTE   W06
 BYTE   Gs3
 BYTE   W78
 BYTE   PEND 
 BYTE   PATT
  POIN2 Label_4_015AEA2F
 BYTE   PATT
  POIN2 Label_4_015AEA43
 BYTE   PATT
  POIN2 Label_4_015AEA2F
 BYTE   PATT
  POIN2 Label_4_015AEA43
 BYTE   PATT
  POIN2 Label_4_015AEA2F
 BYTE   PATT
  POIN2 Label_4_015AEA43
 BYTE   PATT
  POIN2 Label_4_015AEA2F
 BYTE   PATT
  POIN2 Label_4_015AEA43
 BYTE   PATT
  POIN2 Label_4_015AEA2F
 BYTE   PATT
  POIN2 Label_4_015AEA43
 BYTE   PATT
  POIN2 Label_4_015AEA2F
 BYTE   PATT
  POIN2 Label_4_015AEA43
// 006   ----------------------------------------
 BYTE   W96
// 007   ----------------------------------------
 BYTE   W96
// 008   ----------------------------------------
 BYTE   N44  Ds4  v088
 BYTE   W48
 BYTE   N22  En4  v100
 BYTE   W24
 BYTE   Fs4  v112
 BYTE   W24
// 009   ----------------------------------------
 BYTE   N22
 BYTE   W24
 BYTE   En4  v100
 BYTE   W24
 BYTE   N44  Ds4  v088
 BYTE   W48
// 010   ----------------------------------------
 BYTE   N22
 BYTE   W24
 BYTE   Cs4  v076
 BYTE   W24
 BYTE   TIE
 BYTE   W48
// 011   ----------------------------------------
 BYTE   W92
 BYTE   W03
 BYTE   EOT
 BYTE   W01
// 012   ----------------------------------------
 BYTE   W96
// 013   ----------------------------------------
 BYTE   W96
// 014   ----------------------------------------
 BYTE   W96
// 015   ----------------------------------------
 BYTE   W96
// 016   ----------------------------------------
 BYTE   W96
// 017   ----------------------------------------
 BYTE   W96
// 018   ----------------------------------------
 BYTE   W96
// 019   ----------------------------------------
 BYTE   W96
// 020   ----------------------------------------
 BYTE   W96
// 021   ----------------------------------------
 BYTE   W96
// 022   ----------------------------------------
 BYTE   W96
// 023   ----------------------------------------
 BYTE   W96
// 024   ----------------------------------------
 BYTE   W96
// 025   ----------------------------------------
 BYTE   W96
// 026   ----------------------------------------
 BYTE   N44  Cs4  v112
 BYTE   W48
 BYTE   N22
 BYTE   W24
 BYTE   Gs3
 BYTE   W24
// 027   ----------------------------------------
 BYTE   Cs4
 BYTE   W24
 BYTE   Gs3
 BYTE   W24
 BYTE   N44  Cs4
 BYTE   W48
// 028   ----------------------------------------
 BYTE   N11  Fs3  v088
 BYTE   W12
 BYTE   Gs3
 BYTE   W12
 BYTE   As3
 BYTE   W12
 BYTE   Bn3
 BYTE   W12
 BYTE   Cs4
 BYTE   W12
 BYTE   Bn3
 BYTE   W12
 BYTE   Cs4
 BYTE   W12
 BYTE   Ds4
 BYTE   W12
// 029   ----------------------------------------
 BYTE   En4
 BYTE   W12
 BYTE   Ds4
 BYTE   W12
 BYTE   En4
 BYTE   W12
 BYTE   Fs4
 BYTE   W12
 BYTE   Gs4
 BYTE   W12
 BYTE   As4
 BYTE   W12
 BYTE   Bn4
 BYTE   W12
 BYTE   Cn5
 BYTE   W12
// 030   ----------------------------------------
 BYTE   N92  En3  v100
 BYTE   N44  An3  v127
 BYTE   W48
 BYTE   N22  Bn3
 BYTE   W24
 BYTE   Cs4
 BYTE   W24
// 031   ----------------------------------------
 BYTE   N92  Ds3  v088
 BYTE   N22  Bn3  v116
 BYTE   W24
 BYTE   An3  v104
 BYTE   W24
 BYTE   Gs3  v092
 BYTE   W24
 BYTE   Fs3  v080
 BYTE   W24
// 032   ----------------------------------------
 BYTE   N44  Bn3  v064
 BYTE   W48
 BYTE   N22  Bn3  v080
 BYTE   W24
 BYTE   Cs4
 BYTE   W24
// 033   ----------------------------------------
 BYTE   Bn3
 BYTE   W24
 BYTE   An3
 BYTE   W24
 BYTE   N44  Gs3  v064
 BYTE   W48
// 034   ----------------------------------------
 BYTE   Ds4
 BYTE   W48
 BYTE   N22  Ds4  v080
 BYTE   W24
 BYTE   N22
 BYTE   W24
// 035   ----------------------------------------
 BYTE   N44  Dn4  v064
 BYTE   W48
 BYTE   N22  Dn4  v080
 BYTE   W24
 BYTE   N22
 BYTE   W24
// 036   ----------------------------------------
 BYTE   N44  Cs4  v064
 BYTE   W48
 BYTE   N22  Cs4  v080
 BYTE   W24
 BYTE   N22
 BYTE   W24
// 037   ----------------------------------------
 BYTE   N44  Cs4  v064
 BYTE   W48
 BYTE   N22  Bn3  v080
 BYTE   W24
 BYTE   An3
 BYTE   W24
// 038   ----------------------------------------
 BYTE   N22
 BYTE   W24
 BYTE   Gs3
 BYTE   W24
 BYTE   TIE  Bn3
 BYTE   W48
// 039   ----------------------------------------
 BYTE   W92
 BYTE   W02
 BYTE   EOT
 BYTE   W02
// 040   ----------------------------------------
 BYTE   N44  En4  v127
 BYTE   W48
 BYTE   N23
 BYTE   W24
 BYTE   N23
 BYTE   W24
// 041   ----------------------------------------
 BYTE   N23
 BYTE   W24
 BYTE   Cs4
 BYTE   W24
 BYTE   N44  Bn3
 BYTE   W48
// 042   ----------------------------------------
 BYTE   Ds4
 BYTE   W48
 BYTE   N23
 BYTE   W24
 BYTE   Cs4
 BYTE   W24
// 043   ----------------------------------------
 BYTE   N44  Fn4
 BYTE   W48
 BYTE   N23
 BYTE   W24
 BYTE   Dn4
 BYTE   W24
// 044   ----------------------------------------
 BYTE   N44  Cs4
 BYTE   W48
 BYTE   N23
 BYTE   W24
 BYTE   N23
 BYTE   W24
// 045   ----------------------------------------
 BYTE   N44  Ds4
 BYTE   W48
 BYTE   N44
 BYTE   W48
// 046   ----------------------------------------
 BYTE   W96
// 047   ----------------------------------------
 BYTE   W96
// 048   ----------------------------------------
 BYTE   W96
// 049   ----------------------------------------
 BYTE   W96
// 050   ----------------------------------------
 BYTE   N68  Gn3
 BYTE   W72
 BYTE   N23  An3
 BYTE   W24
// 051   ----------------------------------------
 BYTE   Cn4
 BYTE   W24
 BYTE   As3
 BYTE   W24
 BYTE   An3
 BYTE   W24
 BYTE   Gn3
 BYTE   W24
// 052   ----------------------------------------
 BYTE   N48  As3
 BYTE   W48
 BYTE   N92  Gn3
 BYTE   W48
// 053   ----------------------------------------
 BYTE   W48
 BYTE   N48  Fn4
 BYTE   W48
// 054   ----------------------------------------
 BYTE   TIE  Gn4
 BYTE   W96
// 055   ----------------------------------------
 BYTE   W44
 BYTE   W02
 BYTE   EOT
 BYTE   W02
 BYTE   N48  Fn4
 BYTE   W48
// 056   ----------------------------------------
 BYTE   TIE  Gn4
 BYTE   W96
// 057   ----------------------------------------
 BYTE   W44
 BYTE   W02
 BYTE   EOT
 BYTE   W02
 BYTE   N48  Fn4
 BYTE   W48
// 058   ----------------------------------------
 BYTE   N23  Gn4
 BYTE   W96
// 059   ----------------------------------------
 BYTE   N68  Fn3
 BYTE   N68  Cn4
 BYTE   W72
 BYTE   N06  Fn3
 BYTE   N06  Cn4
 BYTE   W08
 BYTE   Fn3
 BYTE   N06  Cn4
 BYTE   W08
 BYTE   Fn3
 BYTE   N06  Cn4
 BYTE   W08
// 060   ----------------------------------------
 BYTE   N11  Gn2
 BYTE   N11  Dn3
 BYTE   N11  Bn3
 BYTE   W96
// 061   ----------------------------------------
 BYTE   W92
 BYTE   W03
 BYTE   GoTo
  POIN2 Label_4_015AEA1C
 BYTE   FINE

//**************** Track 6 (Midi-Chn.5) ****************//

SuperSmashBrosBrawlMainThemeMrGreen3339_006:
// 000   ----------------------------------------
 BYTE   KEYSH   SuperSmashBrosBrawlMainThemeMrGreen3339_key+0
Label_5_015AEBC7:
 BYTE   VOICE   6
 BYTE   PAN   c_v+24
 BYTE   En5
 BYTE   VOL   50*SuperSmashBrosBrawlMainThemeMrGreen3339_mvl/mxv
 BYTE   W96
// 001   ----------------------------------------
 BYTE   W96
// 002   ----------------------------------------
 BYTE   W24
 BYTE   N06  En3  v127
 BYTE   W08
 BYTE   N06
 BYTE   W08
 BYTE   N06
 BYTE   W08
 BYTE   N92
 BYTE   W48
// 003   ----------------------------------------
 BYTE   W48
 BYTE   N22  Fs3
 BYTE   W24
 BYTE   N11
 BYTE   W12
 BYTE   N11
 BYTE   W12
// 004   ----------------------------------------
Label_5_015AEBE3:
 BYTE   W48
 BYTE   N05  En3  v100
 BYTE   W06
 BYTE   Cs3
 BYTE   W06
 BYTE   En3
 BYTE   W06
 BYTE   Gs3
 BYTE   W06
 BYTE   Cs4
 BYTE   W06
 BYTE   Gs3
 BYTE   W06
 BYTE   Cs4
 BYTE   W06
 BYTE   En4
 BYTE   W06
 BYTE   PEND 
// 005   ----------------------------------------
Label_5_015AEBF7:
 BYTE   N05  Gs4  v100
 BYTE   W06
 BYTE   En4
 BYTE   W06
 BYTE   Cs4
 BYTE   W06
 BYTE   Gs3
 BYTE   W78
 BYTE   PEND 
 BYTE   PATT
  POIN2 Label_5_015AEBE3
 BYTE   PATT
  POIN2 Label_5_015AEBF7
 BYTE   PATT
  POIN2 Label_5_015AEBE3
 BYTE   PATT
  POIN2 Label_5_015AEBF7
 BYTE   PATT
  POIN2 Label_5_015AEBE3
 BYTE   PATT
  POIN2 Label_5_015AEBF7
 BYTE   PATT
  POIN2 Label_5_015AEBE3
 BYTE   PATT
  POIN2 Label_5_015AEBF7
 BYTE   PATT
  POIN2 Label_5_015AEBE3
 BYTE   PATT
  POIN2 Label_5_015AEBF7
 BYTE   PATT
  POIN2 Label_5_015AEBE3
 BYTE   PATT
  POIN2 Label_5_015AEBF7
// 006   ----------------------------------------
 BYTE   W96
// 007   ----------------------------------------
 BYTE   W96
// 008   ----------------------------------------
 BYTE   W96
// 009   ----------------------------------------
 BYTE   W96
// 010   ----------------------------------------
 BYTE   N96  Gs3  v064
 BYTE   W96
// 011   ----------------------------------------
 BYTE   Fn3  v076
 BYTE   W96
// 012   ----------------------------------------
 BYTE   Cs4  v088
 BYTE   W96
// 013   ----------------------------------------
 BYTE   Cn4  v100
 BYTE   W96
// 014   ----------------------------------------
 BYTE   N22  Cs3  v052
 BYTE   W24
 BYTE   Ds3  v064
 BYTE   W24
 BYTE   En3  v076
 BYTE   W24
 BYTE   Ds3
 BYTE   W24
// 015   ----------------------------------------
 BYTE   En3  v088
 BYTE   W24
 BYTE   Fs3
 BYTE   W24
 BYTE   Gs3  v100
 BYTE   W24
 BYTE   As3  v112
 BYTE   W24
// 016   ----------------------------------------
 BYTE   W96
// 017   ----------------------------------------
 BYTE   W96
// 018   ----------------------------------------
 BYTE   N44  Gs3  v127
 BYTE   W48
 BYTE   N22  An3
 BYTE   W24
 BYTE   Bn3
 BYTE   W24
// 019   ----------------------------------------
 BYTE   N22
 BYTE   W24
 BYTE   An3
 BYTE   W24
 BYTE   N44  Gs3
 BYTE   W48
// 020   ----------------------------------------
 BYTE   As3  v112
 BYTE   W48
 BYTE   N22  Bn3
 BYTE   W24
 BYTE   Cs4
 BYTE   W24
// 021   ----------------------------------------
 BYTE   N22
 BYTE   W24
 BYTE   Bn3
 BYTE   W24
 BYTE   N22
 BYTE   W24
 BYTE   As3
 BYTE   W24
// 022   ----------------------------------------
 BYTE   W96
// 023   ----------------------------------------
 BYTE   W96
// 024   ----------------------------------------
 BYTE   W96
// 025   ----------------------------------------
 BYTE   W96
// 026   ----------------------------------------
 BYTE   N44  En4
 BYTE   W48
 BYTE   N22
 BYTE   W24
 BYTE   Cn4
 BYTE   W24
// 027   ----------------------------------------
 BYTE   En4
 BYTE   W24
 BYTE   Cn4
 BYTE   W24
 BYTE   N44  Gs4
 BYTE   W48
// 028   ----------------------------------------
 BYTE   N11  Fs3  v088
 BYTE   W12
 BYTE   Gs3
 BYTE   W12
 BYTE   As3
 BYTE   W12
 BYTE   Bn3
 BYTE   W12
 BYTE   Cs4
 BYTE   W12
 BYTE   Bn3
 BYTE   W12
 BYTE   Cs4
 BYTE   W12
 BYTE   Ds4
 BYTE   W12
// 029   ----------------------------------------
 BYTE   En4
 BYTE   W12
 BYTE   Ds4
 BYTE   W12
 BYTE   En4
 BYTE   W12
 BYTE   Fs4
 BYTE   W12
 BYTE   Gs4
 BYTE   W12
 BYTE   As4
 BYTE   W12
 BYTE   Bn4
 BYTE   W12
 BYTE   Cn5
 BYTE   W12
// 030   ----------------------------------------
 BYTE   W96
// 031   ----------------------------------------
 BYTE   W96
// 032   ----------------------------------------
 BYTE   W96
// 033   ----------------------------------------
 BYTE   W96
// 034   ----------------------------------------
 BYTE   W96
// 035   ----------------------------------------
 BYTE   W96
// 036   ----------------------------------------
 BYTE   W96
// 037   ----------------------------------------
 BYTE   W96
// 038   ----------------------------------------
 BYTE   W96
// 039   ----------------------------------------
 BYTE   W96
// 040   ----------------------------------------
 BYTE   N44  Gs3  v127
 BYTE   W48
 BYTE   N23
 BYTE   W24
 BYTE   An3
 BYTE   W24
// 041   ----------------------------------------
 BYTE   Gs3
 BYTE   W24
 BYTE   Fs3
 BYTE   W24
 BYTE   N44  En3
 BYTE   W48
// 042   ----------------------------------------
 BYTE   Fs3
 BYTE   W48
 BYTE   N23
 BYTE   W24
 BYTE   En3
 BYTE   W24
// 043   ----------------------------------------
 BYTE   N44  Bn3
 BYTE   W48
 BYTE   N23  An3
 BYTE   W24
 BYTE   Gs3
 BYTE   W24
// 044   ----------------------------------------
 BYTE   N44  Fs3
 BYTE   W48
 BYTE   N23
 BYTE   W24
 BYTE   Fn3
 BYTE   W24
// 045   ----------------------------------------
 BYTE   N44  An3
 BYTE   W48
 BYTE   Fs3
 BYTE   W48
// 046   ----------------------------------------
 BYTE   N68  En3
 BYTE   W72
 BYTE   N23  Fs3
 BYTE   W24
// 047   ----------------------------------------
 BYTE   An3
 BYTE   W24
 BYTE   Gs3
 BYTE   W24
 BYTE   Fs3
 BYTE   W24
 BYTE   En3
 BYTE   W24
// 048   ----------------------------------------
 BYTE   N44  Gn3
 BYTE   W48
 BYTE   TIE  En3
 BYTE   W48
// 049   ----------------------------------------
 BYTE   W92
 BYTE   W02
 BYTE   EOT
 BYTE   W02
// 050   ----------------------------------------
 BYTE   W96
// 051   ----------------------------------------
 BYTE   W96
// 052   ----------------------------------------
 BYTE   W96
// 053   ----------------------------------------
 BYTE   W48
 BYTE   N48  Cn4
 BYTE   W48
// 054   ----------------------------------------
 BYTE   TIE  Dn4
 BYTE   W96
// 055   ----------------------------------------
 BYTE   W44
 BYTE   W02
 BYTE   EOT
 BYTE   W02
 BYTE   N48  Cn4
 BYTE   W48
// 056   ----------------------------------------
 BYTE   TIE  Dn4
 BYTE   W96
// 057   ----------------------------------------
 BYTE   W44
 BYTE   W02
 BYTE   EOT
 BYTE   W02
 BYTE   N48  Cn4
 BYTE   W48
// 058   ----------------------------------------
 BYTE   N23  Dn4
 BYTE   W96
// 059   ----------------------------------------
 BYTE   N68  Dn3
 BYTE   N68  Cn4
 BYTE   W72
 BYTE   N06  Dn3
 BYTE   N06  Cn4
 BYTE   W08
 BYTE   Dn3
 BYTE   N06  Cn4
 BYTE   W08
 BYTE   Dn3
 BYTE   N06  Cn4
 BYTE   W08
// 060   ----------------------------------------
 BYTE   N11  Dn3
 BYTE   N11  Dn4
 BYTE   W96
// 061   ----------------------------------------
 BYTE   W92
 BYTE   W03
 BYTE   GoTo
  POIN2 Label_5_015AEBC7
 BYTE   FINE

//**************** Track 7 (Midi-Chn.6) ****************//

SuperSmashBrosBrawlMainThemeMrGreen3339_007:
// 000   ----------------------------------------
 BYTE   KEYSH   SuperSmashBrosBrawlMainThemeMrGreen3339_key+0
Label_6_015AED46:
 BYTE   VOICE   7
 BYTE   PAN   c_v-24
 BYTE   VOL   50*SuperSmashBrosBrawlMainThemeMrGreen3339_mvl/mxv
 BYTE   PAN   c_v-24
 BYTE   W96
// 001   ----------------------------------------
 BYTE   W96
// 002   ----------------------------------------
 BYTE   N44  Gs2  v100
 BYTE   W48
 BYTE   N44
 BYTE   W48
// 003   ----------------------------------------
 BYTE   N11
 BYTE   W12
 BYTE   N11
 BYTE   W24
 BYTE   N11
 BYTE   W12
 BYTE   N44  Fs2
 BYTE   W48
// 004   ----------------------------------------
 BYTE   W96
// 005   ----------------------------------------
 BYTE   W48
 BYTE   Bn2
 BYTE   W48
// 006   ----------------------------------------
 BYTE   N92  Gs2
 BYTE   W96
// 007   ----------------------------------------
 BYTE   W48
 BYTE   N44  Bn2
 BYTE   W48
// 008   ----------------------------------------
 BYTE   N92  Gs2
 BYTE   W96
// 009   ----------------------------------------
 BYTE   N44  Cs3
 BYTE   W48
 BYTE   Bn2
 BYTE   W48
// 010   ----------------------------------------
 BYTE   N92  Gs2
 BYTE   W96
// 011   ----------------------------------------
 BYTE   W48
 BYTE   N44  Fs2  v112
 BYTE   W48
// 012   ----------------------------------------
 BYTE   W96
// 013   ----------------------------------------
 BYTE   Gs2
 BYTE   W48
 BYTE   Bn2
 BYTE   W48
// 014   ----------------------------------------
 BYTE   N92  Gs2
 BYTE   W96
// 015   ----------------------------------------
 BYTE   N44
 BYTE   N44  En3
 BYTE   W48
 BYTE   Fs2
 BYTE   N44  Bn2
 BYTE   W48
// 016   ----------------------------------------
 BYTE   N92  Gs2
 BYTE   W96
// 017   ----------------------------------------
 BYTE   W24
 BYTE   N11  Cn3  v127
 BYTE   W12
 BYTE   Cs3
 BYTE   W12
 BYTE   N24  Ds3
 BYTE   W24
 BYTE   N11  Cs3
 BYTE   W12
 BYTE   Cn3
 BYTE   W12
// 018   ----------------------------------------
 BYTE   N24  Cs3
 BYTE   W96
// 019   ----------------------------------------
 BYTE   Gs2  v112
 BYTE   W24
 BYTE   Fs2  v100
 BYTE   W24
 BYTE   En3  v088
 BYTE   W24
 BYTE   Cs3  v076
 BYTE   W24
// 020   ----------------------------------------
 BYTE   N44  Ds3  v088
 BYTE   W48
 BYTE   Fs3  v076
 BYTE   W48
// 021   ----------------------------------------
 BYTE   N92  Cn4  v064
 BYTE   W96
// 022   ----------------------------------------
 BYTE   Gs3  v088
 BYTE   W96
// 023   ----------------------------------------
 BYTE   Gs2  v100
 BYTE   W96
// 024   ----------------------------------------
 BYTE   N44  Ds3  v088
 BYTE   W48
 BYTE   N22  En3  v100
 BYTE   W24
 BYTE   Fs3  v112
 BYTE   W24
// 025   ----------------------------------------
 BYTE   N22
 BYTE   W24
 BYTE   En3  v100
 BYTE   W24
 BYTE   N44  Ds3  v088
 BYTE   W48
// 026   ----------------------------------------
 BYTE   N22  En3  v100
 BYTE   W24
 BYTE   Fs3  v112
 BYTE   W24
 BYTE   TIE  Gs3  v127
 BYTE   W48
// 027   ----------------------------------------
 BYTE   W92
 BYTE   W03
 BYTE   EOT
 BYTE   W01
// 028   ----------------------------------------
 BYTE   N44  Fs2
 BYTE   W48
 BYTE   N22  Gs2
 BYTE   W24
 BYTE   An2
 BYTE   W24
// 029   ----------------------------------------
 BYTE   N22
 BYTE   W24
 BYTE   Gs2
 BYTE   W24
 BYTE   N44  Fs2
 BYTE   W48
// 030   ----------------------------------------
 BYTE   W96
// 031   ----------------------------------------
 BYTE   W96
// 032   ----------------------------------------
 BYTE   Gn3  v112
 BYTE   W48
 BYTE   N22  Gs3
 BYTE   W24
 BYTE   As3
 BYTE   W24
// 033   ----------------------------------------
 BYTE   N22
 BYTE   W24
 BYTE   Gs3
 BYTE   W24
 BYTE   N22
 BYTE   W24
 BYTE   Gn3
 BYTE   W24
// 034   ----------------------------------------
 BYTE   N44  Gs3
 BYTE   W48
 BYTE   Fs3
 BYTE   W48
// 035   ----------------------------------------
 BYTE   En3
 BYTE   W48
 BYTE   Ds3
 BYTE   W48
// 036   ----------------------------------------
 BYTE   TIE  Cs3
 BYTE   TIE  Fs3
 BYTE   W96
// 037   ----------------------------------------
 BYTE   W92
 BYTE   W03
 BYTE   EOT
 BYTE   Cs3  v066
 BYTE   W01
// 038   ----------------------------------------
 BYTE   N44  Cs3
 BYTE   W48
 BYTE   N22
 BYTE   W24
 BYTE   Gs2
 BYTE   W24
// 039   ----------------------------------------
 BYTE   Cs3
 BYTE   W24
 BYTE   Gs2
 BYTE   W24
 BYTE   N44  Cs3
 BYTE   W48
// 040   ----------------------------------------
 BYTE   N11  Fs2
 BYTE   W12
 BYTE   Gs2
 BYTE   W12
 BYTE   As2
 BYTE   W12
 BYTE   Bn2
 BYTE   W12
 BYTE   Cs3
 BYTE   W12
 BYTE   Bn2
 BYTE   W12
 BYTE   Cs3
 BYTE   W12
 BYTE   Ds3
 BYTE   W12
// 041   ----------------------------------------
 BYTE   En3
 BYTE   W12
 BYTE   Ds3
 BYTE   W12
 BYTE   En3
 BYTE   W12
 BYTE   Fs3
 BYTE   W12
 BYTE   Gs3
 BYTE   W12
 BYTE   As3
 BYTE   W12
 BYTE   Bn3
 BYTE   W12
 BYTE   Cn4
 BYTE   W12
// 042   ----------------------------------------
 BYTE   W96
// 043   ----------------------------------------
 BYTE   W96
// 044   ----------------------------------------
 BYTE   W96
// 045   ----------------------------------------
 BYTE   W96
// 046   ----------------------------------------
 BYTE   W96
// 047   ----------------------------------------
 BYTE   W96
// 048   ----------------------------------------
 BYTE   W96
// 049   ----------------------------------------
 BYTE   W96
// 050   ----------------------------------------
 BYTE   W96
// 051   ----------------------------------------
 BYTE   W96
// 052   ----------------------------------------
 BYTE   N44  Bn2  v127
 BYTE   W48
 BYTE   N23
 BYTE   W24
 BYTE   Cs3
 BYTE   W24
// 053   ----------------------------------------
 BYTE   Bn2
 BYTE   W24
 BYTE   An2
 BYTE   W24
 BYTE   N44  Gs2
 BYTE   W48
// 054   ----------------------------------------
 BYTE   Cs3
 BYTE   W48
 BYTE   N23
 BYTE   W24
 BYTE   Gs2
 BYTE   W24
// 055   ----------------------------------------
 BYTE   N44  Dn3
 BYTE   W48
 BYTE   N23
 BYTE   W24
 BYTE   Bn2
 BYTE   W24
// 056   ----------------------------------------
 BYTE   N44  An2
 BYTE   W48
 BYTE   N23
 BYTE   W24
 BYTE   Gs2
 BYTE   W24
// 057   ----------------------------------------
 BYTE   N44  Cs3
 BYTE   W48
 BYTE   Bn2
 BYTE   W48
// 058   ----------------------------------------
 BYTE   TIE  An2  v112
 BYTE   W96
// 059   ----------------------------------------
 BYTE   W92
 BYTE   EOT
 BYTE   W04
// 060   ----------------------------------------
 BYTE   N44  En3  v127
 BYTE   W48
 BYTE   TIE  Cn3
 BYTE   W48
// 061   ----------------------------------------
 BYTE   W92
 BYTE   W02
 BYTE   EOT
 BYTE   W02
// 062   ----------------------------------------
 BYTE   W96
// 063   ----------------------------------------
 BYTE   W96
// 064   ----------------------------------------
 BYTE   W96
// 065   ----------------------------------------
 BYTE   W48
 BYTE   N48  An2
 BYTE   W48
// 066   ----------------------------------------
 BYTE   TIE  Bn2
 BYTE   W96
// 067   ----------------------------------------
 BYTE   W44
 BYTE   W02
 BYTE   EOT
 BYTE   W02
 BYTE   N48  Cn3
 BYTE   W48
// 068   ----------------------------------------
 BYTE   TIE  Bn2
 BYTE   W96
// 069   ----------------------------------------
 BYTE   W44
 BYTE   W02
 BYTE   EOT
 BYTE   W02
 BYTE   N48  Fn2
 BYTE   W48
// 070   ----------------------------------------
 BYTE   N23  Bn2
 BYTE   W96
// 071   ----------------------------------------
 BYTE   N68  Fn2
 BYTE   W72
 BYTE   N06
 BYTE   W08
 BYTE   N06
 BYTE   W08
 BYTE   N06
 BYTE   W08
// 072   ----------------------------------------
 BYTE   N11  Gn2
 BYTE   W24
 BYTE   N05
 BYTE   W08
 BYTE   N05
 BYTE   W08
 BYTE   N05
 BYTE   W08
 BYTE   N21
 BYTE   W48
// 073   ----------------------------------------
 BYTE   W92
 BYTE   W03
 BYTE   GoTo
  POIN2 Label_6_015AED46
 BYTE   FINE

//**************** Track 8 (Midi-Chn.7) ****************//

SuperSmashBrosBrawlMainThemeMrGreen3339_008:
// 000   ----------------------------------------
 BYTE   KEYSH   SuperSmashBrosBrawlMainThemeMrGreen3339_key+0
Label_7_015AEEC3:
 BYTE   VOICE   8
 BYTE   PAN   c_v-36
 BYTE   VOL   50*SuperSmashBrosBrawlMainThemeMrGreen3339_mvl/mxv
 BYTE   PAN   c_v-36
 BYTE   W96
// 001   ----------------------------------------
 BYTE   W36
 BYTE   N03  An2  v127
 BYTE   W04
 BYTE   Bn2
 BYTE   W04
 BYTE   Cs3
 BYTE   W04
 BYTE   Dn3
 BYTE   W04
 BYTE   En3
 BYTE   W04
 BYTE   Fs3
 BYTE   W04
 BYTE   Gs3
 BYTE   W04
 BYTE   An3
 BYTE   W04
 BYTE   Bn3
 BYTE   W04
 BYTE   Cs4
 BYTE   W04
 BYTE   Dn4
 BYTE   W04
 BYTE   En4
 BYTE   W04
 BYTE   Fs4
 BYTE   W04
 BYTE   Gs4
 BYTE   W04
 BYTE   An4
 BYTE   W04
// 002   ----------------------------------------
 BYTE   TIE  Bn4  v112
 BYTE   W96
// 003   ----------------------------------------
 BYTE   W48
 BYTE   EOT
 BYTE   W48
// 004   ----------------------------------------
 BYTE   W96
// 005   ----------------------------------------
 BYTE   W96
// 006   ----------------------------------------
 BYTE   W96
// 007   ----------------------------------------
 BYTE   W96
// 008   ----------------------------------------
 BYTE   W96
// 009   ----------------------------------------
 BYTE   W96
// 010   ----------------------------------------
 BYTE   W96
// 011   ----------------------------------------
 BYTE   W96
// 012   ----------------------------------------
 BYTE   W96
// 013   ----------------------------------------
 BYTE   W96
// 014   ----------------------------------------
 BYTE   W96
// 015   ----------------------------------------
 BYTE   W96
// 016   ----------------------------------------
 BYTE   W96
// 017   ----------------------------------------
 BYTE   W96
// 018   ----------------------------------------
 BYTE   W96
// 019   ----------------------------------------
 BYTE   N22  Gs5  v100
 BYTE   W24
 BYTE   Fs5  v088
 BYTE   W24
 BYTE   N44  En5  v076
 BYTE   W48
// 020   ----------------------------------------
 BYTE   N11  Ds3  v088
 BYTE   W12
 BYTE   Fs3
 BYTE   W12
 BYTE   An3
 BYTE   W12
 BYTE   Ds4
 BYTE   W12
 BYTE   An3
 BYTE   W12
 BYTE   Fs3
 BYTE   W12
 BYTE   An2
 BYTE   W12
 BYTE   Fs2
 BYTE   W12
// 021   ----------------------------------------
 BYTE   Gs2
 BYTE   W12
 BYTE   Cn3
 BYTE   W12
 BYTE   Gs3
 BYTE   W12
 BYTE   Cn4
 BYTE   W12
 BYTE   Ds4
 BYTE   W12
 BYTE   Cn4
 BYTE   W12
 BYTE   Gs3
 BYTE   W12
 BYTE   Cn3
 BYTE   W12
// 022   ----------------------------------------
 BYTE   Gs2
 BYTE   W12
 BYTE   En3
 BYTE   W12
 BYTE   Gs3
 BYTE   W12
 BYTE   Cs4
 BYTE   W12
 BYTE   Gs3
 BYTE   W12
 BYTE   En3
 BYTE   W12
 BYTE   Gs2
 BYTE   W12
 BYTE   Cs2
 BYTE   W12
// 023   ----------------------------------------
 BYTE   Gs2
 BYTE   W12
 BYTE   Fn3
 BYTE   W12
 BYTE   Gs3
 BYTE   W12
 BYTE   Cs4
 BYTE   W12
 BYTE   Gs3
 BYTE   W12
 BYTE   Fn3
 BYTE   W12
 BYTE   Gs2
 BYTE   W12
 BYTE   Cs2
 BYTE   W12
// 024   ----------------------------------------
 BYTE   As1
 BYTE   W12
 BYTE   As2
 BYTE   W12
 BYTE   Cs3
 BYTE   W12
 BYTE   Ds3
 BYTE   W12
 BYTE   Cs3
 BYTE   W12
 BYTE   As2
 BYTE   W12
 BYTE   Cs3
 BYTE   W12
 BYTE   Fs3
 BYTE   W12
// 025   ----------------------------------------
 BYTE   Ds3
 BYTE   W12
 BYTE   Cn3
 BYTE   W12
 BYTE   Ds3
 BYTE   W12
 BYTE   Cn3
 BYTE   W12
 BYTE   Cn2
 BYTE   W12
 BYTE   Cn3
 BYTE   W12
 BYTE   Ds3
 BYTE   W12
 BYTE   Cn3
 BYTE   W12
// 026   ----------------------------------------
 BYTE   Cs2
 BYTE   W12
 BYTE   En3
 BYTE   W12
 BYTE   Ds2
 BYTE   W12
 BYTE   En3
 BYTE   W12
 BYTE   En2
 BYTE   W12
 BYTE   En3
 BYTE   W12
 BYTE   Gs3
 BYTE   W12
 BYTE   En3
 BYTE   W12
// 027   ----------------------------------------
 BYTE   En2
 BYTE   W12
 BYTE   En3
 BYTE   W12
 BYTE   Gs3
 BYTE   W12
 BYTE   Fs2
 BYTE   W12
 BYTE   En3
 BYTE   W12
 BYTE   Gs3
 BYTE   W12
 BYTE   En3
 BYTE   W12
 BYTE   As2
 BYTE   W12
// 028   ----------------------------------------
 BYTE   W96
// 029   ----------------------------------------
 BYTE   W96
// 030   ----------------------------------------
 BYTE   W96
// 031   ----------------------------------------
 BYTE   W96
// 032   ----------------------------------------
 BYTE   N44  As4  v112
 BYTE   N44  Cs5
 BYTE   W48
 BYTE   N22  Bn4
 BYTE   N22  Ds5
 BYTE   W24
 BYTE   Cs5
 BYTE   N22  En5
 BYTE   W24
// 033   ----------------------------------------
 BYTE   Cs5
 BYTE   N22  En5
 BYTE   W24
 BYTE   Bn4
 BYTE   N22  Ds5
 BYTE   W24
 BYTE   Bn4
 BYTE   N22  Ds5
 BYTE   W24
 BYTE   As4
 BYTE   N22  Cs5
 BYTE   W24
// 034   ----------------------------------------
 BYTE   W96
// 035   ----------------------------------------
 BYTE   W96
// 036   ----------------------------------------
 BYTE   W96
// 037   ----------------------------------------
 BYTE   W96
// 038   ----------------------------------------
 BYTE   W96
// 039   ----------------------------------------
 BYTE   W96
// 040   ----------------------------------------
 BYTE   W96
// 041   ----------------------------------------
 BYTE   W96
// 042   ----------------------------------------
 BYTE   W96
// 043   ----------------------------------------
 BYTE   W96
// 044   ----------------------------------------
 BYTE   W96
// 045   ----------------------------------------
 BYTE   W96
// 046   ----------------------------------------
 BYTE   W96
// 047   ----------------------------------------
 BYTE   W96
// 048   ----------------------------------------
 BYTE   W96
// 049   ----------------------------------------
 BYTE   W96
// 050   ----------------------------------------
 BYTE   W96
// 051   ----------------------------------------
 BYTE   W24
 BYTE   N05  En3  v127
 BYTE   W06
 BYTE   Gs3
 BYTE   W06
 BYTE   Bn3
 BYTE   W06
 BYTE   En4
 BYTE   W06
 BYTE   Gs3
 BYTE   W06
 BYTE   Bn3
 BYTE   W06
 BYTE   En4
 BYTE   W06
 BYTE   Gs4
 BYTE   W06
 BYTE   Bn3
 BYTE   W06
 BYTE   En4
 BYTE   W06
 BYTE   Gs4
 BYTE   W06
 BYTE   Bn4
 BYTE   W06
// 052   ----------------------------------------
 BYTE   N44  Gs4
 BYTE   W48
 BYTE   N23
 BYTE   W24
 BYTE   An4
 BYTE   W24
// 053   ----------------------------------------
 BYTE   Gs4
 BYTE   W24
 BYTE   Fs4
 BYTE   W24
 BYTE   N44  En4
 BYTE   W48
// 054   ----------------------------------------
 BYTE   Fs4
 BYTE   W48
 BYTE   N23
 BYTE   W24
 BYTE   En4
 BYTE   W24
// 055   ----------------------------------------
 BYTE   N44  Bn4
 BYTE   W48
 BYTE   N23  An4
 BYTE   W24
 BYTE   Gs4
 BYTE   W24
// 056   ----------------------------------------
 BYTE   N44  Fs4
 BYTE   W48
 BYTE   N23
 BYTE   W24
 BYTE   Fn4
 BYTE   W24
// 057   ----------------------------------------
 BYTE   N44  An4
 BYTE   W48
 BYTE   Fs4
 BYTE   W48
// 058   ----------------------------------------
 BYTE   W96
// 059   ----------------------------------------
 BYTE   W96
// 060   ----------------------------------------
 BYTE   W96
// 061   ----------------------------------------
 BYTE   W96
// 062   ----------------------------------------
 BYTE   W96
// 063   ----------------------------------------
 BYTE   W96
// 064   ----------------------------------------
 BYTE   W96
// 065   ----------------------------------------
 BYTE   W96
// 066   ----------------------------------------
 BYTE   W96
// 067   ----------------------------------------
 BYTE   W96
// 068   ----------------------------------------
 BYTE   W96
// 069   ----------------------------------------
 BYTE   W96
// 070   ----------------------------------------
 BYTE   W12
 BYTE   N05  Bn3
 BYTE   W06
 BYTE   Cn3
 BYTE   N05  Cn4
 BYTE   W06
 BYTE   Dn3
 BYTE   N05  Dn4
 BYTE   W06
 BYTE   En3
 BYTE   N05  En4
 BYTE   W06
 BYTE   Fn3
 BYTE   N05  Fn4
 BYTE   W06
 BYTE   Gn3
 BYTE   N05  Gn4
 BYTE   W06
 BYTE   An3
 BYTE   N05  An4
 BYTE   W06
 BYTE   Fs3
 BYTE   N05  Fs4
 BYTE   W06
 BYTE   Gn3
 BYTE   N05  Gn4
 BYTE   W06
 BYTE   An3
 BYTE   N05  An4
 BYTE   W06
 BYTE   Bn3
 BYTE   N05  Bn4
 BYTE   W06
 BYTE   Cn4
 BYTE   N05  Cn5
 BYTE   W06
 BYTE   Dn4
 BYTE   N05  Dn5
 BYTE   W06
 BYTE   En4
 BYTE   N05  En5
 BYTE   W06
// 071   ----------------------------------------
 BYTE   N68  Fn5
 BYTE   W72
 BYTE   N06
 BYTE   W08
 BYTE   N06
 BYTE   W08
 BYTE   N06
 BYTE   W08
// 072   ----------------------------------------
 BYTE   N11  Gn5
 BYTE   W96
// 073   ----------------------------------------
 BYTE   W92
 BYTE   W03
 BYTE   GoTo
  POIN2 Label_7_015AEEC3
 BYTE   FINE

//**************** Track 9 (Midi-Chn.8) ****************//

SuperSmashBrosBrawlMainThemeMrGreen3339_009:
// 000   ----------------------------------------
 BYTE   KEYSH   SuperSmashBrosBrawlMainThemeMrGreen3339_key+0
Label_8_015AF061:
 BYTE   VOICE   9
 BYTE   PAN   c_v+0
 BYTE   VOL   50*SuperSmashBrosBrawlMainThemeMrGreen3339_mvl/mxv
 BYTE   TIE  En1  v112
 BYTE   W96
// 001   ----------------------------------------
 BYTE   W92
 BYTE   W02
 BYTE   EOT
 BYTE   W02
// 002   ----------------------------------------
 BYTE   N44  En1  v100
 BYTE   TIE  Bn3  v088
 BYTE   TIE  Bn4  v112
 BYTE   W48
 BYTE   N44  En1  v100
 BYTE   W48
// 003   ----------------------------------------
 BYTE   N22
 BYTE   W36
 BYTE   N11  En1  v112
 BYTE   W12
 BYTE   EOT
 BYTE   Bn3  v083
 BYTE   N44  Bn0  v100
 BYTE   W48
// 004   ----------------------------------------
Label_8_015AF08A:
 BYTE   N11  Cs1  v112
 BYTE   W12
 BYTE   Cs1  v100
 BYTE   W36
 BYTE   N11
 BYTE   N05  En4
 BYTE   W06
 BYTE   Cs4
 BYTE   W06
 BYTE   N11  Cs1
 BYTE   N05  En4
 BYTE   W06
 BYTE   Gs4
 BYTE   W06
 BYTE   Cs5
 BYTE   W06
 BYTE   Gs4
 BYTE   W06
 BYTE   Cs5
 BYTE   W06
 BYTE   En5
 BYTE   W06
 BYTE   PEND 
// 005   ----------------------------------------
Label_8_015AF0A7:
 BYTE   N11  Cs1  v100
 BYTE   N05  Gs5
 BYTE   W06
 BYTE   En5
 BYTE   W06
 BYTE   N11  Cs1
 BYTE   N05  Cs5
 BYTE   W06
 BYTE   Gs4
 BYTE   W30
 BYTE   N11  Bn0  v112
 BYTE   W12
 BYTE   N36  Bn0  v100
 BYTE   W36
 BYTE   PEND 
 BYTE   PATT
  POIN2 Label_8_015AF08A
 BYTE   PATT
  POIN2 Label_8_015AF0A7
 BYTE   PATT
  POIN2 Label_8_015AF08A
 BYTE   PATT
  POIN2 Label_8_015AF0A7
 BYTE   PATT
  POIN2 Label_8_015AF08A
// 006   ----------------------------------------
 BYTE   N44  Cs1  v100
 BYTE   N05  Gs5
 BYTE   W06
 BYTE   En5
 BYTE   W06
 BYTE   Cs5
 BYTE   W06
 BYTE   Gs4
 BYTE   W30
 BYTE   N44  Bn0
 BYTE   W48
 BYTE   PATT
  POIN2 Label_8_015AF08A
 BYTE   PATT
  POIN2 Label_8_015AF0A7
 BYTE   PATT
  POIN2 Label_8_015AF08A
 BYTE   PATT
  POIN2 Label_8_015AF0A7
 BYTE   PATT
  POIN2 Label_8_015AF08A
// 007   ----------------------------------------
 BYTE   N44  Fs0  v100
 BYTE   N05  Gs5
 BYTE   W06
 BYTE   En5
 BYTE   W06
 BYTE   Cs5
 BYTE   W06
 BYTE   Gs4
 BYTE   W30
 BYTE   N44  Gs0
 BYTE   W48
// 008   ----------------------------------------
 BYTE   N92  Cs1
 BYTE   W96
// 009   ----------------------------------------
 BYTE   N22  Cs1  v088
 BYTE   N22  Cs3  v112
 BYTE   N22  Gs5  v100
 BYTE   W24
 BYTE   Ds1
 BYTE   N22  Ds3
 BYTE   N22  Fs5  v088
 BYTE   W24
 BYTE   En1  v112
 BYTE   N44  Cs3  v088
 BYTE   N44  En5  v076
 BYTE   W24
 BYTE   N22  Gs1  v127
 BYTE   W24
// 010   ----------------------------------------
 BYTE   N92  Fs1  v076
 BYTE   N44  Ds4  v088
 BYTE   W48
 BYTE   N22  En4  v100
 BYTE   W24
 BYTE   Fs4  v112
 BYTE   W24
// 011   ----------------------------------------
 BYTE   N92  Gs1  v076
 BYTE   N22  Fs4  v112
 BYTE   W24
 BYTE   En4  v100
 BYTE   W24
 BYTE   N44  Ds4  v088
 BYTE   W48
// 012   ----------------------------------------
 BYTE   TIE  Cs1  v076
 BYTE   N22  Ds4  v088
 BYTE   W24
 BYTE   Cs4  v076
 BYTE   W24
 BYTE   TIE
 BYTE   W48
// 013   ----------------------------------------
 BYTE   W92
 BYTE   W02
 BYTE   EOT
 BYTE   Cs1
 BYTE   W01
 BYTE   Cs4
 BYTE   W01
// 014   ----------------------------------------
 BYTE   N44  As0
 BYTE   W48
 BYTE   An0  v088
 BYTE   W48
// 015   ----------------------------------------
 BYTE   Gs0  v100
 BYTE   W48
 BYTE   Cn1
 BYTE   W48
// 016   ----------------------------------------
 BYTE   N22  Cs1  v088
 BYTE   W24
 BYTE   Ds1
 BYTE   W24
 BYTE   En1
 BYTE   W24
 BYTE   Ds1
 BYTE   W24
// 017   ----------------------------------------
 BYTE   En1
 BYTE   W24
 BYTE   Fs1  v112
 BYTE   W24
 BYTE   Gs1
 BYTE   W24
 BYTE   As1
 BYTE   W24
// 018   ----------------------------------------
 BYTE   N44  Fs0  v127
 BYTE   N09  Fs3  v088
 BYTE   W12
 BYTE   N09
 BYTE   W12
 BYTE   N09
 BYTE   W12
 BYTE   N09
 BYTE   W12
 BYTE   N22  Gs0  v127
 BYTE   N09  Fs3  v088
 BYTE   W12
 BYTE   N09
 BYTE   W12
 BYTE   N22  An0  v127
 BYTE   N09  Fs3  v088
 BYTE   W12
 BYTE   N09
 BYTE   W12
// 019   ----------------------------------------
 BYTE   N22  An0  v127
 BYTE   N09  Fs3  v088
 BYTE   W12
 BYTE   N09
 BYTE   W12
 BYTE   N22  Gs0  v127
 BYTE   N09  Fs3  v088
 BYTE   W12
 BYTE   N09
 BYTE   W12
 BYTE   N44  Fs0  v127
 BYTE   N09  Fs3  v088
 BYTE   W12
 BYTE   N09
 BYTE   W12
 BYTE   N09
 BYTE   W12
 BYTE   N09
 BYTE   W12
// 020   ----------------------------------------
 BYTE   N92  En1  v100
 BYTE   N09  Gs2  v088
 BYTE   N44  Gs3  v127
 BYTE   W12
 BYTE   N09  Gs2  v088
 BYTE   W12
 BYTE   N09
 BYTE   W12
 BYTE   N09
 BYTE   W12
 BYTE   N09
 BYTE   N22  An3  v127
 BYTE   W12
 BYTE   N09  Gs2  v088
 BYTE   W12
 BYTE   N09
 BYTE   N22  Bn3  v127
 BYTE   W12
 BYTE   N09  Gs2  v088
 BYTE   W12
// 021   ----------------------------------------
 BYTE   N92  En1  v100
 BYTE   N09  Gs2  v088
 BYTE   N22  Bn3  v127
 BYTE   W12
 BYTE   N09  Gs2  v088
 BYTE   W12
 BYTE   N09
 BYTE   N22  An3  v127
 BYTE   W12
 BYTE   N09  Gs2  v088
 BYTE   W12
 BYTE   N09
 BYTE   N44  Gs3  v127
 BYTE   W12
 BYTE   N09  Gs2  v088
 BYTE   W12
 BYTE   N09
 BYTE   W12
 BYTE   N09
 BYTE   W12
// 022   ----------------------------------------
 BYTE   N92  Ds1  v100
 BYTE   N09  Gn2  v088
 BYTE   N44  As2  v112
 BYTE   N44  Gn4
 BYTE   W12
 BYTE   N09  Gn2  v088
 BYTE   W12
 BYTE   N09
 BYTE   W12
 BYTE   N09
 BYTE   W12
 BYTE   N09
 BYTE   N22  Bn2  v112
 BYTE   N22  Gs4
 BYTE   W12
 BYTE   N09  Gn2  v088
 BYTE   W12
 BYTE   N09
 BYTE   N22  Cs3  v112
 BYTE   N22  As4
 BYTE   W12
 BYTE   N09  Gn2  v088
 BYTE   W12
// 023   ----------------------------------------
 BYTE   N24  Gn0  v100
 BYTE   N09  Gn2  v088
 BYTE   N22  Cs3  v112
 BYTE   N22  As4
 BYTE   W12
 BYTE   N09  Gn2  v088
 BYTE   W12
 BYTE   N68  Ds1  v100
 BYTE   N09  Gn2  v088
 BYTE   N22  Bn2  v112
 BYTE   N22  Gs4
 BYTE   W12
 BYTE   N09  Gn2  v088
 BYTE   W12
 BYTE   N09
 BYTE   N22  Bn2  v112
 BYTE   N22  Gs4
 BYTE   W12
 BYTE   N09  Gn2  v088
 BYTE   W12
 BYTE   N09
 BYTE   N22  As2  v112
 BYTE   N22  Gn4
 BYTE   W12
 BYTE   N09  Gn2  v088
 BYTE   W12
// 024   ----------------------------------------
 BYTE   N44  Gs0
 BYTE   N44  Ds4  v112
 BYTE   N44  Ds5
 BYTE   W48
 BYTE   Fs0  v088
 BYTE   N92  Ds4  v112
 BYTE   N92  Ds5
 BYTE   W48
// 025   ----------------------------------------
 BYTE   N44  En0  v100
 BYTE   W48
 BYTE   Ds0  v112
 BYTE   N44  Gs3
 BYTE   N44  Gs4
 BYTE   W48
// 026   ----------------------------------------
 BYTE   N11  Fs0
 BYTE   TIE  Fs3
 BYTE   TIE  Cs5
 BYTE   W12
 BYTE   N11  Gs0
 BYTE   W12
 BYTE   As0
 BYTE   W12
 BYTE   Bn0
 BYTE   W12
 BYTE   Cs1
 BYTE   W12
 BYTE   Bn0
 BYTE   W12
 BYTE   Cs1
 BYTE   W12
 BYTE   Ds1
 BYTE   W12
// 027   ----------------------------------------
Label_8_015AF294:
 BYTE   N11  En1  v112
 BYTE   W12
 BYTE   Ds1
 BYTE   W12
 BYTE   En1
 BYTE   W12
 BYTE   Fs1
 BYTE   W12
 BYTE   Gs1
 BYTE   W12
 BYTE   As1
 BYTE   W12
 BYTE   Bn1
 BYTE   W12
 BYTE   Cn2
 BYTE   W10
 BYTE   PEND 
 BYTE   EOT
 BYTE   Fs3  v085
 BYTE   W02
// 028   ----------------------------------------
 BYTE   N44  Cs1  v100
 BYTE   N44  Cs5  v112
 BYTE   N44  En5
 BYTE   W48
 BYTE   N24  Cs1  v100
 BYTE   N22  Cs5  v112
 BYTE   N22  En5
 BYTE   W24
 BYTE   N24  Cn1  v100
 BYTE   N22  Cn5  v112
 BYTE   W24
// 029   ----------------------------------------
 BYTE   N24  Cs1  v100
 BYTE   N22  Cs5  v112
 BYTE   N22  En5
 BYTE   W24
 BYTE   N24  An0  v100
 BYTE   N22  Cn5  v112
 BYTE   W24
 BYTE   N44  Gs0  v100
 BYTE   N44  Cs5  v112
 BYTE   W48
// 030   ----------------------------------------
 BYTE   N11  Fs0
 BYTE   TIE  Cs5
 BYTE   W12
 BYTE   N11  Gs0
 BYTE   W12
 BYTE   As0
 BYTE   W12
 BYTE   Bn0
 BYTE   W12
 BYTE   Cs1
 BYTE   W12
 BYTE   Bn0
 BYTE   W12
 BYTE   Cs1
 BYTE   W12
 BYTE   Ds1
 BYTE   W12
 BYTE   PATT
  POIN2 Label_8_015AF294
// 031   ----------------------------------------
 BYTE   EOT
 BYTE   Cs5
 BYTE   W02
 BYTE   N44  Fs0  v100
 BYTE   N44  Cs4  v127
 BYTE   N92  An4  v100
 BYTE   W48
 BYTE   N24  An0
 BYTE   N22  Ds4  v127
 BYTE   W24
 BYTE   N24  Gs0  v100
 BYTE   N22  En4  v127
 BYTE   W24
// 032   ----------------------------------------
 BYTE   N24  Fs0  v100
 BYTE   N22  Ds4  v116
 BYTE   N92  Fs4  v088
 BYTE   W24
 BYTE   N24  En0  v100
 BYTE   N22  Cs4  v104
 BYTE   W24
 BYTE   N24  Ds0  v100
 BYTE   N22  Bn3  v092
 BYTE   W24
 BYTE   N24  Bn0  v100
 BYTE   N22  An3  v080
 BYTE   W24
// 033   ----------------------------------------
 BYTE   N44  Bn1  v052
 BYTE   N44  Bn2  v064
 BYTE   N44  Gs3
 BYTE   W48
 BYTE   N23  Bn1  v052
 BYTE   N22  Bn2  v080
 BYTE   N22  Gs3
 BYTE   W24
 BYTE   N23  Cs2  v052
 BYTE   N22  Cs3  v080
 BYTE   N22  An3
 BYTE   W24
// 034   ----------------------------------------
 BYTE   N23  Bn1  v052
 BYTE   N22  Bn2  v080
 BYTE   N22  Gs3
 BYTE   W24
 BYTE   N23  An1  v052
 BYTE   N22  An2  v080
 BYTE   N22  Fs3
 BYTE   W24
 BYTE   N44  Gs1  v052
 BYTE   N44  Gs2  v064
 BYTE   N44  En3
 BYTE   W48
// 035   ----------------------------------------
 BYTE   N92  Ds2  v052
 BYTE   N44  Ds3  v064
 BYTE   N44  Bn3
 BYTE   W48
 BYTE   N22  Ds3  v080
 BYTE   N22  Bn3
 BYTE   W24
 BYTE   Ds3
 BYTE   N22  Cs4
 BYTE   W24
// 036   ----------------------------------------
 BYTE   N92  Dn2  v052
 BYTE   N44  Dn3  v064
 BYTE   N44  Bn3
 BYTE   W48
 BYTE   N22  Dn3  v080
 BYTE   N22  An3
 BYTE   W24
 BYTE   Dn3
 BYTE   N22  Gs3
 BYTE   W24
// 037   ----------------------------------------
 BYTE   N92  Cs2  v052
 BYTE   N44  Cs3  v064
 BYTE   N44  An3
 BYTE   W48
 BYTE   N22  Cs3  v080
 BYTE   N22  Fs3
 BYTE   W24
 BYTE   Cs3
 BYTE   N22  Gs3
 BYTE   W24
// 038   ----------------------------------------
 BYTE   N44  Cs2  v052
 BYTE   N44  Cs3  v064
 BYTE   N44  An3
 BYTE   W48
 BYTE   N23  Bn1  v052
 BYTE   N22  Bn2  v080
 BYTE   N22  Gs3
 BYTE   W24
 BYTE   N23  An1  v052
 BYTE   N22  An2  v080
 BYTE   N22  Fs3
 BYTE   W24
// 039   ----------------------------------------
 BYTE   N23  An1  v052
 BYTE   N22  An2  v080
 BYTE   N22  Fs3
 BYTE   W24
 BYTE   N23  Gs1  v052
 BYTE   N22  Gs2  v080
 BYTE   N22  En3
 BYTE   W24
 BYTE   N44  Bn1  v052
 BYTE   TIE  Bn2  v080
 BYTE   TIE  Gs3
 BYTE   W48
// 040   ----------------------------------------
 BYTE   N92  Bn0  v112
 BYTE   W92
 BYTE   W02
 BYTE   EOT
 BYTE   Bn2  v068
 BYTE   W02
// 041   ----------------------------------------
 BYTE   N44  Gs1  v088
 BYTE   N44  En4  v100
 BYTE   N44  Gs4  v127
 BYTE   W48
 BYTE   N23  Gs1  v112
 BYTE   N23  En4  v100
 BYTE   N23  Gs4  v127
 BYTE   W24
 BYTE   An1  v088
 BYTE   N23  En4  v100
 BYTE   N23  An4  v127
 BYTE   W24
// 042   ----------------------------------------
 BYTE   Gs1  v088
 BYTE   N23  En4  v100
 BYTE   N23  Gs4  v127
 BYTE   W24
 BYTE   Fs1  v088
 BYTE   N23  Cs4  v100
 BYTE   N23  Fs4  v127
 BYTE   W24
 BYTE   N44  En1  v088
 BYTE   N44  Bn3  v100
 BYTE   N44  En4  v127
 BYTE   W48
// 043   ----------------------------------------
 BYTE   Bn0  v088
 BYTE   N44  Ds4  v100
 BYTE   N44  Fs4  v127
 BYTE   W48
 BYTE   N23  Bn0  v112
 BYTE   N23  Ds4  v100
 BYTE   N23  Fs4  v127
 BYTE   W24
 BYTE   Cs1  v088
 BYTE   N23  Cs4  v100
 BYTE   N23  En4  v127
 BYTE   W24
// 044   ----------------------------------------
 BYTE   N44  Bn0  v088
 BYTE   N44  Fn4  v100
 BYTE   N44  Bn4  v127
 BYTE   W48
 BYTE   N23  An0  v088
 BYTE   N23  Fn4  v100
 BYTE   N23  An4  v127
 BYTE   W24
 BYTE   Gs0  v088
 BYTE   N23  Dn4  v100
 BYTE   N23  Gs4  v127
 BYTE   W24
// 045   ----------------------------------------
 BYTE   N92  Cs1  v100
 BYTE   N44  Cs4
 BYTE   N44  Fs4  v127
 BYTE   W48
 BYTE   N23  Cs4  v100
 BYTE   N23  Fs4  v127
 BYTE   W24
 BYTE   Cs4  v100
 BYTE   N23  Fn4  v127
 BYTE   W24
// 046   ----------------------------------------
 BYTE   N92  Bn0  v100
 BYTE   N44  Ds4
 BYTE   N44  An4  v127
 BYTE   W48
 BYTE   Ds4  v100
 BYTE   N44  Fs4  v127
 BYTE   W48
// 047   ----------------------------------------
 BYTE   TIE  An0  v112
 BYTE   N68  En3  v127
 BYTE   N68  An3
 BYTE   N68  En4
 BYTE   W72
 BYTE   N23  En3
 BYTE   N23  An3
 BYTE   N23  Fs4
 BYTE   W24
// 048   ----------------------------------------
 BYTE   An3
 BYTE   N23  An4
 BYTE   W24
 BYTE   Gs3
 BYTE   N23  Gs4
 BYTE   W24
 BYTE   Fs3
 BYTE   N23  Fs4
 BYTE   W24
 BYTE   En3
 BYTE   N23  En4
 BYTE   W23
 BYTE   EOT
 BYTE   An0
 BYTE   W01
// 049   ----------------------------------------
 BYTE   N92  Cn1  v112
 BYTE   N44  Gn3  v127
 BYTE   N44  En4
 BYTE   N44  Gn4
 BYTE   W48
 BYTE   TIE  En3
 BYTE   TIE  Cn4
 BYTE   TIE  En4
 BYTE   W48
// 050   ----------------------------------------
 BYTE   N92  Dn1  v112
 BYTE   W92
 BYTE   W02
 BYTE   EOT
 BYTE   En3  v072
 BYTE   En4
 BYTE   W02
// 051   ----------------------------------------
 BYTE   TIE  Ds1
 BYTE   N68  Gn3  v127
 BYTE   N68  Gn4
 BYTE   W72
 BYTE   N23  An3
 BYTE   N23  An4
 BYTE   W24
// 052   ----------------------------------------
 BYTE   Cn4
 BYTE   N23  Cn5
 BYTE   W24
 BYTE   As3
 BYTE   N23  As4
 BYTE   W24
 BYTE   An3
 BYTE   N23  An4
 BYTE   W24
 BYTE   Gn3
 BYTE   N23  Gn4
 BYTE   W23
 BYTE   EOT
 BYTE   Ds1
 BYTE   W01
// 053   ----------------------------------------
 BYTE   N92  Cn1  v112
 BYTE   N48  As3  v127
 BYTE   N48  As4
 BYTE   W48
 BYTE   N92  Gn3
 BYTE   N92  Gn4
 BYTE   W48
// 054   ----------------------------------------
 BYTE   Fn0  v112
 BYTE   W48
 BYTE   N48  An3  v127
 BYTE   N48  Cn4
 BYTE   N48  Fn4
 BYTE   N48  Cn5
 BYTE   W48
// 055   ----------------------------------------
Label_8_015AF4EE:
 BYTE   TIE  Gn0  v112
 BYTE   TIE  Bn3  v127
 BYTE   TIE  Dn4
 BYTE   TIE  Gn4
 BYTE   TIE  Bn4
 BYTE   W96
 BYTE   PEND 
// 056   ----------------------------------------
 BYTE   W44
 BYTE   W02
 BYTE   EOT
 BYTE   Bn3  v074
 BYTE   Gn4  v083
 BYTE   W01
 BYTE   Gn0
 BYTE   W01
 BYTE   N44  Fn0  v112
 BYTE   N48  An3  v127
 BYTE   N48  Cn4
 BYTE   N48  Fn4
 BYTE   N48  Cn5
 BYTE   W48
 BYTE   PATT
  POIN2 Label_8_015AF4EE
// 057   ----------------------------------------
 BYTE   W44
 BYTE   W02
 BYTE   EOT
 BYTE   Bn3  v074
 BYTE   Gn4  v083
 BYTE   W01
 BYTE   Gn0
 BYTE   W01
 BYTE   N44  Fn0  v112
 BYTE   N48  An3  v127
 BYTE   N48  Cn4
 BYTE   N48  Fn4
 BYTE   N48  Cn5
 BYTE   W48
// 058   ----------------------------------------
 BYTE   N21  Gn0
 BYTE   N23  Gn3
 BYTE   N23  Bn3
 BYTE   N23  Dn4
 BYTE   N23  Gn4
 BYTE   W12
 BYTE   N05  Bn0
 BYTE   N05  Bn1
 BYTE   W06
 BYTE   Cn1
 BYTE   N05  Cn2
 BYTE   W06
 BYTE   Dn1
 BYTE   N05  Dn2
 BYTE   W06
 BYTE   En1
 BYTE   N05  En2
 BYTE   W06
 BYTE   Fn1
 BYTE   N05  Fn2
 BYTE   W06
 BYTE   Gn1
 BYTE   N05  Gn2
 BYTE   W06
 BYTE   An1
 BYTE   N05  An2
 BYTE   W06
 BYTE   Fs1
 BYTE   N05  Fs2
 BYTE   W06
 BYTE   Gn1
 BYTE   N05  Gn2
 BYTE   W06
 BYTE   An1
 BYTE   N05  An2
 BYTE   W06
 BYTE   Bn1
 BYTE   N05  Bn2
 BYTE   W06
 BYTE   Cn2
 BYTE   N05  Cn3
 BYTE   W06
 BYTE   Dn2
 BYTE   N05  Dn3
 BYTE   W06
 BYTE   En2
 BYTE   N05  En3
 BYTE   W06
// 059   ----------------------------------------
 BYTE   N92  Dn1  v112
 BYTE   N68  Cn4  v127
 BYTE   N68  Fn5
 BYTE   W72
 BYTE   N06  Cn4
 BYTE   N06  Fn5
 BYTE   W08
 BYTE   Cn4
 BYTE   N06  Fn5
 BYTE   W08
 BYTE   Cn4
 BYTE   N06  Fn5
 BYTE   W08
// 060   ----------------------------------------
 BYTE   N11  Gn0
 BYTE   N11  Gn2
 BYTE   N11  Dn4
 BYTE   N11  Gn4
 BYTE   N11  Gn5
 BYTE   W24
 BYTE   N05  Gn0
 BYTE   W08
 BYTE   N05
 BYTE   W08
 BYTE   N05
 BYTE   W08
 BYTE   N21
 BYTE   W48
// 061   ----------------------------------------
 BYTE   W92
 BYTE   W03
 BYTE   GoTo
  POIN2 Label_8_015AF061
 BYTE   FINE

//**************** Track 10 (Midi-Chn.9) ****************//

SuperSmashBrosBrawlMainThemeMrGreen3339_010:
// 000   ----------------------------------------
 BYTE   KEYSH   SuperSmashBrosBrawlMainThemeMrGreen3339_key+0
Label_9_015AF5A7:
 BYTE   VOICE   10
 BYTE   PAN   c_v+24
 BYTE   En5
 BYTE   VOL   50*SuperSmashBrosBrawlMainThemeMrGreen3339_mvl/mxv
 BYTE   TIE  En2  v112
 BYTE   W96
// 001   ----------------------------------------
 BYTE   W92
 BYTE   W02
 BYTE   EOT
 BYTE   W02
// 002   ----------------------------------------
 BYTE   N44  En2  v100
 BYTE   W24
 BYTE   N06  En4
 BYTE   W08
 BYTE   N06
 BYTE   W08
 BYTE   N06
 BYTE   W08
 BYTE   N44  En2
 BYTE   N92  En4
 BYTE   W48
// 003   ----------------------------------------
 BYTE   N22  En2
 BYTE   W36
 BYTE   N11  En2  v112
 BYTE   W12
 BYTE   N44  Bn1  v100
 BYTE   N22  Cs4
 BYTE   W24
 BYTE   N11  Bn3
 BYTE   W12
 BYTE   An3
 BYTE   W12
// 004   ----------------------------------------
Label_9_015AF5D8:
 BYTE   N11  Cs2  v112
 BYTE   N92  Gs3  v100
 BYTE   W12
 BYTE   N11  Cs2
 BYTE   W36
 BYTE   N11
 BYTE   W12
 BYTE   N11
 BYTE   W36
 BYTE   PEND 
// 005   ----------------------------------------
Label_9_015AF5E7:
 BYTE   N11  Cs2  v100
 BYTE   W12
 BYTE   N11
 BYTE   W36
 BYTE   Bn1  v112
 BYTE   N11  An3  v127
 BYTE   W12
 BYTE   N36  Bn1  v100
 BYTE   N11  Gs3  v127
 BYTE   W12
 BYTE   An3
 BYTE   W12
 BYTE   Bn3
 BYTE   W12
 BYTE   PEND 
// 006   ----------------------------------------
Label_9_015AF5FF:
 BYTE   N11  Cs2  v112
 BYTE   N92  Gs3  v127
 BYTE   W12
 BYTE   N11  Cs2  v100
 BYTE   W36
 BYTE   N11
 BYTE   W12
 BYTE   N11
 BYTE   W36
 BYTE   PEND 
// 007   ----------------------------------------
Label_9_015AF60F:
 BYTE   N11  Cs2  v100
 BYTE   W12
 BYTE   N11
 BYTE   W24
 BYTE   N05  Fs3  v127
 BYTE   W06
 BYTE   En3
 BYTE   W06
 BYTE   N11  Bn1  v112
 BYTE   N11  Fs3  v127
 BYTE   W12
 BYTE   N36  Bn1  v100
 BYTE   N11  Gs3  v127
 BYTE   W12
 BYTE   An3
 BYTE   W12
 BYTE   Bn3
 BYTE   W12
 BYTE   PEND 
// 008   ----------------------------------------
Label_9_015AF62E:
 BYTE   N11  Cs2  v112
 BYTE   N96  Gs3  v127
 BYTE   W12
 BYTE   N11  Cs2  v100
 BYTE   W36
 BYTE   N11
 BYTE   W12
 BYTE   N11
 BYTE   W36
 BYTE   PEND 
// 009   ----------------------------------------
 BYTE   N11
 BYTE   W12
 BYTE   N11
 BYTE   W12
 BYTE   Ds3  v127
 BYTE   W12
 BYTE   En3
 BYTE   W12
 BYTE   Bn1  v112
 BYTE   N23  Fs3  v127
 BYTE   W12
 BYTE   N36  Bn1  v100
 BYTE   W12
 BYTE   N11  En3  v127
 BYTE   W12
 BYTE   Ds3
 BYTE   W12
// 010   ----------------------------------------
 BYTE   Cs2  v112
 BYTE   N23  Cs3  v127
 BYTE   W12
 BYTE   N11  Cs2  v100
 BYTE   W12
 BYTE   N68  Gs3  v127
 BYTE   W24
 BYTE   N11  Cs2  v100
 BYTE   W12
 BYTE   N11
 BYTE   W36
// 011   ----------------------------------------
 BYTE   N44
 BYTE   W48
 BYTE   Bn1
 BYTE   N23  Cs4  v127
 BYTE   W24
 BYTE   N11  Bn3
 BYTE   W12
 BYTE   An3
 BYTE   W12
 BYTE   PATT
  POIN2 Label_9_015AF5D8
 BYTE   PATT
  POIN2 Label_9_015AF5E7
 BYTE   PATT
  POIN2 Label_9_015AF5FF
 BYTE   PATT
  POIN2 Label_9_015AF60F
 BYTE   PATT
  POIN2 Label_9_015AF62E
// 012   ----------------------------------------
 BYTE   N44  Fs1  v100
 BYTE   W24
 BYTE   N11  Ds4  v127
 BYTE   W12
 BYTE   En4
 BYTE   W12
 BYTE   N44  Gs1  v100
 BYTE   N23  Fs4  v127
 BYTE   W24
 BYTE   N11  En4
 BYTE   W12
 BYTE   Ds4
 BYTE   W12
// 013   ----------------------------------------
 BYTE   N92  Cs2  v100
 BYTE   N23  En4  v127
 BYTE   W24
 BYTE   N68  Cs4
 BYTE   W72
// 014   ----------------------------------------
 BYTE   N22  Cs2  v088
 BYTE   N23  Gs4  v116
 BYTE   W24
 BYTE   N22  Ds2  v100
 BYTE   N23  Fs4  v104
 BYTE   W24
 BYTE   N22  En2  v112
 BYTE   N48  En4  v092
 BYTE   W24
 BYTE   N22  Gs2  v127
 BYTE   W24
// 015   ----------------------------------------
 BYTE   N92  Fs2  v076
 BYTE   W96
// 016   ----------------------------------------
 BYTE   Gs2
 BYTE   W96
// 017   ----------------------------------------
 BYTE   TIE  Cs2
 BYTE   W96
// 018   ----------------------------------------
 BYTE   W92
 BYTE   W02
 BYTE   EOT
 BYTE   W02
// 019   ----------------------------------------
 BYTE   N44  As1
 BYTE   W48
 BYTE   An1  v088
 BYTE   W48
// 020   ----------------------------------------
 BYTE   Gs1  v100
 BYTE   W48
 BYTE   Cn2
 BYTE   W48
// 021   ----------------------------------------
 BYTE   N22  Cs2  v088
 BYTE   W24
 BYTE   Ds2
 BYTE   W24
 BYTE   En2
 BYTE   W24
 BYTE   Ds2
 BYTE   W24
// 022   ----------------------------------------
 BYTE   En2
 BYTE   W24
 BYTE   Fs2  v112
 BYTE   W24
 BYTE   Gs2
 BYTE   W24
 BYTE   As2
 BYTE   W24
// 023   ----------------------------------------
 BYTE   N44  Fs1  v127
 BYTE   W48
 BYTE   N22  Gs1
 BYTE   W24
 BYTE   An1
 BYTE   W24
// 024   ----------------------------------------
 BYTE   N22
 BYTE   W24
 BYTE   Gs1
 BYTE   W24
 BYTE   N44  Fs1
 BYTE   W48
// 025   ----------------------------------------
 BYTE   N92  En2  v100
 BYTE   N44  Gs4  v127
 BYTE   W48
 BYTE   N22  An4
 BYTE   W24
 BYTE   Bn4
 BYTE   W24
// 026   ----------------------------------------
 BYTE   N92  En2  v100
 BYTE   N22  Bn4  v127
 BYTE   W24
 BYTE   An4
 BYTE   W24
 BYTE   N44  Gs4
 BYTE   W48
// 027   ----------------------------------------
 BYTE   N92  Ds2  v100
 BYTE   W96
// 028   ----------------------------------------
 BYTE   N24  Gn1
 BYTE   W24
 BYTE   N68  Ds2
 BYTE   W72
// 029   ----------------------------------------
 BYTE   N44  Gs1  v088
 BYTE   W48
 BYTE   Fs1
 BYTE   W48
// 030   ----------------------------------------
 BYTE   En1  v100
 BYTE   W48
 BYTE   Ds1  v112
 BYTE   W48
// 031   ----------------------------------------
Label_9_015AF732:
 BYTE   N11  Fs1  v112
 BYTE   W12
 BYTE   Gs1
 BYTE   W12
 BYTE   As1
 BYTE   W12
 BYTE   Bn1
 BYTE   W12
 BYTE   Cs2
 BYTE   W12
 BYTE   Bn1
 BYTE   W12
 BYTE   Cs2
 BYTE   W12
 BYTE   Ds2
 BYTE   W12
 BYTE   PEND 
// 032   ----------------------------------------
Label_9_015AF745:
 BYTE   N11  En2  v112
 BYTE   W12
 BYTE   Ds2
 BYTE   W12
 BYTE   En2
 BYTE   W12
 BYTE   Fs2
 BYTE   W12
 BYTE   Gs2
 BYTE   W12
 BYTE   As2
 BYTE   W12
 BYTE   Bn2
 BYTE   W12
 BYTE   Cn3
 BYTE   W12
 BYTE   PEND 
// 033   ----------------------------------------
 BYTE   N44  Cs2  v100
 BYTE   W48
 BYTE   N24
 BYTE   W24
 BYTE   Cn2
 BYTE   W24
// 034   ----------------------------------------
 BYTE   Cs2
 BYTE   W24
 BYTE   An1
 BYTE   W24
 BYTE   N44  Gs1
 BYTE   W48
 BYTE   PATT
  POIN2 Label_9_015AF732
 BYTE   PATT
  POIN2 Label_9_015AF745
// 035   ----------------------------------------
 BYTE   N44  Fs1  v100
 BYTE   W48
 BYTE   N24  An1
 BYTE   W24
 BYTE   Gs1
 BYTE   W24
// 036   ----------------------------------------
 BYTE   Fs1
 BYTE   W24
 BYTE   En1
 BYTE   W24
 BYTE   Ds1
 BYTE   W24
 BYTE   Bn1
 BYTE   W24
// 037   ----------------------------------------
 BYTE   W96
// 038   ----------------------------------------
 BYTE   W96
// 039   ----------------------------------------
 BYTE   W96
// 040   ----------------------------------------
 BYTE   W96
// 041   ----------------------------------------
 BYTE   W96
// 042   ----------------------------------------
 BYTE   W96
// 043   ----------------------------------------
 BYTE   W96
// 044   ----------------------------------------
 BYTE   N92  Bn1  v112
 BYTE   W96
// 045   ----------------------------------------
 BYTE   N44  Gs2  v088
 BYTE   W48
 BYTE   N23  Gs2  v112
 BYTE   W24
 BYTE   An2  v088
 BYTE   W24
// 046   ----------------------------------------
 BYTE   Gs2
 BYTE   W24
 BYTE   Fs2
 BYTE   W24
 BYTE   N44  En2
 BYTE   W48
// 047   ----------------------------------------
 BYTE   Bn1
 BYTE   W48
 BYTE   N23  Bn1  v112
 BYTE   W24
 BYTE   Cs2  v088
 BYTE   W24
// 048   ----------------------------------------
 BYTE   N44  Bn1
 BYTE   W48
 BYTE   N23  An1
 BYTE   W24
 BYTE   Gs1
 BYTE   W24
// 049   ----------------------------------------
 BYTE   N92  Cs2  v100
 BYTE   W96
// 050   ----------------------------------------
 BYTE   Bn1
 BYTE   W96
// 051   ----------------------------------------
 BYTE   TIE  An1  v112
 BYTE   W96
// 052   ----------------------------------------
 BYTE   W92
 BYTE   W03
 BYTE   EOT
 BYTE   W01
// 053   ----------------------------------------
 BYTE   N92  Cn2
 BYTE   W96
// 054   ----------------------------------------
 BYTE   Dn2
 BYTE   W96
// 055   ----------------------------------------
 BYTE   TIE  Ds2
 BYTE   W96
// 056   ----------------------------------------
 BYTE   W92
 BYTE   W03
 BYTE   EOT
 BYTE   W01
// 057   ----------------------------------------
 BYTE   N92  Cn2
 BYTE   W96
// 058   ----------------------------------------
 BYTE   Fn1
 BYTE   W48
 BYTE   N48  Cn4  v127
 BYTE   W48
// 059   ----------------------------------------
 BYTE   TIE  Gn1  v112
 BYTE   TIE  Bn3  v127
 BYTE   W96
// 060   ----------------------------------------
 BYTE   W44
 BYTE   W02
 BYTE   EOT
 BYTE   W01
 BYTE   EOT
 BYTE   Gn1
 BYTE   W01
 BYTE   N44  Fn1  v112
 BYTE   N48  An3  v127
 BYTE   W48
// 061   ----------------------------------------
 BYTE   TIE  Gn1  v112
 BYTE   TIE  Dn4  v127
 BYTE   W96
// 062   ----------------------------------------
 BYTE   W44
 BYTE   W02
 BYTE   EOT
 BYTE   W01
 BYTE   EOT
 BYTE   Gn1
 BYTE   W01
 BYTE   N44  Fn1  v112
 BYTE   N48  Fn4  v127
 BYTE   W48
// 063   ----------------------------------------
 BYTE   N21  Gn1
 BYTE   N23  Gn4
 BYTE   W96
// 064   ----------------------------------------
 BYTE   N92  Dn2  v112
 BYTE   W96
// 065   ----------------------------------------
 BYTE   N11  Gn1  v127
 BYTE   W24
 BYTE   N05
 BYTE   W08
 BYTE   N05
 BYTE   W08
 BYTE   N05
 BYTE   W08
 BYTE   N21
 BYTE   W48
// 066   ----------------------------------------
 BYTE   W92
 BYTE   W03
 BYTE   GoTo
  POIN2 Label_9_015AF5A7
 BYTE   FINE

//**************** Track 11 (Midi-Chn.10) ****************//

SuperSmashBrosBrawlMainThemeMrGreen3339_011:
// 000   ----------------------------------------
 BYTE   KEYSH   SuperSmashBrosBrawlMainThemeMrGreen3339_key+0
Label_10_015AF81C:
 BYTE   VOICE   11
 BYTE   PAN   c_v-24
 BYTE   VOL   50*SuperSmashBrosBrawlMainThemeMrGreen3339_mvl/mxv
 BYTE   TIE  En2  v112
 BYTE   W96
// 001   ----------------------------------------
 BYTE   W92
 BYTE   W02
 BYTE   EOT
 BYTE   W02
// 002   ----------------------------------------
 BYTE   N44  En2  v100
 BYTE   W48
 BYTE   N44
 BYTE   W48
// 003   ----------------------------------------
 BYTE   N22
 BYTE   W36
 BYTE   N11  En2  v112
 BYTE   W12
 BYTE   N44  Bn1  v100
 BYTE   W48
// 004   ----------------------------------------
Label_10_015AF83A:
 BYTE   N11  Cs2  v112
 BYTE   W12
 BYTE   Cs2  v100
 BYTE   W36
 BYTE   N11
 BYTE   W12
 BYTE   N11
 BYTE   W36
 BYTE   PEND 
// 005   ----------------------------------------
Label_10_015AF846:
 BYTE   N11  Cs2  v100
 BYTE   W12
 BYTE   N11
 BYTE   W36
 BYTE   Bn1  v112
 BYTE   W12
 BYTE   N36  Bn1  v100
 BYTE   W36
 BYTE   PEND 
 BYTE   PATT
  POIN2 Label_10_015AF83A
 BYTE   PATT
  POIN2 Label_10_015AF846
 BYTE   PATT
  POIN2 Label_10_015AF83A
 BYTE   PATT
  POIN2 Label_10_015AF846
 BYTE   PATT
  POIN2 Label_10_015AF83A
// 006   ----------------------------------------
 BYTE   N44  Cs2  v100
 BYTE   W48
 BYTE   Bn1
 BYTE   W48
 BYTE   PATT
  POIN2 Label_10_015AF83A
 BYTE   PATT
  POIN2 Label_10_015AF846
 BYTE   PATT
  POIN2 Label_10_015AF83A
 BYTE   PATT
  POIN2 Label_10_015AF846
 BYTE   PATT
  POIN2 Label_10_015AF83A
// 007   ----------------------------------------
 BYTE   N44  Fs1  v100
 BYTE   W48
 BYTE   Gs1
 BYTE   W48
// 008   ----------------------------------------
 BYTE   N92  Cs2
 BYTE   W96
// 009   ----------------------------------------
 BYTE   N22  Cs2  v088
 BYTE   W24
 BYTE   Ds2  v100
 BYTE   W24
 BYTE   En2  v112
 BYTE   W24
 BYTE   Gs2  v127
 BYTE   W24
// 010   ----------------------------------------
 BYTE   N92  Fs2  v076
 BYTE   W96
// 011   ----------------------------------------
 BYTE   Gs2
 BYTE   W96
// 012   ----------------------------------------
 BYTE   TIE  Cs2
 BYTE   W96
// 013   ----------------------------------------
 BYTE   W92
 BYTE   W02
 BYTE   EOT
 BYTE   W02
// 014   ----------------------------------------
 BYTE   N44  As1
 BYTE   W48
 BYTE   An1  v088
 BYTE   W48
// 015   ----------------------------------------
 BYTE   Gs1  v100
 BYTE   W48
 BYTE   Cn2
 BYTE   W48
// 016   ----------------------------------------
 BYTE   N22  Cs2  v088
 BYTE   W24
 BYTE   Ds2
 BYTE   W24
 BYTE   En2
 BYTE   W24
 BYTE   Ds2
 BYTE   W24
// 017   ----------------------------------------
 BYTE   En2
 BYTE   W24
 BYTE   Fs2  v112
 BYTE   W24
 BYTE   Gs2
 BYTE   W24
 BYTE   As2
 BYTE   W24
// 018   ----------------------------------------
 BYTE   N44  Fs1  v127
 BYTE   W48
 BYTE   N22  Gs1
 BYTE   W24
 BYTE   An1
 BYTE   W24
// 019   ----------------------------------------
 BYTE   N22
 BYTE   W24
 BYTE   Gs1
 BYTE   W24
 BYTE   N44  Fs1
 BYTE   W48
// 020   ----------------------------------------
 BYTE   N92  En2  v100
 BYTE   W96
// 021   ----------------------------------------
 BYTE   N92
 BYTE   W96
// 022   ----------------------------------------
 BYTE   Ds2
 BYTE   W96
// 023   ----------------------------------------
 BYTE   N24  Gn1
 BYTE   W24
 BYTE   N68  Ds2
 BYTE   W72
// 024   ----------------------------------------
 BYTE   N44  Gs1  v088
 BYTE   W48
 BYTE   Fs1
 BYTE   W48
// 025   ----------------------------------------
 BYTE   En1  v100
 BYTE   W48
 BYTE   Ds1  v112
 BYTE   W48
// 026   ----------------------------------------
Label_10_015AF8F7:
 BYTE   N11  Fs1  v112
 BYTE   W12
 BYTE   Gs1
 BYTE   W12
 BYTE   As1
 BYTE   W12
 BYTE   Bn1
 BYTE   W12
 BYTE   Cs2
 BYTE   W12
 BYTE   Bn1
 BYTE   W12
 BYTE   Cs2
 BYTE   W12
 BYTE   Ds2
 BYTE   W12
 BYTE   PEND 
// 027   ----------------------------------------
Label_10_015AF90A:
 BYTE   N11  En2  v112
 BYTE   W12
 BYTE   Ds2
 BYTE   W12
 BYTE   En2
 BYTE   W12
 BYTE   Fs2
 BYTE   W12
 BYTE   Gs2
 BYTE   W12
 BYTE   As2
 BYTE   W12
 BYTE   Bn2
 BYTE   W12
 BYTE   Cn3
 BYTE   W12
 BYTE   PEND 
// 028   ----------------------------------------
 BYTE   N44  Cs2  v100
 BYTE   W48
 BYTE   N24
 BYTE   W24
 BYTE   Cn2
 BYTE   W24
// 029   ----------------------------------------
 BYTE   Cs2
 BYTE   W24
 BYTE   An1
 BYTE   W24
 BYTE   N44  Gs1
 BYTE   W48
 BYTE   PATT
  POIN2 Label_10_015AF8F7
 BYTE   PATT
  POIN2 Label_10_015AF90A
// 030   ----------------------------------------
 BYTE   N44  Fs1  v100
 BYTE   W48
 BYTE   N24  An1
 BYTE   W24
 BYTE   Gs1
 BYTE   W24
// 031   ----------------------------------------
 BYTE   Fs1
 BYTE   W24
 BYTE   En1
 BYTE   W24
 BYTE   Ds1
 BYTE   W24
 BYTE   Bn1
 BYTE   W24
// 032   ----------------------------------------
 BYTE   W96
// 033   ----------------------------------------
 BYTE   W96
// 034   ----------------------------------------
 BYTE   W96
// 035   ----------------------------------------
 BYTE   W96
// 036   ----------------------------------------
 BYTE   W96
// 037   ----------------------------------------
 BYTE   W96
// 038   ----------------------------------------
 BYTE   W96
// 039   ----------------------------------------
 BYTE   N92  Bn1  v112
 BYTE   W96
// 040   ----------------------------------------
 BYTE   N44  Gs2  v088
 BYTE   W48
 BYTE   N23  Gs2  v112
 BYTE   W24
 BYTE   An2  v088
 BYTE   W24
// 041   ----------------------------------------
 BYTE   Gs2
 BYTE   W24
 BYTE   Fs2
 BYTE   W24
 BYTE   N44  En2
 BYTE   W48
// 042   ----------------------------------------
 BYTE   Bn1
 BYTE   W48
 BYTE   N23  Bn1  v112
 BYTE   W24
 BYTE   Cs2  v088
 BYTE   W24
// 043   ----------------------------------------
 BYTE   N44  Bn1
 BYTE   W48
 BYTE   N23  An1
 BYTE   W24
 BYTE   Gs1
 BYTE   W24
// 044   ----------------------------------------
 BYTE   N92  Cs2  v100
 BYTE   W96
// 045   ----------------------------------------
 BYTE   Bn1
 BYTE   W96
// 046   ----------------------------------------
 BYTE   TIE  An1  v112
 BYTE   W96
// 047   ----------------------------------------
 BYTE   W92
 BYTE   W03
 BYTE   EOT
 BYTE   W01
// 048   ----------------------------------------
 BYTE   N92  Cn2
 BYTE   W96
// 049   ----------------------------------------
 BYTE   Dn2
 BYTE   W96
// 050   ----------------------------------------
 BYTE   TIE  Ds2
 BYTE   W96
// 051   ----------------------------------------
 BYTE   W92
 BYTE   W03
 BYTE   EOT
 BYTE   W01
// 052   ----------------------------------------
 BYTE   N92  Cn2
 BYTE   W96
// 053   ----------------------------------------
 BYTE   Fn1
 BYTE   W96
// 054   ----------------------------------------
 BYTE   TIE  Gn1
 BYTE   W96
// 055   ----------------------------------------
 BYTE   W44
 BYTE   W03
 BYTE   EOT
 BYTE   W01
 BYTE   N44  Fn1
 BYTE   W48
// 056   ----------------------------------------
 BYTE   TIE  Gn1
 BYTE   W96
// 057   ----------------------------------------
 BYTE   W44
 BYTE   W03
 BYTE   EOT
 BYTE   W01
 BYTE   N44  Fn1
 BYTE   W48
// 058   ----------------------------------------
 BYTE   N21  Gn1  v127
 BYTE   W96
// 059   ----------------------------------------
 BYTE   N92  Dn2  v112
 BYTE   W96
// 060   ----------------------------------------
 BYTE   N11  Gn1  v127
 BYTE   W24
 BYTE   N05
 BYTE   W08
 BYTE   N05
 BYTE   W08
 BYTE   N05
 BYTE   W08
 BYTE   N21
 BYTE   W48
// 061   ----------------------------------------
 BYTE   W92
 BYTE   W03
 BYTE   GoTo
  POIN2 Label_10_015AF81C
 BYTE   FINE

//**************** Track 12 (Midi-Chn.11) ****************//

SuperSmashBrosBrawlMainThemeMrGreen3339_012:
// 000   ----------------------------------------
 BYTE   KEYSH   SuperSmashBrosBrawlMainThemeMrGreen3339_key+0
Label_11_015AF9C6:
 BYTE   VOICE   12
 BYTE   PAN   c_v+0
 BYTE   VOL   50*SuperSmashBrosBrawlMainThemeMrGreen3339_mvl/mxv
 BYTE   TIE  En1  v112
 BYTE   W96
// 001   ----------------------------------------
 BYTE   W92
 BYTE   W02
 BYTE   EOT
 BYTE   W02
// 002   ----------------------------------------
 BYTE   N44  En1  v100
 BYTE   W48
 BYTE   N44
 BYTE   W48
// 003   ----------------------------------------
 BYTE   N22
 BYTE   W36
 BYTE   N11  En1  v112
 BYTE   W12
 BYTE   N44  Bn0  v100
 BYTE   W48
// 004   ----------------------------------------
Label_11_015AF9E4:
 BYTE   N11  Cs1  v112
 BYTE   W12
 BYTE   Cs1  v100
 BYTE   W36
 BYTE   N11
 BYTE   W12
 BYTE   N11
 BYTE   W36
 BYTE   PEND 
// 005   ----------------------------------------
Label_11_015AF9F0:
 BYTE   N11  Cs1  v100
 BYTE   W12
 BYTE   N11
 BYTE   W36
 BYTE   Bn0  v112
 BYTE   W12
 BYTE   N36  Bn0  v100
 BYTE   W36
 BYTE   PEND 
 BYTE   PATT
  POIN2 Label_11_015AF9E4
 BYTE   PATT
  POIN2 Label_11_015AF9F0
 BYTE   PATT
  POIN2 Label_11_015AF9E4
 BYTE   PATT
  POIN2 Label_11_015AF9F0
 BYTE   PATT
  POIN2 Label_11_015AF9E4
// 006   ----------------------------------------
 BYTE   N44  Cs1  v100
 BYTE   W48
 BYTE   Bn0
 BYTE   W48
 BYTE   PATT
  POIN2 Label_11_015AF9E4
 BYTE   PATT
  POIN2 Label_11_015AF9F0
 BYTE   PATT
  POIN2 Label_11_015AF9E4
 BYTE   PATT
  POIN2 Label_11_015AF9F0
 BYTE   PATT
  POIN2 Label_11_015AF9E4
// 007   ----------------------------------------
 BYTE   N44  Fs0  v100
 BYTE   W48
 BYTE   Gs0
 BYTE   W48
// 008   ----------------------------------------
 BYTE   N92  Cs1
 BYTE   W96
// 009   ----------------------------------------
 BYTE   N22  Cs1  v088
 BYTE   W24
 BYTE   Ds1  v100
 BYTE   W24
 BYTE   En1  v112
 BYTE   W24
 BYTE   Gs1  v127
 BYTE   W24
// 010   ----------------------------------------
 BYTE   N92  Fs1  v076
 BYTE   W96
// 011   ----------------------------------------
 BYTE   Gs1
 BYTE   W96
// 012   ----------------------------------------
 BYTE   TIE  Cs1
 BYTE   W96
// 013   ----------------------------------------
 BYTE   W92
 BYTE   W02
 BYTE   EOT
 BYTE   W02
// 014   ----------------------------------------
 BYTE   N44  As0
 BYTE   W48
 BYTE   An0  v088
 BYTE   W48
// 015   ----------------------------------------
 BYTE   Gs0  v100
 BYTE   W48
 BYTE   Cn1
 BYTE   W48
// 016   ----------------------------------------
 BYTE   N22  Cs1  v088
 BYTE   W24
 BYTE   Ds1
 BYTE   W24
 BYTE   En1
 BYTE   W24
 BYTE   Ds1
 BYTE   W24
// 017   ----------------------------------------
 BYTE   En1
 BYTE   W24
 BYTE   Fs1  v112
 BYTE   W24
 BYTE   Gs1
 BYTE   W24
 BYTE   As1
 BYTE   W24
// 018   ----------------------------------------
 BYTE   N44  Fs0  v127
 BYTE   W48
 BYTE   N22  Gs0
 BYTE   W24
 BYTE   An0
 BYTE   W24
// 019   ----------------------------------------
 BYTE   N22
 BYTE   W24
 BYTE   Gs0
 BYTE   W24
 BYTE   N44  Fs0
 BYTE   W48
// 020   ----------------------------------------
 BYTE   N92  En1  v100
 BYTE   W96
// 021   ----------------------------------------
 BYTE   N92
 BYTE   W96
// 022   ----------------------------------------
 BYTE   Ds1
 BYTE   W96
// 023   ----------------------------------------
 BYTE   N24  Gn0
 BYTE   W24
 BYTE   N68  Ds1
 BYTE   W72
// 024   ----------------------------------------
 BYTE   N44  Gs0  v088
 BYTE   W48
 BYTE   Fs0
 BYTE   W48
// 025   ----------------------------------------
 BYTE   En0  v100
 BYTE   W48
 BYTE   Ds0  v112
 BYTE   W48
// 026   ----------------------------------------
Label_11_015AFAA1:
 BYTE   N11  Fs0  v112
 BYTE   W12
 BYTE   Gs0
 BYTE   W12
 BYTE   As0
 BYTE   W12
 BYTE   Bn0
 BYTE   W12
 BYTE   Cs1
 BYTE   W12
 BYTE   Bn0
 BYTE   W12
 BYTE   Cs1
 BYTE   W12
 BYTE   Ds1
 BYTE   W12
 BYTE   PEND 
// 027   ----------------------------------------
Label_11_015AFAB4:
 BYTE   N11  En1  v112
 BYTE   W12
 BYTE   Ds1
 BYTE   W12
 BYTE   En1
 BYTE   W12
 BYTE   Fs1
 BYTE   W12
 BYTE   Gs1
 BYTE   W12
 BYTE   As1
 BYTE   W12
 BYTE   Bn1
 BYTE   W12
 BYTE   Cn2
 BYTE   W12
 BYTE   PEND 
// 028   ----------------------------------------
 BYTE   N44  Cs1  v100
 BYTE   W48
 BYTE   N24
 BYTE   W24
 BYTE   Cn1
 BYTE   W24
// 029   ----------------------------------------
 BYTE   Cs1
 BYTE   W24
 BYTE   An0
 BYTE   W24
 BYTE   N44  Gs0
 BYTE   W48
 BYTE   PATT
  POIN2 Label_11_015AFAA1
 BYTE   PATT
  POIN2 Label_11_015AFAB4
// 030   ----------------------------------------
 BYTE   N44  Fs0  v100
 BYTE   W48
 BYTE   N24  An0
 BYTE   W24
 BYTE   Gs0
 BYTE   W24
// 031   ----------------------------------------
 BYTE   Fs0
 BYTE   W24
 BYTE   En0
 BYTE   W24
 BYTE   Ds0
 BYTE   W24
 BYTE   Bn0
 BYTE   W24
// 032   ----------------------------------------
 BYTE   W96
// 033   ----------------------------------------
 BYTE   W96
// 034   ----------------------------------------
 BYTE   W96
// 035   ----------------------------------------
 BYTE   W96
// 036   ----------------------------------------
 BYTE   W96
// 037   ----------------------------------------
 BYTE   W96
// 038   ----------------------------------------
 BYTE   W96
// 039   ----------------------------------------
 BYTE   N92  Bn0  v112
 BYTE   W96
// 040   ----------------------------------------
 BYTE   N44  Gs1  v088
 BYTE   W48
 BYTE   N23  Gs1  v112
 BYTE   W24
 BYTE   An1  v088
 BYTE   W24
// 041   ----------------------------------------
 BYTE   Gs1
 BYTE   W24
 BYTE   Fs1
 BYTE   W24
 BYTE   N44  En1
 BYTE   W48
// 042   ----------------------------------------
 BYTE   Bn0
 BYTE   W48
 BYTE   N23  Bn0  v112
 BYTE   W24
 BYTE   Cs1  v088
 BYTE   W24
// 043   ----------------------------------------
 BYTE   N44  Bn0
 BYTE   W48
 BYTE   N23  An0
 BYTE   W24
 BYTE   Gs0
 BYTE   W24
// 044   ----------------------------------------
 BYTE   N92  Cs1  v100
 BYTE   W96
// 045   ----------------------------------------
 BYTE   Bn0
 BYTE   W96
// 046   ----------------------------------------
 BYTE   TIE  An0  v112
 BYTE   W96
// 047   ----------------------------------------
 BYTE   W92
 BYTE   W03
 BYTE   EOT
 BYTE   W01
// 048   ----------------------------------------
 BYTE   N92  Cn1
 BYTE   W96
// 049   ----------------------------------------
 BYTE   Dn1
 BYTE   W96
// 050   ----------------------------------------
 BYTE   TIE  Ds1
 BYTE   W96
// 051   ----------------------------------------
 BYTE   W92
 BYTE   W03
 BYTE   EOT
 BYTE   W01
// 052   ----------------------------------------
 BYTE   N92  Cn1
 BYTE   W96
// 053   ----------------------------------------
 BYTE   Fn0
 BYTE   W96
// 054   ----------------------------------------
 BYTE   TIE  Gn0
 BYTE   W96
// 055   ----------------------------------------
 BYTE   W44
 BYTE   W03
 BYTE   EOT
 BYTE   W01
 BYTE   N44  Fn0
 BYTE   W48
// 056   ----------------------------------------
 BYTE   TIE  Gn0
 BYTE   W96
// 057   ----------------------------------------
 BYTE   W44
 BYTE   W03
 BYTE   EOT
 BYTE   W01
 BYTE   N44  Fn0
 BYTE   W48
// 058   ----------------------------------------
 BYTE   N21  Gn0  v127
 BYTE   W96
// 059   ----------------------------------------
 BYTE   N92  Dn1  v112
 BYTE   W96
// 060   ----------------------------------------
 BYTE   N11  Gn0  v127
 BYTE   W24
 BYTE   N05
 BYTE   W08
 BYTE   N05
 BYTE   W08
 BYTE   N05
 BYTE   W08
 BYTE   N21
 BYTE   W48
// 061   ----------------------------------------
 BYTE   W92
 BYTE   W03
 BYTE   GoTo
  POIN2 Label_11_015AF9C6
 BYTE   FINE

//**************** Track 13 (Midi-Chn.12) ****************//

SuperSmashBrosBrawlMainThemeMrGreen3339_013:
// 000   ----------------------------------------
 BYTE   KEYSH   SuperSmashBrosBrawlMainThemeMrGreen3339_key+0
Label_12_015AFB70:
 BYTE   VOICE   13
 BYTE   PAN   c_v+36
 BYTE   VOL   50*SuperSmashBrosBrawlMainThemeMrGreen3339_mvl/mxv
 BYTE   PAN   c_v+36
 BYTE   W96
// 001   ----------------------------------------
 BYTE   W64
 BYTE   N03  An4  v127
 BYTE   W04
 BYTE   Bn4
 BYTE   W04
 BYTE   Cs5
 BYTE   W04
 BYTE   Dn5
 BYTE   W04
 BYTE   En5
 BYTE   W04
 BYTE   Fs5
 BYTE   W04
 BYTE   Gs5
 BYTE   W04
 BYTE   An5
 BYTE   W04
// 002   ----------------------------------------
 BYTE   TIE  Bn5  v112
 BYTE   W96
// 003   ----------------------------------------
 BYTE   W48
 BYTE   EOT
 BYTE   W48
// 004   ----------------------------------------
Label_12_015AFB93:
 BYTE   W48
 BYTE   N05  En5  v127
 BYTE   W06
 BYTE   Cs5
 BYTE   W06
 BYTE   En5
 BYTE   W06
 BYTE   Gs5
 BYTE   W06
 BYTE   Cs6
 BYTE   W06
 BYTE   Gs5
 BYTE   W06
 BYTE   Cs6
 BYTE   W06
 BYTE   En6
 BYTE   W06
 BYTE   PEND 
// 005   ----------------------------------------
Label_12_015AFBA7:
 BYTE   N05  Gs6  v127
 BYTE   W06
 BYTE   En6
 BYTE   W06
 BYTE   Cs6
 BYTE   W06
 BYTE   N30  Gs5
 BYTE   W78
 BYTE   PEND 
 BYTE   PATT
  POIN2 Label_12_015AFB93
 BYTE   PATT
  POIN2 Label_12_015AFBA7
 BYTE   PATT
  POIN2 Label_12_015AFB93
 BYTE   PATT
  POIN2 Label_12_015AFBA7
 BYTE   PATT
  POIN2 Label_12_015AFB93
 BYTE   PATT
  POIN2 Label_12_015AFBA7
 BYTE   PATT
  POIN2 Label_12_015AFB93
 BYTE   PATT
  POIN2 Label_12_015AFBA7
 BYTE   PATT
  POIN2 Label_12_015AFB93
 BYTE   PATT
  POIN2 Label_12_015AFBA7
 BYTE   PATT
  POIN2 Label_12_015AFB93
 BYTE   PATT
  POIN2 Label_12_015AFBA7
// 006   ----------------------------------------
 BYTE   W96
// 007   ----------------------------------------
 BYTE   W96
// 008   ----------------------------------------
 BYTE   W96
// 009   ----------------------------------------
 BYTE   W96
// 010   ----------------------------------------
 BYTE   W96
// 011   ----------------------------------------
 BYTE   W96
// 012   ----------------------------------------
 BYTE   W96
// 013   ----------------------------------------
 BYTE   W96
// 014   ----------------------------------------
 BYTE   W96
// 015   ----------------------------------------
 BYTE   W96
// 016   ----------------------------------------
 BYTE   W96
// 017   ----------------------------------------
 BYTE   W96
// 018   ----------------------------------------
 BYTE   W96
// 019   ----------------------------------------
 BYTE   W96
// 020   ----------------------------------------
 BYTE   N44  Cs5  v127
 BYTE   W48
 BYTE   N22  Ds5
 BYTE   W24
 BYTE   En5
 BYTE   W24
// 021   ----------------------------------------
 BYTE   N22
 BYTE   W24
 BYTE   Ds5
 BYTE   W24
 BYTE   N22
 BYTE   W24
 BYTE   Cs5
 BYTE   W24
// 022   ----------------------------------------
Label_12_015AFC0E:
 BYTE   W24
 BYTE   N05  Gs6  v127
 BYTE   W06
 BYTE   Ds6
 BYTE   W06
 BYTE   Bn5
 BYTE   W06
 BYTE   Gs5
 BYTE   W30
 BYTE   Gs6
 BYTE   W06
 BYTE   Ds6
 BYTE   W06
 BYTE   Bn5
 BYTE   W06
 BYTE   Gs5
 BYTE   W06
 BYTE   PEND 
 BYTE   PATT
  POIN2 Label_12_015AFC0E
// 023   ----------------------------------------
 BYTE   W96
// 024   ----------------------------------------
 BYTE   W96
// 025   ----------------------------------------
 BYTE   W96
// 026   ----------------------------------------
 BYTE   W96
// 027   ----------------------------------------
 BYTE   W96
// 028   ----------------------------------------
 BYTE   W96
// 029   ----------------------------------------
 BYTE   W96
// 030   ----------------------------------------
 BYTE   W96
// 031   ----------------------------------------
 BYTE   N44  Gs5  v064
 BYTE   W48
 BYTE   N22
 BYTE   W24
 BYTE   An5
 BYTE   W24
// 032   ----------------------------------------
 BYTE   Gs5
 BYTE   W24
 BYTE   Fs5
 BYTE   W24
 BYTE   N44  En5
 BYTE   W48
// 033   ----------------------------------------
 BYTE   Bn5
 BYTE   W48
 BYTE   N22
 BYTE   W24
 BYTE   Cs6
 BYTE   W24
// 034   ----------------------------------------
 BYTE   N44  Bn5
 BYTE   W48
 BYTE   N22  An5
 BYTE   W24
 BYTE   Gs5
 BYTE   W24
// 035   ----------------------------------------
 BYTE   N44  An5
 BYTE   W48
 BYTE   N22  Fs5
 BYTE   W24
 BYTE   Gs5
 BYTE   W24
// 036   ----------------------------------------
 BYTE   N44  An5
 BYTE   W48
 BYTE   N22  Gs5
 BYTE   W24
 BYTE   Fs5
 BYTE   W24
// 037   ----------------------------------------
 BYTE   N22
 BYTE   W24
 BYTE   En5
 BYTE   W24
 BYTE   TIE  Gs5
 BYTE   W48
// 038   ----------------------------------------
 BYTE   W92
 BYTE   W02
 BYTE   EOT
 BYTE   W02
// 039   ----------------------------------------
 BYTE   N44  Gs5  v112
 BYTE   W48
 BYTE   N22
 BYTE   W24
 BYTE   An5
 BYTE   W24
// 040   ----------------------------------------
 BYTE   Gs5
 BYTE   W24
 BYTE   Fs5
 BYTE   W24
 BYTE   N44  En5
 BYTE   W48
// 041   ----------------------------------------
 BYTE   Bn5
 BYTE   W48
 BYTE   N22
 BYTE   W24
 BYTE   Cs6
 BYTE   W24
// 042   ----------------------------------------
 BYTE   N44  Bn5
 BYTE   W48
 BYTE   N22  An5
 BYTE   W24
 BYTE   Gs5
 BYTE   W24
// 043   ----------------------------------------
 BYTE   N44  An5
 BYTE   W48
 BYTE   N22  Fs5
 BYTE   W24
 BYTE   Gs5
 BYTE   W24
// 044   ----------------------------------------
 BYTE   N44  An5
 BYTE   W48
 BYTE   Fs5
 BYTE   W48
// 045   ----------------------------------------
 BYTE   En5
 BYTE   N44  An5
 BYTE   W96
// 046   ----------------------------------------
 BYTE   W96
// 047   ----------------------------------------
 BYTE   W96
// 048   ----------------------------------------
 BYTE   W96
// 049   ----------------------------------------
 BYTE   N68  Gn5  v127
 BYTE   W72
 BYTE   N23  An5
 BYTE   W24
// 050   ----------------------------------------
 BYTE   Cn6
 BYTE   W24
 BYTE   As5
 BYTE   W24
 BYTE   An5
 BYTE   W24
 BYTE   Gn5
 BYTE   W24
// 051   ----------------------------------------
 BYTE   N48  As5
 BYTE   W48
 BYTE   N92  Gn5
 BYTE   W48
// 052   ----------------------------------------
 BYTE   W96
// 053   ----------------------------------------
 BYTE   W96
// 054   ----------------------------------------
 BYTE   W96
// 055   ----------------------------------------
 BYTE   W96
// 056   ----------------------------------------
 BYTE   W96
// 057   ----------------------------------------
 BYTE   W12
 BYTE   N05  Bn4
 BYTE   W06
 BYTE   Cn5
 BYTE   W06
 BYTE   Dn5
 BYTE   W06
 BYTE   En5
 BYTE   W06
 BYTE   Fn5
 BYTE   W06
 BYTE   Gn5
 BYTE   W06
 BYTE   An5
 BYTE   W06
 BYTE   Fs5
 BYTE   W06
 BYTE   Gn5
 BYTE   W06
 BYTE   An5
 BYTE   W06
 BYTE   Bn5
 BYTE   W06
 BYTE   Cn6
 BYTE   W06
 BYTE   Dn6
 BYTE   W06
 BYTE   En6
 BYTE   W06
// 058   ----------------------------------------
 BYTE   N03  Fn6  v112
 BYTE   W04
 BYTE   Fs6
 BYTE   W04
 BYTE   Fn6
 BYTE   W04
 BYTE   Fs6
 BYTE   W04
 BYTE   Fn6
 BYTE   W04
 BYTE   Fs6
 BYTE   W04
 BYTE   Fn6
 BYTE   W04
 BYTE   Fs6
 BYTE   W04
 BYTE   Fn6
 BYTE   W04
 BYTE   Fs6
 BYTE   W04
 BYTE   Fn6
 BYTE   W04
 BYTE   Fs6
 BYTE   W04
 BYTE   Fn6
 BYTE   W04
 BYTE   Fs6
 BYTE   W04
 BYTE   Fn6
 BYTE   W04
 BYTE   Fs6
 BYTE   W04
 BYTE   Fn6
 BYTE   W04
 BYTE   Fs6
 BYTE   W04
 BYTE   Fn6
 BYTE   W04
 BYTE   Fs6
 BYTE   W04
 BYTE   Fn6
 BYTE   W04
 BYTE   Fs6
 BYTE   W04
 BYTE   Fn6
 BYTE   W04
 BYTE   Fs6
 BYTE   W04
// 059   ----------------------------------------
 BYTE   N11  Gn6
 BYTE   W96
// 060   ----------------------------------------
 BYTE   W92
 BYTE   W03
 BYTE   GoTo
  POIN2 Label_12_015AFB70
 BYTE   FINE

//**************** Track 14 (Midi-Chn.13) ****************//

SuperSmashBrosBrawlMainThemeMrGreen3339_014:
// 000   ----------------------------------------
 BYTE   KEYSH   SuperSmashBrosBrawlMainThemeMrGreen3339_key+0
Label_13_015AFD0F:
 BYTE   VOICE   0
 BYTE   PAN   c_v-24
 BYTE   DnM1
 BYTE   VOL   50*SuperSmashBrosBrawlMainThemeMrGreen3339_mvl/mxv
 BYTE   PAN   c_v+0
 BYTE   VOL   50*SuperSmashBrosBrawlMainThemeMrGreen3339_mvl/mxv
 BYTE   N44  DsM1  v100
 BYTE   W96
// 001   ----------------------------------------
 BYTE   W96
// 002   ----------------------------------------
 BYTE   N44
 BYTE   N92  EnM1  v127
 BYTE   N92  FnM1
 BYTE   N92  FsM1
 BYTE   N44  GnM1
 BYTE   N92  GsM1
 BYTE   W48
 BYTE   N44  AnM1
 BYTE   W48
// 003   ----------------------------------------
 BYTE   N11  DsM1  v100
 BYTE   W12
 BYTE   N11
 BYTE   W36
 BYTE   N11
 BYTE   W24
 BYTE   N11
 BYTE   W24
// 004   ----------------------------------------
Label_13_015AFD39:
 BYTE   N11  DsM1  v100
 BYTE   N11  AsM1
 BYTE   N92  EnM1  v127
 BYTE   N92  FnM1
 BYTE   W12
 BYTE   N03  AsM1  v088
 BYTE   W04
 BYTE   N03
 BYTE   W04
 BYTE   N03
 BYTE   W04
 BYTE   N11  AsM1  v112
 BYTE   W12
 BYTE   N03  AsM1  v088
 BYTE   W04
 BYTE   N03
 BYTE   W04
 BYTE   N03
 BYTE   W04
 BYTE   N11  AsM1  v112
 BYTE   W12
 BYTE   AsM1  v088
 BYTE   W12
 BYTE   N03
 BYTE   W04
 BYTE   N03
 BYTE   W04
 BYTE   N03
 BYTE   W04
 BYTE   N03
 BYTE   W04
 BYTE   N03
 BYTE   W04
 BYTE   N03
 BYTE   W04
 BYTE   PEND 
// 005   ----------------------------------------
Label_13_015AFD6C:
 BYTE   N11  DsM1  v100
 BYTE   N11  AsM1
 BYTE   W12
 BYTE   N03  AsM1  v088
 BYTE   W04
 BYTE   N03
 BYTE   W04
 BYTE   N03
 BYTE   W04
 BYTE   N11  AsM1  v112
 BYTE   W12
 BYTE   N03  AsM1  v088
 BYTE   W04
 BYTE   N03
 BYTE   W04
 BYTE   N03
 BYTE   W04
 BYTE   N11  AsM1  v112
 BYTE   W12
 BYTE   AsM1  v088
 BYTE   W12
 BYTE   N03
 BYTE   W04
 BYTE   N03
 BYTE   W04
 BYTE   N03
 BYTE   W04
 BYTE   N03
 BYTE   W04
 BYTE   N03
 BYTE   W04
 BYTE   N03
 BYTE   W04
 BYTE   PEND 
 BYTE   PATT
  POIN2 Label_13_015AFD6C
 BYTE   PATT
  POIN2 Label_13_015AFD6C
 BYTE   PATT
  POIN2 Label_13_015AFD6C
 BYTE   PATT
  POIN2 Label_13_015AFD6C
 BYTE   PATT
  POIN2 Label_13_015AFD6C
// 006   ----------------------------------------
 BYTE   N11  DsM1  v100
 BYTE   N11  AsM1
 BYTE   N92  FnM1  v127
 BYTE   N44  BnM1
 BYTE   W12
 BYTE   N03  AsM1  v088
 BYTE   W04
 BYTE   N03
 BYTE   W04
 BYTE   N03
 BYTE   W04
 BYTE   N11  AsM1  v112
 BYTE   W12
 BYTE   N03  AsM1  v088
 BYTE   W04
 BYTE   N03
 BYTE   W04
 BYTE   N03
 BYTE   W04
 BYTE   N11  AsM1  v112
 BYTE   W12
 BYTE   AsM1  v088
 BYTE   W12
 BYTE   N03
 BYTE   W04
 BYTE   N03
 BYTE   W04
 BYTE   N03
 BYTE   W04
 BYTE   N03
 BYTE   W04
 BYTE   N03
 BYTE   W04
 BYTE   N03
 BYTE   W04
 BYTE   PATT
  POIN2 Label_13_015AFD39
 BYTE   PATT
  POIN2 Label_13_015AFD6C
 BYTE   PATT
  POIN2 Label_13_015AFD6C
 BYTE   PATT
  POIN2 Label_13_015AFD6C
 BYTE   PATT
  POIN2 Label_13_015AFD6C
 BYTE   PATT
  POIN2 Label_13_015AFD6C
 BYTE   PATT
  POIN2 Label_13_015AFD6C
// 007   ----------------------------------------
Label_13_015AFE08:
 BYTE   N11  DsM1  v100
 BYTE   W24
 BYTE   N11
 BYTE   W24
 BYTE   N11
 BYTE   W24
 BYTE   N11
 BYTE   W24
 BYTE   PEND 
// 008   ----------------------------------------
Label_13_015AFE13:
 BYTE   N11  DsM1  v100
 BYTE   N92  EnM1  v127
 BYTE   N92  FnM1
 BYTE   N92  FsM1
 BYTE   W96
 BYTE   PEND 
// 009   ----------------------------------------
 BYTE   W96
// 010   ----------------------------------------
 BYTE   W96
// 011   ----------------------------------------
 BYTE   W96
// 012   ----------------------------------------
 BYTE   W96
// 013   ----------------------------------------
 BYTE   W96
 BYTE   PATT
  POIN2 Label_13_015AFE08
 BYTE   PATT
  POIN2 Label_13_015AFE08
// 014   ----------------------------------------
Label_13_015AFE2E:
 BYTE   N11  DsM1  v100
 BYTE   N11  AsM1
 BYTE   N92  EnM1  v127
 BYTE   N92  FnM1
 BYTE   N44  Cn0
 BYTE   W12
 BYTE   N03  AsM1  v088
 BYTE   W04
 BYTE   N03
 BYTE   W04
 BYTE   N03
 BYTE   W04
 BYTE   N11  AsM1  v112
 BYTE   W12
 BYTE   N03  AsM1  v088
 BYTE   W04
 BYTE   N03
 BYTE   W04
 BYTE   N03
 BYTE   W04
 BYTE   N11  AsM1  v112
 BYTE   N22  Cs0  v127
 BYTE   W12
 BYTE   N11  AsM1  v088
 BYTE   W12
 BYTE   N03
 BYTE   N22  GnM1  v127
 BYTE   W04
 BYTE   N03  AsM1  v088
 BYTE   W04
 BYTE   N03
 BYTE   W04
 BYTE   N03
 BYTE   W04
 BYTE   N03
 BYTE   W04
 BYTE   N03
 BYTE   W04
 BYTE   PEND 
// 015   ----------------------------------------
Label_13_015AFE6C:
 BYTE   N11  DsM1  v100
 BYTE   N11  AsM1
 BYTE   N22  GnM1  v127
 BYTE   W12
 BYTE   N03  AsM1  v088
 BYTE   W04
 BYTE   N03
 BYTE   W04
 BYTE   N03
 BYTE   W04
 BYTE   N11  AsM1  v112
 BYTE   N22  Cs0  v127
 BYTE   W12
 BYTE   N03  AsM1  v088
 BYTE   W04
 BYTE   N03
 BYTE   W04
 BYTE   N03
 BYTE   W04
 BYTE   N11  AsM1  v112
 BYTE   N44  Cn0  v127
 BYTE   W12
 BYTE   N11  AsM1  v088
 BYTE   W12
 BYTE   N03
 BYTE   W04
 BYTE   N03
 BYTE   W04
 BYTE   N03
 BYTE   W04
 BYTE   N03
 BYTE   W04
 BYTE   N03
 BYTE   W04
 BYTE   N03
 BYTE   W04
 BYTE   PEND 
 BYTE   PATT
  POIN2 Label_13_015AFE2E
 BYTE   PATT
  POIN2 Label_13_015AFE6C
 BYTE   PATT
  POIN2 Label_13_015AFD39
 BYTE   PATT
  POIN2 Label_13_015AFD6C
// 016   ----------------------------------------
 BYTE   N11  DsM1  v100
 BYTE   N44  FnM1  v127
 BYTE   N44  Cn0
 BYTE   W48
 BYTE   N11  DsM1  v100
 BYTE   N48  FnM1  v127
 BYTE   N48  FsM1
 BYTE   N44  Cn0
 BYTE   W48
// 017   ----------------------------------------
 BYTE   N11  DsM1  v100
 BYTE   N48  EnM1  v127
 BYTE   N44  Cn0
 BYTE   W48
 BYTE   N11  DsM1  v100
 BYTE   N48  EnM1  v127
 BYTE   N48  FnM1
 BYTE   N48  FsM1
 BYTE   N44  Cn0
 BYTE   W48
 BYTE   PATT
  POIN2 Label_13_015AFD6C
 BYTE   PATT
  POIN2 Label_13_015AFD6C
 BYTE   PATT
  POIN2 Label_13_015AFE13
// 018   ----------------------------------------
 BYTE   W96
 BYTE   PATT
  POIN2 Label_13_015AFD6C
 BYTE   PATT
  POIN2 Label_13_015AFD6C
// 019   ----------------------------------------
 BYTE   N11  DsM1  v100
 BYTE   N92  FnM1  v127
 BYTE   N44  Dn0
 BYTE   W96
// 020   ----------------------------------------
Label_13_015AFF05:
 BYTE   W48
 BYTE   N03  FnM1  v064
 BYTE   W04
 BYTE   N03
 BYTE   W04
 BYTE   N03
 BYTE   W04
 BYTE   N03
 BYTE   W04
 BYTE   N03
 BYTE   W04
 BYTE   N03
 BYTE   W04
 BYTE   N03
 BYTE   W04
 BYTE   N03
 BYTE   W04
 BYTE   N03
 BYTE   W04
 BYTE   N03
 BYTE   W04
 BYTE   N03
 BYTE   W04
 BYTE   N03
 BYTE   W04
 BYTE   PEND 
// 021   ----------------------------------------
 BYTE   N92  EnM1  v080
 BYTE   N92  FnM1
 BYTE   N92  FsM1
 BYTE   W96
// 022   ----------------------------------------
 BYTE   W96
// 023   ----------------------------------------
 BYTE   W96
// 024   ----------------------------------------
 BYTE   W96
// 025   ----------------------------------------
 BYTE   W96
// 026   ----------------------------------------
 BYTE   W96
// 027   ----------------------------------------
 BYTE   W96
 BYTE   PATT
  POIN2 Label_13_015AFF05
// 028   ----------------------------------------
 BYTE   N44  FnM1  v100
 BYTE   N44  AnM1  v127
 BYTE   N44  Cn0
 BYTE   W48
 BYTE   N11  DsM1  v100
 BYTE   N92  EnM1  v127
 BYTE   N92  FnM1
 BYTE   N92  FsM1
 BYTE   W48
// 029   ----------------------------------------
 BYTE   W96
// 030   ----------------------------------------
Label_13_015AFF49:
 BYTE   N44  Ds0  v127
 BYTE   N44  Dn0
 BYTE   W48
 BYTE   N11  DsM1  v100
 BYTE   N92  EnM1  v127
 BYTE   N92  FnM1
 BYTE   N92  FsM1
 BYTE   W48
 BYTE   PEND 
// 031   ----------------------------------------
 BYTE   W96
 BYTE   PATT
  POIN2 Label_13_015AFF49
// 032   ----------------------------------------
 BYTE   W96
 BYTE   PATT
  POIN2 Label_13_015AFE13
// 033   ----------------------------------------
 BYTE   W96
// 034   ----------------------------------------
 BYTE   N92  FnM1  v127
 BYTE   W96
 BYTE   PATT
  POIN2 Label_13_015AFF05
// 035   ----------------------------------------
Label_13_015AFF71:
 BYTE   N11  DsM1  v100
 BYTE   N11  AsM1
 BYTE   N92  EnM1  v127
 BYTE   N92  FnM1
 BYTE   N92  FsM1
 BYTE   W12
 BYTE   N03  AsM1  v088
 BYTE   W04
 BYTE   N03
 BYTE   W04
 BYTE   N03
 BYTE   W04
 BYTE   N11  AsM1  v112
 BYTE   W12
 BYTE   N03  AsM1  v088
 BYTE   W04
 BYTE   N03
 BYTE   W04
 BYTE   N03
 BYTE   W04
 BYTE   N11  AsM1  v112
 BYTE   W12
 BYTE   AsM1  v088
 BYTE   W12
 BYTE   N03
 BYTE   W04
 BYTE   N03
 BYTE   W04
 BYTE   N03
 BYTE   W04
 BYTE   N03
 BYTE   W04
 BYTE   N03
 BYTE   W04
 BYTE   N03
 BYTE   W04
 BYTE   PEND 
 BYTE   PATT
  POIN2 Label_13_015AFD6C
 BYTE   PATT
  POIN2 Label_13_015AFF71
// 036   ----------------------------------------
Label_13_015AFFB0:
 BYTE   N11  DsM1  v100
 BYTE   N11  AsM1
 BYTE   W12
 BYTE   N03  AsM1  v088
 BYTE   W04
 BYTE   N03
 BYTE   W04
 BYTE   N03
 BYTE   W04
 BYTE   N11  AsM1  v112
 BYTE   W12
 BYTE   N03  AsM1  v088
 BYTE   W04
 BYTE   N03
 BYTE   W04
 BYTE   N03
 BYTE   W04
 BYTE   N11  AsM1  v112
 BYTE   N44  Cs0  v127
 BYTE   N44  En0
 BYTE   W12
 BYTE   N11  AsM1  v088
 BYTE   W12
 BYTE   N03
 BYTE   W04
 BYTE   N03
 BYTE   W04
 BYTE   N03
 BYTE   W04
 BYTE   N03
 BYTE   W04
 BYTE   N03
 BYTE   W04
 BYTE   N03
 BYTE   W04
 BYTE   PEND 
// 037   ----------------------------------------
 BYTE   N11  DsM1  v100
 BYTE   N11  AsM1
 BYTE   N92  EnM1  v127
 BYTE   N92  FnM1
 BYTE   N92  FsM1
 BYTE   N44  Fn0
 BYTE   N44  Fs0
 BYTE   W12
 BYTE   N03  AsM1  v088
 BYTE   W04
 BYTE   N03
 BYTE   W04
 BYTE   N03
 BYTE   W04
 BYTE   N11  AsM1  v112
 BYTE   W12
 BYTE   N03  AsM1  v088
 BYTE   W04
 BYTE   N03
 BYTE   W04
 BYTE   N03
 BYTE   W04
 BYTE   N11  AsM1  v112
 BYTE   W12
 BYTE   AsM1  v088
 BYTE   W12
 BYTE   N03
 BYTE   W04
 BYTE   N03
 BYTE   W04
 BYTE   N03
 BYTE   W04
 BYTE   N03
 BYTE   W04
 BYTE   N03
 BYTE   W04
 BYTE   N03
 BYTE   W04
 BYTE   PATT
  POIN2 Label_13_015AFFB0
// 038   ----------------------------------------
 BYTE   N11  DsM1  v100
 BYTE   N11  AsM1
 BYTE   N92  EnM1  v127
 BYTE   N92  FnM1
 BYTE   N92  FsM1
 BYTE   N44  Fs0
 BYTE   N44  Gn0
 BYTE   W12
 BYTE   N03  AsM1  v088
 BYTE   W04
 BYTE   N03
 BYTE   W04
 BYTE   N03
 BYTE   W04
 BYTE   N11  AsM1  v112
 BYTE   W12
 BYTE   N03  AsM1  v088
 BYTE   W04
 BYTE   N03
 BYTE   W04
 BYTE   N03
 BYTE   W04
 BYTE   N11  AsM1  v112
 BYTE   W12
 BYTE   AsM1  v088
 BYTE   W12
 BYTE   N03
 BYTE   W04
 BYTE   N03
 BYTE   W04
 BYTE   N03
 BYTE   W04
 BYTE   N03
 BYTE   W04
 BYTE   N03
 BYTE   W04
 BYTE   N03
 BYTE   W04
// 039   ----------------------------------------
 BYTE   N11  DsM1  v100
 BYTE   N11  AsM1
 BYTE   W12
 BYTE   N03  AsM1  v088
 BYTE   W04
 BYTE   N03
 BYTE   W04
 BYTE   N03
 BYTE   W04
 BYTE   N11  AsM1  v112
 BYTE   W12
 BYTE   N03  AsM1  v088
 BYTE   W04
 BYTE   N03
 BYTE   W04
 BYTE   N03
 BYTE   W04
 BYTE   N11  AsM1  v112
 BYTE   N44  Gs0  v127
 BYTE   N44  Cs0
 BYTE   W12
 BYTE   N11  AsM1  v088
 BYTE   W12
 BYTE   N03
 BYTE   W04
 BYTE   N03
 BYTE   W04
 BYTE   N03
 BYTE   W04
 BYTE   N03
 BYTE   W04
 BYTE   N03
 BYTE   W04
 BYTE   N03
 BYTE   W04
// 040   ----------------------------------------
 BYTE   N11  DsM1  v100
 BYTE   N92  FnM1  v127
 BYTE   N44  Fs0
 BYTE   N44  GnM1
 BYTE   W24
 BYTE   N03  AsM1  v088
 BYTE   W04
 BYTE   N03
 BYTE   W04
 BYTE   N03
 BYTE   W04
 BYTE   N03
 BYTE   W04
 BYTE   N03
 BYTE   W04
 BYTE   N03
 BYTE   W04
 BYTE   N03
 BYTE   W04
 BYTE   N03
 BYTE   W04
 BYTE   N03
 BYTE   W04
 BYTE   N03
 BYTE   W04
 BYTE   N03
 BYTE   W04
 BYTE   N03
 BYTE   W04
 BYTE   N03
 BYTE   W04
 BYTE   N03
 BYTE   W04
 BYTE   N03
 BYTE   W04
 BYTE   N03
 BYTE   W04
 BYTE   N03
 BYTE   W04
 BYTE   N03
 BYTE   W04
// 041   ----------------------------------------
 BYTE   N11  DsM1  v100
 BYTE   N11  AsM1
 BYTE   N92  FnM1  v127
 BYTE   N92  FsM1
 BYTE   N44  Fn0
 BYTE   N44  Gs0
 BYTE   N44  En0
 BYTE   W72
 BYTE   N07  AsM1  v112
 BYTE   W08
 BYTE   N07
 BYTE   W08
 BYTE   N07
 BYTE   W08
// 042   ----------------------------------------
 BYTE   N11  DsM1  v100
 BYTE   N11  AsM1  v112
 BYTE   N11  Fs0  v127
 BYTE   N11  GnM1
 BYTE   N11  Gn0
 BYTE   W24
 BYTE   N07  AsM1  v112
 BYTE   W08
 BYTE   N07
 BYTE   W08
 BYTE   N07
 BYTE   W08
 BYTE   N11  DsM1  v100
 BYTE   N11  AsM1  v112
 BYTE   TIE  FnM1  v127
 BYTE   W48
// 043   ----------------------------------------
 BYTE   W92
 BYTE   W03
 BYTE   EOT
 BYTE   GoTo
  POIN2 Label_13_015AFD0F
 BYTE   FINE

//**************** Track 15 (Midi-Chn.14) ****************//

SuperSmashBrosBrawlMainThemeMrGreen3339_015:
// 000   ----------------------------------------
 BYTE   KEYSH   SuperSmashBrosBrawlMainThemeMrGreen3339_key+0
Label_14_015B0101:
 BYTE   VOICE   33
 BYTE   PAN   c_v+0
 BYTE   VOL   50*SuperSmashBrosBrawlMainThemeMrGreen3339_mvl/mxv
 BYTE   TIE  En1  v112
 BYTE   W96
// 001   ----------------------------------------
 BYTE   W44
 BYTE   W02
 BYTE   EOT
 BYTE   W48
 BYTE   W02
// 002   ----------------------------------------
 BYTE   N44  En2  v100
 BYTE   W48
 BYTE   N44
 BYTE   W48
// 003   ----------------------------------------
 BYTE   N32
 BYTE   W36
 BYTE   N11  En2  v127
 BYTE   W12
 BYTE   N44  Bn1
 BYTE   W48
// 004   ----------------------------------------
Label_14_015B011F:
 BYTE   N11  Cs2  v127
 BYTE   W12
 BYTE   N32  Cs2  v100
 BYTE   W36
 BYTE   N11  Cs2  v127
 BYTE   W12
 BYTE   N32  Cs2  v100
 BYTE   W36
 BYTE   PEND 
// 005   ----------------------------------------
Label_14_015B0130:
 BYTE   N11  Cs2  v127
 BYTE   W12
 BYTE   N32  Cs2  v100
 BYTE   W36
 BYTE   N03  Bn1
 BYTE   W04
 BYTE   N03
 BYTE   W04
 BYTE   N03
 BYTE   W04
 BYTE   N03
 BYTE   W04
 BYTE   N03
 BYTE   W04
 BYTE   N03
 BYTE   W04
 BYTE   N03
 BYTE   W04
 BYTE   N03
 BYTE   W04
 BYTE   N03
 BYTE   W04
 BYTE   N03
 BYTE   W04
 BYTE   N03
 BYTE   W04
 BYTE   N03
 BYTE   W04
 BYTE   PEND 
 BYTE   PATT
  POIN2 Label_14_015B011F
 BYTE   PATT
  POIN2 Label_14_015B0130
 BYTE   PATT
  POIN2 Label_14_015B011F
 BYTE   PATT
  POIN2 Label_14_015B0130
 BYTE   PATT
  POIN2 Label_14_015B011F
// 006   ----------------------------------------
 BYTE   N32  Cs2  v100
 BYTE   W48
 BYTE   N03  Bn1
 BYTE   W04
 BYTE   N03
 BYTE   W04
 BYTE   N03
 BYTE   W04
 BYTE   N03
 BYTE   W04
 BYTE   N03
 BYTE   W04
 BYTE   N03
 BYTE   W04
 BYTE   N03
 BYTE   W04
 BYTE   N03
 BYTE   W04
 BYTE   N03
 BYTE   W04
 BYTE   N03
 BYTE   W04
 BYTE   N03
 BYTE   W04
 BYTE   N03
 BYTE   W04
 BYTE   PATT
  POIN2 Label_14_015B011F
 BYTE   PATT
  POIN2 Label_14_015B0130
 BYTE   PATT
  POIN2 Label_14_015B011F
 BYTE   PATT
  POIN2 Label_14_015B0130
 BYTE   PATT
  POIN2 Label_14_015B011F
// 007   ----------------------------------------
 BYTE   N44  Cs2  v127
 BYTE   W48
 BYTE   Gs1
 BYTE   W48
// 008   ----------------------------------------
 BYTE   Cs2
 BYTE   W96
// 009   ----------------------------------------
 BYTE   N23
 BYTE   W24
 BYTE   Ds1  v116
 BYTE   W24
 BYTE   En2  v104
 BYTE   W24
 BYTE   Gs1  v092
 BYTE   W24
// 010   ----------------------------------------
 BYTE   N44  Cs2  v080
 BYTE   W96
// 011   ----------------------------------------
 BYTE   Gs1
 BYTE   W96
// 012   ----------------------------------------
 BYTE   Cs2
 BYTE   W96
// 013   ----------------------------------------
 BYTE   W96
// 014   ----------------------------------------
 BYTE   W96
// 015   ----------------------------------------
 BYTE   W96
// 016   ----------------------------------------
 BYTE   W96
// 017   ----------------------------------------
 BYTE   W96
// 018   ----------------------------------------
 BYTE   Fs1  v127
 BYTE   W96
// 019   ----------------------------------------
 BYTE   W48
 BYTE   N44
 BYTE   W48
// 020   ----------------------------------------
 BYTE   N44
 BYTE   W96
// 021   ----------------------------------------
 BYTE   W48
 BYTE   N44
 BYTE   W48
// 022   ----------------------------------------
 BYTE   W96
// 023   ----------------------------------------
 BYTE   Gn1
 BYTE   W96
// 024   ----------------------------------------
 BYTE   Cs1
 BYTE   W48
 BYTE   Fs1
 BYTE   W48
// 025   ----------------------------------------
Label_14_015B01D3:
 BYTE   N44  En1  v127
 BYTE   W48
 BYTE   Gs1
 BYTE   W48
 BYTE   PEND 
// 026   ----------------------------------------
 BYTE   W96
// 027   ----------------------------------------
 BYTE   W96
// 028   ----------------------------------------
 BYTE   Cs2
 BYTE   W48
 BYTE   N23
 BYTE   W24
 BYTE   Gn1
 BYTE   W24
// 029   ----------------------------------------
 BYTE   Cs2
 BYTE   W24
 BYTE   N23
 BYTE   W24
 BYTE   N44  Gs1
 BYTE   W48
// 030   ----------------------------------------
 BYTE   W96
// 031   ----------------------------------------
 BYTE   W96
// 032   ----------------------------------------
 BYTE   Fs1
 BYTE   W96
// 033   ----------------------------------------
 BYTE   W96
// 034   ----------------------------------------
 BYTE   W96
// 035   ----------------------------------------
 BYTE   W96
// 036   ----------------------------------------
 BYTE   W96
// 037   ----------------------------------------
 BYTE   W96
// 038   ----------------------------------------
 BYTE   W96
// 039   ----------------------------------------
 BYTE   W96
// 040   ----------------------------------------
 BYTE   W96
// 041   ----------------------------------------
 BYTE   W48
 BYTE   N03  Bn1  v100
 BYTE   W04
 BYTE   N03
 BYTE   W04
 BYTE   N03
 BYTE   W04
 BYTE   N03
 BYTE   W04
 BYTE   N03
 BYTE   W04
 BYTE   N03
 BYTE   W04
 BYTE   N03
 BYTE   W04
 BYTE   N03
 BYTE   W04
 BYTE   N03
 BYTE   W04
 BYTE   N03
 BYTE   W04
 BYTE   N03
 BYTE   W04
 BYTE   N03
 BYTE   W04
 BYTE   PATT
  POIN2 Label_14_015B01D3
// 042   ----------------------------------------
 BYTE   W96
 BYTE   PATT
  POIN2 Label_14_015B01D3
// 043   ----------------------------------------
 BYTE   W96
 BYTE   PATT
  POIN2 Label_14_015B01D3
// 044   ----------------------------------------
 BYTE   W96
// 045   ----------------------------------------
 BYTE   W96
// 046   ----------------------------------------
 BYTE   W96
// 047   ----------------------------------------
 BYTE   W96
// 048   ----------------------------------------
 BYTE   W48
 BYTE   N03  Bn1  v127
 BYTE   W04
 BYTE   N03
 BYTE   W04
 BYTE   N03
 BYTE   W04
 BYTE   N03
 BYTE   W04
 BYTE   N03
 BYTE   W04
 BYTE   N03
 BYTE   W04
 BYTE   N03
 BYTE   W04
 BYTE   N03
 BYTE   W04
 BYTE   N03
 BYTE   W04
 BYTE   N03
 BYTE   W04
 BYTE   N03
 BYTE   W04
 BYTE   N03
 BYTE   W04
// 049   ----------------------------------------
Label_14_015B0240:
 BYTE   N11  Ds1  v127
 BYTE   W24
 BYTE   N11
 BYTE   W24
 BYTE   N11
 BYTE   W24
 BYTE   N11
 BYTE   W24
 BYTE   PEND 
 BYTE   PATT
  POIN2 Label_14_015B0240
// 050   ----------------------------------------
 BYTE   N11  Cn2  v127
 BYTE   W24
 BYTE   N11
 BYTE   W24
 BYTE   N11
 BYTE   W24
 BYTE   N11
 BYTE   W24
// 051   ----------------------------------------
 BYTE   Fn1
 BYTE   W24
 BYTE   N11
 BYTE   W24
 BYTE   N11
 BYTE   W24
 BYTE   N11
 BYTE   W24
// 052   ----------------------------------------
Label_14_015B0262:
 BYTE   N11  Gn1  v127
 BYTE   W12
 BYTE   Dn1
 BYTE   W12
 BYTE   Gn1
 BYTE   W12
 BYTE   Dn1
 BYTE   W12
 BYTE   Gn1
 BYTE   W12
 BYTE   Dn1
 BYTE   W12
 BYTE   Gn1
 BYTE   W12
 BYTE   Dn1
 BYTE   W12
 BYTE   PEND 
// 053   ----------------------------------------
Label_14_015B0275:
 BYTE   N11  Gn1  v127
 BYTE   W12
 BYTE   Dn1
 BYTE   W12
 BYTE   Gn1
 BYTE   W12
 BYTE   Dn1
 BYTE   W60
 BYTE   PEND 
 BYTE   PATT
  POIN2 Label_14_015B0262
 BYTE   PATT
  POIN2 Label_14_015B0275
// 054   ----------------------------------------
 BYTE   N22  Gn1  v127
 BYTE   N22  Gn2
 BYTE   W96
// 055   ----------------------------------------
 BYTE   W96
// 056   ----------------------------------------
 BYTE   Gn1
 BYTE   N22  Gn2
 BYTE   W24
 BYTE   N07  Gn1
 BYTE   W08
 BYTE   N07
 BYTE   W08
 BYTE   N07
 BYTE   W08
 BYTE   N96
 BYTE   W48
// 057   ----------------------------------------
 BYTE   W92
 BYTE   W03
 BYTE   GoTo
  POIN2 Label_14_015B0101
 BYTE   FINE

//******************************************************//
	ALIGN 4

SuperSmashBrosBrawlMainThemeMrGreen3339:
	BYTE	15	// NumTrks
	BYTE	0	// NumBlks
	BYTE	SuperSmashBrosBrawlMainThemeMrGreen3339_pri	// Priority
	BYTE	SuperSmashBrosBrawlMainThemeMrGreen3339_rev	// Reverb.
    
	POIN2	SuperSmashBrosBrawlMainThemeMrGreen3339_grp
    
	POIN2	SuperSmashBrosBrawlMainThemeMrGreen3339_001
	POIN2	SuperSmashBrosBrawlMainThemeMrGreen3339_002
	POIN2	SuperSmashBrosBrawlMainThemeMrGreen3339_003
	POIN2	SuperSmashBrosBrawlMainThemeMrGreen3339_004
	POIN2	SuperSmashBrosBrawlMainThemeMrGreen3339_005
	POIN2	SuperSmashBrosBrawlMainThemeMrGreen3339_006
	POIN2	SuperSmashBrosBrawlMainThemeMrGreen3339_007
	POIN2	SuperSmashBrosBrawlMainThemeMrGreen3339_008
	POIN2	SuperSmashBrosBrawlMainThemeMrGreen3339_009
	POIN2	SuperSmashBrosBrawlMainThemeMrGreen3339_010
	POIN2	SuperSmashBrosBrawlMainThemeMrGreen3339_011
	POIN2	SuperSmashBrosBrawlMainThemeMrGreen3339_012
	POIN2	SuperSmashBrosBrawlMainThemeMrGreen3339_013
	POIN2	SuperSmashBrosBrawlMainThemeMrGreen3339_014
	POIN2	SuperSmashBrosBrawlMainThemeMrGreen3339_015

	
