//Event file generated from Sappy .s format.
	#include "MPlayDef.event"

	#define	SuperMarioRPGWeaponsFactoryPsyche_grp  voicegroup000
	#define	SuperMarioRPGWeaponsFactoryPsyche_pri  0
	#define	SuperMarioRPGWeaponsFactoryPsyche_rev  148
	#define	SuperMarioRPGWeaponsFactoryPsyche_mvl  127
	#define	SuperMarioRPGWeaponsFactoryPsyche_key  0
	#define	SuperMarioRPGWeaponsFactoryPsyche_tbs  1
	#define	SuperMarioRPGWeaponsFactoryPsyche_exg  0
	#define	SuperMarioRPGWeaponsFactoryPsyche_cmp  1

	// .rodata
	//	SuperMarioRPGWeaponsFactoryPsyche
	ALIGN 4


//**************** Track 1 (Midi-Chn.0) ****************//

SuperMarioRPGWeaponsFactoryPsyche_001:
//  #01 //000   ----------------------------------------
 BYTE   KEYSH   SuperMarioRPGWeaponsFactoryPsyche_key+0
 BYTE   TEMPO   120*SuperMarioRPGWeaponsFactoryPsyche_tbs/2
 BYTE   VOICE   105
 BYTE   VOL   51*SuperMarioRPGWeaponsFactoryPsyche_mvl/mxv
 BYTE   W96
//  #01 //001   ----------------------------------------
 BYTE   W60
 BYTE   W96
//  #01 //002   ----------------------------------------
 BYTE   W60
 BYTE   W96
//  #01 //003   ----------------------------------------
 BYTE   W60
 BYTE   W96
//  #01 //004   ----------------------------------------
 BYTE   W60
Label_566D30:
 BYTE   N12  As2  v112
 BYTE   N12  Dn3
 BYTE   W12
 BYTE   Cn3
 BYTE   N12  Ds3
 BYTE   W12
 BYTE   Gn2
 BYTE   N12  Cn3
 BYTE   W12
//  #01 //005   ----------------------------------------
 BYTE   As2
 BYTE   N12  Dn3
 BYTE   W12
 BYTE   Cn3
 BYTE   N12  Ds3
 BYTE   W12
 BYTE   N12
 BYTE   N12  Gn3
 BYTE   W12
 BYTE   Dn3
 BYTE   N12  Fn3
 BYTE   W12
 BYTE   Gn3
 BYTE   N12  As3
 BYTE   W12
 BYTE   PEND 
Label_566D53:
 BYTE   N12  Fn3  v112
 BYTE   N12  An3
 BYTE   W12
 BYTE   Gn3
 BYTE   N12  As3
 BYTE   W12
 BYTE   Fn3
 BYTE   N12  An3
 BYTE   W12
//  #01 //006   ----------------------------------------
 BYTE   Ds3
 BYTE   N12  Gn3
 BYTE   W12
 BYTE   Dn3
 BYTE   N12  Fn3
 BYTE   W12
 BYTE   PEND 
//  #01 //007   ----------------------------------------
 BYTE   PATT
  POIN2 Label_566D30
//  #01 //008   ----------------------------------------
 BYTE   PATT
  POIN2 Label_566D53
//  #01 //009   ----------------------------------------
Label_566D74:
 BYTE   N12  As2  v112
 BYTE   W12
 BYTE   Cn3
 BYTE   N12  Ds3
 BYTE   W12
 BYTE   Gn2
 BYTE   N12  Cn3
 BYTE   W12
 BYTE   As2
 BYTE   N12  Dn3
 BYTE   W12
 BYTE   Cn3
 BYTE   N12  Ds3
 BYTE   W12
 BYTE   N12
 BYTE   N12  Gn3
 BYTE   W12
 BYTE   Dn3
 BYTE   N12  Fn3
 BYTE   W12
 BYTE   Gn3
 BYTE   N12  As3
 BYTE   W12
 BYTE   PEND 
//  #01 //010   ----------------------------------------
 BYTE   PATT
  POIN2 Label_566D53
//  #01 //011   ----------------------------------------
 BYTE   PATT
  POIN2 Label_566D30
//  #01 //012   ----------------------------------------
 BYTE   PATT
  POIN2 Label_566D53
//  #01 //013   ----------------------------------------
Label_566DA4:
 BYTE   N12  En3  v112
 BYTE   N12  Gs3
 BYTE   W12
 BYTE   Fs3
 BYTE   N12  An3
 BYTE   W12
 BYTE   Cs3
 BYTE   N12  Fs3
 BYTE   W12
 BYTE   En3
 BYTE   N12  Gs3
 BYTE   W12
 BYTE   Fs3
 BYTE   N12  An3
 BYTE   W12
 BYTE   N12
 BYTE   N12  Cs4
 BYTE   W12
 BYTE   Gs3
 BYTE   N12  Bn3
 BYTE   W12
 BYTE   Cs4
 BYTE   N12  En4
 BYTE   W12
 BYTE   PEND 
//  #01 //014   ----------------------------------------
Label_566DC7:
 BYTE   N12  Bn3  v112
 BYTE   N12  Ds4
 BYTE   W12
 BYTE   Cs4
 BYTE   N12  En4
 BYTE   W12
 BYTE   Bn3
 BYTE   N12  Ds4
 BYTE   W12
 BYTE   An3
 BYTE   N12  Cs4
 BYTE   W12
 BYTE   Gs3
 BYTE   N12  Bn3
 BYTE   W12
 BYTE   PEND 
Label_566DDE:
 BYTE   N12  En3  v112
 BYTE   N01  Gs3
 BYTE   W12
 BYTE   N12  Fs3
 BYTE   N12  An3
 BYTE   W12
 BYTE   Cs3
 BYTE   N12  Fs3
 BYTE   W12
//  #01 //015   ----------------------------------------
 BYTE   En3
 BYTE   N12  Gs3
 BYTE   W12
 BYTE   Fs3
 BYTE   N12  An3
 BYTE   W12
 BYTE   N12
 BYTE   N12  Cs4
 BYTE   W12
 BYTE   Gs3
 BYTE   N12  Bn3
 BYTE   W12
 BYTE   Cs4
 BYTE   N12  En4
 BYTE   W12
 BYTE   PEND 
//  #01 //016   ----------------------------------------
 BYTE   PATT
  POIN2 Label_566DC7
//  #01 //017   ----------------------------------------
Label_566E07:
 BYTE   N12  Bn2  v112
 BYTE   N12  Ds3
 BYTE   W12
 BYTE   Cs3
 BYTE   N12  En3
 BYTE   W12
 BYTE   Gs2
 BYTE   N12  Cs3
 BYTE   W12
 BYTE   Bn2
 BYTE   N12  Ds3
 BYTE   W12
 BYTE   Cs3
 BYTE   N12  En3
 BYTE   W12
 BYTE   N12
 BYTE   N12  Gs3
 BYTE   W12
 BYTE   Ds3
 BYTE   N12  Fs3
 BYTE   W12
 BYTE   Gs3
 BYTE   N12  Bn3
 BYTE   W12
 BYTE   PEND 
//  #01 //018   ----------------------------------------
Label_566E2A:
 BYTE   N12  Fs3  v112
 BYTE   N12  As3
 BYTE   W12
 BYTE   Gs3
 BYTE   N12  Bn3
 BYTE   W12
 BYTE   Fs3
 BYTE   N12  As3
 BYTE   W12
 BYTE   En3
 BYTE   N12  Gs3
 BYTE   W12
 BYTE   Ds3
 BYTE   N12  Fs3
 BYTE   W12
 BYTE   PEND 
Label_566E41:
 BYTE   N12  Bn2  v112
 BYTE   W12
 BYTE   Cs3
 BYTE   N12  En3
 BYTE   W12
 BYTE   Gs2
 BYTE   N12  Cs3
 BYTE   W12
//  #01 //019   ----------------------------------------
 BYTE   Bn2
 BYTE   N12  Ds3
 BYTE   W12
 BYTE   Cs3
 BYTE   N12  En3
 BYTE   W12
 BYTE   N12
 BYTE   N12  Gs3
 BYTE   W12
 BYTE   Ds3
 BYTE   N12  Fs3
 BYTE   W12
 BYTE   Gs3
 BYTE   N12  Bn3
 BYTE   W12
 BYTE   PEND 
//  #01 //020   ----------------------------------------
 BYTE   PATT
  POIN2 Label_566E2A
//  #01 //021   ----------------------------------------
 BYTE   W96
//  #01 //022   ----------------------------------------
 BYTE   W60
 BYTE   W96
//  #01 //023   ----------------------------------------
 BYTE   W60
//  #01 //024   ----------------------------------------
 BYTE   PATT
  POIN2 Label_566D30
//  #01 //025   ----------------------------------------
 BYTE   PATT
  POIN2 Label_566D53
//  #01 //026   ----------------------------------------
Label_566E75:
 BYTE   N12  Cs3  v112
 BYTE   N12  Fn3
 BYTE   W12
 BYTE   Ds3
 BYTE   N12  Fs3
 BYTE   W12
 BYTE   As2
 BYTE   N12  Ds3
 BYTE   W12
 BYTE   Cs3
 BYTE   N12  Fn3
 BYTE   W12
 BYTE   Ds3
 BYTE   N12  Fs3
 BYTE   W12
 BYTE   N12
 BYTE   N12  As3
 BYTE   W12
 BYTE   Fn3
 BYTE   N12  Gs3
 BYTE   W12
 BYTE   As3
 BYTE   N12  Cs4
 BYTE   W12
 BYTE   PEND 
//  #01 //027   ----------------------------------------
Label_566E98:
 BYTE   N12  Gs3  v112
 BYTE   N12  Cn4
 BYTE   W12
 BYTE   As3
 BYTE   N12  Cs4
 BYTE   W12
 BYTE   Gs3
 BYTE   N12  Cn4
 BYTE   W12
 BYTE   Fs3
 BYTE   N12  As3
 BYTE   W12
 BYTE   Fn3
 BYTE   N12  Gs3
 BYTE   W12
 BYTE   PEND 
//  #01 //028   ----------------------------------------
 BYTE   PATT
  POIN2 Label_566DDE
//  #01 //029   ----------------------------------------
 BYTE   PATT
  POIN2 Label_566DC7
//  #01 //030   ----------------------------------------
 BYTE   W96
//  #01 //031   ----------------------------------------
 BYTE   W60
 BYTE   W96
//  #01 //032   ----------------------------------------
 BYTE   W60
 BYTE   W96
//  #01 //033   ----------------------------------------
 BYTE   W60
 BYTE   W96
//  #01 //034   ----------------------------------------
Label_566EC0:
 BYTE   W12
 BYTE   N48  As2  v112
 BYTE   N48  Cs3
 BYTE   W48
 BYTE   PEND 
Label_566EC8:
 BYTE   N12  Gs2  v112
 BYTE   N12  Cn3
 BYTE   W12
 BYTE   As2
 BYTE   N12  Cs3
 BYTE   W12
 BYTE   Fn2
 BYTE   N12  As2
 BYTE   W12
//  #01 //035   ----------------------------------------
 BYTE   Gs2
 BYTE   N12  Cn3
 BYTE   W12
 BYTE   As2
 BYTE   N12  Cs3
 BYTE   W12
 BYTE   N12
 BYTE   N12  Fn3
 BYTE   W12
 BYTE   Cn3
 BYTE   N12  Ds3
 BYTE   W12
 BYTE   Fn3
 BYTE   N12  Gs3
 BYTE   W12
 BYTE   PEND 
Label_566EEB:
 BYTE   N12  Ds3  v112
 BYTE   N12  Gn3
 BYTE   W12
 BYTE   Fn3
 BYTE   N12  Gs3
 BYTE   W12
 BYTE   Ds3
 BYTE   N12  Gn3
 BYTE   W12
//  #01 //036   ----------------------------------------
 BYTE   Cs3
 BYTE   N12  Fn3
 BYTE   W12
 BYTE   Cn3
 BYTE   N12  Ds3
 BYTE   W12
 BYTE   PEND 
Label_566F02:
 BYTE   N12  Gs2  v112
 BYTE   W12
 BYTE   As2
 BYTE   N12  Cs3
 BYTE   W12
 BYTE   Fn2
 BYTE   N12  As2
 BYTE   W12
 BYTE   Gs2
 BYTE   N12  Cn3
 BYTE   W12
 BYTE   As2
 BYTE   N12  Cs3
 BYTE   W12
 BYTE   N12
 BYTE   N12  Fn3
 BYTE   W12
//  #01 //037   ----------------------------------------
 BYTE   Cn3
 BYTE   N12  Ds3
 BYTE   W12
 BYTE   Fn3
 BYTE   N12  Gs3
 BYTE   W12
 BYTE   PEND 
//  #01 //038   ----------------------------------------
 BYTE   PATT
  POIN2 Label_566EEB
//  #01 //039   ----------------------------------------
 BYTE   PATT
  POIN2 Label_566D30
//  #01 //040   ----------------------------------------
 BYTE   PATT
  POIN2 Label_566D53
//  #01 //041   ----------------------------------------
 BYTE   PATT
  POIN2 Label_566D74
//  #01 //042   ----------------------------------------
 BYTE   N12  Fn3  v112
 BYTE   N12  An3
 BYTE   W12
 BYTE   Gn3
 BYTE   N12  As3
 BYTE   W12
 BYTE   Fn3
 BYTE   N12  An3
 BYTE   W12
 BYTE   Ds3
 BYTE   N12  Gn3
 BYTE   W12
 BYTE   GoTo
  POIN2 Label_566D30
//  #01 //043   ----------------------------------------
 BYTE   N12  Dn3  v112
 BYTE   N12  Fn3
 BYTE   W12
//  #01 //044   ----------------------------------------
 BYTE   PATT
  POIN2 Label_566D74
//  #01 //045   ----------------------------------------
 BYTE   PATT
  POIN2 Label_566D53
//  #01 //046   ----------------------------------------
 BYTE   PATT
  POIN2 Label_566D74
//  #01 //047   ----------------------------------------
 BYTE   PATT
  POIN2 Label_566D53
//  #01 //048   ----------------------------------------
 BYTE   PATT
  POIN2 Label_566D74
//  #01 //049   ----------------------------------------
 BYTE   PATT
  POIN2 Label_566D53
//  #01 //050   ----------------------------------------
 BYTE   PATT
  POIN2 Label_566D74
//  #01 //051   ----------------------------------------
 BYTE   PATT
  POIN2 Label_566D53
//  #01 //052   ----------------------------------------
 BYTE   PATT
  POIN2 Label_566DA4
//  #01 //053   ----------------------------------------
 BYTE   PATT
  POIN2 Label_566DC7
//  #01 //054   ----------------------------------------
 BYTE   PATT
  POIN2 Label_566DA4
//  #01 //055   ----------------------------------------
 BYTE   PATT
  POIN2 Label_566DC7
//  #01 //056   ----------------------------------------
 BYTE   PATT
  POIN2 Label_566E07
//  #01 //057   ----------------------------------------
 BYTE   PATT
  POIN2 Label_566E2A
//  #01 //058   ----------------------------------------
 BYTE   PATT
  POIN2 Label_566E07
//  #01 //059   ----------------------------------------
 BYTE   PATT
  POIN2 Label_566E2A
//  #01 //060   ----------------------------------------
 BYTE   W96
//  #01 //061   ----------------------------------------
 BYTE   W60
 BYTE   W96
//  #01 //062   ----------------------------------------
 BYTE   W60
//  #01 //063   ----------------------------------------
 BYTE   PATT
  POIN2 Label_566D30
//  #01 //064   ----------------------------------------
 BYTE   PATT
  POIN2 Label_566D53
//  #01 //065   ----------------------------------------
 BYTE   N12  Cs3  v112
 BYTE   W12
 BYTE   Ds3
 BYTE   N12  Fs3
 BYTE   W12
 BYTE   As2
 BYTE   N12  Ds3
 BYTE   W12
 BYTE   Cs3
 BYTE   N12  Fn3
 BYTE   W12
 BYTE   Ds3
 BYTE   N12  Fs3
 BYTE   W12
 BYTE   N12
 BYTE   N12  As3
 BYTE   W12
 BYTE   Fn3
 BYTE   N12  Gs3
 BYTE   W12
 BYTE   As3
 BYTE   N12  Cs4
 BYTE   W12
//  #01 //066   ----------------------------------------
 BYTE   PATT
  POIN2 Label_566E98
//  #01 //067   ----------------------------------------
 BYTE   PATT
  POIN2 Label_566DA4
//  #01 //068   ----------------------------------------
 BYTE   PATT
  POIN2 Label_566DC7
//  #01 //069   ----------------------------------------
 BYTE   W96
//  #01 //070   ----------------------------------------
 BYTE   W60
 BYTE   W96
//  #01 //071   ----------------------------------------
 BYTE   W60
 BYTE   W96
//  #01 //072   ----------------------------------------
 BYTE   W60
 BYTE   W96
//  #01 //073   ----------------------------------------
 BYTE   PATT
  POIN2 Label_566EC0
//  #01 //074   ----------------------------------------
 BYTE   PATT
  POIN2 Label_566EC8
//  #01 //075   ----------------------------------------
 BYTE   PATT
  POIN2 Label_566EEB
//  #01 //076   ----------------------------------------
 BYTE   PATT
  POIN2 Label_566F02
//  #01 //077   ----------------------------------------
 BYTE   PATT
  POIN2 Label_566EEB
//  #01 //078   ----------------------------------------
 BYTE   PATT
  POIN2 Label_566D30
//  #01 //079   ----------------------------------------
 BYTE   PATT
  POIN2 Label_566D53
//  #01 //080   ----------------------------------------
Label_56700B:
 BYTE   N12  As2  v112
 BYTE   N01  Dn3
 BYTE   W12
 BYTE   N12  Cn3
 BYTE   N12  Ds3
 BYTE   W12
 BYTE   Gn2
 BYTE   N12  Cn3
 BYTE   W12
 BYTE   As2
 BYTE   N12  Dn3
 BYTE   W12
 BYTE   Cn3
 BYTE   N12  Ds3
 BYTE   W12
 BYTE   N12
 BYTE   N12  Gn3
 BYTE   W12
 BYTE   Dn3
 BYTE   N12  Fn3
 BYTE   W12
 BYTE   Gn3
 BYTE   N12  As3
 BYTE   W12
 BYTE   PEND 
//  #01 //081   ----------------------------------------
 BYTE   PATT
  POIN2 Label_566D53
//  #01 //082   ----------------------------------------
 BYTE   PATT
  POIN2 Label_56700B
//  #01 //083   ----------------------------------------
 BYTE   PATT
  POIN2 Label_566D53
//  #01 //084   ----------------------------------------
 BYTE   PATT
  POIN2 Label_566D30
//  #01 //085   ----------------------------------------
 BYTE   PATT
  POIN2 Label_566D53
//  #01 //086   ----------------------------------------
 BYTE   PATT
  POIN2 Label_56700B
//  #01 //087   ----------------------------------------
 BYTE   PATT
  POIN2 Label_566D53
//  #01 //088   ----------------------------------------
 BYTE   PATT
  POIN2 Label_566D30
//  #01 //089   ----------------------------------------
 BYTE   PATT
  POIN2 Label_566D53
//  #01 //090   ----------------------------------------
 BYTE   PATT
  POIN2 Label_566DA4
//  #01 //091   ----------------------------------------
 BYTE   PATT
  POIN2 Label_566DC7
//  #01 //092   ----------------------------------------
 BYTE   PATT
  POIN2 Label_566DA4
//  #01 //093   ----------------------------------------
 BYTE   PATT
  POIN2 Label_566DC7
//  #01 //094   ----------------------------------------
 BYTE   PATT
  POIN2 Label_566E07
//  #01 //095   ----------------------------------------
 BYTE   PATT
  POIN2 Label_566E2A
//  #01 //096   ----------------------------------------
 BYTE   PATT
  POIN2 Label_566E41
//  #01 //097   ----------------------------------------
 BYTE   PATT
  POIN2 Label_566E2A
//  #01 //098   ----------------------------------------
 BYTE   W96
//  #01 //099   ----------------------------------------
 BYTE   W60
 BYTE   W96
//  #01 //100   ----------------------------------------
 BYTE   W60
//  #01 //101   ----------------------------------------
 BYTE   PATT
  POIN2 Label_566D30
//  #01 //102   ----------------------------------------
 BYTE   PATT
  POIN2 Label_566D53
//  #01 //103   ----------------------------------------
 BYTE   PATT
  POIN2 Label_566E75
//  #01 //104   ----------------------------------------
 BYTE   PATT
  POIN2 Label_566E98
//  #01 //105   ----------------------------------------
 BYTE   N12  En3  v112
 BYTE   W12
 BYTE   Fs3
 BYTE   N12  An3
 BYTE   W12
 BYTE   Cs3
 BYTE   N12  Fs3
 BYTE   W12
 BYTE   En3
 BYTE   N12  Gs3
 BYTE   W12
 BYTE   Fs3
 BYTE   N12  An3
 BYTE   W12
 BYTE   N12
 BYTE   N12  Cs4
 BYTE   W12
 BYTE   Gs3
 BYTE   N12  Bn3
 BYTE   W12
 BYTE   Cs4
 BYTE   N12  En4
 BYTE   W12
//  #01 //106   ----------------------------------------
 BYTE   PATT
  POIN2 Label_566DC7
//  #01 //107   ----------------------------------------
 BYTE   W96
//  #01 //108   ----------------------------------------
 BYTE   W60
 BYTE   W96
//  #01 //109   ----------------------------------------
 BYTE   W60
 BYTE   W96
//  #01 //110   ----------------------------------------
 BYTE   W60
 BYTE   W96
//  #01 //111   ----------------------------------------
 BYTE   PATT
  POIN2 Label_566EC0
//  #01 //112   ----------------------------------------
 BYTE   PATT
  POIN2 Label_566EC8
//  #01 //113   ----------------------------------------
 BYTE   PATT
  POIN2 Label_566EEB
//  #01 //114   ----------------------------------------
 BYTE   PATT
  POIN2 Label_566F02
//  #01 //115   ----------------------------------------
 BYTE   PATT
  POIN2 Label_566EEB
//  #01 //116   ----------------------------------------
 BYTE   PATT
  POIN2 Label_566D30
//  #01 //117   ----------------------------------------
 BYTE   PATT
  POIN2 Label_566D53
//  #01 //118   ----------------------------------------
 BYTE   PATT
  POIN2 Label_566D30
//  #01 //119   ----------------------------------------
 BYTE   PATT
  POIN2 Label_566D53
 BYTE   FINE

//**************** Track 2 (Midi-Chn.1) ****************//

SuperMarioRPGWeaponsFactoryPsyche_002:
//  #02 //000   ----------------------------------------
 BYTE   KEYSH   SuperMarioRPGWeaponsFactoryPsyche_key+0
 BYTE   VOICE   81
 BYTE   VOL   80*SuperMarioRPGWeaponsFactoryPsyche_mvl/mxv
 BYTE   N12  Cn1  v115
 BYTE   W12
 BYTE   Gn1
 BYTE   W12
 BYTE   Cn2
 BYTE   W12
 BYTE   As1
 BYTE   W12
 BYTE   Fn1
 BYTE   W12
 BYTE   Gn1
 BYTE   W12
 BYTE   Dn1
 BYTE   W12
 BYTE   Cn1
 BYTE   W12
//  #02 //001   ----------------------------------------
Label_010557A0:
 BYTE   N12  Gn1  v115
 BYTE   W12
 BYTE   Cn2
 BYTE   W12
 BYTE   As1
 BYTE   W12
 BYTE   Fn1
 BYTE   W12
 BYTE   Gn1
 BYTE   W12
 BYTE   PEND 
Label_010557AD:
 BYTE   N12  Cn1  v115
 BYTE   W12
 BYTE   Gn1
 BYTE   W12
 BYTE   Cn2
 BYTE   W12
//  #02 //002   ----------------------------------------
 BYTE   As1
 BYTE   W12
 BYTE   Fn1
 BYTE   W12
 BYTE   Gn1
 BYTE   W12
 BYTE   Dn1
 BYTE   W12
 BYTE   Cn1
 BYTE   W12
 BYTE   PEND 
//  #02 //003   ----------------------------------------
 BYTE   PATT
  POIN2 Label_010557A0
//  #02 //004   ----------------------------------------
 BYTE   PATT
  POIN2 Label_010557AD
//  #02 //005   ----------------------------------------
 BYTE   PATT
  POIN2 Label_010557A0
//  #02 //006   ----------------------------------------
 BYTE   PATT
  POIN2 Label_010557AD
//  #02 //007   ----------------------------------------
 BYTE   PATT
  POIN2 Label_010557A0
//  #02 //008   ----------------------------------------
Label_010557D9:
//  #02 //009   ----------------------------------------
 BYTE   PATT
  POIN2 Label_010557AD
//  #02 //010   ----------------------------------------
 BYTE   PATT
  POIN2 Label_010557A0
//  #02 //011   ----------------------------------------
 BYTE   PATT
  POIN2 Label_010557AD
//  #02 //012   ----------------------------------------
 BYTE   PATT
  POIN2 Label_010557A0
//  #02 //013   ----------------------------------------
 BYTE   PATT
  POIN2 Label_010557AD
//  #02 //014   ----------------------------------------
 BYTE   PATT
  POIN2 Label_010557A0
//  #02 //015   ----------------------------------------
 BYTE   PATT
  POIN2 Label_010557AD
//  #02 //016   ----------------------------------------
 BYTE   PATT
  POIN2 Label_010557A0
//  #02 //017   ----------------------------------------
Label_01055801:
 BYTE   N12  Fs1  v115
 BYTE   W12
 BYTE   Cs2
 BYTE   W12
 BYTE   Fs2
 BYTE   W12
 BYTE   En2
 BYTE   W12
 BYTE   Bn1
 BYTE   W12
 BYTE   Cs2
 BYTE   W12
 BYTE   Gs1
 BYTE   W12
 BYTE   Fs1
 BYTE   W12
 BYTE   PEND 
//  #02 //018   ----------------------------------------
Label_01055814:
 BYTE   N12  Cs2  v115
 BYTE   W12
 BYTE   Fs2
 BYTE   W12
 BYTE   En2
 BYTE   W12
 BYTE   Bn1
 BYTE   W12
 BYTE   Cs2
 BYTE   W12
 BYTE   PEND 
//  #02 //019   ----------------------------------------
 BYTE   PATT
  POIN2 Label_01055801
//  #02 //020   ----------------------------------------
 BYTE   PATT
  POIN2 Label_01055814
//  #02 //021   ----------------------------------------
Label_0105582B:
 BYTE   N12  Cs1  v115
 BYTE   W12
 BYTE   Gs1
 BYTE   W12
 BYTE   Cs2
 BYTE   W12
 BYTE   Bn1
 BYTE   W12
 BYTE   Fs1
 BYTE   W12
 BYTE   Gs1
 BYTE   W12
 BYTE   Ds1
 BYTE   W12
 BYTE   Cs1
 BYTE   W12
 BYTE   PEND 
//  #02 //022   ----------------------------------------
Label_0105583E:
 BYTE   N12  Gs1  v115
 BYTE   W12
 BYTE   Cs2
 BYTE   W12
 BYTE   Bn1
 BYTE   W12
 BYTE   Fs1
 BYTE   W12
 BYTE   Gs1
 BYTE   W12
 BYTE   PEND 
//  #02 //023   ----------------------------------------
 BYTE   PATT
  POIN2 Label_0105582B
//  #02 //024   ----------------------------------------
 BYTE   PATT
  POIN2 Label_0105583E
//  #02 //025   ----------------------------------------
Label_01055855:
 BYTE   N12  As0  v115
 BYTE   W12
 BYTE   Fn1
 BYTE   W12
 BYTE   As1
 BYTE   W12
 BYTE   Gs1
 BYTE   W12
 BYTE   Ds1
 BYTE   W12
 BYTE   Fn1
 BYTE   W12
 BYTE   Cn1
 BYTE   W12
 BYTE   As0
 BYTE   W12
 BYTE   PEND 
//  #02 //026   ----------------------------------------
Label_01055868:
 BYTE   N12  Fn1  v115
 BYTE   W12
 BYTE   As1
 BYTE   W12
 BYTE   Gs1
 BYTE   W12
 BYTE   Ds1
 BYTE   W12
 BYTE   Fn1
 BYTE   W12
 BYTE   PEND 
//  #02 //027   ----------------------------------------
 BYTE   PATT
  POIN2 Label_01055855
//  #02 //028   ----------------------------------------
 BYTE   PATT
  POIN2 Label_01055868
//  #02 //029   ----------------------------------------
 BYTE   PATT
  POIN2 Label_010557AD
//  #02 //030   ----------------------------------------
 BYTE   PATT
  POIN2 Label_010557A0
//  #02 //031   ----------------------------------------
Label_01055889:
 BYTE   N12  Ds1  v115
 BYTE   W12
 BYTE   As1
 BYTE   W12
 BYTE   Ds2
 BYTE   W12
 BYTE   Cs2
 BYTE   W12
 BYTE   Gs1
 BYTE   W12
 BYTE   As1
 BYTE   W12
 BYTE   Fn1
 BYTE   W12
 BYTE   Ds1
 BYTE   W12
 BYTE   PEND 
//  #02 //032   ----------------------------------------
Label_0105589C:
 BYTE   N12  As1  v115
 BYTE   W12
 BYTE   Ds2
 BYTE   W12
 BYTE   Cs2
 BYTE   W12
 BYTE   Gs1
 BYTE   W12
 BYTE   As1
 BYTE   W12
 BYTE   PEND 
Label_010558A9:
 BYTE   N12  Fs1  v115
 BYTE   W12
 BYTE   Cs2
 BYTE   W12
 BYTE   Fs2
 BYTE   W12
//  #02 //033   ----------------------------------------
 BYTE   En2
 BYTE   W12
 BYTE   Cn2
 BYTE   W12
 BYTE   Cs2
 BYTE   W12
 BYTE   Gs1
 BYTE   W12
 BYTE   Fs1
 BYTE   W12
 BYTE   PEND 
//  #02 //034   ----------------------------------------
 BYTE   PATT
  POIN2 Label_01055814
//  #02 //035   ----------------------------------------
 BYTE   TIE  Gn1  v115
 BYTE   W96
//  #02 //036   ----------------------------------------
 BYTE   W60
 BYTE   EOT
 BYTE   TIE  Cs1
 BYTE   W96
//  #02 //037   ----------------------------------------
 BYTE   W60
 BYTE   EOT
 BYTE   TIE  As1
 BYTE   W96
//  #02 //038   ----------------------------------------
 BYTE   W60
 BYTE   W96
//  #02 //039   ----------------------------------------
 BYTE   W60
 BYTE   EOT
 BYTE   W96
//  #02 //040   ----------------------------------------
 BYTE   W60
 BYTE   W96
//  #02 //041   ----------------------------------------
 BYTE   W60
//  #02 //042   ----------------------------------------
 BYTE   PATT
  POIN2 Label_010557AD
//  #02 //043   ----------------------------------------
 BYTE   PATT
  POIN2 Label_010557A0
//  #02 //044   ----------------------------------------
 BYTE   PATT
  POIN2 Label_010557AD
//  #02 //045   ----------------------------------------
 BYTE   N12  Gn1  v115
 BYTE   W12
 BYTE   Cn2
 BYTE   W12
 BYTE   As1
 BYTE   W12
 BYTE   Fn1
 BYTE   W12
 BYTE   GoTo
  POIN2 Label_010557D9
//  #02 //046   ----------------------------------------
 BYTE   N12  Gn1  v115
 BYTE   W12
//  #02 //047   ----------------------------------------
 BYTE   PATT
  POIN2 Label_010557AD
//  #02 //048   ----------------------------------------
 BYTE   PATT
  POIN2 Label_010557A0
//  #02 //049   ----------------------------------------
 BYTE   PATT
  POIN2 Label_010557AD
//  #02 //050   ----------------------------------------
 BYTE   PATT
  POIN2 Label_010557A0
//  #02 //051   ----------------------------------------
 BYTE   PATT
  POIN2 Label_010557AD
//  #02 //052   ----------------------------------------
 BYTE   PATT
  POIN2 Label_010557A0
//  #02 //053   ----------------------------------------
 BYTE   PATT
  POIN2 Label_010557AD
//  #02 //054   ----------------------------------------
 BYTE   PATT
  POIN2 Label_010557A0
//  #02 //055   ----------------------------------------
 BYTE   PATT
  POIN2 Label_01055801
//  #02 //056   ----------------------------------------
 BYTE   PATT
  POIN2 Label_01055814
//  #02 //057   ----------------------------------------
 BYTE   PATT
  POIN2 Label_01055801
//  #02 //058   ----------------------------------------
 BYTE   PATT
  POIN2 Label_01055814
//  #02 //059   ----------------------------------------
 BYTE   PATT
  POIN2 Label_0105582B
//  #02 //060   ----------------------------------------
 BYTE   PATT
  POIN2 Label_0105583E
//  #02 //061   ----------------------------------------
 BYTE   PATT
  POIN2 Label_0105582B
//  #02 //062   ----------------------------------------
 BYTE   PATT
  POIN2 Label_0105583E
//  #02 //063   ----------------------------------------
 BYTE   PATT
  POIN2 Label_01055855
//  #02 //064   ----------------------------------------
 BYTE   PATT
  POIN2 Label_01055868
//  #02 //065   ----------------------------------------
 BYTE   PATT
  POIN2 Label_01055855
//  #02 //066   ----------------------------------------
 BYTE   PATT
  POIN2 Label_01055868
//  #02 //067   ----------------------------------------
 BYTE   PATT
  POIN2 Label_010557AD
//  #02 //068   ----------------------------------------
 BYTE   PATT
  POIN2 Label_010557A0
//  #02 //069   ----------------------------------------
 BYTE   PATT
  POIN2 Label_01055889
//  #02 //070   ----------------------------------------
 BYTE   PATT
  POIN2 Label_0105589C
//  #02 //071   ----------------------------------------
 BYTE   PATT
  POIN2 Label_010558A9
//  #02 //072   ----------------------------------------
 BYTE   PATT
  POIN2 Label_01055814
//  #02 //073   ----------------------------------------
 BYTE   TIE  Gn1  v115
 BYTE   W96
//  #02 //074   ----------------------------------------
 BYTE   W60
 BYTE   EOT
 BYTE   TIE  Cs1
 BYTE   W96
//  #02 //075   ----------------------------------------
 BYTE   W60
 BYTE   EOT
 BYTE   TIE  As1
 BYTE   W96
//  #02 //076   ----------------------------------------
 BYTE   W60
 BYTE   W96
//  #02 //077   ----------------------------------------
 BYTE   W60
 BYTE   EOT
 BYTE   W96
//  #02 //078   ----------------------------------------
 BYTE   W60
 BYTE   W96
//  #02 //079   ----------------------------------------
 BYTE   W60
//  #02 //080   ----------------------------------------
 BYTE   PATT
  POIN2 Label_010557AD
//  #02 //081   ----------------------------------------
 BYTE   PATT
  POIN2 Label_010557A0
//  #02 //082   ----------------------------------------
 BYTE   PATT
  POIN2 Label_010557AD
//  #02 //083   ----------------------------------------
 BYTE   PATT
  POIN2 Label_010557A0
//  #02 //084   ----------------------------------------
 BYTE   PATT
  POIN2 Label_010557AD
//  #02 //085   ----------------------------------------
 BYTE   PATT
  POIN2 Label_010557A0
//  #02 //086   ----------------------------------------
 BYTE   PATT
  POIN2 Label_010557AD
//  #02 //087   ----------------------------------------
 BYTE   PATT
  POIN2 Label_010557A0
//  #02 //088   ----------------------------------------
 BYTE   PATT
  POIN2 Label_010557AD
//  #02 //089   ----------------------------------------
 BYTE   PATT
  POIN2 Label_010557A0
//  #02 //090   ----------------------------------------
 BYTE   PATT
  POIN2 Label_010557AD
//  #02 //091   ----------------------------------------
 BYTE   PATT
  POIN2 Label_010557A0
//  #02 //092   ----------------------------------------
 BYTE   PATT
  POIN2 Label_01055801
//  #02 //093   ----------------------------------------
 BYTE   PATT
  POIN2 Label_01055814
//  #02 //094   ----------------------------------------
 BYTE   PATT
  POIN2 Label_01055801
//  #02 //095   ----------------------------------------
 BYTE   PATT
  POIN2 Label_01055814
//  #02 //096   ----------------------------------------
 BYTE   PATT
  POIN2 Label_0105582B
//  #02 //097   ----------------------------------------
 BYTE   PATT
  POIN2 Label_0105583E
//  #02 //098   ----------------------------------------
 BYTE   PATT
  POIN2 Label_0105582B
//  #02 //099   ----------------------------------------
 BYTE   PATT
  POIN2 Label_0105583E
//  #02 //100   ----------------------------------------
 BYTE   PATT
  POIN2 Label_01055855
//  #02 //101   ----------------------------------------
 BYTE   PATT
  POIN2 Label_01055868
//  #02 //102   ----------------------------------------
 BYTE   PATT
  POIN2 Label_01055855
//  #02 //103   ----------------------------------------
 BYTE   PATT
  POIN2 Label_01055868
//  #02 //104   ----------------------------------------
 BYTE   PATT
  POIN2 Label_010557AD
//  #02 //105   ----------------------------------------
 BYTE   PATT
  POIN2 Label_010557A0
//  #02 //106   ----------------------------------------
 BYTE   PATT
  POIN2 Label_01055889
//  #02 //107   ----------------------------------------
 BYTE   PATT
  POIN2 Label_0105589C
//  #02 //108   ----------------------------------------
 BYTE   PATT
  POIN2 Label_010558A9
//  #02 //109   ----------------------------------------
 BYTE   PATT
  POIN2 Label_01055814
//  #02 //110   ----------------------------------------
 BYTE   TIE  Gn1  v115
 BYTE   W96
//  #02 //111   ----------------------------------------
 BYTE   W60
 BYTE   EOT
 BYTE   TIE  Cs1
 BYTE   W96
//  #02 //112   ----------------------------------------
 BYTE   W60
 BYTE   EOT
 BYTE   TIE  As1
 BYTE   W96
//  #02 //113   ----------------------------------------
 BYTE   W60
 BYTE   W96
//  #02 //114   ----------------------------------------
 BYTE   W60
 BYTE   EOT
 BYTE   W96
//  #02 //115   ----------------------------------------
 BYTE   W60
 BYTE   W96
//  #02 //116   ----------------------------------------
 BYTE   W60
//  #02 //117   ----------------------------------------
 BYTE   PATT
  POIN2 Label_010557AD
//  #02 //118   ----------------------------------------
 BYTE   PATT
  POIN2 Label_010557A0
//  #02 //119   ----------------------------------------
 BYTE   PATT
  POIN2 Label_010557AD
//  #02 //120   ----------------------------------------
 BYTE   PATT
  POIN2 Label_010557A0
 BYTE   FINE

//**************** Track 3 (Midi-Chn.2) ****************//

SuperMarioRPGWeaponsFactoryPsyche_003:
//  #03 //000   ----------------------------------------
 BYTE   KEYSH   SuperMarioRPGWeaponsFactoryPsyche_key+0
 BYTE   VOICE   24
 BYTE   VOL   60*SuperMarioRPGWeaponsFactoryPsyche_mvl/mxv
 BYTE   W96
//  #03 //001   ----------------------------------------
 BYTE   W60
 BYTE   W96
//  #03 //002   ----------------------------------------
 BYTE   W60
 BYTE   W96
//  #03 //003   ----------------------------------------
 BYTE   W60
 BYTE   W96
//  #03 //004   ----------------------------------------
 BYTE   W60
Label_5671C6:
 BYTE   W96
//  #03 //005   ----------------------------------------
 BYTE   W60
 BYTE   W96
//  #03 //006   ----------------------------------------
 BYTE   W60
 BYTE   W96
//  #03 //007   ----------------------------------------
 BYTE   W60
 BYTE   W96
//  #03 //008   ----------------------------------------
 BYTE   W60
 BYTE   W96
//  #03 //009   ----------------------------------------
 BYTE   W60
 BYTE   W96
//  #03 //010   ----------------------------------------
 BYTE   W60
 BYTE   W96
//  #03 //011   ----------------------------------------
 BYTE   W60
 BYTE   W96
//  #03 //012   ----------------------------------------
 BYTE   W60
 BYTE   W96
//  #03 //013   ----------------------------------------
 BYTE   W60
 BYTE   W96
//  #03 //014   ----------------------------------------
 BYTE   W60
 BYTE   W96
//  #03 //015   ----------------------------------------
 BYTE   W60
 BYTE   W96
//  #03 //016   ----------------------------------------
 BYTE   W60
 BYTE   W96
//  #03 //017   ----------------------------------------
 BYTE   W60
 BYTE   W96
//  #03 //018   ----------------------------------------
 BYTE   W60
 BYTE   W96
//  #03 //019   ----------------------------------------
 BYTE   W60
 BYTE   W96
//  #03 //020   ----------------------------------------
 BYTE   W60
 BYTE   W96
//  #03 //021   ----------------------------------------
 BYTE   W60
Label_5671E8:
 BYTE   N12  As1  v112
 BYTE   W12
 BYTE   Fn2
 BYTE   W12
 BYTE   As2
 BYTE   W12
//  #03 //022   ----------------------------------------
 BYTE   Gs2
 BYTE   W12
 BYTE   Ds2
 BYTE   W12
 BYTE   Fn2
 BYTE   W12
 BYTE   Cn2
 BYTE   W12
 BYTE   As1
 BYTE   W12
 BYTE   PEND 
Label_5671FB:
 BYTE   N12  Fn2  v112
 BYTE   W12
 BYTE   As2
 BYTE   W12
 BYTE   Gs2
 BYTE   W12
//  #03 //023   ----------------------------------------
 BYTE   Ds2
 BYTE   W12
 BYTE   Fn2
 BYTE   W12
 BYTE   PEND 
//  #03 //024   ----------------------------------------
 BYTE   PATT
  POIN2 Label_5671E8
//  #03 //025   ----------------------------------------
 BYTE   PATT
  POIN2 Label_5671FB
//  #03 //026   ----------------------------------------
 BYTE   W96
//  #03 //027   ----------------------------------------
 BYTE   W60
 BYTE   W96
//  #03 //028   ----------------------------------------
 BYTE   W48
 BYTE   GoTo
  POIN2 Label_5671C6
//  #03 //029   ----------------------------------------
 BYTE   W12
 BYTE   W96
//  #03 //030   ----------------------------------------
 BYTE   W60
 BYTE   W96
//  #03 //031   ----------------------------------------
 BYTE   W60
 BYTE   W96
//  #03 //032   ----------------------------------------
 BYTE   W60
 BYTE   W96
//  #03 //033   ----------------------------------------
 BYTE   W60
 BYTE   W96
//  #03 //034   ----------------------------------------
 BYTE   W60
 BYTE   W96
//  #03 //035   ----------------------------------------
 BYTE   W60
 BYTE   W96
//  #03 //036   ----------------------------------------
 BYTE   W60
 BYTE   W96
//  #03 //037   ----------------------------------------
 BYTE   W60
 BYTE   W96
//  #03 //038   ----------------------------------------
 BYTE   W60
 BYTE   W96
//  #03 //039   ----------------------------------------
 BYTE   W60
 BYTE   W96
//  #03 //040   ----------------------------------------
 BYTE   W60
 BYTE   W96
//  #03 //041   ----------------------------------------
 BYTE   W60
 BYTE   W96
//  #03 //042   ----------------------------------------
 BYTE   W60
 BYTE   W96
//  #03 //043   ----------------------------------------
 BYTE   W60
 BYTE   W96
//  #03 //044   ----------------------------------------
 BYTE   W60
 BYTE   W96
//  #03 //045   ----------------------------------------
 BYTE   W60
 BYTE   W96
//  #03 //046   ----------------------------------------
 BYTE   W60
//  #03 //047   ----------------------------------------
 BYTE   PATT
  POIN2 Label_5671E8
//  #03 //048   ----------------------------------------
 BYTE   PATT
  POIN2 Label_5671FB
//  #03 //049   ----------------------------------------
 BYTE   PATT
  POIN2 Label_5671E8
//  #03 //050   ----------------------------------------
 BYTE   PATT
  POIN2 Label_5671FB
//  #03 //051   ----------------------------------------
 BYTE   W96
//  #03 //052   ----------------------------------------
 BYTE   W60
 BYTE   W96
//  #03 //053   ----------------------------------------
 BYTE   W60
 BYTE   W96
//  #03 //054   ----------------------------------------
 BYTE   W60
 BYTE   W96
//  #03 //055   ----------------------------------------
 BYTE   W60
 BYTE   W96
//  #03 //056   ----------------------------------------
 BYTE   W60
 BYTE   W96
//  #03 //057   ----------------------------------------
 BYTE   W60
 BYTE   W96
//  #03 //058   ----------------------------------------
 BYTE   W60
 BYTE   W96
//  #03 //059   ----------------------------------------
 BYTE   W60
 BYTE   W96
//  #03 //060   ----------------------------------------
 BYTE   W60
 BYTE   W96
//  #03 //061   ----------------------------------------
 BYTE   W60
 BYTE   W96
//  #03 //062   ----------------------------------------
 BYTE   W60
 BYTE   W96
//  #03 //063   ----------------------------------------
 BYTE   W60
 BYTE   W96
//  #03 //064   ----------------------------------------
 BYTE   W60
 BYTE   W96
//  #03 //065   ----------------------------------------
 BYTE   W60
 BYTE   W96
//  #03 //066   ----------------------------------------
 BYTE   W60
 BYTE   W96
//  #03 //067   ----------------------------------------
 BYTE   W60
 BYTE   W96
//  #03 //068   ----------------------------------------
 BYTE   W60
 BYTE   W96
//  #03 //069   ----------------------------------------
 BYTE   W60
 BYTE   W96
//  #03 //070   ----------------------------------------
 BYTE   W60
//  #03 //071   ----------------------------------------
 BYTE   PATT
  POIN2 Label_5671E8
//  #03 //072   ----------------------------------------
 BYTE   PATT
  POIN2 Label_5671FB
//  #03 //073   ----------------------------------------
 BYTE   PATT
  POIN2 Label_5671E8
//  #03 //074   ----------------------------------------
 BYTE   PATT
  POIN2 Label_5671FB
//  #03 //075   ----------------------------------------
 BYTE   W96
//  #03 //076   ----------------------------------------
 BYTE   W60
 BYTE   W96
//  #03 //077   ----------------------------------------
 BYTE   W60
 BYTE   FINE

//**************** Track 4 (Midi-Chn.3) ****************//

SuperMarioRPGWeaponsFactoryPsyche_004:
//  #04 //000   ----------------------------------------
 BYTE   KEYSH   SuperMarioRPGWeaponsFactoryPsyche_key+0
 BYTE   VOICE   28
 BYTE   VOL   54*SuperMarioRPGWeaponsFactoryPsyche_mvl/mxv
 BYTE   W96
//  #04 //001   ----------------------------------------
 BYTE   W60
 BYTE   W96
//  #04 //002   ----------------------------------------
 BYTE   W60
 BYTE   W96
//  #04 //003   ----------------------------------------
 BYTE   W60
 BYTE   W96
//  #04 //004   ----------------------------------------
 BYTE   W60
Label_566C02:
 BYTE   W96
//  #04 //005   ----------------------------------------
 BYTE   W60
 BYTE   W96
//  #04 //006   ----------------------------------------
 BYTE   W60
 BYTE   W96
//  #04 //007   ----------------------------------------
 BYTE   W60
 BYTE   W96
//  #04 //008   ----------------------------------------
 BYTE   W60
 BYTE   W96
//  #04 //009   ----------------------------------------
 BYTE   W60
 BYTE   W96
//  #04 //010   ----------------------------------------
 BYTE   W60
 BYTE   W96
//  #04 //011   ----------------------------------------
 BYTE   W60
 BYTE   W96
//  #04 //012   ----------------------------------------
 BYTE   W60
 BYTE   W96
//  #04 //013   ----------------------------------------
 BYTE   W60
 BYTE   W96
//  #04 //014   ----------------------------------------
 BYTE   W60
 BYTE   W96
//  #04 //015   ----------------------------------------
 BYTE   W60
 BYTE   W96
//  #04 //016   ----------------------------------------
 BYTE   W60
 BYTE   W96
//  #04 //017   ----------------------------------------
 BYTE   W60
 BYTE   W96
//  #04 //018   ----------------------------------------
 BYTE   W60
 BYTE   W96
//  #04 //019   ----------------------------------------
 BYTE   W60
 BYTE   W96
//  #04 //020   ----------------------------------------
 BYTE   W60
 BYTE   W96
//  #04 //021   ----------------------------------------
 BYTE   W60
Label_566C24:
 BYTE   N04  As1  v112
 BYTE   N07  As2
 BYTE   W36
//  #04 //022   ----------------------------------------
 BYTE   As1
 BYTE   N07  As2
 BYTE   W24
 BYTE   As1
 BYTE   N07  As2
 BYTE   W24
 BYTE   As1
 BYTE   N07  As2
 BYTE   W12
 BYTE   PEND 
Label_566C37:
 BYTE   W24
 BYTE   N07  As1  v112
 BYTE   N07  As2
 BYTE   W24
//  #04 //023   ----------------------------------------
 BYTE   As1
 BYTE   N07  As2
 BYTE   W12
 BYTE   PEND 
//  #04 //024   ----------------------------------------
 BYTE   PATT
  POIN2 Label_566C24
//  #04 //025   ----------------------------------------
 BYTE   PATT
  POIN2 Label_566C37
//  #04 //026   ----------------------------------------
 BYTE   W96
//  #04 //027   ----------------------------------------
 BYTE   W60
 BYTE   W96
//  #04 //028   ----------------------------------------
 BYTE   W48
 BYTE   GoTo
  POIN2 Label_566C02
//  #04 //029   ----------------------------------------
 BYTE   W12
 BYTE   W96
//  #04 //030   ----------------------------------------
 BYTE   W60
 BYTE   W96
//  #04 //031   ----------------------------------------
 BYTE   W60
 BYTE   W96
//  #04 //032   ----------------------------------------
 BYTE   W60
 BYTE   W96
//  #04 //033   ----------------------------------------
 BYTE   W60
 BYTE   W96
//  #04 //034   ----------------------------------------
 BYTE   W60
 BYTE   W96
//  #04 //035   ----------------------------------------
 BYTE   W60
 BYTE   W96
//  #04 //036   ----------------------------------------
 BYTE   W60
 BYTE   W96
//  #04 //037   ----------------------------------------
 BYTE   W60
 BYTE   W96
//  #04 //038   ----------------------------------------
 BYTE   W60
 BYTE   W96
//  #04 //039   ----------------------------------------
 BYTE   W60
 BYTE   W96
//  #04 //040   ----------------------------------------
 BYTE   W60
 BYTE   W96
//  #04 //041   ----------------------------------------
 BYTE   W60
 BYTE   W96
//  #04 //042   ----------------------------------------
 BYTE   W60
 BYTE   W96
//  #04 //043   ----------------------------------------
 BYTE   W60
 BYTE   W96
//  #04 //044   ----------------------------------------
 BYTE   W60
 BYTE   W96
//  #04 //045   ----------------------------------------
 BYTE   W60
 BYTE   W96
//  #04 //046   ----------------------------------------
 BYTE   W60
//  #04 //047   ----------------------------------------
 BYTE   PATT
  POIN2 Label_566C24
//  #04 //048   ----------------------------------------
 BYTE   PATT
  POIN2 Label_566C37
//  #04 //049   ----------------------------------------
 BYTE   PATT
  POIN2 Label_566C24
//  #04 //050   ----------------------------------------
 BYTE   PATT
  POIN2 Label_566C37
//  #04 //051   ----------------------------------------
 BYTE   W96
//  #04 //052   ----------------------------------------
 BYTE   W60
 BYTE   W96
//  #04 //053   ----------------------------------------
 BYTE   W60
 BYTE   W96
//  #04 //054   ----------------------------------------
 BYTE   W60
 BYTE   W96
//  #04 //055   ----------------------------------------
 BYTE   W60
 BYTE   W96
//  #04 //056   ----------------------------------------
 BYTE   W60
 BYTE   W96
//  #04 //057   ----------------------------------------
 BYTE   W60
 BYTE   W96
//  #04 //058   ----------------------------------------
 BYTE   W60
 BYTE   W96
//  #04 //059   ----------------------------------------
 BYTE   W60
 BYTE   W96
//  #04 //060   ----------------------------------------
 BYTE   W60
 BYTE   W96
//  #04 //061   ----------------------------------------
 BYTE   W60
 BYTE   W96
//  #04 //062   ----------------------------------------
 BYTE   W60
 BYTE   W96
//  #04 //063   ----------------------------------------
 BYTE   W60
 BYTE   W96
//  #04 //064   ----------------------------------------
 BYTE   W60
 BYTE   W96
//  #04 //065   ----------------------------------------
 BYTE   W60
 BYTE   W96
//  #04 //066   ----------------------------------------
 BYTE   W60
 BYTE   W96
//  #04 //067   ----------------------------------------
 BYTE   W60
 BYTE   W96
//  #04 //068   ----------------------------------------
 BYTE   W60
 BYTE   W96
//  #04 //069   ----------------------------------------
 BYTE   W60
 BYTE   W96
//  #04 //070   ----------------------------------------
 BYTE   W60
//  #04 //071   ----------------------------------------
 BYTE   PATT
  POIN2 Label_566C24
//  #04 //072   ----------------------------------------
 BYTE   PATT
  POIN2 Label_566C37
//  #04 //073   ----------------------------------------
 BYTE   PATT
  POIN2 Label_566C24
//  #04 //074   ----------------------------------------
 BYTE   PATT
  POIN2 Label_566C37
//  #04 //075   ----------------------------------------
 BYTE   W96
//  #04 //076   ----------------------------------------
 BYTE   W60
 BYTE   W96
//  #04 //077   ----------------------------------------
 BYTE   W60
 BYTE   FINE

//**************** Track 5 (Midi-Chn.4) ****************//

SuperMarioRPGWeaponsFactoryPsyche_005:
//  #05 //000   ----------------------------------------
 BYTE   KEYSH   SuperMarioRPGWeaponsFactoryPsyche_key+0
 BYTE   VOICE   116
 BYTE   VOL   48*SuperMarioRPGWeaponsFactoryPsyche_mvl/mxv
 BYTE   W96
//  #05 //001   ----------------------------------------
 BYTE   W60
 BYTE   W96
//  #05 //002   ----------------------------------------
 BYTE   W60
Label_01055A5E:
 BYTE   N04  Gn2  v100
 BYTE   W06
 BYTE   N04
 BYTE   W06
 BYTE   N04
 BYTE   W06
 BYTE   N04
 BYTE   W06
 BYTE   N04
 BYTE   W12
//  #05 //003   ----------------------------------------
 BYTE   N04
 BYTE   W06
 BYTE   N01
 BYTE   W02
 BYTE   N01
 BYTE   W02
 BYTE   N01
 BYTE   W02
 BYTE   N04
 BYTE   W12
 BYTE   N03
 BYTE   W06
 BYTE   N03
 BYTE   W12
 BYTE   N03
 BYTE   W06
 BYTE   N03
 BYTE   W06
 BYTE   N03
 BYTE   W06
 BYTE   PEND 
Label_01055A7F:
 BYTE   N03  Gn2  v100
 BYTE   W06
 BYTE   N03
 BYTE   W06
 BYTE   N03
 BYTE   W12
 BYTE   N03
 BYTE   W06
 BYTE   N02
 BYTE   W02
 BYTE   N02
 BYTE   W02
 BYTE   N02
 BYTE   W02
//  #05 //004   ----------------------------------------
 BYTE   N03
 BYTE   W12
 BYTE   N03
 BYTE   W06
 BYTE   N03
 BYTE   W06
 BYTE   PEND 
//  #05 //005   ----------------------------------------
 BYTE   PATT
  POIN2 Label_01055A5E
//  #05 //006   ----------------------------------------
 BYTE   PATT
  POIN2 Label_01055A7F
//  #05 //007   ----------------------------------------
Label_01055AA0:
//  #05 //008   ----------------------------------------
 BYTE   PATT
  POIN2 Label_01055A5E
//  #05 //009   ----------------------------------------
 BYTE   PATT
  POIN2 Label_01055A7F
//  #05 //010   ----------------------------------------
 BYTE   PATT
  POIN2 Label_01055A5E
//  #05 //011   ----------------------------------------
 BYTE   PATT
  POIN2 Label_01055A7F
//  #05 //012   ----------------------------------------
 BYTE   PATT
  POIN2 Label_01055A5E
//  #05 //013   ----------------------------------------
 BYTE   PATT
  POIN2 Label_01055A7F
//  #05 //014   ----------------------------------------
 BYTE   PATT
  POIN2 Label_01055A5E
//  #05 //015   ----------------------------------------
 BYTE   PATT
  POIN2 Label_01055A7F
//  #05 //016   ----------------------------------------
 BYTE   PATT
  POIN2 Label_01055A5E
//  #05 //017   ----------------------------------------
 BYTE   PATT
  POIN2 Label_01055A7F
//  #05 //018   ----------------------------------------
 BYTE   PATT
  POIN2 Label_01055A5E
//  #05 //019   ----------------------------------------
 BYTE   PATT
  POIN2 Label_01055A7F
//  #05 //020   ----------------------------------------
 BYTE   PATT
  POIN2 Label_01055A5E
//  #05 //021   ----------------------------------------
 BYTE   PATT
  POIN2 Label_01055A7F
//  #05 //022   ----------------------------------------
 BYTE   PATT
  POIN2 Label_01055A5E
//  #05 //023   ----------------------------------------
 BYTE   PATT
  POIN2 Label_01055A7F
//  #05 //024   ----------------------------------------
 BYTE   PATT
  POIN2 Label_01055A5E
//  #05 //025   ----------------------------------------
 BYTE   PATT
  POIN2 Label_01055A7F
//  #05 //026   ----------------------------------------
 BYTE   PATT
  POIN2 Label_01055A5E
//  #05 //027   ----------------------------------------
 BYTE   PATT
  POIN2 Label_01055A7F
//  #05 //028   ----------------------------------------
 BYTE   PATT
  POIN2 Label_01055A5E
//  #05 //029   ----------------------------------------
 BYTE   PATT
  POIN2 Label_01055A7F
//  #05 //030   ----------------------------------------
 BYTE   PATT
  POIN2 Label_01055A5E
//  #05 //031   ----------------------------------------
 BYTE   PATT
  POIN2 Label_01055A7F
//  #05 //032   ----------------------------------------
 BYTE   PATT
  POIN2 Label_01055A5E
//  #05 //033   ----------------------------------------
 BYTE   PATT
  POIN2 Label_01055A7F
//  #05 //034   ----------------------------------------
 BYTE   PATT
  POIN2 Label_01055A5E
//  #05 //035   ----------------------------------------
 BYTE   PATT
  POIN2 Label_01055A7F
//  #05 //036   ----------------------------------------
 BYTE   PATT
  POIN2 Label_01055A5E
//  #05 //037   ----------------------------------------
 BYTE   PATT
  POIN2 Label_01055A7F
//  #05 //038   ----------------------------------------
 BYTE   PATT
  POIN2 Label_01055A5E
//  #05 //039   ----------------------------------------
 BYTE   PATT
  POIN2 Label_01055A7F
//  #05 //040   ----------------------------------------
 BYTE   PATT
  POIN2 Label_01055A5E
//  #05 //041   ----------------------------------------
 BYTE   PATT
  POIN2 Label_01055A7F
//  #05 //042   ----------------------------------------
 BYTE   W96
//  #05 //043   ----------------------------------------
 BYTE   W60
 BYTE   W96
//  #05 //044   ----------------------------------------
 BYTE   W60
//  #05 //045   ----------------------------------------
 BYTE   PATT
  POIN2 Label_01055A5E
//  #05 //046   ----------------------------------------
 BYTE   PATT
  POIN2 Label_01055A7F
//  #05 //047   ----------------------------------------
 BYTE   PATT
  POIN2 Label_01055A5E
//  #05 //048   ----------------------------------------
 BYTE   N03  Gn2  v100
 BYTE   W06
 BYTE   N03
 BYTE   W06
 BYTE   N03
 BYTE   W12
 BYTE   N03
 BYTE   W06
 BYTE   N02
 BYTE   W02
 BYTE   N02
 BYTE   W02
 BYTE   N02
 BYTE   W02
 BYTE   N03
 BYTE   W12
 BYTE   GoTo
  POIN2 Label_01055AA0
//  #05 //049   ----------------------------------------
 BYTE   N03  Gn2  v100
 BYTE   W06
 BYTE   N03
 BYTE   W06
//  #05 //050   ----------------------------------------
 BYTE   PATT
  POIN2 Label_01055A5E
//  #05 //051   ----------------------------------------
 BYTE   PATT
  POIN2 Label_01055A7F
//  #05 //052   ----------------------------------------
 BYTE   PATT
  POIN2 Label_01055A5E
//  #05 //053   ----------------------------------------
 BYTE   PATT
  POIN2 Label_01055A7F
//  #05 //054   ----------------------------------------
 BYTE   PATT
  POIN2 Label_01055A5E
//  #05 //055   ----------------------------------------
 BYTE   PATT
  POIN2 Label_01055A7F
//  #05 //056   ----------------------------------------
 BYTE   PATT
  POIN2 Label_01055A5E
//  #05 //057   ----------------------------------------
 BYTE   PATT
  POIN2 Label_01055A7F
//  #05 //058   ----------------------------------------
 BYTE   PATT
  POIN2 Label_01055A5E
//  #05 //059   ----------------------------------------
 BYTE   PATT
  POIN2 Label_01055A7F
//  #05 //060   ----------------------------------------
 BYTE   PATT
  POIN2 Label_01055A5E
//  #05 //061   ----------------------------------------
 BYTE   PATT
  POIN2 Label_01055A7F
//  #05 //062   ----------------------------------------
 BYTE   PATT
  POIN2 Label_01055A5E
//  #05 //063   ----------------------------------------
 BYTE   PATT
  POIN2 Label_01055A7F
//  #05 //064   ----------------------------------------
 BYTE   PATT
  POIN2 Label_01055A5E
//  #05 //065   ----------------------------------------
 BYTE   PATT
  POIN2 Label_01055A7F
//  #05 //066   ----------------------------------------
 BYTE   PATT
  POIN2 Label_01055A5E
//  #05 //067   ----------------------------------------
 BYTE   PATT
  POIN2 Label_01055A7F
//  #05 //068   ----------------------------------------
 BYTE   PATT
  POIN2 Label_01055A5E
//  #05 //069   ----------------------------------------
 BYTE   PATT
  POIN2 Label_01055A7F
//  #05 //070   ----------------------------------------
 BYTE   PATT
  POIN2 Label_01055A5E
//  #05 //071   ----------------------------------------
 BYTE   PATT
  POIN2 Label_01055A7F
//  #05 //072   ----------------------------------------
 BYTE   PATT
  POIN2 Label_01055A5E
//  #05 //073   ----------------------------------------
 BYTE   PATT
  POIN2 Label_01055A7F
//  #05 //074   ----------------------------------------
 BYTE   PATT
  POIN2 Label_01055A5E
//  #05 //075   ----------------------------------------
 BYTE   PATT
  POIN2 Label_01055A7F
//  #05 //076   ----------------------------------------
 BYTE   PATT
  POIN2 Label_01055A5E
//  #05 //077   ----------------------------------------
 BYTE   PATT
  POIN2 Label_01055A7F
//  #05 //078   ----------------------------------------
 BYTE   PATT
  POIN2 Label_01055A5E
//  #05 //079   ----------------------------------------
 BYTE   PATT
  POIN2 Label_01055A7F
//  #05 //080   ----------------------------------------
 BYTE   PATT
  POIN2 Label_01055A5E
//  #05 //081   ----------------------------------------
 BYTE   PATT
  POIN2 Label_01055A7F
//  #05 //082   ----------------------------------------
 BYTE   PATT
  POIN2 Label_01055A5E
//  #05 //083   ----------------------------------------
 BYTE   PATT
  POIN2 Label_01055A7F
//  #05 //084   ----------------------------------------
 BYTE   W96
//  #05 //085   ----------------------------------------
 BYTE   W60
 BYTE   W96
//  #05 //086   ----------------------------------------
 BYTE   W60
//  #05 //087   ----------------------------------------
 BYTE   PATT
  POIN2 Label_01055A5E
//  #05 //088   ----------------------------------------
 BYTE   PATT
  POIN2 Label_01055A7F
//  #05 //089   ----------------------------------------
 BYTE   PATT
  POIN2 Label_01055A5E
//  #05 //090   ----------------------------------------
 BYTE   PATT
  POIN2 Label_01055A7F
//  #05 //091   ----------------------------------------
 BYTE   PATT
  POIN2 Label_01055A5E
//  #05 //092   ----------------------------------------
 BYTE   PATT
  POIN2 Label_01055A7F
//  #05 //093   ----------------------------------------
 BYTE   PATT
  POIN2 Label_01055A5E
//  #05 //094   ----------------------------------------
 BYTE   PATT
  POIN2 Label_01055A7F
//  #05 //095   ----------------------------------------
 BYTE   PATT
  POIN2 Label_01055A5E
//  #05 //096   ----------------------------------------
 BYTE   PATT
  POIN2 Label_01055A7F
//  #05 //097   ----------------------------------------
 BYTE   PATT
  POIN2 Label_01055A5E
//  #05 //098   ----------------------------------------
 BYTE   PATT
  POIN2 Label_01055A7F
//  #05 //099   ----------------------------------------
 BYTE   PATT
  POIN2 Label_01055A5E
//  #05 //100   ----------------------------------------
 BYTE   PATT
  POIN2 Label_01055A7F
//  #05 //101   ----------------------------------------
 BYTE   PATT
  POIN2 Label_01055A5E
//  #05 //102   ----------------------------------------
 BYTE   PATT
  POIN2 Label_01055A7F
//  #05 //103   ----------------------------------------
 BYTE   PATT
  POIN2 Label_01055A5E
//  #05 //104   ----------------------------------------
 BYTE   PATT
  POIN2 Label_01055A7F
//  #05 //105   ----------------------------------------
 BYTE   PATT
  POIN2 Label_01055A5E
//  #05 //106   ----------------------------------------
 BYTE   PATT
  POIN2 Label_01055A7F
//  #05 //107   ----------------------------------------
 BYTE   PATT
  POIN2 Label_01055A5E
//  #05 //108   ----------------------------------------
 BYTE   PATT
  POIN2 Label_01055A7F
//  #05 //109   ----------------------------------------
 BYTE   PATT
  POIN2 Label_01055A5E
//  #05 //110   ----------------------------------------
 BYTE   PATT
  POIN2 Label_01055A7F
//  #05 //111   ----------------------------------------
 BYTE   PATT
  POIN2 Label_01055A5E
//  #05 //112   ----------------------------------------
 BYTE   PATT
  POIN2 Label_01055A7F
//  #05 //113   ----------------------------------------
 BYTE   PATT
  POIN2 Label_01055A5E
//  #05 //114   ----------------------------------------
 BYTE   PATT
  POIN2 Label_01055A7F
//  #05 //115   ----------------------------------------
 BYTE   PATT
  POIN2 Label_01055A5E
//  #05 //116   ----------------------------------------
 BYTE   PATT
  POIN2 Label_01055A7F
//  #05 //117   ----------------------------------------
 BYTE   PATT
  POIN2 Label_01055A5E
//  #05 //118   ----------------------------------------
 BYTE   PATT
  POIN2 Label_01055A7F
//  #05 //119   ----------------------------------------
 BYTE   PATT
  POIN2 Label_01055A5E
//  #05 //120   ----------------------------------------
 BYTE   PATT
  POIN2 Label_01055A7F
//  #05 //121   ----------------------------------------
 BYTE   PATT
  POIN2 Label_01055A5E
//  #05 //122   ----------------------------------------
 BYTE   PATT
  POIN2 Label_01055A7F
//  #05 //123   ----------------------------------------
 BYTE   PATT
  POIN2 Label_01055A5E
//  #05 //124   ----------------------------------------
 BYTE   PATT
  POIN2 Label_01055A7F
//  #05 //125   ----------------------------------------
 BYTE   W96
//  #05 //126   ----------------------------------------
 BYTE   W60
 BYTE   W96
//  #05 //127   ----------------------------------------
 BYTE   W60
//  #05 //128   ----------------------------------------
 BYTE   PATT
  POIN2 Label_01055A5E
//  #05 //129   ----------------------------------------
 BYTE   PATT
  POIN2 Label_01055A7F
//  #05 //130   ----------------------------------------
 BYTE   PATT
  POIN2 Label_01055A5E
//  #05 //131   ----------------------------------------
 BYTE   PATT
  POIN2 Label_01055A7F
 BYTE   FINE

//**************** Track 6 (Midi-Chn.5) ****************//

SuperMarioRPGWeaponsFactoryPsyche_006:
//  #06 //000   ----------------------------------------
 BYTE   KEYSH   SuperMarioRPGWeaponsFactoryPsyche_key+0
 BYTE   VOICE   14
 BYTE   VOL   31*SuperMarioRPGWeaponsFactoryPsyche_mvl/mxv
 BYTE   W96
//  #06 //001   ----------------------------------------
 BYTE   W48
 BYTE   N12  Cn3  v127
 BYTE   W12
 BYTE   W24
 BYTE   N12
 BYTE   W72
//  #06 //002   ----------------------------------------
 BYTE   W48
 BYTE   N12
 BYTE   W12
 BYTE   W24
 BYTE   N12
 BYTE   W72
//  #06 //003   ----------------------------------------
 BYTE   W48
 BYTE   N12
 BYTE   W12
 BYTE   W24
 BYTE   N12
 BYTE   W72
//  #06 //004   ----------------------------------------
 BYTE   W48
 BYTE   N12
 BYTE   W12
Label_567546:
 BYTE   W24
 BYTE   N12  Cn3  v127
 BYTE   W72
//  #06 //005   ----------------------------------------
 BYTE   W48
 BYTE   N12
 BYTE   W12
 BYTE   W24
 BYTE   N12
 BYTE   W72
//  #06 //006   ----------------------------------------
 BYTE   W48
 BYTE   N12
 BYTE   W12
 BYTE   W96
//  #06 //007   ----------------------------------------
 BYTE   W60
 BYTE   W96
//  #06 //008   ----------------------------------------
 BYTE   W60
 BYTE   W24
 BYTE   N12
 BYTE   W72
//  #06 //009   ----------------------------------------
 BYTE   W60
 BYTE   W24
 BYTE   N12
 BYTE   W72
//  #06 //010   ----------------------------------------
 BYTE   W60
 BYTE   W24
 BYTE   N12
 BYTE   W72
//  #06 //011   ----------------------------------------
 BYTE   W60
 BYTE   W24
 BYTE   N12
 BYTE   W72
//  #06 //012   ----------------------------------------
 BYTE   W60
 BYTE   W24
 BYTE   N12
 BYTE   W72
//  #06 //013   ----------------------------------------
 BYTE   W48
 BYTE   N12
 BYTE   W12
 BYTE   W24
 BYTE   N12
 BYTE   W72
//  #06 //014   ----------------------------------------
 BYTE   W48
 BYTE   N12
 BYTE   W12
 BYTE   W24
 BYTE   N12
 BYTE   W72
//  #06 //015   ----------------------------------------
 BYTE   W48
 BYTE   N12
 BYTE   W12
 BYTE   W24
 BYTE   N12
 BYTE   W72
//  #06 //016   ----------------------------------------
 BYTE   W48
 BYTE   N12
 BYTE   W12
 BYTE   W24
 BYTE   N12
 BYTE   W72
//  #06 //017   ----------------------------------------
 BYTE   W48
 BYTE   N12
 BYTE   W12
Label_567586:
 BYTE   W24
 BYTE   N10  Cn3  v127
 BYTE   W24
//  #06 //018   ----------------------------------------
 BYTE   N07
 BYTE   W12
 BYTE   N07
 BYTE   W24
 BYTE   N07
 BYTE   W12
 BYTE   PEND 
Label_567592:
 BYTE   W12
 BYTE   N07  Cn3  v127
 BYTE   W24
 BYTE   N07
 BYTE   W24
 BYTE   PEND 
//  #06 //019   ----------------------------------------
 BYTE   PATT
  POIN2 Label_567586
//  #06 //020   ----------------------------------------
 BYTE   PATT
  POIN2 Label_567592
//  #06 //021   ----------------------------------------
 BYTE   PATT
  POIN2 Label_567586
//  #06 //022   ----------------------------------------
 BYTE   PATT
  POIN2 Label_567592
//  #06 //023   ----------------------------------------
 BYTE   PATT
  POIN2 Label_567586
//  #06 //024   ----------------------------------------
 BYTE   PATT
  POIN2 Label_567592
//  #06 //025   ----------------------------------------
 BYTE   W96
//  #06 //026   ----------------------------------------
 BYTE   W60
 BYTE   W96
//  #06 //027   ----------------------------------------
 BYTE   W60
 BYTE   W24
 BYTE   N12  Cn3  v127
 BYTE   W72
//  #06 //028   ----------------------------------------
 BYTE   W48
 BYTE   N12
 BYTE   W12
 BYTE   W24
 BYTE   N12
 BYTE   W72
//  #06 //029   ----------------------------------------
 BYTE   W48
 BYTE   GoTo
  POIN2 Label_567546
//  #06 //030   ----------------------------------------
 BYTE   N12  Cn3  v127
 BYTE   W12
 BYTE   W24
 BYTE   N12
 BYTE   W72
//  #06 //031   ----------------------------------------
 BYTE   W48
 BYTE   N12
 BYTE   W12
 BYTE   W24
 BYTE   N12
 BYTE   W72
//  #06 //032   ----------------------------------------
 BYTE   W48
 BYTE   N12
 BYTE   W12
 BYTE   W96
//  #06 //033   ----------------------------------------
 BYTE   W60
 BYTE   W96
//  #06 //034   ----------------------------------------
 BYTE   W60
 BYTE   W24
 BYTE   N12
 BYTE   W72
//  #06 //035   ----------------------------------------
 BYTE   W60
 BYTE   W24
 BYTE   N12
 BYTE   W72
//  #06 //036   ----------------------------------------
 BYTE   W60
 BYTE   W24
 BYTE   N12
 BYTE   W72
//  #06 //037   ----------------------------------------
 BYTE   W60
 BYTE   W24
 BYTE   N12
 BYTE   W72
//  #06 //038   ----------------------------------------
 BYTE   W60
 BYTE   W24
 BYTE   N12
 BYTE   W72
//  #06 //039   ----------------------------------------
 BYTE   W48
 BYTE   N12
 BYTE   W12
 BYTE   W24
 BYTE   N12
 BYTE   W72
//  #06 //040   ----------------------------------------
 BYTE   W48
 BYTE   N12
 BYTE   W12
 BYTE   W24
 BYTE   N12
 BYTE   W72
//  #06 //041   ----------------------------------------
 BYTE   W48
 BYTE   N12
 BYTE   W12
 BYTE   W24
 BYTE   N12
 BYTE   W72
//  #06 //042   ----------------------------------------
 BYTE   W48
 BYTE   N12
 BYTE   W12
 BYTE   W24
 BYTE   N12
 BYTE   W72
//  #06 //043   ----------------------------------------
 BYTE   W48
 BYTE   N12
 BYTE   W12
//  #06 //044   ----------------------------------------
 BYTE   PATT
  POIN2 Label_567586
//  #06 //045   ----------------------------------------
 BYTE   PATT
  POIN2 Label_567592
//  #06 //046   ----------------------------------------
 BYTE   PATT
  POIN2 Label_567586
//  #06 //047   ----------------------------------------
 BYTE   PATT
  POIN2 Label_567592
//  #06 //048   ----------------------------------------
 BYTE   PATT
  POIN2 Label_567586
//  #06 //049   ----------------------------------------
 BYTE   PATT
  POIN2 Label_567592
//  #06 //050   ----------------------------------------
 BYTE   PATT
  POIN2 Label_567586
//  #06 //051   ----------------------------------------
 BYTE   PATT
  POIN2 Label_567592
//  #06 //052   ----------------------------------------
 BYTE   W96
//  #06 //053   ----------------------------------------
 BYTE   W60
 BYTE   W96
//  #06 //054   ----------------------------------------
 BYTE   W60
 BYTE   W24
 BYTE   N12  Cn3  v127
 BYTE   W72
//  #06 //055   ----------------------------------------
 BYTE   W48
 BYTE   N12
 BYTE   W12
 BYTE   W24
 BYTE   N12
 BYTE   W72
//  #06 //056   ----------------------------------------
 BYTE   W48
 BYTE   N12
 BYTE   W12
 BYTE   W24
 BYTE   N12
 BYTE   W72
//  #06 //057   ----------------------------------------
 BYTE   W48
 BYTE   N12
 BYTE   W12
 BYTE   W24
 BYTE   N12
 BYTE   W72
//  #06 //058   ----------------------------------------
 BYTE   W48
 BYTE   N12
 BYTE   W12
 BYTE   W96
//  #06 //059   ----------------------------------------
 BYTE   W60
 BYTE   W96
//  #06 //060   ----------------------------------------
 BYTE   W60
 BYTE   W24
 BYTE   N12
 BYTE   W72
//  #06 //061   ----------------------------------------
 BYTE   W60
 BYTE   W24
 BYTE   N12
 BYTE   W72
//  #06 //062   ----------------------------------------
 BYTE   W60
 BYTE   W24
 BYTE   N12
 BYTE   W72
//  #06 //063   ----------------------------------------
 BYTE   W60
 BYTE   W24
 BYTE   N12
 BYTE   W72
//  #06 //064   ----------------------------------------
 BYTE   W60
 BYTE   W24
 BYTE   N12
 BYTE   W72
//  #06 //065   ----------------------------------------
 BYTE   W48
 BYTE   N12
 BYTE   W12
 BYTE   W24
 BYTE   N12
 BYTE   W72
//  #06 //066   ----------------------------------------
 BYTE   W48
 BYTE   N12
 BYTE   W12
 BYTE   W24
 BYTE   N12
 BYTE   W72
//  #06 //067   ----------------------------------------
 BYTE   W48
 BYTE   N12
 BYTE   W12
 BYTE   W24
 BYTE   N12
 BYTE   W72
//  #06 //068   ----------------------------------------
 BYTE   W48
 BYTE   N12
 BYTE   W12
 BYTE   W24
 BYTE   N12
 BYTE   W72
//  #06 //069   ----------------------------------------
 BYTE   W48
 BYTE   N12
 BYTE   W12
//  #06 //070   ----------------------------------------
 BYTE   PATT
  POIN2 Label_567586
//  #06 //071   ----------------------------------------
 BYTE   PATT
  POIN2 Label_567592
//  #06 //072   ----------------------------------------
 BYTE   PATT
  POIN2 Label_567586
//  #06 //073   ----------------------------------------
 BYTE   PATT
  POIN2 Label_567592
//  #06 //074   ----------------------------------------
 BYTE   PATT
  POIN2 Label_567586
//  #06 //075   ----------------------------------------
 BYTE   PATT
  POIN2 Label_567592
//  #06 //076   ----------------------------------------
 BYTE   PATT
  POIN2 Label_567586
//  #06 //077   ----------------------------------------
 BYTE   PATT
  POIN2 Label_567592
//  #06 //078   ----------------------------------------
 BYTE   W96
//  #06 //079   ----------------------------------------
 BYTE   W60
 BYTE   W96
//  #06 //080   ----------------------------------------
 BYTE   W60
 BYTE   W24
 BYTE   N12  Cn3  v127
 BYTE   W72
//  #06 //081   ----------------------------------------
 BYTE   W48
 BYTE   N12
 BYTE   W12
 BYTE   W24
 BYTE   N12
 BYTE   W72
//  #06 //082   ----------------------------------------
 BYTE   W48
 BYTE   N12
 BYTE   W12
 BYTE   FINE

//**************** Track 7 (Midi-Chn.6) ****************//

SuperMarioRPGWeaponsFactoryPsyche_007:
//  #07 //000   ----------------------------------------
 BYTE   KEYSH   SuperMarioRPGWeaponsFactoryPsyche_key+0
 BYTE   VOICE   123
 BYTE   VOL   60*SuperMarioRPGWeaponsFactoryPsyche_mvl/mxv
 BYTE   VOL   60*SuperMarioRPGWeaponsFactoryPsyche_mvl/mxv
 BYTE   W96
//  #07 //001   ----------------------------------------
 BYTE   W60
 BYTE   W96
//  #07 //002   ----------------------------------------
 BYTE   W36
 BYTE   N04  Cn1  v112
 BYTE   W04
 BYTE   N04
 BYTE   W04
 BYTE   N04
 BYTE   W04
 BYTE   N04
 BYTE   W04
 BYTE   N04
 BYTE   W04
 BYTE   N04
 BYTE   W04
Label_01055D1A:
 BYTE   N01  Cn1  v112
 BYTE   W06
 BYTE   N04  Fs1  v088
 BYTE   W06
 BYTE   N04
 BYTE   W12
 BYTE   En1  v112
 BYTE   W12
//  #07 //003   ----------------------------------------
 BYTE   Cn1
 BYTE   N04  Fs1  v088
 BYTE   W06
 BYTE   En1  v112
 BYTE   W06
 BYTE   Fs1  v088
 BYTE   W06
 BYTE   N04
 BYTE   W06
 BYTE   Cn1  v112
 BYTE   W06
 BYTE   Fs1  v088
 BYTE   W06
 BYTE   En1  v112
 BYTE   W12
 BYTE   Cn1
 BYTE   N04  As1  v088
 BYTE   W12
 BYTE   PEND 
Label_01055D43:
 BYTE   N04  En1  v112
 BYTE   N04  Fs1  v088
 BYTE   W06
 BYTE   N04
 BYTE   W06
 BYTE   En1  v112
 BYTE   N04  Fs1  v088
 BYTE   W12
 BYTE   Cn1  v112
 BYTE   W06
 BYTE   Fs1  v088
 BYTE   W06
//  #07 //004   ----------------------------------------
 BYTE   Cn1  v112
 BYTE   W06
 BYTE   Fs1  v088
 BYTE   W06
 BYTE   En1  v112
 BYTE   N04  As1
 BYTE   W12
 BYTE   PEND 
Label_01055D64:
 BYTE   N04  Cn1  v112
 BYTE   W06
 BYTE   Fs1  v088
 BYTE   W06
 BYTE   En1  v112
 BYTE   N04  Fs1  v088
 BYTE   W12
 BYTE   En1  v112
 BYTE   W12
 BYTE   Cn1
 BYTE   N04  Fs1  v088
 BYTE   W06
 BYTE   En1  v112
 BYTE   W06
 BYTE   Fs1  v088
 BYTE   W06
 BYTE   N04
 BYTE   W06
 BYTE   Cn1  v112
 BYTE   W06
 BYTE   Fs1  v088
 BYTE   W06
//  #07 //005   ----------------------------------------
 BYTE   En1  v112
 BYTE   W12
 BYTE   Cn1
 BYTE   N04  En1
 BYTE   N04  As1  v088
 BYTE   W12
 BYTE   PEND 
Label_01055D92:
 BYTE   N04  En1  v112
 BYTE   N04  Fs1  v088
 BYTE   W06
 BYTE   N04
 BYTE   W06
 BYTE   Cn1  v112
 BYTE   N04  Fs1  v088
 BYTE   W06
 BYTE   En1  v112
 BYTE   N03  Fs1  v088
 BYTE   W03
 BYTE   N04
 BYTE   W03
 BYTE   Cn1  v112
 BYTE   W06
 BYTE   Fs1  v088
 BYTE   W06
 BYTE   Cn1  v112
 BYTE   W06
 BYTE   Fs1  v088
 BYTE   W06
 BYTE   En1  v112
 BYTE   N04  As1
 BYTE   W12
 BYTE   PEND 
Label_01055DBB:
 BYTE   N04  Cn1  v112
 BYTE   W06
 BYTE   Fs1  v088
 BYTE   W06
//  #07 //006   ----------------------------------------
 BYTE   N04
 BYTE   W12
 BYTE   En1  v112
 BYTE   W12
 BYTE   Cn1
 BYTE   N04  Fs1  v088
 BYTE   W06
 BYTE   En1  v112
 BYTE   W06
 BYTE   Fs1  v088
 BYTE   W06
 BYTE   N04
 BYTE   W06
 BYTE   Cn1  v112
 BYTE   W06
 BYTE   Fs1  v088
 BYTE   W06
 BYTE   En1  v112
 BYTE   W12
 BYTE   Cn1
 BYTE   N04  As1  v088
 BYTE   W12
 BYTE   PEND 
//  #07 //007   ----------------------------------------
 BYTE   PATT
  POIN2 Label_01055D43
//  #07 //008   ----------------------------------------
 BYTE   PATT
  POIN2 Label_01055D64
//  #07 //009   ----------------------------------------
 BYTE   PATT
  POIN2 Label_01055D92
//  #07 //010   ----------------------------------------
 BYTE   PATT
  POIN2 Label_01055DBB
//  #07 //011   ----------------------------------------
 BYTE   PATT
  POIN2 Label_01055D43
//  #07 //012   ----------------------------------------
 BYTE   PATT
  POIN2 Label_01055D64
//  #07 //013   ----------------------------------------
 BYTE   PATT
  POIN2 Label_01055D92
//  #07 //014   ----------------------------------------
 BYTE   PATT
  POIN2 Label_01055DBB
//  #07 //015   ----------------------------------------
 BYTE   PATT
  POIN2 Label_01055D43
//  #07 //016   ----------------------------------------
 BYTE   PATT
  POIN2 Label_01055D64
//  #07 //017   ----------------------------------------
 BYTE   PATT
  POIN2 Label_01055D92
//  #07 //018   ----------------------------------------
 BYTE   PATT
  POIN2 Label_01055DBB
//  #07 //019   ----------------------------------------
 BYTE   PATT
  POIN2 Label_01055D43
//  #07 //020   ----------------------------------------
 BYTE   PATT
  POIN2 Label_01055D64
//  #07 //021   ----------------------------------------
 BYTE   PATT
  POIN2 Label_01055D92
//  #07 //022   ----------------------------------------
Label_01055E2E:
 BYTE   N04  Cn1  v112
 BYTE   N04  Fs2  v088
 BYTE   W06
 BYTE   N04
 BYTE   W06
 BYTE   N04
 BYTE   W06
 BYTE   N04
 BYTE   W06
 BYTE   N04
 BYTE   W12
 BYTE   Cn1  v112
 BYTE   N04  Fs2  v088
 BYTE   W06
 BYTE   N03
 BYTE   W03
 BYTE   N03
 BYTE   W03
 BYTE   N04
 BYTE   W06
 BYTE   N04
 BYTE   W06
 BYTE   Cn1  v112
 BYTE   N04  Fs2  v088
 BYTE   W12
 BYTE   N04
 BYTE   W12
 BYTE   Cn1  v112
 BYTE   N04  Fs2  v088
 BYTE   W06
 BYTE   N04
 BYTE   W06
 BYTE   PEND 
//  #07 //023   ----------------------------------------
Label_01055E5C:
 BYTE   N04  Fs2  v088
 BYTE   W06
 BYTE   N04
 BYTE   W06
 BYTE   N04
 BYTE   W06
 BYTE   En1  v112
 BYTE   W06
 BYTE   Cn1
 BYTE   N04  En1
 BYTE   N04  Fs2  v088
 BYTE   W06
 BYTE   N04
 BYTE   W06
 BYTE   Cn1  v112
 BYTE   N04  Fs2  v088
 BYTE   W12
 BYTE   En1  v112
 BYTE   N04  Fs2  v088
 BYTE   W12
 BYTE   PEND 
//  #07 //024   ----------------------------------------
 BYTE   PATT
  POIN2 Label_01055E2E
//  #07 //025   ----------------------------------------
 BYTE   PATT
  POIN2 Label_01055E5C
//  #07 //026   ----------------------------------------
 BYTE   PATT
  POIN2 Label_01055DBB
//  #07 //027   ----------------------------------------
 BYTE   PATT
  POIN2 Label_01055D43
//  #07 //028   ----------------------------------------
 BYTE   PATT
  POIN2 Label_01055D64
//  #07 //029   ----------------------------------------
 BYTE   PATT
  POIN2 Label_01055D92
//  #07 //030   ----------------------------------------
 BYTE   PATT
  POIN2 Label_01055DBB
//  #07 //031   ----------------------------------------
 BYTE   PATT
  POIN2 Label_01055D43
//  #07 //032   ----------------------------------------
Label_01055EA5:
 BYTE   N04  Cn1  v112
 BYTE   W06
 BYTE   Fs1  v088
 BYTE   W06
 BYTE   En1  v112
 BYTE   W06
 BYTE   Cn1
 BYTE   W06
 BYTE   N04
 BYTE   N04  En1
 BYTE   W12
 BYTE   Cn1
 BYTE   N04  Fs1  v088
 BYTE   W06
 BYTE   En1  v112
 BYTE   W06
 BYTE   Cn1
 BYTE   N04  Fs1  v088
 BYTE   W06
 BYTE   Cn1  v112
 BYTE   N04  Fs1  v088
 BYTE   W06
 BYTE   Cn1  v112
 BYTE   W06
 BYTE   Fs1  v088
 BYTE   W06
 BYTE   Cn1  v112
 BYTE   N04  En1
 BYTE   W06
 BYTE   Fs1  v088
 BYTE   W06
 BYTE   Cn1  v112
 BYTE   N04  En1
 BYTE   W06
 BYTE   N02  Fs1  v088
 BYTE   W02
 BYTE   N04
 BYTE   W04
 BYTE   PEND 
//  #07 //033   ----------------------------------------
Label_01055EE2:
 BYTE   N04  Cn1  v112
 BYTE   N04  En1
 BYTE   W04
 BYTE   Cn1
 BYTE   W04
 BYTE   N04
 BYTE   W04
 BYTE   N04
 BYTE   W04
 BYTE   N04
 BYTE   N03  En1  v072
 BYTE   W04
 BYTE   N04  Cn1  v112
 BYTE   W04
 BYTE   N04
 BYTE   N04  En1
 BYTE   W06
 BYTE   Fs1  v088
 BYTE   W06
 BYTE   Cn1  v112
 BYTE   W06
 BYTE   Fs1  v088
 BYTE   W06
 BYTE   Cn1  v112
 BYTE   N04  En1
 BYTE   W06
 BYTE   Cn1
 BYTE   W06
 BYTE   PEND 
Label_01055F0C:
 BYTE   N04  Cn1  v112
 BYTE   W06
 BYTE   En1
 BYTE   N04  Fs1  v088
 BYTE   W06
 BYTE   Cn1  v112
 BYTE   W06
 BYTE   En1
 BYTE   W06
 BYTE   Cn1
 BYTE   N04  En1
 BYTE   W12
//  #07 //034   ----------------------------------------
 BYTE   Cn1
 BYTE   N04  Fs1  v088
 BYTE   W06
 BYTE   En1  v112
 BYTE   W06
 BYTE   Cn1
 BYTE   N04  Fs1  v088
 BYTE   W06
 BYTE   Cn1  v112
 BYTE   N04  En1
 BYTE   N04  Fs1  v088
 BYTE   W06
 BYTE   Cn1  v112
 BYTE   W06
 BYTE   Fs1  v088
 BYTE   W06
 BYTE   Cn1  v112
 BYTE   N04  En1
 BYTE   W06
 BYTE   Fs1  v088
 BYTE   W06
 BYTE   Cn1  v112
 BYTE   N04  En1
 BYTE   W06
 BYTE   N02  Fs1  v088
 BYTE   W02
 BYTE   N04
 BYTE   W04
 BYTE   PEND 
Label_01055F4D:
 BYTE   N04  Cn1  v112
 BYTE   N04  En1
 BYTE   W04
 BYTE   Cn1
 BYTE   W04
 BYTE   N04
 BYTE   W04
 BYTE   N04
 BYTE   N04  En1
 BYTE   W04
 BYTE   Cn1
 BYTE   W04
 BYTE   N04
 BYTE   W04
 BYTE   N04
 BYTE   W06
 BYTE   Fs1  v088
 BYTE   W06
//  #07 //035   ----------------------------------------
 BYTE   Cn1  v112
 BYTE   W06
 BYTE   Fs1  v088
 BYTE   W06
 BYTE   Cn1  v112
 BYTE   N04  En1
 BYTE   W06
 BYTE   Cn1
 BYTE   W06
 BYTE   PEND 
Label_01055F72:
 BYTE   N04  Cn1  v112
 BYTE   W06
 BYTE   Fs1  v088
 BYTE   W06
 BYTE   Cn1  v112
 BYTE   N04  En1
 BYTE   W06
 BYTE   Cn1
 BYTE   W06
 BYTE   N04
 BYTE   N04  En1
 BYTE   W12
 BYTE   Cn1
 BYTE   N04  Fs1  v088
 BYTE   W06
 BYTE   En1  v112
 BYTE   W06
 BYTE   Cn1
 BYTE   N04  Fs1  v088
 BYTE   W06
 BYTE   Cn1  v112
 BYTE   N04  Fs1  v088
 BYTE   W06
 BYTE   Cn1  v112
 BYTE   W06
 BYTE   Fs1  v088
 BYTE   W06
//  #07 //036   ----------------------------------------
 BYTE   Cn1  v112
 BYTE   N04  En1
 BYTE   W06
 BYTE   Fs1  v088
 BYTE   W06
 BYTE   Cn1  v112
 BYTE   N04  En1
 BYTE   W06
 BYTE   N02  Fs1  v088
 BYTE   W02
 BYTE   N04
 BYTE   W04
 BYTE   PEND 
Label_01055FB1:
 BYTE   N04  Cn1  v112
 BYTE   N04  En1
 BYTE   W04
 BYTE   Cn1
 BYTE   W04
 BYTE   N04
 BYTE   W04
 BYTE   N04
 BYTE   W04
 BYTE   N04
 BYTE   N04  En1
 BYTE   W04
 BYTE   Cn1
 BYTE   W04
 BYTE   N04
 BYTE   N04  En1
 BYTE   W06
 BYTE   Fs1  v088
 BYTE   W06
 BYTE   Cn1  v112
 BYTE   W06
 BYTE   Fs1  v088
 BYTE   W06
 BYTE   Cn1  v112
 BYTE   N04  En1
 BYTE   W06
 BYTE   Cn1
 BYTE   W06
 BYTE   PEND 
//  #07 //037   ----------------------------------------
 BYTE   PATT
  POIN2 Label_01055F0C
//  #07 //038   ----------------------------------------
Label_01055FDD:
 BYTE   N04  Cn1  v112
 BYTE   N04  En1
 BYTE   W04
 BYTE   Cn1
 BYTE   W04
 BYTE   N04
 BYTE   W04
 BYTE   N04
 BYTE   N04  En1
 BYTE   W04
 BYTE   Cn1
 BYTE   W04
 BYTE   N04
 BYTE   W04
 BYTE   N04
 BYTE   N04  En1
 BYTE   W06
 BYTE   Fs1  v088
 BYTE   W06
 BYTE   Cn1  v112
 BYTE   W06
 BYTE   Fs1  v088
 BYTE   W06
 BYTE   Cn1  v112
 BYTE   N04  En1
 BYTE   W06
 BYTE   Cn1
 BYTE   W06
 BYTE   PEND 
 BYTE   W96
//  #07 //039   ----------------------------------------
 BYTE   W60
 BYTE   W96
//  #07 //040   ----------------------------------------
 BYTE   W60
Label_01056008:
 BYTE   N04  Cn1  v112
 BYTE   W36
//  #07 //041   ----------------------------------------
 BYTE   N04
 BYTE   W24
 BYTE   N04
 BYTE   W24
 BYTE   N04
 BYTE   W12
 BYTE   PEND 
Label_01056013:
 BYTE   W24
 BYTE   N04  Cn1  v112
 BYTE   W12
//  #07 //042   ----------------------------------------
 BYTE   N04
 BYTE   W24
 BYTE   PEND 
//  #07 //043   ----------------------------------------
 BYTE   PATT
  POIN2 Label_01056008
//  #07 //044   ----------------------------------------
 BYTE   W18
 BYTE   N04  En1  v088
 BYTE   W06
 BYTE   Cn1  v112
 BYTE   W12
 BYTE   N04
 BYTE   N04  En1  v088
 BYTE   W04
 BYTE   Cn1
 BYTE   W04
 BYTE   N04
 BYTE   W04
 BYTE   GoTo
  POIN2 Label_01055DBB
//  #07 //045   ----------------------------------------
 BYTE   N04  Cn1  v088
 BYTE   N04  En1
 BYTE   W04
 BYTE   Cn1
 BYTE   W04
 BYTE   N04
 BYTE   N04  En1
 BYTE   W04
 BYTE   W06
 BYTE   Fs1
 BYTE   W06
 BYTE   N04
 BYTE   W12
 BYTE   En1  v112
 BYTE   W12
 BYTE   Cn1
 BYTE   N04  Fs1  v088
 BYTE   W06
 BYTE   En1  v112
 BYTE   W06
 BYTE   Fs1  v088
 BYTE   W06
 BYTE   N04
 BYTE   W06
 BYTE   Cn1  v112
 BYTE   W06
 BYTE   Fs1  v088
 BYTE   W06
 BYTE   En1  v112
 BYTE   W12
//  #07 //046   ----------------------------------------
 BYTE   Cn1
 BYTE   N04  As1  v088
 BYTE   W12
//  #07 //047   ----------------------------------------
 BYTE   PATT
  POIN2 Label_01055D43
//  #07 //048   ----------------------------------------
 BYTE   PATT
  POIN2 Label_01055D64
//  #07 //049   ----------------------------------------
 BYTE   PATT
  POIN2 Label_01055D92
//  #07 //050   ----------------------------------------
 BYTE   PATT
  POIN2 Label_01055DBB
//  #07 //051   ----------------------------------------
 BYTE   PATT
  POIN2 Label_01055D43
//  #07 //052   ----------------------------------------
 BYTE   PATT
  POIN2 Label_01055D64
//  #07 //053   ----------------------------------------
 BYTE   PATT
  POIN2 Label_01055D92
//  #07 //054   ----------------------------------------
 BYTE   PATT
  POIN2 Label_01055DBB
//  #07 //055   ----------------------------------------
 BYTE   PATT
  POIN2 Label_01055D43
//  #07 //056   ----------------------------------------
 BYTE   PATT
  POIN2 Label_01055D64
//  #07 //057   ----------------------------------------
 BYTE   PATT
  POIN2 Label_01055D92
//  #07 //058   ----------------------------------------
 BYTE   PATT
  POIN2 Label_01055DBB
//  #07 //059   ----------------------------------------
 BYTE   PATT
  POIN2 Label_01055D43
//  #07 //060   ----------------------------------------
 BYTE   PATT
  POIN2 Label_01055D64
//  #07 //061   ----------------------------------------
 BYTE   PATT
  POIN2 Label_01055D92
//  #07 //062   ----------------------------------------
 BYTE   PATT
  POIN2 Label_01055E2E
//  #07 //063   ----------------------------------------
 BYTE   PATT
  POIN2 Label_01055E5C
//  #07 //064   ----------------------------------------
 BYTE   PATT
  POIN2 Label_01055E2E
//  #07 //065   ----------------------------------------
 BYTE   PATT
  POIN2 Label_01055E5C
//  #07 //066   ----------------------------------------
 BYTE   PATT
  POIN2 Label_01055DBB
//  #07 //067   ----------------------------------------
 BYTE   PATT
  POIN2 Label_01055D43
//  #07 //068   ----------------------------------------
 BYTE   PATT
  POIN2 Label_01055D64
//  #07 //069   ----------------------------------------
 BYTE   PATT
  POIN2 Label_01055D92
//  #07 //070   ----------------------------------------
 BYTE   PATT
  POIN2 Label_01055DBB
//  #07 //071   ----------------------------------------
 BYTE   PATT
  POIN2 Label_01055D43
//  #07 //072   ----------------------------------------
 BYTE   PATT
  POIN2 Label_01055EA5
//  #07 //073   ----------------------------------------
 BYTE   PATT
  POIN2 Label_01055EE2
//  #07 //074   ----------------------------------------
 BYTE   PATT
  POIN2 Label_01055F0C
//  #07 //075   ----------------------------------------
 BYTE   PATT
  POIN2 Label_01055F4D
//  #07 //076   ----------------------------------------
 BYTE   PATT
  POIN2 Label_01055F72
//  #07 //077   ----------------------------------------
 BYTE   PATT
  POIN2 Label_01055FB1
//  #07 //078   ----------------------------------------
 BYTE   PATT
  POIN2 Label_01055F0C
//  #07 //079   ----------------------------------------
 BYTE   PATT
  POIN2 Label_01055FDD
//  #07 //080   ----------------------------------------
 BYTE   W96
//  #07 //081   ----------------------------------------
 BYTE   W60
 BYTE   W96
//  #07 //082   ----------------------------------------
 BYTE   W60
//  #07 //083   ----------------------------------------
 BYTE   PATT
  POIN2 Label_01056008
//  #07 //084   ----------------------------------------
 BYTE   PATT
  POIN2 Label_01056013
//  #07 //085   ----------------------------------------
 BYTE   PATT
  POIN2 Label_01056008
//  #07 //086   ----------------------------------------
Label_0105611D:
 BYTE   W18
 BYTE   N04  En1  v088
 BYTE   W06
 BYTE   Cn1  v112
 BYTE   W12
 BYTE   N04
 BYTE   N04  En1  v088
 BYTE   W04
 BYTE   Cn1
 BYTE   W04
 BYTE   N04
 BYTE   W04
 BYTE   N04
 BYTE   N04  En1
 BYTE   W04
 BYTE   Cn1
 BYTE   W04
 BYTE   N04
 BYTE   N04  En1
 BYTE   W04
 BYTE   PEND 
//  #07 //087   ----------------------------------------
 BYTE   PATT
  POIN2 Label_01055D1A
//  #07 //088   ----------------------------------------
 BYTE   PATT
  POIN2 Label_01055D43
//  #07 //089   ----------------------------------------
 BYTE   PATT
  POIN2 Label_01055D64
//  #07 //090   ----------------------------------------
 BYTE   PATT
  POIN2 Label_01055D92
//  #07 //091   ----------------------------------------
 BYTE   PATT
  POIN2 Label_01055DBB
//  #07 //092   ----------------------------------------
 BYTE   PATT
  POIN2 Label_01055D43
//  #07 //093   ----------------------------------------
 BYTE   PATT
  POIN2 Label_01055D64
//  #07 //094   ----------------------------------------
 BYTE   PATT
  POIN2 Label_01055D92
//  #07 //095   ----------------------------------------
 BYTE   PATT
  POIN2 Label_01055DBB
//  #07 //096   ----------------------------------------
 BYTE   PATT
  POIN2 Label_01055D43
//  #07 //097   ----------------------------------------
 BYTE   PATT
  POIN2 Label_01055D64
//  #07 //098   ----------------------------------------
 BYTE   PATT
  POIN2 Label_01055D92
//  #07 //099   ----------------------------------------
 BYTE   PATT
  POIN2 Label_01055DBB
//  #07 //100   ----------------------------------------
 BYTE   PATT
  POIN2 Label_01055D43
//  #07 //101   ----------------------------------------
 BYTE   PATT
  POIN2 Label_01055D64
//  #07 //102   ----------------------------------------
 BYTE   PATT
  POIN2 Label_01055D92
//  #07 //103   ----------------------------------------
 BYTE   PATT
  POIN2 Label_01055E2E
//  #07 //104   ----------------------------------------
 BYTE   PATT
  POIN2 Label_01055E5C
//  #07 //105   ----------------------------------------
 BYTE   PATT
  POIN2 Label_01055E2E
//  #07 //106   ----------------------------------------
 BYTE   PATT
  POIN2 Label_01055E5C
//  #07 //107   ----------------------------------------
 BYTE   PATT
  POIN2 Label_01055DBB
//  #07 //108   ----------------------------------------
 BYTE   PATT
  POIN2 Label_01055D43
//  #07 //109   ----------------------------------------
 BYTE   PATT
  POIN2 Label_01055D64
//  #07 //110   ----------------------------------------
 BYTE   PATT
  POIN2 Label_01055D92
//  #07 //111   ----------------------------------------
 BYTE   PATT
  POIN2 Label_01055DBB
//  #07 //112   ----------------------------------------
 BYTE   PATT
  POIN2 Label_01055D43
//  #07 //113   ----------------------------------------
 BYTE   PATT
  POIN2 Label_01055EA5
//  #07 //114   ----------------------------------------
 BYTE   PATT
  POIN2 Label_01055EE2
//  #07 //115   ----------------------------------------
 BYTE   PATT
  POIN2 Label_01055F0C
//  #07 //116   ----------------------------------------
 BYTE   PATT
  POIN2 Label_01055F4D
//  #07 //117   ----------------------------------------
 BYTE   PATT
  POIN2 Label_01055F72
//  #07 //118   ----------------------------------------
 BYTE   PATT
  POIN2 Label_01055FB1
//  #07 //119   ----------------------------------------
 BYTE   PATT
  POIN2 Label_01055F0C
//  #07 //120   ----------------------------------------
 BYTE   PATT
  POIN2 Label_01055FDD
//  #07 //121   ----------------------------------------
 BYTE   W96
//  #07 //122   ----------------------------------------
 BYTE   W60
 BYTE   W96
//  #07 //123   ----------------------------------------
 BYTE   W60
//  #07 //124   ----------------------------------------
 BYTE   PATT
  POIN2 Label_01056008
//  #07 //125   ----------------------------------------
 BYTE   PATT
  POIN2 Label_01056013
//  #07 //126   ----------------------------------------
 BYTE   PATT
  POIN2 Label_01056008
//  #07 //127   ----------------------------------------
 BYTE   PATT
  POIN2 Label_0105611D
 BYTE   FINE

//******************************************************//
	ALIGN 4

SuperMarioRPGWeaponsFactoryPsyche:
	BYTE	7	// NumTrks
	BYTE	0	// NumBlks
	BYTE	SuperMarioRPGWeaponsFactoryPsyche_pri	// Priority
	BYTE	SuperMarioRPGWeaponsFactoryPsyche_rev	// Reverb.
    
	POIN2	SuperMarioRPGWeaponsFactoryPsyche_grp
    
	POIN2	SuperMarioRPGWeaponsFactoryPsyche_001
	POIN2	SuperMarioRPGWeaponsFactoryPsyche_002
	POIN2	SuperMarioRPGWeaponsFactoryPsyche_003
	POIN2	SuperMarioRPGWeaponsFactoryPsyche_004
	POIN2	SuperMarioRPGWeaponsFactoryPsyche_005
	POIN2	SuperMarioRPGWeaponsFactoryPsyche_006
	POIN2	SuperMarioRPGWeaponsFactoryPsyche_007

	
