//Event file generated from Sappy .s format.
	#include "MPlayDef.event"

	#define	SuperSmashBrosBrawlYouCallthisaUtopiaMrGreen3339_grp  voicegroup000
	#define	SuperSmashBrosBrawlYouCallthisaUtopiaMrGreen3339_pri  10
	#define	SuperSmashBrosBrawlYouCallthisaUtopiaMrGreen3339_rev  128
	#define	SuperSmashBrosBrawlYouCallthisaUtopiaMrGreen3339_mvl  127
	#define	SuperSmashBrosBrawlYouCallthisaUtopiaMrGreen3339_key  0
	#define	SuperSmashBrosBrawlYouCallthisaUtopiaMrGreen3339_tbs  1
	#define	SuperSmashBrosBrawlYouCallthisaUtopiaMrGreen3339_exg  0
	#define	SuperSmashBrosBrawlYouCallthisaUtopiaMrGreen3339_cmp  1

	// .rodata
	//	SuperSmashBrosBrawlYouCallthisaUtopiaMrGreen3339
	ALIGN 4


//**************** Track 1 (Midi-Chn.0) ****************//

SuperSmashBrosBrawlYouCallthisaUtopiaMrGreen3339_001:
// 000   ----------------------------------------
 BYTE   KEYSH   SuperSmashBrosBrawlYouCallthisaUtopiaMrGreen3339_key+0
 BYTE   TEMPO   124*SuperSmashBrosBrawlYouCallthisaUtopiaMrGreen3339_tbs/2
 BYTE   VOICE   1
 BYTE   VOL   55*SuperSmashBrosBrawlYouCallthisaUtopiaMrGreen3339_mvl/mxv
 BYTE   PAN   c_v+0
 BYTE   N06  Cs4  v076
 BYTE   N06  En4
 BYTE   W18
 BYTE   N04  Cs4
 BYTE   N04  En4
 BYTE   W06
 BYTE   N20  Cs4
 BYTE   N20  En4
 BYTE   W24
 BYTE   N05  Cs4
 BYTE   N05  En4
 BYTE   W08
 BYTE   Cn4
 BYTE   N05  Ds4
 BYTE   W08
 BYTE   N05
 BYTE   N05  Fs4
 BYTE   W08
 BYTE   Cs4
 BYTE   N05  En4
 BYTE   W08
 BYTE   An3
 BYTE   N05  Cs4
 BYTE   W08
 BYTE   En3
 BYTE   N05  An3
 BYTE   W08
// 001   ----------------------------------------
 BYTE   N06  Dn3
 BYTE   N06  Fs3
 BYTE   W18
 BYTE   N04  Cs3
 BYTE   N04  En3
 BYTE   W06
 BYTE   N66  En2
 BYTE   N66  En3
 BYTE   W72
// 002   ----------------------------------------
 BYTE   W96
// 003   ----------------------------------------
 BYTE   TEMPO   124*SuperSmashBrosBrawlYouCallthisaUtopiaMrGreen3339_tbs/2
 BYTE   VOICE   1
 BYTE   W96
// 004   ----------------------------------------
Label_0_01072D08:
 BYTE   W96
// 005   ----------------------------------------
 BYTE   W96
// 006   ----------------------------------------
 BYTE   W96
// 007   ----------------------------------------
 BYTE   W96
// 008   ----------------------------------------
Label_0_01072D0C:
 BYTE   N17  En4  v076
 BYTE   N17  Gn4
 BYTE   W18
 BYTE   N05  Fs4
 BYTE   N05  An4
 BYTE   W06
 BYTE   En4
 BYTE   N05  Gn4
 BYTE   W06
 BYTE   N17  Dn4
 BYTE   N17  Fs4
 BYTE   W18
 BYTE   N06  Cn4
 BYTE   N06  En4
 BYTE   W18
 BYTE   N05  Gn3
 BYTE   N05  Cn4
 BYTE   W06
 BYTE   N20
 BYTE   N20  En4
 BYTE   W24
 BYTE   PEND 
// 009   ----------------------------------------
Label_0_01072D2F:
 BYTE   N05  Cn4  v076
 BYTE   N05  En4
 BYTE   W06
 BYTE   N17  Dn4
 BYTE   N17  Fs4
 BYTE   W18
 BYTE   N06  En4
 BYTE   N06  Gn4
 BYTE   W18
 BYTE   N05  Dn4
 BYTE   N05  Fs4
 BYTE   W06
 BYTE   N42  Cn4
 BYTE   N42  En4
 BYTE   W48
 BYTE   PEND 
// 010   ----------------------------------------
Label_0_01072D4A:
 BYTE   N40  An3  v076
 BYTE   N40  Fn4
 BYTE   W42
 BYTE   N05  Gn3
 BYTE   N05  En4
 BYTE   W06
 BYTE   N06  Fn3
 BYTE   N06  Dn4
 BYTE   W18
 BYTE   N05  En3
 BYTE   N05  Cn4
 BYTE   W06
 BYTE   N06  Ds3
 BYTE   N06  Bn3
 BYTE   W18
 BYTE   N05  En3
 BYTE   N05  Cn4
 BYTE   W06
 BYTE   PEND 
// 011   ----------------------------------------
 BYTE   N11  Ds3
 BYTE   N11  Bn3
 BYTE   W24
 BYTE   Gs3
 BYTE   N11  En4
 BYTE   W24
 BYTE   N20  Cn3
 BYTE   N20  An3
 BYTE   W48
// 012   ----------------------------------------
 BYTE   TEMPO   126*SuperSmashBrosBrawlYouCallthisaUtopiaMrGreen3339_tbs/2
 BYTE   W96
// 013   ----------------------------------------
 BYTE   W96
// 014   ----------------------------------------
 BYTE   W96
// 015   ----------------------------------------
 BYTE   W96
 BYTE   PATT
  POIN2 Label_0_01072D0C
 BYTE   PATT
  POIN2 Label_0_01072D2F
 BYTE   PATT
  POIN2 Label_0_01072D4A
// 016   ----------------------------------------
 BYTE   N11  Ds3  v076
 BYTE   N11  Bn3
 BYTE   W24
 BYTE   Gs3
 BYTE   N11  En4
 BYTE   W24
 BYTE   TEMPO   172*SuperSmashBrosBrawlYouCallthisaUtopiaMrGreen3339_tbs/2
 BYTE   N20  Cn3
 BYTE   N20  An3
 BYTE   W48
// 017   ----------------------------------------
 BYTE   W72
 BYTE   W72
// 018   ----------------------------------------
 BYTE   W72
 BYTE   W72
// 019   ----------------------------------------
 BYTE   W72
 BYTE   W72
// 020   ----------------------------------------
 BYTE   W72
 BYTE   W72
// 021   ----------------------------------------
 BYTE   W72
 BYTE   W72
// 022   ----------------------------------------
 BYTE   W72
 BYTE   W72
// 023   ----------------------------------------
 BYTE   W72
 BYTE   W72
// 024   ----------------------------------------
 BYTE   W72
 BYTE   W72
// 025   ----------------------------------------
 BYTE   W72
 BYTE   W72
// 026   ----------------------------------------
 BYTE   W72
 BYTE   N03  Gs3
 BYTE   W04
 BYTE   Bn3
 BYTE   W04
 BYTE   Dn4
 BYTE   W04
 BYTE   Fn4
 BYTE   W04
 BYTE   Gs4
 BYTE   W04
 BYTE   Bn4
 BYTE   W04
// 027   ----------------------------------------
 BYTE   TEMPO   124*SuperSmashBrosBrawlYouCallthisaUtopiaMrGreen3339_tbs/2
 BYTE   N17  Cs5
 BYTE   W18
 BYTE   N05
 BYTE   W06
 BYTE   N07
 BYTE   W08
 BYTE   N07
 BYTE   W08
 BYTE   N07
 BYTE   W08
 BYTE   N20
 BYTE   W96
// 028   ----------------------------------------
 BYTE   W96
// 029   ----------------------------------------
 BYTE   W42
 BYTE   N01  Dn3
 BYTE   W01
 BYTE   En3
 BYTE   W02
 BYTE   Fn3
 BYTE   W01
 BYTE   Gn3
 BYTE   W02
 BYTE   N17  Dn3
 BYTE   N17  Gs3
 BYTE   W18
 BYTE   N05  Bn2
 BYTE   N05  Fs3
 BYTE   W06
 BYTE   Gs2
 BYTE   N05  Fn3
 BYTE   W06
 BYTE   N11  Bn2
 BYTE   N11  Fs3
 BYTE   W12
 BYTE   N17  Dn3
 BYTE   N17  Gs3
 BYTE   W06
// 030   ----------------------------------------
 BYTE   W12
 BYTE   N11  En3
 BYTE   N11  An3
 BYTE   W12
 BYTE   N05  Fs3
 BYTE   N05  Bn3
 BYTE   W06
 BYTE   N11  Dn3
 BYTE   N11  An3
 BYTE   W12
 BYTE   N32  Cs3
 BYTE   N32  Gs3
 BYTE   W36
 BYTE   N11  Bn2
 BYTE   N11  Fn3
 BYTE   W12
 BYTE   N20  Gs2
 BYTE   N20  Cs3
 BYTE   W06
// 031   ----------------------------------------
 BYTE   W48
 BYTE   N17  Dn3
 BYTE   N17  Gs3
 BYTE   W18
 BYTE   N05  Bn2
 BYTE   N05  Fs3
 BYTE   W06
 BYTE   Gs2
 BYTE   N05  Fn3
 BYTE   W06
 BYTE   N11  Bn2
 BYTE   N11  Fs3
 BYTE   W12
 BYTE   N17  Dn3
 BYTE   N17  Gs3
 BYTE   W06
// 032   ----------------------------------------
 BYTE   W12
 BYTE   N11  En3
 BYTE   N11  An3
 BYTE   W12
 BYTE   N05  Fs3
 BYTE   N05  Bn3
 BYTE   W06
 BYTE   N11  Dn3
 BYTE   N11  An3
 BYTE   W12
 BYTE   N32  Gs3
 BYTE   N32  Cs4
 BYTE   W36
 BYTE   N11  Cs3
 BYTE   N11  Gs3
 BYTE   W12
 BYTE   N20  Bn2
 BYTE   N20  Fn3
 BYTE   W06
// 033   ----------------------------------------
 BYTE   W48
 BYTE   N17  En3
 BYTE   N17  Cs4
 BYTE   W18
 BYTE   N05  Dn3
 BYTE   N05  Bn3
 BYTE   W06
 BYTE   Cs3
 BYTE   N05  As3
 BYTE   W06
 BYTE   N11  Dn3
 BYTE   N11  Bn3
 BYTE   W12
 BYTE   N17  En3
 BYTE   N17  Cs4
 BYTE   W06
// 034   ----------------------------------------
 BYTE   W12
 BYTE   N11  Fs3
 BYTE   N11  Dn4
 BYTE   W12
 BYTE   N05  As3
 BYTE   N05  En4
 BYTE   W06
 BYTE   N11  Gn3
 BYTE   N11  Dn4
 BYTE   W12
 BYTE   Fs3
 BYTE   N11  Cs4
 BYTE   W12
 BYTE   N88  Fs3
 BYTE   N88  Dn4
 BYTE   W42
// 035   ----------------------------------------
 BYTE   W48
 BYTE   TEMPO   124*SuperSmashBrosBrawlYouCallthisaUtopiaMrGreen3339_tbs/2
 BYTE   VOICE   2
 BYTE   N06  Fn3
 BYTE   N06  Cs4
 BYTE   W18
 BYTE   N05  Fn3
 BYTE   N05  Cs4
 BYTE   W06
 BYTE   N07  Fn3
 BYTE   N07  Cs4
 BYTE   W08
 BYTE   Fn3
 BYTE   N07  Cs4
 BYTE   W08
 BYTE   Fn3
 BYTE   N07  Cs4
 BYTE   W08
// 036   ----------------------------------------
 BYTE   N06  Fn3
 BYTE   N06  Cs4
 BYTE   W48
 BYTE   VOICE   1
 BYTE   N06  Fn3
 BYTE   N06  Cs4
 BYTE   W18
 BYTE   N05  Fn3
 BYTE   N05  Cs4
 BYTE   W06
 BYTE   N07  Fn3
 BYTE   N07  Cs4
 BYTE   W08
 BYTE   Fn3
 BYTE   N07  Cs4
 BYTE   W08
 BYTE   Fn3
 BYTE   N07  Cs4
 BYTE   W08
// 037   ----------------------------------------
 BYTE   N20  Fn3
 BYTE   N20  Cs4
 BYTE   W96
// 038   ----------------------------------------
 BYTE   W96
// 039   ----------------------------------------
 BYTE   W96
// 040   ----------------------------------------
 BYTE   W48
 BYTE   TEMPO   124*SuperSmashBrosBrawlYouCallthisaUtopiaMrGreen3339_tbs/2
 BYTE   VOICE   1
 BYTE   W48
// 041   ----------------------------------------
 BYTE   W96
// 042   ----------------------------------------
 BYTE   W96
// 043   ----------------------------------------
 BYTE   W96
// 044   ----------------------------------------
 BYTE   W96
// 045   ----------------------------------------
Label_0_01072EC4:
 BYTE   W48
 BYTE   N17  En4  v076
 BYTE   N17  Gn4
 BYTE   W18
 BYTE   N05  Fs4
 BYTE   N05  An4
 BYTE   W06
 BYTE   En4
 BYTE   N05  Gn4
 BYTE   W06
 BYTE   N17  Dn4
 BYTE   N17  Fs4
 BYTE   W18
 BYTE   PEND 
// 046   ----------------------------------------
Label_0_01072EDA:
 BYTE   N06  Cn4  v076
 BYTE   N06  En4
 BYTE   W18
 BYTE   N05  Gn3
 BYTE   N05  Cn4
 BYTE   W06
 BYTE   N20
 BYTE   N20  En4
 BYTE   W24
 BYTE   N05  Cn4
 BYTE   N05  En4
 BYTE   W06
 BYTE   N17  Dn4
 BYTE   N17  Fs4
 BYTE   W18
 BYTE   N06  En4
 BYTE   N06  Gn4
 BYTE   W18
 BYTE   N05  Dn4
 BYTE   N05  Fs4
 BYTE   W06
 BYTE   PEND 
// 047   ----------------------------------------
Label_0_01072EFE:
 BYTE   N42  Cn4  v076
 BYTE   N42  En4
 BYTE   W48
 BYTE   N40  An3
 BYTE   N40  Fn4
 BYTE   W42
 BYTE   N05  Gn3
 BYTE   N05  En4
 BYTE   W06
 BYTE   PEND 
// 048   ----------------------------------------
Label_0_01072F0F:
 BYTE   N06  Fn3  v076
 BYTE   N06  Dn4
 BYTE   W18
 BYTE   N05  En3
 BYTE   N05  Cn4
 BYTE   W06
 BYTE   N06  Ds3
 BYTE   N06  Bn3
 BYTE   W18
 BYTE   N05  En3
 BYTE   N05  Cn4
 BYTE   W06
 BYTE   N11  Ds3
 BYTE   N11  Bn3
 BYTE   W24
 BYTE   Gs3
 BYTE   N11  En4
 BYTE   W24
 BYTE   PEND 
// 049   ----------------------------------------
 BYTE   N20  Cn3
 BYTE   N20  An3
 BYTE   W48
 BYTE   TEMPO   126*SuperSmashBrosBrawlYouCallthisaUtopiaMrGreen3339_tbs/2
 BYTE   W48
// 050   ----------------------------------------
 BYTE   W96
// 051   ----------------------------------------
 BYTE   W96
// 052   ----------------------------------------
 BYTE   W96
 BYTE   PATT
  POIN2 Label_0_01072EC4
 BYTE   PATT
  POIN2 Label_0_01072EDA
 BYTE   PATT
  POIN2 Label_0_01072EFE
 BYTE   PATT
  POIN2 Label_0_01072F0F
// 053   ----------------------------------------
 BYTE   TEMPO   172*SuperSmashBrosBrawlYouCallthisaUtopiaMrGreen3339_tbs/2
 BYTE   N20  Cn3  v076
 BYTE   N20  An3
 BYTE   W72
 BYTE   W72
// 054   ----------------------------------------
 BYTE   W72
 BYTE   W72
// 055   ----------------------------------------
 BYTE   W72
 BYTE   W72
// 056   ----------------------------------------
 BYTE   W72
 BYTE   W72
// 057   ----------------------------------------
 BYTE   W72
 BYTE   W72
// 058   ----------------------------------------
 BYTE   W72
 BYTE   W72
// 059   ----------------------------------------
 BYTE   W72
 BYTE   W72
// 060   ----------------------------------------
 BYTE   W72
 BYTE   W72
// 061   ----------------------------------------
 BYTE   W72
 BYTE   W72
// 062   ----------------------------------------
 BYTE   W72
 BYTE   W48
// 063   ----------------------------------------
 BYTE   N03  Gs3
 BYTE   W04
 BYTE   Bn3
 BYTE   W04
 BYTE   Dn4
 BYTE   W04
 BYTE   Fn4
 BYTE   W04
 BYTE   Gs4
 BYTE   W04
 BYTE   Bn4
 BYTE   W04
 BYTE   TEMPO   124*SuperSmashBrosBrawlYouCallthisaUtopiaMrGreen3339_tbs/2
 BYTE   N17  Cs5
 BYTE   W18
 BYTE   N05
 BYTE   W06
 BYTE   N07
 BYTE   W08
 BYTE   N07
 BYTE   W08
 BYTE   N07
 BYTE   W08
 BYTE   N20
 BYTE   W48
// 064   ----------------------------------------
 BYTE   W96
// 065   ----------------------------------------
 BYTE   W90
 BYTE   N01  Dn3
 BYTE   W01
 BYTE   En3
 BYTE   W02
 BYTE   Fn3
 BYTE   W01
 BYTE   Gn3
 BYTE   W02
// 066   ----------------------------------------
 BYTE   N17  Dn3
 BYTE   N17  Gs3
 BYTE   W18
 BYTE   N05  Bn2
 BYTE   N05  Fs3
 BYTE   W06
 BYTE   Gs2
 BYTE   N05  Fn3
 BYTE   W06
 BYTE   N11  Bn2
 BYTE   N11  Fs3
 BYTE   W12
 BYTE   N17  Dn3
 BYTE   N17  Gs3
 BYTE   W18
 BYTE   N11  En3
 BYTE   N11  An3
 BYTE   W12
 BYTE   N05  Fs3
 BYTE   N05  Bn3
 BYTE   W06
 BYTE   N11  Dn3
 BYTE   N11  An3
 BYTE   W12
 BYTE   N32  Cs3
 BYTE   N32  Gs3
 BYTE   W06
// 067   ----------------------------------------
 BYTE   W30
 BYTE   N11  Bn2
 BYTE   N11  Fn3
 BYTE   W12
 BYTE   N20  Gs2
 BYTE   N20  Cs3
 BYTE   W54
// 068   ----------------------------------------
 BYTE   N17  Dn3
 BYTE   N17  Gs3
 BYTE   W18
 BYTE   N05  Bn2
 BYTE   N05  Fs3
 BYTE   W06
 BYTE   Gs2
 BYTE   N05  Fn3
 BYTE   W06
 BYTE   N11  Bn2
 BYTE   N11  Fs3
 BYTE   W12
 BYTE   N17  Dn3
 BYTE   N17  Gs3
 BYTE   W18
 BYTE   N11  En3
 BYTE   N11  An3
 BYTE   W12
 BYTE   N05  Fs3
 BYTE   N05  Bn3
 BYTE   W06
 BYTE   N11  Dn3
 BYTE   N11  An3
 BYTE   W12
 BYTE   N32  Gs3
 BYTE   N32  Cs4
 BYTE   W06
// 069   ----------------------------------------
 BYTE   W30
 BYTE   N11  Cs3
 BYTE   N11  Gs3
 BYTE   W12
 BYTE   N20  Bn2
 BYTE   N20  Fn3
 BYTE   W54
// 070   ----------------------------------------
 BYTE   N17  En3
 BYTE   N17  Cs4
 BYTE   W18
 BYTE   N05  Dn3
 BYTE   N05  Bn3
 BYTE   W06
 BYTE   Cs3
 BYTE   N05  As3
 BYTE   W06
 BYTE   N11  Dn3
 BYTE   N11  Bn3
 BYTE   W12
 BYTE   N17  En3
 BYTE   N17  Cs4
 BYTE   W18
 BYTE   N11  Fs3
 BYTE   N11  Dn4
 BYTE   W12
 BYTE   N05  As3
 BYTE   N05  En4
 BYTE   W06
 BYTE   N11  Gn3
 BYTE   N11  Dn4
 BYTE   W12
 BYTE   Fs3
 BYTE   N11  Cs4
 BYTE   W06
// 071   ----------------------------------------
 BYTE   W06
 BYTE   N88  Fs3
 BYTE   N88  Dn4
 BYTE   W90
// 072   ----------------------------------------
 BYTE   TEMPO   124*SuperSmashBrosBrawlYouCallthisaUtopiaMrGreen3339_tbs/2
 BYTE   VOICE   2
 BYTE   N06  Fn3
 BYTE   N06  Cs4
 BYTE   W18
 BYTE   N05  Fn3
 BYTE   N05  Cs4
 BYTE   W06
 BYTE   N07  Fn3
 BYTE   N07  Cs4
 BYTE   W08
 BYTE   Fn3
 BYTE   N07  Cs4
 BYTE   W08
 BYTE   Fn3
 BYTE   N07  Cs4
 BYTE   W08
 BYTE   N06  Fn3
 BYTE   N06  Cs4
 BYTE   W48
// 073   ----------------------------------------
 BYTE   VOICE   1
 BYTE   N06  Fn3
 BYTE   N06  Cs4
 BYTE   W18
 BYTE   N05  Fn3
 BYTE   N05  Cs4
 BYTE   W06
 BYTE   N07  Fn3
 BYTE   N07  Cs4
 BYTE   W08
 BYTE   Fn3
 BYTE   N07  Cs4
 BYTE   W08
 BYTE   Fn3
 BYTE   N07  Cs4
 BYTE   W08
 BYTE   N20  Fn3
 BYTE   N20  Cs4
 BYTE   W48
// 074   ----------------------------------------
 BYTE   W96
// 075   ----------------------------------------
 BYTE   W96
// 076   ----------------------------------------
 BYTE   W96
// 077   ----------------------------------------
 BYTE   TEMPO   124*SuperSmashBrosBrawlYouCallthisaUtopiaMrGreen3339_tbs/2
 BYTE   VOICE   1
 BYTE   W96
// 078   ----------------------------------------
 BYTE   GoTo
  POIN2 Label_0_01072D08
 BYTE   FINE

//**************** Track 2 (Midi-Chn.1) ****************//

SuperSmashBrosBrawlYouCallthisaUtopiaMrGreen3339_002:
// 000   ----------------------------------------
 BYTE   KEYSH   SuperSmashBrosBrawlYouCallthisaUtopiaMrGreen3339_key+0
 BYTE   VOICE   3
 BYTE   VOL   55*SuperSmashBrosBrawlYouCallthisaUtopiaMrGreen3339_mvl/mxv
 BYTE   PAN   c_v+0
 BYTE   W96
// 001   ----------------------------------------
 BYTE   W66
 BYTE   N06  En3  v092
 BYTE   W06
 BYTE   N04  Fs3
 BYTE   W04
 BYTE   An3
 BYTE   W04
 BYTE   Bn3
 BYTE   W04
 BYTE   Cs4
 BYTE   W04
 BYTE   En4
 BYTE   W04
 BYTE   Fs4
 BYTE   W04
// 002   ----------------------------------------
 BYTE   N20  An4
 BYTE   W96
// 003   ----------------------------------------
 BYTE   VOICE   3
 BYTE   W96
// 004   ----------------------------------------
Label_1_0107309B:
 BYTE   W96
// 005   ----------------------------------------
 BYTE   W96
// 006   ----------------------------------------
 BYTE   W96
// 007   ----------------------------------------
 BYTE   W72
 BYTE   N02  Gn3  v092
 BYTE   W03
 BYTE   An3
 BYTE   W03
 BYTE   Bn3
 BYTE   W03
 BYTE   Cn4
 BYTE   W03
 BYTE   Dn4
 BYTE   W03
 BYTE   En4
 BYTE   W03
 BYTE   Fn4
 BYTE   W03
 BYTE   Gn4
 BYTE   W03
// 008   ----------------------------------------
Label_1_010730B1:
 BYTE   N17  En4  v076
 BYTE   N17  Gn4
 BYTE   W18
 BYTE   N05  Fs4
 BYTE   N05  An4
 BYTE   W06
 BYTE   En4
 BYTE   N05  Gn4
 BYTE   W06
 BYTE   N17  Dn4
 BYTE   N17  Fs4
 BYTE   W18
 BYTE   N06  Cn4
 BYTE   N06  En4
 BYTE   W18
 BYTE   N05  Gn3
 BYTE   N05  Cn4
 BYTE   W06
 BYTE   N20
 BYTE   N20  En4
 BYTE   W24
 BYTE   PEND 
// 009   ----------------------------------------
Label_1_010730D4:
 BYTE   N05  Cn4  v076
 BYTE   N05  En4
 BYTE   W06
 BYTE   N17  Dn4
 BYTE   N17  Fs4
 BYTE   W18
 BYTE   N06  En4
 BYTE   N06  Gn4
 BYTE   W18
 BYTE   N05  Dn4
 BYTE   N05  Fs4
 BYTE   W06
 BYTE   N42  Cn4
 BYTE   N42  En4
 BYTE   W48
 BYTE   PEND 
// 010   ----------------------------------------
Label_1_010730EF:
 BYTE   N40  An3  v076
 BYTE   N40  Fn4
 BYTE   W42
 BYTE   N05  Gn3
 BYTE   N05  En4
 BYTE   W06
 BYTE   N06  Fn3
 BYTE   N06  Dn4
 BYTE   W18
 BYTE   N05  En3
 BYTE   N05  Cn4
 BYTE   W06
 BYTE   N06  Ds3
 BYTE   N06  Bn3
 BYTE   W18
 BYTE   N05  En3
 BYTE   N05  Cn4
 BYTE   W06
 BYTE   PEND 
// 011   ----------------------------------------
Label_1_0107310F:
 BYTE   N11  Ds3  v076
 BYTE   N11  Bn3
 BYTE   W24
 BYTE   Gs3
 BYTE   N11  En4
 BYTE   W24
 BYTE   N20  Cn3
 BYTE   N20  An3
 BYTE   W48
 BYTE   PEND 
// 012   ----------------------------------------
 BYTE   W96
// 013   ----------------------------------------
 BYTE   W96
// 014   ----------------------------------------
 BYTE   W96
// 015   ----------------------------------------
 BYTE   W72
 BYTE   N02  Gn3
 BYTE   W03
 BYTE   An3
 BYTE   W03
 BYTE   Bn3
 BYTE   W03
 BYTE   Cn4
 BYTE   W03
 BYTE   Dn4
 BYTE   W03
 BYTE   En4
 BYTE   W03
 BYTE   Fn4
 BYTE   W03
 BYTE   Gn4
 BYTE   W03
 BYTE   PATT
  POIN2 Label_1_010730B1
 BYTE   PATT
  POIN2 Label_1_010730D4
 BYTE   PATT
  POIN2 Label_1_010730EF
 BYTE   PATT
  POIN2 Label_1_0107310F
// 016   ----------------------------------------
 BYTE   W72
 BYTE   W72
// 017   ----------------------------------------
 BYTE   W72
 BYTE   W72
// 018   ----------------------------------------
 BYTE   W72
 BYTE   W72
// 019   ----------------------------------------
 BYTE   W72
 BYTE   W72
// 020   ----------------------------------------
 BYTE   W72
 BYTE   W72
// 021   ----------------------------------------
 BYTE   W72
 BYTE   W72
// 022   ----------------------------------------
 BYTE   W72
 BYTE   W72
// 023   ----------------------------------------
 BYTE   W72
 BYTE   W72
// 024   ----------------------------------------
 BYTE   W72
 BYTE   W72
// 025   ----------------------------------------
 BYTE   W72
 BYTE   N03  Gs3  v076
 BYTE   W04
 BYTE   Bn3
 BYTE   W04
 BYTE   Dn4
 BYTE   W04
 BYTE   Fn4
 BYTE   W04
 BYTE   Gs4
 BYTE   W04
 BYTE   Bn4
 BYTE   W04
// 026   ----------------------------------------
 BYTE   N17  Cs5
 BYTE   W18
 BYTE   N05
 BYTE   W06
 BYTE   N07
 BYTE   W08
 BYTE   N07
 BYTE   W08
 BYTE   N07
 BYTE   W08
 BYTE   N20
 BYTE   W96
// 027   ----------------------------------------
 BYTE   W96
// 028   ----------------------------------------
 BYTE   W48
 BYTE   VOICE   4
 BYTE   N17  Dn3
 BYTE   N17  Gs3
 BYTE   W18
 BYTE   N05  Bn2
 BYTE   N05  Fs3
 BYTE   W06
 BYTE   Gs2
 BYTE   N05  Fn3
 BYTE   W06
 BYTE   N11  Bn2
 BYTE   N11  Fs3
 BYTE   W12
 BYTE   N17  Dn3
 BYTE   N17  Gs3
 BYTE   W06
// 029   ----------------------------------------
 BYTE   W12
 BYTE   N11  En3
 BYTE   N11  An3
 BYTE   W12
 BYTE   N05  Fs3
 BYTE   N05  Bn3
 BYTE   W06
 BYTE   N11  Dn3
 BYTE   N11  An3
 BYTE   W12
 BYTE   N32  Cs3
 BYTE   N32  Gs3
 BYTE   W36
 BYTE   N11  Bn2
 BYTE   N11  Fn3
 BYTE   W12
 BYTE   N20  Gs2
 BYTE   N20  Cs3
 BYTE   W06
// 030   ----------------------------------------
 BYTE   W48
 BYTE   N17  Dn3
 BYTE   N17  Gs3
 BYTE   W18
 BYTE   N05  Bn2
 BYTE   N05  Fs3
 BYTE   W06
 BYTE   Gs2
 BYTE   N05  Fn3
 BYTE   W06
 BYTE   N11  Bn2
 BYTE   N11  Fs3
 BYTE   W12
 BYTE   N17  Dn3
 BYTE   N17  Gs3
 BYTE   W06
// 031   ----------------------------------------
 BYTE   W12
 BYTE   N11  En3
 BYTE   N11  An3
 BYTE   W12
 BYTE   N05  Fs3
 BYTE   N05  Bn3
 BYTE   W06
 BYTE   N11  Dn3
 BYTE   N11  An3
 BYTE   W12
 BYTE   N32  Gs3
 BYTE   N32  Cs4
 BYTE   W36
 BYTE   N11  Cs3
 BYTE   N11  Gs3
 BYTE   W12
 BYTE   N20  Bn2
 BYTE   N20  Fn3
 BYTE   W06
// 032   ----------------------------------------
 BYTE   W48
 BYTE   N17  En3
 BYTE   N17  Cs4
 BYTE   W18
 BYTE   N05  Dn3
 BYTE   N05  Bn3
 BYTE   W06
 BYTE   Cs3
 BYTE   N05  As3
 BYTE   W06
 BYTE   N11  Dn3
 BYTE   N11  Bn3
 BYTE   W12
 BYTE   N17  En3
 BYTE   N17  Cs4
 BYTE   W06
// 033   ----------------------------------------
 BYTE   W12
 BYTE   N11  Fs3
 BYTE   N11  Dn4
 BYTE   W12
 BYTE   N05  As3
 BYTE   N05  En4
 BYTE   W06
 BYTE   N11  Gn3
 BYTE   N11  Dn4
 BYTE   W12
 BYTE   Fs3
 BYTE   N11  Cs4
 BYTE   W12
 BYTE   N88  Fs3
 BYTE   N88  Dn4
 BYTE   W42
// 034   ----------------------------------------
 BYTE   W48
 BYTE   VOICE   3
 BYTE   N06  Fn3
 BYTE   N06  Cs4
 BYTE   W18
 BYTE   N05  Fn3
 BYTE   N05  Cs4
 BYTE   W06
 BYTE   N07  Fn3
 BYTE   N07  Cs4
 BYTE   W08
 BYTE   Fn3
 BYTE   N07  Cs4
 BYTE   W08
 BYTE   Fn3
 BYTE   N07  Cs4
 BYTE   W08
// 035   ----------------------------------------
 BYTE   N06  Fn3
 BYTE   N06  Cs4
 BYTE   W48
 BYTE   VOICE   4
 BYTE   N06  Fn2
 BYTE   N06  Cs3
 BYTE   W18
 BYTE   N05  Fn2
 BYTE   N05  Cs3
 BYTE   W06
 BYTE   N07  Fn2
 BYTE   N07  Cs3
 BYTE   W08
 BYTE   Fn2
 BYTE   N07  Cs3
 BYTE   W08
 BYTE   Fn2
 BYTE   N07  Cs3
 BYTE   W08
// 036   ----------------------------------------
 BYTE   N20  Fn2
 BYTE   N20  Cs3
 BYTE   W96
// 037   ----------------------------------------
 BYTE   W96
// 038   ----------------------------------------
 BYTE   W96
// 039   ----------------------------------------
 BYTE   W48
 BYTE   VOICE   3
 BYTE   W48
// 040   ----------------------------------------
 BYTE   W96
// 041   ----------------------------------------
 BYTE   W96
// 042   ----------------------------------------
 BYTE   W96
// 043   ----------------------------------------
 BYTE   W96
// 044   ----------------------------------------
 BYTE   W24
 BYTE   N02  Gn3  v092
 BYTE   W03
 BYTE   An3
 BYTE   W03
 BYTE   Bn3
 BYTE   W03
 BYTE   Cn4
 BYTE   W03
 BYTE   Dn4
 BYTE   W03
 BYTE   En4
 BYTE   W03
 BYTE   Fn4
 BYTE   W03
 BYTE   Gn4
 BYTE   W03
 BYTE   N17  En4  v076
 BYTE   N17  Gn4
 BYTE   W18
 BYTE   N05  Fs4
 BYTE   N05  An4
 BYTE   W06
 BYTE   En4
 BYTE   N05  Gn4
 BYTE   W06
 BYTE   N17  Dn4
 BYTE   N17  Fs4
 BYTE   W18
// 045   ----------------------------------------
Label_1_01073289:
 BYTE   N06  Cn4  v076
 BYTE   N06  En4
 BYTE   W18
 BYTE   N05  Gn3
 BYTE   N05  Cn4
 BYTE   W06
 BYTE   N20
 BYTE   N20  En4
 BYTE   W24
 BYTE   N05  Cn4
 BYTE   N05  En4
 BYTE   W06
 BYTE   N17  Dn4
 BYTE   N17  Fs4
 BYTE   W18
 BYTE   N06  En4
 BYTE   N06  Gn4
 BYTE   W18
 BYTE   N05  Dn4
 BYTE   N05  Fs4
 BYTE   W06
 BYTE   PEND 
// 046   ----------------------------------------
Label_1_010732AD:
 BYTE   N42  Cn4  v076
 BYTE   N42  En4
 BYTE   W48
 BYTE   N40  An3
 BYTE   N40  Fn4
 BYTE   W42
 BYTE   N05  Gn3
 BYTE   N05  En4
 BYTE   W06
 BYTE   PEND 
// 047   ----------------------------------------
Label_1_010732BE:
 BYTE   N06  Fn3  v076
 BYTE   N06  Dn4
 BYTE   W18
 BYTE   N05  En3
 BYTE   N05  Cn4
 BYTE   W06
 BYTE   N06  Ds3
 BYTE   N06  Bn3
 BYTE   W18
 BYTE   N05  En3
 BYTE   N05  Cn4
 BYTE   W06
 BYTE   N11  Ds3
 BYTE   N11  Bn3
 BYTE   W24
 BYTE   Gs3
 BYTE   N11  En4
 BYTE   W24
 BYTE   PEND 
// 048   ----------------------------------------
 BYTE   N20  Cn3
 BYTE   N20  An3
 BYTE   W96
// 049   ----------------------------------------
 BYTE   W96
// 050   ----------------------------------------
 BYTE   W96
// 051   ----------------------------------------
 BYTE   W96
// 052   ----------------------------------------
 BYTE   W24
 BYTE   N02  Gn3
 BYTE   W03
 BYTE   An3
 BYTE   W03
 BYTE   Bn3
 BYTE   W03
 BYTE   Cn4
 BYTE   W03
 BYTE   Dn4
 BYTE   W03
 BYTE   En4
 BYTE   W03
 BYTE   Fn4
 BYTE   W03
 BYTE   Gn4
 BYTE   W03
 BYTE   N17  En4
 BYTE   N17  Gn4
 BYTE   W18
 BYTE   N05  Fs4
 BYTE   N05  An4
 BYTE   W06
 BYTE   En4
 BYTE   N05  Gn4
 BYTE   W06
 BYTE   N17  Dn4
 BYTE   N17  Fs4
 BYTE   W18
 BYTE   PATT
  POIN2 Label_1_01073289
 BYTE   PATT
  POIN2 Label_1_010732AD
 BYTE   PATT
  POIN2 Label_1_010732BE
// 053   ----------------------------------------
 BYTE   N20  Cn3  v076
 BYTE   N20  An3
 BYTE   W72
 BYTE   W72
// 054   ----------------------------------------
 BYTE   W72
 BYTE   W72
// 055   ----------------------------------------
 BYTE   W72
 BYTE   W72
// 056   ----------------------------------------
 BYTE   W72
 BYTE   W72
// 057   ----------------------------------------
 BYTE   W72
 BYTE   W72
// 058   ----------------------------------------
 BYTE   W72
 BYTE   W72
// 059   ----------------------------------------
 BYTE   W72
 BYTE   W72
// 060   ----------------------------------------
 BYTE   W72
 BYTE   W72
// 061   ----------------------------------------
 BYTE   W72
 BYTE   W72
// 062   ----------------------------------------
 BYTE   W72
 BYTE   W48
// 063   ----------------------------------------
 BYTE   N03  Gs3
 BYTE   W04
 BYTE   Bn3
 BYTE   W04
 BYTE   Dn4
 BYTE   W04
 BYTE   Fn4
 BYTE   W04
 BYTE   Gs4
 BYTE   W04
 BYTE   Bn4
 BYTE   W04
 BYTE   N17  Cs5
 BYTE   W18
 BYTE   N05
 BYTE   W06
 BYTE   N07
 BYTE   W08
 BYTE   N07
 BYTE   W08
 BYTE   N07
 BYTE   W08
 BYTE   N20
 BYTE   W48
// 064   ----------------------------------------
 BYTE   W96
// 065   ----------------------------------------
 BYTE   W96
// 066   ----------------------------------------
 BYTE   VOICE   4
 BYTE   N17  Dn3
 BYTE   N17  Gs3
 BYTE   W18
 BYTE   N05  Bn2
 BYTE   N05  Fs3
 BYTE   W06
 BYTE   Gs2
 BYTE   N05  Fn3
 BYTE   W06
 BYTE   N11  Bn2
 BYTE   N11  Fs3
 BYTE   W12
 BYTE   N17  Dn3
 BYTE   N17  Gs3
 BYTE   W18
 BYTE   N11  En3
 BYTE   N11  An3
 BYTE   W12
 BYTE   N05  Fs3
 BYTE   N05  Bn3
 BYTE   W06
 BYTE   N11  Dn3
 BYTE   N11  An3
 BYTE   W12
 BYTE   N32  Cs3
 BYTE   N32  Gs3
 BYTE   W06
// 067   ----------------------------------------
 BYTE   W30
 BYTE   N11  Bn2
 BYTE   N11  Fn3
 BYTE   W12
 BYTE   N20  Gs2
 BYTE   N20  Cs3
 BYTE   W54
// 068   ----------------------------------------
 BYTE   N17  Dn3
 BYTE   N17  Gs3
 BYTE   W18
 BYTE   N05  Bn2
 BYTE   N05  Fs3
 BYTE   W06
 BYTE   Gs2
 BYTE   N05  Fn3
 BYTE   W06
 BYTE   N11  Bn2
 BYTE   N11  Fs3
 BYTE   W12
 BYTE   N17  Dn3
 BYTE   N17  Gs3
 BYTE   W18
 BYTE   N11  En3
 BYTE   N11  An3
 BYTE   W12
 BYTE   N05  Fs3
 BYTE   N05  Bn3
 BYTE   W06
 BYTE   N11  Dn3
 BYTE   N11  An3
 BYTE   W12
 BYTE   N32  Gs3
 BYTE   N32  Cs4
 BYTE   W06
// 069   ----------------------------------------
 BYTE   W30
 BYTE   N11  Cs3
 BYTE   N11  Gs3
 BYTE   W12
 BYTE   N20  Bn2
 BYTE   N20  Fn3
 BYTE   W54
// 070   ----------------------------------------
 BYTE   N17  En3
 BYTE   N17  Cs4
 BYTE   W18
 BYTE   N05  Dn3
 BYTE   N05  Bn3
 BYTE   W06
 BYTE   Cs3
 BYTE   N05  As3
 BYTE   W06
 BYTE   N11  Dn3
 BYTE   N11  Bn3
 BYTE   W12
 BYTE   N17  En3
 BYTE   N17  Cs4
 BYTE   W18
 BYTE   N11  Fs3
 BYTE   N11  Dn4
 BYTE   W12
 BYTE   N05  As3
 BYTE   N05  En4
 BYTE   W06
 BYTE   N11  Gn3
 BYTE   N11  Dn4
 BYTE   W12
 BYTE   Fs3
 BYTE   N11  Cs4
 BYTE   W06
// 071   ----------------------------------------
 BYTE   W06
 BYTE   N88  Fs3
 BYTE   N88  Dn4
 BYTE   W90
// 072   ----------------------------------------
 BYTE   VOICE   3
 BYTE   N06  Fn3
 BYTE   N06  Cs4
 BYTE   W18
 BYTE   N05  Fn3
 BYTE   N05  Cs4
 BYTE   W06
 BYTE   N07  Fn3
 BYTE   N07  Cs4
 BYTE   W08
 BYTE   Fn3
 BYTE   N07  Cs4
 BYTE   W08
 BYTE   Fn3
 BYTE   N07  Cs4
 BYTE   W08
 BYTE   N06  Fn3
 BYTE   N06  Cs4
 BYTE   W48
// 073   ----------------------------------------
 BYTE   VOICE   4
 BYTE   N06  Fn2
 BYTE   N06  Cs3
 BYTE   W18
 BYTE   N05  Fn2
 BYTE   N05  Cs3
 BYTE   W06
 BYTE   N07  Fn2
 BYTE   N07  Cs3
 BYTE   W08
 BYTE   Fn2
 BYTE   N07  Cs3
 BYTE   W08
 BYTE   Fn2
 BYTE   N07  Cs3
 BYTE   W08
 BYTE   N20  Fn2
 BYTE   N20  Cs3
 BYTE   W48
// 074   ----------------------------------------
 BYTE   W96
// 075   ----------------------------------------
 BYTE   W96
// 076   ----------------------------------------
 BYTE   W96
// 077   ----------------------------------------
 BYTE   VOICE   3
 BYTE   W96
// 078   ----------------------------------------
 BYTE   GoTo
  POIN2 Label_1_0107309B
 BYTE   FINE

//**************** Track 3 (Midi-Chn.2) ****************//

SuperSmashBrosBrawlYouCallthisaUtopiaMrGreen3339_003:
// 000   ----------------------------------------
 BYTE   KEYSH   SuperSmashBrosBrawlYouCallthisaUtopiaMrGreen3339_key+0
 BYTE   VOICE   5
 BYTE   VOL   55*SuperSmashBrosBrawlYouCallthisaUtopiaMrGreen3339_mvl/mxv
 BYTE   PAN   c_v+0
 BYTE   W24
 BYTE   N24  An1  v060
 BYTE   W24
 BYTE   Bn1
 BYTE   W24
 BYTE   Cs2
 BYTE   W24
// 001   ----------------------------------------
 BYTE   N90  En2
 BYTE   W96
// 002   ----------------------------------------
 BYTE   W96
// 003   ----------------------------------------
 BYTE   VOICE   5
 BYTE   W96
// 004   ----------------------------------------
Label_2_0107344F:
 BYTE   W60
 BYTE   N32  En1  v060
 BYTE   W36
// 005   ----------------------------------------
 BYTE   W60
 BYTE   N32
 BYTE   W36
// 006   ----------------------------------------
 BYTE   W60
 BYTE   N32
 BYTE   W36
// 007   ----------------------------------------
 BYTE   W60
 BYTE   N32
 BYTE   W36
// 008   ----------------------------------------
 BYTE   W96
// 009   ----------------------------------------
 BYTE   W96
// 010   ----------------------------------------
 BYTE   W96
// 011   ----------------------------------------
 BYTE   W96
// 012   ----------------------------------------
 BYTE   N90  An1
 BYTE   N90  Cn2
 BYTE   W96
// 013   ----------------------------------------
 BYTE   An1
 BYTE   N90  Cn2
 BYTE   W96
// 014   ----------------------------------------
 BYTE   N90
 BYTE   N90  En2
 BYTE   W96
// 015   ----------------------------------------
 BYTE   Cn2
 BYTE   N90  En2
 BYTE   W96
// 016   ----------------------------------------
 BYTE   W96
// 017   ----------------------------------------
 BYTE   W96
// 018   ----------------------------------------
 BYTE   W96
// 019   ----------------------------------------
 BYTE   W48
 BYTE   VOICE   6
 BYTE   N20  An0  v076
 BYTE   W48
// 020   ----------------------------------------
 BYTE   W24
 BYTE   An1
 BYTE   W48
 BYTE   W24
// 021   ----------------------------------------
 BYTE   An0
 BYTE   W48
 BYTE   W24
 BYTE   An1
 BYTE   W48
// 022   ----------------------------------------
 BYTE   W24
 BYTE   An0
 BYTE   W48
 BYTE   W24
// 023   ----------------------------------------
 BYTE   An1
 BYTE   W48
 BYTE   W24
 BYTE   An0
 BYTE   W48
// 024   ----------------------------------------
 BYTE   W24
 BYTE   An1
 BYTE   W48
 BYTE   W24
// 025   ----------------------------------------
 BYTE   An0
 BYTE   W48
 BYTE   W24
 BYTE   An1
 BYTE   W48
// 026   ----------------------------------------
 BYTE   W24
 BYTE   An0
 BYTE   W48
 BYTE   W24
// 027   ----------------------------------------
 BYTE   An1
 BYTE   W24
 BYTE   Gs1
 BYTE   W24
 BYTE   Fs1
 BYTE   W24
 BYTE   En1
 BYTE   W48
// 028   ----------------------------------------
 BYTE   W24
 BYTE   En2
 BYTE   W48
 BYTE   W24
// 029   ----------------------------------------
 BYTE   En1
 BYTE   W48
 BYTE   W24
 BYTE   En2
 BYTE   W48
// 030   ----------------------------------------
 BYTE   W24
 BYTE   En1
 BYTE   W48
 BYTE   W24
// 031   ----------------------------------------
 BYTE   N20
 BYTE   W24
 BYTE   Fs1
 BYTE   W24
 BYTE   Gs1
 BYTE   W24
 BYTE   An1
 BYTE   W48
// 032   ----------------------------------------
 BYTE   W24
 BYTE   Gs1
 BYTE   W48
 BYTE   W72
// 033   ----------------------------------------
 BYTE   W96
// 034   ----------------------------------------
 BYTE   W06
 BYTE   VOICE   0
 BYTE   N17  GnM2
 BYTE   W18
 BYTE   N20  GsM2
 BYTE   W32
 BYTE   W01
 BYTE   N05  AnM2  v060
 BYTE   W06
 BYTE   N66  AsM2
 BYTE   W32
 BYTE   W01
// 035   ----------------------------------------
 BYTE   W96
// 036   ----------------------------------------
 BYTE   W96
// 037   ----------------------------------------
 BYTE   W96
// 038   ----------------------------------------
 BYTE   W96
// 039   ----------------------------------------
 BYTE   VOICE   2
 BYTE   N05  BnM2
 BYTE   W06
 BYTE   CnM1
 BYTE   W06
 BYTE   N32  AsM2
 BYTE   W84
// 040   ----------------------------------------
 BYTE   W96
// 041   ----------------------------------------
 BYTE   W96
// 042   ----------------------------------------
 BYTE   W96
// 043   ----------------------------------------
 BYTE   W96
// 044   ----------------------------------------
 BYTE   W96
// 045   ----------------------------------------
 BYTE   W96
// 046   ----------------------------------------
 BYTE   W48
 BYTE   VOICE   5
 BYTE   W48
// 047   ----------------------------------------
 BYTE   W96
// 048   ----------------------------------------
 BYTE   W12
 BYTE   N32  AnM2
 BYTE   W84
// 049   ----------------------------------------
 BYTE   W12
 BYTE   N32
 BYTE   W84
// 050   ----------------------------------------
 BYTE   W12
 BYTE   N32
 BYTE   W84
// 051   ----------------------------------------
 BYTE   W12
 BYTE   N32
 BYTE   W84
// 052   ----------------------------------------
 BYTE   W96
// 053   ----------------------------------------
 BYTE   W96
// 054   ----------------------------------------
 BYTE   W96
// 055   ----------------------------------------
Label_2_010734F8:
 BYTE   W48
 BYTE   N90  CsM1  v060
 BYTE   N90  DnM1
 BYTE   W48
 BYTE   PEND 
 BYTE   PATT
  POIN2 Label_2_010734F8
// 056   ----------------------------------------
Label_2_01073505:
 BYTE   W48
 BYTE   N90  DnM1  v060
 BYTE   N90  DsM1
 BYTE   W48
 BYTE   PEND 
 BYTE   PATT
  POIN2 Label_2_01073505
// 057   ----------------------------------------
 BYTE   W96
// 058   ----------------------------------------
 BYTE   W96
// 059   ----------------------------------------
 BYTE   W96
// 060   ----------------------------------------
 BYTE   W96
// 061   ----------------------------------------
 BYTE   VOICE   6
 BYTE   N20  EnM1  v076
 BYTE   W72
 BYTE   CsM1
 BYTE   W72
// 062   ----------------------------------------
 BYTE   EnM1
 BYTE   W72
 BYTE   CsM1
 BYTE   W72
// 063   ----------------------------------------
 BYTE   EnM1
 BYTE   W72
 BYTE   CsM1
 BYTE   W72
// 064   ----------------------------------------
 BYTE   EnM1
 BYTE   W72
 BYTE   CsM1
 BYTE   W72
// 065   ----------------------------------------
 BYTE   EnM1
 BYTE   W72
 BYTE   CsM1
 BYTE   W72
// 066   ----------------------------------------
 BYTE   EnM1
 BYTE   W72
 BYTE   CsM1
 BYTE   W24
// 067   ----------------------------------------
 BYTE   BnM2
 BYTE   W24
 BYTE   CnM1
 BYTE   W24
 BYTE   AnM2
 BYTE   W72
// 068   ----------------------------------------
 BYTE   DsM1
 BYTE   W72
 BYTE   AnM2
 BYTE   W72
// 069   ----------------------------------------
 BYTE   DsM1
 BYTE   W72
 BYTE   AnM2
 BYTE   W72
// 070   ----------------------------------------
 BYTE   N20
 BYTE   W24
 BYTE   CnM1
 BYTE   W24
 BYTE   BnM2
 BYTE   W24
 BYTE   CsM1
 BYTE   W72
// 071   ----------------------------------------
 BYTE   BnM2
 BYTE   W72
 BYTE   W96
// 072   ----------------------------------------
 BYTE   W54
 BYTE   VOICE   0
 BYTE   N17  GnM2
 BYTE   W18
 BYTE   N20  GsM2
 BYTE   W24
// 073   ----------------------------------------
 BYTE   W09
 BYTE   N05  AnM2  v060
 BYTE   W06
 BYTE   N66  AsM2
 BYTE   W80
 BYTE   W01
// 074   ----------------------------------------
 BYTE   W96
// 075   ----------------------------------------
 BYTE   W96
// 076   ----------------------------------------
 BYTE   W96
// 077   ----------------------------------------
 BYTE   W48
 BYTE   VOICE   2
 BYTE   N05  BnM2
 BYTE   W06
 BYTE   CnM1
 BYTE   W06
 BYTE   N32  AsM2
 BYTE   W36
// 078   ----------------------------------------
 BYTE   W96
// 079   ----------------------------------------
 BYTE   W96
// 080   ----------------------------------------
 BYTE   W96
// 081   ----------------------------------------
 BYTE   W96
// 082   ----------------------------------------
 BYTE   W96
// 083   ----------------------------------------
 BYTE   W96
// 084   ----------------------------------------
 BYTE   W96
// 085   ----------------------------------------
 BYTE   VOICE   5
 BYTE   W96
// 086   ----------------------------------------
 BYTE   GoTo
  POIN2 Label_2_0107344F
 BYTE   FINE

//**************** Track 4 (Midi-Chn.3) ****************//

SuperSmashBrosBrawlYouCallthisaUtopiaMrGreen3339_004:
// 000   ----------------------------------------
 BYTE   KEYSH   SuperSmashBrosBrawlYouCallthisaUtopiaMrGreen3339_key+0
 BYTE   VOICE   3
 BYTE   VOL   55*SuperSmashBrosBrawlYouCallthisaUtopiaMrGreen3339_mvl/mxv
 BYTE   PAN   c_v+0
 BYTE   W24
 BYTE   N96  An1  v076
 BYTE   W72
// 001   ----------------------------------------
 BYTE   W24
 BYTE   N66  En1
 BYTE   N66  Bn1
 BYTE   W72
// 002   ----------------------------------------
 BYTE   W96
// 003   ----------------------------------------
 BYTE   VOICE   3
 BYTE   W96
// 004   ----------------------------------------
Label_3_01073592:
 BYTE   W60
 BYTE   N32  En1  v076
 BYTE   W36
// 005   ----------------------------------------
 BYTE   W60
 BYTE   N32
 BYTE   W36
// 006   ----------------------------------------
 BYTE   W60
 BYTE   N32
 BYTE   W36
// 007   ----------------------------------------
 BYTE   W60
 BYTE   N32
 BYTE   W36
// 008   ----------------------------------------
 BYTE   W96
// 009   ----------------------------------------
 BYTE   W96
// 010   ----------------------------------------
 BYTE   W96
// 011   ----------------------------------------
 BYTE   W72
 BYTE   N20
 BYTE   W24
// 012   ----------------------------------------
 BYTE   N90  An1  v060
 BYTE   N90  Cn2
 BYTE   W96
// 013   ----------------------------------------
 BYTE   An1
 BYTE   N90  Cn2
 BYTE   W96
// 014   ----------------------------------------
 BYTE   N90
 BYTE   N90  En2
 BYTE   W96
// 015   ----------------------------------------
 BYTE   Cn2
 BYTE   N90  En2
 BYTE   W96
// 016   ----------------------------------------
 BYTE   W96
// 017   ----------------------------------------
 BYTE   W96
// 018   ----------------------------------------
 BYTE   W96
// 019   ----------------------------------------
 BYTE   W96
// 020   ----------------------------------------
 BYTE   W72
 BYTE   W72
// 021   ----------------------------------------
 BYTE   W72
 BYTE   W72
// 022   ----------------------------------------
 BYTE   W72
 BYTE   W72
// 023   ----------------------------------------
 BYTE   W72
 BYTE   W72
// 024   ----------------------------------------
 BYTE   W72
 BYTE   W72
// 025   ----------------------------------------
 BYTE   W72
 BYTE   W24
// 026   ----------------------------------------
 BYTE   TIE  En1  v048
 BYTE   TIE  En2
 BYTE   W48
 BYTE   W72
// 027   ----------------------------------------
 BYTE   W72
 BYTE   W72
// 028   ----------------------------------------
 BYTE   W18
 BYTE   EOT
 BYTE   En1  v052
 BYTE   W54
 BYTE   W72
// 029   ----------------------------------------
 BYTE   W72
 BYTE   W72
// 030   ----------------------------------------
 BYTE   W72
 BYTE   W96
// 031   ----------------------------------------
 BYTE   W96
// 032   ----------------------------------------
 BYTE   W96
// 033   ----------------------------------------
 BYTE   W96
// 034   ----------------------------------------
 BYTE   W96
// 035   ----------------------------------------
 BYTE   W96
// 036   ----------------------------------------
 BYTE   W96
// 037   ----------------------------------------
 BYTE   W96
// 038   ----------------------------------------
 BYTE   W96
// 039   ----------------------------------------
 BYTE   W96
// 040   ----------------------------------------
 BYTE   W96
// 041   ----------------------------------------
 BYTE   W96
// 042   ----------------------------------------
 BYTE   W96
// 043   ----------------------------------------
 BYTE   W48
 BYTE   VOICE   3
 BYTE   W48
// 044   ----------------------------------------
 BYTE   W96
// 045   ----------------------------------------
 BYTE   W12
 BYTE   N32  En1  v076
 BYTE   W84
// 046   ----------------------------------------
 BYTE   W12
 BYTE   N32
 BYTE   W84
// 047   ----------------------------------------
 BYTE   W12
 BYTE   N32
 BYTE   W84
// 048   ----------------------------------------
 BYTE   W12
 BYTE   N32
 BYTE   W84
// 049   ----------------------------------------
 BYTE   W96
// 050   ----------------------------------------
 BYTE   W96
// 051   ----------------------------------------
 BYTE   W96
// 052   ----------------------------------------
 BYTE   W24
 BYTE   N20
 BYTE   W24
 BYTE   N90  An1  v060
 BYTE   N90  Cn2
 BYTE   W48
// 053   ----------------------------------------
 BYTE   W48
 BYTE   An1
 BYTE   N90  Cn2
 BYTE   W48
// 054   ----------------------------------------
Label_3_0107360B:
 BYTE   W48
 BYTE   N90  Cn2  v060
 BYTE   N90  En2
 BYTE   W48
 BYTE   PEND 
 BYTE   PATT
  POIN2 Label_3_0107360B
// 055   ----------------------------------------
 BYTE   W96
// 056   ----------------------------------------
 BYTE   W96
// 057   ----------------------------------------
 BYTE   W96
// 058   ----------------------------------------
 BYTE   W96
// 059   ----------------------------------------
 BYTE   W72
 BYTE   W72
// 060   ----------------------------------------
 BYTE   W72
 BYTE   W72
// 061   ----------------------------------------
 BYTE   W72
 BYTE   W72
// 062   ----------------------------------------
 BYTE   W72
 BYTE   W72
// 063   ----------------------------------------
 BYTE   W72
 BYTE   W72
// 064   ----------------------------------------
 BYTE   W72
 BYTE   W72
// 065   ----------------------------------------
 BYTE   TIE  En1  v048
 BYTE   TIE  En2
 BYTE   W72
 BYTE   W72
// 066   ----------------------------------------
 BYTE   W72
 BYTE   W66
// 067   ----------------------------------------
 BYTE   EOT
 BYTE   En1  v052
 BYTE   W06
 BYTE   W72
 BYTE   W72
// 068   ----------------------------------------
 BYTE   W72
 BYTE   W72
// 069   ----------------------------------------
 BYTE   W96
// 070   ----------------------------------------
 BYTE   W96
// 071   ----------------------------------------
 BYTE   W96
// 072   ----------------------------------------
 BYTE   W96
// 073   ----------------------------------------
 BYTE   W96
// 074   ----------------------------------------
 BYTE   W96
// 075   ----------------------------------------
 BYTE   W96
// 076   ----------------------------------------
 BYTE   W96
// 077   ----------------------------------------
 BYTE   W96
// 078   ----------------------------------------
 BYTE   W96
// 079   ----------------------------------------
 BYTE   W96
// 080   ----------------------------------------
 BYTE   W96
// 081   ----------------------------------------
 BYTE   W96
// 082   ----------------------------------------
 BYTE   W96
// 083   ----------------------------------------
 BYTE   VOICE   3
 BYTE   W96
// 084   ----------------------------------------
 BYTE   GoTo
  POIN2 Label_3_01073592
 BYTE   FINE

//**************** Track 5 (Midi-Chn.4) ****************//

SuperSmashBrosBrawlYouCallthisaUtopiaMrGreen3339_005:
// 000   ----------------------------------------
 BYTE   KEYSH   SuperSmashBrosBrawlYouCallthisaUtopiaMrGreen3339_key+0
 BYTE   VOICE   0
 BYTE   VOL   55*SuperSmashBrosBrawlYouCallthisaUtopiaMrGreen3339_mvl/mxv
 BYTE   PAN   c_v+0
 BYTE   W96
// 001   ----------------------------------------
 BYTE   W24
 BYTE   N20  AnM2  v076
 BYTE   W24
 BYTE   N20
 BYTE   W24
 BYTE   N20
 BYTE   W24
// 002   ----------------------------------------
Label_4_01073662:
 BYTE   N20  CsM1  v076
 BYTE   W24
 BYTE   AnM2
 BYTE   W24
 BYTE   CsM1
 BYTE   W24
 BYTE   AnM2
 BYTE   W24
 BYTE   PEND 
// 003   ----------------------------------------
Label_4_0107366D:
 BYTE   VOICE   0
 BYTE   N20  CsM1  v076
 BYTE   W24
 BYTE   AnM2
 BYTE   W24
 BYTE   CsM1
 BYTE   W24
 BYTE   AnM2
 BYTE   W24
 BYTE   PEND 
// 004   ----------------------------------------
Label_4_0107367A:
 BYTE   PATT
  POIN2 Label_4_01073662
// 005   ----------------------------------------
 BYTE   N20  CsM1  v076
 BYTE   W24
 BYTE   AnM2
 BYTE   W24
 BYTE   CsM1
 BYTE   W24
 BYTE   FnM1
 BYTE   W24
// 006   ----------------------------------------
Label_4_01073689:
 BYTE   N20  DnM1  v076
 BYTE   W24
 BYTE   FsM1
 BYTE   W24
 BYTE   DnM1
 BYTE   W24
 BYTE   FsM1
 BYTE   W24
 BYTE   PEND 
 BYTE   PATT
  POIN2 Label_4_01073689
 BYTE   PATT
  POIN2 Label_4_01073689
 BYTE   PATT
  POIN2 Label_4_01073689
// 007   ----------------------------------------
 BYTE   N20  GnM1  v076
 BYTE   W24
 BYTE   CsM1
 BYTE   W24
 BYTE   GnM1
 BYTE   W24
 BYTE   CsM1
 BYTE   W24
// 008   ----------------------------------------
 BYTE   FnM1
 BYTE   W24
 BYTE   DsM1
 BYTE   W24
 BYTE   CsM1
 BYTE   W48
// 009   ----------------------------------------
Label_4_010736B3:
 BYTE   N20  CsM1  v060
 BYTE   W24
 BYTE   AnM2
 BYTE   W24
 BYTE   CsM1
 BYTE   W24
 BYTE   AnM2
 BYTE   W24
 BYTE   PEND 
// 010   ----------------------------------------
 BYTE   CsM1
 BYTE   W24
 BYTE   AnM2
 BYTE   W24
 BYTE   CsM1
 BYTE   W24
 BYTE   FnM1
 BYTE   W24
// 011   ----------------------------------------
Label_4_010736C6:
 BYTE   N20  DnM1  v060
 BYTE   W24
 BYTE   FsM1
 BYTE   W24
 BYTE   DnM1
 BYTE   W24
 BYTE   FsM1
 BYTE   W24
 BYTE   PEND 
 BYTE   PATT
  POIN2 Label_4_010736C6
 BYTE   PATT
  POIN2 Label_4_010736C6
 BYTE   PATT
  POIN2 Label_4_010736C6
// 012   ----------------------------------------
 BYTE   N20  GnM1  v060
 BYTE   W24
 BYTE   CsM1
 BYTE   W24
 BYTE   GnM1
 BYTE   W24
 BYTE   CsM1
 BYTE   W24
// 013   ----------------------------------------
 BYTE   FnM1
 BYTE   W24
 BYTE   DsM1
 BYTE   W24
 BYTE   EnM1
 BYTE   W48
// 014   ----------------------------------------
 BYTE   W24
 BYTE   CsM1
 BYTE   W48
 BYTE   W24
// 015   ----------------------------------------
 BYTE   EnM1
 BYTE   W48
 BYTE   W24
 BYTE   CsM1
 BYTE   W48
// 016   ----------------------------------------
 BYTE   W24
 BYTE   EnM1
 BYTE   W48
 BYTE   W24
// 017   ----------------------------------------
 BYTE   CsM1
 BYTE   W48
 BYTE   W24
 BYTE   EnM1
 BYTE   W48
// 018   ----------------------------------------
 BYTE   W24
 BYTE   CsM1
 BYTE   W48
 BYTE   W24
// 019   ----------------------------------------
 BYTE   EnM1
 BYTE   W48
 BYTE   W24
 BYTE   CsM1
 BYTE   W48
// 020   ----------------------------------------
 BYTE   W24
 BYTE   EnM1
 BYTE   W48
 BYTE   W24
// 021   ----------------------------------------
 BYTE   CsM1
 BYTE   W24
 BYTE   BnM2
 BYTE   W24
 BYTE   CnM1
 BYTE   W24
 BYTE   AnM2
 BYTE   W48
// 022   ----------------------------------------
 BYTE   W24
 BYTE   DsM1
 BYTE   W48
 BYTE   W24
// 023   ----------------------------------------
 BYTE   AnM2
 BYTE   W48
 BYTE   W24
 BYTE   DsM1
 BYTE   W48
// 024   ----------------------------------------
 BYTE   W24
 BYTE   AnM2
 BYTE   W48
 BYTE   W24
// 025   ----------------------------------------
 BYTE   N20
 BYTE   W24
 BYTE   CnM1
 BYTE   W24
 BYTE   BnM2
 BYTE   W24
 BYTE   CsM1
 BYTE   W48
// 026   ----------------------------------------
 BYTE   W24
 BYTE   BnM2
 BYTE   W48
 BYTE   W72
// 027   ----------------------------------------
 BYTE   W96
// 028   ----------------------------------------
 BYTE   W96
// 029   ----------------------------------------
 BYTE   W96
// 030   ----------------------------------------
 BYTE   W96
// 031   ----------------------------------------
 BYTE   W96
// 032   ----------------------------------------
 BYTE   W96
// 033   ----------------------------------------
 BYTE   W96
// 034   ----------------------------------------
 BYTE   W96
// 035   ----------------------------------------
 BYTE   W96
// 036   ----------------------------------------
 BYTE   W96
// 037   ----------------------------------------
 BYTE   W96
// 038   ----------------------------------------
 BYTE   W96
// 039   ----------------------------------------
 BYTE   W48
 BYTE   VOICE   0
 BYTE   N20  CsM1  v076
 BYTE   W24
 BYTE   AnM2
 BYTE   W24
// 040   ----------------------------------------
 BYTE   CsM1
 BYTE   W24
 BYTE   AnM2
 BYTE   W24
 BYTE   VOICE   0
 BYTE   N20  CsM1
 BYTE   W24
 BYTE   AnM2
 BYTE   W24
 BYTE   PATT
  POIN2 Label_4_01073662
 BYTE   PATT
  POIN2 Label_4_01073662
// 041   ----------------------------------------
 BYTE   N20  CsM1  v076
 BYTE   W24
 BYTE   FnM1
 BYTE   W24
 BYTE   DnM1
 BYTE   W24
 BYTE   FsM1
 BYTE   W24
 BYTE   PATT
  POIN2 Label_4_01073689
 BYTE   PATT
  POIN2 Label_4_01073689
 BYTE   PATT
  POIN2 Label_4_01073689
// 042   ----------------------------------------
 BYTE   N20  DnM1  v076
 BYTE   W24
 BYTE   FsM1
 BYTE   W24
 BYTE   GnM1
 BYTE   W24
 BYTE   CsM1
 BYTE   W24
// 043   ----------------------------------------
 BYTE   GnM1
 BYTE   W24
 BYTE   CsM1
 BYTE   W24
 BYTE   FnM1
 BYTE   W24
 BYTE   DsM1
 BYTE   W24
// 044   ----------------------------------------
 BYTE   CsM1
 BYTE   W48
 BYTE   CsM1  v060
 BYTE   W24
 BYTE   AnM2
 BYTE   W24
 BYTE   PATT
  POIN2 Label_4_010736B3
// 045   ----------------------------------------
 BYTE   N20  CsM1  v060
 BYTE   W24
 BYTE   FnM1
 BYTE   W24
 BYTE   DnM1
 BYTE   W24
 BYTE   FsM1
 BYTE   W24
 BYTE   PATT
  POIN2 Label_4_010736C6
 BYTE   PATT
  POIN2 Label_4_010736C6
 BYTE   PATT
  POIN2 Label_4_010736C6
// 046   ----------------------------------------
 BYTE   N20  DnM1  v060
 BYTE   W24
 BYTE   FsM1
 BYTE   W24
 BYTE   GnM1
 BYTE   W24
 BYTE   CsM1
 BYTE   W24
// 047   ----------------------------------------
 BYTE   GnM1
 BYTE   W24
 BYTE   CsM1
 BYTE   W24
 BYTE   FnM1
 BYTE   W24
 BYTE   DsM1
 BYTE   W24
// 048   ----------------------------------------
 BYTE   EnM1
 BYTE   W72
 BYTE   CsM1
 BYTE   W72
// 049   ----------------------------------------
 BYTE   EnM1
 BYTE   W72
 BYTE   CsM1
 BYTE   W72
// 050   ----------------------------------------
 BYTE   EnM1
 BYTE   W72
 BYTE   CsM1
 BYTE   W72
// 051   ----------------------------------------
 BYTE   EnM1
 BYTE   W72
 BYTE   CsM1
 BYTE   W72
// 052   ----------------------------------------
 BYTE   EnM1
 BYTE   W72
 BYTE   CsM1
 BYTE   W72
// 053   ----------------------------------------
 BYTE   EnM1
 BYTE   W72
 BYTE   CsM1
 BYTE   W24
// 054   ----------------------------------------
 BYTE   BnM2
 BYTE   W24
 BYTE   CnM1
 BYTE   W24
 BYTE   AnM2
 BYTE   W72
// 055   ----------------------------------------
 BYTE   DsM1
 BYTE   W72
 BYTE   AnM2
 BYTE   W72
// 056   ----------------------------------------
 BYTE   DsM1
 BYTE   W72
 BYTE   AnM2
 BYTE   W72
// 057   ----------------------------------------
 BYTE   N20
 BYTE   W24
 BYTE   CnM1
 BYTE   W24
 BYTE   BnM2
 BYTE   W24
 BYTE   CsM1
 BYTE   W72
// 058   ----------------------------------------
 BYTE   BnM2
 BYTE   W72
 BYTE   W96
// 059   ----------------------------------------
 BYTE   W96
// 060   ----------------------------------------
 BYTE   W96
// 061   ----------------------------------------
 BYTE   W96
// 062   ----------------------------------------
 BYTE   W96
// 063   ----------------------------------------
 BYTE   W96
// 064   ----------------------------------------
 BYTE   W96
// 065   ----------------------------------------
 BYTE   W96
// 066   ----------------------------------------
 BYTE   W96
// 067   ----------------------------------------
 BYTE   W96
// 068   ----------------------------------------
 BYTE   W96
// 069   ----------------------------------------
 BYTE   W96
// 070   ----------------------------------------
 BYTE   W96
 BYTE   PATT
  POIN2 Label_4_0107366D
 BYTE   PATT
  POIN2 Label_4_0107366D
// 071   ----------------------------------------
 BYTE   GoTo
  POIN2 Label_4_0107367A
 BYTE   FINE

//**************** Track 6 (Midi-Chn.5) ****************//

SuperSmashBrosBrawlYouCallthisaUtopiaMrGreen3339_006:
// 000   ----------------------------------------
 BYTE   KEYSH   SuperSmashBrosBrawlYouCallthisaUtopiaMrGreen3339_key+0
 BYTE   VOICE   20
 BYTE   VOL   55*SuperSmashBrosBrawlYouCallthisaUtopiaMrGreen3339_mvl/mxv
 BYTE   PAN   c_v+0
 BYTE   W96
// 001   ----------------------------------------
 BYTE   W96
// 002   ----------------------------------------
 BYTE   W96
// 003   ----------------------------------------
 BYTE   W90
 BYTE   N05  En3  v092
 BYTE   W06
// 004   ----------------------------------------
Label_5_01073819:
 BYTE   N06  An3  v092
 BYTE   W18
 BYTE   N05  En3
 BYTE   W06
 BYTE   N06  Bn3
 BYTE   W18
 BYTE   N05  En3
 BYTE   W06
 BYTE   N40  Cn4
 BYTE   W42
 BYTE   N05  An3
 BYTE   W06
 BYTE   PEND 
// 005   ----------------------------------------
Label_5_0107382D:
 BYTE   N06  Cn4  v092
 BYTE   W18
 BYTE   N05  An3
 BYTE   W06
 BYTE   N06  Dn4
 BYTE   W18
 BYTE   N05  Gs3
 BYTE   W06
 BYTE   N40  En4
 BYTE   W42
 BYTE   N05  An3
 BYTE   W06
 BYTE   PEND 
// 006   ----------------------------------------
Label_5_01073841:
 BYTE   N06  Cn4  v092
 BYTE   W18
 BYTE   N05  Gn3
 BYTE   W06
 BYTE   N06  Dn4
 BYTE   W18
 BYTE   N05  Gn3
 BYTE   W06
 BYTE   N40  En4
 BYTE   W42
 BYTE   N05  Cn4
 BYTE   W06
 BYTE   PEND 
// 007   ----------------------------------------
Label_5_01073855:
 BYTE   N06  En4  v092
 BYTE   W18
 BYTE   N05  Cn4
 BYTE   W06
 BYTE   N06  Fn4
 BYTE   W18
 BYTE   N05  Bn3
 BYTE   W06
 BYTE   N40  Gn4
 BYTE   W48
 BYTE   PEND 
// 008   ----------------------------------------
 BYTE   W96
// 009   ----------------------------------------
 BYTE   W96
// 010   ----------------------------------------
 BYTE   W96
// 011   ----------------------------------------
 BYTE   W90
 BYTE   N05  En3
 BYTE   W06
 BYTE   PATT
  POIN2 Label_5_01073819
 BYTE   PATT
  POIN2 Label_5_0107382D
 BYTE   PATT
  POIN2 Label_5_01073841
 BYTE   PATT
  POIN2 Label_5_01073855
// 012   ----------------------------------------
 BYTE   W96
// 013   ----------------------------------------
 BYTE   W96
// 014   ----------------------------------------
 BYTE   W96
// 015   ----------------------------------------
 BYTE   W72
 BYTE   N06  En3  v060
 BYTE   N06  Cs4
 BYTE   W24
// 016   ----------------------------------------
Label_5_0107388B:
 BYTE   N06  En3  v060
 BYTE   N06  Cs4
 BYTE   W48
 BYTE   En3
 BYTE   N06  Cs4
 BYTE   W24
 BYTE   PEND 
 BYTE   PATT
  POIN2 Label_5_0107388B
 BYTE   PATT
  POIN2 Label_5_0107388B
 BYTE   PATT
  POIN2 Label_5_0107388B
// 017   ----------------------------------------
Label_5_010738A5:
 BYTE   N06  En3  v060
 BYTE   N06  Cs4
 BYTE   W48
 BYTE   Ds3
 BYTE   N06  Cn4
 BYTE   W24
 BYTE   PEND 
Label_5_010738B0:
 BYTE   N06  Ds3  v060
 BYTE   N06  Cn4
 BYTE   W48
// 018   ----------------------------------------
 BYTE   En3
 BYTE   N06  Cs4
 BYTE   W24
 BYTE   PEND 
 BYTE   PATT
  POIN2 Label_5_0107388B
 BYTE   PATT
  POIN2 Label_5_0107388B
 BYTE   PATT
  POIN2 Label_5_010738A5
 BYTE   PATT
  POIN2 Label_5_010738B0
 BYTE   PATT
  POIN2 Label_5_0107388B
// 019   ----------------------------------------
Label_5_010738D4:
 BYTE   N06  En3  v060
 BYTE   N06  Cs4
 BYTE   W48
 BYTE   Dn3
 BYTE   N06  Bn3
 BYTE   W24
 BYTE   PEND 
 BYTE   Dn3
 BYTE   N06  Bn3
 BYTE   W48
// 020   ----------------------------------------
 BYTE   Cs3
 BYTE   N06  As3
 BYTE   W24
 BYTE   Cs3
 BYTE   N06  As3
 BYTE   W48
 BYTE   Dn3
 BYTE   N06  Bn3
 BYTE   W24
// 021   ----------------------------------------
Label_5_010738EF:
 BYTE   N06  Dn3  v060
 BYTE   N06  Bn3
 BYTE   W48
 BYTE   Dn3
 BYTE   N06  Bn3
 BYTE   W24
 BYTE   PEND 
 BYTE   PATT
  POIN2 Label_5_010738EF
 BYTE   PATT
  POIN2 Label_5_010738EF
// 022   ----------------------------------------
 BYTE   N06  Dn3  v060
 BYTE   N06  Bn3
 BYTE   W48
 BYTE   En3
 BYTE   N06  Cs4
 BYTE   W24
 BYTE   PATT
  POIN2 Label_5_010738D4
// 023   ----------------------------------------
 BYTE   N06  Dn3  v060
 BYTE   N06  Bn3
 BYTE   W72
 BYTE   W96
// 024   ----------------------------------------
 BYTE   W06
 BYTE   VOICE   0
 BYTE   N02  AnM1  v076
 BYTE   W03
 BYTE   N14  AsM1
 BYTE   W15
 BYTE   N11  BnM1
 BYTE   W12
 BYTE   N02  Cn0
 BYTE   W03
 BYTE   Cs0
 BYTE   W03
 BYTE   Dn0
 BYTE   W03
 BYTE   Ds0
 BYTE   W03
 BYTE   N08  En0
 BYTE   W09
 BYTE   N02  Fn0
 BYTE   W03
 BYTE   N08  Fs0
 BYTE   W09
 BYTE   N02  Gn0
 BYTE   W03
 BYTE   N08  En0
 BYTE   W09
 BYTE   N04  Ds0
 BYTE   W04
 BYTE   Dn0
 BYTE   W05
 BYTE   N05  AnM1
 BYTE   W06
// 025   ----------------------------------------
 BYTE   N08  AsM1
 BYTE   W09
 BYTE   N02  Gs0
 BYTE   W03
 BYTE   GsM2
 BYTE   W03
 BYTE   GnM2
 BYTE   W03
 BYTE   An0
 BYTE   W03
 BYTE   As0
 BYTE   W03
 BYTE   Bn0
 BYTE   W03
 BYTE   Cn1
 BYTE   W03
 BYTE   N05  Cs1
 BYTE   W66
// 026   ----------------------------------------
 BYTE   W96
// 027   ----------------------------------------
 BYTE   W96
// 028   ----------------------------------------
 BYTE   W96
// 029   ----------------------------------------
 BYTE   VOICE   4
 BYTE   N05  En0  v060
 BYTE   W06
 BYTE   Dn1
 BYTE   W06
 BYTE   N32  Fs0
 BYTE   W84
// 030   ----------------------------------------
 BYTE   W96
// 031   ----------------------------------------
 BYTE   W96
// 032   ----------------------------------------
 BYTE   W48
 BYTE   VOICE   0
 BYTE   N06  Ds1  v076
 BYTE   W18
 BYTE   N05
 BYTE   W06
 BYTE   N07
 BYTE   W08
 BYTE   BnM2
 BYTE   W08
 BYTE   AsM2
 BYTE   W08
// 033   ----------------------------------------
 BYTE   N20  En1
 BYTE   W96
// 034   ----------------------------------------
 BYTE   W96
// 035   ----------------------------------------
 BYTE   W96
// 036   ----------------------------------------
 BYTE   W96
// 037   ----------------------------------------
 BYTE   W42
 BYTE   VOICE   20
 BYTE   N05  Gn0  v092
 BYTE   W06
 BYTE   N06  Cs0
 BYTE   W18
 BYTE   N05  Gn0
 BYTE   W06
 BYTE   N06  BnM1
 BYTE   W18
 BYTE   N05  Gn0
 BYTE   W06
// 038   ----------------------------------------
Label_5_01073994:
 BYTE   N40  AnM1  v092
 BYTE   W42
 BYTE   N05  Cs0
 BYTE   W06
 BYTE   N06  AnM1
 BYTE   W18
 BYTE   N05  Cs0
 BYTE   W06
 BYTE   N06  Gs0
 BYTE   W18
 BYTE   N05  Dn0
 BYTE   W06
 BYTE   PEND 
// 039   ----------------------------------------
Label_5_010739A8:
 BYTE   N40  Fn1  v092
 BYTE   W42
 BYTE   N05  Cs0
 BYTE   W06
 BYTE   N06  AnM1
 BYTE   W18
 BYTE   N05  Ds0
 BYTE   W06
 BYTE   N06  Gs0
 BYTE   W18
 BYTE   N05  Ds0
 BYTE   W06
 BYTE   PEND 
// 040   ----------------------------------------
Label_5_010739BC:
 BYTE   N40  Fn1  v092
 BYTE   W42
 BYTE   N05  AnM1
 BYTE   W06
 BYTE   N06  Fn1
 BYTE   W18
 BYTE   N05  AnM1
 BYTE   W06
 BYTE   N06  GsM2
 BYTE   W18
 BYTE   N05  BnM1
 BYTE   W06
 BYTE   PEND 
// 041   ----------------------------------------
 BYTE   N40  Fs1
 BYTE   W96
// 042   ----------------------------------------
 BYTE   W96
// 043   ----------------------------------------
 BYTE   W96
// 044   ----------------------------------------
 BYTE   W96
// 045   ----------------------------------------
 BYTE   W42
 BYTE   N05  Gn0
 BYTE   W06
 BYTE   N06  Cs0
 BYTE   W18
 BYTE   N05  Gn0
 BYTE   W06
 BYTE   N06  BnM1
 BYTE   W18
 BYTE   N05  Gn0
 BYTE   W06
 BYTE   PATT
  POIN2 Label_5_01073994
 BYTE   PATT
  POIN2 Label_5_010739A8
 BYTE   PATT
  POIN2 Label_5_010739BC
// 046   ----------------------------------------
 BYTE   N40  Fs1  v092
 BYTE   W96
// 047   ----------------------------------------
 BYTE   W96
// 048   ----------------------------------------
 BYTE   W96
// 049   ----------------------------------------
 BYTE   W96
// 050   ----------------------------------------
Label_5_010739FC:
 BYTE   W24
 BYTE   N06  Gn0  v060
 BYTE   N06  AsM1
 BYTE   W24
 BYTE   Gn0
 BYTE   N06  AsM1
 BYTE   W24
 BYTE   PEND 
 BYTE   PATT
  POIN2 Label_5_010739FC
 BYTE   PATT
  POIN2 Label_5_010739FC
 BYTE   PATT
  POIN2 Label_5_010739FC
 BYTE   PATT
  POIN2 Label_5_010739FC
// 051   ----------------------------------------
Label_5_01073A1C:
 BYTE   W24
 BYTE   N06  Dn1  v060
 BYTE   N06  AnM1
 BYTE   W24
 BYTE   Dn1
 BYTE   N06  AnM1
 BYTE   W24
 BYTE   PEND 
 BYTE   PATT
  POIN2 Label_5_010739FC
 BYTE   PATT
  POIN2 Label_5_010739FC
 BYTE   PATT
  POIN2 Label_5_010739FC
 BYTE   PATT
  POIN2 Label_5_01073A1C
 BYTE   PATT
  POIN2 Label_5_010739FC
 BYTE   PATT
  POIN2 Label_5_010739FC
// 052   ----------------------------------------
Label_5_01073A46:
 BYTE   W24
 BYTE   N06  Gn1  v060
 BYTE   N06  BnM1
 BYTE   W24
 BYTE   Gn1
 BYTE   N06  BnM1
 BYTE   W24
 BYTE   PEND 
 BYTE   W24
// 053   ----------------------------------------
 BYTE   Fs0
 BYTE   N06  Cn0
 BYTE   W24
 BYTE   Fs0
 BYTE   N06  Cn0
 BYTE   W24
 BYTE   PATT
  POIN2 Label_5_01073A46
 BYTE   PATT
  POIN2 Label_5_01073A46
 BYTE   PATT
  POIN2 Label_5_01073A46
 BYTE   PATT
  POIN2 Label_5_01073A46
 BYTE   PATT
  POIN2 Label_5_010739FC
 BYTE   PATT
  POIN2 Label_5_01073A46
// 054   ----------------------------------------
 BYTE   W96
// 055   ----------------------------------------
 BYTE   W54
 BYTE   VOICE   0
 BYTE   N02  AnM1  v076
 BYTE   W03
 BYTE   N14  AsM1
 BYTE   W15
 BYTE   N11  BnM1
 BYTE   W12
 BYTE   N02  Cn0
 BYTE   W03
 BYTE   Cs0
 BYTE   W03
 BYTE   Dn0
 BYTE   W03
 BYTE   Ds0
 BYTE   W03
// 056   ----------------------------------------
 BYTE   N08  En0
 BYTE   W09
 BYTE   N02  Fn0
 BYTE   W03
 BYTE   N08  Fs0
 BYTE   W09
 BYTE   N02  Gn0
 BYTE   W03
 BYTE   N08  En0
 BYTE   W09
 BYTE   N04  Ds0
 BYTE   W04
 BYTE   Dn0
 BYTE   W05
 BYTE   N05  AnM1
 BYTE   W06
 BYTE   N08  AsM1
 BYTE   W09
 BYTE   N02  Gs0
 BYTE   W03
 BYTE   GsM2
 BYTE   W03
 BYTE   GnM2
 BYTE   W03
 BYTE   An0
 BYTE   W03
 BYTE   As0
 BYTE   W03
 BYTE   Bn0
 BYTE   W03
 BYTE   Cn1
 BYTE   W03
 BYTE   N05  Cs1
 BYTE   W18
// 057   ----------------------------------------
 BYTE   W96
// 058   ----------------------------------------
 BYTE   W96
// 059   ----------------------------------------
 BYTE   W96
// 060   ----------------------------------------
 BYTE   W48
 BYTE   VOICE   4
 BYTE   N05  En0  v060
 BYTE   W06
 BYTE   Dn1
 BYTE   W06
 BYTE   N32  Fs0
 BYTE   W36
// 061   ----------------------------------------
 BYTE   W96
// 062   ----------------------------------------
 BYTE   W96
// 063   ----------------------------------------
 BYTE   W96
// 064   ----------------------------------------
 BYTE   VOICE   0
 BYTE   N06  Ds1  v076
 BYTE   W18
 BYTE   N05
 BYTE   W06
 BYTE   N07
 BYTE   W08
 BYTE   BnM2
 BYTE   W08
 BYTE   AsM2
 BYTE   W08
 BYTE   N20  En1
 BYTE   W48
// 065   ----------------------------------------
 BYTE   W96
// 066   ----------------------------------------
 BYTE   W96
// 067   ----------------------------------------
 BYTE   W96
// 068   ----------------------------------------
 BYTE   W90
 BYTE   VOICE   20
 BYTE   N05  Gn0  v092
 BYTE   W06
// 069   ----------------------------------------
 BYTE   GoTo
  POIN2 Label_5_01073819
 BYTE   FINE

//**************** Track 7 (Midi-Chn.6) ****************//

SuperSmashBrosBrawlYouCallthisaUtopiaMrGreen3339_007:
// 000   ----------------------------------------
 BYTE   KEYSH   SuperSmashBrosBrawlYouCallthisaUtopiaMrGreen3339_key+0
 BYTE   VOL   55*SuperSmashBrosBrawlYouCallthisaUtopiaMrGreen3339_mvl/mxv
 BYTE   PAN   c_v+0
 BYTE   VOL   55*SuperSmashBrosBrawlYouCallthisaUtopiaMrGreen3339_mvl/mxv
 BYTE   PAN   c_v+0
 BYTE   N01  Dn1  v032
 BYTE   W02
 BYTE   N01
 BYTE   W02
 BYTE   N01
 BYTE   W02
 BYTE   N01
 BYTE   W02
 BYTE   N01
 BYTE   W02
 BYTE   N01
 BYTE   W02
 BYTE   N01
 BYTE   W02
 BYTE   N01
 BYTE   W02
 BYTE   N01
 BYTE   W02
 BYTE   N01
 BYTE   W02
 BYTE   N01
 BYTE   W02
 BYTE   N01
 BYTE   W02
 BYTE   N01
 BYTE   W02
 BYTE   N01
 BYTE   W02
 BYTE   N01
 BYTE   W02
 BYTE   N01
 BYTE   W02
 BYTE   N01
 BYTE   W02
 BYTE   N01
 BYTE   W02
 BYTE   N01
 BYTE   W02
 BYTE   N01
 BYTE   W02
 BYTE   N01
 BYTE   W02
 BYTE   N01
 BYTE   W02
 BYTE   N01
 BYTE   W02
 BYTE   N01
 BYTE   W02
 BYTE   N01
 BYTE   W02
 BYTE   N01
 BYTE   W02
 BYTE   N01
 BYTE   W02
 BYTE   N01
 BYTE   W02
 BYTE   N01
 BYTE   W02
 BYTE   N01
 BYTE   W02
 BYTE   N01
 BYTE   W02
 BYTE   N01
 BYTE   W02
 BYTE   N01
 BYTE   W02
 BYTE   N01
 BYTE   W02
 BYTE   N01
 BYTE   W02
 BYTE   N01
 BYTE   W02
 BYTE   N01
 BYTE   W02
 BYTE   N01
 BYTE   W02
 BYTE   N01
 BYTE   W02
 BYTE   N01
 BYTE   W02
 BYTE   N01
 BYTE   W02
 BYTE   N01
 BYTE   W02
 BYTE   N01
 BYTE   W02
 BYTE   N01
 BYTE   W02
 BYTE   N01
 BYTE   W02
 BYTE   N01
 BYTE   W02
 BYTE   N01
 BYTE   W02
 BYTE   N01
 BYTE   W02
// 001   ----------------------------------------
 BYTE   N01
 BYTE   W02
 BYTE   N01
 BYTE   W02
 BYTE   N01
 BYTE   W02
 BYTE   N01
 BYTE   W02
 BYTE   N01
 BYTE   W02
 BYTE   N01
 BYTE   W02
 BYTE   N01
 BYTE   W02
 BYTE   N01
 BYTE   W02
 BYTE   N01
 BYTE   W02
 BYTE   N01
 BYTE   W02
 BYTE   N01
 BYTE   W02
 BYTE   N01
 BYTE   W02
 BYTE   N01
 BYTE   W02
 BYTE   N01
 BYTE   W02
 BYTE   N01
 BYTE   W02
 BYTE   N01
 BYTE   W02
 BYTE   N01
 BYTE   W02
 BYTE   N01
 BYTE   W02
 BYTE   N01
 BYTE   W02
 BYTE   N01
 BYTE   W02
 BYTE   N01
 BYTE   W02
 BYTE   N01
 BYTE   W02
 BYTE   N01
 BYTE   W02
 BYTE   N01
 BYTE   W02
 BYTE   N01
 BYTE   W02
 BYTE   N01
 BYTE   W02
 BYTE   N01
 BYTE   W02
 BYTE   N01
 BYTE   W02
 BYTE   N01
 BYTE   W02
 BYTE   N01
 BYTE   W02
 BYTE   N01
 BYTE   W02
 BYTE   N01
 BYTE   W02
 BYTE   N01
 BYTE   W02
 BYTE   N01
 BYTE   W02
 BYTE   N01
 BYTE   W02
 BYTE   N01
 BYTE   W02
 BYTE   N01
 BYTE   W02
 BYTE   N01
 BYTE   W02
 BYTE   N01
 BYTE   W02
 BYTE   N01
 BYTE   W02
 BYTE   N01
 BYTE   W02
 BYTE   N01
 BYTE   W02
 BYTE   N01
 BYTE   W02
 BYTE   N01
 BYTE   W02
 BYTE   N01
 BYTE   W02
 BYTE   N01
 BYTE   W02
 BYTE   N01
 BYTE   W02
 BYTE   N01
 BYTE   W02
// 002   ----------------------------------------
Label_6_01073BBB:
 BYTE   N17  Dn1  v048
 BYTE   N17  En1
 BYTE   N20  Cs2  v076
 BYTE   W18
 BYTE   N05  Dn1  v048
 BYTE   N05  En1
 BYTE   W06
 BYTE   N01  Dn1
 BYTE   W02
 BYTE   N01
 BYTE   W02
 BYTE   N01
 BYTE   W02
 BYTE   N01
 BYTE   W02
 BYTE   N01
 BYTE   W02
 BYTE   N01
 BYTE   W02
 BYTE   N01
 BYTE   W02
 BYTE   N01
 BYTE   W02
 BYTE   N01
 BYTE   W02
 BYTE   N01
 BYTE   W02
 BYTE   N01
 BYTE   W02
 BYTE   N01
 BYTE   W02
 BYTE   N17
 BYTE   N17  En1
 BYTE   W18
 BYTE   N05  Dn1
 BYTE   N05  En1
 BYTE   W06
 BYTE   N01  Dn1
 BYTE   W02
 BYTE   N01
 BYTE   W02
 BYTE   N01
 BYTE   W02
 BYTE   N01
 BYTE   W02
 BYTE   N01
 BYTE   W02
 BYTE   N01
 BYTE   W02
 BYTE   N01
 BYTE   W02
 BYTE   N01
 BYTE   W02
 BYTE   N01
 BYTE   W02
 BYTE   N01
 BYTE   W02
 BYTE   N01
 BYTE   W02
 BYTE   N01
 BYTE   W02
 BYTE   PEND 
// 003   ----------------------------------------
Label_6_01073C06:
 BYTE   N17  Dn1  v048
 BYTE   N17  En1
 BYTE   W18
 BYTE   N05  Dn1
 BYTE   N05  En1
 BYTE   W06
 BYTE   N07  Dn1
 BYTE   N07  En1
 BYTE   W08
 BYTE   Dn1
 BYTE   N07  En1
 BYTE   W08
 BYTE   Dn1
 BYTE   N07  En1
 BYTE   W08
 BYTE   N17  Dn1
 BYTE   N17  En1
 BYTE   W18
 BYTE   N05  Dn1
 BYTE   N05  En1
 BYTE   W06
 BYTE   N01  Dn1
 BYTE   W02
 BYTE   N01
 BYTE   W02
 BYTE   N01
 BYTE   W02
 BYTE   N01
 BYTE   W02
 BYTE   N01
 BYTE   W02
 BYTE   N01
 BYTE   W02
 BYTE   N01
 BYTE   W02
 BYTE   N01
 BYTE   W02
 BYTE   N01
 BYTE   W02
 BYTE   N01
 BYTE   W02
 BYTE   N01
 BYTE   W02
 BYTE   N01
 BYTE   W02
 BYTE   PEND 
// 004   ----------------------------------------
Label_6_01073C42:
 BYTE   N17  Dn1  v048
 BYTE   N17  En1
 BYTE   W18
 BYTE   N05  Dn1
 BYTE   N05  En1
 BYTE   W06
 BYTE   N01  Dn1
 BYTE   W02
 BYTE   N01
 BYTE   W02
 BYTE   N01
 BYTE   W02
 BYTE   N01
 BYTE   W02
 BYTE   N01
 BYTE   W02
 BYTE   N01
 BYTE   W02
 BYTE   N01
 BYTE   W02
 BYTE   N01
 BYTE   W02
 BYTE   N01
 BYTE   W02
 BYTE   N01
 BYTE   W02
 BYTE   N01
 BYTE   W02
 BYTE   N01
 BYTE   W02
 BYTE   N17
 BYTE   N17  En1
 BYTE   W18
 BYTE   N05  Dn1
 BYTE   N05  En1
 BYTE   W06
 BYTE   N01  Dn1
 BYTE   W02
 BYTE   N01
 BYTE   W02
 BYTE   N01
 BYTE   W02
 BYTE   N01
 BYTE   W02
 BYTE   N01
 BYTE   W02
 BYTE   N01
 BYTE   W02
 BYTE   N01
 BYTE   W02
 BYTE   N01
 BYTE   W02
 BYTE   N01
 BYTE   W02
 BYTE   N01
 BYTE   W02
 BYTE   N01
 BYTE   W02
 BYTE   N01
 BYTE   W02
 BYTE   PEND 
 BYTE   PATT
  POIN2 Label_6_01073C06
 BYTE   PATT
  POIN2 Label_6_01073C42
 BYTE   PATT
  POIN2 Label_6_01073C06
 BYTE   PATT
  POIN2 Label_6_01073BBB
 BYTE   PATT
  POIN2 Label_6_01073C06
 BYTE   PATT
  POIN2 Label_6_01073C42
// 005   ----------------------------------------
 BYTE   N20  Dn1  v048
 BYTE   N20  En1
 BYTE   N20  Cs2  v076
 BYTE   W24
 BYTE   Dn1  v048
 BYTE   N20  En1
 BYTE   N20  Cs2  v076
 BYTE   W24
 BYTE   Dn1  v048
 BYTE   N20  En1
 BYTE   N20  Cs2  v076
 BYTE   W48
// 006   ----------------------------------------
Label_6_01073CC0:
 BYTE   N11  Dn1  v048
 BYTE   N11  Ds1  v060
 BYTE   N11  En1  v048
 BYTE   W12
 BYTE   N05  Dn1
 BYTE   N05  En1
 BYTE   W06
 BYTE   Dn1
 BYTE   N05  En1
 BYTE   W06
 BYTE   N11  Dn1
 BYTE   N11  Ds1  v060
 BYTE   N11  En1  v048
 BYTE   W12
 BYTE   N05  Dn1
 BYTE   N05  En1
 BYTE   W06
 BYTE   Dn1
 BYTE   N05  En1
 BYTE   W06
 BYTE   N11  Dn1
 BYTE   N11  Ds1  v060
 BYTE   N11  En1  v048
 BYTE   W12
 BYTE   Dn1
 BYTE   N11  Ds1  v060
 BYTE   N11  En1  v048
 BYTE   W12
 BYTE   Dn1
 BYTE   N11  Ds1  v060
 BYTE   N11  En1  v048
 BYTE   W12
 BYTE   N05  Dn1
 BYTE   N05  En1
 BYTE   W06
 BYTE   Dn1
 BYTE   N05  En1
 BYTE   W06
 BYTE   PEND 
 BYTE   PATT
  POIN2 Label_6_01073CC0
 BYTE   PATT
  POIN2 Label_6_01073CC0
 BYTE   PATT
  POIN2 Label_6_01073CC0
 BYTE   PATT
  POIN2 Label_6_01073CC0
 BYTE   PATT
  POIN2 Label_6_01073CC0
 BYTE   PATT
  POIN2 Label_6_01073CC0
// 007   ----------------------------------------
 BYTE   N20  Dn1  v048
 BYTE   N20  En1
 BYTE   N20  Cs2  v076
 BYTE   W24
 BYTE   Dn1  v048
 BYTE   N20  En1
 BYTE   N20  Cs2  v076
 BYTE   W24
 BYTE   N20
 BYTE   W48
// 008   ----------------------------------------
 BYTE   W72
 BYTE   W72
// 009   ----------------------------------------
 BYTE   W24
 BYTE   Dn1  v048
 BYTE   N20  En1
 BYTE   W24
 BYTE   N11  An1  v092
 BYTE   W12
 BYTE   Gn1
 BYTE   W12
 BYTE   N20  Fn1
 BYTE   W24
// 010   ----------------------------------------
 BYTE   Dn1  v048
 BYTE   W24
 BYTE   Fs1  v076
 BYTE   W24
Label_6_01073D50:
 BYTE   N20  Fs1  v076
 BYTE   W24
 BYTE   Dn1  v048
 BYTE   W24
// 011   ----------------------------------------
 BYTE   Fs1  v076
 BYTE   W24
 BYTE   PEND 
Label_6_01073D5B:
 BYTE   N20  As1  v076
 BYTE   W24
 BYTE   Dn1  v048
 BYTE   W24
 BYTE   Fs1  v076
 BYTE   W24
 BYTE   PEND 
 BYTE   PATT
  POIN2 Label_6_01073D50
 BYTE   PATT
  POIN2 Label_6_01073D5B
 BYTE   PATT
  POIN2 Label_6_01073D50
// 012   ----------------------------------------
Label_6_01073D75:
 BYTE   N20  As1  v076
 BYTE   W24
 BYTE   Dn1  v048
 BYTE   W24
 BYTE   N11  Fs1  v076
 BYTE   W12
 BYTE   As1
 BYTE   W12
 BYTE   PEND 
Label_6_01073D83:
 BYTE   N11  Fs1  v076
 BYTE   W12
 BYTE   N11
 BYTE   W12
// 013   ----------------------------------------
 BYTE   N66  As1
 BYTE   W48
 BYTE   PEND 
 BYTE   W24
 BYTE   Cs2
 BYTE   W48
// 014   ----------------------------------------
 BYTE   W72
 BYTE   W24
// 015   ----------------------------------------
 BYTE   As1
 BYTE   W48
 BYTE   W24
 BYTE   N20  Dn1  v048
 BYTE   W24
// 016   ----------------------------------------
 BYTE   Fs1  v076
 BYTE   W24
 BYTE   PATT
  POIN2 Label_6_01073D50
 BYTE   PATT
  POIN2 Label_6_01073D50
 BYTE   PATT
  POIN2 Label_6_01073D75
 BYTE   PATT
  POIN2 Label_6_01073D83
// 017   ----------------------------------------
 BYTE   W24
 BYTE   N17  Cs2  v076
 BYTE   W18
 BYTE   N05  Bn1  v092
 BYTE   N05  Cs2  v076
 BYTE   W06
 BYTE   N07  An1  v092
 BYTE   N07  Cs2  v076
 BYTE   W08
 BYTE   Gn1  v092
 BYTE   N07  Cs2  v076
 BYTE   W08
 BYTE   Fn1  v092
 BYTE   N07  Cs2  v076
 BYTE   W08
 BYTE   N20
 BYTE   W24
// 018   ----------------------------------------
 BYTE   N05  Bn1  v092
 BYTE   W06
 BYTE   An1
 BYTE   W06
 BYTE   N11  Gn1
 BYTE   W12
 BYTE   Ds2  v076
 BYTE   W12
 BYTE   N05
 BYTE   W06
 BYTE   N05
 BYTE   W06
 BYTE   N11
 BYTE   W12
 BYTE   N05
 BYTE   W06
 BYTE   N05
 BYTE   W06
Label_6_01073DE7:
 BYTE   N11  Ds2  v076
 BYTE   W12
 BYTE   N05
 BYTE   W06
 BYTE   N05
 BYTE   W06
// 019   ----------------------------------------
 BYTE   N11
 BYTE   W12
 BYTE   N05
 BYTE   W06
 BYTE   N05
 BYTE   W06
 BYTE   N11
 BYTE   W12
 BYTE   N05
 BYTE   W06
 BYTE   N05
 BYTE   W06
 BYTE   N11
 BYTE   W12
 BYTE   N05
 BYTE   W06
 BYTE   N05
 BYTE   W06
 BYTE   PEND 
 BYTE   PATT
  POIN2 Label_6_01073DE7
 BYTE   PATT
  POIN2 Label_6_01073DE7
// 020   ----------------------------------------
 BYTE   N11  Ds2  v076
 BYTE   W12
 BYTE   N05
 BYTE   W06
 BYTE   N05
 BYTE   W06
 BYTE   N11
 BYTE   W06
 BYTE   N05  En1
 BYTE   W06
 BYTE   N11
 BYTE   N05  Ds2
 BYTE   W06
 BYTE   N05
 BYTE   W06
 BYTE   N42  Cs2  v092
 BYTE   N11  Ds2  v076
 BYTE   W12
 BYTE   N05
 BYTE   W06
 BYTE   N05
 BYTE   W06
 BYTE   N11
 BYTE   W12
 BYTE   N05
 BYTE   W06
 BYTE   N05
 BYTE   W06
 BYTE   PATT
  POIN2 Label_6_01073DE7
// 021   ----------------------------------------
 BYTE   N11  Ds2  v076
 BYTE   W06
 BYTE   N05  Fs1
 BYTE   W06
 BYTE   N11
 BYTE   N05  Ds2
 BYTE   W06
 BYTE   N05
 BYTE   W06
 BYTE   N11
 BYTE   W06
 BYTE   N05  En1
 BYTE   W06
 BYTE   N05
 BYTE   N05  Ds2
 BYTE   W06
 BYTE   En1
 BYTE   N05  Ds2
 BYTE   W06
 BYTE   N42  Cs2  v092
 BYTE   N11  Ds2  v076
 BYTE   W12
 BYTE   N05
 BYTE   W06
 BYTE   N05
 BYTE   W06
 BYTE   N11
 BYTE   W12
 BYTE   N05
 BYTE   W06
 BYTE   N05
 BYTE   W06
// 022   ----------------------------------------
 BYTE   N11
 BYTE   W12
 BYTE   N05
 BYTE   W06
 BYTE   N05
 BYTE   W06
 BYTE   N11
 BYTE   W12
 BYTE   N05
 BYTE   W06
 BYTE   N05
 BYTE   W06
 BYTE   Fs1  v060
 BYTE   N11  Ds2  v076
 BYTE   W06
 BYTE   N05  Fs1  v060
 BYTE   W06
 BYTE   N05
 BYTE   N05  Ds2  v076
 BYTE   W06
 BYTE   Fs1  v060
 BYTE   N05  Ds2  v076
 BYTE   W06
 BYTE   Fs1  v060
 BYTE   N11  Ds2  v076
 BYTE   W06
 BYTE   N05  Fs1  v060
 BYTE   W06
 BYTE   N05
 BYTE   N05  Ds2  v076
 BYTE   W06
 BYTE   Fs1  v060
 BYTE   N05  Ds2  v076
 BYTE   W06
// 023   ----------------------------------------
 BYTE   Fs1
 BYTE   N11  Ds2
 BYTE   W06
 BYTE   N05  Fs1
 BYTE   W06
 BYTE   N05
 BYTE   N05  Ds2
 BYTE   W06
 BYTE   Fs1
 BYTE   N05  Ds2
 BYTE   W06
 BYTE   Fs1
 BYTE   N11  Ds2
 BYTE   W06
 BYTE   N05  Fs1
 BYTE   W06
 BYTE   N05
 BYTE   N05  Ds2
 BYTE   W06
 BYTE   Fs1
 BYTE   N05  Ds2
 BYTE   W06
 BYTE   N17  Cs2  v092
 BYTE   W18
 BYTE   N05  Bn1
 BYTE   W06
 BYTE   N07  An1
 BYTE   W08
 BYTE   Gn1
 BYTE   W08
 BYTE   Fn1
 BYTE   W08
// 024   ----------------------------------------
 BYTE   N20  En1
 BYTE   W96
// 025   ----------------------------------------
 BYTE   W24
 BYTE   N01  Dn1  v048
 BYTE   W02
 BYTE   N01
 BYTE   W02
 BYTE   N01
 BYTE   W02
 BYTE   N01
 BYTE   W02
 BYTE   N01
 BYTE   W02
 BYTE   N01
 BYTE   W02
 BYTE   N01
 BYTE   W02
 BYTE   N01
 BYTE   W02
 BYTE   N01
 BYTE   W02
 BYTE   N01
 BYTE   W02
 BYTE   N01
 BYTE   W02
 BYTE   N01
 BYTE   W02
 BYTE   N17
 BYTE   N17  En1
 BYTE   W18
 BYTE   N05  Dn1
 BYTE   N05  En1
 BYTE   W06
 BYTE   N01  Dn1
 BYTE   W02
 BYTE   N01
 BYTE   W02
 BYTE   N01
 BYTE   W02
 BYTE   N01
 BYTE   W02
 BYTE   N01
 BYTE   W02
 BYTE   N01
 BYTE   W02
 BYTE   N01
 BYTE   W02
 BYTE   N01
 BYTE   W02
 BYTE   N01
 BYTE   W02
 BYTE   N01
 BYTE   W02
 BYTE   N01
 BYTE   W02
 BYTE   N01
 BYTE   W02
// 026   ----------------------------------------
Label_6_01073F02:
 BYTE   N17  Dn1  v048
 BYTE   N17  En1
 BYTE   W18
 BYTE   N05  Dn1
 BYTE   N05  En1
 BYTE   W06
 BYTE   N01  Dn1
 BYTE   W02
 BYTE   N01
 BYTE   W02
 BYTE   N01
 BYTE   W02
 BYTE   N01
 BYTE   W02
 BYTE   N01
 BYTE   W02
 BYTE   N01
 BYTE   W02
 BYTE   N01
 BYTE   W02
 BYTE   N01
 BYTE   W02
 BYTE   N01
 BYTE   W02
 BYTE   N01
 BYTE   W02
 BYTE   N01
 BYTE   W02
 BYTE   N01
 BYTE   W02
 BYTE   N17
 BYTE   N17  En1
 BYTE   W18
 BYTE   N05  Dn1
 BYTE   N05  En1
 BYTE   W06
 BYTE   N07  Dn1
 BYTE   N07  En1
 BYTE   W08
 BYTE   Dn1
 BYTE   N07  En1
 BYTE   W08
 BYTE   Dn1
 BYTE   N07  En1
 BYTE   W08
 BYTE   PEND 
 BYTE   PATT
  POIN2 Label_6_01073C42
 BYTE   PATT
  POIN2 Label_6_01073F02
 BYTE   PATT
  POIN2 Label_6_01073C42
 BYTE   PATT
  POIN2 Label_6_01073F02
 BYTE   PATT
  POIN2 Label_6_01073C42
 BYTE   PATT
  POIN2 Label_6_01073F02
// 027   ----------------------------------------
 BYTE   N17  Dn1  v048
 BYTE   N17  En1
 BYTE   W18
 BYTE   N05  Dn1
 BYTE   N05  En1
 BYTE   W06
 BYTE   N01  Dn1
 BYTE   W02
 BYTE   N01
 BYTE   W02
 BYTE   N01
 BYTE   W02
 BYTE   N01
 BYTE   W02
 BYTE   N01
 BYTE   W02
 BYTE   N01
 BYTE   W02
 BYTE   N01
 BYTE   W02
 BYTE   N01
 BYTE   W02
 BYTE   N01
 BYTE   W02
 BYTE   N01
 BYTE   W02
 BYTE   N01
 BYTE   W02
 BYTE   N01
 BYTE   W02
 BYTE   N17
 BYTE   N17  En1
 BYTE   N20  Cs2  v076
 BYTE   W18
 BYTE   N05  Dn1  v048
 BYTE   N05  En1
 BYTE   W06
 BYTE   N01  Dn1
 BYTE   W02
 BYTE   N01
 BYTE   W02
 BYTE   N01
 BYTE   W02
 BYTE   N01
 BYTE   W02
 BYTE   N01
 BYTE   W02
 BYTE   N01
 BYTE   W02
 BYTE   N01
 BYTE   W02
 BYTE   N01
 BYTE   W02
 BYTE   N01
 BYTE   W02
 BYTE   N01
 BYTE   W02
 BYTE   N01
 BYTE   W02
 BYTE   N01
 BYTE   W02
 BYTE   PATT
  POIN2 Label_6_01073F02
 BYTE   PATT
  POIN2 Label_6_01073C42
// 028   ----------------------------------------
 BYTE   N17  Dn1  v048
 BYTE   N17  En1
 BYTE   W18
 BYTE   N05  Dn1
 BYTE   N05  En1
 BYTE   W06
 BYTE   N01  Dn1
 BYTE   W02
 BYTE   N01
 BYTE   W02
 BYTE   N01
 BYTE   W02
 BYTE   N01
 BYTE   W02
 BYTE   N01
 BYTE   W02
 BYTE   N01
 BYTE   W02
 BYTE   N01
 BYTE   W02
 BYTE   N01
 BYTE   W02
 BYTE   N01
 BYTE   W02
 BYTE   N01
 BYTE   W02
 BYTE   N01
 BYTE   W02
 BYTE   N01
 BYTE   W02
 BYTE   N20
 BYTE   N20  En1
 BYTE   N20  Cs2  v076
 BYTE   W24
 BYTE   Dn1  v048
 BYTE   N20  En1
 BYTE   N20  Cs2  v076
 BYTE   W24
// 029   ----------------------------------------
 BYTE   Dn1  v048
 BYTE   N20  En1
 BYTE   N20  Cs2  v076
 BYTE   W48
 BYTE   N11  Dn1  v048
 BYTE   N11  Ds1  v060
 BYTE   N11  En1  v048
 BYTE   W12
 BYTE   N05  Dn1
 BYTE   N05  En1
 BYTE   W06
 BYTE   Dn1
 BYTE   N05  En1
 BYTE   W06
 BYTE   N11  Dn1
 BYTE   N11  Ds1  v060
 BYTE   N11  En1  v048
 BYTE   W12
 BYTE   N05  Dn1
 BYTE   N05  En1
 BYTE   W06
 BYTE   Dn1
 BYTE   N05  En1
 BYTE   W06
// 030   ----------------------------------------
Label_6_0107400F:
 BYTE   N11  Dn1  v048
 BYTE   N11  Ds1  v060
 BYTE   N11  En1  v048
 BYTE   W12
 BYTE   Dn1
 BYTE   N11  Ds1  v060
 BYTE   N11  En1  v048
 BYTE   W12
 BYTE   Dn1
 BYTE   N11  Ds1  v060
 BYTE   N11  En1  v048
 BYTE   W12
 BYTE   N05  Dn1
 BYTE   N05  En1
 BYTE   W06
 BYTE   Dn1
 BYTE   N05  En1
 BYTE   W06
 BYTE   N11  Dn1
 BYTE   N11  Ds1  v060
 BYTE   N11  En1  v048
 BYTE   W12
 BYTE   N05  Dn1
 BYTE   N05  En1
 BYTE   W06
 BYTE   Dn1
 BYTE   N05  En1
 BYTE   W06
 BYTE   N11  Dn1
 BYTE   N11  Ds1  v060
 BYTE   N11  En1  v048
 BYTE   W12
 BYTE   N05  Dn1
 BYTE   N05  En1
 BYTE   W06
 BYTE   Dn1
 BYTE   N05  En1
 BYTE   W06
 BYTE   PEND 
 BYTE   PATT
  POIN2 Label_6_0107400F
 BYTE   PATT
  POIN2 Label_6_0107400F
 BYTE   PATT
  POIN2 Label_6_0107400F
 BYTE   PATT
  POIN2 Label_6_0107400F
 BYTE   PATT
  POIN2 Label_6_0107400F
// 031   ----------------------------------------
 BYTE   N11  Dn1  v048
 BYTE   N11  Ds1  v060
 BYTE   N11  En1  v048
 BYTE   W12
 BYTE   Dn1
 BYTE   N11  Ds1  v060
 BYTE   N11  En1  v048
 BYTE   W12
 BYTE   Dn1
 BYTE   N11  Ds1  v060
 BYTE   N11  En1  v048
 BYTE   W12
 BYTE   N05  Dn1
 BYTE   N05  En1
 BYTE   W06
 BYTE   Dn1
 BYTE   N05  En1
 BYTE   W06
 BYTE   N20  Dn1
 BYTE   N20  En1
 BYTE   N20  Cs2  v076
 BYTE   W24
 BYTE   Dn1  v048
 BYTE   N20  En1
 BYTE   N20  Cs2  v076
 BYTE   W24
// 032   ----------------------------------------
 BYTE   N20
 BYTE   W72
 BYTE   W72
// 033   ----------------------------------------
 BYTE   W72
 BYTE   Dn1  v048
 BYTE   N20  En1
 BYTE   W24
// 034   ----------------------------------------
 BYTE   N11  An1  v092
 BYTE   W12
 BYTE   Gn1
 BYTE   W12
 BYTE   N20  Fn1
 BYTE   W24
Label_6_010740B5:
 BYTE   N20  Dn1  v048
 BYTE   W24
 BYTE   Fs1  v076
 BYTE   W24
// 035   ----------------------------------------
 BYTE   N20
 BYTE   W24
 BYTE   PEND 
Label_6_010740BF:
 BYTE   N20  Dn1  v048
 BYTE   W24
 BYTE   Fs1  v076
 BYTE   W24
 BYTE   As1
 BYTE   W24
 BYTE   PEND 
 BYTE   PATT
  POIN2 Label_6_010740B5
 BYTE   PATT
  POIN2 Label_6_010740BF
 BYTE   PATT
  POIN2 Label_6_010740B5
 BYTE   PATT
  POIN2 Label_6_010740BF
// 036   ----------------------------------------
Label_6_010740DD:
 BYTE   N20  Dn1  v048
 BYTE   W24
 BYTE   N11  Fs1  v076
 BYTE   W12
 BYTE   As1
 BYTE   W12
 BYTE   Fs1
 BYTE   W12
 BYTE   N11
 BYTE   W12
 BYTE   PEND 
 BYTE   N66  As1
 BYTE   W72
// 037   ----------------------------------------
 BYTE   Cs2
 BYTE   W72
 BYTE   W72
// 038   ----------------------------------------
 BYTE   As1
 BYTE   W72
 BYTE   PATT
  POIN2 Label_6_010740B5
 BYTE   PATT
  POIN2 Label_6_010740B5
 BYTE   PATT
  POIN2 Label_6_010740BF
 BYTE   PATT
  POIN2 Label_6_010740DD
// 039   ----------------------------------------
 BYTE   N66  As1  v076
 BYTE   W72
 BYTE   N17  Cs2
 BYTE   W18
 BYTE   N05  Bn1  v092
 BYTE   N05  Cs2  v076
 BYTE   W06
// 040   ----------------------------------------
 BYTE   N07  An1  v092
 BYTE   N07  Cs2  v076
 BYTE   W08
 BYTE   Gn1  v092
 BYTE   N07  Cs2  v076
 BYTE   W08
 BYTE   Fn1  v092
 BYTE   N07  Cs2  v076
 BYTE   W08
 BYTE   N20
 BYTE   W24
 BYTE   N05  Bn1  v092
 BYTE   W06
 BYTE   An1
 BYTE   W06
 BYTE   N11  Gn1
 BYTE   W12
 BYTE   PATT
  POIN2 Label_6_01073DE7
 BYTE   PATT
  POIN2 Label_6_01073DE7
 BYTE   PATT
  POIN2 Label_6_01073DE7
// 041   ----------------------------------------
 BYTE   N11  Ds2  v076
 BYTE   W12
 BYTE   N05
 BYTE   W06
 BYTE   N05
 BYTE   W06
 BYTE   N11
 BYTE   W12
 BYTE   N05
 BYTE   W06
 BYTE   N05
 BYTE   W06
 BYTE   N11
 BYTE   W12
 BYTE   N05
 BYTE   W06
 BYTE   N05
 BYTE   W06
 BYTE   N11
 BYTE   W06
 BYTE   N05  En1
 BYTE   W06
 BYTE   N11
 BYTE   N05  Ds2
 BYTE   W06
 BYTE   N05
 BYTE   W06
// 042   ----------------------------------------
Label_6_01074162:
 BYTE   N42  Cs2  v092
 BYTE   N11  Ds2  v076
 BYTE   W12
 BYTE   N05
 BYTE   W06
 BYTE   N05
 BYTE   W06
 BYTE   N11
 BYTE   W12
 BYTE   N05
 BYTE   W06
 BYTE   N05
 BYTE   W06
 BYTE   N11
 BYTE   W12
 BYTE   N05
 BYTE   W06
 BYTE   N05
 BYTE   W06
 BYTE   N11
 BYTE   W12
 BYTE   N05
 BYTE   W06
 BYTE   N05
 BYTE   W06
 BYTE   PEND 
// 043   ----------------------------------------
 BYTE   N11
 BYTE   W12
 BYTE   N05
 BYTE   W06
 BYTE   N05
 BYTE   W06
 BYTE   N11
 BYTE   W12
 BYTE   N05
 BYTE   W06
 BYTE   N05
 BYTE   W06
 BYTE   N11
 BYTE   W06
 BYTE   N05  Fs1
 BYTE   W06
 BYTE   N11
 BYTE   N05  Ds2
 BYTE   W06
 BYTE   N05
 BYTE   W06
 BYTE   N11
 BYTE   W06
 BYTE   N05  En1
 BYTE   W06
 BYTE   N05
 BYTE   N05  Ds2
 BYTE   W06
 BYTE   En1
 BYTE   N05  Ds2
 BYTE   W06
 BYTE   PATT
  POIN2 Label_6_01074162
// 044   ----------------------------------------
 BYTE   N05  Fs1  v060
 BYTE   N11  Ds2  v076
 BYTE   W06
 BYTE   N05  Fs1  v060
 BYTE   W06
 BYTE   N05
 BYTE   N05  Ds2  v076
 BYTE   W06
 BYTE   Fs1  v060
 BYTE   N05  Ds2  v076
 BYTE   W06
 BYTE   Fs1  v060
 BYTE   N11  Ds2  v076
 BYTE   W06
 BYTE   N05  Fs1  v060
 BYTE   W06
 BYTE   N05
 BYTE   N05  Ds2  v076
 BYTE   W06
 BYTE   Fs1  v060
 BYTE   N05  Ds2  v076
 BYTE   W06
 BYTE   Fs1
 BYTE   N11  Ds2
 BYTE   W06
 BYTE   N05  Fs1
 BYTE   W06
 BYTE   N05
 BYTE   N05  Ds2
 BYTE   W06
 BYTE   Fs1
 BYTE   N05  Ds2
 BYTE   W06
 BYTE   Fs1
 BYTE   N11  Ds2
 BYTE   W06
 BYTE   N05  Fs1
 BYTE   W06
 BYTE   N05
 BYTE   N05  Ds2
 BYTE   W06
 BYTE   Fs1
 BYTE   N05  Ds2
 BYTE   W06
// 045   ----------------------------------------
 BYTE   N17  Cs2  v092
 BYTE   W18
 BYTE   N05  Bn1
 BYTE   W06
 BYTE   N07  An1
 BYTE   W08
 BYTE   Gn1
 BYTE   W08
 BYTE   Fn1
 BYTE   W08
 BYTE   N20  En1
 BYTE   W48
// 046   ----------------------------------------
 BYTE   W72
 BYTE   N01  Dn1  v048
 BYTE   W02
 BYTE   N01
 BYTE   W02
 BYTE   N01
 BYTE   W02
 BYTE   N01
 BYTE   W02
 BYTE   N01
 BYTE   W02
 BYTE   N01
 BYTE   W02
 BYTE   N01
 BYTE   W02
 BYTE   N01
 BYTE   W02
 BYTE   N01
 BYTE   W02
 BYTE   N01
 BYTE   W02
 BYTE   N01
 BYTE   W02
 BYTE   N01
 BYTE   W02
 BYTE   PATT
  POIN2 Label_6_01073C42
 BYTE   PATT
  POIN2 Label_6_01073C06
 BYTE   PATT
  POIN2 Label_6_01073C42
 BYTE   PATT
  POIN2 Label_6_01073C06
// 047   ----------------------------------------
 BYTE   GoTo
  POIN2 Label_6_01073C42
 BYTE   FINE

//**************** Track 8 (Midi-Chn.7) ****************//

SuperSmashBrosBrawlYouCallthisaUtopiaMrGreen3339_008:
// 000   ----------------------------------------
 BYTE   KEYSH   SuperSmashBrosBrawlYouCallthisaUtopiaMrGreen3339_key+0
 BYTE   VOICE   44
 BYTE   VOL   55*SuperSmashBrosBrawlYouCallthisaUtopiaMrGreen3339_mvl/mxv
 BYTE   PAN   c_v+0
 BYTE   W96
// 001   ----------------------------------------
 BYTE   W96
// 002   ----------------------------------------
 BYTE   N20  An3  v092
 BYTE   N20  An4
 BYTE   W96
// 003   ----------------------------------------
 BYTE   VOICE   44
 BYTE   W96
// 004   ----------------------------------------
Label_7_0107424B:
 BYTE   W96
// 005   ----------------------------------------
 BYTE   W96
// 006   ----------------------------------------
 BYTE   W96
// 007   ----------------------------------------
 BYTE   W96
// 008   ----------------------------------------
 BYTE   W96
// 009   ----------------------------------------
 BYTE   W96
// 010   ----------------------------------------
 BYTE   W96
// 011   ----------------------------------------
 BYTE   W96
// 012   ----------------------------------------
 BYTE   W96
// 013   ----------------------------------------
 BYTE   W96
// 014   ----------------------------------------
 BYTE   W96
// 015   ----------------------------------------
 BYTE   W96
// 016   ----------------------------------------
 BYTE   VOICE   45
 BYTE   N17  Gn4  v076
 BYTE   W18
 BYTE   N05  An4
 BYTE   W06
 BYTE   Gn4
 BYTE   W06
 BYTE   N17  Fs4
 BYTE   W18
 BYTE   N06  En4
 BYTE   W18
 BYTE   N05  Cn4
 BYTE   W06
 BYTE   N20  En4
 BYTE   W24
// 017   ----------------------------------------
 BYTE   N05
 BYTE   W06
 BYTE   N17  Fs4
 BYTE   W18
 BYTE   N06  Gn4
 BYTE   W18
 BYTE   N05  Fs4
 BYTE   W06
 BYTE   N42  En4
 BYTE   W48
// 018   ----------------------------------------
 BYTE   N02  Fn4
 BYTE   W03
 BYTE   Gn4
 BYTE   W03
 BYTE   Fn4
 BYTE   W03
 BYTE   Gn4
 BYTE   W03
 BYTE   Fn4
 BYTE   W03
 BYTE   Gn4
 BYTE   W03
 BYTE   Fn4
 BYTE   W03
 BYTE   N02
 BYTE   W03
 BYTE   Gn4
 BYTE   W03
 BYTE   Fn4
 BYTE   W03
 BYTE   Gn4
 BYTE   W03
 BYTE   Fn4
 BYTE   W03
 BYTE   Gn4
 BYTE   W03
 BYTE   Fn4
 BYTE   W03
 BYTE   N05  En4
 BYTE   W06
 BYTE   N06  Dn4
 BYTE   W18
 BYTE   N05  Cn4
 BYTE   W06
 BYTE   N06  Bn3
 BYTE   W18
 BYTE   N05  Cn4
 BYTE   W06
// 019   ----------------------------------------
 BYTE   N11  Bn3
 BYTE   W24
 BYTE   En4
 BYTE   W24
 BYTE   N20  An3
 BYTE   W48
// 020   ----------------------------------------
 BYTE   W72
 BYTE   W72
// 021   ----------------------------------------
 BYTE   W72
 BYTE   W72
// 022   ----------------------------------------
 BYTE   W72
 BYTE   W72
// 023   ----------------------------------------
 BYTE   W72
 BYTE   W72
// 024   ----------------------------------------
 BYTE   W72
 BYTE   W72
// 025   ----------------------------------------
 BYTE   W24
 BYTE   An4  v048
 BYTE   W24
 BYTE   Gs4
 BYTE   W24
 BYTE   Fs4
 BYTE   W24
// 026   ----------------------------------------
 BYTE   N66  En4
 BYTE   W48
 BYTE   W24
 BYTE   Ds4
 BYTE   W48
// 027   ----------------------------------------
 BYTE   W24
 BYTE   En4
 BYTE   W48
 BYTE   W24
// 028   ----------------------------------------
 BYTE   N20  Gs4
 BYTE   W24
 BYTE   An4
 BYTE   W24
 BYTE   As4
 BYTE   W24
 BYTE   N42  Bn4
 BYTE   W48
// 029   ----------------------------------------
 BYTE   N20
 BYTE   W24
 BYTE   En4
 BYTE   W24
 BYTE   Fs4
 BYTE   W24
 BYTE   Gs4
 BYTE   W24
// 030   ----------------------------------------
 BYTE   N66  An4
 BYTE   W48
 BYTE   W24
 BYTE   Gs4
 BYTE   W48
// 031   ----------------------------------------
 BYTE   W24
 BYTE   VOICE   44
 BYTE   N17  Cs4  v092
 BYTE   N17  Cs5
 BYTE   W18
 BYTE   N05  Cs4
 BYTE   N05  Cs5
 BYTE   W06
 BYTE   N07  Cs4
 BYTE   N07  Cs5
 BYTE   W08
 BYTE   Cs4
 BYTE   N07  Cs5
 BYTE   W08
 BYTE   Cs4
 BYTE   N07  Cs5
 BYTE   W08
 BYTE   N20  Cs4
 BYTE   N20  Cs5
 BYTE   W96
// 032   ----------------------------------------
 BYTE   W96
// 033   ----------------------------------------
 BYTE   W96
// 034   ----------------------------------------
 BYTE   W96
// 035   ----------------------------------------
 BYTE   W36
 BYTE   N11  Cs4
 BYTE   N11  Cs5
 BYTE   W60
// 036   ----------------------------------------
 BYTE   W96
// 037   ----------------------------------------
 BYTE   W96
// 038   ----------------------------------------
 BYTE   W96
// 039   ----------------------------------------
 BYTE   W48
 BYTE   N06  Cs4
 BYTE   N06  Cs5
 BYTE   W18
 BYTE   N05  Cs4
 BYTE   N05  Cs5
 BYTE   W06
 BYTE   N07  Cs4
 BYTE   N07  Cs5
 BYTE   W08
 BYTE   Cs4
 BYTE   N07  Cs5
 BYTE   W08
 BYTE   Cs4
 BYTE   N07  Cs5
 BYTE   W08
// 040   ----------------------------------------
 BYTE   N20  Cs4
 BYTE   N20  Cs5
 BYTE   W96
// 041   ----------------------------------------
 BYTE   W96
// 042   ----------------------------------------
 BYTE   W96
// 043   ----------------------------------------
 BYTE   W96
// 044   ----------------------------------------
 BYTE   W48
 BYTE   VOICE   44
 BYTE   W48
// 045   ----------------------------------------
 BYTE   W96
// 046   ----------------------------------------
 BYTE   W96
// 047   ----------------------------------------
 BYTE   W96
// 048   ----------------------------------------
 BYTE   W96
// 049   ----------------------------------------
 BYTE   W96
// 050   ----------------------------------------
 BYTE   W96
// 051   ----------------------------------------
 BYTE   W96
// 052   ----------------------------------------
 BYTE   W96
// 053   ----------------------------------------
 BYTE   W96
// 054   ----------------------------------------
 BYTE   W96
// 055   ----------------------------------------
 BYTE   W96
// 056   ----------------------------------------
 BYTE   W96
// 057   ----------------------------------------
 BYTE   W48
 BYTE   BnM2
 BYTE   N17  Gn4  v076
 BYTE   W18
 BYTE   N05  An4
 BYTE   W06
 BYTE   Gn4
 BYTE   W06
 BYTE   N17  Fs4
 BYTE   W18
// 058   ----------------------------------------
 BYTE   N06  En4
 BYTE   W18
 BYTE   N05  Cn4
 BYTE   W06
 BYTE   N20  En4
 BYTE   W24
 BYTE   N05
 BYTE   W06
 BYTE   N17  Fs4
 BYTE   W18
 BYTE   N06  Gn4
 BYTE   W18
 BYTE   N05  Fs4
 BYTE   W06
// 059   ----------------------------------------
 BYTE   N42  En4
 BYTE   W48
 BYTE   N02  Fn4
 BYTE   W03
 BYTE   Gn4
 BYTE   W03
 BYTE   Fn4
 BYTE   W03
 BYTE   Gn4
 BYTE   W03
 BYTE   Fn4
 BYTE   W03
 BYTE   Gn4
 BYTE   W03
 BYTE   Fn4
 BYTE   W03
 BYTE   N02
 BYTE   W03
 BYTE   Gn4
 BYTE   W03
 BYTE   Fn4
 BYTE   W03
 BYTE   Gn4
 BYTE   W03
 BYTE   Fn4
 BYTE   W03
 BYTE   Gn4
 BYTE   W03
 BYTE   Fn4
 BYTE   W03
 BYTE   N05  En4
 BYTE   W06
// 060   ----------------------------------------
 BYTE   N06  Dn4
 BYTE   W18
 BYTE   N05  Cn4
 BYTE   W06
 BYTE   N06  Bn3
 BYTE   W18
 BYTE   N05  Cn4
 BYTE   W06
 BYTE   N11  Bn3
 BYTE   W24
 BYTE   En4
 BYTE   W24
// 061   ----------------------------------------
 BYTE   N20  An3
 BYTE   W72
 BYTE   W72
// 062   ----------------------------------------
 BYTE   W72
 BYTE   W72
// 063   ----------------------------------------
 BYTE   W72
 BYTE   W72
// 064   ----------------------------------------
 BYTE   W72
 BYTE   W72
// 065   ----------------------------------------
 BYTE   W72
 BYTE   W72
// 066   ----------------------------------------
 BYTE   W72
 BYTE   An4  v048
 BYTE   W24
// 067   ----------------------------------------
 BYTE   Gs4
 BYTE   W24
 BYTE   Fs4
 BYTE   W24
 BYTE   N66  En4
 BYTE   W72
// 068   ----------------------------------------
 BYTE   Ds4
 BYTE   W72
 BYTE   En4
 BYTE   W72
// 069   ----------------------------------------
 BYTE   N20  Gs4
 BYTE   W24
 BYTE   An4
 BYTE   W24
 BYTE   As4
 BYTE   W24
 BYTE   N42  Bn4
 BYTE   W48
// 070   ----------------------------------------
 BYTE   N20
 BYTE   W24
 BYTE   En4
 BYTE   W24
 BYTE   Fs4
 BYTE   W24
 BYTE   Gs4
 BYTE   W24
// 071   ----------------------------------------
 BYTE   N66  An4
 BYTE   W72
 BYTE   Gs4
 BYTE   W72
// 072   ----------------------------------------
 BYTE   VOICE   44
 BYTE   N17  Cs4  v092
 BYTE   N17  Cs5
 BYTE   W18
 BYTE   N05  Cs4
 BYTE   N05  Cs5
 BYTE   W06
 BYTE   N07  Cs4
 BYTE   N07  Cs5
 BYTE   W08
 BYTE   Cs4
 BYTE   N07  Cs5
 BYTE   W08
 BYTE   Cs4
 BYTE   N07  Cs5
 BYTE   W08
 BYTE   N20  Cs4
 BYTE   N20  Cs5
 BYTE   W48
// 073   ----------------------------------------
 BYTE   W96
// 074   ----------------------------------------
 BYTE   W96
// 075   ----------------------------------------
 BYTE   W96
// 076   ----------------------------------------
 BYTE   W84
 BYTE   N11  Cs4
 BYTE   N11  Cs5
 BYTE   W12
// 077   ----------------------------------------
 BYTE   W96
// 078   ----------------------------------------
 BYTE   W96
// 079   ----------------------------------------
 BYTE   W96
// 080   ----------------------------------------
 BYTE   W96
// 081   ----------------------------------------
 BYTE   N06  Cs4
 BYTE   N06  Cs5
 BYTE   W18
 BYTE   N05  Cs4
 BYTE   N05  Cs5
 BYTE   W06
 BYTE   N07  Cs4
 BYTE   N07  Cs5
 BYTE   W08
 BYTE   Cs4
 BYTE   N07  Cs5
 BYTE   W08
 BYTE   Cs4
 BYTE   N07  Cs5
 BYTE   W08
 BYTE   N20  Cs4
 BYTE   N20  Cs5
 BYTE   W48
// 082   ----------------------------------------
 BYTE   W96
// 083   ----------------------------------------
 BYTE   W96
// 084   ----------------------------------------
 BYTE   W96
// 085   ----------------------------------------
 BYTE   W96
// 086   ----------------------------------------
 BYTE   VOICE   44
 BYTE   W96
// 087   ----------------------------------------
 BYTE   GoTo
  POIN2 Label_7_0107424B
 BYTE   FINE

//**************** Track 9 (Midi-Chn.8) ****************//

SuperSmashBrosBrawlYouCallthisaUtopiaMrGreen3339_009:
// 000   ----------------------------------------
 BYTE   KEYSH   SuperSmashBrosBrawlYouCallthisaUtopiaMrGreen3339_key+0
 BYTE   VOICE   20
 BYTE   VOL   55*SuperSmashBrosBrawlYouCallthisaUtopiaMrGreen3339_mvl/mxv
 BYTE   PAN   c_v+0
 BYTE   W96
// 001   ----------------------------------------
 BYTE   W96
// 002   ----------------------------------------
 BYTE   W96
// 003   ----------------------------------------
 BYTE   W96
// 004   ----------------------------------------
Label_8_01074429:
 BYTE   N20  An1  v076
 BYTE   W24
 BYTE   En1
 BYTE   W24
 BYTE   An1
 BYTE   W24
 BYTE   En1
 BYTE   W24
 BYTE   PEND 
// 005   ----------------------------------------
Label_8_01074434:
 BYTE   N20  An1  v076
 BYTE   W24
 BYTE   En1
 BYTE   W24
 BYTE   An1
 BYTE   W24
 BYTE   Bn1
 BYTE   W24
 BYTE   PEND 
// 006   ----------------------------------------
Label_8_0107443F:
 BYTE   N20  Cn2  v076
 BYTE   W24
 BYTE   Gn1
 BYTE   W24
 BYTE   Cn2
 BYTE   W24
 BYTE   Gn1
 BYTE   W24
 BYTE   PEND 
 BYTE   PATT
  POIN2 Label_8_0107443F
 BYTE   PATT
  POIN2 Label_8_0107443F
 BYTE   PATT
  POIN2 Label_8_0107443F
// 007   ----------------------------------------
Label_8_01074459:
 BYTE   N20  Dn2  v076
 BYTE   W24
 BYTE   An1
 BYTE   W24
 BYTE   Dn2
 BYTE   W24
 BYTE   An1
 BYTE   W24
 BYTE   PEND 
// 008   ----------------------------------------
Label_8_01074464:
 BYTE   N20  Bn1  v076
 BYTE   W24
 BYTE   En2
 BYTE   W24
 BYTE   An1
 BYTE   W48
 BYTE   PEND 
 BYTE   PATT
  POIN2 Label_8_01074429
 BYTE   PATT
  POIN2 Label_8_01074434
 BYTE   PATT
  POIN2 Label_8_0107443F
 BYTE   PATT
  POIN2 Label_8_0107443F
 BYTE   PATT
  POIN2 Label_8_0107443F
 BYTE   PATT
  POIN2 Label_8_0107443F
 BYTE   PATT
  POIN2 Label_8_01074459
 BYTE   PATT
  POIN2 Label_8_01074464
// 009   ----------------------------------------
 BYTE   W72
 BYTE   W72
// 010   ----------------------------------------
 BYTE   W72
 BYTE   N20  En3  v076
 BYTE   W24
// 011   ----------------------------------------
 BYTE   N11  Cs4
 BYTE   N11  En4
 BYTE   W12
 BYTE   Cn4
 BYTE   N11  Ds4
 BYTE   W12
 BYTE   Cs4
 BYTE   N11  En4
 BYTE   W12
 BYTE   Cn4
 BYTE   N11  Ds4
 BYTE   W12
 BYTE   Cs4
 BYTE   N11  En4
 BYTE   W12
 BYTE   Cs4
 BYTE   W12
 BYTE   Cn4
 BYTE   W12
 BYTE   Fs3
 BYTE   W12
// 012   ----------------------------------------
 BYTE   An3
 BYTE   W12
 BYTE   Cn4
 BYTE   W12
 BYTE   Ds4
 BYTE   W12
 BYTE   Fs4
 BYTE   W12
 BYTE   N32  Cs4
 BYTE   N32  En4
 BYTE   W36
 BYTE   N11  Dn4
 BYTE   N11  Fs4
 BYTE   W12
// 013   ----------------------------------------
 BYTE   Cs4
 BYTE   N11  En4
 BYTE   W12
 BYTE   Bn3
 BYTE   N11  Dn4
 BYTE   W12
 BYTE   An3
 BYTE   N11  Cs4
 BYTE   W12
 BYTE   Bn3
 BYTE   W12
 BYTE   An3
 BYTE   W12
 BYTE   Gs3
 BYTE   W12
 BYTE   Fs3
 BYTE   W12
 BYTE   En3
 BYTE   W12
// 014   ----------------------------------------
 BYTE   An3
 BYTE   N11  Cs4
 BYTE   W12
 BYTE   Gs3
 BYTE   N11  Cn4
 BYTE   W12
 BYTE   An3
 BYTE   N11  Cs4
 BYTE   W12
 BYTE   Gs3
 BYTE   N11  Cn4
 BYTE   W12
 BYTE   An3
 BYTE   N11  Cs4
 BYTE   W12
 BYTE   En4
 BYTE   W12
 BYTE   Ds4
 BYTE   W12
 BYTE   Cn4
 BYTE   W12
// 015   ----------------------------------------
 BYTE   An3
 BYTE   W12
 BYTE   Fs3
 BYTE   W12
 BYTE   An3
 BYTE   W12
 BYTE   Cn4
 BYTE   W12
 BYTE   Cs4
 BYTE   W12
 BYTE   Bn3
 BYTE   W12
 BYTE   Cs4
 BYTE   W12
 BYTE   An3
 BYTE   W12
// 016   ----------------------------------------
 BYTE   Cs4
 BYTE   W12
 BYTE   Gs3
 BYTE   W12
 BYTE   Cs4
 BYTE   W12
 BYTE   Fs3
 BYTE   W12
 BYTE   Cs4
 BYTE   W12
 BYTE   En3
 BYTE   W12
 BYTE   Fs3
 BYTE   W12
 BYTE   An3
 BYTE   W12
// 017   ----------------------------------------
 BYTE   N02  As3
 BYTE   W03
 BYTE   N08  Gs3
 BYTE   N08  Bn3
 BYTE   W09
 BYTE   N11  Gn3
 BYTE   N11  As3
 BYTE   W12
 BYTE   Gs3
 BYTE   N11  Bn3
 BYTE   W12
 BYTE   En3
 BYTE   N11  Gs3
 BYTE   W12
 BYTE   N11
 BYTE   N11  Bn3
 BYTE   W12
 BYTE   En3
 BYTE   W12
 BYTE   As3
 BYTE   W12
 BYTE   En3
 BYTE   W12
// 018   ----------------------------------------
 BYTE   Gn3
 BYTE   W12
 BYTE   As3
 BYTE   W12
 BYTE   Cs4
 BYTE   W12
 BYTE   En4
 BYTE   W12
 BYTE   Dn4
 BYTE   W12
 BYTE   Bn3
 BYTE   W12
 BYTE   Gs3
 BYTE   W12
 BYTE   Bn3
 BYTE   W12
// 019   ----------------------------------------
 BYTE   Gs3
 BYTE   W12
 BYTE   En3
 BYTE   W12
 BYTE   Ds3
 BYTE   W12
 BYTE   En3
 BYTE   W12
 BYTE   Fs3
 BYTE   W12
 BYTE   Gs3
 BYTE   W12
 BYTE   An3
 BYTE   W12
 BYTE   As3
 BYTE   W12
// 020   ----------------------------------------
 BYTE   Bn3
 BYTE   W12
 BYTE   En3
 BYTE   W12
 BYTE   Fs3
 BYTE   W12
 BYTE   Gs3
 BYTE   W12
 BYTE   An3
 BYTE   W12
 BYTE   As3
 BYTE   W12
 BYTE   Bn3
 BYTE   W12
 BYTE   Gs3
 BYTE   W12
// 021   ----------------------------------------
 BYTE   An3
 BYTE   W12
 BYTE   Bn3
 BYTE   W12
 BYTE   Cs4
 BYTE   W12
 BYTE   Dn4
 BYTE   W12
 BYTE   En4
 BYTE   W12
 BYTE   Ds4
 BYTE   W12
 BYTE   En4
 BYTE   W12
 BYTE   Ds4
 BYTE   W12
// 022   ----------------------------------------
 BYTE   En4
 BYTE   W12
 BYTE   Cs4
 BYTE   W12
 BYTE   Fn4
 BYTE   W12
 BYTE   Bn3
 BYTE   W12
 BYTE   Fn4
 BYTE   W12
 BYTE   Gs3
 BYTE   W12
 BYTE   Fn3
 BYTE   W12
 BYTE   Gs3
 BYTE   W60
// 023   ----------------------------------------
 BYTE   W42
 BYTE   VOICE   46
 BYTE   N05  Cs2
 BYTE   W06
 BYTE   N11  Cs1
 BYTE   W12
 BYTE   Fn1
 BYTE   W12
 BYTE   Fs1
 BYTE   W12
 BYTE   Gn1
 BYTE   W12
// 024   ----------------------------------------
 BYTE   Gs1
 BYTE   W12
 BYTE   Bn1
 BYTE   W12
 BYTE   Cs2
 BYTE   W12
 BYTE   Gs1
 BYTE   W12
 BYTE   Fn1
 BYTE   W12
 BYTE   Gs1
 BYTE   W12
 BYTE   N08  An1
 BYTE   W09
 BYTE   N02  Bn1
 BYTE   W03
 BYTE   N11  Cs2
 BYTE   W12
// 025   ----------------------------------------
 BYTE   Fn2
 BYTE   W12
 BYTE   Cs2
 BYTE   W12
 BYTE   Bn1
 BYTE   W12
 BYTE   Gs1
 BYTE   W12
 BYTE   Gs0
 BYTE   W12
 BYTE   Gs1
 BYTE   W12
 BYTE   Fn1
 BYTE   W12
 BYTE   Dn1
 BYTE   W12
// 026   ----------------------------------------
 BYTE   Gs0
 BYTE   W12
 BYTE   Bn0
 BYTE   W12
 BYTE   Cs1
 BYTE   W12
 BYTE   Dn1
 BYTE   W12
 BYTE   Cs1
 BYTE   W12
 BYTE   Bn1
 BYTE   W12
 BYTE   N08  Cs2
 BYTE   W09
 BYTE   N02  Gs1
 BYTE   W03
 BYTE   N11  Cs1
 BYTE   W12
// 027   ----------------------------------------
 BYTE   Cs2
 BYTE   W12
 BYTE   Bn1
 BYTE   W12
 BYTE   Gs1
 BYTE   W12
 BYTE   Fn1
 BYTE   W12
 BYTE   Gs0
 BYTE   W12
 BYTE   Gs1
 BYTE   W12
 BYTE   Fn1
 BYTE   W12
 BYTE   Dn1
 BYTE   W12
// 028   ----------------------------------------
 BYTE   Gs0
 BYTE   W12
 BYTE   Bn0
 BYTE   W12
 BYTE   Cs1
 BYTE   W12
 BYTE   Dn1
 BYTE   W12
 BYTE   Cs1
 BYTE   W12
 BYTE   Fn1
 BYTE   W12
 BYTE   N08  Gs1
 BYTE   W09
 BYTE   N02  Bn1
 BYTE   W03
 BYTE   N11  Cs2
 BYTE   W12
// 029   ----------------------------------------
 BYTE   Fn2
 BYTE   W12
 BYTE   Bn1
 BYTE   W12
 BYTE   Gs1
 BYTE   W12
 BYTE   Fn1
 BYTE   W12
 BYTE   Cs1
 BYTE   W12
 BYTE   Cs2
 BYTE   W12
 BYTE   Bn1
 BYTE   W12
 BYTE   Gs1
 BYTE   W12
// 030   ----------------------------------------
 BYTE   Fn1
 BYTE   W12
 BYTE   Dn1
 BYTE   W12
 BYTE   Bn0
 BYTE   W12
 BYTE   Gs0
 BYTE   W12
 BYTE   Bn0
 BYTE   W12
 BYTE   Dn1
 BYTE   W12
 BYTE   N08  Fs1
 BYTE   W09
 BYTE   N02  Gs1
 BYTE   W03
 BYTE   N11  An1
 BYTE   W12
// 031   ----------------------------------------
 BYTE   Bn1
 BYTE   W12
 BYTE   Dn2
 BYTE   W12
 BYTE   Bn1
 BYTE   W12
 BYTE   Fs1
 BYTE   W60
// 032   ----------------------------------------
 BYTE   W96
// 033   ----------------------------------------
 BYTE   W96
// 034   ----------------------------------------
 BYTE   W96
// 035   ----------------------------------------
 BYTE   W96
// 036   ----------------------------------------
 BYTE   W96
// 037   ----------------------------------------
 BYTE   W48
 BYTE   VOICE   20
 BYTE   N20  An1
 BYTE   W24
 BYTE   En1
 BYTE   W24
 BYTE   PATT
  POIN2 Label_8_01074429
// 038   ----------------------------------------
Label_8_01074635:
 BYTE   N20  An1  v076
 BYTE   W24
 BYTE   Bn1
 BYTE   W24
 BYTE   Cn2
 BYTE   W24
 BYTE   Gn1
 BYTE   W24
 BYTE   PEND 
 BYTE   PATT
  POIN2 Label_8_0107443F
 BYTE   PATT
  POIN2 Label_8_0107443F
 BYTE   PATT
  POIN2 Label_8_0107443F
// 039   ----------------------------------------
Label_8_0107464F:
 BYTE   N20  Cn2  v076
 BYTE   W24
 BYTE   Gn1
 BYTE   W24
 BYTE   Dn2
 BYTE   W24
 BYTE   An1
 BYTE   W24
 BYTE   PEND 
// 040   ----------------------------------------
Label_8_0107465A:
 BYTE   N20  Dn2  v076
 BYTE   W24
 BYTE   An1
 BYTE   W24
 BYTE   Bn1
 BYTE   W24
 BYTE   En2
 BYTE   W24
 BYTE   PEND 
// 041   ----------------------------------------
 BYTE   An1
 BYTE   W48
 BYTE   N20
 BYTE   W24
 BYTE   En1
 BYTE   W24
 BYTE   PATT
  POIN2 Label_8_01074429
 BYTE   PATT
  POIN2 Label_8_01074635
 BYTE   PATT
  POIN2 Label_8_0107443F
 BYTE   PATT
  POIN2 Label_8_0107443F
 BYTE   PATT
  POIN2 Label_8_0107443F
 BYTE   PATT
  POIN2 Label_8_0107464F
 BYTE   PATT
  POIN2 Label_8_0107465A
// 042   ----------------------------------------
 BYTE   N20  An1  v076
 BYTE   W72
 BYTE   W72
// 043   ----------------------------------------
 BYTE   W72
 BYTE   W48
// 044   ----------------------------------------
 BYTE   En3
 BYTE   W24
 BYTE   N11  Cs4
 BYTE   N11  En4
 BYTE   W12
 BYTE   Cn4
 BYTE   N11  Ds4
 BYTE   W12
 BYTE   Cs4
 BYTE   N11  En4
 BYTE   W12
 BYTE   Cn4
 BYTE   N11  Ds4
 BYTE   W12
 BYTE   Cs4
 BYTE   N11  En4
 BYTE   W12
 BYTE   Cs4
 BYTE   W12
// 045   ----------------------------------------
 BYTE   Cn4
 BYTE   W12
 BYTE   Fs3
 BYTE   W12
 BYTE   An3
 BYTE   W12
 BYTE   Cn4
 BYTE   W12
 BYTE   Ds4
 BYTE   W12
 BYTE   Fs4
 BYTE   W12
 BYTE   N32  Cs4
 BYTE   N32  En4
 BYTE   W36
// 046   ----------------------------------------
 BYTE   N11  Dn4
 BYTE   N11  Fs4
 BYTE   W12
 BYTE   Cs4
 BYTE   N11  En4
 BYTE   W12
 BYTE   Bn3
 BYTE   N11  Dn4
 BYTE   W12
 BYTE   An3
 BYTE   N11  Cs4
 BYTE   W12
 BYTE   Bn3
 BYTE   W12
 BYTE   An3
 BYTE   W12
 BYTE   Gs3
 BYTE   W12
 BYTE   Fs3
 BYTE   W12
// 047   ----------------------------------------
 BYTE   En3
 BYTE   W12
 BYTE   An3
 BYTE   N11  Cs4
 BYTE   W12
 BYTE   Gs3
 BYTE   N11  Cn4
 BYTE   W12
 BYTE   An3
 BYTE   N11  Cs4
 BYTE   W12
 BYTE   Gs3
 BYTE   N11  Cn4
 BYTE   W12
 BYTE   An3
 BYTE   N11  Cs4
 BYTE   W12
 BYTE   En4
 BYTE   W12
 BYTE   Ds4
 BYTE   W12
// 048   ----------------------------------------
 BYTE   Cn4
 BYTE   W12
 BYTE   An3
 BYTE   W12
 BYTE   Fs3
 BYTE   W12
 BYTE   An3
 BYTE   W12
 BYTE   Cn4
 BYTE   W12
 BYTE   Cs4
 BYTE   W12
 BYTE   Bn3
 BYTE   W12
 BYTE   Cs4
 BYTE   W12
// 049   ----------------------------------------
 BYTE   An3
 BYTE   W12
 BYTE   Cs4
 BYTE   W12
 BYTE   Gs3
 BYTE   W12
 BYTE   Cs4
 BYTE   W12
 BYTE   Fs3
 BYTE   W12
 BYTE   Cs4
 BYTE   W12
 BYTE   En3
 BYTE   W12
 BYTE   Fs3
 BYTE   W12
// 050   ----------------------------------------
 BYTE   An3
 BYTE   W12
 BYTE   N02  As3
 BYTE   W03
 BYTE   N08  Gs3
 BYTE   N08  Bn3
 BYTE   W09
 BYTE   N11  Gn3
 BYTE   N11  As3
 BYTE   W12
 BYTE   Gs3
 BYTE   N11  Bn3
 BYTE   W12
 BYTE   En3
 BYTE   N11  Gs3
 BYTE   W12
 BYTE   N11
 BYTE   N11  Bn3
 BYTE   W12
 BYTE   En3
 BYTE   W12
 BYTE   As3
 BYTE   W12
// 051   ----------------------------------------
 BYTE   En3
 BYTE   W12
 BYTE   Gn3
 BYTE   W12
 BYTE   As3
 BYTE   W12
 BYTE   Cs4
 BYTE   W12
 BYTE   En4
 BYTE   W12
 BYTE   Dn4
 BYTE   W12
 BYTE   Bn3
 BYTE   W12
 BYTE   Gs3
 BYTE   W12
// 052   ----------------------------------------
 BYTE   Bn3
 BYTE   W12
 BYTE   Gs3
 BYTE   W12
 BYTE   En3
 BYTE   W12
 BYTE   Ds3
 BYTE   W12
 BYTE   En3
 BYTE   W12
 BYTE   Fs3
 BYTE   W12
 BYTE   Gs3
 BYTE   W12
 BYTE   An3
 BYTE   W12
// 053   ----------------------------------------
 BYTE   As3
 BYTE   W12
 BYTE   Bn3
 BYTE   W12
 BYTE   En3
 BYTE   W12
 BYTE   Fs3
 BYTE   W12
 BYTE   Gs3
 BYTE   W12
 BYTE   An3
 BYTE   W12
 BYTE   As3
 BYTE   W12
 BYTE   Bn3
 BYTE   W12
// 054   ----------------------------------------
 BYTE   Gs3
 BYTE   W12
 BYTE   An3
 BYTE   W12
 BYTE   Bn3
 BYTE   W12
 BYTE   Cs4
 BYTE   W12
 BYTE   Dn4
 BYTE   W12
 BYTE   En4
 BYTE   W12
 BYTE   Ds4
 BYTE   W12
 BYTE   En4
 BYTE   W12
// 055   ----------------------------------------
 BYTE   Ds4
 BYTE   W12
 BYTE   En4
 BYTE   W12
 BYTE   Cs4
 BYTE   W12
 BYTE   Fn4
 BYTE   W12
 BYTE   Bn3
 BYTE   W12
 BYTE   Fn4
 BYTE   W12
 BYTE   Gs3
 BYTE   W12
 BYTE   Fn3
 BYTE   W12
// 056   ----------------------------------------
 BYTE   Gs3
 BYTE   W12
 BYTE   W90
// 057   ----------------------------------------
 BYTE   VOICE   46
 BYTE   N05  Cs2
 BYTE   W06
 BYTE   N11  Cs1
 BYTE   W12
 BYTE   Fn1
 BYTE   W12
 BYTE   Fs1
 BYTE   W12
 BYTE   Gn1
 BYTE   W12
 BYTE   Gs1
 BYTE   W12
 BYTE   Bn1
 BYTE   W12
 BYTE   Cs2
 BYTE   W12
 BYTE   Gs1
 BYTE   W12
// 058   ----------------------------------------
 BYTE   Fn1
 BYTE   W12
 BYTE   Gs1
 BYTE   W12
 BYTE   N08  An1
 BYTE   W09
 BYTE   N02  Bn1
 BYTE   W03
 BYTE   N11  Cs2
 BYTE   W12
 BYTE   Fn2
 BYTE   W12
 BYTE   Cs2
 BYTE   W12
 BYTE   Bn1
 BYTE   W12
 BYTE   Gs1
 BYTE   W12
// 059   ----------------------------------------
Label_8_010747AF:
 BYTE   N11  Gs0  v076
 BYTE   W12
 BYTE   Gs1
 BYTE   W12
 BYTE   Fn1
 BYTE   W12
 BYTE   Dn1
 BYTE   W12
 BYTE   Gs0
 BYTE   W12
 BYTE   Bn0
 BYTE   W12
 BYTE   Cs1
 BYTE   W12
 BYTE   Dn1
 BYTE   W12
 BYTE   PEND 
// 060   ----------------------------------------
 BYTE   Cs1
 BYTE   W12
 BYTE   Bn1
 BYTE   W12
 BYTE   N08  Cs2
 BYTE   W09
 BYTE   N02  Gs1
 BYTE   W03
 BYTE   N11  Cs1
 BYTE   W12
 BYTE   Cs2
 BYTE   W12
 BYTE   Bn1
 BYTE   W12
 BYTE   Gs1
 BYTE   W12
 BYTE   Fn1
 BYTE   W12
 BYTE   PATT
  POIN2 Label_8_010747AF
// 061   ----------------------------------------
 BYTE   N11  Cs1  v076
 BYTE   W12
 BYTE   Fn1
 BYTE   W12
 BYTE   N08  Gs1
 BYTE   W09
 BYTE   N02  Bn1
 BYTE   W03
 BYTE   N11  Cs2
 BYTE   W12
 BYTE   Fn2
 BYTE   W12
 BYTE   Bn1
 BYTE   W12
 BYTE   Gs1
 BYTE   W12
 BYTE   Fn1
 BYTE   W12
// 062   ----------------------------------------
 BYTE   Cs1
 BYTE   W12
 BYTE   Cs2
 BYTE   W12
 BYTE   Bn1
 BYTE   W12
 BYTE   Gs1
 BYTE   W12
 BYTE   Fn1
 BYTE   W12
 BYTE   Dn1
 BYTE   W12
 BYTE   Bn0
 BYTE   W12
 BYTE   Gs0
 BYTE   W12
// 063   ----------------------------------------
 BYTE   Bn0
 BYTE   W12
 BYTE   Dn1
 BYTE   W12
 BYTE   N08  Fs1
 BYTE   W09
 BYTE   N02  Gs1
 BYTE   W03
 BYTE   N11  An1
 BYTE   W12
 BYTE   Bn1
 BYTE   W12
 BYTE   Dn2
 BYTE   W12
 BYTE   Bn1
 BYTE   W12
 BYTE   Fs1
 BYTE   W12
// 064   ----------------------------------------
 BYTE   W96
// 065   ----------------------------------------
 BYTE   W96
// 066   ----------------------------------------
 BYTE   W96
// 067   ----------------------------------------
 BYTE   W96
// 068   ----------------------------------------
 BYTE   W96
// 069   ----------------------------------------
 BYTE   W96
// 070   ----------------------------------------
 BYTE   GoTo
  POIN2 Label_8_01074429
 BYTE   FINE

//******************************************************//
	ALIGN 4

SuperSmashBrosBrawlYouCallthisaUtopiaMrGreen3339:
	BYTE	9	// NumTrks
	BYTE	0	// NumBlks
	BYTE	SuperSmashBrosBrawlYouCallthisaUtopiaMrGreen3339_pri	// Priority
	BYTE	SuperSmashBrosBrawlYouCallthisaUtopiaMrGreen3339_rev	// Reverb.
    
	POIN2	SuperSmashBrosBrawlYouCallthisaUtopiaMrGreen3339_grp
    
	POIN2	SuperSmashBrosBrawlYouCallthisaUtopiaMrGreen3339_001
	POIN2	SuperSmashBrosBrawlYouCallthisaUtopiaMrGreen3339_002
	POIN2	SuperSmashBrosBrawlYouCallthisaUtopiaMrGreen3339_003
	POIN2	SuperSmashBrosBrawlYouCallthisaUtopiaMrGreen3339_004
	POIN2	SuperSmashBrosBrawlYouCallthisaUtopiaMrGreen3339_005
	POIN2	SuperSmashBrosBrawlYouCallthisaUtopiaMrGreen3339_006
	POIN2	SuperSmashBrosBrawlYouCallthisaUtopiaMrGreen3339_007
	POIN2	SuperSmashBrosBrawlYouCallthisaUtopiaMrGreen3339_008
	POIN2	SuperSmashBrosBrawlYouCallthisaUtopiaMrGreen3339_009

	
