//Event file generated from Sappy .s format.
	#include "MPlayDef.event"

	#define	SuperSmashBrosMeleeTrophyTussleMrGreen3339_grp  voicegroup000
	#define	SuperSmashBrosMeleeTrophyTussleMrGreen3339_pri  0
	#define	SuperSmashBrosMeleeTrophyTussleMrGreen3339_rev  0
	#define	SuperSmashBrosMeleeTrophyTussleMrGreen3339_mvl  127
	#define	SuperSmashBrosMeleeTrophyTussleMrGreen3339_key  0
	#define	SuperSmashBrosMeleeTrophyTussleMrGreen3339_tbs  1
	#define	SuperSmashBrosMeleeTrophyTussleMrGreen3339_exg  0
	#define	SuperSmashBrosMeleeTrophyTussleMrGreen3339_cmp  1

	// .rodata
	//	SuperSmashBrosMeleeTrophyTussleMrGreen3339
	ALIGN 4


//**************** Track 1 (Midi-Chn.0) ****************//

SuperSmashBrosMeleeTrophyTussleMrGreen3339_001:
// 000   ----------------------------------------
 BYTE   KEYSH   SuperSmashBrosMeleeTrophyTussleMrGreen3339_key+0
 BYTE   TEMPO   136*SuperSmashBrosMeleeTrophyTussleMrGreen3339_tbs/2
 BYTE   VOICE   75
 BYTE   VOL   45*SuperSmashBrosMeleeTrophyTussleMrGreen3339_mvl/mxv
 BYTE   PAN   c_v+33
 BYTE   W96
// 001   ----------------------------------------
 BYTE   W96
// 002   ----------------------------------------
 BYTE   W96
// 003   ----------------------------------------
 BYTE   W96
// 004   ----------------------------------------
Label_0_0120E46E:
 BYTE   W12
 BYTE   N06  As3  v127
 BYTE   W06
 BYTE   Fn4
 BYTE   W06
 BYTE   N48  Ds4
 BYTE   W08
 BYTE   W01
 BYTE   W01
 BYTE   W01
 BYTE   W01
 BYTE   W01
 BYTE   W01
 BYTE   W01
 BYTE   W01
 BYTE   W01
 BYTE   W01
 BYTE   W01
 BYTE   W01
 BYTE   W01
 BYTE   W01
 BYTE   W01
 BYTE   W01
 BYTE   W01
 BYTE   W01
 BYTE   W01
 BYTE   W01
 BYTE   W01
 BYTE   W01
 BYTE   W01
 BYTE   W01
 BYTE   W01
 BYTE   W01
 BYTE   W01
 BYTE   W01
 BYTE   W01
 BYTE   W01
 BYTE   W01
 BYTE   W01
 BYTE   W01
 BYTE   W01
 BYTE   W01
 BYTE   W01
 BYTE   W01
 BYTE   W01
 BYTE   W02
 BYTE   N06  Cs4
 BYTE   W06
 BYTE   Cn4
 BYTE   W06
 BYTE   As3
 BYTE   W06
 BYTE   Gs3
 BYTE   W06
 BYTE   PEND 
// 005   ----------------------------------------
 BYTE   As3
 BYTE   W12
 BYTE   N72  Fn3
 BYTE   W12
 BYTE   W01
 BYTE   W02
 BYTE   W01
 BYTE   W02
 BYTE   W01
 BYTE   W01
 BYTE   W02
 BYTE   W01
 BYTE   W01
 BYTE   W02
 BYTE   W01
 BYTE   W01
 BYTE   W02
 BYTE   W01
 BYTE   W01
 BYTE   W02
 BYTE   W01
 BYTE   W02
 BYTE   W01
 BYTE   W01
 BYTE   W02
 BYTE   W01
 BYTE   W01
 BYTE   W02
 BYTE   W01
 BYTE   W01
 BYTE   W02
 BYTE   W01
 BYTE   W01
 BYTE   W02
 BYTE   W01
 BYTE   W01
 BYTE   W01
 BYTE   W01
 BYTE   W01
 BYTE   W01
 BYTE   W01
 BYTE   W01
 BYTE   W01
 BYTE   W01
 BYTE   W01
 BYTE   W01
 BYTE   W01
 BYTE   W01
 BYTE   W01
 BYTE   W01
 BYTE   W10
 BYTE   W05
 BYTE   PATT
  POIN2 Label_0_0120E46E
// 006   ----------------------------------------
 BYTE   N66  Ds4  v127
 BYTE   W11
 BYTE   W01
 BYTE   W01
 BYTE   W02
 BYTE   W01
 BYTE   W01
 BYTE   W01
 BYTE   W01
 BYTE   W02
 BYTE   W01
 BYTE   W01
 BYTE   W01
 BYTE   W01
 BYTE   W01
 BYTE   W02
 BYTE   W01
 BYTE   W01
 BYTE   W01
 BYTE   W01
 BYTE   W02
 BYTE   W01
 BYTE   W01
 BYTE   W01
 BYTE   W01
 BYTE   W01
 BYTE   W02
 BYTE   W01
 BYTE   W01
 BYTE   W01
 BYTE   W01
 BYTE   W02
 BYTE   W01
 BYTE   W01
 BYTE   W01
 BYTE   W01
 BYTE   W01
 BYTE   W01
 BYTE   W01
 BYTE   W01
 BYTE   W01
 BYTE   W01
 BYTE   W01
 BYTE   W01
 BYTE   W01
 BYTE   W01
 BYTE   W01
 BYTE   W01
 BYTE   W01
 BYTE   W01
 BYTE   W14
 BYTE   W05
 BYTE   N06  Cs4
 BYTE   W06
 BYTE   Ds4
 BYTE   W06
// 007   ----------------------------------------
 BYTE   N30  Fn4
 BYTE   W05
 BYTE   W01
 BYTE   W01
 BYTE   W01
 BYTE   W01
 BYTE   W01
 BYTE   W01
 BYTE   W01
 BYTE   W01
 BYTE   W01
 BYTE   W01
 BYTE   W01
 BYTE   W01
 BYTE   W01
 BYTE   W01
 BYTE   W01
 BYTE   W01
 BYTE   W01
 BYTE   W01
 BYTE   W01
 BYTE   W01
 BYTE   W01
 BYTE   W01
 BYTE   W01
 BYTE   W01
 BYTE   W01
 BYTE   W01
 BYTE   W01
 BYTE   W01
 BYTE   W03
 BYTE   Ds4
 BYTE   W04
 BYTE   W01
 BYTE   W01
 BYTE   W01
 BYTE   W01
 BYTE   W01
 BYTE   W01
 BYTE   W01
 BYTE   W01
 BYTE   W01
 BYTE   W01
 BYTE   W01
 BYTE   W01
 BYTE   W01
 BYTE   W01
 BYTE   W01
 BYTE   W01
 BYTE   W01
 BYTE   W01
 BYTE   W01
 BYTE   W01
 BYTE   W01
 BYTE   W01
 BYTE   W01
 BYTE   W01
 BYTE   W01
 BYTE   W01
 BYTE   W01
 BYTE   W01
 BYTE   W03
 BYTE   W01
 BYTE   N42  As3
 BYTE   W05
 BYTE   W01
 BYTE   W01
 BYTE   W01
 BYTE   W01
 BYTE   W01
 BYTE   W01
 BYTE   W01
 BYTE   W01
 BYTE   W01
 BYTE   W01
 BYTE   W01
 BYTE   W01
 BYTE   W01
 BYTE   W01
 BYTE   W01
 BYTE   W01
 BYTE   W01
 BYTE   W01
 BYTE   W01
// 008   ----------------------------------------
 BYTE   W01
 BYTE   W01
 BYTE   W01
 BYTE   W01
 BYTE   W01
 BYTE   W01
 BYTE   W01
 BYTE   W01
 BYTE   W01
 BYTE   W01
 BYTE   W01
 BYTE   W01
 BYTE   W01
 BYTE   W01
 BYTE   W01
 BYTE   W01
 BYTE   W01
 BYTE   W01
 BYTE   W04
 BYTE   W01
 BYTE   W01
 BYTE   N48  Fs3
 BYTE   W17
 BYTE   W01
 BYTE   W01
 BYTE   W01
 BYTE   W01
 BYTE   W01
 BYTE   W01
 BYTE   W01
 BYTE   W01
 BYTE   W01
 BYTE   W01
 BYTE   W01
 BYTE   W01
 BYTE   W01
 BYTE   W01
 BYTE   W01
 BYTE   W01
 BYTE   W01
 BYTE   W01
 BYTE   W01
 BYTE   W01
 BYTE   W02
 BYTE   W03
 BYTE   W01
 BYTE   W01
 BYTE   W01
 BYTE   W01
 BYTE   W01
 BYTE   W01
 BYTE   N06  Gs3
 BYTE   W06
 BYTE   Fs3
 BYTE   W06
 BYTE   Fn3
 BYTE   W06
 BYTE   Ds3
 BYTE   W06
// 009   ----------------------------------------
 BYTE   TIE  Fn3
 BYTE   W28
 BYTE   W01
 BYTE   W04
 BYTE   W05
 BYTE   W05
 BYTE   W04
 BYTE   W05
 BYTE   W04
 BYTE   W05
 BYTE   W04
 BYTE   W05
 BYTE   W05
 BYTE   W04
 BYTE   W05
 BYTE   W04
 BYTE   W01
 BYTE   W02
 BYTE   W01
 BYTE   W01
 BYTE   W02
 BYTE   W01
// 010   ----------------------------------------
 BYTE   W02
 BYTE   W01
 BYTE   W01
 BYTE   W02
 BYTE   W01
 BYTE   W01
 BYTE   W02
 BYTE   W01
 BYTE   W01
 BYTE   W02
 BYTE   W01
 BYTE   W01
 BYTE   W02
 BYTE   W01
 BYTE   W02
 BYTE   W01
 BYTE   W01
 BYTE   W02
 BYTE   W01
 BYTE   W01
 BYTE   W02
 BYTE   W01
 BYTE   W01
 BYTE   W02
 BYTE   W01
 BYTE   W01
 BYTE   W02
 BYTE   W01
 BYTE   W01
 BYTE   W02
 BYTE   W01
 BYTE   W01
 BYTE   W01
 BYTE   W01
 BYTE   W01
 BYTE   W01
 BYTE   W01
 BYTE   W01
 BYTE   W01
 BYTE   W01
 BYTE   W01
 BYTE   W01
 BYTE   W01
 BYTE   W01
 BYTE   W01
 BYTE   W01
 BYTE   W01
 BYTE   W01
 BYTE   W01
 BYTE   W01
 BYTE   W01
 BYTE   W01
 BYTE   W01
 BYTE   W01
 BYTE   W01
 BYTE   W01
 BYTE   W01
 BYTE   W01
 BYTE   W01
 BYTE   W01
 BYTE   W01
 BYTE   W01
 BYTE   W01
 BYTE   W01
 BYTE   W01
 BYTE   W01
 BYTE   W01
 BYTE   W01
 BYTE   W01
 BYTE   W01
 BYTE   W01
 BYTE   W01
 BYTE   W01
 BYTE   W01
 BYTE   W01
 BYTE   W01
 BYTE   W01
 BYTE   W01
 BYTE   W01
 BYTE   W01
 BYTE   W01
 BYTE   W01
 BYTE   EOT
 BYTE   W03
// 011   ----------------------------------------
 BYTE   W96
// 012   ----------------------------------------
 BYTE   W92
 BYTE   W01
 BYTE   W03
// 013   ----------------------------------------
Label_0_0120E620:
 BYTE   W12
 BYTE   N06  Ds5  v127
 BYTE   W06
 BYTE   As5
 BYTE   W06
 BYTE   N48  Gs5
 BYTE   W08
 BYTE   W01
 BYTE   W01
 BYTE   W01
 BYTE   W01
 BYTE   W01
 BYTE   W01
 BYTE   W01
 BYTE   W01
 BYTE   W01
 BYTE   W01
 BYTE   W01
 BYTE   W01
 BYTE   W01
 BYTE   W01
 BYTE   W01
 BYTE   W01
 BYTE   W01
 BYTE   W01
 BYTE   W01
 BYTE   W01
 BYTE   W01
 BYTE   W01
 BYTE   W01
 BYTE   W01
 BYTE   W01
 BYTE   W01
 BYTE   W01
 BYTE   W01
 BYTE   W01
 BYTE   W01
 BYTE   W01
 BYTE   W01
 BYTE   W01
 BYTE   W01
 BYTE   W01
 BYTE   W01
 BYTE   W01
 BYTE   W01
 BYTE   W02
 BYTE   N06  Fs5
 BYTE   W06
 BYTE   Fn5
 BYTE   W06
 BYTE   Ds5
 BYTE   W06
 BYTE   Cs5
 BYTE   W06
 BYTE   PEND 
// 014   ----------------------------------------
 BYTE   Cn5
 BYTE   W18
 BYTE   Gs4
 BYTE   W06
 BYTE   N60  As4
 BYTE   W01
 BYTE   W02
 BYTE   W01
 BYTE   W02
 BYTE   W01
 BYTE   W01
 BYTE   W02
 BYTE   W01
 BYTE   W01
 BYTE   W02
 BYTE   W01
 BYTE   W01
 BYTE   W02
 BYTE   W01
 BYTE   W01
 BYTE   W02
 BYTE   W01
 BYTE   W02
 BYTE   W01
 BYTE   W01
 BYTE   W02
 BYTE   W01
 BYTE   W01
 BYTE   W02
 BYTE   W01
 BYTE   W01
 BYTE   W02
 BYTE   W01
 BYTE   W01
 BYTE   W02
 BYTE   W01
 BYTE   W01
 BYTE   W01
 BYTE   W01
 BYTE   W01
 BYTE   W01
 BYTE   W01
 BYTE   W01
 BYTE   W01
 BYTE   W01
 BYTE   W01
 BYTE   W01
 BYTE   W01
 BYTE   W01
 BYTE   W01
 BYTE   W01
 BYTE   W10
 BYTE   W05
 BYTE   PATT
  POIN2 Label_0_0120E620
// 015   ----------------------------------------
 BYTE   N72  Gs5  v127
 BYTE   W11
 BYTE   W01
 BYTE   W01
 BYTE   W02
 BYTE   W01
 BYTE   W01
 BYTE   W01
 BYTE   W01
 BYTE   W02
 BYTE   W01
 BYTE   W01
 BYTE   W01
 BYTE   W01
 BYTE   W01
 BYTE   W02
 BYTE   W01
 BYTE   W01
 BYTE   W01
 BYTE   W01
 BYTE   W02
 BYTE   W01
 BYTE   W01
 BYTE   W01
 BYTE   W01
 BYTE   W01
 BYTE   W02
 BYTE   W01
 BYTE   W01
 BYTE   W01
 BYTE   W01
 BYTE   W02
 BYTE   W01
 BYTE   W01
 BYTE   W01
 BYTE   W01
 BYTE   W01
 BYTE   W01
 BYTE   W01
 BYTE   W01
 BYTE   W01
 BYTE   W01
 BYTE   W01
 BYTE   W01
 BYTE   W01
 BYTE   W01
 BYTE   W01
 BYTE   W01
 BYTE   W01
 BYTE   W01
 BYTE   W14
 BYTE   W17
// 016   ----------------------------------------
Label_0_0120E6CC:
 BYTE   W12
 BYTE   N06  Cs4  v127
 BYTE   W06
 BYTE   Gs4
 BYTE   W06
 BYTE   N48  Fs4
 BYTE   W08
 BYTE   W01
 BYTE   W01
 BYTE   W01
 BYTE   W01
 BYTE   W01
 BYTE   W01
 BYTE   W01
 BYTE   W01
 BYTE   W01
 BYTE   W01
 BYTE   W01
 BYTE   W01
 BYTE   W01
 BYTE   W01
 BYTE   W01
 BYTE   W01
 BYTE   W01
 BYTE   W01
 BYTE   W01
 BYTE   W01
 BYTE   W01
 BYTE   W01
 BYTE   W01
 BYTE   W01
 BYTE   W01
 BYTE   W01
 BYTE   W01
 BYTE   W01
 BYTE   W01
 BYTE   W01
 BYTE   W01
 BYTE   W01
 BYTE   W01
 BYTE   W01
 BYTE   W01
 BYTE   W01
 BYTE   W01
 BYTE   W01
 BYTE   W02
 BYTE   N06  En4
 BYTE   W06
 BYTE   Ds4
 BYTE   W06
 BYTE   Cs4
 BYTE   W06
 BYTE   Bn3
 BYTE   W06
 BYTE   PEND 
// 017   ----------------------------------------
 BYTE   As3
 BYTE   W18
 BYTE   Fs3
 BYTE   W06
 BYTE   N60  Gs3
 BYTE   W01
 BYTE   W02
 BYTE   W01
 BYTE   W02
 BYTE   W01
 BYTE   W01
 BYTE   W02
 BYTE   W01
 BYTE   W01
 BYTE   W02
 BYTE   W01
 BYTE   W01
 BYTE   W02
 BYTE   W01
 BYTE   W01
 BYTE   W02
 BYTE   W01
 BYTE   W02
 BYTE   W01
 BYTE   W01
 BYTE   W02
 BYTE   W01
 BYTE   W01
 BYTE   W02
 BYTE   W01
 BYTE   W01
 BYTE   W02
 BYTE   W01
 BYTE   W01
 BYTE   W02
 BYTE   W01
 BYTE   W01
 BYTE   W01
 BYTE   W01
 BYTE   W01
 BYTE   W01
 BYTE   W01
 BYTE   W01
 BYTE   W01
 BYTE   W01
 BYTE   W01
 BYTE   W01
 BYTE   W01
 BYTE   W01
 BYTE   W01
 BYTE   W01
 BYTE   W10
 BYTE   W05
 BYTE   PATT
  POIN2 Label_0_0120E6CC
// 018   ----------------------------------------
 BYTE   N72  Bn4  v127
 BYTE   W11
 BYTE   W01
 BYTE   W01
 BYTE   W02
 BYTE   W01
 BYTE   W01
 BYTE   W01
 BYTE   W01
 BYTE   W02
 BYTE   W01
 BYTE   W01
 BYTE   W01
 BYTE   W01
 BYTE   W01
 BYTE   W02
 BYTE   W01
 BYTE   W01
 BYTE   W01
 BYTE   W01
 BYTE   W02
 BYTE   W01
 BYTE   W01
 BYTE   W01
 BYTE   W01
 BYTE   W01
 BYTE   W02
 BYTE   W01
 BYTE   W01
 BYTE   W01
 BYTE   W01
 BYTE   W02
 BYTE   W01
 BYTE   W01
 BYTE   W01
 BYTE   W01
 BYTE   W01
 BYTE   W01
 BYTE   W01
 BYTE   W01
 BYTE   W01
 BYTE   W01
 BYTE   W01
 BYTE   W01
 BYTE   W01
 BYTE   W01
 BYTE   W01
 BYTE   W01
 BYTE   W01
 BYTE   W01
 BYTE   W14
 BYTE   W17
// 019   ----------------------------------------
 BYTE   W96
// 020   ----------------------------------------
 BYTE   W96
// 021   ----------------------------------------
 BYTE   W96
// 022   ----------------------------------------
 BYTE   W96
// 023   ----------------------------------------
 BYTE   W96
// 024   ----------------------------------------
 BYTE   W96
// 025   ----------------------------------------
 BYTE   GoTo
  POIN2 Label_0_0120E46E
 BYTE   FINE

//**************** Track 2 (Midi-Chn.1) ****************//

SuperSmashBrosMeleeTrophyTussleMrGreen3339_002:
// 000   ----------------------------------------
 BYTE   KEYSH   SuperSmashBrosMeleeTrophyTussleMrGreen3339_key+0
 BYTE   VOICE   54
 BYTE   PAN   c_v+23
 BYTE   VOL   40*SuperSmashBrosMeleeTrophyTussleMrGreen3339_mvl/mxv
 BYTE   W96
// 001   ----------------------------------------
 BYTE   W96
// 002   ----------------------------------------
 BYTE   W96
// 003   ----------------------------------------
 BYTE   W96
// 004   ----------------------------------------
Label_1_0120E790:
 BYTE   W12
 BYTE   N06  As3  v127
 BYTE   W06
 BYTE   Fn4
 BYTE   W06
 BYTE   N48  Ds4
 BYTE   W08
 BYTE   W01
 BYTE   W01
 BYTE   W01
 BYTE   W01
 BYTE   W01
 BYTE   W01
 BYTE   W01
 BYTE   W01
 BYTE   W01
 BYTE   W01
 BYTE   W01
 BYTE   W01
 BYTE   W01
 BYTE   W01
 BYTE   W01
 BYTE   W01
 BYTE   W01
 BYTE   W01
 BYTE   W01
 BYTE   W01
 BYTE   W01
 BYTE   W01
 BYTE   W01
 BYTE   W01
 BYTE   W01
 BYTE   W01
 BYTE   W01
 BYTE   W01
 BYTE   W01
 BYTE   W01
 BYTE   W01
 BYTE   W01
 BYTE   W01
 BYTE   W01
 BYTE   W01
 BYTE   W01
 BYTE   W01
 BYTE   W01
 BYTE   W02
 BYTE   N06  Cs4
 BYTE   W06
 BYTE   Cn4
 BYTE   W06
 BYTE   As3
 BYTE   W06
 BYTE   Gs3
 BYTE   W06
 BYTE   PEND 
// 005   ----------------------------------------
 BYTE   As3
 BYTE   W12
 BYTE   N72  Fn3
 BYTE   W12
 BYTE   W01
 BYTE   W02
 BYTE   W01
 BYTE   W02
 BYTE   W01
 BYTE   W01
 BYTE   W02
 BYTE   W01
 BYTE   W01
 BYTE   W02
 BYTE   W01
 BYTE   W01
 BYTE   W02
 BYTE   W01
 BYTE   W01
 BYTE   W02
 BYTE   W01
 BYTE   W02
 BYTE   W01
 BYTE   W01
 BYTE   W02
 BYTE   W01
 BYTE   W01
 BYTE   W02
 BYTE   W01
 BYTE   W01
 BYTE   W02
 BYTE   W01
 BYTE   W01
 BYTE   W02
 BYTE   W01
 BYTE   W01
 BYTE   W01
 BYTE   W01
 BYTE   W01
 BYTE   W01
 BYTE   W01
 BYTE   W01
 BYTE   W01
 BYTE   W01
 BYTE   W01
 BYTE   W01
 BYTE   W01
 BYTE   W01
 BYTE   W01
 BYTE   W01
 BYTE   W10
 BYTE   W05
 BYTE   PATT
  POIN2 Label_1_0120E790
// 006   ----------------------------------------
 BYTE   N66  Ds4  v127
 BYTE   W11
 BYTE   W01
 BYTE   W01
 BYTE   W02
 BYTE   W01
 BYTE   W01
 BYTE   W01
 BYTE   W01
 BYTE   W02
 BYTE   W01
 BYTE   W01
 BYTE   W01
 BYTE   W01
 BYTE   W01
 BYTE   W02
 BYTE   W01
 BYTE   W01
 BYTE   W01
 BYTE   W01
 BYTE   W02
 BYTE   W01
 BYTE   W01
 BYTE   W01
 BYTE   W01
 BYTE   W01
 BYTE   W02
 BYTE   W01
 BYTE   W01
 BYTE   W01
 BYTE   W01
 BYTE   W02
 BYTE   W01
 BYTE   W01
 BYTE   W01
 BYTE   W01
 BYTE   W01
 BYTE   W01
 BYTE   W01
 BYTE   W01
 BYTE   W01
 BYTE   W01
 BYTE   W01
 BYTE   W01
 BYTE   W01
 BYTE   W01
 BYTE   W01
 BYTE   W01
 BYTE   W01
 BYTE   W01
 BYTE   W14
 BYTE   W05
 BYTE   N06  Cs4
 BYTE   W06
 BYTE   Ds4
 BYTE   W06
// 007   ----------------------------------------
 BYTE   N30  Fn4
 BYTE   W05
 BYTE   W01
 BYTE   W01
 BYTE   W01
 BYTE   W01
 BYTE   W01
 BYTE   W01
 BYTE   W01
 BYTE   W01
 BYTE   W01
 BYTE   W01
 BYTE   W01
 BYTE   W01
 BYTE   W01
 BYTE   W01
 BYTE   W01
 BYTE   W01
 BYTE   W01
 BYTE   W01
 BYTE   W01
 BYTE   W01
 BYTE   W01
 BYTE   W01
 BYTE   W01
 BYTE   W01
 BYTE   W01
 BYTE   W01
 BYTE   W01
 BYTE   W01
 BYTE   W03
 BYTE   Ds4
 BYTE   W04
 BYTE   W01
 BYTE   W01
 BYTE   W01
 BYTE   W01
 BYTE   W01
 BYTE   W01
 BYTE   W01
 BYTE   W01
 BYTE   W01
 BYTE   W01
 BYTE   W01
 BYTE   W01
 BYTE   W01
 BYTE   W01
 BYTE   W01
 BYTE   W01
 BYTE   W01
 BYTE   W01
 BYTE   W01
 BYTE   W01
 BYTE   W01
 BYTE   W01
 BYTE   W01
 BYTE   W01
 BYTE   W01
 BYTE   W01
 BYTE   W01
 BYTE   W01
 BYTE   W03
 BYTE   W01
 BYTE   N42  As3
 BYTE   W05
 BYTE   W01
 BYTE   W01
 BYTE   W01
 BYTE   W01
 BYTE   W01
 BYTE   W01
 BYTE   W01
 BYTE   W01
 BYTE   W01
 BYTE   W01
 BYTE   W01
 BYTE   W01
 BYTE   W01
 BYTE   W01
 BYTE   W01
 BYTE   W01
 BYTE   W01
 BYTE   W01
 BYTE   W01
// 008   ----------------------------------------
 BYTE   W01
 BYTE   W01
 BYTE   W01
 BYTE   W01
 BYTE   W01
 BYTE   W01
 BYTE   W01
 BYTE   W01
 BYTE   W01
 BYTE   W01
 BYTE   W01
 BYTE   W01
 BYTE   W01
 BYTE   W01
 BYTE   W01
 BYTE   W01
 BYTE   W01
 BYTE   W01
 BYTE   W04
 BYTE   W01
 BYTE   W01
 BYTE   N48  Fs3
 BYTE   W17
 BYTE   W01
 BYTE   W01
 BYTE   W01
 BYTE   W01
 BYTE   W01
 BYTE   W01
 BYTE   W01
 BYTE   W01
 BYTE   W01
 BYTE   W01
 BYTE   W01
 BYTE   W01
 BYTE   W01
 BYTE   W01
 BYTE   W01
 BYTE   W01
 BYTE   W01
 BYTE   W01
 BYTE   W01
 BYTE   W01
 BYTE   W02
 BYTE   W03
 BYTE   W01
 BYTE   W01
 BYTE   W01
 BYTE   W01
 BYTE   W01
 BYTE   W01
 BYTE   N06  Gs3
 BYTE   W06
 BYTE   Fs3
 BYTE   W06
 BYTE   Fn3
 BYTE   W06
 BYTE   Ds3
 BYTE   W06
// 009   ----------------------------------------
 BYTE   TIE  Fn3
 BYTE   W28
 BYTE   W01
 BYTE   W04
 BYTE   W05
 BYTE   W05
 BYTE   W04
 BYTE   W05
 BYTE   W04
 BYTE   W05
 BYTE   W04
 BYTE   W05
 BYTE   W05
 BYTE   W04
 BYTE   W05
 BYTE   W04
 BYTE   W01
 BYTE   W02
 BYTE   W01
 BYTE   W01
 BYTE   W02
 BYTE   W01
// 010   ----------------------------------------
 BYTE   W02
 BYTE   W01
 BYTE   W01
 BYTE   W02
 BYTE   W01
 BYTE   W01
 BYTE   W02
 BYTE   W01
 BYTE   W01
 BYTE   W02
 BYTE   W01
 BYTE   W01
 BYTE   W02
 BYTE   W01
 BYTE   W02
 BYTE   W01
 BYTE   W01
 BYTE   W02
 BYTE   W01
 BYTE   W01
 BYTE   W02
 BYTE   W01
 BYTE   W01
 BYTE   W02
 BYTE   W01
 BYTE   W01
 BYTE   W02
 BYTE   W01
 BYTE   W01
 BYTE   W02
 BYTE   W01
 BYTE   W01
 BYTE   W01
 BYTE   W01
 BYTE   W01
 BYTE   W01
 BYTE   W01
 BYTE   W01
 BYTE   W01
 BYTE   W01
 BYTE   W01
 BYTE   W01
 BYTE   W01
 BYTE   W01
 BYTE   W01
 BYTE   W01
 BYTE   W01
 BYTE   W01
 BYTE   W01
 BYTE   W01
 BYTE   W01
 BYTE   W01
 BYTE   W01
 BYTE   W01
 BYTE   W01
 BYTE   W01
 BYTE   W01
 BYTE   W01
 BYTE   W01
 BYTE   W01
 BYTE   W01
 BYTE   W01
 BYTE   W01
 BYTE   W01
 BYTE   W01
 BYTE   W01
 BYTE   W01
 BYTE   W01
 BYTE   W01
 BYTE   W01
 BYTE   W01
 BYTE   W01
 BYTE   W01
 BYTE   W01
 BYTE   W01
 BYTE   W01
 BYTE   W01
 BYTE   W01
 BYTE   W01
 BYTE   W01
 BYTE   W01
 BYTE   W01
 BYTE   EOT
 BYTE   W03
// 011   ----------------------------------------
 BYTE   W96
// 012   ----------------------------------------
 BYTE   W92
 BYTE   W01
 BYTE   W03
// 013   ----------------------------------------
Label_1_0120E942:
 BYTE   W12
 BYTE   N06  Ds5  v127
 BYTE   W06
 BYTE   As5
 BYTE   W06
 BYTE   N48  Gs5
 BYTE   W08
 BYTE   W01
 BYTE   W01
 BYTE   W01
 BYTE   W01
 BYTE   W01
 BYTE   W01
 BYTE   W01
 BYTE   W01
 BYTE   W01
 BYTE   W01
 BYTE   W01
 BYTE   W01
 BYTE   W01
 BYTE   W01
 BYTE   W01
 BYTE   W01
 BYTE   W01
 BYTE   W01
 BYTE   W01
 BYTE   W01
 BYTE   W01
 BYTE   W01
 BYTE   W01
 BYTE   W01
 BYTE   W01
 BYTE   W01
 BYTE   W01
 BYTE   W01
 BYTE   W01
 BYTE   W01
 BYTE   W01
 BYTE   W01
 BYTE   W01
 BYTE   W01
 BYTE   W01
 BYTE   W01
 BYTE   W01
 BYTE   W01
 BYTE   W02
 BYTE   N06  Fs5
 BYTE   W06
 BYTE   Fn5
 BYTE   W06
 BYTE   Ds5
 BYTE   W06
 BYTE   Cs5
 BYTE   W06
 BYTE   PEND 
// 014   ----------------------------------------
 BYTE   Cn5
 BYTE   W18
 BYTE   Gs4
 BYTE   W06
 BYTE   N60  As4
 BYTE   W01
 BYTE   W02
 BYTE   W01
 BYTE   W02
 BYTE   W01
 BYTE   W01
 BYTE   W02
 BYTE   W01
 BYTE   W01
 BYTE   W02
 BYTE   W01
 BYTE   W01
 BYTE   W02
 BYTE   W01
 BYTE   W01
 BYTE   W02
 BYTE   W01
 BYTE   W02
 BYTE   W01
 BYTE   W01
 BYTE   W02
 BYTE   W01
 BYTE   W01
 BYTE   W02
 BYTE   W01
 BYTE   W01
 BYTE   W02
 BYTE   W01
 BYTE   W01
 BYTE   W02
 BYTE   W01
 BYTE   W01
 BYTE   W01
 BYTE   W01
 BYTE   W01
 BYTE   W01
 BYTE   W01
 BYTE   W01
 BYTE   W01
 BYTE   W01
 BYTE   W01
 BYTE   W01
 BYTE   W01
 BYTE   W01
 BYTE   W01
 BYTE   W01
 BYTE   W10
 BYTE   W05
 BYTE   PATT
  POIN2 Label_1_0120E942
// 015   ----------------------------------------
 BYTE   N72  Gs5  v127
 BYTE   W11
 BYTE   W01
 BYTE   W01
 BYTE   W02
 BYTE   W01
 BYTE   W01
 BYTE   W01
 BYTE   W01
 BYTE   W02
 BYTE   W01
 BYTE   W01
 BYTE   W01
 BYTE   W01
 BYTE   W01
 BYTE   W02
 BYTE   W01
 BYTE   W01
 BYTE   W01
 BYTE   W01
 BYTE   W02
 BYTE   W01
 BYTE   W01
 BYTE   W01
 BYTE   W01
 BYTE   W01
 BYTE   W02
 BYTE   W01
 BYTE   W01
 BYTE   W01
 BYTE   W01
 BYTE   W02
 BYTE   W01
 BYTE   W01
 BYTE   W01
 BYTE   W01
 BYTE   W01
 BYTE   W01
 BYTE   W01
 BYTE   W01
 BYTE   W01
 BYTE   W01
 BYTE   W01
 BYTE   W01
 BYTE   W01
 BYTE   W01
 BYTE   W01
 BYTE   W01
 BYTE   W01
 BYTE   W01
 BYTE   W14
 BYTE   W17
// 016   ----------------------------------------
Label_1_0120E9EE:
 BYTE   W12
 BYTE   N06  Cs4  v127
 BYTE   W06
 BYTE   Gs4
 BYTE   W06
 BYTE   N48  Fs4
 BYTE   W08
 BYTE   W01
 BYTE   W01
 BYTE   W01
 BYTE   W01
 BYTE   W01
 BYTE   W01
 BYTE   W01
 BYTE   W01
 BYTE   W01
 BYTE   W01
 BYTE   W01
 BYTE   W01
 BYTE   W01
 BYTE   W01
 BYTE   W01
 BYTE   W01
 BYTE   W01
 BYTE   W01
 BYTE   W01
 BYTE   W01
 BYTE   W01
 BYTE   W01
 BYTE   W01
 BYTE   W01
 BYTE   W01
 BYTE   W01
 BYTE   W01
 BYTE   W01
 BYTE   W01
 BYTE   W01
 BYTE   W01
 BYTE   W01
 BYTE   W01
 BYTE   W01
 BYTE   W01
 BYTE   W01
 BYTE   W01
 BYTE   W01
 BYTE   W02
 BYTE   N06  En4
 BYTE   W06
 BYTE   Ds4
 BYTE   W06
 BYTE   Cs4
 BYTE   W06
 BYTE   Bn3
 BYTE   W06
 BYTE   PEND 
// 017   ----------------------------------------
 BYTE   As3
 BYTE   W18
 BYTE   Fs3
 BYTE   W06
 BYTE   N60  Gs3
 BYTE   W01
 BYTE   W02
 BYTE   W01
 BYTE   W02
 BYTE   W01
 BYTE   W01
 BYTE   W02
 BYTE   W01
 BYTE   W01
 BYTE   W02
 BYTE   W01
 BYTE   W01
 BYTE   W02
 BYTE   W01
 BYTE   W01
 BYTE   W02
 BYTE   W01
 BYTE   W02
 BYTE   W01
 BYTE   W01
 BYTE   W02
 BYTE   W01
 BYTE   W01
 BYTE   W02
 BYTE   W01
 BYTE   W01
 BYTE   W02
 BYTE   W01
 BYTE   W01
 BYTE   W02
 BYTE   W01
 BYTE   W01
 BYTE   W01
 BYTE   W01
 BYTE   W01
 BYTE   W01
 BYTE   W01
 BYTE   W01
 BYTE   W01
 BYTE   W01
 BYTE   W01
 BYTE   W01
 BYTE   W01
 BYTE   W01
 BYTE   W01
 BYTE   W01
 BYTE   W10
 BYTE   W05
 BYTE   PATT
  POIN2 Label_1_0120E9EE
// 018   ----------------------------------------
 BYTE   N72  Bn4  v127
 BYTE   W11
 BYTE   W01
 BYTE   W01
 BYTE   W02
 BYTE   W01
 BYTE   W01
 BYTE   W01
 BYTE   W01
 BYTE   W02
 BYTE   W01
 BYTE   W01
 BYTE   W01
 BYTE   W01
 BYTE   W01
 BYTE   W02
 BYTE   W01
 BYTE   W01
 BYTE   W01
 BYTE   W01
 BYTE   W02
 BYTE   W01
 BYTE   W01
 BYTE   W01
 BYTE   W01
 BYTE   W01
 BYTE   W02
 BYTE   W01
 BYTE   W01
 BYTE   W01
 BYTE   W01
 BYTE   W02
 BYTE   W01
 BYTE   W01
 BYTE   W01
 BYTE   W01
 BYTE   W01
 BYTE   W01
 BYTE   W01
 BYTE   W01
 BYTE   W01
 BYTE   W01
 BYTE   W01
 BYTE   W01
 BYTE   W01
 BYTE   W01
 BYTE   W01
 BYTE   W01
 BYTE   W01
 BYTE   W01
 BYTE   W14
 BYTE   W17
// 019   ----------------------------------------
 BYTE   W96
// 020   ----------------------------------------
 BYTE   W96
// 021   ----------------------------------------
 BYTE   W96
// 022   ----------------------------------------
 BYTE   W96
// 023   ----------------------------------------
 BYTE   W96
// 024   ----------------------------------------
 BYTE   W96
// 025   ----------------------------------------
 BYTE   GoTo
  POIN2 Label_1_0120E790
 BYTE   FINE

//**************** Track 3 (Midi-Chn.2) ****************//

SuperSmashBrosMeleeTrophyTussleMrGreen3339_003:
// 000   ----------------------------------------
 BYTE   KEYSH   SuperSmashBrosMeleeTrophyTussleMrGreen3339_key+0
 BYTE   VOICE   48
 BYTE   VOL   28*SuperSmashBrosMeleeTrophyTussleMrGreen3339_mvl/mxv
 BYTE   PAN   c_v-14
 BYTE   W96
// 001   ----------------------------------------
 BYTE   W96
// 002   ----------------------------------------
 BYTE   W96
// 003   ----------------------------------------
 BYTE   W96
// 004   ----------------------------------------
Label_2_0120EAB4:
 BYTE   W96
// 005   ----------------------------------------
 BYTE   W96
// 006   ----------------------------------------
 BYTE   W96
// 007   ----------------------------------------
 BYTE   W96
// 008   ----------------------------------------
 BYTE   W96
// 009   ----------------------------------------
 BYTE   W96
// 010   ----------------------------------------
 BYTE   N06  As3  v096
 BYTE   W06
 BYTE   Fn3
 BYTE   W06
 BYTE   Ds4  v092
 BYTE   W06
 BYTE   Fn4  v096
 BYTE   W06
 BYTE   Cs4  v092
 BYTE   W06
 BYTE   Gs3
 BYTE   W06
 BYTE   Ds3  v068
 BYTE   W06
 BYTE   As3  v072
 BYTE   W06
 BYTE   Ds4  v096
 BYTE   W06
 BYTE   Fn3  v092
 BYTE   W06
 BYTE   As3
 BYTE   W06
 BYTE   Ds4  v096
 BYTE   W06
 BYTE   Gs4  v092
 BYTE   W06
 BYTE   As3  v096
 BYTE   W06
 BYTE   Ds4  v092
 BYTE   W06
 BYTE   Fn4  v096
 BYTE   W06
// 011   ----------------------------------------
 BYTE   Gs3  v100
 BYTE   W06
 BYTE   Gn3  v096
 BYTE   W06
 BYTE   Fn4  v092
 BYTE   W06
 BYTE   Cs4  v100
 BYTE   W06
 BYTE   As3  v096
 BYTE   W06
 BYTE   Fn3  v104
 BYTE   W06
 BYTE   As3  v100
 BYTE   W06
 BYTE   Cs4
 BYTE   W06
 BYTE   Gn4  v104
 BYTE   W06
 BYTE   As3  v100
 BYTE   W06
 BYTE   Cs4  v096
 BYTE   W06
 BYTE   Ds4
 BYTE   W06
 BYTE   As4  v127
 BYTE   W06
 BYTE   As3  v104
 BYTE   W06
 BYTE   Ds4  v100
 BYTE   W06
 BYTE   Ds3  v112
 BYTE   W06
// 012   ----------------------------------------
 BYTE   Gs3  v100
 BYTE   W06
 BYTE   As3  v096
 BYTE   W06
 BYTE   Cn4  v100
 BYTE   W06
 BYTE   Cs4  v096
 BYTE   W06
 BYTE   As3  v104
 BYTE   W06
 BYTE   Cn4  v100
 BYTE   W06
 BYTE   Cs4  v104
 BYTE   W06
 BYTE   Ds4  v108
 BYTE   W06
 BYTE   Cn4  v100
 BYTE   W06
 BYTE   Cs4  v108
 BYTE   W06
 BYTE   Ds4
 BYTE   W06
 BYTE   Gs4  v116
 BYTE   W06
 BYTE   Fn4  v104
 BYTE   W06
 BYTE   Ds4  v116
 BYTE   W06
 BYTE   Cs4  v112
 BYTE   W06
 BYTE   Ds4
 BYTE   W06
// 013   ----------------------------------------
 BYTE   En4  v120
 BYTE   W06
 BYTE   Cs4  v116
 BYTE   W06
 BYTE   En4
 BYTE   W06
 BYTE   Gn4  v120
 BYTE   W06
 BYTE   Cn5  v127
 BYTE   W06
 BYTE   Gn4  v124
 BYTE   W06
 BYTE   Cn5
 BYTE   W06
 BYTE   Dn5
 BYTE   W06
 BYTE   En5  v127
 BYTE   W06
 BYTE   Dn5  v116
 BYTE   W06
 BYTE   N04  Cn5  v124
 BYTE   W04
 BYTE   As4  v120
 BYTE   W04
 BYTE   Gn4  v116
 BYTE   W04
 BYTE   En4  v112
 BYTE   W04
 BYTE   Dn4  v108
 BYTE   W04
 BYTE   Cn4
 BYTE   W04
 BYTE   As3  v104
 BYTE   W04
 BYTE   Gn3
 BYTE   W04
 BYTE   En3
 BYTE   W04
// 014   ----------------------------------------
 BYTE   N96  Cs3  v127
 BYTE   W01
 BYTE   W01
 BYTE   W01
 BYTE   W01
 BYTE   W01
 BYTE   W01
 BYTE   W02
 BYTE   W01
 BYTE   W01
 BYTE   W01
 BYTE   W01
 BYTE   W01
 BYTE   W01
 BYTE   W02
 BYTE   W01
 BYTE   W01
 BYTE   W01
 BYTE   W01
 BYTE   W01
 BYTE   W01
 BYTE   W02
 BYTE   W01
 BYTE   W01
 BYTE   W01
 BYTE   W01
 BYTE   W01
 BYTE   W01
 BYTE   W01
 BYTE   W02
 BYTE   W01
 BYTE   W01
 BYTE   W01
 BYTE   W02
 BYTE   W01
 BYTE   W02
 BYTE   W01
 BYTE   W01
 BYTE   W02
 BYTE   W01
 BYTE   W02
 BYTE   W01
 BYTE   W02
 BYTE   W01
 BYTE   W11
 BYTE   W04
 BYTE   W03
 BYTE   W04
 BYTE   W01
 BYTE   W01
 BYTE   W01
 BYTE   W01
 BYTE   W01
 BYTE   W01
 BYTE   W01
 BYTE   W01
 BYTE   W01
 BYTE   W01
 BYTE   W01
 BYTE   W01
 BYTE   W01
 BYTE   W01
 BYTE   W01
 BYTE   W01
 BYTE   W01
 BYTE   W01
 BYTE   W01
 BYTE   W01
 BYTE   W01
 BYTE   W01
// 015   ----------------------------------------
 BYTE   Cn3
 BYTE   W01
 BYTE   W01
 BYTE   W01
 BYTE   W01
 BYTE   W02
 BYTE   W01
 BYTE   W01
 BYTE   W01
 BYTE   W01
 BYTE   W02
 BYTE   W01
 BYTE   W01
 BYTE   W01
 BYTE   W01
 BYTE   W01
 BYTE   W01
 BYTE   W02
 BYTE   W01
 BYTE   W01
 BYTE   W01
 BYTE   W01
 BYTE   W02
 BYTE   W01
 BYTE   W01
 BYTE   W01
 BYTE   W01
 BYTE   W01
 BYTE   W02
 BYTE   W01
 BYTE   W01
 BYTE   W01
 BYTE   W01
 BYTE   W02
 BYTE   W01
 BYTE   W01
 BYTE   W01
 BYTE   W01
 BYTE   W02
 BYTE   W01
 BYTE   W01
 BYTE   W01
 BYTE   W02
 BYTE   W01
 BYTE   W01
 BYTE   W02
 BYTE   W01
 BYTE   W01
 BYTE   W01
 BYTE   W15
 BYTE   W01
 BYTE   W02
 BYTE   W02
 BYTE   W01
 BYTE   W02
 BYTE   W01
 BYTE   W01
 BYTE   W01
 BYTE   W01
 BYTE   W01
 BYTE   W01
 BYTE   W01
 BYTE   W01
 BYTE   W01
 BYTE   W01
 BYTE   W01
 BYTE   W01
 BYTE   W01
 BYTE   W01
 BYTE   W01
 BYTE   W01
// 016   ----------------------------------------
 BYTE   Cs3
 BYTE   N96  Fs3  v064
 BYTE   N96  As3  v096
 BYTE   W01
 BYTE   W01
 BYTE   W01
 BYTE   W01
 BYTE   W02
 BYTE   W01
 BYTE   W01
 BYTE   W01
 BYTE   W01
 BYTE   W02
 BYTE   W01
 BYTE   W01
 BYTE   W01
 BYTE   W01
 BYTE   W02
 BYTE   W01
 BYTE   W01
 BYTE   W01
 BYTE   W01
 BYTE   W01
 BYTE   W01
 BYTE   W01
 BYTE   W01
 BYTE   W01
 BYTE   W02
 BYTE   W01
 BYTE   W01
 BYTE   W01
 BYTE   W01
 BYTE   W01
 BYTE   W01
 BYTE   W01
 BYTE   W01
 BYTE   W01
 BYTE   W02
 BYTE   W01
 BYTE   W01
 BYTE   W01
 BYTE   W01
 BYTE   W02
 BYTE   W01
 BYTE   W01
 BYTE   W01
 BYTE   W01
 BYTE   W30
 BYTE   W01
 BYTE   W01
 BYTE   W01
 BYTE   W01
 BYTE   W01
 BYTE   W01
 BYTE   W01
 BYTE   W01
 BYTE   W01
 BYTE   W01
 BYTE   W01
 BYTE   W01
 BYTE   W01
 BYTE   W01
 BYTE   W01
 BYTE   W01
// 017   ----------------------------------------
 BYTE   Ds3  v127
 BYTE   N96  Gs3  v064
 BYTE   N96  Cn4  v100
 BYTE   W02
 BYTE   W01
 BYTE   W02
 BYTE   W02
 BYTE   W02
 BYTE   W01
 BYTE   W02
 BYTE   W02
 BYTE   W02
 BYTE   W01
 BYTE   W02
 BYTE   W02
 BYTE   W02
 BYTE   W02
 BYTE   W01
 BYTE   W02
 BYTE   W02
 BYTE   W03
 BYTE   W02
 BYTE   W02
 BYTE   W03
 BYTE   W02
 BYTE   W02
 BYTE   W03
 BYTE   W02
 BYTE   W02
 BYTE   W02
 BYTE   W28
 BYTE   W01
 BYTE   W01
 BYTE   W01
 BYTE   W01
 BYTE   W01
 BYTE   W01
 BYTE   W01
 BYTE   W01
 BYTE   W01
 BYTE   W01
 BYTE   W01
 BYTE   W01
 BYTE   W01
 BYTE   W01
 BYTE   W01
// 018   ----------------------------------------
 BYTE   Gs3  v127
 BYTE   N96  Cs4
 BYTE   N96  En4
 BYTE   W01
 BYTE   W02
 BYTE   W02
 BYTE   W02
 BYTE   W01
 BYTE   W02
 BYTE   W02
 BYTE   W01
 BYTE   W02
 BYTE   W02
 BYTE   W02
 BYTE   W02
 BYTE   W01
 BYTE   W02
 BYTE   W02
 BYTE   W02
 BYTE   W02
 BYTE   W01
 BYTE   W02
 BYTE   W02
 BYTE   W02
 BYTE   W01
 BYTE   W02
 BYTE   W02
 BYTE   W01
 BYTE   W03
 BYTE   W03
 BYTE   W03
 BYTE   W02
 BYTE   W03
 BYTE   W03
 BYTE   W02
 BYTE   W03
 BYTE   W14
 BYTE   W01
 BYTE   W01
 BYTE   W01
 BYTE   W01
 BYTE   W01
 BYTE   W01
 BYTE   W01
 BYTE   W01
 BYTE   W01
 BYTE   W01
 BYTE   W01
 BYTE   W01
 BYTE   W01
 BYTE   W01
 BYTE   W01
 BYTE   W01
 BYTE   W01
// 019   ----------------------------------------
 BYTE   As3
 BYTE   N96  Cs4
 BYTE   N96  Fs4
 BYTE   W01
 BYTE   W02
 BYTE   W01
 BYTE   W02
 BYTE   W02
 BYTE   W02
 BYTE   W01
 BYTE   W02
 BYTE   W02
 BYTE   W02
 BYTE   W01
 BYTE   W02
 BYTE   W02
 BYTE   W02
 BYTE   W01
 BYTE   W02
 BYTE   W02
 BYTE   W02
 BYTE   W01
 BYTE   W02
 BYTE   W02
 BYTE   W02
 BYTE   W01
 BYTE   W02
 BYTE   W02
 BYTE   W02
 BYTE   W01
 BYTE   W02
 BYTE   W20
 BYTE   W01
 BYTE   W02
 BYTE   W01
 BYTE   W02
 BYTE   W02
 BYTE   W01
 BYTE   W02
 BYTE   W01
 BYTE   W01
 BYTE   W01
 BYTE   W01
 BYTE   W01
 BYTE   W01
 BYTE   W01
 BYTE   W01
 BYTE   W01
 BYTE   W01
 BYTE   W01
 BYTE   W01
 BYTE   W01
 BYTE   W01
 BYTE   W01
 BYTE   W01
 BYTE   W01
// 020   ----------------------------------------
 BYTE   Bn3
 BYTE   N96  En4
 BYTE   N96  Gn4
 BYTE   W01
 BYTE   W01
 BYTE   W01
 BYTE   W02
 BYTE   W01
 BYTE   W01
 BYTE   W02
 BYTE   W01
 BYTE   W01
 BYTE   W01
 BYTE   W02
 BYTE   W01
 BYTE   W02
 BYTE   W01
 BYTE   W01
 BYTE   W01
 BYTE   W02
 BYTE   W01
 BYTE   W01
 BYTE   W02
 BYTE   W01
 BYTE   W01
 BYTE   W01
 BYTE   W02
 BYTE   W02
 BYTE   W02
 BYTE   W02
 BYTE   W02
 BYTE   W02
 BYTE   W02
 BYTE   W02
 BYTE   W02
 BYTE   W02
 BYTE   W02
 BYTE   W02
 BYTE   W01
 BYTE   W23
 BYTE   W01
 BYTE   W01
 BYTE   W01
 BYTE   W01
 BYTE   W01
 BYTE   W01
 BYTE   W01
 BYTE   W01
 BYTE   W01
 BYTE   W01
 BYTE   W01
 BYTE   W01
 BYTE   W01
 BYTE   W01
 BYTE   W01
 BYTE   W01
 BYTE   W01
 BYTE   W01
 BYTE   W01
// 021   ----------------------------------------
 BYTE   Cs4
 BYTE   N96  En4
 BYTE   N96  An4
 BYTE   W01
 BYTE   W02
 BYTE   W01
 BYTE   W02
 BYTE   W02
 BYTE   W01
 BYTE   W02
 BYTE   W02
 BYTE   W01
 BYTE   W02
 BYTE   W01
 BYTE   W02
 BYTE   W02
 BYTE   W01
 BYTE   W02
 BYTE   W02
 BYTE   W01
 BYTE   W02
 BYTE   W01
 BYTE   W02
 BYTE   W02
 BYTE   W01
 BYTE   W02
 BYTE   W02
 BYTE   W01
 BYTE   W02
 BYTE   W02
 BYTE   W01
 BYTE   W02
 BYTE   W01
 BYTE   W02
 BYTE   W01
 BYTE   W28
 BYTE   W01
 BYTE   W01
 BYTE   W01
 BYTE   W01
 BYTE   W01
 BYTE   W01
 BYTE   W01
 BYTE   W01
 BYTE   W01
 BYTE   W01
 BYTE   W01
 BYTE   W01
 BYTE   W01
 BYTE   W01
 BYTE   W01
 BYTE   W01
 BYTE   W01
// 022   ----------------------------------------
 BYTE   W96
// 023   ----------------------------------------
 BYTE   W92
 BYTE   W03
 BYTE   W01
// 024   ----------------------------------------
 BYTE   An3
 BYTE   N96  Cs4
 BYTE   N96  En4
 BYTE   W01
 BYTE   W01
 BYTE   W02
 BYTE   W01
 BYTE   W02
 BYTE   W01
 BYTE   W02
 BYTE   W01
 BYTE   W02
 BYTE   W01
 BYTE   W02
 BYTE   W01
 BYTE   W02
 BYTE   W01
 BYTE   W02
 BYTE   W01
 BYTE   W02
 BYTE   W01
 BYTE   W02
 BYTE   W01
 BYTE   W02
 BYTE   W01
 BYTE   W02
 BYTE   W02
 BYTE   W01
 BYTE   W01
 BYTE   W02
 BYTE   W02
 BYTE   W01
 BYTE   W02
 BYTE   W01
 BYTE   W02
 BYTE   W01
 BYTE   W02
 BYTE   W01
 BYTE   W02
 BYTE   W01
 BYTE   W02
 BYTE   W01
 BYTE   W02
 BYTE   W01
 BYTE   W16
 BYTE   W01
 BYTE   W01
 BYTE   W01
 BYTE   W01
 BYTE   W01
 BYTE   W01
 BYTE   W01
 BYTE   W01
 BYTE   W01
 BYTE   W01
 BYTE   W01
 BYTE   W01
 BYTE   W01
 BYTE   W01
 BYTE   W01
 BYTE   W01
 BYTE   W01
 BYTE   W01
 BYTE   W01
// 025   ----------------------------------------
 BYTE   Fs3
 BYTE   N96  Gs3
 BYTE   N96  Bn3
 BYTE   N96  Ds4
 BYTE   N96  Fs4
 BYTE   W01
 BYTE   W01
 BYTE   W02
 BYTE   W01
 BYTE   W01
 BYTE   W01
 BYTE   W01
 BYTE   W02
 BYTE   W01
 BYTE   W01
 BYTE   W01
 BYTE   W01
 BYTE   W02
 BYTE   W01
 BYTE   W01
 BYTE   W01
 BYTE   W02
 BYTE   W01
 BYTE   W01
 BYTE   W01
 BYTE   W01
 BYTE   W02
 BYTE   W01
 BYTE   W01
 BYTE   W01
 BYTE   W01
 BYTE   W02
 BYTE   W01
 BYTE   W01
 BYTE   W01
 BYTE   W02
 BYTE   W01
 BYTE   W01
 BYTE   W01
 BYTE   W01
 BYTE   W02
 BYTE   W01
 BYTE   W01
 BYTE   W01
 BYTE   W01
 BYTE   W02
 BYTE   W01
 BYTE   W01
 BYTE   W01
 BYTE   W01
 BYTE   W21
 BYTE   W01
 BYTE   W01
 BYTE   W01
 BYTE   W01
 BYTE   W01
 BYTE   W02
 BYTE   W01
 BYTE   W01
 BYTE   W01
 BYTE   W01
 BYTE   W01
 BYTE   W01
 BYTE   W01
 BYTE   W01
 BYTE   W01
 BYTE   W01
 BYTE   W01
 BYTE   W01
 BYTE   W01
 BYTE   W01
// 026   ----------------------------------------
 BYTE   Gs3
 BYTE   N96  Cs4
 BYTE   N96  Fn4
 BYTE   N96  Gs4
 BYTE   W01
 BYTE   W01
 BYTE   W02
 BYTE   W01
 BYTE   W01
 BYTE   W01
 BYTE   W02
 BYTE   W01
 BYTE   W01
 BYTE   W01
 BYTE   W01
 BYTE   W02
 BYTE   W01
 BYTE   W01
 BYTE   W01
 BYTE   W02
 BYTE   W01
 BYTE   W01
 BYTE   W01
 BYTE   W02
 BYTE   W01
 BYTE   W01
 BYTE   W01
 BYTE   W02
 BYTE   W01
 BYTE   W01
 BYTE   W01
 BYTE   W01
 BYTE   W02
 BYTE   W01
 BYTE   W01
 BYTE   W02
 BYTE   W01
 BYTE   W01
 BYTE   W01
 BYTE   W02
 BYTE   W01
 BYTE   W01
 BYTE   W01
 BYTE   W02
 BYTE   W01
 BYTE   W01
 BYTE   W01
 BYTE   W01
 BYTE   W02
 BYTE   W14
 BYTE   W03
 BYTE   W04
 BYTE   W01
 BYTE   W01
 BYTE   W01
 BYTE   W01
 BYTE   W01
 BYTE   W01
 BYTE   W01
 BYTE   W01
 BYTE   W01
 BYTE   W01
 BYTE   W01
 BYTE   W01
 BYTE   W01
 BYTE   W01
 BYTE   W01
 BYTE   W01
 BYTE   W01
 BYTE   W01
 BYTE   W01
// 027   ----------------------------------------
 BYTE   As3
 BYTE   N96  Cn4
 BYTE   N96  Ds4
 BYTE   N96  Gn4
 BYTE   W02
 BYTE   W01
 BYTE   W01
 BYTE   W01
 BYTE   W01
 BYTE   W01
 BYTE   W02
 BYTE   W01
 BYTE   W01
 BYTE   W01
 BYTE   W01
 BYTE   W01
 BYTE   W01
 BYTE   W02
 BYTE   W01
 BYTE   W01
 BYTE   W01
 BYTE   W01
 BYTE   W01
 BYTE   W01
 BYTE   W01
 BYTE   W02
 BYTE   W01
 BYTE   W01
 BYTE   W01
 BYTE   W01
 BYTE   W01
 BYTE   W02
 BYTE   W01
 BYTE   W01
 BYTE   W01
 BYTE   W01
 BYTE   W01
 BYTE   W01
 BYTE   W02
 BYTE   W01
 BYTE   W01
 BYTE   W01
 BYTE   W01
 BYTE   W01
 BYTE   W01
 BYTE   W02
 BYTE   W01
 BYTE   W01
 BYTE   W01
 BYTE   W01
 BYTE   W01
 BYTE   W18
 BYTE   W01
 BYTE   W01
 BYTE   W01
 BYTE   W01
 BYTE   W01
 BYTE   W01
 BYTE   W01
 BYTE   W01
 BYTE   W01
 BYTE   W01
 BYTE   W01
 BYTE   W01
 BYTE   W01
 BYTE   W01
 BYTE   W01
 BYTE   W01
 BYTE   W01
 BYTE   W01
 BYTE   W01
 BYTE   W01
 BYTE   W01
 BYTE   W01
 BYTE   W01
 BYTE   W01
// 028   ----------------------------------------
 BYTE   GoTo
  POIN2 Label_2_0120EAB4
 BYTE   FINE

//**************** Track 4 (Midi-Chn.3) ****************//

SuperSmashBrosMeleeTrophyTussleMrGreen3339_004:
// 000   ----------------------------------------
 BYTE   KEYSH   SuperSmashBrosMeleeTrophyTussleMrGreen3339_key+0
 BYTE   VOICE   59
 BYTE   VOL   42*SuperSmashBrosMeleeTrophyTussleMrGreen3339_mvl/mxv
 BYTE   PAN   c_v+11
 BYTE   W96
// 001   ----------------------------------------
 BYTE   W96
// 002   ----------------------------------------
 BYTE   W96
// 003   ----------------------------------------
 BYTE   W96
// 004   ----------------------------------------
Label_3_0120EEA4:
 BYTE   W96
// 005   ----------------------------------------
 BYTE   W96
// 006   ----------------------------------------
 BYTE   W96
// 007   ----------------------------------------
 BYTE   W96
// 008   ----------------------------------------
 BYTE   W96
// 009   ----------------------------------------
 BYTE   W96
// 010   ----------------------------------------
 BYTE   W96
// 011   ----------------------------------------
 BYTE   W96
// 012   ----------------------------------------
 BYTE   W96
// 013   ----------------------------------------
 BYTE   W96
// 014   ----------------------------------------
 BYTE   W96
// 015   ----------------------------------------
 BYTE   W96
// 016   ----------------------------------------
 BYTE   W96
// 017   ----------------------------------------
 BYTE   W96
// 018   ----------------------------------------
 BYTE   W96
// 019   ----------------------------------------
 BYTE   W96
// 020   ----------------------------------------
 BYTE   W96
// 021   ----------------------------------------
 BYTE   W72
 BYTE   N12  An4  v127
 BYTE   W12
 BYTE   Bn4
 BYTE   W12
// 022   ----------------------------------------
 BYTE   N24  Cs5
 BYTE   W36
 BYTE   N06  Bn4
 BYTE   W36
 BYTE   N42  Fs4
 BYTE   W24
// 023   ----------------------------------------
 BYTE   W48
 BYTE   N16  Gs4
 BYTE   W16
 BYTE   N14  Bn4
 BYTE   W14
 BYTE   N18  An4
 BYTE   W18
// 024   ----------------------------------------
 BYTE   TIE  Gs4
 BYTE   W28
 BYTE   W01
 BYTE   W04
 BYTE   W05
 BYTE   W05
 BYTE   W04
 BYTE   W05
 BYTE   W04
 BYTE   W05
 BYTE   W04
 BYTE   W05
 BYTE   W05
 BYTE   W04
 BYTE   W05
 BYTE   W04
 BYTE   W01
 BYTE   W02
 BYTE   W01
 BYTE   W01
 BYTE   W02
 BYTE   W01
// 025   ----------------------------------------
 BYTE   W02
 BYTE   W01
 BYTE   W01
 BYTE   W02
 BYTE   W01
 BYTE   W01
 BYTE   W02
 BYTE   W01
 BYTE   W01
 BYTE   W02
 BYTE   W01
 BYTE   W01
 BYTE   W02
 BYTE   W01
 BYTE   W02
 BYTE   W01
 BYTE   W01
 BYTE   W02
 BYTE   W01
 BYTE   W01
 BYTE   W02
 BYTE   W01
 BYTE   W01
 BYTE   W02
 BYTE   W01
 BYTE   W01
 BYTE   W02
 BYTE   W01
 BYTE   W01
 BYTE   W02
 BYTE   W01
 BYTE   W01
 BYTE   W01
 BYTE   W01
 BYTE   W01
 BYTE   W01
 BYTE   W01
 BYTE   W01
 BYTE   W01
 BYTE   W01
 BYTE   W01
 BYTE   W01
 BYTE   W01
 BYTE   W01
 BYTE   W01
 BYTE   W01
 BYTE   W01
 BYTE   W01
 BYTE   W01
 BYTE   W01
 BYTE   W01
 BYTE   W01
 BYTE   W01
 BYTE   W01
 BYTE   W01
 BYTE   W01
 BYTE   W01
 BYTE   W01
 BYTE   W01
 BYTE   W01
 BYTE   W01
 BYTE   W01
 BYTE   W01
 BYTE   W01
 BYTE   W01
 BYTE   W01
 BYTE   W01
 BYTE   W01
 BYTE   W01
 BYTE   W01
 BYTE   W01
 BYTE   W01
 BYTE   W01
 BYTE   W01
 BYTE   W01
 BYTE   W01
 BYTE   W01
 BYTE   W01
 BYTE   W01
 BYTE   W01
 BYTE   W01
 BYTE   W01
 BYTE   EOT
 BYTE   W03
// 026   ----------------------------------------
 BYTE   W96
// 027   ----------------------------------------
 BYTE   W96
// 028   ----------------------------------------
 BYTE   GoTo
  POIN2 Label_3_0120EEA4
 BYTE   FINE

//**************** Track 5 (Midi-Chn.4) ****************//

SuperSmashBrosMeleeTrophyTussleMrGreen3339_005:
// 000   ----------------------------------------
 BYTE   KEYSH   SuperSmashBrosMeleeTrophyTussleMrGreen3339_key+0
 BYTE   VOICE   6
 BYTE   VOL   22*SuperSmashBrosMeleeTrophyTussleMrGreen3339_mvl/mxv
 BYTE   PAN   c_v-25
 BYTE   N09  Cs2  v127
 BYTE   N09  Fn2
 BYTE   N09  As2
 BYTE   W12
 BYTE   Cs2  v096
 BYTE   N09  Fn2
 BYTE   N09  As2
 BYTE   W12
 BYTE   Cs2  v112
 BYTE   N09  Fn2
 BYTE   N09  As2
 BYTE   W12
 BYTE   N15  Cs2  v127
 BYTE   N15  Fn2
 BYTE   N15  As2
 BYTE   W24
 BYTE   N09  Cs2  v100
 BYTE   N09  Fn2
 BYTE   N09  As2
 BYTE   W12
 BYTE   N15  Cs2  v127
 BYTE   N15  Fn2
 BYTE   N15  As2
 BYTE   W24
// 001   ----------------------------------------
Label_4_0120EF7A:
 BYTE   N09  Ds2  v127
 BYTE   N09  Gn2
 BYTE   N09  As2
 BYTE   W12
 BYTE   Ds2  v096
 BYTE   N09  Gn2
 BYTE   N09  As2
 BYTE   W12
 BYTE   Ds2  v112
 BYTE   N09  Gn2
 BYTE   N09  As2
 BYTE   W12
 BYTE   N15  Ds2  v127
 BYTE   N15  Gn2
 BYTE   N15  As2
 BYTE   W24
 BYTE   N09  Ds2  v100
 BYTE   N09  Gn2
 BYTE   N09  As2
 BYTE   W12
 BYTE   N15  Ds2  v127
 BYTE   N15  Gn2
 BYTE   N15  As2
 BYTE   W24
 BYTE   PEND 
// 002   ----------------------------------------
Label_4_0120EFA9:
 BYTE   N09  Fn2  v127
 BYTE   N09  Gs2
 BYTE   N09  As2
 BYTE   W12
 BYTE   Fn2  v096
 BYTE   N09  Gs2
 BYTE   N09  As2
 BYTE   W12
 BYTE   Fn2  v112
 BYTE   N09  Gs2
 BYTE   N09  As2
 BYTE   W12
 BYTE   N15  Fn2  v127
 BYTE   N15  Gs2
 BYTE   N15  As2
 BYTE   W24
 BYTE   N09  Fn2  v100
 BYTE   N09  Gs2
 BYTE   N09  As2
 BYTE   W12
 BYTE   N15  Fn2  v127
 BYTE   N15  Gs2
 BYTE   N15  As2
 BYTE   W24
 BYTE   PEND 
// 003   ----------------------------------------
 BYTE   N09  Ds2
 BYTE   N09  Gn2
 BYTE   N09  As2
 BYTE   W12
 BYTE   Ds2  v100
 BYTE   N09  Gn2
 BYTE   N09  As2
 BYTE   W12
 BYTE   Ds2  v112
 BYTE   N09  Gn2
 BYTE   N09  As2
 BYTE   W12
 BYTE   N15  Ds2  v127
 BYTE   N15  Gn2
 BYTE   N15  As2
 BYTE   W24
 BYTE   N09  Ds2  v096
 BYTE   N09  Gn2
 BYTE   N09  As2
 BYTE   W12
 BYTE   N15  Ds2  v127
 BYTE   N15  Gn2
 BYTE   N15  As2
 BYTE   W24
// 004   ----------------------------------------
Label_4_0120F005:
 BYTE   N09  Cs2  v127
 BYTE   N09  Fn2
 BYTE   N09  As2
 BYTE   W12
 BYTE   Cs2  v100
 BYTE   N09  Fn2
 BYTE   N09  As2
 BYTE   W12
 BYTE   Cs2  v112
 BYTE   N09  Fn2
 BYTE   N09  As2
 BYTE   W12
 BYTE   N15  Cs2  v127
 BYTE   N15  Fn2
 BYTE   N15  As2
 BYTE   W24
 BYTE   N09  Cs2  v100
 BYTE   N09  Fn2
 BYTE   N09  As2
 BYTE   W12
 BYTE   N15  Cs2  v127
 BYTE   N15  Fn2
 BYTE   N15  As2
 BYTE   W24
// 005   ----------------------------------------
 BYTE   N09  Ds2
 BYTE   N09  Gn2
 BYTE   N09  As2
 BYTE   W12
 BYTE   Ds2  v100
 BYTE   N09  Gn2
 BYTE   N09  As2
 BYTE   W12
 BYTE   Ds2  v112
 BYTE   N09  Gn2
 BYTE   N09  As2
 BYTE   W12
 BYTE   N15  Ds2  v127
 BYTE   N15  Gn2
 BYTE   N15  As2
 BYTE   W24
 BYTE   N09  Ds2  v100
 BYTE   N09  Gn2
 BYTE   N09  As2
 BYTE   W12
 BYTE   N15  Ds2  v127
 BYTE   N15  Gn2
 BYTE   N15  As2
 BYTE   W24
// 006   ----------------------------------------
 BYTE   N09  Fn2
 BYTE   N09  Gs2
 BYTE   N09  As2
 BYTE   W12
 BYTE   Fn2  v096
 BYTE   N09  Gs2
 BYTE   N09  As2
 BYTE   W12
 BYTE   Fn2  v112
 BYTE   N09  Gs2
 BYTE   N09  As2
 BYTE   W12
 BYTE   N15  Fn2  v127
 BYTE   N15  Gs2
 BYTE   N15  As2
 BYTE   W24
 BYTE   N09  Fn2  v096
 BYTE   N09  Gs2
 BYTE   N09  As2
 BYTE   W12
 BYTE   N15  Fn2  v127
 BYTE   N15  Gs2
 BYTE   N15  As2
 BYTE   W24
// 007   ----------------------------------------
 BYTE   N09  Ds2
 BYTE   N09  Fs2
 BYTE   N09  Bn2
 BYTE   W12
 BYTE   Ds2  v100
 BYTE   N09  Fs2
 BYTE   N09  Bn2
 BYTE   W12
 BYTE   Ds2  v112
 BYTE   N09  Fs2
 BYTE   N09  Bn2
 BYTE   W12
 BYTE   N15  Ds2  v127
 BYTE   N15  Fs2
 BYTE   N15  Bn2
 BYTE   W24
 BYTE   N09  Ds2  v100
 BYTE   N09  Fs2
 BYTE   N09  Bn2
 BYTE   W12
 BYTE   N15  Ds2  v127
 BYTE   N15  Fs2
 BYTE   N15  Bn2
 BYTE   W24
// 008   ----------------------------------------
 BYTE   N36  Ds2
 BYTE   N36  Fn2
 BYTE   N36  Gs2
 BYTE   N36  Gs3
 BYTE   W36
 BYTE   Fn2
 BYTE   N36  Gs2
 BYTE   N36  As2
 BYTE   N36  As3
 BYTE   W36
 BYTE   N48  Bn1
 BYTE   N48  Dn2
 BYTE   N48  Fs2
 BYTE   N48  Fs3
 BYTE   W24
// 009   ----------------------------------------
 BYTE   W24
 BYTE   N72  Cs2
 BYTE   N72  En2
 BYTE   N72  Bn2
 BYTE   N72  Cs3
 BYTE   N72  En3
 BYTE   W72
// 010   ----------------------------------------
 BYTE   N09  Cs2
 BYTE   N09  Fn2
 BYTE   N09  As2
 BYTE   W12
 BYTE   Cs2  v096
 BYTE   N09  Fn2
 BYTE   N09  As2
 BYTE   W12
 BYTE   Cs2  v112
 BYTE   N09  Fn2
 BYTE   N09  As2
 BYTE   W12
 BYTE   N15  Cs2  v127
 BYTE   N15  Fn2
 BYTE   N15  As2
 BYTE   W24
 BYTE   N09  Cs2  v100
 BYTE   N09  Fn2
 BYTE   N09  As2
 BYTE   W12
 BYTE   N15  Cs2  v127
 BYTE   N15  Fn2
 BYTE   N15  As2
 BYTE   W24
 BYTE   PATT
  POIN2 Label_4_0120EF7A
 BYTE   PATT
  POIN2 Label_4_0120EFA9
// 011   ----------------------------------------
 BYTE   N09  En2  v108
 BYTE   N09  Gn2
 BYTE   N09  Cn3
 BYTE   N09  En3
 BYTE   W12
 BYTE   En2  v100
 BYTE   N09  Gn2
 BYTE   N09  Cn3
 BYTE   N09  En3
 BYTE   W12
 BYTE   En2  v112
 BYTE   N09  Gn2
 BYTE   N09  Cn3
 BYTE   N09  En3
 BYTE   W12
 BYTE   N15  En2  v127
 BYTE   N15  Gn2
 BYTE   N15  Cn3
 BYTE   N15  En3
 BYTE   N15  Gn3  v084
 BYTE   W24
 BYTE   N09  En2  v120
 BYTE   N09  Gn2
 BYTE   N09  Cn3
 BYTE   N09  En3
 BYTE   N09  Gn3
 BYTE   W12
 BYTE   N15  En2  v127
 BYTE   N15  Gn2
 BYTE   N15  Cn3
 BYTE   N15  En3
 BYTE   N15  Gn3
 BYTE   W24
// 012   ----------------------------------------
Label_4_0120F158:
 BYTE   N09  Fs2  v127
 BYTE   N09  As2
 BYTE   N09  Ds3
 BYTE   W12
 BYTE   Fs2  v096
 BYTE   N09  As2
 BYTE   N09  Ds3
 BYTE   W12
 BYTE   Fs2  v112
 BYTE   N09  As2
 BYTE   N09  Ds3
 BYTE   W12
 BYTE   N15  Fs2  v127
 BYTE   N15  As2
 BYTE   N15  Ds3
 BYTE   W24
 BYTE   N09  Fs2  v100
 BYTE   N09  As2
 BYTE   N09  Ds3
 BYTE   W12
 BYTE   N15  Fs2  v127
 BYTE   N15  As2
 BYTE   N15  Ds3
 BYTE   W24
 BYTE   PEND 
// 013   ----------------------------------------
Label_4_0120F187:
 BYTE   N09  Gs2  v127
 BYTE   N09  Cn3
 BYTE   N09  Ds3
 BYTE   W12
 BYTE   Gs2  v100
 BYTE   N09  Cn3
 BYTE   N09  Ds3
 BYTE   W12
 BYTE   Gs2  v112
 BYTE   N09  Cn3
 BYTE   N09  Ds3
 BYTE   W12
 BYTE   N15  Gs2  v127
 BYTE   N15  Cn3
 BYTE   N15  Ds3
 BYTE   W24
 BYTE   N09  Gs2  v096
 BYTE   N09  Cn3
 BYTE   N09  Ds3
 BYTE   W12
 BYTE   N15  Gs2  v127
 BYTE   N15  Cn3
 BYTE   N15  Ds3
 BYTE   W24
 BYTE   PEND 
// 014   ----------------------------------------
 BYTE   N09  Fs2
 BYTE   N09  As2
 BYTE   N09  Ds3
 BYTE   W12
 BYTE   Fs2  v100
 BYTE   N09  As2
 BYTE   N09  Ds3
 BYTE   W12
 BYTE   Fs2  v112
 BYTE   N09  As2
 BYTE   N09  Ds3
 BYTE   W12
 BYTE   N15  Fs2  v127
 BYTE   N15  As2
 BYTE   N15  Ds3
 BYTE   W24
 BYTE   N09  Fs2  v100
 BYTE   N09  As2
 BYTE   N09  Ds3
 BYTE   W12
 BYTE   N15  Fs2  v127
 BYTE   N15  As2
 BYTE   N15  Ds3
 BYTE   W24
 BYTE   PATT
  POIN2 Label_4_0120F187
// 015   ----------------------------------------
 BYTE   N09  Gs2  v127
 BYTE   N09  Cs3
 BYTE   N09  En3
 BYTE   W12
 BYTE   Gs2  v100
 BYTE   N09  Cs3
 BYTE   N09  En3
 BYTE   W12
 BYTE   Gs2  v116
 BYTE   N09  Cs3
 BYTE   N09  En3
 BYTE   W12
 BYTE   N15  Gs2  v127
 BYTE   N15  Cs3
 BYTE   N15  En3
 BYTE   W24
 BYTE   N09  Gs2  v100
 BYTE   N09  Cs3
 BYTE   N09  En3
 BYTE   W12
 BYTE   N15  Gs2  v127
 BYTE   N15  Cs3
 BYTE   N15  En3
 BYTE   W24
 BYTE   PATT
  POIN2 Label_4_0120F158
// 016   ----------------------------------------
 BYTE   N09  Gn2  v127
 BYTE   N09  Bn2
 BYTE   N09  En3
 BYTE   W12
 BYTE   Gn2  v096
 BYTE   N09  Bn2
 BYTE   N09  En3
 BYTE   W12
 BYTE   Gn2  v112
 BYTE   N09  Bn2
 BYTE   N09  En3
 BYTE   W12
 BYTE   N15  Gn2  v127
 BYTE   N15  Bn2
 BYTE   N15  En3
 BYTE   W24
 BYTE   N09  Gn2  v100
 BYTE   N09  Bn2
 BYTE   N09  En3
 BYTE   W12
 BYTE   N15  Gn2  v127
 BYTE   N15  Bn2
 BYTE   N15  En3
 BYTE   W24
// 017   ----------------------------------------
 BYTE   N09  An2
 BYTE   N09  Cs3
 BYTE   N09  En3
 BYTE   W12
 BYTE   An2  v100
 BYTE   N09  Cs3
 BYTE   N09  En3
 BYTE   W12
 BYTE   An2  v112
 BYTE   N09  Cs3
 BYTE   N09  En3
 BYTE   W12
 BYTE   N15  An2  v127
 BYTE   N15  Cs3
 BYTE   N15  En3
 BYTE   W24
 BYTE   N09  An2  v100
 BYTE   N09  Cs3
 BYTE   N09  En3
 BYTE   W12
 BYTE   N15  An2  v127
 BYTE   N15  Cs3
 BYTE   N15  En3
 BYTE   W24
// 018   ----------------------------------------
 BYTE   N30  An2
 BYTE   N30  Fs3
 BYTE   N30  An3
 BYTE   N30  Dn4
 BYTE   W36
 BYTE   N15  Fs2
 BYTE   N15  Dn3
 BYTE   N15  En3
 BYTE   N15  Fs3
 BYTE   N15  Bn3
 BYTE   W36
 BYTE   TIE  Fs2
 BYTE   TIE  An2
 BYTE   TIE  Bn2
 BYTE   TIE  Dn3
 BYTE   W24
// 019   ----------------------------------------
 BYTE   W90
 BYTE   EOT
 BYTE   Fs2  v057
 BYTE   Bn2  v062
 BYTE   W06
// 020   ----------------------------------------
 BYTE   N09  Cs2
 BYTE   N09  En2
 BYTE   N09  An2
 BYTE   W12
 BYTE   Cs2  v096
 BYTE   N09  En2
 BYTE   N09  An2
 BYTE   W12
 BYTE   Cs2  v112
 BYTE   N09  En2
 BYTE   N09  An2
 BYTE   W12
 BYTE   N15  Cs2  v127
 BYTE   N15  En2
 BYTE   N15  An2
 BYTE   W24
 BYTE   N09  Cs2  v100
 BYTE   N09  En2
 BYTE   N09  An2
 BYTE   W12
 BYTE   N15  Cs2  v127
 BYTE   N15  En2
 BYTE   N15  An2
 BYTE   W24
// 021   ----------------------------------------
 BYTE   N09  Ds2
 BYTE   N09  Fs2
 BYTE   N09  Bn2
 BYTE   W12
 BYTE   Ds2  v096
 BYTE   N09  Fs2
 BYTE   N09  Bn2
 BYTE   W12
 BYTE   Ds2  v108
 BYTE   N09  Fs2
 BYTE   N09  Bn2
 BYTE   W12
 BYTE   N15  Ds2  v127
 BYTE   N15  Fs2
 BYTE   N15  Bn2
 BYTE   W24
 BYTE   N09  Ds2  v100
 BYTE   N09  Fs2
 BYTE   N09  Bn2
 BYTE   W12
 BYTE   N15  Ds2  v127
 BYTE   N15  Fs2
 BYTE   N15  Bn2
 BYTE   W24
// 022   ----------------------------------------
 BYTE   N09  Fn2
 BYTE   N09  Gs2
 BYTE   N09  Cs3
 BYTE   W12
 BYTE   Fn2  v100
 BYTE   N09  Gs2
 BYTE   N09  Cs3
 BYTE   W12
 BYTE   Fn2  v112
 BYTE   N09  Gs2
 BYTE   N09  Cs3
 BYTE   W12
 BYTE   N15  Fn2  v127
 BYTE   N15  Gs2
 BYTE   N15  Cs3
 BYTE   W24
 BYTE   N09  Fn2  v100
 BYTE   N09  Gs2
 BYTE   N09  Cs3
 BYTE   W12
 BYTE   N15  Fn2  v127
 BYTE   N15  Gs2
 BYTE   N15  Cs3
 BYTE   W24
// 023   ----------------------------------------
 BYTE   N09  Cn2
 BYTE   N09  Ds2
 BYTE   N09  Gn2
 BYTE   N09  As2
 BYTE   W12
 BYTE   Cn2  v100
 BYTE   N09  Ds2
 BYTE   N09  Gn2
 BYTE   N09  As2
 BYTE   W12
 BYTE   Cn2  v112
 BYTE   N09  Ds2
 BYTE   N09  Gn2
 BYTE   N09  As2
 BYTE   W12
 BYTE   N15  Cn2  v127
 BYTE   N15  Ds2
 BYTE   N15  Gn2
 BYTE   N15  As2
 BYTE   W24
 BYTE   N09  Cn2  v100
 BYTE   N09  Ds2
 BYTE   N09  Gn2
 BYTE   N09  As2
 BYTE   W12
 BYTE   N15  Cn2  v127
 BYTE   N15  Ds2
 BYTE   N15  Gn2
 BYTE   N15  As2
 BYTE   W24
// 024   ----------------------------------------
 BYTE   GoTo
  POIN2 Label_4_0120F005
 BYTE   FINE

//**************** Track 6 (Midi-Chn.5) ****************//

SuperSmashBrosMeleeTrophyTussleMrGreen3339_006:
// 000   ----------------------------------------
 BYTE   KEYSH   SuperSmashBrosMeleeTrophyTussleMrGreen3339_key+0
 BYTE   VOICE   32
 BYTE   VOL   19*SuperSmashBrosMeleeTrophyTussleMrGreen3339_mvl/mxv
 BYTE   PAN   c_v-28
 BYTE   N11  As0  v127
 BYTE   W12
 BYTE   N84
 BYTE   W18
 BYTE   N06  Fn1  v108
 BYTE   W06
 BYTE   N24  As1  v127
 BYTE   W24
 BYTE   N36
 BYTE   W12
 BYTE   N06  Cn2  v088
 BYTE   W06
 BYTE   Fn2  v092
 BYTE   W06
 BYTE   Cn2  v088
 BYTE   W12
// 001   ----------------------------------------
Label_5_0120F382:
 BYTE   N12  As0  v127
 BYTE   W12
 BYTE   N84
 BYTE   W18
 BYTE   N06  Fn1  v108
 BYTE   W06
 BYTE   N24  As1  v127
 BYTE   W24
 BYTE   N36
 BYTE   W12
 BYTE   N06  Cn2  v088
 BYTE   W06
 BYTE   Fn2  v092
 BYTE   W06
 BYTE   Cn2  v088
 BYTE   W12
 BYTE   PEND 
 BYTE   PATT
  POIN2 Label_5_0120F382
 BYTE   PATT
  POIN2 Label_5_0120F382
// 002   ----------------------------------------
Label_5_0120F3A7:
 BYTE   PATT
  POIN2 Label_5_0120F382
 BYTE   PATT
  POIN2 Label_5_0120F382
 BYTE   PATT
  POIN2 Label_5_0120F382
// 003   ----------------------------------------
 BYTE   N12  An0  v127
 BYTE   W12
 BYTE   N72
 BYTE   W18
 BYTE   N06  En1  v108
 BYTE   W06
 BYTE   N24  An1  v127
 BYTE   W24
 BYTE   N12
 BYTE   W12
 BYTE   N24  An1  v088
 BYTE   W06
 BYTE   N06  En1  v092
 BYTE   W06
 BYTE   An0  v088
 BYTE   W12
// 004   ----------------------------------------
 BYTE   N18  Ds1  v127
 BYTE   W18
 BYTE   N03
 BYTE   N06  Ds2
 BYTE   W06
 BYTE   Ds1
 BYTE   N06  Ds2
 BYTE   W06
 BYTE   N03  Ds1
 BYTE   W06
 BYTE   N18  Fn1
 BYTE   W18
 BYTE   N03
 BYTE   N06  Fn2
 BYTE   W06
 BYTE   Fn1
 BYTE   N06  Fn2
 BYTE   W06
 BYTE   N03  Fn1
 BYTE   W06
 BYTE   N09  En1
 BYTE   N12  En2
 BYTE   W12
 BYTE   N03  En1
 BYTE   W06
 BYTE   N06
 BYTE   W06
// 005   ----------------------------------------
 BYTE   N03
 BYTE   W06
 BYTE   N06
 BYTE   W06
 BYTE   N03
 BYTE   W06
 BYTE   N03
 BYTE   W06
 BYTE   N48  An0
 BYTE   W48
 BYTE   N06
 BYTE   W06
 BYTE   N06
 BYTE   W06
 BYTE   En1
 BYTE   W06
 BYTE   An0
 BYTE   W06
 BYTE   PATT
  POIN2 Label_5_0120F382
 BYTE   PATT
  POIN2 Label_5_0120F382
 BYTE   PATT
  POIN2 Label_5_0120F382
 BYTE   PATT
  POIN2 Label_5_0120F382
// 006   ----------------------------------------
Label_5_0120F41F:
 BYTE   N12  Ds1  v127
 BYTE   W12
 BYTE   N84
 BYTE   W18
 BYTE   N06  As1  v108
 BYTE   W06
 BYTE   N24  Ds2  v127
 BYTE   W24
 BYTE   N12
 BYTE   W12
 BYTE   N06  Ds2  v088
 BYTE   W06
 BYTE   As2  v092
 BYTE   W06
 BYTE   Ds2  v088
 BYTE   W12
 BYTE   PEND 
 BYTE   PATT
  POIN2 Label_5_0120F41F
 BYTE   PATT
  POIN2 Label_5_0120F41F
// 007   ----------------------------------------
 BYTE   N12  Ds1  v127
 BYTE   W12
 BYTE   N84
 BYTE   W18
 BYTE   N06  As1  v108
 BYTE   W06
 BYTE   N48  Ds2  v127
 BYTE   W24
 BYTE   N12  Gs2
 BYTE   W12
 BYTE   N06  Gs2  v068
 BYTE   W12
 BYTE   Ds2  v088
 BYTE   W06
 BYTE   Dn2
 BYTE   W06
// 008   ----------------------------------------
Label_5_0120F45E:
 BYTE   N12  Cs1  v127
 BYTE   W12
 BYTE   N84
 BYTE   W18
 BYTE   N06  Gs1  v108
 BYTE   W06
 BYTE   N24  Cs2  v127
 BYTE   W24
 BYTE   N12
 BYTE   W12
 BYTE   N06  Cs2  v088
 BYTE   W06
 BYTE   Gs2  v092
 BYTE   W06
 BYTE   Cs2  v088
 BYTE   W12
 BYTE   PEND 
 BYTE   PATT
  POIN2 Label_5_0120F45E
 BYTE   PATT
  POIN2 Label_5_0120F45E
// 009   ----------------------------------------
 BYTE   N12  Cs1  v127
 BYTE   W12
 BYTE   N84
 BYTE   W18
 BYTE   N06  Gs1  v108
 BYTE   W06
 BYTE   N48  Cs2  v127
 BYTE   W24
 BYTE   N12  Fs2
 BYTE   W12
 BYTE   N06  Fs2  v068
 BYTE   W12
 BYTE   Cs2  v088
 BYTE   W06
 BYTE   Cn2
 BYTE   W06
// 010   ----------------------------------------
 BYTE   N18  Bn0  v127
 BYTE   N18  Bn1
 BYTE   W18
 BYTE   N03  Bn0
 BYTE   N03  Bn1
 BYTE   W06
 BYTE   N06  Bn0
 BYTE   N06  Bn1
 BYTE   W06
 BYTE   N03  Bn0
 BYTE   N03  Bn1
 BYTE   W06
 BYTE   N24  Cs1
 BYTE   N18  Cs2
 BYTE   W36
 BYTE   N84  Cn1
 BYTE   N48  Cn2
 BYTE   W24
// 011   ----------------------------------------
 BYTE   W60
 BYTE   N06  Fs0
 BYTE   W06
 BYTE   N12  Fs1
 BYTE   W12
 BYTE   N06  Fs0
 BYTE   W06
 BYTE   N12  Cn1
 BYTE   W12
// 012   ----------------------------------------
Label_5_0120F4C9:
 BYTE   N12  Fs1  v127
 BYTE   W12
 BYTE   N84
 BYTE   W18
 BYTE   N06  Cs2  v108
 BYTE   W06
 BYTE   N24  Fs2  v127
 BYTE   W24
 BYTE   N12
 BYTE   W12
 BYTE   N06  Fs2  v088
 BYTE   W06
 BYTE   Cs3  v092
 BYTE   W06
 BYTE   Fs2  v088
 BYTE   W12
 BYTE   PEND 
 BYTE   PATT
  POIN2 Label_5_0120F4C9
 BYTE   PATT
  POIN2 Label_5_0120F41F
// 013   ----------------------------------------
 BYTE   N12  Fn1  v127
 BYTE   W12
 BYTE   N84
 BYTE   W18
 BYTE   N06  Cn2  v108
 BYTE   W06
 BYTE   N24  Fn2  v127
 BYTE   W24
 BYTE   N12
 BYTE   W12
 BYTE   N06  Fn2  v088
 BYTE   W06
 BYTE   Cn3  v092
 BYTE   W06
 BYTE   Fn2  v088
 BYTE   W12
// 014   ----------------------------------------
 BYTE   GoTo
  POIN2 Label_5_0120F3A7
 BYTE   FINE

//**************** Track 7 (Midi-Chn.6) ****************//

SuperSmashBrosMeleeTrophyTussleMrGreen3339_007:
// 000   ----------------------------------------
 BYTE   KEYSH   SuperSmashBrosMeleeTrophyTussleMrGreen3339_key+0
 BYTE   VOICE   127
 BYTE   VOL   33*SuperSmashBrosMeleeTrophyTussleMrGreen3339_mvl/mxv
 BYTE   N06  Gs1  v127
 BYTE   N06  Cs3  v072
 BYTE   W06
 BYTE   Gs1  v124
 BYTE   W06
 BYTE   Gs1  v080
 BYTE   W06
 BYTE   Gs1  v116
 BYTE   N06  Cn3  v127
 BYTE   W06
 BYTE   Gs1  v116
 BYTE   N24  Cn3  v127
 BYTE   W06
 BYTE   N06  Gs1  v080
 BYTE   W06
 BYTE   Gs1  v116
 BYTE   N06  Cs3  v048
 BYTE   W06
 BYTE   Gs1  v084
 BYTE   N06  Cs3  v104
 BYTE   W06
 BYTE   Gs1  v124
 BYTE   W06
 BYTE   N06
 BYTE   W06
 BYTE   Gs1  v084
 BYTE   N06  Cn3  v060
 BYTE   W06
 BYTE   Gs1  v120
 BYTE   W06
 BYTE   Gs1  v116
 BYTE   N18  En2  v072
 BYTE   N18  Gn2  v100
 BYTE   N06  Cn3  v127
 BYTE   W06
 BYTE   Gs1  v080
 BYTE   N06  Cn3  v076
 BYTE   W06
 BYTE   Gs1  v120
 BYTE   N12  Cn3  v052
 BYTE   W06
 BYTE   N06  Gs1  v088
 BYTE   W06
// 001   ----------------------------------------
Label_6_0120F569:
 BYTE   N06  Gs1  v127
 BYTE   N06  Cs3  v072
 BYTE   W06
 BYTE   Gs1  v124
 BYTE   W06
 BYTE   Gs1  v080
 BYTE   W06
 BYTE   Gs1  v116
 BYTE   N06  Cn3  v127
 BYTE   W06
 BYTE   Gs1  v116
 BYTE   N24  Cn3  v127
 BYTE   W06
 BYTE   N06  Gs1  v080
 BYTE   W06
 BYTE   Gs1  v116
 BYTE   N06  Cs3  v048
 BYTE   W06
 BYTE   Gs1  v084
 BYTE   N06  Cs3  v104
 BYTE   W06
 BYTE   Gs1  v124
 BYTE   W06
 BYTE   N06
 BYTE   W06
 BYTE   Gs1  v084
 BYTE   N06  Cn3  v060
 BYTE   W06
 BYTE   Gs1  v120
 BYTE   W06
 BYTE   Gs1  v116
 BYTE   N18  En2  v072
 BYTE   N18  Gn2  v100
 BYTE   N06  Cn3  v127
 BYTE   W06
 BYTE   Gs1  v080
 BYTE   N06  Cn3  v076
 BYTE   W06
 BYTE   Gs1  v120
 BYTE   N12  Cn3  v052
 BYTE   W06
 BYTE   N06  Gs1  v088
 BYTE   W06
 BYTE   PEND 
 BYTE   PATT
  POIN2 Label_6_0120F569
// 002   ----------------------------------------
 BYTE   N06  Gs1  v127
 BYTE   N06  Cs3  v072
 BYTE   W06
 BYTE   Gs1  v124
 BYTE   W06
 BYTE   N12  As0  v084
 BYTE   N06  Gs1  v080
 BYTE   N12  Fn2  v084
 BYTE   N12  Bn2  v092
 BYTE   N12  An4  v084
 BYTE   W06
 BYTE   N06  Gs1  v116
 BYTE   N06  Cn3  v127
 BYTE   W06
 BYTE   N12  As0  v092
 BYTE   N06  Gs1  v116
 BYTE   N12  Fn2  v092
 BYTE   N12  Bn2
 BYTE   N24  Cn3  v127
 BYTE   N12  An4  v092
 BYTE   W06
 BYTE   N06  Gs1  v080
 BYTE   W06
 BYTE   Gs1  v116
 BYTE   N24  Gn2
 BYTE   N06  Cs3  v048
 BYTE   W06
 BYTE   Gs1  v084
 BYTE   N06  Cs3  v104
 BYTE   W06
 BYTE   Gs1  v124
 BYTE   N03  En4  v080
 BYTE   W06
 BYTE   N06  Gs1  v124
 BYTE   N03  En4  v068
 BYTE   W06
 BYTE   N06  Gs1  v084
 BYTE   N06  Cn3  v060
 BYTE   W06
 BYTE   Gs1  v120
 BYTE   W06
 BYTE   Gs1  v116
 BYTE   N18  En2  v072
 BYTE   N18  Gn2  v100
 BYTE   N12  An2  v080
 BYTE   N06  Cn3  v127
 BYTE   W06
 BYTE   Gs1  v080
 BYTE   N06  Cn3  v076
 BYTE   W06
 BYTE   N12  As0  v100
 BYTE   N06  Gs1  v120
 BYTE   N12  Fn2  v100
 BYTE   N12  Bn2
 BYTE   N12  Cn3  v052
 BYTE   N12  An4  v100
 BYTE   W06
 BYTE   N06  Gs1  v088
 BYTE   W06
// 003   ----------------------------------------
Label_6_0120F649:
 BYTE   N12  As0  v100
 BYTE   N06  Gs1  v127
 BYTE   N12  Cs2  v100
 BYTE   N12  Fn2  v056
 BYTE   N12  Bn2  v072
 BYTE   N06  Cs3
 BYTE   N12  An4  v056
 BYTE   W06
 BYTE   N06  Gs1  v124
 BYTE   W06
 BYTE   Gs1  v080
 BYTE   W06
 BYTE   Gs1  v116
 BYTE   N06  Cn3  v127
 BYTE   W06
 BYTE   Gs1  v116
 BYTE   N24  Cn3  v127
 BYTE   W06
 BYTE   N06  Gs1  v080
 BYTE   W06
 BYTE   Gs1  v116
 BYTE   N06  Cs3  v048
 BYTE   W06
 BYTE   Gs1  v084
 BYTE   N06  Cs3  v104
 BYTE   W06
 BYTE   Gs1  v124
 BYTE   W06
 BYTE   N06
 BYTE   W06
 BYTE   Gs1  v084
 BYTE   N06  Cn3  v060
 BYTE   W06
 BYTE   Gs1  v120
 BYTE   W06
 BYTE   Gs1  v116
 BYTE   N18  En2  v072
 BYTE   N18  Gn2  v100
 BYTE   N06  Cn3  v127
 BYTE   W06
 BYTE   Gs1  v080
 BYTE   N06  Cn3  v076
 BYTE   W06
 BYTE   Gs1  v120
 BYTE   N12  Cn3  v052
 BYTE   W06
 BYTE   N06  Gs1  v088
 BYTE   W06
 BYTE   PATT
  POIN2 Label_6_0120F569
 BYTE   PATT
  POIN2 Label_6_0120F569
 BYTE   PATT
  POIN2 Label_6_0120F569
// 004   ----------------------------------------
 BYTE   N06  Gs1  v127
 BYTE   N18  En2  v076
 BYTE   N18  Gn2
 BYTE   W06
 BYTE   N06  Gs1  v124
 BYTE   W06
 BYTE   Gs1  v080
 BYTE   W06
 BYTE   Gs1  v116
 BYTE   W06
 BYTE   N06
 BYTE   W06
 BYTE   Gs1  v080
 BYTE   W06
 BYTE   Gs1  v116
 BYTE   N18  En2  v064
 BYTE   N18  Gn2
 BYTE   W06
 BYTE   N06  Gs1  v084
 BYTE   W06
 BYTE   Gs1  v124
 BYTE   W06
 BYTE   N06
 BYTE   W06
 BYTE   Gs1  v084
 BYTE   W06
 BYTE   Gs1  v120
 BYTE   W06
 BYTE   Gs1  v116
 BYTE   N18  En2  v084
 BYTE   N18  Gn2
 BYTE   W06
 BYTE   N06  Gs1  v080
 BYTE   W06
 BYTE   Gs1  v120
 BYTE   W06
 BYTE   Gs1  v088
 BYTE   W06
// 005   ----------------------------------------
 BYTE   Gs1  v127
 BYTE   W06
 BYTE   Gs1  v124
 BYTE   W06
 BYTE   Gs1  v080
 BYTE   W06
 BYTE   Gs1  v116
 BYTE   W06
 BYTE   N06
 BYTE   W06
 BYTE   Gs1  v080
 BYTE   W06
 BYTE   Gs1  v116
 BYTE   N12  En2  v052
 BYTE   W06
 BYTE   N06  Gs1  v084
 BYTE   W06
 BYTE   Gs1  v124
 BYTE   N12  En2  v060
 BYTE   W06
 BYTE   N06  Gs1  v124
 BYTE   W06
 BYTE   Gs1  v084
 BYTE   N24  En2  v072
 BYTE   N24  Gn2
 BYTE   W06
 BYTE   N06  Gs1  v120
 BYTE   W06
 BYTE   Gs1  v116
 BYTE   W06
 BYTE   Gs1  v080
 BYTE   W06
 BYTE   Gs1  v120
 BYTE   W06
 BYTE   Gs1  v088
 BYTE   W06
 BYTE   PATT
  POIN2 Label_6_0120F569
 BYTE   PATT
  POIN2 Label_6_0120F569
 BYTE   PATT
  POIN2 Label_6_0120F569
 BYTE   PATT
  POIN2 Label_6_0120F569
 BYTE   PATT
  POIN2 Label_6_0120F569
 BYTE   PATT
  POIN2 Label_6_0120F569
 BYTE   PATT
  POIN2 Label_6_0120F569
 BYTE   PATT
  POIN2 Label_6_0120F569
 BYTE   PATT
  POIN2 Label_6_0120F569
 BYTE   PATT
  POIN2 Label_6_0120F569
 BYTE   PATT
  POIN2 Label_6_0120F569
 BYTE   PATT
  POIN2 Label_6_0120F569
 BYTE   PATT
  POIN2 Label_6_0120F569
// 006   ----------------------------------------
 BYTE   VOL   49*SuperSmashBrosMeleeTrophyTussleMrGreen3339_mvl/mxv
 BYTE   N06  Gs1  v068
 BYTE   N06  Cs3  v072
 BYTE   W06
 BYTE   Gs1  v080
 BYTE   W06
 BYTE   Gs1  v088
 BYTE   N24  Gn2  v056
 BYTE   W06
 BYTE   N06  Gs1  v080
 BYTE   W06
 BYTE   Gs1  v088
 BYTE   W06
 BYTE   Gs1  v092
 BYTE   W06
 BYTE   Gs1  v088
 BYTE   W06
 BYTE   Gs1  v112
 BYTE   N06  Fn2  v048
 BYTE   N06  Bn2
 BYTE   N06  An4  v064
 BYTE   W06
 BYTE   Gs1  v124
 BYTE   N06  Fn2  v056
 BYTE   N06  Bn2
 BYTE   N06  An4  v072
 BYTE   W06
 BYTE   Gs1  v124
 BYTE   W06
 BYTE   Gs1  v127
 BYTE   W06
 BYTE   Gs1  v120
 BYTE   W06
 BYTE   Gs1  v127
 BYTE   N18  En2  v048
 BYTE   N18  Gn2
 BYTE   W06
 BYTE   N06  Gs1  v120
 BYTE   W06
 BYTE   Gs1  v127
 BYTE   W06
 BYTE   Gs1  v104
 BYTE   W06
// 007   ----------------------------------------
 BYTE   VOL   33*SuperSmashBrosMeleeTrophyTussleMrGreen3339_mvl/mxv
 BYTE   N06  Gs1  v127
 BYTE   N06  Cs3  v072
 BYTE   W06
 BYTE   Gs1  v124
 BYTE   W06
 BYTE   Gs1  v080
 BYTE   W06
 BYTE   Gs1  v116
 BYTE   N06  Cn3  v127
 BYTE   W06
 BYTE   Gs1  v116
 BYTE   N24  Cn3  v127
 BYTE   W06
 BYTE   N06  Gs1  v080
 BYTE   W06
 BYTE   Gs1  v116
 BYTE   N06  Cs3  v048
 BYTE   W06
 BYTE   Gs1  v084
 BYTE   N06  Cs3  v104
 BYTE   W06
 BYTE   Gs1  v124
 BYTE   W06
 BYTE   N06
 BYTE   W06
 BYTE   Gs1  v084
 BYTE   N06  Cn3  v060
 BYTE   W06
 BYTE   Gs1  v120
 BYTE   W06
 BYTE   Gs1  v116
 BYTE   N18  En2  v072
 BYTE   N18  Gn2  v100
 BYTE   N06  Cn3  v127
 BYTE   W06
 BYTE   Gs1  v080
 BYTE   N06  Cn3  v076
 BYTE   W06
 BYTE   Gs1  v120
 BYTE   N12  Cn3  v052
 BYTE   W06
 BYTE   N06  Gs1  v088
 BYTE   W06
 BYTE   PATT
  POIN2 Label_6_0120F569
 BYTE   PATT
  POIN2 Label_6_0120F569
// 008   ----------------------------------------
 BYTE   N06  Gs1  v080
 BYTE   N06  Cs3  v072
 BYTE   W06
 BYTE   Gs1  v116
 BYTE   W06
 BYTE   N06
 BYTE   W06
 BYTE   Gs1  v127
 BYTE   N06  Cn3
 BYTE   W06
 BYTE   Gs1
 BYTE   N24  Cn3
 BYTE   W06
 BYTE   N06  Gs1  v080
 BYTE   W06
 BYTE   Gs1  v116
 BYTE   N06  Cs3  v048
 BYTE   W06
 BYTE   Gs1  v084
 BYTE   N06  Cs3  v104
 BYTE   W06
 BYTE   Gs1  v124
 BYTE   W06
 BYTE   N06
 BYTE   W06
 BYTE   Gs1  v084
 BYTE   N18  An2  v100
 BYTE   N06  Cn3  v060
 BYTE   W06
 BYTE   Gs1  v120
 BYTE   W06
 BYTE   Gs1  v116
 BYTE   N06  Cn3  v127
 BYTE   W06
 BYTE   Gs1  v080
 BYTE   N18  Gn2  v127
 BYTE   N06  Cn3  v076
 BYTE   W06
 BYTE   Gs1  v120
 BYTE   N12  Cn3  v052
 BYTE   W06
 BYTE   N06  Gs1  v088
 BYTE   W06
// 009   ----------------------------------------
 BYTE   GoTo
  POIN2 Label_6_0120F649
 BYTE   FINE

//******************************************************//
	ALIGN 4

SuperSmashBrosMeleeTrophyTussleMrGreen3339:
	BYTE	7	// NumTrks
	BYTE	0	// NumBlks
	BYTE	SuperSmashBrosMeleeTrophyTussleMrGreen3339_pri	// Priority
	BYTE	SuperSmashBrosMeleeTrophyTussleMrGreen3339_rev	// Reverb.
    
	POIN2	SuperSmashBrosMeleeTrophyTussleMrGreen3339_grp
    
	POIN2	SuperSmashBrosMeleeTrophyTussleMrGreen3339_001
	POIN2	SuperSmashBrosMeleeTrophyTussleMrGreen3339_002
	POIN2	SuperSmashBrosMeleeTrophyTussleMrGreen3339_003
	POIN2	SuperSmashBrosMeleeTrophyTussleMrGreen3339_004
	POIN2	SuperSmashBrosMeleeTrophyTussleMrGreen3339_005
	POIN2	SuperSmashBrosMeleeTrophyTussleMrGreen3339_006
	POIN2	SuperSmashBrosMeleeTrophyTussleMrGreen3339_007

	
