//Event file generated from Sappy .s format.
	#include "MPlayDef.event"

	#define	SuperSmashBrosMeleeCorneriaMrGreen3339_grp  voicegroup000
	#define	SuperSmashBrosMeleeCorneriaMrGreen3339_pri  0
	#define	SuperSmashBrosMeleeCorneriaMrGreen3339_rev  0
	#define	SuperSmashBrosMeleeCorneriaMrGreen3339_mvl  127
	#define	SuperSmashBrosMeleeCorneriaMrGreen3339_key  0
	#define	SuperSmashBrosMeleeCorneriaMrGreen3339_tbs  1
	#define	SuperSmashBrosMeleeCorneriaMrGreen3339_exg  0
	#define	SuperSmashBrosMeleeCorneriaMrGreen3339_cmp  1

	// .rodata
	//	SuperSmashBrosMeleeCorneriaMrGreen3339
	ALIGN 4


//**************** Track 1 (Midi-Chn.0) ****************//

SuperSmashBrosMeleeCorneriaMrGreen3339_001:
// 000   ----------------------------------------
 BYTE   KEYSH   SuperSmashBrosMeleeCorneriaMrGreen3339_key+0
 BYTE   TEMPO   164*SuperSmashBrosMeleeCorneriaMrGreen3339_tbs/2
 BYTE   VOICE   71
 BYTE   VOL   65*SuperSmashBrosMeleeCorneriaMrGreen3339_mvl/mxv
 BYTE   PAN   c_v+0
 BYTE   N05  Gn4  v076
 BYTE   W06
 BYTE   Fs4
 BYTE   W06
 BYTE   Gn4
 BYTE   W06
 BYTE   Fs4
 BYTE   W06
 BYTE   Ds4
 BYTE   W06
 BYTE   Dn4
 BYTE   W06
 BYTE   Ds4
 BYTE   W06
 BYTE   Dn4
 BYTE   W06
 BYTE   As3
 BYTE   W06
 BYTE   An3
 BYTE   W06
 BYTE   As3
 BYTE   W06
 BYTE   An3
 BYTE   W06
 BYTE   As3
 BYTE   W06
 BYTE   Cs4
 BYTE   W06
 BYTE   Dn4
 BYTE   W06
 BYTE   Fs4
 BYTE   W06
// 001   ----------------------------------------
Label_0_01494508:
 BYTE   N05  Gn4  v076
 BYTE   W06
 BYTE   Fs4
 BYTE   W06
 BYTE   Gn4
 BYTE   W06
 BYTE   Fs4
 BYTE   W06
 BYTE   Ds4
 BYTE   W06
 BYTE   Dn4
 BYTE   W06
 BYTE   Ds4
 BYTE   W06
 BYTE   Dn4
 BYTE   W06
 BYTE   As3
 BYTE   W06
 BYTE   An3
 BYTE   W06
 BYTE   As3
 BYTE   W06
 BYTE   An3
 BYTE   W06
 BYTE   As3
 BYTE   W06
 BYTE   Cs4
 BYTE   W06
 BYTE   Dn4
 BYTE   W06
 BYTE   Fs4
 BYTE   W06
 BYTE   PEND 
// 002   ----------------------------------------
 BYTE   Dn4
 BYTE   W06
 BYTE   Cs4
 BYTE   W06
 BYTE   Dn4
 BYTE   W06
 BYTE   Cs4
 BYTE   W06
 BYTE   As3
 BYTE   W06
 BYTE   An3
 BYTE   W06
 BYTE   As3
 BYTE   W06
 BYTE   An3
 BYTE   W06
 BYTE   Fn3
 BYTE   W06
 BYTE   En3
 BYTE   W06
 BYTE   Fn3
 BYTE   W06
 BYTE   En3
 BYTE   W06
 BYTE   Fn3
 BYTE   W06
 BYTE   An3
 BYTE   W06
 BYTE   As3
 BYTE   W06
 BYTE   Cs4
 BYTE   W06
// 003   ----------------------------------------
 BYTE   Dn4
 BYTE   W06
 BYTE   Cs4
 BYTE   W06
 BYTE   Dn4
 BYTE   W06
 BYTE   Cs4
 BYTE   W06
 BYTE   As3
 BYTE   W06
 BYTE   An3
 BYTE   W06
 BYTE   As3
 BYTE   W06
 BYTE   An3
 BYTE   W06
 BYTE   Fn3
 BYTE   W06
 BYTE   An3
 BYTE   W06
 BYTE   As3
 BYTE   W06
 BYTE   Cs4
 BYTE   W06
 BYTE   An3
 BYTE   W06
 BYTE   As3
 BYTE   W06
 BYTE   Cs4
 BYTE   N05  Cs5
 BYTE   W06
 BYTE   Fn4
 BYTE   N05  Fn5
 BYTE   W06
// 004   ----------------------------------------
 BYTE   N11  Dn4
 BYTE   N11  Dn5
 BYTE   W96
// 005   ----------------------------------------
 BYTE   N08  Dn4
 BYTE   W36
 BYTE   N08
 BYTE   W36
 BYTE   N02  Cs4
 BYTE   W03
 BYTE   N06  Dn4
 BYTE   W21
// 006   ----------------------------------------
Label_0_0149457F:
 BYTE   N08  Gn3  v076
 BYTE   W36
 BYTE   N08
 BYTE   W36
 BYTE   N08
 BYTE   W24
 BYTE   PEND 
// 007   ----------------------------------------
Label_0_01494588:
 BYTE   W12
 BYTE   N08  As3  v076
 BYTE   W36
 BYTE   N08
 BYTE   W24
 BYTE   N08
 BYTE   W24
 BYTE   PEND 
// 008   ----------------------------------------
 BYTE   Gn3
 BYTE   N08  Gn4
 BYTE   W36
 BYTE   Gn3
 BYTE   W36
 BYTE   N08
 BYTE   W24
 BYTE   PATT
  POIN2 Label_0_01494588
 BYTE   PATT
  POIN2 Label_0_0149457F
// 009   ----------------------------------------
 BYTE   W12
 BYTE   N08  Cs4  v076
 BYTE   W36
 BYTE   N08
 BYTE   W24
 BYTE   N08
 BYTE   W24
// 010   ----------------------------------------
 BYTE   As3
 BYTE   W36
 BYTE   N08
 BYTE   W36
 BYTE   N08
 BYTE   W24
// 011   ----------------------------------------
 BYTE   W12
 BYTE   Fn4
 BYTE   W36
 BYTE   N08
 BYTE   W24
 BYTE   N08
 BYTE   W24
// 012   ----------------------------------------
 BYTE   W96
// 013   ----------------------------------------
 BYTE   W96
// 014   ----------------------------------------
Label_0_014945BC:
 BYTE   W72
 BYTE   N05  As3  v076
 BYTE   W06
 BYTE   Cs4
 BYTE   W06
 BYTE   Dn4
 BYTE   W06
 BYTE   Fs4
 BYTE   W06
 BYTE   PEND 
 BYTE   PATT
  POIN2 Label_0_01494508
// 015   ----------------------------------------
 BYTE   N11  Dn4  v076
 BYTE   W96
// 016   ----------------------------------------
 BYTE   W96
// 017   ----------------------------------------
 BYTE   W96
// 018   ----------------------------------------
 BYTE   W96
// 019   ----------------------------------------
Label_0_014945D4:
 BYTE   W72
 BYTE   N07  An3  v060
 BYTE   W08
 BYTE   Dn4
 BYTE   W08
 BYTE   Fs4
 BYTE   W08
 BYTE   PEND 
// 020   ----------------------------------------
Label_0_014945DE:
 BYTE   N48  Gn4  v060
 BYTE   W48
 BYTE   N06  Fs4
 BYTE   W24
 BYTE   Dn4
 BYTE   W24
 BYTE   PEND 
// 021   ----------------------------------------
Label_0_014945E8:
 BYTE   N48  An2  v060
 BYTE   N48  An3
 BYTE   W48
 BYTE   En3
 BYTE   N48  En4
 BYTE   W48
 BYTE   PEND 
// 022   ----------------------------------------
Label_0_014945F3:
 BYTE   W24
 BYTE   N08  Ds3  v060
 BYTE   N08  Ds4
 BYTE   W12
 BYTE   En3
 BYTE   N08  En4
 BYTE   W12
 BYTE   Fs3
 BYTE   N08  Fs4
 BYTE   W12
 BYTE   Bn2
 BYTE   N08  Bn3
 BYTE   W12
 BYTE   Cs3
 BYTE   N08  Cs4
 BYTE   W12
 BYTE   Ds3
 BYTE   N08  Ds4
 BYTE   W12
 BYTE   PEND 
// 023   ----------------------------------------
Label_0_0149460F:
 BYTE   N32  Fs3  v060
 BYTE   N32  Fs4
 BYTE   W36
 BYTE   N08  Bn3
 BYTE   N08  Bn4
 BYTE   W12
 BYTE   TIE  Fs3
 BYTE   TIE  Fs4
 BYTE   W24
 BYTE   VOL   65*SuperSmashBrosMeleeCorneriaMrGreen3339_mvl/mxv
 BYTE   W01
 BYTE   En3
 BYTE   W01
 BYTE   Ds3
 BYTE   W01
 BYTE   Ds3
 BYTE   W01
 BYTE   Dn3
 BYTE   W02
 BYTE   Dn3
 BYTE   W01
 BYTE   Cs3
 BYTE   W01
 BYTE   Cs3
 BYTE   W01
 BYTE   Cn3
 BYTE   W01
 BYTE   Cn3
 BYTE   W02
 BYTE   Bn2
 BYTE   W01
 BYTE   Bn2
 BYTE   W01
 BYTE   As2
 BYTE   W01
 BYTE   As2
 BYTE   W01
 BYTE   An2
 BYTE   W02
 BYTE   An2
 BYTE   W01
 BYTE   Gs2
 BYTE   W01
 BYTE   Gs2
 BYTE   W01
 BYTE   Gn2
 BYTE   W01
 BYTE   Gn2
 BYTE   W02
 BYTE   PEND 
// 024   ----------------------------------------
Label_0_01494649:
 BYTE   VOL   54*SuperSmashBrosMeleeCorneriaMrGreen3339_mvl/mxv
 BYTE   W01
 BYTE   Fs2
 BYTE   W01
 BYTE   Fn2
 BYTE   W01
 BYTE   Fn2
 BYTE   W01
 BYTE   En2
 BYTE   W02
 BYTE   En2
 BYTE   W01
 BYTE   Ds2
 BYTE   W01
 BYTE   Ds2
 BYTE   W01
 BYTE   Dn2
 BYTE   W01
 BYTE   Dn2
 BYTE   W02
 BYTE   Cs2
 BYTE   W01
 BYTE   Cs2
 BYTE   W01
 BYTE   Cn2
 BYTE   W01
 BYTE   Cn2
 BYTE   W01
 BYTE   Bn1
 BYTE   W02
 BYTE   Bn1
 BYTE   W01
 BYTE   As1
 BYTE   W01
 BYTE   As1
 BYTE   W01
 BYTE   An1
 BYTE   W01
 BYTE   An1
 BYTE   W02
 BYTE   Gs1
 BYTE   W01
 BYTE   Gn1
 BYTE   W01
 BYTE   Fs1
 BYTE   W01
 BYTE   Fn1
 BYTE   W01
 BYTE   En1
 BYTE   W01
 BYTE   En1
 BYTE   W01
 BYTE   Ds1
 BYTE   W01
 BYTE   Dn1
 BYTE   W01
 BYTE   Cs1
 BYTE   W01
 BYTE   Cs1
 BYTE   W01
 BYTE   Cn1
 BYTE   W01
 BYTE   Bn0
 BYTE   W01
 BYTE   As0
 BYTE   W01
 BYTE   As0
 BYTE   W01
 BYTE   An0
 BYTE   W01
 BYTE   Gs0
 BYTE   W01
 BYTE   Gn0
 BYTE   W01
 BYTE   Gn0
 BYTE   W01
 BYTE   Fs0
 BYTE   W01
 BYTE   Fn0
 BYTE   W01
 BYTE   En0
 BYTE   W01
 BYTE   En0
 BYTE   W01
 BYTE   Ds0
 BYTE   W01
 BYTE   Dn0
 BYTE   W01
 BYTE   Cs0
 BYTE   W01
 BYTE   Cs0
 BYTE   W01
 BYTE   Cn0
 BYTE   W01
 BYTE   BnM1
 BYTE   W01
 BYTE   AsM1
 BYTE   W01
 BYTE   AsM1
 BYTE   W01
 BYTE   GsM1
 BYTE   W01
 BYTE   GsM1
 BYTE   W01
 BYTE   GnM1
 BYTE   W01
 BYTE   FsM1
 BYTE   W01
 BYTE   FnM1
 BYTE   W01
 BYTE   FnM1
 BYTE   W01
 BYTE   EnM1
 BYTE   W01
 BYTE   DsM1
 BYTE   W01
 BYTE   DnM1
 BYTE   W01
 BYTE   DnM1
 BYTE   W01
 BYTE   CsM1
 BYTE   W01
 BYTE   CnM1
 BYTE   W01
 BYTE   PEND 
 BYTE   EOT
 BYTE   Fs3  v078
 BYTE   VOL   11*SuperSmashBrosMeleeCorneriaMrGreen3339_mvl/mxv
 BYTE   W01
 BYTE   BnM2
 BYTE   W01
 BYTE   AsM2
 BYTE   W01
 BYTE   AnM2
 BYTE   W01
 BYTE   GsM2
 BYTE   W01
 BYTE   GsM2
 BYTE   W01
 BYTE   GnM2
 BYTE   W24
// 025   ----------------------------------------
 BYTE   W96
// 026   ----------------------------------------
 BYTE   W96
// 027   ----------------------------------------
 BYTE   W96
// 028   ----------------------------------------
 BYTE   W96
// 029   ----------------------------------------
 BYTE   W96
// 030   ----------------------------------------
 BYTE   W96
// 031   ----------------------------------------
 BYTE   W96
// 032   ----------------------------------------
 BYTE   W96
// 033   ----------------------------------------
 BYTE   W96
// 034   ----------------------------------------
 BYTE   W96
// 035   ----------------------------------------
 BYTE   W96
// 036   ----------------------------------------
 BYTE   W96
// 037   ----------------------------------------
 BYTE   W96
// 038   ----------------------------------------
 BYTE   W96
// 039   ----------------------------------------
Label_0_014946E7:
 BYTE   N08  Gn3  v060
 BYTE   W36
 BYTE   N08
 BYTE   W36
 BYTE   N08
 BYTE   W24
 BYTE   PEND 
// 040   ----------------------------------------
Label_0_014946F0:
 BYTE   W12
 BYTE   N08  As3  v060
 BYTE   W36
 BYTE   N08
 BYTE   W24
 BYTE   N08
 BYTE   W24
 BYTE   PEND 
// 041   ----------------------------------------
 BYTE   Gn3
 BYTE   N08  Gn4
 BYTE   W36
 BYTE   Gn3
 BYTE   W36
 BYTE   N08
 BYTE   W24
 BYTE   PATT
  POIN2 Label_0_014946F0
 BYTE   PATT
  POIN2 Label_0_014946E7
// 042   ----------------------------------------
 BYTE   W12
 BYTE   N08  Cs4  v060
 BYTE   W36
 BYTE   N08
 BYTE   W24
 BYTE   N08
 BYTE   W24
// 043   ----------------------------------------
 BYTE   As3
 BYTE   W36
 BYTE   N08
 BYTE   W36
 BYTE   N08
 BYTE   W24
// 044   ----------------------------------------
 BYTE   W12
 BYTE   Fn4
 BYTE   W36
 BYTE   N08
 BYTE   W24
 BYTE   N08
 BYTE   W24
// 045   ----------------------------------------
 BYTE   W96
// 046   ----------------------------------------
 BYTE   W96
 BYTE   PATT
  POIN2 Label_0_014945BC
 BYTE   PATT
  POIN2 Label_0_01494508
// 047   ----------------------------------------
 BYTE   N11  Dn4  v076
 BYTE   W96
// 048   ----------------------------------------
 BYTE   W96
// 049   ----------------------------------------
 BYTE   W96
// 050   ----------------------------------------
 BYTE   W96
 BYTE   PATT
  POIN2 Label_0_014945D4
 BYTE   PATT
  POIN2 Label_0_014945DE
 BYTE   PATT
  POIN2 Label_0_014945E8
 BYTE   PATT
  POIN2 Label_0_014945F3
 BYTE   PATT
  POIN2 Label_0_0149460F
 BYTE   PATT
  POIN2 Label_0_01494649
// 051   ----------------------------------------
 BYTE   EOT
 BYTE   Fs3  v078
 BYTE   VOL   11*SuperSmashBrosMeleeCorneriaMrGreen3339_mvl/mxv
 BYTE   W01
 BYTE   BnM2
 BYTE   W01
 BYTE   AsM2
 BYTE   W01
 BYTE   AnM2
 BYTE   W01
 BYTE   GsM2
 BYTE   W01
 BYTE   GsM2
 BYTE   W01
 BYTE   GnM2
 BYTE   W24
 BYTE   W96
// 052   ----------------------------------------
 BYTE   W96
// 053   ----------------------------------------
 BYTE   W96
// 054   ----------------------------------------
 BYTE   W96
// 055   ----------------------------------------
 BYTE   W96
// 056   ----------------------------------------
 BYTE   W96
// 057   ----------------------------------------
 BYTE   W96
// 058   ----------------------------------------
 BYTE   W96
// 059   ----------------------------------------
 BYTE   W96
// 060   ----------------------------------------
 BYTE   W96
// 061   ----------------------------------------
 BYTE   W96
// 062   ----------------------------------------
 BYTE   W96
// 063   ----------------------------------------
 BYTE   W96
// 064   ----------------------------------------
 BYTE   W92
 BYTE   W03
 BYTE   GoTo
  POIN2 Label_0_014946E7
 BYTE   FINE

//**************** Track 2 (Midi-Chn.1) ****************//

SuperSmashBrosMeleeCorneriaMrGreen3339_002:
// 000   ----------------------------------------
 BYTE   KEYSH   SuperSmashBrosMeleeCorneriaMrGreen3339_key+0
 BYTE   VOICE   48
 BYTE   VOL   65*SuperSmashBrosMeleeCorneriaMrGreen3339_mvl/mxv
 BYTE   PAN   c_v+0
 BYTE   N04  Gn4  v092
 BYTE   N04  Gn5
 BYTE   W36
 BYTE   Fs4
 BYTE   N04  Fs5
 BYTE   W36
 BYTE   Fn4
 BYTE   N04  Fn5
 BYTE   W24
// 001   ----------------------------------------
 BYTE   W12
 BYTE   Dn4
 BYTE   N04  Dn5
 BYTE   W36
 BYTE   Cs4
 BYTE   N04  Cs5
 BYTE   W24
 BYTE   Cn4
 BYTE   N04  Cn5
 BYTE   W24
// 002   ----------------------------------------
 BYTE   N11  Gn3
 BYTE   W36
 BYTE   Fs3
 BYTE   W36
 BYTE   Fn3
 BYTE   W24
// 003   ----------------------------------------
 BYTE   W12
 BYTE   Dn3
 BYTE   W36
 BYTE   Cn3
 BYTE   W24
 BYTE   Cs3
 BYTE   W24
// 004   ----------------------------------------
 BYTE   N04  An2  v108
 BYTE   N04  Dn3
 BYTE   W12
 BYTE   An2  v076
 BYTE   N04  Dn3
 BYTE   W12
 BYTE   An2
 BYTE   N04  Dn3
 BYTE   W12
 BYTE   An2  v108
 BYTE   N04  Dn3
 BYTE   W12
 BYTE   An2  v076
 BYTE   N04  Dn3
 BYTE   W12
 BYTE   An2
 BYTE   N04  Dn3
 BYTE   W12
 BYTE   An2  v108
 BYTE   N04  Dn3
 BYTE   W12
 BYTE   An2  v076
 BYTE   N04  Dn3
 BYTE   W12
// 005   ----------------------------------------
 BYTE   An2  v108
 BYTE   N04  Dn3
 BYTE   N04  Dn4
 BYTE   W12
 BYTE   An2  v076
 BYTE   N04  Dn3
 BYTE   W12
 BYTE   An2
 BYTE   N04  Dn3
 BYTE   W12
 BYTE   An2  v108
 BYTE   N04  Dn3
 BYTE   N04  Dn4
 BYTE   W12
 BYTE   An2  v076
 BYTE   N04  Dn3
 BYTE   W12
 BYTE   An2
 BYTE   N04  Dn3
 BYTE   W12
 BYTE   An2  v108
 BYTE   N04  Dn3
 BYTE   N04  Dn4
 BYTE   W12
 BYTE   An2  v076
 BYTE   N04  Dn3
 BYTE   W12
// 006   ----------------------------------------
Label_1_01494800:
 BYTE   N04  Gn2  v108
 BYTE   N04  Dn3
 BYTE   N04  Gn3
 BYTE   N04  Gn4
 BYTE   W12
 BYTE   Dn3  v076
 BYTE   N04  Gn3
 BYTE   W12
 BYTE   Dn3
 BYTE   N04  Gn3
 BYTE   W12
 BYTE   Dn3  v108
 BYTE   N04  Gn3
 BYTE   W12
 BYTE   Gn2  v076
 BYTE   N04  Dn3
 BYTE   N04  Gn3
 BYTE   W12
 BYTE   Dn3
 BYTE   N04  Gn3
 BYTE   W12
 BYTE   Dn3  v108
 BYTE   N04  Gn3
 BYTE   W12
 BYTE   Dn3  v076
 BYTE   N04  Gn3
 BYTE   W12
 BYTE   PEND 
// 007   ----------------------------------------
Label_1_0149482E:
 BYTE   N04  Dn3  v076
 BYTE   N04  Gn3
 BYTE   W12
 BYTE   Fn3  v108
 BYTE   N04  As3
 BYTE   W12
 BYTE   Fn3  v076
 BYTE   N04  As3
 BYTE   W12
 BYTE   Fn3
 BYTE   N04  As3
 BYTE   W12
 BYTE   Fn3  v108
 BYTE   N04  As3
 BYTE   W12
 BYTE   Fn3  v076
 BYTE   N04  As3
 BYTE   W12
 BYTE   Fn3  v108
 BYTE   N04  As3
 BYTE   W12
 BYTE   Fn3  v076
 BYTE   N04  As3
 BYTE   W12
 BYTE   PEND 
// 008   ----------------------------------------
Label_1_01494857:
 BYTE   N04  Dn3  v108
 BYTE   N04  Gn3
 BYTE   N04  Gn4
 BYTE   W12
 BYTE   Dn3  v076
 BYTE   N04  Gn3
 BYTE   W12
 BYTE   Dn3
 BYTE   N04  Gn3
 BYTE   W12
 BYTE   Dn3  v108
 BYTE   N04  Gn3
 BYTE   W12
 BYTE   Dn3  v076
 BYTE   N04  Gn3
 BYTE   W12
 BYTE   Dn3
 BYTE   N04  Gn3
 BYTE   W12
 BYTE   Dn3  v108
 BYTE   N04  Gn3
 BYTE   W12
 BYTE   Dn3  v076
 BYTE   N04  Gn3
 BYTE   W12
 BYTE   PEND 
 BYTE   PATT
  POIN2 Label_1_0149482E
// 009   ----------------------------------------
Label_1_01494886:
 BYTE   N04  Dn3  v108
 BYTE   N04  Gn3
 BYTE   W12
 BYTE   Dn3  v076
 BYTE   N04  Gn3
 BYTE   W12
 BYTE   Dn3
 BYTE   N04  Gn3
 BYTE   W12
 BYTE   Dn3  v108
 BYTE   N04  Gn3
 BYTE   W12
 BYTE   Dn3  v076
 BYTE   N04  Gn3
 BYTE   W12
 BYTE   Dn3
 BYTE   N04  Gn3
 BYTE   W12
 BYTE   Dn3  v108
 BYTE   N04  Gn3
 BYTE   W12
 BYTE   Dn3  v076
 BYTE   N04  Gn3
 BYTE   W12
 BYTE   PEND 
// 010   ----------------------------------------
Label_1_014948AE:
 BYTE   N04  Dn3  v076
 BYTE   N04  Gn3
 BYTE   W12
 BYTE   Gs3  v108
 BYTE   N04  Cs4
 BYTE   W12
 BYTE   Gs3  v076
 BYTE   N04  Cs4
 BYTE   W12
 BYTE   Gs3
 BYTE   N04  Cs4
 BYTE   W12
 BYTE   Gs3  v108
 BYTE   N04  Cs4
 BYTE   W12
 BYTE   Gs3  v076
 BYTE   N04  Cs4
 BYTE   W12
 BYTE   Gs3  v108
 BYTE   N04  Cs4
 BYTE   W12
 BYTE   Gs3  v076
 BYTE   N04  Cs4
 BYTE   W12
 BYTE   PEND 
// 011   ----------------------------------------
Label_1_014948D7:
 BYTE   N04  Fn3  v108
 BYTE   N04  As3
 BYTE   N04  Gn5
 BYTE   W12
 BYTE   Fn3  v076
 BYTE   N04  As3
 BYTE   W12
 BYTE   Fn3
 BYTE   N04  As3
 BYTE   W12
 BYTE   Fn3  v108
 BYTE   N04  As3
 BYTE   W12
 BYTE   Fn3  v076
 BYTE   N04  As3
 BYTE   W12
 BYTE   Fn3
 BYTE   N04  As3
 BYTE   W12
 BYTE   Fn3  v108
 BYTE   N04  As3
 BYTE   W12
 BYTE   Fn3  v076
 BYTE   N04  As3
 BYTE   W12
 BYTE   PEND 
// 012   ----------------------------------------
Label_1_01494901:
 BYTE   N04  Fn3  v076
 BYTE   N04  As3
 BYTE   W12
 BYTE   Cs4  v108
 BYTE   N04  Fn4
 BYTE   W12
 BYTE   Cs4  v076
 BYTE   N04  Fn4
 BYTE   W12
 BYTE   Cs4
 BYTE   N04  Fn4
 BYTE   W12
 BYTE   Cn4  v108
 BYTE   N04  Fn4
 BYTE   W12
 BYTE   Cn4  v076
 BYTE   N04  Fn4
 BYTE   W12
 BYTE   N02  Cn4  v108
 BYTE   N02  Fn4
 BYTE   W08
 BYTE   Cn4  v076
 BYTE   N02  Fn4
 BYTE   W08
 BYTE   Cn4
 BYTE   N02  Fn4
 BYTE   W08
 BYTE   PEND 
// 013   ----------------------------------------
Label_1_0149492F:
 BYTE   N05  Gn4  v076
 BYTE   W06
 BYTE   Fs4
 BYTE   W06
 BYTE   Gn4
 BYTE   W06
 BYTE   Fs4
 BYTE   W06
 BYTE   Ds4
 BYTE   W06
 BYTE   Dn4
 BYTE   W06
 BYTE   Ds4
 BYTE   W06
 BYTE   Dn4
 BYTE   W06
 BYTE   As3
 BYTE   W06
 BYTE   An3
 BYTE   W06
 BYTE   As3
 BYTE   W06
 BYTE   An3
 BYTE   W06
 BYTE   As3
 BYTE   N05  As4
 BYTE   W06
 BYTE   Cs4
 BYTE   N05  Cs5
 BYTE   W06
 BYTE   Dn4
 BYTE   N05  Dn5
 BYTE   W06
 BYTE   Fs4
 BYTE   N05  Fs5
 BYTE   W06
 BYTE   PEND 
// 014   ----------------------------------------
Label_1_0149495A:
 BYTE   N05  Gn4  v076
 BYTE   N05  Gn5
 BYTE   W06
 BYTE   Fs4
 BYTE   N05  Fs5
 BYTE   W06
 BYTE   Gn4
 BYTE   N05  Gn5
 BYTE   W06
 BYTE   Fs4
 BYTE   N05  Fs5
 BYTE   W06
 BYTE   Ds4
 BYTE   N05  Ds5
 BYTE   W06
 BYTE   Dn4
 BYTE   N05  Dn5
 BYTE   W06
 BYTE   Ds4
 BYTE   N05  Ds5
 BYTE   W06
 BYTE   Dn4
 BYTE   N05  Dn5
 BYTE   W06
 BYTE   As3
 BYTE   N05  As4
 BYTE   W06
 BYTE   An3
 BYTE   N05  An4
 BYTE   W06
 BYTE   As3
 BYTE   N05  As4
 BYTE   W06
 BYTE   An3
 BYTE   N05  An4
 BYTE   W06
 BYTE   As3
 BYTE   N05  As4
 BYTE   W06
 BYTE   Cs4
 BYTE   N05  Cs5
 BYTE   W06
 BYTE   Dn4
 BYTE   N05  Dn5
 BYTE   W06
 BYTE   Fs4
 BYTE   N05  Fs5
 BYTE   W06
 BYTE   PEND 
 BYTE   PATT
  POIN2 Label_1_0149495A
// 015   ----------------------------------------
Label_1_014949A2:
 BYTE   N05  Gn4  v076
 BYTE   N05  Gn5
 BYTE   W06
 BYTE   Fs4  v080
 BYTE   N05  Fs5
 BYTE   W06
 BYTE   Gn4
 BYTE   N05  Gn5
 BYTE   W06
 BYTE   Fs4
 BYTE   N05  Fs5
 BYTE   W06
 BYTE   Ds4
 BYTE   N05  Ds5
 BYTE   W06
 BYTE   Dn4  v084
 BYTE   N05  Dn5
 BYTE   W06
 BYTE   Ds4
 BYTE   N05  Ds5
 BYTE   W06
 BYTE   Dn4
 BYTE   N05  Dn5
 BYTE   W06
 BYTE   As3
 BYTE   N05  As4
 BYTE   W06
 BYTE   An3  v088
 BYTE   N05  An4
 BYTE   W06
 BYTE   As3
 BYTE   N05  As4
 BYTE   W06
 BYTE   An3
 BYTE   N05  An4
 BYTE   W06
 BYTE   As3
 BYTE   N05  As4
 BYTE   W06
 BYTE   Cs4  v092
 BYTE   N05  Cs5
 BYTE   W06
 BYTE   Dn4
 BYTE   N05  Dn5
 BYTE   W06
 BYTE   Fs4
 BYTE   N05  Fs5
 BYTE   W06
 BYTE   PEND 
// 016   ----------------------------------------
Label_1_014949E9:
 BYTE   N08  Gs3  v092
 BYTE   N08  Dn4
 BYTE   N08  Dn5
 BYTE   W12
 BYTE   N04  Gs3  v076
 BYTE   N04  Dn4
 BYTE   W12
 BYTE   Gs3
 BYTE   N04  Dn4
 BYTE   W12
 BYTE   Gs3  v108
 BYTE   N04  Dn4
 BYTE   W12
 BYTE   Gs3  v076
 BYTE   N04  Dn4
 BYTE   W12
 BYTE   Gs3
 BYTE   N04  Dn4
 BYTE   W12
 BYTE   Gs3  v108
 BYTE   N04  Dn4
 BYTE   W12
 BYTE   Gs3  v076
 BYTE   N04  Dn4
 BYTE   W12
 BYTE   PEND 
// 017   ----------------------------------------
Label_1_01494A14:
 BYTE   N04  Gs3  v076
 BYTE   N04  Dn4
 BYTE   W12
 BYTE   Gs3  v108
 BYTE   N04  Dn4
 BYTE   W12
 BYTE   Gs3  v076
 BYTE   N04  Dn4
 BYTE   W12
 BYTE   Gs3
 BYTE   N04  Dn4
 BYTE   W12
 BYTE   Gs3  v108
 BYTE   N04  Dn4
 BYTE   W12
 BYTE   Gs3  v076
 BYTE   N04  Dn4
 BYTE   W12
 BYTE   Gs3  v108
 BYTE   N04  Dn4
 BYTE   W12
 BYTE   Gs3  v076
 BYTE   N04  Dn4
 BYTE   W12
 BYTE   PEND 
// 018   ----------------------------------------
 BYTE   W96
// 019   ----------------------------------------
 BYTE   W96
// 020   ----------------------------------------
Label_1_01494A3F:
 BYTE   W72
 BYTE   N07  An3  v092
 BYTE   W08
 BYTE   Dn4
 BYTE   W08
 BYTE   Fs4
 BYTE   W08
 BYTE   PEND 
// 021   ----------------------------------------
Label_1_01494A49:
 BYTE   N48  Gn4  v092
 BYTE   W48
 BYTE   N06  Fs4
 BYTE   W24
 BYTE   Dn4
 BYTE   W24
 BYTE   PEND 
// 022   ----------------------------------------
Label_1_01494A53:
 BYTE   N48  An3  v092
 BYTE   W48
 BYTE   En4
 BYTE   W48
 BYTE   PEND 
// 023   ----------------------------------------
Label_1_01494A5A:
 BYTE   W24
 BYTE   N08  Ds4  v092
 BYTE   W12
 BYTE   En4
 BYTE   W12
 BYTE   Fs4
 BYTE   W12
 BYTE   Bn3
 BYTE   W12
 BYTE   Cs4
 BYTE   W12
 BYTE   Ds4
 BYTE   W12
 BYTE   PEND 
// 024   ----------------------------------------
Label_1_01494A6A:
 BYTE   N32  Fs4  v092
 BYTE   W36
 BYTE   N08  Bn4
 BYTE   W12
 BYTE   TIE  Fs4
 BYTE   W24
 BYTE   VOL   65*SuperSmashBrosMeleeCorneriaMrGreen3339_mvl/mxv
 BYTE   W01
 BYTE   En3
 BYTE   W01
 BYTE   Ds3
 BYTE   W01
 BYTE   Ds3
 BYTE   W01
 BYTE   Dn3
 BYTE   W02
 BYTE   Dn3
 BYTE   W01
 BYTE   Cs3
 BYTE   W01
 BYTE   Cs3
 BYTE   W01
 BYTE   Cn3
 BYTE   W01
 BYTE   Cn3
 BYTE   W02
 BYTE   Bn2
 BYTE   W01
 BYTE   Bn2
 BYTE   W01
 BYTE   As2
 BYTE   W01
 BYTE   As2
 BYTE   W01
 BYTE   An2
 BYTE   W02
 BYTE   An2
 BYTE   W01
 BYTE   Gs2
 BYTE   W01
 BYTE   Gs2
 BYTE   W01
 BYTE   Gn2
 BYTE   W01
 BYTE   Gn2
 BYTE   W02
 BYTE   PEND 
// 025   ----------------------------------------
Label_1_01494A9E:
 BYTE   VOL   54*SuperSmashBrosMeleeCorneriaMrGreen3339_mvl/mxv
 BYTE   W01
 BYTE   Fs2
 BYTE   W01
 BYTE   Fn2
 BYTE   W01
 BYTE   Fn2
 BYTE   W01
 BYTE   En2
 BYTE   W02
 BYTE   En2
 BYTE   W01
 BYTE   Ds2
 BYTE   W01
 BYTE   Ds2
 BYTE   W01
 BYTE   Dn2
 BYTE   W01
 BYTE   Dn2
 BYTE   W02
 BYTE   Cs2
 BYTE   W01
 BYTE   Cs2
 BYTE   W01
 BYTE   Cn2
 BYTE   W01
 BYTE   Cn2
 BYTE   W01
 BYTE   Bn1
 BYTE   W02
 BYTE   Bn1
 BYTE   W01
 BYTE   As1
 BYTE   W01
 BYTE   As1
 BYTE   W01
 BYTE   An1
 BYTE   W01
 BYTE   An1
 BYTE   W02
 BYTE   Gs1
 BYTE   W01
 BYTE   Gn1
 BYTE   W01
 BYTE   Fs1
 BYTE   W01
 BYTE   Fn1
 BYTE   W01
 BYTE   En1
 BYTE   W01
 BYTE   En1
 BYTE   W01
 BYTE   Ds1
 BYTE   W01
 BYTE   Dn1
 BYTE   W01
 BYTE   Cs1
 BYTE   W01
 BYTE   Cs1
 BYTE   W01
 BYTE   Cn1
 BYTE   W01
 BYTE   Bn0
 BYTE   W01
 BYTE   As0
 BYTE   W01
 BYTE   As0
 BYTE   W01
 BYTE   An0
 BYTE   W01
 BYTE   Gs0
 BYTE   W01
 BYTE   Gn0
 BYTE   W01
 BYTE   Gn0
 BYTE   W01
 BYTE   Fs0
 BYTE   W01
 BYTE   Fn0
 BYTE   W01
 BYTE   En0
 BYTE   W01
 BYTE   En0
 BYTE   W01
 BYTE   Ds0
 BYTE   W01
 BYTE   Dn0
 BYTE   W01
 BYTE   Cs0
 BYTE   W01
 BYTE   Cs0
 BYTE   W01
 BYTE   Cn0
 BYTE   W01
 BYTE   BnM1
 BYTE   W01
 BYTE   AsM1
 BYTE   W01
 BYTE   AsM1
 BYTE   W01
 BYTE   GsM1
 BYTE   W01
 BYTE   GsM1
 BYTE   W01
 BYTE   GnM1
 BYTE   W01
 BYTE   FsM1
 BYTE   W01
 BYTE   FnM1
 BYTE   W01
 BYTE   FnM1
 BYTE   W01
 BYTE   EnM1
 BYTE   W01
 BYTE   DsM1
 BYTE   W01
 BYTE   DnM1
 BYTE   W01
 BYTE   DnM1
 BYTE   W01
 BYTE   CsM1
 BYTE   W01
 BYTE   CnM1
 BYTE   W01
 BYTE   PEND 
 BYTE   EOT
 BYTE   Fs4
 BYTE   VOL   11*SuperSmashBrosMeleeCorneriaMrGreen3339_mvl/mxv
 BYTE   W01
 BYTE   BnM2
 BYTE   W01
 BYTE   AsM2
 BYTE   W01
 BYTE   AnM2
 BYTE   W01
 BYTE   GsM2
 BYTE   W01
 BYTE   GsM2
 BYTE   W01
 BYTE   Fn3
 BYTE   N05  En4  v092
 BYTE   N05  En5
 BYTE   W08
 BYTE   En4
 BYTE   N05  En5
 BYTE   W08
 BYTE   En4
 BYTE   N05  En5
 BYTE   W08
// 026   ----------------------------------------
Label_1_01494B3A:
 BYTE   N36  Fn4  v092
 BYTE   N36  Fn5
 BYTE   W36
 BYTE   N05  Ds4
 BYTE   N05  Ds5
 BYTE   W06
 BYTE   Dn4
 BYTE   N05  Dn5
 BYTE   W06
 BYTE   N20  Cn4
 BYTE   N20  Cn5
 BYTE   W24
 BYTE   N05  Dn4
 BYTE   N05  Dn5
 BYTE   W08
 BYTE   Dn4
 BYTE   N05  Dn5
 BYTE   W08
 BYTE   Dn4
 BYTE   N05  Dn5
 BYTE   W08
 BYTE   PEND 
// 027   ----------------------------------------
Label_1_01494B5C:
 BYTE   N36  Ds4  v092
 BYTE   N36  Ds5
 BYTE   W36
 BYTE   N05  Dn4
 BYTE   N05  Dn5
 BYTE   W06
 BYTE   Cn4
 BYTE   N05  Cn5
 BYTE   W06
 BYTE   N20  As3
 BYTE   N20  As4
 BYTE   W24
 BYTE   N05  Cn4
 BYTE   N05  Cn5
 BYTE   W08
 BYTE   Cn4
 BYTE   N05  Cn5
 BYTE   W08
 BYTE   Cn4
 BYTE   N05  Cn5
 BYTE   W08
 BYTE   PEND 
// 028   ----------------------------------------
Label_1_01494B7E:
 BYTE   N11  Dn4  v092
 BYTE   N11  Dn5
 BYTE   W16
 BYTE   N05  Cn4
 BYTE   N05  Cn5
 BYTE   W08
 BYTE   VOL   64*SuperSmashBrosMeleeCorneriaMrGreen3339_mvl/mxv
 BYTE   N32  Dn4
 BYTE   N32  Dn5
 BYTE   W01
 BYTE   VOL   63*SuperSmashBrosMeleeCorneriaMrGreen3339_mvl/mxv
 BYTE   W01
 BYTE   Ds3
 BYTE   W01
 BYTE   Dn3
 BYTE   W01
 BYTE   Dn3
 BYTE   W01
 BYTE   Cs3
 BYTE   W01
 BYTE   Cs3
 BYTE   W01
 BYTE   Cn3
 BYTE   W01
 BYTE   Bn2
 BYTE   W01
 BYTE   Bn2
 BYTE   W01
 BYTE   As2
 BYTE   W01
 BYTE   As2
 BYTE   W01
 BYTE   An2
 BYTE   W01
 BYTE   An2
 BYTE   W01
 BYTE   Gs2
 BYTE   W01
 BYTE   Gs2
 BYTE   W01
 BYTE   Gn2
 BYTE   W01
 BYTE   Fs2
 BYTE   W01
 BYTE   Fs2
 BYTE   W01
 BYTE   Fn2
 BYTE   W01
 BYTE   Fn2
 BYTE   W01
 BYTE   En2
 BYTE   W01
 BYTE   En2
 BYTE   W01
 BYTE   Ds2
 BYTE   W01
 BYTE   Dn2
 BYTE   W01
 BYTE   Cn2
 BYTE   W01
 BYTE   Bn1
 BYTE   W01
 BYTE   An1
 BYTE   W01
 BYTE   Gs1
 BYTE   W01
 BYTE   Fs1
 BYTE   W01
 BYTE   En1
 BYTE   W01
 BYTE   Ds1
 BYTE   W01
 BYTE   Cs1
 BYTE   W01
 BYTE   Cn1
 BYTE   W01
 BYTE   As0
 BYTE   W01
 BYTE   An0
 BYTE   W01
 BYTE   Bn0
 BYTE   W01
 BYTE   Dn1
 BYTE   W01
 BYTE   En1
 BYTE   W01
 BYTE   Gn1
 BYTE   W01
 BYTE   As1
 BYTE   W01
 BYTE   Cs2
 BYTE   W01
 BYTE   Ds2
 BYTE   W01
 BYTE   Fs2
 BYTE   W01
 BYTE   Gs2
 BYTE   W01
 BYTE   Bn2
 BYTE   W01
 BYTE   Cs3
 BYTE   W01
 BYTE   En3
 BYTE   W01
 BYTE   Fn3
 BYTE   N05  Dn4
 BYTE   N05  Dn5
 BYTE   W08
 BYTE   Dn4
 BYTE   N05  Dn5
 BYTE   W08
 BYTE   Dn4
 BYTE   N05  Dn5
 BYTE   W08
 BYTE   PEND 
// 029   ----------------------------------------
Label_1_01494BFE:
 BYTE   N20  Ds4  v108
 BYTE   N20  Ds5
 BYTE   W32
 BYTE   N05  Ds4
 BYTE   N05  Ds5
 BYTE   W08
 BYTE   Ds4
 BYTE   N05  Ds5
 BYTE   W08
 BYTE   N42  Fn4
 BYTE   N42  Fn5
 BYTE   W48
 BYTE   PEND 
// 030   ----------------------------------------
Label_1_01494C13:
 BYTE   N20  Gn3  v092
 BYTE   N20  Dn4
 BYTE   N20  Gn4
 BYTE   N20  Gn5
 BYTE   W96
 BYTE   PEND 
// 031   ----------------------------------------
Label_1_01494C1E:
 BYTE   W72
 BYTE   N15  Gn3  v092
 BYTE   N15  Dn4
 BYTE   N15  Gn4
 BYTE   W24
 BYTE   PEND 
// 032   ----------------------------------------
Label_1_01494C28:
 BYTE   N15  Gs3  v092
 BYTE   N15  Ds4
 BYTE   N15  Gs4
 BYTE   W96
 BYTE   PEND 
// 033   ----------------------------------------
Label_1_01494C31:
 BYTE   W72
 BYTE   N15  Gs3  v092
 BYTE   N15  Ds4
 BYTE   N15  Gs4
 BYTE   W24
 BYTE   PEND 
// 034   ----------------------------------------
Label_1_01494C3B:
 BYTE   N15  An3  v092
 BYTE   N15  En4
 BYTE   N15  An4
 BYTE   W96
 BYTE   PEND 
// 035   ----------------------------------------
Label_1_01494C44:
 BYTE   W72
 BYTE   N15  An3  v092
 BYTE   N15  En4
 BYTE   N15  An4
 BYTE   W24
 BYTE   PEND 
// 036   ----------------------------------------
Label_1_01494C4E:
 BYTE   N15  Dn3  v092
 BYTE   N15  An3
 BYTE   N15  Dn4
 BYTE   W96
 BYTE   PEND 
// 037   ----------------------------------------
 BYTE   W96
// 038   ----------------------------------------
Label_1_01494C58:
 BYTE   N20  Gn3  v092
 BYTE   W24
 BYTE   Dn4
 BYTE   W24
 BYTE   N08  Cs4
 BYTE   W12
 BYTE   Dn4
 BYTE   W12
 BYTE   Cs4
 BYTE   W12
 BYTE   An3
 BYTE   W12
 BYTE   PEND 
// 039   ----------------------------------------
 BYTE   N15  Cn4
 BYTE   W24
 BYTE   N42  Fn3
 BYTE   W48
 BYTE   N20  Fs3
 BYTE   W24
// 040   ----------------------------------------
Label_1_01494C71:
 BYTE   PATT
  POIN2 Label_1_01494800
 BYTE   PATT
  POIN2 Label_1_0149482E
 BYTE   PATT
  POIN2 Label_1_01494857
 BYTE   PATT
  POIN2 Label_1_0149482E
 BYTE   PATT
  POIN2 Label_1_01494886
 BYTE   PATT
  POIN2 Label_1_014948AE
 BYTE   PATT
  POIN2 Label_1_014948D7
 BYTE   PATT
  POIN2 Label_1_01494901
 BYTE   PATT
  POIN2 Label_1_0149492F
 BYTE   PATT
  POIN2 Label_1_0149495A
 BYTE   PATT
  POIN2 Label_1_0149495A
 BYTE   PATT
  POIN2 Label_1_014949A2
 BYTE   PATT
  POIN2 Label_1_014949E9
 BYTE   PATT
  POIN2 Label_1_01494A14
// 041   ----------------------------------------
 BYTE   W96
// 042   ----------------------------------------
 BYTE   W96
 BYTE   PATT
  POIN2 Label_1_01494A3F
 BYTE   PATT
  POIN2 Label_1_01494A49
 BYTE   PATT
  POIN2 Label_1_01494A53
 BYTE   PATT
  POIN2 Label_1_01494A5A
 BYTE   PATT
  POIN2 Label_1_01494A6A
 BYTE   PATT
  POIN2 Label_1_01494A9E
// 043   ----------------------------------------
 BYTE   EOT
 BYTE   Fs4
 BYTE   VOL   11*SuperSmashBrosMeleeCorneriaMrGreen3339_mvl/mxv
 BYTE   W01
 BYTE   BnM2
 BYTE   W01
 BYTE   AsM2
 BYTE   W01
 BYTE   AnM2
 BYTE   W01
 BYTE   GsM2
 BYTE   W01
 BYTE   GsM2
 BYTE   W01
 BYTE   Fn3
 BYTE   N05  En4  v092
 BYTE   N05  En5
 BYTE   W08
 BYTE   En4
 BYTE   N05  En5
 BYTE   W08
 BYTE   En4
 BYTE   N05  En5
 BYTE   W08
 BYTE   PATT
  POIN2 Label_1_01494B3A
 BYTE   PATT
  POIN2 Label_1_01494B5C
 BYTE   PATT
  POIN2 Label_1_01494B7E
 BYTE   PATT
  POIN2 Label_1_01494BFE
 BYTE   PATT
  POIN2 Label_1_01494C13
 BYTE   PATT
  POIN2 Label_1_01494C1E
 BYTE   PATT
  POIN2 Label_1_01494C28
 BYTE   PATT
  POIN2 Label_1_01494C31
 BYTE   PATT
  POIN2 Label_1_01494C3B
 BYTE   PATT
  POIN2 Label_1_01494C44
 BYTE   PATT
  POIN2 Label_1_01494C4E
// 044   ----------------------------------------
 BYTE   W96
 BYTE   PATT
  POIN2 Label_1_01494C58
// 045   ----------------------------------------
 BYTE   N15  Cn4  v092
 BYTE   W24
 BYTE   N42  Fn3
 BYTE   W48
 BYTE   N20  Fs3
 BYTE   W23
 BYTE   GoTo
  POIN2 Label_1_01494C71
 BYTE   FINE

//**************** Track 3 (Midi-Chn.2) ****************//

SuperSmashBrosMeleeCorneriaMrGreen3339_003:
// 000   ----------------------------------------
 BYTE   KEYSH   SuperSmashBrosMeleeCorneriaMrGreen3339_key+0
 BYTE   VOICE   57
 BYTE   VOL   65*SuperSmashBrosMeleeCorneriaMrGreen3339_mvl/mxv
 BYTE   PAN   c_v+0
 BYTE   N08  Dn4  v092
 BYTE   N08  Gn4
 BYTE   W36
 BYTE   Cs4
 BYTE   N08  Fs4
 BYTE   W36
 BYTE   Cn4
 BYTE   N08  Fn4
 BYTE   W24
// 001   ----------------------------------------
 BYTE   W12
 BYTE   An3
 BYTE   N08  Dn4
 BYTE   W36
 BYTE   Gs3
 BYTE   N08  Cs4
 BYTE   W24
 BYTE   An3
 BYTE   N08  Cn4
 BYTE   W24
// 002   ----------------------------------------
 BYTE   N11  Gn2
 BYTE   N11  Dn3
 BYTE   N11  Gn3
 BYTE   W36
 BYTE   Fs2
 BYTE   N11  Cs3
 BYTE   N11  Fs3
 BYTE   W36
 BYTE   Fn2
 BYTE   N11  Cn3
 BYTE   N11  Fn3
 BYTE   W24
// 003   ----------------------------------------
 BYTE   W12
 BYTE   Dn2
 BYTE   N11  An2
 BYTE   N11  Dn3
 BYTE   W36
 BYTE   Cn2
 BYTE   N11  Gn2
 BYTE   N11  Cn3
 BYTE   W24
 BYTE   Cs2
 BYTE   N11  Gs2
 BYTE   N11  Cs3
 BYTE   W24
// 004   ----------------------------------------
 BYTE   Dn2
 BYTE   N11  An2
 BYTE   N11  Dn3
 BYTE   W96
// 005   ----------------------------------------
 BYTE   N08  Dn3  v108
 BYTE   N08  An3
 BYTE   N08  Dn4
 BYTE   W36
 BYTE   Dn3
 BYTE   N08  An3
 BYTE   N08  Dn4
 BYTE   W36
 BYTE   N02  Cs4
 BYTE   W03
 BYTE   N06  Dn3
 BYTE   N06  An3
 BYTE   N06  Dn4
 BYTE   W21
// 006   ----------------------------------------
Label_2_01494DAB:
 BYTE   N08  Gn2  v108
 BYTE   N08  Dn3
 BYTE   N08  Gn3
 BYTE   W96
 BYTE   PEND 
// 007   ----------------------------------------
 BYTE   W96
// 008   ----------------------------------------
 BYTE   Gn4
 BYTE   W96
// 009   ----------------------------------------
 BYTE   W96
// 010   ----------------------------------------
 BYTE   W96
// 011   ----------------------------------------
 BYTE   W96
// 012   ----------------------------------------
 BYTE   W96
// 013   ----------------------------------------
 BYTE   W96
// 014   ----------------------------------------
 BYTE   W96
// 015   ----------------------------------------
 BYTE   W96
// 016   ----------------------------------------
 BYTE   W96
// 017   ----------------------------------------
 BYTE   W96
// 018   ----------------------------------------
Label_2_01494DC0:
 BYTE   N11  Dn1  v108
 BYTE   N11  Dn2
 BYTE   W36
 BYTE   Dn1  v092
 BYTE   N11  Dn2
 BYTE   W36
 BYTE   Dn1
 BYTE   N11  Dn2
 BYTE   W24
 BYTE   PEND 
// 019   ----------------------------------------
Label_2_01494DD0:
 BYTE   W12
 BYTE   N11  Dn1  v092
 BYTE   N11  Dn2
 BYTE   W36
 BYTE   Dn1
 BYTE   N11  Dn2
 BYTE   W24
 BYTE   Dn1
 BYTE   N11  Dn2
 BYTE   W24
 BYTE   PEND 
// 020   ----------------------------------------
 BYTE   W96
// 021   ----------------------------------------
 BYTE   W96
// 022   ----------------------------------------
 BYTE   W96
// 023   ----------------------------------------
 BYTE   W96
// 024   ----------------------------------------
Label_2_01494DE4:
 BYTE   N11  Cs3  v092
 BYTE   W36
 BYTE   N11
 BYTE   W36
 BYTE   N11
 BYTE   W24
 BYTE   PEND 
// 025   ----------------------------------------
Label_2_01494DED:
 BYTE   N11  Bn2  v092
 BYTE   W36
 BYTE   N11
 BYTE   W36
 BYTE   N11
 BYTE   W24
 BYTE   PEND 
 BYTE   PATT
  POIN2 Label_2_01494DED
 BYTE   PATT
  POIN2 Label_2_01494DED
// 026   ----------------------------------------
 BYTE   W96
// 027   ----------------------------------------
 BYTE   W96
// 028   ----------------------------------------
 BYTE   W96
// 029   ----------------------------------------
Label_2_01494E03:
 BYTE   N20  Ds3  v092
 BYTE   N20  Ds4
 BYTE   W32
 BYTE   N05  Ds3
 BYTE   N05  Ds4
 BYTE   W08
 BYTE   Ds3
 BYTE   N05  Ds4
 BYTE   W08
 BYTE   N42  Fn3
 BYTE   N42  Fn4
 BYTE   W48
 BYTE   PEND 
// 030   ----------------------------------------
Label_2_01494E18:
 BYTE   N15  Gn1  v076
 BYTE   N15  Gn2
 BYTE   N15  Gn3
 BYTE   N15  Dn4
 BYTE   N15  Gn4
 BYTE   W24
 BYTE   Gn1
 BYTE   N15  Gn2
 BYTE   W24
 BYTE   N05  Gn1
 BYTE   N05  Gn2
 BYTE   W08
 BYTE   Gn1
 BYTE   N05  Gn2
 BYTE   W08
 BYTE   Gn1
 BYTE   N05  Gn2
 BYTE   W08
 BYTE   N15  Gn1
 BYTE   N15  Gn2
 BYTE   W24
 BYTE   PEND 
// 031   ----------------------------------------
Label_2_01494E3B:
 BYTE   N15  Gn1  v076
 BYTE   N15  Gn2
 BYTE   W24
 BYTE   Gn1
 BYTE   N15  Gn2
 BYTE   W24
 BYTE   N05  Gn1
 BYTE   N05  Gn2
 BYTE   W08
 BYTE   Gn1
 BYTE   N05  Gn2
 BYTE   W08
 BYTE   Gn1
 BYTE   N05  Gn2
 BYTE   W08
 BYTE   N15  Gn1
 BYTE   N15  Gn2
 BYTE   N15  Gn3
 BYTE   N15  Dn4
 BYTE   N15  Gn4
 BYTE   W24
 BYTE   PEND 
// 032   ----------------------------------------
Label_2_01494E5E:
 BYTE   N15  Gn1  v076
 BYTE   N15  Gn2
 BYTE   N15  Gs3
 BYTE   N15  Ds4
 BYTE   N15  Gs4
 BYTE   W24
 BYTE   Gn1
 BYTE   N15  Gn2
 BYTE   W24
 BYTE   N05  Gn1
 BYTE   N05  Gn2
 BYTE   W08
 BYTE   Gn1
 BYTE   N05  Gn2
 BYTE   W08
 BYTE   Gn1
 BYTE   N05  Gn2
 BYTE   W08
 BYTE   N15  Gn1
 BYTE   N15  Gn2
 BYTE   W24
 BYTE   PEND 
// 033   ----------------------------------------
Label_2_01494E81:
 BYTE   N15  Gn1  v076
 BYTE   N15  Gn2
 BYTE   W24
 BYTE   Gn1
 BYTE   N15  Gn2
 BYTE   W24
 BYTE   N05  Gn1
 BYTE   N05  Gn2
 BYTE   W08
 BYTE   Gn1
 BYTE   N05  Gn2
 BYTE   W08
 BYTE   Gn1
 BYTE   N05  Gn2
 BYTE   W08
 BYTE   N15  Gn1
 BYTE   N15  Gn2
 BYTE   N15  Gs3
 BYTE   N15  Ds4
 BYTE   N15  Gs4
 BYTE   W24
 BYTE   PEND 
// 034   ----------------------------------------
Label_2_01494EA4:
 BYTE   N15  Gn1  v076
 BYTE   N15  Gn2
 BYTE   N15  An3
 BYTE   N15  En4
 BYTE   N15  An4
 BYTE   W24
 BYTE   Gn1
 BYTE   N15  Gn2
 BYTE   W24
 BYTE   N05  Gn1
 BYTE   N05  Gn2
 BYTE   W08
 BYTE   Gn1
 BYTE   N05  Gn2
 BYTE   W08
 BYTE   Gn1
 BYTE   N05  Gn2
 BYTE   W08
 BYTE   N15  Gn1
 BYTE   N15  Gn2
 BYTE   W24
 BYTE   PEND 
// 035   ----------------------------------------
Label_2_01494EC7:
 BYTE   N15  Gn1  v076
 BYTE   N15  Gn2
 BYTE   W24
 BYTE   Gn1
 BYTE   N15  Gn2
 BYTE   W24
 BYTE   N05  Gn1
 BYTE   N05  Gn2
 BYTE   W08
 BYTE   Gn1
 BYTE   N05  Gn2
 BYTE   W08
 BYTE   Gn1
 BYTE   N05  Gn2
 BYTE   W08
 BYTE   N15  Gn1
 BYTE   N15  Gn2
 BYTE   N15  An3
 BYTE   N15  En4
 BYTE   N15  An4
 BYTE   W24
 BYTE   PEND 
// 036   ----------------------------------------
Label_2_01494EEA:
 BYTE   N15  Dn2  v076
 BYTE   N15  Dn3
 BYTE   N15  An3
 BYTE   N15  Dn4
 BYTE   W24
 BYTE   Dn2
 BYTE   N15  Dn3
 BYTE   W24
 BYTE   N05  Dn2
 BYTE   N05  Dn3
 BYTE   W08
 BYTE   Dn2
 BYTE   N05  Dn3
 BYTE   W08
 BYTE   Dn2
 BYTE   N05  Dn3
 BYTE   W08
 BYTE   N15  Dn2
 BYTE   N15  Dn3
 BYTE   W24
 BYTE   PEND 
// 037   ----------------------------------------
Label_2_01494F0B:
 BYTE   N15  Dn2  v076
 BYTE   N15  Dn3
 BYTE   W24
 BYTE   Dn2
 BYTE   N15  Dn3
 BYTE   W24
 BYTE   N05  Dn2
 BYTE   N05  Dn3
 BYTE   W08
 BYTE   Dn2
 BYTE   N05  Dn3
 BYTE   W08
 BYTE   Dn2
 BYTE   N05  Dn3
 BYTE   W08
 BYTE   N15  Dn2
 BYTE   N15  Dn3
 BYTE   W24
 BYTE   PEND 
// 038   ----------------------------------------
Label_2_01494F28:
 BYTE   N20  Gn2  v076
 BYTE   N20  Dn3
 BYTE   N20  Gn3
 BYTE   W24
 BYTE   Dn3
 BYTE   N20  An3
 BYTE   N20  Dn4
 BYTE   W24
 BYTE   N08  Cs3
 BYTE   N08  Gs3
 BYTE   N08  Cs4
 BYTE   W12
 BYTE   Dn3
 BYTE   N08  An3
 BYTE   N08  Dn4
 BYTE   W12
 BYTE   Cs3
 BYTE   N08  Gs3
 BYTE   N08  Cs4
 BYTE   W12
 BYTE   An2
 BYTE   N08  En3
 BYTE   N08  An3
 BYTE   W12
 BYTE   PEND 
// 039   ----------------------------------------
 BYTE   N15  Cn3
 BYTE   N15  Gn3
 BYTE   N15  Cn4
 BYTE   W24
 BYTE   N42  Fn2
 BYTE   N42  Cn3
 BYTE   N42  Fn3
 BYTE   W48
 BYTE   N20  Fs2
 BYTE   N20  Cs3
 BYTE   N20  Fs3
 BYTE   W24
// 040   ----------------------------------------
Label_2_01494F65:
 BYTE   PATT
  POIN2 Label_2_01494DAB
// 041   ----------------------------------------
 BYTE   W96
// 042   ----------------------------------------
 BYTE   N08  Gn4  v108
 BYTE   W96
// 043   ----------------------------------------
 BYTE   W96
// 044   ----------------------------------------
 BYTE   W96
// 045   ----------------------------------------
 BYTE   W96
// 046   ----------------------------------------
 BYTE   W96
// 047   ----------------------------------------
 BYTE   W96
// 048   ----------------------------------------
 BYTE   W96
// 049   ----------------------------------------
 BYTE   W96
// 050   ----------------------------------------
 BYTE   W96
// 051   ----------------------------------------
 BYTE   W96
 BYTE   PATT
  POIN2 Label_2_01494DC0
 BYTE   PATT
  POIN2 Label_2_01494DD0
// 052   ----------------------------------------
 BYTE   W96
// 053   ----------------------------------------
 BYTE   W96
// 054   ----------------------------------------
 BYTE   W96
// 055   ----------------------------------------
 BYTE   W96
 BYTE   PATT
  POIN2 Label_2_01494DE4
 BYTE   PATT
  POIN2 Label_2_01494DED
 BYTE   PATT
  POIN2 Label_2_01494DED
 BYTE   PATT
  POIN2 Label_2_01494DED
// 056   ----------------------------------------
 BYTE   W96
// 057   ----------------------------------------
 BYTE   W96
// 058   ----------------------------------------
 BYTE   W96
 BYTE   PATT
  POIN2 Label_2_01494E03
 BYTE   PATT
  POIN2 Label_2_01494E18
 BYTE   PATT
  POIN2 Label_2_01494E3B
 BYTE   PATT
  POIN2 Label_2_01494E5E
 BYTE   PATT
  POIN2 Label_2_01494E81
 BYTE   PATT
  POIN2 Label_2_01494EA4
 BYTE   PATT
  POIN2 Label_2_01494EC7
 BYTE   PATT
  POIN2 Label_2_01494EEA
 BYTE   PATT
  POIN2 Label_2_01494F0B
 BYTE   PATT
  POIN2 Label_2_01494F28
// 059   ----------------------------------------
 BYTE   N15  Cn3  v076
 BYTE   N15  Gn3
 BYTE   N15  Cn4
 BYTE   W24
 BYTE   N42  Fn2
 BYTE   N42  Cn3
 BYTE   N42  Fn3
 BYTE   W48
 BYTE   N20  Fs2
 BYTE   N20  Cs3
 BYTE   N20  Fs3
 BYTE   W23
 BYTE   GoTo
  POIN2 Label_2_01494F65
 BYTE   FINE

//**************** Track 4 (Midi-Chn.3) ****************//

SuperSmashBrosMeleeCorneriaMrGreen3339_004:
// 000   ----------------------------------------
 BYTE   KEYSH   SuperSmashBrosMeleeCorneriaMrGreen3339_key+0
 BYTE   VOICE   56
 BYTE   VOL   65*SuperSmashBrosMeleeCorneriaMrGreen3339_mvl/mxv
 BYTE   PAN   c_v+0
 BYTE   N08  Gn3  v076
 BYTE   N08  Dn4
 BYTE   N08  Gn4
 BYTE   W36
 BYTE   Fs3
 BYTE   N08  Cs4
 BYTE   N08  Fs4
 BYTE   W36
 BYTE   Fn3
 BYTE   N08  Cn4
 BYTE   N08  Fn4
 BYTE   W24
// 001   ----------------------------------------
 BYTE   W12
 BYTE   Dn3
 BYTE   N08  An3
 BYTE   N08  Dn4
 BYTE   W36
 BYTE   Cs3
 BYTE   N08  Gs3
 BYTE   N08  Cs4
 BYTE   W24
 BYTE   Cn3
 BYTE   N08  An3
 BYTE   N08  Cn4
 BYTE   W24
// 002   ----------------------------------------
 BYTE   N11  Gn1  v127
 BYTE   N11  Gn3
 BYTE   W36
 BYTE   Fs1
 BYTE   N11  Fs3
 BYTE   W36
 BYTE   Fn1
 BYTE   N11  Fn3
 BYTE   W24
// 003   ----------------------------------------
 BYTE   W12
 BYTE   Dn1
 BYTE   N11  Dn3
 BYTE   W36
 BYTE   Cn1
 BYTE   N11  Cn3
 BYTE   W24
 BYTE   Cs1
 BYTE   N11  Cs3
 BYTE   W24
// 004   ----------------------------------------
 BYTE   Dn1
 BYTE   N11  Dn3
 BYTE   W96
// 005   ----------------------------------------
 BYTE   N08  Dn4  v060
 BYTE   W36
 BYTE   N08
 BYTE   W36
 BYTE   N08
 BYTE   W24
// 006   ----------------------------------------
 BYTE   Gn2  v108
 BYTE   N08  Dn3
 BYTE   N08  Gn3
 BYTE   W96
// 007   ----------------------------------------
 BYTE   W96
// 008   ----------------------------------------
 BYTE   W96
// 009   ----------------------------------------
 BYTE   W96
// 010   ----------------------------------------
 BYTE   W96
// 011   ----------------------------------------
 BYTE   W96
// 012   ----------------------------------------
 BYTE   W96
// 013   ----------------------------------------
 BYTE   W96
// 014   ----------------------------------------
 BYTE   W96
// 015   ----------------------------------------
 BYTE   W96
// 016   ----------------------------------------
 BYTE   W96
// 017   ----------------------------------------
 BYTE   W96
// 018   ----------------------------------------
Label_3_01495054:
 BYTE   N11  Dn1  v108
 BYTE   N11  Dn2
 BYTE   W36
 BYTE   Dn1  v076
 BYTE   N11  Dn2
 BYTE   W36
 BYTE   Dn1
 BYTE   N11  Dn2
 BYTE   W24
 BYTE   PEND 
// 019   ----------------------------------------
Label_3_01495064:
 BYTE   W12
 BYTE   N11  Dn1  v076
 BYTE   N11  Dn2
 BYTE   W36
 BYTE   Dn1
 BYTE   N11  Dn2
 BYTE   W24
 BYTE   Dn1
 BYTE   N11  Dn2
 BYTE   W24
 BYTE   PEND 
// 020   ----------------------------------------
 BYTE   W96
// 021   ----------------------------------------
 BYTE   W96
// 022   ----------------------------------------
 BYTE   W96
// 023   ----------------------------------------
 BYTE   W96
// 024   ----------------------------------------
Label_3_01495078:
 BYTE   N11  An2  v076
 BYTE   N11  Cs3
 BYTE   W36
 BYTE   An2
 BYTE   N11  Cs3
 BYTE   W36
 BYTE   An2
 BYTE   N11  Cs3
 BYTE   W24
 BYTE   PEND 
// 025   ----------------------------------------
Label_3_01495087:
 BYTE   N11  Fs2  v076
 BYTE   N11  Bn2
 BYTE   W36
 BYTE   Fs2
 BYTE   N11  Bn2
 BYTE   W36
 BYTE   Fs2
 BYTE   N11  Bn2
 BYTE   W24
 BYTE   PEND 
// 026   ----------------------------------------
Label_3_01495096:
 BYTE   N11  Gs2  v076
 BYTE   N11  Bn2
 BYTE   W36
 BYTE   Gs2
 BYTE   N11  Bn2
 BYTE   W36
 BYTE   Gs2
 BYTE   N11  Bn2
 BYTE   W24
 BYTE   PEND 
 BYTE   PATT
  POIN2 Label_3_01495096
// 027   ----------------------------------------
Label_3_014950AA:
 BYTE   N48  Fn3  v092
 BYTE   N48  An3
 BYTE   N48  Cn4
 BYTE   W72
 BYTE   N05  Fn3
 BYTE   N05  An3
 BYTE   N05  Cn4
 BYTE   W08
 BYTE   Fn3
 BYTE   N05  An3
 BYTE   N05  Cn4
 BYTE   W08
 BYTE   Fn3
 BYTE   N05  An3
 BYTE   N05  Cn4
 BYTE   W08
 BYTE   PEND 
// 028   ----------------------------------------
Label_3_014950C6:
 BYTE   N48  Ds3  v092
 BYTE   N48  Gn3
 BYTE   N48  As3
 BYTE   W72
 BYTE   N05  Ds3
 BYTE   N05  Gn3
 BYTE   N05  As3
 BYTE   W08
 BYTE   Ds3
 BYTE   N05  Gn3
 BYTE   N05  As3
 BYTE   W08
 BYTE   Ds3
 BYTE   N05  Gn3
 BYTE   N05  As3
 BYTE   W08
 BYTE   PEND 
// 029   ----------------------------------------
Label_3_014950E2:
 BYTE   VOL   64*SuperSmashBrosMeleeCorneriaMrGreen3339_mvl/mxv
 BYTE   N90  An2  v092
 BYTE   N90  Cn3
 BYTE   N90  En3
 BYTE   N90  Gn3
 BYTE   W01
 BYTE   VOL   63*SuperSmashBrosMeleeCorneriaMrGreen3339_mvl/mxv
 BYTE   W01
 BYTE   Dn3
 BYTE   W01
 BYTE   Cs3
 BYTE   W01
 BYTE   Cn3
 BYTE   W01
 BYTE   Bn2
 BYTE   W01
 BYTE   As2
 BYTE   W01
 BYTE   An2
 BYTE   W01
 BYTE   Gs2
 BYTE   W01
 BYTE   Gn2
 BYTE   W01
 BYTE   Fs2
 BYTE   W01
 BYTE   Fn2
 BYTE   W01
 BYTE   En2
 BYTE   W01
 BYTE   Ds2
 BYTE   W01
 BYTE   Dn2
 BYTE   W01
 BYTE   Dn2
 BYTE   W01
 BYTE   Cs2
 BYTE   W01
 BYTE   Cn2
 BYTE   W01
 BYTE   Bn1
 BYTE   W01
 BYTE   As1
 BYTE   W01
 BYTE   An1
 BYTE   W01
 BYTE   Gs1
 BYTE   W01
 BYTE   Fs1
 BYTE   W01
 BYTE   Fs1
 BYTE   W01
 BYTE   Fn1
 BYTE   W01
 BYTE   Fs1
 BYTE   W01
 BYTE   Fs1
 BYTE   W02
 BYTE   Gn1
 BYTE   W01
 BYTE   Gs1
 BYTE   W01
 BYTE   Gs1
 BYTE   W02
 BYTE   An1
 BYTE   W01
 BYTE   An1
 BYTE   W01
 BYTE   As1
 BYTE   W02
 BYTE   As1
 BYTE   W01
 BYTE   Bn1
 BYTE   W01
 BYTE   Bn1
 BYTE   W02
 BYTE   Cn2
 BYTE   W01
 BYTE   Cn2
 BYTE   W01
 BYTE   Cs2
 BYTE   W02
 BYTE   Cs2
 BYTE   W01
 BYTE   Dn2
 BYTE   W01
 BYTE   Dn2
 BYTE   W02
 BYTE   Ds2
 BYTE   W01
 BYTE   Ds2
 BYTE   W01
 BYTE   En2
 BYTE   W02
 BYTE   En2
 BYTE   W01
 BYTE   Fn2
 BYTE   W01
 BYTE   Fn2
 BYTE   W02
 BYTE   Fs2
 BYTE   W01
 BYTE   Fs2
 BYTE   W01
 BYTE   Gn2
 BYTE   W02
 BYTE   Gn2
 BYTE   W01
 BYTE   Gs2
 BYTE   W01
 BYTE   Gs2
 BYTE   W02
 BYTE   An2
 BYTE   W01
 BYTE   An2
 BYTE   W01
 BYTE   As2
 BYTE   W02
 BYTE   As2
 BYTE   W01
 BYTE   Bn2
 BYTE   W01
 BYTE   Bn2
 BYTE   W02
 BYTE   Cn3
 BYTE   W01
 BYTE   Cn3
 BYTE   W01
 BYTE   Cs3
 BYTE   W02
 BYTE   Cs3
 BYTE   W01
 BYTE   Dn3
 BYTE   W01
 BYTE   Dn3
 BYTE   W02
 BYTE   Ds3
 BYTE   W01
 BYTE   Ds3
 BYTE   W01
 BYTE   En3
 BYTE   W02
 BYTE   Ds3
 BYTE   W01
 BYTE   Cs3
 BYTE   W01
 BYTE   Cn3
 BYTE   W01
 BYTE   As2
 BYTE   W01
 BYTE   An2
 BYTE   W01
 BYTE   Gn2
 BYTE   W01
 BYTE   Fn2
 BYTE   W01
 BYTE   En2
 BYTE   W01
 BYTE   Dn2
 BYTE   W01
 BYTE   Cs2
 BYTE   W01
 BYTE   Bn1
 BYTE   W01
 BYTE   As1
 BYTE   W01
 BYTE   PEND 
// 030   ----------------------------------------
Label_3_01495190:
 BYTE   VOL   65*SuperSmashBrosMeleeCorneriaMrGreen3339_mvl/mxv
 BYTE   N20  Ds3  v108
 BYTE   N20  Gn3
 BYTE   N20  Cn4
 BYTE   N20  Ds4
 BYTE   W32
 BYTE   N05  Ds3
 BYTE   N05  Gn3
 BYTE   N05  Cn4
 BYTE   N05  Ds4
 BYTE   W08
 BYTE   Ds3
 BYTE   N05  Gn3
 BYTE   N05  Cn4
 BYTE   N05  Ds4
 BYTE   W08
 BYTE   VOL   63*SuperSmashBrosMeleeCorneriaMrGreen3339_mvl/mxv
 BYTE   N48  Ds3
 BYTE   N48  Gn3
 BYTE   N48  Cn4
 BYTE   N48  Ds4
 BYTE   W01
 BYTE   VOL   62*SuperSmashBrosMeleeCorneriaMrGreen3339_mvl/mxv
 BYTE   W01
 BYTE   Cs3
 BYTE   W01
 BYTE   Cn3
 BYTE   W01
 BYTE   As2
 BYTE   W01
 BYTE   An2
 BYTE   W01
 BYTE   Gs2
 BYTE   W01
 BYTE   Gn2
 BYTE   W01
 BYTE   Fs2
 BYTE   W01
 BYTE   En2
 BYTE   W01
 BYTE   Ds2
 BYTE   W01
 BYTE   Dn2
 BYTE   W01
 BYTE   Dn2
 BYTE   W01
 BYTE   Dn2
 BYTE   W01
 BYTE   Ds2
 BYTE   W01
 BYTE   Ds2
 BYTE   W01
 BYTE   En2
 BYTE   W02
 BYTE   En2
 BYTE   W01
 BYTE   Fn2
 BYTE   W01
 BYTE   Fn2
 BYTE   W01
 BYTE   Fs2
 BYTE   W02
 BYTE   Fs2
 BYTE   W01
 BYTE   Gn2
 BYTE   W01
 BYTE   Gn2
 BYTE   W01
 BYTE   Gs2
 BYTE   W02
 BYTE   Gs2
 BYTE   W01
 BYTE   An2
 BYTE   W01
 BYTE   An2
 BYTE   W01
 BYTE   As2
 BYTE   W02
 BYTE   As2
 BYTE   W01
 BYTE   Bn2
 BYTE   W01
 BYTE   Bn2
 BYTE   W01
 BYTE   Cn3
 BYTE   W02
 BYTE   Cn3
 BYTE   W01
 BYTE   Cs3
 BYTE   W01
 BYTE   Cs3
 BYTE   W01
 BYTE   Dn3
 BYTE   W02
 BYTE   Dn3
 BYTE   W01
 BYTE   Ds3
 BYTE   W01
 BYTE   Ds3
 BYTE   W01
 BYTE   En3
 BYTE   W02
 BYTE   PEND 
// 031   ----------------------------------------
Label_3_0149520A:
 BYTE   VOL   65*SuperSmashBrosMeleeCorneriaMrGreen3339_mvl/mxv
 BYTE   N20  Gn3  v092
 BYTE   N20  Dn4
 BYTE   N20  Gn4
 BYTE   W96
 BYTE   PEND 
// 032   ----------------------------------------
Label_3_01495215:
 BYTE   W72
 BYTE   N15  Gn3  v092
 BYTE   N15  Dn4
 BYTE   N15  Gn4
 BYTE   W24
 BYTE   PEND 
// 033   ----------------------------------------
Label_3_0149521F:
 BYTE   N15  Gs3  v092
 BYTE   N15  Ds4
 BYTE   N15  Gs4
 BYTE   W96
 BYTE   PEND 
// 034   ----------------------------------------
Label_3_01495228:
 BYTE   W72
 BYTE   N15  Gs3  v092
 BYTE   N15  Ds4
 BYTE   N15  Gs4
 BYTE   W24
 BYTE   PEND 
// 035   ----------------------------------------
Label_3_01495232:
 BYTE   N15  An3  v092
 BYTE   N15  En4
 BYTE   N15  An4
 BYTE   W96
 BYTE   PEND 
// 036   ----------------------------------------
Label_3_0149523B:
 BYTE   W72
 BYTE   N15  An3  v092
 BYTE   N15  En4
 BYTE   N15  An4
 BYTE   W24
 BYTE   PEND 
// 037   ----------------------------------------
Label_3_01495245:
 BYTE   N15  Dn3  v092
 BYTE   N15  An3
 BYTE   N15  Dn4
 BYTE   W96
 BYTE   PEND 
// 038   ----------------------------------------
 BYTE   W96
// 039   ----------------------------------------
Label_3_0149524F:
 BYTE   N20  Gn2  v092
 BYTE   N20  Dn3
 BYTE   N20  Gn3
 BYTE   W24
 BYTE   Dn3  v108
 BYTE   N20  An3
 BYTE   N20  Dn4
 BYTE   W24
 BYTE   N08  Cs3
 BYTE   N08  Gs3
 BYTE   N08  Cs4
 BYTE   W12
 BYTE   Dn3
 BYTE   N08  An3
 BYTE   N08  Dn4
 BYTE   W12
 BYTE   Cs3
 BYTE   N08  Gs3
 BYTE   N08  Cs4
 BYTE   W12
 BYTE   An2
 BYTE   N08  En3
 BYTE   N08  An3
 BYTE   W12
 BYTE   PEND 
// 040   ----------------------------------------
 BYTE   N15  Cn3
 BYTE   N15  Gn3
 BYTE   N15  Cn4
 BYTE   W24
 BYTE   N42  Fn2
 BYTE   N42  Cn3
 BYTE   N42  Fn3
 BYTE   W48
 BYTE   N20  Fs2
 BYTE   N20  Cs3
 BYTE   N20  Fs3
 BYTE   W24
// 041   ----------------------------------------
Label_3_0149528D:
 BYTE   N08  Gn2  v127
 BYTE   N08  Dn3
 BYTE   N08  Gn3
 BYTE   W96
// 042   ----------------------------------------
 BYTE   W96
// 043   ----------------------------------------
 BYTE   W96
// 044   ----------------------------------------
 BYTE   W96
// 045   ----------------------------------------
 BYTE   W96
// 046   ----------------------------------------
 BYTE   W96
// 047   ----------------------------------------
 BYTE   W96
// 048   ----------------------------------------
 BYTE   W96
// 049   ----------------------------------------
 BYTE   W96
// 050   ----------------------------------------
 BYTE   W96
// 051   ----------------------------------------
 BYTE   W96
// 052   ----------------------------------------
 BYTE   W96
 BYTE   PATT
  POIN2 Label_3_01495054
 BYTE   PATT
  POIN2 Label_3_01495064
// 053   ----------------------------------------
 BYTE   W96
// 054   ----------------------------------------
 BYTE   W96
// 055   ----------------------------------------
 BYTE   W96
// 056   ----------------------------------------
 BYTE   W96
 BYTE   PATT
  POIN2 Label_3_01495078
 BYTE   PATT
  POIN2 Label_3_01495087
 BYTE   PATT
  POIN2 Label_3_01495096
 BYTE   PATT
  POIN2 Label_3_01495096
 BYTE   PATT
  POIN2 Label_3_014950AA
 BYTE   PATT
  POIN2 Label_3_014950C6
 BYTE   PATT
  POIN2 Label_3_014950E2
 BYTE   PATT
  POIN2 Label_3_01495190
 BYTE   PATT
  POIN2 Label_3_0149520A
 BYTE   PATT
  POIN2 Label_3_01495215
 BYTE   PATT
  POIN2 Label_3_0149521F
 BYTE   PATT
  POIN2 Label_3_01495228
 BYTE   PATT
  POIN2 Label_3_01495232
 BYTE   PATT
  POIN2 Label_3_0149523B
 BYTE   PATT
  POIN2 Label_3_01495245
// 057   ----------------------------------------
 BYTE   W96
 BYTE   PATT
  POIN2 Label_3_0149524F
// 058   ----------------------------------------
 BYTE   N15  Cn3  v108
 BYTE   N15  Gn3
 BYTE   N15  Cn4
 BYTE   W24
 BYTE   N42  Fn2
 BYTE   N42  Cn3
 BYTE   N42  Fn3
 BYTE   W48
 BYTE   N20  Fs2
 BYTE   N20  Cs3
 BYTE   N20  Fs3
 BYTE   W23
 BYTE   GoTo
  POIN2 Label_3_0149528D
 BYTE   FINE

//**************** Track 5 (Midi-Chn.4) ****************//

SuperSmashBrosMeleeCorneriaMrGreen3339_005:
// 000   ----------------------------------------
 BYTE   KEYSH   SuperSmashBrosMeleeCorneriaMrGreen3339_key+0
 BYTE   VOICE   73
 BYTE   VOL   65*SuperSmashBrosMeleeCorneriaMrGreen3339_mvl/mxv
 BYTE   PAN   c_v+0
 BYTE   W96
// 001   ----------------------------------------
 BYTE   W96
// 002   ----------------------------------------
 BYTE   N04  Gn5  v108
 BYTE   W36
 BYTE   Fs5
 BYTE   W36
 BYTE   Fn5
 BYTE   W24
// 003   ----------------------------------------
 BYTE   W12
 BYTE   Dn5
 BYTE   W36
 BYTE   Cn5
 BYTE   W24
 BYTE   Cs5
 BYTE   W24
// 004   ----------------------------------------
 BYTE   N11  Dn5
 BYTE   W96
// 005   ----------------------------------------
 BYTE   N08  Dn4
 BYTE   W36
 BYTE   N08
 BYTE   W36
 BYTE   N08
 BYTE   W24
// 006   ----------------------------------------
 BYTE   N11  Gn4
 BYTE   W96
// 007   ----------------------------------------
 BYTE   W96
// 008   ----------------------------------------
 BYTE   N08  Gn5  v076
 BYTE   W96
// 009   ----------------------------------------
 BYTE   W96
// 010   ----------------------------------------
 BYTE   W96
// 011   ----------------------------------------
 BYTE   W96
// 012   ----------------------------------------
 BYTE   N08
 BYTE   W96
// 013   ----------------------------------------
 BYTE   W96
// 014   ----------------------------------------
 BYTE   W96
// 015   ----------------------------------------
Label_4_0149534E:
 BYTE   W72
 BYTE   N05  As3  v076
 BYTE   W06
 BYTE   Cs4
 BYTE   W06
 BYTE   Dn4
 BYTE   W06
 BYTE   Fs4
 BYTE   W06
 BYTE   PEND 
// 016   ----------------------------------------
Label_4_0149535A:
 BYTE   N05  Gn4  v076
 BYTE   W06
 BYTE   Fs4
 BYTE   W06
 BYTE   Gn4
 BYTE   W06
 BYTE   Fs4
 BYTE   W06
 BYTE   Ds4
 BYTE   W06
 BYTE   Dn4
 BYTE   W06
 BYTE   Ds4
 BYTE   W06
 BYTE   Dn4
 BYTE   W06
 BYTE   As3
 BYTE   W06
 BYTE   An3
 BYTE   W06
 BYTE   As3
 BYTE   W06
 BYTE   An3
 BYTE   W06
 BYTE   As3
 BYTE   W06
 BYTE   Cs4
 BYTE   W06
 BYTE   Dn4
 BYTE   W06
 BYTE   Fs4
 BYTE   W06
 BYTE   PEND 
 BYTE   PATT
  POIN2 Label_4_0149535A
// 017   ----------------------------------------
 BYTE   N11  Dn4  v076
 BYTE   W96
// 018   ----------------------------------------
Label_4_01495386:
 BYTE   W72
 BYTE   N05  Dn6  v076
 BYTE   W06
 BYTE   Cn6
 BYTE   W06
 BYTE   Bn5
 BYTE   W06
 BYTE   An5  v048
 BYTE   W06
 BYTE   PEND 
// 019   ----------------------------------------
 BYTE   N20  Gn5  v060
 BYTE   W96
// 020   ----------------------------------------
 BYTE   W96
// 021   ----------------------------------------
 BYTE   W96
// 022   ----------------------------------------
 BYTE   W96
// 023   ----------------------------------------
Label_4_0149539A:
 BYTE   VOL   19*SuperSmashBrosMeleeCorneriaMrGreen3339_mvl/mxv
 BYTE   N90  An5  v060
 BYTE   W01
 BYTE   VOL   20*SuperSmashBrosMeleeCorneriaMrGreen3339_mvl/mxv
 BYTE   W01
 BYTE   AnM1
 BYTE   W01
 BYTE   AsM1
 BYTE   W01
 BYTE   BnM1
 BYTE   W01
 BYTE   Cn0
 BYTE   W01
 BYTE   Cs0
 BYTE   W01
 BYTE   Dn0
 BYTE   W01
 BYTE   Ds0
 BYTE   W01
 BYTE   En0
 BYTE   W01
 BYTE   Fn0
 BYTE   W01
 BYTE   Fs0
 BYTE   W01
 BYTE   Gn0
 BYTE   W01
 BYTE   Gs0
 BYTE   W01
 BYTE   An0
 BYTE   W01
 BYTE   An0
 BYTE   W01
 BYTE   As0
 BYTE   W01
 BYTE   Bn0
 BYTE   W01
 BYTE   Cn1
 BYTE   W01
 BYTE   Cs1
 BYTE   W01
 BYTE   Dn1
 BYTE   W01
 BYTE   Ds1
 BYTE   W01
 BYTE   En1
 BYTE   W01
 BYTE   Fn1
 BYTE   W01
 BYTE   Fs1
 BYTE   W01
 BYTE   Gn1
 BYTE   W01
 BYTE   Gs1
 BYTE   W01
 BYTE   An1
 BYTE   W01
 BYTE   As1
 BYTE   W01
 BYTE   Bn1
 BYTE   W01
 BYTE   Cn2
 BYTE   W01
 BYTE   Cs2
 BYTE   W01
 BYTE   Dn2
 BYTE   W01
 BYTE   Ds2
 BYTE   W01
 BYTE   En2
 BYTE   W01
 BYTE   Fn2
 BYTE   W01
 BYTE   Fs2
 BYTE   W01
 BYTE   Gn2
 BYTE   W01
 BYTE   Gs2
 BYTE   W01
 BYTE   Gs2
 BYTE   W01
 BYTE   An2
 BYTE   W01
 BYTE   As2
 BYTE   W01
 BYTE   Bn2
 BYTE   W01
 BYTE   Cn3
 BYTE   W01
 BYTE   Cs3
 BYTE   W01
 BYTE   Dn3
 BYTE   W01
 BYTE   Ds3
 BYTE   W01
 BYTE   En3
 BYTE   W01
 BYTE   En3
 BYTE   W01
 BYTE   Ds3
 BYTE   W01
 BYTE   Dn3
 BYTE   W01
 BYTE   Cs3
 BYTE   W01
 BYTE   Cn3
 BYTE   W01
 BYTE   Bn2
 BYTE   W01
 BYTE   As2
 BYTE   W01
 BYTE   An2
 BYTE   W01
 BYTE   Gs2
 BYTE   W01
 BYTE   Gn2
 BYTE   W01
 BYTE   Fs2
 BYTE   W01
 BYTE   Fn2
 BYTE   W01
 BYTE   En2
 BYTE   W01
 BYTE   Ds2
 BYTE   W01
 BYTE   Dn2
 BYTE   W01
 BYTE   Cs2
 BYTE   W01
 BYTE   Cn2
 BYTE   W01
 BYTE   Bn1
 BYTE   W01
 BYTE   As1
 BYTE   W01
 BYTE   An1
 BYTE   W01
 BYTE   Gs1
 BYTE   W01
 BYTE   Fs1
 BYTE   W01
 BYTE   Fn1
 BYTE   W01
 BYTE   En1
 BYTE   W01
 BYTE   Ds1
 BYTE   W01
 BYTE   Dn1
 BYTE   W01
 BYTE   Cs1
 BYTE   W01
 BYTE   Cn1
 BYTE   W01
 BYTE   Bn0
 BYTE   W01
 BYTE   As0
 BYTE   W01
 BYTE   An0
 BYTE   W01
 BYTE   Gs0
 BYTE   W01
 BYTE   Gn0
 BYTE   W01
 BYTE   Fs0
 BYTE   W01
 BYTE   Fn0
 BYTE   W01
 BYTE   En0
 BYTE   W01
 BYTE   Ds0
 BYTE   W01
 BYTE   Dn0
 BYTE   W01
 BYTE   Cs0
 BYTE   W01
 BYTE   Cn0
 BYTE   W01
 BYTE   BnM1
 BYTE   W01
 BYTE   AsM1
 BYTE   W01
 BYTE   AnM1
 BYTE   W01
 BYTE   GsM1
 BYTE   W01
 BYTE   GnM1
 BYTE   W01
 BYTE   FsM1
 BYTE   W01
 BYTE   FnM1
 BYTE   W01
 BYTE   EnM1
 BYTE   W01
 BYTE   PEND 
// 024   ----------------------------------------
Label_4_01495460:
 BYTE   VOL   17*SuperSmashBrosMeleeCorneriaMrGreen3339_mvl/mxv
 BYTE   W01
 BYTE   GnM1
 BYTE   W01
 BYTE   AnM1
 BYTE   W01
 BYTE   BnM1
 BYTE   W01
 BYTE   Cs0
 BYTE   W01
 BYTE   Ds0
 BYTE   W01
 BYTE   Fn0
 BYTE   W01
 BYTE   Gn0
 BYTE   W01
 BYTE   An0
 BYTE   W01
 BYTE   Bn0
 BYTE   W01
 BYTE   Cs1
 BYTE   W01
 BYTE   Ds1
 BYTE   W01
 BYTE   Fn1
 BYTE   W01
 BYTE   Gs1
 BYTE   W01
 BYTE   As1
 BYTE   W01
 BYTE   Cn2
 BYTE   W01
 BYTE   Dn2
 BYTE   W01
 BYTE   En2
 BYTE   W01
 BYTE   Fs2
 BYTE   W01
 BYTE   Gs2
 BYTE   W01
 BYTE   As2
 BYTE   W01
 BYTE   Cn3
 BYTE   W01
 BYTE   Dn3
 BYTE   W01
 BYTE   En3
 BYTE   W01
 BYTE   Fn3
 BYTE   W72
 BYTE   PEND 
// 025   ----------------------------------------
 BYTE   W96
// 026   ----------------------------------------
 BYTE   W96
// 027   ----------------------------------------
 BYTE   W96
// 028   ----------------------------------------
 BYTE   W96
// 029   ----------------------------------------
 BYTE   W96
// 030   ----------------------------------------
 BYTE   W96
// 031   ----------------------------------------
 BYTE   N11  Gn5  v060
 BYTE   N11  Gn6
 BYTE   W96
// 032   ----------------------------------------
Label_4_014954A0:
 BYTE   W72
 BYTE   N11  Gn5  v060
 BYTE   N11  Gn6
 BYTE   W24
 BYTE   PEND 
// 033   ----------------------------------------
 BYTE   Gs5
 BYTE   N11  Gs6
 BYTE   W96
// 034   ----------------------------------------
Label_4_014954AC:
 BYTE   W72
 BYTE   N11  Gs5  v060
 BYTE   N11  Gs6
 BYTE   W24
 BYTE   PEND 
// 035   ----------------------------------------
 BYTE   An5
 BYTE   W96
// 036   ----------------------------------------
 BYTE   W72
 BYTE   N11
 BYTE   W24
// 037   ----------------------------------------
 BYTE   Dn5
 BYTE   W96
// 038   ----------------------------------------
 BYTE   W96
// 039   ----------------------------------------
 BYTE   W96
// 040   ----------------------------------------
 BYTE   W96
// 041   ----------------------------------------
Label_4_014954BE:
 BYTE   N11  Gn4  v012
 BYTE   W96
// 042   ----------------------------------------
 BYTE   W96
// 043   ----------------------------------------
 BYTE   N08  Gn5  v076
 BYTE   W96
// 044   ----------------------------------------
 BYTE   W96
// 045   ----------------------------------------
 BYTE   W96
// 046   ----------------------------------------
 BYTE   W96
// 047   ----------------------------------------
 BYTE   N08
 BYTE   W96
// 048   ----------------------------------------
 BYTE   W96
// 049   ----------------------------------------
 BYTE   W96
 BYTE   PATT
  POIN2 Label_4_0149534E
 BYTE   PATT
  POIN2 Label_4_0149535A
 BYTE   PATT
  POIN2 Label_4_0149535A
// 050   ----------------------------------------
 BYTE   N11  Dn4  v076
 BYTE   W96
 BYTE   PATT
  POIN2 Label_4_01495386
// 051   ----------------------------------------
 BYTE   N20  Gn5  v060
 BYTE   W96
// 052   ----------------------------------------
 BYTE   W96
// 053   ----------------------------------------
 BYTE   W96
// 054   ----------------------------------------
 BYTE   W96
 BYTE   PATT
  POIN2 Label_4_0149539A
 BYTE   PATT
  POIN2 Label_4_01495460
// 055   ----------------------------------------
 BYTE   W96
// 056   ----------------------------------------
 BYTE   W96
// 057   ----------------------------------------
 BYTE   W96
// 058   ----------------------------------------
 BYTE   W96
// 059   ----------------------------------------
 BYTE   W96
// 060   ----------------------------------------
 BYTE   W96
// 061   ----------------------------------------
 BYTE   N11  Gn5  v060
 BYTE   N11  Gn6
 BYTE   W96
 BYTE   PATT
  POIN2 Label_4_014954A0
// 062   ----------------------------------------
 BYTE   N11  Gs5  v060
 BYTE   N11  Gs6
 BYTE   W96
 BYTE   PATT
  POIN2 Label_4_014954AC
// 063   ----------------------------------------
 BYTE   N11  An5  v060
 BYTE   W96
// 064   ----------------------------------------
 BYTE   W72
 BYTE   N11
 BYTE   W24
// 065   ----------------------------------------
 BYTE   Dn5
 BYTE   W96
// 066   ----------------------------------------
 BYTE   W96
// 067   ----------------------------------------
 BYTE   W96
// 068   ----------------------------------------
 BYTE   W92
 BYTE   W03
 BYTE   GoTo
  POIN2 Label_4_014954BE
 BYTE   FINE

//**************** Track 6 (Midi-Chn.5) ****************//

SuperSmashBrosMeleeCorneriaMrGreen3339_006:
// 000   ----------------------------------------
 BYTE   KEYSH   SuperSmashBrosMeleeCorneriaMrGreen3339_key+0
 BYTE   VOICE   60
 BYTE   VOL   65*SuperSmashBrosMeleeCorneriaMrGreen3339_mvl/mxv
 BYTE   PAN   c_v+0
 BYTE   N08  Gn4  v092
 BYTE   N08  Gn5
 BYTE   W36
 BYTE   Fs4
 BYTE   N08  Fs5
 BYTE   W36
 BYTE   Fn4
 BYTE   N08  Fn5
 BYTE   W24
// 001   ----------------------------------------
 BYTE   W12
 BYTE   Dn4
 BYTE   N08  Dn5
 BYTE   W36
 BYTE   Cs4
 BYTE   N08  Cs5
 BYTE   W24
 BYTE   Cn4
 BYTE   N08  Cn5
 BYTE   W24
// 002   ----------------------------------------
 BYTE   N11  Gn1
 BYTE   N11  Gn3
 BYTE   W36
 BYTE   Fs1
 BYTE   N11  Fs3
 BYTE   W36
 BYTE   Fn1
 BYTE   N11  Fn3
 BYTE   W24
// 003   ----------------------------------------
 BYTE   W12
 BYTE   Dn1
 BYTE   N11  Dn3
 BYTE   W36
 BYTE   Cn1
 BYTE   N11  Cn3
 BYTE   W24
 BYTE   Cs1
 BYTE   N11  Cs3
 BYTE   W24
// 004   ----------------------------------------
 BYTE   Dn1
 BYTE   N11  Dn3
 BYTE   W96
// 005   ----------------------------------------
 BYTE   N08  An3
 BYTE   N08  Dn4
 BYTE   W36
 BYTE   An3
 BYTE   N08  Dn4
 BYTE   W36
 BYTE   An3
 BYTE   N08  Dn4
 BYTE   W24
// 006   ----------------------------------------
 BYTE   N08
 BYTE   N08  Gn4
 BYTE   W96
// 007   ----------------------------------------
 BYTE   W96
// 008   ----------------------------------------
 BYTE   W96
// 009   ----------------------------------------
 BYTE   W96
// 010   ----------------------------------------
 BYTE   W96
// 011   ----------------------------------------
 BYTE   W96
// 012   ----------------------------------------
 BYTE   W96
// 013   ----------------------------------------
 BYTE   W96
// 014   ----------------------------------------
 BYTE   W96
// 015   ----------------------------------------
 BYTE   W96
// 016   ----------------------------------------
 BYTE   W96
// 017   ----------------------------------------
 BYTE   W96
// 018   ----------------------------------------
 BYTE   W96
// 019   ----------------------------------------
 BYTE   W96
// 020   ----------------------------------------
Label_5_01495587:
 BYTE   N48  Gn2  v092
 BYTE   W48
 BYTE   Dn3
 BYTE   W48
 BYTE   PEND 
// 021   ----------------------------------------
Label_5_0149558E:
 BYTE   W24
 BYTE   N08  Cs3  v092
 BYTE   W12
 BYTE   Dn3
 BYTE   W12
 BYTE   En3
 BYTE   W12
 BYTE   An2
 BYTE   W12
 BYTE   Bn2
 BYTE   W12
 BYTE   Cs3
 BYTE   W12
 BYTE   PEND 
// 022   ----------------------------------------
Label_5_0149559E:
 BYTE   N32  En3  v092
 BYTE   W36
 BYTE   N05  Dn3
 BYTE   W06
 BYTE   Cs3
 BYTE   W06
 BYTE   TIE  Dn3
 BYTE   W24
 BYTE   VOL   65*SuperSmashBrosMeleeCorneriaMrGreen3339_mvl/mxv
 BYTE   W01
 BYTE   En3
 BYTE   W01
 BYTE   Ds3
 BYTE   W01
 BYTE   Ds3
 BYTE   W01
 BYTE   Dn3
 BYTE   W02
 BYTE   Dn3
 BYTE   W01
 BYTE   Cs3
 BYTE   W01
 BYTE   Cs3
 BYTE   W01
 BYTE   Cn3
 BYTE   W01
 BYTE   Cn3
 BYTE   W02
 BYTE   Bn2
 BYTE   W01
 BYTE   Bn2
 BYTE   W01
 BYTE   As2
 BYTE   W01
 BYTE   As2
 BYTE   W01
 BYTE   An2
 BYTE   W02
 BYTE   An2
 BYTE   W01
 BYTE   Gs2
 BYTE   W01
 BYTE   Gs2
 BYTE   W01
 BYTE   Gn2
 BYTE   W01
 BYTE   Gn2
 BYTE   W02
 BYTE   PEND 
// 023   ----------------------------------------
Label_5_014955D4:
 BYTE   VOL   54*SuperSmashBrosMeleeCorneriaMrGreen3339_mvl/mxv
 BYTE   W01
 BYTE   Fs2
 BYTE   W01
 BYTE   Fn2
 BYTE   W01
 BYTE   Fn2
 BYTE   W01
 BYTE   En2
 BYTE   W02
 BYTE   En2
 BYTE   W01
 BYTE   Ds2
 BYTE   W01
 BYTE   Ds2
 BYTE   W01
 BYTE   Dn2
 BYTE   W01
 BYTE   Dn2
 BYTE   W02
 BYTE   Cs2
 BYTE   W01
 BYTE   Cs2
 BYTE   W01
 BYTE   Cn2
 BYTE   W01
 BYTE   Cn2
 BYTE   W01
 BYTE   Bn1
 BYTE   W02
 BYTE   Bn1
 BYTE   W01
 BYTE   As1
 BYTE   W01
 BYTE   As1
 BYTE   W01
 BYTE   An1
 BYTE   W01
 BYTE   An1
 BYTE   W02
 BYTE   Gs1
 BYTE   W01
 BYTE   Gs1
 BYTE   W01
 BYTE   Gn1
 BYTE   W01
 BYTE   Fs1
 BYTE   W01
 BYTE   Fs1
 BYTE   W01
 BYTE   Fn1
 BYTE   W01
 BYTE   Fn1
 BYTE   W01
 BYTE   En1
 BYTE   W01
 BYTE   En1
 BYTE   W01
 BYTE   Ds1
 BYTE   W01
 BYTE   Ds1
 BYTE   W01
 BYTE   Dn1
 BYTE   W01
 BYTE   Dn1
 BYTE   W01
 BYTE   Cs1
 BYTE   W01
 BYTE   Cs1
 BYTE   W01
 BYTE   Cn1
 BYTE   W01
 BYTE   Cn1
 BYTE   W01
 BYTE   Bn0
 BYTE   W01
 BYTE   Bn0
 BYTE   W01
 BYTE   As0
 BYTE   W01
 BYTE   As0
 BYTE   W01
 BYTE   An0
 BYTE   W01
 BYTE   An0
 BYTE   W01
 BYTE   Gs0
 BYTE   W01
 BYTE   Gs0
 BYTE   W01
 BYTE   Gn0
 BYTE   W01
 BYTE   Gn0
 BYTE   W01
 BYTE   Fs0
 BYTE   W01
 BYTE   Fs0
 BYTE   W01
 BYTE   Fn0
 BYTE   W01
 BYTE   Fn0
 BYTE   W01
 BYTE   En0
 BYTE   W01
 BYTE   En0
 BYTE   W01
 BYTE   Ds0
 BYTE   W01
 BYTE   Ds0
 BYTE   W01
 BYTE   Dn0
 BYTE   W01
 BYTE   Dn0
 BYTE   W01
 BYTE   Cs0
 BYTE   W01
 BYTE   Cs0
 BYTE   W01
 BYTE   Cn0
 BYTE   W01
 BYTE   Cn0
 BYTE   W01
 BYTE   BnM1
 BYTE   W01
 BYTE   PEND 
 BYTE   EOT
 BYTE   Dn3
 BYTE   VOL   23*SuperSmashBrosMeleeCorneriaMrGreen3339_mvl/mxv
 BYTE   W01
 BYTE   AsM1
 BYTE   W01
 BYTE   AsM1
 BYTE   W01
 BYTE   AnM1
 BYTE   W01
 BYTE   GsM1
 BYTE   W01
 BYTE   GsM1
 BYTE   W01
 BYTE   GnM1
 BYTE   W01
 BYTE   GnM1
 BYTE   W01
 BYTE   FsM1
 BYTE   W01
 BYTE   FsM1
 BYTE   W01
 BYTE   FnM1
 BYTE   W01
 BYTE   FnM1
 BYTE   W01
 BYTE   EnM1
 BYTE   W01
 BYTE   EnM1
 BYTE   W01
 BYTE   DsM1
 BYTE   W01
 BYTE   DsM1
 BYTE   W01
 BYTE   DnM1
 BYTE   W01
 BYTE   DnM1
 BYTE   W01
 BYTE   CsM1
 BYTE   W01
 BYTE   CsM1
 BYTE   W01
 BYTE   CnM1
 BYTE   W01
 BYTE   CnM1
 BYTE   W01
 BYTE   BnM2
 BYTE   W01
 BYTE   BnM2
 BYTE   W01
 BYTE   AsM2
 BYTE   W01
 BYTE   AsM2
 BYTE   W01
 BYTE   AnM2
 BYTE   W01
 BYTE   AnM2
 BYTE   W01
 BYTE   GsM2
 BYTE   W01
 BYTE   GsM2
 BYTE   W01
// 024   ----------------------------------------
Label_5_01495691:
 BYTE   VOL   9*SuperSmashBrosMeleeCorneriaMrGreen3339_mvl/mxv
 BYTE   W01
 BYTE   CnM1
 BYTE   W01
 BYTE   DnM1
 BYTE   W01
 BYTE   EnM1
 BYTE   W01
 BYTE   GnM1
 BYTE   W01
 BYTE   AnM1
 BYTE   W01
 BYTE   Cn0
 BYTE   W01
 BYTE   Dn0
 BYTE   W01
 BYTE   En0
 BYTE   W01
 BYTE   Gn0
 BYTE   W01
 BYTE   An0
 BYTE   W01
 BYTE   Bn0
 BYTE   W01
 BYTE   Dn1
 BYTE   W01
 BYTE   En1
 BYTE   W01
 BYTE   Fs1
 BYTE   W01
 BYTE   An1
 BYTE   W01
 BYTE   Cn2
 BYTE   W01
 BYTE   Dn2
 BYTE   W01
 BYTE   En2
 BYTE   W01
 BYTE   Gn2
 BYTE   W01
 BYTE   An2
 BYTE   W01
 BYTE   Bn2
 BYTE   W01
 BYTE   Dn3
 BYTE   W01
 BYTE   En3
 BYTE   W01
 BYTE   Fn3
 BYTE   W72
 BYTE   PEND 
// 025   ----------------------------------------
 BYTE   W96
// 026   ----------------------------------------
Label_5_014956C6:
 BYTE   W80
 BYTE   N07  En3  v092
 BYTE   W08
 BYTE   Gs3
 BYTE   W08
 BYTE   PEND 
// 027   ----------------------------------------
Label_5_014956CE:
 BYTE   N42  An3  v092
 BYTE   W48
 BYTE   N20  Gs3
 BYTE   W24
 BYTE   N15  En3
 BYTE   W24
 BYTE   PEND 
// 028   ----------------------------------------
 BYTE   N90  Cn4
 BYTE   W96
// 029   ----------------------------------------
 BYTE   W96
// 030   ----------------------------------------
 BYTE   W96
// 031   ----------------------------------------
 BYTE   W96
// 032   ----------------------------------------
Label_5_014956DF:
 BYTE   N06  Gn1  v060
 BYTE   N06  Gn2
 BYTE   N06  Gn3
 BYTE   N06  Dn4
 BYTE   N06  Gn4
 BYTE   W24
 BYTE   Gn1
 BYTE   N06  Gn2
 BYTE   W24
 BYTE   N05  Gn1
 BYTE   N05  Gn2
 BYTE   W08
 BYTE   Gn1
 BYTE   N05  Gn2
 BYTE   W08
 BYTE   Gn1
 BYTE   N05  Gn2
 BYTE   W08
 BYTE   N06  Gn1
 BYTE   N06  Gn2
 BYTE   W24
 BYTE   PEND 
// 033   ----------------------------------------
Label_5_01495702:
 BYTE   N06  Gn1  v060
 BYTE   N06  Gn2
 BYTE   W24
 BYTE   Gn1
 BYTE   N06  Gn2
 BYTE   W24
 BYTE   N05  Gn1
 BYTE   N05  Gn2
 BYTE   W08
 BYTE   Gn1
 BYTE   N05  Gn2
 BYTE   W08
 BYTE   Gn1
 BYTE   N05  Gn2
 BYTE   W08
 BYTE   N06  Gn1
 BYTE   N06  Gn2
 BYTE   N06  Gn3
 BYTE   N06  Dn4
 BYTE   N06  Gn4
 BYTE   W24
 BYTE   PEND 
// 034   ----------------------------------------
Label_5_01495725:
 BYTE   N06  Gn1  v060
 BYTE   N06  Gn2
 BYTE   N06  Gs3
 BYTE   N06  Ds4
 BYTE   N06  Gs4
 BYTE   W24
 BYTE   Gn1
 BYTE   N06  Gn2
 BYTE   W24
 BYTE   N05  Gn1
 BYTE   N05  Gn2
 BYTE   W08
 BYTE   Gn1
 BYTE   N05  Gn2
 BYTE   W08
 BYTE   Gn1
 BYTE   N05  Gn2
 BYTE   W08
 BYTE   N06  Gn1
 BYTE   N06  Gn2
 BYTE   W24
 BYTE   PEND 
// 035   ----------------------------------------
Label_5_01495748:
 BYTE   N06  Gn1  v060
 BYTE   N06  Gn2
 BYTE   W24
 BYTE   Gn1
 BYTE   N06  Gn2
 BYTE   W24
 BYTE   N05  Gn1
 BYTE   N05  Gn2
 BYTE   W08
 BYTE   Gn1
 BYTE   N05  Gn2
 BYTE   W08
 BYTE   Gn1
 BYTE   N05  Gn2
 BYTE   W08
 BYTE   N06  Gn1
 BYTE   N06  Gn2
 BYTE   N06  Gs3
 BYTE   N06  Ds4
 BYTE   N06  Gs4
 BYTE   W24
 BYTE   PEND 
// 036   ----------------------------------------
Label_5_0149576B:
 BYTE   N06  Gn1  v060
 BYTE   N06  Gn2
 BYTE   N06  An3
 BYTE   N06  En4
 BYTE   N06  An4
 BYTE   W24
 BYTE   Gn1
 BYTE   N06  Gn2
 BYTE   W24
 BYTE   N05  Gn1
 BYTE   N05  Gn2
 BYTE   W08
 BYTE   Gn1
 BYTE   N05  Gn2
 BYTE   W08
 BYTE   Gn1
 BYTE   N05  Gn2
 BYTE   W08
 BYTE   N06  Gn1
 BYTE   N06  Gn2
 BYTE   W24
 BYTE   PEND 
// 037   ----------------------------------------
Label_5_0149578E:
 BYTE   N06  Gn1  v060
 BYTE   N06  Gn2
 BYTE   W24
 BYTE   Gn1
 BYTE   N06  Gn2
 BYTE   W24
 BYTE   N05  Gn1
 BYTE   N05  Gn2
 BYTE   W08
 BYTE   Gn1
 BYTE   N05  Gn2
 BYTE   W08
 BYTE   Gn1
 BYTE   N05  Gn2
 BYTE   W08
 BYTE   N06  Gn1
 BYTE   N06  Gn2
 BYTE   N06  An3
 BYTE   N06  En4
 BYTE   N06  An4
 BYTE   W24
 BYTE   PEND 
// 038   ----------------------------------------
Label_5_014957B1:
 BYTE   N06  Dn2  v060
 BYTE   N06  Dn3
 BYTE   N06  An3
 BYTE   N06  Dn4
 BYTE   W24
 BYTE   Dn2
 BYTE   N06  Dn3
 BYTE   W24
 BYTE   N05  Dn2
 BYTE   N05  Dn3
 BYTE   W08
 BYTE   Dn2
 BYTE   N05  Dn3
 BYTE   W08
 BYTE   Dn2
 BYTE   N05  Dn3
 BYTE   W08
 BYTE   N06  Dn2
 BYTE   N06  Dn3
 BYTE   W24
 BYTE   PEND 
// 039   ----------------------------------------
Label_5_014957D2:
 BYTE   N06  Dn2  v060
 BYTE   N06  Dn3
 BYTE   W24
 BYTE   Dn2
 BYTE   N06  Dn3
 BYTE   W24
 BYTE   N05  Dn2
 BYTE   N05  Dn3
 BYTE   W08
 BYTE   Dn2
 BYTE   N05  Dn3
 BYTE   W08
 BYTE   Dn2
 BYTE   N05  Dn3
 BYTE   W08
 BYTE   N06  Dn2
 BYTE   N06  Dn3
 BYTE   W24
 BYTE   PEND 
// 040   ----------------------------------------
Label_5_014957EF:
 BYTE   N20  Gn3  v076
 BYTE   W24
 BYTE   Dn4  v108
 BYTE   W24
 BYTE   N08  Cs4
 BYTE   W12
 BYTE   Dn4
 BYTE   W12
 BYTE   Cs4
 BYTE   W12
 BYTE   An3
 BYTE   W12
 BYTE   PEND 
// 041   ----------------------------------------
 BYTE   N15  Cn4
 BYTE   W24
 BYTE   N42  Fn3
 BYTE   W48
 BYTE   N20  Fs3
 BYTE   W24
// 042   ----------------------------------------
Label_5_01495809:
 BYTE   N08  Dn4  v012
 BYTE   N08  Gn4
 BYTE   W96
// 043   ----------------------------------------
 BYTE   W96
// 044   ----------------------------------------
 BYTE   W96
// 045   ----------------------------------------
 BYTE   W96
// 046   ----------------------------------------
 BYTE   W96
// 047   ----------------------------------------
 BYTE   W96
// 048   ----------------------------------------
 BYTE   W96
// 049   ----------------------------------------
 BYTE   W96
// 050   ----------------------------------------
 BYTE   W96
// 051   ----------------------------------------
 BYTE   W96
// 052   ----------------------------------------
 BYTE   W96
// 053   ----------------------------------------
 BYTE   W96
// 054   ----------------------------------------
 BYTE   W96
// 055   ----------------------------------------
 BYTE   W96
 BYTE   PATT
  POIN2 Label_5_01495587
 BYTE   PATT
  POIN2 Label_5_0149558E
 BYTE   PATT
  POIN2 Label_5_0149559E
 BYTE   PATT
  POIN2 Label_5_014955D4
// 056   ----------------------------------------
 BYTE   EOT
 BYTE   Dn3
 BYTE   VOL   23*SuperSmashBrosMeleeCorneriaMrGreen3339_mvl/mxv
 BYTE   W01
 BYTE   AsM1
 BYTE   W01
 BYTE   AsM1
 BYTE   W01
 BYTE   AnM1
 BYTE   W01
 BYTE   GsM1
 BYTE   W01
 BYTE   GsM1
 BYTE   W01
 BYTE   GnM1
 BYTE   W01
 BYTE   GnM1
 BYTE   W01
 BYTE   FsM1
 BYTE   W01
 BYTE   FsM1
 BYTE   W01
 BYTE   FnM1
 BYTE   W01
 BYTE   FnM1
 BYTE   W01
 BYTE   EnM1
 BYTE   W01
 BYTE   EnM1
 BYTE   W01
 BYTE   DsM1
 BYTE   W01
 BYTE   DsM1
 BYTE   W01
 BYTE   DnM1
 BYTE   W01
 BYTE   DnM1
 BYTE   W01
 BYTE   CsM1
 BYTE   W01
 BYTE   CsM1
 BYTE   W01
 BYTE   CnM1
 BYTE   W01
 BYTE   CnM1
 BYTE   W01
 BYTE   BnM2
 BYTE   W01
 BYTE   BnM2
 BYTE   W01
 BYTE   AsM2
 BYTE   W01
 BYTE   AsM2
 BYTE   W01
 BYTE   AnM2
 BYTE   W01
 BYTE   AnM2
 BYTE   W01
 BYTE   GsM2
 BYTE   W01
 BYTE   GsM2
 BYTE   W01
 BYTE   PATT
  POIN2 Label_5_01495691
// 057   ----------------------------------------
 BYTE   W96
 BYTE   PATT
  POIN2 Label_5_014956C6
 BYTE   PATT
  POIN2 Label_5_014956CE
// 058   ----------------------------------------
 BYTE   N90  Cn4  v092
 BYTE   W96
// 059   ----------------------------------------
 BYTE   W96
// 060   ----------------------------------------
 BYTE   W96
// 061   ----------------------------------------
 BYTE   W96
 BYTE   PATT
  POIN2 Label_5_014956DF
 BYTE   PATT
  POIN2 Label_5_01495702
 BYTE   PATT
  POIN2 Label_5_01495725
 BYTE   PATT
  POIN2 Label_5_01495748
 BYTE   PATT
  POIN2 Label_5_0149576B
 BYTE   PATT
  POIN2 Label_5_0149578E
 BYTE   PATT
  POIN2 Label_5_014957B1
 BYTE   PATT
  POIN2 Label_5_014957D2
 BYTE   PATT
  POIN2 Label_5_014957EF
// 062   ----------------------------------------
 BYTE   N15  Cn4  v108
 BYTE   W24
 BYTE   N42  Fn3
 BYTE   W48
 BYTE   N20  Fs3
 BYTE   W23
 BYTE   GoTo
  POIN2 Label_5_01495809
 BYTE   FINE

//**************** Track 7 (Midi-Chn.6) ****************//

SuperSmashBrosMeleeCorneriaMrGreen3339_007:
// 000   ----------------------------------------
 BYTE   KEYSH   SuperSmashBrosMeleeCorneriaMrGreen3339_key+0
 BYTE   VOICE   39
 BYTE   VOL   65*SuperSmashBrosMeleeCorneriaMrGreen3339_mvl/mxv
 BYTE   PAN   c_v+0
 BYTE   N08  Gn0  v076
 BYTE   W12
 BYTE   N08
 BYTE   W12
 BYTE   N08
 BYTE   W12
 BYTE   N08
 BYTE   W12
 BYTE   N08
 BYTE   W12
 BYTE   N08
 BYTE   W12
 BYTE   N08
 BYTE   W12
 BYTE   N08
 BYTE   W12
// 001   ----------------------------------------
Label_6_014958DE:
 BYTE   N08  Gn0  v076
 BYTE   W12
 BYTE   N08
 BYTE   W12
 BYTE   N08
 BYTE   W12
 BYTE   N08
 BYTE   W12
 BYTE   N08
 BYTE   W12
 BYTE   N08
 BYTE   W12
 BYTE   N08
 BYTE   W12
 BYTE   N08
 BYTE   W12
 BYTE   PEND 
 BYTE   PATT
  POIN2 Label_6_014958DE
 BYTE   PATT
  POIN2 Label_6_014958DE
// 002   ----------------------------------------
 BYTE   W96
// 003   ----------------------------------------
 BYTE   W96
// 004   ----------------------------------------
 BYTE   W96
// 005   ----------------------------------------
 BYTE   W96
// 006   ----------------------------------------
 BYTE   W96
// 007   ----------------------------------------
 BYTE   W96
// 008   ----------------------------------------
 BYTE   W96
// 009   ----------------------------------------
 BYTE   W96
// 010   ----------------------------------------
 BYTE   W96
// 011   ----------------------------------------
 BYTE   W96
// 012   ----------------------------------------
Label_6_01495905:
 BYTE   N11  Gn0  v048
 BYTE   W12
 BYTE   N11
 BYTE   W12
 BYTE   N11
 BYTE   W12
 BYTE   N11
 BYTE   W12
 BYTE   N11
 BYTE   W12
 BYTE   N11
 BYTE   W12
 BYTE   N11
 BYTE   W12
 BYTE   N11
 BYTE   W12
 BYTE   PEND 
 BYTE   PATT
  POIN2 Label_6_01495905
 BYTE   PATT
  POIN2 Label_6_01495905
 BYTE   PATT
  POIN2 Label_6_01495905
// 013   ----------------------------------------
 BYTE   N11  Dn1  v048
 BYTE   W96
// 014   ----------------------------------------
 BYTE   W96
// 015   ----------------------------------------
Label_6_0149592C:
 BYTE   N11  Gn0  v076
 BYTE   W36
 BYTE   N11
 BYTE   W36
 BYTE   N11
 BYTE   W24
 BYTE   PEND 
 BYTE   PATT
  POIN2 Label_6_0149592C
// 016   ----------------------------------------
Label_6_0149593A:
 BYTE   N11  Fs0  v076
 BYTE   W36
 BYTE   N11
 BYTE   W36
 BYTE   N11
 BYTE   W24
 BYTE   PEND 
 BYTE   PATT
  POIN2 Label_6_0149593A
// 017   ----------------------------------------
Label_6_01495948:
 BYTE   N11  An0  v076
 BYTE   W36
 BYTE   N11
 BYTE   W36
 BYTE   N11
 BYTE   W24
 BYTE   PEND 
 BYTE   PATT
  POIN2 Label_6_01495948
// 018   ----------------------------------------
Label_6_01495956:
 BYTE   N11  Gs0  v076
 BYTE   W36
 BYTE   N11
 BYTE   W36
 BYTE   N11
 BYTE   W24
 BYTE   PEND 
// 019   ----------------------------------------
Label_6_0149595F:
 BYTE   N11  Cs1  v076
 BYTE   W36
 BYTE   N11
 BYTE   W36
 BYTE   N11
 BYTE   W24
 BYTE   PEND 
// 020   ----------------------------------------
 BYTE   N90  Dn1
 BYTE   W96
// 021   ----------------------------------------
 BYTE   Cn1
 BYTE   W96
// 022   ----------------------------------------
 BYTE   An0
 BYTE   W96
// 023   ----------------------------------------
Label_6_0149596F:
 BYTE   N42  Ds1  v076
 BYTE   W48
 BYTE   N42
 BYTE   W48
 BYTE   PEND 
// 024   ----------------------------------------
 BYTE   W96
// 025   ----------------------------------------
 BYTE   W96
// 026   ----------------------------------------
 BYTE   W96
// 027   ----------------------------------------
 BYTE   W96
// 028   ----------------------------------------
 BYTE   W96
// 029   ----------------------------------------
 BYTE   W96
// 030   ----------------------------------------
 BYTE   W96
// 031   ----------------------------------------
 BYTE   W96
// 032   ----------------------------------------
Label_6_0149597E:
 BYTE   N20  Gn1  v076
 BYTE   W24
 BYTE   Dn2
 BYTE   W24
 BYTE   N08  Cs2
 BYTE   W12
 BYTE   Dn2
 BYTE   W12
 BYTE   Cs2
 BYTE   W12
 BYTE   An1
 BYTE   W12
 BYTE   PEND 
// 033   ----------------------------------------
 BYTE   N15  Cn2
 BYTE   W24
 BYTE   N42  Fn1
 BYTE   W48
 BYTE   N20  Fs1
 BYTE   W24
// 034   ----------------------------------------
Label_6_01495997:
 BYTE   W96
// 035   ----------------------------------------
 BYTE   W96
// 036   ----------------------------------------
 BYTE   W96
// 037   ----------------------------------------
 BYTE   W96
// 038   ----------------------------------------
 BYTE   W96
// 039   ----------------------------------------
 BYTE   W96
// 040   ----------------------------------------
 BYTE   W96
// 041   ----------------------------------------
 BYTE   W96
 BYTE   PATT
  POIN2 Label_6_01495905
 BYTE   PATT
  POIN2 Label_6_01495905
 BYTE   PATT
  POIN2 Label_6_01495905
 BYTE   PATT
  POIN2 Label_6_01495905
// 042   ----------------------------------------
 BYTE   N11  Dn1  v048
 BYTE   W96
// 043   ----------------------------------------
 BYTE   W96
 BYTE   PATT
  POIN2 Label_6_0149592C
 BYTE   PATT
  POIN2 Label_6_0149592C
 BYTE   PATT
  POIN2 Label_6_0149593A
 BYTE   PATT
  POIN2 Label_6_0149593A
 BYTE   PATT
  POIN2 Label_6_01495948
 BYTE   PATT
  POIN2 Label_6_01495948
 BYTE   PATT
  POIN2 Label_6_01495956
 BYTE   PATT
  POIN2 Label_6_0149595F
// 044   ----------------------------------------
 BYTE   N90  Dn1  v076
 BYTE   W96
// 045   ----------------------------------------
 BYTE   Cn1
 BYTE   W96
// 046   ----------------------------------------
 BYTE   An0
 BYTE   W96
 BYTE   PATT
  POIN2 Label_6_0149596F
// 047   ----------------------------------------
 BYTE   W96
// 048   ----------------------------------------
 BYTE   W96
// 049   ----------------------------------------
 BYTE   W96
// 050   ----------------------------------------
 BYTE   W96
// 051   ----------------------------------------
 BYTE   W96
// 052   ----------------------------------------
 BYTE   W96
// 053   ----------------------------------------
 BYTE   W96
// 054   ----------------------------------------
 BYTE   W96
 BYTE   PATT
  POIN2 Label_6_0149597E
// 055   ----------------------------------------
 BYTE   N15  Cn2  v076
 BYTE   W24
 BYTE   N42  Fn1
 BYTE   W48
 BYTE   N20  Fs1
 BYTE   W23
 BYTE   GoTo
  POIN2 Label_6_01495997
 BYTE   FINE

//**************** Track 8 (Midi-Chn.7) ****************//

SuperSmashBrosMeleeCorneriaMrGreen3339_008:
// 000   ----------------------------------------
 BYTE   KEYSH   SuperSmashBrosMeleeCorneriaMrGreen3339_key+0
 BYTE   VOICE   48
 BYTE   VOL   65*SuperSmashBrosMeleeCorneriaMrGreen3339_mvl/mxv
 BYTE   PAN   c_v+0
 BYTE   N11  Gn1  v092
 BYTE   W12
 BYTE   N11
 BYTE   W12
 BYTE   N11
 BYTE   W12
 BYTE   N11
 BYTE   W12
 BYTE   N11
 BYTE   W12
 BYTE   N11
 BYTE   W12
 BYTE   N11
 BYTE   W12
 BYTE   N11
 BYTE   W12
// 001   ----------------------------------------
Label_7_01495A26:
 BYTE   N11  Gn1  v092
 BYTE   W12
 BYTE   N11
 BYTE   W12
 BYTE   N11
 BYTE   W12
 BYTE   N11
 BYTE   W12
 BYTE   N11
 BYTE   W12
 BYTE   N11
 BYTE   W12
 BYTE   N11
 BYTE   W12
 BYTE   N11
 BYTE   W12
 BYTE   PEND 
 BYTE   PATT
  POIN2 Label_7_01495A26
 BYTE   PATT
  POIN2 Label_7_01495A26
// 002   ----------------------------------------
 BYTE   N06  Dn2  v092
 BYTE   W36
 BYTE   N04
 BYTE   W06
 BYTE   N04
 BYTE   W06
 BYTE   N12  An1
 BYTE   W48
// 003   ----------------------------------------
 BYTE   N09  Dn2
 BYTE   W36
 BYTE   An1
 BYTE   W36
 BYTE   N06  Dn2
 BYTE   W24
// 004   ----------------------------------------
 BYTE   N24  Gn1
 BYTE   W96
// 005   ----------------------------------------
Label_7_01495A59:
 BYTE   N06  Gn1  v092
 BYTE   W36
 BYTE   N04
 BYTE   W06
 BYTE   N04
 BYTE   W06
 BYTE   N12  Dn2
 BYTE   W48
 BYTE   PEND 
 BYTE   PATT
  POIN2 Label_7_01495A59
// 006   ----------------------------------------
Label_7_01495A6A:
 BYTE   W12
 BYTE   N06  As1  v092
 BYTE   W36
 BYTE   Dn2
 BYTE   W24
 BYTE   N05  As1
 BYTE   W08
 BYTE   N05
 BYTE   W08
 BYTE   N05
 BYTE   W08
 BYTE   PEND 
// 007   ----------------------------------------
Label_7_01495A79:
 BYTE   N06  Gn1  v092
 BYTE   W40
 BYTE   N02
 BYTE   W04
 BYTE   N02
 BYTE   W04
 BYTE   N12  Dn2
 BYTE   W48
 BYTE   PEND 
 BYTE   PATT
  POIN2 Label_7_01495A6A
 BYTE   PATT
  POIN2 Label_7_01495A59
// 008   ----------------------------------------
Label_7_01495A8F:
 BYTE   W12
 BYTE   N06  As1  v092
 BYTE   W36
 BYTE   Dn2
 BYTE   W24
 BYTE   As1
 BYTE   W24
 BYTE   PEND 
// 009   ----------------------------------------
Label_7_01495A99:
 BYTE   N18  Gn1  v092
 BYTE   W72
 BYTE   N06  Dn2
 BYTE   W24
 BYTE   PEND 
 BYTE   PATT
  POIN2 Label_7_01495A99
 BYTE   PATT
  POIN2 Label_7_01495A99
// 010   ----------------------------------------
Label_7_01495AAB:
 BYTE   N09  Gn1  v092
 BYTE   W36
 BYTE   Dn2
 BYTE   W36
 BYTE   N06  An1
 BYTE   W24
 BYTE   PEND 
// 011   ----------------------------------------
 BYTE   N24  Dn2
 BYTE   W96
// 012   ----------------------------------------
Label_7_01495AB8:
 BYTE   N09  Dn2  v092
 BYTE   W36
 BYTE   An1
 BYTE   W36
 BYTE   N05  Dn2
 BYTE   W08
 BYTE   N05
 BYTE   W08
 BYTE   N05
 BYTE   W08
 BYTE   PEND 
// 013   ----------------------------------------
Label_7_01495AC6:
 BYTE   N04  Gn1  v108
 BYTE   N04  Gn2
 BYTE   N04  Gn3
 BYTE   N04  Bn3
 BYTE   W12
 BYTE   Gn3  v076
 BYTE   N04  Bn3
 BYTE   W12
 BYTE   Gn3
 BYTE   N04  Bn3
 BYTE   W12
 BYTE   Gn1  v108
 BYTE   N04  Gn2
 BYTE   N04  Gn3
 BYTE   N04  Bn3
 BYTE   W12
 BYTE   Gn3  v076
 BYTE   N04  Bn3
 BYTE   W12
 BYTE   Gn3
 BYTE   N04  Bn3
 BYTE   W12
 BYTE   Gn1  v108
 BYTE   N04  Gn2
 BYTE   N04  Gn3
 BYTE   N04  Bn3
 BYTE   W12
 BYTE   Gn3  v076
 BYTE   N04  Bn3
 BYTE   W12
 BYTE   PEND 
// 014   ----------------------------------------
Label_7_01495AFA:
 BYTE   N04  Gn1  v108
 BYTE   N04  Gn2
 BYTE   N04  En3
 BYTE   N04  An3
 BYTE   W12
 BYTE   En3  v076
 BYTE   N04  An3
 BYTE   W12
 BYTE   En3
 BYTE   N04  An3
 BYTE   W12
 BYTE   Gn1  v108
 BYTE   N04  Gn2
 BYTE   N04  En3
 BYTE   N04  An3
 BYTE   W12
 BYTE   En3  v076
 BYTE   N04  An3
 BYTE   W12
 BYTE   En3
 BYTE   N04  An3
 BYTE   W12
 BYTE   Gn1  v108
 BYTE   N04  Gn2
 BYTE   N04  En3
 BYTE   N04  An3
 BYTE   W12
 BYTE   En3  v076
 BYTE   N04  An3
 BYTE   W12
 BYTE   PEND 
// 015   ----------------------------------------
Label_7_01495B2E:
 BYTE   N04  Fs1  v108
 BYTE   N04  Fs2
 BYTE   N04  Fs3
 BYTE   N04  An3
 BYTE   W12
 BYTE   Fs3  v076
 BYTE   N04  An3
 BYTE   W12
 BYTE   Fs3
 BYTE   N04  An3
 BYTE   W12
 BYTE   Fs1  v108
 BYTE   N04  Fs2
 BYTE   N04  Fs3
 BYTE   N04  An3
 BYTE   W12
 BYTE   Fs3  v076
 BYTE   N04  An3
 BYTE   W12
 BYTE   Fs3
 BYTE   N04  An3
 BYTE   W12
 BYTE   Fs1  v108
 BYTE   N04  Fs2
 BYTE   N04  Fs3
 BYTE   N04  An3
 BYTE   W12
 BYTE   Fs3  v076
 BYTE   N04  An3
 BYTE   W12
 BYTE   PEND 
 BYTE   PATT
  POIN2 Label_7_01495B2E
// 016   ----------------------------------------
Label_7_01495B67:
 BYTE   N04  An1  v108
 BYTE   N04  An2
 BYTE   N04  An3
 BYTE   N04  Cs4
 BYTE   W12
 BYTE   An3  v076
 BYTE   N04  Cs4
 BYTE   W12
 BYTE   An3
 BYTE   N04  Cs4
 BYTE   W12
 BYTE   An1  v108
 BYTE   N04  An2
 BYTE   N04  An3
 BYTE   N04  Cs4
 BYTE   W12
 BYTE   An3  v076
 BYTE   N04  Cs4
 BYTE   W12
 BYTE   An3
 BYTE   N04  Cs4
 BYTE   W12
 BYTE   An1  v108
 BYTE   N04  An2
 BYTE   N04  An3
 BYTE   N04  Cs4
 BYTE   W12
 BYTE   An3  v076
 BYTE   N04  Cs4
 BYTE   W12
 BYTE   PEND 
// 017   ----------------------------------------
Label_7_01495B9B:
 BYTE   N04  An1  v108
 BYTE   N04  An2
 BYTE   N04  Fs3
 BYTE   N04  Bn3
 BYTE   W12
 BYTE   Fs3  v076
 BYTE   N04  Bn3
 BYTE   W12
 BYTE   Fs3
 BYTE   N04  Bn3
 BYTE   W12
 BYTE   An1  v108
 BYTE   N04  An2
 BYTE   N04  Fs3
 BYTE   N04  Bn3
 BYTE   W12
 BYTE   Fs3  v076
 BYTE   N04  Bn3
 BYTE   W12
 BYTE   Fs3
 BYTE   N04  Bn3
 BYTE   W12
 BYTE   An1  v108
 BYTE   N04  An2
 BYTE   N04  Fs3
 BYTE   N04  Bn3
 BYTE   W12
 BYTE   Fs3  v076
 BYTE   N04  Bn3
 BYTE   W12
 BYTE   PEND 
// 018   ----------------------------------------
Label_7_01495BCF:
 BYTE   N04  Gs1  v108
 BYTE   N04  Gs2
 BYTE   N04  Gs3
 BYTE   N04  Bn3
 BYTE   W12
 BYTE   Gs3  v076
 BYTE   N04  Bn3
 BYTE   W12
 BYTE   Gs3
 BYTE   N04  Bn3
 BYTE   W12
 BYTE   Gs1  v108
 BYTE   N04  Gs2
 BYTE   N04  Gs3
 BYTE   N04  Bn3
 BYTE   W12
 BYTE   Gs3  v076
 BYTE   N04  Bn3
 BYTE   W12
 BYTE   Gs3
 BYTE   N04  Bn3
 BYTE   W12
 BYTE   Gs1  v108
 BYTE   N04  Gs2
 BYTE   N04  Gs3
 BYTE   N04  Bn3
 BYTE   W12
 BYTE   Gs3  v076
 BYTE   N04  Bn3
 BYTE   W12
 BYTE   PEND 
// 019   ----------------------------------------
Label_7_01495C03:
 BYTE   N04  Cs2  v108
 BYTE   N04  Cs3
 BYTE   N04  Gs3
 BYTE   N04  Bn3
 BYTE   W12
 BYTE   Gs3  v076
 BYTE   N04  Bn3
 BYTE   W12
 BYTE   Gs3
 BYTE   N04  Bn3
 BYTE   W12
 BYTE   Cs2  v108
 BYTE   N04  Cs3
 BYTE   N04  Gs3
 BYTE   N04  Bn3
 BYTE   W12
 BYTE   Gs3  v076
 BYTE   N04  Bn3
 BYTE   W12
 BYTE   Gs3
 BYTE   N04  Bn3
 BYTE   W12
 BYTE   Cs2  v108
 BYTE   N04  Cs3
 BYTE   N04  Gs3
 BYTE   N04  Bn3
 BYTE   W12
 BYTE   Gs3  v076
 BYTE   N04  Bn3
 BYTE   W12
 BYTE   PEND 
// 020   ----------------------------------------
 BYTE   N90  Dn2
 BYTE   W96
// 021   ----------------------------------------
 BYTE   Cn2
 BYTE   W96
// 022   ----------------------------------------
 BYTE   An1
 BYTE   W96
// 023   ----------------------------------------
Label_7_01495C3E:
 BYTE   N42  Ds2  v076
 BYTE   W48
 BYTE   N42
 BYTE   W48
 BYTE   PEND 
// 024   ----------------------------------------
Label_7_01495C45:
 BYTE   N06  Gn1  v092
 BYTE   N06  Gn2
 BYTE   W24
 BYTE   Gn1
 BYTE   N06  Gn2
 BYTE   W24
 BYTE   N05  Gn1
 BYTE   N05  Gn2
 BYTE   W08
 BYTE   Gn1
 BYTE   N05  Gn2
 BYTE   W08
 BYTE   Gn1
 BYTE   N05  Gn2
 BYTE   W08
 BYTE   N06  Gn1
 BYTE   N06  Gn2
 BYTE   W24
 BYTE   PEND 
 BYTE   PATT
  POIN2 Label_7_01495C45
 BYTE   PATT
  POIN2 Label_7_01495C45
 BYTE   PATT
  POIN2 Label_7_01495C45
 BYTE   PATT
  POIN2 Label_7_01495C45
 BYTE   PATT
  POIN2 Label_7_01495C45
// 025   ----------------------------------------
Label_7_01495C7B:
 BYTE   N06  Dn2  v092
 BYTE   N06  Dn3
 BYTE   W24
 BYTE   Dn2
 BYTE   N06  Dn3
 BYTE   W24
 BYTE   N05  Dn2
 BYTE   N05  Dn3
 BYTE   W08
 BYTE   Dn2
 BYTE   N05  Dn3
 BYTE   W08
 BYTE   Dn2
 BYTE   N05  Dn3
 BYTE   W08
 BYTE   N06  Dn2
 BYTE   N06  Dn3
 BYTE   W24
 BYTE   PEND 
 BYTE   PATT
  POIN2 Label_7_01495C7B
// 026   ----------------------------------------
Label_7_01495C9D:
 BYTE   N30  Gn1  v092
 BYTE   W48
 BYTE   N05  Dn2
 BYTE   W08
 BYTE   N05
 BYTE   W08
 BYTE   N05
 BYTE   W08
 BYTE   N15  Gn1
 BYTE   W24
 BYTE   PEND 
// 027   ----------------------------------------
 BYTE   N15
 BYTE   W24
 BYTE   N30  Dn2
 BYTE   W48
 BYTE   N05
 BYTE   W08
 BYTE   N05
 BYTE   W08
 BYTE   N05
 BYTE   W08
// 028   ----------------------------------------
Label_7_01495CB7:
 BYTE   N24  Gn1  v092
 BYTE   W96
 BYTE   PATT
  POIN2 Label_7_01495A59
 BYTE   PATT
  POIN2 Label_7_01495A59
 BYTE   PATT
  POIN2 Label_7_01495A6A
 BYTE   PATT
  POIN2 Label_7_01495A79
 BYTE   PATT
  POIN2 Label_7_01495A6A
 BYTE   PATT
  POIN2 Label_7_01495A59
 BYTE   PATT
  POIN2 Label_7_01495A8F
 BYTE   PATT
  POIN2 Label_7_01495A99
 BYTE   PATT
  POIN2 Label_7_01495A99
 BYTE   PATT
  POIN2 Label_7_01495A99
 BYTE   PATT
  POIN2 Label_7_01495AAB
// 029   ----------------------------------------
 BYTE   N24  Dn2  v092
 BYTE   W96
 BYTE   PATT
  POIN2 Label_7_01495AB8
 BYTE   PATT
  POIN2 Label_7_01495AC6
 BYTE   PATT
  POIN2 Label_7_01495AFA
 BYTE   PATT
  POIN2 Label_7_01495B2E
 BYTE   PATT
  POIN2 Label_7_01495B2E
 BYTE   PATT
  POIN2 Label_7_01495B67
 BYTE   PATT
  POIN2 Label_7_01495B9B
 BYTE   PATT
  POIN2 Label_7_01495BCF
 BYTE   PATT
  POIN2 Label_7_01495C03
// 030   ----------------------------------------
 BYTE   N90  Dn2  v076
 BYTE   W96
// 031   ----------------------------------------
 BYTE   Cn2
 BYTE   W96
// 032   ----------------------------------------
 BYTE   An1
 BYTE   W96
 BYTE   PATT
  POIN2 Label_7_01495C3E
 BYTE   PATT
  POIN2 Label_7_01495C45
 BYTE   PATT
  POIN2 Label_7_01495C45
 BYTE   PATT
  POIN2 Label_7_01495C45
 BYTE   PATT
  POIN2 Label_7_01495C45
 BYTE   PATT
  POIN2 Label_7_01495C45
 BYTE   PATT
  POIN2 Label_7_01495C45
 BYTE   PATT
  POIN2 Label_7_01495C7B
 BYTE   PATT
  POIN2 Label_7_01495C7B
 BYTE   PATT
  POIN2 Label_7_01495C9D
// 033   ----------------------------------------
 BYTE   N15  Gn1  v092
 BYTE   W24
 BYTE   N30  Dn2
 BYTE   W48
 BYTE   N05
 BYTE   W08
 BYTE   N05
 BYTE   W08
 BYTE   N05
 BYTE   W07
 BYTE   GoTo
  POIN2 Label_7_01495CB7
 BYTE   FINE

//**************** Track 9 (Midi-Chn.8) ****************//

SuperSmashBrosMeleeCorneriaMrGreen3339_009:
// 000   ----------------------------------------
 BYTE   KEYSH   SuperSmashBrosMeleeCorneriaMrGreen3339_key+0
 BYTE   VOICE   13
 BYTE   VOL   65*SuperSmashBrosMeleeCorneriaMrGreen3339_mvl/mxv
 BYTE   PAN   c_v+0
 BYTE   W96
// 001   ----------------------------------------
 BYTE   W96
// 002   ----------------------------------------
 BYTE   N04  Gn5  v092
 BYTE   W36
 BYTE   Fs5
 BYTE   W36
 BYTE   Fn5
 BYTE   W24
// 003   ----------------------------------------
 BYTE   W12
 BYTE   Dn5
 BYTE   W36
 BYTE   Cn5
 BYTE   W24
 BYTE   Cs5
 BYTE   W24
// 004   ----------------------------------------
 BYTE   N11  Dn5
 BYTE   W96
// 005   ----------------------------------------
 BYTE   W96
// 006   ----------------------------------------
 BYTE   W96
// 007   ----------------------------------------
 BYTE   W96
// 008   ----------------------------------------
 BYTE   W96
// 009   ----------------------------------------
 BYTE   W96
// 010   ----------------------------------------
 BYTE   W96
// 011   ----------------------------------------
 BYTE   W96
// 012   ----------------------------------------
 BYTE   W96
// 013   ----------------------------------------
 BYTE   W96
// 014   ----------------------------------------
 BYTE   W96
// 015   ----------------------------------------
 BYTE   W96
// 016   ----------------------------------------
 BYTE   W96
// 017   ----------------------------------------
 BYTE   W96
// 018   ----------------------------------------
 BYTE   W96
// 019   ----------------------------------------
 BYTE   W96
// 020   ----------------------------------------
 BYTE   W96
// 021   ----------------------------------------
 BYTE   W96
// 022   ----------------------------------------
 BYTE   W96
// 023   ----------------------------------------
 BYTE   W96
// 024   ----------------------------------------
 BYTE   W96
// 025   ----------------------------------------
 BYTE   W96
// 026   ----------------------------------------
 BYTE   W96
// 027   ----------------------------------------
 BYTE   W96
// 028   ----------------------------------------
 BYTE   W96
// 029   ----------------------------------------
 BYTE   W96
// 030   ----------------------------------------
 BYTE   W96
// 031   ----------------------------------------
 BYTE   W96
// 032   ----------------------------------------
 BYTE   W96
// 033   ----------------------------------------
 BYTE   W96
// 034   ----------------------------------------
 BYTE   W96
// 035   ----------------------------------------
 BYTE   W96
// 036   ----------------------------------------
 BYTE   W96
// 037   ----------------------------------------
 BYTE   W96
// 038   ----------------------------------------
 BYTE   W96
// 039   ----------------------------------------
 BYTE   W96
// 040   ----------------------------------------
 BYTE   W96
// 041   ----------------------------------------
 BYTE   W96
// 042   ----------------------------------------
Label_8_01495DB1:
 BYTE   W96
// 043   ----------------------------------------
 BYTE   W96
// 044   ----------------------------------------
 BYTE   W96
// 045   ----------------------------------------
 BYTE   W96
// 046   ----------------------------------------
 BYTE   W96
// 047   ----------------------------------------
 BYTE   W96
// 048   ----------------------------------------
 BYTE   W96
// 049   ----------------------------------------
 BYTE   W96
// 050   ----------------------------------------
 BYTE   W96
// 051   ----------------------------------------
 BYTE   W96
// 052   ----------------------------------------
 BYTE   W96
// 053   ----------------------------------------
 BYTE   W96
// 054   ----------------------------------------
 BYTE   W96
// 055   ----------------------------------------
 BYTE   W96
// 056   ----------------------------------------
 BYTE   W96
// 057   ----------------------------------------
 BYTE   W96
// 058   ----------------------------------------
 BYTE   W96
// 059   ----------------------------------------
 BYTE   W96
// 060   ----------------------------------------
 BYTE   W96
// 061   ----------------------------------------
 BYTE   W96
// 062   ----------------------------------------
 BYTE   W96
// 063   ----------------------------------------
 BYTE   W96
// 064   ----------------------------------------
 BYTE   W96
// 065   ----------------------------------------
 BYTE   W96
// 066   ----------------------------------------
 BYTE   W96
// 067   ----------------------------------------
 BYTE   W96
// 068   ----------------------------------------
 BYTE   W96
// 069   ----------------------------------------
 BYTE   W96
// 070   ----------------------------------------
 BYTE   W96
// 071   ----------------------------------------
 BYTE   W96
// 072   ----------------------------------------
 BYTE   W96
// 073   ----------------------------------------
 BYTE   W96
// 074   ----------------------------------------
 BYTE   W96
// 075   ----------------------------------------
 BYTE   W96
// 076   ----------------------------------------
 BYTE   W96
// 077   ----------------------------------------
 BYTE   W92
 BYTE   W03
 BYTE   GoTo
  POIN2 Label_8_01495DB1
 BYTE   FINE

//**************** Track 10 (Midi-Chn.9) ****************//

SuperSmashBrosMeleeCorneriaMrGreen3339_010:
// 000   ----------------------------------------
 BYTE   KEYSH   SuperSmashBrosMeleeCorneriaMrGreen3339_key+0
 BYTE   VOICE   47
 BYTE   VOL   65*SuperSmashBrosMeleeCorneriaMrGreen3339_mvl/mxv
 BYTE   PAN   c_v+0
 BYTE   W96
// 001   ----------------------------------------
 BYTE   W96
// 002   ----------------------------------------
 BYTE   W96
// 003   ----------------------------------------
 BYTE   W96
// 004   ----------------------------------------
 BYTE   N20  Dn2  v092
 BYTE   W36
 BYTE   N05
 BYTE   W06
 BYTE   N05
 BYTE   W06
 BYTE   N42  An1
 BYTE   W48
// 005   ----------------------------------------
 BYTE   N32  Dn2
 BYTE   W36
 BYTE   An1
 BYTE   W36
 BYTE   N20  Dn2
 BYTE   W24
// 006   ----------------------------------------
 BYTE   N90  Gn1
 BYTE   W96
// 007   ----------------------------------------
Label_9_01495DFE:
 BYTE   N20  Gn1  v092
 BYTE   W36
 BYTE   N05
 BYTE   W06
 BYTE   N05
 BYTE   W06
 BYTE   N42  Dn2
 BYTE   W48
 BYTE   PEND 
 BYTE   PATT
  POIN2 Label_9_01495DFE
// 008   ----------------------------------------
Label_9_01495E0F:
 BYTE   W12
 BYTE   N20  As1  v092
 BYTE   W36
 BYTE   Dn2
 BYTE   W24
 BYTE   N07  As1
 BYTE   W08
 BYTE   N07
 BYTE   W08
 BYTE   N07
 BYTE   W08
 BYTE   PEND 
// 009   ----------------------------------------
Label_9_01495E1E:
 BYTE   N20  Gn1  v092
 BYTE   W40
 BYTE   N03
 BYTE   W04
 BYTE   N03
 BYTE   W04
 BYTE   N42  Dn2
 BYTE   W48
 BYTE   PEND 
 BYTE   PATT
  POIN2 Label_9_01495E0F
 BYTE   PATT
  POIN2 Label_9_01495DFE
// 010   ----------------------------------------
Label_9_01495E34:
 BYTE   W12
 BYTE   N20  As1  v092
 BYTE   W36
 BYTE   Dn2
 BYTE   W24
 BYTE   As1
 BYTE   W24
 BYTE   PEND 
// 011   ----------------------------------------
Label_9_01495E3E:
 BYTE   N66  Gn1  v092
 BYTE   W72
 BYTE   N20  Dn2
 BYTE   W24
 BYTE   PEND 
 BYTE   PATT
  POIN2 Label_9_01495E3E
 BYTE   PATT
  POIN2 Label_9_01495E3E
// 012   ----------------------------------------
Label_9_01495E50:
 BYTE   N32  Gn1  v092
 BYTE   W36
 BYTE   Dn2
 BYTE   W36
 BYTE   N20  An1
 BYTE   W24
 BYTE   PEND 
// 013   ----------------------------------------
 BYTE   N90  Dn2
 BYTE   W96
// 014   ----------------------------------------
Label_9_01495E5D:
 BYTE   N32  Dn2  v092
 BYTE   W36
 BYTE   An1
 BYTE   W36
 BYTE   N07  Dn2
 BYTE   W08
 BYTE   N07
 BYTE   W08
 BYTE   N07
 BYTE   W08
 BYTE   PEND 
// 015   ----------------------------------------
 BYTE   N90  Gn1
 BYTE   W96
// 016   ----------------------------------------
 BYTE   W96
// 017   ----------------------------------------
 BYTE   W96
// 018   ----------------------------------------
 BYTE   W96
// 019   ----------------------------------------
 BYTE   W96
// 020   ----------------------------------------
 BYTE   W96
// 021   ----------------------------------------
 BYTE   W96
// 022   ----------------------------------------
 BYTE   W96
// 023   ----------------------------------------
 BYTE   W96
// 024   ----------------------------------------
 BYTE   W96
// 025   ----------------------------------------
 BYTE   W96
// 026   ----------------------------------------
Label_9_01495E78:
 BYTE   N07  Ds1  v060
 BYTE   W08
 BYTE   Ds1  v068
 BYTE   W08
 BYTE   Ds1  v072
 BYTE   W08
 BYTE   Ds1  v076
 BYTE   W08
 BYTE   Ds1  v080
 BYTE   W08
 BYTE   Ds1  v088
 BYTE   W08
 BYTE   Ds1  v092
 BYTE   W08
 BYTE   Ds1  v100
 BYTE   W08
 BYTE   Ds1  v104
 BYTE   W08
 BYTE   Ds1  v112
 BYTE   W08
 BYTE   Ds1  v116
 BYTE   W08
 BYTE   Ds1  v124
 BYTE   W08
 BYTE   PEND 
// 027   ----------------------------------------
 BYTE   N90  Gn1  v092
 BYTE   W96
// 028   ----------------------------------------
 BYTE   W72
 BYTE   N20
 BYTE   W24
// 029   ----------------------------------------
 BYTE   N20
 BYTE   W96
// 030   ----------------------------------------
Label_9_01495EA7:
 BYTE   W72
 BYTE   N07  Gn1  v092
 BYTE   W08
 BYTE   N07
 BYTE   W08
 BYTE   N07
 BYTE   W08
 BYTE   PEND 
// 031   ----------------------------------------
 BYTE   N20
 BYTE   W96
// 032   ----------------------------------------
 BYTE   W96
// 033   ----------------------------------------
 BYTE   W96
// 034   ----------------------------------------
Label_9_01495EB5:
 BYTE   W48
 BYTE   N07  Dn2  v108
 BYTE   W08
 BYTE   N07
 BYTE   W08
 BYTE   N07
 BYTE   W08
 BYTE   N07
 BYTE   W08
 BYTE   N07
 BYTE   W08
 BYTE   N07
 BYTE   W08
 BYTE   PEND 
// 035   ----------------------------------------
Label_9_01495EC5:
 BYTE   N42  Gn1  v108
 BYTE   W48
 BYTE   N07  Dn2
 BYTE   W08
 BYTE   N07
 BYTE   W08
 BYTE   N07
 BYTE   W08
 BYTE   N20  Gn1
 BYTE   W24
 BYTE   PEND 
// 036   ----------------------------------------
 BYTE   N20
 BYTE   W24
 BYTE   N42  Dn2
 BYTE   W48
 BYTE   N07
 BYTE   W08
 BYTE   N07
 BYTE   W08
 BYTE   N07
 BYTE   W08
// 037   ----------------------------------------
Label_9_01495EDF:
 BYTE   N90  Gn1  v092
 BYTE   W96
 BYTE   PATT
  POIN2 Label_9_01495DFE
 BYTE   PATT
  POIN2 Label_9_01495DFE
 BYTE   PATT
  POIN2 Label_9_01495E0F
 BYTE   PATT
  POIN2 Label_9_01495E1E
 BYTE   PATT
  POIN2 Label_9_01495E0F
 BYTE   PATT
  POIN2 Label_9_01495DFE
 BYTE   PATT
  POIN2 Label_9_01495E34
 BYTE   PATT
  POIN2 Label_9_01495E3E
 BYTE   PATT
  POIN2 Label_9_01495E3E
 BYTE   PATT
  POIN2 Label_9_01495E3E
 BYTE   PATT
  POIN2 Label_9_01495E50
// 038   ----------------------------------------
 BYTE   N90  Dn2  v092
 BYTE   W96
 BYTE   PATT
  POIN2 Label_9_01495E5D
// 039   ----------------------------------------
 BYTE   N90  Gn1  v092
 BYTE   W96
// 040   ----------------------------------------
 BYTE   W96
// 041   ----------------------------------------
 BYTE   W96
// 042   ----------------------------------------
 BYTE   W96
// 043   ----------------------------------------
 BYTE   W96
// 044   ----------------------------------------
 BYTE   W96
// 045   ----------------------------------------
 BYTE   W96
// 046   ----------------------------------------
 BYTE   W96
// 047   ----------------------------------------
 BYTE   W96
// 048   ----------------------------------------
 BYTE   W96
// 049   ----------------------------------------
 BYTE   W96
 BYTE   PATT
  POIN2 Label_9_01495E78
// 050   ----------------------------------------
 BYTE   N90  Gn1  v092
 BYTE   W96
// 051   ----------------------------------------
 BYTE   W72
 BYTE   N20
 BYTE   W24
// 052   ----------------------------------------
 BYTE   N20
 BYTE   W96
 BYTE   PATT
  POIN2 Label_9_01495EA7
// 053   ----------------------------------------
 BYTE   N20  Gn1  v092
 BYTE   W96
// 054   ----------------------------------------
 BYTE   W96
// 055   ----------------------------------------
 BYTE   W96
 BYTE   PATT
  POIN2 Label_9_01495EB5
 BYTE   PATT
  POIN2 Label_9_01495EC5
// 056   ----------------------------------------
 BYTE   N20  Gn1  v108
 BYTE   W24
 BYTE   N42  Dn2
 BYTE   W48
 BYTE   N07
 BYTE   W08
 BYTE   N07
 BYTE   W08
 BYTE   N07
 BYTE   W07
 BYTE   GoTo
  POIN2 Label_9_01495EDF
 BYTE   FINE

//**************** Track 11 (Midi-Chn.10) ****************//

SuperSmashBrosMeleeCorneriaMrGreen3339_011:
// 000   ----------------------------------------
 BYTE   KEYSH   SuperSmashBrosMeleeCorneriaMrGreen3339_key+0
 BYTE   VOICE   46
 BYTE   VOL   65*SuperSmashBrosMeleeCorneriaMrGreen3339_mvl/mxv
 BYTE   PAN   c_v+0
 BYTE   W96
// 001   ----------------------------------------
 BYTE   W96
// 002   ----------------------------------------
 BYTE   W96
// 003   ----------------------------------------
 BYTE   W96
// 004   ----------------------------------------
 BYTE   W96
// 005   ----------------------------------------
 BYTE   W96
// 006   ----------------------------------------
 BYTE   VOICE   46
 BYTE   W96
// 007   ----------------------------------------
 BYTE   W96
// 008   ----------------------------------------
 BYTE   W96
// 009   ----------------------------------------
 BYTE   W96
// 010   ----------------------------------------
 BYTE   W96
// 011   ----------------------------------------
 BYTE   W96
// 012   ----------------------------------------
 BYTE   W96
// 013   ----------------------------------------
 BYTE   W96
// 014   ----------------------------------------
 BYTE   W96
// 015   ----------------------------------------
 BYTE   W96
// 016   ----------------------------------------
 BYTE   W96
// 017   ----------------------------------------
 BYTE   W96
// 018   ----------------------------------------
Label_10_01495F84:
 BYTE   W60
 BYTE   N02  Gn2  v060
 BYTE   W03
 BYTE   An2
 BYTE   W03
 BYTE   Bn2
 BYTE   W03
 BYTE   Cn3
 BYTE   W03
 BYTE   Dn3
 BYTE   W03
 BYTE   En3
 BYTE   W03
 BYTE   Fn3
 BYTE   W03
 BYTE   Gn3
 BYTE   W03
 BYTE   An3
 BYTE   W03
 BYTE   Bn3
 BYTE   W03
 BYTE   Cn4
 BYTE   W03
 BYTE   Dn4
 BYTE   W03
 BYTE   PEND 
// 019   ----------------------------------------
Label_10_01495FA0:
 BYTE   N02  En4  v060
 BYTE   W03
 BYTE   Fn4
 BYTE   W03
 BYTE   Gn4
 BYTE   W03
 BYTE   An4
 BYTE   W03
 BYTE   Bn4
 BYTE   W03
 BYTE   Cn5
 BYTE   W80
 BYTE   W01
 BYTE   PEND 
// 020   ----------------------------------------
 BYTE   W96
// 021   ----------------------------------------
 BYTE   W96
// 022   ----------------------------------------
 BYTE   W96
// 023   ----------------------------------------
 BYTE   W96
// 024   ----------------------------------------
 BYTE   W96
// 025   ----------------------------------------
 BYTE   W96
// 026   ----------------------------------------
 BYTE   W96
// 027   ----------------------------------------
Label_10_01495FB7:
 BYTE   W72
 BYTE   N03  Cs3  v060
 BYTE   W04
 BYTE   Gs3
 BYTE   W04
 BYTE   Bn3
 BYTE   W04
 BYTE   Cs4
 BYTE   W04
 BYTE   Gs4
 BYTE   W04
 BYTE   Bn4
 BYTE   W04
 BYTE   PEND 
// 028   ----------------------------------------
 BYTE   W96
// 029   ----------------------------------------
 BYTE   W96
// 030   ----------------------------------------
 BYTE   W96
// 031   ----------------------------------------
 BYTE   W96
// 032   ----------------------------------------
Label_10_01495FCB:
 BYTE   VOICE   45
 BYTE   N06  Gn1  v092
 BYTE   N06  Gn2
 BYTE   W24
 BYTE   Gn1
 BYTE   N06  Gn2
 BYTE   W24
 BYTE   N05  Gn1
 BYTE   N05  Gn2
 BYTE   W08
 BYTE   Gn1
 BYTE   N05  Gn2
 BYTE   W08
 BYTE   Gn1
 BYTE   N05  Gn2
 BYTE   W08
 BYTE   N06  Gn1
 BYTE   N06  Gn2
 BYTE   W24
 BYTE   PEND 
// 033   ----------------------------------------
Label_10_01495FEA:
 BYTE   N06  Gn1  v092
 BYTE   N06  Gn2
 BYTE   W24
 BYTE   Gn1
 BYTE   N06  Gn2
 BYTE   W24
 BYTE   N05  Gn1
 BYTE   N05  Gn2
 BYTE   W08
 BYTE   Gn1
 BYTE   N05  Gn2
 BYTE   W08
 BYTE   Gn1
 BYTE   N05  Gn2
 BYTE   W08
 BYTE   N06  Gn1
 BYTE   N06  Gn2
 BYTE   W24
 BYTE   PEND 
 BYTE   PATT
  POIN2 Label_10_01495FEA
 BYTE   PATT
  POIN2 Label_10_01495FEA
 BYTE   PATT
  POIN2 Label_10_01495FEA
 BYTE   PATT
  POIN2 Label_10_01495FEA
// 034   ----------------------------------------
Label_10_0149601B:
 BYTE   N06  Dn2  v092
 BYTE   N06  Dn3
 BYTE   W24
 BYTE   Dn2
 BYTE   N06  Dn3
 BYTE   W24
 BYTE   N05  Dn2
 BYTE   N05  Dn3
 BYTE   W08
 BYTE   Dn2
 BYTE   N05  Dn3
 BYTE   W08
 BYTE   Dn2
 BYTE   N05  Dn3
 BYTE   W08
 BYTE   N06  Dn2
 BYTE   N06  Dn3
 BYTE   W24
 BYTE   PEND 
 BYTE   PATT
  POIN2 Label_10_0149601B
// 035   ----------------------------------------
Label_10_0149603D:
 BYTE   N42  Gn2  v060
 BYTE   W48
 BYTE   N07  Dn3
 BYTE   W08
 BYTE   N07
 BYTE   W08
 BYTE   N07
 BYTE   W08
 BYTE   N20  Gn2
 BYTE   W24
 BYTE   PEND 
// 036   ----------------------------------------
 BYTE   N20
 BYTE   W24
 BYTE   N42  Dn3
 BYTE   W48
 BYTE   N07
 BYTE   W08
 BYTE   N07
 BYTE   W08
 BYTE   N07
 BYTE   W08
// 037   ----------------------------------------
Label_10_01496057:
 BYTE   VOICE   46
 BYTE   W96
// 038   ----------------------------------------
 BYTE   W96
// 039   ----------------------------------------
 BYTE   W96
// 040   ----------------------------------------
 BYTE   W96
// 041   ----------------------------------------
 BYTE   W96
// 042   ----------------------------------------
 BYTE   W96
// 043   ----------------------------------------
 BYTE   W96
// 044   ----------------------------------------
 BYTE   W96
// 045   ----------------------------------------
 BYTE   W96
// 046   ----------------------------------------
 BYTE   W96
// 047   ----------------------------------------
 BYTE   W96
// 048   ----------------------------------------
 BYTE   W96
 BYTE   PATT
  POIN2 Label_10_01495F84
 BYTE   PATT
  POIN2 Label_10_01495FA0
// 049   ----------------------------------------
 BYTE   W96
// 050   ----------------------------------------
 BYTE   W96
// 051   ----------------------------------------
 BYTE   W96
// 052   ----------------------------------------
 BYTE   W96
// 053   ----------------------------------------
 BYTE   W96
// 054   ----------------------------------------
 BYTE   W96
// 055   ----------------------------------------
 BYTE   W96
 BYTE   PATT
  POIN2 Label_10_01495FB7
// 056   ----------------------------------------
 BYTE   W96
// 057   ----------------------------------------
 BYTE   W96
// 058   ----------------------------------------
 BYTE   W96
// 059   ----------------------------------------
 BYTE   W96
 BYTE   PATT
  POIN2 Label_10_01495FCB
 BYTE   PATT
  POIN2 Label_10_01495FEA
 BYTE   PATT
  POIN2 Label_10_01495FEA
 BYTE   PATT
  POIN2 Label_10_01495FEA
 BYTE   PATT
  POIN2 Label_10_01495FEA
 BYTE   PATT
  POIN2 Label_10_01495FEA
 BYTE   PATT
  POIN2 Label_10_0149601B
 BYTE   PATT
  POIN2 Label_10_0149601B
 BYTE   PATT
  POIN2 Label_10_0149603D
// 060   ----------------------------------------
 BYTE   N20  Gn2  v060
 BYTE   W24
 BYTE   N42  Dn3
 BYTE   W48
 BYTE   N07
 BYTE   W08
 BYTE   N07
 BYTE   W08
 BYTE   N07
 BYTE   W07
 BYTE   GoTo
  POIN2 Label_10_01496057
 BYTE   FINE

//**************** Track 12 (Midi-Chn.11) ****************//

SuperSmashBrosMeleeCorneriaMrGreen3339_012:
// 000   ----------------------------------------
 BYTE   KEYSH   SuperSmashBrosMeleeCorneriaMrGreen3339_key+0
 BYTE   VOICE   127
 BYTE   VOL   65*SuperSmashBrosMeleeCorneriaMrGreen3339_mvl/mxv
 BYTE   PAN   c_v+0
 BYTE   N11  En1  v064
 BYTE   N11  An2
 BYTE   W12
 BYTE   N05  En1  v048
 BYTE   W06
 BYTE   N05
 BYTE   W06
 BYTE   N11
 BYTE   W12
 BYTE   En1  v064
 BYTE   W12
 BYTE   N05  En1  v048
 BYTE   W06
 BYTE   N05
 BYTE   W06
 BYTE   N11
 BYTE   W12
 BYTE   En1  v064
 BYTE   W12
 BYTE   N05  En1  v048
 BYTE   W06
 BYTE   N05
 BYTE   W06
// 001   ----------------------------------------
Label_11_014960EA:
 BYTE   N11  En1  v048
 BYTE   W12
 BYTE   En1  v064
 BYTE   W12
 BYTE   N05  En1  v048
 BYTE   W06
 BYTE   N05
 BYTE   W06
 BYTE   N11
 BYTE   W12
 BYTE   N05  En1  v064
 BYTE   W06
 BYTE   En1  v048
 BYTE   W06
 BYTE   N05
 BYTE   W06
 BYTE   N05
 BYTE   W06
 BYTE   En1  v064
 BYTE   W06
 BYTE   En1  v048
 BYTE   W06
 BYTE   N05
 BYTE   W06
 BYTE   N05
 BYTE   W06
 BYTE   PEND 
// 002   ----------------------------------------
Label_11_0149610F:
 BYTE   N11  En1  v064
 BYTE   N11  An2
 BYTE   W12
 BYTE   N05  En1  v048
 BYTE   W06
 BYTE   N05
 BYTE   W06
 BYTE   N11
 BYTE   W12
 BYTE   En1  v064
 BYTE   W12
 BYTE   N05  En1  v048
 BYTE   W06
 BYTE   N05
 BYTE   W06
 BYTE   N11
 BYTE   W12
 BYTE   En1  v064
 BYTE   W12
 BYTE   N05  En1  v048
 BYTE   W06
 BYTE   N05
 BYTE   W06
 BYTE   PEND 
 BYTE   PATT
  POIN2 Label_11_014960EA
 BYTE   PATT
  POIN2 Label_11_0149610F
// 003   ----------------------------------------
 BYTE   N11  En1  v064
 BYTE   W12
 BYTE   En1  v048
 BYTE   W12
 BYTE   N05
 BYTE   W06
 BYTE   N05
 BYTE   W06
 BYTE   N11  En1  v064
 BYTE   W12
 BYTE   N05  En1  v048
 BYTE   W06
 BYTE   N05
 BYTE   W06
 BYTE   N05
 BYTE   W06
 BYTE   N05
 BYTE   W06
 BYTE   En1  v064
 BYTE   W06
 BYTE   En1  v048
 BYTE   W06
 BYTE   N05
 BYTE   W06
 BYTE   N05
 BYTE   W06
 BYTE   PATT
  POIN2 Label_11_0149610F
 BYTE   PATT
  POIN2 Label_11_014960EA
// 004   ----------------------------------------
Label_11_01496169:
 BYTE   N11  En1  v064
 BYTE   W12
 BYTE   N05  En1  v048
 BYTE   W06
 BYTE   N05
 BYTE   W06
 BYTE   N11
 BYTE   W12
 BYTE   En1  v064
 BYTE   W12
 BYTE   N05  En1  v048
 BYTE   W06
 BYTE   N05
 BYTE   W06
 BYTE   N11
 BYTE   W12
 BYTE   En1  v064
 BYTE   W12
 BYTE   N05  En1  v048
 BYTE   W06
 BYTE   N05
 BYTE   W06
 BYTE   PEND 
 BYTE   PATT
  POIN2 Label_11_014960EA
 BYTE   PATT
  POIN2 Label_11_01496169
 BYTE   PATT
  POIN2 Label_11_014960EA
 BYTE   PATT
  POIN2 Label_11_01496169
 BYTE   PATT
  POIN2 Label_11_014960EA
// 005   ----------------------------------------
Label_11_014961A3:
 BYTE   N11  En1  v044
 BYTE   W12
 BYTE   N05  En1  v032
 BYTE   W06
 BYTE   N05
 BYTE   W06
 BYTE   N11
 BYTE   W12
 BYTE   En1  v044
 BYTE   W12
 BYTE   N05  En1  v032
 BYTE   W06
 BYTE   N05
 BYTE   W06
 BYTE   N11
 BYTE   W12
 BYTE   En1  v044
 BYTE   W12
 BYTE   N05  En1  v032
 BYTE   W06
 BYTE   N05
 BYTE   W06
 BYTE   PEND 
// 006   ----------------------------------------
Label_11_014961C4:
 BYTE   N11  En1  v032
 BYTE   W12
 BYTE   En1  v044
 BYTE   W12
 BYTE   N05  En1  v032
 BYTE   W06
 BYTE   N05
 BYTE   W06
 BYTE   N11
 BYTE   W12
 BYTE   N05  En1  v044
 BYTE   W06
 BYTE   En1  v032
 BYTE   W06
 BYTE   N05
 BYTE   W06
 BYTE   N05
 BYTE   W06
 BYTE   En1  v044
 BYTE   W06
 BYTE   En1  v032
 BYTE   W06
 BYTE   N05
 BYTE   W06
 BYTE   N05
 BYTE   W06
 BYTE   PEND 
// 007   ----------------------------------------
Label_11_014961E9:
 BYTE   N11  En1  v044
 BYTE   W12
 BYTE   N05  En1  v032
 BYTE   W06
 BYTE   N05
 BYTE   W06
 BYTE   N11
 BYTE   W12
 BYTE   En1  v044
 BYTE   W12
 BYTE   N05  En1  v032
 BYTE   W06
 BYTE   N05
 BYTE   W06
 BYTE   N11
 BYTE   W12
 BYTE   En1  v048
 BYTE   W12
 BYTE   N05  En1  v036
 BYTE   W06
 BYTE   N05
 BYTE   W06
 BYTE   PEND 
// 008   ----------------------------------------
Label_11_0149620A:
 BYTE   N11  En1  v036
 BYTE   W12
 BYTE   En1  v052
 BYTE   W12
 BYTE   N05  En1  v036
 BYTE   W06
 BYTE   N05
 BYTE   W06
 BYTE   N11
 BYTE   W12
 BYTE   N05  En1  v052
 BYTE   W06
 BYTE   En1  v040
 BYTE   W06
 BYTE   N05
 BYTE   W06
 BYTE   N05
 BYTE   W06
 BYTE   En1  v060
 BYTE   W06
 BYTE   En1  v044
 BYTE   W06
 BYTE   N05
 BYTE   W06
 BYTE   N05
 BYTE   W06
 BYTE   PEND 
 BYTE   PATT
  POIN2 Label_11_01496169
// 009   ----------------------------------------
Label_11_01496234:
 BYTE   N11  En1  v048
 BYTE   W12
 BYTE   En1  v064
 BYTE   W12
 BYTE   N05  En1  v048
 BYTE   W06
 BYTE   N05
 BYTE   W06
 BYTE   N05
 BYTE   W06
 BYTE   Gn2
 BYTE   W06
 BYTE   En1  v064
 BYTE   N05  Gn2
 BYTE   W06
 BYTE   En1  v048
 BYTE   N05  Gn2
 BYTE   N05  Bn2
 BYTE   W06
 BYTE   En1
 BYTE   N05  Gn2
 BYTE   N05  Bn2
 BYTE   W06
 BYTE   En1
 BYTE   N05  Gn2
 BYTE   N05  Bn2
 BYTE   W06
 BYTE   En1  v064
 BYTE   N05  Gn2
 BYTE   W06
 BYTE   En1  v048
 BYTE   N05  Gn2
 BYTE   N05  Bn2
 BYTE   W06
 BYTE   En1
 BYTE   N05  Gn2
 BYTE   N05  An2
 BYTE   N05  Bn2
 BYTE   W06
 BYTE   N01  En1  v064
 BYTE   N01  Gn2
 BYTE   N01  An2
 BYTE   N01  Bn2
 BYTE   W01
 BYTE   Gn2  v060
 BYTE   N01  An2
 BYTE   W02
 BYTE   Gn2
 BYTE   N01  An2
 BYTE   W01
 BYTE   Gn2
 BYTE   N01  An2
 BYTE   N01  Bn2
 BYTE   W02
 BYTE   PEND 
// 010   ----------------------------------------
Label_11_0149628B:
 BYTE   N11  En1  v044
 BYTE   N11  An2
 BYTE   W12
 BYTE   N05  En1  v032
 BYTE   W06
 BYTE   N05
 BYTE   W06
 BYTE   N11
 BYTE   W12
 BYTE   En1  v044
 BYTE   W12
 BYTE   N05  En1  v032
 BYTE   W06
 BYTE   N05
 BYTE   W06
 BYTE   N11
 BYTE   W12
 BYTE   En1  v044
 BYTE   W12
 BYTE   N05  En1  v032
 BYTE   W06
 BYTE   N05
 BYTE   W06
 BYTE   PEND 
 BYTE   PATT
  POIN2 Label_11_014961C4
 BYTE   PATT
  POIN2 Label_11_014961A3
 BYTE   PATT
  POIN2 Label_11_014961C4
 BYTE   PATT
  POIN2 Label_11_0149628B
 BYTE   PATT
  POIN2 Label_11_014961C4
 BYTE   PATT
  POIN2 Label_11_014961A3
// 011   ----------------------------------------
Label_11_014962CC:
 BYTE   N11  En1  v032
 BYTE   W12
 BYTE   En1  v044
 BYTE   W12
 BYTE   N05  En1  v032
 BYTE   W06
 BYTE   N05
 BYTE   W06
 BYTE   N11
 BYTE   W12
 BYTE   N05  En1  v044
 BYTE   W06
 BYTE   En1  v032
 BYTE   W06
 BYTE   N05
 BYTE   W06
 BYTE   N05
 BYTE   W06
 BYTE   N02  Gn2  v048
 BYTE   W03
 BYTE   Gn2  v052
 BYTE   W03
 BYTE   Gn2  v056
 BYTE   W03
 BYTE   Gn2  v064
 BYTE   W03
 BYTE   Gn2  v068
 BYTE   W03
 BYTE   Gn2  v076
 BYTE   W03
 BYTE   Gn2  v080
 BYTE   W03
 BYTE   Gn2  v088
 BYTE   W03
 BYTE   PEND 
// 012   ----------------------------------------
Label_11_01496300:
 BYTE   N02  Gn2  v092
 BYTE   N02  An2
 BYTE   N02  Bn2
 BYTE   W03
 BYTE   N08  En1  v032
 BYTE   W09
 BYTE   N11
 BYTE   W12
 BYTE   N07
 BYTE   W08
 BYTE   N07
 BYTE   W08
 BYTE   N07
 BYTE   W08
 BYTE   N11
 BYTE   W12
 BYTE   N11
 BYTE   W12
 BYTE   N07
 BYTE   W08
 BYTE   N07
 BYTE   W08
 BYTE   N07
 BYTE   W08
 BYTE   PEND 
// 013   ----------------------------------------
Label_11_0149631F:
 BYTE   N11  En1  v032
 BYTE   W12
 BYTE   N11
 BYTE   W12
 BYTE   N07
 BYTE   W08
 BYTE   N07
 BYTE   W08
 BYTE   N07
 BYTE   W08
 BYTE   N11
 BYTE   W12
 BYTE   N11
 BYTE   W12
 BYTE   N07
 BYTE   W08
 BYTE   N07
 BYTE   W08
 BYTE   N07
 BYTE   W08
 BYTE   PEND 
 BYTE   PATT
  POIN2 Label_11_0149631F
// 014   ----------------------------------------
Label_11_0149633B:
 BYTE   N02  Gn2  v032
 BYTE   W03
 BYTE   N02
 BYTE   W03
 BYTE   N02
 BYTE   W03
 BYTE   Gn2  v036
 BYTE   W03
 BYTE   N02
 BYTE   W03
 BYTE   Gn2  v040
 BYTE   W03
 BYTE   N02
 BYTE   W03
 BYTE   Gn2  v044
 BYTE   W03
 BYTE   N02
 BYTE   W03
 BYTE   Gn2  v048
 BYTE   W03
 BYTE   N02
 BYTE   W03
 BYTE   Gn2  v052
 BYTE   W03
 BYTE   N02
 BYTE   W03
 BYTE   Gn2  v056
 BYTE   W03
 BYTE   N02
 BYTE   W03
 BYTE   Gn2  v060
 BYTE   W03
 BYTE   N02
 BYTE   W03
 BYTE   Gn2  v064
 BYTE   W03
 BYTE   N02
 BYTE   W03
 BYTE   Gn2  v068
 BYTE   W03
 BYTE   N02
 BYTE   W03
 BYTE   Gn2  v072
 BYTE   W03
 BYTE   N02
 BYTE   W03
 BYTE   Gn2  v076
 BYTE   W03
 BYTE   N02
 BYTE   W03
 BYTE   Gn2  v080
 BYTE   W03
 BYTE   N02
 BYTE   W03
 BYTE   Gn2  v084
 BYTE   W03
 BYTE   N02
 BYTE   W03
 BYTE   Gn2  v088
 BYTE   W03
 BYTE   N02
 BYTE   W03
 BYTE   Gn2  v092
 BYTE   W03
 BYTE   PEND 
// 015   ----------------------------------------
Label_11_0149638D:
 BYTE   N02  Gn2  v092
 BYTE   N02  An2
 BYTE   N02  Bn2
 BYTE   W03
 BYTE   N20  En1  v064
 BYTE   W21
 BYTE   N20
 BYTE   W24
 BYTE   N02  En1  v048
 BYTE   W03
 BYTE   N04  En1  v064
 BYTE   W05
 BYTE   N07  En1  v048
 BYTE   W08
 BYTE   N07
 BYTE   W08
 BYTE   N20  En1  v064
 BYTE   W24
 BYTE   PEND 
// 016   ----------------------------------------
Label_11_014963AE:
 BYTE   N20  En1  v064
 BYTE   W24
 BYTE   N20
 BYTE   W24
 BYTE   N02  En1  v048
 BYTE   W03
 BYTE   N04  En1  v064
 BYTE   W05
 BYTE   N07  En1  v048
 BYTE   W08
 BYTE   N07
 BYTE   W08
 BYTE   N20  En1  v064
 BYTE   W24
 BYTE   PEND 
 BYTE   PATT
  POIN2 Label_11_014963AE
 BYTE   PATT
  POIN2 Label_11_014963AE
 BYTE   PATT
  POIN2 Label_11_014963AE
 BYTE   PATT
  POIN2 Label_11_014963AE
 BYTE   PATT
  POIN2 Label_11_014963AE
 BYTE   PATT
  POIN2 Label_11_014963AE
// 017   ----------------------------------------
Label_11_014963E5:
 BYTE   N20  En1  v064
 BYTE   W24
 BYTE   N20
 BYTE   W24
 BYTE   N07
 BYTE   W08
 BYTE   N07
 BYTE   W08
 BYTE   N07
 BYTE   W08
 BYTE   N20
 BYTE   W24
 BYTE   PEND 
// 018   ----------------------------------------
 BYTE   N20
 BYTE   W24
 BYTE   N05
 BYTE   W06
 BYTE   En1  v048
 BYTE   W06
 BYTE   N05
 BYTE   W06
 BYTE   N05
 BYTE   W06
 BYTE   N05
 BYTE   W06
 BYTE   N05
 BYTE   W06
 BYTE   N05
 BYTE   W06
 BYTE   N05
 BYTE   W06
 BYTE   N07  En1  v064
 BYTE   W08
 BYTE   N07
 BYTE   W08
 BYTE   N07
 BYTE   W08
// 019   ----------------------------------------
Label_11_0149640F:
 BYTE   PATT
  POIN2 Label_11_0149610F
 BYTE   PATT
  POIN2 Label_11_014960EA
 BYTE   PATT
  POIN2 Label_11_01496169
 BYTE   PATT
  POIN2 Label_11_014960EA
 BYTE   PATT
  POIN2 Label_11_01496169
 BYTE   PATT
  POIN2 Label_11_014960EA
 BYTE   PATT
  POIN2 Label_11_01496169
 BYTE   PATT
  POIN2 Label_11_014960EA
 BYTE   PATT
  POIN2 Label_11_014961A3
 BYTE   PATT
  POIN2 Label_11_014961C4
 BYTE   PATT
  POIN2 Label_11_014961E9
 BYTE   PATT
  POIN2 Label_11_0149620A
 BYTE   PATT
  POIN2 Label_11_01496169
 BYTE   PATT
  POIN2 Label_11_01496234
 BYTE   PATT
  POIN2 Label_11_0149628B
 BYTE   PATT
  POIN2 Label_11_014961C4
 BYTE   PATT
  POIN2 Label_11_014961A3
 BYTE   PATT
  POIN2 Label_11_014961C4
 BYTE   PATT
  POIN2 Label_11_0149628B
 BYTE   PATT
  POIN2 Label_11_014961C4
 BYTE   PATT
  POIN2 Label_11_014961A3
 BYTE   PATT
  POIN2 Label_11_014962CC
 BYTE   PATT
  POIN2 Label_11_01496300
 BYTE   PATT
  POIN2 Label_11_0149631F
 BYTE   PATT
  POIN2 Label_11_0149631F
 BYTE   PATT
  POIN2 Label_11_0149633B
 BYTE   PATT
  POIN2 Label_11_0149638D
 BYTE   PATT
  POIN2 Label_11_014963AE
 BYTE   PATT
  POIN2 Label_11_014963AE
 BYTE   PATT
  POIN2 Label_11_014963AE
 BYTE   PATT
  POIN2 Label_11_014963AE
 BYTE   PATT
  POIN2 Label_11_014963AE
 BYTE   PATT
  POIN2 Label_11_014963AE
 BYTE   PATT
  POIN2 Label_11_014963AE
 BYTE   PATT
  POIN2 Label_11_014963E5
// 020   ----------------------------------------
 BYTE   N20  En1  v064
 BYTE   W24
 BYTE   N05
 BYTE   W06
 BYTE   En1  v048
 BYTE   W06
 BYTE   N05
 BYTE   W06
 BYTE   N05
 BYTE   W06
 BYTE   N05
 BYTE   W06
 BYTE   N05
 BYTE   W06
 BYTE   N05
 BYTE   W06
 BYTE   N05
 BYTE   W06
 BYTE   N07  En1  v064
 BYTE   W08
 BYTE   N07
 BYTE   W08
 BYTE   N07
 BYTE   W07
 BYTE   GoTo
  POIN2 Label_11_0149640F
 BYTE   FINE

//******************************************************//
	ALIGN 4

SuperSmashBrosMeleeCorneriaMrGreen3339:
	BYTE	12	// NumTrks
	BYTE	0	// NumBlks
	BYTE	SuperSmashBrosMeleeCorneriaMrGreen3339_pri	// Priority
	BYTE	SuperSmashBrosMeleeCorneriaMrGreen3339_rev	// Reverb.
    
	POIN2	SuperSmashBrosMeleeCorneriaMrGreen3339_grp
    
	POIN2	SuperSmashBrosMeleeCorneriaMrGreen3339_001
	POIN2	SuperSmashBrosMeleeCorneriaMrGreen3339_002
	POIN2	SuperSmashBrosMeleeCorneriaMrGreen3339_003
	POIN2	SuperSmashBrosMeleeCorneriaMrGreen3339_004
	POIN2	SuperSmashBrosMeleeCorneriaMrGreen3339_005
	POIN2	SuperSmashBrosMeleeCorneriaMrGreen3339_006
	POIN2	SuperSmashBrosMeleeCorneriaMrGreen3339_007
	POIN2	SuperSmashBrosMeleeCorneriaMrGreen3339_008
	POIN2	SuperSmashBrosMeleeCorneriaMrGreen3339_009
	POIN2	SuperSmashBrosMeleeCorneriaMrGreen3339_010
	POIN2	SuperSmashBrosMeleeCorneriaMrGreen3339_011
	POIN2	SuperSmashBrosMeleeCorneriaMrGreen3339_012

	
