//Event file generated from Sappy .s format.
	#include "MPlayDef.event"

	#define	SuperMario64KoopasRoadMeteorSR23_grp  voicegroup000
	#define	SuperMario64KoopasRoadMeteorSR23_pri  0
	#define	SuperMario64KoopasRoadMeteorSR23_rev  0
	#define	SuperMario64KoopasRoadMeteorSR23_mvl  127
	#define	SuperMario64KoopasRoadMeteorSR23_key  0
	#define	SuperMario64KoopasRoadMeteorSR23_tbs  1
	#define	SuperMario64KoopasRoadMeteorSR23_exg  0
	#define	SuperMario64KoopasRoadMeteorSR23_cmp  1

	// .rodata
	//	SuperMario64KoopasRoadMeteorSR23
	ALIGN 4


//**************** Track 1 (Midi-Chn.0) ****************//

SuperMario64KoopasRoadMeteorSR23_001:
//  #01 //000   ----------------------------------------
 BYTE   KEYSH   SuperMario64KoopasRoadMeteorSR23_key+0
 BYTE   TEMPO   136*SuperMario64KoopasRoadMeteorSR23_tbs/2
 BYTE   VOICE   58
 BYTE   VOL   122*SuperMario64KoopasRoadMeteorSR23_mvl/mxv
 BYTE   BENDR  6
 BYTE   W96
//  #01 //001   ----------------------------------------
 BYTE   W96
//  #01 //002   ----------------------------------------
Label_01004FD8:
 BYTE   PAN   c_v-6
 BYTE   N92  Dn2  v092  gtp3
 BYTE   N96  An2  v082
 BYTE   TIE  Dn3  v070
 BYTE   W96
//  #01 //003   ----------------------------------------
 BYTE   W01
 BYTE   EOT
 BYTE   N92  Bn2  v094  gtp3
 BYTE   W01
 BYTE   N96  En3  v092
 BYTE   N90  Dn2
 BYTE   W92
 BYTE   W02
//  #01 //004   ----------------------------------------
 BYTE   Dn2  v092
 BYTE   CsM2
 BYTE   N96  Cn3  v090
 BYTE   W01
 BYTE   TIE  Fn3  v096
 BYTE   W92
 BYTE   W03
//  #01 //005   ----------------------------------------
 BYTE   N92  Dn2  v082
 BYTE   N96  Gn3  v092
 BYTE   W01
 BYTE   N92  Dn3  v090  gtp2
 BYTE   W01
 BYTE   EOT
 BYTE   Fn3
 BYTE   W92
 BYTE   W02
//  #01 //006   ----------------------------------------
 BYTE   N90  Dn2  v088  gtp1
 BYTE   W02
 BYTE   N90  An2  v094
 BYTE   N90  Dn3  v100  gtp1
 BYTE   W92
 BYTE   W01
 BYTE   N96  Bn2  v104
 BYTE   N92  Dn2  v090  gtp1
 BYTE   W01
//  #01 //007   ----------------------------------------
 BYTE   N96  En3  v100
 BYTE   W96
//  #01 //008   ----------------------------------------
 BYTE   N92  Fn3  v104  gtp2
 BYTE   Cn3
 BYTE   W01
 BYTE   N90  Dn2  v098
 BYTE   W92
 BYTE   W03
//  #01 //009   ----------------------------------------
 BYTE   N48  Dn3  v109
 BYTE   N48  Gn3  v102
 BYTE   W02
 BYTE   N44  Dn2  v092  gtp1
 BYTE   W92
 BYTE   W02
//  #01 //010   ----------------------------------------
 BYTE   W01
 BYTE   N48  Dn3  v109  gtp1
 BYTE   N24  An2  v100
 BYTE   N90  Dn2  v088  gtp1
 BYTE   W56
 BYTE   N05  Dn3  v104
 BYTE   W13
 BYTE   N06  Fn3  v100
 BYTE   W13
 BYTE   Cn4  v104
 BYTE   W13
//  #01 //011   ----------------------------------------
 BYTE   N90  En2  v088  gtp1
 BYTE   N14  Bn3  v104
 BYTE   W12
 BYTE   N11  Gn3  v100
 BYTE   W13
 BYTE   N92  Dn3  v104  gtp1
 BYTE   W32
 BYTE   W02
 BYTE   N04  An2  v092
 BYTE   W36
 BYTE   W01
//  #01 //012   ----------------------------------------
 BYTE   N90  Fn2  v088  gtp1
 BYTE   W24
 BYTE   N32  Cn3  v106
 BYTE   W32
 BYTE   W03
 BYTE   N10  Dn3  v100
 BYTE   W12
 BYTE   N12  Gn3  v094
 BYTE   W13
 BYTE   N09  Fn3  v100
 BYTE   W12
//  #01 //013   ----------------------------------------
 BYTE   N90  Gn2  v088  gtp1
 BYTE   N92  Gn3  v102
 BYTE   W96
//  #01 //014   ----------------------------------------
 BYTE   N90  Dn2  v088  gtp1
 BYTE   W01
 BYTE   N52  Dn3  v106
 BYTE   W56
 BYTE   W02
 BYTE   N09  Dn3  v102
 BYTE   W12
 BYTE   Fn3  v100
 BYTE   W13
 BYTE   N08  Cn4  v098
 BYTE   W12
//  #01 //015   ----------------------------------------
 BYTE   N11  Bn3  v102
 BYTE   N90  En2  v088  gtp1
 BYTE   W12
 BYTE   N11  Gn3  v100
 BYTE   W12
 BYTE   N32  Dn3  v100  gtp2
 BYTE   W36
 BYTE   W01
 BYTE   N12  Dn3  v102
 BYTE   W13
 BYTE   N06  Fn3
 BYTE   W12
 BYTE   N07  Dn4  v104
 BYTE   W10
//  #01 //016   ----------------------------------------
 BYTE   N90  Fn2  v088  gtp1
 BYTE   W02
 BYTE   N20  Cn4  v102
 BYTE   W24
 BYTE   N56  Bn3  v098  gtp2
 BYTE   W56
 BYTE   W02
 BYTE   N08  An3  v092
 BYTE   W11
 BYTE   N90  Bn3  v102  gtp1
 BYTE   Gn3
 BYTE   W01
//  #01 //017   ----------------------------------------
 BYTE   Gn2  v088
 BYTE   W92
 BYTE   W02
 BYTE   N02  Fn3  v102
 BYTE   W02
//  #01 //018   ----------------------------------------
 BYTE   N90  Fn2  v088  gtp1
 BYTE   W56
 BYTE   W02
 BYTE   N11  Fn3  v096
 BYTE   W13
 BYTE   N10  As3  v091
 BYTE   W14
 BYTE   N07  Ds4  v099
 BYTE   W11
//  #01 //019   ----------------------------------------
 BYTE   N12  Dn4  v098
 BYTE   N90  Gn2  v088  gtp1
 BYTE   W12
 BYTE   N11  As3  v093
 BYTE   W12
 BYTE   N54  Fn3  v100
 BYTE   W60
 BYTE   N08  Ds3  v099
 BYTE   W12
//  #01 //020   ----------------------------------------
 BYTE   N78  Fn3  v096  gtp1
 BYTE   W01
 BYTE   N90  Gs2  v088  gtp1
 BYTE   W84
 BYTE   N10  Gs3  v099
 BYTE   W10
 BYTE   N90  As2  v088  gtp1
 BYTE   W01
//  #01 //021   ----------------------------------------
 BYTE   N80  Fn3  v102  gtp1
 BYTE   W96
//  #01 //022   ----------------------------------------
 BYTE   N90  Dn2  v088  gtp1
 BYTE   N48  Dn3  v104  gtp3
 BYTE   W56
 BYTE   W01
 BYTE   N09  Dn3  v100
 BYTE   W13
 BYTE   N07  Fn3
 BYTE   W12
 BYTE   N06  Cn4
 BYTE   W12
 BYTE   N09  Bn3  v098
 BYTE   W02
//  #01 //023   ----------------------------------------
 BYTE   N90  En2  v088  gtp1
 BYTE   W09
 BYTE   N13  Gn3  v096
 BYTE   W14
 BYTE   N68  Dn3  v104  gtp3
 BYTE   W72
 BYTE   W01
//  #01 //024   ----------------------------------------
 BYTE   W01
 BYTE   N90  Fn2  v088  gtp1
 BYTE   W01
 BYTE   N04  Gn3  v106
 BYTE   W05
 BYTE   N05  Fn3  v098
 BYTE   W07
 BYTE   N78  Gn3
 BYTE   W80
 BYTE   W01
 BYTE   N06  Gn3  v092
 BYTE   W01
//  #01 //025   ----------------------------------------
 BYTE   N90  Gn2  v088  gtp1
 BYTE   W05
 BYTE   N05  Fn3  v096
 BYTE   W05
 BYTE   N80  Gn3  v100  gtp2
 BYTE   W84
 BYTE   W01
 BYTE   N92  Cn4  v100  gtp1
 BYTE   N92  Gs2  v102
 BYTE   W01
//  #01 //026   ----------------------------------------
 BYTE   N42  Gn3  v098  gtp1
 BYTE   W44
 BYTE   W03
 BYTE   Gn4  v100
 BYTE   N44  Gn3  v104  gtp3
 BYTE   W48
 BYTE   W01
//  #01 //027   ----------------------------------------
 BYTE   N84  Gn2  v094  gtp2
 BYTE   W01
 BYTE   N03  Gn3  v104
 BYTE   N06  Fn4  v109
 BYTE   W23
 BYTE   N60  Dn4  v104  gtp1
 BYTE   N54  Fn3  v100
 BYTE   W01
 BYTE   N44  Bn3  v086  gtp1
 BYTE   W60
 BYTE   N03  Bn3  v088
 BYTE   W05
 BYTE   N48  Gn3  v098
 BYTE   W02
 BYTE   N44  Cn4  v098  gtp3
 BYTE   W02
 BYTE   N88  Gs2  v097
 BYTE   W02
//  #01 //028   ----------------------------------------
 BYTE   W44
 BYTE   W01
 BYTE   N44  Cn4  v104  gtp2
 BYTE   N44  Gn3  v100  gtp1
 BYTE   N44  Gn4  v104  gtp3
 BYTE   W48
 BYTE   W02
 BYTE   N04  Gn3  v098
 BYTE   N07  Fn4  v106
 BYTE   W01
//  #01 //029   ----------------------------------------
 BYTE   N90  Gn2  v098
 BYTE   W13
 BYTE   N05  Bn3  v067
 BYTE   W09
 BYTE   N68  Dn4  v094  gtp2
 BYTE   W52
 BYTE   N16  Bn4  v106
 BYTE   W21
 BYTE   N42  Cn4  v102  gtp1
 BYTE   W01
//  #01 //030   ----------------------------------------
 BYTE   W01
 BYTE   N84  Gs2  v097
 BYTE   W44
 BYTE   W01
 BYTE   N44  Gn3  v100  gtp1
 BYTE   W01
 BYTE   N44  Cn4  v092
 BYTE   N36  Gn4  v104  gtp3
 BYTE   W48
 BYTE   N07  Fn4  v106
 BYTE   N80  Gn2  v092  gtp2
 BYTE   W01
//  #01 //031   ----------------------------------------
 BYTE   N04  Gn3  v096
 BYTE   W44
 BYTE   W03
 BYTE   N36  Fn3  v098  gtp3
 BYTE   N36  Dn4  v102  gtp1
 BYTE   W48
 BYTE   N05  Ds4
 BYTE   N03  Fs3  v093
 BYTE   N02  An3  v094
 BYTE   TIE  Fs2  v093
 BYTE   W01
//  #01 //032   ----------------------------------------
 BYTE   W06
 BYTE   N05  Fs3  v087
 BYTE   N07  Dn4  v100
 BYTE   W07
 BYTE   TIE  Fs3  v087
 BYTE   TIE  Ds4  v102
 BYTE   W02
 BYTE   N11  An3  v078
 BYTE   W80
 BYTE   W01
//  #01 //033   ----------------------------------------
 BYTE   W48
 BYTE   W01
 BYTE   N36  Cn4  v086
 BYTE   W02
 BYTE   EOT
 BYTE   Ds4
 BYTE   W36
 BYTE   W02
 BYTE   Fs2
 BYTE   W01
 BYTE   Fs3
 BYTE   W06
//  #01 //034   ----------------------------------------
 BYTE   W01
 BYTE   N06  Dn4  v096
 BYTE   W01
 BYTE   TIE  Gn2  v098
 BYTE   W01
 BYTE   Fn3  v094
 BYTE   W04
 BYTE   N04  Cn4
 BYTE   W05
 BYTE   TIE  Dn4  v090
 BYTE   W84
//  #01 //035   ----------------------------------------
 BYTE   W66
 BYTE   EOT
 BYTE   Fn3
 BYTE   W04
 BYTE   Gn2
 BYTE   W05
 BYTE   Dn4
 BYTE   W20
 BYTE   N06  Ds4  v097
 BYTE   TIE  Fs2  v095
 BYTE   W01
//  #01 //036   ----------------------------------------
 BYTE   W01
 BYTE   N80  Fs3  v046  gtp3
 BYTE   W03
 BYTE   N07  Dn4  v096
 BYTE   W07
 BYTE   N64  Ds4  v091  gtp1
 BYTE   W80
 BYTE   W02
 BYTE   N23  An3  v106
 BYTE   N30  Gs4  v118  gtp1
 BYTE   W03
//  #01 //037   ----------------------------------------
 BYTE   W44
 BYTE   W03
 BYTE   N36  Ds4  v099  gtp1
 BYTE   N36  Gs3  v102  gtp2
 BYTE   W32
 BYTE   W01
 BYTE   EOT
 BYTE   Fs2
 BYTE   W15
 BYTE   TIE  Dn4  v098
 BYTE   N84  Gn3  v100  gtp3
 BYTE   TIE  Gn2  v092
 BYTE   TIE  Cn4  v094
 BYTE   W01
//  #01 //038   ----------------------------------------
 BYTE   W96
//  #01 //039   ----------------------------------------
 BYTE   W02
 BYTE   N72  Gn4  v098
 BYTE   W44
 BYTE   EOT
 BYTE   Gn2
 BYTE   W30
 BYTE   Dn4  v072
 BYTE   W20
//  #01 //040   ----------------------------------------
 BYTE   GoTo
  POIN2 Label_01004FD8
 BYTE   FINE

//**************** Track 2 (Midi-Chn.1) ****************//

SuperMario64KoopasRoadMeteorSR23_002:
//  #02 //000   ----------------------------------------
 BYTE   KEYSH   SuperMario64KoopasRoadMeteorSR23_key+0
 BYTE   VOICE   1
 BYTE   BENDR  6
 BYTE   PAN   c_v+8
 BYTE   VOL   120*SuperMario64KoopasRoadMeteorSR23_mvl/mxv
 BYTE   N08  Dn3  v109
 BYTE   W08
 BYTE   Cn3  v104
 BYTE   W08
 BYTE   Gn2  v109
 BYTE   W08
 BYTE   Dn2
 BYTE   W08
 BYTE   Cn2  v104
 BYTE   W08
 BYTE   Gn1  v106
 BYTE   W09
 BYTE   TIE  Dn1
 BYTE   W44
 BYTE   W03
//  #02 //001   ----------------------------------------
 BYTE   W92
 BYTE   W03
 BYTE   EOT
 BYTE   W01
//  #02 //002   ----------------------------------------
Label_0100532C:
 BYTE   VOL   127*SuperMario64KoopasRoadMeteorSR23_mvl/mxv
 BYTE   TIE  Dn1  v100
 BYTE   W96
//  #02 //003   ----------------------------------------
 BYTE   W96
//  #02 //004   ----------------------------------------
 BYTE   W96
//  #02 //005   ----------------------------------------
 BYTE   W84
 BYTE   W03
 BYTE   EOT
 BYTE   W09
//  #02 //006   ----------------------------------------
 BYTE   TIE  Dn1  v122
 BYTE   W96
//  #02 //007   ----------------------------------------
 BYTE   W96
//  #02 //008   ----------------------------------------
 BYTE   W96
//  #02 //009   ----------------------------------------
 BYTE   W44
 BYTE   W01
 BYTE   EOT
 BYTE   W48
 BYTE   W03
//  #02 //010   ----------------------------------------
 BYTE   VOL   120*SuperMario64KoopasRoadMeteorSR23_mvl/mxv
 BYTE   N05  Dn1  v113
 BYTE   W24
 BYTE   Dn1  v109
 BYTE   W36
 BYTE   N04
 BYTE   W12
 BYTE   N03
 BYTE   W06
 BYTE   Dn1  v056
 BYTE   W06
 BYTE   Dn1  v044
 BYTE   W06
 BYTE   Dn1  v100
 BYTE   W06
//  #02 //011   ----------------------------------------
 BYTE   N04  En1  v117
 BYTE   W24
 BYTE   En1  v127
 BYTE   W36
 BYTE   En1  v113
 BYTE   W12
 BYTE   N03  En1  v106
 BYTE   W06
 BYTE   En1  v098
 BYTE   W06
 BYTE   En1  v090
 BYTE   W06
 BYTE   En1  v100
 BYTE   W06
//  #02 //012   ----------------------------------------
 BYTE   N04  Fn1  v113
 BYTE   W24
 BYTE   Fn1  v109
 BYTE   W36
 BYTE   N03
 BYTE   W12
 BYTE   N02
 BYTE   W06
 BYTE   N03  Fn1  v096
 BYTE   W06
 BYTE   Fn1
 BYTE   W06
 BYTE   Fn1  v098
 BYTE   W06
//  #02 //013   ----------------------------------------
 BYTE   N04  Gn1  v113
 BYTE   W24
 BYTE   Gn1  v109
 BYTE   W36
 BYTE   N03  Gn1  v106
 BYTE   W12
 BYTE   Gn1
 BYTE   W06
 BYTE   Gn1  v102
 BYTE   W06
 BYTE   N01  Gn1  v113
 BYTE   W06
 BYTE   N02  Gn1  v098
 BYTE   W06
//  #02 //014   ----------------------------------------
 BYTE   N04  Dn1  v109
 BYTE   W24
 BYTE   Dn1
 BYTE   W36
 BYTE   Dn1  v098
 BYTE   W12
 BYTE   N03  Dn1  v094
 BYTE   W06
 BYTE   Dn1
 BYTE   W06
 BYTE   Dn1  v100
 BYTE   W06
 BYTE   Dn1
 BYTE   W06
//  #02 //015   ----------------------------------------
 BYTE   N05  En1  v113
 BYTE   W24
 BYTE   En1  v104
 BYTE   W36
 BYTE   N04  En1  v100
 BYTE   W12
 BYTE   N03  En1  v098
 BYTE   W06
 BYTE   En1
 BYTE   W06
 BYTE   En1  v100
 BYTE   W06
 BYTE   En1
 BYTE   W06
//  #02 //016   ----------------------------------------
 BYTE   N04  Fn1  v104
 BYTE   W24
 BYTE   Fn1  v102
 BYTE   W36
 BYTE   Fn1
 BYTE   W12
 BYTE   N03  Fn1  v098
 BYTE   W06
 BYTE   Fn1  v102
 BYTE   W06
 BYTE   Fn1  v103
 BYTE   W06
 BYTE   Fn1  v104
 BYTE   W06
//  #02 //017   ----------------------------------------
 BYTE   Gn1  v102
 BYTE   W24
 BYTE   N05  Gn1  v109
 BYTE   W36
 BYTE   N04  Gn1  v096
 BYTE   W12
 BYTE   N03  Gn1  v098
 BYTE   W06
 BYTE   N04  Gn1  v101
 BYTE   W06
 BYTE   N03  Gn1  v102
 BYTE   W06
 BYTE   Gn1
 BYTE   W06
//  #02 //018   ----------------------------------------
 BYTE   N04  Fn1  v104
 BYTE   W24
 BYTE   Fn1  v106
 BYTE   W36
 BYTE   Fn1  v102
 BYTE   W12
 BYTE   N03  Fn1  v098
 BYTE   W06
 BYTE   Fn1  v093
 BYTE   W06
 BYTE   N02  Fn1  v090
 BYTE   W06
 BYTE   N03  Fn1  v088
 BYTE   W06
//  #02 //019   ----------------------------------------
 BYTE   N04  Gn1  v106
 BYTE   W24
 BYTE   Gn1  v104
 BYTE   W36
 BYTE   Gn1  v106
 BYTE   W12
 BYTE   N03
 BYTE   W06
 BYTE   N07  Gn1  v098
 BYTE   W12
 BYTE   N03
 BYTE   W06
//  #02 //020   ----------------------------------------
 BYTE   N04  Gs1  v109
 BYTE   W24
 BYTE   Gs1  v118
 BYTE   W36
 BYTE   Gs1  v109
 BYTE   W12
 BYTE   N01  Gs1  v099
 BYTE   W06
 BYTE   N03  Gs1  v078
 BYTE   W06
 BYTE   N02  Gs1  v095
 BYTE   W06
 BYTE   N03  Gs1  v097
 BYTE   W06
//  #02 //021   ----------------------------------------
 BYTE   As1
 BYTE   W24
 BYTE   N04  As1  v118
 BYTE   W36
 BYTE   N03  As1  v102
 BYTE   W12
 BYTE   N01  As1  v072
 BYTE   W06
 BYTE   As1  v083
 BYTE   W06
 BYTE   As1  v091
 BYTE   W06
 BYTE   N03  As1  v070
 BYTE   W06
//  #02 //022   ----------------------------------------
 BYTE   N05  Dn1  v106
 BYTE   W24
 BYTE   Dn1
 BYTE   W36
 BYTE   N04  Dn1  v102
 BYTE   W12
 BYTE   N02  Dn1  v100
 BYTE   W06
 BYTE   N03  Dn1  v088
 BYTE   W06
 BYTE   N02  Dn1  v082
 BYTE   W06
 BYTE   N03  Dn1  v092
 BYTE   W06
//  #02 //023   ----------------------------------------
 BYTE   N04  En1  v102
 BYTE   W24
 BYTE   En1  v113
 BYTE   W36
 BYTE   En1  v109
 BYTE   W12
 BYTE   N03  En1  v104
 BYTE   W06
 BYTE   En1  v088
 BYTE   W06
 BYTE   En1  v080
 BYTE   W06
 BYTE   En1  v090
 BYTE   W06
//  #02 //024   ----------------------------------------
 BYTE   N04  Fn1  v100
 BYTE   W24
 BYTE   Fn1  v109
 BYTE   W36
 BYTE   Fn1  v104
 BYTE   W12
 BYTE   N02  Fn1  v096
 BYTE   W06
 BYTE   N03  Fn1  v090
 BYTE   W06
 BYTE   N04  Fn1  v097
 BYTE   W06
 BYTE   N03  Fn1  v102
 BYTE   W06
//  #02 //025   ----------------------------------------
 BYTE   N04  Gn1  v098
 BYTE   W24
 BYTE   Gn1  v106
 BYTE   W36
 BYTE   Gn1  v104
 BYTE   W12
 BYTE   N03
 BYTE   W06
 BYTE   Gn1  v078
 BYTE   W06
 BYTE   N04  Gn1  v098
 BYTE   W06
 BYTE   N01  Gn1  v102
 BYTE   W06
//  #02 //026   ----------------------------------------
 BYTE   TIE  Gs1  v109
 BYTE   W96
//  #02 //027   ----------------------------------------
 BYTE   N96  Gn1  v104
 BYTE   W01
 BYTE   EOT
 BYTE   Gs1
 BYTE   W92
 BYTE   W03
//  #02 //028   ----------------------------------------
 BYTE   N92  Gs1  v099  gtp3
 BYTE   W96
//  #02 //029   ----------------------------------------
 BYTE   TIE  Gn1  v102
 BYTE   W96
//  #02 //030   ----------------------------------------
 BYTE   N90  Gs1  v097  gtp1
 BYTE   W02
 BYTE   EOT
 BYTE   Gn1
 BYTE   W92
 BYTE   W02
//  #02 //031   ----------------------------------------
 BYTE   N90  Gn1  v100  gtp1
 BYTE   W96
//  #02 //032   ----------------------------------------
 BYTE   TIE  Fs1  v097
 BYTE   W96
//  #02 //033   ----------------------------------------
 BYTE   W72
 BYTE   W01
 BYTE   EOT
 BYTE   W23
//  #02 //034   ----------------------------------------
 BYTE   TIE  Gn1  v098
 BYTE   W96
//  #02 //035   ----------------------------------------
 BYTE   W84
 BYTE   W01
 BYTE   EOT
 BYTE   W11
//  #02 //036   ----------------------------------------
 BYTE   TIE  Fs1  v109
 BYTE   W96
//  #02 //037   ----------------------------------------
 BYTE   W78
 BYTE   EOT
 BYTE   W18
//  #02 //038   ----------------------------------------
 BYTE   TIE  Gn1  v102
 BYTE   W96
//  #02 //039   ----------------------------------------
 BYTE   W92
 BYTE   EOT
 BYTE   W04
//  #02 //040   ----------------------------------------
 BYTE   VOL   127*SuperMario64KoopasRoadMeteorSR23_mvl/mxv
 BYTE   GoTo
  POIN2 Label_0100532C
 BYTE   FINE

//**************** Track 3 (Midi-Chn.2) ****************//

SuperMario64KoopasRoadMeteorSR23_003:
//  #03 //000   ----------------------------------------
 BYTE   KEYSH   SuperMario64KoopasRoadMeteorSR23_key+0
 BYTE   VOICE   49
 BYTE   VOL   79*SuperMario64KoopasRoadMeteorSR23_mvl/mxv
 BYTE   BENDR  6
 BYTE   W96
//  #03 //001   ----------------------------------------
 BYTE   W96
//  #03 //002   ----------------------------------------
Label_01004D2E:
 BYTE   W96
//  #03 //003   ----------------------------------------
 BYTE   W96
//  #03 //004   ----------------------------------------
 BYTE   W96
//  #03 //005   ----------------------------------------
 BYTE   W96
//  #03 //006   ----------------------------------------
 BYTE   W96
//  #03 //007   ----------------------------------------
 BYTE   W96
//  #03 //008   ----------------------------------------
 BYTE   W96
//  #03 //009   ----------------------------------------
 BYTE   W96
//  #03 //010   ----------------------------------------
 BYTE   W96
//  #03 //011   ----------------------------------------
 BYTE   W96
//  #03 //012   ----------------------------------------
 BYTE   W96
//  #03 //013   ----------------------------------------
 BYTE   W96
//  #03 //014   ----------------------------------------
 BYTE   W96
//  #03 //015   ----------------------------------------
 BYTE   W96
//  #03 //016   ----------------------------------------
 BYTE   W96
//  #03 //017   ----------------------------------------
 BYTE   W96
//  #03 //018   ----------------------------------------
 BYTE   PAN   c_v-18
 BYTE   N92  Ds3  v075  gtp3
 BYTE   W96
//  #03 //019   ----------------------------------------
 BYTE   TIE  Fn3  v085
 BYTE   W96
//  #03 //020   ----------------------------------------
 BYTE   Ds3  v087
 BYTE   W01
 BYTE   EOT
 BYTE   Fn3
 BYTE   W92
 BYTE   W03
//  #03 //021   ----------------------------------------
 BYTE   TIE  Dn3  v096
 BYTE   W01
 BYTE   EOT
 BYTE   Ds3
 BYTE   W92
 BYTE   W03
//  #03 //022   ----------------------------------------
 BYTE   TIE  Cn3  v094
 BYTE   W01
 BYTE   EOT
 BYTE   Dn3
 BYTE   W92
 BYTE   W03
//  #03 //023   ----------------------------------------
 BYTE   TIE  Dn3  v098
 BYTE   W02
 BYTE   EOT
 BYTE   Cn3
 BYTE   W92
 BYTE   W02
//  #03 //024   ----------------------------------------
 BYTE   TIE  Ds3  v085
 BYTE   W03
 BYTE   EOT
 BYTE   Dn3
 BYTE   W92
 BYTE   W01
//  #03 //025   ----------------------------------------
 BYTE   N96  Fn3  v088
 BYTE   W02
 BYTE   EOT
 BYTE   Ds3
 BYTE   W92
 BYTE   W02
//  #03 //026   ----------------------------------------
 BYTE   TIE  Gn3  v096
 BYTE   W96
//  #03 //027   ----------------------------------------
 BYTE   Fn3  v094
 BYTE   W04
 BYTE   EOT
 BYTE   Gn3
 BYTE   W92
//  #03 //028   ----------------------------------------
 BYTE   TIE  Gn3  v102
 BYTE   W02
 BYTE   EOT
 BYTE   Fn3
 BYTE   W92
 BYTE   W02
//  #03 //029   ----------------------------------------
 BYTE   TIE  Fn3  v096
 BYTE   W02
 BYTE   EOT
 BYTE   Gn3
 BYTE   W92
 BYTE   W02
//  #03 //030   ----------------------------------------
 BYTE   N52  Cn4
 BYTE   W04
 BYTE   EOT
 BYTE   Fn3
 BYTE   W48
 BYTE   W02
 BYTE   N44  Cn4  v098  gtp1
 BYTE   W42
//  #03 //031   ----------------------------------------
 BYTE   N92  Bn3  v094  gtp3
 BYTE   W96
//  #03 //032   ----------------------------------------
 BYTE   TIE  Dn4  v102
 BYTE   W96
//  #03 //033   ----------------------------------------
 BYTE   W42
 BYTE   N54  Cn4  v098
 BYTE   W07
 BYTE   EOT
 BYTE   Dn4
 BYTE   W44
 BYTE   W03
//  #03 //034   ----------------------------------------
 BYTE   TIE  Bn3
 BYTE   W96
//  #03 //035   ----------------------------------------
 BYTE   W84
 BYTE   EOT
 BYTE   W12
//  #03 //036   ----------------------------------------
 BYTE   N90  Dn4  v076
 BYTE   W96
//  #03 //037   ----------------------------------------
 BYTE   N92  Cn4  v100  gtp2
 BYTE   W96
//  #03 //038   ----------------------------------------
 BYTE   N96  Bn3  v090
 BYTE   W96
//  #03 //039   ----------------------------------------
 BYTE   Dn4
 BYTE   W96
//  #03 //040   ----------------------------------------
 BYTE   PAN   c_v+0
 BYTE   GoTo
  POIN2 Label_01004D2E
 BYTE   FINE

//**************** Track 4 (Midi-Chn.3) ****************//

SuperMario64KoopasRoadMeteorSR23_004:
//  #04 //000   ----------------------------------------
 BYTE   KEYSH   SuperMario64KoopasRoadMeteorSR23_key+0
 BYTE   VOICE   6
 BYTE   VOL   60*SuperMario64KoopasRoadMeteorSR23_mvl/mxv
 BYTE   BENDR  6
 BYTE   W96
//  #04 //001   ----------------------------------------
 BYTE   W96
//  #04 //002   ----------------------------------------
Label_0100559E:
 BYTE   W96
//  #04 //003   ----------------------------------------
 BYTE   W96
//  #04 //004   ----------------------------------------
 BYTE   W96
//  #04 //005   ----------------------------------------
 BYTE   W96
//  #04 //006   ----------------------------------------
 BYTE   W96
//  #04 //007   ----------------------------------------
 BYTE   W96
//  #04 //008   ----------------------------------------
 BYTE   W96
//  #04 //009   ----------------------------------------
 BYTE   W96
//  #04 //010   ----------------------------------------
 BYTE   W96
//  #04 //011   ----------------------------------------
 BYTE   W96
//  #04 //012   ----------------------------------------
 BYTE   W96
//  #04 //013   ----------------------------------------
 BYTE   W96
//  #04 //014   ----------------------------------------
 BYTE   W96
//  #04 //015   ----------------------------------------
 BYTE   W96
//  #04 //016   ----------------------------------------
 BYTE   W96
//  #04 //017   ----------------------------------------
 BYTE   W96
//  #04 //018   ----------------------------------------
 BYTE   W96
//  #04 //019   ----------------------------------------
 BYTE   W96
//  #04 //020   ----------------------------------------
 BYTE   W96
//  #04 //021   ----------------------------------------
 BYTE   W96
//  #04 //022   ----------------------------------------
 BYTE   W96
//  #04 //023   ----------------------------------------
 BYTE   W96
//  #04 //024   ----------------------------------------
 BYTE   W96
//  #04 //025   ----------------------------------------
 BYTE   W96
//  #04 //026   ----------------------------------------
 BYTE   W96
//  #04 //027   ----------------------------------------
 BYTE   W60
 BYTE   W03
 BYTE   PAN   c_v+22
 BYTE   N10  Fn3  v096
 BYTE   W11
 BYTE   N09  Gn3
 BYTE   W10
 BYTE   N11  Cn4  v100
 BYTE   W12
//  #04 //028   ----------------------------------------
 BYTE   N22  Bn3  v094
 BYTE   W01
 BYTE   BEND   c_v-6
 BYTE   W01
 BYTE   BEND   c_v-10
 BYTE   W04
 BYTE   BEND   c_v-4
 BYTE   W01
 BYTE   BEND   c_v+0
 BYTE   W13
 BYTE   N66  Gn3  v102
 BYTE   W76
//  #04 //029   ----------------------------------------
 BYTE   W60
 BYTE   W03
 BYTE   N10  Fn3  v098
 BYTE   W10
 BYTE   N11  Gn3  v102
 BYTE   W11
 BYTE   N09  Cn4  v100
 BYTE   W12
//  #04 //030   ----------------------------------------
 BYTE   N22  Bn3  v102
 BYTE   W03
 BYTE   BEND   c_v+4
 BYTE   W01
 BYTE   BEND   c_v+7
 BYTE   W01
 BYTE   BEND   c_v+11
 BYTE   W04
 BYTE   BEND   c_v+10
 BYTE   W01
 BYTE   BEND   c_v+6
 BYTE   W01
 BYTE   BEND   c_v+3
 BYTE   W01
 BYTE   BEND   c_v+0
 BYTE   W08
 BYTE   N76  Gn3  v104
 BYTE   W76
//  #04 //031   ----------------------------------------
 BYTE   W96
//  #04 //032   ----------------------------------------
 BYTE   W96
//  #04 //033   ----------------------------------------
 BYTE   W48
 BYTE   N48  Gn3  v106  gtp2
 BYTE   W05
 BYTE   BEND   c_v-1
 BYTE   W01
 BYTE   BEND   c_v-5
 BYTE   W01
 BYTE   BEND   c_v-7
 BYTE   W01
 BYTE   BEND   c_v-10
 BYTE   W03
 BYTE   BEND   c_v-8
 BYTE   W01
 BYTE   BEND   c_v-6
 BYTE   W01
 BYTE   BEND   c_v+0
 BYTE   W32
 BYTE   W03
//  #04 //034   ----------------------------------------
 BYTE   W96
//  #04 //035   ----------------------------------------
 BYTE   N72  Bn3  v102  gtp1
 BYTE   W07
 BYTE   BEND   c_v-4
 BYTE   W01
 BYTE   BEND   c_v-6
 BYTE   W01
 BYTE   BEND   c_v-8
 BYTE   W04
 BYTE   BEND   c_v-5
 BYTE   W01
 BYTE   BEND   c_v-2
 BYTE   W01
 BYTE   BEND   c_v+0
 BYTE   W80
 BYTE   W01
//  #04 //036   ----------------------------------------
 BYTE   W96
//  #04 //037   ----------------------------------------
 BYTE   W02
 BYTE   N66  Gn3  v106  gtp1
 BYTE   W06
 BYTE   BEND   c_v-4
 BYTE   W01
 BYTE   BEND   c_v-5
 BYTE   W01
 BYTE   BEND   c_v-7
 BYTE   W04
 BYTE   BEND   c_v-5
 BYTE   W01
 BYTE   BEND   c_v-1
 BYTE   W01
 BYTE   BEND   c_v+0
 BYTE   W80
//  #04 //038   ----------------------------------------
 BYTE   W48
 BYTE   W02
 BYTE   N40  Bn3  v100  gtp1
 BYTE   W03
 BYTE   BEND   c_v-3
 BYTE   W01
 BYTE   BEND   c_v-6
 BYTE   W04
 BYTE   BEND   c_v-4
 BYTE   W01
 BYTE   BEND   c_v+0
 BYTE   W36
 BYTE   W01
//  #04 //039   ----------------------------------------
 BYTE   W01
 BYTE   N32  Dn4  v080  gtp3
 BYTE   BEND   c_v-9
 BYTE   W01
 BYTE   BEND   c_v-10
 BYTE   W01
 BYTE   BEND   c_v-12
 BYTE   W02
 BYTE   BEND   c_v-10
 BYTE   W01
 BYTE   BEND   c_v-4
 BYTE   W01
 BYTE   BEND   c_v+0
 BYTE   W36
 BYTE   W03
 BYTE   N36  Fn4  v070  gtp3
 BYTE   W05
 BYTE   BEND   c_v+4
 BYTE   W01
 BYTE   BEND   c_v+8
 BYTE   W01
 BYTE   BEND   c_v+10
 BYTE   W04
 BYTE   BEND   c_v+5
 BYTE   W01
 BYTE   BEND   c_v+1
 BYTE   W01
 BYTE   BEND   c_v+0
 BYTE   W36
 BYTE   W01
//  #04 //040   ----------------------------------------
 BYTE   PAN   c_v+0
 BYTE   GoTo
  POIN2 Label_0100559E
 BYTE   FINE

//**************** Track 5 (Midi-Chn.4) ****************//

SuperMario64KoopasRoadMeteorSR23_005:
//  #05 //000   ----------------------------------------
 BYTE   KEYSH   SuperMario64KoopasRoadMeteorSR23_key+0
 BYTE   VOICE   4
 BYTE   VOL   115*SuperMario64KoopasRoadMeteorSR23_mvl/mxv
 BYTE   BENDR  6
 BYTE   PAN   c_v-28
 BYTE   N08  Dn4  v109
 BYTE   W08
 BYTE   Cn4  v104
 BYTE   W08
 BYTE   Gn3  v109
 BYTE   W08
 BYTE   Dn3
 BYTE   W08
 BYTE   Cn3  v104
 BYTE   W08
 BYTE   Gn2  v106
 BYTE   W08
 BYTE   TIE  Dn2  v113
 BYTE   W48
//  #05 //001   ----------------------------------------
 BYTE   W56
 BYTE   EOT
 BYTE   W40
//  #05 //002   ----------------------------------------
Label_0100446F:
 BYTE   W96
//  #05 //003   ----------------------------------------
 BYTE   W96
//  #05 //004   ----------------------------------------
 BYTE   W96
//  #05 //005   ----------------------------------------
 BYTE   W96
//  #05 //006   ----------------------------------------
 BYTE   W96
//  #05 //007   ----------------------------------------
 BYTE   W96
//  #05 //008   ----------------------------------------
 BYTE   W96
//  #05 //009   ----------------------------------------
 BYTE   W96
//  #05 //010   ----------------------------------------
 BYTE   W96
//  #05 //011   ----------------------------------------
 BYTE   W96
//  #05 //012   ----------------------------------------
 BYTE   W96
//  #05 //013   ----------------------------------------
 BYTE   W96
//  #05 //014   ----------------------------------------
 BYTE   W96
//  #05 //015   ----------------------------------------
 BYTE   W96
//  #05 //016   ----------------------------------------
 BYTE   W96
//  #05 //017   ----------------------------------------
 BYTE   W96
//  #05 //018   ----------------------------------------
 BYTE   W96
//  #05 //019   ----------------------------------------
 BYTE   W96
//  #05 //020   ----------------------------------------
 BYTE   W96
//  #05 //021   ----------------------------------------
 BYTE   W96
//  #05 //022   ----------------------------------------
 BYTE   W96
//  #05 //023   ----------------------------------------
 BYTE   W96
//  #05 //024   ----------------------------------------
 BYTE   W96
//  #05 //025   ----------------------------------------
 BYTE   W96
//  #05 //026   ----------------------------------------
 BYTE   W96
//  #05 //027   ----------------------------------------
 BYTE   W96
//  #05 //028   ----------------------------------------
 BYTE   W96
//  #05 //029   ----------------------------------------
 BYTE   W96
//  #05 //030   ----------------------------------------
 BYTE   W96
//  #05 //031   ----------------------------------------
 BYTE   W96
//  #05 //032   ----------------------------------------
 BYTE   W96
//  #05 //033   ----------------------------------------
 BYTE   W96
//  #05 //034   ----------------------------------------
 BYTE   W96
//  #05 //035   ----------------------------------------
 BYTE   W96
//  #05 //036   ----------------------------------------
 BYTE   W96
//  #05 //037   ----------------------------------------
 BYTE   W96
//  #05 //038   ----------------------------------------
 BYTE   W96
//  #05 //039   ----------------------------------------
 BYTE   W96
//  #05 //040   ----------------------------------------
 BYTE   GoTo
  POIN2 Label_0100446F
 BYTE   FINE

//**************** Track 6 (Midi-Chn.5) ****************//

SuperMario64KoopasRoadMeteorSR23_006:
//  #06 //000   ----------------------------------------
 BYTE   KEYSH   SuperMario64KoopasRoadMeteorSR23_key+0
 BYTE   VOICE   127
 BYTE   VOL   94*SuperMario64KoopasRoadMeteorSR23_mvl/mxv
 BYTE   BENDR  6
 BYTE   W96
//  #06 //001   ----------------------------------------
 BYTE   W96
//  #06 //002   ----------------------------------------
Label_01002DFE:
 BYTE   W12
 BYTE   PAN   c_v+11
 BYTE   N09  Dn1  v120
 BYTE   W12
 BYTE   N19  Dn1  v122
 BYTE   W24
 BYTE   N14  Dn1  v115
 BYTE   W18
 BYTE   N04
 BYTE   W06
 BYTE   N09
 BYTE   W12
 BYTE   Dn1  v127
 BYTE   W12
//  #06 //003   ----------------------------------------
Label_01002E14:
 BYTE   W12
 BYTE   N09  Dn1  v120
 BYTE   W12
 BYTE   N19  Dn1  v122
 BYTE   W24
 BYTE   N14  Dn1  v115
 BYTE   W18
 BYTE   N04
 BYTE   W06
 BYTE   N09
 BYTE   W12
 BYTE   Dn1  v127
 BYTE   W12
 BYTE   PEND 
//  #06 //004   ----------------------------------------
 BYTE   PATT
  POIN2 Label_01002E14
//  #06 //005   ----------------------------------------
 BYTE   PATT
  POIN2 Label_01002E14
//  #06 //006   ----------------------------------------
 BYTE   PATT
  POIN2 Label_01002E14
//  #06 //007   ----------------------------------------
 BYTE   PATT
  POIN2 Label_01002E14
//  #06 //008   ----------------------------------------
 BYTE   PATT
  POIN2 Label_01002E14
//  #06 //009   ----------------------------------------
 BYTE   W12
 BYTE   N09  Dn1  v120
 BYTE   W12
 BYTE   N19  Dn1  v122
 BYTE   W24
 BYTE   N14  Dn1  v115
 BYTE   W48
//  #06 //010   ----------------------------------------
 BYTE   PATT
  POIN2 Label_01002E14
//  #06 //011   ----------------------------------------
 BYTE   PATT
  POIN2 Label_01002E14
//  #06 //012   ----------------------------------------
 BYTE   PATT
  POIN2 Label_01002E14
//  #06 //013   ----------------------------------------
 BYTE   PATT
  POIN2 Label_01002E14
//  #06 //014   ----------------------------------------
 BYTE   PATT
  POIN2 Label_01002E14
//  #06 //015   ----------------------------------------
 BYTE   PATT
  POIN2 Label_01002E14
//  #06 //016   ----------------------------------------
 BYTE   PATT
  POIN2 Label_01002E14
//  #06 //017   ----------------------------------------
 BYTE   PATT
  POIN2 Label_01002E14
//  #06 //018   ----------------------------------------
 BYTE   PATT
  POIN2 Label_01002E14
//  #06 //019   ----------------------------------------
 BYTE   PATT
  POIN2 Label_01002E14
//  #06 //020   ----------------------------------------
 BYTE   PATT
  POIN2 Label_01002E14
//  #06 //021   ----------------------------------------
 BYTE   PATT
  POIN2 Label_01002E14
//  #06 //022   ----------------------------------------
 BYTE   PATT
  POIN2 Label_01002E14
//  #06 //023   ----------------------------------------
 BYTE   PATT
  POIN2 Label_01002E14
//  #06 //024   ----------------------------------------
 BYTE   PATT
  POIN2 Label_01002E14
//  #06 //025   ----------------------------------------
 BYTE   PATT
  POIN2 Label_01002E14
//  #06 //026   ----------------------------------------
 BYTE   PATT
  POIN2 Label_01002E14
//  #06 //027   ----------------------------------------
 BYTE   PATT
  POIN2 Label_01002E14
//  #06 //028   ----------------------------------------
 BYTE   PATT
  POIN2 Label_01002E14
//  #06 //029   ----------------------------------------
 BYTE   PATT
  POIN2 Label_01002E14
//  #06 //030   ----------------------------------------
 BYTE   PATT
  POIN2 Label_01002E14
//  #06 //031   ----------------------------------------
 BYTE   PATT
  POIN2 Label_01002E14
//  #06 //032   ----------------------------------------
 BYTE   PATT
  POIN2 Label_01002E14
//  #06 //033   ----------------------------------------
 BYTE   PATT
  POIN2 Label_01002E14
//  #06 //034   ----------------------------------------
 BYTE   PATT
  POIN2 Label_01002E14
//  #06 //035   ----------------------------------------
 BYTE   PATT
  POIN2 Label_01002E14
//  #06 //036   ----------------------------------------
 BYTE   PATT
  POIN2 Label_01002E14
//  #06 //037   ----------------------------------------
 BYTE   PATT
  POIN2 Label_01002E14
//  #06 //038   ----------------------------------------
 BYTE   PATT
  POIN2 Label_01002E14
//  #06 //039   ----------------------------------------
 BYTE   PATT
  POIN2 Label_01002E14
//  #06 //040   ----------------------------------------
 BYTE   PAN   c_v+0
 BYTE   GoTo
  POIN2 Label_01002DFE
 BYTE   FINE

//**************** Track 7 (Midi-Chn.6) ****************//

SuperMario64KoopasRoadMeteorSR23_007:
//  #07 //000   ----------------------------------------
 BYTE   KEYSH   SuperMario64KoopasRoadMeteorSR23_key+0
 BYTE   VOICE   6
 BYTE   BENDR  6
 BYTE   PAN   c_v-9
 BYTE   VOL   120*SuperMario64KoopasRoadMeteorSR23_mvl/mxv
 BYTE   N08  An3  v088
 BYTE   W08
 BYTE   Gn3  v085
 BYTE   W08
 BYTE   Dn3  v088
 BYTE   W08
 BYTE   An2
 BYTE   W08
 BYTE   Gn2  v085
 BYTE   W08
 BYTE   Dn2  v086
 BYTE   W09
 BYTE   TIE  An1
 BYTE   W44
 BYTE   W03
//  #07 //001   ----------------------------------------
 BYTE   W92
 BYTE   W03
 BYTE   EOT
 BYTE   W01
//  #07 //002   ----------------------------------------
Label_01005840:
 BYTE   VOL   127*SuperMario64KoopasRoadMeteorSR23_mvl/mxv
 BYTE   TIE  An1  v080
 BYTE   W96
//  #07 //003   ----------------------------------------
 BYTE   W96
//  #07 //004   ----------------------------------------
 BYTE   W96
//  #07 //005   ----------------------------------------
 BYTE   W84
 BYTE   W03
 BYTE   EOT
 BYTE   W09
//  #07 //006   ----------------------------------------
 BYTE   TIE  An1  v099
 BYTE   W96
//  #07 //007   ----------------------------------------
 BYTE   W96
//  #07 //008   ----------------------------------------
 BYTE   W96
//  #07 //009   ----------------------------------------
 BYTE   W44
 BYTE   W01
 BYTE   EOT
 BYTE   W48
 BYTE   W03
//  #07 //010   ----------------------------------------
 BYTE   VOL   120*SuperMario64KoopasRoadMeteorSR23_mvl/mxv
 BYTE   N05  An1  v092
 BYTE   W24
 BYTE   An1  v088
 BYTE   W36
 BYTE   N04
 BYTE   W12
 BYTE   N03
 BYTE   W06
 BYTE   An1  v045
 BYTE   W06
 BYTE   An1  v036
 BYTE   W06
 BYTE   An1  v081
 BYTE   W06
//  #07 //011   ----------------------------------------
 BYTE   N04  Bn1  v095
 BYTE   W24
 BYTE   Bn1  v103
 BYTE   W36
 BYTE   Bn1  v092
 BYTE   W12
 BYTE   N03  Bn1  v086
 BYTE   W06
 BYTE   Bn1  v079
 BYTE   W06
 BYTE   Bn1  v073
 BYTE   W06
 BYTE   Bn1  v081
 BYTE   W06
//  #07 //012   ----------------------------------------
 BYTE   N04  Cn2  v092
 BYTE   W24
 BYTE   Cn2  v088
 BYTE   W36
 BYTE   N03
 BYTE   W12
 BYTE   N02
 BYTE   W06
 BYTE   N03  Cn2  v077
 BYTE   W06
 BYTE   Cn2
 BYTE   W06
 BYTE   Cn2  v079
 BYTE   W06
//  #07 //013   ----------------------------------------
 BYTE   N04  Dn2  v092
 BYTE   W24
 BYTE   Dn2  v088
 BYTE   W36
 BYTE   N03  Dn2  v086
 BYTE   W12
 BYTE   Dn2
 BYTE   W06
 BYTE   Dn2  v083
 BYTE   W06
 BYTE   N01  Dn2  v092
 BYTE   W06
 BYTE   N02  Dn2  v079
 BYTE   W06
//  #07 //014   ----------------------------------------
 BYTE   N04  An1  v088
 BYTE   W24
 BYTE   An1
 BYTE   W36
 BYTE   An1  v079
 BYTE   W12
 BYTE   N03  An1  v077
 BYTE   W06
 BYTE   An1
 BYTE   W06
 BYTE   An1  v081
 BYTE   W06
 BYTE   An1
 BYTE   W06
//  #07 //015   ----------------------------------------
 BYTE   N05  Bn1  v092
 BYTE   W24
 BYTE   Bn1  v085
 BYTE   W36
 BYTE   N04  Bn1  v081
 BYTE   W12
 BYTE   N03  Bn1  v079
 BYTE   W06
 BYTE   Bn1
 BYTE   W06
 BYTE   Bn1  v081
 BYTE   W06
 BYTE   Bn1
 BYTE   W06
//  #07 //016   ----------------------------------------
 BYTE   N04  Cn2  v085
 BYTE   W24
 BYTE   Cn2  v083
 BYTE   W36
 BYTE   Cn2
 BYTE   W12
 BYTE   N03  Cn2  v079
 BYTE   W06
 BYTE   Cn2  v083
 BYTE   W06
 BYTE   Cn2  v084
 BYTE   W06
 BYTE   Cn2  v085
 BYTE   W06
//  #07 //017   ----------------------------------------
 BYTE   Dn2  v083
 BYTE   W24
 BYTE   N05  Dn2  v088
 BYTE   W36
 BYTE   N04  Dn2  v077
 BYTE   W12
 BYTE   N03  Dn2  v079
 BYTE   W06
 BYTE   N04  Dn2  v082
 BYTE   W06
 BYTE   N03  Dn2  v083
 BYTE   W06
 BYTE   Dn2
 BYTE   W06
//  #07 //018   ----------------------------------------
 BYTE   N04  Cn2  v085
 BYTE   W24
 BYTE   Cn2  v086
 BYTE   W36
 BYTE   Cn2  v083
 BYTE   W12
 BYTE   N03  Cn2  v079
 BYTE   W06
 BYTE   Cn2  v076
 BYTE   W06
 BYTE   N02  Cn2  v073
 BYTE   W06
 BYTE   N03  Cn2  v071
 BYTE   W06
//  #07 //019   ----------------------------------------
 BYTE   N04  Dn2  v086
 BYTE   W24
 BYTE   Dn2  v085
 BYTE   W36
 BYTE   Dn2  v086
 BYTE   W12
 BYTE   N03
 BYTE   W06
 BYTE   N07  Dn2  v079
 BYTE   W12
 BYTE   N03
 BYTE   W06
//  #07 //020   ----------------------------------------
 BYTE   N04  Ds2  v088
 BYTE   W24
 BYTE   Ds2  v095
 BYTE   W36
 BYTE   Ds2  v088
 BYTE   W12
 BYTE   N01  Ds2  v080
 BYTE   W06
 BYTE   N03  Ds2  v063
 BYTE   W06
 BYTE   N02  Ds2  v077
 BYTE   W06
 BYTE   N03  Ds2  v078
 BYTE   W06
//  #07 //021   ----------------------------------------
 BYTE   Fn2
 BYTE   W24
 BYTE   N04  Fn2  v095
 BYTE   W36
 BYTE   N03  Fn2  v083
 BYTE   W12
 BYTE   N01  Fn2  v059
 BYTE   W06
 BYTE   Fn2  v068
 BYTE   W06
 BYTE   Fn2  v074
 BYTE   W06
 BYTE   N03  Fn2  v057
 BYTE   W06
//  #07 //022   ----------------------------------------
 BYTE   N05  An1  v086
 BYTE   W24
 BYTE   An1
 BYTE   W36
 BYTE   N04  An1  v083
 BYTE   W12
 BYTE   N02  An1  v081
 BYTE   W06
 BYTE   N03  An1  v071
 BYTE   W06
 BYTE   N02  An1  v067
 BYTE   W06
 BYTE   N03  An1  v075
 BYTE   W06
//  #07 //023   ----------------------------------------
 BYTE   N04  Bn1  v083
 BYTE   W24
 BYTE   Bn1  v092
 BYTE   W36
 BYTE   Bn1  v088
 BYTE   W12
 BYTE   N03  Bn1  v085
 BYTE   W06
 BYTE   Bn1  v071
 BYTE   W06
 BYTE   Bn1  v065
 BYTE   W06
 BYTE   Bn1  v073
 BYTE   W06
//  #07 //024   ----------------------------------------
 BYTE   N04  Cn2  v081
 BYTE   W24
 BYTE   Cn2  v088
 BYTE   W36
 BYTE   Cn2  v085
 BYTE   W12
 BYTE   N02  Cn2  v077
 BYTE   W06
 BYTE   N03  Cn2  v073
 BYTE   W06
 BYTE   N04  Cn2  v078
 BYTE   W06
 BYTE   N03  Cn2  v083
 BYTE   W06
//  #07 //025   ----------------------------------------
 BYTE   N04  Dn2  v079
 BYTE   W24
 BYTE   Dn2  v086
 BYTE   W36
 BYTE   Dn2  v085
 BYTE   W12
 BYTE   N03
 BYTE   W06
 BYTE   Dn2  v063
 BYTE   W06
 BYTE   N04  Dn2  v079
 BYTE   W06
 BYTE   N01  Dn2  v083
 BYTE   W06
//  #07 //026   ----------------------------------------
 BYTE   TIE  Ds2  v088
 BYTE   W96
//  #07 //027   ----------------------------------------
 BYTE   N96  Dn2  v085
 BYTE   W01
 BYTE   EOT
 BYTE   Ds2
 BYTE   W92
 BYTE   W03
//  #07 //028   ----------------------------------------
 BYTE   N92  Ds2  v080  gtp3
 BYTE   W96
//  #07 //029   ----------------------------------------
 BYTE   TIE  Dn2  v083
 BYTE   W96
//  #07 //030   ----------------------------------------
 BYTE   N90  Ds2  v078  gtp1
 BYTE   W02
 BYTE   EOT
 BYTE   Dn2
 BYTE   W92
 BYTE   W02
//  #07 //031   ----------------------------------------
 BYTE   N90  Dn2  v081  gtp1
 BYTE   W96
//  #07 //032   ----------------------------------------
 BYTE   TIE  Cs2  v078
 BYTE   W96
//  #07 //033   ----------------------------------------
 BYTE   W72
 BYTE   W01
 BYTE   EOT
 BYTE   W23
//  #07 //034   ----------------------------------------
 BYTE   TIE  Dn2  v079
 BYTE   W96
//  #07 //035   ----------------------------------------
 BYTE   W84
 BYTE   W01
 BYTE   EOT
 BYTE   W11
//  #07 //036   ----------------------------------------
 BYTE   TIE  Cn2  v088
 BYTE   W96
//  #07 //037   ----------------------------------------
 BYTE   W78
 BYTE   EOT
 BYTE   W18
//  #07 //038   ----------------------------------------
 BYTE   TIE  Dn2  v083
 BYTE   W96
//  #07 //039   ----------------------------------------
 BYTE   W92
 BYTE   EOT
 BYTE   W04
//  #07 //040   ----------------------------------------
 BYTE   VOL   127*SuperMario64KoopasRoadMeteorSR23_mvl/mxv
 BYTE   GoTo
  POIN2 Label_01005840
 BYTE   FINE

//**************** Track 8 (Midi-Chn.7) ****************//

SuperMario64KoopasRoadMeteorSR23_008:
//  #08 //000   ----------------------------------------
 BYTE   KEYSH   SuperMario64KoopasRoadMeteorSR23_key+0
 BYTE   VOICE   52
 BYTE   VOL   70*SuperMario64KoopasRoadMeteorSR23_mvl/mxv
 BYTE   BENDR  6
 BYTE   W96
//  #08 //001   ----------------------------------------
 BYTE   W96
//  #08 //002   ----------------------------------------
Label_01005A1E:
 BYTE   W08
 BYTE   PAN   c_v-54
 BYTE   TIE  Dn3  v070
 BYTE   N92  Dn2  v092  gtp3
 BYTE   W88
//  #08 //003   ----------------------------------------
 BYTE   W09
 BYTE   EOT
 BYTE   Dn3
 BYTE   W01
 BYTE   N96  En3
 BYTE   N90  Dn2
 BYTE   W84
 BYTE   W02
//  #08 //004   ----------------------------------------
 BYTE   W08
 BYTE   Dn2  v092
 BYTE   CsM2
 BYTE   W01
 BYTE   TIE  Fn3  v096
 BYTE   W84
 BYTE   W03
//  #08 //005   ----------------------------------------
 BYTE   W08
 BYTE   N92  Dn2  v082
 BYTE   N96  Gn3  v092
 BYTE   W04
 BYTE   EOT
 BYTE   Fn3
 BYTE   W84
//  #08 //006   ----------------------------------------
 BYTE   W08
 BYTE   N90  Dn2  v088  gtp1
 BYTE   W02
 BYTE   Dn3  v100
 BYTE   W84
 BYTE   W02
//  #08 //007   ----------------------------------------
 BYTE   W07
 BYTE   N92  Dn2  v090  gtp1
 BYTE   W01
 BYTE   N96  En3  v100
 BYTE   W88
//  #08 //008   ----------------------------------------
 BYTE   W08
 BYTE   N92  Fn3  v104  gtp2
 BYTE   W01
 BYTE   N90  Dn2  v098
 BYTE   W84
 BYTE   W03
//  #08 //009   ----------------------------------------
 BYTE   W08
 BYTE   N36  Gn3  v102  gtp3
 BYTE   W02
 BYTE   N36  Dn2  v092  gtp1
 BYTE   W84
 BYTE   W02
//  #08 //010   ----------------------------------------
 BYTE   W09
 BYTE   N48  Dn3  v109  gtp1
 BYTE   N90  Dn2  v088  gtp1
 BYTE   W56
 BYTE   N05  Dn3  v104
 BYTE   W13
 BYTE   N06  Fn3  v100
 BYTE   W13
 BYTE   Cn4  v104
 BYTE   W05
//  #08 //011   ----------------------------------------
 BYTE   W08
 BYTE   N90  En2  v088  gtp1
 BYTE   N14  Bn3  v104
 BYTE   W12
 BYTE   N11  Gn3  v100
 BYTE   W13
 BYTE   N92  Dn3  v104  gtp1
 BYTE   W60
 BYTE   W03
//  #08 //012   ----------------------------------------
 BYTE   W08
 BYTE   N90  Fn2  v088  gtp1
 BYTE   W24
 BYTE   N32  Cn3  v106
 BYTE   W32
 BYTE   W03
 BYTE   N10  Dn3  v100
 BYTE   W12
 BYTE   N12  Gn3  v094
 BYTE   W13
 BYTE   N09  Fn3  v100
 BYTE   W04
//  #08 //013   ----------------------------------------
 BYTE   W08
 BYTE   N90  Gn2  v088  gtp1
 BYTE   N92  Gn3  v102
 BYTE   W88
//  #08 //014   ----------------------------------------
 BYTE   W08
 BYTE   N90  Dn2  v088  gtp1
 BYTE   W01
 BYTE   N52  Dn3  v106
 BYTE   W56
 BYTE   W02
 BYTE   N09  Dn3  v102
 BYTE   W12
 BYTE   Fn3  v100
 BYTE   W13
 BYTE   N08  Cn4  v098
 BYTE   W04
//  #08 //015   ----------------------------------------
 BYTE   W08
 BYTE   N11  Bn3  v102
 BYTE   N90  En2  v088  gtp1
 BYTE   W12
 BYTE   N11  Gn3  v100
 BYTE   W12
 BYTE   N32  Dn3  v100  gtp2
 BYTE   W36
 BYTE   W01
 BYTE   N12  Dn3  v102
 BYTE   W13
 BYTE   N06  Fn3
 BYTE   W12
 BYTE   N07  Dn4  v104
 BYTE   W02
//  #08 //016   ----------------------------------------
 BYTE   W08
 BYTE   N90  Fn2  v088  gtp1
 BYTE   W02
 BYTE   N20  Cn4  v102
 BYTE   W24
 BYTE   N56  Bn3  v098  gtp2
 BYTE   W56
 BYTE   W02
 BYTE   N07  An3  v092
 BYTE   W04
//  #08 //017   ----------------------------------------
 BYTE   W07
 BYTE   N88  Bn3  v102  gtp1
 BYTE   W01
 BYTE   N88  Gn2  v088
 BYTE   W88
//  #08 //018   ----------------------------------------
 BYTE   W06
 BYTE   N54  Fn3  v102  gtp1
 BYTE   W02
 BYTE   N90  Fn2  v088  gtp1
 BYTE   W56
 BYTE   W02
 BYTE   N11  Fn3  v096
 BYTE   W13
 BYTE   N10  As3  v091
 BYTE   W14
 BYTE   N07  Ds4  v099
 BYTE   W03
//  #08 //019   ----------------------------------------
 BYTE   W08
 BYTE   N12  Dn4  v098
 BYTE   N90  Gn2  v088  gtp1
 BYTE   W12
 BYTE   N11  As3  v093
 BYTE   W12
 BYTE   N54  Fn3  v100
 BYTE   W60
 BYTE   N08  Ds3  v099
 BYTE   W04
//  #08 //020   ----------------------------------------
 BYTE   W08
 BYTE   N78  Fn3  v096  gtp1
 BYTE   W01
 BYTE   N90  Gs2  v088  gtp1
 BYTE   W84
 BYTE   N10  Gs3  v099
 BYTE   W03
//  #08 //021   ----------------------------------------
 BYTE   W07
 BYTE   N90  As2  v088  gtp1
 BYTE   W01
 BYTE   N80  Fn3  v102  gtp1
 BYTE   W88
//  #08 //022   ----------------------------------------
 BYTE   W08
 BYTE   N90  Dn2  v088  gtp1
 BYTE   N48  Dn3  v104  gtp3
 BYTE   W56
 BYTE   W01
 BYTE   N09  Dn3  v100
 BYTE   W13
 BYTE   N07  Fn3
 BYTE   W12
 BYTE   N06  Cn4
 BYTE   W06
//  #08 //023   ----------------------------------------
 BYTE   W06
 BYTE   N09  Bn3  v098
 BYTE   W02
 BYTE   N90  En2  v088  gtp1
 BYTE   W09
 BYTE   N13  Gn3  v096
 BYTE   W14
 BYTE   N68  Dn3  v104  gtp3
 BYTE   W64
 BYTE   W01
//  #08 //024   ----------------------------------------
 BYTE   W09
 BYTE   N90  Fn2  v088  gtp1
 BYTE   W01
 BYTE   N04  Gn3  v106
 BYTE   W05
 BYTE   N05  Fn3  v098
 BYTE   W07
 BYTE   N78  Gn3
 BYTE   W72
 BYTE   W02
//  #08 //025   ----------------------------------------
 BYTE   W07
 BYTE   N06  Gn3  v092
 BYTE   W01
 BYTE   N90  Gn2  v088  gtp1
 BYTE   W05
 BYTE   N05  Fn3  v096
 BYTE   W05
 BYTE   N80  Gn3  v100  gtp2
 BYTE   W78
//  #08 //026   ----------------------------------------
 BYTE   W07
 BYTE   N44  Cn4  v100  gtp1
 BYTE   N92  Gs2  v102
 BYTE   W48
 BYTE   N42  Gn4  v100  gtp1
 BYTE   W40
 BYTE   W01
//  #08 //027   ----------------------------------------
 BYTE   W08
 BYTE   N84  Gn2  v094  gtp2
 BYTE   W01
 BYTE   N06  Fn4  v109
 BYTE   W23
 BYTE   N60  Dn4  v104  gtp1
 BYTE   W60
 BYTE   W01
 BYTE   N03  Bn3  v088
 BYTE   W03
//  #08 //028   ----------------------------------------
 BYTE   W04
 BYTE   N44  Cn4  v098  gtp3
 BYTE   W02
 BYTE   N88  Gs2  v097
 BYTE   W44
 BYTE   W03
 BYTE   N44  Gn4  v104  gtp3
 BYTE   W42
 BYTE   W01
//  #08 //029   ----------------------------------------
 BYTE   W07
 BYTE   N07  Fn4  v106
 BYTE   W01
 BYTE   N90  Gn2  v098
 BYTE   W22
 BYTE   N48  Dn4  v094
 BYTE   W52
 BYTE   N16  Bn4  v106
 BYTE   W14
//  #08 //030   ----------------------------------------
 BYTE   W07
 BYTE   N42  Cn4  v102  gtp1
 BYTE   W02
 BYTE   N84  Gs2  v097
 BYTE   W44
 BYTE   W02
 BYTE   N36  Gn4  v104  gtp2
 BYTE   W40
 BYTE   W01
//  #08 //031   ----------------------------------------
 BYTE   W07
 BYTE   N07  Fn4  v106
 BYTE   N80  Gn2  v092  gtp2
 BYTE   W48
 BYTE   N36  Dn4  v102  gtp1
 BYTE   W40
 BYTE   W01
//  #08 //032   ----------------------------------------
 BYTE   W07
 BYTE   TIE  Fs2  v093
 BYTE   N05  Ds4  v102
 BYTE   W07
 BYTE   N07  Dn4  v100
 BYTE   W07
 BYTE   TIE  Ds4  v102
 BYTE   W72
 BYTE   W03
//  #08 //033   ----------------------------------------
 BYTE   W56
 BYTE   W01
 BYTE   N36  Cn4  v086
 BYTE   W02
 BYTE   EOT
 BYTE   Ds4
 BYTE   W36
 BYTE   W01
//  #08 //034   ----------------------------------------
 BYTE   W01
 BYTE   Fs2
 BYTE   W08
 BYTE   N06  Dn4  v096
 BYTE   W01
 BYTE   TIE  Gn2  v098
 BYTE   W05
 BYTE   N04  Cn4  v094
 BYTE   W05
 BYTE   TIE  Dn4  v090
 BYTE   W76
//  #08 //035   ----------------------------------------
 BYTE   W78
 BYTE   EOT
 BYTE   Gn2
 BYTE   W05
 BYTE   Dn4
 BYTE   W13
//  #08 //036   ----------------------------------------
 BYTE   W07
 BYTE   N06  Ds4  v097
 BYTE   TIE  Fs2  v095
 BYTE   W05
 BYTE   N06  Dn4  v096
 BYTE   W07
 BYTE   N64  Ds4  v091  gtp1
 BYTE   W76
 BYTE   W01
//  #08 //037   ----------------------------------------
 BYTE   W05
 BYTE   N30  Gs4  v118  gtp1
 BYTE   W48
 BYTE   W02
 BYTE   N36  Ds4  v099  gtp1
 BYTE   W32
 BYTE   W01
 BYTE   EOT
 BYTE   Fs2
 BYTE   W08
//  #08 //038   ----------------------------------------
 BYTE   W07
 BYTE   TIE  Dn4  v098
 BYTE   TIE  Gn2  v092
 BYTE   W88
 BYTE   W01
//  #08 //039   ----------------------------------------
 BYTE   W08
 BYTE   EOT
 BYTE   Dn4
 BYTE   W02
 BYTE   N72  Gn4  v098
 BYTE   W44
 BYTE   EOT
 BYTE   Gn2
 BYTE   W42
//  #08 //040   ----------------------------------------
 BYTE   PAN   c_v+0
 BYTE   GoTo
  POIN2 Label_01005A1E
 BYTE   FINE

//**************** Track 9 (Midi-Chn.8) ****************//

SuperMario64KoopasRoadMeteorSR23_009:
//  #09 //000   ----------------------------------------
 BYTE   KEYSH   SuperMario64KoopasRoadMeteorSR23_key+0
 BYTE   VOICE   127
 BYTE   VOL   110*SuperMario64KoopasRoadMeteorSR23_mvl/mxv
 BYTE   BENDR  6
 BYTE   W96
//  #09 //001   ----------------------------------------
 BYTE   W96
//  #09 //002   ----------------------------------------
Label_010044A6:
 BYTE   W96
//  #09 //003   ----------------------------------------
 BYTE   W96
//  #09 //004   ----------------------------------------
 BYTE   W96
//  #09 //005   ----------------------------------------
 BYTE   W96
//  #09 //006   ----------------------------------------
 BYTE   W96
//  #09 //007   ----------------------------------------
 BYTE   W96
//  #09 //008   ----------------------------------------
 BYTE   W96
//  #09 //009   ----------------------------------------
 BYTE   W48
 BYTE   N01  Fn1  v095
 BYTE   W48
//  #09 //010   ----------------------------------------
 BYTE   W96
//  #09 //011   ----------------------------------------
 BYTE   W96
//  #09 //012   ----------------------------------------
 BYTE   W96
//  #09 //013   ----------------------------------------
 BYTE   W96
//  #09 //014   ----------------------------------------
 BYTE   W96
//  #09 //015   ----------------------------------------
 BYTE   W96
//  #09 //016   ----------------------------------------
 BYTE   W96
//  #09 //017   ----------------------------------------
 BYTE   W96
//  #09 //018   ----------------------------------------
 BYTE   W24
 BYTE   Fn1
 BYTE   W72
//  #09 //019   ----------------------------------------
 BYTE   W96
//  #09 //020   ----------------------------------------
 BYTE   W96
//  #09 //021   ----------------------------------------
 BYTE   W96
//  #09 //022   ----------------------------------------
 BYTE   W96
//  #09 //023   ----------------------------------------
 BYTE   W96
//  #09 //024   ----------------------------------------
 BYTE   W96
//  #09 //025   ----------------------------------------
 BYTE   W96
//  #09 //026   ----------------------------------------
Label_010044C4:
 BYTE   W24
 BYTE   N01  Fn1  v095
 BYTE   W48
 BYTE   Fn1
 BYTE   W24
 BYTE   PEND 
//  #09 //027   ----------------------------------------
 BYTE   PATT
  POIN2 Label_010044C4
//  #09 //028   ----------------------------------------
 BYTE   PATT
  POIN2 Label_010044C4
//  #09 //029   ----------------------------------------
 BYTE   PATT
  POIN2 Label_010044C4
//  #09 //030   ----------------------------------------
 BYTE   PATT
  POIN2 Label_010044C4
//  #09 //031   ----------------------------------------
 BYTE   PATT
  POIN2 Label_010044C4
//  #09 //032   ----------------------------------------
 BYTE   PATT
  POIN2 Label_010044C4
//  #09 //033   ----------------------------------------
 BYTE   PATT
  POIN2 Label_010044C4
//  #09 //034   ----------------------------------------
 BYTE   PATT
  POIN2 Label_010044C4
//  #09 //035   ----------------------------------------
 BYTE   PATT
  POIN2 Label_010044C4
//  #09 //036   ----------------------------------------
 BYTE   PATT
  POIN2 Label_010044C4
//  #09 //037   ----------------------------------------
 BYTE   PATT
  POIN2 Label_010044C4
//  #09 //038   ----------------------------------------
Label_01004503:
 BYTE   W24
 BYTE   N01  Fn1  v079
 BYTE   W48
 BYTE   Fn1
 BYTE   W24
 BYTE   PEND 
//  #09 //039   ----------------------------------------
 BYTE   PATT
  POIN2 Label_01004503
//  #09 //040   ----------------------------------------
 BYTE   GoTo
  POIN2 Label_010044A6
 BYTE   FINE

//**************** Track 10 (Midi-Chn.9) ****************//

SuperMario64KoopasRoadMeteorSR23_010:
//  #10 //000   ----------------------------------------
 BYTE   KEYSH   SuperMario64KoopasRoadMeteorSR23_key+0
 BYTE   VOL   91*SuperMario64KoopasRoadMeteorSR23_mvl/mxv
 BYTE   BENDR  6
 BYTE   W60
 BYTE   VOICE   10
 BYTE   PAN   c_v-4
 BYTE   N01  Dn1  v036
 BYTE   W06
 BYTE   Dn1  v049
 BYTE   W06
 BYTE   Dn1  v095
 BYTE   W06
 BYTE   Dn1  v064
 BYTE   W11
 BYTE   Dn1  v028
 BYTE   W02
 BYTE   Dn1  v036
 BYTE   W02
 BYTE   Dn1  v049
 BYTE   W03
//  #10 //001   ----------------------------------------
Label_01005C9D:
 BYTE   N01  Dn1  v066
 BYTE   W17
 BYTE   Dn1  v028
 BYTE   W02
 BYTE   Dn1  v036
 BYTE   W02
 BYTE   Dn1  v049
 BYTE   W03
 BYTE   Dn1  v066
 BYTE   W17
 BYTE   Dn1  v028
 BYTE   W02
 BYTE   Dn1  v036
 BYTE   W02
 BYTE   Dn1  v049
 BYTE   W03
 BYTE   Dn1  v066
 BYTE   W12
 BYTE   Dn1  v036
 BYTE   W06
 BYTE   Dn1  v049
 BYTE   W06
 BYTE   Dn1  v095
 BYTE   W06
 BYTE   Dn1  v064
 BYTE   W11
 BYTE   Dn1  v028
 BYTE   W02
 BYTE   Dn1  v036
 BYTE   W02
 BYTE   Dn1  v049
 BYTE   W03
 BYTE   PEND 
//  #10 //002   ----------------------------------------
Label_01005CCF:
 BYTE   N01  Dn1  v066
 BYTE   W17
 BYTE   Dn1  v028
 BYTE   W02
 BYTE   Dn1  v036
 BYTE   W02
 BYTE   Dn1  v049
 BYTE   W03
 BYTE   Dn1  v066
 BYTE   W17
 BYTE   Dn1  v028
 BYTE   W02
 BYTE   Dn1  v036
 BYTE   W02
 BYTE   Dn1  v049
 BYTE   W03
 BYTE   Dn1  v066
 BYTE   W12
 BYTE   Dn1  v036
 BYTE   W06
 BYTE   Dn1  v049
 BYTE   W06
 BYTE   Dn1  v095
 BYTE   W06
 BYTE   Dn1  v064
 BYTE   W11
 BYTE   Dn1  v028
 BYTE   W02
 BYTE   Dn1  v036
 BYTE   W02
 BYTE   Dn1  v049
 BYTE   W03
//  #10 //003   ----------------------------------------
 BYTE   PATT
  POIN2 Label_01005C9D
//  #10 //004   ----------------------------------------
 BYTE   PATT
  POIN2 Label_01005C9D
//  #10 //005   ----------------------------------------
 BYTE   PATT
  POIN2 Label_01005C9D
//  #10 //006   ----------------------------------------
 BYTE   PATT
  POIN2 Label_01005C9D
//  #10 //007   ----------------------------------------
 BYTE   PATT
  POIN2 Label_01005C9D
//  #10 //008   ----------------------------------------
 BYTE   PATT
  POIN2 Label_01005C9D
//  #10 //009   ----------------------------------------
 BYTE   N01  Dn1  v060
 BYTE   W12
 BYTE   Dn1  v032
 BYTE   W06
 BYTE   Dn1  v044
 BYTE   W06
 BYTE   Dn1  v086
 BYTE   W06
 BYTE   Dn1  v058
 BYTE   W11
 BYTE   Dn1  v030
 BYTE   W02
 BYTE   Dn1  v038
 BYTE   W02
 BYTE   Dn1  v053
 BYTE   W03
 BYTE   Dn1  v072
 BYTE   W40
 BYTE   W01
 BYTE   Dn1  v025
 BYTE   W02
 BYTE   Dn1  v032
 BYTE   W02
 BYTE   Dn1  v044
 BYTE   W03
//  #10 //010   ----------------------------------------
 BYTE   PATT
  POIN2 Label_01005C9D
//  #10 //011   ----------------------------------------
 BYTE   PATT
  POIN2 Label_01005C9D
//  #10 //012   ----------------------------------------
 BYTE   PATT
  POIN2 Label_01005C9D
//  #10 //013   ----------------------------------------
 BYTE   PATT
  POIN2 Label_01005C9D
//  #10 //014   ----------------------------------------
 BYTE   PATT
  POIN2 Label_01005C9D
//  #10 //015   ----------------------------------------
 BYTE   PATT
  POIN2 Label_01005C9D
//  #10 //016   ----------------------------------------
 BYTE   PATT
  POIN2 Label_01005C9D
//  #10 //017   ----------------------------------------
Label_01005D67:
 BYTE   N01  Dn1  v072
 BYTE   W12
 BYTE   Dn1  v038
 BYTE   W06
 BYTE   Dn1  v030
 BYTE   W06
 BYTE   Dn1  v034
 BYTE   W02
 BYTE   Dn1
 BYTE   W02
 BYTE   Dn1
 BYTE   W02
 BYTE   Dn1  v036
 BYTE   W02
 BYTE   Dn1
 BYTE   W02
 BYTE   Dn1  v037
 BYTE   W02
 BYTE   Dn1
 BYTE   W02
 BYTE   Dn1
 BYTE   W02
 BYTE   Dn1  v038
 BYTE   W02
 BYTE   Dn1  v040
 BYTE   W02
 BYTE   Dn1
 BYTE   W02
 BYTE   Dn1  v041
 BYTE   W02
 BYTE   Dn1
 BYTE   W02
 BYTE   Dn1  v043
 BYTE   W02
 BYTE   Dn1
 BYTE   W02
 BYTE   Dn1  v044
 BYTE   W02
 BYTE   Dn1  v047
 BYTE   W02
 BYTE   Dn1
 BYTE   W02
 BYTE   Dn1  v049
 BYTE   W02
 BYTE   Dn1
 BYTE   W02
 BYTE   Dn1  v052
 BYTE   W02
 BYTE   Dn1  v053
 BYTE   W02
 BYTE   Dn1  v055
 BYTE   W02
 BYTE   Dn1  v058
 BYTE   W02
 BYTE   Dn1  v060
 BYTE   W02
 BYTE   Dn1  v062
 BYTE   W02
 BYTE   Dn1  v064
 BYTE   W02
 BYTE   Dn1  v067
 BYTE   W02
 BYTE   Dn1  v070
 BYTE   W02
 BYTE   Dn1  v072
 BYTE   W02
 BYTE   Dn1  v077
 BYTE   W02
 BYTE   Dn1  v080
 BYTE   W02
 BYTE   Dn1  v085
 BYTE   W02
 BYTE   Dn1  v090
 BYTE   W02
 BYTE   Dn1  v095
 BYTE   W02
 BYTE   Dn1  v103
 BYTE   W02
 BYTE   PEND 
//  #10 //018   ----------------------------------------
 BYTE   PATT
  POIN2 Label_01005C9D
//  #10 //019   ----------------------------------------
 BYTE   PATT
  POIN2 Label_01005C9D
//  #10 //020   ----------------------------------------
 BYTE   PATT
  POIN2 Label_01005C9D
//  #10 //021   ----------------------------------------
 BYTE   PATT
  POIN2 Label_01005C9D
//  #10 //022   ----------------------------------------
 BYTE   PATT
  POIN2 Label_01005C9D
//  #10 //023   ----------------------------------------
 BYTE   PATT
  POIN2 Label_01005C9D
//  #10 //024   ----------------------------------------
 BYTE   PATT
  POIN2 Label_01005C9D
//  #10 //025   ----------------------------------------
 BYTE   PATT
  POIN2 Label_01005D67
//  #10 //026   ----------------------------------------
Label_01005DFC:
 BYTE   N01  Dn1  v109
 BYTE   W17
 BYTE   Dn1  v041
 BYTE   W02
 BYTE   Dn1  v050
 BYTE   W02
 BYTE   Dn1  v070
 BYTE   W03
 BYTE   Dn1  v095
 BYTE   W40
 BYTE   W01
 BYTE   Dn1  v041
 BYTE   W02
 BYTE   Dn1  v050
 BYTE   W02
 BYTE   Dn1  v070
 BYTE   W03
 BYTE   Dn1  v095
 BYTE   W24
 BYTE   PEND 
//  #10 //027   ----------------------------------------
 BYTE   PATT
  POIN2 Label_01005D67
//  #10 //028   ----------------------------------------
 BYTE   PATT
  POIN2 Label_01005DFC
//  #10 //029   ----------------------------------------
 BYTE   PATT
  POIN2 Label_01005D67
//  #10 //030   ----------------------------------------
 BYTE   PATT
  POIN2 Label_01005DFC
//  #10 //031   ----------------------------------------
 BYTE   PATT
  POIN2 Label_01005D67
//  #10 //032   ----------------------------------------
 BYTE   PATT
  POIN2 Label_01005C9D
//  #10 //033   ----------------------------------------
 BYTE   PATT
  POIN2 Label_01005C9D
//  #10 //034   ----------------------------------------
 BYTE   PATT
  POIN2 Label_01005C9D
//  #10 //035   ----------------------------------------
 BYTE   PATT
  POIN2 Label_01005C9D
//  #10 //036   ----------------------------------------
 BYTE   PATT
  POIN2 Label_01005C9D
//  #10 //037   ----------------------------------------
 BYTE   PATT
  POIN2 Label_01005C9D
//  #10 //038   ----------------------------------------
 BYTE   W17
 BYTE   N01  Dn1  v034
 BYTE   W02
 BYTE   Dn1  v042
 BYTE   W02
 BYTE   Dn1  v058
 BYTE   W03
 BYTE   Dn1  v079
 BYTE   W40
 BYTE   W01
 BYTE   Dn1  v034
 BYTE   W02
 BYTE   Dn1  v042
 BYTE   W02
 BYTE   Dn1  v058
 BYTE   W03
 BYTE   Dn1  v079
 BYTE   W24
//  #10 //039   ----------------------------------------
 BYTE   PATT
  POIN2 Label_01005D67
//  #10 //040   ----------------------------------------
 BYTE   GoTo
  POIN2 Label_01005CCF
 BYTE   FINE

//**************** Track 11 (Midi-Chn.10) ****************//

SuperMario64KoopasRoadMeteorSR23_011:
//  #11 //000   ----------------------------------------
 BYTE   KEYSH   SuperMario64KoopasRoadMeteorSR23_key+0
 BYTE   VOICE   100
 BYTE   VOL   113*SuperMario64KoopasRoadMeteorSR23_mvl/mxv
 BYTE   BENDR  6
 BYTE   W96
//  #11 //001   ----------------------------------------
 BYTE   W96
//  #11 //002   ----------------------------------------
Label_01004BAA:
 BYTE   W96
//  #11 //003   ----------------------------------------
 BYTE   W96
//  #11 //004   ----------------------------------------
 BYTE   W96
//  #11 //005   ----------------------------------------
 BYTE   W96
//  #11 //006   ----------------------------------------
 BYTE   W96
//  #11 //007   ----------------------------------------
 BYTE   W96
//  #11 //008   ----------------------------------------
 BYTE   W96
//  #11 //009   ----------------------------------------
 BYTE   W96
//  #11 //010   ----------------------------------------
 BYTE   W96
//  #11 //011   ----------------------------------------
 BYTE   W96
//  #11 //012   ----------------------------------------
 BYTE   W96
//  #11 //013   ----------------------------------------
 BYTE   W96
//  #11 //014   ----------------------------------------
 BYTE   W96
//  #11 //015   ----------------------------------------
 BYTE   W96
//  #11 //016   ----------------------------------------
 BYTE   W96
//  #11 //017   ----------------------------------------
 BYTE   W96
//  #11 //018   ----------------------------------------
 BYTE   PAN   c_v-44
 BYTE   N01  Cs2  v092
 BYTE   W96
//  #11 //019   ----------------------------------------
 BYTE   W96
//  #11 //020   ----------------------------------------
 BYTE   W96
//  #11 //021   ----------------------------------------
 BYTE   W96
//  #11 //022   ----------------------------------------
 BYTE   W96
//  #11 //023   ----------------------------------------
 BYTE   W96
//  #11 //024   ----------------------------------------
 BYTE   W96
//  #11 //025   ----------------------------------------
 BYTE   W96
//  #11 //026   ----------------------------------------
Label_01004BC7:
 BYTE   N01  Cs2  v092
 BYTE   W48
 BYTE   Cs2
 BYTE   W48
 BYTE   PEND 
//  #11 //027   ----------------------------------------
 BYTE   Cs2
 BYTE   W96
//  #11 //028   ----------------------------------------
 BYTE   PATT
  POIN2 Label_01004BC7
//  #11 //029   ----------------------------------------
 BYTE   N01  Cs2  v092
 BYTE   W96
//  #11 //030   ----------------------------------------
 BYTE   PATT
  POIN2 Label_01004BC7
//  #11 //031   ----------------------------------------
 BYTE   N01  Cs2  v092
 BYTE   W96
//  #11 //032   ----------------------------------------
 BYTE   Cs2
 BYTE   W96
//  #11 //033   ----------------------------------------
 BYTE   W96
//  #11 //034   ----------------------------------------
 BYTE   W96
//  #11 //035   ----------------------------------------
 BYTE   W96
//  #11 //036   ----------------------------------------
 BYTE   W96
//  #11 //037   ----------------------------------------
 BYTE   W96
//  #11 //038   ----------------------------------------
Label_01004BE9:
 BYTE   N01  Cs2  v077
 BYTE   W48
 BYTE   Cs2
 BYTE   W48
 BYTE   PEND 
//  #11 //039   ----------------------------------------
 BYTE   PATT
  POIN2 Label_01004BE9
//  #11 //040   ----------------------------------------
 BYTE   PAN   c_v+0
 BYTE   GoTo
  POIN2 Label_01004BAA
 BYTE   FINE

//**************** Track 12 (Midi-Chn.11) ****************//

SuperMario64KoopasRoadMeteorSR23_012:
//  #12 //000   ----------------------------------------
 BYTE   KEYSH   SuperMario64KoopasRoadMeteorSR23_key+0
 BYTE   VOICE   13
 BYTE   VOL   118*SuperMario64KoopasRoadMeteorSR23_mvl/mxv
 BYTE   BENDR  6
 BYTE   W96
//  #12 //001   ----------------------------------------
 BYTE   W72
 BYTE   PAN   c_v-28
 BYTE   N01  Fn1  v114
 BYTE   W06
 BYTE   Fn1  v102
 BYTE   W18
//  #12 //002   ----------------------------------------
Label_01005693:
 BYTE   N02  Fn1  v103
 BYTE   W72
 BYTE   N01  Fn1  v114
 BYTE   W06
 BYTE   N02  Fn1  v102
 BYTE   W18
//  #12 //003   ----------------------------------------
Label_0100569F:
 BYTE   N02  Fn1  v103
 BYTE   W72
 BYTE   N01  Fn1  v114
 BYTE   W06
 BYTE   N02  Fn1  v102
 BYTE   W18
 BYTE   PEND 
//  #12 //004   ----------------------------------------
 BYTE   PATT
  POIN2 Label_0100569F
//  #12 //005   ----------------------------------------
 BYTE   PATT
  POIN2 Label_0100569F
//  #12 //006   ----------------------------------------
 BYTE   PATT
  POIN2 Label_0100569F
//  #12 //007   ----------------------------------------
 BYTE   PATT
  POIN2 Label_0100569F
//  #12 //008   ----------------------------------------
 BYTE   PATT
  POIN2 Label_0100569F
//  #12 //009   ----------------------------------------
 BYTE   N01  Fn1  v086
 BYTE   W24
 BYTE   Fn1  v095
 BYTE   W06
 BYTE   N02  Fn1  v085
 BYTE   W18
 BYTE   N01  Fn1  v095
 BYTE   W48
//  #12 //010   ----------------------------------------
 BYTE   PATT
  POIN2 Label_0100569F
//  #12 //011   ----------------------------------------
 BYTE   PATT
  POIN2 Label_0100569F
//  #12 //012   ----------------------------------------
 BYTE   PATT
  POIN2 Label_0100569F
//  #12 //013   ----------------------------------------
 BYTE   PATT
  POIN2 Label_0100569F
//  #12 //014   ----------------------------------------
 BYTE   PATT
  POIN2 Label_0100569F
//  #12 //015   ----------------------------------------
 BYTE   PATT
  POIN2 Label_0100569F
//  #12 //016   ----------------------------------------
 BYTE   PATT
  POIN2 Label_0100569F
//  #12 //017   ----------------------------------------
Label_010056F7:
 BYTE   N01  Fs1  v103
 BYTE   W24
 BYTE   Fs1  v114
 BYTE   W06
 BYTE   N02  Fs1  v102
 BYTE   W18
 BYTE   N01  Fs1  v114
 BYTE   W48
 BYTE   PEND 
//  #12 //018   ----------------------------------------
 BYTE   PATT
  POIN2 Label_0100569F
//  #12 //019   ----------------------------------------
 BYTE   PATT
  POIN2 Label_0100569F
//  #12 //020   ----------------------------------------
 BYTE   PATT
  POIN2 Label_0100569F
//  #12 //021   ----------------------------------------
 BYTE   PATT
  POIN2 Label_0100569F
//  #12 //022   ----------------------------------------
 BYTE   PATT
  POIN2 Label_0100569F
//  #12 //023   ----------------------------------------
 BYTE   PATT
  POIN2 Label_0100569F
//  #12 //024   ----------------------------------------
 BYTE   PATT
  POIN2 Label_0100569F
//  #12 //025   ----------------------------------------
Label_0100572A:
 BYTE   N01  Fs1  v103
 BYTE   W24
 BYTE   Fs1  v114
 BYTE   W06
 BYTE   N02  Fs1  v102
 BYTE   W18
 BYTE   Fs1  v114
 BYTE   W48
 BYTE   PEND 
//  #12 //026   ----------------------------------------
Label_01005739:
 BYTE   W24
 BYTE   N01  Cn2  v127
 BYTE   W48
 BYTE   Cn2
 BYTE   W24
 BYTE   PEND 
//  #12 //027   ----------------------------------------
 BYTE   PATT
  POIN2 Label_0100572A
//  #12 //028   ----------------------------------------
 BYTE   PATT
  POIN2 Label_01005739
//  #12 //029   ----------------------------------------
 BYTE   PATT
  POIN2 Label_0100572A
//  #12 //030   ----------------------------------------
 BYTE   PATT
  POIN2 Label_01005739
//  #12 //031   ----------------------------------------
 BYTE   PATT
  POIN2 Label_010056F7
//  #12 //032   ----------------------------------------
 BYTE   PATT
  POIN2 Label_0100569F
//  #12 //033   ----------------------------------------
 BYTE   PATT
  POIN2 Label_0100569F
//  #12 //034   ----------------------------------------
 BYTE   PATT
  POIN2 Label_0100569F
//  #12 //035   ----------------------------------------
 BYTE   PATT
  POIN2 Label_0100569F
//  #12 //036   ----------------------------------------
 BYTE   PATT
  POIN2 Label_0100569F
//  #12 //037   ----------------------------------------
 BYTE   PATT
  POIN2 Label_0100569F
//  #12 //038   ----------------------------------------
 BYTE   W24
 BYTE   N01  Cn2  v121
 BYTE   W48
 BYTE   Cn2
 BYTE   W24
//  #12 //039   ----------------------------------------
 BYTE   W24
 BYTE   Cn2  v124
 BYTE   W48
 BYTE   Cn2
 BYTE   W24
//  #12 //040   ----------------------------------------
 BYTE   GoTo
  POIN2 Label_01005693
 BYTE   FINE

//******************************************************//
	ALIGN 4

SuperMario64KoopasRoadMeteorSR23:
	BYTE	12	// NumTrks
	BYTE	0	// NumBlks
	BYTE	SuperMario64KoopasRoadMeteorSR23_pri	// Priority
	BYTE	SuperMario64KoopasRoadMeteorSR23_rev	// Reverb.
    
	POIN2	SuperMario64KoopasRoadMeteorSR23_grp
    
	POIN2	SuperMario64KoopasRoadMeteorSR23_001
	POIN2	SuperMario64KoopasRoadMeteorSR23_002
	POIN2	SuperMario64KoopasRoadMeteorSR23_003
	POIN2	SuperMario64KoopasRoadMeteorSR23_004
	POIN2	SuperMario64KoopasRoadMeteorSR23_005
	POIN2	SuperMario64KoopasRoadMeteorSR23_006
	POIN2	SuperMario64KoopasRoadMeteorSR23_007
	POIN2	SuperMario64KoopasRoadMeteorSR23_008
	POIN2	SuperMario64KoopasRoadMeteorSR23_009
	POIN2	SuperMario64KoopasRoadMeteorSR23_010
	POIN2	SuperMario64KoopasRoadMeteorSR23_011
	POIN2	SuperMario64KoopasRoadMeteorSR23_012

	
