//Event file generated from Sappy .s format.
	#include "MPlayDef.event"

	#define	BanjoTooieWumbasWigwamPandan_grp  voicegroup000
	#define	BanjoTooieWumbasWigwamPandan_pri  10
	#define	BanjoTooieWumbasWigwamPandan_rev  0
	#define	BanjoTooieWumbasWigwamPandan_mvl  127
	#define	BanjoTooieWumbasWigwamPandan_key  0
	#define	BanjoTooieWumbasWigwamPandan_tbs  1
	#define	BanjoTooieWumbasWigwamPandan_exg  0
	#define	BanjoTooieWumbasWigwamPandan_cmp  1

	// .rodata
	//	BanjoTooieWumbasWigwamPandan
	ALIGN 4


//**************** Track 1 (Midi-Chn.0) ****************//

BanjoTooieWumbasWigwamPandan_001:
// 000   ----------------------------------------
Label_0_011F441C:
 BYTE   VOL   10*BanjoTooieWumbasWigwamPandan_mvl/mxv
 BYTE   KEYSH   BanjoTooieWumbasWigwamPandan_key+0
 BYTE   VOICE   121
 BYTE   N12  An4  v100
 BYTE   N12  Bn3
 BYTE   TEMPO   116*BanjoTooieWumbasWigwamPandan_tbs/2
 BYTE   W12
 BYTE   N12  An3  v100
 BYTE   W12
 BYTE   An4
 BYTE   N12  An3
 BYTE   W12
 BYTE   An4
 BYTE   N12  An3
 BYTE   W12
 BYTE   Bn3
 BYTE   W12
 BYTE   An4
 BYTE   N12  An3
 BYTE   W12
 BYTE   An3
 BYTE   W12
 BYTE   An3
 BYTE   W12
// 001   ----------------------------------------
Label_0_011F4440:
 BYTE   N12  An4  v100
 BYTE   N12  Bn3
 BYTE   W12
 BYTE   An3
 BYTE   W12
 BYTE   An4
 BYTE   N12  An3
 BYTE   W12
 BYTE   An4
 BYTE   N12  An3
 BYTE   W12
 BYTE   Bn3
 BYTE   W12
 BYTE   An4
 BYTE   N12  An3
 BYTE   W12
 BYTE   An3
 BYTE   W12
 BYTE   An3
 BYTE   W12
 BYTE   PEND 
 BYTE   PATT
  POIN2 Label_0_011F4440
 BYTE   PATT
  POIN2 Label_0_011F4440
 BYTE   PATT
  POIN2 Label_0_011F4440
 BYTE   PATT
  POIN2 Label_0_011F4440
 BYTE   PATT
  POIN2 Label_0_011F4440
 BYTE   PATT
  POIN2 Label_0_011F4440
 BYTE   PATT
  POIN2 Label_0_011F4440
 BYTE   PATT
  POIN2 Label_0_011F4440
 BYTE   PATT
  POIN2 Label_0_011F4440
 BYTE   PATT
  POIN2 Label_0_011F4440
 BYTE   PATT
  POIN2 Label_0_011F4440
 BYTE   PATT
  POIN2 Label_0_011F4440
 BYTE   PATT
  POIN2 Label_0_011F4440
 BYTE   PATT
  POIN2 Label_0_011F4440
 BYTE   PATT
  POIN2 Label_0_011F4440
 BYTE   PATT
  POIN2 Label_0_011F4440
 BYTE   PATT
  POIN2 Label_0_011F4440
 BYTE   PATT
  POIN2 Label_0_011F4440
 BYTE   PATT
  POIN2 Label_0_011F4440
 BYTE   PATT
  POIN2 Label_0_011F4440
 BYTE   PATT
  POIN2 Label_0_011F4440
 BYTE   PATT
  POIN2 Label_0_011F4440
 BYTE   PATT
  POIN2 Label_0_011F4440
 BYTE   PATT
  POIN2 Label_0_011F4440
 BYTE   PATT
  POIN2 Label_0_011F4440
 BYTE   PATT
  POIN2 Label_0_011F4440
 BYTE   PATT
  POIN2 Label_0_011F4440
 BYTE   PATT
  POIN2 Label_0_011F4440
 BYTE   PATT
  POIN2 Label_0_011F4440
 BYTE   PATT
  POIN2 Label_0_011F4440
 BYTE   PATT
  POIN2 Label_0_011F4440
 BYTE   PATT
  POIN2 Label_0_011F4440
 BYTE   PATT
  POIN2 Label_0_011F4440
 BYTE   PATT
  POIN2 Label_0_011F4440
 BYTE   PATT
  POIN2 Label_0_011F4440
 BYTE   PATT
  POIN2 Label_0_011F4440
 BYTE   PATT
  POIN2 Label_0_011F4440
 BYTE   PATT
  POIN2 Label_0_011F4440
 BYTE   PATT
  POIN2 Label_0_011F4440
 BYTE   PATT
  POIN2 Label_0_011F4440
 BYTE   PATT
  POIN2 Label_0_011F4440
 BYTE   PATT
  POIN2 Label_0_011F4440
 BYTE   PATT
  POIN2 Label_0_011F4440
 BYTE   PATT
  POIN2 Label_0_011F4440
 BYTE   PATT
  POIN2 Label_0_011F4440
 BYTE   PATT
  POIN2 Label_0_011F4440
 BYTE   PATT
  POIN2 Label_0_011F4440
 BYTE   PATT
  POIN2 Label_0_011F4440
 BYTE   PATT
  POIN2 Label_0_011F4440
 BYTE   PATT
  POIN2 Label_0_011F4440
 BYTE   PATT
  POIN2 Label_0_011F4440
 BYTE   PATT
  POIN2 Label_0_011F4440
 BYTE   PATT
  POIN2 Label_0_011F4440
 BYTE   PATT
  POIN2 Label_0_011F4440
 BYTE   PATT
  POIN2 Label_0_011F4440
 BYTE   PATT
  POIN2 Label_0_011F4440
 BYTE   PATT
  POIN2 Label_0_011F4440
 BYTE   PATT
  POIN2 Label_0_011F4440
 BYTE   PATT
  POIN2 Label_0_011F4440
 BYTE   PATT
  POIN2 Label_0_011F4440
 BYTE   PATT
  POIN2 Label_0_011F4440
 BYTE   PATT
  POIN2 Label_0_011F4440
 BYTE   PATT
  POIN2 Label_0_011F4440
 BYTE   PATT
  POIN2 Label_0_011F4440
 BYTE   PATT
  POIN2 Label_0_011F4440
 BYTE   PATT
  POIN2 Label_0_011F4440
 BYTE   PATT
  POIN2 Label_0_011F4440
 BYTE   PATT
  POIN2 Label_0_011F4440
 BYTE   PATT
  POIN2 Label_0_011F4440
// 002   ----------------------------------------
 BYTE   N12  An4  v100
 BYTE   N12  Bn3
 BYTE   W12
 BYTE   An3
 BYTE   W12
 BYTE   An4
 BYTE   N12  An3
 BYTE   W12
 BYTE   An4
 BYTE   N12  An3
 BYTE   W12
 BYTE   Bn3
 BYTE   W12
 BYTE   An4
 BYTE   N12  An3
 BYTE   W12
 BYTE   An3
 BYTE   W12
 BYTE   N12  An3  v100
 BYTE   W12
// 003   ----------------------------------------
 BYTE   GoTo
  POIN2 Label_0_011F441C
 BYTE   FINE

//**************** Track 2 (Midi-Chn.1) ****************//

BanjoTooieWumbasWigwamPandan_002:
// 000   ----------------------------------------
Label_1_011F45D8:
 BYTE   KEYSH   BanjoTooieWumbasWigwamPandan_key+0
 BYTE   VOICE   75
 BYTE   VOL   42*BanjoTooieWumbasWigwamPandan_mvl/mxv
 BYTE   TEMPO   116*BanjoTooieWumbasWigwamPandan_tbs/2
 BYTE   W96
// 001   ----------------------------------------
 BYTE   W96
// 002   ----------------------------------------
Label_1_011F45E2:
 BYTE   N18  Gn4  v100
 BYTE   N18  Cn5
 BYTE   W24
 BYTE   N12  Gn4
 BYTE   N12  Cn5
 BYTE   W12
 BYTE   Fn4
 BYTE   N12  As4
 BYTE   W12
 BYTE   N18  Gn4
 BYTE   N18  Cn5
 BYTE   W24
 BYTE   N12  Gn4
 BYTE   N12  Cn5
 BYTE   W12
 BYTE   Fn4
 BYTE   N12  As4
 BYTE   W12
 BYTE   PEND 
// 003   ----------------------------------------
Label_1_011F4600:
 BYTE   N12  Gn4  v100
 BYTE   N12  Cn5
 BYTE   W12
 BYTE   Fn4
 BYTE   N12  As4
 BYTE   W12
 BYTE   Dn4
 BYTE   N12  Gn4
 BYTE   W24
 BYTE   N24  Dn4
 BYTE   N24  Gn4
 BYTE   W48
 BYTE   PEND 
// 004   ----------------------------------------
Label_1_011F4614:
 BYTE   N18  Fn4  v100
 BYTE   N18  As4
 BYTE   W24
 BYTE   N12  Fn4
 BYTE   N12  As4
 BYTE   W12
 BYTE   Ds4
 BYTE   N12  Gs4
 BYTE   W12
 BYTE   N18  Fn4
 BYTE   N18  As4
 BYTE   W24
 BYTE   N12  Fn4
 BYTE   N12  As4
 BYTE   W12
 BYTE   Ds4
 BYTE   N12  Gs4
 BYTE   W12
 BYTE   PEND 
// 005   ----------------------------------------
Label_1_011F4632:
 BYTE   N12  Fn4  v100
 BYTE   N12  As4
 BYTE   W12
 BYTE   Ds4
 BYTE   N12  Gs4
 BYTE   W12
 BYTE   Cn4
 BYTE   N12  Fn4
 BYTE   W24
 BYTE   N24  Cn4
 BYTE   N24  Fn4
 BYTE   W48
 BYTE   PEND 
// 006   ----------------------------------------
Label_1_011F4646:
 BYTE   N18  Dn4  v100
 BYTE   N18  Gn4
 BYTE   W24
 BYTE   N12  Dn4
 BYTE   N12  Gn4
 BYTE   W12
 BYTE   Cn4
 BYTE   N12  Fn4
 BYTE   W12
 BYTE   N18  Dn4
 BYTE   N18  Gn4
 BYTE   W24
 BYTE   N12  Dn4
 BYTE   N12  Gn4
 BYTE   W12
 BYTE   Cn4
 BYTE   N12  Fn4
 BYTE   W12
 BYTE   PEND 
// 007   ----------------------------------------
Label_1_011F4664:
 BYTE   N12  Dn4  v100
 BYTE   N12  Gn4
 BYTE   W12
 BYTE   Fn4
 BYTE   N12  As4
 BYTE   W12
 BYTE   Dn4
 BYTE   N12  Gn4
 BYTE   W12
 BYTE   Cn4
 BYTE   N12  Fn4
 BYTE   W12
 BYTE   N24  Dn4
 BYTE   N24  Gn4
 BYTE   W48
 BYTE   PEND 
// 008   ----------------------------------------
Label_1_011F467C:
 BYTE   N18  Fn4  v100
 BYTE   N18  Cn4
 BYTE   W24
 BYTE   N12
 BYTE   N12  Fn4
 BYTE   W12
 BYTE   As3
 BYTE   N12  Ds4
 BYTE   W12
 BYTE   Cn4
 BYTE   N12  Fn4
 BYTE   W12
 BYTE   As3
 BYTE   N12  Ds4
 BYTE   W12
 BYTE   Cn4
 BYTE   N12  Fn4
 BYTE   W12
 BYTE   Ds4
 BYTE   N12  Gs4
 BYTE   W12
 BYTE   PEND 
// 009   ----------------------------------------
Label_1_011F469B:
 BYTE   N18  As4  v100
 BYTE   N18  Fn4
 BYTE   W24
 BYTE   N12
 BYTE   N12  As4
 BYTE   W12
 BYTE   Ds4
 BYTE   N12  Gs4
 BYTE   W12
 BYTE   Fn4
 BYTE   N12  As4
 BYTE   W12
 BYTE   Ds4
 BYTE   N12  Gs4
 BYTE   W12
 BYTE   Fn4
 BYTE   N12  As4
 BYTE   W12
 BYTE   Gn4
 BYTE   N12  Cn5
 BYTE   W12
 BYTE   PEND 
// 010   ----------------------------------------
Label_1_011F46BA:
 BYTE   N18  Cn5  v100
 BYTE   N18  Gn4
 BYTE   W24
 BYTE   N12
 BYTE   N12  Cn5
 BYTE   W12
 BYTE   Fn4
 BYTE   N12  As4
 BYTE   W12
 BYTE   N18  Cn5
 BYTE   N18  Gn4
 BYTE   W24
 BYTE   N12
 BYTE   N12  Cn5
 BYTE   W12
 BYTE   Fn4
 BYTE   N12  As4
 BYTE   W12
 BYTE   PEND 
// 011   ----------------------------------------
Label_1_011F46D6:
 BYTE   N12  Gn4  v100
 BYTE   N12  Cn5
 BYTE   W12
 BYTE   As4
 BYTE   N12  Ds5
 BYTE   W12
 BYTE   Gn4
 BYTE   N12  Cn5
 BYTE   W12
 BYTE   Fn4
 BYTE   N12  As4
 BYTE   W12
 BYTE   N24  Gn4
 BYTE   N24  Cn5
 BYTE   W96
// 012   ----------------------------------------
 BYTE   W96
// 013   ----------------------------------------
 BYTE   W48
 BYTE   PEND 
 BYTE   PATT
  POIN2 Label_1_011F45E2
 BYTE   PATT
  POIN2 Label_1_011F4600
 BYTE   PATT
  POIN2 Label_1_011F4614
 BYTE   PATT
  POIN2 Label_1_011F4632
 BYTE   PATT
  POIN2 Label_1_011F4646
 BYTE   PATT
  POIN2 Label_1_011F4664
 BYTE   PATT
  POIN2 Label_1_011F467C
 BYTE   PATT
  POIN2 Label_1_011F469B
 BYTE   PATT
  POIN2 Label_1_011F46BA
 BYTE   PATT
  POIN2 Label_1_011F46D6
 BYTE   PATT
  POIN2 Label_1_011F45E2
 BYTE   PATT
  POIN2 Label_1_011F4600
 BYTE   PATT
  POIN2 Label_1_011F4614
 BYTE   PATT
  POIN2 Label_1_011F4632
 BYTE   PATT
  POIN2 Label_1_011F4646
 BYTE   PATT
  POIN2 Label_1_011F4664
 BYTE   PATT
  POIN2 Label_1_011F467C
 BYTE   PATT
  POIN2 Label_1_011F469B
 BYTE   PATT
  POIN2 Label_1_011F46BA
 BYTE   PATT
  POIN2 Label_1_011F46D6
 BYTE   PATT
  POIN2 Label_1_011F45E2
 BYTE   PATT
  POIN2 Label_1_011F4600
 BYTE   PATT
  POIN2 Label_1_011F4614
 BYTE   PATT
  POIN2 Label_1_011F4632
 BYTE   PATT
  POIN2 Label_1_011F4646
 BYTE   PATT
  POIN2 Label_1_011F4664
 BYTE   PATT
  POIN2 Label_1_011F467C
 BYTE   PATT
  POIN2 Label_1_011F469B
 BYTE   PATT
  POIN2 Label_1_011F46BA
 BYTE   PATT
  POIN2 Label_1_011F46D6
 BYTE   PATT
  POIN2 Label_1_011F45E2
 BYTE   PATT
  POIN2 Label_1_011F4600
 BYTE   PATT
  POIN2 Label_1_011F4614
 BYTE   PATT
  POIN2 Label_1_011F4632
 BYTE   PATT
  POIN2 Label_1_011F4646
 BYTE   PATT
  POIN2 Label_1_011F4664
 BYTE   PATT
  POIN2 Label_1_011F467C
 BYTE   PATT
  POIN2 Label_1_011F469B
 BYTE   PATT
  POIN2 Label_1_011F46BA
 BYTE   PATT
  POIN2 Label_1_011F46D6
 BYTE   PATT
  POIN2 Label_1_011F45E2
 BYTE   PATT
  POIN2 Label_1_011F4600
 BYTE   PATT
  POIN2 Label_1_011F4614
 BYTE   PATT
  POIN2 Label_1_011F4632
 BYTE   PATT
  POIN2 Label_1_011F4646
 BYTE   PATT
  POIN2 Label_1_011F4664
 BYTE   PATT
  POIN2 Label_1_011F467C
 BYTE   PATT
  POIN2 Label_1_011F469B
 BYTE   PATT
  POIN2 Label_1_011F46BA
// 014   ----------------------------------------
 BYTE   N12  Gn4  v100
 BYTE   N12  Cn5
 BYTE   W12
 BYTE   As4
 BYTE   N12  Ds5
 BYTE   W12
 BYTE   Gn4
 BYTE   N12  Cn5
 BYTE   W12
 BYTE   Fn4
 BYTE   N12  As4
 BYTE   W12
 BYTE   N24  Gn4
 BYTE   N24  Cn5
 BYTE   W24
 BYTE   W24
// 015   ----------------------------------------
 BYTE   GoTo
  POIN2 Label_1_011F45D8
 BYTE   FINE

//**************** Track 3 (Midi-Chn.2) ****************//

BanjoTooieWumbasWigwamPandan_003:
// 000   ----------------------------------------
Label_2_011F4804:
 BYTE   KEYSH   BanjoTooieWumbasWigwamPandan_key+0
 BYTE   VOICE   75
 BYTE   VOL   42*BanjoTooieWumbasWigwamPandan_mvl/mxv
 BYTE   TEMPO   116*BanjoTooieWumbasWigwamPandan_tbs/2
 BYTE   W96
// 001   ----------------------------------------
 BYTE   W96
// 002   ----------------------------------------
 BYTE   W96
// 003   ----------------------------------------
 BYTE   W96
// 004   ----------------------------------------
 BYTE   W96
// 005   ----------------------------------------
 BYTE   W96
// 006   ----------------------------------------
 BYTE   W96
// 007   ----------------------------------------
 BYTE   W96
// 008   ----------------------------------------
 BYTE   W96
// 009   ----------------------------------------
 BYTE   W96
// 010   ----------------------------------------
 BYTE   W96
// 011   ----------------------------------------
 BYTE   W96
// 012   ----------------------------------------
Label_2_011F4818:
 BYTE   N24  Cn1  v100
 BYTE   W48
 BYTE   Gn0
 BYTE   W48
 BYTE   PEND 
// 013   ----------------------------------------
Label_2_011F481F:
 BYTE   N24  Cn1  v100
 BYTE   W48
 BYTE   Gn0
 BYTE   W24
 BYTE   As0
 BYTE   W24
 BYTE   PEND 
 BYTE   PATT
  POIN2 Label_2_011F4818
// 014   ----------------------------------------
Label_2_011F482D:
 BYTE   N24  Cn1  v100
 BYTE   W48
 BYTE   N18  Gn0
 BYTE   W24
 BYTE   N24  Cn1
 BYTE   W24
 BYTE   PEND 
// 015   ----------------------------------------
Label_2_011F4838:
 BYTE   N24  As0  v100
 BYTE   W48
 BYTE   Fn0
 BYTE   W48
 BYTE   PEND 
// 016   ----------------------------------------
Label_2_011F483F:
 BYTE   N24  As0  v100
 BYTE   W48
 BYTE   N18  Fn0
 BYTE   W24
 BYTE   N24  As0
 BYTE   W24
 BYTE   PEND 
// 017   ----------------------------------------
Label_2_011F484A:
 BYTE   N24  Gn0  v100
 BYTE   W48
 BYTE   Gn0
 BYTE   W48
 BYTE   PEND 
// 018   ----------------------------------------
Label_2_011F4851:
 BYTE   N24  Gn0  v100
 BYTE   W48
 BYTE   Gn0
 BYTE   W24
 BYTE   Fs0
 BYTE   W24
 BYTE   PEND 
// 019   ----------------------------------------
Label_2_011F485A:
 BYTE   N24  Fn0  v100
 BYTE   W48
 BYTE   Fn0
 BYTE   W48
 BYTE   PEND 
// 020   ----------------------------------------
Label_2_011F4861:
 BYTE   N24  As0  v100
 BYTE   W48
 BYTE   As0
 BYTE   W24
 BYTE   Gn0
 BYTE   W24
 BYTE   PEND 
 BYTE   PATT
  POIN2 Label_2_011F4818
// 021   ----------------------------------------
Label_2_011F486F:
 BYTE   N18  Cn1  v100
 BYTE   W24
 BYTE   Gn0
 BYTE   W24
 BYTE   N24  Cn1
 BYTE   W96
// 022   ----------------------------------------
 BYTE   W96
// 023   ----------------------------------------
 BYTE   W96
// 024   ----------------------------------------
 BYTE   W96
// 025   ----------------------------------------
 BYTE   W96
// 026   ----------------------------------------
 BYTE   W96
// 027   ----------------------------------------
 BYTE   W96
// 028   ----------------------------------------
 BYTE   W96
// 029   ----------------------------------------
 BYTE   W96
// 030   ----------------------------------------
 BYTE   W96
// 031   ----------------------------------------
 BYTE   W96
// 032   ----------------------------------------
 BYTE   W96
// 033   ----------------------------------------
 BYTE   W48
 BYTE   PEND 
 BYTE   PATT
  POIN2 Label_2_011F4818
 BYTE   PATT
  POIN2 Label_2_011F481F
 BYTE   PATT
  POIN2 Label_2_011F4818
 BYTE   PATT
  POIN2 Label_2_011F482D
 BYTE   PATT
  POIN2 Label_2_011F4838
 BYTE   PATT
  POIN2 Label_2_011F483F
 BYTE   PATT
  POIN2 Label_2_011F484A
 BYTE   PATT
  POIN2 Label_2_011F4851
 BYTE   PATT
  POIN2 Label_2_011F485A
 BYTE   PATT
  POIN2 Label_2_011F4861
 BYTE   PATT
  POIN2 Label_2_011F4818
 BYTE   PATT
  POIN2 Label_2_011F486F
 BYTE   PATT
  POIN2 Label_2_011F4818
 BYTE   PATT
  POIN2 Label_2_011F481F
 BYTE   PATT
  POIN2 Label_2_011F4818
 BYTE   PATT
  POIN2 Label_2_011F482D
 BYTE   PATT
  POIN2 Label_2_011F4838
 BYTE   PATT
  POIN2 Label_2_011F483F
 BYTE   PATT
  POIN2 Label_2_011F484A
 BYTE   PATT
  POIN2 Label_2_011F4851
 BYTE   PATT
  POIN2 Label_2_011F485A
 BYTE   PATT
  POIN2 Label_2_011F4861
 BYTE   PATT
  POIN2 Label_2_011F4818
// 034   ----------------------------------------
 BYTE   N18  Cn1  v100
 BYTE   W24
 BYTE   Gn0
 BYTE   W24
 BYTE   N24  Cn1
 BYTE   W24
 BYTE   W24
// 035   ----------------------------------------
 BYTE   GoTo
  POIN2 Label_2_011F4804
 BYTE   FINE

//**************** Track 4 (Midi-Chn.3) ****************//

BanjoTooieWumbasWigwamPandan_004:
// 000   ----------------------------------------
Label_3_011F4908:
 BYTE   KEYSH   BanjoTooieWumbasWigwamPandan_key+0
 BYTE   VOICE   32
 BYTE   VOL   57*BanjoTooieWumbasWigwamPandan_mvl/mxv
 BYTE   TEMPO   116*BanjoTooieWumbasWigwamPandan_tbs/2
 BYTE   W96
// 001   ----------------------------------------
 BYTE   W96
// 002   ----------------------------------------
 BYTE   W96
// 003   ----------------------------------------
 BYTE   W96
// 004   ----------------------------------------
 BYTE   W96
// 005   ----------------------------------------
 BYTE   W96
// 006   ----------------------------------------
 BYTE   W96
// 007   ----------------------------------------
 BYTE   W96
// 008   ----------------------------------------
 BYTE   W96
// 009   ----------------------------------------
 BYTE   W96
// 010   ----------------------------------------
 BYTE   W96
// 011   ----------------------------------------
 BYTE   W96
// 012   ----------------------------------------
 BYTE   W96
// 013   ----------------------------------------
 BYTE   W96
// 014   ----------------------------------------
Label_3_011F491E:
 BYTE   N18  Gn3  v100
 BYTE   N18  Cn4
 BYTE   W24
 BYTE   N12  Gn3
 BYTE   N12  Cn4
 BYTE   W12
 BYTE   Fn3
 BYTE   N12  As3
 BYTE   W12
 BYTE   N18  Gn3
 BYTE   N18  Cn4
 BYTE   W24
 BYTE   N12  Gn3
 BYTE   N12  Cn4
 BYTE   W12
 BYTE   Fn3
 BYTE   N12  As3
 BYTE   W12
 BYTE   PEND 
// 015   ----------------------------------------
Label_3_011F493C:
 BYTE   N12  Gn3  v100
 BYTE   N12  Cn4
 BYTE   W12
 BYTE   Fn3
 BYTE   N12  As3
 BYTE   W12
 BYTE   Dn3
 BYTE   N12  Gn3
 BYTE   W24
 BYTE   N24  Dn3
 BYTE   N24  Gn3
 BYTE   W48
 BYTE   PEND 
// 016   ----------------------------------------
Label_3_011F4950:
 BYTE   N18  Fn3  v100
 BYTE   N18  As3
 BYTE   W24
 BYTE   N12  Fn3
 BYTE   N12  As3
 BYTE   W12
 BYTE   Ds3
 BYTE   N12  Gs3
 BYTE   W12
 BYTE   N18  Fn3
 BYTE   N18  As3
 BYTE   W24
 BYTE   N12  Fn3
 BYTE   N12  As3
 BYTE   W12
 BYTE   Ds3
 BYTE   N12  Gs3
 BYTE   W12
 BYTE   PEND 
// 017   ----------------------------------------
Label_3_011F496E:
 BYTE   N12  Fn3  v100
 BYTE   N12  As3
 BYTE   W12
 BYTE   Ds3
 BYTE   N12  Gs3
 BYTE   W12
 BYTE   Cn3
 BYTE   N12  Fn3
 BYTE   W24
 BYTE   N24  Cn3
 BYTE   N24  Fn3
 BYTE   W48
 BYTE   PEND 
// 018   ----------------------------------------
Label_3_011F4982:
 BYTE   N18  Dn3  v100
 BYTE   N18  Gn3
 BYTE   W24
 BYTE   N12  Dn3
 BYTE   N12  Gn3
 BYTE   W12
 BYTE   Cn3
 BYTE   N12  Fn3
 BYTE   W12
 BYTE   N18  Dn3
 BYTE   N18  Gn3
 BYTE   W24
 BYTE   N12  Dn3
 BYTE   N12  Gn3
 BYTE   W12
 BYTE   Cn3
 BYTE   N12  Fn3
 BYTE   W12
 BYTE   PEND 
// 019   ----------------------------------------
Label_3_011F49A0:
 BYTE   N12  Dn3  v100
 BYTE   N12  Gn3
 BYTE   W12
 BYTE   Fn3
 BYTE   N12  As3
 BYTE   W12
 BYTE   Dn3
 BYTE   N12  Gn3
 BYTE   W12
 BYTE   Cn3
 BYTE   N12  Fn3
 BYTE   W12
 BYTE   N24  Dn3
 BYTE   N24  Gn3
 BYTE   W48
 BYTE   PEND 
// 020   ----------------------------------------
Label_3_011F49B8:
 BYTE   N18  Fn3  v100
 BYTE   N18  Cn3
 BYTE   W24
 BYTE   N12
 BYTE   N12  Fn3
 BYTE   W12
 BYTE   As2
 BYTE   N12  Ds3
 BYTE   W12
 BYTE   Cn3
 BYTE   N12  Fn3
 BYTE   W12
 BYTE   As2
 BYTE   N12  Ds3
 BYTE   W12
 BYTE   Cn3
 BYTE   N12  Fn3
 BYTE   W12
 BYTE   Ds3
 BYTE   N12  Gs3
 BYTE   W12
 BYTE   PEND 
// 021   ----------------------------------------
Label_3_011F49D7:
 BYTE   N18  As3  v100
 BYTE   N18  Fn3
 BYTE   W24
 BYTE   N12
 BYTE   N12  As3
 BYTE   W12
 BYTE   Ds3
 BYTE   N12  Gs3
 BYTE   W12
 BYTE   Fn3
 BYTE   N12  As3
 BYTE   W12
 BYTE   Ds3
 BYTE   N12  Gs3
 BYTE   W12
 BYTE   Fn3
 BYTE   N12  As3
 BYTE   W12
 BYTE   Gn3
 BYTE   N12  Cn4
 BYTE   W12
 BYTE   PEND 
// 022   ----------------------------------------
Label_3_011F49F6:
 BYTE   N18  Cn4  v100
 BYTE   N18  Gn3
 BYTE   W24
 BYTE   N12
 BYTE   N12  Cn4
 BYTE   W12
 BYTE   Fn3
 BYTE   N12  As3
 BYTE   W12
 BYTE   N18  Cn4
 BYTE   N18  Gn3
 BYTE   W24
 BYTE   N12
 BYTE   N12  Cn4
 BYTE   W12
 BYTE   Fn3
 BYTE   N12  As3
 BYTE   W12
 BYTE   PEND 
// 023   ----------------------------------------
Label_3_011F4A12:
 BYTE   N12  Gn3  v100
 BYTE   N12  Cn4
 BYTE   W12
 BYTE   As3
 BYTE   N12  Ds4
 BYTE   W12
 BYTE   Gn3
 BYTE   N12  Cn4
 BYTE   W12
 BYTE   Fn3
 BYTE   N12  As3
 BYTE   W12
 BYTE   N24  Gn3
 BYTE   N24  Cn4
 BYTE   W96
// 024   ----------------------------------------
 BYTE   W96
// 025   ----------------------------------------
 BYTE   W96
// 026   ----------------------------------------
 BYTE   W96
// 027   ----------------------------------------
 BYTE   W96
// 028   ----------------------------------------
 BYTE   W96
// 029   ----------------------------------------
 BYTE   W96
// 030   ----------------------------------------
 BYTE   W96
// 031   ----------------------------------------
 BYTE   W96
// 032   ----------------------------------------
 BYTE   W96
// 033   ----------------------------------------
 BYTE   W96
// 034   ----------------------------------------
 BYTE   W96
// 035   ----------------------------------------
 BYTE   W96
// 036   ----------------------------------------
 BYTE   W96
// 037   ----------------------------------------
 BYTE   W48
 BYTE   PEND 
 BYTE   PATT
  POIN2 Label_3_011F491E
 BYTE   PATT
  POIN2 Label_3_011F493C
 BYTE   PATT
  POIN2 Label_3_011F4950
 BYTE   PATT
  POIN2 Label_3_011F496E
 BYTE   PATT
  POIN2 Label_3_011F4982
 BYTE   PATT
  POIN2 Label_3_011F49A0
 BYTE   PATT
  POIN2 Label_3_011F49B8
 BYTE   PATT
  POIN2 Label_3_011F49D7
 BYTE   PATT
  POIN2 Label_3_011F49F6
 BYTE   PATT
  POIN2 Label_3_011F4A12
 BYTE   PATT
  POIN2 Label_3_011F491E
 BYTE   PATT
  POIN2 Label_3_011F493C
 BYTE   PATT
  POIN2 Label_3_011F4950
 BYTE   PATT
  POIN2 Label_3_011F496E
 BYTE   PATT
  POIN2 Label_3_011F4982
 BYTE   PATT
  POIN2 Label_3_011F49A0
 BYTE   PATT
  POIN2 Label_3_011F49B8
 BYTE   PATT
  POIN2 Label_3_011F49D7
 BYTE   PATT
  POIN2 Label_3_011F49F6
// 038   ----------------------------------------
 BYTE   N12  Gn3  v100
 BYTE   N12  Cn4
 BYTE   W12
 BYTE   As3
 BYTE   N12  Ds4
 BYTE   W12
 BYTE   Gn3
 BYTE   N12  Cn4
 BYTE   W12
 BYTE   Fn3
 BYTE   N12  As3
 BYTE   W12
 BYTE   N24  Gn3
 BYTE   N24  Cn4
 BYTE   W24
 BYTE   W24
// 039   ----------------------------------------
 BYTE   GoTo
  POIN2 Label_3_011F4908
 BYTE   FINE

//**************** Track 5 (Midi-Chn.4) ****************//

BanjoTooieWumbasWigwamPandan_005:
// 000   ----------------------------------------
Label_4_011F4AB8:
 BYTE   VOL   30*BanjoTooieWumbasWigwamPandan_mvl/mxv
 BYTE   KEYSH   BanjoTooieWumbasWigwamPandan_key+0
 BYTE   VOICE   11
 BYTE   N24  An3  v100
 BYTE   TEMPO   116*BanjoTooieWumbasWigwamPandan_tbs/2
 BYTE   W24
 BYTE   N12  An3  v100
 BYTE   W12
 BYTE   An3
 BYTE   W24
 BYTE   An3
 BYTE   W36
// 001   ----------------------------------------
Label_4_011F4ACC:
 BYTE   N12  An3  v100
 BYTE   W24
 BYTE   An3
 BYTE   W12
 BYTE   An3
 BYTE   W24
 BYTE   An3
 BYTE   W36
 BYTE   PEND 
// 002   ----------------------------------------
Label_4_011F4AD7:
 BYTE   N24  An3  v100
 BYTE   W24
 BYTE   N12
 BYTE   W12
 BYTE   An3
 BYTE   W24
 BYTE   An3
 BYTE   W36
 BYTE   PEND 
 BYTE   PATT
  POIN2 Label_4_011F4ACC
 BYTE   PATT
  POIN2 Label_4_011F4AD7
 BYTE   PATT
  POIN2 Label_4_011F4ACC
 BYTE   PATT
  POIN2 Label_4_011F4AD7
 BYTE   PATT
  POIN2 Label_4_011F4ACC
 BYTE   PATT
  POIN2 Label_4_011F4AD7
 BYTE   PATT
  POIN2 Label_4_011F4ACC
 BYTE   PATT
  POIN2 Label_4_011F4AD7
 BYTE   PATT
  POIN2 Label_4_011F4ACC
 BYTE   PATT
  POIN2 Label_4_011F4AD7
 BYTE   PATT
  POIN2 Label_4_011F4ACC
 BYTE   PATT
  POIN2 Label_4_011F4AD7
 BYTE   PATT
  POIN2 Label_4_011F4ACC
 BYTE   PATT
  POIN2 Label_4_011F4AD7
 BYTE   PATT
  POIN2 Label_4_011F4ACC
 BYTE   PATT
  POIN2 Label_4_011F4AD7
 BYTE   PATT
  POIN2 Label_4_011F4ACC
 BYTE   PATT
  POIN2 Label_4_011F4AD7
 BYTE   PATT
  POIN2 Label_4_011F4ACC
 BYTE   PATT
  POIN2 Label_4_011F4AD7
 BYTE   PATT
  POIN2 Label_4_011F4ACC
 BYTE   PATT
  POIN2 Label_4_011F4AD7
 BYTE   PATT
  POIN2 Label_4_011F4ACC
 BYTE   PATT
  POIN2 Label_4_011F4AD7
 BYTE   PATT
  POIN2 Label_4_011F4ACC
 BYTE   PATT
  POIN2 Label_4_011F4AD7
 BYTE   PATT
  POIN2 Label_4_011F4ACC
 BYTE   PATT
  POIN2 Label_4_011F4AD7
 BYTE   PATT
  POIN2 Label_4_011F4ACC
 BYTE   PATT
  POIN2 Label_4_011F4AD7
 BYTE   PATT
  POIN2 Label_4_011F4ACC
 BYTE   PATT
  POIN2 Label_4_011F4AD7
 BYTE   PATT
  POIN2 Label_4_011F4ACC
 BYTE   PATT
  POIN2 Label_4_011F4AD7
 BYTE   PATT
  POIN2 Label_4_011F4ACC
 BYTE   PATT
  POIN2 Label_4_011F4AD7
 BYTE   PATT
  POIN2 Label_4_011F4ACC
 BYTE   PATT
  POIN2 Label_4_011F4AD7
 BYTE   PATT
  POIN2 Label_4_011F4ACC
 BYTE   PATT
  POIN2 Label_4_011F4AD7
 BYTE   PATT
  POIN2 Label_4_011F4ACC
 BYTE   PATT
  POIN2 Label_4_011F4AD7
 BYTE   PATT
  POIN2 Label_4_011F4ACC
 BYTE   PATT
  POIN2 Label_4_011F4AD7
 BYTE   PATT
  POIN2 Label_4_011F4ACC
 BYTE   PATT
  POIN2 Label_4_011F4AD7
 BYTE   PATT
  POIN2 Label_4_011F4ACC
 BYTE   PATT
  POIN2 Label_4_011F4AD7
 BYTE   PATT
  POIN2 Label_4_011F4ACC
 BYTE   PATT
  POIN2 Label_4_011F4AD7
 BYTE   PATT
  POIN2 Label_4_011F4ACC
 BYTE   PATT
  POIN2 Label_4_011F4AD7
 BYTE   PATT
  POIN2 Label_4_011F4ACC
 BYTE   PATT
  POIN2 Label_4_011F4AD7
 BYTE   PATT
  POIN2 Label_4_011F4ACC
 BYTE   PATT
  POIN2 Label_4_011F4AD7
 BYTE   PATT
  POIN2 Label_4_011F4ACC
 BYTE   PATT
  POIN2 Label_4_011F4AD7
 BYTE   PATT
  POIN2 Label_4_011F4ACC
 BYTE   PATT
  POIN2 Label_4_011F4AD7
 BYTE   PATT
  POIN2 Label_4_011F4ACC
 BYTE   PATT
  POIN2 Label_4_011F4AD7
 BYTE   PATT
  POIN2 Label_4_011F4ACC
 BYTE   PATT
  POIN2 Label_4_011F4AD7
 BYTE   PATT
  POIN2 Label_4_011F4ACC
 BYTE   PATT
  POIN2 Label_4_011F4AD7
 BYTE   PATT
  POIN2 Label_4_011F4ACC
 BYTE   PATT
  POIN2 Label_4_011F4AD7
// 003   ----------------------------------------
 BYTE   N12  An3  v100
 BYTE   W24
 BYTE   An3
 BYTE   W12
 BYTE   An3
 BYTE   W24
 BYTE   An3
 BYTE   W12
 BYTE   W24
// 004   ----------------------------------------
 BYTE   GoTo
  POIN2 Label_4_011F4AB8
 BYTE   FINE

//**************** Track 6 (Midi-Chn.5) ****************//

BanjoTooieWumbasWigwamPandan_006:
// 000   ----------------------------------------
Label_5_011F4C48:
 BYTE   KEYSH   BanjoTooieWumbasWigwamPandan_key+0
 BYTE   VOICE   67
 BYTE   VOL   42*BanjoTooieWumbasWigwamPandan_mvl/mxv
 BYTE   TEMPO   116*BanjoTooieWumbasWigwamPandan_tbs/2
 BYTE   W96
// 001   ----------------------------------------
 BYTE   W96
// 002   ----------------------------------------
 BYTE   W96
// 003   ----------------------------------------
 BYTE   W96
// 004   ----------------------------------------
 BYTE   W96
// 005   ----------------------------------------
 BYTE   W96
// 006   ----------------------------------------
 BYTE   W96
// 007   ----------------------------------------
 BYTE   W96
// 008   ----------------------------------------
 BYTE   W96
// 009   ----------------------------------------
 BYTE   W96
// 010   ----------------------------------------
 BYTE   W96
// 011   ----------------------------------------
 BYTE   W96
// 012   ----------------------------------------
Label_5_011F4C5C:
 BYTE   N24  Cn1  v100
 BYTE   W48
 BYTE   Gn0
 BYTE   W48
 BYTE   PEND 
// 013   ----------------------------------------
Label_5_011F4C63:
 BYTE   N24  Cn1  v100
 BYTE   W48
 BYTE   Gn0
 BYTE   W24
 BYTE   As0
 BYTE   W24
 BYTE   PEND 
 BYTE   PATT
  POIN2 Label_5_011F4C5C
// 014   ----------------------------------------
Label_5_011F4C71:
 BYTE   N24  Cn1  v100
 BYTE   W48
 BYTE   N18  Gn0
 BYTE   W24
 BYTE   N24  Cn1
 BYTE   W24
 BYTE   PEND 
// 015   ----------------------------------------
Label_5_011F4C7C:
 BYTE   N24  As0  v100
 BYTE   W48
 BYTE   Fn0
 BYTE   W48
 BYTE   PEND 
// 016   ----------------------------------------
Label_5_011F4C83:
 BYTE   N24  As0  v100
 BYTE   W48
 BYTE   N18  Fn0
 BYTE   W24
 BYTE   N24  As0
 BYTE   W24
 BYTE   PEND 
// 017   ----------------------------------------
Label_5_011F4C8E:
 BYTE   N24  Gn0  v100
 BYTE   W48
 BYTE   Gn0
 BYTE   W48
 BYTE   PEND 
// 018   ----------------------------------------
Label_5_011F4C95:
 BYTE   N24  Gn0  v100
 BYTE   W48
 BYTE   Gn0
 BYTE   W24
 BYTE   Fs0
 BYTE   W24
 BYTE   PEND 
// 019   ----------------------------------------
Label_5_011F4C9E:
 BYTE   N24  Fn0  v100
 BYTE   W48
 BYTE   Fn0
 BYTE   W48
 BYTE   PEND 
// 020   ----------------------------------------
Label_5_011F4CA5:
 BYTE   N24  As0  v100
 BYTE   W48
 BYTE   As0
 BYTE   W24
 BYTE   Gn0
 BYTE   W24
 BYTE   PEND 
 BYTE   PATT
  POIN2 Label_5_011F4C5C
// 021   ----------------------------------------
Label_5_011F4CB3:
 BYTE   N18  Cn1  v100
 BYTE   W24
 BYTE   Gn0
 BYTE   W24
 BYTE   N24  Cn1
 BYTE   W96
// 022   ----------------------------------------
 BYTE   W96
// 023   ----------------------------------------
 BYTE   W96
// 024   ----------------------------------------
 BYTE   W96
// 025   ----------------------------------------
 BYTE   W96
// 026   ----------------------------------------
 BYTE   W96
// 027   ----------------------------------------
 BYTE   W96
// 028   ----------------------------------------
 BYTE   W96
// 029   ----------------------------------------
 BYTE   W96
// 030   ----------------------------------------
 BYTE   W96
// 031   ----------------------------------------
 BYTE   W96
// 032   ----------------------------------------
 BYTE   W96
// 033   ----------------------------------------
 BYTE   W48
 BYTE   PEND 
 BYTE   PATT
  POIN2 Label_5_011F4C5C
 BYTE   PATT
  POIN2 Label_5_011F4C63
 BYTE   PATT
  POIN2 Label_5_011F4C5C
 BYTE   PATT
  POIN2 Label_5_011F4C71
 BYTE   PATT
  POIN2 Label_5_011F4C7C
 BYTE   PATT
  POIN2 Label_5_011F4C83
 BYTE   PATT
  POIN2 Label_5_011F4C8E
 BYTE   PATT
  POIN2 Label_5_011F4C95
 BYTE   PATT
  POIN2 Label_5_011F4C9E
 BYTE   PATT
  POIN2 Label_5_011F4CA5
 BYTE   PATT
  POIN2 Label_5_011F4C5C
 BYTE   PATT
  POIN2 Label_5_011F4CB3
 BYTE   PATT
  POIN2 Label_5_011F4C5C
 BYTE   PATT
  POIN2 Label_5_011F4C63
 BYTE   PATT
  POIN2 Label_5_011F4C5C
 BYTE   PATT
  POIN2 Label_5_011F4C71
 BYTE   PATT
  POIN2 Label_5_011F4C7C
 BYTE   PATT
  POIN2 Label_5_011F4C83
 BYTE   PATT
  POIN2 Label_5_011F4C8E
 BYTE   PATT
  POIN2 Label_5_011F4C95
 BYTE   PATT
  POIN2 Label_5_011F4C9E
 BYTE   PATT
  POIN2 Label_5_011F4CA5
 BYTE   PATT
  POIN2 Label_5_011F4C5C
// 034   ----------------------------------------
 BYTE   N18  Cn1  v100
 BYTE   W24
 BYTE   Gn0
 BYTE   W24
 BYTE   N24  Cn1
 BYTE   W24
 BYTE   W24
// 035   ----------------------------------------
 BYTE   GoTo
  POIN2 Label_5_011F4C48
 BYTE   FINE

//******************************************************//
	ALIGN 4

BanjoTooieWumbasWigwamPandan:
	BYTE	6	// NumTrks
	BYTE	0	// NumBlks
	BYTE	BanjoTooieWumbasWigwamPandan_pri	// Priority
	BYTE	BanjoTooieWumbasWigwamPandan_rev	// Reverb.
    
	POIN2	BanjoTooieWumbasWigwamPandan_grp
    
	POIN2	BanjoTooieWumbasWigwamPandan_001
	POIN2	BanjoTooieWumbasWigwamPandan_002
	POIN2	BanjoTooieWumbasWigwamPandan_003
	POIN2	BanjoTooieWumbasWigwamPandan_004
	POIN2	BanjoTooieWumbasWigwamPandan_005
	POIN2	BanjoTooieWumbasWigwamPandan_006

	
