//Event file generated from Sappy .s format.
	#include "MPlayDef.event"

	#define	LocksQuestEmi_grp  voicegroup000
	#define	LocksQuestEmi_pri  0
	#define	LocksQuestEmi_rev  0
	#define	LocksQuestEmi_mvl  127
	#define	LocksQuestEmi_key  0
	#define	LocksQuestEmi_tbs  1
	#define	LocksQuestEmi_exg  0
	#define	LocksQuestEmi_cmp  1

	// .rodata
	//	LocksQuestEmi
	ALIGN 4


//**************** Track 1 (Midi-Chn.0) ****************//

LocksQuestEmi_001:
//  #01 //000   ----------------------------------------
 BYTE   KEYSH   LocksQuestEmi_key+0
Label_017A6D0E:
 BYTE   TEMPO   88*LocksQuestEmi_tbs/2
 BYTE   VOICE   49
 BYTE   MODT 0
 BYTE   LFOS 44
 BYTE   PAN   c_v+15
 BYTE   VOL   40*LocksQuestEmi_mvl/mxv
 BYTE   W36
 BYTE   N96  Cn4  v036
 BYTE   TIE  En4
 BYTE   W36
 BYTE   W02
 BYTE   TEMPO   88*LocksQuestEmi_tbs/2
 BYTE   W22
//  #01 //001   ----------------------------------------
 BYTE   W02
 BYTE   TEMPO   88*LocksQuestEmi_tbs/2
 BYTE   W24
 BYTE   TEMPO   88*LocksQuestEmi_tbs/2
 BYTE   W10
 BYTE   N96  Bn3
 BYTE   W14
 BYTE   TEMPO   88*LocksQuestEmi_tbs/2
 BYTE   W24
 BYTE   TEMPO   88*LocksQuestEmi_tbs/2
 BYTE   W22
//  #01 //002   ----------------------------------------
 BYTE   W02
 BYTE   TEMPO   88*LocksQuestEmi_tbs/2
 BYTE   W24
 BYTE   TEMPO   88*LocksQuestEmi_tbs/2
 BYTE   W10
 BYTE   EOT
 BYTE   En4
 BYTE   TIE  Cn4
 BYTE   N96  Fn4
 BYTE   W14
 BYTE   TEMPO   88*LocksQuestEmi_tbs/2
 BYTE   W24
 BYTE   TEMPO   88*LocksQuestEmi_tbs/2
 BYTE   W22
//  #01 //003   ----------------------------------------
 BYTE   W02
 BYTE   TEMPO   88*LocksQuestEmi_tbs/2
 BYTE   W24
 BYTE   TEMPO   88*LocksQuestEmi_tbs/2
 BYTE   W10
 BYTE   N48  En4
 BYTE   W14
 BYTE   TEMPO   88*LocksQuestEmi_tbs/2
 BYTE   W24
 BYTE   TEMPO   88*LocksQuestEmi_tbs/2
 BYTE   W10
 BYTE   EOT
 BYTE   Cn4
 BYTE   N48  Bn3
 BYTE   N48  Dn4
 BYTE   W12
//  #01 //004   ----------------------------------------
 BYTE   W02
 BYTE   TEMPO   88*LocksQuestEmi_tbs/2
 BYTE   W24
 BYTE   TEMPO   88*LocksQuestEmi_tbs/2
 BYTE   W10
 BYTE   N96  An3
 BYTE   N96  Cn4
 BYTE   W14
 BYTE   TEMPO   88*LocksQuestEmi_tbs/2
 BYTE   W24
 BYTE   TEMPO   88*LocksQuestEmi_tbs/2
 BYTE   W22
//  #01 //005   ----------------------------------------
 BYTE   W23
 BYTE   TEMPO   88*LocksQuestEmi_tbs/2
 BYTE   W13
 BYTE   TEMPO   82*LocksQuestEmi_tbs/2
 BYTE   Gn3
 BYTE   N96  Bn3
 BYTE   W08
 BYTE   TEMPO   88*LocksQuestEmi_tbs/2
 BYTE   W24
 BYTE   TEMPO   88*LocksQuestEmi_tbs/2
 BYTE   W24
 BYTE   TEMPO   88*LocksQuestEmi_tbs/2
 BYTE   W04
//  #01 //006   ----------------------------------------
 BYTE   W20
 BYTE   TEMPO   86*LocksQuestEmi_tbs/2
 BYTE   W16
 BYTE   An3
 BYTE   TIE  Dn4
 BYTE   W08
 BYTE   TEMPO   86*LocksQuestEmi_tbs/2
 BYTE   W32
 BYTE   TEMPO   84*LocksQuestEmi_tbs/2
 BYTE   W16
 BYTE   TEMPO   82*LocksQuestEmi_tbs/2
 BYTE   W04
//  #01 //007   ----------------------------------------
 BYTE   W13
 BYTE   TEMPO   76*LocksQuestEmi_tbs/2
 BYTE   W12
 BYTE   TEMPO   68*LocksQuestEmi_tbs/2
 BYTE   W10
 BYTE   TEMPO   74*LocksQuestEmi_tbs/2
 BYTE   W01
 BYTE   N96  Bn3
 BYTE   W03
 BYTE   TEMPO   82*LocksQuestEmi_tbs/2
 BYTE   W24
 BYTE   TEMPO   82*LocksQuestEmi_tbs/2
 BYTE   W21
 BYTE   EOT
 BYTE   Dn4
 BYTE   TIE  En4
 BYTE   W12
//  #01 //008   ----------------------------------------
 BYTE   W09
 BYTE   TEMPO   84*LocksQuestEmi_tbs/2
 BYTE   W24
 BYTE   W03
 BYTE   N96  Cn4
 BYTE   W01
 BYTE   TEMPO   88*LocksQuestEmi_tbs/2
 BYTE   W24
 BYTE   TEMPO   88*LocksQuestEmi_tbs/2
 BYTE   W24
 BYTE   TEMPO   88*LocksQuestEmi_tbs/2
 BYTE   W11
//  #01 //009   ----------------------------------------
 BYTE   W13
 BYTE   TEMPO   88*LocksQuestEmi_tbs/2
 BYTE   W23
 BYTE   Bn3
 BYTE   W01
 BYTE   TEMPO   88*LocksQuestEmi_tbs/2
 BYTE   W24
 BYTE   TEMPO   88*LocksQuestEmi_tbs/2
 BYTE   W24
 BYTE   TEMPO   88*LocksQuestEmi_tbs/2
 BYTE   W11
//  #01 //010   ----------------------------------------
 BYTE   W13
 BYTE   TEMPO   88*LocksQuestEmi_tbs/2
 BYTE   W23
 BYTE   EOT
 BYTE   En4
 BYTE   TIE  Cn4
 BYTE   N96  Fn4
 BYTE   W01
 BYTE   TEMPO   88*LocksQuestEmi_tbs/2
 BYTE   W24
 BYTE   TEMPO   88*LocksQuestEmi_tbs/2
 BYTE   W24
 BYTE   TEMPO   88*LocksQuestEmi_tbs/2
 BYTE   W11
//  #01 //011   ----------------------------------------
 BYTE   W13
 BYTE   TEMPO   88*LocksQuestEmi_tbs/2
 BYTE   W23
 BYTE   N48  En4  v040
 BYTE   N96  Gn4
 BYTE   W01
 BYTE   TEMPO   88*LocksQuestEmi_tbs/2
 BYTE   W24
 BYTE   TEMPO   88*LocksQuestEmi_tbs/2
 BYTE   W23
 BYTE   EOT
 BYTE   Cn4
 BYTE   N48  Bn3
 BYTE   N48  Dn4
 BYTE   W01
 BYTE   TEMPO   88*LocksQuestEmi_tbs/2
 BYTE   W11
//  #01 //012   ----------------------------------------
 BYTE   W13
 BYTE   TEMPO   88*LocksQuestEmi_tbs/2
 BYTE   W23
 BYTE   TIE  En4
 BYTE   N96  An4
 BYTE   W01
 BYTE   TEMPO   88*LocksQuestEmi_tbs/2
 BYTE   W24
 BYTE   TEMPO   88*LocksQuestEmi_tbs/2
 BYTE   W24
 BYTE   TEMPO   88*LocksQuestEmi_tbs/2
 BYTE   W11
//  #01 //013   ----------------------------------------
 BYTE   W13
 BYTE   TEMPO   88*LocksQuestEmi_tbs/2
 BYTE   W23
 BYTE   Bn3
 BYTE   N96  Gn4
 BYTE   W01
 BYTE   TEMPO   88*LocksQuestEmi_tbs/2
 BYTE   W24
 BYTE   TEMPO   88*LocksQuestEmi_tbs/2
 BYTE   W24
 BYTE   TEMPO   88*LocksQuestEmi_tbs/2
 BYTE   W11
//  #01 //014   ----------------------------------------
 BYTE   W13
 BYTE   TEMPO   88*LocksQuestEmi_tbs/2
 BYTE   W23
 BYTE   EOT
 BYTE   En4
 BYTE   TIE  An3
 BYTE   N96  Dn4
 BYTE   N96  Fn4
 BYTE   W01
 BYTE   TEMPO   88*LocksQuestEmi_tbs/2
 BYTE   W24
 BYTE   TEMPO   88*LocksQuestEmi_tbs/2
 BYTE   W24
 BYTE   TEMPO   88*LocksQuestEmi_tbs/2
 BYTE   W11
//  #01 //015   ----------------------------------------
 BYTE   W32
 BYTE   W02
 BYTE   TEMPO   88*LocksQuestEmi_tbs/2
 BYTE   W02
 BYTE   N48  Cn4
 BYTE   W44
 BYTE   W01
 BYTE   TEMPO   86*LocksQuestEmi_tbs/2
 BYTE   W03
 BYTE   EOT
 BYTE   An3
 BYTE   N48  Gn3
 BYTE   N48  Bn3
 BYTE   W12
//  #01 //016   ----------------------------------------
 BYTE   W24
 BYTE   W01
 BYTE   TEMPO   82*LocksQuestEmi_tbs/2
 BYTE   W10
 BYTE   TEMPO   88*LocksQuestEmi_tbs/2
 BYTE   W01
 BYTE   N96  An3
 BYTE   N96  Cn4
 BYTE   W23
 BYTE   TEMPO   88*LocksQuestEmi_tbs/2
 BYTE   W24
 BYTE   TEMPO   88*LocksQuestEmi_tbs/2
 BYTE   W13
//  #01 //017   ----------------------------------------
 BYTE   W11
 BYTE   TEMPO   88*LocksQuestEmi_tbs/2
 BYTE   W24
 BYTE   TEMPO   88*LocksQuestEmi_tbs/2
 BYTE   W24
 BYTE   TEMPO   88*LocksQuestEmi_tbs/2
 BYTE   W01
 BYTE   N24  En3  v044
 BYTE   N24  En4
 BYTE   W23
 BYTE   TEMPO   88*LocksQuestEmi_tbs/2
 BYTE   W01
 BYTE   Fn3  v048
 BYTE   N24  Fn4
 BYTE   W12
//  #01 //018   ----------------------------------------
 BYTE   W11
 BYTE   TEMPO   88*LocksQuestEmi_tbs/2
 BYTE   W01
 BYTE   Gn3  v052
 BYTE   N24  Gn4
 BYTE   W23
 BYTE   TEMPO   88*LocksQuestEmi_tbs/2
 BYTE   W01
 BYTE   N12  An3  v064
 BYTE   N06  An4
 BYTE   W23
 BYTE   TEMPO   88*LocksQuestEmi_tbs/2
 BYTE   W24
 BYTE   TEMPO   88*LocksQuestEmi_tbs/2
 BYTE   W01
 BYTE   An3
 BYTE   N06  An4
 BYTE   W12
//  #01 //019   ----------------------------------------
 BYTE   W11
 BYTE   TEMPO   88*LocksQuestEmi_tbs/2
 BYTE   W24
 BYTE   TEMPO   88*LocksQuestEmi_tbs/2
 BYTE   W01
 BYTE   An3  v068
 BYTE   N06  An4
 BYTE   W23
 BYTE   TEMPO   88*LocksQuestEmi_tbs/2
 BYTE   W01
 BYTE   N24  En3  v048
 BYTE   N24  En4
 BYTE   W23
 BYTE   TEMPO   88*LocksQuestEmi_tbs/2
 BYTE   W01
 BYTE   Fn3
 BYTE   N24  Fn4
 BYTE   W12
//  #01 //020   ----------------------------------------
 BYTE   W11
 BYTE   TEMPO   88*LocksQuestEmi_tbs/2
 BYTE   W01
 BYTE   Gn3  v056
 BYTE   N24  Gn4
 BYTE   W23
 BYTE   TEMPO   88*LocksQuestEmi_tbs/2
 BYTE   W01
 BYTE   N12  An3  v064
 BYTE   N06  An4
 BYTE   W23
 BYTE   TEMPO   88*LocksQuestEmi_tbs/2
 BYTE   W24
 BYTE   TEMPO   88*LocksQuestEmi_tbs/2
 BYTE   W01
 BYTE   An3  v060
 BYTE   N06  An4
 BYTE   W12
//  #01 //021   ----------------------------------------
 BYTE   W11
 BYTE   TEMPO   88*LocksQuestEmi_tbs/2
 BYTE   W24
 BYTE   TEMPO   88*LocksQuestEmi_tbs/2
 BYTE   W01
 BYTE   An3  v072
 BYTE   N06  An4
 BYTE   W23
 BYTE   TEMPO   88*LocksQuestEmi_tbs/2
 BYTE   W01
 BYTE   N24  En3  v056
 BYTE   N24  En4
 BYTE   W23
 BYTE   TEMPO   88*LocksQuestEmi_tbs/2
 BYTE   W01
 BYTE   Fn3
 BYTE   N24  Fn4
 BYTE   W12
//  #01 //022   ----------------------------------------
 BYTE   W11
 BYTE   TEMPO   88*LocksQuestEmi_tbs/2
 BYTE   W01
 BYTE   Gn3  v060
 BYTE   N24  Bn3
 BYTE   N24  Gn4
 BYTE   N24  Bn4
 BYTE   W23
 BYTE   TEMPO   88*LocksQuestEmi_tbs/2
 BYTE   W01
 BYTE   N06  Cn4  v076
 BYTE   N06  Cn5
 BYTE   N06  En5
 BYTE   W23
 BYTE   TEMPO   88*LocksQuestEmi_tbs/2
 BYTE   W24
 BYTE   TEMPO   88*LocksQuestEmi_tbs/2
 BYTE   W01
 BYTE   Cn4  v064
 BYTE   N06  Cn5
 BYTE   N06  En5
 BYTE   W12
//  #01 //023   ----------------------------------------
 BYTE   W11
 BYTE   TEMPO   88*LocksQuestEmi_tbs/2
 BYTE   W24
 BYTE   TEMPO   88*LocksQuestEmi_tbs/2
 BYTE   W01
 BYTE   Cn4
 BYTE   N06  Cn5
 BYTE   N06  En5
 BYTE   W23
 BYTE   TEMPO   88*LocksQuestEmi_tbs/2
 BYTE   W01
 BYTE   N24  Cn4
 BYTE   N24  Cn5
 BYTE   N24  En5
 BYTE   W23
 BYTE   TEMPO   88*LocksQuestEmi_tbs/2
 BYTE   W01
 BYTE   Bn3  v068
 BYTE   N24  Bn4
 BYTE   N24  Dn5
 BYTE   W12
//  #01 //024   ----------------------------------------
 BYTE   W11
 BYTE   TEMPO   88*LocksQuestEmi_tbs/2
 BYTE   W01
 BYTE   An3  v072
 BYTE   N24  An4
 BYTE   N24  Cn5
 BYTE   W23
 BYTE   TEMPO   88*LocksQuestEmi_tbs/2
 BYTE   W01
 BYTE   N12  Bn3  v076
 BYTE   N12  Bn4
 BYTE   N12  Dn5
 BYTE   W23
 BYTE   TEMPO   88*LocksQuestEmi_tbs/2
 BYTE   W24
 BYTE   W01
 BYTE   N24  Bn3  v072
 BYTE   N24  Bn4
 BYTE   N24  Dn5
 BYTE   W11
 BYTE   TEMPO   88*LocksQuestEmi_tbs/2
 BYTE   W01
//  #01 //025   ----------------------------------------
 BYTE   W12
 BYTE   An3
 BYTE   N24  An4
 BYTE   N24  Cn5
 BYTE   W08
 BYTE   TEMPO   86*LocksQuestEmi_tbs/2
 BYTE   W15
 BYTE   TEMPO   82*LocksQuestEmi_tbs/2
 BYTE   W01
 BYTE   N06  Gs3
 BYTE   N06  Gs4
 BYTE   N06  Bn4
 BYTE   W03
 BYTE   TEMPO   88*LocksQuestEmi_tbs/2
 BYTE   W21
 BYTE   N24  Bn3
 BYTE   N24  Bn4
 BYTE   W03
 BYTE   TEMPO   88*LocksQuestEmi_tbs/2
 BYTE   W21
 BYTE   An3
 BYTE   N24  An4
 BYTE   W03
 BYTE   TEMPO   88*LocksQuestEmi_tbs/2
 BYTE   W09
//  #01 //026   ----------------------------------------
 BYTE   W12
 BYTE   Gs3
 BYTE   N24  Gs4
 BYTE   W03
 BYTE   TEMPO   88*LocksQuestEmi_tbs/2
 BYTE   W21
 BYTE   N96  Cn4  v052
 BYTE   TIE  En4
 BYTE   N06  An4  v068
 BYTE   W03
 BYTE   TEMPO   88*LocksQuestEmi_tbs/2
 BYTE   W24
 BYTE   TEMPO   88*LocksQuestEmi_tbs/2
 BYTE   W24
 BYTE   TEMPO   88*LocksQuestEmi_tbs/2
 BYTE   W09
//  #01 //027   ----------------------------------------
 BYTE   W15
 BYTE   TEMPO   88*LocksQuestEmi_tbs/2
 BYTE   W21
 BYTE   N96  Bn3  v052
 BYTE   W03
 BYTE   TEMPO   88*LocksQuestEmi_tbs/2
 BYTE   W24
 BYTE   TEMPO   88*LocksQuestEmi_tbs/2
 BYTE   W24
 BYTE   TEMPO   88*LocksQuestEmi_tbs/2
 BYTE   W09
//  #01 //028   ----------------------------------------
 BYTE   W15
 BYTE   TEMPO   88*LocksQuestEmi_tbs/2
 BYTE   W21
 BYTE   EOT
 BYTE   En4
 BYTE   TIE  Cn4
 BYTE   N96  Fn4
 BYTE   W03
 BYTE   TEMPO   88*LocksQuestEmi_tbs/2
 BYTE   W24
 BYTE   TEMPO   88*LocksQuestEmi_tbs/2
 BYTE   W24
 BYTE   TEMPO   88*LocksQuestEmi_tbs/2
 BYTE   W09
//  #01 //029   ----------------------------------------
 BYTE   W15
 BYTE   TEMPO   88*LocksQuestEmi_tbs/2
 BYTE   W21
 BYTE   N48  En4
 BYTE   W03
 BYTE   TEMPO   88*LocksQuestEmi_tbs/2
 BYTE   W24
 BYTE   TEMPO   88*LocksQuestEmi_tbs/2
 BYTE   W21
 BYTE   EOT
 BYTE   Cn4
 BYTE   N48  Bn3
 BYTE   N48  Dn4
 BYTE   W03
 BYTE   TEMPO   88*LocksQuestEmi_tbs/2
 BYTE   W09
//  #01 //030   ----------------------------------------
 BYTE   W15
 BYTE   TEMPO   88*LocksQuestEmi_tbs/2
 BYTE   W21
 BYTE   N96  An3
 BYTE   N96  Cn4
 BYTE   N84  Cn5  v036
 BYTE   W03
 BYTE   TEMPO   88*LocksQuestEmi_tbs/2
 BYTE   W24
 BYTE   TEMPO   88*LocksQuestEmi_tbs/2
 BYTE   W24
 BYTE   TEMPO   88*LocksQuestEmi_tbs/2
 BYTE   W09
//  #01 //031   ----------------------------------------
 BYTE   W15
 BYTE   TEMPO   88*LocksQuestEmi_tbs/2
 BYTE   W09
 BYTE   N06  Dn5
 BYTE   W06
 BYTE   En5
 BYTE   W06
 BYTE   N96  Gn3  v052
 BYTE   N96  Bn3
 BYTE   N24  Gn5  v036
 BYTE   W03
 BYTE   TEMPO   88*LocksQuestEmi_tbs/2
 BYTE   W21
 BYTE   N60  Bn4
 BYTE   W03
 BYTE   TEMPO   88*LocksQuestEmi_tbs/2
 BYTE   W24
 BYTE   TEMPO   88*LocksQuestEmi_tbs/2
 BYTE   W09
//  #01 //032   ----------------------------------------
 BYTE   W24
 BYTE   N06  Cn5  v040
 BYTE   W06
 BYTE   Cs5
 BYTE   W06
 BYTE   N96  An3  v052
 BYTE   TIE  Dn4
 BYTE   N60  Dn5  v040
 BYTE   W03
 BYTE   TEMPO   88*LocksQuestEmi_tbs/2
 BYTE   W24
 BYTE   TEMPO   88*LocksQuestEmi_tbs/2
 BYTE   W19
 BYTE   TEMPO   86*LocksQuestEmi_tbs/2
 BYTE   W14
//  #01 //033   ----------------------------------------
 BYTE   TEMPO   84*LocksQuestEmi_tbs/2
 BYTE   N12  Cn5  v044
 BYTE   W12
 BYTE   Bn4
 BYTE   W03
 BYTE   TEMPO   82*LocksQuestEmi_tbs/2
 BYTE   W09
 BYTE   Cn5
 BYTE   W12
 BYTE   N96  Bn3  v052
 BYTE   N48  Dn5  v044
 BYTE   W05
 BYTE   TEMPO   82*LocksQuestEmi_tbs/2
 BYTE   W32
 BYTE   W01
 BYTE   TEMPO   84*LocksQuestEmi_tbs/2
 BYTE   W10
 BYTE   EOT
 BYTE   Dn4
 BYTE   TIE  En4  v052
 BYTE   N48  En5
 BYTE   W12
//  #01 //034   ----------------------------------------
 BYTE   W02
 BYTE   TEMPO   86*LocksQuestEmi_tbs/2
 BYTE   W32
 BYTE   W01
 BYTE   TEMPO   88*LocksQuestEmi_tbs/2
 BYTE   W01
 BYTE   N96  Cn4
 BYTE   N72  Cn5
 BYTE   N72  Cn6
 BYTE   W60
//  #01 //035   ----------------------------------------
 BYTE   W12
 BYTE   N12  Cn5
 BYTE   N12  Cn6
 BYTE   W12
 BYTE   N06  Dn5
 BYTE   N06  Dn6
 BYTE   W06
 BYTE   En5
 BYTE   N06  En6
 BYTE   W06
 BYTE   N96  Bn3
 BYTE   N72  Bn4
 BYTE   N72  Bn5
 BYTE   W60
//  #01 //036   ----------------------------------------
 BYTE   W12
 BYTE   N12  Bn4
 BYTE   N12  Bn5
 BYTE   W12
 BYTE   N06  Cn5
 BYTE   N06  Cn6
 BYTE   W06
 BYTE   Dn5
 BYTE   N06  Dn6
 BYTE   W06
 BYTE   EOT
 BYTE   En4
 BYTE   TIE  Cn4
 BYTE   N96  Fn4
 BYTE   N60  An4
 BYTE   N60  An5
 BYTE   W60
//  #01 //037   ----------------------------------------
 BYTE   N12  An4
 BYTE   N12  An5
 BYTE   W12
 BYTE   Cn5
 BYTE   N12  Cn6
 BYTE   W12
 BYTE   N06  Bn4
 BYTE   N06  Bn5
 BYTE   W06
 BYTE   An4
 BYTE   N06  An5
 BYTE   W06
 BYTE   N48  En4
 BYTE   N96  Gn4
 BYTE   N96  Gn5
 BYTE   W48
 BYTE   EOT
 BYTE   Cn4
 BYTE   N48  Bn3
 BYTE   N48  Dn4
 BYTE   W12
//  #01 //038   ----------------------------------------
 BYTE   W36
 BYTE   TIE  En4
 BYTE   N96  An4
 BYTE   N84  Cn5
 BYTE   N84  Cn6
 BYTE   W60
//  #01 //039   ----------------------------------------
 BYTE   W24
 BYTE   N06  Dn5
 BYTE   N06  Dn6
 BYTE   W06
 BYTE   En5
 BYTE   N06  En6
 BYTE   W06
 BYTE   N96  Bn3
 BYTE   N96  Gn4
 BYTE   N24  Gn5
 BYTE   N24  Gn6
 BYTE   W24
 BYTE   N60  Bn4
 BYTE   N60  Bn5
 BYTE   W36
//  #01 //040   ----------------------------------------
 BYTE   W24
 BYTE   N06  Cn5
 BYTE   N06  Cn6
 BYTE   W06
 BYTE   Cs5
 BYTE   N06  Cs6
 BYTE   W06
 BYTE   EOT
 BYTE   En4
 BYTE   TIE  An3
 BYTE   N96  Dn4
 BYTE   N96  Fn4
 BYTE   N60  Dn5
 BYTE   N60  Dn6
 BYTE   W60
//  #01 //041   ----------------------------------------
 BYTE   N12  Cn5
 BYTE   N12  Cn6
 BYTE   W12
 BYTE   Bn4
 BYTE   N12  Bn5
 BYTE   W12
 BYTE   Cn5
 BYTE   N12  Cn6
 BYTE   W12
 BYTE   N48  Cn4
 BYTE   N48  Cn5
 BYTE   N48  Cn6
 BYTE   W30
 BYTE   TEMPO   88*LocksQuestEmi_tbs/2
 BYTE   W18
 BYTE   EOT
 BYTE   An3
 BYTE   N48  Gn3
 BYTE   N48  Bn3
 BYTE   N48  Bn4
 BYTE   N48  Bn5
 BYTE   W11
 BYTE   TEMPO   84*LocksQuestEmi_tbs/2
 BYTE   W01
//  #01 //042   ----------------------------------------
 BYTE   W28
 BYTE   W01
 BYTE   TEMPO   80*LocksQuestEmi_tbs/2
 BYTE   W07
 BYTE   Fn3  v060
 BYTE   N48  An3
 BYTE   N48  Cn4
 BYTE   N24  Cn5
 BYTE   W02
 BYTE   TEMPO   88*LocksQuestEmi_tbs/2
 BYTE   W22
 BYTE   N48  An4
 BYTE   W24
 BYTE   Gn3  v056
 BYTE   N48  Bn3
 BYTE   N24  Dn4
 BYTE   W12
//  #01 //043   ----------------------------------------
 BYTE   W12
 BYTE   N12  Cn4  v052
 BYTE   W12
 BYTE   Dn4
 BYTE   W12
 BYTE   N48  An3  v048
 BYTE   N36  En4
 BYTE   W36
 BYTE   N06  Fn4
 BYTE   W06
 BYTE   En4
 BYTE   W06
 BYTE   N48  Gn3
 BYTE   N12  Bn3
 BYTE   N12  Dn4
 BYTE   W12
//  #01 //044   ----------------------------------------
 BYTE   Cn4
 BYTE   W12
 BYTE   N24  Bn3  v056
 BYTE   W24
 BYTE   N48  Dn3
 BYTE   N48  An3
 BYTE   W48
 BYTE   N36  Gs3
 BYTE   N36  Bn3
 BYTE   W12
//  #01 //045   ----------------------------------------
 BYTE   W24
 BYTE   N06  An3  v052
 BYTE   W06
 BYTE   Bn3
 BYTE   W06
 BYTE   N48  En3
 BYTE   N36  Cn4
 BYTE   W36
 BYTE   N06  Bn3
 BYTE   W06
 BYTE   Cn4
 BYTE   W06
 BYTE   N48  Gn3
 BYTE   N12  En4
 BYTE   W12
//  #01 //046   ----------------------------------------
 BYTE   Dn4  v056
 BYTE   W12
 BYTE   Cn4
 BYTE   W12
 BYTE   Bn3
 BYTE   W12
 BYTE   N48  Fn3  v060
 BYTE   N48  An3
 BYTE   N48  Cn4
 BYTE   N24  Cn5  v044
 BYTE   N24  En5
 BYTE   W24
 BYTE   An4  v048
 BYTE   N24  Cn5
 BYTE   W24
 BYTE   N48  Gn3  v056
 BYTE   N48  Bn3
 BYTE   N24  Dn4
 BYTE   N24  Gn4  v052
 BYTE   N24  Dn5
 BYTE   W12
//  #01 //047   ----------------------------------------
 BYTE   W12
 BYTE   N12  Cn4  v048
 BYTE   N12  En5  v052
 BYTE   W12
 BYTE   Dn4  v044
 BYTE   N12  Fn5  v048
 BYTE   W12
 BYTE   N48  An3  v044
 BYTE   N36  En4
 BYTE   N24  Cn5  v040
 BYTE   N24  En5
 BYTE   W24
 BYTE   N54  An4  v044
 BYTE   N54  Cn5
 BYTE   W12
 BYTE   N06  Fn4  v048
 BYTE   W06
 BYTE   En4
 BYTE   W06
 BYTE   N48  Gn3
 BYTE   N12  Bn3
 BYTE   N12  Dn4
 BYTE   W12
//  #01 //048   ----------------------------------------
 BYTE   Cn4  v052
 BYTE   W12
 BYTE   N24  Bn3  v056
 BYTE   W24
 BYTE   N48  Dn3  v052
 BYTE   N48  An3
 BYTE   N48  Dn4
 BYTE   N48  An4
 BYTE   W48
 BYTE   N36  Gs3  v048
 BYTE   N36  Bn3
 BYTE   N36  Gs4
 BYTE   N36  Bn4
 BYTE   W12
//  #01 //049   ----------------------------------------
 BYTE   W24
 BYTE   N06  An3
 BYTE   N06  An4
 BYTE   W06
 BYTE   Bn3  v044
 BYTE   N06  Bn4
 BYTE   W06
 BYTE   N36  Cn4
 BYTE   N36  Cn5
 BYTE   W60
//  #01 //050   ----------------------------------------
 BYTE   GoTo
  POIN2 Label_017A6D0E
 BYTE   FINE

//**************** Track 2 (Midi-Chn.1) ****************//

LocksQuestEmi_002:
//  #02 //000   ----------------------------------------
 BYTE   KEYSH   LocksQuestEmi_key+0
Label_017A71D6:
 BYTE   VOICE   68
 BYTE   MODT 0
 BYTE   LFOS 44
 BYTE   VOL   51*LocksQuestEmi_mvl/mxv
 BYTE   PAN   c_v-7
 BYTE   N11  En3  v076
 BYTE   W12
 BYTE   N12  An3  v080
 BYTE   W12
 BYTE   Bn3  v084
 BYTE   W12
 BYTE   N24  Cn4  v080
 BYTE   W24
 BYTE   N30  En3
 BYTE   W36
//  #02 //001   ----------------------------------------
 BYTE   N12  En3  v072
 BYTE   W12
 BYTE   Bn3  v076
 BYTE   W12
 BYTE   Cn4  v072
 BYTE   W12
 BYTE   N24  Bn3  v080
 BYTE   W24
 BYTE   N30  En3  v076
 BYTE   W36
//  #02 //002   ----------------------------------------
 BYTE   N12  En3  v064
 BYTE   W12
 BYTE   Fn3  v068
 BYTE   W12
 BYTE   N06  Gn3  v076
 BYTE   W12
 BYTE   N24  An3  v084
 BYTE   W24
 BYTE   N36  Cn3  v068
 BYTE   W36
//  #02 //003   ----------------------------------------
 BYTE   W12
 BYTE   N12  Cn3  v064
 BYTE   W12
 BYTE   Dn3  v072
 BYTE   W12
 BYTE   N48  En3  v084
 BYTE   W48
 BYTE   N12  Dn3  v080
 BYTE   W12
//  #02 //004   ----------------------------------------
 BYTE   Dn3  v064
 BYTE   W12
 BYTE   Cn4  v076
 BYTE   W12
 BYTE   N06  Bn3
 BYTE   W12
 BYTE   N12  Bn3  v068
 BYTE   W12
 BYTE   Cn4
 BYTE   W12
 BYTE   N36  En3
 BYTE   W36
//  #02 //005   ----------------------------------------
 BYTE   W12
 BYTE   N12  Bn3  v056
 BYTE   W12
 BYTE   Cn4  v060
 BYTE   W06
 BYTE   N06  Dn4  v072
 BYTE   W06
 BYTE   N24  En4  v084
 BYTE   W24
 BYTE   Bn3  v072
 BYTE   W36
//  #02 //006   ----------------------------------------
 BYTE   N12  Bn3  v076
 BYTE   W12
 BYTE   Cn4  v080
 BYTE   W12
 BYTE   N06  Dn4  v076
 BYTE   W12
 BYTE   N24  Dn4  v088
 BYTE   W24
 BYTE   N12  An3  v084
 BYTE   W12
 BYTE   Bn3  v068
 BYTE   W12
 BYTE   Cn4  v072
 BYTE   W12
//  #02 //007   ----------------------------------------
 BYTE   Dn4  v076
 BYTE   W12
 BYTE   En4  v080
 BYTE   W12
 BYTE   Fn4  v072
 BYTE   W12
 BYTE   N48  Dn4  v080
 BYTE   W48
 BYTE   N06  En4
 BYTE   W12
//  #02 //008   ----------------------------------------
 BYTE   N12  En3  v064
 BYTE   W12
 BYTE   An3  v068
 BYTE   W12
 BYTE   Bn3
 BYTE   W12
 BYTE   N24  Cn4  v080
 BYTE   W24
 BYTE   En3  v084
 BYTE   W36
//  #02 //009   ----------------------------------------
 BYTE   N12  En3  v064
 BYTE   W12
 BYTE   Bn3  v068
 BYTE   W12
 BYTE   Cn4  v072
 BYTE   W12
 BYTE   Bn3  v080
 BYTE   W24
 BYTE   N24  En3
 BYTE   W36
//  #02 //010   ----------------------------------------
 BYTE   N12  En3  v064
 BYTE   W12
 BYTE   Fn3  v068
 BYTE   W12
 BYTE   Gn3  v076
 BYTE   W12
 BYTE   N24  An3  v084
 BYTE   W24
 BYTE   Cn3  v080
 BYTE   W36
//  #02 //011   ----------------------------------------
 BYTE   N12  Cn3  v072
 BYTE   W12
 BYTE   Cn3  v064
 BYTE   W12
 BYTE   Dn3  v076
 BYTE   W12
 BYTE   N48  En3  v088
 BYTE   W48
 BYTE   N06  Dn3  v068
 BYTE   W12
//  #02 //012   ----------------------------------------
 BYTE   N12  Dn3  v080
 BYTE   W12
 BYTE   Cn4  v076
 BYTE   W12
 BYTE   N06  Bn3
 BYTE   W12
 BYTE   N12
 BYTE   W12
 BYTE   Cn4  v068
 BYTE   W12
 BYTE   N42  An3  v060
 BYTE   W36
//  #02 //013   ----------------------------------------
 BYTE   W12
 BYTE   N12  Bn3  v056
 BYTE   W12
 BYTE   Cn4  v060
 BYTE   W06
 BYTE   N06  Dn4
 BYTE   W06
 BYTE   N24  En4  v076
 BYTE   W24
 BYTE   Bn3  v056
 BYTE   W36
//  #02 //014   ----------------------------------------
 BYTE   N06
 BYTE   W12
 BYTE   N12
 BYTE   W12
 BYTE   Cn4  v072
 BYTE   W12
 BYTE   N24  Dn4  v076
 BYTE   W24
 BYTE   N48  An3  v072
 BYTE   W36
//  #02 //015   ----------------------------------------
 BYTE   W12
 BYTE   N18  Cn4  v080
 BYTE   W24
 BYTE   N36  Cn4  v076
 BYTE   W36
 BYTE   N06  Bn3  v060
 BYTE   W06
 BYTE   An3  v056
 BYTE   W06
 BYTE   N24  Bn3  v076
 BYTE   W12
//  #02 //016   ----------------------------------------
 BYTE   W12
 BYTE   Gn3  v068
 BYTE   W24
 BYTE   N30  An3
 BYTE   W60
//  #02 //017   ----------------------------------------
 BYTE   W96
//  #02 //018   ----------------------------------------
Label_017A7308:
 BYTE   W72
 BYTE   N06  Bn3  v052
 BYTE   W06
 BYTE   Cn4
 BYTE   W06
 BYTE   N36  Dn4
 BYTE   W12
 BYTE   PEND 
//  #02 //019   ----------------------------------------
Label_017A7313:
 BYTE   W24
 BYTE   N06  Cn4  v052
 BYTE   W06
 BYTE   Bn3
 BYTE   W06
 BYTE   N24  Cn4
 BYTE   W60
 BYTE   PEND 
//  #02 //020   ----------------------------------------
 BYTE   PATT
  POIN2 Label_017A7308
//  #02 //021   ----------------------------------------
 BYTE   PATT
  POIN2 Label_017A7313
//  #02 //022   ----------------------------------------
 BYTE   W72
 BYTE   N06  Dn4  v052
 BYTE   W06
 BYTE   En4
 BYTE   W06
 BYTE   N36  Gn4
 BYTE   W12
//  #02 //023   ----------------------------------------
 BYTE   W24
 BYTE   N06  En4
 BYTE   W06
 BYTE   Dn4
 BYTE   W06
 BYTE   N24  En4
 BYTE   W60
//  #02 //024   ----------------------------------------
 BYTE   W96
//  #02 //025   ----------------------------------------
 BYTE   W32
 BYTE   W01
 BYTE   N18  En3  v048
 BYTE   W03
 BYTE   N12  En4
 BYTE   W24
 BYTE   N24  En4  v052
 BYTE   W24
 BYTE   Dn4  v056
 BYTE   W12
//  #02 //026   ----------------------------------------
 BYTE   W12
 BYTE   Bn3
 BYTE   W24
 BYTE   Cn4  v116
 BYTE   W24
 BYTE   N30  En3  v096
 BYTE   W36
//  #02 //027   ----------------------------------------
 BYTE   N12  En3  v088
 BYTE   W12
 BYTE   Bn3  v092
 BYTE   W12
 BYTE   Cn4  v088
 BYTE   W12
 BYTE   N24  Bn3  v096
 BYTE   W24
 BYTE   N30  En3  v092
 BYTE   W36
//  #02 //028   ----------------------------------------
 BYTE   N12  En3  v080
 BYTE   W12
 BYTE   Fn3  v084
 BYTE   W12
 BYTE   N06  Gn3  v092
 BYTE   W12
 BYTE   N24  An3  v100
 BYTE   W24
 BYTE   N36  Cn3  v084
 BYTE   W36
//  #02 //029   ----------------------------------------
 BYTE   W12
 BYTE   N12  Cn3  v080
 BYTE   W12
 BYTE   Dn3  v088
 BYTE   W12
 BYTE   N48  En3  v100
 BYTE   W48
 BYTE   N12  Dn3  v096
 BYTE   W12
//  #02 //030   ----------------------------------------
 BYTE   Dn3  v080
 BYTE   W12
 BYTE   Cn4  v092
 BYTE   W12
 BYTE   N06  Bn3
 BYTE   W12
 BYTE   N12  Bn3  v084
 BYTE   W12
 BYTE   Cn4
 BYTE   W12
 BYTE   N36  En3
 BYTE   W36
//  #02 //031   ----------------------------------------
 BYTE   W12
 BYTE   N12  Bn3  v072
 BYTE   W12
 BYTE   Cn4  v076
 BYTE   W06
 BYTE   N06  Dn4  v088
 BYTE   W06
 BYTE   N24  En4  v104
 BYTE   W24
 BYTE   Bn3  v088
 BYTE   W36
//  #02 //032   ----------------------------------------
 BYTE   N12  Bn3  v092
 BYTE   W12
 BYTE   Cn4  v096
 BYTE   W12
 BYTE   N06  Dn4  v092
 BYTE   W12
 BYTE   N24  Dn4  v108
 BYTE   W24
 BYTE   N12  An3  v100
 BYTE   W12
 BYTE   Bn3  v084
 BYTE   W12
 BYTE   Cn4  v088
 BYTE   W12
//  #02 //033   ----------------------------------------
 BYTE   Dn4  v092
 BYTE   W12
 BYTE   En4  v100
 BYTE   W12
 BYTE   Fn4  v088
 BYTE   W12
 BYTE   N48  Dn4  v096
 BYTE   W48
 BYTE   N06  En4  v100
 BYTE   W12
//  #02 //034   ----------------------------------------
 BYTE   N12  En4  v080
 BYTE   W12
 BYTE   An4  v084
 BYTE   W12
 BYTE   Bn4
 BYTE   W12
 BYTE   N24  Cn5  v100
 BYTE   W24
 BYTE   En4  v104
 BYTE   W36
//  #02 //035   ----------------------------------------
 BYTE   N12  En4  v080
 BYTE   W12
 BYTE   Bn4  v084
 BYTE   W12
 BYTE   Cn5  v088
 BYTE   W12
 BYTE   Bn4  v096
 BYTE   W24
 BYTE   N24  En4
 BYTE   W36
//  #02 //036   ----------------------------------------
 BYTE   N12  En4  v080
 BYTE   W12
 BYTE   Fn4  v084
 BYTE   W12
 BYTE   Gn4  v092
 BYTE   W12
 BYTE   N24  An4  v100
 BYTE   W24
 BYTE   Cn4  v096
 BYTE   W36
//  #02 //037   ----------------------------------------
 BYTE   N12  Cn4  v088
 BYTE   W12
 BYTE   Cn4  v080
 BYTE   W12
 BYTE   Dn4  v092
 BYTE   W12
 BYTE   N48  En4  v104
 BYTE   W48
 BYTE   N06  Dn4  v084
 BYTE   W12
//  #02 //038   ----------------------------------------
 BYTE   N12  Dn4  v096
 BYTE   W12
 BYTE   Cn5  v092
 BYTE   W12
 BYTE   N06  Bn4
 BYTE   W12
 BYTE   N12
 BYTE   W12
 BYTE   Cn5  v084
 BYTE   W12
 BYTE   N42  An4  v076
 BYTE   W36
//  #02 //039   ----------------------------------------
 BYTE   W12
 BYTE   N12  Bn4  v072
 BYTE   W12
 BYTE   Cn5  v076
 BYTE   W06
 BYTE   N06  Dn5
 BYTE   W06
 BYTE   N24  En5  v092
 BYTE   W24
 BYTE   Bn4  v072
 BYTE   W36
//  #02 //040   ----------------------------------------
 BYTE   N06
 BYTE   W12
 BYTE   N12
 BYTE   W12
 BYTE   Cn5  v088
 BYTE   W12
 BYTE   N24  Dn5  v092
 BYTE   W24
 BYTE   N48  An4  v088
 BYTE   W36
//  #02 //041   ----------------------------------------
 BYTE   W12
 BYTE   N18  Cn5  v096
 BYTE   W24
 BYTE   N36  Cn5  v092
 BYTE   W36
 BYTE   N06  Bn4  v076
 BYTE   W06
 BYTE   An4  v072
 BYTE   W06
 BYTE   N24  Bn4  v092
 BYTE   W12
//  #02 //042   ----------------------------------------
 BYTE   W36
 BYTE   Cn5  v072
 BYTE   W24
 BYTE   N36  En4
 BYTE   W36
//  #02 //043   ----------------------------------------
 BYTE   W12
 BYTE   N12  Cn4
 BYTE   W12
 BYTE   Dn4
 BYTE   W12
 BYTE   N36  En4
 BYTE   W60
//  #02 //044   ----------------------------------------
 BYTE   W12
 BYTE   N12  An4
 BYTE   W12
 BYTE   Bn4
 BYTE   W12
 BYTE   N24  Cn5
 BYTE   W24
 BYTE   N36  Fn4
 BYTE   W36
//  #02 //045   ----------------------------------------
 BYTE   W12
 BYTE   N24  Bn4
 BYTE   W24
 BYTE   N36  An4
 BYTE   W60
//  #02 //046   ----------------------------------------
 BYTE   W12
 BYTE   N12
 BYTE   W12
 BYTE   Bn4
 BYTE   W12
 BYTE   N24  Cn5
 BYTE   W24
 BYTE   En4
 BYTE   W36
//  #02 //047   ----------------------------------------
 BYTE   W12
 BYTE   N12  Cn4
 BYTE   W12
 BYTE   Dn4
 BYTE   W12
 BYTE   N24  En4
 BYTE   W60
//  #02 //048   ----------------------------------------
 BYTE   W96
//  #02 //049   ----------------------------------------
 BYTE   W96
//  #02 //050   ----------------------------------------
 BYTE   GoTo
  POIN2 Label_017A71D6
 BYTE   FINE

//**************** Track 3 (Midi-Chn.2) ****************//

LocksQuestEmi_003:
//  #03 //000   ----------------------------------------
 BYTE   KEYSH   LocksQuestEmi_key+0
Label_017A74A6:
 BYTE   VOICE   71
 BYTE   MODT 0
 BYTE   LFOS 44
 BYTE   VOL   44*LocksQuestEmi_mvl/mxv
 BYTE   N11  En4  v052
 BYTE   W12
 BYTE   N12  Dn4
 BYTE   W12
 BYTE   Cn4
 BYTE   W12
 BYTE   An3  v056
 BYTE   W60
//  #03 //001   ----------------------------------------
Label_017A74BA:
 BYTE   N12  En4  v056
 BYTE   W12
 BYTE   Dn4
 BYTE   W12
 BYTE   Cn4
 BYTE   W12
 BYTE   Bn3
 BYTE   W60
 BYTE   PEND 
//  #03 //002   ----------------------------------------
Label_017A74C5:
 BYTE   N12  En4  v056
 BYTE   W12
 BYTE   Dn4
 BYTE   W12
 BYTE   Cn4
 BYTE   W12
 BYTE   An3
 BYTE   W60
 BYTE   PEND 
//  #03 //003   ----------------------------------------
 BYTE   Bn3
 BYTE   W12
 BYTE   Cn4
 BYTE   W12
 BYTE   Dn4
 BYTE   W12
 BYTE   En4
 BYTE   W60
//  #03 //004   ----------------------------------------
 BYTE   PATT
  POIN2 Label_017A74C5
//  #03 //005   ----------------------------------------
 BYTE   PATT
  POIN2 Label_017A74BA
//  #03 //006   ----------------------------------------
 BYTE   PATT
  POIN2 Label_017A74C5
//  #03 //007   ----------------------------------------
 BYTE   N12  Bn3  v056
 BYTE   W12
 BYTE   Cn4
 BYTE   W12
 BYTE   Dn4
 BYTE   W12
 BYTE   Bn3
 BYTE   W60
//  #03 //008   ----------------------------------------
Label_017A74F1:
 BYTE   N12  En4  v060
 BYTE   W12
 BYTE   Dn4
 BYTE   W12
 BYTE   Cn4
 BYTE   W12
 BYTE   An3
 BYTE   W60
 BYTE   PEND 
//  #03 //009   ----------------------------------------
Label_017A74FC:
 BYTE   N12  En4  v060
 BYTE   W12
 BYTE   Dn4
 BYTE   W12
 BYTE   Cn4
 BYTE   W12
 BYTE   Bn3
 BYTE   W60
 BYTE   PEND 
//  #03 //010   ----------------------------------------
 BYTE   PATT
  POIN2 Label_017A74F1
//  #03 //011   ----------------------------------------
 BYTE   N12  Bn3  v060
 BYTE   W12
 BYTE   Cn4
 BYTE   W12
 BYTE   Dn4
 BYTE   W12
 BYTE   En4
 BYTE   W60
//  #03 //012   ----------------------------------------
 BYTE   PATT
  POIN2 Label_017A74F1
//  #03 //013   ----------------------------------------
 BYTE   PATT
  POIN2 Label_017A74FC
//  #03 //014   ----------------------------------------
 BYTE   PATT
  POIN2 Label_017A74F1
//  #03 //015   ----------------------------------------
 BYTE   N12  An3  v060
 BYTE   W24
 BYTE   Bn3
 BYTE   W12
 BYTE   Cn4
 BYTE   W48
 BYTE   Bn3  v064
 BYTE   W12
//  #03 //016   ----------------------------------------
 BYTE   W36
 BYTE   An3
 BYTE   W60
//  #03 //017   ----------------------------------------
 BYTE   W96
//  #03 //018   ----------------------------------------
 BYTE   W96
//  #03 //019   ----------------------------------------
 BYTE   W96
//  #03 //020   ----------------------------------------
 BYTE   W96
//  #03 //021   ----------------------------------------
 BYTE   W96
//  #03 //022   ----------------------------------------
 BYTE   W96
//  #03 //023   ----------------------------------------
 BYTE   W96
//  #03 //024   ----------------------------------------
 BYTE   W96
//  #03 //025   ----------------------------------------
 BYTE   W96
//  #03 //026   ----------------------------------------
 BYTE   W36
 BYTE   N12
 BYTE   W60
//  #03 //027   ----------------------------------------
Label_017A753F:
 BYTE   N12  En4  v064
 BYTE   W12
 BYTE   Dn4
 BYTE   W12
 BYTE   Cn4
 BYTE   W12
 BYTE   Bn3
 BYTE   W60
 BYTE   PEND 
//  #03 //028   ----------------------------------------
Label_017A754A:
 BYTE   N12  En4  v064
 BYTE   W12
 BYTE   Dn4
 BYTE   W12
 BYTE   Cn4
 BYTE   W12
 BYTE   An3
 BYTE   W60
 BYTE   PEND 
//  #03 //029   ----------------------------------------
 BYTE   Bn3
 BYTE   W12
 BYTE   Cn4
 BYTE   W12
 BYTE   Dn4
 BYTE   W12
 BYTE   En4
 BYTE   W60
//  #03 //030   ----------------------------------------
 BYTE   PATT
  POIN2 Label_017A754A
//  #03 //031   ----------------------------------------
 BYTE   PATT
  POIN2 Label_017A753F
//  #03 //032   ----------------------------------------
 BYTE   PATT
  POIN2 Label_017A754A
//  #03 //033   ----------------------------------------
 BYTE   N12  Bn3  v064
 BYTE   W12
 BYTE   Cn4
 BYTE   W12
 BYTE   Dn4
 BYTE   W12
 BYTE   Bn3
 BYTE   W60
//  #03 //034   ----------------------------------------
Label_017A7576:
 BYTE   N12  En4  v068
 BYTE   W12
 BYTE   Dn4
 BYTE   W12
 BYTE   Cn4
 BYTE   W12
 BYTE   An3
 BYTE   W60
 BYTE   PEND 
//  #03 //035   ----------------------------------------
Label_017A7581:
 BYTE   N12  En4  v068
 BYTE   W12
 BYTE   Dn4
 BYTE   W12
 BYTE   Cn4
 BYTE   W12
 BYTE   Bn3
 BYTE   W60
 BYTE   PEND 
//  #03 //036   ----------------------------------------
 BYTE   PATT
  POIN2 Label_017A7576
//  #03 //037   ----------------------------------------
 BYTE   N12  Bn3  v068
 BYTE   W12
 BYTE   Cn4
 BYTE   W12
 BYTE   Dn4
 BYTE   W12
 BYTE   En4
 BYTE   W60
//  #03 //038   ----------------------------------------
 BYTE   PATT
  POIN2 Label_017A7576
//  #03 //039   ----------------------------------------
 BYTE   PATT
  POIN2 Label_017A7581
//  #03 //040   ----------------------------------------
 BYTE   PATT
  POIN2 Label_017A7576
//  #03 //041   ----------------------------------------
 BYTE   N12  An3  v068
 BYTE   W24
 BYTE   Bn3
 BYTE   W12
 BYTE   Cn4
 BYTE   W48
 BYTE   Bn3
 BYTE   W12
//  #03 //042   ----------------------------------------
 BYTE   W36
 BYTE   An3
 BYTE   N12  Fn4  v044
 BYTE   W12
 BYTE   N12
 BYTE   W12
 BYTE   N12
 BYTE   W24
 BYTE   Gn4
 BYTE   W12
//  #03 //043   ----------------------------------------
Label_017A75C0:
 BYTE   N12  Gn4  v044
 BYTE   W12
 BYTE   N12
 BYTE   W24
 BYTE   An4
 BYTE   W12
 BYTE   N12
 BYTE   W12
 BYTE   N12
 BYTE   W24
 BYTE   Gn4
 BYTE   W12
 BYTE   PEND 
//  #03 //044   ----------------------------------------
Label_017A75CF:
 BYTE   N12  Gn4  v044
 BYTE   W12
 BYTE   N12
 BYTE   W24
 BYTE   Dn4
 BYTE   W12
 BYTE   N12
 BYTE   W12
 BYTE   N12
 BYTE   W24
 BYTE   En4
 BYTE   W12
 BYTE   PEND 
//  #03 //045   ----------------------------------------
 BYTE   N12
 BYTE   W12
 BYTE   N12
 BYTE   W24
 BYTE   An4
 BYTE   W12
 BYTE   N12
 BYTE   W12
 BYTE   N12
 BYTE   W24
 BYTE   Gn4
 BYTE   W12
//  #03 //046   ----------------------------------------
 BYTE   N12
 BYTE   W12
 BYTE   Bn4
 BYTE   W24
 BYTE   Fn4
 BYTE   W12
 BYTE   N12
 BYTE   W12
 BYTE   N12
 BYTE   W24
 BYTE   Gn4
 BYTE   W12
//  #03 //047   ----------------------------------------
 BYTE   PATT
  POIN2 Label_017A75C0
//  #03 //048   ----------------------------------------
 BYTE   PATT
  POIN2 Label_017A75CF
//  #03 //049   ----------------------------------------
 BYTE   N12  En4  v044
 BYTE   W12
 BYTE   N12
 BYTE   W24
 BYTE   An4
 BYTE   W12
 BYTE   N12
 BYTE   W12
 BYTE   N12
 BYTE   W12
 BYTE   En4
 BYTE   W12
 BYTE   N12
 BYTE   W12
//  #03 //050   ----------------------------------------
 BYTE   GoTo
  POIN2 Label_017A74A6
 BYTE   FINE

//**************** Track 4 (Midi-Chn.3) ****************//

LocksQuestEmi_004:
//  #04 //000   ----------------------------------------
 BYTE   KEYSH   LocksQuestEmi_key+0
Label_017A761A:
 BYTE   VOICE   19
 BYTE   MODT 0
 BYTE   LFOS 44
 BYTE   VOL   52*LocksQuestEmi_mvl/mxv
 BYTE   W36
 BYTE   TIE  An3  v052
 BYTE   W60
//  #04 //001   ----------------------------------------
 BYTE   W36
 BYTE   N92  En3
 BYTE   W02
 BYTE   EOT
 BYTE   An3
 BYTE   W56
 BYTE   W02
//  #04 //002   ----------------------------------------
 BYTE   W36
 BYTE   TIE  Fn3
 BYTE   W60
//  #04 //003   ----------------------------------------
 BYTE   W36
 BYTE   N48  En3
 BYTE   W02
 BYTE   EOT
 BYTE   Fn3
 BYTE   W44
 BYTE   W02
 BYTE   N48  Dn3
 BYTE   W12
//  #04 //004   ----------------------------------------
Label_017A763E:
 BYTE   W36
 BYTE   TIE  An3  v052
 BYTE   W60
 BYTE   PEND 
//  #04 //005   ----------------------------------------
 BYTE   W36
 BYTE   En3
 BYTE   W01
 BYTE   EOT
 BYTE   An3
 BYTE   W56
 BYTE   W03
//  #04 //006   ----------------------------------------
 BYTE   W36
 BYTE   N96  Dn3
 BYTE   W01
 BYTE   EOT
 BYTE   En3
 BYTE   W56
 BYTE   W03
//  #04 //007   ----------------------------------------
 BYTE   W36
 BYTE   N48  Gn3
 BYTE   W48
 BYTE   Gs3
 BYTE   W12
//  #04 //008   ----------------------------------------
 BYTE   PATT
  POIN2 Label_017A763E
//  #04 //009   ----------------------------------------
 BYTE   W36
 BYTE   N96  En3  v052
 BYTE   N96  En4
 BYTE   W02
 BYTE   EOT
 BYTE   An3
 BYTE   W56
 BYTE   W02
//  #04 //010   ----------------------------------------
Label_017A7669:
 BYTE   W36
 BYTE   N96  Fn3  v052
 BYTE   N96  Fn4
 BYTE   W60
 BYTE   PEND 
//  #04 //011   ----------------------------------------
Label_017A7671:
 BYTE   W36
 BYTE   N48  En3  v052
 BYTE   N48  En4
 BYTE   W48
 BYTE   Dn3
 BYTE   N48  Dn4
 BYTE   W12
 BYTE   PEND 
//  #04 //012   ----------------------------------------
Label_017A767D:
 BYTE   W36
 BYTE   TIE  An3  v052
 BYTE   TIE  An4
 BYTE   W60
 BYTE   PEND 
//  #04 //013   ----------------------------------------
 BYTE   W36
 BYTE   N96  En3
 BYTE   TIE  En4
 BYTE   W01
 BYTE   EOT
 BYTE   An3  v081
 BYTE   W56
 BYTE   W03
//  #04 //014   ----------------------------------------
 BYTE   W36
 BYTE   TIE  Dn3
 BYTE   TIE  Dn4
 BYTE   W01
 BYTE   EOT
 BYTE   En4
 BYTE   W56
 BYTE   W03
//  #04 //015   ----------------------------------------
 BYTE   W36
 BYTE   N48  An3
 BYTE   N48  An4
 BYTE   W01
 BYTE   EOT
 BYTE   Dn3  v074
 BYTE   W44
 BYTE   W03
 BYTE   N48  Gn3
 BYTE   N48  Gn4
 BYTE   W12
//  #04 //016   ----------------------------------------
 BYTE   PATT
  POIN2 Label_017A767D
//  #04 //017   ----------------------------------------
 BYTE   W36
 BYTE   W03
 BYTE   EOT
 BYTE   An4
 BYTE   W02
 BYTE   An3
 BYTE   W54
 BYTE   W01
//  #04 //018   ----------------------------------------
 BYTE   W96
//  #04 //019   ----------------------------------------
 BYTE   W96
//  #04 //020   ----------------------------------------
 BYTE   W96
//  #04 //021   ----------------------------------------
 BYTE   W96
//  #04 //022   ----------------------------------------
 BYTE   W96
//  #04 //023   ----------------------------------------
 BYTE   W96
//  #04 //024   ----------------------------------------
 BYTE   W84
 BYTE   N24  Gn3  v040
 BYTE   W12
//  #04 //025   ----------------------------------------
 BYTE   W12
 BYTE   Fn3  v044
 BYTE   W24
 BYTE   N48  En3
 BYTE   W60
//  #04 //026   ----------------------------------------
Label_017A76C9:
 BYTE   W36
 BYTE   N96  An3  v052
 BYTE   N96  An4
 BYTE   W60
 BYTE   PEND 
//  #04 //027   ----------------------------------------
 BYTE   W36
 BYTE   En3
 BYTE   N96  En4
 BYTE   W60
//  #04 //028   ----------------------------------------
 BYTE   PATT
  POIN2 Label_017A7669
//  #04 //029   ----------------------------------------
 BYTE   PATT
  POIN2 Label_017A7671
//  #04 //030   ----------------------------------------
 BYTE   PATT
  POIN2 Label_017A76C9
//  #04 //031   ----------------------------------------
 BYTE   W36
 BYTE   N96  En3  v052
 BYTE   N96  En4
 BYTE   W60
//  #04 //032   ----------------------------------------
 BYTE   W36
 BYTE   Dn3
 BYTE   N96  Dn4
 BYTE   W60
//  #04 //033   ----------------------------------------
 BYTE   W36
 BYTE   N48  Gn3  v056
 BYTE   N48  Gn4
 BYTE   W48
 BYTE   Gs3
 BYTE   N48  Gs4
 BYTE   W12
//  #04 //034   ----------------------------------------
Label_017A76FC:
 BYTE   W36
 BYTE   N96  An3  v056
 BYTE   N96  An4
 BYTE   W60
 BYTE   PEND 
//  #04 //035   ----------------------------------------
 BYTE   W36
 BYTE   En3
 BYTE   N96  En4
 BYTE   W60
//  #04 //036   ----------------------------------------
 BYTE   W36
 BYTE   Fn3
 BYTE   N96  Fn4
 BYTE   W60
//  #04 //037   ----------------------------------------
 BYTE   W36
 BYTE   N48  En3
 BYTE   N48  En4
 BYTE   W48
 BYTE   Dn3
 BYTE   N54  Dn4
 BYTE   W12
//  #04 //038   ----------------------------------------
 BYTE   PATT
  POIN2 Label_017A76FC
//  #04 //039   ----------------------------------------
 BYTE   W36
 BYTE   N96  En3  v056
 BYTE   N96  En4
 BYTE   W60
//  #04 //040   ----------------------------------------
 BYTE   W36
 BYTE   Dn3
 BYTE   N96  Dn4
 BYTE   W60
//  #04 //041   ----------------------------------------
 BYTE   W36
 BYTE   N54  An3
 BYTE   N48  An4
 BYTE   W48
 BYTE   Gn3
 BYTE   N48  Gn4
 BYTE   W12
//  #04 //042   ----------------------------------------
 BYTE   W36
 BYTE   Fn3  v052
 BYTE   N96  An3  v056
 BYTE   TIE  An4
 BYTE   W48
 BYTE   N48  Gn3
 BYTE   W12
//  #04 //043   ----------------------------------------
 BYTE   W36
 BYTE   N06  An3
 BYTE   W06
 BYTE   EOT
 BYTE   An4
 BYTE   W42
 BYTE   N48  Gn3
 BYTE   W12
//  #04 //044   ----------------------------------------
Label_017A7749:
 BYTE   W36
 BYTE   N48  Dn3  v056
 BYTE   W48
 BYTE   En3
 BYTE   W12
 BYTE   PEND 
//  #04 //045   ----------------------------------------
 BYTE   W36
 BYTE   An3
 BYTE   W48
 BYTE   Bn3
 BYTE   W12
//  #04 //046   ----------------------------------------
 BYTE   W36
 BYTE   Fn3
 BYTE   W48
 BYTE   Gn3
 BYTE   W12
//  #04 //047   ----------------------------------------
 BYTE   W36
 BYTE   An3
 BYTE   W48
 BYTE   Gn3
 BYTE   W12
//  #04 //048   ----------------------------------------
 BYTE   PATT
  POIN2 Label_017A7749
//  #04 //049   ----------------------------------------
 BYTE   W36
 BYTE   N36  An3  v056
 BYTE   W60
//  #04 //050   ----------------------------------------
 BYTE   GoTo
  POIN2 Label_017A761A
 BYTE   FINE

//**************** Track 5 (Midi-Chn.4) ****************//

LocksQuestEmi_005:
//  #05 //000   ----------------------------------------
 BYTE   KEYSH   LocksQuestEmi_key+0
Label_017A777E:
 BYTE   VOICE   47
 BYTE   MODT 0
 BYTE   LFOS 44
 BYTE   PAN   c_v-8
 BYTE   VOL   59*LocksQuestEmi_mvl/mxv
 BYTE   W96
//  #05 //001   ----------------------------------------
 BYTE   W96
//  #05 //002   ----------------------------------------
 BYTE   W96
//  #05 //003   ----------------------------------------
 BYTE   W96
//  #05 //004   ----------------------------------------
 BYTE   W96
//  #05 //005   ----------------------------------------
 BYTE   W96
//  #05 //006   ----------------------------------------
 BYTE   W96
//  #05 //007   ----------------------------------------
 BYTE   W96
//  #05 //008   ----------------------------------------
 BYTE   N12  En2  v028
 BYTE   W12
 BYTE   En2  v044
 BYTE   W12
 BYTE   En2  v064
 BYTE   W12
 BYTE   An2  v092
 BYTE   W60
//  #05 //009   ----------------------------------------
 BYTE   W96
//  #05 //010   ----------------------------------------
 BYTE   W96
//  #05 //011   ----------------------------------------
 BYTE   W96
//  #05 //012   ----------------------------------------
 BYTE   W96
//  #05 //013   ----------------------------------------
 BYTE   W96
//  #05 //014   ----------------------------------------
 BYTE   W96
//  #05 //015   ----------------------------------------
 BYTE   W96
//  #05 //016   ----------------------------------------
 BYTE   W96
//  #05 //017   ----------------------------------------
 BYTE   W96
//  #05 //018   ----------------------------------------
 BYTE   W96
//  #05 //019   ----------------------------------------
 BYTE   W96
//  #05 //020   ----------------------------------------
 BYTE   W96
//  #05 //021   ----------------------------------------
 BYTE   W84
 BYTE   N06  BnM1  v064
 BYTE   N48  As0
 BYTE   W06
 BYTE   N06  BnM1
 BYTE   W06
//  #05 //022   ----------------------------------------
 BYTE   N06
 BYTE   W06
 BYTE   BnM1  v068
 BYTE   W06
 BYTE   N06
 BYTE   W06
 BYTE   N06
 BYTE   W06
 BYTE   N06
 BYTE   W06
 BYTE   BnM1  v072
 BYTE   W06
 BYTE   N66  FsM1  v088
 BYTE   N04  Cn1
 BYTE   W60
//  #05 //023   ----------------------------------------
 BYTE   W96
//  #05 //024   ----------------------------------------
 BYTE   W96
//  #05 //025   ----------------------------------------
 BYTE   W96
//  #05 //026   ----------------------------------------
 BYTE   N12  En2  v028
 BYTE   W12
 BYTE   En2  v044
 BYTE   W12
 BYTE   En2  v064
 BYTE   W12
 BYTE   An2  v088
 BYTE   W60
//  #05 //027   ----------------------------------------
 BYTE   W96
//  #05 //028   ----------------------------------------
 BYTE   W96
//  #05 //029   ----------------------------------------
 BYTE   W96
//  #05 //030   ----------------------------------------
 BYTE   W96
//  #05 //031   ----------------------------------------
 BYTE   W96
//  #05 //032   ----------------------------------------
 BYTE   W96
//  #05 //033   ----------------------------------------
 BYTE   W84
 BYTE   N06  Bn0  v064
 BYTE   N48  As1
 BYTE   W06
 BYTE   N06  Bn0
 BYTE   W06
//  #05 //034   ----------------------------------------
 BYTE   N06
 BYTE   W06
 BYTE   Bn0  v068
 BYTE   W06
 BYTE   N06
 BYTE   W06
 BYTE   N06
 BYTE   W06
 BYTE   N06
 BYTE   W06
 BYTE   Bn0  v072
 BYTE   W06
 BYTE   N04  Cn2  v056
 BYTE   N66  An2  v096
 BYTE   W60
//  #05 //035   ----------------------------------------
 BYTE   W96
//  #05 //036   ----------------------------------------
 BYTE   W96
//  #05 //037   ----------------------------------------
 BYTE   W96
//  #05 //038   ----------------------------------------
 BYTE   W96
//  #05 //039   ----------------------------------------
 BYTE   W96
//  #05 //040   ----------------------------------------
 BYTE   W96
//  #05 //041   ----------------------------------------
 BYTE   W96
//  #05 //042   ----------------------------------------
 BYTE   W36
 BYTE   N05  An2  v072
 BYTE   W24
 BYTE   An2  v036
 BYTE   W12
 BYTE   N04  An2  v040
 BYTE   W12
 BYTE   N05  An2  v072
 BYTE   W12
//  #05 //043   ----------------------------------------
Label_017A7813:
 BYTE   W12
 BYTE   N04  An2  v040
 BYTE   W12
 BYTE   N04
 BYTE   W12
 BYTE   N05  An2  v072
 BYTE   W24
 BYTE   An2  v036
 BYTE   W12
 BYTE   N04  An2  v044
 BYTE   W12
 BYTE   N06  An2  v076
 BYTE   W12
 BYTE   PEND 
//  #05 //044   ----------------------------------------
Label_017A782A:
 BYTE   W12
 BYTE   N05  An2  v040
 BYTE   W12
 BYTE   N04  An2  v048
 BYTE   W12
 BYTE   N05  An2  v072
 BYTE   W24
 BYTE   An2  v036
 BYTE   W12
 BYTE   N04  An2  v040
 BYTE   W12
 BYTE   N05  An2  v072
 BYTE   W12
 BYTE   PEND 
//  #05 //045   ----------------------------------------
 BYTE   PATT
  POIN2 Label_017A7813
//  #05 //046   ----------------------------------------
 BYTE   PATT
  POIN2 Label_017A782A
//  #05 //047   ----------------------------------------
 BYTE   PATT
  POIN2 Label_017A7813
//  #05 //048   ----------------------------------------
 BYTE   PATT
  POIN2 Label_017A782A
//  #05 //049   ----------------------------------------
 BYTE   W12
 BYTE   N04  An2  v040
 BYTE   W12
 BYTE   N04
 BYTE   W12
 BYTE   N05  An2  v072
 BYTE   W24
 BYTE   An2  v036
 BYTE   W12
 BYTE   En1
 BYTE   N04  An2  v044
 BYTE   W12
 BYTE   N12  En1  v036
 BYTE   N12  An2  v076
 BYTE   W12
//  #05 //050   ----------------------------------------
 BYTE   GoTo
  POIN2 Label_017A777E
 BYTE   FINE

//**************** Track 6 (Midi-Chn.5) ****************//

LocksQuestEmi_006:
//  #06 //000   ----------------------------------------
 BYTE   KEYSH   LocksQuestEmi_key+0
Label_017A787A:
 BYTE   VOICE   75
 BYTE   MODT 0
 BYTE   LFOS 44
 BYTE   VOL   56*LocksQuestEmi_mvl/mxv
 BYTE   PAN   c_v-11
 BYTE   W96
//  #06 //001   ----------------------------------------
 BYTE   W96
//  #06 //002   ----------------------------------------
 BYTE   W96
//  #06 //003   ----------------------------------------
 BYTE   W96
//  #06 //004   ----------------------------------------
 BYTE   W96
//  #06 //005   ----------------------------------------
 BYTE   W96
//  #06 //006   ----------------------------------------
 BYTE   W96
//  #06 //007   ----------------------------------------
 BYTE   W96
//  #06 //008   ----------------------------------------
 BYTE   W96
//  #06 //009   ----------------------------------------
 BYTE   W96
//  #06 //010   ----------------------------------------
 BYTE   W96
//  #06 //011   ----------------------------------------
 BYTE   W96
//  #06 //012   ----------------------------------------
 BYTE   W96
//  #06 //013   ----------------------------------------
 BYTE   W96
//  #06 //014   ----------------------------------------
 BYTE   W96
//  #06 //015   ----------------------------------------
 BYTE   W96
//  #06 //016   ----------------------------------------
 BYTE   W96
//  #06 //017   ----------------------------------------
 BYTE   W60
 BYTE   N24  Bn2  v036
 BYTE   N24  Bn3
 BYTE   W24
 BYTE   An2
 BYTE   N24  An3
 BYTE   W12
//  #06 //018   ----------------------------------------
 BYTE   W12
 BYTE   Gn2
 BYTE   N24  Gn3
 BYTE   W24
 BYTE   TIE  An2
 BYTE   TIE  An3
 BYTE   W60
//  #06 //019   ----------------------------------------
 BYTE   W42
 BYTE   EOT
 BYTE   An2  v069
 BYTE   W18
 BYTE   N24  Bn2
 BYTE   N24  Bn3
 BYTE   W24
 BYTE   An2
 BYTE   N24  An3
 BYTE   W12
//  #06 //020   ----------------------------------------
 BYTE   W12
 BYTE   Gn2
 BYTE   N24  Gn3
 BYTE   W24
 BYTE   TIE  An2
 BYTE   TIE  En3
 BYTE   W60
//  #06 //021   ----------------------------------------
 BYTE   W36
 BYTE   W03
 BYTE   EOT
 BYTE   An2  v064
 BYTE   W21
 BYTE   N24  Bn2
 BYTE   N24  Bn3
 BYTE   W24
 BYTE   Cn3
 BYTE   N24  Cn4
 BYTE   W12
//  #06 //022   ----------------------------------------
 BYTE   W12
 BYTE   Dn3  v040
 BYTE   N24  Dn4
 BYTE   W24
 BYTE   TIE  En3
 BYTE   TIE  En4
 BYTE   W60
//  #06 //023   ----------------------------------------
 BYTE   W42
 BYTE   EOT
 BYTE   En3  v076
 BYTE   W18
 BYTE   N24  En3
 BYTE   N24  En4
 BYTE   W24
 BYTE   Dn3
 BYTE   N24  Dn4
 BYTE   W12
//  #06 //024   ----------------------------------------
 BYTE   W12
 BYTE   Cn3
 BYTE   N24  Cn4
 BYTE   W24
 BYTE   TIE  Dn3
 BYTE   TIE  Dn4
 BYTE   W60
//  #06 //025   ----------------------------------------
 BYTE   W42
 BYTE   EOT
 BYTE   Dn3  v074
 BYTE   W18
 BYTE   N24  En3
 BYTE   N24  En4
 BYTE   W24
 BYTE   Dn3
 BYTE   N24  Dn4
 BYTE   W12
//  #06 //026   ----------------------------------------
 BYTE   W12
 BYTE   Bn2
 BYTE   N24  Bn3
 BYTE   W24
 BYTE   N72  Cn4  v044
 BYTE   W60
//  #06 //027   ----------------------------------------
Label_017A790B:
 BYTE   W12
 BYTE   N12  Cn4  v044
 BYTE   W12
 BYTE   N06  Dn4
 BYTE   W06
 BYTE   En4
 BYTE   W06
 BYTE   N72  Bn3
 BYTE   W60
 BYTE   PEND 
//  #06 //028   ----------------------------------------
Label_017A7919:
 BYTE   W12
 BYTE   N12  Bn3  v044
 BYTE   W12
 BYTE   N06  Cn4
 BYTE   W06
 BYTE   Dn4
 BYTE   W06
 BYTE   N60  An3
 BYTE   W60
 BYTE   PEND 
//  #06 //029   ----------------------------------------
Label_017A7927:
 BYTE   N12  An3  v044
 BYTE   W12
 BYTE   Cn4
 BYTE   W12
 BYTE   N06  Bn3
 BYTE   W06
 BYTE   An3
 BYTE   W06
 BYTE   N96  Gn3
 BYTE   W60
 BYTE   PEND 
//  #06 //030   ----------------------------------------
 BYTE   W36
 BYTE   N84  Cn4
 BYTE   W60
//  #06 //031   ----------------------------------------
Label_017A793A:
 BYTE   W24
 BYTE   N06  Dn4  v044
 BYTE   W06
 BYTE   En4
 BYTE   W06
 BYTE   N24  Gn4
 BYTE   W24
 BYTE   N60  Bn3
 BYTE   W36
 BYTE   PEND 
//  #06 //032   ----------------------------------------
Label_017A7948:
 BYTE   W24
 BYTE   N06  Cn4  v044
 BYTE   W06
 BYTE   Cs4
 BYTE   W06
 BYTE   N60  Dn4
 BYTE   W60
 BYTE   PEND 
//  #06 //033   ----------------------------------------
 BYTE   N12  Cn4
 BYTE   W12
 BYTE   Bn3
 BYTE   W12
 BYTE   Cn4
 BYTE   W12
 BYTE   N48  Dn4
 BYTE   W48
 BYTE   En4
 BYTE   W12
//  #06 //034   ----------------------------------------
 BYTE   W36
 BYTE   N72  Cn4
 BYTE   W60
//  #06 //035   ----------------------------------------
 BYTE   PATT
  POIN2 Label_017A790B
//  #06 //036   ----------------------------------------
 BYTE   PATT
  POIN2 Label_017A7919
//  #06 //037   ----------------------------------------
 BYTE   PATT
  POIN2 Label_017A7927
//  #06 //038   ----------------------------------------
 BYTE   W36
 BYTE   N84  Cn4  v044
 BYTE   W60
//  #06 //039   ----------------------------------------
 BYTE   PATT
  POIN2 Label_017A793A
//  #06 //040   ----------------------------------------
 BYTE   PATT
  POIN2 Label_017A7948
//  #06 //041   ----------------------------------------
 BYTE   N12  Cn4  v044
 BYTE   W12
 BYTE   Bn3
 BYTE   W12
 BYTE   Cn4
 BYTE   W12
 BYTE   N48
 BYTE   W48
 BYTE   Bn3
 BYTE   W12
//  #06 //042   ----------------------------------------
 BYTE   W96
//  #06 //043   ----------------------------------------
 BYTE   W96
//  #06 //044   ----------------------------------------
 BYTE   W36
 BYTE   N24  En3  v040
 BYTE   W24
 BYTE   Cn3
 BYTE   W24
 BYTE   Dn3
 BYTE   W12
//  #06 //045   ----------------------------------------
 BYTE   W12
 BYTE   N12  En3
 BYTE   W12
 BYTE   Fn3
 BYTE   W12
 BYTE   N24  En3
 BYTE   W24
 BYTE   N72  Cn3
 BYTE   W36
//  #06 //046   ----------------------------------------
 BYTE   W96
//  #06 //047   ----------------------------------------
 BYTE   W96
//  #06 //048   ----------------------------------------
 BYTE   W96
//  #06 //049   ----------------------------------------
 BYTE   W96
//  #06 //050   ----------------------------------------
 BYTE   GoTo
  POIN2 Label_017A787A
 BYTE   FINE

//**************** Track 7 (Midi-Chn.6) ****************//

LocksQuestEmi_007:
//  #07 //000   ----------------------------------------
 BYTE   KEYSH   LocksQuestEmi_key+0
Label_017A79B2:
 BYTE   VOICE   14
 BYTE   MODT 0
 BYTE   LFOS 44
 BYTE   PAN   c_v+8
 BYTE   VOL   66*LocksQuestEmi_mvl/mxv
 BYTE   W96
//  #07 //001   ----------------------------------------
 BYTE   W96
//  #07 //002   ----------------------------------------
 BYTE   W96
//  #07 //003   ----------------------------------------
 BYTE   W96
//  #07 //004   ----------------------------------------
 BYTE   W96
//  #07 //005   ----------------------------------------
 BYTE   W96
//  #07 //006   ----------------------------------------
 BYTE   W96
//  #07 //007   ----------------------------------------
 BYTE   W96
//  #07 //008   ----------------------------------------
 BYTE   N12  En3  v040
 BYTE   W12
 BYTE   An3
 BYTE   W12
 BYTE   Bn3
 BYTE   W12
 BYTE   N24  Cn4
 BYTE   W24
 BYTE   En3
 BYTE   W36
//  #07 //009   ----------------------------------------
 BYTE   N12
 BYTE   W12
 BYTE   Bn3
 BYTE   W12
 BYTE   Cn4
 BYTE   W12
 BYTE   Bn3
 BYTE   W24
 BYTE   N24  En3
 BYTE   W36
//  #07 //010   ----------------------------------------
 BYTE   N12
 BYTE   W12
 BYTE   Fn3
 BYTE   W12
 BYTE   Gn3
 BYTE   W12
 BYTE   N24  An3
 BYTE   W24
 BYTE   Cn3
 BYTE   W36
//  #07 //011   ----------------------------------------
 BYTE   N12
 BYTE   W12
 BYTE   N12
 BYTE   W12
 BYTE   Dn3
 BYTE   W12
 BYTE   N48  En3
 BYTE   W48
 BYTE   N06  Dn3
 BYTE   W12
//  #07 //012   ----------------------------------------
 BYTE   N12
 BYTE   W12
 BYTE   Cn4
 BYTE   W12
 BYTE   N06  Bn3
 BYTE   W12
 BYTE   N12
 BYTE   W12
 BYTE   Cn4
 BYTE   W12
 BYTE   N42  An3
 BYTE   W36
//  #07 //013   ----------------------------------------
 BYTE   W12
 BYTE   N12  Bn3
 BYTE   W12
 BYTE   Cn4
 BYTE   W06
 BYTE   N06  Dn4
 BYTE   W06
 BYTE   N24  En4
 BYTE   W24
 BYTE   Bn3
 BYTE   W36
//  #07 //014   ----------------------------------------
 BYTE   N06
 BYTE   W12
 BYTE   N12
 BYTE   W12
 BYTE   Cn4
 BYTE   W12
 BYTE   N24  Dn4
 BYTE   W24
 BYTE   N48  An3
 BYTE   W36
//  #07 //015   ----------------------------------------
 BYTE   W12
 BYTE   N18  Cn4
 BYTE   W24
 BYTE   N36
 BYTE   W36
 BYTE   N06  Bn3
 BYTE   W06
 BYTE   An3
 BYTE   W06
 BYTE   N24  Bn3
 BYTE   W12
//  #07 //016   ----------------------------------------
 BYTE   W12
 BYTE   Gn3
 BYTE   W24
 BYTE   N30  An3
 BYTE   W60
//  #07 //017   ----------------------------------------
 BYTE   W96
//  #07 //018   ----------------------------------------
 BYTE   W96
//  #07 //019   ----------------------------------------
 BYTE   W96
//  #07 //020   ----------------------------------------
 BYTE   W96
//  #07 //021   ----------------------------------------
 BYTE   W96
//  #07 //022   ----------------------------------------
 BYTE   W96
//  #07 //023   ----------------------------------------
 BYTE   W96
//  #07 //024   ----------------------------------------
 BYTE   W96
//  #07 //025   ----------------------------------------
 BYTE   W96
//  #07 //026   ----------------------------------------
 BYTE   W96
//  #07 //027   ----------------------------------------
 BYTE   W96
//  #07 //028   ----------------------------------------
 BYTE   W96
//  #07 //029   ----------------------------------------
 BYTE   W96
//  #07 //030   ----------------------------------------
 BYTE   W36
 BYTE   N44  An3  v036
 BYTE   W60
//  #07 //031   ----------------------------------------
 BYTE   W36
 BYTE   N56  Gn3
 BYTE   W60
//  #07 //032   ----------------------------------------
 BYTE   W36
 BYTE   N36  Fn3
 BYTE   W60
//  #07 //033   ----------------------------------------
 BYTE   W36
 BYTE   Gn3
 BYTE   W48
 BYTE   Gs3
 BYTE   W12
//  #07 //034   ----------------------------------------
 BYTE   N12  En3  v060
 BYTE   W12
 BYTE   An3
 BYTE   W12
 BYTE   Bn3
 BYTE   W12
 BYTE   N24  Cn4
 BYTE   W24
 BYTE   En3
 BYTE   W36
//  #07 //035   ----------------------------------------
 BYTE   N12
 BYTE   W12
 BYTE   Bn3
 BYTE   W12
 BYTE   Cn4
 BYTE   W12
 BYTE   Bn3
 BYTE   W24
 BYTE   N24  En3
 BYTE   W36
//  #07 //036   ----------------------------------------
 BYTE   N12
 BYTE   W12
 BYTE   Fn3
 BYTE   W12
 BYTE   Gn3
 BYTE   W12
 BYTE   N24  An3
 BYTE   W24
 BYTE   Cn3
 BYTE   W36
//  #07 //037   ----------------------------------------
 BYTE   N12
 BYTE   W12
 BYTE   N12
 BYTE   W12
 BYTE   Dn3
 BYTE   W12
 BYTE   N48  En3
 BYTE   W48
 BYTE   N06  Dn3
 BYTE   W12
//  #07 //038   ----------------------------------------
 BYTE   N12
 BYTE   W12
 BYTE   Cn4
 BYTE   W12
 BYTE   N06  Bn3
 BYTE   W12
 BYTE   N12
 BYTE   W12
 BYTE   Cn4
 BYTE   W12
 BYTE   N42  An3
 BYTE   W36
//  #07 //039   ----------------------------------------
 BYTE   W12
 BYTE   N12  Bn3
 BYTE   W12
 BYTE   N06  Cn4
 BYTE   W06
 BYTE   Dn4
 BYTE   W06
 BYTE   N24  En4
 BYTE   W24
 BYTE   Bn3
 BYTE   W36
//  #07 //040   ----------------------------------------
 BYTE   N06
 BYTE   W12
 BYTE   N12
 BYTE   W12
 BYTE   Cn4
 BYTE   W12
 BYTE   N24  Dn4
 BYTE   W24
 BYTE   N48  An3
 BYTE   W36
//  #07 //041   ----------------------------------------
 BYTE   W12
 BYTE   N18  Cn4
 BYTE   W24
 BYTE   N36
 BYTE   W36
 BYTE   N06  Bn3
 BYTE   W06
 BYTE   An3
 BYTE   W06
 BYTE   N24  Bn3
 BYTE   W12
//  #07 //042   ----------------------------------------
 BYTE   W96
//  #07 //043   ----------------------------------------
 BYTE   W96
//  #07 //044   ----------------------------------------
 BYTE   W96
//  #07 //045   ----------------------------------------
 BYTE   W96
//  #07 //046   ----------------------------------------
 BYTE   W36
 BYTE   En3  v044
 BYTE   W24
 BYTE   Cn3
 BYTE   W24
 BYTE   Dn3
 BYTE   W12
//  #07 //047   ----------------------------------------
 BYTE   W12
 BYTE   N12  En3
 BYTE   W12
 BYTE   Fn3
 BYTE   W12
 BYTE   N24  En3
 BYTE   W24
 BYTE   N36  Cn3
 BYTE   W36
//  #07 //048   ----------------------------------------
 BYTE   W96
//  #07 //049   ----------------------------------------
 BYTE   W96
//  #07 //050   ----------------------------------------
 BYTE   GoTo
  POIN2 Label_017A79B2
 BYTE   FINE

//******************************************************//
	ALIGN 4

LocksQuestEmi:
	BYTE	7	// NumTrks
	BYTE	0	// NumBlks
	BYTE	LocksQuestEmi_pri	// Priority
	BYTE	LocksQuestEmi_rev	// Reverb.
    
	POIN2	LocksQuestEmi_grp
    
	POIN2	LocksQuestEmi_001
	POIN2	LocksQuestEmi_002
	POIN2	LocksQuestEmi_003
	POIN2	LocksQuestEmi_004
	POIN2	LocksQuestEmi_005
	POIN2	LocksQuestEmi_006
	POIN2	LocksQuestEmi_007

	
