//Event file generated from Sappy .s format.
	#include "MPlayDef.event"

	#define	SonicAdvance3ChaosAngelAct1MeatOfJustice_grp  voicegroup000
	#define	SonicAdvance3ChaosAngelAct1MeatOfJustice_pri  0
	#define	SonicAdvance3ChaosAngelAct1MeatOfJustice_rev  0
	#define	SonicAdvance3ChaosAngelAct1MeatOfJustice_mvl  127
	#define	SonicAdvance3ChaosAngelAct1MeatOfJustice_key  0
	#define	SonicAdvance3ChaosAngelAct1MeatOfJustice_tbs  1
	#define	SonicAdvance3ChaosAngelAct1MeatOfJustice_exg  0
	#define	SonicAdvance3ChaosAngelAct1MeatOfJustice_cmp  1

	// .rodata
	//	SonicAdvance3ChaosAngelAct1MeatOfJustice
	ALIGN 4


//**************** Track 1 (Midi-Chn.0) ****************//

SonicAdvance3ChaosAngelAct1MeatOfJustice_001:
//  #01 //000   ----------------------------------------
 BYTE   KEYSH   SonicAdvance3ChaosAngelAct1MeatOfJustice_key+0
 BYTE   TEMPO   150*SonicAdvance3ChaosAngelAct1MeatOfJustice_tbs/2
 BYTE   VOICE   47
 BYTE   MODT 0
 BYTE   LFOS 44
 BYTE   VOL   56*SonicAdvance3ChaosAngelAct1MeatOfJustice_mvl/mxv
 BYTE   MODT 0
 BYTE   LFOS 44
 BYTE   N12  Gs2  v072
 BYTE   N12  An2
 BYTE   W72
 BYTE   Gs2
 BYTE   N12  An2
 BYTE   W18
 BYTE   Gs2
 BYTE   N12  An2
 BYTE   W06
//  #01 //001   ----------------------------------------
 BYTE   W96
//  #01 //002   ----------------------------------------
Label_01237EBF:
 BYTE   N12  Gs2  v072
 BYTE   N12  An2
 BYTE   W48
 BYTE   Gs2
 BYTE   N12  An2
 BYTE   W48
 BYTE   PEND 
//  #01 //003   ----------------------------------------
 BYTE   Gs2
 BYTE   N12  An2
 BYTE   W24
 BYTE   Gs2  v016
 BYTE   N12  An2
 BYTE   W24
 BYTE   Gs2  v036
 BYTE   N12  An2
 BYTE   W24
 BYTE   Gs2  v072
 BYTE   N12  An2
 BYTE   W24
//  #01 //004   ----------------------------------------
Label_01237EDD:
 BYTE   TEMPO   150*SonicAdvance3ChaosAngelAct1MeatOfJustice_tbs/2
 BYTE   N12  Gs2  v036
 BYTE   N12  An2
 BYTE   W96
 BYTE   PEND 
//  #01 //005   ----------------------------------------
 BYTE   Gs2
 BYTE   N12  An2
 BYTE   W96
//  #01 //006   ----------------------------------------
 BYTE   Gs2
 BYTE   N12  An2
 BYTE   W96
//  #01 //007   ----------------------------------------
 BYTE   Gs2
 BYTE   N12  An2
 BYTE   W96
//  #01 //008   ----------------------------------------
 BYTE   Gs2
 BYTE   N12  An2
 BYTE   W96
//  #01 //009   ----------------------------------------
 BYTE   Gs2
 BYTE   N12  An2
 BYTE   W96
//  #01 //010   ----------------------------------------
 BYTE   Gs2
 BYTE   N12  An2
 BYTE   W96
//  #01 //011   ----------------------------------------
 BYTE   Gs2
 BYTE   N12  An2
 BYTE   W96
//  #01 //012   ----------------------------------------
 BYTE   Gs2
 BYTE   N12  An2
 BYTE   W96
//  #01 //013   ----------------------------------------
 BYTE   W96
//  #01 //014   ----------------------------------------
 BYTE   W96
//  #01 //015   ----------------------------------------
 BYTE   W96
//  #01 //016   ----------------------------------------
 BYTE   W96
//  #01 //017   ----------------------------------------
 BYTE   W96
//  #01 //018   ----------------------------------------
 BYTE   W96
//  #01 //019   ----------------------------------------
 BYTE   W96
//  #01 //020   ----------------------------------------
Label_01237F0D:
 BYTE   N12  Gs2  v072
 BYTE   N12  An2
 BYTE   W96
//  #01 //021   ----------------------------------------
 BYTE   Gs2
 BYTE   N12  An2
 BYTE   W96
//  #01 //022   ----------------------------------------
 BYTE   Gs2
 BYTE   N12  An2
 BYTE   W96
//  #01 //023   ----------------------------------------
 BYTE   Gs2
 BYTE   N12  An2
 BYTE   W96
//  #01 //024   ----------------------------------------
 BYTE   W96
//  #01 //025   ----------------------------------------
 BYTE   W96
//  #01 //026   ----------------------------------------
 BYTE   W96
//  #01 //027   ----------------------------------------
 BYTE   PATT
  POIN2 Label_01237EBF
//  #01 //028   ----------------------------------------
 BYTE   PATT
  POIN2 Label_01237EBF
//  #01 //029   ----------------------------------------
 BYTE   PATT
  POIN2 Label_01237EBF
//  #01 //030   ----------------------------------------
 BYTE   PATT
  POIN2 Label_01237EBF
//  #01 //031   ----------------------------------------
 BYTE   PATT
  POIN2 Label_01237EBF
//  #01 //032   ----------------------------------------
 BYTE   PATT
  POIN2 Label_01237EBF
//  #01 //033   ----------------------------------------
 BYTE   PATT
  POIN2 Label_01237EBF
//  #01 //034   ----------------------------------------
 BYTE   PATT
  POIN2 Label_01237EBF
//  #01 //035   ----------------------------------------
 BYTE   TEMPO   150*SonicAdvance3ChaosAngelAct1MeatOfJustice_tbs/2
 BYTE   W96
//  #01 //036   ----------------------------------------
 BYTE   W96
//  #01 //037   ----------------------------------------
 BYTE   W96
//  #01 //038   ----------------------------------------
 BYTE   W96
//  #01 //039   ----------------------------------------
 BYTE   W96
//  #01 //040   ----------------------------------------
 BYTE   W96
//  #01 //041   ----------------------------------------
 BYTE   W96
//  #01 //042   ----------------------------------------
 BYTE   W96
//  #01 //043   ----------------------------------------
 BYTE   W96
//  #01 //044   ----------------------------------------
 BYTE   W96
//  #01 //045   ----------------------------------------
 BYTE   W96
//  #01 //046   ----------------------------------------
 BYTE   W96
//  #01 //047   ----------------------------------------
 BYTE   W96
//  #01 //048   ----------------------------------------
 BYTE   W96
//  #01 //049   ----------------------------------------
 BYTE   W96
//  #01 //050   ----------------------------------------
 BYTE   W96
//  #01 //051   ----------------------------------------
 BYTE   N12  Gs2  v072
 BYTE   N12  An2
 BYTE   W96
//  #01 //052   ----------------------------------------
 BYTE   Gs2
 BYTE   N12  An2
 BYTE   W96
//  #01 //053   ----------------------------------------
 BYTE   Gs2
 BYTE   N12  An2
 BYTE   W96
//  #01 //054   ----------------------------------------
 BYTE   W96
//  #01 //055   ----------------------------------------
 BYTE   Gs2
 BYTE   N12  An2
 BYTE   W96
//  #01 //056   ----------------------------------------
 BYTE   Gs2
 BYTE   N12  An2
 BYTE   W96
//  #01 //057   ----------------------------------------
 BYTE   Gs2
 BYTE   N12  An2
 BYTE   W96
//  #01 //058   ----------------------------------------
 BYTE   W96
//  #01 //059   ----------------------------------------
 BYTE   Gs2
 BYTE   N12  An2
 BYTE   W96
//  #01 //060   ----------------------------------------
 BYTE   Gs2
 BYTE   N12  An2
 BYTE   W96
//  #01 //061   ----------------------------------------
 BYTE   Gs2
 BYTE   N12  An2
 BYTE   W96
//  #01 //062   ----------------------------------------
 BYTE   W96
//  #01 //063   ----------------------------------------
 BYTE   Gs2
 BYTE   N12  An2
 BYTE   W96
//  #01 //064   ----------------------------------------
 BYTE   Gs2
 BYTE   N12  An2
 BYTE   W96
//  #01 //065   ----------------------------------------
 BYTE   Gs2
 BYTE   N12  An2
 BYTE   W96
//  #01 //066   ----------------------------------------
 BYTE   W96
//  #01 //067   ----------------------------------------
 BYTE   PATT
  POIN2 Label_01237EBF
//  #01 //068   ----------------------------------------
 BYTE   PATT
  POIN2 Label_01237EBF
//  #01 //069   ----------------------------------------
 BYTE   PATT
  POIN2 Label_01237EBF
//  #01 //070   ----------------------------------------
Label_01237FA1:
 BYTE   N12  Gs2  v072
 BYTE   N12  An2
 BYTE   W48
 BYTE   Gs2
 BYTE   N12  An2
 BYTE   W44
 BYTE   W03
 BYTE   TEMPO   150*SonicAdvance3ChaosAngelAct1MeatOfJustice_tbs/2
 BYTE   W01
 BYTE   PEND 
//  #01 //071   ----------------------------------------
 BYTE   PATT
  POIN2 Label_01237EBF
//  #01 //072   ----------------------------------------
 BYTE   PATT
  POIN2 Label_01237EBF
//  #01 //073   ----------------------------------------
 BYTE   PATT
  POIN2 Label_01237EBF
//  #01 //074   ----------------------------------------
 BYTE   PATT
  POIN2 Label_01237FA1
//  #01 //075   ----------------------------------------
 BYTE   N12  Gs2  v036
 BYTE   N12  An2
 BYTE   W96
//  #01 //076   ----------------------------------------
 BYTE   Gs2
 BYTE   N12  An2
 BYTE   W96
//  #01 //077   ----------------------------------------
 BYTE   Gs2
 BYTE   N12  An2
 BYTE   W96
//  #01 //078   ----------------------------------------
 BYTE   Gs2
 BYTE   N12  An2
 BYTE   W96
//  #01 //079   ----------------------------------------
 BYTE   Gs2
 BYTE   N12  An2
 BYTE   W96
//  #01 //080   ----------------------------------------
 BYTE   Gs2
 BYTE   N12  An2
 BYTE   W96
//  #01 //081   ----------------------------------------
 BYTE   Gs2
 BYTE   N12  An2
 BYTE   W96
//  #01 //082   ----------------------------------------
 BYTE   Gs2
 BYTE   N12  An2
 BYTE   W96
//  #01 //083   ----------------------------------------
 BYTE   Gs2
 BYTE   N12  An2
 BYTE   W96
//  #01 //084   ----------------------------------------
 BYTE   W96
//  #01 //085   ----------------------------------------
 BYTE   W96
//  #01 //086   ----------------------------------------
 BYTE   W96
//  #01 //087   ----------------------------------------
 BYTE   W96
//  #01 //088   ----------------------------------------
 BYTE   W96
//  #01 //089   ----------------------------------------
 BYTE   W96
//  #01 //090   ----------------------------------------
 BYTE   W96
//  #01 //091   ----------------------------------------
 BYTE   Gs2  v072
 BYTE   N12  An2
 BYTE   W96
//  #01 //092   ----------------------------------------
 BYTE   Gs2
 BYTE   N12  An2
 BYTE   W96
//  #01 //093   ----------------------------------------
 BYTE   Gs2
 BYTE   N12  An2
 BYTE   W96
//  #01 //094   ----------------------------------------
 BYTE   Gs2
 BYTE   N12  An2
 BYTE   W96
//  #01 //095   ----------------------------------------
 BYTE   W96
//  #01 //096   ----------------------------------------
 BYTE   W96
//  #01 //097   ----------------------------------------
 BYTE   W96
//  #01 //098   ----------------------------------------
 BYTE   PATT
  POIN2 Label_01237EBF
//  #01 //099   ----------------------------------------
 BYTE   PATT
  POIN2 Label_01237EBF
//  #01 //100   ----------------------------------------
 BYTE   PATT
  POIN2 Label_01237EBF
//  #01 //101   ----------------------------------------
 BYTE   PATT
  POIN2 Label_01237EBF
//  #01 //102   ----------------------------------------
 BYTE   PATT
  POIN2 Label_01237EBF
//  #01 //103   ----------------------------------------
 BYTE   PATT
  POIN2 Label_01237EBF
//  #01 //104   ----------------------------------------
 BYTE   PATT
  POIN2 Label_01237EBF
//  #01 //105   ----------------------------------------
 BYTE   PATT
  POIN2 Label_01237EBF
//  #01 //106   ----------------------------------------
 BYTE   W96
//  #01 //107   ----------------------------------------
 BYTE   W96
//  #01 //108   ----------------------------------------
 BYTE   W96
//  #01 //109   ----------------------------------------
 BYTE   W96
//  #01 //110   ----------------------------------------
 BYTE   W96
//  #01 //111   ----------------------------------------
 BYTE   W96
//  #01 //112   ----------------------------------------
 BYTE   W96
//  #01 //113   ----------------------------------------
 BYTE   W96
//  #01 //114   ----------------------------------------
 BYTE   W96
//  #01 //115   ----------------------------------------
 BYTE   W96
//  #01 //116   ----------------------------------------
 BYTE   W96
//  #01 //117   ----------------------------------------
 BYTE   W96
//  #01 //118   ----------------------------------------
 BYTE   W96
//  #01 //119   ----------------------------------------
 BYTE   W96
//  #01 //120   ----------------------------------------
 BYTE   W96
//  #01 //121   ----------------------------------------
 BYTE   W96
//  #01 //122   ----------------------------------------
 BYTE   N12  Gs2  v072
 BYTE   N12  An2
 BYTE   W96
//  #01 //123   ----------------------------------------
 BYTE   Gs2
 BYTE   N12  An2
 BYTE   W96
//  #01 //124   ----------------------------------------
 BYTE   Gs2
 BYTE   N12  An2
 BYTE   W96
//  #01 //125   ----------------------------------------
 BYTE   W96
//  #01 //126   ----------------------------------------
 BYTE   Gs2
 BYTE   N12  An2
 BYTE   W96
//  #01 //127   ----------------------------------------
 BYTE   Gs2
 BYTE   N12  An2
 BYTE   W96
//  #01 //128   ----------------------------------------
 BYTE   Gs2
 BYTE   N12  An2
 BYTE   W96
//  #01 //129   ----------------------------------------
 BYTE   W96
//  #01 //130   ----------------------------------------
 BYTE   Gs2
 BYTE   N12  An2
 BYTE   W96
//  #01 //131   ----------------------------------------
 BYTE   Gs2
 BYTE   N12  An2
 BYTE   W96
//  #01 //132   ----------------------------------------
 BYTE   Gs2
 BYTE   N12  An2
 BYTE   W96
//  #01 //133   ----------------------------------------
 BYTE   W96
//  #01 //134   ----------------------------------------
 BYTE   Gs2
 BYTE   N12  An2
 BYTE   W96
//  #01 //135   ----------------------------------------
 BYTE   Gs2
 BYTE   N12  An2
 BYTE   W96
//  #01 //136   ----------------------------------------
 BYTE   Gs2
 BYTE   N12  An2
 BYTE   W96
//  #01 //137   ----------------------------------------
 BYTE   W96
//  #01 //138   ----------------------------------------
 BYTE   PATT
  POIN2 Label_01237EBF
//  #01 //139   ----------------------------------------
 BYTE   PATT
  POIN2 Label_01237EBF
//  #01 //140   ----------------------------------------
 BYTE   PATT
  POIN2 Label_01237EBF
//  #01 //141   ----------------------------------------
 BYTE   PATT
  POIN2 Label_01237EBF
//  #01 //142   ----------------------------------------
 BYTE   TEMPO   150*SonicAdvance3ChaosAngelAct1MeatOfJustice_tbs/2
 BYTE   N12  Gs2  v072
 BYTE   N12  An2
 BYTE   W48
 BYTE   Gs2
 BYTE   N12  An2
 BYTE   W48
//  #01 //143   ----------------------------------------
 BYTE   PATT
  POIN2 Label_01237EBF
//  #01 //144   ----------------------------------------
 BYTE   PATT
  POIN2 Label_01237EBF
//  #01 //145   ----------------------------------------
 BYTE   PATT
  POIN2 Label_01237EBF
//  #01 //146   ----------------------------------------
 BYTE   PATT
  POIN2 Label_01237EDD
//  #01 //147   ----------------------------------------
 BYTE   N12  Gs2  v036
 BYTE   N12  An2
 BYTE   W96
//  #01 //148   ----------------------------------------
 BYTE   Gs2
 BYTE   N12  An2
 BYTE   W96
//  #01 //149   ----------------------------------------
 BYTE   Gs2
 BYTE   N12  An2
 BYTE   W96
//  #01 //150   ----------------------------------------
 BYTE   Gs2
 BYTE   N12  An2
 BYTE   W96
//  #01 //151   ----------------------------------------
 BYTE   Gs2
 BYTE   N12  An2
 BYTE   W96
//  #01 //152   ----------------------------------------
 BYTE   Gs2
 BYTE   N12  An2
 BYTE   W96
//  #01 //153   ----------------------------------------
 BYTE   Gs2
 BYTE   N12  An2
 BYTE   W96
//  #01 //154   ----------------------------------------
 BYTE   Gs2
 BYTE   N12  An2
 BYTE   W96
//  #01 //155   ----------------------------------------
 BYTE   W96
//  #01 //156   ----------------------------------------
 BYTE   W96
//  #01 //157   ----------------------------------------
 BYTE   W96
//  #01 //158   ----------------------------------------
 BYTE   W96
//  #01 //159   ----------------------------------------
 BYTE   W96
//  #01 //160   ----------------------------------------
 BYTE   W96
//  #01 //161   ----------------------------------------
 BYTE   W96
//  #01 //162   ----------------------------------------
 BYTE   GoTo
  POIN2 Label_01237F0D
//  #01 //163   ----------------------------------------
 BYTE   N12  Gs2  v072
 BYTE   N12  An2
 BYTE   W96
//  #01 //164   ----------------------------------------
 BYTE   Gs2
 BYTE   N12  An2
 BYTE   W96
//  #01 //165   ----------------------------------------
 BYTE   Gs2
 BYTE   N12  An2
 BYTE   W12
 BYTE   FINE

//**************** Track 2 (Midi-Chn.1) ****************//

SonicAdvance3ChaosAngelAct1MeatOfJustice_002:
//  #02 //000   ----------------------------------------
 BYTE   KEYSH   SonicAdvance3ChaosAngelAct1MeatOfJustice_key+0
 BYTE   VOICE   117
 BYTE   MODT 0
 BYTE   LFOS 44
 BYTE   VOL   56*SonicAdvance3ChaosAngelAct1MeatOfJustice_mvl/mxv
 BYTE   MODT 0
 BYTE   LFOS 44
 BYTE   W96
//  #02 //001   ----------------------------------------
 BYTE   W96
//  #02 //002   ----------------------------------------
 BYTE   W96
//  #02 //003   ----------------------------------------
 BYTE   W96
//  #02 //004   ----------------------------------------
Label_013DACF6:
 BYTE   N06  Cs2  v072
 BYTE   W24
 BYTE   N06
 BYTE   W24
 BYTE   N06
 BYTE   W24
 BYTE   N06
 BYTE   W24
 BYTE   PEND 
//  #02 //005   ----------------------------------------
 BYTE   PATT
  POIN2 Label_013DACF6
//  #02 //006   ----------------------------------------
 BYTE   PATT
  POIN2 Label_013DACF6
//  #02 //007   ----------------------------------------
Label_013DAD0B:
 BYTE   N06  Cs2  v072
 BYTE   W24
 BYTE   N06
 BYTE   W24
 BYTE   N06
 BYTE   W24
 BYTE   N06
 BYTE   W12
 BYTE   N06
 BYTE   W06
 BYTE   N06
 BYTE   W06
 BYTE   PEND 
//  #02 //008   ----------------------------------------
 BYTE   PATT
  POIN2 Label_013DACF6
//  #02 //009   ----------------------------------------
 BYTE   PATT
  POIN2 Label_013DACF6
//  #02 //010   ----------------------------------------
 BYTE   PATT
  POIN2 Label_013DACF6
//  #02 //011   ----------------------------------------
Label_013DAD29:
 BYTE   N06  Cs2  v072
 BYTE   W24
 BYTE   N06
 BYTE   W24
 BYTE   N06
 BYTE   W24
 BYTE   N06
 BYTE   W12
 BYTE   N06
 BYTE   W12
 BYTE   PEND 
//  #02 //012   ----------------------------------------
 BYTE   PATT
  POIN2 Label_013DACF6
//  #02 //013   ----------------------------------------
 BYTE   PATT
  POIN2 Label_013DACF6
//  #02 //014   ----------------------------------------
 BYTE   PATT
  POIN2 Label_013DACF6
//  #02 //015   ----------------------------------------
 BYTE   PATT
  POIN2 Label_013DAD0B
//  #02 //016   ----------------------------------------
 BYTE   PATT
  POIN2 Label_013DACF6
//  #02 //017   ----------------------------------------
 BYTE   PATT
  POIN2 Label_013DACF6
//  #02 //018   ----------------------------------------
 BYTE   PATT
  POIN2 Label_013DACF6
//  #02 //019   ----------------------------------------
Label_013DAD59:
 BYTE   N06  Cs2  v072
 BYTE   W24
 BYTE   N06
 BYTE   W24
 BYTE   N06
 BYTE   W12
 BYTE   N06
 BYTE   W12
 BYTE   N06
 BYTE   W12
 BYTE   N06
 BYTE   W06
 BYTE   N06
 BYTE   W06
 BYTE   PEND 
//  #02 //020   ----------------------------------------
Label_013DAD6A:
//  #02 //021   ----------------------------------------
 BYTE   PATT
  POIN2 Label_013DACF6
//  #02 //022   ----------------------------------------
 BYTE   PATT
  POIN2 Label_013DACF6
//  #02 //023   ----------------------------------------
 BYTE   PATT
  POIN2 Label_013DACF6
//  #02 //024   ----------------------------------------
 BYTE   PATT
  POIN2 Label_013DAD0B
//  #02 //025   ----------------------------------------
 BYTE   PATT
  POIN2 Label_013DACF6
//  #02 //026   ----------------------------------------
 BYTE   PATT
  POIN2 Label_013DACF6
//  #02 //027   ----------------------------------------
 BYTE   PATT
  POIN2 Label_013DACF6
//  #02 //028   ----------------------------------------
 BYTE   W96
//  #02 //029   ----------------------------------------
 BYTE   W96
//  #02 //030   ----------------------------------------
 BYTE   W96
//  #02 //031   ----------------------------------------
Label_013DAD90:
 BYTE   W72
 BYTE   N06  Cs2  v072
 BYTE   W12
 BYTE   N06
 BYTE   W12
 BYTE   PEND 
//  #02 //032   ----------------------------------------
 BYTE   PATT
  POIN2 Label_013DACF6
//  #02 //033   ----------------------------------------
 BYTE   PATT
  POIN2 Label_013DACF6
//  #02 //034   ----------------------------------------
 BYTE   PATT
  POIN2 Label_013DACF6
//  #02 //035   ----------------------------------------
Label_013DADA7:
 BYTE   N06  Cs2  v072
 BYTE   W24
 BYTE   N06
 BYTE   W24
 BYTE   N06
 BYTE   W12
 BYTE   N06
 BYTE   W12
 BYTE   N06
 BYTE   W06
 BYTE   N06
 BYTE   W06
 BYTE   N06
 BYTE   W06
 BYTE   N06
 BYTE   W06
 BYTE   PEND 
//  #02 //036   ----------------------------------------
 BYTE   W96
//  #02 //037   ----------------------------------------
 BYTE   W96
//  #02 //038   ----------------------------------------
 BYTE   W96
//  #02 //039   ----------------------------------------
 BYTE   W96
//  #02 //040   ----------------------------------------
 BYTE   W96
//  #02 //041   ----------------------------------------
 BYTE   W96
//  #02 //042   ----------------------------------------
 BYTE   W96
//  #02 //043   ----------------------------------------
 BYTE   W96
//  #02 //044   ----------------------------------------
 BYTE   W96
//  #02 //045   ----------------------------------------
 BYTE   W96
//  #02 //046   ----------------------------------------
 BYTE   W96
//  #02 //047   ----------------------------------------
 BYTE   W96
//  #02 //048   ----------------------------------------
 BYTE   W96
//  #02 //049   ----------------------------------------
 BYTE   W96
//  #02 //050   ----------------------------------------
 BYTE   W96
//  #02 //051   ----------------------------------------
Label_013DADC9:
 BYTE   W48
 BYTE   N06  Cs2  v072
 BYTE   W12
 BYTE   N06
 BYTE   W12
 BYTE   N06
 BYTE   W12
 BYTE   N06
 BYTE   W12
 BYTE   PEND 
//  #02 //052   ----------------------------------------
 BYTE   PATT
  POIN2 Label_013DACF6
//  #02 //053   ----------------------------------------
 BYTE   PATT
  POIN2 Label_013DACF6
//  #02 //054   ----------------------------------------
 BYTE   PATT
  POIN2 Label_013DACF6
//  #02 //055   ----------------------------------------
 BYTE   PATT
  POIN2 Label_013DAD0B
//  #02 //056   ----------------------------------------
 BYTE   PATT
  POIN2 Label_013DACF6
//  #02 //057   ----------------------------------------
 BYTE   PATT
  POIN2 Label_013DACF6
//  #02 //058   ----------------------------------------
 BYTE   PATT
  POIN2 Label_013DACF6
//  #02 //059   ----------------------------------------
 BYTE   PATT
  POIN2 Label_013DAD0B
//  #02 //060   ----------------------------------------
 BYTE   PATT
  POIN2 Label_013DACF6
//  #02 //061   ----------------------------------------
 BYTE   PATT
  POIN2 Label_013DACF6
//  #02 //062   ----------------------------------------
 BYTE   PATT
  POIN2 Label_013DACF6
//  #02 //063   ----------------------------------------
 BYTE   PATT
  POIN2 Label_013DAD0B
//  #02 //064   ----------------------------------------
 BYTE   PATT
  POIN2 Label_013DACF6
//  #02 //065   ----------------------------------------
 BYTE   PATT
  POIN2 Label_013DACF6
//  #02 //066   ----------------------------------------
 BYTE   PATT
  POIN2 Label_013DACF6
//  #02 //067   ----------------------------------------
 BYTE   PATT
  POIN2 Label_013DAD0B
//  #02 //068   ----------------------------------------
 BYTE   PATT
  POIN2 Label_013DACF6
//  #02 //069   ----------------------------------------
 BYTE   PATT
  POIN2 Label_013DACF6
//  #02 //070   ----------------------------------------
 BYTE   PATT
  POIN2 Label_013DACF6
//  #02 //071   ----------------------------------------
Label_013DAE34:
 BYTE   N06  Cs2  v072
 BYTE   W24
 BYTE   N06
 BYTE   W24
 BYTE   N06
 BYTE   W24
 BYTE   N06
 BYTE   W06
 BYTE   N06
 BYTE   W06
 BYTE   N06
 BYTE   W06
 BYTE   N06
 BYTE   W06
 BYTE   PEND 
//  #02 //072   ----------------------------------------
 BYTE   PATT
  POIN2 Label_013DACF6
//  #02 //073   ----------------------------------------
 BYTE   PATT
  POIN2 Label_013DACF6
//  #02 //074   ----------------------------------------
Label_013DAE4F:
 BYTE   N06  Cs2  v072
 BYTE   W06
 BYTE   Cs2  v016
 BYTE   W06
 BYTE   N06
 BYTE   W06
 BYTE   N06
 BYTE   W06
 BYTE   Cs2  v072
 BYTE   W06
 BYTE   Cs2  v024
 BYTE   W06
 BYTE   N06
 BYTE   W06
 BYTE   N06
 BYTE   W06
 BYTE   Cs2  v072
 BYTE   W06
 BYTE   Cs2  v028
 BYTE   W06
 BYTE   N06
 BYTE   W06
 BYTE   N06
 BYTE   W06
 BYTE   Cs2  v072
 BYTE   W06
 BYTE   Cs2  v032
 BYTE   W06
 BYTE   N06
 BYTE   W06
 BYTE   N06
 BYTE   W06
 BYTE   PEND 
//  #02 //075   ----------------------------------------
Label_013DAE79:
 BYTE   N06  Cs2  v072
 BYTE   W06
 BYTE   Cs2  v036
 BYTE   W06
 BYTE   N06
 BYTE   W06
 BYTE   N06
 BYTE   W06
 BYTE   Cs2  v072
 BYTE   W06
 BYTE   Cs2  v048
 BYTE   W06
 BYTE   N06
 BYTE   W06
 BYTE   N06
 BYTE   W06
 BYTE   Cs2  v072
 BYTE   W06
 BYTE   Cs2  v052
 BYTE   W06
 BYTE   N06
 BYTE   W06
 BYTE   N06
 BYTE   W06
 BYTE   Cs2  v072
 BYTE   W06
 BYTE   N06
 BYTE   W06
 BYTE   N06
 BYTE   W06
 BYTE   N06
 BYTE   W06
 BYTE   PEND 
//  #02 //076   ----------------------------------------
 BYTE   PATT
  POIN2 Label_013DACF6
//  #02 //077   ----------------------------------------
 BYTE   PATT
  POIN2 Label_013DACF6
//  #02 //078   ----------------------------------------
 BYTE   PATT
  POIN2 Label_013DACF6
//  #02 //079   ----------------------------------------
 BYTE   PATT
  POIN2 Label_013DAD0B
//  #02 //080   ----------------------------------------
 BYTE   PATT
  POIN2 Label_013DACF6
//  #02 //081   ----------------------------------------
 BYTE   PATT
  POIN2 Label_013DACF6
//  #02 //082   ----------------------------------------
 BYTE   PATT
  POIN2 Label_013DACF6
//  #02 //083   ----------------------------------------
 BYTE   PATT
  POIN2 Label_013DAD29
//  #02 //084   ----------------------------------------
 BYTE   PATT
  POIN2 Label_013DACF6
//  #02 //085   ----------------------------------------
 BYTE   PATT
  POIN2 Label_013DACF6
//  #02 //086   ----------------------------------------
 BYTE   PATT
  POIN2 Label_013DACF6
//  #02 //087   ----------------------------------------
 BYTE   PATT
  POIN2 Label_013DAD0B
//  #02 //088   ----------------------------------------
 BYTE   PATT
  POIN2 Label_013DACF6
//  #02 //089   ----------------------------------------
 BYTE   PATT
  POIN2 Label_013DACF6
//  #02 //090   ----------------------------------------
 BYTE   PATT
  POIN2 Label_013DACF6
//  #02 //091   ----------------------------------------
 BYTE   PATT
  POIN2 Label_013DAD59
//  #02 //092   ----------------------------------------
 BYTE   PATT
  POIN2 Label_013DACF6
//  #02 //093   ----------------------------------------
 BYTE   PATT
  POIN2 Label_013DACF6
//  #02 //094   ----------------------------------------
 BYTE   PATT
  POIN2 Label_013DACF6
//  #02 //095   ----------------------------------------
 BYTE   PATT
  POIN2 Label_013DAD0B
//  #02 //096   ----------------------------------------
 BYTE   PATT
  POIN2 Label_013DACF6
//  #02 //097   ----------------------------------------
 BYTE   PATT
  POIN2 Label_013DACF6
//  #02 //098   ----------------------------------------
 BYTE   PATT
  POIN2 Label_013DACF6
//  #02 //099   ----------------------------------------
 BYTE   W96
//  #02 //100   ----------------------------------------
 BYTE   W96
//  #02 //101   ----------------------------------------
 BYTE   W96
//  #02 //102   ----------------------------------------
 BYTE   PATT
  POIN2 Label_013DAD90
//  #02 //103   ----------------------------------------
 BYTE   PATT
  POIN2 Label_013DACF6
//  #02 //104   ----------------------------------------
 BYTE   PATT
  POIN2 Label_013DACF6
//  #02 //105   ----------------------------------------
 BYTE   PATT
  POIN2 Label_013DACF6
//  #02 //106   ----------------------------------------
 BYTE   PATT
  POIN2 Label_013DADA7
//  #02 //107   ----------------------------------------
 BYTE   W96
//  #02 //108   ----------------------------------------
 BYTE   W96
//  #02 //109   ----------------------------------------
 BYTE   W96
//  #02 //110   ----------------------------------------
 BYTE   W96
//  #02 //111   ----------------------------------------
 BYTE   W96
//  #02 //112   ----------------------------------------
 BYTE   W96
//  #02 //113   ----------------------------------------
 BYTE   W96
//  #02 //114   ----------------------------------------
 BYTE   W96
//  #02 //115   ----------------------------------------
 BYTE   W96
//  #02 //116   ----------------------------------------
 BYTE   W96
//  #02 //117   ----------------------------------------
 BYTE   W96
//  #02 //118   ----------------------------------------
 BYTE   W96
//  #02 //119   ----------------------------------------
 BYTE   W96
//  #02 //120   ----------------------------------------
 BYTE   W96
//  #02 //121   ----------------------------------------
 BYTE   W96
//  #02 //122   ----------------------------------------
 BYTE   PATT
  POIN2 Label_013DADC9
//  #02 //123   ----------------------------------------
 BYTE   PATT
  POIN2 Label_013DACF6
//  #02 //124   ----------------------------------------
 BYTE   PATT
  POIN2 Label_013DACF6
//  #02 //125   ----------------------------------------
 BYTE   PATT
  POIN2 Label_013DACF6
//  #02 //126   ----------------------------------------
 BYTE   PATT
  POIN2 Label_013DAD0B
//  #02 //127   ----------------------------------------
 BYTE   PATT
  POIN2 Label_013DACF6
//  #02 //128   ----------------------------------------
 BYTE   PATT
  POIN2 Label_013DACF6
//  #02 //129   ----------------------------------------
 BYTE   PATT
  POIN2 Label_013DACF6
//  #02 //130   ----------------------------------------
 BYTE   PATT
  POIN2 Label_013DAD0B
//  #02 //131   ----------------------------------------
 BYTE   PATT
  POIN2 Label_013DACF6
//  #02 //132   ----------------------------------------
 BYTE   PATT
  POIN2 Label_013DACF6
//  #02 //133   ----------------------------------------
 BYTE   PATT
  POIN2 Label_013DACF6
//  #02 //134   ----------------------------------------
 BYTE   PATT
  POIN2 Label_013DAD0B
//  #02 //135   ----------------------------------------
 BYTE   PATT
  POIN2 Label_013DACF6
//  #02 //136   ----------------------------------------
 BYTE   PATT
  POIN2 Label_013DACF6
//  #02 //137   ----------------------------------------
 BYTE   PATT
  POIN2 Label_013DACF6
//  #02 //138   ----------------------------------------
 BYTE   PATT
  POIN2 Label_013DAD0B
//  #02 //139   ----------------------------------------
 BYTE   PATT
  POIN2 Label_013DACF6
//  #02 //140   ----------------------------------------
 BYTE   PATT
  POIN2 Label_013DACF6
//  #02 //141   ----------------------------------------
 BYTE   PATT
  POIN2 Label_013DACF6
//  #02 //142   ----------------------------------------
 BYTE   PATT
  POIN2 Label_013DAE34
//  #02 //143   ----------------------------------------
 BYTE   PATT
  POIN2 Label_013DACF6
//  #02 //144   ----------------------------------------
 BYTE   PATT
  POIN2 Label_013DACF6
//  #02 //145   ----------------------------------------
 BYTE   PATT
  POIN2 Label_013DAE4F
//  #02 //146   ----------------------------------------
 BYTE   PATT
  POIN2 Label_013DAE79
//  #02 //147   ----------------------------------------
 BYTE   PATT
  POIN2 Label_013DACF6
//  #02 //148   ----------------------------------------
 BYTE   PATT
  POIN2 Label_013DACF6
//  #02 //149   ----------------------------------------
 BYTE   PATT
  POIN2 Label_013DACF6
//  #02 //150   ----------------------------------------
 BYTE   PATT
  POIN2 Label_013DAD0B
//  #02 //151   ----------------------------------------
 BYTE   PATT
  POIN2 Label_013DACF6
//  #02 //152   ----------------------------------------
 BYTE   PATT
  POIN2 Label_013DACF6
//  #02 //153   ----------------------------------------
 BYTE   PATT
  POIN2 Label_013DACF6
//  #02 //154   ----------------------------------------
 BYTE   PATT
  POIN2 Label_013DAD29
//  #02 //155   ----------------------------------------
 BYTE   PATT
  POIN2 Label_013DACF6
//  #02 //156   ----------------------------------------
 BYTE   PATT
  POIN2 Label_013DACF6
//  #02 //157   ----------------------------------------
 BYTE   PATT
  POIN2 Label_013DACF6
//  #02 //158   ----------------------------------------
 BYTE   PATT
  POIN2 Label_013DAD0B
//  #02 //159   ----------------------------------------
 BYTE   PATT
  POIN2 Label_013DACF6
//  #02 //160   ----------------------------------------
 BYTE   PATT
  POIN2 Label_013DACF6
//  #02 //161   ----------------------------------------
 BYTE   PATT
  POIN2 Label_013DACF6
//  #02 //162   ----------------------------------------
 BYTE   PATT
  POIN2 Label_013DAD59
//  #02 //163   ----------------------------------------
 BYTE   GoTo
  POIN2 Label_013DAD6A
//  #02 //164   ----------------------------------------
 BYTE   PATT
  POIN2 Label_013DACF6
//  #02 //165   ----------------------------------------
 BYTE   PATT
  POIN2 Label_013DACF6
//  #02 //166   ----------------------------------------
 BYTE   N06  Cs2  v072
 BYTE   W24
 BYTE   N06
 BYTE   W24
 BYTE   N06
 BYTE   W24
 BYTE   N06
 BYTE   W06
 BYTE   FINE

//**************** Track 3 (Midi-Chn.2) ****************//

SonicAdvance3ChaosAngelAct1MeatOfJustice_003:
//  #03 //000   ----------------------------------------
 BYTE   KEYSH   SonicAdvance3ChaosAngelAct1MeatOfJustice_key+0
 BYTE   VOICE   40
 BYTE   MODT 0
 BYTE   LFOS 44
 BYTE   VOL   64*SonicAdvance3ChaosAngelAct1MeatOfJustice_mvl/mxv
 BYTE   MODT 0
 BYTE   LFOS 44
 BYTE   W96
//  #03 //001   ----------------------------------------
 BYTE   W96
//  #03 //002   ----------------------------------------
 BYTE   W96
//  #03 //003   ----------------------------------------
 BYTE   W96
//  #03 //004   ----------------------------------------
Label_013D1772:
 BYTE   N96  Dn3  v024
 BYTE   N96  Gn3
 BYTE   N96  As3  v072
 BYTE   W96
 BYTE   PEND 
//  #03 //005   ----------------------------------------
Label_013D177C:
 BYTE   N96  Dn3  v024
 BYTE   N96  Fs3
 BYTE   N96  As3  v072
 BYTE   W96
 BYTE   PEND 
//  #03 //006   ----------------------------------------
Label_013D1786:
 BYTE   N96  Dn3  v024
 BYTE   N96  Fn3
 BYTE   N96  As3  v072
 BYTE   W96
 BYTE   PEND 
//  #03 //007   ----------------------------------------
Label_013D1790:
 BYTE   N96  En3  v024
 BYTE   N96  Gn3
 BYTE   N96  Cn4  v072
 BYTE   W96
 BYTE   PEND 
//  #03 //008   ----------------------------------------
 BYTE   PATT
  POIN2 Label_013D1772
//  #03 //009   ----------------------------------------
 BYTE   PATT
  POIN2 Label_013D177C
//  #03 //010   ----------------------------------------
 BYTE   PATT
  POIN2 Label_013D1786
//  #03 //011   ----------------------------------------
 BYTE   PATT
  POIN2 Label_013D1790
//  #03 //012   ----------------------------------------
 BYTE   W96
//  #03 //013   ----------------------------------------
 BYTE   W96
//  #03 //014   ----------------------------------------
 BYTE   W96
//  #03 //015   ----------------------------------------
 BYTE   W96
//  #03 //016   ----------------------------------------
 BYTE   W96
//  #03 //017   ----------------------------------------
 BYTE   W96
//  #03 //018   ----------------------------------------
 BYTE   W96
//  #03 //019   ----------------------------------------
 BYTE   W96
//  #03 //020   ----------------------------------------
Label_013D17B6:
//  #03 //021   ----------------------------------------
 BYTE   PATT
  POIN2 Label_013D1772
//  #03 //022   ----------------------------------------
 BYTE   PATT
  POIN2 Label_013D1772
//  #03 //023   ----------------------------------------
 BYTE   PATT
  POIN2 Label_013D1772
//  #03 //024   ----------------------------------------
 BYTE   PATT
  POIN2 Label_013D1790
//  #03 //025   ----------------------------------------
Label_013D17CA:
 BYTE   N96  Cn3  v024
 BYTE   N96  Fn3
 BYTE   N96  An3  v072
 BYTE   W96
 BYTE   PEND 
//  #03 //026   ----------------------------------------
Label_013D17D4:
 BYTE   N48  Fn3  v024
 BYTE   N48  As3  v072
 BYTE   N48  Dn4  v024
 BYTE   W48
 BYTE   Cn3
 BYTE   N48  Fn3
 BYTE   N48  An3  v072
 BYTE   W48
 BYTE   PEND 
//  #03 //027   ----------------------------------------
Label_013D17E6:
 BYTE   N96  Fs3  v024
 BYTE   N96  An3
 BYTE   N96  Dn4  v072
 BYTE   W96
 BYTE   PEND 
//  #03 //028   ----------------------------------------
Label_013D17F0:
 BYTE   N06  Dn3  v127
 BYTE   N06  Gn3
 BYTE   N06  As3
 BYTE   W12
 BYTE   Dn3
 BYTE   N06  Gn3
 BYTE   N06  As3
 BYTE   W36
 BYTE   Dn3
 BYTE   N06  Gn3
 BYTE   N06  As3
 BYTE   W12
 BYTE   Dn3
 BYTE   N06  Gn3
 BYTE   N06  As3
 BYTE   W36
 BYTE   PEND 
//  #03 //029   ----------------------------------------
Label_013D180B:
 BYTE   N06  Ds3  v127
 BYTE   N06  Gn3
 BYTE   N06  As3
 BYTE   W12
 BYTE   Ds3
 BYTE   N06  Gn3
 BYTE   N06  As3
 BYTE   W36
 BYTE   Fs3
 BYTE   N06  An3
 BYTE   N06  Cn4
 BYTE   W12
 BYTE   Dn3
 BYTE   N06  Fs3
 BYTE   N06  An3
 BYTE   W36
 BYTE   PEND 
//  #03 //030   ----------------------------------------
 BYTE   PATT
  POIN2 Label_013D17F0
//  #03 //031   ----------------------------------------
 BYTE   PATT
  POIN2 Label_013D180B
//  #03 //032   ----------------------------------------
 BYTE   PATT
  POIN2 Label_013D17F0
//  #03 //033   ----------------------------------------
 BYTE   PATT
  POIN2 Label_013D180B
//  #03 //034   ----------------------------------------
 BYTE   PATT
  POIN2 Label_013D17F0
//  #03 //035   ----------------------------------------
 BYTE   PATT
  POIN2 Label_013D180B
//  #03 //036   ----------------------------------------
 BYTE   N84  As5  v072
 BYTE   W96
//  #03 //037   ----------------------------------------
 BYTE   TIE  An5
 BYTE   W96
//  #03 //038   ----------------------------------------
 BYTE   W96
//  #03 //039   ----------------------------------------
 BYTE   EOT
 BYTE   TIE  Gn5
 BYTE   W96
//  #03 //040   ----------------------------------------
 BYTE   W48
 BYTE   EOT
 BYTE   N48  Fn5
 BYTE   W48
//  #03 //041   ----------------------------------------
Label_013D1855:
 BYTE   N24  Ds5  v072
 BYTE   W24
 BYTE   N72  As5
 BYTE   W72
 BYTE   PEND 
//  #03 //042   ----------------------------------------
 BYTE   N96  Dn5
 BYTE   W96
//  #03 //043   ----------------------------------------
 BYTE   Gn5
 BYTE   W96
//  #03 //044   ----------------------------------------
Label_013D1862:
 BYTE   N48  Fs5  v072
 BYTE   W48
 BYTE   Gn5
 BYTE   W48
 BYTE   PEND 
//  #03 //045   ----------------------------------------
 BYTE   N96  An5
 BYTE   W96
//  #03 //046   ----------------------------------------
Label_013D186C:
 BYTE   N48  Gn5  v072
 BYTE   W48
 BYTE   An5
 BYTE   W48
 BYTE   PEND 
//  #03 //047   ----------------------------------------
 BYTE   N96  As5
 BYTE   W96
//  #03 //048   ----------------------------------------
Label_013D1876:
 BYTE   N48  Dn6  v072
 BYTE   W48
 BYTE   Cs6
 BYTE   W48
 BYTE   PEND 
//  #03 //049   ----------------------------------------
Label_013D187D:
 BYTE   N48  Bn5  v072
 BYTE   W48
 BYTE   En5
 BYTE   W48
 BYTE   PEND 
//  #03 //050   ----------------------------------------
 BYTE   N96  Gn5
 BYTE   W96
//  #03 //051   ----------------------------------------
 BYTE   Cs6  v127
 BYTE   W96
//  #03 //052   ----------------------------------------
Label_013D188A:
 BYTE   N90  Cn3  v024
 BYTE   N90  Fn3
 BYTE   N90  Gs3  v072
 BYTE   W96
 BYTE   PEND 
//  #03 //053   ----------------------------------------
Label_013D1894:
 BYTE   N90  Dn3  v024
 BYTE   N90  Gn3
 BYTE   N90  As3  v072
 BYTE   W96
 BYTE   PEND 
//  #03 //054   ----------------------------------------
Label_013D189E:
 BYTE   N90  Dn3  v024
 BYTE   N90  Gs3
 BYTE   N90  Bn3  v072
 BYTE   W96
 BYTE   PEND 
//  #03 //055   ----------------------------------------
Label_013D18A8:
 BYTE   N90  Bn2  v024
 BYTE   N90  Fn3
 BYTE   N90  Gs3  v072
 BYTE   W96
 BYTE   PEND 
//  #03 //056   ----------------------------------------
Label_013D18B2:
 BYTE   N90  En3  v024
 BYTE   N90  An3
 BYTE   N90  Cn4  v072
 BYTE   W96
 BYTE   PEND 
//  #03 //057   ----------------------------------------
Label_013D18BC:
 BYTE   N90  Fn3  v024
 BYTE   N90  As3
 BYTE   N90  Cs4  v072
 BYTE   W96
 BYTE   PEND 
//  #03 //058   ----------------------------------------
Label_013D18C6:
 BYTE   TIE  Ds3  v024
 BYTE   TIE  Gs3
 BYTE   TIE  Bn3  v072
 BYTE   W96
 BYTE   PEND 
//  #03 //059   ----------------------------------------
 BYTE   W90
 BYTE   EOT
 BYTE   Ds3  v068
 BYTE   Bn3
 BYTE   W06
//  #03 //060   ----------------------------------------
 BYTE   PATT
  POIN2 Label_013D188A
//  #03 //061   ----------------------------------------
 BYTE   PATT
  POIN2 Label_013D1894
//  #03 //062   ----------------------------------------
 BYTE   PATT
  POIN2 Label_013D189E
//  #03 //063   ----------------------------------------
 BYTE   PATT
  POIN2 Label_013D18A8
//  #03 //064   ----------------------------------------
 BYTE   PATT
  POIN2 Label_013D18B2
//  #03 //065   ----------------------------------------
 BYTE   PATT
  POIN2 Label_013D18BC
//  #03 //066   ----------------------------------------
 BYTE   PATT
  POIN2 Label_013D18C6
//  #03 //067   ----------------------------------------
 BYTE   W90
 BYTE   EOT
 BYTE   Ds3  v068
 BYTE   Bn3
 BYTE   W06
//  #03 //068   ----------------------------------------
Label_013D18FF:
 BYTE   N06  Dn3  v127
 BYTE   N06  Gn3
 BYTE   N06  As3
 BYTE   N06  Gn5  v072
 BYTE   W12
 BYTE   Dn3  v127
 BYTE   N06  Gn3
 BYTE   N06  As3
 BYTE   N06  Gn5  v072
 BYTE   W36
 BYTE   Dn3  v127
 BYTE   N06  Gn3
 BYTE   N06  As3
 BYTE   N06  Gn5  v072
 BYTE   W12
 BYTE   Dn3  v127
 BYTE   N06  Gn3
 BYTE   N06  As3
 BYTE   N06  Gn5  v072
 BYTE   W36
 BYTE   PEND 
//  #03 //069   ----------------------------------------
Label_013D1929:
 BYTE   N06  Ds3  v127
 BYTE   N06  Gn3
 BYTE   N06  As3
 BYTE   N06  Gn5  v072
 BYTE   W12
 BYTE   Ds3  v127
 BYTE   N06  Gn3
 BYTE   N06  As3
 BYTE   N06  Gn5  v072
 BYTE   W36
 BYTE   Fs3  v127
 BYTE   N06  An3
 BYTE   N06  Cn4
 BYTE   N06  An5  v072
 BYTE   W12
 BYTE   Dn3  v127
 BYTE   N06  Fs3
 BYTE   N06  An3
 BYTE   N06  Fs5  v072
 BYTE   W36
 BYTE   PEND 
//  #03 //070   ----------------------------------------
 BYTE   PATT
  POIN2 Label_013D18FF
//  #03 //071   ----------------------------------------
 BYTE   PATT
  POIN2 Label_013D1929
//  #03 //072   ----------------------------------------
 BYTE   PATT
  POIN2 Label_013D18FF
//  #03 //073   ----------------------------------------
 BYTE   PATT
  POIN2 Label_013D1929
//  #03 //074   ----------------------------------------
 BYTE   PATT
  POIN2 Label_013D18FF
//  #03 //075   ----------------------------------------
 BYTE   PATT
  POIN2 Label_013D1929
//  #03 //076   ----------------------------------------
 BYTE   PATT
  POIN2 Label_013D1772
//  #03 //077   ----------------------------------------
 BYTE   PATT
  POIN2 Label_013D177C
//  #03 //078   ----------------------------------------
 BYTE   PATT
  POIN2 Label_013D1786
//  #03 //079   ----------------------------------------
 BYTE   PATT
  POIN2 Label_013D1790
//  #03 //080   ----------------------------------------
 BYTE   PATT
  POIN2 Label_013D1772
//  #03 //081   ----------------------------------------
 BYTE   PATT
  POIN2 Label_013D177C
//  #03 //082   ----------------------------------------
 BYTE   PATT
  POIN2 Label_013D1786
//  #03 //083   ----------------------------------------
 BYTE   PATT
  POIN2 Label_013D1790
//  #03 //084   ----------------------------------------
 BYTE   W96
//  #03 //085   ----------------------------------------
 BYTE   W96
//  #03 //086   ----------------------------------------
 BYTE   W96
//  #03 //087   ----------------------------------------
 BYTE   W96
//  #03 //088   ----------------------------------------
 BYTE   W96
//  #03 //089   ----------------------------------------
 BYTE   W96
//  #03 //090   ----------------------------------------
 BYTE   W96
//  #03 //091   ----------------------------------------
 BYTE   W96
//  #03 //092   ----------------------------------------
 BYTE   PATT
  POIN2 Label_013D1772
//  #03 //093   ----------------------------------------
 BYTE   PATT
  POIN2 Label_013D1772
//  #03 //094   ----------------------------------------
 BYTE   PATT
  POIN2 Label_013D1772
//  #03 //095   ----------------------------------------
 BYTE   PATT
  POIN2 Label_013D1790
//  #03 //096   ----------------------------------------
 BYTE   PATT
  POIN2 Label_013D17CA
//  #03 //097   ----------------------------------------
 BYTE   PATT
  POIN2 Label_013D17D4
//  #03 //098   ----------------------------------------
 BYTE   PATT
  POIN2 Label_013D17E6
//  #03 //099   ----------------------------------------
 BYTE   PATT
  POIN2 Label_013D17F0
//  #03 //100   ----------------------------------------
 BYTE   PATT
  POIN2 Label_013D180B
//  #03 //101   ----------------------------------------
 BYTE   PATT
  POIN2 Label_013D17F0
//  #03 //102   ----------------------------------------
 BYTE   PATT
  POIN2 Label_013D180B
//  #03 //103   ----------------------------------------
 BYTE   PATT
  POIN2 Label_013D17F0
//  #03 //104   ----------------------------------------
 BYTE   PATT
  POIN2 Label_013D180B
//  #03 //105   ----------------------------------------
 BYTE   PATT
  POIN2 Label_013D17F0
//  #03 //106   ----------------------------------------
 BYTE   PATT
  POIN2 Label_013D180B
//  #03 //107   ----------------------------------------
 BYTE   N84  As5  v072
 BYTE   W96
//  #03 //108   ----------------------------------------
 BYTE   TIE  An5
 BYTE   W96
//  #03 //109   ----------------------------------------
 BYTE   W96
//  #03 //110   ----------------------------------------
 BYTE   EOT
 BYTE   TIE  Gn5
 BYTE   W96
//  #03 //111   ----------------------------------------
 BYTE   W48
 BYTE   EOT
 BYTE   N48  Fn5
 BYTE   W48
//  #03 //112   ----------------------------------------
 BYTE   PATT
  POIN2 Label_013D1855
//  #03 //113   ----------------------------------------
 BYTE   N96  Dn5  v072
 BYTE   W96
//  #03 //114   ----------------------------------------
 BYTE   Gn5
 BYTE   W96
//  #03 //115   ----------------------------------------
 BYTE   PATT
  POIN2 Label_013D1862
//  #03 //116   ----------------------------------------
 BYTE   N96  An5  v072
 BYTE   W96
//  #03 //117   ----------------------------------------
 BYTE   PATT
  POIN2 Label_013D186C
//  #03 //118   ----------------------------------------
 BYTE   N96  As5  v072
 BYTE   W96
//  #03 //119   ----------------------------------------
 BYTE   PATT
  POIN2 Label_013D1876
//  #03 //120   ----------------------------------------
 BYTE   PATT
  POIN2 Label_013D187D
//  #03 //121   ----------------------------------------
 BYTE   N96  Gn5  v072
 BYTE   W96
//  #03 //122   ----------------------------------------
 BYTE   Cs6  v127
 BYTE   W96
//  #03 //123   ----------------------------------------
 BYTE   PATT
  POIN2 Label_013D188A
//  #03 //124   ----------------------------------------
 BYTE   PATT
  POIN2 Label_013D1894
//  #03 //125   ----------------------------------------
 BYTE   PATT
  POIN2 Label_013D189E
//  #03 //126   ----------------------------------------
 BYTE   PATT
  POIN2 Label_013D18A8
//  #03 //127   ----------------------------------------
 BYTE   PATT
  POIN2 Label_013D18B2
//  #03 //128   ----------------------------------------
 BYTE   PATT
  POIN2 Label_013D18BC
//  #03 //129   ----------------------------------------
 BYTE   PATT
  POIN2 Label_013D18C6
//  #03 //130   ----------------------------------------
 BYTE   W90
 BYTE   EOT
 BYTE   Ds3  v068
 BYTE   Bn3
 BYTE   W06
//  #03 //131   ----------------------------------------
 BYTE   PATT
  POIN2 Label_013D188A
//  #03 //132   ----------------------------------------
 BYTE   PATT
  POIN2 Label_013D1894
//  #03 //133   ----------------------------------------
 BYTE   PATT
  POIN2 Label_013D189E
//  #03 //134   ----------------------------------------
 BYTE   PATT
  POIN2 Label_013D18A8
//  #03 //135   ----------------------------------------
 BYTE   PATT
  POIN2 Label_013D18B2
//  #03 //136   ----------------------------------------
 BYTE   PATT
  POIN2 Label_013D18BC
//  #03 //137   ----------------------------------------
 BYTE   PATT
  POIN2 Label_013D18C6
//  #03 //138   ----------------------------------------
 BYTE   W90
 BYTE   EOT
 BYTE   Ds3  v068
 BYTE   Bn3
 BYTE   W06
//  #03 //139   ----------------------------------------
 BYTE   PATT
  POIN2 Label_013D18FF
//  #03 //140   ----------------------------------------
 BYTE   PATT
  POIN2 Label_013D1929
//  #03 //141   ----------------------------------------
 BYTE   PATT
  POIN2 Label_013D18FF
//  #03 //142   ----------------------------------------
 BYTE   PATT
  POIN2 Label_013D1929
//  #03 //143   ----------------------------------------
 BYTE   PATT
  POIN2 Label_013D18FF
//  #03 //144   ----------------------------------------
 BYTE   PATT
  POIN2 Label_013D1929
//  #03 //145   ----------------------------------------
 BYTE   PATT
  POIN2 Label_013D18FF
//  #03 //146   ----------------------------------------
 BYTE   PATT
  POIN2 Label_013D1929
//  #03 //147   ----------------------------------------
 BYTE   PATT
  POIN2 Label_013D1772
//  #03 //148   ----------------------------------------
 BYTE   PATT
  POIN2 Label_013D177C
//  #03 //149   ----------------------------------------
 BYTE   PATT
  POIN2 Label_013D1786
//  #03 //150   ----------------------------------------
 BYTE   PATT
  POIN2 Label_013D1790
//  #03 //151   ----------------------------------------
 BYTE   PATT
  POIN2 Label_013D1772
//  #03 //152   ----------------------------------------
 BYTE   PATT
  POIN2 Label_013D177C
//  #03 //153   ----------------------------------------
 BYTE   PATT
  POIN2 Label_013D1786
//  #03 //154   ----------------------------------------
 BYTE   PATT
  POIN2 Label_013D1790
//  #03 //155   ----------------------------------------
 BYTE   W96
//  #03 //156   ----------------------------------------
 BYTE   W96
//  #03 //157   ----------------------------------------
 BYTE   W96
//  #03 //158   ----------------------------------------
 BYTE   W96
//  #03 //159   ----------------------------------------
 BYTE   W96
//  #03 //160   ----------------------------------------
 BYTE   W96
//  #03 //161   ----------------------------------------
 BYTE   W96
//  #03 //162   ----------------------------------------
 BYTE   W96
//  #03 //163   ----------------------------------------
 BYTE   GoTo
  POIN2 Label_013D17B6
//  #03 //164   ----------------------------------------
 BYTE   PATT
  POIN2 Label_013D1772
//  #03 //165   ----------------------------------------
 BYTE   PATT
  POIN2 Label_013D1772
//  #03 //166   ----------------------------------------
 BYTE   PATT
  POIN2 Label_013D1772
 BYTE   FINE

//**************** Track 4 (Midi-Chn.3) ****************//

SonicAdvance3ChaosAngelAct1MeatOfJustice_004:
//  #04 //000   ----------------------------------------
 BYTE   KEYSH   SonicAdvance3ChaosAngelAct1MeatOfJustice_key+0
 BYTE   VOICE   52
 BYTE   MODT 0
 BYTE   LFOS 44
 BYTE   VOL   64*SonicAdvance3ChaosAngelAct1MeatOfJustice_mvl/mxv
 BYTE   MODT 0
 BYTE   LFOS 44
 BYTE   W96
//  #04 //001   ----------------------------------------
 BYTE   W96
//  #04 //002   ----------------------------------------
 BYTE   W96
//  #04 //003   ----------------------------------------
 BYTE   W96
//  #04 //004   ----------------------------------------
 BYTE   N96  Gn4  v036
 BYTE   W96
//  #04 //005   ----------------------------------------
Label_01238356:
 BYTE   N48  Fs4  v036
 BYTE   W48
 BYTE   N24  Dn4
 BYTE   W24
 BYTE   En4
 BYTE   W24
 BYTE   PEND 
//  #04 //006   ----------------------------------------
Label_01238360:
 BYTE   N72  Fn4  v036
 BYTE   W72
 BYTE   N24  Gn4
 BYTE   W24
 BYTE   PEND 
//  #04 //007   ----------------------------------------
 BYTE   N96  En4
 BYTE   W96
//  #04 //008   ----------------------------------------
 BYTE   Gn4
 BYTE   W96
//  #04 //009   ----------------------------------------
 BYTE   PATT
  POIN2 Label_01238356
//  #04 //010   ----------------------------------------
 BYTE   PATT
  POIN2 Label_01238360
//  #04 //011   ----------------------------------------
 BYTE   N96  En4  v036
 BYTE   W96
//  #04 //012   ----------------------------------------
 BYTE   W96
//  #04 //013   ----------------------------------------
 BYTE   W96
//  #04 //014   ----------------------------------------
 BYTE   W96
//  #04 //015   ----------------------------------------
 BYTE   W96
//  #04 //016   ----------------------------------------
Label_0123837F:
 BYTE   N48  An3  v072
 BYTE   W48
 BYTE   Dn4
 BYTE   W48
 BYTE   PEND 
//  #04 //017   ----------------------------------------
Label_01238386:
 BYTE   N48  Cn4  v072
 BYTE   W48
 BYTE   As3
 BYTE   W48
 BYTE   PEND 
//  #04 //018   ----------------------------------------
 BYTE   N96  Gn4
 BYTE   W96
//  #04 //019   ----------------------------------------
 BYTE   W96
//  #04 //020   ----------------------------------------
Label_01238391:
 BYTE   W96
//  #04 //021   ----------------------------------------
 BYTE   W96
//  #04 //022   ----------------------------------------
 BYTE   W96
//  #04 //023   ----------------------------------------
 BYTE   W96
//  #04 //024   ----------------------------------------
Label_01238395:
 BYTE   N48  An3  v036
 BYTE   W48
 BYTE   Dn4
 BYTE   W48
 BYTE   PEND 
//  #04 //025   ----------------------------------------
Label_0123839C:
 BYTE   N48  Cn4  v036
 BYTE   W48
 BYTE   As3
 BYTE   W48
 BYTE   PEND 
//  #04 //026   ----------------------------------------
 BYTE   N96  Fs4  v127
 BYTE   W96
//  #04 //027   ----------------------------------------
 BYTE   N06  Gn4  v072
 BYTE   W96
//  #04 //028   ----------------------------------------
 BYTE   W96
//  #04 //029   ----------------------------------------
 BYTE   W96
//  #04 //030   ----------------------------------------
 BYTE   W96
//  #04 //031   ----------------------------------------
 BYTE   W96
//  #04 //032   ----------------------------------------
 BYTE   W96
//  #04 //033   ----------------------------------------
 BYTE   W96
//  #04 //034   ----------------------------------------
 BYTE   W96
//  #04 //035   ----------------------------------------
Label_012383B2:
 BYTE   N72  Dn3  v072
 BYTE   W72
 BYTE   N24  Cn3
 BYTE   W24
 BYTE   PEND 
//  #04 //036   ----------------------------------------
Label_012383BA:
 BYTE   N48  Ds3  v072
 BYTE   W48
 BYTE   N96  Fs3
 BYTE   W48
 BYTE   PEND 
//  #04 //037   ----------------------------------------
 BYTE   W48
 BYTE   N48  Dn3
 BYTE   W48
//  #04 //038   ----------------------------------------
 BYTE   N96  As2
 BYTE   W96
//  #04 //039   ----------------------------------------
Label_012383C9:
 BYTE   N48  Gn3  v072
 BYTE   W48
 BYTE   Dn3
 BYTE   W48
 BYTE   PEND 
//  #04 //040   ----------------------------------------
Label_012383D0:
 BYTE   N48  An2  v072
 BYTE   W48
 BYTE   Ds3
 BYTE   W48
 BYTE   PEND 
//  #04 //041   ----------------------------------------
 BYTE   N96  An2
 BYTE   W96
//  #04 //042   ----------------------------------------
 BYTE   As2
 BYTE   W96
//  #04 //043   ----------------------------------------
Label_012383DC:
 BYTE   N48  Fs3  v072
 BYTE   W48
 BYTE   N24  Dn3
 BYTE   W24
 BYTE   Cn3
 BYTE   W24
 BYTE   PEND 
//  #04 //044   ----------------------------------------
Label_012383E6:
 BYTE   N48  Ds3  v072
 BYTE   W48
 BYTE   Fs3
 BYTE   W48
 BYTE   PEND 
//  #04 //045   ----------------------------------------
 BYTE   PATT
  POIN2 Label_012383C9
//  #04 //046   ----------------------------------------
 BYTE   N96  As2  v072
 BYTE   W96
//  #04 //047   ----------------------------------------
Label_012383F6:
 BYTE   N48  Fs3  v072
 BYTE   W48
 BYTE   Dn3
 BYTE   W48
 BYTE   PEND 
//  #04 //048   ----------------------------------------
Label_012383FD:
 BYTE   N48  Gs2  v072
 BYTE   W48
 BYTE   Dn3
 BYTE   W48
 BYTE   PEND 
//  #04 //049   ----------------------------------------
 BYTE   N96  Cs3
 BYTE   W96
//  #04 //050   ----------------------------------------
 BYTE   En3
 BYTE   W96
//  #04 //051   ----------------------------------------
 BYTE   N90  Fn4  v036
 BYTE   W96
//  #04 //052   ----------------------------------------
 BYTE   Gn4
 BYTE   W96
//  #04 //053   ----------------------------------------
 BYTE   N90
 BYTE   W96
//  #04 //054   ----------------------------------------
 BYTE   Dn4
 BYTE   W96
//  #04 //055   ----------------------------------------
 BYTE   An4
 BYTE   W96
//  #04 //056   ----------------------------------------
 BYTE   As4
 BYTE   W96
//  #04 //057   ----------------------------------------
Label_01238417:
 BYTE   N42  As4  v036
 BYTE   W48
 BYTE   Gs4
 BYTE   W48
 BYTE   PEND 
//  #04 //058   ----------------------------------------
Label_0123841E:
 BYTE   N42  Fn4  v036
 BYTE   W48
 BYTE   Cs4
 BYTE   W48
 BYTE   PEND 
//  #04 //059   ----------------------------------------
 BYTE   N90  Fn4
 BYTE   W96
//  #04 //060   ----------------------------------------
Label_01238428:
 BYTE   N42  Gn4  v036
 BYTE   W48
 BYTE   Cn5
 BYTE   W48
 BYTE   PEND 
//  #04 //061   ----------------------------------------
 BYTE   N90  Gn4
 BYTE   W96
//  #04 //062   ----------------------------------------
Label_01238432:
 BYTE   N42  Dn4  v036
 BYTE   W48
 BYTE   Fn4
 BYTE   W48
 BYTE   PEND 
//  #04 //063   ----------------------------------------
 BYTE   N90  An4
 BYTE   W96
//  #04 //064   ----------------------------------------
Label_0123843C:
 BYTE   N42  As4  v036
 BYTE   W48
 BYTE   Cs5
 BYTE   W48
 BYTE   PEND 
//  #04 //065   ----------------------------------------
Label_01238443:
 BYTE   N42  Ds5  v036
 BYTE   W48
 BYTE   Cs5
 BYTE   W48
 BYTE   PEND 
//  #04 //066   ----------------------------------------
Label_0123844A:
 BYTE   N42  Fn5  v036
 BYTE   W48
 BYTE   Cs5
 BYTE   W48
 BYTE   PEND 
//  #04 //067   ----------------------------------------
 BYTE   W96
//  #04 //068   ----------------------------------------
 BYTE   W96
//  #04 //069   ----------------------------------------
 BYTE   W96
//  #04 //070   ----------------------------------------
 BYTE   W96
//  #04 //071   ----------------------------------------
 BYTE   W96
//  #04 //072   ----------------------------------------
 BYTE   W96
//  #04 //073   ----------------------------------------
 BYTE   W96
//  #04 //074   ----------------------------------------
 BYTE   W96
//  #04 //075   ----------------------------------------
 BYTE   N96  Gn4
 BYTE   W96
//  #04 //076   ----------------------------------------
 BYTE   PATT
  POIN2 Label_01238356
//  #04 //077   ----------------------------------------
 BYTE   PATT
  POIN2 Label_01238360
//  #04 //078   ----------------------------------------
 BYTE   N96  En4  v036
 BYTE   W96
//  #04 //079   ----------------------------------------
 BYTE   Gn4
 BYTE   W96
//  #04 //080   ----------------------------------------
 BYTE   PATT
  POIN2 Label_01238356
//  #04 //081   ----------------------------------------
 BYTE   PATT
  POIN2 Label_01238360
//  #04 //082   ----------------------------------------
 BYTE   N96  En4  v036
 BYTE   W96
//  #04 //083   ----------------------------------------
 BYTE   W96
//  #04 //084   ----------------------------------------
 BYTE   W96
//  #04 //085   ----------------------------------------
 BYTE   W96
//  #04 //086   ----------------------------------------
 BYTE   W96
//  #04 //087   ----------------------------------------
 BYTE   PATT
  POIN2 Label_0123837F
//  #04 //088   ----------------------------------------
 BYTE   PATT
  POIN2 Label_01238386
//  #04 //089   ----------------------------------------
 BYTE   N96  Gn4  v072
 BYTE   W96
//  #04 //090   ----------------------------------------
 BYTE   W96
//  #04 //091   ----------------------------------------
 BYTE   W96
//  #04 //092   ----------------------------------------
 BYTE   W96
//  #04 //093   ----------------------------------------
 BYTE   W96
//  #04 //094   ----------------------------------------
 BYTE   W96
//  #04 //095   ----------------------------------------
 BYTE   PATT
  POIN2 Label_01238395
//  #04 //096   ----------------------------------------
 BYTE   PATT
  POIN2 Label_0123839C
//  #04 //097   ----------------------------------------
 BYTE   N96  Fs4  v127
 BYTE   W96
//  #04 //098   ----------------------------------------
 BYTE   N06  Gn4  v072
 BYTE   W96
//  #04 //099   ----------------------------------------
 BYTE   W96
//  #04 //100   ----------------------------------------
 BYTE   W96
//  #04 //101   ----------------------------------------
 BYTE   W96
//  #04 //102   ----------------------------------------
 BYTE   W96
//  #04 //103   ----------------------------------------
 BYTE   W96
//  #04 //104   ----------------------------------------
 BYTE   W96
//  #04 //105   ----------------------------------------
 BYTE   W96
//  #04 //106   ----------------------------------------
 BYTE   PATT
  POIN2 Label_012383B2
//  #04 //107   ----------------------------------------
 BYTE   PATT
  POIN2 Label_012383BA
//  #04 //108   ----------------------------------------
 BYTE   W48
 BYTE   N48  Dn3  v072
 BYTE   W48
//  #04 //109   ----------------------------------------
 BYTE   N96  As2
 BYTE   W96
//  #04 //110   ----------------------------------------
 BYTE   PATT
  POIN2 Label_012383C9
//  #04 //111   ----------------------------------------
 BYTE   PATT
  POIN2 Label_012383D0
//  #04 //112   ----------------------------------------
 BYTE   N96  An2  v072
 BYTE   W96
//  #04 //113   ----------------------------------------
 BYTE   As2
 BYTE   W96
//  #04 //114   ----------------------------------------
 BYTE   PATT
  POIN2 Label_012383DC
//  #04 //115   ----------------------------------------
 BYTE   PATT
  POIN2 Label_012383E6
//  #04 //116   ----------------------------------------
 BYTE   PATT
  POIN2 Label_012383C9
//  #04 //117   ----------------------------------------
 BYTE   N96  As2  v072
 BYTE   W96
//  #04 //118   ----------------------------------------
 BYTE   PATT
  POIN2 Label_012383F6
//  #04 //119   ----------------------------------------
 BYTE   PATT
  POIN2 Label_012383FD
//  #04 //120   ----------------------------------------
 BYTE   N96  Cs3  v072
 BYTE   W96
//  #04 //121   ----------------------------------------
 BYTE   En3
 BYTE   W96
//  #04 //122   ----------------------------------------
 BYTE   N90  Fn4  v036
 BYTE   W96
//  #04 //123   ----------------------------------------
 BYTE   Gn4
 BYTE   W96
//  #04 //124   ----------------------------------------
 BYTE   N90
 BYTE   W96
//  #04 //125   ----------------------------------------
 BYTE   Dn4
 BYTE   W96
//  #04 //126   ----------------------------------------
 BYTE   An4
 BYTE   W96
//  #04 //127   ----------------------------------------
 BYTE   As4
 BYTE   W96
//  #04 //128   ----------------------------------------
 BYTE   PATT
  POIN2 Label_01238417
//  #04 //129   ----------------------------------------
 BYTE   PATT
  POIN2 Label_0123841E
//  #04 //130   ----------------------------------------
 BYTE   N90  Fn4  v036
 BYTE   W96
//  #04 //131   ----------------------------------------
 BYTE   PATT
  POIN2 Label_01238428
//  #04 //132   ----------------------------------------
 BYTE   N90  Gn4  v036
 BYTE   W96
//  #04 //133   ----------------------------------------
 BYTE   PATT
  POIN2 Label_01238432
//  #04 //134   ----------------------------------------
 BYTE   N90  An4  v036
 BYTE   W96
//  #04 //135   ----------------------------------------
 BYTE   PATT
  POIN2 Label_0123843C
//  #04 //136   ----------------------------------------
 BYTE   PATT
  POIN2 Label_01238443
//  #04 //137   ----------------------------------------
 BYTE   PATT
  POIN2 Label_0123844A
//  #04 //138   ----------------------------------------
 BYTE   W96
//  #04 //139   ----------------------------------------
 BYTE   W96
//  #04 //140   ----------------------------------------
 BYTE   W96
//  #04 //141   ----------------------------------------
 BYTE   W96
//  #04 //142   ----------------------------------------
 BYTE   W96
//  #04 //143   ----------------------------------------
 BYTE   W96
//  #04 //144   ----------------------------------------
 BYTE   W96
//  #04 //145   ----------------------------------------
 BYTE   W96
//  #04 //146   ----------------------------------------
 BYTE   N96  Gn4  v036
 BYTE   W96
//  #04 //147   ----------------------------------------
 BYTE   PATT
  POIN2 Label_01238356
//  #04 //148   ----------------------------------------
 BYTE   PATT
  POIN2 Label_01238360
//  #04 //149   ----------------------------------------
 BYTE   N96  En4  v036
 BYTE   W96
//  #04 //150   ----------------------------------------
 BYTE   Gn4
 BYTE   W96
//  #04 //151   ----------------------------------------
 BYTE   PATT
  POIN2 Label_01238356
//  #04 //152   ----------------------------------------
 BYTE   PATT
  POIN2 Label_01238360
//  #04 //153   ----------------------------------------
 BYTE   N96  En4  v036
 BYTE   W96
//  #04 //154   ----------------------------------------
 BYTE   W96
//  #04 //155   ----------------------------------------
 BYTE   W96
//  #04 //156   ----------------------------------------
 BYTE   W96
//  #04 //157   ----------------------------------------
 BYTE   W96
//  #04 //158   ----------------------------------------
 BYTE   PATT
  POIN2 Label_0123837F
//  #04 //159   ----------------------------------------
 BYTE   PATT
  POIN2 Label_01238386
//  #04 //160   ----------------------------------------
 BYTE   N96  Gn4  v072
 BYTE   W96
//  #04 //161   ----------------------------------------
 BYTE   W96
//  #04 //162   ----------------------------------------
 BYTE   GoTo
  POIN2 Label_01238391
//  #04 //163   ----------------------------------------
 BYTE   W96
//  #04 //164   ----------------------------------------
 BYTE   W96
//  #04 //165   ----------------------------------------
 BYTE   W12
 BYTE   FINE

//**************** Track 5 (Midi-Chn.4) ****************//

SonicAdvance3ChaosAngelAct1MeatOfJustice_005:
//  #05 //000   ----------------------------------------
 BYTE   KEYSH   SonicAdvance3ChaosAngelAct1MeatOfJustice_key+0
 BYTE   VOICE   110
 BYTE   MODT 0
 BYTE   LFOS 44
 BYTE   VOL   88*SonicAdvance3ChaosAngelAct1MeatOfJustice_mvl/mxv
 BYTE   MODT 0
 BYTE   LFOS 44
 BYTE   W96
//  #05 //001   ----------------------------------------
 BYTE   W96
//  #05 //002   ----------------------------------------
 BYTE   W96
//  #05 //003   ----------------------------------------
 BYTE   W96
//  #05 //004   ----------------------------------------
 BYTE   W96
//  #05 //005   ----------------------------------------
 BYTE   W96
//  #05 //006   ----------------------------------------
 BYTE   W96
//  #05 //007   ----------------------------------------
 BYTE   W96
//  #05 //008   ----------------------------------------
 BYTE   W96
//  #05 //009   ----------------------------------------
 BYTE   W96
//  #05 //010   ----------------------------------------
 BYTE   W96
//  #05 //011   ----------------------------------------
 BYTE   W96
//  #05 //012   ----------------------------------------
Label_013DA9F6:
 BYTE   N12  Dn4  v072
 BYTE   W18
 BYTE   Gn4
 BYTE   W18
 BYTE   N06  Fs4
 BYTE   W06
 BYTE   Gn4
 BYTE   W06
 BYTE   N12  Dn4
 BYTE   W24
 BYTE   Gn4
 BYTE   W24
 BYTE   PEND 
//  #05 //013   ----------------------------------------
Label_013DAA07:
 BYTE   N12  Dn4  v072
 BYTE   W18
 BYTE   Gn4
 BYTE   W18
 BYTE   N06  Fs4
 BYTE   W06
 BYTE   Gn4
 BYTE   W06
 BYTE   N12  An4
 BYTE   W24
 BYTE   Cn5
 BYTE   W24
 BYTE   PEND 
//  #05 //014   ----------------------------------------
Label_013DAA18:
 BYTE   N12  Dn4  v072
 BYTE   W18
 BYTE   Gn4
 BYTE   W18
 BYTE   N06  As4
 BYTE   W06
 BYTE   Cn5
 BYTE   W06
 BYTE   N12  Dn5
 BYTE   W24
 BYTE   Fn4
 BYTE   W24
 BYTE   PEND 
//  #05 //015   ----------------------------------------
Label_013DAA29:
 BYTE   N12  Gn4  v072
 BYTE   W24
 BYTE   N06  Dn5
 BYTE   W12
 BYTE   Cn5
 BYTE   W24
 BYTE   N12  As4
 BYTE   W24
 BYTE   N06  An4
 BYTE   W12
 BYTE   PEND 
//  #05 //016   ----------------------------------------
Label_013DAA39:
 BYTE   N12  Fn4  v072
 BYTE   W24
 BYTE   N06  Ds5
 BYTE   W12
 BYTE   Dn5
 BYTE   W24
 BYTE   Fn5
 BYTE   W24
 BYTE   Dn5
 BYTE   W12
 BYTE   PEND 
//  #05 //017   ----------------------------------------
Label_013DAA47:
 BYTE   N03  Cn5  v072
 BYTE   W03
 BYTE   Dn5
 BYTE   W03
 BYTE   Cn5
 BYTE   W03
 BYTE   Dn5
 BYTE   W03
 BYTE   Cn5
 BYTE   W03
 BYTE   Dn5
 BYTE   W03
 BYTE   Cn5
 BYTE   W03
 BYTE   Dn5
 BYTE   W03
 BYTE   N06  Cn5
 BYTE   W12
 BYTE   As4
 BYTE   W24
 BYTE   Dn5
 BYTE   W24
 BYTE   Fn4
 BYTE   W12
 BYTE   PEND 
//  #05 //018   ----------------------------------------
Label_013DAA63:
 BYTE   N12  An4  v072
 BYTE   W24
 BYTE   N06  As4
 BYTE   W12
 BYTE   N12  An4
 BYTE   W24
 BYTE   Gn4
 BYTE   W12
 BYTE   N06  Ds4
 BYTE   W12
 BYTE   N12  Dn4
 BYTE   W12
 BYTE   PEND 
//  #05 //019   ----------------------------------------
 BYTE   W96
//  #05 //020   ----------------------------------------
Label_013DAA77:
//  #05 //021   ----------------------------------------
 BYTE   PATT
  POIN2 Label_013DA9F6
//  #05 //022   ----------------------------------------
 BYTE   PATT
  POIN2 Label_013DAA07
//  #05 //023   ----------------------------------------
 BYTE   PATT
  POIN2 Label_013DAA18
//  #05 //024   ----------------------------------------
 BYTE   PATT
  POIN2 Label_013DAA29
//  #05 //025   ----------------------------------------
 BYTE   PATT
  POIN2 Label_013DAA39
//  #05 //026   ----------------------------------------
 BYTE   PATT
  POIN2 Label_013DAA47
//  #05 //027   ----------------------------------------
Label_013DAA95:
 BYTE   N06  Fs4  v072
 BYTE   W12
 BYTE   An4
 BYTE   W12
 BYTE   Ds5
 BYTE   W12
 BYTE   N12  Dn5
 BYTE   W24
 BYTE   Fs5
 BYTE   W24
 BYTE   N06  Dn5
 BYTE   W12
 BYTE   PEND 
//  #05 //028   ----------------------------------------
 BYTE   Gn5
 BYTE   W96
//  #05 //029   ----------------------------------------
 BYTE   W96
//  #05 //030   ----------------------------------------
 BYTE   W96
//  #05 //031   ----------------------------------------
 BYTE   W96
//  #05 //032   ----------------------------------------
Label_013DAAAB:
 BYTE   W24
 BYTE   N06  Gn5  v032
 BYTE   W06
 BYTE   Dn5
 BYTE   W06
 BYTE   Gn5
 BYTE   W06
 BYTE   Dn5
 BYTE   W30
 BYTE   Gn5
 BYTE   W06
 BYTE   Dn5
 BYTE   W06
 BYTE   Gn5
 BYTE   W12
 BYTE   PEND 
//  #05 //033   ----------------------------------------
Label_013DAABD:
 BYTE   W24
 BYTE   N06  Gn5  v032
 BYTE   W06
 BYTE   Dn5
 BYTE   W06
 BYTE   Gn5
 BYTE   W06
 BYTE   Dn5
 BYTE   W30
 BYTE   Fs5
 BYTE   W06
 BYTE   Dn5
 BYTE   W06
 BYTE   Fs5
 BYTE   W12
 BYTE   PEND 
//  #05 //034   ----------------------------------------
 BYTE   PATT
  POIN2 Label_013DAAAB
//  #05 //035   ----------------------------------------
 BYTE   PATT
  POIN2 Label_013DAABD
//  #05 //036   ----------------------------------------
 BYTE   W96
//  #05 //037   ----------------------------------------
 BYTE   W96
//  #05 //038   ----------------------------------------
 BYTE   W96
//  #05 //039   ----------------------------------------
 BYTE   W96
//  #05 //040   ----------------------------------------
 BYTE   W96
//  #05 //041   ----------------------------------------
 BYTE   W96
//  #05 //042   ----------------------------------------
 BYTE   W96
//  #05 //043   ----------------------------------------
 BYTE   W96
//  #05 //044   ----------------------------------------
 BYTE   W96
//  #05 //045   ----------------------------------------
 BYTE   W96
//  #05 //046   ----------------------------------------
 BYTE   W96
//  #05 //047   ----------------------------------------
 BYTE   W96
//  #05 //048   ----------------------------------------
 BYTE   W96
//  #05 //049   ----------------------------------------
 BYTE   W96
//  #05 //050   ----------------------------------------
 BYTE   W96
//  #05 //051   ----------------------------------------
 BYTE   W96
//  #05 //052   ----------------------------------------
 BYTE   W96
//  #05 //053   ----------------------------------------
 BYTE   W96
//  #05 //054   ----------------------------------------
 BYTE   W96
//  #05 //055   ----------------------------------------
 BYTE   W96
//  #05 //056   ----------------------------------------
 BYTE   W96
//  #05 //057   ----------------------------------------
 BYTE   W96
//  #05 //058   ----------------------------------------
 BYTE   W96
//  #05 //059   ----------------------------------------
 BYTE   W96
//  #05 //060   ----------------------------------------
 BYTE   W96
//  #05 //061   ----------------------------------------
 BYTE   W96
//  #05 //062   ----------------------------------------
 BYTE   W96
//  #05 //063   ----------------------------------------
 BYTE   W96
//  #05 //064   ----------------------------------------
 BYTE   W96
//  #05 //065   ----------------------------------------
 BYTE   W96
//  #05 //066   ----------------------------------------
 BYTE   W96
//  #05 //067   ----------------------------------------
 BYTE   W96
//  #05 //068   ----------------------------------------
 BYTE   W96
//  #05 //069   ----------------------------------------
 BYTE   W96
//  #05 //070   ----------------------------------------
 BYTE   W96
//  #05 //071   ----------------------------------------
 BYTE   W96
//  #05 //072   ----------------------------------------
 BYTE   PATT
  POIN2 Label_013DAAAB
//  #05 //073   ----------------------------------------
 BYTE   PATT
  POIN2 Label_013DAABD
//  #05 //074   ----------------------------------------
 BYTE   PATT
  POIN2 Label_013DAAAB
//  #05 //075   ----------------------------------------
 BYTE   PATT
  POIN2 Label_013DAABD
//  #05 //076   ----------------------------------------
 BYTE   W96
//  #05 //077   ----------------------------------------
 BYTE   W96
//  #05 //078   ----------------------------------------
 BYTE   W96
//  #05 //079   ----------------------------------------
 BYTE   W96
//  #05 //080   ----------------------------------------
 BYTE   W96
//  #05 //081   ----------------------------------------
 BYTE   W96
//  #05 //082   ----------------------------------------
 BYTE   W96
//  #05 //083   ----------------------------------------
 BYTE   W96
//  #05 //084   ----------------------------------------
 BYTE   PATT
  POIN2 Label_013DA9F6
//  #05 //085   ----------------------------------------
 BYTE   PATT
  POIN2 Label_013DAA07
//  #05 //086   ----------------------------------------
 BYTE   PATT
  POIN2 Label_013DAA18
//  #05 //087   ----------------------------------------
 BYTE   PATT
  POIN2 Label_013DAA29
//  #05 //088   ----------------------------------------
 BYTE   PATT
  POIN2 Label_013DAA39
//  #05 //089   ----------------------------------------
 BYTE   PATT
  POIN2 Label_013DAA47
//  #05 //090   ----------------------------------------
 BYTE   PATT
  POIN2 Label_013DAA63
//  #05 //091   ----------------------------------------
 BYTE   W96
//  #05 //092   ----------------------------------------
 BYTE   PATT
  POIN2 Label_013DA9F6
//  #05 //093   ----------------------------------------
 BYTE   PATT
  POIN2 Label_013DAA07
//  #05 //094   ----------------------------------------
 BYTE   PATT
  POIN2 Label_013DAA18
//  #05 //095   ----------------------------------------
 BYTE   PATT
  POIN2 Label_013DAA29
//  #05 //096   ----------------------------------------
 BYTE   PATT
  POIN2 Label_013DAA39
//  #05 //097   ----------------------------------------
 BYTE   PATT
  POIN2 Label_013DAA47
//  #05 //098   ----------------------------------------
 BYTE   PATT
  POIN2 Label_013DAA95
//  #05 //099   ----------------------------------------
 BYTE   N06  Gn5  v072
 BYTE   W96
//  #05 //100   ----------------------------------------
 BYTE   W96
//  #05 //101   ----------------------------------------
 BYTE   W96
//  #05 //102   ----------------------------------------
 BYTE   W96
//  #05 //103   ----------------------------------------
 BYTE   PATT
  POIN2 Label_013DAAAB
//  #05 //104   ----------------------------------------
 BYTE   PATT
  POIN2 Label_013DAABD
//  #05 //105   ----------------------------------------
 BYTE   PATT
  POIN2 Label_013DAAAB
//  #05 //106   ----------------------------------------
 BYTE   PATT
  POIN2 Label_013DAABD
//  #05 //107   ----------------------------------------
 BYTE   W96
//  #05 //108   ----------------------------------------
 BYTE   W96
//  #05 //109   ----------------------------------------
 BYTE   W96
//  #05 //110   ----------------------------------------
 BYTE   W96
//  #05 //111   ----------------------------------------
 BYTE   W96
//  #05 //112   ----------------------------------------
 BYTE   W96
//  #05 //113   ----------------------------------------
 BYTE   W96
//  #05 //114   ----------------------------------------
 BYTE   W96
//  #05 //115   ----------------------------------------
 BYTE   W96
//  #05 //116   ----------------------------------------
 BYTE   W96
//  #05 //117   ----------------------------------------
 BYTE   W96
//  #05 //118   ----------------------------------------
 BYTE   W96
//  #05 //119   ----------------------------------------
 BYTE   W96
//  #05 //120   ----------------------------------------
 BYTE   W96
//  #05 //121   ----------------------------------------
 BYTE   W96
//  #05 //122   ----------------------------------------
 BYTE   W96
//  #05 //123   ----------------------------------------
 BYTE   W96
//  #05 //124   ----------------------------------------
 BYTE   W96
//  #05 //125   ----------------------------------------
 BYTE   W96
//  #05 //126   ----------------------------------------
 BYTE   W96
//  #05 //127   ----------------------------------------
 BYTE   W96
//  #05 //128   ----------------------------------------
 BYTE   W96
//  #05 //129   ----------------------------------------
 BYTE   W96
//  #05 //130   ----------------------------------------
 BYTE   W96
//  #05 //131   ----------------------------------------
 BYTE   W96
//  #05 //132   ----------------------------------------
 BYTE   W96
//  #05 //133   ----------------------------------------
 BYTE   W96
//  #05 //134   ----------------------------------------
 BYTE   W96
//  #05 //135   ----------------------------------------
 BYTE   W96
//  #05 //136   ----------------------------------------
 BYTE   W96
//  #05 //137   ----------------------------------------
 BYTE   W96
//  #05 //138   ----------------------------------------
 BYTE   W96
//  #05 //139   ----------------------------------------
 BYTE   W96
//  #05 //140   ----------------------------------------
 BYTE   W96
//  #05 //141   ----------------------------------------
 BYTE   W96
//  #05 //142   ----------------------------------------
 BYTE   W96
//  #05 //143   ----------------------------------------
 BYTE   PATT
  POIN2 Label_013DAAAB
//  #05 //144   ----------------------------------------
 BYTE   PATT
  POIN2 Label_013DAABD
//  #05 //145   ----------------------------------------
 BYTE   PATT
  POIN2 Label_013DAAAB
//  #05 //146   ----------------------------------------
 BYTE   PATT
  POIN2 Label_013DAABD
//  #05 //147   ----------------------------------------
 BYTE   W96
//  #05 //148   ----------------------------------------
 BYTE   W96
//  #05 //149   ----------------------------------------
 BYTE   W96
//  #05 //150   ----------------------------------------
 BYTE   W96
//  #05 //151   ----------------------------------------
 BYTE   W96
//  #05 //152   ----------------------------------------
 BYTE   W96
//  #05 //153   ----------------------------------------
 BYTE   W96
//  #05 //154   ----------------------------------------
 BYTE   W96
//  #05 //155   ----------------------------------------
 BYTE   PATT
  POIN2 Label_013DA9F6
//  #05 //156   ----------------------------------------
 BYTE   PATT
  POIN2 Label_013DAA07
//  #05 //157   ----------------------------------------
 BYTE   PATT
  POIN2 Label_013DAA18
//  #05 //158   ----------------------------------------
 BYTE   PATT
  POIN2 Label_013DAA29
//  #05 //159   ----------------------------------------
 BYTE   PATT
  POIN2 Label_013DAA39
//  #05 //160   ----------------------------------------
 BYTE   PATT
  POIN2 Label_013DAA47
//  #05 //161   ----------------------------------------
 BYTE   PATT
  POIN2 Label_013DAA63
//  #05 //162   ----------------------------------------
 BYTE   W96
//  #05 //163   ----------------------------------------
 BYTE   GoTo
  POIN2 Label_013DAA77
//  #05 //164   ----------------------------------------
 BYTE   PATT
  POIN2 Label_013DA9F6
//  #05 //165   ----------------------------------------
 BYTE   PATT
  POIN2 Label_013DAA07
//  #05 //166   ----------------------------------------
 BYTE   N12  Dn4  v072
 BYTE   W18
 BYTE   Gn4
 BYTE   W18
 BYTE   N06  As4
 BYTE   W06
 BYTE   Cn5
 BYTE   W06
 BYTE   N12  Dn5
 BYTE   W24
 BYTE   Fn4
 BYTE   W12
 BYTE   FINE

//**************** Track 6 (Midi-Chn.5) ****************//

SonicAdvance3ChaosAngelAct1MeatOfJustice_006:
//  #06 //000   ----------------------------------------
 BYTE   KEYSH   SonicAdvance3ChaosAngelAct1MeatOfJustice_key+0
 BYTE   VOICE   20
 BYTE   MODT 0
 BYTE   LFOS 44
 BYTE   VOL   96*SonicAdvance3ChaosAngelAct1MeatOfJustice_mvl/mxv
 BYTE   MODT 0
 BYTE   LFOS 44
 BYTE   W08
 BYTE   N04  Cs3  v072
 BYTE   W04
 BYTE   Dn3
 BYTE   W04
 BYTE   Cs3
 BYTE   W04
 BYTE   Dn3
 BYTE   W04
 BYTE   N06  As3
 BYTE   W06
 BYTE   An3
 BYTE   W06
 BYTE   Gn3
 BYTE   W06
 BYTE   An3
 BYTE   W06
 BYTE   Gn3
 BYTE   W06
 BYTE   Fn3
 BYTE   W06
 BYTE   Gn3
 BYTE   W06
 BYTE   En3
 BYTE   W06
 BYTE   Dn3
 BYTE   W06
 BYTE   Cs3
 BYTE   W06
 BYTE   En3
 BYTE   W06
 BYTE   As3
 BYTE   W06
//  #06 //001   ----------------------------------------
 BYTE   N04  Dn4
 BYTE   W04
 BYTE   Cs4
 BYTE   W04
 BYTE   Dn4
 BYTE   W04
 BYTE   An3
 BYTE   W04
 BYTE   Gn3
 BYTE   W04
 BYTE   An3
 BYTE   W04
 BYTE   N06  Fn3
 BYTE   W06
 BYTE   En3
 BYTE   W06
 BYTE   Fn3
 BYTE   W06
 BYTE   Dn3
 BYTE   W06
 BYTE   En3
 BYTE   W06
 BYTE   Fn3
 BYTE   W06
 BYTE   Gn3
 BYTE   W06
 BYTE   As3
 BYTE   W06
 BYTE   Cs4
 BYTE   W06
 BYTE   Dn4
 BYTE   W06
 BYTE   En4
 BYTE   W06
 BYTE   Cs4
 BYTE   W06
//  #06 //002   ----------------------------------------
 BYTE   N04  Dn5  v064
 BYTE   W04
 BYTE   En5  v056
 BYTE   W04
 BYTE   Dn5  v052
 BYTE   W04
 BYTE   En5  v044
 BYTE   W04
 BYTE   Dn5  v036
 BYTE   W04
 BYTE   En5  v032
 BYTE   W04
 BYTE   Dn5
 BYTE   W04
 BYTE   En5
 BYTE   W04
 BYTE   Dn5  v036
 BYTE   W04
 BYTE   En5  v044
 BYTE   W04
 BYTE   Dn5  v048
 BYTE   W04
 BYTE   En5  v052
 BYTE   W04
 BYTE   Dn5  v056
 BYTE   W04
 BYTE   En5  v060
 BYTE   W04
 BYTE   Dn5  v064
 BYTE   W04
 BYTE   En5  v072
 BYTE   W04
 BYTE   Dn5  v076
 BYTE   W04
 BYTE   En5
 BYTE   W04
 BYTE   Dn5  v088
 BYTE   W04
 BYTE   En5  v092
 BYTE   W04
 BYTE   Dn5  v100
 BYTE   W04
 BYTE   En5  v104
 BYTE   W04
 BYTE   Dn5  v112
 BYTE   W04
 BYTE   En5  v116
 BYTE   W04
//  #06 //003   ----------------------------------------
 BYTE   W96
//  #06 //004   ----------------------------------------
 BYTE   W96
//  #06 //005   ----------------------------------------
 BYTE   W96
//  #06 //006   ----------------------------------------
 BYTE   W96
//  #06 //007   ----------------------------------------
 BYTE   W96
//  #06 //008   ----------------------------------------
 BYTE   W96
//  #06 //009   ----------------------------------------
 BYTE   W96
//  #06 //010   ----------------------------------------
 BYTE   W96
//  #06 //011   ----------------------------------------
 BYTE   W96
//  #06 //012   ----------------------------------------
 BYTE   W96
//  #06 //013   ----------------------------------------
 BYTE   W96
//  #06 //014   ----------------------------------------
 BYTE   W96
//  #06 //015   ----------------------------------------
 BYTE   W96
//  #06 //016   ----------------------------------------
Label_013C1BEF:
 BYTE   N06  An2  v048
 BYTE   W06
 BYTE   Gn2
 BYTE   W06
 BYTE   An2
 BYTE   W06
 BYTE   Fn3
 BYTE   W06
 BYTE   An3
 BYTE   W06
 BYTE   An2
 BYTE   W06
 BYTE   Gn3
 BYTE   W06
 BYTE   An2
 BYTE   W06
 BYTE   Fn3
 BYTE   W06
 BYTE   An2
 BYTE   W06
 BYTE   Ds3
 BYTE   W06
 BYTE   An2
 BYTE   W06
 BYTE   Dn3
 BYTE   W06
 BYTE   Cn3
 BYTE   W06
 BYTE   Fn3
 BYTE   W06
 BYTE   Ds3
 BYTE   W06
 BYTE   PEND 
//  #06 //017   ----------------------------------------
Label_013C1C12:
 BYTE   N04  Dn4  v048
 BYTE   W04
 BYTE   Cn4
 BYTE   W04
 BYTE   Dn4
 BYTE   W04
 BYTE   As3
 BYTE   W04
 BYTE   An3
 BYTE   W04
 BYTE   As3
 BYTE   W04
 BYTE   N06  Fn3
 BYTE   W06
 BYTE   En3
 BYTE   W06
 BYTE   Fn3
 BYTE   W06
 BYTE   Dn3
 BYTE   W06
 BYTE   En3
 BYTE   W06
 BYTE   Fn3
 BYTE   W06
 BYTE   Gn3
 BYTE   W06
 BYTE   As3
 BYTE   W06
 BYTE   Cn4
 BYTE   W06
 BYTE   Dn4
 BYTE   W06
 BYTE   Fn4
 BYTE   W06
 BYTE   Dn4
 BYTE   W06
 BYTE   PEND 
//  #06 //018   ----------------------------------------
Label_013C1C3A:
 BYTE   N04  Dn4  v048
 BYTE   W04
 BYTE   Ds4
 BYTE   W04
 BYTE   Dn4
 BYTE   W04
 BYTE   Ds4
 BYTE   W04
 BYTE   Dn4
 BYTE   W04
 BYTE   Ds4
 BYTE   W04
 BYTE   Dn4
 BYTE   W04
 BYTE   Ds4
 BYTE   W04
 BYTE   Dn4
 BYTE   W04
 BYTE   Ds4
 BYTE   W04
 BYTE   Dn4
 BYTE   W04
 BYTE   Ds4
 BYTE   W04
 BYTE   Dn4
 BYTE   W04
 BYTE   Ds4
 BYTE   W04
 BYTE   Dn4
 BYTE   W04
 BYTE   Ds4
 BYTE   W04
 BYTE   Dn4
 BYTE   W04
 BYTE   Ds4
 BYTE   W04
 BYTE   N06  Dn4
 BYTE   W06
 BYTE   Cn4
 BYTE   W06
 BYTE   As3
 BYTE   W06
 BYTE   An3
 BYTE   W06
 BYTE   PEND 
//  #06 //019   ----------------------------------------
Label_013C1C6A:
 BYTE   N06  Fs3  v048
 BYTE   W06
 BYTE   Gn3
 BYTE   W06
 BYTE   Dn4
 BYTE   W06
 BYTE   Dn3
 BYTE   W06
 BYTE   Ds3
 BYTE   W06
 BYTE   As3
 BYTE   W06
 BYTE   Cn3
 BYTE   W06
 BYTE   Dn3
 BYTE   W06
 BYTE   An3
 BYTE   W06
 BYTE   Gn3
 BYTE   W06
 BYTE   Fs3
 BYTE   W06
 BYTE   Ds3
 BYTE   W06
 BYTE   Dn3
 BYTE   W06
 BYTE   Cn3
 BYTE   W06
 BYTE   As2
 BYTE   W06
 BYTE   An2
 BYTE   W06
 BYTE   PEND 
//  #06 //020   ----------------------------------------
Label_013C1C8D:
 BYTE   W96
//  #06 //021   ----------------------------------------
 BYTE   W96
//  #06 //022   ----------------------------------------
 BYTE   W96
//  #06 //023   ----------------------------------------
 BYTE   W96
//  #06 //024   ----------------------------------------
 BYTE   PATT
  POIN2 Label_013C1BEF
//  #06 //025   ----------------------------------------
 BYTE   PATT
  POIN2 Label_013C1C12
//  #06 //026   ----------------------------------------
 BYTE   PATT
  POIN2 Label_013C1C3A
//  #06 //027   ----------------------------------------
 BYTE   W96
//  #06 //028   ----------------------------------------
 BYTE   W96
//  #06 //029   ----------------------------------------
 BYTE   W96
//  #06 //030   ----------------------------------------
 BYTE   W96
//  #06 //031   ----------------------------------------
 BYTE   W96
//  #06 //032   ----------------------------------------
 BYTE   W96
//  #06 //033   ----------------------------------------
 BYTE   W96
//  #06 //034   ----------------------------------------
 BYTE   W96
//  #06 //035   ----------------------------------------
 BYTE   W96
//  #06 //036   ----------------------------------------
 BYTE   W96
//  #06 //037   ----------------------------------------
 BYTE   W96
//  #06 //038   ----------------------------------------
 BYTE   W96
//  #06 //039   ----------------------------------------
 BYTE   W96
//  #06 //040   ----------------------------------------
 BYTE   W96
//  #06 //041   ----------------------------------------
 BYTE   W96
//  #06 //042   ----------------------------------------
 BYTE   W96
//  #06 //043   ----------------------------------------
 BYTE   W96
//  #06 //044   ----------------------------------------
 BYTE   W96
//  #06 //045   ----------------------------------------
 BYTE   W96
//  #06 //046   ----------------------------------------
 BYTE   W96
//  #06 //047   ----------------------------------------
 BYTE   W96
//  #06 //048   ----------------------------------------
 BYTE   W96
//  #06 //049   ----------------------------------------
 BYTE   W96
//  #06 //050   ----------------------------------------
 BYTE   W96
//  #06 //051   ----------------------------------------
 BYTE   W96
//  #06 //052   ----------------------------------------
 BYTE   W96
//  #06 //053   ----------------------------------------
 BYTE   W96
//  #06 //054   ----------------------------------------
 BYTE   W96
//  #06 //055   ----------------------------------------
 BYTE   W96
//  #06 //056   ----------------------------------------
 BYTE   W96
//  #06 //057   ----------------------------------------
 BYTE   W96
//  #06 //058   ----------------------------------------
 BYTE   W96
//  #06 //059   ----------------------------------------
 BYTE   W96
//  #06 //060   ----------------------------------------
 BYTE   W96
//  #06 //061   ----------------------------------------
 BYTE   W96
//  #06 //062   ----------------------------------------
 BYTE   W96
//  #06 //063   ----------------------------------------
 BYTE   W96
//  #06 //064   ----------------------------------------
 BYTE   W96
//  #06 //065   ----------------------------------------
 BYTE   W96
//  #06 //066   ----------------------------------------
 BYTE   W96
//  #06 //067   ----------------------------------------
 BYTE   W96
//  #06 //068   ----------------------------------------
 BYTE   W96
//  #06 //069   ----------------------------------------
 BYTE   W96
//  #06 //070   ----------------------------------------
 BYTE   W96
//  #06 //071   ----------------------------------------
 BYTE   W96
//  #06 //072   ----------------------------------------
 BYTE   W96
//  #06 //073   ----------------------------------------
 BYTE   W96
//  #06 //074   ----------------------------------------
 BYTE   W96
//  #06 //075   ----------------------------------------
 BYTE   W96
//  #06 //076   ----------------------------------------
 BYTE   W96
//  #06 //077   ----------------------------------------
 BYTE   W96
//  #06 //078   ----------------------------------------
 BYTE   W96
//  #06 //079   ----------------------------------------
 BYTE   W96
//  #06 //080   ----------------------------------------
 BYTE   W96
//  #06 //081   ----------------------------------------
 BYTE   W96
//  #06 //082   ----------------------------------------
 BYTE   W96
//  #06 //083   ----------------------------------------
 BYTE   W96
//  #06 //084   ----------------------------------------
 BYTE   W96
//  #06 //085   ----------------------------------------
 BYTE   W96
//  #06 //086   ----------------------------------------
 BYTE   W96
//  #06 //087   ----------------------------------------
 BYTE   PATT
  POIN2 Label_013C1BEF
//  #06 //088   ----------------------------------------
 BYTE   PATT
  POIN2 Label_013C1C12
//  #06 //089   ----------------------------------------
 BYTE   PATT
  POIN2 Label_013C1C3A
//  #06 //090   ----------------------------------------
 BYTE   PATT
  POIN2 Label_013C1C6A
//  #06 //091   ----------------------------------------
 BYTE   W96
//  #06 //092   ----------------------------------------
 BYTE   W96
//  #06 //093   ----------------------------------------
 BYTE   W96
//  #06 //094   ----------------------------------------
 BYTE   W96
//  #06 //095   ----------------------------------------
 BYTE   PATT
  POIN2 Label_013C1BEF
//  #06 //096   ----------------------------------------
 BYTE   PATT
  POIN2 Label_013C1C12
//  #06 //097   ----------------------------------------
 BYTE   PATT
  POIN2 Label_013C1C3A
//  #06 //098   ----------------------------------------
 BYTE   W96
//  #06 //099   ----------------------------------------
 BYTE   W96
//  #06 //100   ----------------------------------------
 BYTE   W96
//  #06 //101   ----------------------------------------
 BYTE   W96
//  #06 //102   ----------------------------------------
 BYTE   W96
//  #06 //103   ----------------------------------------
 BYTE   W96
//  #06 //104   ----------------------------------------
 BYTE   W96
//  #06 //105   ----------------------------------------
 BYTE   W96
//  #06 //106   ----------------------------------------
 BYTE   W96
//  #06 //107   ----------------------------------------
 BYTE   W96
//  #06 //108   ----------------------------------------
 BYTE   W96
//  #06 //109   ----------------------------------------
 BYTE   W96
//  #06 //110   ----------------------------------------
 BYTE   W96
//  #06 //111   ----------------------------------------
 BYTE   W96
//  #06 //112   ----------------------------------------
 BYTE   W96
//  #06 //113   ----------------------------------------
 BYTE   W96
//  #06 //114   ----------------------------------------
 BYTE   W96
//  #06 //115   ----------------------------------------
 BYTE   W96
//  #06 //116   ----------------------------------------
 BYTE   W96
//  #06 //117   ----------------------------------------
 BYTE   W96
//  #06 //118   ----------------------------------------
 BYTE   W96
//  #06 //119   ----------------------------------------
 BYTE   W96
//  #06 //120   ----------------------------------------
 BYTE   W96
//  #06 //121   ----------------------------------------
 BYTE   W96
//  #06 //122   ----------------------------------------
 BYTE   W96
//  #06 //123   ----------------------------------------
 BYTE   W96
//  #06 //124   ----------------------------------------
 BYTE   W96
//  #06 //125   ----------------------------------------
 BYTE   W96
//  #06 //126   ----------------------------------------
 BYTE   W96
//  #06 //127   ----------------------------------------
 BYTE   W96
//  #06 //128   ----------------------------------------
 BYTE   W96
//  #06 //129   ----------------------------------------
 BYTE   W96
//  #06 //130   ----------------------------------------
 BYTE   W96
//  #06 //131   ----------------------------------------
 BYTE   W96
//  #06 //132   ----------------------------------------
 BYTE   W96
//  #06 //133   ----------------------------------------
 BYTE   W96
//  #06 //134   ----------------------------------------
 BYTE   W96
//  #06 //135   ----------------------------------------
 BYTE   W96
//  #06 //136   ----------------------------------------
 BYTE   W96
//  #06 //137   ----------------------------------------
 BYTE   W96
//  #06 //138   ----------------------------------------
 BYTE   W96
//  #06 //139   ----------------------------------------
 BYTE   W96
//  #06 //140   ----------------------------------------
 BYTE   W96
//  #06 //141   ----------------------------------------
 BYTE   W96
//  #06 //142   ----------------------------------------
 BYTE   W96
//  #06 //143   ----------------------------------------
 BYTE   W96
//  #06 //144   ----------------------------------------
 BYTE   W96
//  #06 //145   ----------------------------------------
 BYTE   W96
//  #06 //146   ----------------------------------------
 BYTE   W96
//  #06 //147   ----------------------------------------
 BYTE   W96
//  #06 //148   ----------------------------------------
 BYTE   W96
//  #06 //149   ----------------------------------------
 BYTE   W96
//  #06 //150   ----------------------------------------
 BYTE   W96
//  #06 //151   ----------------------------------------
 BYTE   W96
//  #06 //152   ----------------------------------------
 BYTE   W96
//  #06 //153   ----------------------------------------
 BYTE   W96
//  #06 //154   ----------------------------------------
 BYTE   W96
//  #06 //155   ----------------------------------------
 BYTE   W96
//  #06 //156   ----------------------------------------
 BYTE   W96
//  #06 //157   ----------------------------------------
 BYTE   W96
//  #06 //158   ----------------------------------------
 BYTE   PATT
  POIN2 Label_013C1BEF
//  #06 //159   ----------------------------------------
 BYTE   PATT
  POIN2 Label_013C1C12
//  #06 //160   ----------------------------------------
 BYTE   PATT
  POIN2 Label_013C1C3A
//  #06 //161   ----------------------------------------
 BYTE   PATT
  POIN2 Label_013C1C6A
//  #06 //162   ----------------------------------------
 BYTE   GoTo
  POIN2 Label_013C1C8D
//  #06 //163   ----------------------------------------
 BYTE   W96
//  #06 //164   ----------------------------------------
 BYTE   W96
//  #06 //165   ----------------------------------------
 BYTE   W12
 BYTE   FINE

//**************** Track 7 (Midi-Chn.6) ****************//

SonicAdvance3ChaosAngelAct1MeatOfJustice_007:
//  #07 //000   ----------------------------------------
 BYTE   KEYSH   SonicAdvance3ChaosAngelAct1MeatOfJustice_key+0
 BYTE   VOICE   2
 BYTE   MODT 0
 BYTE   LFOS 44
 BYTE   VOL   56*SonicAdvance3ChaosAngelAct1MeatOfJustice_mvl/mxv
 BYTE   MODT 0
 BYTE   LFOS 44
 BYTE   N06  Dn1  v072
 BYTE   W06
 BYTE   Dn2
 BYTE   W06
 BYTE   Dn1
 BYTE   W06
 BYTE   N06
 BYTE   W06
 BYTE   Dn2
 BYTE   W06
 BYTE   Dn1
 BYTE   W06
 BYTE   N06
 BYTE   W06
 BYTE   Dn2
 BYTE   W06
 BYTE   Dn1
 BYTE   W06
 BYTE   N06
 BYTE   W06
 BYTE   Dn2
 BYTE   W06
 BYTE   Dn1
 BYTE   W06
 BYTE   N06
 BYTE   W06
 BYTE   Dn2
 BYTE   W06
 BYTE   Dn1
 BYTE   W06
 BYTE   N06
 BYTE   W06
//  #07 //001   ----------------------------------------
 BYTE   N06
 BYTE   W06
 BYTE   Dn2
 BYTE   W06
 BYTE   Dn1
 BYTE   W06
 BYTE   N06
 BYTE   W06
 BYTE   Dn2
 BYTE   W06
 BYTE   Dn1
 BYTE   W06
 BYTE   N06
 BYTE   W06
 BYTE   Dn2
 BYTE   W06
 BYTE   Dn1
 BYTE   W06
 BYTE   N06
 BYTE   W06
 BYTE   Dn2
 BYTE   W06
 BYTE   Dn1
 BYTE   W06
 BYTE   N06
 BYTE   W06
 BYTE   Dn2
 BYTE   W06
 BYTE   N12  Cn1
 BYTE   W12
//  #07 //002   ----------------------------------------
 BYTE   N06  Dn1
 BYTE   W06
 BYTE   Dn2
 BYTE   W06
 BYTE   Dn1
 BYTE   W06
 BYTE   N06
 BYTE   W06
 BYTE   Dn2
 BYTE   W06
 BYTE   Dn1
 BYTE   W06
 BYTE   N06
 BYTE   W06
 BYTE   Dn2
 BYTE   W06
 BYTE   Dn1
 BYTE   W06
 BYTE   N06
 BYTE   W06
 BYTE   Dn2
 BYTE   W06
 BYTE   Dn1
 BYTE   W06
 BYTE   N24
 BYTE   W24
//  #07 //003   ----------------------------------------
 BYTE   N12  As1
 BYTE   W12
 BYTE   N06  As2
 BYTE   W12
 BYTE   N12  An1
 BYTE   W12
 BYTE   N06  An2
 BYTE   W12
 BYTE   N12  Gn1
 BYTE   W12
 BYTE   N06  Gn2
 BYTE   W12
 BYTE   N24  Fs1
 BYTE   W24
//  #07 //004   ----------------------------------------
Label_013DB273:
 BYTE   N06  Gn1  v072
 BYTE   W06
 BYTE   N12  Gn0
 BYTE   W12
 BYTE   N06  Gn2
 BYTE   W06
 BYTE   Gn1
 BYTE   W06
 BYTE   Gn2
 BYTE   W06
 BYTE   Gn0
 BYTE   W06
 BYTE   N06
 BYTE   W06
 BYTE   Gn1
 BYTE   W06
 BYTE   N12  Gn0
 BYTE   W12
 BYTE   N06  Gn2
 BYTE   W06
 BYTE   Gn1
 BYTE   W06
 BYTE   Gn2
 BYTE   W06
 BYTE   Gn0
 BYTE   W06
 BYTE   N06
 BYTE   W06
 BYTE   PEND 
//  #07 //005   ----------------------------------------
Label_013DB296:
 BYTE   N06  Fs1  v072
 BYTE   W06
 BYTE   N12  Fs0
 BYTE   W12
 BYTE   N06  Fs2
 BYTE   W06
 BYTE   Fs1
 BYTE   W06
 BYTE   Fs2
 BYTE   W06
 BYTE   Fs0
 BYTE   W06
 BYTE   N06
 BYTE   W06
 BYTE   Fs1
 BYTE   W06
 BYTE   N12  Fs0
 BYTE   W12
 BYTE   N06  Fs2
 BYTE   W06
 BYTE   Fs1
 BYTE   W06
 BYTE   Fs2
 BYTE   W06
 BYTE   Fs0
 BYTE   W06
 BYTE   N06
 BYTE   W06
 BYTE   PEND 
//  #07 //006   ----------------------------------------
Label_013DB2B9:
 BYTE   N06  Fn1  v072
 BYTE   W06
 BYTE   N12  Fn0
 BYTE   W12
 BYTE   N06  Fn2
 BYTE   W06
 BYTE   Fn1
 BYTE   W06
 BYTE   Fn2
 BYTE   W06
 BYTE   Fn0
 BYTE   W06
 BYTE   N06
 BYTE   W06
 BYTE   Fn1
 BYTE   W06
 BYTE   N12  Fn0
 BYTE   W12
 BYTE   N06  Fn2
 BYTE   W06
 BYTE   Fn1
 BYTE   W06
 BYTE   Fn2
 BYTE   W06
 BYTE   Fn0
 BYTE   W06
 BYTE   N06
 BYTE   W06
 BYTE   PEND 
//  #07 //007   ----------------------------------------
Label_013DB2DC:
 BYTE   N06  En1  v072
 BYTE   W06
 BYTE   N12  En0
 BYTE   W12
 BYTE   N06  En2
 BYTE   W06
 BYTE   En1
 BYTE   W06
 BYTE   En2
 BYTE   W06
 BYTE   En0
 BYTE   W06
 BYTE   N06
 BYTE   W06
 BYTE   En1
 BYTE   W06
 BYTE   N12  En0
 BYTE   W12
 BYTE   N06  En2
 BYTE   W06
 BYTE   En1
 BYTE   W06
 BYTE   En2
 BYTE   W06
 BYTE   En0
 BYTE   W06
 BYTE   N06
 BYTE   W06
 BYTE   PEND 
//  #07 //008   ----------------------------------------
 BYTE   PATT
  POIN2 Label_013DB273
//  #07 //009   ----------------------------------------
 BYTE   PATT
  POIN2 Label_013DB296
//  #07 //010   ----------------------------------------
 BYTE   PATT
  POIN2 Label_013DB2B9
//  #07 //011   ----------------------------------------
 BYTE   PATT
  POIN2 Label_013DB2DC
//  #07 //012   ----------------------------------------
 BYTE   PATT
  POIN2 Label_013DB273
//  #07 //013   ----------------------------------------
 BYTE   PATT
  POIN2 Label_013DB296
//  #07 //014   ----------------------------------------
 BYTE   PATT
  POIN2 Label_013DB2B9
//  #07 //015   ----------------------------------------
 BYTE   PATT
  POIN2 Label_013DB2DC
//  #07 //016   ----------------------------------------
 BYTE   PATT
  POIN2 Label_013DB2B9
//  #07 //017   ----------------------------------------
Label_013DB32C:
 BYTE   N06  As1  v072
 BYTE   W06
 BYTE   N12  As0
 BYTE   W12
 BYTE   N06  As2
 BYTE   W06
 BYTE   As1
 BYTE   W06
 BYTE   As2
 BYTE   W06
 BYTE   As0
 BYTE   W06
 BYTE   N06
 BYTE   W06
 BYTE   As1
 BYTE   W06
 BYTE   N12  As0
 BYTE   W12
 BYTE   N06  As2
 BYTE   W06
 BYTE   As1
 BYTE   W06
 BYTE   As2
 BYTE   W06
 BYTE   As0
 BYTE   W06
 BYTE   N06
 BYTE   W06
 BYTE   PEND 
//  #07 //018   ----------------------------------------
Label_013DB34F:
 BYTE   N06  Ds1  v072
 BYTE   W06
 BYTE   N12  Ds0
 BYTE   W12
 BYTE   N06  Ds2
 BYTE   W06
 BYTE   Ds1
 BYTE   W06
 BYTE   Ds2
 BYTE   W06
 BYTE   Ds0
 BYTE   W06
 BYTE   N06
 BYTE   W06
 BYTE   Ds1
 BYTE   W06
 BYTE   N12  Ds0
 BYTE   W12
 BYTE   N06  Ds2
 BYTE   W06
 BYTE   Ds1
 BYTE   W06
 BYTE   Ds2
 BYTE   W06
 BYTE   Ds0
 BYTE   W06
 BYTE   N06
 BYTE   W06
 BYTE   PEND 
//  #07 //019   ----------------------------------------
Label_013DB372:
 BYTE   N06  Dn1  v072
 BYTE   W06
 BYTE   N12  Dn0
 BYTE   W12
 BYTE   N06  Dn2
 BYTE   W06
 BYTE   Dn1
 BYTE   W06
 BYTE   Dn2
 BYTE   W06
 BYTE   Dn0
 BYTE   W06
 BYTE   N06
 BYTE   W06
 BYTE   Dn1
 BYTE   W06
 BYTE   N12  Dn0
 BYTE   W12
 BYTE   N06  Dn2
 BYTE   W06
 BYTE   Dn1
 BYTE   W06
 BYTE   Dn2
 BYTE   W06
 BYTE   Dn0
 BYTE   W06
 BYTE   N06
 BYTE   W06
 BYTE   PEND 
//  #07 //020   ----------------------------------------
Label_013DB395:
//  #07 //021   ----------------------------------------
 BYTE   PATT
  POIN2 Label_013DB273
//  #07 //022   ----------------------------------------
 BYTE   PATT
  POIN2 Label_013DB296
//  #07 //023   ----------------------------------------
 BYTE   PATT
  POIN2 Label_013DB32C
//  #07 //024   ----------------------------------------
 BYTE   PATT
  POIN2 Label_013DB2DC
//  #07 //025   ----------------------------------------
 BYTE   PATT
  POIN2 Label_013DB2B9
//  #07 //026   ----------------------------------------
Label_013DB3AE:
 BYTE   N06  Gn1  v072
 BYTE   W06
 BYTE   N12  Gn0
 BYTE   W12
 BYTE   N06  Gn2
 BYTE   W06
 BYTE   Gn1
 BYTE   W06
 BYTE   Gn2
 BYTE   W06
 BYTE   Gn0
 BYTE   W06
 BYTE   N06
 BYTE   W06
 BYTE   Fn1
 BYTE   W06
 BYTE   N12  Fn0
 BYTE   W12
 BYTE   N06  Fn2
 BYTE   W06
 BYTE   Fn1
 BYTE   W06
 BYTE   Fn2
 BYTE   W06
 BYTE   Fn0
 BYTE   W06
 BYTE   N06
 BYTE   W06
 BYTE   PEND 
//  #07 //027   ----------------------------------------
 BYTE   PATT
  POIN2 Label_013DB372
//  #07 //028   ----------------------------------------
 BYTE   PATT
  POIN2 Label_013DB3AE
//  #07 //029   ----------------------------------------
Label_013DB3DB:
 BYTE   N06  Ds1  v072
 BYTE   W06
 BYTE   N12  Ds0
 BYTE   W12
 BYTE   N06  Ds2
 BYTE   W06
 BYTE   Ds1
 BYTE   W06
 BYTE   Ds2
 BYTE   W06
 BYTE   Ds0
 BYTE   W06
 BYTE   N06
 BYTE   W06
 BYTE   Dn1
 BYTE   W06
 BYTE   N15  Dn2
 BYTE   W18
 BYTE   N06
 BYTE   W06
 BYTE   Dn1
 BYTE   W06
 BYTE   N06
 BYTE   W06
 BYTE   N06
 BYTE   W06
 BYTE   PEND 
//  #07 //030   ----------------------------------------
 BYTE   PATT
  POIN2 Label_013DB3AE
//  #07 //031   ----------------------------------------
 BYTE   PATT
  POIN2 Label_013DB3DB
//  #07 //032   ----------------------------------------
 BYTE   PATT
  POIN2 Label_013DB3AE
//  #07 //033   ----------------------------------------
 BYTE   PATT
  POIN2 Label_013DB3DB
//  #07 //034   ----------------------------------------
 BYTE   PATT
  POIN2 Label_013DB3AE
//  #07 //035   ----------------------------------------
 BYTE   PATT
  POIN2 Label_013DB3DB
//  #07 //036   ----------------------------------------
Label_013DB419:
 BYTE   N12  Dn0  v072
 BYTE   W12
 BYTE   N18  Dn1
 BYTE   W24
 BYTE   N12  Cn1
 BYTE   W18
 BYTE   N04  As0
 BYTE   W06
 BYTE   An0
 BYTE   W06
 BYTE   Gn0
 BYTE   W06
 BYTE   Fn0
 BYTE   W06
 BYTE   Gn0
 BYTE   W06
 BYTE   An0
 BYTE   W06
 BYTE   Dn1
 BYTE   W06
 BYTE   PEND 
//  #07 //037   ----------------------------------------
 BYTE   PATT
  POIN2 Label_013DB419
//  #07 //038   ----------------------------------------
Label_013DB438:
 BYTE   N12  Gn0  v072
 BYTE   W12
 BYTE   N18  Gn1
 BYTE   W24
 BYTE   N12  Fn1
 BYTE   W18
 BYTE   N04  Ds1
 BYTE   W06
 BYTE   Dn1
 BYTE   W06
 BYTE   Cn1
 BYTE   W06
 BYTE   As0
 BYTE   W06
 BYTE   Cn1
 BYTE   W06
 BYTE   Dn1
 BYTE   W06
 BYTE   Gn1
 BYTE   W06
 BYTE   PEND 
//  #07 //039   ----------------------------------------
 BYTE   PATT
  POIN2 Label_013DB438
//  #07 //040   ----------------------------------------
Label_013DB457:
 BYTE   N12  Cn1  v072
 BYTE   W12
 BYTE   N18  Cn2
 BYTE   W24
 BYTE   N12  As1
 BYTE   W18
 BYTE   N04  Gs1
 BYTE   W06
 BYTE   Gn1
 BYTE   W06
 BYTE   Fn1
 BYTE   W06
 BYTE   Ds1
 BYTE   W06
 BYTE   Fn1
 BYTE   W06
 BYTE   Gn1
 BYTE   W06
 BYTE   Cn2
 BYTE   W06
 BYTE   PEND 
//  #07 //041   ----------------------------------------
Label_013DB471:
 BYTE   N12  Fn0  v072
 BYTE   W12
 BYTE   N18  Fn1
 BYTE   W24
 BYTE   N24  Cn1
 BYTE   W24
 BYTE   Fn1
 BYTE   W24
 BYTE   N12  Fn0
 BYTE   W12
 BYTE   PEND 
//  #07 //042   ----------------------------------------
Label_013DB481:
 BYTE   N12  As0  v072
 BYTE   W12
 BYTE   N18  As1
 BYTE   W24
 BYTE   N12  An1
 BYTE   W18
 BYTE   N04  Gn1
 BYTE   W06
 BYTE   Fn1
 BYTE   W06
 BYTE   Ds1
 BYTE   W06
 BYTE   Dn1
 BYTE   W06
 BYTE   As0
 BYTE   W06
 BYTE   Dn1
 BYTE   W06
 BYTE   As0
 BYTE   W06
 BYTE   PEND 
//  #07 //043   ----------------------------------------
Label_013DB49B:
 BYTE   N12  Ds1  v072
 BYTE   W12
 BYTE   N18  Ds2
 BYTE   W24
 BYTE   As1
 BYTE   W24
 BYTE   Gn1
 BYTE   W24
 BYTE   N12  Ds1
 BYTE   W12
 BYTE   PEND 
//  #07 //044   ----------------------------------------
 BYTE   PATT
  POIN2 Label_013DB419
//  #07 //045   ----------------------------------------
 BYTE   PATT
  POIN2 Label_013DB419
//  #07 //046   ----------------------------------------
 BYTE   PATT
  POIN2 Label_013DB438
//  #07 //047   ----------------------------------------
 BYTE   PATT
  POIN2 Label_013DB438
//  #07 //048   ----------------------------------------
Label_013DB4BE:
 BYTE   N12  Bn0  v072
 BYTE   W12
 BYTE   N18  Bn1
 BYTE   W24
 BYTE   N12  An1
 BYTE   W18
 BYTE   N04  Gn1
 BYTE   W06
 BYTE   Fs1
 BYTE   W06
 BYTE   En1
 BYTE   W06
 BYTE   Dn1
 BYTE   W06
 BYTE   En1
 BYTE   W06
 BYTE   Fs1
 BYTE   W06
 BYTE   Bn1
 BYTE   W06
 BYTE   PEND 
//  #07 //049   ----------------------------------------
Label_013DB4D8:
 BYTE   N12  En0  v072
 BYTE   W12
 BYTE   N18  En1
 BYTE   W24
 BYTE   N24  Bn0
 BYTE   W24
 BYTE   En1
 BYTE   W24
 BYTE   N12  En0
 BYTE   W12
 BYTE   PEND 
//  #07 //050   ----------------------------------------
Label_013DB4E8:
 BYTE   N12  An0  v072
 BYTE   W12
 BYTE   N18  An1
 BYTE   W24
 BYTE   N12  Gn1
 BYTE   W18
 BYTE   N04  Fn1
 BYTE   W06
 BYTE   En1
 BYTE   W06
 BYTE   Dn1
 BYTE   W06
 BYTE   Cs1
 BYTE   W06
 BYTE   An0
 BYTE   W06
 BYTE   Cs1
 BYTE   W06
 BYTE   An0
 BYTE   W06
 BYTE   PEND 
//  #07 //051   ----------------------------------------
Label_013DB502:
 BYTE   N12  An0  v072
 BYTE   W12
 BYTE   N18  An1
 BYTE   W24
 BYTE   En1
 BYTE   W24
 BYTE   Cs1
 BYTE   W24
 BYTE   N12  An0
 BYTE   W12
 BYTE   PEND 
//  #07 //052   ----------------------------------------
 BYTE   PATT
  POIN2 Label_013DB2B9
//  #07 //053   ----------------------------------------
 BYTE   PATT
  POIN2 Label_013DB273
//  #07 //054   ----------------------------------------
Label_013DB51B:
 BYTE   N06  Gs1  v072
 BYTE   W06
 BYTE   N12  Gs0
 BYTE   W12
 BYTE   N06  Gs2
 BYTE   W06
 BYTE   Gs1
 BYTE   W06
 BYTE   Gs2
 BYTE   W06
 BYTE   Gs0
 BYTE   W06
 BYTE   N06
 BYTE   W06
 BYTE   Gs1
 BYTE   W06
 BYTE   N12  Gs0
 BYTE   W12
 BYTE   N06  Gs2
 BYTE   W06
 BYTE   Gs1
 BYTE   W06
 BYTE   Gs2
 BYTE   W06
 BYTE   Gs0
 BYTE   W06
 BYTE   N06
 BYTE   W06
 BYTE   PEND 
//  #07 //055   ----------------------------------------
 BYTE   PATT
  POIN2 Label_013DB51B
//  #07 //056   ----------------------------------------
Label_013DB543:
 BYTE   N06  An1  v072
 BYTE   W06
 BYTE   N12  An0
 BYTE   W12
 BYTE   N06  An2
 BYTE   W06
 BYTE   An1
 BYTE   W06
 BYTE   An2
 BYTE   W06
 BYTE   An0
 BYTE   W06
 BYTE   N06
 BYTE   W06
 BYTE   An1
 BYTE   W06
 BYTE   N12  An0
 BYTE   W12
 BYTE   N06  An2
 BYTE   W06
 BYTE   An1
 BYTE   W06
 BYTE   An2
 BYTE   W06
 BYTE   An0
 BYTE   W06
 BYTE   N06
 BYTE   W06
 BYTE   PEND 
//  #07 //057   ----------------------------------------
 BYTE   PATT
  POIN2 Label_013DB32C
//  #07 //058   ----------------------------------------
Label_013DB56B:
 BYTE   N06  Cs2  v072
 BYTE   W06
 BYTE   N12  Cs1
 BYTE   W12
 BYTE   N06  Cs3
 BYTE   W06
 BYTE   Cs2
 BYTE   W06
 BYTE   Cs3
 BYTE   W06
 BYTE   Cs1
 BYTE   W06
 BYTE   N06
 BYTE   W06
 BYTE   Cs2
 BYTE   W06
 BYTE   N12  Cs1
 BYTE   W12
 BYTE   N06  Cs3
 BYTE   W06
 BYTE   Cs2
 BYTE   W06
 BYTE   Cs3
 BYTE   W06
 BYTE   Cs1
 BYTE   W06
 BYTE   N06
 BYTE   W06
 BYTE   PEND 
//  #07 //059   ----------------------------------------
 BYTE   PATT
  POIN2 Label_013DB56B
//  #07 //060   ----------------------------------------
 BYTE   PATT
  POIN2 Label_013DB2B9
//  #07 //061   ----------------------------------------
 BYTE   PATT
  POIN2 Label_013DB273
//  #07 //062   ----------------------------------------
 BYTE   PATT
  POIN2 Label_013DB51B
//  #07 //063   ----------------------------------------
 BYTE   PATT
  POIN2 Label_013DB51B
//  #07 //064   ----------------------------------------
 BYTE   PATT
  POIN2 Label_013DB543
//  #07 //065   ----------------------------------------
 BYTE   PATT
  POIN2 Label_013DB32C
//  #07 //066   ----------------------------------------
 BYTE   PATT
  POIN2 Label_013DB56B
//  #07 //067   ----------------------------------------
 BYTE   PATT
  POIN2 Label_013DB56B
//  #07 //068   ----------------------------------------
 BYTE   PATT
  POIN2 Label_013DB3AE
//  #07 //069   ----------------------------------------
 BYTE   PATT
  POIN2 Label_013DB3DB
//  #07 //070   ----------------------------------------
 BYTE   PATT
  POIN2 Label_013DB3AE
//  #07 //071   ----------------------------------------
 BYTE   PATT
  POIN2 Label_013DB3DB
//  #07 //072   ----------------------------------------
 BYTE   PATT
  POIN2 Label_013DB3AE
//  #07 //073   ----------------------------------------
 BYTE   PATT
  POIN2 Label_013DB3DB
//  #07 //074   ----------------------------------------
 BYTE   PATT
  POIN2 Label_013DB3AE
//  #07 //075   ----------------------------------------
 BYTE   PATT
  POIN2 Label_013DB3DB
//  #07 //076   ----------------------------------------
 BYTE   PATT
  POIN2 Label_013DB273
//  #07 //077   ----------------------------------------
 BYTE   PATT
  POIN2 Label_013DB296
//  #07 //078   ----------------------------------------
 BYTE   PATT
  POIN2 Label_013DB2B9
//  #07 //079   ----------------------------------------
 BYTE   PATT
  POIN2 Label_013DB2DC
//  #07 //080   ----------------------------------------
 BYTE   PATT
  POIN2 Label_013DB273
//  #07 //081   ----------------------------------------
 BYTE   PATT
  POIN2 Label_013DB296
//  #07 //082   ----------------------------------------
 BYTE   PATT
  POIN2 Label_013DB2B9
//  #07 //083   ----------------------------------------
 BYTE   PATT
  POIN2 Label_013DB2DC
//  #07 //084   ----------------------------------------
 BYTE   PATT
  POIN2 Label_013DB273
//  #07 //085   ----------------------------------------
 BYTE   PATT
  POIN2 Label_013DB296
//  #07 //086   ----------------------------------------
 BYTE   PATT
  POIN2 Label_013DB2B9
//  #07 //087   ----------------------------------------
 BYTE   PATT
  POIN2 Label_013DB2DC
//  #07 //088   ----------------------------------------
 BYTE   PATT
  POIN2 Label_013DB2B9
//  #07 //089   ----------------------------------------
 BYTE   PATT
  POIN2 Label_013DB32C
//  #07 //090   ----------------------------------------
 BYTE   PATT
  POIN2 Label_013DB34F
//  #07 //091   ----------------------------------------
 BYTE   PATT
  POIN2 Label_013DB372
//  #07 //092   ----------------------------------------
 BYTE   PATT
  POIN2 Label_013DB273
//  #07 //093   ----------------------------------------
 BYTE   PATT
  POIN2 Label_013DB296
//  #07 //094   ----------------------------------------
 BYTE   PATT
  POIN2 Label_013DB32C
//  #07 //095   ----------------------------------------
 BYTE   PATT
  POIN2 Label_013DB2DC
//  #07 //096   ----------------------------------------
 BYTE   PATT
  POIN2 Label_013DB2B9
//  #07 //097   ----------------------------------------
 BYTE   PATT
  POIN2 Label_013DB3AE
//  #07 //098   ----------------------------------------
 BYTE   PATT
  POIN2 Label_013DB372
//  #07 //099   ----------------------------------------
 BYTE   PATT
  POIN2 Label_013DB3AE
//  #07 //100   ----------------------------------------
 BYTE   PATT
  POIN2 Label_013DB3DB
//  #07 //101   ----------------------------------------
 BYTE   PATT
  POIN2 Label_013DB3AE
//  #07 //102   ----------------------------------------
 BYTE   PATT
  POIN2 Label_013DB3DB
//  #07 //103   ----------------------------------------
 BYTE   PATT
  POIN2 Label_013DB3AE
//  #07 //104   ----------------------------------------
 BYTE   PATT
  POIN2 Label_013DB3DB
//  #07 //105   ----------------------------------------
 BYTE   PATT
  POIN2 Label_013DB3AE
//  #07 //106   ----------------------------------------
 BYTE   PATT
  POIN2 Label_013DB3DB
//  #07 //107   ----------------------------------------
 BYTE   PATT
  POIN2 Label_013DB419
//  #07 //108   ----------------------------------------
 BYTE   PATT
  POIN2 Label_013DB419
//  #07 //109   ----------------------------------------
 BYTE   PATT
  POIN2 Label_013DB438
//  #07 //110   ----------------------------------------
 BYTE   PATT
  POIN2 Label_013DB438
//  #07 //111   ----------------------------------------
 BYTE   PATT
  POIN2 Label_013DB457
//  #07 //112   ----------------------------------------
 BYTE   PATT
  POIN2 Label_013DB471
//  #07 //113   ----------------------------------------
 BYTE   PATT
  POIN2 Label_013DB481
//  #07 //114   ----------------------------------------
 BYTE   PATT
  POIN2 Label_013DB49B
//  #07 //115   ----------------------------------------
 BYTE   PATT
  POIN2 Label_013DB419
//  #07 //116   ----------------------------------------
 BYTE   PATT
  POIN2 Label_013DB419
//  #07 //117   ----------------------------------------
 BYTE   PATT
  POIN2 Label_013DB438
//  #07 //118   ----------------------------------------
 BYTE   PATT
  POIN2 Label_013DB438
//  #07 //119   ----------------------------------------
 BYTE   PATT
  POIN2 Label_013DB4BE
//  #07 //120   ----------------------------------------
 BYTE   PATT
  POIN2 Label_013DB4D8
//  #07 //121   ----------------------------------------
 BYTE   PATT
  POIN2 Label_013DB4E8
//  #07 //122   ----------------------------------------
 BYTE   PATT
  POIN2 Label_013DB502
//  #07 //123   ----------------------------------------
 BYTE   PATT
  POIN2 Label_013DB2B9
//  #07 //124   ----------------------------------------
 BYTE   PATT
  POIN2 Label_013DB273
//  #07 //125   ----------------------------------------
 BYTE   PATT
  POIN2 Label_013DB51B
//  #07 //126   ----------------------------------------
 BYTE   PATT
  POIN2 Label_013DB51B
//  #07 //127   ----------------------------------------
 BYTE   PATT
  POIN2 Label_013DB543
//  #07 //128   ----------------------------------------
 BYTE   PATT
  POIN2 Label_013DB32C
//  #07 //129   ----------------------------------------
 BYTE   PATT
  POIN2 Label_013DB56B
//  #07 //130   ----------------------------------------
 BYTE   PATT
  POIN2 Label_013DB56B
//  #07 //131   ----------------------------------------
 BYTE   PATT
  POIN2 Label_013DB2B9
//  #07 //132   ----------------------------------------
 BYTE   PATT
  POIN2 Label_013DB273
//  #07 //133   ----------------------------------------
 BYTE   PATT
  POIN2 Label_013DB51B
//  #07 //134   ----------------------------------------
 BYTE   PATT
  POIN2 Label_013DB51B
//  #07 //135   ----------------------------------------
 BYTE   PATT
  POIN2 Label_013DB543
//  #07 //136   ----------------------------------------
 BYTE   PATT
  POIN2 Label_013DB32C
//  #07 //137   ----------------------------------------
 BYTE   PATT
  POIN2 Label_013DB56B
//  #07 //138   ----------------------------------------
 BYTE   PATT
  POIN2 Label_013DB56B
//  #07 //139   ----------------------------------------
 BYTE   PATT
  POIN2 Label_013DB3AE
//  #07 //140   ----------------------------------------
 BYTE   PATT
  POIN2 Label_013DB3DB
//  #07 //141   ----------------------------------------
 BYTE   PATT
  POIN2 Label_013DB3AE
//  #07 //142   ----------------------------------------
 BYTE   PATT
  POIN2 Label_013DB3DB
//  #07 //143   ----------------------------------------
 BYTE   PATT
  POIN2 Label_013DB3AE
//  #07 //144   ----------------------------------------
 BYTE   PATT
  POIN2 Label_013DB3DB
//  #07 //145   ----------------------------------------
 BYTE   PATT
  POIN2 Label_013DB3AE
//  #07 //146   ----------------------------------------
 BYTE   PATT
  POIN2 Label_013DB3DB
//  #07 //147   ----------------------------------------
 BYTE   PATT
  POIN2 Label_013DB273
//  #07 //148   ----------------------------------------
 BYTE   PATT
  POIN2 Label_013DB296
//  #07 //149   ----------------------------------------
 BYTE   PATT
  POIN2 Label_013DB2B9
//  #07 //150   ----------------------------------------
 BYTE   PATT
  POIN2 Label_013DB2DC
//  #07 //151   ----------------------------------------
 BYTE   PATT
  POIN2 Label_013DB273
//  #07 //152   ----------------------------------------
 BYTE   PATT
  POIN2 Label_013DB296
//  #07 //153   ----------------------------------------
 BYTE   PATT
  POIN2 Label_013DB2B9
//  #07 //154   ----------------------------------------
 BYTE   PATT
  POIN2 Label_013DB2DC
//  #07 //155   ----------------------------------------
 BYTE   PATT
  POIN2 Label_013DB273
//  #07 //156   ----------------------------------------
 BYTE   PATT
  POIN2 Label_013DB296
//  #07 //157   ----------------------------------------
 BYTE   PATT
  POIN2 Label_013DB2B9
//  #07 //158   ----------------------------------------
 BYTE   PATT
  POIN2 Label_013DB2DC
//  #07 //159   ----------------------------------------
 BYTE   PATT
  POIN2 Label_013DB2B9
//  #07 //160   ----------------------------------------
 BYTE   PATT
  POIN2 Label_013DB32C
//  #07 //161   ----------------------------------------
 BYTE   PATT
  POIN2 Label_013DB34F
//  #07 //162   ----------------------------------------
 BYTE   PATT
  POIN2 Label_013DB372
//  #07 //163   ----------------------------------------
 BYTE   GoTo
  POIN2 Label_013DB395
//  #07 //164   ----------------------------------------
 BYTE   PATT
  POIN2 Label_013DB273
//  #07 //165   ----------------------------------------
 BYTE   PATT
  POIN2 Label_013DB296
//  #07 //166   ----------------------------------------
 BYTE   PATT
  POIN2 Label_013DB32C
 BYTE   FINE

//**************** Track 8 (Midi-Chn.7) ****************//

SonicAdvance3ChaosAngelAct1MeatOfJustice_008:
//  #08 //000   ----------------------------------------
 BYTE   KEYSH   SonicAdvance3ChaosAngelAct1MeatOfJustice_key+0
 BYTE   VOICE   7
 BYTE   MODT 0
 BYTE   LFOS 44
 BYTE   VOL   96*SonicAdvance3ChaosAngelAct1MeatOfJustice_mvl/mxv
 BYTE   MODT 0
 BYTE   LFOS 44
 BYTE   W96
//  #08 //001   ----------------------------------------
 BYTE   W96
//  #08 //002   ----------------------------------------
 BYTE   W96
//  #08 //003   ----------------------------------------
 BYTE   W96
//  #08 //004   ----------------------------------------
Label_013D1B36:
 BYTE   N06  Gn3  v072
 BYTE   W12
 BYTE   N18  Gn4
 BYTE   W18
 BYTE   N06  Gn3
 BYTE   W06
 BYTE   N12  Dn4
 BYTE   W12
 BYTE   N06  As3
 BYTE   W06
 BYTE   An3
 BYTE   W06
 BYTE   Gn3
 BYTE   W06
 BYTE   An3
 BYTE   W06
 BYTE   As3
 BYTE   W06
 BYTE   Cn4
 BYTE   W06
 BYTE   Dn4
 BYTE   W06
 BYTE   Gn4
 BYTE   W06
 BYTE   PEND 
//  #08 //005   ----------------------------------------
Label_013D1B55:
 BYTE   N06  Fs3  v072
 BYTE   W12
 BYTE   N18  Fs4
 BYTE   W18
 BYTE   N06  Fs3
 BYTE   W06
 BYTE   N12  Dn4
 BYTE   W12
 BYTE   N06  As3
 BYTE   W06
 BYTE   An3
 BYTE   W06
 BYTE   Fs3
 BYTE   W06
 BYTE   An3
 BYTE   W06
 BYTE   As3
 BYTE   W06
 BYTE   Cn4
 BYTE   W06
 BYTE   Dn4
 BYTE   W06
 BYTE   Fs4
 BYTE   W06
 BYTE   PEND 
//  #08 //006   ----------------------------------------
Label_013D1B74:
 BYTE   N06  Fn3  v072
 BYTE   W12
 BYTE   N18  Fn4
 BYTE   W18
 BYTE   N06  Fn3
 BYTE   W06
 BYTE   N12  Dn4
 BYTE   W12
 BYTE   N06  As3
 BYTE   W06
 BYTE   An3
 BYTE   W06
 BYTE   Fn3
 BYTE   W06
 BYTE   An3
 BYTE   W06
 BYTE   As3
 BYTE   W06
 BYTE   Cn4
 BYTE   W06
 BYTE   Dn4
 BYTE   W06
 BYTE   Fn4
 BYTE   W06
 BYTE   PEND 
//  #08 //007   ----------------------------------------
Label_013D1B93:
 BYTE   N12  As4  v072
 BYTE   W12
 BYTE   N06  An4
 BYTE   W06
 BYTE   N12  Gn4
 BYTE   W12
 BYTE   N06  As4
 BYTE   W06
 BYTE   En4
 BYTE   W12
 BYTE   N04  Dn4
 BYTE   W04
 BYTE   En4
 BYTE   W04
 BYTE   Dn5
 BYTE   W04
 BYTE   Cn4
 BYTE   W04
 BYTE   En4
 BYTE   W04
 BYTE   Cn5
 BYTE   W04
 BYTE   As3
 BYTE   W04
 BYTE   En4
 BYTE   W04
 BYTE   As4
 BYTE   W04
 BYTE   Cn4
 BYTE   W04
 BYTE   En4
 BYTE   W04
 BYTE   Cn5
 BYTE   W04
 BYTE   PEND 
//  #08 //008   ----------------------------------------
Label_013D1BBC:
 BYTE   N06  Gn3  v072
 BYTE   N06  Dn4
 BYTE   W12
 BYTE   N18  Gn4
 BYTE   N18  Dn5
 BYTE   W18
 BYTE   N06  Gn3
 BYTE   N06  Dn4
 BYTE   W06
 BYTE   N12
 BYTE   N12  Cn5
 BYTE   W12
 BYTE   N06  As3
 BYTE   N06  Dn5
 BYTE   W06
 BYTE   An3
 BYTE   N06  Cn5
 BYTE   W06
 BYTE   Gn3
 BYTE   N06  As4
 BYTE   W06
 BYTE   An3
 BYTE   N06  Dn5
 BYTE   W06
 BYTE   As3
 BYTE   N06  Gn4
 BYTE   W06
 BYTE   Cn4
 BYTE   N06  An4
 BYTE   W06
 BYTE   Dn4
 BYTE   N06  As4
 BYTE   W06
 BYTE   Gn4
 BYTE   N06  Dn5
 BYTE   W06
 BYTE   PEND 
//  #08 //009   ----------------------------------------
Label_013D1BF2:
 BYTE   N06  Fs3  v072
 BYTE   N06  Dn4
 BYTE   W12
 BYTE   N18  Fs4
 BYTE   N18  Dn5
 BYTE   W18
 BYTE   N06  Fs3
 BYTE   N06  Dn4
 BYTE   W06
 BYTE   N12
 BYTE   N12  Cn5
 BYTE   W12
 BYTE   N06  As3
 BYTE   N06  Dn5
 BYTE   W06
 BYTE   An3
 BYTE   N06  Cn5
 BYTE   W06
 BYTE   Fs3
 BYTE   N06  As4
 BYTE   W06
 BYTE   An3
 BYTE   N06  Dn5
 BYTE   W06
 BYTE   As3
 BYTE   N06  Fs4
 BYTE   W06
 BYTE   Cn4
 BYTE   N06  An4
 BYTE   W06
 BYTE   Dn4
 BYTE   N06  As4
 BYTE   W06
 BYTE   Fs4
 BYTE   N06  Dn5
 BYTE   W06
 BYTE   PEND 
//  #08 //010   ----------------------------------------
Label_013D1C28:
 BYTE   N06  Fn3  v072
 BYTE   N06  Dn4
 BYTE   W12
 BYTE   N18  Fn4
 BYTE   N18  Dn5
 BYTE   W18
 BYTE   N06  Fn3
 BYTE   N06  Dn4
 BYTE   W06
 BYTE   N12
 BYTE   N12  Cn5
 BYTE   W12
 BYTE   N06  As3
 BYTE   N06  Dn5
 BYTE   W06
 BYTE   An3
 BYTE   N06  Cn5
 BYTE   W06
 BYTE   Fn3
 BYTE   N06  As4
 BYTE   W06
 BYTE   An3
 BYTE   N06  Dn5
 BYTE   W06
 BYTE   As3
 BYTE   N06  Gn4
 BYTE   W06
 BYTE   Cn4
 BYTE   N06  An4
 BYTE   W06
 BYTE   Dn4
 BYTE   N06  As4
 BYTE   W06
 BYTE   Fn4
 BYTE   N18  Dn5
 BYTE   W06
 BYTE   PEND 
//  #08 //011   ----------------------------------------
Label_013D1C5E:
 BYTE   N12  As4  v072
 BYTE   W12
 BYTE   N06  An4
 BYTE   N06  Cn5
 BYTE   W06
 BYTE   N12  Gn4
 BYTE   N12  As4
 BYTE   W12
 BYTE   N06
 BYTE   N06  Dn5
 BYTE   W06
 BYTE   En4
 BYTE   N06  As4
 BYTE   W12
 BYTE   N04  Dn4
 BYTE   N04  Gn4
 BYTE   W04
 BYTE   En4
 BYTE   N04  As4
 BYTE   W04
 BYTE   Dn5
 BYTE   N04  Gn5
 BYTE   W04
 BYTE   Cn4
 BYTE   N04  Fn4
 BYTE   W04
 BYTE   En4
 BYTE   N04  As4
 BYTE   W04
 BYTE   Cn5
 BYTE   N04  Fn5
 BYTE   W04
 BYTE   As3
 BYTE   N04  En4
 BYTE   W04
 BYTE   N04
 BYTE   N04  As4
 BYTE   W04
 BYTE   N04
 BYTE   N04  En5
 BYTE   W04
 BYTE   Cn4
 BYTE   N04  Fn4
 BYTE   W04
 BYTE   En4
 BYTE   N04  As4
 BYTE   W04
 BYTE   Cn5
 BYTE   N04  Fn5
 BYTE   W04
 BYTE   PEND 
//  #08 //012   ----------------------------------------
 BYTE   W96
//  #08 //013   ----------------------------------------
 BYTE   W96
//  #08 //014   ----------------------------------------
 BYTE   W96
//  #08 //015   ----------------------------------------
 BYTE   W96
//  #08 //016   ----------------------------------------
 BYTE   W96
//  #08 //017   ----------------------------------------
 BYTE   W96
//  #08 //018   ----------------------------------------
 BYTE   W96
//  #08 //019   ----------------------------------------
 BYTE   W96
//  #08 //020   ----------------------------------------
Label_013D1CAE:
 BYTE   W96
//  #08 //021   ----------------------------------------
 BYTE   W96
//  #08 //022   ----------------------------------------
 BYTE   W96
//  #08 //023   ----------------------------------------
 BYTE   W96
//  #08 //024   ----------------------------------------
 BYTE   W96
//  #08 //025   ----------------------------------------
 BYTE   W96
//  #08 //026   ----------------------------------------
 BYTE   W96
//  #08 //027   ----------------------------------------
 BYTE   W96
//  #08 //028   ----------------------------------------
 BYTE   W96
//  #08 //029   ----------------------------------------
 BYTE   W96
//  #08 //030   ----------------------------------------
 BYTE   W96
//  #08 //031   ----------------------------------------
Label_013D1CB9:
 BYTE   N06  As3  v072
 BYTE   N06  Dn4
 BYTE   W06
 BYTE   N12  As3
 BYTE   N12  Dn4
 BYTE   W12
 BYTE   N06  As3
 BYTE   N06  Dn4
 BYTE   W06
 BYTE   N12  Gn3
 BYTE   N12  As3
 BYTE   W12
 BYTE   N06
 BYTE   N06  Dn4
 BYTE   W06
 BYTE   Gn3
 BYTE   N06  As3
 BYTE   W06
 BYTE   Dn3
 BYTE   N06  Gn3
 BYTE   W06
 BYTE   Ds3
 BYTE   N06  An3
 BYTE   W06
 BYTE   Fn3
 BYTE   N06  As3
 BYTE   W06
 BYTE   Fn3
 BYTE   N06  As3
 BYTE   W06
 BYTE   N06
 BYTE   N06  Ds4
 BYTE   W06
 BYTE   An3
 BYTE   N06  Dn4
 BYTE   W06
 BYTE   Gn3
 BYTE   N06  Cn4
 BYTE   W06
 BYTE   Fn3
 BYTE   N06  As3
 BYTE   W06
 BYTE   PEND 
//  #08 //032   ----------------------------------------
Label_013D1CF7:
 BYTE   N06  As3  v072
 BYTE   N06  Dn4
 BYTE   W06
 BYTE   N12  Gn3
 BYTE   N12  As3
 BYTE   W12
 BYTE   N06  Gn3
 BYTE   N06  As3
 BYTE   W06
 BYTE   N06
 BYTE   N06  Dn4
 BYTE   W06
 BYTE   Gn3
 BYTE   N06  As3
 BYTE   W06
 BYTE   Cs4
 BYTE   N06  Fn4
 BYTE   W06
 BYTE   N12  An3
 BYTE   N12  Dn4
 BYTE   W12
 BYTE   N12
 BYTE   N12  Fs4
 BYTE   W12
 BYTE   N06  As3
 BYTE   N06  Dn4
 BYTE   W06
 BYTE   Fs4
 BYTE   N06  An4
 BYTE   W06
 BYTE   Dn4
 BYTE   N06  Fs4
 BYTE   W06
 BYTE   Cn4
 BYTE   N06  Ds4
 BYTE   W06
 BYTE   As3
 BYTE   N06  Dn4
 BYTE   W06
 BYTE   PEND 
//  #08 //033   ----------------------------------------
 BYTE   PATT
  POIN2 Label_013D1CB9
//  #08 //034   ----------------------------------------
Label_013D1D37:
 BYTE   N06  As3  v072
 BYTE   N06  Dn4
 BYTE   W06
 BYTE   N12  Gn3
 BYTE   N12  As3
 BYTE   W12
 BYTE   N06  Gn3
 BYTE   N06  As3
 BYTE   W06
 BYTE   N06
 BYTE   N06  Dn4
 BYTE   W06
 BYTE   Gn3
 BYTE   N06  As3
 BYTE   W06
 BYTE   Cs4
 BYTE   N06  Fn4
 BYTE   W06
 BYTE   N12  An3
 BYTE   N12  Dn4
 BYTE   W12
 BYTE   N12
 BYTE   N12  Fs4
 BYTE   W12
 BYTE   N06  As3
 BYTE   N06  Dn4
 BYTE   W06
 BYTE   Fs4
 BYTE   N06  An4
 BYTE   W06
 BYTE   Dn4
 BYTE   N06  Fs4
 BYTE   W06
 BYTE   Cn4
 BYTE   N06  Ds4
 BYTE   W06
 BYTE   As3
 BYTE   N12  Dn4
 BYTE   W06
 BYTE   PEND 
//  #08 //035   ----------------------------------------
 BYTE   N06  As3
 BYTE   W96
//  #08 //036   ----------------------------------------
 BYTE   W96
//  #08 //037   ----------------------------------------
 BYTE   W96
//  #08 //038   ----------------------------------------
 BYTE   W96
//  #08 //039   ----------------------------------------
 BYTE   W96
//  #08 //040   ----------------------------------------
 BYTE   W96
//  #08 //041   ----------------------------------------
 BYTE   W96
//  #08 //042   ----------------------------------------
 BYTE   W96
//  #08 //043   ----------------------------------------
 BYTE   W96
//  #08 //044   ----------------------------------------
 BYTE   W96
//  #08 //045   ----------------------------------------
 BYTE   W96
//  #08 //046   ----------------------------------------
 BYTE   W96
//  #08 //047   ----------------------------------------
 BYTE   W96
//  #08 //048   ----------------------------------------
 BYTE   W96
//  #08 //049   ----------------------------------------
 BYTE   W96
//  #08 //050   ----------------------------------------
 BYTE   W96
//  #08 //051   ----------------------------------------
Label_013D1D84:
 BYTE   N06  Fn3  v072
 BYTE   W12
 BYTE   N18  Fn4
 BYTE   W18
 BYTE   N06  Fn3
 BYTE   W06
 BYTE   N12  Cn4
 BYTE   W12
 BYTE   N06  Gs3
 BYTE   W06
 BYTE   Gn3
 BYTE   W06
 BYTE   Fn3
 BYTE   W06
 BYTE   Gn3
 BYTE   W06
 BYTE   Gs3
 BYTE   W06
 BYTE   As3
 BYTE   W06
 BYTE   Cn4
 BYTE   W06
 BYTE   Fn4
 BYTE   W06
 BYTE   PEND 
//  #08 //052   ----------------------------------------
 BYTE   PATT
  POIN2 Label_013D1B36
//  #08 //053   ----------------------------------------
Label_013D1DA8:
 BYTE   N06  Gn3  v072
 BYTE   W06
 BYTE   N12  Gn4
 BYTE   W12
 BYTE   N06  Dn4
 BYTE   W06
 BYTE   Gs4
 BYTE   W06
 BYTE   Dn4
 BYTE   W06
 BYTE   Gn3
 BYTE   W06
 BYTE   N12  Gn4
 BYTE   W12
 BYTE   N06  Dn4
 BYTE   W06
 BYTE   Gs4
 BYTE   W06
 BYTE   Dn4
 BYTE   W06
 BYTE   Gn3
 BYTE   W06
 BYTE   Dn4
 BYTE   W06
 BYTE   Gn4
 BYTE   W06
 BYTE   Gs4
 BYTE   W06
 BYTE   PEND 
//  #08 //054   ----------------------------------------
Label_013D1DCB:
 BYTE   N12  As4  v072
 BYTE   W12
 BYTE   N06  Gs4
 BYTE   W06
 BYTE   Gn4
 BYTE   W06
 BYTE   Gs4
 BYTE   W06
 BYTE   Gn4
 BYTE   W06
 BYTE   Fn4
 BYTE   W06
 BYTE   N12  Dn4
 BYTE   W12
 BYTE   N06
 BYTE   W06
 BYTE   Bn3
 BYTE   W06
 BYTE   Dn4
 BYTE   W06
 BYTE   Gs3
 BYTE   W06
 BYTE   Bn3
 BYTE   W06
 BYTE   Dn4
 BYTE   W06
 BYTE   Gn4
 BYTE   W06
 BYTE   PEND 
//  #08 //055   ----------------------------------------
Label_013D1DEC:
 BYTE   N06  An3  v072
 BYTE   W12
 BYTE   N18  An4
 BYTE   W18
 BYTE   N06  An3
 BYTE   W06
 BYTE   N12  En4
 BYTE   W12
 BYTE   N06  Cn4
 BYTE   W06
 BYTE   Bn3
 BYTE   W06
 BYTE   An3
 BYTE   W06
 BYTE   Bn3
 BYTE   W06
 BYTE   Cn4
 BYTE   W06
 BYTE   Dn4
 BYTE   W06
 BYTE   En4
 BYTE   W06
 BYTE   An4
 BYTE   W06
 BYTE   PEND 
//  #08 //056   ----------------------------------------
Label_013D1E0B:
 BYTE   N06  As3  v072
 BYTE   W12
 BYTE   N18  As4
 BYTE   W18
 BYTE   N06  As3
 BYTE   W06
 BYTE   N12  Fn4
 BYTE   W12
 BYTE   N06  Cs4
 BYTE   W06
 BYTE   Cn4
 BYTE   W06
 BYTE   As3
 BYTE   W06
 BYTE   Cn4
 BYTE   W06
 BYTE   Cs4
 BYTE   W06
 BYTE   Ds4
 BYTE   W06
 BYTE   Fn4
 BYTE   W06
 BYTE   As4
 BYTE   W06
 BYTE   PEND 
//  #08 //057   ----------------------------------------
Label_013D1E2A:
 BYTE   N06  Bn3  v072
 BYTE   W06
 BYTE   N12  Bn4
 BYTE   W12
 BYTE   N06  Fs4
 BYTE   W06
 BYTE   Cs5
 BYTE   W06
 BYTE   Fs4
 BYTE   W06
 BYTE   Bn3
 BYTE   W06
 BYTE   N12  Bn4
 BYTE   W12
 BYTE   N06  Fs4
 BYTE   W06
 BYTE   Cs5
 BYTE   W06
 BYTE   Fs4
 BYTE   W06
 BYTE   Bn3
 BYTE   W06
 BYTE   Fs4
 BYTE   W06
 BYTE   Bn4
 BYTE   W06
 BYTE   Cs5
 BYTE   W06
 BYTE   PEND 
//  #08 //058   ----------------------------------------
Label_013D1E4D:
 BYTE   N12  Ds5  v072
 BYTE   W12
 BYTE   N06  Cs5
 BYTE   W06
 BYTE   Bn4
 BYTE   W06
 BYTE   Cs5
 BYTE   W06
 BYTE   Bn4
 BYTE   W06
 BYTE   Gs4
 BYTE   W06
 BYTE   N12  Fs4
 BYTE   W12
 BYTE   N06
 BYTE   W06
 BYTE   Ds4
 BYTE   W06
 BYTE   Fs4
 BYTE   W06
 BYTE   Cs4
 BYTE   W06
 BYTE   Ds4
 BYTE   W06
 BYTE   Fs4
 BYTE   W06
 BYTE   Bn4
 BYTE   W06
 BYTE   PEND 
//  #08 //059   ----------------------------------------
Label_013D1E6E:
 BYTE   N06  Cn3  v072
 BYTE   N06  Fn3
 BYTE   W12
 BYTE   N18  Cn4
 BYTE   N18  Fn4
 BYTE   W18
 BYTE   N06  Cn3
 BYTE   N06  Fn3
 BYTE   W06
 BYTE   N12  Gn3
 BYTE   N12  Cn4
 BYTE   W12
 BYTE   N06  Ds3
 BYTE   N06  Gs3
 BYTE   W06
 BYTE   Dn3
 BYTE   N06  Gn3
 BYTE   W06
 BYTE   Cn3
 BYTE   N06  Fn3
 BYTE   W06
 BYTE   Dn3
 BYTE   N06  Gn3
 BYTE   W06
 BYTE   Ds3
 BYTE   N06  Gs3
 BYTE   W06
 BYTE   Fn3
 BYTE   N06  As3
 BYTE   W06
 BYTE   Gn3
 BYTE   N06  Cn4
 BYTE   W06
 BYTE   N06
 BYTE   N06  Fn4
 BYTE   W06
 BYTE   PEND 
//  #08 //060   ----------------------------------------
Label_013D1EA5:
 BYTE   N06  Dn3  v072
 BYTE   N06  Gn3
 BYTE   W12
 BYTE   N18  Dn4
 BYTE   N18  Gn4
 BYTE   W18
 BYTE   N06  Dn3
 BYTE   N06  Gn3
 BYTE   W06
 BYTE   N12  An3
 BYTE   N12  Dn4
 BYTE   W12
 BYTE   N06  Fn3
 BYTE   N06  As3
 BYTE   W06
 BYTE   En3
 BYTE   N06  An3
 BYTE   W06
 BYTE   Dn3
 BYTE   N06  Gn3
 BYTE   W06
 BYTE   En3
 BYTE   N06  An3
 BYTE   W06
 BYTE   Fn3
 BYTE   N06  As3
 BYTE   W06
 BYTE   Gn3
 BYTE   N06  Cn4
 BYTE   W06
 BYTE   An3
 BYTE   N06  Dn4
 BYTE   W06
 BYTE   N06
 BYTE   N06  Gn4
 BYTE   W06
 BYTE   PEND 
//  #08 //061   ----------------------------------------
Label_013D1EDC:
 BYTE   N06  Dn3  v072
 BYTE   N06  Gn3
 BYTE   W06
 BYTE   N12  Dn4
 BYTE   N12  Gn4
 BYTE   W12
 BYTE   N06  Gn3
 BYTE   N06  Dn4
 BYTE   W06
 BYTE   Fn4
 BYTE   N06  Gs4
 BYTE   W06
 BYTE   Gn3
 BYTE   N06  Dn4
 BYTE   W06
 BYTE   Dn3
 BYTE   N06  Gn3
 BYTE   W06
 BYTE   N12  Dn4
 BYTE   N12  Gn4
 BYTE   W12
 BYTE   N06  Dn3
 BYTE   N06  Dn4
 BYTE   W06
 BYTE   Fn4
 BYTE   N06  Gs4
 BYTE   W06
 BYTE   Gn3
 BYTE   N06  Dn4
 BYTE   W06
 BYTE   Dn3
 BYTE   N06  Gn3
 BYTE   W06
 BYTE   N06
 BYTE   N06  Dn4
 BYTE   W06
 BYTE   N06
 BYTE   N06  Gn4
 BYTE   W06
 BYTE   Fn4
 BYTE   N06  Gs4
 BYTE   W06
 BYTE   PEND 
//  #08 //062   ----------------------------------------
Label_013D1F1B:
 BYTE   N12  Gn4  v072
 BYTE   N12  As4
 BYTE   W12
 BYTE   N06  Fn4
 BYTE   N06  Gs4
 BYTE   W06
 BYTE   Dn4
 BYTE   N06  Gn4
 BYTE   W06
 BYTE   Fn4
 BYTE   N06  Gs4
 BYTE   W06
 BYTE   Dn4
 BYTE   N06  Gn4
 BYTE   W06
 BYTE   Bn3
 BYTE   N06  Fn4
 BYTE   W06
 BYTE   N12  Gn3
 BYTE   N12  Dn4
 BYTE   W12
 BYTE   N06  Gn3
 BYTE   N06  Dn4
 BYTE   W06
 BYTE   Fn3
 BYTE   N06  Bn3
 BYTE   W06
 BYTE   Gn3
 BYTE   N06  Dn4
 BYTE   W06
 BYTE   Dn3
 BYTE   N06  Gs3
 BYTE   W06
 BYTE   Gn3
 BYTE   N06  Bn3
 BYTE   W06
 BYTE   N06
 BYTE   N06  Dn4
 BYTE   W06
 BYTE   N06
 BYTE   N06  Gn4
 BYTE   W06
 BYTE   PEND 
//  #08 //063   ----------------------------------------
Label_013D1F59:
 BYTE   N06  En3  v072
 BYTE   N06  An3
 BYTE   W12
 BYTE   N18  En4
 BYTE   N18  An4
 BYTE   W18
 BYTE   N06  En3
 BYTE   N06  An3
 BYTE   W06
 BYTE   N12  Bn3
 BYTE   N12  En4
 BYTE   W12
 BYTE   N06  Gn3
 BYTE   N06  Cn4
 BYTE   W06
 BYTE   Fs3
 BYTE   N06  Bn3
 BYTE   W06
 BYTE   En3
 BYTE   N06  An3
 BYTE   W06
 BYTE   Fs3
 BYTE   N06  Bn3
 BYTE   W06
 BYTE   Gn3
 BYTE   N06  Cn4
 BYTE   W06
 BYTE   An3
 BYTE   N06  Dn4
 BYTE   W06
 BYTE   Bn3
 BYTE   N06  En4
 BYTE   W06
 BYTE   N06
 BYTE   N06  An4
 BYTE   W06
 BYTE   PEND 
//  #08 //064   ----------------------------------------
Label_013D1F90:
 BYTE   N06  Fn3  v072
 BYTE   N06  As3
 BYTE   W12
 BYTE   N18  Fn4
 BYTE   N18  As4
 BYTE   W18
 BYTE   N06  Fn3
 BYTE   N06  As3
 BYTE   W06
 BYTE   N12  Cn4
 BYTE   N12  Fn4
 BYTE   W12
 BYTE   N06  Gs3
 BYTE   N06  Cs4
 BYTE   W06
 BYTE   Gn3
 BYTE   N06  Cn4
 BYTE   W06
 BYTE   Fn3
 BYTE   N06  As3
 BYTE   W06
 BYTE   Gn3
 BYTE   N06  Cn4
 BYTE   W06
 BYTE   Gs3
 BYTE   N06  Cs4
 BYTE   W06
 BYTE   As3
 BYTE   N06  Ds4
 BYTE   W06
 BYTE   Cn4
 BYTE   N06  Fn4
 BYTE   W06
 BYTE   N06
 BYTE   N06  As4
 BYTE   W06
 BYTE   PEND 
//  #08 //065   ----------------------------------------
Label_013D1FC7:
 BYTE   N06  Fs3  v072
 BYTE   N06  Bn3
 BYTE   W06
 BYTE   N12  Fs4
 BYTE   N12  Bn4
 BYTE   W12
 BYTE   N06  Cs4
 BYTE   N06  Fs4
 BYTE   W06
 BYTE   Gs4
 BYTE   N06  Cs5
 BYTE   W06
 BYTE   Cs4
 BYTE   N06  Fs4
 BYTE   W06
 BYTE   Fs3
 BYTE   N06  Bn3
 BYTE   W06
 BYTE   N12  Fs4
 BYTE   N12  Bn4
 BYTE   W12
 BYTE   N06  Cs4
 BYTE   N06  Fs4
 BYTE   W06
 BYTE   Gs4
 BYTE   N06  Cs5
 BYTE   W06
 BYTE   Cs4
 BYTE   N06  Fs4
 BYTE   W06
 BYTE   Fs3
 BYTE   N06  Bn3
 BYTE   W06
 BYTE   Cs4
 BYTE   N06  Fs4
 BYTE   W06
 BYTE   N06
 BYTE   N06  Bn4
 BYTE   W06
 BYTE   Gs4
 BYTE   N06  Cs5
 BYTE   W06
 BYTE   PEND 
//  #08 //066   ----------------------------------------
Label_013D2006:
 BYTE   N12  As4  v072
 BYTE   N12  Ds5
 BYTE   W12
 BYTE   N06  Gs4
 BYTE   N06  Cs5
 BYTE   W06
 BYTE   Fs4
 BYTE   N06  Bn4
 BYTE   W06
 BYTE   Gs4
 BYTE   N06  Cs5
 BYTE   W06
 BYTE   Fs4
 BYTE   N06  Bn4
 BYTE   W06
 BYTE   Ds4
 BYTE   N06  Gs4
 BYTE   W06
 BYTE   N12  Cs4
 BYTE   N12  Fs4
 BYTE   W12
 BYTE   N06  Cs4
 BYTE   N06  Fs4
 BYTE   W06
 BYTE   As3
 BYTE   N06  Ds4
 BYTE   W06
 BYTE   Cs4
 BYTE   N06  Fs4
 BYTE   W06
 BYTE   Gs3
 BYTE   N06  Cs4
 BYTE   W06
 BYTE   As3
 BYTE   N06  Ds4
 BYTE   W06
 BYTE   Cs4
 BYTE   N06  Fs4
 BYTE   W06
 BYTE   N06
 BYTE   N06  Bn4
 BYTE   W06
 BYTE   PEND 
//  #08 //067   ----------------------------------------
 BYTE   PATT
  POIN2 Label_013D1CB9
//  #08 //068   ----------------------------------------
 BYTE   PATT
  POIN2 Label_013D1CF7
//  #08 //069   ----------------------------------------
 BYTE   PATT
  POIN2 Label_013D1CB9
//  #08 //070   ----------------------------------------
 BYTE   PATT
  POIN2 Label_013D1CF7
//  #08 //071   ----------------------------------------
 BYTE   PATT
  POIN2 Label_013D1CB9
//  #08 //072   ----------------------------------------
 BYTE   PATT
  POIN2 Label_013D1CF7
//  #08 //073   ----------------------------------------
 BYTE   PATT
  POIN2 Label_013D1CB9
//  #08 //074   ----------------------------------------
 BYTE   PATT
  POIN2 Label_013D1CF7
//  #08 //075   ----------------------------------------
 BYTE   PATT
  POIN2 Label_013D1B36
//  #08 //076   ----------------------------------------
 BYTE   PATT
  POIN2 Label_013D1B55
//  #08 //077   ----------------------------------------
 BYTE   PATT
  POIN2 Label_013D1B74
//  #08 //078   ----------------------------------------
 BYTE   PATT
  POIN2 Label_013D1B93
//  #08 //079   ----------------------------------------
 BYTE   PATT
  POIN2 Label_013D1BBC
//  #08 //080   ----------------------------------------
 BYTE   PATT
  POIN2 Label_013D1BF2
//  #08 //081   ----------------------------------------
 BYTE   PATT
  POIN2 Label_013D1C28
//  #08 //082   ----------------------------------------
 BYTE   PATT
  POIN2 Label_013D1C5E
//  #08 //083   ----------------------------------------
 BYTE   W96
//  #08 //084   ----------------------------------------
 BYTE   W96
//  #08 //085   ----------------------------------------
 BYTE   W96
//  #08 //086   ----------------------------------------
 BYTE   W96
//  #08 //087   ----------------------------------------
 BYTE   W96
//  #08 //088   ----------------------------------------
 BYTE   W96
//  #08 //089   ----------------------------------------
 BYTE   W96
//  #08 //090   ----------------------------------------
 BYTE   W96
//  #08 //091   ----------------------------------------
 BYTE   W96
//  #08 //092   ----------------------------------------
 BYTE   W96
//  #08 //093   ----------------------------------------
 BYTE   W96
//  #08 //094   ----------------------------------------
 BYTE   W96
//  #08 //095   ----------------------------------------
 BYTE   W96
//  #08 //096   ----------------------------------------
 BYTE   W96
//  #08 //097   ----------------------------------------
 BYTE   W96
//  #08 //098   ----------------------------------------
 BYTE   W96
//  #08 //099   ----------------------------------------
 BYTE   W96
//  #08 //100   ----------------------------------------
 BYTE   W96
//  #08 //101   ----------------------------------------
 BYTE   W96
//  #08 //102   ----------------------------------------
 BYTE   PATT
  POIN2 Label_013D1CB9
//  #08 //103   ----------------------------------------
 BYTE   PATT
  POIN2 Label_013D1CF7
//  #08 //104   ----------------------------------------
 BYTE   PATT
  POIN2 Label_013D1CB9
//  #08 //105   ----------------------------------------
 BYTE   PATT
  POIN2 Label_013D1D37
//  #08 //106   ----------------------------------------
 BYTE   N06  As3  v072
 BYTE   W96
//  #08 //107   ----------------------------------------
 BYTE   W96
//  #08 //108   ----------------------------------------
 BYTE   W96
//  #08 //109   ----------------------------------------
 BYTE   W96
//  #08 //110   ----------------------------------------
 BYTE   W96
//  #08 //111   ----------------------------------------
 BYTE   W96
//  #08 //112   ----------------------------------------
 BYTE   W96
//  #08 //113   ----------------------------------------
 BYTE   W96
//  #08 //114   ----------------------------------------
 BYTE   W96
//  #08 //115   ----------------------------------------
 BYTE   W96
//  #08 //116   ----------------------------------------
 BYTE   W96
//  #08 //117   ----------------------------------------
 BYTE   W96
//  #08 //118   ----------------------------------------
 BYTE   W96
//  #08 //119   ----------------------------------------
 BYTE   W96
//  #08 //120   ----------------------------------------
 BYTE   W96
//  #08 //121   ----------------------------------------
 BYTE   W96
//  #08 //122   ----------------------------------------
 BYTE   PATT
  POIN2 Label_013D1D84
//  #08 //123   ----------------------------------------
 BYTE   PATT
  POIN2 Label_013D1B36
//  #08 //124   ----------------------------------------
 BYTE   PATT
  POIN2 Label_013D1DA8
//  #08 //125   ----------------------------------------
 BYTE   PATT
  POIN2 Label_013D1DCB
//  #08 //126   ----------------------------------------
 BYTE   PATT
  POIN2 Label_013D1DEC
//  #08 //127   ----------------------------------------
 BYTE   PATT
  POIN2 Label_013D1E0B
//  #08 //128   ----------------------------------------
 BYTE   PATT
  POIN2 Label_013D1E2A
//  #08 //129   ----------------------------------------
 BYTE   PATT
  POIN2 Label_013D1E4D
//  #08 //130   ----------------------------------------
 BYTE   PATT
  POIN2 Label_013D1E6E
//  #08 //131   ----------------------------------------
 BYTE   PATT
  POIN2 Label_013D1EA5
//  #08 //132   ----------------------------------------
 BYTE   PATT
  POIN2 Label_013D1EDC
//  #08 //133   ----------------------------------------
 BYTE   PATT
  POIN2 Label_013D1F1B
//  #08 //134   ----------------------------------------
 BYTE   PATT
  POIN2 Label_013D1F59
//  #08 //135   ----------------------------------------
 BYTE   PATT
  POIN2 Label_013D1F90
//  #08 //136   ----------------------------------------
 BYTE   PATT
  POIN2 Label_013D1FC7
//  #08 //137   ----------------------------------------
 BYTE   PATT
  POIN2 Label_013D2006
//  #08 //138   ----------------------------------------
 BYTE   PATT
  POIN2 Label_013D1CB9
//  #08 //139   ----------------------------------------
 BYTE   PATT
  POIN2 Label_013D1CF7
//  #08 //140   ----------------------------------------
 BYTE   PATT
  POIN2 Label_013D1CB9
//  #08 //141   ----------------------------------------
 BYTE   PATT
  POIN2 Label_013D1CF7
//  #08 //142   ----------------------------------------
 BYTE   PATT
  POIN2 Label_013D1CB9
//  #08 //143   ----------------------------------------
 BYTE   PATT
  POIN2 Label_013D1CF7
//  #08 //144   ----------------------------------------
 BYTE   PATT
  POIN2 Label_013D1CB9
//  #08 //145   ----------------------------------------
 BYTE   PATT
  POIN2 Label_013D1CF7
//  #08 //146   ----------------------------------------
 BYTE   PATT
  POIN2 Label_013D1B36
//  #08 //147   ----------------------------------------
 BYTE   PATT
  POIN2 Label_013D1B55
//  #08 //148   ----------------------------------------
 BYTE   PATT
  POIN2 Label_013D1B74
//  #08 //149   ----------------------------------------
 BYTE   PATT
  POIN2 Label_013D1B93
//  #08 //150   ----------------------------------------
 BYTE   PATT
  POIN2 Label_013D1BBC
//  #08 //151   ----------------------------------------
 BYTE   PATT
  POIN2 Label_013D1BF2
//  #08 //152   ----------------------------------------
 BYTE   PATT
  POIN2 Label_013D1C28
//  #08 //153   ----------------------------------------
 BYTE   PATT
  POIN2 Label_013D1C5E
//  #08 //154   ----------------------------------------
 BYTE   W96
//  #08 //155   ----------------------------------------
 BYTE   W96
//  #08 //156   ----------------------------------------
 BYTE   W96
//  #08 //157   ----------------------------------------
 BYTE   W96
//  #08 //158   ----------------------------------------
 BYTE   W96
//  #08 //159   ----------------------------------------
 BYTE   W96
//  #08 //160   ----------------------------------------
 BYTE   W96
//  #08 //161   ----------------------------------------
 BYTE   W96
//  #08 //162   ----------------------------------------
 BYTE   GoTo
  POIN2 Label_013D1CAE
//  #08 //163   ----------------------------------------
 BYTE   W96
//  #08 //164   ----------------------------------------
 BYTE   W96
//  #08 //165   ----------------------------------------
 BYTE   W12
 BYTE   FINE

//**************** Track 9 (Midi-Chn.8) ****************//

SonicAdvance3ChaosAngelAct1MeatOfJustice_009:
//  #09 //000   ----------------------------------------
 BYTE   KEYSH   SonicAdvance3ChaosAngelAct1MeatOfJustice_key+0
 BYTE   VOICE   4
 BYTE   MODT 0
 BYTE   LFOS 44
 BYTE   VOL   80*SonicAdvance3ChaosAngelAct1MeatOfJustice_mvl/mxv
 BYTE   MODT 0
 BYTE   LFOS 44
 BYTE   W96
//  #09 //001   ----------------------------------------
 BYTE   W96
//  #09 //002   ----------------------------------------
 BYTE   W96
//  #09 //003   ----------------------------------------
 BYTE   W96
//  #09 //004   ----------------------------------------
 BYTE   W96
//  #09 //005   ----------------------------------------
 BYTE   W96
//  #09 //006   ----------------------------------------
 BYTE   W96
//  #09 //007   ----------------------------------------
 BYTE   W96
//  #09 //008   ----------------------------------------
 BYTE   W96
//  #09 //009   ----------------------------------------
 BYTE   W96
//  #09 //010   ----------------------------------------
 BYTE   W96
//  #09 //011   ----------------------------------------
 BYTE   W96
//  #09 //012   ----------------------------------------
 BYTE   W96
//  #09 //013   ----------------------------------------
 BYTE   W96
//  #09 //014   ----------------------------------------
 BYTE   W96
//  #09 //015   ----------------------------------------
 BYTE   W96
//  #09 //016   ----------------------------------------
 BYTE   W96
//  #09 //017   ----------------------------------------
 BYTE   W96
//  #09 //018   ----------------------------------------
 BYTE   W96
//  #09 //019   ----------------------------------------
 BYTE   W96
//  #09 //020   ----------------------------------------
Label_013DB87A:
 BYTE   W96
//  #09 //021   ----------------------------------------
 BYTE   W96
//  #09 //022   ----------------------------------------
 BYTE   W96
//  #09 //023   ----------------------------------------
 BYTE   W96
//  #09 //024   ----------------------------------------
 BYTE   W96
//  #09 //025   ----------------------------------------
 BYTE   W96
//  #09 //026   ----------------------------------------
 BYTE   W96
//  #09 //027   ----------------------------------------
 BYTE   W96
//  #09 //028   ----------------------------------------
 BYTE   W96
//  #09 //029   ----------------------------------------
 BYTE   W96
//  #09 //030   ----------------------------------------
 BYTE   W96
//  #09 //031   ----------------------------------------
 BYTE   W96
//  #09 //032   ----------------------------------------
 BYTE   W96
//  #09 //033   ----------------------------------------
 BYTE   W96
//  #09 //034   ----------------------------------------
 BYTE   W96
//  #09 //035   ----------------------------------------
Label_013DB889:
 BYTE   N06  Fs3  v072
 BYTE   W12
 BYTE   Gn3
 BYTE   W12
 BYTE   An3
 BYTE   W12
 BYTE   Dn4
 BYTE   W12
 BYTE   Fs4
 BYTE   W12
 BYTE   An4
 BYTE   W12
 BYTE   Fs4
 BYTE   W12
 BYTE   Dn4
 BYTE   W12
 BYTE   PEND 
//  #09 //036   ----------------------------------------
 BYTE   PATT
  POIN2 Label_013DB889
//  #09 //037   ----------------------------------------
Label_013DB8A1:
 BYTE   N06  Gn3  v072
 BYTE   W12
 BYTE   An3
 BYTE   W12
 BYTE   As3
 BYTE   W12
 BYTE   Dn4
 BYTE   W12
 BYTE   Gn4
 BYTE   W12
 BYTE   As4
 BYTE   W12
 BYTE   Gn4
 BYTE   W12
 BYTE   Dn4
 BYTE   W12
 BYTE   PEND 
//  #09 //038   ----------------------------------------
 BYTE   PATT
  POIN2 Label_013DB8A1
//  #09 //039   ----------------------------------------
 BYTE   PATT
  POIN2 Label_013DB8A1
//  #09 //040   ----------------------------------------
Label_013DB8BE:
 BYTE   N06  Fn3  v072
 BYTE   W06
 BYTE   Cn4
 BYTE   W06
 BYTE   Fn4
 BYTE   W24
 BYTE   Ds4
 BYTE   W24
 BYTE   Dn4
 BYTE   W06
 BYTE   Gn4
 BYTE   W18
 BYTE   Ds4
 BYTE   W12
 BYTE   PEND 
//  #09 //041   ----------------------------------------
Label_013DB8CF:
 BYTE   N06  Fn3  v072
 BYTE   W12
 BYTE   Gn3
 BYTE   W12
 BYTE   An3
 BYTE   W12
 BYTE   Cn4
 BYTE   W12
 BYTE   Fn4
 BYTE   W12
 BYTE   An4
 BYTE   W12
 BYTE   Fn4
 BYTE   W12
 BYTE   Dn4
 BYTE   W12
 BYTE   PEND 
//  #09 //042   ----------------------------------------
 BYTE   PATT
  POIN2 Label_013DB8A1
//  #09 //043   ----------------------------------------
Label_013DB8E7:
 BYTE   N06  Fs3  v072
 BYTE   W06
 BYTE   Dn3
 BYTE   W06
 BYTE   An3
 BYTE   W06
 BYTE   Dn3
 BYTE   W06
 BYTE   Cn4
 BYTE   W06
 BYTE   Dn3
 BYTE   W06
 BYTE   Ds4
 BYTE   W06
 BYTE   Fs3
 BYTE   W06
 BYTE   Fs4
 BYTE   W06
 BYTE   An3
 BYTE   W06
 BYTE   An4
 BYTE   W06
 BYTE   Cn4
 BYTE   W06
 BYTE   Fs4
 BYTE   W06
 BYTE   An3
 BYTE   W06
 BYTE   Ds4
 BYTE   W06
 BYTE   Fs3
 BYTE   W06
 BYTE   PEND 
//  #09 //044   ----------------------------------------
 BYTE   PATT
  POIN2 Label_013DB8E7
//  #09 //045   ----------------------------------------
Label_013DB90F:
 BYTE   N06  Gn3  v072
 BYTE   W06
 BYTE   Dn3
 BYTE   W06
 BYTE   An3
 BYTE   W06
 BYTE   Dn3
 BYTE   W06
 BYTE   As3
 BYTE   W06
 BYTE   Dn3
 BYTE   W06
 BYTE   Dn4
 BYTE   W06
 BYTE   Gn3
 BYTE   W06
 BYTE   Gn4
 BYTE   W06
 BYTE   As3
 BYTE   W06
 BYTE   As4
 BYTE   W06
 BYTE   Dn4
 BYTE   W06
 BYTE   Gn4
 BYTE   W06
 BYTE   As3
 BYTE   W06
 BYTE   Dn4
 BYTE   W06
 BYTE   Gn3
 BYTE   W06
 BYTE   PEND 
//  #09 //046   ----------------------------------------
Label_013DB932:
 BYTE   N06  Gn3  v072
 BYTE   W06
 BYTE   Dn3
 BYTE   W06
 BYTE   An3
 BYTE   W06
 BYTE   Dn3
 BYTE   W06
 BYTE   As3
 BYTE   W06
 BYTE   Dn3
 BYTE   W06
 BYTE   Dn4
 BYTE   W06
 BYTE   Gn3
 BYTE   W06
 BYTE   N03  Fn3
 BYTE   W03
 BYTE   Gn3
 BYTE   W03
 BYTE   Fn3
 BYTE   W03
 BYTE   Gn3
 BYTE   W03
 BYTE   Fn3
 BYTE   W03
 BYTE   Gn3
 BYTE   W03
 BYTE   An3
 BYTE   W03
 BYTE   Gn3
 BYTE   W03
 BYTE   An3
 BYTE   W03
 BYTE   As3
 BYTE   W03
 BYTE   Gn3
 BYTE   W03
 BYTE   As3
 BYTE   W03
 BYTE   Dn4
 BYTE   W03
 BYTE   Fn4
 BYTE   W03
 BYTE   Gn4
 BYTE   W03
 BYTE   As4
 BYTE   W03
 BYTE   PEND 
//  #09 //047   ----------------------------------------
Label_013DB966:
 BYTE   N06  Bn4  v072
 BYTE   W06
 BYTE   Dn4
 BYTE   W06
 BYTE   Fs4
 BYTE   W06
 BYTE   Fs3
 BYTE   W06
 BYTE   Dn4
 BYTE   W06
 BYTE   Fs3
 BYTE   W06
 BYTE   Bn4
 BYTE   W06
 BYTE   Dn4
 BYTE   W06
 BYTE   Fs4
 BYTE   W06
 BYTE   Fs3
 BYTE   W06
 BYTE   Dn4
 BYTE   W06
 BYTE   Fs3
 BYTE   W06
 BYTE   Bn4
 BYTE   W06
 BYTE   Dn4
 BYTE   W06
 BYTE   Fs4
 BYTE   W06
 BYTE   Fs3
 BYTE   W06
 BYTE   PEND 
//  #09 //048   ----------------------------------------
Label_013DB989:
 BYTE   N06  Gs3  v072
 BYTE   W06
 BYTE   Bn3
 BYTE   W06
 BYTE   Fs4
 BYTE   W06
 BYTE   Gs3
 BYTE   W06
 BYTE   En3
 BYTE   W06
 BYTE   Bn2
 BYTE   W06
 BYTE   Dn4
 BYTE   W06
 BYTE   Gs3
 BYTE   W06
 BYTE   En3
 BYTE   W06
 BYTE   Bn2
 BYTE   W06
 BYTE   Bn3
 BYTE   W06
 BYTE   Gs4
 BYTE   W06
 BYTE   Gs3
 BYTE   W06
 BYTE   En3
 BYTE   W06
 BYTE   Dn4
 BYTE   W06
 BYTE   Gs4
 BYTE   W06
 BYTE   PEND 
//  #09 //049   ----------------------------------------
Label_013DB9AC:
 BYTE   N06  An4  v072
 BYTE   W06
 BYTE   Cs4
 BYTE   W06
 BYTE   En4
 BYTE   W06
 BYTE   Gn3
 BYTE   W06
 BYTE   Cs4
 BYTE   W06
 BYTE   Gn3
 BYTE   W06
 BYTE   An4
 BYTE   W06
 BYTE   Cs4
 BYTE   W06
 BYTE   En4
 BYTE   W06
 BYTE   Gn3
 BYTE   W06
 BYTE   Cs4
 BYTE   W06
 BYTE   Gn3
 BYTE   W06
 BYTE   An4
 BYTE   W06
 BYTE   Cs4
 BYTE   W06
 BYTE   En4
 BYTE   W06
 BYTE   Gn3
 BYTE   W06
 BYTE   PEND 
//  #09 //050   ----------------------------------------
Label_013DB9CF:
 BYTE   N06  As4  v072
 BYTE   W06
 BYTE   Cs4
 BYTE   W06
 BYTE   Fn4
 BYTE   W06
 BYTE   Gn3
 BYTE   W06
 BYTE   Cs4
 BYTE   W06
 BYTE   Gn3
 BYTE   W06
 BYTE   As4
 BYTE   W06
 BYTE   Cs4
 BYTE   W06
 BYTE   N04  En3
 BYTE   W04
 BYTE   Gn3
 BYTE   W04
 BYTE   As3
 BYTE   W04
 BYTE   Gn3
 BYTE   W04
 BYTE   As3
 BYTE   W05
 BYTE   Cs4
 BYTE   W03
 BYTE   Gn3
 BYTE   W04
 BYTE   As3
 BYTE   W05
 BYTE   Cs4
 BYTE   W03
 BYTE   En4
 BYTE   W04
 BYTE   Gn4
 BYTE   W05
 BYTE   As4
 BYTE   W03
 BYTE   PEND 
//  #09 //051   ----------------------------------------
 BYTE   W96
//  #09 //052   ----------------------------------------
 BYTE   W96
//  #09 //053   ----------------------------------------
 BYTE   W96
//  #09 //054   ----------------------------------------
 BYTE   W96
//  #09 //055   ----------------------------------------
 BYTE   W96
//  #09 //056   ----------------------------------------
 BYTE   W96
//  #09 //057   ----------------------------------------
 BYTE   W96
//  #09 //058   ----------------------------------------
 BYTE   W96
//  #09 //059   ----------------------------------------
 BYTE   W96
//  #09 //060   ----------------------------------------
 BYTE   W96
//  #09 //061   ----------------------------------------
 BYTE   W96
//  #09 //062   ----------------------------------------
 BYTE   W96
//  #09 //063   ----------------------------------------
 BYTE   W96
//  #09 //064   ----------------------------------------
 BYTE   W96
//  #09 //065   ----------------------------------------
 BYTE   W96
//  #09 //066   ----------------------------------------
 BYTE   W96
//  #09 //067   ----------------------------------------
 BYTE   W96
//  #09 //068   ----------------------------------------
 BYTE   W96
//  #09 //069   ----------------------------------------
 BYTE   W96
//  #09 //070   ----------------------------------------
 BYTE   W96
//  #09 //071   ----------------------------------------
 BYTE   W96
//  #09 //072   ----------------------------------------
 BYTE   W96
//  #09 //073   ----------------------------------------
 BYTE   W96
//  #09 //074   ----------------------------------------
 BYTE   W96
//  #09 //075   ----------------------------------------
 BYTE   W96
//  #09 //076   ----------------------------------------
 BYTE   W96
//  #09 //077   ----------------------------------------
 BYTE   W96
//  #09 //078   ----------------------------------------
 BYTE   W96
//  #09 //079   ----------------------------------------
 BYTE   W96
//  #09 //080   ----------------------------------------
 BYTE   W96
//  #09 //081   ----------------------------------------
 BYTE   W96
//  #09 //082   ----------------------------------------
 BYTE   W96
//  #09 //083   ----------------------------------------
 BYTE   W96
//  #09 //084   ----------------------------------------
 BYTE   W96
//  #09 //085   ----------------------------------------
 BYTE   W96
//  #09 //086   ----------------------------------------
 BYTE   W96
//  #09 //087   ----------------------------------------
 BYTE   W96
//  #09 //088   ----------------------------------------
 BYTE   W96
//  #09 //089   ----------------------------------------
 BYTE   W96
//  #09 //090   ----------------------------------------
 BYTE   W96
//  #09 //091   ----------------------------------------
 BYTE   W96
//  #09 //092   ----------------------------------------
 BYTE   W96
//  #09 //093   ----------------------------------------
 BYTE   W96
//  #09 //094   ----------------------------------------
 BYTE   W96
//  #09 //095   ----------------------------------------
 BYTE   W96
//  #09 //096   ----------------------------------------
 BYTE   W96
//  #09 //097   ----------------------------------------
 BYTE   W96
//  #09 //098   ----------------------------------------
 BYTE   W96
//  #09 //099   ----------------------------------------
 BYTE   W96
//  #09 //100   ----------------------------------------
 BYTE   W96
//  #09 //101   ----------------------------------------
 BYTE   W96
//  #09 //102   ----------------------------------------
 BYTE   W96
//  #09 //103   ----------------------------------------
 BYTE   W96
//  #09 //104   ----------------------------------------
 BYTE   W96
//  #09 //105   ----------------------------------------
 BYTE   W96
//  #09 //106   ----------------------------------------
 BYTE   PATT
  POIN2 Label_013DB889
//  #09 //107   ----------------------------------------
 BYTE   PATT
  POIN2 Label_013DB889
//  #09 //108   ----------------------------------------
 BYTE   PATT
  POIN2 Label_013DB8A1
//  #09 //109   ----------------------------------------
 BYTE   PATT
  POIN2 Label_013DB8A1
//  #09 //110   ----------------------------------------
 BYTE   PATT
  POIN2 Label_013DB8A1
//  #09 //111   ----------------------------------------
 BYTE   PATT
  POIN2 Label_013DB8BE
//  #09 //112   ----------------------------------------
 BYTE   PATT
  POIN2 Label_013DB8CF
//  #09 //113   ----------------------------------------
 BYTE   PATT
  POIN2 Label_013DB8A1
//  #09 //114   ----------------------------------------
 BYTE   PATT
  POIN2 Label_013DB8E7
//  #09 //115   ----------------------------------------
 BYTE   PATT
  POIN2 Label_013DB8E7
//  #09 //116   ----------------------------------------
 BYTE   PATT
  POIN2 Label_013DB90F
//  #09 //117   ----------------------------------------
 BYTE   PATT
  POIN2 Label_013DB932
//  #09 //118   ----------------------------------------
 BYTE   PATT
  POIN2 Label_013DB966
//  #09 //119   ----------------------------------------
 BYTE   PATT
  POIN2 Label_013DB989
//  #09 //120   ----------------------------------------
 BYTE   PATT
  POIN2 Label_013DB9AC
//  #09 //121   ----------------------------------------
 BYTE   PATT
  POIN2 Label_013DB9CF
//  #09 //122   ----------------------------------------
 BYTE   W96
//  #09 //123   ----------------------------------------
 BYTE   W96
//  #09 //124   ----------------------------------------
 BYTE   W96
//  #09 //125   ----------------------------------------
 BYTE   W96
//  #09 //126   ----------------------------------------
 BYTE   W96
//  #09 //127   ----------------------------------------
 BYTE   W96
//  #09 //128   ----------------------------------------
 BYTE   W96
//  #09 //129   ----------------------------------------
 BYTE   W96
//  #09 //130   ----------------------------------------
 BYTE   W96
//  #09 //131   ----------------------------------------
 BYTE   W96
//  #09 //132   ----------------------------------------
 BYTE   W96
//  #09 //133   ----------------------------------------
 BYTE   W96
//  #09 //134   ----------------------------------------
 BYTE   W96
//  #09 //135   ----------------------------------------
 BYTE   W96
//  #09 //136   ----------------------------------------
 BYTE   W96
//  #09 //137   ----------------------------------------
 BYTE   W96
//  #09 //138   ----------------------------------------
 BYTE   W96
//  #09 //139   ----------------------------------------
 BYTE   W96
//  #09 //140   ----------------------------------------
 BYTE   W96
//  #09 //141   ----------------------------------------
 BYTE   W96
//  #09 //142   ----------------------------------------
 BYTE   W96
//  #09 //143   ----------------------------------------
 BYTE   W96
//  #09 //144   ----------------------------------------
 BYTE   W96
//  #09 //145   ----------------------------------------
 BYTE   W96
//  #09 //146   ----------------------------------------
 BYTE   W96
//  #09 //147   ----------------------------------------
 BYTE   W96
//  #09 //148   ----------------------------------------
 BYTE   W96
//  #09 //149   ----------------------------------------
 BYTE   W96
//  #09 //150   ----------------------------------------
 BYTE   W96
//  #09 //151   ----------------------------------------
 BYTE   W96
//  #09 //152   ----------------------------------------
 BYTE   W96
//  #09 //153   ----------------------------------------
 BYTE   W96
//  #09 //154   ----------------------------------------
 BYTE   W96
//  #09 //155   ----------------------------------------
 BYTE   W96
//  #09 //156   ----------------------------------------
 BYTE   W96
//  #09 //157   ----------------------------------------
 BYTE   W96
//  #09 //158   ----------------------------------------
 BYTE   W96
//  #09 //159   ----------------------------------------
 BYTE   W96
//  #09 //160   ----------------------------------------
 BYTE   W96
//  #09 //161   ----------------------------------------
 BYTE   W96
//  #09 //162   ----------------------------------------
 BYTE   GoTo
  POIN2 Label_013DB87A
//  #09 //163   ----------------------------------------
 BYTE   W96
//  #09 //164   ----------------------------------------
 BYTE   W96
//  #09 //165   ----------------------------------------
 BYTE   W12
 BYTE   FINE

//**************** Track 10 (Midi-Chn.9) ****************//

SonicAdvance3ChaosAngelAct1MeatOfJustice_010:
//  #10 //000   ----------------------------------------
 BYTE   KEYSH   SonicAdvance3ChaosAngelAct1MeatOfJustice_key+0
 BYTE   VOICE   4
 BYTE   MODT 0
 BYTE   LFOS 44
 BYTE   VOL   80*SonicAdvance3ChaosAngelAct1MeatOfJustice_mvl/mxv
 BYTE   MODT 0
 BYTE   LFOS 44
 BYTE   W96
//  #10 //001   ----------------------------------------
 BYTE   W96
//  #10 //002   ----------------------------------------
 BYTE   W96
//  #10 //003   ----------------------------------------
 BYTE   W96
//  #10 //004   ----------------------------------------
 BYTE   W96
//  #10 //005   ----------------------------------------
 BYTE   W96
//  #10 //006   ----------------------------------------
 BYTE   W96
//  #10 //007   ----------------------------------------
 BYTE   W96
//  #10 //008   ----------------------------------------
 BYTE   W96
//  #10 //009   ----------------------------------------
 BYTE   W96
//  #10 //010   ----------------------------------------
 BYTE   W96
//  #10 //011   ----------------------------------------
 BYTE   W96
//  #10 //012   ----------------------------------------
 BYTE   W96
//  #10 //013   ----------------------------------------
 BYTE   W96
//  #10 //014   ----------------------------------------
 BYTE   W96
//  #10 //015   ----------------------------------------
 BYTE   W96
//  #10 //016   ----------------------------------------
 BYTE   W96
//  #10 //017   ----------------------------------------
 BYTE   W96
//  #10 //018   ----------------------------------------
 BYTE   W96
//  #10 //019   ----------------------------------------
 BYTE   W96
//  #10 //020   ----------------------------------------
Label_013DBAD6:
 BYTE   W96
//  #10 //021   ----------------------------------------
 BYTE   W96
//  #10 //022   ----------------------------------------
 BYTE   W96
//  #10 //023   ----------------------------------------
 BYTE   W96
//  #10 //024   ----------------------------------------
 BYTE   W96
//  #10 //025   ----------------------------------------
 BYTE   W96
//  #10 //026   ----------------------------------------
 BYTE   W96
//  #10 //027   ----------------------------------------
 BYTE   W96
//  #10 //028   ----------------------------------------
 BYTE   W96
//  #10 //029   ----------------------------------------
 BYTE   W96
//  #10 //030   ----------------------------------------
 BYTE   W96
//  #10 //031   ----------------------------------------
 BYTE   W96
//  #10 //032   ----------------------------------------
 BYTE   W96
//  #10 //033   ----------------------------------------
 BYTE   W96
//  #10 //034   ----------------------------------------
 BYTE   W96
//  #10 //035   ----------------------------------------
Label_013DBAE5:
 BYTE   W03
 BYTE   N06  Fs3  v072
 BYTE   W12
 BYTE   Gn3
 BYTE   W12
 BYTE   An3
 BYTE   W12
 BYTE   Dn4
 BYTE   W12
 BYTE   Fs4
 BYTE   W12
 BYTE   An4
 BYTE   W12
 BYTE   Fs4
 BYTE   W12
 BYTE   Dn4
 BYTE   W09
 BYTE   PEND 
//  #10 //036   ----------------------------------------
 BYTE   PATT
  POIN2 Label_013DBAE5
//  #10 //037   ----------------------------------------
Label_013DBAFE:
 BYTE   W03
 BYTE   N06  Gn3  v072
 BYTE   W12
 BYTE   An3
 BYTE   W12
 BYTE   As3
 BYTE   W12
 BYTE   Dn4
 BYTE   W12
 BYTE   Gn4
 BYTE   W12
 BYTE   As4
 BYTE   W12
 BYTE   Gn4
 BYTE   W12
 BYTE   Dn4
 BYTE   W09
 BYTE   PEND 
//  #10 //038   ----------------------------------------
 BYTE   PATT
  POIN2 Label_013DBAFE
//  #10 //039   ----------------------------------------
 BYTE   PATT
  POIN2 Label_013DBAFE
//  #10 //040   ----------------------------------------
Label_013DBB1C:
 BYTE   W03
 BYTE   N06  Fn3  v072
 BYTE   W06
 BYTE   Cn4
 BYTE   W06
 BYTE   Fn4
 BYTE   W24
 BYTE   Ds4
 BYTE   W24
 BYTE   Dn4
 BYTE   W06
 BYTE   Gn4
 BYTE   W18
 BYTE   Ds4
 BYTE   W09
 BYTE   PEND 
//  #10 //041   ----------------------------------------
Label_013DBB2E:
 BYTE   W03
 BYTE   N06  Fn3  v072
 BYTE   W12
 BYTE   Gn3
 BYTE   W12
 BYTE   An3
 BYTE   W12
 BYTE   Cn4
 BYTE   W12
 BYTE   Fn4
 BYTE   W12
 BYTE   An4
 BYTE   W12
 BYTE   Fn4
 BYTE   W12
 BYTE   Dn4
 BYTE   W09
 BYTE   PEND 
//  #10 //042   ----------------------------------------
 BYTE   PATT
  POIN2 Label_013DBAFE
//  #10 //043   ----------------------------------------
Label_013DBB47:
 BYTE   W03
 BYTE   N06  Fs3  v072
 BYTE   W06
 BYTE   Dn3
 BYTE   W06
 BYTE   An3
 BYTE   W06
 BYTE   Dn3
 BYTE   W06
 BYTE   Cn4
 BYTE   W06
 BYTE   Dn3
 BYTE   W06
 BYTE   Ds4
 BYTE   W06
 BYTE   Fs3
 BYTE   W06
 BYTE   Fs4
 BYTE   W06
 BYTE   An3
 BYTE   W06
 BYTE   An4
 BYTE   W06
 BYTE   Cn4
 BYTE   W06
 BYTE   Fs4
 BYTE   W06
 BYTE   An3
 BYTE   W06
 BYTE   Ds4
 BYTE   W06
 BYTE   Fs3
 BYTE   W03
 BYTE   PEND 
//  #10 //044   ----------------------------------------
 BYTE   PATT
  POIN2 Label_013DBB47
//  #10 //045   ----------------------------------------
Label_013DBB70:
 BYTE   W03
 BYTE   N06  Gn3  v072
 BYTE   W06
 BYTE   Dn3
 BYTE   W06
 BYTE   An3
 BYTE   W06
 BYTE   Dn3
 BYTE   W06
 BYTE   As3
 BYTE   W06
 BYTE   Dn3
 BYTE   W06
 BYTE   Dn4
 BYTE   W06
 BYTE   Gn3
 BYTE   W06
 BYTE   Gn4
 BYTE   W06
 BYTE   As3
 BYTE   W06
 BYTE   As4
 BYTE   W06
 BYTE   Dn4
 BYTE   W06
 BYTE   Gn4
 BYTE   W06
 BYTE   As3
 BYTE   W06
 BYTE   Dn4
 BYTE   W06
 BYTE   Gn3
 BYTE   W03
 BYTE   PEND 
//  #10 //046   ----------------------------------------
Label_013DBB94:
 BYTE   W03
 BYTE   N06  Gn3  v072
 BYTE   W06
 BYTE   Dn3
 BYTE   W06
 BYTE   An3
 BYTE   W06
 BYTE   Dn3
 BYTE   W06
 BYTE   As3
 BYTE   W06
 BYTE   Dn3
 BYTE   W06
 BYTE   Dn4
 BYTE   W06
 BYTE   Gn3
 BYTE   W06
 BYTE   N03  Fn3
 BYTE   W03
 BYTE   Gn3
 BYTE   W03
 BYTE   Fn3
 BYTE   W03
 BYTE   Gn3
 BYTE   N03  An3
 BYTE   W03
 BYTE   Fn3
 BYTE   N03  Gn3
 BYTE   N06  As4
 BYTE   W03
 BYTE   N03  Gn3
 BYTE   N03  An3
 BYTE   W03
 BYTE   N03
 BYTE   N03  As3
 BYTE   N06  Dn4
 BYTE   W03
 BYTE   N03  Gn3
 BYTE   W03
 BYTE   An3
 BYTE   N03  As3
 BYTE   N06  Gn4
 BYTE   W03
 BYTE   N02  As3
 BYTE   N03  Dn4
 BYTE   W03
 BYTE   Gn3
 BYTE   N03  As3
 BYTE   N03  Fn4
 BYTE   W03
 BYTE   As3
 BYTE   N03  Gn4
 BYTE   W03
 BYTE   N05  Dn4
 BYTE   N03  As4
 BYTE   W03
 BYTE   Fn4
 BYTE   N06  Bn4
 BYTE   W03
 BYTE   Gn3
 BYTE   N03  Gn4
 BYTE   W03
 BYTE   PEND 
//  #10 //047   ----------------------------------------
Label_013DBBE9:
 BYTE   N06  Dn4  v072
 BYTE   N03  As4
 BYTE   W03
 BYTE   N06  Bn4
 BYTE   W06
 BYTE   Dn4
 BYTE   W06
 BYTE   Fs4
 BYTE   W06
 BYTE   Fs3
 BYTE   W06
 BYTE   Dn4
 BYTE   W06
 BYTE   Fs3
 BYTE   W06
 BYTE   Bn4
 BYTE   W06
 BYTE   Dn4
 BYTE   W06
 BYTE   Fs4
 BYTE   W06
 BYTE   Fs3
 BYTE   W06
 BYTE   Dn4
 BYTE   W06
 BYTE   Fs3
 BYTE   W06
 BYTE   Bn4
 BYTE   W06
 BYTE   Dn4
 BYTE   W06
 BYTE   Fs4
 BYTE   W06
 BYTE   Fs3
 BYTE   W03
 BYTE   PEND 
//  #10 //048   ----------------------------------------
Label_013DBC11:
 BYTE   W03
 BYTE   N06  Gs3  v072
 BYTE   W06
 BYTE   Bn3
 BYTE   W06
 BYTE   Fs4
 BYTE   W06
 BYTE   Gs3
 BYTE   W06
 BYTE   En3
 BYTE   W06
 BYTE   Bn2
 BYTE   W06
 BYTE   Dn4
 BYTE   W06
 BYTE   Gs3
 BYTE   W06
 BYTE   En3
 BYTE   W06
 BYTE   Bn2
 BYTE   W06
 BYTE   Bn3
 BYTE   W06
 BYTE   Gs4
 BYTE   W06
 BYTE   Gs3
 BYTE   W06
 BYTE   En3
 BYTE   W06
 BYTE   Dn4
 BYTE   W06
 BYTE   Gs4
 BYTE   W03
 BYTE   PEND 
//  #10 //049   ----------------------------------------
Label_013DBC35:
 BYTE   W03
 BYTE   N06  An4  v072
 BYTE   W06
 BYTE   Cs4
 BYTE   W06
 BYTE   En4
 BYTE   W06
 BYTE   Gn3
 BYTE   W06
 BYTE   Cs4
 BYTE   W06
 BYTE   Gn3
 BYTE   W06
 BYTE   An4
 BYTE   W06
 BYTE   Cs4
 BYTE   W06
 BYTE   En4
 BYTE   W06
 BYTE   Gn3
 BYTE   W06
 BYTE   Cs4
 BYTE   W06
 BYTE   Gn3
 BYTE   W06
 BYTE   An4
 BYTE   W06
 BYTE   Cs4
 BYTE   W06
 BYTE   En4
 BYTE   W06
 BYTE   Gn3
 BYTE   W03
 BYTE   PEND 
//  #10 //050   ----------------------------------------
Label_013DBC59:
 BYTE   W03
 BYTE   N06  As4  v072
 BYTE   W06
 BYTE   Cs4
 BYTE   W06
 BYTE   Fn4
 BYTE   W06
 BYTE   Gn3
 BYTE   W06
 BYTE   Cs4
 BYTE   W06
 BYTE   Gn3
 BYTE   W06
 BYTE   As4
 BYTE   W06
 BYTE   Cs4
 BYTE   W06
 BYTE   N04  En3
 BYTE   W04
 BYTE   Gn3
 BYTE   W04
 BYTE   As3
 BYTE   W04
 BYTE   Gn3
 BYTE   W04
 BYTE   As3
 BYTE   W05
 BYTE   Cs4
 BYTE   W03
 BYTE   Gn3
 BYTE   W04
 BYTE   As3
 BYTE   W05
 BYTE   Cs4
 BYTE   W03
 BYTE   En4
 BYTE   W04
 BYTE   Gn4
 BYTE   W05
 BYTE   PEND 
//  #10 //051   ----------------------------------------
 BYTE   As4
 BYTE   W96
//  #10 //052   ----------------------------------------
 BYTE   W96
//  #10 //053   ----------------------------------------
 BYTE   W96
//  #10 //054   ----------------------------------------
 BYTE   W96
//  #10 //055   ----------------------------------------
 BYTE   W96
//  #10 //056   ----------------------------------------
 BYTE   W96
//  #10 //057   ----------------------------------------
 BYTE   W96
//  #10 //058   ----------------------------------------
 BYTE   W96
//  #10 //059   ----------------------------------------
 BYTE   W96
//  #10 //060   ----------------------------------------
 BYTE   W96
//  #10 //061   ----------------------------------------
 BYTE   W96
//  #10 //062   ----------------------------------------
 BYTE   W96
//  #10 //063   ----------------------------------------
 BYTE   W96
//  #10 //064   ----------------------------------------
 BYTE   W96
//  #10 //065   ----------------------------------------
 BYTE   W96
//  #10 //066   ----------------------------------------
 BYTE   W96
//  #10 //067   ----------------------------------------
 BYTE   W96
//  #10 //068   ----------------------------------------
 BYTE   W96
//  #10 //069   ----------------------------------------
 BYTE   W96
//  #10 //070   ----------------------------------------
 BYTE   W96
//  #10 //071   ----------------------------------------
 BYTE   W96
//  #10 //072   ----------------------------------------
 BYTE   W96
//  #10 //073   ----------------------------------------
 BYTE   W96
//  #10 //074   ----------------------------------------
 BYTE   W96
//  #10 //075   ----------------------------------------
 BYTE   W96
//  #10 //076   ----------------------------------------
 BYTE   W96
//  #10 //077   ----------------------------------------
 BYTE   W96
//  #10 //078   ----------------------------------------
 BYTE   W96
//  #10 //079   ----------------------------------------
 BYTE   W96
//  #10 //080   ----------------------------------------
 BYTE   W96
//  #10 //081   ----------------------------------------
 BYTE   W96
//  #10 //082   ----------------------------------------
 BYTE   W96
//  #10 //083   ----------------------------------------
 BYTE   W96
//  #10 //084   ----------------------------------------
 BYTE   W96
//  #10 //085   ----------------------------------------
 BYTE   W96
//  #10 //086   ----------------------------------------
 BYTE   W96
//  #10 //087   ----------------------------------------
 BYTE   W96
//  #10 //088   ----------------------------------------
 BYTE   W96
//  #10 //089   ----------------------------------------
 BYTE   W96
//  #10 //090   ----------------------------------------
 BYTE   W96
//  #10 //091   ----------------------------------------
 BYTE   W96
//  #10 //092   ----------------------------------------
 BYTE   W96
//  #10 //093   ----------------------------------------
 BYTE   W96
//  #10 //094   ----------------------------------------
 BYTE   W96
//  #10 //095   ----------------------------------------
 BYTE   W96
//  #10 //096   ----------------------------------------
 BYTE   W96
//  #10 //097   ----------------------------------------
 BYTE   W96
//  #10 //098   ----------------------------------------
 BYTE   W96
//  #10 //099   ----------------------------------------
 BYTE   W96
//  #10 //100   ----------------------------------------
 BYTE   W96
//  #10 //101   ----------------------------------------
 BYTE   W96
//  #10 //102   ----------------------------------------
 BYTE   W96
//  #10 //103   ----------------------------------------
 BYTE   W96
//  #10 //104   ----------------------------------------
 BYTE   W96
//  #10 //105   ----------------------------------------
 BYTE   W96
//  #10 //106   ----------------------------------------
 BYTE   PATT
  POIN2 Label_013DBAE5
//  #10 //107   ----------------------------------------
 BYTE   PATT
  POIN2 Label_013DBAE5
//  #10 //108   ----------------------------------------
 BYTE   PATT
  POIN2 Label_013DBAFE
//  #10 //109   ----------------------------------------
 BYTE   PATT
  POIN2 Label_013DBAFE
//  #10 //110   ----------------------------------------
 BYTE   PATT
  POIN2 Label_013DBAFE
//  #10 //111   ----------------------------------------
 BYTE   PATT
  POIN2 Label_013DBB1C
//  #10 //112   ----------------------------------------
 BYTE   PATT
  POIN2 Label_013DBB2E
//  #10 //113   ----------------------------------------
 BYTE   PATT
  POIN2 Label_013DBAFE
//  #10 //114   ----------------------------------------
 BYTE   PATT
  POIN2 Label_013DBB47
//  #10 //115   ----------------------------------------
 BYTE   PATT
  POIN2 Label_013DBB47
//  #10 //116   ----------------------------------------
 BYTE   PATT
  POIN2 Label_013DBB70
//  #10 //117   ----------------------------------------
 BYTE   PATT
  POIN2 Label_013DBB94
//  #10 //118   ----------------------------------------
 BYTE   PATT
  POIN2 Label_013DBBE9
//  #10 //119   ----------------------------------------
 BYTE   PATT
  POIN2 Label_013DBC11
//  #10 //120   ----------------------------------------
 BYTE   PATT
  POIN2 Label_013DBC35
//  #10 //121   ----------------------------------------
 BYTE   PATT
  POIN2 Label_013DBC59
//  #10 //122   ----------------------------------------
 BYTE   N04  As4  v072
 BYTE   W96
//  #10 //123   ----------------------------------------
 BYTE   W96
//  #10 //124   ----------------------------------------
 BYTE   W96
//  #10 //125   ----------------------------------------
 BYTE   W96
//  #10 //126   ----------------------------------------
 BYTE   W96
//  #10 //127   ----------------------------------------
 BYTE   W96
//  #10 //128   ----------------------------------------
 BYTE   W96
//  #10 //129   ----------------------------------------
 BYTE   W96
//  #10 //130   ----------------------------------------
 BYTE   W96
//  #10 //131   ----------------------------------------
 BYTE   W96
//  #10 //132   ----------------------------------------
 BYTE   W96
//  #10 //133   ----------------------------------------
 BYTE   W96
//  #10 //134   ----------------------------------------
 BYTE   W96
//  #10 //135   ----------------------------------------
 BYTE   W96
//  #10 //136   ----------------------------------------
 BYTE   W96
//  #10 //137   ----------------------------------------
 BYTE   W96
//  #10 //138   ----------------------------------------
 BYTE   W96
//  #10 //139   ----------------------------------------
 BYTE   W96
//  #10 //140   ----------------------------------------
 BYTE   W96
//  #10 //141   ----------------------------------------
 BYTE   W96
//  #10 //142   ----------------------------------------
 BYTE   W96
//  #10 //143   ----------------------------------------
 BYTE   W96
//  #10 //144   ----------------------------------------
 BYTE   W96
//  #10 //145   ----------------------------------------
 BYTE   W96
//  #10 //146   ----------------------------------------
 BYTE   W96
//  #10 //147   ----------------------------------------
 BYTE   W96
//  #10 //148   ----------------------------------------
 BYTE   W96
//  #10 //149   ----------------------------------------
 BYTE   W96
//  #10 //150   ----------------------------------------
 BYTE   W96
//  #10 //151   ----------------------------------------
 BYTE   W96
//  #10 //152   ----------------------------------------
 BYTE   W96
//  #10 //153   ----------------------------------------
 BYTE   W96
//  #10 //154   ----------------------------------------
 BYTE   W96
//  #10 //155   ----------------------------------------
 BYTE   W96
//  #10 //156   ----------------------------------------
 BYTE   W96
//  #10 //157   ----------------------------------------
 BYTE   W96
//  #10 //158   ----------------------------------------
 BYTE   W96
//  #10 //159   ----------------------------------------
 BYTE   W96
//  #10 //160   ----------------------------------------
 BYTE   W96
//  #10 //161   ----------------------------------------
 BYTE   W96
//  #10 //162   ----------------------------------------
 BYTE   GoTo
  POIN2 Label_013DBAD6
//  #10 //163   ----------------------------------------
 BYTE   W96
//  #10 //164   ----------------------------------------
 BYTE   W96
//  #10 //165   ----------------------------------------
 BYTE   W12
 BYTE   FINE

//**************** Track 11 (Midi-Chn.10) ****************//

SonicAdvance3ChaosAngelAct1MeatOfJustice_011:
//  #11 //000   ----------------------------------------
 BYTE   KEYSH   SonicAdvance3ChaosAngelAct1MeatOfJustice_key+0
 BYTE   VOICE   123
 BYTE   MODT 0
 BYTE   LFOS 44
 BYTE   VOL   56*SonicAdvance3ChaosAngelAct1MeatOfJustice_mvl/mxv
 BYTE   MODT 0
 BYTE   LFOS 44
 BYTE   W96
//  #11 //001   ----------------------------------------
 BYTE   W96
//  #11 //002   ----------------------------------------
 BYTE   W96
//  #11 //003   ----------------------------------------
 BYTE   W96
//  #11 //004   ----------------------------------------
Label_013C1F96:
 BYTE   N06  Ds0  v072
 BYTE   N06  Cn1
 BYTE   N06  Fs1
 BYTE   W06
 BYTE   N06
 BYTE   W06
 BYTE   As1
 BYTE   W12
 BYTE   Ds0
 BYTE   N06  Cn1
 BYTE   N06  Fs1
 BYTE   W06
 BYTE   N06
 BYTE   W06
 BYTE   As1
 BYTE   W06
 BYTE   Fs1
 BYTE   W06
 BYTE   Ds0
 BYTE   N06  Cn1
 BYTE   N06  Fs1
 BYTE   W06
 BYTE   N06
 BYTE   W06
 BYTE   As1
 BYTE   W12
 BYTE   Ds0
 BYTE   N06  Cn1
 BYTE   N06  Fs1
 BYTE   W06
 BYTE   N06
 BYTE   W06
 BYTE   As1
 BYTE   W06
 BYTE   Fs1
 BYTE   W06
 BYTE   PEND 
//  #11 //005   ----------------------------------------
 BYTE   PATT
  POIN2 Label_013C1F96
//  #11 //006   ----------------------------------------
 BYTE   PATT
  POIN2 Label_013C1F96
//  #11 //007   ----------------------------------------
Label_013C1FCF:
 BYTE   N06  Ds0  v072
 BYTE   N06  Cn1
 BYTE   N06  Fs1
 BYTE   W06
 BYTE   N06
 BYTE   W06
 BYTE   As1
 BYTE   W12
 BYTE   Ds0
 BYTE   N06  Cn1
 BYTE   N06  Fs1
 BYTE   W06
 BYTE   N06
 BYTE   W06
 BYTE   N03
 BYTE   W03
 BYTE   N03
 BYTE   W03
 BYTE   N03
 BYTE   W03
 BYTE   N06
 BYTE   W03
 BYTE   Ds0
 BYTE   N06  Cn1
 BYTE   N06  As1
 BYTE   W12
 BYTE   Fs1
 BYTE   W06
 BYTE   N06
 BYTE   W06
 BYTE   Ds0
 BYTE   N06  Cn1
 BYTE   N06  Fs1
 BYTE   W06
 BYTE   N06
 BYTE   W06
 BYTE   Ds0
 BYTE   N06  Cn1
 BYTE   N06  As1
 BYTE   W06
 BYTE   Ds0
 BYTE   N06  Cn1
 BYTE   N06  Fs1
 BYTE   W06
 BYTE   PEND 
//  #11 //008   ----------------------------------------
 BYTE   PATT
  POIN2 Label_013C1F96
//  #11 //009   ----------------------------------------
 BYTE   PATT
  POIN2 Label_013C1F96
//  #11 //010   ----------------------------------------
 BYTE   PATT
  POIN2 Label_013C1F96
//  #11 //011   ----------------------------------------
Label_013C2019:
 BYTE   N06  Ds0  v072
 BYTE   N06  Cn1
 BYTE   N06  Fs1
 BYTE   W06
 BYTE   N06
 BYTE   W06
 BYTE   As1
 BYTE   W12
 BYTE   Ds0
 BYTE   N06  Cn1
 BYTE   N06  Fs1
 BYTE   W06
 BYTE   N06
 BYTE   W06
 BYTE   N03
 BYTE   W03
 BYTE   N03
 BYTE   W03
 BYTE   N03
 BYTE   W03
 BYTE   N06
 BYTE   W03
 BYTE   Ds0
 BYTE   N06  Cn1
 BYTE   N06  As1
 BYTE   W12
 BYTE   Fs1
 BYTE   W06
 BYTE   N06
 BYTE   W06
 BYTE   Ds0
 BYTE   N06  Cn1
 BYTE   N06  Fs1
 BYTE   W06
 BYTE   N06
 BYTE   W06
 BYTE   Ds0
 BYTE   N06  Cn1
 BYTE   N06  As1
 BYTE   W12
 BYTE   PEND 
//  #11 //012   ----------------------------------------
 BYTE   PATT
  POIN2 Label_013C1F96
//  #11 //013   ----------------------------------------
 BYTE   PATT
  POIN2 Label_013C1F96
//  #11 //014   ----------------------------------------
 BYTE   PATT
  POIN2 Label_013C1F96
//  #11 //015   ----------------------------------------
 BYTE   PATT
  POIN2 Label_013C1FCF
//  #11 //016   ----------------------------------------
 BYTE   PATT
  POIN2 Label_013C1F96
//  #11 //017   ----------------------------------------
 BYTE   PATT
  POIN2 Label_013C1F96
//  #11 //018   ----------------------------------------
 BYTE   PATT
  POIN2 Label_013C1F96
//  #11 //019   ----------------------------------------
Label_013C2071:
 BYTE   N06  Ds0  v072
 BYTE   N06  Cn1
 BYTE   N06  Fs1
 BYTE   W06
 BYTE   N06
 BYTE   W06
 BYTE   As1
 BYTE   W12
 BYTE   Ds0
 BYTE   N06  Cn1
 BYTE   N06  Fs1
 BYTE   W06
 BYTE   N06
 BYTE   W06
 BYTE   N03
 BYTE   W03
 BYTE   N03
 BYTE   W03
 BYTE   N03
 BYTE   W03
 BYTE   N06
 BYTE   W03
 BYTE   Ds0
 BYTE   N06  Cn1
 BYTE   N06  As1
 BYTE   W12
 BYTE   Ds0
 BYTE   N06  Cn1
 BYTE   N06  Fs1
 BYTE   W06
 BYTE   N06
 BYTE   W06
 BYTE   Ds0
 BYTE   N06  Cn1
 BYTE   N06  Fs1
 BYTE   W06
 BYTE   N06
 BYTE   W06
 BYTE   Ds0
 BYTE   N06  Cn1
 BYTE   N06  As1
 BYTE   W06
 BYTE   Ds0
 BYTE   N06  Cn1
 BYTE   N06  Fs1
 BYTE   W06
 BYTE   PEND 
//  #11 //020   ----------------------------------------
Label_013C20B0:
//  #11 //021   ----------------------------------------
 BYTE   PATT
  POIN2 Label_013C1F96
//  #11 //022   ----------------------------------------
 BYTE   PATT
  POIN2 Label_013C1F96
//  #11 //023   ----------------------------------------
 BYTE   PATT
  POIN2 Label_013C1F96
//  #11 //024   ----------------------------------------
 BYTE   PATT
  POIN2 Label_013C1FCF
//  #11 //025   ----------------------------------------
 BYTE   PATT
  POIN2 Label_013C1F96
//  #11 //026   ----------------------------------------
 BYTE   PATT
  POIN2 Label_013C1F96
//  #11 //027   ----------------------------------------
 BYTE   PATT
  POIN2 Label_013C1F96
//  #11 //028   ----------------------------------------
Label_013C20D3:
 BYTE   N06  Fs1  v127
 BYTE   W06
 BYTE   Fs1  v072
 BYTE   W06
 BYTE   N06
 BYTE   W06
 BYTE   N06
 BYTE   W06
 BYTE   Fs1  v016
 BYTE   W06
 BYTE   N06
 BYTE   W06
 BYTE   N04  Fs1  v072
 BYTE   W04
 BYTE   N04
 BYTE   W04
 BYTE   N04
 BYTE   W04
 BYTE   N06  Fs1  v127
 BYTE   W06
 BYTE   Fs1  v072
 BYTE   W06
 BYTE   N06
 BYTE   W06
 BYTE   N06
 BYTE   W06
 BYTE   Fs1  v016
 BYTE   W06
 BYTE   N06
 BYTE   W06
 BYTE   N04  Fs1  v072
 BYTE   W04
 BYTE   N04
 BYTE   W04
 BYTE   N04
 BYTE   W04
 BYTE   PEND 
//  #11 //029   ----------------------------------------
 BYTE   PATT
  POIN2 Label_013C20D3
//  #11 //030   ----------------------------------------
 BYTE   PATT
  POIN2 Label_013C20D3
//  #11 //031   ----------------------------------------
Label_013C210E:
 BYTE   N06  Fs1  v127
 BYTE   W06
 BYTE   Fs1  v016
 BYTE   W06
 BYTE   N06
 BYTE   W06
 BYTE   Fs1  v127
 BYTE   W06
 BYTE   Fs1  v016
 BYTE   W06
 BYTE   N06
 BYTE   W06
 BYTE   Fs1  v127
 BYTE   W06
 BYTE   Fs1  v016
 BYTE   W06
 BYTE   N04  Fs1  v072
 BYTE   W04
 BYTE   N04
 BYTE   W04
 BYTE   N04
 BYTE   W04
 BYTE   N06  Fs1  v127
 BYTE   W06
 BYTE   Fs1  v072
 BYTE   W06
 BYTE   Ds0
 BYTE   N06  Cn1
 BYTE   N06  Fs1
 BYTE   W06
 BYTE   N06
 BYTE   W06
 BYTE   Ds0
 BYTE   N06  Cn1
 BYTE   N06  Fs1
 BYTE   W06
 BYTE   N06
 BYTE   W06
 BYTE   PEND 
//  #11 //032   ----------------------------------------
 BYTE   PATT
  POIN2 Label_013C1F96
//  #11 //033   ----------------------------------------
 BYTE   PATT
  POIN2 Label_013C1F96
//  #11 //034   ----------------------------------------
 BYTE   PATT
  POIN2 Label_013C1F96
//  #11 //035   ----------------------------------------
Label_013C2154:
 BYTE   N06  Ds0  v072
 BYTE   N06  Cn1
 BYTE   N06  Fs1
 BYTE   W06
 BYTE   N06
 BYTE   W06
 BYTE   As1
 BYTE   W12
 BYTE   Ds0
 BYTE   N06  Cn1
 BYTE   N06  Fs1
 BYTE   W06
 BYTE   N06
 BYTE   W06
 BYTE   N03  Fs1  v016
 BYTE   W03
 BYTE   N03
 BYTE   W03
 BYTE   N03
 BYTE   W03
 BYTE   N06
 BYTE   W03
 BYTE   Ds0  v072
 BYTE   N06  Cn1
 BYTE   W12
 BYTE   Ds0
 BYTE   N06  Cn1
 BYTE   N06  Fs1
 BYTE   W06
 BYTE   N05
 BYTE   W05
 BYTE   N06
 BYTE   W01
 BYTE   Ds0
 BYTE   N06  Cn1
 BYTE   W05
 BYTE   Fs1
 BYTE   W01
 BYTE   Ds0
 BYTE   N06  Cn1
 BYTE   W05
 BYTE   Fs1
 BYTE   W01
 BYTE   Ds0
 BYTE   N06  Cn1
 BYTE   W05
 BYTE   Fs1
 BYTE   W01
 BYTE   Ds0
 BYTE   N06  Cn1
 BYTE   W06
 BYTE   PEND 
//  #11 //036   ----------------------------------------
 BYTE   W96
//  #11 //037   ----------------------------------------
 BYTE   W96
//  #11 //038   ----------------------------------------
 BYTE   W96
//  #11 //039   ----------------------------------------
 BYTE   W96
//  #11 //040   ----------------------------------------
 BYTE   W96
//  #11 //041   ----------------------------------------
 BYTE   W96
//  #11 //042   ----------------------------------------
 BYTE   W96
//  #11 //043   ----------------------------------------
 BYTE   W96
//  #11 //044   ----------------------------------------
 BYTE   PATT
  POIN2 Label_013C20D3
//  #11 //045   ----------------------------------------
 BYTE   PATT
  POIN2 Label_013C20D3
//  #11 //046   ----------------------------------------
 BYTE   PATT
  POIN2 Label_013C20D3
//  #11 //047   ----------------------------------------
Label_013C21AF:
 BYTE   N06  Fs1  v127
 BYTE   W06
 BYTE   Fs1  v016
 BYTE   W06
 BYTE   N06
 BYTE   W06
 BYTE   Fs1  v127
 BYTE   W06
 BYTE   Fs1  v016
 BYTE   W06
 BYTE   N06
 BYTE   W06
 BYTE   Fs1  v127
 BYTE   W06
 BYTE   Fs1  v016
 BYTE   W06
 BYTE   N04  Fs1  v072
 BYTE   W04
 BYTE   N04
 BYTE   W04
 BYTE   N04
 BYTE   W04
 BYTE   N06  Fs1  v127
 BYTE   W06
 BYTE   Fs1  v072
 BYTE   W06
 BYTE   N06
 BYTE   W06
 BYTE   N06
 BYTE   W06
 BYTE   N06
 BYTE   W06
 BYTE   N06
 BYTE   W06
 BYTE   PEND 
//  #11 //048   ----------------------------------------
Label_013C21DE:
 BYTE   N06  Fs1  v072
 BYTE   W06
 BYTE   N06
 BYTE   W06
 BYTE   As1
 BYTE   W12
 BYTE   Fs1
 BYTE   W06
 BYTE   N06
 BYTE   W06
 BYTE   As1
 BYTE   W06
 BYTE   Fs1
 BYTE   W06
 BYTE   N06
 BYTE   W06
 BYTE   N06
 BYTE   W06
 BYTE   As1
 BYTE   W12
 BYTE   Fs1
 BYTE   W06
 BYTE   N06
 BYTE   W06
 BYTE   As1
 BYTE   W06
 BYTE   Fs1
 BYTE   W06
 BYTE   PEND 
//  #11 //049   ----------------------------------------
 BYTE   PATT
  POIN2 Label_013C21DE
//  #11 //050   ----------------------------------------
 BYTE   PATT
  POIN2 Label_013C21DE
//  #11 //051   ----------------------------------------
Label_013C2207:
 BYTE   N06  Fs1  v072
 BYTE   W06
 BYTE   N06
 BYTE   W06
 BYTE   As1
 BYTE   W12
 BYTE   Fs1
 BYTE   W06
 BYTE   N06
 BYTE   W06
 BYTE   N03  Fs1  v016
 BYTE   W03
 BYTE   N03
 BYTE   W03
 BYTE   N03
 BYTE   W03
 BYTE   N06
 BYTE   W03
 BYTE   Ds0  v072
 BYTE   N06  Cn1
 BYTE   W12
 BYTE   Ds0
 BYTE   N06  Cn1
 BYTE   W12
 BYTE   Ds0
 BYTE   N06  Cn1
 BYTE   W12
 BYTE   Ds0
 BYTE   N06  Cn1
 BYTE   W12
 BYTE   PEND 
//  #11 //052   ----------------------------------------
 BYTE   PATT
  POIN2 Label_013C1F96
//  #11 //053   ----------------------------------------
 BYTE   PATT
  POIN2 Label_013C1F96
//  #11 //054   ----------------------------------------
 BYTE   PATT
  POIN2 Label_013C1F96
//  #11 //055   ----------------------------------------
 BYTE   PATT
  POIN2 Label_013C1FCF
//  #11 //056   ----------------------------------------
 BYTE   PATT
  POIN2 Label_013C1F96
//  #11 //057   ----------------------------------------
 BYTE   PATT
  POIN2 Label_013C1F96
//  #11 //058   ----------------------------------------
 BYTE   PATT
  POIN2 Label_013C1F96
//  #11 //059   ----------------------------------------
 BYTE   PATT
  POIN2 Label_013C1FCF
//  #11 //060   ----------------------------------------
 BYTE   PATT
  POIN2 Label_013C1F96
//  #11 //061   ----------------------------------------
 BYTE   PATT
  POIN2 Label_013C1F96
//  #11 //062   ----------------------------------------
 BYTE   PATT
  POIN2 Label_013C1F96
//  #11 //063   ----------------------------------------
 BYTE   PATT
  POIN2 Label_013C1FCF
//  #11 //064   ----------------------------------------
 BYTE   PATT
  POIN2 Label_013C1F96
//  #11 //065   ----------------------------------------
 BYTE   PATT
  POIN2 Label_013C1F96
//  #11 //066   ----------------------------------------
 BYTE   PATT
  POIN2 Label_013C1F96
//  #11 //067   ----------------------------------------
 BYTE   PATT
  POIN2 Label_013C1FCF
//  #11 //068   ----------------------------------------
 BYTE   PATT
  POIN2 Label_013C1F96
//  #11 //069   ----------------------------------------
 BYTE   PATT
  POIN2 Label_013C1F96
//  #11 //070   ----------------------------------------
 BYTE   PATT
  POIN2 Label_013C1F96
//  #11 //071   ----------------------------------------
Label_013C228E:
 BYTE   N06  Ds0  v072
 BYTE   N06  Cn1
 BYTE   N06  Fs1
 BYTE   W06
 BYTE   N06
 BYTE   W06
 BYTE   As1
 BYTE   W12
 BYTE   Ds0
 BYTE   N06  Cn1
 BYTE   N06  Fs1
 BYTE   W06
 BYTE   N06
 BYTE   W06
 BYTE   N03
 BYTE   W03
 BYTE   N03
 BYTE   W03
 BYTE   N03
 BYTE   W03
 BYTE   N06
 BYTE   W03
 BYTE   Ds0
 BYTE   N06  Cn1
 BYTE   W12
 BYTE   Fs1
 BYTE   W06
 BYTE   N06
 BYTE   W06
 BYTE   Ds0
 BYTE   N06  Cn1
 BYTE   N06  Fs1
 BYTE   W06
 BYTE   Ds0
 BYTE   N06  Cn1
 BYTE   N06  Fs1
 BYTE   W06
 BYTE   Ds0
 BYTE   N06  Cn1
 BYTE   N06  Fs1
 BYTE   W06
 BYTE   Ds0
 BYTE   N06  Cn1
 BYTE   N06  Fs1
 BYTE   W06
 BYTE   PEND 
//  #11 //072   ----------------------------------------
 BYTE   PATT
  POIN2 Label_013C1F96
//  #11 //073   ----------------------------------------
 BYTE   PATT
  POIN2 Label_013C1F96
//  #11 //074   ----------------------------------------
Label_013C22D5:
 BYTE   N06  Ds0  v072
 BYTE   N06  Cn1
 BYTE   N06  Fs1
 BYTE   W06
 BYTE   Ds0  v016
 BYTE   N06  Cn1
 BYTE   N06  Fs1  v072
 BYTE   W06
 BYTE   Ds0  v016
 BYTE   N06  Cn1
 BYTE   N06  As1  v072
 BYTE   W06
 BYTE   Ds0  v016
 BYTE   N06  Cn1
 BYTE   W06
 BYTE   Ds0  v072
 BYTE   N06  Cn1
 BYTE   N06  Fs1
 BYTE   W06
 BYTE   Ds0  v024
 BYTE   N06  Cn1
 BYTE   N06  Fs1  v072
 BYTE   W06
 BYTE   Ds0  v024
 BYTE   N06  Cn1
 BYTE   N06  As1  v072
 BYTE   W06
 BYTE   Ds0  v024
 BYTE   N06  Cn1
 BYTE   N06  Fs1  v072
 BYTE   W06
 BYTE   Ds0
 BYTE   N06  Cn1
 BYTE   N06  Fs1
 BYTE   W06
 BYTE   Ds0  v028
 BYTE   N06  Cn1
 BYTE   N06  Fs1  v072
 BYTE   W06
 BYTE   Ds0  v028
 BYTE   N06  Cn1
 BYTE   N06  As1  v072
 BYTE   W06
 BYTE   Ds0  v028
 BYTE   N06  Cn1
 BYTE   W06
 BYTE   Ds0  v072
 BYTE   N06  Cn1
 BYTE   N06  Fs1
 BYTE   W06
 BYTE   Ds0  v032
 BYTE   N06  Cn1
 BYTE   N06  Fs1  v072
 BYTE   W06
 BYTE   Ds0  v032
 BYTE   N06  Cn1
 BYTE   N06  As1  v072
 BYTE   W06
 BYTE   Ds0  v032
 BYTE   N06  Cn1
 BYTE   N06  Fs1  v072
 BYTE   W06
 BYTE   PEND 
//  #11 //075   ----------------------------------------
Label_013C234C:
 BYTE   N06  Ds0  v072
 BYTE   N06  Cn1
 BYTE   N06  Fs1
 BYTE   W06
 BYTE   Ds0  v036
 BYTE   N06  Cn1
 BYTE   N06  Fs1  v072
 BYTE   W06
 BYTE   Ds0  v036
 BYTE   N06  Cn1
 BYTE   N06  As1  v072
 BYTE   W06
 BYTE   Ds0  v036
 BYTE   N06  Cn1
 BYTE   W06
 BYTE   Ds0  v072
 BYTE   N06  Cn1
 BYTE   N06  Fs1
 BYTE   W06
 BYTE   Ds0  v048
 BYTE   N06  Cn1
 BYTE   N06  Fs1  v072
 BYTE   W06
 BYTE   Ds0  v048
 BYTE   N06  Cn1
 BYTE   N03  Fs1  v072
 BYTE   W03
 BYTE   N03
 BYTE   W03
 BYTE   N06  Ds0  v048
 BYTE   N06  Cn1
 BYTE   N03  Fs1  v072
 BYTE   W03
 BYTE   N06
 BYTE   W03
 BYTE   Ds0
 BYTE   N06  Cn1
 BYTE   W06
 BYTE   Ds0  v052
 BYTE   N06  Cn1
 BYTE   W06
 BYTE   Ds0
 BYTE   N06  Cn1
 BYTE   N06  Fs1  v072
 BYTE   W06
 BYTE   Ds0  v052
 BYTE   N06  Cn1
 BYTE   N06  Fs1  v072
 BYTE   W06
 BYTE   Ds0
 BYTE   N06  Cn1
 BYTE   N06  Fs1
 BYTE   W06
 BYTE   Ds0
 BYTE   N06  Cn1
 BYTE   N06  Fs1
 BYTE   W06
 BYTE   Ds0
 BYTE   N06  Cn1
 BYTE   N06  Fs1
 BYTE   W06
 BYTE   Ds0
 BYTE   N06  Cn1
 BYTE   N06  Fs1
 BYTE   W06
 BYTE   PEND 
//  #11 //076   ----------------------------------------
 BYTE   PATT
  POIN2 Label_013C1F96
//  #11 //077   ----------------------------------------
 BYTE   PATT
  POIN2 Label_013C1F96
//  #11 //078   ----------------------------------------
 BYTE   PATT
  POIN2 Label_013C1F96
//  #11 //079   ----------------------------------------
 BYTE   PATT
  POIN2 Label_013C1FCF
//  #11 //080   ----------------------------------------
 BYTE   PATT
  POIN2 Label_013C1F96
//  #11 //081   ----------------------------------------
 BYTE   PATT
  POIN2 Label_013C1F96
//  #11 //082   ----------------------------------------
 BYTE   PATT
  POIN2 Label_013C1F96
//  #11 //083   ----------------------------------------
 BYTE   PATT
  POIN2 Label_013C2019
//  #11 //084   ----------------------------------------
 BYTE   PATT
  POIN2 Label_013C1F96
//  #11 //085   ----------------------------------------
 BYTE   PATT
  POIN2 Label_013C1F96
//  #11 //086   ----------------------------------------
 BYTE   PATT
  POIN2 Label_013C1F96
//  #11 //087   ----------------------------------------
 BYTE   PATT
  POIN2 Label_013C1FCF
//  #11 //088   ----------------------------------------
 BYTE   PATT
  POIN2 Label_013C1F96
//  #11 //089   ----------------------------------------
 BYTE   PATT
  POIN2 Label_013C1F96
//  #11 //090   ----------------------------------------
 BYTE   PATT
  POIN2 Label_013C1F96
//  #11 //091   ----------------------------------------
 BYTE   PATT
  POIN2 Label_013C2071
//  #11 //092   ----------------------------------------
 BYTE   PATT
  POIN2 Label_013C1F96
//  #11 //093   ----------------------------------------
 BYTE   PATT
  POIN2 Label_013C1F96
//  #11 //094   ----------------------------------------
 BYTE   PATT
  POIN2 Label_013C1F96
//  #11 //095   ----------------------------------------
 BYTE   PATT
  POIN2 Label_013C1FCF
//  #11 //096   ----------------------------------------
 BYTE   PATT
  POIN2 Label_013C1F96
//  #11 //097   ----------------------------------------
 BYTE   PATT
  POIN2 Label_013C1F96
//  #11 //098   ----------------------------------------
 BYTE   PATT
  POIN2 Label_013C1F96
//  #11 //099   ----------------------------------------
 BYTE   PATT
  POIN2 Label_013C20D3
//  #11 //100   ----------------------------------------
 BYTE   PATT
  POIN2 Label_013C20D3
//  #11 //101   ----------------------------------------
 BYTE   PATT
  POIN2 Label_013C20D3
//  #11 //102   ----------------------------------------
 BYTE   PATT
  POIN2 Label_013C210E
//  #11 //103   ----------------------------------------
 BYTE   PATT
  POIN2 Label_013C1F96
//  #11 //104   ----------------------------------------
 BYTE   PATT
  POIN2 Label_013C1F96
//  #11 //105   ----------------------------------------
 BYTE   PATT
  POIN2 Label_013C1F96
//  #11 //106   ----------------------------------------
 BYTE   PATT
  POIN2 Label_013C2154
//  #11 //107   ----------------------------------------
 BYTE   W96
//  #11 //108   ----------------------------------------
 BYTE   W96
//  #11 //109   ----------------------------------------
 BYTE   W96
//  #11 //110   ----------------------------------------
 BYTE   W96
//  #11 //111   ----------------------------------------
 BYTE   W96
//  #11 //112   ----------------------------------------
 BYTE   W96
//  #11 //113   ----------------------------------------
 BYTE   W96
//  #11 //114   ----------------------------------------
 BYTE   W96
//  #11 //115   ----------------------------------------
 BYTE   PATT
  POIN2 Label_013C20D3
//  #11 //116   ----------------------------------------
 BYTE   PATT
  POIN2 Label_013C20D3
//  #11 //117   ----------------------------------------
 BYTE   PATT
  POIN2 Label_013C20D3
//  #11 //118   ----------------------------------------
 BYTE   PATT
  POIN2 Label_013C21AF
//  #11 //119   ----------------------------------------
 BYTE   PATT
  POIN2 Label_013C21DE
//  #11 //120   ----------------------------------------
 BYTE   PATT
  POIN2 Label_013C21DE
//  #11 //121   ----------------------------------------
 BYTE   PATT
  POIN2 Label_013C21DE
//  #11 //122   ----------------------------------------
 BYTE   PATT
  POIN2 Label_013C2207
//  #11 //123   ----------------------------------------
 BYTE   PATT
  POIN2 Label_013C1F96
//  #11 //124   ----------------------------------------
 BYTE   PATT
  POIN2 Label_013C1F96
//  #11 //125   ----------------------------------------
 BYTE   PATT
  POIN2 Label_013C1F96
//  #11 //126   ----------------------------------------
 BYTE   PATT
  POIN2 Label_013C1FCF
//  #11 //127   ----------------------------------------
 BYTE   PATT
  POIN2 Label_013C1F96
//  #11 //128   ----------------------------------------
 BYTE   PATT
  POIN2 Label_013C1F96
//  #11 //129   ----------------------------------------
 BYTE   PATT
  POIN2 Label_013C1F96
//  #11 //130   ----------------------------------------
 BYTE   PATT
  POIN2 Label_013C1FCF
//  #11 //131   ----------------------------------------
 BYTE   PATT
  POIN2 Label_013C1F96
//  #11 //132   ----------------------------------------
 BYTE   PATT
  POIN2 Label_013C1F96
//  #11 //133   ----------------------------------------
 BYTE   PATT
  POIN2 Label_013C1F96
//  #11 //134   ----------------------------------------
 BYTE   PATT
  POIN2 Label_013C1FCF
//  #11 //135   ----------------------------------------
 BYTE   PATT
  POIN2 Label_013C1F96
//  #11 //136   ----------------------------------------
 BYTE   PATT
  POIN2 Label_013C1F96
//  #11 //137   ----------------------------------------
 BYTE   PATT
  POIN2 Label_013C1F96
//  #11 //138   ----------------------------------------
 BYTE   PATT
  POIN2 Label_013C1FCF
//  #11 //139   ----------------------------------------
 BYTE   PATT
  POIN2 Label_013C1F96
//  #11 //140   ----------------------------------------
 BYTE   PATT
  POIN2 Label_013C1F96
//  #11 //141   ----------------------------------------
 BYTE   PATT
  POIN2 Label_013C1F96
//  #11 //142   ----------------------------------------
 BYTE   PATT
  POIN2 Label_013C228E
//  #11 //143   ----------------------------------------
 BYTE   PATT
  POIN2 Label_013C1F96
//  #11 //144   ----------------------------------------
 BYTE   PATT
  POIN2 Label_013C1F96
//  #11 //145   ----------------------------------------
 BYTE   PATT
  POIN2 Label_013C22D5
//  #11 //146   ----------------------------------------
 BYTE   PATT
  POIN2 Label_013C234C
//  #11 //147   ----------------------------------------
 BYTE   PATT
  POIN2 Label_013C1F96
//  #11 //148   ----------------------------------------
 BYTE   PATT
  POIN2 Label_013C1F96
//  #11 //149   ----------------------------------------
 BYTE   PATT
  POIN2 Label_013C1F96
//  #11 //150   ----------------------------------------
 BYTE   PATT
  POIN2 Label_013C1FCF
//  #11 //151   ----------------------------------------
 BYTE   PATT
  POIN2 Label_013C1F96
//  #11 //152   ----------------------------------------
 BYTE   PATT
  POIN2 Label_013C1F96
//  #11 //153   ----------------------------------------
 BYTE   PATT
  POIN2 Label_013C1F96
//  #11 //154   ----------------------------------------
 BYTE   PATT
  POIN2 Label_013C2019
//  #11 //155   ----------------------------------------
 BYTE   PATT
  POIN2 Label_013C1F96
//  #11 //156   ----------------------------------------
 BYTE   PATT
  POIN2 Label_013C1F96
//  #11 //157   ----------------------------------------
 BYTE   PATT
  POIN2 Label_013C1F96
//  #11 //158   ----------------------------------------
 BYTE   PATT
  POIN2 Label_013C1FCF
//  #11 //159   ----------------------------------------
 BYTE   PATT
  POIN2 Label_013C1F96
//  #11 //160   ----------------------------------------
 BYTE   PATT
  POIN2 Label_013C1F96
//  #11 //161   ----------------------------------------
 BYTE   PATT
  POIN2 Label_013C1F96
//  #11 //162   ----------------------------------------
 BYTE   PATT
  POIN2 Label_013C2071
//  #11 //163   ----------------------------------------
 BYTE   GoTo
  POIN2 Label_013C20B0
//  #11 //164   ----------------------------------------
 BYTE   PATT
  POIN2 Label_013C1F96
//  #11 //165   ----------------------------------------
 BYTE   PATT
  POIN2 Label_013C1F96
//  #11 //166   ----------------------------------------
 BYTE   PATT
  POIN2 Label_013C1F96
 BYTE   FINE

//******************************************************//
	ALIGN 4

SonicAdvance3ChaosAngelAct1MeatOfJustice:
	BYTE	11	// NumTrks
	BYTE	0	// NumBlks
	BYTE	SonicAdvance3ChaosAngelAct1MeatOfJustice_pri	// Priority
	BYTE	SonicAdvance3ChaosAngelAct1MeatOfJustice_rev	// Reverb.
    
	POIN2	SonicAdvance3ChaosAngelAct1MeatOfJustice_grp
    
	POIN2	SonicAdvance3ChaosAngelAct1MeatOfJustice_001
	POIN2	SonicAdvance3ChaosAngelAct1MeatOfJustice_002
	POIN2	SonicAdvance3ChaosAngelAct1MeatOfJustice_003
	POIN2	SonicAdvance3ChaosAngelAct1MeatOfJustice_004
	POIN2	SonicAdvance3ChaosAngelAct1MeatOfJustice_005
	POIN2	SonicAdvance3ChaosAngelAct1MeatOfJustice_006
	POIN2	SonicAdvance3ChaosAngelAct1MeatOfJustice_007
	POIN2	SonicAdvance3ChaosAngelAct1MeatOfJustice_008
	POIN2	SonicAdvance3ChaosAngelAct1MeatOfJustice_009
	POIN2	SonicAdvance3ChaosAngelAct1MeatOfJustice_010
	POIN2	SonicAdvance3ChaosAngelAct1MeatOfJustice_011

	
