//Event file generated from Sappy .s format.
	#include "MPlayDef.event"

	#define	Sonic2ChemicalPlantZoneSme_grp  voicegroup000
	#define	Sonic2ChemicalPlantZoneSme_pri  0
	#define	Sonic2ChemicalPlantZoneSme_rev  0
	#define	Sonic2ChemicalPlantZoneSme_mvl  85
	#define	Sonic2ChemicalPlantZoneSme_key  0
	#define	Sonic2ChemicalPlantZoneSme_tbs  1
	#define	Sonic2ChemicalPlantZoneSme_exg  0
	#define	Sonic2ChemicalPlantZoneSme_cmp  1

	// .rodata
	//	Sonic2ChemicalPlantZoneSme
	ALIGN 4

//**************** Track 1 (Midi-Chn.1) ****************//

Sonic2ChemicalPlantZoneSme_1:
	BYTE	KEYSH   Sonic2ChemicalPlantZoneSme_key+0
// 000   ----------------------------------------
	BYTE	TEMPO   140*Sonic2ChemicalPlantZoneSme_tbs/2
	BYTE		VOICE   57
	BYTE		PAN     c_v-13
	BYTE		VOL     66*Sonic2ChemicalPlantZoneSme_mvl/mxv
	BYTE		N02     An3   v112
	BYTE	W24
	BYTE		N17   
	BYTE	W18
	BYTE		N02   
	BYTE	W42
	BYTE		N05   
	BYTE	W06
	BYTE		N02   
	BYTE	W06
// 001   ----------------------------------------
Sonic2ChemicalPlantZoneSme_1_001:
	BYTE	W12
	BYTE		N05     An3   v112
	BYTE	W06
	BYTE		N02   
	BYTE	W18
	BYTE		N05   
	BYTE	W06
	BYTE		N52     Bn3 
	BYTE	W54
	BYTE	PEND
// 002   ----------------------------------------
Sonic2ChemicalPlantZoneSme_1_002:
	BYTE		N02     An3   v112
	BYTE	W24
	BYTE		N17   
	BYTE	W18
	BYTE		N02   
	BYTE	W54
	BYTE	PEND
// 003   ----------------------------------------
	BYTE	W96
// 004   ----------------------------------------
	BYTE		N02   
	BYTE	W24
	BYTE		N17   
	BYTE	W18
	BYTE		N02   
	BYTE	W42
	BYTE		N05   
	BYTE	W06
	BYTE		N02   
	BYTE	W06
// 005   ----------------------------------------
	BYTE	PATT
	 POIN2	Sonic2ChemicalPlantZoneSme_1_001
// 006   ----------------------------------------
	BYTE	PATT
	 POIN2	Sonic2ChemicalPlantZoneSme_1_002
// 007   ----------------------------------------
Sonic2ChemicalPlantZoneSme_1_007:
	BYTE	W84
	BYTE		N05     Fs3   v112
	BYTE	W06
	BYTE		        An3 
	BYTE	W06
	BYTE	PEND
Sonic2ChemicalPlantZoneSme_1_B1:
// 008   ----------------------------------------
Sonic2ChemicalPlantZoneSme_1_008:
	BYTE		N11     Cs4   v112
	BYTE	W12
	BYTE		N05     Bn3 
	BYTE	W06
	BYTE		        An3 
	BYTE	W06
	BYTE		        Bn3 
	BYTE	W06
	BYTE		N11     An3 
	BYTE	W12
	BYTE		N02   
	BYTE	W42
	BYTE		N05     Fs3 
	BYTE	W06
	BYTE		        An3 
	BYTE	W06
	BYTE	PEND
// 009   ----------------------------------------
Sonic2ChemicalPlantZoneSme_1_009:
	BYTE		N11     Cs4   v112
	BYTE	W12
	BYTE		N05     Bn3 
	BYTE	W06
	BYTE		        An3 
	BYTE	W06
	BYTE		        Bn3 
	BYTE	W06
	BYTE		N11     An3 
	BYTE	W12
	BYTE		N02     Bn3 
	BYTE	W12
	BYTE		        An3 
	BYTE	W12
	BYTE		        Bn3 
	BYTE	W12
	BYTE		N17     Cs4 
	BYTE	W18
	BYTE	PEND
// 010   ----------------------------------------
Sonic2ChemicalPlantZoneSme_1_010:
	BYTE		N05     An3   v112
	BYTE	W06
	BYTE		N02     Fs3 
	BYTE	W12
	BYTE		N02   
	BYTE	W78
	BYTE	PEND
// 011   ----------------------------------------
	BYTE	PATT
	 POIN2	Sonic2ChemicalPlantZoneSme_1_007
// 012   ----------------------------------------
	BYTE	PATT
	 POIN2	Sonic2ChemicalPlantZoneSme_1_008
// 013   ----------------------------------------
	BYTE	PATT
	 POIN2	Sonic2ChemicalPlantZoneSme_1_009
// 014   ----------------------------------------
	BYTE	PATT
	 POIN2	Sonic2ChemicalPlantZoneSme_1_010
// 015   ----------------------------------------
	BYTE	W96
// 016   ----------------------------------------
Sonic2ChemicalPlantZoneSme_1_016:
	BYTE	W12
	BYTE		N02     Bn3   v112
	BYTE	W12
	BYTE		N11   
	BYTE	W12
	BYTE		N05     An3 
	BYTE	W06
	BYTE		N02     Bn3 
	BYTE	W12
	BYTE		N02   
	BYTE	W12
	BYTE		N05     An3 
	BYTE	W06
	BYTE		N11     Bn3 
	BYTE	W12
	BYTE		        An3 
	BYTE	W12
	BYTE	PEND
// 017   ----------------------------------------
Sonic2ChemicalPlantZoneSme_1_017:
	BYTE		N05     Cs4   v112
	BYTE	W06
	BYTE		N02     An3 
	BYTE	W12
	BYTE		        Fs3 
	BYTE	W78
	BYTE	PEND
// 018   ----------------------------------------
	BYTE	PATT
	 POIN2	Sonic2ChemicalPlantZoneSme_1_016
// 019   ----------------------------------------
	BYTE		N02     Cs4   v112
	BYTE	W96
// 020   ----------------------------------------
	BYTE	PATT
	 POIN2	Sonic2ChemicalPlantZoneSme_1_016
// 021   ----------------------------------------
	BYTE	PATT
	 POIN2	Sonic2ChemicalPlantZoneSme_1_017
// 022   ----------------------------------------
	BYTE	PATT
	 POIN2	Sonic2ChemicalPlantZoneSme_1_016
// 023   ----------------------------------------
	BYTE		N02     Cs4   v112
	BYTE	W96
// 024   ----------------------------------------
Sonic2ChemicalPlantZoneSme_1_024:
	BYTE	W78
	BYTE		N05     Cs3   v112
	BYTE	W06
	BYTE		        En3 
	BYTE	W06
	BYTE		        Fs3 
	BYTE	W06
	BYTE	PEND
// 025   ----------------------------------------
Sonic2ChemicalPlantZoneSme_1_025:
	BYTE		N02     Gs3   v112
	BYTE	W01
	BYTE		N10     An3 
	BYTE	W11
	BYTE		N05     Fs3 
	BYTE	W06
	BYTE		        Cs3 
	BYTE	W06
	BYTE		        En3 
	BYTE	W06
	BYTE		N02     Fs3 
	BYTE	W12
	BYTE		        Gs3 
	BYTE	W01
	BYTE		N16     An3 
	BYTE	W17
	BYTE		N05     Fs3 
	BYTE	W06
	BYTE		        Cs3 
	BYTE	W06
	BYTE		        En3 
	BYTE	W06
	BYTE		N02     Fs3 
	BYTE	W18
	BYTE	PEND
// 026   ----------------------------------------
	BYTE	PATT
	 POIN2	Sonic2ChemicalPlantZoneSme_1_024
// 027   ----------------------------------------
	BYTE		N02     Gs3   v112
	BYTE	W01
	BYTE		N10     An3 
	BYTE	W11
	BYTE		N05     Fs3 
	BYTE	W06
	BYTE		        Cs3 
	BYTE	W06
	BYTE		        En3 
	BYTE	W06
	BYTE		N02     Fs3 
	BYTE	W12
	BYTE		N11     Bn3 
	BYTE	W12
	BYTE		N05     An3 
	BYTE	W06
	BYTE		        Bn3 
	BYTE	W06
	BYTE		N02     Cs4 
	BYTE	W30
// 028   ----------------------------------------
	BYTE	PATT
	 POIN2	Sonic2ChemicalPlantZoneSme_1_024
// 029   ----------------------------------------
	BYTE	PATT
	 POIN2	Sonic2ChemicalPlantZoneSme_1_025
// 030   ----------------------------------------
	BYTE	PATT
	 POIN2	Sonic2ChemicalPlantZoneSme_1_024
// 031   ----------------------------------------
	BYTE		N02     An3   v112
	BYTE	W12
	BYTE		        Bn3 
	BYTE	W12
	BYTE		N23     Cs4 
	BYTE	W24
	BYTE		        En4 
	BYTE	W24
	BYTE		        Fs4 
	BYTE	W24
// 032   ----------------------------------------
	BYTE		TIE   
	BYTE	W96
// 033   ----------------------------------------
	BYTE	W44
	BYTE	W03
	BYTE		EOT   
	BYTE	W01
	BYTE		N05     Cs4 
	BYTE	W06
	BYTE		N05   
	BYTE	W06
	BYTE		N02     An3 
	BYTE	W12
	BYTE		N05     Fs3 
	BYTE	W06
	BYTE		N02     An3 
	BYTE	W12
	BYTE		TIE     Fs3 
	BYTE	W06
// 034   ----------------------------------------
	BYTE	W96
// 035   ----------------------------------------
	BYTE	W80
	BYTE	W03
	BYTE		EOT   
	BYTE	W01
	BYTE		N05   
	BYTE	W06
	BYTE		        An3 
	BYTE	W06
	BYTE	GoTo
	 POIN2	Sonic2ChemicalPlantZoneSme_1_B1
Sonic2ChemicalPlantZoneSme_1_B2:
// 036   ----------------------------------------
	BYTE	FINE

//**************** Track 2 (Midi-Chn.2) ****************//

Sonic2ChemicalPlantZoneSme_2:
	BYTE	KEYSH   Sonic2ChemicalPlantZoneSme_key+0
// 000   ----------------------------------------
	BYTE		VOICE   48
	BYTE		PAN     c_v+16
	BYTE		VOL     75*Sonic2ChemicalPlantZoneSme_mvl/mxv
	BYTE		N02     Fs3   v096
	BYTE		N02     An3 
	BYTE	W24
	BYTE		N17     Fs3 
	BYTE		N17     An3 
	BYTE	W18
	BYTE		N02     Fs3 
	BYTE		N02     An3 
	BYTE	W42
	BYTE		N05     Fs3 
	BYTE		N05     An3 
	BYTE	W06
	BYTE		N02     Fs3 
	BYTE		N02     An3 
	BYTE	W06
// 001   ----------------------------------------
Sonic2ChemicalPlantZoneSme_2_001:
	BYTE	W12
	BYTE		N05     Fs3   v096
	BYTE		N05     An3 
	BYTE	W06
	BYTE		N02     Fs3 
	BYTE		N02     An3 
	BYTE	W18
	BYTE		N05     Fs3 
	BYTE		N05     An3 
	BYTE	W06
	BYTE		N52     Gs3 
	BYTE		N52     Bn3 
	BYTE	W54
	BYTE	PEND
// 002   ----------------------------------------
Sonic2ChemicalPlantZoneSme_2_002:
	BYTE		N02     Fs3   v096
	BYTE		N02     An3 
	BYTE	W24
	BYTE		N17     Fs3 
	BYTE		N17     An3 
	BYTE	W18
	BYTE		N02     Fs3 
	BYTE		N02     An3 
	BYTE	W54
	BYTE	PEND
// 003   ----------------------------------------
	BYTE	W96
// 004   ----------------------------------------
Sonic2ChemicalPlantZoneSme_2_004:
	BYTE		N02     Fs3   v096
	BYTE		N02     An3 
	BYTE	W24
	BYTE		N17     Fs3 
	BYTE		N17     An3 
	BYTE	W18
	BYTE		N02     Fs3 
	BYTE		N02     An3 
	BYTE	W42
	BYTE		N05     Fs3 
	BYTE		N05     An3 
	BYTE	W06
	BYTE		N02     Fs3 
	BYTE		N02     An3 
	BYTE	W06
	BYTE	PEND
// 005   ----------------------------------------
	BYTE	PATT
	 POIN2	Sonic2ChemicalPlantZoneSme_2_001
// 006   ----------------------------------------
	BYTE	PATT
	 POIN2	Sonic2ChemicalPlantZoneSme_2_002
// 007   ----------------------------------------
	BYTE	W96
Sonic2ChemicalPlantZoneSme_2_B1:
// 008   ----------------------------------------
	BYTE	PATT
	 POIN2	Sonic2ChemicalPlantZoneSme_2_004
// 009   ----------------------------------------
	BYTE	PATT
	 POIN2	Sonic2ChemicalPlantZoneSme_2_001
// 010   ----------------------------------------
	BYTE	PATT
	 POIN2	Sonic2ChemicalPlantZoneSme_2_002
// 011   ----------------------------------------
	BYTE	W96
// 012   ----------------------------------------
	BYTE	PATT
	 POIN2	Sonic2ChemicalPlantZoneSme_2_004
// 013   ----------------------------------------
	BYTE	PATT
	 POIN2	Sonic2ChemicalPlantZoneSme_2_001
// 014   ----------------------------------------
	BYTE	PATT
	 POIN2	Sonic2ChemicalPlantZoneSme_2_002
// 015   ----------------------------------------
	BYTE	W96
// 016   ----------------------------------------
	BYTE	PATT
	 POIN2	Sonic2ChemicalPlantZoneSme_2_004
// 017   ----------------------------------------
	BYTE	PATT
	 POIN2	Sonic2ChemicalPlantZoneSme_2_001
// 018   ----------------------------------------
	BYTE	PATT
	 POIN2	Sonic2ChemicalPlantZoneSme_2_002
// 019   ----------------------------------------
	BYTE	W96
// 020   ----------------------------------------
	BYTE	PATT
	 POIN2	Sonic2ChemicalPlantZoneSme_2_004
// 021   ----------------------------------------
	BYTE	PATT
	 POIN2	Sonic2ChemicalPlantZoneSme_2_001
// 022   ----------------------------------------
	BYTE	PATT
	 POIN2	Sonic2ChemicalPlantZoneSme_2_002
// 023   ----------------------------------------
	BYTE	W96
// 024   ----------------------------------------
Sonic2ChemicalPlantZoneSme_2_024:
	BYTE		N17     Gs3   v096
	BYTE		N17     Bn3 
	BYTE	W24
	BYTE		        Gs3 
	BYTE		N17     Bn3 
	BYTE	W24
	BYTE		N11     An3 
	BYTE		N11     Cs4 
	BYTE	W48
	BYTE	PEND
// 025   ----------------------------------------
	BYTE	W96
// 026   ----------------------------------------
	BYTE	PATT
	 POIN2	Sonic2ChemicalPlantZoneSme_2_024
// 027   ----------------------------------------
	BYTE	W96
// 028   ----------------------------------------
	BYTE	PATT
	 POIN2	Sonic2ChemicalPlantZoneSme_2_024
// 029   ----------------------------------------
	BYTE	W96
// 030   ----------------------------------------
	BYTE	PATT
	 POIN2	Sonic2ChemicalPlantZoneSme_2_024
// 031   ----------------------------------------
	BYTE	W96
// 032   ----------------------------------------
Sonic2ChemicalPlantZoneSme_2_032:
	BYTE		N02     An2   v096
	BYTE	W12
	BYTE		        Gs2 
	BYTE	W12
	BYTE		N11     An2 
	BYTE	W12
	BYTE		N05     Gs2 
	BYTE	W06
	BYTE		N02     An2 
	BYTE	W12
	BYTE		N02   
	BYTE	W06
	BYTE		        Gs2 
	BYTE	W12
	BYTE		N11     An2 
	BYTE	W12
	BYTE		N02     Gs2 
	BYTE	W12
	BYTE	PEND
// 033   ----------------------------------------
	BYTE	PATT
	 POIN2	Sonic2ChemicalPlantZoneSme_2_032
// 034   ----------------------------------------
	BYTE	PATT
	 POIN2	Sonic2ChemicalPlantZoneSme_2_032
// 035   ----------------------------------------
	BYTE	PATT
	 POIN2	Sonic2ChemicalPlantZoneSme_2_032
	BYTE	GoTo
	 POIN2	Sonic2ChemicalPlantZoneSme_2_B1
Sonic2ChemicalPlantZoneSme_2_B2:
// 036   ----------------------------------------
	BYTE	FINE

//**************** Track 3 (Midi-Chn.3) ****************//

Sonic2ChemicalPlantZoneSme_3:
	BYTE	KEYSH   Sonic2ChemicalPlantZoneSme_key+0
// 000   ----------------------------------------
	BYTE		VOICE   62
	BYTE		PAN     c_v+18
	BYTE		VOL     70*Sonic2ChemicalPlantZoneSme_mvl/mxv
	BYTE	W60
	BYTE		N05     Fs2   v088
	BYTE		N05     Fs3   v080
	BYTE	W06
	BYTE		        Cs2   v088
	BYTE		N05     Cs3   v080
	BYTE	W06
	BYTE		        En2   v088
	BYTE		N05     En3   v080
	BYTE	W06
	BYTE		        Fs2   v088
	BYTE		N05     Fs3   v080
	BYTE	W18
// 001   ----------------------------------------
	BYTE	W96
// 002   ----------------------------------------
Sonic2ChemicalPlantZoneSme_3_002:
	BYTE	W60
	BYTE		N05     Fs2   v088
	BYTE		N05     Fs3   v080
	BYTE	W06
	BYTE		        Cs2   v088
	BYTE		N05     Cs3   v080
	BYTE	W06
	BYTE		        En2   v088
	BYTE		N05     En3   v080
	BYTE	W06
	BYTE		        Fs2   v088
	BYTE		N05     Fs3   v080
	BYTE	W18
	BYTE	PEND
// 003   ----------------------------------------
	BYTE	W96
// 004   ----------------------------------------
	BYTE	PATT
	 POIN2	Sonic2ChemicalPlantZoneSme_3_002
// 005   ----------------------------------------
	BYTE	W96
// 006   ----------------------------------------
	BYTE	PATT
	 POIN2	Sonic2ChemicalPlantZoneSme_3_002
// 007   ----------------------------------------
Sonic2ChemicalPlantZoneSme_3_007:
	BYTE	W48
	BYTE		N05     Cs3   v088
	BYTE		N05     Cs4   v080
	BYTE	W06
	BYTE		        Cs3   v088
	BYTE		N05     Cs4   v080
	BYTE	W06
	BYTE		N02     An2   v088
	BYTE		N02     An3   v080
	BYTE	W12
	BYTE		N05     Bn2   v088
	BYTE		N05     Bn3   v080
	BYTE	W06
	BYTE		        Cs3   v088
	BYTE		N05     Cs4   v080
	BYTE	W18
	BYTE	PEND
Sonic2ChemicalPlantZoneSme_3_B1:
// 008   ----------------------------------------
	BYTE	PATT
	 POIN2	Sonic2ChemicalPlantZoneSme_3_002
// 009   ----------------------------------------
	BYTE	W96
// 010   ----------------------------------------
	BYTE	PATT
	 POIN2	Sonic2ChemicalPlantZoneSme_3_002
// 011   ----------------------------------------
	BYTE	PATT
	 POIN2	Sonic2ChemicalPlantZoneSme_3_007
// 012   ----------------------------------------
	BYTE	PATT
	 POIN2	Sonic2ChemicalPlantZoneSme_3_002
// 013   ----------------------------------------
	BYTE	W96
// 014   ----------------------------------------
	BYTE	PATT
	 POIN2	Sonic2ChemicalPlantZoneSme_3_002
// 015   ----------------------------------------
	BYTE	PATT
	 POIN2	Sonic2ChemicalPlantZoneSme_3_007
// 016   ----------------------------------------
	BYTE	W96
// 017   ----------------------------------------
Sonic2ChemicalPlantZoneSme_3_017:
	BYTE	W24
	BYTE		N02     An2   v088
	BYTE		N02     An3   v080
	BYTE	W12
	BYTE		        An2   v088
	BYTE		N02     An3   v080
	BYTE	W12
	BYTE		        An2   v088
	BYTE		N02     An3   v080
	BYTE	W12
	BYTE		        An2   v088
	BYTE		N02     An3   v080
	BYTE	W12
	BYTE		N05     An2   v088
	BYTE		N05     An3   v080
	BYTE	W06
	BYTE		N17     An2   v088
	BYTE		N17     An3   v080
	BYTE	W18
	BYTE	PEND
// 018   ----------------------------------------
Sonic2ChemicalPlantZoneSme_3_018:
	BYTE		N02     Fs2   v088
	BYTE		N02     Fs3   v080
	BYTE	W96
	BYTE	PEND
// 019   ----------------------------------------
Sonic2ChemicalPlantZoneSme_3_019:
	BYTE		N05     Fn2   v088
	BYTE		N05     Fn3   v080
	BYTE	W04
	BYTE		        Fs2   v088
	BYTE		N05     Fs3   v080
	BYTE	W04
	BYTE		        Gn2   v088
	BYTE		N05     Gn3   v080
	BYTE	W04
	BYTE		N32     Gs2   v088
	BYTE		N32     Gs3   v080
	BYTE	W36
	BYTE		N05     Ds2   v088
	BYTE		N05     Ds3   v080
	BYTE	W04
	BYTE		        En2   v088
	BYTE		N05     En3   v080
	BYTE	W04
	BYTE		        Fn2   v088
	BYTE		N05     Fn3   v080
	BYTE	W04
	BYTE		N32     Fs2   v088
	BYTE		N32     Fs3   v080
	BYTE	W36
	BYTE	PEND
// 020   ----------------------------------------
	BYTE	W96
// 021   ----------------------------------------
	BYTE	PATT
	 POIN2	Sonic2ChemicalPlantZoneSme_3_017
// 022   ----------------------------------------
	BYTE	PATT
	 POIN2	Sonic2ChemicalPlantZoneSme_3_018
// 023   ----------------------------------------
	BYTE	PATT
	 POIN2	Sonic2ChemicalPlantZoneSme_3_019
// 024   ----------------------------------------
Sonic2ChemicalPlantZoneSme_3_024:
	BYTE		N17     Dn2   v088
	BYTE		N17     Dn3   v080
	BYTE	W24
	BYTE		        Dn2   v088
	BYTE		N17     Dn3   v080
	BYTE	W24
	BYTE		N11     En2   v088
	BYTE		N11     En3   v080
	BYTE	W48
	BYTE	PEND
// 025   ----------------------------------------
	BYTE	W96
// 026   ----------------------------------------
	BYTE	PATT
	 POIN2	Sonic2ChemicalPlantZoneSme_3_024
// 027   ----------------------------------------
	BYTE	W96
// 028   ----------------------------------------
	BYTE	PATT
	 POIN2	Sonic2ChemicalPlantZoneSme_3_024
// 029   ----------------------------------------
	BYTE	W96
// 030   ----------------------------------------
	BYTE	PATT
	 POIN2	Sonic2ChemicalPlantZoneSme_3_024
// 031   ----------------------------------------
	BYTE	W96
// 032   ----------------------------------------
	BYTE	W96
// 033   ----------------------------------------
	BYTE		N02     Cs3   v088
	BYTE	W12
	BYTE		        Bn2 
	BYTE	W12
	BYTE		N11     Cs3 
	BYTE	W12
	BYTE		N05     Bn2 
	BYTE	W06
	BYTE		N02     Cs3 
	BYTE	W12
	BYTE		N02   
	BYTE	W06
	BYTE		        Bn2 
	BYTE	W12
	BYTE		N11     Cs3 
	BYTE	W12
	BYTE		N02     Bn2 
	BYTE	W12
// 034   ----------------------------------------
	BYTE		        Cs3 
	BYTE		N02     Fs3 
	BYTE	W12
	BYTE		        Bn2 
	BYTE		N02     En3 
	BYTE	W12
	BYTE		N11     Cs3 
	BYTE		N11     Fs3 
	BYTE	W12
	BYTE		N05     Bn2 
	BYTE		N05     En3 
	BYTE	W06
	BYTE		N02     Cs3 
	BYTE		N02     Fs3 
	BYTE	W12
	BYTE		        Cs3 
	BYTE		N02     Fs3 
	BYTE	W06
	BYTE		        Bn2 
	BYTE		N02     En3 
	BYTE	W12
	BYTE		N11     Cs3 
	BYTE		N11     Fs3 
	BYTE	W12
	BYTE		N02     Bn2 
	BYTE		N02     En3 
	BYTE	W12
// 035   ----------------------------------------
	BYTE		        Cs3 
	BYTE		N02     Fs3 
	BYTE		N02     Cs4 
	BYTE	W12
	BYTE		        Bn2 
	BYTE		N02     En3 
	BYTE		N02     Bn3 
	BYTE	W12
	BYTE		N11     Cs3 
	BYTE		N11     Fs3 
	BYTE		N11     Cs4 
	BYTE	W12
	BYTE		N05     Bn2 
	BYTE		N05     En3 
	BYTE		N05     Bn3 
	BYTE	W06
	BYTE		N02     Cs3 
	BYTE		N02     Fs3 
	BYTE		N02     Cs4 
	BYTE	W12
	BYTE		        Cs3 
	BYTE		N02     Fs3 
	BYTE		N02     Cs4 
	BYTE	W06
	BYTE		        Bn2 
	BYTE		N02     En3 
	BYTE		N02     Bn3 
	BYTE	W12
	BYTE		N11     Cs3 
	BYTE		N11     Fs3 
	BYTE		N11     Cs4 
	BYTE	W12
	BYTE		N02     Bn2 
	BYTE		N02     En3 
	BYTE		N02     Bn3 
	BYTE	W12
	BYTE	GoTo
	 POIN2	Sonic2ChemicalPlantZoneSme_3_B1
Sonic2ChemicalPlantZoneSme_3_B2:
// 036   ----------------------------------------
	BYTE	FINE

//**************** Track 4 (Midi-Chn.4) ****************//

Sonic2ChemicalPlantZoneSme_4:
	BYTE	KEYSH   Sonic2ChemicalPlantZoneSme_key+0
// 000   ----------------------------------------
	BYTE		VOICE   28
	BYTE		PAN     c_v-6
	BYTE		VOL     65*Sonic2ChemicalPlantZoneSme_mvl/mxv
	BYTE	W96
// 001   ----------------------------------------
	BYTE	W96
// 002   ----------------------------------------
	BYTE	W96
// 003   ----------------------------------------
	BYTE	W96
// 004   ----------------------------------------
	BYTE	W96
// 005   ----------------------------------------
	BYTE	W96
// 006   ----------------------------------------
	BYTE	W96
// 007   ----------------------------------------
	BYTE	W96
Sonic2ChemicalPlantZoneSme_4_B1:
// 008   ----------------------------------------
Sonic2ChemicalPlantZoneSme_4_008:
	BYTE		N11     Fs1   v080
	BYTE	W12
	BYTE		N02     Fs2 
	BYTE	W12
	BYTE		        En2 
	BYTE	W12
	BYTE		N05     Fs2 
	BYTE	W06
	BYTE		        Fs1 
	BYTE	W12
	BYTE		N02   
	BYTE	W06
	BYTE		        Fs2 
	BYTE	W12
	BYTE		        En2 
	BYTE	W12
	BYTE		N11     Fs2 
	BYTE	W12
	BYTE	PEND
// 009   ----------------------------------------
	BYTE	PATT
	 POIN2	Sonic2ChemicalPlantZoneSme_4_008
// 010   ----------------------------------------
	BYTE	PATT
	 POIN2	Sonic2ChemicalPlantZoneSme_4_008
// 011   ----------------------------------------
Sonic2ChemicalPlantZoneSme_4_011:
	BYTE		N11     En1   v080
	BYTE	W12
	BYTE		N02     En2 
	BYTE	W12
	BYTE		        Ds2 
	BYTE	W12
	BYTE		N05     En2 
	BYTE	W06
	BYTE		        Ds1 
	BYTE	W12
	BYTE		N02   
	BYTE	W06
	BYTE		        Ds2 
	BYTE	W12
	BYTE		        Cs2 
	BYTE	W12
	BYTE		N11     Ds2 
	BYTE	W12
	BYTE	PEND
// 012   ----------------------------------------
	BYTE	PATT
	 POIN2	Sonic2ChemicalPlantZoneSme_4_008
// 013   ----------------------------------------
	BYTE	PATT
	 POIN2	Sonic2ChemicalPlantZoneSme_4_008
// 014   ----------------------------------------
	BYTE	PATT
	 POIN2	Sonic2ChemicalPlantZoneSme_4_008
// 015   ----------------------------------------
	BYTE	PATT
	 POIN2	Sonic2ChemicalPlantZoneSme_4_011
// 016   ----------------------------------------
	BYTE	PATT
	 POIN2	Sonic2ChemicalPlantZoneSme_4_008
// 017   ----------------------------------------
	BYTE	PATT
	 POIN2	Sonic2ChemicalPlantZoneSme_4_008
// 018   ----------------------------------------
	BYTE	PATT
	 POIN2	Sonic2ChemicalPlantZoneSme_4_008
// 019   ----------------------------------------
	BYTE	PATT
	 POIN2	Sonic2ChemicalPlantZoneSme_4_011
// 020   ----------------------------------------
	BYTE	PATT
	 POIN2	Sonic2ChemicalPlantZoneSme_4_008
// 021   ----------------------------------------
	BYTE	PATT
	 POIN2	Sonic2ChemicalPlantZoneSme_4_008
// 022   ----------------------------------------
	BYTE	PATT
	 POIN2	Sonic2ChemicalPlantZoneSme_4_008
// 023   ----------------------------------------
	BYTE	PATT
	 POIN2	Sonic2ChemicalPlantZoneSme_4_011
// 024   ----------------------------------------
	BYTE	W96
// 025   ----------------------------------------
	BYTE	W96
// 026   ----------------------------------------
	BYTE	W96
// 027   ----------------------------------------
	BYTE	W96
// 028   ----------------------------------------
	BYTE	W96
// 029   ----------------------------------------
	BYTE	W96
// 030   ----------------------------------------
	BYTE	W96
// 031   ----------------------------------------
	BYTE	W96
// 032   ----------------------------------------
	BYTE	W96
// 033   ----------------------------------------
	BYTE	W96
// 034   ----------------------------------------
	BYTE	W96
// 035   ----------------------------------------
	BYTE	W96
	BYTE	GoTo
	 POIN2	Sonic2ChemicalPlantZoneSme_4_B1
Sonic2ChemicalPlantZoneSme_4_B2:
// 036   ----------------------------------------
	BYTE	FINE

//**************** Track 5 (Midi-Chn.5) ****************//

Sonic2ChemicalPlantZoneSme_5:
	BYTE	KEYSH   Sonic2ChemicalPlantZoneSme_key+0
// 000   ----------------------------------------
	BYTE		VOICE   36
	BYTE		PAN     c_v-10
	BYTE		VOL     56*Sonic2ChemicalPlantZoneSme_mvl/mxv
	BYTE	W96
// 001   ----------------------------------------
	BYTE	W96
// 002   ----------------------------------------
	BYTE	W96
// 003   ----------------------------------------
	BYTE		N05     Fs1   v127
	BYTE	W06
	BYTE		N40     Ds1 
	BYTE	W42
	BYTE		N02     En1 
	BYTE	W12
	BYTE		N11   
	BYTE	W12
	BYTE		N02     Fn1 
	BYTE	W12
	BYTE		N11   
	BYTE	W12
// 004   ----------------------------------------
Sonic2ChemicalPlantZoneSme_5_004:
	BYTE		N02     Fs1   v127
	BYTE	W12
	BYTE		N11   
	BYTE	W12
	BYTE		N02   
	BYTE	W12
	BYTE		N11   
	BYTE	W12
	BYTE		N02   
	BYTE	W12
	BYTE		N11   
	BYTE	W12
	BYTE		N05   
	BYTE	W06
	BYTE		        Fs2 
	BYTE	W06
	BYTE		N11     Fs1 
	BYTE	W12
	BYTE	PEND
// 005   ----------------------------------------
Sonic2ChemicalPlantZoneSme_5_005:
	BYTE		N02     Fs1   v127
	BYTE	W12
	BYTE		N11   
	BYTE	W12
	BYTE		N02   
	BYTE	W12
	BYTE		N11   
	BYTE	W12
	BYTE		N05   
	BYTE	W06
	BYTE		N17     Ds1 
	BYTE	W18
	BYTE		N11     En1 
	BYTE	W12
	BYTE		        Fn1 
	BYTE	W12
	BYTE	PEND
// 006   ----------------------------------------
	BYTE	PATT
	 POIN2	Sonic2ChemicalPlantZoneSme_5_004
// 007   ----------------------------------------
Sonic2ChemicalPlantZoneSme_5_007:
	BYTE		N02     En1   v127
	BYTE	W12
	BYTE		N11   
	BYTE	W12
	BYTE		N02   
	BYTE	W12
	BYTE		N11   
	BYTE	W12
	BYTE		N02     Ds1 
	BYTE	W12
	BYTE		N11   
	BYTE	W12
	BYTE		N02   
	BYTE	W12
	BYTE		N11   
	BYTE	W12
	BYTE	PEND
Sonic2ChemicalPlantZoneSme_5_B1:
// 008   ----------------------------------------
	BYTE	PATT
	 POIN2	Sonic2ChemicalPlantZoneSme_5_004
// 009   ----------------------------------------
	BYTE	PATT
	 POIN2	Sonic2ChemicalPlantZoneSme_5_005
// 010   ----------------------------------------
	BYTE	PATT
	 POIN2	Sonic2ChemicalPlantZoneSme_5_004
// 011   ----------------------------------------
	BYTE	PATT
	 POIN2	Sonic2ChemicalPlantZoneSme_5_007
// 012   ----------------------------------------
	BYTE	PATT
	 POIN2	Sonic2ChemicalPlantZoneSme_5_004
// 013   ----------------------------------------
	BYTE	PATT
	 POIN2	Sonic2ChemicalPlantZoneSme_5_005
// 014   ----------------------------------------
	BYTE	PATT
	 POIN2	Sonic2ChemicalPlantZoneSme_5_004
// 015   ----------------------------------------
	BYTE	PATT
	 POIN2	Sonic2ChemicalPlantZoneSme_5_007
// 016   ----------------------------------------
	BYTE	PATT
	 POIN2	Sonic2ChemicalPlantZoneSme_5_004
// 017   ----------------------------------------
	BYTE	PATT
	 POIN2	Sonic2ChemicalPlantZoneSme_5_005
// 018   ----------------------------------------
	BYTE	PATT
	 POIN2	Sonic2ChemicalPlantZoneSme_5_004
// 019   ----------------------------------------
	BYTE	PATT
	 POIN2	Sonic2ChemicalPlantZoneSme_5_007
// 020   ----------------------------------------
	BYTE	PATT
	 POIN2	Sonic2ChemicalPlantZoneSme_5_004
// 021   ----------------------------------------
	BYTE	PATT
	 POIN2	Sonic2ChemicalPlantZoneSme_5_005
// 022   ----------------------------------------
	BYTE	PATT
	 POIN2	Sonic2ChemicalPlantZoneSme_5_004
// 023   ----------------------------------------
	BYTE	PATT
	 POIN2	Sonic2ChemicalPlantZoneSme_5_007
// 024   ----------------------------------------
Sonic2ChemicalPlantZoneSme_5_024:
	BYTE		N23     En1   v127
	BYTE	W24
	BYTE		        Fn1 
	BYTE	W24
	BYTE		N11     Fs1 
	BYTE	W48
	BYTE	PEND
// 025   ----------------------------------------
Sonic2ChemicalPlantZoneSme_5_025:
	BYTE		N11     Fs2   v127
	BYTE	W12
	BYTE		N02     Fs3 
	BYTE	W12
	BYTE		        En3 
	BYTE	W12
	BYTE		N05     Fs3 
	BYTE	W06
	BYTE		        Fs2 
	BYTE	W12
	BYTE		N02   
	BYTE	W06
	BYTE		        Fs3 
	BYTE	W12
	BYTE		        En3 
	BYTE	W12
	BYTE		N05     En1 
	BYTE		N05     En2 
	BYTE		N11     Fs3 
	BYTE	W06
	BYTE		N05     Fs1 
	BYTE		N05     Fs2 
	BYTE	W06
	BYTE	PEND
// 026   ----------------------------------------
	BYTE	PATT
	 POIN2	Sonic2ChemicalPlantZoneSme_5_024
// 027   ----------------------------------------
	BYTE		N11     Fs2   v127
	BYTE	W12
	BYTE		N02     Fs3 
	BYTE	W12
	BYTE		        En3 
	BYTE	W12
	BYTE		N05     Fs3 
	BYTE	W06
	BYTE		        Fs2 
	BYTE	W12
	BYTE		N02   
	BYTE	W06
	BYTE		        Fs3 
	BYTE	W12
	BYTE		N05     En1 
	BYTE		N05     En2 
	BYTE		N02     En3 
	BYTE	W06
	BYTE		N05     En2 
	BYTE		N05     En3 
	BYTE	W06
	BYTE		        Ds1 
	BYTE		N05     Ds2 
	BYTE		N11     Fs3 
	BYTE	W06
	BYTE		N05     Ds2 
	BYTE		N05     Ds3 
	BYTE	W06
// 028   ----------------------------------------
	BYTE	PATT
	 POIN2	Sonic2ChemicalPlantZoneSme_5_024
// 029   ----------------------------------------
	BYTE	PATT
	 POIN2	Sonic2ChemicalPlantZoneSme_5_025
// 030   ----------------------------------------
	BYTE	PATT
	 POIN2	Sonic2ChemicalPlantZoneSme_5_024
// 031   ----------------------------------------
	BYTE		N11     Fs1   v127
	BYTE	W12
	BYTE		N32     Ds1 
	BYTE	W36
	BYTE		N23     En1 
	BYTE	W24
	BYTE		        Fn1 
	BYTE	W24
// 032   ----------------------------------------
	BYTE		N92     Fs1 
	BYTE	W96
// 033   ----------------------------------------
	BYTE	W96
// 034   ----------------------------------------
	BYTE	W96
// 035   ----------------------------------------
	BYTE	W48
	BYTE		N05     An1 
	BYTE		N05     An2 
	BYTE	W06
	BYTE		N05   
	BYTE		N05     An3 
	BYTE	W06
	BYTE		        An1 
	BYTE		N05     An2 
	BYTE	W06
	BYTE		N05   
	BYTE		N05     An3 
	BYTE	W06
	BYTE		        Gs1 
	BYTE		N05     Gs2 
	BYTE	W06
	BYTE		N05   
	BYTE		N05     Gs3 
	BYTE	W06
	BYTE		        Gn1 
	BYTE		N05     Gn2 
	BYTE	W06
	BYTE		N05   
	BYTE		N05     Gn3 
	BYTE	W06
	BYTE	GoTo
	 POIN2	Sonic2ChemicalPlantZoneSme_5_B1
Sonic2ChemicalPlantZoneSme_5_B2:
// 036   ----------------------------------------
	BYTE	FINE

//**************** Track 6 (Midi-Chn.6) ****************//

Sonic2ChemicalPlantZoneSme_6:
	BYTE	KEYSH   Sonic2ChemicalPlantZoneSme_key+0
// 000   ----------------------------------------
	BYTE		VOICE   123
	BYTE		VOL     36*Sonic2ChemicalPlantZoneSme_mvl/mxv
	BYTE		PAN     c_v-1
	BYTE		N23     Cn1   v127
	BYTE	W12
	BYTE		N05     Fs1 
	BYTE	W06
	BYTE		N05   
	BYTE	W06
	BYTE		N11     Dn1 
	BYTE		N11     Fs1 
	BYTE	W12
	BYTE		N23     Cn1 
	BYTE		N05     Fs1 
	BYTE	W06
	BYTE		N05   
	BYTE	W06
	BYTE		N11   
	BYTE	W12
	BYTE		        Cn1 
	BYTE		N05     Fs1 
	BYTE	W06
	BYTE		N05   
	BYTE	W06
	BYTE		N11     Dn1 
	BYTE		N11     Fs1 
	BYTE	W12
	BYTE		        Cn1 
	BYTE		N05     Fs1 
	BYTE	W06
	BYTE		N05   
	BYTE	W06
// 001   ----------------------------------------
Sonic2ChemicalPlantZoneSme_6_001:
	BYTE		N23     Cn1   v127
	BYTE		N11     Fs1 
	BYTE	W12
	BYTE		N05   
	BYTE	W06
	BYTE		N05   
	BYTE	W06
	BYTE		N11     Dn1 
	BYTE		N11     Fs1 
	BYTE	W12
	BYTE		N17     Cn1 
	BYTE		N05     Fs1 
	BYTE	W06
	BYTE		N05   
	BYTE	W06
	BYTE		N11   
	BYTE	W06
	BYTE		N17     Cn1 
	BYTE	W06
	BYTE		N05     Fs1 
	BYTE	W06
	BYTE		N05   
	BYTE	W06
	BYTE		N23     Dn1 
	BYTE		N05     Fs1 
	BYTE	W06
	BYTE		N05   
	BYTE	W06
	BYTE		N05   
	BYTE	W06
	BYTE		N05   
	BYTE	W06
	BYTE	PEND
// 002   ----------------------------------------
Sonic2ChemicalPlantZoneSme_6_002:
	BYTE		N23     Cn1   v127
	BYTE		N11     Fs1 
	BYTE	W12
	BYTE		N05   
	BYTE	W06
	BYTE		N05   
	BYTE	W06
	BYTE		N11     Dn1 
	BYTE		N11     Fs1 
	BYTE	W12
	BYTE		N23     Cn1 
	BYTE		N05     Fs1 
	BYTE	W06
	BYTE		N05   
	BYTE	W06
	BYTE		N11   
	BYTE	W12
	BYTE		        Cn1 
	BYTE		N05     Fs1 
	BYTE	W06
	BYTE		N05   
	BYTE	W06
	BYTE		N11     Dn1 
	BYTE		N11     Fs1 
	BYTE	W12
	BYTE		        Cn1 
	BYTE		N05     Fs1 
	BYTE	W06
	BYTE		N05   
	BYTE	W06
	BYTE	PEND
// 003   ----------------------------------------
Sonic2ChemicalPlantZoneSme_6_003:
	BYTE		N23     Cn1   v127
	BYTE		N11     Fs1 
	BYTE	W12
	BYTE		N05   
	BYTE	W06
	BYTE		N05   
	BYTE	W06
	BYTE		N11     Dn1 
	BYTE		N11     Fs1 
	BYTE	W12
	BYTE		N23     Cn1 
	BYTE		N05     Fs1 
	BYTE	W06
	BYTE		N05   
	BYTE	W06
	BYTE		N11   
	BYTE	W12
	BYTE		        Dn1 
	BYTE		N05     Fs1 
	BYTE	W06
	BYTE		N05   
	BYTE	W06
	BYTE		N11     Dn1 
	BYTE		N05     Fs1 
	BYTE	W06
	BYTE		N05   
	BYTE	W06
	BYTE		        Dn1 
	BYTE		N05     Fs1 
	BYTE	W06
	BYTE		        Dn1 
	BYTE		N05     Fs1 
	BYTE	W06
	BYTE	PEND
// 004   ----------------------------------------
	BYTE	PATT
	 POIN2	Sonic2ChemicalPlantZoneSme_6_002
// 005   ----------------------------------------
	BYTE	PATT
	 POIN2	Sonic2ChemicalPlantZoneSme_6_001
// 006   ----------------------------------------
	BYTE	PATT
	 POIN2	Sonic2ChemicalPlantZoneSme_6_002
// 007   ----------------------------------------
	BYTE	PATT
	 POIN2	Sonic2ChemicalPlantZoneSme_6_003
Sonic2ChemicalPlantZoneSme_6_B1:
// 008   ----------------------------------------
	BYTE	PATT
	 POIN2	Sonic2ChemicalPlantZoneSme_6_002
// 009   ----------------------------------------
	BYTE	PATT
	 POIN2	Sonic2ChemicalPlantZoneSme_6_001
// 010   ----------------------------------------
	BYTE	PATT
	 POIN2	Sonic2ChemicalPlantZoneSme_6_002
// 011   ----------------------------------------
	BYTE	PATT
	 POIN2	Sonic2ChemicalPlantZoneSme_6_003
// 012   ----------------------------------------
	BYTE	PATT
	 POIN2	Sonic2ChemicalPlantZoneSme_6_002
// 013   ----------------------------------------
	BYTE	PATT
	 POIN2	Sonic2ChemicalPlantZoneSme_6_001
// 014   ----------------------------------------
	BYTE	PATT
	 POIN2	Sonic2ChemicalPlantZoneSme_6_002
// 015   ----------------------------------------
	BYTE	PATT
	 POIN2	Sonic2ChemicalPlantZoneSme_6_003
// 016   ----------------------------------------
	BYTE	PATT
	 POIN2	Sonic2ChemicalPlantZoneSme_6_002
// 017   ----------------------------------------
	BYTE	PATT
	 POIN2	Sonic2ChemicalPlantZoneSme_6_001
// 018   ----------------------------------------
	BYTE	PATT
	 POIN2	Sonic2ChemicalPlantZoneSme_6_002
// 019   ----------------------------------------
	BYTE	PATT
	 POIN2	Sonic2ChemicalPlantZoneSme_6_003
// 020   ----------------------------------------
	BYTE	PATT
	 POIN2	Sonic2ChemicalPlantZoneSme_6_002
// 021   ----------------------------------------
	BYTE	PATT
	 POIN2	Sonic2ChemicalPlantZoneSme_6_001
// 022   ----------------------------------------
	BYTE	PATT
	 POIN2	Sonic2ChemicalPlantZoneSme_6_002
// 023   ----------------------------------------
Sonic2ChemicalPlantZoneSme_6_023:
	BYTE		N23     Cn1   v127
	BYTE		N11     Fs1 
	BYTE	W12
	BYTE		N05   
	BYTE	W06
	BYTE		N05   
	BYTE	W06
	BYTE		N11     Dn1 
	BYTE		N11     Fs1 
	BYTE	W12
	BYTE		        Cn1 
	BYTE		N05     Fs1 
	BYTE	W06
	BYTE		N05   
	BYTE	W06
	BYTE		        Dn1 
	BYTE		N11     Fs1 
	BYTE	W06
	BYTE		N05     Dn1 
	BYTE	W06
	BYTE		N05   
	BYTE		N05     Fs1 
	BYTE	W06
	BYTE		        Dn1 
	BYTE		N05     Fs1 
	BYTE	W06
	BYTE		        Dn1 
	BYTE		N05     Fs1 
	BYTE	W06
	BYTE		        Dn1 
	BYTE		N05     Fs1 
	BYTE	W06
	BYTE		        Dn1 
	BYTE		N05     Fs1 
	BYTE	W06
	BYTE		        Dn1 
	BYTE		N05     Fs1 
	BYTE	W06
	BYTE	PEND
// 024   ----------------------------------------
	BYTE	PATT
	 POIN2	Sonic2ChemicalPlantZoneSme_6_002
// 025   ----------------------------------------
	BYTE	PATT
	 POIN2	Sonic2ChemicalPlantZoneSme_6_001
// 026   ----------------------------------------
	BYTE	PATT
	 POIN2	Sonic2ChemicalPlantZoneSme_6_002
// 027   ----------------------------------------
	BYTE	PATT
	 POIN2	Sonic2ChemicalPlantZoneSme_6_003
// 028   ----------------------------------------
	BYTE	PATT
	 POIN2	Sonic2ChemicalPlantZoneSme_6_002
// 029   ----------------------------------------
	BYTE	PATT
	 POIN2	Sonic2ChemicalPlantZoneSme_6_001
// 030   ----------------------------------------
	BYTE	PATT
	 POIN2	Sonic2ChemicalPlantZoneSme_6_002
// 031   ----------------------------------------
	BYTE	PATT
	 POIN2	Sonic2ChemicalPlantZoneSme_6_003
// 032   ----------------------------------------
	BYTE	PATT
	 POIN2	Sonic2ChemicalPlantZoneSme_6_002
// 033   ----------------------------------------
	BYTE	PATT
	 POIN2	Sonic2ChemicalPlantZoneSme_6_001
// 034   ----------------------------------------
	BYTE	PATT
	 POIN2	Sonic2ChemicalPlantZoneSme_6_002
// 035   ----------------------------------------
	BYTE	PATT
	 POIN2	Sonic2ChemicalPlantZoneSme_6_023
	BYTE	GoTo
	 POIN2	Sonic2ChemicalPlantZoneSme_6_B1
Sonic2ChemicalPlantZoneSme_6_B2:
// 036   ----------------------------------------
	BYTE	FINE

//******************************************************//
	ALIGN 4

Sonic2ChemicalPlantZoneSme:
	BYTE	6	// NumTrks
	BYTE	0	// NumBlks
	BYTE	Sonic2ChemicalPlantZoneSme_pri	// Priority
	BYTE	Sonic2ChemicalPlantZoneSme_rev	// Reverb.

	POIN2	Sonic2ChemicalPlantZoneSme_grp

	POIN2	Sonic2ChemicalPlantZoneSme_1
	POIN2	Sonic2ChemicalPlantZoneSme_2
	POIN2	Sonic2ChemicalPlantZoneSme_3
	POIN2	Sonic2ChemicalPlantZoneSme_4
	POIN2	Sonic2ChemicalPlantZoneSme_5
	POIN2	Sonic2ChemicalPlantZoneSme_6

	
