//Event file generated from Sappy .s format.
	#include "MPlayDef.event"

	#define	SonicAdventure2BattleDryLagoonAReliableChair_grp  voicegroup000
	#define	SonicAdventure2BattleDryLagoonAReliableChair_pri  0
	#define	SonicAdventure2BattleDryLagoonAReliableChair_rev  0
	#define	SonicAdventure2BattleDryLagoonAReliableChair_mvl  127
	#define	SonicAdventure2BattleDryLagoonAReliableChair_key  0
	#define	SonicAdventure2BattleDryLagoonAReliableChair_tbs  1
	#define	SonicAdventure2BattleDryLagoonAReliableChair_exg  0
	#define	SonicAdventure2BattleDryLagoonAReliableChair_cmp  1

	// .rodata
	//	SonicAdventure2BattleDryLagoonAReliableChair
	ALIGN 4


//**************** Track 1 (Midi-Chn.0) ****************//

SonicAdventure2BattleDryLagoonAReliableChair_001:
// 000   ----------------------------------------
 BYTE   KEYSH   SonicAdventure2BattleDryLagoonAReliableChair_key+0
 BYTE   TEMPO   112*SonicAdventure2BattleDryLagoonAReliableChair_tbs/2
 BYTE   VOICE   11
 BYTE   PAN   c_v+0
 BYTE   VOL   62*SonicAdventure2BattleDryLagoonAReliableChair_mvl/mxv
 BYTE   W96
// 001   ----------------------------------------
 BYTE   W06
 BYTE   N18  Gs4  v076
 BYTE   W18
 BYTE   N24  En4  v084
 BYTE   W11
 BYTE   Cs4  v092
 BYTE   W07
 BYTE   Bn3  v096
 BYTE   W12
 BYTE   N23  Gs3  v100
 BYTE   W06
 BYTE   N22  Fs3  v104
 BYTE   W12
 BYTE   N21  En3
 BYTE   W05
 BYTE   N20  Ds3  v100
 BYTE   W13
 BYTE   N19  Cs3  v096
 BYTE   W06
// 002   ----------------------------------------
 BYTE   W06
 BYTE   N18  Gs2  v092
 BYTE   W90
// 003   ----------------------------------------
 BYTE   W96
// 004   ----------------------------------------
 BYTE   W24
 BYTE   W72
// 005   ----------------------------------------
 BYTE   W96
// 006   ----------------------------------------
 BYTE   W96
// 007   ----------------------------------------
 BYTE   W96
// 008   ----------------------------------------
 BYTE   W96
// 009   ----------------------------------------
 BYTE   W96
// 010   ----------------------------------------
 BYTE   W96
// 011   ----------------------------------------
 BYTE   W96
// 012   ----------------------------------------
 BYTE   W12
 BYTE   N06  Cs3  v104
 BYTE   W06
 BYTE   Ds3  v112
 BYTE   W05
 BYTE   N08  En3  v116
 BYTE   W07
 BYTE   N03  Fs3  v124
 BYTE   W12
 BYTE   Gs3  v127
 BYTE   W12
 BYTE   An3
 BYTE   W12
 BYTE   N01
 BYTE   W01
 BYTE   N15  Gs3
 BYTE   W16
 BYTE   N04  En3
 BYTE   W11
 BYTE   N02  Fs3
 BYTE   W02
// 013   ----------------------------------------
Label_0_01570E84:
 BYTE   N13  Gn3  v127
 BYTE   W17
 BYTE   N17  Fs3
 BYTE   W18
 BYTE   N18  En3
 BYTE   W20
 BYTE   N15  Cs3
 BYTE   W17
 BYTE   N11  Bn2
 BYTE   W11
 BYTE   N05  Cs3
 BYTE   W13
 BYTE   PEND 
// 014   ----------------------------------------
 BYTE   W96
// 015   ----------------------------------------
 BYTE   W96
// 016   ----------------------------------------
 BYTE   W12
 BYTE   N06  Cs3  v104
 BYTE   W06
 BYTE   Ds3  v116
 BYTE   W05
 BYTE   N08  En3  v127
 BYTE   W07
 BYTE   N03  Fs3
 BYTE   W12
 BYTE   Gs3
 BYTE   W12
 BYTE   N04  An3
 BYTE   W12
 BYTE   N01
 BYTE   W01
 BYTE   N15  Gs3
 BYTE   W16
 BYTE   N04  En3
 BYTE   W11
 BYTE   N01  Fs3
 BYTE   W02
 BYTE   PATT
  POIN2 Label_0_01570E84
// 017   ----------------------------------------
 BYTE   W96
// 018   ----------------------------------------
 BYTE   W96
// 019   ----------------------------------------
 BYTE   W96
// 020   ----------------------------------------
 BYTE   W96
// 021   ----------------------------------------
 BYTE   W96
// 022   ----------------------------------------
 BYTE   W96
// 023   ----------------------------------------
 BYTE   W12
 BYTE   N06  Cs3  v084
 BYTE   W06
 BYTE   Ds3  v096
 BYTE   W05
 BYTE   N08  En3  v108
 BYTE   W07
 BYTE   N03  Fs3  v120
 BYTE   W12
 BYTE   Gs3  v127
 BYTE   W12
 BYTE   An3
 BYTE   W12
 BYTE   N01
 BYTE   W01
 BYTE   N15  Gs3
 BYTE   W16
 BYTE   N04  En3
 BYTE   W11
 BYTE   N02  Fs3
 BYTE   W02
 BYTE   PATT
  POIN2 Label_0_01570E84
// 024   ----------------------------------------
 BYTE   W96
// 025   ----------------------------------------
 BYTE   W96
// 026   ----------------------------------------
 BYTE   N12  Gs3  v096
 BYTE   W96
// 027   ----------------------------------------
 BYTE   Fs3  v108
 BYTE   W96
// 028   ----------------------------------------
 BYTE   Gs3
 BYTE   W48
 BYTE   W08
 BYTE   N03  Cs4
 BYTE   W03
 BYTE   N06  Dn4  v116
 BYTE   W13
 BYTE   N14  Dn4  v127
 BYTE   W19
 BYTE   N06
 BYTE   W04
 BYTE   N11  Cs4  v124
 BYTE   W01
// 029   ----------------------------------------
 BYTE   W08
 BYTE   N07  Bn3
 BYTE   W03
 BYTE   N05  Gs3
 BYTE   W08
 BYTE   N03  Cs4
 BYTE   W05
 BYTE   N02  Gs3  v116
 BYTE   W02
 BYTE   N04  Bn3
 BYTE   W10
 BYTE   N07
 BYTE   W06
 BYTE   N09  Gs3
 BYTE   W12
 BYTE   N03
 BYTE   W04
 BYTE   N04  Dn3  v112
 BYTE   W02
 BYTE   N06  Cs3
 BYTE   W12
 BYTE   N09  Cs3  v096
 BYTE   W24
// 030   ----------------------------------------
 BYTE   N12  Gs3  v092
 BYTE   W96
// 031   ----------------------------------------
 BYTE   N11  Fs3  v096
 BYTE   W96
// 032   ----------------------------------------
 BYTE   Gs3
 BYTE   W24
 BYTE   W01
 BYTE   W08
 BYTE   N04  Cs4  v104
 BYTE   W02
 BYTE   N09  Dn4  v108
 BYTE   W09
 BYTE   N21  Ds4  v120
 BYTE   W02
 BYTE   N42  Gs4  v112
 BYTE   W24
 BYTE   W02
 BYTE   N18  Ds4  v124
 BYTE   W24
// 033   ----------------------------------------
 BYTE   W06
 BYTE   N04  Dn4  v116
 BYTE   W03
 BYTE   N06  Cs4
 BYTE   W14
 BYTE   N12
 BYTE   W11
 BYTE   N07  Bn3
 BYTE   W09
 BYTE   N08  Cs4
 BYTE   W16
 BYTE   N09  Bn3
 BYTE   W09
 BYTE   N10  Gs3  v100
 BYTE   W03
 BYTE   Fs3
 BYTE   W08
 BYTE   N05  Dn3  v096
 BYTE   W05
 BYTE   N07  Cs3  v092
 BYTE   W07
 BYTE   N03  Bn2
 BYTE   W05
// 034   ----------------------------------------
 BYTE   W48
 BYTE   N11  Gs3  v096
 BYTE   W48
// 035   ----------------------------------------
 BYTE   Fs3
 BYTE   W96
// 036   ----------------------------------------
 BYTE   N12  Gs3
 BYTE   W54
 BYTE   Fs3
 BYTE   W42
// 037   ----------------------------------------
 BYTE   Gs3
 BYTE   W24
 BYTE   N05  Fs3
 BYTE   W06
 BYTE   N03  Gs3  v100
 BYTE   W11
 BYTE   W01
 BYTE   N11  Fs3  v104
 BYTE   W54
// 038   ----------------------------------------
 BYTE   Gs3  v096
 BYTE   W44
 BYTE   N03  Bn3
 BYTE   W16
 BYTE   N12  Gs3
 BYTE   W36
// 039   ----------------------------------------
 BYTE   W24
 BYTE   Fs3  v092
 BYTE   W72
// 040   ----------------------------------------
 BYTE   W44
 BYTE   Gs3  v096
 BYTE   W52
// 041   ----------------------------------------
 BYTE   Fs3  v092
 BYTE   W48
 BYTE   N11  Gn3
 BYTE   W48
// 042   ----------------------------------------
 BYTE   N12  Gs3
 BYTE   W96
// 043   ----------------------------------------
 BYTE   W06
 BYTE   N11  Gs2  v088
 BYTE   N11  Dn3
 BYTE   W18
 BYTE   Gs2
 BYTE   N11  Dn3
 BYTE   W72
// 044   ----------------------------------------
 BYTE   N12  Bn2  v076
 BYTE   N12  Ds3
 BYTE   W60
 BYTE   Bn2  v064
 BYTE   N12  Ds3
 BYTE   W36
// 045   ----------------------------------------
 BYTE   W24
 BYTE   N11  Dn3  v092
 BYTE   N12  Fs3
 BYTE   W18
 BYTE   N11  Cs3  v100
 BYTE   N11  Fs3
 BYTE   N11  Cs4
 BYTE   W52
 BYTE   W01
 BYTE   N12  As3  v108
 BYTE   N12  Ds4
 BYTE   W01
// 046   ----------------------------------------
 BYTE   W72
 BYTE   Gs3  v088
 BYTE   W24
// 047   ----------------------------------------
 BYTE   N11  Fs3
 BYTE   W48
 BYTE   N12  En3
 BYTE   W48
// 048   ----------------------------------------
 BYTE   N11  Bn2
 BYTE   W96
// 049   ----------------------------------------
 BYTE   Cs4  v084
 BYTE   W36
 BYTE   Ds4
 BYTE   W12
 BYTE   FINE

//**************** Track 2 (Midi-Chn.1) ****************//

SonicAdventure2BattleDryLagoonAReliableChair_002:
// 000   ----------------------------------------
 BYTE   KEYSH   SonicAdventure2BattleDryLagoonAReliableChair_key+0
 BYTE   VOICE   4
 BYTE   PAN   c_v+33
 BYTE   VOL   62*SonicAdventure2BattleDryLagoonAReliableChair_mvl/mxv
 BYTE   W96
// 001   ----------------------------------------
 BYTE   W96
// 002   ----------------------------------------
 BYTE   W96
// 003   ----------------------------------------
 BYTE   N05  Gs3  v080
 BYTE   N05  Cs4
 BYTE   W05
 BYTE   Gs3  v100
 BYTE   N06  Cs4
 BYTE   W30
 BYTE   N05  Bn3  v104
 BYTE   N05  En4
 BYTE   W06
 BYTE   N06  Bn3
 BYTE   N06  En4
 BYTE   W12
 BYTE   N15  En3  v100
 BYTE   N15  Gs3
 BYTE   W01
 BYTE   N14  Cs4
 BYTE   W42
// 004   ----------------------------------------
 BYTE   W12
 BYTE   N02  En2  v112
 BYTE   N02  Gs2
 BYTE   N02  Bn2
 BYTE   N02  Ds3
 BYTE   W18
 BYTE   En2
 BYTE   N02  Gs2
 BYTE   N02  Bn2
 BYTE   N02  Ds3
 BYTE   W18
 BYTE   N03  En2
 BYTE   N03  Gs2
 BYTE   N02  Bn2
 BYTE   N02  Ds3
 BYTE   W18
 BYTE   N30  En2
 BYTE   N28  Gs2
 BYTE   N30  Bn2
 BYTE   N28  Ds3
 BYTE   W30
// 005   ----------------------------------------
 BYTE   W11
 BYTE   N02  En2
 BYTE   W01
 BYTE   Fs2
 BYTE   N02  Bn2
 BYTE   N02  Cs3
 BYTE   W18
 BYTE   En2
 BYTE   N02  Fs2
 BYTE   N02  Bn2
 BYTE   N02  Cs3
 BYTE   W18
 BYTE   En2
 BYTE   N02  Fs2
 BYTE   N02  Bn2
 BYTE   N02  Cs3
 BYTE   W18
 BYTE   N30  En2
 BYTE   N30  Fs2
 BYTE   N30  Bn2
 BYTE   N30  Cs3
 BYTE   W30
// 006   ----------------------------------------
 BYTE   W12
 BYTE   N02  En2
 BYTE   N02  Gs2
 BYTE   N02  Bn2
 BYTE   N02  Ds3
 BYTE   W18
 BYTE   En2
 BYTE   N02  Gs2
 BYTE   N02  Bn2
 BYTE   N02  Ds3
 BYTE   W17
 BYTE   En2
 BYTE   N02  Gs2
 BYTE   N02  Bn2
 BYTE   N02  Ds3
 BYTE   W19
 BYTE   N30  En2
 BYTE   N28  Gs2
 BYTE   N30  Bn2
 BYTE   N28  Ds3
 BYTE   W30
// 007   ----------------------------------------
 BYTE   W11
 BYTE   N02  Cs3
 BYTE   W01
 BYTE   En2
 BYTE   N02  Fs2
 BYTE   N02  An2
 BYTE   N02  Bn2
 BYTE   W18
 BYTE   En2
 BYTE   N02  Fs2
 BYTE   N03  An2
 BYTE   N02  Bn2
 BYTE   N02  Cs3
 BYTE   W18
 BYTE   N03  En2
 BYTE   N02  Fs2
 BYTE   N03  An2
 BYTE   N02  Bn2
 BYTE   N02  Cs3
 BYTE   W17
 BYTE   N30  En2
 BYTE   N30  Fs2
 BYTE   W01
 BYTE   An2
 BYTE   N30  Bn2
 BYTE   N30  Cs3
 BYTE   W30
// 008   ----------------------------------------
 BYTE   W11
 BYTE   N01  Fs3  v127
 BYTE   W01
 BYTE   N02  En2  v112
 BYTE   N02  Gs2
 BYTE   N02  Bn2
 BYTE   N02  Ds3
 BYTE   W18
 BYTE   En2
 BYTE   N02  Gs2
 BYTE   N02  Bn2
 BYTE   N02  Ds3
 BYTE   N01  Fs3  v127
 BYTE   W17
 BYTE   N02  Bn2  v112
 BYTE   N01  Fs3  v127
 BYTE   W01
 BYTE   N02  En2  v112
 BYTE   N02  Gs2
 BYTE   N03  Ds3
 BYTE   W17
 BYTE   N30
 BYTE   W01
 BYTE   En2
 BYTE   N30  Gs2
 BYTE   N30  Bn2
 BYTE   N28  Fs3  v127
 BYTE   W30
// 009   ----------------------------------------
 BYTE   W11
 BYTE   N02  Cs3  v112
 BYTE   W01
 BYTE   N03  En2
 BYTE   N02  Fs2
 BYTE   N02  Bn2
 BYTE   N01  En3  v127
 BYTE   W18
 BYTE   N02  En2  v112
 BYTE   N02  Fs2
 BYTE   N02  Bn2
 BYTE   N02  Cs3
 BYTE   N02  En3  v127
 BYTE   W17
 BYTE   En2  v112
 BYTE   N02  Fs2
 BYTE   N02  Bn2
 BYTE   N02  Cs3
 BYTE   W01
 BYTE   En3  v127
 BYTE   W18
 BYTE   N30  En2  v112
 BYTE   N28  Fs2
 BYTE   N30  Bn2
 BYTE   N28  Cs3
 BYTE   N28  En3  v127
 BYTE   W30
// 010   ----------------------------------------
 BYTE   W11
 BYTE   N02  En2  v124
 BYTE   N02  Gs2  v112
 BYTE   N02  Bn2
 BYTE   N02  Ds3
 BYTE   W18
 BYTE   Bn2
 BYTE   W01
 BYTE   En2  v124
 BYTE   N02  Gs2  v112
 BYTE   N02  Ds3
 BYTE   W17
 BYTE   En2  v124
 BYTE   N02  Bn2  v112
 BYTE   N02  Ds3
 BYTE   W01
 BYTE   Gs2
 BYTE   W18
 BYTE   N28  En2  v124
 BYTE   N28  Gs2  v112
 BYTE   N30  Bn2
 BYTE   N30  Ds3
 BYTE   W30
// 011   ----------------------------------------
 BYTE   W12
 BYTE   N02  En2
 BYTE   N02  Fs2
 BYTE   N03  An2
 BYTE   N02  Bn2
 BYTE   N02  Cs3
 BYTE   W18
 BYTE   En2
 BYTE   N02  Fs2
 BYTE   N03  An2
 BYTE   N02  Bn2
 BYTE   N02  Cs3
 BYTE   W18
 BYTE   En2
 BYTE   N02  Fs2
 BYTE   N02  An2
 BYTE   N02  Bn2
 BYTE   N02  Cs3
 BYTE   W18
 BYTE   N28  En2
 BYTE   N28  Fs2
 BYTE   N30  An2
 BYTE   N28  Bn2
 BYTE   N28  Cs3
 BYTE   W30
// 012   ----------------------------------------
 BYTE   W12
 BYTE   N02  En2
 BYTE   N03  Gs2
 BYTE   N02  Bn2
 BYTE   N02  Ds3
 BYTE   W18
 BYTE   En2
 BYTE   N02  Gs2
 BYTE   N02  Bn2
 BYTE   N02  Ds3
 BYTE   W18
 BYTE   En2
 BYTE   N02  Gs2
 BYTE   N02  Bn2
 BYTE   N02  Ds3
 BYTE   W18
 BYTE   N30  En2
 BYTE   N28  Gs2
 BYTE   N30  Bn2
 BYTE   N28  Ds3
 BYTE   W30
// 013   ----------------------------------------
 BYTE   W11
 BYTE   N02  En2
 BYTE   W01
 BYTE   N03  Fs2
 BYTE   N02  Bn2
 BYTE   N02  Cs3
 BYTE   W18
 BYTE   En2
 BYTE   N03  Fs2
 BYTE   N02  Bn2
 BYTE   N02  Cs3
 BYTE   W18
 BYTE   En2
 BYTE   N02  Fs2
 BYTE   N02  Bn2
 BYTE   N02  Cs3
 BYTE   W18
 BYTE   N30  En2
 BYTE   N30  Fs2
 BYTE   N30  Bn2
 BYTE   N30  Cs3
 BYTE   W30
// 014   ----------------------------------------
 BYTE   W12
 BYTE   N02  En2
 BYTE   N02  Gs2
 BYTE   N02  Bn2
 BYTE   N02  Ds3
 BYTE   W18
 BYTE   N03  En2
 BYTE   N02  Gs2
 BYTE   N02  Bn2
 BYTE   N02  Ds3
 BYTE   W17
 BYTE   En2
 BYTE   N02  Gs2
 BYTE   N02  Bn2
 BYTE   N02  Ds3
 BYTE   W19
 BYTE   N30  En2
 BYTE   N28  Gs2
 BYTE   N30  Bn2
 BYTE   N28  Ds3
 BYTE   W30
// 015   ----------------------------------------
 BYTE   W11
 BYTE   N02  Cs3
 BYTE   W01
 BYTE   En2
 BYTE   N02  Fs2
 BYTE   N02  An2
 BYTE   N02  Bn2
 BYTE   W18
 BYTE   En2
 BYTE   N02  Fs2
 BYTE   N03  An2
 BYTE   N02  Bn2
 BYTE   N02  Cs3
 BYTE   W18
 BYTE   N03  En2
 BYTE   N02  Fs2
 BYTE   N03  An2
 BYTE   N02  Bn2
 BYTE   N02  Cs3
 BYTE   W17
 BYTE   N30  En2
 BYTE   N30  Fs2
 BYTE   W01
 BYTE   An2
 BYTE   N30  Bn2
 BYTE   N30  Cs3
 BYTE   W18
 BYTE   N10  Fs3  v127
 BYTE   W12
// 016   ----------------------------------------
 BYTE   W12
 BYTE   N02  En2  v112
 BYTE   N02  Gs2
 BYTE   N02  Bn2
 BYTE   N02  Ds3
 BYTE   W18
 BYTE   En2
 BYTE   N02  Gs2
 BYTE   N02  Bn2
 BYTE   N02  Ds3
 BYTE   W17
 BYTE   Bn2
 BYTE   W01
 BYTE   En2
 BYTE   N02  Gs2
 BYTE   N03  Ds3
 BYTE   W17
 BYTE   N30
 BYTE   W01
 BYTE   En2
 BYTE   N30  Gs2
 BYTE   N30  Bn2
 BYTE   W30
// 017   ----------------------------------------
 BYTE   W11
 BYTE   N02  Cs3
 BYTE   W01
 BYTE   En2
 BYTE   N02  Fs2
 BYTE   N02  Bn2
 BYTE   W18
 BYTE   N03  En2
 BYTE   N02  Fs2
 BYTE   N02  Bn2
 BYTE   N02  Cs3
 BYTE   W17
 BYTE   En2
 BYTE   N02  Fs2
 BYTE   N02  Bn2
 BYTE   N02  Cs3
 BYTE   W19
 BYTE   N30  En2
 BYTE   N28  Fs2
 BYTE   N30  Bn2
 BYTE   N28  Cs3
 BYTE   W30
// 018   ----------------------------------------
 BYTE   W11
 BYTE   N02  En2
 BYTE   N02  Gs2
 BYTE   N02  Bn2
 BYTE   N02  Ds3
 BYTE   W02
 BYTE   N03  Fs3  v120
 BYTE   W16
 BYTE   N02  Bn2  v112
 BYTE   W01
 BYTE   En2
 BYTE   N02  Gs2
 BYTE   N02  Ds3
 BYTE   N03  Fs3  v124
 BYTE   W17
 BYTE   N02  En2  v112
 BYTE   N02  Bn2
 BYTE   N02  Ds3
 BYTE   W01
 BYTE   Gs2
 BYTE   N02  Fs3  v124
 BYTE   W18
 BYTE   N28  En2  v112
 BYTE   N28  Gs2
 BYTE   N30  Bn2
 BYTE   N30  Ds3
 BYTE   N30  Fs3  v124
 BYTE   W30
// 019   ----------------------------------------
 BYTE   W12
 BYTE   N02  En2  v112
 BYTE   N02  Fs2
 BYTE   N02  An2
 BYTE   N02  Bn2
 BYTE   N02  Cs3
 BYTE   N02  En3  v120
 BYTE   W17
 BYTE   N02
 BYTE   W01
 BYTE   En2  v112
 BYTE   N02  Fs2
 BYTE   N03  An2
 BYTE   N02  Bn2
 BYTE   N02  Cs3
 BYTE   W18
 BYTE   En2
 BYTE   N02  Fs2
 BYTE   N03  An2
 BYTE   N02  Bn2
 BYTE   N02  Cs3
 BYTE   N02  En3  v124
 BYTE   W18
 BYTE   N28  En2  v112
 BYTE   N28  Fs2
 BYTE   N30  An2
 BYTE   N28  Bn2
 BYTE   N28  Cs3
 BYTE   N24  En3  v127
 BYTE   W30
// 020   ----------------------------------------
 BYTE   W12
 BYTE   N02  En2  v112
 BYTE   N03  Gs2
 BYTE   N02  Bn2
 BYTE   N02  Ds3
 BYTE   W18
 BYTE   En2
 BYTE   N02  Gs2
 BYTE   N02  Bn2
 BYTE   N02  Ds3
 BYTE   W18
 BYTE   N03  En2
 BYTE   N03  Gs2
 BYTE   N02  Bn2
 BYTE   N02  Ds3
 BYTE   W18
 BYTE   N30  En2
 BYTE   N28  Gs2
 BYTE   N30  Bn2
 BYTE   N28  Ds3
 BYTE   W30
// 021   ----------------------------------------
 BYTE   W11
 BYTE   N02  En2
 BYTE   W01
 BYTE   N03  Fs2
 BYTE   N02  Bn2
 BYTE   N02  Cs3
 BYTE   W18
 BYTE   En2
 BYTE   N02  Fs2
 BYTE   N02  Bn2
 BYTE   N02  Cs3
 BYTE   W18
 BYTE   En2
 BYTE   N02  Fs2
 BYTE   N02  Bn2
 BYTE   N02  Cs3
 BYTE   W18
 BYTE   N30  En2
 BYTE   N30  Fs2
 BYTE   N30  Bn2
 BYTE   N30  Cs3
 BYTE   W30
// 022   ----------------------------------------
 BYTE   W12
 BYTE   N02  En2
 BYTE   N02  Gs2
 BYTE   N02  Bn2
 BYTE   N02  Ds3
 BYTE   N02  Fs3  v108
 BYTE   W18
 BYTE   En2  v112
 BYTE   N02  Gs2
 BYTE   N02  Bn2
 BYTE   N02  Ds3
 BYTE   W01
 BYTE   Fs3
 BYTE   W16
 BYTE   En2
 BYTE   N02  Gs2
 BYTE   N02  Bn2
 BYTE   N02  Ds3
 BYTE   W01
 BYTE   Fs3  v116
 BYTE   W18
 BYTE   N30  En2  v112
 BYTE   N28  Gs2
 BYTE   N30  Bn2
 BYTE   N28  Ds3
 BYTE   N28  Fs3  v108
 BYTE   W30
// 023   ----------------------------------------
 BYTE   W11
 BYTE   N02  Cs3  v112
 BYTE   W01
 BYTE   N03  En2
 BYTE   N02  Fs2
 BYTE   N03  An2
 BYTE   N02  Bn2
 BYTE   N02  Gs3  v124
 BYTE   W18
 BYTE   En2  v112
 BYTE   N02  Fs2
 BYTE   N03  An2
 BYTE   N02  Bn2
 BYTE   N02  Cs3
 BYTE   N02  Gs3
 BYTE   W18
 BYTE   En2
 BYTE   N02  Fs2
 BYTE   N02  An2
 BYTE   N02  Bn2
 BYTE   N02  Cs3
 BYTE   N03  Gs3  v120
 BYTE   W17
 BYTE   N30  En2  v112
 BYTE   N30  Fs2
 BYTE   W01
 BYTE   An2
 BYTE   N30  Bn2
 BYTE   N30  Cs3
 BYTE   W01
 BYTE   N28  Gs3
 BYTE   W28
 BYTE   W01
// 024   ----------------------------------------
 BYTE   W10
 BYTE   N02  Fs3  v096
 BYTE   W02
 BYTE   En2  v112
 BYTE   N02  Gs2
 BYTE   N02  Bn2
 BYTE   N02  Ds3
 BYTE   W18
 BYTE   En2
 BYTE   N02  Gs2
 BYTE   N02  Bn2
 BYTE   N02  Ds3
 BYTE   N02  Fs3  v100
 BYTE   W17
 BYTE   Bn2  v112
 BYTE   W01
 BYTE   En2
 BYTE   N02  Gs2
 BYTE   N02  Ds3
 BYTE   N03  Fs3  v104
 BYTE   W17
 BYTE   N30  Ds3  v112
 BYTE   W01
 BYTE   En2
 BYTE   N30  Gs2
 BYTE   N30  Bn2
 BYTE   N30  Fs3  v108
 BYTE   W30
// 025   ----------------------------------------
 BYTE   W11
 BYTE   N02  Cs3  v112
 BYTE   W01
 BYTE   N03  En2
 BYTE   N02  Fs2
 BYTE   N02  Bn2
 BYTE   N01  En3  v104
 BYTE   W17
 BYTE   N02  En3  v120
 BYTE   W01
 BYTE   N03  En2  v112
 BYTE   N02  Fs2
 BYTE   N02  Bn2
 BYTE   N02  Cs3
 BYTE   W17
 BYTE   En2
 BYTE   N02  Fs2
 BYTE   N02  Bn2
 BYTE   N02  Cs3
 BYTE   W01
 BYTE   En3  v120
 BYTE   W18
 BYTE   N30  En2  v112
 BYTE   N28  Fs2
 BYTE   N30  Bn2
 BYTE   N28  Cs3
 BYTE   N30  En3  v124
 BYTE   W30
// 026   ----------------------------------------
 BYTE   W11
 BYTE   N02  En2  v112
 BYTE   N02  Gs2
 BYTE   N02  Bn2
 BYTE   N01  Ds3
 BYTE   W01
 BYTE   N02  Ds3  v127
 BYTE   W17
 BYTE   Bn2  v112
 BYTE   N01  Ds3  v124
 BYTE   W01
 BYTE   N02  En2  v112
 BYTE   N02  Gs2
 BYTE   N02  Ds3
 BYTE   W17
 BYTE   En2
 BYTE   N02  Bn2
 BYTE   N01  Ds3
 BYTE   W01
 BYTE   N02  Gs2
 BYTE   N01  Ds3  v124
 BYTE   W18
 BYTE   N28  En2  v112
 BYTE   N28  Gs2
 BYTE   N30  Bn2
 BYTE   N30  Ds3
 BYTE   W30
// 027   ----------------------------------------
 BYTE   W11
 BYTE   N02  En3  v120
 BYTE   W01
 BYTE   En2  v112
 BYTE   N02  Fs2
 BYTE   N02  An2
 BYTE   N02  Bn2
 BYTE   N02  Cs3
 BYTE   W18
 BYTE   En2
 BYTE   N02  Fs2
 BYTE   N03  An2
 BYTE   N02  Bn2
 BYTE   N02  Cs3
 BYTE   N02  En3  v124
 BYTE   W18
 BYTE   En2  v112
 BYTE   N02  Fs2
 BYTE   N02  An2
 BYTE   N02  Bn2
 BYTE   N02  Cs3
 BYTE   N03  En3  v120
 BYTE   W18
 BYTE   N28  En2  v112
 BYTE   N28  Fs2
 BYTE   N30  An2
 BYTE   N28  Bn2
 BYTE   N28  Cs3
 BYTE   N24  En3  v116
 BYTE   W30
// 028   ----------------------------------------
 BYTE   N60  Gs2  v096
 BYTE   N64  Bn2
 BYTE   N60  Ds3
 BYTE   N14  Fs3  v127
 BYTE   N13  Gs3  v124
 BYTE   W72
 BYTE   N12  Ds3  v084
 BYTE   N13  Fs3
 BYTE   N13  Gs3
 BYTE   N13  Bn3
 BYTE   W24
// 029   ----------------------------------------
 BYTE   W04
 BYTE   N04  Dn3  v092
 BYTE   W20
 BYTE   N07  Dn3  v104
 BYTE   W18
 BYTE   N54  Cs3  v088
 BYTE   W54
// 030   ----------------------------------------
 BYTE   W07
 BYTE   N02  Ds3  v116
 BYTE   W01
 BYTE   N01  Fs2  v036
 BYTE   N01  Bn2
 BYTE   W16
 BYTE   N08  Fs3  v096
 BYTE   N08  Cs4
 BYTE   W24
 BYTE   N15  Ds3  v092
 BYTE   N16  As3  v120
 BYTE   W17
 BYTE   N04  Ds3  v096
 BYTE   N02  Gs3  v124
 BYTE   W30
 BYTE   W01
// 031   ----------------------------------------
 BYTE   W06
 BYTE   N01  Gs2  v116
 BYTE   N01  Dn3  v104
 BYTE   W18
 BYTE   N10  Gs3  v127
 BYTE   W19
 BYTE   N01  Gs2  v036
 BYTE   N01  Dn3
 BYTE   W12
 BYTE   Gn2
 BYTE   N01  Cs3
 BYTE   W13
 BYTE   Gn2
 BYTE   N01  Cs3
 BYTE   W11
 BYTE   N03  An2  v100
 BYTE   N03  Cs3  v088
 BYTE   W16
 BYTE   N30  Gs2  v076
 BYTE   N30  Bn2  v080
 BYTE   N30  Ds3  v084
 BYTE   W01
// 032   ----------------------------------------
 BYTE   W30
 BYTE   W01
 BYTE   N03  Fs3  v104
 BYTE   W16
 BYTE   N36  Ds3  v108
 BYTE   W01
 BYTE   N32  Fs3  v096
 BYTE   N36  As3  v104
 BYTE   W48
// 033   ----------------------------------------
 BYTE   W06
 BYTE   N02  Dn3
 BYTE   N03  Fs3  v116
 BYTE   W18
 BYTE   N12  Ds3  v108
 BYTE   W18
 BYTE   N20  Cs3  v120
 BYTE   W23
 BYTE   N04  Cs3  v096
 BYTE   N03  Gn3  v116
 BYTE   W15
 BYTE   N01  Gn2  v036
 BYTE   N01  Cs3
 BYTE   W12
 BYTE   Gn2
 BYTE   N01  Cs3
 BYTE   W04
// 034   ----------------------------------------
 BYTE   W07
 BYTE   Fs2
 BYTE   N01  Bn2
 BYTE   N02  Ds3  v108
 BYTE   W12
 BYTE   N01  Fs2  v036
 BYTE   N01  Bn2
 BYTE   W04
 BYTE   N02  Fs3  v108
 BYTE   W01
 BYTE   Cs4  v096
 BYTE   W23
 BYTE   N14  Ds3  v088
 BYTE   N14  As3
 BYTE   W19
 BYTE   N03  Ds3  v100
 BYTE   N02  Gs3  v096
 BYTE   W23
 BYTE   N30  Gs2  v088
 BYTE   N32  Dn3  v100
 BYTE   W07
// 035   ----------------------------------------
 BYTE   W30
 BYTE   W01
 BYTE   N01  Gs2  v112
 BYTE   N01  Dn3
 BYTE   W13
 BYTE   Gs2  v036
 BYTE   N01  Dn3
 BYTE   W11
 BYTE   Gs2  v112
 BYTE   N01  Cs3
 BYTE   W13
 BYTE   Gn2  v036
 BYTE   N01  Cs3
 BYTE   W11
 BYTE   Gs2  v112
 BYTE   N01  Cs3
 BYTE   W17
// 036   ----------------------------------------
 BYTE   N12  Fs3  v104
 BYTE   N12  Cs4
 BYTE   W24
 BYTE   Ds3  v108
 BYTE   N14  As3  v084
 BYTE   W24
 BYTE   N12  Cs3  v108
 BYTE   N12  Gs3  v104
 BYTE   W18
 BYTE   N11  Bn2  v100
 BYTE   N09  Ds3  v076
 BYTE   W30
// 037   ----------------------------------------
 BYTE   W07
 BYTE   N01  Gs2  v096
 BYTE   N01  Dn3
 BYTE   W12
 BYTE   Gs2  v036
 BYTE   N01  Dn3
 BYTE   W12
 BYTE   Gs2  v096
 BYTE   N01  Dn3
 BYTE   W13
 BYTE   Gs2  v036
 BYTE   N01  Dn3
 BYTE   W11
 BYTE   Gs2  v096
 BYTE   N01  Cs3
 BYTE   W13
 BYTE   Gn2  v036
 BYTE   N01  Cs3
 BYTE   W11
 BYTE   Gn2
 BYTE   N01  Cs3
 BYTE   W12
 BYTE   Gn2
 BYTE   N01  Cs3
 BYTE   W05
// 038   ----------------------------------------
 BYTE   W07
 BYTE   Fs2
 BYTE   N01  Bn2
 BYTE   W12
 BYTE   Ds3  v100
 BYTE   N01  Gs3
 BYTE   W24
 BYTE   Ds3  v108
 BYTE   N01  As3
 BYTE   W24
 BYTE   N14  Fs3  v116
 BYTE   N13  Cs4
 BYTE   W28
 BYTE   W01
// 039   ----------------------------------------
 BYTE   W19
 BYTE   N01  Gs3  v112
 BYTE   N01  Dn4
 BYTE   W13
 BYTE   N12  Gs3
 BYTE   N12  Dn4
 BYTE   W32
 BYTE   W03
 BYTE   N04  Fs3  v120
 BYTE   W01
 BYTE   N03  Cs4
 BYTE   W28
// 040   ----------------------------------------
 BYTE   W08
 BYTE   N01  Fs2  v036
 BYTE   N01  Bn2
 BYTE   W16
 BYTE   N02  Ds3  v100
 BYTE   N02  Gs3
 BYTE   W08
 BYTE   N01  Fs2  v036
 BYTE   N01  Bn2
 BYTE   W12
 BYTE   Fs2
 BYTE   N01  Bn2
 BYTE   W12
 BYTE   N03  Bn3  v108
 BYTE   N03  Ds4
 BYTE   W11
 BYTE   N01  Fs2  v036
 BYTE   N01  Bn2
 BYTE   W12
 BYTE   Fs2
 BYTE   N01  Bn2
 BYTE   W13
 BYTE   Fs2
 BYTE   N01  Bn2
 BYTE   W04
// 041   ----------------------------------------
 BYTE   W08
 BYTE   Gs2
 BYTE   N01  Dn3
 BYTE   W12
 BYTE   Gs2
 BYTE   N01  Dn3
 BYTE   W10
 BYTE   N03  Gs2  v076
 BYTE   N03  Dn3  v092
 BYTE   W13
 BYTE   N01  Gs2  v036
 BYTE   N01  Dn3
 BYTE   W11
 BYTE   N36  Gs2  v088
 BYTE   N36  Cs3  v092
 BYTE   W42
// 042   ----------------------------------------
 BYTE   W07
 BYTE   N01  Ds3  v120
 BYTE   N02  Gs3  v088
 BYTE   W24
 BYTE   W01
 BYTE   N01  Fs2  v036
 BYTE   N01  Bn2
 BYTE   W11
 BYTE   N13  Bn2  v104
 BYTE   N13  Ds3
 BYTE   N12  As3  v088
 BYTE   W24
 BYTE   N02  Bn2  v104
 BYTE   N02  Ds3
 BYTE   N02  Gs3
 BYTE   W28
 BYTE   W01
// 043   ----------------------------------------
 BYTE   W08
 BYTE   N01  Gs2  v036
 BYTE   N01  Dn3
 BYTE   W16
 BYTE   N02  Gs3  v088
 BYTE   W19
 BYTE   Gs3  v104
 BYTE   W12
 BYTE   N01  Gn2  v036
 BYTE   N01  Cs3
 BYTE   W12
 BYTE   N16  Cs4  v104
 BYTE   W28
 BYTE   W01
// 044   ----------------------------------------
 BYTE   W11
 BYTE   N03  Fs2  v096
 BYTE   N03  Ds3
 BYTE   W20
 BYTE   Fs2
 BYTE   N04  Ds3
 BYTE   W12
 BYTE   N13  As2
 BYTE   N12  Dn3
 BYTE   W12
 BYTE   N03  Fs2
 BYTE   N03  Ds3
 BYTE   W17
 BYTE   Fs2
 BYTE   N03  Ds3
 BYTE   W21
 BYTE   N01  Ds2  v088
 BYTE   W03
// 045   ----------------------------------------
 BYTE   N48  En2  v076
 BYTE   N48  Dn3  v096
 BYTE   W48
 BYTE   N36  Ds2  v076
 BYTE   N36  Cs3  v096
 BYTE   W36
 BYTE   N05  Bn2  v092
 BYTE   W07
 BYTE   N03  Gs2
 BYTE   W05
// 046   ----------------------------------------
 BYTE   W11
 BYTE   N04  Fs2  v096
 BYTE   N04  Ds3
 BYTE   W20
 BYTE   N03  Fs2
 BYTE   W01
 BYTE   Ds3
 BYTE   W11
 BYTE   N11  As2  v100
 BYTE   N12  Dn3
 BYTE   W12
 BYTE   N04  Fs2
 BYTE   W01
 BYTE   N03  Ds3
 BYTE   W16
 BYTE   N04  Fs2
 BYTE   N03  Ds3
 BYTE   W23
 BYTE   N07  Gs3  v127
 BYTE   W01
// 047   ----------------------------------------
 BYTE   W07
 BYTE   N02  Bn3
 BYTE   W04
 BYTE   N12
 BYTE   W13
 BYTE   N05  Gs3
 BYTE   W08
 BYTE   N02  Bn3
 BYTE   W04
 BYTE   N10
 BYTE   W24
 BYTE   N11  Fs3
 BYTE   W23
 BYTE   N08  Fs3  v120
 BYTE   W08
 BYTE   N05  Ds3  v088
 BYTE   W05
// 048   ----------------------------------------
 BYTE   W12
 BYTE   N04  Fs2  v096
 BYTE   N03  Ds3
 BYTE   W19
 BYTE   Fs2
 BYTE   W01
 BYTE   N02  Ds3
 BYTE   W11
 BYTE   N12  As2  v100
 BYTE   W01
 BYTE   N11  Dn3
 BYTE   W11
 BYTE   N04  Fs2
 BYTE   N03  Ds3
 BYTE   W17
 BYTE   N04  Fs2
 BYTE   N03  Ds3
 BYTE   W23
 BYTE   N44  En2  v076
 BYTE   W01
// 049   ----------------------------------------
 BYTE   N40  Gs2
 BYTE   N42  Dn3
 BYTE   W12
 BYTE   N12  Fs3
 BYTE   W24
 BYTE   N12
 BYTE   W11
 BYTE   N36  Ds2
 BYTE   N24  Gn2
 BYTE   W01
 BYTE   N30  Cs3
 BYTE   N28  En3
 BYTE   W32
 BYTE   W03
 BYTE   N06  Cs3  v116
 BYTE   W07
 BYTE   N05  Bn2  v076
 BYTE   W06
// 050   ----------------------------------------
 BYTE   W11
 BYTE   N03  Fs2  v096
 BYTE   W01
 BYTE   Ds3
 BYTE   W19
 BYTE   N04  Fs2
 BYTE   N03  Ds3
 BYTE   W12
 BYTE   N11  As2
 BYTE   N10  Dn3
 BYTE   W13
 BYTE   N04  Fs2
 BYTE   N03  Ds3
 BYTE   W15
 BYTE   N04  Fs2
 BYTE   N02  Ds3
 BYTE   W24
 BYTE   N16  An2  v104
 BYTE   W01
// 051   ----------------------------------------
 BYTE   En2
 BYTE   W19
 BYTE   N11
 BYTE   N09  An2
 BYTE   W16
 BYTE   N48  Fs2
 BYTE   N54  Bn2
 BYTE   W54
 BYTE   W01
 BYTE   FINE

//**************** Track 3 (Midi-Chn.2) ****************//

SonicAdventure2BattleDryLagoonAReliableChair_003:
// 000   ----------------------------------------
 BYTE   KEYSH   SonicAdventure2BattleDryLagoonAReliableChair_key+0
 BYTE   VOICE   56
 BYTE   PAN   c_v-10
 BYTE   VOL   62*SonicAdventure2BattleDryLagoonAReliableChair_mvl/mxv
 BYTE   W96
// 001   ----------------------------------------
 BYTE   W96
// 002   ----------------------------------------
 BYTE   W96
// 003   ----------------------------------------
 BYTE   W96
// 004   ----------------------------------------
Label_2_015716F4:
 BYTE   W84
 BYTE   N04  Bn3  v116
 BYTE   W07
 BYTE   Gs3
 BYTE   W04
 BYTE   Bn3
 BYTE   W01
 BYTE   PEND 
// 005   ----------------------------------------
 BYTE   W12
 BYTE   N04
 BYTE   W05
 BYTE   Cs4
 BYTE   W13
 BYTE   N04
 BYTE   W06
 BYTE   Bn3
 BYTE   W07
 BYTE   Gs3
 BYTE   W05
 BYTE   Bn3
 BYTE   W12
 BYTE   N04
 BYTE   W06
 BYTE   Cs4
 BYTE   W30
// 006   ----------------------------------------
 BYTE   W96
// 007   ----------------------------------------
 BYTE   W96
 BYTE   PATT
  POIN2 Label_2_015716F4
// 008   ----------------------------------------
 BYTE   W12
 BYTE   N04  Bn3  v116
 BYTE   W06
 BYTE   Cs4
 BYTE   W12
 BYTE   N04
 BYTE   W06
 BYTE   Bn3
 BYTE   W07
 BYTE   Gs3
 BYTE   W04
 BYTE   Bn3
 BYTE   W12
 BYTE   N04
 BYTE   W06
 BYTE   Cs4
 BYTE   W30
 BYTE   W01
// 009   ----------------------------------------
 BYTE   W96
// 010   ----------------------------------------
 BYTE   W96
// 011   ----------------------------------------
 BYTE   W96
// 012   ----------------------------------------
 BYTE   W96
// 013   ----------------------------------------
 BYTE   Cs3
 BYTE   W23
 BYTE   Cs4
 BYTE   W24
 BYTE   Bn3
 BYTE   W19
 BYTE   Cs4
 BYTE   W30
// 014   ----------------------------------------
 BYTE   Cs3
 BYTE   W23
 BYTE   Cs4
 BYTE   W24
 BYTE   Bn3
 BYTE   W12
 BYTE   N04
 BYTE   W07
 BYTE   Cs4
 BYTE   W30
// 015   ----------------------------------------
 BYTE   W96
// 016   ----------------------------------------
 BYTE   W96
// 017   ----------------------------------------
 BYTE   Cs3
 BYTE   W23
 BYTE   Cs4
 BYTE   W24
 BYTE   Bn3
 BYTE   W19
 BYTE   Cs4
 BYTE   W28
 BYTE   W01
 BYTE   Cs3
 BYTE   W01
// 018   ----------------------------------------
 BYTE   W23
 BYTE   Cs4
 BYTE   W24
 BYTE   Bn3
 BYTE   W12
 BYTE   N04
 BYTE   W07
 BYTE   Cs4
 BYTE   W30
// 019   ----------------------------------------
 BYTE   W96
// 020   ----------------------------------------
 BYTE   W96
// 021   ----------------------------------------
 BYTE   W96
// 022   ----------------------------------------
 BYTE   W96
// 023   ----------------------------------------
 BYTE   W96
// 024   ----------------------------------------
 BYTE   W92
 BYTE   W03
 BYTE   Cs3
 BYTE   W01
// 025   ----------------------------------------
 BYTE   W23
 BYTE   Cs4
 BYTE   W24
 BYTE   Bn3
 BYTE   W19
 BYTE   Cs4
 BYTE   W18
 BYTE   Bn3
 BYTE   W06
 BYTE   Gs3
 BYTE   W06
// 026   ----------------------------------------
 BYTE   W12
 BYTE   Cs4
 BYTE   W18
 BYTE   N04
 BYTE   W30
 BYTE   N12  Ds4
 BYTE   W11
 BYTE   En4
 BYTE   W12
 BYTE   N11  Fs4
 BYTE   W13
// 027   ----------------------------------------
Label_2_01571777:
 BYTE   W24
 BYTE   N24  Gs3  v116
 BYTE   W24
 BYTE   N22  As3
 BYTE   W23
 BYTE   Bn3
 BYTE   W24
 BYTE   N18  Fs3
 BYTE   W01
 BYTE   PEND 
// 028   ----------------------------------------
 BYTE   W18
 BYTE   N03  Gs3
 BYTE   W18
 BYTE   N54  Ds3
 BYTE   W03
 BYTE   W01
 BYTE   W01
 BYTE   W01
 BYTE   W01
 BYTE   W01
 BYTE   W01
 BYTE   W01
 BYTE   W01
 BYTE   W01
 BYTE   W01
 BYTE   W01
 BYTE   W01
 BYTE   W01
 BYTE   W01
 BYTE   W01
 BYTE   W01
 BYTE   W01
 BYTE   W01
 BYTE   W01
 BYTE   W01
 BYTE   W01
 BYTE   W01
 BYTE   W01
 BYTE   W01
 BYTE   W01
 BYTE   W01
 BYTE   W01
 BYTE   W01
 BYTE   W01
 BYTE   W01
 BYTE   W01
 BYTE   W01
 BYTE   W01
 BYTE   W01
 BYTE   W01
 BYTE   W01
 BYTE   W01
 BYTE   W20
// 029   ----------------------------------------
Label_2_015717B2:
 BYTE   W24
 BYTE   N06  Fs2  v116
 BYTE   W06
 BYTE   N05  As2
 BYTE   W05
 BYTE   N06  Bn2
 BYTE   W07
 BYTE   N16  Ds3
 BYTE   W17
 BYTE   N04  Bn2
 BYTE   W36
 BYTE   W01
 BYTE   PEND 
// 030   ----------------------------------------
 BYTE   W96
 BYTE   PATT
  POIN2 Label_2_01571777
// 031   ----------------------------------------
 BYTE   W18
 BYTE   N03  Gs3  v116
 BYTE   W18
 BYTE   N54  Ds3
 BYTE   W03
 BYTE   W01
 BYTE   W01
 BYTE   W01
 BYTE   W01
 BYTE   W01
 BYTE   W01
 BYTE   W01
 BYTE   W01
 BYTE   W01
 BYTE   W01
 BYTE   W01
 BYTE   W01
 BYTE   W01
 BYTE   W01
 BYTE   W01
 BYTE   W01
 BYTE   W01
 BYTE   W01
 BYTE   W01
 BYTE   W01
 BYTE   W01
 BYTE   W01
 BYTE   W01
 BYTE   W01
 BYTE   W01
 BYTE   W01
 BYTE   W01
 BYTE   W01
 BYTE   W01
 BYTE   W01
 BYTE   W01
 BYTE   W01
 BYTE   W01
 BYTE   W01
 BYTE   W01
 BYTE   W01
 BYTE   W01
 BYTE   W20
 BYTE   PATT
  POIN2 Label_2_015717B2
// 032   ----------------------------------------
 BYTE   W96
 BYTE   PATT
  POIN2 Label_2_01571777
// 033   ----------------------------------------
 BYTE   W18
 BYTE   N03  Gs3  v116
 BYTE   W18
 BYTE   N54  Ds3
 BYTE   W02
 BYTE   W01
 BYTE   W01
 BYTE   W01
 BYTE   W01
 BYTE   W01
 BYTE   W01
 BYTE   W01
 BYTE   W01
 BYTE   W01
 BYTE   W01
 BYTE   W01
 BYTE   W01
 BYTE   W01
 BYTE   W01
 BYTE   W01
 BYTE   W01
 BYTE   W01
 BYTE   W01
 BYTE   W01
 BYTE   W01
 BYTE   W01
 BYTE   W01
 BYTE   W01
 BYTE   W01
 BYTE   W01
 BYTE   W01
 BYTE   W01
 BYTE   W01
 BYTE   W01
 BYTE   W01
 BYTE   W01
 BYTE   W01
 BYTE   W01
 BYTE   W01
 BYTE   W01
 BYTE   W01
 BYTE   W01
 BYTE   W01
 BYTE   W20
 BYTE   PATT
  POIN2 Label_2_015717B2
// 034   ----------------------------------------
 BYTE   W96
 BYTE   PATT
  POIN2 Label_2_01571777
// 035   ----------------------------------------
 BYTE   W18
 BYTE   N03  Gs3  v116
 BYTE   W18
 BYTE   N54  Ds3
 BYTE   W02
 BYTE   W01
 BYTE   W01
 BYTE   W01
 BYTE   W01
 BYTE   W01
 BYTE   W01
 BYTE   W01
 BYTE   W01
 BYTE   W01
 BYTE   W01
 BYTE   W01
 BYTE   W01
 BYTE   W01
 BYTE   W01
 BYTE   W01
 BYTE   W01
 BYTE   W01
 BYTE   W01
 BYTE   W01
 BYTE   W01
 BYTE   W01
 BYTE   W01
 BYTE   W01
 BYTE   W01
 BYTE   W01
 BYTE   W01
 BYTE   W01
 BYTE   W01
 BYTE   W01
 BYTE   W01
 BYTE   W01
 BYTE   W01
 BYTE   W01
 BYTE   W01
 BYTE   W01
 BYTE   W01
 BYTE   W01
 BYTE   W01
 BYTE   W20
// 036   ----------------------------------------
 BYTE   W24
 BYTE   N06  Fs2
 BYTE   W06
 BYTE   N05  As2
 BYTE   W05
 BYTE   N06  Bn2
 BYTE   W07
 BYTE   N16  Ds3
 BYTE   W17
 BYTE   N04  Bn2
 BYTE   W05
 BYTE   FINE

//**************** Track 4 (Midi-Chn.3) ****************//

SonicAdventure2BattleDryLagoonAReliableChair_004:
// 000   ----------------------------------------
 BYTE   KEYSH   SonicAdventure2BattleDryLagoonAReliableChair_key+0
 BYTE   VOICE   73
 BYTE   PAN   c_v+0
 BYTE   VOL   56*SonicAdventure2BattleDryLagoonAReliableChair_mvl/mxv
 BYTE   W96
// 001   ----------------------------------------
 BYTE   W96
// 002   ----------------------------------------
 BYTE   W96
// 003   ----------------------------------------
 BYTE   W96
// 004   ----------------------------------------
 BYTE   W96
// 005   ----------------------------------------
 BYTE   W96
// 006   ----------------------------------------
 BYTE   W84
 BYTE   N05  Bn4  v116
 BYTE   W08
 BYTE   N03  Gs4
 BYTE   W04
// 007   ----------------------------------------
 BYTE   N04  Bn4
 BYTE   W12
 BYTE   N07
 BYTE   W07
 BYTE   N04  Cs5
 BYTE   W12
 BYTE   N05
 BYTE   W04
 BYTE   N07  Bn4
 BYTE   W08
 BYTE   N03  Gs4
 BYTE   W05
 BYTE   N06  Bn4
 BYTE   W12
 BYTE   N05  Gs4
 BYTE   W06
 BYTE   N04  Fs4
 BYTE   W12
 BYTE   N03  En4
 BYTE   W11
 BYTE   N02  Ds4
 BYTE   W07
// 008   ----------------------------------------
 BYTE   W96
// 009   ----------------------------------------
 BYTE   W96
// 010   ----------------------------------------
 BYTE   W72
 BYTE   N04  Bn3  v080
 BYTE   W02
 BYTE   Cs4  v088
 BYTE   W03
 BYTE   Ds4  v092
 BYTE   W04
 BYTE   N05  En4  v100
 BYTE   W04
 BYTE   N04  Fs4  v108
 BYTE   W04
 BYTE   Gs4  v112
 BYTE   W03
 BYTE   An4  v120
 BYTE   W03
 BYTE   N32  Bn4  v127
 BYTE   W01
// 011   ----------------------------------------
 BYTE   W36
 BYTE   Gs4
 BYTE   W32
 BYTE   W03
 BYTE   N12  Ds5
 BYTE   W12
 BYTE   N04  En5
 BYTE   W13
// 012   ----------------------------------------
Label_3_015718DE:
 BYTE   W12
 BYTE   N06  Cs4  v116
 BYTE   W06
 BYTE   Ds4
 BYTE   W05
 BYTE   En4
 BYTE   W07
 BYTE   N05  Fs4
 BYTE   W12
 BYTE   Gs4
 BYTE   W12
 BYTE   An4
 BYTE   W12
 BYTE   N01
 BYTE   W01
 BYTE   N17  Gs4
 BYTE   W16
 BYTE   N06  En4
 BYTE   W11
 BYTE   N02  Fs4
 BYTE   W02
 BYTE   PEND 
// 013   ----------------------------------------
 BYTE   N17  Gn4
 BYTE   W17
 BYTE   Fs4
 BYTE   W18
 BYTE   N18  En4
 BYTE   W19
 BYTE   N05  Cs4
 BYTE   W18
 BYTE   N11  Bn3
 BYTE   W11
 BYTE   N06  Cs4
 BYTE   W13
// 014   ----------------------------------------
 BYTE   W96
// 015   ----------------------------------------
 BYTE   W96
 BYTE   PATT
  POIN2 Label_3_015718DE
// 016   ----------------------------------------
 BYTE   N18  Gn4  v116
 BYTE   W17
 BYTE   N17  Fs4
 BYTE   W18
 BYTE   N18  En4
 BYTE   W19
 BYTE   N05  Cs4
 BYTE   W18
 BYTE   N11  Bn3
 BYTE   W11
 BYTE   N06  Cs4
 BYTE   W13
// 017   ----------------------------------------
 BYTE   W96
// 018   ----------------------------------------
 BYTE   W96
// 019   ----------------------------------------
 BYTE   W96
// 020   ----------------------------------------
 BYTE   W96
// 021   ----------------------------------------
 BYTE   W96
// 022   ----------------------------------------
 BYTE   W96
// 023   ----------------------------------------
 BYTE   W12
 BYTE   N06
 BYTE   W06
 BYTE   Ds4
 BYTE   W06
 BYTE   En4
 BYTE   W06
 BYTE   N05  Fs4
 BYTE   W12
 BYTE   Gs4
 BYTE   W12
 BYTE   An4
 BYTE   W12
 BYTE   N01
 BYTE   W01
 BYTE   N17  Gs4
 BYTE   W17
 BYTE   N06  En4
 BYTE   W11
 BYTE   N02  Fs4
 BYTE   W01
// 024   ----------------------------------------
 BYTE   N18  Gn4
 BYTE   W18
 BYTE   N17  Fs4
 BYTE   W18
 BYTE   N18  En4
 BYTE   W18
 BYTE   N05  Cs4
 BYTE   W18
 BYTE   N11  Bn3
 BYTE   W12
 BYTE   N06  Cs4
 BYTE   W12
// 025   ----------------------------------------
 BYTE   W96
// 026   ----------------------------------------
 BYTE   W96
// 027   ----------------------------------------
 BYTE   W96
// 028   ----------------------------------------
 BYTE   W96
// 029   ----------------------------------------
 BYTE   W96
// 030   ----------------------------------------
 BYTE   W96
// 031   ----------------------------------------
 BYTE   W96
// 032   ----------------------------------------
 BYTE   W96
// 033   ----------------------------------------
 BYTE   W96
// 034   ----------------------------------------
 BYTE   W96
// 035   ----------------------------------------
 BYTE   W96
// 036   ----------------------------------------
 BYTE   W96
// 037   ----------------------------------------
 BYTE   W54
 BYTE   W01
 BYTE   N02  As4  v076
 BYTE   W01
 BYTE   N16  Bn4  v084
 BYTE   W16
 BYTE   N08  Gs4  v088
 BYTE   W12
 BYTE   N04  Bn4  v112
 BYTE   W12
// 038   ----------------------------------------
 BYTE   Cs5  v124
 BYTE   W13
 BYTE   N06  Gs4  v104
 BYTE   W10
 BYTE   Bn4  v112
 BYTE   W06
 BYTE   Cs5  v104
 BYTE   W13
 BYTE   N14  Bn4  v124
 BYTE   W19
 BYTE   N08  Fs4  v092
 BYTE   W06
 BYTE   N05  Gs4  v084
 BYTE   W05
 BYTE   Bn4  v108
 BYTE   W08
 BYTE   N02  Fs4  v092
 BYTE   W04
 BYTE   N04  Gs4  v088
 BYTE   W12
// 039   ----------------------------------------
 BYTE   W96
// 040   ----------------------------------------
 BYTE   W96
// 041   ----------------------------------------
 BYTE   W23
 BYTE   N08  Ds4  v092
 BYTE   W08
 BYTE   N06  Bn3
 BYTE   W04
 BYTE   N08  Cs4  v096
 BYTE   W07
 BYTE   N05  Ds4
 BYTE   W05
 BYTE   N06  Fs4
 BYTE   W07
 BYTE   N05  Gs4  v100
 BYTE   W04
 BYTE   N06  Bn4  v120
 BYTE   W09
 BYTE   N04  Cs5  v124
 BYTE   W03
 BYTE   N07  Ds5  v104
 BYTE   W06
 BYTE   N08  Fs5  v127
 BYTE   W06
 BYTE   N30  Gs5
 BYTE   W14
// 042   ----------------------------------------
 BYTE   W24
 BYTE   N04  Fs5
 BYTE   W11
 BYTE   Ds5  v124
 BYTE   W12
 BYTE   N03  As4  v104
 BYTE   W02
 BYTE   Bn4
 BYTE   W07
 BYTE   Gs4  v096
 BYTE   W04
 BYTE   N04  Bn4
 BYTE   W13
 BYTE   N06  Cs5  v124
 BYTE   W06
 BYTE   N04  Bn4  v104
 BYTE   W04
 BYTE   N05  Gs4  v108
 BYTE   W05
 BYTE   FINE

//**************** Track 5 (Midi-Chn.4) ****************//

SonicAdventure2BattleDryLagoonAReliableChair_005:
// 000   ----------------------------------------
 BYTE   KEYSH   SonicAdventure2BattleDryLagoonAReliableChair_key+0
 BYTE   VOICE   32
 BYTE   PAN   c_v+0
 BYTE   VOL   62*SonicAdventure2BattleDryLagoonAReliableChair_mvl/mxv
 BYTE   W96
// 001   ----------------------------------------
 BYTE   W96
// 002   ----------------------------------------
 BYTE   W96
// 003   ----------------------------------------
 BYTE   W96
// 004   ----------------------------------------
Label_4_015719F0:
 BYTE   N12  Cs1  v127
 BYTE   W18
 BYTE   N06  Gs0
 BYTE   W18
 BYTE   N12  Cs1
 BYTE   W19
 BYTE   Bn0
 BYTE   W12
 BYTE   N19  En1
 BYTE   W16
 BYTE   N08  Bn0
 BYTE   W13
 BYTE   PEND 
// 005   ----------------------------------------
Label_4_01571A03:
 BYTE   N12  Cs1  v127
 BYTE   W18
 BYTE   N06  Gs0
 BYTE   W18
 BYTE   N12  Cs1
 BYTE   W19
 BYTE   N04  Gs0
 BYTE   W12
 BYTE   N19  En0
 BYTE   W16
 BYTE   N08  Bn0
 BYTE   W13
 BYTE   PEND 
 BYTE   PATT
  POIN2 Label_4_015719F0
 BYTE   PATT
  POIN2 Label_4_01571A03
 BYTE   PATT
  POIN2 Label_4_015719F0
 BYTE   PATT
  POIN2 Label_4_01571A03
 BYTE   PATT
  POIN2 Label_4_015719F0
 BYTE   PATT
  POIN2 Label_4_01571A03
 BYTE   PATT
  POIN2 Label_4_015719F0
 BYTE   PATT
  POIN2 Label_4_01571A03
 BYTE   PATT
  POIN2 Label_4_015719F0
 BYTE   PATT
  POIN2 Label_4_01571A03
 BYTE   PATT
  POIN2 Label_4_015719F0
 BYTE   PATT
  POIN2 Label_4_01571A03
 BYTE   PATT
  POIN2 Label_4_015719F0
 BYTE   PATT
  POIN2 Label_4_01571A03
 BYTE   PATT
  POIN2 Label_4_015719F0
 BYTE   PATT
  POIN2 Label_4_01571A03
 BYTE   PATT
  POIN2 Label_4_015719F0
 BYTE   PATT
  POIN2 Label_4_01571A03
 BYTE   PATT
  POIN2 Label_4_015719F0
 BYTE   PATT
  POIN2 Label_4_01571A03
 BYTE   PATT
  POIN2 Label_4_015719F0
 BYTE   PATT
  POIN2 Label_4_01571A03
// 006   ----------------------------------------
 BYTE   N09  Gs0  v127
 BYTE   W12
 BYTE   As0
 BYTE   W12
 BYTE   Bn0
 BYTE   W12
 BYTE   Cs1
 BYTE   W12
 BYTE   Fs1
 BYTE   W12
 BYTE   Ds1
 BYTE   W12
 BYTE   Fs1
 BYTE   W12
 BYTE   Fn1
 BYTE   W12
// 007   ----------------------------------------
 BYTE   En1
 BYTE   W12
 BYTE   Bn1
 BYTE   W12
 BYTE   N09
 BYTE   W12
 BYTE   N09
 BYTE   W12
 BYTE   As1
 BYTE   W11
 BYTE   Gn1
 BYTE   W13
 BYTE   Ds1
 BYTE   W11
 BYTE   Gn1
 BYTE   W13
// 008   ----------------------------------------
 BYTE   Gs1
 BYTE   W11
 BYTE   Bn0
 BYTE   W12
 BYTE   An0
 BYTE   W13
 BYTE   Gs0
 BYTE   W12
 BYTE   N09
 BYTE   W12
 BYTE   N09
 BYTE   W12
 BYTE   Fs0
 BYTE   W11
 BYTE   Fn0
 BYTE   W12
 BYTE   En0
 BYTE   W01
// 009   ----------------------------------------
 BYTE   W11
 BYTE   Bn0
 BYTE   W13
 BYTE   N09
 BYTE   W12
 BYTE   Cs1
 BYTE   W12
 BYTE   Ds1
 BYTE   W11
 BYTE   Bn0
 BYTE   W12
 BYTE   As0
 BYTE   W12
 BYTE   An0
 BYTE   W13
// 010   ----------------------------------------
 BYTE   Gs0
 BYTE   W12
 BYTE   As1
 BYTE   W12
 BYTE   Bn1
 BYTE   W12
 BYTE   Cn2
 BYTE   W11
 BYTE   Cs2
 BYTE   W12
 BYTE   Gs1
 BYTE   W12
 BYTE   Fs1
 BYTE   W13
 BYTE   Cs2
 BYTE   W12
// 011   ----------------------------------------
 BYTE   Bn1
 BYTE   W12
 BYTE   Fs1
 BYTE   W11
 BYTE   En1
 BYTE   W13
 BYTE   Bn1
 BYTE   W11
 BYTE   As1
 BYTE   W13
 BYTE   En1
 BYTE   W12
 BYTE   Ds1
 BYTE   W12
 BYTE   Gn1
 BYTE   W12
// 012   ----------------------------------------
 BYTE   Gs1
 BYTE   W11
 BYTE   As1
 BYTE   W13
 BYTE   Bn1
 BYTE   W12
 BYTE   Fn1
 BYTE   W11
 BYTE   N10  Fs1
 BYTE   W13
 BYTE   N09  As1
 BYTE   W11
 BYTE   N11  Bn1
 BYTE   W13
 BYTE   N10  Fn1
 BYTE   W12
// 013   ----------------------------------------
 BYTE   N09  En1
 BYTE   W12
 BYTE   N15  Bn1
 BYTE   W24
 BYTE   N07  Cs1  v104
 BYTE   W07
 BYTE   N04  Dn1  v120
 BYTE   W05
 BYTE   N06  Ds1  v127
 BYTE   W08
 BYTE   N03
 BYTE   W04
 BYTE   N09  Bn0
 BYTE   W11
 BYTE   N10  As0
 BYTE   W12
 BYTE   An0
 BYTE   W12
 BYTE   Gs0
 BYTE   W01
// 014   ----------------------------------------
 BYTE   W11
 BYTE   Gs1
 BYTE   W12
 BYTE   N09  Bn1
 BYTE   W12
 BYTE   Cn2
 BYTE   W12
 BYTE   Cs2
 BYTE   W13
 BYTE   Gs1
 BYTE   W12
 BYTE   N10  Fs1
 BYTE   W12
 BYTE   N09  Cs2
 BYTE   W12
// 015   ----------------------------------------
 BYTE   N10  Bn1
 BYTE   W11
 BYTE   N09  Fs1
 BYTE   W13
 BYTE   En1
 BYTE   W12
 BYTE   An1
 BYTE   W12
 BYTE   N10  As1
 BYTE   W12
 BYTE   N09  En1
 BYTE   W11
 BYTE   Ds1
 BYTE   W13
 BYTE   N10  Gn1
 BYTE   W12
// 016   ----------------------------------------
 BYTE   N09  Gs1
 BYTE   W11
 BYTE   N10  As1
 BYTE   W12
 BYTE   Bn1
 BYTE   W13
 BYTE   Fn1
 BYTE   W12
 BYTE   N09  Fs1
 BYTE   W12
 BYTE   N10  Cs1
 BYTE   W11
 BYTE   Bn0
 BYTE   W12
 BYTE   An0
 BYTE   W12
 BYTE   As0
 BYTE   W01
// 017   ----------------------------------------
 BYTE   W12
 BYTE   N09  En1
 BYTE   W11
 BYTE   N10  Fs1
 BYTE   W13
 BYTE   N09  Cs1
 BYTE   W12
 BYTE   Ds1
 BYTE   W12
 BYTE   Fn1
 BYTE   W12
 BYTE   Fs1
 BYTE   W12
 BYTE   Gn1
 BYTE   W12
// 018   ----------------------------------------
 BYTE   N10  Gs1
 BYTE   W12
 BYTE   As1
 BYTE   W12
 BYTE   N09  Bn1
 BYTE   W12
 BYTE   En1
 BYTE   W12
 BYTE   Fs1
 BYTE   W12
 BYTE   Cs1
 BYTE   W11
 BYTE   N10  Bn0
 BYTE   W13
 BYTE   Bn1
 BYTE   W12
// 019   ----------------------------------------
 BYTE   N20  En1
 BYTE   W24
 BYTE   N17  Bn0
 BYTE   W20
 BYTE   N03  An1  v116
 BYTE   W04
 BYTE   N09  As1  v127
 BYTE   W11
 BYTE   Gn1
 BYTE   W12
 BYTE   Ds1
 BYTE   W12
 BYTE   N10  Gn1
 BYTE   W12
 BYTE   Gs1
 BYTE   W01
// 020   ----------------------------------------
 BYTE   W11
 BYTE   N09  As1
 BYTE   W12
 BYTE   Bn1
 BYTE   W12
 BYTE   N10  Cn2
 BYTE   W12
 BYTE   Cs2
 BYTE   W13
 BYTE   N09  Gs1
 BYTE   W12
 BYTE   Fs1
 BYTE   W12
 BYTE   Cs2
 BYTE   W12
// 021   ----------------------------------------
 BYTE   Bn1
 BYTE   W12
 BYTE   N10  Fs1
 BYTE   W12
 BYTE   N09  En1
 BYTE   W12
 BYTE   N10  Bn1
 BYTE   W12
 BYTE   N05  As1
 BYTE   W07
 BYTE   N03  En1
 BYTE   W04
 BYTE   N20  Ds1
 BYTE   W24
 BYTE   N10  Gn1
 BYTE   W12
 BYTE   N09  Gs1
 BYTE   W01
// 022   ----------------------------------------
 BYTE   W12
 BYTE   Dn2
 BYTE   W12
 BYTE   Ds2
 BYTE   W12
 BYTE   N10  Dn2
 BYTE   W12
 BYTE   N09  Cs2
 BYTE   W12
 BYTE   Gs1
 BYTE   W12
 BYTE   Fs1
 BYTE   W12
 BYTE   Cs2
 BYTE   W12
// 023   ----------------------------------------
 BYTE   Bn1
 BYTE   W12
 BYTE   Cs2
 BYTE   W12
 BYTE   Fs1
 BYTE   W11
 BYTE   N10  Fn1
 BYTE   W13
 BYTE   N09  En1
 BYTE   W11
 BYTE   N10  Dn1
 BYTE   W12
 BYTE   N09  Ds1
 BYTE   W13
 BYTE   An0
 BYTE   W11
 BYTE   N10  Gs0
 BYTE   W01
// 024   ----------------------------------------
 BYTE   W11
 BYTE   Bn0
 BYTE   W12
 BYTE   N09
 BYTE   W12
 BYTE   N10  Cs1
 BYTE   W12
 BYTE   Dn1
 BYTE   W12
 BYTE   N09  Ds1
 BYTE   W12
 BYTE   Fn1
 BYTE   W13
 BYTE   N10  Dn1
 BYTE   W12
// 025   ----------------------------------------
 BYTE   N09  En1
 BYTE   W12
 BYTE   Bn1
 BYTE   W12
 BYTE   En2
 BYTE   W12
 BYTE   Dn2
 BYTE   W12
 BYTE   N15  Ds2
 BYTE   W24
 BYTE   N10
 BYTE   W11
 BYTE   Cs2
 BYTE   W13
// 026   ----------------------------------------
 BYTE   Bn1
 BYTE   W12
 BYTE   N09  As1
 BYTE   W12
 BYTE   Gs1
 BYTE   W11
 BYTE   N10  Gn1
 BYTE   W12
 BYTE   Fs1
 BYTE   W12
 BYTE   N09  Cs1
 BYTE   W12
 BYTE   Bn0
 BYTE   W12
 BYTE   Bn1
 BYTE   W13
// 027   ----------------------------------------
 BYTE   En1
 BYTE   W12
 BYTE   As1
 BYTE   W11
 BYTE   N10  Bn1
 BYTE   W13
 BYTE   N09  En1
 BYTE   W12
 BYTE   Ds1
 BYTE   W12
 BYTE   En1
 BYTE   W11
 BYTE   N10  Fs1
 BYTE   W12
 BYTE   Gn1
 BYTE   W12
 BYTE   Gs1
 BYTE   W01
// 028   ----------------------------------------
 BYTE   W11
 BYTE   Bn0
 BYTE   W12
 BYTE   N09  As0
 BYTE   W13
 BYTE   An0
 BYTE   W12
 BYTE   Gs0
 BYTE   W12
 BYTE   Cn1
 BYTE   W12
 BYTE   Cs1
 BYTE   W11
 BYTE   N10  Fn1
 BYTE   W12
 BYTE   Fs1
 BYTE   W01
// 029   ----------------------------------------
 BYTE   W11
 BYTE   N10
 BYTE   W12
 BYTE   Cs1
 BYTE   W12
 BYTE   N20  Gs1
 BYTE   W24
 BYTE   N10  Ds1
 BYTE   W12
 BYTE   N09  Gs1
 BYTE   W12
 BYTE   N10  Ds1
 BYTE   W11
 BYTE   FINE

//**************** Track 6 (Midi-Chn.5) ****************//

SonicAdventure2BattleDryLagoonAReliableChair_006:
// 000   ----------------------------------------
 BYTE   KEYSH   SonicAdventure2BattleDryLagoonAReliableChair_key+0
 BYTE   VOICE   127
 BYTE   PAN   c_v+0
 BYTE   VOL   62*SonicAdventure2BattleDryLagoonAReliableChair_mvl/mxv
 BYTE   N05  Cn1  v127
 BYTE   W11
 BYTE   N06
 BYTE   W84
 BYTE   N05
 BYTE   W01
// 001   ----------------------------------------
 BYTE   W11
 BYTE   N05
 BYTE   W84
 BYTE   W01
// 002   ----------------------------------------
 BYTE   N05
 BYTE   W12
 BYTE   N05
 BYTE   W80
 BYTE   W03
 BYTE   N06
 BYTE   W01
// 003   ----------------------------------------
 BYTE   W11
 BYTE   N06
 BYTE   W36
 BYTE   W01
 BYTE   N01  Fs2  v068
 BYTE   W02
 BYTE   Fs2  v076
 BYTE   W04
 BYTE   Fs2  v088
 BYTE   W03
 BYTE   Fs2  v096
 BYTE   W03
 BYTE   Fs2  v108
 BYTE   W03
 BYTE   N01
 BYTE   W03
 BYTE   N01
 BYTE   W01
 BYTE   N04  En1  v112
 BYTE   W02
 BYTE   N01  Fs2
 BYTE   W03
 BYTE   En1  v127
 BYTE   N01  Fs2  v112
 BYTE   W03
 BYTE   N01
 BYTE   W02
 BYTE   Fs2  v116
 BYTE   W03
 BYTE   N01
 BYTE   W03
 BYTE   Fs2  v112
 BYTE   W01
 BYTE   N03  As1  v100
 BYTE   W01
 BYTE   N01  Fs2  v104
 BYTE   W03
 BYTE   N02  Fs2  v096
 BYTE   W03
 BYTE   N01  Fs2  v088
 BYTE   W05
// 004   ----------------------------------------
Label_5_01571CB2:
 BYTE   N04  Cn1  v127
 BYTE   W12
 BYTE   N04
 BYTE   W18
 BYTE   N05  En1
 BYTE   W06
 BYTE   Cn1
 BYTE   W19
 BYTE   N04  En1  v104
 BYTE   W11
 BYTE   Cn1  v127
 BYTE   W06
 BYTE   En1
 BYTE   W12
 BYTE   N03  As1  v092
 BYTE   W12
 BYTE   PEND 
// 005   ----------------------------------------
 BYTE   Cn1  v127
 BYTE   W12
 BYTE   N03
 BYTE   W19
 BYTE   N04  En1
 BYTE   W05
 BYTE   N05  Cn1
 BYTE   W19
 BYTE   N04  En1  v108
 BYTE   W05
 BYTE   N03  Cn1  v127
 BYTE   W07
 BYTE   N03
 BYTE   W05
 BYTE   En1
 BYTE   W12
 BYTE   N02  As1  v092
 BYTE   W12
 BYTE   PATT
  POIN2 Label_5_01571CB2
// 006   ----------------------------------------
Label_5_01571CEB:
 BYTE   N03  Cn1  v127
 BYTE   W12
 BYTE   N03
 BYTE   W19
 BYTE   N04  En1
 BYTE   W05
 BYTE   N05  Cn1
 BYTE   W19
 BYTE   N04  En1  v104
 BYTE   W05
 BYTE   N03  Cn1  v127
 BYTE   W07
 BYTE   N03
 BYTE   W05
 BYTE   En1
 BYTE   W11
 BYTE   As1  v092
 BYTE   W13
 BYTE   PEND 
 BYTE   PATT
  POIN2 Label_5_01571CB2
// 007   ----------------------------------------
 BYTE   N03  Cn1  v127
 BYTE   W12
 BYTE   N03
 BYTE   W19
 BYTE   N04  En1
 BYTE   W05
 BYTE   N05  Cn1
 BYTE   W19
 BYTE   N04  En1  v108
 BYTE   W05
 BYTE   N03  Cn1  v127
 BYTE   W07
 BYTE   N03
 BYTE   W05
 BYTE   En1
 BYTE   W11
 BYTE   As1  v092
 BYTE   W13
// 008   ----------------------------------------
Label_5_01571D27:
 BYTE   N04  Cn1  v127
 BYTE   W12
 BYTE   N04
 BYTE   W18
 BYTE   N05  En1
 BYTE   W06
 BYTE   Cn1
 BYTE   W19
 BYTE   N04  En1  v104
 BYTE   W11
 BYTE   Cn1  v127
 BYTE   W06
 BYTE   En1
 BYTE   W11
 BYTE   N03  As1  v092
 BYTE   W13
 BYTE   PEND 
// 009   ----------------------------------------
 BYTE   Cn1  v127
 BYTE   W12
 BYTE   N03
 BYTE   W19
 BYTE   N04  En1
 BYTE   W05
 BYTE   N05  Cn1
 BYTE   W19
 BYTE   N04  En1
 BYTE   W05
 BYTE   N03
 BYTE   W12
 BYTE   N03
 BYTE   W07
 BYTE   N03
 BYTE   W04
 BYTE   As1  v092
 BYTE   W13
 BYTE   PATT
  POIN2 Label_5_01571CB2
// 010   ----------------------------------------
Label_5_01571D5C:
 BYTE   N03  Cn1  v127
 BYTE   W12
 BYTE   N03
 BYTE   W19
 BYTE   N04  En1
 BYTE   W05
 BYTE   N05  Cn1
 BYTE   W19
 BYTE   N04  En1  v104
 BYTE   W05
 BYTE   N03  Cn1  v127
 BYTE   W07
 BYTE   N03
 BYTE   W05
 BYTE   En1
 BYTE   W12
 BYTE   N02  As1  v092
 BYTE   W12
 BYTE   PEND 
 BYTE   PATT
  POIN2 Label_5_01571CB2
 BYTE   PATT
  POIN2 Label_5_01571CEB
 BYTE   PATT
  POIN2 Label_5_01571CB2
 BYTE   PATT
  POIN2 Label_5_01571CEB
 BYTE   PATT
  POIN2 Label_5_01571D27
// 011   ----------------------------------------
 BYTE   N03  Cn1  v127
 BYTE   W12
 BYTE   N03
 BYTE   W19
 BYTE   N04  En1
 BYTE   W05
 BYTE   N05  Cn1
 BYTE   W12
 BYTE   N03  As1  v092
 BYTE   W07
 BYTE   N04  En1  v127
 BYTE   W05
 BYTE   N03
 BYTE   W12
 BYTE   Dn2
 BYTE   W07
 BYTE   N02
 BYTE   W05
 BYTE   N03
 BYTE   W12
// 012   ----------------------------------------
 BYTE   N02  Cn1
 BYTE   W96
// 013   ----------------------------------------
 BYTE   W96
// 014   ----------------------------------------
 BYTE   W96
// 015   ----------------------------------------
 BYTE   W44
 BYTE   W03
 BYTE   N04  Dn2
 BYTE   W12
 BYTE   N04
 BYTE   W13
 BYTE   N02  En1
 BYTE   W12
 BYTE   N03
 BYTE   W12
// 016   ----------------------------------------
 BYTE   N04  Cn1
 BYTE   N03  As1  v092
 BYTE   W12
 BYTE   N04  Cn1  v127
 BYTE   W18
 BYTE   N05  En1
 BYTE   W06
 BYTE   Cn1
 BYTE   W19
 BYTE   N04  En1  v104
 BYTE   W11
 BYTE   Cn1  v127
 BYTE   W06
 BYTE   En1
 BYTE   W12
 BYTE   N03  As1  v092
 BYTE   W12
 BYTE   PATT
  POIN2 Label_5_01571D5C
 BYTE   PATT
  POIN2 Label_5_01571CB2
// 017   ----------------------------------------
 BYTE   N03  Cn1  v127
 BYTE   W12
 BYTE   N03
 BYTE   W12
 BYTE   N04  En1
 BYTE   W07
 BYTE   N05  Dn2
 BYTE   W05
 BYTE   Cn1
 BYTE   W07
 BYTE   N04  En1
 BYTE   W05
 BYTE   N02
 BYTE   W12
 BYTE   N03  Cn1  v100
 BYTE   W11
 BYTE   N02  Cn2  v127
 BYTE   W08
 BYTE   N02
 BYTE   W04
 BYTE   N03
 BYTE   W07
 BYTE   N02
 BYTE   W06
// 018   ----------------------------------------
 BYTE   N04  Cn1
 BYTE   N02  Cs2
 BYTE   W12
 BYTE   N04  Cn1
 BYTE   W12
 BYTE   N05  En1
 BYTE   W11
 BYTE   N03  Fs2  v088
 BYTE   W07
 BYTE   N05  Cn1  v127
 BYTE   W13
 BYTE   N04  En1  v084
 BYTE   W05
 BYTE   Cn1  v127
 BYTE   W12
 BYTE   En1
 BYTE   W11
 BYTE   N03  Fs2  v092
 BYTE   W13
// 019   ----------------------------------------
 BYTE   Cn1  v127
 BYTE   W12
 BYTE   N03
 BYTE   W12
 BYTE   N04  En1
 BYTE   W10
 BYTE   N03  Fs2  v092
 BYTE   W08
 BYTE   N05  Cn1  v127
 BYTE   W13
 BYTE   N04  En1  v084
 BYTE   W05
 BYTE   N03  Cn1  v127
 BYTE   W12
 BYTE   En1
 BYTE   W10
 BYTE   Fs2  v092
 BYTE   W14
// 020   ----------------------------------------
 BYTE   N04  Cn1  v127
 BYTE   W12
 BYTE   N04
 BYTE   W12
 BYTE   N05  En1
 BYTE   W11
 BYTE   N03  Fs2  v092
 BYTE   W07
 BYTE   N05  Cn1  v127
 BYTE   W13
 BYTE   N04  En1  v084
 BYTE   W05
 BYTE   Cn1  v127
 BYTE   W12
 BYTE   En1
 BYTE   W11
 BYTE   N03  Fs2  v092
 BYTE   W13
// 021   ----------------------------------------
 BYTE   Cn1  v127
 BYTE   W12
 BYTE   N03
 BYTE   W12
 BYTE   N04  En1
 BYTE   W11
 BYTE   N02  Fs2  v092
 BYTE   W07
 BYTE   N05  Cn1  v127
 BYTE   W13
 BYTE   N04  En1  v084
 BYTE   W05
 BYTE   N03  Cn1  v127
 BYTE   W12
 BYTE   En1
 BYTE   W11
 BYTE   Fs2  v092
 BYTE   W13
// 022   ----------------------------------------
 BYTE   N04  Cn1  v127
 BYTE   W12
 BYTE   N04
 BYTE   W12
 BYTE   N05  En1
 BYTE   W11
 BYTE   N02  Fs2  v092
 BYTE   W07
 BYTE   N05  Cn1  v127
 BYTE   W13
 BYTE   N04  En1  v084
 BYTE   W05
 BYTE   Cn1  v127
 BYTE   W12
 BYTE   En1
 BYTE   W12
 BYTE   N02  Fs2  v092
 BYTE   W12
// 023   ----------------------------------------
 BYTE   N03  Cn1  v127
 BYTE   W12
 BYTE   N03
 BYTE   W12
 BYTE   N04  En1
 BYTE   W11
 BYTE   N02  Fs2  v092
 BYTE   W07
 BYTE   N05  Cn1  v127
 BYTE   W13
 BYTE   N04  En1  v084
 BYTE   W05
 BYTE   N03  Cn1  v127
 BYTE   W12
 BYTE   En1
 BYTE   W12
 BYTE   N02  Fs2  v092
 BYTE   W12
// 024   ----------------------------------------
 BYTE   N04  Cn1  v127
 BYTE   W12
 BYTE   N04
 BYTE   W12
 BYTE   N05  En1
 BYTE   W12
 BYTE   N03  Fs2  v092
 BYTE   W06
 BYTE   N05  Cn1  v127
 BYTE   W13
 BYTE   N04  En1  v084
 BYTE   W05
 BYTE   Cn1  v127
 BYTE   W12
 BYTE   En1
 BYTE   W11
 BYTE   N03  Fs2  v092
 BYTE   W13
// 025   ----------------------------------------
 BYTE   Cn1  v127
 BYTE   W12
 BYTE   N03
 BYTE   W12
 BYTE   N04  En1
 BYTE   W07
 BYTE   N03  Fs2  v092
 BYTE   W04
 BYTE   N04
 BYTE   W07
 BYTE   N05  Cn1  v127
 BYTE   W13
 BYTE   N04  En1  v084
 BYTE   W05
 BYTE   N03  Cn1  v127
 BYTE   N02  Bn1  v100
 BYTE   W12
 BYTE   N03  En1  v127
 BYTE   W07
 BYTE   N03
 BYTE   W05
 BYTE   N03
 BYTE   W07
 BYTE   N03
 BYTE   W05
// 026   ----------------------------------------
 BYTE   N04  Cn1
 BYTE   N03  Cs2
 BYTE   W12
 BYTE   N04  Cn1
 BYTE   W12
 BYTE   N05  En1
 BYTE   W10
 BYTE   N04  Fs2  v092
 BYTE   W08
 BYTE   N05  Cn1  v127
 BYTE   W13
 BYTE   N04  En1  v084
 BYTE   W05
 BYTE   Cn1  v127
 BYTE   W12
 BYTE   En1
 BYTE   W12
 BYTE   N02  Fs2  v092
 BYTE   W12
// 027   ----------------------------------------
 BYTE   N03  Cn1  v127
 BYTE   W12
 BYTE   N03
 BYTE   W12
 BYTE   N04  En1
 BYTE   W10
 BYTE   N03  Fs2  v092
 BYTE   W08
 BYTE   N05  Cn1  v127
 BYTE   W13
 BYTE   N04  En1  v084
 BYTE   W05
 BYTE   N03  Cn1  v127
 BYTE   W12
 BYTE   En1
 BYTE   W10
 BYTE   N02  Fs2  v092
 BYTE   W14
// 028   ----------------------------------------
 BYTE   N04  Cn1  v127
 BYTE   W12
 BYTE   N04
 BYTE   W12
 BYTE   N05  En1
 BYTE   W11
 BYTE   N03  Fs2  v092
 BYTE   W07
 BYTE   N05  Cn1  v127
 BYTE   W13
 BYTE   N04  En1  v084
 BYTE   W05
 BYTE   Cn1  v127
 BYTE   W12
 BYTE   En1
 BYTE   W12
 BYTE   N03  Fs2  v092
 BYTE   W12
// 029   ----------------------------------------
 BYTE   Cn1  v127
 BYTE   W12
 BYTE   N03
 BYTE   W12
 BYTE   N04  En1
 BYTE   W11
 BYTE   N03  Fs2  v092
 BYTE   W07
 BYTE   N05  Cn1  v127
 BYTE   W13
 BYTE   N04  En1  v084
 BYTE   W05
 BYTE   N03  Cn1  v127
 BYTE   W12
 BYTE   En1
 BYTE   W12
 BYTE   N01  Fs2  v092
 BYTE   W12
// 030   ----------------------------------------
 BYTE   N04  Cn1  v127
 BYTE   W12
 BYTE   En1
 BYTE   W12
 BYTE   N05
 BYTE   W10
 BYTE   N03  Fs2  v092
 BYTE   W08
 BYTE   N05  Cn1  v127
 BYTE   W13
 BYTE   N04  En1  v084
 BYTE   W05
 BYTE   Cn1  v127
 BYTE   W12
 BYTE   En1
 BYTE   W10
 BYTE   N02  Fs2  v092
 BYTE   W14
// 031   ----------------------------------------
 BYTE   N03  Cn1  v127
 BYTE   W12
 BYTE   N03
 BYTE   W12
 BYTE   N04  En1
 BYTE   W12
 BYTE   N02  Fs2  v092
 BYTE   W06
 BYTE   N05  Cn1  v127
 BYTE   W13
 BYTE   N04  En1  v084
 BYTE   W05
 BYTE   N03  Cn1  v127
 BYTE   W12
 BYTE   En1
 BYTE   W10
 BYTE   Fs2  v092
 BYTE   W14
// 032   ----------------------------------------
 BYTE   N04  Cn1  v127
 BYTE   W12
 BYTE   N04
 BYTE   W12
 BYTE   N05  En1
 BYTE   W12
 BYTE   N03  Fs2  v092
 BYTE   W06
 BYTE   N05  Cn1  v127
 BYTE   W13
 BYTE   N04  En1  v084
 BYTE   W05
 BYTE   Cn1  v127
 BYTE   W12
 BYTE   En1
 BYTE   W12
 BYTE   N02  Fs2  v092
 BYTE   W12
// 033   ----------------------------------------
 BYTE   N03  Cn1  v127
 BYTE   W12
 BYTE   N03
 BYTE   W12
 BYTE   N04  En1
 BYTE   W12
 BYTE   N02  Fs2  v092
 BYTE   W06
 BYTE   N05  Cn1  v127
 BYTE   W06
 BYTE   N03  Dn2  v100
 BYTE   W30
 BYTE   W01
 BYTE   En1  v127
 BYTE   W03
 BYTE   Fs2  v092
 BYTE   W02
 BYTE   N04  En1  v127
 BYTE   W07
 BYTE   En1  v056
 BYTE   W05
// 034   ----------------------------------------
 BYTE   N02  Cs2  v127
 BYTE   W96
// 035   ----------------------------------------
 BYTE   W96
// 036   ----------------------------------------
 BYTE   W96
// 037   ----------------------------------------
 BYTE   W60
 BYTE   En1
 BYTE   W19
 BYTE   N03  Cn2
 BYTE   W05
 BYTE   N02  Cn2  v124
 BYTE   W12
// 038   ----------------------------------------
 BYTE   N04  Cn1  v127
 BYTE   N03  Cs2
 BYTE   W12
 BYTE   N04  Cn1
 BYTE   W12
 BYTE   N05  En1
 BYTE   W18
 BYTE   Cn1
 BYTE   W13
 BYTE   N04  En1  v084
 BYTE   W05
 BYTE   Cn1  v127
 BYTE   W12
 BYTE   En1
 BYTE   W24
// 039   ----------------------------------------
 BYTE   N03  Cn1
 BYTE   W12
 BYTE   N03
 BYTE   W12
 BYTE   N04  En1
 BYTE   W18
 BYTE   N05  Cn1
 BYTE   W13
 BYTE   N04  En1  v084
 BYTE   W05
 BYTE   N03  Cn1  v127
 BYTE   W12
 BYTE   En1
 BYTE   W24
// 040   ----------------------------------------
 BYTE   N04  Cn1
 BYTE   W12
 BYTE   N04
 BYTE   W12
 BYTE   N05  En1
 BYTE   W18
 BYTE   Cn1
 BYTE   W13
 BYTE   N04  En1  v084
 BYTE   W05
 BYTE   Cn1  v127
 BYTE   W12
 BYTE   En1
 BYTE   W24
// 041   ----------------------------------------
 BYTE   N03  Cn1
 BYTE   W12
 BYTE   N03
 BYTE   W12
 BYTE   N04  En1
 BYTE   W19
 BYTE   N04
 BYTE   W05
 BYTE   N01
 BYTE   W12
 BYTE   N03  En1  v056
 BYTE   W07
 BYTE   N04  En1  v076
 BYTE   W05
 BYTE   N03  Cn1  v127
 BYTE   W12
 BYTE   As1  v092
 BYTE   W03
 BYTE   FINE

//**************** Track 7 (Midi-Chn.6) ****************//

SonicAdventure2BattleDryLagoonAReliableChair_007:
// 000   ----------------------------------------
 BYTE   KEYSH   SonicAdventure2BattleDryLagoonAReliableChair_key+0
 BYTE   VOICE   52
 BYTE   PAN   c_v+63
 BYTE   VOL   62*SonicAdventure2BattleDryLagoonAReliableChair_mvl/mxv
 BYTE   BEND   c_v-2
 BYTE   N06  Gs3  v064
 BYTE   W01
 BYTE   BEND   c_v+0
 BYTE   W17
 BYTE   N06  En3
 BYTE   W18
 BYTE   N54
 BYTE   W06
 BYTE   BEND   c_v+1
 BYTE   W01
 BYTE   An3
 BYTE   W01
 BYTE   Cs4
 BYTE   W01
 BYTE   Dn4
 BYTE   W03
 BYTE   W12
 BYTE   Bn3
 BYTE   W01
 BYTE   Gn3
 BYTE   W01
 BYTE   En3
 BYTE   W32
 BYTE   W02
// 001   ----------------------------------------
 BYTE   W96
// 002   ----------------------------------------
 BYTE   Dn3
 BYTE   N06  Gs3
 BYTE   W01
 BYTE   BEND   c_v+0
 BYTE   W17
 BYTE   N06  En3
 BYTE   W18
 BYTE   N54
 BYTE   W06
 BYTE   BEND   c_v+1
 BYTE   W01
 BYTE   An3
 BYTE   W01
 BYTE   Cs4
 BYTE   W01
 BYTE   Dn4
 BYTE   W15
 BYTE   Bn3
 BYTE   W01
 BYTE   Gn3
 BYTE   W01
 BYTE   En3
 BYTE   W32
 BYTE   W02
// 003   ----------------------------------------
 BYTE   W96
// 004   ----------------------------------------
 BYTE   W84
 BYTE   N02  Cs3  v072
 BYTE   W11
 BYTE   N02
 BYTE   W01
// 005   ----------------------------------------
 BYTE   W11
 BYTE   N02
 BYTE   W24
 BYTE   W01
 BYTE   N03
 BYTE   W11
 BYTE   N03
 BYTE   W13
 BYTE   N02
 BYTE   W36
// 006   ----------------------------------------
 BYTE   W80
 BYTE   W03
 BYTE   N01
 BYTE   W12
 BYTE   N01
 BYTE   W01
// 007   ----------------------------------------
 BYTE   W12
 BYTE   N01
 BYTE   W24
 BYTE   W01
 BYTE   N02
 BYTE   W11
 BYTE   N02
 BYTE   W12
 BYTE   N02
 BYTE   W36
// 008   ----------------------------------------
 BYTE   W80
 BYTE   W03
 BYTE   N02
 BYTE   W13
// 009   ----------------------------------------
 BYTE   N02
 BYTE   W12
 BYTE   N01
 BYTE   W24
 BYTE   N01
 BYTE   W12
 BYTE   N01
 BYTE   W12
 BYTE   N01
 BYTE   W36
// 010   ----------------------------------------
 BYTE   W96
// 011   ----------------------------------------
 BYTE   N84  En3
 BYTE   W06
 BYTE   BEND   c_v+1
 BYTE   W01
 BYTE   An3
 BYTE   W01
 BYTE   Dn4
 BYTE   W28
 BYTE   Cn4
 BYTE   W01
 BYTE   As3
 BYTE   W01
 BYTE   Fs3
 BYTE   W01
 BYTE   En3
 BYTE   W56
 BYTE   W01
// 012   ----------------------------------------
 BYTE   W96
// 013   ----------------------------------------
 BYTE   W96
// 014   ----------------------------------------
 BYTE   W96
// 015   ----------------------------------------
 BYTE   W96
// 016   ----------------------------------------
 BYTE   W96
// 017   ----------------------------------------
 BYTE   W96
// 018   ----------------------------------------
 BYTE   W96
// 019   ----------------------------------------
 BYTE   W96
// 020   ----------------------------------------
 BYTE   W96
// 021   ----------------------------------------
 BYTE   W96
// 022   ----------------------------------------
 BYTE   W96
// 023   ----------------------------------------
 BYTE   W96
// 024   ----------------------------------------
 BYTE   W96
// 025   ----------------------------------------
 BYTE   W96
// 026   ----------------------------------------
 BYTE   W96
// 027   ----------------------------------------
 BYTE   W96
// 028   ----------------------------------------
 BYTE   W96
// 029   ----------------------------------------
 BYTE   W96
// 030   ----------------------------------------
 BYTE   W60
 BYTE   N12  Bn2
 BYTE   W12
 BYTE   Cs3
 BYTE   W12
 BYTE   N19  Ds3
 BYTE   W12
// 031   ----------------------------------------
 BYTE   W12
 BYTE   N04
 BYTE   W19
 BYTE   N03
 BYTE   W12
 BYTE   N15  Cs3
 BYTE   W17
 BYTE   N04  Bn2
 BYTE   W12
 BYTE   N16  Ds3
 BYTE   W24
// 032   ----------------------------------------
 BYTE   W96
// 033   ----------------------------------------
 BYTE   W96
// 034   ----------------------------------------
 BYTE   W56
 BYTE   W03
 BYTE   N11  Bn2
 BYTE   W12
 BYTE   N12  Cs3
 BYTE   W12
 BYTE   N19  Ds3
 BYTE   W13
// 035   ----------------------------------------
 BYTE   W12
 BYTE   N03
 BYTE   W19
 BYTE   Cs3
 BYTE   W12
 BYTE   N15
 BYTE   W17
 BYTE   N04  Bn2
 BYTE   W12
 BYTE   N19  Ds3
 BYTE   W24
// 036   ----------------------------------------
 BYTE   W96
// 037   ----------------------------------------
 BYTE   W96
// 038   ----------------------------------------
 BYTE   W96
// 039   ----------------------------------------
 BYTE   W96
// 040   ----------------------------------------
 BYTE   W96
// 041   ----------------------------------------
 BYTE   W96
// 042   ----------------------------------------
 BYTE   W96
// 043   ----------------------------------------
 BYTE   W96
// 044   ----------------------------------------
Label_6_01572137:
 BYTE   W12
 BYTE   N06  Bn2  v072
 BYTE   N06  Ds3
 BYTE   W19
 BYTE   Bn2
 BYTE   N06  Ds3
 BYTE   W12
 BYTE   N12  Bn2
 BYTE   N12  Dn3
 BYTE   W13
 BYTE   N06  Bn2
 BYTE   N06  Ds3
 BYTE   W16
 BYTE   N12  Bn2
 BYTE   N12  Ds3
 BYTE   W24
 BYTE   PEND 
// 045   ----------------------------------------
 BYTE   W96
 BYTE   PATT
  POIN2 Label_6_01572137
// 046   ----------------------------------------
 BYTE   W96
 BYTE   PATT
  POIN2 Label_6_01572137
// 047   ----------------------------------------
 BYTE   W96
// 048   ----------------------------------------
 BYTE   W12
 BYTE   N06  Bn2  v072
 BYTE   N06  Ds3
 BYTE   W19
 BYTE   Bn2
 BYTE   N06  Ds3
 BYTE   W12
 BYTE   N12  Bn2
 BYTE   N12  Dn3
 BYTE   W13
 BYTE   N06  Bn2
 BYTE   N06  Ds3
 BYTE   W16
 BYTE   N12  Bn2
 BYTE   N12  Ds3
 BYTE   W12
 BYTE   FINE

//******************************************************//
	ALIGN 4

SonicAdventure2BattleDryLagoonAReliableChair:
	BYTE	7	// NumTrks
	BYTE	0	// NumBlks
	BYTE	SonicAdventure2BattleDryLagoonAReliableChair_pri	// Priority
	BYTE	SonicAdventure2BattleDryLagoonAReliableChair_rev	// Reverb.
    
	POIN2	SonicAdventure2BattleDryLagoonAReliableChair_grp
    
	POIN2	SonicAdventure2BattleDryLagoonAReliableChair_001
	POIN2	SonicAdventure2BattleDryLagoonAReliableChair_002
	POIN2	SonicAdventure2BattleDryLagoonAReliableChair_003
	POIN2	SonicAdventure2BattleDryLagoonAReliableChair_004
	POIN2	SonicAdventure2BattleDryLagoonAReliableChair_005
	POIN2	SonicAdventure2BattleDryLagoonAReliableChair_006
	POIN2	SonicAdventure2BattleDryLagoonAReliableChair_007

	
