//Event file generated from Sappy .s format.
	#include "MPlayDef.event"

	#define	Sonic2AquaticRuinZoneSme_grp  voicegroup000
	#define	Sonic2AquaticRuinZoneSme_pri  0
	#define	Sonic2AquaticRuinZoneSme_rev  0
	#define	Sonic2AquaticRuinZoneSme_mvl  85
	#define	Sonic2AquaticRuinZoneSme_key  0
	#define	Sonic2AquaticRuinZoneSme_tbs  1
	#define	Sonic2AquaticRuinZoneSme_exg  0
	#define	Sonic2AquaticRuinZoneSme_cmp  1

	// .rodata
	//	Sonic2AquaticRuinZoneSme
	ALIGN 4

//**************** Track 1 (Midi-Chn.1) ****************//

Sonic2AquaticRuinZoneSme_1:
	BYTE	KEYSH   Sonic2AquaticRuinZoneSme_key+0
Sonic2AquaticRuinZoneSme_1_B1:
// 000   ----------------------------------------
	BYTE	TEMPO   132*Sonic2AquaticRuinZoneSme_tbs/2
	BYTE		VOICE   36
	BYTE		VOL     46*Sonic2AquaticRuinZoneSme_mvl/mxv
	BYTE		PAN     c_v+12
	BYTE		TIE     Dn1   v104
	BYTE	W96
// 001   ----------------------------------------
	BYTE	W48
	BYTE		EOT   
	BYTE	W18
	BYTE		N06     An1 
	BYTE	W06
	BYTE		N06   
	BYTE	W12
	BYTE		        Cn2 
	BYTE	W06
	BYTE		        Dn2 
	BYTE	W06
// 002   ----------------------------------------
	BYTE		TIE     Dn1 
	BYTE	W96
// 003   ----------------------------------------
	BYTE	W48
	BYTE		EOT   
	BYTE	W18
	BYTE		N06     An1 
	BYTE	W06
	BYTE		N06   
	BYTE	W12
	BYTE		        Cn2 
	BYTE	W06
	BYTE		        Dn2 
	BYTE	W06
// 004   ----------------------------------------
Sonic2AquaticRuinZoneSme_1_004:
	BYTE	W18
	BYTE		N18     Gn1   v104
	BYTE	W18
	BYTE		N12     As1 
	BYTE	W30
	BYTE		N18     Cn2 
	BYTE	W18
	BYTE		N12     Gn1 
	BYTE	W12
	BYTE	PEND
// 005   ----------------------------------------
Sonic2AquaticRuinZoneSme_1_005:
	BYTE	W18
	BYTE		N18     Fn1   v104
	BYTE	W18
	BYTE		N12     An1 
	BYTE	W30
	BYTE		N18     As1 
	BYTE	W18
	BYTE		N12     Fn1 
	BYTE	W12
	BYTE	PEND
// 006   ----------------------------------------
	BYTE	W18
	BYTE		N18     En1 
	BYTE	W18
	BYTE		N12     Gn1 
	BYTE	W30
	BYTE		N18     An1 
	BYTE	W18
	BYTE		N12     Cs2 
	BYTE	W12
// 007   ----------------------------------------
	BYTE	W18
	BYTE		N18     Dn1 
	BYTE	W18
	BYTE		N12     Fn1 
	BYTE	W30
	BYTE		N06     An1 
	BYTE	W06
	BYTE		        En1 
	BYTE	W06
	BYTE		        Fn1 
	BYTE	W06
	BYTE		        Gn1 
	BYTE	W06
	BYTE		        An1 
	BYTE	W06
// 008   ----------------------------------------
	BYTE	PATT
	 POIN2	Sonic2AquaticRuinZoneSme_1_004
// 009   ----------------------------------------
	BYTE	PATT
	 POIN2	Sonic2AquaticRuinZoneSme_1_005
// 010   ----------------------------------------
	BYTE	W18
	BYTE		N18     En2   v104
	BYTE	W18
	BYTE		N12     Cs2 
	BYTE	W30
	BYTE		N18     An1 
	BYTE	W18
	BYTE		N12     Cs2 
	BYTE	W12
// 011   ----------------------------------------
	BYTE	W18
	BYTE		N06     En2 
	BYTE	W06
	BYTE		N12   
	BYTE	W12
	BYTE		        An1 
	BYTE	W12
	BYTE		N06   
	BYTE	W06
	BYTE		N12   
	BYTE	W12
	BYTE		N06   
	BYTE	W06
	BYTE		        Dn2 
	BYTE	W06
	BYTE		N18     An1 
	BYTE	W18
// 012   ----------------------------------------
	BYTE		N12     Gn1 
	BYTE	W18
	BYTE		N18     Dn2 
	BYTE	W18
	BYTE		N12     Gn1 
	BYTE	W12
	BYTE		N12   
	BYTE	W18
	BYTE		N18     Dn2 
	BYTE	W18
	BYTE		N12     Gn1 
	BYTE	W12
// 013   ----------------------------------------
	BYTE		        Fn1 
	BYTE	W18
	BYTE		N18     Cn2 
	BYTE	W18
	BYTE		N12     Fn1 
	BYTE	W12
	BYTE		N12   
	BYTE	W18
	BYTE		N18     Cn2 
	BYTE	W18
	BYTE		N12     Fn1 
	BYTE	W12
// 014   ----------------------------------------
	BYTE		        En1 
	BYTE	W18
	BYTE		N18     En2 
	BYTE	W18
	BYTE		N12     Cs2 
	BYTE	W12
	BYTE		        An1 
	BYTE	W18
	BYTE		N18     En1 
	BYTE	W18
	BYTE		N12     An1 
	BYTE	W12
// 015   ----------------------------------------
	BYTE		        Dn2 
	BYTE	W18
	BYTE		N18     An1 
	BYTE	W18
	BYTE		N12     Fs1 
	BYTE	W20
	BYTE		N08     Dn1 
	BYTE	W08
	BYTE		        En1 
	BYTE	W08
	BYTE		        Fs1 
	BYTE	W08
	BYTE		        Gn1 
	BYTE	W08
	BYTE		        An1 
	BYTE	W08
// 016   ----------------------------------------
	BYTE		N12     Gn1 
	BYTE	W18
	BYTE		N18     Dn2 
	BYTE	W18
	BYTE		N12     Gn2 
	BYTE	W18
	BYTE		N06   
	BYTE	W12
	BYTE		N18     Dn2 
	BYTE	W18
	BYTE		N12     Gn1 
	BYTE	W12
// 017   ----------------------------------------
	BYTE		        Fn1 
	BYTE	W18
	BYTE		N18     Cn2 
	BYTE	W18
	BYTE		N12     Fn2 
	BYTE	W12
	BYTE		N12   
	BYTE	W18
	BYTE		N18     Cn2 
	BYTE	W18
	BYTE		N12     An1 
	BYTE	W12
// 018   ----------------------------------------
	BYTE		        En1 
	BYTE	W18
	BYTE		N18     An1 
	BYTE	W18
	BYTE		N12     Cs2 
	BYTE	W12
	BYTE		N18     En2 
	BYTE	W18
	BYTE		        Cs2 
	BYTE	W18
	BYTE		N12     An1 
	BYTE	W12
// 019   ----------------------------------------
	BYTE		N03     Dn1 
	BYTE		N03     Dn2 
	BYTE	W06
	BYTE		        Dn1 
	BYTE		N03     Dn2 
	BYTE	W06
	BYTE		N06     Dn1 
	BYTE		N06     Dn2 
	BYTE	W24
	BYTE		N03     Dn1 
	BYTE		N03     Dn2 
	BYTE	W06
	BYTE		        Dn1 
	BYTE		N03     Dn2 
	BYTE	W06
	BYTE		N06     Dn1 
	BYTE		N06     Dn2 
	BYTE	W36
	BYTE		        Cn2 
	BYTE	W06
	BYTE		        Dn2 
	BYTE	W06
	BYTE	GoTo
	 POIN2	Sonic2AquaticRuinZoneSme_1_B1
Sonic2AquaticRuinZoneSme_1_B2:
// 020   ----------------------------------------
	BYTE	FINE

//**************** Track 2 (Midi-Chn.2) ****************//

Sonic2AquaticRuinZoneSme_2:
	BYTE	KEYSH   Sonic2AquaticRuinZoneSme_key+0
Sonic2AquaticRuinZoneSme_2_B1:
// 000   ----------------------------------------
	BYTE		VOICE   34
	BYTE		VOL     64*Sonic2AquaticRuinZoneSme_mvl/mxv
	BYTE		TIE     Dn0   v104
	BYTE	W96
// 001   ----------------------------------------
	BYTE	W48
	BYTE		EOT   
	BYTE	W18
	BYTE		N06     An0 
	BYTE	W06
	BYTE		N06   
	BYTE	W12
	BYTE		        Cn1 
	BYTE	W06
	BYTE		        Dn1 
	BYTE	W06
// 002   ----------------------------------------
	BYTE		TIE     Dn0 
	BYTE	W96
// 003   ----------------------------------------
	BYTE	W48
	BYTE		EOT   
	BYTE	W18
	BYTE		N06     An0 
	BYTE	W06
	BYTE		N06   
	BYTE	W12
	BYTE		        Cn1 
	BYTE	W06
	BYTE		        Dn1 
	BYTE	W06
// 004   ----------------------------------------
Sonic2AquaticRuinZoneSme_2_004:
	BYTE	W18
	BYTE		N18     Gn0   v104
	BYTE	W18
	BYTE		N12     As0 
	BYTE	W30
	BYTE		N18     Cn1 
	BYTE	W18
	BYTE		N12     Gn0 
	BYTE	W12
	BYTE	PEND
// 005   ----------------------------------------
Sonic2AquaticRuinZoneSme_2_005:
	BYTE	W18
	BYTE		N18     Fn0   v104
	BYTE	W18
	BYTE		N12     An0 
	BYTE	W30
	BYTE		N18     As0 
	BYTE	W18
	BYTE		N12     Fn0 
	BYTE	W12
	BYTE	PEND
// 006   ----------------------------------------
	BYTE	W18
	BYTE		N18     En0 
	BYTE	W18
	BYTE		N12     Gn0 
	BYTE	W30
	BYTE		N18     An0 
	BYTE	W18
	BYTE		N12     Cs1 
	BYTE	W12
// 007   ----------------------------------------
	BYTE	W18
	BYTE		N18     Dn0 
	BYTE	W18
	BYTE		N12     Fn0 
	BYTE	W30
	BYTE		N06     An0 
	BYTE	W06
	BYTE		        En0 
	BYTE	W06
	BYTE		        Fn0 
	BYTE	W06
	BYTE		        Gn0 
	BYTE	W06
	BYTE		        An0 
	BYTE	W06
// 008   ----------------------------------------
	BYTE	PATT
	 POIN2	Sonic2AquaticRuinZoneSme_2_004
// 009   ----------------------------------------
	BYTE	PATT
	 POIN2	Sonic2AquaticRuinZoneSme_2_005
// 010   ----------------------------------------
	BYTE	W18
	BYTE		N18     En1   v104
	BYTE	W18
	BYTE		N12     Cs1 
	BYTE	W30
	BYTE		N18     An0 
	BYTE	W18
	BYTE		N12     Cs1 
	BYTE	W12
// 011   ----------------------------------------
	BYTE	W18
	BYTE		N06     En1 
	BYTE	W06
	BYTE		N12   
	BYTE	W12
	BYTE		        An0 
	BYTE	W12
	BYTE		N06   
	BYTE	W06
	BYTE		N12   
	BYTE	W12
	BYTE		N06   
	BYTE	W06
	BYTE		        Dn1 
	BYTE	W06
	BYTE		N18     An0 
	BYTE	W18
// 012   ----------------------------------------
	BYTE		N12     Gn0 
	BYTE	W18
	BYTE		N18     Dn1 
	BYTE	W18
	BYTE		N12     Gn0 
	BYTE	W12
	BYTE		N12   
	BYTE	W18
	BYTE		N18     Dn1 
	BYTE	W18
	BYTE		N12     Gn0 
	BYTE	W12
// 013   ----------------------------------------
	BYTE		        Fn0 
	BYTE	W18
	BYTE		N18     Cn1 
	BYTE	W18
	BYTE		N12     Fn0 
	BYTE	W12
	BYTE		N12   
	BYTE	W18
	BYTE		N18     Cn1 
	BYTE	W18
	BYTE		N12     Fn0 
	BYTE	W12
// 014   ----------------------------------------
	BYTE		        En0 
	BYTE	W18
	BYTE		N18     En1 
	BYTE	W18
	BYTE		N12     Cs1 
	BYTE	W12
	BYTE		        An0 
	BYTE	W18
	BYTE		N18     En0 
	BYTE	W18
	BYTE		N12     An0 
	BYTE	W12
// 015   ----------------------------------------
	BYTE		        Dn1 
	BYTE	W18
	BYTE		N18     An0 
	BYTE	W18
	BYTE		N12     Fs0 
	BYTE	W20
	BYTE		N08     Dn0 
	BYTE	W08
	BYTE		        En0 
	BYTE	W08
	BYTE		        Fs0 
	BYTE	W08
	BYTE		        Gn0 
	BYTE	W08
	BYTE		        An0 
	BYTE	W08
// 016   ----------------------------------------
	BYTE		N12     Gn0 
	BYTE	W18
	BYTE		N18     Dn1 
	BYTE	W18
	BYTE		N12     Gn1 
	BYTE	W18
	BYTE		N06   
	BYTE	W12
	BYTE		N18     Dn1 
	BYTE	W18
	BYTE		N12     Gn0 
	BYTE	W12
// 017   ----------------------------------------
	BYTE		        Fn0 
	BYTE	W18
	BYTE		N18     Cn1 
	BYTE	W18
	BYTE		N12     Fn1 
	BYTE	W12
	BYTE		N12   
	BYTE	W18
	BYTE		N18     Cn1 
	BYTE	W18
	BYTE		N12     An0 
	BYTE	W12
// 018   ----------------------------------------
	BYTE		        En0 
	BYTE	W18
	BYTE		N18     An0 
	BYTE	W18
	BYTE		N12     Cs1 
	BYTE	W12
	BYTE		N18     En1 
	BYTE	W18
	BYTE		        Cs1 
	BYTE	W18
	BYTE		N12     An0 
	BYTE	W12
// 019   ----------------------------------------
	BYTE		N03     Dn0 
	BYTE		N03     Dn1 
	BYTE	W06
	BYTE		        Dn0 
	BYTE		N03     Dn1 
	BYTE	W06
	BYTE		N06     Dn0 
	BYTE		N06     Dn1 
	BYTE	W24
	BYTE		N03     Dn0 
	BYTE		N03     Dn1 
	BYTE	W06
	BYTE		        Dn0 
	BYTE		N03     Dn1 
	BYTE	W06
	BYTE		N06     Dn0 
	BYTE		N06     Dn1 
	BYTE	W36
	BYTE		        Cn1 
	BYTE	W06
	BYTE		        Dn1 
	BYTE	W06
	BYTE	GoTo
	 POIN2	Sonic2AquaticRuinZoneSme_2_B1
Sonic2AquaticRuinZoneSme_2_B2:
// 020   ----------------------------------------
	BYTE	FINE

//**************** Track 3 (Midi-Chn.3) ****************//

Sonic2AquaticRuinZoneSme_3:
	BYTE	KEYSH   Sonic2AquaticRuinZoneSme_key+0
Sonic2AquaticRuinZoneSme_3_B1:
// 000   ----------------------------------------
	BYTE		VOICE   29
	BYTE		VOL     49*Sonic2AquaticRuinZoneSme_mvl/mxv
	BYTE		PAN     c_v+38
	BYTE		N12     An2   v104
	BYTE		N12     Dn3 
	BYTE	W12
	BYTE		N06   
	BYTE		N06     Fn3 
	BYTE	W06
	BYTE		N12     Gn2 
	BYTE		N12     Cn3 
	BYTE	W12
	BYTE		N12   
	BYTE		N12     En3 
	BYTE	W12
	BYTE		        An2 
	BYTE		N12     Dn3 
	BYTE	W12
	BYTE		        An2 
	BYTE		N12     Dn3 
	BYTE	W12
	BYTE		N06   
	BYTE		N06     Fn3 
	BYTE	W06
	BYTE		N12     Gn2 
	BYTE		N12     Cn3 
	BYTE	W12
	BYTE		N12   
	BYTE		N12     En3 
	BYTE	W12
// 001   ----------------------------------------
Sonic2AquaticRuinZoneSme_3_001:
	BYTE		N12     An2   v104
	BYTE		N12     Dn3 
	BYTE	W12
	BYTE		N06   
	BYTE		N06     Fn3 
	BYTE	W06
	BYTE		N12     Gn2 
	BYTE		N12     Cn3 
	BYTE	W12
	BYTE		N12   
	BYTE		N12     En3 
	BYTE	W12
	BYTE		N24     An2 
	BYTE		N24     Dn3 
	BYTE	W24
	BYTE		N06     Fn2 
	BYTE		N06     An2 
	BYTE	W06
	BYTE		        Fn2 
	BYTE		N06     An2 
	BYTE	W24
	BYTE	PEND
// 002   ----------------------------------------
	BYTE		N12   
	BYTE		N12     Dn3 
	BYTE	W12
	BYTE		N06   
	BYTE		N06     Fn3 
	BYTE	W06
	BYTE		N12     Gn2 
	BYTE		N12     Cn3 
	BYTE	W12
	BYTE		N12   
	BYTE		N12     En3 
	BYTE	W12
	BYTE		        An2 
	BYTE		N12     Dn3 
	BYTE	W12
	BYTE		        An2 
	BYTE		N12     Dn3 
	BYTE	W12
	BYTE		N06   
	BYTE		N06     Fn3 
	BYTE	W06
	BYTE		N12     Gn2 
	BYTE		N12     Cn3 
	BYTE	W12
	BYTE		N12   
	BYTE		N12     En3 
	BYTE	W12
// 003   ----------------------------------------
	BYTE	PATT
	 POIN2	Sonic2AquaticRuinZoneSme_3_001
// 004   ----------------------------------------
Sonic2AquaticRuinZoneSme_3_004:
	BYTE		N12     Gn2   v104
	BYTE		N12     As2 
	BYTE	W12
	BYTE		N06   
	BYTE		N06     Dn3 
	BYTE	W06
	BYTE		N12   
	BYTE		N12     Fn3 
	BYTE	W12
	BYTE		        Gn2 
	BYTE		N12     As2 
	BYTE	W12
	BYTE		N06     Gn2 
	BYTE		N06     Cn3 
	BYTE	W12
	BYTE		N12     Gn2 
	BYTE		N12     Cn3 
	BYTE	W12
	BYTE		N06     As2 
	BYTE		N06     En3 
	BYTE	W06
	BYTE		N12   
	BYTE		N12     Gn3 
	BYTE	W12
	BYTE		        Gn2 
	BYTE		N12     Cn3 
	BYTE	W12
	BYTE	PEND
// 005   ----------------------------------------
Sonic2AquaticRuinZoneSme_3_005:
	BYTE		N12     Cn3   v104
	BYTE		N12     Fn3 
	BYTE	W12
	BYTE		N06   
	BYTE		N06     An3 
	BYTE	W06
	BYTE		N12     An2 
	BYTE		N12     Cn3 
	BYTE	W12
	BYTE		N12   
	BYTE		N12     En3 
	BYTE	W12
	BYTE		        Dn3 
	BYTE		N12     Fn3 
	BYTE	W12
	BYTE		N06   
	BYTE		N06     An3 
	BYTE	W12
	BYTE		        Fn3 
	BYTE		N06     An3 
	BYTE	W06
	BYTE		N12     Fn2 
	BYTE		N12     As2 
	BYTE	W12
	BYTE		N12   
	BYTE		N12     Dn3 
	BYTE	W12
	BYTE	PEND
// 006   ----------------------------------------
Sonic2AquaticRuinZoneSme_3_006:
	BYTE		N12     As2   v104
	BYTE		N12     En3 
	BYTE	W12
	BYTE		N06   
	BYTE		N06     Gn3 
	BYTE	W06
	BYTE		N12     Gn2 
	BYTE		N12     Cs3 
	BYTE	W12
	BYTE		        As2 
	BYTE		N12     Dn3 
	BYTE	W12
	BYTE		        Cs3 
	BYTE		N12     En3 
	BYTE	W12
	BYTE		N06   
	BYTE		N06     Gn3 
	BYTE	W12
	BYTE		        En3 
	BYTE		N06     Gn3 
	BYTE	W06
	BYTE		N12     An2 
	BYTE		N12     Cs3 
	BYTE	W12
	BYTE		N12   
	BYTE		N12     En3 
	BYTE	W12
	BYTE	PEND
// 007   ----------------------------------------
Sonic2AquaticRuinZoneSme_3_007:
	BYTE		N12     An2   v104
	BYTE		N12     Dn3 
	BYTE	W12
	BYTE		N06   
	BYTE		N06     Fs3 
	BYTE	W06
	BYTE		N12     Fs2 
	BYTE		N12     An2 
	BYTE	W12
	BYTE		N12   
	BYTE		N12     Cn3 
	BYTE	W12
	BYTE		        An2 
	BYTE		N12     Dn3 
	BYTE	W12
	BYTE		N06   
	BYTE		N06     Fs3 
	BYTE	W12
	BYTE		        Dn3 
	BYTE		N06     Fs3 
	BYTE	W06
	BYTE		N12     Fs2 
	BYTE		N12     An2 
	BYTE	W12
	BYTE		N12   
	BYTE		N12     Cn3 
	BYTE	W12
	BYTE	PEND
// 008   ----------------------------------------
	BYTE	PATT
	 POIN2	Sonic2AquaticRuinZoneSme_3_004
// 009   ----------------------------------------
	BYTE	PATT
	 POIN2	Sonic2AquaticRuinZoneSme_3_005
// 010   ----------------------------------------
	BYTE	PATT
	 POIN2	Sonic2AquaticRuinZoneSme_3_006
// 011   ----------------------------------------
	BYTE	PATT
	 POIN2	Sonic2AquaticRuinZoneSme_3_007
// 012   ----------------------------------------
	BYTE	W96
// 013   ----------------------------------------
	BYTE	W96
// 014   ----------------------------------------
	BYTE	W96
// 015   ----------------------------------------
	BYTE	W96
// 016   ----------------------------------------
	BYTE	W96
// 017   ----------------------------------------
	BYTE	W96
// 018   ----------------------------------------
	BYTE	W96
// 019   ----------------------------------------
	BYTE	W96
	BYTE	GoTo
	 POIN2	Sonic2AquaticRuinZoneSme_3_B1
Sonic2AquaticRuinZoneSme_3_B2:
// 020   ----------------------------------------
	BYTE	FINE

//**************** Track 4 (Midi-Chn.4) ****************//

Sonic2AquaticRuinZoneSme_4:
	BYTE	KEYSH   Sonic2AquaticRuinZoneSme_key+0
Sonic2AquaticRuinZoneSme_4_B1:
// 000   ----------------------------------------
	BYTE		VOICE   88
	BYTE		VOL     63*Sonic2AquaticRuinZoneSme_mvl/mxv
	BYTE		PAN     c_v+24
	BYTE		N18     Dn4   v104
	BYTE	W18
	BYTE		        En4 
	BYTE	W18
	BYTE		N12     Fn4 
	BYTE	W12
	BYTE		TIE     An4 
	BYTE	W48
// 001   ----------------------------------------
	BYTE	W60
	BYTE		EOT   
	BYTE	W06
	BYTE		N06     Cs4 
	BYTE		N06     Gn4 
	BYTE	W06
	BYTE		        Cs4 
	BYTE		N06     Gn4 
	BYTE	W24
// 002   ----------------------------------------
	BYTE		N18     Dn4 
	BYTE	W18
	BYTE		        En4 
	BYTE	W18
	BYTE		N12     Fn4 
	BYTE	W12
	BYTE		TIE     An4 
	BYTE	W48
// 003   ----------------------------------------
	BYTE	W60
	BYTE		EOT   
	BYTE	W06
	BYTE		N06     Cs4 
	BYTE		N06     Gn4 
	BYTE	W06
	BYTE		        Cs4 
	BYTE		N06     Gn4 
	BYTE	W24
// 004   ----------------------------------------
	BYTE	W96
// 005   ----------------------------------------
	BYTE	W96
// 006   ----------------------------------------
	BYTE	W96
// 007   ----------------------------------------
	BYTE	W96
// 008   ----------------------------------------
	BYTE	W96
// 009   ----------------------------------------
	BYTE	W96
// 010   ----------------------------------------
	BYTE	W96
// 011   ----------------------------------------
	BYTE	W96
// 012   ----------------------------------------
	BYTE	W96
// 013   ----------------------------------------
	BYTE	W96
// 014   ----------------------------------------
	BYTE	W96
// 015   ----------------------------------------
	BYTE	W96
// 016   ----------------------------------------
	BYTE	W96
// 017   ----------------------------------------
	BYTE	W96
// 018   ----------------------------------------
	BYTE	W96
// 019   ----------------------------------------
	BYTE	W96
	BYTE	GoTo
	 POIN2	Sonic2AquaticRuinZoneSme_4_B1
Sonic2AquaticRuinZoneSme_4_B2:
// 020   ----------------------------------------
	BYTE	FINE

//**************** Track 5 (Midi-Chn.5) ****************//

Sonic2AquaticRuinZoneSme_5:
	BYTE	KEYSH   Sonic2AquaticRuinZoneSme_key+0
Sonic2AquaticRuinZoneSme_5_B1:
// 000   ----------------------------------------
	BYTE		VOICE   127
	BYTE		VOL     66*Sonic2AquaticRuinZoneSme_mvl/mxv
	BYTE		BEND    c_v+18
	BYTE		N06     Cn1   v104
	BYTE	W12
	BYTE		        Fs1 
	BYTE	W06
	BYTE		        Cn1 
	BYTE	W06
	BYTE		        Fs1 
	BYTE	W24
	BYTE		        Cn1 
	BYTE		N06     Fs1 
	BYTE	W18
	BYTE		        Cn1 
	BYTE		N06     Fs1 
	BYTE	W18
	BYTE		N06   
	BYTE	W12
// 001   ----------------------------------------
	BYTE		        Cn1 
	BYTE	W12
	BYTE		        Fs1 
	BYTE	W06
	BYTE		        Cn1 
	BYTE	W06
	BYTE		        Fs1 
	BYTE	W24
	BYTE		        Cn1 
	BYTE		N06     Fs1 
	BYTE	W18
	BYTE		        En1 
	BYTE		N06     Fs1 
	BYTE		N06     Fn4 
	BYTE	W06
	BYTE		        En1 
	BYTE		N06     Fn4 
	BYTE	W24
// 002   ----------------------------------------
	BYTE		        Cn1 
	BYTE	W12
	BYTE		        Fs1 
	BYTE	W06
	BYTE		        Cn1 
	BYTE	W06
	BYTE		        Fs1 
	BYTE	W12
	BYTE		        An1 
	BYTE		N06     Bn1 
	BYTE	W06
	BYTE		        An1 
	BYTE		N06     Bn1 
	BYTE	W06
	BYTE		        Cn1 
	BYTE		N06     Fs1 
	BYTE	W18
	BYTE		        Cn1 
	BYTE		N06     Fs1 
	BYTE	W18
	BYTE		N06   
	BYTE		N06     Gn1 
	BYTE		N06     An1 
	BYTE	W06
	BYTE		        Gn1 
	BYTE		N06     An1 
	BYTE	W06
// 003   ----------------------------------------
	BYTE		        Cn1 
	BYTE	W12
	BYTE		        Fs1 
	BYTE	W06
	BYTE		        Cn1 
	BYTE	W06
	BYTE		        Fs1 
	BYTE		N06     Bn1 
	BYTE		N06     Cn2 
	BYTE	W06
	BYTE		        Bn1 
	BYTE		N06     Cn2 
	BYTE	W06
	BYTE		        An1 
	BYTE		N06     Bn1 
	BYTE	W06
	BYTE		        An1 
	BYTE		N06     Bn1 
	BYTE	W06
	BYTE		        Cn1 
	BYTE		N06     Fn1 
	BYTE		N06     Fs1 
	BYTE		N06     Gn1 
	BYTE	W06
	BYTE		        Fn1 
	BYTE		N06     Gn1 
	BYTE	W12
	BYTE		        Dn1 
	BYTE		N06     En1 
	BYTE		N06     Fs1 
	BYTE		N06     Fn4 
	BYTE	W06
	BYTE		        Dn1 
	BYTE		N06     En1 
	BYTE		N06     Fn4 
	BYTE	W24
// 004   ----------------------------------------
Sonic2AquaticRuinZoneSme_5_004:
	BYTE		N06     Cn1   v104
	BYTE	W12
	BYTE		        Dn1 
	BYTE		N06     Fs1 
	BYTE	W12
	BYTE		N06   
	BYTE	W12
	BYTE		        Cn1 
	BYTE	W06
	BYTE		N06   
	BYTE	W06
	BYTE		        Fs1 
	BYTE	W12
	BYTE		        An1 
	BYTE		N06     Bn1 
	BYTE	W06
	BYTE		        Dn1 
	BYTE		N06     Fs1 
	BYTE	W12
	BYTE		        En1 
	BYTE		N06     Fn4 
	BYTE	W06
	BYTE		        Cn1 
	BYTE		N06     Fs1 
	BYTE	W12
	BYTE	PEND
// 005   ----------------------------------------
	BYTE	PATT
	 POIN2	Sonic2AquaticRuinZoneSme_5_004
// 006   ----------------------------------------
	BYTE	PATT
	 POIN2	Sonic2AquaticRuinZoneSme_5_004
// 007   ----------------------------------------
	BYTE		N06     En1   v104
	BYTE		N06     Fn4 
	BYTE	W06
	BYTE		        Dn1 
	BYTE	W06
	BYTE		        Fs1 
	BYTE	W06
	BYTE		        Dn1 
	BYTE	W06
	BYTE		N06   
	BYTE		N06     Fs1 
	BYTE	W12
	BYTE		        Dn1 
	BYTE	W12
	BYTE		N06   
	BYTE		N06     Fs1 
	BYTE	W12
	BYTE		        Dn1 
	BYTE	W06
	BYTE		        Fs1 
	BYTE	W06
	BYTE		        Dn1 
	BYTE	W06
	BYTE		N06   
	BYTE	W06
	BYTE		        En1 
	BYTE		N06     Fs1 
	BYTE		N06     Fn4 
	BYTE	W06
	BYTE		        En1 
	BYTE		N06     Fn4 
	BYTE	W06
// 008   ----------------------------------------
	BYTE	PATT
	 POIN2	Sonic2AquaticRuinZoneSme_5_004
// 009   ----------------------------------------
	BYTE	PATT
	 POIN2	Sonic2AquaticRuinZoneSme_5_004
// 010   ----------------------------------------
	BYTE	PATT
	 POIN2	Sonic2AquaticRuinZoneSme_5_004
// 011   ----------------------------------------
	BYTE		N04     En1   v104
	BYTE		N04     Fn4 
	BYTE	W04
	BYTE		        En1 
	BYTE		N04     Fn4 
	BYTE	W04
	BYTE		        En1 
	BYTE		N04     Fn4 
	BYTE	W04
	BYTE		        En1 
	BYTE		N06     Fs1 
	BYTE		N04     Fn4 
	BYTE	W04
	BYTE		        En1 
	BYTE		N04     Fn4 
	BYTE	W04
	BYTE		        En1 
	BYTE		N04     Fn4 
	BYTE	W04
	BYTE		N06     En1 
	BYTE		N06     Fs1 
	BYTE		N06     Fn4 
	BYTE	W12
	BYTE		        En1 
	BYTE		N06     Fn4 
	BYTE	W06
	BYTE		        En1 
	BYTE		N06     Fn4 
	BYTE	W06
	BYTE		        En1 
	BYTE		N06     Fs1 
	BYTE		N06     Fn4 
	BYTE	W06
	BYTE		        En1 
	BYTE		N06     Fn4 
	BYTE	W06
	BYTE		        En1 
	BYTE		N06     Fn4 
	BYTE	W06
	BYTE		        En1 
	BYTE		N06     Fs1 
	BYTE		N06     Fn4 
	BYTE	W06
	BYTE		        En1 
	BYTE		N06     Fn4 
	BYTE	W06
	BYTE		        En1 
	BYTE		N06     Fn4 
	BYTE	W06
	BYTE		        En1 
	BYTE		N06     Fs1 
	BYTE		N06     Fn4 
	BYTE	W12
// 012   ----------------------------------------
Sonic2AquaticRuinZoneSme_5_012:
	BYTE		N06     Cn1   v104
	BYTE	W12
	BYTE		        Dn1 
	BYTE		N06     Fs1 
	BYTE	W06
	BYTE		        Cn1 
	BYTE	W06
	BYTE		        Fs1 
	BYTE	W12
	BYTE		        Bn1 
	BYTE		N06     Cn2 
	BYTE	W06
	BYTE		        Bn1 
	BYTE		N06     Cn2 
	BYTE	W06
	BYTE		        Cn1 
	BYTE		N06     Fs1 
	BYTE	W12
	BYTE		        Dn1 
	BYTE	W06
	BYTE		        Cn1 
	BYTE		N06     Fs1 
	BYTE	W18
	BYTE		N06   
	BYTE		N06     Bn1 
	BYTE		N06     Cn2 
	BYTE	W06
	BYTE		        Bn1 
	BYTE		N06     Cn2 
	BYTE	W06
	BYTE	PEND
// 013   ----------------------------------------
	BYTE	PATT
	 POIN2	Sonic2AquaticRuinZoneSme_5_012
// 014   ----------------------------------------
	BYTE	PATT
	 POIN2	Sonic2AquaticRuinZoneSme_5_012
// 015   ----------------------------------------
	BYTE		N06     Cn1   v104
	BYTE	W12
	BYTE		        Dn1 
	BYTE		N06     Fs1 
	BYTE	W06
	BYTE		        Cn1 
	BYTE	W06
	BYTE		        En1 
	BYTE		N06     Fs1 
	BYTE		N06     Fn4 
	BYTE	W06
	BYTE		        En1 
	BYTE		N06     Fn4 
	BYTE	W12
	BYTE		        En1 
	BYTE		N06     Fn4 
	BYTE	W06
	BYTE		        Fs1 
	BYTE	W08
	BYTE		N04     Dn1 
	BYTE	W08
	BYTE		N04   
	BYTE	W02
	BYTE		N06     Fs1 
	BYTE	W06
	BYTE		N04     Dn1 
	BYTE	W08
	BYTE		N04   
	BYTE	W04
	BYTE		N06     Fs1 
	BYTE	W04
	BYTE		N04     Dn1 
	BYTE	W08
// 016   ----------------------------------------
	BYTE	PATT
	 POIN2	Sonic2AquaticRuinZoneSme_5_012
// 017   ----------------------------------------
	BYTE	PATT
	 POIN2	Sonic2AquaticRuinZoneSme_5_012
// 018   ----------------------------------------
	BYTE	PATT
	 POIN2	Sonic2AquaticRuinZoneSme_5_012
// 019   ----------------------------------------
	BYTE		N06     Dn1   v104
	BYTE		N06     En1 
	BYTE		N06     Fs1 
	BYTE		N06     Fn4 
	BYTE	W06
	BYTE		        Dn1 
	BYTE		N06     En1 
	BYTE		N06     Fs1 
	BYTE		N06     Fn4 
	BYTE	W06
	BYTE		        Dn1 
	BYTE		N06     En1 
	BYTE		N06     Fs1 
	BYTE		N06     Fn4 
	BYTE	W24
	BYTE		        Dn1 
	BYTE		N06     En1 
	BYTE		N06     Fs1 
	BYTE		N06     Fn4 
	BYTE	W06
	BYTE		        Dn1 
	BYTE		N06     En1 
	BYTE		N06     Fs1 
	BYTE		N06     Fn4 
	BYTE	W06
	BYTE		        Dn1 
	BYTE		N06     En1 
	BYTE		N06     Fs1 
	BYTE		N06     Fn4 
	BYTE	W24
	BYTE		        Cn1 
	BYTE	W12
	BYTE		        En1 
	BYTE		N06     Fn4 
	BYTE	W06
	BYTE		        En1 
	BYTE		N06     Fn4 
	BYTE	W06
	BYTE	GoTo
	 POIN2	Sonic2AquaticRuinZoneSme_5_B1
Sonic2AquaticRuinZoneSme_5_B2:
// 020   ----------------------------------------
	BYTE	FINE

//**************** Track 6 (Midi-Chn.6) ****************//

Sonic2AquaticRuinZoneSme_6:
	BYTE	KEYSH   Sonic2AquaticRuinZoneSme_key+0
Sonic2AquaticRuinZoneSme_6_B1:
// 000   ----------------------------------------
	BYTE		VOICE   76
	BYTE		VOL     60*Sonic2AquaticRuinZoneSme_mvl/mxv
	BYTE		PAN     c_v-26
	BYTE	W96
// 001   ----------------------------------------
Sonic2AquaticRuinZoneSme_6_001:
	BYTE		N06     An3   v104
	BYTE		N06     Dn4 
	BYTE	W06
	BYTE		        En4 
	BYTE		N06     An4 
	BYTE	W06
	BYTE		        An3 
	BYTE		N06     Dn4 
	BYTE	W06
	BYTE		        En4 
	BYTE		N06     An4 
	BYTE	W06
	BYTE		N24     An3 
	BYTE		N24     Dn4 
	BYTE	W42
	BYTE		N06     Fn3 
	BYTE		N06     Cs4 
	BYTE	W06
	BYTE		        Fn3 
	BYTE		N06     Cs4 
	BYTE	W24
	BYTE	PEND
// 002   ----------------------------------------
	BYTE	W96
// 003   ----------------------------------------
	BYTE	PATT
	 POIN2	Sonic2AquaticRuinZoneSme_6_001
// 004   ----------------------------------------
	BYTE	W96
// 005   ----------------------------------------
Sonic2AquaticRuinZoneSme_6_005:
	BYTE	W48
	BYTE		N06     Cn3   v104
	BYTE		N06     Fn3 
	BYTE	W06
	BYTE		        Dn3 
	BYTE		N06     Fn3 
	BYTE	W06
	BYTE		        An3 
	BYTE		N06     Cn4 
	BYTE	W06
	BYTE		N24     Fn3 
	BYTE		N24     An3 
	BYTE	W30
	BYTE	PEND
// 006   ----------------------------------------
	BYTE	W96
// 007   ----------------------------------------
	BYTE	W06
	BYTE		N06   
	BYTE		N06     Dn4 
	BYTE	W12
	BYTE		        An3 
	BYTE		N06     Dn4 
	BYTE	W06
	BYTE		        Gn3 
	BYTE		N06     Cn4 
	BYTE	W12
	BYTE		        Gn3 
	BYTE		N06     Cn4 
	BYTE	W12
	BYTE		        Fs3 
	BYTE		N06     As3 
	BYTE	W12
	BYTE		        Fs3 
	BYTE		N06     As3 
	BYTE	W12
	BYTE		        Fs3 
	BYTE		N06     An3 
	BYTE	W06
	BYTE		        Fs3 
	BYTE		N06     An3 
	BYTE	W18
// 008   ----------------------------------------
	BYTE	W96
// 009   ----------------------------------------
	BYTE	PATT
	 POIN2	Sonic2AquaticRuinZoneSme_6_005
// 010   ----------------------------------------
	BYTE	W96
// 011   ----------------------------------------
	BYTE	W06
	BYTE		N06     An3   v104
	BYTE		N06     Dn4 
	BYTE	W12
	BYTE		        Gn3 
	BYTE		N06     Dn4 
	BYTE	W06
	BYTE		        An3 
	BYTE		N06     Dn4 
	BYTE	W12
	BYTE		        Gn3 
	BYTE		N06     Dn4 
	BYTE	W12
	BYTE		N12     An3 
	BYTE		N12     Dn4 
	BYTE	W12
	BYTE		N06     Gn3 
	BYTE		N06     Cn4 
	BYTE	W06
	BYTE		N18     An3 
	BYTE		N18     Dn4 
	BYTE	W18
	BYTE		N02     Gn3 
	BYTE		N02     Cn4 
	BYTE	W02
	BYTE		        Fn3 
	BYTE		N02     Bn3 
	BYTE	W02
	BYTE		        En3 
	BYTE		N02     An3 
	BYTE	W02
	BYTE		        Dn3 
	BYTE		N02     Gn3 
	BYTE	W02
	BYTE		        Cn3 
	BYTE		N02     Fn3 
	BYTE	W02
	BYTE		        Bn2 
	BYTE		N02     En3 
	BYTE	W02
// 012   ----------------------------------------
	BYTE	W96
// 013   ----------------------------------------
	BYTE	W96
// 014   ----------------------------------------
	BYTE	W96
// 015   ----------------------------------------
	BYTE	W96
// 016   ----------------------------------------
	BYTE	W96
// 017   ----------------------------------------
	BYTE	W96
// 018   ----------------------------------------
	BYTE	W96
// 019   ----------------------------------------
	BYTE	W96
	BYTE	GoTo
	 POIN2	Sonic2AquaticRuinZoneSme_6_B1
Sonic2AquaticRuinZoneSme_6_B2:
// 020   ----------------------------------------
	BYTE	FINE

//**************** Track 7 (Midi-Chn.8) ****************//

Sonic2AquaticRuinZoneSme_7:
	BYTE	KEYSH   Sonic2AquaticRuinZoneSme_key+0
Sonic2AquaticRuinZoneSme_7_B1:
// 000   ----------------------------------------
	BYTE		VOICE   57
	BYTE		VOL     64*Sonic2AquaticRuinZoneSme_mvl/mxv
	BYTE		PAN     c_v+19
	BYTE	W96
// 001   ----------------------------------------
	BYTE	W96
// 002   ----------------------------------------
	BYTE	W96
// 003   ----------------------------------------
	BYTE	W84
	BYTE		N06     Dn4   v104
	BYTE	W06
	BYTE		        Cn4 
	BYTE	W06
// 004   ----------------------------------------
Sonic2AquaticRuinZoneSme_7_004:
	BYTE		N18     Dn4   v104
	BYTE	W18
	BYTE		        Fn4 
	BYTE	W18
	BYTE		N12     Dn4 
	BYTE	W12
	BYTE		        En4 
	BYTE	W36
	BYTE		        Gn4 
	BYTE	W12
	BYTE	PEND
// 005   ----------------------------------------
	BYTE		N06     Fn4 
	BYTE	W12
	BYTE		        Cn5 
	BYTE	W06
	BYTE		N60     An4 
	BYTE	W66
	BYTE		N06   
	BYTE	W12
// 006   ----------------------------------------
	BYTE		N18     As4 
	BYTE	W18
	BYTE		        An4 
	BYTE	W18
	BYTE		N06     Gn4 
	BYTE	W06
	BYTE		        Fn4 
	BYTE	W06
	BYTE		N24     En4 
	BYTE	W24
	BYTE		        Gn4 
	BYTE	W24
// 007   ----------------------------------------
	BYTE		N72     Fs4 
	BYTE	W84
	BYTE		N06     Dn4 
	BYTE	W06
	BYTE		        Cn4 
	BYTE	W06
// 008   ----------------------------------------
	BYTE	PATT
	 POIN2	Sonic2AquaticRuinZoneSme_7_004
// 009   ----------------------------------------
	BYTE		N06     Fn4   v104
	BYTE	W12
	BYTE		        Cn5 
	BYTE	W06
	BYTE		N60     An4 
	BYTE	W78
// 010   ----------------------------------------
	BYTE		N18     As4 
	BYTE	W18
	BYTE		        An4 
	BYTE	W18
	BYTE		N06     Gn4 
	BYTE	W06
	BYTE		        Fn4 
	BYTE	W06
	BYTE		N24     En4 
	BYTE	W24
	BYTE		        Cs4 
	BYTE	W24
// 011   ----------------------------------------
	BYTE		N72     Dn4 
	BYTE	W96
// 012   ----------------------------------------
	BYTE	W96
// 013   ----------------------------------------
	BYTE	W96
// 014   ----------------------------------------
	BYTE	W96
// 015   ----------------------------------------
	BYTE	W96
// 016   ----------------------------------------
	BYTE	W96
// 017   ----------------------------------------
	BYTE	W96
// 018   ----------------------------------------
	BYTE	W96
// 019   ----------------------------------------
	BYTE	W96
	BYTE	GoTo
	 POIN2	Sonic2AquaticRuinZoneSme_7_B1
Sonic2AquaticRuinZoneSme_7_B2:
// 020   ----------------------------------------
	BYTE	FINE

//**************** Track 8 (Midi-Chn.11) ****************//

Sonic2AquaticRuinZoneSme_8:
	BYTE	KEYSH   Sonic2AquaticRuinZoneSme_key+0
Sonic2AquaticRuinZoneSme_8_B1:
// 000   ----------------------------------------
	BYTE		VOICE   41
	BYTE		VOL     65*Sonic2AquaticRuinZoneSme_mvl/mxv
	BYTE		PAN     c_v+19
	BYTE	W96
// 001   ----------------------------------------
	BYTE	W96
// 002   ----------------------------------------
	BYTE	W96
// 003   ----------------------------------------
	BYTE	W96
// 004   ----------------------------------------
	BYTE	W96
// 005   ----------------------------------------
	BYTE	W96
// 006   ----------------------------------------
	BYTE	W96
// 007   ----------------------------------------
	BYTE	W96
// 008   ----------------------------------------
	BYTE	W96
// 009   ----------------------------------------
	BYTE	W96
// 010   ----------------------------------------
	BYTE	W96
// 011   ----------------------------------------
	BYTE	W96
// 012   ----------------------------------------
Sonic2AquaticRuinZoneSme_8_012:
	BYTE		N18     Cn4   v116
	BYTE	W18
	BYTE		        As3 
	BYTE	W18
	BYTE		        Gn3 
	BYTE	W18
	BYTE		N06     Cn4 
	BYTE	W12
	BYTE		        As3 
	BYTE	W06
	BYTE		        Cn4 
	BYTE	W12
	BYTE		        As3 
	BYTE	W12
	BYTE	PEND
// 013   ----------------------------------------
Sonic2AquaticRuinZoneSme_8_013:
	BYTE		N18     As3   v116
	BYTE	W18
	BYTE		        An3 
	BYTE	W18
	BYTE		        Fn3 
	BYTE	W18
	BYTE		N06     As3 
	BYTE	W12
	BYTE		        An3 
	BYTE	W06
	BYTE		        As3 
	BYTE	W12
	BYTE		        An3 
	BYTE	W12
	BYTE	PEND
// 014   ----------------------------------------
Sonic2AquaticRuinZoneSme_8_014:
	BYTE		N18     An3   v116
	BYTE	W18
	BYTE		        Gn3 
	BYTE	W18
	BYTE		        En3 
	BYTE	W18
	BYTE		N06     An3 
	BYTE	W12
	BYTE		        Gn3 
	BYTE	W06
	BYTE		        An3 
	BYTE	W12
	BYTE		        Gn3 
	BYTE	W12
	BYTE	PEND
// 015   ----------------------------------------
	BYTE		        Fs3 
	BYTE	W12
	BYTE		N06   
	BYTE	W12
	BYTE		        Gn3 
	BYTE	W06
	BYTE		N06   
	BYTE	W12
	BYTE		N48     An3 
	BYTE	W54
// 016   ----------------------------------------
	BYTE	PATT
	 POIN2	Sonic2AquaticRuinZoneSme_8_012
// 017   ----------------------------------------
	BYTE	PATT
	 POIN2	Sonic2AquaticRuinZoneSme_8_013
// 018   ----------------------------------------
	BYTE	PATT
	 POIN2	Sonic2AquaticRuinZoneSme_8_014
// 019   ----------------------------------------
	BYTE		N06     Fn3   v116
	BYTE	W06
	BYTE		N06   
	BYTE	W06
	BYTE		N06   
	BYTE	W24
	BYTE		N06   
	BYTE	W06
	BYTE		N06   
	BYTE	W06
	BYTE		N06   
	BYTE	W48
	BYTE	GoTo
	 POIN2	Sonic2AquaticRuinZoneSme_8_B1
Sonic2AquaticRuinZoneSme_8_B2:
// 020   ----------------------------------------
	BYTE	FINE

//**************** Track 9 (Midi-Chn.13) ****************//

Sonic2AquaticRuinZoneSme_9:
	BYTE	KEYSH   Sonic2AquaticRuinZoneSme_key+0
Sonic2AquaticRuinZoneSme_9_B1:
// 000   ----------------------------------------
	BYTE		VOICE   46
	BYTE		VOL     44*Sonic2AquaticRuinZoneSme_mvl/mxv
	BYTE		PAN     c_v-26
	BYTE	W96
// 001   ----------------------------------------
	BYTE	W96
// 002   ----------------------------------------
	BYTE	W96
// 003   ----------------------------------------
	BYTE	W96
// 004   ----------------------------------------
	BYTE	W96
// 005   ----------------------------------------
	BYTE	W96
// 006   ----------------------------------------
	BYTE	W96
// 007   ----------------------------------------
	BYTE	W96
// 008   ----------------------------------------
	BYTE	W96
// 009   ----------------------------------------
	BYTE	W96
// 010   ----------------------------------------
	BYTE	W96
// 011   ----------------------------------------
	BYTE	W96
// 012   ----------------------------------------
Sonic2AquaticRuinZoneSme_9_012:
	BYTE		N18     Fn4   v104
	BYTE		N18     As4 
	BYTE	W18
	BYTE		        Gn4 
	BYTE		N18     Cn5 
	BYTE	W18
	BYTE		        An4 
	BYTE		N18     Dn5 
	BYTE	W18
	BYTE		N06     An4 
	BYTE		N06     Dn5 
	BYTE	W12
	BYTE		        An4 
	BYTE		N06     Dn5 
	BYTE	W06
	BYTE		        Gn4 
	BYTE		N06     Cn5 
	BYTE	W12
	BYTE		        Gn4 
	BYTE		N06     As4 
	BYTE	W12
	BYTE	PEND
// 013   ----------------------------------------
Sonic2AquaticRuinZoneSme_9_013:
	BYTE		N48     Fn4   v104
	BYTE		N48     An4 
	BYTE	W54
	BYTE		N06   
	BYTE		N06     Cn5 
	BYTE	W12
	BYTE		        An4 
	BYTE		N06     Cn5 
	BYTE	W06
	BYTE		        Gn4 
	BYTE		N06     As4 
	BYTE	W12
	BYTE		        Fn4 
	BYTE		N06     An4 
	BYTE	W12
	BYTE	PEND
// 014   ----------------------------------------
Sonic2AquaticRuinZoneSme_9_014:
	BYTE		N48     En4   v104
	BYTE		N48     Gn4 
	BYTE	W54
	BYTE		N06   
	BYTE		N06     As4 
	BYTE	W12
	BYTE		        Gn4 
	BYTE		N06     As4 
	BYTE	W06
	BYTE		        Fn4 
	BYTE		N06     An4 
	BYTE	W12
	BYTE		        En4 
	BYTE		N06     Gn4 
	BYTE	W12
	BYTE	PEND
// 015   ----------------------------------------
	BYTE		        Fs4 
	BYTE		N06     An4 
	BYTE	W12
	BYTE		        Fs4 
	BYTE		N06     An4 
	BYTE	W12
	BYTE		        Gn4 
	BYTE		N06     As4 
	BYTE	W06
	BYTE		        Gn4 
	BYTE		N06     As4 
	BYTE	W12
	BYTE		        An4 
	BYTE		N06     Cn5 
	BYTE	W14
	BYTE		N08     Dn4 
	BYTE		N08     Fs4 
	BYTE	W08
	BYTE		        En4 
	BYTE		N08     Gn4 
	BYTE	W08
	BYTE		        Fs4 
	BYTE		N08     An4 
	BYTE	W08
	BYTE		        Gn4 
	BYTE		N08     As4 
	BYTE	W08
	BYTE		        An4 
	BYTE		N08     Cn5 
	BYTE	W08
// 016   ----------------------------------------
	BYTE	PATT
	 POIN2	Sonic2AquaticRuinZoneSme_9_012
// 017   ----------------------------------------
	BYTE	PATT
	 POIN2	Sonic2AquaticRuinZoneSme_9_013
// 018   ----------------------------------------
	BYTE	PATT
	 POIN2	Sonic2AquaticRuinZoneSme_9_014
// 019   ----------------------------------------
	BYTE		N06     Fn4   v104
	BYTE		N06     An4 
	BYTE	W06
	BYTE		        Fn4 
	BYTE		N06     An4 
	BYTE	W06
	BYTE		        Fn4 
	BYTE		N06     An4 
	BYTE	W24
	BYTE		        Fn4 
	BYTE		N06     An4 
	BYTE	W06
	BYTE		        Fn4 
	BYTE		N06     An4 
	BYTE	W06
	BYTE		        Fn4 
	BYTE		N06     An4 
	BYTE	W48
	BYTE	GoTo
	 POIN2	Sonic2AquaticRuinZoneSme_9_B1
Sonic2AquaticRuinZoneSme_9_B2:
// 020   ----------------------------------------
	BYTE	FINE

//**************** Track 10 (Midi-Chn.15) ****************//

Sonic2AquaticRuinZoneSme_10:
	BYTE	KEYSH   Sonic2AquaticRuinZoneSme_key+0
Sonic2AquaticRuinZoneSme_10_B1:
// 000   ----------------------------------------
	BYTE		VOICE   28
	BYTE		VOL     50*Sonic2AquaticRuinZoneSme_mvl/mxv
	BYTE		PAN     c_v+32
	BYTE	W96
// 001   ----------------------------------------
	BYTE	W96
// 002   ----------------------------------------
	BYTE	W96
// 003   ----------------------------------------
	BYTE	W96
// 004   ----------------------------------------
	BYTE	W96
// 005   ----------------------------------------
	BYTE	W96
// 006   ----------------------------------------
	BYTE	W96
// 007   ----------------------------------------
	BYTE	W96
// 008   ----------------------------------------
	BYTE	W96
// 009   ----------------------------------------
	BYTE	W96
// 010   ----------------------------------------
	BYTE	W96
// 011   ----------------------------------------
	BYTE	W96
// 012   ----------------------------------------
Sonic2AquaticRuinZoneSme_10_012:
	BYTE		N12     Gn3   v104
	BYTE	W12
	BYTE		N06     As3 
	BYTE	W06
	BYTE		N12     Dn3 
	BYTE	W12
	BYTE		        Fn3 
	BYTE	W12
	BYTE		        Gn3 
	BYTE	W12
	BYTE		N06     As3 
	BYTE	W12
	BYTE		        Dn3 
	BYTE	W06
	BYTE		N12     Fn3 
	BYTE	W12
	BYTE		N06     Gn3 
	BYTE	W12
	BYTE	PEND
// 013   ----------------------------------------
Sonic2AquaticRuinZoneSme_10_013:
	BYTE		N12     Fn3   v104
	BYTE	W12
	BYTE		N06     An3 
	BYTE	W06
	BYTE		N12     Cn3 
	BYTE	W12
	BYTE		        En3 
	BYTE	W12
	BYTE		        Fn3 
	BYTE	W12
	BYTE		N06     An3 
	BYTE	W12
	BYTE		        Cn3 
	BYTE	W06
	BYTE		N12     En3 
	BYTE	W12
	BYTE		N06     Fn3 
	BYTE	W12
	BYTE	PEND
// 014   ----------------------------------------
Sonic2AquaticRuinZoneSme_10_014:
	BYTE		N12     En3   v104
	BYTE	W12
	BYTE		N06     Gn3 
	BYTE	W06
	BYTE		N12     Cs3 
	BYTE	W12
	BYTE		        Dn3 
	BYTE	W12
	BYTE		N06     En3 
	BYTE	W12
	BYTE		        Gn3 
	BYTE	W12
	BYTE		        Cs3 
	BYTE	W06
	BYTE		N12     Dn3 
	BYTE	W12
	BYTE		N06     En3 
	BYTE	W12
	BYTE	PEND
// 015   ----------------------------------------
	BYTE		N12     Fs3 
	BYTE	W12
	BYTE		N06     An3 
	BYTE	W06
	BYTE		N12     Dn3 
	BYTE	W12
	BYTE		        En3 
	BYTE	W12
	BYTE		N06     Fs3 
	BYTE	W12
	BYTE		        An3 
	BYTE	W12
	BYTE		        Dn3 
	BYTE	W06
	BYTE		N12     En3 
	BYTE	W12
	BYTE		N06     Fs3 
	BYTE	W12
// 016   ----------------------------------------
	BYTE	PATT
	 POIN2	Sonic2AquaticRuinZoneSme_10_012
// 017   ----------------------------------------
	BYTE	PATT
	 POIN2	Sonic2AquaticRuinZoneSme_10_013
// 018   ----------------------------------------
	BYTE	PATT
	 POIN2	Sonic2AquaticRuinZoneSme_10_014
// 019   ----------------------------------------
	BYTE		N03     An3   v104
	BYTE	W06
	BYTE		N03   
	BYTE	W06
	BYTE		N06   
	BYTE	W24
	BYTE		N03   
	BYTE	W06
	BYTE		N03   
	BYTE	W06
	BYTE		N06   
	BYTE	W48
	BYTE	GoTo
	 POIN2	Sonic2AquaticRuinZoneSme_10_B1
Sonic2AquaticRuinZoneSme_10_B2:
// 020   ----------------------------------------
	BYTE	FINE

//******************************************************//
	ALIGN 4

Sonic2AquaticRuinZoneSme:
	BYTE	10	// NumTrks
	BYTE	0	// NumBlks
	BYTE	Sonic2AquaticRuinZoneSme_pri	// Priority
	BYTE	Sonic2AquaticRuinZoneSme_rev	// Reverb.

	POIN2	Sonic2AquaticRuinZoneSme_grp

	POIN2	Sonic2AquaticRuinZoneSme_1
	POIN2	Sonic2AquaticRuinZoneSme_2
	POIN2	Sonic2AquaticRuinZoneSme_3
	POIN2	Sonic2AquaticRuinZoneSme_4
	POIN2	Sonic2AquaticRuinZoneSme_5
	POIN2	Sonic2AquaticRuinZoneSme_6
	POIN2	Sonic2AquaticRuinZoneSme_7
	POIN2	Sonic2AquaticRuinZoneSme_8
	POIN2	Sonic2AquaticRuinZoneSme_9
	POIN2	Sonic2AquaticRuinZoneSme_10

	
