//Event file generated from Sappy .s format.
	#include "MPlayDef.event"

	#define	Sonic2006HisWorldSurfingKyogre_grp  voicegroup000
	#define	Sonic2006HisWorldSurfingKyogre_pri  0
	#define	Sonic2006HisWorldSurfingKyogre_rev  0
	#define	Sonic2006HisWorldSurfingKyogre_mvl  127
	#define	Sonic2006HisWorldSurfingKyogre_key  0
	#define	Sonic2006HisWorldSurfingKyogre_tbs  1
	#define	Sonic2006HisWorldSurfingKyogre_exg  0
	#define	Sonic2006HisWorldSurfingKyogre_cmp  1

	// .rodata
	//	Sonic2006HisWorldSurfingKyogre
	ALIGN 4


//**************** Track 1 (Midi-Chn.0) ****************//

Sonic2006HisWorldSurfingKyogre_001:
// 000   ----------------------------------------
 BYTE   VOL   65*Sonic2006HisWorldSurfingKyogre_mvl/mxv
 BYTE   KEYSH   Sonic2006HisWorldSurfingKyogre_key+0
 BYTE   TEMPO   170*Sonic2006HisWorldSurfingKyogre_tbs/2
 BYTE   VOICE   60
 BYTE   W96
// 001   ----------------------------------------
 BYTE   W96
// 002   ----------------------------------------
 BYTE   W96
// 003   ----------------------------------------
 BYTE   W96
// 004   ----------------------------------------
 BYTE   W96
// 005   ----------------------------------------
 BYTE   W96
// 006   ----------------------------------------
 BYTE   W96
// 007   ----------------------------------------
 BYTE   W96
// 008   ----------------------------------------
 BYTE   W96
// 009   ----------------------------------------
 BYTE   W96
// 010   ----------------------------------------
 BYTE   W96
// 011   ----------------------------------------
 BYTE   W96
// 012   ----------------------------------------
 BYTE   W96
// 013   ----------------------------------------
 BYTE   W96
// 014   ----------------------------------------
 BYTE   W96
// 015   ----------------------------------------
 BYTE   W96
// 016   ----------------------------------------
Label_0_01815230:
 BYTE   W96
// 017   ----------------------------------------
 BYTE   W96
// 018   ----------------------------------------
 BYTE   W96
// 019   ----------------------------------------
 BYTE   W96
// 020   ----------------------------------------
 BYTE   W96
// 021   ----------------------------------------
 BYTE   W96
// 022   ----------------------------------------
 BYTE   W96
// 023   ----------------------------------------
 BYTE   W96
// 024   ----------------------------------------
 BYTE   W96
// 025   ----------------------------------------
 BYTE   W96
// 026   ----------------------------------------
 BYTE   W96
// 027   ----------------------------------------
 BYTE   W96
// 028   ----------------------------------------
 BYTE   W96
// 029   ----------------------------------------
 BYTE   W96
// 030   ----------------------------------------
 BYTE   W96
// 031   ----------------------------------------
 BYTE   W96
// 032   ----------------------------------------
 BYTE   W96
// 033   ----------------------------------------
 BYTE   W96
// 034   ----------------------------------------
Label_0_01815242:
 BYTE   W48
 BYTE   N23  Ds3  v127
 BYTE   W24
 BYTE   Ds4
 BYTE   W24
 BYTE   PEND 
// 035   ----------------------------------------
Label_0_0181524A:
 BYTE   TIE  Cs4  v127
 BYTE   W24
 BYTE   N23  Cs3
 BYTE   N23  Fs3
 BYTE   W24
 BYTE   N44  Cs3
 BYTE   N44  Fs3
 BYTE   W48
 BYTE   PEND 
// 036   ----------------------------------------
 BYTE   W68
 BYTE   W03
 BYTE   EOT
 BYTE   Cs4
 BYTE   W13
 BYTE   N11  Ds4
 BYTE   W12
// 037   ----------------------------------------
Label_0_01815261:
 BYTE   N68  Cs4  v127
 BYTE   W72
 BYTE   N11  Bn3
 BYTE   W12
 BYTE   N56  As3
 BYTE   W12
 BYTE   PEND 
 BYTE   PATT
  POIN2 Label_0_01815242
 BYTE   PATT
  POIN2 Label_0_0181524A
// 038   ----------------------------------------
 BYTE   W68
 BYTE   W03
 BYTE   EOT
 BYTE   Cs4
 BYTE   W13
 BYTE   N11  Ds4  v127
 BYTE   W12
 BYTE   PATT
  POIN2 Label_0_01815261
 BYTE   PATT
  POIN2 Label_0_01815242
 BYTE   PATT
  POIN2 Label_0_0181524A
// 039   ----------------------------------------
 BYTE   W92
 BYTE   W03
 BYTE   EOT
 BYTE   Cs4
 BYTE   W01
// 040   ----------------------------------------
Label_0_01815293:
 BYTE   N44  Cs4  v127
 BYTE   W48
 BYTE   N32  Bn3
 BYTE   W36
 BYTE   N11  As3
 BYTE   W12
 BYTE   PEND 
// 041   ----------------------------------------
Label_0_0181529E:
 BYTE   W12
 BYTE   N11  As3  v127
 BYTE   W12
 BYTE   N23
 BYTE   W24
 BYTE   Ds3
 BYTE   W24
 BYTE   Ds4
 BYTE   W24
 BYTE   PEND 
// 042   ----------------------------------------
Label_0_018152AA:
 BYTE   N80  Cs4  v127
 BYTE   W84
 BYTE   N11  Ds4
 BYTE   W12
 BYTE   PEND 
// 043   ----------------------------------------
Label_0_018152B2:
 BYTE   N23  Fn4  v127
 BYTE   W24
 BYTE   Cs4
 BYTE   W24
 BYTE   N44  As3
 BYTE   W48
 BYTE   PEND 
// 044   ----------------------------------------
Label_0_018152BC:
 BYTE   N68  Fs4  v127
 BYTE   W84
 BYTE   N23  As4
 BYTE   W12
 BYTE   PEND 
// 045   ----------------------------------------
 BYTE   W12
 BYTE   N11  Gs4
 BYTE   W12
 BYTE   N23  Fs4
 BYTE   W24
 BYTE   Ds3
 BYTE   W24
 BYTE   Ds4
 BYTE   W24
 BYTE   PATT
  POIN2 Label_0_0181524A
// 046   ----------------------------------------
 BYTE   W68
 BYTE   W03
 BYTE   EOT
 BYTE   Cs4
 BYTE   W13
 BYTE   N11  Ds4  v127
 BYTE   W12
 BYTE   PATT
  POIN2 Label_0_01815261
 BYTE   PATT
  POIN2 Label_0_01815242
 BYTE   PATT
  POIN2 Label_0_0181524A
// 047   ----------------------------------------
 BYTE   W68
 BYTE   W03
 BYTE   EOT
 BYTE   Cs4
 BYTE   W13
 BYTE   N11  Ds4  v127
 BYTE   W12
 BYTE   PATT
  POIN2 Label_0_01815261
 BYTE   PATT
  POIN2 Label_0_01815242
 BYTE   PATT
  POIN2 Label_0_0181524A
// 048   ----------------------------------------
 BYTE   W92
 BYTE   W03
 BYTE   EOT
 BYTE   Cs4
 BYTE   W01
 BYTE   PATT
  POIN2 Label_0_01815293
 BYTE   PATT
  POIN2 Label_0_0181529E
 BYTE   PATT
  POIN2 Label_0_018152AA
 BYTE   PATT
  POIN2 Label_0_018152B2
 BYTE   PATT
  POIN2 Label_0_018152BC
// 049   ----------------------------------------
 BYTE   W12
 BYTE   N11  Gs4  v127
 BYTE   W12
 BYTE   N68  Fs4
 BYTE   W72
// 050   ----------------------------------------
 BYTE   GoTo
  POIN2 Label_0_01815230
// 051   ----------------------------------------
 BYTE   W96
// 052   ----------------------------------------
 BYTE   W96
// 053   ----------------------------------------
 BYTE   W96
// 054   ----------------------------------------
 BYTE   W96
// 055   ----------------------------------------
 BYTE   W96
// 056   ----------------------------------------
 BYTE   W96
// 057   ----------------------------------------
 BYTE   W96
// 058   ----------------------------------------
 BYTE   W96
// 059   ----------------------------------------
 BYTE   W96
// 060   ----------------------------------------
 BYTE   W96
// 061   ----------------------------------------
 BYTE   W96
// 062   ----------------------------------------
 BYTE   W96
// 063   ----------------------------------------
 BYTE   W96
// 064   ----------------------------------------
 BYTE   W96
// 065   ----------------------------------------
 BYTE   W96
// 066   ----------------------------------------
 BYTE   W96
// 067   ----------------------------------------
 BYTE   W96
// 068   ----------------------------------------
 BYTE   W96
// 069   ----------------------------------------
 BYTE   W96
// 070   ----------------------------------------
 BYTE   W96
// 071   ----------------------------------------
 BYTE   W96
 BYTE   FINE

//**************** Track 2 (Midi-Chn.1) ****************//

Sonic2006HisWorldSurfingKyogre_002:
// 000   ----------------------------------------
 BYTE   KEYSH   Sonic2006HisWorldSurfingKyogre_key+0
 BYTE   VOICE   48
 BYTE   PAN   c_v+0
 BYTE   VOL   51*Sonic2006HisWorldSurfingKyogre_mvl/mxv
 BYTE   PAN   c_v+0
 BYTE   VOL   51*Sonic2006HisWorldSurfingKyogre_mvl/mxv
 BYTE   PAN   c_v+0
 BYTE   VOL   51*Sonic2006HisWorldSurfingKyogre_mvl/mxv
 BYTE   PAN   c_v+0
 BYTE   VOL   51*Sonic2006HisWorldSurfingKyogre_mvl/mxv
 BYTE   BEND   c_v+0
 BYTE   N80  Ds1  v100
 BYTE   N11  Ds2
 BYTE   N80  As2  v084
 BYTE   N11  Ds3  v100
 BYTE   N11  Fs3
 BYTE   W12
 BYTE   N05  As3
 BYTE   W12
 BYTE   Fn4
 BYTE   W12
 BYTE   As3
 BYTE   W12
 BYTE   Fs4
 BYTE   W12
 BYTE   As3
 BYTE   W12
 BYTE   Gs4
 BYTE   W12
 BYTE   TIE  Cs1
 BYTE   N11  Ds2
 BYTE   TIE  Gs2  v072
 BYTE   N11  Ds3  v100
 BYTE   N11  Fs3
 BYTE   N05  As3
 BYTE   N05  Ds4
 BYTE   W12
// 001   ----------------------------------------
Label_1_01816292:
 BYTE   W12
 BYTE   N05  Gs3  v100
 BYTE   W12
 BYTE   Fn4
 BYTE   W12
 BYTE   Gs3
 BYTE   W12
 BYTE   Fs4
 BYTE   W12
 BYTE   Gs3
 BYTE   W12
 BYTE   Gs4
 BYTE   W12
 BYTE   Gs3
 BYTE   W11
 BYTE   PEND 
 BYTE   EOT
 BYTE   Cs1  v056
 BYTE   W01
// 002   ----------------------------------------
 BYTE   N80  Bn0
 BYTE   N11  Ds2
 BYTE   N56  As2  v068
 BYTE   N11  Ds3  v100
 BYTE   N11  Fs3
 BYTE   N05  Ds4
 BYTE   W12
 BYTE   As3
 BYTE   W12
 BYTE   Fn4
 BYTE   W12
 BYTE   As3
 BYTE   W12
 BYTE   Fs4
 BYTE   W12
 BYTE   N11  Ds2
 BYTE   N11  Fs2
 BYTE   N11  As2
 BYTE   N11  Ds3
 BYTE   N05  As3
 BYTE   W12
 BYTE   N11  Fn2
 BYTE   N11  Gs2
 BYTE   N11  Bn2
 BYTE   N11  Fn3
 BYTE   N05  Gs4
 BYTE   W12
 BYTE   N44  Gs0
 BYTE   N32  Fs2
 BYTE   N11  As2
 BYTE   N32  Ds3
 BYTE   N32  Fs3
 BYTE   N05  As3
 BYTE   W12
// 003   ----------------------------------------
Label_1_018162E2:
 BYTE   N32  As2  v100
 BYTE   N05  Ds4
 BYTE   W24
 BYTE   N11  Fs2
 BYTE   N05  Gs3
 BYTE   N05  Fn4
 BYTE   W12
 BYTE   N56  As0
 BYTE   N05  Ds2
 BYTE   N12  Gs2
 BYTE   N05  Ds3
 BYTE   N05  Ds4
 BYTE   W06
 BYTE   Fn2
 BYTE   N05  Fn3
 BYTE   N05  Fn4
 BYTE   W06
 BYTE   Gs2
 BYTE   N05  Fs3
 BYTE   N05  As3
 BYTE   N05  Fs4
 BYTE   W12
 BYTE   Fn2
 BYTE   N05  Fn3
 BYTE   N05  Gs3
 BYTE   N05  Fn4
 BYTE   W12
 BYTE   Ds2
 BYTE   N05  Ds3
 BYTE   N05  Fs3
 BYTE   N05  Ds4
 BYTE   W12
 BYTE   Cs2
 BYTE   N05  Cs3
 BYTE   N05  Fn3
 BYTE   N05  Cs4
 BYTE   W12
 BYTE   PEND 
// 004   ----------------------------------------
 BYTE   N80  Ds1
 BYTE   N11  Ds2
 BYTE   N80  As2
 BYTE   N05  Ds3
 BYTE   N05  Fs3
 BYTE   N05  Ds4
 BYTE   W12
 BYTE   As3
 BYTE   W12
 BYTE   Fn4
 BYTE   W12
 BYTE   As3
 BYTE   W12
 BYTE   Fs4
 BYTE   W12
 BYTE   As3
 BYTE   W12
 BYTE   Gs4
 BYTE   W12
 BYTE   N92  Cs1
 BYTE   N11  Ds2
 BYTE   N05  Ds3
 BYTE   N05  Fs3
 BYTE   N05  As3
 BYTE   N05  Ds4
 BYTE   W12
// 005   ----------------------------------------
 BYTE   W12
 BYTE   Gs3
 BYTE   W12
 BYTE   Fn4
 BYTE   W12
 BYTE   Gs3
 BYTE   W12
 BYTE   N11  Gs1
 BYTE   N11  Fs2
 BYTE   N05  Fs4
 BYTE   W12
 BYTE   N11  As1
 BYTE   N11  Gs2
 BYTE   N05  Gs3
 BYTE   N05  Fn4
 BYTE   W12
 BYTE   N11  Bn1
 BYTE   N11  As2
 BYTE   N05  Ds4
 BYTE   W12
 BYTE   N92  Bn0
 BYTE   TIE  Cs2  v048
 BYTE   N92  Cs3
 BYTE   N11  Gs3  v100
 BYTE   N92  Cs4
 BYTE   W12
// 006   ----------------------------------------
 BYTE   N80  Fs3
 BYTE   W60
 BYTE   N11  Gs1
 BYTE   W12
 BYTE   As1
 BYTE   W12
 BYTE   N44  Gs0
 BYTE   N11  Bn1
 BYTE   N44  Bn2
 BYTE   N44  Ds3
 BYTE   N44  Fs3
 BYTE   W11
 BYTE   EOT
 BYTE   Cs2
 BYTE   W01
// 007   ----------------------------------------
 BYTE   N11
 BYTE   N92  As4
 BYTE   W12
 BYTE   N11  Fs2
 BYTE   W12
 BYTE   As2
 BYTE   W12
 BYTE   N56  As0
 BYTE   N56  Cs3
 BYTE   N56  Fn3
 BYTE   N56  Gs3
 BYTE   W12
 BYTE   N11  Gs2
 BYTE   W12
 BYTE   Fs2
 BYTE   W12
 BYTE   Fn2
 BYTE   W12
 BYTE   Cs2
 BYTE   W12
// 008   ----------------------------------------
 BYTE   N80  Ds1
 BYTE   N11  Ds2
 BYTE   N80  As2
 BYTE   N11  Ds3
 BYTE   N11  Fs3
 BYTE   W12
 BYTE   N05  As3
 BYTE   W12
 BYTE   Fn4
 BYTE   W12
 BYTE   As3
 BYTE   W12
 BYTE   Fs4
 BYTE   W12
 BYTE   As3
 BYTE   W12
 BYTE   Gs4
 BYTE   W12
 BYTE   TIE  Cs1
 BYTE   N11  Ds2
 BYTE   TIE  Gs2
 BYTE   N11  Ds3
 BYTE   N11  Fs3
 BYTE   N05  As3
 BYTE   N05  Ds4
 BYTE   W12
 BYTE   PATT
  POIN2 Label_1_01816292
// 009   ----------------------------------------
 BYTE   EOT
 BYTE   Cs1  v056
 BYTE   W01
 BYTE   N80  Bn0  v100
 BYTE   N11  Ds2
 BYTE   N56  As2
 BYTE   N11  Ds3
 BYTE   N11  Fs3
 BYTE   N05  Ds4
 BYTE   W12
 BYTE   As3
 BYTE   W12
 BYTE   Fn4
 BYTE   W12
 BYTE   As3
 BYTE   W12
 BYTE   Fs4
 BYTE   W12
 BYTE   N11  Ds2
 BYTE   N11  Fs2
 BYTE   N11  As2
 BYTE   N11  Ds3
 BYTE   N05  As3
 BYTE   W12
 BYTE   N11  Fn2
 BYTE   N11  Gs2
 BYTE   N11  Bn2
 BYTE   N11  Fn3
 BYTE   N05  Gs4
 BYTE   W12
 BYTE   N44  Gs0
 BYTE   N32  Fs2
 BYTE   N11  As2
 BYTE   N32  Ds3
 BYTE   N32  Fs3
 BYTE   N05  As3
 BYTE   W12
 BYTE   PATT
  POIN2 Label_1_018162E2
// 010   ----------------------------------------
 BYTE   N80  Ds1  v100
 BYTE   N11  Ds2
 BYTE   N80  As2
 BYTE   N05  Ds3
 BYTE   N05  Fs3
 BYTE   N05  Ds4
 BYTE   W12
 BYTE   As3
 BYTE   W12
 BYTE   Fn4
 BYTE   W12
 BYTE   As3
 BYTE   W12
 BYTE   Fs4  v096
 BYTE   W12
 BYTE   As3
 BYTE   W12
 BYTE   Gs4
 BYTE   W12
 BYTE   TIE  Cs1
 BYTE   N11  Ds2
 BYTE   TIE  Gs2
 BYTE   N05  Ds3
 BYTE   N05  Fs3
 BYTE   N05  As3
 BYTE   N05  Ds4
 BYTE   W12
// 011   ----------------------------------------
 BYTE   W12
 BYTE   Gs3
 BYTE   W12
 BYTE   Fn4
 BYTE   W12
 BYTE   Gs3
 BYTE   W12
 BYTE   Fs4
 BYTE   W12
 BYTE   Gs3
 BYTE   W12
 BYTE   Gs4
 BYTE   W12
 BYTE   Gs3
 BYTE   W11
 BYTE   EOT
 BYTE   Cs1  v056
 BYTE   W01
// 012   ----------------------------------------
 BYTE   N11  Bn0
 BYTE   N11  Ds2
 BYTE   N11  As2
 BYTE   N05  Ds3
 BYTE   N05  Fs3
 BYTE   N05  As4
 BYTE   W12
 BYTE   As3
 BYTE   W12
 BYTE   Gs4
 BYTE   W12
 BYTE   As3
 BYTE   W12
 BYTE   Fs4
 BYTE   W12
 BYTE   As3
 BYTE   W12
 BYTE   Gs4
 BYTE   W12
 BYTE   N11  Gs0
 BYTE   N44  Bn1
 BYTE   N11  Gs2
 BYTE   N05  Ds3
 BYTE   N05  As3
 BYTE   N40  Fs4
 BYTE   W12
// 013   ----------------------------------------
 BYTE   W24
 BYTE   N11  Gs2
 BYTE   N05  Gs3
 BYTE   W12
 BYTE   N11  As0
 BYTE   N44  Cs2
 BYTE   N05  Ds3
 BYTE   N52  Fn4
 BYTE   W06
 BYTE   N05  Fn3
 BYTE   W06
 BYTE   N11  As2
 BYTE   N05  Fs3
 BYTE   N05  As3
 BYTE   W12
 BYTE   N11  Gs2
 BYTE   N05  Fn3
 BYTE   N05  Gs3
 BYTE   W12
 BYTE   N11  Fs2  v100
 BYTE   N05  Ds3
 BYTE   N05  Fs3
 BYTE   W12
 BYTE   N11  Fn2
 BYTE   N05  Cs3
 BYTE   N05  Fn3
 BYTE   W12
// 014   ----------------------------------------
Label_1_018164A3:
 BYTE   W96
// 015   ----------------------------------------
 BYTE   W96
// 016   ----------------------------------------
 BYTE   W96
// 017   ----------------------------------------
 BYTE   W96
// 018   ----------------------------------------
 BYTE   W96
// 019   ----------------------------------------
 BYTE   W96
// 020   ----------------------------------------
 BYTE   W96
// 021   ----------------------------------------
 BYTE   W96
// 022   ----------------------------------------
 BYTE   W96
// 023   ----------------------------------------
 BYTE   W96
// 024   ----------------------------------------
 BYTE   W96
// 025   ----------------------------------------
 BYTE   W96
// 026   ----------------------------------------
 BYTE   W96
// 027   ----------------------------------------
 BYTE   W96
// 028   ----------------------------------------
 BYTE   W96
// 029   ----------------------------------------
 BYTE   W96
// 030   ----------------------------------------
 BYTE   W96
// 031   ----------------------------------------
 BYTE   W96
// 032   ----------------------------------------
 BYTE   W96
// 033   ----------------------------------------
Label_1_018164B6:
 BYTE   N80  Bn0  v080
 BYTE   N80  Bn1
 BYTE   N80  Ds3
 BYTE   W84
 BYTE   TIE  Cs1
 BYTE   TIE  Cs2
 BYTE   TIE  Fn3
 BYTE   W12
 BYTE   PEND 
// 034   ----------------------------------------
 BYTE   W92
 BYTE   W03
 BYTE   EOT
 BYTE   Cs1  v049
 BYTE   Fn3
 BYTE   W01
// 035   ----------------------------------------
Label_1_018164CD:
 BYTE   N80  Ds1  v080
 BYTE   N80  Ds2
 BYTE   N92  Ds3
 BYTE   N92  Fs3
 BYTE   W84
 BYTE   TIE  Fs0
 BYTE   TIE  Fs2
 BYTE   W12
 BYTE   PEND 
// 036   ----------------------------------------
Label_1_018164DD:
 BYTE   N92  Cs3  v080
 BYTE   N92  Fs3
 BYTE   W92
 BYTE   W03
 BYTE   PEND 
 BYTE   EOT
 BYTE   Fs0  v054
 BYTE   W01
 BYTE   PATT
  POIN2 Label_1_018164B6
// 037   ----------------------------------------
 BYTE   W92
 BYTE   W03
 BYTE   EOT
 BYTE   Cs1  v049
 BYTE   Fn3
 BYTE   W01
 BYTE   PATT
  POIN2 Label_1_018164CD
 BYTE   PATT
  POIN2 Label_1_018164DD
// 038   ----------------------------------------
 BYTE   EOT
 BYTE   Fs0  v054
 BYTE   W01
Label_1_01816503:
 BYTE   N80  Bn0  v080
 BYTE   N80  Bn1
 BYTE   N80  Bn2
 BYTE   N80  Ds3
 BYTE   W84
 BYTE   TIE  Cs1
 BYTE   TIE  Cs2
 BYTE   TIE  Cs3
 BYTE   TIE  Fn3
 BYTE   W12
 BYTE   PEND 
// 039   ----------------------------------------
 BYTE   W92
 BYTE   W03
 BYTE   EOT
 BYTE   Cs1  v049
 BYTE   Cs3  v065
 BYTE   W01
// 040   ----------------------------------------
Label_1_0181651F:
 BYTE   N44  Ds1  v080
 BYTE   N44  Ds2
 BYTE   N44  Ds3
 BYTE   N44  Fs3
 BYTE   W48
 BYTE   N32  Cs1
 BYTE   N32  Cs2
 BYTE   N32  Cs3
 BYTE   N32  Fn3
 BYTE   W36
 BYTE   TIE  Bn0
 BYTE   TIE  Bn1
 BYTE   TIE  Bn2
 BYTE   TIE  Ds3
 BYTE   W12
 BYTE   PEND 
// 041   ----------------------------------------
 BYTE   W92
 BYTE   W03
 BYTE   EOT
 BYTE   Bn0  v047
 BYTE   Bn2  v063
 BYTE   W01
 BYTE   PATT
  POIN2 Label_1_018164B6
// 042   ----------------------------------------
 BYTE   W92
 BYTE   W03
 BYTE   EOT
 BYTE   Cs1  v049
 BYTE   Fn3
 BYTE   W01
 BYTE   PATT
  POIN2 Label_1_018164CD
 BYTE   PATT
  POIN2 Label_1_018164DD
// 043   ----------------------------------------
 BYTE   EOT
 BYTE   Fs0  v054
 BYTE   W01
 BYTE   PATT
  POIN2 Label_1_018164B6
// 044   ----------------------------------------
 BYTE   W92
 BYTE   W03
 BYTE   EOT
 BYTE   Cs1  v049
 BYTE   Fn3
 BYTE   W01
 BYTE   PATT
  POIN2 Label_1_018164CD
 BYTE   PATT
  POIN2 Label_1_018164DD
// 045   ----------------------------------------
 BYTE   EOT
 BYTE   Fs0  v054
 BYTE   W01
 BYTE   PATT
  POIN2 Label_1_018164B6
// 046   ----------------------------------------
 BYTE   W92
 BYTE   W03
 BYTE   EOT
 BYTE   Cs1  v049
 BYTE   Fn3
 BYTE   W01
 BYTE   PATT
  POIN2 Label_1_018164CD
 BYTE   PATT
  POIN2 Label_1_018164DD
// 047   ----------------------------------------
 BYTE   EOT
 BYTE   Fs0  v054
 BYTE   W01
 BYTE   PATT
  POIN2 Label_1_01816503
// 048   ----------------------------------------
 BYTE   W92
 BYTE   W03
 BYTE   EOT
 BYTE   Cs1  v049
 BYTE   Cs3  v065
 BYTE   W01
 BYTE   PATT
  POIN2 Label_1_0181651F
// 049   ----------------------------------------
 BYTE   W92
 BYTE   W03
 BYTE   EOT
 BYTE   Bn0  v047
 BYTE   Bn2  v063
 BYTE   W01
 BYTE   PATT
  POIN2 Label_1_018164B6
// 050   ----------------------------------------
 BYTE   W92
 BYTE   W03
 BYTE   EOT
 BYTE   Cs1  v049
 BYTE   Fn3
 BYTE   W01
 BYTE   PATT
  POIN2 Label_1_018164CD
 BYTE   PATT
  POIN2 Label_1_018164DD
// 051   ----------------------------------------
 BYTE   EOT
 BYTE   Fs0  v054
 BYTE   W01
 BYTE   GoTo
  POIN2 Label_1_018164A3
// 052   ----------------------------------------
 BYTE   W96
// 053   ----------------------------------------
 BYTE   W96
// 054   ----------------------------------------
 BYTE   W96
// 055   ----------------------------------------
 BYTE   W96
// 056   ----------------------------------------
 BYTE   W96
// 057   ----------------------------------------
 BYTE   W96
// 058   ----------------------------------------
 BYTE   W96
// 059   ----------------------------------------
 BYTE   W96
// 060   ----------------------------------------
 BYTE   W96
// 061   ----------------------------------------
 BYTE   W96
// 062   ----------------------------------------
 BYTE   W96
// 063   ----------------------------------------
 BYTE   W96
// 064   ----------------------------------------
 BYTE   W96
// 065   ----------------------------------------
 BYTE   W96
// 066   ----------------------------------------
 BYTE   W96
// 067   ----------------------------------------
 BYTE   W96
// 068   ----------------------------------------
 BYTE   W96
// 069   ----------------------------------------
 BYTE   W96
// 070   ----------------------------------------
 BYTE   W96
// 071   ----------------------------------------
 BYTE   W96
// 072   ----------------------------------------
 BYTE   W96
 BYTE   FINE

//**************** Track 3 (Midi-Chn.2) ****************//

Sonic2006HisWorldSurfingKyogre_003:
// 000   ----------------------------------------
 BYTE   KEYSH   Sonic2006HisWorldSurfingKyogre_key+0
 BYTE   VOICE   24
 BYTE   PAN   c_v+0
 BYTE   VOL   44*Sonic2006HisWorldSurfingKyogre_mvl/mxv
 BYTE   PAN   c_v+0
 BYTE   VOL   44*Sonic2006HisWorldSurfingKyogre_mvl/mxv
 BYTE   PAN   c_v+0
 BYTE   VOL   44*Sonic2006HisWorldSurfingKyogre_mvl/mxv
 BYTE   PAN   c_v+0
 BYTE   VOL   44*Sonic2006HisWorldSurfingKyogre_mvl/mxv
 BYTE   BEND   c_v+0
 BYTE   W96
// 001   ----------------------------------------
 BYTE   W96
// 002   ----------------------------------------
 BYTE   W96
// 003   ----------------------------------------
 BYTE   W96
// 004   ----------------------------------------
 BYTE   W96
// 005   ----------------------------------------
 BYTE   W96
// 006   ----------------------------------------
 BYTE   W96
// 007   ----------------------------------------
 BYTE   W96
// 008   ----------------------------------------
Label_2_01815442:
 BYTE   N92  Ds2  v100
 BYTE   W12
 BYTE   N80  Fs2
 BYTE   W12
 BYTE   N68  As2
 BYTE   W12
 BYTE   N56  Ds3
 BYTE   W60
 BYTE   PEND 
// 009   ----------------------------------------
Label_2_01815450:
 BYTE   N92  Cs2  v100
 BYTE   W12
 BYTE   N80  Fs2
 BYTE   W12
 BYTE   N68  As2
 BYTE   W12
 BYTE   N56  Ds3
 BYTE   W60
 BYTE   PEND 
// 010   ----------------------------------------
Label_2_0181545E:
 BYTE   N56  Ds2  v100
 BYTE   W12
 BYTE   N44  Fs2
 BYTE   W12
 BYTE   N32  As2
 BYTE   W12
 BYTE   N23  Ds3
 BYTE   W24
 BYTE   N11  Cs2
 BYTE   W01
 BYTE   Fs2
 BYTE   W01
 BYTE   N10  As2
 BYTE   W10
 BYTE   N11  Fn2
 BYTE   W01
 BYTE   Gs2
 BYTE   W01
 BYTE   N10  Bn2
 BYTE   W10
 BYTE   N44  Fs2
 BYTE   W01
 BYTE   As2
 BYTE   W01
 BYTE   Cs3
 BYTE   W10
 BYTE   PEND 
// 011   ----------------------------------------
Label_2_01815483:
 BYTE   W36
 BYTE   N56  Fn2  v100
 BYTE   W01
 BYTE   Gs2
 BYTE   W01
 BYTE   Cs3
 BYTE   W22
 BYTE   N32  Gs3
 BYTE   W36
 BYTE   PEND 
 BYTE   PATT
  POIN2 Label_2_01815442
 BYTE   PATT
  POIN2 Label_2_01815450
 BYTE   PATT
  POIN2 Label_2_0181545E
 BYTE   PATT
  POIN2 Label_2_01815483
// 012   ----------------------------------------
Label_2_018154A4:
 BYTE   W96
// 013   ----------------------------------------
 BYTE   W96
// 014   ----------------------------------------
 BYTE   W96
// 015   ----------------------------------------
 BYTE   W96
// 016   ----------------------------------------
 BYTE   W96
// 017   ----------------------------------------
 BYTE   W96
// 018   ----------------------------------------
 BYTE   W96
// 019   ----------------------------------------
 BYTE   W96
// 020   ----------------------------------------
 BYTE   W96
// 021   ----------------------------------------
 BYTE   W96
// 022   ----------------------------------------
 BYTE   W96
// 023   ----------------------------------------
 BYTE   W96
// 024   ----------------------------------------
 BYTE   W96
// 025   ----------------------------------------
 BYTE   W96
// 026   ----------------------------------------
 BYTE   W96
// 027   ----------------------------------------
 BYTE   W96
// 028   ----------------------------------------
 BYTE   W96
// 029   ----------------------------------------
 BYTE   W96
// 030   ----------------------------------------
 BYTE   W96
// 031   ----------------------------------------
 BYTE   W96
// 032   ----------------------------------------
 BYTE   W96
// 033   ----------------------------------------
 BYTE   W96
// 034   ----------------------------------------
 BYTE   W96
// 035   ----------------------------------------
 BYTE   W96
// 036   ----------------------------------------
 BYTE   W96
// 037   ----------------------------------------
 BYTE   W96
// 038   ----------------------------------------
 BYTE   W96
// 039   ----------------------------------------
 BYTE   W96
// 040   ----------------------------------------
 BYTE   W96
// 041   ----------------------------------------
 BYTE   W96
// 042   ----------------------------------------
 BYTE   W96
// 043   ----------------------------------------
 BYTE   W96
// 044   ----------------------------------------
 BYTE   W96
// 045   ----------------------------------------
 BYTE   W96
// 046   ----------------------------------------
 BYTE   W96
// 047   ----------------------------------------
 BYTE   W96
// 048   ----------------------------------------
 BYTE   W96
// 049   ----------------------------------------
 BYTE   W96
// 050   ----------------------------------------
 BYTE   W96
// 051   ----------------------------------------
 BYTE   W96
// 052   ----------------------------------------
 BYTE   W96
// 053   ----------------------------------------
 BYTE   W96
// 054   ----------------------------------------
 BYTE   W96
// 055   ----------------------------------------
 BYTE   W96
// 056   ----------------------------------------
 BYTE   W96
// 057   ----------------------------------------
 BYTE   W96
// 058   ----------------------------------------
 BYTE   W96
// 059   ----------------------------------------
 BYTE   W96
// 060   ----------------------------------------
 BYTE   W96
// 061   ----------------------------------------
 BYTE   W96
// 062   ----------------------------------------
 BYTE   W96
// 063   ----------------------------------------
 BYTE   GoTo
  POIN2 Label_2_018154A4
// 064   ----------------------------------------
 BYTE   W96
// 065   ----------------------------------------
 BYTE   W96
// 066   ----------------------------------------
 BYTE   W96
// 067   ----------------------------------------
 BYTE   W96
// 068   ----------------------------------------
 BYTE   W96
// 069   ----------------------------------------
 BYTE   W96
// 070   ----------------------------------------
 BYTE   W96
// 071   ----------------------------------------
 BYTE   W96
// 072   ----------------------------------------
 BYTE   W96
// 073   ----------------------------------------
 BYTE   W96
// 074   ----------------------------------------
 BYTE   W96
// 075   ----------------------------------------
 BYTE   W96
// 076   ----------------------------------------
 BYTE   W96
// 077   ----------------------------------------
 BYTE   W96
// 078   ----------------------------------------
 BYTE   W96
// 079   ----------------------------------------
 BYTE   W96
// 080   ----------------------------------------
 BYTE   W96
// 081   ----------------------------------------
 BYTE   W96
// 082   ----------------------------------------
 BYTE   W96
// 083   ----------------------------------------
 BYTE   W96
// 084   ----------------------------------------
 BYTE   W96
 BYTE   FINE

//**************** Track 4 (Midi-Chn.3) ****************//

Sonic2006HisWorldSurfingKyogre_004:
// 000   ----------------------------------------
 BYTE   KEYSH   Sonic2006HisWorldSurfingKyogre_key+0
 BYTE   VOICE   33
 BYTE   PAN   c_v+0
 BYTE   VOL   57*Sonic2006HisWorldSurfingKyogre_mvl/mxv
 BYTE   PAN   c_v+0
 BYTE   VOL   57*Sonic2006HisWorldSurfingKyogre_mvl/mxv
 BYTE   PAN   c_v+0
 BYTE   VOL   57*Sonic2006HisWorldSurfingKyogre_mvl/mxv
 BYTE   PAN   c_v+0
 BYTE   VOL   57*Sonic2006HisWorldSurfingKyogre_mvl/mxv
 BYTE   BEND   c_v+0
 BYTE   W96
// 001   ----------------------------------------
 BYTE   W96
// 002   ----------------------------------------
 BYTE   W96
// 003   ----------------------------------------
 BYTE   W96
// 004   ----------------------------------------
 BYTE   W96
// 005   ----------------------------------------
 BYTE   W96
// 006   ----------------------------------------
 BYTE   W96
// 007   ----------------------------------------
 BYTE   W96
// 008   ----------------------------------------
Label_3_01815B8E:
 BYTE   N80  Ds1  v100
 BYTE   W84
 BYTE   TIE  Cs1
 BYTE   W12
 BYTE   PEND 
// 009   ----------------------------------------
 BYTE   W92
 BYTE   W03
 BYTE   EOT
 BYTE   W01
// 010   ----------------------------------------
 BYTE   N56  Bn0
 BYTE   W60
 BYTE   N11  Fs0
 BYTE   W12
 BYTE   Gn0
 BYTE   W12
 BYTE   N44  Gs0
 BYTE   W12
// 011   ----------------------------------------
 BYTE   W36
 BYTE   N56  As0
 BYTE   W60
 BYTE   PATT
  POIN2 Label_3_01815B8E
// 012   ----------------------------------------
 BYTE   W92
 BYTE   W03
 BYTE   EOT
 BYTE   Cs1
 BYTE   W01
// 013   ----------------------------------------
Label_3_01815BB3:
 BYTE   N56  Bn0  v100
 BYTE   W60
 BYTE   N11  Fs0
 BYTE   W12
 BYTE   Gn0
 BYTE   W12
 BYTE   N23  Gs0
 BYTE   W12
 BYTE   PEND 
// 014   ----------------------------------------
 BYTE   W12
 BYTE   N11  Fs0
 BYTE   W12
 BYTE   Gs0
 BYTE   W12
 BYTE   N56  As0
 BYTE   W60
// 015   ----------------------------------------
Label_3_01815BC9:
 BYTE   N11  Ds1  v100
 BYTE   W12
 BYTE   N11
 BYTE   W48
 BYTE   Ds0
 BYTE   W12
 BYTE   As0
 BYTE   W12
 BYTE   Ds1
 BYTE   W12
 BYTE   PEND 
// 016   ----------------------------------------
 BYTE   Cs1
 BYTE   W96
// 017   ----------------------------------------
Label_3_01815BD8:
 BYTE   N11  Bn0  v100
 BYTE   W12
 BYTE   N11
 BYTE   W48
 BYTE   Fs0
 BYTE   W12
 BYTE   Gn0
 BYTE   W12
 BYTE   N44  Gs0
 BYTE   W12
 BYTE   PEND 
// 018   ----------------------------------------
 BYTE   W36
 BYTE   N56  As0
 BYTE   W60
 BYTE   PATT
  POIN2 Label_3_01815BC9
// 019   ----------------------------------------
 BYTE   N11  Cs1  v100
 BYTE   W96
// 020   ----------------------------------------
Label_3_01815BF3:
 BYTE   N44  Gs0  v100
 BYTE   W48
 BYTE   As0
 BYTE   W48
 BYTE   PEND 
// 021   ----------------------------------------
Label_3_01815BFA:
 BYTE   N44  Bn0  v100
 BYTE   W48
 BYTE   Cs1
 BYTE   W48
 BYTE   PEND 
// 022   ----------------------------------------
 BYTE   N11  Ds1
 BYTE   W12
 BYTE   As0
 BYTE   W12
 BYTE   Ds1
 BYTE   W12
 BYTE   N23
 BYTE   W24
 BYTE   N11  As0
 BYTE   W12
 BYTE   Ds0
 BYTE   W12
 BYTE   Fs0
 BYTE   W12
// 023   ----------------------------------------
 BYTE   Cs1
 BYTE   W12
 BYTE   Gs0
 BYTE   W12
 BYTE   Cs1
 BYTE   W12
 BYTE   Gs0
 BYTE   W12
 BYTE   Cs1
 BYTE   W12
 BYTE   Gs0
 BYTE   W12
 BYTE   Cs1
 BYTE   W12
 BYTE   Gs0
 BYTE   W12
 BYTE   PATT
  POIN2 Label_3_01815BB3
// 024   ----------------------------------------
 BYTE   W12
 BYTE   N11  Fs0  v100
 BYTE   W12
 BYTE   Gs0
 BYTE   W12
 BYTE   N23  As0
 BYTE   W24
 BYTE   N11
 BYTE   W12
 BYTE   N11
 BYTE   W12
 BYTE   N11
 BYTE   W12
// 025   ----------------------------------------
 BYTE   Ds1
 BYTE   W12
 BYTE   As0
 BYTE   W12
 BYTE   Ds1
 BYTE   W12
 BYTE   N23
 BYTE   W24
 BYTE   N11  As0
 BYTE   W12
 BYTE   N23  Ds1
 BYTE   W24
// 026   ----------------------------------------
 BYTE   N11  Cs1
 BYTE   W12
 BYTE   Fs0
 BYTE   W12
 BYTE   Cs1
 BYTE   W12
 BYTE   N23
 BYTE   W24
 BYTE   N11  Fs0
 BYTE   W12
 BYTE   N23  Cs1
 BYTE   W24
 BYTE   PATT
  POIN2 Label_3_01815BF3
 BYTE   PATT
  POIN2 Label_3_01815BFA
 BYTE   PATT
  POIN2 Label_3_01815BF3
// 027   ----------------------------------------
Label_3_01815C62:
 BYTE   N32  Bn0  v100
 BYTE   W36
 BYTE   TIE  Cs1
 BYTE   W60
 BYTE   PEND 
// 028   ----------------------------------------
 BYTE   W60
 BYTE   N11  As0  v127
 BYTE   W12
 BYTE   N23  Fs1  v124
 BYTE   W23
 BYTE   EOT
 BYTE   Cs1
 BYTE   W01
// 029   ----------------------------------------
Label_3_01815C76:
 BYTE   N23  Bn0  v080
 BYTE   W24
 BYTE   N23
 BYTE   W24
 BYTE   N11
 BYTE   W12
 BYTE   N11
 BYTE   W12
 BYTE   N11
 BYTE   W12
 BYTE   N23  Cs1
 BYTE   W12
 BYTE   PEND 
// 030   ----------------------------------------
Label_3_01815C86:
 BYTE   W12
 BYTE   N11  Gs0  v080
 BYTE   W12
 BYTE   N23  Cs1
 BYTE   W24
 BYTE   N11
 BYTE   W12
 BYTE   Gs0
 BYTE   W12
 BYTE   N23  Cs1
 BYTE   W24
 BYTE   PEND 
// 031   ----------------------------------------
Label_3_01815C96:
 BYTE   N11  Ds1  v080
 BYTE   W12
 BYTE   N11
 BYTE   W12
 BYTE   N23  As0
 BYTE   W24
 BYTE   N11  Ds1
 BYTE   W12
 BYTE   N23
 BYTE   W24
 BYTE   Fs0
 BYTE   W12
 BYTE   PEND 
// 032   ----------------------------------------
Label_3_01815CA7:
 BYTE   W12
 BYTE   N11  Fs0  v080
 BYTE   W12
 BYTE   N23
 BYTE   W24
 BYTE   N11
 BYTE   W12
 BYTE   N11
 BYTE   W12
 BYTE   N11
 BYTE   W12
 BYTE   N11
 BYTE   W12
 BYTE   PEND 
 BYTE   PATT
  POIN2 Label_3_01815C76
 BYTE   PATT
  POIN2 Label_3_01815C86
// 033   ----------------------------------------
Label_3_01815CC1:
 BYTE   N11  Ds1  v080
 BYTE   W12
 BYTE   N11
 BYTE   W12
 BYTE   N23  As0
 BYTE   W24
 BYTE   N11  Ds1
 BYTE   W12
 BYTE   N23
 BYTE   W24
 BYTE   TIE  Fs0
 BYTE   W12
 BYTE   PEND 
// 034   ----------------------------------------
 BYTE   W92
 BYTE   W03
 BYTE   EOT
 BYTE   W01
 BYTE   PATT
  POIN2 Label_3_01815C76
 BYTE   PATT
  POIN2 Label_3_01815C86
// 035   ----------------------------------------
Label_3_01815CE1:
 BYTE   N44  Ds1  v080
 BYTE   W48
 BYTE   N32  Cs1
 BYTE   W36
 BYTE   N23  Bn0
 BYTE   W12
 BYTE   PEND 
// 036   ----------------------------------------
Label_3_01815CEC:
 BYTE   W12
 BYTE   N11  Fs0  v080
 BYTE   W12
 BYTE   Cs1
 BYTE   W12
 BYTE   N56  Bn0
 BYTE   W60
 BYTE   PEND 
 BYTE   PATT
  POIN2 Label_3_01815C76
 BYTE   PATT
  POIN2 Label_3_01815C86
 BYTE   PATT
  POIN2 Label_3_01815C96
 BYTE   PATT
  POIN2 Label_3_01815CA7
 BYTE   PATT
  POIN2 Label_3_01815C76
 BYTE   PATT
  POIN2 Label_3_01815C86
 BYTE   PATT
  POIN2 Label_3_01815C96
 BYTE   PATT
  POIN2 Label_3_01815CA7
 BYTE   PATT
  POIN2 Label_3_01815C76
 BYTE   PATT
  POIN2 Label_3_01815C86
 BYTE   PATT
  POIN2 Label_3_01815C96
 BYTE   PATT
  POIN2 Label_3_01815CA7
 BYTE   PATT
  POIN2 Label_3_01815C76
 BYTE   PATT
  POIN2 Label_3_01815C86
 BYTE   PATT
  POIN2 Label_3_01815CE1
 BYTE   PATT
  POIN2 Label_3_01815CEC
 BYTE   PATT
  POIN2 Label_3_01815C76
 BYTE   PATT
  POIN2 Label_3_01815C86
 BYTE   PATT
  POIN2 Label_3_01815CC1
// 037   ----------------------------------------
 BYTE   W92
 BYTE   W03
 BYTE   EOT
 BYTE   Fs0
 BYTE   W01
// 038   ----------------------------------------
 BYTE   GoTo
  POIN2 Label_3_01815BC9
 BYTE   PATT
  POIN2 Label_3_01815BC9
// 039   ----------------------------------------
 BYTE   N11  Cs1  v100
 BYTE   W96
 BYTE   PATT
  POIN2 Label_3_01815BD8
// 040   ----------------------------------------
 BYTE   W36
 BYTE   N56  As0  v100
 BYTE   W60
 BYTE   PATT
  POIN2 Label_3_01815BC9
// 041   ----------------------------------------
 BYTE   N11  Cs1  v100
 BYTE   W96
 BYTE   PATT
  POIN2 Label_3_01815BF3
 BYTE   PATT
  POIN2 Label_3_01815BFA
 BYTE   PATT
  POIN2 Label_3_01815BF3
 BYTE   PATT
  POIN2 Label_3_01815BFA
 BYTE   PATT
  POIN2 Label_3_01815BF3
 BYTE   PATT
  POIN2 Label_3_01815C62
// 042   ----------------------------------------
 BYTE   W92
 BYTE   W03
 BYTE   EOT
 BYTE   Cs1
 BYTE   W01
// 043   ----------------------------------------
 BYTE   W96
// 044   ----------------------------------------
 BYTE   W96
// 045   ----------------------------------------
 BYTE   W96
// 046   ----------------------------------------
 BYTE   W96
// 047   ----------------------------------------
 BYTE   W96
// 048   ----------------------------------------
 BYTE   W96
// 049   ----------------------------------------
 BYTE   W96
// 050   ----------------------------------------
 BYTE   W96
 BYTE   FINE

//**************** Track 5 (Midi-Chn.4) ****************//

Sonic2006HisWorldSurfingKyogre_005:
// 000   ----------------------------------------
 BYTE   KEYSH   Sonic2006HisWorldSurfingKyogre_key+0
 BYTE   VOICE   30
 BYTE   PAN   c_v+0
 BYTE   VOL   58*Sonic2006HisWorldSurfingKyogre_mvl/mxv
 BYTE   PAN   c_v+0
 BYTE   VOL   58*Sonic2006HisWorldSurfingKyogre_mvl/mxv
 BYTE   PAN   c_v+0
 BYTE   VOL   58*Sonic2006HisWorldSurfingKyogre_mvl/mxv
 BYTE   PAN   c_v+0
 BYTE   VOL   58*Sonic2006HisWorldSurfingKyogre_mvl/mxv
 BYTE   BEND   c_v+0
 BYTE   W96
// 001   ----------------------------------------
 BYTE   W96
// 002   ----------------------------------------
 BYTE   W96
// 003   ----------------------------------------
 BYTE   W96
// 004   ----------------------------------------
 BYTE   W96
// 005   ----------------------------------------
 BYTE   W96
// 006   ----------------------------------------
 BYTE   W96
// 007   ----------------------------------------
 BYTE   W96
// 008   ----------------------------------------
 BYTE   W96
// 009   ----------------------------------------
 BYTE   W96
// 010   ----------------------------------------
 BYTE   W96
// 011   ----------------------------------------
 BYTE   W96
// 012   ----------------------------------------
 BYTE   W96
// 013   ----------------------------------------
 BYTE   W96
// 014   ----------------------------------------
 BYTE   W96
// 015   ----------------------------------------
 BYTE   W96
// 016   ----------------------------------------
Label_4_01815EA2:
 BYTE   N11  Ds2  v100
 BYTE   W12
 BYTE   N11
 BYTE   W72
 BYTE   Cs2
 BYTE   W12
 BYTE   PEND 
// 017   ----------------------------------------
 BYTE   W96
// 018   ----------------------------------------
Label_4_01815EAC:
 BYTE   N11  Ds2  v100
 BYTE   W12
 BYTE   N11
 BYTE   W72
 BYTE   N44  Gs1
 BYTE   W12
 BYTE   PEND 
// 019   ----------------------------------------
 BYTE   W36
 BYTE   N56  As1
 BYTE   W60
 BYTE   PATT
  POIN2 Label_4_01815EA2
// 020   ----------------------------------------
 BYTE   W96
// 021   ----------------------------------------
Label_4_01815EC0:
 BYTE   N44  Ds2  v100
 BYTE   W48
 BYTE   Fn2
 BYTE   W48
 BYTE   PEND 
// 022   ----------------------------------------
Label_4_01815EC7:
 BYTE   N44  Fs2  v100
 BYTE   W48
 BYTE   Gs2
 BYTE   W48
 BYTE   PEND 
// 023   ----------------------------------------
Label_4_01815ECE:
 BYTE   N11  Ds3  v100
 BYTE   W12
 BYTE   As2
 BYTE   W12
 BYTE   Ds3
 BYTE   W12
 BYTE   As2
 BYTE   W12
 BYTE   Ds3
 BYTE   W12
 BYTE   As2
 BYTE   W12
 BYTE   Ds3
 BYTE   W12
 BYTE   Cs3
 BYTE   W12
 BYTE   PEND 
// 024   ----------------------------------------
Label_4_01815EE1:
 BYTE   N11  Gs2  v100
 BYTE   W12
 BYTE   Cs3
 BYTE   W12
 BYTE   Gs2
 BYTE   W12
 BYTE   Cs3
 BYTE   W12
 BYTE   Gs2
 BYTE   W12
 BYTE   Cs3
 BYTE   W12
 BYTE   Gs2
 BYTE   W12
 BYTE   Cs3
 BYTE   W12
 BYTE   PEND 
// 025   ----------------------------------------
 BYTE   Bn2
 BYTE   W12
 BYTE   Fs2
 BYTE   W12
 BYTE   Bn2
 BYTE   W12
 BYTE   Fs2
 BYTE   W12
 BYTE   Bn2
 BYTE   W12
 BYTE   Fs2
 BYTE   W12
 BYTE   Bn2
 BYTE   W12
 BYTE   N23  Gs2
 BYTE   W12
// 026   ----------------------------------------
 BYTE   W12
 BYTE   N11  Fs2
 BYTE   W12
 BYTE   Gs2
 BYTE   W12
 BYTE   As2
 BYTE   W12
 BYTE   Fn2
 BYTE   W12
 BYTE   As2
 BYTE   W12
 BYTE   Fn2
 BYTE   W12
 BYTE   As2
 BYTE   W12
 BYTE   PATT
  POIN2 Label_4_01815ECE
 BYTE   PATT
  POIN2 Label_4_01815EE1
// 027   ----------------------------------------
Label_4_01815F1F:
 BYTE   N44  Gs2  v100
 BYTE   W48
 BYTE   As2
 BYTE   W48
 BYTE   PEND 
// 028   ----------------------------------------
 BYTE   Bn2
 BYTE   W48
 BYTE   Cs3
 BYTE   W48
 BYTE   PATT
  POIN2 Label_4_01815F1F
// 029   ----------------------------------------
 BYTE   N32  Bn2  v100
 BYTE   W36
 BYTE   TIE  Cs3
 BYTE   W60
// 030   ----------------------------------------
 BYTE   W92
 BYTE   W03
 BYTE   EOT
 BYTE   W01
// 031   ----------------------------------------
Label_4_01815F3A:
 BYTE   N23  Bn1  v080
 BYTE   W24
 BYTE   N23
 BYTE   W24
 BYTE   N11
 BYTE   W12
 BYTE   N11
 BYTE   W12
 BYTE   N11
 BYTE   W12
 BYTE   N23  Cs2
 BYTE   W12
 BYTE   PEND 
// 032   ----------------------------------------
Label_4_01815F4A:
 BYTE   W12
 BYTE   N11  Cs2  v080
 BYTE   W12
 BYTE   N23
 BYTE   W24
 BYTE   N11
 BYTE   W12
 BYTE   N11
 BYTE   W12
 BYTE   N11
 BYTE   W12
 BYTE   N11
 BYTE   W12
 BYTE   PEND 
// 033   ----------------------------------------
Label_4_01815F5A:
 BYTE   N23  Ds2  v080
 BYTE   W24
 BYTE   N23
 BYTE   W24
 BYTE   N11
 BYTE   W24
 BYTE   N11
 BYTE   W12
 BYTE   N23  Fs2
 BYTE   W12
 BYTE   PEND 
// 034   ----------------------------------------
Label_4_01815F68:
 BYTE   W12
 BYTE   N11  Fs2  v080
 BYTE   W12
 BYTE   N23
 BYTE   W24
 BYTE   N11
 BYTE   W12
 BYTE   N11
 BYTE   W12
 BYTE   N11
 BYTE   W12
 BYTE   N11
 BYTE   W12
 BYTE   PEND 
 BYTE   PATT
  POIN2 Label_4_01815F3A
 BYTE   PATT
  POIN2 Label_4_01815F4A
 BYTE   PATT
  POIN2 Label_4_01815F5A
 BYTE   PATT
  POIN2 Label_4_01815F68
 BYTE   PATT
  POIN2 Label_4_01815F3A
 BYTE   PATT
  POIN2 Label_4_01815F4A
// 035   ----------------------------------------
Label_4_01815F96:
 BYTE   N44  Ds2  v080
 BYTE   W48
 BYTE   N32  Cs2
 BYTE   W36
 BYTE   TIE  Bn1
 BYTE   W12
 BYTE   PEND 
// 036   ----------------------------------------
 BYTE   W92
 BYTE   W03
 BYTE   EOT
 BYTE   W01
 BYTE   PATT
  POIN2 Label_4_01815F3A
 BYTE   PATT
  POIN2 Label_4_01815F4A
 BYTE   PATT
  POIN2 Label_4_01815F5A
 BYTE   PATT
  POIN2 Label_4_01815F68
 BYTE   PATT
  POIN2 Label_4_01815F3A
 BYTE   PATT
  POIN2 Label_4_01815F4A
 BYTE   PATT
  POIN2 Label_4_01815F5A
 BYTE   PATT
  POIN2 Label_4_01815F68
 BYTE   PATT
  POIN2 Label_4_01815F3A
 BYTE   PATT
  POIN2 Label_4_01815F4A
 BYTE   PATT
  POIN2 Label_4_01815F5A
 BYTE   PATT
  POIN2 Label_4_01815F68
 BYTE   PATT
  POIN2 Label_4_01815F3A
 BYTE   PATT
  POIN2 Label_4_01815F4A
 BYTE   PATT
  POIN2 Label_4_01815F96
// 037   ----------------------------------------
 BYTE   W92
 BYTE   W03
 BYTE   EOT
 BYTE   Bn1
 BYTE   W01
 BYTE   PATT
  POIN2 Label_4_01815F3A
 BYTE   PATT
  POIN2 Label_4_01815F4A
 BYTE   PATT
  POIN2 Label_4_01815F5A
 BYTE   PATT
  POIN2 Label_4_01815F68
// 038   ----------------------------------------
 BYTE   GoTo
  POIN2 Label_4_01815EA2
 BYTE   PATT
  POIN2 Label_4_01815EA2
// 039   ----------------------------------------
 BYTE   W96
 BYTE   PATT
  POIN2 Label_4_01815EAC
// 040   ----------------------------------------
 BYTE   W36
 BYTE   N56  As1  v100
 BYTE   W60
 BYTE   PATT
  POIN2 Label_4_01815EA2
// 041   ----------------------------------------
 BYTE   W96
 BYTE   PATT
  POIN2 Label_4_01815EC0
 BYTE   PATT
  POIN2 Label_4_01815EC7
 BYTE   PATT
  POIN2 Label_4_01815EC0
 BYTE   PATT
  POIN2 Label_4_01815EC7
 BYTE   PATT
  POIN2 Label_4_01815EC0
// 042   ----------------------------------------
 BYTE   N32  Fs2  v100
 BYTE   W36
 BYTE   TIE  Gs2
 BYTE   W60
// 043   ----------------------------------------
 BYTE   W92
 BYTE   W03
 BYTE   EOT
 BYTE   W01
// 044   ----------------------------------------
 BYTE   W96
// 045   ----------------------------------------
 BYTE   W96
// 046   ----------------------------------------
 BYTE   W96
// 047   ----------------------------------------
 BYTE   W96
// 048   ----------------------------------------
 BYTE   W96
// 049   ----------------------------------------
 BYTE   W96
// 050   ----------------------------------------
 BYTE   W96
// 051   ----------------------------------------
 BYTE   W96
 BYTE   FINE

//**************** Track 6 (Midi-Chn.5) ****************//

Sonic2006HisWorldSurfingKyogre_006:
// 000   ----------------------------------------
 BYTE   KEYSH   Sonic2006HisWorldSurfingKyogre_key+0
 BYTE   VOICE   29
 BYTE   PAN   c_v+0
 BYTE   VOL   60*Sonic2006HisWorldSurfingKyogre_mvl/mxv
 BYTE   PAN   c_v+0
 BYTE   VOL   60*Sonic2006HisWorldSurfingKyogre_mvl/mxv
 BYTE   PAN   c_v+0
 BYTE   VOL   60*Sonic2006HisWorldSurfingKyogre_mvl/mxv
 BYTE   PAN   c_v+0
 BYTE   VOL   60*Sonic2006HisWorldSurfingKyogre_mvl/mxv
 BYTE   BEND   c_v+0
 BYTE   W96
// 001   ----------------------------------------
 BYTE   W96
// 002   ----------------------------------------
 BYTE   W96
// 003   ----------------------------------------
 BYTE   W96
// 004   ----------------------------------------
 BYTE   W96
// 005   ----------------------------------------
 BYTE   W96
// 006   ----------------------------------------
 BYTE   W96
// 007   ----------------------------------------
 BYTE   W96
// 008   ----------------------------------------
 BYTE   W96
// 009   ----------------------------------------
 BYTE   W96
// 010   ----------------------------------------
 BYTE   W96
// 011   ----------------------------------------
 BYTE   W96
// 012   ----------------------------------------
 BYTE   W96
// 013   ----------------------------------------
 BYTE   W96
// 014   ----------------------------------------
 BYTE   W96
// 015   ----------------------------------------
 BYTE   W96
// 016   ----------------------------------------
Label_5_01814EB6:
 BYTE   N11  As1  v100
 BYTE   W12
 BYTE   N11
 BYTE   W72
 BYTE   N11
 BYTE   W12
 BYTE   PEND 
// 017   ----------------------------------------
 BYTE   W96
// 018   ----------------------------------------
Label_5_01814EC0:
 BYTE   N11  Bn1  v100
 BYTE   W12
 BYTE   N11
 BYTE   W72
 BYTE   N44  Ds2
 BYTE   W12
 BYTE   PEND 
// 019   ----------------------------------------
 BYTE   W36
 BYTE   N56  Cs2
 BYTE   W60
 BYTE   PATT
  POIN2 Label_5_01814EB6
// 020   ----------------------------------------
 BYTE   W96
// 021   ----------------------------------------
Label_5_01814ED4:
 BYTE   N44  Bn1  v100
 BYTE   W48
 BYTE   Cs2
 BYTE   W48
 BYTE   PEND 
// 022   ----------------------------------------
Label_5_01814EDB:
 BYTE   N44  Ds2  v100
 BYTE   W48
 BYTE   Fn2
 BYTE   W48
 BYTE   PEND 
// 023   ----------------------------------------
Label_5_01814EE2:
 BYTE   N11  Ds2  v100
 BYTE   W12
 BYTE   N11
 BYTE   W12
 BYTE   N11
 BYTE   W12
 BYTE   N11
 BYTE   W12
 BYTE   N11
 BYTE   W12
 BYTE   N11
 BYTE   W12
 BYTE   N11
 BYTE   W12
 BYTE   Cs2
 BYTE   W12
 BYTE   PEND 
// 024   ----------------------------------------
Label_5_01814EF5:
 BYTE   N11  Cs2  v100
 BYTE   W12
 BYTE   N11
 BYTE   W12
 BYTE   N11
 BYTE   W12
 BYTE   N11
 BYTE   W12
 BYTE   N11
 BYTE   W12
 BYTE   N11
 BYTE   W12
 BYTE   N11
 BYTE   W12
 BYTE   N11
 BYTE   W12
 BYTE   PEND 
// 025   ----------------------------------------
 BYTE   Bn1
 BYTE   W12
 BYTE   N11
 BYTE   W12
 BYTE   N11
 BYTE   W12
 BYTE   N11
 BYTE   W12
 BYTE   N11
 BYTE   W12
 BYTE   N11
 BYTE   W12
 BYTE   N11
 BYTE   W12
 BYTE   Gs1
 BYTE   W12
// 026   ----------------------------------------
 BYTE   N11
 BYTE   W12
 BYTE   N11
 BYTE   W12
 BYTE   N11
 BYTE   W12
 BYTE   As1
 BYTE   W12
 BYTE   N11
 BYTE   W12
 BYTE   N11
 BYTE   W12
 BYTE   N11
 BYTE   W12
 BYTE   N11
 BYTE   W12
 BYTE   PATT
  POIN2 Label_5_01814EE2
 BYTE   PATT
  POIN2 Label_5_01814EF5
 BYTE   PATT
  POIN2 Label_5_01814ED4
 BYTE   PATT
  POIN2 Label_5_01814EDB
 BYTE   PATT
  POIN2 Label_5_01814ED4
// 027   ----------------------------------------
Label_5_01814F41:
 BYTE   N32  Ds2  v100
 BYTE   W36
 BYTE   TIE  Fn2
 BYTE   W60
 BYTE   PEND 
// 028   ----------------------------------------
 BYTE   W92
 BYTE   W03
 BYTE   EOT
 BYTE   W01
// 029   ----------------------------------------
Label_5_01814F4D:
 BYTE   N23  Bn1  v080
 BYTE   W24
 BYTE   N23
 BYTE   W24
 BYTE   N11
 BYTE   W12
 BYTE   N11
 BYTE   W12
 BYTE   N11
 BYTE   W12
 BYTE   N23  Cs2
 BYTE   W12
 BYTE   PEND 
// 030   ----------------------------------------
Label_5_01814F5D:
 BYTE   W12
 BYTE   N11  Cs2  v080
 BYTE   W12
 BYTE   N23
 BYTE   W24
 BYTE   N11
 BYTE   W12
 BYTE   N11
 BYTE   W12
 BYTE   N11
 BYTE   W12
 BYTE   N11
 BYTE   W12
 BYTE   PEND 
// 031   ----------------------------------------
Label_5_01814F6D:
 BYTE   N23  Ds2  v080
 BYTE   W24
 BYTE   N23
 BYTE   W24
 BYTE   N11
 BYTE   W24
 BYTE   N11
 BYTE   W12
 BYTE   N23  Fs2
 BYTE   W12
 BYTE   PEND 
// 032   ----------------------------------------
Label_5_01814F7B:
 BYTE   W12
 BYTE   N11  Fs2  v080
 BYTE   W12
 BYTE   N23
 BYTE   W24
 BYTE   N11
 BYTE   W12
 BYTE   N11
 BYTE   W12
 BYTE   N11
 BYTE   W12
 BYTE   N11
 BYTE   W12
 BYTE   PEND 
 BYTE   PATT
  POIN2 Label_5_01814F4D
 BYTE   PATT
  POIN2 Label_5_01814F5D
 BYTE   PATT
  POIN2 Label_5_01814F6D
 BYTE   PATT
  POIN2 Label_5_01814F7B
 BYTE   PATT
  POIN2 Label_5_01814F4D
 BYTE   PATT
  POIN2 Label_5_01814F5D
// 033   ----------------------------------------
Label_5_01814FA9:
 BYTE   N44  Ds2  v080
 BYTE   W48
 BYTE   N32  Cs2
 BYTE   W36
 BYTE   TIE  Bn1
 BYTE   W12
 BYTE   PEND 
// 034   ----------------------------------------
 BYTE   W92
 BYTE   W03
 BYTE   EOT
 BYTE   W01
 BYTE   PATT
  POIN2 Label_5_01814F4D
 BYTE   PATT
  POIN2 Label_5_01814F5D
 BYTE   PATT
  POIN2 Label_5_01814F6D
 BYTE   PATT
  POIN2 Label_5_01814F7B
 BYTE   PATT
  POIN2 Label_5_01814F4D
 BYTE   PATT
  POIN2 Label_5_01814F5D
 BYTE   PATT
  POIN2 Label_5_01814F6D
 BYTE   PATT
  POIN2 Label_5_01814F7B
 BYTE   PATT
  POIN2 Label_5_01814F4D
 BYTE   PATT
  POIN2 Label_5_01814F5D
 BYTE   PATT
  POIN2 Label_5_01814F6D
 BYTE   PATT
  POIN2 Label_5_01814F7B
 BYTE   PATT
  POIN2 Label_5_01814F4D
 BYTE   PATT
  POIN2 Label_5_01814F5D
 BYTE   PATT
  POIN2 Label_5_01814FA9
// 035   ----------------------------------------
 BYTE   W92
 BYTE   W03
 BYTE   EOT
 BYTE   Bn1
 BYTE   W01
 BYTE   PATT
  POIN2 Label_5_01814F4D
 BYTE   PATT
  POIN2 Label_5_01814F5D
 BYTE   PATT
  POIN2 Label_5_01814F6D
 BYTE   PATT
  POIN2 Label_5_01814F7B
// 036   ----------------------------------------
 BYTE   GoTo
  POIN2 Label_5_01814EB6
 BYTE   PATT
  POIN2 Label_5_01814EB6
// 037   ----------------------------------------
 BYTE   W96
 BYTE   PATT
  POIN2 Label_5_01814EC0
// 038   ----------------------------------------
 BYTE   W36
 BYTE   N56  Cs2  v100
 BYTE   W60
 BYTE   PATT
  POIN2 Label_5_01814EB6
// 039   ----------------------------------------
 BYTE   W96
 BYTE   PATT
  POIN2 Label_5_01814ED4
 BYTE   PATT
  POIN2 Label_5_01814EDB
 BYTE   PATT
  POIN2 Label_5_01814ED4
 BYTE   PATT
  POIN2 Label_5_01814EDB
 BYTE   PATT
  POIN2 Label_5_01814ED4
 BYTE   PATT
  POIN2 Label_5_01814F41
// 040   ----------------------------------------
 BYTE   W92
 BYTE   W03
 BYTE   EOT
 BYTE   Fn2
 BYTE   W01
// 041   ----------------------------------------
 BYTE   W96
// 042   ----------------------------------------
 BYTE   W96
// 043   ----------------------------------------
 BYTE   W96
// 044   ----------------------------------------
 BYTE   W96
// 045   ----------------------------------------
 BYTE   W96
// 046   ----------------------------------------
 BYTE   W96
// 047   ----------------------------------------
 BYTE   W96
// 048   ----------------------------------------
 BYTE   W96
 BYTE   FINE

//**************** Track 7 (Midi-Chn.6) ****************//

Sonic2006HisWorldSurfingKyogre_007:
// 000   ----------------------------------------
 BYTE   KEYSH   Sonic2006HisWorldSurfingKyogre_key+0
 BYTE   VOICE   48
 BYTE   PAN   c_v+0
 BYTE   VOL   49*Sonic2006HisWorldSurfingKyogre_mvl/mxv
 BYTE   PAN   c_v+0
 BYTE   VOL   49*Sonic2006HisWorldSurfingKyogre_mvl/mxv
 BYTE   PAN   c_v+0
 BYTE   VOL   49*Sonic2006HisWorldSurfingKyogre_mvl/mxv
 BYTE   PAN   c_v+0
 BYTE   VOL   49*Sonic2006HisWorldSurfingKyogre_mvl/mxv
 BYTE   BEND   c_v+0
 BYTE   W96
// 001   ----------------------------------------
 BYTE   W96
// 002   ----------------------------------------
 BYTE   W96
// 003   ----------------------------------------
 BYTE   W96
// 004   ----------------------------------------
 BYTE   W96
// 005   ----------------------------------------
 BYTE   W96
// 006   ----------------------------------------
 BYTE   W96
// 007   ----------------------------------------
 BYTE   W96
// 008   ----------------------------------------
 BYTE   W96
// 009   ----------------------------------------
 BYTE   W96
// 010   ----------------------------------------
 BYTE   W96
// 011   ----------------------------------------
 BYTE   W96
// 012   ----------------------------------------
 BYTE   W96
// 013   ----------------------------------------
 BYTE   W96
// 014   ----------------------------------------
 BYTE   W96
// 015   ----------------------------------------
 BYTE   W96
// 016   ----------------------------------------
Label_6_01815636:
 BYTE   N05  Ds3  v100
 BYTE   N05  Fs3
 BYTE   N05  Ds4
 BYTE   W12
 BYTE   As3
 BYTE   W12
 BYTE   Fn4
 BYTE   W12
 BYTE   As3
 BYTE   W12
 BYTE   Fs4
 BYTE   W12
 BYTE   As3
 BYTE   W12
 BYTE   Gs4
 BYTE   W12
 BYTE   Ds3
 BYTE   N05  Fs3
 BYTE   N05  As3
 BYTE   N05  Ds4
 BYTE   W12
 BYTE   PEND 
// 017   ----------------------------------------
Label_6_01815653:
 BYTE   W12
 BYTE   N05  Gs3  v100
 BYTE   W12
 BYTE   Fn4
 BYTE   W12
 BYTE   Gs3
 BYTE   W12
 BYTE   Fs4
 BYTE   W12
 BYTE   Gs3
 BYTE   W12
 BYTE   Gs4
 BYTE   W12
 BYTE   Gs3
 BYTE   W12
 BYTE   PEND 
// 018   ----------------------------------------
Label_6_01815665:
 BYTE   N05  Ds3  v100
 BYTE   N05  Fs3
 BYTE   N05  Ds4
 BYTE   W12
 BYTE   As3
 BYTE   W12
 BYTE   Fn4
 BYTE   W12
 BYTE   As3
 BYTE   W12
 BYTE   Fs4
 BYTE   W12
 BYTE   As3
 BYTE   W12
 BYTE   Gs4
 BYTE   W12
 BYTE   Ds3
 BYTE   N05  Fs3
 BYTE   N23  Gs3
 BYTE   N05  As3
 BYTE   W12
 BYTE   PEND 
// 019   ----------------------------------------
Label_6_01815682:
 BYTE   N05  Ds4  v100
 BYTE   W24
 BYTE   N11  Gs3
 BYTE   N05  Fn4
 BYTE   W12
 BYTE   Ds3
 BYTE   N05  Ds4
 BYTE   W06
 BYTE   Fn3
 BYTE   N05  Fn4
 BYTE   W06
 BYTE   Fs3
 BYTE   N05  As3
 BYTE   N05  Fs4
 BYTE   W12
 BYTE   Fn3
 BYTE   N05  Gs3
 BYTE   N05  Fn4
 BYTE   W12
 BYTE   Ds3
 BYTE   N05  Fs3
 BYTE   N05  Ds4
 BYTE   W12
 BYTE   Cs3
 BYTE   N05  Fn3
 BYTE   N05  Cs4
 BYTE   W12
 BYTE   PEND 
 BYTE   PATT
  POIN2 Label_6_01815636
 BYTE   PATT
  POIN2 Label_6_01815653
 BYTE   PATT
  POIN2 Label_6_01815665
 BYTE   PATT
  POIN2 Label_6_01815682
 BYTE   PATT
  POIN2 Label_6_01815636
 BYTE   PATT
  POIN2 Label_6_01815653
 BYTE   PATT
  POIN2 Label_6_01815665
 BYTE   PATT
  POIN2 Label_6_01815682
 BYTE   PATT
  POIN2 Label_6_01815636
 BYTE   PATT
  POIN2 Label_6_01815653
// 020   ----------------------------------------
Label_6_018156DE:
 BYTE   N44  Gs1  v100
 BYTE   N44  Bn1  v088
 BYTE   N44  Ds3
 BYTE   N44  Bn3
 BYTE   N44  Gs4
 BYTE   W48
 BYTE   As1  v100
 BYTE   N44  Cs2  v088
 BYTE   N44  Fn3
 BYTE   N44  Cs4
 BYTE   N44  As4
 BYTE   W48
 BYTE   PEND 
// 021   ----------------------------------------
 BYTE   Bn1  v100
 BYTE   N44  Ds2  v080
 BYTE   N44  Bn3
 BYTE   N44  Ds4
 BYTE   N44  Bn4
 BYTE   W48
 BYTE   Cs2  v100
 BYTE   N44  Fn2  v080
 BYTE   N44  Cs4
 BYTE   N44  Fn4
 BYTE   N44  Cs5
 BYTE   W48
 BYTE   PATT
  POIN2 Label_6_018156DE
// 022   ----------------------------------------
 BYTE   N32  Bn1  v100
 BYTE   N32  Ds2  v080
 BYTE   N32  Bn3
 BYTE   N32  Ds4
 BYTE   N32  Bn4
 BYTE   W36
 BYTE   TIE  Cs2
 BYTE   TIE  Fn2
 BYTE   TIE  Cs4
 BYTE   TIE  Fn4
 BYTE   TIE  Cs5
 BYTE   W60
// 023   ----------------------------------------
 BYTE   W92
 BYTE   W03
 BYTE   EOT
 BYTE   Cs2  v053
 BYTE   Cs4  v077
 BYTE   Cs5
 BYTE   W01
// 024   ----------------------------------------
 BYTE   W96
// 025   ----------------------------------------
Label_6_01815737:
 BYTE   N11  As3  v124
 BYTE   N11  As4
 BYTE   W12
 BYTE   Gs3  v120
 BYTE   N11  Gs4
 BYTE   W12
 BYTE   Fs3
 BYTE   N11  Fs4
 BYTE   W12
 BYTE   N68  Cs3
 BYTE   N68  Cs4
 BYTE   W60
 BYTE   PEND 
// 026   ----------------------------------------
Label_6_0181574C:
 BYTE   W84
 BYTE   N11  As3  v112
 BYTE   N11  As4
 BYTE   W12
 BYTE   PEND 
// 027   ----------------------------------------
Label_6_01815754:
 BYTE   N11  Gs3  v112
 BYTE   N11  Gs4
 BYTE   W12
 BYTE   As3
 BYTE   N11  As4
 BYTE   W12
 BYTE   Fs3
 BYTE   N11  Fs4
 BYTE   W12
 BYTE   As3
 BYTE   N11  As4
 BYTE   W12
 BYTE   Cs3
 BYTE   N11  Cs4
 BYTE   W12
 BYTE   As3
 BYTE   N11  As4
 BYTE   W12
 BYTE   Cs3
 BYTE   N11  Cs4
 BYTE   W12
 BYTE   As3
 BYTE   N11  As4
 BYTE   W12
 BYTE   PEND 
// 028   ----------------------------------------
 BYTE   W96
// 029   ----------------------------------------
Label_6_01815778:
 BYTE   N23  Fn3  v108
 BYTE   N23  Fn4
 BYTE   W24
 BYTE   N11  Ds3
 BYTE   N11  Ds4
 BYTE   W12
 BYTE   Cs3
 BYTE   N11  Cs4
 BYTE   W24
 BYTE   N44  Gs2  v104
 BYTE   N44  Gs3
 BYTE   W36
 BYTE   PEND 
// 030   ----------------------------------------
 BYTE   W96
// 031   ----------------------------------------
Label_6_0181578F:
 BYTE   W12
 BYTE   N05  As3  v108
 BYTE   N05  As4
 BYTE   W06
 BYTE   An3
 BYTE   N05  An4
 BYTE   W06
 BYTE   As3  v112
 BYTE   N05  As4
 BYTE   W06
 BYTE   An3
 BYTE   N05  An4
 BYTE   W06
 BYTE   As3
 BYTE   N05  As4
 BYTE   W06
 BYTE   An3
 BYTE   N05  An4
 BYTE   W06
 BYTE   N11  Fs3
 BYTE   N11  Fs4
 BYTE   W12
 BYTE   Fn3
 BYTE   N11  Fn4
 BYTE   W12
 BYTE   Cs3
 BYTE   N11  Cs4
 BYTE   W12
 BYTE   As2
 BYTE   N11  As3
 BYTE   W12
 BYTE   PEND 
// 032   ----------------------------------------
 BYTE   W96
 BYTE   PATT
  POIN2 Label_6_01815737
// 033   ----------------------------------------
Label_6_018157C3:
 BYTE   N44  As3  v112
 BYTE   N44  Fs4
 BYTE   W48
 BYTE   N32  Gs3
 BYTE   N32  Fn4
 BYTE   W36
 BYTE   TIE  Fs3
 BYTE   TIE  Ds4
 BYTE   W12
 BYTE   PEND 
// 034   ----------------------------------------
 BYTE   W92
 BYTE   W03
 BYTE   EOT
 BYTE   Fs3  v075
 BYTE   W01
// 035   ----------------------------------------
 BYTE   W96
// 036   ----------------------------------------
Label_6_018157DB:
 BYTE   N44  As3  v108
 BYTE   N44  As4
 BYTE   W48
 BYTE   Gs3  v112
 BYTE   N44  Gs4
 BYTE   W48
 BYTE   PEND 
// 037   ----------------------------------------
Label_6_018157E7:
 BYTE   N92  Ds4  v112
 BYTE   N92  Cs5
 BYTE   W84
 BYTE   N11  As3
 BYTE   N11  As4
 BYTE   W12
 BYTE   PEND 
 BYTE   PATT
  POIN2 Label_6_01815754
// 038   ----------------------------------------
 BYTE   W96
 BYTE   PATT
  POIN2 Label_6_01815737
 BYTE   PATT
  POIN2 Label_6_0181574C
 BYTE   PATT
  POIN2 Label_6_01815754
// 039   ----------------------------------------
 BYTE   W96
 BYTE   PATT
  POIN2 Label_6_01815778
// 040   ----------------------------------------
 BYTE   W96
 BYTE   PATT
  POIN2 Label_6_0181578F
// 041   ----------------------------------------
 BYTE   W96
// 042   ----------------------------------------
 BYTE   W96
 BYTE   PATT
  POIN2 Label_6_018157C3
// 043   ----------------------------------------
 BYTE   W92
 BYTE   W03
 BYTE   EOT
 BYTE   Fs3  v075
 BYTE   W01
// 044   ----------------------------------------
 BYTE   W96
 BYTE   PATT
  POIN2 Label_6_018157DB
 BYTE   PATT
  POIN2 Label_6_018157E7
 BYTE   PATT
  POIN2 Label_6_01815754
// 045   ----------------------------------------
 BYTE   GoTo
  POIN2 Label_6_01815636
 BYTE   PATT
  POIN2 Label_6_01815636
 BYTE   PATT
  POIN2 Label_6_01815653
 BYTE   PATT
  POIN2 Label_6_01815665
 BYTE   PATT
  POIN2 Label_6_01815682
 BYTE   PATT
  POIN2 Label_6_01815636
 BYTE   PATT
  POIN2 Label_6_01815653
// 046   ----------------------------------------
Label_6_01815854:
 BYTE   N44  Gs1  v100
 BYTE   N44  Bn1  v088
 BYTE   N44  Ds3
 BYTE   N23  As3  v112
 BYTE   N23  As4
 BYTE   W24
 BYTE   Gs3
 BYTE   N23  Gs4
 BYTE   W24
 BYTE   N44  As1  v100
 BYTE   N44  Cs2  v088
 BYTE   N44  Fn3
 BYTE   N23  Fs3  v112
 BYTE   N23  Fs4
 BYTE   W24
 BYTE   N11  Gs3
 BYTE   N11  Gs4
 BYTE   W12
 BYTE   N12  Fs3
 BYTE   TIE  Fs4
 BYTE   W12
 BYTE   PEND 
// 047   ----------------------------------------
Label_6_0181587F:
 BYTE   N44  Bn1  v100
 BYTE   N44  Ds2  v080
 BYTE   N32  Fs3
 BYTE   W36
 BYTE   N56  Fn3  v112
 BYTE   W12
 BYTE   N44  Cs2  v100
 BYTE   N44  Fn2  v080
 BYTE   N44  Gs3
 BYTE   W44
 BYTE   W03
 BYTE   PEND 
 BYTE   EOT
 BYTE   Fs4
 BYTE   W01
 BYTE   PATT
  POIN2 Label_6_01815854
 BYTE   PATT
  POIN2 Label_6_0181587F
// 048   ----------------------------------------
 BYTE   EOT
 BYTE   Fs4
 BYTE   W01
 BYTE   N44  Gs1  v100
 BYTE   N44  Bn1  v088
 BYTE   N44  Ds3
 BYTE   N23  Ds4  v112
 BYTE   N23  Ds5
 BYTE   W24
 BYTE   Cs4
 BYTE   N23  Cs5
 BYTE   W24
 BYTE   N44  As1  v100
 BYTE   N44  Cs2  v088
 BYTE   N44  Fn3
 BYTE   N23  As3  v112
 BYTE   N23  As4
 BYTE   W24
 BYTE   N11  Cs4
 BYTE   N11  Cs5
 BYTE   W12
 BYTE   TIE  As3
 BYTE   TIE  As4
 BYTE   W12
// 049   ----------------------------------------
 BYTE   N32  Bn1  v100
 BYTE   N32  Ds2  v080
 BYTE   N32  Fs3
 BYTE   W36
 BYTE   TIE  Cs2
 BYTE   TIE  Fn2
 BYTE   TIE  Gs3
 BYTE   W60
// 050   ----------------------------------------
 BYTE   W92
 BYTE   W03
 BYTE   EOT
 BYTE   Cs2  v053
 BYTE   Gs3  v070
 BYTE   As4
 BYTE   W01
// 051   ----------------------------------------
 BYTE   W96
// 052   ----------------------------------------
 BYTE   W96
// 053   ----------------------------------------
 BYTE   W96
// 054   ----------------------------------------
 BYTE   W96
// 055   ----------------------------------------
 BYTE   W96
// 056   ----------------------------------------
 BYTE   W96
// 057   ----------------------------------------
 BYTE   W96
// 058   ----------------------------------------
 BYTE   W96
 BYTE   FINE

//**************** Track 8 (Midi-Chn.7) ****************//

Sonic2006HisWorldSurfingKyogre_008:
// 000   ----------------------------------------
 BYTE   KEYSH   Sonic2006HisWorldSurfingKyogre_key+0
 BYTE   VOICE   24
 BYTE   PAN   c_v+0
 BYTE   VOL   47*Sonic2006HisWorldSurfingKyogre_mvl/mxv
 BYTE   PAN   c_v+0
 BYTE   VOL   47*Sonic2006HisWorldSurfingKyogre_mvl/mxv
 BYTE   PAN   c_v+0
 BYTE   VOL   47*Sonic2006HisWorldSurfingKyogre_mvl/mxv
 BYTE   PAN   c_v+0
 BYTE   VOL   47*Sonic2006HisWorldSurfingKyogre_mvl/mxv
 BYTE   BEND   c_v+0
 BYTE   W96
// 001   ----------------------------------------
 BYTE   W96
// 002   ----------------------------------------
 BYTE   W96
// 003   ----------------------------------------
 BYTE   W96
// 004   ----------------------------------------
 BYTE   W96
// 005   ----------------------------------------
 BYTE   W96
// 006   ----------------------------------------
 BYTE   W96
// 007   ----------------------------------------
 BYTE   W96
// 008   ----------------------------------------
 BYTE   W96
// 009   ----------------------------------------
 BYTE   W96
// 010   ----------------------------------------
 BYTE   W96
// 011   ----------------------------------------
 BYTE   W96
// 012   ----------------------------------------
 BYTE   W96
// 013   ----------------------------------------
 BYTE   W96
// 014   ----------------------------------------
 BYTE   W96
// 015   ----------------------------------------
 BYTE   W96
// 016   ----------------------------------------
Label_7_0181660A:
 BYTE   W96
// 017   ----------------------------------------
 BYTE   W96
// 018   ----------------------------------------
 BYTE   W96
// 019   ----------------------------------------
 BYTE   W96
// 020   ----------------------------------------
 BYTE   W96
// 021   ----------------------------------------
 BYTE   W96
// 022   ----------------------------------------
 BYTE   W96
// 023   ----------------------------------------
 BYTE   W96
// 024   ----------------------------------------
Label_7_01816612:
 BYTE   N11  Bn0  v127
 BYTE   N11  Gs1
 BYTE   N11  Cs2
 BYTE   W12
 BYTE   Fs1
 BYTE   W12
 BYTE   En1
 BYTE   N11  Gs1
 BYTE   W12
 BYTE   Fs1
 BYTE   W12
 BYTE   Bn0
 BYTE   N11  Gs1
 BYTE   W12
 BYTE   Fs1
 BYTE   W12
 BYTE   En1
 BYTE   N11  Gs1
 BYTE   W12
 BYTE   Bn0
 BYTE   N11  Fs1
 BYTE   W12
 BYTE   PEND 
// 025   ----------------------------------------
Label_7_01816631:
 BYTE   N11  Gs1  v127
 BYTE   W12
 BYTE   Bn0
 BYTE   N11  Fs1
 BYTE   W12
 BYTE   En1
 BYTE   N11  Gs1
 BYTE   W12
 BYTE   Fs1
 BYTE   W12
 BYTE   Bn0
 BYTE   N11  Gs1
 BYTE   W12
 BYTE   Bn0
 BYTE   N11  Fs1
 BYTE   W12
 BYTE   En1
 BYTE   N11  Gs1
 BYTE   W12
 BYTE   Fs1
 BYTE   W12
 BYTE   PEND 
// 026   ----------------------------------------
 BYTE   Bn0
 BYTE   N11  Gs1
 BYTE   W12
 BYTE   Fs1
 BYTE   W12
 BYTE   En1
 BYTE   N11  Gs1
 BYTE   W12
 BYTE   Fs1
 BYTE   W12
 BYTE   Bn0
 BYTE   N11  Gs1
 BYTE   W12
 BYTE   Fs1
 BYTE   W12
 BYTE   En1
 BYTE   N11  Gs1
 BYTE   W12
 BYTE   Bn0
 BYTE   N11  Fs1
 BYTE   N11  Gn2
 BYTE   W12
 BYTE   PATT
  POIN2 Label_7_01816631
 BYTE   PATT
  POIN2 Label_7_01816612
// 027   ----------------------------------------
 BYTE   N11  Gs1  v127
 BYTE   W12
 BYTE   Bn0
 BYTE   N11  Fs1
 BYTE   W12
 BYTE   En1
 BYTE   N11  Gs1
 BYTE   W12
 BYTE   Fs1
 BYTE   W12
 BYTE   Bn0
 BYTE   N11  Gs1
 BYTE   W12
 BYTE   Bn0
 BYTE   N11  Fs1
 BYTE   W12
 BYTE   N05  En1
 BYTE   W06
 BYTE   N05
 BYTE   W06
 BYTE   N05
 BYTE   W06
 BYTE   N05
 BYTE   W06
// 028   ----------------------------------------
 BYTE   N11  Bn0
 BYTE   N11  Gs1
 BYTE   N11  Cs2
 BYTE   W12
 BYTE   Fs1
 BYTE   W12
 BYTE   En1
 BYTE   N11  Gs1
 BYTE   W12
 BYTE   Fs1
 BYTE   W12
 BYTE   Bn0
 BYTE   N11  Gs1
 BYTE   W12
 BYTE   Bn0
 BYTE   N11  Fs1
 BYTE   W12
 BYTE   En1
 BYTE   N11  Gs1
 BYTE   W12
 BYTE   Fs1
 BYTE   W12
// 029   ----------------------------------------
 BYTE   Bn0
 BYTE   N11  Gs1
 BYTE   W12
 BYTE   Bn0
 BYTE   N11  Fs1
 BYTE   W12
 BYTE   En1
 BYTE   N11  Gs1
 BYTE   W12
 BYTE   Fs1
 BYTE   W12
 BYTE   Bn0
 BYTE   N11  Gs1
 BYTE   W12
 BYTE   Bn0
 BYTE   N11  Fs1
 BYTE   W12
 BYTE   En1
 BYTE   N11  Gs1
 BYTE   W12
 BYTE   Fs1
 BYTE   W12
// 030   ----------------------------------------
 BYTE   Bn0
 BYTE   N11  Gs1
 BYTE   W12
 BYTE   Fs1
 BYTE   W12
 BYTE   En1
 BYTE   N11  Gs1
 BYTE   W12
 BYTE   Fs1
 BYTE   W12
 BYTE   Bn0
 BYTE   N11  Gs1
 BYTE   W12
 BYTE   Bn0
 BYTE   N11  Fs1
 BYTE   W12
 BYTE   En1
 BYTE   N11  Gs1
 BYTE   W12
 BYTE   Fs1
 BYTE   W12
// 031   ----------------------------------------
Label_7_018166E6:
 BYTE   N11  Bn0  v127
 BYTE   W24
 BYTE   N02  En1
 BYTE   W03
 BYTE   N02
 BYTE   W03
 BYTE   N02
 BYTE   W03
 BYTE   N02
 BYTE   W03
 BYTE   N11  Bn0
 BYTE   W60
 BYTE   PEND 
// 032   ----------------------------------------
 BYTE   W60
 BYTE   N05  Cn1
 BYTE   W06
 BYTE   N05
 BYTE   W06
 BYTE   N23  En1
 BYTE   W24
// 033   ----------------------------------------
Label_7_01816700:
 BYTE   N11  Bn0  v127
 BYTE   N11  Gs1
 BYTE   N11  Cs2
 BYTE   N11  Ds2
 BYTE   W12
 BYTE   Fs1
 BYTE   W12
 BYTE   En1
 BYTE   N11  Gs1
 BYTE   N11  Ds2
 BYTE   W12
 BYTE   Fs1
 BYTE   W12
 BYTE   Bn0
 BYTE   N11  Gs1
 BYTE   N11  Ds2
 BYTE   W12
 BYTE   Bn0
 BYTE   N11  Fs1
 BYTE   W12
 BYTE   En1
 BYTE   N11  Gs1
 BYTE   N11  Ds2
 BYTE   W12
 BYTE   Bn0
 BYTE   N11  Fs1
 BYTE   N11  Cs2
 BYTE   W12
 BYTE   PEND 
// 034   ----------------------------------------
Label_7_0181672B:
 BYTE   N11  Gs1  v127
 BYTE   N11  Ds2
 BYTE   W12
 BYTE   Bn0
 BYTE   N11  Fs1
 BYTE   W12
 BYTE   En1
 BYTE   N11  Gs1
 BYTE   N11  Ds2
 BYTE   W12
 BYTE   Fs1
 BYTE   W12
 BYTE   Bn0
 BYTE   N11  Gs1
 BYTE   N11  Ds2
 BYTE   W12
 BYTE   Bn0
 BYTE   N11  Fs1
 BYTE   W12
 BYTE   En1
 BYTE   N11  Gs1
 BYTE   N11  Ds2
 BYTE   W12
 BYTE   Fs1
 BYTE   W12
 BYTE   PEND 
// 035   ----------------------------------------
Label_7_01816750:
 BYTE   N11  Bn0  v127
 BYTE   N11  Gs1
 BYTE   N11  Cs2
 BYTE   N11  Ds2
 BYTE   W12
 BYTE   Fs1
 BYTE   W12
 BYTE   En1
 BYTE   N11  Gs1
 BYTE   N11  Ds2
 BYTE   W12
 BYTE   Fs1
 BYTE   W12
 BYTE   Bn0
 BYTE   N11  Gs1
 BYTE   N11  Ds2
 BYTE   W12
 BYTE   Bn0
 BYTE   N11  Fs1
 BYTE   W12
 BYTE   En1
 BYTE   N11  Gs1
 BYTE   N11  Ds2
 BYTE   W12
 BYTE   Bn0
 BYTE   N11  Fs1
 BYTE   W12
 BYTE   PEND 
 BYTE   PATT
  POIN2 Label_7_0181672B
 BYTE   PATT
  POIN2 Label_7_01816750
 BYTE   PATT
  POIN2 Label_7_0181672B
// 036   ----------------------------------------
Label_7_01816788:
 BYTE   N11  Bn0  v127
 BYTE   N11  Gs1
 BYTE   N11  Ds2
 BYTE   W12
 BYTE   Fs1
 BYTE   W12
 BYTE   En1
 BYTE   N11  Gs1
 BYTE   N11  Ds2
 BYTE   W12
 BYTE   Fs1
 BYTE   W12
 BYTE   Bn0
 BYTE   N11  Gs1
 BYTE   N11  Ds2
 BYTE   W12
 BYTE   Bn0
 BYTE   N11  Fs1
 BYTE   W12
 BYTE   En1
 BYTE   N11  Gs1
 BYTE   N11  Ds2
 BYTE   W12
 BYTE   Bn0
 BYTE   N11  Fs1
 BYTE   N11  Cs2
 BYTE   W12
 BYTE   PEND 
 BYTE   PATT
  POIN2 Label_7_0181672B
 BYTE   PATT
  POIN2 Label_7_01816750
 BYTE   PATT
  POIN2 Label_7_0181672B
// 037   ----------------------------------------
Label_7_018167C0:
 BYTE   N11  Bn0  v127
 BYTE   N11  Gs1
 BYTE   N11  Cs2
 BYTE   N11  Ds2
 BYTE   W12
 BYTE   Fs1
 BYTE   W12
 BYTE   En1
 BYTE   N11  Gs1
 BYTE   N11  Ds2
 BYTE   W12
 BYTE   Fs1
 BYTE   W12
 BYTE   Bn0
 BYTE   N11  Gs1
 BYTE   N11  Ds2
 BYTE   W12
 BYTE   Fs1
 BYTE   W12
 BYTE   N02  En1
 BYTE   N11  Gs1
 BYTE   N11  Ds2
 BYTE   W03
 BYTE   N02  En1
 BYTE   W03
 BYTE   N02
 BYTE   W03
 BYTE   N02
 BYTE   W03
 BYTE   N11  Bn0
 BYTE   N11  Fs1
 BYTE   N11  Cs2
 BYTE   W12
 BYTE   PEND 
 BYTE   PATT
  POIN2 Label_7_0181672B
 BYTE   PATT
  POIN2 Label_7_01816700
 BYTE   PATT
  POIN2 Label_7_0181672B
 BYTE   PATT
  POIN2 Label_7_01816788
// 038   ----------------------------------------
 BYTE   N11  Gs1  v127
 BYTE   N11  Ds2
 BYTE   W12
 BYTE   Bn0
 BYTE   N11  Fs1
 BYTE   W12
 BYTE   En1
 BYTE   N11  Gs1
 BYTE   N11  Ds2
 BYTE   W12
 BYTE   Fs1
 BYTE   W12
 BYTE   Bn0
 BYTE   N11  Gs1
 BYTE   N11  Ds2
 BYTE   W12
 BYTE   Bn0
 BYTE   N11  Fs1
 BYTE   W12
 BYTE   N02  En1
 BYTE   N11  Gs1
 BYTE   N11  Ds2
 BYTE   W03
 BYTE   N02  Bn0
 BYTE   W03
 BYTE   En1
 BYTE   W03
 BYTE   Bn0
 BYTE   W03
 BYTE   En1
 BYTE   N11  Fs1
 BYTE   W03
 BYTE   N02  Bn0
 BYTE   W03
 BYTE   En1
 BYTE   W03
 BYTE   Bn0
 BYTE   W03
 BYTE   PATT
  POIN2 Label_7_01816700
 BYTE   PATT
  POIN2 Label_7_0181672B
 BYTE   PATT
  POIN2 Label_7_01816750
 BYTE   PATT
  POIN2 Label_7_0181672B
 BYTE   PATT
  POIN2 Label_7_01816750
 BYTE   PATT
  POIN2 Label_7_0181672B
 BYTE   PATT
  POIN2 Label_7_01816788
 BYTE   PATT
  POIN2 Label_7_0181672B
 BYTE   PATT
  POIN2 Label_7_01816750
 BYTE   PATT
  POIN2 Label_7_0181672B
 BYTE   PATT
  POIN2 Label_7_018167C0
 BYTE   PATT
  POIN2 Label_7_0181672B
 BYTE   PATT
  POIN2 Label_7_01816700
 BYTE   PATT
  POIN2 Label_7_0181672B
 BYTE   PATT
  POIN2 Label_7_01816788
// 039   ----------------------------------------
 BYTE   N11  Gs1  v127
 BYTE   N11  Ds2
 BYTE   W12
 BYTE   Bn0
 BYTE   N11  Fs1
 BYTE   W12
 BYTE   En1
 BYTE   N11  Gs1
 BYTE   N11  Ds2
 BYTE   W12
 BYTE   Fs1
 BYTE   W12
 BYTE   Bn0
 BYTE   N11  Gs1
 BYTE   N11  Ds2
 BYTE   W12
 BYTE   Bn0
 BYTE   N11  Fs1
 BYTE   W12
 BYTE   Gs1
 BYTE   N02  Cn2
 BYTE   N11  Ds2
 BYTE   W03
 BYTE   N02  Bn1
 BYTE   W03
 BYTE   Cn2
 BYTE   W03
 BYTE   Bn1
 BYTE   W03
 BYTE   N11  Fs1
 BYTE   N02  Cn2
 BYTE   W03
 BYTE   Bn1
 BYTE   W03
 BYTE   An1
 BYTE   W03
 BYTE   N02
 BYTE   W03
// 040   ----------------------------------------
 BYTE   GoTo
  POIN2 Label_7_0181660A
// 041   ----------------------------------------
 BYTE   W96
// 042   ----------------------------------------
 BYTE   W96
// 043   ----------------------------------------
 BYTE   W96
// 044   ----------------------------------------
 BYTE   W96
// 045   ----------------------------------------
 BYTE   W96
// 046   ----------------------------------------
 BYTE   W96
// 047   ----------------------------------------
 BYTE   W96
// 048   ----------------------------------------
 BYTE   W96
// 049   ----------------------------------------
Label_7_018168C7:
 BYTE   N11  Bn0  v127
 BYTE   N11  Gs1
 BYTE   N11  As1
 BYTE   N11  Cs2
 BYTE   W24
 BYTE   En1
 BYTE   N11  Gs1
 BYTE   N11  As1
 BYTE   W24
 BYTE   Bn0
 BYTE   N11  Gs1
 BYTE   N11  As1
 BYTE   N11  Cs2
 BYTE   W12
 BYTE   Bn0
 BYTE   W12
 BYTE   En1
 BYTE   N11  Gs1
 BYTE   N11  As1
 BYTE   W24
 BYTE   PEND 
// 050   ----------------------------------------
 BYTE   Bn0
 BYTE   N11  Gs1
 BYTE   N11  As1
 BYTE   N11  Cs2
 BYTE   W12
 BYTE   Bn0
 BYTE   W12
 BYTE   En1
 BYTE   N11  Gs1
 BYTE   N11  As1
 BYTE   W24
 BYTE   Bn0
 BYTE   N11  Gs1
 BYTE   N11  As1
 BYTE   N11  Cs2
 BYTE   W12
 BYTE   Bn0
 BYTE   W12
 BYTE   En1
 BYTE   N11  Gs1
 BYTE   N11  As1
 BYTE   W24
 BYTE   PATT
  POIN2 Label_7_018168C7
 BYTE   PATT
  POIN2 Label_7_018166E6
// 051   ----------------------------------------
 BYTE   W96
// 052   ----------------------------------------
 BYTE   W96
// 053   ----------------------------------------
 BYTE   W96
// 054   ----------------------------------------
 BYTE   W96
// 055   ----------------------------------------
 BYTE   W96
// 056   ----------------------------------------
 BYTE   W96
// 057   ----------------------------------------
 BYTE   W96
// 058   ----------------------------------------
 BYTE   W96
// 059   ----------------------------------------
 BYTE   W96
// 060   ----------------------------------------
 BYTE   PAN   c_v+0
 BYTE   VOL   47*Sonic2006HisWorldSurfingKyogre_mvl/mxv
 BYTE   PAN   c_v+0
 BYTE   VOL   47*Sonic2006HisWorldSurfingKyogre_mvl/mxv
 BYTE   PAN   c_v+0
 BYTE   VOL   47*Sonic2006HisWorldSurfingKyogre_mvl/mxv
 BYTE   BEND   c_v+0
 BYTE   FINE

//**************** Track 9 (Midi-Chn.8) ****************//

Sonic2006HisWorldSurfingKyogre_009:
// 000   ----------------------------------------
 BYTE   KEYSH   Sonic2006HisWorldSurfingKyogre_key+0
 BYTE   VOICE   124
 BYTE   PAN   c_v+0
 BYTE   VOL   47*Sonic2006HisWorldSurfingKyogre_mvl/mxv
 BYTE   PAN   c_v+0
 BYTE   VOL   47*Sonic2006HisWorldSurfingKyogre_mvl/mxv
 BYTE   PAN   c_v+0
 BYTE   VOL   47*Sonic2006HisWorldSurfingKyogre_mvl/mxv
 BYTE   PAN   c_v+0
 BYTE   VOL   47*Sonic2006HisWorldSurfingKyogre_mvl/mxv
 BYTE   BEND   c_v+0
 BYTE   TIE  An2  v080
 BYTE   W96
// 001   ----------------------------------------
 BYTE   W23
 BYTE   EOT
 BYTE   W72
 BYTE   W01
// 002   ----------------------------------------
 BYTE   W96
// 003   ----------------------------------------
 BYTE   W96
// 004   ----------------------------------------
 BYTE   W96
// 005   ----------------------------------------
 BYTE   W96
// 006   ----------------------------------------
 BYTE   W96
// 007   ----------------------------------------
 BYTE   W96
// 008   ----------------------------------------
 BYTE   N05  Bn0  v120
 BYTE   N05  Fs1
 BYTE   N11  Cs2
 BYTE   W24
 BYTE   N05  Fs1
 BYTE   W24
 BYTE   Cs1  v116
 BYTE   N05  Fs1
 BYTE   W24
 BYTE   N05
 BYTE   W12
 BYTE   Bn0
 BYTE   W12
// 009   ----------------------------------------
Label_8_018159D8:
 BYTE   N05  Fs1  v116
 BYTE   W12
 BYTE   Cs1
 BYTE   W12
 BYTE   Fs1
 BYTE   W24
 BYTE   Cs1
 BYTE   N05  Fs1
 BYTE   W24
 BYTE   N11  Gs1  v124
 BYTE   W24
 BYTE   PEND 
// 010   ----------------------------------------
Label_8_018159E9:
 BYTE   N05  Bn0  v120
 BYTE   N05  Fs1
 BYTE   W24
 BYTE   N05
 BYTE   W24
 BYTE   Cs1  v116
 BYTE   N05  Fs1
 BYTE   W24
 BYTE   N05
 BYTE   W12
 BYTE   Bn0
 BYTE   W12
 BYTE   PEND 
 BYTE   PATT
  POIN2 Label_8_018159D8
 BYTE   PATT
  POIN2 Label_8_018159E9
 BYTE   PATT
  POIN2 Label_8_018159D8
// 011   ----------------------------------------
 BYTE   N05  Bn0  v120
 BYTE   N05  Fs1
 BYTE   N11  Ds2
 BYTE   W24
 BYTE   N05  Fs1
 BYTE   W18
 BYTE   En1  v124
 BYTE   W06
 BYTE   N05
 BYTE   N05  Fs1  v116
 BYTE   W06
 BYTE   En1  v124
 BYTE   W06
 BYTE   N05
 BYTE   W12
 BYTE   Fs1  v116
 BYTE   W12
 BYTE   Bn0  v120
 BYTE   W12
// 012   ----------------------------------------
 BYTE   N05
 BYTE   N05  Fs1  v116
 BYTE   N11  Ds2  v124
 BYTE   W24
 BYTE   N05  Fs1  v116
 BYTE   W12
 BYTE   Bn0  v120
 BYTE   W12
 BYTE   Fs1  v116
 BYTE   N11  Cs2  v124
 BYTE   W12
 BYTE   N05  Bn0  v120
 BYTE   W12
 BYTE   N11  Gs1  v124
 BYTE   W24
// 013   ----------------------------------------
Label_8_01815A45:
 BYTE   N11  Bn0  v116
 BYTE   N11  Gs1  v127
 BYTE   W24
 BYTE   Fs1  v116
 BYTE   N11  Gs1  v127
 BYTE   W24
 BYTE   En1  v116
 BYTE   N11  Gs1  v127
 BYTE   W24
 BYTE   Fs1  v116
 BYTE   N11  Gs1  v127
 BYTE   W12
 BYTE   Bn0  v116
 BYTE   W12
 BYTE   PEND 
// 014   ----------------------------------------
Label_8_01815A62:
 BYTE   N11  Gs1  v127
 BYTE   W12
 BYTE   En1  v116
 BYTE   W12
 BYTE   Bn0
 BYTE   N11  Fs1
 BYTE   N11  Gs1  v127
 BYTE   W24
 BYTE   En1  v116
 BYTE   N11  Gs1  v127
 BYTE   W24
 BYTE   Fs1  v116
 BYTE   N11  Gs1  v127
 BYTE   W24
 BYTE   PEND 
 BYTE   PATT
  POIN2 Label_8_01815A45
// 015   ----------------------------------------
Label_8_01815A82:
 BYTE   N11  Gs1  v127
 BYTE   W12
 BYTE   En1  v116
 BYTE   W12
 BYTE   Bn0
 BYTE   N11  Fs1
 BYTE   N11  Gs1  v127
 BYTE   W24
 BYTE   En1  v116
 BYTE   N11  Gs1  v127
 BYTE   W24
 BYTE   Fs1  v116
 BYTE   N11  Gs1  v127
 BYTE   N11  Ds2  v116
 BYTE   W24
 BYTE   PEND 
 BYTE   PATT
  POIN2 Label_8_01815A45
// 016   ----------------------------------------
Label_8_01815AA5:
 BYTE   N11  Gs1  v127
 BYTE   W12
 BYTE   En1  v116
 BYTE   W12
 BYTE   Bn0
 BYTE   N11  Fs1
 BYTE   N11  Gs1  v127
 BYTE   W24
 BYTE   En1  v116
 BYTE   N11  Gs1  v127
 BYTE   W24
 BYTE   Fs1  v116
 BYTE   N11  Gs1  v127
 BYTE   N11  Gn2  v116
 BYTE   W24
 BYTE   PEND 
// 017   ----------------------------------------
Label_8_01815AC3:
 BYTE   N11  Bn0  v127
 BYTE   N11  Fs1
 BYTE   N11  Gs1
 BYTE   N11  Cs2
 BYTE   W24
 BYTE   En1
 BYTE   N11  Fs1
 BYTE   N11  Gs1
 BYTE   N11  As1
 BYTE   W24
 BYTE   Bn0
 BYTE   N11  Fs1
 BYTE   N11  Gs1
 BYTE   W12
 BYTE   Bn0
 BYTE   W12
 BYTE   En1
 BYTE   N11  Fs1
 BYTE   N11  Gs1
 BYTE   N11  As1
 BYTE   W24
 BYTE   PEND 
 BYTE   PATT
  POIN2 Label_8_01815AC3
// 018   ----------------------------------------
 BYTE   W96
// 019   ----------------------------------------
 BYTE   W96
// 020   ----------------------------------------
 BYTE   W96
// 021   ----------------------------------------
 BYTE   W96
// 022   ----------------------------------------
 BYTE   W96
// 023   ----------------------------------------
 BYTE   W96
// 024   ----------------------------------------
 BYTE   W96
// 025   ----------------------------------------
 BYTE   W96
// 026   ----------------------------------------
 BYTE   W96
// 027   ----------------------------------------
 BYTE   W96
// 028   ----------------------------------------
 BYTE   W96
// 029   ----------------------------------------
 BYTE   W96
// 030   ----------------------------------------
 BYTE   W96
// 031   ----------------------------------------
 BYTE   W96
// 032   ----------------------------------------
 BYTE   W96
// 033   ----------------------------------------
 BYTE   W96
// 034   ----------------------------------------
 BYTE   W96
// 035   ----------------------------------------
 BYTE   W96
// 036   ----------------------------------------
 BYTE   W96
// 037   ----------------------------------------
 BYTE   W96
// 038   ----------------------------------------
 BYTE   W96
// 039   ----------------------------------------
 BYTE   W96
// 040   ----------------------------------------
 BYTE   W96
// 041   ----------------------------------------
 BYTE   W96
// 042   ----------------------------------------
 BYTE   W96
// 043   ----------------------------------------
 BYTE   W96
// 044   ----------------------------------------
 BYTE   W96
// 045   ----------------------------------------
 BYTE   W96
// 046   ----------------------------------------
 BYTE   W96
// 047   ----------------------------------------
 BYTE   W96
// 048   ----------------------------------------
 BYTE   W96
// 049   ----------------------------------------
 BYTE   W96
// 050   ----------------------------------------
 BYTE   W96
// 051   ----------------------------------------
 BYTE   W96
// 052   ----------------------------------------
 BYTE   W96
// 053   ----------------------------------------
 BYTE   W96
// 054   ----------------------------------------
 BYTE   W96
// 055   ----------------------------------------
 BYTE   W96
// 056   ----------------------------------------
 BYTE   W96
// 057   ----------------------------------------
 BYTE   W96
// 058   ----------------------------------------
 BYTE   W96
// 059   ----------------------------------------
 BYTE   W96
// 060   ----------------------------------------
 BYTE   W96
// 061   ----------------------------------------
 BYTE   GoTo
  POIN2 Label_8_01815A45
 BYTE   PATT
  POIN2 Label_8_01815A45
 BYTE   PATT
  POIN2 Label_8_01815A62
 BYTE   PATT
  POIN2 Label_8_01815A45
 BYTE   PATT
  POIN2 Label_8_01815A82
 BYTE   PATT
  POIN2 Label_8_01815A45
 BYTE   PATT
  POIN2 Label_8_01815AA5
 BYTE   PATT
  POIN2 Label_8_01815AC3
 BYTE   PATT
  POIN2 Label_8_01815AC3
// 062   ----------------------------------------
 BYTE   W96
// 063   ----------------------------------------
 BYTE   W96
// 064   ----------------------------------------
 BYTE   W96
// 065   ----------------------------------------
 BYTE   W96
// 066   ----------------------------------------
 BYTE   W96
// 067   ----------------------------------------
 BYTE   W96
// 068   ----------------------------------------
 BYTE   W96
// 069   ----------------------------------------
 BYTE   W96
// 070   ----------------------------------------
 BYTE   W96
// 071   ----------------------------------------
 BYTE   W96
// 072   ----------------------------------------
 BYTE   W96
// 073   ----------------------------------------
 BYTE   W96
// 074   ----------------------------------------
 BYTE   W96
// 075   ----------------------------------------
 BYTE   PAN   c_v+0
 BYTE   VOL   47*Sonic2006HisWorldSurfingKyogre_mvl/mxv
 BYTE   PAN   c_v+0
 BYTE   VOL   47*Sonic2006HisWorldSurfingKyogre_mvl/mxv
 BYTE   PAN   c_v+0
 BYTE   VOL   47*Sonic2006HisWorldSurfingKyogre_mvl/mxv
 BYTE   BEND   c_v+0
 BYTE   FINE

//******************************************************//
	ALIGN 4

Sonic2006HisWorldSurfingKyogre:
	BYTE	9	// NumTrks
	BYTE	0	// NumBlks
	BYTE	Sonic2006HisWorldSurfingKyogre_pri	// Priority
	BYTE	Sonic2006HisWorldSurfingKyogre_rev	// Reverb.
    
	POIN2	Sonic2006HisWorldSurfingKyogre_grp
    
	POIN2	Sonic2006HisWorldSurfingKyogre_001
	POIN2	Sonic2006HisWorldSurfingKyogre_002
	POIN2	Sonic2006HisWorldSurfingKyogre_003
	POIN2	Sonic2006HisWorldSurfingKyogre_004
	POIN2	Sonic2006HisWorldSurfingKyogre_005
	POIN2	Sonic2006HisWorldSurfingKyogre_006
	POIN2	Sonic2006HisWorldSurfingKyogre_007
	POIN2	Sonic2006HisWorldSurfingKyogre_008
	POIN2	Sonic2006HisWorldSurfingKyogre_009

	
