//Event file generated from Sappy .s format.
	#include "MPlayDef.event"

	#define	RomancingSaga3BattleMrGreen3339_grp  voicegroup000
	#define	RomancingSaga3BattleMrGreen3339_pri  0
	#define	RomancingSaga3BattleMrGreen3339_rev  0
	#define	RomancingSaga3BattleMrGreen3339_mvl  127
	#define	RomancingSaga3BattleMrGreen3339_key  0
	#define	RomancingSaga3BattleMrGreen3339_tbs  1
	#define	RomancingSaga3BattleMrGreen3339_exg  0
	#define	RomancingSaga3BattleMrGreen3339_cmp  1

	// .rodata
	//	RomancingSaga3BattleMrGreen3339
	ALIGN 4


//**************** Track 1 (Midi-Chn.0) ****************//

RomancingSaga3BattleMrGreen3339_001:
// 000   ----------------------------------------
 BYTE   KEYSH   RomancingSaga3BattleMrGreen3339_key+0
Label_0_012DC38E:
 BYTE   TEMPO   152*RomancingSaga3BattleMrGreen3339_tbs/2
 BYTE   VOICE   48
 BYTE   VOL   47*RomancingSaga3BattleMrGreen3339_mvl/mxv
 BYTE   PAN   c_v+0
 BYTE   W12
 BYTE   N12  Bn3  v112
 BYTE   W12
 BYTE   Cs4
 BYTE   W12
 BYTE   Dn4
 BYTE   W12
 BYTE   N36  Cs4
 BYTE   W36
 BYTE   N12  En4
 BYTE   W12
// 001   ----------------------------------------
 BYTE   Dn4
 BYTE   W12
 BYTE   Cs4
 BYTE   W12
 BYTE   N72  Dn4
 BYTE   W72
// 002   ----------------------------------------
 BYTE   W12
 BYTE   N12
 BYTE   W12
 BYTE   En4
 BYTE   W12
 BYTE   Fs4
 BYTE   W12
 BYTE   N36  En4
 BYTE   W36
 BYTE   N12  Gn4
 BYTE   W12
// 003   ----------------------------------------
 BYTE   Fs4
 BYTE   W12
 BYTE   Fn4
 BYTE   W12
 BYTE   N24  Fs4
 BYTE   W36
 BYTE   N12  An4
 BYTE   W12
 BYTE   Gn4
 BYTE   W12
 BYTE   Fs4
 BYTE   W12
// 004   ----------------------------------------
 BYTE   N48  Gn4
 BYTE   W48
 BYTE   Fs4
 BYTE   W48
// 005   ----------------------------------------
 BYTE   N16  En4
 BYTE   W16
 BYTE   Dn4
 BYTE   W16
 BYTE   Cs4
 BYTE   W16
 BYTE   N24  Fs4
 BYTE   W24
 BYTE   N20  As3
 BYTE   W24
// 006   ----------------------------------------
Label_0_012DC3D9:
 BYTE   VOICE   79
 BYTE   N02  Bn4  v127
 BYTE   W06
 BYTE   N02
 BYTE   W06
 BYTE   Bn5
 BYTE   W06
 BYTE   Fs5
 BYTE   W06
 BYTE   Bn4
 BYTE   W06
 BYTE   Bn5
 BYTE   W06
 BYTE   Fs5
 BYTE   W06
 BYTE   Bn4
 BYTE   W06
 BYTE   Bn5
 BYTE   W06
 BYTE   Fs5
 BYTE   W06
 BYTE   Bn4
 BYTE   W06
 BYTE   Bn5
 BYTE   W06
 BYTE   Fs5
 BYTE   W06
 BYTE   Bn4
 BYTE   W06
 BYTE   Bn5
 BYTE   W06
 BYTE   Fs5
 BYTE   W06
 BYTE   PEND 
// 007   ----------------------------------------
Label_0_012DC3FE:
 BYTE   N02  Bn4  v127
 BYTE   W06
 BYTE   N02
 BYTE   W06
 BYTE   Bn5
 BYTE   W06
 BYTE   Fs5
 BYTE   W06
 BYTE   Bn4
 BYTE   W06
 BYTE   Bn5
 BYTE   W06
 BYTE   Fs5
 BYTE   W06
 BYTE   Bn4
 BYTE   W06
 BYTE   Bn5
 BYTE   W06
 BYTE   Fs5
 BYTE   W06
 BYTE   Bn4
 BYTE   W06
 BYTE   Bn5
 BYTE   W06
 BYTE   Fs5
 BYTE   W06
 BYTE   Bn4
 BYTE   W06
 BYTE   Bn5
 BYTE   W06
 BYTE   Fs5
 BYTE   W06
 BYTE   PEND 
// 008   ----------------------------------------
 BYTE   PATT
  POIN2 Label_0_012DC3FE
// 009   ----------------------------------------
 BYTE   VOICE   48
 BYTE   W48
 BYTE   N06  Bn3  v112
 BYTE   W06
 BYTE   Fs3
 BYTE   W06
 BYTE   Bn3
 BYTE   W06
 BYTE   Dn4
 BYTE   W06
 BYTE   Fs4
 BYTE   W06
 BYTE   Dn4
 BYTE   W06
 BYTE   Fs4
 BYTE   W06
 BYTE   N05  Bn4
 BYTE   W06
// 010   ----------------------------------------
Label_0_012DC43C:
 BYTE   VOICE   57
 BYTE   W12
 BYTE   N12  Bn3  v112
 BYTE   W12
 BYTE   Cs4
 BYTE   W12
 BYTE   Dn4
 BYTE   W12
 BYTE   N16  Cs4
 BYTE   W16
 BYTE   Gs3
 BYTE   W16
 BYTE   Bn3
 BYTE   W16
 BYTE   PEND 
// 011   ----------------------------------------
Label_0_012DC44F:
 BYTE   N20  As3  v112
 BYTE   W36
 BYTE   N06
 BYTE   W06
 BYTE   Bn3
 BYTE   W06
 BYTE   N24  Cs4
 BYTE   W24
 BYTE   Gn3
 BYTE   W24
 BYTE   PEND 
// 012   ----------------------------------------
 BYTE   TIE  Fs3
 BYTE   W96
// 013   ----------------------------------------
 BYTE   W66
 BYTE   EOT
 BYTE   W30
// 014   ----------------------------------------
Label_0_012DC463:
 BYTE   W12
 BYTE   N12  Gn3  v112
 BYTE   W12
 BYTE   An3
 BYTE   W12
 BYTE   Bn3
 BYTE   W12
 BYTE   N16  Cs4
 BYTE   W16
 BYTE   Bn3
 BYTE   W16
 BYTE   Cs4
 BYTE   W16
 BYTE   PEND 
// 015   ----------------------------------------
Label_0_012DC474:
 BYTE   N36  Dn4  v112
 BYTE   W36
 BYTE   N06  Cs4
 BYTE   W06
 BYTE   Bn3
 BYTE   W06
 BYTE   N24  Cs4
 BYTE   W24
 BYTE   N20  An3
 BYTE   W24
 BYTE   PEND 
// 016   ----------------------------------------
Label_0_012DC484:
 BYTE   W12
 BYTE   N12  Bn3  v112
 BYTE   W12
 BYTE   An3
 BYTE   W12
 BYTE   Bn3
 BYTE   W12
 BYTE   N18  Gn3
 BYTE   W18
 BYTE   Bn3
 BYTE   W18
 BYTE   N12  Dn4
 BYTE   W12
 BYTE   PEND 
// 017   ----------------------------------------
Label_0_012DC496:
 BYTE   N18  Cs4  v112
 BYTE   W18
 BYTE   Bn3
 BYTE   W18
 BYTE   N12  An3
 BYTE   W12
 BYTE   N42  Fs4
 BYTE   W48
 BYTE   PEND 
// 018   ----------------------------------------
Label_0_012DC4A3:
 BYTE   VOICE   48
 BYTE   N72  An4  v112
 BYTE   W72
 BYTE   N12  Gn4
 BYTE   W12
 BYTE   Fs4
 BYTE   W12
 BYTE   PEND 
// 019   ----------------------------------------
Label_0_012DC4AF:
 BYTE   N16  En4  v112
 BYTE   W16
 BYTE   Ds4
 BYTE   W16
 BYTE   En4
 BYTE   W16
 BYTE   N32  Gn4
 BYTE   W36
 BYTE   N06  En4
 BYTE   W06
 BYTE   Fs4
 BYTE   W06
 BYTE   PEND 
// 020   ----------------------------------------
Label_0_012DC4C0:
 BYTE   N72  Gn4  v112
 BYTE   W72
 BYTE   N12  Fs4
 BYTE   W12
 BYTE   En4
 BYTE   W12
 BYTE   PEND 
// 021   ----------------------------------------
Label_0_012DC4CA:
 BYTE   N16  Dn4  v112
 BYTE   W16
 BYTE   Cs4
 BYTE   W16
 BYTE   Dn4
 BYTE   W16
 BYTE   N42  Fs4
 BYTE   W48
 BYTE   PEND 
// 022   ----------------------------------------
Label_0_012DC4D6:
 BYTE   N60  En4  v112
 BYTE   W60
 BYTE   N12  Dn4
 BYTE   W12
 BYTE   Cs4
 BYTE   W12
 BYTE   Bn3
 BYTE   W12
 BYTE   PEND 
// 023   ----------------------------------------
Label_0_012DC4E2:
 BYTE   N16  As3  v112
 BYTE   W16
 BYTE   Gn4
 BYTE   W16
 BYTE   Fs4
 BYTE   W16
 BYTE   N24  Cs4
 BYTE   W24
 BYTE   N20  As3
 BYTE   W24
 BYTE   PEND 
// 024   ----------------------------------------
 BYTE   PATT
  POIN2 Label_0_012DC3D9
// 025   ----------------------------------------
Label_0_012DC4F6:
 BYTE   N02  Bn4  v127
 BYTE   W06
 BYTE   N02
 BYTE   W06
 BYTE   Bn5
 BYTE   W06
 BYTE   Fs5
 BYTE   W06
 BYTE   Bn4
 BYTE   W06
 BYTE   Bn5
 BYTE   W06
 BYTE   Fs5
 BYTE   W06
 BYTE   Bn4
 BYTE   W06
 BYTE   VOICE   57
 BYTE   N12  Bn3  v112
 BYTE   W12
 BYTE   Cs4
 BYTE   W12
 BYTE   Dn4
 BYTE   W12
 BYTE   Fs4
 BYTE   W12
 BYTE   PEND 
// 026   ----------------------------------------
Label_0_012DC515:
 BYTE   N24  Gn4  v112
 BYTE   W24
 BYTE   Bn4
 BYTE   W24
 BYTE   N18  As4
 BYTE   W18
 BYTE   Gn4
 BYTE   W18
 BYTE   N12  Fs4
 BYTE   W12
 BYTE   PEND 
// 027   ----------------------------------------
Label_0_012DC524:
 BYTE   N36  En4  v112
 BYTE   W36
 BYTE   N06  Ds4
 BYTE   W06
 BYTE   Cs4
 BYTE   W06
 BYTE   N42  Ds4
 BYTE   W48
 BYTE   PEND 
// 028   ----------------------------------------
Label_0_012DC531:
 BYTE   N12  En4  v112
 BYTE   W12
 BYTE   Dn4
 BYTE   W12
 BYTE   Cs4
 BYTE   W12
 BYTE   Bn3
 BYTE   W12
 BYTE   N18  Cs4
 BYTE   W18
 BYTE   Dn4
 BYTE   W18
 BYTE   N12  En4
 BYTE   W12
 BYTE   PEND 
// 029   ----------------------------------------
 BYTE   N90  Fs4
 BYTE   W96
// 030   ----------------------------------------
Label_0_012DC547:
 BYTE   N18  En4  v112
 BYTE   W18
 BYTE   Fs4
 BYTE   W18
 BYTE   N12  En4
 BYTE   W12
 BYTE   N18  Ds4
 BYTE   W18
 BYTE   En4
 BYTE   W18
 BYTE   N12  Fs4
 BYTE   W12
 BYTE   PEND 
// 031   ----------------------------------------
Label_0_012DC559:
 BYTE   N18  Gn4  v112
 BYTE   W18
 BYTE   Fs4
 BYTE   W18
 BYTE   N12  Gn4
 BYTE   W12
 BYTE   N18  Gs4
 BYTE   W18
 BYTE   Cs5
 BYTE   W18
 BYTE   N12  Bn4
 BYTE   W12
 BYTE   PEND 
// 032   ----------------------------------------
 BYTE   TIE  Fs4
 BYTE   W96
// 033   ----------------------------------------
 BYTE   W90
 BYTE   EOT
 BYTE   W06
// 034   ----------------------------------------
 BYTE   W96
// 035   ----------------------------------------
Label_0_012DC572:
 BYTE   W48
 BYTE   N04  As4  v112
 BYTE   W06
 BYTE   N04
 BYTE   W06
 BYTE   N04
 BYTE   W06
 BYTE   N04
 BYTE   W12
 BYTE   N04
 BYTE   W06
 BYTE   N04
 BYTE   W12
 BYTE   PEND 
// 036   ----------------------------------------
 BYTE   PATT
  POIN2 Label_0_012DC43C
// 037   ----------------------------------------
 BYTE   PATT
  POIN2 Label_0_012DC44F
// 038   ----------------------------------------
 BYTE   TIE  Fs3  v112
 BYTE   W96
// 039   ----------------------------------------
 BYTE   W66
 BYTE   EOT
 BYTE   W30
// 040   ----------------------------------------
 BYTE   PATT
  POIN2 Label_0_012DC463
// 041   ----------------------------------------
 BYTE   PATT
  POIN2 Label_0_012DC474
// 042   ----------------------------------------
 BYTE   PATT
  POIN2 Label_0_012DC484
// 043   ----------------------------------------
 BYTE   PATT
  POIN2 Label_0_012DC496
// 044   ----------------------------------------
 BYTE   PATT
  POIN2 Label_0_012DC4A3
// 045   ----------------------------------------
 BYTE   PATT
  POIN2 Label_0_012DC4AF
// 046   ----------------------------------------
 BYTE   PATT
  POIN2 Label_0_012DC4C0
// 047   ----------------------------------------
 BYTE   PATT
  POIN2 Label_0_012DC4CA
// 048   ----------------------------------------
 BYTE   PATT
  POIN2 Label_0_012DC4D6
// 049   ----------------------------------------
 BYTE   PATT
  POIN2 Label_0_012DC4E2
// 050   ----------------------------------------
 BYTE   PATT
  POIN2 Label_0_012DC3D9
// 051   ----------------------------------------
 BYTE   PATT
  POIN2 Label_0_012DC4F6
// 052   ----------------------------------------
 BYTE   PATT
  POIN2 Label_0_012DC515
// 053   ----------------------------------------
 BYTE   PATT
  POIN2 Label_0_012DC524
// 054   ----------------------------------------
 BYTE   PATT
  POIN2 Label_0_012DC531
// 055   ----------------------------------------
 BYTE   N90  Fs4  v112
 BYTE   W96
// 056   ----------------------------------------
 BYTE   PATT
  POIN2 Label_0_012DC547
// 057   ----------------------------------------
 BYTE   PATT
  POIN2 Label_0_012DC559
// 058   ----------------------------------------
 BYTE   TIE  Fs4  v112
 BYTE   W96
// 059   ----------------------------------------
 BYTE   W90
 BYTE   EOT
 BYTE   W06
// 060   ----------------------------------------
 BYTE   W96
// 061   ----------------------------------------
 BYTE   PATT
  POIN2 Label_0_012DC572
// 062   ----------------------------------------
 BYTE   GoTo
  POIN2 Label_0_012DC38E
 BYTE   FINE

//**************** Track 2 (Midi-Chn.1) ****************//

RomancingSaga3BattleMrGreen3339_002:
// 000   ----------------------------------------
 BYTE   KEYSH   RomancingSaga3BattleMrGreen3339_key+0
Label_1_012DC602:
 BYTE   VOICE   127
 BYTE   VOL   29*RomancingSaga3BattleMrGreen3339_mvl/mxv
 BYTE   PAN   c_v+0
 BYTE   N05  Fs1  v112
 BYTE   W06
 BYTE   N05
 BYTE   W06
 BYTE   N11  As1
 BYTE   W12
 BYTE   N05  Fs1
 BYTE   W06
 BYTE   N05
 BYTE   W06
 BYTE   N11  As1
 BYTE   W12
 BYTE   N05  Fs1
 BYTE   W06
 BYTE   N05
 BYTE   W06
 BYTE   N11  As1
 BYTE   W12
 BYTE   N05  Fs1
 BYTE   W06
 BYTE   N05
 BYTE   W06
 BYTE   N11  As1
 BYTE   W12
// 001   ----------------------------------------
 BYTE   N05  Fs1
 BYTE   W06
 BYTE   N05
 BYTE   W06
 BYTE   N11  As1
 BYTE   W12
 BYTE   N05  Fs1
 BYTE   W06
 BYTE   N05
 BYTE   W06
 BYTE   N11  As1
 BYTE   W12
 BYTE   N05  Fs1
 BYTE   W06
 BYTE   N05
 BYTE   W06
 BYTE   Cn1
 BYTE   N05  Cn2
 BYTE   W06
 BYTE   Cn1
 BYTE   N05  Cn2
 BYTE   W06
 BYTE   Bn0
 BYTE   N05  Bn1
 BYTE   W06
 BYTE   Bn0
 BYTE   N05  Bn1
 BYTE   W06
 BYTE   An0
 BYTE   N05  As1
 BYTE   W06
 BYTE   An0
 BYTE   N05  An1
 BYTE   W06
// 002   ----------------------------------------
Label_1_012DC656:
 BYTE   N05  Fs1  v112
 BYTE   W06
 BYTE   N05
 BYTE   W06
 BYTE   N11  As1
 BYTE   W12
 BYTE   N05  Fs1
 BYTE   W06
 BYTE   N05
 BYTE   W06
 BYTE   N11  As1
 BYTE   W12
 BYTE   N05  Fs1
 BYTE   W06
 BYTE   N05
 BYTE   W06
 BYTE   N11  As1
 BYTE   W12
 BYTE   N05  Fs1
 BYTE   W06
 BYTE   N05
 BYTE   W06
 BYTE   N11  As1
 BYTE   W12
 BYTE   PEND 
// 003   ----------------------------------------
 BYTE   N05  Fs1
 BYTE   W06
 BYTE   N05
 BYTE   W06
 BYTE   N11  As1
 BYTE   W12
 BYTE   N05  Fs1
 BYTE   W06
 BYTE   N05
 BYTE   W06
 BYTE   N11  As1
 BYTE   W60
// 004   ----------------------------------------
 BYTE   N05  Fs1
 BYTE   W12
 BYTE   N05
 BYTE   W06
 BYTE   N05
 BYTE   W06
 BYTE   N05
 BYTE   W12
 BYTE   N05
 BYTE   W06
 BYTE   N05
 BYTE   W06
 BYTE   N05
 BYTE   W12
 BYTE   N05
 BYTE   W06
 BYTE   N05
 BYTE   W06
 BYTE   N05
 BYTE   W12
 BYTE   N05
 BYTE   W06
 BYTE   N05
 BYTE   W06
// 005   ----------------------------------------
 BYTE   W30
 BYTE   En1
 BYTE   W06
 BYTE   N05
 BYTE   W06
 BYTE   Dn1
 BYTE   W06
 BYTE   N05
 BYTE   W48
// 006   ----------------------------------------
 BYTE   PATT
  POIN2 Label_1_012DC656
// 007   ----------------------------------------
 BYTE   PATT
  POIN2 Label_1_012DC656
// 008   ----------------------------------------
 BYTE   PATT
  POIN2 Label_1_012DC656
// 009   ----------------------------------------
 BYTE   W96
// 010   ----------------------------------------
Label_1_012DC6BA:
 BYTE   N05  Fs1  v112
 BYTE   W06
 BYTE   N05
 BYTE   W06
 BYTE   N11  Gs1
 BYTE   N11  As1
 BYTE   W12
 BYTE   N05  Fs1
 BYTE   W06
 BYTE   N05
 BYTE   W06
 BYTE   N11  Gs1
 BYTE   N11  As1
 BYTE   W12
 BYTE   N05  Fs1
 BYTE   W06
 BYTE   N05
 BYTE   W06
 BYTE   N11  Gs1
 BYTE   N11  As1
 BYTE   W12
 BYTE   N05  Fs1
 BYTE   W06
 BYTE   N05
 BYTE   W06
 BYTE   N11  Gs1
 BYTE   N11  As1
 BYTE   W12
 BYTE   PEND 
// 011   ----------------------------------------
Label_1_012DC6E4:
 BYTE   N05  Fs1  v112
 BYTE   W06
 BYTE   N05
 BYTE   W06
 BYTE   N11  Gs1
 BYTE   N11  As1
 BYTE   W12
 BYTE   N05  Fs1
 BYTE   W06
 BYTE   N05
 BYTE   W06
 BYTE   N11  Gs1
 BYTE   N11  As1
 BYTE   W12
 BYTE   N20  Fs1
 BYTE   W48
 BYTE   PEND 
// 012   ----------------------------------------
Label_1_012DC6FD:
 BYTE   N05  Fs1  v112
 BYTE   W12
 BYTE   N05
 BYTE   W06
 BYTE   N05
 BYTE   W06
 BYTE   N05
 BYTE   N05  Gs1
 BYTE   W12
 BYTE   Fs1
 BYTE   W06
 BYTE   N05
 BYTE   W06
 BYTE   N05
 BYTE   W12
 BYTE   N05
 BYTE   W06
 BYTE   N05
 BYTE   W06
 BYTE   N05
 BYTE   N05  Gs1
 BYTE   W12
 BYTE   Fs1
 BYTE   W06
 BYTE   N05
 BYTE   W06
 BYTE   PEND 
// 013   ----------------------------------------
Label_1_012DC71C:
 BYTE   N05  Fs1  v112
 BYTE   W12
 BYTE   N05
 BYTE   W06
 BYTE   N05
 BYTE   W06
 BYTE   N05
 BYTE   N05  Gs1
 BYTE   W12
 BYTE   Fs1
 BYTE   W06
 BYTE   N05
 BYTE   W06
 BYTE   N05
 BYTE   N05  Gs1
 BYTE   W30
 BYTE   Cn1
 BYTE   N05  Cn2
 BYTE   W06
 BYTE   Bn0
 BYTE   N05  Bn1
 BYTE   W06
 BYTE   An0
 BYTE   N05  An1
 BYTE   W06
 BYTE   PEND 
// 014   ----------------------------------------
 BYTE   PATT
  POIN2 Label_1_012DC656
// 015   ----------------------------------------
 BYTE   PATT
  POIN2 Label_1_012DC656
// 016   ----------------------------------------
 BYTE   PATT
  POIN2 Label_1_012DC656
// 017   ----------------------------------------
Label_1_012DC74C:
 BYTE   N05  Fs1  v112
 BYTE   W06
 BYTE   N05
 BYTE   W06
 BYTE   N11  As1
 BYTE   W12
 BYTE   N05  Fs1
 BYTE   W06
 BYTE   N05
 BYTE   W06
 BYTE   N11  As1
 BYTE   W18
 BYTE   N05  Cn1
 BYTE   N05  Cn2
 BYTE   W06
 BYTE   Cn1
 BYTE   N05  Bn1
 BYTE   W12
 BYTE   Cn1
 BYTE   N05  Bn1
 BYTE   W06
 BYTE   Cn1
 BYTE   N05  An1
 BYTE   W12
 BYTE   Cn1
 BYTE   N05  An1
 BYTE   W06
 BYTE   PEND 
// 018   ----------------------------------------
Label_1_012DC773:
 BYTE   N05  Gs1  v112
 BYTE   W12
 BYTE   N05
 BYTE   W06
 BYTE   N05
 BYTE   W06
 BYTE   Fs1
 BYTE   N05  Gs1
 BYTE   W12
 BYTE   N05
 BYTE   W06
 BYTE   N05
 BYTE   W06
 BYTE   N05
 BYTE   W12
 BYTE   N05
 BYTE   W06
 BYTE   N05
 BYTE   W06
 BYTE   Fs1
 BYTE   N05  Gs1
 BYTE   W12
 BYTE   N05
 BYTE   W06
 BYTE   N05
 BYTE   W06
 BYTE   PEND 
// 019   ----------------------------------------
 BYTE   PATT
  POIN2 Label_1_012DC773
// 020   ----------------------------------------
 BYTE   PATT
  POIN2 Label_1_012DC773
// 021   ----------------------------------------
 BYTE   PATT
  POIN2 Label_1_012DC773
// 022   ----------------------------------------
 BYTE   PATT
  POIN2 Label_1_012DC773
// 023   ----------------------------------------
Label_1_012DC7A6:
 BYTE   N05  Gs1  v112
 BYTE   W12
 BYTE   N05
 BYTE   W06
 BYTE   N05
 BYTE   W06
 BYTE   Fs1
 BYTE   N05  Gs1
 BYTE   W12
 BYTE   N05
 BYTE   W06
 BYTE   N05
 BYTE   W06
 BYTE   N05
 BYTE   W12
 BYTE   Cn1
 BYTE   N05  Cn2
 BYTE   W06
 BYTE   Cn1
 BYTE   N05  Cn2
 BYTE   W06
 BYTE   Bn0
 BYTE   N05  Bn1
 BYTE   W06
 BYTE   Bn0
 BYTE   N05  Bn1
 BYTE   W06
 BYTE   An0
 BYTE   N05  An1
 BYTE   W06
 BYTE   An0
 BYTE   N05  An1
 BYTE   W06
 BYTE   PEND 
// 024   ----------------------------------------
Label_1_012DC7D1:
 BYTE   N11  Fs1  v112
 BYTE   W12
 BYTE   N11
 BYTE   W12
 BYTE   N11
 BYTE   W12
 BYTE   N05
 BYTE   W06
 BYTE   N05
 BYTE   W06
 BYTE   N11
 BYTE   W12
 BYTE   N11
 BYTE   W12
 BYTE   N11
 BYTE   W12
 BYTE   N05
 BYTE   W06
 BYTE   N05
 BYTE   W06
 BYTE   PEND 
// 025   ----------------------------------------
Label_1_012DC7E8:
 BYTE   W54
 BYTE   N05  Cn1  v112
 BYTE   N05  Cn2
 BYTE   W06
 BYTE   Bn0
 BYTE   N05  Bn1
 BYTE   W12
 BYTE   Bn0
 BYTE   N05  Bn1
 BYTE   W06
 BYTE   An0
 BYTE   N05  An1
 BYTE   W12
 BYTE   An0
 BYTE   N05  An1
 BYTE   W06
 BYTE   PEND 
// 026   ----------------------------------------
 BYTE   PATT
  POIN2 Label_1_012DC773
// 027   ----------------------------------------
 BYTE   PATT
  POIN2 Label_1_012DC773
// 028   ----------------------------------------
 BYTE   PATT
  POIN2 Label_1_012DC773
// 029   ----------------------------------------
Label_1_012DC80F:
 BYTE   N05  Gs1  v112
 BYTE   W12
 BYTE   N05
 BYTE   W06
 BYTE   N05
 BYTE   W06
 BYTE   Fs1
 BYTE   N05  Gs1
 BYTE   W12
 BYTE   N05
 BYTE   W06
 BYTE   N05
 BYTE   W30
 BYTE   N20  Gn1
 BYTE   W24
 BYTE   PEND 
// 030   ----------------------------------------
Label_1_012DC823:
 BYTE   W12
 BYTE   N05  Cn1  v112
 BYTE   N05  Cn2
 BYTE   W06
 BYTE   Cn1
 BYTE   N05  Cn2
 BYTE   W06
 BYTE   Bn0
 BYTE   N05  Bn1
 BYTE   W06
 BYTE   Bn0
 BYTE   N05  Bn1
 BYTE   W06
 BYTE   An0
 BYTE   N05  An1
 BYTE   W06
 BYTE   An0
 BYTE   N05  An1
 BYTE   W18
 BYTE   Cn1
 BYTE   N05  Cn2
 BYTE   W06
 BYTE   Cn1
 BYTE   N05  Cn2
 BYTE   W06
 BYTE   Bn0
 BYTE   N05  Bn1
 BYTE   W06
 BYTE   Bn0
 BYTE   N05  Bn1
 BYTE   W06
 BYTE   An0
 BYTE   N05  An1
 BYTE   W06
 BYTE   An0
 BYTE   N05  An1
 BYTE   W06
 BYTE   PEND 
// 031   ----------------------------------------
Label_1_012DC857:
 BYTE   W12
 BYTE   N05  Cn1  v112
 BYTE   N05  Cn2
 BYTE   W06
 BYTE   Cn1
 BYTE   N05  Cn2
 BYTE   W06
 BYTE   Bn0
 BYTE   N05  Bn1
 BYTE   W06
 BYTE   Bn0
 BYTE   N05  Bn1
 BYTE   W06
 BYTE   An0
 BYTE   N05  An1
 BYTE   W06
 BYTE   An0
 BYTE   N05  An1
 BYTE   W54
 BYTE   PEND 
// 032   ----------------------------------------
 BYTE   PATT
  POIN2 Label_1_012DC656
// 033   ----------------------------------------
 BYTE   PATT
  POIN2 Label_1_012DC656
// 034   ----------------------------------------
Label_1_012DC87D:
 BYTE   W36
 BYTE   N05  Cn1  v112
 BYTE   N05  Cn2
 BYTE   W06
 BYTE   An0
 BYTE   N05  An1
 BYTE   W42
 BYTE   Cn1
 BYTE   N05  Cn2
 BYTE   W06
 BYTE   An0
 BYTE   N05  An1
 BYTE   W06
 BYTE   PEND 
// 035   ----------------------------------------
 BYTE   W96
// 036   ----------------------------------------
 BYTE   PATT
  POIN2 Label_1_012DC6BA
// 037   ----------------------------------------
 BYTE   PATT
  POIN2 Label_1_012DC6E4
// 038   ----------------------------------------
 BYTE   PATT
  POIN2 Label_1_012DC6FD
// 039   ----------------------------------------
 BYTE   PATT
  POIN2 Label_1_012DC71C
// 040   ----------------------------------------
 BYTE   PATT
  POIN2 Label_1_012DC656
// 041   ----------------------------------------
 BYTE   PATT
  POIN2 Label_1_012DC656
// 042   ----------------------------------------
 BYTE   PATT
  POIN2 Label_1_012DC656
// 043   ----------------------------------------
 BYTE   PATT
  POIN2 Label_1_012DC74C
// 044   ----------------------------------------
 BYTE   PATT
  POIN2 Label_1_012DC773
// 045   ----------------------------------------
 BYTE   PATT
  POIN2 Label_1_012DC773
// 046   ----------------------------------------
 BYTE   PATT
  POIN2 Label_1_012DC773
// 047   ----------------------------------------
 BYTE   PATT
  POIN2 Label_1_012DC773
// 048   ----------------------------------------
 BYTE   PATT
  POIN2 Label_1_012DC773
// 049   ----------------------------------------
 BYTE   PATT
  POIN2 Label_1_012DC7A6
// 050   ----------------------------------------
 BYTE   PATT
  POIN2 Label_1_012DC7D1
// 051   ----------------------------------------
 BYTE   PATT
  POIN2 Label_1_012DC7E8
// 052   ----------------------------------------
 BYTE   PATT
  POIN2 Label_1_012DC773
// 053   ----------------------------------------
 BYTE   PATT
  POIN2 Label_1_012DC773
// 054   ----------------------------------------
 BYTE   PATT
  POIN2 Label_1_012DC773
// 055   ----------------------------------------
 BYTE   PATT
  POIN2 Label_1_012DC80F
// 056   ----------------------------------------
 BYTE   PATT
  POIN2 Label_1_012DC823
// 057   ----------------------------------------
 BYTE   PATT
  POIN2 Label_1_012DC857
// 058   ----------------------------------------
 BYTE   PATT
  POIN2 Label_1_012DC656
// 059   ----------------------------------------
 BYTE   PATT
  POIN2 Label_1_012DC656
// 060   ----------------------------------------
 BYTE   PATT
  POIN2 Label_1_012DC87D
// 061   ----------------------------------------
 BYTE   W96
// 062   ----------------------------------------
 BYTE   GoTo
  POIN2 Label_1_012DC602
 BYTE   FINE

//**************** Track 3 (Midi-Chn.2) ****************//

RomancingSaga3BattleMrGreen3339_003:
// 000   ----------------------------------------
 BYTE   KEYSH   RomancingSaga3BattleMrGreen3339_key+0
Label_2_0114B9FA:
 BYTE   VOL   37*RomancingSaga3BattleMrGreen3339_mvl/mxv
 BYTE   PAN   c_v+0
 BYTE   W96
// 001   ----------------------------------------
 BYTE   W96
// 002   ----------------------------------------
 BYTE   W96
// 003   ----------------------------------------
 BYTE   W96
// 004   ----------------------------------------
 BYTE   W96
// 005   ----------------------------------------
 BYTE   W96
// 006   ----------------------------------------
 BYTE   W96
// 007   ----------------------------------------
 BYTE   W96
// 008   ----------------------------------------
 BYTE   W96
// 009   ----------------------------------------
 BYTE   VOICE   48
 BYTE   W48
 BYTE   N12  Fs3  v112
 BYTE   W12
 BYTE   Bn3
 BYTE   W12
 BYTE   Dn4
 BYTE   W12
 BYTE   N11  Fs4
 BYTE   W12
// 010   ----------------------------------------
 BYTE   W96
// 011   ----------------------------------------
 BYTE   W96
// 012   ----------------------------------------
 BYTE   W96
// 013   ----------------------------------------
 BYTE   W96
// 014   ----------------------------------------
 BYTE   W96
// 015   ----------------------------------------
 BYTE   W96
// 016   ----------------------------------------
 BYTE   W96
// 017   ----------------------------------------
 BYTE   W96
// 018   ----------------------------------------
 BYTE   W96
// 019   ----------------------------------------
 BYTE   W96
// 020   ----------------------------------------
 BYTE   W96
// 021   ----------------------------------------
 BYTE   W96
// 022   ----------------------------------------
 BYTE   W96
// 023   ----------------------------------------
 BYTE   W96
// 024   ----------------------------------------
 BYTE   W96
// 025   ----------------------------------------
 BYTE   W96
// 026   ----------------------------------------
 BYTE   W96
// 027   ----------------------------------------
 BYTE   W96
// 028   ----------------------------------------
 BYTE   W96
// 029   ----------------------------------------
 BYTE   W96
// 030   ----------------------------------------
 BYTE   W96
// 031   ----------------------------------------
 BYTE   W96
// 032   ----------------------------------------
 BYTE   W96
// 033   ----------------------------------------
 BYTE   W96
// 034   ----------------------------------------
 BYTE   W96
// 035   ----------------------------------------
Label_2_0114BA2E:
 BYTE   VOICE   57
 BYTE   W48
 BYTE   N04  Fs4  v112
 BYTE   W06
 BYTE   N04
 BYTE   W06
 BYTE   N04
 BYTE   W06
 BYTE   N04
 BYTE   W12
 BYTE   N04
 BYTE   W06
 BYTE   N04
 BYTE   W12
 BYTE   PEND 
// 036   ----------------------------------------
 BYTE   W96
// 037   ----------------------------------------
 BYTE   W96
// 038   ----------------------------------------
 BYTE   W96
// 039   ----------------------------------------
 BYTE   W96
// 040   ----------------------------------------
 BYTE   W96
// 041   ----------------------------------------
 BYTE   W96
// 042   ----------------------------------------
 BYTE   W96
// 043   ----------------------------------------
 BYTE   W96
// 044   ----------------------------------------
 BYTE   W96
// 045   ----------------------------------------
 BYTE   W96
// 046   ----------------------------------------
 BYTE   W96
// 047   ----------------------------------------
 BYTE   W96
// 048   ----------------------------------------
 BYTE   W96
// 049   ----------------------------------------
 BYTE   W96
// 050   ----------------------------------------
 BYTE   W96
// 051   ----------------------------------------
 BYTE   W96
// 052   ----------------------------------------
 BYTE   W96
// 053   ----------------------------------------
 BYTE   W96
// 054   ----------------------------------------
 BYTE   W96
// 055   ----------------------------------------
 BYTE   W96
// 056   ----------------------------------------
 BYTE   W96
// 057   ----------------------------------------
 BYTE   W96
// 058   ----------------------------------------
 BYTE   W96
// 059   ----------------------------------------
 BYTE   W96
// 060   ----------------------------------------
 BYTE   W96
// 061   ----------------------------------------
 BYTE   PATT
  POIN2 Label_2_0114BA2E
// 062   ----------------------------------------
 BYTE   GoTo
  POIN2 Label_2_0114B9FA
 BYTE   FINE

//**************** Track 4 (Midi-Chn.3) ****************//

RomancingSaga3BattleMrGreen3339_004:
// 000   ----------------------------------------
 BYTE   KEYSH   RomancingSaga3BattleMrGreen3339_key+0
Label_3_012DC91A:
 BYTE   VOICE   36
 BYTE   VOL   60*RomancingSaga3BattleMrGreen3339_mvl/mxv
 BYTE   PAN   c_v+0
 BYTE   N11  Bn0  v112
 BYTE   W12
 BYTE   N11
 BYTE   W12
 BYTE   N11
 BYTE   W12
 BYTE   N11
 BYTE   W12
 BYTE   N11
 BYTE   W12
 BYTE   N11
 BYTE   W12
 BYTE   N11
 BYTE   W12
 BYTE   N11
 BYTE   W12
// 001   ----------------------------------------
Label_3_012DC932:
 BYTE   N11  Bn0  v112
 BYTE   W12
 BYTE   N11
 BYTE   W12
 BYTE   N11
 BYTE   W12
 BYTE   N11
 BYTE   W12
 BYTE   N11
 BYTE   W12
 BYTE   An0
 BYTE   W12
 BYTE   Bn0
 BYTE   W12
 BYTE   Fs0
 BYTE   W12
 BYTE   PEND 
// 002   ----------------------------------------
Label_3_012DC945:
 BYTE   N11  Gn0  v112
 BYTE   W12
 BYTE   N11
 BYTE   W12
 BYTE   N11
 BYTE   W12
 BYTE   N11
 BYTE   W12
 BYTE   An0
 BYTE   W12
 BYTE   N11
 BYTE   W12
 BYTE   N11
 BYTE   W12
 BYTE   N11
 BYTE   W12
 BYTE   PEND 
// 003   ----------------------------------------
 BYTE   Dn1
 BYTE   W12
 BYTE   N11
 BYTE   W12
 BYTE   N11
 BYTE   W12
 BYTE   N11
 BYTE   W24
 BYTE   N05  Bn0
 BYTE   W06
 BYTE   Cn1
 BYTE   W06
 BYTE   Bn0
 BYTE   W06
 BYTE   An0
 BYTE   W06
 BYTE   Bn0
 BYTE   W06
 BYTE   Fs0
 BYTE   W06
// 004   ----------------------------------------
 BYTE   N11  En1
 BYTE   W12
 BYTE   Dn1
 BYTE   W12
 BYTE   En1
 BYTE   W12
 BYTE   Bn0
 BYTE   W12
 BYTE   Dn1
 BYTE   W12
 BYTE   Cs1
 BYTE   W12
 BYTE   Dn1
 BYTE   W12
 BYTE   An0
 BYTE   W12
// 005   ----------------------------------------
 BYTE   Cs1
 BYTE   W12
 BYTE   Bn0
 BYTE   W12
 BYTE   Cs1
 BYTE   W12
 BYTE   Fs0
 BYTE   W12
 BYTE   N20  Fs1
 BYTE   W24
 BYTE   Fs0
 BYTE   W24
// 006   ----------------------------------------
Label_3_012DC98B:
 BYTE   N11  Bn0  v112
 BYTE   W12
 BYTE   N11
 BYTE   W12
 BYTE   N11
 BYTE   W12
 BYTE   N11
 BYTE   W12
 BYTE   N11
 BYTE   W12
 BYTE   An0
 BYTE   W12
 BYTE   Bn0
 BYTE   W12
 BYTE   Dn1
 BYTE   W12
 BYTE   PEND 
// 007   ----------------------------------------
 BYTE   PATT
  POIN2 Label_3_012DC932
// 008   ----------------------------------------
 BYTE   PATT
  POIN2 Label_3_012DC98B
// 009   ----------------------------------------
 BYTE   N11  Bn0  v112
 BYTE   W12
 BYTE   N05  An1
 BYTE   W06
 BYTE   Bn1
 BYTE   W06
 BYTE   An1
 BYTE   W06
 BYTE   Fs1
 BYTE   W06
 BYTE   En1
 BYTE   W06
 BYTE   Fs1
 BYTE   W06
 BYTE   N04  Bn0
 BYTE   W48
// 010   ----------------------------------------
Label_3_012DC9BC:
 BYTE   N11  Bn0  v112
 BYTE   W12
 BYTE   N11
 BYTE   W12
 BYTE   N11
 BYTE   W12
 BYTE   N11
 BYTE   W12
 BYTE   N11
 BYTE   W12
 BYTE   N11
 BYTE   W12
 BYTE   N11
 BYTE   W12
 BYTE   N11
 BYTE   W12
 BYTE   PEND 
// 011   ----------------------------------------
Label_3_012DC9CF:
 BYTE   N11  Fs0  v112
 BYTE   W12
 BYTE   N11
 BYTE   W12
 BYTE   N11
 BYTE   W12
 BYTE   N11
 BYTE   W12
 BYTE   N11
 BYTE   W12
 BYTE   N11
 BYTE   W12
 BYTE   N11
 BYTE   W12
 BYTE   N11
 BYTE   W12
 BYTE   PEND 
// 012   ----------------------------------------
Label_3_012DC9E2:
 BYTE   N11  Bn0  v112
 BYTE   W12
 BYTE   An0
 BYTE   W12
 BYTE   Bn0
 BYTE   W12
 BYTE   Dn1
 BYTE   W12
 BYTE   Bn0
 BYTE   W12
 BYTE   An0
 BYTE   W12
 BYTE   Bn0
 BYTE   W12
 BYTE   Dn1
 BYTE   W12
 BYTE   PEND 
// 013   ----------------------------------------
Label_3_012DC9F5:
 BYTE   N11  Fs0  v112
 BYTE   W12
 BYTE   En0
 BYTE   W12
 BYTE   Fs0
 BYTE   W12
 BYTE   As0
 BYTE   W12
 BYTE   Fs0
 BYTE   W12
 BYTE   Cs1
 BYTE   W12
 BYTE   Bn0
 BYTE   W12
 BYTE   Fs0
 BYTE   W12
 BYTE   PEND 
// 014   ----------------------------------------
Label_3_012DCA08:
 BYTE   N11  Gn0  v112
 BYTE   W12
 BYTE   N11
 BYTE   W12
 BYTE   N11
 BYTE   W12
 BYTE   N11
 BYTE   W12
 BYTE   N11
 BYTE   W12
 BYTE   N11
 BYTE   W12
 BYTE   N11
 BYTE   W12
 BYTE   N11
 BYTE   W12
 BYTE   PEND 
// 015   ----------------------------------------
Label_3_012DCA1B:
 BYTE   N11  Gn0  v112
 BYTE   W12
 BYTE   N11
 BYTE   W12
 BYTE   N11
 BYTE   W12
 BYTE   N11
 BYTE   W12
 BYTE   Fs0
 BYTE   W12
 BYTE   N11
 BYTE   W12
 BYTE   N11
 BYTE   W12
 BYTE   N11
 BYTE   W12
 BYTE   PEND 
// 016   ----------------------------------------
Label_3_012DCA2E:
 BYTE   N11  En0  v112
 BYTE   W12
 BYTE   N11
 BYTE   W12
 BYTE   N11
 BYTE   W12
 BYTE   N11
 BYTE   W12
 BYTE   N11
 BYTE   W12
 BYTE   N11
 BYTE   W12
 BYTE   N11
 BYTE   W12
 BYTE   N11
 BYTE   W12
 BYTE   PEND 
// 017   ----------------------------------------
Label_3_012DCA41:
 BYTE   N11  An0  v112
 BYTE   W12
 BYTE   N11
 BYTE   W12
 BYTE   N11
 BYTE   W12
 BYTE   N11
 BYTE   W24
 BYTE   Dn1
 BYTE   W12
 BYTE   N02  Fs1
 BYTE   W03
 BYTE   Fn1
 BYTE   W03
 BYTE   En1
 BYTE   W03
 BYTE   Ds1
 BYTE   W03
 BYTE   Dn1
 BYTE   W03
 BYTE   Cs1
 BYTE   W03
 BYTE   Cn1
 BYTE   W03
 BYTE   Bn0
 BYTE   W03
 BYTE   PEND 
// 018   ----------------------------------------
Label_3_012DCA5F:
 BYTE   N11  Bn0  v112
 BYTE   W12
 BYTE   An0
 BYTE   W12
 BYTE   Bn0
 BYTE   W12
 BYTE   Fs0
 BYTE   W12
 BYTE   Bn0
 BYTE   W12
 BYTE   An0
 BYTE   W12
 BYTE   Bn0
 BYTE   W12
 BYTE   Fs0
 BYTE   W12
 BYTE   PEND 
// 019   ----------------------------------------
Label_3_012DCA72:
 BYTE   N11  En1  v112
 BYTE   W12
 BYTE   Dn1
 BYTE   W12
 BYTE   En1
 BYTE   W12
 BYTE   Bn0
 BYTE   W12
 BYTE   En1
 BYTE   W12
 BYTE   Dn1
 BYTE   W12
 BYTE   En1
 BYTE   W12
 BYTE   Bn0
 BYTE   W12
 BYTE   PEND 
// 020   ----------------------------------------
Label_3_012DCA85:
 BYTE   N11  An0  v112
 BYTE   W12
 BYTE   Gn0
 BYTE   W12
 BYTE   An0
 BYTE   W12
 BYTE   En1
 BYTE   W12
 BYTE   An0
 BYTE   W12
 BYTE   Gn0
 BYTE   W12
 BYTE   An0
 BYTE   W12
 BYTE   En1
 BYTE   W12
 BYTE   PEND 
// 021   ----------------------------------------
Label_3_012DCA98:
 BYTE   N11  Dn1  v112
 BYTE   W12
 BYTE   Cs1
 BYTE   W12
 BYTE   Dn1
 BYTE   W12
 BYTE   An0
 BYTE   W12
 BYTE   Dn1
 BYTE   W12
 BYTE   Cs1
 BYTE   W12
 BYTE   Dn1
 BYTE   W12
 BYTE   An0
 BYTE   W12
 BYTE   PEND 
// 022   ----------------------------------------
Label_3_012DCAAB:
 BYTE   N11  Cs1  v112
 BYTE   W12
 BYTE   Bn0
 BYTE   W12
 BYTE   Cs1
 BYTE   W12
 BYTE   En1
 BYTE   W12
 BYTE   Cs1
 BYTE   W12
 BYTE   Bn0
 BYTE   W12
 BYTE   Cs1
 BYTE   W12
 BYTE   En1
 BYTE   W12
 BYTE   PEND 
// 023   ----------------------------------------
Label_3_012DCABE:
 BYTE   N15  Fs0  v112
 BYTE   W16
 BYTE   Fs1
 BYTE   W16
 BYTE   Cs1
 BYTE   W16
 BYTE   N20  Fs0
 BYTE   W24
 BYTE   N02  Fs1
 BYTE   W03
 BYTE   Fn1
 BYTE   W03
 BYTE   En1
 BYTE   W03
 BYTE   Ds1
 BYTE   W03
 BYTE   Dn1
 BYTE   W03
 BYTE   Cs1
 BYTE   W03
 BYTE   Cn1
 BYTE   W03
 BYTE   Bn0
 BYTE   W03
 BYTE   PEND 
// 024   ----------------------------------------
 BYTE   PATT
  POIN2 Label_3_012DC98B
// 025   ----------------------------------------
Label_3_012DCAE0:
 BYTE   N11  Bn0  v112
 BYTE   W12
 BYTE   N11
 BYTE   W12
 BYTE   N11
 BYTE   W12
 BYTE   N11
 BYTE   W12
 BYTE   N05
 BYTE   W06
 BYTE   An1
 BYTE   W06
 BYTE   Bn1
 BYTE   W06
 BYTE   An1
 BYTE   W06
 BYTE   Fs1
 BYTE   W06
 BYTE   En1
 BYTE   W06
 BYTE   Fs1
 BYTE   W06
 BYTE   Bn0
 BYTE   W06
 BYTE   PEND 
// 026   ----------------------------------------
Label_3_012DCAFB:
 BYTE   N11  En0  v112
 BYTE   W12
 BYTE   N11
 BYTE   W12
 BYTE   N11
 BYTE   W12
 BYTE   N11
 BYTE   W12
 BYTE   Fs0
 BYTE   W12
 BYTE   N11
 BYTE   W12
 BYTE   N11
 BYTE   W12
 BYTE   N11
 BYTE   W12
 BYTE   PEND 
// 027   ----------------------------------------
Label_3_012DCB0E:
 BYTE   N11  Bn0  v112
 BYTE   W12
 BYTE   N11
 BYTE   W12
 BYTE   N11
 BYTE   W12
 BYTE   N11
 BYTE   W12
 BYTE   Cn1
 BYTE   W12
 BYTE   N11
 BYTE   W12
 BYTE   N11
 BYTE   W12
 BYTE   N11
 BYTE   W12
 BYTE   PEND 
// 028   ----------------------------------------
 BYTE   PATT
  POIN2 Label_3_012DC945
// 029   ----------------------------------------
Label_3_012DCB26:
 BYTE   N11  Dn1  v112
 BYTE   W12
 BYTE   Cs1
 BYTE   W12
 BYTE   Dn1
 BYTE   W12
 BYTE   An0
 BYTE   W12
 BYTE   Dn1
 BYTE   W12
 BYTE   N05  Cs2
 BYTE   W06
 BYTE   Dn2
 BYTE   W06
 BYTE   Cs2
 BYTE   W06
 BYTE   An1
 BYTE   W06
 BYTE   Fs1
 BYTE   W06
 BYTE   An1
 BYTE   W06
 BYTE   PEND 
// 030   ----------------------------------------
Label_3_012DCB40:
 BYTE   N17  Cn1  v112
 BYTE   W18
 BYTE   Dn1
 BYTE   W18
 BYTE   N11  Cn1
 BYTE   W12
 BYTE   N20  Bn0
 BYTE   W24
 BYTE   An0
 BYTE   W24
 BYTE   PEND 
// 031   ----------------------------------------
Label_3_012DCB4F:
 BYTE   N17  Gn0  v112
 BYTE   W18
 BYTE   Fs0
 BYTE   W18
 BYTE   N11  Gn0
 BYTE   W12
 BYTE   N20  Cs1
 BYTE   W24
 BYTE   N02  En1
 BYTE   W03
 BYTE   Ds1
 BYTE   W03
 BYTE   Dn1
 BYTE   W03
 BYTE   Cs1
 BYTE   W03
 BYTE   Cn1
 BYTE   W03
 BYTE   Bn0
 BYTE   W03
 BYTE   As0
 BYTE   W03
 BYTE   An0
 BYTE   W03
 BYTE   PEND 
// 032   ----------------------------------------
Label_3_012DCB6D:
 BYTE   N11  Fs0  v112
 BYTE   W12
 BYTE   N11
 BYTE   W12
 BYTE   N11
 BYTE   W12
 BYTE   N11
 BYTE   W12
 BYTE   Gn0
 BYTE   W12
 BYTE   N11
 BYTE   W12
 BYTE   N11
 BYTE   W12
 BYTE   N11
 BYTE   W12
 BYTE   PEND 
// 033   ----------------------------------------
Label_3_012DCB80:
 BYTE   N11  An0  v112
 BYTE   W12
 BYTE   N11
 BYTE   W12
 BYTE   N11
 BYTE   W12
 BYTE   N11
 BYTE   W12
 BYTE   Gn0
 BYTE   W12
 BYTE   N11
 BYTE   W12
 BYTE   N11
 BYTE   W12
 BYTE   N11
 BYTE   W12
 BYTE   PEND 
// 034   ----------------------------------------
Label_3_012DCB93:
 BYTE   N11  Fs1  v112
 BYTE   W12
 BYTE   N11
 BYTE   W12
 BYTE   N11
 BYTE   W12
 BYTE   N11
 BYTE   W12
 BYTE   En1
 BYTE   W12
 BYTE   N11
 BYTE   W12
 BYTE   N11
 BYTE   W12
 BYTE   N11
 BYTE   W12
 BYTE   PEND 
// 035   ----------------------------------------
Label_3_012DCBA6:
 BYTE   N11  Dn1  v112
 BYTE   W12
 BYTE   N11
 BYTE   W12
 BYTE   N11
 BYTE   W12
 BYTE   N11
 BYTE   W12
 BYTE   N20  Fs0
 BYTE   W24
 BYTE   N02  Fs1
 BYTE   W03
 BYTE   Fn1
 BYTE   W03
 BYTE   En1
 BYTE   W03
 BYTE   Ds1
 BYTE   W03
 BYTE   Dn1
 BYTE   W03
 BYTE   Cs1
 BYTE   W03
 BYTE   Cn1
 BYTE   W03
 BYTE   Bn0
 BYTE   W03
 BYTE   PEND 
// 036   ----------------------------------------
 BYTE   PATT
  POIN2 Label_3_012DC9BC
// 037   ----------------------------------------
 BYTE   PATT
  POIN2 Label_3_012DC9CF
// 038   ----------------------------------------
 BYTE   PATT
  POIN2 Label_3_012DC9E2
// 039   ----------------------------------------
 BYTE   PATT
  POIN2 Label_3_012DC9F5
// 040   ----------------------------------------
 BYTE   PATT
  POIN2 Label_3_012DCA08
// 041   ----------------------------------------
 BYTE   PATT
  POIN2 Label_3_012DCA1B
// 042   ----------------------------------------
 BYTE   PATT
  POIN2 Label_3_012DCA2E
// 043   ----------------------------------------
 BYTE   PATT
  POIN2 Label_3_012DCA41
// 044   ----------------------------------------
 BYTE   PATT
  POIN2 Label_3_012DCA5F
// 045   ----------------------------------------
 BYTE   PATT
  POIN2 Label_3_012DCA72
// 046   ----------------------------------------
 BYTE   PATT
  POIN2 Label_3_012DCA85
// 047   ----------------------------------------
 BYTE   PATT
  POIN2 Label_3_012DCA98
// 048   ----------------------------------------
 BYTE   PATT
  POIN2 Label_3_012DCAAB
// 049   ----------------------------------------
 BYTE   PATT
  POIN2 Label_3_012DCABE
// 050   ----------------------------------------
 BYTE   PATT
  POIN2 Label_3_012DC98B
// 051   ----------------------------------------
 BYTE   PATT
  POIN2 Label_3_012DCAE0
// 052   ----------------------------------------
 BYTE   PATT
  POIN2 Label_3_012DCAFB
// 053   ----------------------------------------
 BYTE   PATT
  POIN2 Label_3_012DCB0E
// 054   ----------------------------------------
 BYTE   PATT
  POIN2 Label_3_012DC945
// 055   ----------------------------------------
 BYTE   PATT
  POIN2 Label_3_012DCB26
// 056   ----------------------------------------
 BYTE   PATT
  POIN2 Label_3_012DCB40
// 057   ----------------------------------------
 BYTE   PATT
  POIN2 Label_3_012DCB4F
// 058   ----------------------------------------
 BYTE   PATT
  POIN2 Label_3_012DCB6D
// 059   ----------------------------------------
 BYTE   PATT
  POIN2 Label_3_012DCB80
// 060   ----------------------------------------
 BYTE   PATT
  POIN2 Label_3_012DCB93
// 061   ----------------------------------------
 BYTE   PATT
  POIN2 Label_3_012DCBA6
// 062   ----------------------------------------
 BYTE   GoTo
  POIN2 Label_3_012DC91A
 BYTE   FINE

//**************** Track 5 (Midi-Chn.4) ****************//

RomancingSaga3BattleMrGreen3339_005:
// 000   ----------------------------------------
 BYTE   KEYSH   RomancingSaga3BattleMrGreen3339_key+0
Label_4_0114B926:
 BYTE   VOICE   127
 BYTE   VOL   29*RomancingSaga3BattleMrGreen3339_mvl/mxv
 BYTE   PAN   c_v+0
 BYTE   N90  An2  v112
 BYTE   W96
// 001   ----------------------------------------
 BYTE   W96
// 002   ----------------------------------------
 BYTE   Cs2
 BYTE   W96
// 003   ----------------------------------------
 BYTE   W96
// 004   ----------------------------------------
 BYTE   An2
 BYTE   W96
// 005   ----------------------------------------
 BYTE   W72
 BYTE   N20  Cs2
 BYTE   W24
// 006   ----------------------------------------
 BYTE   W96
// 007   ----------------------------------------
 BYTE   W96
// 008   ----------------------------------------
 BYTE   W96
// 009   ----------------------------------------
 BYTE   W96
// 010   ----------------------------------------
 BYTE   N90  An2
 BYTE   W96
// 011   ----------------------------------------
 BYTE   W96
// 012   ----------------------------------------
 BYTE   N90
 BYTE   W96
// 013   ----------------------------------------
 BYTE   W96
// 014   ----------------------------------------
 BYTE   Cs2
 BYTE   W96
// 015   ----------------------------------------
 BYTE   W96
// 016   ----------------------------------------
 BYTE   W96
// 017   ----------------------------------------
 BYTE   W96
// 018   ----------------------------------------
 BYTE   N90
 BYTE   W96
// 019   ----------------------------------------
 BYTE   W96
// 020   ----------------------------------------
 BYTE   W96
// 021   ----------------------------------------
 BYTE   W96
// 022   ----------------------------------------
 BYTE   W96
// 023   ----------------------------------------
 BYTE   W96
// 024   ----------------------------------------
 BYTE   N90
 BYTE   W96
// 025   ----------------------------------------
Label_4_0114B953:
 BYTE   W48
 BYTE   N17  Cs2  v112
 BYTE   W18
 BYTE   An2
 BYTE   W18
 BYTE   N11  Cs2
 BYTE   W12
 BYTE   PEND 
// 026   ----------------------------------------
 BYTE   W96
// 027   ----------------------------------------
 BYTE   W96
// 028   ----------------------------------------
 BYTE   W96
// 029   ----------------------------------------
 BYTE   W96
// 030   ----------------------------------------
Label_4_0114B962:
 BYTE   N42  An2  v112
 BYTE   W48
 BYTE   Cs2
 BYTE   W48
 BYTE   PEND 
// 031   ----------------------------------------
 BYTE   PATT
  POIN2 Label_4_0114B962
// 032   ----------------------------------------
 BYTE   W96
// 033   ----------------------------------------
 BYTE   W96
// 034   ----------------------------------------
Label_4_0114B970:
 BYTE   N17  An2  v112
 BYTE   W18
 BYTE   Cs2
 BYTE   W30
 BYTE   An2
 BYTE   W18
 BYTE   Cs2
 BYTE   W30
 BYTE   PEND 
// 035   ----------------------------------------
Label_4_0114B97B:
 BYTE   N17  An2  v112
 BYTE   W18
 BYTE   Cs2
 BYTE   W18
 BYTE   N11  An2
 BYTE   W60
 BYTE   PEND 
// 036   ----------------------------------------
 BYTE   N90
 BYTE   W96
// 037   ----------------------------------------
 BYTE   W96
// 038   ----------------------------------------
 BYTE   N90
 BYTE   W96
// 039   ----------------------------------------
 BYTE   W96
// 040   ----------------------------------------
 BYTE   Cs2
 BYTE   W96
// 041   ----------------------------------------
 BYTE   W96
// 042   ----------------------------------------
 BYTE   W96
// 043   ----------------------------------------
 BYTE   W96
// 044   ----------------------------------------
 BYTE   N90
 BYTE   W96
// 045   ----------------------------------------
 BYTE   W96
// 046   ----------------------------------------
 BYTE   W96
// 047   ----------------------------------------
 BYTE   W96
// 048   ----------------------------------------
 BYTE   W96
// 049   ----------------------------------------
 BYTE   W96
// 050   ----------------------------------------
 BYTE   N90
 BYTE   W96
// 051   ----------------------------------------
 BYTE   PATT
  POIN2 Label_4_0114B953
// 052   ----------------------------------------
 BYTE   W96
// 053   ----------------------------------------
 BYTE   W96
// 054   ----------------------------------------
 BYTE   W96
// 055   ----------------------------------------
 BYTE   W96
// 056   ----------------------------------------
 BYTE   PATT
  POIN2 Label_4_0114B962
// 057   ----------------------------------------
 BYTE   PATT
  POIN2 Label_4_0114B962
// 058   ----------------------------------------
 BYTE   W96
// 059   ----------------------------------------
 BYTE   W96
// 060   ----------------------------------------
 BYTE   PATT
  POIN2 Label_4_0114B970
// 061   ----------------------------------------
 BYTE   PATT
  POIN2 Label_4_0114B97B
// 062   ----------------------------------------
 BYTE   GoTo
  POIN2 Label_4_0114B926
 BYTE   FINE

//**************** Track 6 (Midi-Chn.5) ****************//

RomancingSaga3BattleMrGreen3339_006:
// 000   ----------------------------------------
 BYTE   KEYSH   RomancingSaga3BattleMrGreen3339_key+0
Label_5_012DCC52:
 BYTE   VOICE   127
 BYTE   VOL   29*RomancingSaga3BattleMrGreen3339_mvl/mxv
 BYTE   PAN   c_v+0
 BYTE   N20  Bn0  v112
 BYTE   W24
 BYTE   N20
 BYTE   W24
 BYTE   N20
 BYTE   W24
 BYTE   N20
 BYTE   W24
// 001   ----------------------------------------
Label_5_012DCC62:
 BYTE   N20  Bn0  v112
 BYTE   W24
 BYTE   N20
 BYTE   W24
 BYTE   N20
 BYTE   W24
 BYTE   N20
 BYTE   W24
 BYTE   PEND 
// 002   ----------------------------------------
 BYTE   PATT
  POIN2 Label_5_012DCC62
// 003   ----------------------------------------
 BYTE   N20  Bn0  v112
 BYTE   W24
 BYTE   N20
 BYTE   W36
 BYTE   N05  En1
 BYTE   W06
 BYTE   N05
 BYTE   W06
 BYTE   N05
 BYTE   W06
 BYTE   N05
 BYTE   W06
 BYTE   N05
 BYTE   W06
 BYTE   N05
 BYTE   W06
// 004   ----------------------------------------
Label_5_012DCC85:
 BYTE   N20  Bn0  v112
 BYTE   W24
 BYTE   En1
 BYTE   W24
 BYTE   N11  Bn0
 BYTE   W12
 BYTE   N11
 BYTE   W12
 BYTE   N20  En1
 BYTE   W24
 BYTE   PEND 
// 005   ----------------------------------------
 BYTE   N11  Bn0
 BYTE   W12
 BYTE   N05  En1
 BYTE   W06
 BYTE   N05
 BYTE   W06
 BYTE   N20
 BYTE   W48
 BYTE   Bn0
 BYTE   W24
// 006   ----------------------------------------
 BYTE   PATT
  POIN2 Label_5_012DCC62
// 007   ----------------------------------------
 BYTE   PATT
  POIN2 Label_5_012DCC62
// 008   ----------------------------------------
 BYTE   PATT
  POIN2 Label_5_012DCC62
// 009   ----------------------------------------
 BYTE   N11  Bn0  v112
 BYTE   W12
 BYTE   N05  En1
 BYTE   W06
 BYTE   N05
 BYTE   W06
 BYTE   N05
 BYTE   W06
 BYTE   N05
 BYTE   W06
 BYTE   N05
 BYTE   W06
 BYTE   N05
 BYTE   W06
 BYTE   N20
 BYTE   W48
// 010   ----------------------------------------
 BYTE   PATT
  POIN2 Label_5_012DCC62
// 011   ----------------------------------------
Label_5_012DCCC7:
 BYTE   N20  Bn0  v112
 BYTE   W24
 BYTE   N20
 BYTE   W24
 BYTE   N11
 BYTE   W12
 BYTE   N05  En1
 BYTE   W06
 BYTE   N05
 BYTE   W06
 BYTE   N05
 BYTE   W06
 BYTE   N05
 BYTE   W06
 BYTE   N05
 BYTE   W06
 BYTE   N05
 BYTE   W06
 BYTE   PEND 
// 012   ----------------------------------------
 BYTE   PATT
  POIN2 Label_5_012DCC85
// 013   ----------------------------------------
Label_5_012DCCE2:
 BYTE   N20  Bn0  v112
 BYTE   W24
 BYTE   En1
 BYTE   W24
 BYTE   N11  Bn0
 BYTE   W12
 BYTE   N05  En1
 BYTE   W06
 BYTE   N05
 BYTE   W06
 BYTE   N20
 BYTE   W24
 BYTE   PEND 
// 014   ----------------------------------------
 BYTE   PATT
  POIN2 Label_5_012DCC62
// 015   ----------------------------------------
 BYTE   PATT
  POIN2 Label_5_012DCC62
// 016   ----------------------------------------
 BYTE   PATT
  POIN2 Label_5_012DCC62
// 017   ----------------------------------------
Label_5_012DCD02:
 BYTE   N20  Bn0  v112
 BYTE   W24
 BYTE   N20
 BYTE   W24
 BYTE   N15  En1
 BYTE   W16
 BYTE   N15
 BYTE   W16
 BYTE   N15
 BYTE   W16
 BYTE   PEND 
// 018   ----------------------------------------
 BYTE   PATT
  POIN2 Label_5_012DCC85
// 019   ----------------------------------------
Label_5_012DCD15:
 BYTE   N20  Bn0  v112
 BYTE   W24
 BYTE   En1
 BYTE   W24
 BYTE   Bn0
 BYTE   W24
 BYTE   En1
 BYTE   W24
 BYTE   PEND 
// 020   ----------------------------------------
 BYTE   PATT
  POIN2 Label_5_012DCC85
// 021   ----------------------------------------
 BYTE   PATT
  POIN2 Label_5_012DCD15
// 022   ----------------------------------------
 BYTE   PATT
  POIN2 Label_5_012DCC85
// 023   ----------------------------------------
 BYTE   PATT
  POIN2 Label_5_012DCC62
// 024   ----------------------------------------
 BYTE   PATT
  POIN2 Label_5_012DCC62
// 025   ----------------------------------------
Label_5_012DCD39:
 BYTE   N05  En1  v112
 BYTE   W06
 BYTE   N05
 BYTE   W06
 BYTE   N05
 BYTE   W06
 BYTE   N05
 BYTE   W06
 BYTE   N05
 BYTE   W06
 BYTE   N05
 BYTE   W06
 BYTE   N05
 BYTE   W06
 BYTE   N05
 BYTE   W06
 BYTE   N17  Bn0
 BYTE   W18
 BYTE   N17
 BYTE   W18
 BYTE   N11
 BYTE   W12
 BYTE   PEND 
// 026   ----------------------------------------
 BYTE   PATT
  POIN2 Label_5_012DCC85
// 027   ----------------------------------------
 BYTE   PATT
  POIN2 Label_5_012DCD15
// 028   ----------------------------------------
 BYTE   PATT
  POIN2 Label_5_012DCC85
// 029   ----------------------------------------
Label_5_012DCD62:
 BYTE   N20  Bn0  v112
 BYTE   W24
 BYTE   En1
 BYTE   W24
 BYTE   N11  Bn0
 BYTE   W12
 BYTE   En1
 BYTE   W12
 BYTE   N05
 BYTE   W06
 BYTE   N05
 BYTE   W06
 BYTE   N11
 BYTE   W12
 BYTE   PEND 
// 030   ----------------------------------------
Label_5_012DCD74:
 BYTE   N42  Bn0  v112
 BYTE   W48
 BYTE   N42
 BYTE   W48
 BYTE   PEND 
// 031   ----------------------------------------
Label_5_012DCD7B:
 BYTE   N42  Bn0  v112
 BYTE   W48
 BYTE   N11
 BYTE   W12
 BYTE   N05  En1
 BYTE   W06
 BYTE   N05
 BYTE   W06
 BYTE   N05
 BYTE   W06
 BYTE   N05
 BYTE   W06
 BYTE   N05
 BYTE   W06
 BYTE   N05
 BYTE   W06
 BYTE   PEND 
// 032   ----------------------------------------
 BYTE   PATT
  POIN2 Label_5_012DCC62
// 033   ----------------------------------------
 BYTE   PATT
  POIN2 Label_5_012DCC62
// 034   ----------------------------------------
Label_5_012DCD99:
 BYTE   N17  Bn0  v112
 BYTE   W18
 BYTE   N17
 BYTE   W18
 BYTE   N11
 BYTE   W12
 BYTE   N17
 BYTE   W18
 BYTE   N17
 BYTE   W18
 BYTE   N11
 BYTE   W12
 BYTE   PEND 
// 035   ----------------------------------------
Label_5_012DCDA8:
 BYTE   N17  Bn0  v112
 BYTE   W18
 BYTE   N17
 BYTE   W18
 BYTE   N11
 BYTE   W12
 BYTE   N05  En1
 BYTE   W06
 BYTE   N05
 BYTE   W06
 BYTE   N05
 BYTE   W06
 BYTE   N11
 BYTE   W12
 BYTE   N05
 BYTE   W06
 BYTE   N11
 BYTE   W12
 BYTE   PEND 
// 036   ----------------------------------------
 BYTE   PATT
  POIN2 Label_5_012DCC62
// 037   ----------------------------------------
 BYTE   PATT
  POIN2 Label_5_012DCCC7
// 038   ----------------------------------------
 BYTE   PATT
  POIN2 Label_5_012DCC85
// 039   ----------------------------------------
 BYTE   PATT
  POIN2 Label_5_012DCCE2
// 040   ----------------------------------------
 BYTE   PATT
  POIN2 Label_5_012DCC62
// 041   ----------------------------------------
 BYTE   PATT
  POIN2 Label_5_012DCC62
// 042   ----------------------------------------
 BYTE   PATT
  POIN2 Label_5_012DCC62
// 043   ----------------------------------------
 BYTE   PATT
  POIN2 Label_5_012DCD02
// 044   ----------------------------------------
 BYTE   PATT
  POIN2 Label_5_012DCC85
// 045   ----------------------------------------
 BYTE   PATT
  POIN2 Label_5_012DCD15
// 046   ----------------------------------------
 BYTE   PATT
  POIN2 Label_5_012DCC85
// 047   ----------------------------------------
 BYTE   PATT
  POIN2 Label_5_012DCD15
// 048   ----------------------------------------
 BYTE   PATT
  POIN2 Label_5_012DCC85
// 049   ----------------------------------------
 BYTE   PATT
  POIN2 Label_5_012DCC62
// 050   ----------------------------------------
 BYTE   PATT
  POIN2 Label_5_012DCC62
// 051   ----------------------------------------
 BYTE   PATT
  POIN2 Label_5_012DCD39
// 052   ----------------------------------------
 BYTE   PATT
  POIN2 Label_5_012DCC85
// 053   ----------------------------------------
 BYTE   PATT
  POIN2 Label_5_012DCD15
// 054   ----------------------------------------
 BYTE   PATT
  POIN2 Label_5_012DCC85
// 055   ----------------------------------------
 BYTE   PATT
  POIN2 Label_5_012DCD62
// 056   ----------------------------------------
 BYTE   PATT
  POIN2 Label_5_012DCD74
// 057   ----------------------------------------
 BYTE   PATT
  POIN2 Label_5_012DCD7B
// 058   ----------------------------------------
 BYTE   PATT
  POIN2 Label_5_012DCC62
// 059   ----------------------------------------
 BYTE   PATT
  POIN2 Label_5_012DCC62
// 060   ----------------------------------------
 BYTE   PATT
  POIN2 Label_5_012DCD99
// 061   ----------------------------------------
 BYTE   PATT
  POIN2 Label_5_012DCDA8
// 062   ----------------------------------------
 BYTE   GoTo
  POIN2 Label_5_012DCC52
 BYTE   FINE

//**************** Track 7 (Midi-Chn.6) ****************//

RomancingSaga3BattleMrGreen3339_007:
// 000   ----------------------------------------
 BYTE   KEYSH   RomancingSaga3BattleMrGreen3339_key+0
Label_6_0114B672:
 BYTE   VOICE   48
 BYTE   VOL   47*RomancingSaga3BattleMrGreen3339_mvl/mxv
 BYTE   PAN   c_v+0
 BYTE   W96
// 001   ----------------------------------------
 BYTE   W96
// 002   ----------------------------------------
 BYTE   W96
// 003   ----------------------------------------
 BYTE   W96
// 004   ----------------------------------------
 BYTE   W96
// 005   ----------------------------------------
 BYTE   W96
// 006   ----------------------------------------
 BYTE   TIE  Bn3  v112
 BYTE   W96
// 007   ----------------------------------------
 BYTE   W96
// 008   ----------------------------------------
 BYTE   W90
 BYTE   EOT
 BYTE   W06
// 009   ----------------------------------------
 BYTE   W96
// 010   ----------------------------------------
 BYTE   W96
// 011   ----------------------------------------
Label_6_0114B688:
 BYTE   W48
 BYTE   N06  Bn3  v112
 BYTE   W06
 BYTE   Fs3
 BYTE   W06
 BYTE   Bn3
 BYTE   W06
 BYTE   Dn4
 BYTE   W06
 BYTE   Fs4
 BYTE   W06
 BYTE   Dn4
 BYTE   W06
 BYTE   Fs4
 BYTE   W06
 BYTE   Bn4
 BYTE   W06
 BYTE   PEND 
// 012   ----------------------------------------
Label_6_0114B69C:
 BYTE   N36  Dn4  v112
 BYTE   W36
 BYTE   N06  En4
 BYTE   W06
 BYTE   Fs4
 BYTE   W06
 BYTE   N24  Fn4
 BYTE   W24
 BYTE   Cs4
 BYTE   W24
 BYTE   PEND 
// 013   ----------------------------------------
Label_6_0114B6AB:
 BYTE   N24  En4  v112
 BYTE   W24
 BYTE   As3
 BYTE   W24
 BYTE   Bn3
 BYTE   W24
 BYTE   N20  Cs4
 BYTE   W24
 BYTE   PEND 
// 014   ----------------------------------------
 BYTE   W96
// 015   ----------------------------------------
 BYTE   W96
// 016   ----------------------------------------
 BYTE   W96
// 017   ----------------------------------------
 BYTE   W96
// 018   ----------------------------------------
 BYTE   W96
// 019   ----------------------------------------
 BYTE   W96
// 020   ----------------------------------------
 BYTE   W96
// 021   ----------------------------------------
 BYTE   W96
// 022   ----------------------------------------
 BYTE   W96
// 023   ----------------------------------------
 BYTE   W96
// 024   ----------------------------------------
 BYTE   TIE  Bn3
 BYTE   W96
// 025   ----------------------------------------
 BYTE   W42
 BYTE   EOT
 BYTE   W06
 BYTE   N18  Fs3
 BYTE   W18
 BYTE   Bn3
 BYTE   W18
 BYTE   N12  Dn4
 BYTE   W12
// 026   ----------------------------------------
Label_6_0114B6CF:
 BYTE   N24  Bn3  v112
 BYTE   W24
 BYTE   Dn4
 BYTE   W24
 BYTE   N18  Cs4
 BYTE   W18
 BYTE   Bn3
 BYTE   W18
 BYTE   N12  As3
 BYTE   W12
 BYTE   PEND 
// 027   ----------------------------------------
 BYTE   N90  Fs3
 BYTE   W96
// 028   ----------------------------------------
Label_6_0114B6E1:
 BYTE   N12  Gn3  v112
 BYTE   W12
 BYTE   Fs3
 BYTE   W12
 BYTE   En3
 BYTE   W12
 BYTE   Dn3
 BYTE   W12
 BYTE   N24  En3
 BYTE   W24
 BYTE   Bn3
 BYTE   W24
 BYTE   PEND 
// 029   ----------------------------------------
Label_6_0114B6F1:
 BYTE   N36  An3  v112
 BYTE   W36
 BYTE   N06  Gs3
 BYTE   W06
 BYTE   Gn3
 BYTE   W06
 BYTE   N42  Fs3
 BYTE   W48
 BYTE   PEND 
// 030   ----------------------------------------
Label_6_0114B6FE:
 BYTE   N48  Gn3  v112
 BYTE   W48
 BYTE   N18  Fs3
 BYTE   W18
 BYTE   Gn3
 BYTE   W18
 BYTE   N12  An3
 BYTE   W12
 BYTE   PEND 
// 031   ----------------------------------------
Label_6_0114B70B:
 BYTE   N48  Bn3  v112
 BYTE   W48
 BYTE   N18  Cs4
 BYTE   W18
 BYTE   Bn3
 BYTE   W18
 BYTE   N12  Gs3
 BYTE   W12
 BYTE   PEND 
// 032   ----------------------------------------
Label_6_0114B718:
 BYTE   N48  As3  v112
 BYTE   W48
 BYTE   Bn3
 BYTE   W48
 BYTE   PEND 
// 033   ----------------------------------------
Label_6_0114B71F:
 BYTE   N48  Cs4  v112
 BYTE   W48
 BYTE   N42  Bn3
 BYTE   W48
 BYTE   PEND 
// 034   ----------------------------------------
Label_6_0114B727:
 BYTE   N06  As3  v112
 BYTE   W06
 BYTE   Fs3
 BYTE   W06
 BYTE   As3
 BYTE   W06
 BYTE   Cs4
 BYTE   W06
 BYTE   Fs4
 BYTE   W06
 BYTE   Cs4
 BYTE   W06
 BYTE   Fs4
 BYTE   W06
 BYTE   As4
 BYTE   W06
 BYTE   Gn3
 BYTE   W06
 BYTE   En3
 BYTE   W06
 BYTE   Gn3
 BYTE   W06
 BYTE   Bn3
 BYTE   W06
 BYTE   En4
 BYTE   W06
 BYTE   Bn3
 BYTE   W06
 BYTE   En4
 BYTE   W06
 BYTE   Gn4
 BYTE   W06
 BYTE   PEND 
// 035   ----------------------------------------
Label_6_0114B74A:
 BYTE   N06  Fs3  v112
 BYTE   W06
 BYTE   Dn3
 BYTE   W06
 BYTE   Fs3
 BYTE   W06
 BYTE   An3
 BYTE   W06
 BYTE   Dn4
 BYTE   W06
 BYTE   An3
 BYTE   W06
 BYTE   Dn4
 BYTE   W06
 BYTE   Fs4
 BYTE   W06
 BYTE   As3
 BYTE   W06
 BYTE   Fs3
 BYTE   W06
 BYTE   As3
 BYTE   W06
 BYTE   Cs4
 BYTE   W06
 BYTE   Fs4
 BYTE   W06
 BYTE   Cs4
 BYTE   W06
 BYTE   Fs4
 BYTE   W06
 BYTE   N05  As4
 BYTE   W06
 BYTE   PEND 
// 036   ----------------------------------------
 BYTE   W96
// 037   ----------------------------------------
 BYTE   PATT
  POIN2 Label_6_0114B688
// 038   ----------------------------------------
 BYTE   PATT
  POIN2 Label_6_0114B69C
// 039   ----------------------------------------
 BYTE   PATT
  POIN2 Label_6_0114B6AB
// 040   ----------------------------------------
 BYTE   W96
// 041   ----------------------------------------
 BYTE   W96
// 042   ----------------------------------------
 BYTE   W96
// 043   ----------------------------------------
 BYTE   W96
// 044   ----------------------------------------
 BYTE   W96
// 045   ----------------------------------------
 BYTE   W96
// 046   ----------------------------------------
 BYTE   W96
// 047   ----------------------------------------
 BYTE   W96
// 048   ----------------------------------------
 BYTE   W96
// 049   ----------------------------------------
 BYTE   W96
// 050   ----------------------------------------
 BYTE   TIE  Bn3  v112
 BYTE   W96
// 051   ----------------------------------------
 BYTE   W42
 BYTE   EOT
 BYTE   W06
 BYTE   N18  Fs3
 BYTE   W18
 BYTE   Bn3
 BYTE   W18
 BYTE   N12  Dn4
 BYTE   W12
// 052   ----------------------------------------
 BYTE   PATT
  POIN2 Label_6_0114B6CF
// 053   ----------------------------------------
 BYTE   N90  Fs3  v112
 BYTE   W96
// 054   ----------------------------------------
 BYTE   PATT
  POIN2 Label_6_0114B6E1
// 055   ----------------------------------------
 BYTE   PATT
  POIN2 Label_6_0114B6F1
// 056   ----------------------------------------
 BYTE   PATT
  POIN2 Label_6_0114B6FE
// 057   ----------------------------------------
 BYTE   PATT
  POIN2 Label_6_0114B70B
// 058   ----------------------------------------
 BYTE   PATT
  POIN2 Label_6_0114B718
// 059   ----------------------------------------
 BYTE   PATT
  POIN2 Label_6_0114B71F
// 060   ----------------------------------------
 BYTE   PATT
  POIN2 Label_6_0114B727
// 061   ----------------------------------------
 BYTE   PATT
  POIN2 Label_6_0114B74A
// 062   ----------------------------------------
 BYTE   GoTo
  POIN2 Label_6_0114B672
 BYTE   FINE

//**************** Track 8 (Midi-Chn.7) ****************//

RomancingSaga3BattleMrGreen3339_008:
// 000   ----------------------------------------
 BYTE   KEYSH   RomancingSaga3BattleMrGreen3339_key+0
Label_7_012DCE4A:
 BYTE   VOICE   48
 BYTE   VOL   37*RomancingSaga3BattleMrGreen3339_mvl/mxv
 BYTE   PAN   c_v+0
 BYTE   W12
 BYTE   N12  Dn3  v112
 BYTE   W12
 BYTE   En3
 BYTE   W12
 BYTE   Fs3
 BYTE   W12
 BYTE   N36  Fn3
 BYTE   W36
 BYTE   N12  Gn3
 BYTE   W12
// 001   ----------------------------------------
 BYTE   Fs3
 BYTE   W12
 BYTE   En3
 BYTE   W12
 BYTE   N72  Fs3
 BYTE   W72
// 002   ----------------------------------------
 BYTE   W12
 BYTE   N12  Gn3
 BYTE   W12
 BYTE   An3
 BYTE   W12
 BYTE   Bn3
 BYTE   W12
 BYTE   N36  An3
 BYTE   W36
 BYTE   N12  Cs4
 BYTE   W12
// 003   ----------------------------------------
 BYTE   An3
 BYTE   W12
 BYTE   Gs3
 BYTE   W12
 BYTE   N24  An3
 BYTE   W36
 BYTE   Bn3
 BYTE   W24
 BYTE   N12  An3
 BYTE   W12
// 004   ----------------------------------------
 BYTE   N48  Bn3
 BYTE   W48
 BYTE   An3
 BYTE   W48
// 005   ----------------------------------------
 BYTE   Gn3
 BYTE   W48
 BYTE   N24  Fs3
 BYTE   W24
 BYTE   En3
 BYTE   W24
// 006   ----------------------------------------
 BYTE   TIE  Dn3
 BYTE   W96
// 007   ----------------------------------------
 BYTE   W96
// 008   ----------------------------------------
 BYTE   W96
// 009   ----------------------------------------
 BYTE   EOT
 BYTE   W96
// 010   ----------------------------------------
 BYTE   W96
// 011   ----------------------------------------
Label_7_012DCE94:
 BYTE   W48
 BYTE   N12  Cs3  v112
 BYTE   W12
 BYTE   Fs3
 BYTE   W12
 BYTE   As3
 BYTE   W12
 BYTE   Cs4
 BYTE   W12
 BYTE   PEND 
// 012   ----------------------------------------
Label_7_012DCEA0:
 BYTE   N36  Fs3  v112
 BYTE   W36
 BYTE   N06  Gn3
 BYTE   W06
 BYTE   An3
 BYTE   W06
 BYTE   N24  Gs3
 BYTE   W24
 BYTE   Fn3
 BYTE   W24
 BYTE   PEND 
// 013   ----------------------------------------
Label_7_012DCEAF:
 BYTE   N24  Gn3  v112
 BYTE   W24
 BYTE   Cs3
 BYTE   W24
 BYTE   En3
 BYTE   W24
 BYTE   Fs3
 BYTE   W24
 BYTE   PEND 
// 014   ----------------------------------------
 BYTE   W96
// 015   ----------------------------------------
 BYTE   W96
// 016   ----------------------------------------
 BYTE   W96
// 017   ----------------------------------------
Label_7_012DCEBD:
 BYTE   W48
 BYTE   N06  An3  v112
 BYTE   W06
 BYTE   Fs3
 BYTE   W06
 BYTE   An3
 BYTE   W06
 BYTE   Dn4
 BYTE   W06
 BYTE   Fs4
 BYTE   W06
 BYTE   Dn4
 BYTE   W06
 BYTE   Fs4
 BYTE   W06
 BYTE   An4
 BYTE   W06
 BYTE   PEND 
// 018   ----------------------------------------
Label_7_012DCED1:
 BYTE   N84  Bn3  v112
 BYTE   W84
 BYTE   N12  An3
 BYTE   W12
 BYTE   PEND 
// 019   ----------------------------------------
Label_7_012DCED9:
 BYTE   N48  Gn3  v112
 BYTE   W48
 BYTE   Bn3
 BYTE   W48
 BYTE   PEND 
// 020   ----------------------------------------
Label_7_012DCEE0:
 BYTE   N84  An3  v112
 BYTE   W84
 BYTE   N12  Gn3
 BYTE   W12
 BYTE   PEND 
// 021   ----------------------------------------
Label_7_012DCEE8:
 BYTE   N48  Fs3  v112
 BYTE   W48
 BYTE   An3
 BYTE   W48
 BYTE   PEND 
// 022   ----------------------------------------
Label_7_012DCEEF:
 BYTE   N60  Gn3  v112
 BYTE   W60
 BYTE   N12  Fs3
 BYTE   W12
 BYTE   N24  En3
 BYTE   W24
 BYTE   PEND 
// 023   ----------------------------------------
Label_7_012DCEFA:
 BYTE   N16  Cs3  v112
 BYTE   W16
 BYTE   En3
 BYTE   W16
 BYTE   As3
 BYTE   W16
 BYTE   N24  Fs3
 BYTE   W24
 BYTE   En3
 BYTE   W24
 BYTE   PEND 
// 024   ----------------------------------------
 BYTE   TIE  Dn3
 BYTE   W96
// 025   ----------------------------------------
 BYTE   W48
 BYTE   EOT
 BYTE   N18  Bn2
 BYTE   W18
 BYTE   Dn3
 BYTE   W18
 BYTE   N12  Fs3
 BYTE   W12
// 026   ----------------------------------------
Label_7_012DCF15:
 BYTE   N24  Dn3  v112
 BYTE   W24
 BYTE   Gn3
 BYTE   W24
 BYTE   N18  Fs3
 BYTE   W18
 BYTE   En3
 BYTE   W18
 BYTE   N12  Cs3
 BYTE   W12
 BYTE   PEND 
// 027   ----------------------------------------
Label_7_012DCF24:
 BYTE   N48  Bn2  v112
 BYTE   W48
 BYTE   An2
 BYTE   W48
 BYTE   PEND 
// 028   ----------------------------------------
Label_7_012DCF2B:
 BYTE   N24  Bn2  v112
 BYTE   W24
 BYTE   Gn2
 BYTE   W24
 BYTE   An2
 BYTE   W24
 BYTE   En3
 BYTE   W24
 BYTE   PEND 
// 029   ----------------------------------------
Label_7_012DCF36:
 BYTE   N48  Dn3  v112
 BYTE   W48
 BYTE   Cs3
 BYTE   W48
 BYTE   PEND 
// 030   ----------------------------------------
Label_7_012DCF3D:
 BYTE   N48  Cn3  v112
 BYTE   W48
 BYTE   N18  Bn2
 BYTE   W18
 BYTE   Cs3
 BYTE   W18
 BYTE   N12  Ds3
 BYTE   W12
 BYTE   PEND 
// 031   ----------------------------------------
Label_7_012DCF4A:
 BYTE   N48  Dn3  v112
 BYTE   W48
 BYTE   N36  Fn3
 BYTE   W36
 BYTE   N12  Cs3
 BYTE   W12
 BYTE   PEND 
// 032   ----------------------------------------
Label_7_012DCF55:
 BYTE   N48  Cs3  v112
 BYTE   W48
 BYTE   Dn3
 BYTE   W48
 BYTE   PEND 
// 033   ----------------------------------------
 BYTE   En3
 BYTE   W48
 BYTE   Dn3
 BYTE   W48
// 034   ----------------------------------------
Label_7_012DCF60:
 BYTE   N12  Cs3  v112
 BYTE   W12
 BYTE   Fs3
 BYTE   W12
 BYTE   As3
 BYTE   W12
 BYTE   Cs4
 BYTE   W12
 BYTE   Bn2
 BYTE   W12
 BYTE   En3
 BYTE   W12
 BYTE   Gn3
 BYTE   W12
 BYTE   Bn3
 BYTE   W12
 BYTE   PEND 
// 035   ----------------------------------------
Label_7_012DCF73:
 BYTE   N12  An2  v112
 BYTE   W12
 BYTE   Dn3
 BYTE   W12
 BYTE   Fs3
 BYTE   W12
 BYTE   An3
 BYTE   W12
 BYTE   Cs3
 BYTE   W12
 BYTE   Fs3
 BYTE   W12
 BYTE   As3
 BYTE   W12
 BYTE   N11  Cs4
 BYTE   W12
 BYTE   PEND 
// 036   ----------------------------------------
 BYTE   W96
// 037   ----------------------------------------
 BYTE   PATT
  POIN2 Label_7_012DCE94
// 038   ----------------------------------------
 BYTE   PATT
  POIN2 Label_7_012DCEA0
// 039   ----------------------------------------
 BYTE   PATT
  POIN2 Label_7_012DCEAF
// 040   ----------------------------------------
 BYTE   W96
// 041   ----------------------------------------
 BYTE   W96
// 042   ----------------------------------------
 BYTE   W96
// 043   ----------------------------------------
 BYTE   PATT
  POIN2 Label_7_012DCEBD
// 044   ----------------------------------------
 BYTE   PATT
  POIN2 Label_7_012DCED1
// 045   ----------------------------------------
 BYTE   PATT
  POIN2 Label_7_012DCED9
// 046   ----------------------------------------
 BYTE   PATT
  POIN2 Label_7_012DCEE0
// 047   ----------------------------------------
 BYTE   PATT
  POIN2 Label_7_012DCEE8
// 048   ----------------------------------------
 BYTE   PATT
  POIN2 Label_7_012DCEEF
// 049   ----------------------------------------
 BYTE   PATT
  POIN2 Label_7_012DCEFA
// 050   ----------------------------------------
 BYTE   TIE  Dn3  v112
 BYTE   W96
// 051   ----------------------------------------
 BYTE   W48
 BYTE   EOT
 BYTE   N18  Bn2
 BYTE   W18
 BYTE   Dn3
 BYTE   W18
 BYTE   N12  Fs3
 BYTE   W12
// 052   ----------------------------------------
 BYTE   PATT
  POIN2 Label_7_012DCF15
// 053   ----------------------------------------
 BYTE   PATT
  POIN2 Label_7_012DCF24
// 054   ----------------------------------------
 BYTE   PATT
  POIN2 Label_7_012DCF2B
// 055   ----------------------------------------
 BYTE   PATT
  POIN2 Label_7_012DCF36
// 056   ----------------------------------------
 BYTE   PATT
  POIN2 Label_7_012DCF3D
// 057   ----------------------------------------
 BYTE   PATT
  POIN2 Label_7_012DCF4A
// 058   ----------------------------------------
 BYTE   PATT
  POIN2 Label_7_012DCF55
// 059   ----------------------------------------
 BYTE   N48  En3  v112
 BYTE   W48
 BYTE   Dn3
 BYTE   W48
// 060   ----------------------------------------
 BYTE   PATT
  POIN2 Label_7_012DCF60
// 061   ----------------------------------------
 BYTE   PATT
  POIN2 Label_7_012DCF73
// 062   ----------------------------------------
 BYTE   GoTo
  POIN2 Label_7_012DCE4A
 BYTE   FINE

//**************** Track 9 (Midi-Chn.8) ****************//

RomancingSaga3BattleMrGreen3339_009:
// 000   ----------------------------------------
 BYTE   KEYSH   RomancingSaga3BattleMrGreen3339_key+0
Label_8_012DD006:
 BYTE   VOICE   48
 BYTE   VOL   42*RomancingSaga3BattleMrGreen3339_mvl/mxv
 BYTE   PAN   c_v+0
 BYTE   W12
 BYTE   N12  Fs2  v112
 BYTE   W12
 BYTE   Gs2
 BYTE   W12
 BYTE   An2
 BYTE   W12
 BYTE   N36  Gs2
 BYTE   W36
 BYTE   N12  Bn2
 BYTE   W12
// 001   ----------------------------------------
 BYTE   An2
 BYTE   W12
 BYTE   Gs2
 BYTE   W12
 BYTE   N72  An2
 BYTE   W72
// 002   ----------------------------------------
 BYTE   W12
 BYTE   N12  Bn2
 BYTE   W12
 BYTE   Cs3
 BYTE   W12
 BYTE   Dn3
 BYTE   W12
 BYTE   N36  Cs3
 BYTE   W36
 BYTE   N12  En3
 BYTE   W12
// 003   ----------------------------------------
 BYTE   Dn3
 BYTE   W12
 BYTE   Cs3
 BYTE   W12
 BYTE   N24  Dn3
 BYTE   W36
 BYTE   N12  Ds3
 BYTE   W12
 BYTE   Cs3
 BYTE   W12
 BYTE   Bn2
 BYTE   W12
// 004   ----------------------------------------
 BYTE   N48  En3
 BYTE   W48
 BYTE   Dn3
 BYTE   W48
// 005   ----------------------------------------
 BYTE   Cs3
 BYTE   W48
 BYTE   N24  As2
 BYTE   W24
 BYTE   Fs2
 BYTE   W24
// 006   ----------------------------------------
 BYTE   W48
 BYTE   N48  An2
 BYTE   W48
// 007   ----------------------------------------
 BYTE   Gs2
 BYTE   W48
 BYTE   Gn2
 BYTE   W48
// 008   ----------------------------------------
 BYTE   N96  Fs2
 BYTE   W96
// 009   ----------------------------------------
 BYTE   W96
// 010   ----------------------------------------
 BYTE   N06  Dn3
 BYTE   W06
 BYTE   Cs3
 BYTE   W06
 BYTE   Dn3
 BYTE   W06
 BYTE   Bn2
 BYTE   W06
 BYTE   Dn3
 BYTE   W06
 BYTE   Cs3
 BYTE   W06
 BYTE   Dn3
 BYTE   W06
 BYTE   Bn2
 BYTE   W06
 BYTE   Cs3
 BYTE   W06
 BYTE   Bn2
 BYTE   W06
 BYTE   Cs3
 BYTE   W06
 BYTE   Gs2
 BYTE   W06
 BYTE   Cs3
 BYTE   W06
 BYTE   Bn2
 BYTE   W06
 BYTE   Cs3
 BYTE   W06
 BYTE   Gs2
 BYTE   W06
// 011   ----------------------------------------
Label_8_012DD077:
 BYTE   N06  As2  v112
 BYTE   W06
 BYTE   Gs2
 BYTE   W06
 BYTE   As2
 BYTE   W06
 BYTE   Fs2
 BYTE   W06
 BYTE   As2
 BYTE   W06
 BYTE   Gs2
 BYTE   W06
 BYTE   As2
 BYTE   W06
 BYTE   Fs2
 BYTE   W06
 BYTE   As2
 BYTE   W06
 BYTE   Gs2
 BYTE   W06
 BYTE   As2
 BYTE   W06
 BYTE   Fs2
 BYTE   W06
 BYTE   As2
 BYTE   W06
 BYTE   Gs2
 BYTE   W06
 BYTE   As2
 BYTE   W06
 BYTE   Fs2
 BYTE   W06
 BYTE   PEND 
// 012   ----------------------------------------
Label_8_012DD09A:
 BYTE   N48  Bn2  v112
 BYTE   W48
 BYTE   N24  Cs3
 BYTE   W24
 BYTE   Gs2
 BYTE   W24
 BYTE   PEND 
// 013   ----------------------------------------
Label_8_012DD0A4:
 BYTE   N24  As2  v112
 BYTE   W24
 BYTE   Fs2
 BYTE   W24
 BYTE   Gs2
 BYTE   W24
 BYTE   As2
 BYTE   W24
 BYTE   PEND 
// 014   ----------------------------------------
Label_8_012DD0AF:
 BYTE   N06  Bn2  v112
 BYTE   W06
 BYTE   An2
 BYTE   W06
 BYTE   Bn2
 BYTE   W06
 BYTE   Gn2
 BYTE   W06
 BYTE   Bn2
 BYTE   W06
 BYTE   An2
 BYTE   W06
 BYTE   Bn2
 BYTE   W06
 BYTE   Gn2
 BYTE   W06
 BYTE   Bn2
 BYTE   W06
 BYTE   An2
 BYTE   W06
 BYTE   Bn2
 BYTE   W06
 BYTE   Gn2
 BYTE   W06
 BYTE   Bn2
 BYTE   W06
 BYTE   An2
 BYTE   W06
 BYTE   Bn2
 BYTE   W06
 BYTE   Gn2
 BYTE   W06
 BYTE   PEND 
// 015   ----------------------------------------
Label_8_012DD0D2:
 BYTE   N06  Bn2  v112
 BYTE   W06
 BYTE   An2
 BYTE   W06
 BYTE   Bn2
 BYTE   W06
 BYTE   Gn2
 BYTE   W06
 BYTE   Bn2
 BYTE   W06
 BYTE   An2
 BYTE   W06
 BYTE   Bn2
 BYTE   W06
 BYTE   Gn2
 BYTE   W06
 BYTE   Bn2
 BYTE   W06
 BYTE   An2
 BYTE   W06
 BYTE   Bn2
 BYTE   W06
 BYTE   Gn2
 BYTE   W06
 BYTE   An2
 BYTE   W06
 BYTE   Gn2
 BYTE   W06
 BYTE   An2
 BYTE   W06
 BYTE   Fs2
 BYTE   W06
 BYTE   PEND 
// 016   ----------------------------------------
Label_8_012DD0F5:
 BYTE   N06  Gn2  v112
 BYTE   W06
 BYTE   Fs2
 BYTE   W06
 BYTE   Gn2
 BYTE   W06
 BYTE   En2
 BYTE   W06
 BYTE   Gn2
 BYTE   W06
 BYTE   Fs2
 BYTE   W06
 BYTE   Gn2
 BYTE   W06
 BYTE   En2
 BYTE   W06
 BYTE   Gn2
 BYTE   W06
 BYTE   Fs2
 BYTE   W06
 BYTE   Gn2
 BYTE   W06
 BYTE   En2
 BYTE   W06
 BYTE   Gn2
 BYTE   W06
 BYTE   Fs2
 BYTE   W06
 BYTE   Gn2
 BYTE   W06
 BYTE   En2
 BYTE   W06
 BYTE   PEND 
// 017   ----------------------------------------
Label_8_012DD118:
 BYTE   N06  Cs3  v112
 BYTE   W06
 BYTE   Bn2
 BYTE   W06
 BYTE   Cs3
 BYTE   W06
 BYTE   An2
 BYTE   W06
 BYTE   Cs3
 BYTE   W06
 BYTE   Bn2
 BYTE   W06
 BYTE   Cs3
 BYTE   W06
 BYTE   An2
 BYTE   W06
 BYTE   N12  Dn3
 BYTE   W12
 BYTE   Fs3
 BYTE   W12
 BYTE   An3
 BYTE   W12
 BYTE   Dn4
 BYTE   W12
 BYTE   PEND 
// 018   ----------------------------------------
Label_8_012DD134:
 BYTE   N72  Ds3  v112
 BYTE   W72
 BYTE   N12  Cs3
 BYTE   W12
 BYTE   Bn2
 BYTE   W12
 BYTE   PEND 
// 019   ----------------------------------------
Label_8_012DD13E:
 BYTE   N48  Bn2  v112
 BYTE   W48
 BYTE   En2
 BYTE   W48
 BYTE   PEND 
// 020   ----------------------------------------
Label_8_012DD145:
 BYTE   N72  Cs3  v112
 BYTE   W72
 BYTE   N12  Bn2
 BYTE   W12
 BYTE   An2
 BYTE   W12
 BYTE   PEND 
// 021   ----------------------------------------
Label_8_012DD14F:
 BYTE   N48  An2  v112
 BYTE   W48
 BYTE   Cs3
 BYTE   W48
 BYTE   PEND 
// 022   ----------------------------------------
Label_8_012DD156:
 BYTE   N60  Cs3  v112
 BYTE   W60
 BYTE   N12  Bn2
 BYTE   W12
 BYTE   N24  Gn2
 BYTE   W24
 BYTE   PEND 
// 023   ----------------------------------------
Label_8_012DD161:
 BYTE   N16  Fs2  v112
 BYTE   W16
 BYTE   As2
 BYTE   W16
 BYTE   Cs3
 BYTE   W16
 BYTE   N24  As2
 BYTE   W24
 BYTE   Fs2
 BYTE   W24
 BYTE   PEND 
// 024   ----------------------------------------
Label_8_012DD16F:
 BYTE   N24  Fs2  v112
 BYTE   W24
 BYTE   An2
 BYTE   W24
 BYTE   Gs2
 BYTE   W24
 BYTE   Gn2
 BYTE   W24
 BYTE   PEND 
// 025   ----------------------------------------
Label_8_012DD17A:
 BYTE   N48  Fs2  v112
 BYTE   W48
 BYTE   N18  Dn2
 BYTE   W18
 BYTE   Fs2
 BYTE   W18
 BYTE   N12  Bn2
 BYTE   W12
 BYTE   PEND 
// 026   ----------------------------------------
 BYTE   W96
// 027   ----------------------------------------
 BYTE   W96
// 028   ----------------------------------------
 BYTE   W96
// 029   ----------------------------------------
Label_8_012DD18A:
 BYTE   W54
 BYTE   N06  Cs3  v112
 BYTE   W06
 BYTE   An2
 BYTE   W06
 BYTE   Cs3
 BYTE   W06
 BYTE   Fs3
 BYTE   W06
 BYTE   Cs3
 BYTE   W06
 BYTE   Fs3
 BYTE   W06
 BYTE   N05  An3
 BYTE   W06
 BYTE   PEND 
// 030   ----------------------------------------
 BYTE   W96
// 031   ----------------------------------------
 BYTE   W96
// 032   ----------------------------------------
Label_8_012DD19F:
 BYTE   VOICE   79
 BYTE   N02  Fs4  v127
 BYTE   W06
 BYTE   N02
 BYTE   W06
 BYTE   Fs5
 BYTE   W06
 BYTE   Cs5
 BYTE   W06
 BYTE   Fs4
 BYTE   W06
 BYTE   Fs5
 BYTE   W06
 BYTE   Cs5
 BYTE   W06
 BYTE   Fs4
 BYTE   W06
 BYTE   Gn5
 BYTE   W06
 BYTE   Dn5
 BYTE   W06
 BYTE   Gn4
 BYTE   W06
 BYTE   Gn5
 BYTE   W06
 BYTE   Dn5
 BYTE   W06
 BYTE   Gn4
 BYTE   W06
 BYTE   Gn5
 BYTE   W06
 BYTE   Dn5
 BYTE   W06
 BYTE   PEND 
// 033   ----------------------------------------
Label_8_012DD1C4:
 BYTE   N02  An4  v127
 BYTE   W06
 BYTE   N02
 BYTE   W06
 BYTE   An5
 BYTE   W06
 BYTE   En5
 BYTE   W06
 BYTE   An4
 BYTE   W06
 BYTE   An5
 BYTE   W06
 BYTE   En5
 BYTE   W06
 BYTE   An4
 BYTE   W06
 BYTE   Gn5
 BYTE   W06
 BYTE   Dn5
 BYTE   W06
 BYTE   Gn4
 BYTE   W06
 BYTE   Gn5
 BYTE   W06
 BYTE   Dn5
 BYTE   W06
 BYTE   Gn4
 BYTE   W06
 BYTE   Gn5
 BYTE   W06
 BYTE   Dn5
 BYTE   W06
 BYTE   PEND 
// 034   ----------------------------------------
Label_8_012DD1E7:
 BYTE   N02  Fs4  v127
 BYTE   W06
 BYTE   N02
 BYTE   W06
 BYTE   Fs5
 BYTE   W06
 BYTE   Cs5
 BYTE   W06
 BYTE   Fs4
 BYTE   W06
 BYTE   Fs5
 BYTE   W06
 BYTE   Cs5
 BYTE   W06
 BYTE   Fs4
 BYTE   W06
 BYTE   Gn5
 BYTE   W06
 BYTE   Dn5
 BYTE   W06
 BYTE   Gn4
 BYTE   W06
 BYTE   Gn5
 BYTE   W06
 BYTE   Dn5
 BYTE   W06
 BYTE   Gn4
 BYTE   W06
 BYTE   Gn5
 BYTE   W06
 BYTE   Dn5
 BYTE   W06
 BYTE   PEND 
// 035   ----------------------------------------
Label_8_012DD20A:
 BYTE   N02  An4  v127
 BYTE   W06
 BYTE   N02
 BYTE   W06
 BYTE   An5
 BYTE   W06
 BYTE   En5
 BYTE   W06
 BYTE   An4
 BYTE   W06
 BYTE   An5
 BYTE   W06
 BYTE   En5
 BYTE   W06
 BYTE   An4
 BYTE   W06
 BYTE   As4
 BYTE   W06
 BYTE   Fs4
 BYTE   W06
 BYTE   Cs4
 BYTE   W06
 BYTE   As4
 BYTE   W06
 BYTE   Fs4
 BYTE   W06
 BYTE   Cs4
 BYTE   W06
 BYTE   As4
 BYTE   W06
 BYTE   Fs4
 BYTE   W06
 BYTE   PEND 
// 036   ----------------------------------------
 BYTE   VOICE   48
 BYTE   N06  Dn3  v112
 BYTE   W06
 BYTE   Cs3
 BYTE   W06
 BYTE   Dn3
 BYTE   W06
 BYTE   Bn2
 BYTE   W06
 BYTE   Dn3
 BYTE   W06
 BYTE   Cs3
 BYTE   W06
 BYTE   Dn3
 BYTE   W06
 BYTE   Bn2
 BYTE   W06
 BYTE   Cs3
 BYTE   W06
 BYTE   Bn2
 BYTE   W06
 BYTE   Cs3
 BYTE   W06
 BYTE   Gs2
 BYTE   W06
 BYTE   Cs3
 BYTE   W06
 BYTE   Bn2
 BYTE   W06
 BYTE   Cs3
 BYTE   W06
 BYTE   Gs2
 BYTE   W06
// 037   ----------------------------------------
 BYTE   PATT
  POIN2 Label_8_012DD077
// 038   ----------------------------------------
 BYTE   PATT
  POIN2 Label_8_012DD09A
// 039   ----------------------------------------
 BYTE   PATT
  POIN2 Label_8_012DD0A4
// 040   ----------------------------------------
 BYTE   PATT
  POIN2 Label_8_012DD0AF
// 041   ----------------------------------------
 BYTE   PATT
  POIN2 Label_8_012DD0D2
// 042   ----------------------------------------
 BYTE   PATT
  POIN2 Label_8_012DD0F5
// 043   ----------------------------------------
 BYTE   PATT
  POIN2 Label_8_012DD118
// 044   ----------------------------------------
 BYTE   PATT
  POIN2 Label_8_012DD134
// 045   ----------------------------------------
 BYTE   PATT
  POIN2 Label_8_012DD13E
// 046   ----------------------------------------
 BYTE   PATT
  POIN2 Label_8_012DD145
// 047   ----------------------------------------
 BYTE   PATT
  POIN2 Label_8_012DD14F
// 048   ----------------------------------------
 BYTE   PATT
  POIN2 Label_8_012DD156
// 049   ----------------------------------------
 BYTE   PATT
  POIN2 Label_8_012DD161
// 050   ----------------------------------------
 BYTE   PATT
  POIN2 Label_8_012DD16F
// 051   ----------------------------------------
 BYTE   PATT
  POIN2 Label_8_012DD17A
// 052   ----------------------------------------
 BYTE   W96
// 053   ----------------------------------------
 BYTE   W96
// 054   ----------------------------------------
 BYTE   W96
// 055   ----------------------------------------
 BYTE   PATT
  POIN2 Label_8_012DD18A
// 056   ----------------------------------------
 BYTE   W96
// 057   ----------------------------------------
 BYTE   W96
// 058   ----------------------------------------
 BYTE   PATT
  POIN2 Label_8_012DD19F
// 059   ----------------------------------------
 BYTE   PATT
  POIN2 Label_8_012DD1C4
// 060   ----------------------------------------
 BYTE   PATT
  POIN2 Label_8_012DD1E7
// 061   ----------------------------------------
 BYTE   PATT
  POIN2 Label_8_012DD20A
// 062   ----------------------------------------
 BYTE   GoTo
  POIN2 Label_8_012DD006
 BYTE   FINE

//******************************************************//
	ALIGN 4

RomancingSaga3BattleMrGreen3339:
	BYTE	9	// NumTrks
	BYTE	0	// NumBlks
	BYTE	RomancingSaga3BattleMrGreen3339_pri	// Priority
	BYTE	RomancingSaga3BattleMrGreen3339_rev	// Reverb.
    
	POIN2	RomancingSaga3BattleMrGreen3339_grp
    
	POIN2	RomancingSaga3BattleMrGreen3339_001
	POIN2	RomancingSaga3BattleMrGreen3339_002
	POIN2	RomancingSaga3BattleMrGreen3339_003
	POIN2	RomancingSaga3BattleMrGreen3339_004
	POIN2	RomancingSaga3BattleMrGreen3339_005
	POIN2	RomancingSaga3BattleMrGreen3339_006
	POIN2	RomancingSaga3BattleMrGreen3339_007
	POIN2	RomancingSaga3BattleMrGreen3339_008
	POIN2	RomancingSaga3BattleMrGreen3339_009

	
