//Event file generated from Sappy .s format.
	#include "MPlayDef.event"

	#define	RomancingSaga3GenJyouBattle7743_grp  voicegroup000
	#define	RomancingSaga3GenJyouBattle7743_pri  0
	#define	RomancingSaga3GenJyouBattle7743_rev  0
	#define	RomancingSaga3GenJyouBattle7743_mvl  127
	#define	RomancingSaga3GenJyouBattle7743_key  0
	#define	RomancingSaga3GenJyouBattle7743_tbs  1
	#define	RomancingSaga3GenJyouBattle7743_exg  0
	#define	RomancingSaga3GenJyouBattle7743_cmp  1

	// .rodata
	//	RomancingSaga3GenJyouBattle7743
	ALIGN 4


//**************** Track 1 (Midi-Chn.0) ****************//

RomancingSaga3GenJyouBattle7743_001:
// 000   ----------------------------------------
 BYTE   KEYSH   RomancingSaga3GenJyouBattle7743_key+0
 BYTE   TEMPO   240*RomancingSaga3GenJyouBattle7743_tbs/2
 BYTE   VOL   34*RomancingSaga3GenJyouBattle7743_mvl/mxv
 BYTE   PAN   c_v+0
 BYTE   VOICE   18
 BYTE   TEMPO   168*RomancingSaga3GenJyouBattle7743_tbs/2
 BYTE   W96
// 001   ----------------------------------------
 BYTE   W96
// 002   ----------------------------------------
 BYTE   W96
// 003   ----------------------------------------
 BYTE   W48
 BYTE   N03  Cs2  v096
 BYTE   W03
 BYTE   Ds2
 BYTE   N03  Fn2  v068
 BYTE   W03
 BYTE   Fn2  v096
 BYTE   W03
 BYTE   Gs2
 BYTE   N03  As2  v068
 BYTE   W03
 BYTE   Bn2  v096
 BYTE   W03
 BYTE   Cs3
 BYTE   W03
 BYTE   Ds3
 BYTE   N03  Fs3  v068
 BYTE   W03
 BYTE   Fs3  v096
 BYTE   N03  Gs3  v068
 BYTE   W03
 BYTE   Fs3  v096
 BYTE   W03
 BYTE   Gs3
 BYTE   N03  As3  v068
 BYTE   W03
 BYTE   Cn4  v096
 BYTE   W03
 BYTE   Cs4
 BYTE   N03  Ds4  v068
 BYTE   W03
 BYTE   Fs4  v096
 BYTE   W03
 BYTE   Gs4
 BYTE   W03
 BYTE   An4
 BYTE   W03
 BYTE   Bn4
 BYTE   N03  Cs5  v068
 BYTE   W03
// 004   ----------------------------------------
Label_0_0183A749:
 BYTE   N06  Gs4  v092
 BYTE   N06  Ds5  v120
 BYTE   W06
 BYTE   Fs4  v092
 BYTE   N06  Cs5  v120
 BYTE   W06
 BYTE   Fs4  v032
 BYTE   N06  Cs5
 BYTE   W06
 BYTE   Gs4  v092
 BYTE   N06  Ds5  v120
 BYTE   W06
 BYTE   Gs4  v032
 BYTE   N06  Ds5
 BYTE   W06
 BYTE   Gs4  v092
 BYTE   N06  Ds5  v120
 BYTE   W06
 BYTE   Fs4  v092
 BYTE   N06  Cs5  v120
 BYTE   W06
 BYTE   Fs4  v032
 BYTE   N06  Cs5
 BYTE   W06
 BYTE   Gs4  v092
 BYTE   N06  Ds5  v120
 BYTE   W06
 BYTE   Gs4  v032
 BYTE   N06  Ds5
 BYTE   W06
 BYTE   Fs4  v092
 BYTE   N06  Cs5  v120
 BYTE   W06
 BYTE   Fs4  v032
 BYTE   N06  Cs5
 BYTE   W06
 BYTE   Ds4  v092
 BYTE   N06  Bn4  v120
 BYTE   W06
 BYTE   Ds4  v032
 BYTE   N06  Bn4
 BYTE   W06
 BYTE   Fs4  v092
 BYTE   N06  Cs5  v120
 BYTE   W06
 BYTE   Fs4  v032
 BYTE   N06  Cs5
 BYTE   W06
 BYTE   PEND 
// 005   ----------------------------------------
Label_0_0183A7A4:
 BYTE   N06  Gs4  v092
 BYTE   N06  Ds5  v120
 BYTE   W06
 BYTE   Fs4  v092
 BYTE   N06  Cs5  v120
 BYTE   W06
 BYTE   Fs4  v032
 BYTE   N06  Cs5
 BYTE   W06
 BYTE   Gs4  v092
 BYTE   N06  Ds5  v120
 BYTE   W06
 BYTE   Gs4  v032
 BYTE   N06  Ds5
 BYTE   W06
 BYTE   Gs4  v092
 BYTE   N06  Ds5  v120
 BYTE   W06
 BYTE   Fs4  v092
 BYTE   N06  Cs5  v120
 BYTE   W06
 BYTE   Fs4  v032
 BYTE   N06  Cs5
 BYTE   W06
 BYTE   Gs4  v092
 BYTE   N06  Ds5  v120
 BYTE   W06
 BYTE   Gs4  v032
 BYTE   N06  Ds5
 BYTE   W06
 BYTE   Cs5  v092
 BYTE   N06  Fs5  v120
 BYTE   W06
 BYTE   Cs5  v032
 BYTE   N06  Fs5
 BYTE   W06
 BYTE   N24  Ds5  v092
 BYTE   N24  As5  v120
 BYTE   W24
 BYTE   PEND 
// 006   ----------------------------------------
 BYTE   PATT
  POIN2 Label_0_0183A749
// 007   ----------------------------------------
 BYTE   PATT
  POIN2 Label_0_0183A7A4
// 008   ----------------------------------------
 BYTE   PATT
  POIN2 Label_0_0183A749
// 009   ----------------------------------------
 BYTE   PATT
  POIN2 Label_0_0183A7A4
// 010   ----------------------------------------
 BYTE   PATT
  POIN2 Label_0_0183A749
// 011   ----------------------------------------
 BYTE   N06  Gs4  v092
 BYTE   N06  Ds5  v120
 BYTE   W06
 BYTE   Fs4  v092
 BYTE   N06  Cs5  v120
 BYTE   W06
 BYTE   Fs4  v032
 BYTE   N06  Cs5
 BYTE   W06
 BYTE   Gs4  v092
 BYTE   N06  Ds5  v120
 BYTE   W06
 BYTE   Gs4  v032
 BYTE   N06  Ds5
 BYTE   W06
 BYTE   Gs4  v092
 BYTE   N06  Ds5  v120
 BYTE   W06
 BYTE   As4  v092
 BYTE   N06  Fs5  v120
 BYTE   W06
 BYTE   As4  v032
 BYTE   N06  Fs5
 BYTE   W06
 BYTE   N24  Ds5  v092
 BYTE   N24  As5  v120
 BYTE   W24
 BYTE   N03  Gs5  v096
 BYTE   W03
 BYTE   Fn5
 BYTE   W03
 BYTE   Dn5
 BYTE   W03
 BYTE   Bn4
 BYTE   N03  Cs5  v068
 BYTE   W03
 BYTE   As4  v096
 BYTE   W03
 BYTE   Fs4
 BYTE   N03  Gs4  v068
 BYTE   W03
 BYTE   Fs4  v096
 BYTE   W03
 BYTE   Cs4
 BYTE   N03  Ds4  v068
 BYTE   W03
// 012   ----------------------------------------
Label_0_0183A85B:
 BYTE   W96
// 013   ----------------------------------------
 BYTE   W96
// 014   ----------------------------------------
 BYTE   W96
// 015   ----------------------------------------
 BYTE   W96
// 016   ----------------------------------------
 BYTE   W96
// 017   ----------------------------------------
 BYTE   W96
// 018   ----------------------------------------
 BYTE   PATT
  POIN2 Label_0_0183A749
// 019   ----------------------------------------
 BYTE   PATT
  POIN2 Label_0_0183A7A4
// 020   ----------------------------------------
 BYTE   W96
// 021   ----------------------------------------
 BYTE   W96
// 022   ----------------------------------------
 BYTE   W96
// 023   ----------------------------------------
 BYTE   W96
// 024   ----------------------------------------
 BYTE   W96
// 025   ----------------------------------------
 BYTE   W96
// 026   ----------------------------------------
 BYTE   PATT
  POIN2 Label_0_0183A749
// 027   ----------------------------------------
 BYTE   PATT
  POIN2 Label_0_0183A7A4
// 028   ----------------------------------------
 BYTE   PATT
  POIN2 Label_0_0183A749
// 029   ----------------------------------------
 BYTE   N06  Gs4  v092
 BYTE   N06  Ds5  v120
 BYTE   W06
 BYTE   Gs4  v032
 BYTE   N06  Ds5
 BYTE   W06
 BYTE   Fs4  v092
 BYTE   N06  Cs5  v120
 BYTE   W06
 BYTE   Gs4
 BYTE   N06  Ds5
 BYTE   W06
 BYTE   Gs4  v032
 BYTE   N06  Ds5
 BYTE   W06
 BYTE   Fs4  v092
 BYTE   N06  Cs5  v120
 BYTE   W06
 BYTE   As4  v092
 BYTE   N06  Fs5  v120
 BYTE   W06
 BYTE   As4  v032
 BYTE   N06  Fs5
 BYTE   W06
 BYTE   N23  Ds5  v092
 BYTE   N23  As5  v120
 BYTE   W48
// 030   ----------------------------------------
 BYTE   W96
// 031   ----------------------------------------
 BYTE   W96
// 032   ----------------------------------------
 BYTE   W96
// 033   ----------------------------------------
 BYTE   W96
// 034   ----------------------------------------
 BYTE   W96
// 035   ----------------------------------------
 BYTE   W96
// 036   ----------------------------------------
 BYTE   W96
// 037   ----------------------------------------
 BYTE   W96
// 038   ----------------------------------------
 BYTE   W96
// 039   ----------------------------------------
 BYTE   W96
// 040   ----------------------------------------
 BYTE   W96
// 041   ----------------------------------------
 BYTE   PAN   c_v-24
 BYTE   N06  Gs4  v092
 BYTE   N06  As4  v088
 BYTE   N06  Ds5  v120
 BYTE   W06
 BYTE   Gn4  v092
 BYTE   N06  Cs5  v120
 BYTE   W06
 BYTE   Gn4  v032
 BYTE   N06  Cs5
 BYTE   W06
 BYTE   Gn4  v092
 BYTE   N06  As4  v088
 BYTE   N06  Ds5  v120
 BYTE   W06
 BYTE   Gn4  v032
 BYTE   N06  As4
 BYTE   N06  Ds5
 BYTE   W06
 BYTE   Gs4  v092
 BYTE   N06  Cs5  v120
 BYTE   W06
 BYTE   Gn4  v092
 BYTE   N06  As4  v088
 BYTE   N06  Ds5  v120
 BYTE   W06
 BYTE   Gn4  v032
 BYTE   N06  As4
 BYTE   N06  Ds5
 BYTE   W06
 BYTE   N24  Gn4  v092
 BYTE   N24  As4  v088
 BYTE   N24  Fs5  v120
 BYTE   W24
 BYTE   N03  Fn5  v096
 BYTE   W03
 BYTE   Cs5
 BYTE   N03  Ds5  v068
 BYTE   W03
 BYTE   Bn4  v096
 BYTE   W03
 BYTE   Gs4
 BYTE   N03  As4  v068
 BYTE   W03
 BYTE   Gs4  v096
 BYTE   W03
 BYTE   Ds4
 BYTE   N03  Fn4  v068
 BYTE   W03
 BYTE   Cn4  v096
 BYTE   W03
 BYTE   Gs3
 BYTE   N03  Bn3  v068
 BYTE   W03
// 042   ----------------------------------------
 BYTE   GoTo
  POIN2 Label_0_0183A85B
 BYTE   FINE

//**************** Track 2 (Midi-Chn.1) ****************//

RomancingSaga3GenJyouBattle7743_002:
// 000   ----------------------------------------
 BYTE   KEYSH   RomancingSaga3GenJyouBattle7743_key+0
 BYTE   VOL   25*RomancingSaga3GenJyouBattle7743_mvl/mxv
 BYTE   PAN   c_v+0
 BYTE   VOICE   52
 BYTE   W96
// 001   ----------------------------------------
 BYTE   W96
// 002   ----------------------------------------
 BYTE   W96
// 003   ----------------------------------------
 BYTE   W48
 BYTE   N03  Cs1  v096
 BYTE   W03
 BYTE   Ds1
 BYTE   N03  Fn1  v068
 BYTE   W03
 BYTE   Fn1  v096
 BYTE   W03
 BYTE   Gs1
 BYTE   N03  As1  v068
 BYTE   W03
 BYTE   Bn1  v096
 BYTE   W03
 BYTE   Cs2
 BYTE   W03
 BYTE   Ds2
 BYTE   N03  Fs2  v068
 BYTE   W03
 BYTE   Fs2  v096
 BYTE   N03  Gs2  v068
 BYTE   W03
 BYTE   Fs2  v096
 BYTE   W03
 BYTE   Gs2
 BYTE   N03  As2  v068
 BYTE   W03
 BYTE   Cn3  v096
 BYTE   W03
 BYTE   Cs3
 BYTE   N03  Ds3  v068
 BYTE   W03
 BYTE   Fs3  v096
 BYTE   W03
 BYTE   Gs3
 BYTE   W03
 BYTE   An3
 BYTE   W03
 BYTE   Bn3
 BYTE   N03  Cs4  v068
 BYTE   W03
// 004   ----------------------------------------
Label_1_0183A975:
 BYTE   N06  Gs3  v092
 BYTE   N06  Ds4  v120
 BYTE   W06
 BYTE   Fs3  v092
 BYTE   N06  Cs4  v120
 BYTE   W06
 BYTE   Fs3  v032
 BYTE   N06  Cs4
 BYTE   W06
 BYTE   Gs3  v092
 BYTE   N06  Ds4  v120
 BYTE   W06
 BYTE   Gs3  v032
 BYTE   N06  Ds4
 BYTE   W06
 BYTE   Gs3  v092
 BYTE   N06  Ds4  v120
 BYTE   W06
 BYTE   Fs3  v092
 BYTE   N06  Cs4  v120
 BYTE   W06
 BYTE   Fs3  v032
 BYTE   N06  Cs4
 BYTE   W06
 BYTE   Gs3  v092
 BYTE   N06  Ds4  v120
 BYTE   W06
 BYTE   Gs3  v032
 BYTE   N06  Ds4
 BYTE   W06
 BYTE   Fs3  v092
 BYTE   N06  Cs4  v120
 BYTE   W06
 BYTE   Fs3  v032
 BYTE   N06  Cs4
 BYTE   W06
 BYTE   Ds3  v092
 BYTE   N06  Bn3  v120
 BYTE   W06
 BYTE   Ds3  v032
 BYTE   N06  Bn3
 BYTE   W06
 BYTE   Fs3  v092
 BYTE   N06  Cs4  v120
 BYTE   W06
 BYTE   Fs3  v032
 BYTE   N06  Cs4
 BYTE   W06
 BYTE   PEND 
// 005   ----------------------------------------
Label_1_0183A9D0:
 BYTE   N06  Gs3  v092
 BYTE   N06  Ds4  v120
 BYTE   W06
 BYTE   Fs3  v092
 BYTE   N06  Cs4  v120
 BYTE   W06
 BYTE   Fs3  v032
 BYTE   N06  Cs4
 BYTE   W06
 BYTE   Gs3  v092
 BYTE   N06  Ds4  v120
 BYTE   W06
 BYTE   Gs3  v032
 BYTE   N06  Ds4
 BYTE   W06
 BYTE   Gs3  v092
 BYTE   N06  Ds4  v120
 BYTE   W06
 BYTE   Fs3  v092
 BYTE   N06  Cs4  v120
 BYTE   W06
 BYTE   Fs3  v032
 BYTE   N06  Cs4
 BYTE   W06
 BYTE   Gs3  v092
 BYTE   N06  Ds4  v120
 BYTE   W06
 BYTE   Gs3  v032
 BYTE   N06  Ds4
 BYTE   W06
 BYTE   Cs4  v092
 BYTE   N06  Fs4  v120
 BYTE   W06
 BYTE   Cs4  v032
 BYTE   N06  Fs4
 BYTE   W06
 BYTE   N24  Ds4  v092
 BYTE   N24  As4  v120
 BYTE   W24
 BYTE   PEND 
// 006   ----------------------------------------
 BYTE   PATT
  POIN2 Label_1_0183A975
// 007   ----------------------------------------
 BYTE   PATT
  POIN2 Label_1_0183A9D0
// 008   ----------------------------------------
 BYTE   PATT
  POIN2 Label_1_0183A975
// 009   ----------------------------------------
 BYTE   PATT
  POIN2 Label_1_0183A9D0
// 010   ----------------------------------------
 BYTE   PATT
  POIN2 Label_1_0183A975
// 011   ----------------------------------------
 BYTE   N06  Gs3  v092
 BYTE   N06  Ds4  v120
 BYTE   W06
 BYTE   Fs3  v092
 BYTE   N06  Cs4  v120
 BYTE   W06
 BYTE   Fs3  v032
 BYTE   N06  Cs4
 BYTE   W06
 BYTE   Gs3  v092
 BYTE   N06  Ds4  v120
 BYTE   W06
 BYTE   Gs3  v032
 BYTE   N06  Ds4
 BYTE   W06
 BYTE   Gs3  v092
 BYTE   N06  Ds4  v120
 BYTE   W06
 BYTE   As3  v092
 BYTE   N06  Fs4  v120
 BYTE   W06
 BYTE   As3  v032
 BYTE   N06  Fs4
 BYTE   W06
 BYTE   N24  Ds4  v092
 BYTE   N24  As4  v120
 BYTE   W24
 BYTE   N03  Gs4  v096
 BYTE   W03
 BYTE   Fn4
 BYTE   W03
 BYTE   Dn4
 BYTE   W03
 BYTE   Bn3
 BYTE   N03  Cs4  v068
 BYTE   W03
 BYTE   As3  v096
 BYTE   W03
 BYTE   Fs3
 BYTE   N03  Gs3  v068
 BYTE   W03
 BYTE   Fs3  v096
 BYTE   W03
 BYTE   Cs3
 BYTE   N03  Ds3  v068
 BYTE   W03
// 012   ----------------------------------------
Label_1_0183AA87:
 BYTE   W96
// 013   ----------------------------------------
 BYTE   W96
// 014   ----------------------------------------
 BYTE   W96
// 015   ----------------------------------------
 BYTE   W96
// 016   ----------------------------------------
 BYTE   W96
// 017   ----------------------------------------
 BYTE   W96
// 018   ----------------------------------------
 BYTE   PATT
  POIN2 Label_1_0183A975
// 019   ----------------------------------------
 BYTE   PATT
  POIN2 Label_1_0183A9D0
// 020   ----------------------------------------
 BYTE   W96
// 021   ----------------------------------------
 BYTE   W96
// 022   ----------------------------------------
 BYTE   W96
// 023   ----------------------------------------
 BYTE   W96
// 024   ----------------------------------------
 BYTE   W96
// 025   ----------------------------------------
 BYTE   W96
// 026   ----------------------------------------
 BYTE   PATT
  POIN2 Label_1_0183A975
// 027   ----------------------------------------
 BYTE   PATT
  POIN2 Label_1_0183A9D0
// 028   ----------------------------------------
 BYTE   PATT
  POIN2 Label_1_0183A975
// 029   ----------------------------------------
 BYTE   N06  Gs3  v092
 BYTE   N06  Ds4  v120
 BYTE   W06
 BYTE   Gs3  v032
 BYTE   N06  Ds4
 BYTE   W06
 BYTE   Fs3  v092
 BYTE   N06  Cs4  v120
 BYTE   W06
 BYTE   Gs3
 BYTE   N06  Ds4
 BYTE   W06
 BYTE   Gs3  v032
 BYTE   N06  Ds4
 BYTE   W06
 BYTE   Fs3  v092
 BYTE   N06  Cs4  v120
 BYTE   W06
 BYTE   As3  v092
 BYTE   N06  Fs4  v120
 BYTE   W06
 BYTE   As3  v032
 BYTE   N06  Fs4
 BYTE   W06
 BYTE   N23  Ds4  v092
 BYTE   N23  As4  v120
 BYTE   W48
// 030   ----------------------------------------
 BYTE   W96
// 031   ----------------------------------------
 BYTE   W96
// 032   ----------------------------------------
 BYTE   W96
// 033   ----------------------------------------
 BYTE   W96
// 034   ----------------------------------------
 BYTE   W96
// 035   ----------------------------------------
 BYTE   W96
// 036   ----------------------------------------
 BYTE   W96
// 037   ----------------------------------------
 BYTE   W96
// 038   ----------------------------------------
 BYTE   W96
// 039   ----------------------------------------
 BYTE   W96
// 040   ----------------------------------------
 BYTE   W96
// 041   ----------------------------------------
 BYTE   PAN   c_v-24
 BYTE   N06  Gs3  v092
 BYTE   N06  As3  v088
 BYTE   N06  Ds4  v120
 BYTE   W06
 BYTE   Gn3  v092
 BYTE   N06  Cs4  v120
 BYTE   W06
 BYTE   Gn3  v032
 BYTE   N06  Cs4
 BYTE   W06
 BYTE   Gn3  v092
 BYTE   N06  As3  v088
 BYTE   N06  Ds4  v120
 BYTE   W06
 BYTE   Gn3  v032
 BYTE   N06  As3
 BYTE   N06  Ds4
 BYTE   W06
 BYTE   Gs3  v092
 BYTE   N06  Cs4  v120
 BYTE   W06
 BYTE   Gn3  v092
 BYTE   N06  As3  v088
 BYTE   N06  Ds4  v120
 BYTE   W06
 BYTE   Gn3  v032
 BYTE   N06  As3
 BYTE   N06  Ds4
 BYTE   W06
 BYTE   N24  Gn3  v092
 BYTE   N24  As3  v088
 BYTE   N24  Fs4  v120
 BYTE   W24
 BYTE   N03  Fn4  v096
 BYTE   W03
 BYTE   Cs4
 BYTE   N03  Ds4  v068
 BYTE   W03
 BYTE   Bn3  v096
 BYTE   W03
 BYTE   Gs3
 BYTE   N03  As3  v068
 BYTE   W03
 BYTE   Gs3  v096
 BYTE   W03
 BYTE   Ds3
 BYTE   N03  Fn3  v068
 BYTE   W03
 BYTE   Cn3  v096
 BYTE   W03
 BYTE   Gs2
 BYTE   N03  Bn2  v068
 BYTE   W03
// 042   ----------------------------------------
 BYTE   GoTo
  POIN2 Label_1_0183AA87
 BYTE   FINE

//**************** Track 3 (Midi-Chn.2) ****************//

RomancingSaga3GenJyouBattle7743_003:
// 000   ----------------------------------------
 BYTE   KEYSH   RomancingSaga3GenJyouBattle7743_key+0
 BYTE   VOL   74*RomancingSaga3GenJyouBattle7743_mvl/mxv
 BYTE   PAN   c_v+0
 BYTE   VOICE   81
 BYTE   W96
// 001   ----------------------------------------
 BYTE   W96
// 002   ----------------------------------------
 BYTE   W96
// 003   ----------------------------------------
 BYTE   W96
// 004   ----------------------------------------
 BYTE   W96
// 005   ----------------------------------------
 BYTE   W96
// 006   ----------------------------------------
 BYTE   W96
// 007   ----------------------------------------
 BYTE   W96
// 008   ----------------------------------------
 BYTE   W96
// 009   ----------------------------------------
 BYTE   W96
// 010   ----------------------------------------
 BYTE   W96
// 011   ----------------------------------------
 BYTE   W96
// 012   ----------------------------------------
Label_2_0183AB6C:
 BYTE   N44  Fs3  v084
 BYTE   N17  Cs4  v100
 BYTE   W18
 BYTE   Ds4
 BYTE   W18
 BYTE   N11  En4
 BYTE   W12
 BYTE   N23  An3  v084
 BYTE   N23  Fs4  v100
 BYTE   W24
 BYTE   Gs3  v084
 BYTE   N23  En4  v100
 BYTE   W24
 BYTE   PEND 
// 013   ----------------------------------------
 BYTE   N32  Fs3  v084
 BYTE   N32  Ds4  v100
 BYTE   W36
 BYTE   En3  v084
 BYTE   N32  Cs4  v100
 BYTE   W36
 BYTE   N23  Ds3  v084
 BYTE   N23  Bn3  v100
 BYTE   W24
// 014   ----------------------------------------
 BYTE   N44  En3  v084
 BYTE   N17  Cs4  v100
 BYTE   W18
 BYTE   Bn3
 BYTE   W18
 BYTE   N11  Cs4
 BYTE   W12
 BYTE   N23  Cs3  v084
 BYTE   N23  Fs3  v100
 BYTE   W24
 BYTE   En3  v084
 BYTE   N23  Cs4  v100
 BYTE   W24
// 015   ----------------------------------------
 BYTE   N11  Ds3  v084
 BYTE   N92  Bn3  v100
 BYTE   W12
 BYTE   N11  En3  v084
 BYTE   W12
 BYTE   Ds3
 BYTE   W12
 BYTE   N23  Fs3
 BYTE   W24
 BYTE   N11  En3
 BYTE   W12
 BYTE   N23  Ds3
 BYTE   W24
// 016   ----------------------------------------
 BYTE   N44  Dn3
 BYTE   N17  An3  v100
 BYTE   W18
 BYTE   Gs3
 BYTE   W18
 BYTE   N11  An3
 BYTE   W12
 BYTE   N44  Fs3  v084
 BYTE   N44  Cs4  v100
 BYTE   W48
// 017   ----------------------------------------
 BYTE   En3  v084
 BYTE   N17  Bn3  v100
 BYTE   W18
 BYTE   An3
 BYTE   W18
 BYTE   N11  Bn3
 BYTE   W12
 BYTE   N23  Gs3  v084
 BYTE   N23  En4  v100
 BYTE   W24
 BYTE   Bn3  v084
 BYTE   N23  Gs4  v100
 BYTE   W24
// 018   ----------------------------------------
 BYTE   N44  Fs3  v084
 BYTE   TIE  Cs4  v100
 BYTE   W48
 BYTE   N44  En3  v084
 BYTE   W48
// 019   ----------------------------------------
 BYTE   Ds3
 BYTE   W48
 BYTE   Dn3
 BYTE   W44
 BYTE   W03
 BYTE   EOT
 BYTE   Cs4
 BYTE   W01
// 020   ----------------------------------------
 BYTE   PATT
  POIN2 Label_2_0183AB6C
// 021   ----------------------------------------
 BYTE   N11  Fs3  v084
 BYTE   N32  Ds4  v100
 BYTE   W12
 BYTE   N11  Gs3  v084
 BYTE   W12
 BYTE   Fs3
 BYTE   W12
 BYTE   N56  Bn3
 BYTE   N32  Gs4  v100
 BYTE   W36
 BYTE   N23  Fs4
 BYTE   W24
// 022   ----------------------------------------
 BYTE   N32  An3  v084
 BYTE   N32  En4  v100
 BYTE   W36
 BYTE   N56  Cs4  v084
 BYTE   N23  Bn4  v100
 BYTE   W24
 BYTE   N11  An4
 BYTE   W12
 BYTE   N23  Gs4
 BYTE   W24
// 023   ----------------------------------------
 BYTE   N11  Bn3  v084
 BYTE   N32  Fs4  v100
 BYTE   W12
 BYTE   N11  Cs4  v084
 BYTE   W12
 BYTE   Bn3
 BYTE   W12
 BYTE   N32  An3
 BYTE   N32  En4  v100
 BYTE   W36
 BYTE   N23  Bn3  v084
 BYTE   N23  Fs4  v100
 BYTE   W24
// 024   ----------------------------------------
 BYTE   N92  An3  v084
 BYTE   N80  Gs4  v100
 BYTE   W84
 BYTE   N05  Fs4
 BYTE   W06
 BYTE   Gs4
 BYTE   W06
// 025   ----------------------------------------
 BYTE   N68  Bn3  v084
 BYTE   N68  Fs4  v100
 BYTE   W96
// 026   ----------------------------------------
 BYTE   W96
// 027   ----------------------------------------
 BYTE   W96
// 028   ----------------------------------------
 BYTE   W96
// 029   ----------------------------------------
 BYTE   W96
// 030   ----------------------------------------
 BYTE   W96
// 031   ----------------------------------------
 BYTE   W96
// 032   ----------------------------------------
 BYTE   W96
// 033   ----------------------------------------
 BYTE   W96
// 034   ----------------------------------------
 BYTE   W96
// 035   ----------------------------------------
 BYTE   W96
// 036   ----------------------------------------
 BYTE   W96
// 037   ----------------------------------------
 BYTE   W96
// 038   ----------------------------------------
 BYTE   W96
// 039   ----------------------------------------
 BYTE   W96
// 040   ----------------------------------------
 BYTE   W96
// 041   ----------------------------------------
 BYTE   W96
// 042   ----------------------------------------
 BYTE   GoTo
  POIN2 Label_2_0183AB6C
 BYTE   FINE

//**************** Track 4 (Midi-Chn.3) ****************//

RomancingSaga3GenJyouBattle7743_004:
// 000   ----------------------------------------
 BYTE   KEYSH   RomancingSaga3GenJyouBattle7743_key+0
 BYTE   VOL   34*RomancingSaga3GenJyouBattle7743_mvl/mxv
 BYTE   PAN   c_v-42
 BYTE   VOICE   48
 BYTE   W96
// 001   ----------------------------------------
 BYTE   W96
// 002   ----------------------------------------
 BYTE   W96
// 003   ----------------------------------------
 BYTE   W96
// 004   ----------------------------------------
 BYTE   N92  Gs3  v104
 BYTE   W96
// 005   ----------------------------------------
 BYTE   Fs3
 BYTE   W96
// 006   ----------------------------------------
 BYTE   Gs3
 BYTE   W96
// 007   ----------------------------------------
 BYTE   As3
 BYTE   W96
// 008   ----------------------------------------
 BYTE   Gs3
 BYTE   W96
// 009   ----------------------------------------
 BYTE   Fs3
 BYTE   W96
// 010   ----------------------------------------
 BYTE   Gs3
 BYTE   W96
// 011   ----------------------------------------
 BYTE   N68  As3
 BYTE   W96
// 012   ----------------------------------------
Label_3_0183AC97:
 BYTE   W96
// 013   ----------------------------------------
 BYTE   W96
// 014   ----------------------------------------
 BYTE   W96
// 015   ----------------------------------------
 BYTE   W96
// 016   ----------------------------------------
 BYTE   W96
// 017   ----------------------------------------
 BYTE   W96
// 018   ----------------------------------------
 BYTE   W96
// 019   ----------------------------------------
 BYTE   W96
// 020   ----------------------------------------
 BYTE   W96
// 021   ----------------------------------------
 BYTE   W96
// 022   ----------------------------------------
 BYTE   W96
// 023   ----------------------------------------
 BYTE   W96
// 024   ----------------------------------------
 BYTE   W96
// 025   ----------------------------------------
 BYTE   W96
// 026   ----------------------------------------
 BYTE   N92  Gs3  v104
 BYTE   W96
// 027   ----------------------------------------
 BYTE   Fs3
 BYTE   W96
// 028   ----------------------------------------
 BYTE   Gs3
 BYTE   W96
// 029   ----------------------------------------
 BYTE   N68  As3
 BYTE   W96
// 030   ----------------------------------------
Label_3_0183ACB0:
 BYTE   N32  Gs4  v120
 BYTE   W36
 BYTE   Fs4
 BYTE   W36
 BYTE   N22  Gs4
 BYTE   W24
 BYTE   PEND 
// 031   ----------------------------------------
Label_3_0183ACBA:
 BYTE   N22  As4  v120
 BYTE   W24
 BYTE   Fs4
 BYTE   W24
 BYTE   Ds4
 BYTE   W24
 BYTE   Cs4
 BYTE   W24
 BYTE   PEND 
// 032   ----------------------------------------
 BYTE   N32  Ds4
 BYTE   W36
 BYTE   TIE  Gs4
 BYTE   W60
// 033   ----------------------------------------
 BYTE   W44
 BYTE   W01
 BYTE   EOT
 BYTE   W15
 BYTE   N06  Cs4
 BYTE   W06
 BYTE   Bn3
 BYTE   W06
 BYTE   Cs4
 BYTE   W06
 BYTE   Ds4
 BYTE   W06
 BYTE   En4
 BYTE   W06
 BYTE   N04  Fs4
 BYTE   W06
// 034   ----------------------------------------
 BYTE   PATT
  POIN2 Label_3_0183ACB0
// 035   ----------------------------------------
 BYTE   PATT
  POIN2 Label_3_0183ACBA
// 036   ----------------------------------------
 BYTE   N32  Ds4  v120
 BYTE   W36
 BYTE   Gs4
 BYTE   W36
 BYTE   N22  Bn4
 BYTE   W24
// 037   ----------------------------------------
 BYTE   As4
 BYTE   W24
 BYTE   Bn4
 BYTE   W24
 BYTE   Cs5
 BYTE   W24
 BYTE   Bn4
 BYTE   W24
// 038   ----------------------------------------
 BYTE   N92  As4
 BYTE   W96
// 039   ----------------------------------------
 BYTE   Bn4
 BYTE   W96
// 040   ----------------------------------------
 BYTE   Cs5
 BYTE   W96
// 041   ----------------------------------------
 BYTE   W96
// 042   ----------------------------------------
 BYTE   GoTo
  POIN2 Label_3_0183AC97
 BYTE   FINE

//**************** Track 5 (Midi-Chn.4) ****************//

RomancingSaga3GenJyouBattle7743_005:
// 000   ----------------------------------------
 BYTE   KEYSH   RomancingSaga3GenJyouBattle7743_key+0
 BYTE   VOL   34*RomancingSaga3GenJyouBattle7743_mvl/mxv
 BYTE   PAN   c_v+8
 BYTE   VOICE   48
 BYTE   W96
// 001   ----------------------------------------
 BYTE   W96
// 002   ----------------------------------------
 BYTE   W96
// 003   ----------------------------------------
 BYTE   W96
// 004   ----------------------------------------
 BYTE   TIE  Ds3  v096
 BYTE   W96
// 005   ----------------------------------------
 BYTE   W96
// 006   ----------------------------------------
 BYTE   W96
// 007   ----------------------------------------
 BYTE   W96
// 008   ----------------------------------------
 BYTE   W96
// 009   ----------------------------------------
 BYTE   W96
// 010   ----------------------------------------
 BYTE   W96
// 011   ----------------------------------------
 BYTE   W68
 BYTE   W01
 BYTE   EOT
 BYTE   W24
 BYTE   W03
// 012   ----------------------------------------
Label_4_0183AD23:
 BYTE   W96
// 013   ----------------------------------------
 BYTE   W96
// 014   ----------------------------------------
 BYTE   W96
// 015   ----------------------------------------
 BYTE   W96
// 016   ----------------------------------------
 BYTE   W96
// 017   ----------------------------------------
 BYTE   W96
// 018   ----------------------------------------
 BYTE   W96
// 019   ----------------------------------------
 BYTE   W96
// 020   ----------------------------------------
 BYTE   W96
// 021   ----------------------------------------
 BYTE   W96
// 022   ----------------------------------------
 BYTE   W96
// 023   ----------------------------------------
 BYTE   W96
// 024   ----------------------------------------
 BYTE   W96
// 025   ----------------------------------------
 BYTE   W96
// 026   ----------------------------------------
 BYTE   TIE  Ds3  v096
 BYTE   W96
// 027   ----------------------------------------
 BYTE   W96
// 028   ----------------------------------------
 BYTE   W96
// 029   ----------------------------------------
 BYTE   W68
 BYTE   W02
 BYTE   EOT
 BYTE   W24
 BYTE   W02
// 030   ----------------------------------------
 BYTE   N92  Bn3  v112
 BYTE   W96
// 031   ----------------------------------------
Label_4_0183AD40:
 BYTE   N44  Cs4  v112
 BYTE   W48
 BYTE   As3
 BYTE   W48
 BYTE   PEND 
// 032   ----------------------------------------
 BYTE   N92  Bn3
 BYTE   W96
// 033   ----------------------------------------
 BYTE   N22  Cs4
 BYTE   W24
 BYTE   Gs3
 BYTE   W24
 BYTE   Fn3
 BYTE   W24
 BYTE   Gs3
 BYTE   W24
// 034   ----------------------------------------
 BYTE   N92  Bn3
 BYTE   W96
// 035   ----------------------------------------
 BYTE   PATT
  POIN2 Label_4_0183AD40
// 036   ----------------------------------------
 BYTE   N68  Bn3  v112
 BYTE   W72
 BYTE   N22  Ds4
 BYTE   W24
// 037   ----------------------------------------
 BYTE   N92  Dn4
 BYTE   W96
// 038   ----------------------------------------
 BYTE   N06  As3  v084
 BYTE   W06
 BYTE   Gn3  v096
 BYTE   W06
 BYTE   N05  As3  v108
 BYTE   W06
 BYTE   N04  Ds4  v120
 BYTE   W06
 BYTE   N06  As3  v084
 BYTE   W06
 BYTE   Gn3  v096
 BYTE   W06
 BYTE   As3  v108
 BYTE   W06
 BYTE   N04  Ds4  v120
 BYTE   W06
 BYTE   N06  As3  v084
 BYTE   W06
 BYTE   Gn3  v096
 BYTE   W06
 BYTE   As3  v108
 BYTE   W06
 BYTE   N04  Ds4  v120
 BYTE   W06
 BYTE   N06  As3  v084
 BYTE   W06
 BYTE   Gn3  v096
 BYTE   W06
 BYTE   As3  v108
 BYTE   W06
 BYTE   N04  Ds4  v120
 BYTE   W06
// 039   ----------------------------------------
 BYTE   N06  Bn3  v084
 BYTE   W06
 BYTE   Gs3  v096
 BYTE   W06
 BYTE   Bn3  v108
 BYTE   W06
 BYTE   N04  En4  v120
 BYTE   W06
 BYTE   N06  Bn3  v084
 BYTE   W06
 BYTE   Gs3  v096
 BYTE   W06
 BYTE   Bn3  v108
 BYTE   W06
 BYTE   N04  En4  v120
 BYTE   W06
 BYTE   N06  Bn3  v084
 BYTE   W06
 BYTE   Gs3  v096
 BYTE   W06
 BYTE   Bn3  v108
 BYTE   W06
 BYTE   N04  En4  v120
 BYTE   W06
 BYTE   N06  Bn3  v084
 BYTE   W06
 BYTE   Gs3  v096
 BYTE   W06
 BYTE   Bn3  v108
 BYTE   W06
 BYTE   N04  En4  v120
 BYTE   W06
// 040   ----------------------------------------
 BYTE   N06  Cs4  v084
 BYTE   W06
 BYTE   As3  v096
 BYTE   W06
 BYTE   Cs4  v108
 BYTE   W06
 BYTE   N04  Fs4  v120
 BYTE   W06
 BYTE   N06  Cs4  v084
 BYTE   W06
 BYTE   As3  v096
 BYTE   W06
 BYTE   Cs4  v108
 BYTE   W06
 BYTE   N04  Fs4  v120
 BYTE   W06
 BYTE   N06  Cs4  v084
 BYTE   W06
 BYTE   As3  v096
 BYTE   W06
 BYTE   Cs4  v108
 BYTE   W06
 BYTE   N04  Fs4  v120
 BYTE   W06
 BYTE   N06  Cs4  v084
 BYTE   W06
 BYTE   As3  v096
 BYTE   W06
 BYTE   Cs4  v108
 BYTE   W06
 BYTE   N04  Fs4  v120
 BYTE   W06
// 041   ----------------------------------------
 BYTE   W96
// 042   ----------------------------------------
 BYTE   GoTo
  POIN2 Label_4_0183AD23
 BYTE   FINE

//**************** Track 6 (Midi-Chn.5) ****************//

RomancingSaga3GenJyouBattle7743_006:
// 000   ----------------------------------------
 BYTE   KEYSH   RomancingSaga3GenJyouBattle7743_key+0
 BYTE   VOL   34*RomancingSaga3GenJyouBattle7743_mvl/mxv
 BYTE   PAN   c_v+42
 BYTE   VOICE   48
 BYTE   W96
// 001   ----------------------------------------
 BYTE   W96
// 002   ----------------------------------------
 BYTE   W96
// 003   ----------------------------------------
 BYTE   W96
// 004   ----------------------------------------
 BYTE   W96
// 005   ----------------------------------------
 BYTE   W96
// 006   ----------------------------------------
 BYTE   W96
// 007   ----------------------------------------
 BYTE   W96
// 008   ----------------------------------------
 BYTE   W96
// 009   ----------------------------------------
 BYTE   W96
// 010   ----------------------------------------
 BYTE   W96
// 011   ----------------------------------------
 BYTE   W96
// 012   ----------------------------------------
Label_5_0183AE2C:
 BYTE   W96
// 013   ----------------------------------------
 BYTE   W96
// 014   ----------------------------------------
 BYTE   W96
// 015   ----------------------------------------
 BYTE   W96
// 016   ----------------------------------------
 BYTE   W96
// 017   ----------------------------------------
 BYTE   W96
// 018   ----------------------------------------
 BYTE   W96
// 019   ----------------------------------------
 BYTE   W96
// 020   ----------------------------------------
 BYTE   W96
// 021   ----------------------------------------
 BYTE   W96
// 022   ----------------------------------------
 BYTE   W96
// 023   ----------------------------------------
 BYTE   W96
// 024   ----------------------------------------
 BYTE   W96
// 025   ----------------------------------------
 BYTE   W96
// 026   ----------------------------------------
 BYTE   W96
// 027   ----------------------------------------
 BYTE   W96
// 028   ----------------------------------------
 BYTE   W96
// 029   ----------------------------------------
 BYTE   W96
// 030   ----------------------------------------
 BYTE   N92  En2  v112
 BYTE   W96
// 031   ----------------------------------------
 BYTE   Fs2
 BYTE   W96
// 032   ----------------------------------------
Label_5_0183AE44:
 BYTE   N32  Gs3  v112
 BYTE   W36
 BYTE   Ds3
 BYTE   W36
 BYTE   N22  Fs3
 BYTE   W24
 BYTE   PEND 
// 033   ----------------------------------------
 BYTE   Fn3
 BYTE   W24
 BYTE   Cs3
 BYTE   W24
 BYTE   Gs2
 BYTE   W24
 BYTE   Cs3
 BYTE   W24
// 034   ----------------------------------------
 BYTE   N92  En2
 BYTE   W96
// 035   ----------------------------------------
 BYTE   Fs2
 BYTE   W96
// 036   ----------------------------------------
 BYTE   PATT
  POIN2 Label_5_0183AE44
// 037   ----------------------------------------
 BYTE   N92  Fn3  v112
 BYTE   W96
// 038   ----------------------------------------
 BYTE   N10  Ds3  v096
 BYTE   W12
 BYTE   Gn3  v120
 BYTE   W12
 BYTE   Ds3  v096
 BYTE   W12
 BYTE   Gn3  v120
 BYTE   W12
 BYTE   Ds3  v096
 BYTE   W12
 BYTE   Gn3  v120
 BYTE   W12
 BYTE   Ds3  v096
 BYTE   W12
 BYTE   Gn3  v120
 BYTE   W12
// 039   ----------------------------------------
 BYTE   En3  v096
 BYTE   W12
 BYTE   Gs3  v120
 BYTE   W12
 BYTE   En3  v096
 BYTE   W12
 BYTE   Gs3  v120
 BYTE   W12
 BYTE   En3  v096
 BYTE   W12
 BYTE   Gs3  v120
 BYTE   W12
 BYTE   En3  v096
 BYTE   W12
 BYTE   Gs3  v120
 BYTE   W12
// 040   ----------------------------------------
 BYTE   Fs3  v108
 BYTE   W12
 BYTE   As3  v120
 BYTE   W12
 BYTE   Fs3  v108
 BYTE   W12
 BYTE   As3  v120
 BYTE   W12
 BYTE   Fs3  v108
 BYTE   W12
 BYTE   As3  v120
 BYTE   W12
 BYTE   Fs3  v108
 BYTE   W12
 BYTE   As3  v120
 BYTE   W12
// 041   ----------------------------------------
 BYTE   W96
// 042   ----------------------------------------
 BYTE   GoTo
  POIN2 Label_5_0183AE2C
 BYTE   FINE

//**************** Track 7 (Midi-Chn.6) ****************//

RomancingSaga3GenJyouBattle7743_007:
// 000   ----------------------------------------
 BYTE   KEYSH   RomancingSaga3GenJyouBattle7743_key+0
 BYTE   VOL   87*RomancingSaga3GenJyouBattle7743_mvl/mxv
 BYTE   PAN   c_v+0
 BYTE   VOICE   39
Label_6_0183B0B0:
 BYTE   N11  GsM1  v108
 BYTE   W12
 BYTE   Fs0  v116
 BYTE   W12
 BYTE   Gs0
 BYTE   W12
 BYTE   GsM1  v108
 BYTE   W12
 BYTE   Cs0  v112
 BYTE   W12
 BYTE   Ds0
 BYTE   W12
 BYTE   GsM1  v108
 BYTE   W12
 BYTE   FsM1  v100
 BYTE   W12
 BYTE   PEND 
// 001   ----------------------------------------
Label_6_0183B0C8:
 BYTE   N11  GsM1  v108
 BYTE   W12
 BYTE   Fs0  v116
 BYTE   W12
 BYTE   Gs0
 BYTE   W12
 BYTE   GsM1  v108
 BYTE   W12
 BYTE   Cs0  v112
 BYTE   W12
 BYTE   Ds0
 BYTE   W12
 BYTE   Fs0  v116
 BYTE   W12
 BYTE   Ds0  v112
 BYTE   W12
 BYTE   PEND 
// 002   ----------------------------------------
 BYTE   PATT
  POIN2 Label_6_0183B0B0
// 003   ----------------------------------------
 BYTE   N11  GsM1  v108
 BYTE   W12
 BYTE   Fs0  v116
 BYTE   W12
 BYTE   Gs0
 BYTE   W12
 BYTE   GsM1  v108
 BYTE   W12
 BYTE   Cs0  v112
 BYTE   W12
 BYTE   BnM1
 BYTE   W12
 BYTE   GsM1  v108
 BYTE   W12
 BYTE   FsM1  v100
 BYTE   W12
// 004   ----------------------------------------
 BYTE   VOL   37*RomancingSaga3GenJyouBattle7743_mvl/mxv
// 005   ----------------------------------------
 BYTE   PATT
  POIN2 Label_6_0183B0B0
// 006   ----------------------------------------
 BYTE   PATT
  POIN2 Label_6_0183B0B0
// 007   ----------------------------------------
 BYTE   PATT
  POIN2 Label_6_0183B0B0
// 008   ----------------------------------------
 BYTE   PATT
  POIN2 Label_6_0183B0C8
// 009   ----------------------------------------
 BYTE   PATT
  POIN2 Label_6_0183B0B0
// 010   ----------------------------------------
 BYTE   PATT
  POIN2 Label_6_0183B0B0
// 011   ----------------------------------------
 BYTE   PATT
  POIN2 Label_6_0183B0B0
// 012   ----------------------------------------
 BYTE   N11  GsM1  v108
 BYTE   W12
 BYTE   Gs0  v116
 BYTE   W12
 BYTE   Cs0  v112
 BYTE   W12
 BYTE   Ds0  v116
 BYTE   W12
 BYTE   GsM1  v108
 BYTE   W48
// 013   ----------------------------------------
Label_6_0183B131:
// 014   ----------------------------------------
 BYTE   PATT
  POIN2 Label_6_0183B0B0
// 015   ----------------------------------------
 BYTE   PATT
  POIN2 Label_6_0183B0B0
// 016   ----------------------------------------
 BYTE   PATT
  POIN2 Label_6_0183B0B0
// 017   ----------------------------------------
 BYTE   PATT
  POIN2 Label_6_0183B0B0
// 018   ----------------------------------------
 BYTE   PATT
  POIN2 Label_6_0183B0B0
// 019   ----------------------------------------
 BYTE   PATT
  POIN2 Label_6_0183B0B0
// 020   ----------------------------------------
 BYTE   PATT
  POIN2 Label_6_0183B0B0
// 021   ----------------------------------------
 BYTE   PATT
  POIN2 Label_6_0183B0B0
// 022   ----------------------------------------
 BYTE   PATT
  POIN2 Label_6_0183B0B0
// 023   ----------------------------------------
 BYTE   PATT
  POIN2 Label_6_0183B0B0
// 024   ----------------------------------------
 BYTE   PATT
  POIN2 Label_6_0183B0B0
// 025   ----------------------------------------
 BYTE   PATT
  POIN2 Label_6_0183B0B0
// 026   ----------------------------------------
 BYTE   PATT
  POIN2 Label_6_0183B0B0
// 027   ----------------------------------------
 BYTE   N11  GsM1  v108
 BYTE   W12
 BYTE   Fs0  v116
 BYTE   W12
 BYTE   Cs0  v112
 BYTE   W12
 BYTE   Ds0
 BYTE   W12
 BYTE   N12  GsM1  v108
 BYTE   W12
 BYTE   GsM1  v032
 BYTE   W12
 BYTE   N23  Gs0  v116
 BYTE   W24
// 028   ----------------------------------------
 BYTE   PATT
  POIN2 Label_6_0183B0B0
// 029   ----------------------------------------
 BYTE   PATT
  POIN2 Label_6_0183B0B0
// 030   ----------------------------------------
 BYTE   PATT
  POIN2 Label_6_0183B0B0
// 031   ----------------------------------------
 BYTE   N05  GsM1  v112
 BYTE   W12
 BYTE   Fs0  v120
 BYTE   W06
 BYTE   Gs0
 BYTE   W06
 BYTE   Fn0
 BYTE   W06
 BYTE   Ds0  v116
 BYTE   W06
 BYTE   Cs0
 BYTE   W06
 BYTE   Ds0
 BYTE   W06
 BYTE   GsM1  v112
 BYTE   W06
 BYTE   N18  GsM1  v032
 BYTE   W42
// 032   ----------------------------------------
Label_6_0183B1B1:
 BYTE   N11  EnM1  v100
 BYTE   W12
 BYTE   BnM1  v108
 BYTE   W12
 BYTE   En0  v112
 BYTE   W12
 BYTE   EnM1  v100
 BYTE   W12
 BYTE   BnM1  v108
 BYTE   W12
 BYTE   En0  v112
 BYTE   W12
 BYTE   Fs0
 BYTE   W12
 BYTE   En0
 BYTE   W12
 BYTE   PEND 
// 033   ----------------------------------------
Label_6_0183B1C9:
 BYTE   N11  FsM1  v100
 BYTE   W12
 BYTE   Cs0  v108
 BYTE   W12
 BYTE   Fs0  v112
 BYTE   W12
 BYTE   FsM1  v100
 BYTE   W12
 BYTE   Cs0  v108
 BYTE   W12
 BYTE   Fs0  v112
 BYTE   W12
 BYTE   Gs0
 BYTE   W12
 BYTE   Fs0
 BYTE   W12
 BYTE   PEND 
// 034   ----------------------------------------
 BYTE   GsM1  v108
 BYTE   W12
 BYTE   Ds0  v112
 BYTE   W12
 BYTE   Gs0  v116
 BYTE   W12
 BYTE   GsM1  v108
 BYTE   W12
 BYTE   Ds0  v112
 BYTE   W12
 BYTE   Gs0  v116
 BYTE   W12
 BYTE   Fs0
 BYTE   W12
 BYTE   Gs0
 BYTE   W12
// 035   ----------------------------------------
 BYTE   GsM1  v108
 BYTE   W12
 BYTE   Ds0  v112
 BYTE   W12
 BYTE   Gs0  v116
 BYTE   W12
 BYTE   GsM1  v108
 BYTE   W12
 BYTE   Ds0  v112
 BYTE   W12
 BYTE   Gs0  v116
 BYTE   W12
 BYTE   Fs0
 BYTE   W12
 BYTE   Ds0  v112
 BYTE   W12
// 036   ----------------------------------------
 BYTE   PATT
  POIN2 Label_6_0183B1B1
// 037   ----------------------------------------
 BYTE   PATT
  POIN2 Label_6_0183B1C9
// 038   ----------------------------------------
 BYTE   N11  GsM1  v108
 BYTE   W12
 BYTE   Ds0  v112
 BYTE   W12
 BYTE   Gs0  v116
 BYTE   W12
 BYTE   GsM1  v108
 BYTE   W12
 BYTE   Ds0  v112
 BYTE   W12
 BYTE   Gs0  v116
 BYTE   W12
 BYTE   Cs0  v112
 BYTE   W12
 BYTE   Ds0
 BYTE   W12
// 039   ----------------------------------------
 BYTE   AsM1
 BYTE   W12
 BYTE   Fn0  v116
 BYTE   W12
 BYTE   As0  v120
 BYTE   W12
 BYTE   AsM1  v112
 BYTE   W12
 BYTE   Fn0  v116
 BYTE   W12
 BYTE   As0  v120
 BYTE   W12
 BYTE   Cn0  v108
 BYTE   W12
 BYTE   Dn0  v112
 BYTE   W12
// 040   ----------------------------------------
 BYTE   Ds0
 BYTE   W12
 BYTE   Cs0
 BYTE   W12
 BYTE   AsM1  v108
 BYTE   W12
 BYTE   Ds0  v112
 BYTE   W12
 BYTE   Cs0
 BYTE   W12
 BYTE   AsM1  v108
 BYTE   W12
 BYTE   Cs0  v112
 BYTE   W12
 BYTE   Ds0
 BYTE   W12
// 041   ----------------------------------------
 BYTE   En0  v116
 BYTE   W12
 BYTE   Ds0
 BYTE   W12
 BYTE   BnM1  v112
 BYTE   W12
 BYTE   En0  v116
 BYTE   W12
 BYTE   Ds0
 BYTE   W12
 BYTE   BnM1  v112
 BYTE   W12
 BYTE   Ds0  v116
 BYTE   W12
 BYTE   En0
 BYTE   W12
// 042   ----------------------------------------
 BYTE   Fs0  v120
 BYTE   W12
 BYTE   En0
 BYTE   W12
 BYTE   Cs0  v116
 BYTE   W12
 BYTE   Fs0  v120
 BYTE   W12
 BYTE   En0
 BYTE   W12
 BYTE   Cs0  v116
 BYTE   W12
 BYTE   En0  v120
 BYTE   W12
 BYTE   Fs0
 BYTE   W12
// 043   ----------------------------------------
 BYTE   Ds0  v116
 BYTE   W54
 BYTE   N05  AsM1  v100
 BYTE   W06
 BYTE   Cs0  v108
 BYTE   W06
 BYTE   AsM1  v112
 BYTE   W06
 BYTE   N23  Ds0
 BYTE   W24
// 044   ----------------------------------------
 BYTE   GoTo
  POIN2 Label_6_0183B131
 BYTE   FINE

//**************** Track 8 (Midi-Chn.7) ****************//

RomancingSaga3GenJyouBattle7743_008:
// 000   ----------------------------------------
 BYTE   KEYSH   RomancingSaga3GenJyouBattle7743_key+0
 BYTE   VOL   102*RomancingSaga3GenJyouBattle7743_mvl/mxv
 BYTE   PAN   c_v+0
 BYTE   VOICE   29
Label_7_0183AEBC:
 BYTE   N10  GsM1  v108
 BYTE   W12
 BYTE   Fs0  v116
 BYTE   W12
 BYTE   Gs0
 BYTE   W12
 BYTE   GsM1  v108
 BYTE   W12
 BYTE   Cs0  v112
 BYTE   W12
 BYTE   Ds0
 BYTE   W12
 BYTE   GsM1  v108
 BYTE   W12
 BYTE   FsM1  v100
 BYTE   W12
 BYTE   PEND 
// 001   ----------------------------------------
Label_7_0183AED4:
 BYTE   N10  GsM1  v108
 BYTE   W12
 BYTE   Fs0  v116
 BYTE   W12
 BYTE   Gs0
 BYTE   W12
 BYTE   GsM1  v108
 BYTE   W12
 BYTE   Cs0  v112
 BYTE   W12
 BYTE   Ds0
 BYTE   W12
 BYTE   Fs0  v116
 BYTE   W12
 BYTE   Ds0  v112
 BYTE   W12
 BYTE   PEND 
// 002   ----------------------------------------
 BYTE   PATT
  POIN2 Label_7_0183AEBC
// 003   ----------------------------------------
 BYTE   N10  GsM1  v108
 BYTE   W12
 BYTE   Fs0  v116
 BYTE   W12
 BYTE   Gs0
 BYTE   W12
 BYTE   GsM1  v108
 BYTE   W12
 BYTE   Cs0  v112
 BYTE   W12
 BYTE   BnM1
 BYTE   W12
 BYTE   GsM1  v108
 BYTE   W12
 BYTE   FsM1  v100
 BYTE   W12
// 004   ----------------------------------------
 BYTE   VOL   52*RomancingSaga3GenJyouBattle7743_mvl/mxv
// 005   ----------------------------------------
 BYTE   PATT
  POIN2 Label_7_0183AEBC
// 006   ----------------------------------------
 BYTE   PATT
  POIN2 Label_7_0183AEBC
// 007   ----------------------------------------
 BYTE   PATT
  POIN2 Label_7_0183AEBC
// 008   ----------------------------------------
 BYTE   PATT
  POIN2 Label_7_0183AED4
// 009   ----------------------------------------
 BYTE   PATT
  POIN2 Label_7_0183AEBC
// 010   ----------------------------------------
 BYTE   PATT
  POIN2 Label_7_0183AEBC
// 011   ----------------------------------------
 BYTE   PATT
  POIN2 Label_7_0183AEBC
// 012   ----------------------------------------
 BYTE   N10  GsM1  v108
 BYTE   W12
 BYTE   Gs0  v116
 BYTE   W12
 BYTE   Cs0  v112
 BYTE   W12
 BYTE   Ds0  v116
 BYTE   W12
 BYTE   GsM1  v108
 BYTE   W48
// 013   ----------------------------------------
Label_7_0183AF3D:
// 014   ----------------------------------------
 BYTE   PATT
  POIN2 Label_7_0183AEBC
// 015   ----------------------------------------
 BYTE   PATT
  POIN2 Label_7_0183AEBC
// 016   ----------------------------------------
 BYTE   PATT
  POIN2 Label_7_0183AEBC
// 017   ----------------------------------------
 BYTE   PATT
  POIN2 Label_7_0183AEBC
// 018   ----------------------------------------
 BYTE   PATT
  POIN2 Label_7_0183AEBC
// 019   ----------------------------------------
 BYTE   PATT
  POIN2 Label_7_0183AEBC
// 020   ----------------------------------------
 BYTE   PATT
  POIN2 Label_7_0183AEBC
// 021   ----------------------------------------
 BYTE   PATT
  POIN2 Label_7_0183AEBC
// 022   ----------------------------------------
 BYTE   PATT
  POIN2 Label_7_0183AEBC
// 023   ----------------------------------------
 BYTE   PATT
  POIN2 Label_7_0183AEBC
// 024   ----------------------------------------
 BYTE   PATT
  POIN2 Label_7_0183AEBC
// 025   ----------------------------------------
 BYTE   PATT
  POIN2 Label_7_0183AEBC
// 026   ----------------------------------------
 BYTE   PATT
  POIN2 Label_7_0183AEBC
// 027   ----------------------------------------
 BYTE   N10  GsM1  v108
 BYTE   W12
 BYTE   Fs0  v116
 BYTE   W12
 BYTE   Cs0  v112
 BYTE   W12
 BYTE   Ds0
 BYTE   W12
 BYTE   N11  GsM1  v108
 BYTE   W12
 BYTE   GsM1  v032
 BYTE   W12
 BYTE   N22  Gs0  v116
 BYTE   W24
// 028   ----------------------------------------
 BYTE   PATT
  POIN2 Label_7_0183AEBC
// 029   ----------------------------------------
 BYTE   PATT
  POIN2 Label_7_0183AEBC
// 030   ----------------------------------------
 BYTE   PATT
  POIN2 Label_7_0183AEBC
// 031   ----------------------------------------
 BYTE   N04  GsM1  v112
 BYTE   W12
 BYTE   Fs0  v120
 BYTE   W06
 BYTE   Gs0
 BYTE   W06
 BYTE   Fn0
 BYTE   W06
 BYTE   Ds0  v116
 BYTE   W06
 BYTE   Cs0
 BYTE   W06
 BYTE   Ds0
 BYTE   W06
 BYTE   GsM1  v112
 BYTE   W06
 BYTE   N17  GsM1  v032
 BYTE   W42
// 032   ----------------------------------------
Label_7_0183AFBD:
 BYTE   N10  EnM1  v100
 BYTE   W12
 BYTE   BnM1  v108
 BYTE   W12
 BYTE   En0  v112
 BYTE   W12
 BYTE   EnM1  v100
 BYTE   W12
 BYTE   BnM1  v108
 BYTE   W12
 BYTE   En0  v112
 BYTE   W12
 BYTE   Fs0
 BYTE   W12
 BYTE   En0
 BYTE   W12
 BYTE   PEND 
// 033   ----------------------------------------
Label_7_0183AFD5:
 BYTE   N10  FsM1  v100
 BYTE   W12
 BYTE   Cs0  v108
 BYTE   W12
 BYTE   Fs0  v112
 BYTE   W12
 BYTE   FsM1  v100
 BYTE   W12
 BYTE   Cs0  v108
 BYTE   W12
 BYTE   Fs0  v112
 BYTE   W12
 BYTE   Gs0
 BYTE   W12
 BYTE   Fs0
 BYTE   W12
 BYTE   PEND 
// 034   ----------------------------------------
 BYTE   GsM1  v108
 BYTE   W12
 BYTE   Ds0  v112
 BYTE   W12
 BYTE   Gs0  v116
 BYTE   W12
 BYTE   GsM1  v108
 BYTE   W12
 BYTE   Ds0  v112
 BYTE   W12
 BYTE   Gs0  v116
 BYTE   W12
 BYTE   Fs0
 BYTE   W12
 BYTE   Gs0
 BYTE   W12
// 035   ----------------------------------------
 BYTE   GsM1  v108
 BYTE   W12
 BYTE   Ds0  v112
 BYTE   W12
 BYTE   Gs0  v116
 BYTE   W12
 BYTE   GsM1  v108
 BYTE   W12
 BYTE   Ds0  v112
 BYTE   W12
 BYTE   Gs0  v116
 BYTE   W12
 BYTE   Fs0
 BYTE   W12
 BYTE   Ds0  v112
 BYTE   W12
// 036   ----------------------------------------
 BYTE   PATT
  POIN2 Label_7_0183AFBD
// 037   ----------------------------------------
 BYTE   PATT
  POIN2 Label_7_0183AFD5
// 038   ----------------------------------------
 BYTE   N10  GsM1  v108
 BYTE   W12
 BYTE   Ds0  v112
 BYTE   W12
 BYTE   Gs0  v116
 BYTE   W12
 BYTE   GsM1  v108
 BYTE   W12
 BYTE   Ds0  v112
 BYTE   W12
 BYTE   Gs0  v116
 BYTE   W12
 BYTE   Cs0  v112
 BYTE   W12
 BYTE   Ds0
 BYTE   W12
// 039   ----------------------------------------
 BYTE   AsM1
 BYTE   W12
 BYTE   Fn0  v116
 BYTE   W12
 BYTE   As0  v120
 BYTE   W12
 BYTE   AsM1  v112
 BYTE   W12
 BYTE   Fn0  v116
 BYTE   W12
 BYTE   As0  v120
 BYTE   W12
 BYTE   Cn0  v108
 BYTE   W12
 BYTE   Dn0  v112
 BYTE   W12
// 040   ----------------------------------------
 BYTE   Ds0
 BYTE   W12
 BYTE   Cs0
 BYTE   W12
 BYTE   AsM1  v108
 BYTE   W12
 BYTE   Ds0  v112
 BYTE   W12
 BYTE   Cs0
 BYTE   W12
 BYTE   AsM1  v108
 BYTE   W12
 BYTE   Cs0  v112
 BYTE   W12
 BYTE   Ds0
 BYTE   W12
// 041   ----------------------------------------
 BYTE   En0  v116
 BYTE   W12
 BYTE   Ds0
 BYTE   W12
 BYTE   BnM1  v112
 BYTE   W12
 BYTE   En0  v116
 BYTE   W12
 BYTE   Ds0
 BYTE   W12
 BYTE   BnM1  v112
 BYTE   W12
 BYTE   Ds0  v116
 BYTE   W12
 BYTE   En0
 BYTE   W12
// 042   ----------------------------------------
 BYTE   Fs0  v120
 BYTE   W12
 BYTE   En0
 BYTE   W12
 BYTE   Cs0  v116
 BYTE   W12
 BYTE   Fs0  v120
 BYTE   W12
 BYTE   En0
 BYTE   W12
 BYTE   Cs0  v116
 BYTE   W12
 BYTE   En0  v120
 BYTE   W12
 BYTE   Fs0
 BYTE   W12
// 043   ----------------------------------------
 BYTE   Ds0  v116
 BYTE   W54
 BYTE   N04  AsM1  v100
 BYTE   W06
 BYTE   Cs0  v108
 BYTE   W06
 BYTE   AsM1  v112
 BYTE   W06
 BYTE   N22  Ds0
 BYTE   W24
// 044   ----------------------------------------
 BYTE   GoTo
  POIN2 Label_7_0183AF3D
 BYTE   FINE

//**************** Track 9 (Midi-Chn.8) ****************//

RomancingSaga3GenJyouBattle7743_009:
// 000   ----------------------------------------
 BYTE   KEYSH   RomancingSaga3GenJyouBattle7743_key+0
 BYTE   VOL   72*RomancingSaga3GenJyouBattle7743_mvl/mxv
 BYTE   PAN   c_v+0
 BYTE   VOICE   0
Label_8_0183B2A4:
 BYTE   N01  Cn1  v120
 BYTE   N01  As1  v088
 BYTE   N01  Cs2  v116
 BYTE   W12
 BYTE   Fs1  v088
 BYTE   W06
 BYTE   N01
 BYTE   W06
 BYTE   Cn1  v120
 BYTE   N01  As1  v088
 BYTE   W12
 BYTE   Fs1
 BYTE   W06
 BYTE   N01
 BYTE   W06
 BYTE   Cn1  v120
 BYTE   N01  As1  v088
 BYTE   W12
 BYTE   Fs1
 BYTE   W06
 BYTE   N01
 BYTE   W06
 BYTE   Cn1  v120
 BYTE   N01  As1  v088
 BYTE   W12
 BYTE   Fs1
 BYTE   W06
 BYTE   N01
 BYTE   W06
 BYTE   PEND 
// 001   ----------------------------------------
Label_8_0183B2D2:
 BYTE   N01  Cn1  v120
 BYTE   N01  As1  v088
 BYTE   W12
 BYTE   Fs1
 BYTE   W06
 BYTE   N01
 BYTE   W06
 BYTE   Cn1  v120
 BYTE   N01  As1  v088
 BYTE   W12
 BYTE   Fs1
 BYTE   W06
 BYTE   N01
 BYTE   W06
 BYTE   Cn1  v120
 BYTE   N01  As1  v088
 BYTE   W12
 BYTE   Fs1
 BYTE   W06
 BYTE   N01
 BYTE   W06
 BYTE   Cn1  v120
 BYTE   N01  As1  v088
 BYTE   W12
 BYTE   Fs1
 BYTE   W06
 BYTE   N01
 BYTE   W06
 BYTE   PEND 
// 002   ----------------------------------------
 BYTE   PATT
  POIN2 Label_8_0183B2D2
// 003   ----------------------------------------
 BYTE   N01  Cn1  v120
 BYTE   N01  As1  v088
 BYTE   W12
 BYTE   Fs1
 BYTE   W06
 BYTE   N01
 BYTE   W06
 BYTE   Cn1  v120
 BYTE   N01  As1  v088
 BYTE   W12
 BYTE   Fs1
 BYTE   W06
 BYTE   N01
 BYTE   W06
 BYTE   Dn1  v108
 BYTE   N01  En1  v068
 BYTE   W06
 BYTE   Bn1  v127
 BYTE   W06
 BYTE   An1
 BYTE   W06
 BYTE   Gn1
 BYTE   W06
 BYTE   Dn1  v108
 BYTE   N01  En1  v068
 BYTE   W12
 BYTE   Dn1  v108
 BYTE   N01  En1  v068
 BYTE   W06
 BYTE   Dn1  v108
 BYTE   N01  En1  v068
 BYTE   W06
// 004   ----------------------------------------
 BYTE   VOL   42*RomancingSaga3GenJyouBattle7743_mvl/mxv
// 005   ----------------------------------------
 BYTE   PATT
  POIN2 Label_8_0183B2A4
// 006   ----------------------------------------
 BYTE   PATT
  POIN2 Label_8_0183B2D2
// 007   ----------------------------------------
 BYTE   PATT
  POIN2 Label_8_0183B2D2
// 008   ----------------------------------------
Label_8_0183B346:
 BYTE   N01  Cn1  v120
 BYTE   N01  As1  v088
 BYTE   W12
 BYTE   Fs1
 BYTE   W06
 BYTE   N01
 BYTE   W06
 BYTE   Cn1  v120
 BYTE   N01  As1  v088
 BYTE   W12
 BYTE   Fs1
 BYTE   W06
 BYTE   N01
 BYTE   W06
 BYTE   Bn1  v127
 BYTE   W06
 BYTE   Dn1  v108
 BYTE   N01  En1  v068
 BYTE   W06
 BYTE   Dn1  v108
 BYTE   N01  En1  v068
 BYTE   W06
 BYTE   An1  v127
 BYTE   W06
 BYTE   Dn1  v108
 BYTE   N01  En1  v068
 BYTE   W06
 BYTE   Dn1  v108
 BYTE   N01  En1  v068
 BYTE   W06
 BYTE   Gn1  v127
 BYTE   W06
 BYTE   Dn1  v108
 BYTE   N01  En1  v068
 BYTE   W06
 BYTE   PEND 
// 009   ----------------------------------------
 BYTE   PATT
  POIN2 Label_8_0183B2A4
// 010   ----------------------------------------
 BYTE   PATT
  POIN2 Label_8_0183B2D2
// 011   ----------------------------------------
 BYTE   PATT
  POIN2 Label_8_0183B2D2
// 012   ----------------------------------------
 BYTE   N01  Dn1  v108
 BYTE   N01  En1  v068
 BYTE   W06
 BYTE   Bn1  v127
 BYTE   W06
 BYTE   An1
 BYTE   W06
 BYTE   Dn1  v108
 BYTE   N01  En1  v068
 BYTE   W06
 BYTE   Bn1  v127
 BYTE   W06
 BYTE   An1
 BYTE   W06
 BYTE   Gn1
 BYTE   W06
 BYTE   An1
 BYTE   W06
 BYTE   Dn1  v108
 BYTE   N01  En1  v068
 BYTE   W06
 BYTE   Dn1  v108
 BYTE   N01  En1  v068
 BYTE   W06
 BYTE   Dn1  v108
 BYTE   N01  En1  v068
 BYTE   W06
 BYTE   Dn1  v108
 BYTE   N01  En1  v068
 BYTE   W06
 BYTE   Dn1  v108
 BYTE   N01  En1  v068
 BYTE   W24
// 013   ----------------------------------------
Label_8_0183B3CB:
// 014   ----------------------------------------
 BYTE   PATT
  POIN2 Label_8_0183B2A4
// 015   ----------------------------------------
 BYTE   PATT
  POIN2 Label_8_0183B2D2
// 016   ----------------------------------------
 BYTE   PATT
  POIN2 Label_8_0183B2D2
// 017   ----------------------------------------
 BYTE   PATT
  POIN2 Label_8_0183B2D2
// 018   ----------------------------------------
 BYTE   PATT
  POIN2 Label_8_0183B2D2
// 019   ----------------------------------------
 BYTE   PATT
  POIN2 Label_8_0183B2D2
// 020   ----------------------------------------
 BYTE   PATT
  POIN2 Label_8_0183B2D2
// 021   ----------------------------------------
 BYTE   PATT
  POIN2 Label_8_0183B346
// 022   ----------------------------------------
 BYTE   PATT
  POIN2 Label_8_0183B2A4
// 023   ----------------------------------------
 BYTE   PATT
  POIN2 Label_8_0183B2D2
// 024   ----------------------------------------
 BYTE   PATT
  POIN2 Label_8_0183B2D2
// 025   ----------------------------------------
 BYTE   PATT
  POIN2 Label_8_0183B2D2
// 026   ----------------------------------------
 BYTE   PATT
  POIN2 Label_8_0183B2D2
// 027   ----------------------------------------
 BYTE   N01  Cn1  v120
 BYTE   N01  As1  v088
 BYTE   W12
 BYTE   Fs1
 BYTE   W06
 BYTE   N01
 BYTE   W06
 BYTE   Cn1  v120
 BYTE   N01  As1  v088
 BYTE   W12
 BYTE   Dn1  v108
 BYTE   N01  En1  v068
 BYTE   W06
 BYTE   Dn1  v108
 BYTE   N01  En1  v068
 BYTE   W06
 BYTE   Dn1  v108
 BYTE   N01  En1  v068
 BYTE   W06
 BYTE   Bn1  v127
 BYTE   W06
 BYTE   An1
 BYTE   W06
 BYTE   Gn1
 BYTE   W06
 BYTE   Cn1  v120
 BYTE   N01  Dn1  v108
 BYTE   N01  En1  v068
 BYTE   W24
// 028   ----------------------------------------
 BYTE   PATT
  POIN2 Label_8_0183B2A4
// 029   ----------------------------------------
 BYTE   PATT
  POIN2 Label_8_0183B2D2
// 030   ----------------------------------------
 BYTE   PATT
  POIN2 Label_8_0183B2D2
// 031   ----------------------------------------
 BYTE   N01  Cn1  v120
 BYTE   W12
 BYTE   Bn1  v127
 BYTE   W06
 BYTE   N01
 BYTE   W06
 BYTE   An1
 BYTE   W06
 BYTE   N01
 BYTE   W06
 BYTE   Gn1
 BYTE   W06
 BYTE   N01
 BYTE   W06
 BYTE   Dn1  v108
 BYTE   N01  En1  v068
 BYTE   W24
 BYTE   Cn1  v120
 BYTE   N01  Cs2  v116
 BYTE   W24
// 032   ----------------------------------------
 BYTE   PATT
  POIN2 Label_8_0183B2D2
// 033   ----------------------------------------
 BYTE   PATT
  POIN2 Label_8_0183B2D2
// 034   ----------------------------------------
 BYTE   PATT
  POIN2 Label_8_0183B2D2
// 035   ----------------------------------------
 BYTE   N01  Cn1  v120
 BYTE   N01  As1  v088
 BYTE   W12
 BYTE   Fs1
 BYTE   W06
 BYTE   N01
 BYTE   W06
 BYTE   Cn1  v120
 BYTE   N01  As1  v088
 BYTE   W12
 BYTE   Fs1
 BYTE   W06
 BYTE   N01
 BYTE   W06
 BYTE   Cn1  v120
 BYTE   W12
 BYTE   Bn1  v127
 BYTE   W06
 BYTE   N01
 BYTE   W06
 BYTE   An1
 BYTE   W06
 BYTE   N01
 BYTE   W06
 BYTE   Gn1
 BYTE   W06
 BYTE   N01
 BYTE   W06
// 036   ----------------------------------------
 BYTE   PATT
  POIN2 Label_8_0183B2A4
// 037   ----------------------------------------
 BYTE   PATT
  POIN2 Label_8_0183B2D2
// 038   ----------------------------------------
 BYTE   PATT
  POIN2 Label_8_0183B2D2
// 039   ----------------------------------------
 BYTE   PATT
  POIN2 Label_8_0183B2D2
// 040   ----------------------------------------
 BYTE   PATT
  POIN2 Label_8_0183B2A4
// 041   ----------------------------------------
 BYTE   PATT
  POIN2 Label_8_0183B2A4
// 042   ----------------------------------------
 BYTE   N01  Cn1  v120
 BYTE   N01  As1  v088
 BYTE   N01  Cs2  v116
 BYTE   W12
 BYTE   Fs1  v088
 BYTE   W06
 BYTE   N01
 BYTE   W06
 BYTE   Cn1  v120
 BYTE   N01  As1  v088
 BYTE   W12
 BYTE   Fs1
 BYTE   W06
 BYTE   N01
 BYTE   W06
 BYTE   Cn1  v120
 BYTE   W12
 BYTE   Dn1  v108
 BYTE   N01  En1  v068
 BYTE   W06
 BYTE   Dn1  v108
 BYTE   N01  En1  v068
 BYTE   W06
 BYTE   Dn1  v108
 BYTE   N01  En1  v068
 BYTE   W06
 BYTE   Dn1  v108
 BYTE   N01  En1  v068
 BYTE   W06
 BYTE   Dn1  v108
 BYTE   N01  En1  v068
 BYTE   W06
 BYTE   Dn1  v108
 BYTE   N01  En1  v068
 BYTE   W06
// 043   ----------------------------------------
 BYTE   Dn1  v108
 BYTE   N01  En1  v068
 BYTE   W60
 BYTE   Bn1  v127
 BYTE   W06
 BYTE   An1
 BYTE   W06
 BYTE   Dn1  v108
 BYTE   N01  En1  v068
 BYTE   W24
// 044   ----------------------------------------
 BYTE   GoTo
  POIN2 Label_8_0183B3CB
 BYTE   FINE

//**************** Track 10 (Midi-Chn.9) ****************//

RomancingSaga3GenJyouBattle7743_010:
// 000   ----------------------------------------
 BYTE   KEYSH   RomancingSaga3GenJyouBattle7743_key+0
 BYTE   VOL   10*RomancingSaga3GenJyouBattle7743_mvl/mxv
 BYTE   PAN   c_v+0
 BYTE   VOICE   18
 BYTE   W96
// 001   ----------------------------------------
 BYTE   W96
// 002   ----------------------------------------
 BYTE   W96
// 003   ----------------------------------------
 BYTE   W54
 BYTE   N03  Cs2  v096
 BYTE   W03
 BYTE   Ds2
 BYTE   N03  Fn2  v068
 BYTE   W03
 BYTE   Fn2  v096
 BYTE   W03
 BYTE   Gs2
 BYTE   N03  As2  v068
 BYTE   W03
 BYTE   Bn2  v096
 BYTE   W03
 BYTE   Cs3
 BYTE   W03
 BYTE   Ds3
 BYTE   N03  Fs3  v068
 BYTE   W03
 BYTE   Fs3  v096
 BYTE   N03  Gs3  v068
 BYTE   W03
 BYTE   Fs3  v096
 BYTE   W03
 BYTE   Gs3
 BYTE   N03  As3  v068
 BYTE   W03
 BYTE   Cn4  v096
 BYTE   W03
 BYTE   Cs4
 BYTE   N03  Ds4  v068
 BYTE   W03
 BYTE   Fs4  v096
 BYTE   W03
 BYTE   Gs4
 BYTE   W03
// 004   ----------------------------------------
 BYTE   An4
 BYTE   W03
 BYTE   Bn4
 BYTE   N03  Cs5  v068
 BYTE   W03
 BYTE   N06  Gs4  v092
 BYTE   N06  Ds5  v120
 BYTE   W06
 BYTE   Fs4  v092
 BYTE   N06  Cs5  v120
 BYTE   W06
 BYTE   Fs4  v032
 BYTE   N06  Cs5
 BYTE   W06
 BYTE   Gs4  v092
 BYTE   N06  Ds5  v120
 BYTE   W06
 BYTE   Gs4  v032
 BYTE   N06  Ds5
 BYTE   W06
 BYTE   Gs4  v092
 BYTE   N06  Ds5  v120
 BYTE   W06
 BYTE   Fs4  v092
 BYTE   N06  Cs5  v120
 BYTE   W06
 BYTE   Fs4  v032
 BYTE   N06  Cs5
 BYTE   W06
 BYTE   Gs4  v092
 BYTE   N06  Ds5  v120
 BYTE   W06
 BYTE   Gs4  v032
 BYTE   N06  Ds5
 BYTE   W06
 BYTE   Fs4  v092
 BYTE   N06  Cs5  v120
 BYTE   W06
 BYTE   Fs4  v032
 BYTE   N06  Cs5
 BYTE   W06
 BYTE   Ds4  v092
 BYTE   N06  Bn4  v120
 BYTE   W06
 BYTE   Ds4  v032
 BYTE   N06  Bn4
 BYTE   W06
 BYTE   Fs4  v092
 BYTE   N06  Cs5  v120
 BYTE   W06
// 005   ----------------------------------------
Label_9_0186117A:
 BYTE   N06  Fs4  v032
 BYTE   N06  Cs5
 BYTE   W06
 BYTE   Gs4  v092
 BYTE   N06  Ds5  v120
 BYTE   W06
 BYTE   Fs4  v092
 BYTE   N06  Cs5  v120
 BYTE   W06
 BYTE   Fs4  v032
 BYTE   N06  Cs5
 BYTE   W06
 BYTE   Gs4  v092
 BYTE   N06  Ds5  v120
 BYTE   W06
 BYTE   Gs4  v032
 BYTE   N06  Ds5
 BYTE   W06
 BYTE   Gs4  v092
 BYTE   N06  Ds5  v120
 BYTE   W06
 BYTE   Fs4  v092
 BYTE   N06  Cs5  v120
 BYTE   W06
 BYTE   Fs4  v032
 BYTE   N06  Cs5
 BYTE   W06
 BYTE   Gs4  v092
 BYTE   N06  Ds5  v120
 BYTE   W06
 BYTE   Gs4  v032
 BYTE   N06  Ds5
 BYTE   W06
 BYTE   Cs5  v092
 BYTE   N06  Fs5  v120
 BYTE   W06
 BYTE   Cs5  v032
 BYTE   N06  Fs5
 BYTE   W06
 BYTE   N24  Ds5  v092
 BYTE   N24  As5  v120
 BYTE   W18
 BYTE   PEND 
// 006   ----------------------------------------
Label_9_018611CB:
 BYTE   W06
 BYTE   N06  Gs4  v092
 BYTE   N06  Ds5  v120
 BYTE   W06
 BYTE   Fs4  v092
 BYTE   N06  Cs5  v120
 BYTE   W06
 BYTE   Fs4  v032
 BYTE   N06  Cs5
 BYTE   W06
 BYTE   Gs4  v092
 BYTE   N06  Ds5  v120
 BYTE   W06
 BYTE   Gs4  v032
 BYTE   N06  Ds5
 BYTE   W06
 BYTE   Gs4  v092
 BYTE   N06  Ds5  v120
 BYTE   W06
 BYTE   Fs4  v092
 BYTE   N06  Cs5  v120
 BYTE   W06
 BYTE   Fs4  v032
 BYTE   N06  Cs5
 BYTE   W06
 BYTE   Gs4  v092
 BYTE   N06  Ds5  v120
 BYTE   W06
 BYTE   Gs4  v032
 BYTE   N06  Ds5
 BYTE   W06
 BYTE   Fs4  v092
 BYTE   N06  Cs5  v120
 BYTE   W06
 BYTE   Fs4  v032
 BYTE   N06  Cs5
 BYTE   W06
 BYTE   Ds4  v092
 BYTE   N06  Bn4  v120
 BYTE   W06
 BYTE   Ds4  v032
 BYTE   N06  Bn4
 BYTE   W06
 BYTE   Fs4  v092
 BYTE   N06  Cs5  v120
 BYTE   W06
 BYTE   PEND 
// 007   ----------------------------------------
 BYTE   PATT
  POIN2 Label_9_0186117A
// 008   ----------------------------------------
 BYTE   PATT
  POIN2 Label_9_018611CB
// 009   ----------------------------------------
 BYTE   PATT
  POIN2 Label_9_0186117A
// 010   ----------------------------------------
 BYTE   PATT
  POIN2 Label_9_018611CB
// 011   ----------------------------------------
 BYTE   N06  Fs4  v032
 BYTE   N06  Cs5
 BYTE   W06
 BYTE   Gs4  v092
 BYTE   N06  Ds5  v120
 BYTE   W06
 BYTE   Fs4  v092
 BYTE   N06  Cs5  v120
 BYTE   W06
 BYTE   Fs4  v032
 BYTE   N06  Cs5
 BYTE   W06
 BYTE   Gs4  v092
 BYTE   N06  Ds5  v120
 BYTE   W06
 BYTE   Gs4  v032
 BYTE   N06  Ds5
 BYTE   W06
 BYTE   Gs4  v092
 BYTE   N06  Ds5  v120
 BYTE   W06
 BYTE   As4  v092
 BYTE   N06  Fs5  v120
 BYTE   W06
 BYTE   As4  v032
 BYTE   N06  Fs5
 BYTE   W06
 BYTE   N24  Ds5  v092
 BYTE   N24  As5  v120
 BYTE   W24
 BYTE   N03  Gs5  v096
 BYTE   W03
 BYTE   Fn5
 BYTE   W03
 BYTE   Dn5
 BYTE   W03
 BYTE   Bn4
 BYTE   N03  Cs5  v068
 BYTE   W03
 BYTE   As4  v096
 BYTE   W03
 BYTE   Fs4
 BYTE   N03  Gs4  v068
 BYTE   W03
// 012   ----------------------------------------
Label_9_01861285:
 BYTE   N03  Fs4  v096
 BYTE   W03
 BYTE   Cs4
 BYTE   N03  Ds4  v068
 BYTE   W92
 BYTE   W01
// 013   ----------------------------------------
 BYTE   W96
// 014   ----------------------------------------
 BYTE   W96
// 015   ----------------------------------------
 BYTE   W96
// 016   ----------------------------------------
 BYTE   W96
// 017   ----------------------------------------
 BYTE   W96
// 018   ----------------------------------------
 BYTE   PATT
  POIN2 Label_9_018611CB
// 019   ----------------------------------------
 BYTE   PATT
  POIN2 Label_9_0186117A
// 020   ----------------------------------------
 BYTE   W96
// 021   ----------------------------------------
 BYTE   W96
// 022   ----------------------------------------
 BYTE   W96
// 023   ----------------------------------------
 BYTE   W96
// 024   ----------------------------------------
 BYTE   W96
// 025   ----------------------------------------
 BYTE   W96
// 026   ----------------------------------------
 BYTE   PATT
  POIN2 Label_9_018611CB
// 027   ----------------------------------------
 BYTE   PATT
  POIN2 Label_9_0186117A
// 028   ----------------------------------------
 BYTE   PATT
  POIN2 Label_9_018611CB
// 029   ----------------------------------------
 BYTE   N06  Fs4  v032
 BYTE   N06  Cs5
 BYTE   W06
 BYTE   Gs4  v092
 BYTE   N06  Ds5  v120
 BYTE   W06
 BYTE   Gs4  v032
 BYTE   N06  Ds5
 BYTE   W06
 BYTE   Fs4  v092
 BYTE   N06  Cs5  v120
 BYTE   W06
 BYTE   Gs4
 BYTE   N06  Ds5
 BYTE   W06
 BYTE   Gs4  v032
 BYTE   N06  Ds5
 BYTE   W06
 BYTE   Fs4  v092
 BYTE   N06  Cs5  v120
 BYTE   W06
 BYTE   As4  v092
 BYTE   N06  Fs5  v120
 BYTE   W06
 BYTE   As4  v032
 BYTE   N06  Fs5
 BYTE   W06
 BYTE   N23  Ds5  v092
 BYTE   N23  As5  v120
 BYTE   W42
// 030   ----------------------------------------
 BYTE   W96
// 031   ----------------------------------------
 BYTE   W96
// 032   ----------------------------------------
 BYTE   W96
// 033   ----------------------------------------
 BYTE   W96
// 034   ----------------------------------------
 BYTE   W96
// 035   ----------------------------------------
 BYTE   W96
// 036   ----------------------------------------
 BYTE   W96
// 037   ----------------------------------------
 BYTE   W96
// 038   ----------------------------------------
 BYTE   W96
// 039   ----------------------------------------
 BYTE   W96
// 040   ----------------------------------------
 BYTE   W96
// 041   ----------------------------------------
 BYTE   W06
 BYTE   N06  Gs4  v092
 BYTE   N06  As4  v088
 BYTE   N06  Ds5  v120
 BYTE   W06
 BYTE   Gn4  v092
 BYTE   N06  Cs5  v120
 BYTE   W06
 BYTE   Gn4  v032
 BYTE   N06  Cs5
 BYTE   W06
 BYTE   Gn4  v092
 BYTE   N06  As4  v088
 BYTE   N06  Ds5  v120
 BYTE   W06
 BYTE   Gn4  v032
 BYTE   N06  As4
 BYTE   N06  Ds5
 BYTE   W06
 BYTE   Gs4  v092
 BYTE   N06  Cs5  v120
 BYTE   W06
 BYTE   Gn4  v092
 BYTE   N06  As4  v088
 BYTE   N06  Ds5  v120
 BYTE   W06
 BYTE   Gn4  v032
 BYTE   N06  As4
 BYTE   N06  Ds5
 BYTE   W06
 BYTE   N24  Gn4  v092
 BYTE   N24  As4  v088
 BYTE   N24  Fs5  v120
 BYTE   W24
 BYTE   N03  Fn5  v096
 BYTE   W03
 BYTE   Cs5
 BYTE   N03  Ds5  v068
 BYTE   W03
 BYTE   Bn4  v096
 BYTE   W03
 BYTE   Gs4
 BYTE   N03  As4  v068
 BYTE   W03
 BYTE   Gs4  v096
 BYTE   W03
 BYTE   Ds4
 BYTE   N03  Fn4  v068
 BYTE   W03
// 042   ----------------------------------------
 BYTE   GoTo
  POIN2 Label_9_01861285
 BYTE   FINE

//**************** Track 11 (Midi-Chn.10) ****************//

RomancingSaga3GenJyouBattle7743_011:
// 000   ----------------------------------------
 BYTE   KEYSH   RomancingSaga3GenJyouBattle7743_key+0
 BYTE   VOL   22*RomancingSaga3GenJyouBattle7743_mvl/mxv
 BYTE   PAN   c_v+0
 BYTE   VOICE   81
 BYTE   W96
// 001   ----------------------------------------
 BYTE   W96
// 002   ----------------------------------------
 BYTE   W96
// 003   ----------------------------------------
 BYTE   W96
// 004   ----------------------------------------
 BYTE   W96
// 005   ----------------------------------------
 BYTE   W96
// 006   ----------------------------------------
 BYTE   W96
// 007   ----------------------------------------
 BYTE   W96
// 008   ----------------------------------------
 BYTE   W96
// 009   ----------------------------------------
 BYTE   W96
// 010   ----------------------------------------
 BYTE   W96
// 011   ----------------------------------------
 BYTE   W96
// 012   ----------------------------------------
Label_10_01861370:
 BYTE   W04
 BYTE   N44  Fs3  v084
 BYTE   N17  Cs4  v100
 BYTE   W18
 BYTE   Ds4
 BYTE   W18
 BYTE   N11  En4
 BYTE   W12
 BYTE   N23  An3  v084
 BYTE   N23  Fs4  v100
 BYTE   W24
 BYTE   Gs3  v084
 BYTE   N23  En4  v100
 BYTE   W20
// 013   ----------------------------------------
 BYTE   W04
 BYTE   N32  Fs3  v084
 BYTE   N32  Ds4  v100
 BYTE   W36
 BYTE   En3  v084
 BYTE   N32  Cs4  v100
 BYTE   W36
 BYTE   N23  Ds3  v084
 BYTE   N23  Bn3  v100
 BYTE   W20
// 014   ----------------------------------------
 BYTE   W04
 BYTE   N44  En3  v084
 BYTE   N17  Cs4  v100
 BYTE   W18
 BYTE   Bn3
 BYTE   W18
 BYTE   N11  Cs4
 BYTE   W12
 BYTE   N23  Cs3  v084
 BYTE   N23  Fs3  v100
 BYTE   W24
 BYTE   En3  v084
 BYTE   N23  Cs4  v100
 BYTE   W20
// 015   ----------------------------------------
 BYTE   W04
 BYTE   N11  Ds3  v084
 BYTE   N92  Bn3  v100
 BYTE   W12
 BYTE   N11  En3  v084
 BYTE   W12
 BYTE   Ds3
 BYTE   W12
 BYTE   N23  Fs3
 BYTE   W24
 BYTE   N11  En3
 BYTE   W12
 BYTE   N23  Ds3
 BYTE   W20
// 016   ----------------------------------------
 BYTE   W04
 BYTE   N44  Dn3
 BYTE   N17  An3  v100
 BYTE   W18
 BYTE   Gs3
 BYTE   W18
 BYTE   N11  An3
 BYTE   W12
 BYTE   N44  Fs3  v084
 BYTE   N44  Cs4  v100
 BYTE   W44
// 017   ----------------------------------------
 BYTE   W04
 BYTE   En3  v084
 BYTE   N17  Bn3  v100
 BYTE   W18
 BYTE   An3
 BYTE   W18
 BYTE   N11  Bn3
 BYTE   W12
 BYTE   N23  Gs3  v084
 BYTE   N23  En4  v100
 BYTE   W24
 BYTE   Bn3  v084
 BYTE   N23  Gs4  v100
 BYTE   W20
// 018   ----------------------------------------
 BYTE   W04
 BYTE   N44  Fs3  v084
 BYTE   TIE  Cs4  v100
 BYTE   W48
 BYTE   N44  En3  v084
 BYTE   W44
// 019   ----------------------------------------
 BYTE   W04
 BYTE   Ds3
 BYTE   W48
 BYTE   Dn3
 BYTE   W44
// 020   ----------------------------------------
 BYTE   W03
 BYTE   EOT
 BYTE   Cs4
 BYTE   W01
 BYTE   N44  Fs3
 BYTE   N17  Cs4  v100
 BYTE   W18
 BYTE   Ds4
 BYTE   W18
 BYTE   N11  En4
 BYTE   W12
 BYTE   N23  An3  v084
 BYTE   N23  Fs4  v100
 BYTE   W24
 BYTE   Gs3  v084
 BYTE   N23  En4  v100
 BYTE   W20
// 021   ----------------------------------------
 BYTE   W04
 BYTE   N11  Fs3  v084
 BYTE   N32  Ds4  v100
 BYTE   W12
 BYTE   N11  Gs3  v084
 BYTE   W12
 BYTE   Fs3
 BYTE   W12
 BYTE   N56  Bn3
 BYTE   N32  Gs4  v100
 BYTE   W36
 BYTE   N23  Fs4
 BYTE   W20
// 022   ----------------------------------------
 BYTE   W04
 BYTE   N32  An3  v084
 BYTE   N32  En4  v100
 BYTE   W36
 BYTE   N56  Cs4  v084
 BYTE   N23  Bn4  v100
 BYTE   W24
 BYTE   N11  An4
 BYTE   W12
 BYTE   N23  Gs4
 BYTE   W20
// 023   ----------------------------------------
 BYTE   W04
 BYTE   N11  Bn3  v084
 BYTE   N32  Fs4  v100
 BYTE   W12
 BYTE   N11  Cs4  v084
 BYTE   W12
 BYTE   Bn3
 BYTE   W12
 BYTE   N32  An3
 BYTE   N32  En4  v100
 BYTE   W36
 BYTE   N23  Bn3  v084
 BYTE   N23  Fs4  v100
 BYTE   W20
// 024   ----------------------------------------
 BYTE   W04
 BYTE   N92  An3  v084
 BYTE   N80  Gs4  v100
 BYTE   W84
 BYTE   N05  Fs4
 BYTE   W06
 BYTE   Gs4
 BYTE   W02
// 025   ----------------------------------------
 BYTE   W04
 BYTE   N68  Bn3  v084
 BYTE   N68  Fs4  v100
 BYTE   W92
// 026   ----------------------------------------
 BYTE   W96
// 027   ----------------------------------------
 BYTE   W96
// 028   ----------------------------------------
 BYTE   W96
// 029   ----------------------------------------
 BYTE   W96
// 030   ----------------------------------------
 BYTE   W96
// 031   ----------------------------------------
 BYTE   W96
// 032   ----------------------------------------
 BYTE   W96
// 033   ----------------------------------------
 BYTE   W96
// 034   ----------------------------------------
 BYTE   W96
// 035   ----------------------------------------
 BYTE   W96
// 036   ----------------------------------------
 BYTE   W96
// 037   ----------------------------------------
 BYTE   W96
// 038   ----------------------------------------
 BYTE   W96
// 039   ----------------------------------------
 BYTE   W96
// 040   ----------------------------------------
 BYTE   W96
// 041   ----------------------------------------
 BYTE   W96
// 042   ----------------------------------------
 BYTE   GoTo
  POIN2 Label_10_01861370
 BYTE   FINE

//******************************************************//
	ALIGN 4

RomancingSaga3GenJyouBattle7743:
	BYTE	11	// NumTrks
	BYTE	0	// NumBlks
	BYTE	RomancingSaga3GenJyouBattle7743_pri	// Priority
	BYTE	RomancingSaga3GenJyouBattle7743_rev	// Reverb.
    
	POIN2	RomancingSaga3GenJyouBattle7743_grp
    
	POIN2	RomancingSaga3GenJyouBattle7743_001
	POIN2	RomancingSaga3GenJyouBattle7743_002
	POIN2	RomancingSaga3GenJyouBattle7743_003
	POIN2	RomancingSaga3GenJyouBattle7743_004
	POIN2	RomancingSaga3GenJyouBattle7743_005
	POIN2	RomancingSaga3GenJyouBattle7743_006
	POIN2	RomancingSaga3GenJyouBattle7743_007
	POIN2	RomancingSaga3GenJyouBattle7743_008
	POIN2	RomancingSaga3GenJyouBattle7743_009
	POIN2	RomancingSaga3GenJyouBattle7743_010
	POIN2	RomancingSaga3GenJyouBattle7743_011

	
