//Event file generated from Sappy .s format.
	#include "MPlayDef.event"

	#define	RomancingSaga3TheLastBattle7743_grp  voicegroup000
	#define	RomancingSaga3TheLastBattle7743_pri  0
	#define	RomancingSaga3TheLastBattle7743_rev  0
	#define	RomancingSaga3TheLastBattle7743_mvl  127
	#define	RomancingSaga3TheLastBattle7743_key  0
	#define	RomancingSaga3TheLastBattle7743_tbs  1
	#define	RomancingSaga3TheLastBattle7743_exg  0
	#define	RomancingSaga3TheLastBattle7743_cmp  1

	// .rodata
	//	RomancingSaga3TheLastBattle7743
	ALIGN 4


//**************** Track 1 (Midi-Chn.0) ****************//

RomancingSaga3TheLastBattle7743_001:
// 000   ----------------------------------------
 BYTE   KEYSH   RomancingSaga3TheLastBattle7743_key+0
 BYTE   TEMPO   130*RomancingSaga3TheLastBattle7743_tbs/2
 BYTE   VOL   60*RomancingSaga3TheLastBattle7743_mvl/mxv
 BYTE   VOICE   48
Label_0_01859A18:
 BYTE   N32  Cn4  v100
 BYTE   W36
 BYTE   N05  En4
 BYTE   W06
 BYTE   Fn4
 BYTE   W06
 BYTE   N90  Gn4
 BYTE   W48
// 001   ----------------------------------------
Label_0_01859A24:
 BYTE   W48
 BYTE   N16  Gs4  v100
 BYTE   W18
 BYTE   Gn4
 BYTE   W18
 BYTE   N10  Fn4
 BYTE   W12
 BYTE   PEND 
// 002   ----------------------------------------
 BYTE   N05  En4
 BYTE   W06
 BYTE   Fn4
 BYTE   W06
 BYTE   N84  Gn4
 BYTE   W84
// 003   ----------------------------------------
 BYTE   W42
 BYTE   W01
 BYTE   EOT
 BYTE   W05
 BYTE   N16  Gs4
 BYTE   W18
 BYTE   Fn4
 BYTE   W18
 BYTE   N10  Cs5
 BYTE   W12
// 004   ----------------------------------------
 BYTE   N32  Cn5
 BYTE   W36
 BYTE   N05  Gn4
 BYTE   W06
 BYTE   Gs4
 BYTE   W06
 BYTE   N90  As4
 BYTE   W48
 BYTE   PATT
  POIN2 Label_0_01859A24
// 005   ----------------------------------------
 BYTE   N32  Gn4  v100
 BYTE   W36
 BYTE   N05  En4
 BYTE   W06
 BYTE   Fn4
 BYTE   W06
 BYTE   N90  Gn4
 BYTE   W48
// 006   ----------------------------------------
 BYTE   W48
 BYTE   N16  Gs4
 BYTE   W18
 BYTE   Cs5
 BYTE   W18
 BYTE   N10  Fn5
 BYTE   W12
// 007   ----------------------------------------
 BYTE   N84  En5
 BYTE   W96
// 008   ----------------------------------------
 BYTE   TEMPO   160*RomancingSaga3TheLastBattle7743_tbs/2
 BYTE   W84
 BYTE   W02
 BYTE   EOT
 BYTE   W10
// 009   ----------------------------------------
Label_0_01859A71:
 BYTE   N05  Gn3  v100
 BYTE   W06
 BYTE   Cn4
 BYTE   W06
 BYTE   Ds4
 BYTE   W06
 BYTE   Gn4
 BYTE   W06
 BYTE   N64  Cn5
 BYTE   W72
 BYTE   PEND 
// 010   ----------------------------------------
 BYTE   W96
 BYTE   PATT
  POIN2 Label_0_01859A71
// 011   ----------------------------------------
 BYTE   W96
// 012   ----------------------------------------
Label_0_01859A86:
 BYTE   N05  Cn4  v100
 BYTE   W06
 BYTE   Gn3
 BYTE   W06
 BYTE   Cn4
 BYTE   W06
 BYTE   Gn4
 BYTE   W30
 BYTE   Cn4
 BYTE   W06
 BYTE   Gn3
 BYTE   W06
 BYTE   Cn4
 BYTE   W06
 BYTE   Gn4
 BYTE   W30
 BYTE   PEND 
 BYTE   PATT
  POIN2 Label_0_01859A86
 BYTE   PATT
  POIN2 Label_0_01859A86
// 013   ----------------------------------------
 BYTE   N05  Cn4  v100
 BYTE   W06
 BYTE   Gn3
 BYTE   W06
 BYTE   Cn4
 BYTE   W06
 BYTE   Gn4
 BYTE   W30
 BYTE   Cn4
 BYTE   W04
 BYTE   W02
 BYTE   N05  Gn3
 BYTE   W06
 BYTE   Cn4
 BYTE   W06
 BYTE   Gn4
 BYTE   W30
// 014   ----------------------------------------
 BYTE   N42  Gs4
 BYTE   W48
 BYTE   N16  Dn4
 BYTE   W18
 BYTE   Ds4
 BYTE   W18
 BYTE   N10  Fn4
 BYTE   W12
// 015   ----------------------------------------
 BYTE   N84  Gn4
 BYTE   W96
// 016   ----------------------------------------
 BYTE   N42  Fn4
 BYTE   W48
 BYTE   N16  Bn3
 BYTE   W18
 BYTE   Cn4
 BYTE   W18
 BYTE   N10  Dn4
 BYTE   W12
// 017   ----------------------------------------
 BYTE   N84  Ds4
 BYTE   W96
// 018   ----------------------------------------
 BYTE   N32  Cn4
 BYTE   W36
 BYTE   N05  As3
 BYTE   W06
 BYTE   Gs3
 BYTE   W06
 BYTE   N16  Cn4
 BYTE   W18
 BYTE   Dn4
 BYTE   W18
 BYTE   N10  Ds4
 BYTE   W12
// 019   ----------------------------------------
 BYTE   N32  Cn4
 BYTE   W36
 BYTE   N05  As3
 BYTE   W06
 BYTE   Gn3
 BYTE   W06
 BYTE   N16  Cn4
 BYTE   W18
 BYTE   Dn4
 BYTE   W18
 BYTE   N10  Ds4
 BYTE   W12
// 020   ----------------------------------------
 BYTE   N16  Fn4
 BYTE   W18
 BYTE   Ds4
 BYTE   W18
 BYTE   N10  Dn4
 BYTE   W12
 BYTE   N42  Gn4
 BYTE   W48
// 021   ----------------------------------------
 BYTE   N16  Gs4
 BYTE   W18
 BYTE   Gn4
 BYTE   W18
 BYTE   N10  Fn4
 BYTE   W12
 BYTE   N21  Gn4
 BYTE   W24
 BYTE   Bn4
 BYTE   W24
// 022   ----------------------------------------
 BYTE   N84  Cn5
 BYTE   W96
// 023   ----------------------------------------
 BYTE   W96
// 024   ----------------------------------------
 BYTE   W84
 BYTE   W02
 BYTE   EOT
 BYTE   W10
// 025   ----------------------------------------
 BYTE   W96
// 026   ----------------------------------------
 BYTE   W96
// 027   ----------------------------------------
 BYTE   W96
// 028   ----------------------------------------
 BYTE   W96
// 029   ----------------------------------------
 BYTE   W96
// 030   ----------------------------------------
 BYTE   W96
// 031   ----------------------------------------
 BYTE   W96
// 032   ----------------------------------------
 BYTE   W96
// 033   ----------------------------------------
 BYTE   W96
// 034   ----------------------------------------
 BYTE   W96
// 035   ----------------------------------------
 BYTE   W96
// 036   ----------------------------------------
 BYTE   W96
// 037   ----------------------------------------
 BYTE   W96
// 038   ----------------------------------------
 BYTE   W96
// 039   ----------------------------------------
 BYTE   W96
// 040   ----------------------------------------
 BYTE   W96
// 041   ----------------------------------------
 BYTE   W96
// 042   ----------------------------------------
 BYTE   W96
// 043   ----------------------------------------
 BYTE   W96
// 044   ----------------------------------------
 BYTE   W96
// 045   ----------------------------------------
 BYTE   W96
// 046   ----------------------------------------
 BYTE   W96
// 047   ----------------------------------------
 BYTE   W96
// 048   ----------------------------------------
 BYTE   W96
// 049   ----------------------------------------
 BYTE   W96
// 050   ----------------------------------------
 BYTE   W96
// 051   ----------------------------------------
 BYTE   W96
// 052   ----------------------------------------
 BYTE   W96
// 053   ----------------------------------------
 BYTE   W96
// 054   ----------------------------------------
 BYTE   W96
// 055   ----------------------------------------
 BYTE   W96
// 056   ----------------------------------------
 BYTE   W96
// 057   ----------------------------------------
 BYTE   W96
// 058   ----------------------------------------
 BYTE   W96
// 059   ----------------------------------------
 BYTE   W96
// 060   ----------------------------------------
 BYTE   W96
// 061   ----------------------------------------
 BYTE   W96
// 062   ----------------------------------------
 BYTE   W96
// 063   ----------------------------------------
 BYTE   W96
// 064   ----------------------------------------
 BYTE   W96
// 065   ----------------------------------------
 BYTE   W96
// 066   ----------------------------------------
 BYTE   W96
// 067   ----------------------------------------
 BYTE   W96
// 068   ----------------------------------------
 BYTE   W96
// 069   ----------------------------------------
 BYTE   W96
// 070   ----------------------------------------
 BYTE   W96
// 071   ----------------------------------------
 BYTE   W96
// 072   ----------------------------------------
 BYTE   W96
// 073   ----------------------------------------
 BYTE   W96
// 074   ----------------------------------------
 BYTE   W96
// 075   ----------------------------------------
 BYTE   W96
// 076   ----------------------------------------
 BYTE   W96
// 077   ----------------------------------------
 BYTE   W96
// 078   ----------------------------------------
 BYTE   W96
// 079   ----------------------------------------
 BYTE   GoTo
  POIN2 Label_0_01859A18
// 080   ----------------------------------------
 BYTE   W96
 BYTE   FINE

//**************** Track 2 (Midi-Chn.1) ****************//

RomancingSaga3TheLastBattle7743_002:
// 000   ----------------------------------------
 BYTE   KEYSH   RomancingSaga3TheLastBattle7743_key+0
 BYTE   VOL   40*RomancingSaga3TheLastBattle7743_mvl/mxv
 BYTE   VOICE   48
Label_1_01859B56:
 BYTE   N32  Cn3  v100
 BYTE   W36
 BYTE   N05  En3
 BYTE   W06
 BYTE   Fn3
 BYTE   W06
 BYTE   N90  Gn3
 BYTE   W48
// 001   ----------------------------------------
Label_1_01859B62:
 BYTE   W48
 BYTE   N16  Gs3  v100
 BYTE   W18
 BYTE   Gn3
 BYTE   W18
 BYTE   N10  Fn3
 BYTE   W12
 BYTE   PEND 
// 002   ----------------------------------------
 BYTE   N05  En3
 BYTE   W06
 BYTE   Fn3
 BYTE   W06
 BYTE   N84  Gn3
 BYTE   W84
// 003   ----------------------------------------
 BYTE   W42
 BYTE   W01
 BYTE   EOT
 BYTE   W05
 BYTE   N16  Gs3
 BYTE   W18
 BYTE   Fn3
 BYTE   W18
 BYTE   N10  Cs4
 BYTE   W12
// 004   ----------------------------------------
 BYTE   N32  Cn4
 BYTE   W36
 BYTE   N05  Gn3
 BYTE   W06
 BYTE   Gs3
 BYTE   W06
 BYTE   N90  As3
 BYTE   W48
 BYTE   PATT
  POIN2 Label_1_01859B62
// 005   ----------------------------------------
 BYTE   N32  Gn3  v100
 BYTE   W36
 BYTE   N05  En3
 BYTE   W06
 BYTE   Fn3
 BYTE   W06
 BYTE   N90  Gn3
 BYTE   W48
// 006   ----------------------------------------
 BYTE   W48
 BYTE   N16  Gs3
 BYTE   W18
 BYTE   Cs4
 BYTE   W18
 BYTE   N10  Fn4
 BYTE   W12
// 007   ----------------------------------------
 BYTE   N84  En4
 BYTE   W96
// 008   ----------------------------------------
 BYTE   W84
 BYTE   W02
 BYTE   EOT
 BYTE   W10
// 009   ----------------------------------------
 BYTE   W96
// 010   ----------------------------------------
Label_1_01859BAE:
 BYTE   N05  Gn3  v100
 BYTE   W06
 BYTE   Cn4
 BYTE   W06
 BYTE   Ds4
 BYTE   W06
 BYTE   Gn4
 BYTE   W06
 BYTE   N64  Cn5
 BYTE   W72
 BYTE   PEND 
// 011   ----------------------------------------
 BYTE   W96
 BYTE   PATT
  POIN2 Label_1_01859BAE
// 012   ----------------------------------------
Label_1_01859BC2:
 BYTE   W24
 BYTE   N05  Cn4  v100
 BYTE   W06
 BYTE   Gn3
 BYTE   W06
 BYTE   Cn4
 BYTE   W06
 BYTE   Gn4
 BYTE   W30
 BYTE   Cn4
 BYTE   W06
 BYTE   Gn3
 BYTE   W06
 BYTE   Cn4
 BYTE   W06
 BYTE   Gn4
 BYTE   W06
 BYTE   PEND 
 BYTE   PATT
  POIN2 Label_1_01859BC2
 BYTE   PATT
  POIN2 Label_1_01859BC2
 BYTE   PATT
  POIN2 Label_1_01859BC2
// 013   ----------------------------------------
 BYTE   N42  Cn4  v100
 BYTE   W48
 BYTE   Gs3
 BYTE   W48
// 014   ----------------------------------------
 BYTE   N21  As3
 BYTE   W24
 BYTE   Dn4
 BYTE   W24
 BYTE   Cn4
 BYTE   W24
 BYTE   As3
 BYTE   W24
// 015   ----------------------------------------
 BYTE   N42  Gs3
 BYTE   W48
 BYTE   Fn3
 BYTE   W48
// 016   ----------------------------------------
 BYTE   N21  Gn3
 BYTE   W24
 BYTE   As3
 BYTE   W24
 BYTE   Gs3
 BYTE   W24
 BYTE   Gn3
 BYTE   W24
// 017   ----------------------------------------
Label_1_01859C02:
 BYTE   N64  Ds3  v100
 BYTE   W66
 BYTE   N16  Fn3
 BYTE   W18
 BYTE   N10  Gn3
 BYTE   W12
 BYTE   PEND 
 BYTE   PATT
  POIN2 Label_1_01859C02
// 018   ----------------------------------------
 BYTE   N42  Gs3  v100
 BYTE   W48
 BYTE   As3
 BYTE   W48
// 019   ----------------------------------------
 BYTE   Cn4
 BYTE   W96
// 020   ----------------------------------------
 BYTE   W96
// 021   ----------------------------------------
 BYTE   W96
// 022   ----------------------------------------
 BYTE   W96
// 023   ----------------------------------------
 BYTE   W96
// 024   ----------------------------------------
Label_1_01859C1E:
 BYTE   N42  Ds3  v100
 BYTE   W48
 BYTE   Fn3
 BYTE   W48
 BYTE   PEND 
// 025   ----------------------------------------
Label_1_01859C25:
 BYTE   N32  Gn3  v100
 BYTE   W36
 BYTE   Fn3
 BYTE   W36
 BYTE   N21  Ds3
 BYTE   W24
 BYTE   PEND 
// 026   ----------------------------------------
Label_1_01859C2F:
 BYTE   N42  Dn3  v100
 BYTE   W48
 BYTE   Fn3
 BYTE   W48
 BYTE   PEND 
// 027   ----------------------------------------
Label_1_01859C36:
 BYTE   N42  Ds3  v100
 BYTE   W48
 BYTE   Dn3
 BYTE   W48
 BYTE   PEND 
// 028   ----------------------------------------
 BYTE   N84  Cs3
 BYTE   W96
// 029   ----------------------------------------
Label_1_01859C40:
 BYTE   N21  En3  v100
 BYTE   W24
 BYTE   Fn3
 BYTE   W24
 BYTE   En3
 BYTE   W24
 BYTE   Cs3
 BYTE   W24
 BYTE   PEND 
// 030   ----------------------------------------
Label_1_01859C4B:
 BYTE   N42  Gn3  v100
 BYTE   W48
 BYTE   Fn3
 BYTE   W48
 BYTE   PEND 
// 031   ----------------------------------------
 BYTE   En3
 BYTE   W48
 BYTE   Fn3
 BYTE   W48
// 032   ----------------------------------------
Label_1_01859C56:
 BYTE   N21  Gs3  v100
 BYTE   W24
 BYTE   Fn3
 BYTE   W24
 BYTE   Gn3
 BYTE   W24
 BYTE   Gs3
 BYTE   W24
 BYTE   PEND 
// 033   ----------------------------------------
 BYTE   Gn3
 BYTE   W24
 BYTE   Fn3
 BYTE   W24
 BYTE   Gs3
 BYTE   W24
 BYTE   Gn3
 BYTE   W24
 BYTE   PATT
  POIN2 Label_1_01859C4B
// 034   ----------------------------------------
 BYTE   N42  Fn3  v100
 BYTE   W48
 BYTE   N16  En3
 BYTE   W18
 BYTE   Fn3
 BYTE   W18
 BYTE   N10  Gn3
 BYTE   W12
// 035   ----------------------------------------
 BYTE   N64  Gs3
 BYTE   W72
 BYTE   N21  Gn3
 BYTE   W24
// 036   ----------------------------------------
 BYTE   Fs3
 BYTE   W24
 BYTE   Ds3
 BYTE   W24
 BYTE   Dn3
 BYTE   W24
 BYTE   Cn3
 BYTE   W24
// 037   ----------------------------------------
 BYTE   N05  Gn3
 BYTE   W06
 BYTE   Dn3
 BYTE   W06
 BYTE   Gn3
 BYTE   W06
 BYTE   Bn3
 BYTE   W06
 BYTE   Dn4
 BYTE   W06
 BYTE   Bn3
 BYTE   W06
 BYTE   Dn4
 BYTE   W06
 BYTE   Gn4
 BYTE   W06
 BYTE   Gs3
 BYTE   W06
 BYTE   Ds3
 BYTE   W06
 BYTE   Gs3
 BYTE   W06
 BYTE   Cn4
 BYTE   W06
 BYTE   Ds4
 BYTE   W06
 BYTE   Cn4
 BYTE   W06
 BYTE   Ds4
 BYTE   W06
 BYTE   Gs4
 BYTE   W06
// 038   ----------------------------------------
 BYTE   Gn4
 BYTE   W48
 BYTE   N16  Bn2
 BYTE   W18
 BYTE   Cn3
 BYTE   W18
 BYTE   N10  Dn3
 BYTE   W12
 BYTE   PATT
  POIN2 Label_1_01859C1E
 BYTE   PATT
  POIN2 Label_1_01859C25
 BYTE   PATT
  POIN2 Label_1_01859C2F
 BYTE   PATT
  POIN2 Label_1_01859C36
// 039   ----------------------------------------
 BYTE   N84  Cs3  v100
 BYTE   W96
 BYTE   PATT
  POIN2 Label_1_01859C40
 BYTE   PATT
  POIN2 Label_1_01859C4B
// 040   ----------------------------------------
 BYTE   N42  En3  v100
 BYTE   W48
 BYTE   Fn3
 BYTE   W48
 BYTE   PATT
  POIN2 Label_1_01859C56
// 041   ----------------------------------------
 BYTE   N21  Gn3  v100
 BYTE   W24
 BYTE   Dn4
 BYTE   W24
 BYTE   Cn4
 BYTE   W24
 BYTE   Bn3
 BYTE   W24
// 042   ----------------------------------------
 BYTE   N42  Cn4
 BYTE   W48
 BYTE   As3
 BYTE   W48
// 043   ----------------------------------------
 BYTE   N21  Gs3
 BYTE   W24
 BYTE   Gn3
 BYTE   W24
 BYTE   Gs3
 BYTE   W24
 BYTE   As3
 BYTE   W24
// 044   ----------------------------------------
 BYTE   N42  Gs3
 BYTE   W48
 BYTE   An3
 BYTE   W48
// 045   ----------------------------------------
 BYTE   N05  Bn3
 BYTE   W06
 BYTE   Gn3
 BYTE   W06
 BYTE   Bn3
 BYTE   W06
 BYTE   Dn4
 BYTE   W06
 BYTE   N10  Gn4
 BYTE   W72
// 046   ----------------------------------------
 BYTE   W24
 BYTE   N21  Ds3
 BYTE   W24
 BYTE   N16  Fn3
 BYTE   W18
 BYTE   Ds3
 BYTE   W18
 BYTE   N10  Dn3
 BYTE   W12
// 047   ----------------------------------------
 BYTE   W24
 BYTE   N21  Ds3
 BYTE   W24
 BYTE   N16  Gs3
 BYTE   W18
 BYTE   Gn3
 BYTE   W18
 BYTE   N10  Fn3
 BYTE   W12
// 048   ----------------------------------------
Label_1_01859D21:
 BYTE   N05  Ds3  v100
 BYTE   W06
 BYTE   Cn3
 BYTE   W06
 BYTE   Ds3
 BYTE   W06
 BYTE   Gn3
 BYTE   W06
 BYTE   Cn4
 BYTE   W06
 BYTE   Gn3
 BYTE   W06
 BYTE   Cn4
 BYTE   W06
 BYTE   Ds4
 BYTE   W06
 BYTE   Gn4
 BYTE   W06
 BYTE   Cn5
 BYTE   W06
 BYTE   Gn4
 BYTE   W06
 BYTE   Ds4
 BYTE   W06
 BYTE   Cn4
 BYTE   W06
 BYTE   Ds4
 BYTE   W06
 BYTE   Cn4
 BYTE   W06
 BYTE   Gn3
 BYTE   W06
 BYTE   PEND 
// 049   ----------------------------------------
 BYTE   W96
// 050   ----------------------------------------
Label_1_01859D45:
 BYTE   N42  Ds3  v100
 BYTE   W48
 BYTE   N16  Fn3
 BYTE   W18
 BYTE   Cn3
 BYTE   W18
 BYTE   N10  Dn3
 BYTE   W12
 BYTE   PEND 
// 051   ----------------------------------------
Label_1_01859D52:
 BYTE   N21  Ds3  v100
 BYTE   W24
 BYTE   Fn3
 BYTE   W24
 BYTE   Ds3
 BYTE   W24
 BYTE   Dn3
 BYTE   W24
 BYTE   PEND 
// 052   ----------------------------------------
Label_1_01859D5D:
 BYTE   N42  Cn3  v100
 BYTE   W48
 BYTE   N16  Dn3
 BYTE   W18
 BYTE   Ds3
 BYTE   W18
 BYTE   N10  Bn2
 BYTE   W12
 BYTE   PEND 
// 053   ----------------------------------------
Label_1_01859D6A:
 BYTE   N21  Cn3  v100
 BYTE   W24
 BYTE   Dn3
 BYTE   W24
 BYTE   Cn3
 BYTE   W24
 BYTE   As2
 BYTE   W24
 BYTE   PEND 
// 054   ----------------------------------------
Label_1_01859D75:
 BYTE   N05  Gs3  v100
 BYTE   W06
 BYTE   Ds3
 BYTE   W06
 BYTE   Gs3
 BYTE   W06
 BYTE   Cn4
 BYTE   W06
 BYTE   Ds4
 BYTE   W06
 BYTE   Cn4
 BYTE   W06
 BYTE   Ds4
 BYTE   W06
 BYTE   Gs4
 BYTE   W06
 BYTE   Gs3
 BYTE   W06
 BYTE   Ds3
 BYTE   W06
 BYTE   Gs3
 BYTE   W06
 BYTE   Cn4
 BYTE   W06
 BYTE   Ds4
 BYTE   W06
 BYTE   Cn4
 BYTE   W06
 BYTE   Ds4
 BYTE   W06
 BYTE   Gs4
 BYTE   W06
 BYTE   PEND 
// 055   ----------------------------------------
Label_1_01859D98:
 BYTE   N05  Gn3  v100
 BYTE   W06
 BYTE   Ds3
 BYTE   W06
 BYTE   Gn3
 BYTE   W06
 BYTE   Cn4
 BYTE   W06
 BYTE   Ds4
 BYTE   W06
 BYTE   Cn4
 BYTE   W06
 BYTE   Ds4
 BYTE   W06
 BYTE   Gn4
 BYTE   W06
 BYTE   Gn3
 BYTE   W06
 BYTE   Ds3
 BYTE   W06
 BYTE   Gn3
 BYTE   W06
 BYTE   Cn4
 BYTE   W06
 BYTE   Ds4
 BYTE   W06
 BYTE   Cn4
 BYTE   W06
 BYTE   Ds4
 BYTE   W06
 BYTE   Gn4
 BYTE   W06
 BYTE   PEND 
// 056   ----------------------------------------
 BYTE   Fn3
 BYTE   W06
 BYTE   Dn3
 BYTE   W06
 BYTE   Fn3
 BYTE   W06
 BYTE   Gs3
 BYTE   W06
 BYTE   Dn4
 BYTE   W06
 BYTE   Gs3
 BYTE   W06
 BYTE   Dn4
 BYTE   W06
 BYTE   Fn4
 BYTE   W06
 BYTE   Gn3
 BYTE   W06
 BYTE   Dn3
 BYTE   W06
 BYTE   Gn3
 BYTE   W06
 BYTE   Bn3
 BYTE   W06
 BYTE   Dn4
 BYTE   W06
 BYTE   Bn3
 BYTE   W06
 BYTE   Dn4
 BYTE   W06
 BYTE   Gn4
 BYTE   W06
// 057   ----------------------------------------
 BYTE   N16  Fn4
 BYTE   W18
 BYTE   Cn4
 BYTE   W18
 BYTE   N10  Gn3
 BYTE   W12
 BYTE   N05  En3
 BYTE   W06
 BYTE   Cn3
 BYTE   W06
 BYTE   En3
 BYTE   W06
 BYTE   Gn3
 BYTE   W06
 BYTE   Cn4
 BYTE   W06
 BYTE   Gn3
 BYTE   W06
 BYTE   Cn4
 BYTE   W06
 BYTE   En4
 BYTE   W06
 BYTE   PATT
  POIN2 Label_1_01859D45
 BYTE   PATT
  POIN2 Label_1_01859D52
 BYTE   PATT
  POIN2 Label_1_01859D5D
 BYTE   PATT
  POIN2 Label_1_01859D6A
 BYTE   PATT
  POIN2 Label_1_01859D75
 BYTE   PATT
  POIN2 Label_1_01859D98
// 058   ----------------------------------------
 BYTE   N42  Cn3  v100
 BYTE   W48
 BYTE   Ds3
 BYTE   W48
// 059   ----------------------------------------
 BYTE   Fn3
 BYTE   W96
// 060   ----------------------------------------
 BYTE   Ds3
 BYTE   W48
 BYTE   N16  Fn3
 BYTE   W18
 BYTE   Ds3
 BYTE   W18
 BYTE   N10  Dn3
 BYTE   W12
// 061   ----------------------------------------
 BYTE   N42  Ds3
 BYTE   W48
 BYTE   N16  Gs3
 BYTE   W18
 BYTE   Gn3
 BYTE   W18
 BYTE   N10  Fn3
 BYTE   W12
 BYTE   PATT
  POIN2 Label_1_01859D21
// 062   ----------------------------------------
 BYTE   GoTo
  POIN2 Label_1_01859B56
// 063   ----------------------------------------
 BYTE   W96
 BYTE   FINE

//**************** Track 3 (Midi-Chn.2) ****************//

RomancingSaga3TheLastBattle7743_003:
// 000   ----------------------------------------
 BYTE   KEYSH   RomancingSaga3TheLastBattle7743_key+0
 BYTE   VOL   20*RomancingSaga3TheLastBattle7743_mvl/mxv
 BYTE   VOICE   48
Label_2_01859E42:
 BYTE   N84  Cn2  v100
 BYTE   W96
// 001   ----------------------------------------
 BYTE   Cs2
 BYTE   W96
// 002   ----------------------------------------
 BYTE   Cn2
 BYTE   W96
// 003   ----------------------------------------
 BYTE   Cs2
 BYTE   W96
// 004   ----------------------------------------
 BYTE   Cn2
 BYTE   W96
// 005   ----------------------------------------
 BYTE   Cs2
 BYTE   W96
// 006   ----------------------------------------
 BYTE   Cn2
 BYTE   W96
// 007   ----------------------------------------
 BYTE   Cs2
 BYTE   W96
// 008   ----------------------------------------
 BYTE   N84  Cn2
 BYTE   W96
// 009   ----------------------------------------
 BYTE   W84
 BYTE   W02
 BYTE   EOT
 BYTE   W10
// 010   ----------------------------------------
 BYTE   W96
// 011   ----------------------------------------
 BYTE   W96
// 012   ----------------------------------------
 BYTE   W96
// 013   ----------------------------------------
 BYTE   W96
// 014   ----------------------------------------
 BYTE   W96
// 015   ----------------------------------------
 BYTE   W96
// 016   ----------------------------------------
 BYTE   W96
// 017   ----------------------------------------
 BYTE   W96
// 018   ----------------------------------------
 BYTE   N21  Fn3
 BYTE   W24
 BYTE   Ds3
 BYTE   W24
 BYTE   N42  Fn3
 BYTE   W48
// 019   ----------------------------------------
 BYTE   N84  Ds3
 BYTE   W96
// 020   ----------------------------------------
 BYTE   N21  Dn3
 BYTE   W24
 BYTE   Cn3
 BYTE   W24
 BYTE   N42  Dn3
 BYTE   W48
// 021   ----------------------------------------
 BYTE   N84  Cn3
 BYTE   W96
// 022   ----------------------------------------
 BYTE   N64  Gs2
 BYTE   W66
 BYTE   N16  As2
 BYTE   W18
 BYTE   N10  Cn3
 BYTE   W12
// 023   ----------------------------------------
 BYTE   N64  Gn2
 BYTE   W66
 BYTE   N16  As2
 BYTE   W18
 BYTE   N10  Cn3
 BYTE   W12
// 024   ----------------------------------------
 BYTE   N42
 BYTE   W48
 BYTE   Ds3
 BYTE   W48
// 025   ----------------------------------------
 BYTE   Fn3
 BYTE   W96
// 026   ----------------------------------------
 BYTE   W84
 BYTE   W12
// 027   ----------------------------------------
 BYTE   W96
// 028   ----------------------------------------
 BYTE   W76
 BYTE   W20
// 029   ----------------------------------------
 BYTE   W96
// 030   ----------------------------------------
Label_2_01859E97:
 BYTE   N42  Gn2  v100
 BYTE   W48
 BYTE   Gs2
 BYTE   W48
 BYTE   PEND 
// 031   ----------------------------------------
Label_2_01859E9E:
 BYTE   N32  As2  v100
 BYTE   W36
 BYTE   Gs2
 BYTE   W36
 BYTE   N21  Gn2
 BYTE   W24
 BYTE   PEND 
 BYTE   PATT
  POIN2 Label_2_01859E97
// 032   ----------------------------------------
Label_2_01859EAD:
 BYTE   N42  Gn2  v100
 BYTE   W48
 BYTE   Fn2
 BYTE   W48
 BYTE   PEND 
// 033   ----------------------------------------
 BYTE   N84
 BYTE   W96
// 034   ----------------------------------------
Label_2_01859EB6:
 BYTE   N21  Gn2  v100
 BYTE   W24
 BYTE   Gs2
 BYTE   W24
 BYTE   N42  Gn2
 BYTE   W48
 BYTE   PEND 
// 035   ----------------------------------------
Label_2_01859EC0:
 BYTE   N42  As2  v100
 BYTE   W48
 BYTE   Gs2
 BYTE   W48
 BYTE   PEND 
 BYTE   PATT
  POIN2 Label_2_01859E97
// 036   ----------------------------------------
 BYTE   N84  Cn3  v100
 BYTE   W96
// 037   ----------------------------------------
 BYTE   Bn2
 BYTE   W96
// 038   ----------------------------------------
 BYTE   N42  Cn3
 BYTE   W48
 BYTE   Bn2
 BYTE   W48
// 039   ----------------------------------------
 BYTE   As2
 BYTE   W48
 BYTE   N16  Gn2
 BYTE   W18
 BYTE   As2
 BYTE   W18
 BYTE   N10  Cn3
 BYTE   W12
// 040   ----------------------------------------
 BYTE   N84
 BYTE   W96
// 041   ----------------------------------------
 BYTE   N42  An2
 BYTE   W48
 BYTE   Fs2
 BYTE   W48
// 042   ----------------------------------------
 BYTE   N10  Bn2
 BYTE   W12
 BYTE   Dn3
 BYTE   W12
 BYTE   Gn3
 BYTE   W12
 BYTE   Bn3
 BYTE   W12
 BYTE   Cn3
 BYTE   W12
 BYTE   Ds3
 BYTE   W12
 BYTE   Gs3
 BYTE   W12
 BYTE   Cn4
 BYTE   W12
// 043   ----------------------------------------
 BYTE   Bn3
 BYTE   W48
 BYTE   N16  Dn2
 BYTE   W18
 BYTE   Fn2
 BYTE   W18
 BYTE   N10  Gn2
 BYTE   W12
 BYTE   PATT
  POIN2 Label_2_01859E97
 BYTE   PATT
  POIN2 Label_2_01859E9E
 BYTE   PATT
  POIN2 Label_2_01859E97
 BYTE   PATT
  POIN2 Label_2_01859EAD
// 044   ----------------------------------------
 BYTE   N84  Fn2  v100
 BYTE   W96
 BYTE   PATT
  POIN2 Label_2_01859EB6
 BYTE   PATT
  POIN2 Label_2_01859EC0
 BYTE   PATT
  POIN2 Label_2_01859E97
// 045   ----------------------------------------
 BYTE   N84  Cn3  v100
 BYTE   W96
// 046   ----------------------------------------
 BYTE   N21  Bn2
 BYTE   W24
 BYTE   Fn3
 BYTE   W24
 BYTE   Ds3
 BYTE   W24
 BYTE   Dn3
 BYTE   W24
// 047   ----------------------------------------
 BYTE   N42  Ds3
 BYTE   W48
 BYTE   Cs3
 BYTE   W48
// 048   ----------------------------------------
 BYTE   Cn3
 BYTE   W48
 BYTE   N21  Dn3
 BYTE   W24
 BYTE   En3
 BYTE   W24
// 049   ----------------------------------------
 BYTE   N42  Cn3
 BYTE   W48
 BYTE   Dn3
 BYTE   W48
// 050   ----------------------------------------
 BYTE   N10
 BYTE   W12
 BYTE   Gn3
 BYTE   W12
 BYTE   Bn3
 BYTE   W72
// 051   ----------------------------------------
 BYTE   W24
 BYTE   N21  Gn2
 BYTE   W24
 BYTE   N16  Gs2
 BYTE   W18
 BYTE   Gn2
 BYTE   W18
 BYTE   N10  Fn2
 BYTE   W12
// 052   ----------------------------------------
 BYTE   W24
 BYTE   N21  Gn2
 BYTE   W24
 BYTE   N16  Dn3
 BYTE   W18
 BYTE   Cn3
 BYTE   W18
 BYTE   N10  Bn2
 BYTE   W12
// 053   ----------------------------------------
Label_2_01859F66:
 BYTE   N10  Gn2  v100
 BYTE   W12
 BYTE   Cn3
 BYTE   W12
 BYTE   Ds3
 BYTE   W12
 BYTE   Gn3
 BYTE   W12
 BYTE   Cn4
 BYTE   W12
 BYTE   Gn3
 BYTE   W12
 BYTE   Ds3
 BYTE   W12
 BYTE   Cn3
 BYTE   W12
 BYTE   PEND 
// 054   ----------------------------------------
 BYTE   W96
// 055   ----------------------------------------
Label_2_01859F7A:
 BYTE   N42  Gs2  v100
 BYTE   W48
 BYTE   As2
 BYTE   W48
 BYTE   PEND 
// 056   ----------------------------------------
 BYTE   N84  Gn2
 BYTE   W96
// 057   ----------------------------------------
Label_2_01859F84:
 BYTE   N42  Fn2  v100
 BYTE   W48
 BYTE   Gn2
 BYTE   W48
 BYTE   PEND 
// 058   ----------------------------------------
 BYTE   N84  Ds2
 BYTE   W96
// 059   ----------------------------------------
Label_2_01859F8E:
 BYTE   N10  Cn3  v100
 BYTE   W12
 BYTE   Ds3
 BYTE   W12
 BYTE   Gs3
 BYTE   W12
 BYTE   Cn4
 BYTE   W12
 BYTE   Cn3
 BYTE   W12
 BYTE   Ds3
 BYTE   W12
 BYTE   Gs3
 BYTE   W12
 BYTE   Cn4
 BYTE   W12
 BYTE   PEND 
// 060   ----------------------------------------
Label_2_01859FA1:
 BYTE   N10  Cn3  v100
 BYTE   W12
 BYTE   Ds3
 BYTE   W12
 BYTE   Gn3
 BYTE   W12
 BYTE   Cn4
 BYTE   W12
 BYTE   Cn3
 BYTE   W12
 BYTE   Ds3
 BYTE   W12
 BYTE   Gn3
 BYTE   W12
 BYTE   Cn4
 BYTE   W12
 BYTE   PEND 
// 061   ----------------------------------------
 BYTE   Gs2
 BYTE   W12
 BYTE   Dn3
 BYTE   W12
 BYTE   Fn3
 BYTE   W12
 BYTE   Gs3
 BYTE   W12
 BYTE   Bn2
 BYTE   W12
 BYTE   Dn3
 BYTE   W12
 BYTE   Gn3
 BYTE   W12
 BYTE   Bn3
 BYTE   W12
// 062   ----------------------------------------
 BYTE   N16  Gn3
 BYTE   W18
 BYTE   Fn3
 BYTE   W18
 BYTE   N10  Cn3
 BYTE   W12
 BYTE   Gn2
 BYTE   W12
 BYTE   Cn3
 BYTE   W12
 BYTE   En3
 BYTE   W12
 BYTE   Gn3
 BYTE   W12
 BYTE   PATT
  POIN2 Label_2_01859F7A
// 063   ----------------------------------------
 BYTE   N84  Gn2  v100
 BYTE   W96
 BYTE   PATT
  POIN2 Label_2_01859F84
// 064   ----------------------------------------
 BYTE   N84  Ds2  v100
 BYTE   W96
 BYTE   PATT
  POIN2 Label_2_01859F8E
 BYTE   PATT
  POIN2 Label_2_01859FA1
 BYTE   PATT
  POIN2 Label_2_01859F84
// 065   ----------------------------------------
 BYTE   N42  Gs2  v100
 BYTE   W96
// 066   ----------------------------------------
 BYTE   Gn2
 BYTE   W48
 BYTE   N16  Gs2
 BYTE   W18
 BYTE   Gn2
 BYTE   W18
 BYTE   N10  Fn2
 BYTE   W12
// 067   ----------------------------------------
 BYTE   N42  Gn2
 BYTE   W48
 BYTE   N16  Dn3
 BYTE   W18
 BYTE   Cn3
 BYTE   W18
 BYTE   N10  Bn2
 BYTE   W12
 BYTE   PATT
  POIN2 Label_2_01859F66
// 068   ----------------------------------------
 BYTE   GoTo
  POIN2 Label_2_01859E42
// 069   ----------------------------------------
 BYTE   W96
 BYTE   FINE

//**************** Track 4 (Midi-Chn.3) ****************//

RomancingSaga3TheLastBattle7743_004:
// 000   ----------------------------------------
 BYTE   KEYSH   RomancingSaga3TheLastBattle7743_key+0
 BYTE   VOL   45*RomancingSaga3TheLastBattle7743_mvl/mxv
 BYTE   VOICE   36
Label_3_0185A022:
 BYTE   W96
// 001   ----------------------------------------
 BYTE   W96
// 002   ----------------------------------------
 BYTE   W96
// 003   ----------------------------------------
 BYTE   W96
// 004   ----------------------------------------
 BYTE   W96
// 005   ----------------------------------------
 BYTE   W96
// 006   ----------------------------------------
 BYTE   W96
// 007   ----------------------------------------
 BYTE   W96
// 008   ----------------------------------------
 BYTE   W96
// 009   ----------------------------------------
 BYTE   W72
 BYTE   N21  Gn1  v120
 BYTE   W13
 BYTE   BEND   c_v-2
 BYTE   W02
 BYTE   Cn3
 BYTE   W02
 BYTE   As2
 BYTE   W02
 BYTE   Gs2
 BYTE   W01
 BYTE   Fs2
 BYTE   W01
 BYTE   MOD 0
 BYTE   CnM2  v000
 BYTE   BEND   c_v+0
 BYTE   W03
// 010   ----------------------------------------
Label_3_0185A041:
 BYTE   N32  Cn1  v120
 BYTE   W36
 BYTE   N10  Cs1
 BYTE   W24
 BYTE   Ds1
 BYTE   W24
 BYTE   Fn1
 BYTE   W12
 BYTE   PEND 
 BYTE   PATT
  POIN2 Label_3_0185A041
 BYTE   PATT
  POIN2 Label_3_0185A041
 BYTE   PATT
  POIN2 Label_3_0185A041
// 011   ----------------------------------------
Label_3_0185A05C:
 BYTE   N10  Cn1  v120
 BYTE   W12
 BYTE   N10
 BYTE   W12
 BYTE   N10
 BYTE   W12
 BYTE   N10
 BYTE   W12
 BYTE   N10
 BYTE   W12
 BYTE   N10
 BYTE   W12
 BYTE   N10
 BYTE   W12
 BYTE   N10
 BYTE   W12
 BYTE   PEND 
 BYTE   PATT
  POIN2 Label_3_0185A05C
 BYTE   PATT
  POIN2 Label_3_0185A05C
// 012   ----------------------------------------
 BYTE   N10  Cn1  v120
 BYTE   W12
 BYTE   N10
 BYTE   W12
 BYTE   N10
 BYTE   W12
 BYTE   N10
 BYTE   W12
 BYTE   N10
 BYTE   W12
 BYTE   N05  As1
 BYTE   W06
 BYTE   Cn2
 BYTE   W06
 BYTE   As1
 BYTE   W06
 BYTE   Gn1
 BYTE   W06
 BYTE   Cn1
 BYTE   W06
 BYTE   As0
 BYTE   W06
// 013   ----------------------------------------
Label_3_0185A092:
 BYTE   N10  Fn0  v120
 BYTE   W12
 BYTE   N10
 BYTE   W12
 BYTE   N10
 BYTE   W12
 BYTE   N10
 BYTE   W12
 BYTE   As0
 BYTE   W12
 BYTE   N10
 BYTE   W12
 BYTE   N10
 BYTE   W12
 BYTE   N10
 BYTE   W12
 BYTE   PEND 
// 014   ----------------------------------------
Label_3_0185A0A5:
 BYTE   N10  Ds1  v120
 BYTE   W12
 BYTE   N10
 BYTE   W12
 BYTE   N10
 BYTE   W12
 BYTE   N10
 BYTE   W12
 BYTE   N10
 BYTE   W12
 BYTE   Dn1
 BYTE   W12
 BYTE   Ds1
 BYTE   W12
 BYTE   Gn1
 BYTE   W12
 BYTE   PEND 
// 015   ----------------------------------------
Label_3_0185A0B8:
 BYTE   N10  Dn1  v120
 BYTE   W12
 BYTE   N10
 BYTE   W12
 BYTE   N10
 BYTE   W12
 BYTE   N10
 BYTE   W12
 BYTE   Gn0
 BYTE   W12
 BYTE   N10
 BYTE   W12
 BYTE   N10
 BYTE   W12
 BYTE   N10
 BYTE   W12
 BYTE   PEND 
// 016   ----------------------------------------
Label_3_0185A0CB:
 BYTE   N10  Cn1  v120
 BYTE   W12
 BYTE   N10
 BYTE   W12
 BYTE   N10
 BYTE   W12
 BYTE   N10
 BYTE   W12
 BYTE   N10
 BYTE   W12
 BYTE   As0
 BYTE   W12
 BYTE   Cn1
 BYTE   W12
 BYTE   Ds1
 BYTE   W12
 BYTE   PEND 
// 017   ----------------------------------------
Label_3_0185A0DE:
 BYTE   N10  Gs0  v120
 BYTE   W12
 BYTE   N10
 BYTE   W12
 BYTE   N10
 BYTE   W12
 BYTE   N10
 BYTE   W12
 BYTE   N10
 BYTE   W12
 BYTE   N10
 BYTE   W12
 BYTE   N10
 BYTE   W12
 BYTE   N10
 BYTE   W12
 BYTE   PEND 
// 018   ----------------------------------------
Label_3_0185A0F1:
 BYTE   N10  Gn0  v120
 BYTE   W12
 BYTE   N10
 BYTE   W12
 BYTE   N10
 BYTE   W12
 BYTE   N10
 BYTE   W12
 BYTE   N10
 BYTE   W12
 BYTE   N10
 BYTE   W12
 BYTE   N10
 BYTE   W12
 BYTE   N10
 BYTE   W12
 BYTE   PEND 
// 019   ----------------------------------------
Label_3_0185A104:
 BYTE   N16  Fn1  v120
 BYTE   W18
 BYTE   N16
 BYTE   W18
 BYTE   N10
 BYTE   W12
 BYTE   N16  Ds1
 BYTE   W18
 BYTE   N16
 BYTE   W18
 BYTE   N10
 BYTE   W12
 BYTE   PEND 
// 020   ----------------------------------------
Label_3_0185A114:
 BYTE   N16  Dn1  v120
 BYTE   W18
 BYTE   N16
 BYTE   W18
 BYTE   N10
 BYTE   W12
 BYTE   Gn0
 BYTE   W48
 BYTE   PEND 
 BYTE   PATT
  POIN2 Label_3_0185A05C
 BYTE   PATT
  POIN2 Label_3_0185A05C
 BYTE   PATT
  POIN2 Label_3_0185A0CB
// 021   ----------------------------------------
 BYTE   N16  Cn1  v120
 BYTE   W18
 BYTE   As0
 BYTE   W18
 BYTE   N10  Cn1
 BYTE   W12
 BYTE   N21  Fn1
 BYTE   W48
 BYTE   PATT
  POIN2 Label_3_0185A05C
// 022   ----------------------------------------
Label_3_0185A13F:
 BYTE   N10  Cn1  v120
 BYTE   W12
 BYTE   N10
 BYTE   W12
 BYTE   N10
 BYTE   W12
 BYTE   N10
 BYTE   W12
 BYTE   N10
 BYTE   W12
 BYTE   N05  As0
 BYTE   W06
 BYTE   N10  Cn1
 BYTE   W12
 BYTE   N05  Dn1
 BYTE   W06
 BYTE   Ds1
 BYTE   W06
 BYTE   Cn1
 BYTE   W06
 BYTE   PEND 
// 023   ----------------------------------------
Label_3_0185A159:
 BYTE   N10  Bn0  v120
 BYTE   W12
 BYTE   N10
 BYTE   W12
 BYTE   N10
 BYTE   W12
 BYTE   N10
 BYTE   W12
 BYTE   N10
 BYTE   W12
 BYTE   N10
 BYTE   W12
 BYTE   N10
 BYTE   W12
 BYTE   N10
 BYTE   W12
 BYTE   PEND 
// 024   ----------------------------------------
Label_3_0185A16C:
 BYTE   N10  Bn0  v120
 BYTE   W12
 BYTE   N10
 BYTE   W12
 BYTE   N10
 BYTE   W12
 BYTE   N10
 BYTE   W12
 BYTE   N10
 BYTE   W12
 BYTE   N05  Gn0
 BYTE   W06
 BYTE   N10  Bn0
 BYTE   W12
 BYTE   N05  Cn1
 BYTE   W06
 BYTE   Dn1
 BYTE   W06
 BYTE   Bn0
 BYTE   W06
 BYTE   PEND 
// 025   ----------------------------------------
Label_3_0185A186:
 BYTE   N10  As0  v120
 BYTE   W12
 BYTE   N10
 BYTE   W12
 BYTE   N10
 BYTE   W12
 BYTE   N10
 BYTE   W12
 BYTE   N10
 BYTE   W12
 BYTE   Gn0
 BYTE   W12
 BYTE   As0
 BYTE   W12
 BYTE   Cs1
 BYTE   W12
 BYTE   PEND 
// 026   ----------------------------------------
Label_3_0185A199:
 BYTE   N10  Cn1  v120
 BYTE   W12
 BYTE   N10
 BYTE   W12
 BYTE   N10
 BYTE   W12
 BYTE   N10
 BYTE   W12
 BYTE   N10
 BYTE   W12
 BYTE   Cs1
 BYTE   W12
 BYTE   Cn1
 BYTE   W12
 BYTE   As0
 BYTE   W12
 BYTE   PEND 
// 027   ----------------------------------------
Label_3_0185A1AC:
 BYTE   N10  Fn0  v120
 BYTE   W12
 BYTE   N10
 BYTE   W12
 BYTE   N10
 BYTE   W12
 BYTE   N10
 BYTE   W12
 BYTE   N10
 BYTE   W12
 BYTE   N10
 BYTE   W12
 BYTE   N10
 BYTE   W12
 BYTE   N10
 BYTE   W12
 BYTE   PEND 
// 028   ----------------------------------------
Label_3_0185A1BF:
 BYTE   N10  Fn0  v120
 BYTE   W12
 BYTE   N10
 BYTE   W12
 BYTE   N10
 BYTE   W12
 BYTE   N10
 BYTE   W12
 BYTE   N10
 BYTE   W12
 BYTE   N10
 BYTE   W12
 BYTE   N05
 BYTE   W06
 BYTE   Dn1
 BYTE   W06
 BYTE   Fn1
 BYTE   W06
 BYTE   Cn1
 BYTE   W06
 BYTE   PEND 
// 029   ----------------------------------------
Label_3_0185A1D6:
 BYTE   N10  Dn1  v120
 BYTE   W12
 BYTE   N10
 BYTE   W12
 BYTE   N10
 BYTE   W12
 BYTE   N10
 BYTE   W12
 BYTE   N10
 BYTE   W12
 BYTE   N10
 BYTE   W12
 BYTE   N10
 BYTE   W12
 BYTE   N10
 BYTE   W12
 BYTE   PEND 
// 030   ----------------------------------------
Label_3_0185A1E9:
 BYTE   N10  Gn0  v120
 BYTE   W12
 BYTE   N10
 BYTE   W12
 BYTE   N10
 BYTE   W12
 BYTE   N10
 BYTE   W12
 BYTE   N10
 BYTE   W12
 BYTE   Gn1
 BYTE   W12
 BYTE   Fn1
 BYTE   W12
 BYTE   Dn1
 BYTE   W12
 BYTE   PEND 
// 031   ----------------------------------------
 BYTE   Cn1
 BYTE   W12
 BYTE   N10
 BYTE   W12
 BYTE   N10
 BYTE   W12
 BYTE   N10
 BYTE   W12
 BYTE   Bn0
 BYTE   W12
 BYTE   N10
 BYTE   W12
 BYTE   N10
 BYTE   W12
 BYTE   N10
 BYTE   W12
// 032   ----------------------------------------
 BYTE   As0
 BYTE   W12
 BYTE   N10
 BYTE   W12
 BYTE   N10
 BYTE   W12
 BYTE   N10
 BYTE   W12
 BYTE   N16  Cn1
 BYTE   W18
 BYTE   Gn0
 BYTE   W18
 BYTE   N10  As0
 BYTE   W12
 BYTE   PATT
  POIN2 Label_3_0185A1AC
// 033   ----------------------------------------
 BYTE   N10  Dn1  v120
 BYTE   W12
 BYTE   N10
 BYTE   W12
 BYTE   N10
 BYTE   W12
 BYTE   N10
 BYTE   W12
 BYTE   N10
 BYTE   W12
 BYTE   N10
 BYTE   W12
 BYTE   Cn1
 BYTE   W12
 BYTE   N10
 BYTE   W12
// 034   ----------------------------------------
 BYTE   Gn0
 BYTE   W12
 BYTE   N10
 BYTE   W12
 BYTE   N10
 BYTE   W12
 BYTE   N10
 BYTE   W12
 BYTE   N10
 BYTE   W12
 BYTE   N10
 BYTE   W12
 BYTE   N05
 BYTE   W06
 BYTE   Fn1
 BYTE   W06
 BYTE   Gn1
 BYTE   W06
 BYTE   Dn1
 BYTE   W06
// 035   ----------------------------------------
 BYTE   N10  Gn0
 BYTE   W48
 BYTE   N16
 BYTE   W18
 BYTE   Fn0
 BYTE   W18
 BYTE   N10  Gn0
 BYTE   W12
 BYTE   PATT
  POIN2 Label_3_0185A05C
 BYTE   PATT
  POIN2 Label_3_0185A13F
 BYTE   PATT
  POIN2 Label_3_0185A159
 BYTE   PATT
  POIN2 Label_3_0185A16C
 BYTE   PATT
  POIN2 Label_3_0185A186
 BYTE   PATT
  POIN2 Label_3_0185A199
 BYTE   PATT
  POIN2 Label_3_0185A1AC
 BYTE   PATT
  POIN2 Label_3_0185A1BF
 BYTE   PATT
  POIN2 Label_3_0185A1D6
 BYTE   PATT
  POIN2 Label_3_0185A1E9
// 036   ----------------------------------------
 BYTE   N10  Cn1  v120
 BYTE   W12
 BYTE   N10
 BYTE   W12
 BYTE   N10
 BYTE   W12
 BYTE   N10
 BYTE   W12
 BYTE   Cs1
 BYTE   W12
 BYTE   N10
 BYTE   W12
 BYTE   N10
 BYTE   W12
 BYTE   N10
 BYTE   W12
// 037   ----------------------------------------
 BYTE   N21  Cn1
 BYTE   W24
 BYTE   N21
 BYTE   W24
 BYTE   N16  Cn2
 BYTE   W18
 BYTE   Gn1
 BYTE   W18
 BYTE   N10  Cn1
 BYTE   W12
// 038   ----------------------------------------
 BYTE   Fn0
 BYTE   W12
 BYTE   N10
 BYTE   W12
 BYTE   N10
 BYTE   W12
 BYTE   N10
 BYTE   W12
 BYTE   Fs0
 BYTE   W12
 BYTE   N10
 BYTE   W12
 BYTE   N10
 BYTE   W12
 BYTE   N10
 BYTE   W12
// 039   ----------------------------------------
 BYTE   N21  Gn0
 BYTE   W24
 BYTE   N10
 BYTE   W72
 BYTE   PATT
  POIN2 Label_3_0185A05C
// 040   ----------------------------------------
Label_3_0185A2BC:
 BYTE   N10  Cn1  v120
 BYTE   W12
 BYTE   N10
 BYTE   W12
 BYTE   N10
 BYTE   W12
 BYTE   N10
 BYTE   W12
 BYTE   Gn0
 BYTE   W12
 BYTE   N10
 BYTE   W12
 BYTE   N10
 BYTE   W12
 BYTE   N10
 BYTE   W12
 BYTE   PEND 
 BYTE   PATT
  POIN2 Label_3_0185A05C
// 041   ----------------------------------------
 BYTE   N10  Cn1  v120
 BYTE   W72
 BYTE   N21  Fn1
 BYTE   W13
 BYTE   BEND   c_v-2
 BYTE   W02
 BYTE   Cn3
 BYTE   W02
 BYTE   As2
 BYTE   W02
 BYTE   Gs2
 BYTE   W01
 BYTE   Fs2
 BYTE   W01
 BYTE   MOD 0
 BYTE   CnM2  v000
 BYTE   BEND   c_v+0
 BYTE   W03
 BYTE   PATT
  POIN2 Label_3_0185A092
 BYTE   PATT
  POIN2 Label_3_0185A0A5
 BYTE   PATT
  POIN2 Label_3_0185A0B8
 BYTE   PATT
  POIN2 Label_3_0185A0CB
 BYTE   PATT
  POIN2 Label_3_0185A0DE
 BYTE   PATT
  POIN2 Label_3_0185A0F1
 BYTE   PATT
  POIN2 Label_3_0185A0B8
// 042   ----------------------------------------
 BYTE   N21  Cn1  v120
 BYTE   W30
 BYTE   N05  Gn0
 BYTE   W06
 BYTE   Fs0
 BYTE   W06
 BYTE   Gn0
 BYTE   W06
 BYTE   N16  Cn1
 BYTE   W18
 BYTE   As0
 BYTE   W18
 BYTE   N10  Gn0
 BYTE   W12
 BYTE   PATT
  POIN2 Label_3_0185A092
 BYTE   PATT
  POIN2 Label_3_0185A0A5
 BYTE   PATT
  POIN2 Label_3_0185A0B8
 BYTE   PATT
  POIN2 Label_3_0185A0CB
 BYTE   PATT
  POIN2 Label_3_0185A0DE
 BYTE   PATT
  POIN2 Label_3_0185A0F1
 BYTE   PATT
  POIN2 Label_3_0185A104
 BYTE   PATT
  POIN2 Label_3_0185A114
 BYTE   PATT
  POIN2 Label_3_0185A05C
 BYTE   PATT
  POIN2 Label_3_0185A2BC
 BYTE   PATT
  POIN2 Label_3_0185A05C
// 043   ----------------------------------------
 BYTE   GoTo
  POIN2 Label_3_0185A022
// 044   ----------------------------------------
 BYTE   N10  Cn1  v120
 BYTE   W72
 BYTE   N21  Gn1
 BYTE   W13
 BYTE   BEND   c_v-2
 BYTE   W02
 BYTE   Cn3
 BYTE   W02
 BYTE   As2
 BYTE   W02
 BYTE   Gs2
 BYTE   W01
 BYTE   Fs2
 BYTE   W01
 BYTE   MOD 0
 BYTE   CnM2  v000
 BYTE   BEND   c_v+0
 BYTE   W03
 BYTE   FINE

//**************** Track 5 (Midi-Chn.4) ****************//

RomancingSaga3TheLastBattle7743_005:
// 000   ----------------------------------------
 BYTE   KEYSH   RomancingSaga3TheLastBattle7743_key+0
 BYTE   VOL   70*RomancingSaga3TheLastBattle7743_mvl/mxv
 BYTE   VOICE   85
Label_4_0185A37E:
 BYTE   W96
// 001   ----------------------------------------
 BYTE   W96
// 002   ----------------------------------------
 BYTE   W96
// 003   ----------------------------------------
 BYTE   W96
// 004   ----------------------------------------
 BYTE   W96
// 005   ----------------------------------------
 BYTE   W96
// 006   ----------------------------------------
 BYTE   W96
// 007   ----------------------------------------
 BYTE   W96
// 008   ----------------------------------------
 BYTE   W96
// 009   ----------------------------------------
 BYTE   W96
// 010   ----------------------------------------
Label_4_0185A388:
 BYTE   N21  Cn3  v100
 BYTE   W36
 BYTE   N10  Cs3
 BYTE   W24
 BYTE   Ds3
 BYTE   W24
 BYTE   Fn3
 BYTE   W12
 BYTE   PEND 
 BYTE   PATT
  POIN2 Label_4_0185A388
 BYTE   PATT
  POIN2 Label_4_0185A388
 BYTE   PATT
  POIN2 Label_4_0185A388
 BYTE   PATT
  POIN2 Label_4_0185A388
 BYTE   PATT
  POIN2 Label_4_0185A388
 BYTE   PATT
  POIN2 Label_4_0185A388
 BYTE   PATT
  POIN2 Label_4_0185A388
// 011   ----------------------------------------
 BYTE   W96
// 012   ----------------------------------------
 BYTE   W96
// 013   ----------------------------------------
 BYTE   W96
// 014   ----------------------------------------
 BYTE   W96
// 015   ----------------------------------------
 BYTE   W96
// 016   ----------------------------------------
 BYTE   W96
// 017   ----------------------------------------
 BYTE   W96
// 018   ----------------------------------------
 BYTE   W96
// 019   ----------------------------------------
 BYTE   W24
 BYTE   N21  Cn3  v100
 BYTE   W24
 BYTE   N16  Cs3
 BYTE   W18
 BYTE   Ds3
 BYTE   W18
 BYTE   N10  Bn2
 BYTE   W12
// 020   ----------------------------------------
 BYTE   W24
 BYTE   N21  Cn3
 BYTE   W24
 BYTE   N16  Cs3
 BYTE   W18
 BYTE   Ds3
 BYTE   W18
 BYTE   N10  Fn3
 BYTE   W12
// 021   ----------------------------------------
 BYTE   W24
 BYTE   N21  Ds3
 BYTE   W24
 BYTE   N16  Fn3
 BYTE   W18
 BYTE   Ds3
 BYTE   W18
 BYTE   N10  Fn3
 BYTE   W12
// 022   ----------------------------------------
 BYTE   N16  Gn3
 BYTE   W18
 BYTE   Fn3
 BYTE   W18
 BYTE   N10  Gn3
 BYTE   W12
 BYTE   N21  As3
 BYTE   W48
// 023   ----------------------------------------
 BYTE   W96
// 024   ----------------------------------------
 BYTE   W96
// 025   ----------------------------------------
 BYTE   W96
// 026   ----------------------------------------
 BYTE   W96
// 027   ----------------------------------------
 BYTE   W96
// 028   ----------------------------------------
 BYTE   W96
// 029   ----------------------------------------
 BYTE   W96
// 030   ----------------------------------------
 BYTE   W96
// 031   ----------------------------------------
 BYTE   W96
// 032   ----------------------------------------
 BYTE   W96
// 033   ----------------------------------------
 BYTE   W96
// 034   ----------------------------------------
 BYTE   W96
// 035   ----------------------------------------
 BYTE   W96
// 036   ----------------------------------------
 BYTE   W96
// 037   ----------------------------------------
 BYTE   W96
// 038   ----------------------------------------
 BYTE   W48
 BYTE   N16  Bn3
 BYTE   W18
 BYTE   Cn4
 BYTE   W18
 BYTE   N10  Dn4
 BYTE   W12
// 039   ----------------------------------------
 BYTE   W96
// 040   ----------------------------------------
 BYTE   W96
// 041   ----------------------------------------
 BYTE   W96
// 042   ----------------------------------------
 BYTE   W96
// 043   ----------------------------------------
 BYTE   W96
// 044   ----------------------------------------
 BYTE   W96
// 045   ----------------------------------------
 BYTE   W96
// 046   ----------------------------------------
 BYTE   W96
// 047   ----------------------------------------
 BYTE   W96
// 048   ----------------------------------------
 BYTE   W96
// 049   ----------------------------------------
 BYTE   W96
// 050   ----------------------------------------
 BYTE   W96
// 051   ----------------------------------------
 BYTE   W96
// 052   ----------------------------------------
 BYTE   W96
// 053   ----------------------------------------
 BYTE   W96
// 054   ----------------------------------------
 BYTE   W96
// 055   ----------------------------------------
 BYTE   W96
// 056   ----------------------------------------
 BYTE   W96
// 057   ----------------------------------------
Label_4_0185A419:
 BYTE   N42  Cn4  v100
 BYTE   W48
 BYTE   Gs3
 BYTE   W48
 BYTE   PEND 
// 058   ----------------------------------------
 BYTE   N84  As3
 BYTE   W96
// 059   ----------------------------------------
Label_4_0185A423:
 BYTE   N42  Gs3  v100
 BYTE   W48
 BYTE   Fn3
 BYTE   W48
 BYTE   PEND 
// 060   ----------------------------------------
 BYTE   N84  Gn3
 BYTE   W96
// 061   ----------------------------------------
Label_4_0185A42D:
 BYTE   N64  Ds3  v100
 BYTE   W66
 BYTE   N16  Fn3
 BYTE   W18
 BYTE   N10  Gn3
 BYTE   W12
 BYTE   PEND 
 BYTE   PATT
  POIN2 Label_4_0185A42D
// 062   ----------------------------------------
 BYTE   N42  Gs3  v100
 BYTE   W48
 BYTE   Bn3
 BYTE   W48
// 063   ----------------------------------------
 BYTE   Gs3
 BYTE   W48
 BYTE   Gn3
 BYTE   W48
 BYTE   PATT
  POIN2 Label_4_0185A419
// 064   ----------------------------------------
 BYTE   N84  As3  v100
 BYTE   W96
 BYTE   PATT
  POIN2 Label_4_0185A423
// 065   ----------------------------------------
 BYTE   N84  Gn3  v100
 BYTE   W96
 BYTE   PATT
  POIN2 Label_4_0185A42D
 BYTE   PATT
  POIN2 Label_4_0185A42D
// 066   ----------------------------------------
 BYTE   N42  Gs3  v100
 BYTE   W48
 BYTE   As3
 BYTE   W48
// 067   ----------------------------------------
 BYTE   Cn4
 BYTE   W96
// 068   ----------------------------------------
 BYTE   W96
// 069   ----------------------------------------
 BYTE   W96
// 070   ----------------------------------------
 BYTE   W96
// 071   ----------------------------------------
 BYTE   GoTo
  POIN2 Label_4_0185A37E
// 072   ----------------------------------------
 BYTE   W96
 BYTE   FINE

//**************** Track 6 (Midi-Chn.5) ****************//

RomancingSaga3TheLastBattle7743_006:
// 000   ----------------------------------------
 BYTE   KEYSH   RomancingSaga3TheLastBattle7743_key+0
 BYTE   VOL   59*RomancingSaga3TheLastBattle7743_mvl/mxv
 BYTE   VOICE   85
Label_5_0185A47E:
 BYTE   W96
// 001   ----------------------------------------
 BYTE   W96
// 002   ----------------------------------------
 BYTE   W96
// 003   ----------------------------------------
 BYTE   W96
// 004   ----------------------------------------
 BYTE   W96
// 005   ----------------------------------------
 BYTE   W96
// 006   ----------------------------------------
 BYTE   W96
// 007   ----------------------------------------
 BYTE   W96
// 008   ----------------------------------------
 BYTE   W96
// 009   ----------------------------------------
 BYTE   W96
// 010   ----------------------------------------
Label_5_0185A488:
 BYTE   N21  Gn2  v100
 BYTE   W36
 BYTE   N10  Gs2
 BYTE   W24
 BYTE   As2
 BYTE   W24
 BYTE   Cn3
 BYTE   W12
 BYTE   PEND 
 BYTE   PATT
  POIN2 Label_5_0185A488
 BYTE   PATT
  POIN2 Label_5_0185A488
 BYTE   PATT
  POIN2 Label_5_0185A488
 BYTE   PATT
  POIN2 Label_5_0185A488
 BYTE   PATT
  POIN2 Label_5_0185A488
 BYTE   PATT
  POIN2 Label_5_0185A488
 BYTE   PATT
  POIN2 Label_5_0185A488
// 011   ----------------------------------------
 BYTE   W96
// 012   ----------------------------------------
 BYTE   W96
// 013   ----------------------------------------
 BYTE   W96
// 014   ----------------------------------------
 BYTE   W96
// 015   ----------------------------------------
 BYTE   W96
// 016   ----------------------------------------
 BYTE   W96
// 017   ----------------------------------------
 BYTE   W96
// 018   ----------------------------------------
 BYTE   W96
// 019   ----------------------------------------
 BYTE   W24
 BYTE   N21  Gn2  v100
 BYTE   W24
 BYTE   N16  Gs2
 BYTE   W18
 BYTE   As2
 BYTE   W18
 BYTE   N10  Fn2
 BYTE   W12
// 020   ----------------------------------------
 BYTE   W24
 BYTE   N21  Gn2
 BYTE   W24
 BYTE   N16  Gs2
 BYTE   W18
 BYTE   As2
 BYTE   W18
 BYTE   N10  Cn3
 BYTE   W12
// 021   ----------------------------------------
 BYTE   W24
 BYTE   N21  As2
 BYTE   W24
 BYTE   N16  Cn3
 BYTE   W18
 BYTE   As2
 BYTE   W18
 BYTE   N10  Cn3
 BYTE   W12
// 022   ----------------------------------------
 BYTE   N16  Dn3
 BYTE   W18
 BYTE   Cn3
 BYTE   W18
 BYTE   N10  Dn3
 BYTE   W12
 BYTE   N21  Fn3
 BYTE   W48
// 023   ----------------------------------------
 BYTE   W96
// 024   ----------------------------------------
 BYTE   W96
// 025   ----------------------------------------
 BYTE   W96
// 026   ----------------------------------------
 BYTE   W96
// 027   ----------------------------------------
 BYTE   W96
// 028   ----------------------------------------
 BYTE   W96
// 029   ----------------------------------------
 BYTE   W96
// 030   ----------------------------------------
 BYTE   W96
// 031   ----------------------------------------
 BYTE   W96
// 032   ----------------------------------------
 BYTE   W96
// 033   ----------------------------------------
 BYTE   W96
// 034   ----------------------------------------
 BYTE   W96
// 035   ----------------------------------------
 BYTE   W96
// 036   ----------------------------------------
 BYTE   W96
// 037   ----------------------------------------
 BYTE   W96
// 038   ----------------------------------------
 BYTE   W06
 BYTE   N05  Gn3
 BYTE   W06
 BYTE   Gs3
 BYTE   W06
 BYTE   Fs3
 BYTE   W06
 BYTE   Gn3
 BYTE   W06
 BYTE   Cn4
 BYTE   W06
 BYTE   Dn4
 BYTE   W06
 BYTE   Cn4
 BYTE   W06
 BYTE   N16  Gn4
 BYTE   W18
 BYTE   N16
 BYTE   W18
 BYTE   N10
 BYTE   W12
// 039   ----------------------------------------
 BYTE   W96
// 040   ----------------------------------------
 BYTE   W96
// 041   ----------------------------------------
 BYTE   W96
// 042   ----------------------------------------
 BYTE   W96
// 043   ----------------------------------------
 BYTE   W96
// 044   ----------------------------------------
 BYTE   W96
// 045   ----------------------------------------
 BYTE   W96
// 046   ----------------------------------------
 BYTE   W96
// 047   ----------------------------------------
 BYTE   W96
// 048   ----------------------------------------
 BYTE   W96
// 049   ----------------------------------------
 BYTE   W96
// 050   ----------------------------------------
 BYTE   W96
// 051   ----------------------------------------
 BYTE   W96
// 052   ----------------------------------------
 BYTE   W96
// 053   ----------------------------------------
 BYTE   W96
// 054   ----------------------------------------
 BYTE   W96
// 055   ----------------------------------------
 BYTE   W96
// 056   ----------------------------------------
 BYTE   W06
 BYTE   N05  Gn3
 BYTE   W06
 BYTE   Cn4
 BYTE   W06
 BYTE   Gn3
 BYTE   W06
 BYTE   Dn4
 BYTE   W06
 BYTE   Gn3
 BYTE   W06
 BYTE   Ds4
 BYTE   W06
 BYTE   Gn3
 BYTE   W06
 BYTE   Fn4
 BYTE   W06
 BYTE   Dn4
 BYTE   W06
 BYTE   Ds4
 BYTE   W06
 BYTE   Fn4
 BYTE   W06
 BYTE   Gn4
 BYTE   W06
 BYTE   Ds4
 BYTE   W06
 BYTE   Fn4
 BYTE   W06
 BYTE   Gn4
 BYTE   W06
// 057   ----------------------------------------
Label_5_0185A546:
 BYTE   N42  Gs4  v100
 BYTE   W48
 BYTE   N16  Dn4
 BYTE   W18
 BYTE   Ds4
 BYTE   W18
 BYTE   N10  Fn4
 BYTE   W12
 BYTE   PEND 
// 058   ----------------------------------------
 BYTE   N84  Gn4
 BYTE   W96
// 059   ----------------------------------------
Label_5_0185A556:
 BYTE   N42  Fn4  v100
 BYTE   W48
 BYTE   N16  Bn3
 BYTE   W18
 BYTE   Cn4
 BYTE   W18
 BYTE   N10  Dn4
 BYTE   W12
 BYTE   PEND 
// 060   ----------------------------------------
 BYTE   N84  Ds4
 BYTE   W96
// 061   ----------------------------------------
Label_5_0185A566:
 BYTE   N32  Cn4  v100
 BYTE   W36
 BYTE   N05  As3
 BYTE   W06
 BYTE   Gs3
 BYTE   W06
 BYTE   N16  Cn4
 BYTE   W18
 BYTE   Dn4
 BYTE   W18
 BYTE   N10  Ds4
 BYTE   W12
 BYTE   PEND 
// 062   ----------------------------------------
Label_5_0185A578:
 BYTE   N32  Cn4  v100
 BYTE   W36
 BYTE   N05  As3
 BYTE   W06
 BYTE   Gn3
 BYTE   W06
 BYTE   N16  Cn4
 BYTE   W18
 BYTE   Dn4
 BYTE   W18
 BYTE   N10  Ds4
 BYTE   W12
 BYTE   PEND 
// 063   ----------------------------------------
 BYTE   Fn4
 BYTE   W12
 BYTE   Ds4
 BYTE   W12
 BYTE   Dn4
 BYTE   W12
 BYTE   Cn4
 BYTE   W12
 BYTE   N21  Dn4
 BYTE   W24
 BYTE   Gn4
 BYTE   W24
// 064   ----------------------------------------
 BYTE   N42  Fn4
 BYTE   W48
 BYTE   En4
 BYTE   W48
 BYTE   PATT
  POIN2 Label_5_0185A546
// 065   ----------------------------------------
 BYTE   N84  Gn4  v100
 BYTE   W96
 BYTE   PATT
  POIN2 Label_5_0185A556
// 066   ----------------------------------------
 BYTE   N84  Ds4  v100
 BYTE   W96
 BYTE   PATT
  POIN2 Label_5_0185A566
 BYTE   PATT
  POIN2 Label_5_0185A578
// 067   ----------------------------------------
 BYTE   N16  Fn4  v100
 BYTE   W18
 BYTE   Ds4
 BYTE   W18
 BYTE   N10  Dn4
 BYTE   W12
 BYTE   N42  Gn4
 BYTE   W48
// 068   ----------------------------------------
 BYTE   N16  Gs4
 BYTE   W18
 BYTE   Gn4
 BYTE   W18
 BYTE   N10  Fn4
 BYTE   W12
 BYTE   N21  Gn4
 BYTE   W24
 BYTE   Bn4
 BYTE   W24
// 069   ----------------------------------------
 BYTE   N84  Cn5
 BYTE   W96
// 070   ----------------------------------------
 BYTE   W84
 BYTE   W02
 BYTE   EOT
 BYTE   W10
// 071   ----------------------------------------
 BYTE   W96
// 072   ----------------------------------------
 BYTE   GoTo
  POIN2 Label_5_0185A47E
// 073   ----------------------------------------
 BYTE   W96
 BYTE   FINE

//**************** Track 7 (Midi-Chn.6) ****************//

RomancingSaga3TheLastBattle7743_007:
// 000   ----------------------------------------
 BYTE   KEYSH   RomancingSaga3TheLastBattle7743_key+0
 BYTE   VOL   55*RomancingSaga3TheLastBattle7743_mvl/mxv
 BYTE   VOICE   48
Label_6_0185A5E6:
 BYTE   W96
// 001   ----------------------------------------
 BYTE   W96
// 002   ----------------------------------------
 BYTE   W96
// 003   ----------------------------------------
 BYTE   W96
// 004   ----------------------------------------
 BYTE   W96
// 005   ----------------------------------------
 BYTE   W96
// 006   ----------------------------------------
 BYTE   W96
// 007   ----------------------------------------
 BYTE   W96
// 008   ----------------------------------------
 BYTE   W96
// 009   ----------------------------------------
 BYTE   W96
// 010   ----------------------------------------
 BYTE   W96
// 011   ----------------------------------------
 BYTE   W96
// 012   ----------------------------------------
 BYTE   W96
// 013   ----------------------------------------
 BYTE   W96
// 014   ----------------------------------------
 BYTE   W96
// 015   ----------------------------------------
 BYTE   W96
// 016   ----------------------------------------
 BYTE   W96
// 017   ----------------------------------------
 BYTE   W96
// 018   ----------------------------------------
 BYTE   W96
// 019   ----------------------------------------
 BYTE   W96
// 020   ----------------------------------------
 BYTE   W96
// 021   ----------------------------------------
 BYTE   W96
// 022   ----------------------------------------
 BYTE   W96
// 023   ----------------------------------------
 BYTE   W96
// 024   ----------------------------------------
 BYTE   W96
// 025   ----------------------------------------
 BYTE   W96
// 026   ----------------------------------------
 BYTE   W96
// 027   ----------------------------------------
 BYTE   W96
// 028   ----------------------------------------
 BYTE   W96
// 029   ----------------------------------------
 BYTE   W96
// 030   ----------------------------------------
Label_6_0185A604:
 BYTE   N32  Gn3  v100
 BYTE   W36
 BYTE   N21  Cn4
 BYTE   W24
 BYTE   N10  Bn3
 BYTE   W12
 BYTE   Cn4
 BYTE   W12
 BYTE   Dn4
 BYTE   W12
 BYTE   PEND 
// 031   ----------------------------------------
Label_6_0185A613:
 BYTE   N10  Fn4  v100
 BYTE   W12
 BYTE   Ds4
 BYTE   W12
 BYTE   Dn4
 BYTE   W12
 BYTE   N21  Ds4
 BYTE   W24
 BYTE   N10  Dn4
 BYTE   W12
 BYTE   Cn4
 BYTE   W12
 BYTE   Dn4
 BYTE   W12
 BYTE   PEND 
// 032   ----------------------------------------
Label_6_0185A626:
 BYTE   N32  Cn4  v100
 BYTE   W36
 BYTE   N05  Bn3
 BYTE   W06
 BYTE   Cn4
 BYTE   W06
 BYTE   N32  Dn4
 BYTE   W36
 BYTE   N10  Bn3
 BYTE   W12
 BYTE   PEND 
// 033   ----------------------------------------
 BYTE   N84  Gn3
 BYTE   W96
// 034   ----------------------------------------
Label_6_0185A639:
 BYTE   N32  Gn3  v100
 BYTE   W36
 BYTE   N21  Gs3
 BYTE   W24
 BYTE   N10  Gn3
 BYTE   W12
 BYTE   Fs3
 BYTE   W12
 BYTE   Gn3
 BYTE   W12
 BYTE   PEND 
// 035   ----------------------------------------
Label_6_0185A648:
 BYTE   N10  Cs4  v100
 BYTE   W12
 BYTE   Cn4
 BYTE   W12
 BYTE   Bn3
 BYTE   W12
 BYTE   N21  Cn4
 BYTE   W24
 BYTE   N10  En4
 BYTE   W12
 BYTE   Fn4
 BYTE   W12
 BYTE   Gn4
 BYTE   W12
 BYTE   PEND 
// 036   ----------------------------------------
Label_6_0185A65B:
 BYTE   N32  As4  v100
 BYTE   W36
 BYTE   N05  Gs4
 BYTE   W06
 BYTE   Gn4
 BYTE   W06
 BYTE   N32  Gs4
 BYTE   W36
 BYTE   N10  Fn4
 BYTE   W12
 BYTE   PEND 
// 037   ----------------------------------------
Label_6_0185A66B:
 BYTE   N42  Cn4  v100
 BYTE   W72
 BYTE   N10
 BYTE   W12
 BYTE   Dn4
 BYTE   W12
 BYTE   PEND 
// 038   ----------------------------------------
Label_6_0185A674:
 BYTE   N32  Ds4  v100
 BYTE   W36
 BYTE   N21  Dn4
 BYTE   W24
 BYTE   N10  Ds4
 BYTE   W12
 BYTE   Fn4
 BYTE   W12
 BYTE   Gn4
 BYTE   W12
 BYTE   PEND 
// 039   ----------------------------------------
 BYTE   N16  Bn3
 BYTE   W18
 BYTE   Cn4
 BYTE   W18
 BYTE   N21  Dn4
 BYTE   W24
 BYTE   N10  Fn4
 BYTE   W12
 BYTE   Ds4
 BYTE   W12
 BYTE   Dn4
 BYTE   W12
// 040   ----------------------------------------
 BYTE   N84  Gn4
 BYTE   W96
// 041   ----------------------------------------
 BYTE   W12
 BYTE   N10  En4
 BYTE   W12
 BYTE   Fn4
 BYTE   W12
 BYTE   Gn4
 BYTE   W12
 BYTE   N16  Cn5
 BYTE   W18
 BYTE   As4
 BYTE   W18
 BYTE   N10  Gs4
 BYTE   W12
// 042   ----------------------------------------
 BYTE   N32  Gn4
 BYTE   W36
 BYTE   N10  En4
 BYTE   W12
 BYTE   N16  Fn4
 BYTE   W18
 BYTE   Gn4
 BYTE   W18
 BYTE   N10  Gs4
 BYTE   W12
// 043   ----------------------------------------
 BYTE   N21  An4
 BYTE   W24
 BYTE   Cn5
 BYTE   W24
 BYTE   Bn4
 BYTE   W24
 BYTE   Cn5
 BYTE   W24
// 044   ----------------------------------------
 BYTE   N32  Dn5
 BYTE   W36
 BYTE   N10  Bn4
 BYTE   W12
 BYTE   N42  Gn4
 BYTE   W48
// 045   ----------------------------------------
 BYTE   W96
 BYTE   PATT
  POIN2 Label_6_0185A604
 BYTE   PATT
  POIN2 Label_6_0185A613
 BYTE   PATT
  POIN2 Label_6_0185A626
// 046   ----------------------------------------
 BYTE   N84  Gn3  v100
 BYTE   W96
 BYTE   PATT
  POIN2 Label_6_0185A639
 BYTE   PATT
  POIN2 Label_6_0185A648
 BYTE   PATT
  POIN2 Label_6_0185A65B
 BYTE   PATT
  POIN2 Label_6_0185A66B
 BYTE   PATT
  POIN2 Label_6_0185A674
// 047   ----------------------------------------
 BYTE   N21  As4  v100
 BYTE   W24
 BYTE   Gs4
 BYTE   W24
 BYTE   Gn4
 BYTE   W24
 BYTE   Fn4
 BYTE   W24
// 048   ----------------------------------------
 BYTE   N32  Gn4
 BYTE   W36
 BYTE   N21  Fn4
 BYTE   W24
 BYTE   Gn4
 BYTE   W24
 BYTE   N10  Fn4
 BYTE   W12
// 049   ----------------------------------------
 BYTE   N42  En4
 BYTE   W72
 BYTE   N10  Cn4
 BYTE   W12
 BYTE   As3
 BYTE   W12
// 050   ----------------------------------------
 BYTE   N16  Gs3
 BYTE   W18
 BYTE   As3
 BYTE   W18
 BYTE   N10  Cn4
 BYTE   W12
 BYTE   N16  Dn4
 BYTE   W18
 BYTE   Ds4
 BYTE   W18
 BYTE   N10  Fn4
 BYTE   W12
// 051   ----------------------------------------
 BYTE   N21  Gn4
 BYTE   W48
 BYTE   N16  Fn4
 BYTE   W18
 BYTE   Gs4
 BYTE   W18
 BYTE   N10  Bn4
 BYTE   W12
// 052   ----------------------------------------
 BYTE   N84  Cn5
 BYTE   W96
// 053   ----------------------------------------
 BYTE   W96
// 054   ----------------------------------------
 BYTE   W42
 BYTE   W01
 BYTE   EOT
 BYTE   W52
 BYTE   W01
// 055   ----------------------------------------
 BYTE   W96
// 056   ----------------------------------------
 BYTE   W96
// 057   ----------------------------------------
 BYTE   W96
// 058   ----------------------------------------
 BYTE   W96
// 059   ----------------------------------------
 BYTE   W96
// 060   ----------------------------------------
 BYTE   W96
// 061   ----------------------------------------
 BYTE   W96
// 062   ----------------------------------------
 BYTE   W96
// 063   ----------------------------------------
 BYTE   W96
// 064   ----------------------------------------
 BYTE   W96
// 065   ----------------------------------------
 BYTE   W96
// 066   ----------------------------------------
 BYTE   W96
// 067   ----------------------------------------
 BYTE   W96
// 068   ----------------------------------------
 BYTE   W96
// 069   ----------------------------------------
 BYTE   W96
// 070   ----------------------------------------
 BYTE   W96
// 071   ----------------------------------------
 BYTE   W96
// 072   ----------------------------------------
 BYTE   W96
// 073   ----------------------------------------
 BYTE   W96
// 074   ----------------------------------------
 BYTE   W96
// 075   ----------------------------------------
 BYTE   GoTo
  POIN2 Label_6_0185A5E6
// 076   ----------------------------------------
 BYTE   W06
 BYTE   N05  Gn3
 BYTE   W06
 BYTE   Cn4
 BYTE   W06
 BYTE   Gn3
 BYTE   W06
 BYTE   Dn4
 BYTE   W06
 BYTE   Gn3
 BYTE   W06
 BYTE   Ds4
 BYTE   W06
 BYTE   Gn3
 BYTE   W06
 BYTE   Fn4
 BYTE   W06
 BYTE   Ds4
 BYTE   W06
 BYTE   Dn4
 BYTE   W06
 BYTE   Fn4
 BYTE   W06
 BYTE   Ds4
 BYTE   W06
 BYTE   Dn4
 BYTE   W06
 BYTE   Cn4
 BYTE   W06
 BYTE   Bn3
 BYTE   W06
 BYTE   FINE

//**************** Track 8 (Midi-Chn.7) ****************//

RomancingSaga3TheLastBattle7743_008:
// 000   ----------------------------------------
 BYTE   KEYSH   RomancingSaga3TheLastBattle7743_key+0
 BYTE   VOL   64*RomancingSaga3TheLastBattle7743_mvl/mxv
 BYTE   VOICE   8
Label_7_0185A776:
 BYTE   N10  Bn0  v092
 BYTE   N10  Cs2
 BYTE   W72
 BYTE   N07  Dn1
 BYTE   W08
 BYTE   N07
 BYTE   W08
 BYTE   N07
 BYTE   W08
 BYTE   PEND 
// 001   ----------------------------------------
 BYTE   N10  Bn0
 BYTE   N10  An2
 BYTE   W96
 BYTE   PATT
  POIN2 Label_7_0185A776
// 002   ----------------------------------------
 BYTE   N10  Bn0  v092
 BYTE   N10  An2
 BYTE   W96
 BYTE   PATT
  POIN2 Label_7_0185A776
// 003   ----------------------------------------
 BYTE   N10  Bn0  v092
 BYTE   N10  An2
 BYTE   W96
 BYTE   PATT
  POIN2 Label_7_0185A776
// 004   ----------------------------------------
 BYTE   N10  Bn0  v092
 BYTE   N10  An2
 BYTE   W96
// 005   ----------------------------------------
 BYTE   Bn0
 BYTE   N10  Cs2
 BYTE   W96
// 006   ----------------------------------------
 BYTE   W48
 BYTE   N05  Dn1
 BYTE   W06
 BYTE   N05
 BYTE   W06
 BYTE   N05
 BYTE   W06
 BYTE   N05
 BYTE   W06
 BYTE   N21
 BYTE   W24
// 007   ----------------------------------------
Label_7_0185A7BA:
 BYTE   N10  Bn0  v092
 BYTE   N10  Dn1
 BYTE   N10  Cs2
 BYTE   W12
 BYTE   N05  Dn1
 BYTE   W06
 BYTE   N05
 BYTE   W06
 BYTE   N05
 BYTE   W12
 BYTE   N10  Bn0
 BYTE   N10  Dn1
 BYTE   N10  Cs2
 BYTE   W24
 BYTE   Bn0
 BYTE   N10  Dn1
 BYTE   N10  Cs2
 BYTE   W24
 BYTE   Bn0
 BYTE   N10  Dn1
 BYTE   N10  An2
 BYTE   W12
 BYTE   PEND 
 BYTE   PATT
  POIN2 Label_7_0185A7BA
 BYTE   PATT
  POIN2 Label_7_0185A7BA
// 008   ----------------------------------------
 BYTE   N10  Bn0  v092
 BYTE   N10  Dn1
 BYTE   N10  Cs2
 BYTE   W12
 BYTE   N05  Dn1
 BYTE   W06
 BYTE   N05
 BYTE   W06
 BYTE   N05
 BYTE   W12
 BYTE   N10  Bn0
 BYTE   N10  Dn1
 BYTE   N10  Cs2
 BYTE   W24
 BYTE   Bn0
 BYTE   N10  Dn1
 BYTE   N10  Cs2
 BYTE   W12
 BYTE   N05  Dn1
 BYTE   W06
 BYTE   N05
 BYTE   W06
 BYTE   N10  Bn0
 BYTE   N05  Dn1
 BYTE   N10  An2
 BYTE   W06
 BYTE   N05  Dn1
 BYTE   W06
// 009   ----------------------------------------
Label_7_0185A812:
 BYTE   N05  Bn0  v092
 BYTE   N10  Cs2
 BYTE   W12
 BYTE   Dn1
 BYTE   W12
 BYTE   N05  Bn0
 BYTE   W12
 BYTE   N10  Dn1
 BYTE   W06
 BYTE   N05  Bn0
 BYTE   W12
 BYTE   N05
 BYTE   W06
 BYTE   N10  Dn1
 BYTE   W06
 BYTE   N05  Bn0
 BYTE   W06
 BYTE   N05
 BYTE   W06
 BYTE   N05
 BYTE   W06
 BYTE   N10  Dn1
 BYTE   W06
 BYTE   N05  Bn0
 BYTE   W06
 BYTE   PEND 
// 010   ----------------------------------------
Label_7_0185A836:
 BYTE   N05  Bn0  v092
 BYTE   W12
 BYTE   N10  Dn1
 BYTE   W12
 BYTE   N05  Bn0
 BYTE   W12
 BYTE   N10  Dn1
 BYTE   W06
 BYTE   N05  Bn0
 BYTE   W12
 BYTE   N05
 BYTE   W06
 BYTE   N10  Dn1
 BYTE   W06
 BYTE   N05  Bn0
 BYTE   W06
 BYTE   N05
 BYTE   W06
 BYTE   N05
 BYTE   W06
 BYTE   N10  Dn1
 BYTE   W06
 BYTE   N05  Bn0
 BYTE   W06
 BYTE   PEND 
 BYTE   PATT
  POIN2 Label_7_0185A836
// 011   ----------------------------------------
 BYTE   N05  Bn0  v092
 BYTE   W12
 BYTE   N10  Dn1
 BYTE   W12
 BYTE   N05  Bn0
 BYTE   W12
 BYTE   N05
 BYTE   N10  Dn1
 BYTE   W06
 BYTE   N05  Bn0
 BYTE   W12
 BYTE   Dn1
 BYTE   W06
 BYTE   N05
 BYTE   W18
 BYTE   N05
 BYTE   W12
 BYTE   N05
 BYTE   W06
 BYTE   PATT
  POIN2 Label_7_0185A812
 BYTE   PATT
  POIN2 Label_7_0185A836
 BYTE   PATT
  POIN2 Label_7_0185A836
// 012   ----------------------------------------
Label_7_0185A886:
 BYTE   N05  Bn0  v092
 BYTE   W12
 BYTE   N10  Dn1
 BYTE   W12
 BYTE   N05  Bn0
 BYTE   W12
 BYTE   N10  Dn1
 BYTE   W06
 BYTE   N05  Bn0
 BYTE   W12
 BYTE   N05
 BYTE   W06
 BYTE   N10  Dn1
 BYTE   W06
 BYTE   N05  Bn0
 BYTE   W06
 BYTE   N05
 BYTE   W06
 BYTE   Dn1
 BYTE   W06
 BYTE   N05
 BYTE   W06
 BYTE   N05
 BYTE   W06
 BYTE   PEND 
// 013   ----------------------------------------
Label_7_0185A8A7:
 BYTE   N05  Bn0  v092
 BYTE   N10  Dn1
 BYTE   N21  Cs2
 BYTE   W06
 BYTE   N05  Bn0
 BYTE   W06
 BYTE   N05
 BYTE   W06
 BYTE   N05
 BYTE   W06
 BYTE   N05
 BYTE   N10  Dn1
 BYTE   W06
 BYTE   N05  Bn0
 BYTE   W06
 BYTE   N05
 BYTE   W06
 BYTE   N05
 BYTE   W06
 BYTE   N05
 BYTE   N10  Dn1
 BYTE   W06
 BYTE   N05  Bn0
 BYTE   W06
 BYTE   N05
 BYTE   W06
 BYTE   N05
 BYTE   W06
 BYTE   N05
 BYTE   N10  Dn1
 BYTE   W06
 BYTE   N05  Bn0
 BYTE   W06
 BYTE   N05
 BYTE   W06
 BYTE   N05
 BYTE   W06
 BYTE   PEND 
// 014   ----------------------------------------
Label_7_0185A8D8:
 BYTE   N05  Bn0  v092
 BYTE   N10  Dn1
 BYTE   W06
 BYTE   N05  Bn0
 BYTE   W06
 BYTE   N05
 BYTE   W06
 BYTE   N05
 BYTE   W06
 BYTE   N05
 BYTE   N10  Dn1
 BYTE   W06
 BYTE   N05  Bn0
 BYTE   W06
 BYTE   N05
 BYTE   W06
 BYTE   N05
 BYTE   W06
 BYTE   N05
 BYTE   N10  Dn1
 BYTE   W06
 BYTE   N05  Bn0
 BYTE   W06
 BYTE   N05
 BYTE   W06
 BYTE   N05
 BYTE   W06
 BYTE   N05
 BYTE   N10  Dn1
 BYTE   W06
 BYTE   N05  Bn0
 BYTE   W06
 BYTE   N05
 BYTE   W06
 BYTE   N05
 BYTE   W06
 BYTE   PEND 
// 015   ----------------------------------------
Label_7_0185A907:
 BYTE   N10  Bn0  v092
 BYTE   N10  Dn1
 BYTE   N10  Cs2
 BYTE   W12
 BYTE   N05  Dn2
 BYTE   W06
 BYTE   N05
 BYTE   W06
 BYTE   Bn1
 BYTE   W06
 BYTE   N05
 BYTE   W06
 BYTE   Gn1
 BYTE   W06
 BYTE   N05
 BYTE   W06
 BYTE   N10  Bn0
 BYTE   N10  Dn1
 BYTE   N10  An2
 BYTE   W12
 BYTE   N05  Dn2
 BYTE   W06
 BYTE   N05
 BYTE   W06
 BYTE   Bn1
 BYTE   W06
 BYTE   N05
 BYTE   W06
 BYTE   Gn1
 BYTE   W06
 BYTE   N05
 BYTE   W06
 BYTE   PEND 
// 016   ----------------------------------------
Label_7_0185A931:
 BYTE   N10  Bn0  v092
 BYTE   N10  Dn1
 BYTE   N10  Cs2
 BYTE   W12
 BYTE   N05  Dn2
 BYTE   W06
 BYTE   N05
 BYTE   W06
 BYTE   Bn1
 BYTE   W06
 BYTE   N05
 BYTE   W06
 BYTE   Gn1
 BYTE   W06
 BYTE   N05
 BYTE   W06
 BYTE   N10  Bn0
 BYTE   W24
 BYTE   Dn1
 BYTE   W24
 BYTE   PEND 
 BYTE   PATT
  POIN2 Label_7_0185A812
 BYTE   PATT
  POIN2 Label_7_0185A836
 BYTE   PATT
  POIN2 Label_7_0185A836
// 017   ----------------------------------------
 BYTE   N16  Bn0  v092
 BYTE   N16  Dn1
 BYTE   N16  Cs2
 BYTE   W18
 BYTE   Bn0
 BYTE   N16  Dn1
 BYTE   N16  An2
 BYTE   W18
 BYTE   N10  Bn0
 BYTE   N05  Dn1
 BYTE   W06
 BYTE   N05
 BYTE   W06
 BYTE   N10  Bn0
 BYTE   N10  Dn1
 BYTE   N10  Cs2
 BYTE   W24
 BYTE   Bn0
 BYTE   W24
 BYTE   PATT
  POIN2 Label_7_0185A812
 BYTE   PATT
  POIN2 Label_7_0185A836
 BYTE   PATT
  POIN2 Label_7_0185A836
 BYTE   PATT
  POIN2 Label_7_0185A836
 BYTE   PATT
  POIN2 Label_7_0185A836
 BYTE   PATT
  POIN2 Label_7_0185A836
 BYTE   PATT
  POIN2 Label_7_0185A836
// 018   ----------------------------------------
 BYTE   N05  Bn0  v092
 BYTE   W12
 BYTE   N10  Dn1
 BYTE   W12
 BYTE   N05  Bn0
 BYTE   W12
 BYTE   N10  Dn1
 BYTE   W06
 BYTE   N05  Bn0
 BYTE   W12
 BYTE   N05
 BYTE   W06
 BYTE   N10  Dn1
 BYTE   W06
 BYTE   N05  Bn0
 BYTE   W06
 BYTE   N05
 BYTE   W06
 BYTE   Dn1
 BYTE   W06
 BYTE   N10
 BYTE   W12
 BYTE   PATT
  POIN2 Label_7_0185A812
 BYTE   PATT
  POIN2 Label_7_0185A836
 BYTE   PATT
  POIN2 Label_7_0185A836
// 019   ----------------------------------------
 BYTE   N05  Bn0  v092
 BYTE   W12
 BYTE   N10  Dn1
 BYTE   W12
 BYTE   N05  Bn0
 BYTE   W06
 BYTE   Dn1
 BYTE   W06
 BYTE   N05
 BYTE   W06
 BYTE   N05
 BYTE   W06
 BYTE   N16  Bn0
 BYTE   N16  Dn1
 BYTE   N16  Cs2
 BYTE   W18
 BYTE   Bn0
 BYTE   N16  Dn1
 BYTE   N16  Cs2
 BYTE   W18
 BYTE   N10  Bn0
 BYTE   N10  Dn1
 BYTE   N10  An2
 BYTE   W12
 BYTE   PATT
  POIN2 Label_7_0185A812
 BYTE   PATT
  POIN2 Label_7_0185A836
// 020   ----------------------------------------
Label_7_0185A9F7:
 BYTE   N05  Bn0  v092
 BYTE   W12
 BYTE   N10  Dn1
 BYTE   W12
 BYTE   N05  Bn0
 BYTE   W12
 BYTE   N10  Dn1
 BYTE   W06
 BYTE   N05  Bn0
 BYTE   W12
 BYTE   N05
 BYTE   W06
 BYTE   Dn1
 BYTE   W06
 BYTE   N05
 BYTE   W06
 BYTE   N05
 BYTE   W06
 BYTE   N05
 BYTE   W06
 BYTE   N05
 BYTE   W06
 BYTE   N05
 BYTE   W06
 BYTE   PEND 
// 021   ----------------------------------------
 BYTE   W48
 BYTE   N16  Bn0
 BYTE   N16  Dn1
 BYTE   N16  Cs2
 BYTE   W18
 BYTE   Bn0
 BYTE   N16  Dn1
 BYTE   N16  Cs2
 BYTE   W18
 BYTE   N10  Bn0
 BYTE   N10  Dn1
 BYTE   N10  An2
 BYTE   W12
 BYTE   PATT
  POIN2 Label_7_0185A812
 BYTE   PATT
  POIN2 Label_7_0185A836
 BYTE   PATT
  POIN2 Label_7_0185A836
 BYTE   PATT
  POIN2 Label_7_0185A836
 BYTE   PATT
  POIN2 Label_7_0185A836
 BYTE   PATT
  POIN2 Label_7_0185A836
 BYTE   PATT
  POIN2 Label_7_0185A836
 BYTE   PATT
  POIN2 Label_7_0185A836
 BYTE   PATT
  POIN2 Label_7_0185A812
 BYTE   PATT
  POIN2 Label_7_0185A836
// 022   ----------------------------------------
 BYTE   N05  Bn0  v092
 BYTE   W12
 BYTE   N10  Dn1
 BYTE   W12
 BYTE   N05  Bn0
 BYTE   W12
 BYTE   N10  Dn1
 BYTE   W06
 BYTE   N05  Bn0
 BYTE   W06
 BYTE   N05
 BYTE   W12
 BYTE   N10  Dn1
 BYTE   W12
 BYTE   N05  Dn2
 BYTE   W06
 BYTE   Bn1
 BYTE   W06
 BYTE   An1
 BYTE   W06
 BYTE   Gn1
 BYTE   W06
// 023   ----------------------------------------
 BYTE   N10  Bn0
 BYTE   N10  Dn1
 BYTE   N10  Cs2
 BYTE   W24
 BYTE   Bn0
 BYTE   N10  Dn1
 BYTE   N10  An2
 BYTE   W24
 BYTE   N05  Dn1
 BYTE   W06
 BYTE   N05
 BYTE   W06
 BYTE   N05
 BYTE   W06
 BYTE   N05
 BYTE   W06
 BYTE   N10
 BYTE   W24
 BYTE   PATT
  POIN2 Label_7_0185A812
// 024   ----------------------------------------
 BYTE   N05  Dn2  v092
 BYTE   W06
 BYTE   Bn1
 BYTE   W06
 BYTE   An1
 BYTE   W06
 BYTE   Gn1
 BYTE   W06
 BYTE   N10  Dn1
 BYTE   W36
 BYTE   N05  Dn2
 BYTE   W06
 BYTE   N05
 BYTE   W06
 BYTE   Bn1
 BYTE   W06
 BYTE   N05
 BYTE   W06
 BYTE   Gn1
 BYTE   W06
 BYTE   N05
 BYTE   W06
 BYTE   PATT
  POIN2 Label_7_0185A812
 BYTE   PATT
  POIN2 Label_7_0185A836
 BYTE   PATT
  POIN2 Label_7_0185A9F7
// 025   ----------------------------------------
 BYTE   N10  Bn0  v092
 BYTE   N10  Dn1
 BYTE   W72
 BYTE   Bn0
 BYTE   N10  Dn1
 BYTE   W24
 BYTE   PATT
  POIN2 Label_7_0185A812
 BYTE   PATT
  POIN2 Label_7_0185A836
 BYTE   PATT
  POIN2 Label_7_0185A836
 BYTE   PATT
  POIN2 Label_7_0185A886
 BYTE   PATT
  POIN2 Label_7_0185A8A7
 BYTE   PATT
  POIN2 Label_7_0185A8D8
 BYTE   PATT
  POIN2 Label_7_0185A8D8
// 026   ----------------------------------------
 BYTE   N16  Bn0  v092
 BYTE   N16  Dn1
 BYTE   N16  Cs2
 BYTE   W18
 BYTE   Bn0
 BYTE   N16  Dn1
 BYTE   N16  An2
 BYTE   W18
 BYTE   N10  Bn0
 BYTE   N10  Dn1
 BYTE   N10  Cs2
 BYTE   W12
 BYTE   Bn0
 BYTE   N10  Dn1
 BYTE   N10  An2
 BYTE   W12
 BYTE   N05  Dn1
 BYTE   W06
 BYTE   N05
 BYTE   W06
 BYTE   N05
 BYTE   W06
 BYTE   N05
 BYTE   W06
 BYTE   N05
 BYTE   W06
 BYTE   N05
 BYTE   W06
 BYTE   PATT
  POIN2 Label_7_0185A812
 BYTE   PATT
  POIN2 Label_7_0185A836
 BYTE   PATT
  POIN2 Label_7_0185A836
 BYTE   PATT
  POIN2 Label_7_0185A886
 BYTE   PATT
  POIN2 Label_7_0185A8A7
// 027   ----------------------------------------
 BYTE   N05  Bn0  v092
 BYTE   N10  Dn1
 BYTE   W06
 BYTE   N05  Bn0
 BYTE   W06
 BYTE   N05
 BYTE   W06
 BYTE   N05
 BYTE   W06
 BYTE   N05
 BYTE   N10  Dn1
 BYTE   W06
 BYTE   N05  Bn0
 BYTE   W06
 BYTE   N05
 BYTE   W06
 BYTE   N05
 BYTE   W06
 BYTE   N05
 BYTE   N10  Dn1
 BYTE   W06
 BYTE   N05  Bn0
 BYTE   W06
 BYTE   N05
 BYTE   N05  Dn1
 BYTE   W06
 BYTE   Bn0
 BYTE   N05  Dn1
 BYTE   W06
 BYTE   Bn0
 BYTE   N05  Dn1
 BYTE   W06
 BYTE   Bn0
 BYTE   N05  Dn1
 BYTE   W06
 BYTE   Bn0
 BYTE   N05  Dn1
 BYTE   W06
 BYTE   Bn0
 BYTE   N05  Dn1
 BYTE   W06
 BYTE   PATT
  POIN2 Label_7_0185A907
 BYTE   PATT
  POIN2 Label_7_0185A931
// 028   ----------------------------------------
 BYTE   N10  Bn0  v092
 BYTE   N10  Cs2
 BYTE   W24
 BYTE   Dn1
 BYTE   W12
 BYTE   Bn0
 BYTE   W12
 BYTE   N10
 BYTE   W06
 BYTE   N05  Dn1
 BYTE   W18
 BYTE   N10
 BYTE   W24
// 029   ----------------------------------------
 BYTE   Bn0
 BYTE   W24
 BYTE   Dn1
 BYTE   W12
 BYTE   Bn0
 BYTE   W12
 BYTE   N10
 BYTE   W06
 BYTE   N05  Dn1
 BYTE   W18
 BYTE   N10
 BYTE   W24
// 030   ----------------------------------------
 BYTE   Bn0
 BYTE   W24
 BYTE   Dn1
 BYTE   W12
 BYTE   Bn0
 BYTE   W12
 BYTE   N10
 BYTE   W12
 BYTE   N05  Dn1
 BYTE   W06
 BYTE   N05
 BYTE   W06
 BYTE   N05
 BYTE   W06
 BYTE   N05
 BYTE   W06
 BYTE   N05
 BYTE   W06
 BYTE   N05
 BYTE   W06
// 031   ----------------------------------------
 BYTE   GoTo
  POIN2 Label_7_0185A776
// 032   ----------------------------------------
 BYTE   N10  Bn0
 BYTE   W60
 BYTE   N05  Dn1
 BYTE   W06
 BYTE   N05
 BYTE   W06
 BYTE   N05
 BYTE   W06
 BYTE   N05
 BYTE   W06
 BYTE   N05
 BYTE   W06
 BYTE   N05
 BYTE   W06
 BYTE   FINE

//******************************************************//
	ALIGN 4

RomancingSaga3TheLastBattle7743:
	BYTE	8	// NumTrks
	BYTE	0	// NumBlks
	BYTE	RomancingSaga3TheLastBattle7743_pri	// Priority
	BYTE	RomancingSaga3TheLastBattle7743_rev	// Reverb.
    
	POIN2	RomancingSaga3TheLastBattle7743_grp
    
	POIN2	RomancingSaga3TheLastBattle7743_001
	POIN2	RomancingSaga3TheLastBattle7743_002
	POIN2	RomancingSaga3TheLastBattle7743_003
	POIN2	RomancingSaga3TheLastBattle7743_004
	POIN2	RomancingSaga3TheLastBattle7743_005
	POIN2	RomancingSaga3TheLastBattle7743_006
	POIN2	RomancingSaga3TheLastBattle7743_007
	POIN2	RomancingSaga3TheLastBattle7743_008

	
