//Event file generated from Sappy .s format.
	#include "MPlayDef.event"

	#define	SuperFamicomWarsFonRossoDerTheVaporeon_grp  voicegroup000
	#define	SuperFamicomWarsFonRossoDerTheVaporeon_pri  0
	#define	SuperFamicomWarsFonRossoDerTheVaporeon_rev  0
	#define	SuperFamicomWarsFonRossoDerTheVaporeon_mvl  127
	#define	SuperFamicomWarsFonRossoDerTheVaporeon_key  0
	#define	SuperFamicomWarsFonRossoDerTheVaporeon_tbs  1
	#define	SuperFamicomWarsFonRossoDerTheVaporeon_exg  0
	#define	SuperFamicomWarsFonRossoDerTheVaporeon_cmp  1

	// .rodata
	//	SuperFamicomWarsFonRossoDerTheVaporeon
	ALIGN 4

//**************** Track 1 (Midi-Chn.3) ****************//

SuperFamicomWarsFonRossoDerTheVaporeon_1:
	BYTE	KEYSH   SuperFamicomWarsFonRossoDerTheVaporeon_key+0
// 000   ----------------------------------------
	BYTE	TEMPO   102*SuperFamicomWarsFonRossoDerTheVaporeon_tbs/2
	BYTE		VOL     100*SuperFamicomWarsFonRossoDerTheVaporeon_mvl/mxv
	BYTE	W24
SuperFamicomWarsFonRossoDerTheVaporeon_1_B1:
	BYTE	W72
// 001   ----------------------------------------
	BYTE	W72
	BYTE	W03
	BYTE		N68     Fs2   v084
	BYTE	W21
// 002   ----------------------------------------
	BYTE	W48
	BYTE	W03
	BYTE		N52     En2   v076
	BYTE	W44
	BYTE	W01
// 003   ----------------------------------------
	BYTE	W96
// 004   ----------------------------------------
	BYTE	W72
	BYTE	W03
	BYTE		VOICE   52
	BYTE		PAN     c_v-25
	BYTE		N68     Fs3   v084
	BYTE	W21
// 005   ----------------------------------------
	BYTE	W48
	BYTE	W03
	BYTE		N52     En3   v076
	BYTE	W44
	BYTE	W01
// 006   ----------------------------------------
	BYTE	W28
	BYTE		N68     Dn4 
	BYTE	W68
// 007   ----------------------------------------
	BYTE	W04
	BYTE		        An4 
	BYTE	W72
	BYTE		        Bn4 
	BYTE	W20
// 008   ----------------------------------------
	BYTE	W52
	BYTE		        Cs5 
	BYTE	W44
// 009   ----------------------------------------
	BYTE	W28
	BYTE		        Dn4 
	BYTE	W68
// 010   ----------------------------------------
	BYTE	W04
	BYTE		        Cs5 
	BYTE	W72
	BYTE		        Bn4 
	BYTE	W20
// 011   ----------------------------------------
	BYTE	W52
	BYTE		        An4   v092
	BYTE	W44
// 012   ----------------------------------------
	BYTE	W24
	BYTE	W03
	BYTE	GoTo
	 POIN2	SuperFamicomWarsFonRossoDerTheVaporeon_1_B1
SuperFamicomWarsFonRossoDerTheVaporeon_1_B2:
	BYTE	FINE

//**************** Track 2 (Midi-Chn.4) ****************//

SuperFamicomWarsFonRossoDerTheVaporeon_2:
	BYTE	KEYSH   SuperFamicomWarsFonRossoDerTheVaporeon_key+0
// 000   ----------------------------------------
	BYTE		VOICE   68
	BYTE		VOL     75*SuperFamicomWarsFonRossoDerTheVaporeon_mvl/mxv
	BYTE	W24
SuperFamicomWarsFonRossoDerTheVaporeon_2_B1:
	BYTE	W03
	BYTE		VOICE   68
	BYTE		PAN     c_v+25
	BYTE		N04     Dn4   v080
	BYTE	W24
	BYTE	W03
	BYTE		N04   
	BYTE	W42
// 001   ----------------------------------------
	BYTE	W03
	BYTE		N04   
	BYTE	W24
	BYTE	W03
	BYTE		N04   
	BYTE	W44
	BYTE	W01
	BYTE		        Cs4 
	BYTE	W21
// 002   ----------------------------------------
	BYTE	W06
	BYTE		        Cs4   v088
	BYTE	W44
	BYTE	W01
	BYTE		        Cs4   v084
	BYTE	W24
	BYTE	W03
	BYTE		N13     Cs4   v076
	BYTE	W18
// 003   ----------------------------------------
	BYTE	W09
	BYTE		N06     Cs4   v072
	BYTE	W18
	BYTE		N04     Dn4   v084
	BYTE	W24
	BYTE	W03
	BYTE		        Dn4   v080
	BYTE	W42
// 004   ----------------------------------------
	BYTE	W03
	BYTE		        Dn4   v088
	BYTE	W24
	BYTE	W03
	BYTE		        Dn4   v080
	BYTE	W44
	BYTE	W01
	BYTE		        Cs4 
	BYTE	W21
// 005   ----------------------------------------
	BYTE	W06
	BYTE		        Cs4   v084
	BYTE	W44
	BYTE	W01
	BYTE		        Cs4   v076
	BYTE	W24
	BYTE	W03
	BYTE		N13     Cs4   v084
	BYTE	W18
// 006   ----------------------------------------
	BYTE		N02   
	BYTE	W09
	BYTE		        Cs4   v076
	BYTE	W09
	BYTE		N02   
	BYTE	W10
	BYTE		N68     Fs3 
	BYTE	W68
// 007   ----------------------------------------
	BYTE	W04
	BYTE		        Cs4 
	BYTE	W72
	BYTE		        Dn4 
	BYTE	W20
// 008   ----------------------------------------
	BYTE	W52
	BYTE		        En4 
	BYTE	W44
// 009   ----------------------------------------
	BYTE	W28
	BYTE		        Fs3 
	BYTE	W68
// 010   ----------------------------------------
	BYTE	W04
	BYTE		        An4 
	BYTE	W72
	BYTE		        Dn4 
	BYTE	W20
// 011   ----------------------------------------
	BYTE	W52
	BYTE		        Cs4   v092
	BYTE	W44
// 012   ----------------------------------------
	BYTE	W24
	BYTE	W03
	BYTE	GoTo
	 POIN2	SuperFamicomWarsFonRossoDerTheVaporeon_2_B1
SuperFamicomWarsFonRossoDerTheVaporeon_2_B2:
	BYTE	FINE

//**************** Track 3 (Midi-Chn.5) ****************//

SuperFamicomWarsFonRossoDerTheVaporeon_3:
	BYTE	KEYSH   SuperFamicomWarsFonRossoDerTheVaporeon_key+0
// 000   ----------------------------------------
	BYTE		VOICE   51
	BYTE		VOL     100*SuperFamicomWarsFonRossoDerTheVaporeon_mvl/mxv
	BYTE	W24
SuperFamicomWarsFonRossoDerTheVaporeon_3_B1:
	BYTE	W03
	BYTE		N02     Bn2   v108
	BYTE	W05
	BYTE		N03     Cs3   v088
	BYTE	W04
	BYTE		N06     Dn3   v092
	BYTE	W09
	BYTE		N02     Bn2   v108
	BYTE	W05
	BYTE		N03     Cs3   v084
	BYTE	W04
	BYTE		N06     Dn3   v088
	BYTE	W09
	BYTE		N03     Cs3   v104
	BYTE	W05
	BYTE		        Dn3   v084
	BYTE	W04
	BYTE		        En3   v092
	BYTE	W05
	BYTE		N06     Dn3   v100
	BYTE	W09
	BYTE		N03     Cs3   v088
	BYTE	W04
	BYTE		N06     Bn2   v092
	BYTE	W06
// 001   ----------------------------------------
	BYTE	W03
	BYTE		N02     Bn2   v108
	BYTE	W05
	BYTE		N03     Cs3   v088
	BYTE	W04
	BYTE		N06     Dn3   v096
	BYTE	W09
	BYTE		N02     Bn2   v104
	BYTE	W05
	BYTE		N03     Cs3   v084
	BYTE	W04
	BYTE		N06     Dn3   v092
	BYTE	W09
	BYTE		N03     Cs3   v108
	BYTE	W05
	BYTE		        Dn3   v084
	BYTE	W04
	BYTE		        En3   v092
	BYTE	W05
	BYTE		N06     Dn3   v104
	BYTE	W09
	BYTE		N03     Cs3   v084
	BYTE	W04
	BYTE		N06     Bn2   v092
	BYTE	W09
	BYTE		N68     Bn2   v100
	BYTE	W21
// 002   ----------------------------------------
SuperFamicomWarsFonRossoDerTheVaporeon_3_002:
	BYTE	W48
	BYTE	W03
	BYTE		N52     An2   v088
	BYTE	W44
	BYTE	W01
	BYTE	PEND
// 003   ----------------------------------------
	BYTE	W24
	BYTE	W03
	BYTE		N02     Bn2   v108
	BYTE	W05
	BYTE		N03     Cs3   v092
	BYTE	W04
	BYTE		N06     Dn3 
	BYTE	W09
	BYTE		N02     Bn2   v104
	BYTE	W05
	BYTE		N03     Cs3   v080
	BYTE	W04
	BYTE		N06     Dn3 
	BYTE	W09
	BYTE		N03     Cs3   v108
	BYTE	W05
	BYTE		        Dn3   v080
	BYTE	W04
	BYTE		        En3   v088
	BYTE	W05
	BYTE		N06     Dn3   v108
	BYTE	W09
	BYTE		N03     Cs3   v080
	BYTE	W04
	BYTE		N06     Bn2   v088
	BYTE	W06
// 004   ----------------------------------------
	BYTE	W03
	BYTE		N02     Bn2   v108
	BYTE	W05
	BYTE		N03     Cs3   v084
	BYTE	W04
	BYTE		N06     Dn3   v092
	BYTE	W09
	BYTE		N02     Bn2   v108
	BYTE	W05
	BYTE		N03     Cs3   v084
	BYTE	W04
	BYTE		N06     Dn3   v088
	BYTE	W09
	BYTE		N03     Cs3   v104
	BYTE	W05
	BYTE		        Dn3   v084
	BYTE	W04
	BYTE		        En3   v088
	BYTE	W05
	BYTE		N06     Dn3   v104
	BYTE	W09
	BYTE		N03     Cs3   v084
	BYTE	W04
	BYTE		N06     Bn2   v092
	BYTE	W09
	BYTE		N68     Bn2   v096
	BYTE	W21
// 005   ----------------------------------------
	BYTE	PATT
	 POIN2	SuperFamicomWarsFonRossoDerTheVaporeon_3_002
// 006   ----------------------------------------
	BYTE	W28
	BYTE		N13     Fs3   v092
	BYTE	W18
	BYTE		        En3   v088
	BYTE	W18
	BYTE		        Dn3 
	BYTE	W18
	BYTE		N09     Cs3 
	BYTE	W13
	BYTE		N03     Dn3   v076
	BYTE	W01
// 007   ----------------------------------------
	BYTE	W04
	BYTE		N32     Cs3   v092
	BYTE	W44
	BYTE	W01
	BYTE		N08     Dn3   v084
	BYTE	W09
	BYTE		N09     Cs3   v096
	BYTE	W13
	BYTE		N03     Bn2   v076
	BYTE	W05
	BYTE		N32     Bn2   v088
	BYTE	W20
// 008   ----------------------------------------
	BYTE	W24
	BYTE	W01
	BYTE		N08     Dn3 
	BYTE	W09
	BYTE		N09     En3 
	BYTE	W13
	BYTE		N03     Fs3   v076
	BYTE	W05
	BYTE		N32     En3   v088
	BYTE	W36
	BYTE		        Cs3 
	BYTE	W08
// 009   ----------------------------------------
	BYTE	W28
	BYTE		N13     Fs3 
	BYTE	W18
	BYTE		        En3   v084
	BYTE	W18
	BYTE		        Dn3   v088
	BYTE	W18
	BYTE		N09     Cs3 
	BYTE	W13
	BYTE		N03     Dn3   v076
	BYTE	W01
// 010   ----------------------------------------
	BYTE	W04
	BYTE		N32     Cs3   v088
	BYTE	W44
	BYTE	W01
	BYTE		N08     Dn3 
	BYTE	W09
	BYTE		N09     Cs3 
	BYTE	W13
	BYTE		N03     Bn2 
	BYTE	W05
	BYTE		N32   
	BYTE	W20
// 011   ----------------------------------------
	BYTE	W22
	BYTE		N05     Bn2   v076
	BYTE	W06
	BYTE		        Cs3   v084
	BYTE	W06
	BYTE		        Dn3   v092
	BYTE	W06
	BYTE		        En3   v076
	BYTE	W06
	BYTE		N04     Fs3   v084
	BYTE	W06
	BYTE		N32     Gn3   v092
	BYTE	W36
	BYTE		        Fs3   v104
	BYTE	W08
// 012   ----------------------------------------
	BYTE	W24
	BYTE	W03
	BYTE	GoTo
	 POIN2	SuperFamicomWarsFonRossoDerTheVaporeon_3_B1
SuperFamicomWarsFonRossoDerTheVaporeon_3_B2:
	BYTE	FINE

//**************** Track 4 (Midi-Chn.6) ****************//

SuperFamicomWarsFonRossoDerTheVaporeon_4:
	BYTE	KEYSH   SuperFamicomWarsFonRossoDerTheVaporeon_key+0
// 000   ----------------------------------------
	BYTE		VOICE   68
	BYTE		VOL     76*SuperFamicomWarsFonRossoDerTheVaporeon_mvl/mxv
	BYTE	W24
SuperFamicomWarsFonRossoDerTheVaporeon_4_B1:
	BYTE	W03
	BYTE		N04     Fs4   v088
	BYTE	W24
	BYTE	W03
	BYTE		N04   
	BYTE	W42
// 001   ----------------------------------------
SuperFamicomWarsFonRossoDerTheVaporeon_4_001:
	BYTE	W03
	BYTE		N04     Fs4   v092
	BYTE	W24
	BYTE	W03
	BYTE		N04   
	BYTE	W44
	BYTE	W01
	BYTE		        En4   v076
	BYTE	W21
	BYTE	PEND
// 002   ----------------------------------------
	BYTE	W06
	BYTE		        Fs4   v088
	BYTE	W44
	BYTE	W01
	BYTE		        En4   v092
	BYTE	W24
	BYTE	W03
	BYTE		N13     Fs4   v096
	BYTE	W18
// 003   ----------------------------------------
	BYTE	W09
	BYTE		N06     En4   v084
	BYTE	W18
	BYTE		N04     Fs4   v088
	BYTE	W24
	BYTE	W03
	BYTE		N04   
	BYTE	W42
// 004   ----------------------------------------
	BYTE	PATT
	 POIN2	SuperFamicomWarsFonRossoDerTheVaporeon_4_001
// 005   ----------------------------------------
	BYTE	W06
	BYTE		N04     Fs4   v088
	BYTE	W44
	BYTE	W01
	BYTE		        En4 
	BYTE	W24
	BYTE	W03
	BYTE		N13     Fs4   v096
	BYTE	W18
// 006   ----------------------------------------
	BYTE		N02     Fs4   v092
	BYTE	W09
	BYTE		        Fs4   v084
	BYTE	W09
	BYTE		N02   
	BYTE	W10
	BYTE		N13     Dn3   v092
	BYTE	W18
	BYTE		        Cs3   v088
	BYTE	W18
	BYTE		        Bn2 
	BYTE	W18
	BYTE		N09     An2 
	BYTE	W13
	BYTE		N03     Bn2   v076
	BYTE	W01
// 007   ----------------------------------------
	BYTE	W04
	BYTE		N32     An2   v092
	BYTE	W44
	BYTE	W01
	BYTE		N08     Bn2   v084
	BYTE	W09
	BYTE		N09     An2   v096
	BYTE	W13
	BYTE		N03     Gn2   v076
	BYTE	W05
	BYTE		N32     Gn2   v088
	BYTE	W20
// 008   ----------------------------------------
	BYTE	W24
	BYTE	W01
	BYTE		N08     Bn2 
	BYTE	W09
	BYTE		N09     Cs3 
	BYTE	W13
	BYTE		N03     Dn3   v076
	BYTE	W05
	BYTE		N32     Cs3   v088
	BYTE	W36
	BYTE		        An2 
	BYTE	W08
// 009   ----------------------------------------
	BYTE	W28
	BYTE		N13     Dn3 
	BYTE	W18
	BYTE		        Cs3   v084
	BYTE	W18
	BYTE		        Bn2   v088
	BYTE	W18
	BYTE		N09     An2 
	BYTE	W13
	BYTE		N03     Bn2   v076
	BYTE	W01
// 010   ----------------------------------------
	BYTE	W04
	BYTE		N32     An2   v088
	BYTE	W44
	BYTE	W01
	BYTE		N08     Bn2 
	BYTE	W09
	BYTE		N09     An2 
	BYTE	W13
	BYTE		N03     Gn2 
	BYTE	W05
	BYTE		N32   
	BYTE	W20
// 011   ----------------------------------------
	BYTE	W22
	BYTE		N05     Gn2   v076
	BYTE	W06
	BYTE		        An2   v084
	BYTE	W06
	BYTE		        Bn2   v092
	BYTE	W06
	BYTE		        Cs3   v076
	BYTE	W06
	BYTE		N04     Dn3   v084
	BYTE	W06
	BYTE		N32     En3   v092
	BYTE	W36
	BYTE		        En3   v100
	BYTE	W08
// 012   ----------------------------------------
	BYTE	W24
	BYTE	W03
	BYTE	GoTo
	 POIN2	SuperFamicomWarsFonRossoDerTheVaporeon_4_B1
SuperFamicomWarsFonRossoDerTheVaporeon_4_B2:
	BYTE	FINE

//**************** Track 5 (Midi-Chn.7) ****************//

SuperFamicomWarsFonRossoDerTheVaporeon_5:
	BYTE	KEYSH   SuperFamicomWarsFonRossoDerTheVaporeon_key+0
// 000   ----------------------------------------
	BYTE		VOICE   34
	BYTE	W24
SuperFamicomWarsFonRossoDerTheVaporeon_5_B1:
	BYTE	W01
	BYTE		VOICE   2
	BYTE		VOL     115*SuperFamicomWarsFonRossoDerTheVaporeon_mvl/mxv
	BYTE		PAN     c_v+0
	BYTE	W02
	BYTE		VOICE   34
	BYTE		VOL     115*SuperFamicomWarsFonRossoDerTheVaporeon_mvl/mxv
	BYTE		PAN     c_v+0
	BYTE		N09     Bn2   v104
	BYTE	W24
	BYTE	W03
	BYTE		        Bn2   v100
	BYTE	W24
	BYTE	W03
	BYTE		N03     Bn2   v092
	BYTE	W05
	BYTE		        Bn2   v104
	BYTE	W04
	BYTE		        Fs2   v072
	BYTE	W05
	BYTE		        Bn2   v084
	BYTE	W01
// 001   ----------------------------------------
	BYTE	W03
	BYTE		N09     Bn2   v104
	BYTE	W24
	BYTE	W03
	BYTE		        Bn2   v100
	BYTE	W24
	BYTE	W03
	BYTE		N03     Bn2   v116
	BYTE	W05
	BYTE		        Dn3   v096
	BYTE	W04
	BYTE		        Bn2   v120
	BYTE	W05
	BYTE		        Fs2   v080
	BYTE	W04
	BYTE		N09     An2   v104
	BYTE	W21
// 002   ----------------------------------------
	BYTE	W06
	BYTE		        An2   v100
	BYTE	W24
	BYTE	W03
	BYTE		N03     An2   v096
	BYTE	W05
	BYTE		        An2   v100
	BYTE	W04
	BYTE		        En2   v072
	BYTE	W05
	BYTE		        An2   v084
	BYTE	W04
	BYTE		N09     An2   v104
	BYTE	W24
	BYTE	W03
	BYTE		        An2   v108
	BYTE	W18
// 003   ----------------------------------------
	BYTE	W09
	BYTE		N03     An2   v096
	BYTE	W05
	BYTE		        An2   v100
	BYTE	W04
	BYTE		        En2   v072
	BYTE	W05
	BYTE		        An2   v084
	BYTE	W04
	BYTE		N09     Bn2   v104
	BYTE	W24
	BYTE	W03
	BYTE		        Bn2   v100
	BYTE	W24
	BYTE	W03
	BYTE		N03     Bn2   v092
	BYTE	W05
	BYTE		        Bn2   v100
	BYTE	W04
	BYTE		        Fs2   v072
	BYTE	W05
	BYTE		        Bn2   v084
	BYTE	W01
// 004   ----------------------------------------
	BYTE	W03
	BYTE		N09     Bn2   v104
	BYTE	W24
	BYTE	W03
	BYTE		        Bn2   v108
	BYTE	W24
	BYTE	W03
	BYTE		N03     Bn2   v116
	BYTE	W05
	BYTE		        Dn3   v096
	BYTE	W04
	BYTE		        Bn2   v120
	BYTE	W05
	BYTE		        Fs2   v080
	BYTE	W04
	BYTE		N09     An2   v104
	BYTE	W21
// 005   ----------------------------------------
	BYTE	W06
	BYTE		        An2   v100
	BYTE	W24
	BYTE	W03
	BYTE		N03     An2   v096
	BYTE	W05
	BYTE		        An2   v100
	BYTE	W04
	BYTE		        En2   v072
	BYTE	W05
	BYTE		        An2   v084
	BYTE	W04
	BYTE		N17     An2   v104
	BYTE	W18
	BYTE		N01     An3   v096
	BYTE	W09
	BYTE		N17     An2   v104
	BYTE	W18
// 006   ----------------------------------------
	BYTE		N07     An2   v096
	BYTE	W09
	BYTE		        An2   v104
	BYTE	W09
	BYTE		        An2   v096
	BYTE	W10
	BYTE		N04     Bn2   v104
	BYTE	W13
	BYTE		N06     Bn2   v084
	BYTE	W14
	BYTE		N10     Bn2   v096
	BYTE	W13
	BYTE		N02     Bn2   v104
	BYTE	W14
	BYTE		N06     Bn2   v108
	BYTE	W09
	BYTE		        Bn2   v092
	BYTE	W05
// 007   ----------------------------------------
	BYTE	W04
	BYTE		N04     Fs3   v104
	BYTE	W13
	BYTE		N06     Fs3   v084
	BYTE	W14
	BYTE		N10     Fs3   v100
	BYTE	W13
	BYTE		N02     Fs3   v108
	BYTE	W14
	BYTE		N06   
	BYTE	W09
	BYTE		        Fs3   v096
	BYTE	W09
	BYTE		N04     Gn3   v104
	BYTE	W13
	BYTE		N06     Gn3   v084
	BYTE	W07
// 008   ----------------------------------------
	BYTE	W07
	BYTE		N10     Gn3   v096
	BYTE	W13
	BYTE		N02     Gn3   v104
	BYTE	W14
	BYTE		N06     Gn3   v108
	BYTE	W09
	BYTE		N07     Gn3   v092
	BYTE	W09
	BYTE		N03     An3   v104
	BYTE	W13
	BYTE		N04     An3   v088
	BYTE	W14
	BYTE		N13     En3   v092
	BYTE	W17
// 009   ----------------------------------------
	BYTE	W01
	BYTE		N01     An3   v116
	BYTE	W09
	BYTE		N15     En3   v108
	BYTE	W18
	BYTE		N04     Bn2   v104
	BYTE	W13
	BYTE		N06     Bn2   v084
	BYTE	W14
	BYTE		N10     Bn2   v100
	BYTE	W13
	BYTE		N02     Bn2   v104
	BYTE	W14
	BYTE		N06     Bn2   v108
	BYTE	W09
	BYTE		        Bn2   v092
	BYTE	W05
// 010   ----------------------------------------
	BYTE	W04
	BYTE		N04     Fs3   v104
	BYTE	W13
	BYTE		N06     Fs3   v088
	BYTE	W14
	BYTE		N10     Fs3   v096
	BYTE	W13
	BYTE		N02     Fs3   v104
	BYTE	W14
	BYTE		N06     Fs3   v108
	BYTE	W09
	BYTE		        Fs3   v096
	BYTE	W09
	BYTE		N04     Gn3   v108
	BYTE	W13
	BYTE		N06     Gn3   v084
	BYTE	W07
// 011   ----------------------------------------
	BYTE	W07
	BYTE		N10     Gn3   v100
	BYTE	W13
	BYTE		N02     Gn3   v108
	BYTE	W14
	BYTE		N06     Gn3   v104
	BYTE	W09
	BYTE		N07     Gn3   v092
	BYTE	W09
	BYTE		N04     Fs3   v108
	BYTE	W13
	BYTE		N06     Fs3   v084
	BYTE	W14
	BYTE		N10     Fs3   v100
	BYTE	W13
	BYTE		N02     Fs3   v104
	BYTE	W04
// 012   ----------------------------------------
	BYTE	W10
	BYTE		N17     Fs3   v108
	BYTE	W17
	BYTE	GoTo
	 POIN2	SuperFamicomWarsFonRossoDerTheVaporeon_5_B1
SuperFamicomWarsFonRossoDerTheVaporeon_5_B2:
	BYTE	FINE

//**************** Track 6 (Midi-Chn.9) ****************//

SuperFamicomWarsFonRossoDerTheVaporeon_6:
	BYTE	KEYSH   SuperFamicomWarsFonRossoDerTheVaporeon_key+0
// 000   ----------------------------------------
	BYTE		VOICE   127
	BYTE		VOL     110*SuperFamicomWarsFonRossoDerTheVaporeon_mvl/mxv
	BYTE		N08     Cn1   v100
	BYTE	W09
	BYTE		N01     Cs1   v084
	BYTE	W05
	BYTE		N12     Cn1   v096
	BYTE	W10
SuperFamicomWarsFonRossoDerTheVaporeon_6_B1:
	BYTE	W03
	BYTE		N24     Cn1   v096
	BYTE		N08     Ds1   v084
	BYTE	W09
	BYTE		        Ds1   v056
	BYTE	W09
	BYTE		        Ds1   v080
	BYTE	W09
	BYTE		N17     Cn1   v084
	BYTE		N03     Ds1   v052
	BYTE	W05
	BYTE		        Ds1   v068
	BYTE	W04
	BYTE		        Ds1   v092
	BYTE	W05
	BYTE		        Ds1   v056
	BYTE	W04
	BYTE		N08     Cn1   v100
	BYTE		N08     Dn1   v080
	BYTE	W09
	BYTE		N17     Cs1   v100
	BYTE		N08     Ds1   v076
	BYTE	W09
	BYTE		N08   
	BYTE	W06
// 001   ----------------------------------------
	BYTE	W03
	BYTE		N24     Cn1   v096
	BYTE		N08     Ds1   v084
	BYTE	W09
	BYTE		        Ds1   v056
	BYTE	W09
	BYTE		        Ds1   v080
	BYTE	W09
	BYTE		N17     Cn1 
	BYTE		N03     Ds1   v060
	BYTE	W05
	BYTE		        Ds1   v068
	BYTE	W04
	BYTE		        Ds1   v092
	BYTE	W05
	BYTE		        Ds1   v056
	BYTE	W04
	BYTE		N08     Cn1   v096
	BYTE		N08     Dn1   v076
	BYTE	W09
	BYTE		N03     Cs1   v100
	BYTE		N08     Ds1   v076
	BYTE	W05
	BYTE		        Cs1   v092
	BYTE	W04
	BYTE		N02     Dn1   v068
	BYTE	W05
	BYTE		N03     Cn1   v072
	BYTE	W04
	BYTE		N24     Cn1   v096
	BYTE		N08     Ds1   v084
	BYTE	W09
	BYTE		        Ds1   v056
	BYTE	W09
	BYTE		        Ds1   v080
	BYTE	W03
// 002   ----------------------------------------
	BYTE	W06
	BYTE		N17     Cn1   v084
	BYTE		N03     Ds1   v052
	BYTE	W05
	BYTE		        Ds1   v068
	BYTE	W04
	BYTE		        Ds1   v092
	BYTE	W05
	BYTE		        Ds1   v056
	BYTE	W04
	BYTE		N08     Cn1   v096
	BYTE		N08     Dn1   v080
	BYTE	W09
	BYTE		N17     Cs1   v100
	BYTE		N08     Ds1   v076
	BYTE	W09
	BYTE		N08   
	BYTE	W09
	BYTE		N24     Cn1   v096
	BYTE		N08     Ds1   v084
	BYTE	W09
	BYTE		        Ds1   v056
	BYTE	W09
	BYTE		        Ds1   v080
	BYTE	W09
	BYTE		N17     Cn1 
	BYTE		N03     Ds1   v060
	BYTE	W05
	BYTE		        Ds1   v068
	BYTE	W04
	BYTE		        Ds1   v092
	BYTE	W05
	BYTE		        Ds1   v056
	BYTE	W04
// 003   ----------------------------------------
	BYTE		N08     Cn1   v096
	BYTE		N08     Dn1   v076
	BYTE	W09
	BYTE		N03     Cs1   v112
	BYTE		N08     Ds1   v076
	BYTE	W05
	BYTE		N03     Cs1   v080
	BYTE	W04
	BYTE		N08     Cs1   v104
	BYTE		N02     Dn1   v068
	BYTE	W09
	BYTE		N24     Cn1   v096
	BYTE		N08     Ds1   v084
	BYTE	W09
	BYTE		        Ds1   v056
	BYTE	W09
	BYTE		        Ds1   v080
	BYTE	W09
	BYTE		N17     Cn1   v084
	BYTE		N03     Ds1   v052
	BYTE	W05
	BYTE		        Ds1   v068
	BYTE	W04
	BYTE		        Ds1   v092
	BYTE	W05
	BYTE		        Ds1   v056
	BYTE	W04
	BYTE		N08     Cn1   v096
	BYTE		N08     Dn1   v080
	BYTE	W09
	BYTE		N17     Cs1   v104
	BYTE		N08     Ds1   v076
	BYTE	W09
	BYTE		N08   
	BYTE	W06
// 004   ----------------------------------------
	BYTE	W03
	BYTE		N24     Cn1   v096
	BYTE		N08     Ds1   v084
	BYTE	W09
	BYTE		        Ds1   v056
	BYTE	W09
	BYTE		        Ds1   v080
	BYTE	W09
	BYTE		N17     Cn1 
	BYTE		N03     Ds1   v060
	BYTE	W05
	BYTE		        Ds1   v068
	BYTE	W04
	BYTE		        Ds1   v092
	BYTE	W05
	BYTE		        Ds1   v056
	BYTE	W04
	BYTE		N08     Cn1   v096
	BYTE		N08     Dn1   v076
	BYTE	W09
	BYTE		N03     Cs1   v100
	BYTE		N08     Ds1   v076
	BYTE	W05
	BYTE		        Cs1   v092
	BYTE	W04
	BYTE		N02     Dn1   v068
	BYTE	W05
	BYTE		N03     Cn1   v076
	BYTE	W04
	BYTE		N24     Cn1   v096
	BYTE		N08     Ds1   v084
	BYTE	W09
	BYTE		        Ds1   v056
	BYTE	W09
	BYTE		        Ds1   v080
	BYTE	W03
// 005   ----------------------------------------
	BYTE	W06
	BYTE		N17     Cn1   v084
	BYTE		N03     Ds1   v052
	BYTE	W05
	BYTE		        Ds1   v068
	BYTE	W04
	BYTE		        Ds1   v092
	BYTE	W05
	BYTE		        Ds1   v056
	BYTE	W04
	BYTE		N08     Cn1   v096
	BYTE		N08     Dn1   v080
	BYTE	W09
	BYTE		N17     Cs1   v100
	BYTE		N08     Ds1   v076
	BYTE	W09
	BYTE		N08   
	BYTE	W09
	BYTE		N17     Cn1   v096
	BYTE		N08     Ds1   v084
	BYTE	W09
	BYTE		        Ds1   v056
	BYTE	W09
	BYTE		        Cs1   v104
	BYTE		N08     Ds1   v080
	BYTE	W09
	BYTE		        Cn1   v100
	BYTE		N08     Dn1   v084
	BYTE	W09
	BYTE		        Cs1   v092
	BYTE	W01
	BYTE		        Gs0   v072
	BYTE	W08
// 006   ----------------------------------------
	BYTE		        Cs1   v076
	BYTE	W01
	BYTE		        Gs0   v068
	BYTE	W08
	BYTE		        Cs1   v096
	BYTE	W01
	BYTE		        Gs0   v072
	BYTE	W08
	BYTE		        Cs1   v112
	BYTE	W01
	BYTE		N07     Gs0   v084
	BYTE	W09
	BYTE		N12     Cn1   v092
	BYTE		N03     Ds1   v084
	BYTE	W04
	BYTE		        Ds1   v056
	BYTE	W05
	BYTE		        Ds1   v068
	BYTE	W04
	BYTE		        Cn1   v080
	BYTE		N03     Ds1   v044
	BYTE	W05
	BYTE		N08     Cs1   v104
	BYTE		N03     Ds1   v068
	BYTE	W04
	BYTE		        Ds1   v056
	BYTE	W05
	BYTE		N17     Cn1   v072
	BYTE		N03     Ds1   v080
	BYTE	W04
	BYTE		        Ds1   v056
	BYTE	W05
	BYTE		        Ds1   v068
	BYTE	W04
	BYTE		        Ds1   v056
	BYTE	W05
	BYTE		N08     Cn1   v092
	BYTE		N03     Ds1 
	BYTE	W04
	BYTE		        Ds1   v056
	BYTE	W05
	BYTE		N08     Cs1   v100
	BYTE		N03     Ds1   v076
	BYTE	W04
	BYTE		        Ds1   v056
	BYTE	W05
	BYTE		N08     Cn1   v072
	BYTE		N03     Ds1   v056
	BYTE	W04
	BYTE		N03   
	BYTE	W01
// 007   ----------------------------------------
	BYTE	W04
	BYTE		N12     Cn1   v088
	BYTE		N03     Ds1   v084
	BYTE	W04
	BYTE		        Ds1   v056
	BYTE	W05
	BYTE		        Ds1   v068
	BYTE	W04
	BYTE		        Cn1   v084
	BYTE		N03     Ds1   v044
	BYTE	W05
	BYTE		N08     Cs1   v104
	BYTE		N03     Ds1   v068
	BYTE	W04
	BYTE		        Ds1   v056
	BYTE	W05
	BYTE		N08     Cn1   v084
	BYTE		N03     Ds1   v080
	BYTE	W04
	BYTE		        Ds1   v056
	BYTE	W05
	BYTE		        Cn1   v076
	BYTE		N03     Ds1   v068
	BYTE	W04
	BYTE		N08     Cn1   v084
	BYTE		N03     Ds1   v056
	BYTE	W05
	BYTE		        Ds1   v092
	BYTE	W04
	BYTE		        Cn1   v076
	BYTE		N03     Ds1   v056
	BYTE	W05
	BYTE		N08     Cs1   v104
	BYTE		N03     Ds1   v076
	BYTE	W04
	BYTE		        Ds1   v056
	BYTE	W05
	BYTE		N08     Cn1   v064
	BYTE		N03     Ds1   v056
	BYTE	W04
	BYTE		N03   
	BYTE	W05
	BYTE		N12     Cn1   v096
	BYTE		N03     Ds1   v084
	BYTE	W04
	BYTE		        Ds1   v056
	BYTE	W05
	BYTE		        Ds1   v068
	BYTE	W04
	BYTE		        Cn1   v080
	BYTE		N03     Ds1   v044
	BYTE	W05
	BYTE		N08     Cs1   v104
	BYTE		N03     Ds1   v068
	BYTE	W02
// 008   ----------------------------------------
	BYTE	W02
	BYTE		        Ds1   v056
	BYTE	W05
	BYTE		N17     Cn1   v076
	BYTE		N03     Ds1   v080
	BYTE	W04
	BYTE		        Ds1   v056
	BYTE	W05
	BYTE		        Ds1   v068
	BYTE	W04
	BYTE		        Ds1   v056
	BYTE	W05
	BYTE		N08     Cn1   v088
	BYTE		N03     Ds1   v092
	BYTE	W04
	BYTE		        Ds1   v056
	BYTE	W05
	BYTE		N08     Cs1   v104
	BYTE		N03     Ds1   v076
	BYTE	W04
	BYTE		        Ds1   v056
	BYTE	W05
	BYTE		N08     Cn1   v072
	BYTE		N03     Ds1   v056
	BYTE	W04
	BYTE		N03   
	BYTE	W05
	BYTE		N12     Cn1   v096
	BYTE		N03     Ds1   v084
	BYTE	W04
	BYTE		        Ds1   v056
	BYTE	W05
	BYTE		        Ds1   v068
	BYTE	W04
	BYTE		        Cn1   v076
	BYTE		N03     Ds1   v044
	BYTE	W05
	BYTE		N08     Cs1   v104
	BYTE		N03     Ds1   v068
	BYTE	W04
	BYTE		        Ds1   v056
	BYTE	W05
	BYTE		N12     Cn1   v096
	BYTE		N03     Ds1   v080
	BYTE	W04
	BYTE		        Ds1   v056
	BYTE	W05
	BYTE		        Ds1   v068
	BYTE	W04
	BYTE		        Cn1   v084
	BYTE		N03     Ds1   v056
	BYTE	W04
// 009   ----------------------------------------
	BYTE	W01
	BYTE		N08     Cn1   v092
	BYTE		N03     Ds1 
	BYTE	W04
	BYTE		        Ds1   v056
	BYTE	W05
	BYTE		        Cs1   v108
	BYTE		N03     Ds1   v076
	BYTE	W04
	BYTE		        Cs1   v080
	BYTE		N03     Ds1   v056
	BYTE	W05
	BYTE		N08     Cs1   v112
	BYTE		N03     Ds1   v056
	BYTE	W04
	BYTE		N03   
	BYTE	W05
	BYTE		N12     Cn1   v092
	BYTE		N03     Ds1   v084
	BYTE	W04
	BYTE		        Ds1   v056
	BYTE	W05
	BYTE		        Ds1   v068
	BYTE	W04
	BYTE		        Cn1   v080
	BYTE		N03     Ds1   v044
	BYTE	W05
	BYTE		N08     Cs1   v104
	BYTE		N03     Ds1   v068
	BYTE	W04
	BYTE		        Ds1   v056
	BYTE	W05
	BYTE		N17     Cn1   v076
	BYTE		N03     Ds1   v080
	BYTE	W04
	BYTE		        Ds1   v056
	BYTE	W05
	BYTE		        Ds1   v068
	BYTE	W04
	BYTE		        Ds1   v056
	BYTE	W05
	BYTE		N08     Cn1   v096
	BYTE		N03     Ds1   v092
	BYTE	W04
	BYTE		        Ds1   v056
	BYTE	W05
	BYTE		N08     Cs1   v100
	BYTE		N03     Ds1   v076
	BYTE	W04
	BYTE		        Ds1   v056
	BYTE	W05
	BYTE		N08     Cn1   v072
	BYTE		N03     Ds1   v056
	BYTE	W04
	BYTE		N03   
	BYTE	W01
// 010   ----------------------------------------
	BYTE	W04
	BYTE		N12     Cn1   v092
	BYTE		N03     Ds1   v084
	BYTE	W04
	BYTE		        Ds1   v056
	BYTE	W05
	BYTE		        Ds1   v068
	BYTE	W04
	BYTE		        Cn1   v080
	BYTE		N03     Ds1   v044
	BYTE	W05
	BYTE		N08     Cs1   v104
	BYTE		N03     Ds1   v068
	BYTE	W04
	BYTE		        Ds1   v056
	BYTE	W05
	BYTE		N08     Cn1   v076
	BYTE		N03     Ds1   v080
	BYTE	W04
	BYTE		        Ds1   v056
	BYTE	W05
	BYTE		        Cn1   v072
	BYTE		N03     Ds1   v068
	BYTE	W04
	BYTE		N08     Cn1   v084
	BYTE		N03     Ds1   v056
	BYTE	W05
	BYTE		        Ds1   v092
	BYTE	W04
	BYTE		        Cn1   v080
	BYTE		N03     Ds1   v056
	BYTE	W05
	BYTE		N08     Cs1   v100
	BYTE		N03     Ds1   v076
	BYTE	W04
	BYTE		        Ds1   v056
	BYTE	W05
	BYTE		N08     Cn1   v068
	BYTE		N03     Ds1   v056
	BYTE	W04
	BYTE		N03   
	BYTE	W05
	BYTE		N12     Cn1   v092
	BYTE		N03     Ds1   v084
	BYTE	W04
	BYTE		        Ds1   v056
	BYTE	W05
	BYTE		        Ds1   v068
	BYTE	W04
	BYTE		        Cn1   v080
	BYTE		N03     Ds1   v044
	BYTE	W05
	BYTE		N08     Cs1   v104
	BYTE		N03     Ds1   v068
	BYTE	W02
// 011   ----------------------------------------
	BYTE	W02
	BYTE		        Ds1   v056
	BYTE	W05
	BYTE		N17     Cn1   v076
	BYTE		N03     Ds1   v080
	BYTE	W04
	BYTE		        Ds1   v056
	BYTE	W05
	BYTE		        Ds1   v068
	BYTE	W04
	BYTE		        Ds1   v056
	BYTE	W05
	BYTE		N08     Cn1   v096
	BYTE		N03     Ds1   v092
	BYTE	W04
	BYTE		        Ds1   v056
	BYTE	W05
	BYTE		N08     Cs1   v104
	BYTE		N03     Ds1   v076
	BYTE	W04
	BYTE		        Ds1   v056
	BYTE	W05
	BYTE		N08     Cn1   v084
	BYTE		N03     Ds1   v056
	BYTE	W04
	BYTE		N03   
	BYTE	W05
	BYTE		N12     Cn1   v096
	BYTE		N03     Ds1   v092
	BYTE	W04
	BYTE		        Ds1   v056
	BYTE	W05
	BYTE		        Ds1   v076
	BYTE	W04
	BYTE		        Cn1 
	BYTE		N03     Ds1   v044
	BYTE	W05
	BYTE		N08     Cs1   v100
	BYTE		N03     Ds1   v068
	BYTE	W04
	BYTE		        Ds1   v044
	BYTE	W05
	BYTE		N08     Cn1   v076
	BYTE		N08     Dn1   v072
	BYTE	W09
	BYTE		N07     Cs1   v108
	BYTE	W08
// 012   ----------------------------------------
	BYTE	W01
	BYTE		N03     En0   v076
	BYTE		N08     Cn1   v084
	BYTE	W04
	BYTE		N03     Fn0   v060
	BYTE	W05
	BYTE		        Fs0   v092
	BYTE		N17     Cn1   v096
	BYTE	W04
	BYTE		N03     Gn0   v064
	BYTE	W05
	BYTE		        Gs0   v088
	BYTE	W04
	BYTE		        An0   v084
	BYTE	W04
	BYTE	GoTo
	 POIN2	SuperFamicomWarsFonRossoDerTheVaporeon_6_B1
SuperFamicomWarsFonRossoDerTheVaporeon_6_B2:
	BYTE	FINE

//******************************************************//
	ALIGN 4

SuperFamicomWarsFonRossoDerTheVaporeon:
	BYTE	6	// NumTrks
	BYTE	0	// NumBlks
	BYTE	SuperFamicomWarsFonRossoDerTheVaporeon_pri	// Priority
	BYTE	SuperFamicomWarsFonRossoDerTheVaporeon_rev	// Reverb.

	POIN2	SuperFamicomWarsFonRossoDerTheVaporeon_grp

	POIN2	SuperFamicomWarsFonRossoDerTheVaporeon_1
	POIN2	SuperFamicomWarsFonRossoDerTheVaporeon_2
	POIN2	SuperFamicomWarsFonRossoDerTheVaporeon_3
	POIN2	SuperFamicomWarsFonRossoDerTheVaporeon_4
	POIN2	SuperFamicomWarsFonRossoDerTheVaporeon_5
	POIN2	SuperFamicomWarsFonRossoDerTheVaporeon_6

	
