//Event file generated from Sappy .s format.
	#include "MPlayDef.event"

	#define	CastlevaniaPortraitofRuinIronBlueIntentionRSflame_grp  voicegroup000
	#define	CastlevaniaPortraitofRuinIronBlueIntentionRSflame_pri  10
	#define	CastlevaniaPortraitofRuinIronBlueIntentionRSflame_rev  0
	#define	CastlevaniaPortraitofRuinIronBlueIntentionRSflame_mvl  127
	#define	CastlevaniaPortraitofRuinIronBlueIntentionRSflame_key  0
	#define	CastlevaniaPortraitofRuinIronBlueIntentionRSflame_tbs  1
	#define	CastlevaniaPortraitofRuinIronBlueIntentionRSflame_exg  0
	#define	CastlevaniaPortraitofRuinIronBlueIntentionRSflame_cmp  1

	// .rodata
	//	CastlevaniaPortraitofRuinIronBlueIntentionRSflame
	ALIGN 4


//**************** Track 1 (Midi-Chn.0) ****************//

CastlevaniaPortraitofRuinIronBlueIntentionRSflame_001:
// 000   ----------------------------------------
Label_0_01EA6188:
 BYTE   TEMPO   134*CastlevaniaPortraitofRuinIronBlueIntentionRSflame_tbs/2
 BYTE   KEYSH   CastlevaniaPortraitofRuinIronBlueIntentionRSflame_key+0
 BYTE   VOICE   33
 BYTE   VOL   37*CastlevaniaPortraitofRuinIronBlueIntentionRSflame_mvl/mxv
 BYTE   PAN   c_v+0
 BYTE   W96
// 001   ----------------------------------------
 BYTE   W96
// 002   ----------------------------------------
 BYTE   W96
// 003   ----------------------------------------
 BYTE   W96
// 004   ----------------------------------------
 BYTE   W96
// 005   ----------------------------------------
 BYTE   W96
// 006   ----------------------------------------
 BYTE   W96
// 007   ----------------------------------------
 BYTE   W72
 BYTE   N04  An0  v127
 BYTE   W04
 BYTE   Gs0
 BYTE   W04
 BYTE   Gn0
 BYTE   W04
 BYTE   Fs0
 BYTE   W04
 BYTE   Fn0
 BYTE   W04
 BYTE   En0
 BYTE   W04
// 008   ----------------------------------------
 BYTE   N09  Dn0
 BYTE   W12
 BYTE   Dn0
 BYTE   W12
 BYTE   N17  An0
 BYTE   W18
 BYTE   N10  Dn0
 BYTE   W12
 BYTE   Dn0
 BYTE   W12
 BYTE   N05
 BYTE   W06
Label_0_01EA61B7:
 BYTE   N11  An0  v127
 BYTE   W12
 BYTE   N10  Dn0
 BYTE   W12
// 009   ----------------------------------------
 BYTE   N09
 BYTE   W12
 BYTE   Dn0
 BYTE   W12
 BYTE   N17  As0
 BYTE   W18
 BYTE   N10  Dn0
 BYTE   W12
 BYTE   Dn0
 BYTE   W12
 BYTE   N05
 BYTE   W06
 BYTE   PEND 
Label_0_01EA61CD:
 BYTE   N11  As0  v127
 BYTE   W12
 BYTE   N10  Dn0
 BYTE   W12
// 010   ----------------------------------------
 BYTE   N09
 BYTE   W12
 BYTE   Dn0
 BYTE   W12
 BYTE   N17  Cs1
 BYTE   W18
 BYTE   N10  Dn0
 BYTE   W12
 BYTE   Dn0
 BYTE   W12
 BYTE   N05
 BYTE   W06
 BYTE   PEND 
 BYTE   N11  Cs1  v127
 BYTE   W12
 BYTE   N10  Dn0
 BYTE   W12
// 011   ----------------------------------------
 BYTE   N09
 BYTE   W12
 BYTE   Dn0
 BYTE   W12
 BYTE   N17  Dn1
 BYTE   W18
 BYTE   N11  Dn0
 BYTE   W12
 BYTE   N10  Dn1
 BYTE   W12
 BYTE   N05  Dn0
 BYTE   W06
Label_0_01EA61FA:
 BYTE   N11  Cn1  v127
 BYTE   W12
 BYTE   Dn1
 BYTE   W12
// 012   ----------------------------------------
 BYTE   N09  As0
 BYTE   W12
 BYTE   As0
 BYTE   W12
 BYTE   N16
 BYTE   W18
 BYTE   N11
 BYTE   W12
 BYTE   Cn1
 BYTE   W12
 BYTE   N05  As0
 BYTE   W06
 BYTE   PEND 
Label_0_01EA620F:
 BYTE   N11  Cn1  v127
 BYTE   W12
 BYTE   En1
 BYTE   W12
// 013   ----------------------------------------
 BYTE   N09  An0
 BYTE   W12
 BYTE   An0
 BYTE   W12
 BYTE   N16
 BYTE   W18
 BYTE   N11
 BYTE   W12
 BYTE   As0
 BYTE   W12
 BYTE   N05  An0
 BYTE   W06
 BYTE   PEND 
Label_0_01EA6224:
 BYTE   N11  As0  v127
 BYTE   W12
 BYTE   Dn1
 BYTE   W12
// 014   ----------------------------------------
 BYTE   N09  Gn0
 BYTE   W12
 BYTE   Gn0
 BYTE   W12
 BYTE   N16
 BYTE   W18
 BYTE   N10
 BYTE   W12
 BYTE   N11
 BYTE   W12
 BYTE   N05  Fs0
 BYTE   W06
 BYTE   PEND 
 BYTE   N10  Gn0  v127
 BYTE   W12
 BYTE   N11
 BYTE   W12
// 015   ----------------------------------------
 BYTE   N09  Gs0
 BYTE   W12
 BYTE   Gs0
 BYTE   W12
 BYTE   N16
 BYTE   W18
 BYTE   N10  An0
 BYTE   W12
 BYTE   N11
 BYTE   W12
 BYTE   N05  En0
 BYTE   W06
 BYTE   N10  An0
 BYTE   W12
 BYTE   N11
 BYTE   W12
// 016   ----------------------------------------
 BYTE   N09  Dn0
 BYTE   W12
 BYTE   Dn0
 BYTE   W12
 BYTE   N17  An0
 BYTE   W18
 BYTE   N10  Dn0
 BYTE   W12
 BYTE   Dn0
 BYTE   W12
 BYTE   N05
 BYTE   W06
// 017   ----------------------------------------
 BYTE   PATT
  POIN2 Label_0_01EA61B7
// 018   ----------------------------------------
 BYTE   PATT
  POIN2 Label_0_01EA61CD
// 019   ----------------------------------------
 BYTE   N11  Cs1  v127
 BYTE   W12
 BYTE   N10  Dn0
 BYTE   W12
 BYTE   N09
 BYTE   W12
 BYTE   Dn0
 BYTE   W12
 BYTE   N17  Dn1
 BYTE   W18
 BYTE   N11  Dn0
 BYTE   W12
 BYTE   Dn1
 BYTE   W12
 BYTE   N05  Dn0
 BYTE   W06
// 020   ----------------------------------------
 BYTE   PATT
  POIN2 Label_0_01EA61FA
// 021   ----------------------------------------
 BYTE   PATT
  POIN2 Label_0_01EA620F
// 022   ----------------------------------------
 BYTE   PATT
  POIN2 Label_0_01EA6224
// 023   ----------------------------------------
 BYTE   N10  Gn0  v127
 BYTE   W12
 BYTE   N11
 BYTE   W12
 BYTE   N09  Gs0
 BYTE   W12
 BYTE   Gs0
 BYTE   W12
 BYTE   N16
 BYTE   W18
 BYTE   N10
 BYTE   W12
 BYTE   N11
 BYTE   W12
 BYTE   N05  En0
 BYTE   W06
// 024   ----------------------------------------
 BYTE   N10  Gs0
 BYTE   W12
 BYTE   N11
 BYTE   W12
 BYTE   N09  An0
 BYTE   W12
 BYTE   An0
 BYTE   W12
 BYTE   N16
 BYTE   W18
 BYTE   N10
 BYTE   W12
 BYTE   N11
 BYTE   W12
 BYTE   N05  En0
 BYTE   W06
// 025   ----------------------------------------
 BYTE   N10  An0
 BYTE   W12
 BYTE   An0
 BYTE   W12
 BYTE   N09
 BYTE   W12
 BYTE   An0
 BYTE   W12
 BYTE   N16
 BYTE   W18
 BYTE   N10
 BYTE   W12
 BYTE   An0
 BYTE   W12
 BYTE   N16
 BYTE   W18
// 026   ----------------------------------------
 BYTE   N11
 BYTE   W12
 BYTE   N10  Dn1
 BYTE   W12
 BYTE   Dn1
 BYTE   W12
 BYTE   N16
 BYTE   W18
 BYTE   N52
 BYTE   W24
 BYTE   W02
 BYTE   N01
 BYTE   W28
// 027   ----------------------------------------
 BYTE   N44  Gn0
 BYTE   W22
 BYTE   N03
 BYTE   W24
 BYTE   W02
 BYTE   N23  En0
 BYTE   W24
 BYTE   An0
 BYTE   W24
// 028   ----------------------------------------
 BYTE   N10  Dn1
 BYTE   W12
 BYTE   Dn1
 BYTE   W12
 BYTE   N16
 BYTE   W18
 BYTE   N52
 BYTE   W24
 BYTE   W02
 BYTE   N01
 BYTE   W28
// 029   ----------------------------------------
 BYTE   N44  As0
 BYTE   W22
 BYTE   N03
 BYTE   W24
 BYTE   W02
 BYTE   N23  An0
 BYTE   W24
 BYTE   Cn1
 BYTE   W24
// 030   ----------------------------------------
 BYTE   As0
 BYTE   W24
 BYTE   Fs0
 BYTE   W24
 BYTE   Gn0
 BYTE   W24
 BYTE   Fn0
 BYTE   W24
// 031   ----------------------------------------
 BYTE   En0
 BYTE   W24
 BYTE   Gn0
 BYTE   W24
 BYTE   Fn0
 BYTE   W24
 BYTE   Cs0
 BYTE   W24
// 032   ----------------------------------------
 BYTE   N44  Dn0
 BYTE   W22
 BYTE   N03
 BYTE   W24
 BYTE   W02
 BYTE   N44  Gs0
 BYTE   W22
 BYTE   N03
 BYTE   W24
 BYTE   W02
// 033   ----------------------------------------
 BYTE   N44  An0
 BYTE   W22
 BYTE   N03
 BYTE   W24
 BYTE   W02
 BYTE   N44
 BYTE   W22
 BYTE   N03
 BYTE   W24
 BYTE   W02
// 034   ----------------------------------------
Label_0_01EA6320:
 BYTE   N09  Dn0  v127
 BYTE   W12
 BYTE   Dn0
 BYTE   W12
 BYTE   N17  An0
 BYTE   W18
 BYTE   N10  Dn0
 BYTE   W12
 BYTE   Dn0
 BYTE   W12
 BYTE   N05
 BYTE   W06
 BYTE   N11  An0
 BYTE   W12
 BYTE   N10  Dn0
 BYTE   W12
 BYTE   PEND 
// 035   ----------------------------------------
Label_0_01EA6337:
 BYTE   N09  Dn0  v127
 BYTE   W12
 BYTE   Dn0
 BYTE   W12
 BYTE   N17  As0
 BYTE   W18
 BYTE   N10  Dn0
 BYTE   W12
 BYTE   Dn0
 BYTE   W12
 BYTE   N05
 BYTE   W06
 BYTE   N11  As0
 BYTE   W12
 BYTE   N10  Dn0
 BYTE   W12
 BYTE   PEND 
// 036   ----------------------------------------
Label_0_01EA634E:
 BYTE   N09  Dn0  v127
 BYTE   W12
 BYTE   Dn0
 BYTE   W12
 BYTE   N17  Cs1
 BYTE   W18
 BYTE   N10  Dn0
 BYTE   W12
 BYTE   Dn0
 BYTE   W12
 BYTE   N05
 BYTE   W06
 BYTE   N11  Cs1
 BYTE   W12
 BYTE   N10  Dn0
 BYTE   W12
 BYTE   PEND 
// 037   ----------------------------------------
 BYTE   N09  Dn0  v127
 BYTE   W12
 BYTE   Dn0
 BYTE   W12
 BYTE   N17  Dn1
 BYTE   W18
 BYTE   N11  Dn0
 BYTE   W12
 BYTE   Dn1
 BYTE   W12
 BYTE   N05  Dn0
 BYTE   W06
 BYTE   N11  Cn1
 BYTE   W12
 BYTE   Dn1
 BYTE   W12
// 038   ----------------------------------------
 BYTE   N09  As0
 BYTE   W12
 BYTE   As0
 BYTE   W12
 BYTE   N16
 BYTE   W18
 BYTE   N11
 BYTE   W12
 BYTE   Cn1
 BYTE   W12
 BYTE   N05  As0
 BYTE   W06
 BYTE   N11  Cn1
 BYTE   W12
 BYTE   En1
 BYTE   W12
// 039   ----------------------------------------
 BYTE   N09  An0
 BYTE   W12
 BYTE   An0
 BYTE   W12
 BYTE   N16
 BYTE   W18
 BYTE   N11
 BYTE   W12
 BYTE   As0
 BYTE   W12
 BYTE   N05  An0
 BYTE   W06
 BYTE   N11  As0
 BYTE   W12
 BYTE   Dn1
 BYTE   W12
// 040   ----------------------------------------
 BYTE   N09  Gn0
 BYTE   W12
 BYTE   Gn0
 BYTE   W12
 BYTE   N16
 BYTE   W18
 BYTE   N10
 BYTE   W12
 BYTE   N11
 BYTE   W12
 BYTE   N05  Fs0
 BYTE   W06
 BYTE   N10  Gn0
 BYTE   W12
 BYTE   N11
 BYTE   W12
// 041   ----------------------------------------
 BYTE   N09  Gs0
 BYTE   W12
 BYTE   Gs0
 BYTE   W12
 BYTE   N16
 BYTE   W18
 BYTE   N10  An0
 BYTE   W12
 BYTE   N11
 BYTE   W12
 BYTE   N05  En0
 BYTE   W06
 BYTE   N10  An0
 BYTE   W12
 BYTE   N11
 BYTE   W12
// 042   ----------------------------------------
Label_0_01EA63C8:
 BYTE   N09  Dn1  v127
 BYTE   W12
 BYTE   Dn1
 BYTE   W12
 BYTE   N10
 BYTE   W12
 BYTE   N04
 BYTE   W06
 BYTE   N10
 BYTE   W12
 BYTE   N11
 BYTE   W12
 BYTE   N05  Cs1
 BYTE   W06
 BYTE   N10  Dn1
 BYTE   W12
 BYTE   Dn1
 BYTE   W12
 BYTE   PEND 
// 043   ----------------------------------------
 BYTE   N09  Dn1  v127
 BYTE   W12
 BYTE   Dn1
 BYTE   W12
 BYTE   N10
 BYTE   W12
 BYTE   N04
 BYTE   W06
 BYTE   N10
 BYTE   W12
 BYTE   Dn1
 BYTE   W12
 BYTE   N04
 BYTE   W06
 BYTE   N10
 BYTE   W12
 BYTE   Dn1
 BYTE   W12
// 044   ----------------------------------------
 BYTE   PATT
  POIN2 Label_0_01EA63C8
// 045   ----------------------------------------
 BYTE   N09  Dn1  v127
 BYTE   W12
 BYTE   Dn1
 BYTE   W12
 BYTE   N10
 BYTE   W12
 BYTE   N04
 BYTE   W06
 BYTE   N10
 BYTE   W12
 BYTE   Dn1
 BYTE   W12
 BYTE   N04
 BYTE   W06
 BYTE   N10
 BYTE   W12
 BYTE   N11
 BYTE   W12
// 046   ----------------------------------------
 BYTE   TEMPO   132*CastlevaniaPortraitofRuinIronBlueIntentionRSflame_tbs/2
 BYTE   W96
// 047   ----------------------------------------
 BYTE   W96
// 048   ----------------------------------------
 BYTE   W96
// 049   ----------------------------------------
 BYTE   W96
// 050   ----------------------------------------
 BYTE   W96
// 051   ----------------------------------------
 BYTE   W96
// 052   ----------------------------------------
 BYTE   W96
// 053   ----------------------------------------
 BYTE   W96
// 054   ----------------------------------------
 BYTE   W96
// 055   ----------------------------------------
 BYTE   W96
// 056   ----------------------------------------
 BYTE   W96
// 057   ----------------------------------------
 BYTE   W96
// 058   ----------------------------------------
 BYTE   W96
// 059   ----------------------------------------
 BYTE   W96
// 060   ----------------------------------------
 BYTE   TEMPO   134*CastlevaniaPortraitofRuinIronBlueIntentionRSflame_tbs/2
 BYTE   W96
// 061   ----------------------------------------
 BYTE   W96
// 062   ----------------------------------------
 BYTE   W96
// 063   ----------------------------------------
 BYTE   W96
// 064   ----------------------------------------
 BYTE   W96
// 065   ----------------------------------------
 BYTE   W96
// 066   ----------------------------------------
 BYTE   W96
// 067   ----------------------------------------
 BYTE   W96
// 068   ----------------------------------------
 BYTE   W05
 BYTE   W06
 BYTE   W96
// 069   ----------------------------------------
 BYTE   W96
// 070   ----------------------------------------
 BYTE   W96
// 071   ----------------------------------------
 BYTE   W84
 BYTE   N09  Dn0  v127
 BYTE   W12
// 072   ----------------------------------------
 BYTE   Dn0
 BYTE   W12
 BYTE   N17  An0
 BYTE   W18
 BYTE   N10  Dn0
 BYTE   W12
 BYTE   Dn0
 BYTE   W12
 BYTE   N05
 BYTE   W06
 BYTE   N11  An0
 BYTE   W12
 BYTE   N10  Dn0
 BYTE   W12
// 073   ----------------------------------------
 BYTE   PATT
  POIN2 Label_0_01EA6337
// 074   ----------------------------------------
 BYTE   PATT
  POIN2 Label_0_01EA634E
// 075   ----------------------------------------
 BYTE   N09  Dn0  v127
 BYTE   W12
 BYTE   Dn0
 BYTE   W12
 BYTE   N17  Dn1
 BYTE   W18
 BYTE   N10  Dn0
 BYTE   W12
 BYTE   Dn0
 BYTE   W12
 BYTE   N05
 BYTE   W06
 BYTE   N11  Dn1
 BYTE   W12
 BYTE   N10  Dn0
 BYTE   W12
// 076   ----------------------------------------
 BYTE   PATT
  POIN2 Label_0_01EA6320
// 077   ----------------------------------------
 BYTE   N09  Dn0  v127
 BYTE   W12
 BYTE   Dn0
 BYTE   W12
 BYTE   N17  As0
 BYTE   W18
 BYTE   N10  Dn0
 BYTE   W12
 BYTE   Dn0
 BYTE   W12
 BYTE   N05
 BYTE   W06
 BYTE   N11  As0
 BYTE   W12
 BYTE   Dn0
 BYTE   W12
// 078   ----------------------------------------
 BYTE   PATT
  POIN2 Label_0_01EA634E
// 079   ----------------------------------------
 BYTE   N09  Dn0  v127
 BYTE   W12
 BYTE   Dn0
 BYTE   W12
 BYTE   N17  Dn1
 BYTE   W17
 BYTE   N10  Dn0  v127
 BYTE   W12
 BYTE   Dn0
 BYTE   W12
 BYTE   N05
 BYTE   W06
 BYTE   N11  Dn1
 BYTE   W05
 BYTE   W06
 BYTE   N11  Dn0  v127
 BYTE   W06
 BYTE   GoTo
  POIN2 Label_0_01EA6188
 BYTE   FINE

//**************** Track 2 (Midi-Chn.1) ****************//

CastlevaniaPortraitofRuinIronBlueIntentionRSflame_002:
// 000   ----------------------------------------
Label_1_01EA892C:
 BYTE   TEMPO   134*CastlevaniaPortraitofRuinIronBlueIntentionRSflame_tbs/2
 BYTE   KEYSH   CastlevaniaPortraitofRuinIronBlueIntentionRSflame_key+0
 BYTE   VOICE   63
 BYTE   VOL   37*CastlevaniaPortraitofRuinIronBlueIntentionRSflame_mvl/mxv
 BYTE   VOL   37*CastlevaniaPortraitofRuinIronBlueIntentionRSflame_mvl/mxv
 BYTE   PAN   c_v+16
 BYTE   PAN   c_v+6
 BYTE   N92  Dn4  v032
 BYTE   N92  Fn4  v040
 BYTE   W44
 BYTE   W02
 BYTE   N03  Dn4  v032
 BYTE   N03  Fn4  v040
 BYTE   W48
 BYTE   W02
// 001   ----------------------------------------
Label_1_01EA894A:
 BYTE   N92  Cn4  v032
 BYTE   N92  En4  v040
 BYTE   W44
 BYTE   W02
 BYTE   N03  Cn4  v032
 BYTE   N03  En4  v040
 BYTE   W48
 BYTE   W02
 BYTE   PEND 
// 002   ----------------------------------------
Label_1_01EA895B:
 BYTE   N92  As3  v032
 BYTE   N92  Dn4  v040
 BYTE   W44
 BYTE   W02
 BYTE   N03  As3  v032
 BYTE   N03  Dn4  v040
 BYTE   W48
 BYTE   W02
 BYTE   PEND 
// 003   ----------------------------------------
 BYTE   PATT
  POIN2 Label_1_01EA894A
// 004   ----------------------------------------
 BYTE   N92  Dn4  v032
 BYTE   N92  Fn4  v040
 BYTE   W44
 BYTE   W02
 BYTE   N03  Dn4  v032
 BYTE   N03  Fn4  v040
 BYTE   W48
 BYTE   W02
// 005   ----------------------------------------
 BYTE   PATT
  POIN2 Label_1_01EA894A
// 006   ----------------------------------------
 BYTE   PATT
  POIN2 Label_1_01EA895B
// 007   ----------------------------------------
 BYTE   N80  Cn4  v032
 BYTE   N80  En4  v040
 BYTE   W40
 BYTE   N03  Cn4  v032
 BYTE   N03  En4  v040
 BYTE   W56
// 008   ----------------------------------------
Label_1_01EA8999:
 BYTE   N05  An3  v060
 BYTE   N05  Dn4  v056
 BYTE   W12
 BYTE   An3  v054
 BYTE   N05  Dn4  v050
 BYTE   W12
 BYTE   An3  v040
 BYTE   N05  Dn4  v036
 BYTE   W12
 BYTE   An3  v034
 BYTE   N05  Dn4  v030
 BYTE   W12
 BYTE   An3  v060
 BYTE   N05  Dn4  v056
 BYTE   W12
 BYTE   An3  v054
 BYTE   N05  Dn4  v050
 BYTE   W12
 BYTE   An3  v040
 BYTE   N05  Dn4  v036
 BYTE   W12
 BYTE   An3  v034
 BYTE   N05  Dn4  v030
 BYTE   W12
 BYTE   PEND 
// 009   ----------------------------------------
 BYTE   N05  As3  v060
 BYTE   N05  Dn4  v056
 BYTE   W12
 BYTE   As3  v054
 BYTE   N05  Dn4  v050
 BYTE   W12
 BYTE   As3  v040
 BYTE   N05  Dn4  v036
 BYTE   W12
 BYTE   As3  v034
 BYTE   N05  Dn4  v030
 BYTE   W12
 BYTE   As3  v060
 BYTE   N05  Dn4  v056
 BYTE   W12
 BYTE   As3  v054
 BYTE   N05  Dn4  v050
 BYTE   W12
 BYTE   As3  v040
 BYTE   N05  Dn4  v036
 BYTE   W12
 BYTE   As3  v034
 BYTE   N05  Dn4  v030
 BYTE   W12
// 010   ----------------------------------------
 BYTE   An3  v060
 BYTE   N05  Cs4  v056
 BYTE   W12
 BYTE   An3  v054
 BYTE   N05  Cs4  v050
 BYTE   W12
 BYTE   An3  v040
 BYTE   N05  Cs4  v036
 BYTE   W12
 BYTE   An3  v034
 BYTE   N05  Cs4  v030
 BYTE   W12
 BYTE   An3  v060
 BYTE   N05  Cs4  v056
 BYTE   W12
 BYTE   An3  v054
 BYTE   N05  Cs4  v050
 BYTE   W12
 BYTE   An3  v040
 BYTE   N05  Cs4  v036
 BYTE   W12
 BYTE   An3  v034
 BYTE   N05  Cs4  v030
 BYTE   W12
// 011   ----------------------------------------
 BYTE   PATT
  POIN2 Label_1_01EA8999
// 012   ----------------------------------------
Label_1_01EA8A31:
 BYTE   N44  As3  v046
 BYTE   N44  Dn4  v042
 BYTE   W22
 BYTE   N03  As3  v046
 BYTE   N03  Dn4  v042
 BYTE   W24
 BYTE   W02
 BYTE   N92  Cn4  v046
 BYTE   N92  En4  v042
 BYTE   W44
 BYTE   W02
 BYTE   N03  Cn4  v046
 BYTE   N03  En4  v042
 BYTE   W48
// 013   ----------------------------------------
 BYTE   W02
 BYTE   PEND 
Label_1_01EA8A51:
 BYTE   N44  Dn4  v046
 BYTE   N44  Fn4  v042
 BYTE   W22
 BYTE   N03  Dn4  v046
 BYTE   N03  Fn4  v042
 BYTE   W24
 BYTE   W02
 BYTE   N92  As3  v046
 BYTE   N92  Dn4  v042
 BYTE   W44
 BYTE   W02
// 014   ----------------------------------------
 BYTE   N03  As3  v046
 BYTE   N03  Dn4  v042
 BYTE   W48
 BYTE   W02
 BYTE   PEND 
Label_1_01EA8A71:
 BYTE   N44  Bn3  v046
 BYTE   N44  Fn4  v042
 BYTE   W22
 BYTE   N03  Bn3  v046
 BYTE   N03  Fn4  v042
 BYTE   W24
// 015   ----------------------------------------
 BYTE   W02
 BYTE   N40  Cs4  v046
 BYTE   N40  En4  v042
 BYTE   W20
 BYTE   N01  Cs4  v046
 BYTE   N01  En4  v042
 BYTE   W28
 BYTE   PEND 
Label_1_01EA8A8F:
 BYTE   N05  Dn4  v060
 BYTE   N05  Fn4  v056
 BYTE   W12
 BYTE   Dn4  v054
 BYTE   N05  Fn4  v050
 BYTE   W12
 BYTE   Dn4  v040
 BYTE   N05  Fn4  v036
 BYTE   W12
 BYTE   Dn4  v034
 BYTE   N05  Fn4  v030
 BYTE   W12
// 016   ----------------------------------------
 BYTE   Dn4  v060
 BYTE   N05  Fn4  v056
 BYTE   W12
 BYTE   Dn4  v054
 BYTE   N05  Fn4  v050
 BYTE   W12
 BYTE   Dn4  v040
 BYTE   N05  Fn4  v036
 BYTE   W12
 BYTE   Dn4  v034
 BYTE   N05  Fn4  v030
 BYTE   W12
 BYTE   PEND 
// 017   ----------------------------------------
 BYTE   PATT
  POIN2 Label_1_01EA8A8F
// 018   ----------------------------------------
Label_1_01EA8AC6:
 BYTE   N05  Cs4  v060
 BYTE   N05  En4  v056
 BYTE   W12
 BYTE   Cs4  v054
 BYTE   N05  En4  v050
 BYTE   W12
 BYTE   Cs4  v040
 BYTE   N05  En4  v036
 BYTE   W12
 BYTE   Cs4  v034
 BYTE   N05  En4  v030
 BYTE   W12
 BYTE   Cs4  v060
 BYTE   N05  En4  v056
 BYTE   W12
 BYTE   Cs4  v054
 BYTE   N05  En4  v050
 BYTE   W12
 BYTE   Cs4  v040
 BYTE   N05  En4  v036
 BYTE   W12
 BYTE   Cs4  v034
 BYTE   N05  En4  v030
 BYTE   W12
 BYTE   PEND 
// 019   ----------------------------------------
 BYTE   PATT
  POIN2 Label_1_01EA8A8F
// 020   ----------------------------------------
 BYTE   PATT
  POIN2 Label_1_01EA8A31
// 021   ----------------------------------------
 BYTE   N40  Dn4  v046
 BYTE   N40  Fn4  v042
 BYTE   W20
 BYTE   N01  Dn4  v046
 BYTE   N01  Fn4  v042
 BYTE   W28
 BYTE   N05  Dn4  v058
 BYTE   N05  Gn4  v072
 BYTE   W12
 BYTE   Dn4  v052
 BYTE   N05  Gn4  v056
 BYTE   W12
 BYTE   Dn4  v038
 BYTE   N05  Gn4  v052
 BYTE   W12
 BYTE   Dn4  v032
 BYTE   N05  Gn4  v036
 BYTE   W12
// 022   ----------------------------------------
 BYTE   Dn4  v058
 BYTE   N05  Gn4  v072
 BYTE   W12
 BYTE   Dn4  v052
 BYTE   N05  Gn4  v056
 BYTE   W12
 BYTE   Dn4  v038
 BYTE   N05  Gn4  v052
 BYTE   W12
 BYTE   Dn4  v032
 BYTE   N05  Gn4  v036
 BYTE   W12
 BYTE   Dn4  v058
 BYTE   N05  Gs4  v072
 BYTE   W12
 BYTE   Dn4  v052
 BYTE   N05  Gs4  v056
 BYTE   W12
 BYTE   Dn4  v038
 BYTE   N05  Gs4  v052
 BYTE   W12
 BYTE   Dn4  v032
 BYTE   N05  Gs4  v036
 BYTE   W12
// 023   ----------------------------------------
 BYTE   Dn4  v058
 BYTE   N05  Gs4  v072
 BYTE   W12
 BYTE   Dn4  v052
 BYTE   N05  Gs4  v056
 BYTE   W12
 BYTE   Dn4  v038
 BYTE   N05  Gs4  v052
 BYTE   W12
 BYTE   Dn4  v032
 BYTE   N05  Gs4  v036
 BYTE   W12
 BYTE   Dn4  v058
 BYTE   N05  En4  v072
 BYTE   W12
 BYTE   Dn4  v052
 BYTE   N05  En4  v056
 BYTE   W12
 BYTE   Dn4  v038
 BYTE   N05  En4  v052
 BYTE   W12
 BYTE   Dn4  v032
 BYTE   N05  En4  v036
 BYTE   W12
// 024   ----------------------------------------
 BYTE   Dn4  v058
 BYTE   N05  En4  v072
 BYTE   W12
 BYTE   Dn4  v052
 BYTE   N05  En4  v056
 BYTE   W12
 BYTE   Dn4  v038
 BYTE   N05  En4  v052
 BYTE   W12
 BYTE   Dn4  v032
 BYTE   N05  En4  v036
 BYTE   W12
 BYTE   Cs4  v058
 BYTE   N05  En4  v072
 BYTE   W12
 BYTE   Cs4  v052
 BYTE   N05  En4  v056
 BYTE   W12
 BYTE   Cs4  v038
 BYTE   N05  En4  v052
 BYTE   W12
 BYTE   Cs4  v032
 BYTE   N05  En4  v036
 BYTE   W12
// 025   ----------------------------------------
 BYTE   Cs4  v058
 BYTE   N05  En4  v072
 BYTE   W12
 BYTE   Cs4  v052
 BYTE   N05  En4  v056
 BYTE   W12
 BYTE   Cs4  v038
 BYTE   N05  En4  v052
 BYTE   W12
 BYTE   Cs4  v032
 BYTE   N05  En4  v036
 BYTE   W36
 BYTE   N11  Dn4  v062
 BYTE   N17  Fn4  v066
 BYTE   W18
 BYTE   N52  Gn4
 BYTE   N52  Dn4  v062
 BYTE   W24
// 026   ----------------------------------------
 BYTE   W02
 BYTE   N01  Gn4  v066
 BYTE   N01  Dn4  v062
 BYTE   W28
 BYTE   N10  Gn4  v030
 BYTE   N10  Dn4
 BYTE   W12
 BYTE   N05  En4  v066
 BYTE   N05  As3  v062
 BYTE   W12
 BYTE   En4  v066
 BYTE   N05  As3  v062
 BYTE   W06
 BYTE   En4  v066
 BYTE   N05  As3  v062
 BYTE   W12
 BYTE   En4  v066
 BYTE   N05  As3  v062
 BYTE   W06
 BYTE   Dn4  v066
 BYTE   N05  Gn3  v062
 BYTE   W12
 BYTE   Dn4  v066
 BYTE   N05  Gn3  v062
 BYTE   W12
// 027   ----------------------------------------
 BYTE   Cs4  v066
 BYTE   N05  Gn3  v062
 BYTE   W12
 BYTE   Cs4  v050
 BYTE   N05  Gn3
 BYTE   W12
 BYTE   Cs4  v040
 BYTE   N05  Gn3
 BYTE   W24
 BYTE   N11  Dn4  v062
 BYTE   N17  Fn4  v066
 BYTE   W18
 BYTE   N52  Gn4
 BYTE   N52  Dn4  v062
 BYTE   W24
 BYTE   W02
 BYTE   N01  Gn4  v066
 BYTE   N01  Dn4  v062
 BYTE   W28
// 028   ----------------------------------------
 BYTE   N10  Gn4  v030
 BYTE   N10  Dn4
 BYTE   W12
 BYTE   N05  En4  v066
 BYTE   N05  As3  v062
 BYTE   W12
 BYTE   En4  v066
 BYTE   N05  As3  v062
 BYTE   W06
 BYTE   En4  v066
 BYTE   N05  As3  v062
 BYTE   W12
 BYTE   En4  v066
 BYTE   N05  As3  v062
 BYTE   W06
 BYTE   Fn4  v066
 BYTE   N05  Dn4  v062
 BYTE   W12
 BYTE   Fn4  v066
 BYTE   N05  Dn4  v062
 BYTE   W12
 BYTE   Fs4  v066
 BYTE   N05  Dn4  v062
 BYTE   W12
 BYTE   Fs4  v066
 BYTE   N05  Dn4  v062
 BYTE   W12
// 029   ----------------------------------------
 BYTE   Gn3  v066
 BYTE   N05  Dn4  v062
 BYTE   W12
 BYTE   Gn3  v066
 BYTE   N05  Dn4  v062
 BYTE   W12
 BYTE   An3  v066
 BYTE   N05  Fs4  v062
 BYTE   W12
 BYTE   An3  v066
 BYTE   N05  Fs4  v062
 BYTE   W12
 BYTE   As3  v066
 BYTE   N05  Gn4  v062
 BYTE   W12
 BYTE   As3  v066
 BYTE   N05  Gn4  v062
 BYTE   W12
 BYTE   Bn3  v066
 BYTE   N05  Gn4  v062
 BYTE   W12
 BYTE   Bn3  v066
 BYTE   N05  Gn4  v062
 BYTE   W12
// 030   ----------------------------------------
 BYTE   Cn4  v066
 BYTE   N05  Gn4  v062
 BYTE   W12
 BYTE   Cn4  v066
 BYTE   N05  Gn4  v062
 BYTE   W12
 BYTE   Cs4  v066
 BYTE   N05  Gn4  v062
 BYTE   W12
 BYTE   Cs4  v066
 BYTE   N05  Gn4  v062
 BYTE   W12
 BYTE   Dn4  v066
 BYTE   N05  An4  v062
 BYTE   W12
 BYTE   Dn4  v066
 BYTE   N05  An4  v062
 BYTE   W12
 BYTE   En4  v066
 BYTE   N05  Cs5  v062
 BYTE   W12
 BYTE   En4  v066
 BYTE   N05  Cs5  v062
 BYTE   W12
// 031   ----------------------------------------
 BYTE   En4  v040
 BYTE   N05  Cs5
 BYTE   W12
 BYTE   En4  v030
 BYTE   N05  Cs5
 BYTE   W96
// 032   ----------------------------------------
 BYTE   W84
// 033   ----------------------------------------
 BYTE   PATT
  POIN2 Label_1_01EA8A8F
// 034   ----------------------------------------
 BYTE   PATT
  POIN2 Label_1_01EA8A8F
// 035   ----------------------------------------
 BYTE   PATT
  POIN2 Label_1_01EA8AC6
// 036   ----------------------------------------
 BYTE   PATT
  POIN2 Label_1_01EA8A8F
// 037   ----------------------------------------
 BYTE   PATT
  POIN2 Label_1_01EA8A31
// 038   ----------------------------------------
 BYTE   PATT
  POIN2 Label_1_01EA8A51
// 039   ----------------------------------------
 BYTE   PATT
  POIN2 Label_1_01EA8A71
// 040   ----------------------------------------
 BYTE   PATT
  POIN2 Label_1_01EA8A8F
// 041   ----------------------------------------
Label_1_01EA8D00:
 BYTE   N05  Dn4  v060
 BYTE   N05  Gn4  v056
 BYTE   W12
 BYTE   Dn4  v054
 BYTE   N05  Gn4  v050
 BYTE   W12
 BYTE   Dn4  v040
 BYTE   N05  Gn4  v036
 BYTE   W12
 BYTE   Dn4  v034
 BYTE   N05  Gn4  v030
 BYTE   W12
 BYTE   Dn4  v060
 BYTE   N05  Gn4  v056
 BYTE   W12
 BYTE   Dn4  v054
 BYTE   N05  Gn4  v050
 BYTE   W12
 BYTE   Dn4  v040
 BYTE   N05  Gn4  v036
 BYTE   W12
 BYTE   Dn4  v034
 BYTE   N05  Gn4  v030
 BYTE   W12
 BYTE   PEND 
// 042   ----------------------------------------
 BYTE   PATT
  POIN2 Label_1_01EA8A8F
// 043   ----------------------------------------
 BYTE   PATT
  POIN2 Label_1_01EA8D00
// 044   ----------------------------------------
 BYTE   TEMPO   132*CastlevaniaPortraitofRuinIronBlueIntentionRSflame_tbs/2
 BYTE   W96
// 045   ----------------------------------------
 BYTE   W96
// 046   ----------------------------------------
 BYTE   W96
// 047   ----------------------------------------
 BYTE   W96
// 048   ----------------------------------------
 BYTE   W96
// 049   ----------------------------------------
 BYTE   W96
// 050   ----------------------------------------
 BYTE   W96
// 051   ----------------------------------------
 BYTE   W96
// 052   ----------------------------------------
 BYTE   W96
// 053   ----------------------------------------
 BYTE   W96
// 054   ----------------------------------------
 BYTE   W96
// 055   ----------------------------------------
 BYTE   W96
// 056   ----------------------------------------
 BYTE   W96
// 057   ----------------------------------------
 BYTE   W96
// 058   ----------------------------------------
 BYTE   TEMPO   134*CastlevaniaPortraitofRuinIronBlueIntentionRSflame_tbs/2
 BYTE   W48
 BYTE   N44  Fs3  v042
 BYTE   W22
 BYTE   N03
 BYTE   W24
 BYTE   W02
// 059   ----------------------------------------
 BYTE   N92  Gs3
 BYTE   W44
 BYTE   W02
 BYTE   N03
 BYTE   W96
// 060   ----------------------------------------
 BYTE   W02
 BYTE   N44  Fs3
 BYTE   W22
 BYTE   N03
 BYTE   W24
 BYTE   W02
 BYTE   N92  Gs3
 BYTE   W44
 BYTE   W02
// 061   ----------------------------------------
 BYTE   N03
 BYTE   W96
// 062   ----------------------------------------
 BYTE   W02
 BYTE   N44  Gn3
 BYTE   W22
 BYTE   N03
 BYTE   W24
 BYTE   W02
 BYTE   N92  An3
 BYTE   W44
 BYTE   W02
// 063   ----------------------------------------
 BYTE   N03
 BYTE   W96
// 064   ----------------------------------------
 BYTE   W02
 BYTE   N44  Gn3
 BYTE   W22
 BYTE   N03
 BYTE   W24
 BYTE   W02
 BYTE   N92  An3
 BYTE   W44
 BYTE   W02
// 065   ----------------------------------------
 BYTE   N03
 BYTE   W54
 BYTE   W01
 BYTE   W06
 BYTE   W12
 BYTE   N23  Cn3  v040
 BYTE   N23  Cn4  v036
 BYTE   W24
// 066   ----------------------------------------
 BYTE   Cs3  v040
 BYTE   N23  Cs4  v036
 BYTE   W24
 BYTE   N44  Fn3  v040
 BYTE   N44  Fn4  v036
 BYTE   W22
 BYTE   N03  Fn3  v040
 BYTE   N03  Fn4  v036
 BYTE   W24
 BYTE   W02
 BYTE   N23  En3  v040
 BYTE   N23  En4  v036
 BYTE   W24
// 067   ----------------------------------------
 BYTE   Cs3  v040
 BYTE   N23  Cs4  v036
 BYTE   W24
 BYTE   Cn3  v040
 BYTE   N23  Cn4  v036
 BYTE   W48
 BYTE   Cn3  v040
 BYTE   N23  Cn4  v036
 BYTE   W24
// 068   ----------------------------------------
 BYTE   Cs3  v040
 BYTE   N23  Cs4  v036
 BYTE   W24
 BYTE   N44  Fn3  v040
 BYTE   N44  Fn4  v036
 BYTE   W22
 BYTE   N03  Fn3  v040
 BYTE   N03  Fn4  v036
 BYTE   W24
 BYTE   W02
 BYTE   N23  En3  v040
 BYTE   N23  En4  v036
 BYTE   W24
// 069   ----------------------------------------
 BYTE   Fn3  v040
 BYTE   N23  Fn4  v036
 BYTE   W24
 BYTE   Gn3  v040
 BYTE   N23  Gn4  v036
 BYTE   W23
 BYTE   W24
Label_1_01EA8DE4:
 BYTE   N05  Dn4  v058
 BYTE   N05  Fn4  v064
 BYTE   W06
 BYTE   En4  v058
 BYTE   N05  Gn4  v064
 BYTE   W06
 BYTE   Fn4  v058
 BYTE   N05  An4  v064
 BYTE   W84
 BYTE   PEND 
// 070   ----------------------------------------
Label_1_01EA8DF8:
 BYTE   N05  En4  v058
 BYTE   N05  Gn4  v064
 BYTE   W06
 BYTE   Fn4  v058
 BYTE   N05  An4  v064
 BYTE   W06
 BYTE   Gn4  v058
 BYTE   N05  As4  v064
 BYTE   W84
 BYTE   PEND 
// 071   ----------------------------------------
 BYTE   N05  Cs4  v058
 BYTE   N05  As3  v064
 BYTE   W06
 BYTE   En4  v058
 BYTE   N05  Cs4  v064
 BYTE   W06
 BYTE   As4  v058
 BYTE   N05  Gn4  v064
 BYTE   W84
// 072   ----------------------------------------
 BYTE   PATT
  POIN2 Label_1_01EA8DE4
// 073   ----------------------------------------
 BYTE   PATT
  POIN2 Label_1_01EA8DE4
// 074   ----------------------------------------
 BYTE   PATT
  POIN2 Label_1_01EA8DF8
// 075   ----------------------------------------
 BYTE   N05  An3  v058
 BYTE   N05  En3  v064
 BYTE   W06
 BYTE   Cs4  v058
 BYTE   N05  An3  v064
 BYTE   W06
 BYTE   En4  v058
 BYTE   N05  Cs4  v064
 BYTE   W84
// 076   ----------------------------------------
 BYTE   Dn4  v058
 BYTE   N05  Fn4  v064
 BYTE   W06
 BYTE   En4  v058
 BYTE   N05  Gn4  v064
 BYTE   W06
 BYTE   Fn4  v058
 BYTE   N05  An4  v064
 BYTE   W05
 BYTE   W36
 BYTE   W06
 BYTE   W06
 BYTE   GoTo
  POIN2 Label_1_01EA892C
 BYTE   FINE

//**************** Track 3 (Midi-Chn.2) ****************//

CastlevaniaPortraitofRuinIronBlueIntentionRSflame_003:
// 000   ----------------------------------------
Label_2_01EA6E7C:
 BYTE   TEMPO   134*CastlevaniaPortraitofRuinIronBlueIntentionRSflame_tbs/2
 BYTE   KEYSH   CastlevaniaPortraitofRuinIronBlueIntentionRSflame_key+0
 BYTE   VOICE   56
 BYTE   VOL   37*CastlevaniaPortraitofRuinIronBlueIntentionRSflame_mvl/mxv
 BYTE   PAN   c_v-44
 BYTE   N92  An3  v056
 BYTE   W44
 BYTE   W02
 BYTE   N03
 BYTE   W48
 BYTE   W02
// 001   ----------------------------------------
Label_2_01EA6E8E:
 BYTE   N92  Gn3  v056
 BYTE   W44
 BYTE   W02
 BYTE   N03
 BYTE   W48
 BYTE   W02
 BYTE   PEND 
// 002   ----------------------------------------
Label_2_01EA6E97:
 BYTE   N92  Fn3  v056
 BYTE   W44
 BYTE   W02
 BYTE   N03
 BYTE   W48
 BYTE   W02
 BYTE   PEND 
// 003   ----------------------------------------
 BYTE   PATT
  POIN2 Label_2_01EA6E8E
// 004   ----------------------------------------
 BYTE   N92  An3  v056
 BYTE   W44
 BYTE   W02
 BYTE   N03
 BYTE   W48
 BYTE   W02
// 005   ----------------------------------------
 BYTE   PATT
  POIN2 Label_2_01EA6E8E
// 006   ----------------------------------------
 BYTE   PATT
  POIN2 Label_2_01EA6E97
// 007   ----------------------------------------
 BYTE   N80  Gn3  v056
 BYTE   W40
 BYTE   N03
 BYTE   W56
// 008   ----------------------------------------
Label_2_01EA6EBD:
 BYTE   N05  Fn3  v070
 BYTE   W12
 BYTE   Fn3  v064
 BYTE   W12
 BYTE   Fn3  v050
 BYTE   W12
 BYTE   Fn3  v044
 BYTE   W12
 BYTE   Fn3  v070
 BYTE   W12
 BYTE   Fn3  v064
 BYTE   W12
 BYTE   Fn3  v050
 BYTE   W12
 BYTE   Fn3  v044
 BYTE   W12
 BYTE   PEND 
// 009   ----------------------------------------
 BYTE   PATT
  POIN2 Label_2_01EA6EBD
// 010   ----------------------------------------
 BYTE   N05  En3  v070
 BYTE   W12
 BYTE   En3  v064
 BYTE   W12
 BYTE   En3  v050
 BYTE   W12
 BYTE   En3  v044
 BYTE   W12
 BYTE   En3  v070
 BYTE   W12
 BYTE   En3  v064
 BYTE   W12
 BYTE   En3  v050
 BYTE   W12
 BYTE   En3  v044
 BYTE   W12
// 011   ----------------------------------------
 BYTE   PATT
  POIN2 Label_2_01EA6EBD
// 012   ----------------------------------------
Label_2_01EA6EFA:
 BYTE   N44  Fn3  v058
 BYTE   W22
 BYTE   N03
 BYTE   W24
 BYTE   W02
 BYTE   N92  Gn3
 BYTE   W44
 BYTE   W02
 BYTE   N03
 BYTE   W48
// 013   ----------------------------------------
 BYTE   W02
 BYTE   PEND 
Label_2_01EA6F09:
 BYTE   N44  An3  v058
 BYTE   W22
 BYTE   N03
 BYTE   W24
 BYTE   W02
 BYTE   N92  Gn3
 BYTE   W44
 BYTE   W02
// 014   ----------------------------------------
 BYTE   N03
 BYTE   W48
 BYTE   W02
 BYTE   PEND 
Label_2_01EA6F18:
 BYTE   N44  Gs3  v058
 BYTE   W22
 BYTE   N03
 BYTE   W24
// 015   ----------------------------------------
 BYTE   W02
 BYTE   N40  An3
 BYTE   W20
 BYTE   N01
 BYTE   W28
 BYTE   PEND 
Label_2_01EA6F25:
 BYTE   N05  An3  v070
 BYTE   W12
 BYTE   An3  v064
 BYTE   W12
 BYTE   An3  v050
 BYTE   W12
 BYTE   An3  v044
 BYTE   W12
// 016   ----------------------------------------
 BYTE   An3  v070
 BYTE   W12
 BYTE   An3  v064
 BYTE   W12
 BYTE   An3  v050
 BYTE   W12
 BYTE   An3  v044
 BYTE   W12
 BYTE   PEND 
Label_2_01EA6F3F:
 BYTE   N05  As3  v070
 BYTE   W12
 BYTE   As3  v064
 BYTE   W12
 BYTE   As3  v050
 BYTE   W12
 BYTE   As3  v044
 BYTE   W12
// 017   ----------------------------------------
 BYTE   As3  v070
 BYTE   W12
 BYTE   As3  v064
 BYTE   W12
 BYTE   As3  v050
 BYTE   W12
 BYTE   As3  v044
 BYTE   W12
 BYTE   PEND 
// 018   ----------------------------------------
 BYTE   PATT
  POIN2 Label_2_01EA6F25
// 019   ----------------------------------------
 BYTE   PATT
  POIN2 Label_2_01EA6F25
// 020   ----------------------------------------
 BYTE   PATT
  POIN2 Label_2_01EA6EFA
// 021   ----------------------------------------
 BYTE   N40  An3  v058
 BYTE   W20
 BYTE   N01
 BYTE   W28
 BYTE   N05  As3  v084
 BYTE   W12
 BYTE   As3  v070
 BYTE   W12
 BYTE   As3  v064
 BYTE   W12
 BYTE   As3  v050
 BYTE   W12
// 022   ----------------------------------------
 BYTE   As3  v084
 BYTE   W12
 BYTE   As3  v070
 BYTE   W12
 BYTE   As3  v064
 BYTE   W12
 BYTE   As3  v050
 BYTE   W12
 BYTE   Bn3  v084
 BYTE   W12
 BYTE   Bn3  v070
 BYTE   W12
 BYTE   Bn3  v064
 BYTE   W12
 BYTE   Bn3  v050
 BYTE   W12
// 023   ----------------------------------------
 BYTE   Bn3  v084
 BYTE   W12
 BYTE   Bn3  v070
 BYTE   W12
 BYTE   Bn3  v064
 BYTE   W12
 BYTE   Bn3  v050
 BYTE   W12
 BYTE   An3  v084
 BYTE   W12
 BYTE   An3  v070
 BYTE   W12
 BYTE   An3  v064
 BYTE   W12
 BYTE   An3  v050
 BYTE   W12
// 024   ----------------------------------------
 BYTE   An3  v084
 BYTE   W12
 BYTE   An3  v070
 BYTE   W12
 BYTE   An3  v064
 BYTE   W12
 BYTE   An3  v050
 BYTE   W12
 BYTE   An3  v084
 BYTE   W12
 BYTE   An3  v070
 BYTE   W12
 BYTE   An3  v064
 BYTE   W12
 BYTE   An3  v050
 BYTE   W12
// 025   ----------------------------------------
 BYTE   An3  v084
 BYTE   W12
 BYTE   An3  v070
 BYTE   W12
 BYTE   An3  v064
 BYTE   W12
 BYTE   An3  v050
 BYTE   W36
 BYTE   N17  An3  v076
 BYTE   W18
 BYTE   N52  As3
 BYTE   W24
// 026   ----------------------------------------
 BYTE   W02
 BYTE   N01
 BYTE   W28
 BYTE   N10  As3  v030
 BYTE   W12
 BYTE   N05  Gn3  v076
 BYTE   W12
 BYTE   Gn3
 BYTE   W06
 BYTE   Gn3
 BYTE   W12
 BYTE   Gn3
 BYTE   W06
 BYTE   En3
 BYTE   W12
 BYTE   En3
 BYTE   W12
// 027   ----------------------------------------
 BYTE   En3
 BYTE   W12
 BYTE   En3  v050
 BYTE   W12
 BYTE   En3  v040
 BYTE   W24
 BYTE   N17  An3  v076
 BYTE   W18
 BYTE   N52  As3
 BYTE   W24
 BYTE   W02
 BYTE   N01
 BYTE   W28
// 028   ----------------------------------------
 BYTE   N10  As3  v030
 BYTE   W12
 BYTE   N05  Gn3  v076
 BYTE   W12
 BYTE   Gn3
 BYTE   W06
 BYTE   Gn3
 BYTE   W12
 BYTE   Gn3
 BYTE   W06
 BYTE   An3
 BYTE   W12
 BYTE   An3
 BYTE   W12
 BYTE   An3
 BYTE   W12
 BYTE   An3
 BYTE   W12
// 029   ----------------------------------------
 BYTE   As3
 BYTE   W12
 BYTE   As3
 BYTE   W12
 BYTE   Dn4
 BYTE   W12
 BYTE   Dn4
 BYTE   W12
 BYTE   Dn4
 BYTE   W12
 BYTE   Dn4
 BYTE   W12
 BYTE   Dn4
 BYTE   W12
 BYTE   Dn4
 BYTE   W12
// 030   ----------------------------------------
 BYTE   En4
 BYTE   W12
 BYTE   En4
 BYTE   W12
 BYTE   En4
 BYTE   W12
 BYTE   En4
 BYTE   W12
 BYTE   Fn4
 BYTE   W12
 BYTE   Fn4
 BYTE   W12
 BYTE   An4
 BYTE   W12
 BYTE   An4
 BYTE   W12
// 031   ----------------------------------------
 BYTE   An4  v040
 BYTE   W12
 BYTE   An4  v030
 BYTE   W96
// 032   ----------------------------------------
 BYTE   W84
// 033   ----------------------------------------
 BYTE   PATT
  POIN2 Label_2_01EA6F25
// 034   ----------------------------------------
 BYTE   PATT
  POIN2 Label_2_01EA6F3F
// 035   ----------------------------------------
 BYTE   PATT
  POIN2 Label_2_01EA6F25
// 036   ----------------------------------------
 BYTE   PATT
  POIN2 Label_2_01EA6F25
// 037   ----------------------------------------
 BYTE   PATT
  POIN2 Label_2_01EA6EFA
// 038   ----------------------------------------
 BYTE   PATT
  POIN2 Label_2_01EA6F09
// 039   ----------------------------------------
 BYTE   PATT
  POIN2 Label_2_01EA6F18
// 040   ----------------------------------------
 BYTE   PATT
  POIN2 Label_2_01EA6F25
// 041   ----------------------------------------
Label_2_01EA7062:
 BYTE   N05  Bn3  v070
 BYTE   W12
 BYTE   Bn3  v064
 BYTE   W12
 BYTE   Bn3  v050
 BYTE   W12
 BYTE   Bn3  v044
 BYTE   W12
 BYTE   Bn3  v070
 BYTE   W12
 BYTE   Bn3  v064
 BYTE   W12
 BYTE   Bn3  v050
 BYTE   W12
 BYTE   Bn3  v044
 BYTE   W12
 BYTE   PEND 
// 042   ----------------------------------------
 BYTE   PATT
  POIN2 Label_2_01EA6F25
// 043   ----------------------------------------
 BYTE   PATT
  POIN2 Label_2_01EA7062
// 044   ----------------------------------------
 BYTE   TEMPO   132*CastlevaniaPortraitofRuinIronBlueIntentionRSflame_tbs/2
 BYTE   W96
// 045   ----------------------------------------
 BYTE   W96
// 046   ----------------------------------------
 BYTE   W96
// 047   ----------------------------------------
 BYTE   W96
// 048   ----------------------------------------
 BYTE   W96
// 049   ----------------------------------------
 BYTE   W96
// 050   ----------------------------------------
 BYTE   W96
// 051   ----------------------------------------
 BYTE   W96
// 052   ----------------------------------------
 BYTE   W96
// 053   ----------------------------------------
 BYTE   W96
// 054   ----------------------------------------
 BYTE   W96
// 055   ----------------------------------------
 BYTE   W96
// 056   ----------------------------------------
 BYTE   W96
// 057   ----------------------------------------
 BYTE   W96
// 058   ----------------------------------------
 BYTE   TEMPO   134*CastlevaniaPortraitofRuinIronBlueIntentionRSflame_tbs/2
 BYTE   W48
 BYTE   N40  Ds3  v056
 BYTE   W20
 BYTE   N01
 BYTE   W28
// 059   ----------------------------------------
 BYTE   N92
 BYTE   W44
 BYTE   W02
 BYTE   N03
 BYTE   W96
// 060   ----------------------------------------
 BYTE   W02
 BYTE   N40
 BYTE   W20
 BYTE   N01
 BYTE   W28
 BYTE   N92
 BYTE   W44
 BYTE   W02
// 061   ----------------------------------------
 BYTE   N03
 BYTE   W96
// 062   ----------------------------------------
 BYTE   W02
 BYTE   N40  En3
 BYTE   W20
 BYTE   N01
 BYTE   W28
 BYTE   N92
 BYTE   W44
 BYTE   W02
// 063   ----------------------------------------
 BYTE   N03
 BYTE   W96
// 064   ----------------------------------------
 BYTE   W02
 BYTE   N40
 BYTE   W20
 BYTE   N01
 BYTE   W28
 BYTE   N92
 BYTE   W44
 BYTE   W02
// 065   ----------------------------------------
 BYTE   N03
 BYTE   W54
 BYTE   W01
 BYTE   W06
 BYTE   W12
 BYTE   N23  Cn3  v050
 BYTE   W24
// 066   ----------------------------------------
 BYTE   Cs3
 BYTE   W24
 BYTE   N44  Fn3
 BYTE   W22
 BYTE   N03
 BYTE   W24
 BYTE   W02
 BYTE   N23  En3
 BYTE   W24
// 067   ----------------------------------------
 BYTE   Cs3
 BYTE   W24
 BYTE   Cn3
 BYTE   W48
 BYTE   Cn3
 BYTE   W24
// 068   ----------------------------------------
 BYTE   Cs3
 BYTE   W24
 BYTE   N44  Fn3
 BYTE   W22
 BYTE   N03
 BYTE   W24
 BYTE   W02
 BYTE   N23  En3
 BYTE   W24
// 069   ----------------------------------------
 BYTE   Fn3
 BYTE   W24
 BYTE   Gn3
 BYTE   W23
 BYTE   W24
Label_2_01EA70EB:
 BYTE   N05  Dn3  v078
 BYTE   W06
 BYTE   En3
 BYTE   W06
 BYTE   Fn3
 BYTE   W84
 BYTE   PEND 
// 070   ----------------------------------------
Label_2_01EA70F4:
 BYTE   N05  En3  v078
 BYTE   W06
 BYTE   Fn3
 BYTE   W06
 BYTE   Gn3
 BYTE   W84
 BYTE   PEND 
// 071   ----------------------------------------
 BYTE   N05  Cs3  v078
 BYTE   W06
 BYTE   En3
 BYTE   W06
 BYTE   As3
 BYTE   W84
// 072   ----------------------------------------
 BYTE   PATT
  POIN2 Label_2_01EA70EB
// 073   ----------------------------------------
 BYTE   PATT
  POIN2 Label_2_01EA70EB
// 074   ----------------------------------------
 BYTE   PATT
  POIN2 Label_2_01EA70F4
// 075   ----------------------------------------
 BYTE   N05  An2  v078
 BYTE   W06
 BYTE   Cs3
 BYTE   W06
 BYTE   En3
 BYTE   W84
// 076   ----------------------------------------
 BYTE   Dn3
 BYTE   W06
 BYTE   En3
 BYTE   W06
 BYTE   Fn3
 BYTE   W05
 BYTE   W36
 BYTE   W06
 BYTE   W06
 BYTE   GoTo
  POIN2 Label_2_01EA6E7C
 BYTE   FINE

//**************** Track 4 (Midi-Chn.3) ****************//

CastlevaniaPortraitofRuinIronBlueIntentionRSflame_004:
// 000   ----------------------------------------
Label_3_01EA7F58:
 BYTE   TEMPO   134*CastlevaniaPortraitofRuinIronBlueIntentionRSflame_tbs/2
 BYTE   KEYSH   CastlevaniaPortraitofRuinIronBlueIntentionRSflame_key+0
 BYTE   VOICE   62
 BYTE   VOL   37*CastlevaniaPortraitofRuinIronBlueIntentionRSflame_mvl/mxv
 BYTE   PAN   c_v-34
 BYTE   N92  An2  v095
 BYTE   N92  Fn3
 BYTE   W44
 BYTE   W02
 BYTE   N03  An2
 BYTE   N03  Fn3
 BYTE   W48
 BYTE   W02
// 001   ----------------------------------------
Label_3_01EA7F6F:
 BYTE   N92  En3  v095
 BYTE   N92  Gn2
 BYTE   W44
 BYTE   W02
 BYTE   N03  En3
 BYTE   N03  Gn2
 BYTE   W48
 BYTE   W02
 BYTE   PEND 
// 002   ----------------------------------------
Label_3_01EA7F7D:
 BYTE   N92  Fn3  v095
 BYTE   N92  As2
 BYTE   W44
 BYTE   W02
 BYTE   N03  Fn3
 BYTE   N03  As2
 BYTE   W48
 BYTE   W02
 BYTE   PEND 
// 003   ----------------------------------------
 BYTE   N92  Gn3  v095
 BYTE   N92  Cn3
 BYTE   W44
 BYTE   W02
 BYTE   N03  Gn3
 BYTE   N03  Cn3
 BYTE   W48
 BYTE   W02
// 004   ----------------------------------------
 BYTE   N92  Fn3
 BYTE   N92  An2
 BYTE   W44
 BYTE   W02
 BYTE   N03  Fn3
 BYTE   N03  An2
 BYTE   W48
 BYTE   W02
// 005   ----------------------------------------
 BYTE   PATT
  POIN2 Label_3_01EA7F6F
// 006   ----------------------------------------
 BYTE   PATT
  POIN2 Label_3_01EA7F7D
// 007   ----------------------------------------
 BYTE   N80  Gn3  v095
 BYTE   N80  Cn3
 BYTE   W40
 BYTE   N03  Gn3
 BYTE   N03  Cn3
 BYTE   W56
// 008   ----------------------------------------
Label_3_01EA7FB9:
 BYTE   N88  An2  v088
 BYTE   W44
 BYTE   N01
 BYTE   W52
 BYTE   PEND 
// 009   ----------------------------------------
Label_3_01EA7FC0:
 BYTE   N88  Dn3  v088
 BYTE   W44
 BYTE   N01
 BYTE   W52
 BYTE   PEND 
// 010   ----------------------------------------
Label_3_01EA7FC7:
 BYTE   N88  En3  v088
 BYTE   W44
 BYTE   N01
 BYTE   W52
 BYTE   PEND 
// 011   ----------------------------------------
 BYTE   N88  Fn3  v088
 BYTE   W44
 BYTE   N01
 BYTE   W96
// 012   ----------------------------------------
 BYTE   W96
// 013   ----------------------------------------
 BYTE   W96
// 014   ----------------------------------------
 BYTE   W96
// 015   ----------------------------------------
 BYTE   W52
// 016   ----------------------------------------
 BYTE   PATT
  POIN2 Label_3_01EA7FB9
// 017   ----------------------------------------
 BYTE   PATT
  POIN2 Label_3_01EA7FC0
// 018   ----------------------------------------
 BYTE   PATT
  POIN2 Label_3_01EA7FC7
// 019   ----------------------------------------
 BYTE   N88  An2  v088
 BYTE   W44
 BYTE   N01
 BYTE   W96
// 020   ----------------------------------------
 BYTE   W96
// 021   ----------------------------------------
 BYTE   W52
 BYTE   N92  Gn2  v105
 BYTE   N96  Dn3
 BYTE   W44
// 022   ----------------------------------------
 BYTE   W02
 BYTE   N03  Gn2
 BYTE   W02
 BYTE   N92  Dn3
 BYTE   W44
 BYTE   W02
 BYTE   N03
 BYTE   W02
 BYTE   N92  Gs2
 BYTE   W44
// 023   ----------------------------------------
 BYTE   W02
 BYTE   N03
 BYTE   W48
 BYTE   W02
 BYTE   N92  Dn3
 BYTE   N96  An2
 BYTE   W44
// 024   ----------------------------------------
 BYTE   W02
 BYTE   N03  Dn3
 BYTE   W02
 BYTE   N92  An2
 BYTE   W44
 BYTE   W02
 BYTE   N03
 BYTE   W02
 BYTE   N23  Cs3  v107
 BYTE   W24
 BYTE   Dn3
 BYTE   W24
// 025   ----------------------------------------
 BYTE   N44  En3
 BYTE   W22
 BYTE   N03
 BYTE   W48
 BYTE   W02
 BYTE   N16  Fn3
 BYTE   N16  Dn3
 BYTE   W18
 BYTE   N52  Gn3
 BYTE   N52  Dn3
 BYTE   W24
// 026   ----------------------------------------
 BYTE   W02
 BYTE   N01  Gn3
 BYTE   N01  Dn3
 BYTE   W28
 BYTE   N10  Gn3  v067
 BYTE   N10  Dn3
 BYTE   W96
// 027   ----------------------------------------
 BYTE   W24
 BYTE   N16  Fn3  v107
 BYTE   N16  Dn3
 BYTE   W18
 BYTE   N52  Gn3
 BYTE   N52  Dn3
 BYTE   W24
 BYTE   W02
 BYTE   N01  Gn3
 BYTE   N01  Dn3
 BYTE   W28
// 028   ----------------------------------------
 BYTE   N10  Gn3  v067
 BYTE   N10  Dn3
 BYTE   W96
// 029   ----------------------------------------
 BYTE   W96
// 030   ----------------------------------------
 BYTE   W96
// 031   ----------------------------------------
 BYTE   N92  Dn3  v105
 BYTE   N92  Fn2
 BYTE   W44
 BYTE   W02
 BYTE   N03  Dn3
 BYTE   N03  Fn2
 BYTE   W48
 BYTE   W02
// 032   ----------------------------------------
 BYTE   N44  Fn3
 BYTE   N88  An2
 BYTE   W22
 BYTE   N03  Fn3
 BYTE   W22
 BYTE   N01  An2
 BYTE   W04
 BYTE   N40  En3
 BYTE   W20
 BYTE   N01
 BYTE   W28
// 033   ----------------------------------------
 BYTE   PATT
  POIN2 Label_3_01EA7FB9
// 034   ----------------------------------------
 BYTE   PATT
  POIN2 Label_3_01EA7FC0
// 035   ----------------------------------------
 BYTE   PATT
  POIN2 Label_3_01EA7FC7
// 036   ----------------------------------------
 BYTE   N88  Fn3  v088
 BYTE   W44
 BYTE   N01
 BYTE   W96
// 037   ----------------------------------------
 BYTE   W96
// 038   ----------------------------------------
 BYTE   W52
 BYTE   N92  Gn3  v105
 BYTE   N92  As2
 BYTE   W44
// 039   ----------------------------------------
 BYTE   W02
 BYTE   N03  Gn3
 BYTE   N03  As2
 BYTE   W48
 BYTE   W02
 BYTE   N44  Bn2
 BYTE   W22
 BYTE   N03
 BYTE   W02
 BYTE   N23  Gs3
 BYTE   W24
// 040   ----------------------------------------
 BYTE   N44  An3
 BYTE   N44  An2
 BYTE   W22
 BYTE   N03  An3
 BYTE   N03  An2
 BYTE   W24
 BYTE   W02
 BYTE   N23  Fn3
 BYTE   N92  An2
 BYTE   W24
 BYTE   N23  Gn3
 BYTE   W22
 BYTE   N03  An2
 BYTE   W02
// 041   ----------------------------------------
 BYTE   N44  An3
 BYTE   W22
 BYTE   N03
 BYTE   W24
 BYTE   W02
 BYTE   N44  Bn3
 BYTE   N44  Gn2
 BYTE   W22
 BYTE   N03  Bn3
 BYTE   N03  Gn2
 BYTE   W24
 BYTE   W02
// 042   ----------------------------------------
 BYTE   N44  Gn3
 BYTE   N44  Dn3
 BYTE   W22
 BYTE   N03  Gn3
 BYTE   N03  Dn3
 BYTE   W24
 BYTE   W02
 BYTE   N23  An3
 BYTE   N92  An2
 BYTE   W24
 BYTE   N23  En3
 BYTE   W22
 BYTE   N03  An2
 BYTE   W02
// 043   ----------------------------------------
 BYTE   N44  Fn3
 BYTE   W22
 BYTE   N03
 BYTE   W24
 BYTE   W02
 BYTE   N44  Gn3
 BYTE   N44  Bn2
 BYTE   W22
 BYTE   N03  Gn3
 BYTE   N03  Bn2
 BYTE   W24
 BYTE   W02
// 044   ----------------------------------------
 BYTE   N44  Bn3
 BYTE   N44  Dn3
 BYTE   W22
 BYTE   N03  Bn3
 BYTE   N03  Dn3
 BYTE   W24
 BYTE   W02
 BYTE   TEMPO   132*CastlevaniaPortraitofRuinIronBlueIntentionRSflame_tbs/2
 BYTE   W96
// 045   ----------------------------------------
 BYTE   W96
// 046   ----------------------------------------
 BYTE   W96
// 047   ----------------------------------------
 BYTE   W96
// 048   ----------------------------------------
 BYTE   W96
// 049   ----------------------------------------
 BYTE   W96
// 050   ----------------------------------------
 BYTE   W96
// 051   ----------------------------------------
 BYTE   W96
// 052   ----------------------------------------
 BYTE   W96
// 053   ----------------------------------------
 BYTE   W96
// 054   ----------------------------------------
 BYTE   W96
// 055   ----------------------------------------
 BYTE   W96
// 056   ----------------------------------------
 BYTE   W96
// 057   ----------------------------------------
 BYTE   W96
// 058   ----------------------------------------
 BYTE   TEMPO   134*CastlevaniaPortraitofRuinIronBlueIntentionRSflame_tbs/2
 BYTE   W48
 BYTE   N40  As3  v095
 BYTE   N40  Fs3
 BYTE   W20
 BYTE   N01  As3
 BYTE   N01  Fs3
 BYTE   W28
// 059   ----------------------------------------
 BYTE   N92  Cn4
 BYTE   N92  Gs3
 BYTE   W44
 BYTE   W02
 BYTE   N03  Cn4
 BYTE   N03  Gs3
 BYTE   W96
// 060   ----------------------------------------
 BYTE   W02
 BYTE   N40  As3
 BYTE   N40  Fs3
 BYTE   W20
 BYTE   N01  As3
 BYTE   N01  Fs3
 BYTE   W28
 BYTE   N92  Cn4
 BYTE   N92  Gs3
 BYTE   W44
 BYTE   W02
// 061   ----------------------------------------
 BYTE   N03  Cn4
 BYTE   N03  Gs3
 BYTE   W96
// 062   ----------------------------------------
 BYTE   W02
 BYTE   N40  Bn3
 BYTE   N40  Gn3
 BYTE   W20
 BYTE   N01  Bn3
 BYTE   N01  Gn3
 BYTE   W28
 BYTE   N92  Cs4
 BYTE   N92  An3
 BYTE   W44
 BYTE   W02
// 063   ----------------------------------------
 BYTE   N03  Cs4
 BYTE   N03  An3
 BYTE   W96
// 064   ----------------------------------------
 BYTE   W02
 BYTE   N40  Bn3
 BYTE   N40  Gn3
 BYTE   W20
 BYTE   N01  Bn3
 BYTE   N01  Gn3
 BYTE   W28
 BYTE   N92  Cs4
 BYTE   N92  An3
 BYTE   W44
 BYTE   W02
// 065   ----------------------------------------
 BYTE   N03  Cs4
 BYTE   N03  An3
 BYTE   W54
 BYTE   W01
 BYTE   W06
 BYTE   W12
 BYTE   N23  Fn3  v107
 BYTE   N23  Gs2
 BYTE   W24
// 066   ----------------------------------------
 BYTE   Gn3
 BYTE   N23  As2
 BYTE   W24
 BYTE   As3
 BYTE   N23  Cs3
 BYTE   W24
 BYTE   Gs3
 BYTE   N23  Cn3
 BYTE   W24
 BYTE   Gn3
 BYTE   N23  As2
 BYTE   W24
// 067   ----------------------------------------
 BYTE   Fn3
 BYTE   N23  Gs2
 BYTE   W24
 BYTE   En3
 BYTE   N23  Gn2
 BYTE   W48
 BYTE   Fn3
 BYTE   N23  Gs2
 BYTE   W24
// 068   ----------------------------------------
 BYTE   Gn3
 BYTE   N23  As2
 BYTE   W24
 BYTE   As3
 BYTE   N23  Cs3
 BYTE   W24
 BYTE   Gs3
 BYTE   N23  Cn3
 BYTE   W24
 BYTE   Gn3
 BYTE   N23  As2
 BYTE   W24
// 069   ----------------------------------------
 BYTE   Gs3
 BYTE   N23  Cn3
 BYTE   W24
 BYTE   As3
 BYTE   N23  Cs3
 BYTE   W23
 BYTE   N92  Fn3  v095
 BYTE   N92  An2
 BYTE   W44
 BYTE   W02
Label_3_01EA81A2:
 BYTE   N03  Fn3  v095
 BYTE   N03  An2
 BYTE   W48
// 070   ----------------------------------------
 BYTE   W02
 BYTE   N92  Gn3
 BYTE   N92  As2
 BYTE   W44
 BYTE   W02
 BYTE   PEND 
Label_3_01EA81B0:
 BYTE   N03  Gn3  v095
 BYTE   N03  As2
 BYTE   W48
// 071   ----------------------------------------
 BYTE   W02
 BYTE   N92  En3
 BYTE   N92  Gn2
 BYTE   W44
 BYTE   W02
 BYTE   PEND 
 BYTE   N03  En3  v095
 BYTE   N03  Gn2
 BYTE   W48
// 072   ----------------------------------------
 BYTE   W02
 BYTE   N92  Fn3
 BYTE   N92  An2
 BYTE   W44
 BYTE   W02
 BYTE   N03  Fn3
 BYTE   N03  An2
 BYTE   W48
// 073   ----------------------------------------
 BYTE   W02
 BYTE   N92  Fn3
 BYTE   N92  An2
 BYTE   W44
 BYTE   W02
// 074   ----------------------------------------
 BYTE   PATT
  POIN2 Label_3_01EA81A2
// 075   ----------------------------------------
 BYTE   PATT
  POIN2 Label_3_01EA81B0
// 076   ----------------------------------------
 BYTE   N03  En3  v095
 BYTE   N03  Gn2
 BYTE   W48
 BYTE   W02
 BYTE   N92  Fn3
 BYTE   N92  An2
 BYTE   W40
 BYTE   W01
 BYTE   W04
 BYTE   N03  Fn3  v095
 BYTE   N03  An2
 BYTE   W30
// 077   ----------------------------------------
 BYTE   W01
 BYTE   W06
 BYTE   W06
 BYTE   GoTo
  POIN2 Label_3_01EA7F58
 BYTE   FINE

//**************** Track 5 (Midi-Chn.4) ****************//

CastlevaniaPortraitofRuinIronBlueIntentionRSflame_005:
// 000   ----------------------------------------
Label_4_01EA3EE0:
 BYTE   TEMPO   134*CastlevaniaPortraitofRuinIronBlueIntentionRSflame_tbs/2
 BYTE   KEYSH   CastlevaniaPortraitofRuinIronBlueIntentionRSflame_key+0
 BYTE   VOICE   50
 BYTE   VOL   37*CastlevaniaPortraitofRuinIronBlueIntentionRSflame_mvl/mxv
 BYTE   PAN   c_v-34
 BYTE   W96
// 001   ----------------------------------------
 BYTE   W96
// 002   ----------------------------------------
 BYTE   W96
// 003   ----------------------------------------
 BYTE   W96
// 004   ----------------------------------------
 BYTE   W96
// 005   ----------------------------------------
 BYTE   W96
// 006   ----------------------------------------
 BYTE   W96
// 007   ----------------------------------------
 BYTE   W96
// 008   ----------------------------------------
 BYTE   W96
// 009   ----------------------------------------
 BYTE   W96
// 010   ----------------------------------------
 BYTE   W96
// 011   ----------------------------------------
 BYTE   W96
// 012   ----------------------------------------
 BYTE   W96
// 013   ----------------------------------------
 BYTE   W96
// 014   ----------------------------------------
 BYTE   W96
// 015   ----------------------------------------
 BYTE   W96
// 016   ----------------------------------------
 BYTE   W96
// 017   ----------------------------------------
 BYTE   W96
// 018   ----------------------------------------
 BYTE   W96
// 019   ----------------------------------------
 BYTE   W96
// 020   ----------------------------------------
 BYTE   W96
// 021   ----------------------------------------
 BYTE   W96
// 022   ----------------------------------------
 BYTE   W96
// 023   ----------------------------------------
 BYTE   W96
// 024   ----------------------------------------
 BYTE   W96
// 025   ----------------------------------------
 BYTE   W96
// 026   ----------------------------------------
 BYTE   W96
// 027   ----------------------------------------
 BYTE   W96
// 028   ----------------------------------------
 BYTE   W96
// 029   ----------------------------------------
 BYTE   W96
// 030   ----------------------------------------
 BYTE   W96
// 031   ----------------------------------------
 BYTE   W96
// 032   ----------------------------------------
 BYTE   W96
// 033   ----------------------------------------
 BYTE   W96
// 034   ----------------------------------------
 BYTE   W96
// 035   ----------------------------------------
 BYTE   W96
// 036   ----------------------------------------
 BYTE   W96
// 037   ----------------------------------------
 BYTE   W96
// 038   ----------------------------------------
 BYTE   W96
// 039   ----------------------------------------
 BYTE   W96
// 040   ----------------------------------------
 BYTE   W96
// 041   ----------------------------------------
 BYTE   W96
// 042   ----------------------------------------
 BYTE   W96
// 043   ----------------------------------------
 BYTE   W96
// 044   ----------------------------------------
 BYTE   W96
// 045   ----------------------------------------
 BYTE   W96
// 046   ----------------------------------------
 BYTE   TEMPO   132*CastlevaniaPortraitofRuinIronBlueIntentionRSflame_tbs/2
 BYTE   W96
// 047   ----------------------------------------
 BYTE   W96
// 048   ----------------------------------------
 BYTE   W96
// 049   ----------------------------------------
 BYTE   W96
// 050   ----------------------------------------
 BYTE   W96
// 051   ----------------------------------------
 BYTE   W96
// 052   ----------------------------------------
 BYTE   W96
// 053   ----------------------------------------
 BYTE   W96
// 054   ----------------------------------------
 BYTE   W96
// 055   ----------------------------------------
 BYTE   W96
// 056   ----------------------------------------
 BYTE   W96
// 057   ----------------------------------------
 BYTE   W96
// 058   ----------------------------------------
 BYTE   W96
// 059   ----------------------------------------
 BYTE   W96
// 060   ----------------------------------------
 BYTE   N05  As4  v060
 BYTE   TEMPO   134*CastlevaniaPortraitofRuinIronBlueIntentionRSflame_tbs/2
 BYTE   W12
 BYTE   N05  An4  v060
 BYTE   W12
 BYTE   As4
 BYTE   W12
 BYTE   An4
 BYTE   W12
 BYTE   As4
 BYTE   W12
 BYTE   Fs4
 BYTE   W12
 BYTE   Fn4
 BYTE   W12
 BYTE   Ds4
 BYTE   W12
// 061   ----------------------------------------
Label_4_01EA3F3E:
 BYTE   N05  Gs4  v060
 BYTE   W12
 BYTE   As3
 BYTE   W12
 BYTE   Cn4
 BYTE   W12
 BYTE   Cs4
 BYTE   W12
 BYTE   Ds4
 BYTE   W12
 BYTE   Fn4
 BYTE   W12
 BYTE   Fs4
 BYTE   W12
 BYTE   Gs4
 BYTE   W12
 BYTE   PEND 
// 062   ----------------------------------------
 BYTE   N05  As4  v060
 BYTE   W12
 BYTE   An4
 BYTE   W12
 BYTE   As4
 BYTE   W12
 BYTE   An4
 BYTE   W12
 BYTE   As4
 BYTE   W12
 BYTE   Fs4
 BYTE   W12
 BYTE   Fn4
 BYTE   W12
 BYTE   Ds4
 BYTE   W12
// 063   ----------------------------------------
 BYTE   PATT
  POIN2 Label_4_01EA3F3E
// 064   ----------------------------------------
 BYTE   N05  Bn4  v060
 BYTE   W12
 BYTE   As4
 BYTE   W12
 BYTE   Bn4
 BYTE   W12
 BYTE   As4
 BYTE   W12
 BYTE   Bn4
 BYTE   W12
 BYTE   Gn4
 BYTE   W12
 BYTE   Fs4
 BYTE   W12
 BYTE   En4
 BYTE   W12
// 065   ----------------------------------------
 BYTE   An4
 BYTE   W12
 BYTE   Bn3
 BYTE   W12
 BYTE   Cs4
 BYTE   W12
 BYTE   Dn4
 BYTE   W12
 BYTE   En4
 BYTE   W12
 BYTE   Fs4
 BYTE   W12
 BYTE   Gn4
 BYTE   W12
 BYTE   An4
 BYTE   W12
// 066   ----------------------------------------
 BYTE   Bn4
 BYTE   W12
 BYTE   As4
 BYTE   W12
 BYTE   Bn4
 BYTE   W12
 BYTE   As4
 BYTE   W12
 BYTE   Bn4
 BYTE   W12
 BYTE   En5
 BYTE   W12
 BYTE   Fs5
 BYTE   W12
 BYTE   Gn5
 BYTE   W12
// 067   ----------------------------------------
 BYTE   An5
 BYTE   W12
 BYTE   Fs5
 BYTE   W12
 BYTE   En5
 BYTE   W12
 BYTE   Cs5
 BYTE   W12
 BYTE   An4
 BYTE   W12
 BYTE   En4
 BYTE   W12
 BYTE   An4
 BYTE   W12
 BYTE   Bn4
 BYTE   W12
// 068   ----------------------------------------
 BYTE   Cn5
 BYTE   W05
 BYTE   W06
 BYTE   W96
// 069   ----------------------------------------
 BYTE   W96
// 070   ----------------------------------------
 BYTE   W96
// 071   ----------------------------------------
 BYTE   W84
 BYTE   W96
// 072   ----------------------------------------
 BYTE   W96
// 073   ----------------------------------------
 BYTE   W96
// 074   ----------------------------------------
 BYTE   W96
// 075   ----------------------------------------
 BYTE   W96
// 076   ----------------------------------------
 BYTE   W96
// 077   ----------------------------------------
 BYTE   W96
// 078   ----------------------------------------
 BYTE   W42
 BYTE   W36
 BYTE   W06
 BYTE   W06
 BYTE   GoTo
  POIN2 Label_4_01EA3EE0
 BYTE   FINE

//**************** Track 6 (Midi-Chn.5) ****************//

CastlevaniaPortraitofRuinIronBlueIntentionRSflame_006:
// 000   ----------------------------------------
Label_5_01EA6568:
 BYTE   TEMPO   134*CastlevaniaPortraitofRuinIronBlueIntentionRSflame_tbs/2
 BYTE   KEYSH   CastlevaniaPortraitofRuinIronBlueIntentionRSflame_key+0
 BYTE   VOICE   50
 BYTE   VOL   37*CastlevaniaPortraitofRuinIronBlueIntentionRSflame_mvl/mxv
 BYTE   PAN   c_v-34
 BYTE   W96
// 001   ----------------------------------------
 BYTE   W96
// 002   ----------------------------------------
 BYTE   W96
// 003   ----------------------------------------
 BYTE   W96
// 004   ----------------------------------------
 BYTE   W96
// 005   ----------------------------------------
 BYTE   W96
// 006   ----------------------------------------
 BYTE   W96
// 007   ----------------------------------------
 BYTE   W96
// 008   ----------------------------------------
 BYTE   W96
// 009   ----------------------------------------
 BYTE   W96
// 010   ----------------------------------------
 BYTE   W96
// 011   ----------------------------------------
 BYTE   W96
// 012   ----------------------------------------
 BYTE   W96
// 013   ----------------------------------------
 BYTE   W96
// 014   ----------------------------------------
 BYTE   W96
// 015   ----------------------------------------
 BYTE   W96
// 016   ----------------------------------------
 BYTE   W96
// 017   ----------------------------------------
 BYTE   W96
// 018   ----------------------------------------
 BYTE   W96
// 019   ----------------------------------------
 BYTE   W96
// 020   ----------------------------------------
 BYTE   W96
// 021   ----------------------------------------
 BYTE   W96
// 022   ----------------------------------------
 BYTE   W96
// 023   ----------------------------------------
 BYTE   W96
// 024   ----------------------------------------
 BYTE   W96
// 025   ----------------------------------------
 BYTE   W96
// 026   ----------------------------------------
 BYTE   W96
// 027   ----------------------------------------
 BYTE   W96
// 028   ----------------------------------------
 BYTE   W96
// 029   ----------------------------------------
 BYTE   W96
// 030   ----------------------------------------
 BYTE   W96
// 031   ----------------------------------------
 BYTE   W96
// 032   ----------------------------------------
 BYTE   W96
// 033   ----------------------------------------
 BYTE   W96
// 034   ----------------------------------------
 BYTE   W96
// 035   ----------------------------------------
 BYTE   W96
// 036   ----------------------------------------
 BYTE   W96
// 037   ----------------------------------------
 BYTE   W96
// 038   ----------------------------------------
 BYTE   W96
// 039   ----------------------------------------
 BYTE   W96
// 040   ----------------------------------------
 BYTE   W96
// 041   ----------------------------------------
 BYTE   W96
// 042   ----------------------------------------
 BYTE   W96
// 043   ----------------------------------------
 BYTE   W96
// 044   ----------------------------------------
 BYTE   W96
// 045   ----------------------------------------
 BYTE   W96
// 046   ----------------------------------------
 BYTE   TEMPO   132*CastlevaniaPortraitofRuinIronBlueIntentionRSflame_tbs/2
 BYTE   W96
// 047   ----------------------------------------
 BYTE   W96
// 048   ----------------------------------------
 BYTE   W96
// 049   ----------------------------------------
 BYTE   W96
// 050   ----------------------------------------
 BYTE   W96
// 051   ----------------------------------------
 BYTE   W96
// 052   ----------------------------------------
 BYTE   W96
// 053   ----------------------------------------
 BYTE   W96
// 054   ----------------------------------------
 BYTE   W96
// 055   ----------------------------------------
 BYTE   W96
// 056   ----------------------------------------
 BYTE   W96
// 057   ----------------------------------------
 BYTE   W96
// 058   ----------------------------------------
 BYTE   W96
// 059   ----------------------------------------
 BYTE   W96
// 060   ----------------------------------------
 BYTE   TEMPO   134*CastlevaniaPortraitofRuinIronBlueIntentionRSflame_tbs/2
 BYTE   W18
 BYTE   N05  As4  v040
 BYTE   W12
 BYTE   An4
 BYTE   W12
 BYTE   As4
 BYTE   W12
 BYTE   An4
 BYTE   W12
 BYTE   As4
 BYTE   W12
 BYTE   Fs4
 BYTE   W12
 BYTE   Fn4
 BYTE   W12
// 061   ----------------------------------------
Label_5_01EA65C3:
 BYTE   N05  Ds4  v040
 BYTE   W12
 BYTE   Gs4
 BYTE   W12
 BYTE   As3
 BYTE   W12
 BYTE   Cn4
 BYTE   W12
 BYTE   Cs4
 BYTE   W12
 BYTE   Ds4
 BYTE   W12
 BYTE   Fn4
 BYTE   W12
 BYTE   Fs4
 BYTE   W12
 BYTE   PEND 
// 062   ----------------------------------------
 BYTE   N05  Gs4  v040
 BYTE   W12
 BYTE   As4
 BYTE   W12
 BYTE   An4
 BYTE   W12
 BYTE   As4
 BYTE   W12
 BYTE   An4
 BYTE   W12
 BYTE   As4
 BYTE   W12
 BYTE   Fs4
 BYTE   W12
 BYTE   Fn4
 BYTE   W12
// 063   ----------------------------------------
 BYTE   PATT
  POIN2 Label_5_01EA65C3
// 064   ----------------------------------------
 BYTE   N05  Gs4  v040
 BYTE   W12
 BYTE   Bn4
 BYTE   W12
 BYTE   As4
 BYTE   W12
 BYTE   Bn4
 BYTE   W12
 BYTE   As4
 BYTE   W12
 BYTE   Bn4
 BYTE   W12
 BYTE   Gn4
 BYTE   W12
 BYTE   Fs4
 BYTE   W12
// 065   ----------------------------------------
 BYTE   En4
 BYTE   W12
 BYTE   An4
 BYTE   W12
 BYTE   Bn3
 BYTE   W12
 BYTE   Cs4
 BYTE   W12
 BYTE   Dn4
 BYTE   W12
 BYTE   En4
 BYTE   W12
 BYTE   Fs4
 BYTE   W12
 BYTE   Gn4
 BYTE   W12
// 066   ----------------------------------------
 BYTE   An4
 BYTE   W12
 BYTE   Bn4
 BYTE   W12
 BYTE   As4
 BYTE   W12
 BYTE   Bn4
 BYTE   W12
 BYTE   As4
 BYTE   W12
 BYTE   Bn4
 BYTE   W12
 BYTE   En5
 BYTE   W12
 BYTE   Fs5
 BYTE   W12
// 067   ----------------------------------------
 BYTE   Gn5
 BYTE   W12
 BYTE   An5
 BYTE   W12
 BYTE   Fs5
 BYTE   W12
 BYTE   En5
 BYTE   W12
 BYTE   Cs5
 BYTE   W12
 BYTE   An4
 BYTE   W12
 BYTE   En4
 BYTE   W12
 BYTE   An4
 BYTE   W06
 BYTE   Cn5
 BYTE   W05
 BYTE   N05  Bn4  v040
 BYTE   W05
// 068   ----------------------------------------
 BYTE   W96
// 069   ----------------------------------------
 BYTE   W96
// 070   ----------------------------------------
 BYTE   W96
// 071   ----------------------------------------
 BYTE   W84
 BYTE   W96
// 072   ----------------------------------------
 BYTE   W96
// 073   ----------------------------------------
 BYTE   W96
// 074   ----------------------------------------
 BYTE   W96
// 075   ----------------------------------------
 BYTE   W96
// 076   ----------------------------------------
 BYTE   W96
// 077   ----------------------------------------
 BYTE   W96
// 078   ----------------------------------------
 BYTE   W42
 BYTE   W36
 BYTE   W06
 BYTE   W06
 BYTE   GoTo
  POIN2 Label_5_01EA6568
 BYTE   FINE

//**************** Track 7 (Midi-Chn.6) ****************//

CastlevaniaPortraitofRuinIronBlueIntentionRSflame_007:
// 000   ----------------------------------------
Label_6_01EA6CB8:
 BYTE   TEMPO   134*CastlevaniaPortraitofRuinIronBlueIntentionRSflame_tbs/2
 BYTE   KEYSH   CastlevaniaPortraitofRuinIronBlueIntentionRSflame_key+0
 BYTE   VOICE   8
 BYTE   VOL   37*CastlevaniaPortraitofRuinIronBlueIntentionRSflame_mvl/mxv
 BYTE   PAN   c_v+0
 BYTE   W96
// 001   ----------------------------------------
 BYTE   W96
// 002   ----------------------------------------
 BYTE   W96
// 003   ----------------------------------------
 BYTE   W96
// 004   ----------------------------------------
 BYTE   W96
// 005   ----------------------------------------
 BYTE   W96
// 006   ----------------------------------------
 BYTE   W96
// 007   ----------------------------------------
 BYTE   W96
// 008   ----------------------------------------
 BYTE   W96
// 009   ----------------------------------------
 BYTE   W96
// 010   ----------------------------------------
 BYTE   W96
// 011   ----------------------------------------
 BYTE   W96
// 012   ----------------------------------------
 BYTE   W96
// 013   ----------------------------------------
 BYTE   W96
// 014   ----------------------------------------
 BYTE   W96
// 015   ----------------------------------------
 BYTE   W96
// 016   ----------------------------------------
 BYTE   W96
// 017   ----------------------------------------
 BYTE   W96
// 018   ----------------------------------------
 BYTE   W96
// 019   ----------------------------------------
 BYTE   W96
// 020   ----------------------------------------
 BYTE   W96
// 021   ----------------------------------------
 BYTE   W96
// 022   ----------------------------------------
 BYTE   W96
// 023   ----------------------------------------
 BYTE   W96
// 024   ----------------------------------------
 BYTE   W96
// 025   ----------------------------------------
 BYTE   W96
// 026   ----------------------------------------
 BYTE   W96
// 027   ----------------------------------------
 BYTE   W96
// 028   ----------------------------------------
 BYTE   W96
// 029   ----------------------------------------
 BYTE   W96
// 030   ----------------------------------------
 BYTE   W96
// 031   ----------------------------------------
 BYTE   W96
// 032   ----------------------------------------
 BYTE   W96
// 033   ----------------------------------------
 BYTE   W96
// 034   ----------------------------------------
 BYTE   W96
// 035   ----------------------------------------
 BYTE   W96
// 036   ----------------------------------------
 BYTE   W96
// 037   ----------------------------------------
 BYTE   W96
// 038   ----------------------------------------
 BYTE   W96
// 039   ----------------------------------------
 BYTE   W96
// 040   ----------------------------------------
 BYTE   W96
// 041   ----------------------------------------
 BYTE   W96
// 042   ----------------------------------------
 BYTE   W96
// 043   ----------------------------------------
 BYTE   W96
// 044   ----------------------------------------
 BYTE   W96
// 045   ----------------------------------------
 BYTE   W96
// 046   ----------------------------------------
 BYTE   TEMPO   132*CastlevaniaPortraitofRuinIronBlueIntentionRSflame_tbs/2
 BYTE   W96
// 047   ----------------------------------------
 BYTE   W96
// 048   ----------------------------------------
 BYTE   W96
// 049   ----------------------------------------
 BYTE   W96
// 050   ----------------------------------------
 BYTE   W96
// 051   ----------------------------------------
 BYTE   W96
// 052   ----------------------------------------
 BYTE   W96
// 053   ----------------------------------------
 BYTE   W96
// 054   ----------------------------------------
 BYTE   W96
// 055   ----------------------------------------
 BYTE   W96
// 056   ----------------------------------------
 BYTE   W96
// 057   ----------------------------------------
 BYTE   W96
// 058   ----------------------------------------
 BYTE   W96
// 059   ----------------------------------------
 BYTE   W96
// 060   ----------------------------------------
 BYTE   N05  As5  v080
 BYTE   TEMPO   134*CastlevaniaPortraitofRuinIronBlueIntentionRSflame_tbs/2
 BYTE   W12
 BYTE   N05  An5  v080
 BYTE   W12
 BYTE   As5
 BYTE   W12
 BYTE   An5
 BYTE   W12
 BYTE   As5
 BYTE   W12
 BYTE   Fs5
 BYTE   W12
 BYTE   Fn5
 BYTE   W12
 BYTE   Ds5
 BYTE   W12
// 061   ----------------------------------------
Label_6_01EA6D16:
 BYTE   N05  Gs5  v080
 BYTE   W12
 BYTE   As4
 BYTE   W12
 BYTE   Cn5
 BYTE   W12
 BYTE   Cs5
 BYTE   W12
 BYTE   Ds5
 BYTE   W12
 BYTE   Fn5
 BYTE   W12
 BYTE   Fs5
 BYTE   W12
 BYTE   Gs5
 BYTE   W12
 BYTE   PEND 
// 062   ----------------------------------------
 BYTE   N05  As5  v080
 BYTE   W12
 BYTE   An5
 BYTE   W12
 BYTE   As5
 BYTE   W12
 BYTE   An5
 BYTE   W12
 BYTE   As5
 BYTE   W12
 BYTE   Fs5
 BYTE   W12
 BYTE   Fn5
 BYTE   W12
 BYTE   Ds5
 BYTE   W12
// 063   ----------------------------------------
 BYTE   PATT
  POIN2 Label_6_01EA6D16
// 064   ----------------------------------------
 BYTE   N05  Bn5  v080
 BYTE   W12
 BYTE   As5
 BYTE   W12
 BYTE   Bn5
 BYTE   W12
 BYTE   As5
 BYTE   W12
 BYTE   Bn5
 BYTE   W12
 BYTE   Gn5
 BYTE   W12
 BYTE   Fs5
 BYTE   W12
 BYTE   En5
 BYTE   W12
// 065   ----------------------------------------
 BYTE   An5
 BYTE   W12
 BYTE   Bn4
 BYTE   W12
 BYTE   Cs5
 BYTE   W12
 BYTE   Dn5
 BYTE   W12
 BYTE   En5
 BYTE   W12
 BYTE   Fs5
 BYTE   W12
 BYTE   Gn5
 BYTE   W12
 BYTE   An5
 BYTE   W12
// 066   ----------------------------------------
 BYTE   Bn5
 BYTE   W12
 BYTE   As5
 BYTE   W12
 BYTE   Bn5
 BYTE   W12
 BYTE   As5
 BYTE   W12
 BYTE   Bn5
 BYTE   W12
 BYTE   En6
 BYTE   W12
 BYTE   Fs6
 BYTE   W12
 BYTE   Gn6
 BYTE   W12
// 067   ----------------------------------------
 BYTE   An6
 BYTE   W12
 BYTE   Fs6
 BYTE   W12
 BYTE   En6
 BYTE   W12
 BYTE   Cs6
 BYTE   W12
 BYTE   An5
 BYTE   W12
 BYTE   En5
 BYTE   W12
 BYTE   An5
 BYTE   W12
 BYTE   Bn5
 BYTE   W12
// 068   ----------------------------------------
 BYTE   Cn6
 BYTE   W05
 BYTE   W06
 BYTE   W96
// 069   ----------------------------------------
 BYTE   W96
// 070   ----------------------------------------
 BYTE   W96
// 071   ----------------------------------------
 BYTE   W84
 BYTE   W96
// 072   ----------------------------------------
 BYTE   W96
// 073   ----------------------------------------
 BYTE   W96
// 074   ----------------------------------------
 BYTE   W96
// 075   ----------------------------------------
 BYTE   W96
// 076   ----------------------------------------
 BYTE   W96
// 077   ----------------------------------------
 BYTE   W96
// 078   ----------------------------------------
 BYTE   W42
 BYTE   W36
 BYTE   W06
 BYTE   W06
 BYTE   GoTo
  POIN2 Label_6_01EA6CB8
 BYTE   FINE

//**************** Track 8 (Midi-Chn.7) ****************//

CastlevaniaPortraitofRuinIronBlueIntentionRSflame_008:
// 000   ----------------------------------------
Label_7_01EA8E5C:
 BYTE   TEMPO   134*CastlevaniaPortraitofRuinIronBlueIntentionRSflame_tbs/2
 BYTE   KEYSH   CastlevaniaPortraitofRuinIronBlueIntentionRSflame_key+0
 BYTE   VOICE   48
 BYTE   VOL   37*CastlevaniaPortraitofRuinIronBlueIntentionRSflame_mvl/mxv
 BYTE   PAN   c_v-39
 BYTE   BEND   c_v-5
 BYTE   W96
// 001   ----------------------------------------
 BYTE   W96
// 002   ----------------------------------------
 BYTE   W96
// 003   ----------------------------------------
 BYTE   W96
// 004   ----------------------------------------
 BYTE   W12
 BYTE   N05  Dn4  v080
 BYTE   W06
 BYTE   An3
 BYTE   W06
 BYTE   En4
 BYTE   W06
 BYTE   An3
 BYTE   W06
 BYTE   N23  Fn4
 BYTE   W30
 BYTE   N05  An3
 BYTE   W06
 BYTE   Dn4
 BYTE   W06
 BYTE   En4
 BYTE   W06
 BYTE   Fn4
 BYTE   W06
 BYTE   En4
 BYTE   W06
// 005   ----------------------------------------
 BYTE   Dn4
 BYTE   W12
 BYTE   En4
 BYTE   W06
 BYTE   Gn3
 BYTE   W06
 BYTE   Fn4
 BYTE   W06
 BYTE   Gn3
 BYTE   W06
 BYTE   N23  Gn4
 BYTE   W30
 BYTE   N05  Gn3
 BYTE   W06
 BYTE   En4
 BYTE   W06
 BYTE   Fn4
 BYTE   W06
 BYTE   Gn4
 BYTE   W06
 BYTE   Fn4
 BYTE   W06
// 006   ----------------------------------------
 BYTE   En4
 BYTE   W12
 BYTE   Fn4
 BYTE   W06
 BYTE   As3
 BYTE   W06
 BYTE   Gn4
 BYTE   W06
 BYTE   As3
 BYTE   W06
 BYTE   N23  An4
 BYTE   W30
 BYTE   N05  As3
 BYTE   W06
 BYTE   Fn4
 BYTE   W06
 BYTE   Gn4
 BYTE   W06
 BYTE   An4
 BYTE   W06
 BYTE   Gn4
 BYTE   W06
// 007   ----------------------------------------
 BYTE   Fn4
 BYTE   W12
 BYTE   Gn4
 BYTE   W06
 BYTE   An4
 BYTE   W06
 BYTE   N17  As4
 BYTE   W18
 BYTE   N05  Gn4
 BYTE   W06
 BYTE   En4
 BYTE   W06
 BYTE   Dn4
 BYTE   W06
 BYTE   Cn4
 BYTE   W06
 BYTE   Gn3
 BYTE   W06
 BYTE   Cn4
 BYTE   W06
 BYTE   Dn4
 BYTE   W06
 BYTE   N11  En4
 BYTE   W12
// 008   ----------------------------------------
 BYTE   An2  v090
 BYTE   N11  An1  v076
 BYTE   W12
Label_7_01EA8ED6:
 BYTE   N15  Dn3  v090
 BYTE   N15  Dn2  v076
 BYTE   W24
 BYTE   En3  v090
 BYTE   N15  En2  v076
 BYTE   W24
 BYTE   N23  Fn3  v090
 BYTE   N23  Fn2  v076
 BYTE   W36
// 009   ----------------------------------------
 BYTE   N11  An3  v090
 BYTE   N11  An2  v076
 BYTE   W12
 BYTE   PEND 
Label_7_01EA8EF2:
 BYTE   N05  Gn3  v090
 BYTE   N05  Gn2  v076
 BYTE   W12
 BYTE   As3  v090
 BYTE   N05  As2  v076
 BYTE   W12
 BYTE   N23  Fn4  v090
 BYTE   N23  Fn3  v076
 BYTE   W36
 BYTE   N11  Fn4  v090
 BYTE   N11  Fn3  v076
 BYTE   W12
 BYTE   En4  v090
 BYTE   N11  En3  v076
 BYTE   W12
// 010   ----------------------------------------
 BYTE   Dn4  v090
 BYTE   N11  Dn3  v076
 BYTE   W12
 BYTE   PEND 
Label_7_01EA8F1A:
 BYTE   N05  En4  v090
 BYTE   N05  En3  v076
 BYTE   W12
 BYTE   Gn4  v090
 BYTE   N05  Gn3  v076
 BYTE   W12
 BYTE   N23  Cs4  v090
 BYTE   N23  Cs3  v076
 BYTE   W36
 BYTE   N11  As3  v090
 BYTE   N11  As2  v076
 BYTE   W12
 BYTE   An3  v090
 BYTE   N11  An2  v076
 BYTE   W12
// 011   ----------------------------------------
 BYTE   En3  v090
 BYTE   N11  En2  v076
 BYTE   W12
 BYTE   PEND 
Label_7_01EA8F42:
 BYTE   N11  Gn3  v090
 BYTE   N11  Gn2  v076
 BYTE   W24
 BYTE   N44  Fn3  v090
 BYTE   N44  Fn2  v076
 BYTE   W22
 BYTE   N03  Fn3  v090
 BYTE   N03  Fn2  v076
 BYTE   W36
 BYTE   W02
// 012   ----------------------------------------
 BYTE   N11  An3  v090
 BYTE   N11  An2  v076
 BYTE   W12
 BYTE   PEND 
 BYTE   N05  Dn4  v090
 BYTE   N05  Dn3  v076
 BYTE   W12
 BYTE   En4  v090
 BYTE   N05  En3  v076
 BYTE   W12
 BYTE   N32  Fn4  v090
 BYTE   N32  Fn3  v076
 BYTE   W16
 BYTE   N03  Fn4  v090
 BYTE   N03  Fn3  v076
 BYTE   W20
 BYTE   N11  En4  v090
 BYTE   N11  En3  v076
 BYTE   W12
 BYTE   Fn4  v090
 BYTE   N11  Fn3  v076
 BYTE   W12
// 013   ----------------------------------------
 BYTE   Gn4  v090
 BYTE   N11  Gn3  v076
 BYTE   W12
Label_7_01EA8F8E:
 BYTE   N05  Cn4  v090
 BYTE   N05  Cn3  v076
 BYTE   W12
 BYTE   Dn4  v090
 BYTE   N05  Dn3  v076
 BYTE   W12
 BYTE   N28  En4  v090
 BYTE   N28  En3  v076
 BYTE   W14
 BYTE   N01  En4  v090
 BYTE   N01  En3  v076
 BYTE   W22
 BYTE   N11  Dn4  v090
 BYTE   N11  Dn3  v076
 BYTE   W12
 BYTE   En4  v090
 BYTE   N11  En3  v076
 BYTE   W12
// 014   ----------------------------------------
 BYTE   Fn4  v090
 BYTE   N11  Fn3  v076
 BYTE   W12
 BYTE   PEND 
 BYTE   N05  Gn3  v090
 BYTE   N05  Gn2  v076
 BYTE   W06
 BYTE   An3  v090
 BYTE   N05  An2  v076
 BYTE   W06
 BYTE   N11  As3  v090
 BYTE   N11  As2  v076
 BYTE   W24
 BYTE   N05  As3  v090
 BYTE   N05  As2  v076
 BYTE   W06
 BYTE   Cn4  v090
 BYTE   N05  Cn3  v076
 BYTE   W06
 BYTE   N23  Dn4  v090
 BYTE   N23  Dn3  v076
 BYTE   W30
 BYTE   N05  Cs4  v090
 BYTE   N05  Cs3  v076
 BYTE   W06
// 015   ----------------------------------------
 BYTE   Dn4  v090
 BYTE   N05  Dn3  v076
 BYTE   W06
 BYTE   En4  v090
 BYTE   N05  En3  v076
 BYTE   W06
 BYTE   N28  Fn4  v090
 BYTE   N28  Fn3  v076
 BYTE   W14
 BYTE   N01  Fn4  v090
 BYTE   N01  Fn3  v076
 BYTE   W22
 BYTE   N05  En4  v090
 BYTE   N05  En3  v076
 BYTE   W06
 BYTE   Dn4  v090
 BYTE   N05  Dn3  v076
 BYTE   W06
 BYTE   N32  En4  v090
 BYTE   N32  En3  v076
 BYTE   W16
 BYTE   N03  En4  v090
 BYTE   N03  En3  v076
 BYTE   W20
// 016   ----------------------------------------
 BYTE   N11  An2  v090
 BYTE   N11  An1  v076
 BYTE   W12
// 017   ----------------------------------------
 BYTE   PATT
  POIN2 Label_7_01EA8ED6
// 018   ----------------------------------------
 BYTE   PATT
  POIN2 Label_7_01EA8EF2
// 019   ----------------------------------------
 BYTE   PATT
  POIN2 Label_7_01EA8F1A
// 020   ----------------------------------------
 BYTE   PATT
  POIN2 Label_7_01EA8F42
// 021   ----------------------------------------
 BYTE   N05  Dn4  v090
 BYTE   N05  Dn3  v076
 BYTE   W12
 BYTE   En4  v090
 BYTE   N05  En3  v076
 BYTE   W12
 BYTE   N23  Fn4  v090
 BYTE   N23  Fn3  v076
 BYTE   W36
 BYTE   N11  En4  v090
 BYTE   N11  En3  v076
 BYTE   W12
 BYTE   Fn4  v090
 BYTE   N11  Fn3  v076
 BYTE   W12
 BYTE   Gn4  v090
 BYTE   N11  Gn3  v076
 BYTE   W12
// 022   ----------------------------------------
 BYTE   PATT
  POIN2 Label_7_01EA8F8E
// 023   ----------------------------------------
 BYTE   N05  Gn3  v090
 BYTE   N05  Gn2  v076
 BYTE   W06
 BYTE   An3  v090
 BYTE   N05  An2  v076
 BYTE   W06
 BYTE   N11  As3  v090
 BYTE   N11  As2  v076
 BYTE   W24
 BYTE   N05  As3  v090
 BYTE   N05  As2  v076
 BYTE   W06
 BYTE   Cn4  v090
 BYTE   N05  Cn3  v076
 BYTE   W06
 BYTE   Dn4  v090
 BYTE   N05  Dn3  v076
 BYTE   W12
 BYTE   Gn3  v090
 BYTE   N05  Gn2  v076
 BYTE   W06
 BYTE   Fs3  v090
 BYTE   N05  Fs2  v076
 BYTE   W06
 BYTE   Gn3  v090
 BYTE   N05  Gn2  v076
 BYTE   W06
 BYTE   Fs3  v090
 BYTE   N05  Fs2  v076
 BYTE   W06
 BYTE   Gn3  v090
 BYTE   N05  Gn2  v076
 BYTE   W12
// 024   ----------------------------------------
 BYTE   Bn3  v090
 BYTE   N05  Bn2  v076
 BYTE   W06
 BYTE   As3  v090
 BYTE   N05  As2  v076
 BYTE   W06
 BYTE   N11  Bn3  v090
 BYTE   N11  Bn2  v076
 BYTE   W24
 BYTE   N05  Bn3  v090
 BYTE   N05  Bn2  v076
 BYTE   W06
 BYTE   Cs4  v090
 BYTE   N05  Cs3  v076
 BYTE   W06
 BYTE   Dn4  v090
 BYTE   N05  Dn3  v076
 BYTE   W12
 BYTE   Bn3  v090
 BYTE   N05  Bn2  v076
 BYTE   W06
 BYTE   Fn3  v090
 BYTE   N05  Fn2  v076
 BYTE   W06
 BYTE   Bn3  v090
 BYTE   N05  Bn2  v076
 BYTE   W06
 BYTE   Dn4  v090
 BYTE   N05  Dn3  v076
 BYTE   W06
 BYTE   Fn4  v090
 BYTE   N05  Fn3  v076
 BYTE   W06
 BYTE   Gs4  v090
 BYTE   N05  Gs3  v076
 BYTE   W06
// 025   ----------------------------------------
 BYTE   N96  An4  v090
 BYTE   N96  An3  v076
 BYTE   W48
 BYTE   N92  An4  v090
 BYTE   N92  An3  v076
 BYTE   W44
 BYTE   W02
 BYTE   N03  An4  v090
 BYTE   N03  An3  v076
 BYTE   W96
// 026   ----------------------------------------
 BYTE   W96
// 027   ----------------------------------------
 BYTE   W96
// 028   ----------------------------------------
 BYTE   W96
// 029   ----------------------------------------
 BYTE   W96
// 030   ----------------------------------------
 BYTE   W96
// 031   ----------------------------------------
 BYTE   W96
// 032   ----------------------------------------
 BYTE   W96
// 033   ----------------------------------------
 BYTE   W84
 BYTE   W02
 BYTE   N11  An2  v090
 BYTE   N11  An1  v076
 BYTE   W12
// 034   ----------------------------------------
 BYTE   N15  Dn3  v090
 BYTE   N15  Dn2  v076
 BYTE   W24
 BYTE   En3  v090
 BYTE   N15  En2  v076
 BYTE   W24
 BYTE   N23  Fn3  v090
 BYTE   N23  Fn2  v076
 BYTE   W36
 BYTE   N11  An3  v090
 BYTE   N11  An2  v076
 BYTE   W12
// 035   ----------------------------------------
 BYTE   N05  Gn3  v090
 BYTE   N05  Gn2  v076
 BYTE   W12
 BYTE   As3  v090
 BYTE   N05  As2  v076
 BYTE   W12
 BYTE   N23  Fn4  v090
 BYTE   N23  Fn3  v076
 BYTE   W36
 BYTE   N11  Fn4  v090
 BYTE   N11  Fn3  v076
 BYTE   W12
 BYTE   En4  v090
 BYTE   N11  En3  v076
 BYTE   W12
 BYTE   Dn4  v090
 BYTE   N11  Dn3  v076
 BYTE   W12
// 036   ----------------------------------------
 BYTE   N05  En4  v090
 BYTE   N05  En3  v076
 BYTE   W12
 BYTE   Gn4  v090
 BYTE   N05  Gn3  v076
 BYTE   W12
 BYTE   N23  Cs4  v090
 BYTE   N23  Cs3  v076
 BYTE   W36
 BYTE   N11  As3  v090
 BYTE   N11  As2  v076
 BYTE   W12
 BYTE   An3  v090
 BYTE   N11  An2  v076
 BYTE   W12
 BYTE   En3  v090
 BYTE   N11  En2  v076
 BYTE   W12
// 037   ----------------------------------------
 BYTE   Gn3  v090
 BYTE   N11  Gn2  v076
 BYTE   W24
 BYTE   N44  Fn3  v090
 BYTE   N44  Fn2  v076
 BYTE   W22
 BYTE   N03  Fn3  v090
 BYTE   N03  Fn2  v076
 BYTE   W36
 BYTE   W02
 BYTE   N11  An3  v090
 BYTE   N11  An2  v076
 BYTE   W12
// 038   ----------------------------------------
 BYTE   N05  Dn4  v090
 BYTE   N05  Dn3  v076
 BYTE   W12
 BYTE   En4  v090
 BYTE   N05  En3  v076
 BYTE   W12
 BYTE   N23  Fn4  v090
 BYTE   N23  Fn3  v076
 BYTE   W36
 BYTE   N11  En4  v090
 BYTE   N11  En3  v076
 BYTE   W12
 BYTE   Fn4  v090
 BYTE   N11  Fn3  v076
 BYTE   W12
 BYTE   Gn4  v090
 BYTE   N11  Gn3  v076
 BYTE   W12
// 039   ----------------------------------------
 BYTE   N05  Cn4  v090
 BYTE   N05  Cn3  v076
 BYTE   W12
 BYTE   Dn4  v090
 BYTE   N05  Dn3  v076
 BYTE   W12
 BYTE   N28  En4  v090
 BYTE   N28  En3  v076
 BYTE   W14
 BYTE   N01  En4  v090
 BYTE   N01  En3  v076
 BYTE   W22
 BYTE   N11  Dn4  v090
 BYTE   N11  Dn3  v076
 BYTE   W12
 BYTE   En4  v090
 BYTE   N11  En3  v076
 BYTE   W12
 BYTE   Fn4  v090
 BYTE   N11  Fn3  v076
 BYTE   W12
// 040   ----------------------------------------
 BYTE   N05  Gn3  v090
 BYTE   N05  Gn2  v076
 BYTE   W06
 BYTE   An3  v090
 BYTE   N05  An2  v076
 BYTE   W06
 BYTE   As3  v090
 BYTE   N05  As2  v076
 BYTE   W24
 BYTE   As3  v090
 BYTE   N05  As2  v076
 BYTE   W06
 BYTE   Cn4  v090
 BYTE   N05  Cn3  v076
 BYTE   W06
 BYTE   Dn4  v090
 BYTE   N05  Dn3  v076
 BYTE   W12
 BYTE   Gn3  v090
 BYTE   N05  Gn2  v076
 BYTE   W06
 BYTE   Fs3  v090
 BYTE   N05  Fs2  v076
 BYTE   W06
 BYTE   Gn3  v090
 BYTE   N05  Gn2  v076
 BYTE   W06
 BYTE   An3  v090
 BYTE   N05  An2  v076
 BYTE   W06
 BYTE   As3  v090
 BYTE   N05  As2  v076
 BYTE   W06
 BYTE   Dn4  v090
 BYTE   N05  Dn3  v076
 BYTE   W06
// 041   ----------------------------------------
 BYTE   N44  Fn4  v090
 BYTE   N44  Fn3  v076
 BYTE   W22
 BYTE   N03  Fn4  v090
 BYTE   N03  Fn3  v076
 BYTE   W24
 BYTE   W02
 BYTE   N44  En3
 BYTE   N44  En4  v090
 BYTE   W22
 BYTE   N03  En3  v076
 BYTE   N03  En4  v090
 BYTE   W96
// 042   ----------------------------------------
 BYTE   W96
// 043   ----------------------------------------
 BYTE   W96
// 044   ----------------------------------------
 BYTE   W96
// 045   ----------------------------------------
 BYTE   W14
 BYTE   TEMPO   132*CastlevaniaPortraitofRuinIronBlueIntentionRSflame_tbs/2
 BYTE   W12
 BYTE   N05  As3  v090
 BYTE   W12
 BYTE   Ds4
 BYTE   W06
 BYTE   Fn4
 BYTE   W06
 BYTE   N23  Fs4
 BYTE   W30
 BYTE   N05  As3
 BYTE   W06
 BYTE   Ds4
 BYTE   W06
 BYTE   Fn4
 BYTE   W06
// 046   ----------------------------------------
 BYTE   Gs4
 BYTE   W12
 BYTE   Fs4
 BYTE   W12
 BYTE   N11
 BYTE   W12
 BYTE   N05  Fn4
 BYTE   W12
 BYTE   N23
 BYTE   W30
 BYTE   N05  As3
 BYTE   W06
 BYTE   Dn4
 BYTE   W06
 BYTE   Fn4
 BYTE   W06
// 047   ----------------------------------------
 BYTE   As4
 BYTE   W12
 BYTE   As3
 BYTE   W12
 BYTE   Ds4
 BYTE   W12
 BYTE   Fs4
 BYTE   W06
 BYTE   Gs4
 BYTE   W06
 BYTE   N23  As4
 BYTE   W30
 BYTE   N05  Ds4
 BYTE   W06
 BYTE   Gn4
 BYTE   W06
 BYTE   As4
 BYTE   W06
// 048   ----------------------------------------
 BYTE   Ds5
 BYTE   W12
 BYTE   As4
 BYTE   W12
 BYTE   N11
 BYTE   W12
 BYTE   N05  Bn4
 BYTE   W12
 BYTE   N23
 BYTE   W30
 BYTE   N05  Cs4
 BYTE   W06
 BYTE   Fn4
 BYTE   W06
 BYTE   Gs4
 BYTE   W06
// 049   ----------------------------------------
 BYTE   Cs5
 BYTE   W12
 BYTE   Gs4
 BYTE   W12
 BYTE   N11
 BYTE   W12
 BYTE   N05  As4
 BYTE   W12
 BYTE   N23
 BYTE   W30
 BYTE   N05  Bn3
 BYTE   W06
 BYTE   Ds4
 BYTE   W06
 BYTE   Fs4
 BYTE   W06
// 050   ----------------------------------------
 BYTE   Bn4
 BYTE   W12
 BYTE   Fs4
 BYTE   W12
 BYTE   N11
 BYTE   W12
 BYTE   N05  Gs4
 BYTE   W12
 BYTE   N32
 BYTE   W16
 BYTE   N03
 BYTE   W20
 BYTE   N11  Fs4
 BYTE   W12
// 051   ----------------------------------------
 BYTE   N23  Fn4
 BYTE   W24
 BYTE   N32  Fs4
 BYTE   W16
 BYTE   N03
 BYTE   W20
 BYTE   N05  Fn4
 BYTE   W06
 BYTE   Ds4
 BYTE   W06
 BYTE   N23
 BYTE   W24
// 052   ----------------------------------------
 BYTE   Dn4
 BYTE   W24
 BYTE   N05  As3
 BYTE   W12
 BYTE   Ds4
 BYTE   W06
 BYTE   Fn4
 BYTE   W06
 BYTE   N23  Fs4
 BYTE   W30
 BYTE   N05  As3
 BYTE   W06
 BYTE   Ds4
 BYTE   W06
 BYTE   Fn4
 BYTE   W06
// 053   ----------------------------------------
 BYTE   N11  Gs4
 BYTE   W12
 BYTE   N05  Fs4
 BYTE   W12
 BYTE   N11
 BYTE   W12
 BYTE   N05  Fn4
 BYTE   W12
 BYTE   N23
 BYTE   W30
 BYTE   N05  As3
 BYTE   W06
 BYTE   Dn4
 BYTE   W06
 BYTE   Fn4
 BYTE   W06
// 054   ----------------------------------------
 BYTE   As4
 BYTE   W06
 BYTE   Gs4
 BYTE   W06
 BYTE   Fs4
 BYTE   W06
 BYTE   Fn4
 BYTE   W06
 BYTE   Ds4
 BYTE   W12
 BYTE   Fs4
 BYTE   W06
 BYTE   Gs4
 BYTE   W06
 BYTE   N23  As4
 BYTE   W30
 BYTE   N05  Ds4
 BYTE   W06
 BYTE   Gn4
 BYTE   W06
 BYTE   As4
 BYTE   W06
// 055   ----------------------------------------
 BYTE   Ds5
 BYTE   W12
 BYTE   As4
 BYTE   W12
 BYTE   N11
 BYTE   W12
 BYTE   N05  Bn4
 BYTE   W12
 BYTE   N23
 BYTE   W30
 BYTE   N05  Cs4
 BYTE   W06
 BYTE   Fn4
 BYTE   W06
 BYTE   Gs4
 BYTE   W06
// 056   ----------------------------------------
 BYTE   Cs5
 BYTE   W12
 BYTE   Gs4
 BYTE   W12
 BYTE   N11
 BYTE   W12
 BYTE   N05  As4
 BYTE   W12
 BYTE   N23
 BYTE   W30
 BYTE   N05  Bn3
 BYTE   W06
 BYTE   Ds4
 BYTE   W06
 BYTE   Fs4
 BYTE   W06
// 057   ----------------------------------------
 BYTE   Bn4
 BYTE   W12
 BYTE   Fs4
 BYTE   W12
 BYTE   N11
 BYTE   W12
 BYTE   N05  Gs4
 BYTE   W12
 BYTE   N28
 BYTE   W14
 BYTE   N01
 BYTE   W16
 BYTE   N05  Fs4
 BYTE   W06
 BYTE   Fn4
 BYTE   W06
 BYTE   Ds4
 BYTE   W06
// 058   ----------------------------------------
 BYTE   Dn4
 BYTE   W06
 BYTE   Ds4
 BYTE   W06
 BYTE   Fn4
 BYTE   W06
 BYTE   As3
 BYTE   W06
 BYTE   Cn4
 BYTE   W12
 BYTE   An3
 BYTE   W06
 BYTE   Cn4
 BYTE   W06
 BYTE   Ds4
 BYTE   W12
 BYTE   Cn4
 BYTE   W06
 BYTE   Ds4
 BYTE   W06
 BYTE   N23  Fs4
 BYTE   W24
// 059   ----------------------------------------
 BYTE   Fn4
 BYTE   W12
 BYTE   TEMPO   134*CastlevaniaPortraitofRuinIronBlueIntentionRSflame_tbs/2
 BYTE   W16
 BYTE   VOL   37*CastlevaniaPortraitofRuinIronBlueIntentionRSflame_mvl/mxv
 BYTE   PAN   c_v+16
 BYTE   W01
 BYTE   N04  As5  v060
 BYTE   W12
 BYTE   An5
 BYTE   W12
 BYTE   As5
 BYTE   W12
 BYTE   An5
 BYTE   W12
 BYTE   As5
 BYTE   W12
 BYTE   Fs5
 BYTE   W12
// 060   ----------------------------------------
 BYTE   Fn5
 BYTE   W12
 BYTE   Ds5
 BYTE   W12
 BYTE   Gs5
 BYTE   W12
 BYTE   As4
 BYTE   W12
 BYTE   Cn5
 BYTE   W12
 BYTE   Cs5
 BYTE   W12
 BYTE   Ds5
 BYTE   W12
 BYTE   Fn5
 BYTE   W12
// 061   ----------------------------------------
 BYTE   Fs5
 BYTE   W12
 BYTE   Gs5
 BYTE   W12
 BYTE   As5
 BYTE   W12
 BYTE   An5
 BYTE   W12
 BYTE   As5
 BYTE   W12
 BYTE   An5
 BYTE   W12
 BYTE   As5
 BYTE   W12
 BYTE   Fs5
 BYTE   W12
// 062   ----------------------------------------
 BYTE   Fn5
 BYTE   W12
 BYTE   Ds5
 BYTE   W12
 BYTE   Gs5
 BYTE   W12
 BYTE   As4
 BYTE   W12
 BYTE   Cn5
 BYTE   W12
 BYTE   Cs5
 BYTE   W12
 BYTE   Ds5
 BYTE   W12
 BYTE   Fn5
 BYTE   W12
// 063   ----------------------------------------
 BYTE   Fs5
 BYTE   W12
 BYTE   Gs5
 BYTE   W12
 BYTE   Bn5
 BYTE   W12
 BYTE   As5
 BYTE   W12
 BYTE   Bn5
 BYTE   W12
 BYTE   As5
 BYTE   W12
 BYTE   Bn5
 BYTE   W12
 BYTE   Gn5
 BYTE   W12
// 064   ----------------------------------------
 BYTE   Fs5
 BYTE   W12
 BYTE   En5
 BYTE   W12
 BYTE   An5
 BYTE   W12
 BYTE   Bn4
 BYTE   W12
 BYTE   Cs5
 BYTE   W12
 BYTE   Dn5
 BYTE   W12
 BYTE   En5
 BYTE   W12
 BYTE   Fs5
 BYTE   W12
// 065   ----------------------------------------
 BYTE   Gn5
 BYTE   W12
 BYTE   An5
 BYTE   W12
 BYTE   Bn5
 BYTE   W12
 BYTE   As5
 BYTE   W12
 BYTE   Bn5
 BYTE   W12
 BYTE   As5
 BYTE   W12
 BYTE   Bn5
 BYTE   W12
 BYTE   En6
 BYTE   W12
// 066   ----------------------------------------
 BYTE   Fs6
 BYTE   W12
 BYTE   Gn6
 BYTE   W12
 BYTE   An6
 BYTE   W12
 BYTE   Fs6
 BYTE   W12
 BYTE   En6
 BYTE   W12
 BYTE   Cs6
 BYTE   W12
 BYTE   An5
 BYTE   W12
 BYTE   En5
 BYTE   W12
// 067   ----------------------------------------
 BYTE   An5
 BYTE   W11
 BYTE   N04  Bn5  v060
 BYTE   W05
 BYTE   W06
 BYTE   N04  Cn6  v060
 BYTE   W78
// 068   ----------------------------------------
 BYTE   VOL   37*CastlevaniaPortraitofRuinIronBlueIntentionRSflame_mvl/mxv
 BYTE   PAN   c_v-39
 BYTE   W96
// 069   ----------------------------------------
 BYTE   W96
// 070   ----------------------------------------
 BYTE   W92
 BYTE   W02
 BYTE   W18
// 071   ----------------------------------------
 BYTE   N05  Dn4  v090
 BYTE   N05  Dn3
 BYTE   W06
 BYTE   En4
 BYTE   N05  En3
 BYTE   W06
 BYTE   Fn4
 BYTE   N05  Fn3
 BYTE   W42
 BYTE   An3
 BYTE   N05  An2
 BYTE   W06
 BYTE   Dn4
 BYTE   N05  Dn3
 BYTE   W06
 BYTE   En4
 BYTE   N05  En3
 BYTE   W06
 BYTE   Fn4
 BYTE   N05  Fn3
 BYTE   W24
// 072   ----------------------------------------
 BYTE   En4
 BYTE   N05  En3
 BYTE   W06
 BYTE   Fn4
 BYTE   N05  Fn3
 BYTE   W06
 BYTE   Gn4
 BYTE   N05  Gn3
 BYTE   W42
 BYTE   An3
 BYTE   N05  An2
 BYTE   W06
 BYTE   En4
 BYTE   N05  En3
 BYTE   W06
 BYTE   Fn4
 BYTE   N05  Fn3
 BYTE   W06
 BYTE   Gn4
 BYTE   N05  Gn3
 BYTE   W24
// 073   ----------------------------------------
 BYTE   Cs4
 BYTE   N05  Cs3
 BYTE   W06
 BYTE   En4
 BYTE   N05  En3
 BYTE   W06
 BYTE   As4
 BYTE   N05  As3
 BYTE   W42
 BYTE   Gn3
 BYTE   N05  Gn2
 BYTE   W06
 BYTE   An3
 BYTE   N05  An2
 BYTE   W06
 BYTE   Cs4
 BYTE   N05  Cs3
 BYTE   W06
 BYTE   Gn4
 BYTE   N05  Gn3
 BYTE   W24
// 074   ----------------------------------------
 BYTE   Fn4
 BYTE   N05  Fn3
 BYTE   W06
 BYTE   An4
 BYTE   N05  An3
 BYTE   W06
 BYTE   Dn5
 BYTE   N05  Dn4
 BYTE   W42
 BYTE   En4
 BYTE   N05  En3
 BYTE   W06
 BYTE   Fn4
 BYTE   N05  Fn3
 BYTE   W06
 BYTE   An4
 BYTE   N05  An3
 BYTE   W06
 BYTE   Dn5
 BYTE   N05  Dn4
 BYTE   W24
// 075   ----------------------------------------
 BYTE   Dn4
 BYTE   N05  Dn3
 BYTE   W06
 BYTE   En4
 BYTE   N05  En3
 BYTE   W06
 BYTE   Fn4
 BYTE   N05  Fn3
 BYTE   W42
 BYTE   An3
 BYTE   N05  An2
 BYTE   W06
 BYTE   Dn4
 BYTE   N05  Dn3
 BYTE   W06
 BYTE   En4
 BYTE   N05  En3
 BYTE   W06
 BYTE   Fn4
 BYTE   N05  Fn3
 BYTE   W24
// 076   ----------------------------------------
 BYTE   En4
 BYTE   N05  En3
 BYTE   W06
 BYTE   Fn4
 BYTE   N05  Fn3
 BYTE   W06
 BYTE   Gn4
 BYTE   N05  Gn3
 BYTE   W42
 BYTE   An3
 BYTE   N05  An2
 BYTE   W06
 BYTE   En4
 BYTE   N05  En3
 BYTE   W06
 BYTE   Fn4
 BYTE   N05  Fn3
 BYTE   W06
 BYTE   Gn4
 BYTE   N05  Gn3
 BYTE   W24
// 077   ----------------------------------------
 BYTE   Gn3
 BYTE   N05  Gn2
 BYTE   W06
 BYTE   An3
 BYTE   N05  An2
 BYTE   W06
 BYTE   En4
 BYTE   N05  En3
 BYTE   W42
 BYTE   Gn3
 BYTE   N05  Gn2
 BYTE   W06
 BYTE   An3
 BYTE   N05  An2
 BYTE   W06
 BYTE   Cs4
 BYTE   N05  Cs3
 BYTE   W06
 BYTE   En4
 BYTE   N05  En3
 BYTE   W24
// 078   ----------------------------------------
 BYTE   Dn4
 BYTE   N05  Dn3
 BYTE   W06
 BYTE   En4
 BYTE   N05  En3
 BYTE   W06
 BYTE   Fn4
 BYTE   N05  Fn3
 BYTE   W11
 BYTE   W30
 BYTE   N05  En4  v090
 BYTE   N05  En3
 BYTE   W05
 BYTE   N05  Fn4  v090
 BYTE   N05  Fn3
 BYTE   W05
 BYTE   N05  An4  v090
 BYTE   N05  An3
 BYTE   W06
 BYTE   Dn5
 BYTE   N05  Dn4
 BYTE   GoTo
  POIN2 Label_7_01EA8E5C
 BYTE   FINE

//**************** Track 9 (Midi-Chn.8) ****************//

CastlevaniaPortraitofRuinIronBlueIntentionRSflame_009:
// 000   ----------------------------------------
Label_8_01EA94F8:
 BYTE   TEMPO   134*CastlevaniaPortraitofRuinIronBlueIntentionRSflame_tbs/2
 BYTE   KEYSH   CastlevaniaPortraitofRuinIronBlueIntentionRSflame_key+0
 BYTE   VOICE   127
 BYTE   VOL   37*CastlevaniaPortraitofRuinIronBlueIntentionRSflame_mvl/mxv
 BYTE   PAN   c_v+0
 BYTE   N44  Gs2  v060
 BYTE   W22
 BYTE   N03
 BYTE   W24
 BYTE   W02
 BYTE   N44
 BYTE   W22
 BYTE   N03
 BYTE   W24
 BYTE   W02
// 001   ----------------------------------------
Label_8_01EA950E:
 BYTE   N44  Gs2  v060
 BYTE   W22
 BYTE   N03
 BYTE   W24
 BYTE   W02
 BYTE   N44
 BYTE   W22
 BYTE   N03
 BYTE   W24
 BYTE   W02
 BYTE   PEND 
// 002   ----------------------------------------
 BYTE   PATT
  POIN2 Label_8_01EA950E
// 003   ----------------------------------------
 BYTE   N44  Gs2  v060
 BYTE   W22
 BYTE   N03
 BYTE   W24
 BYTE   W02
 BYTE   N23
 BYTE   W12
 BYTE   N05  Cn1  v127
 BYTE   W06
 BYTE   Cn1
 BYTE   W06
 BYTE   N17
 BYTE   N20  Dn1
 BYTE   W24
// 004   ----------------------------------------
 BYTE   N11  Cn1
 BYTE   W12
 BYTE   N10  As1  v062
 BYTE   N11  Cn1  v127
 BYTE   W12
 BYTE   N10  As1  v082
 BYTE   N17  Dn1  v127
 BYTE   W12
 BYTE   N10  As1  v062
 BYTE   W06
 BYTE   N11  Dn1  v127
 BYTE   W06
 BYTE   N10  As1  v082
 BYTE   W06
 BYTE   N17  Dn1  v127
 BYTE   W06
 BYTE   N05  Cn1
 BYTE   N10  As1  v062
 BYTE   W06
 BYTE   N05  Cn1  v127
 BYTE   W06
 BYTE   N10  As1  v082
 BYTE   N11  Dn1  v127
 BYTE   W12
 BYTE   N10  As1  v062
 BYTE   N20  Dn1  v087
 BYTE   W12
// 005   ----------------------------------------
Label_8_01EA956C:
 BYTE   N10  As1  v082
 BYTE   N11  Cn1  v127
 BYTE   W12
 BYTE   N10  As1  v062
 BYTE   N11  Cn1  v127
 BYTE   W12
 BYTE   N10  As1  v082
 BYTE   N12  Dn1  v127
 BYTE   W12
 BYTE   N05  Dn1  v087
 BYTE   N10  As1  v062
 BYTE   W06
 BYTE   N11  Dn1  v127
 BYTE   W06
 BYTE   N10  As1  v082
 BYTE   W06
 BYTE   N12  Dn1  v127
 BYTE   W06
 BYTE   N10  As1  v062
 BYTE   N11  Cn1  v127
 BYTE   W06
 BYTE   N05  Dn1  v087
 BYTE   W06
 BYTE   N10  As1  v082
 BYTE   N11  Dn1  v127
 BYTE   W12
 BYTE   N10  As1  v062
 BYTE   N20  Dn1  v087
 BYTE   W12
 BYTE   PEND 
// 006   ----------------------------------------
Label_8_01EA95AE:
 BYTE   N10  As1  v082
 BYTE   N11  Cn1  v127
 BYTE   W12
 BYTE   N10  As1  v062
 BYTE   N11  Cn1  v127
 BYTE   W12
 BYTE   N10  As1  v082
 BYTE   N12  Dn1  v127
 BYTE   W12
 BYTE   N05  Dn1  v087
 BYTE   N10  As1  v062
 BYTE   W06
 BYTE   N11  Dn1  v127
 BYTE   W06
 BYTE   N10  As1  v082
 BYTE   W06
 BYTE   N12  Dn1  v127
 BYTE   W06
 BYTE   N05  Cn1
 BYTE   N10  As1  v062
 BYTE   W06
 BYTE   N05  Cn1  v127
 BYTE   N05  Dn1  v087
 BYTE   W06
 BYTE   N10  As1  v082
 BYTE   N11  Dn1  v127
 BYTE   W06
 BYTE   Cn1
 BYTE   W06
 BYTE   N10  As1  v062
 BYTE   N20  Dn1  v087
 BYTE   W06
 BYTE   N05  Cn1  v127
 BYTE   W06
 BYTE   PEND 
// 007   ----------------------------------------
 BYTE   N10  As1  v082
 BYTE   N11  Cn1  v127
 BYTE   W12
 BYTE   N10  As1  v062
 BYTE   N11  Cn1  v127
 BYTE   W12
 BYTE   N10  As1  v082
 BYTE   N12  Dn1  v127
 BYTE   W12
 BYTE   N08  Dn1  v087
 BYTE   N10  As1  v062
 BYTE   W06
 BYTE   N05  Cn1  v127
 BYTE   W06
 BYTE   N06  Dn1
 BYTE   N10  As1  v082
 BYTE   W06
 BYTE   N11  Cn1  v127
 BYTE   N11  Dn1  v087
 BYTE   W06
 BYTE   N10  As1  v062
 BYTE   W06
 BYTE   N05  Dn1  v087
 BYTE   N05  Cn1  v127
 BYTE   W06
 BYTE   N10  As1  v082
 BYTE   N11  Dn1  v127
 BYTE   W06
 BYTE   Cn1
 BYTE   W06
 BYTE   N20  Dn1  v087
 BYTE   W06
 BYTE   N05  Cn1  v127
 BYTE   W06
// 008   ----------------------------------------
Label_8_01EA9641:
 BYTE   N10  As1  v082
 BYTE   N11  Cn1  v127
 BYTE   W12
 BYTE   N10  As1  v062
 BYTE   N11  Cn1  v127
 BYTE   W12
 BYTE   N10  As1  v082
 BYTE   N12  Dn1  v127
 BYTE   W12
 BYTE   N05  Dn1  v087
 BYTE   N10  As1  v062
 BYTE   W06
 BYTE   N11  Dn1  v127
 BYTE   W06
 BYTE   N10  As1  v082
 BYTE   W06
 BYTE   N06  Dn1  v127
 BYTE   W06
 BYTE   N10  As1  v062
 BYTE   N11  Cn1  v127
 BYTE   N11  Dn1  v087
 BYTE   W12
 BYTE   N10  As1  v082
 BYTE   N11  Dn1  v127
 BYTE   W12
 BYTE   N10  As1  v062
 BYTE   N20  Dn1  v087
 BYTE   W12
 BYTE   PEND 
// 009   ----------------------------------------
 BYTE   PATT
  POIN2 Label_8_01EA956C
// 010   ----------------------------------------
 BYTE   PATT
  POIN2 Label_8_01EA956C
// 011   ----------------------------------------
 BYTE   PATT
  POIN2 Label_8_01EA956C
// 012   ----------------------------------------
Label_8_01EA9691:
 BYTE   N10  As1  v082
 BYTE   N11  Cn1  v127
 BYTE   W12
 BYTE   N10  As1  v062
 BYTE   N11  Cn1  v127
 BYTE   W12
 BYTE   N10  As1  v082
 BYTE   N12  Dn1  v127
 BYTE   W12
 BYTE   N05  Dn1  v087
 BYTE   N10  As1  v062
 BYTE   W06
 BYTE   N11  Dn1  v127
 BYTE   W06
 BYTE   N10  As1  v082
 BYTE   W06
 BYTE   N12  Dn1  v127
 BYTE   W06
 BYTE   N05  Cn1
 BYTE   N10  As1  v062
 BYTE   W06
 BYTE   N05  Cn1  v127
 BYTE   N05  Dn1  v087
 BYTE   W06
 BYTE   N10  As1  v082
 BYTE   N11  Dn1  v127
 BYTE   W12
 BYTE   N10  As1  v062
 BYTE   N20  Dn1  v087
 BYTE   W12
 BYTE   PEND 
// 013   ----------------------------------------
 BYTE   PATT
  POIN2 Label_8_01EA9691
// 014   ----------------------------------------
 BYTE   PATT
  POIN2 Label_8_01EA95AE
// 015   ----------------------------------------
 BYTE   N10  As1  v082
 BYTE   N11  Cn1  v127
 BYTE   W12
 BYTE   N10  As1  v062
 BYTE   N11  Cn1  v127
 BYTE   W12
 BYTE   N10  As1  v082
 BYTE   N12  Dn1  v127
 BYTE   W12
 BYTE   N05  Dn1  v087
 BYTE   N10  As1  v062
 BYTE   W06
 BYTE   N05  Cn1  v127
 BYTE   N05  Dn1
 BYTE   W06
 BYTE   N06
 BYTE   N10  As1  v082
 BYTE   W06
 BYTE   N11  Cn1  v127
 BYTE   N11  Dn1  v087
 BYTE   W06
 BYTE   N10  As1  v062
 BYTE   W06
 BYTE   N05  Dn1  v087
 BYTE   N05  Cn1  v127
 BYTE   W06
 BYTE   N10  As1  v082
 BYTE   N11  Dn1  v127
 BYTE   W06
 BYTE   Cn1
 BYTE   W06
 BYTE   N10  As1  v062
 BYTE   N20  Dn1  v087
 BYTE   W06
 BYTE   N05  Cn1  v127
 BYTE   W06
// 016   ----------------------------------------
 BYTE   PATT
  POIN2 Label_8_01EA9641
// 017   ----------------------------------------
 BYTE   PATT
  POIN2 Label_8_01EA956C
// 018   ----------------------------------------
 BYTE   PATT
  POIN2 Label_8_01EA956C
// 019   ----------------------------------------
 BYTE   PATT
  POIN2 Label_8_01EA956C
// 020   ----------------------------------------
 BYTE   PATT
  POIN2 Label_8_01EA9691
// 021   ----------------------------------------
 BYTE   PATT
  POIN2 Label_8_01EA9691
// 022   ----------------------------------------
 BYTE   PATT
  POIN2 Label_8_01EA956C
// 023   ----------------------------------------
 BYTE   PATT
  POIN2 Label_8_01EA956C
// 024   ----------------------------------------
Label_8_01EA9754:
 BYTE   N10  As1  v082
 BYTE   N11  Cn1  v127
 BYTE   W12
 BYTE   N10  As1  v062
 BYTE   N11  Cn1  v127
 BYTE   W12
 BYTE   N10  As1  v082
 BYTE   N12  Dn1  v127
 BYTE   W12
 BYTE   N05  Dn1  v087
 BYTE   N10  As1  v062
 BYTE   W06
 BYTE   N11  Dn1  v127
 BYTE   W06
 BYTE   N10  As1  v082
 BYTE   W06
 BYTE   N12  Dn1  v127
 BYTE   W06
 BYTE   N10  As1  v062
 BYTE   N11  Cn1  v127
 BYTE   W06
 BYTE   N05  Dn1  v087
 BYTE   W06
 BYTE   N10  As1  v082
 BYTE   N11  Dn1  v127
 BYTE   W06
 BYTE   Cn1
 BYTE   W06
 BYTE   N10  As1  v062
 BYTE   N20  Dn1  v087
 BYTE   W06
 BYTE   N05  Cn1  v127
 BYTE   W06
 BYTE   PEND 
// 025   ----------------------------------------
Label_8_01EA979C:
 BYTE   N10  As1  v082
 BYTE   N11  Cn1  v127
 BYTE   W12
 BYTE   N10  As1  v062
 BYTE   N11  Cn1  v127
 BYTE   W12
 BYTE   N10  As1  v082
 BYTE   N12  Dn1  v127
 BYTE   W12
 BYTE   N05  Dn1  v087
 BYTE   N10  As1  v062
 BYTE   W06
 BYTE   N05  Dn1  v127
 BYTE   W06
 BYTE   N06
 BYTE   N10  As1  v082
 BYTE   W06
 BYTE   N11  Cn1  v127
 BYTE   N11  Dn1  v087
 BYTE   W06
 BYTE   N10  As1  v062
 BYTE   W06
 BYTE   N05  Dn1  v087
 BYTE   N05  Cn1  v127
 BYTE   W06
 BYTE   N10  As1  v082
 BYTE   N11  Dn1  v127
 BYTE   W06
 BYTE   Cn1
 BYTE   W06
 BYTE   N10  As1  v062
 BYTE   N20  Dn1  v087
 BYTE   W06
 BYTE   N05  Cn1  v127
 BYTE   W06
 BYTE   PEND 
// 026   ----------------------------------------
 BYTE   N10  As1  v082
 BYTE   N11  Cn1  v127
 BYTE   W12
 BYTE   N10  As1  v062
 BYTE   N11  Cn1  v127
 BYTE   W12
 BYTE   N10  As1  v082
 BYTE   N12  Dn1  v127
 BYTE   W12
 BYTE   N05  Dn1  v087
 BYTE   N10  As1  v062
 BYTE   W06
 BYTE   N12  Dn1  v127
 BYTE   W06
 BYTE   N10  As1  v082
 BYTE   W06
 BYTE   N05  Dn1  v087
 BYTE   N06  Cn2  v108
 BYTE   W06
 BYTE   N11  Cn1  v127
 BYTE   N11  Dn1  v087
 BYTE   N20  Cn2  v120
 BYTE   W06
 BYTE   N06  Bn1  v108
 BYTE   W06
 BYTE   N11  Dn1  v127
 BYTE   N18  Bn1  v120
 BYTE   W06
 BYTE   N06  An1  v108
 BYTE   W06
 BYTE   N20  Dn1  v087
 BYTE   N20  An1  v120
 BYTE   W06
 BYTE   Bn1  v108
 BYTE   W06
// 027   ----------------------------------------
 BYTE   N10  As1  v082
 BYTE   N11  Cn1  v127
 BYTE   W12
 BYTE   N10  As1  v062
 BYTE   N11  Dn1  v127
 BYTE   W12
 BYTE   N05
 BYTE   N10  As1  v082
 BYTE   W06
 BYTE   N20  Dn1  v127
 BYTE   W06
 BYTE   N10  As1  v062
 BYTE   W06
 BYTE   N05  Cn1  v127
 BYTE   W06
 BYTE   N10  As1  v082
 BYTE   N11  Cn1  v127
 BYTE   W12
 BYTE   N10  As1  v062
 BYTE   N11  Dn1  v127
 BYTE   W12
 BYTE   N05
 BYTE   N10  As1  v082
 BYTE   W06
 BYTE   N05  Dn1  v127
 BYTE   W06
 BYTE   N10  As1  v062
 BYTE   N20  Dn1  v087
 BYTE   W12
// 028   ----------------------------------------
 BYTE   N10  As1  v082
 BYTE   N11  Cn1  v127
 BYTE   W12
 BYTE   N10  As1  v062
 BYTE   N11  Cn1  v127
 BYTE   W12
 BYTE   N10  As1  v082
 BYTE   N12  Dn1  v127
 BYTE   W12
 BYTE   N05  Dn1  v087
 BYTE   N10  As1  v062
 BYTE   W06
 BYTE   N20  Dn1  v127
 BYTE   W06
 BYTE   N10  As1  v082
 BYTE   W06
 BYTE   N06  Cn2  v108
 BYTE   W06
 BYTE   N11  Cn1  v127
 BYTE   N20  Cn2  v120
 BYTE   W06
 BYTE   N06  Bn1  v108
 BYTE   W06
 BYTE   N12  Dn1  v127
 BYTE   N18  Bn1  v120
 BYTE   W06
 BYTE   N06  An1  v108
 BYTE   W06
 BYTE   N05  Dn1  v087
 BYTE   N20  An1  v120
 BYTE   W06
 BYTE   N17  Dn1  v087
 BYTE   N20  Bn1  v108
 BYTE   W06
// 029   ----------------------------------------
 BYTE   N10  As1  v082
 BYTE   N11  Cn1  v127
 BYTE   W12
 BYTE   N10  As1  v062
 BYTE   N11  Dn1  v127
 BYTE   W12
 BYTE   N05
 BYTE   N10  As1  v082
 BYTE   W06
 BYTE   N11  Dn1  v127
 BYTE   W06
 BYTE   N10  As1  v062
 BYTE   W06
 BYTE   N17  Dn1  v127
 BYTE   W06
 BYTE   N10  As1  v082
 BYTE   N11  Cn1  v127
 BYTE   W12
 BYTE   N10  As1  v062
 BYTE   N11  Dn1  v127
 BYTE   W12
 BYTE   N05
 BYTE   N10  As1  v082
 BYTE   W06
 BYTE   N20  Dn1  v127
 BYTE   W06
 BYTE   N10  As1  v062
 BYTE   W12
// 030   ----------------------------------------
Label_8_01EA98F9:
 BYTE   N11  Cn1  v127
 BYTE   W24
 BYTE   Cn1
 BYTE   W24
 BYTE   Cn1
 BYTE   W24
 BYTE   Cn1
 BYTE   W24
 BYTE   PEND 
// 031   ----------------------------------------
 BYTE   PATT
  POIN2 Label_8_01EA98F9
// 032   ----------------------------------------
 BYTE   N11  Cn1  v127
 BYTE   W12
 BYTE   N06  Cn2  v120
 BYTE   W06
 BYTE   N20  Cn2  v108
 BYTE   W06
 BYTE   N06  Bn1  v120
 BYTE   W06
 BYTE   N20  Bn1  v108
 BYTE   W06
 BYTE   N06  An1  v120
 BYTE   W06
 BYTE   N20  An1  v108
 BYTE   W06
 BYTE   N11  Cn1  v127
 BYTE   W12
 BYTE   N06  Cn2  v120
 BYTE   W06
 BYTE   N20  Cn2  v108
 BYTE   W06
 BYTE   N06  Bn1  v120
 BYTE   W06
 BYTE   N20  Bn1  v108
 BYTE   W06
 BYTE   N06  An1  v120
 BYTE   W06
 BYTE   N20  An1  v108
 BYTE   W06
// 033   ----------------------------------------
 BYTE   N11  Cn1  v127
 BYTE   W12
 BYTE   N12  Cn2  v108
 BYTE   W12
 BYTE   N06  Cn2  v120
 BYTE   W06
 BYTE   N20  Cn2  v108
 BYTE   W06
 BYTE   Bn1
 BYTE   W06
 BYTE   An1
 BYTE   W06
 BYTE   N11  Cn1  v127
 BYTE   W12
 BYTE   N06  Bn1  v108
 BYTE   N11  Cn1  v127
 BYTE   W12
 BYTE   N05  Dn1
 BYTE   W06
 BYTE   N11
 BYTE   W06
 BYTE   N20  An1  v108
 BYTE   W06
 BYTE   Dn1  v127
 BYTE   W06
// 034   ----------------------------------------
 BYTE   N11  Cn1
 BYTE   W12
 BYTE   N10  As1  v062
 BYTE   N11  Cn1  v127
 BYTE   W12
 BYTE   N10  As1  v082
 BYTE   N17  Dn1  v127
 BYTE   W12
 BYTE   N10  As1  v062
 BYTE   W06
 BYTE   N11  Dn1  v127
 BYTE   W06
 BYTE   N10  As1  v082
 BYTE   W06
 BYTE   N17  Dn1  v127
 BYTE   W06
 BYTE   N10  As1  v062
 BYTE   N11  Cn1  v127
 BYTE   W12
 BYTE   N10  As1  v082
 BYTE   N12  Dn1  v127
 BYTE   W12
 BYTE   N05  Dn1  v087
 BYTE   N10  As1  v062
 BYTE   W06
 BYTE   N11  Dn1  v087
 BYTE   W06
// 035   ----------------------------------------
Label_8_01EA99A6:
 BYTE   N10  As1  v082
 BYTE   N11  Cn1  v127
 BYTE   W06
 BYTE   N17  Dn1  v087
 BYTE   W06
 BYTE   N10  As1  v062
 BYTE   N11  Cn1  v127
 BYTE   W12
 BYTE   N10  As1  v082
 BYTE   N12  Dn1  v127
 BYTE   W12
 BYTE   N05  Dn1  v087
 BYTE   N10  As1  v062
 BYTE   W06
 BYTE   N11  Dn1  v127
 BYTE   W06
 BYTE   N10  As1  v082
 BYTE   W06
 BYTE   N12  Dn1  v127
 BYTE   W06
 BYTE   N10  As1  v062
 BYTE   N11  Cn1  v127
 BYTE   W06
 BYTE   N05  Dn1  v087
 BYTE   W06
 BYTE   N10  As1  v082
 BYTE   N11  Dn1  v127
 BYTE   W12
 BYTE   N10  As1  v062
 BYTE   N20  Dn1  v087
 BYTE   W12
 BYTE   PEND 
// 036   ----------------------------------------
 BYTE   PATT
  POIN2 Label_8_01EA956C
// 037   ----------------------------------------
 BYTE   PATT
  POIN2 Label_8_01EA956C
// 038   ----------------------------------------
 BYTE   PATT
  POIN2 Label_8_01EA956C
// 039   ----------------------------------------
 BYTE   PATT
  POIN2 Label_8_01EA956C
// 040   ----------------------------------------
 BYTE   PATT
  POIN2 Label_8_01EA9754
// 041   ----------------------------------------
 BYTE   N10  As1  v082
 BYTE   N11  Cn1  v127
 BYTE   W12
 BYTE   N10  As1  v062
 BYTE   N11  Cn1  v127
 BYTE   W12
 BYTE   N10  As1  v082
 BYTE   N12  Dn1  v127
 BYTE   W12
 BYTE   N05  Dn1  v087
 BYTE   N10  As1  v062
 BYTE   W06
 BYTE   N05  Cn1  v127
 BYTE   N05  Dn1
 BYTE   W06
 BYTE   N06
 BYTE   N10  As1  v082
 BYTE   W06
 BYTE   N11  Cn1  v127
 BYTE   N11  Dn1  v087
 BYTE   W06
 BYTE   N10  As1  v062
 BYTE   W06
 BYTE   N05  Dn1  v087
 BYTE   N05  Cn1  v127
 BYTE   W06
 BYTE   N10  As1  v082
 BYTE   N11  Dn1  v127
 BYTE   W06
 BYTE   Cn1
 BYTE   W06
 BYTE   N10  As1  v062
 BYTE   N20  Dn1  v087
 BYTE   N20  Cn2  v120
 BYTE   W06
 BYTE   N05  Cn1  v127
 BYTE   N20  An1  v108
 BYTE   W06
// 042   ----------------------------------------
 BYTE   N11  Cn1  v127
 BYTE   W12
 BYTE   N10  As1  v062
 BYTE   N11  Cn1  v127
 BYTE   W12
 BYTE   N10  As1  v082
 BYTE   N12  Dn1  v127
 BYTE   W12
 BYTE   N05  Dn1  v087
 BYTE   N10  As1  v062
 BYTE   W06
 BYTE   N11  Dn1  v127
 BYTE   W06
 BYTE   N10  As1  v082
 BYTE   W06
 BYTE   N06  Dn1  v127
 BYTE   W06
 BYTE   N05  Cn1
 BYTE   N10  As1  v062
 BYTE   N11  Dn1  v087
 BYTE   W06
 BYTE   N05  Cn1  v127
 BYTE   W06
 BYTE   N10  As1  v082
 BYTE   N11  Dn1  v127
 BYTE   W12
 BYTE   N10  As1  v062
 BYTE   N20  Dn1  v087
 BYTE   W12
// 043   ----------------------------------------
 BYTE   PATT
  POIN2 Label_8_01EA956C
// 044   ----------------------------------------
 BYTE   PATT
  POIN2 Label_8_01EA956C
// 045   ----------------------------------------
 BYTE   PATT
  POIN2 Label_8_01EA956C
// 046   ----------------------------------------
 BYTE   TEMPO   132*CastlevaniaPortraitofRuinIronBlueIntentionRSflame_tbs/2
 BYTE   N11  Cn1  v127
 BYTE   N44  Gs2  v080
 BYTE   W06
 BYTE   N05  Gn2  v042
 BYTE   W06
 BYTE   Gn2  v062
 BYTE   W06
 BYTE   Gn2  v042
 BYTE   W04
 BYTE   N03  Gs2  v080
 BYTE   W02
 BYTE   N05  Gn2  v062
 BYTE   W06
 BYTE   Gn2  v042
 BYTE   W06
 BYTE   Gn2  v062
 BYTE   W06
 BYTE   Gn2  v042
 BYTE   W06
 BYTE   N11  Cn1  v127
 BYTE   N44  Gs2  v080
 BYTE   W06
 BYTE   N05  Gn2  v042
 BYTE   W06
 BYTE   Gn2  v062
 BYTE   W06
 BYTE   Gn2  v042
 BYTE   W04
 BYTE   N03  Gs2  v080
 BYTE   W02
 BYTE   N05  Gn2  v062
 BYTE   W06
 BYTE   Gn2  v042
 BYTE   W06
 BYTE   Gn2  v062
 BYTE   W06
 BYTE   Gn2  v042
 BYTE   W06
// 047   ----------------------------------------
Label_8_01EA9AED:
 BYTE   N11  Cn1  v127
 BYTE   N44  Gs2  v080
 BYTE   W06
 BYTE   N05  Gn2  v042
 BYTE   W06
 BYTE   Gn2  v062
 BYTE   W06
 BYTE   Gn2  v042
 BYTE   W04
 BYTE   N03  Gs2  v080
 BYTE   W02
 BYTE   N05  Gn2  v062
 BYTE   W06
 BYTE   Gn2  v042
 BYTE   W06
 BYTE   Gn2  v062
 BYTE   W06
 BYTE   Gn2  v042
 BYTE   W06
 BYTE   N11  Cn1  v127
 BYTE   N44  Gs2  v080
 BYTE   W06
 BYTE   N05  Gn2  v042
 BYTE   W06
 BYTE   Gn2  v062
 BYTE   W06
 BYTE   Gn2  v042
 BYTE   W04
 BYTE   N03  Gs2  v080
 BYTE   W02
 BYTE   N05  Gn2  v062
 BYTE   N20  Dn1  v127
 BYTE   W06
 BYTE   N05  Gn2  v042
 BYTE   W06
 BYTE   Gn2  v062
 BYTE   N11  Cn1  v127
 BYTE   W06
 BYTE   N05  Gn2  v042
 BYTE   W06
 BYTE   PEND 
// 048   ----------------------------------------
Label_8_01EA9B3A:
 BYTE   N11  Cn1  v127
 BYTE   N44  Gs2  v080
 BYTE   W06
 BYTE   N05  Gn2  v042
 BYTE   W06
 BYTE   Gn2  v062
 BYTE   W06
 BYTE   Gn2  v042
 BYTE   W04
 BYTE   N03  Gs2  v080
 BYTE   W02
 BYTE   N05  Gn2  v062
 BYTE   W06
 BYTE   Gn2  v042
 BYTE   W06
 BYTE   Gn2  v062
 BYTE   W06
 BYTE   Gn2  v042
 BYTE   W06
 BYTE   N11  Cn1  v127
 BYTE   N44  Gs2  v080
 BYTE   W06
 BYTE   N05  Gn2  v042
 BYTE   W06
 BYTE   Gn2  v062
 BYTE   W06
 BYTE   Gn2  v042
 BYTE   W04
 BYTE   N03  Gs2  v080
 BYTE   W02
 BYTE   N05  Gn2  v062
 BYTE   W06
 BYTE   Gn2  v042
 BYTE   W06
 BYTE   Gn2  v062
 BYTE   W06
 BYTE   Gn2  v042
 BYTE   W06
 BYTE   PEND 
// 049   ----------------------------------------
 BYTE   PATT
  POIN2 Label_8_01EA9AED
// 050   ----------------------------------------
 BYTE   PATT
  POIN2 Label_8_01EA9B3A
// 051   ----------------------------------------
 BYTE   PATT
  POIN2 Label_8_01EA9B3A
// 052   ----------------------------------------
 BYTE   PATT
  POIN2 Label_8_01EA9AED
// 053   ----------------------------------------
 BYTE   PATT
  POIN2 Label_8_01EA9B3A
// 054   ----------------------------------------
 BYTE   PATT
  POIN2 Label_8_01EA9B3A
// 055   ----------------------------------------
 BYTE   PATT
  POIN2 Label_8_01EA9B3A
// 056   ----------------------------------------
 BYTE   PATT
  POIN2 Label_8_01EA9AED
// 057   ----------------------------------------
 BYTE   N11  Cn1  v127
 BYTE   N44  Gs2  v080
 BYTE   W06
 BYTE   N05  Gn2  v042
 BYTE   W06
 BYTE   Gn2  v062
 BYTE   W06
 BYTE   Gn2  v042
 BYTE   W04
 BYTE   N03  Gs2  v080
 BYTE   W02
 BYTE   N05  Gn2  v062
 BYTE   W06
 BYTE   Gn2  v042
 BYTE   W06
 BYTE   Gn2  v062
 BYTE   W06
 BYTE   Gn2  v042
 BYTE   W06
 BYTE   N11  Cn1  v127
 BYTE   N44  Gs2  v080
 BYTE   W06
 BYTE   N05  Gn2  v042
 BYTE   W06
 BYTE   Gn2  v062
 BYTE   W06
 BYTE   Gn2  v042
 BYTE   W04
 BYTE   N03  Gs2  v080
 BYTE   W02
 BYTE   N05  Gn2  v062
 BYTE   N11  Dn1  v127
 BYTE   W06
 BYTE   N05  Gn2  v042
 BYTE   W06
 BYTE   Gn2  v062
 BYTE   N11  Cn1  v127
 BYTE   W06
 BYTE   N05  Gn2  v042
 BYTE   W06
// 058   ----------------------------------------
 BYTE   PATT
  POIN2 Label_8_01EA9B3A
// 059   ----------------------------------------
 BYTE   N11  Cn1  v127
 BYTE   N44  Gs2  v080
 BYTE   W06
 BYTE   N05  Gn2  v042
 BYTE   W06
 BYTE   Gn2  v062
 BYTE   W06
 BYTE   Gn2  v042
 BYTE   W04
 BYTE   N03  Gs2  v080
 BYTE   W02
 BYTE   N05  Gn2  v062
 BYTE   W06
 BYTE   Gn2  v042
 BYTE   W06
 BYTE   Gn2  v062
 BYTE   W06
 BYTE   Gn2  v042
 BYTE   W06
 BYTE   N11  Cn1  v127
 BYTE   N44  Gs2  v080
 BYTE   W06
 BYTE   N05  Gn2  v042
 BYTE   W06
 BYTE   Gn2  v062
 BYTE   N11  Cn1  v127
 BYTE   W06
 BYTE   N05  Gn2  v042
 BYTE   W04
 BYTE   N03  Gs2  v080
 BYTE   W02
 BYTE   N20  Dn1  v127
 BYTE   W06
 BYTE   N05  Gn2  v042
 BYTE   N11  Cn1  v127
 BYTE   W06
 BYTE   N05  Gn2  v062
 BYTE   W06
 BYTE   Gn2  v042
 BYTE   N05  Cn1  v127
 BYTE   W06
// 060   ----------------------------------------
 BYTE   N11
 BYTE   TEMPO   134*CastlevaniaPortraitofRuinIronBlueIntentionRSflame_tbs/2
 BYTE   W12
 BYTE   N10  As1  v062
 BYTE   N11  Cn1  v127
 BYTE   W12
 BYTE   N10  As1  v082
 BYTE   N17  Dn1  v127
 BYTE   W12
 BYTE   N10  As1  v062
 BYTE   W06
 BYTE   N11  Dn1  v127
 BYTE   W06
 BYTE   N10  As1  v082
 BYTE   W06
 BYTE   N17  Dn1  v127
 BYTE   W06
 BYTE   N05  Cn1
 BYTE   N10  As1  v062
 BYTE   W06
 BYTE   N05  Cn1  v127
 BYTE   W06
 BYTE   N10  As1  v082
 BYTE   N11  Dn1  v127
 BYTE   W12
 BYTE   N10  As1  v062
 BYTE   N20  Dn1  v087
 BYTE   W12
// 061   ----------------------------------------
 BYTE   PATT
  POIN2 Label_8_01EA956C
// 062   ----------------------------------------
 BYTE   PATT
  POIN2 Label_8_01EA9691
// 063   ----------------------------------------
 BYTE   PATT
  POIN2 Label_8_01EA956C
// 064   ----------------------------------------
 BYTE   PATT
  POIN2 Label_8_01EA9691
// 065   ----------------------------------------
 BYTE   PATT
  POIN2 Label_8_01EA956C
// 066   ----------------------------------------
 BYTE   PATT
  POIN2 Label_8_01EA9691
// 067   ----------------------------------------
 BYTE   PATT
  POIN2 Label_8_01EA979C
// 068   ----------------------------------------
 BYTE   N10  As1  v082
 BYTE   N11  Cn1  v127
 BYTE   W05
 BYTE   W06
 BYTE   N10  As1  v062
 BYTE   N11  Cn1  v127
 BYTE   W12
 BYTE   N10  As1  v082
 BYTE   N12  Dn1  v127
 BYTE   W12
 BYTE   N05  Dn1  v087
 BYTE   N10  As1  v062
 BYTE   W06
 BYTE   N11  Dn1  v127
 BYTE   W06
 BYTE   N10  As1  v082
 BYTE   W06
 BYTE   N06  Dn1  v127
 BYTE   W06
 BYTE   N10  As1  v062
 BYTE   N11  Cn1  v127
 BYTE   N11  Dn1  v087
 BYTE   W12
 BYTE   N10  As1  v082
 BYTE   N11  Dn1  v127
 BYTE   W12
 BYTE   N10  As1  v062
 BYTE   N20  Dn1  v087
 BYTE   W12
 BYTE   N10  As1  v082
 BYTE   N11  Cn1  v127
 BYTE   W12
// 069   ----------------------------------------
 BYTE   N10  As1  v062
 BYTE   N11  Cn1  v127
 BYTE   W12
 BYTE   N10  As1  v082
 BYTE   N12  Dn1  v127
 BYTE   W12
 BYTE   N05  Dn1  v087
 BYTE   N10  As1  v062
 BYTE   W06
 BYTE   N11  Dn1  v127
 BYTE   W06
 BYTE   N10  As1  v082
 BYTE   W06
 BYTE   N12  Dn1  v127
 BYTE   W06
 BYTE   N10  As1  v062
 BYTE   N11  Cn1  v127
 BYTE   W06
 BYTE   N05  Dn1  v087
 BYTE   W06
 BYTE   N10  As1  v082
 BYTE   N11  Dn1  v127
 BYTE   W06
 BYTE   Cn1
 BYTE   W06
 BYTE   N10  As1  v062
 BYTE   N20  Dn1  v087
 BYTE   W12
// 070   ----------------------------------------
 BYTE   PATT
  POIN2 Label_8_01EA956C
// 071   ----------------------------------------
 BYTE   N10  As1  v082
 BYTE   N11  Cn1  v127
 BYTE   W12
 BYTE   N10  As1  v062
 BYTE   N11  Cn1  v127
 BYTE   W12
 BYTE   N10  As1  v082
 BYTE   N12  Dn1  v127
 BYTE   W12
 BYTE   N05  Dn1  v087
 BYTE   N10  As1  v062
 BYTE   W06
 BYTE   N11  Dn1  v127
 BYTE   W06
 BYTE   N10  As1  v082
 BYTE   W06
 BYTE   N12  Dn1  v127
 BYTE   W06
 BYTE   N10  As1  v062
 BYTE   N11  Cn1  v127
 BYTE   W06
 BYTE   N05  Dn1  v087
 BYTE   W06
 BYTE   N10  As1  v082
 BYTE   N11  Dn1  v127
 BYTE   W12
 BYTE   N10  As1  v062
 BYTE   N11  Cn1  v127
 BYTE   N20  Dn1  v087
 BYTE   W11
 BYTE   N11  Cn1  v127
 BYTE   W12
// 072   ----------------------------------------
 BYTE   N10  As1  v062
 BYTE   N11  Cn1  v127
 BYTE   W12
 BYTE   N10  As1  v082
 BYTE   N12  Dn1  v127
 BYTE   W12
 BYTE   N05  Dn1  v087
 BYTE   N10  As1  v062
 BYTE   W06
 BYTE   N11  Dn1  v127
 BYTE   W06
 BYTE   N10  As1  v082
 BYTE   W06
 BYTE   N12  Dn1  v127
 BYTE   W06
 BYTE   N05  Cn1
 BYTE   N10  As1  v062
 BYTE   W06
 BYTE   N05  Cn1  v127
 BYTE   N05  Dn1  v087
 BYTE   W06
 BYTE   N10  As1  v082
 BYTE   N11  Dn1  v127
 BYTE   W12
 BYTE   N10  As1  v062
 BYTE   N20  Dn1  v087
 BYTE   W12
// 073   ----------------------------------------
 BYTE   PATT
  POIN2 Label_8_01EA9691
// 074   ----------------------------------------
 BYTE   PATT
  POIN2 Label_8_01EA9691
// 075   ----------------------------------------
 BYTE   N10  As1  v082
 BYTE   N11  Cn1  v127
 BYTE   W12
 BYTE   N10  As1  v062
 BYTE   N11  Cn1  v127
 BYTE   W12
 BYTE   N10  As1  v082
 BYTE   N12  Dn1  v127
 BYTE   W12
 BYTE   N05  Dn1  v087
 BYTE   N10  As1  v062
 BYTE   W06
 BYTE   N11  Dn1  v127
 BYTE   W06
 BYTE   N10  As1  v082
 BYTE   W06
 BYTE   N12  Dn1  v127
 BYTE   W06
 BYTE   N05  Cn1
 BYTE   N10  As1  v062
 BYTE   W06
 BYTE   N05  Cn1  v127
 BYTE   N05  Dn1  v087
 BYTE   W06
 BYTE   Dn1  v127
 BYTE   N10  As1  v082
 BYTE   W06
 BYTE   N06  Dn1  v127
 BYTE   W06
 BYTE   N05  Dn1  v087
 BYTE   N10  As1  v062
 BYTE   W06
 BYTE   N20  Dn1  v127
 BYTE   W06
// 076   ----------------------------------------
 BYTE   N10  As1  v082
 BYTE   N11  Cn1  v127
 BYTE   W12
 BYTE   N10  As1  v062
 BYTE   N11  Cn1  v127
 BYTE   W12
 BYTE   N10  As1  v082
 BYTE   N12  Dn1  v127
 BYTE   W12
 BYTE   N05  Dn1  v087
 BYTE   N10  As1  v062
 BYTE   W06
 BYTE   N11  Dn1  v127
 BYTE   W06
 BYTE   N10  As1  v082
 BYTE   W06
 BYTE   N12  Dn1  v127
 BYTE   W06
 BYTE   N05  Cn1
 BYTE   N10  As1  v062
 BYTE   W06
 BYTE   N05  Cn1  v127
 BYTE   N05  Dn1  v087
 BYTE   W06
 BYTE   N10  As1  v082
 BYTE   N12  Dn1  v127
 BYTE   W12
 BYTE   N05  Dn1  v087
 BYTE   N10  As1  v062
 BYTE   W06
 BYTE   N11  Dn1  v087
 BYTE   W06
// 077   ----------------------------------------
 BYTE   PATT
  POIN2 Label_8_01EA99A6
// 078   ----------------------------------------
 BYTE   PATT
  POIN2 Label_8_01EA9691
// 079   ----------------------------------------
 BYTE   N10  As1  v082
 BYTE   N11  Cn1  v127
 BYTE   W12
 BYTE   N10  As1  v062
 BYTE   N11  Cn1  v127
 BYTE   W12
 BYTE   N10  As1  v082
 BYTE   N12  Dn1  v127
 BYTE   W12
 BYTE   N05  Dn1  v087
 BYTE   N10  As1  v062
 BYTE   W05
 BYTE   N05  Dn1  v127
 BYTE   W06
 BYTE   N06
 BYTE   N10  As1  v082
 BYTE   W06
 BYTE   N11  Cn1  v127
 BYTE   N11  Dn1  v087
 BYTE   W06
 BYTE   N10  As1  v062
 BYTE   W06
 BYTE   N05  Dn1  v087
 BYTE   N05  Cn1  v127
 BYTE   W06
 BYTE   N10  As1  v082
 BYTE   N11  Dn1  v127
 BYTE   W05
 BYTE   N11  Cn1  v127
 BYTE   W05
 BYTE   N10  As1  v062
 BYTE   N20  Dn1  v087
 BYTE   W06
 BYTE   N05  Cn1  v127
 BYTE   GoTo
  POIN2 Label_8_01EA94F8
 BYTE   FINE

//**************** Track 10 (Midi-Chn.9) ****************//

CastlevaniaPortraitofRuinIronBlueIntentionRSflame_010:
// 000   ----------------------------------------
Label_9_01EA79B0:
 BYTE   TEMPO   134*CastlevaniaPortraitofRuinIronBlueIntentionRSflame_tbs/2
 BYTE   KEYSH   CastlevaniaPortraitofRuinIronBlueIntentionRSflame_key+0
 BYTE   VOICE   48
 BYTE   VOL   37*CastlevaniaPortraitofRuinIronBlueIntentionRSflame_mvl/mxv
 BYTE   PAN   c_v+56
 BYTE   N96  Dn1  v110
 BYTE   W48
 BYTE   Dn1
 BYTE   W48
// 001   ----------------------------------------
 BYTE   Dn1
 BYTE   W48
 BYTE   N92
 BYTE   W44
 BYTE   W02
 BYTE   N03
 BYTE   W96
// 002   ----------------------------------------
 BYTE   W96
// 003   ----------------------------------------
 BYTE   W02
 BYTE   N96
 BYTE   W48
 BYTE   Dn1
 BYTE   W48
// 004   ----------------------------------------
 BYTE   Dn1
 BYTE   W48
 BYTE   N92
 BYTE   W44
 BYTE   W02
 BYTE   N03
 BYTE   W96
// 005   ----------------------------------------
 BYTE   W96
// 006   ----------------------------------------
 BYTE   W96
// 007   ----------------------------------------
 BYTE   W96
// 008   ----------------------------------------
 BYTE   W96
// 009   ----------------------------------------
 BYTE   W96
// 010   ----------------------------------------
 BYTE   W96
// 011   ----------------------------------------
 BYTE   W96
// 012   ----------------------------------------
 BYTE   W96
// 013   ----------------------------------------
 BYTE   W96
// 014   ----------------------------------------
 BYTE   W96
// 015   ----------------------------------------
 BYTE   W96
// 016   ----------------------------------------
 BYTE   W96
// 017   ----------------------------------------
 BYTE   W96
// 018   ----------------------------------------
 BYTE   W96
// 019   ----------------------------------------
 BYTE   W96
// 020   ----------------------------------------
 BYTE   W96
// 021   ----------------------------------------
 BYTE   W96
// 022   ----------------------------------------
 BYTE   W96
// 023   ----------------------------------------
 BYTE   W96
// 024   ----------------------------------------
 BYTE   W96
// 025   ----------------------------------------
 BYTE   W96
// 026   ----------------------------------------
 BYTE   W96
// 027   ----------------------------------------
 BYTE   W96
// 028   ----------------------------------------
 BYTE   W96
// 029   ----------------------------------------
 BYTE   W96
// 030   ----------------------------------------
 BYTE   W96
// 031   ----------------------------------------
 BYTE   W96
// 032   ----------------------------------------
 BYTE   W96
// 033   ----------------------------------------
 BYTE   W96
// 034   ----------------------------------------
 BYTE   W96
// 035   ----------------------------------------
 BYTE   W96
// 036   ----------------------------------------
 BYTE   W96
// 037   ----------------------------------------
 BYTE   W96
// 038   ----------------------------------------
 BYTE   W96
// 039   ----------------------------------------
 BYTE   W96
// 040   ----------------------------------------
 BYTE   W96
// 041   ----------------------------------------
 BYTE   W96
// 042   ----------------------------------------
 BYTE   W96
// 043   ----------------------------------------
 BYTE   W96
// 044   ----------------------------------------
 BYTE   W02
 BYTE   TEMPO   132*CastlevaniaPortraitofRuinIronBlueIntentionRSflame_tbs/2
 BYTE   N92  Ds1  v102
 BYTE   W44
 BYTE   W02
 BYTE   N03
 BYTE   W48
// 045   ----------------------------------------
 BYTE   W02
Label_9_01EA7A06:
 BYTE   N44  Fn1  v102
 BYTE   W22
 BYTE   N03
 BYTE   W24
 BYTE   W02
 BYTE   N23  Dn1
 BYTE   W24
 BYTE   As1
 BYTE   W24
 BYTE   PEND 
// 046   ----------------------------------------
Label_9_01EA7A13:
 BYTE   N44  Fs1  v102
 BYTE   W22
 BYTE   N03
 BYTE   W24
 BYTE   W02
 BYTE   N44  Gn1
 BYTE   W22
 BYTE   N03
 BYTE   W24
 BYTE   W02
 BYTE   PEND 
// 047   ----------------------------------------
Label_9_01EA7A21:
 BYTE   N23  Gs1  v102
 BYTE   W24
 BYTE   Fs1
 BYTE   W24
 BYTE   Fn1
 BYTE   W24
 BYTE   Cs1
 BYTE   W24
 BYTE   PEND 
// 048   ----------------------------------------
Label_9_01EA7A2C:
 BYTE   N23  Fs1  v102
 BYTE   W24
 BYTE   Fn1
 BYTE   W24
 BYTE   Ds1
 BYTE   W24
 BYTE   Bn0
 BYTE   W24
 BYTE   PEND 
// 049   ----------------------------------------
Label_9_01EA7A37:
 BYTE   N23  Fn1  v102
 BYTE   W24
 BYTE   Ds1
 BYTE   W24
 BYTE   Dn1
 BYTE   W24
 BYTE   As0
 BYTE   W24
 BYTE   PEND 
// 050   ----------------------------------------
Label_9_01EA7A42:
 BYTE   N44  An0  v102
 BYTE   W22
 BYTE   N03
 BYTE   W24
 BYTE   W02
 BYTE   N44  As0
 BYTE   W22
 BYTE   N03
 BYTE   W24
 BYTE   W02
 BYTE   PEND 
// 051   ----------------------------------------
 BYTE   N92  Ds1  v102
 BYTE   W44
 BYTE   W02
 BYTE   N03
 BYTE   W48
 BYTE   W02
// 052   ----------------------------------------
 BYTE   PATT
  POIN2 Label_9_01EA7A06
// 053   ----------------------------------------
 BYTE   PATT
  POIN2 Label_9_01EA7A13
// 054   ----------------------------------------
 BYTE   PATT
  POIN2 Label_9_01EA7A21
// 055   ----------------------------------------
 BYTE   PATT
  POIN2 Label_9_01EA7A2C
// 056   ----------------------------------------
 BYTE   PATT
  POIN2 Label_9_01EA7A37
// 057   ----------------------------------------
 BYTE   PATT
  POIN2 Label_9_01EA7A42
// 058   ----------------------------------------
 BYTE   N96  Ds1  v102
 BYTE   TEMPO   134*CastlevaniaPortraitofRuinIronBlueIntentionRSflame_tbs/2
 BYTE   W48
 BYTE   N92  Ds1  v102
 BYTE   W44
 BYTE   W02
 BYTE   N03
 BYTE   W96
// 059   ----------------------------------------
 BYTE   W02
 BYTE   N96
 BYTE   W48
 BYTE   N92
 BYTE   W44
 BYTE   W02
// 060   ----------------------------------------
 BYTE   N03
 BYTE   W96
// 061   ----------------------------------------
 BYTE   W02
Label_9_01EA7A8C:
 BYTE   N96  En1  v102
 BYTE   W48
 BYTE   N92
 BYTE   W44
 BYTE   W02
// 062   ----------------------------------------
 BYTE   N03
 BYTE   W96
// 063   ----------------------------------------
 BYTE   W02
 BYTE   PEND 
// 064   ----------------------------------------
 BYTE   PATT
  POIN2 Label_9_01EA7A8C
// 065   ----------------------------------------
 BYTE   N96  Fn1  v102
 BYTE   W05
 BYTE   W06
 BYTE   W36
 BYTE   N68  Fn1  v102
 BYTE   W32
 BYTE   W02
 BYTE   N03
 BYTE   W84
// 066   ----------------------------------------
 BYTE   W02
 BYTE   N23  Cn1
 BYTE   W24
 BYTE   N96  Fn1
 BYTE   W48
 BYTE   N68
 BYTE   W32
// 067   ----------------------------------------
 BYTE   W02
 BYTE   N03
 BYTE   W84
 BYTE   W02
 BYTE   N23  Cn1
 BYTE   W23
// 068   ----------------------------------------
 BYTE   W96
// 069   ----------------------------------------
 BYTE   W96
// 070   ----------------------------------------
 BYTE   W96
// 071   ----------------------------------------
 BYTE   W96
// 072   ----------------------------------------
 BYTE   W96
// 073   ----------------------------------------
 BYTE   W96
// 074   ----------------------------------------
 BYTE   W96
// 075   ----------------------------------------
 BYTE   W42
 BYTE   W36
 BYTE   W06
 BYTE   W06
 BYTE   GoTo
  POIN2 Label_9_01EA79B0
 BYTE   FINE

//**************** Track 11 (Midi-Chn.10) ****************//

CastlevaniaPortraitofRuinIronBlueIntentionRSflame_011:
// 000   ----------------------------------------
Label_10_01EA776C:
 BYTE   TEMPO   134*CastlevaniaPortraitofRuinIronBlueIntentionRSflame_tbs/2
 BYTE   KEYSH   CastlevaniaPortraitofRuinIronBlueIntentionRSflame_key+0
 BYTE   VOICE   48
 BYTE   VOL   37*CastlevaniaPortraitofRuinIronBlueIntentionRSflame_mvl/mxv
 BYTE   PAN   c_v-49
 BYTE   W96
// 001   ----------------------------------------
 BYTE   W96
// 002   ----------------------------------------
 BYTE   W96
// 003   ----------------------------------------
 BYTE   W96
// 004   ----------------------------------------
 BYTE   N05  Dn4  v102
 BYTE   W06
 BYTE   An3
 BYTE   W06
 BYTE   En4
 BYTE   W06
 BYTE   An3
 BYTE   W06
 BYTE   N23  Fn4
 BYTE   W30
 BYTE   N05  An3
 BYTE   W06
 BYTE   Dn4
 BYTE   W06
 BYTE   En4
 BYTE   W06
 BYTE   Fn4
 BYTE   W06
 BYTE   En4
 BYTE   W06
 BYTE   Dn4
 BYTE   W12
// 005   ----------------------------------------
 BYTE   En4
 BYTE   W06
 BYTE   Gn3
 BYTE   W06
 BYTE   Fn4
 BYTE   W06
 BYTE   Gn3
 BYTE   W06
 BYTE   N23  Gn4
 BYTE   W30
 BYTE   N05  Gn3
 BYTE   W06
 BYTE   En4
 BYTE   W06
 BYTE   Fn4
 BYTE   W06
 BYTE   Gn4
 BYTE   W06
 BYTE   Fn4
 BYTE   W06
 BYTE   En4
 BYTE   W12
// 006   ----------------------------------------
 BYTE   Fn4
 BYTE   W06
 BYTE   As3
 BYTE   W06
 BYTE   Gn4
 BYTE   W06
 BYTE   As3
 BYTE   W06
 BYTE   N23  An4
 BYTE   W30
 BYTE   N05  As3
 BYTE   W06
 BYTE   Fn4
 BYTE   W06
 BYTE   Gn4
 BYTE   W06
 BYTE   An4
 BYTE   W06
 BYTE   Gn4
 BYTE   W06
 BYTE   Fn4
 BYTE   W12
// 007   ----------------------------------------
 BYTE   Gn4
 BYTE   W06
 BYTE   An4
 BYTE   W06
 BYTE   N17  As4
 BYTE   W18
 BYTE   N05  Gn4
 BYTE   W06
 BYTE   En4
 BYTE   W06
 BYTE   Dn4
 BYTE   W06
 BYTE   Cn4
 BYTE   W06
 BYTE   Gn3
 BYTE   W06
 BYTE   Cn4
 BYTE   W06
 BYTE   Dn4
 BYTE   W06
 BYTE   N11  En4
 BYTE   W96
// 008   ----------------------------------------
 BYTE   W96
// 009   ----------------------------------------
 BYTE   W96
// 010   ----------------------------------------
 BYTE   W96
// 011   ----------------------------------------
 BYTE   W96
// 012   ----------------------------------------
 BYTE   W96
// 013   ----------------------------------------
 BYTE   W96
// 014   ----------------------------------------
 BYTE   W96
// 015   ----------------------------------------
 BYTE   W96
// 016   ----------------------------------------
 BYTE   W96
// 017   ----------------------------------------
 BYTE   W96
// 018   ----------------------------------------
 BYTE   W96
// 019   ----------------------------------------
 BYTE   W96
// 020   ----------------------------------------
 BYTE   W96
// 021   ----------------------------------------
 BYTE   W96
// 022   ----------------------------------------
 BYTE   W96
// 023   ----------------------------------------
 BYTE   W96
// 024   ----------------------------------------
 BYTE   W96
// 025   ----------------------------------------
 BYTE   W96
// 026   ----------------------------------------
 BYTE   W96
// 027   ----------------------------------------
 BYTE   W96
// 028   ----------------------------------------
 BYTE   W96
// 029   ----------------------------------------
 BYTE   W96
// 030   ----------------------------------------
 BYTE   W96
// 031   ----------------------------------------
 BYTE   W24
 BYTE   N36  Fn5  v096
 BYTE   W36
 BYTE   N06  En5
 BYTE   W06
 BYTE   Dn5
 BYTE   W06
 BYTE   N36  Fn5
 BYTE   W36
// 032   ----------------------------------------
 BYTE   N06  En5
 BYTE   W06
 BYTE   Dn5
 BYTE   W06
 BYTE   N36
 BYTE   W36
 BYTE   N06  Cs5
 BYTE   W06
 BYTE   Bn4
 BYTE   W06
 BYTE   N32  Cs5
 BYTE   W16
 BYTE   N03
 BYTE   W96
// 033   ----------------------------------------
 BYTE   W96
// 034   ----------------------------------------
 BYTE   W96
// 035   ----------------------------------------
 BYTE   W96
// 036   ----------------------------------------
 BYTE   W96
// 037   ----------------------------------------
 BYTE   W96
// 038   ----------------------------------------
 BYTE   W96
// 039   ----------------------------------------
 BYTE   W96
// 040   ----------------------------------------
 BYTE   W96
// 041   ----------------------------------------
 BYTE   W92
 BYTE   N05  En4  v106
 BYTE   W06
// 042   ----------------------------------------
 BYTE   Fn4
 BYTE   W06
 BYTE   Gn4
 BYTE   W06
 BYTE   An4
 BYTE   W06
 BYTE   Bn4
 BYTE   W06
 BYTE   Cs5
 BYTE   W06
 BYTE   N96  Dn5
 BYTE   W48
 BYTE   N80
 BYTE   W40
// 043   ----------------------------------------
 BYTE   N03
 BYTE   W96
// 044   ----------------------------------------
 BYTE   W08
 BYTE   TEMPO   132*CastlevaniaPortraitofRuinIronBlueIntentionRSflame_tbs/2
 BYTE   W96
// 045   ----------------------------------------
 BYTE   W96
// 046   ----------------------------------------
 BYTE   W96
// 047   ----------------------------------------
 BYTE   W96
// 048   ----------------------------------------
 BYTE   W96
// 049   ----------------------------------------
 BYTE   W96
// 050   ----------------------------------------
 BYTE   W96
// 051   ----------------------------------------
 BYTE   W96
// 052   ----------------------------------------
 BYTE   W96
// 053   ----------------------------------------
 BYTE   W96
// 054   ----------------------------------------
 BYTE   W96
// 055   ----------------------------------------
 BYTE   W96
// 056   ----------------------------------------
 BYTE   W96
// 057   ----------------------------------------
 BYTE   W96
// 058   ----------------------------------------
 BYTE   TEMPO   134*CastlevaniaPortraitofRuinIronBlueIntentionRSflame_tbs/2
 BYTE   W96
// 059   ----------------------------------------
 BYTE   W96
// 060   ----------------------------------------
 BYTE   W96
// 061   ----------------------------------------
 BYTE   W96
// 062   ----------------------------------------
 BYTE   W96
// 063   ----------------------------------------
 BYTE   W96
// 064   ----------------------------------------
 BYTE   W96
// 065   ----------------------------------------
 BYTE   W96
// 066   ----------------------------------------
 BYTE   W05
 BYTE   W06
 BYTE   W96
// 067   ----------------------------------------
 BYTE   W96
// 068   ----------------------------------------
 BYTE   W96
// 069   ----------------------------------------
 BYTE   W84
 BYTE   N05  Dn4  v110
 BYTE   W06
 BYTE   En4
 BYTE   W06
// 070   ----------------------------------------
 BYTE   Fn4
 BYTE   W42
 BYTE   An3  v099
 BYTE   W06
 BYTE   Dn4
 BYTE   W06
 BYTE   En4
 BYTE   W06
 BYTE   Fn4
 BYTE   W24
Label_10_01EA7862:
 BYTE   N05  En4  v110
 BYTE   W06
 BYTE   Fn4
 BYTE   W06
// 071   ----------------------------------------
 BYTE   Gn4
 BYTE   W42
 BYTE   An3  v099
 BYTE   W06
 BYTE   En4  v110
 BYTE   W06
 BYTE   Fn4
 BYTE   W06
 BYTE   Gn4
 BYTE   W24
 BYTE   PEND 
 BYTE   N05  Cs4  v110
 BYTE   W06
 BYTE   En4
 BYTE   W06
// 072   ----------------------------------------
 BYTE   As4
 BYTE   W42
 BYTE   Gn3  v099
 BYTE   W06
 BYTE   An3
 BYTE   W06
 BYTE   Cs4
 BYTE   W06
 BYTE   Gn4
 BYTE   W24
 BYTE   Fn4  v110
 BYTE   W06
 BYTE   An4
 BYTE   W06
// 073   ----------------------------------------
 BYTE   Dn5
 BYTE   W42
 BYTE   En4
 BYTE   W06
 BYTE   Fn4
 BYTE   W06
 BYTE   An4
 BYTE   W06
 BYTE   Dn5
 BYTE   W24
 BYTE   Dn4
 BYTE   W06
 BYTE   En4
 BYTE   W06
// 074   ----------------------------------------
 BYTE   Fn4
 BYTE   W42
 BYTE   An3  v099
 BYTE   W06
 BYTE   Dn4
 BYTE   W06
 BYTE   En4
 BYTE   W06
 BYTE   Fn4
 BYTE   W24
// 075   ----------------------------------------
 BYTE   PATT
  POIN2 Label_10_01EA7862
// 076   ----------------------------------------
 BYTE   N05  Gn3  v110
 BYTE   W06
 BYTE   An3
 BYTE   W06
 BYTE   En4
 BYTE   W42
 BYTE   Gn3  v099
 BYTE   W06
 BYTE   An3
 BYTE   W06
 BYTE   Cs4
 BYTE   W06
 BYTE   En4
 BYTE   W24
// 077   ----------------------------------------
 BYTE   Dn4  v110
 BYTE   W06
 BYTE   En4
 BYTE   W06
 BYTE   Fn4
 BYTE   W28
 BYTE   W01
 BYTE   W12
 BYTE   N05  En4  v110
 BYTE   W06
 BYTE   Fn4
 BYTE   W06
 BYTE   An4
 BYTE   W06
 BYTE   Dn5
 BYTE   W05
 BYTE   W06
 BYTE   W06
 BYTE   GoTo
  POIN2 Label_10_01EA776C
 BYTE   FINE

//**************** Track 12 (Midi-Chn.11) ****************//

CastlevaniaPortraitofRuinIronBlueIntentionRSflame_012:
// 000   ----------------------------------------
Label_11_01EA8410:
 BYTE   TEMPO   134*CastlevaniaPortraitofRuinIronBlueIntentionRSflame_tbs/2
 BYTE   KEYSH   CastlevaniaPortraitofRuinIronBlueIntentionRSflame_key+0
 BYTE   VOICE   48
 BYTE   VOL   37*CastlevaniaPortraitofRuinIronBlueIntentionRSflame_mvl/mxv
 BYTE   PAN   c_v-39
 BYTE   N05  Dn3  v102
 BYTE   W06
 BYTE   En3
 BYTE   W06
 BYTE   N11  Fn3
 BYTE   W24
 BYTE   N05  Dn3
 BYTE   W06
 BYTE   En3
 BYTE   W06
 BYTE   Fn3
 BYTE   W12
 BYTE   Dn3
 BYTE   W06
 BYTE   En3
 BYTE   W06
 BYTE   Fn3
 BYTE   W06
 BYTE   En3
 BYTE   W06
 BYTE   Dn3
 BYTE   W12
// 001   ----------------------------------------
 BYTE   En3
 BYTE   W06
 BYTE   Fn3
 BYTE   W06
 BYTE   N11  Gn3
 BYTE   W24
 BYTE   N05  En3
 BYTE   W06
 BYTE   Fn3
 BYTE   W06
 BYTE   Gn3
 BYTE   W12
 BYTE   En3
 BYTE   W06
 BYTE   Fn3
 BYTE   W06
 BYTE   Gn3
 BYTE   W06
 BYTE   Fn3
 BYTE   W06
 BYTE   En3
 BYTE   W12
// 002   ----------------------------------------
 BYTE   Fn3
 BYTE   W06
 BYTE   Gn3
 BYTE   W06
 BYTE   N11  An3
 BYTE   W24
 BYTE   N05  Fn3
 BYTE   W06
 BYTE   Gn3
 BYTE   W06
 BYTE   An3
 BYTE   W12
 BYTE   Fn3
 BYTE   W06
 BYTE   Gn3
 BYTE   W06
 BYTE   An3
 BYTE   W06
 BYTE   Gn3
 BYTE   W06
 BYTE   Fn3
 BYTE   W12
// 003   ----------------------------------------
 BYTE   Gn3
 BYTE   W06
 BYTE   An3
 BYTE   W06
 BYTE   N11  As3
 BYTE   W18
 BYTE   N05  An3
 BYTE   W06
 BYTE   Gn3
 BYTE   W06
 BYTE   Fn3
 BYTE   W06
 BYTE   En3
 BYTE   W06
 BYTE   Dn3
 BYTE   W06
 BYTE   Cn3
 BYTE   W06
 BYTE   Dn3
 BYTE   W06
 BYTE   En3
 BYTE   W06
 BYTE   Fn3
 BYTE   W06
 BYTE   Gn3
 BYTE   W06
 BYTE   En3
 BYTE   W06
// 004   ----------------------------------------
 BYTE   Dn3
 BYTE   W06
 BYTE   An2
 BYTE   W06
 BYTE   En3
 BYTE   W06
 BYTE   An2
 BYTE   W06
 BYTE   N23  Fn3
 BYTE   W30
 BYTE   N05  An2
 BYTE   W06
 BYTE   Dn3
 BYTE   W06
 BYTE   En3
 BYTE   W06
 BYTE   Fn3
 BYTE   W06
 BYTE   En3
 BYTE   W06
 BYTE   Dn3
 BYTE   W12
// 005   ----------------------------------------
 BYTE   En3
 BYTE   W06
 BYTE   Gn2
 BYTE   W06
 BYTE   Fn3
 BYTE   W06
 BYTE   Gn2
 BYTE   W06
 BYTE   N23  Gn3
 BYTE   W30
 BYTE   N05  Gn2
 BYTE   W06
 BYTE   En3
 BYTE   W06
 BYTE   Fn3
 BYTE   W06
 BYTE   Gn3
 BYTE   W06
 BYTE   Fn3
 BYTE   W06
 BYTE   En3
 BYTE   W12
// 006   ----------------------------------------
 BYTE   Fn3
 BYTE   W06
 BYTE   As2
 BYTE   W06
 BYTE   Gn3
 BYTE   W06
 BYTE   As2
 BYTE   W06
 BYTE   N23  An3
 BYTE   W30
 BYTE   N05  As2
 BYTE   W06
 BYTE   Fn3
 BYTE   W06
 BYTE   Gn3
 BYTE   W06
 BYTE   An3
 BYTE   W06
 BYTE   Gn3
 BYTE   W06
 BYTE   Fn3
 BYTE   W12
// 007   ----------------------------------------
 BYTE   Gn3
 BYTE   W06
 BYTE   An3
 BYTE   W06
 BYTE   N17  As3
 BYTE   W18
 BYTE   N05  Gn3
 BYTE   W06
 BYTE   En3
 BYTE   W06
 BYTE   Dn3
 BYTE   W06
 BYTE   Cn3
 BYTE   W06
 BYTE   Gn2
 BYTE   W06
 BYTE   Cn3
 BYTE   W06
 BYTE   Dn3
 BYTE   W06
 BYTE   N11  En3
 BYTE   W96
// 008   ----------------------------------------
 BYTE   W96
// 009   ----------------------------------------
 BYTE   W96
// 010   ----------------------------------------
 BYTE   W96
// 011   ----------------------------------------
 BYTE   W96
// 012   ----------------------------------------
 BYTE   W96
// 013   ----------------------------------------
 BYTE   W96
// 014   ----------------------------------------
 BYTE   W96
// 015   ----------------------------------------
 BYTE   W96
// 016   ----------------------------------------
 BYTE   W96
// 017   ----------------------------------------
 BYTE   W96
// 018   ----------------------------------------
 BYTE   W96
// 019   ----------------------------------------
 BYTE   W96
// 020   ----------------------------------------
 BYTE   W96
// 021   ----------------------------------------
 BYTE   W96
// 022   ----------------------------------------
 BYTE   W96
// 023   ----------------------------------------
 BYTE   W96
// 024   ----------------------------------------
 BYTE   W96
// 025   ----------------------------------------
 BYTE   W96
// 026   ----------------------------------------
 BYTE   W36
 BYTE   N05  As2
 BYTE   W12
 BYTE   As2
 BYTE   W06
 BYTE   As2
 BYTE   W12
 BYTE   As2
 BYTE   W06
 BYTE   En2
 BYTE   W12
 BYTE   En2
 BYTE   W12
// 027   ----------------------------------------
 BYTE   An2
 BYTE   W12
 BYTE   An2
 BYTE   W12
 BYTE   An2  v060
 BYTE   W12
 BYTE   An2  v050
 BYTE   W96
// 028   ----------------------------------------
 BYTE   En4  v096
 BYTE   W12
 BYTE   En4
 BYTE   W06
 BYTE   En4
 BYTE   W12
 BYTE   En4
 BYTE   W06
 BYTE   Fn4
 BYTE   W12
 BYTE   Fn4
 BYTE   W12
 BYTE   Fs4
 BYTE   W12
 BYTE   Fs4
 BYTE   W12
 BYTE   Gn4
 BYTE   W12
// 029   ----------------------------------------
 BYTE   Gn4
 BYTE   W12
 BYTE   An4
 BYTE   W12
 BYTE   An4
 BYTE   W12
 BYTE   As4
 BYTE   W12
 BYTE   As4
 BYTE   W12
 BYTE   Bn4
 BYTE   W12
 BYTE   Bn4
 BYTE   W12
 BYTE   Cn5
 BYTE   W12
// 030   ----------------------------------------
 BYTE   Cn5
 BYTE   W12
 BYTE   Cs5
 BYTE   W12
 BYTE   Cs5
 BYTE   W12
 BYTE   Dn5
 BYTE   W12
 BYTE   Dn5
 BYTE   W12
 BYTE   En5
 BYTE   W12
 BYTE   En5
 BYTE   W12
 BYTE   N32  Fn4
 BYTE   W16
// 031   ----------------------------------------
 BYTE   N03
 BYTE   W20
 BYTE   N05  En4
 BYTE   W06
 BYTE   Dn4
 BYTE   W06
 BYTE   N32  Fn4
 BYTE   W16
 BYTE   N03
 BYTE   W20
 BYTE   N05  En4
 BYTE   W06
 BYTE   Dn4
 BYTE   W06
 BYTE   N28
 BYTE   W14
 BYTE   N01
 BYTE   W22
// 032   ----------------------------------------
 BYTE   N05  Cs4
 BYTE   W06
 BYTE   Bn3
 BYTE   W06
 BYTE   N32  Cs4
 BYTE   W16
 BYTE   N03
 BYTE   W96
// 033   ----------------------------------------
 BYTE   W96
// 034   ----------------------------------------
 BYTE   W96
// 035   ----------------------------------------
 BYTE   W96
// 036   ----------------------------------------
 BYTE   W96
// 037   ----------------------------------------
 BYTE   W96
// 038   ----------------------------------------
 BYTE   W96
// 039   ----------------------------------------
 BYTE   W96
// 040   ----------------------------------------
 BYTE   W32
 BYTE   N96  Dn4  v106
 BYTE   W48
 BYTE   N56
 BYTE   W28
// 041   ----------------------------------------
 BYTE   N03
 BYTE   W96
// 042   ----------------------------------------
 BYTE   W96
// 043   ----------------------------------------
 BYTE   W96
// 044   ----------------------------------------
 BYTE   W20
 BYTE   TEMPO   132*CastlevaniaPortraitofRuinIronBlueIntentionRSflame_tbs/2
 BYTE   N05  As3  v106
 BYTE   W12
 BYTE   Ds4
 BYTE   W06
 BYTE   Fn4
 BYTE   W06
 BYTE   N23  Fs4
 BYTE   W30
 BYTE   N05  As3
 BYTE   W06
 BYTE   Ds4
 BYTE   W06
 BYTE   Fn4
 BYTE   W06
 BYTE   Gs4
 BYTE   W12
// 045   ----------------------------------------
 BYTE   Fs4
 BYTE   W12
 BYTE   N11
 BYTE   W12
 BYTE   N05  Fn4
 BYTE   W12
 BYTE   N23
 BYTE   W30
 BYTE   N05  As3
 BYTE   W06
 BYTE   Dn4
 BYTE   W06
 BYTE   Fn4
 BYTE   W06
 BYTE   As4
 BYTE   W12
// 046   ----------------------------------------
 BYTE   As3
 BYTE   W12
Label_11_01EA859D:
 BYTE   N05  Ds4  v106
 BYTE   W12
 BYTE   Fs4
 BYTE   W06
 BYTE   Gs4
 BYTE   W06
 BYTE   N23  As4
 BYTE   W30
 BYTE   N05  Ds4
 BYTE   W06
 BYTE   Gn4
 BYTE   W06
 BYTE   As4
 BYTE   W06
 BYTE   Ds5
 BYTE   W12
// 047   ----------------------------------------
 BYTE   As4
 BYTE   W12
 BYTE   PEND 
Label_11_01EA85B4:
 BYTE   N11  As4  v106
 BYTE   W12
 BYTE   N05  Bn4
 BYTE   W12
 BYTE   N23
 BYTE   W30
 BYTE   N05  Cs4
 BYTE   W06
 BYTE   Fn4
 BYTE   W06
 BYTE   Gs4
 BYTE   W06
 BYTE   Cs5
 BYTE   W12
// 048   ----------------------------------------
 BYTE   Gs4
 BYTE   W12
 BYTE   PEND 
Label_11_01EA85C9:
 BYTE   N11  Gs4  v106
 BYTE   W12
 BYTE   N05  As4
 BYTE   W12
 BYTE   N23
 BYTE   W30
 BYTE   N05  Bn3
 BYTE   W06
 BYTE   Ds4
 BYTE   W06
 BYTE   Fs4
 BYTE   W06
 BYTE   Bn4
 BYTE   W12
// 049   ----------------------------------------
 BYTE   Fs4
 BYTE   W12
 BYTE   PEND 
 BYTE   N11  Fs4  v106
 BYTE   W12
 BYTE   N05  Gs4
 BYTE   W12
 BYTE   N32
 BYTE   W16
 BYTE   N03
 BYTE   W20
 BYTE   N11  Fs4
 BYTE   W12
 BYTE   N23  Fn4
 BYTE   W24
// 050   ----------------------------------------
 BYTE   N32  Fs4
 BYTE   W16
 BYTE   N03
 BYTE   W20
 BYTE   N05  Fn4
 BYTE   W06
 BYTE   Ds4
 BYTE   W06
 BYTE   N23
 BYTE   W24
 BYTE   Dn4
 BYTE   W24
// 051   ----------------------------------------
 BYTE   N05  As3
 BYTE   W12
 BYTE   Ds4
 BYTE   W06
 BYTE   Fn4
 BYTE   W06
 BYTE   N23  Fs4
 BYTE   W30
 BYTE   N05  As3
 BYTE   W06
 BYTE   Ds4
 BYTE   W06
 BYTE   Fn4
 BYTE   W06
 BYTE   N11  Gs4
 BYTE   W12
 BYTE   N05  Fs4
 BYTE   W12
// 052   ----------------------------------------
 BYTE   N11
 BYTE   W12
 BYTE   N05  Fn4
 BYTE   W12
 BYTE   N23
 BYTE   W30
 BYTE   N05  As3
 BYTE   W06
 BYTE   Dn4
 BYTE   W06
 BYTE   Fn4
 BYTE   W06
 BYTE   As4
 BYTE   W06
 BYTE   Gs4
 BYTE   W06
 BYTE   Fs4
 BYTE   W06
 BYTE   Fn4
 BYTE   W06
// 053   ----------------------------------------
 BYTE   PATT
  POIN2 Label_11_01EA859D
// 054   ----------------------------------------
 BYTE   PATT
  POIN2 Label_11_01EA85B4
// 055   ----------------------------------------
 BYTE   PATT
  POIN2 Label_11_01EA85C9
// 056   ----------------------------------------
 BYTE   N11  Fs4  v106
 BYTE   W12
 BYTE   N05  Gs4
 BYTE   W12
 BYTE   N28
 BYTE   W14
 BYTE   N01
 BYTE   W16
 BYTE   N05  Fs4
 BYTE   W06
 BYTE   Fn4
 BYTE   W06
 BYTE   Ds4
 BYTE   W06
 BYTE   Dn4
 BYTE   W06
 BYTE   Ds4
 BYTE   W06
 BYTE   Fn4
 BYTE   W06
 BYTE   As3
 BYTE   W06
// 057   ----------------------------------------
 BYTE   Cn4
 BYTE   W12
 BYTE   An3
 BYTE   W06
 BYTE   Cn4
 BYTE   W06
 BYTE   Ds4
 BYTE   W12
 BYTE   Cn4
 BYTE   W06
 BYTE   Ds4
 BYTE   W06
 BYTE   N23  Fs4
 BYTE   W24
 BYTE   Fn4
 BYTE   W24
// 058   ----------------------------------------
 BYTE   TEMPO   134*CastlevaniaPortraitofRuinIronBlueIntentionRSflame_tbs/2
 BYTE   W96
// 059   ----------------------------------------
 BYTE   W96
// 060   ----------------------------------------
 BYTE   W96
// 061   ----------------------------------------
 BYTE   W96
// 062   ----------------------------------------
 BYTE   W96
// 063   ----------------------------------------
 BYTE   W96
// 064   ----------------------------------------
 BYTE   W96
// 065   ----------------------------------------
 BYTE   W96
// 066   ----------------------------------------
 BYTE   W05
 BYTE   W06
 BYTE   W96
// 067   ----------------------------------------
 BYTE   W96
// 068   ----------------------------------------
 BYTE   W96
// 069   ----------------------------------------
 BYTE   W84
 BYTE   N05  Dn3  v110
 BYTE   W06
 BYTE   En3
 BYTE   W06
// 070   ----------------------------------------
 BYTE   Fn3
 BYTE   W42
 BYTE   An2  v099
 BYTE   W06
 BYTE   Dn3
 BYTE   W06
 BYTE   En3
 BYTE   W06
 BYTE   Fn3
 BYTE   W24
Label_11_01EA8685:
 BYTE   N05  En3  v110
 BYTE   W06
 BYTE   Fn3
 BYTE   W06
// 071   ----------------------------------------
 BYTE   Gn3
 BYTE   W42
 BYTE   An2  v099
 BYTE   W06
 BYTE   En3  v110
 BYTE   W06
 BYTE   Fn3
 BYTE   W06
 BYTE   Gn3
 BYTE   W24
 BYTE   PEND 
 BYTE   N05  Cs3  v110
 BYTE   W06
 BYTE   En3
 BYTE   W06
// 072   ----------------------------------------
 BYTE   As3
 BYTE   W42
 BYTE   Gn2  v099
 BYTE   W06
 BYTE   An2
 BYTE   W06
 BYTE   Cs3
 BYTE   W06
 BYTE   Gn3
 BYTE   W24
 BYTE   Fn3  v110
 BYTE   W06
 BYTE   An3
 BYTE   W06
// 073   ----------------------------------------
 BYTE   Dn4
 BYTE   W42
 BYTE   En3
 BYTE   W06
 BYTE   Fn3
 BYTE   W06
 BYTE   An3
 BYTE   W06
 BYTE   Dn4
 BYTE   W24
 BYTE   Dn3
 BYTE   W06
 BYTE   En3
 BYTE   W06
// 074   ----------------------------------------
 BYTE   Fn3
 BYTE   W42
 BYTE   An2  v099
 BYTE   W06
 BYTE   Dn3
 BYTE   W06
 BYTE   En3
 BYTE   W06
 BYTE   Fn3
 BYTE   W24
// 075   ----------------------------------------
 BYTE   PATT
  POIN2 Label_11_01EA8685
// 076   ----------------------------------------
 BYTE   N05  Gn2  v110
 BYTE   W06
 BYTE   An2
 BYTE   W06
 BYTE   En3
 BYTE   W42
 BYTE   Gn2  v099
 BYTE   W06
 BYTE   An2
 BYTE   W06
 BYTE   Cs3
 BYTE   W06
 BYTE   En3
 BYTE   W24
// 077   ----------------------------------------
 BYTE   Dn3  v110
 BYTE   W06
 BYTE   En3
 BYTE   W06
 BYTE   Fn3
 BYTE   W28
 BYTE   W01
 BYTE   W12
 BYTE   N05  En3  v110
 BYTE   W06
 BYTE   Fn3
 BYTE   W06
 BYTE   An3
 BYTE   W06
 BYTE   Dn4
 BYTE   W05
 BYTE   W06
 BYTE   W06
 BYTE   GoTo
  POIN2 Label_11_01EA8410
 BYTE   FINE

//**************** Track 13 (Midi-Chn.12) ****************//

CastlevaniaPortraitofRuinIronBlueIntentionRSflame_013:
// 000   ----------------------------------------
Label_12_01EA9EAC:
 BYTE   TEMPO   134*CastlevaniaPortraitofRuinIronBlueIntentionRSflame_tbs/2
 BYTE   KEYSH   CastlevaniaPortraitofRuinIronBlueIntentionRSflame_key+0
 BYTE   VOICE   80
 BYTE   VOL   21*CastlevaniaPortraitofRuinIronBlueIntentionRSflame_mvl/mxv
 BYTE   PAN   c_v-19
 BYTE   N05  Dn3  v110
 BYTE   W06
 BYTE   En3
 BYTE   W06
 BYTE   N11  Fn3
 BYTE   W24
 BYTE   N05  Dn3
 BYTE   W06
 BYTE   En3
 BYTE   W06
 BYTE   Fn3
 BYTE   W12
 BYTE   Dn3
 BYTE   W06
 BYTE   En3
 BYTE   W06
 BYTE   Fn3
 BYTE   W06
 BYTE   En3
 BYTE   W06
 BYTE   Dn3
 BYTE   W12
// 001   ----------------------------------------
 BYTE   En3
 BYTE   W06
 BYTE   Fn3
 BYTE   W06
 BYTE   N11  Gn3
 BYTE   W24
 BYTE   N05  En3
 BYTE   W06
 BYTE   Fn3
 BYTE   W06
 BYTE   Gn3
 BYTE   W12
 BYTE   En3
 BYTE   W06
 BYTE   Fn3
 BYTE   W06
 BYTE   Gn3
 BYTE   W06
 BYTE   Fn3
 BYTE   W06
 BYTE   En3
 BYTE   W12
// 002   ----------------------------------------
 BYTE   Fn3
 BYTE   W06
 BYTE   Gn3
 BYTE   W06
 BYTE   N11  An3
 BYTE   W24
 BYTE   N05  Fn3
 BYTE   W06
 BYTE   Gn3
 BYTE   W06
 BYTE   An3
 BYTE   W12
 BYTE   Fn3
 BYTE   W06
 BYTE   Gn3
 BYTE   W06
 BYTE   An3
 BYTE   W06
 BYTE   Gn3
 BYTE   W06
 BYTE   Fn3
 BYTE   W12
// 003   ----------------------------------------
 BYTE   Gn3
 BYTE   W06
 BYTE   An3
 BYTE   W06
 BYTE   N11  As3
 BYTE   W18
 BYTE   N05  An3
 BYTE   W06
 BYTE   Gn3
 BYTE   W06
 BYTE   Fn3
 BYTE   W06
 BYTE   En3
 BYTE   W06
 BYTE   Dn3
 BYTE   W06
 BYTE   Cn3
 BYTE   W06
 BYTE   Dn3
 BYTE   W06
 BYTE   En3
 BYTE   W06
 BYTE   Fn3
 BYTE   W06
 BYTE   Gn3
 BYTE   W06
 BYTE   En3
 BYTE   W96
// 004   ----------------------------------------
 BYTE   W96
// 005   ----------------------------------------
 BYTE   W96
// 006   ----------------------------------------
 BYTE   W90
Label_12_01EA9F21:
 BYTE   N11  An2  v106
 BYTE   W12
// 007   ----------------------------------------
 BYTE   N15  Dn3
 BYTE   W24
 BYTE   En3
 BYTE   W24
 BYTE   N23  Fn3
 BYTE   W36
 BYTE   PEND 
Label_12_01EA9F2E:
 BYTE   N11  An3  v106
 BYTE   W12
// 008   ----------------------------------------
 BYTE   N05  Gn3
 BYTE   W12
 BYTE   As3
 BYTE   W12
 BYTE   N23  Fn4
 BYTE   W36
 BYTE   N11
 BYTE   W12
 BYTE   En4
 BYTE   W12
 BYTE   PEND 
Label_12_01EA9F3F:
 BYTE   N11  Dn4  v106
 BYTE   W12
// 009   ----------------------------------------
 BYTE   N05  En4
 BYTE   W12
 BYTE   Gn4
 BYTE   W12
 BYTE   N23  Cs4
 BYTE   W36
 BYTE   N11  As3
 BYTE   W12
 BYTE   An3
 BYTE   W12
 BYTE   PEND 
Label_12_01EA9F51:
 BYTE   N11  En3  v106
 BYTE   W12
// 010   ----------------------------------------
 BYTE   Gn3
 BYTE   W24
 BYTE   N44  Fn3
 BYTE   W22
 BYTE   N03
 BYTE   W36
 BYTE   W02
 BYTE   PEND 
 BYTE   N11  An3  v106
 BYTE   W12
// 011   ----------------------------------------
 BYTE   N05  Dn4
 BYTE   W12
 BYTE   En4
 BYTE   W12
 BYTE   N32  Fn4
 BYTE   W16
 BYTE   N03
 BYTE   W20
 BYTE   N11  En4
 BYTE   W12
 BYTE   Fn4
 BYTE   W12
Label_12_01EA9F71:
 BYTE   N11  Gn4  v106
 BYTE   W12
// 012   ----------------------------------------
 BYTE   N05  Cn4
 BYTE   W12
 BYTE   Dn4
 BYTE   W12
 BYTE   N28  En4
 BYTE   W14
 BYTE   N01
 BYTE   W22
 BYTE   N11  Dn4
 BYTE   W12
 BYTE   En4
 BYTE   W12
 BYTE   PEND 
 BYTE   N11  Fn4  v106
 BYTE   W12
// 013   ----------------------------------------
 BYTE   N05  Gn3
 BYTE   W06
 BYTE   An3
 BYTE   W06
 BYTE   N11  As3
 BYTE   W24
 BYTE   N05
 BYTE   W06
 BYTE   Cn4
 BYTE   W06
 BYTE   N23  Dn4
 BYTE   W30
 BYTE   N05  Cs4
 BYTE   W06
 BYTE   Dn4
 BYTE   W06
 BYTE   En4
 BYTE   W06
// 014   ----------------------------------------
 BYTE   N28  Fn4
 BYTE   W14
 BYTE   N01
 BYTE   W22
 BYTE   N05  En4
 BYTE   W06
 BYTE   Dn4
 BYTE   W06
 BYTE   N32  En4
 BYTE   W16
 BYTE   N03
 BYTE   W20
// 015   ----------------------------------------
 BYTE   PATT
  POIN2 Label_12_01EA9F21
// 016   ----------------------------------------
 BYTE   PATT
  POIN2 Label_12_01EA9F2E
// 017   ----------------------------------------
 BYTE   PATT
  POIN2 Label_12_01EA9F3F
// 018   ----------------------------------------
 BYTE   PATT
  POIN2 Label_12_01EA9F51
// 019   ----------------------------------------
Label_12_01EA9FC2:
 BYTE   N11  An3  v106
 BYTE   W12
 BYTE   N05  Dn4
 BYTE   W12
 BYTE   En4
 BYTE   W12
 BYTE   N23  Fn4
 BYTE   W36
 BYTE   N11  En4
 BYTE   W12
 BYTE   Fn4
 BYTE   W12
 BYTE   PEND 
// 020   ----------------------------------------
 BYTE   PATT
  POIN2 Label_12_01EA9F71
// 021   ----------------------------------------
 BYTE   N11  Fn4  v106
 BYTE   W12
 BYTE   N05  Gn3
 BYTE   W06
 BYTE   An3
 BYTE   W06
 BYTE   N11  As3
 BYTE   W24
 BYTE   N05
 BYTE   W06
 BYTE   Cn4
 BYTE   W06
 BYTE   Dn4
 BYTE   W12
 BYTE   Gn3
 BYTE   W06
 BYTE   Fs3
 BYTE   W06
 BYTE   Gn3
 BYTE   W06
 BYTE   Fs3
 BYTE   W06
// 022   ----------------------------------------
 BYTE   Gn3
 BYTE   W12
 BYTE   Bn3
 BYTE   W06
 BYTE   As3
 BYTE   W06
 BYTE   N11  Bn3
 BYTE   W24
 BYTE   N05
 BYTE   W06
 BYTE   Cs4
 BYTE   W06
 BYTE   Dn4
 BYTE   W12
 BYTE   Bn3
 BYTE   W06
 BYTE   Fn3
 BYTE   W06
 BYTE   Bn3
 BYTE   W06
 BYTE   Dn4
 BYTE   W06
// 023   ----------------------------------------
 BYTE   Fn4
 BYTE   W06
 BYTE   Gs4
 BYTE   W06
 BYTE   N96  An4
 BYTE   W48
 BYTE   N92
 BYTE   W44
// 024   ----------------------------------------
 BYTE   W02
 BYTE   N03
 BYTE   W96
// 025   ----------------------------------------
 BYTE   W96
// 026   ----------------------------------------
 BYTE   W14
 BYTE   N05  En4  v096
 BYTE   W12
 BYTE   En4
 BYTE   W06
 BYTE   En4
 BYTE   W12
 BYTE   En4
 BYTE   W06
 BYTE   Dn4
 BYTE   W12
 BYTE   Dn4
 BYTE   W12
 BYTE   Cs4
 BYTE   W12
 BYTE   Cs4
 BYTE   W12
// 027   ----------------------------------------
 BYTE   Cs4  v060
 BYTE   W12
 BYTE   Cs4  v050
 BYTE   W96
// 028   ----------------------------------------
 BYTE   As3  v096
 BYTE   W12
 BYTE   As3
 BYTE   W06
 BYTE   As3
 BYTE   W12
 BYTE   As3
 BYTE   W06
 BYTE   An3
 BYTE   W12
 BYTE   An3
 BYTE   W12
 BYTE   An3
 BYTE   W12
 BYTE   An3
 BYTE   W12
 BYTE   As3
 BYTE   W12
// 029   ----------------------------------------
 BYTE   As3
 BYTE   W12
 BYTE   Dn4
 BYTE   W12
 BYTE   Dn4
 BYTE   W12
 BYTE   Dn4
 BYTE   W12
 BYTE   Dn4
 BYTE   W12
 BYTE   Dn4
 BYTE   W12
 BYTE   Dn4
 BYTE   W12
 BYTE   En4
 BYTE   W12
// 030   ----------------------------------------
 BYTE   En4
 BYTE   W12
 BYTE   En4
 BYTE   W12
 BYTE   En4
 BYTE   W12
 BYTE   Fn4
 BYTE   W12
 BYTE   Fn4
 BYTE   W12
 BYTE   An4
 BYTE   W12
 BYTE   An4
 BYTE   W96
// 031   ----------------------------------------
 BYTE   W96
// 032   ----------------------------------------
 BYTE   PATT
  POIN2 Label_12_01EA9F21
// 033   ----------------------------------------
 BYTE   PATT
  POIN2 Label_12_01EA9F2E
// 034   ----------------------------------------
 BYTE   PATT
  POIN2 Label_12_01EA9F3F
// 035   ----------------------------------------
 BYTE   PATT
  POIN2 Label_12_01EA9F51
// 036   ----------------------------------------
 BYTE   PATT
  POIN2 Label_12_01EA9FC2
// 037   ----------------------------------------
 BYTE   PATT
  POIN2 Label_12_01EA9F71
// 038   ----------------------------------------
 BYTE   N11  Fn4  v106
 BYTE   W12
 BYTE   N05  Gn3
 BYTE   W06
 BYTE   An3
 BYTE   W06
 BYTE   As3
 BYTE   W24
 BYTE   As3
 BYTE   W06
 BYTE   Cn4
 BYTE   W06
 BYTE   Dn4
 BYTE   W12
 BYTE   Gn3
 BYTE   W06
 BYTE   Fs3
 BYTE   W06
 BYTE   Gn3
 BYTE   W06
 BYTE   An3
 BYTE   W06
// 039   ----------------------------------------
 BYTE   As3
 BYTE   W06
 BYTE   Dn4
 BYTE   W06
 BYTE   N44  Fn4
 BYTE   W22
 BYTE   N03
 BYTE   W24
 BYTE   W02
 BYTE   N44  En4
 BYTE   W22
 BYTE   N03
 BYTE   W96
// 040   ----------------------------------------
 BYTE   W96
// 041   ----------------------------------------
 BYTE   W96
// 042   ----------------------------------------
 BYTE   W96
// 043   ----------------------------------------
 BYTE   W24
 BYTE   W02
 BYTE   TEMPO   132*CastlevaniaPortraitofRuinIronBlueIntentionRSflame_tbs/2
 BYTE   PAN   c_v+21
 BYTE   W24
 BYTE   N05  As2  v110
 BYTE   W12
 BYTE   Ds3
 BYTE   W06
 BYTE   Fn3
 BYTE   W06
 BYTE   N23  Fs3
 BYTE   W54
// 044   ----------------------------------------
 BYTE   N05  Bn2
 BYTE   W06
 BYTE   Ds3
 BYTE   W06
 BYTE   Fn3
 BYTE   W06
 BYTE   Gs3
 BYTE   W12
 BYTE   Fs3
 BYTE   W12
 BYTE   N11
 BYTE   W12
 BYTE   N05  Fn3
 BYTE   W12
 BYTE   N23
 BYTE   W48
// 045   ----------------------------------------
 BYTE   N05  Ds3
 BYTE   W12
 BYTE   Fs3
 BYTE   W06
 BYTE   Gs3
 BYTE   W06
 BYTE   N23  As3
 BYTE   W54
 BYTE   N05  Ds3
 BYTE   W06
 BYTE   Gs3
 BYTE   W06
 BYTE   Gn3
 BYTE   W06
// 046   ----------------------------------------
 BYTE   Gs3
 BYTE   W12
 BYTE   Bn3
 BYTE   W12
 BYTE   N40  Cs3
 BYTE   W20
 BYTE   N01
 BYTE   W32
 BYTE   W02
 BYTE   N05
 BYTE   W06
 BYTE   Fs3
 BYTE   W06
 BYTE   Fn3
 BYTE   W06
// 047   ----------------------------------------
 BYTE   Fs3
 BYTE   W12
 BYTE   As3
 BYTE   W12
 BYTE   N44  Bn2
 BYTE   W22
 BYTE   N03
 BYTE   W32
 BYTE   N05  Gs3
 BYTE   W06
 BYTE   Bn3
 BYTE   W06
 BYTE   As3
 BYTE   W06
// 048   ----------------------------------------
 BYTE   Gs3
 BYTE   W12
 BYTE   Fs3
 BYTE   W12
 BYTE   N11  Fn3
 BYTE   W12
 BYTE   Ds3
 BYTE   W12
 BYTE   N23  Dn3
 BYTE   W24
 BYTE   N05  Ds3
 BYTE   W12
 BYTE   Cn3
 BYTE   W06
 BYTE   Ds3
 BYTE   W06
// 049   ----------------------------------------
 BYTE   Fs3
 BYTE   W12
 BYTE   Ds3
 BYTE   W06
 BYTE   Fs3
 BYTE   W06
 BYTE   N44  As3
 BYTE   W22
 BYTE   N03
 BYTE   W48
 BYTE   W02
// 050   ----------------------------------------
 BYTE   N05  As2
 BYTE   W12
 BYTE   Ds3
 BYTE   W06
 BYTE   Fn3
 BYTE   W06
 BYTE   N23  Fs3
 BYTE   W54
 BYTE   N05  Bn2
 BYTE   W06
 BYTE   Ds3
 BYTE   W06
 BYTE   Fn3
 BYTE   W06
// 051   ----------------------------------------
 BYTE   N11  Gs3
 BYTE   W12
 BYTE   Fs3
 BYTE   W12
 BYTE   Fs3
 BYTE   W12
 BYTE   N05  Fn3
 BYTE   W12
 BYTE   N23
 BYTE   W48
// 052   ----------------------------------------
 BYTE   N05  Ds3
 BYTE   W12
 BYTE   Fs3
 BYTE   W06
 BYTE   Gs3
 BYTE   W06
 BYTE   N23  As3
 BYTE   W54
 BYTE   N05  Ds3
 BYTE   W06
 BYTE   Gs3
 BYTE   W06
 BYTE   Gn3
 BYTE   W06
// 053   ----------------------------------------
 BYTE   Gs3
 BYTE   W12
 BYTE   Bn3
 BYTE   W12
 BYTE   N40  Cs3
 BYTE   W20
 BYTE   N01
 BYTE   W32
 BYTE   W02
 BYTE   N05
 BYTE   W06
 BYTE   Fs3
 BYTE   W06
 BYTE   Fn3
 BYTE   W06
// 054   ----------------------------------------
 BYTE   Fs3
 BYTE   W12
 BYTE   As3
 BYTE   W12
 BYTE   N44  Bn2
 BYTE   W22
 BYTE   N03
 BYTE   W32
 BYTE   N05  Gs3
 BYTE   W06
 BYTE   Bn3
 BYTE   W06
 BYTE   As3
 BYTE   W06
// 055   ----------------------------------------
 BYTE   Gs3
 BYTE   W12
 BYTE   Fs3
 BYTE   W12
 BYTE   N11  Fn3
 BYTE   W12
 BYTE   Ds3
 BYTE   W12
 BYTE   N23  Dn3
 BYTE   W24
 BYTE   N05  Ds3
 BYTE   W12
 BYTE   Cn3
 BYTE   W06
 BYTE   Ds3
 BYTE   W06
// 056   ----------------------------------------
 BYTE   Fs3
 BYTE   W12
 BYTE   Ds3
 BYTE   W06
 BYTE   Fs3
 BYTE   W06
 BYTE   N44  As3
 BYTE   W22
 BYTE   N03
 BYTE   W24
 BYTE   W02
 BYTE   PAN   c_v-19
 BYTE   TEMPO   134*CastlevaniaPortraitofRuinIronBlueIntentionRSflame_tbs/2
 BYTE   W96
// 057   ----------------------------------------
 BYTE   W96
// 058   ----------------------------------------
 BYTE   W96
// 059   ----------------------------------------
 BYTE   W96
// 060   ----------------------------------------
 BYTE   W96
// 061   ----------------------------------------
 BYTE   W96
// 062   ----------------------------------------
 BYTE   W96
// 063   ----------------------------------------
 BYTE   W96
// 064   ----------------------------------------
 BYTE   W05
 BYTE   W06
 BYTE   W12
 BYTE   N23  Fn3  v092
 BYTE   W24
 BYTE   Gn3
 BYTE   W24
 BYTE   As3
 BYTE   W24
 BYTE   Gs3
 BYTE   W24
// 065   ----------------------------------------
 BYTE   Gn3
 BYTE   W24
 BYTE   Fn3
 BYTE   W24
 BYTE   En3
 BYTE   W48
// 066   ----------------------------------------
 BYTE   Fn3
 BYTE   W24
 BYTE   Gn3
 BYTE   W24
 BYTE   As3
 BYTE   W24
 BYTE   Gs3
 BYTE   W24
// 067   ----------------------------------------
 BYTE   Gn3
 BYTE   W24
 BYTE   Fn3
 BYTE   W24
 BYTE   En3
 BYTE   W23
 BYTE   N92  Fn3  v086
 BYTE   W44
// 068   ----------------------------------------
 BYTE   W02
 BYTE   N03
 BYTE   W48
 BYTE   W02
 BYTE   N92  Gn3
 BYTE   W44
// 069   ----------------------------------------
 BYTE   W02
 BYTE   N03
 BYTE   W48
 BYTE   W02
 BYTE   N92  As3
 BYTE   W44
// 070   ----------------------------------------
 BYTE   W02
 BYTE   N03
 BYTE   W48
 BYTE   W02
 BYTE   N92  An3
 BYTE   W44
// 071   ----------------------------------------
 BYTE   W02
 BYTE   N03
 BYTE   W48
 BYTE   W02
 BYTE   N92  Fn3
 BYTE   W44
// 072   ----------------------------------------
 BYTE   W02
 BYTE   N03
 BYTE   W48
 BYTE   W02
 BYTE   N92  Gn3
 BYTE   W44
// 073   ----------------------------------------
 BYTE   W02
 BYTE   N03
 BYTE   W48
 BYTE   W02
 BYTE   N92  En3
 BYTE   W44
// 074   ----------------------------------------
 BYTE   W02
 BYTE   N03
 BYTE   W48
 BYTE   W02
 BYTE   N76  Fn3
 BYTE   W36
 BYTE   W02
 BYTE   N01
 BYTE   W03
 BYTE   W36
// 075   ----------------------------------------
 BYTE   W06
 BYTE   N11  An2  v106
 BYTE   W06
 BYTE   GoTo
  POIN2 Label_12_01EA9EAC
 BYTE   FINE

//**************** Track 14 (Midi-Chn.13) ****************//

CastlevaniaPortraitofRuinIronBlueIntentionRSflame_014:
// 000   ----------------------------------------
Label_13_01EA7360:
 BYTE   TEMPO   134*CastlevaniaPortraitofRuinIronBlueIntentionRSflame_tbs/2
 BYTE   KEYSH   CastlevaniaPortraitofRuinIronBlueIntentionRSflame_key+0
 BYTE   VOICE   48
 BYTE   VOL   37*CastlevaniaPortraitofRuinIronBlueIntentionRSflame_mvl/mxv
 BYTE   PAN   c_v+21
 BYTE   N05  Dn2  v122
 BYTE   W06
 BYTE   En2
 BYTE   W06
 BYTE   N11  Fn2
 BYTE   W24
 BYTE   N05  Dn2
 BYTE   W06
 BYTE   En2
 BYTE   W06
 BYTE   Fn2
 BYTE   W12
 BYTE   Dn2
 BYTE   W06
 BYTE   En2
 BYTE   W06
 BYTE   Fn2
 BYTE   W06
 BYTE   En2
 BYTE   W06
 BYTE   Dn2
 BYTE   W12
// 001   ----------------------------------------
 BYTE   En2
 BYTE   W06
 BYTE   Fn2
 BYTE   W06
 BYTE   N11  Gn2
 BYTE   W24
 BYTE   N05  En2
 BYTE   W06
 BYTE   Fn2
 BYTE   W06
 BYTE   Gn2
 BYTE   W12
 BYTE   En2
 BYTE   W06
 BYTE   Fn2
 BYTE   W06
 BYTE   Gn2
 BYTE   W06
 BYTE   Fn2
 BYTE   W06
 BYTE   En2
 BYTE   W12
// 002   ----------------------------------------
 BYTE   Fn2
 BYTE   W06
 BYTE   Gn2
 BYTE   W06
 BYTE   N11  An2
 BYTE   W24
 BYTE   N05  Fn2
 BYTE   W06
 BYTE   Gn2
 BYTE   W06
 BYTE   An2
 BYTE   W12
 BYTE   Fn2
 BYTE   W06
 BYTE   Gn2
 BYTE   W06
 BYTE   An2
 BYTE   W06
 BYTE   Gn2
 BYTE   W06
 BYTE   Fn2
 BYTE   W12
// 003   ----------------------------------------
 BYTE   Gn2
 BYTE   W06
 BYTE   An2
 BYTE   W06
 BYTE   N11  As2
 BYTE   W18
 BYTE   N05  An2
 BYTE   W06
 BYTE   Gn2
 BYTE   W06
 BYTE   Fn2
 BYTE   W06
 BYTE   En2
 BYTE   W06
 BYTE   Dn2
 BYTE   W06
 BYTE   Cn2
 BYTE   W06
 BYTE   Dn2
 BYTE   W06
 BYTE   En2
 BYTE   W06
 BYTE   Fn2
 BYTE   W06
 BYTE   Gn2
 BYTE   W06
 BYTE   En2
 BYTE   W96
// 004   ----------------------------------------
 BYTE   W96
// 005   ----------------------------------------
 BYTE   W96
// 006   ----------------------------------------
 BYTE   W96
// 007   ----------------------------------------
 BYTE   W96
// 008   ----------------------------------------
 BYTE   W96
// 009   ----------------------------------------
 BYTE   W96
// 010   ----------------------------------------
 BYTE   W96
// 011   ----------------------------------------
 BYTE   W96
// 012   ----------------------------------------
 BYTE   W96
// 013   ----------------------------------------
 BYTE   W96
// 014   ----------------------------------------
 BYTE   W96
// 015   ----------------------------------------
 BYTE   W96
// 016   ----------------------------------------
 BYTE   W96
// 017   ----------------------------------------
 BYTE   W96
// 018   ----------------------------------------
 BYTE   W96
// 019   ----------------------------------------
 BYTE   W96
// 020   ----------------------------------------
 BYTE   W96
// 021   ----------------------------------------
 BYTE   W96
// 022   ----------------------------------------
 BYTE   W96
// 023   ----------------------------------------
 BYTE   W96
// 024   ----------------------------------------
 BYTE   W96
// 025   ----------------------------------------
 BYTE   W96
// 026   ----------------------------------------
 BYTE   W18
 BYTE   As3  v096
 BYTE   W12
 BYTE   As3
 BYTE   W06
 BYTE   As3
 BYTE   W12
 BYTE   As3
 BYTE   W06
 BYTE   Gn3
 BYTE   W12
 BYTE   Gn3
 BYTE   W12
 BYTE   Gn3
 BYTE   W12
 BYTE   Gn3
 BYTE   W12
// 027   ----------------------------------------
 BYTE   Gn3  v060
 BYTE   W12
 BYTE   Gn3  v050
 BYTE   W96
// 028   ----------------------------------------
 BYTE   As2  v102
 BYTE   W12
 BYTE   As2
 BYTE   W06
 BYTE   As2
 BYTE   W12
 BYTE   As2
 BYTE   W06
 BYTE   An2
 BYTE   W12
 BYTE   An2
 BYTE   W12
 BYTE   An2
 BYTE   W12
 BYTE   An2
 BYTE   W12
 BYTE   As2
 BYTE   W12
// 029   ----------------------------------------
 BYTE   As2
 BYTE   W12
 BYTE   Gn2
 BYTE   W12
 BYTE   Gn2
 BYTE   W12
 BYTE   Gn2
 BYTE   W12
 BYTE   Gn2
 BYTE   W12
 BYTE   Gn2
 BYTE   W12
 BYTE   Gn2
 BYTE   W12
 BYTE   En2
 BYTE   W24
// 030   ----------------------------------------
 BYTE   En2
 BYTE   W24
 BYTE   Fn2
 BYTE   W24
 BYTE   En2
 BYTE   W96
// 031   ----------------------------------------
 BYTE   W96
// 032   ----------------------------------------
 BYTE   W96
// 033   ----------------------------------------
 BYTE   W96
// 034   ----------------------------------------
 BYTE   W96
// 035   ----------------------------------------
 BYTE   W96
// 036   ----------------------------------------
 BYTE   W96
// 037   ----------------------------------------
 BYTE   W96
// 038   ----------------------------------------
 BYTE   W96
// 039   ----------------------------------------
 BYTE   W96
// 040   ----------------------------------------
 BYTE   W96
// 041   ----------------------------------------
 BYTE   W96
// 042   ----------------------------------------
 BYTE   W96
// 043   ----------------------------------------
 BYTE   W96
// 044   ----------------------------------------
 BYTE   W24
 BYTE   TEMPO   132*CastlevaniaPortraitofRuinIronBlueIntentionRSflame_tbs/2
 BYTE   N92  As2  v074
 BYTE   N92  Fs2
 BYTE   W44
 BYTE   W02
 BYTE   N03  As2
 BYTE   N03  Fs2
 BYTE   W48
// 045   ----------------------------------------
 BYTE   W02
Label_13_01EA7446:
 BYTE   N44  Bn2  v074
 BYTE   N44  Gs2
 BYTE   W22
 BYTE   N03  Bn2
 BYTE   N03  Gs2
 BYTE   W24
 BYTE   W02
 BYTE   N44  Dn2
 BYTE   N96  As2
 BYTE   W22
 BYTE   N03  Dn2
 BYTE   W24
// 046   ----------------------------------------
 BYTE   W02
 BYTE   PEND 
Label_13_01EA745C:
 BYTE   N44  As2  v074
 BYTE   N96  Ds2
 BYTE   W22
 BYTE   N03  As2
 BYTE   W24
 BYTE   W02
 BYTE   N44  Ds2
 BYTE   W22
 BYTE   N03
 BYTE   W24
// 047   ----------------------------------------
 BYTE   W02
 BYTE   PEND 
Label_13_01EA746D:
 BYTE   N92  Bn2  v074
 BYTE   W44
 BYTE   W02
 BYTE   N03
 BYTE   W02
 BYTE   N44  Fn2
 BYTE   W22
 BYTE   N03
 BYTE   W24
// 048   ----------------------------------------
 BYTE   W02
 BYTE   PEND 
Label_13_01EA747B:
 BYTE   N44  As2  v074
 BYTE   N44  Cs2
 BYTE   W22
 BYTE   N03  As2
 BYTE   N03  Cs2
 BYTE   W24
 BYTE   W02
 BYTE   N44  Fs2
 BYTE   N44  Ds2
 BYTE   W22
 BYTE   N03  Fs2
 BYTE   N03  Ds2
 BYTE   W24
// 049   ----------------------------------------
 BYTE   W02
 BYTE   PEND 
Label_13_01EA7493:
 BYTE   N44  Bn2  v074
 BYTE   N92  Fn2
 BYTE   W22
 BYTE   N03  Bn2
 BYTE   W24
 BYTE   Fn2
 BYTE   W02
 BYTE   N44  As2
 BYTE   W22
 BYTE   N03
 BYTE   W24
// 050   ----------------------------------------
 BYTE   W02
 BYTE   PEND 
Label_13_01EA74A5:
 BYTE   N44  An2  v074
 BYTE   N44  Ds2
 BYTE   W22
 BYTE   N03  An2
 BYTE   N03  Ds2
 BYTE   W24
 BYTE   W02
 BYTE   N44  As2
 BYTE   N44  Dn2
 BYTE   W22
 BYTE   N03  As2
 BYTE   N03  Dn2
 BYTE   W24
// 051   ----------------------------------------
 BYTE   W02
 BYTE   PEND 
 BYTE   N92  As2  v074
 BYTE   N92  Fs2
 BYTE   W44
 BYTE   W02
 BYTE   N03  As2
 BYTE   N03  Fs2
 BYTE   W48
// 052   ----------------------------------------
 BYTE   W02
// 053   ----------------------------------------
 BYTE   PATT
  POIN2 Label_13_01EA7446
// 054   ----------------------------------------
 BYTE   PATT
  POIN2 Label_13_01EA745C
// 055   ----------------------------------------
 BYTE   PATT
  POIN2 Label_13_01EA746D
// 056   ----------------------------------------
 BYTE   PATT
  POIN2 Label_13_01EA747B
// 057   ----------------------------------------
 BYTE   PATT
  POIN2 Label_13_01EA7493
// 058   ----------------------------------------
 BYTE   PATT
  POIN2 Label_13_01EA74A5
// 059   ----------------------------------------
 BYTE   TEMPO   134*CastlevaniaPortraitofRuinIronBlueIntentionRSflame_tbs/2
 BYTE   W96
// 060   ----------------------------------------
 BYTE   W96
// 061   ----------------------------------------
 BYTE   W96
// 062   ----------------------------------------
 BYTE   W96
// 063   ----------------------------------------
 BYTE   W96
// 064   ----------------------------------------
 BYTE   W96
// 065   ----------------------------------------
 BYTE   W96
// 066   ----------------------------------------
 BYTE   W96
// 067   ----------------------------------------
 BYTE   W05
 BYTE   W06
 BYTE   W12
 BYTE   N23  Gs2  v092
 BYTE   W24
 BYTE   As2
 BYTE   W24
 BYTE   Cs3
 BYTE   W24
 BYTE   Cn3
 BYTE   W24
// 068   ----------------------------------------
 BYTE   As2
 BYTE   W24
 BYTE   Gs2
 BYTE   W24
 BYTE   Gn2
 BYTE   W48
// 069   ----------------------------------------
 BYTE   Gs2
 BYTE   W24
 BYTE   As2
 BYTE   W24
 BYTE   Cs3
 BYTE   W24
 BYTE   Cn3
 BYTE   W24
// 070   ----------------------------------------
 BYTE   As2
 BYTE   W24
 BYTE   Gs2
 BYTE   W24
 BYTE   Gn2
 BYTE   W23
 BYTE   N92  An2  v086
 BYTE   W44
// 071   ----------------------------------------
 BYTE   W02
 BYTE   N03
 BYTE   W48
 BYTE   W02
 BYTE   N92  As2
 BYTE   W44
// 072   ----------------------------------------
 BYTE   W02
 BYTE   N03
 BYTE   W48
 BYTE   W02
 BYTE   N92  Gn2
 BYTE   W44
// 073   ----------------------------------------
 BYTE   W02
 BYTE   N03
 BYTE   W48
 BYTE   W02
 BYTE   N92  Fn2
 BYTE   W44
// 074   ----------------------------------------
 BYTE   W02
 BYTE   N03
 BYTE   W48
 BYTE   W02
 BYTE   N92  Dn2
 BYTE   W44
// 075   ----------------------------------------
 BYTE   W02
 BYTE   N03
 BYTE   W48
 BYTE   W02
 BYTE   N92
 BYTE   W44
// 076   ----------------------------------------
 BYTE   W02
 BYTE   N03
 BYTE   W48
 BYTE   W02
 BYTE   N92  Cs2
 BYTE   W44
// 077   ----------------------------------------
 BYTE   W02
 BYTE   N03
 BYTE   W48
 BYTE   W02
 BYTE   N80  Dn2
 BYTE   W40
 BYTE   N03
 BYTE   W01
 BYTE   W36
// 078   ----------------------------------------
 BYTE   W06
 BYTE   W06
 BYTE   GoTo
  POIN2 Label_13_01EA7360
 BYTE   FINE

//**************** Track 15 (Midi-Chn.14) ****************//

CastlevaniaPortraitofRuinIronBlueIntentionRSflame_015:
// 000   ----------------------------------------
Label_14_01EAA200:
 BYTE   TEMPO   134*CastlevaniaPortraitofRuinIronBlueIntentionRSflame_tbs/2
 BYTE   KEYSH   CastlevaniaPortraitofRuinIronBlueIntentionRSflame_key+0
 BYTE   VOICE   48
 BYTE   VOL   37*CastlevaniaPortraitofRuinIronBlueIntentionRSflame_mvl/mxv
 BYTE   PAN   c_v+41
 BYTE   BEND   c_v+0
 BYTE   W12
 BYTE   BEND   c_v-5
 BYTE   N05  Dn2  v082
 BYTE   N05  Dn3  v070
 BYTE   W06
 BYTE   En2  v082
 BYTE   N05  En3  v070
 BYTE   W06
 BYTE   N11  Fn2  v082
 BYTE   N11  Fn3  v070
 BYTE   W24
 BYTE   N05  Dn2  v082
 BYTE   N05  Dn3  v070
 BYTE   W06
 BYTE   En2  v082
 BYTE   N05  En3  v070
 BYTE   W06
 BYTE   Fn2  v082
 BYTE   N05  Fn3  v070
 BYTE   W12
 BYTE   Dn2  v082
 BYTE   N05  Dn3  v070
 BYTE   W06
 BYTE   En2  v082
 BYTE   N05  En3  v070
 BYTE   W06
 BYTE   Fn2  v082
 BYTE   N05  Fn3  v070
 BYTE   W06
 BYTE   En2  v082
 BYTE   N05  En3  v070
 BYTE   W06
// 001   ----------------------------------------
 BYTE   Dn2  v082
 BYTE   N05  Dn3  v070
 BYTE   W12
 BYTE   En2  v082
 BYTE   N05  En3  v070
 BYTE   W06
 BYTE   Fn2  v082
 BYTE   N05  Fn3  v070
 BYTE   W06
 BYTE   N11  Gn2  v082
 BYTE   N11  Gn3  v070
 BYTE   W24
 BYTE   N05  En2  v082
 BYTE   N05  En3  v070
 BYTE   W06
 BYTE   Fn2  v082
 BYTE   N05  Fn3  v070
 BYTE   W06
 BYTE   Gn2  v082
 BYTE   N05  Gn3  v070
 BYTE   W12
 BYTE   En2  v082
 BYTE   N05  En3  v070
 BYTE   W06
 BYTE   Fn2  v082
 BYTE   N05  Fn3  v070
 BYTE   W06
 BYTE   Gn2  v082
 BYTE   N05  Gn3  v070
 BYTE   W06
 BYTE   Fn2  v082
 BYTE   N05  Fn3  v070
 BYTE   W06
// 002   ----------------------------------------
 BYTE   En2  v082
 BYTE   N05  En3  v070
 BYTE   W12
 BYTE   Fn2  v082
 BYTE   N05  Fn3  v070
 BYTE   W06
 BYTE   Gn2  v082
 BYTE   N05  Gn3  v070
 BYTE   W06
 BYTE   N11  An2  v082
 BYTE   N11  An3  v070
 BYTE   W24
 BYTE   N05  Fn2  v082
 BYTE   N05  Fn3  v070
 BYTE   W06
 BYTE   Gn2  v082
 BYTE   N05  Gn3  v070
 BYTE   W06
 BYTE   An2  v082
 BYTE   N05  An3  v070
 BYTE   W12
 BYTE   Fn2  v082
 BYTE   N05  Fn3  v070
 BYTE   W06
 BYTE   Gn2  v082
 BYTE   N05  Gn3  v070
 BYTE   W06
 BYTE   An2  v082
 BYTE   N05  An3  v070
 BYTE   W06
 BYTE   Gn2  v082
 BYTE   N05  Gn3  v070
 BYTE   W06
// 003   ----------------------------------------
 BYTE   Fn2  v082
 BYTE   N05  Fn3  v070
 BYTE   W12
 BYTE   Gn2  v082
 BYTE   N05  Gn3  v070
 BYTE   W06
 BYTE   N04  An2  v082
 BYTE   N04  An3  v070
 BYTE   W06
 BYTE   N11  As2  v082
 BYTE   N11  As3  v070
 BYTE   W18
 BYTE   N05  An2  v082
 BYTE   N05  An3  v070
 BYTE   W06
 BYTE   Gn2  v082
 BYTE   N05  Gn3  v070
 BYTE   W06
 BYTE   Fn2  v082
 BYTE   N05  Fn3  v070
 BYTE   W06
 BYTE   En2  v082
 BYTE   N05  En3  v070
 BYTE   W06
 BYTE   Dn2  v082
 BYTE   N05  Dn3  v070
 BYTE   W06
 BYTE   Cn2  v082
 BYTE   N05  Cn3  v070
 BYTE   W06
 BYTE   Dn2  v082
 BYTE   N05  Dn3  v070
 BYTE   W06
 BYTE   En2  v082
 BYTE   N05  En3  v070
 BYTE   W06
 BYTE   Fn2  v082
 BYTE   N05  Fn3  v070
 BYTE   W06
// 004   ----------------------------------------
 BYTE   Gn2  v082
 BYTE   N05  Gn3  v070
 BYTE   W06
 BYTE   En2  v082
 BYTE   N05  En3  v070
 BYTE   W96
// 005   ----------------------------------------
 BYTE   W96
// 006   ----------------------------------------
 BYTE   W96
// 007   ----------------------------------------
 BYTE   W76
 BYTE   BEND   c_v+0
 BYTE   W02
 BYTE   N11  An1  v106
 BYTE   W12
 BYTE   N15  Dn2
 BYTE   W24
// 008   ----------------------------------------
 BYTE   En2
 BYTE   W24
 BYTE   N23  Fn2
 BYTE   W36
 BYTE   N11  An2
 BYTE   W12
 BYTE   N05  Gn2
 BYTE   W12
 BYTE   As2
 BYTE   W12
// 009   ----------------------------------------
 BYTE   N23  Fn3
 BYTE   W36
 BYTE   N11
 BYTE   W12
 BYTE   En3
 BYTE   W12
 BYTE   Dn3
 BYTE   W12
 BYTE   N05  En3
 BYTE   W12
 BYTE   Gn3
 BYTE   W12
// 010   ----------------------------------------
 BYTE   N23  Cs3
 BYTE   W36
 BYTE   N11  As2
 BYTE   W12
 BYTE   An2
 BYTE   W12
 BYTE   En2
 BYTE   W12
 BYTE   Gn2
 BYTE   W24
// 011   ----------------------------------------
 BYTE   N44  Fn2
 BYTE   W22
 BYTE   N03
 BYTE   W36
 BYTE   W02
 BYTE   N11  An2
 BYTE   W12
 BYTE   N05  Dn3
 BYTE   W12
 BYTE   En3
 BYTE   W12
// 012   ----------------------------------------
 BYTE   N32  Fn3
 BYTE   W16
 BYTE   N03
 BYTE   W20
 BYTE   N11  En3
 BYTE   W12
 BYTE   Fn3
 BYTE   W12
 BYTE   Gn3
 BYTE   W12
 BYTE   N05  Cn3
 BYTE   W12
 BYTE   Dn3
 BYTE   W12
// 013   ----------------------------------------
 BYTE   N28  En3
 BYTE   W14
 BYTE   N01
 BYTE   W22
 BYTE   N11  Dn3
 BYTE   W12
 BYTE   En3
 BYTE   W12
 BYTE   Fn3
 BYTE   W12
 BYTE   N05  Gn2
 BYTE   W06
 BYTE   An2
 BYTE   W06
 BYTE   N11  As2
 BYTE   W24
// 014   ----------------------------------------
 BYTE   N05
 BYTE   W06
 BYTE   Cn3
 BYTE   W06
 BYTE   N23  Dn3
 BYTE   W30
 BYTE   N05  Cs3
 BYTE   W06
 BYTE   Dn3
 BYTE   W06
 BYTE   En3
 BYTE   W06
 BYTE   N28  Fn3
 BYTE   W14
 BYTE   N01
 BYTE   W22
// 015   ----------------------------------------
 BYTE   N05  En3
 BYTE   W06
 BYTE   Dn3
 BYTE   W06
 BYTE   N32  En3
 BYTE   W16
 BYTE   N03
 BYTE   W20
 BYTE   N11  An1
 BYTE   W12
 BYTE   N15  Dn2
 BYTE   W24
 BYTE   En2
 BYTE   W24
// 016   ----------------------------------------
 BYTE   N23  Fn2
 BYTE   W36
Label_14_01EAA3C2:
 BYTE   N11  An2  v106
 BYTE   W12
 BYTE   N05  Gn2
 BYTE   W12
 BYTE   As2
 BYTE   W12
 BYTE   N23  Fn3
 BYTE   W36
// 017   ----------------------------------------
 BYTE   N11
 BYTE   W12
 BYTE   En3
 BYTE   W12
 BYTE   PEND 
Label_14_01EAA3D3:
 BYTE   N11  Dn3  v106
 BYTE   W12
 BYTE   N05  En3
 BYTE   W12
 BYTE   Gn3
 BYTE   W12
 BYTE   N23  Cs3
 BYTE   W36
// 018   ----------------------------------------
 BYTE   N11  As2
 BYTE   W12
 BYTE   An2
 BYTE   W12
 BYTE   PEND 
Label_14_01EAA3E5:
 BYTE   N11  En2  v106
 BYTE   W12
 BYTE   Gn2
 BYTE   W24
 BYTE   N44  Fn2
 BYTE   W22
 BYTE   N03
 BYTE   W36
// 019   ----------------------------------------
 BYTE   W02
 BYTE   PEND 
Label_14_01EAA3F2:
 BYTE   N11  An2  v106
 BYTE   W12
 BYTE   N05  Dn3
 BYTE   W12
 BYTE   En3
 BYTE   W12
 BYTE   N23  Fn3
 BYTE   W36
 BYTE   N11  En3
 BYTE   W12
 BYTE   Fn3
 BYTE   W12
 BYTE   PEND 
// 020   ----------------------------------------
Label_14_01EAA404:
 BYTE   N11  Gn3  v106
 BYTE   W12
 BYTE   N05  Cn3
 BYTE   W12
 BYTE   Dn3
 BYTE   W12
 BYTE   N28  En3
 BYTE   W14
 BYTE   N01
 BYTE   W22
 BYTE   N11  Dn3
 BYTE   W12
 BYTE   En3
 BYTE   W12
 BYTE   PEND 
// 021   ----------------------------------------
 BYTE   N11  Fn3  v106
 BYTE   W12
 BYTE   N05  Gn2
 BYTE   W06
 BYTE   An2
 BYTE   W06
 BYTE   N11  As2
 BYTE   W24
 BYTE   N05
 BYTE   W06
 BYTE   Cn3
 BYTE   W06
 BYTE   Dn3
 BYTE   W12
 BYTE   Gn2
 BYTE   W06
 BYTE   Fs2
 BYTE   W06
 BYTE   Gn2
 BYTE   W06
 BYTE   Fs2
 BYTE   W06
// 022   ----------------------------------------
 BYTE   Gn2
 BYTE   W12
 BYTE   Bn2
 BYTE   W06
 BYTE   As2
 BYTE   W06
 BYTE   N11  Bn2
 BYTE   W24
 BYTE   N05
 BYTE   W06
 BYTE   Cs3
 BYTE   W06
 BYTE   Dn3
 BYTE   W12
 BYTE   Bn2
 BYTE   W06
 BYTE   Fn2
 BYTE   W06
 BYTE   Bn2
 BYTE   W06
 BYTE   Dn3
 BYTE   W06
// 023   ----------------------------------------
 BYTE   Fn3
 BYTE   W06
 BYTE   Gs3
 BYTE   W06
 BYTE   N96  An3
 BYTE   W48
 BYTE   N92
 BYTE   W44
// 024   ----------------------------------------
 BYTE   W02
 BYTE   N03
 BYTE   W96
// 025   ----------------------------------------
 BYTE   W96
// 026   ----------------------------------------
 BYTE   W96
// 027   ----------------------------------------
 BYTE   W96
// 028   ----------------------------------------
 BYTE   W96
// 029   ----------------------------------------
 BYTE   W02
 BYTE   N11  Dn3  v102
 BYTE   W12
 BYTE   N05  Cs3
 BYTE   W06
 BYTE   Dn3
 BYTE   W06
 BYTE   N11
 BYTE   W12
 BYTE   N05  Cs3
 BYTE   W06
 BYTE   Dn3
 BYTE   W06
 BYTE   N11
 BYTE   W12
 BYTE   N05  Cs3
 BYTE   W06
 BYTE   Dn3
 BYTE   W06
 BYTE   N11  Gn3
 BYTE   W12
 BYTE   N05  Fs3
 BYTE   W06
 BYTE   Gn3
 BYTE   W12
// 030   ----------------------------------------
 BYTE   Gn2
 BYTE   W06
 BYTE   Cn3
 BYTE   W06
 BYTE   En3
 BYTE   W12
 BYTE   An2
 BYTE   W06
 BYTE   Cs3
 BYTE   W06
 BYTE   En3
 BYTE   W12
 BYTE   An2
 BYTE   W06
 BYTE   Dn3
 BYTE   W06
 BYTE   Fn3
 BYTE   W12
 BYTE   An2
 BYTE   W06
 BYTE   En3
 BYTE   W06
 BYTE   An3
 BYTE   W06
 BYTE   An3
 BYTE   W06
// 031   ----------------------------------------
 BYTE   An2
 BYTE   W06
 BYTE   Dn3
 BYTE   W06
 BYTE   Fn3
 BYTE   W06
 BYTE   An3
 BYTE   W06
 BYTE   An2
 BYTE   W06
 BYTE   Dn3
 BYTE   W06
 BYTE   Fn3
 BYTE   W06
 BYTE   Bn3
 BYTE   W06
 BYTE   Bn2
 BYTE   W06
 BYTE   Dn3
 BYTE   W06
 BYTE   Fn3
 BYTE   W06
 BYTE   Bn3
 BYTE   W06
 BYTE   Bn2
 BYTE   W06
 BYTE   Dn3
 BYTE   W06
 BYTE   Fn3
 BYTE   W90
// 032   ----------------------------------------
 BYTE   N11  An1  v106
 BYTE   W12
 BYTE   N15  Dn2
 BYTE   W24
 BYTE   En2
 BYTE   W24
 BYTE   N23  Fn2
 BYTE   W36
// 033   ----------------------------------------
 BYTE   PATT
  POIN2 Label_14_01EAA3C2
// 034   ----------------------------------------
 BYTE   PATT
  POIN2 Label_14_01EAA3D3
// 035   ----------------------------------------
 BYTE   PATT
  POIN2 Label_14_01EAA3E5
// 036   ----------------------------------------
 BYTE   PATT
  POIN2 Label_14_01EAA3F2
// 037   ----------------------------------------
 BYTE   PATT
  POIN2 Label_14_01EAA404
// 038   ----------------------------------------
 BYTE   N11  Fn3  v106
 BYTE   W12
 BYTE   N05  Gn2
 BYTE   W06
 BYTE   An2
 BYTE   W06
 BYTE   As2
 BYTE   W24
 BYTE   As2
 BYTE   W06
 BYTE   Cn3
 BYTE   W06
 BYTE   Dn3
 BYTE   W12
 BYTE   Gn2
 BYTE   W06
 BYTE   Fs2
 BYTE   W06
 BYTE   Gn2
 BYTE   W06
 BYTE   An2
 BYTE   W06
// 039   ----------------------------------------
 BYTE   As2
 BYTE   W06
 BYTE   Dn3
 BYTE   W06
 BYTE   N44  Fn3
 BYTE   W22
 BYTE   N03
 BYTE   W24
 BYTE   W02
 BYTE   N44  En3
 BYTE   W22
 BYTE   N03
 BYTE   W24
// 040   ----------------------------------------
 BYTE   W02
 BYTE   N96  Dn3
 BYTE   W48
 BYTE   N92
 BYTE   W44
 BYTE   W02
// 041   ----------------------------------------
 BYTE   N03
 BYTE   W96
// 042   ----------------------------------------
 BYTE   W02
 BYTE   N96  Dn2
 BYTE   W48
 BYTE   N92
 BYTE   W44
 BYTE   W02
// 043   ----------------------------------------
 BYTE   N03
 BYTE   W96
// 044   ----------------------------------------
 BYTE   W02
 BYTE   TEMPO   132*CastlevaniaPortraitofRuinIronBlueIntentionRSflame_tbs/2
 BYTE   N92  Ds2  v086
 BYTE   W44
 BYTE   W02
 BYTE   N03
 BYTE   W48
// 045   ----------------------------------------
 BYTE   W02
Label_14_01EAA51B:
 BYTE   N44  Fn2  v086
 BYTE   W22
 BYTE   N03
 BYTE   W24
 BYTE   W02
 BYTE   N23  Dn2
 BYTE   W24
 BYTE   As2
 BYTE   W24
 BYTE   PEND 
// 046   ----------------------------------------
Label_14_01EAA528:
 BYTE   N44  Fs2  v086
 BYTE   W22
 BYTE   N03
 BYTE   W24
 BYTE   W02
 BYTE   N44  Gn2
 BYTE   W22
 BYTE   N03
 BYTE   W24
 BYTE   W02
 BYTE   PEND 
// 047   ----------------------------------------
Label_14_01EAA536:
 BYTE   N23  Gs2  v086
 BYTE   W24
 BYTE   Fs2
 BYTE   W24
 BYTE   Fn2
 BYTE   W24
 BYTE   Cs2
 BYTE   W24
 BYTE   PEND 
// 048   ----------------------------------------
Label_14_01EAA541:
 BYTE   N23  Fs2  v086
 BYTE   W24
 BYTE   Fn2
 BYTE   W24
 BYTE   Ds2
 BYTE   W24
 BYTE   Bn1
 BYTE   W24
 BYTE   PEND 
// 049   ----------------------------------------
Label_14_01EAA54C:
 BYTE   N23  Fn2  v086
 BYTE   W24
 BYTE   Ds2
 BYTE   W24
 BYTE   Dn2
 BYTE   W24
 BYTE   As1
 BYTE   W24
 BYTE   PEND 
// 050   ----------------------------------------
Label_14_01EAA557:
 BYTE   N44  An1  v086
 BYTE   W22
 BYTE   N03
 BYTE   W24
 BYTE   W02
 BYTE   N44  As1
 BYTE   W22
 BYTE   N03
 BYTE   W24
 BYTE   W02
 BYTE   PEND 
// 051   ----------------------------------------
Label_14_01EAA565:
 BYTE   N92  Ds2  v086
 BYTE   W44
 BYTE   W02
 BYTE   N03
 BYTE   W48
 BYTE   W02
 BYTE   PEND 
// 052   ----------------------------------------
 BYTE   PATT
  POIN2 Label_14_01EAA51B
// 053   ----------------------------------------
 BYTE   PATT
  POIN2 Label_14_01EAA528
// 054   ----------------------------------------
 BYTE   PATT
  POIN2 Label_14_01EAA536
// 055   ----------------------------------------
 BYTE   PATT
  POIN2 Label_14_01EAA541
// 056   ----------------------------------------
 BYTE   PATT
  POIN2 Label_14_01EAA54C
// 057   ----------------------------------------
 BYTE   PATT
  POIN2 Label_14_01EAA557
// 058   ----------------------------------------
 BYTE   N92  Ds2  v086
 BYTE   TEMPO   134*CastlevaniaPortraitofRuinIronBlueIntentionRSflame_tbs/2
 BYTE   W44
 BYTE   W02
 BYTE   N03  Ds2  v086
 BYTE   W48
 BYTE   W02
// 059   ----------------------------------------
 BYTE   N92  Ds1
 BYTE   W44
 BYTE   W02
 BYTE   N03
 BYTE   W48
 BYTE   W02
// 060   ----------------------------------------
 BYTE   PATT
  POIN2 Label_14_01EAA565
// 061   ----------------------------------------
 BYTE   N92  Ds3  v086
 BYTE   W44
 BYTE   W02
 BYTE   N03
 BYTE   W48
 BYTE   W02
// 062   ----------------------------------------
 BYTE   N92  En3
 BYTE   W44
 BYTE   W02
 BYTE   N03
 BYTE   W48
 BYTE   W02
// 063   ----------------------------------------
Label_14_01EAA5B3:
 BYTE   N92  En2  v086
 BYTE   W44
 BYTE   W02
 BYTE   N03
 BYTE   W48
 BYTE   W02
 BYTE   PEND 
// 064   ----------------------------------------
 BYTE   N92  En1  v086
 BYTE   W44
 BYTE   W02
 BYTE   N03
 BYTE   W48
 BYTE   W02
// 065   ----------------------------------------
 BYTE   PATT
  POIN2 Label_14_01EAA5B3
// 066   ----------------------------------------
 BYTE   N96  Fn2  v086
 BYTE   W05
 BYTE   W06
 BYTE   W36
 BYTE   N68  Fn2  v086
 BYTE   W32
 BYTE   W02
 BYTE   N03
 BYTE   W84
// 067   ----------------------------------------
 BYTE   W02
 BYTE   N23  Cn2
 BYTE   W24
 BYTE   N96  Fn2
 BYTE   W48
 BYTE   N68
 BYTE   W32
// 068   ----------------------------------------
 BYTE   W02
 BYTE   N03
 BYTE   W84
 BYTE   W02
 BYTE   N23  Cn2
 BYTE   W23
// 069   ----------------------------------------
 BYTE   W96
// 070   ----------------------------------------
 BYTE   W96
// 071   ----------------------------------------
 BYTE   W96
// 072   ----------------------------------------
 BYTE   W96
// 073   ----------------------------------------
 BYTE   W96
// 074   ----------------------------------------
 BYTE   W96
// 075   ----------------------------------------
 BYTE   W96
// 076   ----------------------------------------
 BYTE   W42
 BYTE   W36
 BYTE   W06
 BYTE   N11  An1  v106
 BYTE   W06
 BYTE   GoTo
  POIN2 Label_14_01EAA200
 BYTE   FINE

//******************************************************//
	ALIGN 4

CastlevaniaPortraitofRuinIronBlueIntentionRSflame:
	BYTE	15	// NumTrks
	BYTE	0	// NumBlks
	BYTE	CastlevaniaPortraitofRuinIronBlueIntentionRSflame_pri	// Priority
	BYTE	CastlevaniaPortraitofRuinIronBlueIntentionRSflame_rev	// Reverb.
    
	POIN2	CastlevaniaPortraitofRuinIronBlueIntentionRSflame_grp
    
	POIN2	CastlevaniaPortraitofRuinIronBlueIntentionRSflame_001
	POIN2	CastlevaniaPortraitofRuinIronBlueIntentionRSflame_002
	POIN2	CastlevaniaPortraitofRuinIronBlueIntentionRSflame_003
	POIN2	CastlevaniaPortraitofRuinIronBlueIntentionRSflame_004
	POIN2	CastlevaniaPortraitofRuinIronBlueIntentionRSflame_005
	POIN2	CastlevaniaPortraitofRuinIronBlueIntentionRSflame_006
	POIN2	CastlevaniaPortraitofRuinIronBlueIntentionRSflame_007
	POIN2	CastlevaniaPortraitofRuinIronBlueIntentionRSflame_008
	POIN2	CastlevaniaPortraitofRuinIronBlueIntentionRSflame_009
	POIN2	CastlevaniaPortraitofRuinIronBlueIntentionRSflame_010
	POIN2	CastlevaniaPortraitofRuinIronBlueIntentionRSflame_011
	POIN2	CastlevaniaPortraitofRuinIronBlueIntentionRSflame_012
	POIN2	CastlevaniaPortraitofRuinIronBlueIntentionRSflame_013
	POIN2	CastlevaniaPortraitofRuinIronBlueIntentionRSflame_014
	POIN2	CastlevaniaPortraitofRuinIronBlueIntentionRSflame_015

	
