//Event file generated from Sappy .s format.
	#include "MPlayDef.event"

	#define	CastlevaniaCircleoftheMoonAwakeRSflame_grp  voicegroup000
	#define	CastlevaniaCircleoftheMoonAwakeRSflame_pri  10
	#define	CastlevaniaCircleoftheMoonAwakeRSflame_rev  0
	#define	CastlevaniaCircleoftheMoonAwakeRSflame_mvl  127
	#define	CastlevaniaCircleoftheMoonAwakeRSflame_key  0
	#define	CastlevaniaCircleoftheMoonAwakeRSflame_tbs  1
	#define	CastlevaniaCircleoftheMoonAwakeRSflame_exg  0
	#define	CastlevaniaCircleoftheMoonAwakeRSflame_cmp  1

	// .rodata
	//	CastlevaniaCircleoftheMoonAwakeRSflame
	ALIGN 4


//**************** Track 1 (Midi-Chn.0) ****************//

CastlevaniaCircleoftheMoonAwakeRSflame_001:
// 000   ----------------------------------------
Label_0_01EA2A14:
 BYTE   TEMPO   100*CastlevaniaCircleoftheMoonAwakeRSflame_tbs/2
 BYTE   KEYSH   CastlevaniaCircleoftheMoonAwakeRSflame_key+0
 BYTE   VOICE   24
 BYTE   VOL   58*CastlevaniaCircleoftheMoonAwakeRSflame_mvl/mxv
 BYTE   PAN   c_v+20
 BYTE   MOD 0
 BYTE   CnM2
 BYTE   W01
 BYTE   N18  Cn4  v076
 BYTE   W18
 BYTE   Cn4
 BYTE   W18
 BYTE   N60  An3
 BYTE   W60
// 001   ----------------------------------------
 BYTE   N18
 BYTE   W18
 BYTE   Bn3
 BYTE   W18
 BYTE   N21  Cn4
 BYTE   W23
 BYTE   N07  En3  v048
 BYTE   W06
 BYTE   N01  Dn3
 BYTE   W06
 BYTE   N06  Cn3
 BYTE   W06
 BYTE   N04
 BYTE   W03
 BYTE   N01  Dn3
 BYTE   W03
 BYTE   N07  Bn2
 BYTE   W06
 BYTE   N06  Cn3
 BYTE   W07
// 002   ----------------------------------------
 BYTE   N18  Cn4  v076
 BYTE   W18
 BYTE   Cn4
 BYTE   W18
 BYTE   N60  An3
 BYTE   W60
// 003   ----------------------------------------
 BYTE   N18  An3  v120
 BYTE   W18
 BYTE   Bn3  v127
 BYTE   W18
 BYTE   N60  Cs4  v124
 BYTE   W56
 BYTE   W03
 BYTE   TEMPO   140*CastlevaniaCircleoftheMoonAwakeRSflame_tbs/2
 BYTE   VOL   34*CastlevaniaCircleoftheMoonAwakeRSflame_mvl/mxv
 BYTE   PAN   c_v-4
 BYTE   MOD 0
 BYTE   CnM2
 BYTE   N01  EnM2  v124
 BYTE   W06
// 004   ----------------------------------------
 BYTE   N24  An3  v092
 BYTE   W12
 BYTE   N12  En3  v080
 BYTE   W12
 BYTE   An2  v076
 BYTE   W12
 BYTE   An3  v092
 BYTE   W12
 BYTE   En3  v072
 BYTE   W12
 BYTE   An2  v076
 BYTE   W12
 BYTE   An3  v088
 BYTE   W12
 BYTE   Ds3
 BYTE   W12
// 005   ----------------------------------------
 BYTE   An2  v072
 BYTE   W12
 BYTE   An3  v096
 BYTE   W12
 BYTE   Ds3
 BYTE   W12
 BYTE   An2  v084
 BYTE   W12
 BYTE   An3  v100
 BYTE   W12
 BYTE   Ds3  v088
 BYTE   W12
 BYTE   Cn3  v068
 BYTE   W12
 BYTE   An2  v088
 BYTE   W12
// 006   ----------------------------------------
 BYTE   An3  v100
 BYTE   W12
 BYTE   En3  v076
 BYTE   W12
 BYTE   An2
 BYTE   W12
 BYTE   An3  v084
 BYTE   W12
 BYTE   En3  v076
 BYTE   W12
 BYTE   An2  v072
 BYTE   W12
 BYTE   An3  v088
 BYTE   W12
 BYTE   En3  v080
 BYTE   W12
// 007   ----------------------------------------
 BYTE   Bn2  v076
 BYTE   W12
 BYTE   Gs3
 BYTE   W12
 BYTE   Dn3  v080
 BYTE   W12
 BYTE   Bn2  v088
 BYTE   W12
 BYTE   Gs3  v080
 BYTE   W12
 BYTE   Dn3  v088
 BYTE   W12
 BYTE   N17  Bn2
 BYTE   W12
 BYTE   N05  Gs2  v092
 BYTE   W06
 BYTE   MOD 0
 BYTE   CnM2
 BYTE   N96  CnM2  v092
 BYTE   W96
// 008   ----------------------------------------
 BYTE   W96
// 009   ----------------------------------------
 BYTE   W96
// 010   ----------------------------------------
 BYTE   W96
// 011   ----------------------------------------
 BYTE   W96
// 012   ----------------------------------------
 BYTE   W96
// 013   ----------------------------------------
 BYTE   W96
// 014   ----------------------------------------
 BYTE   VOL   49*CastlevaniaCircleoftheMoonAwakeRSflame_mvl/mxv
 BYTE   PAN   c_v+1
 BYTE   N12  En2  v092
 BYTE   W06
 BYTE   N06  Gs2  v052
 BYTE   W06
 BYTE   Bn2
 BYTE   W06
 BYTE   Dn3  v088
 BYTE   W06
 BYTE   N12  Gs2  v068
 BYTE   W06
 BYTE   N06  Bn2  v052
 BYTE   W06
 BYTE   Dn3
 BYTE   W06
 BYTE   En3  v080
 BYTE   W06
 BYTE   N12  Bn2  v072
 BYTE   W06
 BYTE   N06  Dn3  v052
 BYTE   W06
 BYTE   En3
 BYTE   W06
 BYTE   Gs3  v076
 BYTE   W06
 BYTE   N12  Dn3  v096
 BYTE   W06
 BYTE   N06  En3  v052
 BYTE   W06
 BYTE   Gs3
 BYTE   W06
 BYTE   Dn4  v068
 BYTE   W06
// 015   ----------------------------------------
 BYTE   N54  En4  v056
 BYTE   W96
// 016   ----------------------------------------
 BYTE   W96
// 017   ----------------------------------------
 BYTE   W96
// 018   ----------------------------------------
 BYTE   W96
// 019   ----------------------------------------
 BYTE   W96
// 020   ----------------------------------------
 BYTE   W96
// 021   ----------------------------------------
 BYTE   W96
// 022   ----------------------------------------
 BYTE   W96
// 023   ----------------------------------------
 BYTE   W96
// 024   ----------------------------------------
 BYTE   N12  En2  v088
 BYTE   W06
 BYTE   N06  Gs2  v076
 BYTE   W06
 BYTE   Bn2  v080
 BYTE   W06
 BYTE   Dn3  v104
 BYTE   W06
 BYTE   N12  Gs2  v068
 BYTE   W06
 BYTE   N06  Bn2  v076
 BYTE   W06
 BYTE   Dn3  v100
 BYTE   W06
 BYTE   En3  v096
 BYTE   W06
 BYTE   N12  Bn2  v068
 BYTE   W06
 BYTE   N06  Dn3  v096
 BYTE   W06
 BYTE   En3  v076
 BYTE   W06
 BYTE   Gs3  v092
 BYTE   W06
 BYTE   N12  Dn3  v096
 BYTE   W06
 BYTE   N06  En3  v100
 BYTE   W06
 BYTE   Gs3  v084
 BYTE   W06
 BYTE   Dn4
 BYTE   W96
// 025   ----------------------------------------
 BYTE   W96
// 026   ----------------------------------------
 BYTE   W96
// 027   ----------------------------------------
 BYTE   W96
// 028   ----------------------------------------
 BYTE   W96
// 029   ----------------------------------------
 BYTE   W96
// 030   ----------------------------------------
 BYTE   W96
// 031   ----------------------------------------
 BYTE   W96
// 032   ----------------------------------------
 BYTE   W96
// 033   ----------------------------------------
 BYTE   W06
 BYTE   N12  En2  v088
 BYTE   W06
 BYTE   N06  Gs2  v076
 BYTE   W06
 BYTE   Bn2  v080
 BYTE   W06
 BYTE   Dn3  v104
 BYTE   W06
 BYTE   N12  Gs2  v068
 BYTE   W06
 BYTE   N06  Bn2  v076
 BYTE   W06
 BYTE   Dn3  v100
 BYTE   W06
 BYTE   En3  v092
 BYTE   W06
 BYTE   N12  Bn2  v068
 BYTE   W06
 BYTE   N06  Dn3  v096
 BYTE   W06
 BYTE   En3  v076
 BYTE   W06
 BYTE   Gs3  v092
 BYTE   W06
 BYTE   N12  Dn3
 BYTE   W06
 BYTE   N06  En3  v100
 BYTE   W06
 BYTE   Gs3  v084
 BYTE   W06
// 034   ----------------------------------------
 BYTE   Dn4
 BYTE   W06
 BYTE   VOL   35*CastlevaniaCircleoftheMoonAwakeRSflame_mvl/mxv
 BYTE   PAN   c_v-14
 BYTE   N12  An3  v072
 BYTE   W18
 BYTE   N18  Gn3
 BYTE   W18
 BYTE   N23  An3
 BYTE   W24
 BYTE   N06  Fs3
 BYTE   W24
 BYTE   Fs3
 BYTE   W06
// 035   ----------------------------------------
 BYTE   Gn3
 BYTE   W06
 BYTE   N13  An3
 BYTE   W18
 BYTE   N18  Bn3
 BYTE   W18
 BYTE   N32  Cn4
 BYTE   W36
 BYTE   N07
 BYTE   W06
 BYTE   N01  An3
 BYTE   W06
 BYTE   N06  Bn3
 BYTE   W06
// 036   ----------------------------------------
 BYTE   Cn4
 BYTE   W06
 BYTE   N12  An3
 BYTE   W18
 BYTE   N18  Gn3
 BYTE   W18
 BYTE   N23  An3
 BYTE   W24
 BYTE   N06  Fs3
 BYTE   W24
 BYTE   Fs3
 BYTE   W06
// 037   ----------------------------------------
 BYTE   Gn3
 BYTE   W06
 BYTE   N17  An3
 BYTE   W18
 BYTE   N18  Bn3
 BYTE   W18
 BYTE   N23  Cs4
 BYTE   W24
 BYTE   N17  Cs4  v088
 BYTE   W18
 BYTE   N18  Gn3  v084
 BYTE   W18
// 038   ----------------------------------------
 BYTE   N12  En4  v080
 BYTE   W18
 BYTE   N18
 BYTE   W18
 BYTE   N23  Dn4  v076
 BYTE   W24
 BYTE   N06  An3  v080
 BYTE   W24
 BYTE   An3
 BYTE   W06
 BYTE   Bn3
 BYTE   W06
// 039   ----------------------------------------
 BYTE   N13  Cn4
 BYTE   W18
 BYTE   N18  Bn3  v072
 BYTE   W18
 BYTE   N32  Cn4
 BYTE   W36
 BYTE   N07
 BYTE   W06
 BYTE   N01  Dn4
 BYTE   W06
 BYTE   N06  Bn3
 BYTE   W06
 BYTE   Cn4
 BYTE   W06
// 040   ----------------------------------------
 BYTE   N12  Gn4  v064
 BYTE   W18
 BYTE   N18
 BYTE   W18
 BYTE   N23  Fs4  v060
 BYTE   W24
 BYTE   N06  Dn4  v080
 BYTE   W24
 BYTE   Dn4
 BYTE   W06
 BYTE   En4
 BYTE   W06
// 041   ----------------------------------------
 BYTE   N17  Fn4  v072
 BYTE   W18
 BYTE   N18  Gn4  v056
 BYTE   W18
 BYTE   N23  En4  v072
 BYTE   W24
 BYTE   N17  An3  v088
 BYTE   W12
 BYTE   GoTo
  POIN2 Label_0_01EA2A14
 BYTE   FINE

//**************** Track 2 (Midi-Chn.1) ****************//

CastlevaniaCircleoftheMoonAwakeRSflame_002:
// 000   ----------------------------------------
Label_1_01EA2C38:
 BYTE   TEMPO   100*CastlevaniaCircleoftheMoonAwakeRSflame_tbs/2
 BYTE   KEYSH   CastlevaniaCircleoftheMoonAwakeRSflame_key+0
 BYTE   VOICE   29
 BYTE   W96
// 001   ----------------------------------------
 BYTE   W96
// 002   ----------------------------------------
 BYTE   W96
// 003   ----------------------------------------
 BYTE   W96
// 004   ----------------------------------------
 BYTE   TEMPO   140*CastlevaniaCircleoftheMoonAwakeRSflame_tbs/2
 BYTE   VOL   44*CastlevaniaCircleoftheMoonAwakeRSflame_mvl/mxv
 BYTE   PAN   c_v+0
 BYTE   BEND   c_v+0
 BYTE   N96  En2  v092
 BYTE   W96
// 005   ----------------------------------------
 BYTE   Ds2
 BYTE   W96
// 006   ----------------------------------------
 BYTE   An2  v088
 BYTE   W96
// 007   ----------------------------------------
 BYTE   N48  En2  v092
 BYTE   W48
 BYTE   N24  Dn4  v076
 BYTE   W24
 BYTE   BEND   c_v+0
 BYTE   N24  En4  v076
 BYTE   W01
 BYTE   BEND   c_v+0
 BYTE   W02
 BYTE   BEND   c_v+0
 BYTE   W01
 BYTE   BEND   c_v+0
 BYTE   W02
 BYTE   BEND   c_v-7
 BYTE   W01
 BYTE   BEND   c_v-14
 BYTE   W02
 BYTE   BEND   c_v-20
 BYTE   W01
 BYTE   BEND   c_v-26
 BYTE   W02
 BYTE   BEND   c_v-33
 BYTE   W01
 BYTE   BEND   c_v-37
 BYTE   W02
 BYTE   BEND   c_v-41
 BYTE   W01
 BYTE   BEND   c_v-45
 BYTE   W02
 BYTE   BEND   c_v-48
 BYTE   W01
 BYTE   BEND   c_v-52
 BYTE   W02
 BYTE   BEND   c_v-56
 BYTE   W01
 BYTE   BEND   c_v+0
 BYTE   W02
// 008   ----------------------------------------
 BYTE   VOL   32*CastlevaniaCircleoftheMoonAwakeRSflame_mvl/mxv
 BYTE   PAN   c_v+20
 BYTE   N72  An3  v088
 BYTE   W72
 BYTE   N24  Gn3
 BYTE   W24
// 009   ----------------------------------------
 BYTE   BEND   c_v+0
 BYTE   N72  Fs3  v104
 BYTE   W72
 BYTE   N24  Dn3  v088
 BYTE   W24
// 010   ----------------------------------------
Label_1_01EA2CA3:
 BYTE   N48  Fn3  v104
 BYTE   W48
 BYTE   N96  Gn3  v064
 BYTE   W96
// 011   ----------------------------------------
 BYTE   W48
 BYTE   PEND 
Label_1_01EA2CAD:
 BYTE   N72  An3  v088
 BYTE   W72
// 012   ----------------------------------------
 BYTE   N24  Gn3
 BYTE   W24
 BYTE   PEND 
Label_1_01EA2CB5:
 BYTE   N72  Fs3  v104
 BYTE   W72
// 013   ----------------------------------------
 BYTE   N24  Dn3  v088
 BYTE   W24
 BYTE   PEND 
 BYTE   N48  Fs3  v092
 BYTE   W48
 BYTE   An3  v104
 BYTE   W48
// 014   ----------------------------------------
 BYTE   N96  En3
 BYTE   W96
// 015   ----------------------------------------
 BYTE   PATT
  POIN2 Label_1_01EA2CAD
// 016   ----------------------------------------
 BYTE   PATT
  POIN2 Label_1_01EA2CB5
// 017   ----------------------------------------
 BYTE   PATT
  POIN2 Label_1_01EA2CA3
// 018   ----------------------------------------
 BYTE   PATT
  POIN2 Label_1_01EA2CAD
// 019   ----------------------------------------
 BYTE   PATT
  POIN2 Label_1_01EA2CB5
// 020   ----------------------------------------
 BYTE   N96  Fs3  v100
 BYTE   W96
// 021   ----------------------------------------
 BYTE   N48  Gs3
 BYTE   W48
 BYTE   An3
 BYTE   W48
// 022   ----------------------------------------
 BYTE   N96  Gs3
 BYTE   W96
// 023   ----------------------------------------
 BYTE   N90
 BYTE   W96
// 024   ----------------------------------------
 BYTE   VOL   50*CastlevaniaCircleoftheMoonAwakeRSflame_mvl/mxv
 BYTE   N96  Dn3  v076
 BYTE   W24
 BYTE   VOL   46*CastlevaniaCircleoftheMoonAwakeRSflame_mvl/mxv
 BYTE   W24
 BYTE   VOL   44*CastlevaniaCircleoftheMoonAwakeRSflame_mvl/mxv
 BYTE   W03
 BYTE   VOL   43*CastlevaniaCircleoftheMoonAwakeRSflame_mvl/mxv
 BYTE   W03
 BYTE   VOL   43*CastlevaniaCircleoftheMoonAwakeRSflame_mvl/mxv
 BYTE   W03
 BYTE   VOL   43*CastlevaniaCircleoftheMoonAwakeRSflame_mvl/mxv
 BYTE   W03
 BYTE   VOL   43*CastlevaniaCircleoftheMoonAwakeRSflame_mvl/mxv
 BYTE   W03
 BYTE   VOL   42*CastlevaniaCircleoftheMoonAwakeRSflame_mvl/mxv
 BYTE   W03
 BYTE   VOL   42*CastlevaniaCircleoftheMoonAwakeRSflame_mvl/mxv
 BYTE   W03
 BYTE   VOL   42*CastlevaniaCircleoftheMoonAwakeRSflame_mvl/mxv
 BYTE   W03
 BYTE   VOL   42*CastlevaniaCircleoftheMoonAwakeRSflame_mvl/mxv
 BYTE   W03
 BYTE   VOL   41*CastlevaniaCircleoftheMoonAwakeRSflame_mvl/mxv
 BYTE   W03
 BYTE   VOL   41*CastlevaniaCircleoftheMoonAwakeRSflame_mvl/mxv
 BYTE   W03
 BYTE   VOL   41*CastlevaniaCircleoftheMoonAwakeRSflame_mvl/mxv
 BYTE   W03
 BYTE   VOL   39*CastlevaniaCircleoftheMoonAwakeRSflame_mvl/mxv
 BYTE   W03
 BYTE   VOL   39*CastlevaniaCircleoftheMoonAwakeRSflame_mvl/mxv
 BYTE   W03
 BYTE   VOL   39*CastlevaniaCircleoftheMoonAwakeRSflame_mvl/mxv
 BYTE   W03
 BYTE   VOL   39*CastlevaniaCircleoftheMoonAwakeRSflame_mvl/mxv
 BYTE   W03
// 025   ----------------------------------------
 BYTE   VOL   50*CastlevaniaCircleoftheMoonAwakeRSflame_mvl/mxv
 BYTE   N96  En3  v076
 BYTE   W24
 BYTE   VOL   46*CastlevaniaCircleoftheMoonAwakeRSflame_mvl/mxv
 BYTE   W24
 BYTE   VOL   44*CastlevaniaCircleoftheMoonAwakeRSflame_mvl/mxv
 BYTE   W03
 BYTE   VOL   43*CastlevaniaCircleoftheMoonAwakeRSflame_mvl/mxv
 BYTE   W03
 BYTE   VOL   43*CastlevaniaCircleoftheMoonAwakeRSflame_mvl/mxv
 BYTE   W03
 BYTE   VOL   43*CastlevaniaCircleoftheMoonAwakeRSflame_mvl/mxv
 BYTE   W03
 BYTE   VOL   43*CastlevaniaCircleoftheMoonAwakeRSflame_mvl/mxv
 BYTE   W03
 BYTE   VOL   42*CastlevaniaCircleoftheMoonAwakeRSflame_mvl/mxv
 BYTE   W03
 BYTE   VOL   42*CastlevaniaCircleoftheMoonAwakeRSflame_mvl/mxv
 BYTE   W03
 BYTE   VOL   42*CastlevaniaCircleoftheMoonAwakeRSflame_mvl/mxv
 BYTE   W03
 BYTE   VOL   42*CastlevaniaCircleoftheMoonAwakeRSflame_mvl/mxv
 BYTE   W03
 BYTE   VOL   41*CastlevaniaCircleoftheMoonAwakeRSflame_mvl/mxv
 BYTE   W03
 BYTE   VOL   41*CastlevaniaCircleoftheMoonAwakeRSflame_mvl/mxv
 BYTE   W03
 BYTE   VOL   41*CastlevaniaCircleoftheMoonAwakeRSflame_mvl/mxv
 BYTE   W03
 BYTE   VOL   39*CastlevaniaCircleoftheMoonAwakeRSflame_mvl/mxv
 BYTE   W03
 BYTE   VOL   39*CastlevaniaCircleoftheMoonAwakeRSflame_mvl/mxv
 BYTE   W03
 BYTE   VOL   39*CastlevaniaCircleoftheMoonAwakeRSflame_mvl/mxv
 BYTE   W03
 BYTE   VOL   39*CastlevaniaCircleoftheMoonAwakeRSflame_mvl/mxv
 BYTE   W03
// 026   ----------------------------------------
 BYTE   VOL   50*CastlevaniaCircleoftheMoonAwakeRSflame_mvl/mxv
 BYTE   N48  An2  v072
 BYTE   W24
 BYTE   VOL   46*CastlevaniaCircleoftheMoonAwakeRSflame_mvl/mxv
 BYTE   W24
 BYTE   VOL   44*CastlevaniaCircleoftheMoonAwakeRSflame_mvl/mxv
 BYTE   N48  Gs2  v072
 BYTE   W03
 BYTE   VOL   43*CastlevaniaCircleoftheMoonAwakeRSflame_mvl/mxv
 BYTE   W03
 BYTE   VOL   43*CastlevaniaCircleoftheMoonAwakeRSflame_mvl/mxv
 BYTE   W03
 BYTE   VOL   43*CastlevaniaCircleoftheMoonAwakeRSflame_mvl/mxv
 BYTE   W03
 BYTE   VOL   43*CastlevaniaCircleoftheMoonAwakeRSflame_mvl/mxv
 BYTE   W03
 BYTE   VOL   42*CastlevaniaCircleoftheMoonAwakeRSflame_mvl/mxv
 BYTE   W03
 BYTE   VOL   42*CastlevaniaCircleoftheMoonAwakeRSflame_mvl/mxv
 BYTE   W03
 BYTE   VOL   42*CastlevaniaCircleoftheMoonAwakeRSflame_mvl/mxv
 BYTE   W03
 BYTE   VOL   42*CastlevaniaCircleoftheMoonAwakeRSflame_mvl/mxv
 BYTE   W03
 BYTE   VOL   41*CastlevaniaCircleoftheMoonAwakeRSflame_mvl/mxv
 BYTE   W03
 BYTE   VOL   41*CastlevaniaCircleoftheMoonAwakeRSflame_mvl/mxv
 BYTE   W03
 BYTE   VOL   41*CastlevaniaCircleoftheMoonAwakeRSflame_mvl/mxv
 BYTE   W03
 BYTE   VOL   39*CastlevaniaCircleoftheMoonAwakeRSflame_mvl/mxv
 BYTE   W03
 BYTE   VOL   39*CastlevaniaCircleoftheMoonAwakeRSflame_mvl/mxv
 BYTE   W03
 BYTE   VOL   39*CastlevaniaCircleoftheMoonAwakeRSflame_mvl/mxv
 BYTE   W03
 BYTE   VOL   39*CastlevaniaCircleoftheMoonAwakeRSflame_mvl/mxv
 BYTE   W03
// 027   ----------------------------------------
 BYTE   VOL   50*CastlevaniaCircleoftheMoonAwakeRSflame_mvl/mxv
 BYTE   N48  Gn2  v064
 BYTE   W24
 BYTE   VOL   46*CastlevaniaCircleoftheMoonAwakeRSflame_mvl/mxv
 BYTE   W24
 BYTE   VOL   50*CastlevaniaCircleoftheMoonAwakeRSflame_mvl/mxv
 BYTE   N48  En2  v072
 BYTE   W24
 BYTE   VOL   46*CastlevaniaCircleoftheMoonAwakeRSflame_mvl/mxv
 BYTE   W24
// 028   ----------------------------------------
 BYTE   VOL   50*CastlevaniaCircleoftheMoonAwakeRSflame_mvl/mxv
 BYTE   N96  Fn3  v076
 BYTE   W24
 BYTE   VOL   46*CastlevaniaCircleoftheMoonAwakeRSflame_mvl/mxv
 BYTE   W24
 BYTE   VOL   44*CastlevaniaCircleoftheMoonAwakeRSflame_mvl/mxv
 BYTE   W03
 BYTE   VOL   43*CastlevaniaCircleoftheMoonAwakeRSflame_mvl/mxv
 BYTE   W03
 BYTE   VOL   43*CastlevaniaCircleoftheMoonAwakeRSflame_mvl/mxv
 BYTE   W03
 BYTE   VOL   43*CastlevaniaCircleoftheMoonAwakeRSflame_mvl/mxv
 BYTE   W03
 BYTE   VOL   43*CastlevaniaCircleoftheMoonAwakeRSflame_mvl/mxv
 BYTE   W03
 BYTE   VOL   42*CastlevaniaCircleoftheMoonAwakeRSflame_mvl/mxv
 BYTE   W03
 BYTE   VOL   42*CastlevaniaCircleoftheMoonAwakeRSflame_mvl/mxv
 BYTE   W03
 BYTE   VOL   42*CastlevaniaCircleoftheMoonAwakeRSflame_mvl/mxv
 BYTE   W03
 BYTE   VOL   42*CastlevaniaCircleoftheMoonAwakeRSflame_mvl/mxv
 BYTE   W03
 BYTE   VOL   41*CastlevaniaCircleoftheMoonAwakeRSflame_mvl/mxv
 BYTE   W03
 BYTE   VOL   41*CastlevaniaCircleoftheMoonAwakeRSflame_mvl/mxv
 BYTE   W03
 BYTE   VOL   41*CastlevaniaCircleoftheMoonAwakeRSflame_mvl/mxv
 BYTE   W03
 BYTE   VOL   39*CastlevaniaCircleoftheMoonAwakeRSflame_mvl/mxv
 BYTE   W03
 BYTE   VOL   39*CastlevaniaCircleoftheMoonAwakeRSflame_mvl/mxv
 BYTE   W03
 BYTE   VOL   39*CastlevaniaCircleoftheMoonAwakeRSflame_mvl/mxv
 BYTE   W03
 BYTE   VOL   39*CastlevaniaCircleoftheMoonAwakeRSflame_mvl/mxv
 BYTE   W03
// 029   ----------------------------------------
 BYTE   VOL   50*CastlevaniaCircleoftheMoonAwakeRSflame_mvl/mxv
 BYTE   N48  En3  v072
 BYTE   W24
 BYTE   VOL   46*CastlevaniaCircleoftheMoonAwakeRSflame_mvl/mxv
 BYTE   W24
 BYTE   VOL   50*CastlevaniaCircleoftheMoonAwakeRSflame_mvl/mxv
 BYTE   N48  Bn2  v072
 BYTE   W24
 BYTE   VOL   46*CastlevaniaCircleoftheMoonAwakeRSflame_mvl/mxv
 BYTE   W24
// 030   ----------------------------------------
 BYTE   VOL   50*CastlevaniaCircleoftheMoonAwakeRSflame_mvl/mxv
 BYTE   N48  An2  v072
 BYTE   W24
 BYTE   VOL   46*CastlevaniaCircleoftheMoonAwakeRSflame_mvl/mxv
 BYTE   W24
 BYTE   VOL   50*CastlevaniaCircleoftheMoonAwakeRSflame_mvl/mxv
 BYTE   N48  Gn2  v060
 BYTE   W24
 BYTE   VOL   46*CastlevaniaCircleoftheMoonAwakeRSflame_mvl/mxv
 BYTE   W24
// 031   ----------------------------------------
 BYTE   VOL   50*CastlevaniaCircleoftheMoonAwakeRSflame_mvl/mxv
 BYTE   N48  Cn3  v072
 BYTE   W24
 BYTE   VOL   46*CastlevaniaCircleoftheMoonAwakeRSflame_mvl/mxv
 BYTE   W24
 BYTE   VOL   50*CastlevaniaCircleoftheMoonAwakeRSflame_mvl/mxv
 BYTE   N48  Bn2  v072
 BYTE   W24
 BYTE   VOL   46*CastlevaniaCircleoftheMoonAwakeRSflame_mvl/mxv
 BYTE   W24
// 032   ----------------------------------------
 BYTE   VOL   50*CastlevaniaCircleoftheMoonAwakeRSflame_mvl/mxv
 BYTE   N96  En3  v072
 BYTE   W24
 BYTE   VOL   46*CastlevaniaCircleoftheMoonAwakeRSflame_mvl/mxv
 BYTE   W72
// 033   ----------------------------------------
 BYTE   N18  En2  v064
 BYTE   W24
 BYTE   N24
 BYTE   W24
 BYTE   Gs2  v076
 BYTE   W24
 BYTE   N96
 BYTE   W96
// 034   ----------------------------------------
 BYTE   W96
// 035   ----------------------------------------
 BYTE   W96
// 036   ----------------------------------------
 BYTE   W60
 BYTE   N42  Cs6  v024
 BYTE   W96
// 037   ----------------------------------------
 BYTE   W96
// 038   ----------------------------------------
 BYTE   W96
// 039   ----------------------------------------
 BYTE   W96
// 040   ----------------------------------------
 BYTE   Cs6
 BYTE   W36
 BYTE   GoTo
  POIN2 Label_1_01EA2C38
 BYTE   FINE

//**************** Track 3 (Midi-Chn.2) ****************//

CastlevaniaCircleoftheMoonAwakeRSflame_003:
// 000   ----------------------------------------
Label_2_01EA35EC:
 BYTE   TEMPO   100*CastlevaniaCircleoftheMoonAwakeRSflame_tbs/2
 BYTE   KEYSH   CastlevaniaCircleoftheMoonAwakeRSflame_key+0
 BYTE   VOICE   42
 BYTE   VOL   37*CastlevaniaCircleoftheMoonAwakeRSflame_mvl/mxv
 BYTE   PAN   c_v-6
 BYTE   MOD 0
 BYTE   CnM2
 BYTE   W06
 BYTE   N12  En4  v088
 BYTE   W12
 BYTE   N06  Dn4
 BYTE   W06
 BYTE   N12  Cn4
 BYTE   W12
 BYTE   N06  En4
 BYTE   W06
 BYTE   N24  Dn4
 BYTE   W24
 BYTE   An3  v024
 BYTE   W24
 BYTE   N06  An3  v088
 BYTE   W06
// 001   ----------------------------------------
 BYTE   Bn3
 BYTE   W06
 BYTE   Cn4
 BYTE   W06
 BYTE   Bn3
 BYTE   W06
 BYTE   An3
 BYTE   W06
 BYTE   N12  Bn3
 BYTE   W12
 BYTE   N06  Gn3  v080
 BYTE   W06
 BYTE   N36  An3  v088
 BYTE   W60
// 002   ----------------------------------------
 BYTE   N12  En4  v080
 BYTE   W12
 BYTE   N06  Dn4
 BYTE   W06
 BYTE   N12  Cn4
 BYTE   W12
 BYTE   N06  En4
 BYTE   W06
 BYTE   N24  Dn4
 BYTE   W24
 BYTE   An3  v040
 BYTE   W24
 BYTE   N06  An3  v080
 BYTE   W06
 BYTE   Bn3
 BYTE   W06
// 003   ----------------------------------------
 BYTE   Cn4
 BYTE   W06
 BYTE   Bn3
 BYTE   W06
 BYTE   An3
 BYTE   W06
 BYTE   N12  Bn3
 BYTE   W12
 BYTE   N06  Gn3  v072
 BYTE   W06
 BYTE   N60  An3  v080
 BYTE   W54
 BYTE   TEMPO   140*CastlevaniaCircleoftheMoonAwakeRSflame_tbs/2
 BYTE   W96
// 004   ----------------------------------------
 BYTE   W96
// 005   ----------------------------------------
 BYTE   W96
// 006   ----------------------------------------
 BYTE   W96
// 007   ----------------------------------------
 BYTE   VOL   35*CastlevaniaCircleoftheMoonAwakeRSflame_mvl/mxv
 BYTE   PAN   c_v+4
 BYTE   MOD 0
 BYTE   CnM2
 BYTE   N72  DsM2  v080
 BYTE   N72  Cn3  v092
 BYTE   W72
 BYTE   N24  En3  v088
 BYTE   W24
// 008   ----------------------------------------
Label_2_01EA3664:
 BYTE   N68  Dn3  v096
 BYTE   W72
 BYTE   N12  An2  v092
 BYTE   W12
 BYTE   N06  Fs2  v096
 BYTE   W06
 BYTE   Gn2
 BYTE   W06
 BYTE   PEND 
// 009   ----------------------------------------
Label_2_01EA3673:
 BYTE   N18  An2  v088
 BYTE   W18
 BYTE   Bn2  v080
 BYTE   W18
 BYTE   N12  Cn3  v076
 BYTE   W12
 BYTE   N18  Bn2  v084
 BYTE   W18
 BYTE   An2  v092
 BYTE   W18
 BYTE   N12  Gn2  v096
 BYTE   W12
 BYTE   PEND 
// 010   ----------------------------------------
Label_2_01EA368A:
 BYTE   N23  En2  v116
 BYTE   W24
 BYTE   N24  Cn3  v104
 BYTE   W24
 BYTE   Fs2  v100
 BYTE   W24
 BYTE   Dn3  v104
 BYTE   W24
 BYTE   PEND 
// 011   ----------------------------------------
Label_2_01EA3699:
 BYTE   N72  Cn3  v084
 BYTE   W72
 BYTE   N24  En3  v080
 BYTE   W24
 BYTE   PEND 
// 012   ----------------------------------------
Label_2_01EA36A2:
 BYTE   N44  Dn3  v080
 BYTE   W48
 BYTE   N24  An2  v096
 BYTE   W24
 BYTE   N12  Fs2  v088
 BYTE   W12
 BYTE   N06
 BYTE   W06
 BYTE   Gn2
 BYTE   W06
 BYTE   PEND 
// 013   ----------------------------------------
 BYTE   N72  Cn3  v084
 BYTE   W72
 BYTE   N24  Fs2  v104
 BYTE   W24
// 014   ----------------------------------------
 BYTE   Gs2  v084
 BYTE   W24
 BYTE   Bn2  v092
 BYTE   W24
 BYTE   Dn3  v096
 BYTE   W24
 BYTE   Gs3  v084
 BYTE   W24
// 015   ----------------------------------------
 BYTE   N72  Cn3  v092
 BYTE   W72
 BYTE   N24  En3  v088
 BYTE   W24
// 016   ----------------------------------------
 BYTE   PATT
  POIN2 Label_2_01EA3664
// 017   ----------------------------------------
 BYTE   PATT
  POIN2 Label_2_01EA3673
// 018   ----------------------------------------
 BYTE   PATT
  POIN2 Label_2_01EA368A
// 019   ----------------------------------------
 BYTE   PATT
  POIN2 Label_2_01EA3699
// 020   ----------------------------------------
 BYTE   PATT
  POIN2 Label_2_01EA36A2
// 021   ----------------------------------------
 BYTE   N72  Cn3  v112
 BYTE   W72
 BYTE   N24  Fs2  v120
 BYTE   W24
// 022   ----------------------------------------
 BYTE   Gs2
 BYTE   W24
 BYTE   Bn2  v112
 BYTE   W24
 BYTE   Dn3  v108
 BYTE   W24
 BYTE   Fn3  v100
 BYTE   W24
// 023   ----------------------------------------
 BYTE   N96  En3
 BYTE   W96
// 024   ----------------------------------------
 BYTE   N24  Bn2  v120
 BYTE   W24
 BYTE   Dn3
 BYTE   W24
 BYTE   En3
 BYTE   W24
 BYTE   Gs3  v100
 BYTE   W24
// 025   ----------------------------------------
 BYTE   N36  Dn3  v072
 BYTE   W36
 BYTE   N06
 BYTE   W06
 BYTE   En3
 BYTE   W06
 BYTE   N18  Fn3
 BYTE   W18
 BYTE   En3
 BYTE   W18
 BYTE   N12  Dn3
 BYTE   W12
// 026   ----------------------------------------
 BYTE   N36  En3
 BYTE   W36
 BYTE   N06
 BYTE   W06
 BYTE   Fn3
 BYTE   W06
 BYTE   N18  Gs3
 BYTE   W18
 BYTE   Fn3
 BYTE   W18
 BYTE   N12  En3
 BYTE   W12
// 027   ----------------------------------------
 BYTE   N30  En3  v052
 BYTE   W36
 BYTE   N06  Dn3
 BYTE   W06
 BYTE   En3
 BYTE   W06
 BYTE   N36  Fn3
 BYTE   W36
 BYTE   N06  En3
 BYTE   W06
 BYTE   Fn3
 BYTE   W06
// 028   ----------------------------------------
 BYTE   N24  Gn3  v072
 BYTE   W24
 BYTE   En3
 BYTE   W24
 BYTE   N18  As3
 BYTE   W18
 BYTE   An3
 BYTE   W18
 BYTE   N12  Gn3
 BYTE   W12
// 029   ----------------------------------------
 BYTE   N36  Cn3
 BYTE   W36
 BYTE   N06  Dn3
 BYTE   W06
 BYTE   En3
 BYTE   W06
 BYTE   N18  Fn3
 BYTE   W18
 BYTE   En3
 BYTE   W18
 BYTE   N12  Dn3
 BYTE   W12
// 030   ----------------------------------------
 BYTE   N36  Gs2
 BYTE   W36
 BYTE   N06  Bn2
 BYTE   W06
 BYTE   Cn3
 BYTE   W06
 BYTE   N18  Dn3
 BYTE   W18
 BYTE   Cn3
 BYTE   W18
 BYTE   N12  Bn2
 BYTE   W12
// 031   ----------------------------------------
 BYTE   N18  An3  v088
 BYTE   W18
 BYTE   N06  Gs3
 BYTE   W18
 BYTE   N12  An3  v080
 BYTE   W12
 BYTE   N18  Bn3
 BYTE   W18
 BYTE   N06  An3
 BYTE   W18
 BYTE   N12  Bn3  v076
 BYTE   W12
// 032   ----------------------------------------
 BYTE   N18  Cn4  v084
 BYTE   W18
 BYTE   N06  Bn3
 BYTE   W18
 BYTE   N12  Cn4
 BYTE   W12
 BYTE   N18  Ds4  v080
 BYTE   W18
 BYTE   N06  Bn3  v084
 BYTE   W18
 BYTE   N12  Ds4  v080
 BYTE   W12
// 033   ----------------------------------------
 BYTE   N96  En4  v084
 BYTE   W96
// 034   ----------------------------------------
 BYTE   W96
// 035   ----------------------------------------
 BYTE   VOL   37*CastlevaniaCircleoftheMoonAwakeRSflame_mvl/mxv
 BYTE   PAN   c_v+14
 BYTE   N12  Gn3  v056
 BYTE   W18
 BYTE   N18
 BYTE   W18
 BYTE   N23  Fs3  v052
 BYTE   W24
 BYTE   N06  Dn3  v068
 BYTE   W24
 BYTE   Dn3
 BYTE   W06
 BYTE   En3
 BYTE   W06
// 036   ----------------------------------------
 BYTE   N13  Fn3
 BYTE   W18
 BYTE   N18  Gn3  v056
 BYTE   W18
 BYTE   N32  En3  v068
 BYTE   W60
// 037   ----------------------------------------
 BYTE   N12  Gn3  v056
 BYTE   W18
 BYTE   N18
 BYTE   W18
 BYTE   N23  Fs3  v052
 BYTE   W24
 BYTE   N06  Dn3  v068
 BYTE   W24
 BYTE   Dn3
 BYTE   W06
 BYTE   En3
 BYTE   W06
// 038   ----------------------------------------
 BYTE   N17  Fn3
 BYTE   W18
 BYTE   N18  Gn3  v056
 BYTE   W18
 BYTE   N23  En3  v068
 BYTE   W24
 BYTE   N17  En3  v072
 BYTE   W18
 BYTE   N18  Dn3  v076
 BYTE   W18
// 039   ----------------------------------------
Label_2_01EA37DD:
 BYTE   N12  An3  v060
 BYTE   W18
 BYTE   N18  Gn3
 BYTE   W18
 BYTE   N23  An3
 BYTE   W24
 BYTE   N06  Fs3
 BYTE   W24
 BYTE   Fs3
 BYTE   W06
 BYTE   Gn3
 BYTE   W06
 BYTE   PEND 
// 040   ----------------------------------------
 BYTE   N13  An3  v060
 BYTE   W18
 BYTE   N18  Gn3  v064
 BYTE   W18
 BYTE   N32  An3  v068
 BYTE   W60
// 041   ----------------------------------------
 BYTE   PATT
  POIN2 Label_2_01EA37DD
// 042   ----------------------------------------
 BYTE   N17  An3  v052
 BYTE   W18
 BYTE   N18  Gn3
 BYTE   W18
 BYTE   N23  Cs4
 BYTE   W24
 BYTE   N17  Dn3  v076
 BYTE   W12
 BYTE   GoTo
  POIN2 Label_2_01EA35EC
 BYTE   FINE

//**************** Track 4 (Midi-Chn.3) ****************//

CastlevaniaCircleoftheMoonAwakeRSflame_004:
// 000   ----------------------------------------
Label_3_01EA47D8:
 BYTE   TEMPO   100*CastlevaniaCircleoftheMoonAwakeRSflame_tbs/2
 BYTE   KEYSH   CastlevaniaCircleoftheMoonAwakeRSflame_key+0
 BYTE   VOICE   6
 BYTE   VOL   58*CastlevaniaCircleoftheMoonAwakeRSflame_mvl/mxv
 BYTE   PAN   c_v-20
 BYTE   MOD 0
 BYTE   CnM2
 BYTE   N18  An2  v092
 BYTE   W02
 BYTE   N16  En3  v072
 BYTE   W16
 BYTE   N02  Gn2  v092
 BYTE   W02
 BYTE   N16  En3  v060
 BYTE   W16
 BYTE   N60  Fs2  v092
 BYTE   W02
 BYTE   N56  Dn3  v072
 BYTE   W56
 BYTE   W02
// 001   ----------------------------------------
 BYTE   N18  Fn2  v092
 BYTE   W02
 BYTE   N16  Cn3  v064
 BYTE   W16
 BYTE   N02  Gn2  v092
 BYTE   W02
 BYTE   N16  Dn3  v068
 BYTE   W16
 BYTE   N24  An2  v092
 BYTE   W02
 BYTE   N22  En3  v068
 BYTE   W22
 BYTE   N07  Gn2
 BYTE   W06
 BYTE   N01  Fs2
 BYTE   W06
 BYTE   N06  En2
 BYTE   W06
 BYTE   N04
 BYTE   W03
 BYTE   N01  Fs2
 BYTE   W03
 BYTE   N07  Dn2
 BYTE   W06
 BYTE   N06  En2
 BYTE   W06
// 002   ----------------------------------------
 BYTE   N18  An2  v092
 BYTE   W02
 BYTE   N16  En3  v072
 BYTE   W16
 BYTE   N02  Gn2  v092
 BYTE   W02
 BYTE   N16  En3  v060
 BYTE   W16
 BYTE   N60  Fs2  v092
 BYTE   W02
 BYTE   N56  Dn3  v072
 BYTE   W56
 BYTE   W02
// 003   ----------------------------------------
 BYTE   N18  Fn2  v084
 BYTE   W02
 BYTE   N16  Cn3  v064
 BYTE   W16
 BYTE   N02  Gn2  v080
 BYTE   W02
 BYTE   N16  Dn3  v068
 BYTE   W16
 BYTE   N68  An2  v080
 BYTE   W02
 BYTE   N56  En3  v068
 BYTE   W56
 BYTE   W02
// 004   ----------------------------------------
 BYTE   TEMPO   140*CastlevaniaCircleoftheMoonAwakeRSflame_tbs/2
 BYTE   PAN   c_v+4
 BYTE   N20  An3  v076
 BYTE   W12
 BYTE   En3  v080
 BYTE   W12
 BYTE   N08  An2  v068
 BYTE   W12
 BYTE   N12  An3  v076
 BYTE   W12
 BYTE   En3  v072
 BYTE   W12
 BYTE   An2  v068
 BYTE   W12
 BYTE   An3  v076
 BYTE   W12
 BYTE   Ds3  v072
 BYTE   W12
// 005   ----------------------------------------
 BYTE   An2  v068
 BYTE   W12
 BYTE   An3  v076
 BYTE   W12
 BYTE   Ds3  v072
 BYTE   W12
 BYTE   An2  v068
 BYTE   W12
 BYTE   An3  v076
 BYTE   W12
 BYTE   Ds3  v072
 BYTE   W12
 BYTE   Cn3  v064
 BYTE   W12
 BYTE   An2  v068
 BYTE   W12
// 006   ----------------------------------------
 BYTE   An3  v076
 BYTE   W12
 BYTE   En3
 BYTE   W12
 BYTE   An2  v068
 BYTE   W12
 BYTE   An3  v076
 BYTE   W12
 BYTE   En3
 BYTE   W12
 BYTE   An2  v068
 BYTE   W12
 BYTE   An3  v076
 BYTE   W12
 BYTE   En3
 BYTE   W12
// 007   ----------------------------------------
 BYTE   Bn2  v104
 BYTE   W12
 BYTE   Gs3  v064
 BYTE   W12
 BYTE   Dn3
 BYTE   W12
 BYTE   Bn2  v104
 BYTE   W12
 BYTE   Gs3  v072
 BYTE   W12
 BYTE   Dn3  v064
 BYTE   W12
 BYTE   Bn2  v088
 BYTE   W12
 BYTE   N96  Gs2  v104
 BYTE   W96
// 008   ----------------------------------------
 BYTE   W96
// 009   ----------------------------------------
 BYTE   W96
// 010   ----------------------------------------
 BYTE   W96
// 011   ----------------------------------------
 BYTE   W96
// 012   ----------------------------------------
 BYTE   W96
// 013   ----------------------------------------
 BYTE   W96
// 014   ----------------------------------------
 BYTE   W96
// 015   ----------------------------------------
 BYTE   W96
// 016   ----------------------------------------
 BYTE   W96
// 017   ----------------------------------------
 BYTE   W96
// 018   ----------------------------------------
 BYTE   W96
// 019   ----------------------------------------
 BYTE   W96
// 020   ----------------------------------------
 BYTE   W96
// 021   ----------------------------------------
 BYTE   W96
// 022   ----------------------------------------
 BYTE   W96
// 023   ----------------------------------------
 BYTE   W96
// 024   ----------------------------------------
 BYTE   W96
// 025   ----------------------------------------
 BYTE   W12
 BYTE   VOL   50*CastlevaniaCircleoftheMoonAwakeRSflame_mvl/mxv
 BYTE   PAN   c_v+0
 BYTE   N18  Fn4  v092
 BYTE   W12
 BYTE   VOL   39*CastlevaniaCircleoftheMoonAwakeRSflame_mvl/mxv
 BYTE   W06
 BYTE   VOL   50*CastlevaniaCircleoftheMoonAwakeRSflame_mvl/mxv
 BYTE   N18  En4  v084
 BYTE   W12
 BYTE   VOL   39*CastlevaniaCircleoftheMoonAwakeRSflame_mvl/mxv
 BYTE   W06
 BYTE   VOL   50*CastlevaniaCircleoftheMoonAwakeRSflame_mvl/mxv
 BYTE   N12  Dn4  v096
 BYTE   W06
 BYTE   VOL   33*CastlevaniaCircleoftheMoonAwakeRSflame_mvl/mxv
 BYTE   W06
 BYTE   VOL   50*CastlevaniaCircleoftheMoonAwakeRSflame_mvl/mxv
 BYTE   N48  An3  v096
 BYTE   W03
 BYTE   VOL   49*CastlevaniaCircleoftheMoonAwakeRSflame_mvl/mxv
 BYTE   W03
 BYTE   VOL   49*CastlevaniaCircleoftheMoonAwakeRSflame_mvl/mxv
 BYTE   W03
 BYTE   VOL   49*CastlevaniaCircleoftheMoonAwakeRSflame_mvl/mxv
 BYTE   W03
 BYTE   VOL   49*CastlevaniaCircleoftheMoonAwakeRSflame_mvl/mxv
 BYTE   W03
 BYTE   VOL   49*CastlevaniaCircleoftheMoonAwakeRSflame_mvl/mxv
 BYTE   W03
 BYTE   VOL   49*CastlevaniaCircleoftheMoonAwakeRSflame_mvl/mxv
 BYTE   W03
 BYTE   VOL   48*CastlevaniaCircleoftheMoonAwakeRSflame_mvl/mxv
 BYTE   W03
 BYTE   VOL   47*CastlevaniaCircleoftheMoonAwakeRSflame_mvl/mxv
 BYTE   MOD 0
 BYTE   CnM2
 BYTE   N03  DsM2  v096
 BYTE   W03
 BYTE   VOL   45*CastlevaniaCircleoftheMoonAwakeRSflame_mvl/mxv
 BYTE   W03
 BYTE   VOL   43*CastlevaniaCircleoftheMoonAwakeRSflame_mvl/mxv
 BYTE   W03
 BYTE   VOL   41*CastlevaniaCircleoftheMoonAwakeRSflame_mvl/mxv
 BYTE   W03
// 026   ----------------------------------------
 BYTE   VOL   38*CastlevaniaCircleoftheMoonAwakeRSflame_mvl/mxv
 BYTE   W03
 BYTE   VOL   37*CastlevaniaCircleoftheMoonAwakeRSflame_mvl/mxv
 BYTE   W03
 BYTE   VOL   35*CastlevaniaCircleoftheMoonAwakeRSflame_mvl/mxv
 BYTE   W03
 BYTE   VOL   34*CastlevaniaCircleoftheMoonAwakeRSflame_mvl/mxv
 BYTE   W03
 BYTE   VOL   50*CastlevaniaCircleoftheMoonAwakeRSflame_mvl/mxv
 BYTE   MOD 0
 BYTE   CnM2
 BYTE   N12  CnM2  v096
 BYTE   N18  Fn4  v092
 BYTE   W12
 BYTE   VOL   39*CastlevaniaCircleoftheMoonAwakeRSflame_mvl/mxv
 BYTE   W06
 BYTE   VOL   50*CastlevaniaCircleoftheMoonAwakeRSflame_mvl/mxv
 BYTE   N18  En4  v084
 BYTE   W12
 BYTE   VOL   39*CastlevaniaCircleoftheMoonAwakeRSflame_mvl/mxv
 BYTE   W06
 BYTE   VOL   50*CastlevaniaCircleoftheMoonAwakeRSflame_mvl/mxv
 BYTE   N12  Dn4  v096
 BYTE   W06
 BYTE   VOL   32*CastlevaniaCircleoftheMoonAwakeRSflame_mvl/mxv
 BYTE   W06
 BYTE   VOL   50*CastlevaniaCircleoftheMoonAwakeRSflame_mvl/mxv
 BYTE   N36  Bn3  v084
 BYTE   W03
 BYTE   VOL   49*CastlevaniaCircleoftheMoonAwakeRSflame_mvl/mxv
 BYTE   W03
 BYTE   VOL   49*CastlevaniaCircleoftheMoonAwakeRSflame_mvl/mxv
 BYTE   W03
 BYTE   VOL   49*CastlevaniaCircleoftheMoonAwakeRSflame_mvl/mxv
 BYTE   W03
 BYTE   VOL   49*CastlevaniaCircleoftheMoonAwakeRSflame_mvl/mxv
 BYTE   W03
 BYTE   VOL   49*CastlevaniaCircleoftheMoonAwakeRSflame_mvl/mxv
 BYTE   W03
 BYTE   VOL   49*CastlevaniaCircleoftheMoonAwakeRSflame_mvl/mxv
 BYTE   W03
 BYTE   VOL   49*CastlevaniaCircleoftheMoonAwakeRSflame_mvl/mxv
 BYTE   W03
 BYTE   VOL   47*CastlevaniaCircleoftheMoonAwakeRSflame_mvl/mxv
 BYTE   MOD 0
 BYTE   CnM2
 BYTE   N03  DsM2  v084
 BYTE   W03
 BYTE   VOL   43*CastlevaniaCircleoftheMoonAwakeRSflame_mvl/mxv
 BYTE   W03
 BYTE   VOL   39*CastlevaniaCircleoftheMoonAwakeRSflame_mvl/mxv
 BYTE   W03
 BYTE   VOL   37*CastlevaniaCircleoftheMoonAwakeRSflame_mvl/mxv
 BYTE   W03
// 027   ----------------------------------------
 BYTE   VOL   50*CastlevaniaCircleoftheMoonAwakeRSflame_mvl/mxv
 BYTE   MOD 0
 BYTE   CnM2
 BYTE   N06  CnM2  v084
 BYTE   N06  An3  v092
 BYTE   W06
 BYTE   Bn3  v084
 BYTE   W06
 BYTE   VOL   48*CastlevaniaCircleoftheMoonAwakeRSflame_mvl/mxv
 BYTE   N36  Cn4  v092
 BYTE   W03
 BYTE   VOL   48*CastlevaniaCircleoftheMoonAwakeRSflame_mvl/mxv
 BYTE   W03
 BYTE   VOL   47*CastlevaniaCircleoftheMoonAwakeRSflame_mvl/mxv
 BYTE   W03
 BYTE   VOL   47*CastlevaniaCircleoftheMoonAwakeRSflame_mvl/mxv
 BYTE   W03
 BYTE   VOL   47*CastlevaniaCircleoftheMoonAwakeRSflame_mvl/mxv
 BYTE   W03
 BYTE   VOL   46*CastlevaniaCircleoftheMoonAwakeRSflame_mvl/mxv
 BYTE   W03
 BYTE   VOL   46*CastlevaniaCircleoftheMoonAwakeRSflame_mvl/mxv
 BYTE   W03
 BYTE   VOL   46*CastlevaniaCircleoftheMoonAwakeRSflame_mvl/mxv
 BYTE   W03
 BYTE   VOL   42*CastlevaniaCircleoftheMoonAwakeRSflame_mvl/mxv
 BYTE   W03
 BYTE   VOL   38*CastlevaniaCircleoftheMoonAwakeRSflame_mvl/mxv
 BYTE   W03
 BYTE   VOL   34*CastlevaniaCircleoftheMoonAwakeRSflame_mvl/mxv
 BYTE   W03
 BYTE   VOL   31*CastlevaniaCircleoftheMoonAwakeRSflame_mvl/mxv
 BYTE   W03
 BYTE   VOL   49*CastlevaniaCircleoftheMoonAwakeRSflame_mvl/mxv
 BYTE   N06  Bn3  v084
 BYTE   W03
 BYTE   VOL   41*CastlevaniaCircleoftheMoonAwakeRSflame_mvl/mxv
 BYTE   W03
 BYTE   VOL   50*CastlevaniaCircleoftheMoonAwakeRSflame_mvl/mxv
 BYTE   N06  Cn4  v084
 BYTE   W03
 BYTE   VOL   42*CastlevaniaCircleoftheMoonAwakeRSflame_mvl/mxv
 BYTE   W03
 BYTE   VOL   50*CastlevaniaCircleoftheMoonAwakeRSflame_mvl/mxv
 BYTE   N30  Dn4  v112
 BYTE   W03
 BYTE   VOL   47*CastlevaniaCircleoftheMoonAwakeRSflame_mvl/mxv
 BYTE   W03
 BYTE   VOL   46*CastlevaniaCircleoftheMoonAwakeRSflame_mvl/mxv
 BYTE   W03
 BYTE   VOL   46*CastlevaniaCircleoftheMoonAwakeRSflame_mvl/mxv
 BYTE   W03
 BYTE   VOL   46*CastlevaniaCircleoftheMoonAwakeRSflame_mvl/mxv
 BYTE   W03
 BYTE   VOL   45*CastlevaniaCircleoftheMoonAwakeRSflame_mvl/mxv
 BYTE   W03
 BYTE   VOL   45*CastlevaniaCircleoftheMoonAwakeRSflame_mvl/mxv
 BYTE   W03
 BYTE   VOL   44*CastlevaniaCircleoftheMoonAwakeRSflame_mvl/mxv
 BYTE   W03
 BYTE   VOL   37*CastlevaniaCircleoftheMoonAwakeRSflame_mvl/mxv
 BYTE   W03
 BYTE   VOL   30*CastlevaniaCircleoftheMoonAwakeRSflame_mvl/mxv
 BYTE   W03
 BYTE   VOL   49*CastlevaniaCircleoftheMoonAwakeRSflame_mvl/mxv
 BYTE   N06  Gn3  v080
 BYTE   W03
 BYTE   VOL   41*CastlevaniaCircleoftheMoonAwakeRSflame_mvl/mxv
 BYTE   W03
// 028   ----------------------------------------
 BYTE   VOL   50*CastlevaniaCircleoftheMoonAwakeRSflame_mvl/mxv
 BYTE   N06  Cn4  v092
 BYTE   W03
 BYTE   VOL   43*CastlevaniaCircleoftheMoonAwakeRSflame_mvl/mxv
 BYTE   W03
 BYTE   VOL   50*CastlevaniaCircleoftheMoonAwakeRSflame_mvl/mxv
 BYTE   N06  Dn4  v092
 BYTE   W03
 BYTE   VOL   48*CastlevaniaCircleoftheMoonAwakeRSflame_mvl/mxv
 BYTE   W03
 BYTE   VOL   56*CastlevaniaCircleoftheMoonAwakeRSflame_mvl/mxv
 BYTE   N96  En4  v080
 BYTE   W03
 BYTE   VOL   52*CastlevaniaCircleoftheMoonAwakeRSflame_mvl/mxv
 BYTE   W03
 BYTE   VOL   50*CastlevaniaCircleoftheMoonAwakeRSflame_mvl/mxv
 BYTE   W03
 BYTE   VOL   50*CastlevaniaCircleoftheMoonAwakeRSflame_mvl/mxv
 BYTE   W03
 BYTE   VOL   50*CastlevaniaCircleoftheMoonAwakeRSflame_mvl/mxv
 BYTE   W03
 BYTE   VOL   50*CastlevaniaCircleoftheMoonAwakeRSflame_mvl/mxv
 BYTE   W03
 BYTE   VOL   50*CastlevaniaCircleoftheMoonAwakeRSflame_mvl/mxv
 BYTE   W03
 BYTE   VOL   50*CastlevaniaCircleoftheMoonAwakeRSflame_mvl/mxv
 BYTE   W03
 BYTE   VOL   49*CastlevaniaCircleoftheMoonAwakeRSflame_mvl/mxv
 BYTE   W03
 BYTE   VOL   47*CastlevaniaCircleoftheMoonAwakeRSflame_mvl/mxv
 BYTE   W03
 BYTE   VOL   46*CastlevaniaCircleoftheMoonAwakeRSflame_mvl/mxv
 BYTE   W03
 BYTE   VOL   45*CastlevaniaCircleoftheMoonAwakeRSflame_mvl/mxv
 BYTE   W03
 BYTE   VOL   43*CastlevaniaCircleoftheMoonAwakeRSflame_mvl/mxv
 BYTE   W03
 BYTE   VOL   41*CastlevaniaCircleoftheMoonAwakeRSflame_mvl/mxv
 BYTE   W03
 BYTE   VOL   39*CastlevaniaCircleoftheMoonAwakeRSflame_mvl/mxv
 BYTE   W03
 BYTE   VOL   38*CastlevaniaCircleoftheMoonAwakeRSflame_mvl/mxv
 BYTE   W03
 BYTE   VOL   37*CastlevaniaCircleoftheMoonAwakeRSflame_mvl/mxv
 BYTE   W06
 BYTE   VOL   35*CastlevaniaCircleoftheMoonAwakeRSflame_mvl/mxv
 BYTE   W06
 BYTE   VOL   34*CastlevaniaCircleoftheMoonAwakeRSflame_mvl/mxv
 BYTE   W06
 BYTE   VOL   32*CastlevaniaCircleoftheMoonAwakeRSflame_mvl/mxv
 BYTE   W06
 BYTE   VOL   32*CastlevaniaCircleoftheMoonAwakeRSflame_mvl/mxv
 BYTE   W06
 BYTE   VOL   32*CastlevaniaCircleoftheMoonAwakeRSflame_mvl/mxv
 BYTE   W06
// 029   ----------------------------------------
 BYTE   VOL   30*CastlevaniaCircleoftheMoonAwakeRSflame_mvl/mxv
 BYTE   W06
 BYTE   VOL   30*CastlevaniaCircleoftheMoonAwakeRSflame_mvl/mxv
 BYTE   W06
 BYTE   VOL   50*CastlevaniaCircleoftheMoonAwakeRSflame_mvl/mxv
 BYTE   N18  Fn4  v104
 BYTE   W12
 BYTE   VOL   39*CastlevaniaCircleoftheMoonAwakeRSflame_mvl/mxv
 BYTE   W06
 BYTE   VOL   50*CastlevaniaCircleoftheMoonAwakeRSflame_mvl/mxv
 BYTE   N18  En4  v092
 BYTE   W12
 BYTE   VOL   39*CastlevaniaCircleoftheMoonAwakeRSflame_mvl/mxv
 BYTE   W06
 BYTE   VOL   50*CastlevaniaCircleoftheMoonAwakeRSflame_mvl/mxv
 BYTE   N12  Dn4  v096
 BYTE   W06
 BYTE   VOL   34*CastlevaniaCircleoftheMoonAwakeRSflame_mvl/mxv
 BYTE   W06
 BYTE   VOL   50*CastlevaniaCircleoftheMoonAwakeRSflame_mvl/mxv
 BYTE   N48  An3  v088
 BYTE   W03
 BYTE   VOL   50*CastlevaniaCircleoftheMoonAwakeRSflame_mvl/mxv
 BYTE   W03
 BYTE   VOL   50*CastlevaniaCircleoftheMoonAwakeRSflame_mvl/mxv
 BYTE   W03
 BYTE   VOL   49*CastlevaniaCircleoftheMoonAwakeRSflame_mvl/mxv
 BYTE   W03
 BYTE   VOL   49*CastlevaniaCircleoftheMoonAwakeRSflame_mvl/mxv
 BYTE   W03
 BYTE   VOL   49*CastlevaniaCircleoftheMoonAwakeRSflame_mvl/mxv
 BYTE   W03
 BYTE   VOL   48*CastlevaniaCircleoftheMoonAwakeRSflame_mvl/mxv
 BYTE   W03
 BYTE   VOL   47*CastlevaniaCircleoftheMoonAwakeRSflame_mvl/mxv
 BYTE   W03
 BYTE   VOL   45*CastlevaniaCircleoftheMoonAwakeRSflame_mvl/mxv
 BYTE   MOD 0
 BYTE   CnM2
 BYTE   N03  DsM2  v088
 BYTE   W03
 BYTE   VOL   44*CastlevaniaCircleoftheMoonAwakeRSflame_mvl/mxv
 BYTE   W03
 BYTE   VOL   43*CastlevaniaCircleoftheMoonAwakeRSflame_mvl/mxv
 BYTE   W03
 BYTE   VOL   43*CastlevaniaCircleoftheMoonAwakeRSflame_mvl/mxv
 BYTE   W03
// 030   ----------------------------------------
 BYTE   VOL   41*CastlevaniaCircleoftheMoonAwakeRSflame_mvl/mxv
 BYTE   W03
 BYTE   VOL   39*CastlevaniaCircleoftheMoonAwakeRSflame_mvl/mxv
 BYTE   W03
 BYTE   VOL   39*CastlevaniaCircleoftheMoonAwakeRSflame_mvl/mxv
 BYTE   W03
 BYTE   VOL   38*CastlevaniaCircleoftheMoonAwakeRSflame_mvl/mxv
 BYTE   W03
 BYTE   VOL   50*CastlevaniaCircleoftheMoonAwakeRSflame_mvl/mxv
 BYTE   MOD 0
 BYTE   CnM2
 BYTE   N12  CnM2  v088
 BYTE   N18  Fn4  v100
 BYTE   W12
 BYTE   VOL   39*CastlevaniaCircleoftheMoonAwakeRSflame_mvl/mxv
 BYTE   W06
 BYTE   VOL   50*CastlevaniaCircleoftheMoonAwakeRSflame_mvl/mxv
 BYTE   N18  En4  v096
 BYTE   W12
 BYTE   VOL   39*CastlevaniaCircleoftheMoonAwakeRSflame_mvl/mxv
 BYTE   W06
 BYTE   VOL   50*CastlevaniaCircleoftheMoonAwakeRSflame_mvl/mxv
 BYTE   N12  Dn4  v096
 BYTE   W06
 BYTE   VOL   33*CastlevaniaCircleoftheMoonAwakeRSflame_mvl/mxv
 BYTE   W06
 BYTE   VOL   50*CastlevaniaCircleoftheMoonAwakeRSflame_mvl/mxv
 BYTE   N36  Bn3  v076
 BYTE   W03
 BYTE   VOL   50*CastlevaniaCircleoftheMoonAwakeRSflame_mvl/mxv
 BYTE   W03
 BYTE   VOL   50*CastlevaniaCircleoftheMoonAwakeRSflame_mvl/mxv
 BYTE   W03
 BYTE   VOL   49*CastlevaniaCircleoftheMoonAwakeRSflame_mvl/mxv
 BYTE   W03
 BYTE   VOL   49*CastlevaniaCircleoftheMoonAwakeRSflame_mvl/mxv
 BYTE   W03
 BYTE   VOL   49*CastlevaniaCircleoftheMoonAwakeRSflame_mvl/mxv
 BYTE   W03
 BYTE   VOL   48*CastlevaniaCircleoftheMoonAwakeRSflame_mvl/mxv
 BYTE   W03
 BYTE   VOL   45*CastlevaniaCircleoftheMoonAwakeRSflame_mvl/mxv
 BYTE   W03
 BYTE   VOL   43*CastlevaniaCircleoftheMoonAwakeRSflame_mvl/mxv
 BYTE   MOD 0
 BYTE   CnM2
 BYTE   N03  DsM2  v076
 BYTE   W03
 BYTE   VOL   41*CastlevaniaCircleoftheMoonAwakeRSflame_mvl/mxv
 BYTE   W03
 BYTE   VOL   39*CastlevaniaCircleoftheMoonAwakeRSflame_mvl/mxv
 BYTE   W03
 BYTE   VOL   37*CastlevaniaCircleoftheMoonAwakeRSflame_mvl/mxv
 BYTE   W03
// 031   ----------------------------------------
 BYTE   VOL   49*CastlevaniaCircleoftheMoonAwakeRSflame_mvl/mxv
 BYTE   MOD 0
 BYTE   CnM2
 BYTE   N06  CnM2  v076
 BYTE   N06  An3  v088
 BYTE   W06
 BYTE   Bn3
 BYTE   W06
 BYTE   VOL   48*CastlevaniaCircleoftheMoonAwakeRSflame_mvl/mxv
 BYTE   N18  Cn4  v084
 BYTE   W03
 BYTE   VOL   47*CastlevaniaCircleoftheMoonAwakeRSflame_mvl/mxv
 BYTE   W03
 BYTE   VOL   47*CastlevaniaCircleoftheMoonAwakeRSflame_mvl/mxv
 BYTE   W03
 BYTE   VOL   46*CastlevaniaCircleoftheMoonAwakeRSflame_mvl/mxv
 BYTE   W03
 BYTE   VOL   46*CastlevaniaCircleoftheMoonAwakeRSflame_mvl/mxv
 BYTE   W03
 BYTE   VOL   46*CastlevaniaCircleoftheMoonAwakeRSflame_mvl/mxv
 BYTE   W03
 BYTE   VOL   46*CastlevaniaCircleoftheMoonAwakeRSflame_mvl/mxv
 BYTE   N18  Bn3  v092
 BYTE   W03
 BYTE   VOL   45*CastlevaniaCircleoftheMoonAwakeRSflame_mvl/mxv
 BYTE   W03
 BYTE   VOL   32*CastlevaniaCircleoftheMoonAwakeRSflame_mvl/mxv
 BYTE   W03
 BYTE   VOL   30*CastlevaniaCircleoftheMoonAwakeRSflame_mvl/mxv
 BYTE   W03
 BYTE   VOL   29*CastlevaniaCircleoftheMoonAwakeRSflame_mvl/mxv
 BYTE   W03
 BYTE   VOL   28*CastlevaniaCircleoftheMoonAwakeRSflame_mvl/mxv
 BYTE   W03
 BYTE   VOL   49*CastlevaniaCircleoftheMoonAwakeRSflame_mvl/mxv
 BYTE   N12  Cn4  v076
 BYTE   W06
 BYTE   VOL   39*CastlevaniaCircleoftheMoonAwakeRSflame_mvl/mxv
 BYTE   W06
 BYTE   VOL   46*CastlevaniaCircleoftheMoonAwakeRSflame_mvl/mxv
 BYTE   N18  Dn4  v112
 BYTE   W03
 BYTE   VOL   46*CastlevaniaCircleoftheMoonAwakeRSflame_mvl/mxv
 BYTE   W03
 BYTE   VOL   46*CastlevaniaCircleoftheMoonAwakeRSflame_mvl/mxv
 BYTE   W03
 BYTE   VOL   46*CastlevaniaCircleoftheMoonAwakeRSflame_mvl/mxv
 BYTE   W03
 BYTE   VOL   46*CastlevaniaCircleoftheMoonAwakeRSflame_mvl/mxv
 BYTE   W03
 BYTE   VOL   46*CastlevaniaCircleoftheMoonAwakeRSflame_mvl/mxv
 BYTE   W03
 BYTE   VOL   46*CastlevaniaCircleoftheMoonAwakeRSflame_mvl/mxv
 BYTE   N18  Cn4  v104
 BYTE   W03
 BYTE   VOL   45*CastlevaniaCircleoftheMoonAwakeRSflame_mvl/mxv
 BYTE   W03
 BYTE   VOL   30*CastlevaniaCircleoftheMoonAwakeRSflame_mvl/mxv
 BYTE   W03
 BYTE   VOL   29*CastlevaniaCircleoftheMoonAwakeRSflame_mvl/mxv
 BYTE   W03
 BYTE   VOL   28*CastlevaniaCircleoftheMoonAwakeRSflame_mvl/mxv
 BYTE   W03
 BYTE   VOL   28*CastlevaniaCircleoftheMoonAwakeRSflame_mvl/mxv
 BYTE   W03
// 032   ----------------------------------------
 BYTE   VOL   52*CastlevaniaCircleoftheMoonAwakeRSflame_mvl/mxv
 BYTE   N12  Dn4  v112
 BYTE   W06
 BYTE   VOL   44*CastlevaniaCircleoftheMoonAwakeRSflame_mvl/mxv
 BYTE   W06
 BYTE   VOL   48*CastlevaniaCircleoftheMoonAwakeRSflame_mvl/mxv
 BYTE   N18  En4  v092
 BYTE   W03
 BYTE   VOL   47*CastlevaniaCircleoftheMoonAwakeRSflame_mvl/mxv
 BYTE   W03
 BYTE   VOL   47*CastlevaniaCircleoftheMoonAwakeRSflame_mvl/mxv
 BYTE   W03
 BYTE   VOL   46*CastlevaniaCircleoftheMoonAwakeRSflame_mvl/mxv
 BYTE   W03
 BYTE   VOL   46*CastlevaniaCircleoftheMoonAwakeRSflame_mvl/mxv
 BYTE   W03
 BYTE   VOL   46*CastlevaniaCircleoftheMoonAwakeRSflame_mvl/mxv
 BYTE   W03
 BYTE   VOL   46*CastlevaniaCircleoftheMoonAwakeRSflame_mvl/mxv
 BYTE   N18  Dn4  v100
 BYTE   W03
 BYTE   VOL   45*CastlevaniaCircleoftheMoonAwakeRSflame_mvl/mxv
 BYTE   W03
 BYTE   VOL   32*CastlevaniaCircleoftheMoonAwakeRSflame_mvl/mxv
 BYTE   W03
 BYTE   VOL   30*CastlevaniaCircleoftheMoonAwakeRSflame_mvl/mxv
 BYTE   W03
 BYTE   VOL   30*CastlevaniaCircleoftheMoonAwakeRSflame_mvl/mxv
 BYTE   W03
 BYTE   VOL   28*CastlevaniaCircleoftheMoonAwakeRSflame_mvl/mxv
 BYTE   W03
 BYTE   VOL   49*CastlevaniaCircleoftheMoonAwakeRSflame_mvl/mxv
 BYTE   N12  En4  v100
 BYTE   W06
 BYTE   VOL   39*CastlevaniaCircleoftheMoonAwakeRSflame_mvl/mxv
 BYTE   W06
 BYTE   VOL   46*CastlevaniaCircleoftheMoonAwakeRSflame_mvl/mxv
 BYTE   N18  Fs4  v096
 BYTE   W03
 BYTE   VOL   46*CastlevaniaCircleoftheMoonAwakeRSflame_mvl/mxv
 BYTE   W03
 BYTE   VOL   46*CastlevaniaCircleoftheMoonAwakeRSflame_mvl/mxv
 BYTE   W03
 BYTE   VOL   46*CastlevaniaCircleoftheMoonAwakeRSflame_mvl/mxv
 BYTE   W03
 BYTE   VOL   46*CastlevaniaCircleoftheMoonAwakeRSflame_mvl/mxv
 BYTE   W03
 BYTE   VOL   46*CastlevaniaCircleoftheMoonAwakeRSflame_mvl/mxv
 BYTE   W03
 BYTE   VOL   46*CastlevaniaCircleoftheMoonAwakeRSflame_mvl/mxv
 BYTE   N18  En4  v096
 BYTE   W03
 BYTE   VOL   46*CastlevaniaCircleoftheMoonAwakeRSflame_mvl/mxv
 BYTE   W03
 BYTE   VOL   29*CastlevaniaCircleoftheMoonAwakeRSflame_mvl/mxv
 BYTE   W03
 BYTE   VOL   28*CastlevaniaCircleoftheMoonAwakeRSflame_mvl/mxv
 BYTE   W03
 BYTE   VOL   28*CastlevaniaCircleoftheMoonAwakeRSflame_mvl/mxv
 BYTE   W03
 BYTE   VOL   28*CastlevaniaCircleoftheMoonAwakeRSflame_mvl/mxv
 BYTE   W03
// 033   ----------------------------------------
 BYTE   VOL   52*CastlevaniaCircleoftheMoonAwakeRSflame_mvl/mxv
 BYTE   N12  Fs4  v076
 BYTE   W06
 BYTE   VOL   44*CastlevaniaCircleoftheMoonAwakeRSflame_mvl/mxv
 BYTE   W06
 BYTE   VOL   48*CastlevaniaCircleoftheMoonAwakeRSflame_mvl/mxv
 BYTE   N96  Gs4  v056
 BYTE   W03
 BYTE   VOL   48*CastlevaniaCircleoftheMoonAwakeRSflame_mvl/mxv
 BYTE   W03
 BYTE   VOL   48*CastlevaniaCircleoftheMoonAwakeRSflame_mvl/mxv
 BYTE   W03
 BYTE   VOL   47*CastlevaniaCircleoftheMoonAwakeRSflame_mvl/mxv
 BYTE   W03
 BYTE   VOL   47*CastlevaniaCircleoftheMoonAwakeRSflame_mvl/mxv
 BYTE   W03
 BYTE   VOL   47*CastlevaniaCircleoftheMoonAwakeRSflame_mvl/mxv
 BYTE   W03
 BYTE   VOL   47*CastlevaniaCircleoftheMoonAwakeRSflame_mvl/mxv
 BYTE   W03
 BYTE   VOL   47*CastlevaniaCircleoftheMoonAwakeRSflame_mvl/mxv
 BYTE   W03
 BYTE   VOL   47*CastlevaniaCircleoftheMoonAwakeRSflame_mvl/mxv
 BYTE   W03
 BYTE   VOL   46*CastlevaniaCircleoftheMoonAwakeRSflame_mvl/mxv
 BYTE   W03
 BYTE   VOL   46*CastlevaniaCircleoftheMoonAwakeRSflame_mvl/mxv
 BYTE   W03
 BYTE   VOL   46*CastlevaniaCircleoftheMoonAwakeRSflame_mvl/mxv
 BYTE   W03
 BYTE   VOL   46*CastlevaniaCircleoftheMoonAwakeRSflame_mvl/mxv
 BYTE   W03
 BYTE   VOL   46*CastlevaniaCircleoftheMoonAwakeRSflame_mvl/mxv
 BYTE   W03
 BYTE   VOL   46*CastlevaniaCircleoftheMoonAwakeRSflame_mvl/mxv
 BYTE   W03
 BYTE   VOL   46*CastlevaniaCircleoftheMoonAwakeRSflame_mvl/mxv
 BYTE   W03
 BYTE   VOL   46*CastlevaniaCircleoftheMoonAwakeRSflame_mvl/mxv
 BYTE   W03
 BYTE   VOL   46*CastlevaniaCircleoftheMoonAwakeRSflame_mvl/mxv
 BYTE   W03
 BYTE   VOL   46*CastlevaniaCircleoftheMoonAwakeRSflame_mvl/mxv
 BYTE   W03
 BYTE   VOL   46*CastlevaniaCircleoftheMoonAwakeRSflame_mvl/mxv
 BYTE   W03
 BYTE   VOL   46*CastlevaniaCircleoftheMoonAwakeRSflame_mvl/mxv
 BYTE   W03
 BYTE   VOL   45*CastlevaniaCircleoftheMoonAwakeRSflame_mvl/mxv
 BYTE   W03
 BYTE   VOL   45*CastlevaniaCircleoftheMoonAwakeRSflame_mvl/mxv
 BYTE   W03
 BYTE   VOL   45*CastlevaniaCircleoftheMoonAwakeRSflame_mvl/mxv
 BYTE   W03
 BYTE   VOL   45*CastlevaniaCircleoftheMoonAwakeRSflame_mvl/mxv
 BYTE   W03
 BYTE   VOL   45*CastlevaniaCircleoftheMoonAwakeRSflame_mvl/mxv
 BYTE   W03
 BYTE   VOL   45*CastlevaniaCircleoftheMoonAwakeRSflame_mvl/mxv
 BYTE   W03
 BYTE   VOL   44*CastlevaniaCircleoftheMoonAwakeRSflame_mvl/mxv
 BYTE   W03
// 034   ----------------------------------------
 BYTE   VOL   44*CastlevaniaCircleoftheMoonAwakeRSflame_mvl/mxv
 BYTE   W03
 BYTE   VOL   44*CastlevaniaCircleoftheMoonAwakeRSflame_mvl/mxv
 BYTE   W03
 BYTE   VOL   44*CastlevaniaCircleoftheMoonAwakeRSflame_mvl/mxv
 BYTE   W06
 BYTE   VOL   38*CastlevaniaCircleoftheMoonAwakeRSflame_mvl/mxv
 BYTE   N72  Gs4  v056
 BYTE   W06
 BYTE   VOL   38*CastlevaniaCircleoftheMoonAwakeRSflame_mvl/mxv
 BYTE   W06
 BYTE   VOL   37*CastlevaniaCircleoftheMoonAwakeRSflame_mvl/mxv
 BYTE   W06
 BYTE   VOL   37*CastlevaniaCircleoftheMoonAwakeRSflame_mvl/mxv
 BYTE   W06
 BYTE   VOL   36*CastlevaniaCircleoftheMoonAwakeRSflame_mvl/mxv
 BYTE   W06
 BYTE   VOL   35*CastlevaniaCircleoftheMoonAwakeRSflame_mvl/mxv
 BYTE   W06
 BYTE   VOL   34*CastlevaniaCircleoftheMoonAwakeRSflame_mvl/mxv
 BYTE   W06
 BYTE   VOL   34*CastlevaniaCircleoftheMoonAwakeRSflame_mvl/mxv
 BYTE   W06
 BYTE   VOL   33*CastlevaniaCircleoftheMoonAwakeRSflame_mvl/mxv
 BYTE   W06
 BYTE   VOL   33*CastlevaniaCircleoftheMoonAwakeRSflame_mvl/mxv
 BYTE   W06
 BYTE   VOL   32*CastlevaniaCircleoftheMoonAwakeRSflame_mvl/mxv
 BYTE   W06
 BYTE   VOL   31*CastlevaniaCircleoftheMoonAwakeRSflame_mvl/mxv
 BYTE   W06
 BYTE   VOL   31*CastlevaniaCircleoftheMoonAwakeRSflame_mvl/mxv
 BYTE   N02  Gs4  v056
 BYTE   W06
 BYTE   VOL   31*CastlevaniaCircleoftheMoonAwakeRSflame_mvl/mxv
 BYTE   W06
// 035   ----------------------------------------
 BYTE   VOL   30*CastlevaniaCircleoftheMoonAwakeRSflame_mvl/mxv
 BYTE   W06
 BYTE   VOL   30*CastlevaniaCircleoftheMoonAwakeRSflame_mvl/mxv
 BYTE   W06
 BYTE   VOL   49*CastlevaniaCircleoftheMoonAwakeRSflame_mvl/mxv
 BYTE   N12  En4  v080
 BYTE   W12
 BYTE   N06  Dn4  v104
 BYTE   W06
 BYTE   N12  Cn4  v072
 BYTE   W12
 BYTE   N06  En4  v096
 BYTE   W06
 BYTE   N24  Dn4  v092
 BYTE   W24
 BYTE   VOL   48*CastlevaniaCircleoftheMoonAwakeRSflame_mvl/mxv
 BYTE   N24  An3  v096
 BYTE   W03
 BYTE   VOL   41*CastlevaniaCircleoftheMoonAwakeRSflame_mvl/mxv
 BYTE   W03
 BYTE   VOL   31*CastlevaniaCircleoftheMoonAwakeRSflame_mvl/mxv
 BYTE   W03
 BYTE   VOL   31*CastlevaniaCircleoftheMoonAwakeRSflame_mvl/mxv
 BYTE   W03
 BYTE   VOL   29*CastlevaniaCircleoftheMoonAwakeRSflame_mvl/mxv
 BYTE   W03
 BYTE   VOL   28*CastlevaniaCircleoftheMoonAwakeRSflame_mvl/mxv
 BYTE   W03
 BYTE   VOL   28*CastlevaniaCircleoftheMoonAwakeRSflame_mvl/mxv
 BYTE   W06
// 036   ----------------------------------------
 BYTE   VOL   49*CastlevaniaCircleoftheMoonAwakeRSflame_mvl/mxv
 BYTE   N06  An3  v088
 BYTE   W06
 BYTE   Bn3  v076
 BYTE   W06
 BYTE   Cn4  v084
 BYTE   W06
 BYTE   Bn3  v076
 BYTE   W06
 BYTE   An3  v092
 BYTE   W06
 BYTE   N12  Bn3  v056
 BYTE   W12
 BYTE   N06  Gn3  v080
 BYTE   W06
 BYTE   VOL   50*CastlevaniaCircleoftheMoonAwakeRSflame_mvl/mxv
 BYTE   N60  An3  v096
 BYTE   W03
 BYTE   VOL   50*CastlevaniaCircleoftheMoonAwakeRSflame_mvl/mxv
 BYTE   W03
 BYTE   VOL   49*CastlevaniaCircleoftheMoonAwakeRSflame_mvl/mxv
 BYTE   W03
 BYTE   VOL   49*CastlevaniaCircleoftheMoonAwakeRSflame_mvl/mxv
 BYTE   W03
 BYTE   VOL   47*CastlevaniaCircleoftheMoonAwakeRSflame_mvl/mxv
 BYTE   W03
 BYTE   VOL   47*CastlevaniaCircleoftheMoonAwakeRSflame_mvl/mxv
 BYTE   W03
 BYTE   VOL   46*CastlevaniaCircleoftheMoonAwakeRSflame_mvl/mxv
 BYTE   W03
 BYTE   VOL   46*CastlevaniaCircleoftheMoonAwakeRSflame_mvl/mxv
 BYTE   W03
 BYTE   VOL   46*CastlevaniaCircleoftheMoonAwakeRSflame_mvl/mxv
 BYTE   W03
 BYTE   VOL   45*CastlevaniaCircleoftheMoonAwakeRSflame_mvl/mxv
 BYTE   W03
 BYTE   VOL   44*CastlevaniaCircleoftheMoonAwakeRSflame_mvl/mxv
 BYTE   W03
 BYTE   VOL   33*CastlevaniaCircleoftheMoonAwakeRSflame_mvl/mxv
 BYTE   W03
 BYTE   VOL   28*CastlevaniaCircleoftheMoonAwakeRSflame_mvl/mxv
 BYTE   W24
// 037   ----------------------------------------
 BYTE   VOL   49*CastlevaniaCircleoftheMoonAwakeRSflame_mvl/mxv
 BYTE   N12  En4  v092
 BYTE   W12
 BYTE   N06  Dn4  v100
 BYTE   W06
 BYTE   N12  Cn4  v072
 BYTE   W12
 BYTE   N06  En4  v096
 BYTE   W06
 BYTE   N24  Dn4  v100
 BYTE   W24
 BYTE   VOL   48*CastlevaniaCircleoftheMoonAwakeRSflame_mvl/mxv
 BYTE   N24  An3  v096
 BYTE   W03
 BYTE   VOL   41*CastlevaniaCircleoftheMoonAwakeRSflame_mvl/mxv
 BYTE   W03
 BYTE   VOL   31*CastlevaniaCircleoftheMoonAwakeRSflame_mvl/mxv
 BYTE   W03
 BYTE   VOL   31*CastlevaniaCircleoftheMoonAwakeRSflame_mvl/mxv
 BYTE   W03
 BYTE   VOL   29*CastlevaniaCircleoftheMoonAwakeRSflame_mvl/mxv
 BYTE   W03
 BYTE   VOL   28*CastlevaniaCircleoftheMoonAwakeRSflame_mvl/mxv
 BYTE   W03
 BYTE   VOL   28*CastlevaniaCircleoftheMoonAwakeRSflame_mvl/mxv
 BYTE   W06
 BYTE   VOL   49*CastlevaniaCircleoftheMoonAwakeRSflame_mvl/mxv
 BYTE   N06  An3  v088
 BYTE   W06
 BYTE   Bn3  v076
 BYTE   W06
// 038   ----------------------------------------
 BYTE   Cn4
 BYTE   W06
 BYTE   Bn3
 BYTE   W06
 BYTE   An3  v092
 BYTE   W06
 BYTE   N12  Bn3  v056
 BYTE   W12
 BYTE   N06  Gn3  v088
 BYTE   W06
 BYTE   VOL   50*CastlevaniaCircleoftheMoonAwakeRSflame_mvl/mxv
 BYTE   N60  An3  v096
 BYTE   W03
 BYTE   VOL   50*CastlevaniaCircleoftheMoonAwakeRSflame_mvl/mxv
 BYTE   W03
 BYTE   VOL   49*CastlevaniaCircleoftheMoonAwakeRSflame_mvl/mxv
 BYTE   W03
 BYTE   VOL   49*CastlevaniaCircleoftheMoonAwakeRSflame_mvl/mxv
 BYTE   W03
 BYTE   VOL   47*CastlevaniaCircleoftheMoonAwakeRSflame_mvl/mxv
 BYTE   W03
 BYTE   VOL   47*CastlevaniaCircleoftheMoonAwakeRSflame_mvl/mxv
 BYTE   W03
 BYTE   VOL   46*CastlevaniaCircleoftheMoonAwakeRSflame_mvl/mxv
 BYTE   W03
 BYTE   VOL   46*CastlevaniaCircleoftheMoonAwakeRSflame_mvl/mxv
 BYTE   W03
 BYTE   VOL   46*CastlevaniaCircleoftheMoonAwakeRSflame_mvl/mxv
 BYTE   W03
 BYTE   VOL   45*CastlevaniaCircleoftheMoonAwakeRSflame_mvl/mxv
 BYTE   W03
 BYTE   VOL   44*CastlevaniaCircleoftheMoonAwakeRSflame_mvl/mxv
 BYTE   W03
 BYTE   VOL   33*CastlevaniaCircleoftheMoonAwakeRSflame_mvl/mxv
 BYTE   W03
 BYTE   VOL   28*CastlevaniaCircleoftheMoonAwakeRSflame_mvl/mxv
 BYTE   W24
// 039   ----------------------------------------
 BYTE   VOL   49*CastlevaniaCircleoftheMoonAwakeRSflame_mvl/mxv
 BYTE   N12  En4  v048
 BYTE   W12
 BYTE   N06  Dn4  v096
 BYTE   W06
 BYTE   N12  Cn4  v072
 BYTE   W12
 BYTE   N06  En4  v096
 BYTE   W06
 BYTE   N24  Fs4  v088
 BYTE   W24
 BYTE   VOL   48*CastlevaniaCircleoftheMoonAwakeRSflame_mvl/mxv
 BYTE   N24  Dn4  v100
 BYTE   W03
 BYTE   VOL   41*CastlevaniaCircleoftheMoonAwakeRSflame_mvl/mxv
 BYTE   W03
 BYTE   VOL   31*CastlevaniaCircleoftheMoonAwakeRSflame_mvl/mxv
 BYTE   W03
 BYTE   VOL   31*CastlevaniaCircleoftheMoonAwakeRSflame_mvl/mxv
 BYTE   W03
 BYTE   VOL   29*CastlevaniaCircleoftheMoonAwakeRSflame_mvl/mxv
 BYTE   W03
 BYTE   VOL   28*CastlevaniaCircleoftheMoonAwakeRSflame_mvl/mxv
 BYTE   W03
 BYTE   VOL   28*CastlevaniaCircleoftheMoonAwakeRSflame_mvl/mxv
 BYTE   W06
 BYTE   VOL   49*CastlevaniaCircleoftheMoonAwakeRSflame_mvl/mxv
 BYTE   N06  Dn4  v100
 BYTE   W06
 BYTE   En4  v092
 BYTE   W06
// 040   ----------------------------------------
 BYTE   Fn4
 BYTE   W06
 BYTE   En4
 BYTE   W06
 BYTE   Dn4  v096
 BYTE   W06
 BYTE   N12  En4  v092
 BYTE   W12
 BYTE   N06  Gn4  v060
 BYTE   W06
 BYTE   VOL   50*CastlevaniaCircleoftheMoonAwakeRSflame_mvl/mxv
 BYTE   N60  En4  v108
 BYTE   W03
 BYTE   VOL   50*CastlevaniaCircleoftheMoonAwakeRSflame_mvl/mxv
 BYTE   W03
 BYTE   VOL   49*CastlevaniaCircleoftheMoonAwakeRSflame_mvl/mxv
 BYTE   W03
 BYTE   VOL   49*CastlevaniaCircleoftheMoonAwakeRSflame_mvl/mxv
 BYTE   W03
 BYTE   VOL   47*CastlevaniaCircleoftheMoonAwakeRSflame_mvl/mxv
 BYTE   W03
 BYTE   VOL   47*CastlevaniaCircleoftheMoonAwakeRSflame_mvl/mxv
 BYTE   W03
 BYTE   VOL   46*CastlevaniaCircleoftheMoonAwakeRSflame_mvl/mxv
 BYTE   W03
 BYTE   VOL   46*CastlevaniaCircleoftheMoonAwakeRSflame_mvl/mxv
 BYTE   W03
 BYTE   VOL   46*CastlevaniaCircleoftheMoonAwakeRSflame_mvl/mxv
 BYTE   W03
 BYTE   VOL   45*CastlevaniaCircleoftheMoonAwakeRSflame_mvl/mxv
 BYTE   W03
 BYTE   VOL   44*CastlevaniaCircleoftheMoonAwakeRSflame_mvl/mxv
 BYTE   W03
 BYTE   VOL   33*CastlevaniaCircleoftheMoonAwakeRSflame_mvl/mxv
 BYTE   W03
 BYTE   VOL   28*CastlevaniaCircleoftheMoonAwakeRSflame_mvl/mxv
 BYTE   W24
// 041   ----------------------------------------
 BYTE   VOL   49*CastlevaniaCircleoftheMoonAwakeRSflame_mvl/mxv
 BYTE   N12  En4  v092
 BYTE   W12
 BYTE   N06  Dn4  v096
 BYTE   W06
 BYTE   N12  Cn4  v072
 BYTE   W12
 BYTE   N06  En4  v096
 BYTE   W06
 BYTE   N24  Dn4
 BYTE   W24
 BYTE   VOL   48*CastlevaniaCircleoftheMoonAwakeRSflame_mvl/mxv
 BYTE   N24  An3  v096
 BYTE   W03
 BYTE   VOL   41*CastlevaniaCircleoftheMoonAwakeRSflame_mvl/mxv
 BYTE   W03
 BYTE   VOL   31*CastlevaniaCircleoftheMoonAwakeRSflame_mvl/mxv
 BYTE   W03
 BYTE   VOL   31*CastlevaniaCircleoftheMoonAwakeRSflame_mvl/mxv
 BYTE   W03
 BYTE   VOL   29*CastlevaniaCircleoftheMoonAwakeRSflame_mvl/mxv
 BYTE   W03
 BYTE   VOL   28*CastlevaniaCircleoftheMoonAwakeRSflame_mvl/mxv
 BYTE   W03
 BYTE   VOL   28*CastlevaniaCircleoftheMoonAwakeRSflame_mvl/mxv
 BYTE   W06
 BYTE   VOL   49*CastlevaniaCircleoftheMoonAwakeRSflame_mvl/mxv
 BYTE   N06  An3  v088
 BYTE   W06
 BYTE   Bn3  v076
 BYTE   W06
// 042   ----------------------------------------
 BYTE   Cn4  v072
 BYTE   W06
 BYTE   Bn3  v076
 BYTE   W06
 BYTE   An3  v092
 BYTE   W06
 BYTE   N12  Bn3  v056
 BYTE   W12
 BYTE   N06  Gn3  v092
 BYTE   W06
 BYTE   VOL   50*CastlevaniaCircleoftheMoonAwakeRSflame_mvl/mxv
 BYTE   W03
 BYTE   VOL   50*CastlevaniaCircleoftheMoonAwakeRSflame_mvl/mxv
 BYTE   W03
 BYTE   VOL   49*CastlevaniaCircleoftheMoonAwakeRSflame_mvl/mxv
 BYTE   W03
 BYTE   VOL   49*CastlevaniaCircleoftheMoonAwakeRSflame_mvl/mxv
 BYTE   W03
 BYTE   VOL   47*CastlevaniaCircleoftheMoonAwakeRSflame_mvl/mxv
 BYTE   W03
 BYTE   VOL   47*CastlevaniaCircleoftheMoonAwakeRSflame_mvl/mxv
 BYTE   W03
 BYTE   VOL   46*CastlevaniaCircleoftheMoonAwakeRSflame_mvl/mxv
 BYTE   W03
 BYTE   VOL   46*CastlevaniaCircleoftheMoonAwakeRSflame_mvl/mxv
 BYTE   W03
 BYTE   VOL   46*CastlevaniaCircleoftheMoonAwakeRSflame_mvl/mxv
 BYTE   VOL   45*CastlevaniaCircleoftheMoonAwakeRSflame_mvl/mxv
 BYTE   VOL   44*CastlevaniaCircleoftheMoonAwakeRSflame_mvl/mxv
 BYTE   VOL   33*CastlevaniaCircleoftheMoonAwakeRSflame_mvl/mxv
 BYTE   VOL   28*CastlevaniaCircleoftheMoonAwakeRSflame_mvl/mxv
 BYTE   W12
 BYTE   GoTo
  POIN2 Label_3_01EA47D8
 BYTE   FINE

//**************** Track 5 (Midi-Chn.4) ****************//

CastlevaniaCircleoftheMoonAwakeRSflame_005:
// 000   ----------------------------------------
Label_4_01EA3814:
 BYTE   TEMPO   100*CastlevaniaCircleoftheMoonAwakeRSflame_tbs/2
 BYTE   KEYSH   CastlevaniaCircleoftheMoonAwakeRSflame_key+0
 BYTE   VOICE   40
 BYTE   VOL   58*CastlevaniaCircleoftheMoonAwakeRSflame_mvl/mxv
 BYTE   PAN   c_v+6
 BYTE   MOD 0
 BYTE   CnM2
 BYTE   N12  En4  v120
 BYTE   W12
 BYTE   N06  Dn4
 BYTE   W06
 BYTE   N12  Cn4
 BYTE   W12
 BYTE   N06  En4
 BYTE   W06
 BYTE   N24  Dn4
 BYTE   W24
 BYTE   VOL   59*CastlevaniaCircleoftheMoonAwakeRSflame_mvl/mxv
 BYTE   N24  An3  v120
 BYTE   W03
 BYTE   VOL   52*CastlevaniaCircleoftheMoonAwakeRSflame_mvl/mxv
 BYTE   W03
 BYTE   VOL   32*CastlevaniaCircleoftheMoonAwakeRSflame_mvl/mxv
 BYTE   W03
 BYTE   VOL   31*CastlevaniaCircleoftheMoonAwakeRSflame_mvl/mxv
 BYTE   W03
 BYTE   VOL   31*CastlevaniaCircleoftheMoonAwakeRSflame_mvl/mxv
 BYTE   MOD 0
 BYTE   CnM2
 BYTE   N03  DsM2  v120
 BYTE   W03
 BYTE   VOL   29*CastlevaniaCircleoftheMoonAwakeRSflame_mvl/mxv
 BYTE   W03
 BYTE   VOL   28*CastlevaniaCircleoftheMoonAwakeRSflame_mvl/mxv
 BYTE   W03
 BYTE   VOL   28*CastlevaniaCircleoftheMoonAwakeRSflame_mvl/mxv
 BYTE   W03
 BYTE   VOL   58*CastlevaniaCircleoftheMoonAwakeRSflame_mvl/mxv
 BYTE   MOD 0
 BYTE   CnM2
 BYTE   N06  CnM2  v120
 BYTE   N06  An3  v127
 BYTE   W06
 BYTE   Bn3
 BYTE   W06
// 001   ----------------------------------------
 BYTE   Cn4
 BYTE   W06
 BYTE   Bn3
 BYTE   W06
 BYTE   An3
 BYTE   W06
 BYTE   N12  Bn3
 BYTE   W12
 BYTE   N06  Gn3
 BYTE   W06
 BYTE   N60  An3
 BYTE   W12
 BYTE   VOL   58*CastlevaniaCircleoftheMoonAwakeRSflame_mvl/mxv
 BYTE   W03
 BYTE   VOL   56*CastlevaniaCircleoftheMoonAwakeRSflame_mvl/mxv
 BYTE   W03
 BYTE   VOL   54*CastlevaniaCircleoftheMoonAwakeRSflame_mvl/mxv
 BYTE   W03
 BYTE   VOL   52*CastlevaniaCircleoftheMoonAwakeRSflame_mvl/mxv
 BYTE   W03
 BYTE   VOL   50*CastlevaniaCircleoftheMoonAwakeRSflame_mvl/mxv
 BYTE   W03
 BYTE   VOL   49*CastlevaniaCircleoftheMoonAwakeRSflame_mvl/mxv
 BYTE   W03
 BYTE   VOL   46*CastlevaniaCircleoftheMoonAwakeRSflame_mvl/mxv
 BYTE   W03
 BYTE   VOL   44*CastlevaniaCircleoftheMoonAwakeRSflame_mvl/mxv
 BYTE   W03
 BYTE   VOL   39*CastlevaniaCircleoftheMoonAwakeRSflame_mvl/mxv
 BYTE   MOD 0
 BYTE   CnM2
 BYTE   N03  EnM2  v127
 BYTE   W03
 BYTE   VOL   37*CastlevaniaCircleoftheMoonAwakeRSflame_mvl/mxv
 BYTE   W03
 BYTE   VOL   35*CastlevaniaCircleoftheMoonAwakeRSflame_mvl/mxv
 BYTE   W03
 BYTE   VOL   34*CastlevaniaCircleoftheMoonAwakeRSflame_mvl/mxv
 BYTE   W03
 BYTE   VOL   32*CastlevaniaCircleoftheMoonAwakeRSflame_mvl/mxv
 BYTE   W03
 BYTE   VOL   31*CastlevaniaCircleoftheMoonAwakeRSflame_mvl/mxv
 BYTE   W03
 BYTE   VOL   30*CastlevaniaCircleoftheMoonAwakeRSflame_mvl/mxv
 BYTE   W03
 BYTE   VOL   30*CastlevaniaCircleoftheMoonAwakeRSflame_mvl/mxv
 BYTE   W03
// 002   ----------------------------------------
 BYTE   VOL   58*CastlevaniaCircleoftheMoonAwakeRSflame_mvl/mxv
 BYTE   PAN   c_v+6
 BYTE   MOD 0
 BYTE   CnM2
 BYTE   N12  CnM2  v127
 BYTE   N12  En4  v120
 BYTE   W12
 BYTE   N06  Dn4
 BYTE   W06
 BYTE   N12  Cn4
 BYTE   W12
 BYTE   N06  En4
 BYTE   W06
 BYTE   N24  Dn4
 BYTE   W24
 BYTE   VOL   59*CastlevaniaCircleoftheMoonAwakeRSflame_mvl/mxv
 BYTE   N24  An3  v120
 BYTE   W03
 BYTE   VOL   52*CastlevaniaCircleoftheMoonAwakeRSflame_mvl/mxv
 BYTE   W03
 BYTE   VOL   32*CastlevaniaCircleoftheMoonAwakeRSflame_mvl/mxv
 BYTE   W03
 BYTE   VOL   31*CastlevaniaCircleoftheMoonAwakeRSflame_mvl/mxv
 BYTE   W03
 BYTE   VOL   31*CastlevaniaCircleoftheMoonAwakeRSflame_mvl/mxv
 BYTE   MOD 0
 BYTE   CnM2
 BYTE   N03  DsM2  v120
 BYTE   W03
 BYTE   VOL   29*CastlevaniaCircleoftheMoonAwakeRSflame_mvl/mxv
 BYTE   W03
 BYTE   VOL   28*CastlevaniaCircleoftheMoonAwakeRSflame_mvl/mxv
 BYTE   W03
 BYTE   VOL   28*CastlevaniaCircleoftheMoonAwakeRSflame_mvl/mxv
 BYTE   W03
 BYTE   VOL   58*CastlevaniaCircleoftheMoonAwakeRSflame_mvl/mxv
 BYTE   MOD 0
 BYTE   CnM2
 BYTE   N06  CnM2  v120
 BYTE   N06  An3  v127
 BYTE   W06
 BYTE   Bn3
 BYTE   W06
// 003   ----------------------------------------
 BYTE   Cn4
 BYTE   W06
 BYTE   Bn3
 BYTE   W06
 BYTE   An3
 BYTE   W06
 BYTE   N12  Bn3
 BYTE   W12
 BYTE   N06  Gn3
 BYTE   W06
 BYTE   N84  An3
 BYTE   W12
 BYTE   VOL   58*CastlevaniaCircleoftheMoonAwakeRSflame_mvl/mxv
 BYTE   W03
 BYTE   VOL   56*CastlevaniaCircleoftheMoonAwakeRSflame_mvl/mxv
 BYTE   W03
 BYTE   VOL   54*CastlevaniaCircleoftheMoonAwakeRSflame_mvl/mxv
 BYTE   W03
 BYTE   VOL   52*CastlevaniaCircleoftheMoonAwakeRSflame_mvl/mxv
 BYTE   W03
 BYTE   VOL   50*CastlevaniaCircleoftheMoonAwakeRSflame_mvl/mxv
 BYTE   W03
 BYTE   VOL   49*CastlevaniaCircleoftheMoonAwakeRSflame_mvl/mxv
 BYTE   W03
 BYTE   VOL   46*CastlevaniaCircleoftheMoonAwakeRSflame_mvl/mxv
 BYTE   W03
 BYTE   VOL   44*CastlevaniaCircleoftheMoonAwakeRSflame_mvl/mxv
 BYTE   W03
 BYTE   VOL   39*CastlevaniaCircleoftheMoonAwakeRSflame_mvl/mxv
 BYTE   MOD 0
 BYTE   CnM2
 BYTE   N03  DsM2  v127
 BYTE   W03
 BYTE   VOL   37*CastlevaniaCircleoftheMoonAwakeRSflame_mvl/mxv
 BYTE   W03
 BYTE   VOL   35*CastlevaniaCircleoftheMoonAwakeRSflame_mvl/mxv
 BYTE   W03
 BYTE   VOL   34*CastlevaniaCircleoftheMoonAwakeRSflame_mvl/mxv
 BYTE   W03
 BYTE   VOL   32*CastlevaniaCircleoftheMoonAwakeRSflame_mvl/mxv
 BYTE   W03
 BYTE   VOL   31*CastlevaniaCircleoftheMoonAwakeRSflame_mvl/mxv
 BYTE   W03
 BYTE   VOL   30*CastlevaniaCircleoftheMoonAwakeRSflame_mvl/mxv
 BYTE   W03
 BYTE   VOL   30*CastlevaniaCircleoftheMoonAwakeRSflame_mvl/mxv
 BYTE   W03
// 004   ----------------------------------------
 BYTE   TEMPO   140*CastlevaniaCircleoftheMoonAwakeRSflame_tbs/2
 BYTE   MOD 0
 BYTE   CnM2
 BYTE   N24  CnM2  v127
 BYTE   W96
// 005   ----------------------------------------
 BYTE   W96
// 006   ----------------------------------------
 BYTE   W96
// 007   ----------------------------------------
 BYTE   VOL   58*CastlevaniaCircleoftheMoonAwakeRSflame_mvl/mxv
 BYTE   MOD 0
 BYTE   CnM2
 BYTE   N96  CnM2  v127
 BYTE   W96
// 008   ----------------------------------------
 BYTE   VOL   38*CastlevaniaCircleoftheMoonAwakeRSflame_mvl/mxv
 BYTE   PAN   c_v-24
 BYTE   N96  An2  v084
 BYTE   W96
// 009   ----------------------------------------
 BYTE   An2
 BYTE   W96
// 010   ----------------------------------------
Label_4_01EA3947:
 BYTE   N48  An2  v084
 BYTE   W48
 BYTE   Dn3
 BYTE   W48
 BYTE   PEND 
// 011   ----------------------------------------
Label_4_01EA394E:
 BYTE   N48  En3  v084
 BYTE   W48
 BYTE   An2
 BYTE   W48
 BYTE   PEND 
// 012   ----------------------------------------
 BYTE   N96  An2  v084
 BYTE   W96
// 013   ----------------------------------------
 BYTE   An2
 BYTE   W96
// 014   ----------------------------------------
 BYTE   Ds3
 BYTE   W96
// 015   ----------------------------------------
 BYTE   Bn2
 BYTE   W96
// 016   ----------------------------------------
 BYTE   Cn3
 BYTE   W96
// 017   ----------------------------------------
 BYTE   An2
 BYTE   W96
// 018   ----------------------------------------
 BYTE   PATT
  POIN2 Label_4_01EA3947
// 019   ----------------------------------------
 BYTE   PATT
  POIN2 Label_4_01EA394E
// 020   ----------------------------------------
 BYTE   N96  An2  v084
 BYTE   W96
// 021   ----------------------------------------
 BYTE   An2
 BYTE   W96
// 022   ----------------------------------------
 BYTE   Ds3
 BYTE   W96
// 023   ----------------------------------------
 BYTE   N48  En3
 BYTE   W48
 BYTE   Cn3
 BYTE   W48
// 024   ----------------------------------------
 BYTE   N96  Bn2
 BYTE   W96
// 025   ----------------------------------------
 BYTE   Bn2
 BYTE   W96
// 026   ----------------------------------------
 BYTE   N92  An2  v072
 BYTE   W96
// 027   ----------------------------------------
 BYTE   N96  Dn3
 BYTE   W96
// 028   ----------------------------------------
 BYTE   N44  Cn3  v048
 BYTE   W48
 BYTE   N48
 BYTE   W48
// 029   ----------------------------------------
 BYTE   Bn2
 BYTE   W48
 BYTE   Cs3
 BYTE   W48
// 030   ----------------------------------------
 BYTE   N92  Cn3
 BYTE   W96
// 031   ----------------------------------------
 BYTE   N96  Bn2
 BYTE   W96
// 032   ----------------------------------------
 BYTE   N44  En2
 BYTE   W48
 BYTE   N48  Dn2
 BYTE   W48
// 033   ----------------------------------------
 BYTE   Gn2
 BYTE   W48
 BYTE   Fs2
 BYTE   W48
// 034   ----------------------------------------
 BYTE   N96  Bn2
 BYTE   W96
// 035   ----------------------------------------
 BYTE   N84
 BYTE   W84
 BYTE   N02
 BYTE   W12
// 036   ----------------------------------------
 BYTE   VOL   34*CastlevaniaCircleoftheMoonAwakeRSflame_mvl/mxv
 BYTE   PAN   c_v-30
 BYTE   N24  An4  v076
 BYTE   W12
 BYTE   VOL   28*CastlevaniaCircleoftheMoonAwakeRSflame_mvl/mxv
 BYTE   W12
 BYTE   VOL   34*CastlevaniaCircleoftheMoonAwakeRSflame_mvl/mxv
 BYTE   N24  An4  v076
 BYTE   W12
 BYTE   VOL   28*CastlevaniaCircleoftheMoonAwakeRSflame_mvl/mxv
 BYTE   W12
 BYTE   VOL   34*CastlevaniaCircleoftheMoonAwakeRSflame_mvl/mxv
 BYTE   N24  An4  v076
 BYTE   W12
 BYTE   VOL   28*CastlevaniaCircleoftheMoonAwakeRSflame_mvl/mxv
 BYTE   W12
 BYTE   VOL   34*CastlevaniaCircleoftheMoonAwakeRSflame_mvl/mxv
 BYTE   N24  An4  v076
 BYTE   W12
 BYTE   VOL   28*CastlevaniaCircleoftheMoonAwakeRSflame_mvl/mxv
 BYTE   W12
// 037   ----------------------------------------
Label_4_01EA39CD:
 BYTE   VOL   34*CastlevaniaCircleoftheMoonAwakeRSflame_mvl/mxv
 BYTE   N24  An4  v076
 BYTE   W12
 BYTE   VOL   28*CastlevaniaCircleoftheMoonAwakeRSflame_mvl/mxv
 BYTE   W12
 BYTE   VOL   34*CastlevaniaCircleoftheMoonAwakeRSflame_mvl/mxv
 BYTE   N24  An4  v076
 BYTE   W12
 BYTE   VOL   28*CastlevaniaCircleoftheMoonAwakeRSflame_mvl/mxv
 BYTE   W12
 BYTE   VOL   34*CastlevaniaCircleoftheMoonAwakeRSflame_mvl/mxv
 BYTE   N24  An4  v076
 BYTE   W12
 BYTE   VOL   28*CastlevaniaCircleoftheMoonAwakeRSflame_mvl/mxv
 BYTE   W12
 BYTE   VOL   34*CastlevaniaCircleoftheMoonAwakeRSflame_mvl/mxv
 BYTE   N24  An4  v076
 BYTE   W12
 BYTE   VOL   28*CastlevaniaCircleoftheMoonAwakeRSflame_mvl/mxv
 BYTE   W12
 BYTE   PEND 
// 038   ----------------------------------------
 BYTE   PATT
  POIN2 Label_4_01EA39CD
// 039   ----------------------------------------
 BYTE   PATT
  POIN2 Label_4_01EA39CD
// 040   ----------------------------------------
 BYTE   PATT
  POIN2 Label_4_01EA39CD
// 041   ----------------------------------------
 BYTE   PATT
  POIN2 Label_4_01EA39CD
// 042   ----------------------------------------
 BYTE   PATT
  POIN2 Label_4_01EA39CD
// 043   ----------------------------------------
 BYTE   VOL   34*CastlevaniaCircleoftheMoonAwakeRSflame_mvl/mxv
 BYTE   N24  An4  v076
 BYTE   W12
 BYTE   VOL   28*CastlevaniaCircleoftheMoonAwakeRSflame_mvl/mxv
 BYTE   W12
 BYTE   VOL   34*CastlevaniaCircleoftheMoonAwakeRSflame_mvl/mxv
 BYTE   N24  An4  v076
 BYTE   W12
 BYTE   VOL   28*CastlevaniaCircleoftheMoonAwakeRSflame_mvl/mxv
 BYTE   W12
 BYTE   VOL   34*CastlevaniaCircleoftheMoonAwakeRSflame_mvl/mxv
 BYTE   N24  En4  v076
 BYTE   W12
 BYTE   VOL   28*CastlevaniaCircleoftheMoonAwakeRSflame_mvl/mxv
 BYTE   VOL   34*CastlevaniaCircleoftheMoonAwakeRSflame_mvl/mxv
 BYTE   VOL   28*CastlevaniaCircleoftheMoonAwakeRSflame_mvl/mxv
 BYTE   W12
 BYTE   GoTo
  POIN2 Label_4_01EA3814
 BYTE   FINE

//**************** Track 6 (Midi-Chn.5) ****************//

CastlevaniaCircleoftheMoonAwakeRSflame_006:
// 000   ----------------------------------------
Label_5_01EA2600:
 BYTE   TEMPO   100*CastlevaniaCircleoftheMoonAwakeRSflame_tbs/2
 BYTE   KEYSH   CastlevaniaCircleoftheMoonAwakeRSflame_key+0
 BYTE   VOICE   71
 BYTE   VOL   95*CastlevaniaCircleoftheMoonAwakeRSflame_mvl/mxv
 BYTE   PAN   c_v-14
 BYTE   MOD 0
 BYTE   CnM2
 BYTE   W54
 BYTE   N09  An3  v020
 BYTE   W06
 BYTE   N03  Fs3  v024
 BYTE   W06
 BYTE   N06  An3  v020
 BYTE   W06
 BYTE   Dn4  v024
 BYTE   W06
 BYTE   En4
 BYTE   W06
 BYTE   Dn4
 BYTE   W06
 BYTE   An3  v020
 BYTE   W06
// 001   ----------------------------------------
 BYTE   N05  An3  v036
 BYTE   W03
 BYTE   N02  Gs3  v008
 BYTE   W03
 BYTE   N03  An3  v036
 BYTE   W03
 BYTE   Gs3  v008
 BYTE   W03
 BYTE   An3  v036
 BYTE   W03
 BYTE   Gs3  v008
 BYTE   W03
 BYTE   Bn3  v028
 BYTE   W03
 BYTE   An3  v008
 BYTE   W03
 BYTE   Bn3  v028
 BYTE   W03
 BYTE   An3  v008
 BYTE   W03
 BYTE   Bn3  v028
 BYTE   W03
 BYTE   An3  v008
 BYTE   W03
 BYTE   N60  Cn4  v016
 BYTE   W36
 BYTE   VOL   70*CastlevaniaCircleoftheMoonAwakeRSflame_mvl/mxv
 BYTE   MOD 0
 BYTE   CnM2
 BYTE   N24  DsM2  v016
 BYTE   W24
// 002   ----------------------------------------
 BYTE   VOL   95*CastlevaniaCircleoftheMoonAwakeRSflame_mvl/mxv
 BYTE   MOD 0
 BYTE   CnM2
 BYTE   N54  CnM2  v016
 BYTE   W54
 BYTE   N09  An3  v020
 BYTE   W06
 BYTE   N03  Fs3  v024
 BYTE   W06
 BYTE   N06  An3  v020
 BYTE   W06
 BYTE   Dn4  v024
 BYTE   W06
 BYTE   En4
 BYTE   W06
 BYTE   Dn4
 BYTE   W06
 BYTE   An3  v020
 BYTE   W06
// 003   ----------------------------------------
 BYTE   N05  An3  v036
 BYTE   W03
 BYTE   N02  Gs3  v008
 BYTE   W03
 BYTE   N03  An3  v036
 BYTE   W03
 BYTE   Gs3  v008
 BYTE   W03
 BYTE   An3  v036
 BYTE   W03
 BYTE   Gs3  v008
 BYTE   W03
 BYTE   Bn3  v028
 BYTE   W03
 BYTE   An3  v008
 BYTE   W03
 BYTE   Bn3  v028
 BYTE   W03
 BYTE   An3  v008
 BYTE   W03
 BYTE   Bn3  v028
 BYTE   W03
 BYTE   An3  v008
 BYTE   W03
 BYTE   N60  Cs4  v016
 BYTE   W60
// 004   ----------------------------------------
 BYTE   TEMPO   140*CastlevaniaCircleoftheMoonAwakeRSflame_tbs/2
 BYTE   W96
// 005   ----------------------------------------
 BYTE   W96
// 006   ----------------------------------------
 BYTE   W96
// 007   ----------------------------------------
 BYTE   W96
// 008   ----------------------------------------
 BYTE   W96
// 009   ----------------------------------------
 BYTE   W96
// 010   ----------------------------------------
 BYTE   W96
// 011   ----------------------------------------
 BYTE   W24
 BYTE   N06  An3  v040
 BYTE   N06  Cn3  v024
 BYTE   W06
 BYTE   Cn4  v040
 BYTE   N06  En3  v024
 BYTE   W06
 BYTE   An3  v040
 BYTE   N06  Cn3  v024
 BYTE   W06
 BYTE   En4  v040
 BYTE   N06  Gn3  v024
 BYTE   W06
 BYTE   N04  Fs3
 BYTE   N06  Dn4  v020
 BYTE   W04
 BYTE   N04  Gn3  v024
 BYTE   N06  En4  v004
 BYTE   W04
 BYTE   N04  Fs3  v024
 BYTE   N06  Dn4  v020
 BYTE   W04
 BYTE   N04  Gn3  v024
 BYTE   N06  En4  v004
 BYTE   W04
 BYTE   N04  Fs3  v024
 BYTE   N06  Dn4  v020
 BYTE   W04
 BYTE   N04  Gn3  v024
 BYTE   N06  En4  v004
 BYTE   W04
 BYTE   N04  Fs3  v024
 BYTE   N06  Dn4  v020
 BYTE   W04
 BYTE   N04  Gn3  v024
 BYTE   N06  En4  v004
 BYTE   W04
 BYTE   N04  Fs3  v024
 BYTE   N06  Dn4  v020
 BYTE   W04
 BYTE   N04  Gn3  v024
 BYTE   N06  En4  v004
 BYTE   W04
 BYTE   N04  Fs3  v024
 BYTE   N06  Dn4  v020
 BYTE   W04
 BYTE   N02  En4  v004
 BYTE   W96
// 012   ----------------------------------------
 BYTE   W96
// 013   ----------------------------------------
 BYTE   W96
// 014   ----------------------------------------
 BYTE   W96
// 015   ----------------------------------------
 BYTE   W96
// 016   ----------------------------------------
 BYTE   W96
// 017   ----------------------------------------
 BYTE   W96
// 018   ----------------------------------------
 BYTE   W28
 BYTE   N06  An3  v044
 BYTE   N06  En3  v036
 BYTE   W06
 BYTE   Cn4
 BYTE   N06  Gn3
 BYTE   W06
 BYTE   An3  v044
 BYTE   N06  En3  v036
 BYTE   W06
 BYTE   En4  v020
 BYTE   N06  Bn3  v016
 BYTE   W06
 BYTE   N04  An3  v020
 BYTE   N06  Dn4  v028
 BYTE   W04
 BYTE   N04  Bn3  v020
 BYTE   N06  En4  v004
 BYTE   W04
 BYTE   N04  An3  v020
 BYTE   N06  Dn4  v028
 BYTE   W04
 BYTE   N04  Bn3  v020
 BYTE   N06  En4  v004
 BYTE   W04
 BYTE   N04  An3  v020
 BYTE   N06  Dn4  v028
 BYTE   W04
 BYTE   N04  Bn3  v020
 BYTE   N06  En4  v004
 BYTE   W04
 BYTE   N04  An3  v020
 BYTE   N06  Dn4  v028
 BYTE   W04
 BYTE   N04  Bn3  v020
 BYTE   N06  En4  v004
 BYTE   W04
 BYTE   N04  An3  v020
 BYTE   N06  Dn4  v028
 BYTE   W04
 BYTE   N04  Bn3  v020
 BYTE   N06  En4  v004
 BYTE   W04
 BYTE   N04  An3  v020
 BYTE   N06  Dn4  v028
 BYTE   W04
// 019   ----------------------------------------
 BYTE   N04  Bn3  v020
 BYTE   N06  En4  v004
 BYTE   W96
// 020   ----------------------------------------
 BYTE   W96
// 021   ----------------------------------------
 BYTE   W96
// 022   ----------------------------------------
 BYTE   W96
// 023   ----------------------------------------
 BYTE   W96
// 024   ----------------------------------------
 BYTE   W96
// 025   ----------------------------------------
 BYTE   W96
// 026   ----------------------------------------
 BYTE   W96
// 027   ----------------------------------------
 BYTE   W96
// 028   ----------------------------------------
 BYTE   W96
// 029   ----------------------------------------
 BYTE   W96
// 030   ----------------------------------------
 BYTE   W96
// 031   ----------------------------------------
 BYTE   W96
// 032   ----------------------------------------
 BYTE   W96
// 033   ----------------------------------------
 BYTE   W96
// 034   ----------------------------------------
 BYTE   W96
// 035   ----------------------------------------
 BYTE   W96
// 036   ----------------------------------------
 BYTE   W96
// 037   ----------------------------------------
 BYTE   W96
// 038   ----------------------------------------
 BYTE   W96
// 039   ----------------------------------------
 BYTE   W96
// 040   ----------------------------------------
 BYTE   W96
// 041   ----------------------------------------
 BYTE   W96
// 042   ----------------------------------------
 BYTE   W76
 BYTE   GoTo
  POIN2 Label_5_01EA2600
 BYTE   FINE

//**************** Track 7 (Midi-Chn.6) ****************//

CastlevaniaCircleoftheMoonAwakeRSflame_007:
// 000   ----------------------------------------
Label_6_01EA3B08:
 BYTE   TEMPO   100*CastlevaniaCircleoftheMoonAwakeRSflame_tbs/2
 BYTE   KEYSH   CastlevaniaCircleoftheMoonAwakeRSflame_key+0
 BYTE   VOICE   40
 BYTE   W96
// 001   ----------------------------------------
 BYTE   W96
// 002   ----------------------------------------
 BYTE   W96
// 003   ----------------------------------------
 BYTE   W96
// 004   ----------------------------------------
 BYTE   TEMPO   140*CastlevaniaCircleoftheMoonAwakeRSflame_tbs/2
 BYTE   W96
// 005   ----------------------------------------
 BYTE   W96
// 006   ----------------------------------------
 BYTE   W96
// 007   ----------------------------------------
 BYTE   W96
// 008   ----------------------------------------
 BYTE   VOL   58*CastlevaniaCircleoftheMoonAwakeRSflame_mvl/mxv
 BYTE   PAN   c_v+0
 BYTE   MOD 0
 BYTE   CnM2
 BYTE   N24  En4  v100
 BYTE   W12
 BYTE   VOL   53*CastlevaniaCircleoftheMoonAwakeRSflame_mvl/mxv
 BYTE   W06
 BYTE   VOL   48*CastlevaniaCircleoftheMoonAwakeRSflame_mvl/mxv
 BYTE   W03
 BYTE   VOL   45*CastlevaniaCircleoftheMoonAwakeRSflame_mvl/mxv
 BYTE   W03
 BYTE   VOL   58*CastlevaniaCircleoftheMoonAwakeRSflame_mvl/mxv
 BYTE   N24  An3  v096
 BYTE   W12
 BYTE   VOL   53*CastlevaniaCircleoftheMoonAwakeRSflame_mvl/mxv
 BYTE   W03
 BYTE   VOL   46*CastlevaniaCircleoftheMoonAwakeRSflame_mvl/mxv
 BYTE   W03
 BYTE   VOL   32*CastlevaniaCircleoftheMoonAwakeRSflame_mvl/mxv
 BYTE   W06
 BYTE   VOL   58*CastlevaniaCircleoftheMoonAwakeRSflame_mvl/mxv
 BYTE   N18  Fs4  v068
 BYTE   W12
 BYTE   VOL   47*CastlevaniaCircleoftheMoonAwakeRSflame_mvl/mxv
 BYTE   W03
 BYTE   VOL   39*CastlevaniaCircleoftheMoonAwakeRSflame_mvl/mxv
 BYTE   W03
 BYTE   VOL   58*CastlevaniaCircleoftheMoonAwakeRSflame_mvl/mxv
 BYTE   N18  Gn4  v056
 BYTE   W12
 BYTE   VOL   46*CastlevaniaCircleoftheMoonAwakeRSflame_mvl/mxv
 BYTE   W03
 BYTE   VOL   39*CastlevaniaCircleoftheMoonAwakeRSflame_mvl/mxv
 BYTE   W03
 BYTE   VOL   58*CastlevaniaCircleoftheMoonAwakeRSflame_mvl/mxv
 BYTE   N12  En4  v076
 BYTE   W06
 BYTE   VOL   48*CastlevaniaCircleoftheMoonAwakeRSflame_mvl/mxv
 BYTE   W03
 BYTE   VOL   43*CastlevaniaCircleoftheMoonAwakeRSflame_mvl/mxv
 BYTE   W03
// 009   ----------------------------------------
 BYTE   VOL   58*CastlevaniaCircleoftheMoonAwakeRSflame_mvl/mxv
 BYTE   N24  Fs4  v068
 BYTE   W12
 BYTE   VOL   46*CastlevaniaCircleoftheMoonAwakeRSflame_mvl/mxv
 BYTE   W06
 BYTE   VOL   41*CastlevaniaCircleoftheMoonAwakeRSflame_mvl/mxv
 BYTE   W06
 BYTE   VOL   58*CastlevaniaCircleoftheMoonAwakeRSflame_mvl/mxv
 BYTE   N24  En4  v068
 BYTE   W12
 BYTE   VOL   46*CastlevaniaCircleoftheMoonAwakeRSflame_mvl/mxv
 BYTE   W06
 BYTE   VOL   41*CastlevaniaCircleoftheMoonAwakeRSflame_mvl/mxv
 BYTE   W03
 BYTE   VOL   30*CastlevaniaCircleoftheMoonAwakeRSflame_mvl/mxv
 BYTE   W03
 BYTE   VOL   58*CastlevaniaCircleoftheMoonAwakeRSflame_mvl/mxv
 BYTE   N18  Dn4  v068
 BYTE   W12
 BYTE   VOL   53*CastlevaniaCircleoftheMoonAwakeRSflame_mvl/mxv
 BYTE   W03
 BYTE   VOL   41*CastlevaniaCircleoftheMoonAwakeRSflame_mvl/mxv
 BYTE   W03
 BYTE   VOL   58*CastlevaniaCircleoftheMoonAwakeRSflame_mvl/mxv
 BYTE   N18  An3  v092
 BYTE   W09
 BYTE   VOL   44*CastlevaniaCircleoftheMoonAwakeRSflame_mvl/mxv
 BYTE   W03
 BYTE   VOL   38*CastlevaniaCircleoftheMoonAwakeRSflame_mvl/mxv
 BYTE   W06
 BYTE   VOL   53*CastlevaniaCircleoftheMoonAwakeRSflame_mvl/mxv
 BYTE   N06  An3  v100
 BYTE   W06
 BYTE   Bn3
 BYTE   W06
// 010   ----------------------------------------
 BYTE   VOL   53*CastlevaniaCircleoftheMoonAwakeRSflame_mvl/mxv
 BYTE   N18  Cn4  v088
 BYTE   W12
 BYTE   VOL   44*CastlevaniaCircleoftheMoonAwakeRSflame_mvl/mxv
 BYTE   W06
 BYTE   VOL   58*CastlevaniaCircleoftheMoonAwakeRSflame_mvl/mxv
 BYTE   N18  Dn4  v076
 BYTE   W12
 BYTE   VOL   44*CastlevaniaCircleoftheMoonAwakeRSflame_mvl/mxv
 BYTE   W06
 BYTE   VOL   58*CastlevaniaCircleoftheMoonAwakeRSflame_mvl/mxv
 BYTE   N12  En4  v080
 BYTE   W06
 BYTE   VOL   50*CastlevaniaCircleoftheMoonAwakeRSflame_mvl/mxv
 BYTE   W06
 BYTE   VOL   58*CastlevaniaCircleoftheMoonAwakeRSflame_mvl/mxv
 BYTE   N18  Dn4  v076
 BYTE   W12
 BYTE   VOL   50*CastlevaniaCircleoftheMoonAwakeRSflame_mvl/mxv
 BYTE   W06
 BYTE   VOL   58*CastlevaniaCircleoftheMoonAwakeRSflame_mvl/mxv
 BYTE   N18  Cn4  v076
 BYTE   W12
 BYTE   VOL   50*CastlevaniaCircleoftheMoonAwakeRSflame_mvl/mxv
 BYTE   W06
 BYTE   VOL   58*CastlevaniaCircleoftheMoonAwakeRSflame_mvl/mxv
 BYTE   N12  Bn3  v092
 BYTE   W06
 BYTE   VOL   46*CastlevaniaCircleoftheMoonAwakeRSflame_mvl/mxv
 BYTE   W06
// 011   ----------------------------------------
 BYTE   VOL   58*CastlevaniaCircleoftheMoonAwakeRSflame_mvl/mxv
 BYTE   N96  An3  v096
 BYTE   W03
 BYTE   VOL   56*CastlevaniaCircleoftheMoonAwakeRSflame_mvl/mxv
 BYTE   W03
 BYTE   VOL   56*CastlevaniaCircleoftheMoonAwakeRSflame_mvl/mxv
 BYTE   W03
 BYTE   VOL   54*CastlevaniaCircleoftheMoonAwakeRSflame_mvl/mxv
 BYTE   W03
 BYTE   VOL   53*CastlevaniaCircleoftheMoonAwakeRSflame_mvl/mxv
 BYTE   W03
 BYTE   VOL   50*CastlevaniaCircleoftheMoonAwakeRSflame_mvl/mxv
 BYTE   W03
 BYTE   VOL   50*CastlevaniaCircleoftheMoonAwakeRSflame_mvl/mxv
 BYTE   W03
 BYTE   VOL   49*CastlevaniaCircleoftheMoonAwakeRSflame_mvl/mxv
 BYTE   W03
 BYTE   VOL   47*CastlevaniaCircleoftheMoonAwakeRSflame_mvl/mxv
 BYTE   W03
 BYTE   VOL   47*CastlevaniaCircleoftheMoonAwakeRSflame_mvl/mxv
 BYTE   W03
 BYTE   VOL   46*CastlevaniaCircleoftheMoonAwakeRSflame_mvl/mxv
 BYTE   W03
 BYTE   VOL   45*CastlevaniaCircleoftheMoonAwakeRSflame_mvl/mxv
 BYTE   W03
 BYTE   VOL   44*CastlevaniaCircleoftheMoonAwakeRSflame_mvl/mxv
 BYTE   W03
 BYTE   VOL   43*CastlevaniaCircleoftheMoonAwakeRSflame_mvl/mxv
 BYTE   W03
 BYTE   VOL   43*CastlevaniaCircleoftheMoonAwakeRSflame_mvl/mxv
 BYTE   W03
 BYTE   VOL   42*CastlevaniaCircleoftheMoonAwakeRSflame_mvl/mxv
 BYTE   W03
 BYTE   VOL   35*CastlevaniaCircleoftheMoonAwakeRSflame_mvl/mxv
 BYTE   MOD 0
 BYTE   CnM2
 BYTE   N03  FnM2  v096
 BYTE   W03
 BYTE   VOL   34*CastlevaniaCircleoftheMoonAwakeRSflame_mvl/mxv
 BYTE   W03
 BYTE   VOL   33*CastlevaniaCircleoftheMoonAwakeRSflame_mvl/mxv
 BYTE   W03
 BYTE   VOL   32*CastlevaniaCircleoftheMoonAwakeRSflame_mvl/mxv
 BYTE   W03
 BYTE   VOL   31*CastlevaniaCircleoftheMoonAwakeRSflame_mvl/mxv
 BYTE   W03
 BYTE   VOL   31*CastlevaniaCircleoftheMoonAwakeRSflame_mvl/mxv
 BYTE   W03
 BYTE   VOL   31*CastlevaniaCircleoftheMoonAwakeRSflame_mvl/mxv
 BYTE   W03
 BYTE   VOL   30*CastlevaniaCircleoftheMoonAwakeRSflame_mvl/mxv
 BYTE   W03
 BYTE   VOL   30*CastlevaniaCircleoftheMoonAwakeRSflame_mvl/mxv
 BYTE   W03
 BYTE   VOL   30*CastlevaniaCircleoftheMoonAwakeRSflame_mvl/mxv
 BYTE   W03
 BYTE   VOL   30*CastlevaniaCircleoftheMoonAwakeRSflame_mvl/mxv
 BYTE   W03
 BYTE   VOL   30*CastlevaniaCircleoftheMoonAwakeRSflame_mvl/mxv
 BYTE   W03
 BYTE   VOL   30*CastlevaniaCircleoftheMoonAwakeRSflame_mvl/mxv
 BYTE   W03
 BYTE   VOL   29*CastlevaniaCircleoftheMoonAwakeRSflame_mvl/mxv
 BYTE   W03
 BYTE   VOL   29*CastlevaniaCircleoftheMoonAwakeRSflame_mvl/mxv
 BYTE   W03
 BYTE   VOL   29*CastlevaniaCircleoftheMoonAwakeRSflame_mvl/mxv
 BYTE   W03
// 012   ----------------------------------------
 BYTE   VOL   58*CastlevaniaCircleoftheMoonAwakeRSflame_mvl/mxv
 BYTE   MOD 0
 BYTE   CnM2
 BYTE   N12  CnM2  v096
 BYTE   N24  En4  v080
 BYTE   W12
 BYTE   VOL   46*CastlevaniaCircleoftheMoonAwakeRSflame_mvl/mxv
 BYTE   W06
 BYTE   VOL   39*CastlevaniaCircleoftheMoonAwakeRSflame_mvl/mxv
 BYTE   W03
 BYTE   VOL   37*CastlevaniaCircleoftheMoonAwakeRSflame_mvl/mxv
 BYTE   W03
 BYTE   VOL   58*CastlevaniaCircleoftheMoonAwakeRSflame_mvl/mxv
 BYTE   N24  An3  v104
 BYTE   W12
 BYTE   VOL   38*CastlevaniaCircleoftheMoonAwakeRSflame_mvl/mxv
 BYTE   W06
 BYTE   VOL   32*CastlevaniaCircleoftheMoonAwakeRSflame_mvl/mxv
 BYTE   W03
 BYTE   VOL   31*CastlevaniaCircleoftheMoonAwakeRSflame_mvl/mxv
 BYTE   W03
 BYTE   VOL   58*CastlevaniaCircleoftheMoonAwakeRSflame_mvl/mxv
 BYTE   N18  Fs4  v068
 BYTE   W12
 BYTE   VOL   39*CastlevaniaCircleoftheMoonAwakeRSflame_mvl/mxv
 BYTE   W06
 BYTE   VOL   58*CastlevaniaCircleoftheMoonAwakeRSflame_mvl/mxv
 BYTE   N18  Gn4  v056
 BYTE   W12
 BYTE   VOL   44*CastlevaniaCircleoftheMoonAwakeRSflame_mvl/mxv
 BYTE   W06
 BYTE   VOL   58*CastlevaniaCircleoftheMoonAwakeRSflame_mvl/mxv
 BYTE   N12  En4  v072
 BYTE   W06
 BYTE   VOL   39*CastlevaniaCircleoftheMoonAwakeRSflame_mvl/mxv
 BYTE   W06
// 013   ----------------------------------------
 BYTE   VOL   58*CastlevaniaCircleoftheMoonAwakeRSflame_mvl/mxv
 BYTE   N24  Fs4  v068
 BYTE   W12
 BYTE   VOL   46*CastlevaniaCircleoftheMoonAwakeRSflame_mvl/mxv
 BYTE   W06
 BYTE   VOL   42*CastlevaniaCircleoftheMoonAwakeRSflame_mvl/mxv
 BYTE   W06
 BYTE   VOL   58*CastlevaniaCircleoftheMoonAwakeRSflame_mvl/mxv
 BYTE   N24  Dn4  v076
 BYTE   W12
 BYTE   VOL   45*CastlevaniaCircleoftheMoonAwakeRSflame_mvl/mxv
 BYTE   W06
 BYTE   VOL   35*CastlevaniaCircleoftheMoonAwakeRSflame_mvl/mxv
 BYTE   W03
 BYTE   VOL   32*CastlevaniaCircleoftheMoonAwakeRSflame_mvl/mxv
 BYTE   W03
 BYTE   VOL   58*CastlevaniaCircleoftheMoonAwakeRSflame_mvl/mxv
 BYTE   N18  Cn5  v048
 BYTE   W09
 BYTE   VOL   58*CastlevaniaCircleoftheMoonAwakeRSflame_mvl/mxv
 BYTE   W03
 BYTE   VOL   48*CastlevaniaCircleoftheMoonAwakeRSflame_mvl/mxv
 BYTE   W03
 BYTE   VOL   46*CastlevaniaCircleoftheMoonAwakeRSflame_mvl/mxv
 BYTE   W03
 BYTE   VOL   58*CastlevaniaCircleoftheMoonAwakeRSflame_mvl/mxv
 BYTE   N18  Bn4  v064
 BYTE   W12
 BYTE   VOL   48*CastlevaniaCircleoftheMoonAwakeRSflame_mvl/mxv
 BYTE   W06
 BYTE   VOL   58*CastlevaniaCircleoftheMoonAwakeRSflame_mvl/mxv
 BYTE   N12  Gs4  v072
 BYTE   W03
 BYTE   VOL   53*CastlevaniaCircleoftheMoonAwakeRSflame_mvl/mxv
 BYTE   W03
 BYTE   VOL   45*CastlevaniaCircleoftheMoonAwakeRSflame_mvl/mxv
 BYTE   W03
 BYTE   VOL   39*CastlevaniaCircleoftheMoonAwakeRSflame_mvl/mxv
 BYTE   W03
// 014   ----------------------------------------
 BYTE   VOL   58*CastlevaniaCircleoftheMoonAwakeRSflame_mvl/mxv
 BYTE   N36  An4  v076
 BYTE   W03
 BYTE   VOL   56*CastlevaniaCircleoftheMoonAwakeRSflame_mvl/mxv
 BYTE   W03
 BYTE   VOL   54*CastlevaniaCircleoftheMoonAwakeRSflame_mvl/mxv
 BYTE   W03
 BYTE   VOL   54*CastlevaniaCircleoftheMoonAwakeRSflame_mvl/mxv
 BYTE   W03
 BYTE   VOL   52*CastlevaniaCircleoftheMoonAwakeRSflame_mvl/mxv
 BYTE   W03
 BYTE   VOL   50*CastlevaniaCircleoftheMoonAwakeRSflame_mvl/mxv
 BYTE   W03
 BYTE   VOL   47*CastlevaniaCircleoftheMoonAwakeRSflame_mvl/mxv
 BYTE   W03
 BYTE   VOL   45*CastlevaniaCircleoftheMoonAwakeRSflame_mvl/mxv
 BYTE   W03
 BYTE   VOL   37*CastlevaniaCircleoftheMoonAwakeRSflame_mvl/mxv
 BYTE   MOD 0
 BYTE   CnM2
 BYTE   N03  DsM2  v076
 BYTE   W03
 BYTE   VOL   34*CastlevaniaCircleoftheMoonAwakeRSflame_mvl/mxv
 BYTE   W03
 BYTE   VOL   34*CastlevaniaCircleoftheMoonAwakeRSflame_mvl/mxv
 BYTE   W03
 BYTE   VOL   34*CastlevaniaCircleoftheMoonAwakeRSflame_mvl/mxv
 BYTE   W03
 BYTE   VOL   58*CastlevaniaCircleoftheMoonAwakeRSflame_mvl/mxv
 BYTE   MOD 0
 BYTE   CnM2
 BYTE   N06  CnM2  v076
 BYTE   N06  An4
 BYTE   W06
 BYTE   Gs4  v072
 BYTE   W06
 BYTE   N19  Fs4  v060
 BYTE   W12
 BYTE   VOL   44*CastlevaniaCircleoftheMoonAwakeRSflame_mvl/mxv
 BYTE   W06
 BYTE   VOL   58*CastlevaniaCircleoftheMoonAwakeRSflame_mvl/mxv
 BYTE   N19  Gs4  v072
 BYTE   W12
 BYTE   VOL   49*CastlevaniaCircleoftheMoonAwakeRSflame_mvl/mxv
 BYTE   W06
 BYTE   VOL   58*CastlevaniaCircleoftheMoonAwakeRSflame_mvl/mxv
 BYTE   N12  An4  v076
 BYTE   W06
 BYTE   VOL   42*CastlevaniaCircleoftheMoonAwakeRSflame_mvl/mxv
 BYTE   W03
 BYTE   VOL   32*CastlevaniaCircleoftheMoonAwakeRSflame_mvl/mxv
 BYTE   W03
// 015   ----------------------------------------
 BYTE   VOL   58*CastlevaniaCircleoftheMoonAwakeRSflame_mvl/mxv
 BYTE   N84  Bn4  v064
 BYTE   W48
 BYTE   VOL   47*CastlevaniaCircleoftheMoonAwakeRSflame_mvl/mxv
 BYTE   W06
 BYTE   VOL   43*CastlevaniaCircleoftheMoonAwakeRSflame_mvl/mxv
 BYTE   W06
 BYTE   VOL   42*CastlevaniaCircleoftheMoonAwakeRSflame_mvl/mxv
 BYTE   W06
 BYTE   VOL   39*CastlevaniaCircleoftheMoonAwakeRSflame_mvl/mxv
 BYTE   W06
 BYTE   VOL   38*CastlevaniaCircleoftheMoonAwakeRSflame_mvl/mxv
 BYTE   W06
 BYTE   VOL   38*CastlevaniaCircleoftheMoonAwakeRSflame_mvl/mxv
 BYTE   W06
 BYTE   VOL   58*CastlevaniaCircleoftheMoonAwakeRSflame_mvl/mxv
 BYTE   N06  Cn4  v088
 BYTE   W06
 BYTE   Dn4  v068
 BYTE   W06
// 016   ----------------------------------------
 BYTE   VOL   58*CastlevaniaCircleoftheMoonAwakeRSflame_mvl/mxv
 BYTE   PAN   c_v+0
 BYTE   MOD 0
 BYTE   CnM2
 BYTE   N12  CnM2  v068
 BYTE   N24  En4  v072
 BYTE   W12
 BYTE   VOL   53*CastlevaniaCircleoftheMoonAwakeRSflame_mvl/mxv
 BYTE   W03
 BYTE   VOL   46*CastlevaniaCircleoftheMoonAwakeRSflame_mvl/mxv
 BYTE   W03
 BYTE   VOL   39*CastlevaniaCircleoftheMoonAwakeRSflame_mvl/mxv
 BYTE   W03
 BYTE   VOL   38*CastlevaniaCircleoftheMoonAwakeRSflame_mvl/mxv
 BYTE   W03
 BYTE   VOL   58*CastlevaniaCircleoftheMoonAwakeRSflame_mvl/mxv
 BYTE   N24  An3  v092
 BYTE   W12
 BYTE   VOL   53*CastlevaniaCircleoftheMoonAwakeRSflame_mvl/mxv
 BYTE   W06
 BYTE   VOL   37*CastlevaniaCircleoftheMoonAwakeRSflame_mvl/mxv
 BYTE   W03
 BYTE   VOL   31*CastlevaniaCircleoftheMoonAwakeRSflame_mvl/mxv
 BYTE   W03
 BYTE   VOL   58*CastlevaniaCircleoftheMoonAwakeRSflame_mvl/mxv
 BYTE   N18  Fs4  v064
 BYTE   W12
 BYTE   VOL   43*CastlevaniaCircleoftheMoonAwakeRSflame_mvl/mxv
 BYTE   W06
 BYTE   VOL   58*CastlevaniaCircleoftheMoonAwakeRSflame_mvl/mxv
 BYTE   N18  Gn4  v056
 BYTE   W12
 BYTE   VOL   43*CastlevaniaCircleoftheMoonAwakeRSflame_mvl/mxv
 BYTE   W06
 BYTE   VOL   58*CastlevaniaCircleoftheMoonAwakeRSflame_mvl/mxv
 BYTE   N12  En4  v072
 BYTE   W06
 BYTE   VOL   41*CastlevaniaCircleoftheMoonAwakeRSflame_mvl/mxv
 BYTE   W06
// 017   ----------------------------------------
 BYTE   VOL   58*CastlevaniaCircleoftheMoonAwakeRSflame_mvl/mxv
 BYTE   N24  Fs4  v064
 BYTE   W12
 BYTE   VOL   50*CastlevaniaCircleoftheMoonAwakeRSflame_mvl/mxv
 BYTE   W06
 BYTE   VOL   39*CastlevaniaCircleoftheMoonAwakeRSflame_mvl/mxv
 BYTE   W06
 BYTE   VOL   58*CastlevaniaCircleoftheMoonAwakeRSflame_mvl/mxv
 BYTE   N24  En4  v068
 BYTE   W12
 BYTE   VOL   50*CastlevaniaCircleoftheMoonAwakeRSflame_mvl/mxv
 BYTE   W06
 BYTE   VOL   37*CastlevaniaCircleoftheMoonAwakeRSflame_mvl/mxv
 BYTE   W03
 BYTE   VOL   31*CastlevaniaCircleoftheMoonAwakeRSflame_mvl/mxv
 BYTE   W03
 BYTE   VOL   58*CastlevaniaCircleoftheMoonAwakeRSflame_mvl/mxv
 BYTE   N18  Dn4  v072
 BYTE   W12
 BYTE   VOL   53*CastlevaniaCircleoftheMoonAwakeRSflame_mvl/mxv
 BYTE   W03
 BYTE   VOL   38*CastlevaniaCircleoftheMoonAwakeRSflame_mvl/mxv
 BYTE   W03
 BYTE   VOL   58*CastlevaniaCircleoftheMoonAwakeRSflame_mvl/mxv
 BYTE   N18  An3  v096
 BYTE   W12
 BYTE   VOL   43*CastlevaniaCircleoftheMoonAwakeRSflame_mvl/mxv
 BYTE   W06
 BYTE   VOL   58*CastlevaniaCircleoftheMoonAwakeRSflame_mvl/mxv
 BYTE   N06  An3  v088
 BYTE   W06
 BYTE   Bn3
 BYTE   W06
// 018   ----------------------------------------
 BYTE   N18  Cn4
 BYTE   W12
 BYTE   VOL   46*CastlevaniaCircleoftheMoonAwakeRSflame_mvl/mxv
 BYTE   W06
 BYTE   VOL   58*CastlevaniaCircleoftheMoonAwakeRSflame_mvl/mxv
 BYTE   N18  Dn4  v076
 BYTE   W12
 BYTE   VOL   46*CastlevaniaCircleoftheMoonAwakeRSflame_mvl/mxv
 BYTE   W06
 BYTE   VOL   58*CastlevaniaCircleoftheMoonAwakeRSflame_mvl/mxv
 BYTE   N12  En4  v072
 BYTE   W06
 BYTE   VOL   50*CastlevaniaCircleoftheMoonAwakeRSflame_mvl/mxv
 BYTE   W03
 BYTE   VOL   42*CastlevaniaCircleoftheMoonAwakeRSflame_mvl/mxv
 BYTE   W03
 BYTE   VOL   58*CastlevaniaCircleoftheMoonAwakeRSflame_mvl/mxv
 BYTE   N18  Dn4  v076
 BYTE   W12
 BYTE   VOL   46*CastlevaniaCircleoftheMoonAwakeRSflame_mvl/mxv
 BYTE   W06
 BYTE   VOL   58*CastlevaniaCircleoftheMoonAwakeRSflame_mvl/mxv
 BYTE   N18  Cn4  v076
 BYTE   W12
 BYTE   VOL   46*CastlevaniaCircleoftheMoonAwakeRSflame_mvl/mxv
 BYTE   W06
 BYTE   VOL   58*CastlevaniaCircleoftheMoonAwakeRSflame_mvl/mxv
 BYTE   N12  Bn3  v088
 BYTE   W06
 BYTE   VOL   45*CastlevaniaCircleoftheMoonAwakeRSflame_mvl/mxv
 BYTE   W03
 BYTE   VOL   38*CastlevaniaCircleoftheMoonAwakeRSflame_mvl/mxv
 BYTE   W03
// 019   ----------------------------------------
 BYTE   VOL   56*CastlevaniaCircleoftheMoonAwakeRSflame_mvl/mxv
 BYTE   N96  An3  v100
 BYTE   W03
 BYTE   VOL   52*CastlevaniaCircleoftheMoonAwakeRSflame_mvl/mxv
 BYTE   W03
 BYTE   VOL   52*CastlevaniaCircleoftheMoonAwakeRSflame_mvl/mxv
 BYTE   W03
 BYTE   VOL   52*CastlevaniaCircleoftheMoonAwakeRSflame_mvl/mxv
 BYTE   W03
 BYTE   VOL   50*CastlevaniaCircleoftheMoonAwakeRSflame_mvl/mxv
 BYTE   W03
 BYTE   VOL   50*CastlevaniaCircleoftheMoonAwakeRSflame_mvl/mxv
 BYTE   W03
 BYTE   VOL   50*CastlevaniaCircleoftheMoonAwakeRSflame_mvl/mxv
 BYTE   W03
 BYTE   VOL   49*CastlevaniaCircleoftheMoonAwakeRSflame_mvl/mxv
 BYTE   W03
 BYTE   VOL   47*CastlevaniaCircleoftheMoonAwakeRSflame_mvl/mxv
 BYTE   W03
 BYTE   VOL   46*CastlevaniaCircleoftheMoonAwakeRSflame_mvl/mxv
 BYTE   W03
 BYTE   VOL   44*CastlevaniaCircleoftheMoonAwakeRSflame_mvl/mxv
 BYTE   W03
 BYTE   VOL   43*CastlevaniaCircleoftheMoonAwakeRSflame_mvl/mxv
 BYTE   W03
 BYTE   VOL   41*CastlevaniaCircleoftheMoonAwakeRSflame_mvl/mxv
 BYTE   W03
 BYTE   VOL   39*CastlevaniaCircleoftheMoonAwakeRSflame_mvl/mxv
 BYTE   W03
 BYTE   VOL   39*CastlevaniaCircleoftheMoonAwakeRSflame_mvl/mxv
 BYTE   W03
 BYTE   VOL   39*CastlevaniaCircleoftheMoonAwakeRSflame_mvl/mxv
 BYTE   W03
 BYTE   VOL   34*CastlevaniaCircleoftheMoonAwakeRSflame_mvl/mxv
 BYTE   MOD 0
 BYTE   CnM2
 BYTE   N03  EnM2  v100
 BYTE   W03
 BYTE   VOL   32*CastlevaniaCircleoftheMoonAwakeRSflame_mvl/mxv
 BYTE   W03
 BYTE   VOL   32*CastlevaniaCircleoftheMoonAwakeRSflame_mvl/mxv
 BYTE   W03
 BYTE   VOL   32*CastlevaniaCircleoftheMoonAwakeRSflame_mvl/mxv
 BYTE   W03
 BYTE   VOL   31*CastlevaniaCircleoftheMoonAwakeRSflame_mvl/mxv
 BYTE   W03
 BYTE   VOL   31*CastlevaniaCircleoftheMoonAwakeRSflame_mvl/mxv
 BYTE   W03
 BYTE   VOL   30*CastlevaniaCircleoftheMoonAwakeRSflame_mvl/mxv
 BYTE   W03
 BYTE   VOL   29*CastlevaniaCircleoftheMoonAwakeRSflame_mvl/mxv
 BYTE   W03
 BYTE   VOL   29*CastlevaniaCircleoftheMoonAwakeRSflame_mvl/mxv
 BYTE   W03
 BYTE   VOL   28*CastlevaniaCircleoftheMoonAwakeRSflame_mvl/mxv
 BYTE   W03
 BYTE   VOL   28*CastlevaniaCircleoftheMoonAwakeRSflame_mvl/mxv
 BYTE   W03
 BYTE   VOL   29*CastlevaniaCircleoftheMoonAwakeRSflame_mvl/mxv
 BYTE   W03
 BYTE   VOL   29*CastlevaniaCircleoftheMoonAwakeRSflame_mvl/mxv
 BYTE   W03
 BYTE   VOL   29*CastlevaniaCircleoftheMoonAwakeRSflame_mvl/mxv
 BYTE   W03
 BYTE   VOL   29*CastlevaniaCircleoftheMoonAwakeRSflame_mvl/mxv
 BYTE   W03
 BYTE   VOL   29*CastlevaniaCircleoftheMoonAwakeRSflame_mvl/mxv
 BYTE   W03
// 020   ----------------------------------------
 BYTE   VOL   58*CastlevaniaCircleoftheMoonAwakeRSflame_mvl/mxv
 BYTE   MOD 0
 BYTE   CnM2
 BYTE   N02  CnM2  v100
 BYTE   N24  En4  v084
 BYTE   W12
 BYTE   VOL   53*CastlevaniaCircleoftheMoonAwakeRSflame_mvl/mxv
 BYTE   W06
 BYTE   VOL   50*CastlevaniaCircleoftheMoonAwakeRSflame_mvl/mxv
 BYTE   W03
 BYTE   VOL   37*CastlevaniaCircleoftheMoonAwakeRSflame_mvl/mxv
 BYTE   W03
 BYTE   VOL   58*CastlevaniaCircleoftheMoonAwakeRSflame_mvl/mxv
 BYTE   N24  An3  v076
 BYTE   W12
 BYTE   VOL   53*CastlevaniaCircleoftheMoonAwakeRSflame_mvl/mxv
 BYTE   W06
 BYTE   VOL   35*CastlevaniaCircleoftheMoonAwakeRSflame_mvl/mxv
 BYTE   W03
 BYTE   VOL   31*CastlevaniaCircleoftheMoonAwakeRSflame_mvl/mxv
 BYTE   W03
 BYTE   VOL   58*CastlevaniaCircleoftheMoonAwakeRSflame_mvl/mxv
 BYTE   N18  Fs4  v064
 BYTE   W12
 BYTE   VOL   46*CastlevaniaCircleoftheMoonAwakeRSflame_mvl/mxv
 BYTE   W06
 BYTE   VOL   58*CastlevaniaCircleoftheMoonAwakeRSflame_mvl/mxv
 BYTE   N18  Gn4  v056
 BYTE   W12
 BYTE   VOL   43*CastlevaniaCircleoftheMoonAwakeRSflame_mvl/mxv
 BYTE   W06
 BYTE   VOL   58*CastlevaniaCircleoftheMoonAwakeRSflame_mvl/mxv
 BYTE   N12  En4  v072
 BYTE   W06
 BYTE   VOL   42*CastlevaniaCircleoftheMoonAwakeRSflame_mvl/mxv
 BYTE   W03
 BYTE   VOL   34*CastlevaniaCircleoftheMoonAwakeRSflame_mvl/mxv
 BYTE   W03
// 021   ----------------------------------------
 BYTE   VOL   58*CastlevaniaCircleoftheMoonAwakeRSflame_mvl/mxv
 BYTE   N24  Fs4  v076
 BYTE   W12
 BYTE   VOL   53*CastlevaniaCircleoftheMoonAwakeRSflame_mvl/mxv
 BYTE   W06
 BYTE   VOL   43*CastlevaniaCircleoftheMoonAwakeRSflame_mvl/mxv
 BYTE   W06
 BYTE   VOL   58*CastlevaniaCircleoftheMoonAwakeRSflame_mvl/mxv
 BYTE   N24  Dn4  v084
 BYTE   W12
 BYTE   VOL   44*CastlevaniaCircleoftheMoonAwakeRSflame_mvl/mxv
 BYTE   W03
 BYTE   VOL   42*CastlevaniaCircleoftheMoonAwakeRSflame_mvl/mxv
 BYTE   W03
 BYTE   VOL   37*CastlevaniaCircleoftheMoonAwakeRSflame_mvl/mxv
 BYTE   W06
 BYTE   VOL   58*CastlevaniaCircleoftheMoonAwakeRSflame_mvl/mxv
 BYTE   N18  Cn5  v044
 BYTE   W12
 BYTE   VOL   50*CastlevaniaCircleoftheMoonAwakeRSflame_mvl/mxv
 BYTE   W06
 BYTE   VOL   58*CastlevaniaCircleoftheMoonAwakeRSflame_mvl/mxv
 BYTE   N18  Bn4  v060
 BYTE   W12
 BYTE   VOL   44*CastlevaniaCircleoftheMoonAwakeRSflame_mvl/mxv
 BYTE   W06
 BYTE   VOL   55*CastlevaniaCircleoftheMoonAwakeRSflame_mvl/mxv
 BYTE   N12  Gs4  v068
 BYTE   W06
 BYTE   VOL   42*CastlevaniaCircleoftheMoonAwakeRSflame_mvl/mxv
 BYTE   W03
 BYTE   VOL   35*CastlevaniaCircleoftheMoonAwakeRSflame_mvl/mxv
 BYTE   W03
// 022   ----------------------------------------
 BYTE   VOL   58*CastlevaniaCircleoftheMoonAwakeRSflame_mvl/mxv
 BYTE   N36  An4  v080
 BYTE   W03
 BYTE   VOL   52*CastlevaniaCircleoftheMoonAwakeRSflame_mvl/mxv
 BYTE   W03
 BYTE   VOL   52*CastlevaniaCircleoftheMoonAwakeRSflame_mvl/mxv
 BYTE   W03
 BYTE   VOL   52*CastlevaniaCircleoftheMoonAwakeRSflame_mvl/mxv
 BYTE   W03
 BYTE   VOL   50*CastlevaniaCircleoftheMoonAwakeRSflame_mvl/mxv
 BYTE   W03
 BYTE   VOL   49*CastlevaniaCircleoftheMoonAwakeRSflame_mvl/mxv
 BYTE   W03
 BYTE   VOL   49*CastlevaniaCircleoftheMoonAwakeRSflame_mvl/mxv
 BYTE   W03
 BYTE   VOL   47*CastlevaniaCircleoftheMoonAwakeRSflame_mvl/mxv
 BYTE   W03
 BYTE   VOL   41*CastlevaniaCircleoftheMoonAwakeRSflame_mvl/mxv
 BYTE   W03
 BYTE   VOL   38*CastlevaniaCircleoftheMoonAwakeRSflame_mvl/mxv
 BYTE   W03
 BYTE   VOL   34*CastlevaniaCircleoftheMoonAwakeRSflame_mvl/mxv
 BYTE   W03
 BYTE   VOL   30*CastlevaniaCircleoftheMoonAwakeRSflame_mvl/mxv
 BYTE   W03
 BYTE   VOL   58*CastlevaniaCircleoftheMoonAwakeRSflame_mvl/mxv
 BYTE   N06  An4  v072
 BYTE   W06
 BYTE   Gs4
 BYTE   W06
 BYTE   N19  Fs4  v064
 BYTE   W18
 BYTE   N18  Gs4  v068
 BYTE   W18
 BYTE   VOL   58*CastlevaniaCircleoftheMoonAwakeRSflame_mvl/mxv
 BYTE   N12  An4  v080
 BYTE   W06
 BYTE   VOL   41*CastlevaniaCircleoftheMoonAwakeRSflame_mvl/mxv
 BYTE   W03
 BYTE   VOL   31*CastlevaniaCircleoftheMoonAwakeRSflame_mvl/mxv
 BYTE   W03
// 023   ----------------------------------------
 BYTE   VOL   58*CastlevaniaCircleoftheMoonAwakeRSflame_mvl/mxv
 BYTE   N48  Bn4  v060
 BYTE   W24
 BYTE   VOL   45*CastlevaniaCircleoftheMoonAwakeRSflame_mvl/mxv
 BYTE   W03
 BYTE   VOL   44*CastlevaniaCircleoftheMoonAwakeRSflame_mvl/mxv
 BYTE   W03
 BYTE   VOL   43*CastlevaniaCircleoftheMoonAwakeRSflame_mvl/mxv
 BYTE   W03
 BYTE   VOL   43*CastlevaniaCircleoftheMoonAwakeRSflame_mvl/mxv
 BYTE   W03
 BYTE   VOL   42*CastlevaniaCircleoftheMoonAwakeRSflame_mvl/mxv
 BYTE   W03
 BYTE   VOL   41*CastlevaniaCircleoftheMoonAwakeRSflame_mvl/mxv
 BYTE   W03
 BYTE   VOL   35*CastlevaniaCircleoftheMoonAwakeRSflame_mvl/mxv
 BYTE   W03
 BYTE   VOL   29*CastlevaniaCircleoftheMoonAwakeRSflame_mvl/mxv
 BYTE   W03
 BYTE   VOL   58*CastlevaniaCircleoftheMoonAwakeRSflame_mvl/mxv
 BYTE   N24  Cn5  v048
 BYTE   W12
 BYTE   VOL   45*CastlevaniaCircleoftheMoonAwakeRSflame_mvl/mxv
 BYTE   W03
 BYTE   VOL   45*CastlevaniaCircleoftheMoonAwakeRSflame_mvl/mxv
 BYTE   W03
 BYTE   VOL   37*CastlevaniaCircleoftheMoonAwakeRSflame_mvl/mxv
 BYTE   W03
 BYTE   VOL   32*CastlevaniaCircleoftheMoonAwakeRSflame_mvl/mxv
 BYTE   W03
 BYTE   VOL   58*CastlevaniaCircleoftheMoonAwakeRSflame_mvl/mxv
 BYTE   N24  Dn5  v044
 BYTE   W12
 BYTE   VOL   39*CastlevaniaCircleoftheMoonAwakeRSflame_mvl/mxv
 BYTE   W03
 BYTE   VOL   39*CastlevaniaCircleoftheMoonAwakeRSflame_mvl/mxv
 BYTE   W03
 BYTE   VOL   35*CastlevaniaCircleoftheMoonAwakeRSflame_mvl/mxv
 BYTE   W03
 BYTE   VOL   29*CastlevaniaCircleoftheMoonAwakeRSflame_mvl/mxv
 BYTE   W03
// 024   ----------------------------------------
 BYTE   VOL   58*CastlevaniaCircleoftheMoonAwakeRSflame_mvl/mxv
 BYTE   N96  Bn4  v060
 BYTE   W96
// 025   ----------------------------------------
 BYTE   VOL   46*CastlevaniaCircleoftheMoonAwakeRSflame_mvl/mxv
 BYTE   N84  Bn4  v060
 BYTE   W06
 BYTE   VOL   43*CastlevaniaCircleoftheMoonAwakeRSflame_mvl/mxv
 BYTE   W06
 BYTE   VOL   41*CastlevaniaCircleoftheMoonAwakeRSflame_mvl/mxv
 BYTE   W06
 BYTE   VOL   39*CastlevaniaCircleoftheMoonAwakeRSflame_mvl/mxv
 BYTE   W06
 BYTE   VOL   38*CastlevaniaCircleoftheMoonAwakeRSflame_mvl/mxv
 BYTE   W06
 BYTE   VOL   34*CastlevaniaCircleoftheMoonAwakeRSflame_mvl/mxv
 BYTE   W06
 BYTE   VOL   35*CastlevaniaCircleoftheMoonAwakeRSflame_mvl/mxv
 BYTE   W06
 BYTE   VOL   34*CastlevaniaCircleoftheMoonAwakeRSflame_mvl/mxv
 BYTE   W06
 BYTE   VOL   33*CastlevaniaCircleoftheMoonAwakeRSflame_mvl/mxv
 BYTE   W06
 BYTE   VOL   31*CastlevaniaCircleoftheMoonAwakeRSflame_mvl/mxv
 BYTE   W06
 BYTE   VOL   30*CastlevaniaCircleoftheMoonAwakeRSflame_mvl/mxv
 BYTE   W06
 BYTE   VOL   30*CastlevaniaCircleoftheMoonAwakeRSflame_mvl/mxv
 BYTE   W06
 BYTE   VOL   29*CastlevaniaCircleoftheMoonAwakeRSflame_mvl/mxv
 BYTE   W06
 BYTE   VOL   28*CastlevaniaCircleoftheMoonAwakeRSflame_mvl/mxv
 BYTE   W06
 BYTE   VOL   28*CastlevaniaCircleoftheMoonAwakeRSflame_mvl/mxv
 BYTE   W06
 BYTE   VOL   28*CastlevaniaCircleoftheMoonAwakeRSflame_mvl/mxv
 BYTE   W96
// 026   ----------------------------------------
 BYTE   W96
// 027   ----------------------------------------
 BYTE   W96
// 028   ----------------------------------------
 BYTE   W96
// 029   ----------------------------------------
 BYTE   W96
// 030   ----------------------------------------
 BYTE   W96
// 031   ----------------------------------------
 BYTE   W96
// 032   ----------------------------------------
 BYTE   W96
// 033   ----------------------------------------
 BYTE   W96
// 034   ----------------------------------------
 BYTE   W96
// 035   ----------------------------------------
 BYTE   W06
 BYTE   VOL   34*CastlevaniaCircleoftheMoonAwakeRSflame_mvl/mxv
 BYTE   PAN   c_v+30
 BYTE   N24  An3  v088
 BYTE   W12
 BYTE   VOL   28*CastlevaniaCircleoftheMoonAwakeRSflame_mvl/mxv
 BYTE   W12
 BYTE   VOL   34*CastlevaniaCircleoftheMoonAwakeRSflame_mvl/mxv
 BYTE   N24  An3  v088
 BYTE   W12
 BYTE   VOL   28*CastlevaniaCircleoftheMoonAwakeRSflame_mvl/mxv
 BYTE   W12
 BYTE   VOL   34*CastlevaniaCircleoftheMoonAwakeRSflame_mvl/mxv
 BYTE   N24  An3  v088
 BYTE   W12
 BYTE   VOL   28*CastlevaniaCircleoftheMoonAwakeRSflame_mvl/mxv
 BYTE   W12
 BYTE   VOL   34*CastlevaniaCircleoftheMoonAwakeRSflame_mvl/mxv
 BYTE   N24  An3  v088
 BYTE   W12
 BYTE   VOL   28*CastlevaniaCircleoftheMoonAwakeRSflame_mvl/mxv
 BYTE   W12
// 036   ----------------------------------------
Label_6_01EA3FB1:
 BYTE   VOL   34*CastlevaniaCircleoftheMoonAwakeRSflame_mvl/mxv
 BYTE   N24  An3  v088
 BYTE   W12
 BYTE   VOL   28*CastlevaniaCircleoftheMoonAwakeRSflame_mvl/mxv
 BYTE   W12
 BYTE   VOL   34*CastlevaniaCircleoftheMoonAwakeRSflame_mvl/mxv
 BYTE   N24  An3  v088
 BYTE   W12
 BYTE   VOL   28*CastlevaniaCircleoftheMoonAwakeRSflame_mvl/mxv
 BYTE   W12
 BYTE   VOL   34*CastlevaniaCircleoftheMoonAwakeRSflame_mvl/mxv
 BYTE   N24  An3  v088
 BYTE   W12
 BYTE   VOL   28*CastlevaniaCircleoftheMoonAwakeRSflame_mvl/mxv
 BYTE   W12
 BYTE   VOL   34*CastlevaniaCircleoftheMoonAwakeRSflame_mvl/mxv
 BYTE   N24  An3  v088
 BYTE   W12
 BYTE   VOL   28*CastlevaniaCircleoftheMoonAwakeRSflame_mvl/mxv
 BYTE   W12
 BYTE   PEND 
// 037   ----------------------------------------
Label_6_01EA3FD6:
 BYTE   VOL   34*CastlevaniaCircleoftheMoonAwakeRSflame_mvl/mxv
 BYTE   W12
 BYTE   VOL   28*CastlevaniaCircleoftheMoonAwakeRSflame_mvl/mxv
 BYTE   W12
 BYTE   VOL   34*CastlevaniaCircleoftheMoonAwakeRSflame_mvl/mxv
 BYTE   N24  An3  v088
 BYTE   W12
 BYTE   VOL   28*CastlevaniaCircleoftheMoonAwakeRSflame_mvl/mxv
 BYTE   W12
 BYTE   VOL   34*CastlevaniaCircleoftheMoonAwakeRSflame_mvl/mxv
 BYTE   N24  An3  v088
 BYTE   W12
 BYTE   VOL   28*CastlevaniaCircleoftheMoonAwakeRSflame_mvl/mxv
 BYTE   W12
 BYTE   VOL   34*CastlevaniaCircleoftheMoonAwakeRSflame_mvl/mxv
 BYTE   N24  An3  v088
 BYTE   W12
 BYTE   VOL   28*CastlevaniaCircleoftheMoonAwakeRSflame_mvl/mxv
 BYTE   W12
 BYTE   PEND 
// 038   ----------------------------------------
 BYTE   PATT
  POIN2 Label_6_01EA3FB1
// 039   ----------------------------------------
 BYTE   PATT
  POIN2 Label_6_01EA3FB1
// 040   ----------------------------------------
 BYTE   PATT
  POIN2 Label_6_01EA3FB1
// 041   ----------------------------------------
 BYTE   PATT
  POIN2 Label_6_01EA3FD6
// 042   ----------------------------------------
 BYTE   VOL   34*CastlevaniaCircleoftheMoonAwakeRSflame_mvl/mxv
 BYTE   N24  An3  v088
 BYTE   W12
 BYTE   VOL   28*CastlevaniaCircleoftheMoonAwakeRSflame_mvl/mxv
 BYTE   W12
 BYTE   VOL   34*CastlevaniaCircleoftheMoonAwakeRSflame_mvl/mxv
 BYTE   N24  An3  v088
 BYTE   W12
 BYTE   VOL   28*CastlevaniaCircleoftheMoonAwakeRSflame_mvl/mxv
 BYTE   W12
 BYTE   VOL   34*CastlevaniaCircleoftheMoonAwakeRSflame_mvl/mxv
 BYTE   N24  En3  v088
 BYTE   W12
 BYTE   VOL   28*CastlevaniaCircleoftheMoonAwakeRSflame_mvl/mxv
 BYTE   VOL   34*CastlevaniaCircleoftheMoonAwakeRSflame_mvl/mxv
 BYTE   VOL   28*CastlevaniaCircleoftheMoonAwakeRSflame_mvl/mxv
 BYTE   W12
 BYTE   GoTo
  POIN2 Label_6_01EA3B08
 BYTE   FINE

//**************** Track 8 (Midi-Chn.7) ****************//

CastlevaniaCircleoftheMoonAwakeRSflame_008:
// 000   ----------------------------------------
Label_7_01EA4FE0:
 BYTE   TEMPO   100*CastlevaniaCircleoftheMoonAwakeRSflame_tbs/2
 BYTE   KEYSH   CastlevaniaCircleoftheMoonAwakeRSflame_key+0
 BYTE   VOICE   33
 BYTE   VOL   73*CastlevaniaCircleoftheMoonAwakeRSflame_mvl/mxv
 BYTE   PAN   c_v+0
 BYTE   MOD 0
 BYTE   CnM2
 BYTE   W96
// 001   ----------------------------------------
 BYTE   W96
// 002   ----------------------------------------
 BYTE   BEND   c_v+0
 BYTE   N12  An1  v080
 BYTE   W12
 BYTE   VOL   53*CastlevaniaCircleoftheMoonAwakeRSflame_mvl/mxv
 BYTE   N05  En1  v052
 BYTE   W06
 BYTE   VOL   70*CastlevaniaCircleoftheMoonAwakeRSflame_mvl/mxv
 BYTE   N12  Gn1  v080
 BYTE   W12
 BYTE   VOL   53*CastlevaniaCircleoftheMoonAwakeRSflame_mvl/mxv
 BYTE   N05  En1  v052
 BYTE   W06
 BYTE   VOL   70*CastlevaniaCircleoftheMoonAwakeRSflame_mvl/mxv
 BYTE   N24  Fs1  v080
 BYTE   W12
 BYTE   VOL   46*CastlevaniaCircleoftheMoonAwakeRSflame_mvl/mxv
 BYTE   W12
 BYTE   VOL   70*CastlevaniaCircleoftheMoonAwakeRSflame_mvl/mxv
 BYTE   N24  Dn1  v036
 BYTE   W06
 BYTE   VOL   34*CastlevaniaCircleoftheMoonAwakeRSflame_mvl/mxv
 BYTE   W18
 BYTE   VOL   70*CastlevaniaCircleoftheMoonAwakeRSflame_mvl/mxv
 BYTE   N05  Dn1  v044
 BYTE   W06
 BYTE   N06  En1  v052
 BYTE   W06
// 003   ----------------------------------------
 BYTE   N12  Fn1  v080
 BYTE   W12
 BYTE   VOL   53*CastlevaniaCircleoftheMoonAwakeRSflame_mvl/mxv
 BYTE   N05  Cn1  v052
 BYTE   W06
 BYTE   VOL   70*CastlevaniaCircleoftheMoonAwakeRSflame_mvl/mxv
 BYTE   N12  Gn1  v080
 BYTE   W12
 BYTE   VOL   53*CastlevaniaCircleoftheMoonAwakeRSflame_mvl/mxv
 BYTE   N05  Cn1  v052
 BYTE   W06
 BYTE   VOL   70*CastlevaniaCircleoftheMoonAwakeRSflame_mvl/mxv
 BYTE   N84  An1  v068
 BYTE   W12
 BYTE   VOL   55*CastlevaniaCircleoftheMoonAwakeRSflame_mvl/mxv
 BYTE   W24
 BYTE   VOL   41*CastlevaniaCircleoftheMoonAwakeRSflame_mvl/mxv
 BYTE   W24
// 004   ----------------------------------------
 BYTE   TEMPO   140*CastlevaniaCircleoftheMoonAwakeRSflame_tbs/2
 BYTE   W96
// 005   ----------------------------------------
 BYTE   W96
// 006   ----------------------------------------
 BYTE   W96
// 007   ----------------------------------------
 BYTE   VOL   63*CastlevaniaCircleoftheMoonAwakeRSflame_mvl/mxv
 BYTE   W60
 BYTE   N06  En1  v092
 BYTE   W06
 BYTE   En1
 BYTE   W06
 BYTE   BEND   c_v+0
 BYTE   N24  En2  v044
 BYTE   W01
 BYTE   BEND   c_v+0
 BYTE   W02
 BYTE   BEND   c_v+0
 BYTE   W01
 BYTE   BEND   c_v+0
 BYTE   W02
 BYTE   BEND   c_v+0
 BYTE   W01
 BYTE   BEND   c_v+0
 BYTE   W02
 BYTE   BEND   c_v+0
 BYTE   W01
 BYTE   BEND   c_v+0
 BYTE   W02
 BYTE   BEND   c_v-7
 BYTE   W01
 BYTE   BEND   c_v-11
 BYTE   W02
 BYTE   BEND   c_v-19
 BYTE   W01
 BYTE   BEND   c_v-24
 BYTE   W02
 BYTE   BEND   c_v-28
 BYTE   W01
 BYTE   BEND   c_v-34
 BYTE   W02
 BYTE   BEND   c_v-39
 BYTE   W01
 BYTE   BEND   c_v-45
 BYTE   W02
// 008   ----------------------------------------
 BYTE   VOL   63*CastlevaniaCircleoftheMoonAwakeRSflame_mvl/mxv
 BYTE   BEND   c_v+0
 BYTE   N24  An0  v100
 BYTE   W03
 BYTE   VOL   60*CastlevaniaCircleoftheMoonAwakeRSflame_mvl/mxv
 BYTE   W03
 BYTE   VOL   56*CastlevaniaCircleoftheMoonAwakeRSflame_mvl/mxv
 BYTE   W03
 BYTE   VOL   55*CastlevaniaCircleoftheMoonAwakeRSflame_mvl/mxv
 BYTE   W03
 BYTE   VOL   50*CastlevaniaCircleoftheMoonAwakeRSflame_mvl/mxv
 BYTE   W03
 BYTE   VOL   41*CastlevaniaCircleoftheMoonAwakeRSflame_mvl/mxv
 BYTE   W03
 BYTE   VOL   34*CastlevaniaCircleoftheMoonAwakeRSflame_mvl/mxv
 BYTE   W06
 BYTE   VOL   63*CastlevaniaCircleoftheMoonAwakeRSflame_mvl/mxv
 BYTE   N24  An0  v100
 BYTE   W03
 BYTE   VOL   60*CastlevaniaCircleoftheMoonAwakeRSflame_mvl/mxv
 BYTE   W03
 BYTE   VOL   56*CastlevaniaCircleoftheMoonAwakeRSflame_mvl/mxv
 BYTE   W03
 BYTE   VOL   55*CastlevaniaCircleoftheMoonAwakeRSflame_mvl/mxv
 BYTE   W03
 BYTE   VOL   50*CastlevaniaCircleoftheMoonAwakeRSflame_mvl/mxv
 BYTE   W03
 BYTE   VOL   41*CastlevaniaCircleoftheMoonAwakeRSflame_mvl/mxv
 BYTE   W03
 BYTE   VOL   34*CastlevaniaCircleoftheMoonAwakeRSflame_mvl/mxv
 BYTE   W06
 BYTE   VOL   63*CastlevaniaCircleoftheMoonAwakeRSflame_mvl/mxv
 BYTE   N18  An0  v100
 BYTE   W03
 BYTE   VOL   55*CastlevaniaCircleoftheMoonAwakeRSflame_mvl/mxv
 BYTE   W03
 BYTE   VOL   42*CastlevaniaCircleoftheMoonAwakeRSflame_mvl/mxv
 BYTE   W03
 BYTE   VOL   41*CastlevaniaCircleoftheMoonAwakeRSflame_mvl/mxv
 BYTE   W03
 BYTE   VOL   34*CastlevaniaCircleoftheMoonAwakeRSflame_mvl/mxv
 BYTE   W06
 BYTE   VOL   63*CastlevaniaCircleoftheMoonAwakeRSflame_mvl/mxv
 BYTE   N18  An0  v100
 BYTE   W03
 BYTE   VOL   55*CastlevaniaCircleoftheMoonAwakeRSflame_mvl/mxv
 BYTE   W03
 BYTE   VOL   42*CastlevaniaCircleoftheMoonAwakeRSflame_mvl/mxv
 BYTE   W03
 BYTE   VOL   41*CastlevaniaCircleoftheMoonAwakeRSflame_mvl/mxv
 BYTE   W03
 BYTE   VOL   34*CastlevaniaCircleoftheMoonAwakeRSflame_mvl/mxv
 BYTE   W06
 BYTE   VOL   63*CastlevaniaCircleoftheMoonAwakeRSflame_mvl/mxv
 BYTE   N12  An0  v100
 BYTE   W03
 BYTE   VOL   49*CastlevaniaCircleoftheMoonAwakeRSflame_mvl/mxv
 BYTE   W03
 BYTE   VOL   42*CastlevaniaCircleoftheMoonAwakeRSflame_mvl/mxv
 BYTE   W03
 BYTE   VOL   41*CastlevaniaCircleoftheMoonAwakeRSflame_mvl/mxv
 BYTE   W03
// 009   ----------------------------------------
Label_7_01EA50EA:
 BYTE   VOL   63*CastlevaniaCircleoftheMoonAwakeRSflame_mvl/mxv
 BYTE   N24  Dn1  v100
 BYTE   W03
 BYTE   VOL   60*CastlevaniaCircleoftheMoonAwakeRSflame_mvl/mxv
 BYTE   W03
 BYTE   VOL   56*CastlevaniaCircleoftheMoonAwakeRSflame_mvl/mxv
 BYTE   W03
 BYTE   VOL   55*CastlevaniaCircleoftheMoonAwakeRSflame_mvl/mxv
 BYTE   W03
 BYTE   VOL   50*CastlevaniaCircleoftheMoonAwakeRSflame_mvl/mxv
 BYTE   W03
 BYTE   VOL   41*CastlevaniaCircleoftheMoonAwakeRSflame_mvl/mxv
 BYTE   W03
 BYTE   VOL   34*CastlevaniaCircleoftheMoonAwakeRSflame_mvl/mxv
 BYTE   W06
 BYTE   VOL   63*CastlevaniaCircleoftheMoonAwakeRSflame_mvl/mxv
 BYTE   N24  Dn1  v100
 BYTE   W03
 BYTE   VOL   60*CastlevaniaCircleoftheMoonAwakeRSflame_mvl/mxv
 BYTE   W03
 BYTE   VOL   56*CastlevaniaCircleoftheMoonAwakeRSflame_mvl/mxv
 BYTE   W03
 BYTE   VOL   55*CastlevaniaCircleoftheMoonAwakeRSflame_mvl/mxv
 BYTE   W03
 BYTE   VOL   50*CastlevaniaCircleoftheMoonAwakeRSflame_mvl/mxv
 BYTE   W03
 BYTE   VOL   41*CastlevaniaCircleoftheMoonAwakeRSflame_mvl/mxv
 BYTE   W03
 BYTE   VOL   34*CastlevaniaCircleoftheMoonAwakeRSflame_mvl/mxv
 BYTE   W06
 BYTE   VOL   63*CastlevaniaCircleoftheMoonAwakeRSflame_mvl/mxv
 BYTE   N18  Dn1  v100
 BYTE   W03
 BYTE   VOL   55*CastlevaniaCircleoftheMoonAwakeRSflame_mvl/mxv
 BYTE   W03
 BYTE   VOL   42*CastlevaniaCircleoftheMoonAwakeRSflame_mvl/mxv
 BYTE   W03
 BYTE   VOL   41*CastlevaniaCircleoftheMoonAwakeRSflame_mvl/mxv
 BYTE   W03
 BYTE   VOL   34*CastlevaniaCircleoftheMoonAwakeRSflame_mvl/mxv
 BYTE   W06
 BYTE   VOL   63*CastlevaniaCircleoftheMoonAwakeRSflame_mvl/mxv
 BYTE   N18  Dn1  v100
 BYTE   W03
 BYTE   VOL   55*CastlevaniaCircleoftheMoonAwakeRSflame_mvl/mxv
 BYTE   W03
 BYTE   VOL   42*CastlevaniaCircleoftheMoonAwakeRSflame_mvl/mxv
 BYTE   W03
 BYTE   VOL   41*CastlevaniaCircleoftheMoonAwakeRSflame_mvl/mxv
 BYTE   W03
 BYTE   VOL   34*CastlevaniaCircleoftheMoonAwakeRSflame_mvl/mxv
 BYTE   W06
 BYTE   VOL   63*CastlevaniaCircleoftheMoonAwakeRSflame_mvl/mxv
 BYTE   N12  En1  v100
 BYTE   W03
 BYTE   VOL   49*CastlevaniaCircleoftheMoonAwakeRSflame_mvl/mxv
 BYTE   W03
 BYTE   VOL   42*CastlevaniaCircleoftheMoonAwakeRSflame_mvl/mxv
 BYTE   W03
 BYTE   VOL   41*CastlevaniaCircleoftheMoonAwakeRSflame_mvl/mxv
 BYTE   W03
 BYTE   PEND 
// 010   ----------------------------------------
Label_7_01EA514E:
 BYTE   VOL   63*CastlevaniaCircleoftheMoonAwakeRSflame_mvl/mxv
 BYTE   N24  Dn1  v100
 BYTE   W03
 BYTE   VOL   60*CastlevaniaCircleoftheMoonAwakeRSflame_mvl/mxv
 BYTE   W03
 BYTE   VOL   56*CastlevaniaCircleoftheMoonAwakeRSflame_mvl/mxv
 BYTE   W03
 BYTE   VOL   55*CastlevaniaCircleoftheMoonAwakeRSflame_mvl/mxv
 BYTE   W03
 BYTE   VOL   50*CastlevaniaCircleoftheMoonAwakeRSflame_mvl/mxv
 BYTE   W03
 BYTE   VOL   41*CastlevaniaCircleoftheMoonAwakeRSflame_mvl/mxv
 BYTE   W03
 BYTE   VOL   34*CastlevaniaCircleoftheMoonAwakeRSflame_mvl/mxv
 BYTE   W06
 BYTE   VOL   63*CastlevaniaCircleoftheMoonAwakeRSflame_mvl/mxv
 BYTE   N24  Dn1  v100
 BYTE   W03
 BYTE   VOL   60*CastlevaniaCircleoftheMoonAwakeRSflame_mvl/mxv
 BYTE   W03
 BYTE   VOL   56*CastlevaniaCircleoftheMoonAwakeRSflame_mvl/mxv
 BYTE   W03
 BYTE   VOL   55*CastlevaniaCircleoftheMoonAwakeRSflame_mvl/mxv
 BYTE   W03
 BYTE   VOL   50*CastlevaniaCircleoftheMoonAwakeRSflame_mvl/mxv
 BYTE   W03
 BYTE   VOL   41*CastlevaniaCircleoftheMoonAwakeRSflame_mvl/mxv
 BYTE   W03
 BYTE   VOL   34*CastlevaniaCircleoftheMoonAwakeRSflame_mvl/mxv
 BYTE   W06
 BYTE   VOL   63*CastlevaniaCircleoftheMoonAwakeRSflame_mvl/mxv
 BYTE   N24  Gn1  v100
 BYTE   W03
 BYTE   VOL   60*CastlevaniaCircleoftheMoonAwakeRSflame_mvl/mxv
 BYTE   W03
 BYTE   VOL   56*CastlevaniaCircleoftheMoonAwakeRSflame_mvl/mxv
 BYTE   W03
 BYTE   VOL   55*CastlevaniaCircleoftheMoonAwakeRSflame_mvl/mxv
 BYTE   W03
 BYTE   VOL   50*CastlevaniaCircleoftheMoonAwakeRSflame_mvl/mxv
 BYTE   W03
 BYTE   VOL   41*CastlevaniaCircleoftheMoonAwakeRSflame_mvl/mxv
 BYTE   W03
 BYTE   VOL   34*CastlevaniaCircleoftheMoonAwakeRSflame_mvl/mxv
 BYTE   W06
 BYTE   VOL   63*CastlevaniaCircleoftheMoonAwakeRSflame_mvl/mxv
 BYTE   N24  Gn1  v100
 BYTE   W03
 BYTE   VOL   60*CastlevaniaCircleoftheMoonAwakeRSflame_mvl/mxv
 BYTE   W03
 BYTE   VOL   56*CastlevaniaCircleoftheMoonAwakeRSflame_mvl/mxv
 BYTE   W03
 BYTE   VOL   55*CastlevaniaCircleoftheMoonAwakeRSflame_mvl/mxv
 BYTE   W03
 BYTE   VOL   50*CastlevaniaCircleoftheMoonAwakeRSflame_mvl/mxv
 BYTE   W03
 BYTE   VOL   41*CastlevaniaCircleoftheMoonAwakeRSflame_mvl/mxv
 BYTE   W03
 BYTE   VOL   34*CastlevaniaCircleoftheMoonAwakeRSflame_mvl/mxv
 BYTE   W06
 BYTE   PEND 
// 011   ----------------------------------------
Label_7_01EA51AF:
 BYTE   VOL   63*CastlevaniaCircleoftheMoonAwakeRSflame_mvl/mxv
 BYTE   N24  An0  v100
 BYTE   W03
 BYTE   VOL   60*CastlevaniaCircleoftheMoonAwakeRSflame_mvl/mxv
 BYTE   W03
 BYTE   VOL   56*CastlevaniaCircleoftheMoonAwakeRSflame_mvl/mxv
 BYTE   W03
 BYTE   VOL   55*CastlevaniaCircleoftheMoonAwakeRSflame_mvl/mxv
 BYTE   W03
 BYTE   VOL   50*CastlevaniaCircleoftheMoonAwakeRSflame_mvl/mxv
 BYTE   W03
 BYTE   VOL   41*CastlevaniaCircleoftheMoonAwakeRSflame_mvl/mxv
 BYTE   W03
 BYTE   VOL   34*CastlevaniaCircleoftheMoonAwakeRSflame_mvl/mxv
 BYTE   W06
 BYTE   VOL   63*CastlevaniaCircleoftheMoonAwakeRSflame_mvl/mxv
 BYTE   N24  An0  v100
 BYTE   W03
 BYTE   VOL   60*CastlevaniaCircleoftheMoonAwakeRSflame_mvl/mxv
 BYTE   W03
 BYTE   VOL   56*CastlevaniaCircleoftheMoonAwakeRSflame_mvl/mxv
 BYTE   W03
 BYTE   VOL   55*CastlevaniaCircleoftheMoonAwakeRSflame_mvl/mxv
 BYTE   W03
 BYTE   VOL   50*CastlevaniaCircleoftheMoonAwakeRSflame_mvl/mxv
 BYTE   W03
 BYTE   VOL   41*CastlevaniaCircleoftheMoonAwakeRSflame_mvl/mxv
 BYTE   W03
 BYTE   VOL   34*CastlevaniaCircleoftheMoonAwakeRSflame_mvl/mxv
 BYTE   W06
 BYTE   VOL   63*CastlevaniaCircleoftheMoonAwakeRSflame_mvl/mxv
 BYTE   N24  Dn1  v100
 BYTE   W03
 BYTE   VOL   60*CastlevaniaCircleoftheMoonAwakeRSflame_mvl/mxv
 BYTE   W03
 BYTE   VOL   56*CastlevaniaCircleoftheMoonAwakeRSflame_mvl/mxv
 BYTE   W03
 BYTE   VOL   55*CastlevaniaCircleoftheMoonAwakeRSflame_mvl/mxv
 BYTE   W03
 BYTE   VOL   50*CastlevaniaCircleoftheMoonAwakeRSflame_mvl/mxv
 BYTE   W03
 BYTE   VOL   41*CastlevaniaCircleoftheMoonAwakeRSflame_mvl/mxv
 BYTE   W03
 BYTE   VOL   34*CastlevaniaCircleoftheMoonAwakeRSflame_mvl/mxv
 BYTE   W06
 BYTE   VOL   63*CastlevaniaCircleoftheMoonAwakeRSflame_mvl/mxv
 BYTE   N24  Dn1  v100
 BYTE   W03
 BYTE   VOL   60*CastlevaniaCircleoftheMoonAwakeRSflame_mvl/mxv
 BYTE   W03
 BYTE   VOL   56*CastlevaniaCircleoftheMoonAwakeRSflame_mvl/mxv
 BYTE   W03
 BYTE   VOL   55*CastlevaniaCircleoftheMoonAwakeRSflame_mvl/mxv
 BYTE   W03
 BYTE   VOL   50*CastlevaniaCircleoftheMoonAwakeRSflame_mvl/mxv
 BYTE   W03
 BYTE   VOL   41*CastlevaniaCircleoftheMoonAwakeRSflame_mvl/mxv
 BYTE   W03
 BYTE   VOL   34*CastlevaniaCircleoftheMoonAwakeRSflame_mvl/mxv
 BYTE   W06
 BYTE   PEND 
// 012   ----------------------------------------
Label_7_01EA5210:
 BYTE   VOL   63*CastlevaniaCircleoftheMoonAwakeRSflame_mvl/mxv
 BYTE   N24  An0  v100
 BYTE   W03
 BYTE   VOL   60*CastlevaniaCircleoftheMoonAwakeRSflame_mvl/mxv
 BYTE   W03
 BYTE   VOL   56*CastlevaniaCircleoftheMoonAwakeRSflame_mvl/mxv
 BYTE   W03
 BYTE   VOL   55*CastlevaniaCircleoftheMoonAwakeRSflame_mvl/mxv
 BYTE   W03
 BYTE   VOL   50*CastlevaniaCircleoftheMoonAwakeRSflame_mvl/mxv
 BYTE   W03
 BYTE   VOL   41*CastlevaniaCircleoftheMoonAwakeRSflame_mvl/mxv
 BYTE   W03
 BYTE   VOL   34*CastlevaniaCircleoftheMoonAwakeRSflame_mvl/mxv
 BYTE   W06
 BYTE   VOL   63*CastlevaniaCircleoftheMoonAwakeRSflame_mvl/mxv
 BYTE   N24  An0  v100
 BYTE   W03
 BYTE   VOL   60*CastlevaniaCircleoftheMoonAwakeRSflame_mvl/mxv
 BYTE   W03
 BYTE   VOL   56*CastlevaniaCircleoftheMoonAwakeRSflame_mvl/mxv
 BYTE   W03
 BYTE   VOL   55*CastlevaniaCircleoftheMoonAwakeRSflame_mvl/mxv
 BYTE   W03
 BYTE   VOL   50*CastlevaniaCircleoftheMoonAwakeRSflame_mvl/mxv
 BYTE   W03
 BYTE   VOL   41*CastlevaniaCircleoftheMoonAwakeRSflame_mvl/mxv
 BYTE   W03
 BYTE   VOL   34*CastlevaniaCircleoftheMoonAwakeRSflame_mvl/mxv
 BYTE   W06
 BYTE   VOL   63*CastlevaniaCircleoftheMoonAwakeRSflame_mvl/mxv
 BYTE   N18  An0  v100
 BYTE   W03
 BYTE   VOL   55*CastlevaniaCircleoftheMoonAwakeRSflame_mvl/mxv
 BYTE   W03
 BYTE   VOL   42*CastlevaniaCircleoftheMoonAwakeRSflame_mvl/mxv
 BYTE   W03
 BYTE   VOL   41*CastlevaniaCircleoftheMoonAwakeRSflame_mvl/mxv
 BYTE   W03
 BYTE   VOL   34*CastlevaniaCircleoftheMoonAwakeRSflame_mvl/mxv
 BYTE   W06
 BYTE   VOL   63*CastlevaniaCircleoftheMoonAwakeRSflame_mvl/mxv
 BYTE   N18  An0  v100
 BYTE   W03
 BYTE   VOL   55*CastlevaniaCircleoftheMoonAwakeRSflame_mvl/mxv
 BYTE   W03
 BYTE   VOL   42*CastlevaniaCircleoftheMoonAwakeRSflame_mvl/mxv
 BYTE   W03
 BYTE   VOL   41*CastlevaniaCircleoftheMoonAwakeRSflame_mvl/mxv
 BYTE   W03
 BYTE   VOL   34*CastlevaniaCircleoftheMoonAwakeRSflame_mvl/mxv
 BYTE   W06
 BYTE   VOL   63*CastlevaniaCircleoftheMoonAwakeRSflame_mvl/mxv
 BYTE   N12  An0  v100
 BYTE   W03
 BYTE   VOL   49*CastlevaniaCircleoftheMoonAwakeRSflame_mvl/mxv
 BYTE   W03
 BYTE   VOL   42*CastlevaniaCircleoftheMoonAwakeRSflame_mvl/mxv
 BYTE   W03
 BYTE   VOL   41*CastlevaniaCircleoftheMoonAwakeRSflame_mvl/mxv
 BYTE   W03
 BYTE   PEND 
// 013   ----------------------------------------
 BYTE   VOL   63*CastlevaniaCircleoftheMoonAwakeRSflame_mvl/mxv
 BYTE   N24  Dn1  v100
 BYTE   W03
 BYTE   VOL   60*CastlevaniaCircleoftheMoonAwakeRSflame_mvl/mxv
 BYTE   W03
 BYTE   VOL   56*CastlevaniaCircleoftheMoonAwakeRSflame_mvl/mxv
 BYTE   W03
 BYTE   VOL   55*CastlevaniaCircleoftheMoonAwakeRSflame_mvl/mxv
 BYTE   W03
 BYTE   VOL   50*CastlevaniaCircleoftheMoonAwakeRSflame_mvl/mxv
 BYTE   W03
 BYTE   VOL   41*CastlevaniaCircleoftheMoonAwakeRSflame_mvl/mxv
 BYTE   W03
 BYTE   VOL   34*CastlevaniaCircleoftheMoonAwakeRSflame_mvl/mxv
 BYTE   W06
 BYTE   VOL   63*CastlevaniaCircleoftheMoonAwakeRSflame_mvl/mxv
 BYTE   N24  Dn1  v100
 BYTE   W03
 BYTE   VOL   60*CastlevaniaCircleoftheMoonAwakeRSflame_mvl/mxv
 BYTE   W03
 BYTE   VOL   56*CastlevaniaCircleoftheMoonAwakeRSflame_mvl/mxv
 BYTE   W03
 BYTE   VOL   55*CastlevaniaCircleoftheMoonAwakeRSflame_mvl/mxv
 BYTE   W03
 BYTE   VOL   50*CastlevaniaCircleoftheMoonAwakeRSflame_mvl/mxv
 BYTE   W03
 BYTE   VOL   41*CastlevaniaCircleoftheMoonAwakeRSflame_mvl/mxv
 BYTE   W03
 BYTE   VOL   34*CastlevaniaCircleoftheMoonAwakeRSflame_mvl/mxv
 BYTE   W06
 BYTE   VOL   63*CastlevaniaCircleoftheMoonAwakeRSflame_mvl/mxv
 BYTE   N18  Dn1  v100
 BYTE   W03
 BYTE   VOL   55*CastlevaniaCircleoftheMoonAwakeRSflame_mvl/mxv
 BYTE   W03
 BYTE   VOL   42*CastlevaniaCircleoftheMoonAwakeRSflame_mvl/mxv
 BYTE   W03
 BYTE   VOL   41*CastlevaniaCircleoftheMoonAwakeRSflame_mvl/mxv
 BYTE   W03
 BYTE   VOL   34*CastlevaniaCircleoftheMoonAwakeRSflame_mvl/mxv
 BYTE   W06
 BYTE   VOL   63*CastlevaniaCircleoftheMoonAwakeRSflame_mvl/mxv
 BYTE   N18  Dn1  v100
 BYTE   W03
 BYTE   VOL   55*CastlevaniaCircleoftheMoonAwakeRSflame_mvl/mxv
 BYTE   W03
 BYTE   VOL   42*CastlevaniaCircleoftheMoonAwakeRSflame_mvl/mxv
 BYTE   W03
 BYTE   VOL   41*CastlevaniaCircleoftheMoonAwakeRSflame_mvl/mxv
 BYTE   W03
 BYTE   VOL   34*CastlevaniaCircleoftheMoonAwakeRSflame_mvl/mxv
 BYTE   W06
 BYTE   VOL   63*CastlevaniaCircleoftheMoonAwakeRSflame_mvl/mxv
 BYTE   N12  Dn1  v100
 BYTE   W03
 BYTE   VOL   49*CastlevaniaCircleoftheMoonAwakeRSflame_mvl/mxv
 BYTE   W03
 BYTE   VOL   42*CastlevaniaCircleoftheMoonAwakeRSflame_mvl/mxv
 BYTE   W03
 BYTE   VOL   41*CastlevaniaCircleoftheMoonAwakeRSflame_mvl/mxv
 BYTE   W03
// 014   ----------------------------------------
Label_7_01EA52D7:
 BYTE   VOL   63*CastlevaniaCircleoftheMoonAwakeRSflame_mvl/mxv
 BYTE   N24  Ds1  v100
 BYTE   W03
 BYTE   VOL   60*CastlevaniaCircleoftheMoonAwakeRSflame_mvl/mxv
 BYTE   W03
 BYTE   VOL   56*CastlevaniaCircleoftheMoonAwakeRSflame_mvl/mxv
 BYTE   W03
 BYTE   VOL   55*CastlevaniaCircleoftheMoonAwakeRSflame_mvl/mxv
 BYTE   W03
 BYTE   VOL   50*CastlevaniaCircleoftheMoonAwakeRSflame_mvl/mxv
 BYTE   W03
 BYTE   VOL   41*CastlevaniaCircleoftheMoonAwakeRSflame_mvl/mxv
 BYTE   W03
 BYTE   VOL   34*CastlevaniaCircleoftheMoonAwakeRSflame_mvl/mxv
 BYTE   W06
 BYTE   VOL   63*CastlevaniaCircleoftheMoonAwakeRSflame_mvl/mxv
 BYTE   N24  Ds1  v100
 BYTE   W03
 BYTE   VOL   60*CastlevaniaCircleoftheMoonAwakeRSflame_mvl/mxv
 BYTE   W03
 BYTE   VOL   56*CastlevaniaCircleoftheMoonAwakeRSflame_mvl/mxv
 BYTE   W03
 BYTE   VOL   55*CastlevaniaCircleoftheMoonAwakeRSflame_mvl/mxv
 BYTE   W03
 BYTE   VOL   50*CastlevaniaCircleoftheMoonAwakeRSflame_mvl/mxv
 BYTE   W03
 BYTE   VOL   41*CastlevaniaCircleoftheMoonAwakeRSflame_mvl/mxv
 BYTE   W03
 BYTE   VOL   34*CastlevaniaCircleoftheMoonAwakeRSflame_mvl/mxv
 BYTE   W06
 BYTE   VOL   63*CastlevaniaCircleoftheMoonAwakeRSflame_mvl/mxv
 BYTE   N24  Bn0  v100
 BYTE   W03
 BYTE   VOL   60*CastlevaniaCircleoftheMoonAwakeRSflame_mvl/mxv
 BYTE   W03
 BYTE   VOL   56*CastlevaniaCircleoftheMoonAwakeRSflame_mvl/mxv
 BYTE   W03
 BYTE   VOL   55*CastlevaniaCircleoftheMoonAwakeRSflame_mvl/mxv
 BYTE   W03
 BYTE   VOL   50*CastlevaniaCircleoftheMoonAwakeRSflame_mvl/mxv
 BYTE   W03
 BYTE   VOL   41*CastlevaniaCircleoftheMoonAwakeRSflame_mvl/mxv
 BYTE   W03
 BYTE   VOL   34*CastlevaniaCircleoftheMoonAwakeRSflame_mvl/mxv
 BYTE   W06
 BYTE   VOL   63*CastlevaniaCircleoftheMoonAwakeRSflame_mvl/mxv
 BYTE   N24  Bn0  v100
 BYTE   W03
 BYTE   VOL   60*CastlevaniaCircleoftheMoonAwakeRSflame_mvl/mxv
 BYTE   W03
 BYTE   VOL   56*CastlevaniaCircleoftheMoonAwakeRSflame_mvl/mxv
 BYTE   W03
 BYTE   VOL   55*CastlevaniaCircleoftheMoonAwakeRSflame_mvl/mxv
 BYTE   W03
 BYTE   VOL   50*CastlevaniaCircleoftheMoonAwakeRSflame_mvl/mxv
 BYTE   W03
 BYTE   VOL   41*CastlevaniaCircleoftheMoonAwakeRSflame_mvl/mxv
 BYTE   W03
 BYTE   VOL   34*CastlevaniaCircleoftheMoonAwakeRSflame_mvl/mxv
 BYTE   W06
 BYTE   PEND 
// 015   ----------------------------------------
Label_7_01EA5338:
 BYTE   VOL   63*CastlevaniaCircleoftheMoonAwakeRSflame_mvl/mxv
 BYTE   N24  En1  v100
 BYTE   W03
 BYTE   VOL   60*CastlevaniaCircleoftheMoonAwakeRSflame_mvl/mxv
 BYTE   W03
 BYTE   VOL   56*CastlevaniaCircleoftheMoonAwakeRSflame_mvl/mxv
 BYTE   W03
 BYTE   VOL   55*CastlevaniaCircleoftheMoonAwakeRSflame_mvl/mxv
 BYTE   W03
 BYTE   VOL   50*CastlevaniaCircleoftheMoonAwakeRSflame_mvl/mxv
 BYTE   W03
 BYTE   VOL   41*CastlevaniaCircleoftheMoonAwakeRSflame_mvl/mxv
 BYTE   W03
 BYTE   VOL   34*CastlevaniaCircleoftheMoonAwakeRSflame_mvl/mxv
 BYTE   W06
 BYTE   VOL   63*CastlevaniaCircleoftheMoonAwakeRSflame_mvl/mxv
 BYTE   N24  En1  v100
 BYTE   W03
 BYTE   VOL   60*CastlevaniaCircleoftheMoonAwakeRSflame_mvl/mxv
 BYTE   W03
 BYTE   VOL   56*CastlevaniaCircleoftheMoonAwakeRSflame_mvl/mxv
 BYTE   W03
 BYTE   VOL   55*CastlevaniaCircleoftheMoonAwakeRSflame_mvl/mxv
 BYTE   W03
 BYTE   VOL   50*CastlevaniaCircleoftheMoonAwakeRSflame_mvl/mxv
 BYTE   W03
 BYTE   VOL   41*CastlevaniaCircleoftheMoonAwakeRSflame_mvl/mxv
 BYTE   W03
 BYTE   VOL   34*CastlevaniaCircleoftheMoonAwakeRSflame_mvl/mxv
 BYTE   W06
 BYTE   VOL   63*CastlevaniaCircleoftheMoonAwakeRSflame_mvl/mxv
 BYTE   N24  En1  v100
 BYTE   W03
 BYTE   VOL   60*CastlevaniaCircleoftheMoonAwakeRSflame_mvl/mxv
 BYTE   W03
 BYTE   VOL   56*CastlevaniaCircleoftheMoonAwakeRSflame_mvl/mxv
 BYTE   W03
 BYTE   VOL   55*CastlevaniaCircleoftheMoonAwakeRSflame_mvl/mxv
 BYTE   W03
 BYTE   VOL   50*CastlevaniaCircleoftheMoonAwakeRSflame_mvl/mxv
 BYTE   W03
 BYTE   VOL   41*CastlevaniaCircleoftheMoonAwakeRSflame_mvl/mxv
 BYTE   W03
 BYTE   VOL   34*CastlevaniaCircleoftheMoonAwakeRSflame_mvl/mxv
 BYTE   W06
 BYTE   VOL   63*CastlevaniaCircleoftheMoonAwakeRSflame_mvl/mxv
 BYTE   N24  En1  v100
 BYTE   W03
 BYTE   VOL   60*CastlevaniaCircleoftheMoonAwakeRSflame_mvl/mxv
 BYTE   W03
 BYTE   VOL   56*CastlevaniaCircleoftheMoonAwakeRSflame_mvl/mxv
 BYTE   W03
 BYTE   VOL   55*CastlevaniaCircleoftheMoonAwakeRSflame_mvl/mxv
 BYTE   W03
 BYTE   VOL   50*CastlevaniaCircleoftheMoonAwakeRSflame_mvl/mxv
 BYTE   W03
 BYTE   VOL   41*CastlevaniaCircleoftheMoonAwakeRSflame_mvl/mxv
 BYTE   W03
 BYTE   VOL   34*CastlevaniaCircleoftheMoonAwakeRSflame_mvl/mxv
 BYTE   W06
 BYTE   PEND 
// 016   ----------------------------------------
 BYTE   PATT
  POIN2 Label_7_01EA5210
// 017   ----------------------------------------
 BYTE   PATT
  POIN2 Label_7_01EA50EA
// 018   ----------------------------------------
 BYTE   PATT
  POIN2 Label_7_01EA514E
// 019   ----------------------------------------
 BYTE   PATT
  POIN2 Label_7_01EA51AF
// 020   ----------------------------------------
 BYTE   PATT
  POIN2 Label_7_01EA5210
// 021   ----------------------------------------
 BYTE   VOL   63*CastlevaniaCircleoftheMoonAwakeRSflame_mvl/mxv
 BYTE   N24  Dn1  v100
 BYTE   W03
 BYTE   VOL   60*CastlevaniaCircleoftheMoonAwakeRSflame_mvl/mxv
 BYTE   W03
 BYTE   VOL   56*CastlevaniaCircleoftheMoonAwakeRSflame_mvl/mxv
 BYTE   W03
 BYTE   VOL   55*CastlevaniaCircleoftheMoonAwakeRSflame_mvl/mxv
 BYTE   W03
 BYTE   VOL   50*CastlevaniaCircleoftheMoonAwakeRSflame_mvl/mxv
 BYTE   W03
 BYTE   VOL   41*CastlevaniaCircleoftheMoonAwakeRSflame_mvl/mxv
 BYTE   W03
 BYTE   VOL   34*CastlevaniaCircleoftheMoonAwakeRSflame_mvl/mxv
 BYTE   W06
 BYTE   VOL   63*CastlevaniaCircleoftheMoonAwakeRSflame_mvl/mxv
 BYTE   N24  Dn1  v100
 BYTE   W03
 BYTE   VOL   60*CastlevaniaCircleoftheMoonAwakeRSflame_mvl/mxv
 BYTE   W03
 BYTE   VOL   56*CastlevaniaCircleoftheMoonAwakeRSflame_mvl/mxv
 BYTE   W03
 BYTE   VOL   55*CastlevaniaCircleoftheMoonAwakeRSflame_mvl/mxv
 BYTE   W03
 BYTE   VOL   50*CastlevaniaCircleoftheMoonAwakeRSflame_mvl/mxv
 BYTE   W03
 BYTE   VOL   41*CastlevaniaCircleoftheMoonAwakeRSflame_mvl/mxv
 BYTE   W03
 BYTE   VOL   34*CastlevaniaCircleoftheMoonAwakeRSflame_mvl/mxv
 BYTE   W06
 BYTE   VOL   63*CastlevaniaCircleoftheMoonAwakeRSflame_mvl/mxv
 BYTE   N18  Dn1  v100
 BYTE   W03
 BYTE   VOL   55*CastlevaniaCircleoftheMoonAwakeRSflame_mvl/mxv
 BYTE   W03
 BYTE   VOL   42*CastlevaniaCircleoftheMoonAwakeRSflame_mvl/mxv
 BYTE   W03
 BYTE   VOL   41*CastlevaniaCircleoftheMoonAwakeRSflame_mvl/mxv
 BYTE   W03
 BYTE   VOL   34*CastlevaniaCircleoftheMoonAwakeRSflame_mvl/mxv
 BYTE   W06
 BYTE   VOL   63*CastlevaniaCircleoftheMoonAwakeRSflame_mvl/mxv
 BYTE   N18  Dn1  v100
 BYTE   W03
 BYTE   VOL   55*CastlevaniaCircleoftheMoonAwakeRSflame_mvl/mxv
 BYTE   W03
 BYTE   VOL   42*CastlevaniaCircleoftheMoonAwakeRSflame_mvl/mxv
 BYTE   W03
 BYTE   VOL   41*CastlevaniaCircleoftheMoonAwakeRSflame_mvl/mxv
 BYTE   W03
 BYTE   VOL   34*CastlevaniaCircleoftheMoonAwakeRSflame_mvl/mxv
 BYTE   W06
 BYTE   VOL   63*CastlevaniaCircleoftheMoonAwakeRSflame_mvl/mxv
 BYTE   N12  Ds1  v100
 BYTE   W03
 BYTE   VOL   49*CastlevaniaCircleoftheMoonAwakeRSflame_mvl/mxv
 BYTE   W03
 BYTE   VOL   42*CastlevaniaCircleoftheMoonAwakeRSflame_mvl/mxv
 BYTE   W03
 BYTE   VOL   41*CastlevaniaCircleoftheMoonAwakeRSflame_mvl/mxv
 BYTE   W03
// 022   ----------------------------------------
 BYTE   PATT
  POIN2 Label_7_01EA52D7
// 023   ----------------------------------------
 BYTE   VOL   63*CastlevaniaCircleoftheMoonAwakeRSflame_mvl/mxv
 BYTE   N24  En1  v100
 BYTE   W03
 BYTE   VOL   60*CastlevaniaCircleoftheMoonAwakeRSflame_mvl/mxv
 BYTE   W03
 BYTE   VOL   56*CastlevaniaCircleoftheMoonAwakeRSflame_mvl/mxv
 BYTE   W03
 BYTE   VOL   55*CastlevaniaCircleoftheMoonAwakeRSflame_mvl/mxv
 BYTE   W03
 BYTE   VOL   50*CastlevaniaCircleoftheMoonAwakeRSflame_mvl/mxv
 BYTE   W03
 BYTE   VOL   41*CastlevaniaCircleoftheMoonAwakeRSflame_mvl/mxv
 BYTE   W03
 BYTE   VOL   34*CastlevaniaCircleoftheMoonAwakeRSflame_mvl/mxv
 BYTE   W06
 BYTE   VOL   63*CastlevaniaCircleoftheMoonAwakeRSflame_mvl/mxv
 BYTE   N24  En1  v100
 BYTE   W03
 BYTE   VOL   60*CastlevaniaCircleoftheMoonAwakeRSflame_mvl/mxv
 BYTE   W03
 BYTE   VOL   56*CastlevaniaCircleoftheMoonAwakeRSflame_mvl/mxv
 BYTE   W03
 BYTE   VOL   55*CastlevaniaCircleoftheMoonAwakeRSflame_mvl/mxv
 BYTE   W03
 BYTE   VOL   50*CastlevaniaCircleoftheMoonAwakeRSflame_mvl/mxv
 BYTE   W03
 BYTE   VOL   41*CastlevaniaCircleoftheMoonAwakeRSflame_mvl/mxv
 BYTE   W03
 BYTE   VOL   34*CastlevaniaCircleoftheMoonAwakeRSflame_mvl/mxv
 BYTE   W06
 BYTE   VOL   63*CastlevaniaCircleoftheMoonAwakeRSflame_mvl/mxv
 BYTE   N24  Dn1  v100
 BYTE   W03
 BYTE   VOL   60*CastlevaniaCircleoftheMoonAwakeRSflame_mvl/mxv
 BYTE   W03
 BYTE   VOL   56*CastlevaniaCircleoftheMoonAwakeRSflame_mvl/mxv
 BYTE   W03
 BYTE   VOL   55*CastlevaniaCircleoftheMoonAwakeRSflame_mvl/mxv
 BYTE   W03
 BYTE   VOL   50*CastlevaniaCircleoftheMoonAwakeRSflame_mvl/mxv
 BYTE   W03
 BYTE   VOL   41*CastlevaniaCircleoftheMoonAwakeRSflame_mvl/mxv
 BYTE   W03
 BYTE   VOL   34*CastlevaniaCircleoftheMoonAwakeRSflame_mvl/mxv
 BYTE   W06
 BYTE   VOL   63*CastlevaniaCircleoftheMoonAwakeRSflame_mvl/mxv
 BYTE   N24  Dn1  v100
 BYTE   W03
 BYTE   VOL   60*CastlevaniaCircleoftheMoonAwakeRSflame_mvl/mxv
 BYTE   W03
 BYTE   VOL   56*CastlevaniaCircleoftheMoonAwakeRSflame_mvl/mxv
 BYTE   W03
 BYTE   VOL   55*CastlevaniaCircleoftheMoonAwakeRSflame_mvl/mxv
 BYTE   W03
 BYTE   VOL   50*CastlevaniaCircleoftheMoonAwakeRSflame_mvl/mxv
 BYTE   W03
 BYTE   VOL   41*CastlevaniaCircleoftheMoonAwakeRSflame_mvl/mxv
 BYTE   W03
 BYTE   VOL   34*CastlevaniaCircleoftheMoonAwakeRSflame_mvl/mxv
 BYTE   W06
// 024   ----------------------------------------
 BYTE   PATT
  POIN2 Label_7_01EA5338
// 025   ----------------------------------------
 BYTE   PATT
  POIN2 Label_7_01EA5338
// 026   ----------------------------------------
 BYTE   VOL   63*CastlevaniaCircleoftheMoonAwakeRSflame_mvl/mxv
 BYTE   N24  Dn1  v100
 BYTE   W03
 BYTE   VOL   60*CastlevaniaCircleoftheMoonAwakeRSflame_mvl/mxv
 BYTE   W03
 BYTE   VOL   56*CastlevaniaCircleoftheMoonAwakeRSflame_mvl/mxv
 BYTE   W03
 BYTE   VOL   55*CastlevaniaCircleoftheMoonAwakeRSflame_mvl/mxv
 BYTE   W03
 BYTE   VOL   50*CastlevaniaCircleoftheMoonAwakeRSflame_mvl/mxv
 BYTE   W03
 BYTE   VOL   41*CastlevaniaCircleoftheMoonAwakeRSflame_mvl/mxv
 BYTE   W03
 BYTE   VOL   34*CastlevaniaCircleoftheMoonAwakeRSflame_mvl/mxv
 BYTE   W06
 BYTE   VOL   63*CastlevaniaCircleoftheMoonAwakeRSflame_mvl/mxv
 BYTE   N24  Dn1  v100
 BYTE   W03
 BYTE   VOL   60*CastlevaniaCircleoftheMoonAwakeRSflame_mvl/mxv
 BYTE   W03
 BYTE   VOL   56*CastlevaniaCircleoftheMoonAwakeRSflame_mvl/mxv
 BYTE   W03
 BYTE   VOL   55*CastlevaniaCircleoftheMoonAwakeRSflame_mvl/mxv
 BYTE   W03
 BYTE   VOL   50*CastlevaniaCircleoftheMoonAwakeRSflame_mvl/mxv
 BYTE   W03
 BYTE   VOL   41*CastlevaniaCircleoftheMoonAwakeRSflame_mvl/mxv
 BYTE   W03
 BYTE   VOL   34*CastlevaniaCircleoftheMoonAwakeRSflame_mvl/mxv
 BYTE   W06
 BYTE   VOL   63*CastlevaniaCircleoftheMoonAwakeRSflame_mvl/mxv
 BYTE   N24  Dn1  v100
 BYTE   W03
 BYTE   VOL   60*CastlevaniaCircleoftheMoonAwakeRSflame_mvl/mxv
 BYTE   W03
 BYTE   VOL   56*CastlevaniaCircleoftheMoonAwakeRSflame_mvl/mxv
 BYTE   W03
 BYTE   VOL   55*CastlevaniaCircleoftheMoonAwakeRSflame_mvl/mxv
 BYTE   W03
 BYTE   VOL   50*CastlevaniaCircleoftheMoonAwakeRSflame_mvl/mxv
 BYTE   W03
 BYTE   VOL   41*CastlevaniaCircleoftheMoonAwakeRSflame_mvl/mxv
 BYTE   W03
 BYTE   VOL   34*CastlevaniaCircleoftheMoonAwakeRSflame_mvl/mxv
 BYTE   W06
 BYTE   VOL   63*CastlevaniaCircleoftheMoonAwakeRSflame_mvl/mxv
 BYTE   N24  Dn1  v100
 BYTE   W03
 BYTE   VOL   60*CastlevaniaCircleoftheMoonAwakeRSflame_mvl/mxv
 BYTE   W03
 BYTE   VOL   56*CastlevaniaCircleoftheMoonAwakeRSflame_mvl/mxv
 BYTE   W03
 BYTE   VOL   55*CastlevaniaCircleoftheMoonAwakeRSflame_mvl/mxv
 BYTE   W03
 BYTE   VOL   50*CastlevaniaCircleoftheMoonAwakeRSflame_mvl/mxv
 BYTE   W03
 BYTE   VOL   41*CastlevaniaCircleoftheMoonAwakeRSflame_mvl/mxv
 BYTE   W03
 BYTE   VOL   34*CastlevaniaCircleoftheMoonAwakeRSflame_mvl/mxv
 BYTE   W06
// 027   ----------------------------------------
 BYTE   PATT
  POIN2 Label_7_01EA5338
// 028   ----------------------------------------
 BYTE   VOL   63*CastlevaniaCircleoftheMoonAwakeRSflame_mvl/mxv
 BYTE   N24  An0  v100
 BYTE   W03
 BYTE   VOL   60*CastlevaniaCircleoftheMoonAwakeRSflame_mvl/mxv
 BYTE   W03
 BYTE   VOL   56*CastlevaniaCircleoftheMoonAwakeRSflame_mvl/mxv
 BYTE   W03
 BYTE   VOL   55*CastlevaniaCircleoftheMoonAwakeRSflame_mvl/mxv
 BYTE   W03
 BYTE   VOL   50*CastlevaniaCircleoftheMoonAwakeRSflame_mvl/mxv
 BYTE   W03
 BYTE   VOL   41*CastlevaniaCircleoftheMoonAwakeRSflame_mvl/mxv
 BYTE   W03
 BYTE   VOL   34*CastlevaniaCircleoftheMoonAwakeRSflame_mvl/mxv
 BYTE   W06
 BYTE   VOL   63*CastlevaniaCircleoftheMoonAwakeRSflame_mvl/mxv
 BYTE   N24  An0  v100
 BYTE   W03
 BYTE   VOL   60*CastlevaniaCircleoftheMoonAwakeRSflame_mvl/mxv
 BYTE   W03
 BYTE   VOL   56*CastlevaniaCircleoftheMoonAwakeRSflame_mvl/mxv
 BYTE   W03
 BYTE   VOL   55*CastlevaniaCircleoftheMoonAwakeRSflame_mvl/mxv
 BYTE   W03
 BYTE   VOL   50*CastlevaniaCircleoftheMoonAwakeRSflame_mvl/mxv
 BYTE   W03
 BYTE   VOL   41*CastlevaniaCircleoftheMoonAwakeRSflame_mvl/mxv
 BYTE   W03
 BYTE   VOL   34*CastlevaniaCircleoftheMoonAwakeRSflame_mvl/mxv
 BYTE   W06
 BYTE   VOL   63*CastlevaniaCircleoftheMoonAwakeRSflame_mvl/mxv
 BYTE   N24  Gs0  v100
 BYTE   W03
 BYTE   VOL   60*CastlevaniaCircleoftheMoonAwakeRSflame_mvl/mxv
 BYTE   W03
 BYTE   VOL   56*CastlevaniaCircleoftheMoonAwakeRSflame_mvl/mxv
 BYTE   W03
 BYTE   VOL   55*CastlevaniaCircleoftheMoonAwakeRSflame_mvl/mxv
 BYTE   W03
 BYTE   VOL   50*CastlevaniaCircleoftheMoonAwakeRSflame_mvl/mxv
 BYTE   W03
 BYTE   VOL   41*CastlevaniaCircleoftheMoonAwakeRSflame_mvl/mxv
 BYTE   W03
 BYTE   VOL   34*CastlevaniaCircleoftheMoonAwakeRSflame_mvl/mxv
 BYTE   W06
 BYTE   VOL   63*CastlevaniaCircleoftheMoonAwakeRSflame_mvl/mxv
 BYTE   N24  Gs0  v100
 BYTE   W03
 BYTE   VOL   60*CastlevaniaCircleoftheMoonAwakeRSflame_mvl/mxv
 BYTE   W03
 BYTE   VOL   56*CastlevaniaCircleoftheMoonAwakeRSflame_mvl/mxv
 BYTE   W03
 BYTE   VOL   55*CastlevaniaCircleoftheMoonAwakeRSflame_mvl/mxv
 BYTE   W03
 BYTE   VOL   50*CastlevaniaCircleoftheMoonAwakeRSflame_mvl/mxv
 BYTE   W03
 BYTE   VOL   41*CastlevaniaCircleoftheMoonAwakeRSflame_mvl/mxv
 BYTE   W03
 BYTE   VOL   34*CastlevaniaCircleoftheMoonAwakeRSflame_mvl/mxv
 BYTE   W06
// 029   ----------------------------------------
 BYTE   VOL   63*CastlevaniaCircleoftheMoonAwakeRSflame_mvl/mxv
 BYTE   N24  Gn0  v100
 BYTE   W03
 BYTE   VOL   60*CastlevaniaCircleoftheMoonAwakeRSflame_mvl/mxv
 BYTE   W03
 BYTE   VOL   56*CastlevaniaCircleoftheMoonAwakeRSflame_mvl/mxv
 BYTE   W03
 BYTE   VOL   55*CastlevaniaCircleoftheMoonAwakeRSflame_mvl/mxv
 BYTE   W03
 BYTE   VOL   50*CastlevaniaCircleoftheMoonAwakeRSflame_mvl/mxv
 BYTE   W03
 BYTE   VOL   41*CastlevaniaCircleoftheMoonAwakeRSflame_mvl/mxv
 BYTE   W03
 BYTE   VOL   34*CastlevaniaCircleoftheMoonAwakeRSflame_mvl/mxv
 BYTE   W06
 BYTE   VOL   63*CastlevaniaCircleoftheMoonAwakeRSflame_mvl/mxv
 BYTE   N24  Gn0  v100
 BYTE   W03
 BYTE   VOL   60*CastlevaniaCircleoftheMoonAwakeRSflame_mvl/mxv
 BYTE   W03
 BYTE   VOL   56*CastlevaniaCircleoftheMoonAwakeRSflame_mvl/mxv
 BYTE   W03
 BYTE   VOL   55*CastlevaniaCircleoftheMoonAwakeRSflame_mvl/mxv
 BYTE   W03
 BYTE   VOL   50*CastlevaniaCircleoftheMoonAwakeRSflame_mvl/mxv
 BYTE   W03
 BYTE   VOL   41*CastlevaniaCircleoftheMoonAwakeRSflame_mvl/mxv
 BYTE   W03
 BYTE   VOL   34*CastlevaniaCircleoftheMoonAwakeRSflame_mvl/mxv
 BYTE   W06
 BYTE   VOL   63*CastlevaniaCircleoftheMoonAwakeRSflame_mvl/mxv
 BYTE   N24  An0  v100
 BYTE   W03
 BYTE   VOL   60*CastlevaniaCircleoftheMoonAwakeRSflame_mvl/mxv
 BYTE   W03
 BYTE   VOL   56*CastlevaniaCircleoftheMoonAwakeRSflame_mvl/mxv
 BYTE   W03
 BYTE   VOL   55*CastlevaniaCircleoftheMoonAwakeRSflame_mvl/mxv
 BYTE   W03
 BYTE   VOL   50*CastlevaniaCircleoftheMoonAwakeRSflame_mvl/mxv
 BYTE   W03
 BYTE   VOL   41*CastlevaniaCircleoftheMoonAwakeRSflame_mvl/mxv
 BYTE   W03
 BYTE   VOL   34*CastlevaniaCircleoftheMoonAwakeRSflame_mvl/mxv
 BYTE   W06
 BYTE   VOL   63*CastlevaniaCircleoftheMoonAwakeRSflame_mvl/mxv
 BYTE   N24  An0  v100
 BYTE   W03
 BYTE   VOL   60*CastlevaniaCircleoftheMoonAwakeRSflame_mvl/mxv
 BYTE   W03
 BYTE   VOL   56*CastlevaniaCircleoftheMoonAwakeRSflame_mvl/mxv
 BYTE   W03
 BYTE   VOL   55*CastlevaniaCircleoftheMoonAwakeRSflame_mvl/mxv
 BYTE   W03
 BYTE   VOL   50*CastlevaniaCircleoftheMoonAwakeRSflame_mvl/mxv
 BYTE   W03
 BYTE   VOL   41*CastlevaniaCircleoftheMoonAwakeRSflame_mvl/mxv
 BYTE   W03
 BYTE   VOL   34*CastlevaniaCircleoftheMoonAwakeRSflame_mvl/mxv
 BYTE   W06
// 030   ----------------------------------------
 BYTE   VOL   63*CastlevaniaCircleoftheMoonAwakeRSflame_mvl/mxv
 BYTE   N24  Fn1  v100
 BYTE   W03
 BYTE   VOL   60*CastlevaniaCircleoftheMoonAwakeRSflame_mvl/mxv
 BYTE   W03
 BYTE   VOL   56*CastlevaniaCircleoftheMoonAwakeRSflame_mvl/mxv
 BYTE   W03
 BYTE   VOL   55*CastlevaniaCircleoftheMoonAwakeRSflame_mvl/mxv
 BYTE   W03
 BYTE   VOL   50*CastlevaniaCircleoftheMoonAwakeRSflame_mvl/mxv
 BYTE   W03
 BYTE   VOL   41*CastlevaniaCircleoftheMoonAwakeRSflame_mvl/mxv
 BYTE   W03
 BYTE   VOL   34*CastlevaniaCircleoftheMoonAwakeRSflame_mvl/mxv
 BYTE   W06
 BYTE   VOL   63*CastlevaniaCircleoftheMoonAwakeRSflame_mvl/mxv
 BYTE   N24  Fn1  v100
 BYTE   W03
 BYTE   VOL   60*CastlevaniaCircleoftheMoonAwakeRSflame_mvl/mxv
 BYTE   W03
 BYTE   VOL   56*CastlevaniaCircleoftheMoonAwakeRSflame_mvl/mxv
 BYTE   W03
 BYTE   VOL   55*CastlevaniaCircleoftheMoonAwakeRSflame_mvl/mxv
 BYTE   W03
 BYTE   VOL   50*CastlevaniaCircleoftheMoonAwakeRSflame_mvl/mxv
 BYTE   W03
 BYTE   VOL   41*CastlevaniaCircleoftheMoonAwakeRSflame_mvl/mxv
 BYTE   W03
 BYTE   VOL   34*CastlevaniaCircleoftheMoonAwakeRSflame_mvl/mxv
 BYTE   W06
 BYTE   VOL   63*CastlevaniaCircleoftheMoonAwakeRSflame_mvl/mxv
 BYTE   N24  Fn1  v100
 BYTE   W03
 BYTE   VOL   60*CastlevaniaCircleoftheMoonAwakeRSflame_mvl/mxv
 BYTE   W03
 BYTE   VOL   56*CastlevaniaCircleoftheMoonAwakeRSflame_mvl/mxv
 BYTE   W03
 BYTE   VOL   55*CastlevaniaCircleoftheMoonAwakeRSflame_mvl/mxv
 BYTE   W03
 BYTE   VOL   50*CastlevaniaCircleoftheMoonAwakeRSflame_mvl/mxv
 BYTE   W03
 BYTE   VOL   41*CastlevaniaCircleoftheMoonAwakeRSflame_mvl/mxv
 BYTE   W03
 BYTE   VOL   34*CastlevaniaCircleoftheMoonAwakeRSflame_mvl/mxv
 BYTE   W06
 BYTE   VOL   63*CastlevaniaCircleoftheMoonAwakeRSflame_mvl/mxv
 BYTE   N24  Fn1  v100
 BYTE   W03
 BYTE   VOL   60*CastlevaniaCircleoftheMoonAwakeRSflame_mvl/mxv
 BYTE   W03
 BYTE   VOL   56*CastlevaniaCircleoftheMoonAwakeRSflame_mvl/mxv
 BYTE   W03
 BYTE   VOL   55*CastlevaniaCircleoftheMoonAwakeRSflame_mvl/mxv
 BYTE   W03
 BYTE   VOL   50*CastlevaniaCircleoftheMoonAwakeRSflame_mvl/mxv
 BYTE   W03
 BYTE   VOL   41*CastlevaniaCircleoftheMoonAwakeRSflame_mvl/mxv
 BYTE   W03
 BYTE   VOL   34*CastlevaniaCircleoftheMoonAwakeRSflame_mvl/mxv
 BYTE   W06
// 031   ----------------------------------------
 BYTE   VOL   63*CastlevaniaCircleoftheMoonAwakeRSflame_mvl/mxv
 BYTE   N24  En1  v100
 BYTE   W03
 BYTE   VOL   60*CastlevaniaCircleoftheMoonAwakeRSflame_mvl/mxv
 BYTE   W03
 BYTE   VOL   56*CastlevaniaCircleoftheMoonAwakeRSflame_mvl/mxv
 BYTE   W03
 BYTE   VOL   55*CastlevaniaCircleoftheMoonAwakeRSflame_mvl/mxv
 BYTE   W03
 BYTE   VOL   50*CastlevaniaCircleoftheMoonAwakeRSflame_mvl/mxv
 BYTE   W03
 BYTE   VOL   41*CastlevaniaCircleoftheMoonAwakeRSflame_mvl/mxv
 BYTE   W03
 BYTE   VOL   34*CastlevaniaCircleoftheMoonAwakeRSflame_mvl/mxv
 BYTE   W06
 BYTE   VOL   63*CastlevaniaCircleoftheMoonAwakeRSflame_mvl/mxv
 BYTE   N24  En1  v100
 BYTE   W03
 BYTE   VOL   60*CastlevaniaCircleoftheMoonAwakeRSflame_mvl/mxv
 BYTE   W03
 BYTE   VOL   56*CastlevaniaCircleoftheMoonAwakeRSflame_mvl/mxv
 BYTE   W03
 BYTE   VOL   55*CastlevaniaCircleoftheMoonAwakeRSflame_mvl/mxv
 BYTE   W03
 BYTE   VOL   50*CastlevaniaCircleoftheMoonAwakeRSflame_mvl/mxv
 BYTE   W03
 BYTE   VOL   41*CastlevaniaCircleoftheMoonAwakeRSflame_mvl/mxv
 BYTE   W03
 BYTE   VOL   34*CastlevaniaCircleoftheMoonAwakeRSflame_mvl/mxv
 BYTE   W06
 BYTE   VOL   63*CastlevaniaCircleoftheMoonAwakeRSflame_mvl/mxv
 BYTE   N24  Bn0  v100
 BYTE   W03
 BYTE   VOL   60*CastlevaniaCircleoftheMoonAwakeRSflame_mvl/mxv
 BYTE   W03
 BYTE   VOL   56*CastlevaniaCircleoftheMoonAwakeRSflame_mvl/mxv
 BYTE   W03
 BYTE   VOL   55*CastlevaniaCircleoftheMoonAwakeRSflame_mvl/mxv
 BYTE   W03
 BYTE   VOL   50*CastlevaniaCircleoftheMoonAwakeRSflame_mvl/mxv
 BYTE   W03
 BYTE   VOL   41*CastlevaniaCircleoftheMoonAwakeRSflame_mvl/mxv
 BYTE   W03
 BYTE   VOL   34*CastlevaniaCircleoftheMoonAwakeRSflame_mvl/mxv
 BYTE   W06
 BYTE   VOL   63*CastlevaniaCircleoftheMoonAwakeRSflame_mvl/mxv
 BYTE   N24  Bn0  v100
 BYTE   W03
 BYTE   VOL   60*CastlevaniaCircleoftheMoonAwakeRSflame_mvl/mxv
 BYTE   W03
 BYTE   VOL   56*CastlevaniaCircleoftheMoonAwakeRSflame_mvl/mxv
 BYTE   W03
 BYTE   VOL   55*CastlevaniaCircleoftheMoonAwakeRSflame_mvl/mxv
 BYTE   W03
 BYTE   VOL   50*CastlevaniaCircleoftheMoonAwakeRSflame_mvl/mxv
 BYTE   W03
 BYTE   VOL   41*CastlevaniaCircleoftheMoonAwakeRSflame_mvl/mxv
 BYTE   W03
 BYTE   VOL   34*CastlevaniaCircleoftheMoonAwakeRSflame_mvl/mxv
 BYTE   W06
// 032   ----------------------------------------
 BYTE   VOL   63*CastlevaniaCircleoftheMoonAwakeRSflame_mvl/mxv
 BYTE   N24  An0  v100
 BYTE   W03
 BYTE   VOL   60*CastlevaniaCircleoftheMoonAwakeRSflame_mvl/mxv
 BYTE   W03
 BYTE   VOL   56*CastlevaniaCircleoftheMoonAwakeRSflame_mvl/mxv
 BYTE   W03
 BYTE   VOL   55*CastlevaniaCircleoftheMoonAwakeRSflame_mvl/mxv
 BYTE   W03
 BYTE   VOL   50*CastlevaniaCircleoftheMoonAwakeRSflame_mvl/mxv
 BYTE   W03
 BYTE   VOL   41*CastlevaniaCircleoftheMoonAwakeRSflame_mvl/mxv
 BYTE   W03
 BYTE   VOL   34*CastlevaniaCircleoftheMoonAwakeRSflame_mvl/mxv
 BYTE   W06
 BYTE   VOL   63*CastlevaniaCircleoftheMoonAwakeRSflame_mvl/mxv
 BYTE   N24  An0  v100
 BYTE   W03
 BYTE   VOL   60*CastlevaniaCircleoftheMoonAwakeRSflame_mvl/mxv
 BYTE   W03
 BYTE   VOL   56*CastlevaniaCircleoftheMoonAwakeRSflame_mvl/mxv
 BYTE   W03
 BYTE   VOL   55*CastlevaniaCircleoftheMoonAwakeRSflame_mvl/mxv
 BYTE   W03
 BYTE   VOL   50*CastlevaniaCircleoftheMoonAwakeRSflame_mvl/mxv
 BYTE   W03
 BYTE   VOL   41*CastlevaniaCircleoftheMoonAwakeRSflame_mvl/mxv
 BYTE   W03
 BYTE   VOL   34*CastlevaniaCircleoftheMoonAwakeRSflame_mvl/mxv
 BYTE   W06
 BYTE   VOL   63*CastlevaniaCircleoftheMoonAwakeRSflame_mvl/mxv
 BYTE   N24  Gn0  v100
 BYTE   W03
 BYTE   VOL   60*CastlevaniaCircleoftheMoonAwakeRSflame_mvl/mxv
 BYTE   W03
 BYTE   VOL   56*CastlevaniaCircleoftheMoonAwakeRSflame_mvl/mxv
 BYTE   W03
 BYTE   VOL   55*CastlevaniaCircleoftheMoonAwakeRSflame_mvl/mxv
 BYTE   W03
 BYTE   VOL   50*CastlevaniaCircleoftheMoonAwakeRSflame_mvl/mxv
 BYTE   W03
 BYTE   VOL   41*CastlevaniaCircleoftheMoonAwakeRSflame_mvl/mxv
 BYTE   W03
 BYTE   VOL   34*CastlevaniaCircleoftheMoonAwakeRSflame_mvl/mxv
 BYTE   W06
 BYTE   VOL   63*CastlevaniaCircleoftheMoonAwakeRSflame_mvl/mxv
 BYTE   N24  Gn0  v100
 BYTE   W03
 BYTE   VOL   60*CastlevaniaCircleoftheMoonAwakeRSflame_mvl/mxv
 BYTE   W03
 BYTE   VOL   56*CastlevaniaCircleoftheMoonAwakeRSflame_mvl/mxv
 BYTE   W03
 BYTE   VOL   55*CastlevaniaCircleoftheMoonAwakeRSflame_mvl/mxv
 BYTE   W03
 BYTE   VOL   50*CastlevaniaCircleoftheMoonAwakeRSflame_mvl/mxv
 BYTE   W03
 BYTE   VOL   41*CastlevaniaCircleoftheMoonAwakeRSflame_mvl/mxv
 BYTE   W03
 BYTE   VOL   34*CastlevaniaCircleoftheMoonAwakeRSflame_mvl/mxv
 BYTE   W06
// 033   ----------------------------------------
 BYTE   VOL   63*CastlevaniaCircleoftheMoonAwakeRSflame_mvl/mxv
 BYTE   N18  Cn1  v100
 BYTE   W03
 BYTE   VOL   60*CastlevaniaCircleoftheMoonAwakeRSflame_mvl/mxv
 BYTE   W03
 BYTE   VOL   56*CastlevaniaCircleoftheMoonAwakeRSflame_mvl/mxv
 BYTE   W03
 BYTE   VOL   55*CastlevaniaCircleoftheMoonAwakeRSflame_mvl/mxv
 BYTE   W03
 BYTE   VOL   50*CastlevaniaCircleoftheMoonAwakeRSflame_mvl/mxv
 BYTE   W03
 BYTE   VOL   41*CastlevaniaCircleoftheMoonAwakeRSflame_mvl/mxv
 BYTE   W03
 BYTE   VOL   34*CastlevaniaCircleoftheMoonAwakeRSflame_mvl/mxv
 BYTE   W06
 BYTE   VOL   63*CastlevaniaCircleoftheMoonAwakeRSflame_mvl/mxv
 BYTE   N18  Cn1  v100
 BYTE   W03
 BYTE   VOL   60*CastlevaniaCircleoftheMoonAwakeRSflame_mvl/mxv
 BYTE   W03
 BYTE   VOL   56*CastlevaniaCircleoftheMoonAwakeRSflame_mvl/mxv
 BYTE   W03
 BYTE   VOL   55*CastlevaniaCircleoftheMoonAwakeRSflame_mvl/mxv
 BYTE   W03
 BYTE   VOL   50*CastlevaniaCircleoftheMoonAwakeRSflame_mvl/mxv
 BYTE   W03
 BYTE   VOL   41*CastlevaniaCircleoftheMoonAwakeRSflame_mvl/mxv
 BYTE   W03
 BYTE   VOL   34*CastlevaniaCircleoftheMoonAwakeRSflame_mvl/mxv
 BYTE   W06
 BYTE   VOL   63*CastlevaniaCircleoftheMoonAwakeRSflame_mvl/mxv
 BYTE   N18  Bn0  v100
 BYTE   W03
 BYTE   VOL   60*CastlevaniaCircleoftheMoonAwakeRSflame_mvl/mxv
 BYTE   W03
 BYTE   VOL   56*CastlevaniaCircleoftheMoonAwakeRSflame_mvl/mxv
 BYTE   W03
 BYTE   VOL   55*CastlevaniaCircleoftheMoonAwakeRSflame_mvl/mxv
 BYTE   W03
 BYTE   VOL   50*CastlevaniaCircleoftheMoonAwakeRSflame_mvl/mxv
 BYTE   W03
 BYTE   VOL   41*CastlevaniaCircleoftheMoonAwakeRSflame_mvl/mxv
 BYTE   W03
 BYTE   VOL   34*CastlevaniaCircleoftheMoonAwakeRSflame_mvl/mxv
 BYTE   W06
 BYTE   VOL   63*CastlevaniaCircleoftheMoonAwakeRSflame_mvl/mxv
 BYTE   N18  Bn0  v100
 BYTE   W03
 BYTE   VOL   60*CastlevaniaCircleoftheMoonAwakeRSflame_mvl/mxv
 BYTE   W03
 BYTE   VOL   56*CastlevaniaCircleoftheMoonAwakeRSflame_mvl/mxv
 BYTE   W03
 BYTE   VOL   55*CastlevaniaCircleoftheMoonAwakeRSflame_mvl/mxv
 BYTE   W03
 BYTE   VOL   50*CastlevaniaCircleoftheMoonAwakeRSflame_mvl/mxv
 BYTE   W03
 BYTE   VOL   41*CastlevaniaCircleoftheMoonAwakeRSflame_mvl/mxv
 BYTE   W03
 BYTE   VOL   34*CastlevaniaCircleoftheMoonAwakeRSflame_mvl/mxv
 BYTE   W06
// 034   ----------------------------------------
 BYTE   VOL   63*CastlevaniaCircleoftheMoonAwakeRSflame_mvl/mxv
 BYTE   N18  En1  v100
 BYTE   W03
 BYTE   VOL   60*CastlevaniaCircleoftheMoonAwakeRSflame_mvl/mxv
 BYTE   W03
 BYTE   VOL   56*CastlevaniaCircleoftheMoonAwakeRSflame_mvl/mxv
 BYTE   W03
 BYTE   VOL   55*CastlevaniaCircleoftheMoonAwakeRSflame_mvl/mxv
 BYTE   W03
 BYTE   VOL   50*CastlevaniaCircleoftheMoonAwakeRSflame_mvl/mxv
 BYTE   W03
 BYTE   VOL   41*CastlevaniaCircleoftheMoonAwakeRSflame_mvl/mxv
 BYTE   W03
 BYTE   VOL   34*CastlevaniaCircleoftheMoonAwakeRSflame_mvl/mxv
 BYTE   W06
 BYTE   VOL   63*CastlevaniaCircleoftheMoonAwakeRSflame_mvl/mxv
 BYTE   N18  En1  v100
 BYTE   W03
 BYTE   VOL   60*CastlevaniaCircleoftheMoonAwakeRSflame_mvl/mxv
 BYTE   W03
 BYTE   VOL   56*CastlevaniaCircleoftheMoonAwakeRSflame_mvl/mxv
 BYTE   W03
 BYTE   VOL   55*CastlevaniaCircleoftheMoonAwakeRSflame_mvl/mxv
 BYTE   W03
 BYTE   VOL   50*CastlevaniaCircleoftheMoonAwakeRSflame_mvl/mxv
 BYTE   W03
 BYTE   VOL   41*CastlevaniaCircleoftheMoonAwakeRSflame_mvl/mxv
 BYTE   W03
 BYTE   VOL   34*CastlevaniaCircleoftheMoonAwakeRSflame_mvl/mxv
 BYTE   W06
 BYTE   VOL   63*CastlevaniaCircleoftheMoonAwakeRSflame_mvl/mxv
 BYTE   N18  En1  v100
 BYTE   W03
 BYTE   VOL   60*CastlevaniaCircleoftheMoonAwakeRSflame_mvl/mxv
 BYTE   W03
 BYTE   VOL   56*CastlevaniaCircleoftheMoonAwakeRSflame_mvl/mxv
 BYTE   W03
 BYTE   VOL   55*CastlevaniaCircleoftheMoonAwakeRSflame_mvl/mxv
 BYTE   W03
 BYTE   VOL   50*CastlevaniaCircleoftheMoonAwakeRSflame_mvl/mxv
 BYTE   W03
 BYTE   VOL   41*CastlevaniaCircleoftheMoonAwakeRSflame_mvl/mxv
 BYTE   W03
 BYTE   VOL   34*CastlevaniaCircleoftheMoonAwakeRSflame_mvl/mxv
 BYTE   W06
 BYTE   VOL   63*CastlevaniaCircleoftheMoonAwakeRSflame_mvl/mxv
 BYTE   N18  En1  v100
 BYTE   W03
 BYTE   VOL   60*CastlevaniaCircleoftheMoonAwakeRSflame_mvl/mxv
 BYTE   W03
 BYTE   VOL   56*CastlevaniaCircleoftheMoonAwakeRSflame_mvl/mxv
 BYTE   W03
 BYTE   VOL   55*CastlevaniaCircleoftheMoonAwakeRSflame_mvl/mxv
 BYTE   W03
 BYTE   VOL   50*CastlevaniaCircleoftheMoonAwakeRSflame_mvl/mxv
 BYTE   W03
 BYTE   VOL   41*CastlevaniaCircleoftheMoonAwakeRSflame_mvl/mxv
 BYTE   W03
 BYTE   VOL   34*CastlevaniaCircleoftheMoonAwakeRSflame_mvl/mxv
 BYTE   W06
// 035   ----------------------------------------
 BYTE   VOL   63*CastlevaniaCircleoftheMoonAwakeRSflame_mvl/mxv
 BYTE   N18  En0  v100
 BYTE   W03
 BYTE   VOL   60*CastlevaniaCircleoftheMoonAwakeRSflame_mvl/mxv
 BYTE   W03
 BYTE   VOL   56*CastlevaniaCircleoftheMoonAwakeRSflame_mvl/mxv
 BYTE   W03
 BYTE   VOL   55*CastlevaniaCircleoftheMoonAwakeRSflame_mvl/mxv
 BYTE   W03
 BYTE   VOL   50*CastlevaniaCircleoftheMoonAwakeRSflame_mvl/mxv
 BYTE   W03
 BYTE   VOL   41*CastlevaniaCircleoftheMoonAwakeRSflame_mvl/mxv
 BYTE   W03
 BYTE   VOL   34*CastlevaniaCircleoftheMoonAwakeRSflame_mvl/mxv
 BYTE   W06
 BYTE   VOL   63*CastlevaniaCircleoftheMoonAwakeRSflame_mvl/mxv
 BYTE   N18  En0  v100
 BYTE   W03
 BYTE   VOL   60*CastlevaniaCircleoftheMoonAwakeRSflame_mvl/mxv
 BYTE   W03
 BYTE   VOL   56*CastlevaniaCircleoftheMoonAwakeRSflame_mvl/mxv
 BYTE   W03
 BYTE   VOL   55*CastlevaniaCircleoftheMoonAwakeRSflame_mvl/mxv
 BYTE   W03
 BYTE   VOL   50*CastlevaniaCircleoftheMoonAwakeRSflame_mvl/mxv
 BYTE   W03
 BYTE   VOL   41*CastlevaniaCircleoftheMoonAwakeRSflame_mvl/mxv
 BYTE   W03
 BYTE   VOL   34*CastlevaniaCircleoftheMoonAwakeRSflame_mvl/mxv
 BYTE   W06
 BYTE   VOL   63*CastlevaniaCircleoftheMoonAwakeRSflame_mvl/mxv
 BYTE   N18  Gs0  v100
 BYTE   W03
 BYTE   VOL   60*CastlevaniaCircleoftheMoonAwakeRSflame_mvl/mxv
 BYTE   W03
 BYTE   VOL   56*CastlevaniaCircleoftheMoonAwakeRSflame_mvl/mxv
 BYTE   W03
 BYTE   VOL   55*CastlevaniaCircleoftheMoonAwakeRSflame_mvl/mxv
 BYTE   W03
 BYTE   VOL   50*CastlevaniaCircleoftheMoonAwakeRSflame_mvl/mxv
 BYTE   W03
 BYTE   VOL   41*CastlevaniaCircleoftheMoonAwakeRSflame_mvl/mxv
 BYTE   W03
 BYTE   VOL   34*CastlevaniaCircleoftheMoonAwakeRSflame_mvl/mxv
 BYTE   W06
 BYTE   VOL   63*CastlevaniaCircleoftheMoonAwakeRSflame_mvl/mxv
 BYTE   N18  Gs0  v100
 BYTE   W03
 BYTE   VOL   60*CastlevaniaCircleoftheMoonAwakeRSflame_mvl/mxv
 BYTE   W03
 BYTE   VOL   56*CastlevaniaCircleoftheMoonAwakeRSflame_mvl/mxv
 BYTE   W03
 BYTE   VOL   55*CastlevaniaCircleoftheMoonAwakeRSflame_mvl/mxv
 BYTE   W03
 BYTE   VOL   50*CastlevaniaCircleoftheMoonAwakeRSflame_mvl/mxv
 BYTE   W03
 BYTE   VOL   41*CastlevaniaCircleoftheMoonAwakeRSflame_mvl/mxv
 BYTE   W03
 BYTE   VOL   34*CastlevaniaCircleoftheMoonAwakeRSflame_mvl/mxv
 BYTE   W06
// 036   ----------------------------------------
 BYTE   VOL   63*CastlevaniaCircleoftheMoonAwakeRSflame_mvl/mxv
 BYTE   N12  An1  v084
 BYTE   W12
 BYTE   N06  En1
 BYTE   W06
 BYTE   N12  Gn1
 BYTE   W12
 BYTE   N06  En1
 BYTE   W06
 BYTE   N24  Fs1
 BYTE   W24
 BYTE   N06  Dn1
 BYTE   W24
 BYTE   Dn1
 BYTE   W06
 BYTE   En1
 BYTE   W06
// 037   ----------------------------------------
Label_7_01EA5802:
 BYTE   N12  Fn1  v084
 BYTE   W12
 BYTE   N06  Cn1
 BYTE   W06
 BYTE   N12  Gn1
 BYTE   W12
 BYTE   N06  En1
 BYTE   W06
 BYTE   N42  An1
 BYTE   W60
 BYTE   PEND 
// 038   ----------------------------------------
Label_7_01EA5813:
 BYTE   N12  An1  v084
 BYTE   W12
 BYTE   N06  En1
 BYTE   W06
 BYTE   N12  Gn1
 BYTE   W12
 BYTE   N06  Dn1
 BYTE   W06
 BYTE   N24  Fs1
 BYTE   W24
 BYTE   N06  Dn1
 BYTE   W24
 BYTE   Dn1
 BYTE   W06
 BYTE   En1
 BYTE   W06
 BYTE   PEND 
// 039   ----------------------------------------
 BYTE   N12  Fn1  v084
 BYTE   W12
 BYTE   N06  Cn1
 BYTE   W06
 BYTE   N12  Gn1
 BYTE   W12
 BYTE   N06  Dn1
 BYTE   W06
 BYTE   N23  An1
 BYTE   W24
 BYTE   N18  En1
 BYTE   W18
 BYTE   Gn1
 BYTE   W18
// 040   ----------------------------------------
 BYTE   N12  An1
 BYTE   W12
 BYTE   N06  En1
 BYTE   W06
 BYTE   N12  Gn1
 BYTE   W12
 BYTE   N06  En1
 BYTE   W06
 BYTE   N24  Fs1
 BYTE   W24
 BYTE   N06  Dn1
 BYTE   W24
 BYTE   Dn1
 BYTE   W06
 BYTE   En1
 BYTE   W06
// 041   ----------------------------------------
 BYTE   PATT
  POIN2 Label_7_01EA5802
// 042   ----------------------------------------
 BYTE   PATT
  POIN2 Label_7_01EA5813
// 043   ----------------------------------------
 BYTE   N12  Fn1  v084
 BYTE   W12
 BYTE   N06  Cn1
 BYTE   W06
 BYTE   N12  Gn1
 BYTE   W12
 BYTE   N06  Dn1
 BYTE   W06
 BYTE   N23  An1
 BYTE   W24
 BYTE   N18  Dn1
 BYTE   W12
 BYTE   GoTo
  POIN2 Label_7_01EA4FE0
 BYTE   FINE

//**************** Track 9 (Midi-Chn.8) ****************//

CastlevaniaCircleoftheMoonAwakeRSflame_009:
// 000   ----------------------------------------
Label_8_01EA587C:
 BYTE   TEMPO   100*CastlevaniaCircleoftheMoonAwakeRSflame_tbs/2
 BYTE   KEYSH   CastlevaniaCircleoftheMoonAwakeRSflame_key+0
 BYTE   VOICE   127
 BYTE   W96
// 001   ----------------------------------------
 BYTE   W96
// 002   ----------------------------------------
 BYTE   W96
// 003   ----------------------------------------
 BYTE   W96
// 004   ----------------------------------------
 BYTE   TEMPO   140*CastlevaniaCircleoftheMoonAwakeRSflame_tbs/2
 BYTE   VOL   46*CastlevaniaCircleoftheMoonAwakeRSflame_mvl/mxv
 BYTE   PAN   c_v+0
 BYTE   N07  As3  v056
 BYTE   W12
 BYTE   As3
 BYTE   W12
 BYTE   N12  Cn4
 BYTE   W12
 BYTE   As3
 BYTE   W12
 BYTE   As3
 BYTE   W12
 BYTE   As3
 BYTE   W12
 BYTE   Cn4
 BYTE   W12
 BYTE   As3
 BYTE   W12
// 005   ----------------------------------------
 BYTE   As3
 BYTE   W12
 BYTE   As3
 BYTE   W12
 BYTE   Cn4
 BYTE   W12
 BYTE   As3
 BYTE   W12
 BYTE   As3
 BYTE   W12
 BYTE   As3
 BYTE   W12
 BYTE   Cn4
 BYTE   W12
 BYTE   As3
 BYTE   W12
// 006   ----------------------------------------
 BYTE   As3
 BYTE   W12
 BYTE   As3
 BYTE   W12
 BYTE   Cn4
 BYTE   W12
 BYTE   As3
 BYTE   W12
 BYTE   Cn4
 BYTE   W12
 BYTE   As3
 BYTE   W12
 BYTE   As3
 BYTE   W12
 BYTE   Cn4
 BYTE   W12
// 007   ----------------------------------------
 BYTE   As3
 BYTE   W12
 BYTE   As3
 BYTE   W12
 BYTE   Cn4
 BYTE   W12
 BYTE   As3
 BYTE   W12
 BYTE   Cn4
 BYTE   N24  As1  v092
 BYTE   W12
 BYTE   N05  Cn1  v060
 BYTE   N07  As3  v056
 BYTE   W06
 BYTE   N06  Cn1  v060
 BYTE   W06
 BYTE   N12  En1  v124
 BYTE   N24  En2  v052
 BYTE   W24
// 008   ----------------------------------------
Label_8_01EA58DE:
 BYTE   N12  Cn1  v076
 BYTE   N24  Cs2
 BYTE   W24
 BYTE   N12  Fs1  v028
 BYTE   N12  En1  v124
 BYTE   W24
 BYTE   Fs1  v028
 BYTE   N12  Cn1  v076
 BYTE   W18
 BYTE   N06  Cn1  v084
 BYTE   W06
 BYTE   N12  Fs1  v032
 BYTE   N12  En1  v124
 BYTE   W12
 BYTE   Cn1  v084
 BYTE   W12
 BYTE   PEND 
// 009   ----------------------------------------
Label_8_01EA5900:
 BYTE   N12  Fs1  v024
 BYTE   N12  Cn1  v084
 BYTE   W24
 BYTE   Fs1  v032
 BYTE   N12  En1  v124
 BYTE   W24
 BYTE   Fs1  v028
 BYTE   N12  Cn1  v084
 BYTE   W18
 BYTE   N06  Cn1  v060
 BYTE   W06
 BYTE   N12  Fs1  v032
 BYTE   N12  En1  v124
 BYTE   W24
 BYTE   PEND 
// 010   ----------------------------------------
Label_8_01EA591F:
 BYTE   N12  Fs1  v024
 BYTE   N12  Cn1  v076
 BYTE   W24
 BYTE   Fs1  v028
 BYTE   N12  En1  v124
 BYTE   W24
 BYTE   Fs1  v028
 BYTE   N12  Cn1  v076
 BYTE   W24
 BYTE   Fs1  v032
 BYTE   N12  En1  v124
 BYTE   W24
 BYTE   PEND 
// 011   ----------------------------------------
 BYTE   N12  Fs1  v024
 BYTE   N12  Cn1  v084
 BYTE   W24
 BYTE   Fs1  v032
 BYTE   N12  En1  v124
 BYTE   W12
 BYTE   Cn1  v084
 BYTE   W12
 BYTE   Fs1  v028
 BYTE   N12  Cn1  v084
 BYTE   W18
 BYTE   N06  Cn1  v060
 BYTE   W06
 BYTE   N12  Fs1  v032
 BYTE   N12  En1  v124
 BYTE   W12
 BYTE   Cn1  v060
 BYTE   W12
// 012   ----------------------------------------
 BYTE   PATT
  POIN2 Label_8_01EA58DE
// 013   ----------------------------------------
 BYTE   PATT
  POIN2 Label_8_01EA5900
// 014   ----------------------------------------
 BYTE   PATT
  POIN2 Label_8_01EA591F
// 015   ----------------------------------------
 BYTE   N12  Fs1  v024
 BYTE   N12  Cn1  v084
 BYTE   W24
 BYTE   Fs1  v032
 BYTE   N12  En1  v124
 BYTE   W12
 BYTE   Cn1  v084
 BYTE   W12
 BYTE   Fs1  v028
 BYTE   N12  Cn1  v084
 BYTE   W18
 BYTE   N06  Cn1  v060
 BYTE   W06
 BYTE   N12  Fs1  v032
 BYTE   N12  En1  v124
 BYTE   W12
 BYTE   N06
 BYTE   N12  Cn1  v060
 BYTE   W06
 BYTE   N06  En1  v100
 BYTE   W06
// 016   ----------------------------------------
 BYTE   N24  Cn1  v076
 BYTE   N24  Cs2
 BYTE   W24
 BYTE   N12  Fs1  v028
 BYTE   N12  En1  v124
 BYTE   W24
 BYTE   Fs1  v028
 BYTE   N12  Cn1  v076
 BYTE   W18
 BYTE   N11  Cn1  v084
 BYTE   W06
 BYTE   N12  Fs1  v032
 BYTE   N12  En1  v124
 BYTE   W12
 BYTE   N11  Cn1  v084
 BYTE   W12
// 017   ----------------------------------------
Label_8_01EA59B8:
 BYTE   N12  Fs1  v024
 BYTE   N12  Cn1  v084
 BYTE   W24
 BYTE   Fs1  v032
 BYTE   N12  En1  v124
 BYTE   W24
 BYTE   N11  Cn1  v084
 BYTE   N12  Fs1  v028
 BYTE   W18
 BYTE   N06  Cn1  v060
 BYTE   W06
 BYTE   N12  Fs1  v032
 BYTE   N12  En1  v124
 BYTE   W24
 BYTE   PEND 
// 018   ----------------------------------------
 BYTE   PATT
  POIN2 Label_8_01EA591F
// 019   ----------------------------------------
Label_8_01EA59DD:
 BYTE   N12  Fs1  v024
 BYTE   N12  Cn1  v084
 BYTE   W24
 BYTE   Fs1  v032
 BYTE   N12  En1  v124
 BYTE   W12
 BYTE   N11  Cn1  v084
 BYTE   W12
 BYTE   N12
 BYTE   N12  Fs1  v028
 BYTE   W18
 BYTE   N06  Cn1  v060
 BYTE   W06
 BYTE   N12  Fs1  v032
 BYTE   N12  En1  v124
 BYTE   W12
 BYTE   Cn1  v060
 BYTE   W12
 BYTE   PEND 
// 020   ----------------------------------------
 BYTE   N06  Cn1  v076
 BYTE   N24  Cs2
 BYTE   W24
 BYTE   N12  Fs1  v028
 BYTE   N12  En1  v124
 BYTE   W24
 BYTE   Fs1  v028
 BYTE   N12  Cn1  v076
 BYTE   W18
 BYTE   N11  Cn1  v084
 BYTE   W06
 BYTE   N12  Fs1  v032
 BYTE   N12  En1  v124
 BYTE   W12
 BYTE   N11  Cn1  v084
 BYTE   W12
// 021   ----------------------------------------
 BYTE   PATT
  POIN2 Label_8_01EA59B8
// 022   ----------------------------------------
 BYTE   PATT
  POIN2 Label_8_01EA591F
// 023   ----------------------------------------
 BYTE   PATT
  POIN2 Label_8_01EA59DD
// 024   ----------------------------------------
 BYTE   PATT
  POIN2 Label_8_01EA591F
// 025   ----------------------------------------
 BYTE   N12  Fs1  v024
 BYTE   N12  Cn1  v084
 BYTE   W24
 BYTE   Fs1  v032
 BYTE   N12  En1  v092
 BYTE   W24
 BYTE   N06  Cn1  v084
 BYTE   N12  Fs1  v028
 BYTE   W06
 BYTE   N06  En1  v124
 BYTE   W06
 BYTE   N12  En1  v112
 BYTE   W12
 BYTE   Cn1  v084
 BYTE   N24  As1  v040
 BYTE   W12
 BYTE   N06  Gn1  v068
 BYTE   W06
 BYTE   N08  Bn1  v116
 BYTE   W06
// 026   ----------------------------------------
 BYTE   N12  Cn1  v076
 BYTE   N24  Cs2
 BYTE   W24
 BYTE   N12  En1  v124
 BYTE   N24  Dn2  v056
 BYTE   W24
 BYTE   N12  Cn1  v076
 BYTE   N24  Dn2  v056
 BYTE   W18
 BYTE   N12  Cn1  v076
 BYTE   W06
 BYTE   N06  En1  v124
 BYTE   N24  Dn2  v056
 BYTE   W12
 BYTE   N11  Cn1  v084
 BYTE   W12
// 027   ----------------------------------------
Label_8_01EA5A85:
 BYTE   N12  Cn1  v084
 BYTE   N24  Dn2  v056
 BYTE   W24
 BYTE   N12  En1  v124
 BYTE   N24  Dn2  v056
 BYTE   W24
 BYTE   N11  Cn1  v084
 BYTE   N24  Dn2  v056
 BYTE   W18
 BYTE   N12  Cn1  v060
 BYTE   W06
 BYTE   N06  En1  v124
 BYTE   N24  Dn2  v056
 BYTE   W12
 BYTE   N12  Cn1  v060
 BYTE   W12
 BYTE   PEND 
// 028   ----------------------------------------
Label_8_01EA5AAA:
 BYTE   N12  Cn1  v076
 BYTE   N24  Dn2  v056
 BYTE   W24
 BYTE   N12  En1  v124
 BYTE   N24  Dn2  v056
 BYTE   W24
 BYTE   N12  Cn1  v076
 BYTE   N24  Dn2  v056
 BYTE   W24
 BYTE   N12  En1  v124
 BYTE   N24  Dn2  v056
 BYTE   W24
 BYTE   PEND 
// 029   ----------------------------------------
 BYTE   PATT
  POIN2 Label_8_01EA5A85
// 030   ----------------------------------------
 BYTE   N12  Cn1  v076
 BYTE   N24  Dn2  v056
 BYTE   W24
 BYTE   N12  En1  v124
 BYTE   N24  Dn2  v056
 BYTE   W24
 BYTE   N12  Cn1  v076
 BYTE   N24  Dn2  v056
 BYTE   W18
 BYTE   N12  Cn1  v076
 BYTE   W06
 BYTE   N06  En1  v124
 BYTE   N24  Dn2  v056
 BYTE   W12
 BYTE   N11  Cn1  v084
 BYTE   W12
// 031   ----------------------------------------
 BYTE   PATT
  POIN2 Label_8_01EA5A85
// 032   ----------------------------------------
 BYTE   PATT
  POIN2 Label_8_01EA5AAA
// 033   ----------------------------------------
 BYTE   N12  Cn1  v084
 BYTE   N24  Dn2  v056
 BYTE   W18
 BYTE   N11  Cn1  v084
 BYTE   W06
 BYTE   N12  En1  v124
 BYTE   N24  Dn2  v056
 BYTE   W12
 BYTE   N11  Cn1  v084
 BYTE   W12
 BYTE   N18
 BYTE   N24  Dn2  v056
 BYTE   W18
 BYTE   N12  Cn1  v060
 BYTE   W06
 BYTE   N06  En1  v124
 BYTE   N24  Dn2  v056
 BYTE   W12
 BYTE   N12  Cn1  v060
 BYTE   W12
// 034   ----------------------------------------
 BYTE   N24  Cn1  v076
 BYTE   N24  Dn2  v056
 BYTE   W24
 BYTE   N12  En1  v124
 BYTE   N24  Dn2  v056
 BYTE   W24
 BYTE   N12  Cn1  v080
 BYTE   N24  Dn2  v056
 BYTE   W24
 BYTE   N12  En1  v127
 BYTE   N24  Dn2  v056
 BYTE   W12
 BYTE   N06  En1  v084
 BYTE   W06
 BYTE   En1  v124
 BYTE   W06
// 035   ----------------------------------------
 BYTE   N12  Cn1  v080
 BYTE   N24  Dn2  v056
 BYTE   W18
 BYTE   N06  En1  v116
 BYTE   W06
 BYTE   N12  Cn1  v080
 BYTE   N24  Dn2  v056
 BYTE   W12
 BYTE   N05  En1  v116
 BYTE   W12
 BYTE   N12  Cn1  v080
 BYTE   N24  Dn2  v056
 BYTE   W06
 BYTE   N05  En1  v116
 BYTE   W06
 BYTE   N06  En1  v088
 BYTE   W06
 BYTE   Cn1  v080
 BYTE   W06
 BYTE   N12
 BYTE   N24  Dn2  v056
 BYTE   W06
 BYTE   N06  Ds1  v100
 BYTE   W06
 BYTE   Gn1  v084
 BYTE   W06
 BYTE   N05  Gn1  v072
 BYTE   W06
// 036   ----------------------------------------
 BYTE   N12  Cn1  v076
 BYTE   N24  Cs2  v096
 BYTE   W24
 BYTE   N12  Fs1  v028
 BYTE   N12  En1  v124
 BYTE   W24
 BYTE   Fs1  v028
 BYTE   N12  Cn1  v076
 BYTE   W18
 BYTE   N11  Cn1  v084
 BYTE   W06
 BYTE   N12  Fs1  v032
 BYTE   N12  En1  v124
 BYTE   W12
 BYTE   N11  Cn1  v084
 BYTE   W12
// 037   ----------------------------------------
Label_8_01EA5BA2:
 BYTE   N12  Fs1  v024
 BYTE   N12  Cn1  v084
 BYTE   W24
 BYTE   Fs1  v032
 BYTE   N12  En1  v124
 BYTE   W24
 BYTE   N11  Cn1  v084
 BYTE   N12  Fs1  v028
 BYTE   W12
 BYTE   N05  Cn1  v084
 BYTE   W06
 BYTE   N12  Cn1  v060
 BYTE   W06
 BYTE   N06  En1  v124
 BYTE   N24  En2  v080
 BYTE   W24
 BYTE   PEND 
// 038   ----------------------------------------
Label_8_01EA5BC6:
 BYTE   N12  Cn1  v076
 BYTE   N24  Cs2  v088
 BYTE   W24
 BYTE   N12  Fs1  v028
 BYTE   N12  En1  v124
 BYTE   W24
 BYTE   Fs1  v028
 BYTE   N12  Cn1  v076
 BYTE   W24
 BYTE   Fs1  v032
 BYTE   N12  En1  v124
 BYTE   W24
 BYTE   PEND 
// 039   ----------------------------------------
 BYTE   N12  Fs1  v024
 BYTE   N12  Cn1  v084
 BYTE   W24
 BYTE   Fs1  v032
 BYTE   N12  En1  v124
 BYTE   W12
 BYTE   N11  Cn1  v084
 BYTE   W12
 BYTE   N12  Fs1  v028
 BYTE   N12  En1  v124
 BYTE   W12
 BYTE   N05  Cn1  v084
 BYTE   W06
 BYTE   N12  Cn1  v060
 BYTE   W06
 BYTE   N06  En1  v124
 BYTE   N24  En2  v080
 BYTE   W12
 BYTE   N12  Cn1  v060
 BYTE   W12
// 040   ----------------------------------------
 BYTE   N24  Cn1  v076
 BYTE   N24  Cs2  v088
 BYTE   W24
 BYTE   N12  Fs1  v028
 BYTE   N12  En1  v124
 BYTE   W24
 BYTE   Fs1  v028
 BYTE   N12  Cn1  v076
 BYTE   W18
 BYTE   N11  Cn1  v084
 BYTE   W06
 BYTE   N12  Fs1  v032
 BYTE   N12  En1  v124
 BYTE   W12
 BYTE   N11  Cn1  v084
 BYTE   W12
// 041   ----------------------------------------
 BYTE   PATT
  POIN2 Label_8_01EA5BA2
// 042   ----------------------------------------
 BYTE   PATT
  POIN2 Label_8_01EA5BC6
// 043   ----------------------------------------
 BYTE   N12  Fs1  v024
 BYTE   N12  Cn1  v084
 BYTE   W24
 BYTE   Fs1  v032
 BYTE   N12  En1  v124
 BYTE   W12
 BYTE   N11  Cn1  v084
 BYTE   W12
 BYTE   N12  Fs1  v028
 BYTE   N12  En1  v124
 BYTE   W12
 BYTE   N05  Cn1  v084
 BYTE   W06
 BYTE   N12  Cn1  v060
 BYTE   W06
 BYTE   N06  En1  v124
 BYTE   GoTo
  POIN2 Label_8_01EA587C
 BYTE   FINE

//******************************************************//
	ALIGN 4

CastlevaniaCircleoftheMoonAwakeRSflame:
	BYTE	9	// NumTrks
	BYTE	0	// NumBlks
	BYTE	CastlevaniaCircleoftheMoonAwakeRSflame_pri	// Priority
	BYTE	CastlevaniaCircleoftheMoonAwakeRSflame_rev	// Reverb.
    
	POIN2	CastlevaniaCircleoftheMoonAwakeRSflame_grp
    
	POIN2	CastlevaniaCircleoftheMoonAwakeRSflame_001
	POIN2	CastlevaniaCircleoftheMoonAwakeRSflame_002
	POIN2	CastlevaniaCircleoftheMoonAwakeRSflame_003
	POIN2	CastlevaniaCircleoftheMoonAwakeRSflame_004
	POIN2	CastlevaniaCircleoftheMoonAwakeRSflame_005
	POIN2	CastlevaniaCircleoftheMoonAwakeRSflame_006
	POIN2	CastlevaniaCircleoftheMoonAwakeRSflame_007
	POIN2	CastlevaniaCircleoftheMoonAwakeRSflame_008
	POIN2	CastlevaniaCircleoftheMoonAwakeRSflame_009

	
