//Event file generated from Sappy .s format.
	#include "MPlayDef.event"

	#define	Castlevania4SimonsThemeAReliableChair_grp  voicegroup000
	#define	Castlevania4SimonsThemeAReliableChair_pri  0
	#define	Castlevania4SimonsThemeAReliableChair_rev  0
	#define	Castlevania4SimonsThemeAReliableChair_mvl  127
	#define	Castlevania4SimonsThemeAReliableChair_key  0
	#define	Castlevania4SimonsThemeAReliableChair_tbs  1
	#define	Castlevania4SimonsThemeAReliableChair_exg  0
	#define	Castlevania4SimonsThemeAReliableChair_cmp  1

	// .rodata
	//	Castlevania4SimonsThemeAReliableChair
	ALIGN 4


//**************** Track 1 (Midi-Chn.0) ****************//

Castlevania4SimonsThemeAReliableChair_001:
// 000   ----------------------------------------
 BYTE   KEYSH   Castlevania4SimonsThemeAReliableChair_key+0
Label_0_012FD81E:
 BYTE   TEMPO   120*Castlevania4SimonsThemeAReliableChair_tbs/2
 BYTE   VOICE   19
 BYTE   MODT 0
 BYTE   CnM2
 BYTE   LFOS 0
 BYTE   Gs1
 BYTE   VOL   33*Castlevania4SimonsThemeAReliableChair_mvl/mxv
 BYTE   N24  Gn2  v088
 BYTE   W24
 BYTE   N18  An2
 BYTE   W18
 BYTE   N30  Fn2
 BYTE   W30
 BYTE   N06  An2
 BYTE   W06
 BYTE   N12  As2
 BYTE   W12
 BYTE   N30  Cn3
 BYTE   W06
// 001   ----------------------------------------
 BYTE   W24
 BYTE   N06  As2
 BYTE   W06
 BYTE   N12  An2
 BYTE   W12
 BYTE   As2
 BYTE   W12
 BYTE   N06  Gn2
 BYTE   W06
 BYTE   N12  Dn2
 BYTE   W12
 BYTE   N06  Gn2
 BYTE   W06
 BYTE   N12
 BYTE   W12
 BYTE   N30
 BYTE   W06
// 002   ----------------------------------------
 BYTE   W24
 BYTE   N18  An2
 BYTE   W18
 BYTE   N30  Fn2
 BYTE   W30
 BYTE   N18  An2
 BYTE   W18
 BYTE   N30  As2
 BYTE   W06
// 003   ----------------------------------------
 BYTE   W24
 BYTE   N12  Cn3
 BYTE   W12
 BYTE   N06  Dn3
 BYTE   W06
 BYTE   N30  Cn3
 BYTE   W30
 BYTE   N24  An2
 BYTE   W24
// 004   ----------------------------------------
 BYTE   Gn3
 BYTE   W24
 BYTE   N18  An3
 BYTE   W18
 BYTE   N30  Fn3
 BYTE   W30
 BYTE   N06  An3
 BYTE   W06
 BYTE   N12  As3
 BYTE   W12
 BYTE   N30  Cn4
 BYTE   W06
// 005   ----------------------------------------
 BYTE   W24
 BYTE   N06  As3
 BYTE   W06
 BYTE   N12  An3
 BYTE   W12
 BYTE   As3
 BYTE   W12
 BYTE   N06  An3
 BYTE   W06
 BYTE   Gn3
 BYTE   W06
 BYTE   Dn3
 BYTE   W06
 BYTE   Gn3
 BYTE   W06
 BYTE   N12
 BYTE   W12
 BYTE   N30
 BYTE   W06
// 006   ----------------------------------------
 BYTE   W24
 BYTE   N18  An3
 BYTE   W18
 BYTE   N30  Fn3
 BYTE   W30
 BYTE   N18  An3
 BYTE   W18
 BYTE   N30  As3
 BYTE   W06
// 007   ----------------------------------------
 BYTE   W24
 BYTE   N12  Cn4
 BYTE   W12
 BYTE   N06  Dn4
 BYTE   W06
 BYTE   N30  Cn4
 BYTE   W30
 BYTE   N24  An3
 BYTE   W24
// 008   ----------------------------------------
 BYTE   W96
// 009   ----------------------------------------
 BYTE   W96
// 010   ----------------------------------------
 BYTE   W96
// 011   ----------------------------------------
 BYTE   W96
// 012   ----------------------------------------
 BYTE   W96
// 013   ----------------------------------------
 BYTE   W96
// 014   ----------------------------------------
 BYTE   W96
// 015   ----------------------------------------
 BYTE   W84
 BYTE   GoTo
  POIN2 Label_0_012FD81E
// 016   ----------------------------------------
 BYTE   W12
 BYTE   FINE

//**************** Track 2 (Midi-Chn.1) ****************//

Castlevania4SimonsThemeAReliableChair_002:
// 000   ----------------------------------------
 BYTE   KEYSH   Castlevania4SimonsThemeAReliableChair_key+0
Label_1_012FD8BE:
 BYTE   VOICE   33
 BYTE   MODT 0
 BYTE   CnM2
 BYTE   LFOS 0
 BYTE   Gs1
 BYTE   VOL   33*Castlevania4SimonsThemeAReliableChair_mvl/mxv
 BYTE   N24  Gn1  v088
 BYTE   W24
 BYTE   N18  An1
 BYTE   W18
 BYTE   N30  Fn1
 BYTE   W30
 BYTE   N06  Ds1
 BYTE   W06
 BYTE   N12  Dn1
 BYTE   W12
 BYTE   N30  Cn1
 BYTE   W06
// 001   ----------------------------------------
Label_1_012FD8D9:
 BYTE   W24
 BYTE   N18  Fn1  v088
 BYTE   W18
 BYTE   N30  Gn1
 BYTE   W30
 BYTE   N06
 BYTE   W06
 BYTE   N12
 BYTE   W12
 BYTE   N30  Ds1
 BYTE   W06
 BYTE   PEND 
// 002   ----------------------------------------
Label_1_012FD8E9:
 BYTE   W24
 BYTE   N18  Gn1  v088
 BYTE   W18
 BYTE   N30  Fn1
 BYTE   W30
 BYTE   N06  Ds1
 BYTE   W06
 BYTE   N12  Dn1
 BYTE   W12
 BYTE   N30  Cn1
 BYTE   W06
 BYTE   PEND 
// 003   ----------------------------------------
Label_1_012FD8FB:
 BYTE   W24
 BYTE   N18  Ds1  v088
 BYTE   W18
 BYTE   Dn1
 BYTE   W18
 BYTE   N12
 BYTE   W12
 BYTE   N06  Fs1
 BYTE   W06
 BYTE   Dn1
 BYTE   W06
 BYTE   N12  Fs1
 BYTE   W12
 BYTE   PEND 
// 004   ----------------------------------------
 BYTE   N24  Gn1
 BYTE   W24
 BYTE   N18  An1
 BYTE   W18
 BYTE   N30  Fn1
 BYTE   W30
 BYTE   N06  Ds1
 BYTE   W06
 BYTE   N12  Dn1
 BYTE   W12
 BYTE   N30  Cn1
 BYTE   W06
 BYTE   PATT
  POIN2 Label_1_012FD8D9
 BYTE   PATT
  POIN2 Label_1_012FD8E9
 BYTE   PATT
  POIN2 Label_1_012FD8FB
// 005   ----------------------------------------
Label_1_012FD92E:
 BYTE   N06  Gn0  v088
 BYTE   W06
 BYTE   N06
 BYTE   W06
 BYTE   Fn0
 BYTE   W06
 BYTE   Gn0
 BYTE   W42
 BYTE   N12  Fn0
 BYTE   W12
 BYTE   N06  Gn0
 BYTE   W06
 BYTE   Fn0
 BYTE   W06
 BYTE   N12  Gn0
 BYTE   W12
 BYTE   PEND 
// 006   ----------------------------------------
Label_1_012FD944:
 BYTE   N06  Gs0  v088
 BYTE   W06
 BYTE   N06
 BYTE   W06
 BYTE   Gn0
 BYTE   W06
 BYTE   Gs0
 BYTE   W30
 BYTE   Gn0
 BYTE   W06
 BYTE   N06
 BYTE   W06
 BYTE   N12  Fn0
 BYTE   W12
 BYTE   N06  Gn0
 BYTE   W06
 BYTE   N18  Fn0
 BYTE   W18
 BYTE   PEND 
// 007   ----------------------------------------
 BYTE   N06  Ds0
 BYTE   W06
 BYTE   N06
 BYTE   W06
 BYTE   Dn0
 BYTE   W06
 BYTE   Ds0
 BYTE   W30
 BYTE   Fn0
 BYTE   W06
 BYTE   N06
 BYTE   W06
 BYTE   N12  Ds0
 BYTE   W12
 BYTE   N06  Fn0
 BYTE   W06
 BYTE   N18  Cn0
 BYTE   W18
// 008   ----------------------------------------
 BYTE   N06
 BYTE   W06
 BYTE   N06
 BYTE   W06
 BYTE   Dn0
 BYTE   W06
 BYTE   N12  Ds0
 BYTE   W12
 BYTE   Fn0
 BYTE   W12
 BYTE   N06  Gn0
 BYTE   W06
 BYTE   Fn0
 BYTE   W06
 BYTE   An0
 BYTE   W06
 BYTE   N12  As0
 BYTE   W12
 BYTE   N06  Cn1
 BYTE   W06
 BYTE   N18  Fn0
 BYTE   W18
 BYTE   PATT
  POIN2 Label_1_012FD92E
 BYTE   PATT
  POIN2 Label_1_012FD944
// 009   ----------------------------------------
 BYTE   N06  Ds0  v088
 BYTE   W06
 BYTE   N06
 BYTE   W06
 BYTE   Dn0
 BYTE   W06
 BYTE   Ds0
 BYTE   W30
 BYTE   An0
 BYTE   W06
 BYTE   N06
 BYTE   W06
 BYTE   N12  Fn0
 BYTE   W12
 BYTE   N06  An0
 BYTE   W06
 BYTE   N18  Fn0
 BYTE   W18
// 010   ----------------------------------------
 BYTE   N12  Ds0
 BYTE   W12
 BYTE   N06
 BYTE   W06
 BYTE   Fn0
 BYTE   W06
 BYTE   Gn0
 BYTE   W06
 BYTE   Gs0
 BYTE   W06
 BYTE   As0
 BYTE   W06
 BYTE   N12  Cn1
 BYTE   W12
 BYTE   Dn1
 BYTE   W12
 BYTE   N06  Cn1
 BYTE   W06
 BYTE   An0
 BYTE   W06
 BYTE   Fn0
 BYTE   W06
 BYTE   GoTo
  POIN2 Label_1_012FD8BE
// 011   ----------------------------------------
 BYTE   N06  Fn1  v088
 BYTE   W06
 BYTE   Fn0
 BYTE   W06
 BYTE   FINE

//**************** Track 3 (Midi-Chn.2) ****************//

Castlevania4SimonsThemeAReliableChair_003:
// 000   ----------------------------------------
 BYTE   KEYSH   Castlevania4SimonsThemeAReliableChair_key+0
Label_2_012FD9D6:
 BYTE   VOICE   45
 BYTE   MODT 0
 BYTE   CnM2
 BYTE   LFOS 0
 BYTE   Gs1
 BYTE   VOL   10*Castlevania4SimonsThemeAReliableChair_mvl/mxv
 BYTE   N24  As2  v088
 BYTE   N24  Dn3
 BYTE   N24  Gn3
 BYTE   W24
 BYTE   N18  Cn3
 BYTE   N18  Fn3
 BYTE   N18  An3
 BYTE   W18
 BYTE   N54  An2
 BYTE   N54  Cn3
 BYTE   N54  Fn3
 BYTE   W54
// 001   ----------------------------------------
Label_2_012FD9F4:
 BYTE   N24  Gn2  v088
 BYTE   N24  Cn3
 BYTE   N24  Ds3
 BYTE   W24
 BYTE   N18  An2
 BYTE   N18  Cn3
 BYTE   N18  Fn3
 BYTE   W18
 BYTE   N54  As2
 BYTE   N54  Dn3
 BYTE   N54  Gn3
 BYTE   W54
 BYTE   PEND 
// 002   ----------------------------------------
Label_2_012FDA0B:
 BYTE   N24  As2  v088
 BYTE   N24  Ds3
 BYTE   N24  Gn3
 BYTE   W24
 BYTE   N18  Cn3
 BYTE   N18  Fn3
 BYTE   N18  An3
 BYTE   W18
 BYTE   N54  An2
 BYTE   N54  Cn3
 BYTE   N54  Fn3
 BYTE   W54
 BYTE   PEND 
// 003   ----------------------------------------
Label_2_012FDA22:
 BYTE   N42  Gn2  v088
 BYTE   N42  Cn3
 BYTE   N42  Ds3
 BYTE   W42
 BYTE   N54  An2
 BYTE   N30  Dn3
 BYTE   N30  Fn3
 BYTE   W30
 BYTE   N24  Dn3
 BYTE   N24  Fs3
 BYTE   W24
 BYTE   PEND 
// 004   ----------------------------------------
 BYTE   As2
 BYTE   N24  Dn3
 BYTE   N24  Gn3
 BYTE   W24
 BYTE   N18  Cn3
 BYTE   N18  Fn3
 BYTE   N18  An3
 BYTE   W18
 BYTE   N54  An2
 BYTE   N54  Cn3
 BYTE   N54  Fn3
 BYTE   W54
 BYTE   PATT
  POIN2 Label_2_012FD9F4
 BYTE   PATT
  POIN2 Label_2_012FDA0B
 BYTE   PATT
  POIN2 Label_2_012FDA22
// 005   ----------------------------------------
Label_2_012FDA5A:
 BYTE   VOL   0*Castlevania4SimonsThemeAReliableChair_mvl/mxv
 BYTE   N48  As2  v088
 BYTE   N48  Dn3
 BYTE   N48  Gn3
 BYTE   W48
 BYTE   An2
 BYTE   N48  Cn3
 BYTE   N48  Fn3
 BYTE   W48
 BYTE   PEND 
// 006   ----------------------------------------
Label_2_012FDA6B:
 BYTE   N48  Gs2  v088
 BYTE   N48  Cn3
 BYTE   N48  Ds3
 BYTE   W48
 BYTE   Gn2
 BYTE   N48  As2
 BYTE   N48  Dn3
 BYTE   W48
 BYTE   PEND 
// 007   ----------------------------------------
Label_2_012FDA7A:
 BYTE   N48  Gn2  v088
 BYTE   N48  As2
 BYTE   N48  Ds3
 BYTE   W48
 BYTE   An2
 BYTE   N48  Cn3
 BYTE   N48  Fn3
 BYTE   W48
 BYTE   PEND 
 BYTE   PATT
  POIN2 Label_2_012FDA7A
 BYTE   PATT
  POIN2 Label_2_012FDA5A
 BYTE   PATT
  POIN2 Label_2_012FDA6B
 BYTE   PATT
  POIN2 Label_2_012FDA7A
// 008   ----------------------------------------
 BYTE   N48  Gn2  v088
 BYTE   N48  As2
 BYTE   N48  Ds3
 BYTE   W48
 BYTE   An2
 BYTE   N48  Cn3
 BYTE   N48  Fn3
 BYTE   W36
 BYTE   GoTo
  POIN2 Label_2_012FD9D6
// 009   ----------------------------------------
 BYTE   W12
 BYTE   FINE

//**************** Track 4 (Midi-Chn.3) ****************//

Castlevania4SimonsThemeAReliableChair_004:
// 000   ----------------------------------------
 BYTE   KEYSH   Castlevania4SimonsThemeAReliableChair_key+0
Label_3_012FDAB6:
 BYTE   VOICE   19
 BYTE   MODT 0
 BYTE   CnM2
 BYTE   LFOS 0
 BYTE   Gs1
 BYTE   VOL   33*Castlevania4SimonsThemeAReliableChair_mvl/mxv
 BYTE   W24
 BYTE   N18  An3  v088
 BYTE   W18
 BYTE   N30  Fn3
 BYTE   W30
 BYTE   N06  An3
 BYTE   W06
 BYTE   N12  As3
 BYTE   W12
 BYTE   N30  Cn4
 BYTE   W06
// 001   ----------------------------------------
 BYTE   W24
 BYTE   N06  As3
 BYTE   W06
 BYTE   N12  An3
 BYTE   W12
 BYTE   As3
 BYTE   W12
 BYTE   N06  Gn3
 BYTE   W06
 BYTE   N12  Dn3
 BYTE   W12
 BYTE   N06  Gn3
 BYTE   W06
 BYTE   N12
 BYTE   W12
 BYTE   N30
 BYTE   W06
// 002   ----------------------------------------
Label_3_012FDAE5:
 BYTE   W24
 BYTE   N18  An3  v088
 BYTE   W18
 BYTE   N30  Fn3
 BYTE   W30
 BYTE   N18  An3
 BYTE   W18
 BYTE   N30  As3
 BYTE   W06
 BYTE   PEND 
// 003   ----------------------------------------
Label_3_012FDAF4:
 BYTE   W24
 BYTE   N12  Cn4  v088
 BYTE   W12
 BYTE   N06  Dn4
 BYTE   W06
 BYTE   N30  Cn4
 BYTE   W30
 BYTE   N24  An3
 BYTE   W24
 BYTE   PEND 
// 004   ----------------------------------------
 BYTE   Gn3
 BYTE   W24
 BYTE   N18  An3
 BYTE   W18
 BYTE   N30  Fn3
 BYTE   W30
 BYTE   N06  An3
 BYTE   W06
 BYTE   N12  As3
 BYTE   W12
 BYTE   N30  Cn4
 BYTE   W06
// 005   ----------------------------------------
 BYTE   W24
 BYTE   N06  As3
 BYTE   W06
 BYTE   N12  An3
 BYTE   W12
 BYTE   As3
 BYTE   W12
 BYTE   N06  An3
 BYTE   W06
 BYTE   Gn3
 BYTE   W06
 BYTE   Dn3
 BYTE   W06
 BYTE   Gn3
 BYTE   W06
 BYTE   N12
 BYTE   W12
 BYTE   N30
 BYTE   W06
 BYTE   PATT
  POIN2 Label_3_012FDAE5
 BYTE   PATT
  POIN2 Label_3_012FDAF4
// 006   ----------------------------------------
 BYTE   VOL   16*Castlevania4SimonsThemeAReliableChair_mvl/mxv
 BYTE   W24
 BYTE   N18  As3  v088
 BYTE   N18  Dn4
 BYTE   W18
 BYTE   N42  An3
 BYTE   N42  Cn4
 BYTE   W54
// 007   ----------------------------------------
Label_3_012FDB42:
 BYTE   N48  Cn4  v088
 BYTE   N48  Ds4
 BYTE   W48
 BYTE   As3
 BYTE   N48  Dn4
 BYTE   W48
 BYTE   PEND 
// 008   ----------------------------------------
Label_3_012FDB4D:
 BYTE   W24
 BYTE   N18  Gn3  v088
 BYTE   N18  As3
 BYTE   W18
 BYTE   N42  An3
 BYTE   N42  Cn4
 BYTE   W54
 BYTE   PEND 
// 009   ----------------------------------------
 BYTE   Ds3
 BYTE   N42  Gn3
 BYTE   W42
 BYTE   N54  Fn3
 BYTE   N54  An3
 BYTE   W54
// 010   ----------------------------------------
 BYTE   W24
 BYTE   N18  As3
 BYTE   N18  Dn4
 BYTE   W18
 BYTE   N42  An3
 BYTE   N42  Cn4
 BYTE   W54
 BYTE   PATT
  POIN2 Label_3_012FDB42
 BYTE   PATT
  POIN2 Label_3_012FDB4D
// 011   ----------------------------------------
 BYTE   N42  Ds3  v088
 BYTE   N42  Gn3
 BYTE   W42
 BYTE   N54  Fn3
 BYTE   N54  An3
 BYTE   W42
 BYTE   GoTo
  POIN2 Label_3_012FDAB6
// 012   ----------------------------------------
 BYTE   W12
 BYTE   FINE

//**************** Track 5 (Midi-Chn.4) ****************//

Castlevania4SimonsThemeAReliableChair_005:
// 000   ----------------------------------------
 BYTE   KEYSH   Castlevania4SimonsThemeAReliableChair_key+0
Label_4_012FDB8E:
 BYTE   VOICE   28
 BYTE   MODT 0
 BYTE   CnM2
 BYTE   LFOS 0
 BYTE   Gs1
 BYTE   VOL   33*Castlevania4SimonsThemeAReliableChair_mvl/mxv
 BYTE   N24  Gn2  v088
 BYTE   W24
 BYTE   N18  An2
 BYTE   W18
 BYTE   N12  Fn2
 BYTE   W12
 BYTE   N06  Cn2
 BYTE   W06
 BYTE   N12  Fn2
 BYTE   W12
 BYTE   N18  Dn2
 BYTE   W18
 BYTE   N30  Cn2
 BYTE   W06
// 001   ----------------------------------------
Label_4_012FDBAC:
 BYTE   W24
 BYTE   N18  Fn2  v088
 BYTE   W18
 BYTE   Gn2
 BYTE   W18
 BYTE   N12  Dn2
 BYTE   W12
 BYTE   N06  Gn2
 BYTE   W06
 BYTE   Dn2
 BYTE   W06
 BYTE   N12  Gn2
 BYTE   W12
 BYTE   PEND 
// 002   ----------------------------------------
Label_4_012FDBBF:
 BYTE   W24
 BYTE   N18  Dn2  v088
 BYTE   W18
 BYTE   N12  Fn2
 BYTE   W12
 BYTE   N06  Cn2
 BYTE   W06
 BYTE   N12  Fn2
 BYTE   W12
 BYTE   N18  Dn2
 BYTE   W18
 BYTE   N30  Cn2
 BYTE   W06
 BYTE   PEND 
// 003   ----------------------------------------
Label_4_012FDBD4:
 BYTE   W24
 BYTE   N18  Ds2  v088
 BYTE   W18
 BYTE   Dn2
 BYTE   W18
 BYTE   N12
 BYTE   W12
 BYTE   N06  Fs2
 BYTE   W06
 BYTE   Dn2
 BYTE   W06
 BYTE   N12  Fs2
 BYTE   W12
 BYTE   PEND 
// 004   ----------------------------------------
 BYTE   N24  Gn2
 BYTE   W24
 BYTE   N18  An2
 BYTE   W18
 BYTE   N12  Fn2
 BYTE   W12
 BYTE   N06  Cn2
 BYTE   W06
 BYTE   N12  Fn2
 BYTE   W12
 BYTE   N18  Dn2
 BYTE   W18
 BYTE   N30  Cn2
 BYTE   W06
 BYTE   PATT
  POIN2 Label_4_012FDBAC
 BYTE   PATT
  POIN2 Label_4_012FDBBF
 BYTE   PATT
  POIN2 Label_4_012FDBD4
// 005   ----------------------------------------
 BYTE   W96
// 006   ----------------------------------------
 BYTE   W96
// 007   ----------------------------------------
 BYTE   W96
// 008   ----------------------------------------
 BYTE   W96
// 009   ----------------------------------------
 BYTE   W96
// 010   ----------------------------------------
 BYTE   W96
// 011   ----------------------------------------
 BYTE   W96
// 012   ----------------------------------------
 BYTE   W84
 BYTE   GoTo
  POIN2 Label_4_012FDB8E
// 013   ----------------------------------------
 BYTE   W12
 BYTE   FINE

//**************** Track 6 (Midi-Chn.5) ****************//

Castlevania4SimonsThemeAReliableChair_006:
// 000   ----------------------------------------
 BYTE   KEYSH   Castlevania4SimonsThemeAReliableChair_key+0
Label_5_012FDC1E:
 BYTE   VOICE   68
 BYTE   MODT 0
 BYTE   CnM2
 BYTE   LFOS 0
 BYTE   Gs1
 BYTE   VOL   40*Castlevania4SimonsThemeAReliableChair_mvl/mxv
 BYTE   N24  Gn3  v088
 BYTE   W24
 BYTE   N18  An3
 BYTE   W18
 BYTE   N30  Fn3
 BYTE   W30
 BYTE   N06  An3
 BYTE   W06
 BYTE   N12  As3
 BYTE   W12
 BYTE   N30  Cn4
 BYTE   W06
// 001   ----------------------------------------
Label_5_012FDC39:
 BYTE   W24
 BYTE   N06  As3  v088
 BYTE   W06
 BYTE   N12  An3
 BYTE   W12
 BYTE   As3
 BYTE   W12
 BYTE   N06  Gn3
 BYTE   W06
 BYTE   N12  Dn3
 BYTE   W12
 BYTE   N06  Gn3
 BYTE   W06
 BYTE   N12
 BYTE   W12
 BYTE   N30
 BYTE   W06
 BYTE   PEND 
// 002   ----------------------------------------
Label_5_012FDC51:
 BYTE   W24
 BYTE   N18  An3  v088
 BYTE   W18
 BYTE   N30  Fn3
 BYTE   W30
 BYTE   N18  An3
 BYTE   W18
 BYTE   N30  As3
 BYTE   W06
 BYTE   PEND 
// 003   ----------------------------------------
Label_5_012FDC60:
 BYTE   W24
 BYTE   N12  Cn4  v088
 BYTE   W12
 BYTE   N06  Dn4
 BYTE   W06
 BYTE   N30  Cn4
 BYTE   W30
 BYTE   N24  An3
 BYTE   W24
 BYTE   PEND 
// 004   ----------------------------------------
 BYTE   Gn3
 BYTE   W24
 BYTE   N18  An3
 BYTE   W18
 BYTE   N30  Fn3
 BYTE   W30
 BYTE   N06  An3
 BYTE   W06
 BYTE   N12  As3
 BYTE   W12
 BYTE   N30  Cn4
 BYTE   W06
 BYTE   PATT
  POIN2 Label_5_012FDC39
 BYTE   PATT
  POIN2 Label_5_012FDC51
 BYTE   PATT
  POIN2 Label_5_012FDC60
// 005   ----------------------------------------
 BYTE   N18  Dn3  v127
 BYTE   W24
 BYTE   N06
 BYTE   W06
 BYTE   N12  Ds3
 BYTE   W12
 BYTE   N18  Fn3
 BYTE   W18
 BYTE   N12  Gn3
 BYTE   W12
 BYTE   N06  Fn3
 BYTE   W06
 BYTE   N18  Gn3
 BYTE   W18
// 006   ----------------------------------------
 BYTE   Gs3
 BYTE   W18
 BYTE   N06
 BYTE   W06
 BYTE   N06
 BYTE   W06
 BYTE   N12  Ds3
 BYTE   W12
 BYTE   N06  Fn3
 BYTE   W06
 BYTE   N36  Gn3
 BYTE   W48
// 007   ----------------------------------------
 BYTE   N24  Ds3
 BYTE   W24
 BYTE   N12  Fn3
 BYTE   W12
 BYTE   N06  Gn3
 BYTE   W06
 BYTE   N30  Fn3
 BYTE   W30
 BYTE   N24  Cn3
 BYTE   W24
// 008   ----------------------------------------
 BYTE   Ds3
 BYTE   W24
 BYTE   N12  Fn3
 BYTE   W12
 BYTE   N06  Gn3
 BYTE   W06
 BYTE   N42  Fn3
 BYTE   W54
// 009   ----------------------------------------
 BYTE   W24
 BYTE   N06  Dn3
 BYTE   W06
 BYTE   N12  Ds3
 BYTE   W12
 BYTE   N18  Fn3
 BYTE   W18
 BYTE   N12  Gn3
 BYTE   W12
 BYTE   N06  Fn3
 BYTE   W06
 BYTE   N18  Gn3
 BYTE   W18
// 010   ----------------------------------------
 BYTE   Gs3
 BYTE   W18
 BYTE   N06
 BYTE   W06
 BYTE   N06
 BYTE   W06
 BYTE   N12  Ds3
 BYTE   W12
 BYTE   N06  Fn3
 BYTE   W06
 BYTE   N36  Gn3
 BYTE   W12
 BYTE   N06  Fn3
 BYTE   W06
 BYTE   N12  As2
 BYTE   W12
 BYTE   N06  Cn3
 BYTE   W06
 BYTE   N12  Dn3
 BYTE   W12
// 011   ----------------------------------------
 BYTE   N24  Cn3
 BYTE   N24  Ds3
 BYTE   W24
 BYTE   N12  Dn3
 BYTE   N12  Fn3
 BYTE   W12
 BYTE   N06  Ds3
 BYTE   N06  Gn3
 BYTE   W06
 BYTE   N30  Fn3
 BYTE   N30  An3
 BYTE   W30
 BYTE   N24  Cn3
 BYTE   N24  Fn3
 BYTE   W24
// 012   ----------------------------------------
 BYTE   Ds3
 BYTE   N24  Gn3
 BYTE   W24
 BYTE   N12  Fn3
 BYTE   N12  An3
 BYTE   W12
 BYTE   N06  Gn3
 BYTE   N06  As3
 BYTE   W06
 BYTE   N42  An3
 BYTE   N42  Cn4
 BYTE   W42
 BYTE   GoTo
  POIN2 Label_5_012FDC1E
// 013   ----------------------------------------
 BYTE   W12
 BYTE   FINE

//**************** Track 7 (Midi-Chn.6) ****************//

Castlevania4SimonsThemeAReliableChair_007:
// 000   ----------------------------------------
 BYTE   KEYSH   Castlevania4SimonsThemeAReliableChair_key+0
Label_6_012FDD32:
 BYTE   VOICE   121
 BYTE   MODT 0
 BYTE   CnM2
 BYTE   LFOS 0
 BYTE   Gs1
 BYTE   VOL   33*Castlevania4SimonsThemeAReliableChair_mvl/mxv
 BYTE   N03  Dn2  v088
 BYTE   W12
 BYTE   Cn2
 BYTE   W12
 BYTE   Dn2
 BYTE   W06
 BYTE   Cn2
 BYTE   W12
 BYTE   Dn2
 BYTE   W12
 BYTE   Cn2
 BYTE   W06
 BYTE   Dn2
 BYTE   W12
 BYTE   Cn2
 BYTE   W06
 BYTE   Dn2
 BYTE   W06
 BYTE   N03
 BYTE   W06
 BYTE   Cn2
 BYTE   W06
// 001   ----------------------------------------
Label_6_012FDD52:
 BYTE   W12
 BYTE   N03  Cn2  v088
 BYTE   W12
 BYTE   Dn2
 BYTE   W18
 BYTE   Cn2
 BYTE   W12
 BYTE   N03
 BYTE   W06
 BYTE   N03
 BYTE   W12
 BYTE   Dn2
 BYTE   W06
 BYTE   N03
 BYTE   W12
 BYTE   Cn2
 BYTE   W06
 BYTE   PEND 
// 002   ----------------------------------------
Label_6_012FDD66:
 BYTE   W12
 BYTE   N03  Cn2  v088
 BYTE   W12
 BYTE   Dn2
 BYTE   W18
 BYTE   Cn2
 BYTE   W12
 BYTE   N03
 BYTE   W06
 BYTE   N03
 BYTE   W12
 BYTE   Dn2
 BYTE   W18
 BYTE   Cn2
 BYTE   W06
 BYTE   PEND 
// 003   ----------------------------------------
Label_6_012FDD78:
 BYTE   W12
 BYTE   N03  Cn2  v088
 BYTE   W12
 BYTE   Dn2
 BYTE   W18
 BYTE   Cn2
 BYTE   W12
 BYTE   Dn2
 BYTE   W06
 BYTE   N03
 BYTE   W12
 BYTE   N03
 BYTE   W06
 BYTE   N03
 BYTE   W12
 BYTE   N03
 BYTE   W06
 BYTE   PEND 
// 004   ----------------------------------------
 BYTE   N03
 BYTE   W12
 BYTE   Cn2
 BYTE   W12
 BYTE   Dn2
 BYTE   W06
 BYTE   Cn2
 BYTE   W12
 BYTE   Dn2
 BYTE   W12
 BYTE   Cn2
 BYTE   W06
 BYTE   Dn2
 BYTE   W12
 BYTE   Cn2
 BYTE   W06
 BYTE   Dn2
 BYTE   W06
 BYTE   N03
 BYTE   W06
 BYTE   Cn2
 BYTE   W06
 BYTE   PATT
  POIN2 Label_6_012FDD52
 BYTE   PATT
  POIN2 Label_6_012FDD66
 BYTE   PATT
  POIN2 Label_6_012FDD78
// 005   ----------------------------------------
Label_6_012FDDB1:
 BYTE   N03  Cn2  v088
 BYTE   W24
 BYTE   Dn2
 BYTE   W36
 BYTE   Cn2
 BYTE   W12
 BYTE   Dn2
 BYTE   W06
 BYTE   Cn2
 BYTE   W12
 BYTE   N03
 BYTE   W06
 BYTE   PEND 
// 006   ----------------------------------------
Label_6_012FDDC0:
 BYTE   N03  Cn2  v088
 BYTE   W18
 BYTE   N03
 BYTE   W06
 BYTE   Dn2
 BYTE   W36
 BYTE   Cn2
 BYTE   W12
 BYTE   Dn2
 BYTE   W06
 BYTE   Cn2
 BYTE   W18
 BYTE   PEND 
// 007   ----------------------------------------
Label_6_012FDDCF:
 BYTE   N03  Cn2  v088
 BYTE   W12
 BYTE   N03
 BYTE   W12
 BYTE   Dn2
 BYTE   W06
 BYTE   Cn2
 BYTE   W12
 BYTE   Dn2
 BYTE   W18
 BYTE   Cn2
 BYTE   W12
 BYTE   Dn2
 BYTE   W06
 BYTE   Cn2
 BYTE   W18
 BYTE   PEND 
// 008   ----------------------------------------
 BYTE   N03
 BYTE   W12
 BYTE   N03
 BYTE   W12
 BYTE   Dn2
 BYTE   W06
 BYTE   Cn2
 BYTE   W12
 BYTE   Dn2
 BYTE   W12
 BYTE   Cn2
 BYTE   W06
 BYTE   N03
 BYTE   W12
 BYTE   Dn2
 BYTE   W06
 BYTE   Cn2
 BYTE   W06
 BYTE   Dn2
 BYTE   W06
 BYTE   N03
 BYTE   W06
 BYTE   PATT
  POIN2 Label_6_012FDDB1
 BYTE   PATT
  POIN2 Label_6_012FDDC0
 BYTE   PATT
  POIN2 Label_6_012FDDCF
// 009   ----------------------------------------
 BYTE   N03  Cn2  v088
 BYTE   W12
 BYTE   N03
 BYTE   W12
 BYTE   Dn2
 BYTE   W06
 BYTE   Cn2
 BYTE   W12
 BYTE   Dn2
 BYTE   W12
 BYTE   Cn2
 BYTE   W06
 BYTE   N03
 BYTE   W12
 BYTE   Dn2
 BYTE   W06
 BYTE   Cn2
 BYTE   W06
 BYTE   GoTo
  POIN2 Label_6_012FDD32
// 010   ----------------------------------------
 BYTE   N03  Dn2  v088
 BYTE   W06
 BYTE   N03
 BYTE   W06
 BYTE   FINE

//******************************************************//
	ALIGN 4

Castlevania4SimonsThemeAReliableChair:
	BYTE	7	// NumTrks
	BYTE	0	// NumBlks
	BYTE	Castlevania4SimonsThemeAReliableChair_pri	// Priority
	BYTE	Castlevania4SimonsThemeAReliableChair_rev	// Reverb.
    
	POIN2	Castlevania4SimonsThemeAReliableChair_grp
    
	POIN2	Castlevania4SimonsThemeAReliableChair_001
	POIN2	Castlevania4SimonsThemeAReliableChair_002
	POIN2	Castlevania4SimonsThemeAReliableChair_003
	POIN2	Castlevania4SimonsThemeAReliableChair_004
	POIN2	Castlevania4SimonsThemeAReliableChair_005
	POIN2	Castlevania4SimonsThemeAReliableChair_006
	POIN2	Castlevania4SimonsThemeAReliableChair_007

	
