//Event file generated from Sappy .s format.
	#include "MPlayDef.event"

	#define	CastlevaniaPoRBloodlinesBequeathedRSflame_grp  voicegroup000
	#define	CastlevaniaPoRBloodlinesBequeathedRSflame_pri  10
	#define	CastlevaniaPoRBloodlinesBequeathedRSflame_rev  0
	#define	CastlevaniaPoRBloodlinesBequeathedRSflame_mvl  127
	#define	CastlevaniaPoRBloodlinesBequeathedRSflame_key  0
	#define	CastlevaniaPoRBloodlinesBequeathedRSflame_tbs  1
	#define	CastlevaniaPoRBloodlinesBequeathedRSflame_exg  0
	#define	CastlevaniaPoRBloodlinesBequeathedRSflame_cmp  1

	// .rodata
	//	CastlevaniaPoRBloodlinesBequeathedRSflame
	ALIGN 4


//**************** Track 1 (Midi-Chn.0) ****************//

CastlevaniaPoRBloodlinesBequeathedRSflame_001:
// 000   ----------------------------------------
Label_0_01EA32CC:
 BYTE   KEYSH   CastlevaniaPoRBloodlinesBequeathedRSflame_key+0
 BYTE   VOICE   33
 BYTE   VOL   45*CastlevaniaPoRBloodlinesBequeathedRSflame_mvl/mxv
 BYTE   PAN   c_v+0
 BYTE   TEMPO   140*CastlevaniaPoRBloodlinesBequeathedRSflame_tbs/2
 BYTE   W96
// 001   ----------------------------------------
 BYTE   W96
// 002   ----------------------------------------
 BYTE   W96
// 003   ----------------------------------------
 BYTE   W48
 BYTE   N05  Fn0  v127
 BYTE   W06
 BYTE   Fn1
 BYTE   W06
 BYTE   Gn0
 BYTE   W06
 BYTE   Gn1
 BYTE   W06
 BYTE   As0
 BYTE   W06
 BYTE   As1
 BYTE   W06
 BYTE   Gn1
 BYTE   W06
 BYTE   Dn1
 BYTE   W06
// 004   ----------------------------------------
 BYTE   N11  Cn1
 BYTE   W12
 BYTE   Gn0
 BYTE   W12
 BYTE   As0
 BYTE   W12
 BYTE   N05  Fn0
 BYTE   W06
 BYTE   Cn1
 BYTE   W12
 BYTE   Cn1
 BYTE   W06
 BYTE   N11  Gn0
 BYTE   W12
 BYTE   As0
 BYTE   W12
 BYTE   Fn0
 BYTE   W12
// 005   ----------------------------------------
 BYTE   Cn1
 BYTE   W12
 BYTE   Gn0
 BYTE   W12
 BYTE   As0
 BYTE   W12
 BYTE   N05  Fn0
 BYTE   W06
 BYTE   Cn1
 BYTE   W12
 BYTE   Cn1
 BYTE   W06
 BYTE   N11  Gn0
 BYTE   W12
 BYTE   As0
 BYTE   W12
 BYTE   Fn0
 BYTE   W12
// 006   ----------------------------------------
 BYTE   N09  Cn1
 BYTE   W12
 BYTE   Cn1
 BYTE   W12
 BYTE   Cn1
 BYTE   W12
 BYTE   N05
 BYTE   W06
 BYTE   N09
 BYTE   W12
Label_0_01EA3320:
 BYTE   N05  Cn1  v127
 BYTE   W06
 BYTE   N09
 BYTE   W12
 BYTE   Cn1
 BYTE   W12
 BYTE   Cn1
 BYTE   W12
// 007   ----------------------------------------
 BYTE   As0
 BYTE   W12
 BYTE   As0
 BYTE   W12
 BYTE   As0
 BYTE   W12
 BYTE   N05
 BYTE   W06
 BYTE   N09
 BYTE   W12
 BYTE   PEND 
Label_0_01EA3335:
 BYTE   N05  As0  v127
 BYTE   W06
 BYTE   N09
 BYTE   W12
 BYTE   As0
 BYTE   W12
 BYTE   As0
 BYTE   W12
// 008   ----------------------------------------
 BYTE   Gs0
 BYTE   W12
 BYTE   Gs0
 BYTE   W12
 BYTE   Gs0
 BYTE   W12
 BYTE   N05
 BYTE   W06
 BYTE   N09
 BYTE   W12
 BYTE   PEND 
 BYTE   N05  Gs0  v127
 BYTE   W06
 BYTE   N09
 BYTE   W12
 BYTE   Gs0
 BYTE   W12
 BYTE   Gs0
 BYTE   W12
// 009   ----------------------------------------
 BYTE   Fn0
 BYTE   W12
 BYTE   Fn0
 BYTE   W12
 BYTE   Fn0
 BYTE   W12
 BYTE   N05
 BYTE   W06
 BYTE   N09
 BYTE   W12
 BYTE   N05  Gn0
 BYTE   W06
 BYTE   N09
 BYTE   W12
 BYTE   Gn0
 BYTE   W12
 BYTE   Gn0
 BYTE   W12
// 010   ----------------------------------------
 BYTE   Cn1
 BYTE   W12
 BYTE   Cn1
 BYTE   W12
 BYTE   Cn1
 BYTE   W12
 BYTE   N05
 BYTE   W06
 BYTE   N09
 BYTE   W12
// 011   ----------------------------------------
 BYTE   PATT
  POIN2 Label_0_01EA3320
// 012   ----------------------------------------
 BYTE   PATT
  POIN2 Label_0_01EA3335
// 013   ----------------------------------------
 BYTE   N05  Gs0  v127
 BYTE   W06
 BYTE   N09
 BYTE   W12
 BYTE   Gs0
 BYTE   W12
 BYTE   Gs0
 BYTE   W12
 BYTE   Gn0
 BYTE   W12
 BYTE   Gn0
 BYTE   W12
 BYTE   Gn0
 BYTE   W12
 BYTE   N05
 BYTE   W06
 BYTE   N09
 BYTE   W12
// 014   ----------------------------------------
 BYTE   N05
 BYTE   W06
 BYTE   N09
 BYTE   W12
 BYTE   Gn0
 BYTE   W12
 BYTE   Gn0
 BYTE   W12
 BYTE   Fn0
 BYTE   W12
 BYTE   Fn0
 BYTE   W12
 BYTE   Fn0
 BYTE   W12
 BYTE   N05
 BYTE   W06
 BYTE   N09
 BYTE   W12
// 015   ----------------------------------------
 BYTE   N05
 BYTE   W06
 BYTE   N09
 BYTE   W12
 BYTE   Fn0
 BYTE   W12
 BYTE   Fn0
 BYTE   W12
 BYTE   Fn0
 BYTE   W12
 BYTE   Fn0
 BYTE   W12
 BYTE   Fn0
 BYTE   W12
 BYTE   N05
 BYTE   W06
 BYTE   N09
 BYTE   W12
// 016   ----------------------------------------
 BYTE   N05
 BYTE   W06
 BYTE   N09
 BYTE   W12
 BYTE   Fn0
 BYTE   W12
 BYTE   Fn0
 BYTE   W12
 BYTE   Ds1
 BYTE   W12
 BYTE   Ds1
 BYTE   W12
 BYTE   Ds1
 BYTE   W12
 BYTE   N05
 BYTE   W06
 BYTE   N09
 BYTE   W12
// 017   ----------------------------------------
 BYTE   N05
 BYTE   W06
 BYTE   N09
 BYTE   W12
 BYTE   Ds1
 BYTE   W12
 BYTE   Ds1
 BYTE   W12
 BYTE   Gs0
 BYTE   W12
 BYTE   Gs0
 BYTE   W12
 BYTE   Gs0
 BYTE   W12
 BYTE   N05
 BYTE   W06
 BYTE   N09
 BYTE   W12
// 018   ----------------------------------------
 BYTE   N05  Gn0
 BYTE   W06
 BYTE   N09
 BYTE   W12
 BYTE   Gn0
 BYTE   W12
 BYTE   Gn0
 BYTE   W12
 BYTE   Gs0
 BYTE   W12
 BYTE   Gs0
 BYTE   W12
 BYTE   Gs0
 BYTE   W12
 BYTE   N05
 BYTE   W06
 BYTE   N09
 BYTE   W12
// 019   ----------------------------------------
 BYTE   N05
 BYTE   W06
 BYTE   N09
 BYTE   W12
 BYTE   Gs0
 BYTE   W12
 BYTE   Gs0
 BYTE   W12
 BYTE   Ds1
 BYTE   W12
 BYTE   Ds1
 BYTE   W12
 BYTE   Ds1
 BYTE   W12
 BYTE   N05
 BYTE   W06
 BYTE   N09
 BYTE   W12
// 020   ----------------------------------------
 BYTE   N05
 BYTE   W06
 BYTE   N09
 BYTE   W12
 BYTE   Ds1
 BYTE   W12
 BYTE   Ds1
 BYTE   W12
 BYTE   Fn0
 BYTE   W12
 BYTE   Fn0
 BYTE   W12
 BYTE   Fn0
 BYTE   W12
 BYTE   N05
 BYTE   W06
 BYTE   N09
 BYTE   W12
// 021   ----------------------------------------
 BYTE   N05
 BYTE   W06
 BYTE   N09
 BYTE   W12
 BYTE   Fn0
 BYTE   W12
 BYTE   Fn0
 BYTE   W12
 BYTE   N11  Gn0
 BYTE   W12
 BYTE   Dn1
 BYTE   W12
 BYTE   Fn1
 BYTE   W12
 BYTE   N05  Cn1
 BYTE   W06
 BYTE   Gn1
 BYTE   W12
// 022   ----------------------------------------
 BYTE   Gn1
 BYTE   W06
 BYTE   N11  Dn1
 BYTE   W12
 BYTE   Fn1
 BYTE   W12
 BYTE   Cs1
 BYTE   W12
 BYTE   N09  Cn1
 BYTE   W12
 BYTE   Cn1
 BYTE   W12
 BYTE   Cn1
 BYTE   W12
 BYTE   N05
 BYTE   W06
 BYTE   N09
 BYTE   W12
// 023   ----------------------------------------
 BYTE   N05
 BYTE   W06
 BYTE   N09
 BYTE   W12
 BYTE   Cn1
 BYTE   W12
 BYTE   Cn1
 BYTE   W12
 BYTE   Cn1
 BYTE   W12
 BYTE   N05
 BYTE   W06
 BYTE   N09
 BYTE   W12
 BYTE   N05
 BYTE   W06
 BYTE   N09
 BYTE   W12
 BYTE   Cn1
 BYTE   W12
// 024   ----------------------------------------
Label_0_01EA344A:
 BYTE   N09  Cn1  v127
 BYTE   W12
 BYTE   Cn1
 BYTE   W12
 BYTE   N05
 BYTE   W06
 BYTE   N09
 BYTE   W12
 BYTE   N05
 BYTE   W06
 BYTE   N09
 BYTE   W12
 BYTE   Cn1
 BYTE   W12
 BYTE   Cn1
 BYTE   W12
 BYTE   Cn1
 BYTE   W12
 BYTE   PEND 
// 025   ----------------------------------------
Label_0_01EA345F:
 BYTE   N05  Cn1  v127
 BYTE   W06
 BYTE   N09
 BYTE   W12
 BYTE   N05
 BYTE   W06
 BYTE   N09
 BYTE   W12
 BYTE   Cn1
 BYTE   W12
 BYTE   Cn1
 BYTE   W12
 BYTE   Cn1
 BYTE   W12
 BYTE   N05
 BYTE   W06
 BYTE   N09
 BYTE   W12
 BYTE   N05
 BYTE   W06
 BYTE   PEND 
// 026   ----------------------------------------
Label_0_01EA3476:
 BYTE   N09  Cn1  v127
 BYTE   W12
 BYTE   Cn1
 BYTE   W12
 BYTE   Cn1
 BYTE   W12
 BYTE   Cn1
 BYTE   W12
 BYTE   N05
 BYTE   W06
 BYTE   N09
 BYTE   W12
 BYTE   N05
 BYTE   W06
 BYTE   N09
 BYTE   W12
 BYTE   Cn1
 BYTE   W12
 BYTE   PEND 
// 027   ----------------------------------------
 BYTE   N09  Cn1  v127
 BYTE   W12
 BYTE   Cn1
 BYTE   W12
 BYTE   N05
 BYTE   W06
 BYTE   N09
 BYTE   W12
 BYTE   N05
 BYTE   W06
 BYTE   N09
 BYTE   W12
 BYTE   Cn1
 BYTE   W12
 BYTE   Cn1
 BYTE   W12
 BYTE   Fs0
 BYTE   W12
// 028   ----------------------------------------
 BYTE   N05
 BYTE   W06
 BYTE   N09
 BYTE   W12
 BYTE   N05
 BYTE   W06
 BYTE   N09
 BYTE   W12
 BYTE   Cn1
 BYTE   W12
 BYTE   Cn1
 BYTE   W12
 BYTE   Cn1
 BYTE   W12
 BYTE   N05
 BYTE   W06
 BYTE   N09
 BYTE   W12
 BYTE   N05
 BYTE   W06
// 029   ----------------------------------------
Label_0_01EA34B3:
 BYTE   N09  Cn1  v127
 BYTE   W12
 BYTE   Cn1
 BYTE   W12
 BYTE   Cn1
 BYTE   W12
 BYTE   As0
 BYTE   W12
 BYTE   As0
 BYTE   W12
 BYTE   As0
 BYTE   W12
 BYTE   N05
 BYTE   W06
 BYTE   N09
 BYTE   W12
 BYTE   N05
 BYTE   W06
 BYTE   PEND 
// 030   ----------------------------------------
Label_0_01EA34C8:
 BYTE   N09  As0  v127
 BYTE   W12
 BYTE   As0
 BYTE   W12
 BYTE   As0
 BYTE   W12
 BYTE   Gs0
 BYTE   W12
 BYTE   Gs0
 BYTE   W12
 BYTE   Gs0
 BYTE   W12
 BYTE   N05
 BYTE   W06
 BYTE   N09
 BYTE   W12
 BYTE   N05
 BYTE   W06
 BYTE   PEND 
// 031   ----------------------------------------
 BYTE   N09  Gs0  v127
 BYTE   W12
 BYTE   Gs0
 BYTE   W12
 BYTE   Gs0
 BYTE   W12
 BYTE   Fn0
 BYTE   W12
 BYTE   Fn0
 BYTE   W12
 BYTE   Fn0
 BYTE   W12
 BYTE   N05
 BYTE   W06
 BYTE   N09
 BYTE   W12
 BYTE   N05  Gn0
 BYTE   W06
// 032   ----------------------------------------
 BYTE   N09
 BYTE   W12
 BYTE   Gn0
 BYTE   W12
 BYTE   Gn0
 BYTE   W12
 BYTE   Cn1
 BYTE   W12
 BYTE   Cn1
 BYTE   W12
 BYTE   Cn1
 BYTE   W12
 BYTE   N05
 BYTE   W06
 BYTE   N09
 BYTE   W12
 BYTE   N05
 BYTE   W06
// 033   ----------------------------------------
 BYTE   PATT
  POIN2 Label_0_01EA34B3
// 034   ----------------------------------------
 BYTE   PATT
  POIN2 Label_0_01EA34C8
// 035   ----------------------------------------
 BYTE   N09  Gs0  v127
 BYTE   W12
 BYTE   Gs0
 BYTE   W12
 BYTE   Gs0
 BYTE   W12
 BYTE   Gn0
 BYTE   W12
 BYTE   Gn0
 BYTE   W12
 BYTE   Gn0
 BYTE   W12
 BYTE   N05
 BYTE   W06
 BYTE   N09
 BYTE   W12
 BYTE   N05
 BYTE   W06
// 036   ----------------------------------------
 BYTE   N09
 BYTE   W12
 BYTE   Gn0
 BYTE   W12
 BYTE   Gn0
 BYTE   W12
 BYTE   Fn0
 BYTE   W12
 BYTE   Fn0
 BYTE   W12
 BYTE   Fn0
 BYTE   W12
 BYTE   N05
 BYTE   W06
 BYTE   N09
 BYTE   W12
 BYTE   N05
 BYTE   W06
// 037   ----------------------------------------
 BYTE   N09
 BYTE   W12
 BYTE   Fn0
 BYTE   W12
 BYTE   Fn0
 BYTE   W12
 BYTE   Fn0
 BYTE   W12
 BYTE   Fn0
 BYTE   W12
 BYTE   Fn0
 BYTE   W12
 BYTE   N05
 BYTE   W06
 BYTE   N09
 BYTE   W12
 BYTE   N05
 BYTE   W06
// 038   ----------------------------------------
 BYTE   N09
 BYTE   W12
 BYTE   Fn0
 BYTE   W12
 BYTE   Fn0
 BYTE   W12
 BYTE   Ds1
 BYTE   W12
 BYTE   Ds1
 BYTE   W12
 BYTE   Ds1
 BYTE   W12
 BYTE   N05
 BYTE   W06
 BYTE   N09
 BYTE   W12
 BYTE   N05
 BYTE   W06
// 039   ----------------------------------------
 BYTE   N09
 BYTE   W12
 BYTE   Ds1
 BYTE   W12
 BYTE   Ds1
 BYTE   W12
 BYTE   Gs0
 BYTE   W12
 BYTE   Gs0
 BYTE   W12
 BYTE   Gs0
 BYTE   W12
 BYTE   N05
 BYTE   W06
 BYTE   N09
 BYTE   W12
 BYTE   N05  Gn0
 BYTE   W06
// 040   ----------------------------------------
 BYTE   N09
 BYTE   W12
 BYTE   Gn0
 BYTE   W12
 BYTE   Gn0
 BYTE   W12
 BYTE   Gs0
 BYTE   W12
 BYTE   Gs0
 BYTE   W12
 BYTE   Gs0
 BYTE   W12
 BYTE   N05
 BYTE   W06
 BYTE   N09
 BYTE   W12
 BYTE   N05
 BYTE   W06
// 041   ----------------------------------------
 BYTE   N09
 BYTE   W12
 BYTE   Gs0
 BYTE   W12
 BYTE   Gs0
 BYTE   W12
 BYTE   Ds1
 BYTE   W12
 BYTE   Ds1
 BYTE   W12
 BYTE   Ds1
 BYTE   W12
 BYTE   N05
 BYTE   W06
 BYTE   N09
 BYTE   W12
 BYTE   N05
 BYTE   W06
// 042   ----------------------------------------
 BYTE   N09
 BYTE   W12
 BYTE   Ds1
 BYTE   W12
 BYTE   Ds1
 BYTE   W12
 BYTE   Fn0
 BYTE   W12
 BYTE   Fn0
 BYTE   W12
 BYTE   Fn0
 BYTE   W12
 BYTE   N05
 BYTE   W06
 BYTE   N09
 BYTE   W12
 BYTE   N05
 BYTE   W06
// 043   ----------------------------------------
 BYTE   N09
 BYTE   W12
 BYTE   Fn0
 BYTE   W12
 BYTE   Fn0
 BYTE   W12
 BYTE   N11  Gn0
 BYTE   W12
 BYTE   Dn1
 BYTE   W12
 BYTE   Fn1
 BYTE   W12
 BYTE   N05  Cn1
 BYTE   W06
 BYTE   Gn1
 BYTE   W12
 BYTE   Gn1
 BYTE   W06
// 044   ----------------------------------------
 BYTE   N11  Dn1
 BYTE   W12
 BYTE   Fn1
 BYTE   W12
 BYTE   Cs1
 BYTE   W11
 BYTE   N09  Cn1  v127
 BYTE   W12
 BYTE   Cn1
 BYTE   W05
 BYTE   W06
 BYTE   N09  Cn1  v127
 BYTE   W12
 BYTE   N05
 BYTE   W06
 BYTE   N09
 BYTE   W12
 BYTE   N05
 BYTE   W06
// 045   ----------------------------------------
 BYTE   PATT
  POIN2 Label_0_01EA3476
// 046   ----------------------------------------
 BYTE   PATT
  POIN2 Label_0_01EA344A
// 047   ----------------------------------------
 BYTE   PATT
  POIN2 Label_0_01EA345F
// 048   ----------------------------------------
 BYTE   PATT
  POIN2 Label_0_01EA3476
// 049   ----------------------------------------
 BYTE   N09  Cn1  v127
 BYTE   W12
 BYTE   Cn1
 BYTE   W12
 BYTE   N05  Cn1  v127
 BYTE   W06
 BYTE   N09
 BYTE   W12
 BYTE   N05
 BYTE   W06
 BYTE   N09
 BYTE   W12
 BYTE   Cn1
 BYTE   W12
 BYTE   Cn1
 BYTE   W12
 BYTE   Fs0
 BYTE   W12
// 050   ----------------------------------------
 BYTE   N05
 BYTE   W06
 BYTE   N09
 BYTE   W12
 BYTE   N05
 BYTE   W06
 BYTE   N09
 BYTE   W12
 BYTE   Fn0
 BYTE   W03
 BYTE   W08
 BYTE   N09  Fn0  v127
 BYTE   W12
 BYTE   Fn0
 BYTE   W12
 BYTE   N04
 BYTE   W06
 BYTE   N09
 BYTE   W12
 BYTE   N04
 BYTE   W06
 BYTE   N09
 BYTE   W12
// 051   ----------------------------------------
 BYTE   Fn0
 BYTE   W12
 BYTE   Fn0
 BYTE   W12
 BYTE   N04
 BYTE   W06
 BYTE   N09
 BYTE   W12
 BYTE   N04
 BYTE   W06
 BYTE   N09
 BYTE   W12
 BYTE   Fn0
 BYTE   W12
 BYTE   Fn0
 BYTE   W12
 BYTE   N04
 BYTE   W06
 BYTE   N09
 BYTE   W12
// 052   ----------------------------------------
 BYTE   N04
 BYTE   W06
 BYTE   N09
 BYTE   W12
 BYTE   Fn0
 BYTE   W12
 BYTE   Fn0
 BYTE   W12
 BYTE   N04
 BYTE   W06
 BYTE   N09
 BYTE   W12
 BYTE   N04
 BYTE   W06
 BYTE   N09  Ds1
 BYTE   W12
 BYTE   Ds1
 BYTE   W12
 BYTE   Ds1
 BYTE   W12
// 053   ----------------------------------------
 BYTE   N04
 BYTE   W06
 BYTE   N09
 BYTE   W12
 BYTE   N04
 BYTE   W06
 BYTE   N09
 BYTE   W12
 BYTE   Ds1
 BYTE   W12
 BYTE   Ds1
 BYTE   W12
 BYTE   N04
 BYTE   W06
 BYTE   N09
 BYTE   W12
 BYTE   N04
 BYTE   W06
 BYTE   N09
 BYTE   W12
// 054   ----------------------------------------
 BYTE   Ds1
 BYTE   W12
 BYTE   Ds1
 BYTE   W12
 BYTE   N04
 BYTE   W06
 BYTE   N09
 BYTE   W12
 BYTE   N04
 BYTE   W06
 BYTE   N09
 BYTE   W12
 BYTE   Ds1
 BYTE   W12
 BYTE   Ds1
 BYTE   W12
 BYTE   N04
 BYTE   W06
 BYTE   N09
 BYTE   W12
// 055   ----------------------------------------
 BYTE   N04
 BYTE   W06
 BYTE   N09  Cs1
 BYTE   W12
 BYTE   Cs1
 BYTE   W12
 BYTE   Cs1
 BYTE   W12
 BYTE   N04
 BYTE   W06
 BYTE   N09
 BYTE   W12
 BYTE   N04
 BYTE   W06
 BYTE   N09
 BYTE   W12
 BYTE   Cs1
 BYTE   W12
 BYTE   Cs1
 BYTE   W12
// 056   ----------------------------------------
 BYTE   N04
 BYTE   W06
 BYTE   N09
 BYTE   W12
 BYTE   N04
 BYTE   W06
 BYTE   N09
 BYTE   W12
 BYTE   Cs1
 BYTE   W12
 BYTE   Cs1
 BYTE   W12
 BYTE   N04
 BYTE   W06
 BYTE   N09
 BYTE   W12
 BYTE   N04
 BYTE   W06
 BYTE   N09
 BYTE   W12
// 057   ----------------------------------------
 BYTE   Cs1
 BYTE   W12
 BYTE   Cs1
 BYTE   W12
 BYTE   N04
 BYTE   W06
 BYTE   N09
 BYTE   W12
 BYTE   N04
 BYTE   W06
 BYTE   N09  Cn1
 BYTE   W12
 BYTE   Cn1
 BYTE   W12
 BYTE   Cn1
 BYTE   W12
Label_0_01EA369B:
 BYTE   N04  Cn1  v127
 BYTE   W06
 BYTE   N09
 BYTE   W12
// 058   ----------------------------------------
 BYTE   N04
 BYTE   W06
 BYTE   N09
 BYTE   W12
 BYTE   Cn1
 BYTE   W12
 BYTE   Cn1
 BYTE   W12
 BYTE   N04
 BYTE   W06
 BYTE   N09
 BYTE   W12
 BYTE   N04
 BYTE   W06
 BYTE   N09
 BYTE   W12
 BYTE   PEND 
Label_0_01EA36B2:
 BYTE   N09  Cn1  v127
 BYTE   W12
 BYTE   Cn1
 BYTE   W12
// 059   ----------------------------------------
 BYTE   N04
 BYTE   W06
 BYTE   N09
 BYTE   W12
 BYTE   N04
 BYTE   W06
 BYTE   N09
 BYTE   W12
 BYTE   Cn1
 BYTE   W12
 BYTE   Cn1
 BYTE   W12
 BYTE   N04
 BYTE   W06
 BYTE   N09
 BYTE   W12
 BYTE   PEND 
 BYTE   N04  Cn1  v127
 BYTE   W06
 BYTE   N09  Fn0
 BYTE   W12
// 060   ----------------------------------------
 BYTE   Fn0
 BYTE   W12
 BYTE   Fn0
 BYTE   W12
 BYTE   N04
 BYTE   W06
 BYTE   N09
 BYTE   W12
 BYTE   N04
 BYTE   W06
 BYTE   N09
 BYTE   W12
 BYTE   Fn0
 BYTE   W12
 BYTE   Fn0
 BYTE   W12
 BYTE   N04
 BYTE   W06
 BYTE   N09
 BYTE   W12
// 061   ----------------------------------------
 BYTE   N04
 BYTE   W06
 BYTE   N09
 BYTE   W12
 BYTE   Fn0
 BYTE   W12
 BYTE   Fn0
 BYTE   W12
 BYTE   N04
 BYTE   W06
 BYTE   N09
 BYTE   W12
 BYTE   N04
 BYTE   W06
 BYTE   N09
 BYTE   W12
 BYTE   Fn0
 BYTE   W12
 BYTE   Fn0
 BYTE   W12
// 062   ----------------------------------------
 BYTE   N04
 BYTE   W06
 BYTE   N09
 BYTE   W12
 BYTE   N04
 BYTE   W06
 BYTE   N09  As0
 BYTE   W12
 BYTE   As0
 BYTE   W12
 BYTE   As0
 BYTE   W12
 BYTE   N04
 BYTE   W06
 BYTE   N09
 BYTE   W12
 BYTE   N04
 BYTE   W06
 BYTE   N09  Gn0
 BYTE   W12
// 063   ----------------------------------------
 BYTE   Gn0
 BYTE   W12
 BYTE   Gn0
 BYTE   W12
 BYTE   N04
 BYTE   W06
 BYTE   N09
 BYTE   W12
 BYTE   N04
 BYTE   W06
 BYTE   N09  Cn1
 BYTE   W12
 BYTE   Cn1
 BYTE   W12
 BYTE   Cn1
 BYTE   W12
// 064   ----------------------------------------
 BYTE   PATT
  POIN2 Label_0_01EA369B
// 065   ----------------------------------------
 BYTE   PATT
  POIN2 Label_0_01EA36B2
// 066   ----------------------------------------
 BYTE   N04  Cn1  v127
 BYTE   W18
 BYTE   N11  Gn1
 BYTE   W12
 BYTE   Dn1
 BYTE   W24
 BYTE   Fn1
 BYTE   W12
 BYTE   Cn1
 BYTE   W12
 BYTE   Gn1
 BYTE   W12
 BYTE   Dn1
 BYTE   W12
// 067   ----------------------------------------
 BYTE   Fn1
 BYTE   W12
 BYTE   Cn1
 BYTE   W48
 BYTE   Gn1
 BYTE   W12
 BYTE   Dn1
 BYTE   W24
// 068   ----------------------------------------
 BYTE   Fn1
 BYTE   W12
 BYTE   Cn1
 BYTE   W12
 BYTE   Gn1
 BYTE   W12
 BYTE   Dn1
 BYTE   W12
 BYTE   Fn1
 BYTE   W12
 BYTE   Cn1
 BYTE   W11
 BYTE   W01
 BYTE   N11  Ds1  v127
 BYTE   W12
 BYTE   As0
 BYTE   W36
// 069   ----------------------------------------
 BYTE   Cs1
 BYTE   W12
 BYTE   Gs0
 BYTE   W09
 BYTE   W02
 BYTE   W06
 BYTE   W03
 BYTE   W02
 BYTE   W03
 BYTE   W48
 BYTE   W02
 BYTE   GoTo
  POIN2 Label_0_01EA32CC
 BYTE   FINE

//**************** Track 2 (Midi-Chn.1) ****************//

CastlevaniaPoRBloodlinesBequeathedRSflame_002:
// 000   ----------------------------------------
Label_1_01EA376C:
 BYTE   KEYSH   CastlevaniaPoRBloodlinesBequeathedRSflame_key+0
 BYTE   VOICE   38
 BYTE   VOL   45*CastlevaniaPoRBloodlinesBequeathedRSflame_mvl/mxv
 BYTE   PAN   c_v-44
 BYTE   TEMPO   140*CastlevaniaPoRBloodlinesBequeathedRSflame_tbs/2
 BYTE   W96
// 001   ----------------------------------------
 BYTE   W96
// 002   ----------------------------------------
 BYTE   W96
// 003   ----------------------------------------
 BYTE   W96
// 004   ----------------------------------------
 BYTE   W96
// 005   ----------------------------------------
 BYTE   W96
// 006   ----------------------------------------
 BYTE   W24
Label_1_01EA377D:
 BYTE   N20  Ds3  v078
 BYTE   N20  Cn3
 BYTE   W24
 BYTE   N14  Ds3  v060
 BYTE   N14  Cn3
 BYTE   W18
 BYTE   Ds3
 BYTE   N14  Cn3
 BYTE   W18
 BYTE   Ds3
 BYTE   N14  Cn3
 BYTE   W36
 BYTE   PEND 
// 007   ----------------------------------------
Label_1_01EA3792:
 BYTE   N20  Dn3  v078
 BYTE   N20  As2
 BYTE   W24
 BYTE   N14  Dn3  v060
 BYTE   N14  As2
 BYTE   W18
 BYTE   Dn3
 BYTE   N14  As2
 BYTE   W18
 BYTE   Dn3
 BYTE   N14  As2
 BYTE   W36
 BYTE   PEND 
// 008   ----------------------------------------
Label_1_01EA37A7:
 BYTE   N20  Cn3  v078
 BYTE   N20  Gs2
 BYTE   W24
 BYTE   N14  Cn3  v060
 BYTE   N14  Gs2
 BYTE   W18
 BYTE   Cn3
 BYTE   N14  Gs2
 BYTE   W18
 BYTE   Cn3
 BYTE   N14  Gs2
 BYTE   W36
 BYTE   PEND 
// 009   ----------------------------------------
 BYTE   N20  Cn3  v078
 BYTE   N20  Gs2
 BYTE   W24
 BYTE   N14  Dn3  v060
 BYTE   N14  As2
 BYTE   W18
 BYTE   Dn3
 BYTE   N14  As2
 BYTE   W18
 BYTE   Dn3
 BYTE   N14  As2
 BYTE   W36
// 010   ----------------------------------------
 BYTE   PATT
  POIN2 Label_1_01EA377D
// 011   ----------------------------------------
 BYTE   PATT
  POIN2 Label_1_01EA3792
// 012   ----------------------------------------
 BYTE   PATT
  POIN2 Label_1_01EA37A7
// 013   ----------------------------------------
 BYTE   N20  Dn3  v078
 BYTE   N20  As2
 BYTE   W24
 BYTE   N14  Dn3  v060
 BYTE   N14  As2
 BYTE   W18
 BYTE   Dn3
 BYTE   N14  As2
 BYTE   W18
 BYTE   Dn3
 BYTE   N14  As2
 BYTE   W96
// 014   ----------------------------------------
 BYTE   W96
// 015   ----------------------------------------
 BYTE   W96
// 016   ----------------------------------------
 BYTE   W96
// 017   ----------------------------------------
 BYTE   W96
// 018   ----------------------------------------
 BYTE   W96
// 019   ----------------------------------------
 BYTE   W96
// 020   ----------------------------------------
 BYTE   W96
// 021   ----------------------------------------
 BYTE   W11
 BYTE   PAN   c_v+0
 BYTE   N11  Gn3  v110
 BYTE   N11  Ds3
 BYTE   W18
 BYTE   N05  Gn3  v070
 BYTE   N05  Ds3
 BYTE   W54
 BYTE   N11  Gn3  v110
 BYTE   N11  Ds3
 BYTE   W18
// 022   ----------------------------------------
 BYTE   N05  Gn3  v070
 BYTE   N05  Ds3
 BYTE   W54
 BYTE   N11  Gn3  v110
 BYTE   N11  Ds3
 BYTE   W18
 BYTE   N05  Gn3  v070
 BYTE   N05  Ds3
 BYTE   W96
// 023   ----------------------------------------
 BYTE   W30
 BYTE   N11  Gn3  v110
 BYTE   N11  Ds3
 BYTE   W18
 BYTE   N05  Gn3  v070
 BYTE   N05  Ds3
 BYTE   W54
// 024   ----------------------------------------
 BYTE   N11  Gn3  v110
 BYTE   N11  Ds3
 BYTE   W18
 BYTE   N05  Gn3  v070
 BYTE   N05  Ds3
 BYTE   W54
 BYTE   N11  Gn3  v110
 BYTE   N11  Ds3
 BYTE   W18
 BYTE   N05  Gn3  v070
 BYTE   N05  Ds3
 BYTE   W96
// 025   ----------------------------------------
 BYTE   W30
 BYTE   PAN   c_v-44
 BYTE   W24
 BYTE   N16  Ds3  v078
 BYTE   N16  Cn3
 BYTE   W24
 BYTE   N10  Ds3  v060
 BYTE   N10  Cn3
 BYTE   W18
// 026   ----------------------------------------
 BYTE   Ds3
 BYTE   N10  Cn3
 BYTE   W18
 BYTE   Ds3
 BYTE   N10  Cn3
 BYTE   W36
 BYTE   N16  Dn3  v078
 BYTE   N16  As2
 BYTE   W24
 BYTE   N10  Dn3  v060
 BYTE   N10  As2
 BYTE   W18
// 027   ----------------------------------------
 BYTE   Dn3
 BYTE   N10  As2
 BYTE   W18
 BYTE   Dn3
 BYTE   N10  As2
 BYTE   W36
 BYTE   N16  Cn3  v078
 BYTE   N16  Gs2
 BYTE   W24
 BYTE   N10  Cn3  v060
 BYTE   N10  Gs2
 BYTE   W18
// 028   ----------------------------------------
 BYTE   Cn3
 BYTE   N10  Gs2
 BYTE   W18
 BYTE   Cn3
 BYTE   N10  Gs2
 BYTE   W36
 BYTE   N16  Cn3  v078
 BYTE   N16  Gs2
 BYTE   W24
 BYTE   N10  Dn3  v060
 BYTE   N10  As2
 BYTE   W18
// 029   ----------------------------------------
 BYTE   Dn3
 BYTE   N10  As2
 BYTE   W18
 BYTE   Dn3
 BYTE   N10  As2
 BYTE   W36
 BYTE   N16  Ds3  v078
 BYTE   N16  Cn3
 BYTE   W24
 BYTE   N10  Ds3  v060
 BYTE   N10  Cn3
 BYTE   W18
// 030   ----------------------------------------
 BYTE   Ds3
 BYTE   N10  Cn3
 BYTE   W18
 BYTE   Ds3
 BYTE   N10  Cn3
 BYTE   W36
 BYTE   N16  Dn3  v078
 BYTE   N16  As2
 BYTE   W24
 BYTE   N10  Dn3  v060
 BYTE   N10  As2
 BYTE   W18
// 031   ----------------------------------------
 BYTE   Dn3
 BYTE   N10  As2
 BYTE   W18
 BYTE   Dn3
 BYTE   N10  As2
 BYTE   W36
 BYTE   N16  Cn3  v078
 BYTE   N16  Gs2
 BYTE   W24
 BYTE   N10  Cn3  v060
 BYTE   N10  Gs2
 BYTE   W18
// 032   ----------------------------------------
 BYTE   Cn3
 BYTE   N10  Gs2
 BYTE   W18
 BYTE   Cn3
 BYTE   N10  Gs2
 BYTE   W36
 BYTE   N16  Dn3  v078
 BYTE   N16  As2
 BYTE   W24
 BYTE   N10  Dn3  v060
 BYTE   N10  As2
 BYTE   W18
// 033   ----------------------------------------
 BYTE   Dn3
 BYTE   N10  As2
 BYTE   W18
 BYTE   Dn3
 BYTE   N10  As2
 BYTE   W96
// 034   ----------------------------------------
 BYTE   W96
// 035   ----------------------------------------
 BYTE   W96
// 036   ----------------------------------------
 BYTE   W96
// 037   ----------------------------------------
 BYTE   W96
// 038   ----------------------------------------
 BYTE   W96
// 039   ----------------------------------------
 BYTE   W96
// 040   ----------------------------------------
 BYTE   W96
// 041   ----------------------------------------
 BYTE   W11
 BYTE   PAN   c_v+0
 BYTE   N11  Gn3  v110
 BYTE   N11  Ds3
 BYTE   W17
 BYTE   N05  Gn3  v070
 BYTE   N05  Ds3
 BYTE   W54
 BYTE   N11  Gn3  v110
 BYTE   N11  Ds3
 BYTE   W18
// 042   ----------------------------------------
 BYTE   N05  Gn3  v070
 BYTE   N05  Ds3
 BYTE   W54
 BYTE   N11  Gn3  v110
 BYTE   N11  Ds3
 BYTE   W18
 BYTE   N05  Gn3  v070
 BYTE   N05  Ds3
 BYTE   W96
// 043   ----------------------------------------
 BYTE   W30
 BYTE   N11  Gn3  v110
 BYTE   N11  Ds3
 BYTE   W18
 BYTE   N05  Gn3  v070
 BYTE   N05  Ds3
 BYTE   W54
// 044   ----------------------------------------
 BYTE   N11  Gn3  v110
 BYTE   N11  Ds3
 BYTE   W18
 BYTE   N05  Gn3  v070
 BYTE   N05  Ds3
 BYTE   W54
 BYTE   N11  Gn3  v110
 BYTE   N11  Ds3
 BYTE   W18
 BYTE   N05  Gn3  v070
 BYTE   N05  Ds3
 BYTE   W06
// 045   ----------------------------------------
 BYTE   PAN   c_v-44
 BYTE   W96
// 046   ----------------------------------------
 BYTE   W24
 BYTE   W03
 BYTE   W96
// 047   ----------------------------------------
 BYTE   W96
// 048   ----------------------------------------
 BYTE   W96
// 049   ----------------------------------------
 BYTE   W96
// 050   ----------------------------------------
 BYTE   W96
// 051   ----------------------------------------
 BYTE   W96
// 052   ----------------------------------------
 BYTE   W96
// 053   ----------------------------------------
 BYTE   W96
// 054   ----------------------------------------
 BYTE   W96
// 055   ----------------------------------------
 BYTE   W96
// 056   ----------------------------------------
 BYTE   W96
// 057   ----------------------------------------
 BYTE   W96
// 058   ----------------------------------------
 BYTE   W96
// 059   ----------------------------------------
 BYTE   W96
// 060   ----------------------------------------
 BYTE   W96
// 061   ----------------------------------------
 BYTE   W96
// 062   ----------------------------------------
 BYTE   W96
// 063   ----------------------------------------
 BYTE   W96
// 064   ----------------------------------------
 BYTE   W90
 BYTE   W01
 BYTE   W68
// 065   ----------------------------------------
 BYTE   W02
 BYTE   W02
 BYTE   W06
 BYTE   W03
 BYTE   W02
 BYTE   W03
 BYTE   W48
 BYTE   W02
 BYTE   GoTo
  POIN2 Label_1_01EA376C
 BYTE   FINE

//**************** Track 3 (Midi-Chn.2) ****************//

CastlevaniaPoRBloodlinesBequeathedRSflame_003:
// 000   ----------------------------------------
Label_2_01EA3968:
 BYTE   KEYSH   CastlevaniaPoRBloodlinesBequeathedRSflame_key+0
 BYTE   VOICE   30
 BYTE   VOL   60*CastlevaniaPoRBloodlinesBequeathedRSflame_mvl/mxv
 BYTE   PAN   c_v+0
 BYTE   TEMPO   140*CastlevaniaPoRBloodlinesBequeathedRSflame_tbs/2
 BYTE   W96
// 001   ----------------------------------------
 BYTE   W96
// 002   ----------------------------------------
 BYTE   W96
// 003   ----------------------------------------
 BYTE   W96
// 004   ----------------------------------------
 BYTE   W96
// 005   ----------------------------------------
 BYTE   W96
// 006   ----------------------------------------
Label_2_01EA3978:
 BYTE   N44  Gn3  v100
 BYTE   W48
 BYTE   N17
 BYTE   W18
 BYTE   Fn3
 BYTE   W18
 BYTE   N11  As3
 BYTE   W12
 BYTE   PEND 
// 007   ----------------------------------------
Label_2_01EA3984:
 BYTE   N44  Gn3  v100
 BYTE   W48
 BYTE   N17
 BYTE   W18
 BYTE   Fn3
 BYTE   W18
 BYTE   N11  Cn4
 BYTE   W12
 BYTE   PEND 
// 008   ----------------------------------------
Label_2_01EA3990:
 BYTE   N44  Gn3  v100
 BYTE   W48
 BYTE   N17
 BYTE   W18
 BYTE   Fn3
 BYTE   W18
 BYTE   N11  Dn4
 BYTE   W12
 BYTE   PEND 
// 009   ----------------------------------------
Label_2_01EA399C:
 BYTE   N44  Gn3  v100
 BYTE   W48
 BYTE   N40
 BYTE   W20
 BYTE   N01
 BYTE   W28
 BYTE   PEND 
// 010   ----------------------------------------
 BYTE   PATT
  POIN2 Label_2_01EA3978
// 011   ----------------------------------------
 BYTE   PATT
  POIN2 Label_2_01EA3984
// 012   ----------------------------------------
 BYTE   PATT
  POIN2 Label_2_01EA3990
// 013   ----------------------------------------
Label_2_01EA39B4:
 BYTE   N40  Gn3  v100
 BYTE   W20
 BYTE   N01
 BYTE   W28
 BYTE   N17
 BYTE   W18
 BYTE   Gs3
 BYTE   W18
 BYTE   N11  As3
 BYTE   W12
 BYTE   PEND 
// 014   ----------------------------------------
Label_2_01EA39C2:
 BYTE   N64  Gn3  v100
 BYTE   W32
 BYTE   N01
 BYTE   W32
 BYTE   W02
 BYTE   N17  Fn3
 BYTE   W18
 BYTE   N11  Cn3
 BYTE   W12
 BYTE   PEND 
// 015   ----------------------------------------
Label_2_01EA39D0:
 BYTE   N64  Gn3  v100
 BYTE   W32
 BYTE   N01
 BYTE   W32
 BYTE   W02
 BYTE   N17  Fn3
 BYTE   W18
 BYTE   N11  Ds3
 BYTE   W12
 BYTE   PEND 
// 016   ----------------------------------------
Label_2_01EA39DE:
 BYTE   N64  Dn3  v100
 BYTE   W32
 BYTE   N01
 BYTE   W32
 BYTE   W02
 BYTE   N17  As2
 BYTE   W18
 BYTE   N11  Gn2
 BYTE   W12
 BYTE   PEND 
// 017   ----------------------------------------
Label_2_01EA39EC:
 BYTE   N44  Cn3  v100
 BYTE   W22
 BYTE   N03
 BYTE   W24
 BYTE   W02
 BYTE   N17  Gn3
 BYTE   W18
 BYTE   Gs3
 BYTE   W18
 BYTE   N11  As3
 BYTE   W12
 BYTE   PEND 
// 018   ----------------------------------------
Label_2_01EA39FC:
 BYTE   N44  Gn3  v100
 BYTE   W48
 BYTE   N17
 BYTE   W18
 BYTE   Gs3
 BYTE   W18
 BYTE   N11  As3
 BYTE   W12
 BYTE   PEND 
// 019   ----------------------------------------
Label_2_01EA3A08:
 BYTE   N44  Gn3  v100
 BYTE   W22
 BYTE   N03
 BYTE   W24
 BYTE   W02
 BYTE   N17  Fn3
 BYTE   W18
 BYTE   Cn3
 BYTE   W18
 BYTE   N11  Fn3
 BYTE   W12
 BYTE   PEND 
// 020   ----------------------------------------
 BYTE   N96  Gn3  v100
 BYTE   W48
 BYTE   N84
 BYTE   W42
 BYTE   N02
 BYTE   W96
// 021   ----------------------------------------
 BYTE   W96
// 022   ----------------------------------------
 BYTE   W96
// 023   ----------------------------------------
 BYTE   W96
// 024   ----------------------------------------
 BYTE   W96
// 025   ----------------------------------------
 BYTE   W96
// 026   ----------------------------------------
 BYTE   W96
// 027   ----------------------------------------
 BYTE   W06
// 028   ----------------------------------------
 BYTE   PATT
  POIN2 Label_2_01EA3978
// 029   ----------------------------------------
 BYTE   PATT
  POIN2 Label_2_01EA3984
// 030   ----------------------------------------
 BYTE   PATT
  POIN2 Label_2_01EA3990
// 031   ----------------------------------------
 BYTE   PATT
  POIN2 Label_2_01EA399C
// 032   ----------------------------------------
 BYTE   PATT
  POIN2 Label_2_01EA3978
// 033   ----------------------------------------
 BYTE   PATT
  POIN2 Label_2_01EA3984
// 034   ----------------------------------------
 BYTE   PATT
  POIN2 Label_2_01EA3990
// 035   ----------------------------------------
 BYTE   PATT
  POIN2 Label_2_01EA39B4
// 036   ----------------------------------------
 BYTE   PATT
  POIN2 Label_2_01EA39C2
// 037   ----------------------------------------
 BYTE   PATT
  POIN2 Label_2_01EA39D0
// 038   ----------------------------------------
 BYTE   PATT
  POIN2 Label_2_01EA39DE
// 039   ----------------------------------------
 BYTE   PATT
  POIN2 Label_2_01EA39EC
// 040   ----------------------------------------
 BYTE   PATT
  POIN2 Label_2_01EA39FC
// 041   ----------------------------------------
 BYTE   PATT
  POIN2 Label_2_01EA3A08
// 042   ----------------------------------------
 BYTE   N96  Gn3  v100
 BYTE   W48
 BYTE   N84
 BYTE   W42
 BYTE   N02
 BYTE   W96
// 043   ----------------------------------------
 BYTE   W05
 BYTE   W18
 BYTE   W96
// 044   ----------------------------------------
 BYTE   W96
// 045   ----------------------------------------
 BYTE   W96
// 046   ----------------------------------------
 BYTE   W96
// 047   ----------------------------------------
 BYTE   W54
 BYTE   W96
// 048   ----------------------------------------
 BYTE   W24
 BYTE   W03
 BYTE   W96
// 049   ----------------------------------------
 BYTE   W96
// 050   ----------------------------------------
 BYTE   W96
// 051   ----------------------------------------
 BYTE   W96
// 052   ----------------------------------------
 BYTE   W96
// 053   ----------------------------------------
 BYTE   W96
// 054   ----------------------------------------
 BYTE   W96
// 055   ----------------------------------------
 BYTE   W96
// 056   ----------------------------------------
 BYTE   W96
// 057   ----------------------------------------
 BYTE   W92
 BYTE   N56  Fn1  v103
 BYTE   W28
// 058   ----------------------------------------
 BYTE   N03
 BYTE   W32
 BYTE   N56  Fs1
 BYTE   W28
 BYTE   N03
 BYTE   W32
 BYTE   N56  Gn1
 BYTE   W28
// 059   ----------------------------------------
 BYTE   N03
 BYTE   W32
 BYTE   N56  Gs1
 BYTE   W28
 BYTE   N03
 BYTE   W32
 BYTE   N56  As1
 BYTE   W28
// 060   ----------------------------------------
 BYTE   N03
 BYTE   W32
 BYTE   N56  Gn1
 BYTE   W28
 BYTE   N03
 BYTE   W32
 BYTE   N96  Cn2
 BYTE   W48
// 061   ----------------------------------------
 BYTE   N23
 BYTE   W72
 BYTE   N96
 BYTE   W48
// 062   ----------------------------------------
 BYTE   N23
 BYTE   W84
 BYTE   N09  Gn2
 BYTE   W12
// 063   ----------------------------------------
 BYTE   Dn2
 BYTE   W24
 BYTE   Fn2
 BYTE   W12
 BYTE   Cn2
 BYTE   W12
 BYTE   Gn2
 BYTE   W12
 BYTE   Dn2
 BYTE   W12
 BYTE   Fn2
 BYTE   W12
 BYTE   Cn2
 BYTE   W48
// 064   ----------------------------------------
 BYTE   Gn2
 BYTE   W12
 BYTE   Dn2
 BYTE   W24
 BYTE   Fn2
 BYTE   W12
 BYTE   Cn2
 BYTE   W12
 BYTE   Gn2
 BYTE   W12
 BYTE   Dn2
 BYTE   W12
 BYTE   Fn2
 BYTE   W12
// 065   ----------------------------------------
 BYTE   Cn2
 BYTE   W11
 BYTE   W01
 BYTE   N09  Ds2  v103
 BYTE   W12
 BYTE   As1
 BYTE   W36
 BYTE   Cs2
 BYTE   W12
 BYTE   Gs1
 BYTE   W09
 BYTE   W02
 BYTE   W06
 BYTE   W03
 BYTE   W02
 BYTE   W03
// 066   ----------------------------------------
 BYTE   W48
 BYTE   W02
 BYTE   GoTo
  POIN2 Label_2_01EA3968
 BYTE   FINE

//**************** Track 4 (Midi-Chn.3) ****************//

CastlevaniaPoRBloodlinesBequeathedRSflame_004:
// 000   ----------------------------------------
Label_3_01EA5818:
 BYTE   KEYSH   CastlevaniaPoRBloodlinesBequeathedRSflame_key+0
 BYTE   VOICE   30
 BYTE   VOL   45*CastlevaniaPoRBloodlinesBequeathedRSflame_mvl/mxv
 BYTE   PAN   c_v+56
 BYTE   TEMPO   140*CastlevaniaPoRBloodlinesBequeathedRSflame_tbs/2
 BYTE   W96
// 001   ----------------------------------------
 BYTE   W96
// 002   ----------------------------------------
 BYTE   W96
// 003   ----------------------------------------
 BYTE   W96
// 004   ----------------------------------------
 BYTE   W96
// 005   ----------------------------------------
 BYTE   W96
// 006   ----------------------------------------
 BYTE   W12
Label_3_01EA5829:
 BYTE   N44  Gn3  v060
 BYTE   W48
 BYTE   N17
 BYTE   W18
 BYTE   Fn3
 BYTE   W18
// 007   ----------------------------------------
 BYTE   N11  As3
 BYTE   W12
 BYTE   PEND 
Label_3_01EA5835:
 BYTE   N44  Gn3  v060
 BYTE   W48
 BYTE   N17
 BYTE   W18
 BYTE   Fn3
 BYTE   W18
// 008   ----------------------------------------
 BYTE   N11  Cn4
 BYTE   W12
 BYTE   PEND 
Label_3_01EA5841:
 BYTE   N44  Gn3  v060
 BYTE   W48
 BYTE   N17
 BYTE   W18
 BYTE   Fn3
 BYTE   W18
// 009   ----------------------------------------
 BYTE   N11  Dn4
 BYTE   W12
 BYTE   PEND 
Label_3_01EA584D:
 BYTE   N44  Gn3  v060
 BYTE   W48
 BYTE   N40
 BYTE   W20
 BYTE   N01
 BYTE   W28
 BYTE   PEND 
// 010   ----------------------------------------
 BYTE   PATT
  POIN2 Label_3_01EA5829
// 011   ----------------------------------------
 BYTE   PATT
  POIN2 Label_3_01EA5835
// 012   ----------------------------------------
 BYTE   PATT
  POIN2 Label_3_01EA5841
// 013   ----------------------------------------
Label_3_01EA5865:
 BYTE   N40  Gn3  v060
 BYTE   W20
 BYTE   N01
 BYTE   W28
 BYTE   N17
 BYTE   W18
 BYTE   Gs3
 BYTE   W18
 BYTE   N11  As3
 BYTE   W12
 BYTE   PEND 
// 014   ----------------------------------------
Label_3_01EA5873:
 BYTE   N64  Gn3  v060
 BYTE   W32
 BYTE   N01
 BYTE   W32
 BYTE   W02
 BYTE   N17  Fn3
 BYTE   W18
 BYTE   N11  Cn3
 BYTE   W12
 BYTE   PEND 
// 015   ----------------------------------------
Label_3_01EA5881:
 BYTE   N64  Gn3  v060
 BYTE   W32
 BYTE   N01
 BYTE   W32
 BYTE   W02
 BYTE   N17  Fn3
 BYTE   W18
 BYTE   N11  Ds3
 BYTE   W12
 BYTE   PEND 
// 016   ----------------------------------------
Label_3_01EA588F:
 BYTE   N64  Dn3  v060
 BYTE   W32
 BYTE   N01
 BYTE   W32
 BYTE   W02
 BYTE   N17  As2
 BYTE   W18
 BYTE   N11  Gn2
 BYTE   W12
 BYTE   PEND 
// 017   ----------------------------------------
Label_3_01EA589D:
 BYTE   N44  Cn3  v060
 BYTE   W22
 BYTE   N03
 BYTE   W24
 BYTE   W02
 BYTE   N17  Gn3
 BYTE   W18
 BYTE   Gs3
 BYTE   W18
 BYTE   N11  As3
 BYTE   W12
 BYTE   PEND 
// 018   ----------------------------------------
Label_3_01EA58AD:
 BYTE   N44  Gn3  v060
 BYTE   W48
 BYTE   N17
 BYTE   W18
 BYTE   Gs3
 BYTE   W18
 BYTE   N11  As3
 BYTE   W12
 BYTE   PEND 
// 019   ----------------------------------------
Label_3_01EA58B9:
 BYTE   N44  Gn3  v060
 BYTE   W22
 BYTE   N03
 BYTE   W24
 BYTE   W02
 BYTE   N17  Fn3
 BYTE   W18
 BYTE   Cn3
 BYTE   W18
 BYTE   N11  Fn3
 BYTE   W12
 BYTE   PEND 
// 020   ----------------------------------------
 BYTE   N96  Gn3  v060
 BYTE   W48
 BYTE   N84
 BYTE   W42
 BYTE   N02
 BYTE   W96
// 021   ----------------------------------------
 BYTE   W96
// 022   ----------------------------------------
 BYTE   W96
// 023   ----------------------------------------
 BYTE   W96
// 024   ----------------------------------------
 BYTE   W96
// 025   ----------------------------------------
 BYTE   W96
// 026   ----------------------------------------
 BYTE   W96
// 027   ----------------------------------------
 BYTE   W06
// 028   ----------------------------------------
 BYTE   PATT
  POIN2 Label_3_01EA5829
// 029   ----------------------------------------
 BYTE   PATT
  POIN2 Label_3_01EA5835
// 030   ----------------------------------------
 BYTE   PATT
  POIN2 Label_3_01EA5841
// 031   ----------------------------------------
 BYTE   PATT
  POIN2 Label_3_01EA584D
// 032   ----------------------------------------
 BYTE   PATT
  POIN2 Label_3_01EA5829
// 033   ----------------------------------------
 BYTE   PATT
  POIN2 Label_3_01EA5835
// 034   ----------------------------------------
 BYTE   PATT
  POIN2 Label_3_01EA5841
// 035   ----------------------------------------
 BYTE   PATT
  POIN2 Label_3_01EA5865
// 036   ----------------------------------------
 BYTE   PATT
  POIN2 Label_3_01EA5873
// 037   ----------------------------------------
 BYTE   PATT
  POIN2 Label_3_01EA5881
// 038   ----------------------------------------
 BYTE   PATT
  POIN2 Label_3_01EA588F
// 039   ----------------------------------------
 BYTE   PATT
  POIN2 Label_3_01EA589D
// 040   ----------------------------------------
 BYTE   PATT
  POIN2 Label_3_01EA58AD
// 041   ----------------------------------------
 BYTE   PATT
  POIN2 Label_3_01EA58B9
// 042   ----------------------------------------
 BYTE   N96  Gn3  v060
 BYTE   W48
 BYTE   N84
 BYTE   W42
 BYTE   N02
 BYTE   W88
// 043   ----------------------------------------
 BYTE   W01
 BYTE   W18
 BYTE   W96
// 044   ----------------------------------------
 BYTE   W96
// 045   ----------------------------------------
 BYTE   W96
// 046   ----------------------------------------
 BYTE   W96
// 047   ----------------------------------------
 BYTE   W54
 BYTE   W96
// 048   ----------------------------------------
 BYTE   W24
 BYTE   W03
 BYTE   W96
// 049   ----------------------------------------
 BYTE   W96
// 050   ----------------------------------------
 BYTE   W96
// 051   ----------------------------------------
 BYTE   W96
// 052   ----------------------------------------
 BYTE   W96
// 053   ----------------------------------------
 BYTE   W96
// 054   ----------------------------------------
 BYTE   W96
// 055   ----------------------------------------
 BYTE   W96
// 056   ----------------------------------------
 BYTE   W96
// 057   ----------------------------------------
 BYTE   W96
// 058   ----------------------------------------
 BYTE   W96
// 059   ----------------------------------------
 BYTE   W96
// 060   ----------------------------------------
 BYTE   W96
// 061   ----------------------------------------
 BYTE   W96
// 062   ----------------------------------------
 BYTE   W96
// 063   ----------------------------------------
 BYTE   W96
// 064   ----------------------------------------
 BYTE   W44
 BYTE   N09  Gn2  v060
 BYTE   W12
 BYTE   Dn2
 BYTE   W24
 BYTE   Fn2
 BYTE   W12
 BYTE   Cn2
 BYTE   W12
// 065   ----------------------------------------
 BYTE   Gn2
 BYTE   W12
 BYTE   Dn2
 BYTE   W12
 BYTE   Fn2
 BYTE   W12
 BYTE   Cn2
 BYTE   W48
 BYTE   Gn2
 BYTE   W12
// 066   ----------------------------------------
 BYTE   Dn2
 BYTE   W24
 BYTE   Fn2
 BYTE   W12
 BYTE   Cn2
 BYTE   W12
 BYTE   Gn2
 BYTE   W12
 BYTE   Dn2
 BYTE   W12
 BYTE   Fn2
 BYTE   W11
 BYTE   W01
 BYTE   N09  Cn2  v060
 BYTE   W12
// 067   ----------------------------------------
 BYTE   Ds2
 BYTE   W12
 BYTE   As1
 BYTE   W36
 BYTE   Cs2
 BYTE   W09
 BYTE   W02
 BYTE   N09  Gs1  v060
 BYTE   W05
 BYTE   W03
 BYTE   W02
 BYTE   W03
 BYTE   W48
// 068   ----------------------------------------
 BYTE   W02
 BYTE   GoTo
  POIN2 Label_3_01EA5818
 BYTE   FINE

//**************** Track 5 (Midi-Chn.4) ****************//

CastlevaniaPoRBloodlinesBequeathedRSflame_005:
// 000   ----------------------------------------
Label_4_01EA56AC:
 BYTE   KEYSH   CastlevaniaPoRBloodlinesBequeathedRSflame_key+0
 BYTE   VOICE   30
 BYTE   VOL   60*CastlevaniaPoRBloodlinesBequeathedRSflame_mvl/mxv
 BYTE   PAN   c_v-57
 BYTE   TEMPO   140*CastlevaniaPoRBloodlinesBequeathedRSflame_tbs/2
 BYTE   W96
// 001   ----------------------------------------
 BYTE   W96
// 002   ----------------------------------------
 BYTE   W96
// 003   ----------------------------------------
 BYTE   W96
// 004   ----------------------------------------
 BYTE   W96
// 005   ----------------------------------------
 BYTE   W96
// 006   ----------------------------------------
 BYTE   W18
Label_4_01EA56BD:
 BYTE   N44  Gn3  v050
 BYTE   W48
 BYTE   N17
 BYTE   W18
 BYTE   Fn3
 BYTE   W18
// 007   ----------------------------------------
 BYTE   N11  As3
 BYTE   W12
 BYTE   PEND 
Label_4_01EA56C9:
 BYTE   N44  Gn3  v050
 BYTE   W48
 BYTE   N17
 BYTE   W18
 BYTE   Fn3
 BYTE   W18
// 008   ----------------------------------------
 BYTE   N11  Cn4
 BYTE   W12
 BYTE   PEND 
Label_4_01EA56D5:
 BYTE   N44  Gn3  v050
 BYTE   W48
 BYTE   N17
 BYTE   W18
 BYTE   Fn3
 BYTE   W18
// 009   ----------------------------------------
 BYTE   N11  Dn4
 BYTE   W12
 BYTE   PEND 
Label_4_01EA56E1:
 BYTE   N44  Gn3  v050
 BYTE   W48
 BYTE   N40
 BYTE   W20
 BYTE   N01
 BYTE   W28
 BYTE   PEND 
// 010   ----------------------------------------
 BYTE   PATT
  POIN2 Label_4_01EA56BD
// 011   ----------------------------------------
 BYTE   PATT
  POIN2 Label_4_01EA56C9
// 012   ----------------------------------------
 BYTE   PATT
  POIN2 Label_4_01EA56D5
// 013   ----------------------------------------
Label_4_01EA56F9:
 BYTE   N40  Gn3  v050
 BYTE   W20
 BYTE   N01
 BYTE   W28
 BYTE   N17
 BYTE   W18
 BYTE   Gs3
 BYTE   W18
 BYTE   N11  As3
 BYTE   W12
 BYTE   PEND 
// 014   ----------------------------------------
Label_4_01EA5707:
 BYTE   N64  Gn3  v050
 BYTE   W32
 BYTE   N01
 BYTE   W32
 BYTE   W02
 BYTE   N17  Fn3
 BYTE   W18
 BYTE   N11  Cn3
 BYTE   W12
 BYTE   PEND 
// 015   ----------------------------------------
Label_4_01EA5715:
 BYTE   N64  Gn3  v050
 BYTE   W32
 BYTE   N01
 BYTE   W32
 BYTE   W02
 BYTE   N17  Fn3
 BYTE   W18
 BYTE   N11  Ds3
 BYTE   W12
 BYTE   PEND 
// 016   ----------------------------------------
Label_4_01EA5723:
 BYTE   N64  Dn3  v050
 BYTE   W32
 BYTE   N01
 BYTE   W32
 BYTE   W02
 BYTE   N17  As2
 BYTE   W18
 BYTE   N11  Gn2
 BYTE   W12
 BYTE   PEND 
// 017   ----------------------------------------
Label_4_01EA5731:
 BYTE   N44  Cn3  v050
 BYTE   W22
 BYTE   N03
 BYTE   W24
 BYTE   W02
 BYTE   N17  Gn3
 BYTE   W18
 BYTE   Gs3
 BYTE   W18
 BYTE   N11  As3
 BYTE   W12
 BYTE   PEND 
// 018   ----------------------------------------
Label_4_01EA5741:
 BYTE   N44  Gn3  v050
 BYTE   W48
 BYTE   N17
 BYTE   W18
 BYTE   Gs3
 BYTE   W18
 BYTE   N11  As3
 BYTE   W12
 BYTE   PEND 
// 019   ----------------------------------------
Label_4_01EA574D:
 BYTE   N44  Gn3  v050
 BYTE   W22
 BYTE   N03
 BYTE   W24
 BYTE   W02
 BYTE   N17  Fn3
 BYTE   W18
 BYTE   Cn3
 BYTE   W18
 BYTE   N11  Fn3
 BYTE   W12
 BYTE   PEND 
// 020   ----------------------------------------
 BYTE   N96  Gn3  v050
 BYTE   W48
 BYTE   N84
 BYTE   W42
 BYTE   N02
 BYTE   W96
// 021   ----------------------------------------
 BYTE   W96
// 022   ----------------------------------------
 BYTE   W96
// 023   ----------------------------------------
 BYTE   W96
// 024   ----------------------------------------
 BYTE   W96
// 025   ----------------------------------------
 BYTE   W96
// 026   ----------------------------------------
 BYTE   W96
// 027   ----------------------------------------
 BYTE   W06
// 028   ----------------------------------------
 BYTE   PATT
  POIN2 Label_4_01EA56BD
// 029   ----------------------------------------
 BYTE   PATT
  POIN2 Label_4_01EA56C9
// 030   ----------------------------------------
 BYTE   PATT
  POIN2 Label_4_01EA56D5
// 031   ----------------------------------------
 BYTE   PATT
  POIN2 Label_4_01EA56E1
// 032   ----------------------------------------
 BYTE   PATT
  POIN2 Label_4_01EA56BD
// 033   ----------------------------------------
 BYTE   PATT
  POIN2 Label_4_01EA56C9
// 034   ----------------------------------------
 BYTE   PATT
  POIN2 Label_4_01EA56D5
// 035   ----------------------------------------
 BYTE   PATT
  POIN2 Label_4_01EA56F9
// 036   ----------------------------------------
 BYTE   PATT
  POIN2 Label_4_01EA5707
// 037   ----------------------------------------
 BYTE   PATT
  POIN2 Label_4_01EA5715
// 038   ----------------------------------------
 BYTE   PATT
  POIN2 Label_4_01EA5723
// 039   ----------------------------------------
 BYTE   PATT
  POIN2 Label_4_01EA5731
// 040   ----------------------------------------
 BYTE   PATT
  POIN2 Label_4_01EA5741
// 041   ----------------------------------------
 BYTE   PATT
  POIN2 Label_4_01EA574D
// 042   ----------------------------------------
 BYTE   N96  Gn3  v050
 BYTE   W48
 BYTE   N84
 BYTE   W42
 BYTE   N02
 BYTE   W80
// 043   ----------------------------------------
 BYTE   W03
 BYTE   W18
 BYTE   W96
// 044   ----------------------------------------
 BYTE   W96
// 045   ----------------------------------------
 BYTE   W96
// 046   ----------------------------------------
 BYTE   W96
// 047   ----------------------------------------
 BYTE   W54
 BYTE   W96
// 048   ----------------------------------------
 BYTE   W24
 BYTE   W03
 BYTE   W96
// 049   ----------------------------------------
 BYTE   W96
// 050   ----------------------------------------
 BYTE   W96
// 051   ----------------------------------------
 BYTE   W96
// 052   ----------------------------------------
 BYTE   W96
// 053   ----------------------------------------
 BYTE   W96
// 054   ----------------------------------------
 BYTE   W96
// 055   ----------------------------------------
 BYTE   W96
// 056   ----------------------------------------
 BYTE   W96
// 057   ----------------------------------------
 BYTE   W96
// 058   ----------------------------------------
 BYTE   W96
// 059   ----------------------------------------
 BYTE   W96
// 060   ----------------------------------------
 BYTE   W96
// 061   ----------------------------------------
 BYTE   W96
// 062   ----------------------------------------
 BYTE   W96
// 063   ----------------------------------------
 BYTE   W96
// 064   ----------------------------------------
 BYTE   W48
 BYTE   W02
 BYTE   N09  Gn2  v050
 BYTE   W12
 BYTE   Dn2
 BYTE   W24
 BYTE   Fn2
 BYTE   W12
// 065   ----------------------------------------
 BYTE   Cn2
 BYTE   W12
 BYTE   Gn2
 BYTE   W12
 BYTE   Dn2
 BYTE   W12
 BYTE   Fn2
 BYTE   W12
 BYTE   Cn2
 BYTE   W48
// 066   ----------------------------------------
 BYTE   Gn2
 BYTE   W12
 BYTE   Dn2
 BYTE   W24
 BYTE   Fn2
 BYTE   W12
 BYTE   Cn2
 BYTE   W12
 BYTE   Gn2
 BYTE   W12
 BYTE   Dn2
 BYTE   W12
 BYTE   Fn2
 BYTE   W05
 BYTE   W07
// 067   ----------------------------------------
 BYTE   N09  Cn2  v050
 BYTE   W12
 BYTE   Ds2
 BYTE   W12
 BYTE   As1
 BYTE   W36
 BYTE   Cs2
 BYTE   W03
 BYTE   W02
 BYTE   W06
 BYTE   N09  Gs1  v050
 BYTE   W03
 BYTE   W02
 BYTE   W03
 BYTE   W48
// 068   ----------------------------------------
 BYTE   W02
 BYTE   GoTo
  POIN2 Label_4_01EA56AC
 BYTE   FINE

//**************** Track 6 (Midi-Chn.5) ****************//

CastlevaniaPoRBloodlinesBequeathedRSflame_006:
// 000   ----------------------------------------
Label_5_01EA46E8:
 BYTE   KEYSH   CastlevaniaPoRBloodlinesBequeathedRSflame_key+0
 BYTE   VOICE   38
 BYTE   VOL   45*CastlevaniaPoRBloodlinesBequeathedRSflame_mvl/mxv
 BYTE   PAN   c_v-49
 BYTE   TEMPO   140*CastlevaniaPoRBloodlinesBequeathedRSflame_tbs/2
 BYTE   W96
// 001   ----------------------------------------
 BYTE   W96
// 002   ----------------------------------------
 BYTE   W96
// 003   ----------------------------------------
 BYTE   N03  As5  v065
 BYTE   W04
 BYTE   Gn5  v064
 BYTE   W04
 BYTE   Fn5  v063
 BYTE   W04
 BYTE   Dn5  v062
 BYTE   W04
 BYTE   Cn5  v061
 BYTE   W04
 BYTE   As4  v060
 BYTE   W04
 BYTE   Gn4  v058
 BYTE   W04
 BYTE   Fn4  v057
 BYTE   W04
 BYTE   Dn4  v056
 BYTE   W04
 BYTE   Cn4  v055
 BYTE   W04
 BYTE   As3  v054
 BYTE   W04
 BYTE   Gn3  v052
 BYTE   W04
 BYTE   N05  Fn3  v065
 BYTE   W06
 BYTE   Fn4
 BYTE   W06
 BYTE   Gn3
 BYTE   W06
 BYTE   Gn4
 BYTE   W06
 BYTE   As3
 BYTE   W06
 BYTE   As4
 BYTE   W06
 BYTE   Gn3
 BYTE   W06
 BYTE   Gn4
 BYTE   W96
// 004   ----------------------------------------
 BYTE   W96
// 005   ----------------------------------------
 BYTE   W48
Label_5_01EA472E:
 BYTE   N09  Ds3  v060
 BYTE   N09  Cn3
 BYTE   W24
 BYTE   N03  Ds3
 BYTE   N03  Cn3
 BYTE   W18
 BYTE   Ds3
 BYTE   N03  Cn3
 BYTE   W18
// 006   ----------------------------------------
 BYTE   Ds3
 BYTE   N03  Cn3
 BYTE   W36
 BYTE   PEND 
Label_5_01EA4742:
 BYTE   N09  Dn3  v060
 BYTE   N09  As2
 BYTE   W24
 BYTE   N03  Dn3
 BYTE   N03  As2
 BYTE   W18
 BYTE   Dn3
 BYTE   N03  As2
 BYTE   W18
// 007   ----------------------------------------
 BYTE   Dn3
 BYTE   N03  As2
 BYTE   W36
 BYTE   PEND 
Label_5_01EA4756:
 BYTE   N09  Cn3  v060
 BYTE   N09  Gs2
 BYTE   W24
 BYTE   N03  Cn3
 BYTE   N03  Gs2
 BYTE   W18
 BYTE   Cn3
 BYTE   N03  Gs2
 BYTE   W18
// 008   ----------------------------------------
 BYTE   Cn3
 BYTE   N03  Gs2
 BYTE   W36
 BYTE   PEND 
 BYTE   N09  Cn3  v060
 BYTE   N09  Gs2
 BYTE   W24
 BYTE   N03  Dn3
 BYTE   N03  As2
 BYTE   W18
 BYTE   Dn3
 BYTE   N03  As2
 BYTE   W18
// 009   ----------------------------------------
 BYTE   Dn3
 BYTE   N03  As2
 BYTE   W36
// 010   ----------------------------------------
 BYTE   PATT
  POIN2 Label_5_01EA472E
// 011   ----------------------------------------
 BYTE   PATT
  POIN2 Label_5_01EA4742
// 012   ----------------------------------------
 BYTE   PATT
  POIN2 Label_5_01EA4756
// 013   ----------------------------------------
 BYTE   N09  Dn3  v060
 BYTE   N09  As2
 BYTE   W24
 BYTE   N03  Dn3
 BYTE   N03  As2
 BYTE   W18
 BYTE   Dn3
 BYTE   N03  As2
 BYTE   W12
 BYTE   N05  Fn3
 BYTE   W06
 BYTE   Gs3
 BYTE   W06
 BYTE   Cn4
 BYTE   W06
 BYTE   Gs3
 BYTE   W06
 BYTE   Cn4
 BYTE   W06
 BYTE   Fn4
 BYTE   W06
 BYTE   Gs4
 BYTE   W06
// 014   ----------------------------------------
 BYTE   Fn4
 BYTE   W06
 BYTE   Gs4
 BYTE   W06
 BYTE   Cn5
 BYTE   W06
 BYTE   Fn5
 BYTE   W06
 BYTE   Cn5
 BYTE   W06
 BYTE   Fn5
 BYTE   W06
 BYTE   Gs5
 BYTE   W06
 BYTE   Cn6
 BYTE   W06
 BYTE   Gs5
 BYTE   W96
// 015   ----------------------------------------
 BYTE   W06
Label_5_01EA47BD:
 BYTE   N05  Ds2  v060
 BYTE   W06
 BYTE   Gn2
 BYTE   W06
 BYTE   As2
 BYTE   W06
 BYTE   Gn2
 BYTE   W06
 BYTE   As2
 BYTE   W06
 BYTE   Ds3
 BYTE   W06
 BYTE   Gn3
 BYTE   W06
 BYTE   Ds3
 BYTE   W06
 BYTE   Gn3
 BYTE   W06
 BYTE   As3
 BYTE   W06
 BYTE   Ds4
 BYTE   W06
 BYTE   As3
 BYTE   W06
 BYTE   Ds4
 BYTE   W06
 BYTE   Gn4
 BYTE   W06
 BYTE   As4
 BYTE   W06
// 016   ----------------------------------------
 BYTE   Gn4
 BYTE   W96
// 017   ----------------------------------------
 BYTE   W06
 BYTE   PEND 
Label_5_01EA47E1:
 BYTE   N05  Gs2  v060
 BYTE   W06
 BYTE   Cn3
 BYTE   W06
 BYTE   Ds3
 BYTE   W06
 BYTE   Cn3
 BYTE   W06
 BYTE   Ds3
 BYTE   W06
 BYTE   Gs3
 BYTE   W06
 BYTE   Cn4
 BYTE   W06
 BYTE   Gs3
 BYTE   W06
 BYTE   Cn4
 BYTE   W06
 BYTE   Ds4
 BYTE   W06
 BYTE   Gs4
 BYTE   W06
 BYTE   Ds4
 BYTE   W06
 BYTE   Gs4
 BYTE   W06
 BYTE   Cn5
 BYTE   W06
 BYTE   Ds5
 BYTE   W06
// 018   ----------------------------------------
 BYTE   Cn5
 BYTE   W96
// 019   ----------------------------------------
 BYTE   W06
 BYTE   PEND 
 BYTE   N05  Fn2  v060
 BYTE   W06
 BYTE   Gs2
 BYTE   W06
 BYTE   Cn3
 BYTE   W06
 BYTE   Gs2
 BYTE   W06
 BYTE   Cn3
 BYTE   W06
 BYTE   Fn3
 BYTE   W06
 BYTE   Gs3
 BYTE   W06
 BYTE   Fn3
 BYTE   W06
 BYTE   Gs3
 BYTE   W06
 BYTE   Cn4
 BYTE   W06
 BYTE   Fn4
 BYTE   W06
 BYTE   Cn4
 BYTE   W06
 BYTE   Fn4
 BYTE   W06
 BYTE   Gs4
 BYTE   W06
 BYTE   Cn5
 BYTE   W06
// 020   ----------------------------------------
 BYTE   Gs4
 BYTE   W96
// 021   ----------------------------------------
 BYTE   W96
// 022   ----------------------------------------
 BYTE   W96
// 023   ----------------------------------------
 BYTE   W60
 BYTE   Fn4  v075
 BYTE   W06
 BYTE   Gs4
 BYTE   W06
 BYTE   Cs5
 BYTE   W06
 BYTE   Fn5
 BYTE   W06
 BYTE   Cs5
 BYTE   W06
 BYTE   Gs4
 BYTE   W06
// 024   ----------------------------------------
 BYTE   Fn4
 BYTE   W96
// 025   ----------------------------------------
 BYTE   W96
// 026   ----------------------------------------
 BYTE   W60
 BYTE   As4
 BYTE   W06
 BYTE   Cs5
 BYTE   W06
 BYTE   Fs5
 BYTE   W06
 BYTE   As5
 BYTE   W06
 BYTE   Fs5
 BYTE   W06
 BYTE   Cs5
 BYTE   W06
// 027   ----------------------------------------
 BYTE   As4
 BYTE   W48
 BYTE   N09  Ds3  v060
 BYTE   N09  Cn3
 BYTE   W24
Label_5_01EA484F:
 BYTE   N03  Ds3  v060
 BYTE   N03  Cn3
 BYTE   W18
 BYTE   Ds3
 BYTE   N03  Cn3
 BYTE   W18
// 028   ----------------------------------------
 BYTE   Ds3
 BYTE   N03  Cn3
 BYTE   W36
 BYTE   N09  Dn3
 BYTE   N09  As2
 BYTE   W24
 BYTE   PEND 
Label_5_01EA4863:
 BYTE   N03  Dn3  v060
 BYTE   N03  As2
 BYTE   W18
 BYTE   Dn3
 BYTE   N03  As2
 BYTE   W18
// 029   ----------------------------------------
 BYTE   Dn3
 BYTE   N03  As2
 BYTE   W36
 BYTE   N09  Cn3
 BYTE   N09  Gs2
 BYTE   W24
 BYTE   PEND 
 BYTE   N03  Cn3  v060
 BYTE   N03  Gs2
 BYTE   W18
 BYTE   Cn3
 BYTE   N03  Gs2
 BYTE   W18
// 030   ----------------------------------------
 BYTE   Cn3
 BYTE   N03  Gs2
 BYTE   W36
 BYTE   N09  Cn3
 BYTE   N09  Gs2
 BYTE   W24
 BYTE   N03  Dn3
 BYTE   N03  As2
 BYTE   W18
 BYTE   Dn3
 BYTE   N03  As2
 BYTE   W18
// 031   ----------------------------------------
 BYTE   Dn3
 BYTE   N03  As2
 BYTE   W36
 BYTE   N09  Ds3
 BYTE   N09  Cn3
 BYTE   W24
// 032   ----------------------------------------
 BYTE   PATT
  POIN2 Label_5_01EA484F
// 033   ----------------------------------------
 BYTE   PATT
  POIN2 Label_5_01EA4863
// 034   ----------------------------------------
 BYTE   N03  Cn3  v060
 BYTE   N03  Gs2
 BYTE   W18
 BYTE   Cn3
 BYTE   N03  Gs2
 BYTE   W18
 BYTE   Cn3
 BYTE   N03  Gs2
 BYTE   W36
 BYTE   N09  Dn3
 BYTE   N09  As2
 BYTE   W24
// 035   ----------------------------------------
 BYTE   N03  Dn3
 BYTE   N03  As2
 BYTE   W18
 BYTE   Dn3
 BYTE   N03  As2
 BYTE   W12
 BYTE   N05  Fn3
 BYTE   W06
 BYTE   Gs3
 BYTE   W06
 BYTE   Cn4
 BYTE   W06
 BYTE   Gs3
 BYTE   W06
 BYTE   Cn4
 BYTE   W06
 BYTE   Fn4
 BYTE   W06
 BYTE   Gs4
 BYTE   W06
 BYTE   Fn4
 BYTE   W06
 BYTE   Gs4
 BYTE   W06
 BYTE   Cn5
 BYTE   W06
 BYTE   Fn5
 BYTE   W06
// 036   ----------------------------------------
 BYTE   Cn5
 BYTE   W06
 BYTE   Fn5
 BYTE   W06
 BYTE   Gs5
 BYTE   W06
 BYTE   Cn6
 BYTE   W06
 BYTE   Gs5
 BYTE   W96
// 037   ----------------------------------------
 BYTE   W06
// 038   ----------------------------------------
 BYTE   PATT
  POIN2 Label_5_01EA47BD
// 039   ----------------------------------------
 BYTE   PATT
  POIN2 Label_5_01EA47E1
// 040   ----------------------------------------
 BYTE   N05  Fn2  v060
 BYTE   W06
 BYTE   Gs2
 BYTE   W06
 BYTE   Cn3
 BYTE   W06
 BYTE   Gs2
 BYTE   W06
 BYTE   Cn3
 BYTE   W06
 BYTE   Fn3
 BYTE   W06
 BYTE   Gs3
 BYTE   W06
 BYTE   Fn3
 BYTE   W06
 BYTE   Gs3
 BYTE   W06
 BYTE   Cn4
 BYTE   W06
 BYTE   Fn4
 BYTE   W06
 BYTE   Cn4
 BYTE   W06
 BYTE   Fn4
 BYTE   W06
 BYTE   Gs4
 BYTE   W06
 BYTE   Cn5
 BYTE   W06
 BYTE   Gs4
 BYTE   W96
// 041   ----------------------------------------
 BYTE   W05
 BYTE   W18
 BYTE   W96
// 042   ----------------------------------------
 BYTE   W96
// 043   ----------------------------------------
 BYTE   W36
 BYTE   N05  Fn4  v075
 BYTE   W06
 BYTE   Gs4
 BYTE   W06
 BYTE   Cs5
 BYTE   W06
 BYTE   Fn5
 BYTE   W06
 BYTE   Cs5
 BYTE   W06
 BYTE   Gs4
 BYTE   W06
 BYTE   Fn4
 BYTE   W96
// 044   ----------------------------------------
 BYTE   W78
 BYTE   W78
// 045   ----------------------------------------
 BYTE   N05  As4  v075
 BYTE   W06
 BYTE   Cs5
 BYTE   W06
 BYTE   Fs5
 BYTE   W06
 BYTE   As5
 BYTE   W06
 BYTE   Fs5
 BYTE   W06
 BYTE   Cs5
 BYTE   W06
 BYTE   As4
 BYTE   W09
 BYTE   W08
 BYTE   N52  Cn4  v065
 BYTE   W24
 BYTE   W02
 BYTE   N01
 BYTE   W32
// 046   ----------------------------------------
 BYTE   W02
 BYTE   N23
 BYTE   W24
 BYTE   As3
 BYTE   W24
 BYTE   N11  Ds4
 BYTE   W12
 BYTE   N96  Cn4
 BYTE   W48
// 047   ----------------------------------------
Label_5_01EA494A:
 BYTE   N17  Cn4  v065
 BYTE   W72
 BYTE   N52
 BYTE   W24
// 048   ----------------------------------------
 BYTE   W02
 BYTE   PEND 
 BYTE   N01  Cn4  v065
 BYTE   W32
 BYTE   W02
 BYTE   N23
 BYTE   W24
 BYTE   As3
 BYTE   W24
 BYTE   N11  Ds4
 BYTE   W12
// 049   ----------------------------------------
 BYTE   N96  Cn4
 BYTE   W48
// 050   ----------------------------------------
 BYTE   PATT
  POIN2 Label_5_01EA494A
// 051   ----------------------------------------
 BYTE   N01  Cn4  v065
 BYTE   W32
 BYTE   W02
 BYTE   N23
 BYTE   W24
 BYTE   As3
 BYTE   W24
 BYTE   N11  Fn4
 BYTE   W12
 BYTE   N96  Cn4
 BYTE   W48
// 052   ----------------------------------------
 BYTE   PATT
  POIN2 Label_5_01EA494A
// 053   ----------------------------------------
 BYTE   N01  Cn4  v065
 BYTE   W32
 BYTE   W02
 BYTE   N23
 BYTE   W24
 BYTE   As3
 BYTE   W24
 BYTE   N11  Gn4
 BYTE   W12
 BYTE   N96  Cn4
 BYTE   W48
// 054   ----------------------------------------
 BYTE   N17
 BYTE   W72
 BYTE   N05  Fn3
 BYTE   W06
 BYTE   Gs3
 BYTE   W06
 BYTE   Cn4
 BYTE   W06
 BYTE   N40  Fn4
 BYTE   W20
// 055   ----------------------------------------
 BYTE   N01
 BYTE   W22
 BYTE   N05  Fs3
 BYTE   W06
 BYTE   As3
 BYTE   W06
 BYTE   Cs4
 BYTE   W06
 BYTE   N40  Fs4
 BYTE   W20
 BYTE   N01
 BYTE   W22
 BYTE   N05  Gn3
 BYTE   W06
 BYTE   Bn3
 BYTE   W06
 BYTE   Dn4
 BYTE   W06
// 056   ----------------------------------------
 BYTE   N40  Gn4
 BYTE   W20
 BYTE   N01
 BYTE   W22
 BYTE   N05  Gs3
 BYTE   W06
 BYTE   Cn4
 BYTE   W06
 BYTE   Ds4
 BYTE   W06
 BYTE   N40  Gs4
 BYTE   W20
 BYTE   N01
 BYTE   W22
// 057   ----------------------------------------
 BYTE   N05  As3
 BYTE   W06
 BYTE   Cs4
 BYTE   W06
 BYTE   Fn4
 BYTE   W06
 BYTE   N40  As4
 BYTE   W20
 BYTE   N01
 BYTE   W22
 BYTE   N05  Bn3
 BYTE   W06
 BYTE   Dn4
 BYTE   W06
 BYTE   Gn4
 BYTE   W06
 BYTE   N40  Bn4
 BYTE   W20
// 058   ----------------------------------------
 BYTE   N01
 BYTE   W22
 BYTE   N96  Cn5
 BYTE   W48
 BYTE   Cn5
 BYTE   W48
// 059   ----------------------------------------
 BYTE   N44
 BYTE   W22
 BYTE   N03
 BYTE   W96
// 060   ----------------------------------------
 BYTE   W36
 BYTE   W02
 BYTE   N06  Gn4
 BYTE   W12
 BYTE   Dn4
 BYTE   W24
 BYTE   Fn4
 BYTE   W12
 BYTE   Cn4
 BYTE   W12
// 061   ----------------------------------------
 BYTE   Gn4
 BYTE   W12
 BYTE   Dn4
 BYTE   W12
 BYTE   Fn4
 BYTE   W12
 BYTE   Cn4
 BYTE   W48
 BYTE   Gn4
 BYTE   W12
// 062   ----------------------------------------
 BYTE   Dn4
 BYTE   W24
 BYTE   Fn4
 BYTE   W12
 BYTE   Cn4
 BYTE   W12
 BYTE   Gn4
 BYTE   W12
 BYTE   Dn4
 BYTE   W12
 BYTE   Fn4
 BYTE   W11
 BYTE   W01
 BYTE   N06  Cn4  v065
 BYTE   W12
// 063   ----------------------------------------
 BYTE   Ds4
 BYTE   W12
 BYTE   As3
 BYTE   W36
 BYTE   Cs4
 BYTE   W09
 BYTE   W02
 BYTE   N06  Gs3  v065
 BYTE   W05
 BYTE   W03
 BYTE   W02
 BYTE   W03
 BYTE   W48
// 064   ----------------------------------------
 BYTE   W02
 BYTE   GoTo
  POIN2 Label_5_01EA46E8
 BYTE   FINE

//**************** Track 7 (Midi-Chn.6) ****************//

CastlevaniaPoRBloodlinesBequeathedRSflame_007:
// 000   ----------------------------------------
Label_6_01EA53E4:
 BYTE   KEYSH   CastlevaniaPoRBloodlinesBequeathedRSflame_key+0
 BYTE   VOICE   38
 BYTE   VOL   45*CastlevaniaPoRBloodlinesBequeathedRSflame_mvl/mxv
 BYTE   PAN   c_v+51
 BYTE   TEMPO   140*CastlevaniaPoRBloodlinesBequeathedRSflame_tbs/2
 BYTE   W96
// 001   ----------------------------------------
 BYTE   W96
// 002   ----------------------------------------
 BYTE   W96
// 003   ----------------------------------------
 BYTE   W96
// 004   ----------------------------------------
 BYTE   W96
// 005   ----------------------------------------
 BYTE   W96
// 006   ----------------------------------------
 BYTE   W96
// 007   ----------------------------------------
 BYTE   W96
// 008   ----------------------------------------
 BYTE   W96
// 009   ----------------------------------------
 BYTE   W96
// 010   ----------------------------------------
 BYTE   W96
// 011   ----------------------------------------
 BYTE   W96
// 012   ----------------------------------------
 BYTE   W96
// 013   ----------------------------------------
 BYTE   W96
// 014   ----------------------------------------
 BYTE   W96
// 015   ----------------------------------------
Label_6_01EA53FD:
 BYTE   N05  Cn5  v060
 BYTE   W06
 BYTE   Fn5
 BYTE   W06
 BYTE   Gs5
 BYTE   W06
 BYTE   Fn5
 BYTE   W06
 BYTE   Cn5
 BYTE   W06
 BYTE   Gs4
 BYTE   W06
 BYTE   Fn4
 BYTE   W06
 BYTE   Cn4
 BYTE   W06
 BYTE   Gs4
 BYTE   W06
 BYTE   Fn4
 BYTE   W06
 BYTE   Cn4
 BYTE   W06
 BYTE   Gs3
 BYTE   W06
 BYTE   Cn4
 BYTE   W06
 BYTE   Gs3
 BYTE   W06
 BYTE   Fn3
 BYTE   W06
 BYTE   Cn3
 BYTE   W96
// 016   ----------------------------------------
 BYTE   W06
 BYTE   PEND 
Label_6_01EA5421:
 BYTE   N05  Ds2  v060
 BYTE   W06
 BYTE   Gs2
 BYTE   W06
 BYTE   Cn3
 BYTE   W06
 BYTE   Gs2
 BYTE   W06
 BYTE   Cn3
 BYTE   W06
 BYTE   Ds3
 BYTE   W06
 BYTE   Gs3
 BYTE   W06
 BYTE   Ds3
 BYTE   W06
 BYTE   Gn3
 BYTE   W06
 BYTE   Cn4
 BYTE   W06
 BYTE   Ds4
 BYTE   W06
 BYTE   Cn4
 BYTE   W06
 BYTE   Ds4
 BYTE   W06
 BYTE   Gn4
 BYTE   W06
 BYTE   Cn5
 BYTE   W06
// 017   ----------------------------------------
 BYTE   Gn4
 BYTE   W96
// 018   ----------------------------------------
 BYTE   W06
 BYTE   PEND 
Label_6_01EA5445:
 BYTE   N05  Gn2  v060
 BYTE   W06
 BYTE   As2
 BYTE   W06
 BYTE   Dn3
 BYTE   W06
 BYTE   As2
 BYTE   W06
 BYTE   Dn3
 BYTE   W06
 BYTE   Gn3
 BYTE   W06
 BYTE   As3
 BYTE   W06
 BYTE   Gn3
 BYTE   W06
 BYTE   As3
 BYTE   W06
 BYTE   Dn4
 BYTE   W06
 BYTE   Gn4
 BYTE   W06
 BYTE   Dn4
 BYTE   W06
 BYTE   Gn4
 BYTE   W06
 BYTE   As4
 BYTE   W06
 BYTE   Dn5
 BYTE   W06
// 019   ----------------------------------------
 BYTE   As4
 BYTE   W96
// 020   ----------------------------------------
 BYTE   W06
 BYTE   PEND 
 BYTE   N05  Gn2  v060
 BYTE   W06
 BYTE   Cn3
 BYTE   W06
 BYTE   Dn3
 BYTE   W06
 BYTE   Cn3
 BYTE   W06
 BYTE   Dn3
 BYTE   W06
 BYTE   Fn3
 BYTE   W06
 BYTE   Gn3
 BYTE   W06
 BYTE   Fn3
 BYTE   W06
 BYTE   Gn3
 BYTE   W06
 BYTE   Cn4
 BYTE   W06
 BYTE   Dn4
 BYTE   W06
 BYTE   Cn4
 BYTE   W06
 BYTE   Dn4
 BYTE   W06
 BYTE   Fn4
 BYTE   W06
 BYTE   Gn4
 BYTE   W06
// 021   ----------------------------------------
 BYTE   N04  Bn4
 BYTE   W06
Label_6_01EA548C:
 BYTE   N48  Cn2  v090
 BYTE   W72
 BYTE   Cn2
 BYTE   W72
 BYTE   PEND 
// 022   ----------------------------------------
 BYTE   N48  Cn2  v090
 BYTE   W96
// 023   ----------------------------------------
 BYTE   W48
// 024   ----------------------------------------
 BYTE   PATT
  POIN2 Label_6_01EA548C
// 025   ----------------------------------------
 BYTE   N48  Cn2  v090
 BYTE   W96
// 026   ----------------------------------------
 BYTE   W96
// 027   ----------------------------------------
 BYTE   W96
// 028   ----------------------------------------
 BYTE   W96
// 029   ----------------------------------------
 BYTE   W96
// 030   ----------------------------------------
 BYTE   W96
// 031   ----------------------------------------
 BYTE   W96
// 032   ----------------------------------------
 BYTE   W96
// 033   ----------------------------------------
 BYTE   W96
// 034   ----------------------------------------
 BYTE   W96
// 035   ----------------------------------------
 BYTE   W48
// 036   ----------------------------------------
 BYTE   PATT
  POIN2 Label_6_01EA53FD
// 037   ----------------------------------------
 BYTE   PATT
  POIN2 Label_6_01EA5421
// 038   ----------------------------------------
 BYTE   PATT
  POIN2 Label_6_01EA5445
// 039   ----------------------------------------
 BYTE   N05  Gn2  v060
 BYTE   W06
 BYTE   Cn3
 BYTE   W06
 BYTE   Dn3
 BYTE   W06
 BYTE   Cn3
 BYTE   W06
 BYTE   Dn3
 BYTE   W06
 BYTE   Fn3
 BYTE   W06
 BYTE   Gn3
 BYTE   W06
 BYTE   Fn3
 BYTE   W06
 BYTE   Gn3
 BYTE   W06
 BYTE   Cn4
 BYTE   W06
 BYTE   Dn4
 BYTE   W06
 BYTE   Cn4
 BYTE   W06
 BYTE   Dn4
 BYTE   W06
 BYTE   Fn4
 BYTE   W06
 BYTE   Gn4
 BYTE   W06
 BYTE   N04  Bn4
 BYTE   W05
 BYTE   N48  Cn2  v090
 BYTE   W17
// 040   ----------------------------------------
 BYTE   W54
 BYTE   N48  Cn2  v090
 BYTE   W72
// 041   ----------------------------------------
 BYTE   Cn2
 BYTE   W96
// 042   ----------------------------------------
 BYTE   W48
// 043   ----------------------------------------
 BYTE   PATT
  POIN2 Label_6_01EA548C
// 044   ----------------------------------------
 BYTE   N48  Cn2  v090
 BYTE   W24
 BYTE   W96
// 045   ----------------------------------------
 BYTE   W24
 BYTE   W03
 BYTE   W14
 BYTE   N52  Cn4  v075
 BYTE   W24
 BYTE   W02
 BYTE   N01
 BYTE   W32
// 046   ----------------------------------------
 BYTE   W02
 BYTE   N23
 BYTE   W24
 BYTE   As3
 BYTE   W24
 BYTE   N11  Ds4
 BYTE   W12
 BYTE   N96  Cn4
 BYTE   W48
// 047   ----------------------------------------
 BYTE   N17
 BYTE   W72
Label_6_01EA550A:
 BYTE   N52  Cn4  v075
 BYTE   W24
// 048   ----------------------------------------
 BYTE   W02
 BYTE   N01
 BYTE   W32
 BYTE   W02
 BYTE   N23
 BYTE   W24
 BYTE   As3
 BYTE   W24
 BYTE   PEND 
 BYTE   N11  Ds4  v075
 BYTE   W12
// 049   ----------------------------------------
 BYTE   N96  Cn4
 BYTE   W48
 BYTE   N17
 BYTE   W72
// 050   ----------------------------------------
 BYTE   PATT
  POIN2 Label_6_01EA550A
// 051   ----------------------------------------
 BYTE   N11  Fn4  v075
 BYTE   W12
 BYTE   N96  Cn4
 BYTE   W48
 BYTE   N17
 BYTE   W72
// 052   ----------------------------------------
 BYTE   PATT
  POIN2 Label_6_01EA550A
// 053   ----------------------------------------
 BYTE   N11  Gn4  v075
 BYTE   W12
 BYTE   N96  Cn4
 BYTE   W48
 BYTE   N17
 BYTE   W72
// 054   ----------------------------------------
 BYTE   N05  Fn3
 BYTE   W06
 BYTE   Gs3
 BYTE   W06
 BYTE   Cn4
 BYTE   W06
 BYTE   N40  Fn4
 BYTE   W20
 BYTE   N01
 BYTE   W22
 BYTE   N05  Fs3
 BYTE   W06
 BYTE   As3
 BYTE   W06
 BYTE   Cs4
 BYTE   W06
 BYTE   N40  Fs4
 BYTE   W20
// 055   ----------------------------------------
 BYTE   N01
 BYTE   W22
 BYTE   N05  Gn3
 BYTE   W06
 BYTE   Bn3
 BYTE   W06
 BYTE   Dn4
 BYTE   W06
 BYTE   N40  Gn4
 BYTE   W20
 BYTE   N01
 BYTE   W22
 BYTE   N05  Gs3
 BYTE   W06
 BYTE   Cn4
 BYTE   W06
 BYTE   Ds4
 BYTE   W06
// 056   ----------------------------------------
 BYTE   N40  Gs4
 BYTE   W20
 BYTE   N01
 BYTE   W22
 BYTE   N05  As3
 BYTE   W06
 BYTE   Cs4
 BYTE   W06
 BYTE   Fn4
 BYTE   W06
 BYTE   N40  As4
 BYTE   W20
 BYTE   N01
 BYTE   W22
// 057   ----------------------------------------
 BYTE   N05  Bn3
 BYTE   W06
 BYTE   Dn4
 BYTE   W06
 BYTE   Gn4
 BYTE   W06
 BYTE   N40  Bn4
 BYTE   W20
 BYTE   N01
 BYTE   W22
 BYTE   N96  Cn5
 BYTE   W48
// 058   ----------------------------------------
 BYTE   Cn5
 BYTE   W48
 BYTE   N44
 BYTE   W22
 BYTE   N03
 BYTE   W96
// 059   ----------------------------------------
 BYTE   W36
 BYTE   W02
 BYTE   N06  Gn4
 BYTE   W12
 BYTE   Dn4
 BYTE   W24
 BYTE   Fn4
 BYTE   W12
 BYTE   Cn4
 BYTE   W12
// 060   ----------------------------------------
 BYTE   Gn4
 BYTE   W12
 BYTE   Dn4
 BYTE   W12
 BYTE   Fn4
 BYTE   W12
 BYTE   Cn4
 BYTE   W48
 BYTE   Gn4
 BYTE   W12
// 061   ----------------------------------------
 BYTE   Dn4
 BYTE   W24
 BYTE   Fn4
 BYTE   W12
 BYTE   Cn4
 BYTE   W12
 BYTE   Gn4
 BYTE   W12
 BYTE   Dn4
 BYTE   W12
 BYTE   Fn4
 BYTE   W05
 BYTE   W07
 BYTE   N06  Cn4  v075
 BYTE   W12
// 062   ----------------------------------------
 BYTE   Ds4
 BYTE   W12
 BYTE   As3
 BYTE   W36
 BYTE   Cs4
 BYTE   W03
 BYTE   W02
 BYTE   W06
 BYTE   N06  Gs3  v075
 BYTE   W03
 BYTE   W02
 BYTE   W03
 BYTE   W48
// 063   ----------------------------------------
 BYTE   W02
 BYTE   GoTo
  POIN2 Label_6_01EA53E4
 BYTE   FINE

//**************** Track 8 (Midi-Chn.7) ****************//

CastlevaniaPoRBloodlinesBequeathedRSflame_008:
// 000   ----------------------------------------
Label_7_01EA3EE0:
 BYTE   KEYSH   CastlevaniaPoRBloodlinesBequeathedRSflame_key+0
 BYTE   VOICE   88
 BYTE   VOL   45*CastlevaniaPoRBloodlinesBequeathedRSflame_mvl/mxv
 BYTE   PAN   c_v+31
 BYTE   TEMPO   140*CastlevaniaPoRBloodlinesBequeathedRSflame_tbs/2
 BYTE   W96
// 001   ----------------------------------------
 BYTE   W96
// 002   ----------------------------------------
 BYTE   W96
// 003   ----------------------------------------
 BYTE   W96
// 004   ----------------------------------------
 BYTE   W96
// 005   ----------------------------------------
 BYTE   W96
// 006   ----------------------------------------
 BYTE   W96
// 007   ----------------------------------------
 BYTE   W96
// 008   ----------------------------------------
 BYTE   W96
// 009   ----------------------------------------
 BYTE   W96
// 010   ----------------------------------------
 BYTE   W96
// 011   ----------------------------------------
 BYTE   W96
// 012   ----------------------------------------
 BYTE   W96
// 013   ----------------------------------------
 BYTE   W96
// 014   ----------------------------------------
 BYTE   W96
// 015   ----------------------------------------
 BYTE   W96
// 016   ----------------------------------------
 BYTE   W96
// 017   ----------------------------------------
 BYTE   W96
// 018   ----------------------------------------
 BYTE   W96
// 019   ----------------------------------------
 BYTE   W96
// 020   ----------------------------------------
 BYTE   W96
// 021   ----------------------------------------
 BYTE   W96
// 022   ----------------------------------------
 BYTE   W24
Label_7_01EA3F01:
 BYTE   N32  Ds3  v100
 BYTE   N32  As2
 BYTE   W16
 BYTE   N03  Ds3
 BYTE   N03  As2
 BYTE   W20
 BYTE   N11  Cs3
 BYTE   N11  Gs2
 BYTE   W36
// 023   ----------------------------------------
 BYTE   N32  Ds3
 BYTE   N32  As2
 BYTE   W16
 BYTE   N03  Ds3
 BYTE   N03  As2
 BYTE   W20
 BYTE   PEND 
 BYTE   N11  Cs3  v100
 BYTE   N11  Gs2
 BYTE   W36
 BYTE   N32  Ds3
 BYTE   N32  As2
 BYTE   W16
 BYTE   N03  Ds3
 BYTE   N03  As2
 BYTE   W20
// 024   ----------------------------------------
 BYTE   N11  Cs3
 BYTE   N11  Gs2
 BYTE   W12
 BYTE   Cn3
 BYTE   N11  Gn2
 BYTE   W24
 BYTE   N44  Cs3
 BYTE   N44  Gs2
 BYTE   W22
 BYTE   N03  Cs3
 BYTE   N03  Gs2
 BYTE   W48
// 025   ----------------------------------------
 BYTE   W02
 BYTE   N32  Ds3
 BYTE   N32  As2
 BYTE   W16
 BYTE   N03  Ds3
 BYTE   N03  As2
 BYTE   W20
 BYTE   N11  Cs3
 BYTE   N11  Gs2
 BYTE   W36
 BYTE   N32  Ds3
 BYTE   N32  As2
 BYTE   W16
 BYTE   N03  Ds3
 BYTE   N03  As2
 BYTE   W20
// 026   ----------------------------------------
 BYTE   N11  Cs3
 BYTE   N11  Gs2
 BYTE   W36
 BYTE   N32  Ds3
 BYTE   N32  As2
 BYTE   W16
 BYTE   N03  Ds3
 BYTE   N03  As2
 BYTE   W20
 BYTE   N11  Cs3
 BYTE   N11  Gs2
 BYTE   W12
 BYTE   Cn3
 BYTE   N11  Gn2
 BYTE   W24
// 027   ----------------------------------------
 BYTE   N44  Fs3
 BYTE   N44  Cs3
 BYTE   W22
 BYTE   N03  Fs3
 BYTE   N03  Cs3
 BYTE   W96
// 028   ----------------------------------------
 BYTE   W96
// 029   ----------------------------------------
 BYTE   W96
// 030   ----------------------------------------
 BYTE   W96
// 031   ----------------------------------------
 BYTE   W96
// 032   ----------------------------------------
 BYTE   W96
// 033   ----------------------------------------
 BYTE   W96
// 034   ----------------------------------------
 BYTE   W96
// 035   ----------------------------------------
 BYTE   W96
// 036   ----------------------------------------
 BYTE   W96
// 037   ----------------------------------------
 BYTE   W96
// 038   ----------------------------------------
 BYTE   W96
// 039   ----------------------------------------
 BYTE   W96
// 040   ----------------------------------------
 BYTE   W96
// 041   ----------------------------------------
 BYTE   W96
// 042   ----------------------------------------
 BYTE   W96
// 043   ----------------------------------------
 BYTE   W24
 BYTE   W01
 BYTE   W18
 BYTE   W06
 BYTE   N32  Ds3  v100
 BYTE   N32  As2
 BYTE   W16
 BYTE   N03  Ds3
 BYTE   N03  As2
 BYTE   W20
 BYTE   N11  Cs3
 BYTE   N11  Gs2
 BYTE   W36
// 044   ----------------------------------------
 BYTE   PATT
  POIN2 Label_7_01EA3F01
// 045   ----------------------------------------
 BYTE   N11  Cs3  v100
 BYTE   N11  Gs2
 BYTE   W12
 BYTE   Cn3
 BYTE   N11  Gn2
 BYTE   W24
 BYTE   N44  Cs3
 BYTE   N44  Gs2
 BYTE   W22
 BYTE   N03  Cs3
 BYTE   N03  Gs2
 BYTE   W48
// 046   ----------------------------------------
 BYTE   W02
// 047   ----------------------------------------
 BYTE   PATT
  POIN2 Label_7_01EA3F01
// 048   ----------------------------------------
 BYTE   N11  Cs3  v100
 BYTE   N11  Gs2
 BYTE   W36
 BYTE   N32  Ds3
 BYTE   N32  As2
 BYTE   W16
 BYTE   N03  Ds3  v100
 BYTE   N03  As2
 BYTE   W20
 BYTE   N11  Cs3
 BYTE   N11  Gs2
 BYTE   W12
 BYTE   Cn3
 BYTE   N11  Gn2
 BYTE   W24
// 049   ----------------------------------------
 BYTE   N44  Fs3
 BYTE   N44  Cs3
 BYTE   W22
 BYTE   N03  Fs3
 BYTE   N03  Cs3
 BYTE   W24
 BYTE   W02
 BYTE   N05  Fn2
 BYTE   W03
 BYTE   W02
 BYTE   N05  Cn3  v100
 BYTE   W06
 BYTE   Fn3
 BYTE   W06
 BYTE   Cn3
 BYTE   W06
 BYTE   Gs3
 BYTE   W06
 BYTE   Ds3
 BYTE   W06
 BYTE   As2
 BYTE   W06
 BYTE   Fs3
 BYTE   W06
Label_7_01EA3FF6:
 BYTE   N05  Cs3  v100
 BYTE   W12
// 050   ----------------------------------------
 BYTE   Fn2
 BYTE   W06
 BYTE   Cn3
 BYTE   W06
 BYTE   Fn3
 BYTE   W06
 BYTE   Cn3
 BYTE   W06
 BYTE   Gs3
 BYTE   W06
 BYTE   Ds3
 BYTE   W06
 BYTE   As2
 BYTE   W06
 BYTE   Fs3
 BYTE   W06
 BYTE   Cs3
 BYTE   W12
 BYTE   Fn2
 BYTE   W06
 BYTE   Cn3
 BYTE   W06
 BYTE   Fn3
 BYTE   W06
 BYTE   Cn3
 BYTE   W06
 BYTE   PEND 
Label_7_01EA4015:
 BYTE   N05  Gs3  v100
 BYTE   W06
 BYTE   Ds3
 BYTE   W06
// 051   ----------------------------------------
 BYTE   As2
 BYTE   W06
 BYTE   Fs3
 BYTE   W06
 BYTE   Cs3
 BYTE   W12
 BYTE   Fn2
 BYTE   W06
 BYTE   Cn3
 BYTE   W06
 BYTE   Fn3
 BYTE   W06
 BYTE   Cn3
 BYTE   W06
 BYTE   Gs3
 BYTE   W06
 BYTE   Ds3
 BYTE   W06
 BYTE   As2
 BYTE   W06
 BYTE   Fs3
 BYTE   W06
 BYTE   Cs3
 BYTE   W12
 BYTE   PEND 
 BYTE   N05  Fn2  v100
 BYTE   W06
 BYTE   Cn3
 BYTE   W06
// 052   ----------------------------------------
 BYTE   Fn3
 BYTE   W06
 BYTE   Cn3
 BYTE   W06
 BYTE   Gs3
 BYTE   W06
 BYTE   Ds3
 BYTE   W06
 BYTE   As2
 BYTE   W06
 BYTE   Fs3
 BYTE   W06
 BYTE   Cs3
 BYTE   W12
 BYTE   Fn2
 BYTE   W06
 BYTE   Cn3
 BYTE   W06
 BYTE   Fn3
 BYTE   W06
 BYTE   Cn3
 BYTE   W06
 BYTE   Gs3
 BYTE   W06
 BYTE   Ds3
 BYTE   W06
 BYTE   As2
 BYTE   W06
 BYTE   Fs3
 BYTE   W06
// 053   ----------------------------------------
 BYTE   Cs3
 BYTE   W12
 BYTE   Fn2
 BYTE   W06
 BYTE   Cn3
 BYTE   W06
 BYTE   Fn3
 BYTE   W06
 BYTE   Cn3
 BYTE   W06
 BYTE   Gs3
 BYTE   W06
 BYTE   Ds3
 BYTE   W06
 BYTE   As2
 BYTE   W06
 BYTE   Fs3
 BYTE   W06
 BYTE   Cs3
 BYTE   W12
 BYTE   Fn2
 BYTE   W06
 BYTE   Cn3
 BYTE   W06
 BYTE   Fn3
 BYTE   W06
 BYTE   Cn3
 BYTE   W06
// 054   ----------------------------------------
 BYTE   Gs3
 BYTE   W06
 BYTE   Ds3
 BYTE   W06
 BYTE   As2
 BYTE   W06
 BYTE   Fs3
 BYTE   W06
 BYTE   Cs3
 BYTE   W12
 BYTE   Fn2
 BYTE   W06
 BYTE   Cn3
 BYTE   W06
 BYTE   Fn3
 BYTE   W06
 BYTE   Cn3
 BYTE   W06
 BYTE   Gs3
 BYTE   W06
 BYTE   Ds3
 BYTE   W06
 BYTE   As2
 BYTE   W06
 BYTE   Fs3
 BYTE   W06
// 055   ----------------------------------------
 BYTE   PATT
  POIN2 Label_7_01EA3FF6
// 056   ----------------------------------------
 BYTE   PATT
  POIN2 Label_7_01EA4015
// 057   ----------------------------------------
 BYTE   N05  Cn2  v100
 BYTE   W06
 BYTE   Gn2
 BYTE   W06
 BYTE   Cn3
 BYTE   W06
 BYTE   Gn2
 BYTE   W06
 BYTE   Ds3
 BYTE   W06
 BYTE   As2
 BYTE   W06
 BYTE   Fn2
 BYTE   W06
 BYTE   Cs3
 BYTE   W06
 BYTE   Gs2
 BYTE   W12
 BYTE   Cn2
 BYTE   W06
 BYTE   Gn2
 BYTE   W06
 BYTE   Cn3
 BYTE   W06
 BYTE   Gn2
 BYTE   W06
 BYTE   Ds3
 BYTE   W06
 BYTE   As2
 BYTE   W06
// 058   ----------------------------------------
 BYTE   Fn2
 BYTE   W06
 BYTE   Cs3
 BYTE   W06
 BYTE   Gs2
 BYTE   W12
 BYTE   Cn2
 BYTE   W06
 BYTE   Gn2
 BYTE   W06
 BYTE   Cn3
 BYTE   W06
 BYTE   Gn2
 BYTE   W06
 BYTE   Ds3
 BYTE   W06
 BYTE   As2
 BYTE   W06
 BYTE   Fn2
 BYTE   W06
 BYTE   Cs3
 BYTE   W06
 BYTE   Gs2
 BYTE   W12
 BYTE   Cn2
 BYTE   W06
 BYTE   Gn2
 BYTE   W06
// 059   ----------------------------------------
 BYTE   Cn3
 BYTE   W06
 BYTE   Gn2
 BYTE   W06
 BYTE   Ds3
 BYTE   W06
 BYTE   As2
 BYTE   W06
 BYTE   Fn2
 BYTE   W06
 BYTE   Cs3
 BYTE   W06
 BYTE   Gs2
 BYTE   W12
 BYTE   Fn3  v092
 BYTE   W06
 BYTE   Gs3
 BYTE   W06
 BYTE   Cn4
 BYTE   W06
 BYTE   N40  Fn4
 BYTE   W20
 BYTE   N01
 BYTE   W22
// 060   ----------------------------------------
 BYTE   N05  Fs3
 BYTE   W06
 BYTE   As3
 BYTE   W06
 BYTE   Cs4
 BYTE   W06
 BYTE   N40  Fs4
 BYTE   W20
 BYTE   N01
 BYTE   W22
 BYTE   N05  Gn3
 BYTE   W06
 BYTE   Bn3
 BYTE   W06
 BYTE   Dn4
 BYTE   W06
 BYTE   N40  Gn4
 BYTE   W20
// 061   ----------------------------------------
 BYTE   N01
 BYTE   W22
 BYTE   N05  Gs3
 BYTE   W06
 BYTE   Cn4
 BYTE   W06
 BYTE   Ds4
 BYTE   W06
 BYTE   N40  Gs4
 BYTE   W20
 BYTE   N01
 BYTE   W22
 BYTE   N05  As3
 BYTE   W06
 BYTE   Cs4
 BYTE   W06
 BYTE   Fn4
 BYTE   W06
// 062   ----------------------------------------
 BYTE   N40  As4
 BYTE   W20
 BYTE   N01
 BYTE   W22
 BYTE   N05  Bn3
 BYTE   W06
 BYTE   Dn4
 BYTE   W06
 BYTE   Gn4
 BYTE   W06
 BYTE   N40  Bn4
 BYTE   W20
 BYTE   N01
 BYTE   W22
// 063   ----------------------------------------
 BYTE   N05  Cn3  v080
 BYTE   W06
 BYTE   Fn3
 BYTE   W06
 BYTE   As3
 BYTE   W06
 BYTE   Fn3
 BYTE   W06
 BYTE   Ds4
 BYTE   W06
 BYTE   As3
 BYTE   W06
 BYTE   Fn3
 BYTE   W06
 BYTE   Cs4
 BYTE   W06
 BYTE   Fs3
 BYTE   W12
 BYTE   Cn3
 BYTE   W06
 BYTE   Fn3
 BYTE   W06
 BYTE   As3
 BYTE   W06
 BYTE   Fn3
 BYTE   W06
 BYTE   Ds4
 BYTE   W06
 BYTE   As3
 BYTE   W06
// 064   ----------------------------------------
 BYTE   Fn3
 BYTE   W06
 BYTE   Cs4
 BYTE   W06
 BYTE   Fs3
 BYTE   W12
 BYTE   Cn3
 BYTE   W06
 BYTE   Fn3
 BYTE   W06
 BYTE   As3
 BYTE   W06
 BYTE   Fn3
 BYTE   W06
 BYTE   Ds4
 BYTE   W06
 BYTE   As3
 BYTE   W06
 BYTE   Fn3
 BYTE   W06
 BYTE   Cs4
 BYTE   W06
 BYTE   Fs3
 BYTE   W12
 BYTE   Cn3
 BYTE   W06
 BYTE   Fn3
 BYTE   W06
// 065   ----------------------------------------
 BYTE   As3
 BYTE   W06
 BYTE   Fn3
 BYTE   W06
 BYTE   Ds4
 BYTE   W06
 BYTE   As3
 BYTE   W06
 BYTE   Fn3
 BYTE   W06
 BYTE   Cs4
 BYTE   W06
 BYTE   Fs3
 BYTE   W18
 BYTE   Cn3  v100
 BYTE   W06
 BYTE   Fn3
 BYTE   W06
 BYTE   Cn3
 BYTE   W06
 BYTE   As3
 BYTE   W06
 BYTE   Fn3
 BYTE   W06
 BYTE   Cn3
 BYTE   W06
 BYTE   Gs3
 BYTE   W06
// 066   ----------------------------------------
 BYTE   Cs3
 BYTE   W96
// 067   ----------------------------------------
 BYTE   W06
 BYTE   Cn3
 BYTE   W06
 BYTE   Fn3
 BYTE   W06
 BYTE   Cn3
 BYTE   W06
 BYTE   As3
 BYTE   W06
 BYTE   Fn3
 BYTE   W06
 BYTE   Cn3
 BYTE   W06
 BYTE   Gs3
 BYTE   W06
 BYTE   Cs3
 BYTE   W68
// 068   ----------------------------------------
 BYTE   W03
 BYTE   W30
 BYTE   W01
 BYTE   N05  Cn3  v100
 BYTE   W06
 BYTE   Fn3
 BYTE   W06
 BYTE   Cn3
 BYTE   W06
 BYTE   As3
 BYTE   W06
 BYTE   Fn3
 BYTE   W06
 BYTE   Cn3
 BYTE   W06
 BYTE   Gs3
 BYTE   W03
 BYTE   W02
 BYTE   N05  Cs3  v100
 BYTE   W05
 BYTE   W03
 BYTE   W02
 BYTE   W03
 BYTE   W48
// 069   ----------------------------------------
 BYTE   W02
 BYTE   GoTo
  POIN2 Label_7_01EA3EE0
 BYTE   FINE

//**************** Track 9 (Midi-Chn.8) ****************//

CastlevaniaPoRBloodlinesBequeathedRSflame_009:
// 000   ----------------------------------------
Label_8_01EA597C:
 BYTE   KEYSH   CastlevaniaPoRBloodlinesBequeathedRSflame_key+0
 BYTE   VOICE   127
 BYTE   VOL   45*CastlevaniaPoRBloodlinesBequeathedRSflame_mvl/mxv
 BYTE   PAN   c_v+0
 BYTE   N23  As1  v090
 BYTE   TEMPO   140*CastlevaniaPoRBloodlinesBequeathedRSflame_tbs/2
 BYTE   W24
 BYTE   N23  As1  v078
 BYTE   W24
 BYTE   As1  v090
 BYTE   W24
 BYTE   As1  v078
 BYTE   W24
// 001   ----------------------------------------
Label_8_01EA5994:
 BYTE   N23  As1  v090
 BYTE   W24
 BYTE   As1  v078
 BYTE   W24
 BYTE   As1  v090
 BYTE   W24
 BYTE   As1  v078
 BYTE   W24
 BYTE   PEND 
// 002   ----------------------------------------
 BYTE   PATT
  POIN2 Label_8_01EA5994
// 003   ----------------------------------------
 BYTE   N23  Dn1  v127
 BYTE   W12
 BYTE   N16  Cn1  v120
 BYTE   W06
 BYTE   N20  Bn1  v100
 BYTE   W12
 BYTE   N06  An1
 BYTE   W06
 BYTE   An1
 BYTE   W06
 BYTE   N14
 BYTE   W06
 BYTE   N17  Bn1
 BYTE   N17  Dn1  v127
 BYTE   W18
 BYTE   N11  An1  v100
 BYTE   N11  Dn1  v127
 BYTE   W12
 BYTE   N05  Bn1  v100
 BYTE   N05  Dn1  v127
 BYTE   W06
 BYTE   N11  An1  v100
 BYTE   N11  Dn1  v127
 BYTE   W12
// 004   ----------------------------------------
 BYTE   Cn1  v120
 BYTE   N23  As1
 BYTE   W24
 BYTE   As1  v078
 BYTE   N23  Dn1  v127
 BYTE   W18
 BYTE   N11  Cn1  v120
 BYTE   W06
 BYTE   N23  As1  v090
 BYTE   W06
 BYTE   N05  Cn1  v120
 BYTE   W06
 BYTE   N11
 BYTE   W12
 BYTE   N23  As1  v078
 BYTE   N23  Dn1  v127
 BYTE   W24
// 005   ----------------------------------------
 BYTE   N11  Cn1  v120
 BYTE   N23  As1  v090
 BYTE   W24
 BYTE   As1  v078
 BYTE   N23  Dn1  v127
 BYTE   W18
 BYTE   N11  Cn1  v120
 BYTE   W06
 BYTE   N23  As1  v090
 BYTE   W06
 BYTE   N05  Cn1  v120
 BYTE   W06
 BYTE   N11
 BYTE   W12
 BYTE   N23  As1  v078
 BYTE   N23  Dn1  v127
 BYTE   W24
// 006   ----------------------------------------
 BYTE   N11  Cn1  v120
 BYTE   W12
 BYTE   Fs1  v078
 BYTE   W12
 BYTE   Fs1  v090
 BYTE   N23  Dn1  v127
 BYTE   W12
 BYTE   N05  Fs1  v078
 BYTE   W06
 BYTE   N11  Fs1  v090
 BYTE   N11  Cn1  v120
 BYTE   W12
 BYTE   N05  Fs1  v078
 BYTE   N05  Cn1  v120
 BYTE   W06
 BYTE   N11  Fs1  v090
 BYTE   N11  Cn1  v120
 BYTE   W12
 BYTE   Fs1  v090
 BYTE   N23  Dn1  v127
 BYTE   W12
 BYTE   N11  Fs1  v078
 BYTE   W12
// 007   ----------------------------------------
Label_8_01EA5A47:
 BYTE   N11  Fs1  v090
 BYTE   N11  Cn1  v120
 BYTE   W12
 BYTE   Fs1  v078
 BYTE   W12
 BYTE   Fs1  v090
 BYTE   N23  Dn1  v127
 BYTE   W12
 BYTE   N05  Fs1  v078
 BYTE   W06
 BYTE   N11  Fs1  v090
 BYTE   N11  Cn1  v120
 BYTE   W12
 BYTE   N05  Fs1  v078
 BYTE   N05  Cn1  v120
 BYTE   W06
 BYTE   N11  Fs1  v090
 BYTE   N11  Cn1  v120
 BYTE   W12
 BYTE   Fs1  v090
 BYTE   N23  Dn1  v127
 BYTE   W12
 BYTE   N11  Fs1  v078
 BYTE   W12
 BYTE   PEND 
// 008   ----------------------------------------
 BYTE   PATT
  POIN2 Label_8_01EA5A47
// 009   ----------------------------------------
 BYTE   PATT
  POIN2 Label_8_01EA5A47
// 010   ----------------------------------------
 BYTE   PATT
  POIN2 Label_8_01EA5A47
// 011   ----------------------------------------
 BYTE   PATT
  POIN2 Label_8_01EA5A47
// 012   ----------------------------------------
 BYTE   PATT
  POIN2 Label_8_01EA5A47
// 013   ----------------------------------------
 BYTE   PATT
  POIN2 Label_8_01EA5A47
// 014   ----------------------------------------
Label_8_01EA5A99:
 BYTE   N11  Cn1  v120
 BYTE   W12
 BYTE   N23  Gs2  v080
 BYTE   W12
 BYTE   Dn1  v127
 BYTE   W12
 BYTE   Gs2  v098
 BYTE   W06
 BYTE   N11  Cn1  v120
 BYTE   W12
 BYTE   N05
 BYTE   W06
 BYTE   N11
 BYTE   N23  Gs2  v080
 BYTE   W12
 BYTE   Dn1  v127
 BYTE   W12
 BYTE   Gs2  v098
 BYTE   W12
 BYTE   PEND 
// 015   ----------------------------------------
 BYTE   PATT
  POIN2 Label_8_01EA5A99
// 016   ----------------------------------------
 BYTE   PATT
  POIN2 Label_8_01EA5A99
// 017   ----------------------------------------
 BYTE   PATT
  POIN2 Label_8_01EA5A99
// 018   ----------------------------------------
 BYTE   PATT
  POIN2 Label_8_01EA5A99
// 019   ----------------------------------------
 BYTE   PATT
  POIN2 Label_8_01EA5A99
// 020   ----------------------------------------
 BYTE   PATT
  POIN2 Label_8_01EA5A99
// 021   ----------------------------------------
 BYTE   PATT
  POIN2 Label_8_01EA5A99
// 022   ----------------------------------------
 BYTE   N11  Fs1  v090
 BYTE   N11  Cn1  v120
 BYTE   N19  Dn1  v127
 BYTE   W12
 BYTE   N11  Fs1  v078
 BYTE   N11  Cn1  v120
 BYTE   W12
 BYTE   Fs1  v090
 BYTE   W12
 BYTE   N05  Fs1  v078
 BYTE   N05  Cn1  v120
 BYTE   W06
 BYTE   N11  Fs1  v090
 BYTE   N11  Cn1  v120
 BYTE   W12
 BYTE   N05  Fs1  v078
 BYTE   N11  Cn1  v120
 BYTE   W06
 BYTE   Fs1  v090
 BYTE   N14  An1
 BYTE   W12
 BYTE   N11  Fs1
 BYTE   N11  Cn1  v120
 BYTE   N21  Dn1  v127
 BYTE   W12
 BYTE   N11  Fs1  v078
 BYTE   N11  Cn1  v120
 BYTE   W12
// 023   ----------------------------------------
 BYTE   Fs1  v090
 BYTE   W12
 BYTE   N05  Fs1  v078
 BYTE   N05  Cn1  v120
 BYTE   W06
 BYTE   N11  Fs1  v090
 BYTE   N11  Cn1  v120
 BYTE   W12
 BYTE   N05  Fs1  v078
 BYTE   N11  Cn1  v120
 BYTE   W06
 BYTE   Fs1  v090
 BYTE   N14  An1
 BYTE   W12
 BYTE   N11  Fs1
 BYTE   N11  Cn1  v120
 BYTE   N16  Dn1  v127
 BYTE   W12
 BYTE   N11  Fs1  v078
 BYTE   N11  Cn1  v120
 BYTE   W12
 BYTE   Fs1  v090
 BYTE   W12
 BYTE   N05  Fs1  v078
 BYTE   N05  Cn1  v120
 BYTE   W06
 BYTE   N11  Fs1  v090
 BYTE   N11  Cn1  v120
 BYTE   W12
// 024   ----------------------------------------
 BYTE   N05  Fs1  v078
 BYTE   N11  Cn1  v120
 BYTE   W06
 BYTE   Fs1  v090
 BYTE   N12  An1
 BYTE   W12
 BYTE   N11  Fs1
 BYTE   N11  Cn1  v120
 BYTE   W12
 BYTE   Fs1  v078
 BYTE   N11  Cn1  v120
 BYTE   W12
 BYTE   N06  Cn2  v127
 BYTE   N11  Fs1  v090
 BYTE   W06
 BYTE   N20  Cn2  v119
 BYTE   W06
 BYTE   N05  Cn1  v120
 BYTE   N05  Fs1  v078
 BYTE   N06  Bn1  v127
 BYTE   W06
 BYTE   N11  Fs1  v090
 BYTE   N11  Cn1  v120
 BYTE   N18  Bn1  v119
 BYTE   W06
 BYTE   N06  An1  v127
 BYTE   W06
 BYTE   N05  Fs1  v078
 BYTE   N11  Cn1  v120
 BYTE   N18  An1  v119
 BYTE   W06
 BYTE   N06  Bn1  v127
 BYTE   N11  Fs1  v090
 BYTE   W06
 BYTE   N20  Bn1  v119
 BYTE   W06
 BYTE   N11  Cn1  v120
 BYTE   N11  Fs1  v090
 BYTE   N16  Dn1  v127
 BYTE   W12
// 025   ----------------------------------------
Label_8_01EA5BB2:
 BYTE   N11  Fs1  v078
 BYTE   N11  Cn1  v120
 BYTE   W12
 BYTE   Fs1  v090
 BYTE   W12
 BYTE   N05  Fs1  v078
 BYTE   N05  Cn1  v120
 BYTE   W06
 BYTE   N11  Fs1  v090
 BYTE   N11  Cn1  v120
 BYTE   W12
 BYTE   N05  Fs1  v078
 BYTE   N11  Cn1  v120
 BYTE   W06
 BYTE   Fs1  v090
 BYTE   N15  An1
 BYTE   W12
 BYTE   N11  Fs1
 BYTE   N11  Cn1  v120
 BYTE   N16  Dn1  v127
 BYTE   W12
 BYTE   N11  Fs1  v078
 BYTE   N11  Cn1  v120
 BYTE   W12
 BYTE   Fs1  v090
 BYTE   W12
 BYTE   PEND 
// 026   ----------------------------------------
 BYTE   N05  Fs1  v078
 BYTE   N05  Cn1  v120
 BYTE   W06
 BYTE   N11  Fs1  v090
 BYTE   N11  Cn1  v120
 BYTE   W12
 BYTE   N05  Fs1  v078
 BYTE   N11  Cn1  v120
 BYTE   W06
 BYTE   Fs1  v090
 BYTE   N13  An1
 BYTE   W12
 BYTE   N11  Fs1
 BYTE   N11  Cn1  v120
 BYTE   N14  Dn1  v127
 BYTE   W12
 BYTE   N11  Fs1  v078
 BYTE   N11  Cn1  v120
 BYTE   W12
 BYTE   Fs1  v090
 BYTE   W12
 BYTE   N05  Fs1  v078
 BYTE   N05  Cn1  v120
 BYTE   W06
 BYTE   N06  Fs1  v090
 BYTE   N11  Cn1  v120
 BYTE   W06
 BYTE   N05  Fs1  v090
 BYTE   W06
 BYTE   N11  Cn1  v120
 BYTE   W06
// 027   ----------------------------------------
 BYTE   Fs1  v078
 BYTE   N12  An1  v090
 BYTE   W12
 BYTE   N11  Fs1
 BYTE   N11  Cn1  v120
 BYTE   W12
 BYTE   N04  Cn2  v127
 BYTE   N11  Fs1  v078
 BYTE   N11  Cn1  v120
 BYTE   W04
 BYTE   N04  Cn2  v117
 BYTE   W04
 BYTE   Cn2  v119
 BYTE   W04
 BYTE   N06  Cn2  v127
 BYTE   N11  Fs1  v090
 BYTE   W06
 BYTE   N20  Cn2  v119
 BYTE   W06
 BYTE   N05  Cn1  v120
 BYTE   N06  Bn1  v127
 BYTE   N11  Fs1  v078
 BYTE   W06
 BYTE   Cn1  v120
 BYTE   N18  Bn1  v119
 BYTE   W06
 BYTE   N06  An1  v127
 BYTE   N11  Fs1  v090
 BYTE   W06
 BYTE   Cn1  v120
 BYTE   N20  An1  v119
 BYTE   W06
 BYTE   N06  Bn1  v127
 BYTE   N11  Fs1  v078
 BYTE   W06
 BYTE   N20  Bn1  v119
 BYTE   W06
 BYTE   N11  Fs1  v090
 BYTE   N11  Cn1  v120
 BYTE   W12
// 028   ----------------------------------------
Label_8_01EA5C84:
 BYTE   N11  Fs1  v078
 BYTE   W12
 BYTE   Fs1  v090
 BYTE   N23  Dn1  v127
 BYTE   W12
 BYTE   N05  Fs1  v078
 BYTE   W06
 BYTE   N11  Fs1  v090
 BYTE   N11  Cn1  v120
 BYTE   W12
 BYTE   N05  Fs1  v078
 BYTE   N05  Cn1  v120
 BYTE   W06
 BYTE   N11  Fs1  v090
 BYTE   N11  Cn1  v120
 BYTE   W12
 BYTE   Fs1  v090
 BYTE   N23  Dn1  v127
 BYTE   W12
 BYTE   N11  Fs1  v078
 BYTE   W12
 BYTE   Fs1  v090
 BYTE   N11  Cn1  v120
 BYTE   W12
 BYTE   PEND 
// 029   ----------------------------------------
 BYTE   PATT
  POIN2 Label_8_01EA5C84
// 030   ----------------------------------------
 BYTE   PATT
  POIN2 Label_8_01EA5C84
// 031   ----------------------------------------
 BYTE   PATT
  POIN2 Label_8_01EA5C84
// 032   ----------------------------------------
 BYTE   PATT
  POIN2 Label_8_01EA5C84
// 033   ----------------------------------------
 BYTE   PATT
  POIN2 Label_8_01EA5C84
// 034   ----------------------------------------
 BYTE   PATT
  POIN2 Label_8_01EA5C84
// 035   ----------------------------------------
 BYTE   N11  Fs1  v078
 BYTE   W12
 BYTE   Fs1  v090
 BYTE   N23  Dn1  v127
 BYTE   W12
 BYTE   N05  Fs1  v078
 BYTE   W06
 BYTE   N11  Fs1  v090
 BYTE   N11  Cn1  v120
 BYTE   W12
 BYTE   N05  Fs1  v078
 BYTE   N05  Cn1  v120
 BYTE   W06
 BYTE   N11  Fs1  v090
 BYTE   N11  Cn1  v120
 BYTE   W12
 BYTE   Fs1  v090
 BYTE   N23  Dn1  v127
 BYTE   W12
 BYTE   N11  Fs1  v078
 BYTE   W12
 BYTE   Cn1  v120
 BYTE   W12
// 036   ----------------------------------------
Label_8_01EA5D06:
 BYTE   N23  Gs2  v080
 BYTE   W12
 BYTE   Dn1  v127
 BYTE   W12
 BYTE   Gs2  v098
 BYTE   W06
 BYTE   N11  Cn1  v120
 BYTE   W12
 BYTE   N05
 BYTE   W06
 BYTE   N11
 BYTE   N23  Gs2  v080
 BYTE   W12
 BYTE   Dn1  v127
 BYTE   W12
 BYTE   Gs2  v098
 BYTE   W12
 BYTE   N11  Cn1  v120
 BYTE   W12
 BYTE   PEND 
// 037   ----------------------------------------
 BYTE   PATT
  POIN2 Label_8_01EA5D06
// 038   ----------------------------------------
 BYTE   PATT
  POIN2 Label_8_01EA5D06
// 039   ----------------------------------------
 BYTE   N23  Gs2  v080
 BYTE   W12
 BYTE   Dn1  v127
 BYTE   W12
 BYTE   Gs2  v098
 BYTE   W06
 BYTE   N11  Cn1  v120
 BYTE   W12
 BYTE   N05
 BYTE   W06
 BYTE   N11
 BYTE   N23  Gs2  v080
 BYTE   W12
 BYTE   Dn1  v127
 BYTE   W12
 BYTE   N11  Cn1  v120
 BYTE   N23  Gs2  v098
 BYTE   W12
 BYTE   N11  Cn1  v120
 BYTE   W12
// 040   ----------------------------------------
 BYTE   PATT
  POIN2 Label_8_01EA5D06
// 041   ----------------------------------------
 BYTE   PATT
  POIN2 Label_8_01EA5D06
// 042   ----------------------------------------
 BYTE   PATT
  POIN2 Label_8_01EA5D06
// 043   ----------------------------------------
 BYTE   N23  Gs2  v080
 BYTE   W12
 BYTE   Dn1  v127
 BYTE   W12
 BYTE   Gs2  v098
 BYTE   W06
 BYTE   N11  Cn1  v120
 BYTE   W12
 BYTE   N05
 BYTE   W06
 BYTE   N11
 BYTE   N23  Gs2  v080
 BYTE   W12
 BYTE   Dn1  v127
 BYTE   W12
 BYTE   Gs2  v098
 BYTE   W11
 BYTE   N11  Fs1  v090
 BYTE   N11  Cn1  v120
 BYTE   N19  Dn1  v127
 BYTE   W12
 BYTE   N11  Fs1  v078
 BYTE   N11  Cn1  v120
 BYTE   W05
// 044   ----------------------------------------
 BYTE   W06
 BYTE   N11  Fs1  v090
 BYTE   W12
 BYTE   N05  Fs1  v078
 BYTE   N05  Cn1  v120
 BYTE   W06
 BYTE   N11  Fs1  v090
 BYTE   N11  Cn1  v120
 BYTE   W12
 BYTE   N05  Fs1  v078
 BYTE   N11  Cn1  v120
 BYTE   W06
 BYTE   Fs1  v090
 BYTE   N14  An1
 BYTE   W12
 BYTE   N11  Fs1
 BYTE   N11  Cn1  v120
 BYTE   N21  Dn1  v127
 BYTE   W12
 BYTE   N11  Fs1  v078
 BYTE   N11  Cn1  v120
 BYTE   W12
 BYTE   Fs1  v090
 BYTE   W12
 BYTE   N05  Fs1  v078
 BYTE   N05  Cn1  v120
 BYTE   W06
// 045   ----------------------------------------
 BYTE   N11  Fs1  v090
 BYTE   N11  Cn1  v120
 BYTE   W12
 BYTE   N05  Fs1  v078
 BYTE   N11  Cn1  v120
 BYTE   W06
 BYTE   Fs1  v090
 BYTE   N14  An1
 BYTE   W12
 BYTE   N11  Fs1
 BYTE   N11  Cn1  v120
 BYTE   N16  Dn1  v127
 BYTE   W12
 BYTE   N11  Fs1  v078
 BYTE   N11  Cn1  v120
 BYTE   W12
 BYTE   Fs1  v090
 BYTE   W12
 BYTE   N05  Fs1  v078
 BYTE   N05  Cn1  v120
 BYTE   W06
 BYTE   N11  Fs1  v090
 BYTE   N11  Cn1  v120
 BYTE   W12
 BYTE   N05  Fs1  v078
 BYTE   N11  Cn1  v120
 BYTE   W06
 BYTE   Fs1  v090
 BYTE   N12  An1
 BYTE   W12
// 046   ----------------------------------------
 BYTE   N11  Fs1
 BYTE   N11  Cn1  v120
 BYTE   W12
 BYTE   Fs1  v078
 BYTE   N11  Cn1  v120
 BYTE   W12
 BYTE   N06  Cn2  v127
 BYTE   N11  Fs1  v090
 BYTE   W06
 BYTE   N20  Cn2  v119
 BYTE   W06
 BYTE   N05  Cn1  v120
 BYTE   N05  Fs1  v078
 BYTE   N06  Bn1  v127
 BYTE   W06
 BYTE   N11  Fs1  v090
 BYTE   N11  Cn1  v120
 BYTE   N18  Bn1  v119
 BYTE   W06
 BYTE   N06  An1  v127
 BYTE   W06
 BYTE   N05  Fs1  v078
 BYTE   N11  Cn1  v120
 BYTE   N18  An1  v119
 BYTE   W06
 BYTE   N06  Bn1  v127
 BYTE   N11  Fs1  v090
 BYTE   W06
 BYTE   N20  Bn1  v119
 BYTE   W06
 BYTE   N11  Fs1  v090
 BYTE   N11  Cn1  v120
 BYTE   N16  Dn1  v127
 BYTE   W12
// 047   ----------------------------------------
 BYTE   PATT
  POIN2 Label_8_01EA5BB2
// 048   ----------------------------------------
 BYTE   N05  Fs1  v078
 BYTE   N05  Cn1  v120
 BYTE   W06
 BYTE   N11  Fs1  v090
 BYTE   N11  Cn1  v120
 BYTE   W12
 BYTE   N05  Fs1  v078
 BYTE   N11  Cn1  v120
 BYTE   W06
 BYTE   Fs1  v090
 BYTE   N13  An1
 BYTE   W12
 BYTE   N11  Fs1
 BYTE   N11  Cn1  v120
 BYTE   N14  Dn1  v127
 BYTE   W12
 BYTE   N11  Fs1  v078
 BYTE   N11  Cn1  v120
 BYTE   W12
 BYTE   Fs1  v090
 BYTE   W12
 BYTE   N05  Fs1  v078
 BYTE   N05  Cn1  v120
 BYTE   W06
 BYTE   N06  Fs1  v090
 BYTE   N11  Cn1  v120
 BYTE   W06
 BYTE   N05  Fs1  v090
 BYTE   W06
 BYTE   N11  Cn1  v120
 BYTE   W06
// 049   ----------------------------------------
 BYTE   Fs1  v078
 BYTE   N12  An1  v090
 BYTE   W12
 BYTE   N11  Fs1
 BYTE   N11  Cn1  v120
 BYTE   W12
 BYTE   N04  Cn2  v127
 BYTE   N11  Fs1  v078
 BYTE   N11  Cn1  v120
 BYTE   W04
 BYTE   N04  Cn2  v117
 BYTE   W04
 BYTE   Cn2  v119
 BYTE   W04
 BYTE   N06  Cn2  v127
 BYTE   N11  Fs1  v090
 BYTE   W06
 BYTE   N20  Cn2  v119
 BYTE   W06
 BYTE   N05  Cn1  v120
 BYTE   N06  Bn1  v127
 BYTE   N11  Fs1  v078
 BYTE   W06
 BYTE   Cn1  v120
 BYTE   N18  Bn1  v119
 BYTE   W06
 BYTE   N06  An1  v127
 BYTE   N11  Fs1  v090
 BYTE   W06
 BYTE   Cn1  v120
 BYTE   N20  An1  v119
 BYTE   W06
 BYTE   N06  Bn1  v127
 BYTE   N11  Fs1  v078
 BYTE   W06
 BYTE   N20  Bn1  v119
 BYTE   W06
 BYTE   N11  Cn1  v120
 BYTE   W03
 BYTE   W08
Label_8_01EA5EF2:
 BYTE   N11  Fs1  v078
 BYTE   N11  Cn1  v120
 BYTE   W12
// 050   ----------------------------------------
 BYTE   Fs1  v090
 BYTE   N23  Dn1  v127
 BYTE   W12
 BYTE   N05  Cn1  v120
 BYTE   N11  Fs1  v078
 BYTE   W06
 BYTE   Cn1  v120
 BYTE   W06
 BYTE   Fs1  v090
 BYTE   W06
 BYTE   N05  Cn1  v107
 BYTE   W06
 BYTE   N11  Fs1  v090
 BYTE   N11  Cn1  v120
 BYTE   W12
 BYTE   Fs1  v078
 BYTE   N11  Cn1  v120
 BYTE   W12
 BYTE   Fs1  v090
 BYTE   N23  Dn1  v127
 BYTE   W12
 BYTE   N05  Cn1  v120
 BYTE   N11  Fs1  v078
 BYTE   W06
 BYTE   Cn1  v120
 BYTE   W06
 BYTE   PEND 
Label_8_01EA5F2E:
 BYTE   N11  Fs1  v090
 BYTE   W06
 BYTE   N05  Cn1  v107
 BYTE   W06
// 051   ----------------------------------------
 BYTE   N11  Fs1  v090
 BYTE   N11  Cn1  v120
 BYTE   W12
 BYTE   Fs1  v078
 BYTE   N11  Cn1  v120
 BYTE   W12
 BYTE   Fs1  v090
 BYTE   N23  Dn1  v127
 BYTE   W12
 BYTE   N05  Cn1  v120
 BYTE   N11  Fs1  v078
 BYTE   W06
 BYTE   Cn1  v120
 BYTE   W06
 BYTE   Fs1  v090
 BYTE   W06
 BYTE   N05  Cn1  v107
 BYTE   W06
 BYTE   N11  Fs1  v090
 BYTE   N11  Cn1  v120
 BYTE   W12
 BYTE   Fs1  v078
 BYTE   N11  Cn1  v120
 BYTE   W12
 BYTE   PEND 
Label_8_01EA5F68:
 BYTE   N11  Fs1  v090
 BYTE   N23  Dn1  v127
 BYTE   W12
// 052   ----------------------------------------
 BYTE   N05  Cn1  v120
 BYTE   N11  Fs1  v078
 BYTE   W06
 BYTE   Cn1  v120
 BYTE   W06
 BYTE   Fs1  v090
 BYTE   W06
 BYTE   N05  Cn1  v107
 BYTE   W06
 BYTE   N11  Fs1  v090
 BYTE   N11  Cn1  v120
 BYTE   W12
 BYTE   Fs1  v078
 BYTE   N11  Cn1  v120
 BYTE   W12
 BYTE   Fs1  v090
 BYTE   N23  Dn1  v127
 BYTE   W12
 BYTE   N05  Cn1  v120
 BYTE   N11  Fs1  v078
 BYTE   W06
 BYTE   Cn1  v120
 BYTE   W06
 BYTE   Fs1  v090
 BYTE   W06
 BYTE   N05  Cn1  v107
 BYTE   W06
 BYTE   PEND 
Label_8_01EA5FA5:
 BYTE   N11  Fs1  v090
 BYTE   N11  Cn1  v120
 BYTE   W12
// 053   ----------------------------------------
 BYTE   Fs1  v078
 BYTE   N11  Cn1  v120
 BYTE   W12
 BYTE   Fs1  v090
 BYTE   N23  Dn1  v127
 BYTE   W12
 BYTE   N05  Cn1  v120
 BYTE   N11  Fs1  v078
 BYTE   W06
 BYTE   Cn1  v120
 BYTE   W06
 BYTE   Fs1  v090
 BYTE   W06
 BYTE   N05  Cn1  v107
 BYTE   W06
 BYTE   N11  Fs1  v090
 BYTE   N11  Cn1  v120
 BYTE   W12
 BYTE   Fs1  v078
 BYTE   N11  Cn1  v120
 BYTE   W12
 BYTE   Fs1  v090
 BYTE   N23  Dn1  v127
 BYTE   W12
 BYTE   PEND 
Label_8_01EA5FDD:
 BYTE   N05  Cn1  v120
 BYTE   N11  Fs1  v078
 BYTE   W06
 BYTE   Cn1  v120
 BYTE   W06
// 054   ----------------------------------------
 BYTE   Fs1  v090
 BYTE   W06
 BYTE   N05  Cn1  v107
 BYTE   W06
 BYTE   N11  Fs1  v090
 BYTE   N11  Cn1  v120
 BYTE   W12
 BYTE   Fs1  v078
 BYTE   N11  Cn1  v120
 BYTE   W12
 BYTE   Fs1  v090
 BYTE   N23  Dn1  v127
 BYTE   W12
 BYTE   N05  Cn1  v120
 BYTE   N11  Fs1  v078
 BYTE   W06
 BYTE   Cn1  v120
 BYTE   W06
 BYTE   Fs1  v090
 BYTE   W06
 BYTE   N05  Cn1  v107
 BYTE   W06
 BYTE   N11  Fs1  v090
 BYTE   N11  Cn1  v120
 BYTE   W12
 BYTE   PEND 
// 055   ----------------------------------------
 BYTE   PATT
  POIN2 Label_8_01EA5EF2
// 056   ----------------------------------------
 BYTE   PATT
  POIN2 Label_8_01EA5F2E
// 057   ----------------------------------------
 BYTE   PATT
  POIN2 Label_8_01EA5F68
// 058   ----------------------------------------
 BYTE   PATT
  POIN2 Label_8_01EA5FA5
// 059   ----------------------------------------
 BYTE   N05  Cn1  v120
 BYTE   N11  Fs1  v078
 BYTE   W06
 BYTE   Cn1  v120
 BYTE   W06
 BYTE   Fs1  v090
 BYTE   W06
 BYTE   N05  Cn1  v107
 BYTE   W06
 BYTE   N11  Fs1  v090
 BYTE   N11  Cn1  v120
 BYTE   W12
 BYTE   N06  Cn2  v127
 BYTE   N11  Cn1  v120
 BYTE   W06
 BYTE   N20  Cn2  v119
 BYTE   W06
 BYTE   N06  Bn1  v127
 BYTE   W06
 BYTE   N18  Bn1  v119
 BYTE   W06
 BYTE   N05  Cn1  v120
 BYTE   N06  An1  v127
 BYTE   W06
 BYTE   N11  Cn1  v120
 BYTE   N20  An1  v119
 BYTE   W06
 BYTE   N06  Bn1  v127
 BYTE   W06
 BYTE   N05  Cn1  v107
 BYTE   N20  Bn1  v119
 BYTE   W06
 BYTE   N11  Cn1  v120
 BYTE   W12
// 060   ----------------------------------------
 BYTE   PATT
  POIN2 Label_8_01EA5EF2
// 061   ----------------------------------------
 BYTE   PATT
  POIN2 Label_8_01EA5F2E
// 062   ----------------------------------------
 BYTE   PATT
  POIN2 Label_8_01EA5F68
// 063   ----------------------------------------
 BYTE   PATT
  POIN2 Label_8_01EA5FA5
// 064   ----------------------------------------
 BYTE   PATT
  POIN2 Label_8_01EA5FDD
// 065   ----------------------------------------
 BYTE   PATT
  POIN2 Label_8_01EA5EF2
// 066   ----------------------------------------
 BYTE   N11  Fs1  v090
 BYTE   W06
 BYTE   N05  Cn1  v107
 BYTE   W06
 BYTE   N11  Cn1  v120
 BYTE   W12
 BYTE   Fs1  v078
 BYTE   N11  Cn1  v120
 BYTE   W12
 BYTE   Fs1  v090
 BYTE   N23  Dn1  v127
 BYTE   W12
 BYTE   N05  Cn1  v120
 BYTE   N11  Fs1  v078
 BYTE   W06
 BYTE   Cn1  v120
 BYTE   W06
 BYTE   Fs1  v090
 BYTE   W06
 BYTE   Cn1  v120
 BYTE   W06
 BYTE   Fs1  v078
 BYTE   N23  Dn1  v127
 BYTE   W12
 BYTE   N11  Fs1  v090
 BYTE   N11  Cn1  v120
 BYTE   W12
// 067   ----------------------------------------
 BYTE   Fs1  v078
 BYTE   N11  Cn1  v120
 BYTE   W12
 BYTE   Fs1  v090
 BYTE   N23  Dn1  v127
 BYTE   W12
 BYTE   N05  Cn1  v120
 BYTE   N11  Fs1  v078
 BYTE   W06
 BYTE   Cn1  v120
 BYTE   W06
 BYTE   Fs1  v090
 BYTE   W06
 BYTE   Cn1  v120
 BYTE   W06
 BYTE   Fs1  v078
 BYTE   N23  Dn1  v127
 BYTE   W12
 BYTE   N11  Cn1  v120
 BYTE   W12
 BYTE   Fs1  v078
 BYTE   N11  Cn1  v120
 BYTE   W12
 BYTE   Fs1  v090
 BYTE   N23  Dn1  v127
 BYTE   W12
// 068   ----------------------------------------
 BYTE   N05  Cn1  v120
 BYTE   N11  Fs1  v078
 BYTE   W06
 BYTE   Cn1  v120
 BYTE   W06
 BYTE   Fs1  v090
 BYTE   W06
 BYTE   Cn1  v120
 BYTE   W06
 BYTE   Fs1  v078
 BYTE   N23  Dn1  v127
 BYTE   W12
 BYTE   N11  Fs1  v090
 BYTE   N11  Cn1  v120
 BYTE   W12
 BYTE   Fs1  v078
 BYTE   N11  Cn1  v120
 BYTE   W12
 BYTE   Fs1  v090
 BYTE   N23  Dn1  v127
 BYTE   W12
 BYTE   N05  Cn1  v120
 BYTE   N11  Fs1  v078
 BYTE   W06
 BYTE   Cn1  v120
 BYTE   W05
 BYTE   W01
 BYTE   N11  Fs1  v090
 BYTE   N11  Dn1  v127
 BYTE   W12
// 069   ----------------------------------------
 BYTE   Fs1  v078
 BYTE   N23  Dn1  v127
 BYTE   W12
 BYTE   N06  Cn2
 BYTE   N11  Fs1  v090
 BYTE   W06
 BYTE   N06  Cn2  v119
 BYTE   W06
 BYTE   N05  Cn2  v127
 BYTE   N11  Fs1  v078
 BYTE   W12
 BYTE   Dn1  v127
 BYTE   W12
 BYTE   N17
 BYTE   W09
 BYTE   W02
 BYTE   W06
 BYTE   N05  Dn1  v127
 BYTE   W03
 BYTE   W02
 BYTE   N05  Dn1  v127
 BYTE   W03
 BYTE   W02
 BYTE   N05  Dn1  v127
 BYTE   W06
 BYTE   N11
 BYTE   W12
 BYTE   N04  Bn1
 BYTE   W04
// 070   ----------------------------------------
 BYTE   Bn1  v119
 BYTE   W04
 BYTE   N16  Bn1  v121
 BYTE   W04
 BYTE   N06  An1  v127
 BYTE   W06
 BYTE   N05  An1  v119
 BYTE   W06
 BYTE   N06  Bn1  v127
 BYTE   W06
 BYTE   N05  Bn1  v119
 BYTE   GoTo
  POIN2 Label_8_01EA597C
 BYTE   FINE

//**************** Track 10 (Midi-Chn.9) ****************//

CastlevaniaPoRBloodlinesBequeathedRSflame_010:
// 000   ----------------------------------------
Label_9_01EA2E08:
 BYTE   KEYSH   CastlevaniaPoRBloodlinesBequeathedRSflame_key+0
 BYTE   VOICE   73
 BYTE   VOL   45*CastlevaniaPoRBloodlinesBequeathedRSflame_mvl/mxv
 BYTE   PAN   c_v+51
 BYTE   TEMPO   140*CastlevaniaPoRBloodlinesBequeathedRSflame_tbs/2
 BYTE   W96
// 001   ----------------------------------------
 BYTE   W96
// 002   ----------------------------------------
 BYTE   W96
// 003   ----------------------------------------
 BYTE   N09  As5  v070
 BYTE   W04
 BYTE   Gn5
 BYTE   W04
 BYTE   Fn5
 BYTE   W04
 BYTE   Dn5
 BYTE   W04
 BYTE   Cn5
 BYTE   W04
 BYTE   As4
 BYTE   W04
 BYTE   Gn4
 BYTE   W04
 BYTE   Fn4
 BYTE   W04
 BYTE   Dn4
 BYTE   W04
 BYTE   Cn4
 BYTE   W04
 BYTE   As3
 BYTE   W04
 BYTE   Gn3
 BYTE   W04
 BYTE   N11  Fn3
 BYTE   W06
 BYTE   Fn4
 BYTE   W06
 BYTE   Gn3
 BYTE   W06
 BYTE   Gn4
 BYTE   W06
 BYTE   As3
 BYTE   W06
 BYTE   As4
 BYTE   W06
 BYTE   Gn3
 BYTE   W06
 BYTE   Gn4
 BYTE   W96
// 004   ----------------------------------------
 BYTE   W96
// 005   ----------------------------------------
 BYTE   W96
// 006   ----------------------------------------
 BYTE   W96
// 007   ----------------------------------------
 BYTE   W96
// 008   ----------------------------------------
 BYTE   W96
// 009   ----------------------------------------
 BYTE   W96
// 010   ----------------------------------------
 BYTE   W96
// 011   ----------------------------------------
 BYTE   W96
// 012   ----------------------------------------
 BYTE   W96
// 013   ----------------------------------------
 BYTE   W96
// 014   ----------------------------------------
 BYTE   W96
// 015   ----------------------------------------
 BYTE   W96
// 016   ----------------------------------------
 BYTE   W96
// 017   ----------------------------------------
 BYTE   W96
// 018   ----------------------------------------
 BYTE   W96
// 019   ----------------------------------------
 BYTE   W96
// 020   ----------------------------------------
 BYTE   W96
// 021   ----------------------------------------
 BYTE   W96
// 022   ----------------------------------------
 BYTE   W96
// 023   ----------------------------------------
 BYTE   W60
 BYTE   Fn4  v090
 BYTE   W06
 BYTE   Gs4
 BYTE   W06
 BYTE   Cs5
 BYTE   W06
 BYTE   Fn5
 BYTE   W06
 BYTE   Cs5
 BYTE   W06
 BYTE   Gs4
 BYTE   W06
// 024   ----------------------------------------
 BYTE   Fn4
 BYTE   W96
// 025   ----------------------------------------
 BYTE   W96
// 026   ----------------------------------------
 BYTE   W54
 BYTE   N09  Cs3
 BYTE   W06
 BYTE   Fs3
 BYTE   W06
 BYTE   As3
 BYTE   W06
 BYTE   Cs4
 BYTE   W06
 BYTE   Fs4
 BYTE   W06
 BYTE   Cs4
 BYTE   W06
 BYTE   As3
 BYTE   W06
// 027   ----------------------------------------
 BYTE   Fs3
 BYTE   W96
// 028   ----------------------------------------
 BYTE   W96
// 029   ----------------------------------------
 BYTE   W96
// 030   ----------------------------------------
 BYTE   W96
// 031   ----------------------------------------
 BYTE   W96
// 032   ----------------------------------------
 BYTE   W96
// 033   ----------------------------------------
 BYTE   W96
// 034   ----------------------------------------
 BYTE   W96
// 035   ----------------------------------------
 BYTE   W96
// 036   ----------------------------------------
 BYTE   W96
// 037   ----------------------------------------
 BYTE   W96
// 038   ----------------------------------------
 BYTE   W96
// 039   ----------------------------------------
 BYTE   W96
// 040   ----------------------------------------
 BYTE   W96
// 041   ----------------------------------------
 BYTE   W96
// 042   ----------------------------------------
 BYTE   W96
// 043   ----------------------------------------
 BYTE   W05
 BYTE   W18
 BYTE   W96
// 044   ----------------------------------------
 BYTE   W96
// 045   ----------------------------------------
 BYTE   W36
 BYTE   N11  Fn4  v090
 BYTE   W06
 BYTE   Gs4
 BYTE   W06
 BYTE   Cs5
 BYTE   W06
 BYTE   Fn5
 BYTE   W06
 BYTE   Cs5
 BYTE   W06
 BYTE   Gs4
 BYTE   W06
 BYTE   Fn4
 BYTE   W96
// 046   ----------------------------------------
 BYTE   W78
 BYTE   W72
// 047   ----------------------------------------
 BYTE   N09  Cs3  v090
 BYTE   W06
 BYTE   Fs3
 BYTE   W06
 BYTE   As3
 BYTE   W06
 BYTE   Cs4
 BYTE   W06
 BYTE   Fs4
 BYTE   W06
 BYTE   Cs4
 BYTE   W06
 BYTE   As3
 BYTE   W06
 BYTE   Fs3
 BYTE   W09
 BYTE   W96
// 048   ----------------------------------------
 BYTE   W96
// 049   ----------------------------------------
 BYTE   W96
// 050   ----------------------------------------
 BYTE   W96
// 051   ----------------------------------------
 BYTE   W96
// 052   ----------------------------------------
 BYTE   W96
// 053   ----------------------------------------
 BYTE   W96
// 054   ----------------------------------------
 BYTE   W96
// 055   ----------------------------------------
 BYTE   W96
// 056   ----------------------------------------
 BYTE   W96
// 057   ----------------------------------------
 BYTE   W96
// 058   ----------------------------------------
 BYTE   W96
// 059   ----------------------------------------
 BYTE   W96
// 060   ----------------------------------------
 BYTE   W96
// 061   ----------------------------------------
 BYTE   W96
// 062   ----------------------------------------
 BYTE   W96
// 063   ----------------------------------------
 BYTE   W96
// 064   ----------------------------------------
 BYTE   W96
// 065   ----------------------------------------
 BYTE   W90
 BYTE   W01
 BYTE   W68
// 066   ----------------------------------------
 BYTE   W02
 BYTE   W02
 BYTE   W06
 BYTE   W03
 BYTE   W02
 BYTE   W03
 BYTE   W48
 BYTE   W02
 BYTE   GoTo
  POIN2 Label_9_01EA2E08
 BYTE   FINE

//**************** Track 11 (Midi-Chn.10) ****************//

CastlevaniaPoRBloodlinesBequeathedRSflame_011:
// 000   ----------------------------------------
Label_10_01EA5140:
 BYTE   KEYSH   CastlevaniaPoRBloodlinesBequeathedRSflame_key+0
 BYTE   VOICE   28
 BYTE   VOL   45*CastlevaniaPoRBloodlinesBequeathedRSflame_mvl/mxv
 BYTE   PAN   c_v-34
 BYTE   N05  As2  v090
 BYTE   TEMPO   140*CastlevaniaPoRBloodlinesBequeathedRSflame_tbs/2
 BYTE   W06
 BYTE   N05  Cn3  v100
 BYTE   W06
 BYTE   Cn3  v080
 BYTE   W06
 BYTE   N04  Cn3  v100
 BYTE   W06
 BYTE   N05  Cn3  v107
 BYTE   W12
 BYTE   N04  Gn2
 BYTE   W06
 BYTE   N05  Gn2  v080
 BYTE   W06
 BYTE   PAN   c_v+26
 BYTE   N05  As2  v080
 BYTE   W06
 BYTE   Cn3  v100
 BYTE   W06
 BYTE   Cn3  v080
 BYTE   W06
 BYTE   N04  Cn3  v100
 BYTE   W06
 BYTE   Cn3  v107
 BYTE   W06
 BYTE   N05  Cn3  v080
 BYTE   W06
 BYTE   N04  As2  v107
 BYTE   W06
 BYTE   N05  As2  v080
 BYTE   W06
// 001   ----------------------------------------
 BYTE   PAN   c_v-34
 BYTE   N05  As2  v107
 BYTE   W06
 BYTE   Cn3  v080
 BYTE   W06
 BYTE   Cn3  v100
 BYTE   W06
 BYTE   Cn3
 BYTE   W06
 BYTE   PAN   c_v+26
 BYTE   N05  Gn3  v080
 BYTE   W06
 BYTE   Cn3  v100
 BYTE   W06
 BYTE   Cn3  v080
 BYTE   W06
 BYTE   Cn3  v100
 BYTE   W06
 BYTE   PAN   c_v-34
 BYTE   N05  Dn3  v080
 BYTE   W06
 BYTE   As2  v100
 BYTE   W12
 BYTE   Cn3  v080
 BYTE   W12
 BYTE   Cn3  v107
 BYTE   W06
 BYTE   N04  Gn2  v080
 BYTE   W06
 BYTE   N05  Gn2  v107
 BYTE   W06
// 002   ----------------------------------------
 BYTE   As2  v080
 BYTE   W06
 BYTE   Cn3  v100
 BYTE   W06
 BYTE   Cn3  v080
 BYTE   W06
 BYTE   N04  Cn3  v100
 BYTE   W06
 BYTE   N05  Cn3  v080
 BYTE   W12
 BYTE   N04  Gn2  v107
 BYTE   W06
 BYTE   N05  Gn2  v080
 BYTE   W06
 BYTE   PAN   c_v+26
 BYTE   N05  As2  v107
 BYTE   W06
 BYTE   Cn3  v080
 BYTE   W06
 BYTE   Cn3  v100
 BYTE   W06
 BYTE   N04  Cn3  v080
 BYTE   W06
 BYTE   Cn3  v107
 BYTE   W06
 BYTE   N05  Cn3  v080
 BYTE   W06
 BYTE   N04  Gn2  v107
 BYTE   W06
 BYTE   N05  Gn2  v080
 BYTE   W96
// 003   ----------------------------------------
 BYTE   W30
 BYTE   N14  Fn3  v097
 BYTE   N14  Gn3
 BYTE   N14  Cn3
 BYTE   W24
 BYTE   N05  Fn3
 BYTE   N05  Gn3
 BYTE   N05  Cn3
 BYTE   W06
 BYTE   Cn3  v083
 BYTE   N05  Fn3
 BYTE   N05  Gn3
 BYTE   W06
 BYTE   Gn3
 BYTE   N05  Cn3
 BYTE   N05  Fn3
 BYTE   W06
 BYTE   Fn3  v097
 BYTE   N05  Cn3
 BYTE   N05  Gn3
 BYTE   W12
 BYTE   Fn3  v083
 BYTE   N05  Gn3
 BYTE   N05  Cn3
 BYTE   W06
 BYTE   N16  Fn3  v097
 BYTE   N16  Cn3
 BYTE   N16  Gn3
 BYTE   W36
// 004   ----------------------------------------
 BYTE   N14  Fn3
 BYTE   N14  Gn3
 BYTE   N14  Cn3
 BYTE   W24
 BYTE   N05  Fn3
 BYTE   N05  Gn3
 BYTE   N05  Cn3
 BYTE   W06
 BYTE   Cn3  v083
 BYTE   N05  Fn3
 BYTE   N05  Gn3
 BYTE   W06
 BYTE   Gn3
 BYTE   N05  Cn3
 BYTE   N05  Fn3
 BYTE   W06
 BYTE   Fn3  v097
 BYTE   N05  Cn3
 BYTE   N05  Gn3
 BYTE   W12
 BYTE   Fn3  v083
 BYTE   N05  Gn3
 BYTE   N05  Cn3
 BYTE   W06
 BYTE   N16  Fn3  v097
 BYTE   N16  Cn3
 BYTE   N16  Gn3
 BYTE   W36
// 005   ----------------------------------------
Label_10_01EA5253:
 BYTE   N16  Gn3  v088
 BYTE   W24
 BYTE   N05
 BYTE   W06
 BYTE   Gn3  v074
 BYTE   W06
 BYTE   Gn3
 BYTE   W06
 BYTE   Gn3  v088
 BYTE   W12
 BYTE   Gn3  v074
 BYTE   W06
 BYTE   N11  Gn3  v088
 BYTE   W36
 BYTE   PEND 
// 006   ----------------------------------------
 BYTE   PATT
  POIN2 Label_10_01EA5253
// 007   ----------------------------------------
 BYTE   PATT
  POIN2 Label_10_01EA5253
// 008   ----------------------------------------
 BYTE   PATT
  POIN2 Label_10_01EA5253
// 009   ----------------------------------------
 BYTE   PATT
  POIN2 Label_10_01EA5253
// 010   ----------------------------------------
 BYTE   PATT
  POIN2 Label_10_01EA5253
// 011   ----------------------------------------
 BYTE   PATT
  POIN2 Label_10_01EA5253
// 012   ----------------------------------------
 BYTE   PATT
  POIN2 Label_10_01EA5253
// 013   ----------------------------------------
 BYTE   PATT
  POIN2 Label_10_01EA5253
// 014   ----------------------------------------
 BYTE   PATT
  POIN2 Label_10_01EA5253
// 015   ----------------------------------------
Label_10_01EA5296:
 BYTE   N16  Dn3  v088
 BYTE   W24
 BYTE   N05
 BYTE   W06
 BYTE   Dn3  v074
 BYTE   W06
 BYTE   Dn3
 BYTE   W06
 BYTE   Dn3  v088
 BYTE   W12
 BYTE   Dn3  v074
 BYTE   W06
 BYTE   N11  Dn3  v088
 BYTE   W36
 BYTE   PEND 
// 016   ----------------------------------------
Label_10_01EA52AC:
 BYTE   N16  Ds3  v088
 BYTE   W24
 BYTE   N05
 BYTE   W06
 BYTE   Ds3  v074
 BYTE   W06
 BYTE   Ds3
 BYTE   W06
 BYTE   Ds3  v088
 BYTE   W12
 BYTE   Ds3  v074
 BYTE   W06
 BYTE   N11  Ds3  v088
 BYTE   W36
 BYTE   PEND 
// 017   ----------------------------------------
 BYTE   PATT
  POIN2 Label_10_01EA5253
// 018   ----------------------------------------
Label_10_01EA52C7:
 BYTE   N16  Gn3  v088
 BYTE   W24
 BYTE   N05  Fn3
 BYTE   W06
 BYTE   Fn3  v074
 BYTE   W06
 BYTE   Fn3
 BYTE   W06
 BYTE   Fn3  v088
 BYTE   W12
 BYTE   Fn3  v074
 BYTE   W06
 BYTE   N11  Fn3  v088
 BYTE   W36
 BYTE   PEND 
// 019   ----------------------------------------
 BYTE   PATT
  POIN2 Label_10_01EA5253
// 020   ----------------------------------------
 BYTE   N16  Gn3  v088
 BYTE   W24
 BYTE   N05
 BYTE   W06
 BYTE   Gn3  v074
 BYTE   W06
 BYTE   Gn3
 BYTE   W06
 BYTE   Gn3  v088
 BYTE   W12
 BYTE   Gn3  v074
 BYTE   W06
 BYTE   N11  Gn3  v088
 BYTE   W96
// 021   ----------------------------------------
 BYTE   W96
// 022   ----------------------------------------
 BYTE   W96
// 023   ----------------------------------------
 BYTE   W96
// 024   ----------------------------------------
 BYTE   W96
// 025   ----------------------------------------
 BYTE   W96
// 026   ----------------------------------------
 BYTE   W36
// 027   ----------------------------------------
 BYTE   PATT
  POIN2 Label_10_01EA5253
// 028   ----------------------------------------
 BYTE   PATT
  POIN2 Label_10_01EA5253
// 029   ----------------------------------------
 BYTE   PATT
  POIN2 Label_10_01EA5253
// 030   ----------------------------------------
 BYTE   PATT
  POIN2 Label_10_01EA5253
// 031   ----------------------------------------
 BYTE   PATT
  POIN2 Label_10_01EA5253
// 032   ----------------------------------------
 BYTE   PATT
  POIN2 Label_10_01EA5253
// 033   ----------------------------------------
 BYTE   PATT
  POIN2 Label_10_01EA5253
// 034   ----------------------------------------
 BYTE   PATT
  POIN2 Label_10_01EA5253
// 035   ----------------------------------------
 BYTE   PATT
  POIN2 Label_10_01EA5253
// 036   ----------------------------------------
 BYTE   PATT
  POIN2 Label_10_01EA5253
// 037   ----------------------------------------
 BYTE   PATT
  POIN2 Label_10_01EA5296
// 038   ----------------------------------------
 BYTE   PATT
  POIN2 Label_10_01EA52AC
// 039   ----------------------------------------
 BYTE   PATT
  POIN2 Label_10_01EA5253
// 040   ----------------------------------------
 BYTE   PATT
  POIN2 Label_10_01EA52C7
// 041   ----------------------------------------
 BYTE   PATT
  POIN2 Label_10_01EA5253
// 042   ----------------------------------------
 BYTE   N16  Gn3  v088
 BYTE   W24
 BYTE   N05
 BYTE   W06
 BYTE   Gn3  v074
 BYTE   W06
 BYTE   Gn3
 BYTE   W06
 BYTE   Gn3  v088
 BYTE   W12
 BYTE   Gn3  v074
 BYTE   W06
 BYTE   N11  Gn3  v088
 BYTE   W11
 BYTE   W18
 BYTE   W96
// 043   ----------------------------------------
 BYTE   W96
// 044   ----------------------------------------
 BYTE   W96
// 045   ----------------------------------------
 BYTE   W96
// 046   ----------------------------------------
 BYTE   W54
 BYTE   W96
// 047   ----------------------------------------
 BYTE   W24
 BYTE   W03
 BYTE   W96
// 048   ----------------------------------------
 BYTE   W96
// 049   ----------------------------------------
 BYTE   W96
// 050   ----------------------------------------
 BYTE   W96
// 051   ----------------------------------------
 BYTE   W96
// 052   ----------------------------------------
 BYTE   W96
// 053   ----------------------------------------
 BYTE   W96
// 054   ----------------------------------------
 BYTE   W96
// 055   ----------------------------------------
 BYTE   W96
// 056   ----------------------------------------
 BYTE   W96
// 057   ----------------------------------------
 BYTE   W96
// 058   ----------------------------------------
 BYTE   W96
// 059   ----------------------------------------
 BYTE   W96
// 060   ----------------------------------------
 BYTE   W96
// 061   ----------------------------------------
 BYTE   W96
// 062   ----------------------------------------
 BYTE   W96
// 063   ----------------------------------------
 BYTE   W96
// 064   ----------------------------------------
 BYTE   W96
// 065   ----------------------------------------
 BYTE   W90
 BYTE   W01
 BYTE   W68
// 066   ----------------------------------------
 BYTE   W02
 BYTE   W02
 BYTE   W06
 BYTE   W03
 BYTE   W02
 BYTE   W03
 BYTE   W48
 BYTE   W02
 BYTE   GoTo
  POIN2 Label_10_01EA5140
 BYTE   FINE

//**************** Track 12 (Midi-Chn.11) ****************//

CastlevaniaPoRBloodlinesBequeathedRSflame_012:
// 000   ----------------------------------------
Label_11_01EA4408:
 BYTE   KEYSH   CastlevaniaPoRBloodlinesBequeathedRSflame_key+0
 BYTE   VOICE   28
 BYTE   VOL   45*CastlevaniaPoRBloodlinesBequeathedRSflame_mvl/mxv
 BYTE   PAN   c_v+26
 BYTE   N05  Cn3  v070
 BYTE   TEMPO   140*CastlevaniaPoRBloodlinesBequeathedRSflame_tbs/2
 BYTE   W06
 BYTE   N04  Gn2  v077
 BYTE   W06
 BYTE   N05  Gn2  v070
 BYTE   W06
 BYTE   As2  v077
 BYTE   W06
 BYTE   Cn3  v070
 BYTE   W06
 BYTE   Cn3
 BYTE   W06
 BYTE   N04
 BYTE   W06
 BYTE   N05  Cn3  v077
 BYTE   W12
 BYTE   N04  Gn2
 BYTE   W06
 BYTE   N05  Gn2  v070
 BYTE   W06
 BYTE   PAN   c_v-34
 BYTE   N05  As2  v077
 BYTE   W06
 BYTE   Cn3  v070
 BYTE   W06
 BYTE   Cn3
 BYTE   W06
 BYTE   N04
 BYTE   W06
 BYTE   Cn3  v077
 BYTE   W06
// 001   ----------------------------------------
 BYTE   N05  Cn3  v070
 BYTE   W06
 BYTE   N04  As2  v077
 BYTE   W06
 BYTE   N05  As2  v070
 BYTE   W06
 BYTE   PAN   c_v+26
 BYTE   N05  As2  v077
 BYTE   W06
 BYTE   Cn3  v070
 BYTE   W06
 BYTE   Cn3
 BYTE   W06
 BYTE   Cn3
 BYTE   W06
 BYTE   PAN   c_v-34
 BYTE   N05  Gn3  v077
 BYTE   W06
 BYTE   Cn3  v070
 BYTE   W06
 BYTE   Cn3
 BYTE   W06
 BYTE   Cn3
 BYTE   W06
 BYTE   PAN   c_v+26
 BYTE   N05  Dn3  v077
 BYTE   W06
 BYTE   As2  v070
 BYTE   W12
 BYTE   Cn3  v077
 BYTE   W12
// 002   ----------------------------------------
 BYTE   Cn3
 BYTE   W06
 BYTE   N04  Gn2
 BYTE   W06
 BYTE   N05
 BYTE   W06
 BYTE   PAN   c_v-34
 BYTE   N05  As2  v077
 BYTE   W06
 BYTE   Cn3  v070
 BYTE   W06
 BYTE   Cn3
 BYTE   W06
 BYTE   N04
 BYTE   W06
 BYTE   N05  Cn3  v077
 BYTE   W12
 BYTE   N04  Gn2
 BYTE   W06
 BYTE   N05  Gn2  v070
 BYTE   W06
 BYTE   PAN   c_v+26
 BYTE   N05  As2  v077
 BYTE   W06
 BYTE   Cn3  v070
 BYTE   W06
 BYTE   Cn3
 BYTE   W06
 BYTE   N04
 BYTE   W06
 BYTE   Cn3  v077
 BYTE   W96
// 003   ----------------------------------------
 BYTE   W44
 BYTE   W03
 BYTE   PAN   c_v+63
 BYTE   N14  Fn3  v067
 BYTE   N14  Gn3
 BYTE   W24
 BYTE   N05  Fn3
 BYTE   N05  Gn3
 BYTE   W06
 BYTE   Fn3  v053
 BYTE   N05  Gn3
 BYTE   W06
 BYTE   Gn3
 BYTE   N05  Fn3
 BYTE   W06
 BYTE   Fn3  v067
 BYTE   N05  Gn3
 BYTE   W12
// 004   ----------------------------------------
 BYTE   Fn3  v053
 BYTE   N05  Gn3
 BYTE   W06
 BYTE   N16  Fn3  v067
 BYTE   N16  Gn3
 BYTE   W36
 BYTE   N14  Fn3
 BYTE   N14  Gn3
 BYTE   W24
 BYTE   N05  Fn3
 BYTE   N05  Gn3
 BYTE   W06
 BYTE   Fn3  v053
 BYTE   N05  Gn3
 BYTE   W06
 BYTE   Gn3
 BYTE   N05  Fn3
 BYTE   W06
 BYTE   Fn3  v067
 BYTE   N05  Gn3
 BYTE   W12
// 005   ----------------------------------------
 BYTE   Fn3  v053
 BYTE   N05  Gn3
 BYTE   W06
 BYTE   N16  Fn3  v067
 BYTE   N16  Gn3
 BYTE   W36
 BYTE   Gn3  v058
 BYTE   W24
 BYTE   N05
 BYTE   W06
 BYTE   Gn3  v044
 BYTE   W06
 BYTE   Gn3
 BYTE   W06
 BYTE   Gn3  v058
 BYTE   W12
// 006   ----------------------------------------
 BYTE   Gn3  v044
 BYTE   W06
 BYTE   N11  Gn3  v058
 BYTE   W36
 BYTE   N16
 BYTE   W24
 BYTE   N05
 BYTE   W06
 BYTE   Gn3  v044
 BYTE   W06
 BYTE   Gn3
 BYTE   W06
 BYTE   Gn3  v058
 BYTE   W12
// 007   ----------------------------------------
 BYTE   Gn3  v044
 BYTE   W06
 BYTE   N11  Gn3  v058
 BYTE   W36
 BYTE   N16
 BYTE   W24
 BYTE   N05
 BYTE   W06
 BYTE   Gn3  v044
 BYTE   W06
 BYTE   Gn3
 BYTE   W06
 BYTE   Gn3  v058
 BYTE   W12
// 008   ----------------------------------------
 BYTE   Gn3  v044
 BYTE   W06
 BYTE   N11  Gn3  v058
 BYTE   W36
 BYTE   N16
 BYTE   W24
 BYTE   N05
 BYTE   W06
 BYTE   Gn3  v044
 BYTE   W06
 BYTE   Gn3
 BYTE   W06
Label_11_01EA4532:
 BYTE   N05  Gn3  v058
 BYTE   W12
// 009   ----------------------------------------
 BYTE   Gn3  v044
 BYTE   W06
 BYTE   N11  Gn3  v058
 BYTE   W36
 BYTE   N16
 BYTE   W24
 BYTE   N05
 BYTE   W06
 BYTE   Gn3  v044
 BYTE   W06
 BYTE   Gn3
 BYTE   W06
 BYTE   PEND 
// 010   ----------------------------------------
 BYTE   PATT
  POIN2 Label_11_01EA4532
// 011   ----------------------------------------
 BYTE   PATT
  POIN2 Label_11_01EA4532
// 012   ----------------------------------------
 BYTE   PATT
  POIN2 Label_11_01EA4532
// 013   ----------------------------------------
 BYTE   PATT
  POIN2 Label_11_01EA4532
// 014   ----------------------------------------
 BYTE   PATT
  POIN2 Label_11_01EA4532
// 015   ----------------------------------------
 BYTE   N05  Gn3  v058
 BYTE   W12
 BYTE   Gn3  v044
 BYTE   W06
 BYTE   N11  Gn3  v058
 BYTE   W36
 BYTE   N16  Dn3
 BYTE   W24
 BYTE   N05
 BYTE   W06
 BYTE   Dn3  v044
 BYTE   W06
 BYTE   Dn3
 BYTE   W06
// 016   ----------------------------------------
 BYTE   Dn3  v058
 BYTE   W12
 BYTE   Dn3  v044
 BYTE   W06
 BYTE   N11  Dn3  v058
 BYTE   W36
 BYTE   N16  Ds3
 BYTE   W24
 BYTE   N05
 BYTE   W06
 BYTE   Ds3  v044
 BYTE   W06
 BYTE   Ds3
 BYTE   W06
// 017   ----------------------------------------
 BYTE   Ds3  v058
 BYTE   W12
 BYTE   Ds3  v044
 BYTE   W06
 BYTE   N11  Ds3  v058
 BYTE   W36
 BYTE   N16  Gn3
 BYTE   W24
 BYTE   N05
 BYTE   W06
 BYTE   Gn3  v044
 BYTE   W06
 BYTE   Gn3
 BYTE   W06
// 018   ----------------------------------------
 BYTE   Gn3  v058
 BYTE   W12
 BYTE   Gn3  v044
 BYTE   W06
 BYTE   N11  Gn3  v058
 BYTE   W36
 BYTE   N16
 BYTE   W24
 BYTE   N05  Fn3
 BYTE   W06
 BYTE   Fn3  v044
 BYTE   W06
 BYTE   Fn3
 BYTE   W06
// 019   ----------------------------------------
 BYTE   Fn3  v058
 BYTE   W12
 BYTE   Fn3  v044
 BYTE   W06
 BYTE   N11  Fn3  v058
 BYTE   W36
 BYTE   N16  Gn3
 BYTE   W24
 BYTE   N05
 BYTE   W06
 BYTE   Gn3  v044
 BYTE   W06
 BYTE   Gn3
 BYTE   W06
// 020   ----------------------------------------
 BYTE   PATT
  POIN2 Label_11_01EA4532
// 021   ----------------------------------------
 BYTE   N05  Gn3  v058
 BYTE   W12
 BYTE   Gn3  v044
 BYTE   W06
 BYTE   N11  Gn3  v058
 BYTE   W96
// 022   ----------------------------------------
 BYTE   W96
// 023   ----------------------------------------
 BYTE   W96
// 024   ----------------------------------------
 BYTE   W96
// 025   ----------------------------------------
 BYTE   W96
// 026   ----------------------------------------
 BYTE   W96
// 027   ----------------------------------------
 BYTE   W36
Label_11_01EA45DB:
 BYTE   N16  Gn3  v058
 BYTE   W24
 BYTE   N05
 BYTE   W06
 BYTE   Gn3  v044
 BYTE   W06
 BYTE   Gn3
 BYTE   W06
 BYTE   Gn3  v058
 BYTE   W12
 BYTE   Gn3  v044
 BYTE   W06
// 028   ----------------------------------------
 BYTE   N11  Gn3  v058
 BYTE   W36
 BYTE   PEND 
// 029   ----------------------------------------
 BYTE   PATT
  POIN2 Label_11_01EA45DB
// 030   ----------------------------------------
 BYTE   PATT
  POIN2 Label_11_01EA45DB
// 031   ----------------------------------------
 BYTE   PATT
  POIN2 Label_11_01EA45DB
// 032   ----------------------------------------
 BYTE   PATT
  POIN2 Label_11_01EA45DB
// 033   ----------------------------------------
 BYTE   PATT
  POIN2 Label_11_01EA45DB
// 034   ----------------------------------------
 BYTE   PATT
  POIN2 Label_11_01EA45DB
// 035   ----------------------------------------
 BYTE   PATT
  POIN2 Label_11_01EA45DB
// 036   ----------------------------------------
 BYTE   PATT
  POIN2 Label_11_01EA45DB
// 037   ----------------------------------------
 BYTE   PATT
  POIN2 Label_11_01EA45DB
// 038   ----------------------------------------
 BYTE   N16  Dn3  v058
 BYTE   W24
 BYTE   N05
 BYTE   W06
 BYTE   Dn3  v044
 BYTE   W06
 BYTE   Dn3
 BYTE   W06
 BYTE   Dn3  v058
 BYTE   W12
 BYTE   Dn3  v044
 BYTE   W06
 BYTE   N11  Dn3  v058
 BYTE   W36
// 039   ----------------------------------------
 BYTE   N16  Ds3
 BYTE   W24
 BYTE   N05
 BYTE   W06
 BYTE   Ds3  v044
 BYTE   W06
 BYTE   Ds3
 BYTE   W06
 BYTE   Ds3  v058
 BYTE   W12
 BYTE   Ds3  v044
 BYTE   W06
 BYTE   N11  Ds3  v058
 BYTE   W36
// 040   ----------------------------------------
 BYTE   PATT
  POIN2 Label_11_01EA45DB
// 041   ----------------------------------------
 BYTE   N16  Gn3  v058
 BYTE   W24
 BYTE   N05  Fn3
 BYTE   W06
 BYTE   Fn3  v044
 BYTE   W06
 BYTE   Fn3
 BYTE   W06
 BYTE   Fn3  v058
 BYTE   W12
 BYTE   Fn3  v044
 BYTE   W06
 BYTE   N11  Fn3  v058
 BYTE   W36
// 042   ----------------------------------------
 BYTE   PATT
  POIN2 Label_11_01EA45DB
// 043   ----------------------------------------
 BYTE   N16  Gn3  v058
 BYTE   W24
 BYTE   N05
 BYTE   W06
 BYTE   Gn3  v044
 BYTE   W06
 BYTE   Gn3
 BYTE   W06
 BYTE   Gn3  v058
 BYTE   W11
 BYTE   N05  Gn3  v044
 BYTE   W06
 BYTE   N11  Gn3  v058
 BYTE   W11
 BYTE   W96
// 044   ----------------------------------------
 BYTE   W96
// 045   ----------------------------------------
 BYTE   W96
// 046   ----------------------------------------
 BYTE   W96
// 047   ----------------------------------------
 BYTE   W54
 BYTE   W96
// 048   ----------------------------------------
 BYTE   W24
 BYTE   W03
 BYTE   W96
// 049   ----------------------------------------
 BYTE   W96
// 050   ----------------------------------------
 BYTE   W96
// 051   ----------------------------------------
 BYTE   W96
// 052   ----------------------------------------
 BYTE   W96
// 053   ----------------------------------------
 BYTE   W96
// 054   ----------------------------------------
 BYTE   W96
// 055   ----------------------------------------
 BYTE   W96
// 056   ----------------------------------------
 BYTE   W96
// 057   ----------------------------------------
 BYTE   W96
// 058   ----------------------------------------
 BYTE   W96
// 059   ----------------------------------------
 BYTE   W96
// 060   ----------------------------------------
 BYTE   W96
// 061   ----------------------------------------
 BYTE   W96
// 062   ----------------------------------------
 BYTE   W96
// 063   ----------------------------------------
 BYTE   W96
// 064   ----------------------------------------
 BYTE   W96
// 065   ----------------------------------------
 BYTE   W96
// 066   ----------------------------------------
 BYTE   W90
 BYTE   W01
 BYTE   W68
// 067   ----------------------------------------
 BYTE   W02
 BYTE   W02
 BYTE   W06
 BYTE   W03
 BYTE   W02
 BYTE   W03
 BYTE   W48
 BYTE   W02
 BYTE   GoTo
  POIN2 Label_11_01EA4408
 BYTE   FINE

//**************** Track 13 (Midi-Chn.12) ****************//

CastlevaniaPoRBloodlinesBequeathedRSflame_013:
// 000   ----------------------------------------
Label_12_01EA4218:
 BYTE   KEYSH   CastlevaniaPoRBloodlinesBequeathedRSflame_key+0
 BYTE   VOICE   52
 BYTE   VOL   45*CastlevaniaPoRBloodlinesBequeathedRSflame_mvl/mxv
 BYTE   PAN   c_v+0
 BYTE   TEMPO   140*CastlevaniaPoRBloodlinesBequeathedRSflame_tbs/2
 BYTE   W96
// 001   ----------------------------------------
 BYTE   W96
// 002   ----------------------------------------
 BYTE   W96
// 003   ----------------------------------------
 BYTE   W96
// 004   ----------------------------------------
 BYTE   W96
// 005   ----------------------------------------
 BYTE   W96
// 006   ----------------------------------------
 BYTE   W96
// 007   ----------------------------------------
 BYTE   W96
// 008   ----------------------------------------
 BYTE   W96
// 009   ----------------------------------------
 BYTE   W96
// 010   ----------------------------------------
 BYTE   W96
// 011   ----------------------------------------
 BYTE   W96
// 012   ----------------------------------------
 BYTE   W96
// 013   ----------------------------------------
 BYTE   W96
// 014   ----------------------------------------
 BYTE   W96
// 015   ----------------------------------------
 BYTE   W96
// 016   ----------------------------------------
 BYTE   W96
// 017   ----------------------------------------
 BYTE   W96
// 018   ----------------------------------------
 BYTE   W96
// 019   ----------------------------------------
 BYTE   W96
// 020   ----------------------------------------
 BYTE   W96
// 021   ----------------------------------------
 BYTE   W96
// 022   ----------------------------------------
 BYTE   N96  Cn3  v106
 BYTE   N96  Cn1
 BYTE   W48
 BYTE   Cn3
 BYTE   N96  Cn1
 BYTE   W48
// 023   ----------------------------------------
Label_12_01EA4242:
 BYTE   N44  Cn3  v106
 BYTE   N44  Cn1
 BYTE   W22
 BYTE   N03  Cn3
 BYTE   N03  Cn1
 BYTE   W96
// 024   ----------------------------------------
 BYTE   W24
 BYTE   W02
 BYTE   PEND 
Label_12_01EA4250:
 BYTE   N44  Cs3  v106
 BYTE   N44  Cs1
 BYTE   W22
 BYTE   N03  Cs3
 BYTE   N03  Cs1
 BYTE   W24
 BYTE   W02
 BYTE   N96  Cn3
 BYTE   N96  Cn1
 BYTE   W48
 BYTE   PEND 
// 025   ----------------------------------------
 BYTE   N96  Cn3  v106
 BYTE   N96  Cn1
 BYTE   W48
 BYTE   N44  Cn3
 BYTE   N44  Cn1
 BYTE   W22
 BYTE   N03  Cn3
 BYTE   N03  Cn1
 BYTE   W96
// 026   ----------------------------------------
 BYTE   W24
 BYTE   W02
 BYTE   N44  Fs3
 BYTE   N44  Fs1
 BYTE   W22
 BYTE   N03  Fs3
 BYTE   N03  Fs1
 BYTE   W96
// 027   ----------------------------------------
 BYTE   W96
// 028   ----------------------------------------
 BYTE   W96
// 029   ----------------------------------------
 BYTE   W96
// 030   ----------------------------------------
 BYTE   W96
// 031   ----------------------------------------
 BYTE   W96
// 032   ----------------------------------------
 BYTE   W96
// 033   ----------------------------------------
 BYTE   W96
// 034   ----------------------------------------
 BYTE   W96
// 035   ----------------------------------------
 BYTE   W96
// 036   ----------------------------------------
 BYTE   W96
// 037   ----------------------------------------
 BYTE   W96
// 038   ----------------------------------------
 BYTE   W96
// 039   ----------------------------------------
 BYTE   W96
// 040   ----------------------------------------
 BYTE   W96
// 041   ----------------------------------------
 BYTE   W96
// 042   ----------------------------------------
 BYTE   W24
 BYTE   W01
 BYTE   N96  Cn3  v106
 BYTE   N96  Cn1
 BYTE   W17
 BYTE   W30
 BYTE   N96  Cn3  v106
 BYTE   N96  Cn1
 BYTE   W48
// 043   ----------------------------------------
 BYTE   PATT
  POIN2 Label_12_01EA4242
// 044   ----------------------------------------
 BYTE   PATT
  POIN2 Label_12_01EA4250
// 045   ----------------------------------------
 BYTE   N96  Cn3  v106
 BYTE   N96  Cn1
 BYTE   W48
 BYTE   N44
 BYTE   N44  Cn3
 BYTE   W22
 BYTE   N03
 BYTE   N03  Cn1
 BYTE   W48
// 046   ----------------------------------------
 BYTE   W02
 BYTE   W72
 BYTE   N44  Fs3  v106
 BYTE   N44  Fs1
 BYTE   W22
// 047   ----------------------------------------
 BYTE   N03  Fs3
 BYTE   N03  Fs1
 BYTE   W24
 BYTE   W02
 BYTE   N96  Cn3  v072
 BYTE   N96  Fn2
 BYTE   W03
 BYTE   W44
 BYTE   N84  Cn3  v072
 BYTE   N84  Fn2
 BYTE   W96
// 048   ----------------------------------------
 BYTE   W36
 BYTE   N60  Fn3
 BYTE   N60  Gs2
 BYTE   W60
// 049   ----------------------------------------
 BYTE   Cn3
 BYTE   N96  Gn3
 BYTE   W48
 BYTE   N84
 BYTE   W12
 BYTE   N60  As2
 BYTE   W60
// 050   ----------------------------------------
 BYTE   Gs2
 BYTE   W60
 BYTE   Ds3
 BYTE   N60  Gn2
 BYTE   W60
// 051   ----------------------------------------
 BYTE   N96  Cn3
 BYTE   N96  Fn2
 BYTE   W48
 BYTE   N84  Cn3
 BYTE   N84  Fn2
 BYTE   W96
// 052   ----------------------------------------
 BYTE   W36
 BYTE   N60  Fn3
 BYTE   N60  Gs2
 BYTE   W60
// 053   ----------------------------------------
 BYTE   N96  Gn3
 BYTE   N96  Cn3
 BYTE   W48
 BYTE   N84  Gn3
 BYTE   N84  Cn3
 BYTE   W96
// 054   ----------------------------------------
 BYTE   W36
 BYTE   N60  Ds3
 BYTE   N60  Gn2
 BYTE   W60
// 055   ----------------------------------------
 BYTE   N56  Cn2  v106
 BYTE   N56  Fn1
 BYTE   W28
 BYTE   N03  Cn2
 BYTE   N03  Fn1
 BYTE   W32
 BYTE   N56  Cs2
 BYTE   N56  Fs1
 BYTE   W28
 BYTE   N03  Cs2
 BYTE   N03  Fs1
 BYTE   W32
// 056   ----------------------------------------
 BYTE   N56  Dn2
 BYTE   N56  Gn1
 BYTE   W28
 BYTE   N03  Dn2
 BYTE   N03  Gn1
 BYTE   W32
 BYTE   N56  Ds2
 BYTE   N56  Gs1
 BYTE   W28
 BYTE   N03  Ds2
 BYTE   N03  Gs1
 BYTE   W32
// 057   ----------------------------------------
 BYTE   N56  Fn2
 BYTE   N56  As1
 BYTE   W28
 BYTE   N03  Fn2
 BYTE   N03  As1
 BYTE   W32
 BYTE   N56  Gn2
 BYTE   N56  Bn1
 BYTE   W28
 BYTE   N03  Gn2
 BYTE   N03  Bn1
 BYTE   W32
// 058   ----------------------------------------
 BYTE   N96  Cn3
 BYTE   N96  Cn2
 BYTE   W48
 BYTE   N23  Cn3
 BYTE   N23  Cn2
 BYTE   W72
// 059   ----------------------------------------
 BYTE   N96  Cn3
 BYTE   N96  Cn2
 BYTE   W48
 BYTE   N23  Cn3
 BYTE   N23  Cn2
 BYTE   W72
// 060   ----------------------------------------
 BYTE   N96  Gn2
 BYTE   N96  Gn0
 BYTE   W48
 BYTE   N23  Gn2
 BYTE   N23  Gn0
 BYTE   W96
// 061   ----------------------------------------
 BYTE   N96  Gn2
 BYTE   N96  Gn0
 BYTE   W48
 BYTE   N23  Gn2
 BYTE   N23  Gn0
 BYTE   W68
// 062   ----------------------------------------
 BYTE   W03
 BYTE   W68
 BYTE   W02
 BYTE   W02
 BYTE   W06
 BYTE   W03
 BYTE   W02
 BYTE   W03
 BYTE   W48
// 063   ----------------------------------------
 BYTE   W02
 BYTE   GoTo
  POIN2 Label_12_01EA4218
 BYTE   FINE

//******************************************************//
	ALIGN 4

CastlevaniaPoRBloodlinesBequeathedRSflame:
	BYTE	13	// NumTrks
	BYTE	0	// NumBlks
	BYTE	CastlevaniaPoRBloodlinesBequeathedRSflame_pri	// Priority
	BYTE	CastlevaniaPoRBloodlinesBequeathedRSflame_rev	// Reverb.
    
	POIN2	CastlevaniaPoRBloodlinesBequeathedRSflame_grp
    
	POIN2	CastlevaniaPoRBloodlinesBequeathedRSflame_001
	POIN2	CastlevaniaPoRBloodlinesBequeathedRSflame_002
	POIN2	CastlevaniaPoRBloodlinesBequeathedRSflame_003
	POIN2	CastlevaniaPoRBloodlinesBequeathedRSflame_004
	POIN2	CastlevaniaPoRBloodlinesBequeathedRSflame_005
	POIN2	CastlevaniaPoRBloodlinesBequeathedRSflame_006
	POIN2	CastlevaniaPoRBloodlinesBequeathedRSflame_007
	POIN2	CastlevaniaPoRBloodlinesBequeathedRSflame_008
	POIN2	CastlevaniaPoRBloodlinesBequeathedRSflame_009
	POIN2	CastlevaniaPoRBloodlinesBequeathedRSflame_010
	POIN2	CastlevaniaPoRBloodlinesBequeathedRSflame_011
	POIN2	CastlevaniaPoRBloodlinesBequeathedRSflame_012
	POIN2	CastlevaniaPoRBloodlinesBequeathedRSflame_013

	
