//Event file generated from Sappy .s format.
	#include "MPlayDef.event"

	#define	CastlevaniaDawnofSorrowThePinnacle_grp  voicegroup000
	#define	CastlevaniaDawnofSorrowThePinnacle_pri  0
	#define	CastlevaniaDawnofSorrowThePinnacle_rev  0
	#define	CastlevaniaDawnofSorrowThePinnacle_mvl  127
	#define	CastlevaniaDawnofSorrowThePinnacle_key  0
	#define	CastlevaniaDawnofSorrowThePinnacle_tbs  1
	#define	CastlevaniaDawnofSorrowThePinnacle_exg  0
	#define	CastlevaniaDawnofSorrowThePinnacle_cmp  1

	// .rodata
	//	CastlevaniaDawnofSorrowThePinnacle
	ALIGN 4


//**************** Track 1 (Midi-Chn.0) ****************//

CastlevaniaDawnofSorrowThePinnacle_001:
//  #01 //000   ----------------------------------------
 BYTE   KEYSH   CastlevaniaDawnofSorrowThePinnacle_key+0
 BYTE   TEMPO   134*CastlevaniaDawnofSorrowThePinnacle_tbs/2
 BYTE   VOICE   40
 BYTE   MODT 0
 BYTE   LFOS 44
 BYTE   VOL   62*CastlevaniaDawnofSorrowThePinnacle_mvl/mxv
 BYTE   BENDR  2
 BYTE   PAN   c_v-6
 BYTE   VOL   62*CastlevaniaDawnofSorrowThePinnacle_mvl/mxv
 BYTE   MOD 0
 BYTE   BENDR  2
 BYTE   VOL   53*CastlevaniaDawnofSorrowThePinnacle_mvl/mxv
 BYTE   PAN   c_v+6
 BYTE   VOL   53*CastlevaniaDawnofSorrowThePinnacle_mvl/mxv
 BYTE   MOD 0
 BYTE   VOL   53*CastlevaniaDawnofSorrowThePinnacle_mvl/mxv
 BYTE   BEND   c_v+0
 BYTE   W48
 BYTE   N92  Bn3  v116
 BYTE   W48
//  #01 //001   ----------------------------------------
Label_01695ACF:
 BYTE   W48
 BYTE   N23  Cn4  v124
 BYTE   W24
 BYTE   An3  v120
 BYTE   W24
 BYTE   PEND 
//  #01 //002   ----------------------------------------
Label_01695AD8:
 BYTE   N23  Fs3  v112
 BYTE   W24
 BYTE   Ds3  v104
 BYTE   W24
 BYTE   PEND 
Label_01695AE0:
 BYTE   W48
//  #01 //003   ----------------------------------------
 BYTE   W96
//  #01 //004   ----------------------------------------
 BYTE   W96
//  #01 //005   ----------------------------------------
 BYTE   W96
//  #01 //006   ----------------------------------------
 BYTE   W44
 BYTE   W03
 BYTE   VOL   53*CastlevaniaDawnofSorrowThePinnacle_mvl/mxv
 BYTE   N32  Bn3  v072
 BYTE   W36
 BYTE   N11  Bn3  v024
 BYTE   W12
 BYTE   N15  Bn3  v072
 BYTE   W01
//  #01 //007   ----------------------------------------
Label_01695AF4:
 BYTE   W15
 BYTE   N15  Cn4  v072
 BYTE   W16
 BYTE   Bn3
 BYTE   W16
 BYTE   N44
 BYTE   W48
 BYTE   N23  Fs3
 BYTE   W01
 BYTE   PEND 
//  #01 //008   ----------------------------------------
Label_01695B01:
 BYTE   W23
 BYTE   N11  Fs3  v024
 BYTE   W12
 BYTE   Fs3  v072
 BYTE   W12
 BYTE   N32  Bn3
 BYTE   W36
 BYTE   N11  Bn3  v024
 BYTE   W12
 BYTE   N15  Bn3  v072
 BYTE   W01
 BYTE   PEND 
//  #01 //009   ----------------------------------------
Label_01695B15:
 BYTE   W15
 BYTE   N15  Dn4  v072
 BYTE   W16
 BYTE   Cn4
 BYTE   W16
 BYTE   N44  Bn3  v064
 BYTE   W44
 BYTE   W03
 BYTE   N32  Fs3  v052
 BYTE   W02
 BYTE   PEND 
//  #01 //010   ----------------------------------------
Label_01695B26:
 BYTE   W32
 BYTE   W02
 BYTE   N11  Fs3  v024
 BYTE   W13
 BYTE   N32  Bn3  v072
 BYTE   W36
 BYTE   N11  Bn3  v024
 BYTE   W12
 BYTE   N15  Bn3  v072
 BYTE   W01
 BYTE   PEND 
//  #01 //011   ----------------------------------------
Label_01695B39:
 BYTE   W15
 BYTE   N15  Cn4  v072
 BYTE   W16
 BYTE   Bn3
 BYTE   W16
 BYTE   N44
 BYTE   W44
 BYTE   W03
 BYTE   N28  Fs3  v052
 BYTE   W02
 BYTE   PEND 
//  #01 //012   ----------------------------------------
Label_01695B48:
 BYTE   W28
 BYTE   N05  Fs3  v024
 BYTE   W07
 BYTE   En3  v080
 BYTE   W06
 BYTE   Fs3
 BYTE   W06
 BYTE   N15  Gn3  v072
 BYTE   W16
 BYTE   Fs3  v060
 BYTE   W16
 BYTE   En3
 BYTE   W16
 BYTE   An3  v072
 BYTE   W01
 BYTE   PEND 
//  #01 //013   ----------------------------------------
Label_01695B5F:
 BYTE   W15
 BYTE   N15  Gn3  v060
 BYTE   W16
 BYTE   Fs3
 BYTE   W16
 BYTE   N44  Gn3  v072
 BYTE   W48
 BYTE   Fs3
 BYTE   W01
 BYTE   PEND 
//  #01 //014   ----------------------------------------
Label_01695B6D:
 BYTE   W44
 BYTE   W03
 BYTE   TIE  En3  v072
 BYTE   W24
 BYTE   VOL   53*CastlevaniaDawnofSorrowThePinnacle_mvl/mxv
 BYTE   W03
 BYTE   VOL   52*CastlevaniaDawnofSorrowThePinnacle_mvl/mxv
 BYTE   W03
 BYTE   VOL   51*CastlevaniaDawnofSorrowThePinnacle_mvl/mxv
 BYTE   W03
 BYTE   VOL   51*CastlevaniaDawnofSorrowThePinnacle_mvl/mxv
 BYTE   W03
 BYTE   VOL   50*CastlevaniaDawnofSorrowThePinnacle_mvl/mxv
 BYTE   W03
 BYTE   VOL   50*CastlevaniaDawnofSorrowThePinnacle_mvl/mxv
 BYTE   W03
 BYTE   VOL   49*CastlevaniaDawnofSorrowThePinnacle_mvl/mxv
 BYTE   W03
 BYTE   VOL   48*CastlevaniaDawnofSorrowThePinnacle_mvl/mxv
 BYTE   W03
 BYTE   VOL   47*CastlevaniaDawnofSorrowThePinnacle_mvl/mxv
 BYTE   W01
 BYTE   PEND 
//  #01 //015   ----------------------------------------
Label_01695B87:
 BYTE   W02
 BYTE   VOL   46*CastlevaniaDawnofSorrowThePinnacle_mvl/mxv
 BYTE   W03
 BYTE   VOL   46*CastlevaniaDawnofSorrowThePinnacle_mvl/mxv
 BYTE   W03
 BYTE   VOL   45*CastlevaniaDawnofSorrowThePinnacle_mvl/mxv
 BYTE   W03
 BYTE   VOL   45*CastlevaniaDawnofSorrowThePinnacle_mvl/mxv
 BYTE   W03
 BYTE   VOL   44*CastlevaniaDawnofSorrowThePinnacle_mvl/mxv
 BYTE   W03
 BYTE   VOL   43*CastlevaniaDawnofSorrowThePinnacle_mvl/mxv
 BYTE   W03
 BYTE   VOL   43*CastlevaniaDawnofSorrowThePinnacle_mvl/mxv
 BYTE   W03
 BYTE   VOL   42*CastlevaniaDawnofSorrowThePinnacle_mvl/mxv
 BYTE   W03
 BYTE   VOL   41*CastlevaniaDawnofSorrowThePinnacle_mvl/mxv
 BYTE   W03
 BYTE   VOL   40*CastlevaniaDawnofSorrowThePinnacle_mvl/mxv
 BYTE   W03
 BYTE   VOL   40*CastlevaniaDawnofSorrowThePinnacle_mvl/mxv
 BYTE   W03
 BYTE   VOL   40*CastlevaniaDawnofSorrowThePinnacle_mvl/mxv
 BYTE   W03
 BYTE   VOL   39*CastlevaniaDawnofSorrowThePinnacle_mvl/mxv
 BYTE   W03
 BYTE   VOL   38*CastlevaniaDawnofSorrowThePinnacle_mvl/mxv
 BYTE   W03
 BYTE   VOL   37*CastlevaniaDawnofSorrowThePinnacle_mvl/mxv
 BYTE   W03
 BYTE   VOL   37*CastlevaniaDawnofSorrowThePinnacle_mvl/mxv
 BYTE   W03
 BYTE   VOL   37*CastlevaniaDawnofSorrowThePinnacle_mvl/mxv
 BYTE   W03
 BYTE   VOL   36*CastlevaniaDawnofSorrowThePinnacle_mvl/mxv
 BYTE   W03
 BYTE   VOL   35*CastlevaniaDawnofSorrowThePinnacle_mvl/mxv
 BYTE   W03
 BYTE   VOL   34*CastlevaniaDawnofSorrowThePinnacle_mvl/mxv
 BYTE   W03
 BYTE   VOL   34*CastlevaniaDawnofSorrowThePinnacle_mvl/mxv
 BYTE   W03
 BYTE   VOL   33*CastlevaniaDawnofSorrowThePinnacle_mvl/mxv
 BYTE   W03
 BYTE   VOL   32*CastlevaniaDawnofSorrowThePinnacle_mvl/mxv
 BYTE   W03
 BYTE   VOL   32*CastlevaniaDawnofSorrowThePinnacle_mvl/mxv
 BYTE   W03
 BYTE   VOL   31*CastlevaniaDawnofSorrowThePinnacle_mvl/mxv
 BYTE   W03
 BYTE   VOL   30*CastlevaniaDawnofSorrowThePinnacle_mvl/mxv
 BYTE   W03
 BYTE   VOL   30*CastlevaniaDawnofSorrowThePinnacle_mvl/mxv
 BYTE   W03
 BYTE   VOL   29*CastlevaniaDawnofSorrowThePinnacle_mvl/mxv
 BYTE   W03
 BYTE   VOL   29*CastlevaniaDawnofSorrowThePinnacle_mvl/mxv
 BYTE   W03
 BYTE   VOL   28*CastlevaniaDawnofSorrowThePinnacle_mvl/mxv
 BYTE   W03
 BYTE   VOL   28*CastlevaniaDawnofSorrowThePinnacle_mvl/mxv
 BYTE   W03
 BYTE   VOL   27*CastlevaniaDawnofSorrowThePinnacle_mvl/mxv
 BYTE   W01
 BYTE   PEND 
//  #01 //016   ----------------------------------------
Label_01695BCA:
 BYTE   W02
 BYTE   VOL   27*CastlevaniaDawnofSorrowThePinnacle_mvl/mxv
 BYTE   W03
 BYTE   VOL   27*CastlevaniaDawnofSorrowThePinnacle_mvl/mxv
 BYTE   W03
 BYTE   VOL   26*CastlevaniaDawnofSorrowThePinnacle_mvl/mxv
 BYTE   W03
 BYTE   VOL   25*CastlevaniaDawnofSorrowThePinnacle_mvl/mxv
 BYTE   W03
 BYTE   VOL   24*CastlevaniaDawnofSorrowThePinnacle_mvl/mxv
 BYTE   W03
 BYTE   VOL   23*CastlevaniaDawnofSorrowThePinnacle_mvl/mxv
 BYTE   W03
 BYTE   VOL   23*CastlevaniaDawnofSorrowThePinnacle_mvl/mxv
 BYTE   W03
 BYTE   VOL   23*CastlevaniaDawnofSorrowThePinnacle_mvl/mxv
 BYTE   W03
 BYTE   VOL   22*CastlevaniaDawnofSorrowThePinnacle_mvl/mxv
 BYTE   W03
 BYTE   VOL   22*CastlevaniaDawnofSorrowThePinnacle_mvl/mxv
 BYTE   W03
 BYTE   VOL   22*CastlevaniaDawnofSorrowThePinnacle_mvl/mxv
 BYTE   W02
 BYTE   PEND 
 BYTE   EOT
 BYTE   En3
 BYTE   W01
 BYTE   VOL   21*CastlevaniaDawnofSorrowThePinnacle_mvl/mxv
 BYTE   N11  En3  v024
 BYTE   W03
 BYTE   VOL   20*CastlevaniaDawnofSorrowThePinnacle_mvl/mxv
 BYTE   W03
 BYTE   VOL   20*CastlevaniaDawnofSorrowThePinnacle_mvl/mxv
 BYTE   W03
 BYTE   VOL   19*CastlevaniaDawnofSorrowThePinnacle_mvl/mxv
 BYTE   W03
 BYTE   VOL   19*CastlevaniaDawnofSorrowThePinnacle_mvl/mxv
 BYTE   W48
 BYTE   W01
//  #01 //017   ----------------------------------------
Label_01695BF6:
 BYTE   VOL   28*CastlevaniaDawnofSorrowThePinnacle_mvl/mxv
 BYTE   W01
 BYTE   VOL   38*CastlevaniaDawnofSorrowThePinnacle_mvl/mxv
 BYTE   W01
 BYTE   VOL   53*CastlevaniaDawnofSorrowThePinnacle_mvl/mxv
 BYTE   W92
 BYTE   W02
 BYTE   PEND 
//  #01 //018   ----------------------------------------
 BYTE   W36
 BYTE   W02
 BYTE   Fn2
 BYTE   W09
 BYTE   Fn2
 BYTE   N32  Bn3  v072
 BYTE   W36
 BYTE   N11  Bn3  v024
 BYTE   W12
 BYTE   N15  Bn3  v072
 BYTE   W01
//  #01 //019   ----------------------------------------
 BYTE   PATT
  POIN2 Label_01695AF4
//  #01 //020   ----------------------------------------
 BYTE   PATT
  POIN2 Label_01695B01
//  #01 //021   ----------------------------------------
 BYTE   PATT
  POIN2 Label_01695B15
//  #01 //022   ----------------------------------------
 BYTE   PATT
  POIN2 Label_01695B26
//  #01 //023   ----------------------------------------
 BYTE   PATT
  POIN2 Label_01695B39
//  #01 //024   ----------------------------------------
 BYTE   PATT
  POIN2 Label_01695B48
//  #01 //025   ----------------------------------------
 BYTE   PATT
  POIN2 Label_01695B5F
//  #01 //026   ----------------------------------------
 BYTE   PATT
  POIN2 Label_01695B6D
//  #01 //027   ----------------------------------------
 BYTE   PATT
  POIN2 Label_01695B87
//  #01 //028   ----------------------------------------
 BYTE   PATT
  POIN2 Label_01695BCA
//  #01 //029   ----------------------------------------
 BYTE   EOT
 BYTE   En3
 BYTE   W01
 BYTE   VOL   21*CastlevaniaDawnofSorrowThePinnacle_mvl/mxv
 BYTE   N11  En3  v024
 BYTE   W03
 BYTE   VOL   20*CastlevaniaDawnofSorrowThePinnacle_mvl/mxv
 BYTE   W03
 BYTE   VOL   20*CastlevaniaDawnofSorrowThePinnacle_mvl/mxv
 BYTE   W03
 BYTE   VOL   19*CastlevaniaDawnofSorrowThePinnacle_mvl/mxv
 BYTE   W03
 BYTE   VOL   19*CastlevaniaDawnofSorrowThePinnacle_mvl/mxv
 BYTE   W48
 BYTE   W01
//  #01 //030   ----------------------------------------
 BYTE   PATT
  POIN2 Label_01695BF6
//  #01 //031   ----------------------------------------
 BYTE   W36
 BYTE   W02
 BYTE   VOL   53*CastlevaniaDawnofSorrowThePinnacle_mvl/mxv
 BYTE   W56
 BYTE   W02
//  #01 //032   ----------------------------------------
 BYTE   W96
//  #01 //033   ----------------------------------------
 BYTE   W96
//  #01 //034   ----------------------------------------
 BYTE   W96
//  #01 //035   ----------------------------------------
 BYTE   W96
//  #01 //036   ----------------------------------------
 BYTE   W96
//  #01 //037   ----------------------------------------
 BYTE   W96
//  #01 //038   ----------------------------------------
 BYTE   W96
//  #01 //039   ----------------------------------------
 BYTE   W96
//  #01 //040   ----------------------------------------
 BYTE   W96
//  #01 //041   ----------------------------------------
 BYTE   W96
//  #01 //042   ----------------------------------------
 BYTE   W96
//  #01 //043   ----------------------------------------
 BYTE   W96
//  #01 //044   ----------------------------------------
 BYTE   W96
//  #01 //045   ----------------------------------------
 BYTE   W96
//  #01 //046   ----------------------------------------
 BYTE   W96
//  #01 //047   ----------------------------------------
Label_01695C6F:
 BYTE   W23
 BYTE   N23  Gs3  v084
 BYTE   W24
 BYTE   N44  En4
 BYTE   W48
 BYTE   N11  En4  v044
 BYTE   W01
 BYTE   PEND 
//  #01 //048   ----------------------------------------
Label_01695C7C:
 BYTE   W11
 BYTE   N11  En4  v084
 BYTE   W12
 BYTE   Ds4
 BYTE   W12
 BYTE   Cs4
 BYTE   W12
 BYTE   N32
 BYTE   W36
 BYTE   N11  Bn3
 BYTE   W12
 BYTE   N44  Ds4
 BYTE   W01
 BYTE   PEND 
//  #01 //049   ----------------------------------------
Label_01695C8E:
 BYTE   W44
 BYTE   W03
 BYTE   N44  Cs4  v084
 BYTE   W48
 BYTE   N11  Cs4  v044
 BYTE   W01
 BYTE   PEND 
//  #01 //050   ----------------------------------------
Label_01695C99:
 BYTE   W11
 BYTE   N11  Cs4  v084
 BYTE   W12
 BYTE   Bn3
 BYTE   W12
 BYTE   An3
 BYTE   W12
 BYTE   N32  Bn3
 BYTE   W36
 BYTE   N11  Gs3
 BYTE   W12
 BYTE   N23  En3
 BYTE   W01
 BYTE   PEND 
//  #01 //051   ----------------------------------------
Label_01695CAC:
 BYTE   W23
 BYTE   N11  En3  v044
 BYTE   W12
 BYTE   En3  v084
 BYTE   W12
 BYTE   Fs3
 BYTE   W12
 BYTE   Gs3
 BYTE   W12
 BYTE   N32  An3
 BYTE   W24
 BYTE   W01
 BYTE   PEND 
//  #01 //052   ----------------------------------------
 BYTE   W11
 BYTE   N11  Gs3
 BYTE   W12
 BYTE   Cn4
 BYTE   W12
 BYTE   Ds4
 BYTE   W12
 BYTE   N11
 BYTE   W12
 BYTE   Cs4
 BYTE   W12
 BYTE   N23  En4
 BYTE   W24
 BYTE   N11  En4  v044
 BYTE   W01
//  #01 //053   ----------------------------------------
 BYTE   W11
 BYTE   Cs4  v084
 BYTE   W12
 BYTE   Ds4
 BYTE   W12
 BYTE   En4
 BYTE   W12
 BYTE   N44
 BYTE   W48
 BYTE   N11  En4  v044
 BYTE   W01
//  #01 //054   ----------------------------------------
 BYTE   W11
 BYTE   En4  v084
 BYTE   W12
 BYTE   Ds4
 BYTE   W12
 BYTE   Cs4
 BYTE   W12
 BYTE   N68  Ds4
 BYTE   W48
 BYTE   W01
//  #01 //055   ----------------------------------------
 BYTE   PATT
  POIN2 Label_01695C6F
//  #01 //056   ----------------------------------------
 BYTE   PATT
  POIN2 Label_01695C7C
//  #01 //057   ----------------------------------------
 BYTE   PATT
  POIN2 Label_01695C8E
//  #01 //058   ----------------------------------------
 BYTE   PATT
  POIN2 Label_01695C99
//  #01 //059   ----------------------------------------
 BYTE   PATT
  POIN2 Label_01695CAC
//  #01 //060   ----------------------------------------
 BYTE   W11
 BYTE   N11  Gs3  v084
 BYTE   W12
 BYTE   Cn4
 BYTE   W12
 BYTE   Ds4
 BYTE   W12
 BYTE   Ds4  v088
 BYTE   W12
 BYTE   Cs4
 BYTE   W12
 BYTE   N11
 BYTE   W12
 BYTE   Ds4
 BYTE   W12
 BYTE   N32  En4
 BYTE   W01
//  #01 //061   ----------------------------------------
 BYTE   W32
 BYTE   W03
 BYTE   N11  Cs4
 BYTE   W12
 BYTE   N11
 BYTE   W12
 BYTE   Ds4
 BYTE   W12
 BYTE   N28  En4
 BYTE   W24
 BYTE   W01
//  #01 //062   ----------------------------------------
 BYTE   W05
 BYTE   N05  En4  v044
 BYTE   W06
 BYTE   N11  En4  v088
 BYTE   W12
 BYTE   Ds4
 BYTE   W12
 BYTE   Cs4
 BYTE   W12
 BYTE   N40  Gs4
 BYTE   W42
 BYTE   N05  Gs4  v044
 BYTE   W06
 BYTE   N28  Gs4  v088
 BYTE   W01
//  #01 //063   ----------------------------------------
 BYTE   W28
 BYTE   W01
 BYTE   N05  Gs4  v044
 BYTE   W06
 BYTE   N11  Gs4  v088
 BYTE   W12
 BYTE   TIE  Cs3  v056
 BYTE   N11  Gs4  v044
 BYTE   W48
 BYTE   W01
//  #01 //064   ----------------------------------------
 BYTE   W96
//  #01 //065   ----------------------------------------
 BYTE   W96
//  #01 //066   ----------------------------------------
 BYTE   W96
//  #01 //067   ----------------------------------------
 BYTE   W04
 BYTE   EOT
 BYTE   Cs3
 BYTE   N06  Ds3  v072
 BYTE   W06
 BYTE   En3
 BYTE   W06
 BYTE   Fs3
 BYTE   W06
 BYTE   Gs3
 BYTE   W06
 BYTE   As3
 BYTE   W06
 BYTE   N04  Cn4
 BYTE   W04
 BYTE   Cs4
 BYTE   W04
 BYTE   Ds4
 BYTE   W05
 BYTE   TIE  En4  v052
 BYTE   W48
 BYTE   W01
//  #01 //068   ----------------------------------------
 BYTE   W96
//  #01 //069   ----------------------------------------
 BYTE   VOL   53*CastlevaniaDawnofSorrowThePinnacle_mvl/mxv
 BYTE   W44
 BYTE   W03
 BYTE   EOT
 BYTE   W01
 BYTE   N92  Bn3  v116
 BYTE   W48
//  #01 //070   ----------------------------------------
 BYTE   PATT
  POIN2 Label_01695ACF
//  #01 //071   ----------------------------------------
 BYTE   PATT
  POIN2 Label_01695AD8
//  #01 //072   ----------------------------------------
 BYTE   GoTo
  POIN2 Label_01695AE0
 BYTE   FINE

//**************** Track 2 (Midi-Chn.1) ****************//

CastlevaniaDawnofSorrowThePinnacle_002:
//  #02 //000   ----------------------------------------
 BYTE   KEYSH   CastlevaniaDawnofSorrowThePinnacle_key+0
 BYTE   VOICE   49
 BYTE   MODT 0
 BYTE   LFOS 44
 BYTE   VOL   53*CastlevaniaDawnofSorrowThePinnacle_mvl/mxv
 BYTE   BENDR  2
 BYTE   PAN   c_v+5
 BYTE   VOL   53*CastlevaniaDawnofSorrowThePinnacle_mvl/mxv
 BYTE   MOD 0
 BYTE   BEND   c_v+0
 BYTE   W96
//  #02 //001   ----------------------------------------
 BYTE   W96
//  #02 //002   ----------------------------------------
 BYTE   W48
Label_01695D9F:
 BYTE   W48
//  #02 //003   ----------------------------------------
 BYTE   W96
//  #02 //004   ----------------------------------------
 BYTE   W96
//  #02 //005   ----------------------------------------
 BYTE   W96
//  #02 //006   ----------------------------------------
Label_01695DA3:
 BYTE   W44
 BYTE   W03
 BYTE   N32  Gn2  v072
 BYTE   W36
 BYTE   N11  Gn2  v044
 BYTE   W12
 BYTE   N15  Gn2  v072
 BYTE   W01
 BYTE   PEND 
//  #02 //007   ----------------------------------------
Label_01695DB2:
 BYTE   W15
 BYTE   N15  An2  v072
 BYTE   W16
 BYTE   Gn2
 BYTE   W16
 BYTE   N44  Fs2
 BYTE   W48
 BYTE   N32  Bn1  v052
 BYTE   W01
 BYTE   PEND 
//  #02 //008   ----------------------------------------
Label_01695DC1:
 BYTE   W32
 BYTE   W03
 BYTE   N11  Bn1  v044
 BYTE   W12
 BYTE   N32  Gn2  v072
 BYTE   W36
 BYTE   N11  Gn2  v044
 BYTE   W12
 BYTE   N15  Gn2  v072
 BYTE   W01
 BYTE   PEND 
//  #02 //009   ----------------------------------------
Label_01695DD4:
 BYTE   W15
 BYTE   N15  Bn2  v072
 BYTE   W16
 BYTE   An2
 BYTE   W16
 BYTE   N44  Gn2
 BYTE   W48
 BYTE   N32  Bn1  v052
 BYTE   W01
 BYTE   PEND 
//  #02 //010   ----------------------------------------
 BYTE   PATT
  POIN2 Label_01695DC1
//  #02 //011   ----------------------------------------
 BYTE   PATT
  POIN2 Label_01695DB2
//  #02 //012   ----------------------------------------
Label_01695DED:
 BYTE   W32
 BYTE   W03
 BYTE   N11  Bn1  v044
 BYTE   W12
 BYTE   N15  En2  v072
 BYTE   W16
 BYTE   Dn2
 BYTE   W16
 BYTE   Cn2
 BYTE   W16
 BYTE   Fs2
 BYTE   W01
 BYTE   PEND 
//  #02 //013   ----------------------------------------
Label_01695DFE:
 BYTE   W15
 BYTE   N15  En2  v072
 BYTE   W16
 BYTE   Dn2
 BYTE   W16
 BYTE   N44  Cn2
 BYTE   W48
 BYTE   Dn2
 BYTE   W01
 BYTE   PEND 
//  #02 //014   ----------------------------------------
 BYTE   W96
//  #02 //015   ----------------------------------------
 BYTE   W96
//  #02 //016   ----------------------------------------
 BYTE   W96
//  #02 //017   ----------------------------------------
 BYTE   W96
//  #02 //018   ----------------------------------------
 BYTE   PATT
  POIN2 Label_01695DA3
//  #02 //019   ----------------------------------------
 BYTE   PATT
  POIN2 Label_01695DB2
//  #02 //020   ----------------------------------------
 BYTE   PATT
  POIN2 Label_01695DC1
//  #02 //021   ----------------------------------------
 BYTE   PATT
  POIN2 Label_01695DD4
//  #02 //022   ----------------------------------------
 BYTE   PATT
  POIN2 Label_01695DC1
//  #02 //023   ----------------------------------------
 BYTE   PATT
  POIN2 Label_01695DB2
//  #02 //024   ----------------------------------------
 BYTE   PATT
  POIN2 Label_01695DED
//  #02 //025   ----------------------------------------
 BYTE   PATT
  POIN2 Label_01695DFE
//  #02 //026   ----------------------------------------
 BYTE   W96
//  #02 //027   ----------------------------------------
 BYTE   W96
//  #02 //028   ----------------------------------------
 BYTE   W96
//  #02 //029   ----------------------------------------
 BYTE   W96
//  #02 //030   ----------------------------------------
 BYTE   W44
 BYTE   W03
 BYTE   N40  Gs1  v060
 BYTE   W48
 BYTE   N44  Cs2
 BYTE   W01
//  #02 //031   ----------------------------------------
 BYTE   W44
 BYTE   W03
 BYTE   Cn2
 BYTE   W48
 BYTE   Cs2
 BYTE   W01
//  #02 //032   ----------------------------------------
 BYTE   W44
 BYTE   W03
 BYTE   N40  Gs1
 BYTE   W48
 BYTE   Cs2
 BYTE   W01
//  #02 //033   ----------------------------------------
 BYTE   W44
 BYTE   W03
 BYTE   N32  Gn2
 BYTE   W36
 BYTE   N11  Gs2
 BYTE   W12
 BYTE   N28  Cs3
 BYTE   W01
//  #02 //034   ----------------------------------------
 BYTE   W68
 BYTE   W03
 BYTE   N23  Cs2
 BYTE   W24
 BYTE   N44  En2
 BYTE   W01
//  #02 //035   ----------------------------------------
 BYTE   W68
 BYTE   W03
 BYTE   N23
 BYTE   W24
 BYTE   N44  Gs2
 BYTE   W01
//  #02 //036   ----------------------------------------
 BYTE   W44
 BYTE   W03
 BYTE   En2  v056
 BYTE   W48
 BYTE   Fs2
 BYTE   W01
//  #02 //037   ----------------------------------------
 BYTE   W44
 BYTE   W03
 BYTE   N23  En2
 BYTE   W24
 BYTE   Ds2
 BYTE   W24
 BYTE   N44
 BYTE   W01
//  #02 //038   ----------------------------------------
 BYTE   W44
 BYTE   W03
 BYTE   N92  Cs2  v072
 BYTE   N92  En2
 BYTE   W48
 BYTE   W01
//  #02 //039   ----------------------------------------
 BYTE   W44
 BYTE   W03
 BYTE   Bn1
 BYTE   N92  Ds2
 BYTE   W48
 BYTE   W01
//  #02 //040   ----------------------------------------
 BYTE   W44
 BYTE   W03
 BYTE   An1
 BYTE   TIE  Cs2
 BYTE   W48
 BYTE   W01
//  #02 //041   ----------------------------------------
 BYTE   W44
 BYTE   W03
 BYTE   N92  Gs1
 BYTE   W44
 BYTE   W03
 BYTE   EOT
 BYTE   Cs2
 BYTE   W01
 BYTE   N44  Cn2
 BYTE   W01
//  #02 //042   ----------------------------------------
 BYTE   W44
 BYTE   W03
 BYTE   An1  v088
 BYTE   N44  Cs2
 BYTE   W48
 BYTE   Bn1
 BYTE   N44  Ds2
 BYTE   W01
//  #02 //043   ----------------------------------------
 BYTE   W44
 BYTE   W03
 BYTE   N92  Cs2
 BYTE   TIE  En2
 BYTE   W48
 BYTE   W01
//  #02 //044   ----------------------------------------
 BYTE   W44
 BYTE   W03
 BYTE   N92  Bn1
 BYTE   W48
 BYTE   W01
//  #02 //045   ----------------------------------------
 BYTE   W44
 BYTE   W02
 BYTE   EOT
 BYTE   En2
 BYTE   W01
 BYTE   N92  Cn2  v072
 BYTE   N92  Ds2
 BYTE   W48
 BYTE   W01
//  #02 //046   ----------------------------------------
Label_01695EC3:
 BYTE   W44
 BYTE   W03
 BYTE   N92  En2  v068
 BYTE   W48
 BYTE   W01
 BYTE   PEND 
//  #02 //047   ----------------------------------------
Label_01695ECB:
 BYTE   W44
 BYTE   W03
 BYTE   N92  Ds2  v068
 BYTE   W48
 BYTE   W01
 BYTE   PEND 
//  #02 //048   ----------------------------------------
Label_01695ED3:
 BYTE   W44
 BYTE   W03
 BYTE   N44  Cs2  v068
 BYTE   W48
 BYTE   N92  Ds2
 BYTE   W01
 BYTE   PEND 
//  #02 //049   ----------------------------------------
Label_01695EDD:
 BYTE   W92
 BYTE   W03
 BYTE   N44  En2  v068
 BYTE   W01
 BYTE   PEND 
//  #02 //050   ----------------------------------------
Label_01695EE4:
 BYTE   W44
 BYTE   W03
 BYTE   N44  Cs2  v068
 BYTE   W48
 BYTE   Cn2
 BYTE   W01
 BYTE   PEND 
//  #02 //051   ----------------------------------------
 BYTE   W44
 BYTE   W03
 BYTE   TIE  Cs2
 BYTE   W48
 BYTE   W01
//  #02 //052   ----------------------------------------
 BYTE   W96
//  #02 //053   ----------------------------------------
 BYTE   W44
 BYTE   W02
 BYTE   EOT
 BYTE   W01
 BYTE   N92  Cn2
 BYTE   W48
 BYTE   W01
//  #02 //054   ----------------------------------------
 BYTE   PATT
  POIN2 Label_01695EC3
//  #02 //055   ----------------------------------------
 BYTE   PATT
  POIN2 Label_01695ECB
//  #02 //056   ----------------------------------------
 BYTE   PATT
  POIN2 Label_01695ED3
//  #02 //057   ----------------------------------------
 BYTE   PATT
  POIN2 Label_01695EDD
//  #02 //058   ----------------------------------------
 BYTE   PATT
  POIN2 Label_01695EE4
//  #02 //059   ----------------------------------------
 BYTE   W44
 BYTE   W03
 BYTE   N24  Cs2  v068
 BYTE   W24
 BYTE   Bn1
 BYTE   W24
 BYTE   N48  As1
 BYTE   W01
//  #02 //060   ----------------------------------------
 BYTE   W44
 BYTE   W03
 BYTE   N44  An1
 BYTE   W48
 BYTE   N92  Cs2
 BYTE   W01
//  #02 //061   ----------------------------------------
 BYTE   W92
 BYTE   W03
 BYTE   N44  Cn2
 BYTE   W01
//  #02 //062   ----------------------------------------
 BYTE   W96
//  #02 //063   ----------------------------------------
 BYTE   W96
//  #02 //064   ----------------------------------------
 BYTE   W96
//  #02 //065   ----------------------------------------
 BYTE   W96
//  #02 //066   ----------------------------------------
 BYTE   W96
//  #02 //067   ----------------------------------------
 BYTE   W96
//  #02 //068   ----------------------------------------
 BYTE   W96
//  #02 //069   ----------------------------------------
 BYTE   W96
//  #02 //070   ----------------------------------------
 BYTE   W48
 BYTE   GoTo
  POIN2 Label_01695D9F
 BYTE   FINE

//**************** Track 3 (Midi-Chn.2) ****************//

CastlevaniaDawnofSorrowThePinnacle_003:
//  #03 //000   ----------------------------------------
 BYTE   KEYSH   CastlevaniaDawnofSorrowThePinnacle_key+0
 BYTE   VOICE   61
 BYTE   MODT 0
 BYTE   LFOS 44
 BYTE   VOL   68*CastlevaniaDawnofSorrowThePinnacle_mvl/mxv
 BYTE   BENDR  2
 BYTE   PAN   c_v+18
 BYTE   VOL   68*CastlevaniaDawnofSorrowThePinnacle_mvl/mxv
 BYTE   MOD 0
 BYTE   BEND   c_v+0
 BYTE   W96
//  #03 //001   ----------------------------------------
 BYTE   W96
//  #03 //002   ----------------------------------------
 BYTE   W48
Label_01695F53:
 BYTE   W48
//  #03 //003   ----------------------------------------
 BYTE   W96
//  #03 //004   ----------------------------------------
 BYTE   W96
//  #03 //005   ----------------------------------------
 BYTE   W96
//  #03 //006   ----------------------------------------
 BYTE   W96
//  #03 //007   ----------------------------------------
 BYTE   W96
//  #03 //008   ----------------------------------------
 BYTE   W96
//  #03 //009   ----------------------------------------
 BYTE   W96
//  #03 //010   ----------------------------------------
 BYTE   W96
//  #03 //011   ----------------------------------------
 BYTE   W96
//  #03 //012   ----------------------------------------
 BYTE   W96
//  #03 //013   ----------------------------------------
 BYTE   W96
//  #03 //014   ----------------------------------------
 BYTE   W96
//  #03 //015   ----------------------------------------
 BYTE   W96
//  #03 //016   ----------------------------------------
 BYTE   W96
//  #03 //017   ----------------------------------------
 BYTE   W96
//  #03 //018   ----------------------------------------
 BYTE   W48
 BYTE   VOL   68*CastlevaniaDawnofSorrowThePinnacle_mvl/mxv
 BYTE   W23
 BYTE   N23  En1  v056
 BYTE   W24
 BYTE   Gn1
 BYTE   W01
//  #03 //019   ----------------------------------------
 BYTE   W23
 BYTE   N68  An1
 BYTE   W02
 BYTE   VOL   68*CastlevaniaDawnofSorrowThePinnacle_mvl/mxv
 BYTE   W09
 BYTE   VOL   66*CastlevaniaDawnofSorrowThePinnacle_mvl/mxv
 BYTE   W04
 BYTE   VOL   66*CastlevaniaDawnofSorrowThePinnacle_mvl/mxv
 BYTE   W04
 BYTE   VOL   64*CastlevaniaDawnofSorrowThePinnacle_mvl/mxv
 BYTE   W05
 BYTE   VOL   63*CastlevaniaDawnofSorrowThePinnacle_mvl/mxv
 BYTE   W04
 BYTE   VOL   62*CastlevaniaDawnofSorrowThePinnacle_mvl/mxv
 BYTE   W04
 BYTE   VOL   61*CastlevaniaDawnofSorrowThePinnacle_mvl/mxv
 BYTE   W05
 BYTE   VOL   61*CastlevaniaDawnofSorrowThePinnacle_mvl/mxv
 BYTE   W04
 BYTE   VOL   59*CastlevaniaDawnofSorrowThePinnacle_mvl/mxv
 BYTE   W04
 BYTE   VOL   59*CastlevaniaDawnofSorrowThePinnacle_mvl/mxv
 BYTE   W05
 BYTE   VOL   57*CastlevaniaDawnofSorrowThePinnacle_mvl/mxv
 BYTE   W04
 BYTE   VOL   57*CastlevaniaDawnofSorrowThePinnacle_mvl/mxv
 BYTE   W04
 BYTE   VOL   57*CastlevaniaDawnofSorrowThePinnacle_mvl/mxv
 BYTE   W05
 BYTE   VOL   56*CastlevaniaDawnofSorrowThePinnacle_mvl/mxv
 BYTE   W04
 BYTE   VOL   55*CastlevaniaDawnofSorrowThePinnacle_mvl/mxv
 BYTE   W04
 BYTE   VOL   54*CastlevaniaDawnofSorrowThePinnacle_mvl/mxv
 BYTE   W01
 BYTE   N44  Dn2
 BYTE   W01
//  #03 //020   ----------------------------------------
 BYTE   W03
 BYTE   VOL   53*CastlevaniaDawnofSorrowThePinnacle_mvl/mxv
 BYTE   W04
 BYTE   VOL   52*CastlevaniaDawnofSorrowThePinnacle_mvl/mxv
 BYTE   W04
 BYTE   VOL   51*CastlevaniaDawnofSorrowThePinnacle_mvl/mxv
 BYTE   W05
 BYTE   VOL   51*CastlevaniaDawnofSorrowThePinnacle_mvl/mxv
 BYTE   W04
 BYTE   VOL   50*CastlevaniaDawnofSorrowThePinnacle_mvl/mxv
 BYTE   W04
 BYTE   VOL   49*CastlevaniaDawnofSorrowThePinnacle_mvl/mxv
 BYTE   W04
 BYTE   VOL   49*CastlevaniaDawnofSorrowThePinnacle_mvl/mxv
 BYTE   W05
 BYTE   VOL   48*CastlevaniaDawnofSorrowThePinnacle_mvl/mxv
 BYTE   W04
 BYTE   VOL   47*CastlevaniaDawnofSorrowThePinnacle_mvl/mxv
 BYTE   W04
 BYTE   VOL   46*CastlevaniaDawnofSorrowThePinnacle_mvl/mxv
 BYTE   W01
 BYTE   VOL   45*CastlevaniaDawnofSorrowThePinnacle_mvl/mxv
 BYTE   W03
 BYTE   VOL   47*CastlevaniaDawnofSorrowThePinnacle_mvl/mxv
 BYTE   W03
 BYTE   VOL   49*CastlevaniaDawnofSorrowThePinnacle_mvl/mxv
 BYTE   W03
 BYTE   VOL   51*CastlevaniaDawnofSorrowThePinnacle_mvl/mxv
 BYTE   W03
 BYTE   VOL   53*CastlevaniaDawnofSorrowThePinnacle_mvl/mxv
 BYTE   W03
 BYTE   VOL   56*CastlevaniaDawnofSorrowThePinnacle_mvl/mxv
 BYTE   W03
 BYTE   VOL   57*CastlevaniaDawnofSorrowThePinnacle_mvl/mxv
 BYTE   W03
 BYTE   VOL   59*CastlevaniaDawnofSorrowThePinnacle_mvl/mxv
 BYTE   W03
 BYTE   VOL   61*CastlevaniaDawnofSorrowThePinnacle_mvl/mxv
 BYTE   W03
 BYTE   VOL   64*CastlevaniaDawnofSorrowThePinnacle_mvl/mxv
 BYTE   W02
 BYTE   N23  En1
 BYTE   W01
 BYTE   VOL   68*CastlevaniaDawnofSorrowThePinnacle_mvl/mxv
 BYTE   W23
 BYTE   N23  Gn1
 BYTE   W01
//  #03 //021   ----------------------------------------
 BYTE   W23
 BYTE   N68  An1
 BYTE   W04
 BYTE   VOL   68*CastlevaniaDawnofSorrowThePinnacle_mvl/mxv
 BYTE   W08
 BYTE   VOL   66*CastlevaniaDawnofSorrowThePinnacle_mvl/mxv
 BYTE   W04
 BYTE   VOL   66*CastlevaniaDawnofSorrowThePinnacle_mvl/mxv
 BYTE   W05
 BYTE   VOL   64*CastlevaniaDawnofSorrowThePinnacle_mvl/mxv
 BYTE   W04
 BYTE   VOL   63*CastlevaniaDawnofSorrowThePinnacle_mvl/mxv
 BYTE   W04
 BYTE   VOL   62*CastlevaniaDawnofSorrowThePinnacle_mvl/mxv
 BYTE   W04
 BYTE   VOL   61*CastlevaniaDawnofSorrowThePinnacle_mvl/mxv
 BYTE   W05
 BYTE   VOL   61*CastlevaniaDawnofSorrowThePinnacle_mvl/mxv
 BYTE   W04
 BYTE   VOL   59*CastlevaniaDawnofSorrowThePinnacle_mvl/mxv
 BYTE   W04
 BYTE   VOL   59*CastlevaniaDawnofSorrowThePinnacle_mvl/mxv
 BYTE   W05
 BYTE   VOL   57*CastlevaniaDawnofSorrowThePinnacle_mvl/mxv
 BYTE   W04
 BYTE   VOL   57*CastlevaniaDawnofSorrowThePinnacle_mvl/mxv
 BYTE   W04
 BYTE   VOL   57*CastlevaniaDawnofSorrowThePinnacle_mvl/mxv
 BYTE   W04
 BYTE   VOL   56*CastlevaniaDawnofSorrowThePinnacle_mvl/mxv
 BYTE   W05
 BYTE   VOL   55*CastlevaniaDawnofSorrowThePinnacle_mvl/mxv
 BYTE   W04
 BYTE   VOL   54*CastlevaniaDawnofSorrowThePinnacle_mvl/mxv
 BYTE   N44  Bn1
 BYTE   W01
//  #03 //022   ----------------------------------------
 BYTE   W03
 BYTE   VOL   53*CastlevaniaDawnofSorrowThePinnacle_mvl/mxv
 BYTE   W04
 BYTE   VOL   52*CastlevaniaDawnofSorrowThePinnacle_mvl/mxv
 BYTE   W05
 BYTE   VOL   51*CastlevaniaDawnofSorrowThePinnacle_mvl/mxv
 BYTE   W04
 BYTE   VOL   51*CastlevaniaDawnofSorrowThePinnacle_mvl/mxv
 BYTE   W04
 BYTE   VOL   50*CastlevaniaDawnofSorrowThePinnacle_mvl/mxv
 BYTE   W05
 BYTE   VOL   49*CastlevaniaDawnofSorrowThePinnacle_mvl/mxv
 BYTE   W04
 BYTE   VOL   49*CastlevaniaDawnofSorrowThePinnacle_mvl/mxv
 BYTE   W04
 BYTE   VOL   48*CastlevaniaDawnofSorrowThePinnacle_mvl/mxv
 BYTE   W04
 BYTE   VOL   47*CastlevaniaDawnofSorrowThePinnacle_mvl/mxv
 BYTE   W05
 BYTE   VOL   46*CastlevaniaDawnofSorrowThePinnacle_mvl/mxv
 BYTE   W04
 BYTE   VOL   45*CastlevaniaDawnofSorrowThePinnacle_mvl/mxv
 BYTE   W01
 BYTE   N23  Bn1  v036
 BYTE   W01
 BYTE   VOL   45*CastlevaniaDawnofSorrowThePinnacle_mvl/mxv
 BYTE   W01
 BYTE   VOL   47*CastlevaniaDawnofSorrowThePinnacle_mvl/mxv
 BYTE   W02
 BYTE   VOL   48*CastlevaniaDawnofSorrowThePinnacle_mvl/mxv
 BYTE   W01
 BYTE   VOL   49*CastlevaniaDawnofSorrowThePinnacle_mvl/mxv
 BYTE   W02
 BYTE   VOL   50*CastlevaniaDawnofSorrowThePinnacle_mvl/mxv
 BYTE   W01
 BYTE   VOL   51*CastlevaniaDawnofSorrowThePinnacle_mvl/mxv
 BYTE   W02
 BYTE   VOL   53*CastlevaniaDawnofSorrowThePinnacle_mvl/mxv
 BYTE   W01
 BYTE   VOL   54*CastlevaniaDawnofSorrowThePinnacle_mvl/mxv
 BYTE   W02
 BYTE   VOL   56*CastlevaniaDawnofSorrowThePinnacle_mvl/mxv
 BYTE   W01
 BYTE   VOL   57*CastlevaniaDawnofSorrowThePinnacle_mvl/mxv
 BYTE   W02
 BYTE   VOL   57*CastlevaniaDawnofSorrowThePinnacle_mvl/mxv
 BYTE   W01
 BYTE   VOL   59*CastlevaniaDawnofSorrowThePinnacle_mvl/mxv
 BYTE   W02
 BYTE   VOL   61*CastlevaniaDawnofSorrowThePinnacle_mvl/mxv
 BYTE   W01
 BYTE   VOL   62*CastlevaniaDawnofSorrowThePinnacle_mvl/mxv
 BYTE   W02
 BYTE   VOL   63*CastlevaniaDawnofSorrowThePinnacle_mvl/mxv
 BYTE   W01
 BYTE   VOL   66*CastlevaniaDawnofSorrowThePinnacle_mvl/mxv
 BYTE   W01
 BYTE   N23  En1  v056
 BYTE   W01
 BYTE   VOL   68*CastlevaniaDawnofSorrowThePinnacle_mvl/mxv
 BYTE   W23
 BYTE   N23  Gn1
 BYTE   W01
//  #03 //023   ----------------------------------------
 BYTE   W23
 BYTE   N68  An1
 BYTE   W04
 BYTE   VOL   68*CastlevaniaDawnofSorrowThePinnacle_mvl/mxv
 BYTE   W03
 BYTE   VOL   66*CastlevaniaDawnofSorrowThePinnacle_mvl/mxv
 BYTE   W03
 BYTE   VOL   66*CastlevaniaDawnofSorrowThePinnacle_mvl/mxv
 BYTE   W03
 BYTE   VOL   63*CastlevaniaDawnofSorrowThePinnacle_mvl/mxv
 BYTE   W03
 BYTE   VOL   62*CastlevaniaDawnofSorrowThePinnacle_mvl/mxv
 BYTE   W03
 BYTE   VOL   61*CastlevaniaDawnofSorrowThePinnacle_mvl/mxv
 BYTE   W03
 BYTE   VOL   59*CastlevaniaDawnofSorrowThePinnacle_mvl/mxv
 BYTE   W03
 BYTE   VOL   59*CastlevaniaDawnofSorrowThePinnacle_mvl/mxv
 BYTE   W03
 BYTE   VOL   57*CastlevaniaDawnofSorrowThePinnacle_mvl/mxv
 BYTE   W03
 BYTE   VOL   57*CastlevaniaDawnofSorrowThePinnacle_mvl/mxv
 BYTE   W03
 BYTE   VOL   56*CastlevaniaDawnofSorrowThePinnacle_mvl/mxv
 BYTE   W03
 BYTE   VOL   55*CastlevaniaDawnofSorrowThePinnacle_mvl/mxv
 BYTE   W03
 BYTE   VOL   53*CastlevaniaDawnofSorrowThePinnacle_mvl/mxv
 BYTE   W03
 BYTE   VOL   52*CastlevaniaDawnofSorrowThePinnacle_mvl/mxv
 BYTE   W03
 BYTE   VOL   51*CastlevaniaDawnofSorrowThePinnacle_mvl/mxv
 BYTE   W03
 BYTE   VOL   50*CastlevaniaDawnofSorrowThePinnacle_mvl/mxv
 BYTE   W03
 BYTE   VOL   49*CastlevaniaDawnofSorrowThePinnacle_mvl/mxv
 BYTE   W03
 BYTE   VOL   49*CastlevaniaDawnofSorrowThePinnacle_mvl/mxv
 BYTE   W03
 BYTE   VOL   47*CastlevaniaDawnofSorrowThePinnacle_mvl/mxv
 BYTE   W03
 BYTE   VOL   46*CastlevaniaDawnofSorrowThePinnacle_mvl/mxv
 BYTE   W03
 BYTE   VOL   45*CastlevaniaDawnofSorrowThePinnacle_mvl/mxv
 BYTE   W03
 BYTE   VOL   45*CastlevaniaDawnofSorrowThePinnacle_mvl/mxv
 BYTE   W03
 BYTE   VOL   46*CastlevaniaDawnofSorrowThePinnacle_mvl/mxv
 BYTE   W02
 BYTE   N23  Dn2
 BYTE   W01
//  #03 //024   ----------------------------------------
 BYTE   VOL   48*CastlevaniaDawnofSorrowThePinnacle_mvl/mxv
 BYTE   W03
 BYTE   VOL   49*CastlevaniaDawnofSorrowThePinnacle_mvl/mxv
 BYTE   W03
 BYTE   VOL   50*CastlevaniaDawnofSorrowThePinnacle_mvl/mxv
 BYTE   W03
 BYTE   VOL   51*CastlevaniaDawnofSorrowThePinnacle_mvl/mxv
 BYTE   W03
 BYTE   VOL   52*CastlevaniaDawnofSorrowThePinnacle_mvl/mxv
 BYTE   W03
 BYTE   VOL   53*CastlevaniaDawnofSorrowThePinnacle_mvl/mxv
 BYTE   W03
 BYTE   VOL   55*CastlevaniaDawnofSorrowThePinnacle_mvl/mxv
 BYTE   W03
 BYTE   VOL   56*CastlevaniaDawnofSorrowThePinnacle_mvl/mxv
 BYTE   W02
 BYTE   N23  Dn2  v036
 BYTE   W01
 BYTE   VOL   57*CastlevaniaDawnofSorrowThePinnacle_mvl/mxv
 BYTE   W03
 BYTE   VOL   57*CastlevaniaDawnofSorrowThePinnacle_mvl/mxv
 BYTE   W03
 BYTE   VOL   59*CastlevaniaDawnofSorrowThePinnacle_mvl/mxv
 BYTE   W03
 BYTE   VOL   61*CastlevaniaDawnofSorrowThePinnacle_mvl/mxv
 BYTE   W03
 BYTE   VOL   61*CastlevaniaDawnofSorrowThePinnacle_mvl/mxv
 BYTE   W03
 BYTE   VOL   63*CastlevaniaDawnofSorrowThePinnacle_mvl/mxv
 BYTE   W03
 BYTE   VOL   64*CastlevaniaDawnofSorrowThePinnacle_mvl/mxv
 BYTE   W03
 BYTE   VOL   66*CastlevaniaDawnofSorrowThePinnacle_mvl/mxv
 BYTE   W01
 BYTE   VOL   68*CastlevaniaDawnofSorrowThePinnacle_mvl/mxv
 BYTE   W01
 BYTE   N44  An0  v056
 BYTE   W48
 BYTE   Bn0
 BYTE   W01
//  #03 //025   ----------------------------------------
 BYTE   W44
 BYTE   W03
 BYTE   Cn1
 BYTE   W48
 BYTE   Dn1
 BYTE   W01
//  #03 //026   ----------------------------------------
 BYTE   W44
 BYTE   W03
 BYTE   En1  v072
 BYTE   W48
 BYTE   Fs1
 BYTE   W01
//  #03 //027   ----------------------------------------
 BYTE   W44
 BYTE   W03
 BYTE   TIE  Gn1
 BYTE   W48
 BYTE   W01
//  #03 //028   ----------------------------------------
 BYTE   W92
 BYTE   W02
 BYTE   EOT
 BYTE   W01
 BYTE   N44  An1
 BYTE   W01
//  #03 //029   ----------------------------------------
 BYTE   W44
 BYTE   W03
 BYTE   N92  Bn1
 BYTE   W48
 BYTE   W01
//  #03 //030   ----------------------------------------
 BYTE   W48
 BYTE   N23  Cs1  v060
 BYTE   W24
 BYTE   En1
 BYTE   W24
//  #03 //031   ----------------------------------------
 BYTE   N15  Gs1
 BYTE   W16
 BYTE   An1
 BYTE   W16
 BYTE   Gs1
 BYTE   W16
 BYTE   N44  Gn1
 BYTE   W48
//  #03 //032   ----------------------------------------
 BYTE   N40  Gs1
 BYTE   W48
 BYTE   N23  Cs1
 BYTE   W24
 BYTE   En1
 BYTE   W24
//  #03 //033   ----------------------------------------
 BYTE   N15  Gs1
 BYTE   W16
 BYTE   An1
 BYTE   W16
 BYTE   Gs1
 BYTE   W16
 BYTE   N32  Cn2
 BYTE   W36
 BYTE   N11  Cs2
 BYTE   W12
//  #03 //034   ----------------------------------------
 BYTE   N44  En2
 BYTE   W48
 BYTE   N23  Fs1
 BYTE   W24
 BYTE   An1
 BYTE   W24
//  #03 //035   ----------------------------------------
 BYTE   N44  Cs2
 BYTE   W48
 BYTE   N23  Gs1
 BYTE   W24
 BYTE   Bn1
 BYTE   W24
//  #03 //036   ----------------------------------------
 BYTE   N44  En2
 BYTE   W48
 BYTE   N92  Cs2  v056
 BYTE   W48
//  #03 //037   ----------------------------------------
 BYTE   W48
 BYTE   N44  Bn1
 BYTE   W48
//  #03 //038   ----------------------------------------
 BYTE   Cn2
 BYTE   W72
 BYTE   N23  Cs1  v060
 BYTE   W24
//  #03 //039   ----------------------------------------
 BYTE   En1
 BYTE   W24
 BYTE   N68  Gs1
 BYTE   W72
//  #03 //040   ----------------------------------------
 BYTE   N44  Bn1
 BYTE   W72
 BYTE   N23  An0
 BYTE   W24
//  #03 //041   ----------------------------------------
 BYTE   Cs1
 BYTE   W24
 BYTE   N68  En1
 BYTE   W72
//  #03 //042   ----------------------------------------
 BYTE   N44  Gs1
 BYTE   W48
 BYTE   An0
 BYTE   W48
//  #03 //043   ----------------------------------------
 BYTE   Bn0
 BYTE   W48
 BYTE   N92  Cs1
 BYTE   W48
//  #03 //044   ----------------------------------------
 BYTE   W48
 BYTE   En1
 BYTE   W48
//  #03 //045   ----------------------------------------
 BYTE   W48
 BYTE   Ds1
 BYTE   W48
//  #03 //046   ----------------------------------------
 BYTE   W48
 BYTE   Gs1  v044
 BYTE   N92  Cs2
 BYTE   W48
//  #03 //047   ----------------------------------------
Label_01696127:
 BYTE   W48
 BYTE   N92  Fs1  v044
 BYTE   N92  Bn1
 BYTE   W48
 BYTE   PEND 
//  #03 //048   ----------------------------------------
Label_0169612F:
 BYTE   W48
 BYTE   N44  En1  v044
 BYTE   N44  An1
 BYTE   W48
 BYTE   PEND 
//  #03 //049   ----------------------------------------
 BYTE   N92  Fs1
 BYTE   N92  Bn1
 BYTE   W96
//  #03 //050   ----------------------------------------
Label_0169613C:
 BYTE   N44  Gs1  v044
 BYTE   N44  Cs2
 BYTE   W48
 BYTE   Fs1
 BYTE   N44  An1
 BYTE   W48
 BYTE   PEND 
//  #03 //051   ----------------------------------------
Label_01696147:
 BYTE   N44  Ds1  v044
 BYTE   TIE  Gs1
 BYTE   W48
 BYTE   N92  En1
 BYTE   W48
 BYTE   PEND 
//  #03 //052   ----------------------------------------
 BYTE   W44
 BYTE   W03
 BYTE   EOT
 BYTE   Gs1
 BYTE   W01
 BYTE   N92  Gn1
 BYTE   N92  As1
 BYTE   W48
//  #03 //053   ----------------------------------------
 BYTE   W48
 BYTE   Ds1
 BYTE   N92  Gs1
 BYTE   W48
//  #03 //054   ----------------------------------------
 BYTE   W48
 BYTE   VOL   68*CastlevaniaDawnofSorrowThePinnacle_mvl/mxv
 BYTE   N92
 BYTE   N92  Cs2
 BYTE   W48
//  #03 //055   ----------------------------------------
 BYTE   PATT
  POIN2 Label_01696127
//  #03 //056   ----------------------------------------
 BYTE   PATT
  POIN2 Label_0169612F
//  #03 //057   ----------------------------------------
 BYTE   N92  Fs1  v044
 BYTE   N92  Bn1
 BYTE   W96
//  #03 //058   ----------------------------------------
 BYTE   PATT
  POIN2 Label_0169613C
//  #03 //059   ----------------------------------------
 BYTE   PATT
  POIN2 Label_01696147
//  #03 //060   ----------------------------------------
 BYTE   W44
 BYTE   W03
 BYTE   EOT
 BYTE   Gs1
 BYTE   W01
 BYTE   N44  Cs1  v044
 BYTE   N92  En1
 BYTE   W48
//  #03 //061   ----------------------------------------
 BYTE   N44  An1
 BYTE   W48
 BYTE   N92  Ds1
 BYTE   N92  Gs1
 BYTE   W48
//  #03 //062   ----------------------------------------
 BYTE   W44
 BYTE   W03
 BYTE   VOL   68*CastlevaniaDawnofSorrowThePinnacle_mvl/mxv
 BYTE   W01
 BYTE   TIE  Cs1  v072
 BYTE   W11
 BYTE   VOL   66*CastlevaniaDawnofSorrowThePinnacle_mvl/mxv
 BYTE   W07
 BYTE   VOL   66*CastlevaniaDawnofSorrowThePinnacle_mvl/mxv
 BYTE   W06
 BYTE   VOL   64*CastlevaniaDawnofSorrowThePinnacle_mvl/mxv
 BYTE   W06
 BYTE   VOL   63*CastlevaniaDawnofSorrowThePinnacle_mvl/mxv
 BYTE   W07
 BYTE   VOL   62*CastlevaniaDawnofSorrowThePinnacle_mvl/mxv
 BYTE   W06
 BYTE   VOL   61*CastlevaniaDawnofSorrowThePinnacle_mvl/mxv
 BYTE   W05
//  #03 //063   ----------------------------------------
 BYTE   W01
 BYTE   VOL   61*CastlevaniaDawnofSorrowThePinnacle_mvl/mxv
 BYTE   W06
 BYTE   VOL   59*CastlevaniaDawnofSorrowThePinnacle_mvl/mxv
 BYTE   W07
 BYTE   VOL   59*CastlevaniaDawnofSorrowThePinnacle_mvl/mxv
 BYTE   W06
 BYTE   VOL   57*CastlevaniaDawnofSorrowThePinnacle_mvl/mxv
 BYTE   W06
 BYTE   VOL   57*CastlevaniaDawnofSorrowThePinnacle_mvl/mxv
 BYTE   W07
 BYTE   VOL   57*CastlevaniaDawnofSorrowThePinnacle_mvl/mxv
 BYTE   W06
 BYTE   VOL   56*CastlevaniaDawnofSorrowThePinnacle_mvl/mxv
 BYTE   W06
 BYTE   VOL   55*CastlevaniaDawnofSorrowThePinnacle_mvl/mxv
 BYTE   W07
 BYTE   VOL   54*CastlevaniaDawnofSorrowThePinnacle_mvl/mxv
 BYTE   W06
 BYTE   VOL   53*CastlevaniaDawnofSorrowThePinnacle_mvl/mxv
 BYTE   W06
 BYTE   VOL   52*CastlevaniaDawnofSorrowThePinnacle_mvl/mxv
 BYTE   W06
 BYTE   VOL   51*CastlevaniaDawnofSorrowThePinnacle_mvl/mxv
 BYTE   W07
 BYTE   VOL   51*CastlevaniaDawnofSorrowThePinnacle_mvl/mxv
 BYTE   W06
 BYTE   VOL   50*CastlevaniaDawnofSorrowThePinnacle_mvl/mxv
 BYTE   W06
 BYTE   VOL   49*CastlevaniaDawnofSorrowThePinnacle_mvl/mxv
 BYTE   W07
//  #03 //064   ----------------------------------------
 BYTE   VOL   49*CastlevaniaDawnofSorrowThePinnacle_mvl/mxv
 BYTE   W06
 BYTE   VOL   48*CastlevaniaDawnofSorrowThePinnacle_mvl/mxv
 BYTE   W06
 BYTE   VOL   47*CastlevaniaDawnofSorrowThePinnacle_mvl/mxv
 BYTE   W07
 BYTE   VOL   46*CastlevaniaDawnofSorrowThePinnacle_mvl/mxv
 BYTE   W06
 BYTE   VOL   45*CastlevaniaDawnofSorrowThePinnacle_mvl/mxv
 BYTE   W06
 BYTE   VOL   45*CastlevaniaDawnofSorrowThePinnacle_mvl/mxv
 BYTE   W06
 BYTE   VOL   44*CastlevaniaDawnofSorrowThePinnacle_mvl/mxv
 BYTE   W07
 BYTE   VOL   43*CastlevaniaDawnofSorrowThePinnacle_mvl/mxv
 BYTE   W06
 BYTE   VOL   42*CastlevaniaDawnofSorrowThePinnacle_mvl/mxv
 BYTE   W06
 BYTE   VOL   41*CastlevaniaDawnofSorrowThePinnacle_mvl/mxv
 BYTE   W07
 BYTE   VOL   41*CastlevaniaDawnofSorrowThePinnacle_mvl/mxv
 BYTE   W06
 BYTE   VOL   40*CastlevaniaDawnofSorrowThePinnacle_mvl/mxv
 BYTE   W06
 BYTE   VOL   40*CastlevaniaDawnofSorrowThePinnacle_mvl/mxv
 BYTE   W07
 BYTE   VOL   39*CastlevaniaDawnofSorrowThePinnacle_mvl/mxv
 BYTE   W06
 BYTE   VOL   38*CastlevaniaDawnofSorrowThePinnacle_mvl/mxv
 BYTE   W06
 BYTE   VOL   37*CastlevaniaDawnofSorrowThePinnacle_mvl/mxv
 BYTE   W02
//  #03 //065   ----------------------------------------
 BYTE   W04
 BYTE   VOL   37*CastlevaniaDawnofSorrowThePinnacle_mvl/mxv
 BYTE   W07
 BYTE   VOL   36*CastlevaniaDawnofSorrowThePinnacle_mvl/mxv
 BYTE   W01
 BYTE   VOL   35*CastlevaniaDawnofSorrowThePinnacle_mvl/mxv
 BYTE   W07
 BYTE   VOL   36*CastlevaniaDawnofSorrowThePinnacle_mvl/mxv
 BYTE   W04
 BYTE   VOL   37*CastlevaniaDawnofSorrowThePinnacle_mvl/mxv
 BYTE   W04
 BYTE   VOL   37*CastlevaniaDawnofSorrowThePinnacle_mvl/mxv
 BYTE   W04
 BYTE   VOL   38*CastlevaniaDawnofSorrowThePinnacle_mvl/mxv
 BYTE   W04
 BYTE   VOL   39*CastlevaniaDawnofSorrowThePinnacle_mvl/mxv
 BYTE   W04
 BYTE   VOL   40*CastlevaniaDawnofSorrowThePinnacle_mvl/mxv
 BYTE   W04
 BYTE   VOL   40*CastlevaniaDawnofSorrowThePinnacle_mvl/mxv
 BYTE   W04
 BYTE   VOL   41*CastlevaniaDawnofSorrowThePinnacle_mvl/mxv
 BYTE   W04
 BYTE   VOL   41*CastlevaniaDawnofSorrowThePinnacle_mvl/mxv
 BYTE   W03
 BYTE   VOL   42*CastlevaniaDawnofSorrowThePinnacle_mvl/mxv
 BYTE   W04
 BYTE   VOL   43*CastlevaniaDawnofSorrowThePinnacle_mvl/mxv
 BYTE   W04
 BYTE   VOL   44*CastlevaniaDawnofSorrowThePinnacle_mvl/mxv
 BYTE   W04
 BYTE   VOL   45*CastlevaniaDawnofSorrowThePinnacle_mvl/mxv
 BYTE   W04
 BYTE   VOL   45*CastlevaniaDawnofSorrowThePinnacle_mvl/mxv
 BYTE   W04
 BYTE   VOL   46*CastlevaniaDawnofSorrowThePinnacle_mvl/mxv
 BYTE   W04
 BYTE   VOL   47*CastlevaniaDawnofSorrowThePinnacle_mvl/mxv
 BYTE   W04
 BYTE   VOL   48*CastlevaniaDawnofSorrowThePinnacle_mvl/mxv
 BYTE   W04
 BYTE   VOL   49*CastlevaniaDawnofSorrowThePinnacle_mvl/mxv
 BYTE   W04
 BYTE   VOL   49*CastlevaniaDawnofSorrowThePinnacle_mvl/mxv
 BYTE   W03
 BYTE   VOL   50*CastlevaniaDawnofSorrowThePinnacle_mvl/mxv
 BYTE   W03
//  #03 //066   ----------------------------------------
 BYTE   W01
 BYTE   VOL   51*CastlevaniaDawnofSorrowThePinnacle_mvl/mxv
 BYTE   W04
 BYTE   VOL   51*CastlevaniaDawnofSorrowThePinnacle_mvl/mxv
 BYTE   W04
 BYTE   VOL   52*CastlevaniaDawnofSorrowThePinnacle_mvl/mxv
 BYTE   W04
 BYTE   VOL   53*CastlevaniaDawnofSorrowThePinnacle_mvl/mxv
 BYTE   W04
 BYTE   VOL   54*CastlevaniaDawnofSorrowThePinnacle_mvl/mxv
 BYTE   W04
 BYTE   VOL   55*CastlevaniaDawnofSorrowThePinnacle_mvl/mxv
 BYTE   W04
 BYTE   VOL   56*CastlevaniaDawnofSorrowThePinnacle_mvl/mxv
 BYTE   W04
 BYTE   VOL   57*CastlevaniaDawnofSorrowThePinnacle_mvl/mxv
 BYTE   W04
 BYTE   VOL   57*CastlevaniaDawnofSorrowThePinnacle_mvl/mxv
 BYTE   W02
 BYTE   EOT
 BYTE   W01
 BYTE   VOL   57*CastlevaniaDawnofSorrowThePinnacle_mvl/mxv
 BYTE   W01
 BYTE   VOL   59*CastlevaniaDawnofSorrowThePinnacle_mvl/mxv
 BYTE   W02
 BYTE   VOL   59*CastlevaniaDawnofSorrowThePinnacle_mvl/mxv
 BYTE   W01
 BYTE   VOL   61*CastlevaniaDawnofSorrowThePinnacle_mvl/mxv
 BYTE   W02
 BYTE   VOL   62*CastlevaniaDawnofSorrowThePinnacle_mvl/mxv
 BYTE   W01
 BYTE   VOL   64*CastlevaniaDawnofSorrowThePinnacle_mvl/mxv
 BYTE   W02
 BYTE   VOL   66*CastlevaniaDawnofSorrowThePinnacle_mvl/mxv
 BYTE   W01
 BYTE   VOL   68*CastlevaniaDawnofSorrowThePinnacle_mvl/mxv
 BYTE   W02
 BYTE   TIE  En1
 BYTE   W48
//  #03 //067   ----------------------------------------
 BYTE   W96
//  #03 //068   ----------------------------------------
 BYTE   W44
 BYTE   W03
 BYTE   EOT
 BYTE   W48
 BYTE   W01
//  #03 //069   ----------------------------------------
 BYTE   W96
//  #03 //070   ----------------------------------------
 BYTE   W48
 BYTE   GoTo
  POIN2 Label_01695F53
 BYTE   FINE

//**************** Track 4 (Midi-Chn.3) ****************//

CastlevaniaDawnofSorrowThePinnacle_004:
//  #04 //000   ----------------------------------------
 BYTE   KEYSH   CastlevaniaDawnofSorrowThePinnacle_key+0
 BYTE   VOICE   101
 BYTE   MODT 0
 BYTE   LFOS 44
 BYTE   VOL   51*CastlevaniaDawnofSorrowThePinnacle_mvl/mxv
 BYTE   PAN   c_v+23
 BYTE   BENDR  2
 BYTE   VOL   51*CastlevaniaDawnofSorrowThePinnacle_mvl/mxv
 BYTE   MOD 0
 BYTE   BEND   c_v+0
 BYTE   W48
 BYTE   N92  Fs3  v088
 BYTE   W48
//  #04 //001   ----------------------------------------
 BYTE   W48
 BYTE   N44  En3
 BYTE   W48
//  #04 //002   ----------------------------------------
 BYTE   Ds3
 BYTE   W48
Label_0169626F:
 BYTE   TIE  En3  v060
 BYTE   W48
//  #04 //003   ----------------------------------------
 BYTE   W96
//  #04 //004   ----------------------------------------
 BYTE   W96
//  #04 //005   ----------------------------------------
 BYTE   W96
//  #04 //006   ----------------------------------------
 BYTE   W44
 BYTE   W03
 BYTE   EOT
 BYTE   W01
 BYTE   N88  En3  v056
 BYTE   W48
//  #04 //007   ----------------------------------------
 BYTE   W48
 BYTE   Dn3
 BYTE   W48
//  #04 //008   ----------------------------------------
 BYTE   W48
 BYTE   TIE  En3
 BYTE   W48
//  #04 //009   ----------------------------------------
 BYTE   W88
 BYTE   W01
 BYTE   EOT
 BYTE   W07
//  #04 //010   ----------------------------------------
Label_01696289:
 BYTE   N40  Ds3  v056
 BYTE   W48
 BYTE   N88  En3
 BYTE   W48
 BYTE   PEND 
//  #04 //011   ----------------------------------------
 BYTE   W48
 BYTE   Dn3
 BYTE   W48
//  #04 //012   ----------------------------------------
 BYTE   W48
 BYTE   N40  Cn3
 BYTE   W48
//  #04 //013   ----------------------------------------
Label_01696298:
 BYTE   N40  Dn3  v056
 BYTE   W48
 BYTE   En3
 BYTE   W48
 BYTE   PEND 
//  #04 //014   ----------------------------------------
Label_0169629F:
 BYTE   N40  Fs3  v056
 BYTE   W48
 BYTE   TIE  En3  v060
 BYTE   W48
 BYTE   PEND 
//  #04 //015   ----------------------------------------
 BYTE   W96
//  #04 //016   ----------------------------------------
 BYTE   W96
//  #04 //017   ----------------------------------------
 BYTE   W96
//  #04 //018   ----------------------------------------
 BYTE   W40
 BYTE   W01
 BYTE   EOT
 BYTE   W07
 BYTE   N88  En3  v056
 BYTE   W48
//  #04 //019   ----------------------------------------
 BYTE   W48
 BYTE   Dn3
 BYTE   W48
//  #04 //020   ----------------------------------------
 BYTE   W48
 BYTE   TIE  En3
 BYTE   W48
//  #04 //021   ----------------------------------------
 BYTE   W88
 BYTE   W01
 BYTE   EOT
 BYTE   W07
//  #04 //022   ----------------------------------------
 BYTE   PATT
  POIN2 Label_01696289
//  #04 //023   ----------------------------------------
 BYTE   W48
 BYTE   N88  Dn3  v056
 BYTE   W48
//  #04 //024   ----------------------------------------
 BYTE   W48
 BYTE   N40  Cn3
 BYTE   W48
//  #04 //025   ----------------------------------------
 BYTE   PATT
  POIN2 Label_01696298
//  #04 //026   ----------------------------------------
 BYTE   PATT
  POIN2 Label_0169629F
//  #04 //027   ----------------------------------------
 BYTE   W96
//  #04 //028   ----------------------------------------
 BYTE   W96
//  #04 //029   ----------------------------------------
 BYTE   W40
 BYTE   W01
 BYTE   EOT
 BYTE   En3
 BYTE   W07
 BYTE   N88  Fs3  v060
 BYTE   W48
//  #04 //030   ----------------------------------------
 BYTE   W96
//  #04 //031   ----------------------------------------
 BYTE   W96
//  #04 //032   ----------------------------------------
 BYTE   W96
//  #04 //033   ----------------------------------------
 BYTE   W96
//  #04 //034   ----------------------------------------
 BYTE   W96
//  #04 //035   ----------------------------------------
 BYTE   W96
//  #04 //036   ----------------------------------------
 BYTE   W96
//  #04 //037   ----------------------------------------
 BYTE   W96
//  #04 //038   ----------------------------------------
 BYTE   W96
//  #04 //039   ----------------------------------------
 BYTE   W96
//  #04 //040   ----------------------------------------
 BYTE   W96
//  #04 //041   ----------------------------------------
 BYTE   W96
//  #04 //042   ----------------------------------------
 BYTE   W96
//  #04 //043   ----------------------------------------
 BYTE   W96
//  #04 //044   ----------------------------------------
 BYTE   W96
//  #04 //045   ----------------------------------------
 BYTE   W96
//  #04 //046   ----------------------------------------
 BYTE   W96
//  #04 //047   ----------------------------------------
 BYTE   W96
//  #04 //048   ----------------------------------------
 BYTE   W96
//  #04 //049   ----------------------------------------
 BYTE   W96
//  #04 //050   ----------------------------------------
 BYTE   W96
//  #04 //051   ----------------------------------------
 BYTE   W96
//  #04 //052   ----------------------------------------
 BYTE   W96
//  #04 //053   ----------------------------------------
 BYTE   W96
//  #04 //054   ----------------------------------------
 BYTE   W96
//  #04 //055   ----------------------------------------
 BYTE   W96
//  #04 //056   ----------------------------------------
 BYTE   W96
//  #04 //057   ----------------------------------------
 BYTE   W96
//  #04 //058   ----------------------------------------
 BYTE   W96
//  #04 //059   ----------------------------------------
 BYTE   W96
//  #04 //060   ----------------------------------------
 BYTE   W96
//  #04 //061   ----------------------------------------
 BYTE   W96
//  #04 //062   ----------------------------------------
 BYTE   W72
 BYTE   N09  En3  v112
 BYTE   W24
//  #04 //063   ----------------------------------------
 BYTE   N56  Ds3
 BYTE   W72
 BYTE   N09
 BYTE   W24
//  #04 //064   ----------------------------------------
 BYTE   N44  Dn3
 BYTE   W72
 BYTE   N09  En3
 BYTE   W24
//  #04 //065   ----------------------------------------
 BYTE   N44  Ds3
 BYTE   W72
 BYTE   N09
 BYTE   W24
//  #04 //066   ----------------------------------------
 BYTE   N44  En3
 BYTE   W72
 BYTE   N09  Gn3
 BYTE   W24
//  #04 //067   ----------------------------------------
 BYTE   N56  Fs3
 BYTE   W72
 BYTE   N09
 BYTE   W24
//  #04 //068   ----------------------------------------
 BYTE   N44  Fn3
 BYTE   W48
 BYTE   N92  Fs3  v088
 BYTE   W48
//  #04 //069   ----------------------------------------
 BYTE   W48
 BYTE   N44  En3
 BYTE   W48
//  #04 //070   ----------------------------------------
 BYTE   Ds3
 BYTE   W48
 BYTE   GoTo
  POIN2 Label_0169626F
 BYTE   FINE

//**************** Track 5 (Midi-Chn.4) ****************//

CastlevaniaDawnofSorrowThePinnacle_005:
//  #05 //000   ----------------------------------------
 BYTE   KEYSH   CastlevaniaDawnofSorrowThePinnacle_key+0
 BYTE   VOICE   101
 BYTE   MODT 0
 BYTE   LFOS 44
 BYTE   VOL   48*CastlevaniaDawnofSorrowThePinnacle_mvl/mxv
 BYTE   BENDR  2
 BYTE   PAN   c_v-26
 BYTE   VOL   48*CastlevaniaDawnofSorrowThePinnacle_mvl/mxv
 BYTE   MOD 0
 BYTE   BEND   c_v+0
 BYTE   W48
 BYTE   N92  Bn2  v088
 BYTE   W48
//  #05 //001   ----------------------------------------
 BYTE   W48
 BYTE   N44  An2
 BYTE   W48
//  #05 //002   ----------------------------------------
 BYTE   Fs2
 BYTE   W48
Label_01696353:
 BYTE   W48
//  #05 //003   ----------------------------------------
 BYTE   W96
//  #05 //004   ----------------------------------------
 BYTE   W96
//  #05 //005   ----------------------------------------
 BYTE   W96
//  #05 //006   ----------------------------------------
Label_01696357:
 BYTE   W48
 BYTE   TIE  Bn2  v056
 BYTE   W48
 BYTE   PEND 
//  #05 //007   ----------------------------------------
 BYTE   W96
//  #05 //008   ----------------------------------------
 BYTE   W40
 BYTE   W01
 BYTE   EOT
 BYTE   W07
 BYTE   TIE
 BYTE   W48
//  #05 //009   ----------------------------------------
 BYTE   W96
//  #05 //010   ----------------------------------------
 BYTE   W40
 BYTE   W01
 BYTE   EOT
 BYTE   W07
 BYTE   TIE
 BYTE   W48
//  #05 //011   ----------------------------------------
 BYTE   W96
//  #05 //012   ----------------------------------------
 BYTE   W40
 BYTE   W01
 BYTE   EOT
 BYTE   W07
 BYTE   N40  An2
 BYTE   W48
//  #05 //013   ----------------------------------------
Label_01696373:
 BYTE   N40  Bn2  v056
 BYTE   W48
 BYTE   Cn3
 BYTE   W48
 BYTE   PEND 
//  #05 //014   ----------------------------------------
 BYTE   Dn3
 BYTE   W96
//  #05 //015   ----------------------------------------
 BYTE   W96
//  #05 //016   ----------------------------------------
 BYTE   W96
//  #05 //017   ----------------------------------------
 BYTE   W96
//  #05 //018   ----------------------------------------
 BYTE   PATT
  POIN2 Label_01696357
//  #05 //019   ----------------------------------------
 BYTE   W96
//  #05 //020   ----------------------------------------
 BYTE   W40
 BYTE   W01
 BYTE   EOT
 BYTE   Bn2
 BYTE   W07
 BYTE   TIE  Bn2  v056
 BYTE   W48
//  #05 //021   ----------------------------------------
 BYTE   W96
//  #05 //022   ----------------------------------------
 BYTE   W40
 BYTE   W01
 BYTE   EOT
 BYTE   W07
 BYTE   TIE
 BYTE   W48
//  #05 //023   ----------------------------------------
 BYTE   W96
//  #05 //024   ----------------------------------------
 BYTE   W40
 BYTE   W01
 BYTE   EOT
 BYTE   W07
 BYTE   N40  An2
 BYTE   W48
//  #05 //025   ----------------------------------------
 BYTE   PATT
  POIN2 Label_01696373
//  #05 //026   ----------------------------------------
 BYTE   N40  Dn3  v056
 BYTE   W96
//  #05 //027   ----------------------------------------
 BYTE   W96
//  #05 //028   ----------------------------------------
 BYTE   W96
//  #05 //029   ----------------------------------------
 BYTE   W96
//  #05 //030   ----------------------------------------
 BYTE   W96
//  #05 //031   ----------------------------------------
 BYTE   W96
//  #05 //032   ----------------------------------------
 BYTE   W96
//  #05 //033   ----------------------------------------
 BYTE   W96
//  #05 //034   ----------------------------------------
 BYTE   W96
//  #05 //035   ----------------------------------------
 BYTE   W96
//  #05 //036   ----------------------------------------
 BYTE   W96
//  #05 //037   ----------------------------------------
 BYTE   W96
//  #05 //038   ----------------------------------------
 BYTE   W96
//  #05 //039   ----------------------------------------
 BYTE   W96
//  #05 //040   ----------------------------------------
 BYTE   W96
//  #05 //041   ----------------------------------------
 BYTE   W96
//  #05 //042   ----------------------------------------
 BYTE   W96
//  #05 //043   ----------------------------------------
 BYTE   W96
//  #05 //044   ----------------------------------------
 BYTE   W96
//  #05 //045   ----------------------------------------
 BYTE   W96
//  #05 //046   ----------------------------------------
 BYTE   W96
//  #05 //047   ----------------------------------------
 BYTE   W96
//  #05 //048   ----------------------------------------
 BYTE   W96
//  #05 //049   ----------------------------------------
 BYTE   W96
//  #05 //050   ----------------------------------------
 BYTE   W96
//  #05 //051   ----------------------------------------
 BYTE   W96
//  #05 //052   ----------------------------------------
 BYTE   W96
//  #05 //053   ----------------------------------------
 BYTE   W96
//  #05 //054   ----------------------------------------
 BYTE   W96
//  #05 //055   ----------------------------------------
 BYTE   W96
//  #05 //056   ----------------------------------------
 BYTE   W96
//  #05 //057   ----------------------------------------
 BYTE   W96
//  #05 //058   ----------------------------------------
 BYTE   W96
//  #05 //059   ----------------------------------------
 BYTE   W96
//  #05 //060   ----------------------------------------
 BYTE   W96
//  #05 //061   ----------------------------------------
 BYTE   W96
//  #05 //062   ----------------------------------------
 BYTE   W72
 BYTE   N09  Gs3  v112
 BYTE   N09  Bn3
 BYTE   W24
//  #05 //063   ----------------------------------------
 BYTE   N56  Gn3
 BYTE   N56  As3
 BYTE   W72
 BYTE   N09  Gn3
 BYTE   N09  As3
 BYTE   W24
//  #05 //064   ----------------------------------------
 BYTE   N44  Fs3
 BYTE   N44  An3
 BYTE   W72
 BYTE   N09  Gs3
 BYTE   N09  Bn3
 BYTE   W24
//  #05 //065   ----------------------------------------
 BYTE   N44  Gn3
 BYTE   N44  As3
 BYTE   W72
 BYTE   N09  Gn3
 BYTE   N09  As3
 BYTE   W24
//  #05 //066   ----------------------------------------
 BYTE   N44  Gs3
 BYTE   N44  Bn3
 BYTE   W72
 BYTE   N09
 BYTE   N09  Dn4
 BYTE   W24
//  #05 //067   ----------------------------------------
 BYTE   N56  As3
 BYTE   N56  Cs4
 BYTE   W72
 BYTE   N09  As3
 BYTE   N09  Cs4
 BYTE   W24
//  #05 //068   ----------------------------------------
 BYTE   N44  An3
 BYTE   N44  Cn4
 BYTE   W48
 BYTE   N92  Bn2  v088
 BYTE   W48
//  #05 //069   ----------------------------------------
 BYTE   W48
 BYTE   N44  An2
 BYTE   W48
//  #05 //070   ----------------------------------------
 BYTE   Fs2
 BYTE   W48
 BYTE   GoTo
  POIN2 Label_01696353
 BYTE   FINE

//**************** Track 6 (Midi-Chn.5) ****************//

CastlevaniaDawnofSorrowThePinnacle_006:
//  #06 //000   ----------------------------------------
 BYTE   KEYSH   CastlevaniaDawnofSorrowThePinnacle_key+0
 BYTE   VOICE   2
 BYTE   MODT 0
 BYTE   LFOS 44
 BYTE   VOL   49*CastlevaniaDawnofSorrowThePinnacle_mvl/mxv
 BYTE   BENDR  2
 BYTE   PAN   c_v-8
 BYTE   VOL   49*CastlevaniaDawnofSorrowThePinnacle_mvl/mxv
 BYTE   MOD 0
 BYTE   BEND   c_v+0
 BYTE   W96
//  #06 //001   ----------------------------------------
 BYTE   W96
//  #06 //002   ----------------------------------------
 BYTE   W48
Label_0169642F:
 BYTE   W06
 BYTE   N05  Bn2  v080
 BYTE   W06
 BYTE   En3
 BYTE   W06
 BYTE   Bn2
 BYTE   W06
 BYTE   Gn3
 BYTE   W06
 BYTE   Fs3
 BYTE   W06
 BYTE   En3
 BYTE   W06
 BYTE   Bn2
 BYTE   W06
//  #06 //003   ----------------------------------------
Label_01696440:
 BYTE   W06
 BYTE   N05  Bn2  v080
 BYTE   W06
 BYTE   En3
 BYTE   W06
 BYTE   Bn2
 BYTE   W06
 BYTE   Gn3
 BYTE   W06
 BYTE   Fs3
 BYTE   W06
 BYTE   En3
 BYTE   W06
 BYTE   Bn2
 BYTE   W12
 BYTE   As2
 BYTE   W06
 BYTE   En3
 BYTE   W06
 BYTE   As2
 BYTE   W06
 BYTE   Gn3
 BYTE   W06
 BYTE   Fs3
 BYTE   W06
 BYTE   En3
 BYTE   W06
 BYTE   As2
 BYTE   W06
 BYTE   PEND 
//  #06 //004   ----------------------------------------
Label_01696460:
 BYTE   W06
 BYTE   N05  As2  v080
 BYTE   W06
 BYTE   En3
 BYTE   W06
 BYTE   As2
 BYTE   W06
 BYTE   Gn3
 BYTE   W06
 BYTE   Fs3
 BYTE   W06
 BYTE   En3
 BYTE   W06
 BYTE   As2
 BYTE   W12
 BYTE   Bn2
 BYTE   W06
 BYTE   En3
 BYTE   W06
 BYTE   Bn2
 BYTE   W06
 BYTE   Gn3
 BYTE   W06
 BYTE   Fs3
 BYTE   W06
 BYTE   En3
 BYTE   W06
 BYTE   Bn2
 BYTE   W06
 BYTE   PEND 
//  #06 //005   ----------------------------------------
 BYTE   PATT
  POIN2 Label_01696440
//  #06 //006   ----------------------------------------
Label_01696485:
 BYTE   W06
 BYTE   N05  As2  v080
 BYTE   W06
 BYTE   En3
 BYTE   W06
 BYTE   As2
 BYTE   W06
 BYTE   Gn3
 BYTE   W06
 BYTE   Fs3
 BYTE   W06
 BYTE   En3
 BYTE   W06
 BYTE   As2
 BYTE   W54
 BYTE   PEND 
//  #06 //007   ----------------------------------------
 BYTE   W96
//  #06 //008   ----------------------------------------
 BYTE   W96
//  #06 //009   ----------------------------------------
 BYTE   W96
//  #06 //010   ----------------------------------------
 BYTE   W96
//  #06 //011   ----------------------------------------
 BYTE   W96
//  #06 //012   ----------------------------------------
 BYTE   W96
//  #06 //013   ----------------------------------------
 BYTE   W96
//  #06 //014   ----------------------------------------
Label_0169649E:
 BYTE   W54
 BYTE   N05  Bn2  v080
 BYTE   W06
 BYTE   En3
 BYTE   W06
 BYTE   Bn2
 BYTE   W06
 BYTE   Gn3
 BYTE   W06
 BYTE   Fs3
 BYTE   W06
 BYTE   En3
 BYTE   W06
 BYTE   Bn2
 BYTE   W06
 BYTE   PEND 
//  #06 //015   ----------------------------------------
 BYTE   PATT
  POIN2 Label_01696440
//  #06 //016   ----------------------------------------
 BYTE   PATT
  POIN2 Label_01696460
//  #06 //017   ----------------------------------------
 BYTE   PATT
  POIN2 Label_01696440
//  #06 //018   ----------------------------------------
 BYTE   PATT
  POIN2 Label_01696485
//  #06 //019   ----------------------------------------
 BYTE   W96
//  #06 //020   ----------------------------------------
 BYTE   W96
//  #06 //021   ----------------------------------------
 BYTE   W96
//  #06 //022   ----------------------------------------
 BYTE   W96
//  #06 //023   ----------------------------------------
 BYTE   W96
//  #06 //024   ----------------------------------------
 BYTE   W96
//  #06 //025   ----------------------------------------
 BYTE   W96
//  #06 //026   ----------------------------------------
 BYTE   PATT
  POIN2 Label_0169649E
//  #06 //027   ----------------------------------------
 BYTE   PATT
  POIN2 Label_01696440
//  #06 //028   ----------------------------------------
 BYTE   PATT
  POIN2 Label_01696460
//  #06 //029   ----------------------------------------
 BYTE   W06
 BYTE   N05  Bn2  v080
 BYTE   W06
 BYTE   En3
 BYTE   W06
 BYTE   Bn2
 BYTE   W06
 BYTE   Gn3
 BYTE   W06
 BYTE   Fs3
 BYTE   W06
 BYTE   En3
 BYTE   W06
 BYTE   Bn2
 BYTE   W12
 BYTE   N05
 BYTE   W06
 BYTE   Fs3
 BYTE   W06
 BYTE   Bn2
 BYTE   W06
 BYTE   Bn3
 BYTE   W06
 BYTE   Fs3
 BYTE   W06
 BYTE   Ds3
 BYTE   W06
 BYTE   Bn2
 BYTE   W06
//  #06 //030   ----------------------------------------
 BYTE   W06
 BYTE   N05
 BYTE   W06
 BYTE   Fs3
 BYTE   W06
 BYTE   Bn2
 BYTE   W06
 BYTE   Bn3
 BYTE   W06
 BYTE   Fs3
 BYTE   W06
 BYTE   Ds3
 BYTE   W06
 BYTE   Bn2
 BYTE   W54
//  #06 //031   ----------------------------------------
 BYTE   W96
//  #06 //032   ----------------------------------------
 BYTE   W96
//  #06 //033   ----------------------------------------
 BYTE   W96
//  #06 //034   ----------------------------------------
 BYTE   W96
//  #06 //035   ----------------------------------------
 BYTE   W96
//  #06 //036   ----------------------------------------
 BYTE   W96
//  #06 //037   ----------------------------------------
 BYTE   W96
//  #06 //038   ----------------------------------------
 BYTE   W96
//  #06 //039   ----------------------------------------
 BYTE   W96
//  #06 //040   ----------------------------------------
 BYTE   W96
//  #06 //041   ----------------------------------------
 BYTE   W96
//  #06 //042   ----------------------------------------
 BYTE   W96
//  #06 //043   ----------------------------------------
 BYTE   W96
//  #06 //044   ----------------------------------------
 BYTE   W96
//  #06 //045   ----------------------------------------
 BYTE   W96
//  #06 //046   ----------------------------------------
 BYTE   W96
//  #06 //047   ----------------------------------------
 BYTE   W96
//  #06 //048   ----------------------------------------
 BYTE   W96
//  #06 //049   ----------------------------------------
 BYTE   W96
//  #06 //050   ----------------------------------------
 BYTE   W96
//  #06 //051   ----------------------------------------
 BYTE   W96
//  #06 //052   ----------------------------------------
 BYTE   W96
//  #06 //053   ----------------------------------------
 BYTE   W96
//  #06 //054   ----------------------------------------
 BYTE   W96
//  #06 //055   ----------------------------------------
 BYTE   W96
//  #06 //056   ----------------------------------------
 BYTE   W96
//  #06 //057   ----------------------------------------
 BYTE   W96
//  #06 //058   ----------------------------------------
 BYTE   W96
//  #06 //059   ----------------------------------------
 BYTE   W96
//  #06 //060   ----------------------------------------
 BYTE   W96
//  #06 //061   ----------------------------------------
 BYTE   W96
//  #06 //062   ----------------------------------------
 BYTE   W96
//  #06 //063   ----------------------------------------
 BYTE   W96
//  #06 //064   ----------------------------------------
 BYTE   W96
//  #06 //065   ----------------------------------------
 BYTE   W96
//  #06 //066   ----------------------------------------
 BYTE   W96
//  #06 //067   ----------------------------------------
 BYTE   W96
//  #06 //068   ----------------------------------------
 BYTE   W96
//  #06 //069   ----------------------------------------
 BYTE   W96
//  #06 //070   ----------------------------------------
 BYTE   W48
 BYTE   GoTo
  POIN2 Label_0169642F
 BYTE   FINE

//**************** Track 7 (Midi-Chn.6) ****************//

CastlevaniaDawnofSorrowThePinnacle_007:
//  #07 //000   ----------------------------------------
 BYTE   KEYSH   CastlevaniaDawnofSorrowThePinnacle_key+0
 BYTE   VOICE   73
 BYTE   MODT 0
 BYTE   LFOS 44
 BYTE   BENDR  2
 BYTE   VOL   41*CastlevaniaDawnofSorrowThePinnacle_mvl/mxv
 BYTE   PAN   c_v-15
 BYTE   VOL   41*CastlevaniaDawnofSorrowThePinnacle_mvl/mxv
 BYTE   MOD 0
 BYTE   BEND   c_v+0
 BYTE   W96
//  #07 //001   ----------------------------------------
 BYTE   W96
//  #07 //002   ----------------------------------------
 BYTE   W48
Label_0169654F:
 BYTE   W48
//  #07 //003   ----------------------------------------
 BYTE   W96
//  #07 //004   ----------------------------------------
 BYTE   W96
//  #07 //005   ----------------------------------------
 BYTE   W96
//  #07 //006   ----------------------------------------
 BYTE   W96
//  #07 //007   ----------------------------------------
 BYTE   W96
//  #07 //008   ----------------------------------------
 BYTE   W96
//  #07 //009   ----------------------------------------
 BYTE   W96
//  #07 //010   ----------------------------------------
 BYTE   W96
//  #07 //011   ----------------------------------------
 BYTE   W96
//  #07 //012   ----------------------------------------
 BYTE   W96
//  #07 //013   ----------------------------------------
 BYTE   W96
//  #07 //014   ----------------------------------------
 BYTE   W96
//  #07 //015   ----------------------------------------
 BYTE   W96
//  #07 //016   ----------------------------------------
 BYTE   W96
//  #07 //017   ----------------------------------------
 BYTE   W96
//  #07 //018   ----------------------------------------
 BYTE   W96
//  #07 //019   ----------------------------------------
 BYTE   W96
//  #07 //020   ----------------------------------------
 BYTE   W96
//  #07 //021   ----------------------------------------
 BYTE   W96
//  #07 //022   ----------------------------------------
 BYTE   W96
//  #07 //023   ----------------------------------------
 BYTE   W96
//  #07 //024   ----------------------------------------
 BYTE   W96
//  #07 //025   ----------------------------------------
 BYTE   W96
//  #07 //026   ----------------------------------------
 BYTE   W96
//  #07 //027   ----------------------------------------
 BYTE   W96
//  #07 //028   ----------------------------------------
 BYTE   W96
//  #07 //029   ----------------------------------------
 BYTE   W96
//  #07 //030   ----------------------------------------
 BYTE   W48
 BYTE   N44  En4  v068
 BYTE   W48
//  #07 //031   ----------------------------------------
 BYTE   N15
 BYTE   W16
 BYTE   Fs4
 BYTE   W16
 BYTE   En4
 BYTE   W16
 BYTE   N44  Ds4
 BYTE   W48
//  #07 //032   ----------------------------------------
 BYTE   N42  En4
 BYTE   W48
 BYTE   N44
 BYTE   W48
//  #07 //033   ----------------------------------------
 BYTE   N15
 BYTE   W16
 BYTE   Fs4
 BYTE   W16
 BYTE   En4
 BYTE   W16
 BYTE   N32  Ds4
 BYTE   W36
 BYTE   N11  En4
 BYTE   W12
//  #07 //034   ----------------------------------------
 BYTE   N30  Gs4
 BYTE   W36
 BYTE   N05  En4
 BYTE   W06
 BYTE   Gs4
 BYTE   W06
 BYTE   N92  An4
 BYTE   W48
//  #07 //035   ----------------------------------------
 BYTE   W48
 BYTE   Bn4
 BYTE   W48
//  #07 //036   ----------------------------------------
 BYTE   W48
 BYTE   N44  Cs5
 BYTE   W48
//  #07 //037   ----------------------------------------
 BYTE   N92  Fs4
 BYTE   W96
//  #07 //038   ----------------------------------------
 BYTE   N40  Gs4
 BYTE   W48
 BYTE   N44  En4
 BYTE   W48
//  #07 //039   ----------------------------------------
 BYTE   N15
 BYTE   W16
 BYTE   Gs4
 BYTE   W16
 BYTE   En4
 BYTE   W16
 BYTE   N92  Ds4
 BYTE   W48
//  #07 //040   ----------------------------------------
 BYTE   W48
 BYTE   N44  Cs4
 BYTE   W48
//  #07 //041   ----------------------------------------
 BYTE   N92  Cs5
 BYTE   W96
//  #07 //042   ----------------------------------------
 BYTE   N44  Cn5
 BYTE   W48
 BYTE   Cs5
 BYTE   W48
//  #07 //043   ----------------------------------------
 BYTE   Bn4
 BYTE   W48
 BYTE   An4
 BYTE   W48
//  #07 //044   ----------------------------------------
 BYTE   Fs4
 BYTE   W48
 BYTE   N92  Bn4
 BYTE   W48
//  #07 //045   ----------------------------------------
 BYTE   W48
 BYTE   N68  Cn5
 BYTE   W48
//  #07 //046   ----------------------------------------
 BYTE   W96
//  #07 //047   ----------------------------------------
 BYTE   W96
//  #07 //048   ----------------------------------------
 BYTE   W96
//  #07 //049   ----------------------------------------
 BYTE   W96
//  #07 //050   ----------------------------------------
 BYTE   W96
//  #07 //051   ----------------------------------------
 BYTE   W96
//  #07 //052   ----------------------------------------
 BYTE   W96
//  #07 //053   ----------------------------------------
 BYTE   W96
//  #07 //054   ----------------------------------------
 BYTE   W96
//  #07 //055   ----------------------------------------
 BYTE   W96
//  #07 //056   ----------------------------------------
 BYTE   W96
//  #07 //057   ----------------------------------------
 BYTE   W96
//  #07 //058   ----------------------------------------
 BYTE   W96
//  #07 //059   ----------------------------------------
 BYTE   W96
//  #07 //060   ----------------------------------------
 BYTE   W96
//  #07 //061   ----------------------------------------
 BYTE   W96
//  #07 //062   ----------------------------------------
 BYTE   W96
//  #07 //063   ----------------------------------------
 BYTE   W96
//  #07 //064   ----------------------------------------
 BYTE   W96
//  #07 //065   ----------------------------------------
 BYTE   W96
//  #07 //066   ----------------------------------------
 BYTE   W96
//  #07 //067   ----------------------------------------
 BYTE   W96
//  #07 //068   ----------------------------------------
 BYTE   W96
//  #07 //069   ----------------------------------------
 BYTE   W96
//  #07 //070   ----------------------------------------
 BYTE   W48
 BYTE   GoTo
  POIN2 Label_0169654F
 BYTE   FINE

//**************** Track 8 (Midi-Chn.7) ****************//

CastlevaniaDawnofSorrowThePinnacle_008:
//  #08 //000   ----------------------------------------
 BYTE   KEYSH   CastlevaniaDawnofSorrowThePinnacle_key+0
 BYTE   VOICE   100
 BYTE   MODT 0
 BYTE   LFOS 44
 BYTE   VOL   40*CastlevaniaDawnofSorrowThePinnacle_mvl/mxv
 BYTE   PAN   c_v+11
 BYTE   BENDR  2
 BYTE   VOL   40*CastlevaniaDawnofSorrowThePinnacle_mvl/mxv
 BYTE   MOD 0
 BYTE   BEND   c_v+0
 BYTE   W96
//  #08 //001   ----------------------------------------
 BYTE   W96
//  #08 //002   ----------------------------------------
 BYTE   W48
Label_016965FF:
 BYTE   W48
//  #08 //003   ----------------------------------------
 BYTE   W96
//  #08 //004   ----------------------------------------
 BYTE   W96
//  #08 //005   ----------------------------------------
 BYTE   W96
//  #08 //006   ----------------------------------------
 BYTE   W96
//  #08 //007   ----------------------------------------
 BYTE   W96
//  #08 //008   ----------------------------------------
 BYTE   W96
//  #08 //009   ----------------------------------------
 BYTE   W96
//  #08 //010   ----------------------------------------
 BYTE   W96
//  #08 //011   ----------------------------------------
 BYTE   W96
//  #08 //012   ----------------------------------------
 BYTE   W96
//  #08 //013   ----------------------------------------
 BYTE   W96
//  #08 //014   ----------------------------------------
 BYTE   W96
//  #08 //015   ----------------------------------------
 BYTE   W96
//  #08 //016   ----------------------------------------
 BYTE   W96
//  #08 //017   ----------------------------------------
 BYTE   W96
//  #08 //018   ----------------------------------------
 BYTE   W96
//  #08 //019   ----------------------------------------
 BYTE   W96
//  #08 //020   ----------------------------------------
 BYTE   W96
//  #08 //021   ----------------------------------------
 BYTE   W96
//  #08 //022   ----------------------------------------
 BYTE   W96
//  #08 //023   ----------------------------------------
 BYTE   W96
//  #08 //024   ----------------------------------------
 BYTE   W96
//  #08 //025   ----------------------------------------
 BYTE   W96
//  #08 //026   ----------------------------------------
 BYTE   W96
//  #08 //027   ----------------------------------------
 BYTE   W96
//  #08 //028   ----------------------------------------
 BYTE   W96
//  #08 //029   ----------------------------------------
 BYTE   W96
//  #08 //030   ----------------------------------------
 BYTE   W48
 BYTE   VOL   40*CastlevaniaDawnofSorrowThePinnacle_mvl/mxv
 BYTE   N40  Gs3  v104
 BYTE   W42
 BYTE   N05  Gs3  v048
 BYTE   W06
//  #08 //031   ----------------------------------------
 BYTE   N15  Gs3  v104
 BYTE   W16
 BYTE   An3
 BYTE   W16
 BYTE   Gs3
 BYTE   W16
 BYTE   N44  Gn3
 BYTE   W48
//  #08 //032   ----------------------------------------
 BYTE   N32  Gs3
 BYTE   W36
 BYTE   N11  Gs3  v048
 BYTE   W12
 BYTE   N40  Gs3  v104
 BYTE   W42
 BYTE   N05  Gs3  v048
 BYTE   W06
//  #08 //033   ----------------------------------------
 BYTE   N15  Gs3  v104
 BYTE   W16
 BYTE   An3
 BYTE   W16
 BYTE   Gs3
 BYTE   W16
 BYTE   N32  Gn3
 BYTE   W36
 BYTE   N11  Gs3
 BYTE   W12
//  #08 //034   ----------------------------------------
 BYTE   N28  Cs4
 BYTE   W30
 BYTE   N05  Cs4  v048
 BYTE   W06
 BYTE   Cs4  v104
 BYTE   W06
 BYTE   Ds4
 BYTE   W06
 BYTE   N40  En4
 BYTE   W42
 BYTE   N05  En4  v048
 BYTE   W06
//  #08 //035   ----------------------------------------
 BYTE   N15  En4  v104
 BYTE   W16
 BYTE   Fs4
 BYTE   W16
 BYTE   En4
 BYTE   W16
 BYTE   N28
 BYTE   W30
 BYTE   N05  En4  v048
 BYTE   W06
 BYTE   N11  Bn3  v104
 BYTE   W12
//  #08 //036   ----------------------------------------
 BYTE   N28  Gs4
 BYTE   W30
 BYTE   N05  Gs4  v048
 BYTE   W06
 BYTE   N11  Gs4  v104
 BYTE   W12
 BYTE   N23
 BYTE   W24
 BYTE   Fs4
 BYTE   W24
//  #08 //037   ----------------------------------------
 BYTE   Cs4
 BYTE   W24
 BYTE   Fs4
 BYTE   W24
 BYTE   En4
 BYTE   W24
 BYTE   N17  Ds4
 BYTE   W18
 BYTE   N05  Ds4  v048
 BYTE   W06
//  #08 //038   ----------------------------------------
 BYTE   N23  Ds4  v104
 BYTE   W24
 BYTE   N17  Gs4
 BYTE   W18
 BYTE   N05  Gs4  v048
 BYTE   W06
 BYTE   N40  Gs4  v104
 BYTE   W42
 BYTE   N05  Gs4  v048
 BYTE   W06
//  #08 //039   ----------------------------------------
 BYTE   N15  Gs4  v104
 BYTE   W16
 BYTE   Cs5
 BYTE   W16
 BYTE   Gs4
 BYTE   W16
 BYTE   N44
 BYTE   W48
//  #08 //040   ----------------------------------------
 BYTE   Fs4
 BYTE   W48
 BYTE   N40  En4
 BYTE   W42
 BYTE   N05  En4  v048
 BYTE   W06
//  #08 //041   ----------------------------------------
 BYTE   N15  En4  v104
 BYTE   W16
 BYTE   An4
 BYTE   W16
 BYTE   En4
 BYTE   W16
 BYTE   N40  Gs4
 BYTE   W42
 BYTE   N05  Gs4  v048
 BYTE   W06
//  #08 //042   ----------------------------------------
 BYTE   N23  Gs4  v104
 BYTE   W24
 BYTE   N11  Gs4  v048
 BYTE   W12
 BYTE   N05  Cs4  v104
 BYTE   W06
 BYTE   Ds4
 BYTE   W06
 BYTE   N15  En4
 BYTE   W16
 BYTE   Ds4
 BYTE   W16
 BYTE   Cs4
 BYTE   W16
//  #08 //043   ----------------------------------------
 BYTE   Fs4
 BYTE   W16
 BYTE   En4
 BYTE   W16
 BYTE   Ds4
 BYTE   W16
 BYTE   En4
 BYTE   W16
 BYTE   Cs4
 BYTE   W16
 BYTE   Ds4
 BYTE   W16
//  #08 //044   ----------------------------------------
 BYTE   En4
 BYTE   W16
 BYTE   N14  Fs4
 BYTE   W14
 BYTE   N01  Fs4  v048
 BYTE   W06
 BYTE   N05  Fs4  v104
 BYTE   W06
 BYTE   Gn4
 BYTE   W06
 BYTE   TIE  Gs4
 BYTE   W01
 BYTE   VOL   40*CastlevaniaDawnofSorrowThePinnacle_mvl/mxv
 BYTE   W03
 BYTE   VOL   39*CastlevaniaDawnofSorrowThePinnacle_mvl/mxv
 BYTE   W03
 BYTE   VOL   38*CastlevaniaDawnofSorrowThePinnacle_mvl/mxv
 BYTE   W03
 BYTE   VOL   38*CastlevaniaDawnofSorrowThePinnacle_mvl/mxv
 BYTE   W03
 BYTE   VOL   37*CastlevaniaDawnofSorrowThePinnacle_mvl/mxv
 BYTE   W03
 BYTE   VOL   37*CastlevaniaDawnofSorrowThePinnacle_mvl/mxv
 BYTE   W03
 BYTE   VOL   37*CastlevaniaDawnofSorrowThePinnacle_mvl/mxv
 BYTE   W03
 BYTE   VOL   36*CastlevaniaDawnofSorrowThePinnacle_mvl/mxv
 BYTE   W03
 BYTE   VOL   35*CastlevaniaDawnofSorrowThePinnacle_mvl/mxv
 BYTE   W03
 BYTE   VOL   35*CastlevaniaDawnofSorrowThePinnacle_mvl/mxv
 BYTE   W03
 BYTE   VOL   34*CastlevaniaDawnofSorrowThePinnacle_mvl/mxv
 BYTE   W03
 BYTE   VOL   34*CastlevaniaDawnofSorrowThePinnacle_mvl/mxv
 BYTE   W03
 BYTE   VOL   34*CastlevaniaDawnofSorrowThePinnacle_mvl/mxv
 BYTE   W03
 BYTE   VOL   33*CastlevaniaDawnofSorrowThePinnacle_mvl/mxv
 BYTE   W03
 BYTE   VOL   32*CastlevaniaDawnofSorrowThePinnacle_mvl/mxv
 BYTE   W03
 BYTE   VOL   31*CastlevaniaDawnofSorrowThePinnacle_mvl/mxv
 BYTE   W02
//  #08 //045   ----------------------------------------
 BYTE   W01
 BYTE   VOL   30*CastlevaniaDawnofSorrowThePinnacle_mvl/mxv
 BYTE   W03
 BYTE   VOL   30*CastlevaniaDawnofSorrowThePinnacle_mvl/mxv
 BYTE   W03
 BYTE   VOL   30*CastlevaniaDawnofSorrowThePinnacle_mvl/mxv
 BYTE   W03
 BYTE   VOL   29*CastlevaniaDawnofSorrowThePinnacle_mvl/mxv
 BYTE   W03
 BYTE   VOL   29*CastlevaniaDawnofSorrowThePinnacle_mvl/mxv
 BYTE   W03
 BYTE   VOL   28*CastlevaniaDawnofSorrowThePinnacle_mvl/mxv
 BYTE   W03
 BYTE   VOL   28*CastlevaniaDawnofSorrowThePinnacle_mvl/mxv
 BYTE   W03
 BYTE   VOL   28*CastlevaniaDawnofSorrowThePinnacle_mvl/mxv
 BYTE   W01
 BYTE   VOL   27*CastlevaniaDawnofSorrowThePinnacle_mvl/mxv
 BYTE   W08
 BYTE   VOL   28*CastlevaniaDawnofSorrowThePinnacle_mvl/mxv
 BYTE   W03
 BYTE   VOL   28*CastlevaniaDawnofSorrowThePinnacle_mvl/mxv
 BYTE   W04
 BYTE   VOL   28*CastlevaniaDawnofSorrowThePinnacle_mvl/mxv
 BYTE   W04
 BYTE   VOL   29*CastlevaniaDawnofSorrowThePinnacle_mvl/mxv
 BYTE   W04
 BYTE   VOL   29*CastlevaniaDawnofSorrowThePinnacle_mvl/mxv
 BYTE   W04
 BYTE   VOL   30*CastlevaniaDawnofSorrowThePinnacle_mvl/mxv
 BYTE   W04
 BYTE   VOL   30*CastlevaniaDawnofSorrowThePinnacle_mvl/mxv
 BYTE   W03
 BYTE   VOL   30*CastlevaniaDawnofSorrowThePinnacle_mvl/mxv
 BYTE   W04
 BYTE   VOL   31*CastlevaniaDawnofSorrowThePinnacle_mvl/mxv
 BYTE   W04
 BYTE   VOL   32*CastlevaniaDawnofSorrowThePinnacle_mvl/mxv
 BYTE   W04
 BYTE   VOL   32*CastlevaniaDawnofSorrowThePinnacle_mvl/mxv
 BYTE   W04
 BYTE   VOL   33*CastlevaniaDawnofSorrowThePinnacle_mvl/mxv
 BYTE   W03
 BYTE   VOL   34*CastlevaniaDawnofSorrowThePinnacle_mvl/mxv
 BYTE   W04
 BYTE   VOL   34*CastlevaniaDawnofSorrowThePinnacle_mvl/mxv
 BYTE   W04
 BYTE   VOL   34*CastlevaniaDawnofSorrowThePinnacle_mvl/mxv
 BYTE   W04
 BYTE   VOL   35*CastlevaniaDawnofSorrowThePinnacle_mvl/mxv
 BYTE   W04
 BYTE   VOL   35*CastlevaniaDawnofSorrowThePinnacle_mvl/mxv
 BYTE   W04
//  #08 //046   ----------------------------------------
 BYTE   VOL   36*CastlevaniaDawnofSorrowThePinnacle_mvl/mxv
 BYTE   W03
 BYTE   VOL   37*CastlevaniaDawnofSorrowThePinnacle_mvl/mxv
 BYTE   W04
 BYTE   VOL   37*CastlevaniaDawnofSorrowThePinnacle_mvl/mxv
 BYTE   W04
 BYTE   VOL   37*CastlevaniaDawnofSorrowThePinnacle_mvl/mxv
 BYTE   W04
 BYTE   VOL   38*CastlevaniaDawnofSorrowThePinnacle_mvl/mxv
 BYTE   W04
 BYTE   VOL   38*CastlevaniaDawnofSorrowThePinnacle_mvl/mxv
 BYTE   W04
 BYTE   EOT
 BYTE   VOL   40*CastlevaniaDawnofSorrowThePinnacle_mvl/mxv
 BYTE   W01
 BYTE   N23  Gs4  v048
 BYTE   W44
 BYTE   VOL   40*CastlevaniaDawnofSorrowThePinnacle_mvl/mxv
 BYTE   W28
//  #08 //047   ----------------------------------------
 BYTE   W96
//  #08 //048   ----------------------------------------
 BYTE   W96
//  #08 //049   ----------------------------------------
 BYTE   W96
//  #08 //050   ----------------------------------------
 BYTE   W96
//  #08 //051   ----------------------------------------
 BYTE   W96
//  #08 //052   ----------------------------------------
 BYTE   W96
//  #08 //053   ----------------------------------------
 BYTE   W96
//  #08 //054   ----------------------------------------
 BYTE   W96
//  #08 //055   ----------------------------------------
 BYTE   W96
//  #08 //056   ----------------------------------------
 BYTE   W96
//  #08 //057   ----------------------------------------
 BYTE   W96
//  #08 //058   ----------------------------------------
 BYTE   W96
//  #08 //059   ----------------------------------------
 BYTE   W96
//  #08 //060   ----------------------------------------
 BYTE   W96
//  #08 //061   ----------------------------------------
 BYTE   W96
//  #08 //062   ----------------------------------------
 BYTE   W96
//  #08 //063   ----------------------------------------
 BYTE   W96
//  #08 //064   ----------------------------------------
 BYTE   W96
//  #08 //065   ----------------------------------------
 BYTE   W96
//  #08 //066   ----------------------------------------
 BYTE   W96
//  #08 //067   ----------------------------------------
 BYTE   W96
//  #08 //068   ----------------------------------------
 BYTE   W96
//  #08 //069   ----------------------------------------
 BYTE   W96
//  #08 //070   ----------------------------------------
 BYTE   W48
 BYTE   GoTo
  POIN2 Label_016965FF
 BYTE   FINE

//**************** Track 9 (Midi-Chn.8) ****************//

CastlevaniaDawnofSorrowThePinnacle_009:
//  #09 //000   ----------------------------------------
 BYTE   KEYSH   CastlevaniaDawnofSorrowThePinnacle_key+0
 BYTE   VOICE   38
 BYTE   MODT 0
 BYTE   LFOS 44
 BYTE   BENDR  2
 BYTE   VOL   62*CastlevaniaDawnofSorrowThePinnacle_mvl/mxv
 BYTE   PAN   c_v+5
 BYTE   VOL   62*CastlevaniaDawnofSorrowThePinnacle_mvl/mxv
 BYTE   MOD 0
 BYTE   BEND   c_v+0
 BYTE   W48
 BYTE   N92  Bn1  v104
 BYTE   W48
//  #09 //001   ----------------------------------------
Label_0169679D:
 BYTE   W48
 BYTE   N21  Cn2  v104
 BYTE   W24
 BYTE   An1
 BYTE   W24
 BYTE   PEND 
//  #09 //002   ----------------------------------------
Label_016967A5:
 BYTE   N21  Fs1  v104
 BYTE   W24
 BYTE   Bn1
 BYTE   W24
 BYTE   PEND 
Label_016967AC:
 BYTE   N08  En1  v104
 BYTE   W12
 BYTE   En1  v088
 BYTE   W12
 BYTE   En1  v104
 BYTE   W12
 BYTE   En1  v088
 BYTE   W12
//  #09 //003   ----------------------------------------
Label_016967B9:
 BYTE   N08  En1  v104
 BYTE   W12
 BYTE   En1  v088
 BYTE   W12
 BYTE   En1  v104
 BYTE   W12
 BYTE   En1  v088
 BYTE   W12
 BYTE   En1  v104
 BYTE   W12
 BYTE   En1  v088
 BYTE   W12
 BYTE   En1  v104
 BYTE   W12
 BYTE   En1  v088
 BYTE   W12
 BYTE   PEND 
//  #09 //004   ----------------------------------------
 BYTE   PATT
  POIN2 Label_016967B9
//  #09 //005   ----------------------------------------
 BYTE   PATT
  POIN2 Label_016967B9
//  #09 //006   ----------------------------------------
 BYTE   N08  En1  v104
 BYTE   W12
 BYTE   En1  v088
 BYTE   W12
 BYTE   En1  v104
 BYTE   W12
 BYTE   Bn1  v088
 BYTE   W12
 BYTE   En2  v104
 BYTE   W12
 BYTE   En2  v088
 BYTE   W12
 BYTE   En2  v104
 BYTE   W12
 BYTE   En2  v088
 BYTE   W12
//  #09 //007   ----------------------------------------
Label_016967F6:
 BYTE   N10  En2  v104
 BYTE   W12
 BYTE   N05  Bn1
 BYTE   W06
 BYTE   N10  En2
 BYTE   W12
 BYTE   N04  En2  v076
 BYTE   W06
 BYTE   N10  Bn1  v104
 BYTE   W12
 BYTE   N08  Dn2
 BYTE   W12
 BYTE   Dn2  v088
 BYTE   W12
 BYTE   Dn2  v104
 BYTE   W12
 BYTE   Dn2  v088
 BYTE   W12
 BYTE   PEND 
//  #09 //008   ----------------------------------------
Label_01696815:
 BYTE   N10  Dn2  v104
 BYTE   W12
 BYTE   N05  An1
 BYTE   W06
 BYTE   N10  Dn2
 BYTE   W12
 BYTE   N04  Dn2  v076
 BYTE   W06
 BYTE   N10  An1  v104
 BYTE   W12
 BYTE   N08  Cn2
 BYTE   W12
 BYTE   Cn2  v088
 BYTE   W12
 BYTE   Cn2  v104
 BYTE   W12
 BYTE   Cn2  v088
 BYTE   W12
 BYTE   PEND 
//  #09 //009   ----------------------------------------
Label_01696834:
 BYTE   N10  Cn2  v104
 BYTE   W12
 BYTE   N05  Gn1
 BYTE   W06
 BYTE   N10  Cn2
 BYTE   W12
 BYTE   N04  Cn2  v076
 BYTE   W06
 BYTE   N10  Gn1  v104
 BYTE   W12
 BYTE   N08  Bn1
 BYTE   W12
 BYTE   Bn1  v088
 BYTE   W12
 BYTE   Bn1  v104
 BYTE   W12
 BYTE   Bn1  v088
 BYTE   W12
 BYTE   PEND 
//  #09 //010   ----------------------------------------
Label_01696853:
 BYTE   N10  Bn1  v104
 BYTE   W12
 BYTE   N05  Fs1
 BYTE   W06
 BYTE   N10  Bn1
 BYTE   W12
 BYTE   N04  Bn1  v076
 BYTE   W06
 BYTE   N10  Fs1  v104
 BYTE   W12
 BYTE   N08  En2
 BYTE   W12
 BYTE   En2  v088
 BYTE   W12
 BYTE   En2  v104
 BYTE   W12
 BYTE   En2  v088
 BYTE   W12
 BYTE   PEND 
//  #09 //011   ----------------------------------------
 BYTE   PATT
  POIN2 Label_016967F6
//  #09 //012   ----------------------------------------
Label_01696877:
 BYTE   N10  Dn2  v104
 BYTE   W12
 BYTE   N05  An1
 BYTE   W06
 BYTE   N10  Dn2
 BYTE   W12
 BYTE   N04  Dn2  v076
 BYTE   W06
 BYTE   N10  An1  v104
 BYTE   W12
 BYTE   N08
 BYTE   W12
 BYTE   An1  v088
 BYTE   W12
 BYTE   An1  v104
 BYTE   W12
 BYTE   An1  v088
 BYTE   W12
 BYTE   PEND 
//  #09 //013   ----------------------------------------
Label_01696895:
 BYTE   N08  Bn1  v104
 BYTE   W12
 BYTE   Bn1  v088
 BYTE   W12
 BYTE   Bn1  v104
 BYTE   W12
 BYTE   Bn1  v088
 BYTE   W12
 BYTE   Cn2  v104
 BYTE   W12
 BYTE   Cn2  v088
 BYTE   W12
 BYTE   Cn2  v104
 BYTE   W12
 BYTE   Cn2  v088
 BYTE   W12
 BYTE   PEND 
//  #09 //014   ----------------------------------------
 BYTE   Dn2  v104
 BYTE   W12
 BYTE   Dn2  v088
 BYTE   W12
 BYTE   Dn2  v104
 BYTE   W12
 BYTE   Dn2  v088
 BYTE   W12
 BYTE   En2  v104
 BYTE   W12
 BYTE   En2  v088
 BYTE   W12
 BYTE   En2  v104
 BYTE   W12
 BYTE   En2  v088
 BYTE   W12
//  #09 //015   ----------------------------------------
Label_016968C7:
 BYTE   N08  En2  v104
 BYTE   W12
 BYTE   En2  v088
 BYTE   W12
 BYTE   En2  v104
 BYTE   W12
 BYTE   En2  v088
 BYTE   W12
 BYTE   En2  v104
 BYTE   W12
 BYTE   En2  v088
 BYTE   W12
 BYTE   En2  v104
 BYTE   W12
 BYTE   En2  v088
 BYTE   W12
 BYTE   PEND 
//  #09 //016   ----------------------------------------
 BYTE   PATT
  POIN2 Label_016968C7
//  #09 //017   ----------------------------------------
 BYTE   PATT
  POIN2 Label_016968C7
//  #09 //018   ----------------------------------------
 BYTE   PATT
  POIN2 Label_016968C7
//  #09 //019   ----------------------------------------
 BYTE   PATT
  POIN2 Label_016967F6
//  #09 //020   ----------------------------------------
 BYTE   PATT
  POIN2 Label_01696815
//  #09 //021   ----------------------------------------
 BYTE   PATT
  POIN2 Label_01696834
//  #09 //022   ----------------------------------------
 BYTE   PATT
  POIN2 Label_01696853
//  #09 //023   ----------------------------------------
 BYTE   PATT
  POIN2 Label_016967F6
//  #09 //024   ----------------------------------------
 BYTE   PATT
  POIN2 Label_01696877
//  #09 //025   ----------------------------------------
 BYTE   PATT
  POIN2 Label_01696895
//  #09 //026   ----------------------------------------
 BYTE   N10  Dn2  v104
 BYTE   W12
 BYTE   N05  An1
 BYTE   W06
 BYTE   N10  Dn2
 BYTE   W12
 BYTE   N04  Dn2  v076
 BYTE   W06
 BYTE   N10  An1  v104
 BYTE   W12
 BYTE   N08  En2
 BYTE   W12
 BYTE   En2  v088
 BYTE   W12
 BYTE   En2  v104
 BYTE   W12
 BYTE   En2  v088
 BYTE   W12
//  #09 //027   ----------------------------------------
 BYTE   PATT
  POIN2 Label_016968C7
//  #09 //028   ----------------------------------------
 BYTE   PATT
  POIN2 Label_016968C7
//  #09 //029   ----------------------------------------
 BYTE   N08  En2  v104
 BYTE   W12
 BYTE   En2  v088
 BYTE   W12
 BYTE   En2  v104
 BYTE   W12
 BYTE   En2  v088
 BYTE   W12
 BYTE   Ds2  v104
 BYTE   W12
 BYTE   Ds2  v088
 BYTE   W12
 BYTE   Ds2  v104
 BYTE   W12
 BYTE   Ds2  v088
 BYTE   W12
//  #09 //030   ----------------------------------------
 BYTE   Ds2  v104
 BYTE   W12
 BYTE   Ds2  v088
 BYTE   W12
 BYTE   Ds2  v104
 BYTE   W12
 BYTE   Ds2  v088
 BYTE   W12
 BYTE   Cs2  v104
 BYTE   W12
 BYTE   Cs2  v088
 BYTE   W12
 BYTE   Cs2  v104
 BYTE   W12
 BYTE   Cs2  v088
 BYTE   W12
//  #09 //031   ----------------------------------------
Label_0169696C:
 BYTE   N08  Cs2  v104
 BYTE   W12
 BYTE   Cs2  v088
 BYTE   W12
 BYTE   Cs2  v104
 BYTE   W12
 BYTE   Cs2  v088
 BYTE   W12
 BYTE   Cs2  v104
 BYTE   W12
 BYTE   Cs2  v088
 BYTE   W12
 BYTE   Cs2  v104
 BYTE   W12
 BYTE   Cs2  v088
 BYTE   W12
 BYTE   PEND 
//  #09 //032   ----------------------------------------
 BYTE   Cs2  v104
 BYTE   W12
 BYTE   Cs2  v088
 BYTE   W12
 BYTE   Cs2  v104
 BYTE   W12
 BYTE   N11  Gs1
 BYTE   W12
 BYTE   N08  Cs2
 BYTE   W12
 BYTE   Cs2  v088
 BYTE   W12
 BYTE   Cs2  v104
 BYTE   W12
 BYTE   Cs2  v088
 BYTE   W12
//  #09 //033   ----------------------------------------
 BYTE   PATT
  POIN2 Label_0169696C
//  #09 //034   ----------------------------------------
 BYTE   N08  Cs2  v104
 BYTE   W12
 BYTE   Cs2  v088
 BYTE   W12
 BYTE   Cs2  v104
 BYTE   W12
 BYTE   Cs2  v088
 BYTE   W12
 BYTE   Fs1  v104
 BYTE   W12
 BYTE   Fs1  v088
 BYTE   W12
 BYTE   Fs1  v104
 BYTE   W12
 BYTE   Fs1  v088
 BYTE   W12
//  #09 //035   ----------------------------------------
 BYTE   Fs1  v104
 BYTE   W12
 BYTE   Fs1  v088
 BYTE   W12
 BYTE   Fs1  v104
 BYTE   W12
 BYTE   N11
 BYTE   W12
 BYTE   N08  Gs1
 BYTE   W12
 BYTE   Gs1  v088
 BYTE   W12
 BYTE   Gs1  v104
 BYTE   W12
 BYTE   Gs1  v088
 BYTE   W12
//  #09 //036   ----------------------------------------
Label_016969D3:
 BYTE   N08  Gs1  v104
 BYTE   W12
 BYTE   Gs1  v088
 BYTE   W12
 BYTE   Gs1  v104
 BYTE   W12
 BYTE   N11
 BYTE   W12
 BYTE   N08  An1
 BYTE   W12
 BYTE   An1  v088
 BYTE   W12
 BYTE   An1  v104
 BYTE   W12
 BYTE   N11
 BYTE   W12
 BYTE   PEND 
//  #09 //037   ----------------------------------------
 BYTE   N08  As1
 BYTE   W12
 BYTE   As1  v088
 BYTE   W12
 BYTE   As1  v104
 BYTE   W12
 BYTE   N11
 BYTE   W12
 BYTE   N08  Bn1
 BYTE   W12
 BYTE   Bn1  v088
 BYTE   W12
 BYTE   Bn1  v104
 BYTE   W12
 BYTE   N11
 BYTE   W12
//  #09 //038   ----------------------------------------
 BYTE   N10  Gs1
 BYTE   W12
 BYTE   N05
 BYTE   W06
 BYTE   N11  Ds2
 BYTE   W12
 BYTE   N04  Gs1  v076
 BYTE   W06
 BYTE   N10  Gs2  v104
 BYTE   W12
 BYTE   N08  Cs2
 BYTE   W12
 BYTE   Cs2  v088
 BYTE   W12
 BYTE   Cs2  v104
 BYTE   W12
 BYTE   Cs2  v088
 BYTE   W12
//  #09 //039   ----------------------------------------
 BYTE   N10  Cs2  v104
 BYTE   W12
 BYTE   N05  Gs1
 BYTE   W06
 BYTE   N10  Cs2
 BYTE   W12
 BYTE   N04  Cs2  v076
 BYTE   W06
 BYTE   N10  Gs1  v104
 BYTE   W12
 BYTE   N08  Bn1
 BYTE   W12
 BYTE   Bn1  v088
 BYTE   W12
 BYTE   Bn1  v104
 BYTE   W12
 BYTE   Bn1  v088
 BYTE   W12
//  #09 //040   ----------------------------------------
 BYTE   N10  Bn1  v104
 BYTE   W12
 BYTE   N05  Fs1
 BYTE   W06
 BYTE   N10  Bn1
 BYTE   W12
 BYTE   N04  Bn1  v076
 BYTE   W06
 BYTE   N10  Fs1  v104
 BYTE   W12
 BYTE   N08  An1
 BYTE   W12
 BYTE   An1  v088
 BYTE   W12
 BYTE   An1  v104
 BYTE   W12
 BYTE   An1  v088
 BYTE   W12
//  #09 //041   ----------------------------------------
 BYTE   N10  An1  v104
 BYTE   W12
 BYTE   N05  En1
 BYTE   W06
 BYTE   N10  An1
 BYTE   W12
 BYTE   N04  An1  v076
 BYTE   W06
 BYTE   N10  En1  v104
 BYTE   W12
 BYTE   N08  Gs1
 BYTE   W12
 BYTE   Gs1  v088
 BYTE   W12
 BYTE   Gs1  v104
 BYTE   W12
 BYTE   Gs1  v088
 BYTE   W12
//  #09 //042   ----------------------------------------
 BYTE   N10  Gs1  v104
 BYTE   W12
 BYTE   N05
 BYTE   W06
 BYTE   N11  Ds2
 BYTE   W12
 BYTE   N04  Gs1  v076
 BYTE   W06
 BYTE   N10  Gs2  v104
 BYTE   W12
 BYTE   N08  Fs1
 BYTE   W12
 BYTE   Fs1  v088
 BYTE   W12
 BYTE   Fs1  v104
 BYTE   W12
 BYTE   N11
 BYTE   W12
//  #09 //043   ----------------------------------------
 BYTE   PATT
  POIN2 Label_016969D3
//  #09 //044   ----------------------------------------
 BYTE   N08  As1  v104
 BYTE   W12
 BYTE   As1  v088
 BYTE   W12
 BYTE   As1  v104
 BYTE   W12
 BYTE   N11
 BYTE   W12
 BYTE   N08  Bn1
 BYTE   W12
 BYTE   Bn1  v088
 BYTE   W12
 BYTE   Bn1  v104
 BYTE   W12
 BYTE   Bn1  v088
 BYTE   W12
//  #09 //045   ----------------------------------------
 BYTE   Bn1  v104
 BYTE   W12
 BYTE   Bn1  v088
 BYTE   W12
 BYTE   Bn1  v104
 BYTE   W12
 BYTE   Bn1  v088
 BYTE   W12
 BYTE   Gs1  v104
 BYTE   W12
 BYTE   Gs1  v088
 BYTE   W12
 BYTE   Gs1  v104
 BYTE   W12
 BYTE   Gs1  v088
 BYTE   W12
//  #09 //046   ----------------------------------------
 BYTE   N10  Gs1  v104
 BYTE   W12
 BYTE   N05  Ds1
 BYTE   W06
 BYTE   N10  Gs1
 BYTE   W12
 BYTE   N05  Ds1
 BYTE   W06
 BYTE   N10  Gs1
 BYTE   W12
 BYTE   N08  Cs2
 BYTE   W12
 BYTE   Cs2  v088
 BYTE   W12
 BYTE   Cs2  v104
 BYTE   W12
 BYTE   Cs2  v088
 BYTE   W12
//  #09 //047   ----------------------------------------
Label_01696AE4:
 BYTE   N08  Cs2  v104
 BYTE   W12
 BYTE   Cs2  v088
 BYTE   W12
 BYTE   Cs2  v104
 BYTE   W12
 BYTE   Cs2  v088
 BYTE   W12
 BYTE   Gs1  v104
 BYTE   W12
 BYTE   Gs1  v088
 BYTE   W12
 BYTE   Gs1  v104
 BYTE   W12
 BYTE   Gs1  v088
 BYTE   W12
 BYTE   PEND 
//  #09 //048   ----------------------------------------
Label_01696AFE:
 BYTE   N08  Gs1  v104
 BYTE   W12
 BYTE   Gs1  v088
 BYTE   W12
 BYTE   Gs1  v104
 BYTE   W12
 BYTE   Gs1  v088
 BYTE   W12
 BYTE   An1  v104
 BYTE   W12
 BYTE   An1  v088
 BYTE   W12
 BYTE   An1  v104
 BYTE   W12
 BYTE   An1  v088
 BYTE   W12
 BYTE   PEND 
//  #09 //049   ----------------------------------------
Label_01696B18:
 BYTE   N08  An1  v104
 BYTE   W12
 BYTE   An1  v088
 BYTE   W12
 BYTE   An1  v104
 BYTE   W12
 BYTE   An1  v088
 BYTE   W12
 BYTE   Gs1  v104
 BYTE   W12
 BYTE   Gs1  v088
 BYTE   W12
 BYTE   Gs1  v104
 BYTE   W12
 BYTE   Gs1  v088
 BYTE   W12
 BYTE   PEND 
//  #09 //050   ----------------------------------------
Label_01696B32:
 BYTE   N08  Cs2  v104
 BYTE   W12
 BYTE   Cs2  v088
 BYTE   W12
 BYTE   Cs2  v104
 BYTE   W12
 BYTE   Cs2  v088
 BYTE   W12
 BYTE   Ds2  v104
 BYTE   W12
 BYTE   Ds2  v088
 BYTE   W12
 BYTE   Ds2  v104
 BYTE   W12
 BYTE   Ds2  v088
 BYTE   W12
 BYTE   PEND 
//  #09 //051   ----------------------------------------
Label_01696B4C:
 BYTE   N08  Gs1  v104
 BYTE   W12
 BYTE   Gs1  v088
 BYTE   W12
 BYTE   Gs1  v104
 BYTE   W12
 BYTE   Gs1  v088
 BYTE   W12
 BYTE   Cs2  v104
 BYTE   W12
 BYTE   Cs2  v088
 BYTE   W12
 BYTE   Cs2  v104
 BYTE   W12
 BYTE   Cs2  v088
 BYTE   W12
 BYTE   PEND 
//  #09 //052   ----------------------------------------
 BYTE   Bn1  v104
 BYTE   W12
 BYTE   Bn1  v088
 BYTE   W12
 BYTE   Bn1  v104
 BYTE   W12
 BYTE   Bn1  v088
 BYTE   W12
 BYTE   As1  v104
 BYTE   W12
 BYTE   As1  v088
 BYTE   W12
 BYTE   As1  v104
 BYTE   W12
 BYTE   As1  v088
 BYTE   W12
//  #09 //053   ----------------------------------------
 BYTE   Ds1  v104
 BYTE   W12
 BYTE   Ds1  v088
 BYTE   W12
 BYTE   Ds1  v104
 BYTE   W12
 BYTE   Ds1  v088
 BYTE   W12
 BYTE   Gs1  v104
 BYTE   W12
 BYTE   Gs1  v088
 BYTE   W12
 BYTE   Gs1  v104
 BYTE   W12
 BYTE   Gs1  v088
 BYTE   W12
//  #09 //054   ----------------------------------------
 BYTE   PATT
  POIN2 Label_01696B4C
//  #09 //055   ----------------------------------------
 BYTE   PATT
  POIN2 Label_01696AE4
//  #09 //056   ----------------------------------------
 BYTE   PATT
  POIN2 Label_01696AFE
//  #09 //057   ----------------------------------------
 BYTE   PATT
  POIN2 Label_01696B18
//  #09 //058   ----------------------------------------
 BYTE   PATT
  POIN2 Label_01696B32
//  #09 //059   ----------------------------------------
 BYTE   N08  Gs1  v104
 BYTE   W12
 BYTE   Gs1  v088
 BYTE   W12
 BYTE   Gs1  v104
 BYTE   W12
 BYTE   Gs1  v088
 BYTE   W12
 BYTE   Cs2  v104
 BYTE   W12
 BYTE   Cs2  v088
 BYTE   W12
 BYTE   Bn1  v104
 BYTE   W12
 BYTE   Bn1  v088
 BYTE   W12
//  #09 //060   ----------------------------------------
 BYTE   As1  v104
 BYTE   W12
 BYTE   As1  v088
 BYTE   W12
 BYTE   As1  v104
 BYTE   W12
 BYTE   As1  v088
 BYTE   W12
 BYTE   An1  v104
 BYTE   W12
 BYTE   An1  v088
 BYTE   W12
 BYTE   An1  v104
 BYTE   W12
 BYTE   An1  v088
 BYTE   W12
//  #09 //061   ----------------------------------------
 BYTE   PATT
  POIN2 Label_01696B18
//  #09 //062   ----------------------------------------
 BYTE   PATT
  POIN2 Label_01696B4C
//  #09 //063   ----------------------------------------
 BYTE   PATT
  POIN2 Label_0169696C
//  #09 //064   ----------------------------------------
 BYTE   PATT
  POIN2 Label_0169696C
//  #09 //065   ----------------------------------------
 BYTE   PATT
  POIN2 Label_0169696C
//  #09 //066   ----------------------------------------
 BYTE   N08  Cs2  v104
 BYTE   W12
 BYTE   Cs2  v088
 BYTE   W12
 BYTE   Cs2  v104
 BYTE   W12
 BYTE   Cs2  v088
 BYTE   W12
 BYTE   En2  v104
 BYTE   W12
 BYTE   En2  v088
 BYTE   W12
 BYTE   En2  v104
 BYTE   W12
 BYTE   En2  v088
 BYTE   W12
//  #09 //067   ----------------------------------------
 BYTE   PATT
  POIN2 Label_016968C7
//  #09 //068   ----------------------------------------
 BYTE   N08  En2  v104
 BYTE   W12
 BYTE   En2  v088
 BYTE   W12
 BYTE   En2  v104
 BYTE   W12
 BYTE   En2  v088
 BYTE   W12
 BYTE   N92  Bn1  v104
 BYTE   W48
//  #09 //069   ----------------------------------------
 BYTE   PATT
  POIN2 Label_0169679D
//  #09 //070   ----------------------------------------
 BYTE   PATT
  POIN2 Label_016967A5
//  #09 //071   ----------------------------------------
 BYTE   GoTo
  POIN2 Label_016967AC
 BYTE   FINE

//**************** Track 10 (Midi-Chn.9) ****************//

CastlevaniaDawnofSorrowThePinnacle_010:
//  #10 //000   ----------------------------------------
 BYTE   KEYSH   CastlevaniaDawnofSorrowThePinnacle_key+0
 BYTE   VOICE   127
 BYTE   MODT 0
 BYTE   LFOS 44
 BYTE   VOL   42*CastlevaniaDawnofSorrowThePinnacle_mvl/mxv
 BYTE   BENDR  2
 BYTE   PAN   c_v+0
 BYTE   VOL   42*CastlevaniaDawnofSorrowThePinnacle_mvl/mxv
 BYTE   MOD 0
 BYTE   BEND   c_v+0
 BYTE   W48
 BYTE   N07  Cn1  v116
 BYTE   N44  Cs2  v068
 BYTE   W48
//  #10 //001   ----------------------------------------
Label_01696C54:
 BYTE   W48
 BYTE   N07  Cn1  v116
 BYTE   N44  Cs2  v056
 BYTE   W24
 BYTE   N07  Cn1  v116
 BYTE   N44  An2  v056
 BYTE   W24
 BYTE   PEND 
//  #10 //002   ----------------------------------------
 BYTE   N03  Cn2  v092
 BYTE   W04
 BYTE   Cn2  v080
 BYTE   W04
 BYTE   Cn2  v092
 BYTE   W04
 BYTE   N05  An1
 BYTE   W06
 BYTE   An1  v080
 BYTE   W06
 BYTE   Gn1  v092
 BYTE   W06
 BYTE   Gn1  v080
 BYTE   W06
 BYTE   Fn1  v092
 BYTE   W06
 BYTE   Fn1  v080
 BYTE   W06
Label_01696C80:
 BYTE   N07  Cn1  v116
 BYTE   N44  Cs2  v068
 BYTE   W24
 BYTE   N07  Cn1  v116
 BYTE   N08  Fs1  v040
 BYTE   W12
 BYTE   N06  Fs1  v028
 BYTE   W12
//  #10 //003   ----------------------------------------
 BYTE   N07  Cn1  v116
 BYTE   N08  Fs1  v040
 BYTE   W12
 BYTE   N06  Fs1  v028
 BYTE   W12
 BYTE   N07  Cn1  v116
 BYTE   N08  Fs1  v040
 BYTE   W12
 BYTE   N06  Fs1  v028
 BYTE   W12
 BYTE   N07  Cn1  v116
 BYTE   N08  Fs1  v040
 BYTE   W12
 BYTE   N06  Fs1  v028
 BYTE   W12
 BYTE   N07  Cn1  v116
 BYTE   N08  Fs1  v040
 BYTE   W12
 BYTE   N06  Fs1  v028
 BYTE   W12
//  #10 //004   ----------------------------------------
 BYTE   N07  Cn1  v116
 BYTE   N08  Fs1  v040
 BYTE   W12
 BYTE   N06  Fs1  v028
 BYTE   W12
 BYTE   N07  Cn1  v116
 BYTE   N08  Fs1  v040
 BYTE   W12
 BYTE   N06  Fs1  v028
 BYTE   W12
 BYTE   N07  Cn1  v116
 BYTE   N08  Fs1  v040
 BYTE   W12
 BYTE   N06  Fs1  v028
 BYTE   N04  Fs2  v048
 BYTE   W12
 BYTE   N07  Cn1  v116
 BYTE   N23  Dn1
 BYTE   N08  Fs1  v040
 BYTE   W12
 BYTE   N06  Fs1  v028
 BYTE   N04  Fs2  v048
 BYTE   W12
//  #10 //005   ----------------------------------------
Label_01696CF2:
 BYTE   N07  Cn1  v116
 BYTE   N08  Fs1  v040
 BYTE   W12
 BYTE   N06  Fs1  v028
 BYTE   N04  Fs2  v048
 BYTE   W12
 BYTE   N07  Cn1  v116
 BYTE   N23  Dn1
 BYTE   N08  Fs1  v040
 BYTE   W12
 BYTE   N06  Fs1  v028
 BYTE   N04  Fs2  v048
 BYTE   W12
 BYTE   N07  Cn1  v116
 BYTE   N08  Fs1  v040
 BYTE   W12
 BYTE   N06  Fs1  v028
 BYTE   N04  Fs2  v048
 BYTE   W12
 BYTE   N07  Cn1  v116
 BYTE   N23  Dn1
 BYTE   N08  Fs1  v040
 BYTE   W12
 BYTE   N06  Fs1  v028
 BYTE   N04  Fs2  v048
 BYTE   W12
 BYTE   PEND 
//  #10 //006   ----------------------------------------
 BYTE   N07  Cn1  v116
 BYTE   N08  Fs1  v040
 BYTE   W12
 BYTE   N11  Dn1  v116
 BYTE   N06  Fs1  v028
 BYTE   N04  Fs2  v048
 BYTE   W12
 BYTE   N07  Cn1  v116
 BYTE   N23  Dn1
 BYTE   N08  Fs1  v040
 BYTE   W12
 BYTE   N10  As1  v044
 BYTE   N04  Fs2  v048
 BYTE   W12
 BYTE   N07  Cn1  v116
 BYTE   N08  Fs1  v040
 BYTE   W12
 BYTE   N06  Fs1  v028
 BYTE   N04  Fs2  v048
 BYTE   W12
 BYTE   N07  Cn1  v116
 BYTE   N23  Dn1
 BYTE   N08  Fs1  v040
 BYTE   W12
 BYTE   N06  Fs1  v028
 BYTE   N04  Fs2  v048
 BYTE   W12
//  #10 //007   ----------------------------------------
 BYTE   PATT
  POIN2 Label_01696CF2
//  #10 //008   ----------------------------------------
Label_01696D73:
 BYTE   N07  Cn1  v116
 BYTE   N08  Fs1  v040
 BYTE   W06
 BYTE   N04  Fs2  v028
 BYTE   W06
 BYTE   N06  Fs1
 BYTE   N04  Fs2  v048
 BYTE   W12
 BYTE   N07  Cn1  v116
 BYTE   N23  Dn1
 BYTE   N08  Fs1  v040
 BYTE   W12
 BYTE   N10  As1  v044
 BYTE   N04  Fs2  v048
 BYTE   W12
 BYTE   N07  Cn1  v116
 BYTE   N08  Fs1  v040
 BYTE   W12
 BYTE   N06  Fs1  v028
 BYTE   N04  Fs2  v048
 BYTE   W12
 BYTE   N07  Cn1  v116
 BYTE   N23  Dn1
 BYTE   N08  Fs1  v040
 BYTE   W12
 BYTE   N06  Fs1  v028
 BYTE   N04  Fs2  v048
 BYTE   W12
 BYTE   PEND 
//  #10 //009   ----------------------------------------
 BYTE   PATT
  POIN2 Label_01696CF2
//  #10 //010   ----------------------------------------
 BYTE   PATT
  POIN2 Label_01696D73
//  #10 //011   ----------------------------------------
 BYTE   PATT
  POIN2 Label_01696CF2
//  #10 //012   ----------------------------------------
 BYTE   PATT
  POIN2 Label_01696D73
//  #10 //013   ----------------------------------------
 BYTE   PATT
  POIN2 Label_01696CF2
//  #10 //014   ----------------------------------------
Label_01696DCC:
 BYTE   N07  Cn1  v116
 BYTE   N08  Fs1  v040
 BYTE   W06
 BYTE   N04  Fs2  v028
 BYTE   W06
 BYTE   N06  Fs1
 BYTE   N04  Fs2  v048
 BYTE   W12
 BYTE   N07  Cn1  v116
 BYTE   N23  Dn1
 BYTE   N08  Fs1  v040
 BYTE   W12
 BYTE   N10  As1  v044
 BYTE   N04  Fs2  v048
 BYTE   W12
 BYTE   N07  Cn1  v116
 BYTE   N08  Fs1  v040
 BYTE   W12
 BYTE   N06  Fs1  v028
 BYTE   W12
 BYTE   N07  Cn1  v116
 BYTE   N23  Dn1
 BYTE   N08  Fs1  v040
 BYTE   W12
 BYTE   N06  Fs1  v028
 BYTE   W12
 BYTE   PEND 
//  #10 //015   ----------------------------------------
Label_01696E06:
 BYTE   N07  Cn1  v116
 BYTE   N08  Fs1  v040
 BYTE   W12
 BYTE   N06  Fs1  v028
 BYTE   W12
 BYTE   N07  Cn1  v116
 BYTE   N23  Dn1
 BYTE   N08  Fs1  v040
 BYTE   W12
 BYTE   N06  Fs1  v028
 BYTE   W12
 BYTE   N07  Cn1  v116
 BYTE   N08  Fs1  v040
 BYTE   W12
 BYTE   N06  Fs1  v028
 BYTE   N04  Fs2  v048
 BYTE   W12
 BYTE   N07  Cn1  v116
 BYTE   N23  Dn1
 BYTE   N08  Fs1  v040
 BYTE   W12
 BYTE   N06  Fs1  v028
 BYTE   N04  Fs2  v048
 BYTE   W12
 BYTE   PEND 
//  #10 //016   ----------------------------------------
Label_01696E3D:
 BYTE   N07  Cn1  v116
 BYTE   N08  Fs1  v040
 BYTE   W06
 BYTE   N04  Fs2  v028
 BYTE   W06
 BYTE   N06  Fs1
 BYTE   N04  Fs2  v048
 BYTE   W12
 BYTE   N07  Cn1  v116
 BYTE   N23  Dn1
 BYTE   N08  Fs1  v040
 BYTE   W12
 BYTE   N06  Fs1  v028
 BYTE   N04  Fs2  v048
 BYTE   W12
 BYTE   N07  Cn1  v116
 BYTE   N08  Fs1  v040
 BYTE   W12
 BYTE   N06  Fs1  v028
 BYTE   W12
 BYTE   N07  Cn1  v116
 BYTE   N23  Dn1
 BYTE   N08  Fs1  v040
 BYTE   W12
 BYTE   N06  Fs1  v028
 BYTE   W12
 BYTE   PEND 
//  #10 //017   ----------------------------------------
 BYTE   PATT
  POIN2 Label_01696E06
//  #10 //018   ----------------------------------------
Label_01696E7C:
 BYTE   N07  Cn1  v116
 BYTE   N08  Fs1  v040
 BYTE   W06
 BYTE   N04  Fs2  v028
 BYTE   W06
 BYTE   N11  Dn1  v116
 BYTE   N06  Fs1  v028
 BYTE   N04  Fs2  v048
 BYTE   W12
 BYTE   N07  Cn1  v116
 BYTE   N23  Dn1
 BYTE   N08  Fs1  v040
 BYTE   W12
 BYTE   N10  As1  v044
 BYTE   N04  Fs2  v048
 BYTE   W12
 BYTE   N07  Cn1  v116
 BYTE   N44  Cs2  v056
 BYTE   W12
 BYTE   N04  Fs2  v048
 BYTE   W12
 BYTE   N07  Cn1  v116
 BYTE   N23  Dn1
 BYTE   W12
 BYTE   N04  Fs2  v048
 BYTE   W12
 BYTE   PEND 
//  #10 //019   ----------------------------------------
 BYTE   PATT
  POIN2 Label_01696CF2
//  #10 //020   ----------------------------------------
 BYTE   PATT
  POIN2 Label_01696D73
//  #10 //021   ----------------------------------------
 BYTE   PATT
  POIN2 Label_01696CF2
//  #10 //022   ----------------------------------------
 BYTE   PATT
  POIN2 Label_01696D73
//  #10 //023   ----------------------------------------
 BYTE   PATT
  POIN2 Label_01696CF2
//  #10 //024   ----------------------------------------
 BYTE   PATT
  POIN2 Label_01696D73
//  #10 //025   ----------------------------------------
 BYTE   PATT
  POIN2 Label_01696CF2
//  #10 //026   ----------------------------------------
 BYTE   PATT
  POIN2 Label_01696DCC
//  #10 //027   ----------------------------------------
 BYTE   PATT
  POIN2 Label_01696E06
//  #10 //028   ----------------------------------------
 BYTE   PATT
  POIN2 Label_01696E3D
//  #10 //029   ----------------------------------------
 BYTE   N07  Cn1  v116
 BYTE   N08  Fs1  v040
 BYTE   W12
 BYTE   N06  Fs1  v028
 BYTE   W12
 BYTE   N07  Cn1  v116
 BYTE   N23  Dn1
 BYTE   N08  Fs1  v040
 BYTE   W12
 BYTE   N06  Fs1  v028
 BYTE   W12
 BYTE   N07  Cn1  v116
 BYTE   W12
 BYTE   N11  Dn1
 BYTE   N04  Fs2  v048
 BYTE   W12
 BYTE   N07  Cn1  v116
 BYTE   N23  Dn1
 BYTE   W12
 BYTE   N04  Fs2  v048
 BYTE   W12
//  #10 //030   ----------------------------------------
 BYTE   N07  Cn1  v116
 BYTE   W06
 BYTE   N04  Fs2  v028
 BYTE   W06
 BYTE   N11  Dn1  v116
 BYTE   N04  Fs2  v048
 BYTE   W12
 BYTE   N07  Cn1  v116
 BYTE   N23  Dn1
 BYTE   W12
 BYTE   N04  Fs2  v048
 BYTE   W12
 BYTE   N07  Cn1  v116
 BYTE   N44  Cs2  v068
 BYTE   W12
 BYTE   N04  Fs2  v048
 BYTE   W12
 BYTE   N07  Cn1  v116
 BYTE   N23  Dn1
 BYTE   W12
 BYTE   N04  Fs2  v048
 BYTE   W12
//  #10 //031   ----------------------------------------
 BYTE   PATT
  POIN2 Label_01696CF2
//  #10 //032   ----------------------------------------
Label_01696F48:
 BYTE   N07  Cn1  v116
 BYTE   N08  Fs1  v040
 BYTE   W06
 BYTE   N04  Fs2  v028
 BYTE   W06
 BYTE   N06  Fs1
 BYTE   N04  Fs2  v048
 BYTE   W12
 BYTE   N07  Cn1  v116
 BYTE   N23  Dn1
 BYTE   N08  Fs1  v040
 BYTE   W12
 BYTE   N06  Fs1  v028
 BYTE   N04  Fs2  v048
 BYTE   W12
 BYTE   N07  Cn1  v116
 BYTE   N08  Fs1  v040
 BYTE   W12
 BYTE   N06  Fs1  v028
 BYTE   N04  Fs2  v048
 BYTE   W12
 BYTE   N07  Cn1  v116
 BYTE   N23  Dn1
 BYTE   N08  Fs1  v040
 BYTE   W12
 BYTE   N06  Fs1  v028
 BYTE   N04  Fs2  v048
 BYTE   W12
 BYTE   PEND 
//  #10 //033   ----------------------------------------
 BYTE   PATT
  POIN2 Label_01696CF2
//  #10 //034   ----------------------------------------
 BYTE   PATT
  POIN2 Label_01696D73
//  #10 //035   ----------------------------------------
 BYTE   PATT
  POIN2 Label_01696CF2
//  #10 //036   ----------------------------------------
 BYTE   PATT
  POIN2 Label_01696F48
//  #10 //037   ----------------------------------------
 BYTE   N07  Cn1  v116
 BYTE   N08  Fs1  v040
 BYTE   W12
 BYTE   N06  Fs1  v028
 BYTE   N04  Fs2  v048
 BYTE   W12
 BYTE   N07  Cn1  v116
 BYTE   N23  Dn1
 BYTE   N08  Fs1  v040
 BYTE   W12
 BYTE   N06  Fs1  v028
 BYTE   N04  Fs2  v048
 BYTE   W12
 BYTE   N07  Cn1  v116
 BYTE   N08  Fs1  v040
 BYTE   W12
 BYTE   N11  Dn1  v116
 BYTE   N06  Fs1  v028
 BYTE   N04  Fs2  v048
 BYTE   W12
 BYTE   N07  Cn1  v116
 BYTE   N23  Dn1
 BYTE   N08  Fs1  v040
 BYTE   W12
 BYTE   N06  Fs1  v028
 BYTE   N04  Fs2  v048
 BYTE   W12
//  #10 //038   ----------------------------------------
 BYTE   PATT
  POIN2 Label_01696E7C
//  #10 //039   ----------------------------------------
 BYTE   PATT
  POIN2 Label_01696CF2
//  #10 //040   ----------------------------------------
 BYTE   PATT
  POIN2 Label_01696D73
//  #10 //041   ----------------------------------------
 BYTE   PATT
  POIN2 Label_01696CF2
//  #10 //042   ----------------------------------------
 BYTE   PATT
  POIN2 Label_01696D73
//  #10 //043   ----------------------------------------
 BYTE   PATT
  POIN2 Label_01696CF2
//  #10 //044   ----------------------------------------
 BYTE   PATT
  POIN2 Label_01696D73
//  #10 //045   ----------------------------------------
Label_01696FFE:
 BYTE   N07  Cn1  v116
 BYTE   N08  Fs1  v040
 BYTE   W12
 BYTE   N06  Fs1  v028
 BYTE   N04  Fs2  v048
 BYTE   W12
 BYTE   N07  Cn1  v116
 BYTE   N23  Dn1
 BYTE   N08  Fs1  v040
 BYTE   W12
 BYTE   N06  Fs1  v028
 BYTE   N04  Fs2  v048
 BYTE   W12
 BYTE   N07  Cn1  v116
 BYTE   W12
 BYTE   N04  Fs2  v048
 BYTE   W12
 BYTE   N07  Cn1  v116
 BYTE   N23  Dn1
 BYTE   W12
 BYTE   N04  Fs2  v048
 BYTE   W12
 BYTE   PEND 
//  #10 //046   ----------------------------------------
 BYTE   N07  Cn1  v116
 BYTE   N05  Cn2  v092
 BYTE   W06
 BYTE   N05
 BYTE   N04  Fs2  v028
 BYTE   W06
 BYTE   Fs2  v048
 BYTE   W06
 BYTE   N05  An1  v092
 BYTE   W06
 BYTE   N07  Cn1  v116
 BYTE   N05  An1  v092
 BYTE   W12
 BYTE   Gn1
 BYTE   N04  Fs2  v048
 BYTE   W06
 BYTE   N05  Fn1  v080
 BYTE   W06
 BYTE   N07  Cn1  v116
 BYTE   N44  Cs2  v056
 BYTE   W12
 BYTE   N04  Fs2  v048
 BYTE   W12
 BYTE   N07  Cn1  v116
 BYTE   W12
 BYTE   N04  Fs2  v048
 BYTE   W12
//  #10 //047   ----------------------------------------
Label_01697065:
 BYTE   N07  Cn1  v116
 BYTE   N08  Fs1  v040
 BYTE   W12
 BYTE   N06  Fs1  v028
 BYTE   N04  Fs2  v048
 BYTE   W12
 BYTE   N07  Cn1  v116
 BYTE   N08  Fs1  v040
 BYTE   W12
 BYTE   N06  Fs1  v028
 BYTE   N04  Fs2  v048
 BYTE   W12
 BYTE   N07  Cn1  v116
 BYTE   N08  Fs1  v040
 BYTE   W12
 BYTE   N06  Fs1  v028
 BYTE   N04  Fs2  v048
 BYTE   W12
 BYTE   N07  Cn1  v116
 BYTE   N08  Fs1  v040
 BYTE   W12
 BYTE   N06  Fs1  v028
 BYTE   N04  Fs2  v048
 BYTE   W12
 BYTE   PEND 
//  #10 //048   ----------------------------------------
 BYTE   N07  Cn1  v116
 BYTE   N08  Fs1  v040
 BYTE   W12
 BYTE   N06  Fs1  v028
 BYTE   N04  Fs2  v048
 BYTE   W12
 BYTE   N07  Cn1  v116
 BYTE   N08  Fs1  v040
 BYTE   W12
 BYTE   N10  As1  v044
 BYTE   N04  Fs2  v048
 BYTE   W12
 BYTE   N07  Cn1  v116
 BYTE   N08  Fs1  v040
 BYTE   W12
 BYTE   N06  Fs1  v028
 BYTE   N04  Fs2  v048
 BYTE   W12
 BYTE   N07  Cn1  v116
 BYTE   N08  Fs1  v040
 BYTE   W12
 BYTE   N06  Fs1  v028
 BYTE   N04  Fs2  v048
 BYTE   W12
//  #10 //049   ----------------------------------------
 BYTE   PATT
  POIN2 Label_01697065
//  #10 //050   ----------------------------------------
Label_016970DB:
 BYTE   N07  Cn1  v116
 BYTE   N08  Fs1  v040
 BYTE   W06
 BYTE   N04  Fs2  v028
 BYTE   W06
 BYTE   N06  Fs1
 BYTE   N04  Fs2  v048
 BYTE   W12
 BYTE   N07  Cn1  v116
 BYTE   N08  Fs1  v040
 BYTE   W12
 BYTE   N10  As1  v044
 BYTE   N04  Fs2  v048
 BYTE   W12
 BYTE   N07  Cn1  v116
 BYTE   N08  Fs1  v040
 BYTE   W12
 BYTE   N06  Fs1  v028
 BYTE   N04  Fs2  v048
 BYTE   W12
 BYTE   N07  Cn1  v116
 BYTE   N08  Fs1  v040
 BYTE   W12
 BYTE   N06  Fs1  v028
 BYTE   N04  Fs2  v048
 BYTE   W12
 BYTE   PEND 
//  #10 //051   ----------------------------------------
 BYTE   PATT
  POIN2 Label_01697065
//  #10 //052   ----------------------------------------
 BYTE   PATT
  POIN2 Label_016970DB
//  #10 //053   ----------------------------------------
 BYTE   N07  Cn1  v116
 BYTE   N08  Fs1  v040
 BYTE   W12
 BYTE   N06  Fs1  v028
 BYTE   N04  Fs2  v048
 BYTE   W12
 BYTE   N07  Cn1  v116
 BYTE   N08  Fs1  v040
 BYTE   W12
 BYTE   N06  Fs1  v028
 BYTE   N04  Fs2  v048
 BYTE   W12
 BYTE   N07  Cn1  v116
 BYTE   N08  Fs1  v040
 BYTE   W12
 BYTE   N11  Dn1  v116
 BYTE   N06  Fs1  v028
 BYTE   N04  Fs2  v048
 BYTE   W12
 BYTE   N07  Cn1  v116
 BYTE   N23  Dn1
 BYTE   N08  Fs1  v040
 BYTE   W12
 BYTE   N06  Fs1  v028
 BYTE   N04  Fs2  v048
 BYTE   W12
//  #10 //054   ----------------------------------------
 BYTE   PATT
  POIN2 Label_01696E7C
//  #10 //055   ----------------------------------------
 BYTE   PATT
  POIN2 Label_01696CF2
//  #10 //056   ----------------------------------------
 BYTE   PATT
  POIN2 Label_01696F48
//  #10 //057   ----------------------------------------
 BYTE   PATT
  POIN2 Label_01696CF2
//  #10 //058   ----------------------------------------
 BYTE   PATT
  POIN2 Label_01696D73
//  #10 //059   ----------------------------------------
 BYTE   PATT
  POIN2 Label_01696CF2
//  #10 //060   ----------------------------------------
 BYTE   PATT
  POIN2 Label_01696F48
//  #10 //061   ----------------------------------------
 BYTE   PATT
  POIN2 Label_01696FFE
//  #10 //062   ----------------------------------------
 BYTE   N07  Cn1  v116
 BYTE   W06
 BYTE   N04  Fs2  v028
 BYTE   W06
 BYTE   Fs2  v048
 BYTE   W12
 BYTE   N07  Cn1  v116
 BYTE   N23  Dn1
 BYTE   W12
 BYTE   N04  Fs2  v048
 BYTE   W12
 BYTE   N07  Cn1  v116
 BYTE   N44  Cs2  v056
 BYTE   W24
 BYTE   N07  Cn1  v116
 BYTE   N23  Dn1
 BYTE   W24
//  #10 //063   ----------------------------------------
Label_016971A8:
 BYTE   N07  Cn1  v116
 BYTE   N08  Fs1  v040
 BYTE   W12
 BYTE   N06  Fs1  v028
 BYTE   W12
 BYTE   N07  Cn1  v116
 BYTE   N23  Dn1
 BYTE   N08  Fs1  v040
 BYTE   W12
 BYTE   N06  Fs1  v028
 BYTE   W12
 BYTE   N07  Cn1  v116
 BYTE   N08  Fs1  v040
 BYTE   W12
 BYTE   N06  Fs1  v028
 BYTE   W12
 BYTE   N07  Cn1  v116
 BYTE   N23  Dn1
 BYTE   N08  Fs1  v040
 BYTE   W12
 BYTE   N06  Fs1  v028
 BYTE   W12
 BYTE   PEND 
//  #10 //064   ----------------------------------------
 BYTE   N07  Cn1  v116
 BYTE   N07  Fs1  v040
 BYTE   W07
 BYTE   N01  Fs1  v028
 BYTE   W05
 BYTE   N01
 BYTE   W12
 BYTE   N07  Cn1  v116
 BYTE   N23  Dn1
 BYTE   N08  Fs1  v040
 BYTE   W12
 BYTE   N06  Fs1  v028
 BYTE   W12
 BYTE   N07  Cn1  v116
 BYTE   N08  Fs1  v040
 BYTE   W12
 BYTE   N06  Fs1  v028
 BYTE   W12
 BYTE   N07  Cn1  v116
 BYTE   N23  Dn1
 BYTE   N08  Fs1  v040
 BYTE   W12
 BYTE   N06  Fs1  v028
 BYTE   W12
//  #10 //065   ----------------------------------------
 BYTE   PATT
  POIN2 Label_016971A8
//  #10 //066   ----------------------------------------
 BYTE   N07  Cn1  v116
 BYTE   N07  Fs1  v040
 BYTE   W07
 BYTE   N01  Fs1  v028
 BYTE   W05
 BYTE   N01
 BYTE   W12
 BYTE   N07  Cn1  v116
 BYTE   N23  Dn1
 BYTE   N08  Fs1  v040
 BYTE   W12
 BYTE   N10  As1  v044
 BYTE   W12
 BYTE   N07  Cn1  v116
 BYTE   N08  Fs1  v040
 BYTE   W12
 BYTE   N06  Fs1  v028
 BYTE   W12
 BYTE   N07  Cn1  v116
 BYTE   N23  Dn1
 BYTE   N08  Fs1  v040
 BYTE   W12
 BYTE   N06  Fs1  v028
 BYTE   W12
//  #10 //067   ----------------------------------------
 BYTE   PATT
  POIN2 Label_016971A8
//  #10 //068   ----------------------------------------
 BYTE   N07  Cn1  v116
 BYTE   N08  Fs1  v040
 BYTE   W12
 BYTE   N06  Fs1  v028
 BYTE   W12
 BYTE   N07  Cn1  v116
 BYTE   N23  Dn1
 BYTE   N08  Fs1  v040
 BYTE   W12
 BYTE   N10  As1  v044
 BYTE   W12
 BYTE   N07  Cn1  v116
 BYTE   N44  Cs2  v068
 BYTE   W48
//  #10 //069   ----------------------------------------
 BYTE   PATT
  POIN2 Label_01696C54
//  #10 //070   ----------------------------------------
 BYTE   N07  Cn1  v116
 BYTE   N03  Cn2  v092
 BYTE   W04
 BYTE   Cn2  v080
 BYTE   W04
 BYTE   Cn2  v092
 BYTE   W04
 BYTE   N05  An1
 BYTE   W06
 BYTE   An1  v080
 BYTE   W06
 BYTE   N07  Cn1  v116
 BYTE   N05  Gn1  v092
 BYTE   W06
 BYTE   Gn1  v080
 BYTE   W06
 BYTE   Fn1  v092
 BYTE   W06
 BYTE   Fn1  v080
 BYTE   W06
 BYTE   GoTo
  POIN2 Label_01696C80
 BYTE   FINE

//**************** Track 11 (Midi-Chn.10) ****************//

CastlevaniaDawnofSorrowThePinnacle_011:
//  #11 //000   ----------------------------------------
 BYTE   KEYSH   CastlevaniaDawnofSorrowThePinnacle_key+0
 BYTE   VOICE   119
 BYTE   MODT 0
 BYTE   LFOS 44
 BYTE   BENDR  2
 BYTE   VOL   68*CastlevaniaDawnofSorrowThePinnacle_mvl/mxv
 BYTE   PAN   c_v+0
 BYTE   VOL   68*CastlevaniaDawnofSorrowThePinnacle_mvl/mxv
 BYTE   MOD 0
 BYTE   VOL   23*CastlevaniaDawnofSorrowThePinnacle_mvl/mxv
 BYTE   BEND   c_v+0
 BYTE   N48  Cn4  v092
 BYTE   W01
 BYTE   VOL   24*CastlevaniaDawnofSorrowThePinnacle_mvl/mxv
 BYTE   W02
 BYTE   VOL   26*CastlevaniaDawnofSorrowThePinnacle_mvl/mxv
 BYTE   W01
 BYTE   VOL   27*CastlevaniaDawnofSorrowThePinnacle_mvl/mxv
 BYTE   W02
 BYTE   VOL   28*CastlevaniaDawnofSorrowThePinnacle_mvl/mxv
 BYTE   W01
 BYTE   VOL   29*CastlevaniaDawnofSorrowThePinnacle_mvl/mxv
 BYTE   W02
 BYTE   VOL   30*CastlevaniaDawnofSorrowThePinnacle_mvl/mxv
 BYTE   W01
 BYTE   VOL   32*CastlevaniaDawnofSorrowThePinnacle_mvl/mxv
 BYTE   W02
 BYTE   VOL   34*CastlevaniaDawnofSorrowThePinnacle_mvl/mxv
 BYTE   W01
 BYTE   VOL   34*CastlevaniaDawnofSorrowThePinnacle_mvl/mxv
 BYTE   W02
 BYTE   VOL   37*CastlevaniaDawnofSorrowThePinnacle_mvl/mxv
 BYTE   W01
 BYTE   VOL   38*CastlevaniaDawnofSorrowThePinnacle_mvl/mxv
 BYTE   W02
 BYTE   VOL   40*CastlevaniaDawnofSorrowThePinnacle_mvl/mxv
 BYTE   W01
 BYTE   VOL   41*CastlevaniaDawnofSorrowThePinnacle_mvl/mxv
 BYTE   W02
 BYTE   VOL   42*CastlevaniaDawnofSorrowThePinnacle_mvl/mxv
 BYTE   W01
 BYTE   VOL   44*CastlevaniaDawnofSorrowThePinnacle_mvl/mxv
 BYTE   W02
 BYTE   VOL   45*CastlevaniaDawnofSorrowThePinnacle_mvl/mxv
 BYTE   W01
 BYTE   VOL   47*CastlevaniaDawnofSorrowThePinnacle_mvl/mxv
 BYTE   W02
 BYTE   VOL   49*CastlevaniaDawnofSorrowThePinnacle_mvl/mxv
 BYTE   W01
 BYTE   VOL   51*CastlevaniaDawnofSorrowThePinnacle_mvl/mxv
 BYTE   W02
 BYTE   VOL   52*CastlevaniaDawnofSorrowThePinnacle_mvl/mxv
 BYTE   W01
 BYTE   VOL   54*CastlevaniaDawnofSorrowThePinnacle_mvl/mxv
 BYTE   W02
 BYTE   VOL   56*CastlevaniaDawnofSorrowThePinnacle_mvl/mxv
 BYTE   W01
 BYTE   VOL   57*CastlevaniaDawnofSorrowThePinnacle_mvl/mxv
 BYTE   W02
 BYTE   VOL   59*CastlevaniaDawnofSorrowThePinnacle_mvl/mxv
 BYTE   W01
 BYTE   VOL   61*CastlevaniaDawnofSorrowThePinnacle_mvl/mxv
 BYTE   W02
 BYTE   VOL   62*CastlevaniaDawnofSorrowThePinnacle_mvl/mxv
 BYTE   W01
 BYTE   VOL   64*CastlevaniaDawnofSorrowThePinnacle_mvl/mxv
 BYTE   W02
 BYTE   VOL   68*CastlevaniaDawnofSorrowThePinnacle_mvl/mxv
 BYTE   W54
//  #11 //001   ----------------------------------------
 BYTE   W96
//  #11 //002   ----------------------------------------
 BYTE   W48
Label_016972E9:
 BYTE   W48
//  #11 //003   ----------------------------------------
 BYTE   W96
//  #11 //004   ----------------------------------------
 BYTE   W96
//  #11 //005   ----------------------------------------
 BYTE   W96
//  #11 //006   ----------------------------------------
 BYTE   W96
//  #11 //007   ----------------------------------------
 BYTE   W96
//  #11 //008   ----------------------------------------
 BYTE   W96
//  #11 //009   ----------------------------------------
 BYTE   W96
//  #11 //010   ----------------------------------------
 BYTE   W96
//  #11 //011   ----------------------------------------
 BYTE   W96
//  #11 //012   ----------------------------------------
 BYTE   W96
//  #11 //013   ----------------------------------------
 BYTE   W96
//  #11 //014   ----------------------------------------
 BYTE   W96
//  #11 //015   ----------------------------------------
 BYTE   W96
//  #11 //016   ----------------------------------------
 BYTE   W96
//  #11 //017   ----------------------------------------
 BYTE   W96
//  #11 //018   ----------------------------------------
 BYTE   W96
//  #11 //019   ----------------------------------------
 BYTE   W96
//  #11 //020   ----------------------------------------
 BYTE   W96
//  #11 //021   ----------------------------------------
 BYTE   W96
//  #11 //022   ----------------------------------------
 BYTE   W96
//  #11 //023   ----------------------------------------
 BYTE   W96
//  #11 //024   ----------------------------------------
 BYTE   W96
//  #11 //025   ----------------------------------------
 BYTE   W96
//  #11 //026   ----------------------------------------
 BYTE   W96
//  #11 //027   ----------------------------------------
 BYTE   W96
//  #11 //028   ----------------------------------------
 BYTE   W96
//  #11 //029   ----------------------------------------
 BYTE   W42
 BYTE   VOL   68*CastlevaniaDawnofSorrowThePinnacle_mvl/mxv
 BYTE   W01
 BYTE   VOL   37*CastlevaniaDawnofSorrowThePinnacle_mvl/mxv
 BYTE   W01
 BYTE   VOL   25*CastlevaniaDawnofSorrowThePinnacle_mvl/mxv
 BYTE   W01
 BYTE   VOL   20*CastlevaniaDawnofSorrowThePinnacle_mvl/mxv
 BYTE   W03
 BYTE   VOL   20*CastlevaniaDawnofSorrowThePinnacle_mvl/mxv
 BYTE   N96  Bn3  v104
 BYTE   W03
 BYTE   VOL   20*CastlevaniaDawnofSorrowThePinnacle_mvl/mxv
 BYTE   W03
 BYTE   VOL   22*CastlevaniaDawnofSorrowThePinnacle_mvl/mxv
 BYTE   W03
 BYTE   VOL   23*CastlevaniaDawnofSorrowThePinnacle_mvl/mxv
 BYTE   W03
 BYTE   VOL   24*CastlevaniaDawnofSorrowThePinnacle_mvl/mxv
 BYTE   W03
 BYTE   VOL   26*CastlevaniaDawnofSorrowThePinnacle_mvl/mxv
 BYTE   W03
 BYTE   VOL   27*CastlevaniaDawnofSorrowThePinnacle_mvl/mxv
 BYTE   W03
 BYTE   VOL   28*CastlevaniaDawnofSorrowThePinnacle_mvl/mxv
 BYTE   W03
 BYTE   VOL   29*CastlevaniaDawnofSorrowThePinnacle_mvl/mxv
 BYTE   W03
 BYTE   VOL   30*CastlevaniaDawnofSorrowThePinnacle_mvl/mxv
 BYTE   W03
 BYTE   VOL   32*CastlevaniaDawnofSorrowThePinnacle_mvl/mxv
 BYTE   W03
 BYTE   VOL   34*CastlevaniaDawnofSorrowThePinnacle_mvl/mxv
 BYTE   W03
 BYTE   VOL   34*CastlevaniaDawnofSorrowThePinnacle_mvl/mxv
 BYTE   W03
 BYTE   VOL   36*CastlevaniaDawnofSorrowThePinnacle_mvl/mxv
 BYTE   W03
 BYTE   VOL   37*CastlevaniaDawnofSorrowThePinnacle_mvl/mxv
 BYTE   W03
 BYTE   VOL   39*CastlevaniaDawnofSorrowThePinnacle_mvl/mxv
 BYTE   W03
//  #11 //030   ----------------------------------------
 BYTE   VOL   40*CastlevaniaDawnofSorrowThePinnacle_mvl/mxv
 BYTE   W03
 BYTE   VOL   41*CastlevaniaDawnofSorrowThePinnacle_mvl/mxv
 BYTE   W03
 BYTE   VOL   43*CastlevaniaDawnofSorrowThePinnacle_mvl/mxv
 BYTE   W03
 BYTE   VOL   45*CastlevaniaDawnofSorrowThePinnacle_mvl/mxv
 BYTE   W03
 BYTE   VOL   46*CastlevaniaDawnofSorrowThePinnacle_mvl/mxv
 BYTE   W03
 BYTE   VOL   49*CastlevaniaDawnofSorrowThePinnacle_mvl/mxv
 BYTE   W03
 BYTE   VOL   50*CastlevaniaDawnofSorrowThePinnacle_mvl/mxv
 BYTE   W03
 BYTE   VOL   51*CastlevaniaDawnofSorrowThePinnacle_mvl/mxv
 BYTE   W03
 BYTE   VOL   53*CastlevaniaDawnofSorrowThePinnacle_mvl/mxv
 BYTE   W03
 BYTE   VOL   55*CastlevaniaDawnofSorrowThePinnacle_mvl/mxv
 BYTE   W03
 BYTE   VOL   57*CastlevaniaDawnofSorrowThePinnacle_mvl/mxv
 BYTE   W03
 BYTE   VOL   57*CastlevaniaDawnofSorrowThePinnacle_mvl/mxv
 BYTE   W03
 BYTE   VOL   59*CastlevaniaDawnofSorrowThePinnacle_mvl/mxv
 BYTE   W03
 BYTE   VOL   61*CastlevaniaDawnofSorrowThePinnacle_mvl/mxv
 BYTE   W03
 BYTE   VOL   63*CastlevaniaDawnofSorrowThePinnacle_mvl/mxv
 BYTE   W03
 BYTE   VOL   66*CastlevaniaDawnofSorrowThePinnacle_mvl/mxv
 BYTE   W02
 BYTE   VOL   68*CastlevaniaDawnofSorrowThePinnacle_mvl/mxv
 BYTE   W48
 BYTE   W01
//  #11 //031   ----------------------------------------
 BYTE   W96
//  #11 //032   ----------------------------------------
 BYTE   W96
//  #11 //033   ----------------------------------------
 BYTE   W96
//  #11 //034   ----------------------------------------
 BYTE   W96
//  #11 //035   ----------------------------------------
 BYTE   W96
//  #11 //036   ----------------------------------------
 BYTE   W96
//  #11 //037   ----------------------------------------
 BYTE   W96
//  #11 //038   ----------------------------------------
 BYTE   W96
//  #11 //039   ----------------------------------------
 BYTE   W96
//  #11 //040   ----------------------------------------
 BYTE   W96
//  #11 //041   ----------------------------------------
 BYTE   W96
//  #11 //042   ----------------------------------------
 BYTE   W96
//  #11 //043   ----------------------------------------
 BYTE   W96
//  #11 //044   ----------------------------------------
 BYTE   W96
//  #11 //045   ----------------------------------------
 BYTE   W30
 BYTE   W01
 BYTE   VOL   61*CastlevaniaDawnofSorrowThePinnacle_mvl/mxv
 BYTE   W01
 BYTE   VOL   57*CastlevaniaDawnofSorrowThePinnacle_mvl/mxv
 BYTE   W01
 BYTE   VOL   51*CastlevaniaDawnofSorrowThePinnacle_mvl/mxv
 BYTE   W01
 BYTE   VOL   41*CastlevaniaDawnofSorrowThePinnacle_mvl/mxv
 BYTE   W01
 BYTE   VOL   37*CastlevaniaDawnofSorrowThePinnacle_mvl/mxv
 BYTE   W01
 BYTE   VOL   32*CastlevaniaDawnofSorrowThePinnacle_mvl/mxv
 BYTE   W01
 BYTE   VOL   24*CastlevaniaDawnofSorrowThePinnacle_mvl/mxv
 BYTE   W01
 BYTE   VOL   20*CastlevaniaDawnofSorrowThePinnacle_mvl/mxv
 BYTE   W01
 BYTE   VOL   19*CastlevaniaDawnofSorrowThePinnacle_mvl/mxv
 BYTE   W07
 BYTE   VOL   19*CastlevaniaDawnofSorrowThePinnacle_mvl/mxv
 BYTE   W02
 BYTE   N96
 BYTE   W01
 BYTE   VOL   20*CastlevaniaDawnofSorrowThePinnacle_mvl/mxv
 BYTE   W03
 BYTE   VOL   20*CastlevaniaDawnofSorrowThePinnacle_mvl/mxv
 BYTE   W03
 BYTE   VOL   22*CastlevaniaDawnofSorrowThePinnacle_mvl/mxv
 BYTE   W03
 BYTE   VOL   23*CastlevaniaDawnofSorrowThePinnacle_mvl/mxv
 BYTE   W03
 BYTE   VOL   24*CastlevaniaDawnofSorrowThePinnacle_mvl/mxv
 BYTE   W03
 BYTE   VOL   26*CastlevaniaDawnofSorrowThePinnacle_mvl/mxv
 BYTE   W03
 BYTE   VOL   27*CastlevaniaDawnofSorrowThePinnacle_mvl/mxv
 BYTE   W03
 BYTE   VOL   28*CastlevaniaDawnofSorrowThePinnacle_mvl/mxv
 BYTE   W03
 BYTE   VOL   29*CastlevaniaDawnofSorrowThePinnacle_mvl/mxv
 BYTE   W03
 BYTE   VOL   30*CastlevaniaDawnofSorrowThePinnacle_mvl/mxv
 BYTE   W03
 BYTE   VOL   33*CastlevaniaDawnofSorrowThePinnacle_mvl/mxv
 BYTE   W03
 BYTE   VOL   34*CastlevaniaDawnofSorrowThePinnacle_mvl/mxv
 BYTE   W03
 BYTE   VOL   35*CastlevaniaDawnofSorrowThePinnacle_mvl/mxv
 BYTE   W03
 BYTE   VOL   37*CastlevaniaDawnofSorrowThePinnacle_mvl/mxv
 BYTE   W03
 BYTE   VOL   38*CastlevaniaDawnofSorrowThePinnacle_mvl/mxv
 BYTE   W03
 BYTE   VOL   40*CastlevaniaDawnofSorrowThePinnacle_mvl/mxv
 BYTE   W02
//  #11 //046   ----------------------------------------
 BYTE   W01
 BYTE   VOL   41*CastlevaniaDawnofSorrowThePinnacle_mvl/mxv
 BYTE   W03
 BYTE   VOL   42*CastlevaniaDawnofSorrowThePinnacle_mvl/mxv
 BYTE   W03
 BYTE   VOL   44*CastlevaniaDawnofSorrowThePinnacle_mvl/mxv
 BYTE   W03
 BYTE   VOL   45*CastlevaniaDawnofSorrowThePinnacle_mvl/mxv
 BYTE   W03
 BYTE   VOL   47*CastlevaniaDawnofSorrowThePinnacle_mvl/mxv
 BYTE   W03
 BYTE   VOL   49*CastlevaniaDawnofSorrowThePinnacle_mvl/mxv
 BYTE   W03
 BYTE   VOL   51*CastlevaniaDawnofSorrowThePinnacle_mvl/mxv
 BYTE   W03
 BYTE   VOL   52*CastlevaniaDawnofSorrowThePinnacle_mvl/mxv
 BYTE   W03
 BYTE   VOL   54*CastlevaniaDawnofSorrowThePinnacle_mvl/mxv
 BYTE   W03
 BYTE   VOL   56*CastlevaniaDawnofSorrowThePinnacle_mvl/mxv
 BYTE   W03
 BYTE   VOL   57*CastlevaniaDawnofSorrowThePinnacle_mvl/mxv
 BYTE   W03
 BYTE   VOL   59*CastlevaniaDawnofSorrowThePinnacle_mvl/mxv
 BYTE   W03
 BYTE   VOL   61*CastlevaniaDawnofSorrowThePinnacle_mvl/mxv
 BYTE   W03
 BYTE   VOL   62*CastlevaniaDawnofSorrowThePinnacle_mvl/mxv
 BYTE   W03
 BYTE   VOL   64*CastlevaniaDawnofSorrowThePinnacle_mvl/mxv
 BYTE   W03
 BYTE   VOL   68*CastlevaniaDawnofSorrowThePinnacle_mvl/mxv
 BYTE   W48
 BYTE   W02
//  #11 //047   ----------------------------------------
 BYTE   W96
//  #11 //048   ----------------------------------------
 BYTE   W96
//  #11 //049   ----------------------------------------
 BYTE   W96
//  #11 //050   ----------------------------------------
 BYTE   W96
//  #11 //051   ----------------------------------------
 BYTE   W96
//  #11 //052   ----------------------------------------
 BYTE   W96
//  #11 //053   ----------------------------------------
 BYTE   W96
//  #11 //054   ----------------------------------------
 BYTE   W96
//  #11 //055   ----------------------------------------
 BYTE   W96
//  #11 //056   ----------------------------------------
 BYTE   W96
//  #11 //057   ----------------------------------------
 BYTE   W96
//  #11 //058   ----------------------------------------
 BYTE   W96
//  #11 //059   ----------------------------------------
 BYTE   W96
//  #11 //060   ----------------------------------------
 BYTE   W96
//  #11 //061   ----------------------------------------
 BYTE   W36
 BYTE   W02
 BYTE   VOL   68*CastlevaniaDawnofSorrowThePinnacle_mvl/mxv
 BYTE   W01
 BYTE   VOL   55*CastlevaniaDawnofSorrowThePinnacle_mvl/mxv
 BYTE   W01
 BYTE   VOL   49*CastlevaniaDawnofSorrowThePinnacle_mvl/mxv
 BYTE   W01
 BYTE   VOL   44*CastlevaniaDawnofSorrowThePinnacle_mvl/mxv
 BYTE   W01
 BYTE   VOL   34*CastlevaniaDawnofSorrowThePinnacle_mvl/mxv
 BYTE   W01
 BYTE   VOL   29*CastlevaniaDawnofSorrowThePinnacle_mvl/mxv
 BYTE   W01
 BYTE   VOL   25*CastlevaniaDawnofSorrowThePinnacle_mvl/mxv
 BYTE   W01
 BYTE   VOL   17*CastlevaniaDawnofSorrowThePinnacle_mvl/mxv
 BYTE   W01
 BYTE   VOL   15*CastlevaniaDawnofSorrowThePinnacle_mvl/mxv
 BYTE   W02
 BYTE   N96  As3
 BYTE   W01
 BYTE   VOL   17*CastlevaniaDawnofSorrowThePinnacle_mvl/mxv
 BYTE   W03
 BYTE   VOL   18*CastlevaniaDawnofSorrowThePinnacle_mvl/mxv
 BYTE   W03
 BYTE   VOL   19*CastlevaniaDawnofSorrowThePinnacle_mvl/mxv
 BYTE   W03
 BYTE   VOL   20*CastlevaniaDawnofSorrowThePinnacle_mvl/mxv
 BYTE   W03
 BYTE   VOL   21*CastlevaniaDawnofSorrowThePinnacle_mvl/mxv
 BYTE   W03
 BYTE   VOL   22*CastlevaniaDawnofSorrowThePinnacle_mvl/mxv
 BYTE   W03
 BYTE   VOL   24*CastlevaniaDawnofSorrowThePinnacle_mvl/mxv
 BYTE   W03
 BYTE   VOL   26*CastlevaniaDawnofSorrowThePinnacle_mvl/mxv
 BYTE   W03
 BYTE   VOL   27*CastlevaniaDawnofSorrowThePinnacle_mvl/mxv
 BYTE   W03
 BYTE   VOL   28*CastlevaniaDawnofSorrowThePinnacle_mvl/mxv
 BYTE   W03
 BYTE   VOL   30*CastlevaniaDawnofSorrowThePinnacle_mvl/mxv
 BYTE   W03
 BYTE   VOL   31*CastlevaniaDawnofSorrowThePinnacle_mvl/mxv
 BYTE   W03
 BYTE   VOL   33*CastlevaniaDawnofSorrowThePinnacle_mvl/mxv
 BYTE   W03
 BYTE   VOL   34*CastlevaniaDawnofSorrowThePinnacle_mvl/mxv
 BYTE   W03
 BYTE   VOL   36*CastlevaniaDawnofSorrowThePinnacle_mvl/mxv
 BYTE   W03
 BYTE   VOL   37*CastlevaniaDawnofSorrowThePinnacle_mvl/mxv
 BYTE   W02
//  #11 //062   ----------------------------------------
 BYTE   W01
 BYTE   VOL   40*CastlevaniaDawnofSorrowThePinnacle_mvl/mxv
 BYTE   W03
 BYTE   VOL   41*CastlevaniaDawnofSorrowThePinnacle_mvl/mxv
 BYTE   W03
 BYTE   VOL   42*CastlevaniaDawnofSorrowThePinnacle_mvl/mxv
 BYTE   W03
 BYTE   VOL   44*CastlevaniaDawnofSorrowThePinnacle_mvl/mxv
 BYTE   W03
 BYTE   VOL   46*CastlevaniaDawnofSorrowThePinnacle_mvl/mxv
 BYTE   W03
 BYTE   VOL   48*CastlevaniaDawnofSorrowThePinnacle_mvl/mxv
 BYTE   W03
 BYTE   VOL   49*CastlevaniaDawnofSorrowThePinnacle_mvl/mxv
 BYTE   W03
 BYTE   VOL   51*CastlevaniaDawnofSorrowThePinnacle_mvl/mxv
 BYTE   W03
 BYTE   VOL   53*CastlevaniaDawnofSorrowThePinnacle_mvl/mxv
 BYTE   W03
 BYTE   VOL   55*CastlevaniaDawnofSorrowThePinnacle_mvl/mxv
 BYTE   W03
 BYTE   VOL   57*CastlevaniaDawnofSorrowThePinnacle_mvl/mxv
 BYTE   W03
 BYTE   VOL   59*CastlevaniaDawnofSorrowThePinnacle_mvl/mxv
 BYTE   W03
 BYTE   VOL   61*CastlevaniaDawnofSorrowThePinnacle_mvl/mxv
 BYTE   W03
 BYTE   VOL   62*CastlevaniaDawnofSorrowThePinnacle_mvl/mxv
 BYTE   W03
 BYTE   VOL   66*CastlevaniaDawnofSorrowThePinnacle_mvl/mxv
 BYTE   W02
 BYTE   VOL   68*CastlevaniaDawnofSorrowThePinnacle_mvl/mxv
 BYTE   W48
 BYTE   W03
//  #11 //063   ----------------------------------------
 BYTE   W96
//  #11 //064   ----------------------------------------
 BYTE   W96
//  #11 //065   ----------------------------------------
 BYTE   W96
//  #11 //066   ----------------------------------------
 BYTE   W96
//  #11 //067   ----------------------------------------
 BYTE   W96
//  #11 //068   ----------------------------------------
 BYTE   W96
//  #11 //069   ----------------------------------------
 BYTE   W96
//  #11 //070   ----------------------------------------
 BYTE   W48
 BYTE   GoTo
  POIN2 Label_016972E9
 BYTE   FINE

//**************** Track 12 (Midi-Chn.11) ****************//

CastlevaniaDawnofSorrowThePinnacle_012:
//  #12 //000   ----------------------------------------
 BYTE   KEYSH   CastlevaniaDawnofSorrowThePinnacle_key+0
 BYTE   VOICE   14
 BYTE   MODT 0
 BYTE   LFOS 44
 BYTE   BENDR  2
 BYTE   VOL   33*CastlevaniaDawnofSorrowThePinnacle_mvl/mxv
 BYTE   PAN   c_v+6
 BYTE   VOL   33*CastlevaniaDawnofSorrowThePinnacle_mvl/mxv
 BYTE   MOD 0
 BYTE   BEND   c_v+0
 BYTE   W48
 BYTE   N68  Bn3  v127
 BYTE   W48
//  #12 //001   ----------------------------------------
 BYTE   W96
//  #12 //002   ----------------------------------------
 BYTE   W48
Label_0169744F:
 BYTE   N68  En3  v127
 BYTE   W48
//  #12 //003   ----------------------------------------
 BYTE   W96
//  #12 //004   ----------------------------------------
 BYTE   W96
//  #12 //005   ----------------------------------------
 BYTE   W96
//  #12 //006   ----------------------------------------
 BYTE   W96
//  #12 //007   ----------------------------------------
 BYTE   W96
//  #12 //008   ----------------------------------------
 BYTE   W96
//  #12 //009   ----------------------------------------
 BYTE   W96
//  #12 //010   ----------------------------------------
 BYTE   W96
//  #12 //011   ----------------------------------------
 BYTE   W96
//  #12 //012   ----------------------------------------
 BYTE   W96
//  #12 //013   ----------------------------------------
 BYTE   W96
//  #12 //014   ----------------------------------------
 BYTE   W48
 BYTE   N68
 BYTE   W48
//  #12 //015   ----------------------------------------
 BYTE   W96
//  #12 //016   ----------------------------------------
 BYTE   W48
 BYTE   N68
 BYTE   W48
//  #12 //017   ----------------------------------------
 BYTE   W96
//  #12 //018   ----------------------------------------
 BYTE   W96
//  #12 //019   ----------------------------------------
 BYTE   W96
//  #12 //020   ----------------------------------------
 BYTE   W96
//  #12 //021   ----------------------------------------
 BYTE   W96
//  #12 //022   ----------------------------------------
 BYTE   W96
//  #12 //023   ----------------------------------------
 BYTE   W96
//  #12 //024   ----------------------------------------
 BYTE   W96
//  #12 //025   ----------------------------------------
 BYTE   W96
//  #12 //026   ----------------------------------------
 BYTE   W48
 BYTE   N68
 BYTE   W48
//  #12 //027   ----------------------------------------
 BYTE   W96
//  #12 //028   ----------------------------------------
 BYTE   W48
 BYTE   N68
 BYTE   W48
//  #12 //029   ----------------------------------------
 BYTE   W96
//  #12 //030   ----------------------------------------
 BYTE   W96
//  #12 //031   ----------------------------------------
 BYTE   W96
//  #12 //032   ----------------------------------------
 BYTE   W96
//  #12 //033   ----------------------------------------
 BYTE   W96
//  #12 //034   ----------------------------------------
 BYTE   W96
//  #12 //035   ----------------------------------------
 BYTE   W96
//  #12 //036   ----------------------------------------
 BYTE   W96
//  #12 //037   ----------------------------------------
 BYTE   W96
//  #12 //038   ----------------------------------------
 BYTE   W96
//  #12 //039   ----------------------------------------
 BYTE   W96
//  #12 //040   ----------------------------------------
 BYTE   W96
//  #12 //041   ----------------------------------------
 BYTE   W96
//  #12 //042   ----------------------------------------
 BYTE   W96
//  #12 //043   ----------------------------------------
 BYTE   W96
//  #12 //044   ----------------------------------------
 BYTE   W96
//  #12 //045   ----------------------------------------
 BYTE   W96
//  #12 //046   ----------------------------------------
 BYTE   W48
 BYTE   N68
 BYTE   W48
//  #12 //047   ----------------------------------------
 BYTE   W96
//  #12 //048   ----------------------------------------
 BYTE   W96
//  #12 //049   ----------------------------------------
 BYTE   W96
//  #12 //050   ----------------------------------------
 BYTE   W96
//  #12 //051   ----------------------------------------
 BYTE   W96
//  #12 //052   ----------------------------------------
 BYTE   W96
//  #12 //053   ----------------------------------------
 BYTE   W96
//  #12 //054   ----------------------------------------
 BYTE   W96
//  #12 //055   ----------------------------------------
 BYTE   W96
//  #12 //056   ----------------------------------------
 BYTE   W96
//  #12 //057   ----------------------------------------
 BYTE   W96
//  #12 //058   ----------------------------------------
 BYTE   W96
//  #12 //059   ----------------------------------------
 BYTE   W96
//  #12 //060   ----------------------------------------
 BYTE   W96
//  #12 //061   ----------------------------------------
 BYTE   W96
//  #12 //062   ----------------------------------------
 BYTE   W48
 BYTE   Gs3
 BYTE   W48
//  #12 //063   ----------------------------------------
 BYTE   W96
//  #12 //064   ----------------------------------------
 BYTE   W48
 BYTE   N68
 BYTE   W48
//  #12 //065   ----------------------------------------
 BYTE   W96
//  #12 //066   ----------------------------------------
 BYTE   W48
 BYTE   Gn3
 BYTE   W48
//  #12 //067   ----------------------------------------
 BYTE   W96
//  #12 //068   ----------------------------------------
 BYTE   W48
 BYTE   Bn3
 BYTE   W48
//  #12 //069   ----------------------------------------
 BYTE   W96
//  #12 //070   ----------------------------------------
 BYTE   W48
 BYTE   GoTo
  POIN2 Label_0169744F
 BYTE   FINE

//**************** Track 13 (Midi-Chn.12) ****************//

CastlevaniaDawnofSorrowThePinnacle_013:
//  #13 //000   ----------------------------------------
 BYTE   KEYSH   CastlevaniaDawnofSorrowThePinnacle_key+0
 BYTE   VOICE   29
 BYTE   MODT 0
 BYTE   LFOS 44
 BYTE   BENDR  2
 BYTE   VOL   53*CastlevaniaDawnofSorrowThePinnacle_mvl/mxv
 BYTE   PAN   c_v-4
 BYTE   VOL   53*CastlevaniaDawnofSorrowThePinnacle_mvl/mxv
 BYTE   MOD 0
 BYTE   BEND   c_v+0
 BYTE   N07  Bn1  v072
 BYTE   W08
 BYTE   Bn1  v052
 BYTE   W08
 BYTE   Bn1  v064
 BYTE   W08
 BYTE   Bn1  v084
 BYTE   W08
 BYTE   Bn1  v096
 BYTE   W08
 BYTE   Bn1  v112
 BYTE   W08
 BYTE   N64  Bn1  v127
 BYTE   W48
//  #13 //001   ----------------------------------------
 BYTE   W96
//  #13 //002   ----------------------------------------
 BYTE   W48
Label_016974DD:
 BYTE   W48
//  #13 //003   ----------------------------------------
 BYTE   W96
//  #13 //004   ----------------------------------------
 BYTE   W96
//  #13 //005   ----------------------------------------
 BYTE   W96
//  #13 //006   ----------------------------------------
 BYTE   W96
//  #13 //007   ----------------------------------------
 BYTE   W96
//  #13 //008   ----------------------------------------
 BYTE   W96
//  #13 //009   ----------------------------------------
 BYTE   W96
//  #13 //010   ----------------------------------------
 BYTE   W96
//  #13 //011   ----------------------------------------
 BYTE   W96
//  #13 //012   ----------------------------------------
 BYTE   W96
//  #13 //013   ----------------------------------------
 BYTE   W96
//  #13 //014   ----------------------------------------
 BYTE   W96
//  #13 //015   ----------------------------------------
 BYTE   W96
//  #13 //016   ----------------------------------------
 BYTE   W96
//  #13 //017   ----------------------------------------
 BYTE   W96
//  #13 //018   ----------------------------------------
 BYTE   W96
//  #13 //019   ----------------------------------------
 BYTE   W96
//  #13 //020   ----------------------------------------
 BYTE   W96
//  #13 //021   ----------------------------------------
 BYTE   W96
//  #13 //022   ----------------------------------------
 BYTE   W96
//  #13 //023   ----------------------------------------
 BYTE   W96
//  #13 //024   ----------------------------------------
 BYTE   W96
//  #13 //025   ----------------------------------------
 BYTE   W96
//  #13 //026   ----------------------------------------
 BYTE   W96
//  #13 //027   ----------------------------------------
 BYTE   W96
//  #13 //028   ----------------------------------------
 BYTE   W96
//  #13 //029   ----------------------------------------
 BYTE   W96
//  #13 //030   ----------------------------------------
 BYTE   W96
//  #13 //031   ----------------------------------------
 BYTE   W96
//  #13 //032   ----------------------------------------
 BYTE   W96
//  #13 //033   ----------------------------------------
 BYTE   W96
//  #13 //034   ----------------------------------------
 BYTE   W96
//  #13 //035   ----------------------------------------
 BYTE   W96
//  #13 //036   ----------------------------------------
 BYTE   W96
//  #13 //037   ----------------------------------------
 BYTE   W96
//  #13 //038   ----------------------------------------
 BYTE   W96
//  #13 //039   ----------------------------------------
 BYTE   W96
//  #13 //040   ----------------------------------------
 BYTE   W96
//  #13 //041   ----------------------------------------
 BYTE   W96
//  #13 //042   ----------------------------------------
 BYTE   W96
//  #13 //043   ----------------------------------------
 BYTE   W96
//  #13 //044   ----------------------------------------
 BYTE   W96
//  #13 //045   ----------------------------------------
 BYTE   W96
//  #13 //046   ----------------------------------------
 BYTE   W96
//  #13 //047   ----------------------------------------
 BYTE   W96
//  #13 //048   ----------------------------------------
 BYTE   W96
//  #13 //049   ----------------------------------------
 BYTE   W96
//  #13 //050   ----------------------------------------
 BYTE   W96
//  #13 //051   ----------------------------------------
 BYTE   W96
//  #13 //052   ----------------------------------------
 BYTE   W96
//  #13 //053   ----------------------------------------
 BYTE   W96
//  #13 //054   ----------------------------------------
 BYTE   W96
//  #13 //055   ----------------------------------------
 BYTE   W96
//  #13 //056   ----------------------------------------
 BYTE   W96
//  #13 //057   ----------------------------------------
 BYTE   W96
//  #13 //058   ----------------------------------------
 BYTE   W96
//  #13 //059   ----------------------------------------
 BYTE   W96
//  #13 //060   ----------------------------------------
 BYTE   W96
//  #13 //061   ----------------------------------------
 BYTE   W96
//  #13 //062   ----------------------------------------
 BYTE   W96
//  #13 //063   ----------------------------------------
 BYTE   W96
//  #13 //064   ----------------------------------------
 BYTE   W96
//  #13 //065   ----------------------------------------
 BYTE   W96
//  #13 //066   ----------------------------------------
 BYTE   W96
//  #13 //067   ----------------------------------------
 BYTE   W96
//  #13 //068   ----------------------------------------
 BYTE   W96
//  #13 //069   ----------------------------------------
 BYTE   W96
//  #13 //070   ----------------------------------------
 BYTE   W48
 BYTE   GoTo
  POIN2 Label_016974DD
 BYTE   FINE

//**************** Track 14 (Midi-Chn.13) ****************//

CastlevaniaDawnofSorrowThePinnacle_014:
//  #14 //000   ----------------------------------------
 BYTE   KEYSH   CastlevaniaDawnofSorrowThePinnacle_key+0
 BYTE   VOICE   29
 BYTE   MODT 0
 BYTE   LFOS 44
 BYTE   BENDR  2
 BYTE   VOL   53*CastlevaniaDawnofSorrowThePinnacle_mvl/mxv
 BYTE   PAN   c_v-4
 BYTE   VOL   53*CastlevaniaDawnofSorrowThePinnacle_mvl/mxv
 BYTE   MOD 0
 BYTE   BEND   c_v+0
 BYTE   W04
 BYTE   N07  Bn1  v044
 BYTE   W08
 BYTE   Bn1  v056
 BYTE   W08
 BYTE   Bn1  v068
 BYTE   W08
 BYTE   Bn1  v088
 BYTE   W08
 BYTE   Bn1  v104
 BYTE   W08
 BYTE   N13  Bn1  v120
 BYTE   W52
//  #14 //001   ----------------------------------------
 BYTE   W96
//  #14 //002   ----------------------------------------
 BYTE   W48
Label_01697553:
 BYTE   W48
//  #14 //003   ----------------------------------------
 BYTE   W96
//  #14 //004   ----------------------------------------
 BYTE   W96
//  #14 //005   ----------------------------------------
 BYTE   W96
//  #14 //006   ----------------------------------------
 BYTE   W96
//  #14 //007   ----------------------------------------
 BYTE   W96
//  #14 //008   ----------------------------------------
 BYTE   W96
//  #14 //009   ----------------------------------------
 BYTE   W96
//  #14 //010   ----------------------------------------
 BYTE   W96
//  #14 //011   ----------------------------------------
 BYTE   W96
//  #14 //012   ----------------------------------------
 BYTE   W96
//  #14 //013   ----------------------------------------
 BYTE   W96
//  #14 //014   ----------------------------------------
 BYTE   W96
//  #14 //015   ----------------------------------------
 BYTE   W96
//  #14 //016   ----------------------------------------
 BYTE   W96
//  #14 //017   ----------------------------------------
 BYTE   W96
//  #14 //018   ----------------------------------------
 BYTE   W96
//  #14 //019   ----------------------------------------
 BYTE   W96
//  #14 //020   ----------------------------------------
 BYTE   W96
//  #14 //021   ----------------------------------------
 BYTE   W96
//  #14 //022   ----------------------------------------
 BYTE   W96
//  #14 //023   ----------------------------------------
 BYTE   W96
//  #14 //024   ----------------------------------------
 BYTE   W96
//  #14 //025   ----------------------------------------
 BYTE   W96
//  #14 //026   ----------------------------------------
 BYTE   W96
//  #14 //027   ----------------------------------------
 BYTE   W96
//  #14 //028   ----------------------------------------
 BYTE   W96
//  #14 //029   ----------------------------------------
 BYTE   W96
//  #14 //030   ----------------------------------------
 BYTE   W96
//  #14 //031   ----------------------------------------
 BYTE   W96
//  #14 //032   ----------------------------------------
 BYTE   W96
//  #14 //033   ----------------------------------------
 BYTE   W96
//  #14 //034   ----------------------------------------
 BYTE   W96
//  #14 //035   ----------------------------------------
 BYTE   W96
//  #14 //036   ----------------------------------------
 BYTE   W96
//  #14 //037   ----------------------------------------
 BYTE   W96
//  #14 //038   ----------------------------------------
 BYTE   W96
//  #14 //039   ----------------------------------------
 BYTE   W96
//  #14 //040   ----------------------------------------
 BYTE   W96
//  #14 //041   ----------------------------------------
 BYTE   W96
//  #14 //042   ----------------------------------------
 BYTE   W96
//  #14 //043   ----------------------------------------
 BYTE   W96
//  #14 //044   ----------------------------------------
 BYTE   W96
//  #14 //045   ----------------------------------------
 BYTE   W96
//  #14 //046   ----------------------------------------
 BYTE   W96
//  #14 //047   ----------------------------------------
 BYTE   W96
//  #14 //048   ----------------------------------------
 BYTE   W96
//  #14 //049   ----------------------------------------
 BYTE   W96
//  #14 //050   ----------------------------------------
 BYTE   W96
//  #14 //051   ----------------------------------------
 BYTE   W96
//  #14 //052   ----------------------------------------
 BYTE   W96
//  #14 //053   ----------------------------------------
 BYTE   W96
//  #14 //054   ----------------------------------------
 BYTE   W96
//  #14 //055   ----------------------------------------
 BYTE   W96
//  #14 //056   ----------------------------------------
 BYTE   W96
//  #14 //057   ----------------------------------------
 BYTE   W96
//  #14 //058   ----------------------------------------
 BYTE   W96
//  #14 //059   ----------------------------------------
 BYTE   W96
//  #14 //060   ----------------------------------------
 BYTE   W96
//  #14 //061   ----------------------------------------
 BYTE   W96
//  #14 //062   ----------------------------------------
 BYTE   W96
//  #14 //063   ----------------------------------------
 BYTE   W96
//  #14 //064   ----------------------------------------
 BYTE   W96
//  #14 //065   ----------------------------------------
 BYTE   W96
//  #14 //066   ----------------------------------------
 BYTE   W96
//  #14 //067   ----------------------------------------
 BYTE   W96
//  #14 //068   ----------------------------------------
 BYTE   W96
//  #14 //069   ----------------------------------------
 BYTE   W96
//  #14 //070   ----------------------------------------
 BYTE   W48
 BYTE   GoTo
  POIN2 Label_01697553
 BYTE   FINE

//**************** Track 15 (Midi-Chn.14) ****************//

CastlevaniaDawnofSorrowThePinnacle_015:
//  #15 //000   ----------------------------------------
 BYTE   KEYSH   CastlevaniaDawnofSorrowThePinnacle_key+0
 BYTE   VOICE   4
 BYTE   MODT 0
 BYTE   LFOS 44
 BYTE   VOL   59*CastlevaniaDawnofSorrowThePinnacle_mvl/mxv
 BYTE   BENDR  2
 BYTE   PAN   c_v-36
 BYTE   VOL   59*CastlevaniaDawnofSorrowThePinnacle_mvl/mxv
 BYTE   MOD 0
 BYTE   VOL   59*CastlevaniaDawnofSorrowThePinnacle_mvl/mxv
 BYTE   BEND   c_v+0
 BYTE   W72
 BYTE   N05  Bn4  v056
 BYTE   W06
 BYTE   An4
 BYTE   W06
 BYTE   Bn4
 BYTE   W06
 BYTE   Gn4
 BYTE   W06
//  #15 //001   ----------------------------------------
Label_016975C1:
 BYTE   N05  An4  v056
 BYTE   W06
 BYTE   Fs4
 BYTE   W06
 BYTE   Gn4
 BYTE   W06
 BYTE   En4
 BYTE   W06
 BYTE   Fs4
 BYTE   W06
 BYTE   Ds4
 BYTE   W06
 BYTE   En4
 BYTE   W06
 BYTE   Bn3
 BYTE   W06
 BYTE   Cn4
 BYTE   W06
 BYTE   An3
 BYTE   W06
 BYTE   En3
 BYTE   W06
 BYTE   Cn3
 BYTE   W06
 BYTE   An3
 BYTE   W06
 BYTE   En3
 BYTE   W06
 BYTE   Cn3
 BYTE   W06
 BYTE   An2
 BYTE   W06
 BYTE   PEND 
//  #15 //002   ----------------------------------------
Label_016975E4:
 BYTE   N05  Fs3  v056
 BYTE   W06
 BYTE   Cn3
 BYTE   W06
 BYTE   An2
 BYTE   W06
 BYTE   Fs2  v048
 BYTE   W06
 BYTE   Ds3  v044
 BYTE   W06
 BYTE   An2
 BYTE   W06
 BYTE   Fs2  v036
 BYTE   W06
 BYTE   Ds2
 BYTE   W06
 BYTE   PEND 
Label_016975FA:
 BYTE   N92  Bn2  v044
 BYTE   TIE  En3
 BYTE   W48
//  #15 //003   ----------------------------------------
 BYTE   W48
 BYTE   N92  As2
 BYTE   W48
//  #15 //004   ----------------------------------------
 BYTE   W04
 BYTE   VOL   59*CastlevaniaDawnofSorrowThePinnacle_mvl/mxv
 BYTE   W44
 BYTE   N92  Bn2
 BYTE   W48
//  #15 //005   ----------------------------------------
 BYTE   W48
 BYTE   As2
 BYTE   W48
//  #15 //006   ----------------------------------------
 BYTE   W44
 BYTE   W01
 BYTE   EOT
 BYTE   En3
 BYTE   W48
 BYTE   W03
//  #15 //007   ----------------------------------------
 BYTE   W96
//  #15 //008   ----------------------------------------
 BYTE   W96
//  #15 //009   ----------------------------------------
 BYTE   W96
//  #15 //010   ----------------------------------------
 BYTE   W96
//  #15 //011   ----------------------------------------
 BYTE   W96
//  #15 //012   ----------------------------------------
 BYTE   W96
//  #15 //013   ----------------------------------------
 BYTE   W96
//  #15 //014   ----------------------------------------
 BYTE   W44
 BYTE   W03
 BYTE   N92  Bn2
 BYTE   W01
 BYTE   VOL   59*CastlevaniaDawnofSorrowThePinnacle_mvl/mxv
 BYTE   W36
 BYTE   VOL   59*CastlevaniaDawnofSorrowThePinnacle_mvl/mxv
 BYTE   W12
//  #15 //015   ----------------------------------------
 BYTE   W24
 BYTE   VOL   57*CastlevaniaDawnofSorrowThePinnacle_mvl/mxv
 BYTE   W23
 BYTE   N92  As2
 BYTE   W13
 BYTE   VOL   57*CastlevaniaDawnofSorrowThePinnacle_mvl/mxv
 BYTE   W36
//  #15 //016   ----------------------------------------
 BYTE   W01
 BYTE   VOL   56*CastlevaniaDawnofSorrowThePinnacle_mvl/mxv
 BYTE   W36
 BYTE   VOL   55*CastlevaniaDawnofSorrowThePinnacle_mvl/mxv
 BYTE   W10
 BYTE   N92  Bn2
 BYTE   W24
 BYTE   W02
 BYTE   VOL   54*CastlevaniaDawnofSorrowThePinnacle_mvl/mxv
 BYTE   W23
//  #15 //017   ----------------------------------------
 BYTE   W13
 BYTE   VOL   54*CastlevaniaDawnofSorrowThePinnacle_mvl/mxv
 BYTE   W32
 BYTE   W02
 BYTE   N92  As2
 BYTE   W03
 BYTE   VOL   53*CastlevaniaDawnofSorrowThePinnacle_mvl/mxv
 BYTE   W03
 BYTE   VOL   52*CastlevaniaDawnofSorrowThePinnacle_mvl/mxv
 BYTE   W03
 BYTE   VOL   51*CastlevaniaDawnofSorrowThePinnacle_mvl/mxv
 BYTE   W03
 BYTE   VOL   51*CastlevaniaDawnofSorrowThePinnacle_mvl/mxv
 BYTE   W03
 BYTE   VOL   50*CastlevaniaDawnofSorrowThePinnacle_mvl/mxv
 BYTE   W03
 BYTE   VOL   50*CastlevaniaDawnofSorrowThePinnacle_mvl/mxv
 BYTE   W03
 BYTE   VOL   49*CastlevaniaDawnofSorrowThePinnacle_mvl/mxv
 BYTE   W03
 BYTE   VOL   48*CastlevaniaDawnofSorrowThePinnacle_mvl/mxv
 BYTE   W03
 BYTE   VOL   47*CastlevaniaDawnofSorrowThePinnacle_mvl/mxv
 BYTE   W03
 BYTE   VOL   46*CastlevaniaDawnofSorrowThePinnacle_mvl/mxv
 BYTE   W03
 BYTE   VOL   45*CastlevaniaDawnofSorrowThePinnacle_mvl/mxv
 BYTE   W03
 BYTE   VOL   45*CastlevaniaDawnofSorrowThePinnacle_mvl/mxv
 BYTE   W03
 BYTE   VOL   45*CastlevaniaDawnofSorrowThePinnacle_mvl/mxv
 BYTE   W03
 BYTE   VOL   44*CastlevaniaDawnofSorrowThePinnacle_mvl/mxv
 BYTE   W03
 BYTE   VOL   43*CastlevaniaDawnofSorrowThePinnacle_mvl/mxv
 BYTE   W03
 BYTE   VOL   42*CastlevaniaDawnofSorrowThePinnacle_mvl/mxv
 BYTE   W01
//  #15 //018   ----------------------------------------
 BYTE   W02
 BYTE   VOL   41*CastlevaniaDawnofSorrowThePinnacle_mvl/mxv
 BYTE   W03
 BYTE   VOL   40*CastlevaniaDawnofSorrowThePinnacle_mvl/mxv
 BYTE   W03
 BYTE   VOL   40*CastlevaniaDawnofSorrowThePinnacle_mvl/mxv
 BYTE   W03
 BYTE   VOL   40*CastlevaniaDawnofSorrowThePinnacle_mvl/mxv
 BYTE   W03
 BYTE   VOL   39*CastlevaniaDawnofSorrowThePinnacle_mvl/mxv
 BYTE   W03
 BYTE   VOL   38*CastlevaniaDawnofSorrowThePinnacle_mvl/mxv
 BYTE   W03
 BYTE   VOL   37*CastlevaniaDawnofSorrowThePinnacle_mvl/mxv
 BYTE   W03
 BYTE   VOL   37*CastlevaniaDawnofSorrowThePinnacle_mvl/mxv
 BYTE   W03
 BYTE   VOL   37*CastlevaniaDawnofSorrowThePinnacle_mvl/mxv
 BYTE   W03
 BYTE   VOL   36*CastlevaniaDawnofSorrowThePinnacle_mvl/mxv
 BYTE   W03
 BYTE   VOL   35*CastlevaniaDawnofSorrowThePinnacle_mvl/mxv
 BYTE   W03
 BYTE   VOL   34*CastlevaniaDawnofSorrowThePinnacle_mvl/mxv
 BYTE   W03
 BYTE   VOL   34*CastlevaniaDawnofSorrowThePinnacle_mvl/mxv
 BYTE   W03
 BYTE   VOL   33*CastlevaniaDawnofSorrowThePinnacle_mvl/mxv
 BYTE   W03
 BYTE   VOL   32*CastlevaniaDawnofSorrowThePinnacle_mvl/mxv
 BYTE   W52
//  #15 //019   ----------------------------------------
 BYTE   W06
 BYTE   VOL   40*CastlevaniaDawnofSorrowThePinnacle_mvl/mxv
 BYTE   W01
 BYTE   VOL   51*CastlevaniaDawnofSorrowThePinnacle_mvl/mxv
 BYTE   W01
 BYTE   VOL   59*CastlevaniaDawnofSorrowThePinnacle_mvl/mxv
 BYTE   W88
//  #15 //020   ----------------------------------------
 BYTE   W96
//  #15 //021   ----------------------------------------
 BYTE   W96
//  #15 //022   ----------------------------------------
 BYTE   W96
//  #15 //023   ----------------------------------------
 BYTE   W96
//  #15 //024   ----------------------------------------
 BYTE   W96
//  #15 //025   ----------------------------------------
 BYTE   W96
//  #15 //026   ----------------------------------------
 BYTE   W48
 BYTE   VOL   28*CastlevaniaDawnofSorrowThePinnacle_mvl/mxv
 BYTE   N92  Bn2  v072
 BYTE   W15
 BYTE   VOL   28*CastlevaniaDawnofSorrowThePinnacle_mvl/mxv
 BYTE   W15
 BYTE   VOL   28*CastlevaniaDawnofSorrowThePinnacle_mvl/mxv
 BYTE   W15
 BYTE   VOL   29*CastlevaniaDawnofSorrowThePinnacle_mvl/mxv
 BYTE   W03
//  #15 //027   ----------------------------------------
 BYTE   W12
 BYTE   VOL   30*CastlevaniaDawnofSorrowThePinnacle_mvl/mxv
 BYTE   W15
 BYTE   VOL   30*CastlevaniaDawnofSorrowThePinnacle_mvl/mxv
 BYTE   W15
 BYTE   VOL   31*CastlevaniaDawnofSorrowThePinnacle_mvl/mxv
 BYTE   W05
 BYTE   N92  As2
 BYTE   W10
 BYTE   VOL   32*CastlevaniaDawnofSorrowThePinnacle_mvl/mxv
 BYTE   W15
 BYTE   VOL   32*CastlevaniaDawnofSorrowThePinnacle_mvl/mxv
 BYTE   W15
 BYTE   VOL   33*CastlevaniaDawnofSorrowThePinnacle_mvl/mxv
 BYTE   W09
//  #15 //028   ----------------------------------------
 BYTE   W06
 BYTE   VOL   34*CastlevaniaDawnofSorrowThePinnacle_mvl/mxv
 BYTE   W15
 BYTE   VOL   34*CastlevaniaDawnofSorrowThePinnacle_mvl/mxv
 BYTE   W15
 BYTE   VOL   35*CastlevaniaDawnofSorrowThePinnacle_mvl/mxv
 BYTE   W11
 BYTE   TIE  Bn2
 BYTE   W04
 BYTE   VOL   36*CastlevaniaDawnofSorrowThePinnacle_mvl/mxv
 BYTE   W15
 BYTE   VOL   37*CastlevaniaDawnofSorrowThePinnacle_mvl/mxv
 BYTE   W15
 BYTE   VOL   37*CastlevaniaDawnofSorrowThePinnacle_mvl/mxv
 BYTE   W15
//  #15 //029   ----------------------------------------
 BYTE   VOL   37*CastlevaniaDawnofSorrowThePinnacle_mvl/mxv
 BYTE   W15
 BYTE   VOL   38*CastlevaniaDawnofSorrowThePinnacle_mvl/mxv
 BYTE   W15
 BYTE   VOL   39*CastlevaniaDawnofSorrowThePinnacle_mvl/mxv
 BYTE   W15
 BYTE   VOL   40*CastlevaniaDawnofSorrowThePinnacle_mvl/mxv
 BYTE   W07
 BYTE   VOL   40*CastlevaniaDawnofSorrowThePinnacle_mvl/mxv
 BYTE   W03
 BYTE   VOL   40*CastlevaniaDawnofSorrowThePinnacle_mvl/mxv
 BYTE   W04
 BYTE   VOL   41*CastlevaniaDawnofSorrowThePinnacle_mvl/mxv
 BYTE   W03
 BYTE   VOL   42*CastlevaniaDawnofSorrowThePinnacle_mvl/mxv
 BYTE   W04
 BYTE   VOL   43*CastlevaniaDawnofSorrowThePinnacle_mvl/mxv
 BYTE   W03
 BYTE   VOL   44*CastlevaniaDawnofSorrowThePinnacle_mvl/mxv
 BYTE   W04
 BYTE   VOL   45*CastlevaniaDawnofSorrowThePinnacle_mvl/mxv
 BYTE   W03
 BYTE   VOL   45*CastlevaniaDawnofSorrowThePinnacle_mvl/mxv
 BYTE   W04
 BYTE   VOL   45*CastlevaniaDawnofSorrowThePinnacle_mvl/mxv
 BYTE   W04
 BYTE   VOL   46*CastlevaniaDawnofSorrowThePinnacle_mvl/mxv
 BYTE   W03
 BYTE   VOL   47*CastlevaniaDawnofSorrowThePinnacle_mvl/mxv
 BYTE   W04
 BYTE   VOL   48*CastlevaniaDawnofSorrowThePinnacle_mvl/mxv
 BYTE   W03
 BYTE   VOL   49*CastlevaniaDawnofSorrowThePinnacle_mvl/mxv
 BYTE   W02
//  #15 //030   ----------------------------------------
 BYTE   W02
 BYTE   VOL   50*CastlevaniaDawnofSorrowThePinnacle_mvl/mxv
 BYTE   W03
 BYTE   VOL   50*CastlevaniaDawnofSorrowThePinnacle_mvl/mxv
 BYTE   W04
 BYTE   VOL   51*CastlevaniaDawnofSorrowThePinnacle_mvl/mxv
 BYTE   W03
 BYTE   VOL   51*CastlevaniaDawnofSorrowThePinnacle_mvl/mxv
 BYTE   W04
 BYTE   VOL   52*CastlevaniaDawnofSorrowThePinnacle_mvl/mxv
 BYTE   W04
 BYTE   VOL   53*CastlevaniaDawnofSorrowThePinnacle_mvl/mxv
 BYTE   W03
 BYTE   VOL   54*CastlevaniaDawnofSorrowThePinnacle_mvl/mxv
 BYTE   W04
 BYTE   VOL   54*CastlevaniaDawnofSorrowThePinnacle_mvl/mxv
 BYTE   W03
 BYTE   VOL   55*CastlevaniaDawnofSorrowThePinnacle_mvl/mxv
 BYTE   W04
 BYTE   VOL   56*CastlevaniaDawnofSorrowThePinnacle_mvl/mxv
 BYTE   W03
 BYTE   VOL   57*CastlevaniaDawnofSorrowThePinnacle_mvl/mxv
 BYTE   W04
 BYTE   VOL   57*CastlevaniaDawnofSorrowThePinnacle_mvl/mxv
 BYTE   W03
 BYTE   VOL   59*CastlevaniaDawnofSorrowThePinnacle_mvl/mxv
 BYTE   W01
 BYTE   VOL   59*CastlevaniaDawnofSorrowThePinnacle_mvl/mxv
 BYTE   W01
 BYTE   EOT
 BYTE   W48
 BYTE   W02
//  #15 //031   ----------------------------------------
 BYTE   W96
//  #15 //032   ----------------------------------------
 BYTE   W96
//  #15 //033   ----------------------------------------
 BYTE   W96
//  #15 //034   ----------------------------------------
 BYTE   W96
//  #15 //035   ----------------------------------------
 BYTE   W96
//  #15 //036   ----------------------------------------
 BYTE   W96
//  #15 //037   ----------------------------------------
 BYTE   W96
//  #15 //038   ----------------------------------------
 BYTE   W96
//  #15 //039   ----------------------------------------
 BYTE   W96
//  #15 //040   ----------------------------------------
 BYTE   W96
//  #15 //041   ----------------------------------------
 BYTE   W96
//  #15 //042   ----------------------------------------
 BYTE   W96
//  #15 //043   ----------------------------------------
 BYTE   W96
//  #15 //044   ----------------------------------------
 BYTE   W96
//  #15 //045   ----------------------------------------
 BYTE   W96
//  #15 //046   ----------------------------------------
 BYTE   W96
//  #15 //047   ----------------------------------------
 BYTE   W96
//  #15 //048   ----------------------------------------
 BYTE   W96
//  #15 //049   ----------------------------------------
 BYTE   W96
//  #15 //050   ----------------------------------------
 BYTE   W96
//  #15 //051   ----------------------------------------
 BYTE   W96
//  #15 //052   ----------------------------------------
 BYTE   W96
//  #15 //053   ----------------------------------------
 BYTE   W96
//  #15 //054   ----------------------------------------
 BYTE   W96
//  #15 //055   ----------------------------------------
 BYTE   W96
//  #15 //056   ----------------------------------------
 BYTE   W96
//  #15 //057   ----------------------------------------
 BYTE   W96
//  #15 //058   ----------------------------------------
 BYTE   W96
//  #15 //059   ----------------------------------------
 BYTE   W96
//  #15 //060   ----------------------------------------
 BYTE   W96
//  #15 //061   ----------------------------------------
 BYTE   W96
//  #15 //062   ----------------------------------------
 BYTE   W96
//  #15 //063   ----------------------------------------
 BYTE   W96
//  #15 //064   ----------------------------------------
 BYTE   W96
//  #15 //065   ----------------------------------------
 BYTE   W96
//  #15 //066   ----------------------------------------
 BYTE   W96
//  #15 //067   ----------------------------------------
 BYTE   W96
//  #15 //068   ----------------------------------------
 BYTE   VOL   59*CastlevaniaDawnofSorrowThePinnacle_mvl/mxv
 BYTE   W72
 BYTE   N05  Bn4  v056
 BYTE   W06
 BYTE   An4
 BYTE   W06
 BYTE   Bn4
 BYTE   W06
 BYTE   Gn4
 BYTE   W06
//  #15 //069   ----------------------------------------
 BYTE   PATT
  POIN2 Label_016975C1
//  #15 //070   ----------------------------------------
 BYTE   PATT
  POIN2 Label_016975E4
//  #15 //071   ----------------------------------------
 BYTE   GoTo
  POIN2 Label_016975FA
 BYTE   FINE

//******************************************************//
	ALIGN 4

CastlevaniaDawnofSorrowThePinnacle:
	BYTE	15	// NumTrks
	BYTE	0	// NumBlks
	BYTE	CastlevaniaDawnofSorrowThePinnacle_pri	// Priority
	BYTE	CastlevaniaDawnofSorrowThePinnacle_rev	// Reverb.
    
	POIN2	CastlevaniaDawnofSorrowThePinnacle_grp
    
	POIN2	CastlevaniaDawnofSorrowThePinnacle_001
	POIN2	CastlevaniaDawnofSorrowThePinnacle_002
	POIN2	CastlevaniaDawnofSorrowThePinnacle_003
	POIN2	CastlevaniaDawnofSorrowThePinnacle_004
	POIN2	CastlevaniaDawnofSorrowThePinnacle_005
	POIN2	CastlevaniaDawnofSorrowThePinnacle_006
	POIN2	CastlevaniaDawnofSorrowThePinnacle_007
	POIN2	CastlevaniaDawnofSorrowThePinnacle_008
	POIN2	CastlevaniaDawnofSorrowThePinnacle_009
	POIN2	CastlevaniaDawnofSorrowThePinnacle_010
	POIN2	CastlevaniaDawnofSorrowThePinnacle_011
	POIN2	CastlevaniaDawnofSorrowThePinnacle_012
	POIN2	CastlevaniaDawnofSorrowThePinnacle_013
	POIN2	CastlevaniaDawnofSorrowThePinnacle_014
	POIN2	CastlevaniaDawnofSorrowThePinnacle_015

	
