//Event file generated from Sappy .s format.
	#include "MPlayDef.event"

	#define	CastlevaniaPortraitofRuinJailofaJewelRSflame_grp  voicegroup000
	#define	CastlevaniaPortraitofRuinJailofaJewelRSflame_pri  10
	#define	CastlevaniaPortraitofRuinJailofaJewelRSflame_rev  0
	#define	CastlevaniaPortraitofRuinJailofaJewelRSflame_mvl  127
	#define	CastlevaniaPortraitofRuinJailofaJewelRSflame_key  0
	#define	CastlevaniaPortraitofRuinJailofaJewelRSflame_tbs  1
	#define	CastlevaniaPortraitofRuinJailofaJewelRSflame_exg  0
	#define	CastlevaniaPortraitofRuinJailofaJewelRSflame_cmp  1

	// .rodata
	//	CastlevaniaPortraitofRuinJailofaJewelRSflame
	ALIGN 4


//**************** Track 1 (Midi-Chn.0) ****************//

CastlevaniaPortraitofRuinJailofaJewelRSflame_001:
// 000   ----------------------------------------
Label_0_01EA6188:
 BYTE   KEYSH   CastlevaniaPortraitofRuinJailofaJewelRSflame_key+0
 BYTE   VOICE   33
 BYTE   VOL   67*CastlevaniaPortraitofRuinJailofaJewelRSflame_mvl/mxv
 BYTE   PAN   c_v+0
 BYTE   N11  An0  v127
 BYTE   TEMPO   160*CastlevaniaPortraitofRuinJailofaJewelRSflame_tbs/2
 BYTE   W12
 BYTE   N11  An0  v127
 BYTE   W12
 BYTE   Bn0
 BYTE   W12
 BYTE   An0
 BYTE   W12
 BYTE   An0
 BYTE   W12
 BYTE   Cn1
 BYTE   W12
 BYTE   An0
 BYTE   W12
 BYTE   An0
 BYTE   W12
// 001   ----------------------------------------
Label_0_01EA61A6:
 BYTE   N11  An0  v127
 BYTE   W12
 BYTE   An0
 BYTE   W12
 BYTE   Bn0
 BYTE   W12
 BYTE   An0
 BYTE   W12
 BYTE   An0
 BYTE   W12
 BYTE   Cn1
 BYTE   W12
 BYTE   An0
 BYTE   W12
 BYTE   An0
 BYTE   W12
 BYTE   PEND 
// 002   ----------------------------------------
 BYTE   PATT
  POIN2 Label_0_01EA61A6
// 003   ----------------------------------------
 BYTE   PATT
  POIN2 Label_0_01EA61A6
// 004   ----------------------------------------
 BYTE   PATT
  POIN2 Label_0_01EA61A6
// 005   ----------------------------------------
 BYTE   PATT
  POIN2 Label_0_01EA61A6
// 006   ----------------------------------------
 BYTE   PATT
  POIN2 Label_0_01EA61A6
// 007   ----------------------------------------
 BYTE   PATT
  POIN2 Label_0_01EA61A6
// 008   ----------------------------------------
 BYTE   PATT
  POIN2 Label_0_01EA61A6
// 009   ----------------------------------------
Label_0_01EA61DC:
 BYTE   N11  Gn0  v127
 BYTE   W12
 BYTE   Gn0
 BYTE   W12
 BYTE   An0
 BYTE   W12
 BYTE   Gn0
 BYTE   W12
 BYTE   Gn0
 BYTE   W12
 BYTE   Bn0
 BYTE   W12
 BYTE   Gn0
 BYTE   W12
 BYTE   Gn0
 BYTE   W12
 BYTE   PEND 
// 010   ----------------------------------------
 BYTE   N11  Fn0  v127
 BYTE   W12
 BYTE   Fn0
 BYTE   W12
 BYTE   Gn0
 BYTE   W12
 BYTE   Fn0
 BYTE   W12
 BYTE   Fn0
 BYTE   W12
 BYTE   An0
 BYTE   W12
 BYTE   Fn0
 BYTE   W12
 BYTE   Fn0
 BYTE   W12
// 011   ----------------------------------------
 BYTE   PATT
  POIN2 Label_0_01EA61DC
// 012   ----------------------------------------
 BYTE   PATT
  POIN2 Label_0_01EA61A6
// 013   ----------------------------------------
 BYTE   PATT
  POIN2 Label_0_01EA61DC
// 014   ----------------------------------------
 BYTE   N23  Fn0  v127
 BYTE   W24
 BYTE   N11
 BYTE   W12
 BYTE   N17  Gn0
 BYTE   W24
 BYTE   N23
 BYTE   W24
 BYTE   Gn0
 BYTE   W24
// 015   ----------------------------------------
 BYTE   N11  An0
 BYTE   W12
 BYTE   Bn0
 BYTE   W12
 BYTE   An0
 BYTE   W12
 BYTE   Cn1
 BYTE   W12
 BYTE   An0
 BYTE   W12
 BYTE   Dn1
 BYTE   W12
 BYTE   En1
 BYTE   W12
 BYTE   An0
 BYTE   W12
// 016   ----------------------------------------
Label_0_01EA622E:
 BYTE   N11  An0  v127
 BYTE   W12
 BYTE   Bn0
 BYTE   W12
 BYTE   An0
 BYTE   W12
 BYTE   An0
 BYTE   W12
 BYTE   Cn1
 BYTE   W12
 BYTE   An0
 BYTE   W12
 BYTE   An0
 BYTE   W12
 BYTE   Gn0
 BYTE   W12
 BYTE   PEND 
// 017   ----------------------------------------
 BYTE   N11  Gn0  v127
 BYTE   W12
 BYTE   An0
 BYTE   W12
 BYTE   Gn0
 BYTE   W12
 BYTE   Gn0
 BYTE   W12
 BYTE   Bn0
 BYTE   W12
 BYTE   Gn0
 BYTE   W12
 BYTE   Gn0
 BYTE   W12
 BYTE   Fn0
 BYTE   W12
// 018   ----------------------------------------
 BYTE   Fn0
 BYTE   W12
 BYTE   Gn0
 BYTE   W12
 BYTE   Fn0
 BYTE   W12
 BYTE   Fn0
 BYTE   W12
 BYTE   An0
 BYTE   W12
 BYTE   Fn0
 BYTE   W12
 BYTE   Fn0
 BYTE   W12
 BYTE   Gn0
 BYTE   W12
// 019   ----------------------------------------
 BYTE   Gn0
 BYTE   W12
 BYTE   An0
 BYTE   W12
 BYTE   Gn0
 BYTE   W12
 BYTE   Gn0
 BYTE   W12
 BYTE   Bn0
 BYTE   W12
 BYTE   Gn0
 BYTE   W12
 BYTE   Gn0
 BYTE   W12
 BYTE   An0
 BYTE   W12
// 020   ----------------------------------------
 BYTE   PATT
  POIN2 Label_0_01EA622E
// 021   ----------------------------------------
 BYTE   N11  Gn0  v127
 BYTE   W12
 BYTE   An0
 BYTE   W12
 BYTE   Gn0
 BYTE   W12
 BYTE   Gn0
 BYTE   W12
 BYTE   Bn0
 BYTE   W12
 BYTE   Gn0
 BYTE   W12
 BYTE   Gn0
 BYTE   W12
 BYTE   N23  Fn0
 BYTE   W24
// 022   ----------------------------------------
 BYTE   N11
 BYTE   W12
 BYTE   N17  Gn0
 BYTE   W24
 BYTE   N23
 BYTE   W24
 BYTE   Gn0
 BYTE   W24
 BYTE   N11  An0
 BYTE   W12
// 023   ----------------------------------------
 BYTE   Bn0
 BYTE   W12
 BYTE   An0
 BYTE   W12
 BYTE   Cn1
 BYTE   W12
 BYTE   An0
 BYTE   W12
 BYTE   Dn1
 BYTE   W12
 BYTE   En1
 BYTE   W12
 BYTE   Fs0
 BYTE   W12
 BYTE   Fs0
 BYTE   W12
// 024   ----------------------------------------
Label_0_01EA62A7:
 BYTE   N11  Gs0  v127
 BYTE   W12
 BYTE   Fs0
 BYTE   W12
 BYTE   Fs0
 BYTE   W12
 BYTE   An0
 BYTE   W12
 BYTE   Fs0
 BYTE   W12
 BYTE   Fs0
 BYTE   W12
 BYTE   Fs0
 BYTE   W12
 BYTE   Fs0
 BYTE   W12
 BYTE   PEND 
// 025   ----------------------------------------
 BYTE   PATT
  POIN2 Label_0_01EA62A7
// 026   ----------------------------------------
 BYTE   PATT
  POIN2 Label_0_01EA62A7
// 027   ----------------------------------------
Label_0_01EA62C4:
 BYTE   N11  Gs0  v127
 BYTE   W12
 BYTE   Fs0
 BYTE   W12
 BYTE   Fs0
 BYTE   W12
 BYTE   An0
 BYTE   W12
 BYTE   Fs0
 BYTE   W12
 BYTE   Fs0
 BYTE   W12
 BYTE   Dn0
 BYTE   W12
 BYTE   Dn0
 BYTE   W12
 BYTE   PEND 
// 028   ----------------------------------------
Label_0_01EA62D7:
 BYTE   N11  En0  v127
 BYTE   W12
 BYTE   Dn0
 BYTE   W12
 BYTE   Dn0
 BYTE   W12
 BYTE   Fs0
 BYTE   W12
 BYTE   Dn0
 BYTE   W12
 BYTE   Dn0
 BYTE   W12
 BYTE   Dn0
 BYTE   W12
 BYTE   Dn0
 BYTE   W12
 BYTE   PEND 
// 029   ----------------------------------------
 BYTE   N11  En0  v127
 BYTE   W12
 BYTE   Dn0
 BYTE   W12
 BYTE   Dn0
 BYTE   W12
 BYTE   Fs0
 BYTE   W12
 BYTE   Dn0
 BYTE   W12
 BYTE   Dn0
 BYTE   W12
 BYTE   En0
 BYTE   W12
 BYTE   En0
 BYTE   W12
// 030   ----------------------------------------
 BYTE   Fs0
 BYTE   W12
 BYTE   En0
 BYTE   W12
 BYTE   En0
 BYTE   W12
 BYTE   Gs0
 BYTE   W12
 BYTE   En0
 BYTE   W12
 BYTE   En0
 BYTE   W12
 BYTE   En0
 BYTE   W12
 BYTE   En0
 BYTE   W12
// 031   ----------------------------------------
 BYTE   Fs0
 BYTE   W12
 BYTE   En0
 BYTE   W12
 BYTE   En0
 BYTE   W12
 BYTE   Gs0
 BYTE   W12
 BYTE   En0
 BYTE   W12
 BYTE   En0
 BYTE   W12
 BYTE   Fs0
 BYTE   W12
 BYTE   Fs0
 BYTE   W12
// 032   ----------------------------------------
 BYTE   PATT
  POIN2 Label_0_01EA62A7
// 033   ----------------------------------------
 BYTE   PATT
  POIN2 Label_0_01EA62A7
// 034   ----------------------------------------
 BYTE   PATT
  POIN2 Label_0_01EA62A7
// 035   ----------------------------------------
 BYTE   PATT
  POIN2 Label_0_01EA62C4
// 036   ----------------------------------------
 BYTE   PATT
  POIN2 Label_0_01EA62D7
// 037   ----------------------------------------
 BYTE   N11  En0  v127
 BYTE   W12
 BYTE   Dn0
 BYTE   W12
 BYTE   Dn0
 BYTE   W12
 BYTE   Fs0
 BYTE   W12
 BYTE   Dn0
 BYTE   W12
 BYTE   Dn0
 BYTE   W12
 BYTE   Cs0
 BYTE   W12
 BYTE   Cs0
 BYTE   W12
// 038   ----------------------------------------
 BYTE   En0
 BYTE   W12
 BYTE   Cs0
 BYTE   W12
 BYTE   Cs0
 BYTE   W12
 BYTE   Gs0
 BYTE   W12
 BYTE   Cs0
 BYTE   W12
 BYTE   Cs0
 BYTE   W12
 BYTE   Cs0
 BYTE   W12
 BYTE   Cs0
 BYTE   W12
// 039   ----------------------------------------
 BYTE   En0
 BYTE   W12
 BYTE   Cs0
 BYTE   W12
 BYTE   Cs0
 BYTE   W12
 BYTE   Gs0
 BYTE   W12
 BYTE   Cs0
 BYTE   W12
 BYTE   Cs0
 BYTE   W12
 BYTE   An0
 BYTE   W12
 BYTE   An0
 BYTE   W12
// 040   ----------------------------------------
Label_0_01EA6367:
 BYTE   N11  Bn0  v127
 BYTE   W12
 BYTE   An0
 BYTE   W12
 BYTE   An0
 BYTE   W12
 BYTE   Cn1
 BYTE   W12
 BYTE   An0
 BYTE   W12
 BYTE   An0
 BYTE   W12
 BYTE   An0
 BYTE   W12
 BYTE   An0
 BYTE   W12
 BYTE   PEND 
// 041   ----------------------------------------
 BYTE   PATT
  POIN2 Label_0_01EA6367
// 042   ----------------------------------------
 BYTE   PATT
  POIN2 Label_0_01EA6367
// 043   ----------------------------------------
 BYTE   PATT
  POIN2 Label_0_01EA6367
// 044   ----------------------------------------
Label_0_01EA6389:
 BYTE   N11  As0  v127
 BYTE   W12
 BYTE   An0
 BYTE   W12
 BYTE   An0
 BYTE   W12
 BYTE   Cn1
 BYTE   W12
 BYTE   An0
 BYTE   W12
 BYTE   An0
 BYTE   W12
 BYTE   An0
 BYTE   W12
 BYTE   An0
 BYTE   W12
 BYTE   PEND 
// 045   ----------------------------------------
 BYTE   PATT
  POIN2 Label_0_01EA6389
// 046   ----------------------------------------
 BYTE   PATT
  POIN2 Label_0_01EA6367
// 047   ----------------------------------------
 BYTE   N11  Bn0  v127
 BYTE   W12
 BYTE   An0
 BYTE   W12
 BYTE   An0
 BYTE   W12
 BYTE   Cn1
 BYTE   W12
 BYTE   An0
 BYTE   W12
 BYTE   An0
 BYTE   W02
 BYTE   W09
 BYTE   N11  An0  v127
 BYTE   W12
 BYTE   An1
 BYTE   W12
 BYTE   An0
 BYTE   W12
// 048   ----------------------------------------
 BYTE   N23  Gn0
 BYTE   W24
 BYTE   N11  Gn1
 BYTE   W12
 BYTE   Gn0
 BYTE   W12
 BYTE   N17  Fn0
 BYTE   W24
 BYTE   N11  Fn1
 BYTE   W12
Label_0_01EA63CB:
 BYTE   N11  Fn0  v127
 BYTE   W12
// 049   ----------------------------------------
 BYTE   N23  Gn0
 BYTE   W24
 BYTE   N11  Gn1
 BYTE   W12
 BYTE   Gn0
 BYTE   W12
 BYTE   Gn1
 BYTE   W12
 BYTE   An0
 BYTE   W12
 BYTE   An1
 BYTE   W12
 BYTE   PEND 
Label_0_01EA63DE:
 BYTE   N11  An0  v127
 BYTE   W12
// 050   ----------------------------------------
 BYTE   N23  Gn0
 BYTE   W24
 BYTE   N11  Gn1
 BYTE   W12
 BYTE   Gn0
 BYTE   W12
 BYTE   N23  Fn0
 BYTE   W24
 BYTE   N11  Fn1
 BYTE   W12
 BYTE   PEND 
// 051   ----------------------------------------
 BYTE   PATT
  POIN2 Label_0_01EA63CB
// 052   ----------------------------------------
 BYTE   PATT
  POIN2 Label_0_01EA63DE
// 053   ----------------------------------------
 BYTE   N11  Fn0  v127
 BYTE   W12
 BYTE   N17  Gn0
 BYTE   W24
 BYTE   N11  Gn1
 BYTE   W12
 BYTE   Gn0
 BYTE   W12
 BYTE   Gn1
 BYTE   W12
 BYTE   An0
 BYTE   W12
 BYTE   An1
 BYTE   W12
// 054   ----------------------------------------
 BYTE   An0
 BYTE   W12
 BYTE   N23  An1
 BYTE   W24
 BYTE   N11
 BYTE   W12
 BYTE   An0
 BYTE   W12
 BYTE   N23
 BYTE   W24
 BYTE   N11  Bn0
 BYTE   W12
// 055   ----------------------------------------
 BYTE   Cn1
 BYTE   W12
 BYTE   Dn1
 BYTE   W12
 BYTE   En1
 BYTE   W12
 BYTE   N23  An0
 BYTE   W24
 BYTE   N11  Gn0
 BYTE   W12
 BYTE   Fn0
 BYTE   W12
 BYTE   Fn1
 BYTE   W12
// 056   ----------------------------------------
Label_0_01EA642B:
 BYTE   N11  Fn0  v127
 BYTE   W12
 BYTE   Fn1
 BYTE   W12
 BYTE   Fn0
 BYTE   W12
 BYTE   Fn1
 BYTE   W12
 BYTE   Fn0
 BYTE   W12
 BYTE   Fn1
 BYTE   W12
 BYTE   Fn0
 BYTE   W12
 BYTE   Fn1
 BYTE   W12
 BYTE   PEND 
// 057   ----------------------------------------
Label_0_01EA643E:
 BYTE   N11  Fn0  v127
 BYTE   W12
 BYTE   Fn1
 BYTE   W12
 BYTE   Fn0
 BYTE   W12
 BYTE   Fn1
 BYTE   W12
 BYTE   Fn0
 BYTE   W12
 BYTE   Fn1
 BYTE   W12
 BYTE   En0
 BYTE   W12
 BYTE   En1
 BYTE   W12
 BYTE   PEND 
// 058   ----------------------------------------
Label_0_01EA6451:
 BYTE   N11  En0  v127
 BYTE   W12
 BYTE   En1
 BYTE   W12
 BYTE   En0
 BYTE   W12
 BYTE   En1
 BYTE   W12
 BYTE   En0
 BYTE   W12
 BYTE   En1
 BYTE   W12
 BYTE   En0
 BYTE   W12
 BYTE   En1
 BYTE   W12
 BYTE   PEND 
// 059   ----------------------------------------
Label_0_01EA6464:
 BYTE   N11  En0  v127
 BYTE   W12
 BYTE   En1
 BYTE   W12
 BYTE   En0
 BYTE   W12
 BYTE   En1
 BYTE   W12
 BYTE   En0
 BYTE   W12
 BYTE   En1
 BYTE   W12
 BYTE   An0
 BYTE   W12
 BYTE   An1
 BYTE   W12
 BYTE   PEND 
// 060   ----------------------------------------
Label_0_01EA6477:
 BYTE   N11  An0  v127
 BYTE   W12
 BYTE   An1
 BYTE   W12
 BYTE   An0
 BYTE   W12
 BYTE   An1
 BYTE   W12
 BYTE   An0
 BYTE   W12
 BYTE   An1
 BYTE   W12
 BYTE   An0
 BYTE   W12
 BYTE   An1
 BYTE   W12
 BYTE   PEND 
// 061   ----------------------------------------
 BYTE   PATT
  POIN2 Label_0_01EA6477
// 062   ----------------------------------------
 BYTE   PATT
  POIN2 Label_0_01EA6477
// 063   ----------------------------------------
 BYTE   N11  An0  v127
 BYTE   W12
 BYTE   An1
 BYTE   W12
 BYTE   Gn0
 BYTE   W12
 BYTE   Gn1
 BYTE   W12
 BYTE   Gn0
 BYTE   W12
 BYTE   Gn1
 BYTE   W12
 BYTE   Fn0
 BYTE   W12
 BYTE   Fn1
 BYTE   W12
// 064   ----------------------------------------
 BYTE   PATT
  POIN2 Label_0_01EA642B
// 065   ----------------------------------------
 BYTE   PATT
  POIN2 Label_0_01EA643E
// 066   ----------------------------------------
 BYTE   PATT
  POIN2 Label_0_01EA6451
// 067   ----------------------------------------
 BYTE   PATT
  POIN2 Label_0_01EA6464
// 068   ----------------------------------------
 BYTE   PATT
  POIN2 Label_0_01EA6477
// 069   ----------------------------------------
 BYTE   N11  An0  v127
 BYTE   W12
 BYTE   An1
 BYTE   W12
 BYTE   An0
 BYTE   W12
 BYTE   An1
 BYTE   W12
 BYTE   An0
 BYTE   W12
 BYTE   An1
 BYTE   W04
 BYTE   W07
 BYTE   N11  An0  v127
 BYTE   W04
 BYTE   W07
 BYTE   N11  An0  v127
 BYTE   W12
// 070   ----------------------------------------
 BYTE   PATT
  POIN2 Label_0_01EA6367
// 071   ----------------------------------------
 BYTE   N11  Bn0  v127
 BYTE   W12
 BYTE   An0
 BYTE   W12
 BYTE   An0
 BYTE   W12
 BYTE   Cn1
 BYTE   W12
 BYTE   An0
 BYTE   W12
 BYTE   An0
 BYTE   W12
 BYTE   N96
 BYTE   W48
// 072   ----------------------------------------
Label_0_01EA64EC:
 BYTE   N42  An0  v127
 BYTE   W21
 BYTE   N01
 BYTE   W72
 BYTE   W03
 BYTE   PEND 
// 073   ----------------------------------------
 BYTE   N19  Ds0  v127
 BYTE   W24
 BYTE   Ds0
 BYTE   W24
 BYTE   N96  An0
 BYTE   W48
// 074   ----------------------------------------
 BYTE   PATT
  POIN2 Label_0_01EA64EC
// 075   ----------------------------------------
 BYTE   N19  En0  v127
 BYTE   W24
 BYTE   En0
 BYTE   W24
 BYTE   N96  An0
 BYTE   W48
// 076   ----------------------------------------
 BYTE   N90
 BYTE   W44
 BYTE   W01
 BYTE   N01
 BYTE   W96
// 077   ----------------------------------------
 BYTE   W03
 BYTE   N92  Ds0
 BYTE   W44
 BYTE   W02
 BYTE   N03
 BYTE   W48
// 078   ----------------------------------------
 BYTE   W02
 BYTE   N40  Ds1
 BYTE   W20
 BYTE   N01
 BYTE   W28
 BYTE   N40
 BYTE   W20
 BYTE   N01
 BYTE   W28
// 079   ----------------------------------------
 BYTE   N19
 BYTE   W24
 BYTE   Ds1
 BYTE   W24
 BYTE   N11  An0
 BYTE   W11
 BYTE   N11  An0  v127
 BYTE   W12
 BYTE   Bn0
 BYTE   W12
 BYTE   An0
 BYTE   W12
Label_0_01EA6530:
 BYTE   N11  An0  v127
 BYTE   W12
// 080   ----------------------------------------
 BYTE   Cn1
 BYTE   W12
 BYTE   An0
 BYTE   W12
 BYTE   An0
 BYTE   W12
 BYTE   An0
 BYTE   W12
 BYTE   An0
 BYTE   W12
 BYTE   Bn0
 BYTE   W12
 BYTE   An0
 BYTE   W12
 BYTE   PEND 
// 081   ----------------------------------------
 BYTE   PATT
  POIN2 Label_0_01EA6530
// 082   ----------------------------------------
 BYTE   PATT
  POIN2 Label_0_01EA6530
// 083   ----------------------------------------
 BYTE   N11  An0  v127
 BYTE   W12
 BYTE   Cn1
 BYTE   W12
 BYTE   An0
 BYTE   W10
 BYTE   W02
 BYTE   N10  An0  v127
 BYTE   GoTo
  POIN2 Label_0_01EA6188
 BYTE   FINE

//**************** Track 2 (Midi-Chn.1) ****************//

CastlevaniaPortraitofRuinJailofaJewelRSflame_002:
// 000   ----------------------------------------
Label_1_01EA6E7C:
 BYTE   KEYSH   CastlevaniaPortraitofRuinJailofaJewelRSflame_key+0
 BYTE   VOICE   48
 BYTE   VOL   18*CastlevaniaPortraitofRuinJailofaJewelRSflame_mvl/mxv
 BYTE   PAN   c_v-19
 BYTE   PAN   c_v-39
 BYTE   N96  An3  v098
 BYTE   N96  An4
 BYTE   TEMPO   160*CastlevaniaPortraitofRuinJailofaJewelRSflame_tbs/2
 BYTE   W48
 BYTE   N96  An3  v098
 BYTE   N96  An4
 BYTE   W48
// 001   ----------------------------------------
 BYTE   An3
 BYTE   N96  An4
 BYTE   W48
 BYTE   N06  An3
 BYTE   N06  An4
 BYTE   W96
// 002   ----------------------------------------
 BYTE   W54
 BYTE   Gn3
 BYTE   N06  Gn4
 BYTE   W06
 BYTE   Fn3
 BYTE   N06  Fn4
 BYTE   W06
 BYTE   En3
 BYTE   N06  En4
 BYTE   W06
 BYTE   Gn3
 BYTE   N06  Gn4
 BYTE   W06
 BYTE   Fn3
 BYTE   N06  Fn4
 BYTE   W06
 BYTE   En3
 BYTE   N06  En4
 BYTE   W06
 BYTE   Dn3
 BYTE   N06  Dn4
 BYTE   W06
// 003   ----------------------------------------
 BYTE   Fn3
 BYTE   N06  Fn4
 BYTE   W06
 BYTE   En3
 BYTE   N06  En4
 BYTE   W06
 BYTE   Dn3
 BYTE   N06  Dn4
 BYTE   W06
 BYTE   Cn3
 BYTE   N06  Cn4
 BYTE   W06
 BYTE   En3
 BYTE   N06  En4
 BYTE   W06
 BYTE   Dn3
 BYTE   N06  Dn4
 BYTE   W06
 BYTE   Cn3
 BYTE   N06  Cn4
 BYTE   W06
 BYTE   Bn2
 BYTE   N06  Bn3
 BYTE   W06
 BYTE   N96  An2
 BYTE   N96  An3
 BYTE   W48
// 004   ----------------------------------------
 BYTE   An2
 BYTE   N96  An3
 BYTE   W48
 BYTE   An3
 BYTE   N96  An2
 BYTE   W48
// 005   ----------------------------------------
 BYTE   An2
 BYTE   N96  An3
 BYTE   W96
// 006   ----------------------------------------
 BYTE   W96
// 007   ----------------------------------------
 BYTE   W96
// 008   ----------------------------------------
 BYTE   W96
// 009   ----------------------------------------
 BYTE   W96
// 010   ----------------------------------------
 BYTE   W96
// 011   ----------------------------------------
 BYTE   W96
// 012   ----------------------------------------
 BYTE   W96
// 013   ----------------------------------------
 BYTE   W96
// 014   ----------------------------------------
 BYTE   W96
// 015   ----------------------------------------
 BYTE   W48
 BYTE   Cn4
 BYTE   W96
// 016   ----------------------------------------
 BYTE   Bn3
 BYTE   W96
// 017   ----------------------------------------
 BYTE   An3
 BYTE   W96
// 018   ----------------------------------------
 BYTE   Bn3
 BYTE   W96
// 019   ----------------------------------------
 BYTE   En4
 BYTE   W96
// 020   ----------------------------------------
 BYTE   Dn4
 BYTE   W96
// 021   ----------------------------------------
 BYTE   N11  An4  v100
 BYTE   W12
 BYTE   Bn4
 BYTE   W12
 BYTE   Cn5
 BYTE   W12
 BYTE   Bn4
 BYTE   W24
 BYTE   Gn4
 BYTE   W24
 BYTE   N17
 BYTE   W24
// 022   ----------------------------------------
 BYTE   N05  An4
 BYTE   W12
 BYTE   N64
 BYTE   W32
 BYTE   N01
 BYTE   W40
 BYTE   N96  An3
 BYTE   W48
// 023   ----------------------------------------
Label_1_01EA6F19:
 BYTE   N96  An3  v100
 BYTE   W48
 BYTE   An3
 BYTE   W48
 BYTE   PEND 
// 024   ----------------------------------------
 BYTE   N12  An3  v100
 BYTE   W96
// 025   ----------------------------------------
 BYTE   W60
 BYTE   Bn3  v107
 BYTE   W12
 BYTE   Cs4
 BYTE   W12
 BYTE   N24  An3
 BYTE   W24
// 026   ----------------------------------------
 BYTE   Fs3
 BYTE   W24
 BYTE   N96  Cs3
 BYTE   W48
 BYTE   N12
 BYTE   W60
// 027   ----------------------------------------
 BYTE   N96  En3  v100
 BYTE   W48
 BYTE   En3
 BYTE   W96
// 028   ----------------------------------------
 BYTE   W48
 BYTE   Gs3
 BYTE   W96
// 029   ----------------------------------------
 BYTE   PATT
  POIN2 Label_1_01EA6F19
// 030   ----------------------------------------
 BYTE   N96  An3  v100
 BYTE   W48
 BYTE   N12
 BYTE   W96
// 031   ----------------------------------------
 BYTE   W60
 BYTE   Bn3
 BYTE   W12
 BYTE   Cs4
 BYTE   W12
 BYTE   N24  En4
 BYTE   W24
// 032   ----------------------------------------
 BYTE   N12  Ds4
 BYTE   W12
 BYTE   Bn3
 BYTE   W12
 BYTE   N96  Cs4
 BYTE   W48
 BYTE   N60
 BYTE   W96
// 033   ----------------------------------------
 BYTE   W12
 BYTE   N48  En4
 BYTE   W48
 BYTE   N96  Bn3
 BYTE   W48
// 034   ----------------------------------------
 BYTE   N48
 BYTE   W96
// 035   ----------------------------------------
 BYTE   W48
Label_1_01EA6F64:
 BYTE   N96  An3  v107
 BYTE   N96  An4
 BYTE   W48
// 036   ----------------------------------------
 BYTE   An3
 BYTE   N96  An4
 BYTE   W48
 BYTE   PEND 
 BYTE   N96  An3  v107
 BYTE   N96  An4
 BYTE   W48
// 037   ----------------------------------------
 BYTE   An3
 BYTE   N96  An4
 BYTE   W96
// 038   ----------------------------------------
 BYTE   W96
// 039   ----------------------------------------
 BYTE   W48
// 040   ----------------------------------------
 BYTE   PATT
  POIN2 Label_1_01EA6F64
// 041   ----------------------------------------
 BYTE   N96  An3  v107
 BYTE   N96  An4
 BYTE   W48
 BYTE   An3
 BYTE   N96  An4
 BYTE   W96
// 042   ----------------------------------------
 BYTE   W96
// 043   ----------------------------------------
 BYTE   W36
 BYTE   W02
 BYTE   W09
 BYTE   N48  En3  v098
 BYTE   N48  En4
 BYTE   W48
 BYTE   Dn3
 BYTE   N48  Dn4
 BYTE   W48
// 044   ----------------------------------------
Label_1_01EA6F98:
 BYTE   N48  Cn3  v098
 BYTE   N48  Cn4
 BYTE   W48
 BYTE   Dn3
 BYTE   N48  Dn4
 BYTE   W48
 BYTE   PEND 
// 045   ----------------------------------------
 BYTE   N48  En3  v098
 BYTE   N48  En4
 BYTE   W48
 BYTE   N24  Fs3
 BYTE   N24  Fs4
 BYTE   W24
 BYTE   Dn3
 BYTE   N24  Dn4
 BYTE   W24
// 046   ----------------------------------------
 BYTE   PATT
  POIN2 Label_1_01EA6F98
// 047   ----------------------------------------
Label_1_01EA6FB7:
 BYTE   N48  En3  v098
 BYTE   N48  En4
 BYTE   W48
 BYTE   Dn3
 BYTE   N48  Dn4
 BYTE   W48
 BYTE   PEND 
// 048   ----------------------------------------
 BYTE   PATT
  POIN2 Label_1_01EA6F98
// 049   ----------------------------------------
 BYTE   PATT
  POIN2 Label_1_01EA6FB7
// 050   ----------------------------------------
 BYTE   N48  Fs3  v098
 BYTE   N48  Fs4
 BYTE   W48
 BYTE   N96  An3
 BYTE   N96  An4
 BYTE   W48
// 051   ----------------------------------------
 BYTE   An3
 BYTE   N96  An4
 BYTE   W48
 BYTE   N48  An3
 BYTE   N48  An4
 BYTE   W96
// 052   ----------------------------------------
 BYTE   W48
 BYTE   N96  Gn3
 BYTE   N96  Gn4
 BYTE   W96
// 053   ----------------------------------------
 BYTE   Bn3
 BYTE   N96  Bn4
 BYTE   W96
// 054   ----------------------------------------
 BYTE   Cn4
 BYTE   N96  Cn5
 BYTE   W96
// 055   ----------------------------------------
 BYTE   Dn4
 BYTE   N96  Dn5
 BYTE   W96
// 056   ----------------------------------------
 BYTE   En4
 BYTE   N96  En5
 BYTE   W96
// 057   ----------------------------------------
 BYTE   An3
 BYTE   N96  An4
 BYTE   W48
 BYTE   An3
 BYTE   N96  An4
 BYTE   W48
// 058   ----------------------------------------
 BYTE   An3
 BYTE   N96  An4
 BYTE   W96
// 059   ----------------------------------------
 BYTE   W96
// 060   ----------------------------------------
 BYTE   Gn3
 BYTE   N96  Gn4
 BYTE   W48
 BYTE   Gn3
 BYTE   N96  Gn4
 BYTE   W48
// 061   ----------------------------------------
 BYTE   N36  Gn3
 BYTE   N36  Gn4
 BYTE   W96
// 062   ----------------------------------------
 BYTE   W36
 BYTE   N96  En3
 BYTE   N96  En4
 BYTE   W48
 BYTE   N54  En3
 BYTE   N54  En4
 BYTE   W96
// 063   ----------------------------------------
 BYTE   W04
 BYTE   W07
 BYTE   N36  Fn3  v098
 BYTE   N36  Dn4
 BYTE   W04
 BYTE   W30
 BYTE   W01
 BYTE   N24  En3  v098
 BYTE   N96  Cn4
 BYTE   W24
 BYTE   Ds3
 BYTE   W24
 BYTE   N48  Cn4
 BYTE   W24
// 064   ----------------------------------------
 BYTE   N24  Ds3
 BYTE   W84
 BYTE   N10  An3  v107
 BYTE   N11  An4
 BYTE   W12
// 065   ----------------------------------------
Label_1_01EA7039:
 BYTE   N10  En3  v107
 BYTE   N23  En4
 BYTE   W24
 BYTE   N10  Gn3
 BYTE   N11  Gn4
 BYTE   W12
 BYTE   N10  Dn3
 BYTE   N23  Dn4
 BYTE   W24
 BYTE   N10  Fn3
 BYTE   N11  Fn4
 BYTE   W12
 BYTE   N10  Cn3
 BYTE   N23  Cn4
 BYTE   W24
 BYTE   PEND 
// 066   ----------------------------------------
 BYTE   N10  En3  v107
 BYTE   N11  En4
 BYTE   W12
 BYTE   N10  Bn2
 BYTE   N23  Bn3
 BYTE   W24
 BYTE   N10  Ds3
 BYTE   N11  Ds4
 BYTE   W12
 BYTE   N10  As2
 BYTE   N11  As3
 BYTE   W12
 BYTE   N10  Fn3
 BYTE   N11  Fn4
 BYTE   W12
 BYTE   N10  As3
 BYTE   N11  As4
 BYTE   W12
 BYTE   N10  An3
 BYTE   N11  An4
 BYTE   W12
// 067   ----------------------------------------
 BYTE   PATT
  POIN2 Label_1_01EA7039
// 068   ----------------------------------------
 BYTE   N10  Cn4  v107
 BYTE   N11  Cn5
 BYTE   W12
 BYTE   N10  Gn3
 BYTE   N23  Gn4
 BYTE   W24
 BYTE   N10  Ds4
 BYTE   N11  Ds5
 BYTE   W12
 BYTE   N10  As3
 BYTE   N11  As4
 BYTE   W12
 BYTE   N10  Fn3
 BYTE   N11  Fn4
 BYTE   W12
 BYTE   N10  As2
 BYTE   N11  As3
 BYTE   W12
 BYTE   N10  An3
 BYTE   N11  An4
 BYTE   W12
// 069   ----------------------------------------
 BYTE   PATT
  POIN2 Label_1_01EA7039
// 070   ----------------------------------------
 BYTE   N10  En3  v107
 BYTE   N11  En4
 BYTE   W12
 BYTE   N10  Bn2
 BYTE   N23  Bn3
 BYTE   W24
 BYTE   N10  Dn3
 BYTE   N11  Dn4
 BYTE   W12
 BYTE   N10  Fn2
 BYTE   N23  Fn3
 BYTE   W12
 BYTE   N10  As3
 BYTE   N10  As2
 BYTE   W12
 BYTE   Ds3
 BYTE   N11  Ds4
 BYTE   W12
 BYTE   N10  Gs3
 BYTE   N11  Gs4
 BYTE   W12
// 071   ----------------------------------------
 BYTE   N10  Ds3
 BYTE   N23  Ds4
 BYTE   W24
 BYTE   N10  Cn4
 BYTE   N11  Cn5
 BYTE   W12
 BYTE   N10  Gs3
 BYTE   N23  Gs4
 BYTE   W24
 BYTE   N10  Bn3
 BYTE   N11  Bn4
 BYTE   W12
 BYTE   N10  En3
 BYTE   N11  En4
 BYTE   W12
 BYTE   N10  Fn3
 BYTE   N11  Fn4
 BYTE   W12
// 072   ----------------------------------------
 BYTE   N10  As3
 BYTE   N11  As4
 BYTE   W12
 BYTE   N10  Ds4
 BYTE   N11  Ds5
 BYTE   W12
 BYTE   N10  Fs3
 BYTE   N11  Fs4
 BYTE   W12
 BYTE   N10  Bn3
 BYTE   N11  Bn4
 BYTE   W12
 BYTE   N10  En4
 BYTE   N11  En5
 BYTE   W12
 BYTE   N10  Gn4
 BYTE   N11  Gn5
 BYTE   W12
 BYTE   N10  An3
 BYTE   N11  An4
 BYTE   W12
 BYTE   N10  Cn4
 BYTE   N11  Cn5
 BYTE   W12
// 073   ----------------------------------------
 BYTE   N10  Fs4
 BYTE   N11  Fs5
 BYTE   W12
 BYTE   N10  Dn4
 BYTE   N11  Dn5
 BYTE   W12
 BYTE   N10  Gs4
 BYTE   N11  Gs5
 BYTE   W12
 BYTE   N10  An4
 BYTE   N22  An5
 BYTE   W11
 BYTE   W96
// 074   ----------------------------------------
 BYTE   W84
 BYTE   N96  An2  v098
 BYTE   W48
// 075   ----------------------------------------
 BYTE   N88
 BYTE   W44
 BYTE   N01
 BYTE   W84
// 076   ----------------------------------------
 BYTE   W02
 BYTE   W02
 BYTE   GoTo
  POIN2 Label_1_01EA6E7C
 BYTE   FINE

//**************** Track 3 (Midi-Chn.2) ****************//

CastlevaniaPortraitofRuinJailofaJewelRSflame_003:
// 000   ----------------------------------------
Label_2_01EA7F58:
 BYTE   KEYSH   CastlevaniaPortraitofRuinJailofaJewelRSflame_key+0
 BYTE   VOICE   48
 BYTE   VOL   48*CastlevaniaPortraitofRuinJailofaJewelRSflame_mvl/mxv
 BYTE   PAN   c_v-24
 BYTE   PAN   c_v+6
 BYTE   PAN   c_v+46
 BYTE   TEMPO   160*CastlevaniaPortraitofRuinJailofaJewelRSflame_tbs/2
 BYTE   W24
 BYTE   N10  An2  v107
 BYTE   N15  Cn2
 BYTE   W12
 BYTE   N10  En3  v060
 BYTE   N10  An2
 BYTE   W12
 BYTE   En3  v050
 BYTE   N10  An2
 BYTE   W12
 BYTE   An2  v107
 BYTE   N15  Cn2
 BYTE   W12
 BYTE   N10  Ds3  v060
 BYTE   N10  An2
 BYTE   W12
 BYTE   Ds3  v050
 BYTE   N10  An2
 BYTE   W36
// 001   ----------------------------------------
Label_2_01EA7F88:
 BYTE   N10  An2  v107
 BYTE   N15  Cn2
 BYTE   W12
 BYTE   N10  En3  v060
 BYTE   N10  An2
 BYTE   W12
 BYTE   En3  v050
 BYTE   N10  An2
 BYTE   W12
 BYTE   An2  v107
 BYTE   N15  Cn2
 BYTE   W12
 BYTE   N10  Ds3  v060
 BYTE   N10  An2
 BYTE   W12
 BYTE   Ds3  v050
 BYTE   N10  An2
 BYTE   W36
 BYTE   PEND 
// 002   ----------------------------------------
 BYTE   PATT
  POIN2 Label_2_01EA7F88
// 003   ----------------------------------------
 BYTE   PATT
  POIN2 Label_2_01EA7F88
// 004   ----------------------------------------
 BYTE   N10  An2  v107
 BYTE   N15  Cn2
 BYTE   W12
 BYTE   N10  En3  v060
 BYTE   N10  An2
 BYTE   W12
 BYTE   En3  v050
 BYTE   N10  An2
 BYTE   W12
 BYTE   An2  v107
 BYTE   N15  Cn2
 BYTE   W12
 BYTE   N10  Ds3  v060
 BYTE   N10  An2
 BYTE   W12
 BYTE   Ds3  v050
 BYTE   N10  An2
 BYTE   W32
 BYTE   W03
 BYTE   N32  Ds3  v107
 BYTE   W01
// 005   ----------------------------------------
 BYTE   N10  An2
 BYTE   N15  Cn2
 BYTE   W12
 BYTE   N10  An2  v060
 BYTE   W03
 BYTE   N03  Ds3  v107
 BYTE   W20
 BYTE   N48
 BYTE   W01
 BYTE   N10  An2
 BYTE   N15  Cn2
 BYTE   W12
 BYTE   N10  An2  v060
 BYTE   W48
// 006   ----------------------------------------
 BYTE   An2  v107
 BYTE   N15  Cn2
 BYTE   W12
 BYTE   N10  En3  v060
 BYTE   N10  An2
 BYTE   W24
 BYTE   An2  v107
 BYTE   N15  Cn2
 BYTE   W12
 BYTE   N10  Gn3  v060
 BYTE   N10  An2
 BYTE   W44
 BYTE   W03
 BYTE   N32  Gn3  v107
 BYTE   W01
// 007   ----------------------------------------
 BYTE   N10  An2
 BYTE   N15  Cn2
 BYTE   W12
 BYTE   N10  An2  v060
 BYTE   W03
 BYTE   N03  Gn3  v107
 BYTE   W20
 BYTE   N48
 BYTE   W01
 BYTE   N10  An2
 BYTE   N15  Cn2
 BYTE   W12
 BYTE   N10  An2  v060
 BYTE   W48
// 008   ----------------------------------------
Label_2_01EA8025:
 BYTE   N10  Cn3  v107
 BYTE   N15  An2
 BYTE   W12
 BYTE   N10  En3  v060
 BYTE   N10  Cn3
 BYTE   W24
 BYTE   Cn3  v107
 BYTE   N15  An2
 BYTE   W12
 BYTE   N10  En3  v060
 BYTE   N10  Cn3
 BYTE   W48
 BYTE   PEND 
// 009   ----------------------------------------
Label_2_01EA803D:
 BYTE   N10  Bn2  v107
 BYTE   N15  Gn2
 BYTE   W12
 BYTE   N10  En3  v060
 BYTE   N10  Bn2
 BYTE   W24
 BYTE   Bn2  v107
 BYTE   N15  Gn2
 BYTE   W12
 BYTE   N10  En3  v060
 BYTE   N10  Bn2
 BYTE   W48
 BYTE   PEND 
// 010   ----------------------------------------
 BYTE   N10  Cn3  v107
 BYTE   N15  Fn2
 BYTE   W12
 BYTE   N10  En3  v060
 BYTE   N10  Cn3
 BYTE   W24
 BYTE   Cn3  v107
 BYTE   N15  Fn2
 BYTE   W12
 BYTE   N10  En3  v060
 BYTE   N10  Cn3
 BYTE   W48
// 011   ----------------------------------------
 BYTE   PATT
  POIN2 Label_2_01EA803D
// 012   ----------------------------------------
 BYTE   PATT
  POIN2 Label_2_01EA8025
// 013   ----------------------------------------
 BYTE   N10  Bn2  v107
 BYTE   N15  Gn2
 BYTE   W12
 BYTE   N10  En3  v060
 BYTE   N10  Bn2
 BYTE   W24
 BYTE   Bn2  v107
 BYTE   N15  Gn2
 BYTE   W12
 BYTE   N10  En3  v060
 BYTE   N10  Bn2
 BYTE   W24
 BYTE   N11  An3  v100
 BYTE   N11  Cn3  v097
 BYTE   W12
 BYTE   Bn3  v100
 BYTE   N11  Dn3  v097
 BYTE   W12
// 014   ----------------------------------------
 BYTE   Cn4  v100
 BYTE   N11  En3  v097
 BYTE   W12
 BYTE   Bn3  v100
 BYTE   N11  Dn3  v097
 BYTE   W12
 BYTE   Bn3  v060
 BYTE   N11  Dn3
 BYTE   W12
 BYTE   Gn3  v100
 BYTE   N11  Bn2  v097
 BYTE   W12
 BYTE   Gn3  v060
 BYTE   N11  Bn2
 BYTE   W12
 BYTE   N12  Gn3  v100
 BYTE   N12  Bn2  v097
 BYTE   W12
 BYTE   N05  Gn3  v060
 BYTE   N05  Bn2
 BYTE   W12
 BYTE   An3  v100
 BYTE   N05  Cn3  v097
 BYTE   W12
// 015   ----------------------------------------
 BYTE   N64  An3  v100
 BYTE   N64  Cn3  v097
 BYTE   W32
 BYTE   N01  An3  v100
 BYTE   N01  Cn3  v097
 BYTE   W60
 BYTE   W03
 BYTE   N32  En3  v107
 BYTE   W01
// 016   ----------------------------------------
Label_2_01EA80DC:
 BYTE   N10  An2  v107
 BYTE   W15
 BYTE   N03  En3
 BYTE   W20
 BYTE   N48
 BYTE   W01
 BYTE   N10  An2
 BYTE   W56
 BYTE   W03
 BYTE   N32  En3
 BYTE   W01
 BYTE   PEND 
// 017   ----------------------------------------
Label_2_01EA80ED:
 BYTE   N10  Gn2  v107
 BYTE   W15
 BYTE   N03  En3
 BYTE   W20
 BYTE   N48
 BYTE   W01
 BYTE   N10  Gn2
 BYTE   W56
 BYTE   W03
 BYTE   N32  En3
 BYTE   W01
 BYTE   PEND 
// 018   ----------------------------------------
 BYTE   N10  Fn2  v107
 BYTE   W15
 BYTE   N03  En3
 BYTE   W20
 BYTE   N48
 BYTE   W01
 BYTE   N10  Fn2
 BYTE   W56
 BYTE   W03
 BYTE   N32  En3
 BYTE   W01
// 019   ----------------------------------------
 BYTE   PATT
  POIN2 Label_2_01EA80ED
// 020   ----------------------------------------
 BYTE   PATT
  POIN2 Label_2_01EA80DC
// 021   ----------------------------------------
 BYTE   N10  Gn2  v107
 BYTE   W15
 BYTE   N03  En3
 BYTE   W20
 BYTE   N48
 BYTE   W01
 BYTE   N10  Gn2
 BYTE   W36
 BYTE   N11  Cn4  v097
 BYTE   N11  An3  v100
 BYTE   N23  Cn3  v097
 BYTE   W12
 BYTE   N11  Dn4
 BYTE   N11  Bn3  v100
 BYTE   W12
// 022   ----------------------------------------
 BYTE   En4  v097
 BYTE   N11  Cn4  v100
 BYTE   W12
 BYTE   Dn4  v097
 BYTE   N11  Bn3  v100
 BYTE   N11  Dn3  v097
 BYTE   W12
 BYTE   Dn4  v060
 BYTE   N11  Bn3
 BYTE   N11  Dn3
 BYTE   W12
 BYTE   Bn3  v097
 BYTE   N11  Gn3  v100
 BYTE   N11  Dn3  v097
 BYTE   W12
 BYTE   Bn3  v060
 BYTE   N11  Gn3
 BYTE   N11  Dn3
 BYTE   W12
 BYTE   N12  Gn3  v100
 BYTE   N12  Bn3  v097
 BYTE   N12  Dn3
 BYTE   W12
 BYTE   N05  Bn3  v060
 BYTE   N05  Gn3
 BYTE   N11  Dn3
 BYTE   W12
 BYTE   N05  Cn4  v097
 BYTE   N05  An3  v100
 BYTE   N05  En3  v097
 BYTE   W12
// 023   ----------------------------------------
 BYTE   N64  Cn4
 BYTE   N64  An3  v100
 BYTE   N68  En3  v097
 BYTE   W32
 BYTE   N01  Cn4
 BYTE   N01  An3  v100
 BYTE   W02
 BYTE   N03  En3  v097
 BYTE   W60
 BYTE   W02
// 024   ----------------------------------------
Label_2_01EA8189:
 BYTE   N10  Fs2  v107
 BYTE   W12
 BYTE   Cs3  v060
 BYTE   N10  Fs2
 BYTE   W24
 BYTE   Fs2  v107
 BYTE   W12
 BYTE   Cn3  v060
 BYTE   N10  Fs2
 BYTE   W48
 BYTE   PEND 
// 025   ----------------------------------------
 BYTE   PATT
  POIN2 Label_2_01EA8189
// 026   ----------------------------------------
 BYTE   PATT
  POIN2 Label_2_01EA8189
// 027   ----------------------------------------
Label_2_01EA81A5:
 BYTE   N10  Fs2  v107
 BYTE   W12
 BYTE   Cs3  v060
 BYTE   N10  Fs2
 BYTE   W24
 BYTE   Fs2  v107
 BYTE   W12
 BYTE   Cs3  v060
 BYTE   N10  Fs2
 BYTE   W48
 BYTE   PEND 
// 028   ----------------------------------------
Label_2_01EA81B7:
 BYTE   N10  Dn2  v107
 BYTE   W12
 BYTE   An2  v060
 BYTE   N10  Dn2
 BYTE   W24
 BYTE   Dn2  v107
 BYTE   W12
 BYTE   An2  v060
 BYTE   N10  Dn2
 BYTE   W48
 BYTE   PEND 
// 029   ----------------------------------------
 BYTE   PATT
  POIN2 Label_2_01EA81B7
// 030   ----------------------------------------
Label_2_01EA81CE:
 BYTE   N10  En2  v107
 BYTE   W12
 BYTE   Bn2  v060
 BYTE   N10  En2
 BYTE   W24
 BYTE   En2  v107
 BYTE   W12
 BYTE   Bn2  v060
 BYTE   N10  En2
 BYTE   W48
 BYTE   PEND 
// 031   ----------------------------------------
 BYTE   PATT
  POIN2 Label_2_01EA81CE
// 032   ----------------------------------------
 BYTE   PATT
  POIN2 Label_2_01EA8189
// 033   ----------------------------------------
 BYTE   PATT
  POIN2 Label_2_01EA8189
// 034   ----------------------------------------
 BYTE   PATT
  POIN2 Label_2_01EA8189
// 035   ----------------------------------------
 BYTE   PATT
  POIN2 Label_2_01EA81A5
// 036   ----------------------------------------
 BYTE   PATT
  POIN2 Label_2_01EA81B7
// 037   ----------------------------------------
 BYTE   PATT
  POIN2 Label_2_01EA81B7
// 038   ----------------------------------------
 BYTE   N10  En2  v107
 BYTE   W12
 BYTE   Cs3  v060
 BYTE   N10  En2
 BYTE   W24
 BYTE   En2  v107
 BYTE   W12
 BYTE   Cs3  v060
 BYTE   N10  En2
 BYTE   W48
// 039   ----------------------------------------
 BYTE   En2  v107
 BYTE   W12
 BYTE   Cs3  v060
 BYTE   N10  En2
 BYTE   W24
 BYTE   En2  v107
 BYTE   W12
 BYTE   Cs3  v060
 BYTE   N10  En2
 BYTE   W24
 BYTE   An4  v081
 BYTE   N10  An3
 BYTE   W12
 BYTE   N07  An3  v060
 BYTE   N07  An4
 BYTE   W12
// 040   ----------------------------------------
Label_2_01EA822F:
 BYTE   N10  An4  v081
 BYTE   N10  An3
 BYTE   W12
 BYTE   N07  An3  v060
 BYTE   N07  An4
 BYTE   W12
 BYTE   N10  An4  v081
 BYTE   N10  An3
 BYTE   W12
 BYTE   N07  An3  v060
 BYTE   N07  An4
 BYTE   W12
 BYTE   N10  An4  v081
 BYTE   N10  An3
 BYTE   W12
 BYTE   N07  An3  v060
 BYTE   N07  An4
 BYTE   W12
 BYTE   N10  An4  v081
 BYTE   N10  An3
 BYTE   W12
 BYTE   N07  An3  v060
 BYTE   N07  An4
 BYTE   W12
 BYTE   PEND 
// 041   ----------------------------------------
 BYTE   PATT
  POIN2 Label_2_01EA822F
// 042   ----------------------------------------
 BYTE   PATT
  POIN2 Label_2_01EA822F
// 043   ----------------------------------------
 BYTE   PATT
  POIN2 Label_2_01EA822F
// 044   ----------------------------------------
 BYTE   PATT
  POIN2 Label_2_01EA822F
// 045   ----------------------------------------
 BYTE   PATT
  POIN2 Label_2_01EA822F
// 046   ----------------------------------------
 BYTE   PATT
  POIN2 Label_2_01EA822F
// 047   ----------------------------------------
 BYTE   N10  An4  v081
 BYTE   N10  An3
 BYTE   W12
 BYTE   N07  An3  v060
 BYTE   N07  An4
 BYTE   W12
 BYTE   N10  An4  v081
 BYTE   N10  An3
 BYTE   W12
 BYTE   N07  An3  v060
 BYTE   N07  An4
 BYTE   W12
 BYTE   N10  An4  v081
 BYTE   N10  An3
 BYTE   W12
 BYTE   N07  An3  v060
 BYTE   N07  An4
 BYTE   W02
 BYTE   W96
// 048   ----------------------------------------
 BYTE   W96
// 049   ----------------------------------------
 BYTE   W96
// 050   ----------------------------------------
 BYTE   W96
// 051   ----------------------------------------
 BYTE   W96
// 052   ----------------------------------------
 BYTE   W96
// 053   ----------------------------------------
 BYTE   W96
// 054   ----------------------------------------
 BYTE   W96
// 055   ----------------------------------------
 BYTE   W96
// 056   ----------------------------------------
 BYTE   W96
// 057   ----------------------------------------
 BYTE   W96
// 058   ----------------------------------------
 BYTE   W96
// 059   ----------------------------------------
 BYTE   W96
// 060   ----------------------------------------
 BYTE   W96
// 061   ----------------------------------------
 BYTE   W96
// 062   ----------------------------------------
 BYTE   W96
// 063   ----------------------------------------
 BYTE   W96
// 064   ----------------------------------------
 BYTE   W96
// 065   ----------------------------------------
 BYTE   W96
// 066   ----------------------------------------
 BYTE   W96
// 067   ----------------------------------------
 BYTE   W96
// 068   ----------------------------------------
 BYTE   W96
// 069   ----------------------------------------
 BYTE   W02
 BYTE   W12
 BYTE   W19
 BYTE   N10  Cn3  v107
 BYTE   N15  An2
 BYTE   W12
 BYTE   N10  En3  v060
 BYTE   N10  Cn3
 BYTE   W24
 BYTE   Cn3  v107
 BYTE   N15  An2
 BYTE   W12
 BYTE   N10  Ds3  v060
 BYTE   N10  Cn3
 BYTE   W48
// 070   ----------------------------------------
 BYTE   Cn3  v107
 BYTE   N15  An2
 BYTE   W12
 BYTE   N10  Ds3  v060
 BYTE   N10  Cn3
 BYTE   W24
 BYTE   Cn3  v107
 BYTE   N15  An2
 BYTE   W12
 BYTE   N10  Ds3  v060
 BYTE   N10  Cn3
 BYTE   W96
// 071   ----------------------------------------
 BYTE   W96
// 072   ----------------------------------------
 BYTE   W96
// 073   ----------------------------------------
 BYTE   W96
// 074   ----------------------------------------
 BYTE   W96
// 075   ----------------------------------------
 BYTE   W96
// 076   ----------------------------------------
 BYTE   W96
// 077   ----------------------------------------
 BYTE   W96
// 078   ----------------------------------------
 BYTE   W80
 BYTE   W03
 BYTE   W12
 BYTE   N10  Cn3  v099
 BYTE   N15  An2
 BYTE   W12
// 079   ----------------------------------------
 BYTE   N10  En3  v060
 BYTE   N10  Cn3
 BYTE   W24
 BYTE   Ds3  v099
 BYTE   N15  Bn2
 BYTE   W12
 BYTE   N10  Fs3  v060
 BYTE   N10  Ds3
 BYTE   W48
 BYTE   En3  v099
 BYTE   N15  Cn3
 BYTE   W12
// 080   ----------------------------------------
 BYTE   N10  Gn3  v060
 BYTE   N10  En3
 BYTE   W24
 BYTE   Fs3  v099
 BYTE   N15  Dn3
 BYTE   W12
 BYTE   N10  An3  v060
 BYTE   N10  Fs3
 BYTE   W48
 BYTE   Cn3  v099
 BYTE   N15  An2
 BYTE   W12
// 081   ----------------------------------------
 BYTE   N10  En3  v060
 BYTE   N10  Cn3
 BYTE   W24
 BYTE   Ds3  v099
 BYTE   N15  Bn2
 BYTE   W12
 BYTE   N10  Fs3  v060
 BYTE   N10  Ds3
 BYTE   W48
 BYTE   En3  v099
 BYTE   N15  Cn3
 BYTE   W12
// 082   ----------------------------------------
 BYTE   N10  Gn3  v060
 BYTE   N10  En3
 BYTE   W23
 BYTE   N11  An3  v099
 BYTE   W01
 BYTE   N10  Fs3
 BYTE   N15  Dn3
 BYTE   W12
 BYTE   N10  An3  v060
 BYTE   N10  Fs3
 BYTE   W10
 BYTE   W02
 BYTE   GoTo
  POIN2 Label_2_01EA7F58
 BYTE   FINE

//**************** Track 4 (Midi-Chn.3) ****************//

CastlevaniaPortraitofRuinJailofaJewelRSflame_004:
// 000   ----------------------------------------
Label_3_01EA6CB8:
 BYTE   KEYSH   CastlevaniaPortraitofRuinJailofaJewelRSflame_key+0
 BYTE   VOICE   19
 BYTE   VOL   15*CastlevaniaPortraitofRuinJailofaJewelRSflame_mvl/mxv
 BYTE   PAN   c_v-39
 BYTE   TEMPO   160*CastlevaniaPortraitofRuinJailofaJewelRSflame_tbs/2
 BYTE   W96
// 001   ----------------------------------------
 BYTE   W96
// 002   ----------------------------------------
 BYTE   W96
// 003   ----------------------------------------
 BYTE   W96
// 004   ----------------------------------------
 BYTE   N30  En3  v107
 BYTE   W15
 BYTE   N01
 BYTE   W21
 BYTE   N96  Ds3
 BYTE   W48
 BYTE   N52
 BYTE   W24
// 005   ----------------------------------------
 BYTE   W02
 BYTE   N01
 BYTE   W80
 BYTE   W02
 BYTE   N30  En3
 BYTE   W15
// 006   ----------------------------------------
 BYTE   N01
 BYTE   W21
 BYTE   N96  Gn3
 BYTE   W48
 BYTE   N56
 BYTE   W28
// 007   ----------------------------------------
 BYTE   N03
 BYTE   W80
 BYTE   N92  En3
 BYTE   W44
// 008   ----------------------------------------
 BYTE   W02
Label_3_01EA6CE5:
 BYTE   N03  En3  v107
 BYTE   W48
 BYTE   W02
 BYTE   N92  Dn3
 BYTE   W44
// 009   ----------------------------------------
 BYTE   W02
 BYTE   PEND 
 BYTE   N03  Dn3  v107
 BYTE   W48
 BYTE   W02
 BYTE   N92  Cn3
 BYTE   W44
// 010   ----------------------------------------
 BYTE   W02
 BYTE   N03
 BYTE   W48
 BYTE   W02
 BYTE   N92  Dn3
 BYTE   W44
// 011   ----------------------------------------
 BYTE   W02
 BYTE   N03
 BYTE   W48
 BYTE   W02
 BYTE   N92  En3
 BYTE   W44
// 012   ----------------------------------------
 BYTE   W02
// 013   ----------------------------------------
 BYTE   PATT
  POIN2 Label_3_01EA6CE5
// 014   ----------------------------------------
 BYTE   N03  Dn3  v107
 BYTE   W48
 BYTE   W02
 BYTE   N24  Cn3  v110
 BYTE   W36
 BYTE   N12  Dn3
 BYTE   W24
// 015   ----------------------------------------
 BYTE   Dn3
 BYTE   W24
 BYTE   N24
 BYTE   W24
 BYTE   N06  En3
 BYTE   W12
 BYTE   N72
 BYTE   W72
// 016   ----------------------------------------
Label_3_01EA6D20:
 BYTE   N92  En3  v107
 BYTE   W44
 BYTE   W02
 BYTE   N03
 BYTE   W48
 BYTE   W02
 BYTE   PEND 
// 017   ----------------------------------------
Label_3_01EA6D29:
 BYTE   N92  Dn3  v107
 BYTE   W44
 BYTE   W02
 BYTE   N03
 BYTE   W48
 BYTE   W02
 BYTE   PEND 
// 018   ----------------------------------------
 BYTE   N92  Cn3  v107
 BYTE   W44
 BYTE   W02
 BYTE   N03
 BYTE   W48
 BYTE   W02
// 019   ----------------------------------------
 BYTE   PATT
  POIN2 Label_3_01EA6D29
// 020   ----------------------------------------
 BYTE   PATT
  POIN2 Label_3_01EA6D20
// 021   ----------------------------------------
 BYTE   N92  Dn3  v107
 BYTE   W44
 BYTE   W02
 BYTE   N03
 BYTE   W96
// 022   ----------------------------------------
 BYTE   W96
// 023   ----------------------------------------
 BYTE   W96
// 024   ----------------------------------------
 BYTE   W96
// 025   ----------------------------------------
 BYTE   W96
// 026   ----------------------------------------
 BYTE   W96
// 027   ----------------------------------------
 BYTE   W96
// 028   ----------------------------------------
 BYTE   W96
// 029   ----------------------------------------
 BYTE   W96
// 030   ----------------------------------------
 BYTE   W96
// 031   ----------------------------------------
 BYTE   W96
// 032   ----------------------------------------
 BYTE   W96
// 033   ----------------------------------------
 BYTE   W96
// 034   ----------------------------------------
 BYTE   W96
// 035   ----------------------------------------
 BYTE   W96
// 036   ----------------------------------------
 BYTE   W96
// 037   ----------------------------------------
 BYTE   W96
// 038   ----------------------------------------
 BYTE   W96
// 039   ----------------------------------------
 BYTE   W02
 BYTE   N44  En3
 BYTE   N44  Gs3
 BYTE   W48
 BYTE   N32  Gn3
 BYTE   N32  En3
 BYTE   W36
 BYTE   N96  Fs3
 BYTE   N96  Ds3
 BYTE   W48
// 040   ----------------------------------------
 BYTE   N56  Fs3
 BYTE   N56  Ds3
 BYTE   W96
// 041   ----------------------------------------
 BYTE   W12
 BYTE   N32  Gn3
 BYTE   N32  En3
 BYTE   W36
 BYTE   N96  An3
 BYTE   N96  Fs3
 BYTE   W48
// 042   ----------------------------------------
 BYTE   N56  An3
 BYTE   N56  Fs3
 BYTE   W96
// 043   ----------------------------------------
 BYTE   W12
 BYTE   N32  As3
 BYTE   N32  Gn3
 BYTE   W36
 BYTE   N68  An3
 BYTE   N68  Fs3
 BYTE   W72
// 044   ----------------------------------------
 BYTE   N32  As3
 BYTE   N32  Gn3
 BYTE   W36
 BYTE   N14  Cn4
 BYTE   N14  An3
 BYTE   W24
 BYTE   Dn4
 BYTE   N14  Bn3
 BYTE   W24
 BYTE   N32  En4
 BYTE   N32  Cn4
 BYTE   W36
// 045   ----------------------------------------
 BYTE   N96  Ds4
 BYTE   N96  Cn4
 BYTE   W48
 BYTE   N48  Ds4
 BYTE   N48  Cn4
 BYTE   W24
 BYTE   N02  Ds4
 BYTE   N02  Cn4
 BYTE   W72
// 046   ----------------------------------------
 BYTE   W02
 BYTE   W96
// 047   ----------------------------------------
 BYTE   W96
// 048   ----------------------------------------
 BYTE   W96
// 049   ----------------------------------------
 BYTE   W96
// 050   ----------------------------------------
 BYTE   W96
// 051   ----------------------------------------
 BYTE   W96
// 052   ----------------------------------------
 BYTE   W96
// 053   ----------------------------------------
 BYTE   W96
// 054   ----------------------------------------
 BYTE   W09
Label_3_01EA6DB8:
 BYTE   N96  Fn2  v107
 BYTE   W48
 BYTE   N17
 BYTE   W72
 BYTE   PEND 
// 055   ----------------------------------------
Label_3_01EA6DBF:
 BYTE   N17  An2  v107
 BYTE   W24
 BYTE   Cn3
 BYTE   W24
 BYTE   Fn3
 BYTE   W24
 BYTE   N96  Gn3
 BYTE   W48
 BYTE   PEND 
// 056   ----------------------------------------
 BYTE   N17  Gn3  v107
 BYTE   W72
 BYTE   En3
 BYTE   W24
// 057   ----------------------------------------
 BYTE   Bn2
 BYTE   W24
 BYTE   Gn2
 BYTE   W24
 BYTE   N96  An2
 BYTE   W48
// 058   ----------------------------------------
 BYTE   N17
 BYTE   W72
 BYTE   Bn2
 BYTE   W24
// 059   ----------------------------------------
 BYTE   Cn3
 BYTE   W24
 BYTE   En3
 BYTE   W24
 BYTE   N92  An3
 BYTE   W44
 BYTE   W02
 BYTE   N03
 BYTE   W48
// 060   ----------------------------------------
 BYTE   W02
 BYTE   N17  Gn3
 BYTE   W24
 BYTE   Fs3
 BYTE   W24
 BYTE   En3
 BYTE   W24
 BYTE   Dn3
 BYTE   W24
// 061   ----------------------------------------
 BYTE   PATT
  POIN2 Label_3_01EA6DB8
// 062   ----------------------------------------
 BYTE   PATT
  POIN2 Label_3_01EA6DBF
// 063   ----------------------------------------
 BYTE   N17  Gn3  v107
 BYTE   W72
 BYTE   Dn3
 BYTE   W24
// 064   ----------------------------------------
 BYTE   Bn2
 BYTE   W24
 BYTE   Gn2
 BYTE   W24
 BYTE   N32  Bn2
 BYTE   W16
 BYTE   N03
 BYTE   W20
 BYTE   N96  Cn3
 BYTE   W48
// 065   ----------------------------------------
 BYTE   N56
 BYTE   W28
 BYTE   N03
 BYTE   W72
// 066   ----------------------------------------
 BYTE   W12
 BYTE   W96
// 067   ----------------------------------------
 BYTE   W90
 BYTE   N96  An2  v107
 BYTE   W48
// 068   ----------------------------------------
 BYTE   N40
 BYTE   W20
 BYTE   N01
 BYTE   W76
// 069   ----------------------------------------
Label_3_01EA6E1B:
 BYTE   N17  Ds3  v107
 BYTE   W24
 BYTE   Ds3
 BYTE   W24
 BYTE   N96  An2
 BYTE   W48
 BYTE   PEND 
// 070   ----------------------------------------
 BYTE   N40  An2  v107
 BYTE   W20
 BYTE   N01
 BYTE   W76
// 071   ----------------------------------------
 BYTE   PATT
  POIN2 Label_3_01EA6E1B
// 072   ----------------------------------------
 BYTE   N40  An2  v107
 BYTE   W20
 BYTE   N01
 BYTE   W76
// 073   ----------------------------------------
 BYTE   W01
 BYTE   N08  Dn2
 BYTE   W12
 BYTE   Fn1
 BYTE   W12
 BYTE   As1
 BYTE   W12
 BYTE   Ds2
 BYTE   W12
 BYTE   Gs2
 BYTE   W12
 BYTE   N17  Ds2
 BYTE   W24
 BYTE   N08  Cn3
 BYTE   W12
// 074   ----------------------------------------
 BYTE   N17  Gs2
 BYTE   W24
 BYTE   N08  Bn2
 BYTE   W12
 BYTE   En2
 BYTE   W12
 BYTE   Fn2
 BYTE   W12
 BYTE   As2
 BYTE   W12
 BYTE   Ds3
 BYTE   W12
 BYTE   Fs2
 BYTE   W12
// 075   ----------------------------------------
 BYTE   Bn2
 BYTE   W12
 BYTE   En3
 BYTE   W12
 BYTE   Gn3
 BYTE   W12
 BYTE   An2
 BYTE   W12
 BYTE   Cn3
 BYTE   W12
 BYTE   Fs3
 BYTE   W12
 BYTE   Dn3
 BYTE   W12
 BYTE   Gs3
 BYTE   W12
// 076   ----------------------------------------
 BYTE   N11  An3
 BYTE   W11
 BYTE   W96
// 077   ----------------------------------------
 BYTE   W96
// 078   ----------------------------------------
 BYTE   W96
// 079   ----------------------------------------
 BYTE   W68
 BYTE   W02
 BYTE   W02
 BYTE   GoTo
  POIN2 Label_3_01EA6CB8
 BYTE   FINE

//**************** Track 5 (Midi-Chn.4) ****************//

CastlevaniaPortraitofRuinJailofaJewelRSflame_005:
// 000   ----------------------------------------
Label_4_01EA3EE0:
 BYTE   KEYSH   CastlevaniaPortraitofRuinJailofaJewelRSflame_key+0
 BYTE   VOICE   19
 BYTE   VOL   15*CastlevaniaPortraitofRuinJailofaJewelRSflame_mvl/mxv
 BYTE   PAN   c_v+21
 BYTE   TEMPO   160*CastlevaniaPortraitofRuinJailofaJewelRSflame_tbs/2
 BYTE   W96
// 001   ----------------------------------------
 BYTE   W96
// 002   ----------------------------------------
 BYTE   W96
// 003   ----------------------------------------
 BYTE   W96
// 004   ----------------------------------------
 BYTE   N30  An2  v098
 BYTE   W15
 BYTE   N01
 BYTE   W21
 BYTE   N96
 BYTE   W48
 BYTE   N52
 BYTE   W24
// 005   ----------------------------------------
 BYTE   W02
 BYTE   N01
 BYTE   W80
 BYTE   W02
 BYTE   N30
 BYTE   W15
// 006   ----------------------------------------
 BYTE   N01
 BYTE   W21
 BYTE   N96  Ds3
 BYTE   W48
 BYTE   N56
 BYTE   W28
// 007   ----------------------------------------
 BYTE   N03
 BYTE   W80
 BYTE   N92  An2  v086
 BYTE   W44
// 008   ----------------------------------------
 BYTE   W02
Label_4_01EA3F0C:
 BYTE   N03  An2  v086
 BYTE   W48
 BYTE   W02
 BYTE   N92  Gn2
 BYTE   W44
// 009   ----------------------------------------
 BYTE   W02
 BYTE   PEND 
 BYTE   N03  Gn2  v086
 BYTE   W48
 BYTE   W02
 BYTE   N92  Fn2
 BYTE   W44
// 010   ----------------------------------------
 BYTE   W02
 BYTE   N03
 BYTE   W48
 BYTE   W02
 BYTE   N92  Gn2
 BYTE   W44
// 011   ----------------------------------------
 BYTE   W02
 BYTE   N03
 BYTE   W48
 BYTE   W02
 BYTE   N92  An2
 BYTE   W44
// 012   ----------------------------------------
 BYTE   W02
// 013   ----------------------------------------
 BYTE   PATT
  POIN2 Label_4_01EA3F0C
// 014   ----------------------------------------
 BYTE   N03  Gn2  v086
 BYTE   W48
 BYTE   W02
 BYTE   N24  Fn2  v108
 BYTE   W36
 BYTE   N12  Gn2
 BYTE   W24
// 015   ----------------------------------------
 BYTE   Gn2
 BYTE   W24
 BYTE   N24
 BYTE   W24
 BYTE   N06  An2
 BYTE   W12
 BYTE   N72
 BYTE   W72
// 016   ----------------------------------------
Label_4_01EA3F47:
 BYTE   N92  An2  v086
 BYTE   W44
 BYTE   W02
 BYTE   N03
 BYTE   W48
 BYTE   W02
 BYTE   PEND 
// 017   ----------------------------------------
Label_4_01EA3F50:
 BYTE   N92  Gn2  v086
 BYTE   W44
 BYTE   W02
 BYTE   N03
 BYTE   W48
 BYTE   W02
 BYTE   PEND 
// 018   ----------------------------------------
 BYTE   N92  Fn2  v086
 BYTE   W44
 BYTE   W02
 BYTE   N03
 BYTE   W48
 BYTE   W02
// 019   ----------------------------------------
 BYTE   PATT
  POIN2 Label_4_01EA3F50
// 020   ----------------------------------------
 BYTE   PATT
  POIN2 Label_4_01EA3F47
// 021   ----------------------------------------
 BYTE   PATT
  POIN2 Label_4_01EA3F50
// 022   ----------------------------------------
 BYTE   N24  Fn2  v108
 BYTE   W36
 BYTE   N12  Gn2
 BYTE   W24
 BYTE   Gn2
 BYTE   W24
 BYTE   N24
 BYTE   W24
// 023   ----------------------------------------
 BYTE   N06  An2
 BYTE   W12
 BYTE   N72
 BYTE   W96
// 024   ----------------------------------------
 BYTE   W96
// 025   ----------------------------------------
 BYTE   W96
// 026   ----------------------------------------
 BYTE   W96
// 027   ----------------------------------------
 BYTE   W96
// 028   ----------------------------------------
 BYTE   W96
// 029   ----------------------------------------
 BYTE   W96
// 030   ----------------------------------------
 BYTE   W96
// 031   ----------------------------------------
 BYTE   W96
// 032   ----------------------------------------
 BYTE   W96
// 033   ----------------------------------------
 BYTE   W96
// 034   ----------------------------------------
 BYTE   W96
// 035   ----------------------------------------
 BYTE   W96
// 036   ----------------------------------------
 BYTE   W96
// 037   ----------------------------------------
 BYTE   W96
// 038   ----------------------------------------
 BYTE   W96
// 039   ----------------------------------------
 BYTE   W24
 BYTE   N44  Bn2  v098
 BYTE   W48
 BYTE   N32  Cn3
 BYTE   W36
// 040   ----------------------------------------
 BYTE   N96  Bn2
 BYTE   W48
 BYTE   N56
 BYTE   W96
// 041   ----------------------------------------
 BYTE   W12
 BYTE   N32  Cn3
 BYTE   W36
 BYTE   N96  Dn3
 BYTE   W48
// 042   ----------------------------------------
 BYTE   N56
 BYTE   W96
// 043   ----------------------------------------
 BYTE   W12
 BYTE   N32  Ds3
 BYTE   W36
 BYTE   N68  Dn3
 BYTE   W72
// 044   ----------------------------------------
 BYTE   N32  Ds3
 BYTE   W36
 BYTE   N14  Fn3
 BYTE   W24
 BYTE   Gn3
 BYTE   W24
 BYTE   N32  An3
 BYTE   W36
// 045   ----------------------------------------
 BYTE   N96
 BYTE   W48
 BYTE   N48
 BYTE   W24
 BYTE   N02
 BYTE   W72
// 046   ----------------------------------------
 BYTE   W02
 BYTE   W96
// 047   ----------------------------------------
 BYTE   W96
// 048   ----------------------------------------
 BYTE   W96
// 049   ----------------------------------------
 BYTE   W96
// 050   ----------------------------------------
 BYTE   W96
// 051   ----------------------------------------
 BYTE   W96
// 052   ----------------------------------------
 BYTE   W96
// 053   ----------------------------------------
 BYTE   W96
// 054   ----------------------------------------
 BYTE   W96
// 055   ----------------------------------------
 BYTE   W96
// 056   ----------------------------------------
 BYTE   W96
// 057   ----------------------------------------
 BYTE   W96
// 058   ----------------------------------------
 BYTE   W96
// 059   ----------------------------------------
 BYTE   W96
// 060   ----------------------------------------
 BYTE   W96
// 061   ----------------------------------------
 BYTE   W96
// 062   ----------------------------------------
 BYTE   W96
// 063   ----------------------------------------
 BYTE   W96
// 064   ----------------------------------------
 BYTE   W96
// 065   ----------------------------------------
 BYTE   W96
// 066   ----------------------------------------
 BYTE   W96
// 067   ----------------------------------------
 BYTE   W96
// 068   ----------------------------------------
 BYTE   W02
 BYTE   W12
 BYTE   W96
// 069   ----------------------------------------
 BYTE   W96
// 070   ----------------------------------------
 BYTE   W96
// 071   ----------------------------------------
 BYTE   W96
// 072   ----------------------------------------
 BYTE   W96
// 073   ----------------------------------------
 BYTE   W96
// 074   ----------------------------------------
 BYTE   W96
// 075   ----------------------------------------
 BYTE   W96
// 076   ----------------------------------------
 BYTE   W96
// 077   ----------------------------------------
 BYTE   W96
// 078   ----------------------------------------
 BYTE   W54
 BYTE   W01
 BYTE   W96
// 079   ----------------------------------------
 BYTE   W96
// 080   ----------------------------------------
 BYTE   W96
// 081   ----------------------------------------
 BYTE   W68
 BYTE   W02
 BYTE   W02
 BYTE   GoTo
  POIN2 Label_4_01EA3EE0
 BYTE   FINE

//**************** Track 6 (Midi-Chn.5) ****************//

CastlevaniaPortraitofRuinJailofaJewelRSflame_006:
// 000   ----------------------------------------
Label_5_01EA8410:
 BYTE   KEYSH   CastlevaniaPortraitofRuinJailofaJewelRSflame_key+0
 BYTE   VOICE   127
 BYTE   VOL   37*CastlevaniaPortraitofRuinJailofaJewelRSflame_mvl/mxv
 BYTE   PAN   c_v+0
 BYTE   N23  Cn1  v120
 BYTE   TEMPO   160*CastlevaniaPortraitofRuinJailofaJewelRSflame_tbs/2
 BYTE   W24
 BYTE   N23  Cn1  v120
 BYTE   W24
 BYTE   Cn1
 BYTE   W24
 BYTE   Cn1
 BYTE   W24
// 001   ----------------------------------------
 BYTE   Cn1
 BYTE   W24
 BYTE   Cn1
 BYTE   W24
 BYTE   Cn1
 BYTE   W24
 BYTE   Cn1
 BYTE   W24
// 002   ----------------------------------------
 BYTE   N04  Fs1  v076
 BYTE   N23  Cn1  v120
 BYTE   W12
 BYTE   N04  Fs1  v058
 BYTE   W11
 BYTE   Fs1  v076
 BYTE   N23  Cn1  v120
 BYTE   W12
 BYTE   N04  Fs1  v058
 BYTE   W11
 BYTE   Fs1  v076
 BYTE   N23  Cn1  v120
 BYTE   W12
 BYTE   N04  Fs1  v058
 BYTE   W11
 BYTE   Fs1  v076
 BYTE   N23  Cn1  v120
 BYTE   W12
 BYTE   N04  Fs1  v058
 BYTE   W11
 BYTE   Fs1  v076
 BYTE   N23  Cn1  v120
 BYTE   W12
// 003   ----------------------------------------
 BYTE   N04  Fs1  v058
 BYTE   W11
 BYTE   Fs1  v076
 BYTE   N23  Cn1  v120
 BYTE   W12
 BYTE   N04  Fs1  v058
 BYTE   W11
 BYTE   Fs1  v060
 BYTE   N23  Cn1  v120
 BYTE   W06
 BYTE   N04  Fs1  v055
 BYTE   W06
 BYTE   Fs1  v076
 BYTE   W12
 BYTE   Fs1
 BYTE   N23  Cn1  v120
 BYTE   W12
 BYTE   N04  Fs1  v058
 BYTE   W11
Label_5_01EA8481:
 BYTE   N04  Fs1  v076
 BYTE   N23  Cn1  v120
 BYTE   W12
 BYTE   N04  Fs1  v058
 BYTE   W11
// 004   ----------------------------------------
 BYTE   Fs1  v076
 BYTE   N17  Dn1  v127
 BYTE   N23  Cn1  v120
 BYTE   W12
 BYTE   N04  Fs1  v058
 BYTE   W11
 BYTE   Fs1  v076
 BYTE   N23  Cn1  v120
 BYTE   W12
 BYTE   N04  Fs1  v058
 BYTE   W11
 BYTE   Fs1  v076
 BYTE   N17  Dn1  v127
 BYTE   N23  Cn1  v120
 BYTE   W12
 BYTE   N04  Fs1  v058
 BYTE   W11
 BYTE   PEND 
// 005   ----------------------------------------
 BYTE   PATT
  POIN2 Label_5_01EA8481
// 006   ----------------------------------------
 BYTE   PATT
  POIN2 Label_5_01EA8481
// 007   ----------------------------------------
Label_5_01EA84BB:
 BYTE   N04  Fs1  v076
 BYTE   N23  Cn1  v120
 BYTE   W12
 BYTE   N04  Fs1  v058
 BYTE   W11
 BYTE   Fs1  v076
 BYTE   N17  Dn1  v127
 BYTE   N23  Cn1  v120
 BYTE   W12
 BYTE   N04  Fs1  v058
 BYTE   W11
 BYTE   Fs1  v060
 BYTE   N23  Cn1  v120
 BYTE   W06
 BYTE   N04  Fs1  v055
 BYTE   W06
 BYTE   Fs1  v076
 BYTE   W12
 BYTE   Fs1
 BYTE   N17  Dn1  v127
 BYTE   N23  Cn1  v120
 BYTE   W12
 BYTE   N04  Fs1  v058
 BYTE   W11
 BYTE   PEND 
// 008   ----------------------------------------
 BYTE   PATT
  POIN2 Label_5_01EA8481
// 009   ----------------------------------------
 BYTE   PATT
  POIN2 Label_5_01EA8481
// 010   ----------------------------------------
 BYTE   PATT
  POIN2 Label_5_01EA8481
// 011   ----------------------------------------
 BYTE   PATT
  POIN2 Label_5_01EA8481
// 012   ----------------------------------------
 BYTE   PATT
  POIN2 Label_5_01EA8481
// 013   ----------------------------------------
 BYTE   PATT
  POIN2 Label_5_01EA8481
// 014   ----------------------------------------
Label_5_01EA850B:
 BYTE   N04  Fs1  v076
 BYTE   N23  Cn1  v120
 BYTE   W12
 BYTE   N04  Fs1  v058
 BYTE   W11
 BYTE   Fs1  v076
 BYTE   N17  Dn1  v127
 BYTE   W12
 BYTE   N23  Cn1  v120
 BYTE   N12  As1  v090
 BYTE   W23
 BYTE   N17  Dn1  v127
 BYTE   N23  Cn1  v120
 BYTE   N04  Fs1  v058
 BYTE   W11
 BYTE   Fs1  v076
 BYTE   W12
 BYTE   N17  Dn1  v127
 BYTE   N20  Bn1  v100
 BYTE   N23  Cn1  v120
 BYTE   N04  Fs1  v058
 BYTE   W11
 BYTE   PEND 
 BYTE   N04  Fs1  v076
 BYTE   W12
// 015   ----------------------------------------
 BYTE   N11  Cn1  v120
 BYTE   N11  Dn1  v127
 BYTE   N12  Bn1  v100
 BYTE   N04  Fs1  v058
 BYTE   W11
 BYTE   Fs1  v076
 BYTE   N17  Dn1  v127
 BYTE   N20  An1  v100
 BYTE   N23  Cn1  v120
 BYTE   W12
 BYTE   N04  Fs1  v058
 BYTE   W11
 BYTE   Fs1  v060
 BYTE   N06  Cn2  v100
 BYTE   N23  Cn1  v120
 BYTE   W06
 BYTE   N04  Fs1  v055
 BYTE   N06  Cn2  v100
 BYTE   W06
 BYTE   N04  Fs1  v076
 BYTE   N06  Cn2  v100
 BYTE   W06
 BYTE   Cn2
 BYTE   W06
 BYTE   N04  Fs1  v076
 BYTE   N06  Bn1  v100
 BYTE   N23  Cn1  v120
 BYTE   W06
 BYTE   N06  Bn1  v100
 BYTE   W06
 BYTE   An1
 BYTE   N04  Fs1  v058
 BYTE   W05
 BYTE   N06  An1  v100
 BYTE   W06
// 016   ----------------------------------------
 BYTE   PATT
  POIN2 Label_5_01EA8481
// 017   ----------------------------------------
 BYTE   PATT
  POIN2 Label_5_01EA8481
// 018   ----------------------------------------
 BYTE   PATT
  POIN2 Label_5_01EA8481
// 019   ----------------------------------------
 BYTE   PATT
  POIN2 Label_5_01EA8481
// 020   ----------------------------------------
 BYTE   PATT
  POIN2 Label_5_01EA8481
// 021   ----------------------------------------
 BYTE   PATT
  POIN2 Label_5_01EA8481
// 022   ----------------------------------------
 BYTE   PATT
  POIN2 Label_5_01EA850B
// 023   ----------------------------------------
 BYTE   N04  Fs1  v076
 BYTE   W12
 BYTE   N11  Dn1  v127
 BYTE   N11  Cn1  v120
 BYTE   N12  Bn1  v100
 BYTE   N04  Fs1  v058
 BYTE   W11
 BYTE   Fs1  v076
 BYTE   N17  Dn1  v127
 BYTE   N20  An1  v100
 BYTE   N23  Cn1  v120
 BYTE   W12
 BYTE   N04  Fs1  v058
 BYTE   W11
 BYTE   Fs1  v060
 BYTE   N23  Cn1  v120
 BYTE   W06
 BYTE   N04  Fs1  v055
 BYTE   W06
 BYTE   Fs1  v076
 BYTE   N12  Bn1  v100
 BYTE   N12  Dn1  v127
 BYTE   W12
 BYTE   N04  Fs1  v076
 BYTE   N12  An1  v100
 BYTE   N23  Cn1  v120
 BYTE   W12
 BYTE   N12  Dn1  v127
 BYTE   N12  An1  v100
 BYTE   N04  Fs1  v058
 BYTE   W11
// 024   ----------------------------------------
 BYTE   PATT
  POIN2 Label_5_01EA8481
// 025   ----------------------------------------
 BYTE   PATT
  POIN2 Label_5_01EA8481
// 026   ----------------------------------------
 BYTE   PATT
  POIN2 Label_5_01EA8481
// 027   ----------------------------------------
 BYTE   PATT
  POIN2 Label_5_01EA8481
// 028   ----------------------------------------
 BYTE   PATT
  POIN2 Label_5_01EA8481
// 029   ----------------------------------------
 BYTE   PATT
  POIN2 Label_5_01EA8481
// 030   ----------------------------------------
 BYTE   PATT
  POIN2 Label_5_01EA8481
// 031   ----------------------------------------
 BYTE   PATT
  POIN2 Label_5_01EA8481
// 032   ----------------------------------------
 BYTE   PATT
  POIN2 Label_5_01EA8481
// 033   ----------------------------------------
 BYTE   PATT
  POIN2 Label_5_01EA8481
// 034   ----------------------------------------
 BYTE   PATT
  POIN2 Label_5_01EA8481
// 035   ----------------------------------------
 BYTE   PATT
  POIN2 Label_5_01EA8481
// 036   ----------------------------------------
 BYTE   PATT
  POIN2 Label_5_01EA8481
// 037   ----------------------------------------
 BYTE   PATT
  POIN2 Label_5_01EA8481
// 038   ----------------------------------------
 BYTE   PATT
  POIN2 Label_5_01EA8481
// 039   ----------------------------------------
 BYTE   PATT
  POIN2 Label_5_01EA84BB
// 040   ----------------------------------------
 BYTE   PATT
  POIN2 Label_5_01EA8481
// 041   ----------------------------------------
 BYTE   PATT
  POIN2 Label_5_01EA8481
// 042   ----------------------------------------
 BYTE   PATT
  POIN2 Label_5_01EA8481
// 043   ----------------------------------------
 BYTE   PATT
  POIN2 Label_5_01EA8481
// 044   ----------------------------------------
 BYTE   PATT
  POIN2 Label_5_01EA8481
// 045   ----------------------------------------
 BYTE   PATT
  POIN2 Label_5_01EA8481
// 046   ----------------------------------------
 BYTE   PATT
  POIN2 Label_5_01EA8481
// 047   ----------------------------------------
 BYTE   N04  Fs1  v076
 BYTE   N23  Cn1  v120
 BYTE   W12
 BYTE   N04  Fs1  v058
 BYTE   W11
 BYTE   Fs1  v076
 BYTE   N17  Dn1  v127
 BYTE   N23  Cn1  v120
 BYTE   W12
 BYTE   N04  Fs1  v058
 BYTE   W11
 BYTE   Fs1  v076
 BYTE   N23  Cn1  v120
 BYTE   W12
 BYTE   N04  Fs1  v058
 BYTE   W11
 BYTE   Fs1  v076
 BYTE   N17  Dn1  v127
 BYTE   N23  Cn1  v120
 BYTE   W12
 BYTE   N04  Fs1  v058
 BYTE   W02
 BYTE   W09
// 048   ----------------------------------------
 BYTE   PATT
  POIN2 Label_5_01EA8481
// 049   ----------------------------------------
 BYTE   PATT
  POIN2 Label_5_01EA8481
// 050   ----------------------------------------
 BYTE   PATT
  POIN2 Label_5_01EA8481
// 051   ----------------------------------------
Label_5_01EA86AC:
 BYTE   N04  Fs1  v076
 BYTE   N23  Cn1  v120
 BYTE   W12
 BYTE   N04  Fs1  v058
 BYTE   W11
 BYTE   Fs1  v076
 BYTE   N17  Dn1  v127
 BYTE   N23  Cn1  v120
 BYTE   W12
 BYTE   N04  Fs1  v058
 BYTE   W11
 BYTE   Fs1  v060
 BYTE   N23  Cn1  v120
 BYTE   W06
 BYTE   N04  Fs1  v055
 BYTE   W06
 BYTE   Fs1  v076
 BYTE   W12
 BYTE   Fs1  v060
 BYTE   N17  Dn1  v127
 BYTE   N23  Cn1  v120
 BYTE   W06
 BYTE   N04  Fs1  v055
 BYTE   W06
 BYTE   Fs1  v076
 BYTE   W12
 BYTE   PEND 
// 052   ----------------------------------------
 BYTE   PATT
  POIN2 Label_5_01EA8481
// 053   ----------------------------------------
 BYTE   PATT
  POIN2 Label_5_01EA8481
// 054   ----------------------------------------
 BYTE   PATT
  POIN2 Label_5_01EA8481
// 055   ----------------------------------------
 BYTE   PATT
  POIN2 Label_5_01EA86AC
// 056   ----------------------------------------
 BYTE   PATT
  POIN2 Label_5_01EA8481
// 057   ----------------------------------------
 BYTE   PATT
  POIN2 Label_5_01EA8481
// 058   ----------------------------------------
 BYTE   PATT
  POIN2 Label_5_01EA8481
// 059   ----------------------------------------
 BYTE   PATT
  POIN2 Label_5_01EA8481
// 060   ----------------------------------------
 BYTE   PATT
  POIN2 Label_5_01EA8481
// 061   ----------------------------------------
 BYTE   PATT
  POIN2 Label_5_01EA8481
// 062   ----------------------------------------
 BYTE   PATT
  POIN2 Label_5_01EA8481
// 063   ----------------------------------------
 BYTE   PATT
  POIN2 Label_5_01EA86AC
// 064   ----------------------------------------
 BYTE   PATT
  POIN2 Label_5_01EA8481
// 065   ----------------------------------------
 BYTE   PATT
  POIN2 Label_5_01EA8481
// 066   ----------------------------------------
 BYTE   PATT
  POIN2 Label_5_01EA8481
// 067   ----------------------------------------
 BYTE   PATT
  POIN2 Label_5_01EA8481
// 068   ----------------------------------------
 BYTE   PATT
  POIN2 Label_5_01EA8481
// 069   ----------------------------------------
 BYTE   N04  Fs1  v076
 BYTE   N23  Cn1  v120
 BYTE   W12
 BYTE   N04  Fs1  v058
 BYTE   W11
 BYTE   Fs1  v076
 BYTE   N17  Dn1  v127
 BYTE   N23  Cn1  v120
 BYTE   W12
 BYTE   N04  Fs1  v058
 BYTE   W11
 BYTE   Fs1  v076
 BYTE   N23  Cn1  v120
 BYTE   W12
 BYTE   N04  Fs1  v058
 BYTE   W11
 BYTE   Fs1  v076
 BYTE   N17  Dn1  v127
 BYTE   N23  Cn1  v120
 BYTE   W12
 BYTE   N04  Fs1  v058
 BYTE   W04
 BYTE   W07
 BYTE   N04  Fs1  v076
 BYTE   N23  Cn1  v120
 BYTE   W04
// 070   ----------------------------------------
 BYTE   W08
 BYTE   N04  Fs1  v058
 BYTE   W11
 BYTE   Fs1  v076
 BYTE   N17  Dn1  v127
 BYTE   N23  Cn1  v120
 BYTE   W12
 BYTE   N04  Fs1  v058
 BYTE   W11
 BYTE   Fs1  v076
 BYTE   N23  Cn1  v120
 BYTE   W12
 BYTE   N04  Fs1  v058
 BYTE   W11
 BYTE   Fs1  v076
 BYTE   N17  Dn1  v127
 BYTE   N23  Cn1  v120
 BYTE   W12
 BYTE   N04  Fs1  v058
 BYTE   W11
 BYTE   Fs1  v076
 BYTE   N23  Cn1  v120
 BYTE   W12
// 071   ----------------------------------------
 BYTE   N04  Fs1  v058
 BYTE   W11
 BYTE   Fs1  v076
 BYTE   N17  Dn1  v127
 BYTE   N23  Cn1  v120
 BYTE   W12
 BYTE   N04  Fs1  v058
 BYTE   W11
 BYTE   Fs1  v076
 BYTE   N23  Cn1  v120
 BYTE   W12
 BYTE   N11  Dn1  v127
 BYTE   N04  Fs1  v058
 BYTE   W11
 BYTE   Fs1  v076
 BYTE   N11  Dn1  v127
 BYTE   N23  Cn1  v120
 BYTE   W12
 BYTE   N17  Dn1  v127
 BYTE   N04  Fs1  v058
 BYTE   W11
Label_5_01EA87CB:
 BYTE   N04  Fs1  v076
 BYTE   N23  Cn1  v120
 BYTE   W12
 BYTE   N04  Fs1  v058
 BYTE   W11
// 072   ----------------------------------------
 BYTE   Fs1  v076
 BYTE   W12
 BYTE   Fs1  v058
 BYTE   W11
 BYTE   Fs1  v076
 BYTE   W12
 BYTE   Fs1  v058
 BYTE   W11
 BYTE   Fs1  v076
 BYTE   W12
 BYTE   Fs1  v058
 BYTE   W11
 BYTE   PEND 
Label_5_01EA87E9:
 BYTE   N04  Fs1  v076
 BYTE   W12
 BYTE   Fs1  v058
 BYTE   W11
 BYTE   Fs1  v076
 BYTE   W12
// 073   ----------------------------------------
 BYTE   Fs1  v058
 BYTE   W11
 BYTE   Fs1  v076
 BYTE   N23  Cn1  v120
 BYTE   W12
 BYTE   N10  As1  v076
 BYTE   W11
 BYTE   N04  Fs1
 BYTE   N23  Cn1  v120
 BYTE   W12
 BYTE   N10  As1  v076
 BYTE   W11
 BYTE   PEND 
// 074   ----------------------------------------
 BYTE   PATT
  POIN2 Label_5_01EA87CB
// 075   ----------------------------------------
 BYTE   PATT
  POIN2 Label_5_01EA87E9
// 076   ----------------------------------------
 BYTE   PATT
  POIN2 Label_5_01EA87CB
// 077   ----------------------------------------
 BYTE   N04  Fs1  v076
 BYTE   W12
 BYTE   Fs1  v058
 BYTE   W11
 BYTE   Fs1  v076
 BYTE   W12
 BYTE   Fs1  v058
 BYTE   W11
 BYTE   Fs1  v076
 BYTE   W12
 BYTE   Fs1  v058
 BYTE   W11
 BYTE   Fs1  v076
 BYTE   W12
 BYTE   Fs1  v058
 BYTE   W11
// 078   ----------------------------------------
 BYTE   PATT
  POIN2 Label_5_01EA87CB
// 079   ----------------------------------------
 BYTE   N04  Fs1  v076
 BYTE   N23  Cn1  v120
 BYTE   W12
 BYTE   N04  Fs1  v058
 BYTE   W11
 BYTE   Fs1  v076
 BYTE   W12
 BYTE   Fs1  v058
 BYTE   W11
 BYTE   Fs1  v076
 BYTE   N23  Cn1  v120
 BYTE   W12
 BYTE   N04  Fs1  v058
 BYTE   W11
 BYTE   Fs1  v076
 BYTE   W12
 BYTE   Fs1  v058
 BYTE   W11
 BYTE   Fs1  v060
 BYTE   N23  Cn1  v120
 BYTE   W06
// 080   ----------------------------------------
 BYTE   N04  Fs1  v055
 BYTE   W06
 BYTE   N11  Dn1  v127
 BYTE   N04  Fs1  v058
 BYTE   W11
 BYTE   Fs1  v076
 BYTE   N05  Dn1  v127
 BYTE   N23  Cn1  v120
 BYTE   W06
 BYTE   N05  Dn1  v127
 BYTE   W06
 BYTE   N17
 BYTE   N04  Fs1  v058
 BYTE   W11
 BYTE   Fs1  v076
 BYTE   N23  Cn1  v120
 BYTE   W11
 BYTE   W01
 BYTE   N04  Fs1  v058
 BYTE   W11
 BYTE   Fs1  v076
 BYTE   N17  Dn1  v127
 BYTE   N23  Cn1  v120
 BYTE   W12
 BYTE   N04  Fs1  v058
 BYTE   W11
// 081   ----------------------------------------
 BYTE   PATT
  POIN2 Label_5_01EA8481
// 082   ----------------------------------------
 BYTE   PATT
  POIN2 Label_5_01EA8481
// 083   ----------------------------------------
 BYTE   PATT
  POIN2 Label_5_01EA8481
// 084   ----------------------------------------
 BYTE   N04  Fs1  v060
 BYTE   N23  Cn1  v120
 BYTE   W06
 BYTE   N04  Fs1  v055
 BYTE   W06
 BYTE   Fs1  v076
 BYTE   W12
 BYTE   Fs1
 BYTE   N17  Dn1  v127
 BYTE   N22  Cn1  v120
 BYTE   W10
 BYTE   W02
 BYTE   N04  Fs1  v058
 BYTE   GoTo
  POIN2 Label_5_01EA8410
 BYTE   FINE

//**************** Track 7 (Midi-Chn.6) ****************//

CastlevaniaPortraitofRuinJailofaJewelRSflame_007:
// 000   ----------------------------------------
Label_6_01EA7360:
 BYTE   KEYSH   CastlevaniaPortraitofRuinJailofaJewelRSflame_key+0
 BYTE   VOICE   71
 BYTE   VOL   67*CastlevaniaPortraitofRuinJailofaJewelRSflame_mvl/mxv
 BYTE   PAN   c_v-4
 BYTE   TEMPO   160*CastlevaniaPortraitofRuinJailofaJewelRSflame_tbs/2
 BYTE   W96
// 001   ----------------------------------------
 BYTE   W96
// 002   ----------------------------------------
 BYTE   W96
// 003   ----------------------------------------
 BYTE   W96
// 004   ----------------------------------------
 BYTE   W96
// 005   ----------------------------------------
 BYTE   W96
// 006   ----------------------------------------
 BYTE   W96
// 007   ----------------------------------------
 BYTE   W96
// 008   ----------------------------------------
Label_6_01EA7372:
 BYTE   N11  An3  v080
 BYTE   W12
 BYTE   Bn3
 BYTE   W12
 BYTE   Cn4
 BYTE   W12
 BYTE   N32  En4
 BYTE   W16
 BYTE   N03
 BYTE   W20
 BYTE   N11  Dn4
 BYTE   W12
 BYTE   Cn4
 BYTE   W12
 BYTE   PEND 
// 009   ----------------------------------------
 BYTE   N11  Dn4  v080
 BYTE   W12
 BYTE   Cn4
 BYTE   W12
 BYTE   Dn4
 BYTE   W12
 BYTE   N48  En4
 BYTE   W60
// 010   ----------------------------------------
 BYTE   N11  An3
 BYTE   W12
 BYTE   Bn3
 BYTE   W12
 BYTE   Cn4
 BYTE   W12
 BYTE   N17  En4
 BYTE   W24
 BYTE   N11
 BYTE   W12
 BYTE   Dn4
 BYTE   W12
 BYTE   Cn4
 BYTE   W12
// 011   ----------------------------------------
 BYTE   Dn4
 BYTE   W12
 BYTE   Cn4
 BYTE   W12
 BYTE   Dn4
 BYTE   W12
 BYTE   N15  En4
 BYTE   W24
 BYTE   N11  Dn4
 BYTE   W12
 BYTE   Cn4
 BYTE   W12
 BYTE   Bn3
 BYTE   W12
// 012   ----------------------------------------
 BYTE   PATT
  POIN2 Label_6_01EA7372
// 013   ----------------------------------------
 BYTE   N11  Dn4  v080
 BYTE   W12
 BYTE   Cn4
 BYTE   W12
 BYTE   Dn4
 BYTE   W12
 BYTE   N23  En4
 BYTE   W24
 BYTE   N11  Dn4
 BYTE   W12
 BYTE   Cn4
 BYTE   W12
 BYTE   Bn3
 BYTE   W96
// 014   ----------------------------------------
 BYTE   W96
// 015   ----------------------------------------
 BYTE   W12
// 016   ----------------------------------------
 BYTE   PATT
  POIN2 Label_6_01EA7372
// 017   ----------------------------------------
 BYTE   N11  Dn4  v080
 BYTE   W12
 BYTE   Cn4
 BYTE   W12
 BYTE   Dn4
 BYTE   W12
 BYTE   N52  En4
 BYTE   W24
 BYTE   W02
 BYTE   N01
 BYTE   W32
 BYTE   W02
// 018   ----------------------------------------
 BYTE   N11  An3
 BYTE   W12
 BYTE   Bn3
 BYTE   W12
 BYTE   Cn4
 BYTE   W12
 BYTE   En4
 BYTE   W24
 BYTE   En4
 BYTE   W12
 BYTE   Dn4
 BYTE   W12
 BYTE   Cn4
 BYTE   W12
// 019   ----------------------------------------
 BYTE   Dn4
 BYTE   W12
 BYTE   Cn4
 BYTE   W12
 BYTE   Dn4
 BYTE   W12
 BYTE   N23  En4
 BYTE   W24
 BYTE   N11  Dn4
 BYTE   W12
 BYTE   Cn4
 BYTE   W12
 BYTE   Bn3
 BYTE   W12
// 020   ----------------------------------------
 BYTE   PATT
  POIN2 Label_6_01EA7372
// 021   ----------------------------------------
 BYTE   N11  Dn4  v080
 BYTE   W12
 BYTE   Cn4
 BYTE   W12
 BYTE   Dn4
 BYTE   W12
 BYTE   N23  En4
 BYTE   W24
 BYTE   N11  Dn4
 BYTE   W12
 BYTE   Cn4
 BYTE   W12
 BYTE   Bn3
 BYTE   W96
// 022   ----------------------------------------
 BYTE   W96
// 023   ----------------------------------------
 BYTE   W36
Label_6_01EA7415:
 BYTE   N32  Fs4  v080
 BYTE   W36
 BYTE   Cs4
 BYTE   W36
// 024   ----------------------------------------
 BYTE   An4
 BYTE   W36
 BYTE   PEND 
 BYTE   N17  Gs4  v080
 BYTE   W24
 BYTE   N28  Fs4
 BYTE   W14
 BYTE   N01
 BYTE   W22
// 025   ----------------------------------------
 BYTE   N11
 BYTE   W12
 BYTE   Gs4
 BYTE   W12
 BYTE   An4
 BYTE   W12
 BYTE   N23  Gs4
 BYTE   W24
 BYTE   Fs4
 BYTE   W24
 BYTE   N88  Cs4
 BYTE   W44
// 026   ----------------------------------------
 BYTE   N01
 BYTE   W52
 BYTE   N11  Bn3
 BYTE   W12
 BYTE   An3
 BYTE   W12
 BYTE   Bn3
 BYTE   W12
 BYTE   N08  Cs4
 BYTE   W12
// 027   ----------------------------------------
 BYTE   N20  An3
 BYTE   W24
 BYTE   Fs3
 BYTE   W24
 BYTE   N88  An3
 BYTE   W44
 BYTE   N01
 BYTE   W52
// 028   ----------------------------------------
 BYTE   N11  Cs4
 BYTE   W12
 BYTE   Bn3
 BYTE   W12
 BYTE   Cs4
 BYTE   W12
 BYTE   N08  En4
 BYTE   W12
 BYTE   N20  Gs3
 BYTE   W24
 BYTE   Bn3
 BYTE   W24
// 029   ----------------------------------------
 BYTE   N56  En4
 BYTE   W60
 BYTE   N44  Gs4
 BYTE   W22
 BYTE   N03
 BYTE   W48
// 030   ----------------------------------------
 BYTE   W02
// 031   ----------------------------------------
 BYTE   PATT
  POIN2 Label_6_01EA7415
// 032   ----------------------------------------
 BYTE   N17  Gs4  v080
 BYTE   W24
 BYTE   N28  Bn4
 BYTE   W14
 BYTE   N01
 BYTE   W22
 BYTE   N10  An4
 BYTE   W12
 BYTE   Bn4
 BYTE   W12
 BYTE   N08  Cs5
 BYTE   W12
// 033   ----------------------------------------
 BYTE   N17  En5
 BYTE   W24
 BYTE   N08  Ds5
 BYTE   W12
 BYTE   N11  Bn4
 BYTE   W12
 BYTE   N92  Cs5
 BYTE   W44
 BYTE   W02
 BYTE   N03
 BYTE   W48
// 034   ----------------------------------------
 BYTE   W02
 BYTE   N09  Bn4
 BYTE   W12
 BYTE   N17  An4
 BYTE   W24
 BYTE   N08  Gs4
 BYTE   W12
 BYTE   N17  Fs4
 BYTE   W24
 BYTE   En4
 BYTE   W24
// 035   ----------------------------------------
 BYTE   Dn4
 BYTE   W24
 BYTE   N23  Cs4
 BYTE   W24
 BYTE   N52  Bn3
 BYTE   W24
 BYTE   W02
 BYTE   N01
 BYTE   W32
// 036   ----------------------------------------
 BYTE   W02
 BYTE   N20  Bn4
 BYTE   W24
 BYTE   N08  An4
 BYTE   W12
 BYTE   N14  Gs4
 BYTE   W24
 BYTE   Fs4
 BYTE   W24
 BYTE   N96  En4
 BYTE   W48
// 037   ----------------------------------------
 BYTE   N05
 BYTE   W96
// 038   ----------------------------------------
 BYTE   W96
// 039   ----------------------------------------
 BYTE   W96
// 040   ----------------------------------------
 BYTE   W96
// 041   ----------------------------------------
 BYTE   W96
// 042   ----------------------------------------
 BYTE   W96
// 043   ----------------------------------------
 BYTE   W96
// 044   ----------------------------------------
 BYTE   W96
// 045   ----------------------------------------
 BYTE   W48
 BYTE   W02
 BYTE   W09
 BYTE   N11  Cn4  v080
 BYTE   W12
 BYTE   Bn3
 BYTE   W12
 BYTE   N08  An3
 BYTE   W12
 BYTE   N20  Bn3
 BYTE   W24
// 046   ----------------------------------------
 BYTE   N11  An3
 BYTE   W12
 BYTE   Gn3
 BYTE   W12
 BYTE   N20  An3
 BYTE   W24
 BYTE   N11  Gn3
 BYTE   W12
 BYTE   Fn3
 BYTE   W12
 BYTE   N21  Gn3
 BYTE   W24
// 047   ----------------------------------------
 BYTE   N11
 BYTE   W12
 BYTE   An3
 BYTE   W12
 BYTE   Bn3
 BYTE   W12
 BYTE   Cn4
 BYTE   W12
 BYTE   Bn3
 BYTE   W12
 BYTE   Cn4
 BYTE   W12
 BYTE   N20  En4
 BYTE   W24
// 048   ----------------------------------------
 BYTE   N11  Dn4
 BYTE   W12
 BYTE   Bn3
 BYTE   W12
 BYTE   N21  Dn4
 BYTE   W24
 BYTE   N11  Cn4
 BYTE   W12
 BYTE   An3
 BYTE   W12
 BYTE   N17  Cn4
 BYTE   W24
// 049   ----------------------------------------
 BYTE   N11  Bn3
 BYTE   W12
 BYTE   An3
 BYTE   W12
 BYTE   Gn3
 BYTE   W12
 BYTE   Cn4
 BYTE   W12
 BYTE   Bn3
 BYTE   W12
 BYTE   N08  An3
 BYTE   W12
 BYTE   N18  Bn3
 BYTE   W24
// 050   ----------------------------------------
 BYTE   N11  An3
 BYTE   W12
 BYTE   Gn3
 BYTE   W12
 BYTE   N18  An3
 BYTE   W24
 BYTE   N11  Gn3
 BYTE   W12
 BYTE   Fn3
 BYTE   W12
 BYTE   N17  Gn3
 BYTE   W24
// 051   ----------------------------------------
 BYTE   N11
 BYTE   W12
 BYTE   An3
 BYTE   W12
 BYTE   Bn3
 BYTE   W12
 BYTE   Cn4
 BYTE   W12
 BYTE   Bn3
 BYTE   W12
 BYTE   N08  Cn4
 BYTE   W12
 BYTE   N23  En4
 BYTE   W24
// 052   ----------------------------------------
 BYTE   N11  Dn4
 BYTE   W12
 BYTE   Bn3
 BYTE   W12
 BYTE   N17  Dn4
 BYTE   W24
 BYTE   N11  Cn4
 BYTE   W12
 BYTE   Bn3
 BYTE   W12
 BYTE   N52  Cn4
 BYTE   W24
// 053   ----------------------------------------
 BYTE   W02
 BYTE   N01
 BYTE   W32
 BYTE   W02
 BYTE   N11  An3
 BYTE   W12
 BYTE   Bn3
 BYTE   W12
 BYTE   N05  Cn4
 BYTE   W12
 BYTE   N23  An3
 BYTE   W24
// 054   ----------------------------------------
 BYTE   N11  Bn3
 BYTE   W12
 BYTE   N96  Cn4
 BYTE   W48
Label_6_01EA754E:
 BYTE   N17  Cn4  v080
 BYTE   W72
// 055   ----------------------------------------
 BYTE   N11  Bn3
 BYTE   W12
 BYTE   Cn4
 BYTE   W12
 BYTE   PEND 
 BYTE   N05  Dn4  v080
 BYTE   W12
 BYTE   N23  Bn3
 BYTE   W24
 BYTE   N11  Cn4
 BYTE   W12
 BYTE   N96  Dn4
 BYTE   W48
// 056   ----------------------------------------
 BYTE   N17
 BYTE   W72
 BYTE   N11  Cn4
 BYTE   W12
 BYTE   Dn4
 BYTE   W12
// 057   ----------------------------------------
 BYTE   N08  En4
 BYTE   W12
 BYTE   N23  Cn4
 BYTE   W24
 BYTE   N11  Dn4
 BYTE   W12
 BYTE   N76  En4
 BYTE   W36
 BYTE   W02
 BYTE   N01
 BYTE   W44
// 058   ----------------------------------------
 BYTE   W02
 BYTE   N11  An3
 BYTE   W12
 BYTE   Cn4
 BYTE   W12
 BYTE   N08  En4
 BYTE   W12
 BYTE   N20  Gn4
 BYTE   W24
 BYTE   Fs4
 BYTE   W24
 BYTE   En4
 BYTE   W24
// 059   ----------------------------------------
 BYTE   N09  Dn4
 BYTE   W12
 BYTE   N92  En4
 BYTE   W44
 BYTE   W02
 BYTE   N03
 BYTE   W60
// 060   ----------------------------------------
 BYTE   W02
 BYTE   N11  An3
 BYTE   W12
 BYTE   Bn3
 BYTE   W12
 BYTE   N08  Cn4
 BYTE   W12
 BYTE   N23  An3
 BYTE   W24
 BYTE   N08  Bn3
 BYTE   W12
 BYTE   N96  Cn4
 BYTE   W48
// 061   ----------------------------------------
 BYTE   PATT
  POIN2 Label_6_01EA754E
// 062   ----------------------------------------
 BYTE   N08  Dn4  v080
 BYTE   W12
 BYTE   N23  Bn3
 BYTE   W24
 BYTE   N08  Cn4
 BYTE   W12
 BYTE   N64  Dn4
 BYTE   W32
 BYTE   N01
 BYTE   W40
// 063   ----------------------------------------
 BYTE   N11  Bn3
 BYTE   W24
 BYTE   Gn3
 BYTE   W24
 BYTE   N32
 BYTE   W16
 BYTE   N03
 BYTE   W20
 BYTE   N96  An3
 BYTE   W48
// 064   ----------------------------------------
 BYTE   N52
 BYTE   W96
// 065   ----------------------------------------
 BYTE   W04
 BYTE   W12
 BYTE   W96
// 066   ----------------------------------------
 BYTE   W96
// 067   ----------------------------------------
 BYTE   W96
// 068   ----------------------------------------
 BYTE   W96
// 069   ----------------------------------------
 BYTE   W96
// 070   ----------------------------------------
 BYTE   W96
// 071   ----------------------------------------
 BYTE   W96
// 072   ----------------------------------------
 BYTE   W96
// 073   ----------------------------------------
 BYTE   W96
// 074   ----------------------------------------
 BYTE   W96
// 075   ----------------------------------------
 BYTE   W54
 BYTE   W01
 BYTE   W96
// 076   ----------------------------------------
 BYTE   W96
// 077   ----------------------------------------
 BYTE   W96
// 078   ----------------------------------------
 BYTE   W68
 BYTE   W02
 BYTE   W02
 BYTE   GoTo
  POIN2 Label_6_01EA7360
 BYTE   FINE

//**************** Track 8 (Midi-Chn.7) ****************//

CastlevaniaPortraitofRuinJailofaJewelRSflame_008:
// 000   ----------------------------------------
Label_7_01EA6568:
 BYTE   KEYSH   CastlevaniaPortraitofRuinJailofaJewelRSflame_key+0
 BYTE   VOICE   71
 BYTE   VOL   67*CastlevaniaPortraitofRuinJailofaJewelRSflame_mvl/mxv
 BYTE   PAN   c_v-24
 BYTE   TEMPO   160*CastlevaniaPortraitofRuinJailofaJewelRSflame_tbs/2
 BYTE   W96
// 001   ----------------------------------------
 BYTE   W96
// 002   ----------------------------------------
 BYTE   W96
// 003   ----------------------------------------
 BYTE   W96
// 004   ----------------------------------------
 BYTE   W96
// 005   ----------------------------------------
 BYTE   W96
// 006   ----------------------------------------
 BYTE   W96
// 007   ----------------------------------------
 BYTE   W96
// 008   ----------------------------------------
 BYTE   W96
// 009   ----------------------------------------
 BYTE   W96
// 010   ----------------------------------------
 BYTE   W96
// 011   ----------------------------------------
 BYTE   W96
// 012   ----------------------------------------
 BYTE   W96
// 013   ----------------------------------------
 BYTE   W96
// 014   ----------------------------------------
 BYTE   W96
// 015   ----------------------------------------
 BYTE   W96
// 016   ----------------------------------------
 BYTE   W96
// 017   ----------------------------------------
 BYTE   W96
// 018   ----------------------------------------
 BYTE   W96
// 019   ----------------------------------------
 BYTE   W96
// 020   ----------------------------------------
 BYTE   W96
// 021   ----------------------------------------
 BYTE   W96
// 022   ----------------------------------------
 BYTE   W96
// 023   ----------------------------------------
 BYTE   W96
// 024   ----------------------------------------
 BYTE   W24
Label_7_01EA658B:
 BYTE   N32  An3  v080
 BYTE   W36
 BYTE   Fs3
 BYTE   W36
// 025   ----------------------------------------
 BYTE   Cs4
 BYTE   W36
 BYTE   PEND 
 BYTE   N17  Bn3  v080
 BYTE   W24
 BYTE   N28  An3
 BYTE   W14
 BYTE   N01
 BYTE   W22
// 026   ----------------------------------------
 BYTE   N11
 BYTE   W12
 BYTE   Cs4
 BYTE   W12
 BYTE   Fs4
 BYTE   W12
 BYTE   N23  Cs4
 BYTE   W24
 BYTE   An3
 BYTE   W24
 BYTE   N88  Fs3
 BYTE   W44
// 027   ----------------------------------------
 BYTE   N01
 BYTE   W52
 BYTE   N11  Gs3
 BYTE   W12
 BYTE   Fs3
 BYTE   W12
 BYTE   Gs3
 BYTE   W12
 BYTE   N08  An3
 BYTE   W12
// 028   ----------------------------------------
 BYTE   N20  Fs3
 BYTE   W24
 BYTE   Dn3
 BYTE   W24
 BYTE   N88  Fs3
 BYTE   W44
 BYTE   N01
 BYTE   W52
// 029   ----------------------------------------
 BYTE   N11  An3
 BYTE   W12
 BYTE   Gs3
 BYTE   W12
 BYTE   An3
 BYTE   W12
 BYTE   N08  Bn3
 BYTE   W12
 BYTE   N20  En3
 BYTE   W24
 BYTE   Gs3
 BYTE   W24
// 030   ----------------------------------------
 BYTE   N56  Bn3
 BYTE   W60
 BYTE   N44
 BYTE   W22
 BYTE   N03
 BYTE   W48
// 031   ----------------------------------------
 BYTE   W02
// 032   ----------------------------------------
 BYTE   PATT
  POIN2 Label_7_01EA658B
// 033   ----------------------------------------
 BYTE   N17  Bn3  v080
 BYTE   W24
 BYTE   N28  Dn4
 BYTE   W14
 BYTE   N01
 BYTE   W22
 BYTE   N10  Cs4
 BYTE   W12
 BYTE   Fs4
 BYTE   W12
 BYTE   N08  An4
 BYTE   W12
// 034   ----------------------------------------
 BYTE   N17  Cs5
 BYTE   W24
 BYTE   N08  Bn4
 BYTE   W12
 BYTE   N11  Gs4
 BYTE   W12
 BYTE   N92  An4
 BYTE   W44
 BYTE   W02
 BYTE   N03
 BYTE   W48
// 035   ----------------------------------------
 BYTE   W02
 BYTE   N09  Gs4
 BYTE   W12
 BYTE   N17  Fs4
 BYTE   W24
 BYTE   N08  En4
 BYTE   W12
 BYTE   N17  Dn4
 BYTE   W24
 BYTE   Cs4
 BYTE   W24
// 036   ----------------------------------------
 BYTE   Bn3
 BYTE   W24
 BYTE   N23  An3
 BYTE   W24
 BYTE   N52  Gs3
 BYTE   W24
 BYTE   W02
 BYTE   N01
 BYTE   W32
// 037   ----------------------------------------
 BYTE   W02
 BYTE   N20  Gs4
 BYTE   W24
 BYTE   N08  Fs4
 BYTE   W12
 BYTE   N14  En4
 BYTE   W24
 BYTE   Dn4
 BYTE   W24
 BYTE   N96  Cs4
 BYTE   W48
// 038   ----------------------------------------
 BYTE   N05
 BYTE   W96
// 039   ----------------------------------------
 BYTE   W96
// 040   ----------------------------------------
 BYTE   W96
// 041   ----------------------------------------
 BYTE   W96
// 042   ----------------------------------------
 BYTE   W96
// 043   ----------------------------------------
 BYTE   W96
// 044   ----------------------------------------
 BYTE   W96
// 045   ----------------------------------------
 BYTE   W96
// 046   ----------------------------------------
 BYTE   W48
 BYTE   W02
 BYTE   W96
// 047   ----------------------------------------
 BYTE   W96
// 048   ----------------------------------------
 BYTE   W96
// 049   ----------------------------------------
 BYTE   W96
// 050   ----------------------------------------
 BYTE   W96
// 051   ----------------------------------------
 BYTE   W96
// 052   ----------------------------------------
 BYTE   W96
// 053   ----------------------------------------
 BYTE   W96
// 054   ----------------------------------------
 BYTE   W09
 BYTE   N11  Fn3  v080
 BYTE   W12
 BYTE   Gn3
 BYTE   W12
 BYTE   N05  An3
 BYTE   W12
 BYTE   N23  Fn3
 BYTE   W24
 BYTE   N11  Gn3
 BYTE   W12
 BYTE   N96  An3
 BYTE   W48
// 055   ----------------------------------------
Label_7_01EA664C:
 BYTE   N17  An3  v080
 BYTE   W72
 BYTE   N11  Gn3
 BYTE   W12
 BYTE   An3
 BYTE   W12
 BYTE   PEND 
// 056   ----------------------------------------
 BYTE   N05  Bn3  v080
 BYTE   W12
 BYTE   N23  Gn3
 BYTE   W24
 BYTE   N11  An3
 BYTE   W12
 BYTE   N96  Bn3
 BYTE   W48
// 057   ----------------------------------------
 BYTE   N17
 BYTE   W72
 BYTE   N11  An3
 BYTE   W12
 BYTE   Bn3
 BYTE   W12
// 058   ----------------------------------------
 BYTE   N08  Cn4
 BYTE   W12
 BYTE   N23  An3
 BYTE   W24
 BYTE   N11  Bn3
 BYTE   W12
 BYTE   N76  Cn4
 BYTE   W36
 BYTE   W02
 BYTE   N01
 BYTE   W44
// 059   ----------------------------------------
 BYTE   W02
 BYTE   N11  En3
 BYTE   W12
 BYTE   An3
 BYTE   W12
 BYTE   N08  Cn4
 BYTE   W12
 BYTE   N20  En4
 BYTE   W24
 BYTE   Dn4
 BYTE   W24
 BYTE   Cn4
 BYTE   W24
// 060   ----------------------------------------
 BYTE   N09  Bn3
 BYTE   W12
 BYTE   N92  Cn4
 BYTE   W44
 BYTE   W02
 BYTE   N03
 BYTE   W60
// 061   ----------------------------------------
 BYTE   W02
 BYTE   N11  Fn3
 BYTE   W12
 BYTE   Gn3
 BYTE   W12
 BYTE   N08  An3
 BYTE   W12
 BYTE   N23  Fn3
 BYTE   W24
 BYTE   N08  Gn3
 BYTE   W12
 BYTE   N96  An3
 BYTE   W48
// 062   ----------------------------------------
 BYTE   PATT
  POIN2 Label_7_01EA664C
// 063   ----------------------------------------
 BYTE   N08  Bn3  v080
 BYTE   W12
 BYTE   N23  Gn3
 BYTE   W24
 BYTE   N08  An3
 BYTE   W12
 BYTE   N64  Bn3
 BYTE   W32
 BYTE   N01
 BYTE   W40
// 064   ----------------------------------------
 BYTE   N11  Dn3
 BYTE   W24
 BYTE   Bn2
 BYTE   W24
 BYTE   N32
 BYTE   W16
 BYTE   N03
 BYTE   W20
 BYTE   N96  Cn3
 BYTE   W48
// 065   ----------------------------------------
 BYTE   N52
 BYTE   W96
// 066   ----------------------------------------
 BYTE   W04
 BYTE   W12
 BYTE   W96
// 067   ----------------------------------------
 BYTE   W96
// 068   ----------------------------------------
 BYTE   W96
// 069   ----------------------------------------
 BYTE   W96
// 070   ----------------------------------------
 BYTE   W96
// 071   ----------------------------------------
 BYTE   W96
// 072   ----------------------------------------
 BYTE   W96
// 073   ----------------------------------------
 BYTE   W96
// 074   ----------------------------------------
 BYTE   W96
// 075   ----------------------------------------
 BYTE   W96
// 076   ----------------------------------------
 BYTE   W54
 BYTE   W01
 BYTE   W96
// 077   ----------------------------------------
 BYTE   W96
// 078   ----------------------------------------
 BYTE   W96
// 079   ----------------------------------------
 BYTE   W68
 BYTE   W02
 BYTE   W02
 BYTE   GoTo
  POIN2 Label_7_01EA6568
 BYTE   FINE

//**************** Track 9 (Midi-Chn.8) ****************//

CastlevaniaPortraitofRuinJailofaJewelRSflame_009:
// 000   ----------------------------------------
Label_8_01EA776C:
 BYTE   KEYSH   CastlevaniaPortraitofRuinJailofaJewelRSflame_key+0
 BYTE   VOICE   71
 BYTE   VOL   67*CastlevaniaPortraitofRuinJailofaJewelRSflame_mvl/mxv
 BYTE   PAN   c_v+56
 BYTE   TEMPO   160*CastlevaniaPortraitofRuinJailofaJewelRSflame_tbs/2
 BYTE   W96
// 001   ----------------------------------------
 BYTE   W96
// 002   ----------------------------------------
 BYTE   W96
// 003   ----------------------------------------
 BYTE   W96
// 004   ----------------------------------------
 BYTE   W96
// 005   ----------------------------------------
 BYTE   W96
// 006   ----------------------------------------
 BYTE   W96
// 007   ----------------------------------------
 BYTE   W96
// 008   ----------------------------------------
 BYTE   W12
Label_8_01EA777F:
 BYTE   N11  An3  v050
 BYTE   W12
 BYTE   Bn3
 BYTE   W12
 BYTE   Cn4
 BYTE   W12
 BYTE   N32  En4
 BYTE   W16
 BYTE   N03
 BYTE   W20
 BYTE   N11  Dn4
 BYTE   W12
// 009   ----------------------------------------
 BYTE   Cn4
 BYTE   W12
 BYTE   PEND 
 BYTE   N11  Dn4  v050
 BYTE   W12
 BYTE   Cn4
 BYTE   W12
 BYTE   Dn4
 BYTE   W12
 BYTE   N48  En4
 BYTE   W60
// 010   ----------------------------------------
 BYTE   N11  An3
 BYTE   W12
 BYTE   Bn3
 BYTE   W12
 BYTE   Cn4
 BYTE   W12
 BYTE   N17  En4
 BYTE   W24
 BYTE   N11
 BYTE   W12
 BYTE   Dn4
 BYTE   W12
 BYTE   Cn4
 BYTE   W12
// 011   ----------------------------------------
 BYTE   Dn4
 BYTE   W12
 BYTE   Cn4
 BYTE   W12
 BYTE   Dn4
 BYTE   W12
 BYTE   N10  En4
 BYTE   W24
 BYTE   N11  Dn4
 BYTE   W12
 BYTE   Cn4
 BYTE   W12
 BYTE   Bn3
 BYTE   W12
// 012   ----------------------------------------
 BYTE   PATT
  POIN2 Label_8_01EA777F
// 013   ----------------------------------------
 BYTE   N11  Dn4  v050
 BYTE   W12
 BYTE   Cn4
 BYTE   W12
 BYTE   Dn4
 BYTE   W12
 BYTE   N10  En4
 BYTE   W24
 BYTE   N11  Dn4
 BYTE   W12
 BYTE   Cn4
 BYTE   W12
 BYTE   Bn3
 BYTE   W96
// 014   ----------------------------------------
 BYTE   W96
// 015   ----------------------------------------
 BYTE   W96
// 016   ----------------------------------------
 BYTE   W96
// 017   ----------------------------------------
 BYTE   W96
// 018   ----------------------------------------
 BYTE   W96
// 019   ----------------------------------------
 BYTE   W96
// 020   ----------------------------------------
 BYTE   W96
// 021   ----------------------------------------
 BYTE   W96
// 022   ----------------------------------------
 BYTE   W96
// 023   ----------------------------------------
 BYTE   W36
Label_8_01EA77DE:
 BYTE   N32  Fs4  v050
 BYTE   W36
 BYTE   Cs4
 BYTE   W36
// 024   ----------------------------------------
 BYTE   An4
 BYTE   W36
 BYTE   PEND 
 BYTE   N17  Gs4  v050
 BYTE   W24
 BYTE   N28  Fs4
 BYTE   W14
 BYTE   N01
 BYTE   W22
// 025   ----------------------------------------
 BYTE   N11
 BYTE   W12
 BYTE   Gs4
 BYTE   W12
 BYTE   An4
 BYTE   W12
 BYTE   N23  Gs4
 BYTE   W24
 BYTE   Fs4
 BYTE   W24
 BYTE   N88  Cs4
 BYTE   W44
// 026   ----------------------------------------
 BYTE   N01
 BYTE   W52
 BYTE   N11  Bn3
 BYTE   W12
 BYTE   An3
 BYTE   W12
 BYTE   Bn3
 BYTE   W12
 BYTE   N08  Cs4
 BYTE   W12
// 027   ----------------------------------------
 BYTE   N20  An3
 BYTE   W24
 BYTE   Fs3
 BYTE   W24
 BYTE   N88  An3
 BYTE   W44
 BYTE   N01
 BYTE   W52
// 028   ----------------------------------------
 BYTE   N11  Cs4
 BYTE   W12
 BYTE   Bn3
 BYTE   W12
 BYTE   Cs4
 BYTE   W12
 BYTE   N08  En4
 BYTE   W12
 BYTE   N20  Gs3
 BYTE   W24
 BYTE   Bn3
 BYTE   W24
// 029   ----------------------------------------
 BYTE   N56  En4
 BYTE   W60
 BYTE   N44  Gs4
 BYTE   W22
 BYTE   N03
 BYTE   W48
// 030   ----------------------------------------
 BYTE   W02
// 031   ----------------------------------------
 BYTE   PATT
  POIN2 Label_8_01EA77DE
// 032   ----------------------------------------
 BYTE   N17  Gs4  v050
 BYTE   W24
 BYTE   N28  Bn4
 BYTE   W14
 BYTE   N01
 BYTE   W22
 BYTE   N10  An4
 BYTE   W12
 BYTE   Bn4
 BYTE   W12
 BYTE   N08  Cs5
 BYTE   W12
// 033   ----------------------------------------
 BYTE   N17  En5
 BYTE   W24
 BYTE   N08  Ds5
 BYTE   W12
 BYTE   N11  Bn4
 BYTE   W12
 BYTE   N92  Cs5
 BYTE   W44
 BYTE   W02
 BYTE   N03
 BYTE   W48
// 034   ----------------------------------------
 BYTE   W02
 BYTE   N09  Bn4
 BYTE   W12
 BYTE   N17  An4
 BYTE   W24
 BYTE   N08  Gs4
 BYTE   W12
 BYTE   N17  Fs4
 BYTE   W24
 BYTE   En4
 BYTE   W24
// 035   ----------------------------------------
 BYTE   Dn4
 BYTE   W24
 BYTE   N23  Cs4
 BYTE   W24
 BYTE   N52  Bn3
 BYTE   W24
 BYTE   W02
 BYTE   N01
 BYTE   W32
// 036   ----------------------------------------
 BYTE   W02
 BYTE   N20  Bn4
 BYTE   W24
 BYTE   N08  An4
 BYTE   W12
 BYTE   N14  Gs4
 BYTE   W24
 BYTE   Fs4
 BYTE   W24
 BYTE   N96  En4
 BYTE   W48
// 037   ----------------------------------------
 BYTE   N05
 BYTE   W96
// 038   ----------------------------------------
 BYTE   W96
// 039   ----------------------------------------
 BYTE   W96
// 040   ----------------------------------------
 BYTE   W96
// 041   ----------------------------------------
 BYTE   W96
// 042   ----------------------------------------
 BYTE   W96
// 043   ----------------------------------------
 BYTE   W96
// 044   ----------------------------------------
 BYTE   W96
// 045   ----------------------------------------
 BYTE   W36
 BYTE   W02
 BYTE   W21
 BYTE   N11  Cn4  v050
 BYTE   W12
 BYTE   Bn3
 BYTE   W12
 BYTE   N08  An3
 BYTE   W12
 BYTE   N20  Bn3
 BYTE   W24
// 046   ----------------------------------------
 BYTE   N11  An3
 BYTE   W12
 BYTE   Gn3
 BYTE   W12
 BYTE   N20  An3
 BYTE   W24
 BYTE   N11  Gn3
 BYTE   W12
 BYTE   Fn3
 BYTE   W12
 BYTE   N21  Gn3
 BYTE   W24
// 047   ----------------------------------------
 BYTE   N11
 BYTE   W12
 BYTE   An3
 BYTE   W12
 BYTE   Bn3
 BYTE   W12
 BYTE   Cn4
 BYTE   W12
 BYTE   Bn3
 BYTE   W12
 BYTE   Cn4
 BYTE   W12
 BYTE   N20  En4
 BYTE   W24
// 048   ----------------------------------------
 BYTE   N11  Dn4
 BYTE   W12
 BYTE   Bn3
 BYTE   W12
 BYTE   N21  Dn4
 BYTE   W24
 BYTE   N11  Cn4
 BYTE   W12
 BYTE   An3
 BYTE   W12
 BYTE   N17  Cn4
 BYTE   W24
// 049   ----------------------------------------
 BYTE   N11  Bn3
 BYTE   W12
 BYTE   An3
 BYTE   W12
 BYTE   Gn3
 BYTE   W12
 BYTE   Cn4
 BYTE   W12
 BYTE   Bn3
 BYTE   W12
 BYTE   N08  An3
 BYTE   W12
 BYTE   N18  Bn3
 BYTE   W24
// 050   ----------------------------------------
 BYTE   N11  An3
 BYTE   W12
 BYTE   Gn3
 BYTE   W12
 BYTE   N18  An3
 BYTE   W24
 BYTE   N11  Gn3
 BYTE   W12
 BYTE   Fn3
 BYTE   W12
 BYTE   N17  Gn3
 BYTE   W24
// 051   ----------------------------------------
 BYTE   N11
 BYTE   W12
 BYTE   An3
 BYTE   W12
 BYTE   Bn3
 BYTE   W12
 BYTE   Cn4
 BYTE   W12
 BYTE   Bn3
 BYTE   W12
 BYTE   N08  Cn4
 BYTE   W12
 BYTE   N23  En4
 BYTE   W24
// 052   ----------------------------------------
 BYTE   N11  Dn4
 BYTE   W12
 BYTE   Bn3
 BYTE   W12
 BYTE   N17  Dn4
 BYTE   W24
 BYTE   N11  Cn4
 BYTE   W12
 BYTE   Bn3
 BYTE   W12
 BYTE   N52  Cn4
 BYTE   W24
// 053   ----------------------------------------
 BYTE   W02
 BYTE   N01
 BYTE   W32
 BYTE   W02
 BYTE   N11  An3
 BYTE   W12
 BYTE   Bn3
 BYTE   W12
 BYTE   N05  Cn4
 BYTE   W12
 BYTE   N23  An3
 BYTE   W24
// 054   ----------------------------------------
 BYTE   N11  Bn3
 BYTE   W12
 BYTE   N96  Cn4
 BYTE   W48
Label_8_01EA7917:
 BYTE   N17  Cn4  v050
 BYTE   W72
// 055   ----------------------------------------
 BYTE   N11  Bn3
 BYTE   W12
 BYTE   Cn4
 BYTE   W12
 BYTE   PEND 
 BYTE   N05  Dn4  v050
 BYTE   W12
 BYTE   N23  Bn3
 BYTE   W24
 BYTE   N11  Cn4
 BYTE   W12
 BYTE   N96  Dn4
 BYTE   W48
// 056   ----------------------------------------
 BYTE   N17
 BYTE   W72
 BYTE   N11  Cn4
 BYTE   W12
 BYTE   Dn4
 BYTE   W12
// 057   ----------------------------------------
 BYTE   N08  En4
 BYTE   W12
 BYTE   N23  Cn4
 BYTE   W24
 BYTE   N11  Dn4
 BYTE   W12
 BYTE   N76  En4
 BYTE   W36
 BYTE   W02
 BYTE   N01
 BYTE   W44
// 058   ----------------------------------------
 BYTE   W02
 BYTE   N11  An3
 BYTE   W12
 BYTE   Cn4
 BYTE   W12
 BYTE   N08  En4
 BYTE   W12
 BYTE   N20  Gn4
 BYTE   W24
 BYTE   Fs4
 BYTE   W24
 BYTE   En4
 BYTE   W24
// 059   ----------------------------------------
 BYTE   N09  Dn4
 BYTE   W12
 BYTE   N92  En4
 BYTE   W44
 BYTE   W02
 BYTE   N03
 BYTE   W60
// 060   ----------------------------------------
 BYTE   W02
 BYTE   N11  An3
 BYTE   W12
 BYTE   Bn3
 BYTE   W12
 BYTE   N08  Cn4
 BYTE   W12
 BYTE   N23  An3
 BYTE   W24
 BYTE   N08  Bn3
 BYTE   W12
 BYTE   N96  Cn4
 BYTE   W48
// 061   ----------------------------------------
 BYTE   PATT
  POIN2 Label_8_01EA7917
// 062   ----------------------------------------
 BYTE   N08  Dn4  v050
 BYTE   W12
 BYTE   N23  Bn3
 BYTE   W24
 BYTE   N08  Cn4
 BYTE   W12
 BYTE   N64  Dn4
 BYTE   W32
 BYTE   N01
 BYTE   W40
// 063   ----------------------------------------
 BYTE   N11  Bn3
 BYTE   W24
 BYTE   Gn3
 BYTE   W24
 BYTE   N32
 BYTE   W16
 BYTE   N03
 BYTE   W20
 BYTE   N96  An3
 BYTE   W48
// 064   ----------------------------------------
 BYTE   N52
 BYTE   W88
 BYTE   W12
// 065   ----------------------------------------
 BYTE   W96
// 066   ----------------------------------------
 BYTE   W96
// 067   ----------------------------------------
 BYTE   W96
// 068   ----------------------------------------
 BYTE   W96
// 069   ----------------------------------------
 BYTE   W96
// 070   ----------------------------------------
 BYTE   W96
// 071   ----------------------------------------
 BYTE   W96
// 072   ----------------------------------------
 BYTE   W96
// 073   ----------------------------------------
 BYTE   W96
// 074   ----------------------------------------
 BYTE   W96
// 075   ----------------------------------------
 BYTE   W54
 BYTE   W01
 BYTE   W96
// 076   ----------------------------------------
 BYTE   W96
// 077   ----------------------------------------
 BYTE   W96
// 078   ----------------------------------------
 BYTE   W68
 BYTE   W02
 BYTE   W02
 BYTE   GoTo
  POIN2 Label_8_01EA776C
 BYTE   FINE

//**************** Track 10 (Midi-Chn.9) ****************//

CastlevaniaPortraitofRuinJailofaJewelRSflame_010:
// 000   ----------------------------------------
Label_9_01EA79B0:
 BYTE   KEYSH   CastlevaniaPortraitofRuinJailofaJewelRSflame_key+0
 BYTE   VOICE   48
 BYTE   VOL   15*CastlevaniaPortraitofRuinJailofaJewelRSflame_mvl/mxv
 BYTE   PAN   c_v-64
 BYTE   TEMPO   160*CastlevaniaPortraitofRuinJailofaJewelRSflame_tbs/2
 BYTE   W42
 BYTE   N10  An2  v060
 BYTE   N10  En3
 BYTE   W36
 BYTE   An2
 BYTE   N10  Ds3
 BYTE   W60
// 001   ----------------------------------------
Label_9_01EA79C5:
 BYTE   N10  An2  v060
 BYTE   N10  En3
 BYTE   W36
 BYTE   An2
 BYTE   N10  Ds3
 BYTE   W60
 BYTE   PEND 
// 002   ----------------------------------------
 BYTE   PATT
  POIN2 Label_9_01EA79C5
// 003   ----------------------------------------
 BYTE   N10  An2  v060
 BYTE   N10  En3
 BYTE   W36
 BYTE   An2
 BYTE   N10  Ds3
 BYTE   W96
// 004   ----------------------------------------
 BYTE   W18
 BYTE   PAN   c_v-24
 BYTE   N36  En5  v080
 BYTE   W36
 BYTE   N72  Ds5
 BYTE   W96
// 005   ----------------------------------------
 BYTE   W60
 BYTE   N36  En5
 BYTE   W36
// 006   ----------------------------------------
 BYTE   N72  Gn5
 BYTE   W96
// 007   ----------------------------------------
 BYTE   W96
// 008   ----------------------------------------
 BYTE   W96
// 009   ----------------------------------------
 BYTE   W96
// 010   ----------------------------------------
 BYTE   W96
// 011   ----------------------------------------
 BYTE   W96
// 012   ----------------------------------------
 BYTE   W96
// 013   ----------------------------------------
 BYTE   W96
// 014   ----------------------------------------
 BYTE   W60
Label_9_01EA79F8:
 BYTE   N05  An5  v080
 BYTE   W12
 BYTE   Bn5
 BYTE   W12
 BYTE   Cn6
 BYTE   W12
// 015   ----------------------------------------
 BYTE   N28  En6
 BYTE   W14
 BYTE   N01
 BYTE   W22
 BYTE   N05  Dn6
 BYTE   W12
 BYTE   Cn6
 BYTE   W12
 BYTE   PEND 
 BYTE   N05  Dn6  v080
 BYTE   W12
 BYTE   Cn6
 BYTE   W12
 BYTE   Dn6
 BYTE   W12
// 016   ----------------------------------------
 BYTE   N44  En6
 BYTE   W22
 BYTE   N03
 BYTE   W36
 BYTE   W02
 BYTE   N05  An5
 BYTE   W12
 BYTE   Bn5
 BYTE   W12
 BYTE   Cn6
 BYTE   W12
// 017   ----------------------------------------
 BYTE   En6
 BYTE   W24
 BYTE   En6
 BYTE   W12
 BYTE   Dn6
 BYTE   W12
 BYTE   Cn6
 BYTE   W12
Label_9_01EA7A28:
 BYTE   N05  Dn6  v080
 BYTE   W12
 BYTE   Cn6
 BYTE   W12
 BYTE   Dn6
 BYTE   W12
// 018   ----------------------------------------
 BYTE   N17  En6
 BYTE   W24
 BYTE   N05  Dn6
 BYTE   W12
 BYTE   Cn6
 BYTE   W12
 BYTE   Bn5
 BYTE   W12
 BYTE   PEND 
// 019   ----------------------------------------
 BYTE   PATT
  POIN2 Label_9_01EA79F8
// 020   ----------------------------------------
 BYTE   PATT
  POIN2 Label_9_01EA7A28
// 021   ----------------------------------------
 BYTE   N05  An5  v080
 BYTE   W12
 BYTE   Bn5
 BYTE   W12
 BYTE   Cn6
 BYTE   W12
 BYTE   Bn5
 BYTE   W24
 BYTE   N11  Gn5
 BYTE   W24
 BYTE   N17
 BYTE   W24
// 022   ----------------------------------------
 BYTE   N05  An5
 BYTE   W12
 BYTE   N64
 BYTE   W32
 BYTE   N01
 BYTE   W96
// 023   ----------------------------------------
 BYTE   W96
// 024   ----------------------------------------
 BYTE   W96
// 025   ----------------------------------------
 BYTE   W96
// 026   ----------------------------------------
 BYTE   W96
// 027   ----------------------------------------
 BYTE   W96
// 028   ----------------------------------------
 BYTE   W96
// 029   ----------------------------------------
 BYTE   W96
// 030   ----------------------------------------
 BYTE   W96
// 031   ----------------------------------------
 BYTE   W96
// 032   ----------------------------------------
 BYTE   W96
// 033   ----------------------------------------
 BYTE   W96
// 034   ----------------------------------------
 BYTE   W96
// 035   ----------------------------------------
 BYTE   W96
// 036   ----------------------------------------
 BYTE   W96
// 037   ----------------------------------------
 BYTE   W96
// 038   ----------------------------------------
 BYTE   W96
// 039   ----------------------------------------
 BYTE   W96
// 040   ----------------------------------------
 BYTE   W96
// 041   ----------------------------------------
 BYTE   W96
// 042   ----------------------------------------
 BYTE   W96
// 043   ----------------------------------------
 BYTE   W96
// 044   ----------------------------------------
 BYTE   W96
// 045   ----------------------------------------
 BYTE   W96
// 046   ----------------------------------------
 BYTE   W30
 BYTE   W09
 BYTE   N05  En5  v080
 BYTE   W12
 BYTE   Dn5
 BYTE   W12
 BYTE   Cn5
 BYTE   W12
 BYTE   N17  Dn5
 BYTE   W24
// 047   ----------------------------------------
 BYTE   N05  Cn5
 BYTE   W12
 BYTE   Bn4
 BYTE   W12
 BYTE   N17  Cn5
 BYTE   W24
 BYTE   N05  Bn4
 BYTE   W12
 BYTE   An4
 BYTE   W12
 BYTE   N11  Bn4
 BYTE   W24
// 048   ----------------------------------------
 BYTE   N05
 BYTE   W12
 BYTE   Cn5
 BYTE   W12
 BYTE   Dn5
 BYTE   W12
 BYTE   En5
 BYTE   W12
 BYTE   Dn5
 BYTE   W12
 BYTE   En5
 BYTE   W12
 BYTE   N17  Gn5
 BYTE   W24
// 049   ----------------------------------------
 BYTE   N05  Fs5
 BYTE   W12
 BYTE   Dn5
 BYTE   W12
 BYTE   N11  Fn5
 BYTE   W24
 BYTE   N05  En5
 BYTE   W12
 BYTE   Cn5
 BYTE   W12
 BYTE   N17  En5
 BYTE   W24
// 050   ----------------------------------------
 BYTE   N05  Dn5
 BYTE   W12
 BYTE   Cn5
 BYTE   W12
 BYTE   Bn4
 BYTE   W12
 BYTE   En5
 BYTE   W12
 BYTE   Dn5
 BYTE   W12
 BYTE   Cn5
 BYTE   W12
 BYTE   N17  Dn5
 BYTE   W24
// 051   ----------------------------------------
 BYTE   N05  Cn5
 BYTE   W12
 BYTE   Bn4
 BYTE   W12
 BYTE   N17  Cn5
 BYTE   W24
 BYTE   N05  Bn4
 BYTE   W12
 BYTE   An4
 BYTE   W12
 BYTE   N17  Bn4
 BYTE   W24
// 052   ----------------------------------------
 BYTE   N05
 BYTE   W12
 BYTE   Cn5
 BYTE   W12
 BYTE   Dn5
 BYTE   W12
 BYTE   En5
 BYTE   W12
 BYTE   Dn5
 BYTE   W12
 BYTE   En5
 BYTE   W12
 BYTE   N17  Gn5
 BYTE   W24
// 053   ----------------------------------------
 BYTE   N05  Fs5
 BYTE   W12
 BYTE   Dn5
 BYTE   W12
 BYTE   N11  Fs5
 BYTE   W24
 BYTE   N05  En5
 BYTE   W12
 BYTE   Dn5
 BYTE   W12
 BYTE   N56  En5
 BYTE   W28
// 054   ----------------------------------------
 BYTE   N03
 BYTE   W96
// 055   ----------------------------------------
 BYTE   W96
// 056   ----------------------------------------
 BYTE   W96
// 057   ----------------------------------------
 BYTE   W96
// 058   ----------------------------------------
 BYTE   W96
// 059   ----------------------------------------
 BYTE   W96
// 060   ----------------------------------------
 BYTE   W96
// 061   ----------------------------------------
 BYTE   W96
// 062   ----------------------------------------
 BYTE   W96
// 063   ----------------------------------------
 BYTE   W96
// 064   ----------------------------------------
 BYTE   W96
// 065   ----------------------------------------
 BYTE   W96
// 066   ----------------------------------------
 BYTE   W96
// 067   ----------------------------------------
 BYTE   W96
// 068   ----------------------------------------
 BYTE   W24
 BYTE   W12
 BYTE   W96
// 069   ----------------------------------------
 BYTE   W90
 BYTE   W01
 BYTE   N11  An5  v070
 BYTE   W12
// 070   ----------------------------------------
 BYTE   N23  En5
 BYTE   W24
 BYTE   N11  Gn5
 BYTE   W12
 BYTE   N23  Dn5
 BYTE   W24
 BYTE   N11  Fn5
 BYTE   W12
 BYTE   N23  Cn5
 BYTE   W24
// 071   ----------------------------------------
 BYTE   N11  En5
 BYTE   W12
 BYTE   N23  Bn4
 BYTE   W24
 BYTE   N05  Ds5
 BYTE   W12
 BYTE   As4
 BYTE   W12
 BYTE   Fn5
 BYTE   W12
 BYTE   As5
 BYTE   W12
 BYTE   N11  An5
 BYTE   W12
// 072   ----------------------------------------
Label_9_01EA7B26:
 BYTE   N23  En5  v070
 BYTE   W24
 BYTE   N11  Gn5
 BYTE   W12
 BYTE   N23  Dn5
 BYTE   W24
 BYTE   N11  Fn5
 BYTE   W12
 BYTE   N23  Cn5
 BYTE   W24
 BYTE   PEND 
// 073   ----------------------------------------
 BYTE   N11  Cn6  v070
 BYTE   W12
 BYTE   N23  Gn5
 BYTE   W24
 BYTE   N05  Ds6
 BYTE   W12
 BYTE   As5
 BYTE   W12
 BYTE   Fn5
 BYTE   W12
 BYTE   As4
 BYTE   W12
 BYTE   N11  An5
 BYTE   W12
// 074   ----------------------------------------
 BYTE   PATT
  POIN2 Label_9_01EA7B26
// 075   ----------------------------------------
 BYTE   N11  En5  v070
 BYTE   W12
 BYTE   N23  Bn4
 BYTE   W24
 BYTE   N05  Dn5
 BYTE   W12
 BYTE   Fn4
 BYTE   W12
 BYTE   As4
 BYTE   W12
 BYTE   Ds5
 BYTE   W12
 BYTE   N11  Gs5
 BYTE   W12
// 076   ----------------------------------------
 BYTE   N23  Ds5
 BYTE   W24
 BYTE   N11  Cn6
 BYTE   W12
 BYTE   N23  Gs5
 BYTE   W24
 BYTE   N05  Bn5
 BYTE   W12
 BYTE   En5
 BYTE   W12
 BYTE   Fn5
 BYTE   W12
// 077   ----------------------------------------
 BYTE   As5
 BYTE   W12
 BYTE   Ds6
 BYTE   W12
 BYTE   Fs5
 BYTE   W12
 BYTE   Bn5
 BYTE   W12
 BYTE   En6
 BYTE   W12
 BYTE   Gn6
 BYTE   W12
 BYTE   An5
 BYTE   W12
 BYTE   Cn6
 BYTE   W12
// 078   ----------------------------------------
 BYTE   Fs6
 BYTE   W12
 BYTE   Dn6
 BYTE   W12
 BYTE   Gs6
 BYTE   W12
 BYTE   N23  An6
 BYTE   W11
 BYTE   W12
 BYTE   PAN   c_v-64
 BYTE   W18
 BYTE   N10  Cn3  v060
 BYTE   N10  En3
 BYTE   W36
// 079   ----------------------------------------
 BYTE   Ds3
 BYTE   N10  Fs3
 BYTE   W60
 BYTE   En3
 BYTE   N10  Gn3
 BYTE   W36
// 080   ----------------------------------------
 BYTE   Fs3
 BYTE   N10  An3
 BYTE   W60
 BYTE   Cn3
 BYTE   N10  En3
 BYTE   W36
// 081   ----------------------------------------
 BYTE   Ds3
 BYTE   N10  Fs3
 BYTE   W60
 BYTE   En3
 BYTE   N10  Gn3
 BYTE   W36
// 082   ----------------------------------------
 BYTE   Fs3
 BYTE   N10  An3
 BYTE   W04
 BYTE   W02
 BYTE   GoTo
  POIN2 Label_9_01EA79B0
 BYTE   FINE

//******************************************************//
	ALIGN 4

CastlevaniaPortraitofRuinJailofaJewelRSflame:
	BYTE	10	// NumTrks
	BYTE	0	// NumBlks
	BYTE	CastlevaniaPortraitofRuinJailofaJewelRSflame_pri	// Priority
	BYTE	CastlevaniaPortraitofRuinJailofaJewelRSflame_rev	// Reverb.
    
	POIN2	CastlevaniaPortraitofRuinJailofaJewelRSflame_grp
    
	POIN2	CastlevaniaPortraitofRuinJailofaJewelRSflame_001
	POIN2	CastlevaniaPortraitofRuinJailofaJewelRSflame_002
	POIN2	CastlevaniaPortraitofRuinJailofaJewelRSflame_003
	POIN2	CastlevaniaPortraitofRuinJailofaJewelRSflame_004
	POIN2	CastlevaniaPortraitofRuinJailofaJewelRSflame_005
	POIN2	CastlevaniaPortraitofRuinJailofaJewelRSflame_006
	POIN2	CastlevaniaPortraitofRuinJailofaJewelRSflame_007
	POIN2	CastlevaniaPortraitofRuinJailofaJewelRSflame_008
	POIN2	CastlevaniaPortraitofRuinJailofaJewelRSflame_009
	POIN2	CastlevaniaPortraitofRuinJailofaJewelRSflame_010

	
