//Event file generated from Sappy .s format.
	#include "MPlayDef.event"

	#define	CastlevaniaSymphonyoftheNightDraculasCastle_grp  voicegroup000
	#define	CastlevaniaSymphonyoftheNightDraculasCastle_pri  0
	#define	CastlevaniaSymphonyoftheNightDraculasCastle_rev  0
	#define	CastlevaniaSymphonyoftheNightDraculasCastle_mvl  127
	#define	CastlevaniaSymphonyoftheNightDraculasCastle_key  0
	#define	CastlevaniaSymphonyoftheNightDraculasCastle_tbs  1
	#define	CastlevaniaSymphonyoftheNightDraculasCastle_exg  0
	#define	CastlevaniaSymphonyoftheNightDraculasCastle_cmp  1

	// .rodata
	//	CastlevaniaSymphonyoftheNightDraculasCastle
	ALIGN 4


//**************** Track 1 (Midi-Chn.0) ****************//

CastlevaniaSymphonyoftheNightDraculasCastle_001:
//  #01 //000   ----------------------------------------
 BYTE   KEYSH   CastlevaniaSymphonyoftheNightDraculasCastle_key+0
 BYTE   TEMPO   136*CastlevaniaSymphonyoftheNightDraculasCastle_tbs/2
 BYTE   VOICE   33
 BYTE   MODT 0
 BYTE   LFOS 44
 BYTE   VOL   80*CastlevaniaSymphonyoftheNightDraculasCastle_mvl/mxv
 BYTE   PAN   c_v+0
 BYTE   VOL   61*CastlevaniaSymphonyoftheNightDraculasCastle_mvl/mxv
 BYTE   MOD 0
 BYTE   TIE  Bn1  v072
 BYTE   W96
//  #01 //001   ----------------------------------------
 BYTE   W92
 BYTE   W03
 BYTE   EOT
 BYTE   W01
//  #01 //002   ----------------------------------------
 BYTE   TIE  Gn1
 BYTE   W96
//  #01 //003   ----------------------------------------
 BYTE   W92
 BYTE   W03
 BYTE   EOT
 BYTE   W01
//  #01 //004   ----------------------------------------
 BYTE   TIE  Bn1
 BYTE   W96
//  #01 //005   ----------------------------------------
 BYTE   W92
 BYTE   W03
 BYTE   EOT
 BYTE   W01
//  #01 //006   ----------------------------------------
 BYTE   TIE  Cn2
 BYTE   W96
//  #01 //007   ----------------------------------------
 BYTE   W92
 BYTE   W03
 BYTE   EOT
 BYTE   W01
//  #01 //008   ----------------------------------------
Label_01307BFF:
 BYTE   N11  Dn1  v088
 BYTE   W12
 BYTE   N01  Dn1  v048
 BYTE   W12
 BYTE   N11  Dn2  v100
 BYTE   W12
 BYTE   Gs1  v088
 BYTE   W12
 BYTE   N01  Dn1  v072
 BYTE   W12
 BYTE   N11  Dn1  v088
 BYTE   W12
 BYTE   N09  Dn1  v060
 BYTE   W12
 BYTE   Dn1  v088
 BYTE   W12
 BYTE   PEND 
//  #01 //009   ----------------------------------------
 BYTE   PATT
  POIN2 Label_01307BFF
//  #01 //010   ----------------------------------------
 BYTE   PATT
  POIN2 Label_01307BFF
//  #01 //011   ----------------------------------------
 BYTE   PATT
  POIN2 Label_01307BFF
//  #01 //012   ----------------------------------------
Label_01307C2D:
 BYTE   N11  Gn0  v100
 BYTE   W24
 BYTE   N20  Gn0  v088
 BYTE   W24
 BYTE   N01  Gn0  v036
 BYTE   W12
 BYTE   N22  Gn0  v088
 BYTE   W24
 BYTE   N04  Gn0  v100
 BYTE   W12
 BYTE   PEND 
//  #01 //013   ----------------------------------------
Label_01307C42:
 BYTE   N11  Gn0  v100
 BYTE   W24
 BYTE   N20  Gn0  v088
 BYTE   W24
 BYTE   N01  Gn0  v048
 BYTE   W12
 BYTE   N09  Gn0  v100
 BYTE   W12
 BYTE   N08  Gn0  v072
 BYTE   W12
 BYTE   N09  Gn0  v088
 BYTE   W12
 BYTE   PEND 
//  #01 //014   ----------------------------------------
Label_01307C5B:
 BYTE   N11  Ds0  v100
 BYTE   W24
 BYTE   Ds0  v088
 BYTE   W24
 BYTE   Fn0  v100
 BYTE   W24
 BYTE   Fn0  v088
 BYTE   W24
 BYTE   PEND 
//  #01 //015   ----------------------------------------
Label_01307C69:
 BYTE   N11  Gn0  v100
 BYTE   W24
 BYTE   N20  Gn0  v088
 BYTE   W24
 BYTE   N01  Gn0  v036
 BYTE   W12
 BYTE   N09  Dn0  v100
 BYTE   W12
 BYTE   N06  Dn0  v072
 BYTE   W12
 BYTE   N09  Dn0  v088
 BYTE   W12
 BYTE   PEND 
//  #01 //016   ----------------------------------------
 BYTE   PATT
  POIN2 Label_01307C2D
//  #01 //017   ----------------------------------------
 BYTE   PATT
  POIN2 Label_01307C42
//  #01 //018   ----------------------------------------
 BYTE   PATT
  POIN2 Label_01307C5B
//  #01 //019   ----------------------------------------
 BYTE   PATT
  POIN2 Label_01307C69
//  #01 //020   ----------------------------------------
Label_01307C96:
 BYTE   N11  Ds0  v100
 BYTE   W24
 BYTE   N20  Ds0  v088
 BYTE   W24
 BYTE   N01  Ds0  v048
 BYTE   W12
 BYTE   N09  Ds0  v100
 BYTE   W12
 BYTE   Ds0  v072
 BYTE   W12
 BYTE   Ds0  v088
 BYTE   W12
 BYTE   PEND 
//  #01 //021   ----------------------------------------
Label_01307CAD:
 BYTE   N09  Dn0  v100
 BYTE   W24
 BYTE   N20  Dn0  v088
 BYTE   W24
 BYTE   N09  Gn0  v100
 BYTE   W24
 BYTE   N20  Gn0  v088
 BYTE   W24
 BYTE   PEND 
//  #01 //022   ----------------------------------------
Label_01307CBE:
 BYTE   N11  Cn0  v100
 BYTE   W24
 BYTE   N22  Cn0  v088
 BYTE   W24
 BYTE   N11  Dn0  v100
 BYTE   W12
 BYTE   N09  Dn0  v072
 BYTE   W12
 BYTE   N22  Dn0  v088
 BYTE   W24
 BYTE   PEND 
//  #01 //023   ----------------------------------------
Label_01307CD3:
 BYTE   N11  Gn0  v100
 BYTE   W24
 BYTE   N20  Gn0  v088
 BYTE   W24
 BYTE   N01  Gn0  v036
 BYTE   W12
 BYTE   N09  Gn0  v100
 BYTE   W12
 BYTE   Gn0  v072
 BYTE   W12
 BYTE   Gn0  v088
 BYTE   W12
 BYTE   PEND 
//  #01 //024   ----------------------------------------
Label_01307CEA:
 BYTE   N11  Ds0  v100
 BYTE   W24
 BYTE   N20  Ds0  v088
 BYTE   W24
 BYTE   N01  Dn0  v048
 BYTE   W12
 BYTE   N09  Dn0  v100
 BYTE   W12
 BYTE   Dn0  v072
 BYTE   W12
 BYTE   Dn0  v088
 BYTE   W12
 BYTE   PEND 
//  #01 //025   ----------------------------------------
Label_01307D01:
 BYTE   N11  Gn0  v100
 BYTE   W24
 BYTE   N20  Gn0  v088
 BYTE   W24
 BYTE   N01  Fn0  v048
 BYTE   W12
 BYTE   N09  Fn0  v100
 BYTE   W12
 BYTE   Fn0  v072
 BYTE   W12
 BYTE   Fn0  v088
 BYTE   W12
 BYTE   PEND 
//  #01 //026   ----------------------------------------
Label_01307D18:
 BYTE   N11  En0  v100
 BYTE   W24
 BYTE   N20  En0  v088
 BYTE   W24
 BYTE   N11  An0  v092
 BYTE   W24
 BYTE   N20  An0  v088
 BYTE   W24
 BYTE   PEND 
//  #01 //027   ----------------------------------------
Label_01307D29:
 BYTE   N11  Dn0  v100
 BYTE   W24
 BYTE   N22  Dn0  v088
 BYTE   W24
 BYTE   N01  Dn0  v048
 BYTE   W12
 BYTE   N11  Dn1  v100
 BYTE   W12
 BYTE   N08  Dn1  v072
 BYTE   W12
 BYTE   N09  Dn1  v088
 BYTE   W12
 BYTE   PEND 
//  #01 //028   ----------------------------------------
Label_01307D42:
 BYTE   N11  Dn0  v100
 BYTE   W24
 BYTE   N22  Dn0  v088
 BYTE   W24
 BYTE   N01  Dn0  v048
 BYTE   W12
 BYTE   N11  Dn1  v088
 BYTE   W12
 BYTE   N09  An0  v100
 BYTE   W12
 BYTE   Dn0  v088
 BYTE   W12
 BYTE   PEND 
//  #01 //029   ----------------------------------------
Label_01307D5A:
 BYTE   N11  Gn0  v100
 BYTE   W12
 BYTE   Gn0  v072
 BYTE   W12
 BYTE   Dn1  v100
 BYTE   W12
 BYTE   Gn0  v088
 BYTE   W12
 BYTE   N09  Gn0  v072
 BYTE   W12
 BYTE   N11  Gn0  v100
 BYTE   W12
 BYTE   N09  Gn0  v088
 BYTE   W12
 BYTE   N11  Gn0  v072
 BYTE   W12
 BYTE   PEND 
//  #01 //030   ----------------------------------------
Label_01307D78:
 BYTE   N11  Fn0  v100
 BYTE   W12
 BYTE   Fn0  v072
 BYTE   W12
 BYTE   Cn1  v088
 BYTE   W12
 BYTE   Fn0  v072
 BYTE   W12
 BYTE   Fn0  v100
 BYTE   W12
 BYTE   N09  Fn0  v072
 BYTE   W12
 BYTE   N11  Fn1  v088
 BYTE   W12
 BYTE   Fn0  v072
 BYTE   W12
 BYTE   PEND 
//  #01 //031   ----------------------------------------
Label_01307D94:
 BYTE   N09  Ds0  v088
 BYTE   W12
 BYTE   N11  Ds0  v100
 BYTE   W12
 BYTE   Ds0  v072
 BYTE   W12
 BYTE   N09  Ds0  v088
 BYTE   W12
 BYTE   N11  Ds0  v100
 BYTE   W12
 BYTE   Ds0  v072
 BYTE   W12
 BYTE   Gn0  v088
 BYTE   W12
 BYTE   As0  v072
 BYTE   W12
 BYTE   PEND 
//  #01 //032   ----------------------------------------
Label_01307DB1:
 BYTE   N11  Dn0  v100
 BYTE   W12
 BYTE   Dn0  v072
 BYTE   W12
 BYTE   Fs0  v088
 BYTE   W12
 BYTE   Dn0  v072
 BYTE   W12
 BYTE   An0  v100
 BYTE   W12
 BYTE   Dn0  v072
 BYTE   W12
 BYTE   Fs0  v088
 BYTE   W12
 BYTE   Dn0  v072
 BYTE   W12
 BYTE   PEND 
//  #01 //033   ----------------------------------------
Label_01307DCB:
 BYTE   N11  Gn0  v100
 BYTE   W12
 BYTE   Gn0  v088
 BYTE   W12
 BYTE   N08  Gn0  v060
 BYTE   W12
 BYTE   N09  Gn0  v072
 BYTE   W12
 BYTE   N11  Gn0  v100
 BYTE   W12
 BYTE   Gn0  v072
 BYTE   W12
 BYTE   Gn0  v100
 BYTE   W12
 BYTE   Gn0  v072
 BYTE   W12
 BYTE   PEND 
//  #01 //034   ----------------------------------------
Label_01307DE8:
 BYTE   N11  Fn0  v100
 BYTE   W12
 BYTE   Fn0  v072
 BYTE   W12
 BYTE   Cn1  v088
 BYTE   W12
 BYTE   Fn0  v072
 BYTE   W12
 BYTE   Fn0  v100
 BYTE   W12
 BYTE   N09  Fn0  v072
 BYTE   W12
 BYTE   N11  Fn0  v100
 BYTE   W12
 BYTE   Fn0  v072
 BYTE   W12
 BYTE   PEND 
//  #01 //035   ----------------------------------------
Label_01307E04:
 BYTE   N11  Cn0  v100
 BYTE   W12
 BYTE   Cn0  v072
 BYTE   W12
 BYTE   Cn0  v060
 BYTE   W12
 BYTE   Cn0  v048
 BYTE   W12
 BYTE   Cn0  v100
 BYTE   W12
 BYTE   N09  Cn0  v072
 BYTE   W12
 BYTE   N11  Cn0  v088
 BYTE   W12
 BYTE   Cn0  v072
 BYTE   W12
 BYTE   PEND 
//  #01 //036   ----------------------------------------
Label_01307E20:
 BYTE   N11  Dn0  v100
 BYTE   W12
 BYTE   Dn0  v088
 BYTE   W12
 BYTE   Dn0  v072
 BYTE   W12
 BYTE   Dn0  v060
 BYTE   W12
 BYTE   Dn0  v100
 BYTE   W12
 BYTE   Dn0  v088
 BYTE   W12
 BYTE   Dn0  v072
 BYTE   W12
 BYTE   Dn0  v060
 BYTE   W12
 BYTE   PEND 
//  #01 //037   ----------------------------------------
Label_01307E3A:
 BYTE   N11  Ds0  v100
 BYTE   W12
 BYTE   Ds0  v072
 BYTE   W12
 BYTE   Ds0  v088
 BYTE   W12
 BYTE   N09  Ds0  v072
 BYTE   W12
 BYTE   N11  Fn0  v100
 BYTE   W12
 BYTE   Fn0  v072
 BYTE   W12
 BYTE   Fn0  v088
 BYTE   W12
 BYTE   N09  Fn0  v072
 BYTE   W12
 BYTE   PEND 
//  #01 //038   ----------------------------------------
Label_01307E57:
 BYTE   N11  Gn0  v100
 BYTE   W12
 BYTE   Gn0  v072
 BYTE   W12
 BYTE   Gn0  v088
 BYTE   W12
 BYTE   N10  Gn0  v072
 BYTE   W12
 BYTE   N11  Gn0  v100
 BYTE   W12
 BYTE   Gn0  v072
 BYTE   W12
 BYTE   Gn0  v088
 BYTE   W12
 BYTE   N09  Gn0  v072
 BYTE   W12
 BYTE   PEND 
//  #01 //039   ----------------------------------------
 BYTE   PATT
  POIN2 Label_01307E3A
//  #01 //040   ----------------------------------------
 BYTE   PATT
  POIN2 Label_01307E57
//  #01 //041   ----------------------------------------
Label_01307E7E:
 BYTE   N11  Fs0  v100
 BYTE   W12
 BYTE   Fs0  v072
 BYTE   W12
 BYTE   Fs0  v088
 BYTE   W12
 BYTE   N09  Fs0  v072
 BYTE   W12
 BYTE   N11  Gs0  v100
 BYTE   W12
 BYTE   Gs0  v072
 BYTE   W12
 BYTE   Gs0  v088
 BYTE   W12
 BYTE   N09  Gs0  v072
 BYTE   W12
 BYTE   PEND 
//  #01 //042   ----------------------------------------
Label_01307E9B:
 BYTE   N11  Ds0  v100
 BYTE   W12
 BYTE   Ds0  v072
 BYTE   W12
 BYTE   Ds0  v088
 BYTE   W12
 BYTE   Ds0  v072
 BYTE   W12
 BYTE   Fn0  v100
 BYTE   W12
 BYTE   N09  Fn0  v072
 BYTE   W12
 BYTE   N10  Cn1  v088
 BYTE   W12
 BYTE   N09  Fn0  v072
 BYTE   W12
 BYTE   PEND 
//  #01 //043   ----------------------------------------
Label_01307EB8:
 BYTE   N11  Fs0  v100
 BYTE   W12
 BYTE   Fs0  v072
 BYTE   W12
 BYTE   As0  v088
 BYTE   W12
 BYTE   Fs0  v072
 BYTE   W12
 BYTE   Fs0  v048
 BYTE   W12
 BYTE   Fs0  v088
 BYTE   W12
 BYTE   Fs0  v072
 BYTE   W12
 BYTE   N09  Fs0  v100
 BYTE   W12
 BYTE   PEND 
//  #01 //044   ----------------------------------------
Label_01307ED3:
 BYTE   N11  Gs0  v100
 BYTE   W12
 BYTE   Gs0  v072
 BYTE   W12
 BYTE   Gs0  v088
 BYTE   W12
 BYTE   Gs0  v072
 BYTE   W12
 BYTE   Gs0  v100
 BYTE   W12
 BYTE   Gs0  v072
 BYTE   W12
 BYTE   Gs0  v088
 BYTE   W12
 BYTE   Gs0  v072
 BYTE   W12
 BYTE   PEND 
//  #01 //045   ----------------------------------------
Label_01307EED:
 BYTE   N11  As0  v100
 BYTE   W12
 BYTE   N09  As0  v060
 BYTE   W12
 BYTE   N10  As0  v072
 BYTE   W12
 BYTE   N11  As0  v088
 BYTE   W12
 BYTE   As0  v100
 BYTE   W12
 BYTE   As0  v116
 BYTE   W12
 BYTE   As0  v100
 BYTE   W12
 BYTE   As0  v088
 BYTE   W12
 BYTE   PEND 
//  #01 //046   ----------------------------------------
Label_01307F0A:
 BYTE   N11  As0  v072
 BYTE   W12
 BYTE   As0  v088
 BYTE   W12
 BYTE   As0  v100
 BYTE   W12
 BYTE   As0  v116
 BYTE   W12
 BYTE   N05  As0  v072
 BYTE   W06
 BYTE   As0  v088
 BYTE   W06
 BYTE   N11  As0  v100
 BYTE   W12
 BYTE   N05  As0  v072
 BYTE   W06
 BYTE   As0  v088
 BYTE   W06
 BYTE   N09  As0  v100
 BYTE   W12
 BYTE   PEND 
//  #01 //047   ----------------------------------------
 BYTE   W96
//  #01 //048   ----------------------------------------
 BYTE   W96
//  #01 //049   ----------------------------------------
 BYTE   W96
//  #01 //050   ----------------------------------------
 BYTE   W96
//  #01 //051   ----------------------------------------
 BYTE   W24
 BYTE   N68  As0  v116
 BYTE   W72
//  #01 //052   ----------------------------------------
Label_01307F37:
 BYTE   N11  Gs0  v100
 BYTE   W12
 BYTE   N01  Gs0  v048
 BYTE   W12
 BYTE   N08  Gs0  v100
 BYTE   W72
 BYTE   PEND 
//  #01 //053   ----------------------------------------
 BYTE   W24
 BYTE   N68  Fs0  v116
 BYTE   W72
//  #01 //054   ----------------------------------------
Label_01307F49:
 BYTE   N44  Ds0  v100
 BYTE   W48
 BYTE   N11  Fn0
 BYTE   W12
 BYTE   N01  Fn0  v048
 BYTE   W12
 BYTE   N11  Fn0  v088
 BYTE   W12
 BYTE   N01  Fn0  v048
 BYTE   W12
 BYTE   PEND 
//  #01 //055   ----------------------------------------
Label_01307F5D:
 BYTE   N05  Fn0  v100
 BYTE   W06
 BYTE   N04  Fn0  v088
 BYTE   W18
 BYTE   N05  Fs0  v100
 BYTE   W06
 BYTE   N04  Fs0  v088
 BYTE   W30
 BYTE   As0  v116
 BYTE   W18
 BYTE   An0  v100
 BYTE   W18
 BYTE   PEND 
//  #01 //056   ----------------------------------------
Label_01307F74:
 BYTE   N05  Fn0  v100
 BYTE   W06
 BYTE   N04  Fn0  v088
 BYTE   W18
 BYTE   N05  Fs0  v100
 BYTE   W06
 BYTE   N04  Fs0  v088
 BYTE   W30
 BYTE   Ds0  v116
 BYTE   W18
 BYTE   Cn0  v100
 BYTE   W18
 BYTE   PEND 
//  #01 //057   ----------------------------------------
 BYTE   PATT
  POIN2 Label_01307F5D
//  #01 //058   ----------------------------------------
 BYTE   N09  Fn0  v116
 BYTE   W96
//  #01 //059   ----------------------------------------
 BYTE   GoTo
  POIN2 Label_01307C2D
//  #01 //060   ----------------------------------------
 BYTE   PATT
  POIN2 Label_01307C2D
//  #01 //061   ----------------------------------------
 BYTE   PATT
  POIN2 Label_01307C42
//  #01 //062   ----------------------------------------
 BYTE   PATT
  POIN2 Label_01307C5B
//  #01 //063   ----------------------------------------
 BYTE   PATT
  POIN2 Label_01307C69
//  #01 //064   ----------------------------------------
 BYTE   PATT
  POIN2 Label_01307C2D
//  #01 //065   ----------------------------------------
 BYTE   PATT
  POIN2 Label_01307C42
//  #01 //066   ----------------------------------------
 BYTE   PATT
  POIN2 Label_01307C5B
//  #01 //067   ----------------------------------------
 BYTE   PATT
  POIN2 Label_01307C69
//  #01 //068   ----------------------------------------
 BYTE   PATT
  POIN2 Label_01307C96
//  #01 //069   ----------------------------------------
 BYTE   PATT
  POIN2 Label_01307CAD
//  #01 //070   ----------------------------------------
 BYTE   PATT
  POIN2 Label_01307CBE
//  #01 //071   ----------------------------------------
 BYTE   PATT
  POIN2 Label_01307CD3
//  #01 //072   ----------------------------------------
 BYTE   PATT
  POIN2 Label_01307CEA
//  #01 //073   ----------------------------------------
 BYTE   PATT
  POIN2 Label_01307D01
//  #01 //074   ----------------------------------------
 BYTE   PATT
  POIN2 Label_01307D18
//  #01 //075   ----------------------------------------
 BYTE   PATT
  POIN2 Label_01307D29
//  #01 //076   ----------------------------------------
 BYTE   PATT
  POIN2 Label_01307D42
//  #01 //077   ----------------------------------------
 BYTE   PATT
  POIN2 Label_01307D5A
//  #01 //078   ----------------------------------------
 BYTE   PATT
  POIN2 Label_01307D78
//  #01 //079   ----------------------------------------
 BYTE   PATT
  POIN2 Label_01307D94
//  #01 //080   ----------------------------------------
 BYTE   PATT
  POIN2 Label_01307DB1
//  #01 //081   ----------------------------------------
 BYTE   PATT
  POIN2 Label_01307DCB
//  #01 //082   ----------------------------------------
 BYTE   PATT
  POIN2 Label_01307DE8
//  #01 //083   ----------------------------------------
 BYTE   PATT
  POIN2 Label_01307E04
//  #01 //084   ----------------------------------------
 BYTE   PATT
  POIN2 Label_01307E20
//  #01 //085   ----------------------------------------
 BYTE   PATT
  POIN2 Label_01307E3A
//  #01 //086   ----------------------------------------
 BYTE   PATT
  POIN2 Label_01307E57
//  #01 //087   ----------------------------------------
 BYTE   PATT
  POIN2 Label_01307E3A
//  #01 //088   ----------------------------------------
 BYTE   PATT
  POIN2 Label_01307E57
//  #01 //089   ----------------------------------------
 BYTE   PATT
  POIN2 Label_01307E7E
//  #01 //090   ----------------------------------------
 BYTE   PATT
  POIN2 Label_01307E9B
//  #01 //091   ----------------------------------------
 BYTE   PATT
  POIN2 Label_01307EB8
//  #01 //092   ----------------------------------------
 BYTE   PATT
  POIN2 Label_01307ED3
//  #01 //093   ----------------------------------------
 BYTE   PATT
  POIN2 Label_01307EED
//  #01 //094   ----------------------------------------
 BYTE   PATT
  POIN2 Label_01307F0A
//  #01 //095   ----------------------------------------
 BYTE   W96
//  #01 //096   ----------------------------------------
 BYTE   W96
//  #01 //097   ----------------------------------------
 BYTE   W96
//  #01 //098   ----------------------------------------
 BYTE   W96
//  #01 //099   ----------------------------------------
 BYTE   W24
 BYTE   N68  As0  v116
 BYTE   W72
//  #01 //100   ----------------------------------------
 BYTE   PATT
  POIN2 Label_01307F37
//  #01 //101   ----------------------------------------
 BYTE   W24
 BYTE   N68  Fs0  v116
 BYTE   W72
//  #01 //102   ----------------------------------------
 BYTE   PATT
  POIN2 Label_01307F49
//  #01 //103   ----------------------------------------
 BYTE   PATT
  POIN2 Label_01307F5D
//  #01 //104   ----------------------------------------
 BYTE   PATT
  POIN2 Label_01307F74
//  #01 //105   ----------------------------------------
 BYTE   PATT
  POIN2 Label_01307F5D
//  #01 //106   ----------------------------------------
 BYTE   N09  Fn0  v116
 BYTE   W09
 BYTE   FINE

//**************** Track 2 (Midi-Chn.1) ****************//

CastlevaniaSymphonyoftheNightDraculasCastle_002:
//  #02 //000   ----------------------------------------
 BYTE   KEYSH   CastlevaniaSymphonyoftheNightDraculasCastle_key+0
 BYTE   VOICE   48
 BYTE   MODT 0
 BYTE   LFOS 44
 BYTE   VOL   56*CastlevaniaSymphonyoftheNightDraculasCastle_mvl/mxv
 BYTE   PAN   c_v+6
 BYTE   VOL   32*CastlevaniaSymphonyoftheNightDraculasCastle_mvl/mxv
 BYTE   MOD 0
 BYTE   VOL   31*CastlevaniaSymphonyoftheNightDraculasCastle_mvl/mxv
 BYTE   W01
 BYTE   VOL   31*CastlevaniaSymphonyoftheNightDraculasCastle_mvl/mxv
 BYTE   W01
 BYTE   VOL   30*CastlevaniaSymphonyoftheNightDraculasCastle_mvl/mxv
 BYTE   W01
 BYTE   VOL   29*CastlevaniaSymphonyoftheNightDraculasCastle_mvl/mxv
 BYTE   W01
 BYTE   VOL   29*CastlevaniaSymphonyoftheNightDraculasCastle_mvl/mxv
 BYTE   W01
 BYTE   VOL   28*CastlevaniaSymphonyoftheNightDraculasCastle_mvl/mxv
 BYTE   W01
 BYTE   VOL   28*CastlevaniaSymphonyoftheNightDraculasCastle_mvl/mxv
 BYTE   W01
 BYTE   VOL   27*CastlevaniaSymphonyoftheNightDraculasCastle_mvl/mxv
 BYTE   W01
 BYTE   VOL   26*CastlevaniaSymphonyoftheNightDraculasCastle_mvl/mxv
 BYTE   W01
 BYTE   VOL   26*CastlevaniaSymphonyoftheNightDraculasCastle_mvl/mxv
 BYTE   W01
 BYTE   VOL   25*CastlevaniaSymphonyoftheNightDraculasCastle_mvl/mxv
 BYTE   W01
 BYTE   VOL   24*CastlevaniaSymphonyoftheNightDraculasCastle_mvl/mxv
 BYTE   W01
 BYTE   VOL   23*CastlevaniaSymphonyoftheNightDraculasCastle_mvl/mxv
 BYTE   W01
 BYTE   VOL   22*CastlevaniaSymphonyoftheNightDraculasCastle_mvl/mxv
 BYTE   W01
 BYTE   VOL   22*CastlevaniaSymphonyoftheNightDraculasCastle_mvl/mxv
 BYTE   W01
 BYTE   VOL   22*CastlevaniaSymphonyoftheNightDraculasCastle_mvl/mxv
 BYTE   W01
 BYTE   VOL   20*CastlevaniaSymphonyoftheNightDraculasCastle_mvl/mxv
 BYTE   W01
 BYTE   VOL   20*CastlevaniaSymphonyoftheNightDraculasCastle_mvl/mxv
 BYTE   W01
 BYTE   VOL   20*CastlevaniaSymphonyoftheNightDraculasCastle_mvl/mxv
 BYTE   W01
 BYTE   VOL   19*CastlevaniaSymphonyoftheNightDraculasCastle_mvl/mxv
 BYTE   W01
 BYTE   VOL   19*CastlevaniaSymphonyoftheNightDraculasCastle_mvl/mxv
 BYTE   W01
 BYTE   VOL   18*CastlevaniaSymphonyoftheNightDraculasCastle_mvl/mxv
 BYTE   W01
 BYTE   VOL   18*CastlevaniaSymphonyoftheNightDraculasCastle_mvl/mxv
 BYTE   W01
 BYTE   VOL   17*CastlevaniaSymphonyoftheNightDraculasCastle_mvl/mxv
 BYTE   W03
 BYTE   VOL   18*CastlevaniaSymphonyoftheNightDraculasCastle_mvl/mxv
 BYTE   W03
 BYTE   VOL   18*CastlevaniaSymphonyoftheNightDraculasCastle_mvl/mxv
 BYTE   W03
 BYTE   VOL   18*CastlevaniaSymphonyoftheNightDraculasCastle_mvl/mxv
 BYTE   W03
 BYTE   VOL   19*CastlevaniaSymphonyoftheNightDraculasCastle_mvl/mxv
 BYTE   W03
 BYTE   VOL   19*CastlevaniaSymphonyoftheNightDraculasCastle_mvl/mxv
 BYTE   W03
 BYTE   VOL   19*CastlevaniaSymphonyoftheNightDraculasCastle_mvl/mxv
 BYTE   W03
 BYTE   VOL   20*CastlevaniaSymphonyoftheNightDraculasCastle_mvl/mxv
 BYTE   W03
 BYTE   VOL   20*CastlevaniaSymphonyoftheNightDraculasCastle_mvl/mxv
 BYTE   W03
 BYTE   VOL   20*CastlevaniaSymphonyoftheNightDraculasCastle_mvl/mxv
 BYTE   W03
 BYTE   VOL   21*CastlevaniaSymphonyoftheNightDraculasCastle_mvl/mxv
 BYTE   W03
 BYTE   VOL   22*CastlevaniaSymphonyoftheNightDraculasCastle_mvl/mxv
 BYTE   W03
 BYTE   VOL   22*CastlevaniaSymphonyoftheNightDraculasCastle_mvl/mxv
 BYTE   W03
 BYTE   VOL   22*CastlevaniaSymphonyoftheNightDraculasCastle_mvl/mxv
 BYTE   W03
 BYTE   VOL   23*CastlevaniaSymphonyoftheNightDraculasCastle_mvl/mxv
 BYTE   W03
 BYTE   VOL   23*CastlevaniaSymphonyoftheNightDraculasCastle_mvl/mxv
 BYTE   W03
 BYTE   VOL   24*CastlevaniaSymphonyoftheNightDraculasCastle_mvl/mxv
 BYTE   W03
 BYTE   VOL   24*CastlevaniaSymphonyoftheNightDraculasCastle_mvl/mxv
 BYTE   W03
 BYTE   VOL   25*CastlevaniaSymphonyoftheNightDraculasCastle_mvl/mxv
 BYTE   W03
 BYTE   VOL   26*CastlevaniaSymphonyoftheNightDraculasCastle_mvl/mxv
 BYTE   W03
 BYTE   VOL   26*CastlevaniaSymphonyoftheNightDraculasCastle_mvl/mxv
 BYTE   W03
 BYTE   VOL   27*CastlevaniaSymphonyoftheNightDraculasCastle_mvl/mxv
 BYTE   W03
 BYTE   VOL   27*CastlevaniaSymphonyoftheNightDraculasCastle_mvl/mxv
 BYTE   W03
 BYTE   VOL   28*CastlevaniaSymphonyoftheNightDraculasCastle_mvl/mxv
 BYTE   W03
 BYTE   VOL   28*CastlevaniaSymphonyoftheNightDraculasCastle_mvl/mxv
 BYTE   W01
//  #02 //001   ----------------------------------------
 BYTE   W02
 BYTE   VOL   28*CastlevaniaSymphonyoftheNightDraculasCastle_mvl/mxv
 BYTE   W03
 BYTE   VOL   29*CastlevaniaSymphonyoftheNightDraculasCastle_mvl/mxv
 BYTE   W03
 BYTE   VOL   29*CastlevaniaSymphonyoftheNightDraculasCastle_mvl/mxv
 BYTE   W03
 BYTE   VOL   30*CastlevaniaSymphonyoftheNightDraculasCastle_mvl/mxv
 BYTE   W03
 BYTE   VOL   30*CastlevaniaSymphonyoftheNightDraculasCastle_mvl/mxv
 BYTE   W03
 BYTE   VOL   31*CastlevaniaSymphonyoftheNightDraculasCastle_mvl/mxv
 BYTE   W03
 BYTE   VOL   31*CastlevaniaSymphonyoftheNightDraculasCastle_mvl/mxv
 BYTE   W03
 BYTE   VOL   32*CastlevaniaSymphonyoftheNightDraculasCastle_mvl/mxv
 BYTE   W03
 BYTE   VOL   33*CastlevaniaSymphonyoftheNightDraculasCastle_mvl/mxv
 BYTE   W03
 BYTE   VOL   34*CastlevaniaSymphonyoftheNightDraculasCastle_mvl/mxv
 BYTE   W03
 BYTE   VOL   34*CastlevaniaSymphonyoftheNightDraculasCastle_mvl/mxv
 BYTE   W03
 BYTE   VOL   34*CastlevaniaSymphonyoftheNightDraculasCastle_mvl/mxv
 BYTE   W03
 BYTE   VOL   35*CastlevaniaSymphonyoftheNightDraculasCastle_mvl/mxv
 BYTE   W03
 BYTE   VOL   35*CastlevaniaSymphonyoftheNightDraculasCastle_mvl/mxv
 BYTE   W03
 BYTE   VOL   36*CastlevaniaSymphonyoftheNightDraculasCastle_mvl/mxv
 BYTE   W03
 BYTE   VOL   37*CastlevaniaSymphonyoftheNightDraculasCastle_mvl/mxv
 BYTE   W03
 BYTE   VOL   37*CastlevaniaSymphonyoftheNightDraculasCastle_mvl/mxv
 BYTE   W03
 BYTE   VOL   37*CastlevaniaSymphonyoftheNightDraculasCastle_mvl/mxv
 BYTE   W03
 BYTE   VOL   38*CastlevaniaSymphonyoftheNightDraculasCastle_mvl/mxv
 BYTE   W03
 BYTE   VOL   39*CastlevaniaSymphonyoftheNightDraculasCastle_mvl/mxv
 BYTE   W03
 BYTE   VOL   40*CastlevaniaSymphonyoftheNightDraculasCastle_mvl/mxv
 BYTE   W03
 BYTE   VOL   40*CastlevaniaSymphonyoftheNightDraculasCastle_mvl/mxv
 BYTE   W03
 BYTE   VOL   40*CastlevaniaSymphonyoftheNightDraculasCastle_mvl/mxv
 BYTE   W03
 BYTE   VOL   41*CastlevaniaSymphonyoftheNightDraculasCastle_mvl/mxv
 BYTE   W03
 BYTE   VOL   41*CastlevaniaSymphonyoftheNightDraculasCastle_mvl/mxv
 BYTE   W03
 BYTE   VOL   42*CastlevaniaSymphonyoftheNightDraculasCastle_mvl/mxv
 BYTE   W03
 BYTE   VOL   43*CastlevaniaSymphonyoftheNightDraculasCastle_mvl/mxv
 BYTE   W03
 BYTE   VOL   44*CastlevaniaSymphonyoftheNightDraculasCastle_mvl/mxv
 BYTE   W03
 BYTE   VOL   44*CastlevaniaSymphonyoftheNightDraculasCastle_mvl/mxv
 BYTE   W03
 BYTE   VOL   45*CastlevaniaSymphonyoftheNightDraculasCastle_mvl/mxv
 BYTE   W03
 BYTE   VOL   45*CastlevaniaSymphonyoftheNightDraculasCastle_mvl/mxv
 BYTE   W03
 BYTE   VOL   46*CastlevaniaSymphonyoftheNightDraculasCastle_mvl/mxv
 BYTE   N92  An3  v088
 BYTE   W01
//  #02 //002   ----------------------------------------
 BYTE   W92
 BYTE   W03
 BYTE   N48  Gn3  v072
 BYTE   W01
//  #02 //003   ----------------------------------------
 BYTE   W44
 BYTE   W03
 BYTE   N44  An3  v060
 BYTE   W48
 BYTE   VOL   32*CastlevaniaSymphonyoftheNightDraculasCastle_mvl/mxv
 BYTE   TIE  Cs4  v100
 BYTE   W01
//  #02 //004   ----------------------------------------
 BYTE   VOL   31*CastlevaniaSymphonyoftheNightDraculasCastle_mvl/mxv
 BYTE   W01
 BYTE   VOL   31*CastlevaniaSymphonyoftheNightDraculasCastle_mvl/mxv
 BYTE   W01
 BYTE   VOL   30*CastlevaniaSymphonyoftheNightDraculasCastle_mvl/mxv
 BYTE   W01
 BYTE   VOL   30*CastlevaniaSymphonyoftheNightDraculasCastle_mvl/mxv
 BYTE   W01
 BYTE   VOL   29*CastlevaniaSymphonyoftheNightDraculasCastle_mvl/mxv
 BYTE   W01
 BYTE   VOL   29*CastlevaniaSymphonyoftheNightDraculasCastle_mvl/mxv
 BYTE   W01
 BYTE   VOL   28*CastlevaniaSymphonyoftheNightDraculasCastle_mvl/mxv
 BYTE   W01
 BYTE   VOL   28*CastlevaniaSymphonyoftheNightDraculasCastle_mvl/mxv
 BYTE   W01
 BYTE   VOL   28*CastlevaniaSymphonyoftheNightDraculasCastle_mvl/mxv
 BYTE   W01
 BYTE   VOL   27*CastlevaniaSymphonyoftheNightDraculasCastle_mvl/mxv
 BYTE   W01
 BYTE   VOL   27*CastlevaniaSymphonyoftheNightDraculasCastle_mvl/mxv
 BYTE   W01
 BYTE   VOL   26*CastlevaniaSymphonyoftheNightDraculasCastle_mvl/mxv
 BYTE   W01
 BYTE   VOL   26*CastlevaniaSymphonyoftheNightDraculasCastle_mvl/mxv
 BYTE   W01
 BYTE   VOL   25*CastlevaniaSymphonyoftheNightDraculasCastle_mvl/mxv
 BYTE   W01
 BYTE   VOL   24*CastlevaniaSymphonyoftheNightDraculasCastle_mvl/mxv
 BYTE   W01
 BYTE   VOL   24*CastlevaniaSymphonyoftheNightDraculasCastle_mvl/mxv
 BYTE   W01
 BYTE   VOL   23*CastlevaniaSymphonyoftheNightDraculasCastle_mvl/mxv
 BYTE   W01
 BYTE   VOL   23*CastlevaniaSymphonyoftheNightDraculasCastle_mvl/mxv
 BYTE   W01
 BYTE   VOL   22*CastlevaniaSymphonyoftheNightDraculasCastle_mvl/mxv
 BYTE   W01
 BYTE   VOL   22*CastlevaniaSymphonyoftheNightDraculasCastle_mvl/mxv
 BYTE   W01
 BYTE   VOL   22*CastlevaniaSymphonyoftheNightDraculasCastle_mvl/mxv
 BYTE   W01
 BYTE   VOL   21*CastlevaniaSymphonyoftheNightDraculasCastle_mvl/mxv
 BYTE   W01
 BYTE   VOL   20*CastlevaniaSymphonyoftheNightDraculasCastle_mvl/mxv
 BYTE   W01
 BYTE   VOL   20*CastlevaniaSymphonyoftheNightDraculasCastle_mvl/mxv
 BYTE   W04
 BYTE   VOL   20*CastlevaniaSymphonyoftheNightDraculasCastle_mvl/mxv
 BYTE   W03
 BYTE   VOL   21*CastlevaniaSymphonyoftheNightDraculasCastle_mvl/mxv
 BYTE   W04
 BYTE   VOL   22*CastlevaniaSymphonyoftheNightDraculasCastle_mvl/mxv
 BYTE   W03
 BYTE   VOL   22*CastlevaniaSymphonyoftheNightDraculasCastle_mvl/mxv
 BYTE   W04
 BYTE   VOL   22*CastlevaniaSymphonyoftheNightDraculasCastle_mvl/mxv
 BYTE   W03
 BYTE   VOL   23*CastlevaniaSymphonyoftheNightDraculasCastle_mvl/mxv
 BYTE   W04
 BYTE   VOL   23*CastlevaniaSymphonyoftheNightDraculasCastle_mvl/mxv
 BYTE   W03
 BYTE   VOL   24*CastlevaniaSymphonyoftheNightDraculasCastle_mvl/mxv
 BYTE   W04
 BYTE   VOL   24*CastlevaniaSymphonyoftheNightDraculasCastle_mvl/mxv
 BYTE   W03
 BYTE   VOL   25*CastlevaniaSymphonyoftheNightDraculasCastle_mvl/mxv
 BYTE   W04
 BYTE   VOL   26*CastlevaniaSymphonyoftheNightDraculasCastle_mvl/mxv
 BYTE   W03
 BYTE   VOL   26*CastlevaniaSymphonyoftheNightDraculasCastle_mvl/mxv
 BYTE   W04
 BYTE   VOL   27*CastlevaniaSymphonyoftheNightDraculasCastle_mvl/mxv
 BYTE   W03
 BYTE   VOL   27*CastlevaniaSymphonyoftheNightDraculasCastle_mvl/mxv
 BYTE   W04
 BYTE   VOL   28*CastlevaniaSymphonyoftheNightDraculasCastle_mvl/mxv
 BYTE   W03
 BYTE   VOL   28*CastlevaniaSymphonyoftheNightDraculasCastle_mvl/mxv
 BYTE   W04
 BYTE   VOL   28*CastlevaniaSymphonyoftheNightDraculasCastle_mvl/mxv
 BYTE   W03
 BYTE   VOL   29*CastlevaniaSymphonyoftheNightDraculasCastle_mvl/mxv
 BYTE   W04
 BYTE   VOL   29*CastlevaniaSymphonyoftheNightDraculasCastle_mvl/mxv
 BYTE   W03
 BYTE   VOL   30*CastlevaniaSymphonyoftheNightDraculasCastle_mvl/mxv
 BYTE   W03
//  #02 //005   ----------------------------------------
 BYTE   W01
 BYTE   VOL   30*CastlevaniaSymphonyoftheNightDraculasCastle_mvl/mxv
 BYTE   W03
 BYTE   VOL   31*CastlevaniaSymphonyoftheNightDraculasCastle_mvl/mxv
 BYTE   W04
 BYTE   VOL   31*CastlevaniaSymphonyoftheNightDraculasCastle_mvl/mxv
 BYTE   W03
 BYTE   VOL   32*CastlevaniaSymphonyoftheNightDraculasCastle_mvl/mxv
 BYTE   W04
 BYTE   VOL   33*CastlevaniaSymphonyoftheNightDraculasCastle_mvl/mxv
 BYTE   W03
 BYTE   VOL   34*CastlevaniaSymphonyoftheNightDraculasCastle_mvl/mxv
 BYTE   W04
 BYTE   VOL   34*CastlevaniaSymphonyoftheNightDraculasCastle_mvl/mxv
 BYTE   W03
 BYTE   VOL   34*CastlevaniaSymphonyoftheNightDraculasCastle_mvl/mxv
 BYTE   W04
 BYTE   VOL   35*CastlevaniaSymphonyoftheNightDraculasCastle_mvl/mxv
 BYTE   W03
 BYTE   VOL   35*CastlevaniaSymphonyoftheNightDraculasCastle_mvl/mxv
 BYTE   W04
 BYTE   VOL   36*CastlevaniaSymphonyoftheNightDraculasCastle_mvl/mxv
 BYTE   W03
 BYTE   VOL   37*CastlevaniaSymphonyoftheNightDraculasCastle_mvl/mxv
 BYTE   W04
 BYTE   VOL   37*CastlevaniaSymphonyoftheNightDraculasCastle_mvl/mxv
 BYTE   W03
 BYTE   VOL   37*CastlevaniaSymphonyoftheNightDraculasCastle_mvl/mxv
 BYTE   W01
 BYTE   EOT
 BYTE   N24  Bn3  v072
 BYTE   W03
 BYTE   VOL   38*CastlevaniaSymphonyoftheNightDraculasCastle_mvl/mxv
 BYTE   W03
 BYTE   VOL   39*CastlevaniaSymphonyoftheNightDraculasCastle_mvl/mxv
 BYTE   W04
 BYTE   VOL   40*CastlevaniaSymphonyoftheNightDraculasCastle_mvl/mxv
 BYTE   W03
 BYTE   VOL   40*CastlevaniaSymphonyoftheNightDraculasCastle_mvl/mxv
 BYTE   W04
 BYTE   VOL   40*CastlevaniaSymphonyoftheNightDraculasCastle_mvl/mxv
 BYTE   W03
 BYTE   VOL   41*CastlevaniaSymphonyoftheNightDraculasCastle_mvl/mxv
 BYTE   W04
 BYTE   VOL   41*CastlevaniaSymphonyoftheNightDraculasCastle_mvl/mxv
 BYTE   N24  Cs4  v088
 BYTE   W03
 BYTE   VOL   42*CastlevaniaSymphonyoftheNightDraculasCastle_mvl/mxv
 BYTE   W04
 BYTE   VOL   43*CastlevaniaSymphonyoftheNightDraculasCastle_mvl/mxv
 BYTE   W03
 BYTE   VOL   44*CastlevaniaSymphonyoftheNightDraculasCastle_mvl/mxv
 BYTE   W04
 BYTE   VOL   44*CastlevaniaSymphonyoftheNightDraculasCastle_mvl/mxv
 BYTE   W03
 BYTE   VOL   45*CastlevaniaSymphonyoftheNightDraculasCastle_mvl/mxv
 BYTE   W04
 BYTE   VOL   45*CastlevaniaSymphonyoftheNightDraculasCastle_mvl/mxv
 BYTE   W03
 BYTE   VOL   46*CastlevaniaSymphonyoftheNightDraculasCastle_mvl/mxv
 BYTE   N44  Dn4  v100
 BYTE   W01
//  #02 //006   ----------------------------------------
 BYTE   W44
 BYTE   W03
 BYTE   N23  Cn4  v072
 BYTE   W24
 BYTE   Dn4  v088
 BYTE   W24
 BYTE   N44  Fn4  v100
 BYTE   W01
//  #02 //007   ----------------------------------------
 BYTE   W44
 BYTE   W03
 BYTE   Ds4  v088
 BYTE   W48
 BYTE   VOL   46*CastlevaniaSymphonyoftheNightDraculasCastle_mvl/mxv
 BYTE   TIE  Dn4  v072
 BYTE   W01
//  #02 //008   ----------------------------------------
Label_01308592:
 BYTE   W36
 BYTE   W02
 BYTE   VOL   45*CastlevaniaSymphonyoftheNightDraculasCastle_mvl/mxv
 BYTE   W18
 BYTE   VOL   45*CastlevaniaSymphonyoftheNightDraculasCastle_mvl/mxv
 BYTE   W11
 BYTE   VOL   44*CastlevaniaSymphonyoftheNightDraculasCastle_mvl/mxv
 BYTE   W09
 BYTE   VOL   44*CastlevaniaSymphonyoftheNightDraculasCastle_mvl/mxv
 BYTE   W07
 BYTE   VOL   43*CastlevaniaSymphonyoftheNightDraculasCastle_mvl/mxv
 BYTE   W06
 BYTE   VOL   42*CastlevaniaSymphonyoftheNightDraculasCastle_mvl/mxv
 BYTE   W05
 BYTE   VOL   41*CastlevaniaSymphonyoftheNightDraculasCastle_mvl/mxv
 BYTE   W02
 BYTE   PEND 
//  #02 //009   ----------------------------------------
Label_013085A4:
 BYTE   W01
 BYTE   VOL   41*CastlevaniaSymphonyoftheNightDraculasCastle_mvl/mxv
 BYTE   W04
 BYTE   VOL   40*CastlevaniaSymphonyoftheNightDraculasCastle_mvl/mxv
 BYTE   W04
 BYTE   VOL   40*CastlevaniaSymphonyoftheNightDraculasCastle_mvl/mxv
 BYTE   W03
 BYTE   VOL   40*CastlevaniaSymphonyoftheNightDraculasCastle_mvl/mxv
 BYTE   W03
 BYTE   VOL   39*CastlevaniaSymphonyoftheNightDraculasCastle_mvl/mxv
 BYTE   W03
 BYTE   VOL   38*CastlevaniaSymphonyoftheNightDraculasCastle_mvl/mxv
 BYTE   W02
 BYTE   VOL   37*CastlevaniaSymphonyoftheNightDraculasCastle_mvl/mxv
 BYTE   W02
 BYTE   VOL   37*CastlevaniaSymphonyoftheNightDraculasCastle_mvl/mxv
 BYTE   W03
 BYTE   VOL   37*CastlevaniaSymphonyoftheNightDraculasCastle_mvl/mxv
 BYTE   W02
 BYTE   VOL   36*CastlevaniaSymphonyoftheNightDraculasCastle_mvl/mxv
 BYTE   W01
 BYTE   VOL   35*CastlevaniaSymphonyoftheNightDraculasCastle_mvl/mxv
 BYTE   W03
 BYTE   VOL   35*CastlevaniaSymphonyoftheNightDraculasCastle_mvl/mxv
 BYTE   W01
 BYTE   VOL   34*CastlevaniaSymphonyoftheNightDraculasCastle_mvl/mxv
 BYTE   W02
 BYTE   VOL   34*CastlevaniaSymphonyoftheNightDraculasCastle_mvl/mxv
 BYTE   W01
 BYTE   VOL   34*CastlevaniaSymphonyoftheNightDraculasCastle_mvl/mxv
 BYTE   W02
 BYTE   VOL   33*CastlevaniaSymphonyoftheNightDraculasCastle_mvl/mxv
 BYTE   W01
 BYTE   VOL   32*CastlevaniaSymphonyoftheNightDraculasCastle_mvl/mxv
 BYTE   W02
 BYTE   VOL   31*CastlevaniaSymphonyoftheNightDraculasCastle_mvl/mxv
 BYTE   W01
 BYTE   VOL   31*CastlevaniaSymphonyoftheNightDraculasCastle_mvl/mxv
 BYTE   W02
 BYTE   VOL   30*CastlevaniaSymphonyoftheNightDraculasCastle_mvl/mxv
 BYTE   W02
 BYTE   VOL   29*CastlevaniaSymphonyoftheNightDraculasCastle_mvl/mxv
 BYTE   W01
 BYTE   VOL   29*CastlevaniaSymphonyoftheNightDraculasCastle_mvl/mxv
 BYTE   W01
 BYTE   VOL   28*CastlevaniaSymphonyoftheNightDraculasCastle_mvl/mxv
 BYTE   W01
 BYTE   VOL   28*CastlevaniaSymphonyoftheNightDraculasCastle_mvl/mxv
 BYTE   W01
 BYTE   VOL   28*CastlevaniaSymphonyoftheNightDraculasCastle_mvl/mxv
 BYTE   W01
 BYTE   VOL   27*CastlevaniaSymphonyoftheNightDraculasCastle_mvl/mxv
 BYTE   W01
 BYTE   VOL   27*CastlevaniaSymphonyoftheNightDraculasCastle_mvl/mxv
 BYTE   W01
 BYTE   VOL   26*CastlevaniaSymphonyoftheNightDraculasCastle_mvl/mxv
 BYTE   W01
 BYTE   VOL   26*CastlevaniaSymphonyoftheNightDraculasCastle_mvl/mxv
 BYTE   W01
 BYTE   VOL   25*CastlevaniaSymphonyoftheNightDraculasCastle_mvl/mxv
 BYTE   W01
 BYTE   VOL   24*CastlevaniaSymphonyoftheNightDraculasCastle_mvl/mxv
 BYTE   W02
 BYTE   VOL   23*CastlevaniaSymphonyoftheNightDraculasCastle_mvl/mxv
 BYTE   W01
 BYTE   VOL   22*CastlevaniaSymphonyoftheNightDraculasCastle_mvl/mxv
 BYTE   W01
 BYTE   VOL   22*CastlevaniaSymphonyoftheNightDraculasCastle_mvl/mxv
 BYTE   W01
 BYTE   VOL   22*CastlevaniaSymphonyoftheNightDraculasCastle_mvl/mxv
 BYTE   W01
 BYTE   VOL   20*CastlevaniaSymphonyoftheNightDraculasCastle_mvl/mxv
 BYTE   W01
 BYTE   VOL   20*CastlevaniaSymphonyoftheNightDraculasCastle_mvl/mxv
 BYTE   W01
 BYTE   VOL   20*CastlevaniaSymphonyoftheNightDraculasCastle_mvl/mxv
 BYTE   W01
 BYTE   VOL   19*CastlevaniaSymphonyoftheNightDraculasCastle_mvl/mxv
 BYTE   W01
 BYTE   VOL   18*CastlevaniaSymphonyoftheNightDraculasCastle_mvl/mxv
 BYTE   W01
 BYTE   VOL   18*CastlevaniaSymphonyoftheNightDraculasCastle_mvl/mxv
 BYTE   W01
 BYTE   VOL   17*CastlevaniaSymphonyoftheNightDraculasCastle_mvl/mxv
 BYTE   W01
 BYTE   VOL   16*CastlevaniaSymphonyoftheNightDraculasCastle_mvl/mxv
 BYTE   W01
 BYTE   VOL   16*CastlevaniaSymphonyoftheNightDraculasCastle_mvl/mxv
 BYTE   W01
 BYTE   VOL   15*CastlevaniaSymphonyoftheNightDraculasCastle_mvl/mxv
 BYTE   W01
 BYTE   VOL   14*CastlevaniaSymphonyoftheNightDraculasCastle_mvl/mxv
 BYTE   W01
 BYTE   VOL   14*CastlevaniaSymphonyoftheNightDraculasCastle_mvl/mxv
 BYTE   W01
 BYTE   VOL   13*CastlevaniaSymphonyoftheNightDraculasCastle_mvl/mxv
 BYTE   W01
 BYTE   VOL   12*CastlevaniaSymphonyoftheNightDraculasCastle_mvl/mxv
 BYTE   W01
 BYTE   VOL   11*CastlevaniaSymphonyoftheNightDraculasCastle_mvl/mxv
 BYTE   W01
 BYTE   VOL   11*CastlevaniaSymphonyoftheNightDraculasCastle_mvl/mxv
 BYTE   W01
 BYTE   VOL   10*CastlevaniaSymphonyoftheNightDraculasCastle_mvl/mxv
 BYTE   W01
 BYTE   VOL   10*CastlevaniaSymphonyoftheNightDraculasCastle_mvl/mxv
 BYTE   W01
 BYTE   VOL   8*CastlevaniaSymphonyoftheNightDraculasCastle_mvl/mxv
 BYTE   W01
 BYTE   VOL   8*CastlevaniaSymphonyoftheNightDraculasCastle_mvl/mxv
 BYTE   W01
 BYTE   VOL   7*CastlevaniaSymphonyoftheNightDraculasCastle_mvl/mxv
 BYTE   W01
 BYTE   VOL   6*CastlevaniaSymphonyoftheNightDraculasCastle_mvl/mxv
 BYTE   W01
 BYTE   VOL   6*CastlevaniaSymphonyoftheNightDraculasCastle_mvl/mxv
 BYTE   W01
 BYTE   VOL   5*CastlevaniaSymphonyoftheNightDraculasCastle_mvl/mxv
 BYTE   W01
 BYTE   VOL   4*CastlevaniaSymphonyoftheNightDraculasCastle_mvl/mxv
 BYTE   W01
 BYTE   VOL   3*CastlevaniaSymphonyoftheNightDraculasCastle_mvl/mxv
 BYTE   W01
 BYTE   VOL   3*CastlevaniaSymphonyoftheNightDraculasCastle_mvl/mxv
 BYTE   W01
 BYTE   VOL   2*CastlevaniaSymphonyoftheNightDraculasCastle_mvl/mxv
 BYTE   W01
 BYTE   VOL   2*CastlevaniaSymphonyoftheNightDraculasCastle_mvl/mxv
 BYTE   W01
 BYTE   VOL   1*CastlevaniaSymphonyoftheNightDraculasCastle_mvl/mxv
 BYTE   W01
 BYTE   VOL   1*CastlevaniaSymphonyoftheNightDraculasCastle_mvl/mxv
 BYTE   W01
 BYTE   VOL   0*CastlevaniaSymphonyoftheNightDraculasCastle_mvl/mxv
 BYTE   W01
 BYTE   VOL   0*CastlevaniaSymphonyoftheNightDraculasCastle_mvl/mxv
 BYTE   W01
 BYTE   PEND 
 BYTE   EOT
 BYTE   Dn4
 BYTE   VOL   0*CastlevaniaSymphonyoftheNightDraculasCastle_mvl/mxv
 BYTE   W01
 BYTE   VOL   0*CastlevaniaSymphonyoftheNightDraculasCastle_mvl/mxv
 BYTE   W01
//  #02 //010   ----------------------------------------
 BYTE   W92
 BYTE   W03
 BYTE   VOL   46*CastlevaniaSymphonyoftheNightDraculasCastle_mvl/mxv
 BYTE   W01
//  #02 //011   ----------------------------------------
 BYTE   W96
//  #02 //012   ----------------------------------------
Label_0130863B:
 BYTE   W96
//  #02 //013   ----------------------------------------
 BYTE   W96
//  #02 //014   ----------------------------------------
Label_0130863D:
 BYTE   W92
 BYTE   W03
 BYTE   N32  Cn3  v100
 BYTE   W01
 BYTE   PEND 
//  #02 //015   ----------------------------------------
Label_01308644:
 BYTE   W32
 BYTE   W03
 BYTE   N07  Dn3  v116
 BYTE   W06
 BYTE   Cn3  v100
 BYTE   W06
 BYTE   N44  Bn2  v088
 BYTE   W48
 BYTE   W01
 BYTE   PEND 
//  #02 //016   ----------------------------------------
 BYTE   W96
//  #02 //017   ----------------------------------------
 BYTE   W96
//  #02 //018   ----------------------------------------
 BYTE   PATT
  POIN2 Label_0130863D
//  #02 //019   ----------------------------------------
Label_0130865A:
 BYTE   W32
 BYTE   W03
 BYTE   N07  Dn3  v116
 BYTE   W06
 BYTE   Cn3  v100
 BYTE   W06
 BYTE   N44  Bn2  v088
 BYTE   W48
 BYTE   N92  As2  v048
 BYTE   W01
 BYTE   PEND 
//  #02 //020   ----------------------------------------
Label_0130866C:
 BYTE   W92
 BYTE   W03
 BYTE   N48  An2  v060
 BYTE   W01
 BYTE   PEND 
//  #02 //021   ----------------------------------------
Label_01308673:
 BYTE   W44
 BYTE   W03
 BYTE   N48  Gn2  v048
 BYTE   W48
 BYTE   N48
 BYTE   W01
 BYTE   PEND 
//  #02 //022   ----------------------------------------
Label_0130867C:
 BYTE   W44
 BYTE   W03
 BYTE   N23  An2  v048
 BYTE   W24
 BYTE   Cn3  v060
 BYTE   W24
 BYTE   N44  Cn3  v088
 BYTE   W01
 BYTE   PEND 
//  #02 //023   ----------------------------------------
Label_0130868A:
 BYTE   W44
 BYTE   W03
 BYTE   N44  As2  v072
 BYTE   W48
 BYTE   N48  As2  v060
 BYTE   W01
 BYTE   PEND 
//  #02 //024   ----------------------------------------
Label_01308695:
 BYTE   W44
 BYTE   W03
 BYTE   N48  An2  v048
 BYTE   W48
 BYTE   N92  Dn3  v072
 BYTE   W01
 BYTE   PEND 
//  #02 //025   ----------------------------------------
Label_013086A0:
 BYTE   W92
 BYTE   W03
 BYTE   N18  Dn3  v072
 BYTE   W01
 BYTE   PEND 
//  #02 //026   ----------------------------------------
Label_013086A7:
 BYTE   W17
 BYTE   N17  Cn3  v060
 BYTE   W18
 BYTE   N11  As2  v048
 BYTE   W12
 BYTE   N44  An2  v060
 BYTE   W48
 BYTE   VOL   46*CastlevaniaSymphonyoftheNightDraculasCastle_mvl/mxv
 BYTE   TIE  Dn3  v088
 BYTE   W01
 BYTE   PEND 
//  #02 //027   ----------------------------------------
 BYTE   PATT
  POIN2 Label_01308592
//  #02 //028   ----------------------------------------
 BYTE   PATT
  POIN2 Label_013085A4
//  #02 //029   ----------------------------------------
 BYTE   EOT
 BYTE   Dn3
 BYTE   VOL   0*CastlevaniaSymphonyoftheNightDraculasCastle_mvl/mxv
 BYTE   W01
 BYTE   VOL   0*CastlevaniaSymphonyoftheNightDraculasCastle_mvl/mxv
 BYTE   W01
 BYTE   W96
//  #02 //030   ----------------------------------------
 BYTE   W96
//  #02 //031   ----------------------------------------
 BYTE   W96
//  #02 //032   ----------------------------------------
Label_013086CF:
 BYTE   W92
 BYTE   W03
 BYTE   VOL   46*CastlevaniaSymphonyoftheNightDraculasCastle_mvl/mxv
 BYTE   N30  Dn5  v072
 BYTE   W01
 BYTE   PEND 
//  #02 //033   ----------------------------------------
Label_013086D8:
 BYTE   W32
 BYTE   W03
 BYTE   N07  As4  v060
 BYTE   W06
 BYTE   Cn5  v072
 BYTE   W06
 BYTE   N16  Dn5  v088
 BYTE   W16
 BYTE   Cn5  v072
 BYTE   W16
 BYTE   N15  As4  v060
 BYTE   W16
 BYTE   N23  Cn5  v072
 BYTE   W01
 BYTE   PEND 
//  #02 //034   ----------------------------------------
Label_013086F1:
 BYTE   W23
 BYTE   N12  Fn4  v060
 BYTE   W24
 BYTE   N30  Fn5
 BYTE   W36
 BYTE   N07  Ds5  v048
 BYTE   W06
 BYTE   N05  Dn5  v036
 BYTE   W06
 BYTE   N30  Ds5  v060
 BYTE   W01
 BYTE   PEND 
//  #02 //035   ----------------------------------------
Label_01308706:
 BYTE   W32
 BYTE   W03
 BYTE   N07  Cn5  v048
 BYTE   W06
 BYTE   Dn5  v036
 BYTE   W06
 BYTE   N30  Ds5  v060
 BYTE   W36
 BYTE   N07  Dn5  v048
 BYTE   W06
 BYTE   Cn5  v036
 BYTE   W06
 BYTE   N92  Dn5  v048
 BYTE   W01
 BYTE   PEND 
//  #02 //036   ----------------------------------------
Label_0130871F:
 BYTE   W92
 BYTE   W03
 BYTE   N16  Ds4  v088
 BYTE   W01
 BYTE   PEND 
//  #02 //037   ----------------------------------------
Label_01308726:
 BYTE   W15
 BYTE   N16  Fn4  v072
 BYTE   W16
 BYTE   N15  Gn4  v088
 BYTE   W16
 BYTE   N16  Fn4  v100
 BYTE   W16
 BYTE   Cn4  v088
 BYTE   W16
 BYTE   N15  Fn4  v072
 BYTE   W16
 BYTE   VOL   46*CastlevaniaSymphonyoftheNightDraculasCastle_mvl/mxv
 BYTE   N92  Dn4  v088
 BYTE   W01
 BYTE   PEND 
//  #02 //038   ----------------------------------------
Label_01308741:
 BYTE   W19
 BYTE   VOL   45*CastlevaniaSymphonyoftheNightDraculasCastle_mvl/mxv
 BYTE   W08
 BYTE   VOL   45*CastlevaniaSymphonyoftheNightDraculasCastle_mvl/mxv
 BYTE   W06
 BYTE   VOL   44*CastlevaniaSymphonyoftheNightDraculasCastle_mvl/mxv
 BYTE   W05
 BYTE   VOL   44*CastlevaniaSymphonyoftheNightDraculasCastle_mvl/mxv
 BYTE   W03
 BYTE   VOL   43*CastlevaniaSymphonyoftheNightDraculasCastle_mvl/mxv
 BYTE   W03
 BYTE   VOL   42*CastlevaniaSymphonyoftheNightDraculasCastle_mvl/mxv
 BYTE   W03
 BYTE   VOL   41*CastlevaniaSymphonyoftheNightDraculasCastle_mvl/mxv
 BYTE   W01
 BYTE   VOL   41*CastlevaniaSymphonyoftheNightDraculasCastle_mvl/mxv
 BYTE   W02
 BYTE   VOL   40*CastlevaniaSymphonyoftheNightDraculasCastle_mvl/mxv
 BYTE   W02
 BYTE   VOL   40*CastlevaniaSymphonyoftheNightDraculasCastle_mvl/mxv
 BYTE   W02
 BYTE   VOL   40*CastlevaniaSymphonyoftheNightDraculasCastle_mvl/mxv
 BYTE   W01
 BYTE   VOL   39*CastlevaniaSymphonyoftheNightDraculasCastle_mvl/mxv
 BYTE   W02
 BYTE   VOL   38*CastlevaniaSymphonyoftheNightDraculasCastle_mvl/mxv
 BYTE   W01
 BYTE   VOL   37*CastlevaniaSymphonyoftheNightDraculasCastle_mvl/mxv
 BYTE   W01
 BYTE   VOL   37*CastlevaniaSymphonyoftheNightDraculasCastle_mvl/mxv
 BYTE   W01
 BYTE   VOL   37*CastlevaniaSymphonyoftheNightDraculasCastle_mvl/mxv
 BYTE   W01
 BYTE   VOL   36*CastlevaniaSymphonyoftheNightDraculasCastle_mvl/mxv
 BYTE   W01
 BYTE   VOL   35*CastlevaniaSymphonyoftheNightDraculasCastle_mvl/mxv
 BYTE   W01
 BYTE   VOL   35*CastlevaniaSymphonyoftheNightDraculasCastle_mvl/mxv
 BYTE   W01
 BYTE   VOL   34*CastlevaniaSymphonyoftheNightDraculasCastle_mvl/mxv
 BYTE   W01
 BYTE   VOL   34*CastlevaniaSymphonyoftheNightDraculasCastle_mvl/mxv
 BYTE   W01
 BYTE   VOL   33*CastlevaniaSymphonyoftheNightDraculasCastle_mvl/mxv
 BYTE   W01
 BYTE   VOL   31*CastlevaniaSymphonyoftheNightDraculasCastle_mvl/mxv
 BYTE   W01
 BYTE   VOL   31*CastlevaniaSymphonyoftheNightDraculasCastle_mvl/mxv
 BYTE   W01
 BYTE   VOL   30*CastlevaniaSymphonyoftheNightDraculasCastle_mvl/mxv
 BYTE   W01
 BYTE   VOL   29*CastlevaniaSymphonyoftheNightDraculasCastle_mvl/mxv
 BYTE   W01
 BYTE   VOL   28*CastlevaniaSymphonyoftheNightDraculasCastle_mvl/mxv
 BYTE   W01
 BYTE   VOL   28*CastlevaniaSymphonyoftheNightDraculasCastle_mvl/mxv
 BYTE   W01
 BYTE   VOL   27*CastlevaniaSymphonyoftheNightDraculasCastle_mvl/mxv
 BYTE   W01
 BYTE   VOL   25*CastlevaniaSymphonyoftheNightDraculasCastle_mvl/mxv
 BYTE   W01
 BYTE   VOL   24*CastlevaniaSymphonyoftheNightDraculasCastle_mvl/mxv
 BYTE   W01
 BYTE   VOL   23*CastlevaniaSymphonyoftheNightDraculasCastle_mvl/mxv
 BYTE   W01
 BYTE   VOL   22*CastlevaniaSymphonyoftheNightDraculasCastle_mvl/mxv
 BYTE   W01
 BYTE   VOL   20*CastlevaniaSymphonyoftheNightDraculasCastle_mvl/mxv
 BYTE   W01
 BYTE   VOL   19*CastlevaniaSymphonyoftheNightDraculasCastle_mvl/mxv
 BYTE   W01
 BYTE   VOL   18*CastlevaniaSymphonyoftheNightDraculasCastle_mvl/mxv
 BYTE   W01
 BYTE   VOL   17*CastlevaniaSymphonyoftheNightDraculasCastle_mvl/mxv
 BYTE   W01
 BYTE   VOL   15*CastlevaniaSymphonyoftheNightDraculasCastle_mvl/mxv
 BYTE   W01
 BYTE   VOL   14*CastlevaniaSymphonyoftheNightDraculasCastle_mvl/mxv
 BYTE   W01
 BYTE   VOL   13*CastlevaniaSymphonyoftheNightDraculasCastle_mvl/mxv
 BYTE   W01
 BYTE   VOL   11*CastlevaniaSymphonyoftheNightDraculasCastle_mvl/mxv
 BYTE   W01
 BYTE   VOL   10*CastlevaniaSymphonyoftheNightDraculasCastle_mvl/mxv
 BYTE   W01
 BYTE   VOL   8*CastlevaniaSymphonyoftheNightDraculasCastle_mvl/mxv
 BYTE   W01
 BYTE   VOL   6*CastlevaniaSymphonyoftheNightDraculasCastle_mvl/mxv
 BYTE   W01
 BYTE   VOL   5*CastlevaniaSymphonyoftheNightDraculasCastle_mvl/mxv
 BYTE   W01
 BYTE   VOL   4*CastlevaniaSymphonyoftheNightDraculasCastle_mvl/mxv
 BYTE   W01
 BYTE   VOL   3*CastlevaniaSymphonyoftheNightDraculasCastle_mvl/mxv
 BYTE   W01
 BYTE   VOL   1*CastlevaniaSymphonyoftheNightDraculasCastle_mvl/mxv
 BYTE   W01
 BYTE   VOL   1*CastlevaniaSymphonyoftheNightDraculasCastle_mvl/mxv
 BYTE   W01
 BYTE   VOL   0*CastlevaniaSymphonyoftheNightDraculasCastle_mvl/mxv
 BYTE   W01
 BYTE   VOL   46*CastlevaniaSymphonyoftheNightDraculasCastle_mvl/mxv
 BYTE   N16  Gn4  v088
 BYTE   W01
 BYTE   PEND 
//  #02 //039   ----------------------------------------
Label_013087AD:
 BYTE   W15
 BYTE   N16  An4  v072
 BYTE   W16
 BYTE   N15  As4  v088
 BYTE   W16
 BYTE   N16  An4  v100
 BYTE   W16
 BYTE   Fn4  v088
 BYTE   W16
 BYTE   N15  Dn4  v072
 BYTE   W16
 BYTE   VOL   46*CastlevaniaSymphonyoftheNightDraculasCastle_mvl/mxv
 BYTE   N92  Gn4  v100
 BYTE   W01
 BYTE   PEND 
//  #02 //040   ----------------------------------------
Label_013087C8:
 BYTE   W19
 BYTE   VOL   45*CastlevaniaSymphonyoftheNightDraculasCastle_mvl/mxv
 BYTE   W08
 BYTE   VOL   45*CastlevaniaSymphonyoftheNightDraculasCastle_mvl/mxv
 BYTE   W06
 BYTE   VOL   44*CastlevaniaSymphonyoftheNightDraculasCastle_mvl/mxv
 BYTE   W05
 BYTE   VOL   44*CastlevaniaSymphonyoftheNightDraculasCastle_mvl/mxv
 BYTE   W03
 BYTE   VOL   43*CastlevaniaSymphonyoftheNightDraculasCastle_mvl/mxv
 BYTE   W03
 BYTE   VOL   42*CastlevaniaSymphonyoftheNightDraculasCastle_mvl/mxv
 BYTE   W03
 BYTE   VOL   41*CastlevaniaSymphonyoftheNightDraculasCastle_mvl/mxv
 BYTE   W01
 BYTE   VOL   41*CastlevaniaSymphonyoftheNightDraculasCastle_mvl/mxv
 BYTE   W02
 BYTE   VOL   40*CastlevaniaSymphonyoftheNightDraculasCastle_mvl/mxv
 BYTE   W02
 BYTE   VOL   40*CastlevaniaSymphonyoftheNightDraculasCastle_mvl/mxv
 BYTE   W02
 BYTE   VOL   40*CastlevaniaSymphonyoftheNightDraculasCastle_mvl/mxv
 BYTE   W01
 BYTE   VOL   39*CastlevaniaSymphonyoftheNightDraculasCastle_mvl/mxv
 BYTE   W02
 BYTE   VOL   38*CastlevaniaSymphonyoftheNightDraculasCastle_mvl/mxv
 BYTE   W01
 BYTE   VOL   37*CastlevaniaSymphonyoftheNightDraculasCastle_mvl/mxv
 BYTE   W01
 BYTE   VOL   37*CastlevaniaSymphonyoftheNightDraculasCastle_mvl/mxv
 BYTE   W01
 BYTE   VOL   37*CastlevaniaSymphonyoftheNightDraculasCastle_mvl/mxv
 BYTE   W01
 BYTE   VOL   36*CastlevaniaSymphonyoftheNightDraculasCastle_mvl/mxv
 BYTE   W01
 BYTE   VOL   35*CastlevaniaSymphonyoftheNightDraculasCastle_mvl/mxv
 BYTE   W01
 BYTE   VOL   35*CastlevaniaSymphonyoftheNightDraculasCastle_mvl/mxv
 BYTE   W01
 BYTE   VOL   34*CastlevaniaSymphonyoftheNightDraculasCastle_mvl/mxv
 BYTE   W01
 BYTE   VOL   34*CastlevaniaSymphonyoftheNightDraculasCastle_mvl/mxv
 BYTE   W01
 BYTE   VOL   33*CastlevaniaSymphonyoftheNightDraculasCastle_mvl/mxv
 BYTE   W01
 BYTE   VOL   31*CastlevaniaSymphonyoftheNightDraculasCastle_mvl/mxv
 BYTE   W01
 BYTE   VOL   31*CastlevaniaSymphonyoftheNightDraculasCastle_mvl/mxv
 BYTE   W01
 BYTE   VOL   30*CastlevaniaSymphonyoftheNightDraculasCastle_mvl/mxv
 BYTE   W01
 BYTE   VOL   29*CastlevaniaSymphonyoftheNightDraculasCastle_mvl/mxv
 BYTE   W01
 BYTE   VOL   28*CastlevaniaSymphonyoftheNightDraculasCastle_mvl/mxv
 BYTE   W01
 BYTE   VOL   28*CastlevaniaSymphonyoftheNightDraculasCastle_mvl/mxv
 BYTE   W01
 BYTE   VOL   27*CastlevaniaSymphonyoftheNightDraculasCastle_mvl/mxv
 BYTE   W01
 BYTE   VOL   25*CastlevaniaSymphonyoftheNightDraculasCastle_mvl/mxv
 BYTE   W01
 BYTE   VOL   24*CastlevaniaSymphonyoftheNightDraculasCastle_mvl/mxv
 BYTE   W01
 BYTE   VOL   23*CastlevaniaSymphonyoftheNightDraculasCastle_mvl/mxv
 BYTE   W01
 BYTE   VOL   22*CastlevaniaSymphonyoftheNightDraculasCastle_mvl/mxv
 BYTE   W01
 BYTE   VOL   20*CastlevaniaSymphonyoftheNightDraculasCastle_mvl/mxv
 BYTE   W01
 BYTE   VOL   19*CastlevaniaSymphonyoftheNightDraculasCastle_mvl/mxv
 BYTE   W01
 BYTE   VOL   18*CastlevaniaSymphonyoftheNightDraculasCastle_mvl/mxv
 BYTE   W01
 BYTE   VOL   17*CastlevaniaSymphonyoftheNightDraculasCastle_mvl/mxv
 BYTE   W01
 BYTE   VOL   15*CastlevaniaSymphonyoftheNightDraculasCastle_mvl/mxv
 BYTE   W01
 BYTE   VOL   14*CastlevaniaSymphonyoftheNightDraculasCastle_mvl/mxv
 BYTE   W01
 BYTE   VOL   13*CastlevaniaSymphonyoftheNightDraculasCastle_mvl/mxv
 BYTE   W01
 BYTE   VOL   11*CastlevaniaSymphonyoftheNightDraculasCastle_mvl/mxv
 BYTE   W01
 BYTE   VOL   10*CastlevaniaSymphonyoftheNightDraculasCastle_mvl/mxv
 BYTE   W01
 BYTE   VOL   8*CastlevaniaSymphonyoftheNightDraculasCastle_mvl/mxv
 BYTE   W01
 BYTE   VOL   6*CastlevaniaSymphonyoftheNightDraculasCastle_mvl/mxv
 BYTE   W01
 BYTE   VOL   5*CastlevaniaSymphonyoftheNightDraculasCastle_mvl/mxv
 BYTE   W01
 BYTE   VOL   4*CastlevaniaSymphonyoftheNightDraculasCastle_mvl/mxv
 BYTE   W01
 BYTE   VOL   3*CastlevaniaSymphonyoftheNightDraculasCastle_mvl/mxv
 BYTE   W01
 BYTE   VOL   1*CastlevaniaSymphonyoftheNightDraculasCastle_mvl/mxv
 BYTE   W01
 BYTE   VOL   1*CastlevaniaSymphonyoftheNightDraculasCastle_mvl/mxv
 BYTE   W01
 BYTE   VOL   0*CastlevaniaSymphonyoftheNightDraculasCastle_mvl/mxv
 BYTE   W01
 BYTE   VOL   46*CastlevaniaSymphonyoftheNightDraculasCastle_mvl/mxv
 BYTE   N16  As4  v088
 BYTE   W01
 BYTE   PEND 
//  #02 //041   ----------------------------------------
Label_01308834:
 BYTE   W15
 BYTE   N16  Cn5  v072
 BYTE   W16
 BYTE   N15  Cs5  v088
 BYTE   W16
 BYTE   N16  Cn5  v100
 BYTE   W16
 BYTE   Gs4  v088
 BYTE   W16
 BYTE   N15  Fn4  v072
 BYTE   W16
 BYTE   N16  As4  v088
 BYTE   W01
 BYTE   PEND 
//  #02 //042   ----------------------------------------
Label_0130884D:
 BYTE   W15
 BYTE   N16  Cn5  v072
 BYTE   W16
 BYTE   N15  Cs5  v088
 BYTE   W16
 BYTE   N16  Fn5  v100
 BYTE   W16
 BYTE   Ds5  v088
 BYTE   W16
 BYTE   N15  Cn5  v072
 BYTE   W16
 BYTE   VOL   32*CastlevaniaSymphonyoftheNightDraculasCastle_mvl/mxv
 BYTE   N30  Cs5  v100
 BYTE   W01
 BYTE   PEND 
//  #02 //043   ----------------------------------------
Label_01308868:
 BYTE   W01
 BYTE   VOL   33*CastlevaniaSymphonyoftheNightDraculasCastle_mvl/mxv
 BYTE   W01
 BYTE   VOL   34*CastlevaniaSymphonyoftheNightDraculasCastle_mvl/mxv
 BYTE   W02
 BYTE   VOL   34*CastlevaniaSymphonyoftheNightDraculasCastle_mvl/mxv
 BYTE   W01
 BYTE   VOL   34*CastlevaniaSymphonyoftheNightDraculasCastle_mvl/mxv
 BYTE   W02
 BYTE   VOL   35*CastlevaniaSymphonyoftheNightDraculasCastle_mvl/mxv
 BYTE   W01
 BYTE   VOL   35*CastlevaniaSymphonyoftheNightDraculasCastle_mvl/mxv
 BYTE   W02
 BYTE   VOL   36*CastlevaniaSymphonyoftheNightDraculasCastle_mvl/mxv
 BYTE   W01
 BYTE   VOL   37*CastlevaniaSymphonyoftheNightDraculasCastle_mvl/mxv
 BYTE   W02
 BYTE   VOL   37*CastlevaniaSymphonyoftheNightDraculasCastle_mvl/mxv
 BYTE   W01
 BYTE   VOL   37*CastlevaniaSymphonyoftheNightDraculasCastle_mvl/mxv
 BYTE   W02
 BYTE   VOL   38*CastlevaniaSymphonyoftheNightDraculasCastle_mvl/mxv
 BYTE   W01
 BYTE   VOL   39*CastlevaniaSymphonyoftheNightDraculasCastle_mvl/mxv
 BYTE   W02
 BYTE   VOL   40*CastlevaniaSymphonyoftheNightDraculasCastle_mvl/mxv
 BYTE   W01
 BYTE   VOL   40*CastlevaniaSymphonyoftheNightDraculasCastle_mvl/mxv
 BYTE   W02
 BYTE   VOL   40*CastlevaniaSymphonyoftheNightDraculasCastle_mvl/mxv
 BYTE   W01
 BYTE   VOL   41*CastlevaniaSymphonyoftheNightDraculasCastle_mvl/mxv
 BYTE   W02
 BYTE   VOL   41*CastlevaniaSymphonyoftheNightDraculasCastle_mvl/mxv
 BYTE   W01
 BYTE   VOL   42*CastlevaniaSymphonyoftheNightDraculasCastle_mvl/mxv
 BYTE   W02
 BYTE   VOL   43*CastlevaniaSymphonyoftheNightDraculasCastle_mvl/mxv
 BYTE   W01
 BYTE   VOL   44*CastlevaniaSymphonyoftheNightDraculasCastle_mvl/mxv
 BYTE   W02
 BYTE   VOL   44*CastlevaniaSymphonyoftheNightDraculasCastle_mvl/mxv
 BYTE   W01
 BYTE   VOL   45*CastlevaniaSymphonyoftheNightDraculasCastle_mvl/mxv
 BYTE   W02
 BYTE   VOL   45*CastlevaniaSymphonyoftheNightDraculasCastle_mvl/mxv
 BYTE   W01
 BYTE   VOL   46*CastlevaniaSymphonyoftheNightDraculasCastle_mvl/mxv
 BYTE   N07  As4  v072
 BYTE   W06
 BYTE   Cn5  v088
 BYTE   W06
 BYTE   VOL   46*CastlevaniaSymphonyoftheNightDraculasCastle_mvl/mxv
 BYTE   N44  Cs5  v100
 BYTE   W10
 BYTE   VOL   45*CastlevaniaSymphonyoftheNightDraculasCastle_mvl/mxv
 BYTE   W04
 BYTE   VOL   45*CastlevaniaSymphonyoftheNightDraculasCastle_mvl/mxv
 BYTE   W03
 BYTE   VOL   44*CastlevaniaSymphonyoftheNightDraculasCastle_mvl/mxv
 BYTE   W02
 BYTE   VOL   44*CastlevaniaSymphonyoftheNightDraculasCastle_mvl/mxv
 BYTE   W02
 BYTE   VOL   43*CastlevaniaSymphonyoftheNightDraculasCastle_mvl/mxv
 BYTE   W02
 BYTE   VOL   42*CastlevaniaSymphonyoftheNightDraculasCastle_mvl/mxv
 BYTE   W01
 BYTE   VOL   41*CastlevaniaSymphonyoftheNightDraculasCastle_mvl/mxv
 BYTE   W01
 BYTE   VOL   41*CastlevaniaSymphonyoftheNightDraculasCastle_mvl/mxv
 BYTE   W01
 BYTE   VOL   40*CastlevaniaSymphonyoftheNightDraculasCastle_mvl/mxv
 BYTE   W01
 BYTE   VOL   40*CastlevaniaSymphonyoftheNightDraculasCastle_mvl/mxv
 BYTE   W01
 BYTE   VOL   39*CastlevaniaSymphonyoftheNightDraculasCastle_mvl/mxv
 BYTE   W01
 BYTE   VOL   37*CastlevaniaSymphonyoftheNightDraculasCastle_mvl/mxv
 BYTE   W01
 BYTE   VOL   37*CastlevaniaSymphonyoftheNightDraculasCastle_mvl/mxv
 BYTE   W01
 BYTE   VOL   35*CastlevaniaSymphonyoftheNightDraculasCastle_mvl/mxv
 BYTE   W01
 BYTE   VOL   34*CastlevaniaSymphonyoftheNightDraculasCastle_mvl/mxv
 BYTE   W01
 BYTE   VOL   34*CastlevaniaSymphonyoftheNightDraculasCastle_mvl/mxv
 BYTE   W01
 BYTE   VOL   31*CastlevaniaSymphonyoftheNightDraculasCastle_mvl/mxv
 BYTE   W01
 BYTE   VOL   30*CastlevaniaSymphonyoftheNightDraculasCastle_mvl/mxv
 BYTE   W01
 BYTE   VOL   28*CastlevaniaSymphonyoftheNightDraculasCastle_mvl/mxv
 BYTE   W01
 BYTE   VOL   26*CastlevaniaSymphonyoftheNightDraculasCastle_mvl/mxv
 BYTE   W01
 BYTE   VOL   24*CastlevaniaSymphonyoftheNightDraculasCastle_mvl/mxv
 BYTE   W01
 BYTE   VOL   21*CastlevaniaSymphonyoftheNightDraculasCastle_mvl/mxv
 BYTE   W01
 BYTE   VOL   19*CastlevaniaSymphonyoftheNightDraculasCastle_mvl/mxv
 BYTE   W01
 BYTE   VOL   16*CastlevaniaSymphonyoftheNightDraculasCastle_mvl/mxv
 BYTE   W01
 BYTE   VOL   13*CastlevaniaSymphonyoftheNightDraculasCastle_mvl/mxv
 BYTE   W01
 BYTE   VOL   11*CastlevaniaSymphonyoftheNightDraculasCastle_mvl/mxv
 BYTE   W01
 BYTE   VOL   7*CastlevaniaSymphonyoftheNightDraculasCastle_mvl/mxv
 BYTE   W01
 BYTE   VOL   5*CastlevaniaSymphonyoftheNightDraculasCastle_mvl/mxv
 BYTE   W01
 BYTE   VOL   2*CastlevaniaSymphonyoftheNightDraculasCastle_mvl/mxv
 BYTE   W01
 BYTE   VOL   0*CastlevaniaSymphonyoftheNightDraculasCastle_mvl/mxv
 BYTE   W01
 BYTE   VOL   32*CastlevaniaSymphonyoftheNightDraculasCastle_mvl/mxv
 BYTE   N30  Ds5
 BYTE   W01
 BYTE   PEND 
//  #02 //044   ----------------------------------------
Label_013088E8:
 BYTE   W01
 BYTE   VOL   33*CastlevaniaSymphonyoftheNightDraculasCastle_mvl/mxv
 BYTE   W01
 BYTE   VOL   34*CastlevaniaSymphonyoftheNightDraculasCastle_mvl/mxv
 BYTE   W02
 BYTE   VOL   34*CastlevaniaSymphonyoftheNightDraculasCastle_mvl/mxv
 BYTE   W01
 BYTE   VOL   34*CastlevaniaSymphonyoftheNightDraculasCastle_mvl/mxv
 BYTE   W02
 BYTE   VOL   35*CastlevaniaSymphonyoftheNightDraculasCastle_mvl/mxv
 BYTE   W01
 BYTE   VOL   35*CastlevaniaSymphonyoftheNightDraculasCastle_mvl/mxv
 BYTE   W02
 BYTE   VOL   36*CastlevaniaSymphonyoftheNightDraculasCastle_mvl/mxv
 BYTE   W01
 BYTE   VOL   37*CastlevaniaSymphonyoftheNightDraculasCastle_mvl/mxv
 BYTE   W02
 BYTE   VOL   37*CastlevaniaSymphonyoftheNightDraculasCastle_mvl/mxv
 BYTE   W01
 BYTE   VOL   37*CastlevaniaSymphonyoftheNightDraculasCastle_mvl/mxv
 BYTE   W02
 BYTE   VOL   38*CastlevaniaSymphonyoftheNightDraculasCastle_mvl/mxv
 BYTE   W01
 BYTE   VOL   39*CastlevaniaSymphonyoftheNightDraculasCastle_mvl/mxv
 BYTE   W02
 BYTE   VOL   40*CastlevaniaSymphonyoftheNightDraculasCastle_mvl/mxv
 BYTE   W01
 BYTE   VOL   40*CastlevaniaSymphonyoftheNightDraculasCastle_mvl/mxv
 BYTE   W02
 BYTE   VOL   40*CastlevaniaSymphonyoftheNightDraculasCastle_mvl/mxv
 BYTE   W01
 BYTE   VOL   41*CastlevaniaSymphonyoftheNightDraculasCastle_mvl/mxv
 BYTE   W02
 BYTE   VOL   41*CastlevaniaSymphonyoftheNightDraculasCastle_mvl/mxv
 BYTE   W01
 BYTE   VOL   42*CastlevaniaSymphonyoftheNightDraculasCastle_mvl/mxv
 BYTE   W02
 BYTE   VOL   43*CastlevaniaSymphonyoftheNightDraculasCastle_mvl/mxv
 BYTE   W01
 BYTE   VOL   44*CastlevaniaSymphonyoftheNightDraculasCastle_mvl/mxv
 BYTE   W02
 BYTE   VOL   44*CastlevaniaSymphonyoftheNightDraculasCastle_mvl/mxv
 BYTE   W01
 BYTE   VOL   45*CastlevaniaSymphonyoftheNightDraculasCastle_mvl/mxv
 BYTE   W02
 BYTE   VOL   45*CastlevaniaSymphonyoftheNightDraculasCastle_mvl/mxv
 BYTE   W01
 BYTE   VOL   46*CastlevaniaSymphonyoftheNightDraculasCastle_mvl/mxv
 BYTE   N07  Cn5  v072
 BYTE   W06
 BYTE   Cs5  v088
 BYTE   W06
 BYTE   VOL   46*CastlevaniaSymphonyoftheNightDraculasCastle_mvl/mxv
 BYTE   N44  Ds5  v100
 BYTE   W10
 BYTE   VOL   45*CastlevaniaSymphonyoftheNightDraculasCastle_mvl/mxv
 BYTE   W04
 BYTE   VOL   45*CastlevaniaSymphonyoftheNightDraculasCastle_mvl/mxv
 BYTE   W03
 BYTE   VOL   44*CastlevaniaSymphonyoftheNightDraculasCastle_mvl/mxv
 BYTE   W02
 BYTE   VOL   44*CastlevaniaSymphonyoftheNightDraculasCastle_mvl/mxv
 BYTE   W02
 BYTE   VOL   43*CastlevaniaSymphonyoftheNightDraculasCastle_mvl/mxv
 BYTE   W02
 BYTE   VOL   42*CastlevaniaSymphonyoftheNightDraculasCastle_mvl/mxv
 BYTE   W01
 BYTE   VOL   41*CastlevaniaSymphonyoftheNightDraculasCastle_mvl/mxv
 BYTE   W01
 BYTE   VOL   41*CastlevaniaSymphonyoftheNightDraculasCastle_mvl/mxv
 BYTE   W01
 BYTE   VOL   40*CastlevaniaSymphonyoftheNightDraculasCastle_mvl/mxv
 BYTE   W01
 BYTE   VOL   40*CastlevaniaSymphonyoftheNightDraculasCastle_mvl/mxv
 BYTE   W01
 BYTE   VOL   39*CastlevaniaSymphonyoftheNightDraculasCastle_mvl/mxv
 BYTE   W01
 BYTE   VOL   37*CastlevaniaSymphonyoftheNightDraculasCastle_mvl/mxv
 BYTE   W01
 BYTE   VOL   37*CastlevaniaSymphonyoftheNightDraculasCastle_mvl/mxv
 BYTE   W01
 BYTE   VOL   35*CastlevaniaSymphonyoftheNightDraculasCastle_mvl/mxv
 BYTE   W01
 BYTE   VOL   34*CastlevaniaSymphonyoftheNightDraculasCastle_mvl/mxv
 BYTE   W01
 BYTE   VOL   34*CastlevaniaSymphonyoftheNightDraculasCastle_mvl/mxv
 BYTE   W01
 BYTE   VOL   31*CastlevaniaSymphonyoftheNightDraculasCastle_mvl/mxv
 BYTE   W01
 BYTE   VOL   30*CastlevaniaSymphonyoftheNightDraculasCastle_mvl/mxv
 BYTE   W01
 BYTE   VOL   28*CastlevaniaSymphonyoftheNightDraculasCastle_mvl/mxv
 BYTE   W01
 BYTE   VOL   26*CastlevaniaSymphonyoftheNightDraculasCastle_mvl/mxv
 BYTE   W01
 BYTE   VOL   24*CastlevaniaSymphonyoftheNightDraculasCastle_mvl/mxv
 BYTE   W01
 BYTE   VOL   21*CastlevaniaSymphonyoftheNightDraculasCastle_mvl/mxv
 BYTE   W01
 BYTE   VOL   19*CastlevaniaSymphonyoftheNightDraculasCastle_mvl/mxv
 BYTE   W01
 BYTE   VOL   16*CastlevaniaSymphonyoftheNightDraculasCastle_mvl/mxv
 BYTE   W01
 BYTE   VOL   13*CastlevaniaSymphonyoftheNightDraculasCastle_mvl/mxv
 BYTE   W01
 BYTE   VOL   11*CastlevaniaSymphonyoftheNightDraculasCastle_mvl/mxv
 BYTE   W01
 BYTE   VOL   7*CastlevaniaSymphonyoftheNightDraculasCastle_mvl/mxv
 BYTE   W01
 BYTE   VOL   5*CastlevaniaSymphonyoftheNightDraculasCastle_mvl/mxv
 BYTE   W01
 BYTE   VOL   2*CastlevaniaSymphonyoftheNightDraculasCastle_mvl/mxv
 BYTE   W01
 BYTE   VOL   0*CastlevaniaSymphonyoftheNightDraculasCastle_mvl/mxv
 BYTE   W01
 BYTE   VOL   28*CastlevaniaSymphonyoftheNightDraculasCastle_mvl/mxv
 BYTE   TIE  Fn5  v088
 BYTE   W01
 BYTE   PEND 
//  #02 //045   ----------------------------------------
Label_01308969:
 BYTE   W02
 BYTE   VOL   28*CastlevaniaSymphonyoftheNightDraculasCastle_mvl/mxv
 BYTE   W03
 BYTE   VOL   29*CastlevaniaSymphonyoftheNightDraculasCastle_mvl/mxv
 BYTE   W03
 BYTE   VOL   29*CastlevaniaSymphonyoftheNightDraculasCastle_mvl/mxv
 BYTE   W03
 BYTE   VOL   30*CastlevaniaSymphonyoftheNightDraculasCastle_mvl/mxv
 BYTE   W03
 BYTE   VOL   30*CastlevaniaSymphonyoftheNightDraculasCastle_mvl/mxv
 BYTE   W03
 BYTE   VOL   31*CastlevaniaSymphonyoftheNightDraculasCastle_mvl/mxv
 BYTE   W03
 BYTE   VOL   31*CastlevaniaSymphonyoftheNightDraculasCastle_mvl/mxv
 BYTE   W03
 BYTE   VOL   32*CastlevaniaSymphonyoftheNightDraculasCastle_mvl/mxv
 BYTE   W03
 BYTE   VOL   33*CastlevaniaSymphonyoftheNightDraculasCastle_mvl/mxv
 BYTE   W03
 BYTE   VOL   34*CastlevaniaSymphonyoftheNightDraculasCastle_mvl/mxv
 BYTE   W03
 BYTE   VOL   34*CastlevaniaSymphonyoftheNightDraculasCastle_mvl/mxv
 BYTE   W03
 BYTE   VOL   34*CastlevaniaSymphonyoftheNightDraculasCastle_mvl/mxv
 BYTE   W03
 BYTE   VOL   35*CastlevaniaSymphonyoftheNightDraculasCastle_mvl/mxv
 BYTE   W03
 BYTE   VOL   35*CastlevaniaSymphonyoftheNightDraculasCastle_mvl/mxv
 BYTE   W03
 BYTE   VOL   36*CastlevaniaSymphonyoftheNightDraculasCastle_mvl/mxv
 BYTE   W03
 BYTE   VOL   37*CastlevaniaSymphonyoftheNightDraculasCastle_mvl/mxv
 BYTE   W03
 BYTE   VOL   37*CastlevaniaSymphonyoftheNightDraculasCastle_mvl/mxv
 BYTE   W03
 BYTE   VOL   37*CastlevaniaSymphonyoftheNightDraculasCastle_mvl/mxv
 BYTE   W03
 BYTE   VOL   38*CastlevaniaSymphonyoftheNightDraculasCastle_mvl/mxv
 BYTE   W03
 BYTE   VOL   39*CastlevaniaSymphonyoftheNightDraculasCastle_mvl/mxv
 BYTE   W03
 BYTE   VOL   40*CastlevaniaSymphonyoftheNightDraculasCastle_mvl/mxv
 BYTE   W03
 BYTE   VOL   40*CastlevaniaSymphonyoftheNightDraculasCastle_mvl/mxv
 BYTE   W03
 BYTE   VOL   40*CastlevaniaSymphonyoftheNightDraculasCastle_mvl/mxv
 BYTE   W03
 BYTE   VOL   41*CastlevaniaSymphonyoftheNightDraculasCastle_mvl/mxv
 BYTE   W03
 BYTE   VOL   41*CastlevaniaSymphonyoftheNightDraculasCastle_mvl/mxv
 BYTE   W03
 BYTE   VOL   42*CastlevaniaSymphonyoftheNightDraculasCastle_mvl/mxv
 BYTE   W03
 BYTE   VOL   43*CastlevaniaSymphonyoftheNightDraculasCastle_mvl/mxv
 BYTE   W03
 BYTE   VOL   44*CastlevaniaSymphonyoftheNightDraculasCastle_mvl/mxv
 BYTE   W03
 BYTE   VOL   44*CastlevaniaSymphonyoftheNightDraculasCastle_mvl/mxv
 BYTE   W03
 BYTE   VOL   45*CastlevaniaSymphonyoftheNightDraculasCastle_mvl/mxv
 BYTE   W03
 BYTE   VOL   45*CastlevaniaSymphonyoftheNightDraculasCastle_mvl/mxv
 BYTE   W03
 BYTE   VOL   46*CastlevaniaSymphonyoftheNightDraculasCastle_mvl/mxv
 BYTE   W01
 BYTE   PEND 
//  #02 //046   ----------------------------------------
Label_013089AC:
 BYTE   W19
 BYTE   VOL   45*CastlevaniaSymphonyoftheNightDraculasCastle_mvl/mxv
 BYTE   W08
 BYTE   VOL   45*CastlevaniaSymphonyoftheNightDraculasCastle_mvl/mxv
 BYTE   W06
 BYTE   VOL   44*CastlevaniaSymphonyoftheNightDraculasCastle_mvl/mxv
 BYTE   W05
 BYTE   VOL   44*CastlevaniaSymphonyoftheNightDraculasCastle_mvl/mxv
 BYTE   W03
 BYTE   VOL   43*CastlevaniaSymphonyoftheNightDraculasCastle_mvl/mxv
 BYTE   W03
 BYTE   VOL   42*CastlevaniaSymphonyoftheNightDraculasCastle_mvl/mxv
 BYTE   W03
 BYTE   VOL   41*CastlevaniaSymphonyoftheNightDraculasCastle_mvl/mxv
 BYTE   W01
 BYTE   VOL   41*CastlevaniaSymphonyoftheNightDraculasCastle_mvl/mxv
 BYTE   W02
 BYTE   VOL   40*CastlevaniaSymphonyoftheNightDraculasCastle_mvl/mxv
 BYTE   W02
 BYTE   VOL   40*CastlevaniaSymphonyoftheNightDraculasCastle_mvl/mxv
 BYTE   W02
 BYTE   VOL   40*CastlevaniaSymphonyoftheNightDraculasCastle_mvl/mxv
 BYTE   W01
 BYTE   VOL   39*CastlevaniaSymphonyoftheNightDraculasCastle_mvl/mxv
 BYTE   W02
 BYTE   VOL   38*CastlevaniaSymphonyoftheNightDraculasCastle_mvl/mxv
 BYTE   W01
 BYTE   VOL   37*CastlevaniaSymphonyoftheNightDraculasCastle_mvl/mxv
 BYTE   W01
 BYTE   VOL   37*CastlevaniaSymphonyoftheNightDraculasCastle_mvl/mxv
 BYTE   W01
 BYTE   VOL   37*CastlevaniaSymphonyoftheNightDraculasCastle_mvl/mxv
 BYTE   W01
 BYTE   VOL   36*CastlevaniaSymphonyoftheNightDraculasCastle_mvl/mxv
 BYTE   W01
 BYTE   VOL   35*CastlevaniaSymphonyoftheNightDraculasCastle_mvl/mxv
 BYTE   W01
 BYTE   VOL   35*CastlevaniaSymphonyoftheNightDraculasCastle_mvl/mxv
 BYTE   W01
 BYTE   VOL   34*CastlevaniaSymphonyoftheNightDraculasCastle_mvl/mxv
 BYTE   W01
 BYTE   VOL   34*CastlevaniaSymphonyoftheNightDraculasCastle_mvl/mxv
 BYTE   W01
 BYTE   VOL   33*CastlevaniaSymphonyoftheNightDraculasCastle_mvl/mxv
 BYTE   W01
 BYTE   VOL   31*CastlevaniaSymphonyoftheNightDraculasCastle_mvl/mxv
 BYTE   W01
 BYTE   VOL   31*CastlevaniaSymphonyoftheNightDraculasCastle_mvl/mxv
 BYTE   W01
 BYTE   VOL   30*CastlevaniaSymphonyoftheNightDraculasCastle_mvl/mxv
 BYTE   W01
 BYTE   VOL   29*CastlevaniaSymphonyoftheNightDraculasCastle_mvl/mxv
 BYTE   W01
 BYTE   VOL   28*CastlevaniaSymphonyoftheNightDraculasCastle_mvl/mxv
 BYTE   W01
 BYTE   VOL   28*CastlevaniaSymphonyoftheNightDraculasCastle_mvl/mxv
 BYTE   W01
 BYTE   VOL   27*CastlevaniaSymphonyoftheNightDraculasCastle_mvl/mxv
 BYTE   W01
 BYTE   VOL   25*CastlevaniaSymphonyoftheNightDraculasCastle_mvl/mxv
 BYTE   W01
 BYTE   VOL   24*CastlevaniaSymphonyoftheNightDraculasCastle_mvl/mxv
 BYTE   W01
 BYTE   VOL   23*CastlevaniaSymphonyoftheNightDraculasCastle_mvl/mxv
 BYTE   W01
 BYTE   VOL   22*CastlevaniaSymphonyoftheNightDraculasCastle_mvl/mxv
 BYTE   W01
 BYTE   VOL   20*CastlevaniaSymphonyoftheNightDraculasCastle_mvl/mxv
 BYTE   W01
 BYTE   VOL   19*CastlevaniaSymphonyoftheNightDraculasCastle_mvl/mxv
 BYTE   W01
 BYTE   VOL   18*CastlevaniaSymphonyoftheNightDraculasCastle_mvl/mxv
 BYTE   W01
 BYTE   VOL   17*CastlevaniaSymphonyoftheNightDraculasCastle_mvl/mxv
 BYTE   W01
 BYTE   VOL   15*CastlevaniaSymphonyoftheNightDraculasCastle_mvl/mxv
 BYTE   W01
 BYTE   VOL   14*CastlevaniaSymphonyoftheNightDraculasCastle_mvl/mxv
 BYTE   W01
 BYTE   VOL   13*CastlevaniaSymphonyoftheNightDraculasCastle_mvl/mxv
 BYTE   W01
 BYTE   VOL   11*CastlevaniaSymphonyoftheNightDraculasCastle_mvl/mxv
 BYTE   W01
 BYTE   VOL   10*CastlevaniaSymphonyoftheNightDraculasCastle_mvl/mxv
 BYTE   W01
 BYTE   VOL   8*CastlevaniaSymphonyoftheNightDraculasCastle_mvl/mxv
 BYTE   W01
 BYTE   VOL   6*CastlevaniaSymphonyoftheNightDraculasCastle_mvl/mxv
 BYTE   W01
 BYTE   VOL   5*CastlevaniaSymphonyoftheNightDraculasCastle_mvl/mxv
 BYTE   W01
 BYTE   VOL   4*CastlevaniaSymphonyoftheNightDraculasCastle_mvl/mxv
 BYTE   W01
 BYTE   VOL   3*CastlevaniaSymphonyoftheNightDraculasCastle_mvl/mxv
 BYTE   W01
 BYTE   VOL   1*CastlevaniaSymphonyoftheNightDraculasCastle_mvl/mxv
 BYTE   W01
 BYTE   VOL   1*CastlevaniaSymphonyoftheNightDraculasCastle_mvl/mxv
 BYTE   W01
 BYTE   PEND 
 BYTE   EOT
 BYTE   Fn5
 BYTE   VOL   0*CastlevaniaSymphonyoftheNightDraculasCastle_mvl/mxv
 BYTE   W01
 BYTE   VOL   0*CastlevaniaSymphonyoftheNightDraculasCastle_mvl/mxv
 BYTE   W01
//  #02 //047   ----------------------------------------
 BYTE   W96
//  #02 //048   ----------------------------------------
 BYTE   W96
//  #02 //049   ----------------------------------------
 BYTE   W96
//  #02 //050   ----------------------------------------
 BYTE   W96
//  #02 //051   ----------------------------------------
 BYTE   W96
//  #02 //052   ----------------------------------------
 BYTE   W96
//  #02 //053   ----------------------------------------
 BYTE   W96
//  #02 //054   ----------------------------------------
 BYTE   W96
//  #02 //055   ----------------------------------------
 BYTE   W96
//  #02 //056   ----------------------------------------
Label_01308A21:
 BYTE   W92
 BYTE   W03
 BYTE   VOL   14*CastlevaniaSymphonyoftheNightDraculasCastle_mvl/mxv
 BYTE   N24  Fn4  v072
 BYTE   W01
 BYTE   PEND 
//  #02 //057   ----------------------------------------
Label_01308A2A:
 BYTE   VOL   15*CastlevaniaSymphonyoftheNightDraculasCastle_mvl/mxv
 BYTE   W01
 BYTE   VOL   16*CastlevaniaSymphonyoftheNightDraculasCastle_mvl/mxv
 BYTE   W01
 BYTE   VOL   17*CastlevaniaSymphonyoftheNightDraculasCastle_mvl/mxv
 BYTE   W01
 BYTE   VOL   18*CastlevaniaSymphonyoftheNightDraculasCastle_mvl/mxv
 BYTE   W01
 BYTE   VOL   19*CastlevaniaSymphonyoftheNightDraculasCastle_mvl/mxv
 BYTE   W01
 BYTE   VOL   20*CastlevaniaSymphonyoftheNightDraculasCastle_mvl/mxv
 BYTE   W01
 BYTE   VOL   22*CastlevaniaSymphonyoftheNightDraculasCastle_mvl/mxv
 BYTE   W01
 BYTE   VOL   22*CastlevaniaSymphonyoftheNightDraculasCastle_mvl/mxv
 BYTE   W01
 BYTE   VOL   24*CastlevaniaSymphonyoftheNightDraculasCastle_mvl/mxv
 BYTE   W01
 BYTE   VOL   26*CastlevaniaSymphonyoftheNightDraculasCastle_mvl/mxv
 BYTE   W01
 BYTE   VOL   27*CastlevaniaSymphonyoftheNightDraculasCastle_mvl/mxv
 BYTE   W01
 BYTE   VOL   28*CastlevaniaSymphonyoftheNightDraculasCastle_mvl/mxv
 BYTE   W01
 BYTE   VOL   29*CastlevaniaSymphonyoftheNightDraculasCastle_mvl/mxv
 BYTE   W01
 BYTE   VOL   31*CastlevaniaSymphonyoftheNightDraculasCastle_mvl/mxv
 BYTE   W01
 BYTE   VOL   32*CastlevaniaSymphonyoftheNightDraculasCastle_mvl/mxv
 BYTE   W01
 BYTE   VOL   34*CastlevaniaSymphonyoftheNightDraculasCastle_mvl/mxv
 BYTE   W01
 BYTE   VOL   35*CastlevaniaSymphonyoftheNightDraculasCastle_mvl/mxv
 BYTE   W01
 BYTE   VOL   37*CastlevaniaSymphonyoftheNightDraculasCastle_mvl/mxv
 BYTE   W01
 BYTE   VOL   38*CastlevaniaSymphonyoftheNightDraculasCastle_mvl/mxv
 BYTE   W01
 BYTE   VOL   40*CastlevaniaSymphonyoftheNightDraculasCastle_mvl/mxv
 BYTE   W01
 BYTE   VOL   41*CastlevaniaSymphonyoftheNightDraculasCastle_mvl/mxv
 BYTE   W01
 BYTE   VOL   43*CastlevaniaSymphonyoftheNightDraculasCastle_mvl/mxv
 BYTE   W01
 BYTE   VOL   45*CastlevaniaSymphonyoftheNightDraculasCastle_mvl/mxv
 BYTE   W01
 BYTE   VOL   46*CastlevaniaSymphonyoftheNightDraculasCastle_mvl/mxv
 BYTE   N08  Fs4  v100
 BYTE   W36
 BYTE   N06  As4  v116
 BYTE   W18
 BYTE   An4  v100
 BYTE   W18
 BYTE   N11  Fn4  v116
 BYTE   W01
 BYTE   PEND 
//  #02 //058   ----------------------------------------
 BYTE   W96
//  #02 //059   ----------------------------------------
 BYTE   GoTo
  POIN2 Label_0130863B
//  #02 //060   ----------------------------------------
 BYTE   W96
//  #02 //061   ----------------------------------------
 BYTE   W96
//  #02 //062   ----------------------------------------
 BYTE   PATT
  POIN2 Label_0130863D
//  #02 //063   ----------------------------------------
 BYTE   PATT
  POIN2 Label_01308644
//  #02 //064   ----------------------------------------
 BYTE   W96
//  #02 //065   ----------------------------------------
 BYTE   W96
//  #02 //066   ----------------------------------------
 BYTE   PATT
  POIN2 Label_0130863D
//  #02 //067   ----------------------------------------
 BYTE   PATT
  POIN2 Label_0130865A
//  #02 //068   ----------------------------------------
 BYTE   PATT
  POIN2 Label_0130866C
//  #02 //069   ----------------------------------------
 BYTE   PATT
  POIN2 Label_01308673
//  #02 //070   ----------------------------------------
 BYTE   PATT
  POIN2 Label_0130867C
//  #02 //071   ----------------------------------------
 BYTE   PATT
  POIN2 Label_0130868A
//  #02 //072   ----------------------------------------
 BYTE   PATT
  POIN2 Label_01308695
//  #02 //073   ----------------------------------------
 BYTE   PATT
  POIN2 Label_013086A0
//  #02 //074   ----------------------------------------
 BYTE   PATT
  POIN2 Label_013086A7
//  #02 //075   ----------------------------------------
 BYTE   PATT
  POIN2 Label_01308592
//  #02 //076   ----------------------------------------
 BYTE   PATT
  POIN2 Label_013085A4
//  #02 //077   ----------------------------------------
 BYTE   EOT
 BYTE   Dn3
 BYTE   VOL   0*CastlevaniaSymphonyoftheNightDraculasCastle_mvl/mxv
 BYTE   W01
 BYTE   VOL   0*CastlevaniaSymphonyoftheNightDraculasCastle_mvl/mxv
 BYTE   W01
 BYTE   W96
//  #02 //078   ----------------------------------------
 BYTE   W96
//  #02 //079   ----------------------------------------
 BYTE   W96
//  #02 //080   ----------------------------------------
 BYTE   PATT
  POIN2 Label_013086CF
//  #02 //081   ----------------------------------------
 BYTE   PATT
  POIN2 Label_013086D8
//  #02 //082   ----------------------------------------
 BYTE   PATT
  POIN2 Label_013086F1
//  #02 //083   ----------------------------------------
 BYTE   PATT
  POIN2 Label_01308706
//  #02 //084   ----------------------------------------
 BYTE   PATT
  POIN2 Label_0130871F
//  #02 //085   ----------------------------------------
 BYTE   PATT
  POIN2 Label_01308726
//  #02 //086   ----------------------------------------
 BYTE   PATT
  POIN2 Label_01308741
//  #02 //087   ----------------------------------------
 BYTE   PATT
  POIN2 Label_013087AD
//  #02 //088   ----------------------------------------
 BYTE   PATT
  POIN2 Label_013087C8
//  #02 //089   ----------------------------------------
 BYTE   PATT
  POIN2 Label_01308834
//  #02 //090   ----------------------------------------
 BYTE   PATT
  POIN2 Label_0130884D
//  #02 //091   ----------------------------------------
 BYTE   PATT
  POIN2 Label_01308868
//  #02 //092   ----------------------------------------
 BYTE   PATT
  POIN2 Label_013088E8
//  #02 //093   ----------------------------------------
 BYTE   PATT
  POIN2 Label_01308969
//  #02 //094   ----------------------------------------
 BYTE   PATT
  POIN2 Label_013089AC
//  #02 //095   ----------------------------------------
 BYTE   EOT
 BYTE   Fn5
 BYTE   VOL   0*CastlevaniaSymphonyoftheNightDraculasCastle_mvl/mxv
 BYTE   W01
 BYTE   VOL   0*CastlevaniaSymphonyoftheNightDraculasCastle_mvl/mxv
 BYTE   W01
 BYTE   W96
//  #02 //096   ----------------------------------------
 BYTE   W96
//  #02 //097   ----------------------------------------
 BYTE   W96
//  #02 //098   ----------------------------------------
 BYTE   W96
//  #02 //099   ----------------------------------------
 BYTE   W96
//  #02 //100   ----------------------------------------
 BYTE   W96
//  #02 //101   ----------------------------------------
 BYTE   W96
//  #02 //102   ----------------------------------------
 BYTE   W96
//  #02 //103   ----------------------------------------
 BYTE   W96
//  #02 //104   ----------------------------------------
 BYTE   PATT
  POIN2 Label_01308A21
//  #02 //105   ----------------------------------------
 BYTE   PATT
  POIN2 Label_01308A2A
//  #02 //106   ----------------------------------------
 BYTE   W10
 BYTE   FINE

//**************** Track 3 (Midi-Chn.2) ****************//

CastlevaniaSymphonyoftheNightDraculasCastle_003:
//  #03 //000   ----------------------------------------
 BYTE   KEYSH   CastlevaniaSymphonyoftheNightDraculasCastle_key+0
 BYTE   VOICE   50
 BYTE   MODT 0
 BYTE   LFOS 44
 BYTE   VOL   80*CastlevaniaSymphonyoftheNightDraculasCastle_mvl/mxv
 BYTE   PAN   c_v-20
 BYTE   VOL   50*CastlevaniaSymphonyoftheNightDraculasCastle_mvl/mxv
 BYTE   MOD 0
 BYTE   W96
//  #03 //001   ----------------------------------------
 BYTE   W96
//  #03 //002   ----------------------------------------
 BYTE   W96
//  #03 //003   ----------------------------------------
 BYTE   W96
//  #03 //004   ----------------------------------------
 BYTE   W96
//  #03 //005   ----------------------------------------
 BYTE   W96
//  #03 //006   ----------------------------------------
 BYTE   W96
//  #03 //007   ----------------------------------------
 BYTE   W96
//  #03 //008   ----------------------------------------
 BYTE   W96
//  #03 //009   ----------------------------------------
 BYTE   W96
//  #03 //010   ----------------------------------------
 BYTE   W96
//  #03 //011   ----------------------------------------
 BYTE   W96
//  #03 //012   ----------------------------------------
Label_012D28A4:
 BYTE   N44  Gn2  v048
 BYTE   N44  As2
 BYTE   N44  Dn3
 BYTE   W44
 BYTE   W03
 BYTE   Gn2
 BYTE   N44  Cn3
 BYTE   N44  Ds3
 BYTE   W48
 BYTE   Gn2
 BYTE   N44  As2
 BYTE   N44  Dn3
 BYTE   W01
 BYTE   PEND 
//  #03 //013   ----------------------------------------
Label_012D28BA:
 BYTE   W44
 BYTE   W03
 BYTE   N44  Gn2  v048
 BYTE   N44  As2
 BYTE   N44  Ds3
 BYTE   W48
 BYTE   Gn2
 BYTE   N44  As2
 BYTE   N44  Ds3
 BYTE   W01
 BYTE   PEND 
//  #03 //014   ----------------------------------------
Label_012D28CB:
 BYTE   W44
 BYTE   W03
 BYTE   N44  An2  v048
 BYTE   N44  Cn3
 BYTE   N44  Fn3
 BYTE   W48
 BYTE   Dn3
 BYTE   N92  Gn3  v060
 BYTE   W01
 BYTE   PEND 
//  #03 //015   ----------------------------------------
Label_012D28DB:
 BYTE   W44
 BYTE   W03
 BYTE   N44  Dn3  v048
 BYTE   W48
 BYTE   Gn2
 BYTE   N44  As2
 BYTE   N44  Dn3
 BYTE   W01
 BYTE   PEND 
//  #03 //016   ----------------------------------------
Label_012D28E8:
 BYTE   W44
 BYTE   W03
 BYTE   N44  Gn2  v048
 BYTE   N44  Cn3
 BYTE   N44  Ds3
 BYTE   W48
 BYTE   Gn2
 BYTE   N44  As2
 BYTE   N44  Dn3
 BYTE   W01
 BYTE   PEND 
//  #03 //017   ----------------------------------------
 BYTE   PATT
  POIN2 Label_012D28BA
//  #03 //018   ----------------------------------------
 BYTE   PATT
  POIN2 Label_012D28CB
//  #03 //019   ----------------------------------------
Label_012D2903:
 BYTE   W44
 BYTE   W03
 BYTE   N44  Dn3  v048
 BYTE   W48
 BYTE   W01
 BYTE   PEND 
//  #03 //020   ----------------------------------------
 BYTE   W96
//  #03 //021   ----------------------------------------
 BYTE   W96
//  #03 //022   ----------------------------------------
 BYTE   W96
//  #03 //023   ----------------------------------------
 BYTE   W96
//  #03 //024   ----------------------------------------
 BYTE   W96
//  #03 //025   ----------------------------------------
 BYTE   W96
//  #03 //026   ----------------------------------------
Label_012D2911:
 BYTE   W92
 BYTE   W03
 BYTE   N09  Dn5  v036
 BYTE   W01
 BYTE   PEND 
//  #03 //027   ----------------------------------------
Label_012D2918:
 BYTE   W23
 BYTE   N09  Dn5  v048
 BYTE   W24
 BYTE   Dn5  v072
 BYTE   W24
 BYTE   Dn5  v088
 BYTE   W24
 BYTE   Dn5  v100
 BYTE   W01
 BYTE   PEND 
//  #03 //028   ----------------------------------------
Label_012D2927:
 BYTE   W23
 BYTE   N09  Dn5  v088
 BYTE   W24
 BYTE   N07  Dn5  v100
 BYTE   W06
 BYTE   An4  v088
 BYTE   W06
 BYTE   Gn4  v072
 BYTE   W06
 BYTE   Fs4  v060
 BYTE   W06
 BYTE   Dn4  v072
 BYTE   W06
 BYTE   An3  v060
 BYTE   W06
 BYTE   Gn3  v048
 BYTE   W06
 BYTE   N05  Fs3  v036
 BYTE   W06
 BYTE   N92  Dn3  v048
 BYTE   N92  Gn3
 BYTE   N92  As3
 BYTE   W01
 BYTE   PEND 
//  #03 //029   ----------------------------------------
Label_012D294F:
 BYTE   W92
 BYTE   W03
 BYTE   N92  Cn3  v048
 BYTE   N92  Fn3
 BYTE   N92  An3
 BYTE   W01
 BYTE   PEND 
//  #03 //030   ----------------------------------------
Label_012D295A:
 BYTE   W92
 BYTE   W03
 BYTE   N92  As2  v048
 BYTE   N92  Ds3
 BYTE   N92  Gn3
 BYTE   W01
 BYTE   PEND 
//  #03 //031   ----------------------------------------
Label_012D2965:
 BYTE   W92
 BYTE   W03
 BYTE   N44  An2  v048
 BYTE   N44  Dn3
 BYTE   N44  Fs3
 BYTE   W01
 BYTE   PEND 
//  #03 //032   ----------------------------------------
Label_012D2970:
 BYTE   W44
 BYTE   W03
 BYTE   N22  Cn3  v060
 BYTE   N22  En3
 BYTE   N22  Gn3
 BYTE   W24
 BYTE   Dn3  v068
 BYTE   N22  Fs3
 BYTE   N22  An3
 BYTE   W24
 BYTE   N92  Dn3  v048
 BYTE   N92  Gn3
 BYTE   N92  As3
 BYTE   W01
 BYTE   PEND 
//  #03 //033   ----------------------------------------
 BYTE   PATT
  POIN2 Label_012D294F
//  #03 //034   ----------------------------------------
 BYTE   PATT
  POIN2 Label_012D295A
//  #03 //035   ----------------------------------------
Label_012D2994:
 BYTE   W92
 BYTE   W03
 BYTE   N22  An2  v068
 BYTE   N22  Dn3
 BYTE   N22  Fs3
 BYTE   W01
 BYTE   PEND 
//  #03 //036   ----------------------------------------
Label_012D299F:
 BYTE   W23
 BYTE   N24  An2  v072
 BYTE   W24
 BYTE   As2  v088
 BYTE   W24
 BYTE   Cn3  v100
 BYTE   W24
 BYTE   N16  Ds3  v088
 BYTE   W01
 BYTE   PEND 
//  #03 //037   ----------------------------------------
Label_012D29AF:
 BYTE   W15
 BYTE   N16  Fn3  v072
 BYTE   W16
 BYTE   N15  Gn3  v088
 BYTE   W16
 BYTE   N16  Fn3  v100
 BYTE   W16
 BYTE   Cn3  v088
 BYTE   W16
 BYTE   N15  Fn3  v072
 BYTE   W16
 BYTE   VOL   50*CastlevaniaSymphonyoftheNightDraculasCastle_mvl/mxv
 BYTE   N92  Dn3  v088
 BYTE   W01
 BYTE   PEND 
//  #03 //038   ----------------------------------------
Label_012D29CA:
 BYTE   W19
 BYTE   VOL   49*CastlevaniaSymphonyoftheNightDraculasCastle_mvl/mxv
 BYTE   W08
 BYTE   VOL   48*CastlevaniaSymphonyoftheNightDraculasCastle_mvl/mxv
 BYTE   W06
 BYTE   VOL   47*CastlevaniaSymphonyoftheNightDraculasCastle_mvl/mxv
 BYTE   W05
 BYTE   VOL   46*CastlevaniaSymphonyoftheNightDraculasCastle_mvl/mxv
 BYTE   W03
 BYTE   VOL   46*CastlevaniaSymphonyoftheNightDraculasCastle_mvl/mxv
 BYTE   W03
 BYTE   VOL   45*CastlevaniaSymphonyoftheNightDraculasCastle_mvl/mxv
 BYTE   W03
 BYTE   VOL   45*CastlevaniaSymphonyoftheNightDraculasCastle_mvl/mxv
 BYTE   W01
 BYTE   VOL   44*CastlevaniaSymphonyoftheNightDraculasCastle_mvl/mxv
 BYTE   W02
 BYTE   VOL   44*CastlevaniaSymphonyoftheNightDraculasCastle_mvl/mxv
 BYTE   W02
 BYTE   VOL   43*CastlevaniaSymphonyoftheNightDraculasCastle_mvl/mxv
 BYTE   W02
 BYTE   VOL   42*CastlevaniaSymphonyoftheNightDraculasCastle_mvl/mxv
 BYTE   W01
 BYTE   VOL   41*CastlevaniaSymphonyoftheNightDraculasCastle_mvl/mxv
 BYTE   W02
 BYTE   VOL   41*CastlevaniaSymphonyoftheNightDraculasCastle_mvl/mxv
 BYTE   W01
 BYTE   VOL   40*CastlevaniaSymphonyoftheNightDraculasCastle_mvl/mxv
 BYTE   W01
 BYTE   VOL   40*CastlevaniaSymphonyoftheNightDraculasCastle_mvl/mxv
 BYTE   W01
 BYTE   VOL   39*CastlevaniaSymphonyoftheNightDraculasCastle_mvl/mxv
 BYTE   W01
 BYTE   VOL   39*CastlevaniaSymphonyoftheNightDraculasCastle_mvl/mxv
 BYTE   W01
 BYTE   VOL   38*CastlevaniaSymphonyoftheNightDraculasCastle_mvl/mxv
 BYTE   W01
 BYTE   VOL   37*CastlevaniaSymphonyoftheNightDraculasCastle_mvl/mxv
 BYTE   W01
 BYTE   VOL   37*CastlevaniaSymphonyoftheNightDraculasCastle_mvl/mxv
 BYTE   W01
 BYTE   VOL   36*CastlevaniaSymphonyoftheNightDraculasCastle_mvl/mxv
 BYTE   W01
 BYTE   VOL   35*CastlevaniaSymphonyoftheNightDraculasCastle_mvl/mxv
 BYTE   W01
 BYTE   VOL   34*CastlevaniaSymphonyoftheNightDraculasCastle_mvl/mxv
 BYTE   W01
 BYTE   VOL   34*CastlevaniaSymphonyoftheNightDraculasCastle_mvl/mxv
 BYTE   W01
 BYTE   VOL   32*CastlevaniaSymphonyoftheNightDraculasCastle_mvl/mxv
 BYTE   W01
 BYTE   VOL   31*CastlevaniaSymphonyoftheNightDraculasCastle_mvl/mxv
 BYTE   W01
 BYTE   VOL   30*CastlevaniaSymphonyoftheNightDraculasCastle_mvl/mxv
 BYTE   W01
 BYTE   VOL   30*CastlevaniaSymphonyoftheNightDraculasCastle_mvl/mxv
 BYTE   W01
 BYTE   VOL   28*CastlevaniaSymphonyoftheNightDraculasCastle_mvl/mxv
 BYTE   W01
 BYTE   VOL   27*CastlevaniaSymphonyoftheNightDraculasCastle_mvl/mxv
 BYTE   W01
 BYTE   VOL   26*CastlevaniaSymphonyoftheNightDraculasCastle_mvl/mxv
 BYTE   W01
 BYTE   VOL   25*CastlevaniaSymphonyoftheNightDraculasCastle_mvl/mxv
 BYTE   W01
 BYTE   VOL   23*CastlevaniaSymphonyoftheNightDraculasCastle_mvl/mxv
 BYTE   W01
 BYTE   VOL   22*CastlevaniaSymphonyoftheNightDraculasCastle_mvl/mxv
 BYTE   W01
 BYTE   VOL   20*CastlevaniaSymphonyoftheNightDraculasCastle_mvl/mxv
 BYTE   W01
 BYTE   VOL   19*CastlevaniaSymphonyoftheNightDraculasCastle_mvl/mxv
 BYTE   W01
 BYTE   VOL   18*CastlevaniaSymphonyoftheNightDraculasCastle_mvl/mxv
 BYTE   W01
 BYTE   VOL   17*CastlevaniaSymphonyoftheNightDraculasCastle_mvl/mxv
 BYTE   W01
 BYTE   VOL   15*CastlevaniaSymphonyoftheNightDraculasCastle_mvl/mxv
 BYTE   W01
 BYTE   VOL   14*CastlevaniaSymphonyoftheNightDraculasCastle_mvl/mxv
 BYTE   W01
 BYTE   VOL   12*CastlevaniaSymphonyoftheNightDraculasCastle_mvl/mxv
 BYTE   W01
 BYTE   VOL   10*CastlevaniaSymphonyoftheNightDraculasCastle_mvl/mxv
 BYTE   W01
 BYTE   VOL   9*CastlevaniaSymphonyoftheNightDraculasCastle_mvl/mxv
 BYTE   W01
 BYTE   VOL   7*CastlevaniaSymphonyoftheNightDraculasCastle_mvl/mxv
 BYTE   W01
 BYTE   VOL   6*CastlevaniaSymphonyoftheNightDraculasCastle_mvl/mxv
 BYTE   W01
 BYTE   VOL   5*CastlevaniaSymphonyoftheNightDraculasCastle_mvl/mxv
 BYTE   W01
 BYTE   VOL   3*CastlevaniaSymphonyoftheNightDraculasCastle_mvl/mxv
 BYTE   W01
 BYTE   VOL   1*CastlevaniaSymphonyoftheNightDraculasCastle_mvl/mxv
 BYTE   W01
 BYTE   VOL   1*CastlevaniaSymphonyoftheNightDraculasCastle_mvl/mxv
 BYTE   W01
 BYTE   VOL   0*CastlevaniaSymphonyoftheNightDraculasCastle_mvl/mxv
 BYTE   W01
 BYTE   VOL   50*CastlevaniaSymphonyoftheNightDraculasCastle_mvl/mxv
 BYTE   N16  Gn3  v088
 BYTE   W01
 BYTE   PEND 
//  #03 //039   ----------------------------------------
Label_012D2A36:
 BYTE   W15
 BYTE   N16  An3  v072
 BYTE   W16
 BYTE   N15  As3  v088
 BYTE   W16
 BYTE   N16  An3  v100
 BYTE   W16
 BYTE   Fn3  v088
 BYTE   W16
 BYTE   N15  Dn3  v072
 BYTE   W16
 BYTE   VOL   50*CastlevaniaSymphonyoftheNightDraculasCastle_mvl/mxv
 BYTE   N92  Gn3  v100
 BYTE   W01
 BYTE   PEND 
//  #03 //040   ----------------------------------------
Label_012D2A51:
 BYTE   W19
 BYTE   VOL   49*CastlevaniaSymphonyoftheNightDraculasCastle_mvl/mxv
 BYTE   W08
 BYTE   VOL   48*CastlevaniaSymphonyoftheNightDraculasCastle_mvl/mxv
 BYTE   W06
 BYTE   VOL   47*CastlevaniaSymphonyoftheNightDraculasCastle_mvl/mxv
 BYTE   W05
 BYTE   VOL   46*CastlevaniaSymphonyoftheNightDraculasCastle_mvl/mxv
 BYTE   W03
 BYTE   VOL   46*CastlevaniaSymphonyoftheNightDraculasCastle_mvl/mxv
 BYTE   W03
 BYTE   VOL   45*CastlevaniaSymphonyoftheNightDraculasCastle_mvl/mxv
 BYTE   W03
 BYTE   VOL   45*CastlevaniaSymphonyoftheNightDraculasCastle_mvl/mxv
 BYTE   W01
 BYTE   VOL   44*CastlevaniaSymphonyoftheNightDraculasCastle_mvl/mxv
 BYTE   W02
 BYTE   VOL   44*CastlevaniaSymphonyoftheNightDraculasCastle_mvl/mxv
 BYTE   W02
 BYTE   VOL   43*CastlevaniaSymphonyoftheNightDraculasCastle_mvl/mxv
 BYTE   W02
 BYTE   VOL   42*CastlevaniaSymphonyoftheNightDraculasCastle_mvl/mxv
 BYTE   W01
 BYTE   VOL   41*CastlevaniaSymphonyoftheNightDraculasCastle_mvl/mxv
 BYTE   W02
 BYTE   VOL   41*CastlevaniaSymphonyoftheNightDraculasCastle_mvl/mxv
 BYTE   W01
 BYTE   VOL   40*CastlevaniaSymphonyoftheNightDraculasCastle_mvl/mxv
 BYTE   W01
 BYTE   VOL   40*CastlevaniaSymphonyoftheNightDraculasCastle_mvl/mxv
 BYTE   W01
 BYTE   VOL   39*CastlevaniaSymphonyoftheNightDraculasCastle_mvl/mxv
 BYTE   W01
 BYTE   VOL   39*CastlevaniaSymphonyoftheNightDraculasCastle_mvl/mxv
 BYTE   W01
 BYTE   VOL   38*CastlevaniaSymphonyoftheNightDraculasCastle_mvl/mxv
 BYTE   W01
 BYTE   VOL   37*CastlevaniaSymphonyoftheNightDraculasCastle_mvl/mxv
 BYTE   W01
 BYTE   VOL   37*CastlevaniaSymphonyoftheNightDraculasCastle_mvl/mxv
 BYTE   W01
 BYTE   VOL   36*CastlevaniaSymphonyoftheNightDraculasCastle_mvl/mxv
 BYTE   W01
 BYTE   VOL   35*CastlevaniaSymphonyoftheNightDraculasCastle_mvl/mxv
 BYTE   W01
 BYTE   VOL   34*CastlevaniaSymphonyoftheNightDraculasCastle_mvl/mxv
 BYTE   W01
 BYTE   VOL   34*CastlevaniaSymphonyoftheNightDraculasCastle_mvl/mxv
 BYTE   W01
 BYTE   VOL   32*CastlevaniaSymphonyoftheNightDraculasCastle_mvl/mxv
 BYTE   W01
 BYTE   VOL   31*CastlevaniaSymphonyoftheNightDraculasCastle_mvl/mxv
 BYTE   W01
 BYTE   VOL   30*CastlevaniaSymphonyoftheNightDraculasCastle_mvl/mxv
 BYTE   W01
 BYTE   VOL   30*CastlevaniaSymphonyoftheNightDraculasCastle_mvl/mxv
 BYTE   W01
 BYTE   VOL   28*CastlevaniaSymphonyoftheNightDraculasCastle_mvl/mxv
 BYTE   W01
 BYTE   VOL   27*CastlevaniaSymphonyoftheNightDraculasCastle_mvl/mxv
 BYTE   W01
 BYTE   VOL   26*CastlevaniaSymphonyoftheNightDraculasCastle_mvl/mxv
 BYTE   W01
 BYTE   VOL   25*CastlevaniaSymphonyoftheNightDraculasCastle_mvl/mxv
 BYTE   W01
 BYTE   VOL   23*CastlevaniaSymphonyoftheNightDraculasCastle_mvl/mxv
 BYTE   W01
 BYTE   VOL   22*CastlevaniaSymphonyoftheNightDraculasCastle_mvl/mxv
 BYTE   W01
 BYTE   VOL   20*CastlevaniaSymphonyoftheNightDraculasCastle_mvl/mxv
 BYTE   W01
 BYTE   VOL   19*CastlevaniaSymphonyoftheNightDraculasCastle_mvl/mxv
 BYTE   W01
 BYTE   VOL   18*CastlevaniaSymphonyoftheNightDraculasCastle_mvl/mxv
 BYTE   W01
 BYTE   VOL   17*CastlevaniaSymphonyoftheNightDraculasCastle_mvl/mxv
 BYTE   W01
 BYTE   VOL   15*CastlevaniaSymphonyoftheNightDraculasCastle_mvl/mxv
 BYTE   W01
 BYTE   VOL   14*CastlevaniaSymphonyoftheNightDraculasCastle_mvl/mxv
 BYTE   W01
 BYTE   VOL   12*CastlevaniaSymphonyoftheNightDraculasCastle_mvl/mxv
 BYTE   W01
 BYTE   VOL   10*CastlevaniaSymphonyoftheNightDraculasCastle_mvl/mxv
 BYTE   W01
 BYTE   VOL   9*CastlevaniaSymphonyoftheNightDraculasCastle_mvl/mxv
 BYTE   W01
 BYTE   VOL   7*CastlevaniaSymphonyoftheNightDraculasCastle_mvl/mxv
 BYTE   W01
 BYTE   VOL   6*CastlevaniaSymphonyoftheNightDraculasCastle_mvl/mxv
 BYTE   W01
 BYTE   VOL   5*CastlevaniaSymphonyoftheNightDraculasCastle_mvl/mxv
 BYTE   W01
 BYTE   VOL   3*CastlevaniaSymphonyoftheNightDraculasCastle_mvl/mxv
 BYTE   W01
 BYTE   VOL   1*CastlevaniaSymphonyoftheNightDraculasCastle_mvl/mxv
 BYTE   W01
 BYTE   VOL   1*CastlevaniaSymphonyoftheNightDraculasCastle_mvl/mxv
 BYTE   W01
 BYTE   VOL   0*CastlevaniaSymphonyoftheNightDraculasCastle_mvl/mxv
 BYTE   W01
 BYTE   VOL   50*CastlevaniaSymphonyoftheNightDraculasCastle_mvl/mxv
 BYTE   N16  As3  v088
 BYTE   W01
 BYTE   PEND 
//  #03 //041   ----------------------------------------
Label_012D2ABD:
 BYTE   W15
 BYTE   N16  Cn4  v072
 BYTE   W16
 BYTE   N15  Cs4  v088
 BYTE   W16
 BYTE   N16  Cn4  v100
 BYTE   W16
 BYTE   Gs3  v088
 BYTE   W16
 BYTE   N15  Fn3  v072
 BYTE   W16
 BYTE   N16  As3  v100
 BYTE   W01
 BYTE   PEND 
//  #03 //042   ----------------------------------------
Label_012D2AD6:
 BYTE   W15
 BYTE   N16  Cn4  v072
 BYTE   W16
 BYTE   N15  Cs4  v088
 BYTE   W16
 BYTE   N16  Fn4  v100
 BYTE   W16
 BYTE   Ds4  v088
 BYTE   W16
 BYTE   N15  Cn4  v072
 BYTE   W16
 BYTE   VOL   34*CastlevaniaSymphonyoftheNightDraculasCastle_mvl/mxv
 BYTE   N30  Cs4  v100
 BYTE   W01
 BYTE   PEND 
//  #03 //043   ----------------------------------------
Label_012D2AF1:
 BYTE   W01
 BYTE   VOL   35*CastlevaniaSymphonyoftheNightDraculasCastle_mvl/mxv
 BYTE   W01
 BYTE   VOL   36*CastlevaniaSymphonyoftheNightDraculasCastle_mvl/mxv
 BYTE   W02
 BYTE   VOL   37*CastlevaniaSymphonyoftheNightDraculasCastle_mvl/mxv
 BYTE   W01
 BYTE   VOL   37*CastlevaniaSymphonyoftheNightDraculasCastle_mvl/mxv
 BYTE   W02
 BYTE   VOL   37*CastlevaniaSymphonyoftheNightDraculasCastle_mvl/mxv
 BYTE   W01
 BYTE   VOL   38*CastlevaniaSymphonyoftheNightDraculasCastle_mvl/mxv
 BYTE   W02
 BYTE   VOL   39*CastlevaniaSymphonyoftheNightDraculasCastle_mvl/mxv
 BYTE   W01
 BYTE   VOL   39*CastlevaniaSymphonyoftheNightDraculasCastle_mvl/mxv
 BYTE   W02
 BYTE   VOL   40*CastlevaniaSymphonyoftheNightDraculasCastle_mvl/mxv
 BYTE   W01
 BYTE   VOL   40*CastlevaniaSymphonyoftheNightDraculasCastle_mvl/mxv
 BYTE   W02
 BYTE   VOL   41*CastlevaniaSymphonyoftheNightDraculasCastle_mvl/mxv
 BYTE   W01
 BYTE   VOL   41*CastlevaniaSymphonyoftheNightDraculasCastle_mvl/mxv
 BYTE   W02
 BYTE   VOL   42*CastlevaniaSymphonyoftheNightDraculasCastle_mvl/mxv
 BYTE   W01
 BYTE   VOL   43*CastlevaniaSymphonyoftheNightDraculasCastle_mvl/mxv
 BYTE   W02
 BYTE   VOL   44*CastlevaniaSymphonyoftheNightDraculasCastle_mvl/mxv
 BYTE   W01
 BYTE   VOL   44*CastlevaniaSymphonyoftheNightDraculasCastle_mvl/mxv
 BYTE   W02
 BYTE   VOL   45*CastlevaniaSymphonyoftheNightDraculasCastle_mvl/mxv
 BYTE   W01
 BYTE   VOL   45*CastlevaniaSymphonyoftheNightDraculasCastle_mvl/mxv
 BYTE   W02
 BYTE   VOL   46*CastlevaniaSymphonyoftheNightDraculasCastle_mvl/mxv
 BYTE   W01
 BYTE   VOL   46*CastlevaniaSymphonyoftheNightDraculasCastle_mvl/mxv
 BYTE   W02
 BYTE   VOL   47*CastlevaniaSymphonyoftheNightDraculasCastle_mvl/mxv
 BYTE   W01
 BYTE   VOL   48*CastlevaniaSymphonyoftheNightDraculasCastle_mvl/mxv
 BYTE   W02
 BYTE   VOL   49*CastlevaniaSymphonyoftheNightDraculasCastle_mvl/mxv
 BYTE   W01
 BYTE   VOL   50*CastlevaniaSymphonyoftheNightDraculasCastle_mvl/mxv
 BYTE   N07  As3  v072
 BYTE   W06
 BYTE   Cn4  v088
 BYTE   W06
 BYTE   VOL   50*CastlevaniaSymphonyoftheNightDraculasCastle_mvl/mxv
 BYTE   N44  Cs4  v100
 BYTE   W10
 BYTE   VOL   49*CastlevaniaSymphonyoftheNightDraculasCastle_mvl/mxv
 BYTE   W04
 BYTE   VOL   48*CastlevaniaSymphonyoftheNightDraculasCastle_mvl/mxv
 BYTE   W03
 BYTE   VOL   47*CastlevaniaSymphonyoftheNightDraculasCastle_mvl/mxv
 BYTE   W02
 BYTE   VOL   46*CastlevaniaSymphonyoftheNightDraculasCastle_mvl/mxv
 BYTE   W02
 BYTE   VOL   46*CastlevaniaSymphonyoftheNightDraculasCastle_mvl/mxv
 BYTE   W02
 BYTE   VOL   45*CastlevaniaSymphonyoftheNightDraculasCastle_mvl/mxv
 BYTE   W01
 BYTE   VOL   45*CastlevaniaSymphonyoftheNightDraculasCastle_mvl/mxv
 BYTE   W01
 BYTE   VOL   44*CastlevaniaSymphonyoftheNightDraculasCastle_mvl/mxv
 BYTE   W01
 BYTE   VOL   44*CastlevaniaSymphonyoftheNightDraculasCastle_mvl/mxv
 BYTE   W01
 BYTE   VOL   42*CastlevaniaSymphonyoftheNightDraculasCastle_mvl/mxv
 BYTE   W01
 BYTE   VOL   41*CastlevaniaSymphonyoftheNightDraculasCastle_mvl/mxv
 BYTE   W01
 BYTE   VOL   40*CastlevaniaSymphonyoftheNightDraculasCastle_mvl/mxv
 BYTE   W01
 BYTE   VOL   40*CastlevaniaSymphonyoftheNightDraculasCastle_mvl/mxv
 BYTE   W01
 BYTE   VOL   38*CastlevaniaSymphonyoftheNightDraculasCastle_mvl/mxv
 BYTE   W01
 BYTE   VOL   37*CastlevaniaSymphonyoftheNightDraculasCastle_mvl/mxv
 BYTE   W01
 BYTE   VOL   36*CastlevaniaSymphonyoftheNightDraculasCastle_mvl/mxv
 BYTE   W01
 BYTE   VOL   34*CastlevaniaSymphonyoftheNightDraculasCastle_mvl/mxv
 BYTE   W01
 BYTE   VOL   32*CastlevaniaSymphonyoftheNightDraculasCastle_mvl/mxv
 BYTE   W01
 BYTE   VOL   30*CastlevaniaSymphonyoftheNightDraculasCastle_mvl/mxv
 BYTE   W01
 BYTE   VOL   28*CastlevaniaSymphonyoftheNightDraculasCastle_mvl/mxv
 BYTE   W01
 BYTE   VOL   26*CastlevaniaSymphonyoftheNightDraculasCastle_mvl/mxv
 BYTE   W01
 BYTE   VOL   23*CastlevaniaSymphonyoftheNightDraculasCastle_mvl/mxv
 BYTE   W01
 BYTE   VOL   20*CastlevaniaSymphonyoftheNightDraculasCastle_mvl/mxv
 BYTE   W01
 BYTE   VOL   18*CastlevaniaSymphonyoftheNightDraculasCastle_mvl/mxv
 BYTE   W01
 BYTE   VOL   14*CastlevaniaSymphonyoftheNightDraculasCastle_mvl/mxv
 BYTE   W01
 BYTE   VOL   11*CastlevaniaSymphonyoftheNightDraculasCastle_mvl/mxv
 BYTE   W01
 BYTE   VOL   8*CastlevaniaSymphonyoftheNightDraculasCastle_mvl/mxv
 BYTE   W01
 BYTE   VOL   5*CastlevaniaSymphonyoftheNightDraculasCastle_mvl/mxv
 BYTE   W01
 BYTE   VOL   2*CastlevaniaSymphonyoftheNightDraculasCastle_mvl/mxv
 BYTE   W01
 BYTE   VOL   0*CastlevaniaSymphonyoftheNightDraculasCastle_mvl/mxv
 BYTE   W01
 BYTE   VOL   34*CastlevaniaSymphonyoftheNightDraculasCastle_mvl/mxv
 BYTE   N30  Gs3  v088
 BYTE   N30  Cn4  v100
 BYTE   W01
 BYTE   PEND 
//  #03 //044   ----------------------------------------
Label_012D2B75:
 BYTE   W01
 BYTE   VOL   35*CastlevaniaSymphonyoftheNightDraculasCastle_mvl/mxv
 BYTE   W01
 BYTE   VOL   36*CastlevaniaSymphonyoftheNightDraculasCastle_mvl/mxv
 BYTE   W02
 BYTE   VOL   37*CastlevaniaSymphonyoftheNightDraculasCastle_mvl/mxv
 BYTE   W01
 BYTE   VOL   37*CastlevaniaSymphonyoftheNightDraculasCastle_mvl/mxv
 BYTE   W02
 BYTE   VOL   37*CastlevaniaSymphonyoftheNightDraculasCastle_mvl/mxv
 BYTE   W01
 BYTE   VOL   38*CastlevaniaSymphonyoftheNightDraculasCastle_mvl/mxv
 BYTE   W02
 BYTE   VOL   39*CastlevaniaSymphonyoftheNightDraculasCastle_mvl/mxv
 BYTE   W01
 BYTE   VOL   39*CastlevaniaSymphonyoftheNightDraculasCastle_mvl/mxv
 BYTE   W02
 BYTE   VOL   40*CastlevaniaSymphonyoftheNightDraculasCastle_mvl/mxv
 BYTE   W01
 BYTE   VOL   40*CastlevaniaSymphonyoftheNightDraculasCastle_mvl/mxv
 BYTE   W02
 BYTE   VOL   41*CastlevaniaSymphonyoftheNightDraculasCastle_mvl/mxv
 BYTE   W01
 BYTE   VOL   41*CastlevaniaSymphonyoftheNightDraculasCastle_mvl/mxv
 BYTE   W02
 BYTE   VOL   42*CastlevaniaSymphonyoftheNightDraculasCastle_mvl/mxv
 BYTE   W01
 BYTE   VOL   43*CastlevaniaSymphonyoftheNightDraculasCastle_mvl/mxv
 BYTE   W02
 BYTE   VOL   44*CastlevaniaSymphonyoftheNightDraculasCastle_mvl/mxv
 BYTE   W01
 BYTE   VOL   44*CastlevaniaSymphonyoftheNightDraculasCastle_mvl/mxv
 BYTE   W02
 BYTE   VOL   45*CastlevaniaSymphonyoftheNightDraculasCastle_mvl/mxv
 BYTE   W01
 BYTE   VOL   45*CastlevaniaSymphonyoftheNightDraculasCastle_mvl/mxv
 BYTE   W02
 BYTE   VOL   46*CastlevaniaSymphonyoftheNightDraculasCastle_mvl/mxv
 BYTE   W01
 BYTE   VOL   46*CastlevaniaSymphonyoftheNightDraculasCastle_mvl/mxv
 BYTE   W02
 BYTE   VOL   47*CastlevaniaSymphonyoftheNightDraculasCastle_mvl/mxv
 BYTE   W01
 BYTE   VOL   48*CastlevaniaSymphonyoftheNightDraculasCastle_mvl/mxv
 BYTE   W02
 BYTE   VOL   49*CastlevaniaSymphonyoftheNightDraculasCastle_mvl/mxv
 BYTE   W01
 BYTE   VOL   50*CastlevaniaSymphonyoftheNightDraculasCastle_mvl/mxv
 BYTE   N13  Ds3  v060
 BYTE   N07  Gs3  v072
 BYTE   W06
 BYTE   As3  v088
 BYTE   W06
 BYTE   VOL   50*CastlevaniaSymphonyoftheNightDraculasCastle_mvl/mxv
 BYTE   N44  Gs3
 BYTE   N44  Cn4  v100
 BYTE   W10
 BYTE   VOL   49*CastlevaniaSymphonyoftheNightDraculasCastle_mvl/mxv
 BYTE   W04
 BYTE   VOL   48*CastlevaniaSymphonyoftheNightDraculasCastle_mvl/mxv
 BYTE   W03
 BYTE   VOL   47*CastlevaniaSymphonyoftheNightDraculasCastle_mvl/mxv
 BYTE   W02
 BYTE   VOL   46*CastlevaniaSymphonyoftheNightDraculasCastle_mvl/mxv
 BYTE   W02
 BYTE   VOL   46*CastlevaniaSymphonyoftheNightDraculasCastle_mvl/mxv
 BYTE   W02
 BYTE   VOL   45*CastlevaniaSymphonyoftheNightDraculasCastle_mvl/mxv
 BYTE   W01
 BYTE   VOL   45*CastlevaniaSymphonyoftheNightDraculasCastle_mvl/mxv
 BYTE   W01
 BYTE   VOL   44*CastlevaniaSymphonyoftheNightDraculasCastle_mvl/mxv
 BYTE   W01
 BYTE   VOL   44*CastlevaniaSymphonyoftheNightDraculasCastle_mvl/mxv
 BYTE   W01
 BYTE   VOL   42*CastlevaniaSymphonyoftheNightDraculasCastle_mvl/mxv
 BYTE   W01
 BYTE   VOL   41*CastlevaniaSymphonyoftheNightDraculasCastle_mvl/mxv
 BYTE   W01
 BYTE   VOL   40*CastlevaniaSymphonyoftheNightDraculasCastle_mvl/mxv
 BYTE   W01
 BYTE   VOL   40*CastlevaniaSymphonyoftheNightDraculasCastle_mvl/mxv
 BYTE   W01
 BYTE   VOL   38*CastlevaniaSymphonyoftheNightDraculasCastle_mvl/mxv
 BYTE   W01
 BYTE   VOL   37*CastlevaniaSymphonyoftheNightDraculasCastle_mvl/mxv
 BYTE   W01
 BYTE   VOL   36*CastlevaniaSymphonyoftheNightDraculasCastle_mvl/mxv
 BYTE   W01
 BYTE   VOL   34*CastlevaniaSymphonyoftheNightDraculasCastle_mvl/mxv
 BYTE   W01
 BYTE   VOL   32*CastlevaniaSymphonyoftheNightDraculasCastle_mvl/mxv
 BYTE   W01
 BYTE   VOL   30*CastlevaniaSymphonyoftheNightDraculasCastle_mvl/mxv
 BYTE   W01
 BYTE   VOL   28*CastlevaniaSymphonyoftheNightDraculasCastle_mvl/mxv
 BYTE   W01
 BYTE   VOL   26*CastlevaniaSymphonyoftheNightDraculasCastle_mvl/mxv
 BYTE   W01
 BYTE   VOL   23*CastlevaniaSymphonyoftheNightDraculasCastle_mvl/mxv
 BYTE   W01
 BYTE   VOL   20*CastlevaniaSymphonyoftheNightDraculasCastle_mvl/mxv
 BYTE   W01
 BYTE   VOL   18*CastlevaniaSymphonyoftheNightDraculasCastle_mvl/mxv
 BYTE   W01
 BYTE   VOL   14*CastlevaniaSymphonyoftheNightDraculasCastle_mvl/mxv
 BYTE   W01
 BYTE   VOL   11*CastlevaniaSymphonyoftheNightDraculasCastle_mvl/mxv
 BYTE   W01
 BYTE   VOL   8*CastlevaniaSymphonyoftheNightDraculasCastle_mvl/mxv
 BYTE   W01
 BYTE   VOL   5*CastlevaniaSymphonyoftheNightDraculasCastle_mvl/mxv
 BYTE   W01
 BYTE   VOL   2*CastlevaniaSymphonyoftheNightDraculasCastle_mvl/mxv
 BYTE   W01
 BYTE   VOL   0*CastlevaniaSymphonyoftheNightDraculasCastle_mvl/mxv
 BYTE   W01
 BYTE   VOL   30*CastlevaniaSymphonyoftheNightDraculasCastle_mvl/mxv
 BYTE   TIE  As3  v072
 BYTE   TIE  Dn4  v088
 BYTE   W01
 BYTE   PEND 
//  #03 //045   ----------------------------------------
Label_012D2BFE:
 BYTE   W02
 BYTE   VOL   30*CastlevaniaSymphonyoftheNightDraculasCastle_mvl/mxv
 BYTE   W03
 BYTE   VOL   31*CastlevaniaSymphonyoftheNightDraculasCastle_mvl/mxv
 BYTE   W03
 BYTE   VOL   32*CastlevaniaSymphonyoftheNightDraculasCastle_mvl/mxv
 BYTE   W03
 BYTE   VOL   32*CastlevaniaSymphonyoftheNightDraculasCastle_mvl/mxv
 BYTE   W03
 BYTE   VOL   33*CastlevaniaSymphonyoftheNightDraculasCastle_mvl/mxv
 BYTE   W03
 BYTE   VOL   34*CastlevaniaSymphonyoftheNightDraculasCastle_mvl/mxv
 BYTE   W03
 BYTE   VOL   34*CastlevaniaSymphonyoftheNightDraculasCastle_mvl/mxv
 BYTE   W03
 BYTE   VOL   34*CastlevaniaSymphonyoftheNightDraculasCastle_mvl/mxv
 BYTE   W03
 BYTE   VOL   35*CastlevaniaSymphonyoftheNightDraculasCastle_mvl/mxv
 BYTE   W03
 BYTE   VOL   36*CastlevaniaSymphonyoftheNightDraculasCastle_mvl/mxv
 BYTE   W03
 BYTE   VOL   37*CastlevaniaSymphonyoftheNightDraculasCastle_mvl/mxv
 BYTE   W03
 BYTE   VOL   37*CastlevaniaSymphonyoftheNightDraculasCastle_mvl/mxv
 BYTE   W03
 BYTE   VOL   37*CastlevaniaSymphonyoftheNightDraculasCastle_mvl/mxv
 BYTE   W03
 BYTE   VOL   38*CastlevaniaSymphonyoftheNightDraculasCastle_mvl/mxv
 BYTE   W03
 BYTE   VOL   39*CastlevaniaSymphonyoftheNightDraculasCastle_mvl/mxv
 BYTE   W03
 BYTE   VOL   39*CastlevaniaSymphonyoftheNightDraculasCastle_mvl/mxv
 BYTE   W03
 BYTE   VOL   40*CastlevaniaSymphonyoftheNightDraculasCastle_mvl/mxv
 BYTE   W03
 BYTE   VOL   40*CastlevaniaSymphonyoftheNightDraculasCastle_mvl/mxv
 BYTE   W03
 BYTE   VOL   41*CastlevaniaSymphonyoftheNightDraculasCastle_mvl/mxv
 BYTE   W03
 BYTE   VOL   41*CastlevaniaSymphonyoftheNightDraculasCastle_mvl/mxv
 BYTE   W03
 BYTE   VOL   42*CastlevaniaSymphonyoftheNightDraculasCastle_mvl/mxv
 BYTE   W03
 BYTE   VOL   43*CastlevaniaSymphonyoftheNightDraculasCastle_mvl/mxv
 BYTE   W03
 BYTE   VOL   44*CastlevaniaSymphonyoftheNightDraculasCastle_mvl/mxv
 BYTE   W03
 BYTE   VOL   44*CastlevaniaSymphonyoftheNightDraculasCastle_mvl/mxv
 BYTE   W03
 BYTE   VOL   45*CastlevaniaSymphonyoftheNightDraculasCastle_mvl/mxv
 BYTE   W03
 BYTE   VOL   45*CastlevaniaSymphonyoftheNightDraculasCastle_mvl/mxv
 BYTE   W03
 BYTE   VOL   46*CastlevaniaSymphonyoftheNightDraculasCastle_mvl/mxv
 BYTE   W03
 BYTE   VOL   46*CastlevaniaSymphonyoftheNightDraculasCastle_mvl/mxv
 BYTE   W03
 BYTE   VOL   47*CastlevaniaSymphonyoftheNightDraculasCastle_mvl/mxv
 BYTE   W03
 BYTE   VOL   48*CastlevaniaSymphonyoftheNightDraculasCastle_mvl/mxv
 BYTE   W03
 BYTE   VOL   49*CastlevaniaSymphonyoftheNightDraculasCastle_mvl/mxv
 BYTE   W03
 BYTE   VOL   50*CastlevaniaSymphonyoftheNightDraculasCastle_mvl/mxv
 BYTE   W01
 BYTE   PEND 
//  #03 //046   ----------------------------------------
Label_012D2C41:
 BYTE   W19
 BYTE   VOL   49*CastlevaniaSymphonyoftheNightDraculasCastle_mvl/mxv
 BYTE   W08
 BYTE   VOL   48*CastlevaniaSymphonyoftheNightDraculasCastle_mvl/mxv
 BYTE   W06
 BYTE   VOL   47*CastlevaniaSymphonyoftheNightDraculasCastle_mvl/mxv
 BYTE   W05
 BYTE   VOL   46*CastlevaniaSymphonyoftheNightDraculasCastle_mvl/mxv
 BYTE   W03
 BYTE   VOL   46*CastlevaniaSymphonyoftheNightDraculasCastle_mvl/mxv
 BYTE   W03
 BYTE   VOL   45*CastlevaniaSymphonyoftheNightDraculasCastle_mvl/mxv
 BYTE   W03
 BYTE   VOL   45*CastlevaniaSymphonyoftheNightDraculasCastle_mvl/mxv
 BYTE   W01
 BYTE   VOL   44*CastlevaniaSymphonyoftheNightDraculasCastle_mvl/mxv
 BYTE   W02
 BYTE   VOL   44*CastlevaniaSymphonyoftheNightDraculasCastle_mvl/mxv
 BYTE   W02
 BYTE   VOL   43*CastlevaniaSymphonyoftheNightDraculasCastle_mvl/mxv
 BYTE   W02
 BYTE   VOL   42*CastlevaniaSymphonyoftheNightDraculasCastle_mvl/mxv
 BYTE   W01
 BYTE   VOL   41*CastlevaniaSymphonyoftheNightDraculasCastle_mvl/mxv
 BYTE   W02
 BYTE   VOL   41*CastlevaniaSymphonyoftheNightDraculasCastle_mvl/mxv
 BYTE   W01
 BYTE   VOL   40*CastlevaniaSymphonyoftheNightDraculasCastle_mvl/mxv
 BYTE   W01
 BYTE   VOL   40*CastlevaniaSymphonyoftheNightDraculasCastle_mvl/mxv
 BYTE   W01
 BYTE   VOL   39*CastlevaniaSymphonyoftheNightDraculasCastle_mvl/mxv
 BYTE   W01
 BYTE   VOL   39*CastlevaniaSymphonyoftheNightDraculasCastle_mvl/mxv
 BYTE   W01
 BYTE   VOL   38*CastlevaniaSymphonyoftheNightDraculasCastle_mvl/mxv
 BYTE   W01
 BYTE   VOL   37*CastlevaniaSymphonyoftheNightDraculasCastle_mvl/mxv
 BYTE   W01
 BYTE   VOL   37*CastlevaniaSymphonyoftheNightDraculasCastle_mvl/mxv
 BYTE   W01
 BYTE   VOL   36*CastlevaniaSymphonyoftheNightDraculasCastle_mvl/mxv
 BYTE   W01
 BYTE   VOL   35*CastlevaniaSymphonyoftheNightDraculasCastle_mvl/mxv
 BYTE   W01
 BYTE   VOL   34*CastlevaniaSymphonyoftheNightDraculasCastle_mvl/mxv
 BYTE   W01
 BYTE   VOL   34*CastlevaniaSymphonyoftheNightDraculasCastle_mvl/mxv
 BYTE   W01
 BYTE   VOL   32*CastlevaniaSymphonyoftheNightDraculasCastle_mvl/mxv
 BYTE   W01
 BYTE   VOL   31*CastlevaniaSymphonyoftheNightDraculasCastle_mvl/mxv
 BYTE   W01
 BYTE   VOL   30*CastlevaniaSymphonyoftheNightDraculasCastle_mvl/mxv
 BYTE   W01
 BYTE   VOL   30*CastlevaniaSymphonyoftheNightDraculasCastle_mvl/mxv
 BYTE   W01
 BYTE   VOL   28*CastlevaniaSymphonyoftheNightDraculasCastle_mvl/mxv
 BYTE   W01
 BYTE   VOL   27*CastlevaniaSymphonyoftheNightDraculasCastle_mvl/mxv
 BYTE   W01
 BYTE   VOL   26*CastlevaniaSymphonyoftheNightDraculasCastle_mvl/mxv
 BYTE   W01
 BYTE   VOL   25*CastlevaniaSymphonyoftheNightDraculasCastle_mvl/mxv
 BYTE   W01
 BYTE   VOL   23*CastlevaniaSymphonyoftheNightDraculasCastle_mvl/mxv
 BYTE   W01
 BYTE   VOL   22*CastlevaniaSymphonyoftheNightDraculasCastle_mvl/mxv
 BYTE   W01
 BYTE   VOL   20*CastlevaniaSymphonyoftheNightDraculasCastle_mvl/mxv
 BYTE   W01
 BYTE   VOL   19*CastlevaniaSymphonyoftheNightDraculasCastle_mvl/mxv
 BYTE   W01
 BYTE   VOL   18*CastlevaniaSymphonyoftheNightDraculasCastle_mvl/mxv
 BYTE   W01
 BYTE   VOL   17*CastlevaniaSymphonyoftheNightDraculasCastle_mvl/mxv
 BYTE   W01
 BYTE   VOL   15*CastlevaniaSymphonyoftheNightDraculasCastle_mvl/mxv
 BYTE   W01
 BYTE   VOL   14*CastlevaniaSymphonyoftheNightDraculasCastle_mvl/mxv
 BYTE   W01
 BYTE   VOL   12*CastlevaniaSymphonyoftheNightDraculasCastle_mvl/mxv
 BYTE   W01
 BYTE   VOL   10*CastlevaniaSymphonyoftheNightDraculasCastle_mvl/mxv
 BYTE   W01
 BYTE   VOL   9*CastlevaniaSymphonyoftheNightDraculasCastle_mvl/mxv
 BYTE   W01
 BYTE   VOL   7*CastlevaniaSymphonyoftheNightDraculasCastle_mvl/mxv
 BYTE   W01
 BYTE   VOL   6*CastlevaniaSymphonyoftheNightDraculasCastle_mvl/mxv
 BYTE   W01
 BYTE   VOL   5*CastlevaniaSymphonyoftheNightDraculasCastle_mvl/mxv
 BYTE   W01
 BYTE   VOL   3*CastlevaniaSymphonyoftheNightDraculasCastle_mvl/mxv
 BYTE   W01
 BYTE   VOL   1*CastlevaniaSymphonyoftheNightDraculasCastle_mvl/mxv
 BYTE   W01
 BYTE   VOL   1*CastlevaniaSymphonyoftheNightDraculasCastle_mvl/mxv
 BYTE   W01
 BYTE   PEND 
 BYTE   EOT
 BYTE   As3  v074
 BYTE   VOL   0*CastlevaniaSymphonyoftheNightDraculasCastle_mvl/mxv
 BYTE   W01
 BYTE   VOL   0*CastlevaniaSymphonyoftheNightDraculasCastle_mvl/mxv
 BYTE   W01
//  #03 //047   ----------------------------------------
 BYTE   W96
//  #03 //048   ----------------------------------------
 BYTE   W96
//  #03 //049   ----------------------------------------
 BYTE   W96
//  #03 //050   ----------------------------------------
 BYTE   W96
//  #03 //051   ----------------------------------------
 BYTE   W96
//  #03 //052   ----------------------------------------
 BYTE   W96
//  #03 //053   ----------------------------------------
 BYTE   W96
//  #03 //054   ----------------------------------------
Label_012D2CB5:
 BYTE   W92
 BYTE   W03
 BYTE   VOL   26*CastlevaniaSymphonyoftheNightDraculasCastle_mvl/mxv
 BYTE   N24  Fn3  v088
 BYTE   W01
 BYTE   PEND 
//  #03 //055   ----------------------------------------
Label_012D2CBE:
 BYTE   VOL   27*CastlevaniaSymphonyoftheNightDraculasCastle_mvl/mxv
 BYTE   W01
 BYTE   VOL   28*CastlevaniaSymphonyoftheNightDraculasCastle_mvl/mxv
 BYTE   W01
 BYTE   VOL   28*CastlevaniaSymphonyoftheNightDraculasCastle_mvl/mxv
 BYTE   W01
 BYTE   VOL   29*CastlevaniaSymphonyoftheNightDraculasCastle_mvl/mxv
 BYTE   W01
 BYTE   VOL   30*CastlevaniaSymphonyoftheNightDraculasCastle_mvl/mxv
 BYTE   W01
 BYTE   VOL   31*CastlevaniaSymphonyoftheNightDraculasCastle_mvl/mxv
 BYTE   W01
 BYTE   VOL   32*CastlevaniaSymphonyoftheNightDraculasCastle_mvl/mxv
 BYTE   W01
 BYTE   VOL   33*CastlevaniaSymphonyoftheNightDraculasCastle_mvl/mxv
 BYTE   W01
 BYTE   VOL   34*CastlevaniaSymphonyoftheNightDraculasCastle_mvl/mxv
 BYTE   W01
 BYTE   VOL   35*CastlevaniaSymphonyoftheNightDraculasCastle_mvl/mxv
 BYTE   W01
 BYTE   VOL   36*CastlevaniaSymphonyoftheNightDraculasCastle_mvl/mxv
 BYTE   W01
 BYTE   VOL   37*CastlevaniaSymphonyoftheNightDraculasCastle_mvl/mxv
 BYTE   W01
 BYTE   VOL   38*CastlevaniaSymphonyoftheNightDraculasCastle_mvl/mxv
 BYTE   W01
 BYTE   VOL   39*CastlevaniaSymphonyoftheNightDraculasCastle_mvl/mxv
 BYTE   W01
 BYTE   VOL   40*CastlevaniaSymphonyoftheNightDraculasCastle_mvl/mxv
 BYTE   W01
 BYTE   VOL   41*CastlevaniaSymphonyoftheNightDraculasCastle_mvl/mxv
 BYTE   W01
 BYTE   VOL   41*CastlevaniaSymphonyoftheNightDraculasCastle_mvl/mxv
 BYTE   W01
 BYTE   VOL   43*CastlevaniaSymphonyoftheNightDraculasCastle_mvl/mxv
 BYTE   W01
 BYTE   VOL   44*CastlevaniaSymphonyoftheNightDraculasCastle_mvl/mxv
 BYTE   W01
 BYTE   VOL   45*CastlevaniaSymphonyoftheNightDraculasCastle_mvl/mxv
 BYTE   W01
 BYTE   VOL   46*CastlevaniaSymphonyoftheNightDraculasCastle_mvl/mxv
 BYTE   W01
 BYTE   VOL   47*CastlevaniaSymphonyoftheNightDraculasCastle_mvl/mxv
 BYTE   W01
 BYTE   VOL   49*CastlevaniaSymphonyoftheNightDraculasCastle_mvl/mxv
 BYTE   W01
 BYTE   VOL   50*CastlevaniaSymphonyoftheNightDraculasCastle_mvl/mxv
 BYTE   N08  Fs3  v100
 BYTE   W36
 BYTE   N06  As3  v116
 BYTE   W18
 BYTE   An3  v100
 BYTE   W18
 BYTE   VOL   26*CastlevaniaSymphonyoftheNightDraculasCastle_mvl/mxv
 BYTE   N24  Fn3  v088
 BYTE   W01
 BYTE   PEND 
//  #03 //056   ----------------------------------------
Label_012D2D00:
 BYTE   VOL   27*CastlevaniaSymphonyoftheNightDraculasCastle_mvl/mxv
 BYTE   W01
 BYTE   VOL   28*CastlevaniaSymphonyoftheNightDraculasCastle_mvl/mxv
 BYTE   W01
 BYTE   VOL   28*CastlevaniaSymphonyoftheNightDraculasCastle_mvl/mxv
 BYTE   W01
 BYTE   VOL   29*CastlevaniaSymphonyoftheNightDraculasCastle_mvl/mxv
 BYTE   W01
 BYTE   VOL   30*CastlevaniaSymphonyoftheNightDraculasCastle_mvl/mxv
 BYTE   W01
 BYTE   VOL   31*CastlevaniaSymphonyoftheNightDraculasCastle_mvl/mxv
 BYTE   W01
 BYTE   VOL   32*CastlevaniaSymphonyoftheNightDraculasCastle_mvl/mxv
 BYTE   W01
 BYTE   VOL   33*CastlevaniaSymphonyoftheNightDraculasCastle_mvl/mxv
 BYTE   W01
 BYTE   VOL   34*CastlevaniaSymphonyoftheNightDraculasCastle_mvl/mxv
 BYTE   W01
 BYTE   VOL   35*CastlevaniaSymphonyoftheNightDraculasCastle_mvl/mxv
 BYTE   W01
 BYTE   VOL   36*CastlevaniaSymphonyoftheNightDraculasCastle_mvl/mxv
 BYTE   W01
 BYTE   VOL   37*CastlevaniaSymphonyoftheNightDraculasCastle_mvl/mxv
 BYTE   W01
 BYTE   VOL   38*CastlevaniaSymphonyoftheNightDraculasCastle_mvl/mxv
 BYTE   W01
 BYTE   VOL   39*CastlevaniaSymphonyoftheNightDraculasCastle_mvl/mxv
 BYTE   W01
 BYTE   VOL   40*CastlevaniaSymphonyoftheNightDraculasCastle_mvl/mxv
 BYTE   W01
 BYTE   VOL   41*CastlevaniaSymphonyoftheNightDraculasCastle_mvl/mxv
 BYTE   W01
 BYTE   VOL   41*CastlevaniaSymphonyoftheNightDraculasCastle_mvl/mxv
 BYTE   W01
 BYTE   VOL   43*CastlevaniaSymphonyoftheNightDraculasCastle_mvl/mxv
 BYTE   W01
 BYTE   VOL   44*CastlevaniaSymphonyoftheNightDraculasCastle_mvl/mxv
 BYTE   W01
 BYTE   VOL   45*CastlevaniaSymphonyoftheNightDraculasCastle_mvl/mxv
 BYTE   W01
 BYTE   VOL   46*CastlevaniaSymphonyoftheNightDraculasCastle_mvl/mxv
 BYTE   W01
 BYTE   VOL   47*CastlevaniaSymphonyoftheNightDraculasCastle_mvl/mxv
 BYTE   W01
 BYTE   VOL   49*CastlevaniaSymphonyoftheNightDraculasCastle_mvl/mxv
 BYTE   W01
 BYTE   VOL   50*CastlevaniaSymphonyoftheNightDraculasCastle_mvl/mxv
 BYTE   N08  Fs3  v100
 BYTE   W36
 BYTE   N06  Ds3  v116
 BYTE   W18
 BYTE   Cn3  v100
 BYTE   W18
 BYTE   VOL   26*CastlevaniaSymphonyoftheNightDraculasCastle_mvl/mxv
 BYTE   N24  Fn3  v088
 BYTE   W01
 BYTE   PEND 
//  #03 //057   ----------------------------------------
Label_012D2D42:
 BYTE   VOL   27*CastlevaniaSymphonyoftheNightDraculasCastle_mvl/mxv
 BYTE   W01
 BYTE   VOL   28*CastlevaniaSymphonyoftheNightDraculasCastle_mvl/mxv
 BYTE   W01
 BYTE   VOL   28*CastlevaniaSymphonyoftheNightDraculasCastle_mvl/mxv
 BYTE   W01
 BYTE   VOL   29*CastlevaniaSymphonyoftheNightDraculasCastle_mvl/mxv
 BYTE   W01
 BYTE   VOL   30*CastlevaniaSymphonyoftheNightDraculasCastle_mvl/mxv
 BYTE   W01
 BYTE   VOL   31*CastlevaniaSymphonyoftheNightDraculasCastle_mvl/mxv
 BYTE   W01
 BYTE   VOL   32*CastlevaniaSymphonyoftheNightDraculasCastle_mvl/mxv
 BYTE   W01
 BYTE   VOL   33*CastlevaniaSymphonyoftheNightDraculasCastle_mvl/mxv
 BYTE   W01
 BYTE   VOL   34*CastlevaniaSymphonyoftheNightDraculasCastle_mvl/mxv
 BYTE   W01
 BYTE   VOL   35*CastlevaniaSymphonyoftheNightDraculasCastle_mvl/mxv
 BYTE   W01
 BYTE   VOL   36*CastlevaniaSymphonyoftheNightDraculasCastle_mvl/mxv
 BYTE   W01
 BYTE   VOL   37*CastlevaniaSymphonyoftheNightDraculasCastle_mvl/mxv
 BYTE   W01
 BYTE   VOL   38*CastlevaniaSymphonyoftheNightDraculasCastle_mvl/mxv
 BYTE   W01
 BYTE   VOL   39*CastlevaniaSymphonyoftheNightDraculasCastle_mvl/mxv
 BYTE   W01
 BYTE   VOL   40*CastlevaniaSymphonyoftheNightDraculasCastle_mvl/mxv
 BYTE   W01
 BYTE   VOL   41*CastlevaniaSymphonyoftheNightDraculasCastle_mvl/mxv
 BYTE   W01
 BYTE   VOL   41*CastlevaniaSymphonyoftheNightDraculasCastle_mvl/mxv
 BYTE   W01
 BYTE   VOL   43*CastlevaniaSymphonyoftheNightDraculasCastle_mvl/mxv
 BYTE   W01
 BYTE   VOL   44*CastlevaniaSymphonyoftheNightDraculasCastle_mvl/mxv
 BYTE   W01
 BYTE   VOL   45*CastlevaniaSymphonyoftheNightDraculasCastle_mvl/mxv
 BYTE   W01
 BYTE   VOL   46*CastlevaniaSymphonyoftheNightDraculasCastle_mvl/mxv
 BYTE   W01
 BYTE   VOL   47*CastlevaniaSymphonyoftheNightDraculasCastle_mvl/mxv
 BYTE   W01
 BYTE   VOL   49*CastlevaniaSymphonyoftheNightDraculasCastle_mvl/mxv
 BYTE   W01
 BYTE   VOL   50*CastlevaniaSymphonyoftheNightDraculasCastle_mvl/mxv
 BYTE   N08  Fs3  v100
 BYTE   W36
 BYTE   N06  As3  v116
 BYTE   W18
 BYTE   An3  v100
 BYTE   W18
 BYTE   N11  Fn3  v116
 BYTE   W01
 BYTE   PEND 
//  #03 //058   ----------------------------------------
 BYTE   W96
//  #03 //059   ----------------------------------------
 BYTE   GoTo
  POIN2 Label_012D28A4
//  #03 //060   ----------------------------------------
 BYTE   PATT
  POIN2 Label_012D28A4
//  #03 //061   ----------------------------------------
 BYTE   PATT
  POIN2 Label_012D28BA
//  #03 //062   ----------------------------------------
 BYTE   PATT
  POIN2 Label_012D28CB
//  #03 //063   ----------------------------------------
 BYTE   PATT
  POIN2 Label_012D28DB
//  #03 //064   ----------------------------------------
 BYTE   PATT
  POIN2 Label_012D28E8
//  #03 //065   ----------------------------------------
 BYTE   PATT
  POIN2 Label_012D28BA
//  #03 //066   ----------------------------------------
 BYTE   PATT
  POIN2 Label_012D28CB
//  #03 //067   ----------------------------------------
 BYTE   PATT
  POIN2 Label_012D2903
//  #03 //068   ----------------------------------------
 BYTE   W96
//  #03 //069   ----------------------------------------
 BYTE   W96
//  #03 //070   ----------------------------------------
 BYTE   W96
//  #03 //071   ----------------------------------------
 BYTE   W96
//  #03 //072   ----------------------------------------
 BYTE   W96
//  #03 //073   ----------------------------------------
 BYTE   W96
//  #03 //074   ----------------------------------------
 BYTE   PATT
  POIN2 Label_012D2911
//  #03 //075   ----------------------------------------
 BYTE   PATT
  POIN2 Label_012D2918
//  #03 //076   ----------------------------------------
 BYTE   PATT
  POIN2 Label_012D2927
//  #03 //077   ----------------------------------------
 BYTE   PATT
  POIN2 Label_012D294F
//  #03 //078   ----------------------------------------
 BYTE   PATT
  POIN2 Label_012D295A
//  #03 //079   ----------------------------------------
 BYTE   PATT
  POIN2 Label_012D2965
//  #03 //080   ----------------------------------------
 BYTE   PATT
  POIN2 Label_012D2970
//  #03 //081   ----------------------------------------
 BYTE   PATT
  POIN2 Label_012D294F
//  #03 //082   ----------------------------------------
 BYTE   PATT
  POIN2 Label_012D295A
//  #03 //083   ----------------------------------------
 BYTE   PATT
  POIN2 Label_012D2994
//  #03 //084   ----------------------------------------
 BYTE   PATT
  POIN2 Label_012D299F
//  #03 //085   ----------------------------------------
 BYTE   PATT
  POIN2 Label_012D29AF
//  #03 //086   ----------------------------------------
 BYTE   PATT
  POIN2 Label_012D29CA
//  #03 //087   ----------------------------------------
 BYTE   PATT
  POIN2 Label_012D2A36
//  #03 //088   ----------------------------------------
 BYTE   PATT
  POIN2 Label_012D2A51
//  #03 //089   ----------------------------------------
 BYTE   PATT
  POIN2 Label_012D2ABD
//  #03 //090   ----------------------------------------
 BYTE   PATT
  POIN2 Label_012D2AD6
//  #03 //091   ----------------------------------------
 BYTE   PATT
  POIN2 Label_012D2AF1
//  #03 //092   ----------------------------------------
 BYTE   PATT
  POIN2 Label_012D2B75
//  #03 //093   ----------------------------------------
 BYTE   PATT
  POIN2 Label_012D2BFE
//  #03 //094   ----------------------------------------
 BYTE   PATT
  POIN2 Label_012D2C41
//  #03 //095   ----------------------------------------
 BYTE   EOT
 BYTE   As3  v074
 BYTE   VOL   0*CastlevaniaSymphonyoftheNightDraculasCastle_mvl/mxv
 BYTE   W01
 BYTE   VOL   0*CastlevaniaSymphonyoftheNightDraculasCastle_mvl/mxv
 BYTE   W01
 BYTE   W96
//  #03 //096   ----------------------------------------
 BYTE   W96
//  #03 //097   ----------------------------------------
 BYTE   W96
//  #03 //098   ----------------------------------------
 BYTE   W96
//  #03 //099   ----------------------------------------
 BYTE   W96
//  #03 //100   ----------------------------------------
 BYTE   W96
//  #03 //101   ----------------------------------------
 BYTE   W96
//  #03 //102   ----------------------------------------
 BYTE   PATT
  POIN2 Label_012D2CB5
//  #03 //103   ----------------------------------------
 BYTE   PATT
  POIN2 Label_012D2CBE
//  #03 //104   ----------------------------------------
 BYTE   PATT
  POIN2 Label_012D2D00
//  #03 //105   ----------------------------------------
 BYTE   PATT
  POIN2 Label_012D2D42
//  #03 //106   ----------------------------------------
 BYTE   W10
 BYTE   FINE

//**************** Track 4 (Midi-Chn.3) ****************//

CastlevaniaSymphonyoftheNightDraculasCastle_004:
//  #04 //000   ----------------------------------------
 BYTE   KEYSH   CastlevaniaSymphonyoftheNightDraculasCastle_key+0
 BYTE   VOICE   65
 BYTE   MODT 0
 BYTE   LFOS 44
 BYTE   VOL   49*CastlevaniaSymphonyoftheNightDraculasCastle_mvl/mxv
 BYTE   VOL   49*CastlevaniaSymphonyoftheNightDraculasCastle_mvl/mxv
 BYTE   PAN   c_v+0
 BYTE   MOD 0
 BYTE   W96
//  #04 //001   ----------------------------------------
 BYTE   W96
//  #04 //002   ----------------------------------------
 BYTE   W96
//  #04 //003   ----------------------------------------
 BYTE   W96
//  #04 //004   ----------------------------------------
 BYTE   W96
//  #04 //005   ----------------------------------------
 BYTE   W96
//  #04 //006   ----------------------------------------
 BYTE   W96
//  #04 //007   ----------------------------------------
 BYTE   W96
//  #04 //008   ----------------------------------------
 BYTE   W96
//  #04 //009   ----------------------------------------
 BYTE   W96
//  #04 //010   ----------------------------------------
 BYTE   W96
//  #04 //011   ----------------------------------------
 BYTE   W96
//  #04 //012   ----------------------------------------
Label_012D2E73:
 BYTE   W96
//  #04 //013   ----------------------------------------
 BYTE   W96
//  #04 //014   ----------------------------------------
 BYTE   W96
//  #04 //015   ----------------------------------------
 BYTE   W96
//  #04 //016   ----------------------------------------
 BYTE   W96
//  #04 //017   ----------------------------------------
 BYTE   W96
//  #04 //018   ----------------------------------------
 BYTE   W96
//  #04 //019   ----------------------------------------
Label_012D2E7A:
 BYTE   W92
 BYTE   W03
 BYTE   VOL   30*CastlevaniaSymphonyoftheNightDraculasCastle_mvl/mxv
 BYTE   N30  Gn3  v100
 BYTE   W01
 BYTE   PEND 
//  #04 //020   ----------------------------------------
Label_012D2E83:
 BYTE   W01
 BYTE   VOL   30*CastlevaniaSymphonyoftheNightDraculasCastle_mvl/mxv
 BYTE   W01
 BYTE   VOL   30*CastlevaniaSymphonyoftheNightDraculasCastle_mvl/mxv
 BYTE   W01
 BYTE   VOL   31*CastlevaniaSymphonyoftheNightDraculasCastle_mvl/mxv
 BYTE   W01
 BYTE   VOL   32*CastlevaniaSymphonyoftheNightDraculasCastle_mvl/mxv
 BYTE   W01
 BYTE   VOL   32*CastlevaniaSymphonyoftheNightDraculasCastle_mvl/mxv
 BYTE   W01
 BYTE   VOL   33*CastlevaniaSymphonyoftheNightDraculasCastle_mvl/mxv
 BYTE   W01
 BYTE   VOL   34*CastlevaniaSymphonyoftheNightDraculasCastle_mvl/mxv
 BYTE   W01
 BYTE   VOL   34*CastlevaniaSymphonyoftheNightDraculasCastle_mvl/mxv
 BYTE   W01
 BYTE   VOL   34*CastlevaniaSymphonyoftheNightDraculasCastle_mvl/mxv
 BYTE   W02
 BYTE   VOL   35*CastlevaniaSymphonyoftheNightDraculasCastle_mvl/mxv
 BYTE   W01
 BYTE   VOL   36*CastlevaniaSymphonyoftheNightDraculasCastle_mvl/mxv
 BYTE   W01
 BYTE   VOL   37*CastlevaniaSymphonyoftheNightDraculasCastle_mvl/mxv
 BYTE   W01
 BYTE   VOL   37*CastlevaniaSymphonyoftheNightDraculasCastle_mvl/mxv
 BYTE   W01
 BYTE   VOL   37*CastlevaniaSymphonyoftheNightDraculasCastle_mvl/mxv
 BYTE   W01
 BYTE   VOL   38*CastlevaniaSymphonyoftheNightDraculasCastle_mvl/mxv
 BYTE   W01
 BYTE   VOL   39*CastlevaniaSymphonyoftheNightDraculasCastle_mvl/mxv
 BYTE   W01
 BYTE   VOL   39*CastlevaniaSymphonyoftheNightDraculasCastle_mvl/mxv
 BYTE   W01
 BYTE   VOL   40*CastlevaniaSymphonyoftheNightDraculasCastle_mvl/mxv
 BYTE   W02
 BYTE   VOL   40*CastlevaniaSymphonyoftheNightDraculasCastle_mvl/mxv
 BYTE   W01
 BYTE   VOL   41*CastlevaniaSymphonyoftheNightDraculasCastle_mvl/mxv
 BYTE   W01
 BYTE   VOL   41*CastlevaniaSymphonyoftheNightDraculasCastle_mvl/mxv
 BYTE   W01
 BYTE   VOL   42*CastlevaniaSymphonyoftheNightDraculasCastle_mvl/mxv
 BYTE   W01
 BYTE   VOL   43*CastlevaniaSymphonyoftheNightDraculasCastle_mvl/mxv
 BYTE   W01
 BYTE   VOL   44*CastlevaniaSymphonyoftheNightDraculasCastle_mvl/mxv
 BYTE   W01
 BYTE   VOL   44*CastlevaniaSymphonyoftheNightDraculasCastle_mvl/mxv
 BYTE   W01
 BYTE   VOL   45*CastlevaniaSymphonyoftheNightDraculasCastle_mvl/mxv
 BYTE   W01
 BYTE   VOL   45*CastlevaniaSymphonyoftheNightDraculasCastle_mvl/mxv
 BYTE   W02
 BYTE   VOL   46*CastlevaniaSymphonyoftheNightDraculasCastle_mvl/mxv
 BYTE   W01
 BYTE   VOL   46*CastlevaniaSymphonyoftheNightDraculasCastle_mvl/mxv
 BYTE   W01
 BYTE   VOL   47*CastlevaniaSymphonyoftheNightDraculasCastle_mvl/mxv
 BYTE   W01
 BYTE   VOL   48*CastlevaniaSymphonyoftheNightDraculasCastle_mvl/mxv
 BYTE   W01
 BYTE   VOL   49*CastlevaniaSymphonyoftheNightDraculasCastle_mvl/mxv
 BYTE   N05  An3  v060
 BYTE   W06
 BYTE   As3  v072
 BYTE   W06
 BYTE   N17  Gn3  v088
 BYTE   W18
 BYTE   Fn3  v072
 BYTE   W18
 BYTE   N11  Ds3  v060
 BYTE   W12
 BYTE   VOL   30*CastlevaniaSymphonyoftheNightDraculasCastle_mvl/mxv
 BYTE   N30  Fn3  v100
 BYTE   W01
 BYTE   PEND 
//  #04 //021   ----------------------------------------
Label_012D2EDD:
 BYTE   W01
 BYTE   VOL   30*CastlevaniaSymphonyoftheNightDraculasCastle_mvl/mxv
 BYTE   W01
 BYTE   VOL   30*CastlevaniaSymphonyoftheNightDraculasCastle_mvl/mxv
 BYTE   W01
 BYTE   VOL   31*CastlevaniaSymphonyoftheNightDraculasCastle_mvl/mxv
 BYTE   W01
 BYTE   VOL   32*CastlevaniaSymphonyoftheNightDraculasCastle_mvl/mxv
 BYTE   W01
 BYTE   VOL   32*CastlevaniaSymphonyoftheNightDraculasCastle_mvl/mxv
 BYTE   W01
 BYTE   VOL   33*CastlevaniaSymphonyoftheNightDraculasCastle_mvl/mxv
 BYTE   W01
 BYTE   VOL   34*CastlevaniaSymphonyoftheNightDraculasCastle_mvl/mxv
 BYTE   W01
 BYTE   VOL   34*CastlevaniaSymphonyoftheNightDraculasCastle_mvl/mxv
 BYTE   W01
 BYTE   VOL   34*CastlevaniaSymphonyoftheNightDraculasCastle_mvl/mxv
 BYTE   W02
 BYTE   VOL   35*CastlevaniaSymphonyoftheNightDraculasCastle_mvl/mxv
 BYTE   W01
 BYTE   VOL   36*CastlevaniaSymphonyoftheNightDraculasCastle_mvl/mxv
 BYTE   W01
 BYTE   VOL   37*CastlevaniaSymphonyoftheNightDraculasCastle_mvl/mxv
 BYTE   W01
 BYTE   VOL   37*CastlevaniaSymphonyoftheNightDraculasCastle_mvl/mxv
 BYTE   W01
 BYTE   VOL   37*CastlevaniaSymphonyoftheNightDraculasCastle_mvl/mxv
 BYTE   W01
 BYTE   VOL   38*CastlevaniaSymphonyoftheNightDraculasCastle_mvl/mxv
 BYTE   W01
 BYTE   VOL   39*CastlevaniaSymphonyoftheNightDraculasCastle_mvl/mxv
 BYTE   W01
 BYTE   VOL   39*CastlevaniaSymphonyoftheNightDraculasCastle_mvl/mxv
 BYTE   W01
 BYTE   VOL   40*CastlevaniaSymphonyoftheNightDraculasCastle_mvl/mxv
 BYTE   W02
 BYTE   VOL   40*CastlevaniaSymphonyoftheNightDraculasCastle_mvl/mxv
 BYTE   W01
 BYTE   VOL   41*CastlevaniaSymphonyoftheNightDraculasCastle_mvl/mxv
 BYTE   W01
 BYTE   VOL   41*CastlevaniaSymphonyoftheNightDraculasCastle_mvl/mxv
 BYTE   W01
 BYTE   VOL   42*CastlevaniaSymphonyoftheNightDraculasCastle_mvl/mxv
 BYTE   W01
 BYTE   VOL   43*CastlevaniaSymphonyoftheNightDraculasCastle_mvl/mxv
 BYTE   W01
 BYTE   VOL   44*CastlevaniaSymphonyoftheNightDraculasCastle_mvl/mxv
 BYTE   W01
 BYTE   VOL   44*CastlevaniaSymphonyoftheNightDraculasCastle_mvl/mxv
 BYTE   W01
 BYTE   VOL   45*CastlevaniaSymphonyoftheNightDraculasCastle_mvl/mxv
 BYTE   W01
 BYTE   VOL   45*CastlevaniaSymphonyoftheNightDraculasCastle_mvl/mxv
 BYTE   W02
 BYTE   VOL   46*CastlevaniaSymphonyoftheNightDraculasCastle_mvl/mxv
 BYTE   W01
 BYTE   VOL   46*CastlevaniaSymphonyoftheNightDraculasCastle_mvl/mxv
 BYTE   W01
 BYTE   VOL   47*CastlevaniaSymphonyoftheNightDraculasCastle_mvl/mxv
 BYTE   W01
 BYTE   VOL   48*CastlevaniaSymphonyoftheNightDraculasCastle_mvl/mxv
 BYTE   W01
 BYTE   VOL   49*CastlevaniaSymphonyoftheNightDraculasCastle_mvl/mxv
 BYTE   N05  Gn3  v060
 BYTE   W06
 BYTE   An3  v072
 BYTE   W06
 BYTE   N22  As3  v088
 BYTE   W24
 BYTE   Gs3  v072
 BYTE   W24
 BYTE   N15  Gn3  v088
 BYTE   W01
 BYTE   PEND 
//  #04 //022   ----------------------------------------
Label_012D2F31:
 BYTE   W15
 BYTE   N15  Fn3  v072
 BYTE   W16
 BYTE   N12  Ds3  v060
 BYTE   W16
 BYTE   N15  An3  v100
 BYTE   W16
 BYTE   Gn3  v088
 BYTE   W16
 BYTE   N12  Fn3  v072
 BYTE   W16
 BYTE   VOL   30*CastlevaniaSymphonyoftheNightDraculasCastle_mvl/mxv
 BYTE   N92  Dn3  v088
 BYTE   W01
 BYTE   PEND 
//  #04 //023   ----------------------------------------
Label_012D2F4C:
 BYTE   VOL   30*CastlevaniaSymphonyoftheNightDraculasCastle_mvl/mxv
 BYTE   W01
 BYTE   VOL   30*CastlevaniaSymphonyoftheNightDraculasCastle_mvl/mxv
 BYTE   W01
 BYTE   VOL   32*CastlevaniaSymphonyoftheNightDraculasCastle_mvl/mxv
 BYTE   W01
 BYTE   VOL   32*CastlevaniaSymphonyoftheNightDraculasCastle_mvl/mxv
 BYTE   W01
 BYTE   VOL   33*CastlevaniaSymphonyoftheNightDraculasCastle_mvl/mxv
 BYTE   W01
 BYTE   VOL   34*CastlevaniaSymphonyoftheNightDraculasCastle_mvl/mxv
 BYTE   W01
 BYTE   VOL   34*CastlevaniaSymphonyoftheNightDraculasCastle_mvl/mxv
 BYTE   W01
 BYTE   VOL   35*CastlevaniaSymphonyoftheNightDraculasCastle_mvl/mxv
 BYTE   W01
 BYTE   VOL   37*CastlevaniaSymphonyoftheNightDraculasCastle_mvl/mxv
 BYTE   W01
 BYTE   VOL   37*CastlevaniaSymphonyoftheNightDraculasCastle_mvl/mxv
 BYTE   W01
 BYTE   VOL   37*CastlevaniaSymphonyoftheNightDraculasCastle_mvl/mxv
 BYTE   W01
 BYTE   VOL   39*CastlevaniaSymphonyoftheNightDraculasCastle_mvl/mxv
 BYTE   W01
 BYTE   VOL   39*CastlevaniaSymphonyoftheNightDraculasCastle_mvl/mxv
 BYTE   W01
 BYTE   VOL   40*CastlevaniaSymphonyoftheNightDraculasCastle_mvl/mxv
 BYTE   W01
 BYTE   VOL   41*CastlevaniaSymphonyoftheNightDraculasCastle_mvl/mxv
 BYTE   W01
 BYTE   VOL   41*CastlevaniaSymphonyoftheNightDraculasCastle_mvl/mxv
 BYTE   W01
 BYTE   VOL   43*CastlevaniaSymphonyoftheNightDraculasCastle_mvl/mxv
 BYTE   W01
 BYTE   VOL   44*CastlevaniaSymphonyoftheNightDraculasCastle_mvl/mxv
 BYTE   W01
 BYTE   VOL   44*CastlevaniaSymphonyoftheNightDraculasCastle_mvl/mxv
 BYTE   W01
 BYTE   VOL   45*CastlevaniaSymphonyoftheNightDraculasCastle_mvl/mxv
 BYTE   W01
 BYTE   VOL   46*CastlevaniaSymphonyoftheNightDraculasCastle_mvl/mxv
 BYTE   W01
 BYTE   VOL   46*CastlevaniaSymphonyoftheNightDraculasCastle_mvl/mxv
 BYTE   W01
 BYTE   VOL   48*CastlevaniaSymphonyoftheNightDraculasCastle_mvl/mxv
 BYTE   W01
 BYTE   VOL   49*CastlevaniaSymphonyoftheNightDraculasCastle_mvl/mxv
 BYTE   W15
 BYTE   VOL   48*CastlevaniaSymphonyoftheNightDraculasCastle_mvl/mxv
 BYTE   W06
 BYTE   VOL   47*CastlevaniaSymphonyoftheNightDraculasCastle_mvl/mxv
 BYTE   W05
 BYTE   VOL   46*CastlevaniaSymphonyoftheNightDraculasCastle_mvl/mxv
 BYTE   W03
 BYTE   VOL   46*CastlevaniaSymphonyoftheNightDraculasCastle_mvl/mxv
 BYTE   W03
 BYTE   VOL   45*CastlevaniaSymphonyoftheNightDraculasCastle_mvl/mxv
 BYTE   W02
 BYTE   VOL   45*CastlevaniaSymphonyoftheNightDraculasCastle_mvl/mxv
 BYTE   W02
 BYTE   VOL   44*CastlevaniaSymphonyoftheNightDraculasCastle_mvl/mxv
 BYTE   W01
 BYTE   VOL   44*CastlevaniaSymphonyoftheNightDraculasCastle_mvl/mxv
 BYTE   W01
 BYTE   VOL   43*CastlevaniaSymphonyoftheNightDraculasCastle_mvl/mxv
 BYTE   W02
 BYTE   VOL   42*CastlevaniaSymphonyoftheNightDraculasCastle_mvl/mxv
 BYTE   W01
 BYTE   VOL   41*CastlevaniaSymphonyoftheNightDraculasCastle_mvl/mxv
 BYTE   W01
 BYTE   VOL   41*CastlevaniaSymphonyoftheNightDraculasCastle_mvl/mxv
 BYTE   W01
 BYTE   VOL   40*CastlevaniaSymphonyoftheNightDraculasCastle_mvl/mxv
 BYTE   W01
 BYTE   VOL   40*CastlevaniaSymphonyoftheNightDraculasCastle_mvl/mxv
 BYTE   W01
 BYTE   VOL   39*CastlevaniaSymphonyoftheNightDraculasCastle_mvl/mxv
 BYTE   W01
 BYTE   VOL   39*CastlevaniaSymphonyoftheNightDraculasCastle_mvl/mxv
 BYTE   W01
 BYTE   VOL   37*CastlevaniaSymphonyoftheNightDraculasCastle_mvl/mxv
 BYTE   W01
 BYTE   VOL   37*CastlevaniaSymphonyoftheNightDraculasCastle_mvl/mxv
 BYTE   W01
 BYTE   VOL   36*CastlevaniaSymphonyoftheNightDraculasCastle_mvl/mxv
 BYTE   W01
 BYTE   VOL   34*CastlevaniaSymphonyoftheNightDraculasCastle_mvl/mxv
 BYTE   W01
 BYTE   VOL   34*CastlevaniaSymphonyoftheNightDraculasCastle_mvl/mxv
 BYTE   W01
 BYTE   VOL   32*CastlevaniaSymphonyoftheNightDraculasCastle_mvl/mxv
 BYTE   W01
 BYTE   VOL   31*CastlevaniaSymphonyoftheNightDraculasCastle_mvl/mxv
 BYTE   W01
 BYTE   VOL   30*CastlevaniaSymphonyoftheNightDraculasCastle_mvl/mxv
 BYTE   W01
 BYTE   VOL   28*CastlevaniaSymphonyoftheNightDraculasCastle_mvl/mxv
 BYTE   W01
 BYTE   VOL   27*CastlevaniaSymphonyoftheNightDraculasCastle_mvl/mxv
 BYTE   W01
 BYTE   VOL   26*CastlevaniaSymphonyoftheNightDraculasCastle_mvl/mxv
 BYTE   W01
 BYTE   VOL   23*CastlevaniaSymphonyoftheNightDraculasCastle_mvl/mxv
 BYTE   W01
 BYTE   VOL   22*CastlevaniaSymphonyoftheNightDraculasCastle_mvl/mxv
 BYTE   W01
 BYTE   VOL   20*CastlevaniaSymphonyoftheNightDraculasCastle_mvl/mxv
 BYTE   W01
 BYTE   VOL   18*CastlevaniaSymphonyoftheNightDraculasCastle_mvl/mxv
 BYTE   W01
 BYTE   VOL   17*CastlevaniaSymphonyoftheNightDraculasCastle_mvl/mxv
 BYTE   W01
 BYTE   VOL   15*CastlevaniaSymphonyoftheNightDraculasCastle_mvl/mxv
 BYTE   W01
 BYTE   VOL   12*CastlevaniaSymphonyoftheNightDraculasCastle_mvl/mxv
 BYTE   W01
 BYTE   VOL   10*CastlevaniaSymphonyoftheNightDraculasCastle_mvl/mxv
 BYTE   W01
 BYTE   VOL   8*CastlevaniaSymphonyoftheNightDraculasCastle_mvl/mxv
 BYTE   W01
 BYTE   VOL   6*CastlevaniaSymphonyoftheNightDraculasCastle_mvl/mxv
 BYTE   W01
 BYTE   VOL   4*CastlevaniaSymphonyoftheNightDraculasCastle_mvl/mxv
 BYTE   W01
 BYTE   VOL   2*CastlevaniaSymphonyoftheNightDraculasCastle_mvl/mxv
 BYTE   W01
 BYTE   VOL   1*CastlevaniaSymphonyoftheNightDraculasCastle_mvl/mxv
 BYTE   W01
 BYTE   VOL   0*CastlevaniaSymphonyoftheNightDraculasCastle_mvl/mxv
 BYTE   W01
 BYTE   VOL   49*CastlevaniaSymphonyoftheNightDraculasCastle_mvl/mxv
 BYTE   N15  Ds3  v048
 BYTE   W01
 BYTE   PEND 
//  #04 //024   ----------------------------------------
Label_012D2FD5:
 BYTE   W15
 BYTE   N15  Fn3  v060
 BYTE   W16
 BYTE   N11  Gn3  v072
 BYTE   W16
 BYTE   N15  Fs3  v060
 BYTE   W16
 BYTE   Gn3  v072
 BYTE   W16
 BYTE   N11  An3  v088
 BYTE   W16
 BYTE   N15  As3  v100
 BYTE   W01
 BYTE   PEND 
//  #04 //025   ----------------------------------------
Label_012D2FEE:
 BYTE   W15
 BYTE   N15  An3  v088
 BYTE   W16
 BYTE   N11  Gn3  v072
 BYTE   W16
 BYTE   VOL   49*CastlevaniaSymphonyoftheNightDraculasCastle_mvl/mxv
 BYTE   N44  Gn3  v088
 BYTE   W10
 BYTE   VOL   48*CastlevaniaSymphonyoftheNightDraculasCastle_mvl/mxv
 BYTE   W04
 BYTE   VOL   47*CastlevaniaSymphonyoftheNightDraculasCastle_mvl/mxv
 BYTE   W03
 BYTE   VOL   46*CastlevaniaSymphonyoftheNightDraculasCastle_mvl/mxv
 BYTE   W02
 BYTE   VOL   46*CastlevaniaSymphonyoftheNightDraculasCastle_mvl/mxv
 BYTE   W02
 BYTE   VOL   45*CastlevaniaSymphonyoftheNightDraculasCastle_mvl/mxv
 BYTE   W02
 BYTE   VOL   45*CastlevaniaSymphonyoftheNightDraculasCastle_mvl/mxv
 BYTE   W01
 BYTE   VOL   44*CastlevaniaSymphonyoftheNightDraculasCastle_mvl/mxv
 BYTE   W01
 BYTE   VOL   44*CastlevaniaSymphonyoftheNightDraculasCastle_mvl/mxv
 BYTE   W01
 BYTE   VOL   43*CastlevaniaSymphonyoftheNightDraculasCastle_mvl/mxv
 BYTE   W01
 BYTE   VOL   41*CastlevaniaSymphonyoftheNightDraculasCastle_mvl/mxv
 BYTE   W01
 BYTE   VOL   41*CastlevaniaSymphonyoftheNightDraculasCastle_mvl/mxv
 BYTE   W01
 BYTE   VOL   40*CastlevaniaSymphonyoftheNightDraculasCastle_mvl/mxv
 BYTE   W01
 BYTE   VOL   39*CastlevaniaSymphonyoftheNightDraculasCastle_mvl/mxv
 BYTE   W01
 BYTE   VOL   37*CastlevaniaSymphonyoftheNightDraculasCastle_mvl/mxv
 BYTE   W01
 BYTE   VOL   37*CastlevaniaSymphonyoftheNightDraculasCastle_mvl/mxv
 BYTE   W01
 BYTE   VOL   35*CastlevaniaSymphonyoftheNightDraculasCastle_mvl/mxv
 BYTE   W01
 BYTE   VOL   34*CastlevaniaSymphonyoftheNightDraculasCastle_mvl/mxv
 BYTE   W01
 BYTE   VOL   32*CastlevaniaSymphonyoftheNightDraculasCastle_mvl/mxv
 BYTE   W01
 BYTE   VOL   30*CastlevaniaSymphonyoftheNightDraculasCastle_mvl/mxv
 BYTE   W01
 BYTE   VOL   28*CastlevaniaSymphonyoftheNightDraculasCastle_mvl/mxv
 BYTE   W01
 BYTE   VOL   26*CastlevaniaSymphonyoftheNightDraculasCastle_mvl/mxv
 BYTE   W01
 BYTE   VOL   22*CastlevaniaSymphonyoftheNightDraculasCastle_mvl/mxv
 BYTE   W01
 BYTE   VOL   20*CastlevaniaSymphonyoftheNightDraculasCastle_mvl/mxv
 BYTE   W01
 BYTE   VOL   17*CastlevaniaSymphonyoftheNightDraculasCastle_mvl/mxv
 BYTE   W01
 BYTE   VOL   14*CastlevaniaSymphonyoftheNightDraculasCastle_mvl/mxv
 BYTE   W01
 BYTE   VOL   11*CastlevaniaSymphonyoftheNightDraculasCastle_mvl/mxv
 BYTE   W01
 BYTE   VOL   8*CastlevaniaSymphonyoftheNightDraculasCastle_mvl/mxv
 BYTE   W01
 BYTE   VOL   5*CastlevaniaSymphonyoftheNightDraculasCastle_mvl/mxv
 BYTE   W01
 BYTE   VOL   2*CastlevaniaSymphonyoftheNightDraculasCastle_mvl/mxv
 BYTE   W01
 BYTE   VOL   0*CastlevaniaSymphonyoftheNightDraculasCastle_mvl/mxv
 BYTE   W01
 BYTE   VOL   49*CastlevaniaSymphonyoftheNightDraculasCastle_mvl/mxv
 BYTE   N15  Gn3  v060
 BYTE   W01
 BYTE   PEND 
//  #04 //026   ----------------------------------------
Label_012D3040:
 BYTE   W15
 BYTE   N15  An3  v072
 BYTE   W16
 BYTE   As3  v060
 BYTE   W16
 BYTE   An3  v088
 BYTE   W16
 BYTE   En3  v060
 BYTE   W16
 BYTE   N11  An3  v072
 BYTE   W16
 BYTE   VOL   30*CastlevaniaSymphonyoftheNightDraculasCastle_mvl/mxv
 BYTE   N78  Gn3  v088
 BYTE   W01
 BYTE   PEND 
//  #04 //027   ----------------------------------------
Label_012D3059:
 BYTE   W02
 BYTE   VOL   30*CastlevaniaSymphonyoftheNightDraculasCastle_mvl/mxv
 BYTE   W03
 BYTE   VOL   30*CastlevaniaSymphonyoftheNightDraculasCastle_mvl/mxv
 BYTE   W02
 BYTE   VOL   31*CastlevaniaSymphonyoftheNightDraculasCastle_mvl/mxv
 BYTE   W03
 BYTE   VOL   32*CastlevaniaSymphonyoftheNightDraculasCastle_mvl/mxv
 BYTE   W03
 BYTE   VOL   32*CastlevaniaSymphonyoftheNightDraculasCastle_mvl/mxv
 BYTE   W02
 BYTE   VOL   33*CastlevaniaSymphonyoftheNightDraculasCastle_mvl/mxv
 BYTE   W03
 BYTE   VOL   34*CastlevaniaSymphonyoftheNightDraculasCastle_mvl/mxv
 BYTE   W02
 BYTE   VOL   34*CastlevaniaSymphonyoftheNightDraculasCastle_mvl/mxv
 BYTE   W03
 BYTE   VOL   34*CastlevaniaSymphonyoftheNightDraculasCastle_mvl/mxv
 BYTE   W03
 BYTE   VOL   35*CastlevaniaSymphonyoftheNightDraculasCastle_mvl/mxv
 BYTE   W02
 BYTE   VOL   36*CastlevaniaSymphonyoftheNightDraculasCastle_mvl/mxv
 BYTE   W03
 BYTE   VOL   37*CastlevaniaSymphonyoftheNightDraculasCastle_mvl/mxv
 BYTE   W02
 BYTE   VOL   37*CastlevaniaSymphonyoftheNightDraculasCastle_mvl/mxv
 BYTE   W03
 BYTE   VOL   37*CastlevaniaSymphonyoftheNightDraculasCastle_mvl/mxv
 BYTE   W03
 BYTE   VOL   38*CastlevaniaSymphonyoftheNightDraculasCastle_mvl/mxv
 BYTE   W02
 BYTE   VOL   39*CastlevaniaSymphonyoftheNightDraculasCastle_mvl/mxv
 BYTE   W03
 BYTE   VOL   39*CastlevaniaSymphonyoftheNightDraculasCastle_mvl/mxv
 BYTE   W02
 BYTE   VOL   40*CastlevaniaSymphonyoftheNightDraculasCastle_mvl/mxv
 BYTE   W03
 BYTE   VOL   40*CastlevaniaSymphonyoftheNightDraculasCastle_mvl/mxv
 BYTE   W03
 BYTE   VOL   41*CastlevaniaSymphonyoftheNightDraculasCastle_mvl/mxv
 BYTE   W02
 BYTE   VOL   41*CastlevaniaSymphonyoftheNightDraculasCastle_mvl/mxv
 BYTE   W03
 BYTE   VOL   42*CastlevaniaSymphonyoftheNightDraculasCastle_mvl/mxv
 BYTE   W03
 BYTE   VOL   43*CastlevaniaSymphonyoftheNightDraculasCastle_mvl/mxv
 BYTE   W02
 BYTE   VOL   44*CastlevaniaSymphonyoftheNightDraculasCastle_mvl/mxv
 BYTE   W03
 BYTE   VOL   44*CastlevaniaSymphonyoftheNightDraculasCastle_mvl/mxv
 BYTE   W02
 BYTE   VOL   45*CastlevaniaSymphonyoftheNightDraculasCastle_mvl/mxv
 BYTE   W03
 BYTE   VOL   45*CastlevaniaSymphonyoftheNightDraculasCastle_mvl/mxv
 BYTE   W03
 BYTE   VOL   46*CastlevaniaSymphonyoftheNightDraculasCastle_mvl/mxv
 BYTE   W02
 BYTE   VOL   46*CastlevaniaSymphonyoftheNightDraculasCastle_mvl/mxv
 BYTE   W03
 BYTE   VOL   47*CastlevaniaSymphonyoftheNightDraculasCastle_mvl/mxv
 BYTE   W02
 BYTE   VOL   48*CastlevaniaSymphonyoftheNightDraculasCastle_mvl/mxv
 BYTE   W03
 BYTE   VOL   49*CastlevaniaSymphonyoftheNightDraculasCastle_mvl/mxv
 BYTE   N05  Fs3  v088
 BYTE   W06
 BYTE   En3  v072
 BYTE   W06
 BYTE   VOL   30*CastlevaniaSymphonyoftheNightDraculasCastle_mvl/mxv
 BYTE   N92  Fs3  v088
 BYTE   W01
 BYTE   PEND 
//  #04 //028   ----------------------------------------
Label_012D30A8:
 BYTE   W01
 BYTE   VOL   30*CastlevaniaSymphonyoftheNightDraculasCastle_mvl/mxv
 BYTE   W01
 BYTE   VOL   30*CastlevaniaSymphonyoftheNightDraculasCastle_mvl/mxv
 BYTE   W01
 BYTE   VOL   31*CastlevaniaSymphonyoftheNightDraculasCastle_mvl/mxv
 BYTE   W01
 BYTE   VOL   32*CastlevaniaSymphonyoftheNightDraculasCastle_mvl/mxv
 BYTE   W02
 BYTE   VOL   32*CastlevaniaSymphonyoftheNightDraculasCastle_mvl/mxv
 BYTE   W01
 BYTE   VOL   33*CastlevaniaSymphonyoftheNightDraculasCastle_mvl/mxv
 BYTE   W01
 BYTE   VOL   34*CastlevaniaSymphonyoftheNightDraculasCastle_mvl/mxv
 BYTE   W01
 BYTE   VOL   34*CastlevaniaSymphonyoftheNightDraculasCastle_mvl/mxv
 BYTE   W02
 BYTE   VOL   34*CastlevaniaSymphonyoftheNightDraculasCastle_mvl/mxv
 BYTE   W01
 BYTE   VOL   35*CastlevaniaSymphonyoftheNightDraculasCastle_mvl/mxv
 BYTE   W01
 BYTE   VOL   36*CastlevaniaSymphonyoftheNightDraculasCastle_mvl/mxv
 BYTE   W01
 BYTE   VOL   37*CastlevaniaSymphonyoftheNightDraculasCastle_mvl/mxv
 BYTE   W02
 BYTE   VOL   37*CastlevaniaSymphonyoftheNightDraculasCastle_mvl/mxv
 BYTE   W01
 BYTE   VOL   37*CastlevaniaSymphonyoftheNightDraculasCastle_mvl/mxv
 BYTE   W01
 BYTE   VOL   38*CastlevaniaSymphonyoftheNightDraculasCastle_mvl/mxv
 BYTE   W01
 BYTE   VOL   39*CastlevaniaSymphonyoftheNightDraculasCastle_mvl/mxv
 BYTE   W01
 BYTE   VOL   39*CastlevaniaSymphonyoftheNightDraculasCastle_mvl/mxv
 BYTE   W02
 BYTE   VOL   40*CastlevaniaSymphonyoftheNightDraculasCastle_mvl/mxv
 BYTE   W01
 BYTE   VOL   40*CastlevaniaSymphonyoftheNightDraculasCastle_mvl/mxv
 BYTE   W01
 BYTE   VOL   41*CastlevaniaSymphonyoftheNightDraculasCastle_mvl/mxv
 BYTE   W01
 BYTE   VOL   41*CastlevaniaSymphonyoftheNightDraculasCastle_mvl/mxv
 BYTE   W02
 BYTE   VOL   42*CastlevaniaSymphonyoftheNightDraculasCastle_mvl/mxv
 BYTE   W01
 BYTE   VOL   43*CastlevaniaSymphonyoftheNightDraculasCastle_mvl/mxv
 BYTE   W01
 BYTE   VOL   44*CastlevaniaSymphonyoftheNightDraculasCastle_mvl/mxv
 BYTE   W01
 BYTE   VOL   44*CastlevaniaSymphonyoftheNightDraculasCastle_mvl/mxv
 BYTE   W02
 BYTE   VOL   45*CastlevaniaSymphonyoftheNightDraculasCastle_mvl/mxv
 BYTE   W01
 BYTE   VOL   45*CastlevaniaSymphonyoftheNightDraculasCastle_mvl/mxv
 BYTE   W01
 BYTE   VOL   46*CastlevaniaSymphonyoftheNightDraculasCastle_mvl/mxv
 BYTE   W01
 BYTE   VOL   46*CastlevaniaSymphonyoftheNightDraculasCastle_mvl/mxv
 BYTE   W02
 BYTE   VOL   47*CastlevaniaSymphonyoftheNightDraculasCastle_mvl/mxv
 BYTE   W01
 BYTE   VOL   48*CastlevaniaSymphonyoftheNightDraculasCastle_mvl/mxv
 BYTE   W01
 BYTE   VOL   49*CastlevaniaSymphonyoftheNightDraculasCastle_mvl/mxv
 BYTE   W12
 BYTE   VOL   48*CastlevaniaSymphonyoftheNightDraculasCastle_mvl/mxv
 BYTE   W05
 BYTE   VOL   47*CastlevaniaSymphonyoftheNightDraculasCastle_mvl/mxv
 BYTE   W03
 BYTE   VOL   46*CastlevaniaSymphonyoftheNightDraculasCastle_mvl/mxv
 BYTE   W03
 BYTE   VOL   46*CastlevaniaSymphonyoftheNightDraculasCastle_mvl/mxv
 BYTE   W02
 BYTE   VOL   45*CastlevaniaSymphonyoftheNightDraculasCastle_mvl/mxv
 BYTE   W01
 BYTE   VOL   45*CastlevaniaSymphonyoftheNightDraculasCastle_mvl/mxv
 BYTE   W02
 BYTE   VOL   44*CastlevaniaSymphonyoftheNightDraculasCastle_mvl/mxv
 BYTE   W01
 BYTE   VOL   44*CastlevaniaSymphonyoftheNightDraculasCastle_mvl/mxv
 BYTE   W01
 BYTE   VOL   43*CastlevaniaSymphonyoftheNightDraculasCastle_mvl/mxv
 BYTE   W01
 BYTE   VOL   42*CastlevaniaSymphonyoftheNightDraculasCastle_mvl/mxv
 BYTE   W01
 BYTE   VOL   41*CastlevaniaSymphonyoftheNightDraculasCastle_mvl/mxv
 BYTE   W01
 BYTE   VOL   41*CastlevaniaSymphonyoftheNightDraculasCastle_mvl/mxv
 BYTE   W01
 BYTE   VOL   40*CastlevaniaSymphonyoftheNightDraculasCastle_mvl/mxv
 BYTE   W01
 BYTE   VOL   39*CastlevaniaSymphonyoftheNightDraculasCastle_mvl/mxv
 BYTE   W01
 BYTE   VOL   38*CastlevaniaSymphonyoftheNightDraculasCastle_mvl/mxv
 BYTE   W01
 BYTE   VOL   37*CastlevaniaSymphonyoftheNightDraculasCastle_mvl/mxv
 BYTE   W01
 BYTE   VOL   36*CastlevaniaSymphonyoftheNightDraculasCastle_mvl/mxv
 BYTE   W01
 BYTE   VOL   34*CastlevaniaSymphonyoftheNightDraculasCastle_mvl/mxv
 BYTE   W01
 BYTE   VOL   33*CastlevaniaSymphonyoftheNightDraculasCastle_mvl/mxv
 BYTE   W01
 BYTE   VOL   31*CastlevaniaSymphonyoftheNightDraculasCastle_mvl/mxv
 BYTE   W01
 BYTE   VOL   30*CastlevaniaSymphonyoftheNightDraculasCastle_mvl/mxv
 BYTE   W01
 BYTE   VOL   28*CastlevaniaSymphonyoftheNightDraculasCastle_mvl/mxv
 BYTE   W01
 BYTE   VOL   26*CastlevaniaSymphonyoftheNightDraculasCastle_mvl/mxv
 BYTE   W01
 BYTE   VOL   23*CastlevaniaSymphonyoftheNightDraculasCastle_mvl/mxv
 BYTE   W01
 BYTE   VOL   22*CastlevaniaSymphonyoftheNightDraculasCastle_mvl/mxv
 BYTE   W01
 BYTE   VOL   19*CastlevaniaSymphonyoftheNightDraculasCastle_mvl/mxv
 BYTE   W01
 BYTE   VOL   17*CastlevaniaSymphonyoftheNightDraculasCastle_mvl/mxv
 BYTE   W01
 BYTE   VOL   14*CastlevaniaSymphonyoftheNightDraculasCastle_mvl/mxv
 BYTE   W01
 BYTE   VOL   11*CastlevaniaSymphonyoftheNightDraculasCastle_mvl/mxv
 BYTE   W01
 BYTE   VOL   9*CastlevaniaSymphonyoftheNightDraculasCastle_mvl/mxv
 BYTE   W01
 BYTE   VOL   6*CastlevaniaSymphonyoftheNightDraculasCastle_mvl/mxv
 BYTE   W01
 BYTE   VOL   4*CastlevaniaSymphonyoftheNightDraculasCastle_mvl/mxv
 BYTE   W01
 BYTE   VOL   1*CastlevaniaSymphonyoftheNightDraculasCastle_mvl/mxv
 BYTE   W01
 BYTE   VOL   0*CastlevaniaSymphonyoftheNightDraculasCastle_mvl/mxv
 BYTE   W01
 BYTE   VOL   0*CastlevaniaSymphonyoftheNightDraculasCastle_mvl/mxv
 BYTE   W01
 BYTE   PEND 
//  #04 //029   ----------------------------------------
 BYTE   W96
//  #04 //030   ----------------------------------------
 BYTE   W96
//  #04 //031   ----------------------------------------
 BYTE   W96
//  #04 //032   ----------------------------------------
 BYTE   W96
//  #04 //033   ----------------------------------------
 BYTE   W96
//  #04 //034   ----------------------------------------
 BYTE   W96
//  #04 //035   ----------------------------------------
 BYTE   W96
//  #04 //036   ----------------------------------------
 BYTE   W96
//  #04 //037   ----------------------------------------
Label_012D3139:
 BYTE   W92
 BYTE   W03
 BYTE   VOL   49*CastlevaniaSymphonyoftheNightDraculasCastle_mvl/mxv
 BYTE   W01
 BYTE   PEND 
//  #04 //038   ----------------------------------------
Label_012D313F:
 BYTE   W44
 BYTE   W03
 BYTE   N07  As4  v100
 BYTE   W06
 BYTE   An4  v088
 BYTE   W06
 BYTE   Gn4  v072
 BYTE   W06
 BYTE   N05  Dn4  v060
 BYTE   W06
 BYTE   N07  As3  v088
 BYTE   W06
 BYTE   An3  v072
 BYTE   W06
 BYTE   Gn3  v060
 BYTE   W06
 BYTE   N05  Dn3  v048
 BYTE   W07
 BYTE   PEND 
//  #04 //039   ----------------------------------------
 BYTE   W96
//  #04 //040   ----------------------------------------
Label_012D315F:
 BYTE   W44
 BYTE   W03
 BYTE   N07  Dn5  v100
 BYTE   W06
 BYTE   Cn5  v088
 BYTE   W06
 BYTE   As4  v072
 BYTE   W06
 BYTE   N05  Gn4  v060
 BYTE   W06
 BYTE   N07  Dn4  v088
 BYTE   W06
 BYTE   Cn4  v072
 BYTE   W06
 BYTE   As3  v060
 BYTE   W06
 BYTE   N05  Gn3  v048
 BYTE   W06
 BYTE   N44  Fs3
 BYTE   W01
 BYTE   PEND 
//  #04 //041   ----------------------------------------
Label_012D3181:
 BYTE   W44
 BYTE   W03
 BYTE   N44  Gs3  v060
 BYTE   W48
 BYTE   Ds3  v048
 BYTE   W01
 BYTE   PEND 
//  #04 //042   ----------------------------------------
Label_012D318B:
 BYTE   W44
 BYTE   W03
 BYTE   N44  Fn3  v060
 BYTE   W48
 BYTE   N92  Fs3  v048
 BYTE   W01
 BYTE   PEND 
//  #04 //043   ----------------------------------------
Label_012D3196:
 BYTE   W92
 BYTE   W03
 BYTE   N92  Gs3  v060
 BYTE   W01
 BYTE   PEND 
//  #04 //044   ----------------------------------------
Label_012D319D:
 BYTE   W92
 BYTE   W03
 BYTE   VOL   34*CastlevaniaSymphonyoftheNightDraculasCastle_mvl/mxv
 BYTE   TIE  As3  v072
 BYTE   W01
 BYTE   PEND 
//  #04 //045   ----------------------------------------
Label_012D31A6:
 BYTE   W03
 BYTE   VOL   34*CastlevaniaSymphonyoftheNightDraculasCastle_mvl/mxv
 BYTE   W04
 BYTE   VOL   35*CastlevaniaSymphonyoftheNightDraculasCastle_mvl/mxv
 BYTE   W04
 BYTE   VOL   36*CastlevaniaSymphonyoftheNightDraculasCastle_mvl/mxv
 BYTE   W04
 BYTE   VOL   37*CastlevaniaSymphonyoftheNightDraculasCastle_mvl/mxv
 BYTE   W04
 BYTE   VOL   37*CastlevaniaSymphonyoftheNightDraculasCastle_mvl/mxv
 BYTE   W04
 BYTE   VOL   37*CastlevaniaSymphonyoftheNightDraculasCastle_mvl/mxv
 BYTE   W04
 BYTE   VOL   38*CastlevaniaSymphonyoftheNightDraculasCastle_mvl/mxv
 BYTE   W04
 BYTE   VOL   39*CastlevaniaSymphonyoftheNightDraculasCastle_mvl/mxv
 BYTE   W04
 BYTE   VOL   39*CastlevaniaSymphonyoftheNightDraculasCastle_mvl/mxv
 BYTE   W04
 BYTE   VOL   40*CastlevaniaSymphonyoftheNightDraculasCastle_mvl/mxv
 BYTE   W04
 BYTE   VOL   40*CastlevaniaSymphonyoftheNightDraculasCastle_mvl/mxv
 BYTE   W04
 BYTE   VOL   41*CastlevaniaSymphonyoftheNightDraculasCastle_mvl/mxv
 BYTE   W04
 BYTE   VOL   41*CastlevaniaSymphonyoftheNightDraculasCastle_mvl/mxv
 BYTE   W04
 BYTE   VOL   42*CastlevaniaSymphonyoftheNightDraculasCastle_mvl/mxv
 BYTE   W04
 BYTE   VOL   43*CastlevaniaSymphonyoftheNightDraculasCastle_mvl/mxv
 BYTE   W04
 BYTE   VOL   44*CastlevaniaSymphonyoftheNightDraculasCastle_mvl/mxv
 BYTE   W04
 BYTE   VOL   44*CastlevaniaSymphonyoftheNightDraculasCastle_mvl/mxv
 BYTE   W04
 BYTE   VOL   45*CastlevaniaSymphonyoftheNightDraculasCastle_mvl/mxv
 BYTE   W04
 BYTE   VOL   45*CastlevaniaSymphonyoftheNightDraculasCastle_mvl/mxv
 BYTE   W04
 BYTE   VOL   46*CastlevaniaSymphonyoftheNightDraculasCastle_mvl/mxv
 BYTE   W04
 BYTE   VOL   46*CastlevaniaSymphonyoftheNightDraculasCastle_mvl/mxv
 BYTE   W04
 BYTE   VOL   47*CastlevaniaSymphonyoftheNightDraculasCastle_mvl/mxv
 BYTE   W04
 BYTE   VOL   48*CastlevaniaSymphonyoftheNightDraculasCastle_mvl/mxv
 BYTE   W04
 BYTE   VOL   49*CastlevaniaSymphonyoftheNightDraculasCastle_mvl/mxv
 BYTE   W01
 BYTE   PEND 
//  #04 //046   ----------------------------------------
Label_012D31D9:
 BYTE   W19
 BYTE   VOL   48*CastlevaniaSymphonyoftheNightDraculasCastle_mvl/mxv
 BYTE   W08
 BYTE   VOL   47*CastlevaniaSymphonyoftheNightDraculasCastle_mvl/mxv
 BYTE   W06
 BYTE   VOL   46*CastlevaniaSymphonyoftheNightDraculasCastle_mvl/mxv
 BYTE   W05
 BYTE   VOL   46*CastlevaniaSymphonyoftheNightDraculasCastle_mvl/mxv
 BYTE   W03
 BYTE   VOL   45*CastlevaniaSymphonyoftheNightDraculasCastle_mvl/mxv
 BYTE   W03
 BYTE   VOL   45*CastlevaniaSymphonyoftheNightDraculasCastle_mvl/mxv
 BYTE   W03
 BYTE   VOL   44*CastlevaniaSymphonyoftheNightDraculasCastle_mvl/mxv
 BYTE   W01
 BYTE   VOL   44*CastlevaniaSymphonyoftheNightDraculasCastle_mvl/mxv
 BYTE   W02
 BYTE   VOL   43*CastlevaniaSymphonyoftheNightDraculasCastle_mvl/mxv
 BYTE   W02
 BYTE   VOL   42*CastlevaniaSymphonyoftheNightDraculasCastle_mvl/mxv
 BYTE   W02
 BYTE   VOL   41*CastlevaniaSymphonyoftheNightDraculasCastle_mvl/mxv
 BYTE   W01
 BYTE   VOL   41*CastlevaniaSymphonyoftheNightDraculasCastle_mvl/mxv
 BYTE   W02
 BYTE   VOL   40*CastlevaniaSymphonyoftheNightDraculasCastle_mvl/mxv
 BYTE   W01
 BYTE   VOL   40*CastlevaniaSymphonyoftheNightDraculasCastle_mvl/mxv
 BYTE   W01
 BYTE   VOL   39*CastlevaniaSymphonyoftheNightDraculasCastle_mvl/mxv
 BYTE   W01
 BYTE   VOL   39*CastlevaniaSymphonyoftheNightDraculasCastle_mvl/mxv
 BYTE   W01
 BYTE   VOL   38*CastlevaniaSymphonyoftheNightDraculasCastle_mvl/mxv
 BYTE   W01
 BYTE   VOL   37*CastlevaniaSymphonyoftheNightDraculasCastle_mvl/mxv
 BYTE   W01
 BYTE   VOL   37*CastlevaniaSymphonyoftheNightDraculasCastle_mvl/mxv
 BYTE   W01
 BYTE   VOL   36*CastlevaniaSymphonyoftheNightDraculasCastle_mvl/mxv
 BYTE   W01
 BYTE   VOL   35*CastlevaniaSymphonyoftheNightDraculasCastle_mvl/mxv
 BYTE   W01
 BYTE   VOL   34*CastlevaniaSymphonyoftheNightDraculasCastle_mvl/mxv
 BYTE   W01
 BYTE   VOL   34*CastlevaniaSymphonyoftheNightDraculasCastle_mvl/mxv
 BYTE   W01
 BYTE   VOL   33*CastlevaniaSymphonyoftheNightDraculasCastle_mvl/mxv
 BYTE   W01
 BYTE   VOL   32*CastlevaniaSymphonyoftheNightDraculasCastle_mvl/mxv
 BYTE   W01
 BYTE   VOL   30*CastlevaniaSymphonyoftheNightDraculasCastle_mvl/mxv
 BYTE   W01
 BYTE   VOL   30*CastlevaniaSymphonyoftheNightDraculasCastle_mvl/mxv
 BYTE   W01
 BYTE   VOL   29*CastlevaniaSymphonyoftheNightDraculasCastle_mvl/mxv
 BYTE   W01
 BYTE   VOL   28*CastlevaniaSymphonyoftheNightDraculasCastle_mvl/mxv
 BYTE   W01
 BYTE   VOL   27*CastlevaniaSymphonyoftheNightDraculasCastle_mvl/mxv
 BYTE   W01
 BYTE   VOL   26*CastlevaniaSymphonyoftheNightDraculasCastle_mvl/mxv
 BYTE   W01
 BYTE   VOL   24*CastlevaniaSymphonyoftheNightDraculasCastle_mvl/mxv
 BYTE   W01
 BYTE   VOL   23*CastlevaniaSymphonyoftheNightDraculasCastle_mvl/mxv
 BYTE   W01
 BYTE   VOL   22*CastlevaniaSymphonyoftheNightDraculasCastle_mvl/mxv
 BYTE   W01
 BYTE   VOL   20*CastlevaniaSymphonyoftheNightDraculasCastle_mvl/mxv
 BYTE   W01
 BYTE   VOL   19*CastlevaniaSymphonyoftheNightDraculasCastle_mvl/mxv
 BYTE   W01
 BYTE   VOL   18*CastlevaniaSymphonyoftheNightDraculasCastle_mvl/mxv
 BYTE   W01
 BYTE   VOL   17*CastlevaniaSymphonyoftheNightDraculasCastle_mvl/mxv
 BYTE   W01
 BYTE   VOL   15*CastlevaniaSymphonyoftheNightDraculasCastle_mvl/mxv
 BYTE   W01
 BYTE   VOL   13*CastlevaniaSymphonyoftheNightDraculasCastle_mvl/mxv
 BYTE   W01
 BYTE   VOL   11*CastlevaniaSymphonyoftheNightDraculasCastle_mvl/mxv
 BYTE   W01
 BYTE   VOL   10*CastlevaniaSymphonyoftheNightDraculasCastle_mvl/mxv
 BYTE   W01
 BYTE   VOL   9*CastlevaniaSymphonyoftheNightDraculasCastle_mvl/mxv
 BYTE   W01
 BYTE   VOL   7*CastlevaniaSymphonyoftheNightDraculasCastle_mvl/mxv
 BYTE   W01
 BYTE   VOL   5*CastlevaniaSymphonyoftheNightDraculasCastle_mvl/mxv
 BYTE   W01
 BYTE   VOL   4*CastlevaniaSymphonyoftheNightDraculasCastle_mvl/mxv
 BYTE   W01
 BYTE   VOL   3*CastlevaniaSymphonyoftheNightDraculasCastle_mvl/mxv
 BYTE   W01
 BYTE   VOL   1*CastlevaniaSymphonyoftheNightDraculasCastle_mvl/mxv
 BYTE   W01
 BYTE   VOL   1*CastlevaniaSymphonyoftheNightDraculasCastle_mvl/mxv
 BYTE   W01
 BYTE   PEND 
 BYTE   EOT
 BYTE   As3
 BYTE   VOL   0*CastlevaniaSymphonyoftheNightDraculasCastle_mvl/mxv
 BYTE   W01
 BYTE   VOL   0*CastlevaniaSymphonyoftheNightDraculasCastle_mvl/mxv
 BYTE   W01
//  #04 //047   ----------------------------------------
 BYTE   W96
//  #04 //048   ----------------------------------------
 BYTE   W96
//  #04 //049   ----------------------------------------
 BYTE   W96
//  #04 //050   ----------------------------------------
 BYTE   W96
//  #04 //051   ----------------------------------------
 BYTE   W96
//  #04 //052   ----------------------------------------
 BYTE   W96
//  #04 //053   ----------------------------------------
 BYTE   W96
//  #04 //054   ----------------------------------------
Label_012D324C:
 BYTE   W92
 BYTE   W03
 BYTE   VOL   26*CastlevaniaSymphonyoftheNightDraculasCastle_mvl/mxv
 BYTE   N24  Fn2  v088
 BYTE   W01
 BYTE   PEND 
//  #04 //055   ----------------------------------------
Label_012D3255:
 BYTE   VOL   26*CastlevaniaSymphonyoftheNightDraculasCastle_mvl/mxv
 BYTE   W01
 BYTE   VOL   27*CastlevaniaSymphonyoftheNightDraculasCastle_mvl/mxv
 BYTE   W01
 BYTE   VOL   28*CastlevaniaSymphonyoftheNightDraculasCastle_mvl/mxv
 BYTE   W01
 BYTE   VOL   28*CastlevaniaSymphonyoftheNightDraculasCastle_mvl/mxv
 BYTE   W01
 BYTE   VOL   30*CastlevaniaSymphonyoftheNightDraculasCastle_mvl/mxv
 BYTE   W01
 BYTE   VOL   30*CastlevaniaSymphonyoftheNightDraculasCastle_mvl/mxv
 BYTE   W01
 BYTE   VOL   31*CastlevaniaSymphonyoftheNightDraculasCastle_mvl/mxv
 BYTE   W01
 BYTE   VOL   32*CastlevaniaSymphonyoftheNightDraculasCastle_mvl/mxv
 BYTE   W01
 BYTE   VOL   34*CastlevaniaSymphonyoftheNightDraculasCastle_mvl/mxv
 BYTE   W01
 BYTE   VOL   34*CastlevaniaSymphonyoftheNightDraculasCastle_mvl/mxv
 BYTE   W01
 BYTE   VOL   35*CastlevaniaSymphonyoftheNightDraculasCastle_mvl/mxv
 BYTE   W01
 BYTE   VOL   37*CastlevaniaSymphonyoftheNightDraculasCastle_mvl/mxv
 BYTE   W01
 BYTE   VOL   37*CastlevaniaSymphonyoftheNightDraculasCastle_mvl/mxv
 BYTE   W01
 BYTE   VOL   38*CastlevaniaSymphonyoftheNightDraculasCastle_mvl/mxv
 BYTE   W01
 BYTE   VOL   39*CastlevaniaSymphonyoftheNightDraculasCastle_mvl/mxv
 BYTE   W01
 BYTE   VOL   40*CastlevaniaSymphonyoftheNightDraculasCastle_mvl/mxv
 BYTE   W01
 BYTE   VOL   41*CastlevaniaSymphonyoftheNightDraculasCastle_mvl/mxv
 BYTE   W01
 BYTE   VOL   42*CastlevaniaSymphonyoftheNightDraculasCastle_mvl/mxv
 BYTE   W01
 BYTE   VOL   44*CastlevaniaSymphonyoftheNightDraculasCastle_mvl/mxv
 BYTE   W01
 BYTE   VOL   45*CastlevaniaSymphonyoftheNightDraculasCastle_mvl/mxv
 BYTE   W01
 BYTE   VOL   45*CastlevaniaSymphonyoftheNightDraculasCastle_mvl/mxv
 BYTE   W01
 BYTE   VOL   46*CastlevaniaSymphonyoftheNightDraculasCastle_mvl/mxv
 BYTE   W01
 BYTE   VOL   48*CastlevaniaSymphonyoftheNightDraculasCastle_mvl/mxv
 BYTE   W01
 BYTE   VOL   49*CastlevaniaSymphonyoftheNightDraculasCastle_mvl/mxv
 BYTE   N08  Fs2  v100
 BYTE   W36
 BYTE   N06  As2  v116
 BYTE   W18
 BYTE   An2  v100
 BYTE   W18
 BYTE   VOL   26*CastlevaniaSymphonyoftheNightDraculasCastle_mvl/mxv
 BYTE   N24  Fn2  v088
 BYTE   W01
 BYTE   PEND 
//  #04 //056   ----------------------------------------
Label_012D3297:
 BYTE   VOL   26*CastlevaniaSymphonyoftheNightDraculasCastle_mvl/mxv
 BYTE   W01
 BYTE   VOL   27*CastlevaniaSymphonyoftheNightDraculasCastle_mvl/mxv
 BYTE   W01
 BYTE   VOL   28*CastlevaniaSymphonyoftheNightDraculasCastle_mvl/mxv
 BYTE   W01
 BYTE   VOL   28*CastlevaniaSymphonyoftheNightDraculasCastle_mvl/mxv
 BYTE   W01
 BYTE   VOL   30*CastlevaniaSymphonyoftheNightDraculasCastle_mvl/mxv
 BYTE   W01
 BYTE   VOL   30*CastlevaniaSymphonyoftheNightDraculasCastle_mvl/mxv
 BYTE   W01
 BYTE   VOL   31*CastlevaniaSymphonyoftheNightDraculasCastle_mvl/mxv
 BYTE   W01
 BYTE   VOL   32*CastlevaniaSymphonyoftheNightDraculasCastle_mvl/mxv
 BYTE   W01
 BYTE   VOL   34*CastlevaniaSymphonyoftheNightDraculasCastle_mvl/mxv
 BYTE   W01
 BYTE   VOL   34*CastlevaniaSymphonyoftheNightDraculasCastle_mvl/mxv
 BYTE   W01
 BYTE   VOL   35*CastlevaniaSymphonyoftheNightDraculasCastle_mvl/mxv
 BYTE   W01
 BYTE   VOL   37*CastlevaniaSymphonyoftheNightDraculasCastle_mvl/mxv
 BYTE   W01
 BYTE   VOL   37*CastlevaniaSymphonyoftheNightDraculasCastle_mvl/mxv
 BYTE   W01
 BYTE   VOL   38*CastlevaniaSymphonyoftheNightDraculasCastle_mvl/mxv
 BYTE   W01
 BYTE   VOL   39*CastlevaniaSymphonyoftheNightDraculasCastle_mvl/mxv
 BYTE   W01
 BYTE   VOL   40*CastlevaniaSymphonyoftheNightDraculasCastle_mvl/mxv
 BYTE   W01
 BYTE   VOL   41*CastlevaniaSymphonyoftheNightDraculasCastle_mvl/mxv
 BYTE   W01
 BYTE   VOL   42*CastlevaniaSymphonyoftheNightDraculasCastle_mvl/mxv
 BYTE   W01
 BYTE   VOL   44*CastlevaniaSymphonyoftheNightDraculasCastle_mvl/mxv
 BYTE   W01
 BYTE   VOL   45*CastlevaniaSymphonyoftheNightDraculasCastle_mvl/mxv
 BYTE   W01
 BYTE   VOL   45*CastlevaniaSymphonyoftheNightDraculasCastle_mvl/mxv
 BYTE   W01
 BYTE   VOL   46*CastlevaniaSymphonyoftheNightDraculasCastle_mvl/mxv
 BYTE   W01
 BYTE   VOL   48*CastlevaniaSymphonyoftheNightDraculasCastle_mvl/mxv
 BYTE   W01
 BYTE   VOL   49*CastlevaniaSymphonyoftheNightDraculasCastle_mvl/mxv
 BYTE   N08  Fs2  v100
 BYTE   W36
 BYTE   N06  Ds2  v116
 BYTE   W18
 BYTE   Cn2  v100
 BYTE   W18
 BYTE   VOL   26*CastlevaniaSymphonyoftheNightDraculasCastle_mvl/mxv
 BYTE   N24  Fn2  v088
 BYTE   W01
 BYTE   PEND 
//  #04 //057   ----------------------------------------
Label_012D32D9:
 BYTE   VOL   26*CastlevaniaSymphonyoftheNightDraculasCastle_mvl/mxv
 BYTE   W01
 BYTE   VOL   27*CastlevaniaSymphonyoftheNightDraculasCastle_mvl/mxv
 BYTE   W01
 BYTE   VOL   28*CastlevaniaSymphonyoftheNightDraculasCastle_mvl/mxv
 BYTE   W01
 BYTE   VOL   28*CastlevaniaSymphonyoftheNightDraculasCastle_mvl/mxv
 BYTE   W01
 BYTE   VOL   30*CastlevaniaSymphonyoftheNightDraculasCastle_mvl/mxv
 BYTE   W01
 BYTE   VOL   30*CastlevaniaSymphonyoftheNightDraculasCastle_mvl/mxv
 BYTE   W01
 BYTE   VOL   31*CastlevaniaSymphonyoftheNightDraculasCastle_mvl/mxv
 BYTE   W01
 BYTE   VOL   32*CastlevaniaSymphonyoftheNightDraculasCastle_mvl/mxv
 BYTE   W01
 BYTE   VOL   34*CastlevaniaSymphonyoftheNightDraculasCastle_mvl/mxv
 BYTE   W01
 BYTE   VOL   34*CastlevaniaSymphonyoftheNightDraculasCastle_mvl/mxv
 BYTE   W01
 BYTE   VOL   35*CastlevaniaSymphonyoftheNightDraculasCastle_mvl/mxv
 BYTE   W01
 BYTE   VOL   37*CastlevaniaSymphonyoftheNightDraculasCastle_mvl/mxv
 BYTE   W01
 BYTE   VOL   37*CastlevaniaSymphonyoftheNightDraculasCastle_mvl/mxv
 BYTE   W01
 BYTE   VOL   38*CastlevaniaSymphonyoftheNightDraculasCastle_mvl/mxv
 BYTE   W01
 BYTE   VOL   39*CastlevaniaSymphonyoftheNightDraculasCastle_mvl/mxv
 BYTE   W01
 BYTE   VOL   40*CastlevaniaSymphonyoftheNightDraculasCastle_mvl/mxv
 BYTE   W01
 BYTE   VOL   41*CastlevaniaSymphonyoftheNightDraculasCastle_mvl/mxv
 BYTE   W01
 BYTE   VOL   42*CastlevaniaSymphonyoftheNightDraculasCastle_mvl/mxv
 BYTE   W01
 BYTE   VOL   44*CastlevaniaSymphonyoftheNightDraculasCastle_mvl/mxv
 BYTE   W01
 BYTE   VOL   45*CastlevaniaSymphonyoftheNightDraculasCastle_mvl/mxv
 BYTE   W01
 BYTE   VOL   45*CastlevaniaSymphonyoftheNightDraculasCastle_mvl/mxv
 BYTE   W01
 BYTE   VOL   46*CastlevaniaSymphonyoftheNightDraculasCastle_mvl/mxv
 BYTE   W01
 BYTE   VOL   48*CastlevaniaSymphonyoftheNightDraculasCastle_mvl/mxv
 BYTE   W01
 BYTE   VOL   49*CastlevaniaSymphonyoftheNightDraculasCastle_mvl/mxv
 BYTE   N08  Fs2  v100
 BYTE   W36
 BYTE   N06  As2  v116
 BYTE   W18
 BYTE   An2  v100
 BYTE   W18
 BYTE   N11  Fn2  v116
 BYTE   W01
 BYTE   PEND 
//  #04 //058   ----------------------------------------
 BYTE   W96
//  #04 //059   ----------------------------------------
 BYTE   GoTo
  POIN2 Label_012D2E73
//  #04 //060   ----------------------------------------
 BYTE   W96
//  #04 //061   ----------------------------------------
 BYTE   W96
//  #04 //062   ----------------------------------------
 BYTE   W96
//  #04 //063   ----------------------------------------
 BYTE   W96
//  #04 //064   ----------------------------------------
 BYTE   W96
//  #04 //065   ----------------------------------------
 BYTE   W96
//  #04 //066   ----------------------------------------
 BYTE   W96
//  #04 //067   ----------------------------------------
 BYTE   PATT
  POIN2 Label_012D2E7A
//  #04 //068   ----------------------------------------
 BYTE   PATT
  POIN2 Label_012D2E83
//  #04 //069   ----------------------------------------
 BYTE   PATT
  POIN2 Label_012D2EDD
//  #04 //070   ----------------------------------------
 BYTE   PATT
  POIN2 Label_012D2F31
//  #04 //071   ----------------------------------------
 BYTE   PATT
  POIN2 Label_012D2F4C
//  #04 //072   ----------------------------------------
 BYTE   PATT
  POIN2 Label_012D2FD5
//  #04 //073   ----------------------------------------
 BYTE   PATT
  POIN2 Label_012D2FEE
//  #04 //074   ----------------------------------------
 BYTE   PATT
  POIN2 Label_012D3040
//  #04 //075   ----------------------------------------
 BYTE   PATT
  POIN2 Label_012D3059
//  #04 //076   ----------------------------------------
 BYTE   PATT
  POIN2 Label_012D30A8
//  #04 //077   ----------------------------------------
 BYTE   W96
//  #04 //078   ----------------------------------------
 BYTE   W96
//  #04 //079   ----------------------------------------
 BYTE   W96
//  #04 //080   ----------------------------------------
 BYTE   W96
//  #04 //081   ----------------------------------------
 BYTE   W96
//  #04 //082   ----------------------------------------
 BYTE   W96
//  #04 //083   ----------------------------------------
 BYTE   W96
//  #04 //084   ----------------------------------------
 BYTE   W96
//  #04 //085   ----------------------------------------
 BYTE   PATT
  POIN2 Label_012D3139
//  #04 //086   ----------------------------------------
 BYTE   PATT
  POIN2 Label_012D313F
//  #04 //087   ----------------------------------------
 BYTE   W96
//  #04 //088   ----------------------------------------
 BYTE   PATT
  POIN2 Label_012D315F
//  #04 //089   ----------------------------------------
 BYTE   PATT
  POIN2 Label_012D3181
//  #04 //090   ----------------------------------------
 BYTE   PATT
  POIN2 Label_012D318B
//  #04 //091   ----------------------------------------
 BYTE   PATT
  POIN2 Label_012D3196
//  #04 //092   ----------------------------------------
 BYTE   PATT
  POIN2 Label_012D319D
//  #04 //093   ----------------------------------------
 BYTE   PATT
  POIN2 Label_012D31A6
//  #04 //094   ----------------------------------------
 BYTE   PATT
  POIN2 Label_012D31D9
//  #04 //095   ----------------------------------------
 BYTE   EOT
 BYTE   As3
 BYTE   VOL   0*CastlevaniaSymphonyoftheNightDraculasCastle_mvl/mxv
 BYTE   W01
 BYTE   VOL   0*CastlevaniaSymphonyoftheNightDraculasCastle_mvl/mxv
 BYTE   W01
 BYTE   W96
//  #04 //096   ----------------------------------------
 BYTE   W96
//  #04 //097   ----------------------------------------
 BYTE   W96
//  #04 //098   ----------------------------------------
 BYTE   W96
//  #04 //099   ----------------------------------------
 BYTE   W96
//  #04 //100   ----------------------------------------
 BYTE   W96
//  #04 //101   ----------------------------------------
 BYTE   W96
//  #04 //102   ----------------------------------------
 BYTE   PATT
  POIN2 Label_012D324C
//  #04 //103   ----------------------------------------
 BYTE   PATT
  POIN2 Label_012D3255
//  #04 //104   ----------------------------------------
 BYTE   PATT
  POIN2 Label_012D3297
//  #04 //105   ----------------------------------------
 BYTE   PATT
  POIN2 Label_012D32D9
//  #04 //106   ----------------------------------------
 BYTE   W10
 BYTE   FINE

//**************** Track 5 (Midi-Chn.4) ****************//

CastlevaniaSymphonyoftheNightDraculasCastle_005:
//  #05 //000   ----------------------------------------
 BYTE   KEYSH   CastlevaniaSymphonyoftheNightDraculasCastle_key+0
 BYTE   VOICE   63
 BYTE   MODT 0
 BYTE   LFOS 44
 BYTE   VOL   80*CastlevaniaSymphonyoftheNightDraculasCastle_mvl/mxv
 BYTE   PAN   c_v-10
 BYTE   VOL   25*CastlevaniaSymphonyoftheNightDraculasCastle_mvl/mxv
 BYTE   MOD 0
 BYTE   W96
//  #05 //001   ----------------------------------------
 BYTE   W96
//  #05 //002   ----------------------------------------
 BYTE   W96
//  #05 //003   ----------------------------------------
 BYTE   W96
//  #05 //004   ----------------------------------------
 BYTE   W96
//  #05 //005   ----------------------------------------
 BYTE   W96
//  #05 //006   ----------------------------------------
 BYTE   W96
//  #05 //007   ----------------------------------------
 BYTE   W96
//  #05 //008   ----------------------------------------
 BYTE   W96
//  #05 //009   ----------------------------------------
 BYTE   W96
//  #05 //010   ----------------------------------------
 BYTE   W96
//  #05 //011   ----------------------------------------
 BYTE   W96
//  #05 //012   ----------------------------------------
Label_0130737C:
 BYTE   W96
//  #05 //013   ----------------------------------------
 BYTE   W96
//  #05 //014   ----------------------------------------
 BYTE   W96
//  #05 //015   ----------------------------------------
 BYTE   W96
//  #05 //016   ----------------------------------------
 BYTE   W96
//  #05 //017   ----------------------------------------
 BYTE   W96
//  #05 //018   ----------------------------------------
 BYTE   W96
//  #05 //019   ----------------------------------------
 BYTE   W96
//  #05 //020   ----------------------------------------
Label_01307384:
 BYTE   N92  As3  v060
 BYTE   N92  Ds4
 BYTE   N92  Gn4
 BYTE   W96
 BYTE   PEND 
//  #05 //021   ----------------------------------------
Label_0130738D:
 BYTE   N44  Cn4  v060
 BYTE   N44  Fn4
 BYTE   N44  An4
 BYTE   W48
 BYTE   N92  Gn3  v048
 BYTE   N92  As3
 BYTE   N92  Ds4
 BYTE   W48
 BYTE   PEND 
//  #05 //022   ----------------------------------------
Label_0130739E:
 BYTE   W48
 BYTE   N44  An3  v060
 BYTE   N44  Cn4
 BYTE   N44  Fn4
 BYTE   W48
 BYTE   PEND 
//  #05 //023   ----------------------------------------
Label_013073A8:
 BYTE   N44  Cn4  v048
 BYTE   N44  Fn4
 BYTE   N44  An4
 BYTE   W48
 BYTE   Dn4  v060
 BYTE   N44  Gn4
 BYTE   N44  As4
 BYTE   W48
 BYTE   PEND 
//  #05 //024   ----------------------------------------
Label_013073B8:
 BYTE   N44  Dn4  v060
 BYTE   N44  Gn4
 BYTE   N44  As4
 BYTE   W48
 BYTE   Dn4  v048
 BYTE   N44  Fs4
 BYTE   N44  An4
 BYTE   W48
 BYTE   PEND 
//  #05 //025   ----------------------------------------
Label_013073C8:
 BYTE   N44  Dn4  v060
 BYTE   N44  Gn4
 BYTE   N44  Cn5
 BYTE   W48
 BYTE   N92  Dn4  v048
 BYTE   N92  Gn4
 BYTE   N92  As4
 BYTE   W48
 BYTE   PEND 
//  #05 //026   ----------------------------------------
Label_013073D9:
 BYTE   W48
 BYTE   N44  Cs4  v048
 BYTE   N44  En4
 BYTE   N44  An4
 BYTE   W48
 BYTE   PEND 
//  #05 //027   ----------------------------------------
Label_013073E3:
 BYTE   VOL   25*CastlevaniaSymphonyoftheNightDraculasCastle_mvl/mxv
 BYTE   TIE  Dn4  v036
 BYTE   N96  Gn4
 BYTE   TIE  An4
 BYTE   W36
 BYTE   W03
 BYTE   VOL   24*CastlevaniaSymphonyoftheNightDraculasCastle_mvl/mxv
 BYTE   W18
 BYTE   VOL   23*CastlevaniaSymphonyoftheNightDraculasCastle_mvl/mxv
 BYTE   W11
 BYTE   VOL   23*CastlevaniaSymphonyoftheNightDraculasCastle_mvl/mxv
 BYTE   W09
 BYTE   VOL   23*CastlevaniaSymphonyoftheNightDraculasCastle_mvl/mxv
 BYTE   W07
 BYTE   VOL   23*CastlevaniaSymphonyoftheNightDraculasCastle_mvl/mxv
 BYTE   W06
 BYTE   VOL   22*CastlevaniaSymphonyoftheNightDraculasCastle_mvl/mxv
 BYTE   W05
 BYTE   VOL   22*CastlevaniaSymphonyoftheNightDraculasCastle_mvl/mxv
 BYTE   W01
 BYTE   PEND 
//  #05 //028   ----------------------------------------
Label_013073FE:
 BYTE   N92  Fs4  v036
 BYTE   W02
 BYTE   VOL   22*CastlevaniaSymphonyoftheNightDraculasCastle_mvl/mxv
 BYTE   W04
 BYTE   VOL   22*CastlevaniaSymphonyoftheNightDraculasCastle_mvl/mxv
 BYTE   W04
 BYTE   VOL   21*CastlevaniaSymphonyoftheNightDraculasCastle_mvl/mxv
 BYTE   W03
 BYTE   VOL   21*CastlevaniaSymphonyoftheNightDraculasCastle_mvl/mxv
 BYTE   W03
 BYTE   VOL   20*CastlevaniaSymphonyoftheNightDraculasCastle_mvl/mxv
 BYTE   W03
 BYTE   VOL   20*CastlevaniaSymphonyoftheNightDraculasCastle_mvl/mxv
 BYTE   W02
 BYTE   VOL   20*CastlevaniaSymphonyoftheNightDraculasCastle_mvl/mxv
 BYTE   W02
 BYTE   VOL   20*CastlevaniaSymphonyoftheNightDraculasCastle_mvl/mxv
 BYTE   W03
 BYTE   VOL   19*CastlevaniaSymphonyoftheNightDraculasCastle_mvl/mxv
 BYTE   W02
 BYTE   VOL   19*CastlevaniaSymphonyoftheNightDraculasCastle_mvl/mxv
 BYTE   W01
 BYTE   VOL   19*CastlevaniaSymphonyoftheNightDraculasCastle_mvl/mxv
 BYTE   W03
 BYTE   VOL   19*CastlevaniaSymphonyoftheNightDraculasCastle_mvl/mxv
 BYTE   W01
 BYTE   VOL   18*CastlevaniaSymphonyoftheNightDraculasCastle_mvl/mxv
 BYTE   W02
 BYTE   VOL   18*CastlevaniaSymphonyoftheNightDraculasCastle_mvl/mxv
 BYTE   W01
 BYTE   VOL   18*CastlevaniaSymphonyoftheNightDraculasCastle_mvl/mxv
 BYTE   W02
 BYTE   VOL   18*CastlevaniaSymphonyoftheNightDraculasCastle_mvl/mxv
 BYTE   W01
 BYTE   VOL   17*CastlevaniaSymphonyoftheNightDraculasCastle_mvl/mxv
 BYTE   W02
 BYTE   VOL   17*CastlevaniaSymphonyoftheNightDraculasCastle_mvl/mxv
 BYTE   W01
 BYTE   VOL   17*CastlevaniaSymphonyoftheNightDraculasCastle_mvl/mxv
 BYTE   W02
 BYTE   VOL   16*CastlevaniaSymphonyoftheNightDraculasCastle_mvl/mxv
 BYTE   W02
 BYTE   VOL   16*CastlevaniaSymphonyoftheNightDraculasCastle_mvl/mxv
 BYTE   W01
 BYTE   VOL   15*CastlevaniaSymphonyoftheNightDraculasCastle_mvl/mxv
 BYTE   W01
 BYTE   VOL   15*CastlevaniaSymphonyoftheNightDraculasCastle_mvl/mxv
 BYTE   W01
 BYTE   VOL   15*CastlevaniaSymphonyoftheNightDraculasCastle_mvl/mxv
 BYTE   W01
 BYTE   VOL   15*CastlevaniaSymphonyoftheNightDraculasCastle_mvl/mxv
 BYTE   W01
 BYTE   VOL   14*CastlevaniaSymphonyoftheNightDraculasCastle_mvl/mxv
 BYTE   W01
 BYTE   VOL   14*CastlevaniaSymphonyoftheNightDraculasCastle_mvl/mxv
 BYTE   W01
 BYTE   VOL   14*CastlevaniaSymphonyoftheNightDraculasCastle_mvl/mxv
 BYTE   W01
 BYTE   VOL   14*CastlevaniaSymphonyoftheNightDraculasCastle_mvl/mxv
 BYTE   W01
 BYTE   VOL   13*CastlevaniaSymphonyoftheNightDraculasCastle_mvl/mxv
 BYTE   W01
 BYTE   VOL   13*CastlevaniaSymphonyoftheNightDraculasCastle_mvl/mxv
 BYTE   W02
 BYTE   VOL   13*CastlevaniaSymphonyoftheNightDraculasCastle_mvl/mxv
 BYTE   W01
 BYTE   VOL   12*CastlevaniaSymphonyoftheNightDraculasCastle_mvl/mxv
 BYTE   W01
 BYTE   VOL   11*CastlevaniaSymphonyoftheNightDraculasCastle_mvl/mxv
 BYTE   W01
 BYTE   VOL   11*CastlevaniaSymphonyoftheNightDraculasCastle_mvl/mxv
 BYTE   W01
 BYTE   VOL   11*CastlevaniaSymphonyoftheNightDraculasCastle_mvl/mxv
 BYTE   W01
 BYTE   VOL   11*CastlevaniaSymphonyoftheNightDraculasCastle_mvl/mxv
 BYTE   W01
 BYTE   VOL   11*CastlevaniaSymphonyoftheNightDraculasCastle_mvl/mxv
 BYTE   W01
 BYTE   VOL   10*CastlevaniaSymphonyoftheNightDraculasCastle_mvl/mxv
 BYTE   W01
 BYTE   VOL   10*CastlevaniaSymphonyoftheNightDraculasCastle_mvl/mxv
 BYTE   W01
 BYTE   VOL   10*CastlevaniaSymphonyoftheNightDraculasCastle_mvl/mxv
 BYTE   W01
 BYTE   VOL   9*CastlevaniaSymphonyoftheNightDraculasCastle_mvl/mxv
 BYTE   W01
 BYTE   VOL   8*CastlevaniaSymphonyoftheNightDraculasCastle_mvl/mxv
 BYTE   W01
 BYTE   VOL   8*CastlevaniaSymphonyoftheNightDraculasCastle_mvl/mxv
 BYTE   W01
 BYTE   VOL   8*CastlevaniaSymphonyoftheNightDraculasCastle_mvl/mxv
 BYTE   W01
 BYTE   VOL   8*CastlevaniaSymphonyoftheNightDraculasCastle_mvl/mxv
 BYTE   W01
 BYTE   VOL   7*CastlevaniaSymphonyoftheNightDraculasCastle_mvl/mxv
 BYTE   W01
 BYTE   VOL   6*CastlevaniaSymphonyoftheNightDraculasCastle_mvl/mxv
 BYTE   W01
 BYTE   VOL   6*CastlevaniaSymphonyoftheNightDraculasCastle_mvl/mxv
 BYTE   W01
 BYTE   VOL   6*CastlevaniaSymphonyoftheNightDraculasCastle_mvl/mxv
 BYTE   W01
 BYTE   VOL   6*CastlevaniaSymphonyoftheNightDraculasCastle_mvl/mxv
 BYTE   W01
 BYTE   VOL   5*CastlevaniaSymphonyoftheNightDraculasCastle_mvl/mxv
 BYTE   W01
 BYTE   VOL   5*CastlevaniaSymphonyoftheNightDraculasCastle_mvl/mxv
 BYTE   W01
 BYTE   VOL   4*CastlevaniaSymphonyoftheNightDraculasCastle_mvl/mxv
 BYTE   W01
 BYTE   VOL   4*CastlevaniaSymphonyoftheNightDraculasCastle_mvl/mxv
 BYTE   W01
 BYTE   VOL   4*CastlevaniaSymphonyoftheNightDraculasCastle_mvl/mxv
 BYTE   W01
 BYTE   VOL   3*CastlevaniaSymphonyoftheNightDraculasCastle_mvl/mxv
 BYTE   W01
 BYTE   VOL   3*CastlevaniaSymphonyoftheNightDraculasCastle_mvl/mxv
 BYTE   W01
 BYTE   VOL   3*CastlevaniaSymphonyoftheNightDraculasCastle_mvl/mxv
 BYTE   W01
 BYTE   VOL   2*CastlevaniaSymphonyoftheNightDraculasCastle_mvl/mxv
 BYTE   W01
 BYTE   VOL   2*CastlevaniaSymphonyoftheNightDraculasCastle_mvl/mxv
 BYTE   W01
 BYTE   VOL   1*CastlevaniaSymphonyoftheNightDraculasCastle_mvl/mxv
 BYTE   W01
 BYTE   VOL   1*CastlevaniaSymphonyoftheNightDraculasCastle_mvl/mxv
 BYTE   W01
 BYTE   VOL   1*CastlevaniaSymphonyoftheNightDraculasCastle_mvl/mxv
 BYTE   W01
 BYTE   VOL   1*CastlevaniaSymphonyoftheNightDraculasCastle_mvl/mxv
 BYTE   W01
 BYTE   VOL   0*CastlevaniaSymphonyoftheNightDraculasCastle_mvl/mxv
 BYTE   W01
 BYTE   VOL   0*CastlevaniaSymphonyoftheNightDraculasCastle_mvl/mxv
 BYTE   W01
 BYTE   VOL   0*CastlevaniaSymphonyoftheNightDraculasCastle_mvl/mxv
 BYTE   W01
 BYTE   PEND 
 BYTE   EOT
 BYTE   Dn4  v081
 BYTE   VOL   0*CastlevaniaSymphonyoftheNightDraculasCastle_mvl/mxv
 BYTE   W01
//  #05 //029   ----------------------------------------
Label_01307492:
 BYTE   VOL   0*CastlevaniaSymphonyoftheNightDraculasCastle_mvl/mxv
 BYTE   W12
 BYTE   VOL   25*CastlevaniaSymphonyoftheNightDraculasCastle_mvl/mxv
 BYTE   N06  Gn4  v088
 BYTE   W06
 BYTE   An4  v100
 BYTE   W06
 BYTE   N04  As4  v116
 BYTE   W12
 BYTE   N06  Gn4  v088
 BYTE   W06
 BYTE   An4  v100
 BYTE   W06
 BYTE   N44  Gn4  v088
 BYTE   W48
 BYTE   PEND 
//  #05 //030   ----------------------------------------
Label_013074AD:
 BYTE   N42  Fn5  v088
 BYTE   W48
 BYTE   Cn5  v072
 BYTE   W48
 BYTE   PEND 
//  #05 //031   ----------------------------------------
Label_013074B5:
 BYTE   N42  Ds5  v072
 BYTE   W48
 BYTE   As4  v088
 BYTE   W48
 BYTE   PEND 
//  #05 //032   ----------------------------------------
Label_013074BD:
 BYTE   N22  An4  v088
 BYTE   W24
 BYTE   Fs4  v060
 BYTE   W24
 BYTE   Gn4  v072
 BYTE   W24
 BYTE   An4  v088
 BYTE   W24
 BYTE   PEND 
//  #05 //033   ----------------------------------------
Label_013074CB:
 BYTE   W12
 BYTE   VOL   25*CastlevaniaSymphonyoftheNightDraculasCastle_mvl/mxv
 BYTE   N06  Gn4  v088
 BYTE   W06
 BYTE   An4  v100
 BYTE   W06
 BYTE   N04  As4  v116
 BYTE   W12
 BYTE   N06  Gn4  v088
 BYTE   W06
 BYTE   An4  v100
 BYTE   W06
 BYTE   N44  Gn4  v088
 BYTE   W48
 BYTE   PEND 
//  #05 //034   ----------------------------------------
Label_013074E5:
 BYTE   N42  Fn5  v088
 BYTE   W48
 BYTE   An4  v072
 BYTE   W48
 BYTE   PEND 
//  #05 //035   ----------------------------------------
Label_013074ED:
 BYTE   N42  Gn5  v072
 BYTE   W48
 BYTE   As5  v088
 BYTE   W48
 BYTE   PEND 
//  #05 //036   ----------------------------------------
Label_013074F5:
 BYTE   N22  An5  v072
 BYTE   W24
 BYTE   Fs5  v048
 BYTE   W24
 BYTE   Gn5  v060
 BYTE   W24
 BYTE   An5  v072
 BYTE   W24
 BYTE   PEND 
//  #05 //037   ----------------------------------------
Label_01307503:
 BYTE   N42  Ds4  v036
 BYTE   N42  Gn4
 BYTE   N42  As4
 BYTE   W48
 BYTE   Fn4
 BYTE   N42  An4
 BYTE   N42  Cn5
 BYTE   W48
 BYTE   PEND 
//  #05 //038   ----------------------------------------
Label_01307512:
 BYTE   N92  Dn4  v036
 BYTE   N92  Gn4
 BYTE   N92  As4
 BYTE   W96
 BYTE   PEND 
//  #05 //039   ----------------------------------------
 BYTE   PATT
  POIN2 Label_01307503
//  #05 //040   ----------------------------------------
 BYTE   PATT
  POIN2 Label_01307512
//  #05 //041   ----------------------------------------
Label_01307525:
 BYTE   N42  Cs4  v036
 BYTE   N42  Fs4
 BYTE   N42  As4
 BYTE   W48
 BYTE   Ds4  v048
 BYTE   N42  Gs4
 BYTE   N42  Cn5
 BYTE   W48
 BYTE   PEND 
//  #05 //042   ----------------------------------------
Label_01307535:
 BYTE   N42  As3  v036
 BYTE   N42  Cs4
 BYTE   N42  Fs4
 BYTE   W48
 BYTE   N44  Cn4  v048
 BYTE   N44  Ds4
 BYTE   N44  Gs4
 BYTE   W48
 BYTE   PEND 
//  #05 //043   ----------------------------------------
Label_01307546:
 BYTE   N92  Cs4  v036
 BYTE   N92  Fs4
 BYTE   N92  As4
 BYTE   W96
 BYTE   PEND 
//  #05 //044   ----------------------------------------
Label_0130754F:
 BYTE   N92  Ds4  v048
 BYTE   N92  Gs4
 BYTE   N92  Cn5
 BYTE   W96
 BYTE   PEND 
//  #05 //045   ----------------------------------------
Label_01307558:
 BYTE   TIE  Fn4  v048
 BYTE   TIE  As4
 BYTE   TIE  Dn5
 BYTE   W96
 BYTE   PEND 
//  #05 //046   ----------------------------------------
 BYTE   W92
 BYTE   W03
 BYTE   EOT
 BYTE   Fn4  v082
 BYTE   Dn5
 BYTE   W01
//  #05 //047   ----------------------------------------
 BYTE   W96
//  #05 //048   ----------------------------------------
 BYTE   W96
//  #05 //049   ----------------------------------------
 BYTE   W96
//  #05 //050   ----------------------------------------
 BYTE   W96
//  #05 //051   ----------------------------------------
 BYTE   W96
//  #05 //052   ----------------------------------------
 BYTE   W96
//  #05 //053   ----------------------------------------
 BYTE   W96
//  #05 //054   ----------------------------------------
 BYTE   W96
//  #05 //055   ----------------------------------------
Label_01307570:
 BYTE   N24  Fn2  v088
 BYTE   N24  Cn3
 BYTE   W24
 BYTE   N08  Fs2  v100
 BYTE   N08  Cs3
 BYTE   W36
 BYTE   N06  As2  v116
 BYTE   N06  Fn3
 BYTE   W18
 BYTE   An2  v100
 BYTE   N06  Fn3
 BYTE   W18
 BYTE   PEND 
//  #05 //056   ----------------------------------------
Label_01307588:
 BYTE   N24  Fn2  v088
 BYTE   N24  Cn3
 BYTE   W24
 BYTE   N08  Fs2  v100
 BYTE   N08  Cs3
 BYTE   W36
 BYTE   N06  Ds2  v116
 BYTE   N06  As2
 BYTE   W18
 BYTE   Cn2
 BYTE   N06  Gn2
 BYTE   W18
 BYTE   PEND 
//  #05 //057   ----------------------------------------
 BYTE   PATT
  POIN2 Label_01307570
//  #05 //058   ----------------------------------------
 BYTE   N09  Fn2  v116
 BYTE   N09  Cn3
 BYTE   W96
//  #05 //059   ----------------------------------------
 BYTE   GoTo
  POIN2 Label_0130737C
//  #05 //060   ----------------------------------------
 BYTE   W96
//  #05 //061   ----------------------------------------
 BYTE   W96
//  #05 //062   ----------------------------------------
 BYTE   W96
//  #05 //063   ----------------------------------------
 BYTE   W96
//  #05 //064   ----------------------------------------
 BYTE   W96
//  #05 //065   ----------------------------------------
 BYTE   W96
//  #05 //066   ----------------------------------------
 BYTE   W96
//  #05 //067   ----------------------------------------
 BYTE   W96
//  #05 //068   ----------------------------------------
 BYTE   PATT
  POIN2 Label_01307384
//  #05 //069   ----------------------------------------
 BYTE   PATT
  POIN2 Label_0130738D
//  #05 //070   ----------------------------------------
 BYTE   PATT
  POIN2 Label_0130739E
//  #05 //071   ----------------------------------------
 BYTE   PATT
  POIN2 Label_013073A8
//  #05 //072   ----------------------------------------
 BYTE   PATT
  POIN2 Label_013073B8
//  #05 //073   ----------------------------------------
 BYTE   PATT
  POIN2 Label_013073C8
//  #05 //074   ----------------------------------------
 BYTE   PATT
  POIN2 Label_013073D9
//  #05 //075   ----------------------------------------
 BYTE   PATT
  POIN2 Label_013073E3
//  #05 //076   ----------------------------------------
 BYTE   PATT
  POIN2 Label_013073FE
//  #05 //077   ----------------------------------------
 BYTE   EOT
 BYTE   Dn4  v081
 BYTE   VOL   0*CastlevaniaSymphonyoftheNightDraculasCastle_mvl/mxv
 BYTE   W01
//  #05 //078   ----------------------------------------
 BYTE   PATT
  POIN2 Label_01307492
//  #05 //079   ----------------------------------------
 BYTE   PATT
  POIN2 Label_013074AD
//  #05 //080   ----------------------------------------
 BYTE   PATT
  POIN2 Label_013074B5
//  #05 //081   ----------------------------------------
 BYTE   PATT
  POIN2 Label_013074BD
//  #05 //082   ----------------------------------------
 BYTE   PATT
  POIN2 Label_013074CB
//  #05 //083   ----------------------------------------
 BYTE   PATT
  POIN2 Label_013074E5
//  #05 //084   ----------------------------------------
 BYTE   PATT
  POIN2 Label_013074ED
//  #05 //085   ----------------------------------------
 BYTE   PATT
  POIN2 Label_013074F5
//  #05 //086   ----------------------------------------
 BYTE   PATT
  POIN2 Label_01307503
//  #05 //087   ----------------------------------------
 BYTE   PATT
  POIN2 Label_01307512
//  #05 //088   ----------------------------------------
 BYTE   PATT
  POIN2 Label_01307503
//  #05 //089   ----------------------------------------
 BYTE   PATT
  POIN2 Label_01307512
//  #05 //090   ----------------------------------------
 BYTE   PATT
  POIN2 Label_01307525
//  #05 //091   ----------------------------------------
 BYTE   PATT
  POIN2 Label_01307535
//  #05 //092   ----------------------------------------
 BYTE   PATT
  POIN2 Label_01307546
//  #05 //093   ----------------------------------------
 BYTE   PATT
  POIN2 Label_0130754F
//  #05 //094   ----------------------------------------
 BYTE   PATT
  POIN2 Label_01307558
//  #05 //095   ----------------------------------------
 BYTE   W92
 BYTE   W03
 BYTE   EOT
 BYTE   Fn4  v082
 BYTE   Dn5
 BYTE   W01
//  #05 //096   ----------------------------------------
 BYTE   W96
//  #05 //097   ----------------------------------------
 BYTE   W96
//  #05 //098   ----------------------------------------
 BYTE   W96
//  #05 //099   ----------------------------------------
 BYTE   W96
//  #05 //100   ----------------------------------------
 BYTE   W96
//  #05 //101   ----------------------------------------
 BYTE   W96
//  #05 //102   ----------------------------------------
 BYTE   W96
//  #05 //103   ----------------------------------------
 BYTE   W96
//  #05 //104   ----------------------------------------
 BYTE   PATT
  POIN2 Label_01307570
//  #05 //105   ----------------------------------------
 BYTE   PATT
  POIN2 Label_01307588
//  #05 //106   ----------------------------------------
 BYTE   PATT
  POIN2 Label_01307570
//  #05 //107   ----------------------------------------
 BYTE   N09  Fn2  v116
 BYTE   N09  Cn3
 BYTE   W09
 BYTE   FINE

//**************** Track 6 (Midi-Chn.5) ****************//

CastlevaniaSymphonyoftheNightDraculasCastle_006:
//  #06 //000   ----------------------------------------
 BYTE   KEYSH   CastlevaniaSymphonyoftheNightDraculasCastle_key+0
 BYTE   VOICE   30
 BYTE   MODT 0
 BYTE   LFOS 44
 BYTE   PAN   c_v-4
 BYTE   VOL   43*CastlevaniaSymphonyoftheNightDraculasCastle_mvl/mxv
 BYTE   VOL   43*CastlevaniaSymphonyoftheNightDraculasCastle_mvl/mxv
 BYTE   MOD 0
 BYTE   W96
//  #06 //001   ----------------------------------------
 BYTE   W96
//  #06 //002   ----------------------------------------
 BYTE   W96
//  #06 //003   ----------------------------------------
 BYTE   W44
 BYTE   W03
 BYTE   BEND   c_v+0
 BYTE   N44  Gn2  v100
 BYTE   W04
 BYTE   BEND   c_v-6
 BYTE   W04
 BYTE   BEND   c_v-12
 BYTE   W04
 BYTE   BEND   c_v-19
 BYTE   W04
 BYTE   BEND   c_v-25
 BYTE   W04
 BYTE   BEND   c_v-32
 BYTE   W04
 BYTE   BEND   c_v-38
 BYTE   W04
 BYTE   BEND   c_v-44
 BYTE   W04
 BYTE   BEND   c_v-51
 BYTE   W04
 BYTE   BEND   c_v-57
 BYTE   W04
 BYTE   BEND   c_v-64
 BYTE   W08
 BYTE   BEND   c_v+0
 BYTE   TIE  Bn1
 BYTE   W01
//  #06 //004   ----------------------------------------
 BYTE   W96
//  #06 //005   ----------------------------------------
 BYTE   W92
 BYTE   W02
 BYTE   EOT
 BYTE   W01
 BYTE   TIE  Cn2  v092
 BYTE   W01
//  #06 //006   ----------------------------------------
 BYTE   W96
//  #06 //007   ----------------------------------------
 BYTE   W92
 BYTE   W02
 BYTE   EOT
 BYTE   W02
//  #06 //008   ----------------------------------------
 BYTE   W92
 BYTE   W03
 BYTE   BEND   c_v-5
 BYTE   N22  Dn2  v100
 BYTE   W01
//  #06 //009   ----------------------------------------
 BYTE   W03
 BYTE   BEND   c_v-4
 BYTE   W01
 BYTE   BEND   c_v+0
 BYTE   W19
 BYTE   N04  Gs1  v088
 BYTE   W12
 BYTE   TIE  Dn1  v100
 BYTE   W60
 BYTE   W01
//  #06 //010   ----------------------------------------
 BYTE   W92
 BYTE   W03
 BYTE   VOL   43*CastlevaniaSymphonyoftheNightDraculasCastle_mvl/mxv
 BYTE   W01
//  #06 //011   ----------------------------------------
 BYTE   W19
 BYTE   VOL   42*CastlevaniaSymphonyoftheNightDraculasCastle_mvl/mxv
 BYTE   W08
 BYTE   VOL   41*CastlevaniaSymphonyoftheNightDraculasCastle_mvl/mxv
 BYTE   W06
 BYTE   VOL   40*CastlevaniaSymphonyoftheNightDraculasCastle_mvl/mxv
 BYTE   W05
 BYTE   VOL   40*CastlevaniaSymphonyoftheNightDraculasCastle_mvl/mxv
 BYTE   W03
 BYTE   VOL   40*CastlevaniaSymphonyoftheNightDraculasCastle_mvl/mxv
 BYTE   W03
 BYTE   VOL   39*CastlevaniaSymphonyoftheNightDraculasCastle_mvl/mxv
 BYTE   W03
 BYTE   VOL   39*CastlevaniaSymphonyoftheNightDraculasCastle_mvl/mxv
 BYTE   W01
 BYTE   VOL   38*CastlevaniaSymphonyoftheNightDraculasCastle_mvl/mxv
 BYTE   W02
 BYTE   VOL   37*CastlevaniaSymphonyoftheNightDraculasCastle_mvl/mxv
 BYTE   W02
 BYTE   VOL   37*CastlevaniaSymphonyoftheNightDraculasCastle_mvl/mxv
 BYTE   W02
 BYTE   VOL   37*CastlevaniaSymphonyoftheNightDraculasCastle_mvl/mxv
 BYTE   W01
 BYTE   VOL   36*CastlevaniaSymphonyoftheNightDraculasCastle_mvl/mxv
 BYTE   W02
 BYTE   VOL   35*CastlevaniaSymphonyoftheNightDraculasCastle_mvl/mxv
 BYTE   W01
 BYTE   VOL   35*CastlevaniaSymphonyoftheNightDraculasCastle_mvl/mxv
 BYTE   W01
 BYTE   VOL   34*CastlevaniaSymphonyoftheNightDraculasCastle_mvl/mxv
 BYTE   W01
 BYTE   VOL   34*CastlevaniaSymphonyoftheNightDraculasCastle_mvl/mxv
 BYTE   W01
 BYTE   VOL   34*CastlevaniaSymphonyoftheNightDraculasCastle_mvl/mxv
 BYTE   W01
 BYTE   VOL   33*CastlevaniaSymphonyoftheNightDraculasCastle_mvl/mxv
 BYTE   W01
 BYTE   VOL   32*CastlevaniaSymphonyoftheNightDraculasCastle_mvl/mxv
 BYTE   W01
 BYTE   VOL   31*CastlevaniaSymphonyoftheNightDraculasCastle_mvl/mxv
 BYTE   W01
 BYTE   VOL   30*CastlevaniaSymphonyoftheNightDraculasCastle_mvl/mxv
 BYTE   W01
 BYTE   VOL   30*CastlevaniaSymphonyoftheNightDraculasCastle_mvl/mxv
 BYTE   W01
 BYTE   VOL   29*CastlevaniaSymphonyoftheNightDraculasCastle_mvl/mxv
 BYTE   W01
 BYTE   VOL   28*CastlevaniaSymphonyoftheNightDraculasCastle_mvl/mxv
 BYTE   W01
 BYTE   VOL   28*CastlevaniaSymphonyoftheNightDraculasCastle_mvl/mxv
 BYTE   W01
 BYTE   VOL   27*CastlevaniaSymphonyoftheNightDraculasCastle_mvl/mxv
 BYTE   W01
 BYTE   VOL   26*CastlevaniaSymphonyoftheNightDraculasCastle_mvl/mxv
 BYTE   W01
 BYTE   VOL   26*CastlevaniaSymphonyoftheNightDraculasCastle_mvl/mxv
 BYTE   W01
 BYTE   VOL   24*CastlevaniaSymphonyoftheNightDraculasCastle_mvl/mxv
 BYTE   W01
 BYTE   VOL   23*CastlevaniaSymphonyoftheNightDraculasCastle_mvl/mxv
 BYTE   W01
 BYTE   VOL   22*CastlevaniaSymphonyoftheNightDraculasCastle_mvl/mxv
 BYTE   W01
 BYTE   VOL   21*CastlevaniaSymphonyoftheNightDraculasCastle_mvl/mxv
 BYTE   W01
 BYTE   VOL   20*CastlevaniaSymphonyoftheNightDraculasCastle_mvl/mxv
 BYTE   W01
 BYTE   VOL   19*CastlevaniaSymphonyoftheNightDraculasCastle_mvl/mxv
 BYTE   W01
 BYTE   VOL   18*CastlevaniaSymphonyoftheNightDraculasCastle_mvl/mxv
 BYTE   W01
 BYTE   VOL   17*CastlevaniaSymphonyoftheNightDraculasCastle_mvl/mxv
 BYTE   W01
 BYTE   VOL   16*CastlevaniaSymphonyoftheNightDraculasCastle_mvl/mxv
 BYTE   W01
 BYTE   VOL   14*CastlevaniaSymphonyoftheNightDraculasCastle_mvl/mxv
 BYTE   W01
 BYTE   VOL   13*CastlevaniaSymphonyoftheNightDraculasCastle_mvl/mxv
 BYTE   W01
 BYTE   VOL   11*CastlevaniaSymphonyoftheNightDraculasCastle_mvl/mxv
 BYTE   W01
 BYTE   VOL   10*CastlevaniaSymphonyoftheNightDraculasCastle_mvl/mxv
 BYTE   W01
 BYTE   VOL   9*CastlevaniaSymphonyoftheNightDraculasCastle_mvl/mxv
 BYTE   W01
 BYTE   VOL   8*CastlevaniaSymphonyoftheNightDraculasCastle_mvl/mxv
 BYTE   W01
 BYTE   VOL   6*CastlevaniaSymphonyoftheNightDraculasCastle_mvl/mxv
 BYTE   W01
 BYTE   VOL   5*CastlevaniaSymphonyoftheNightDraculasCastle_mvl/mxv
 BYTE   W01
 BYTE   VOL   4*CastlevaniaSymphonyoftheNightDraculasCastle_mvl/mxv
 BYTE   W01
 BYTE   VOL   2*CastlevaniaSymphonyoftheNightDraculasCastle_mvl/mxv
 BYTE   W01
 BYTE   VOL   1*CastlevaniaSymphonyoftheNightDraculasCastle_mvl/mxv
 BYTE   W01
 BYTE   VOL   1*CastlevaniaSymphonyoftheNightDraculasCastle_mvl/mxv
 BYTE   W01
 BYTE   EOT
 BYTE   VOL   0*CastlevaniaSymphonyoftheNightDraculasCastle_mvl/mxv
 BYTE   W01
 BYTE   VOL   43*CastlevaniaSymphonyoftheNightDraculasCastle_mvl/mxv
 BYTE   N11  Dn2  v088
 BYTE   W01
//  #06 //012   ----------------------------------------
Label_012D348D:
 BYTE   W11
 BYTE   N01  Dn2  v036
 BYTE   W12
 BYTE   N23  Dn2  v088
 BYTE   W24
 BYTE   N02  Dn2  v036
 BYTE   W12
 BYTE   N11  Ds2  v088
 BYTE   W12
 BYTE   N11
 BYTE   W12
 BYTE   N02  Dn2  v036
 BYTE   W12
 BYTE   N11  Dn2  v088
 BYTE   W01
 BYTE   PEND 
//  #06 //013   ----------------------------------------
Label_012D34A9:
 BYTE   W11
 BYTE   N01  Dn2  v036
 BYTE   W12
 BYTE   N23  Dn2  v088
 BYTE   W24
 BYTE   N02  Dn2  v036
 BYTE   W12
 BYTE   N11  Ds2  v088
 BYTE   W12
 BYTE   N11
 BYTE   W12
 BYTE   N02  Dn2  v036
 BYTE   W12
 BYTE   N11  Ds2  v088
 BYTE   W01
 BYTE   PEND 
//  #06 //014   ----------------------------------------
Label_012D34C5:
 BYTE   W11
 BYTE   N01  Ds2  v036
 BYTE   W12
 BYTE   N23  Ds2  v088
 BYTE   W24
 BYTE   N02  Ds2  v036
 BYTE   W12
 BYTE   N11  Fn2  v088
 BYTE   W12
 BYTE   N11
 BYTE   W12
 BYTE   N02  Ds2  v036
 BYTE   W12
 BYTE   N11  Gn2  v088
 BYTE   W01
 BYTE   PEND 
//  #06 //015   ----------------------------------------
Label_012D34E1:
 BYTE   W11
 BYTE   N01  Gn2  v036
 BYTE   W12
 BYTE   N23  Gn2  v088
 BYTE   W24
 BYTE   N02  Gn2  v036
 BYTE   W12
 BYTE   N11  Dn2  v088
 BYTE   W12
 BYTE   N11
 BYTE   W12
 BYTE   N02  Dn2  v036
 BYTE   W12
 BYTE   N11  Dn2  v088
 BYTE   W01
 BYTE   PEND 
//  #06 //016   ----------------------------------------
 BYTE   PATT
  POIN2 Label_012D348D
//  #06 //017   ----------------------------------------
 BYTE   PATT
  POIN2 Label_012D34A9
//  #06 //018   ----------------------------------------
 BYTE   PATT
  POIN2 Label_012D34C5
//  #06 //019   ----------------------------------------
Label_012D350C:
 BYTE   W11
 BYTE   N01  Gn2  v036
 BYTE   W12
 BYTE   N23  Gn2  v088
 BYTE   W24
 BYTE   N02  Gn2  v036
 BYTE   W12
 BYTE   N11  Dn2  v088
 BYTE   W12
 BYTE   N11
 BYTE   W12
 BYTE   N02  Dn2  v036
 BYTE   W13
 BYTE   PEND 
//  #06 //020   ----------------------------------------
 BYTE   W96
//  #06 //021   ----------------------------------------
 BYTE   W96
//  #06 //022   ----------------------------------------
 BYTE   W96
//  #06 //023   ----------------------------------------
 BYTE   W96
//  #06 //024   ----------------------------------------
 BYTE   W96
//  #06 //025   ----------------------------------------
 BYTE   W96
//  #06 //026   ----------------------------------------
 BYTE   W96
//  #06 //027   ----------------------------------------
 BYTE   W96
//  #06 //028   ----------------------------------------
Label_012D352C:
 BYTE   W44
 BYTE   W03
 BYTE   N02  Dn2  v036
 BYTE   W12
 BYTE   BEND   c_v-5
 BYTE   N11  Dn3  v072
 BYTE   W04
 BYTE   BEND   c_v-4
 BYTE   W01
 BYTE   BEND   c_v+0
 BYTE   W07
 BYTE   N22  Dn2  v088
 BYTE   W24
 BYTE   N11  Gn1  v060
 BYTE   W01
 BYTE   PEND 
//  #06 //029   ----------------------------------------
Label_012D3546:
 BYTE   W11
 BYTE   N11  Gn1  v088
 BYTE   W12
 BYTE   Gn1  v060
 BYTE   W12
 BYTE   N11
 BYTE   W12
 BYTE   N32  Gn1  v088
 BYTE   W36
 BYTE   N11  Gn1  v060
 BYTE   W12
 BYTE   Fn1
 BYTE   W01
 BYTE   PEND 
//  #06 //030   ----------------------------------------
Label_012D355B:
 BYTE   W11
 BYTE   N11  Fn1  v088
 BYTE   W12
 BYTE   Fn1  v060
 BYTE   W12
 BYTE   N11
 BYTE   W12
 BYTE   N32  Fn1  v088
 BYTE   W36
 BYTE   N11  Fn1  v060
 BYTE   W12
 BYTE   Ds1
 BYTE   W01
 BYTE   PEND 
//  #06 //031   ----------------------------------------
Label_012D3570:
 BYTE   W11
 BYTE   N11  Ds1  v088
 BYTE   W12
 BYTE   Ds1  v060
 BYTE   W12
 BYTE   N11
 BYTE   W12
 BYTE   N32  Ds1  v088
 BYTE   W36
 BYTE   N11  Ds1  v060
 BYTE   W12
 BYTE   Dn1
 BYTE   W01
 BYTE   PEND 
//  #06 //032   ----------------------------------------
Label_012D3585:
 BYTE   W11
 BYTE   N11  Dn1  v088
 BYTE   W12
 BYTE   Dn1  v060
 BYTE   W12
 BYTE   N11
 BYTE   W12
 BYTE   N32  Dn1  v088
 BYTE   W36
 BYTE   N11  Dn1  v060
 BYTE   W12
 BYTE   Gn1
 BYTE   W01
 BYTE   PEND 
//  #06 //033   ----------------------------------------
 BYTE   PATT
  POIN2 Label_012D3546
//  #06 //034   ----------------------------------------
 BYTE   PATT
  POIN2 Label_012D355B
//  #06 //035   ----------------------------------------
 BYTE   PATT
  POIN2 Label_012D3570
//  #06 //036   ----------------------------------------
Label_012D35A9:
 BYTE   W11
 BYTE   N11  Dn1  v088
 BYTE   W12
 BYTE   Dn1  v060
 BYTE   W12
 BYTE   N11
 BYTE   W12
 BYTE   N32  Dn1  v088
 BYTE   W36
 BYTE   N11  Dn1  v060
 BYTE   W12
 BYTE   Ds1  v072
 BYTE   W01
 BYTE   PEND 
//  #06 //037   ----------------------------------------
Label_012D35BF:
 BYTE   W11
 BYTE   N11  Ds1  v088
 BYTE   W12
 BYTE   N04  Ds1  v036
 BYTE   W12
 BYTE   N11  Ds1  v060
 BYTE   W12
 BYTE   Fn1  v072
 BYTE   W12
 BYTE   Fn1  v088
 BYTE   W12
 BYTE   N04  Fn1  v036
 BYTE   W12
 BYTE   N11  Fn1  v060
 BYTE   W12
 BYTE   Gn1  v072
 BYTE   W01
 BYTE   PEND 
//  #06 //038   ----------------------------------------
Label_012D35DE:
 BYTE   W11
 BYTE   N11  Gn1  v088
 BYTE   W12
 BYTE   N04  Gn1  v036
 BYTE   W12
 BYTE   N11  Gn1  v060
 BYTE   W12
 BYTE   Gn1  v072
 BYTE   W12
 BYTE   Gn1  v088
 BYTE   W12
 BYTE   N04  Gn1  v036
 BYTE   W12
 BYTE   N11  Gn1  v060
 BYTE   W12
 BYTE   Ds1  v072
 BYTE   W01
 BYTE   PEND 
//  #06 //039   ----------------------------------------
 BYTE   PATT
  POIN2 Label_012D35BF
//  #06 //040   ----------------------------------------
Label_012D3602:
 BYTE   W11
 BYTE   N11  Gn1  v088
 BYTE   W12
 BYTE   N04  Gn1  v036
 BYTE   W12
 BYTE   N11  Gn1  v060
 BYTE   W12
 BYTE   Gn1  v072
 BYTE   W12
 BYTE   Gn1  v088
 BYTE   W12
 BYTE   N04  Gn1  v036
 BYTE   W12
 BYTE   N11  Gn1  v060
 BYTE   W12
 BYTE   Fs1  v072
 BYTE   W01
 BYTE   PEND 
//  #06 //041   ----------------------------------------
Label_012D3621:
 BYTE   W11
 BYTE   N11  Fs1  v088
 BYTE   W12
 BYTE   N04  Fs1  v036
 BYTE   W12
 BYTE   N11  Fs1  v060
 BYTE   W12
 BYTE   Gs1  v072
 BYTE   W12
 BYTE   Gs1  v088
 BYTE   W12
 BYTE   N04  Gs1  v036
 BYTE   W12
 BYTE   N11  Gs1  v060
 BYTE   W12
 BYTE   Ds1  v072
 BYTE   W01
 BYTE   PEND 
//  #06 //042   ----------------------------------------
Label_012D3640:
 BYTE   W11
 BYTE   N11  Ds1  v088
 BYTE   W12
 BYTE   N04  Ds1  v036
 BYTE   W12
 BYTE   N11  Ds1  v060
 BYTE   W12
 BYTE   Fn1  v072
 BYTE   W12
 BYTE   Fn1  v088
 BYTE   W12
 BYTE   N04  Fn1  v036
 BYTE   W12
 BYTE   N11  Fn1  v060
 BYTE   W12
 BYTE   Fs1  v072
 BYTE   W01
 BYTE   PEND 
//  #06 //043   ----------------------------------------
Label_012D365F:
 BYTE   W11
 BYTE   N11  Fs1  v036
 BYTE   W12
 BYTE   Fs1  v088
 BYTE   W12
 BYTE   Fs1  v036
 BYTE   W12
 BYTE   N11
 BYTE   W12
 BYTE   N22  Fs1  v088
 BYTE   W24
 BYTE   N11  Fs1  v036
 BYTE   W12
 BYTE   Gs1  v072
 BYTE   W01
 BYTE   PEND 
//  #06 //044   ----------------------------------------
Label_012D3678:
 BYTE   W11
 BYTE   N11  Gs1  v036
 BYTE   W12
 BYTE   Gs1  v088
 BYTE   W12
 BYTE   Gs1  v036
 BYTE   W12
 BYTE   N11
 BYTE   W12
 BYTE   N22  Gs1  v088
 BYTE   W24
 BYTE   N11  Gs1  v036
 BYTE   W12
 BYTE   VOL   43*CastlevaniaSymphonyoftheNightDraculasCastle_mvl/mxv
 BYTE   BEND   c_v-5
 BYTE   TIE  As1  v100
 BYTE   W01
 BYTE   PEND 
//  #06 //045   ----------------------------------------
Label_012D3696:
 BYTE   W05
 BYTE   BEND   c_v-4
 BYTE   W01
 BYTE   BEND   c_v-2
 BYTE   W01
 BYTE   BEND   c_v+0
 BYTE   W30
 BYTE   W01
 BYTE   VOL   42*CastlevaniaSymphonyoftheNightDraculasCastle_mvl/mxv
 BYTE   W18
 BYTE   VOL   41*CastlevaniaSymphonyoftheNightDraculasCastle_mvl/mxv
 BYTE   W11
 BYTE   VOL   40*CastlevaniaSymphonyoftheNightDraculasCastle_mvl/mxv
 BYTE   W09
 BYTE   VOL   40*CastlevaniaSymphonyoftheNightDraculasCastle_mvl/mxv
 BYTE   W07
 BYTE   VOL   40*CastlevaniaSymphonyoftheNightDraculasCastle_mvl/mxv
 BYTE   W06
 BYTE   VOL   39*CastlevaniaSymphonyoftheNightDraculasCastle_mvl/mxv
 BYTE   W05
 BYTE   VOL   39*CastlevaniaSymphonyoftheNightDraculasCastle_mvl/mxv
 BYTE   W02
 BYTE   PEND 
//  #06 //046   ----------------------------------------
Label_012D36AF:
 BYTE   W01
 BYTE   VOL   38*CastlevaniaSymphonyoftheNightDraculasCastle_mvl/mxv
 BYTE   W04
 BYTE   VOL   37*CastlevaniaSymphonyoftheNightDraculasCastle_mvl/mxv
 BYTE   W04
 BYTE   VOL   37*CastlevaniaSymphonyoftheNightDraculasCastle_mvl/mxv
 BYTE   W03
 BYTE   VOL   37*CastlevaniaSymphonyoftheNightDraculasCastle_mvl/mxv
 BYTE   W03
 BYTE   VOL   36*CastlevaniaSymphonyoftheNightDraculasCastle_mvl/mxv
 BYTE   W03
 BYTE   VOL   35*CastlevaniaSymphonyoftheNightDraculasCastle_mvl/mxv
 BYTE   W02
 BYTE   VOL   35*CastlevaniaSymphonyoftheNightDraculasCastle_mvl/mxv
 BYTE   W02
 BYTE   VOL   34*CastlevaniaSymphonyoftheNightDraculasCastle_mvl/mxv
 BYTE   W03
 BYTE   VOL   34*CastlevaniaSymphonyoftheNightDraculasCastle_mvl/mxv
 BYTE   W02
 BYTE   VOL   34*CastlevaniaSymphonyoftheNightDraculasCastle_mvl/mxv
 BYTE   W01
 BYTE   VOL   33*CastlevaniaSymphonyoftheNightDraculasCastle_mvl/mxv
 BYTE   W03
 BYTE   VOL   32*CastlevaniaSymphonyoftheNightDraculasCastle_mvl/mxv
 BYTE   W01
 BYTE   VOL   32*CastlevaniaSymphonyoftheNightDraculasCastle_mvl/mxv
 BYTE   W02
 BYTE   VOL   31*CastlevaniaSymphonyoftheNightDraculasCastle_mvl/mxv
 BYTE   W01
 BYTE   VOL   30*CastlevaniaSymphonyoftheNightDraculasCastle_mvl/mxv
 BYTE   W02
 BYTE   VOL   30*CastlevaniaSymphonyoftheNightDraculasCastle_mvl/mxv
 BYTE   W01
 BYTE   VOL   30*CastlevaniaSymphonyoftheNightDraculasCastle_mvl/mxv
 BYTE   W02
 BYTE   VOL   29*CastlevaniaSymphonyoftheNightDraculasCastle_mvl/mxv
 BYTE   W01
 BYTE   VOL   28*CastlevaniaSymphonyoftheNightDraculasCastle_mvl/mxv
 BYTE   W02
 BYTE   VOL   28*CastlevaniaSymphonyoftheNightDraculasCastle_mvl/mxv
 BYTE   W02
 BYTE   VOL   27*CastlevaniaSymphonyoftheNightDraculasCastle_mvl/mxv
 BYTE   W01
 BYTE   VOL   27*CastlevaniaSymphonyoftheNightDraculasCastle_mvl/mxv
 BYTE   W01
 BYTE   VOL   27*CastlevaniaSymphonyoftheNightDraculasCastle_mvl/mxv
 BYTE   W01
 BYTE   VOL   26*CastlevaniaSymphonyoftheNightDraculasCastle_mvl/mxv
 BYTE   W01
 BYTE   VOL   26*CastlevaniaSymphonyoftheNightDraculasCastle_mvl/mxv
 BYTE   W01
 BYTE   VOL   25*CastlevaniaSymphonyoftheNightDraculasCastle_mvl/mxv
 BYTE   W01
 BYTE   VOL   24*CastlevaniaSymphonyoftheNightDraculasCastle_mvl/mxv
 BYTE   W01
 BYTE   VOL   24*CastlevaniaSymphonyoftheNightDraculasCastle_mvl/mxv
 BYTE   W01
 BYTE   VOL   23*CastlevaniaSymphonyoftheNightDraculasCastle_mvl/mxv
 BYTE   W01
 BYTE   VOL   23*CastlevaniaSymphonyoftheNightDraculasCastle_mvl/mxv
 BYTE   W01
 BYTE   VOL   22*CastlevaniaSymphonyoftheNightDraculasCastle_mvl/mxv
 BYTE   W02
 BYTE   VOL   22*CastlevaniaSymphonyoftheNightDraculasCastle_mvl/mxv
 BYTE   W01
 BYTE   VOL   21*CastlevaniaSymphonyoftheNightDraculasCastle_mvl/mxv
 BYTE   W01
 BYTE   VOL   20*CastlevaniaSymphonyoftheNightDraculasCastle_mvl/mxv
 BYTE   W01
 BYTE   VOL   20*CastlevaniaSymphonyoftheNightDraculasCastle_mvl/mxv
 BYTE   W01
 BYTE   VOL   19*CastlevaniaSymphonyoftheNightDraculasCastle_mvl/mxv
 BYTE   W01
 BYTE   VOL   19*CastlevaniaSymphonyoftheNightDraculasCastle_mvl/mxv
 BYTE   W01
 BYTE   VOL   19*CastlevaniaSymphonyoftheNightDraculasCastle_mvl/mxv
 BYTE   W01
 BYTE   VOL   17*CastlevaniaSymphonyoftheNightDraculasCastle_mvl/mxv
 BYTE   W01
 BYTE   VOL   17*CastlevaniaSymphonyoftheNightDraculasCastle_mvl/mxv
 BYTE   W01
 BYTE   VOL   17*CastlevaniaSymphonyoftheNightDraculasCastle_mvl/mxv
 BYTE   W01
 BYTE   VOL   16*CastlevaniaSymphonyoftheNightDraculasCastle_mvl/mxv
 BYTE   W01
 BYTE   VOL   15*CastlevaniaSymphonyoftheNightDraculasCastle_mvl/mxv
 BYTE   W01
 BYTE   VOL   15*CastlevaniaSymphonyoftheNightDraculasCastle_mvl/mxv
 BYTE   W01
 BYTE   VOL   14*CastlevaniaSymphonyoftheNightDraculasCastle_mvl/mxv
 BYTE   W01
 BYTE   VOL   13*CastlevaniaSymphonyoftheNightDraculasCastle_mvl/mxv
 BYTE   W01
 BYTE   VOL   13*CastlevaniaSymphonyoftheNightDraculasCastle_mvl/mxv
 BYTE   W01
 BYTE   VOL   11*CastlevaniaSymphonyoftheNightDraculasCastle_mvl/mxv
 BYTE   W01
 BYTE   VOL   11*CastlevaniaSymphonyoftheNightDraculasCastle_mvl/mxv
 BYTE   W01
 BYTE   VOL   11*CastlevaniaSymphonyoftheNightDraculasCastle_mvl/mxv
 BYTE   W01
 BYTE   VOL   10*CastlevaniaSymphonyoftheNightDraculasCastle_mvl/mxv
 BYTE   W01
 BYTE   VOL   10*CastlevaniaSymphonyoftheNightDraculasCastle_mvl/mxv
 BYTE   W01
 BYTE   VOL   9*CastlevaniaSymphonyoftheNightDraculasCastle_mvl/mxv
 BYTE   W01
 BYTE   VOL   8*CastlevaniaSymphonyoftheNightDraculasCastle_mvl/mxv
 BYTE   W01
 BYTE   VOL   7*CastlevaniaSymphonyoftheNightDraculasCastle_mvl/mxv
 BYTE   W01
 BYTE   VOL   6*CastlevaniaSymphonyoftheNightDraculasCastle_mvl/mxv
 BYTE   W01
 BYTE   VOL   6*CastlevaniaSymphonyoftheNightDraculasCastle_mvl/mxv
 BYTE   W01
 BYTE   VOL   5*CastlevaniaSymphonyoftheNightDraculasCastle_mvl/mxv
 BYTE   W01
 BYTE   VOL   5*CastlevaniaSymphonyoftheNightDraculasCastle_mvl/mxv
 BYTE   W01
 BYTE   VOL   4*CastlevaniaSymphonyoftheNightDraculasCastle_mvl/mxv
 BYTE   W01
 BYTE   VOL   3*CastlevaniaSymphonyoftheNightDraculasCastle_mvl/mxv
 BYTE   W01
 BYTE   VOL   3*CastlevaniaSymphonyoftheNightDraculasCastle_mvl/mxv
 BYTE   W01
 BYTE   VOL   2*CastlevaniaSymphonyoftheNightDraculasCastle_mvl/mxv
 BYTE   W01
 BYTE   VOL   1*CastlevaniaSymphonyoftheNightDraculasCastle_mvl/mxv
 BYTE   W01
 BYTE   VOL   1*CastlevaniaSymphonyoftheNightDraculasCastle_mvl/mxv
 BYTE   W01
 BYTE   VOL   1*CastlevaniaSymphonyoftheNightDraculasCastle_mvl/mxv
 BYTE   W01
 BYTE   VOL   0*CastlevaniaSymphonyoftheNightDraculasCastle_mvl/mxv
 BYTE   W01
 BYTE   VOL   0*CastlevaniaSymphonyoftheNightDraculasCastle_mvl/mxv
 BYTE   W01
 BYTE   PEND 
 BYTE   EOT
 BYTE   As1
 BYTE   VOL   0*CastlevaniaSymphonyoftheNightDraculasCastle_mvl/mxv
 BYTE   W01
 BYTE   VOL   43*CastlevaniaSymphonyoftheNightDraculasCastle_mvl/mxv
 BYTE   W01
//  #06 //047   ----------------------------------------
 BYTE   W96
//  #06 //048   ----------------------------------------
 BYTE   W96
//  #06 //049   ----------------------------------------
 BYTE   W96
//  #06 //050   ----------------------------------------
 BYTE   W96
//  #06 //051   ----------------------------------------
Label_012D3745:
 BYTE   W23
 BYTE   N68  As1  v100
 BYTE   W72
 BYTE   N11  Gs1
 BYTE   W01
 BYTE   PEND 
//  #06 //052   ----------------------------------------
Label_012D374E:
 BYTE   W11
 BYTE   N11  Gs1  v072
 BYTE   W12
 BYTE   N22  Gs1  v088
 BYTE   W72
 BYTE   W01
 BYTE   PEND 
//  #06 //053   ----------------------------------------
Label_012D3759:
 BYTE   W23
 BYTE   N68  Fs1  v100
 BYTE   W72
 BYTE   N44  Ds1
 BYTE   W01
 BYTE   PEND 
//  #06 //054   ----------------------------------------
Label_012D3762:
 BYTE   W44
 BYTE   W03
 BYTE   N44  Fn1  v100
 BYTE   W48
 BYTE   W01
 BYTE   PEND 
//  #06 //055   ----------------------------------------
 BYTE   W96
//  #06 //056   ----------------------------------------
Label_012D376B:
 BYTE   W68
 BYTE   W03
 BYTE   BEND   c_v-5
 BYTE   N22  Ds2  v088
 BYTE   W04
 BYTE   BEND   c_v-3
 BYTE   W01
 BYTE   BEND   c_v+0
 BYTE   W04
 BYTE   BEND   c_v-1
 BYTE   W03
 BYTE   BEND   c_v-2
 BYTE   W02
 BYTE   BEND   c_v-3
 BYTE   W01
 BYTE   BEND   c_v-4
 BYTE   W01
 BYTE   BEND   c_v-5
 BYTE   W01
 BYTE   BEND   c_v-6
 BYTE   W01
 BYTE   BEND   c_v-8
 BYTE   W01
 BYTE   BEND   c_v-10
 BYTE   W01
 BYTE   BEND   c_v-13
 BYTE   W01
 BYTE   BEND   c_v-17
 BYTE   W01
 BYTE   BEND   c_v-22
 BYTE   W01
 BYTE   BEND   c_v-28
 BYTE   W01
 BYTE   BEND   c_v+0
 BYTE   N06  Fn1  v072
 BYTE   W01
 BYTE   PEND 
//  #06 //057   ----------------------------------------
Label_012D3796:
 BYTE   W05
 BYTE   N06  Fn1  v020
 BYTE   W06
 BYTE   Fn1  v060
 BYTE   W06
 BYTE   Fn1  v020
 BYTE   W06
 BYTE   Fn1  v072
 BYTE   W06
 BYTE   Fn1  v020
 BYTE   W06
 BYTE   Fn1  v060
 BYTE   W06
 BYTE   Fn1  v020
 BYTE   W06
 BYTE   Fn1  v072
 BYTE   W06
 BYTE   Fn1  v020
 BYTE   W06
 BYTE   As1  v072
 BYTE   W06
 BYTE   As1  v020
 BYTE   W06
 BYTE   As1  v028
 BYTE   W06
 BYTE   An1  v072
 BYTE   W06
 BYTE   An1  v020
 BYTE   W06
 BYTE   An1  v048
 BYTE   W06
 BYTE   N11  Fn1  v072
 BYTE   W01
 BYTE   PEND 
//  #06 //058   ----------------------------------------
 BYTE   W96
//  #06 //059   ----------------------------------------
 BYTE   GoTo
  POIN2 Label_012D348D
//  #06 //060   ----------------------------------------
 BYTE   N10  Dn2  v088
 BYTE   W11
 BYTE   N01  Dn2  v036
 BYTE   W12
 BYTE   N23  Dn2  v088
 BYTE   W24
 BYTE   N02  Dn2  v036
 BYTE   W12
 BYTE   N11  Ds2  v088
 BYTE   W12
 BYTE   N11
 BYTE   W12
 BYTE   N02  Dn2  v036
 BYTE   W12
 BYTE   N11  Dn2  v088
 BYTE   W01
//  #06 //061   ----------------------------------------
 BYTE   PATT
  POIN2 Label_012D34A9
//  #06 //062   ----------------------------------------
 BYTE   PATT
  POIN2 Label_012D34C5
//  #06 //063   ----------------------------------------
 BYTE   PATT
  POIN2 Label_012D34E1
//  #06 //064   ----------------------------------------
 BYTE   PATT
  POIN2 Label_012D348D
//  #06 //065   ----------------------------------------
 BYTE   PATT
  POIN2 Label_012D34A9
//  #06 //066   ----------------------------------------
 BYTE   PATT
  POIN2 Label_012D34C5
//  #06 //067   ----------------------------------------
 BYTE   PATT
  POIN2 Label_012D350C
//  #06 //068   ----------------------------------------
 BYTE   W96
//  #06 //069   ----------------------------------------
 BYTE   W96
//  #06 //070   ----------------------------------------
 BYTE   W96
//  #06 //071   ----------------------------------------
 BYTE   W96
//  #06 //072   ----------------------------------------
 BYTE   W96
//  #06 //073   ----------------------------------------
 BYTE   W96
//  #06 //074   ----------------------------------------
 BYTE   W96
//  #06 //075   ----------------------------------------
 BYTE   W96
//  #06 //076   ----------------------------------------
 BYTE   PATT
  POIN2 Label_012D352C
//  #06 //077   ----------------------------------------
 BYTE   PATT
  POIN2 Label_012D3546
//  #06 //078   ----------------------------------------
 BYTE   PATT
  POIN2 Label_012D355B
//  #06 //079   ----------------------------------------
 BYTE   PATT
  POIN2 Label_012D3570
//  #06 //080   ----------------------------------------
 BYTE   PATT
  POIN2 Label_012D3585
//  #06 //081   ----------------------------------------
 BYTE   PATT
  POIN2 Label_012D3546
//  #06 //082   ----------------------------------------
 BYTE   PATT
  POIN2 Label_012D355B
//  #06 //083   ----------------------------------------
 BYTE   PATT
  POIN2 Label_012D3570
//  #06 //084   ----------------------------------------
 BYTE   PATT
  POIN2 Label_012D35A9
//  #06 //085   ----------------------------------------
 BYTE   PATT
  POIN2 Label_012D35BF
//  #06 //086   ----------------------------------------
 BYTE   PATT
  POIN2 Label_012D35DE
//  #06 //087   ----------------------------------------
 BYTE   PATT
  POIN2 Label_012D35BF
//  #06 //088   ----------------------------------------
 BYTE   PATT
  POIN2 Label_012D3602
//  #06 //089   ----------------------------------------
 BYTE   PATT
  POIN2 Label_012D3621
//  #06 //090   ----------------------------------------
 BYTE   PATT
  POIN2 Label_012D3640
//  #06 //091   ----------------------------------------
 BYTE   PATT
  POIN2 Label_012D365F
//  #06 //092   ----------------------------------------
 BYTE   PATT
  POIN2 Label_012D3678
//  #06 //093   ----------------------------------------
 BYTE   PATT
  POIN2 Label_012D3696
//  #06 //094   ----------------------------------------
 BYTE   PATT
  POIN2 Label_012D36AF
//  #06 //095   ----------------------------------------
 BYTE   EOT
 BYTE   As1
 BYTE   VOL   0*CastlevaniaSymphonyoftheNightDraculasCastle_mvl/mxv
 BYTE   W01
 BYTE   VOL   43*CastlevaniaSymphonyoftheNightDraculasCastle_mvl/mxv
 BYTE   W01
 BYTE   W96
//  #06 //096   ----------------------------------------
 BYTE   W96
//  #06 //097   ----------------------------------------
 BYTE   W96
//  #06 //098   ----------------------------------------
 BYTE   W96
//  #06 //099   ----------------------------------------
 BYTE   PATT
  POIN2 Label_012D3745
//  #06 //100   ----------------------------------------
 BYTE   PATT
  POIN2 Label_012D374E
//  #06 //101   ----------------------------------------
 BYTE   PATT
  POIN2 Label_012D3759
//  #06 //102   ----------------------------------------
 BYTE   PATT
  POIN2 Label_012D3762
//  #06 //103   ----------------------------------------
 BYTE   W96
//  #06 //104   ----------------------------------------
 BYTE   PATT
  POIN2 Label_012D376B
//  #06 //105   ----------------------------------------
 BYTE   PATT
  POIN2 Label_012D3796
//  #06 //106   ----------------------------------------
 BYTE   W10
 BYTE   FINE

//**************** Track 7 (Midi-Chn.6) ****************//

CastlevaniaSymphonyoftheNightDraculasCastle_007:
//  #07 //000   ----------------------------------------
 BYTE   KEYSH   CastlevaniaSymphonyoftheNightDraculasCastle_key+0
 BYTE   VOICE   100
 BYTE   MODT 0
 BYTE   LFOS 44
 BYTE   VOL   45*CastlevaniaSymphonyoftheNightDraculasCastle_mvl/mxv
 BYTE   VOL   45*CastlevaniaSymphonyoftheNightDraculasCastle_mvl/mxv
 BYTE   PAN   c_v+20
 BYTE   MOD 0
 BYTE   W96
//  #07 //001   ----------------------------------------
 BYTE   W96
//  #07 //002   ----------------------------------------
 BYTE   W96
//  #07 //003   ----------------------------------------
 BYTE   W96
//  #07 //004   ----------------------------------------
 BYTE   W80
 BYTE   W03
 BYTE   N05  Bn1  v072
 BYTE   W06
 BYTE   Bn1  v060
 BYTE   W06
 BYTE   N92  Bn1  v088
 BYTE   W01
//  #07 //005   ----------------------------------------
 BYTE   W96
//  #07 //006   ----------------------------------------
 BYTE   W80
 BYTE   W03
 BYTE   N05  Cn2  v072
 BYTE   W06
 BYTE   Cn2  v060
 BYTE   W06
 BYTE   N92  Cn2  v100
 BYTE   W01
//  #07 //007   ----------------------------------------
 BYTE   W96
//  #07 //008   ----------------------------------------
 BYTE   W96
//  #07 //009   ----------------------------------------
 BYTE   W92
 BYTE   W03
 BYTE   N22  Dn2
 BYTE   W01
//  #07 //010   ----------------------------------------
 BYTE   W23
 BYTE   N02  Dn1  v036
 BYTE   W24
 BYTE   N02
 BYTE   W12
 BYTE   N11  Dn2  v100
 BYTE   W12
 BYTE   N22  Dn2  v088
 BYTE   W24
 BYTE   N22
 BYTE   W01
//  #07 //011   ----------------------------------------
 BYTE   W23
 BYTE   N02  Dn2  v036
 BYTE   W24
 BYTE   N11  Dn2  v100
 BYTE   W12
 BYTE   Dn2  v088
 BYTE   W12
 BYTE   Dn2  v100
 BYTE   W12
 BYTE   N02  Dn2  v036
 BYTE   W13
//  #07 //012   ----------------------------------------
Label_013082A9:
 BYTE   W96
//  #07 //013   ----------------------------------------
 BYTE   W96
//  #07 //014   ----------------------------------------
 BYTE   W96
//  #07 //015   ----------------------------------------
 BYTE   W96
//  #07 //016   ----------------------------------------
 BYTE   W96
//  #07 //017   ----------------------------------------
 BYTE   W96
//  #07 //018   ----------------------------------------
 BYTE   W96
//  #07 //019   ----------------------------------------
 BYTE   W96
//  #07 //020   ----------------------------------------
 BYTE   W96
//  #07 //021   ----------------------------------------
 BYTE   W96
//  #07 //022   ----------------------------------------
 BYTE   W96
//  #07 //023   ----------------------------------------
 BYTE   W96
//  #07 //024   ----------------------------------------
 BYTE   W96
//  #07 //025   ----------------------------------------
 BYTE   W96
//  #07 //026   ----------------------------------------
 BYTE   W96
//  #07 //027   ----------------------------------------
 BYTE   W96
//  #07 //028   ----------------------------------------
 BYTE   W96
//  #07 //029   ----------------------------------------
 BYTE   W96
//  #07 //030   ----------------------------------------
 BYTE   W96
//  #07 //031   ----------------------------------------
 BYTE   W96
//  #07 //032   ----------------------------------------
 BYTE   W96
//  #07 //033   ----------------------------------------
 BYTE   W96
//  #07 //034   ----------------------------------------
 BYTE   W96
//  #07 //035   ----------------------------------------
 BYTE   W96
//  #07 //036   ----------------------------------------
 BYTE   W96
//  #07 //037   ----------------------------------------
 BYTE   W96
//  #07 //038   ----------------------------------------
 BYTE   W96
//  #07 //039   ----------------------------------------
 BYTE   W96
//  #07 //040   ----------------------------------------
 BYTE   W96
//  #07 //041   ----------------------------------------
 BYTE   W96
//  #07 //042   ----------------------------------------
 BYTE   W96
//  #07 //043   ----------------------------------------
 BYTE   W96
//  #07 //044   ----------------------------------------
 BYTE   W96
//  #07 //045   ----------------------------------------
 BYTE   W96
//  #07 //046   ----------------------------------------
 BYTE   W96
//  #07 //047   ----------------------------------------
 BYTE   W96
//  #07 //048   ----------------------------------------
 BYTE   W96
//  #07 //049   ----------------------------------------
 BYTE   W96
//  #07 //050   ----------------------------------------
 BYTE   W96
//  #07 //051   ----------------------------------------
 BYTE   W96
//  #07 //052   ----------------------------------------
 BYTE   W96
//  #07 //053   ----------------------------------------
 BYTE   W96
//  #07 //054   ----------------------------------------
Label_013082D3:
 BYTE   W92
 BYTE   W03
 BYTE   N05  Fn1  v100
 BYTE   W01
 BYTE   PEND 
//  #07 //055   ----------------------------------------
Label_013082DA:
 BYTE   W05
 BYTE   N05  Fn1  v088
 BYTE   W06
 BYTE   Fn1  v036
 BYTE   W12
 BYTE   Fs1  v100
 BYTE   W06
 BYTE   Fs1  v088
 BYTE   W06
 BYTE   Fs1  v036
 BYTE   W12
 BYTE   N11
 BYTE   W12
 BYTE   As1  v100
 BYTE   W12
 BYTE   N05  As1  v036
 BYTE   W06
 BYTE   N11  An1  v100
 BYTE   W12
 BYTE   N05  An1  v036
 BYTE   W06
 BYTE   Fn1  v100
 BYTE   W01
 BYTE   PEND 
//  #07 //056   ----------------------------------------
Label_01308300:
 BYTE   W05
 BYTE   N05  Fn1  v088
 BYTE   W06
 BYTE   Fn1  v036
 BYTE   W12
 BYTE   Fs1  v100
 BYTE   W06
 BYTE   Fs1  v088
 BYTE   W06
 BYTE   Fs1  v036
 BYTE   W12
 BYTE   N11
 BYTE   W12
 BYTE   Ds1  v100
 BYTE   W12
 BYTE   N05  Ds1  v036
 BYTE   W06
 BYTE   N11  Cn1  v100
 BYTE   W12
 BYTE   N05  Cn1  v036
 BYTE   W06
 BYTE   Fn1  v100
 BYTE   W01
 BYTE   PEND 
//  #07 //057   ----------------------------------------
Label_01308326:
 BYTE   W05
 BYTE   N05  Fn1  v088
 BYTE   W06
 BYTE   Fn1  v036
 BYTE   W12
 BYTE   Fs1  v100
 BYTE   W06
 BYTE   Fs1  v088
 BYTE   W06
 BYTE   Fs1  v036
 BYTE   W12
 BYTE   N11
 BYTE   W12
 BYTE   As1  v100
 BYTE   W12
 BYTE   N05  As1  v036
 BYTE   W06
 BYTE   N11  An1  v100
 BYTE   W12
 BYTE   N05  An1  v036
 BYTE   W06
 BYTE   BEND   c_v-5
 BYTE   N32  Fn1  v100
 BYTE   W01
 BYTE   PEND 
//  #07 //058   ----------------------------------------
 BYTE   W03
 BYTE   BEND   c_v-4
 BYTE   W01
 BYTE   BEND   c_v-3
 BYTE   W01
 BYTE   BEND   c_v+0
 BYTE   W16
 BYTE   BEND   c_v-1
 BYTE   W04
 BYTE   BEND   c_v-2
 BYTE   W02
 BYTE   BEND   c_v-3
 BYTE   W01
 BYTE   BEND   c_v-4
 BYTE   W01
 BYTE   BEND   c_v-5
 BYTE   W01
 BYTE   BEND   c_v-6
 BYTE   W01
 BYTE   BEND   c_v-7
 BYTE   W01
 BYTE   BEND   c_v-9
 BYTE   W01
 BYTE   BEND   c_v-11
 BYTE   W01
 BYTE   BEND   c_v-14
 BYTE   W01
 BYTE   BEND   c_v-16
 BYTE   W60
 BYTE   BEND   c_v+0
 BYTE   W01
//  #07 //059   ----------------------------------------
 BYTE   GoTo
  POIN2 Label_013082A9
//  #07 //060   ----------------------------------------
 BYTE   W96
//  #07 //061   ----------------------------------------
 BYTE   W96
//  #07 //062   ----------------------------------------
 BYTE   W96
//  #07 //063   ----------------------------------------
 BYTE   W96
//  #07 //064   ----------------------------------------
 BYTE   W96
//  #07 //065   ----------------------------------------
 BYTE   W96
//  #07 //066   ----------------------------------------
 BYTE   W96
//  #07 //067   ----------------------------------------
 BYTE   W96
//  #07 //068   ----------------------------------------
 BYTE   W96
//  #07 //069   ----------------------------------------
 BYTE   W96
//  #07 //070   ----------------------------------------
 BYTE   W96
//  #07 //071   ----------------------------------------
 BYTE   W96
//  #07 //072   ----------------------------------------
 BYTE   W96
//  #07 //073   ----------------------------------------
 BYTE   W96
//  #07 //074   ----------------------------------------
 BYTE   W96
//  #07 //075   ----------------------------------------
 BYTE   W96
//  #07 //076   ----------------------------------------
 BYTE   W96
//  #07 //077   ----------------------------------------
 BYTE   W96
//  #07 //078   ----------------------------------------
 BYTE   W96
//  #07 //079   ----------------------------------------
 BYTE   W96
//  #07 //080   ----------------------------------------
 BYTE   W96
//  #07 //081   ----------------------------------------
 BYTE   W96
//  #07 //082   ----------------------------------------
 BYTE   W96
//  #07 //083   ----------------------------------------
 BYTE   W96
//  #07 //084   ----------------------------------------
 BYTE   W96
//  #07 //085   ----------------------------------------
 BYTE   W96
//  #07 //086   ----------------------------------------
 BYTE   W96
//  #07 //087   ----------------------------------------
 BYTE   W96
//  #07 //088   ----------------------------------------
 BYTE   W96
//  #07 //089   ----------------------------------------
 BYTE   W96
//  #07 //090   ----------------------------------------
 BYTE   W96
//  #07 //091   ----------------------------------------
 BYTE   W96
//  #07 //092   ----------------------------------------
 BYTE   W96
//  #07 //093   ----------------------------------------
 BYTE   W96
//  #07 //094   ----------------------------------------
 BYTE   W96
//  #07 //095   ----------------------------------------
 BYTE   W96
//  #07 //096   ----------------------------------------
 BYTE   W96
//  #07 //097   ----------------------------------------
 BYTE   W96
//  #07 //098   ----------------------------------------
 BYTE   W96
//  #07 //099   ----------------------------------------
 BYTE   W96
//  #07 //100   ----------------------------------------
 BYTE   W96
//  #07 //101   ----------------------------------------
 BYTE   W96
//  #07 //102   ----------------------------------------
 BYTE   PATT
  POIN2 Label_013082D3
//  #07 //103   ----------------------------------------
 BYTE   PATT
  POIN2 Label_013082DA
//  #07 //104   ----------------------------------------
 BYTE   PATT
  POIN2 Label_01308300
//  #07 //105   ----------------------------------------
 BYTE   PATT
  POIN2 Label_01308326
//  #07 //106   ----------------------------------------
 BYTE   W03
 BYTE   BEND   c_v-4
 BYTE   W01
 BYTE   BEND   c_v-3
 BYTE   W01
 BYTE   BEND   c_v+0
 BYTE   W16
 BYTE   BEND   c_v-1
 BYTE   W04
 BYTE   BEND   c_v-2
 BYTE   W02
 BYTE   BEND   c_v-3
 BYTE   W01
 BYTE   BEND   c_v-4
 BYTE   W01
 BYTE   BEND   c_v-5
 BYTE   W01
 BYTE   BEND   c_v-6
 BYTE   W01
 BYTE   BEND   c_v-7
 BYTE   W01
 BYTE   BEND   c_v-9
 BYTE   W01
 BYTE   BEND   c_v-11
 BYTE   W01
 BYTE   BEND   c_v-14
 BYTE   W01
 BYTE   BEND   c_v-16
 BYTE   W60
 BYTE   BEND   c_v+0
 BYTE   FINE

//**************** Track 8 (Midi-Chn.7) ****************//

CastlevaniaSymphonyoftheNightDraculasCastle_008:
//  #08 //000   ----------------------------------------
 BYTE   KEYSH   CastlevaniaSymphonyoftheNightDraculasCastle_key+0
 BYTE   VOICE   127
 BYTE   MODT 0
 BYTE   LFOS 44
 BYTE   VOL   70*CastlevaniaSymphonyoftheNightDraculasCastle_mvl/mxv
 BYTE   VOL   70*CastlevaniaSymphonyoftheNightDraculasCastle_mvl/mxv
 BYTE   PAN   c_v+0
 BYTE   MOD 0
 BYTE   N01  As3  v028
 BYTE   W24
 BYTE   An3  v044
 BYTE   W12
 BYTE   As3  v028
 BYTE   W24
 BYTE   N01
 BYTE   W12
 BYTE   An3  v044
 BYTE   W24
//  #08 //001   ----------------------------------------
Label_0146707A:
 BYTE   N01  As3  v028
 BYTE   W24
 BYTE   An3  v044
 BYTE   W12
 BYTE   As3  v028
 BYTE   W24
 BYTE   N01
 BYTE   W12
 BYTE   An3  v044
 BYTE   W24
 BYTE   PEND 
//  #08 //002   ----------------------------------------
 BYTE   PATT
  POIN2 Label_0146707A
//  #08 //003   ----------------------------------------
 BYTE   PATT
  POIN2 Label_0146707A
//  #08 //004   ----------------------------------------
 BYTE   N01  Fs1  v056
 BYTE   N01  As3  v028
 BYTE   W24
 BYTE   Fs1  v044
 BYTE   N01  Fs2  v096
 BYTE   N01  An3  v044
 BYTE   W12
 BYTE   As3  v028
 BYTE   W12
 BYTE   Fs1  v056
 BYTE   W12
 BYTE   As1  v028
 BYTE   N01  As3
 BYTE   W12
 BYTE   Fs1  v044
 BYTE   N01  An3
 BYTE   W24
//  #08 //005   ----------------------------------------
 BYTE   Fs1  v056
 BYTE   N01  As3  v028
 BYTE   W24
 BYTE   Fs1  v044
 BYTE   N01  Fs2  v096
 BYTE   N01  An3  v044
 BYTE   W12
 BYTE   As3  v028
 BYTE   W12
 BYTE   Fs1  v056
 BYTE   W12
 BYTE   As3  v028
 BYTE   W12
 BYTE   Fs1  v076
 BYTE   N01  An3  v044
 BYTE   W24
//  #08 //006   ----------------------------------------
 BYTE   Fs1
 BYTE   N01  As3  v028
 BYTE   W12
 BYTE   Fs1
 BYTE   W12
 BYTE   Fs1  v044
 BYTE   N01  Fs2  v096
 BYTE   N01  An3  v044
 BYTE   W12
 BYTE   As3  v028
 BYTE   W12
 BYTE   Fs1
 BYTE   W12
 BYTE   As3
 BYTE   W12
 BYTE   Fs1  v044
 BYTE   N01  An3
 BYTE   W24
//  #08 //007   ----------------------------------------
 BYTE   Fs1
 BYTE   N01  As3  v028
 BYTE   W24
 BYTE   Fs1  v056
 BYTE   N01  Fs2  v096
 BYTE   N01  An3  v044
 BYTE   W12
 BYTE   As3  v028
 BYTE   W24
 BYTE   As1  v044
 BYTE   N01  As3  v028
 BYTE   W12
 BYTE   As1  v056
 BYTE   N01  An3  v044
 BYTE   W24
//  #08 //008   ----------------------------------------
 BYTE   Cn1  v096
 BYTE   N01  Fs1  v056
 BYTE   N01  As3  v028
 BYTE   W24
 BYTE   An1  v096
 BYTE   N01  Fs2
 BYTE   N01  An3  v044
 BYTE   W12
 BYTE   Fn1  v076
 BYTE   N01  As3  v028
 BYTE   W12
 BYTE   Cn1  v096
 BYTE   W12
 BYTE   Dn1
 BYTE   N01  As1  v056
 BYTE   N01  As3  v028
 BYTE   W12
 BYTE   Cn1  v056
 BYTE   N01  An3  v044
 BYTE   W24
//  #08 //009   ----------------------------------------
 BYTE   Cn1  v096
 BYTE   N01  As3  v028
 BYTE   W24
 BYTE   Dn1  v096
 BYTE   N01  As1  v044
 BYTE   N01  Fs2  v096
 BYTE   N01  An3  v044
 BYTE   W12
 BYTE   Fn1  v076
 BYTE   N01  As3  v028
 BYTE   W12
 BYTE   Cn1  v096
 BYTE   W12
 BYTE   Dn1
 BYTE   N01  Gn2  v076
 BYTE   N01  As3  v028
 BYTE   W12
 BYTE   An1  v096
 BYTE   N01  An3  v044
 BYTE   W12
 BYTE   Fn1  v076
 BYTE   W06
 BYTE   Fn1  v056
 BYTE   W06
//  #08 //010   ----------------------------------------
 BYTE   Cn1  v096
 BYTE   N01  As3  v028
 BYTE   W24
 BYTE   Cn2  v096
 BYTE   N01  Fs2
 BYTE   N01  An3  v044
 BYTE   W12
 BYTE   As3  v028
 BYTE   W06
 BYTE   Cn2  v076
 BYTE   W06
 BYTE   Cn2  v044
 BYTE   W06
 BYTE   Cn2  v076
 BYTE   W06
 BYTE   An1
 BYTE   N01  As3  v028
 BYTE   W12
 BYTE   An1  v056
 BYTE   N01  An3  v044
 BYTE   W12
 BYTE   An1  v028
 BYTE   W06
 BYTE   An1  v056
 BYTE   W06
//  #08 //011   ----------------------------------------
 BYTE   Cn1
 BYTE   N01  An1  v076
 BYTE   N01  As3  v028
 BYTE   W12
 BYTE   Fn1  v056
 BYTE   W12
 BYTE   Cn1  v076
 BYTE   N01  Fn1
 BYTE   N01  Fs2  v096
 BYTE   N01  An3  v044
 BYTE   W12
 BYTE   Fn1  v056
 BYTE   N01  As3  v028
 BYTE   W12
 BYTE   Dn1  v096
 BYTE   W12
 BYTE   N01
 BYTE   N01  As3  v028
 BYTE   W12
 BYTE   Dn1  v096
 BYTE   N01  An3  v044
 BYTE   W12
 BYTE   Dn1  v096
 BYTE   W12
//  #08 //012   ----------------------------------------
Label_014671BA:
 BYTE   N01  Cn1  v096
 BYTE   N01  An2  v056
 BYTE   W24
 BYTE   Dn1  v096
 BYTE   N01  Fs1  v044
 BYTE   W24
 BYTE   Cn1  v096
 BYTE   N01  Fs1  v056
 BYTE   W24
 BYTE   Dn1  v096
 BYTE   N01  Fs1  v044
 BYTE   W12
 BYTE   Cn1  v076
 BYTE   W12
 BYTE   PEND 
//  #08 //013   ----------------------------------------
Label_014671D7:
 BYTE   N01  Cn1  v096
 BYTE   N01  Fs1  v044
 BYTE   W24
 BYTE   Dn1  v096
 BYTE   N01  Fs1  v056
 BYTE   W24
 BYTE   Cn1  v096
 BYTE   N01  Fs1  v056
 BYTE   W24
 BYTE   Dn1  v096
 BYTE   N01  Fs1  v076
 BYTE   W24
 BYTE   PEND 
//  #08 //014   ----------------------------------------
Label_014671F1:
 BYTE   N01  Cn1  v096
 BYTE   N01  Fs1  v056
 BYTE   W24
 BYTE   Dn1  v096
 BYTE   N01  Fs1  v044
 BYTE   W24
 BYTE   Cn1  v096
 BYTE   N01  Fs1  v056
 BYTE   W12
 BYTE   Cn1
 BYTE   W12
 BYTE   Dn1  v096
 BYTE   N01  Fs1  v044
 BYTE   W24
 BYTE   PEND 
//  #08 //015   ----------------------------------------
Label_0146720D:
 BYTE   N01  Cn1  v096
 BYTE   N01  Fs1  v056
 BYTE   W24
 BYTE   Dn1  v096
 BYTE   N01  Fs1  v044
 BYTE   W24
 BYTE   Cn1  v096
 BYTE   N01  As1  v044
 BYTE   W12
 BYTE   Dn1  v096
 BYTE   W12
 BYTE   Cn1
 BYTE   W12
 BYTE   Dn1
 BYTE   N01  As1  v028
 BYTE   W12
 BYTE   PEND 
//  #08 //016   ----------------------------------------
Label_0146722B:
 BYTE   N01  Cn1  v096
 BYTE   N01  As1  v056
 BYTE   W24
 BYTE   Dn1  v096
 BYTE   N01  An2  v056
 BYTE   W24
 BYTE   Cn1  v096
 BYTE   N01  Fs1  v056
 BYTE   W24
 BYTE   Dn1  v096
 BYTE   N01  Fs1  v056
 BYTE   W12
 BYTE   Cn1  v076
 BYTE   W12
 BYTE   PEND 
//  #08 //017   ----------------------------------------
Label_01467248:
 BYTE   N01  Cn1  v096
 BYTE   N01  Fs1  v056
 BYTE   W24
 BYTE   Dn1  v096
 BYTE   N01  Fs1  v044
 BYTE   W24
 BYTE   Cn1  v096
 BYTE   N01  Fs1  v056
 BYTE   W24
 BYTE   Dn1  v096
 BYTE   N01  Fs1  v076
 BYTE   W24
 BYTE   PEND 
//  #08 //018   ----------------------------------------
Label_01467262:
 BYTE   N01  Cn1  v096
 BYTE   N01  Fs1  v056
 BYTE   W24
 BYTE   Dn1  v096
 BYTE   N01  Fs1  v044
 BYTE   W24
 BYTE   Cn1  v096
 BYTE   N01  Fs1  v056
 BYTE   W12
 BYTE   Fs1  v028
 BYTE   W12
 BYTE   Dn1  v096
 BYTE   N01  As1  v044
 BYTE   W12
 BYTE   Fs1  v028
 BYTE   W12
 BYTE   PEND 
//  #08 //019   ----------------------------------------
Label_01467282:
 BYTE   N01  Cn1  v096
 BYTE   N01  As1  v076
 BYTE   N01  Ds2  v044
 BYTE   W12
 BYTE   Dn1  v076
 BYTE   W12
 BYTE   Dn1  v096
 BYTE   W12
 BYTE   As1  v056
 BYTE   N01  Ds2  v028
 BYTE   W12
 BYTE   Cn1  v096
 BYTE   N01  Gs1  v028
 BYTE   W12
 BYTE   Dn1  v096
 BYTE   N01  Fs2  v056
 BYTE   W12
 BYTE   Dn1  v096
 BYTE   W06
 BYTE   Dn1  v056
 BYTE   W06
 BYTE   Dn1  v076
 BYTE   W06
 BYTE   Dn1  v096
 BYTE   W06
 BYTE   PEND 
//  #08 //020   ----------------------------------------
Label_014672B1:
 BYTE   N01  Cn1  v096
 BYTE   N01  An2  v056
 BYTE   W24
 BYTE   Dn1  v096
 BYTE   N01  Fs1  v056
 BYTE   W24
 BYTE   Cn1  v096
 BYTE   N01  Fs1  v044
 BYTE   W12
 BYTE   Cn1  v056
 BYTE   W12
 BYTE   Dn1  v096
 BYTE   N01  Fs1  v056
 BYTE   W12
 BYTE   Cn1
 BYTE   W12
 BYTE   PEND 
//  #08 //021   ----------------------------------------
Label_014672D0:
 BYTE   N01  Cn1  v096
 BYTE   N01  Fs1  v056
 BYTE   W24
 BYTE   Dn1  v096
 BYTE   N01  Fs1  v044
 BYTE   W24
 BYTE   Cn1  v096
 BYTE   N01  Fs1  v056
 BYTE   W12
 BYTE   Fs1  v028
 BYTE   W12
 BYTE   Dn1  v096
 BYTE   N01  Fs1  v076
 BYTE   W24
 BYTE   PEND 
//  #08 //022   ----------------------------------------
Label_014672ED:
 BYTE   N01  Cn1  v096
 BYTE   N01  Fs1  v056
 BYTE   W24
 BYTE   Dn1  v096
 BYTE   N01  Fs1  v044
 BYTE   W24
 BYTE   Cn1  v096
 BYTE   N01  Fs1  v056
 BYTE   W12
 BYTE   Cn1
 BYTE   W12
 BYTE   Dn1  v096
 BYTE   N01  Fs1  v056
 BYTE   W24
 BYTE   PEND 
//  #08 //023   ----------------------------------------
Label_01467309:
 BYTE   N01  Cn1  v096
 BYTE   N01  Fs1  v056
 BYTE   W24
 BYTE   Dn1  v096
 BYTE   N01  Fs1  v044
 BYTE   W24
 BYTE   Cn1  v096
 BYTE   N01  As1  v056
 BYTE   W12
 BYTE   Dn1  v096
 BYTE   W12
 BYTE   Cn1
 BYTE   W12
 BYTE   Dn1
 BYTE   W12
 BYTE   PEND 
//  #08 //024   ----------------------------------------
Label_01467324:
 BYTE   N01  Cn1  v096
 BYTE   N01  As1  v056
 BYTE   W24
 BYTE   Dn1  v096
 BYTE   N01  Gn2  v076
 BYTE   W24
 BYTE   Cn1  v096
 BYTE   N01  Fs1  v056
 BYTE   W24
 BYTE   Dn1  v096
 BYTE   N01  Fs1  v056
 BYTE   W12
 BYTE   Cn1  v076
 BYTE   W12
 BYTE   PEND 
//  #08 //025   ----------------------------------------
 BYTE   PATT
  POIN2 Label_014672D0
//  #08 //026   ----------------------------------------
Label_01467346:
 BYTE   N01  Cn1  v096
 BYTE   N01  Fs1  v056
 BYTE   W24
 BYTE   Dn1  v096
 BYTE   N01  Fs1  v056
 BYTE   W24
 BYTE   Cn1  v096
 BYTE   N01  Fs1  v044
 BYTE   W24
 BYTE   Dn1  v096
 BYTE   N01  Fs1  v056
 BYTE   W12
 BYTE   As1  v028
 BYTE   W12
 BYTE   PEND 
//  #08 //027   ----------------------------------------
Label_01467363:
 BYTE   N01  Cn1  v096
 BYTE   N01  As1  v016
 BYTE   W12
 BYTE   As1  v028
 BYTE   W12
 BYTE   Dn1  v096
 BYTE   N01  As1  v044
 BYTE   W12
 BYTE   As1  v028
 BYTE   W12
 BYTE   Cn1  v096
 BYTE   N01  As1  v016
 BYTE   W12
 BYTE   As1  v028
 BYTE   W12
 BYTE   Dn1  v096
 BYTE   N01  As1  v044
 BYTE   W12
 BYTE   As1  v028
 BYTE   W12
 BYTE   PEND 
//  #08 //028   ----------------------------------------
Label_01467389:
 BYTE   N01  Cn1  v096
 BYTE   N01  As1  v044
 BYTE   W24
 BYTE   Dn1  v096
 BYTE   N01  As1  v044
 BYTE   W12
 BYTE   Dn1  v076
 BYTE   W12
 BYTE   Fs1  v044
 BYTE   N01  Cn2  v056
 BYTE   W01
 BYTE   Cn2  v096
 BYTE   W05
 BYTE   Cn2  v076
 BYTE   W06
 BYTE   Cn2  v056
 BYTE   W06
 BYTE   Cn2  v076
 BYTE   W06
 BYTE   Fs1  v028
 BYTE   N01  An1  v076
 BYTE   W06
 BYTE   An1  v056
 BYTE   W06
 BYTE   Fn1
 BYTE   W06
 BYTE   Fn1  v044
 BYTE   W06
 BYTE   PEND 
//  #08 //029   ----------------------------------------
Label_014673BA:
 BYTE   N01  Cn1  v096
 BYTE   N01  Fs1  v044
 BYTE   N01  An2  v056
 BYTE   W12
 BYTE   Fs1  v016
 BYTE   W12
 BYTE   Dn1  v096
 BYTE   N01  Fs1  v028
 BYTE   N01  Fs2  v096
 BYTE   W12
 BYTE   Fs1  v016
 BYTE   N01  Ds2  v056
 BYTE   W12
 BYTE   Cn1  v096
 BYTE   N01  Fs1  v044
 BYTE   W12
 BYTE   Fs1  v016
 BYTE   N01  Ds2  v044
 BYTE   W12
 BYTE   Dn1  v096
 BYTE   N01  Fs1  v028
 BYTE   N01  Ds2  v056
 BYTE   W12
 BYTE   Fs1  v016
 BYTE   W12
 BYTE   PEND 
//  #08 //030   ----------------------------------------
Label_014673EF:
 BYTE   N01  Cn1  v096
 BYTE   N01  Fs1  v044
 BYTE   W12
 BYTE   Fs1  v016
 BYTE   N01  Ds2  v056
 BYTE   W12
 BYTE   Dn1  v096
 BYTE   N01  Fs1  v028
 BYTE   N01  Fs2  v096
 BYTE   W12
 BYTE   Fs1  v016
 BYTE   W12
 BYTE   Cn1  v096
 BYTE   N01  Fs1  v044
 BYTE   N01  Ds2  v056
 BYTE   W12
 BYTE   Fs1  v016
 BYTE   W12
 BYTE   Dn1  v096
 BYTE   N01  Fs1  v028
 BYTE   W12
 BYTE   Cn1  v096
 BYTE   N01  Fs1  v016
 BYTE   W12
 BYTE   PEND 
//  #08 //031   ----------------------------------------
Label_01467421:
 BYTE   N01  Cn1  v096
 BYTE   N01  Fs1  v044
 BYTE   W12
 BYTE   Fs1  v016
 BYTE   N01  Ds2  v056
 BYTE   W12
 BYTE   Dn1  v096
 BYTE   N01  Fs1  v028
 BYTE   N01  Fs2  v096
 BYTE   W12
 BYTE   Fs1  v016
 BYTE   W12
 BYTE   Cn1  v096
 BYTE   N01  Fs1  v044
 BYTE   N01  Ds2  v056
 BYTE   W12
 BYTE   Fs1  v016
 BYTE   W12
 BYTE   Dn1  v096
 BYTE   N01  Fs1  v028
 BYTE   W12
 BYTE   Fs1  v016
 BYTE   W12
 BYTE   PEND 
//  #08 //032   ----------------------------------------
Label_01467450:
 BYTE   N01  Cn1  v096
 BYTE   N01  Fs1  v044
 BYTE   W10
 BYTE   Dn1  v056
 BYTE   W02
 BYTE   Dn1  v096
 BYTE   N01  Fs1  v016
 BYTE   W12
 BYTE   Dn1  v096
 BYTE   N01  Fs1  v028
 BYTE   N01  Ds2  v044
 BYTE   N01  Fs2  v096
 BYTE   N01  An2  v056
 BYTE   W12
 BYTE   Fs1  v016
 BYTE   N01  Ds2  v056
 BYTE   W12
 BYTE   Cn1  v096
 BYTE   N01  Fs1  v044
 BYTE   W12
 BYTE   Dn1  v096
 BYTE   N01  Fs1  v016
 BYTE   W12
 BYTE   Dn1  v096
 BYTE   N01  Fs1  v028
 BYTE   N01  Ds2  v056
 BYTE   N01  An2
 BYTE   W12
 BYTE   Fs1  v016
 BYTE   W12
 BYTE   PEND 
//  #08 //033   ----------------------------------------
 BYTE   PATT
  POIN2 Label_014673BA
//  #08 //034   ----------------------------------------
Label_01467495:
 BYTE   N01  Cn1  v096
 BYTE   N01  Fs1  v044
 BYTE   W12
 BYTE   Fs1  v016
 BYTE   N01  Ds2  v056
 BYTE   W12
 BYTE   Dn1  v096
 BYTE   N01  Fs1  v028
 BYTE   N01  Fs2  v096
 BYTE   W12
 BYTE   Fs1  v016
 BYTE   W12
 BYTE   Cn1  v096
 BYTE   N01  Fs1  v044
 BYTE   N01  Ds2  v056
 BYTE   W12
 BYTE   Fs1  v016
 BYTE   W12
 BYTE   Dn1  v096
 BYTE   N01  Fs1  v028
 BYTE   N01  Gn2  v076
 BYTE   W12
 BYTE   Cn1  v096
 BYTE   N01  Fs1  v016
 BYTE   W12
 BYTE   PEND 
//  #08 //035   ----------------------------------------
 BYTE   PATT
  POIN2 Label_01467421
//  #08 //036   ----------------------------------------
Label_014674CF:
 BYTE   N01  Cn1  v096
 BYTE   N01  Fs1  v044
 BYTE   W12
 BYTE   Fs1  v016
 BYTE   N01  Fn2  v056
 BYTE   W12
 BYTE   Dn1  v096
 BYTE   N01  Fs1  v028
 BYTE   N01  Fs2  v096
 BYTE   W12
 BYTE   Fs1  v016
 BYTE   W12
 BYTE   Cn1  v096
 BYTE   N01  Fs1  v044
 BYTE   W12
 BYTE   Fs1  v016
 BYTE   N01  Fn2  v056
 BYTE   W12
 BYTE   Dn1  v096
 BYTE   N01  Fs1  v028
 BYTE   W06
 BYTE   Dn1  v076
 BYTE   W06
 BYTE   Dn1  v028
 BYTE   N01  Fs1  v016
 BYTE   W06
 BYTE   Dn1  v096
 BYTE   W06
 BYTE   PEND 
//  #08 //037   ----------------------------------------
Label_01467507:
 BYTE   N01  Cn1  v096
 BYTE   N01  An2  v056
 BYTE   W24
 BYTE   Dn1  v096
 BYTE   N01  Fs2
 BYTE   W24
 BYTE   Cn1
 BYTE   N01  Fs1  v056
 BYTE   W12
 BYTE   Cn1  v044
 BYTE   N01  Fs1  v056
 BYTE   W12
 BYTE   Dn1  v096
 BYTE   N01  Fs1  v056
 BYTE   W12
 BYTE   Fs1  v016
 BYTE   W12
 BYTE   PEND 
//  #08 //038   ----------------------------------------
Label_01467528:
 BYTE   N01  Cn1  v096
 BYTE   N01  Fs1  v056
 BYTE   W12
 BYTE   Fs1  v044
 BYTE   W12
 BYTE   Dn1  v096
 BYTE   N01  Fs1  v056
 BYTE   N01  Fs2  v096
 BYTE   W12
 BYTE   Fs1  v016
 BYTE   W12
 BYTE   Cn1  v096
 BYTE   N01  Fs1  v056
 BYTE   W12
 BYTE   Fs1  v028
 BYTE   W12
 BYTE   Dn1  v096
 BYTE   N01  Fs1  v056
 BYTE   W12
 BYTE   Fn1
 BYTE   N01  Fs1  v028
 BYTE   W01
 BYTE   Fn1  v076
 BYTE   W11
 BYTE   PEND 
//  #08 //039   ----------------------------------------
 BYTE   PATT
  POIN2 Label_01467507
//  #08 //040   ----------------------------------------
Label_0146755B:
 BYTE   N01  Cn1  v096
 BYTE   N01  Fs1  v056
 BYTE   W12
 BYTE   Fs1  v044
 BYTE   W12
 BYTE   Dn1  v096
 BYTE   N01  Fs1  v056
 BYTE   W12
 BYTE   Fs1  v016
 BYTE   W12
 BYTE   Cn1  v096
 BYTE   N01  Fs1  v056
 BYTE   W12
 BYTE   Fs1  v028
 BYTE   W12
 BYTE   Dn1  v096
 BYTE   N01  Fs1  v056
 BYTE   W12
 BYTE   Cn1  v116
 BYTE   N01  Fs1  v028
 BYTE   W12
 BYTE   PEND 
//  #08 //041   ----------------------------------------
Label_01467584:
 BYTE   N01  Cn1  v096
 BYTE   N01  Cs2  v056
 BYTE   W24
 BYTE   Dn1  v096
 BYTE   N01  Fs2
 BYTE   W12
 BYTE   Fs1  v028
 BYTE   W12
 BYTE   Cn1  v096
 BYTE   N01  Fs1  v056
 BYTE   W12
 BYTE   Fs1  v044
 BYTE   W12
 BYTE   Dn1  v096
 BYTE   N01  Fs1  v028
 BYTE   W12
 BYTE   As1  v056
 BYTE   W12
 BYTE   PEND 
//  #08 //042   ----------------------------------------
Label_014675A6:
 BYTE   N01  Cn1  v096
 BYTE   N01  Fs1  v044
 BYTE   W12
 BYTE   Fs1  v016
 BYTE   W12
 BYTE   Dn1  v096
 BYTE   N01  Fs1  v028
 BYTE   N01  Fs2  v096
 BYTE   W12
 BYTE   Fs1  v044
 BYTE   W12
 BYTE   Cn1  v096
 BYTE   N01  Fs1  v016
 BYTE   W12
 BYTE   N01
 BYTE   W12
 BYTE   Dn1  v096
 BYTE   N01  Fs1  v028
 BYTE   W12
 BYTE   Cn1  v096
 BYTE   N01  Fs1  v016
 BYTE   W12
 BYTE   PEND 
//  #08 //043   ----------------------------------------
Label_014675D1:
 BYTE   N01  Cn1  v096
 BYTE   N01  Fs1  v016
 BYTE   W12
 BYTE   Fs1  v044
 BYTE   W12
 BYTE   Dn1  v096
 BYTE   N01  Fs1  v028
 BYTE   N01  Fs2  v096
 BYTE   W24
 BYTE   Cn1
 BYTE   N01  Fs1  v028
 BYTE   W24
 BYTE   Dn1  v096
 BYTE   N01  Fs1  v028
 BYTE   W24
 BYTE   PEND 
//  #08 //044   ----------------------------------------
Label_014675F0:
 BYTE   N01  Cn1  v096
 BYTE   N01  Fs1  v028
 BYTE   W24
 BYTE   Dn1  v096
 BYTE   N01  Fs1  v028
 BYTE   W24
 BYTE   Cn1  v096
 BYTE   N01  Fs1  v044
 BYTE   W24
 BYTE   Dn1  v096
 BYTE   N01  As1  v056
 BYTE   W12
 BYTE   Cn1  v096
 BYTE   W12
 BYTE   PEND 
//  #08 //045   ----------------------------------------
 BYTE   An2  v044
 BYTE   W96
//  #08 //046   ----------------------------------------
Label_01467610:
 BYTE   W48
 BYTE   N01  As1  v044
 BYTE   W24
 BYTE   As1  v056
 BYTE   W24
 BYTE   PEND 
//  #08 //047   ----------------------------------------
Label_01467619:
 BYTE   N01  As3  v044
 BYTE   W12
 BYTE   Fs1  v016
 BYTE   W12
 BYTE   Fs1  v028
 BYTE   W12
 BYTE   As3  v044
 BYTE   W12
 BYTE   Fs1  v016
 BYTE   W12
 BYTE   As3  v044
 BYTE   W12
 BYTE   Fs1  v028
 BYTE   W12
 BYTE   As1
 BYTE   W12
 BYTE   PEND 
//  #08 //048   ----------------------------------------
 BYTE   PATT
  POIN2 Label_01467619
//  #08 //049   ----------------------------------------
 BYTE   PATT
  POIN2 Label_01467619
//  #08 //050   ----------------------------------------
 BYTE   PATT
  POIN2 Label_01467619
//  #08 //051   ----------------------------------------
Label_01467641:
 BYTE   N01  As3  v044
 BYTE   W12
 BYTE   Fs1  v016
 BYTE   W12
 BYTE   Cn1  v096
 BYTE   N01  Fs1  v028
 BYTE   N01  An2  v056
 BYTE   W12
 BYTE   As3  v044
 BYTE   W12
 BYTE   Fs1  v016
 BYTE   W12
 BYTE   As3  v044
 BYTE   W12
 BYTE   Fs1  v028
 BYTE   W12
 BYTE   As1
 BYTE   W12
 BYTE   PEND 
//  #08 //052   ----------------------------------------
Label_01467660:
 BYTE   N01  An1  v076
 BYTE   N01  As3  v044
 BYTE   W12
 BYTE   As1
 BYTE   W12
 BYTE   Fn1  v096
 BYTE   N01  Fs1  v028
 BYTE   W12
 BYTE   As3  v044
 BYTE   W12
 BYTE   Fs1  v016
 BYTE   W12
 BYTE   As3  v044
 BYTE   W12
 BYTE   Fs1  v028
 BYTE   W12
 BYTE   As1
 BYTE   W12
 BYTE   PEND 
//  #08 //053   ----------------------------------------
 BYTE   PATT
  POIN2 Label_01467641
//  #08 //054   ----------------------------------------
Label_01467683:
 BYTE   N01  Cn1  v096
 BYTE   N01  An2  v056
 BYTE   N01  As3  v044
 BYTE   W12
 BYTE   Fs1  v016
 BYTE   W12
 BYTE   Fs1  v028
 BYTE   W12
 BYTE   As3  v044
 BYTE   W12
 BYTE   Cn1  v096
 BYTE   N01  Fs1  v016
 BYTE   N01  An2  v056
 BYTE   W12
 BYTE   An1
 BYTE   N01  As3  v044
 BYTE   W12
 BYTE   Fs1  v028
 BYTE   N01  Cn2  v096
 BYTE   W12
 BYTE   An1  v056
 BYTE   N01  As1  v028
 BYTE   W06
 BYTE   An1  v096
 BYTE   W06
 BYTE   PEND 
//  #08 //055   ----------------------------------------
Label_014676B4:
 BYTE   N01  Dn1  v044
 BYTE   N01  Fs1  v028
 BYTE   W06
 BYTE   Dn1  v056
 BYTE   W06
 BYTE   Cn1
 BYTE   N01  Fs1  v028
 BYTE   W12
 BYTE   Dn1  v096
 BYTE   N01  Fs1  v044
 BYTE   W06
 BYTE   Dn1  v096
 BYTE   W06
 BYTE   Fs1  v028
 BYTE   W12
 BYTE   Cn1  v096
 BYTE   N01  Fs1  v016
 BYTE   W06
 BYTE   Fs1  v008
 BYTE   W06
 BYTE   Dn1  v096
 BYTE   N01  As1  v056
 BYTE   W12
 BYTE   Cn1  v096
 BYTE   W06
 BYTE   Dn1
 BYTE   N01  As1  v076
 BYTE   W18
 BYTE   PEND 
//  #08 //056   ----------------------------------------
Label_014676E7:
 BYTE   N01  Dn1  v044
 BYTE   N01  Fs1  v028
 BYTE   W06
 BYTE   Dn1  v056
 BYTE   W06
 BYTE   Cn1
 BYTE   N01  Fs1  v028
 BYTE   W12
 BYTE   Dn1  v096
 BYTE   N01  Fs1  v044
 BYTE   W06
 BYTE   Dn1  v096
 BYTE   W06
 BYTE   Fs1  v028
 BYTE   W12
 BYTE   Cn1  v096
 BYTE   N01  Fs1  v028
 BYTE   W12
 BYTE   Dn1  v096
 BYTE   N01  Gn2  v056
 BYTE   W12
 BYTE   Cn1  v096
 BYTE   W06
 BYTE   Dn1
 BYTE   N01  Gn2  v056
 BYTE   W18
 BYTE   PEND 
//  #08 //057   ----------------------------------------
Label_01467717:
 BYTE   N01  Cn1  v096
 BYTE   N01  As1  v056
 BYTE   W06
 BYTE   Cn1  v076
 BYTE   W06
 BYTE   Dn1  v096
 BYTE   N01  As1  v076
 BYTE   W12
 BYTE   Cn1  v096
 BYTE   N01  As1  v028
 BYTE   W06
 BYTE   Cn1  v076
 BYTE   W06
 BYTE   Dn1  v096
 BYTE   N01  As1  v016
 BYTE   W12
 BYTE   Cn1  v096
 BYTE   N01  As1  v056
 BYTE   W06
 BYTE   Cn1  v076
 BYTE   W06
 BYTE   Dn1  v096
 BYTE   N01  As1  v076
 BYTE   N01  Gn2  v056
 BYTE   W12
 BYTE   Cn1  v096
 BYTE   N01  As1  v028
 BYTE   W06
 BYTE   Dn1  v096
 BYTE   N01  Gn2  v056
 BYTE   W06
 BYTE   As1  v016
 BYTE   W12
 BYTE   PEND 
//  #08 //058   ----------------------------------------
 BYTE   Dn1  v044
 BYTE   W06
 BYTE   Dn1  v096
 BYTE   W90
//  #08 //059   ----------------------------------------
 BYTE   GoTo
  POIN2 Label_014671BA
//  #08 //060   ----------------------------------------
 BYTE   PATT
  POIN2 Label_014671BA
//  #08 //061   ----------------------------------------
 BYTE   PATT
  POIN2 Label_014671D7
//  #08 //062   ----------------------------------------
 BYTE   PATT
  POIN2 Label_014671F1
//  #08 //063   ----------------------------------------
 BYTE   PATT
  POIN2 Label_0146720D
//  #08 //064   ----------------------------------------
 BYTE   PATT
  POIN2 Label_0146722B
//  #08 //065   ----------------------------------------
 BYTE   PATT
  POIN2 Label_01467248
//  #08 //066   ----------------------------------------
 BYTE   PATT
  POIN2 Label_01467262
//  #08 //067   ----------------------------------------
 BYTE   PATT
  POIN2 Label_01467282
//  #08 //068   ----------------------------------------
 BYTE   PATT
  POIN2 Label_014672B1
//  #08 //069   ----------------------------------------
 BYTE   PATT
  POIN2 Label_014672D0
//  #08 //070   ----------------------------------------
 BYTE   PATT
  POIN2 Label_014672ED
//  #08 //071   ----------------------------------------
 BYTE   PATT
  POIN2 Label_01467309
//  #08 //072   ----------------------------------------
 BYTE   PATT
  POIN2 Label_01467324
//  #08 //073   ----------------------------------------
 BYTE   PATT
  POIN2 Label_014672D0
//  #08 //074   ----------------------------------------
 BYTE   PATT
  POIN2 Label_01467346
//  #08 //075   ----------------------------------------
 BYTE   PATT
  POIN2 Label_01467363
//  #08 //076   ----------------------------------------
 BYTE   PATT
  POIN2 Label_01467389
//  #08 //077   ----------------------------------------
 BYTE   PATT
  POIN2 Label_014673BA
//  #08 //078   ----------------------------------------
 BYTE   PATT
  POIN2 Label_014673EF
//  #08 //079   ----------------------------------------
 BYTE   PATT
  POIN2 Label_01467421
//  #08 //080   ----------------------------------------
 BYTE   PATT
  POIN2 Label_01467450
//  #08 //081   ----------------------------------------
 BYTE   PATT
  POIN2 Label_014673BA
//  #08 //082   ----------------------------------------
 BYTE   PATT
  POIN2 Label_01467495
//  #08 //083   ----------------------------------------
 BYTE   PATT
  POIN2 Label_01467421
//  #08 //084   ----------------------------------------
 BYTE   PATT
  POIN2 Label_014674CF
//  #08 //085   ----------------------------------------
 BYTE   PATT
  POIN2 Label_01467507
//  #08 //086   ----------------------------------------
 BYTE   PATT
  POIN2 Label_01467528
//  #08 //087   ----------------------------------------
 BYTE   PATT
  POIN2 Label_01467507
//  #08 //088   ----------------------------------------
 BYTE   PATT
  POIN2 Label_0146755B
//  #08 //089   ----------------------------------------
 BYTE   PATT
  POIN2 Label_01467584
//  #08 //090   ----------------------------------------
 BYTE   PATT
  POIN2 Label_014675A6
//  #08 //091   ----------------------------------------
 BYTE   PATT
  POIN2 Label_014675D1
//  #08 //092   ----------------------------------------
 BYTE   PATT
  POIN2 Label_014675F0
//  #08 //093   ----------------------------------------
 BYTE   N01  An2  v044
 BYTE   W96
//  #08 //094   ----------------------------------------
 BYTE   PATT
  POIN2 Label_01467610
//  #08 //095   ----------------------------------------
 BYTE   PATT
  POIN2 Label_01467619
//  #08 //096   ----------------------------------------
 BYTE   PATT
  POIN2 Label_01467619
//  #08 //097   ----------------------------------------
 BYTE   PATT
  POIN2 Label_01467619
//  #08 //098   ----------------------------------------
 BYTE   PATT
  POIN2 Label_01467619
//  #08 //099   ----------------------------------------
 BYTE   PATT
  POIN2 Label_01467641
//  #08 //100   ----------------------------------------
 BYTE   PATT
  POIN2 Label_01467660
//  #08 //101   ----------------------------------------
 BYTE   PATT
  POIN2 Label_01467641
//  #08 //102   ----------------------------------------
 BYTE   PATT
  POIN2 Label_01467683
//  #08 //103   ----------------------------------------
 BYTE   PATT
  POIN2 Label_014676B4
//  #08 //104   ----------------------------------------
 BYTE   PATT
  POIN2 Label_014676E7
//  #08 //105   ----------------------------------------
 BYTE   PATT
  POIN2 Label_01467717
//  #08 //106   ----------------------------------------
 BYTE   N01  Dn1  v044
 BYTE   W06
 BYTE   Dn1  v096
 BYTE   W03
 BYTE   FINE

//**************** Track 9 (Midi-Chn.8) ****************//

CastlevaniaSymphonyoftheNightDraculasCastle_009:
//  #09 //000   ----------------------------------------
 BYTE   KEYSH   CastlevaniaSymphonyoftheNightDraculasCastle_key+0
 BYTE   VOICE   40
 BYTE   MODT 0
 BYTE   LFOS 44
 BYTE   VOL   80*CastlevaniaSymphonyoftheNightDraculasCastle_mvl/mxv
 BYTE   PAN   c_v+0
 BYTE   VOL   54*CastlevaniaSymphonyoftheNightDraculasCastle_mvl/mxv
 BYTE   MOD 0
 BYTE   W96
//  #09 //001   ----------------------------------------
 BYTE   W96
//  #09 //002   ----------------------------------------
 BYTE   W96
//  #09 //003   ----------------------------------------
 BYTE   W96
//  #09 //004   ----------------------------------------
 BYTE   W96
//  #09 //005   ----------------------------------------
 BYTE   W96
//  #09 //006   ----------------------------------------
 BYTE   W96
//  #09 //007   ----------------------------------------
 BYTE   W96
//  #09 //008   ----------------------------------------
 BYTE   W96
//  #09 //009   ----------------------------------------
 BYTE   W96
//  #09 //010   ----------------------------------------
 BYTE   W96
//  #09 //011   ----------------------------------------
 BYTE   W96
//  #09 //012   ----------------------------------------
Label_014A4EDC:
 BYTE   VOL   33*CastlevaniaSymphonyoftheNightDraculasCastle_mvl/mxv
 BYTE   N30  Gn3  v088
 BYTE   W02
 BYTE   VOL   34*CastlevaniaSymphonyoftheNightDraculasCastle_mvl/mxv
 BYTE   W01
 BYTE   VOL   34*CastlevaniaSymphonyoftheNightDraculasCastle_mvl/mxv
 BYTE   W01
 BYTE   VOL   34*CastlevaniaSymphonyoftheNightDraculasCastle_mvl/mxv
 BYTE   W01
 BYTE   VOL   35*CastlevaniaSymphonyoftheNightDraculasCastle_mvl/mxv
 BYTE   W01
 BYTE   VOL   36*CastlevaniaSymphonyoftheNightDraculasCastle_mvl/mxv
 BYTE   W01
 BYTE   VOL   37*CastlevaniaSymphonyoftheNightDraculasCastle_mvl/mxv
 BYTE   W01
 BYTE   VOL   37*CastlevaniaSymphonyoftheNightDraculasCastle_mvl/mxv
 BYTE   W01
 BYTE   VOL   37*CastlevaniaSymphonyoftheNightDraculasCastle_mvl/mxv
 BYTE   W01
 BYTE   VOL   38*CastlevaniaSymphonyoftheNightDraculasCastle_mvl/mxv
 BYTE   W02
 BYTE   VOL   39*CastlevaniaSymphonyoftheNightDraculasCastle_mvl/mxv
 BYTE   W01
 BYTE   VOL   40*CastlevaniaSymphonyoftheNightDraculasCastle_mvl/mxv
 BYTE   W01
 BYTE   VOL   40*CastlevaniaSymphonyoftheNightDraculasCastle_mvl/mxv
 BYTE   W01
 BYTE   VOL   40*CastlevaniaSymphonyoftheNightDraculasCastle_mvl/mxv
 BYTE   W01
 BYTE   VOL   41*CastlevaniaSymphonyoftheNightDraculasCastle_mvl/mxv
 BYTE   W01
 BYTE   VOL   42*CastlevaniaSymphonyoftheNightDraculasCastle_mvl/mxv
 BYTE   W01
 BYTE   VOL   43*CastlevaniaSymphonyoftheNightDraculasCastle_mvl/mxv
 BYTE   W01
 BYTE   VOL   44*CastlevaniaSymphonyoftheNightDraculasCastle_mvl/mxv
 BYTE   W01
 BYTE   VOL   44*CastlevaniaSymphonyoftheNightDraculasCastle_mvl/mxv
 BYTE   W02
 BYTE   VOL   45*CastlevaniaSymphonyoftheNightDraculasCastle_mvl/mxv
 BYTE   W01
 BYTE   VOL   45*CastlevaniaSymphonyoftheNightDraculasCastle_mvl/mxv
 BYTE   W01
 BYTE   VOL   46*CastlevaniaSymphonyoftheNightDraculasCastle_mvl/mxv
 BYTE   W01
 BYTE   VOL   47*CastlevaniaSymphonyoftheNightDraculasCastle_mvl/mxv
 BYTE   W01
 BYTE   VOL   47*CastlevaniaSymphonyoftheNightDraculasCastle_mvl/mxv
 BYTE   W01
 BYTE   VOL   48*CastlevaniaSymphonyoftheNightDraculasCastle_mvl/mxv
 BYTE   W01
 BYTE   VOL   49*CastlevaniaSymphonyoftheNightDraculasCastle_mvl/mxv
 BYTE   W01
 BYTE   VOL   50*CastlevaniaSymphonyoftheNightDraculasCastle_mvl/mxv
 BYTE   W01
 BYTE   VOL   51*CastlevaniaSymphonyoftheNightDraculasCastle_mvl/mxv
 BYTE   W02
 BYTE   VOL   51*CastlevaniaSymphonyoftheNightDraculasCastle_mvl/mxv
 BYTE   W01
 BYTE   VOL   51*CastlevaniaSymphonyoftheNightDraculasCastle_mvl/mxv
 BYTE   W01
 BYTE   VOL   52*CastlevaniaSymphonyoftheNightDraculasCastle_mvl/mxv
 BYTE   W01
 BYTE   VOL   53*CastlevaniaSymphonyoftheNightDraculasCastle_mvl/mxv
 BYTE   W01
 BYTE   VOL   54*CastlevaniaSymphonyoftheNightDraculasCastle_mvl/mxv
 BYTE   N04  An3  v072
 BYTE   W06
 BYTE   As3  v088
 BYTE   W06
 BYTE   N40  Fs3  v072
 BYTE   W48
 BYTE   PEND 
//  #09 //013   ----------------------------------------
Label_014A4F2E:
 BYTE   VOL   33*CastlevaniaSymphonyoftheNightDraculasCastle_mvl/mxv
 BYTE   N30  Gn3  v088
 BYTE   W02
 BYTE   VOL   34*CastlevaniaSymphonyoftheNightDraculasCastle_mvl/mxv
 BYTE   W01
 BYTE   VOL   34*CastlevaniaSymphonyoftheNightDraculasCastle_mvl/mxv
 BYTE   W01
 BYTE   VOL   34*CastlevaniaSymphonyoftheNightDraculasCastle_mvl/mxv
 BYTE   W01
 BYTE   VOL   35*CastlevaniaSymphonyoftheNightDraculasCastle_mvl/mxv
 BYTE   W01
 BYTE   VOL   36*CastlevaniaSymphonyoftheNightDraculasCastle_mvl/mxv
 BYTE   W01
 BYTE   VOL   37*CastlevaniaSymphonyoftheNightDraculasCastle_mvl/mxv
 BYTE   W01
 BYTE   VOL   37*CastlevaniaSymphonyoftheNightDraculasCastle_mvl/mxv
 BYTE   W01
 BYTE   VOL   37*CastlevaniaSymphonyoftheNightDraculasCastle_mvl/mxv
 BYTE   W01
 BYTE   VOL   38*CastlevaniaSymphonyoftheNightDraculasCastle_mvl/mxv
 BYTE   W02
 BYTE   VOL   39*CastlevaniaSymphonyoftheNightDraculasCastle_mvl/mxv
 BYTE   W01
 BYTE   VOL   40*CastlevaniaSymphonyoftheNightDraculasCastle_mvl/mxv
 BYTE   W01
 BYTE   VOL   40*CastlevaniaSymphonyoftheNightDraculasCastle_mvl/mxv
 BYTE   W01
 BYTE   VOL   40*CastlevaniaSymphonyoftheNightDraculasCastle_mvl/mxv
 BYTE   W01
 BYTE   VOL   41*CastlevaniaSymphonyoftheNightDraculasCastle_mvl/mxv
 BYTE   W01
 BYTE   VOL   42*CastlevaniaSymphonyoftheNightDraculasCastle_mvl/mxv
 BYTE   W01
 BYTE   VOL   43*CastlevaniaSymphonyoftheNightDraculasCastle_mvl/mxv
 BYTE   W01
 BYTE   VOL   44*CastlevaniaSymphonyoftheNightDraculasCastle_mvl/mxv
 BYTE   W01
 BYTE   VOL   44*CastlevaniaSymphonyoftheNightDraculasCastle_mvl/mxv
 BYTE   W02
 BYTE   VOL   45*CastlevaniaSymphonyoftheNightDraculasCastle_mvl/mxv
 BYTE   W01
 BYTE   VOL   45*CastlevaniaSymphonyoftheNightDraculasCastle_mvl/mxv
 BYTE   W01
 BYTE   VOL   46*CastlevaniaSymphonyoftheNightDraculasCastle_mvl/mxv
 BYTE   W01
 BYTE   VOL   47*CastlevaniaSymphonyoftheNightDraculasCastle_mvl/mxv
 BYTE   W01
 BYTE   VOL   47*CastlevaniaSymphonyoftheNightDraculasCastle_mvl/mxv
 BYTE   W01
 BYTE   VOL   48*CastlevaniaSymphonyoftheNightDraculasCastle_mvl/mxv
 BYTE   W01
 BYTE   VOL   49*CastlevaniaSymphonyoftheNightDraculasCastle_mvl/mxv
 BYTE   W01
 BYTE   VOL   50*CastlevaniaSymphonyoftheNightDraculasCastle_mvl/mxv
 BYTE   W01
 BYTE   VOL   51*CastlevaniaSymphonyoftheNightDraculasCastle_mvl/mxv
 BYTE   W02
 BYTE   VOL   51*CastlevaniaSymphonyoftheNightDraculasCastle_mvl/mxv
 BYTE   W01
 BYTE   VOL   51*CastlevaniaSymphonyoftheNightDraculasCastle_mvl/mxv
 BYTE   W01
 BYTE   VOL   52*CastlevaniaSymphonyoftheNightDraculasCastle_mvl/mxv
 BYTE   W01
 BYTE   VOL   53*CastlevaniaSymphonyoftheNightDraculasCastle_mvl/mxv
 BYTE   W01
 BYTE   VOL   54*CastlevaniaSymphonyoftheNightDraculasCastle_mvl/mxv
 BYTE   N05  An3  v072
 BYTE   W06
 BYTE   As3  v088
 BYTE   W06
 BYTE   N17  Cn4  v100
 BYTE   W18
 BYTE   As3  v088
 BYTE   W18
 BYTE   N11  An3  v072
 BYTE   W12
 BYTE   PEND 
//  #09 //014   ----------------------------------------
Label_014A4F87:
 BYTE   N14  Gn3  v088
 BYTE   W16
 BYTE   Fn3  v072
 BYTE   W16
 BYTE   Ds3  v060
 BYTE   W16
 BYTE   An3  v088
 BYTE   W16
 BYTE   Gn3  v072
 BYTE   W16
 BYTE   Fn3  v060
 BYTE   W16
 BYTE   PEND 
//  #09 //015   ----------------------------------------
Label_014A4F9B:
 BYTE   VOL   33*CastlevaniaSymphonyoftheNightDraculasCastle_mvl/mxv
 BYTE   N92  Gn3  v088
 BYTE   W02
 BYTE   VOL   34*CastlevaniaSymphonyoftheNightDraculasCastle_mvl/mxv
 BYTE   W01
 BYTE   VOL   34*CastlevaniaSymphonyoftheNightDraculasCastle_mvl/mxv
 BYTE   W01
 BYTE   VOL   34*CastlevaniaSymphonyoftheNightDraculasCastle_mvl/mxv
 BYTE   W01
 BYTE   VOL   35*CastlevaniaSymphonyoftheNightDraculasCastle_mvl/mxv
 BYTE   W01
 BYTE   VOL   36*CastlevaniaSymphonyoftheNightDraculasCastle_mvl/mxv
 BYTE   W01
 BYTE   VOL   37*CastlevaniaSymphonyoftheNightDraculasCastle_mvl/mxv
 BYTE   W01
 BYTE   VOL   37*CastlevaniaSymphonyoftheNightDraculasCastle_mvl/mxv
 BYTE   W01
 BYTE   VOL   37*CastlevaniaSymphonyoftheNightDraculasCastle_mvl/mxv
 BYTE   W01
 BYTE   VOL   38*CastlevaniaSymphonyoftheNightDraculasCastle_mvl/mxv
 BYTE   W02
 BYTE   VOL   39*CastlevaniaSymphonyoftheNightDraculasCastle_mvl/mxv
 BYTE   W01
 BYTE   VOL   40*CastlevaniaSymphonyoftheNightDraculasCastle_mvl/mxv
 BYTE   W01
 BYTE   VOL   40*CastlevaniaSymphonyoftheNightDraculasCastle_mvl/mxv
 BYTE   W01
 BYTE   VOL   40*CastlevaniaSymphonyoftheNightDraculasCastle_mvl/mxv
 BYTE   W01
 BYTE   VOL   41*CastlevaniaSymphonyoftheNightDraculasCastle_mvl/mxv
 BYTE   W01
 BYTE   VOL   42*CastlevaniaSymphonyoftheNightDraculasCastle_mvl/mxv
 BYTE   W01
 BYTE   VOL   43*CastlevaniaSymphonyoftheNightDraculasCastle_mvl/mxv
 BYTE   W01
 BYTE   VOL   44*CastlevaniaSymphonyoftheNightDraculasCastle_mvl/mxv
 BYTE   W01
 BYTE   VOL   44*CastlevaniaSymphonyoftheNightDraculasCastle_mvl/mxv
 BYTE   W02
 BYTE   VOL   45*CastlevaniaSymphonyoftheNightDraculasCastle_mvl/mxv
 BYTE   W01
 BYTE   VOL   45*CastlevaniaSymphonyoftheNightDraculasCastle_mvl/mxv
 BYTE   W01
 BYTE   VOL   46*CastlevaniaSymphonyoftheNightDraculasCastle_mvl/mxv
 BYTE   W01
 BYTE   VOL   47*CastlevaniaSymphonyoftheNightDraculasCastle_mvl/mxv
 BYTE   W01
 BYTE   VOL   47*CastlevaniaSymphonyoftheNightDraculasCastle_mvl/mxv
 BYTE   W01
 BYTE   VOL   48*CastlevaniaSymphonyoftheNightDraculasCastle_mvl/mxv
 BYTE   W01
 BYTE   VOL   49*CastlevaniaSymphonyoftheNightDraculasCastle_mvl/mxv
 BYTE   W01
 BYTE   VOL   50*CastlevaniaSymphonyoftheNightDraculasCastle_mvl/mxv
 BYTE   W01
 BYTE   VOL   51*CastlevaniaSymphonyoftheNightDraculasCastle_mvl/mxv
 BYTE   W02
 BYTE   VOL   51*CastlevaniaSymphonyoftheNightDraculasCastle_mvl/mxv
 BYTE   W01
 BYTE   VOL   51*CastlevaniaSymphonyoftheNightDraculasCastle_mvl/mxv
 BYTE   W01
 BYTE   VOL   52*CastlevaniaSymphonyoftheNightDraculasCastle_mvl/mxv
 BYTE   W01
 BYTE   VOL   53*CastlevaniaSymphonyoftheNightDraculasCastle_mvl/mxv
 BYTE   W01
 BYTE   VOL   54*CastlevaniaSymphonyoftheNightDraculasCastle_mvl/mxv
 BYTE   W12
 BYTE   VOL   53*CastlevaniaSymphonyoftheNightDraculasCastle_mvl/mxv
 BYTE   W06
 BYTE   VOL   52*CastlevaniaSymphonyoftheNightDraculasCastle_mvl/mxv
 BYTE   W03
 BYTE   VOL   51*CastlevaniaSymphonyoftheNightDraculasCastle_mvl/mxv
 BYTE   W03
 BYTE   VOL   51*CastlevaniaSymphonyoftheNightDraculasCastle_mvl/mxv
 BYTE   W02
 BYTE   VOL   51*CastlevaniaSymphonyoftheNightDraculasCastle_mvl/mxv
 BYTE   W02
 BYTE   VOL   50*CastlevaniaSymphonyoftheNightDraculasCastle_mvl/mxv
 BYTE   W02
 BYTE   VOL   49*CastlevaniaSymphonyoftheNightDraculasCastle_mvl/mxv
 BYTE   W01
 BYTE   VOL   48*CastlevaniaSymphonyoftheNightDraculasCastle_mvl/mxv
 BYTE   W01
 BYTE   VOL   47*CastlevaniaSymphonyoftheNightDraculasCastle_mvl/mxv
 BYTE   W01
 BYTE   VOL   47*CastlevaniaSymphonyoftheNightDraculasCastle_mvl/mxv
 BYTE   W01
 BYTE   VOL   46*CastlevaniaSymphonyoftheNightDraculasCastle_mvl/mxv
 BYTE   W01
 BYTE   VOL   45*CastlevaniaSymphonyoftheNightDraculasCastle_mvl/mxv
 BYTE   W01
 BYTE   VOL   45*CastlevaniaSymphonyoftheNightDraculasCastle_mvl/mxv
 BYTE   W01
 BYTE   VOL   44*CastlevaniaSymphonyoftheNightDraculasCastle_mvl/mxv
 BYTE   W01
 BYTE   VOL   43*CastlevaniaSymphonyoftheNightDraculasCastle_mvl/mxv
 BYTE   W01
 BYTE   VOL   41*CastlevaniaSymphonyoftheNightDraculasCastle_mvl/mxv
 BYTE   W01
 BYTE   VOL   40*CastlevaniaSymphonyoftheNightDraculasCastle_mvl/mxv
 BYTE   W01
 BYTE   VOL   39*CastlevaniaSymphonyoftheNightDraculasCastle_mvl/mxv
 BYTE   W01
 BYTE   VOL   37*CastlevaniaSymphonyoftheNightDraculasCastle_mvl/mxv
 BYTE   W01
 BYTE   VOL   37*CastlevaniaSymphonyoftheNightDraculasCastle_mvl/mxv
 BYTE   W01
 BYTE   VOL   34*CastlevaniaSymphonyoftheNightDraculasCastle_mvl/mxv
 BYTE   W01
 BYTE   VOL   33*CastlevaniaSymphonyoftheNightDraculasCastle_mvl/mxv
 BYTE   W01
 BYTE   VOL   31*CastlevaniaSymphonyoftheNightDraculasCastle_mvl/mxv
 BYTE   W01
 BYTE   VOL   28*CastlevaniaSymphonyoftheNightDraculasCastle_mvl/mxv
 BYTE   W01
 BYTE   VOL   27*CastlevaniaSymphonyoftheNightDraculasCastle_mvl/mxv
 BYTE   W01
 BYTE   VOL   25*CastlevaniaSymphonyoftheNightDraculasCastle_mvl/mxv
 BYTE   W01
 BYTE   VOL   22*CastlevaniaSymphonyoftheNightDraculasCastle_mvl/mxv
 BYTE   W01
 BYTE   VOL   20*CastlevaniaSymphonyoftheNightDraculasCastle_mvl/mxv
 BYTE   W01
 BYTE   VOL   17*CastlevaniaSymphonyoftheNightDraculasCastle_mvl/mxv
 BYTE   W01
 BYTE   VOL   14*CastlevaniaSymphonyoftheNightDraculasCastle_mvl/mxv
 BYTE   W01
 BYTE   VOL   11*CastlevaniaSymphonyoftheNightDraculasCastle_mvl/mxv
 BYTE   W01
 BYTE   VOL   10*CastlevaniaSymphonyoftheNightDraculasCastle_mvl/mxv
 BYTE   W01
 BYTE   VOL   6*CastlevaniaSymphonyoftheNightDraculasCastle_mvl/mxv
 BYTE   W01
 BYTE   VOL   4*CastlevaniaSymphonyoftheNightDraculasCastle_mvl/mxv
 BYTE   W01
 BYTE   VOL   2*CastlevaniaSymphonyoftheNightDraculasCastle_mvl/mxv
 BYTE   W01
 BYTE   VOL   0*CastlevaniaSymphonyoftheNightDraculasCastle_mvl/mxv
 BYTE   W01
 BYTE   PEND 
//  #09 //016   ----------------------------------------
 BYTE   PATT
  POIN2 Label_014A4EDC
//  #09 //017   ----------------------------------------
 BYTE   PATT
  POIN2 Label_014A4F2E
//  #09 //018   ----------------------------------------
 BYTE   PATT
  POIN2 Label_014A4F87
//  #09 //019   ----------------------------------------
 BYTE   PATT
  POIN2 Label_014A4F9B
//  #09 //020   ----------------------------------------
Label_014A503F:
 BYTE   VOL   33*CastlevaniaSymphonyoftheNightDraculasCastle_mvl/mxv
 BYTE   N30  Gn3  v100
 BYTE   W02
 BYTE   VOL   34*CastlevaniaSymphonyoftheNightDraculasCastle_mvl/mxv
 BYTE   W01
 BYTE   VOL   34*CastlevaniaSymphonyoftheNightDraculasCastle_mvl/mxv
 BYTE   W01
 BYTE   VOL   34*CastlevaniaSymphonyoftheNightDraculasCastle_mvl/mxv
 BYTE   W01
 BYTE   VOL   35*CastlevaniaSymphonyoftheNightDraculasCastle_mvl/mxv
 BYTE   W01
 BYTE   VOL   36*CastlevaniaSymphonyoftheNightDraculasCastle_mvl/mxv
 BYTE   W01
 BYTE   VOL   37*CastlevaniaSymphonyoftheNightDraculasCastle_mvl/mxv
 BYTE   W01
 BYTE   VOL   37*CastlevaniaSymphonyoftheNightDraculasCastle_mvl/mxv
 BYTE   W01
 BYTE   VOL   37*CastlevaniaSymphonyoftheNightDraculasCastle_mvl/mxv
 BYTE   W01
 BYTE   VOL   38*CastlevaniaSymphonyoftheNightDraculasCastle_mvl/mxv
 BYTE   W02
 BYTE   VOL   39*CastlevaniaSymphonyoftheNightDraculasCastle_mvl/mxv
 BYTE   W01
 BYTE   VOL   40*CastlevaniaSymphonyoftheNightDraculasCastle_mvl/mxv
 BYTE   W01
 BYTE   VOL   40*CastlevaniaSymphonyoftheNightDraculasCastle_mvl/mxv
 BYTE   W01
 BYTE   VOL   40*CastlevaniaSymphonyoftheNightDraculasCastle_mvl/mxv
 BYTE   W01
 BYTE   VOL   41*CastlevaniaSymphonyoftheNightDraculasCastle_mvl/mxv
 BYTE   W01
 BYTE   VOL   42*CastlevaniaSymphonyoftheNightDraculasCastle_mvl/mxv
 BYTE   W01
 BYTE   VOL   43*CastlevaniaSymphonyoftheNightDraculasCastle_mvl/mxv
 BYTE   W01
 BYTE   VOL   44*CastlevaniaSymphonyoftheNightDraculasCastle_mvl/mxv
 BYTE   W01
 BYTE   VOL   44*CastlevaniaSymphonyoftheNightDraculasCastle_mvl/mxv
 BYTE   W02
 BYTE   VOL   45*CastlevaniaSymphonyoftheNightDraculasCastle_mvl/mxv
 BYTE   W01
 BYTE   VOL   45*CastlevaniaSymphonyoftheNightDraculasCastle_mvl/mxv
 BYTE   W01
 BYTE   VOL   46*CastlevaniaSymphonyoftheNightDraculasCastle_mvl/mxv
 BYTE   W01
 BYTE   VOL   47*CastlevaniaSymphonyoftheNightDraculasCastle_mvl/mxv
 BYTE   W01
 BYTE   VOL   47*CastlevaniaSymphonyoftheNightDraculasCastle_mvl/mxv
 BYTE   W01
 BYTE   VOL   48*CastlevaniaSymphonyoftheNightDraculasCastle_mvl/mxv
 BYTE   W01
 BYTE   VOL   49*CastlevaniaSymphonyoftheNightDraculasCastle_mvl/mxv
 BYTE   W01
 BYTE   VOL   50*CastlevaniaSymphonyoftheNightDraculasCastle_mvl/mxv
 BYTE   W01
 BYTE   VOL   51*CastlevaniaSymphonyoftheNightDraculasCastle_mvl/mxv
 BYTE   W02
 BYTE   VOL   51*CastlevaniaSymphonyoftheNightDraculasCastle_mvl/mxv
 BYTE   W01
 BYTE   VOL   51*CastlevaniaSymphonyoftheNightDraculasCastle_mvl/mxv
 BYTE   W01
 BYTE   VOL   52*CastlevaniaSymphonyoftheNightDraculasCastle_mvl/mxv
 BYTE   W01
 BYTE   VOL   53*CastlevaniaSymphonyoftheNightDraculasCastle_mvl/mxv
 BYTE   W01
 BYTE   VOL   54*CastlevaniaSymphonyoftheNightDraculasCastle_mvl/mxv
 BYTE   N05  An3  v060
 BYTE   W06
 BYTE   As3  v072
 BYTE   W06
 BYTE   N17  Gn3  v088
 BYTE   W18
 BYTE   Fn3  v072
 BYTE   W18
 BYTE   N11  Ds3  v060
 BYTE   W12
 BYTE   PEND 
//  #09 //021   ----------------------------------------
Label_014A5098:
 BYTE   VOL   33*CastlevaniaSymphonyoftheNightDraculasCastle_mvl/mxv
 BYTE   N30  Fn3  v100
 BYTE   W02
 BYTE   VOL   34*CastlevaniaSymphonyoftheNightDraculasCastle_mvl/mxv
 BYTE   W01
 BYTE   VOL   34*CastlevaniaSymphonyoftheNightDraculasCastle_mvl/mxv
 BYTE   W01
 BYTE   VOL   34*CastlevaniaSymphonyoftheNightDraculasCastle_mvl/mxv
 BYTE   W01
 BYTE   VOL   35*CastlevaniaSymphonyoftheNightDraculasCastle_mvl/mxv
 BYTE   W01
 BYTE   VOL   36*CastlevaniaSymphonyoftheNightDraculasCastle_mvl/mxv
 BYTE   W01
 BYTE   VOL   37*CastlevaniaSymphonyoftheNightDraculasCastle_mvl/mxv
 BYTE   W01
 BYTE   VOL   37*CastlevaniaSymphonyoftheNightDraculasCastle_mvl/mxv
 BYTE   W01
 BYTE   VOL   37*CastlevaniaSymphonyoftheNightDraculasCastle_mvl/mxv
 BYTE   W01
 BYTE   VOL   38*CastlevaniaSymphonyoftheNightDraculasCastle_mvl/mxv
 BYTE   W02
 BYTE   VOL   39*CastlevaniaSymphonyoftheNightDraculasCastle_mvl/mxv
 BYTE   W01
 BYTE   VOL   40*CastlevaniaSymphonyoftheNightDraculasCastle_mvl/mxv
 BYTE   W01
 BYTE   VOL   40*CastlevaniaSymphonyoftheNightDraculasCastle_mvl/mxv
 BYTE   W01
 BYTE   VOL   40*CastlevaniaSymphonyoftheNightDraculasCastle_mvl/mxv
 BYTE   W01
 BYTE   VOL   41*CastlevaniaSymphonyoftheNightDraculasCastle_mvl/mxv
 BYTE   W01
 BYTE   VOL   42*CastlevaniaSymphonyoftheNightDraculasCastle_mvl/mxv
 BYTE   W01
 BYTE   VOL   43*CastlevaniaSymphonyoftheNightDraculasCastle_mvl/mxv
 BYTE   W01
 BYTE   VOL   44*CastlevaniaSymphonyoftheNightDraculasCastle_mvl/mxv
 BYTE   W01
 BYTE   VOL   44*CastlevaniaSymphonyoftheNightDraculasCastle_mvl/mxv
 BYTE   W02
 BYTE   VOL   45*CastlevaniaSymphonyoftheNightDraculasCastle_mvl/mxv
 BYTE   W01
 BYTE   VOL   45*CastlevaniaSymphonyoftheNightDraculasCastle_mvl/mxv
 BYTE   W01
 BYTE   VOL   46*CastlevaniaSymphonyoftheNightDraculasCastle_mvl/mxv
 BYTE   W01
 BYTE   VOL   47*CastlevaniaSymphonyoftheNightDraculasCastle_mvl/mxv
 BYTE   W01
 BYTE   VOL   47*CastlevaniaSymphonyoftheNightDraculasCastle_mvl/mxv
 BYTE   W01
 BYTE   VOL   48*CastlevaniaSymphonyoftheNightDraculasCastle_mvl/mxv
 BYTE   W01
 BYTE   VOL   49*CastlevaniaSymphonyoftheNightDraculasCastle_mvl/mxv
 BYTE   W01
 BYTE   VOL   50*CastlevaniaSymphonyoftheNightDraculasCastle_mvl/mxv
 BYTE   W01
 BYTE   VOL   51*CastlevaniaSymphonyoftheNightDraculasCastle_mvl/mxv
 BYTE   W02
 BYTE   VOL   51*CastlevaniaSymphonyoftheNightDraculasCastle_mvl/mxv
 BYTE   W01
 BYTE   VOL   51*CastlevaniaSymphonyoftheNightDraculasCastle_mvl/mxv
 BYTE   W01
 BYTE   VOL   52*CastlevaniaSymphonyoftheNightDraculasCastle_mvl/mxv
 BYTE   W01
 BYTE   VOL   53*CastlevaniaSymphonyoftheNightDraculasCastle_mvl/mxv
 BYTE   W01
 BYTE   VOL   54*CastlevaniaSymphonyoftheNightDraculasCastle_mvl/mxv
 BYTE   N05  Gn3  v060
 BYTE   W06
 BYTE   An3  v072
 BYTE   W06
 BYTE   N22  As3  v088
 BYTE   W24
 BYTE   Gs3  v072
 BYTE   W24
 BYTE   PEND 
//  #09 //022   ----------------------------------------
Label_014A50ED:
 BYTE   N15  Gn3  v088
 BYTE   W16
 BYTE   Fn3  v072
 BYTE   W16
 BYTE   N12  Ds3  v060
 BYTE   W16
 BYTE   N15  An3  v100
 BYTE   W16
 BYTE   Gn3  v088
 BYTE   W16
 BYTE   N12  Fn3  v072
 BYTE   W16
 BYTE   PEND 
//  #09 //023   ----------------------------------------
Label_014A5104:
 BYTE   VOL   33*CastlevaniaSymphonyoftheNightDraculasCastle_mvl/mxv
 BYTE   N92  Dn3  v088
 BYTE   W01
 BYTE   VOL   34*CastlevaniaSymphonyoftheNightDraculasCastle_mvl/mxv
 BYTE   W01
 BYTE   VOL   34*CastlevaniaSymphonyoftheNightDraculasCastle_mvl/mxv
 BYTE   W01
 BYTE   VOL   35*CastlevaniaSymphonyoftheNightDraculasCastle_mvl/mxv
 BYTE   W01
 BYTE   VOL   36*CastlevaniaSymphonyoftheNightDraculasCastle_mvl/mxv
 BYTE   W01
 BYTE   VOL   37*CastlevaniaSymphonyoftheNightDraculasCastle_mvl/mxv
 BYTE   W01
 BYTE   VOL   37*CastlevaniaSymphonyoftheNightDraculasCastle_mvl/mxv
 BYTE   W01
 BYTE   VOL   38*CastlevaniaSymphonyoftheNightDraculasCastle_mvl/mxv
 BYTE   W01
 BYTE   VOL   39*CastlevaniaSymphonyoftheNightDraculasCastle_mvl/mxv
 BYTE   W01
 BYTE   VOL   40*CastlevaniaSymphonyoftheNightDraculasCastle_mvl/mxv
 BYTE   W01
 BYTE   VOL   40*CastlevaniaSymphonyoftheNightDraculasCastle_mvl/mxv
 BYTE   W01
 BYTE   VOL   41*CastlevaniaSymphonyoftheNightDraculasCastle_mvl/mxv
 BYTE   W01
 BYTE   VOL   43*CastlevaniaSymphonyoftheNightDraculasCastle_mvl/mxv
 BYTE   W01
 BYTE   VOL   44*CastlevaniaSymphonyoftheNightDraculasCastle_mvl/mxv
 BYTE   W01
 BYTE   VOL   45*CastlevaniaSymphonyoftheNightDraculasCastle_mvl/mxv
 BYTE   W01
 BYTE   VOL   45*CastlevaniaSymphonyoftheNightDraculasCastle_mvl/mxv
 BYTE   W01
 BYTE   VOL   46*CastlevaniaSymphonyoftheNightDraculasCastle_mvl/mxv
 BYTE   W01
 BYTE   VOL   47*CastlevaniaSymphonyoftheNightDraculasCastle_mvl/mxv
 BYTE   W01
 BYTE   VOL   48*CastlevaniaSymphonyoftheNightDraculasCastle_mvl/mxv
 BYTE   W01
 BYTE   VOL   49*CastlevaniaSymphonyoftheNightDraculasCastle_mvl/mxv
 BYTE   W01
 BYTE   VOL   51*CastlevaniaSymphonyoftheNightDraculasCastle_mvl/mxv
 BYTE   W01
 BYTE   VOL   51*CastlevaniaSymphonyoftheNightDraculasCastle_mvl/mxv
 BYTE   W01
 BYTE   VOL   51*CastlevaniaSymphonyoftheNightDraculasCastle_mvl/mxv
 BYTE   W01
 BYTE   VOL   53*CastlevaniaSymphonyoftheNightDraculasCastle_mvl/mxv
 BYTE   W01
 BYTE   VOL   54*CastlevaniaSymphonyoftheNightDraculasCastle_mvl/mxv
 BYTE   W15
 BYTE   VOL   53*CastlevaniaSymphonyoftheNightDraculasCastle_mvl/mxv
 BYTE   W06
 BYTE   VOL   52*CastlevaniaSymphonyoftheNightDraculasCastle_mvl/mxv
 BYTE   W05
 BYTE   VOL   51*CastlevaniaSymphonyoftheNightDraculasCastle_mvl/mxv
 BYTE   W03
 BYTE   VOL   51*CastlevaniaSymphonyoftheNightDraculasCastle_mvl/mxv
 BYTE   W03
 BYTE   VOL   51*CastlevaniaSymphonyoftheNightDraculasCastle_mvl/mxv
 BYTE   W02
 BYTE   VOL   50*CastlevaniaSymphonyoftheNightDraculasCastle_mvl/mxv
 BYTE   W02
 BYTE   VOL   49*CastlevaniaSymphonyoftheNightDraculasCastle_mvl/mxv
 BYTE   W01
 BYTE   VOL   48*CastlevaniaSymphonyoftheNightDraculasCastle_mvl/mxv
 BYTE   W01
 BYTE   VOL   47*CastlevaniaSymphonyoftheNightDraculasCastle_mvl/mxv
 BYTE   W02
 BYTE   VOL   47*CastlevaniaSymphonyoftheNightDraculasCastle_mvl/mxv
 BYTE   W01
 BYTE   VOL   46*CastlevaniaSymphonyoftheNightDraculasCastle_mvl/mxv
 BYTE   W01
 BYTE   VOL   45*CastlevaniaSymphonyoftheNightDraculasCastle_mvl/mxv
 BYTE   W01
 BYTE   VOL   45*CastlevaniaSymphonyoftheNightDraculasCastle_mvl/mxv
 BYTE   W01
 BYTE   VOL   44*CastlevaniaSymphonyoftheNightDraculasCastle_mvl/mxv
 BYTE   W01
 BYTE   VOL   44*CastlevaniaSymphonyoftheNightDraculasCastle_mvl/mxv
 BYTE   W01
 BYTE   VOL   43*CastlevaniaSymphonyoftheNightDraculasCastle_mvl/mxv
 BYTE   W01
 BYTE   VOL   41*CastlevaniaSymphonyoftheNightDraculasCastle_mvl/mxv
 BYTE   W01
 BYTE   VOL   40*CastlevaniaSymphonyoftheNightDraculasCastle_mvl/mxv
 BYTE   W01
 BYTE   VOL   40*CastlevaniaSymphonyoftheNightDraculasCastle_mvl/mxv
 BYTE   W01
 BYTE   VOL   38*CastlevaniaSymphonyoftheNightDraculasCastle_mvl/mxv
 BYTE   W01
 BYTE   VOL   37*CastlevaniaSymphonyoftheNightDraculasCastle_mvl/mxv
 BYTE   W01
 BYTE   VOL   36*CastlevaniaSymphonyoftheNightDraculasCastle_mvl/mxv
 BYTE   W01
 BYTE   VOL   34*CastlevaniaSymphonyoftheNightDraculasCastle_mvl/mxv
 BYTE   W01
 BYTE   VOL   33*CastlevaniaSymphonyoftheNightDraculasCastle_mvl/mxv
 BYTE   W01
 BYTE   VOL   31*CastlevaniaSymphonyoftheNightDraculasCastle_mvl/mxv
 BYTE   W01
 BYTE   VOL   30*CastlevaniaSymphonyoftheNightDraculasCastle_mvl/mxv
 BYTE   W01
 BYTE   VOL   28*CastlevaniaSymphonyoftheNightDraculasCastle_mvl/mxv
 BYTE   W01
 BYTE   VOL   27*CastlevaniaSymphonyoftheNightDraculasCastle_mvl/mxv
 BYTE   W01
 BYTE   VOL   24*CastlevaniaSymphonyoftheNightDraculasCastle_mvl/mxv
 BYTE   W01
 BYTE   VOL   22*CastlevaniaSymphonyoftheNightDraculasCastle_mvl/mxv
 BYTE   W01
 BYTE   VOL   20*CastlevaniaSymphonyoftheNightDraculasCastle_mvl/mxv
 BYTE   W01
 BYTE   VOL   19*CastlevaniaSymphonyoftheNightDraculasCastle_mvl/mxv
 BYTE   W01
 BYTE   VOL   17*CastlevaniaSymphonyoftheNightDraculasCastle_mvl/mxv
 BYTE   W01
 BYTE   VOL   14*CastlevaniaSymphonyoftheNightDraculasCastle_mvl/mxv
 BYTE   W01
 BYTE   VOL   11*CastlevaniaSymphonyoftheNightDraculasCastle_mvl/mxv
 BYTE   W01
 BYTE   VOL   10*CastlevaniaSymphonyoftheNightDraculasCastle_mvl/mxv
 BYTE   W01
 BYTE   VOL   7*CastlevaniaSymphonyoftheNightDraculasCastle_mvl/mxv
 BYTE   W01
 BYTE   VOL   5*CastlevaniaSymphonyoftheNightDraculasCastle_mvl/mxv
 BYTE   W01
 BYTE   VOL   3*CastlevaniaSymphonyoftheNightDraculasCastle_mvl/mxv
 BYTE   W01
 BYTE   VOL   1*CastlevaniaSymphonyoftheNightDraculasCastle_mvl/mxv
 BYTE   W01
 BYTE   VOL   0*CastlevaniaSymphonyoftheNightDraculasCastle_mvl/mxv
 BYTE   W01
 BYTE   PEND 
//  #09 //024   ----------------------------------------
Label_014A518E:
 BYTE   VOL   54*CastlevaniaSymphonyoftheNightDraculasCastle_mvl/mxv
 BYTE   N15  Ds3  v048
 BYTE   W16
 BYTE   Fn3  v060
 BYTE   W16
 BYTE   N11  Gn3  v072
 BYTE   W16
 BYTE   N15  Fs3  v060
 BYTE   W16
 BYTE   Gn3  v072
 BYTE   W16
 BYTE   N11  An3  v088
 BYTE   W16
 BYTE   PEND 
//  #09 //025   ----------------------------------------
Label_014A51A7:
 BYTE   N15  As3  v100
 BYTE   W16
 BYTE   An3  v088
 BYTE   W16
 BYTE   N11  Gn3  v072
 BYTE   W16
 BYTE   VOL   54*CastlevaniaSymphonyoftheNightDraculasCastle_mvl/mxv
 BYTE   N44  Gn3  v088
 BYTE   W10
 BYTE   VOL   53*CastlevaniaSymphonyoftheNightDraculasCastle_mvl/mxv
 BYTE   W04
 BYTE   VOL   52*CastlevaniaSymphonyoftheNightDraculasCastle_mvl/mxv
 BYTE   W03
 BYTE   VOL   51*CastlevaniaSymphonyoftheNightDraculasCastle_mvl/mxv
 BYTE   W02
 BYTE   VOL   51*CastlevaniaSymphonyoftheNightDraculasCastle_mvl/mxv
 BYTE   W02
 BYTE   VOL   51*CastlevaniaSymphonyoftheNightDraculasCastle_mvl/mxv
 BYTE   W02
 BYTE   VOL   50*CastlevaniaSymphonyoftheNightDraculasCastle_mvl/mxv
 BYTE   W01
 BYTE   VOL   49*CastlevaniaSymphonyoftheNightDraculasCastle_mvl/mxv
 BYTE   W01
 BYTE   VOL   48*CastlevaniaSymphonyoftheNightDraculasCastle_mvl/mxv
 BYTE   W01
 BYTE   VOL   47*CastlevaniaSymphonyoftheNightDraculasCastle_mvl/mxv
 BYTE   W01
 BYTE   VOL   46*CastlevaniaSymphonyoftheNightDraculasCastle_mvl/mxv
 BYTE   W01
 BYTE   VOL   45*CastlevaniaSymphonyoftheNightDraculasCastle_mvl/mxv
 BYTE   W01
 BYTE   VOL   44*CastlevaniaSymphonyoftheNightDraculasCastle_mvl/mxv
 BYTE   W01
 BYTE   VOL   44*CastlevaniaSymphonyoftheNightDraculasCastle_mvl/mxv
 BYTE   W01
 BYTE   VOL   41*CastlevaniaSymphonyoftheNightDraculasCastle_mvl/mxv
 BYTE   W01
 BYTE   VOL   40*CastlevaniaSymphonyoftheNightDraculasCastle_mvl/mxv
 BYTE   W01
 BYTE   VOL   39*CastlevaniaSymphonyoftheNightDraculasCastle_mvl/mxv
 BYTE   W01
 BYTE   VOL   37*CastlevaniaSymphonyoftheNightDraculasCastle_mvl/mxv
 BYTE   W01
 BYTE   VOL   35*CastlevaniaSymphonyoftheNightDraculasCastle_mvl/mxv
 BYTE   W01
 BYTE   VOL   33*CastlevaniaSymphonyoftheNightDraculasCastle_mvl/mxv
 BYTE   W01
 BYTE   VOL   30*CastlevaniaSymphonyoftheNightDraculasCastle_mvl/mxv
 BYTE   W01
 BYTE   VOL   28*CastlevaniaSymphonyoftheNightDraculasCastle_mvl/mxv
 BYTE   W01
 BYTE   VOL   25*CastlevaniaSymphonyoftheNightDraculasCastle_mvl/mxv
 BYTE   W01
 BYTE   VOL   22*CastlevaniaSymphonyoftheNightDraculasCastle_mvl/mxv
 BYTE   W01
 BYTE   VOL   19*CastlevaniaSymphonyoftheNightDraculasCastle_mvl/mxv
 BYTE   W01
 BYTE   VOL   16*CastlevaniaSymphonyoftheNightDraculasCastle_mvl/mxv
 BYTE   W01
 BYTE   VOL   12*CastlevaniaSymphonyoftheNightDraculasCastle_mvl/mxv
 BYTE   W01
 BYTE   VOL   8*CastlevaniaSymphonyoftheNightDraculasCastle_mvl/mxv
 BYTE   W01
 BYTE   VOL   6*CastlevaniaSymphonyoftheNightDraculasCastle_mvl/mxv
 BYTE   W01
 BYTE   VOL   3*CastlevaniaSymphonyoftheNightDraculasCastle_mvl/mxv
 BYTE   W01
 BYTE   VOL   0*CastlevaniaSymphonyoftheNightDraculasCastle_mvl/mxv
 BYTE   W01
 BYTE   PEND 
//  #09 //026   ----------------------------------------
Label_014A51F6:
 BYTE   VOL   54*CastlevaniaSymphonyoftheNightDraculasCastle_mvl/mxv
 BYTE   N15  Gn3  v060
 BYTE   W16
 BYTE   An3  v072
 BYTE   W16
 BYTE   As3  v060
 BYTE   W16
 BYTE   An3  v088
 BYTE   W16
 BYTE   En3  v060
 BYTE   W16
 BYTE   N11  An3  v072
 BYTE   W16
 BYTE   PEND 
//  #09 //027   ----------------------------------------
Label_014A520D:
 BYTE   VOL   33*CastlevaniaSymphonyoftheNightDraculasCastle_mvl/mxv
 BYTE   N78  Gn3  v088
 BYTE   W03
 BYTE   VOL   34*CastlevaniaSymphonyoftheNightDraculasCastle_mvl/mxv
 BYTE   W03
 BYTE   VOL   34*CastlevaniaSymphonyoftheNightDraculasCastle_mvl/mxv
 BYTE   W02
 BYTE   VOL   34*CastlevaniaSymphonyoftheNightDraculasCastle_mvl/mxv
 BYTE   W03
 BYTE   VOL   35*CastlevaniaSymphonyoftheNightDraculasCastle_mvl/mxv
 BYTE   W03
 BYTE   VOL   36*CastlevaniaSymphonyoftheNightDraculasCastle_mvl/mxv
 BYTE   W02
 BYTE   VOL   37*CastlevaniaSymphonyoftheNightDraculasCastle_mvl/mxv
 BYTE   W03
 BYTE   VOL   37*CastlevaniaSymphonyoftheNightDraculasCastle_mvl/mxv
 BYTE   W02
 BYTE   VOL   37*CastlevaniaSymphonyoftheNightDraculasCastle_mvl/mxv
 BYTE   W03
 BYTE   VOL   38*CastlevaniaSymphonyoftheNightDraculasCastle_mvl/mxv
 BYTE   W03
 BYTE   VOL   39*CastlevaniaSymphonyoftheNightDraculasCastle_mvl/mxv
 BYTE   W02
 BYTE   VOL   40*CastlevaniaSymphonyoftheNightDraculasCastle_mvl/mxv
 BYTE   W03
 BYTE   VOL   40*CastlevaniaSymphonyoftheNightDraculasCastle_mvl/mxv
 BYTE   W02
 BYTE   VOL   40*CastlevaniaSymphonyoftheNightDraculasCastle_mvl/mxv
 BYTE   W03
 BYTE   VOL   41*CastlevaniaSymphonyoftheNightDraculasCastle_mvl/mxv
 BYTE   W03
 BYTE   VOL   42*CastlevaniaSymphonyoftheNightDraculasCastle_mvl/mxv
 BYTE   W02
 BYTE   VOL   43*CastlevaniaSymphonyoftheNightDraculasCastle_mvl/mxv
 BYTE   W03
 BYTE   VOL   44*CastlevaniaSymphonyoftheNightDraculasCastle_mvl/mxv
 BYTE   W02
 BYTE   VOL   44*CastlevaniaSymphonyoftheNightDraculasCastle_mvl/mxv
 BYTE   W03
 BYTE   VOL   45*CastlevaniaSymphonyoftheNightDraculasCastle_mvl/mxv
 BYTE   W03
 BYTE   VOL   45*CastlevaniaSymphonyoftheNightDraculasCastle_mvl/mxv
 BYTE   W02
 BYTE   VOL   46*CastlevaniaSymphonyoftheNightDraculasCastle_mvl/mxv
 BYTE   W03
 BYTE   VOL   47*CastlevaniaSymphonyoftheNightDraculasCastle_mvl/mxv
 BYTE   W03
 BYTE   VOL   47*CastlevaniaSymphonyoftheNightDraculasCastle_mvl/mxv
 BYTE   W02
 BYTE   VOL   48*CastlevaniaSymphonyoftheNightDraculasCastle_mvl/mxv
 BYTE   W03
 BYTE   VOL   49*CastlevaniaSymphonyoftheNightDraculasCastle_mvl/mxv
 BYTE   W02
 BYTE   VOL   50*CastlevaniaSymphonyoftheNightDraculasCastle_mvl/mxv
 BYTE   W03
 BYTE   VOL   51*CastlevaniaSymphonyoftheNightDraculasCastle_mvl/mxv
 BYTE   W03
 BYTE   VOL   51*CastlevaniaSymphonyoftheNightDraculasCastle_mvl/mxv
 BYTE   W02
 BYTE   VOL   51*CastlevaniaSymphonyoftheNightDraculasCastle_mvl/mxv
 BYTE   W03
 BYTE   VOL   52*CastlevaniaSymphonyoftheNightDraculasCastle_mvl/mxv
 BYTE   W02
 BYTE   VOL   53*CastlevaniaSymphonyoftheNightDraculasCastle_mvl/mxv
 BYTE   W03
 BYTE   VOL   54*CastlevaniaSymphonyoftheNightDraculasCastle_mvl/mxv
 BYTE   N05  Fs3
 BYTE   W06
 BYTE   En3  v072
 BYTE   W06
 BYTE   PEND 
//  #09 //028   ----------------------------------------
Label_014A525A:
 BYTE   VOL   33*CastlevaniaSymphonyoftheNightDraculasCastle_mvl/mxv
 BYTE   N92  Fs3  v088
 BYTE   W02
 BYTE   VOL   34*CastlevaniaSymphonyoftheNightDraculasCastle_mvl/mxv
 BYTE   W01
 BYTE   VOL   34*CastlevaniaSymphonyoftheNightDraculasCastle_mvl/mxv
 BYTE   W01
 BYTE   VOL   34*CastlevaniaSymphonyoftheNightDraculasCastle_mvl/mxv
 BYTE   W01
 BYTE   VOL   35*CastlevaniaSymphonyoftheNightDraculasCastle_mvl/mxv
 BYTE   W02
 BYTE   VOL   36*CastlevaniaSymphonyoftheNightDraculasCastle_mvl/mxv
 BYTE   W01
 BYTE   VOL   37*CastlevaniaSymphonyoftheNightDraculasCastle_mvl/mxv
 BYTE   W01
 BYTE   VOL   37*CastlevaniaSymphonyoftheNightDraculasCastle_mvl/mxv
 BYTE   W01
 BYTE   VOL   37*CastlevaniaSymphonyoftheNightDraculasCastle_mvl/mxv
 BYTE   W02
 BYTE   VOL   38*CastlevaniaSymphonyoftheNightDraculasCastle_mvl/mxv
 BYTE   W01
 BYTE   VOL   39*CastlevaniaSymphonyoftheNightDraculasCastle_mvl/mxv
 BYTE   W01
 BYTE   VOL   40*CastlevaniaSymphonyoftheNightDraculasCastle_mvl/mxv
 BYTE   W01
 BYTE   VOL   40*CastlevaniaSymphonyoftheNightDraculasCastle_mvl/mxv
 BYTE   W02
 BYTE   VOL   40*CastlevaniaSymphonyoftheNightDraculasCastle_mvl/mxv
 BYTE   W01
 BYTE   VOL   41*CastlevaniaSymphonyoftheNightDraculasCastle_mvl/mxv
 BYTE   W01
 BYTE   VOL   42*CastlevaniaSymphonyoftheNightDraculasCastle_mvl/mxv
 BYTE   W01
 BYTE   VOL   43*CastlevaniaSymphonyoftheNightDraculasCastle_mvl/mxv
 BYTE   W01
 BYTE   VOL   44*CastlevaniaSymphonyoftheNightDraculasCastle_mvl/mxv
 BYTE   W02
 BYTE   VOL   44*CastlevaniaSymphonyoftheNightDraculasCastle_mvl/mxv
 BYTE   W01
 BYTE   VOL   45*CastlevaniaSymphonyoftheNightDraculasCastle_mvl/mxv
 BYTE   W01
 BYTE   VOL   45*CastlevaniaSymphonyoftheNightDraculasCastle_mvl/mxv
 BYTE   W01
 BYTE   VOL   46*CastlevaniaSymphonyoftheNightDraculasCastle_mvl/mxv
 BYTE   W02
 BYTE   VOL   47*CastlevaniaSymphonyoftheNightDraculasCastle_mvl/mxv
 BYTE   W01
 BYTE   VOL   47*CastlevaniaSymphonyoftheNightDraculasCastle_mvl/mxv
 BYTE   W01
 BYTE   VOL   48*CastlevaniaSymphonyoftheNightDraculasCastle_mvl/mxv
 BYTE   W01
 BYTE   VOL   49*CastlevaniaSymphonyoftheNightDraculasCastle_mvl/mxv
 BYTE   W02
 BYTE   VOL   50*CastlevaniaSymphonyoftheNightDraculasCastle_mvl/mxv
 BYTE   W01
 BYTE   VOL   51*CastlevaniaSymphonyoftheNightDraculasCastle_mvl/mxv
 BYTE   W01
 BYTE   VOL   51*CastlevaniaSymphonyoftheNightDraculasCastle_mvl/mxv
 BYTE   W01
 BYTE   VOL   51*CastlevaniaSymphonyoftheNightDraculasCastle_mvl/mxv
 BYTE   W02
 BYTE   VOL   52*CastlevaniaSymphonyoftheNightDraculasCastle_mvl/mxv
 BYTE   W01
 BYTE   VOL   53*CastlevaniaSymphonyoftheNightDraculasCastle_mvl/mxv
 BYTE   W01
 BYTE   VOL   54*CastlevaniaSymphonyoftheNightDraculasCastle_mvl/mxv
 BYTE   W12
 BYTE   VOL   53*CastlevaniaSymphonyoftheNightDraculasCastle_mvl/mxv
 BYTE   W05
 BYTE   VOL   52*CastlevaniaSymphonyoftheNightDraculasCastle_mvl/mxv
 BYTE   W03
 BYTE   VOL   51*CastlevaniaSymphonyoftheNightDraculasCastle_mvl/mxv
 BYTE   W03
 BYTE   VOL   51*CastlevaniaSymphonyoftheNightDraculasCastle_mvl/mxv
 BYTE   W02
 BYTE   VOL   51*CastlevaniaSymphonyoftheNightDraculasCastle_mvl/mxv
 BYTE   W01
 BYTE   VOL   50*CastlevaniaSymphonyoftheNightDraculasCastle_mvl/mxv
 BYTE   W02
 BYTE   VOL   49*CastlevaniaSymphonyoftheNightDraculasCastle_mvl/mxv
 BYTE   W01
 BYTE   VOL   48*CastlevaniaSymphonyoftheNightDraculasCastle_mvl/mxv
 BYTE   W01
 BYTE   VOL   47*CastlevaniaSymphonyoftheNightDraculasCastle_mvl/mxv
 BYTE   W01
 BYTE   VOL   47*CastlevaniaSymphonyoftheNightDraculasCastle_mvl/mxv
 BYTE   W01
 BYTE   VOL   46*CastlevaniaSymphonyoftheNightDraculasCastle_mvl/mxv
 BYTE   W01
 BYTE   VOL   45*CastlevaniaSymphonyoftheNightDraculasCastle_mvl/mxv
 BYTE   W01
 BYTE   VOL   44*CastlevaniaSymphonyoftheNightDraculasCastle_mvl/mxv
 BYTE   W01
 BYTE   VOL   44*CastlevaniaSymphonyoftheNightDraculasCastle_mvl/mxv
 BYTE   W01
 BYTE   VOL   42*CastlevaniaSymphonyoftheNightDraculasCastle_mvl/mxv
 BYTE   W01
 BYTE   VOL   40*CastlevaniaSymphonyoftheNightDraculasCastle_mvl/mxv
 BYTE   W01
 BYTE   VOL   40*CastlevaniaSymphonyoftheNightDraculasCastle_mvl/mxv
 BYTE   W01
 BYTE   VOL   38*CastlevaniaSymphonyoftheNightDraculasCastle_mvl/mxv
 BYTE   W01
 BYTE   VOL   37*CastlevaniaSymphonyoftheNightDraculasCastle_mvl/mxv
 BYTE   W01
 BYTE   VOL   34*CastlevaniaSymphonyoftheNightDraculasCastle_mvl/mxv
 BYTE   W01
 BYTE   VOL   33*CastlevaniaSymphonyoftheNightDraculasCastle_mvl/mxv
 BYTE   W01
 BYTE   VOL   31*CastlevaniaSymphonyoftheNightDraculasCastle_mvl/mxv
 BYTE   W01
 BYTE   VOL   28*CastlevaniaSymphonyoftheNightDraculasCastle_mvl/mxv
 BYTE   W01
 BYTE   VOL   27*CastlevaniaSymphonyoftheNightDraculasCastle_mvl/mxv
 BYTE   W01
 BYTE   VOL   23*CastlevaniaSymphonyoftheNightDraculasCastle_mvl/mxv
 BYTE   W01
 BYTE   VOL   21*CastlevaniaSymphonyoftheNightDraculasCastle_mvl/mxv
 BYTE   W01
 BYTE   VOL   19*CastlevaniaSymphonyoftheNightDraculasCastle_mvl/mxv
 BYTE   W01
 BYTE   VOL   16*CastlevaniaSymphonyoftheNightDraculasCastle_mvl/mxv
 BYTE   W01
 BYTE   VOL   13*CastlevaniaSymphonyoftheNightDraculasCastle_mvl/mxv
 BYTE   W01
 BYTE   VOL   10*CastlevaniaSymphonyoftheNightDraculasCastle_mvl/mxv
 BYTE   W01
 BYTE   VOL   7*CastlevaniaSymphonyoftheNightDraculasCastle_mvl/mxv
 BYTE   W01
 BYTE   VOL   4*CastlevaniaSymphonyoftheNightDraculasCastle_mvl/mxv
 BYTE   W01
 BYTE   VOL   2*CastlevaniaSymphonyoftheNightDraculasCastle_mvl/mxv
 BYTE   W01
 BYTE   VOL   0*CastlevaniaSymphonyoftheNightDraculasCastle_mvl/mxv
 BYTE   W01
 BYTE   PEND 
//  #09 //029   ----------------------------------------
Label_014A52E6:
 BYTE   VOL   54*CastlevaniaSymphonyoftheNightDraculasCastle_mvl/mxv
 BYTE   N30  Dn4  v100
 BYTE   W36
 BYTE   N05  As3  v072
 BYTE   W06
 BYTE   Cn4  v088
 BYTE   W06
 BYTE   N17  Dn4  v100
 BYTE   W18
 BYTE   Cn4  v088
 BYTE   W18
 BYTE   N11  As3  v072
 BYTE   W12
 BYTE   PEND 
//  #09 //030   ----------------------------------------
Label_014A52FF:
 BYTE   N22  Cn4  v100
 BYTE   W24
 BYTE   N11  Fn3  v072
 BYTE   W24
 BYTE   N24  Fn4  v108
 BYTE   W36
 BYTE   N05  Ds4  v088
 BYTE   W06
 BYTE   Dn4  v072
 BYTE   W06
 BYTE   PEND 
//  #09 //031   ----------------------------------------
Label_014A5313:
 BYTE   N30  Ds4  v100
 BYTE   W36
 BYTE   N05  Cn4  v072
 BYTE   W06
 BYTE   Dn4  v088
 BYTE   W06
 BYTE   N30  Ds4  v100
 BYTE   W36
 BYTE   N05  Dn4  v088
 BYTE   W06
 BYTE   Cn4  v072
 BYTE   W06
 BYTE   PEND 
//  #09 //032   ----------------------------------------
Label_014A532A:
 BYTE   N20  Dn4  v088
 BYTE   W24
 BYTE   An3  v072
 BYTE   W24
 BYTE   As3  v088
 BYTE   W24
 BYTE   Cn4  v100
 BYTE   W24
 BYTE   PEND 
//  #09 //033   ----------------------------------------
 BYTE   PATT
  POIN2 Label_014A52E6
//  #09 //034   ----------------------------------------
 BYTE   PATT
  POIN2 Label_014A52FF
//  #09 //035   ----------------------------------------
 BYTE   PATT
  POIN2 Label_014A5313
//  #09 //036   ----------------------------------------
Label_014A5347:
 BYTE   VOL   33*CastlevaniaSymphonyoftheNightDraculasCastle_mvl/mxv
 BYTE   N92  Dn4  v100
 BYTE   W03
 BYTE   VOL   34*CastlevaniaSymphonyoftheNightDraculasCastle_mvl/mxv
 BYTE   W03
 BYTE   VOL   34*CastlevaniaSymphonyoftheNightDraculasCastle_mvl/mxv
 BYTE   W03
 BYTE   VOL   34*CastlevaniaSymphonyoftheNightDraculasCastle_mvl/mxv
 BYTE   W03
 BYTE   VOL   35*CastlevaniaSymphonyoftheNightDraculasCastle_mvl/mxv
 BYTE   W03
 BYTE   VOL   36*CastlevaniaSymphonyoftheNightDraculasCastle_mvl/mxv
 BYTE   W03
 BYTE   VOL   37*CastlevaniaSymphonyoftheNightDraculasCastle_mvl/mxv
 BYTE   W03
 BYTE   VOL   37*CastlevaniaSymphonyoftheNightDraculasCastle_mvl/mxv
 BYTE   W03
 BYTE   VOL   37*CastlevaniaSymphonyoftheNightDraculasCastle_mvl/mxv
 BYTE   W03
 BYTE   VOL   38*CastlevaniaSymphonyoftheNightDraculasCastle_mvl/mxv
 BYTE   W03
 BYTE   VOL   39*CastlevaniaSymphonyoftheNightDraculasCastle_mvl/mxv
 BYTE   W03
 BYTE   VOL   40*CastlevaniaSymphonyoftheNightDraculasCastle_mvl/mxv
 BYTE   W03
 BYTE   VOL   40*CastlevaniaSymphonyoftheNightDraculasCastle_mvl/mxv
 BYTE   W03
 BYTE   VOL   40*CastlevaniaSymphonyoftheNightDraculasCastle_mvl/mxv
 BYTE   W03
 BYTE   VOL   41*CastlevaniaSymphonyoftheNightDraculasCastle_mvl/mxv
 BYTE   W03
 BYTE   VOL   42*CastlevaniaSymphonyoftheNightDraculasCastle_mvl/mxv
 BYTE   W03
 BYTE   VOL   43*CastlevaniaSymphonyoftheNightDraculasCastle_mvl/mxv
 BYTE   W03
 BYTE   VOL   44*CastlevaniaSymphonyoftheNightDraculasCastle_mvl/mxv
 BYTE   W03
 BYTE   VOL   44*CastlevaniaSymphonyoftheNightDraculasCastle_mvl/mxv
 BYTE   W03
 BYTE   VOL   45*CastlevaniaSymphonyoftheNightDraculasCastle_mvl/mxv
 BYTE   W03
 BYTE   VOL   45*CastlevaniaSymphonyoftheNightDraculasCastle_mvl/mxv
 BYTE   W03
 BYTE   VOL   46*CastlevaniaSymphonyoftheNightDraculasCastle_mvl/mxv
 BYTE   W03
 BYTE   VOL   47*CastlevaniaSymphonyoftheNightDraculasCastle_mvl/mxv
 BYTE   W03
 BYTE   VOL   47*CastlevaniaSymphonyoftheNightDraculasCastle_mvl/mxv
 BYTE   W03
 BYTE   VOL   48*CastlevaniaSymphonyoftheNightDraculasCastle_mvl/mxv
 BYTE   W03
 BYTE   VOL   49*CastlevaniaSymphonyoftheNightDraculasCastle_mvl/mxv
 BYTE   W03
 BYTE   VOL   50*CastlevaniaSymphonyoftheNightDraculasCastle_mvl/mxv
 BYTE   W03
 BYTE   VOL   51*CastlevaniaSymphonyoftheNightDraculasCastle_mvl/mxv
 BYTE   W03
 BYTE   VOL   51*CastlevaniaSymphonyoftheNightDraculasCastle_mvl/mxv
 BYTE   W03
 BYTE   VOL   51*CastlevaniaSymphonyoftheNightDraculasCastle_mvl/mxv
 BYTE   W03
 BYTE   VOL   52*CastlevaniaSymphonyoftheNightDraculasCastle_mvl/mxv
 BYTE   W03
 BYTE   VOL   53*CastlevaniaSymphonyoftheNightDraculasCastle_mvl/mxv
 BYTE   W03
 BYTE   PEND 
//  #09 //037   ----------------------------------------
Label_014A538D:
 BYTE   VOL   54*CastlevaniaSymphonyoftheNightDraculasCastle_mvl/mxv
 BYTE   N15  Ds4  v036
 BYTE   W16
 BYTE   Fn4  v048
 BYTE   W16
 BYTE   Gn4  v060
 BYTE   W16
 BYTE   Fn4  v072
 BYTE   W16
 BYTE   Cn4  v060
 BYTE   W16
 BYTE   Fn4  v072
 BYTE   W16
 BYTE   PEND 
//  #09 //038   ----------------------------------------
Label_014A53A3:
 BYTE   VOL   54*CastlevaniaSymphonyoftheNightDraculasCastle_mvl/mxv
 BYTE   N92  Dn4  v060
 BYTE   W20
 BYTE   VOL   53*CastlevaniaSymphonyoftheNightDraculasCastle_mvl/mxv
 BYTE   W08
 BYTE   VOL   52*CastlevaniaSymphonyoftheNightDraculasCastle_mvl/mxv
 BYTE   W06
 BYTE   VOL   51*CastlevaniaSymphonyoftheNightDraculasCastle_mvl/mxv
 BYTE   W05
 BYTE   VOL   51*CastlevaniaSymphonyoftheNightDraculasCastle_mvl/mxv
 BYTE   W03
 BYTE   VOL   51*CastlevaniaSymphonyoftheNightDraculasCastle_mvl/mxv
 BYTE   W03
 BYTE   VOL   50*CastlevaniaSymphonyoftheNightDraculasCastle_mvl/mxv
 BYTE   W03
 BYTE   VOL   49*CastlevaniaSymphonyoftheNightDraculasCastle_mvl/mxv
 BYTE   W01
 BYTE   VOL   48*CastlevaniaSymphonyoftheNightDraculasCastle_mvl/mxv
 BYTE   W02
 BYTE   VOL   47*CastlevaniaSymphonyoftheNightDraculasCastle_mvl/mxv
 BYTE   W02
 BYTE   VOL   47*CastlevaniaSymphonyoftheNightDraculasCastle_mvl/mxv
 BYTE   W02
 BYTE   VOL   46*CastlevaniaSymphonyoftheNightDraculasCastle_mvl/mxv
 BYTE   W01
 BYTE   VOL   45*CastlevaniaSymphonyoftheNightDraculasCastle_mvl/mxv
 BYTE   W02
 BYTE   VOL   45*CastlevaniaSymphonyoftheNightDraculasCastle_mvl/mxv
 BYTE   W01
 BYTE   VOL   44*CastlevaniaSymphonyoftheNightDraculasCastle_mvl/mxv
 BYTE   W01
 BYTE   VOL   44*CastlevaniaSymphonyoftheNightDraculasCastle_mvl/mxv
 BYTE   W01
 BYTE   VOL   43*CastlevaniaSymphonyoftheNightDraculasCastle_mvl/mxv
 BYTE   W01
 BYTE   VOL   42*CastlevaniaSymphonyoftheNightDraculasCastle_mvl/mxv
 BYTE   W01
 BYTE   VOL   41*CastlevaniaSymphonyoftheNightDraculasCastle_mvl/mxv
 BYTE   W01
 BYTE   VOL   40*CastlevaniaSymphonyoftheNightDraculasCastle_mvl/mxv
 BYTE   W01
 BYTE   VOL   40*CastlevaniaSymphonyoftheNightDraculasCastle_mvl/mxv
 BYTE   W01
 BYTE   VOL   39*CastlevaniaSymphonyoftheNightDraculasCastle_mvl/mxv
 BYTE   W01
 BYTE   VOL   38*CastlevaniaSymphonyoftheNightDraculasCastle_mvl/mxv
 BYTE   W01
 BYTE   VOL   37*CastlevaniaSymphonyoftheNightDraculasCastle_mvl/mxv
 BYTE   W01
 BYTE   VOL   37*CastlevaniaSymphonyoftheNightDraculasCastle_mvl/mxv
 BYTE   W01
 BYTE   VOL   35*CastlevaniaSymphonyoftheNightDraculasCastle_mvl/mxv
 BYTE   W01
 BYTE   VOL   34*CastlevaniaSymphonyoftheNightDraculasCastle_mvl/mxv
 BYTE   W01
 BYTE   VOL   33*CastlevaniaSymphonyoftheNightDraculasCastle_mvl/mxv
 BYTE   W01
 BYTE   VOL   32*CastlevaniaSymphonyoftheNightDraculasCastle_mvl/mxv
 BYTE   W01
 BYTE   VOL   31*CastlevaniaSymphonyoftheNightDraculasCastle_mvl/mxv
 BYTE   W01
 BYTE   VOL   29*CastlevaniaSymphonyoftheNightDraculasCastle_mvl/mxv
 BYTE   W01
 BYTE   VOL   28*CastlevaniaSymphonyoftheNightDraculasCastle_mvl/mxv
 BYTE   W01
 BYTE   VOL   27*CastlevaniaSymphonyoftheNightDraculasCastle_mvl/mxv
 BYTE   W01
 BYTE   VOL   26*CastlevaniaSymphonyoftheNightDraculasCastle_mvl/mxv
 BYTE   W01
 BYTE   VOL   24*CastlevaniaSymphonyoftheNightDraculasCastle_mvl/mxv
 BYTE   W01
 BYTE   VOL   22*CastlevaniaSymphonyoftheNightDraculasCastle_mvl/mxv
 BYTE   W01
 BYTE   VOL   21*CastlevaniaSymphonyoftheNightDraculasCastle_mvl/mxv
 BYTE   W01
 BYTE   VOL   20*CastlevaniaSymphonyoftheNightDraculasCastle_mvl/mxv
 BYTE   W01
 BYTE   VOL   18*CastlevaniaSymphonyoftheNightDraculasCastle_mvl/mxv
 BYTE   W01
 BYTE   VOL   17*CastlevaniaSymphonyoftheNightDraculasCastle_mvl/mxv
 BYTE   W01
 BYTE   VOL   15*CastlevaniaSymphonyoftheNightDraculasCastle_mvl/mxv
 BYTE   W01
 BYTE   VOL   13*CastlevaniaSymphonyoftheNightDraculasCastle_mvl/mxv
 BYTE   W01
 BYTE   VOL   11*CastlevaniaSymphonyoftheNightDraculasCastle_mvl/mxv
 BYTE   W01
 BYTE   VOL   10*CastlevaniaSymphonyoftheNightDraculasCastle_mvl/mxv
 BYTE   W01
 BYTE   VOL   8*CastlevaniaSymphonyoftheNightDraculasCastle_mvl/mxv
 BYTE   W01
 BYTE   VOL   6*CastlevaniaSymphonyoftheNightDraculasCastle_mvl/mxv
 BYTE   W01
 BYTE   VOL   5*CastlevaniaSymphonyoftheNightDraculasCastle_mvl/mxv
 BYTE   W01
 BYTE   VOL   3*CastlevaniaSymphonyoftheNightDraculasCastle_mvl/mxv
 BYTE   W01
 BYTE   VOL   2*CastlevaniaSymphonyoftheNightDraculasCastle_mvl/mxv
 BYTE   W01
 BYTE   VOL   1*CastlevaniaSymphonyoftheNightDraculasCastle_mvl/mxv
 BYTE   W01
 BYTE   VOL   0*CastlevaniaSymphonyoftheNightDraculasCastle_mvl/mxv
 BYTE   W01
 BYTE   PEND 
//  #09 //039   ----------------------------------------
Label_014A540F:
 BYTE   VOL   54*CastlevaniaSymphonyoftheNightDraculasCastle_mvl/mxv
 BYTE   N15  Gn4  v048
 BYTE   W16
 BYTE   An4  v060
 BYTE   W16
 BYTE   As4  v072
 BYTE   W16
 BYTE   An4  v088
 BYTE   W16
 BYTE   Fn4  v072
 BYTE   W16
 BYTE   Dn4  v048
 BYTE   W16
 BYTE   PEND 
//  #09 //040   ----------------------------------------
Label_014A5425:
 BYTE   VOL   54*CastlevaniaSymphonyoftheNightDraculasCastle_mvl/mxv
 BYTE   N92  Gn4  v060
 BYTE   W20
 BYTE   VOL   53*CastlevaniaSymphonyoftheNightDraculasCastle_mvl/mxv
 BYTE   W08
 BYTE   VOL   52*CastlevaniaSymphonyoftheNightDraculasCastle_mvl/mxv
 BYTE   W06
 BYTE   VOL   51*CastlevaniaSymphonyoftheNightDraculasCastle_mvl/mxv
 BYTE   W05
 BYTE   VOL   51*CastlevaniaSymphonyoftheNightDraculasCastle_mvl/mxv
 BYTE   W03
 BYTE   VOL   51*CastlevaniaSymphonyoftheNightDraculasCastle_mvl/mxv
 BYTE   W03
 BYTE   VOL   50*CastlevaniaSymphonyoftheNightDraculasCastle_mvl/mxv
 BYTE   W03
 BYTE   VOL   49*CastlevaniaSymphonyoftheNightDraculasCastle_mvl/mxv
 BYTE   W01
 BYTE   VOL   48*CastlevaniaSymphonyoftheNightDraculasCastle_mvl/mxv
 BYTE   W02
 BYTE   VOL   47*CastlevaniaSymphonyoftheNightDraculasCastle_mvl/mxv
 BYTE   W02
 BYTE   VOL   47*CastlevaniaSymphonyoftheNightDraculasCastle_mvl/mxv
 BYTE   W02
 BYTE   VOL   46*CastlevaniaSymphonyoftheNightDraculasCastle_mvl/mxv
 BYTE   W01
 BYTE   VOL   45*CastlevaniaSymphonyoftheNightDraculasCastle_mvl/mxv
 BYTE   W02
 BYTE   VOL   45*CastlevaniaSymphonyoftheNightDraculasCastle_mvl/mxv
 BYTE   W01
 BYTE   VOL   44*CastlevaniaSymphonyoftheNightDraculasCastle_mvl/mxv
 BYTE   W01
 BYTE   VOL   44*CastlevaniaSymphonyoftheNightDraculasCastle_mvl/mxv
 BYTE   W01
 BYTE   VOL   43*CastlevaniaSymphonyoftheNightDraculasCastle_mvl/mxv
 BYTE   W01
 BYTE   VOL   42*CastlevaniaSymphonyoftheNightDraculasCastle_mvl/mxv
 BYTE   W01
 BYTE   VOL   41*CastlevaniaSymphonyoftheNightDraculasCastle_mvl/mxv
 BYTE   W01
 BYTE   VOL   40*CastlevaniaSymphonyoftheNightDraculasCastle_mvl/mxv
 BYTE   W01
 BYTE   VOL   40*CastlevaniaSymphonyoftheNightDraculasCastle_mvl/mxv
 BYTE   W01
 BYTE   VOL   39*CastlevaniaSymphonyoftheNightDraculasCastle_mvl/mxv
 BYTE   W01
 BYTE   VOL   38*CastlevaniaSymphonyoftheNightDraculasCastle_mvl/mxv
 BYTE   W01
 BYTE   VOL   37*CastlevaniaSymphonyoftheNightDraculasCastle_mvl/mxv
 BYTE   W01
 BYTE   VOL   37*CastlevaniaSymphonyoftheNightDraculasCastle_mvl/mxv
 BYTE   W01
 BYTE   VOL   35*CastlevaniaSymphonyoftheNightDraculasCastle_mvl/mxv
 BYTE   W01
 BYTE   VOL   34*CastlevaniaSymphonyoftheNightDraculasCastle_mvl/mxv
 BYTE   W01
 BYTE   VOL   33*CastlevaniaSymphonyoftheNightDraculasCastle_mvl/mxv
 BYTE   W01
 BYTE   VOL   32*CastlevaniaSymphonyoftheNightDraculasCastle_mvl/mxv
 BYTE   W01
 BYTE   VOL   31*CastlevaniaSymphonyoftheNightDraculasCastle_mvl/mxv
 BYTE   W01
 BYTE   VOL   29*CastlevaniaSymphonyoftheNightDraculasCastle_mvl/mxv
 BYTE   W01
 BYTE   VOL   28*CastlevaniaSymphonyoftheNightDraculasCastle_mvl/mxv
 BYTE   W01
 BYTE   VOL   27*CastlevaniaSymphonyoftheNightDraculasCastle_mvl/mxv
 BYTE   W01
 BYTE   VOL   26*CastlevaniaSymphonyoftheNightDraculasCastle_mvl/mxv
 BYTE   W01
 BYTE   VOL   24*CastlevaniaSymphonyoftheNightDraculasCastle_mvl/mxv
 BYTE   W01
 BYTE   VOL   22*CastlevaniaSymphonyoftheNightDraculasCastle_mvl/mxv
 BYTE   W01
 BYTE   VOL   21*CastlevaniaSymphonyoftheNightDraculasCastle_mvl/mxv
 BYTE   W01
 BYTE   VOL   20*CastlevaniaSymphonyoftheNightDraculasCastle_mvl/mxv
 BYTE   W01
 BYTE   VOL   18*CastlevaniaSymphonyoftheNightDraculasCastle_mvl/mxv
 BYTE   W01
 BYTE   VOL   17*CastlevaniaSymphonyoftheNightDraculasCastle_mvl/mxv
 BYTE   W01
 BYTE   VOL   15*CastlevaniaSymphonyoftheNightDraculasCastle_mvl/mxv
 BYTE   W01
 BYTE   VOL   13*CastlevaniaSymphonyoftheNightDraculasCastle_mvl/mxv
 BYTE   W01
 BYTE   VOL   11*CastlevaniaSymphonyoftheNightDraculasCastle_mvl/mxv
 BYTE   W01
 BYTE   VOL   10*CastlevaniaSymphonyoftheNightDraculasCastle_mvl/mxv
 BYTE   W01
 BYTE   VOL   8*CastlevaniaSymphonyoftheNightDraculasCastle_mvl/mxv
 BYTE   W01
 BYTE   VOL   6*CastlevaniaSymphonyoftheNightDraculasCastle_mvl/mxv
 BYTE   W01
 BYTE   VOL   5*CastlevaniaSymphonyoftheNightDraculasCastle_mvl/mxv
 BYTE   W01
 BYTE   VOL   3*CastlevaniaSymphonyoftheNightDraculasCastle_mvl/mxv
 BYTE   W01
 BYTE   VOL   2*CastlevaniaSymphonyoftheNightDraculasCastle_mvl/mxv
 BYTE   W01
 BYTE   VOL   1*CastlevaniaSymphonyoftheNightDraculasCastle_mvl/mxv
 BYTE   W01
 BYTE   VOL   0*CastlevaniaSymphonyoftheNightDraculasCastle_mvl/mxv
 BYTE   W01
 BYTE   PEND 
//  #09 //041   ----------------------------------------
Label_014A5491:
 BYTE   VOL   54*CastlevaniaSymphonyoftheNightDraculasCastle_mvl/mxv
 BYTE   N15  As4  v048
 BYTE   W16
 BYTE   Cn5  v060
 BYTE   W16
 BYTE   N12  Cs5  v072
 BYTE   W16
 BYTE   N15  Cn5  v060
 BYTE   W16
 BYTE   Gs4  v048
 BYTE   W16
 BYTE   N12  Fn4  v036
 BYTE   W16
 BYTE   PEND 
//  #09 //042   ----------------------------------------
Label_014A54AA:
 BYTE   N15  As4  v048
 BYTE   W16
 BYTE   Cn5  v060
 BYTE   W16
 BYTE   N12  Cs5  v072
 BYTE   W16
 BYTE   N15  Fn5  v088
 BYTE   W16
 BYTE   Ds5  v072
 BYTE   W16
 BYTE   N12  Cn5  v060
 BYTE   W16
 BYTE   PEND 
//  #09 //043   ----------------------------------------
Label_014A54C1:
 BYTE   VOL   37*CastlevaniaSymphonyoftheNightDraculasCastle_mvl/mxv
 BYTE   N30  Cs5  v088
 BYTE   W02
 BYTE   VOL   38*CastlevaniaSymphonyoftheNightDraculasCastle_mvl/mxv
 BYTE   W01
 BYTE   VOL   39*CastlevaniaSymphonyoftheNightDraculasCastle_mvl/mxv
 BYTE   W02
 BYTE   VOL   40*CastlevaniaSymphonyoftheNightDraculasCastle_mvl/mxv
 BYTE   W01
 BYTE   VOL   40*CastlevaniaSymphonyoftheNightDraculasCastle_mvl/mxv
 BYTE   W02
 BYTE   VOL   40*CastlevaniaSymphonyoftheNightDraculasCastle_mvl/mxv
 BYTE   W01
 BYTE   VOL   41*CastlevaniaSymphonyoftheNightDraculasCastle_mvl/mxv
 BYTE   W02
 BYTE   VOL   42*CastlevaniaSymphonyoftheNightDraculasCastle_mvl/mxv
 BYTE   W01
 BYTE   VOL   43*CastlevaniaSymphonyoftheNightDraculasCastle_mvl/mxv
 BYTE   W02
 BYTE   VOL   44*CastlevaniaSymphonyoftheNightDraculasCastle_mvl/mxv
 BYTE   W01
 BYTE   VOL   44*CastlevaniaSymphonyoftheNightDraculasCastle_mvl/mxv
 BYTE   W02
 BYTE   VOL   45*CastlevaniaSymphonyoftheNightDraculasCastle_mvl/mxv
 BYTE   W01
 BYTE   VOL   45*CastlevaniaSymphonyoftheNightDraculasCastle_mvl/mxv
 BYTE   W02
 BYTE   VOL   46*CastlevaniaSymphonyoftheNightDraculasCastle_mvl/mxv
 BYTE   W01
 BYTE   VOL   47*CastlevaniaSymphonyoftheNightDraculasCastle_mvl/mxv
 BYTE   W02
 BYTE   VOL   47*CastlevaniaSymphonyoftheNightDraculasCastle_mvl/mxv
 BYTE   W01
 BYTE   VOL   48*CastlevaniaSymphonyoftheNightDraculasCastle_mvl/mxv
 BYTE   W02
 BYTE   VOL   49*CastlevaniaSymphonyoftheNightDraculasCastle_mvl/mxv
 BYTE   W01
 BYTE   VOL   50*CastlevaniaSymphonyoftheNightDraculasCastle_mvl/mxv
 BYTE   W02
 BYTE   VOL   51*CastlevaniaSymphonyoftheNightDraculasCastle_mvl/mxv
 BYTE   W01
 BYTE   VOL   51*CastlevaniaSymphonyoftheNightDraculasCastle_mvl/mxv
 BYTE   W02
 BYTE   VOL   51*CastlevaniaSymphonyoftheNightDraculasCastle_mvl/mxv
 BYTE   W01
 BYTE   VOL   52*CastlevaniaSymphonyoftheNightDraculasCastle_mvl/mxv
 BYTE   W02
 BYTE   VOL   53*CastlevaniaSymphonyoftheNightDraculasCastle_mvl/mxv
 BYTE   W01
 BYTE   VOL   54*CastlevaniaSymphonyoftheNightDraculasCastle_mvl/mxv
 BYTE   N05  As4  v060
 BYTE   W06
 BYTE   Cn5  v072
 BYTE   W06
 BYTE   VOL   54*CastlevaniaSymphonyoftheNightDraculasCastle_mvl/mxv
 BYTE   N44  Cs5  v088
 BYTE   W10
 BYTE   VOL   53*CastlevaniaSymphonyoftheNightDraculasCastle_mvl/mxv
 BYTE   W04
 BYTE   VOL   52*CastlevaniaSymphonyoftheNightDraculasCastle_mvl/mxv
 BYTE   W03
 BYTE   VOL   51*CastlevaniaSymphonyoftheNightDraculasCastle_mvl/mxv
 BYTE   W02
 BYTE   VOL   51*CastlevaniaSymphonyoftheNightDraculasCastle_mvl/mxv
 BYTE   W02
 BYTE   VOL   51*CastlevaniaSymphonyoftheNightDraculasCastle_mvl/mxv
 BYTE   W02
 BYTE   VOL   50*CastlevaniaSymphonyoftheNightDraculasCastle_mvl/mxv
 BYTE   W01
 BYTE   VOL   49*CastlevaniaSymphonyoftheNightDraculasCastle_mvl/mxv
 BYTE   W01
 BYTE   VOL   48*CastlevaniaSymphonyoftheNightDraculasCastle_mvl/mxv
 BYTE   W01
 BYTE   VOL   47*CastlevaniaSymphonyoftheNightDraculasCastle_mvl/mxv
 BYTE   W01
 BYTE   VOL   46*CastlevaniaSymphonyoftheNightDraculasCastle_mvl/mxv
 BYTE   W01
 BYTE   VOL   45*CastlevaniaSymphonyoftheNightDraculasCastle_mvl/mxv
 BYTE   W01
 BYTE   VOL   44*CastlevaniaSymphonyoftheNightDraculasCastle_mvl/mxv
 BYTE   W01
 BYTE   VOL   44*CastlevaniaSymphonyoftheNightDraculasCastle_mvl/mxv
 BYTE   W01
 BYTE   VOL   41*CastlevaniaSymphonyoftheNightDraculasCastle_mvl/mxv
 BYTE   W01
 BYTE   VOL   40*CastlevaniaSymphonyoftheNightDraculasCastle_mvl/mxv
 BYTE   W01
 BYTE   VOL   39*CastlevaniaSymphonyoftheNightDraculasCastle_mvl/mxv
 BYTE   W01
 BYTE   VOL   37*CastlevaniaSymphonyoftheNightDraculasCastle_mvl/mxv
 BYTE   W01
 BYTE   VOL   35*CastlevaniaSymphonyoftheNightDraculasCastle_mvl/mxv
 BYTE   W01
 BYTE   VOL   33*CastlevaniaSymphonyoftheNightDraculasCastle_mvl/mxv
 BYTE   W01
 BYTE   VOL   30*CastlevaniaSymphonyoftheNightDraculasCastle_mvl/mxv
 BYTE   W01
 BYTE   VOL   28*CastlevaniaSymphonyoftheNightDraculasCastle_mvl/mxv
 BYTE   W01
 BYTE   VOL   25*CastlevaniaSymphonyoftheNightDraculasCastle_mvl/mxv
 BYTE   W01
 BYTE   VOL   22*CastlevaniaSymphonyoftheNightDraculasCastle_mvl/mxv
 BYTE   W01
 BYTE   VOL   19*CastlevaniaSymphonyoftheNightDraculasCastle_mvl/mxv
 BYTE   W01
 BYTE   VOL   16*CastlevaniaSymphonyoftheNightDraculasCastle_mvl/mxv
 BYTE   W01
 BYTE   VOL   12*CastlevaniaSymphonyoftheNightDraculasCastle_mvl/mxv
 BYTE   W01
 BYTE   VOL   8*CastlevaniaSymphonyoftheNightDraculasCastle_mvl/mxv
 BYTE   W01
 BYTE   VOL   6*CastlevaniaSymphonyoftheNightDraculasCastle_mvl/mxv
 BYTE   W01
 BYTE   VOL   3*CastlevaniaSymphonyoftheNightDraculasCastle_mvl/mxv
 BYTE   W01
 BYTE   VOL   0*CastlevaniaSymphonyoftheNightDraculasCastle_mvl/mxv
 BYTE   W01
 BYTE   PEND 
//  #09 //044   ----------------------------------------
Label_014A5542:
 BYTE   VOL   37*CastlevaniaSymphonyoftheNightDraculasCastle_mvl/mxv
 BYTE   N30  Ds5  v088
 BYTE   W02
 BYTE   VOL   38*CastlevaniaSymphonyoftheNightDraculasCastle_mvl/mxv
 BYTE   W01
 BYTE   VOL   39*CastlevaniaSymphonyoftheNightDraculasCastle_mvl/mxv
 BYTE   W02
 BYTE   VOL   40*CastlevaniaSymphonyoftheNightDraculasCastle_mvl/mxv
 BYTE   W01
 BYTE   VOL   40*CastlevaniaSymphonyoftheNightDraculasCastle_mvl/mxv
 BYTE   W02
 BYTE   VOL   40*CastlevaniaSymphonyoftheNightDraculasCastle_mvl/mxv
 BYTE   W01
 BYTE   VOL   41*CastlevaniaSymphonyoftheNightDraculasCastle_mvl/mxv
 BYTE   W02
 BYTE   VOL   42*CastlevaniaSymphonyoftheNightDraculasCastle_mvl/mxv
 BYTE   W01
 BYTE   VOL   43*CastlevaniaSymphonyoftheNightDraculasCastle_mvl/mxv
 BYTE   W02
 BYTE   VOL   44*CastlevaniaSymphonyoftheNightDraculasCastle_mvl/mxv
 BYTE   W01
 BYTE   VOL   44*CastlevaniaSymphonyoftheNightDraculasCastle_mvl/mxv
 BYTE   W02
 BYTE   VOL   45*CastlevaniaSymphonyoftheNightDraculasCastle_mvl/mxv
 BYTE   W01
 BYTE   VOL   45*CastlevaniaSymphonyoftheNightDraculasCastle_mvl/mxv
 BYTE   W02
 BYTE   VOL   46*CastlevaniaSymphonyoftheNightDraculasCastle_mvl/mxv
 BYTE   W01
 BYTE   VOL   47*CastlevaniaSymphonyoftheNightDraculasCastle_mvl/mxv
 BYTE   W02
 BYTE   VOL   47*CastlevaniaSymphonyoftheNightDraculasCastle_mvl/mxv
 BYTE   W01
 BYTE   VOL   48*CastlevaniaSymphonyoftheNightDraculasCastle_mvl/mxv
 BYTE   W02
 BYTE   VOL   49*CastlevaniaSymphonyoftheNightDraculasCastle_mvl/mxv
 BYTE   W01
 BYTE   VOL   50*CastlevaniaSymphonyoftheNightDraculasCastle_mvl/mxv
 BYTE   W02
 BYTE   VOL   51*CastlevaniaSymphonyoftheNightDraculasCastle_mvl/mxv
 BYTE   W01
 BYTE   VOL   51*CastlevaniaSymphonyoftheNightDraculasCastle_mvl/mxv
 BYTE   W02
 BYTE   VOL   51*CastlevaniaSymphonyoftheNightDraculasCastle_mvl/mxv
 BYTE   W01
 BYTE   VOL   52*CastlevaniaSymphonyoftheNightDraculasCastle_mvl/mxv
 BYTE   W02
 BYTE   VOL   53*CastlevaniaSymphonyoftheNightDraculasCastle_mvl/mxv
 BYTE   W01
 BYTE   VOL   54*CastlevaniaSymphonyoftheNightDraculasCastle_mvl/mxv
 BYTE   N05  Cn5  v060
 BYTE   W06
 BYTE   Cs5  v072
 BYTE   W06
 BYTE   VOL   54*CastlevaniaSymphonyoftheNightDraculasCastle_mvl/mxv
 BYTE   N44  Ds5  v088
 BYTE   W10
 BYTE   VOL   53*CastlevaniaSymphonyoftheNightDraculasCastle_mvl/mxv
 BYTE   W04
 BYTE   VOL   52*CastlevaniaSymphonyoftheNightDraculasCastle_mvl/mxv
 BYTE   W03
 BYTE   VOL   51*CastlevaniaSymphonyoftheNightDraculasCastle_mvl/mxv
 BYTE   W02
 BYTE   VOL   51*CastlevaniaSymphonyoftheNightDraculasCastle_mvl/mxv
 BYTE   W02
 BYTE   VOL   51*CastlevaniaSymphonyoftheNightDraculasCastle_mvl/mxv
 BYTE   W02
 BYTE   VOL   50*CastlevaniaSymphonyoftheNightDraculasCastle_mvl/mxv
 BYTE   W01
 BYTE   VOL   49*CastlevaniaSymphonyoftheNightDraculasCastle_mvl/mxv
 BYTE   W01
 BYTE   VOL   48*CastlevaniaSymphonyoftheNightDraculasCastle_mvl/mxv
 BYTE   W01
 BYTE   VOL   47*CastlevaniaSymphonyoftheNightDraculasCastle_mvl/mxv
 BYTE   W01
 BYTE   VOL   46*CastlevaniaSymphonyoftheNightDraculasCastle_mvl/mxv
 BYTE   W01
 BYTE   VOL   45*CastlevaniaSymphonyoftheNightDraculasCastle_mvl/mxv
 BYTE   W01
 BYTE   VOL   44*CastlevaniaSymphonyoftheNightDraculasCastle_mvl/mxv
 BYTE   W01
 BYTE   VOL   44*CastlevaniaSymphonyoftheNightDraculasCastle_mvl/mxv
 BYTE   W01
 BYTE   VOL   41*CastlevaniaSymphonyoftheNightDraculasCastle_mvl/mxv
 BYTE   W01
 BYTE   VOL   40*CastlevaniaSymphonyoftheNightDraculasCastle_mvl/mxv
 BYTE   W01
 BYTE   VOL   39*CastlevaniaSymphonyoftheNightDraculasCastle_mvl/mxv
 BYTE   W01
 BYTE   VOL   37*CastlevaniaSymphonyoftheNightDraculasCastle_mvl/mxv
 BYTE   W01
 BYTE   VOL   35*CastlevaniaSymphonyoftheNightDraculasCastle_mvl/mxv
 BYTE   W01
 BYTE   VOL   33*CastlevaniaSymphonyoftheNightDraculasCastle_mvl/mxv
 BYTE   W01
 BYTE   VOL   30*CastlevaniaSymphonyoftheNightDraculasCastle_mvl/mxv
 BYTE   W01
 BYTE   VOL   28*CastlevaniaSymphonyoftheNightDraculasCastle_mvl/mxv
 BYTE   W01
 BYTE   VOL   25*CastlevaniaSymphonyoftheNightDraculasCastle_mvl/mxv
 BYTE   W01
 BYTE   VOL   22*CastlevaniaSymphonyoftheNightDraculasCastle_mvl/mxv
 BYTE   W01
 BYTE   VOL   19*CastlevaniaSymphonyoftheNightDraculasCastle_mvl/mxv
 BYTE   W01
 BYTE   VOL   16*CastlevaniaSymphonyoftheNightDraculasCastle_mvl/mxv
 BYTE   W01
 BYTE   VOL   12*CastlevaniaSymphonyoftheNightDraculasCastle_mvl/mxv
 BYTE   W01
 BYTE   VOL   8*CastlevaniaSymphonyoftheNightDraculasCastle_mvl/mxv
 BYTE   W01
 BYTE   VOL   6*CastlevaniaSymphonyoftheNightDraculasCastle_mvl/mxv
 BYTE   W01
 BYTE   VOL   3*CastlevaniaSymphonyoftheNightDraculasCastle_mvl/mxv
 BYTE   W01
 BYTE   VOL   0*CastlevaniaSymphonyoftheNightDraculasCastle_mvl/mxv
 BYTE   W01
 BYTE   PEND 
//  #09 //045   ----------------------------------------
Label_014A55C3:
 BYTE   VOL   33*CastlevaniaSymphonyoftheNightDraculasCastle_mvl/mxv
 BYTE   TIE  Fn5  v072
 BYTE   W03
 BYTE   VOL   34*CastlevaniaSymphonyoftheNightDraculasCastle_mvl/mxv
 BYTE   W03
 BYTE   VOL   34*CastlevaniaSymphonyoftheNightDraculasCastle_mvl/mxv
 BYTE   W03
 BYTE   VOL   34*CastlevaniaSymphonyoftheNightDraculasCastle_mvl/mxv
 BYTE   W03
 BYTE   VOL   35*CastlevaniaSymphonyoftheNightDraculasCastle_mvl/mxv
 BYTE   W03
 BYTE   VOL   36*CastlevaniaSymphonyoftheNightDraculasCastle_mvl/mxv
 BYTE   W03
 BYTE   VOL   37*CastlevaniaSymphonyoftheNightDraculasCastle_mvl/mxv
 BYTE   W03
 BYTE   VOL   37*CastlevaniaSymphonyoftheNightDraculasCastle_mvl/mxv
 BYTE   W03
 BYTE   VOL   37*CastlevaniaSymphonyoftheNightDraculasCastle_mvl/mxv
 BYTE   W03
 BYTE   VOL   38*CastlevaniaSymphonyoftheNightDraculasCastle_mvl/mxv
 BYTE   W03
 BYTE   VOL   39*CastlevaniaSymphonyoftheNightDraculasCastle_mvl/mxv
 BYTE   W03
 BYTE   VOL   40*CastlevaniaSymphonyoftheNightDraculasCastle_mvl/mxv
 BYTE   W03
 BYTE   VOL   40*CastlevaniaSymphonyoftheNightDraculasCastle_mvl/mxv
 BYTE   W03
 BYTE   VOL   40*CastlevaniaSymphonyoftheNightDraculasCastle_mvl/mxv
 BYTE   W03
 BYTE   VOL   41*CastlevaniaSymphonyoftheNightDraculasCastle_mvl/mxv
 BYTE   W03
 BYTE   VOL   42*CastlevaniaSymphonyoftheNightDraculasCastle_mvl/mxv
 BYTE   W03
 BYTE   VOL   43*CastlevaniaSymphonyoftheNightDraculasCastle_mvl/mxv
 BYTE   W03
 BYTE   VOL   44*CastlevaniaSymphonyoftheNightDraculasCastle_mvl/mxv
 BYTE   W03
 BYTE   VOL   44*CastlevaniaSymphonyoftheNightDraculasCastle_mvl/mxv
 BYTE   W03
 BYTE   VOL   45*CastlevaniaSymphonyoftheNightDraculasCastle_mvl/mxv
 BYTE   W03
 BYTE   VOL   45*CastlevaniaSymphonyoftheNightDraculasCastle_mvl/mxv
 BYTE   W03
 BYTE   VOL   46*CastlevaniaSymphonyoftheNightDraculasCastle_mvl/mxv
 BYTE   W03
 BYTE   VOL   47*CastlevaniaSymphonyoftheNightDraculasCastle_mvl/mxv
 BYTE   W03
 BYTE   VOL   47*CastlevaniaSymphonyoftheNightDraculasCastle_mvl/mxv
 BYTE   W03
 BYTE   VOL   48*CastlevaniaSymphonyoftheNightDraculasCastle_mvl/mxv
 BYTE   W03
 BYTE   VOL   49*CastlevaniaSymphonyoftheNightDraculasCastle_mvl/mxv
 BYTE   W03
 BYTE   VOL   50*CastlevaniaSymphonyoftheNightDraculasCastle_mvl/mxv
 BYTE   W03
 BYTE   VOL   51*CastlevaniaSymphonyoftheNightDraculasCastle_mvl/mxv
 BYTE   W03
 BYTE   VOL   51*CastlevaniaSymphonyoftheNightDraculasCastle_mvl/mxv
 BYTE   W03
 BYTE   VOL   51*CastlevaniaSymphonyoftheNightDraculasCastle_mvl/mxv
 BYTE   W03
 BYTE   VOL   52*CastlevaniaSymphonyoftheNightDraculasCastle_mvl/mxv
 BYTE   W03
 BYTE   VOL   53*CastlevaniaSymphonyoftheNightDraculasCastle_mvl/mxv
 BYTE   W03
 BYTE   PEND 
//  #09 //046   ----------------------------------------
Label_014A5609:
 BYTE   VOL   54*CastlevaniaSymphonyoftheNightDraculasCastle_mvl/mxv
 BYTE   W20
 BYTE   VOL   53*CastlevaniaSymphonyoftheNightDraculasCastle_mvl/mxv
 BYTE   W08
 BYTE   VOL   52*CastlevaniaSymphonyoftheNightDraculasCastle_mvl/mxv
 BYTE   W06
 BYTE   VOL   51*CastlevaniaSymphonyoftheNightDraculasCastle_mvl/mxv
 BYTE   W05
 BYTE   VOL   51*CastlevaniaSymphonyoftheNightDraculasCastle_mvl/mxv
 BYTE   W03
 BYTE   VOL   51*CastlevaniaSymphonyoftheNightDraculasCastle_mvl/mxv
 BYTE   W03
 BYTE   VOL   50*CastlevaniaSymphonyoftheNightDraculasCastle_mvl/mxv
 BYTE   W03
 BYTE   VOL   49*CastlevaniaSymphonyoftheNightDraculasCastle_mvl/mxv
 BYTE   W01
 BYTE   VOL   48*CastlevaniaSymphonyoftheNightDraculasCastle_mvl/mxv
 BYTE   W02
 BYTE   VOL   47*CastlevaniaSymphonyoftheNightDraculasCastle_mvl/mxv
 BYTE   W02
 BYTE   VOL   47*CastlevaniaSymphonyoftheNightDraculasCastle_mvl/mxv
 BYTE   W02
 BYTE   VOL   46*CastlevaniaSymphonyoftheNightDraculasCastle_mvl/mxv
 BYTE   W01
 BYTE   VOL   45*CastlevaniaSymphonyoftheNightDraculasCastle_mvl/mxv
 BYTE   W02
 BYTE   VOL   45*CastlevaniaSymphonyoftheNightDraculasCastle_mvl/mxv
 BYTE   W01
 BYTE   VOL   44*CastlevaniaSymphonyoftheNightDraculasCastle_mvl/mxv
 BYTE   W01
 BYTE   VOL   44*CastlevaniaSymphonyoftheNightDraculasCastle_mvl/mxv
 BYTE   W01
 BYTE   VOL   43*CastlevaniaSymphonyoftheNightDraculasCastle_mvl/mxv
 BYTE   W01
 BYTE   VOL   42*CastlevaniaSymphonyoftheNightDraculasCastle_mvl/mxv
 BYTE   W01
 BYTE   VOL   41*CastlevaniaSymphonyoftheNightDraculasCastle_mvl/mxv
 BYTE   W01
 BYTE   VOL   40*CastlevaniaSymphonyoftheNightDraculasCastle_mvl/mxv
 BYTE   W01
 BYTE   VOL   40*CastlevaniaSymphonyoftheNightDraculasCastle_mvl/mxv
 BYTE   W01
 BYTE   VOL   39*CastlevaniaSymphonyoftheNightDraculasCastle_mvl/mxv
 BYTE   W01
 BYTE   VOL   38*CastlevaniaSymphonyoftheNightDraculasCastle_mvl/mxv
 BYTE   W01
 BYTE   VOL   37*CastlevaniaSymphonyoftheNightDraculasCastle_mvl/mxv
 BYTE   W01
 BYTE   VOL   37*CastlevaniaSymphonyoftheNightDraculasCastle_mvl/mxv
 BYTE   W01
 BYTE   VOL   35*CastlevaniaSymphonyoftheNightDraculasCastle_mvl/mxv
 BYTE   W01
 BYTE   VOL   34*CastlevaniaSymphonyoftheNightDraculasCastle_mvl/mxv
 BYTE   W01
 BYTE   VOL   33*CastlevaniaSymphonyoftheNightDraculasCastle_mvl/mxv
 BYTE   W01
 BYTE   VOL   32*CastlevaniaSymphonyoftheNightDraculasCastle_mvl/mxv
 BYTE   W01
 BYTE   VOL   31*CastlevaniaSymphonyoftheNightDraculasCastle_mvl/mxv
 BYTE   W01
 BYTE   VOL   29*CastlevaniaSymphonyoftheNightDraculasCastle_mvl/mxv
 BYTE   W01
 BYTE   VOL   28*CastlevaniaSymphonyoftheNightDraculasCastle_mvl/mxv
 BYTE   W01
 BYTE   VOL   27*CastlevaniaSymphonyoftheNightDraculasCastle_mvl/mxv
 BYTE   W01
 BYTE   VOL   26*CastlevaniaSymphonyoftheNightDraculasCastle_mvl/mxv
 BYTE   W01
 BYTE   VOL   24*CastlevaniaSymphonyoftheNightDraculasCastle_mvl/mxv
 BYTE   W01
 BYTE   VOL   22*CastlevaniaSymphonyoftheNightDraculasCastle_mvl/mxv
 BYTE   W01
 BYTE   VOL   21*CastlevaniaSymphonyoftheNightDraculasCastle_mvl/mxv
 BYTE   W01
 BYTE   VOL   20*CastlevaniaSymphonyoftheNightDraculasCastle_mvl/mxv
 BYTE   W01
 BYTE   VOL   18*CastlevaniaSymphonyoftheNightDraculasCastle_mvl/mxv
 BYTE   W01
 BYTE   VOL   17*CastlevaniaSymphonyoftheNightDraculasCastle_mvl/mxv
 BYTE   W01
 BYTE   VOL   15*CastlevaniaSymphonyoftheNightDraculasCastle_mvl/mxv
 BYTE   W01
 BYTE   VOL   13*CastlevaniaSymphonyoftheNightDraculasCastle_mvl/mxv
 BYTE   W01
 BYTE   VOL   11*CastlevaniaSymphonyoftheNightDraculasCastle_mvl/mxv
 BYTE   W01
 BYTE   VOL   10*CastlevaniaSymphonyoftheNightDraculasCastle_mvl/mxv
 BYTE   W01
 BYTE   VOL   8*CastlevaniaSymphonyoftheNightDraculasCastle_mvl/mxv
 BYTE   W01
 BYTE   VOL   6*CastlevaniaSymphonyoftheNightDraculasCastle_mvl/mxv
 BYTE   W01
 BYTE   VOL   5*CastlevaniaSymphonyoftheNightDraculasCastle_mvl/mxv
 BYTE   W01
 BYTE   VOL   3*CastlevaniaSymphonyoftheNightDraculasCastle_mvl/mxv
 BYTE   W01
 BYTE   VOL   2*CastlevaniaSymphonyoftheNightDraculasCastle_mvl/mxv
 BYTE   W01
 BYTE   VOL   1*CastlevaniaSymphonyoftheNightDraculasCastle_mvl/mxv
 BYTE   W01
 BYTE   PEND 
 BYTE   EOT
 BYTE   Fn5
 BYTE   VOL   0*CastlevaniaSymphonyoftheNightDraculasCastle_mvl/mxv
 BYTE   W01
//  #09 //047   ----------------------------------------
 BYTE   VOL   0*CastlevaniaSymphonyoftheNightDraculasCastle_mvl/mxv
 BYTE   W96
//  #09 //048   ----------------------------------------
 BYTE   W96
//  #09 //049   ----------------------------------------
 BYTE   W96
//  #09 //050   ----------------------------------------
 BYTE   W96
//  #09 //051   ----------------------------------------
 BYTE   W96
//  #09 //052   ----------------------------------------
 BYTE   W96
//  #09 //053   ----------------------------------------
 BYTE   W96
//  #09 //054   ----------------------------------------
 BYTE   W96
//  #09 //055   ----------------------------------------
 BYTE   W96
//  #09 //056   ----------------------------------------
 BYTE   W96
//  #09 //057   ----------------------------------------
 BYTE   W96
//  #09 //058   ----------------------------------------
 BYTE   W96
//  #09 //059   ----------------------------------------
 BYTE   GoTo
  POIN2 Label_014A4EDC
//  #09 //060   ----------------------------------------
 BYTE   PATT
  POIN2 Label_014A4EDC
//  #09 //061   ----------------------------------------
 BYTE   PATT
  POIN2 Label_014A4F2E
//  #09 //062   ----------------------------------------
 BYTE   PATT
  POIN2 Label_014A4F87
//  #09 //063   ----------------------------------------
 BYTE   PATT
  POIN2 Label_014A4F9B
//  #09 //064   ----------------------------------------
 BYTE   PATT
  POIN2 Label_014A4EDC
//  #09 //065   ----------------------------------------
 BYTE   PATT
  POIN2 Label_014A4F2E
//  #09 //066   ----------------------------------------
 BYTE   PATT
  POIN2 Label_014A4F87
//  #09 //067   ----------------------------------------
 BYTE   PATT
  POIN2 Label_014A4F9B
//  #09 //068   ----------------------------------------
 BYTE   PATT
  POIN2 Label_014A503F
//  #09 //069   ----------------------------------------
 BYTE   PATT
  POIN2 Label_014A5098
//  #09 //070   ----------------------------------------
 BYTE   PATT
  POIN2 Label_014A50ED
//  #09 //071   ----------------------------------------
 BYTE   PATT
  POIN2 Label_014A5104
//  #09 //072   ----------------------------------------
 BYTE   PATT
  POIN2 Label_014A518E
//  #09 //073   ----------------------------------------
 BYTE   PATT
  POIN2 Label_014A51A7
//  #09 //074   ----------------------------------------
 BYTE   PATT
  POIN2 Label_014A51F6
//  #09 //075   ----------------------------------------
 BYTE   PATT
  POIN2 Label_014A520D
//  #09 //076   ----------------------------------------
 BYTE   PATT
  POIN2 Label_014A525A
//  #09 //077   ----------------------------------------
 BYTE   PATT
  POIN2 Label_014A52E6
//  #09 //078   ----------------------------------------
 BYTE   PATT
  POIN2 Label_014A52FF
//  #09 //079   ----------------------------------------
 BYTE   PATT
  POIN2 Label_014A5313
//  #09 //080   ----------------------------------------
 BYTE   PATT
  POIN2 Label_014A532A
//  #09 //081   ----------------------------------------
 BYTE   PATT
  POIN2 Label_014A52E6
//  #09 //082   ----------------------------------------
 BYTE   PATT
  POIN2 Label_014A52FF
//  #09 //083   ----------------------------------------
 BYTE   PATT
  POIN2 Label_014A5313
//  #09 //084   ----------------------------------------
 BYTE   PATT
  POIN2 Label_014A5347
//  #09 //085   ----------------------------------------
 BYTE   PATT
  POIN2 Label_014A538D
//  #09 //086   ----------------------------------------
 BYTE   PATT
  POIN2 Label_014A53A3
//  #09 //087   ----------------------------------------
 BYTE   PATT
  POIN2 Label_014A540F
//  #09 //088   ----------------------------------------
 BYTE   PATT
  POIN2 Label_014A5425
//  #09 //089   ----------------------------------------
 BYTE   PATT
  POIN2 Label_014A5491
//  #09 //090   ----------------------------------------
 BYTE   PATT
  POIN2 Label_014A54AA
//  #09 //091   ----------------------------------------
 BYTE   PATT
  POIN2 Label_014A54C1
//  #09 //092   ----------------------------------------
 BYTE   PATT
  POIN2 Label_014A5542
//  #09 //093   ----------------------------------------
 BYTE   PATT
  POIN2 Label_014A55C3
//  #09 //094   ----------------------------------------
 BYTE   PATT
  POIN2 Label_014A5609
//  #09 //095   ----------------------------------------
 BYTE   EOT
 BYTE   Fn5
 BYTE   VOL   0*CastlevaniaSymphonyoftheNightDraculasCastle_mvl/mxv
 BYTE   W01
 BYTE   VOL   0*CastlevaniaSymphonyoftheNightDraculasCastle_mvl/mxv
 BYTE   W96
//  #09 //096   ----------------------------------------
 BYTE   W96
//  #09 //097   ----------------------------------------
 BYTE   W96
//  #09 //098   ----------------------------------------
 BYTE   W96
//  #09 //099   ----------------------------------------
 BYTE   W96
//  #09 //100   ----------------------------------------
 BYTE   W96
//  #09 //101   ----------------------------------------
 BYTE   W96
//  #09 //102   ----------------------------------------
 BYTE   W96
//  #09 //103   ----------------------------------------
 BYTE   W96
//  #09 //104   ----------------------------------------
 BYTE   W96
//  #09 //105   ----------------------------------------
 BYTE   W96
//  #09 //106   ----------------------------------------
 BYTE   W09
 BYTE   FINE

//**************** Track 10 (Midi-Chn.9) ****************//

CastlevaniaSymphonyoftheNightDraculasCastle_010:
//  #10 //000   ----------------------------------------
 BYTE   KEYSH   CastlevaniaSymphonyoftheNightDraculasCastle_key+0
 BYTE   VOICE   127
 BYTE   MODT 0
 BYTE   LFOS 44
 BYTE   VOL   0*CastlevaniaSymphonyoftheNightDraculasCastle_mvl/mxv
 BYTE   VOL   0*CastlevaniaSymphonyoftheNightDraculasCastle_mvl/mxv
 BYTE   PAN   c_v+20
 BYTE   MOD 0
 BYTE   W96
//  #10 //001   ----------------------------------------
 BYTE   W96
//  #10 //002   ----------------------------------------
 BYTE   W96
//  #10 //003   ----------------------------------------
 BYTE   W96
//  #10 //004   ----------------------------------------
 BYTE   W96
//  #10 //005   ----------------------------------------
 BYTE   W96
//  #10 //006   ----------------------------------------
 BYTE   W96
//  #10 //007   ----------------------------------------
 BYTE   W96
//  #10 //008   ----------------------------------------
 BYTE   W96
//  #10 //009   ----------------------------------------
 BYTE   W96
//  #10 //010   ----------------------------------------
 BYTE   W23
 BYTE   N11  Dn3  v036
 BYTE   W72
 BYTE   W01
//  #10 //011   ----------------------------------------
 BYTE   W80
 BYTE   W03
 BYTE   Dn3  v048
 BYTE   W13
//  #10 //012   ----------------------------------------
Label_01307848:
 BYTE   W96
//  #10 //013   ----------------------------------------
Label_01307849:
 BYTE   W80
 BYTE   W03
 BYTE   N11  Ds3  v048
 BYTE   W13
 BYTE   PEND 
//  #10 //014   ----------------------------------------
Label_01307850:
 BYTE   W32
 BYTE   W03
 BYTE   N11  Ds3  v028
 BYTE   W48
 BYTE   Fn3  v036
 BYTE   W13
 BYTE   PEND 
//  #10 //015   ----------------------------------------
 BYTE   W96
//  #10 //016   ----------------------------------------
 BYTE   W96
//  #10 //017   ----------------------------------------
 BYTE   PATT
  POIN2 Label_01307849
//  #10 //018   ----------------------------------------
 BYTE   PATT
  POIN2 Label_01307850
//  #10 //019   ----------------------------------------
Label_01307866:
 BYTE   W92
 BYTE   W03
 BYTE   MOD 0
 BYTE   W01
 BYTE   PEND 
//  #10 //020   ----------------------------------------
 BYTE   PATT
  POIN2 Label_01307866
//  #10 //021   ----------------------------------------
 BYTE   PATT
  POIN2 Label_01307866
//  #10 //022   ----------------------------------------
 BYTE   PATT
  POIN2 Label_01307866
//  #10 //023   ----------------------------------------
 BYTE   PATT
  POIN2 Label_01307866
//  #10 //024   ----------------------------------------
 BYTE   PATT
  POIN2 Label_01307866
//  #10 //025   ----------------------------------------
 BYTE   PATT
  POIN2 Label_01307866
//  #10 //026   ----------------------------------------
 BYTE   PATT
  POIN2 Label_01307866
//  #10 //027   ----------------------------------------
 BYTE   PATT
  POIN2 Label_01307866
//  #10 //028   ----------------------------------------
 BYTE   PATT
  POIN2 Label_01307866
//  #10 //029   ----------------------------------------
 BYTE   PATT
  POIN2 Label_01307866
//  #10 //030   ----------------------------------------
 BYTE   PATT
  POIN2 Label_01307866
//  #10 //031   ----------------------------------------
 BYTE   PATT
  POIN2 Label_01307866
//  #10 //032   ----------------------------------------
 BYTE   PATT
  POIN2 Label_01307866
//  #10 //033   ----------------------------------------
 BYTE   PATT
  POIN2 Label_01307866
//  #10 //034   ----------------------------------------
 BYTE   PATT
  POIN2 Label_01307866
//  #10 //035   ----------------------------------------
 BYTE   PATT
  POIN2 Label_01307866
//  #10 //036   ----------------------------------------
 BYTE   PATT
  POIN2 Label_01307866
//  #10 //037   ----------------------------------------
 BYTE   PATT
  POIN2 Label_01307866
//  #10 //038   ----------------------------------------
 BYTE   PATT
  POIN2 Label_01307866
//  #10 //039   ----------------------------------------
 BYTE   PATT
  POIN2 Label_01307866
//  #10 //040   ----------------------------------------
 BYTE   PATT
  POIN2 Label_01307866
//  #10 //041   ----------------------------------------
 BYTE   PATT
  POIN2 Label_01307866
//  #10 //042   ----------------------------------------
 BYTE   PATT
  POIN2 Label_01307866
//  #10 //043   ----------------------------------------
 BYTE   PATT
  POIN2 Label_01307866
//  #10 //044   ----------------------------------------
 BYTE   PATT
  POIN2 Label_01307866
//  #10 //045   ----------------------------------------
 BYTE   PATT
  POIN2 Label_01307866
//  #10 //046   ----------------------------------------
 BYTE   PATT
  POIN2 Label_01307866
//  #10 //047   ----------------------------------------
 BYTE   PATT
  POIN2 Label_01307866
//  #10 //048   ----------------------------------------
 BYTE   PATT
  POIN2 Label_01307866
//  #10 //049   ----------------------------------------
 BYTE   PATT
  POIN2 Label_01307866
//  #10 //050   ----------------------------------------
 BYTE   PATT
  POIN2 Label_01307866
//  #10 //051   ----------------------------------------
 BYTE   PATT
  POIN2 Label_01307866
//  #10 //052   ----------------------------------------
 BYTE   PATT
  POIN2 Label_01307866
//  #10 //053   ----------------------------------------
 BYTE   PATT
  POIN2 Label_01307866
//  #10 //054   ----------------------------------------
 BYTE   PATT
  POIN2 Label_01307866
//  #10 //055   ----------------------------------------
 BYTE   PATT
  POIN2 Label_01307866
//  #10 //056   ----------------------------------------
 BYTE   PATT
  POIN2 Label_01307866
//  #10 //057   ----------------------------------------
 BYTE   PATT
  POIN2 Label_01307866
//  #10 //058   ----------------------------------------
 BYTE   PATT
  POIN2 Label_01307866
//  #10 //059   ----------------------------------------
 BYTE   GoTo
  POIN2 Label_01307848
//  #10 //060   ----------------------------------------
 BYTE   W96
//  #10 //061   ----------------------------------------
 BYTE   PATT
  POIN2 Label_01307849
//  #10 //062   ----------------------------------------
 BYTE   PATT
  POIN2 Label_01307850
//  #10 //063   ----------------------------------------
 BYTE   W96
//  #10 //064   ----------------------------------------
 BYTE   W96
//  #10 //065   ----------------------------------------
 BYTE   PATT
  POIN2 Label_01307849
//  #10 //066   ----------------------------------------
 BYTE   PATT
  POIN2 Label_01307850
//  #10 //067   ----------------------------------------
 BYTE   PATT
  POIN2 Label_01307866
//  #10 //068   ----------------------------------------
 BYTE   PATT
  POIN2 Label_01307866
//  #10 //069   ----------------------------------------
 BYTE   PATT
  POIN2 Label_01307866
//  #10 //070   ----------------------------------------
 BYTE   PATT
  POIN2 Label_01307866
//  #10 //071   ----------------------------------------
 BYTE   PATT
  POIN2 Label_01307866
//  #10 //072   ----------------------------------------
 BYTE   PATT
  POIN2 Label_01307866
//  #10 //073   ----------------------------------------
 BYTE   PATT
  POIN2 Label_01307866
//  #10 //074   ----------------------------------------
 BYTE   PATT
  POIN2 Label_01307866
//  #10 //075   ----------------------------------------
 BYTE   PATT
  POIN2 Label_01307866
//  #10 //076   ----------------------------------------
 BYTE   PATT
  POIN2 Label_01307866
//  #10 //077   ----------------------------------------
 BYTE   PATT
  POIN2 Label_01307866
//  #10 //078   ----------------------------------------
 BYTE   PATT
  POIN2 Label_01307866
//  #10 //079   ----------------------------------------
 BYTE   PATT
  POIN2 Label_01307866
//  #10 //080   ----------------------------------------
 BYTE   PATT
  POIN2 Label_01307866
//  #10 //081   ----------------------------------------
 BYTE   PATT
  POIN2 Label_01307866
//  #10 //082   ----------------------------------------
 BYTE   PATT
  POIN2 Label_01307866
//  #10 //083   ----------------------------------------
 BYTE   PATT
  POIN2 Label_01307866
//  #10 //084   ----------------------------------------
 BYTE   PATT
  POIN2 Label_01307866
//  #10 //085   ----------------------------------------
 BYTE   PATT
  POIN2 Label_01307866
//  #10 //086   ----------------------------------------
 BYTE   PATT
  POIN2 Label_01307866
//  #10 //087   ----------------------------------------
 BYTE   PATT
  POIN2 Label_01307866
//  #10 //088   ----------------------------------------
 BYTE   PATT
  POIN2 Label_01307866
//  #10 //089   ----------------------------------------
 BYTE   PATT
  POIN2 Label_01307866
//  #10 //090   ----------------------------------------
 BYTE   PATT
  POIN2 Label_01307866
//  #10 //091   ----------------------------------------
 BYTE   PATT
  POIN2 Label_01307866
//  #10 //092   ----------------------------------------
 BYTE   PATT
  POIN2 Label_01307866
//  #10 //093   ----------------------------------------
 BYTE   PATT
  POIN2 Label_01307866
//  #10 //094   ----------------------------------------
 BYTE   PATT
  POIN2 Label_01307866
//  #10 //095   ----------------------------------------
 BYTE   PATT
  POIN2 Label_01307866
//  #10 //096   ----------------------------------------
 BYTE   PATT
  POIN2 Label_01307866
//  #10 //097   ----------------------------------------
 BYTE   PATT
  POIN2 Label_01307866
//  #10 //098   ----------------------------------------
 BYTE   PATT
  POIN2 Label_01307866
//  #10 //099   ----------------------------------------
 BYTE   PATT
  POIN2 Label_01307866
//  #10 //100   ----------------------------------------
 BYTE   PATT
  POIN2 Label_01307866
//  #10 //101   ----------------------------------------
 BYTE   PATT
  POIN2 Label_01307866
//  #10 //102   ----------------------------------------
 BYTE   PATT
  POIN2 Label_01307866
//  #10 //103   ----------------------------------------
 BYTE   PATT
  POIN2 Label_01307866
//  #10 //104   ----------------------------------------
 BYTE   PATT
  POIN2 Label_01307866
//  #10 //105   ----------------------------------------
 BYTE   PATT
  POIN2 Label_01307866
//  #10 //106   ----------------------------------------
 BYTE   W92
 BYTE   W03
 BYTE   MOD 0
 BYTE   FINE

//**************** Track 11 (Midi-Chn.10) ****************//

CastlevaniaSymphonyoftheNightDraculasCastle_011:
//  #11 //000   ----------------------------------------
 BYTE   KEYSH   CastlevaniaSymphonyoftheNightDraculasCastle_key+0
 BYTE   VOICE   19
 BYTE   MODT 0
 BYTE   LFOS 44
 BYTE   VOL   80*CastlevaniaSymphonyoftheNightDraculasCastle_mvl/mxv
 BYTE   PAN   c_v+0
 BYTE   VOL   32*CastlevaniaSymphonyoftheNightDraculasCastle_mvl/mxv
 BYTE   MOD 0
 BYTE   W96
//  #11 //001   ----------------------------------------
 BYTE   W96
//  #11 //002   ----------------------------------------
 BYTE   W96
//  #11 //003   ----------------------------------------
 BYTE   W96
//  #11 //004   ----------------------------------------
 BYTE   W96
//  #11 //005   ----------------------------------------
 BYTE   W96
//  #11 //006   ----------------------------------------
 BYTE   W96
//  #11 //007   ----------------------------------------
 BYTE   W96
//  #11 //008   ----------------------------------------
 BYTE   W96
//  #11 //009   ----------------------------------------
 BYTE   W96
//  #11 //010   ----------------------------------------
 BYTE   W96
//  #11 //011   ----------------------------------------
 BYTE   W96
//  #11 //012   ----------------------------------------
Label_012CEBB4:
 BYTE   VOL   32*CastlevaniaSymphonyoftheNightDraculasCastle_mvl/mxv
 BYTE   W96
//  #11 //013   ----------------------------------------
 BYTE   W96
//  #11 //014   ----------------------------------------
 BYTE   W96
//  #11 //015   ----------------------------------------
 BYTE   W96
//  #11 //016   ----------------------------------------
 BYTE   W96
//  #11 //017   ----------------------------------------
 BYTE   W96
//  #11 //018   ----------------------------------------
 BYTE   W96
//  #11 //019   ----------------------------------------
 BYTE   W96
//  #11 //020   ----------------------------------------
 BYTE   W96
//  #11 //021   ----------------------------------------
 BYTE   W96
//  #11 //022   ----------------------------------------
 BYTE   W96
//  #11 //023   ----------------------------------------
 BYTE   W96
//  #11 //024   ----------------------------------------
 BYTE   W96
//  #11 //025   ----------------------------------------
 BYTE   W96
//  #11 //026   ----------------------------------------
 BYTE   W96
//  #11 //027   ----------------------------------------
 BYTE   W96
//  #11 //028   ----------------------------------------
 BYTE   W96
//  #11 //029   ----------------------------------------
 BYTE   W96
//  #11 //030   ----------------------------------------
 BYTE   W96
//  #11 //031   ----------------------------------------
 BYTE   W96
//  #11 //032   ----------------------------------------
 BYTE   W96
//  #11 //033   ----------------------------------------
 BYTE   W96
//  #11 //034   ----------------------------------------
 BYTE   W96
//  #11 //035   ----------------------------------------
 BYTE   W96
//  #11 //036   ----------------------------------------
 BYTE   W96
//  #11 //037   ----------------------------------------
 BYTE   W96
//  #11 //038   ----------------------------------------
 BYTE   W96
//  #11 //039   ----------------------------------------
 BYTE   W96
//  #11 //040   ----------------------------------------
 BYTE   W96
//  #11 //041   ----------------------------------------
 BYTE   W96
//  #11 //042   ----------------------------------------
 BYTE   W96
//  #11 //043   ----------------------------------------
 BYTE   W96
//  #11 //044   ----------------------------------------
 BYTE   W96
//  #11 //045   ----------------------------------------
 BYTE   W96
//  #11 //046   ----------------------------------------
 BYTE   W96
//  #11 //047   ----------------------------------------
Label_012CEBD9:
 BYTE   VOL   14*CastlevaniaSymphonyoftheNightDraculasCastle_mvl/mxv
 BYTE   N92  As3  v060
 BYTE   TIE  Fn4  v036
 BYTE   TIE  Cs5  v048
 BYTE   W02
 BYTE   VOL   14*CastlevaniaSymphonyoftheNightDraculasCastle_mvl/mxv
 BYTE   W02
 BYTE   VOL   15*CastlevaniaSymphonyoftheNightDraculasCastle_mvl/mxv
 BYTE   W02
 BYTE   VOL   15*CastlevaniaSymphonyoftheNightDraculasCastle_mvl/mxv
 BYTE   W02
 BYTE   VOL   15*CastlevaniaSymphonyoftheNightDraculasCastle_mvl/mxv
 BYTE   W02
 BYTE   VOL   15*CastlevaniaSymphonyoftheNightDraculasCastle_mvl/mxv
 BYTE   W02
 BYTE   VOL   16*CastlevaniaSymphonyoftheNightDraculasCastle_mvl/mxv
 BYTE   W02
 BYTE   VOL   17*CastlevaniaSymphonyoftheNightDraculasCastle_mvl/mxv
 BYTE   W02
 BYTE   VOL   17*CastlevaniaSymphonyoftheNightDraculasCastle_mvl/mxv
 BYTE   W02
 BYTE   VOL   17*CastlevaniaSymphonyoftheNightDraculasCastle_mvl/mxv
 BYTE   W02
 BYTE   VOL   17*CastlevaniaSymphonyoftheNightDraculasCastle_mvl/mxv
 BYTE   W02
 BYTE   VOL   18*CastlevaniaSymphonyoftheNightDraculasCastle_mvl/mxv
 BYTE   W02
 BYTE   VOL   18*CastlevaniaSymphonyoftheNightDraculasCastle_mvl/mxv
 BYTE   W02
 BYTE   VOL   18*CastlevaniaSymphonyoftheNightDraculasCastle_mvl/mxv
 BYTE   W02
 BYTE   VOL   19*CastlevaniaSymphonyoftheNightDraculasCastle_mvl/mxv
 BYTE   W02
 BYTE   VOL   19*CastlevaniaSymphonyoftheNightDraculasCastle_mvl/mxv
 BYTE   W02
 BYTE   VOL   19*CastlevaniaSymphonyoftheNightDraculasCastle_mvl/mxv
 BYTE   W02
 BYTE   VOL   19*CastlevaniaSymphonyoftheNightDraculasCastle_mvl/mxv
 BYTE   W02
 BYTE   VOL   20*CastlevaniaSymphonyoftheNightDraculasCastle_mvl/mxv
 BYTE   W02
 BYTE   VOL   20*CastlevaniaSymphonyoftheNightDraculasCastle_mvl/mxv
 BYTE   W02
 BYTE   VOL   20*CastlevaniaSymphonyoftheNightDraculasCastle_mvl/mxv
 BYTE   W02
 BYTE   VOL   21*CastlevaniaSymphonyoftheNightDraculasCastle_mvl/mxv
 BYTE   W02
 BYTE   VOL   21*CastlevaniaSymphonyoftheNightDraculasCastle_mvl/mxv
 BYTE   W02
 BYTE   VOL   22*CastlevaniaSymphonyoftheNightDraculasCastle_mvl/mxv
 BYTE   W02
 BYTE   VOL   22*CastlevaniaSymphonyoftheNightDraculasCastle_mvl/mxv
 BYTE   W02
 BYTE   VOL   22*CastlevaniaSymphonyoftheNightDraculasCastle_mvl/mxv
 BYTE   W02
 BYTE   VOL   23*CastlevaniaSymphonyoftheNightDraculasCastle_mvl/mxv
 BYTE   W02
 BYTE   VOL   23*CastlevaniaSymphonyoftheNightDraculasCastle_mvl/mxv
 BYTE   W02
 BYTE   VOL   23*CastlevaniaSymphonyoftheNightDraculasCastle_mvl/mxv
 BYTE   W02
 BYTE   VOL   23*CastlevaniaSymphonyoftheNightDraculasCastle_mvl/mxv
 BYTE   W02
 BYTE   VOL   24*CastlevaniaSymphonyoftheNightDraculasCastle_mvl/mxv
 BYTE   W02
 BYTE   VOL   25*CastlevaniaSymphonyoftheNightDraculasCastle_mvl/mxv
 BYTE   W02
 BYTE   VOL   25*CastlevaniaSymphonyoftheNightDraculasCastle_mvl/mxv
 BYTE   W02
 BYTE   VOL   26*CastlevaniaSymphonyoftheNightDraculasCastle_mvl/mxv
 BYTE   W02
 BYTE   VOL   26*CastlevaniaSymphonyoftheNightDraculasCastle_mvl/mxv
 BYTE   W02
 BYTE   VOL   27*CastlevaniaSymphonyoftheNightDraculasCastle_mvl/mxv
 BYTE   W02
 BYTE   VOL   27*CastlevaniaSymphonyoftheNightDraculasCastle_mvl/mxv
 BYTE   W02
 BYTE   VOL   27*CastlevaniaSymphonyoftheNightDraculasCastle_mvl/mxv
 BYTE   W02
 BYTE   VOL   28*CastlevaniaSymphonyoftheNightDraculasCastle_mvl/mxv
 BYTE   W02
 BYTE   VOL   28*CastlevaniaSymphonyoftheNightDraculasCastle_mvl/mxv
 BYTE   W02
 BYTE   VOL   28*CastlevaniaSymphonyoftheNightDraculasCastle_mvl/mxv
 BYTE   W02
 BYTE   VOL   28*CastlevaniaSymphonyoftheNightDraculasCastle_mvl/mxv
 BYTE   W02
 BYTE   VOL   29*CastlevaniaSymphonyoftheNightDraculasCastle_mvl/mxv
 BYTE   W02
 BYTE   VOL   30*CastlevaniaSymphonyoftheNightDraculasCastle_mvl/mxv
 BYTE   W02
 BYTE   VOL   30*CastlevaniaSymphonyoftheNightDraculasCastle_mvl/mxv
 BYTE   W02
 BYTE   VOL   30*CastlevaniaSymphonyoftheNightDraculasCastle_mvl/mxv
 BYTE   W02
 BYTE   VOL   30*CastlevaniaSymphonyoftheNightDraculasCastle_mvl/mxv
 BYTE   W02
 BYTE   VOL   31*CastlevaniaSymphonyoftheNightDraculasCastle_mvl/mxv
 BYTE   W02
 BYTE   PEND 
//  #11 //048   ----------------------------------------
Label_012CEC45:
 BYTE   VOL   32*CastlevaniaSymphonyoftheNightDraculasCastle_mvl/mxv
 BYTE   N92  Gs3  v060
 BYTE   W02
 BYTE   VOL   31*CastlevaniaSymphonyoftheNightDraculasCastle_mvl/mxv
 BYTE   W02
 BYTE   VOL   30*CastlevaniaSymphonyoftheNightDraculasCastle_mvl/mxv
 BYTE   W02
 BYTE   VOL   30*CastlevaniaSymphonyoftheNightDraculasCastle_mvl/mxv
 BYTE   W02
 BYTE   VOL   30*CastlevaniaSymphonyoftheNightDraculasCastle_mvl/mxv
 BYTE   W02
 BYTE   VOL   30*CastlevaniaSymphonyoftheNightDraculasCastle_mvl/mxv
 BYTE   W02
 BYTE   VOL   29*CastlevaniaSymphonyoftheNightDraculasCastle_mvl/mxv
 BYTE   W02
 BYTE   VOL   28*CastlevaniaSymphonyoftheNightDraculasCastle_mvl/mxv
 BYTE   W02
 BYTE   VOL   28*CastlevaniaSymphonyoftheNightDraculasCastle_mvl/mxv
 BYTE   W02
 BYTE   VOL   28*CastlevaniaSymphonyoftheNightDraculasCastle_mvl/mxv
 BYTE   W02
 BYTE   VOL   28*CastlevaniaSymphonyoftheNightDraculasCastle_mvl/mxv
 BYTE   W02
 BYTE   VOL   27*CastlevaniaSymphonyoftheNightDraculasCastle_mvl/mxv
 BYTE   W02
 BYTE   VOL   27*CastlevaniaSymphonyoftheNightDraculasCastle_mvl/mxv
 BYTE   W02
 BYTE   VOL   27*CastlevaniaSymphonyoftheNightDraculasCastle_mvl/mxv
 BYTE   W02
 BYTE   VOL   26*CastlevaniaSymphonyoftheNightDraculasCastle_mvl/mxv
 BYTE   W02
 BYTE   VOL   26*CastlevaniaSymphonyoftheNightDraculasCastle_mvl/mxv
 BYTE   W02
 BYTE   VOL   25*CastlevaniaSymphonyoftheNightDraculasCastle_mvl/mxv
 BYTE   W02
 BYTE   VOL   25*CastlevaniaSymphonyoftheNightDraculasCastle_mvl/mxv
 BYTE   W02
 BYTE   VOL   24*CastlevaniaSymphonyoftheNightDraculasCastle_mvl/mxv
 BYTE   W02
 BYTE   VOL   23*CastlevaniaSymphonyoftheNightDraculasCastle_mvl/mxv
 BYTE   W02
 BYTE   VOL   23*CastlevaniaSymphonyoftheNightDraculasCastle_mvl/mxv
 BYTE   W02
 BYTE   VOL   23*CastlevaniaSymphonyoftheNightDraculasCastle_mvl/mxv
 BYTE   W02
 BYTE   VOL   23*CastlevaniaSymphonyoftheNightDraculasCastle_mvl/mxv
 BYTE   W02
 BYTE   VOL   22*CastlevaniaSymphonyoftheNightDraculasCastle_mvl/mxv
 BYTE   W02
 BYTE   VOL   22*CastlevaniaSymphonyoftheNightDraculasCastle_mvl/mxv
 BYTE   W02
 BYTE   VOL   22*CastlevaniaSymphonyoftheNightDraculasCastle_mvl/mxv
 BYTE   W02
 BYTE   VOL   21*CastlevaniaSymphonyoftheNightDraculasCastle_mvl/mxv
 BYTE   W02
 BYTE   VOL   21*CastlevaniaSymphonyoftheNightDraculasCastle_mvl/mxv
 BYTE   W02
 BYTE   VOL   20*CastlevaniaSymphonyoftheNightDraculasCastle_mvl/mxv
 BYTE   W02
 BYTE   VOL   20*CastlevaniaSymphonyoftheNightDraculasCastle_mvl/mxv
 BYTE   W02
 BYTE   VOL   20*CastlevaniaSymphonyoftheNightDraculasCastle_mvl/mxv
 BYTE   W02
 BYTE   VOL   19*CastlevaniaSymphonyoftheNightDraculasCastle_mvl/mxv
 BYTE   W02
 BYTE   VOL   19*CastlevaniaSymphonyoftheNightDraculasCastle_mvl/mxv
 BYTE   W02
 BYTE   VOL   19*CastlevaniaSymphonyoftheNightDraculasCastle_mvl/mxv
 BYTE   W02
 BYTE   VOL   19*CastlevaniaSymphonyoftheNightDraculasCastle_mvl/mxv
 BYTE   W02
 BYTE   VOL   18*CastlevaniaSymphonyoftheNightDraculasCastle_mvl/mxv
 BYTE   W02
 BYTE   VOL   18*CastlevaniaSymphonyoftheNightDraculasCastle_mvl/mxv
 BYTE   W02
 BYTE   VOL   18*CastlevaniaSymphonyoftheNightDraculasCastle_mvl/mxv
 BYTE   W02
 BYTE   VOL   17*CastlevaniaSymphonyoftheNightDraculasCastle_mvl/mxv
 BYTE   W02
 BYTE   VOL   17*CastlevaniaSymphonyoftheNightDraculasCastle_mvl/mxv
 BYTE   W02
 BYTE   VOL   17*CastlevaniaSymphonyoftheNightDraculasCastle_mvl/mxv
 BYTE   W02
 BYTE   VOL   17*CastlevaniaSymphonyoftheNightDraculasCastle_mvl/mxv
 BYTE   W02
 BYTE   VOL   16*CastlevaniaSymphonyoftheNightDraculasCastle_mvl/mxv
 BYTE   W02
 BYTE   VOL   15*CastlevaniaSymphonyoftheNightDraculasCastle_mvl/mxv
 BYTE   W02
 BYTE   VOL   15*CastlevaniaSymphonyoftheNightDraculasCastle_mvl/mxv
 BYTE   W02
 BYTE   VOL   15*CastlevaniaSymphonyoftheNightDraculasCastle_mvl/mxv
 BYTE   W02
 BYTE   VOL   15*CastlevaniaSymphonyoftheNightDraculasCastle_mvl/mxv
 BYTE   W02
 BYTE   VOL   14*CastlevaniaSymphonyoftheNightDraculasCastle_mvl/mxv
 BYTE   W01
 BYTE   PEND 
 BYTE   EOT
 BYTE   Fn4  v085
 BYTE   W01
//  #11 //049   ----------------------------------------
Label_012CECAF:
 BYTE   VOL   14*CastlevaniaSymphonyoftheNightDraculasCastle_mvl/mxv
 BYTE   N92  Fs3  v060
 BYTE   TIE  Fn4  v036
 BYTE   TIE  Cs5  v048
 BYTE   W02
 BYTE   VOL   14*CastlevaniaSymphonyoftheNightDraculasCastle_mvl/mxv
 BYTE   W02
 BYTE   VOL   15*CastlevaniaSymphonyoftheNightDraculasCastle_mvl/mxv
 BYTE   W02
 BYTE   VOL   15*CastlevaniaSymphonyoftheNightDraculasCastle_mvl/mxv
 BYTE   W02
 BYTE   VOL   15*CastlevaniaSymphonyoftheNightDraculasCastle_mvl/mxv
 BYTE   W02
 BYTE   VOL   15*CastlevaniaSymphonyoftheNightDraculasCastle_mvl/mxv
 BYTE   W02
 BYTE   VOL   16*CastlevaniaSymphonyoftheNightDraculasCastle_mvl/mxv
 BYTE   W02
 BYTE   VOL   17*CastlevaniaSymphonyoftheNightDraculasCastle_mvl/mxv
 BYTE   W02
 BYTE   VOL   17*CastlevaniaSymphonyoftheNightDraculasCastle_mvl/mxv
 BYTE   W02
 BYTE   VOL   17*CastlevaniaSymphonyoftheNightDraculasCastle_mvl/mxv
 BYTE   W02
 BYTE   VOL   17*CastlevaniaSymphonyoftheNightDraculasCastle_mvl/mxv
 BYTE   W02
 BYTE   VOL   18*CastlevaniaSymphonyoftheNightDraculasCastle_mvl/mxv
 BYTE   W02
 BYTE   VOL   18*CastlevaniaSymphonyoftheNightDraculasCastle_mvl/mxv
 BYTE   W02
 BYTE   VOL   18*CastlevaniaSymphonyoftheNightDraculasCastle_mvl/mxv
 BYTE   W02
 BYTE   VOL   19*CastlevaniaSymphonyoftheNightDraculasCastle_mvl/mxv
 BYTE   W02
 BYTE   VOL   19*CastlevaniaSymphonyoftheNightDraculasCastle_mvl/mxv
 BYTE   W02
 BYTE   VOL   19*CastlevaniaSymphonyoftheNightDraculasCastle_mvl/mxv
 BYTE   W02
 BYTE   VOL   19*CastlevaniaSymphonyoftheNightDraculasCastle_mvl/mxv
 BYTE   W02
 BYTE   VOL   20*CastlevaniaSymphonyoftheNightDraculasCastle_mvl/mxv
 BYTE   W02
 BYTE   VOL   20*CastlevaniaSymphonyoftheNightDraculasCastle_mvl/mxv
 BYTE   W02
 BYTE   VOL   20*CastlevaniaSymphonyoftheNightDraculasCastle_mvl/mxv
 BYTE   W02
 BYTE   VOL   21*CastlevaniaSymphonyoftheNightDraculasCastle_mvl/mxv
 BYTE   W02
 BYTE   VOL   21*CastlevaniaSymphonyoftheNightDraculasCastle_mvl/mxv
 BYTE   W02
 BYTE   VOL   22*CastlevaniaSymphonyoftheNightDraculasCastle_mvl/mxv
 BYTE   W02
 BYTE   VOL   22*CastlevaniaSymphonyoftheNightDraculasCastle_mvl/mxv
 BYTE   W02
 BYTE   VOL   22*CastlevaniaSymphonyoftheNightDraculasCastle_mvl/mxv
 BYTE   W02
 BYTE   VOL   23*CastlevaniaSymphonyoftheNightDraculasCastle_mvl/mxv
 BYTE   W02
 BYTE   VOL   23*CastlevaniaSymphonyoftheNightDraculasCastle_mvl/mxv
 BYTE   W02
 BYTE   VOL   23*CastlevaniaSymphonyoftheNightDraculasCastle_mvl/mxv
 BYTE   W02
 BYTE   VOL   23*CastlevaniaSymphonyoftheNightDraculasCastle_mvl/mxv
 BYTE   W02
 BYTE   VOL   24*CastlevaniaSymphonyoftheNightDraculasCastle_mvl/mxv
 BYTE   W02
 BYTE   VOL   25*CastlevaniaSymphonyoftheNightDraculasCastle_mvl/mxv
 BYTE   W02
 BYTE   VOL   25*CastlevaniaSymphonyoftheNightDraculasCastle_mvl/mxv
 BYTE   W02
 BYTE   VOL   26*CastlevaniaSymphonyoftheNightDraculasCastle_mvl/mxv
 BYTE   W02
 BYTE   VOL   26*CastlevaniaSymphonyoftheNightDraculasCastle_mvl/mxv
 BYTE   W02
 BYTE   VOL   27*CastlevaniaSymphonyoftheNightDraculasCastle_mvl/mxv
 BYTE   W02
 BYTE   VOL   27*CastlevaniaSymphonyoftheNightDraculasCastle_mvl/mxv
 BYTE   W02
 BYTE   VOL   27*CastlevaniaSymphonyoftheNightDraculasCastle_mvl/mxv
 BYTE   W02
 BYTE   VOL   28*CastlevaniaSymphonyoftheNightDraculasCastle_mvl/mxv
 BYTE   W02
 BYTE   VOL   28*CastlevaniaSymphonyoftheNightDraculasCastle_mvl/mxv
 BYTE   W02
 BYTE   VOL   28*CastlevaniaSymphonyoftheNightDraculasCastle_mvl/mxv
 BYTE   W02
 BYTE   VOL   28*CastlevaniaSymphonyoftheNightDraculasCastle_mvl/mxv
 BYTE   W02
 BYTE   VOL   29*CastlevaniaSymphonyoftheNightDraculasCastle_mvl/mxv
 BYTE   W02
 BYTE   VOL   30*CastlevaniaSymphonyoftheNightDraculasCastle_mvl/mxv
 BYTE   W02
 BYTE   VOL   30*CastlevaniaSymphonyoftheNightDraculasCastle_mvl/mxv
 BYTE   W02
 BYTE   VOL   30*CastlevaniaSymphonyoftheNightDraculasCastle_mvl/mxv
 BYTE   W02
 BYTE   VOL   30*CastlevaniaSymphonyoftheNightDraculasCastle_mvl/mxv
 BYTE   W02
 BYTE   VOL   31*CastlevaniaSymphonyoftheNightDraculasCastle_mvl/mxv
 BYTE   W02
 BYTE   PEND 
//  #11 //050   ----------------------------------------
Label_012CED1B:
 BYTE   VOL   32*CastlevaniaSymphonyoftheNightDraculasCastle_mvl/mxv
 BYTE   N44  Ds3  v060
 BYTE   W02
 BYTE   VOL   31*CastlevaniaSymphonyoftheNightDraculasCastle_mvl/mxv
 BYTE   W02
 BYTE   VOL   30*CastlevaniaSymphonyoftheNightDraculasCastle_mvl/mxv
 BYTE   W02
 BYTE   VOL   30*CastlevaniaSymphonyoftheNightDraculasCastle_mvl/mxv
 BYTE   W02
 BYTE   VOL   30*CastlevaniaSymphonyoftheNightDraculasCastle_mvl/mxv
 BYTE   W02
 BYTE   VOL   30*CastlevaniaSymphonyoftheNightDraculasCastle_mvl/mxv
 BYTE   W02
 BYTE   VOL   29*CastlevaniaSymphonyoftheNightDraculasCastle_mvl/mxv
 BYTE   W02
 BYTE   VOL   28*CastlevaniaSymphonyoftheNightDraculasCastle_mvl/mxv
 BYTE   W02
 BYTE   VOL   28*CastlevaniaSymphonyoftheNightDraculasCastle_mvl/mxv
 BYTE   W02
 BYTE   VOL   28*CastlevaniaSymphonyoftheNightDraculasCastle_mvl/mxv
 BYTE   W02
 BYTE   VOL   28*CastlevaniaSymphonyoftheNightDraculasCastle_mvl/mxv
 BYTE   W02
 BYTE   VOL   27*CastlevaniaSymphonyoftheNightDraculasCastle_mvl/mxv
 BYTE   W02
 BYTE   VOL   27*CastlevaniaSymphonyoftheNightDraculasCastle_mvl/mxv
 BYTE   W02
 BYTE   VOL   27*CastlevaniaSymphonyoftheNightDraculasCastle_mvl/mxv
 BYTE   W02
 BYTE   VOL   26*CastlevaniaSymphonyoftheNightDraculasCastle_mvl/mxv
 BYTE   W02
 BYTE   VOL   26*CastlevaniaSymphonyoftheNightDraculasCastle_mvl/mxv
 BYTE   W02
 BYTE   VOL   25*CastlevaniaSymphonyoftheNightDraculasCastle_mvl/mxv
 BYTE   W02
 BYTE   VOL   25*CastlevaniaSymphonyoftheNightDraculasCastle_mvl/mxv
 BYTE   W02
 BYTE   VOL   24*CastlevaniaSymphonyoftheNightDraculasCastle_mvl/mxv
 BYTE   W02
 BYTE   VOL   23*CastlevaniaSymphonyoftheNightDraculasCastle_mvl/mxv
 BYTE   W02
 BYTE   VOL   23*CastlevaniaSymphonyoftheNightDraculasCastle_mvl/mxv
 BYTE   W02
 BYTE   VOL   23*CastlevaniaSymphonyoftheNightDraculasCastle_mvl/mxv
 BYTE   W02
 BYTE   VOL   23*CastlevaniaSymphonyoftheNightDraculasCastle_mvl/mxv
 BYTE   W02
 BYTE   VOL   22*CastlevaniaSymphonyoftheNightDraculasCastle_mvl/mxv
 BYTE   W02
 BYTE   VOL   22*CastlevaniaSymphonyoftheNightDraculasCastle_mvl/mxv
 BYTE   N44  Fn3
 BYTE   W02
 BYTE   VOL   22*CastlevaniaSymphonyoftheNightDraculasCastle_mvl/mxv
 BYTE   W02
 BYTE   VOL   21*CastlevaniaSymphonyoftheNightDraculasCastle_mvl/mxv
 BYTE   W02
 BYTE   VOL   21*CastlevaniaSymphonyoftheNightDraculasCastle_mvl/mxv
 BYTE   W02
 BYTE   VOL   20*CastlevaniaSymphonyoftheNightDraculasCastle_mvl/mxv
 BYTE   W02
 BYTE   VOL   20*CastlevaniaSymphonyoftheNightDraculasCastle_mvl/mxv
 BYTE   W02
 BYTE   VOL   20*CastlevaniaSymphonyoftheNightDraculasCastle_mvl/mxv
 BYTE   W02
 BYTE   VOL   19*CastlevaniaSymphonyoftheNightDraculasCastle_mvl/mxv
 BYTE   W02
 BYTE   VOL   19*CastlevaniaSymphonyoftheNightDraculasCastle_mvl/mxv
 BYTE   W02
 BYTE   VOL   19*CastlevaniaSymphonyoftheNightDraculasCastle_mvl/mxv
 BYTE   W02
 BYTE   VOL   19*CastlevaniaSymphonyoftheNightDraculasCastle_mvl/mxv
 BYTE   W02
 BYTE   VOL   18*CastlevaniaSymphonyoftheNightDraculasCastle_mvl/mxv
 BYTE   W01
 BYTE   PEND 
 BYTE   EOT
 BYTE   Fn4  v085
 BYTE   W01
 BYTE   VOL   18*CastlevaniaSymphonyoftheNightDraculasCastle_mvl/mxv
 BYTE   N23  Ds4  v036
 BYTE   N23  Cn5  v048
 BYTE   W02
 BYTE   VOL   18*CastlevaniaSymphonyoftheNightDraculasCastle_mvl/mxv
 BYTE   W02
 BYTE   VOL   17*CastlevaniaSymphonyoftheNightDraculasCastle_mvl/mxv
 BYTE   W02
 BYTE   VOL   17*CastlevaniaSymphonyoftheNightDraculasCastle_mvl/mxv
 BYTE   W02
 BYTE   VOL   17*CastlevaniaSymphonyoftheNightDraculasCastle_mvl/mxv
 BYTE   W02
 BYTE   VOL   17*CastlevaniaSymphonyoftheNightDraculasCastle_mvl/mxv
 BYTE   W02
 BYTE   VOL   16*CastlevaniaSymphonyoftheNightDraculasCastle_mvl/mxv
 BYTE   W02
 BYTE   VOL   15*CastlevaniaSymphonyoftheNightDraculasCastle_mvl/mxv
 BYTE   W02
 BYTE   VOL   15*CastlevaniaSymphonyoftheNightDraculasCastle_mvl/mxv
 BYTE   W02
 BYTE   VOL   15*CastlevaniaSymphonyoftheNightDraculasCastle_mvl/mxv
 BYTE   W02
 BYTE   VOL   15*CastlevaniaSymphonyoftheNightDraculasCastle_mvl/mxv
 BYTE   W02
 BYTE   VOL   14*CastlevaniaSymphonyoftheNightDraculasCastle_mvl/mxv
 BYTE   W02
//  #11 //051   ----------------------------------------
 BYTE   PATT
  POIN2 Label_012CEBD9
//  #11 //052   ----------------------------------------
 BYTE   PATT
  POIN2 Label_012CEC45
//  #11 //053   ----------------------------------------
 BYTE   EOT
 BYTE   Fn4  v085
 BYTE   W01
//  #11 //054   ----------------------------------------
 BYTE   PATT
  POIN2 Label_012CECAF
//  #11 //055   ----------------------------------------
 BYTE   PATT
  POIN2 Label_012CED1B
//  #11 //056   ----------------------------------------
 BYTE   EOT
 BYTE   Fn4  v085
 BYTE   W01
 BYTE   VOL   18*CastlevaniaSymphonyoftheNightDraculasCastle_mvl/mxv
 BYTE   N23  Ds4  v036
 BYTE   N23  Cn5  v048
 BYTE   W02
 BYTE   VOL   18*CastlevaniaSymphonyoftheNightDraculasCastle_mvl/mxv
 BYTE   W02
 BYTE   VOL   17*CastlevaniaSymphonyoftheNightDraculasCastle_mvl/mxv
 BYTE   W02
 BYTE   VOL   17*CastlevaniaSymphonyoftheNightDraculasCastle_mvl/mxv
 BYTE   W02
 BYTE   VOL   17*CastlevaniaSymphonyoftheNightDraculasCastle_mvl/mxv
 BYTE   W02
 BYTE   VOL   17*CastlevaniaSymphonyoftheNightDraculasCastle_mvl/mxv
 BYTE   W02
 BYTE   VOL   16*CastlevaniaSymphonyoftheNightDraculasCastle_mvl/mxv
 BYTE   W02
 BYTE   VOL   15*CastlevaniaSymphonyoftheNightDraculasCastle_mvl/mxv
 BYTE   W02
 BYTE   VOL   15*CastlevaniaSymphonyoftheNightDraculasCastle_mvl/mxv
 BYTE   W02
 BYTE   VOL   15*CastlevaniaSymphonyoftheNightDraculasCastle_mvl/mxv
 BYTE   W02
 BYTE   VOL   15*CastlevaniaSymphonyoftheNightDraculasCastle_mvl/mxv
 BYTE   W02
 BYTE   VOL   14*CastlevaniaSymphonyoftheNightDraculasCastle_mvl/mxv
 BYTE   W02
Label_012CEDCC:
 BYTE   VOL   10*CastlevaniaSymphonyoftheNightDraculasCastle_mvl/mxv
 BYTE   TIE  Fn3  v060
 BYTE   TIE  Fn4  v048
 BYTE   W02
 BYTE   VOL   10*CastlevaniaSymphonyoftheNightDraculasCastle_mvl/mxv
 BYTE   W01
 BYTE   VOL   10*CastlevaniaSymphonyoftheNightDraculasCastle_mvl/mxv
 BYTE   W02
 BYTE   VOL   10*CastlevaniaSymphonyoftheNightDraculasCastle_mvl/mxv
 BYTE   W01
 BYTE   VOL   11*CastlevaniaSymphonyoftheNightDraculasCastle_mvl/mxv
 BYTE   W02
 BYTE   VOL   11*CastlevaniaSymphonyoftheNightDraculasCastle_mvl/mxv
 BYTE   W01
 BYTE   VOL   11*CastlevaniaSymphonyoftheNightDraculasCastle_mvl/mxv
 BYTE   W02
 BYTE   VOL   11*CastlevaniaSymphonyoftheNightDraculasCastle_mvl/mxv
 BYTE   W01
 BYTE   VOL   11*CastlevaniaSymphonyoftheNightDraculasCastle_mvl/mxv
 BYTE   W02
 BYTE   VOL   11*CastlevaniaSymphonyoftheNightDraculasCastle_mvl/mxv
 BYTE   W01
 BYTE   VOL   12*CastlevaniaSymphonyoftheNightDraculasCastle_mvl/mxv
 BYTE   W02
 BYTE   VOL   13*CastlevaniaSymphonyoftheNightDraculasCastle_mvl/mxv
 BYTE   W01
 BYTE   VOL   13*CastlevaniaSymphonyoftheNightDraculasCastle_mvl/mxv
 BYTE   W02
 BYTE   VOL   13*CastlevaniaSymphonyoftheNightDraculasCastle_mvl/mxv
 BYTE   W01
 BYTE   VOL   13*CastlevaniaSymphonyoftheNightDraculasCastle_mvl/mxv
 BYTE   W02
 BYTE   VOL   14*CastlevaniaSymphonyoftheNightDraculasCastle_mvl/mxv
 BYTE   W01
 BYTE   VOL   14*CastlevaniaSymphonyoftheNightDraculasCastle_mvl/mxv
 BYTE   W02
 BYTE   VOL   14*CastlevaniaSymphonyoftheNightDraculasCastle_mvl/mxv
 BYTE   W01
 BYTE   VOL   15*CastlevaniaSymphonyoftheNightDraculasCastle_mvl/mxv
 BYTE   W02
 BYTE   VOL   15*CastlevaniaSymphonyoftheNightDraculasCastle_mvl/mxv
 BYTE   W01
 BYTE   VOL   15*CastlevaniaSymphonyoftheNightDraculasCastle_mvl/mxv
 BYTE   W02
 BYTE   VOL   15*CastlevaniaSymphonyoftheNightDraculasCastle_mvl/mxv
 BYTE   W01
 BYTE   VOL   16*CastlevaniaSymphonyoftheNightDraculasCastle_mvl/mxv
 BYTE   W02
 BYTE   VOL   17*CastlevaniaSymphonyoftheNightDraculasCastle_mvl/mxv
 BYTE   W01
 BYTE   VOL   17*CastlevaniaSymphonyoftheNightDraculasCastle_mvl/mxv
 BYTE   W02
 BYTE   VOL   17*CastlevaniaSymphonyoftheNightDraculasCastle_mvl/mxv
 BYTE   W01
 BYTE   VOL   17*CastlevaniaSymphonyoftheNightDraculasCastle_mvl/mxv
 BYTE   W02
 BYTE   VOL   18*CastlevaniaSymphonyoftheNightDraculasCastle_mvl/mxv
 BYTE   W01
 BYTE   VOL   18*CastlevaniaSymphonyoftheNightDraculasCastle_mvl/mxv
 BYTE   W02
 BYTE   VOL   18*CastlevaniaSymphonyoftheNightDraculasCastle_mvl/mxv
 BYTE   W01
 BYTE   VOL   19*CastlevaniaSymphonyoftheNightDraculasCastle_mvl/mxv
 BYTE   W02
 BYTE   VOL   19*CastlevaniaSymphonyoftheNightDraculasCastle_mvl/mxv
 BYTE   W01
 BYTE   VOL   19*CastlevaniaSymphonyoftheNightDraculasCastle_mvl/mxv
 BYTE   W02
 BYTE   VOL   19*CastlevaniaSymphonyoftheNightDraculasCastle_mvl/mxv
 BYTE   W01
 BYTE   VOL   20*CastlevaniaSymphonyoftheNightDraculasCastle_mvl/mxv
 BYTE   W02
 BYTE   VOL   20*CastlevaniaSymphonyoftheNightDraculasCastle_mvl/mxv
 BYTE   W01
 BYTE   VOL   20*CastlevaniaSymphonyoftheNightDraculasCastle_mvl/mxv
 BYTE   W02
 BYTE   VOL   21*CastlevaniaSymphonyoftheNightDraculasCastle_mvl/mxv
 BYTE   W01
 BYTE   VOL   21*CastlevaniaSymphonyoftheNightDraculasCastle_mvl/mxv
 BYTE   W02
 BYTE   VOL   22*CastlevaniaSymphonyoftheNightDraculasCastle_mvl/mxv
 BYTE   W01
 BYTE   VOL   22*CastlevaniaSymphonyoftheNightDraculasCastle_mvl/mxv
 BYTE   W02
 BYTE   VOL   22*CastlevaniaSymphonyoftheNightDraculasCastle_mvl/mxv
 BYTE   W01
 BYTE   VOL   23*CastlevaniaSymphonyoftheNightDraculasCastle_mvl/mxv
 BYTE   W02
 BYTE   VOL   23*CastlevaniaSymphonyoftheNightDraculasCastle_mvl/mxv
 BYTE   W01
 BYTE   VOL   23*CastlevaniaSymphonyoftheNightDraculasCastle_mvl/mxv
 BYTE   W02
 BYTE   VOL   23*CastlevaniaSymphonyoftheNightDraculasCastle_mvl/mxv
 BYTE   W01
 BYTE   VOL   24*CastlevaniaSymphonyoftheNightDraculasCastle_mvl/mxv
 BYTE   W02
//  #11 //057   ----------------------------------------
 BYTE   VOL   25*CastlevaniaSymphonyoftheNightDraculasCastle_mvl/mxv
 BYTE   W01
 BYTE   VOL   25*CastlevaniaSymphonyoftheNightDraculasCastle_mvl/mxv
 BYTE   W02
 BYTE   VOL   26*CastlevaniaSymphonyoftheNightDraculasCastle_mvl/mxv
 BYTE   W01
 BYTE   VOL   26*CastlevaniaSymphonyoftheNightDraculasCastle_mvl/mxv
 BYTE   W02
 BYTE   VOL   27*CastlevaniaSymphonyoftheNightDraculasCastle_mvl/mxv
 BYTE   W01
 BYTE   VOL   27*CastlevaniaSymphonyoftheNightDraculasCastle_mvl/mxv
 BYTE   W02
 BYTE   VOL   27*CastlevaniaSymphonyoftheNightDraculasCastle_mvl/mxv
 BYTE   W01
 BYTE   VOL   28*CastlevaniaSymphonyoftheNightDraculasCastle_mvl/mxv
 BYTE   W02
 BYTE   VOL   28*CastlevaniaSymphonyoftheNightDraculasCastle_mvl/mxv
 BYTE   W01
 BYTE   VOL   28*CastlevaniaSymphonyoftheNightDraculasCastle_mvl/mxv
 BYTE   W02
 BYTE   VOL   28*CastlevaniaSymphonyoftheNightDraculasCastle_mvl/mxv
 BYTE   W01
 BYTE   VOL   29*CastlevaniaSymphonyoftheNightDraculasCastle_mvl/mxv
 BYTE   W02
 BYTE   VOL   30*CastlevaniaSymphonyoftheNightDraculasCastle_mvl/mxv
 BYTE   W01
 BYTE   VOL   30*CastlevaniaSymphonyoftheNightDraculasCastle_mvl/mxv
 BYTE   W02
 BYTE   VOL   30*CastlevaniaSymphonyoftheNightDraculasCastle_mvl/mxv
 BYTE   W01
 BYTE   VOL   30*CastlevaniaSymphonyoftheNightDraculasCastle_mvl/mxv
 BYTE   W02
 BYTE   VOL   31*CastlevaniaSymphonyoftheNightDraculasCastle_mvl/mxv
 BYTE   W01
 BYTE   PEND 
Label_012CEE55:
 BYTE   VOL   32*CastlevaniaSymphonyoftheNightDraculasCastle_mvl/mxv
 BYTE   W02
 BYTE   VOL   31*CastlevaniaSymphonyoftheNightDraculasCastle_mvl/mxv
 BYTE   W02
 BYTE   VOL   30*CastlevaniaSymphonyoftheNightDraculasCastle_mvl/mxv
 BYTE   W01
 BYTE   VOL   30*CastlevaniaSymphonyoftheNightDraculasCastle_mvl/mxv
 BYTE   W02
 BYTE   VOL   30*CastlevaniaSymphonyoftheNightDraculasCastle_mvl/mxv
 BYTE   W01
 BYTE   VOL   30*CastlevaniaSymphonyoftheNightDraculasCastle_mvl/mxv
 BYTE   W02
 BYTE   VOL   29*CastlevaniaSymphonyoftheNightDraculasCastle_mvl/mxv
 BYTE   W01
 BYTE   VOL   28*CastlevaniaSymphonyoftheNightDraculasCastle_mvl/mxv
 BYTE   W02
 BYTE   VOL   28*CastlevaniaSymphonyoftheNightDraculasCastle_mvl/mxv
 BYTE   W01
 BYTE   VOL   28*CastlevaniaSymphonyoftheNightDraculasCastle_mvl/mxv
 BYTE   W02
 BYTE   VOL   28*CastlevaniaSymphonyoftheNightDraculasCastle_mvl/mxv
 BYTE   W01
 BYTE   VOL   27*CastlevaniaSymphonyoftheNightDraculasCastle_mvl/mxv
 BYTE   W02
 BYTE   VOL   27*CastlevaniaSymphonyoftheNightDraculasCastle_mvl/mxv
 BYTE   W01
 BYTE   VOL   27*CastlevaniaSymphonyoftheNightDraculasCastle_mvl/mxv
 BYTE   W02
 BYTE   VOL   26*CastlevaniaSymphonyoftheNightDraculasCastle_mvl/mxv
 BYTE   W01
 BYTE   VOL   26*CastlevaniaSymphonyoftheNightDraculasCastle_mvl/mxv
 BYTE   W02
 BYTE   VOL   25*CastlevaniaSymphonyoftheNightDraculasCastle_mvl/mxv
 BYTE   W01
 BYTE   VOL   25*CastlevaniaSymphonyoftheNightDraculasCastle_mvl/mxv
 BYTE   W02
 BYTE   VOL   24*CastlevaniaSymphonyoftheNightDraculasCastle_mvl/mxv
 BYTE   W01
 BYTE   VOL   23*CastlevaniaSymphonyoftheNightDraculasCastle_mvl/mxv
 BYTE   W02
 BYTE   VOL   23*CastlevaniaSymphonyoftheNightDraculasCastle_mvl/mxv
 BYTE   W01
 BYTE   VOL   23*CastlevaniaSymphonyoftheNightDraculasCastle_mvl/mxv
 BYTE   W02
 BYTE   VOL   23*CastlevaniaSymphonyoftheNightDraculasCastle_mvl/mxv
 BYTE   W01
 BYTE   VOL   22*CastlevaniaSymphonyoftheNightDraculasCastle_mvl/mxv
 BYTE   W02
 BYTE   VOL   22*CastlevaniaSymphonyoftheNightDraculasCastle_mvl/mxv
 BYTE   W01
 BYTE   VOL   22*CastlevaniaSymphonyoftheNightDraculasCastle_mvl/mxv
 BYTE   W02
 BYTE   VOL   21*CastlevaniaSymphonyoftheNightDraculasCastle_mvl/mxv
 BYTE   W01
 BYTE   VOL   21*CastlevaniaSymphonyoftheNightDraculasCastle_mvl/mxv
 BYTE   W02
 BYTE   VOL   20*CastlevaniaSymphonyoftheNightDraculasCastle_mvl/mxv
 BYTE   W01
 BYTE   VOL   20*CastlevaniaSymphonyoftheNightDraculasCastle_mvl/mxv
 BYTE   W02
 BYTE   VOL   20*CastlevaniaSymphonyoftheNightDraculasCastle_mvl/mxv
 BYTE   W01
 BYTE   VOL   19*CastlevaniaSymphonyoftheNightDraculasCastle_mvl/mxv
 BYTE   W02
 BYTE   VOL   19*CastlevaniaSymphonyoftheNightDraculasCastle_mvl/mxv
 BYTE   W01
 BYTE   VOL   19*CastlevaniaSymphonyoftheNightDraculasCastle_mvl/mxv
 BYTE   W02
 BYTE   VOL   19*CastlevaniaSymphonyoftheNightDraculasCastle_mvl/mxv
 BYTE   W01
 BYTE   VOL   18*CastlevaniaSymphonyoftheNightDraculasCastle_mvl/mxv
 BYTE   W02
 BYTE   VOL   18*CastlevaniaSymphonyoftheNightDraculasCastle_mvl/mxv
 BYTE   W01
 BYTE   VOL   18*CastlevaniaSymphonyoftheNightDraculasCastle_mvl/mxv
 BYTE   W02
 BYTE   VOL   17*CastlevaniaSymphonyoftheNightDraculasCastle_mvl/mxv
 BYTE   W01
 BYTE   VOL   17*CastlevaniaSymphonyoftheNightDraculasCastle_mvl/mxv
 BYTE   W02
 BYTE   VOL   17*CastlevaniaSymphonyoftheNightDraculasCastle_mvl/mxv
 BYTE   W01
 BYTE   VOL   17*CastlevaniaSymphonyoftheNightDraculasCastle_mvl/mxv
 BYTE   W02
 BYTE   VOL   16*CastlevaniaSymphonyoftheNightDraculasCastle_mvl/mxv
 BYTE   W01
 BYTE   VOL   15*CastlevaniaSymphonyoftheNightDraculasCastle_mvl/mxv
 BYTE   W02
 BYTE   VOL   15*CastlevaniaSymphonyoftheNightDraculasCastle_mvl/mxv
 BYTE   W01
 BYTE   VOL   15*CastlevaniaSymphonyoftheNightDraculasCastle_mvl/mxv
 BYTE   W02
 BYTE   VOL   15*CastlevaniaSymphonyoftheNightDraculasCastle_mvl/mxv
 BYTE   W01
//  #11 //058   ----------------------------------------
 BYTE   VOL   14*CastlevaniaSymphonyoftheNightDraculasCastle_mvl/mxv
 BYTE   W02
 BYTE   VOL   14*CastlevaniaSymphonyoftheNightDraculasCastle_mvl/mxv
 BYTE   W01
 BYTE   VOL   14*CastlevaniaSymphonyoftheNightDraculasCastle_mvl/mxv
 BYTE   W02
 BYTE   VOL   13*CastlevaniaSymphonyoftheNightDraculasCastle_mvl/mxv
 BYTE   W01
 BYTE   VOL   13*CastlevaniaSymphonyoftheNightDraculasCastle_mvl/mxv
 BYTE   W02
 BYTE   VOL   13*CastlevaniaSymphonyoftheNightDraculasCastle_mvl/mxv
 BYTE   W01
 BYTE   VOL   13*CastlevaniaSymphonyoftheNightDraculasCastle_mvl/mxv
 BYTE   W02
 BYTE   VOL   12*CastlevaniaSymphonyoftheNightDraculasCastle_mvl/mxv
 BYTE   W01
 BYTE   VOL   11*CastlevaniaSymphonyoftheNightDraculasCastle_mvl/mxv
 BYTE   W02
 BYTE   VOL   11*CastlevaniaSymphonyoftheNightDraculasCastle_mvl/mxv
 BYTE   W01
 BYTE   VOL   11*CastlevaniaSymphonyoftheNightDraculasCastle_mvl/mxv
 BYTE   W02
 BYTE   VOL   11*CastlevaniaSymphonyoftheNightDraculasCastle_mvl/mxv
 BYTE   W01
 BYTE   VOL   11*CastlevaniaSymphonyoftheNightDraculasCastle_mvl/mxv
 BYTE   W02
 BYTE   VOL   11*CastlevaniaSymphonyoftheNightDraculasCastle_mvl/mxv
 BYTE   W01
 BYTE   VOL   10*CastlevaniaSymphonyoftheNightDraculasCastle_mvl/mxv
 BYTE   W02
 BYTE   VOL   10*CastlevaniaSymphonyoftheNightDraculasCastle_mvl/mxv
 BYTE   W01
 BYTE   VOL   10*CastlevaniaSymphonyoftheNightDraculasCastle_mvl/mxv
 BYTE   W01
 BYTE   PEND 
Label_012CEED7:
 BYTE   W01
 BYTE   VOL   10*CastlevaniaSymphonyoftheNightDraculasCastle_mvl/mxv
 BYTE   W02
 BYTE   VOL   10*CastlevaniaSymphonyoftheNightDraculasCastle_mvl/mxv
 BYTE   W01
 BYTE   VOL   9*CastlevaniaSymphonyoftheNightDraculasCastle_mvl/mxv
 BYTE   W02
 BYTE   VOL   8*CastlevaniaSymphonyoftheNightDraculasCastle_mvl/mxv
 BYTE   W01
 BYTE   VOL   8*CastlevaniaSymphonyoftheNightDraculasCastle_mvl/mxv
 BYTE   W02
 BYTE   VOL   8*CastlevaniaSymphonyoftheNightDraculasCastle_mvl/mxv
 BYTE   W01
 BYTE   VOL   8*CastlevaniaSymphonyoftheNightDraculasCastle_mvl/mxv
 BYTE   W02
 BYTE   VOL   8*CastlevaniaSymphonyoftheNightDraculasCastle_mvl/mxv
 BYTE   W01
 BYTE   VOL   8*CastlevaniaSymphonyoftheNightDraculasCastle_mvl/mxv
 BYTE   W02
 BYTE   VOL   7*CastlevaniaSymphonyoftheNightDraculasCastle_mvl/mxv
 BYTE   W01
 BYTE   VOL   6*CastlevaniaSymphonyoftheNightDraculasCastle_mvl/mxv
 BYTE   W02
 BYTE   VOL   6*CastlevaniaSymphonyoftheNightDraculasCastle_mvl/mxv
 BYTE   W01
 BYTE   VOL   6*CastlevaniaSymphonyoftheNightDraculasCastle_mvl/mxv
 BYTE   W02
 BYTE   VOL   6*CastlevaniaSymphonyoftheNightDraculasCastle_mvl/mxv
 BYTE   W01
 BYTE   VOL   6*CastlevaniaSymphonyoftheNightDraculasCastle_mvl/mxv
 BYTE   W02
 BYTE   VOL   6*CastlevaniaSymphonyoftheNightDraculasCastle_mvl/mxv
 BYTE   W01
 BYTE   VOL   6*CastlevaniaSymphonyoftheNightDraculasCastle_mvl/mxv
 BYTE   W02
 BYTE   VOL   5*CastlevaniaSymphonyoftheNightDraculasCastle_mvl/mxv
 BYTE   W01
 BYTE   VOL   5*CastlevaniaSymphonyoftheNightDraculasCastle_mvl/mxv
 BYTE   W02
 BYTE   VOL   5*CastlevaniaSymphonyoftheNightDraculasCastle_mvl/mxv
 BYTE   W01
 BYTE   VOL   5*CastlevaniaSymphonyoftheNightDraculasCastle_mvl/mxv
 BYTE   W02
 BYTE   VOL   5*CastlevaniaSymphonyoftheNightDraculasCastle_mvl/mxv
 BYTE   W01
 BYTE   VOL   4*CastlevaniaSymphonyoftheNightDraculasCastle_mvl/mxv
 BYTE   W02
 BYTE   VOL   4*CastlevaniaSymphonyoftheNightDraculasCastle_mvl/mxv
 BYTE   W01
 BYTE   VOL   4*CastlevaniaSymphonyoftheNightDraculasCastle_mvl/mxv
 BYTE   W02
 BYTE   VOL   4*CastlevaniaSymphonyoftheNightDraculasCastle_mvl/mxv
 BYTE   W01
 BYTE   VOL   3*CastlevaniaSymphonyoftheNightDraculasCastle_mvl/mxv
 BYTE   W02
 BYTE   VOL   3*CastlevaniaSymphonyoftheNightDraculasCastle_mvl/mxv
 BYTE   W01
 BYTE   VOL   3*CastlevaniaSymphonyoftheNightDraculasCastle_mvl/mxv
 BYTE   W02
 BYTE   VOL   3*CastlevaniaSymphonyoftheNightDraculasCastle_mvl/mxv
 BYTE   W01
 BYTE   VOL   3*CastlevaniaSymphonyoftheNightDraculasCastle_mvl/mxv
 BYTE   W02
 BYTE   VOL   3*CastlevaniaSymphonyoftheNightDraculasCastle_mvl/mxv
 BYTE   W01
 BYTE   VOL   3*CastlevaniaSymphonyoftheNightDraculasCastle_mvl/mxv
 BYTE   W02
 BYTE   VOL   2*CastlevaniaSymphonyoftheNightDraculasCastle_mvl/mxv
 BYTE   W01
 BYTE   VOL   2*CastlevaniaSymphonyoftheNightDraculasCastle_mvl/mxv
 BYTE   W02
 BYTE   VOL   2*CastlevaniaSymphonyoftheNightDraculasCastle_mvl/mxv
 BYTE   W01
 BYTE   VOL   2*CastlevaniaSymphonyoftheNightDraculasCastle_mvl/mxv
 BYTE   W02
 BYTE   VOL   2*CastlevaniaSymphonyoftheNightDraculasCastle_mvl/mxv
 BYTE   W01
 BYTE   VOL   1*CastlevaniaSymphonyoftheNightDraculasCastle_mvl/mxv
 BYTE   W02
 BYTE   VOL   1*CastlevaniaSymphonyoftheNightDraculasCastle_mvl/mxv
 BYTE   W01
 BYTE   VOL   1*CastlevaniaSymphonyoftheNightDraculasCastle_mvl/mxv
 BYTE   W02
 BYTE   VOL   1*CastlevaniaSymphonyoftheNightDraculasCastle_mvl/mxv
 BYTE   W01
 BYTE   VOL   1*CastlevaniaSymphonyoftheNightDraculasCastle_mvl/mxv
 BYTE   W02
 BYTE   VOL   1*CastlevaniaSymphonyoftheNightDraculasCastle_mvl/mxv
 BYTE   W01
 BYTE   VOL   1*CastlevaniaSymphonyoftheNightDraculasCastle_mvl/mxv
 BYTE   W02
 BYTE   VOL   1*CastlevaniaSymphonyoftheNightDraculasCastle_mvl/mxv
 BYTE   W01
 BYTE   VOL   1*CastlevaniaSymphonyoftheNightDraculasCastle_mvl/mxv
 BYTE   W02
//  #11 //059   ----------------------------------------
 BYTE   VOL   1*CastlevaniaSymphonyoftheNightDraculasCastle_mvl/mxv
 BYTE   W01
 BYTE   VOL   0*CastlevaniaSymphonyoftheNightDraculasCastle_mvl/mxv
 BYTE   W02
 BYTE   VOL   0*CastlevaniaSymphonyoftheNightDraculasCastle_mvl/mxv
 BYTE   W01
 BYTE   VOL   0*CastlevaniaSymphonyoftheNightDraculasCastle_mvl/mxv
 BYTE   W02
 BYTE   VOL   0*CastlevaniaSymphonyoftheNightDraculasCastle_mvl/mxv
 BYTE   W01
 BYTE   VOL   0*CastlevaniaSymphonyoftheNightDraculasCastle_mvl/mxv
 BYTE   W02
 BYTE   VOL   0*CastlevaniaSymphonyoftheNightDraculasCastle_mvl/mxv
 BYTE   W01
 BYTE   VOL   0*CastlevaniaSymphonyoftheNightDraculasCastle_mvl/mxv
 BYTE   W02
 BYTE   VOL   0*CastlevaniaSymphonyoftheNightDraculasCastle_mvl/mxv
 BYTE   W01
 BYTE   VOL   0*CastlevaniaSymphonyoftheNightDraculasCastle_mvl/mxv
 BYTE   W02
 BYTE   VOL   0*CastlevaniaSymphonyoftheNightDraculasCastle_mvl/mxv
 BYTE   W01
 BYTE   VOL   0*CastlevaniaSymphonyoftheNightDraculasCastle_mvl/mxv
 BYTE   W02
 BYTE   VOL   0*CastlevaniaSymphonyoftheNightDraculasCastle_mvl/mxv
 BYTE   W01
 BYTE   VOL   0*CastlevaniaSymphonyoftheNightDraculasCastle_mvl/mxv
 BYTE   W02
 BYTE   VOL   0*CastlevaniaSymphonyoftheNightDraculasCastle_mvl/mxv
 BYTE   W01
 BYTE   VOL   0*CastlevaniaSymphonyoftheNightDraculasCastle_mvl/mxv
 BYTE   W01
 BYTE   PEND 
 BYTE   EOT
 BYTE   Fn3  v077
 BYTE   W01
 BYTE   VOL   0*CastlevaniaSymphonyoftheNightDraculasCastle_mvl/mxv
 BYTE   W96
//  #11 //060   ----------------------------------------
 BYTE   GoTo
  POIN2 Label_012CEBB4
//  #11 //061   ----------------------------------------
 BYTE   VOL   32*CastlevaniaSymphonyoftheNightDraculasCastle_mvl/mxv
 BYTE   W96
//  #11 //062   ----------------------------------------
 BYTE   W96
//  #11 //063   ----------------------------------------
 BYTE   W96
//  #11 //064   ----------------------------------------
 BYTE   W96
//  #11 //065   ----------------------------------------
 BYTE   W96
//  #11 //066   ----------------------------------------
 BYTE   W96
//  #11 //067   ----------------------------------------
 BYTE   W96
//  #11 //068   ----------------------------------------
 BYTE   W96
//  #11 //069   ----------------------------------------
 BYTE   W96
//  #11 //070   ----------------------------------------
 BYTE   W96
//  #11 //071   ----------------------------------------
 BYTE   W96
//  #11 //072   ----------------------------------------
 BYTE   W96
//  #11 //073   ----------------------------------------
 BYTE   W96
//  #11 //074   ----------------------------------------
 BYTE   W96
//  #11 //075   ----------------------------------------
 BYTE   W96
//  #11 //076   ----------------------------------------
 BYTE   W96
//  #11 //077   ----------------------------------------
 BYTE   W96
//  #11 //078   ----------------------------------------
 BYTE   W96
//  #11 //079   ----------------------------------------
 BYTE   W96
//  #11 //080   ----------------------------------------
 BYTE   W96
//  #11 //081   ----------------------------------------
 BYTE   W96
//  #11 //082   ----------------------------------------
 BYTE   W96
//  #11 //083   ----------------------------------------
 BYTE   W96
//  #11 //084   ----------------------------------------
 BYTE   W96
//  #11 //085   ----------------------------------------
 BYTE   W96
//  #11 //086   ----------------------------------------
 BYTE   W96
//  #11 //087   ----------------------------------------
 BYTE   W96
//  #11 //088   ----------------------------------------
 BYTE   W96
//  #11 //089   ----------------------------------------
 BYTE   W96
//  #11 //090   ----------------------------------------
 BYTE   W96
//  #11 //091   ----------------------------------------
 BYTE   W96
//  #11 //092   ----------------------------------------
 BYTE   W96
//  #11 //093   ----------------------------------------
 BYTE   W96
//  #11 //094   ----------------------------------------
 BYTE   W96
//  #11 //095   ----------------------------------------
 BYTE   W96
//  #11 //096   ----------------------------------------
 BYTE   PATT
  POIN2 Label_012CEBD9
//  #11 //097   ----------------------------------------
 BYTE   PATT
  POIN2 Label_012CEC45
//  #11 //098   ----------------------------------------
 BYTE   EOT
 BYTE   Fn4  v085
 BYTE   W01
//  #11 //099   ----------------------------------------
 BYTE   PATT
  POIN2 Label_012CECAF
//  #11 //100   ----------------------------------------
 BYTE   PATT
  POIN2 Label_012CED1B
//  #11 //101   ----------------------------------------
 BYTE   EOT
 BYTE   Fn4  v085
 BYTE   W01
 BYTE   VOL   18*CastlevaniaSymphonyoftheNightDraculasCastle_mvl/mxv
 BYTE   N23  Ds4  v036
 BYTE   N23  Cn5  v048
 BYTE   W02
 BYTE   VOL   18*CastlevaniaSymphonyoftheNightDraculasCastle_mvl/mxv
 BYTE   W02
 BYTE   VOL   17*CastlevaniaSymphonyoftheNightDraculasCastle_mvl/mxv
 BYTE   W02
 BYTE   VOL   17*CastlevaniaSymphonyoftheNightDraculasCastle_mvl/mxv
 BYTE   W02
 BYTE   VOL   17*CastlevaniaSymphonyoftheNightDraculasCastle_mvl/mxv
 BYTE   W02
 BYTE   VOL   17*CastlevaniaSymphonyoftheNightDraculasCastle_mvl/mxv
 BYTE   W02
 BYTE   VOL   16*CastlevaniaSymphonyoftheNightDraculasCastle_mvl/mxv
 BYTE   W02
 BYTE   VOL   15*CastlevaniaSymphonyoftheNightDraculasCastle_mvl/mxv
 BYTE   W02
 BYTE   VOL   15*CastlevaniaSymphonyoftheNightDraculasCastle_mvl/mxv
 BYTE   W02
 BYTE   VOL   15*CastlevaniaSymphonyoftheNightDraculasCastle_mvl/mxv
 BYTE   W02
 BYTE   VOL   15*CastlevaniaSymphonyoftheNightDraculasCastle_mvl/mxv
 BYTE   W02
 BYTE   VOL   14*CastlevaniaSymphonyoftheNightDraculasCastle_mvl/mxv
 BYTE   W02
//  #11 //102   ----------------------------------------
 BYTE   PATT
  POIN2 Label_012CEBD9
//  #11 //103   ----------------------------------------
 BYTE   PATT
  POIN2 Label_012CEC45
//  #11 //104   ----------------------------------------
 BYTE   EOT
 BYTE   Fn4  v085
 BYTE   W01
//  #11 //105   ----------------------------------------
 BYTE   PATT
  POIN2 Label_012CECAF
//  #11 //106   ----------------------------------------
 BYTE   PATT
  POIN2 Label_012CED1B
//  #11 //107   ----------------------------------------
 BYTE   EOT
 BYTE   Fn4  v085
 BYTE   W01
 BYTE   VOL   18*CastlevaniaSymphonyoftheNightDraculasCastle_mvl/mxv
 BYTE   N23  Ds4  v036
 BYTE   N23  Cn5  v048
 BYTE   W02
 BYTE   VOL   18*CastlevaniaSymphonyoftheNightDraculasCastle_mvl/mxv
 BYTE   W02
 BYTE   VOL   17*CastlevaniaSymphonyoftheNightDraculasCastle_mvl/mxv
 BYTE   W02
 BYTE   VOL   17*CastlevaniaSymphonyoftheNightDraculasCastle_mvl/mxv
 BYTE   W02
 BYTE   VOL   17*CastlevaniaSymphonyoftheNightDraculasCastle_mvl/mxv
 BYTE   W02
 BYTE   VOL   17*CastlevaniaSymphonyoftheNightDraculasCastle_mvl/mxv
 BYTE   W02
 BYTE   VOL   16*CastlevaniaSymphonyoftheNightDraculasCastle_mvl/mxv
 BYTE   W02
 BYTE   VOL   15*CastlevaniaSymphonyoftheNightDraculasCastle_mvl/mxv
 BYTE   W02
 BYTE   VOL   15*CastlevaniaSymphonyoftheNightDraculasCastle_mvl/mxv
 BYTE   W02
 BYTE   VOL   15*CastlevaniaSymphonyoftheNightDraculasCastle_mvl/mxv
 BYTE   W02
 BYTE   VOL   15*CastlevaniaSymphonyoftheNightDraculasCastle_mvl/mxv
 BYTE   W02
 BYTE   VOL   14*CastlevaniaSymphonyoftheNightDraculasCastle_mvl/mxv
 BYTE   W02
//  #11 //108   ----------------------------------------
 BYTE   PATT
  POIN2 Label_012CEDCC
//  #11 //109   ----------------------------------------
 BYTE   PATT
  POIN2 Label_012CEE55
//  #11 //110   ----------------------------------------
 BYTE   PATT
  POIN2 Label_012CEED7
//  #11 //111   ----------------------------------------
 BYTE   EOT
 BYTE   Fn3  v077
 BYTE   W01
 BYTE   VOL   0*CastlevaniaSymphonyoftheNightDraculasCastle_mvl/mxv
 BYTE   W96
//  #11 //112   ----------------------------------------
 BYTE   VOL   32*CastlevaniaSymphonyoftheNightDraculasCastle_mvl/mxv
 BYTE   FINE

//**************** Track 12 (Midi-Chn.11) ****************//

CastlevaniaSymphonyoftheNightDraculasCastle_012:
//  #12 //000   ----------------------------------------
 BYTE   KEYSH   CastlevaniaSymphonyoftheNightDraculasCastle_key+0
 BYTE   VOICE   11
 BYTE   MODT 0
 BYTE   LFOS 44
 BYTE   VOL   80*CastlevaniaSymphonyoftheNightDraculasCastle_mvl/mxv
 BYTE   PAN   c_v-20
 BYTE   VOL   32*CastlevaniaSymphonyoftheNightDraculasCastle_mvl/mxv
 BYTE   MOD 0
 BYTE   N11  Bn4  v060
 BYTE   W12
 BYTE   Bn5  v072
 BYTE   W12
 BYTE   Bn4  v060
 BYTE   W12
 BYTE   Bn5  v072
 BYTE   W12
 BYTE   Bn4  v060
 BYTE   W12
 BYTE   Bn5  v072
 BYTE   W12
 BYTE   Bn4  v060
 BYTE   W12
 BYTE   Bn5  v072
 BYTE   W12
//  #12 //001   ----------------------------------------
Label_01307A3D:
 BYTE   N11  Bn4  v060
 BYTE   W12
 BYTE   Bn5  v072
 BYTE   W12
 BYTE   Bn4  v060
 BYTE   W12
 BYTE   Bn5  v072
 BYTE   W12
 BYTE   Bn4  v060
 BYTE   W12
 BYTE   Bn5  v072
 BYTE   W12
 BYTE   Bn4  v060
 BYTE   W12
 BYTE   Bn5  v072
 BYTE   W12
 BYTE   PEND 
//  #12 //002   ----------------------------------------
Label_01307A57:
 BYTE   N11  Gn4  v060
 BYTE   W12
 BYTE   Gn5  v072
 BYTE   W12
 BYTE   Gn4  v060
 BYTE   W12
 BYTE   Gn5  v072
 BYTE   W12
 BYTE   Gn4  v060
 BYTE   W12
 BYTE   Gn5  v072
 BYTE   W12
 BYTE   Gn4  v060
 BYTE   W12
 BYTE   Gn5  v072
 BYTE   W12
 BYTE   PEND 
//  #12 //003   ----------------------------------------
 BYTE   PATT
  POIN2 Label_01307A57
//  #12 //004   ----------------------------------------
 BYTE   PATT
  POIN2 Label_01307A3D
//  #12 //005   ----------------------------------------
 BYTE   PATT
  POIN2 Label_01307A3D
//  #12 //006   ----------------------------------------
 BYTE   N11  Dn5  v036
 BYTE   W12
 BYTE   Dn6  v048
 BYTE   W12
 BYTE   Dn5  v060
 BYTE   W12
 BYTE   Dn6  v072
 BYTE   W12
 BYTE   Dn5  v060
 BYTE   W12
 BYTE   Dn6  v072
 BYTE   W12
 BYTE   Dn5  v060
 BYTE   W12
 BYTE   Dn6  v072
 BYTE   W12
//  #12 //007   ----------------------------------------
 BYTE   Dn5  v048
 BYTE   W96
//  #12 //008   ----------------------------------------
Label_01307A9C:
 BYTE   N11  Dn5  v060
 BYTE   W12
 BYTE   Dn6  v072
 BYTE   W12
 BYTE   Dn5  v060
 BYTE   W12
 BYTE   Dn6  v072
 BYTE   W12
 BYTE   Dn5  v060
 BYTE   W12
 BYTE   Dn6  v072
 BYTE   W12
 BYTE   Dn5  v060
 BYTE   W12
 BYTE   Dn6  v072
 BYTE   W12
 BYTE   PEND 
//  #12 //009   ----------------------------------------
 BYTE   PATT
  POIN2 Label_01307A9C
//  #12 //010   ----------------------------------------
 BYTE   PATT
  POIN2 Label_01307A9C
//  #12 //011   ----------------------------------------
 BYTE   N11  Dn5  v060
 BYTE   W12
 BYTE   Dn6  v048
 BYTE   W12
 BYTE   Dn5  v036
 BYTE   W12
 BYTE   Dn6  v028
 BYTE   W12
 BYTE   Dn5  v020
 BYTE   W12
 BYTE   Dn6  v012
 BYTE   W12
 BYTE   Dn5  v008
 BYTE   W12
 BYTE   Dn6  v004
 BYTE   W12
//  #12 //012   ----------------------------------------
Label_01307AD9:
 BYTE   W96
//  #12 //013   ----------------------------------------
 BYTE   W96
//  #12 //014   ----------------------------------------
 BYTE   W96
//  #12 //015   ----------------------------------------
 BYTE   W96
//  #12 //016   ----------------------------------------
 BYTE   W96
//  #12 //017   ----------------------------------------
 BYTE   W96
//  #12 //018   ----------------------------------------
 BYTE   W96
//  #12 //019   ----------------------------------------
 BYTE   W96
//  #12 //020   ----------------------------------------
 BYTE   W96
//  #12 //021   ----------------------------------------
 BYTE   W96
//  #12 //022   ----------------------------------------
 BYTE   W96
//  #12 //023   ----------------------------------------
 BYTE   W96
//  #12 //024   ----------------------------------------
 BYTE   W96
//  #12 //025   ----------------------------------------
 BYTE   W96
//  #12 //026   ----------------------------------------
 BYTE   W96
//  #12 //027   ----------------------------------------
 BYTE   W96
//  #12 //028   ----------------------------------------
 BYTE   W96
//  #12 //029   ----------------------------------------
 BYTE   W96
//  #12 //030   ----------------------------------------
 BYTE   W96
//  #12 //031   ----------------------------------------
 BYTE   W96
//  #12 //032   ----------------------------------------
 BYTE   W96
//  #12 //033   ----------------------------------------
 BYTE   W96
//  #12 //034   ----------------------------------------
 BYTE   W96
//  #12 //035   ----------------------------------------
 BYTE   W96
//  #12 //036   ----------------------------------------
 BYTE   W96
//  #12 //037   ----------------------------------------
 BYTE   W96
//  #12 //038   ----------------------------------------
 BYTE   W96
//  #12 //039   ----------------------------------------
 BYTE   W96
//  #12 //040   ----------------------------------------
 BYTE   W96
//  #12 //041   ----------------------------------------
 BYTE   W96
//  #12 //042   ----------------------------------------
 BYTE   W96
//  #12 //043   ----------------------------------------
 BYTE   W96
//  #12 //044   ----------------------------------------
 BYTE   W96
//  #12 //045   ----------------------------------------
 BYTE   W96
//  #12 //046   ----------------------------------------
 BYTE   W96
//  #12 //047   ----------------------------------------
Label_01307AFC:
 BYTE   N11  As5  v060
 BYTE   W12
 BYTE   Ds6  v072
 BYTE   W12
 BYTE   Fn6  v088
 BYTE   W12
 BYTE   As5  v060
 BYTE   W12
 BYTE   As5  v048
 BYTE   W12
 BYTE   N05  Ds6  v060
 BYTE   W06
 BYTE   N11  Fn6  v088
 BYTE   W12
 BYTE   N05  As5  v060
 BYTE   W06
 BYTE   N11  As5  v048
 BYTE   W12
 BYTE   PEND 
//  #12 //048   ----------------------------------------
Label_01307B1D:
 BYTE   N11  As5  v060
 BYTE   W12
 BYTE   Ds6  v072
 BYTE   W12
 BYTE   Fn6  v088
 BYTE   W12
 BYTE   As5  v072
 BYTE   W12
 BYTE   N17  As6  v088
 BYTE   W18
 BYTE   Gs6  v072
 BYTE   W18
 BYTE   N11  As6  v088
 BYTE   W12
 BYTE   PEND 
//  #12 //049   ----------------------------------------
 BYTE   PATT
  POIN2 Label_01307AFC
//  #12 //050   ----------------------------------------
Label_01307B3B:
 BYTE   N11  As5  v060
 BYTE   W12
 BYTE   Ds6  v072
 BYTE   W12
 BYTE   Fn6  v088
 BYTE   W12
 BYTE   As5  v072
 BYTE   W12
 BYTE   N17  As6  v088
 BYTE   W18
 BYTE   An6  v072
 BYTE   W18
 BYTE   N11  Fs6  v088
 BYTE   W12
 BYTE   PEND 
//  #12 //051   ----------------------------------------
 BYTE   PATT
  POIN2 Label_01307AFC
//  #12 //052   ----------------------------------------
 BYTE   PATT
  POIN2 Label_01307B1D
//  #12 //053   ----------------------------------------
 BYTE   PATT
  POIN2 Label_01307AFC
//  #12 //054   ----------------------------------------
 BYTE   PATT
  POIN2 Label_01307B3B
//  #12 //055   ----------------------------------------
 BYTE   W96
//  #12 //056   ----------------------------------------
 BYTE   W96
//  #12 //057   ----------------------------------------
 BYTE   W96
//  #12 //058   ----------------------------------------
 BYTE   W96
//  #12 //059   ----------------------------------------
 BYTE   GoTo
  POIN2 Label_01307AD9
//  #12 //060   ----------------------------------------
 BYTE   W96
//  #12 //061   ----------------------------------------
 BYTE   W96
//  #12 //062   ----------------------------------------
 BYTE   W96
//  #12 //063   ----------------------------------------
 BYTE   W96
//  #12 //064   ----------------------------------------
 BYTE   W96
//  #12 //065   ----------------------------------------
 BYTE   W96
//  #12 //066   ----------------------------------------
 BYTE   W96
//  #12 //067   ----------------------------------------
 BYTE   W96
//  #12 //068   ----------------------------------------
 BYTE   W96
//  #12 //069   ----------------------------------------
 BYTE   W96
//  #12 //070   ----------------------------------------
 BYTE   W96
//  #12 //071   ----------------------------------------
 BYTE   W96
//  #12 //072   ----------------------------------------
 BYTE   W96
//  #12 //073   ----------------------------------------
 BYTE   W96
//  #12 //074   ----------------------------------------
 BYTE   W96
//  #12 //075   ----------------------------------------
 BYTE   W96
//  #12 //076   ----------------------------------------
 BYTE   W96
//  #12 //077   ----------------------------------------
 BYTE   W96
//  #12 //078   ----------------------------------------
 BYTE   W96
//  #12 //079   ----------------------------------------
 BYTE   W96
//  #12 //080   ----------------------------------------
 BYTE   W96
//  #12 //081   ----------------------------------------
 BYTE   W96
//  #12 //082   ----------------------------------------
 BYTE   W96
//  #12 //083   ----------------------------------------
 BYTE   W96
//  #12 //084   ----------------------------------------
 BYTE   W96
//  #12 //085   ----------------------------------------
 BYTE   W96
//  #12 //086   ----------------------------------------
 BYTE   W96
//  #12 //087   ----------------------------------------
 BYTE   W96
//  #12 //088   ----------------------------------------
 BYTE   W96
//  #12 //089   ----------------------------------------
 BYTE   W96
//  #12 //090   ----------------------------------------
 BYTE   W96
//  #12 //091   ----------------------------------------
 BYTE   W96
//  #12 //092   ----------------------------------------
 BYTE   W96
//  #12 //093   ----------------------------------------
 BYTE   W96
//  #12 //094   ----------------------------------------
 BYTE   W96
//  #12 //095   ----------------------------------------
 BYTE   PATT
  POIN2 Label_01307AFC
//  #12 //096   ----------------------------------------
 BYTE   PATT
  POIN2 Label_01307B1D
//  #12 //097   ----------------------------------------
 BYTE   PATT
  POIN2 Label_01307AFC
//  #12 //098   ----------------------------------------
 BYTE   PATT
  POIN2 Label_01307B3B
//  #12 //099   ----------------------------------------
 BYTE   PATT
  POIN2 Label_01307AFC
//  #12 //100   ----------------------------------------
 BYTE   PATT
  POIN2 Label_01307B1D
//  #12 //101   ----------------------------------------
 BYTE   PATT
  POIN2 Label_01307AFC
//  #12 //102   ----------------------------------------
 BYTE   PATT
  POIN2 Label_01307B3B
//  #12 //103   ----------------------------------------
 BYTE   W96
//  #12 //104   ----------------------------------------
 BYTE   W96
//  #12 //105   ----------------------------------------
 BYTE   W96
//  #12 //106   ----------------------------------------
 BYTE   W09
 BYTE   FINE

//**************** Track 13 (Midi-Chn.12) ****************//

CastlevaniaSymphonyoftheNightDraculasCastle_013:
//  #13 //000   ----------------------------------------
 BYTE   KEYSH   CastlevaniaSymphonyoftheNightDraculasCastle_key+0
 BYTE   VOICE   81
 BYTE   MODT 0
 BYTE   LFOS 44
 BYTE   VOL   80*CastlevaniaSymphonyoftheNightDraculasCastle_mvl/mxv
 BYTE   PAN   c_v+0
 BYTE   VOL   40*CastlevaniaSymphonyoftheNightDraculasCastle_mvl/mxv
 BYTE   MOD 0
 BYTE   TIE  Bn1  v072
 BYTE   W96
//  #13 //001   ----------------------------------------
 BYTE   W92
 BYTE   W03
 BYTE   EOT
 BYTE   W01
//  #13 //002   ----------------------------------------
 BYTE   TIE  Gn1
 BYTE   W96
//  #13 //003   ----------------------------------------
 BYTE   W92
 BYTE   W03
 BYTE   EOT
 BYTE   W01
//  #13 //004   ----------------------------------------
 BYTE   TIE  Bn1
 BYTE   W96
//  #13 //005   ----------------------------------------
 BYTE   W92
 BYTE   W03
 BYTE   EOT
 BYTE   W01
//  #13 //006   ----------------------------------------
 BYTE   TIE  Cn2
 BYTE   W96
//  #13 //007   ----------------------------------------
 BYTE   W92
 BYTE   W03
 BYTE   EOT
 BYTE   W01
//  #13 //008   ----------------------------------------
 BYTE   TIE  Dn3
 BYTE   W96
//  #13 //009   ----------------------------------------
 BYTE   VOL   40*CastlevaniaSymphonyoftheNightDraculasCastle_mvl/mxv
 BYTE   W02
 BYTE   VOL   39*CastlevaniaSymphonyoftheNightDraculasCastle_mvl/mxv
 BYTE   W02
 BYTE   VOL   38*CastlevaniaSymphonyoftheNightDraculasCastle_mvl/mxv
 BYTE   W01
 BYTE   VOL   38*CastlevaniaSymphonyoftheNightDraculasCastle_mvl/mxv
 BYTE   W02
 BYTE   VOL   37*CastlevaniaSymphonyoftheNightDraculasCastle_mvl/mxv
 BYTE   W01
 BYTE   VOL   37*CastlevaniaSymphonyoftheNightDraculasCastle_mvl/mxv
 BYTE   W02
 BYTE   VOL   37*CastlevaniaSymphonyoftheNightDraculasCastle_mvl/mxv
 BYTE   W01
 BYTE   VOL   36*CastlevaniaSymphonyoftheNightDraculasCastle_mvl/mxv
 BYTE   W02
 BYTE   VOL   35*CastlevaniaSymphonyoftheNightDraculasCastle_mvl/mxv
 BYTE   W01
 BYTE   VOL   35*CastlevaniaSymphonyoftheNightDraculasCastle_mvl/mxv
 BYTE   W02
 BYTE   VOL   34*CastlevaniaSymphonyoftheNightDraculasCastle_mvl/mxv
 BYTE   W01
 BYTE   VOL   34*CastlevaniaSymphonyoftheNightDraculasCastle_mvl/mxv
 BYTE   W02
 BYTE   VOL   34*CastlevaniaSymphonyoftheNightDraculasCastle_mvl/mxv
 BYTE   W01
 BYTE   VOL   33*CastlevaniaSymphonyoftheNightDraculasCastle_mvl/mxv
 BYTE   W02
 BYTE   VOL   32*CastlevaniaSymphonyoftheNightDraculasCastle_mvl/mxv
 BYTE   W01
 BYTE   VOL   32*CastlevaniaSymphonyoftheNightDraculasCastle_mvl/mxv
 BYTE   W02
 BYTE   VOL   31*CastlevaniaSymphonyoftheNightDraculasCastle_mvl/mxv
 BYTE   W01
 BYTE   VOL   30*CastlevaniaSymphonyoftheNightDraculasCastle_mvl/mxv
 BYTE   W02
 BYTE   VOL   30*CastlevaniaSymphonyoftheNightDraculasCastle_mvl/mxv
 BYTE   W01
 BYTE   VOL   30*CastlevaniaSymphonyoftheNightDraculasCastle_mvl/mxv
 BYTE   W02
 BYTE   VOL   29*CastlevaniaSymphonyoftheNightDraculasCastle_mvl/mxv
 BYTE   W01
 BYTE   VOL   29*CastlevaniaSymphonyoftheNightDraculasCastle_mvl/mxv
 BYTE   W02
 BYTE   VOL   28*CastlevaniaSymphonyoftheNightDraculasCastle_mvl/mxv
 BYTE   W01
 BYTE   VOL   28*CastlevaniaSymphonyoftheNightDraculasCastle_mvl/mxv
 BYTE   W02
 BYTE   VOL   28*CastlevaniaSymphonyoftheNightDraculasCastle_mvl/mxv
 BYTE   W01
 BYTE   VOL   27*CastlevaniaSymphonyoftheNightDraculasCastle_mvl/mxv
 BYTE   W02
 BYTE   VOL   27*CastlevaniaSymphonyoftheNightDraculasCastle_mvl/mxv
 BYTE   W01
 BYTE   VOL   27*CastlevaniaSymphonyoftheNightDraculasCastle_mvl/mxv
 BYTE   W02
 BYTE   VOL   26*CastlevaniaSymphonyoftheNightDraculasCastle_mvl/mxv
 BYTE   W01
 BYTE   VOL   25*CastlevaniaSymphonyoftheNightDraculasCastle_mvl/mxv
 BYTE   W02
 BYTE   VOL   25*CastlevaniaSymphonyoftheNightDraculasCastle_mvl/mxv
 BYTE   W01
 BYTE   VOL   24*CastlevaniaSymphonyoftheNightDraculasCastle_mvl/mxv
 BYTE   W02
 BYTE   VOL   23*CastlevaniaSymphonyoftheNightDraculasCastle_mvl/mxv
 BYTE   W01
 BYTE   VOL   23*CastlevaniaSymphonyoftheNightDraculasCastle_mvl/mxv
 BYTE   W02
 BYTE   VOL   23*CastlevaniaSymphonyoftheNightDraculasCastle_mvl/mxv
 BYTE   W01
 BYTE   VOL   22*CastlevaniaSymphonyoftheNightDraculasCastle_mvl/mxv
 BYTE   W02
 BYTE   VOL   22*CastlevaniaSymphonyoftheNightDraculasCastle_mvl/mxv
 BYTE   W01
 BYTE   VOL   22*CastlevaniaSymphonyoftheNightDraculasCastle_mvl/mxv
 BYTE   W02
 BYTE   VOL   21*CastlevaniaSymphonyoftheNightDraculasCastle_mvl/mxv
 BYTE   W01
 BYTE   VOL   21*CastlevaniaSymphonyoftheNightDraculasCastle_mvl/mxv
 BYTE   W02
 BYTE   VOL   20*CastlevaniaSymphonyoftheNightDraculasCastle_mvl/mxv
 BYTE   W01
 BYTE   VOL   20*CastlevaniaSymphonyoftheNightDraculasCastle_mvl/mxv
 BYTE   W02
 BYTE   VOL   20*CastlevaniaSymphonyoftheNightDraculasCastle_mvl/mxv
 BYTE   W01
 BYTE   VOL   19*CastlevaniaSymphonyoftheNightDraculasCastle_mvl/mxv
 BYTE   W02
 BYTE   VOL   19*CastlevaniaSymphonyoftheNightDraculasCastle_mvl/mxv
 BYTE   W01
 BYTE   VOL   19*CastlevaniaSymphonyoftheNightDraculasCastle_mvl/mxv
 BYTE   W02
 BYTE   VOL   18*CastlevaniaSymphonyoftheNightDraculasCastle_mvl/mxv
 BYTE   W01
 BYTE   VOL   18*CastlevaniaSymphonyoftheNightDraculasCastle_mvl/mxv
 BYTE   W02
 BYTE   VOL   18*CastlevaniaSymphonyoftheNightDraculasCastle_mvl/mxv
 BYTE   W01
 BYTE   VOL   17*CastlevaniaSymphonyoftheNightDraculasCastle_mvl/mxv
 BYTE   W02
 BYTE   VOL   17*CastlevaniaSymphonyoftheNightDraculasCastle_mvl/mxv
 BYTE   W01
 BYTE   VOL   17*CastlevaniaSymphonyoftheNightDraculasCastle_mvl/mxv
 BYTE   W02
 BYTE   VOL   16*CastlevaniaSymphonyoftheNightDraculasCastle_mvl/mxv
 BYTE   W01
 BYTE   VOL   15*CastlevaniaSymphonyoftheNightDraculasCastle_mvl/mxv
 BYTE   W02
 BYTE   VOL   15*CastlevaniaSymphonyoftheNightDraculasCastle_mvl/mxv
 BYTE   W01
 BYTE   VOL   15*CastlevaniaSymphonyoftheNightDraculasCastle_mvl/mxv
 BYTE   W02
 BYTE   VOL   14*CastlevaniaSymphonyoftheNightDraculasCastle_mvl/mxv
 BYTE   W01
 BYTE   VOL   14*CastlevaniaSymphonyoftheNightDraculasCastle_mvl/mxv
 BYTE   W02
 BYTE   VOL   14*CastlevaniaSymphonyoftheNightDraculasCastle_mvl/mxv
 BYTE   W01
 BYTE   VOL   13*CastlevaniaSymphonyoftheNightDraculasCastle_mvl/mxv
 BYTE   W02
 BYTE   VOL   13*CastlevaniaSymphonyoftheNightDraculasCastle_mvl/mxv
 BYTE   W01
 BYTE   VOL   13*CastlevaniaSymphonyoftheNightDraculasCastle_mvl/mxv
 BYTE   W02
 BYTE   VOL   12*CastlevaniaSymphonyoftheNightDraculasCastle_mvl/mxv
 BYTE   W01
 BYTE   VOL   12*CastlevaniaSymphonyoftheNightDraculasCastle_mvl/mxv
 BYTE   W01
//  #13 //010   ----------------------------------------
 BYTE   W01
 BYTE   VOL   11*CastlevaniaSymphonyoftheNightDraculasCastle_mvl/mxv
 BYTE   W02
 BYTE   VOL   11*CastlevaniaSymphonyoftheNightDraculasCastle_mvl/mxv
 BYTE   W01
 BYTE   VOL   11*CastlevaniaSymphonyoftheNightDraculasCastle_mvl/mxv
 BYTE   W02
 BYTE   VOL   11*CastlevaniaSymphonyoftheNightDraculasCastle_mvl/mxv
 BYTE   W01
 BYTE   VOL   11*CastlevaniaSymphonyoftheNightDraculasCastle_mvl/mxv
 BYTE   W02
 BYTE   VOL   10*CastlevaniaSymphonyoftheNightDraculasCastle_mvl/mxv
 BYTE   W01
 BYTE   VOL   10*CastlevaniaSymphonyoftheNightDraculasCastle_mvl/mxv
 BYTE   W02
 BYTE   VOL   10*CastlevaniaSymphonyoftheNightDraculasCastle_mvl/mxv
 BYTE   W01
 BYTE   VOL   10*CastlevaniaSymphonyoftheNightDraculasCastle_mvl/mxv
 BYTE   W02
 BYTE   VOL   9*CastlevaniaSymphonyoftheNightDraculasCastle_mvl/mxv
 BYTE   W01
 BYTE   VOL   9*CastlevaniaSymphonyoftheNightDraculasCastle_mvl/mxv
 BYTE   W02
 BYTE   VOL   8*CastlevaniaSymphonyoftheNightDraculasCastle_mvl/mxv
 BYTE   W01
 BYTE   VOL   8*CastlevaniaSymphonyoftheNightDraculasCastle_mvl/mxv
 BYTE   W02
 BYTE   VOL   8*CastlevaniaSymphonyoftheNightDraculasCastle_mvl/mxv
 BYTE   W01
 BYTE   VOL   8*CastlevaniaSymphonyoftheNightDraculasCastle_mvl/mxv
 BYTE   W02
 BYTE   VOL   7*CastlevaniaSymphonyoftheNightDraculasCastle_mvl/mxv
 BYTE   W01
 BYTE   VOL   7*CastlevaniaSymphonyoftheNightDraculasCastle_mvl/mxv
 BYTE   W02
 BYTE   VOL   6*CastlevaniaSymphonyoftheNightDraculasCastle_mvl/mxv
 BYTE   W01
 BYTE   VOL   6*CastlevaniaSymphonyoftheNightDraculasCastle_mvl/mxv
 BYTE   W02
 BYTE   VOL   6*CastlevaniaSymphonyoftheNightDraculasCastle_mvl/mxv
 BYTE   W01
 BYTE   VOL   6*CastlevaniaSymphonyoftheNightDraculasCastle_mvl/mxv
 BYTE   W02
 BYTE   VOL   6*CastlevaniaSymphonyoftheNightDraculasCastle_mvl/mxv
 BYTE   W01
 BYTE   VOL   6*CastlevaniaSymphonyoftheNightDraculasCastle_mvl/mxv
 BYTE   W02
 BYTE   VOL   5*CastlevaniaSymphonyoftheNightDraculasCastle_mvl/mxv
 BYTE   W01
 BYTE   VOL   5*CastlevaniaSymphonyoftheNightDraculasCastle_mvl/mxv
 BYTE   W02
 BYTE   VOL   5*CastlevaniaSymphonyoftheNightDraculasCastle_mvl/mxv
 BYTE   W01
 BYTE   VOL   5*CastlevaniaSymphonyoftheNightDraculasCastle_mvl/mxv
 BYTE   W02
 BYTE   VOL   4*CastlevaniaSymphonyoftheNightDraculasCastle_mvl/mxv
 BYTE   W01
 BYTE   VOL   4*CastlevaniaSymphonyoftheNightDraculasCastle_mvl/mxv
 BYTE   W02
 BYTE   VOL   4*CastlevaniaSymphonyoftheNightDraculasCastle_mvl/mxv
 BYTE   W01
 BYTE   VOL   3*CastlevaniaSymphonyoftheNightDraculasCastle_mvl/mxv
 BYTE   W02
 BYTE   VOL   3*CastlevaniaSymphonyoftheNightDraculasCastle_mvl/mxv
 BYTE   W01
 BYTE   VOL   3*CastlevaniaSymphonyoftheNightDraculasCastle_mvl/mxv
 BYTE   W02
 BYTE   VOL   3*CastlevaniaSymphonyoftheNightDraculasCastle_mvl/mxv
 BYTE   W01
 BYTE   VOL   3*CastlevaniaSymphonyoftheNightDraculasCastle_mvl/mxv
 BYTE   W02
 BYTE   VOL   3*CastlevaniaSymphonyoftheNightDraculasCastle_mvl/mxv
 BYTE   W01
 BYTE   VOL   2*CastlevaniaSymphonyoftheNightDraculasCastle_mvl/mxv
 BYTE   W02
 BYTE   VOL   2*CastlevaniaSymphonyoftheNightDraculasCastle_mvl/mxv
 BYTE   W01
 BYTE   VOL   2*CastlevaniaSymphonyoftheNightDraculasCastle_mvl/mxv
 BYTE   W02
 BYTE   VOL   2*CastlevaniaSymphonyoftheNightDraculasCastle_mvl/mxv
 BYTE   W01
 BYTE   VOL   2*CastlevaniaSymphonyoftheNightDraculasCastle_mvl/mxv
 BYTE   W02
 BYTE   VOL   1*CastlevaniaSymphonyoftheNightDraculasCastle_mvl/mxv
 BYTE   W01
 BYTE   VOL   1*CastlevaniaSymphonyoftheNightDraculasCastle_mvl/mxv
 BYTE   W02
 BYTE   VOL   1*CastlevaniaSymphonyoftheNightDraculasCastle_mvl/mxv
 BYTE   W01
 BYTE   VOL   1*CastlevaniaSymphonyoftheNightDraculasCastle_mvl/mxv
 BYTE   W02
 BYTE   VOL   1*CastlevaniaSymphonyoftheNightDraculasCastle_mvl/mxv
 BYTE   W01
 BYTE   VOL   1*CastlevaniaSymphonyoftheNightDraculasCastle_mvl/mxv
 BYTE   W02
 BYTE   VOL   1*CastlevaniaSymphonyoftheNightDraculasCastle_mvl/mxv
 BYTE   W01
 BYTE   VOL   1*CastlevaniaSymphonyoftheNightDraculasCastle_mvl/mxv
 BYTE   W02
 BYTE   VOL   1*CastlevaniaSymphonyoftheNightDraculasCastle_mvl/mxv
 BYTE   W01
 BYTE   VOL   0*CastlevaniaSymphonyoftheNightDraculasCastle_mvl/mxv
 BYTE   W02
 BYTE   VOL   0*CastlevaniaSymphonyoftheNightDraculasCastle_mvl/mxv
 BYTE   W01
 BYTE   VOL   0*CastlevaniaSymphonyoftheNightDraculasCastle_mvl/mxv
 BYTE   W02
 BYTE   VOL   0*CastlevaniaSymphonyoftheNightDraculasCastle_mvl/mxv
 BYTE   W01
 BYTE   VOL   0*CastlevaniaSymphonyoftheNightDraculasCastle_mvl/mxv
 BYTE   W02
 BYTE   VOL   0*CastlevaniaSymphonyoftheNightDraculasCastle_mvl/mxv
 BYTE   W01
 BYTE   VOL   0*CastlevaniaSymphonyoftheNightDraculasCastle_mvl/mxv
 BYTE   W02
 BYTE   VOL   0*CastlevaniaSymphonyoftheNightDraculasCastle_mvl/mxv
 BYTE   W01
 BYTE   VOL   0*CastlevaniaSymphonyoftheNightDraculasCastle_mvl/mxv
 BYTE   W02
 BYTE   VOL   0*CastlevaniaSymphonyoftheNightDraculasCastle_mvl/mxv
 BYTE   W01
 BYTE   VOL   0*CastlevaniaSymphonyoftheNightDraculasCastle_mvl/mxv
 BYTE   W02
 BYTE   VOL   0*CastlevaniaSymphonyoftheNightDraculasCastle_mvl/mxv
 BYTE   W01
 BYTE   VOL   0*CastlevaniaSymphonyoftheNightDraculasCastle_mvl/mxv
 BYTE   W01
 BYTE   EOT
 BYTE   W01
//  #13 //011   ----------------------------------------
 BYTE   VOL   0*CastlevaniaSymphonyoftheNightDraculasCastle_mvl/mxv
 BYTE   W96
//  #13 //012   ----------------------------------------
Label_013081A9:
 BYTE   W96
//  #13 //013   ----------------------------------------
 BYTE   W96
//  #13 //014   ----------------------------------------
 BYTE   W96
//  #13 //015   ----------------------------------------
 BYTE   W96
//  #13 //016   ----------------------------------------
 BYTE   W96
//  #13 //017   ----------------------------------------
 BYTE   W96
//  #13 //018   ----------------------------------------
 BYTE   W96
//  #13 //019   ----------------------------------------
 BYTE   W96
//  #13 //020   ----------------------------------------
 BYTE   W96
//  #13 //021   ----------------------------------------
 BYTE   W96
//  #13 //022   ----------------------------------------
 BYTE   W96
//  #13 //023   ----------------------------------------
 BYTE   W96
//  #13 //024   ----------------------------------------
 BYTE   W96
//  #13 //025   ----------------------------------------
 BYTE   W96
//  #13 //026   ----------------------------------------
 BYTE   W96
//  #13 //027   ----------------------------------------
 BYTE   W96
//  #13 //028   ----------------------------------------
 BYTE   W96
//  #13 //029   ----------------------------------------
 BYTE   W96
//  #13 //030   ----------------------------------------
 BYTE   W96
//  #13 //031   ----------------------------------------
 BYTE   W96
//  #13 //032   ----------------------------------------
 BYTE   W96
//  #13 //033   ----------------------------------------
 BYTE   W96
//  #13 //034   ----------------------------------------
 BYTE   W96
//  #13 //035   ----------------------------------------
 BYTE   W96
//  #13 //036   ----------------------------------------
 BYTE   W96
//  #13 //037   ----------------------------------------
 BYTE   W96
//  #13 //038   ----------------------------------------
 BYTE   W96
//  #13 //039   ----------------------------------------
 BYTE   W96
//  #13 //040   ----------------------------------------
 BYTE   W96
//  #13 //041   ----------------------------------------
 BYTE   W96
//  #13 //042   ----------------------------------------
 BYTE   W96
//  #13 //043   ----------------------------------------
 BYTE   W96
//  #13 //044   ----------------------------------------
 BYTE   W96
//  #13 //045   ----------------------------------------
 BYTE   W96
//  #13 //046   ----------------------------------------
 BYTE   W96
//  #13 //047   ----------------------------------------
 BYTE   W96
//  #13 //048   ----------------------------------------
 BYTE   W96
//  #13 //049   ----------------------------------------
 BYTE   W96
//  #13 //050   ----------------------------------------
 BYTE   W96
//  #13 //051   ----------------------------------------
 BYTE   W96
//  #13 //052   ----------------------------------------
 BYTE   W96
//  #13 //053   ----------------------------------------
 BYTE   W96
//  #13 //054   ----------------------------------------
 BYTE   W96
//  #13 //055   ----------------------------------------
 BYTE   W96
//  #13 //056   ----------------------------------------
 BYTE   W96
//  #13 //057   ----------------------------------------
 BYTE   W96
//  #13 //058   ----------------------------------------
 BYTE   W96
//  #13 //059   ----------------------------------------
 BYTE   GoTo
  POIN2 Label_013081A9
//  #13 //060   ----------------------------------------
 BYTE   W96
//  #13 //061   ----------------------------------------
 BYTE   W96
//  #13 //062   ----------------------------------------
 BYTE   W96
//  #13 //063   ----------------------------------------
 BYTE   W96
//  #13 //064   ----------------------------------------
 BYTE   W96
//  #13 //065   ----------------------------------------
 BYTE   W96
//  #13 //066   ----------------------------------------
 BYTE   W96
//  #13 //067   ----------------------------------------
 BYTE   W96
//  #13 //068   ----------------------------------------
 BYTE   W96
//  #13 //069   ----------------------------------------
 BYTE   W96
//  #13 //070   ----------------------------------------
 BYTE   W96
//  #13 //071   ----------------------------------------
 BYTE   W96
//  #13 //072   ----------------------------------------
 BYTE   W96
//  #13 //073   ----------------------------------------
 BYTE   W96
//  #13 //074   ----------------------------------------
 BYTE   W96
//  #13 //075   ----------------------------------------
 BYTE   W96
//  #13 //076   ----------------------------------------
 BYTE   W96
//  #13 //077   ----------------------------------------
 BYTE   W96
//  #13 //078   ----------------------------------------
 BYTE   W96
//  #13 //079   ----------------------------------------
 BYTE   W96
//  #13 //080   ----------------------------------------
 BYTE   W96
//  #13 //081   ----------------------------------------
 BYTE   W96
//  #13 //082   ----------------------------------------
 BYTE   W96
//  #13 //083   ----------------------------------------
 BYTE   W96
//  #13 //084   ----------------------------------------
 BYTE   W96
//  #13 //085   ----------------------------------------
 BYTE   W96
//  #13 //086   ----------------------------------------
 BYTE   W96
//  #13 //087   ----------------------------------------
 BYTE   W96
//  #13 //088   ----------------------------------------
 BYTE   W96
//  #13 //089   ----------------------------------------
 BYTE   W96
//  #13 //090   ----------------------------------------
 BYTE   W96
//  #13 //091   ----------------------------------------
 BYTE   W96
//  #13 //092   ----------------------------------------
 BYTE   W96
//  #13 //093   ----------------------------------------
 BYTE   W96
//  #13 //094   ----------------------------------------
 BYTE   W96
//  #13 //095   ----------------------------------------
 BYTE   W96
//  #13 //096   ----------------------------------------
 BYTE   W96
//  #13 //097   ----------------------------------------
 BYTE   W96
//  #13 //098   ----------------------------------------
 BYTE   W96
//  #13 //099   ----------------------------------------
 BYTE   W96
//  #13 //100   ----------------------------------------
 BYTE   W96
//  #13 //101   ----------------------------------------
 BYTE   W96
//  #13 //102   ----------------------------------------
 BYTE   W96
//  #13 //103   ----------------------------------------
 BYTE   W96
//  #13 //104   ----------------------------------------
 BYTE   W96
//  #13 //105   ----------------------------------------
 BYTE   W96
//  #13 //106   ----------------------------------------
 BYTE   W09
 BYTE   FINE

//**************** Track 14 (Midi-Chn.13) ****************//

CastlevaniaSymphonyoftheNightDraculasCastle_014:
//  #14 //000   ----------------------------------------
 BYTE   KEYSH   CastlevaniaSymphonyoftheNightDraculasCastle_key+0
 BYTE   VOICE   95
 BYTE   MODT 0
 BYTE   LFOS 44
 BYTE   VOL   80*CastlevaniaSymphonyoftheNightDraculasCastle_mvl/mxv
 BYTE   PAN   c_v+0
 BYTE   VOL   40*CastlevaniaSymphonyoftheNightDraculasCastle_mvl/mxv
 BYTE   MOD 0
 BYTE   TIE  Bn3  v072
 BYTE   W96
//  #14 //001   ----------------------------------------
 BYTE   W92
 BYTE   W03
 BYTE   EOT
 BYTE   W01
//  #14 //002   ----------------------------------------
 BYTE   TIE  Gn3
 BYTE   W96
//  #14 //003   ----------------------------------------
 BYTE   W92
 BYTE   W03
 BYTE   EOT
 BYTE   W01
//  #14 //004   ----------------------------------------
 BYTE   TIE  Bn3
 BYTE   W96
//  #14 //005   ----------------------------------------
 BYTE   W92
 BYTE   W03
 BYTE   EOT
 BYTE   W01
//  #14 //006   ----------------------------------------
 BYTE   TIE  Cn4
 BYTE   W96
//  #14 //007   ----------------------------------------
 BYTE   W92
 BYTE   W03
 BYTE   EOT
 BYTE   W01
//  #14 //008   ----------------------------------------
 BYTE   TIE  Dn5
 BYTE   W96
//  #14 //009   ----------------------------------------
 BYTE   W92
 BYTE   W03
 BYTE   EOT
 BYTE   W01
//  #14 //010   ----------------------------------------
 BYTE   W96
//  #14 //011   ----------------------------------------
 BYTE   W96
//  #14 //012   ----------------------------------------
Label_013077AA:
 BYTE   W96
//  #14 //013   ----------------------------------------
 BYTE   W96
//  #14 //014   ----------------------------------------
 BYTE   W96
//  #14 //015   ----------------------------------------
 BYTE   W96
//  #14 //016   ----------------------------------------
 BYTE   W96
//  #14 //017   ----------------------------------------
 BYTE   W96
//  #14 //018   ----------------------------------------
 BYTE   W96
//  #14 //019   ----------------------------------------
 BYTE   W96
//  #14 //020   ----------------------------------------
 BYTE   W96
//  #14 //021   ----------------------------------------
 BYTE   W96
//  #14 //022   ----------------------------------------
 BYTE   W96
//  #14 //023   ----------------------------------------
 BYTE   W96
//  #14 //024   ----------------------------------------
 BYTE   W96
//  #14 //025   ----------------------------------------
 BYTE   W96
//  #14 //026   ----------------------------------------
 BYTE   W96
//  #14 //027   ----------------------------------------
 BYTE   W96
//  #14 //028   ----------------------------------------
 BYTE   W96
//  #14 //029   ----------------------------------------
 BYTE   W96
//  #14 //030   ----------------------------------------
 BYTE   W96
//  #14 //031   ----------------------------------------
 BYTE   W96
//  #14 //032   ----------------------------------------
 BYTE   W96
//  #14 //033   ----------------------------------------
 BYTE   W96
//  #14 //034   ----------------------------------------
 BYTE   W96
//  #14 //035   ----------------------------------------
 BYTE   W96
//  #14 //036   ----------------------------------------
 BYTE   W96
//  #14 //037   ----------------------------------------
 BYTE   W96
//  #14 //038   ----------------------------------------
 BYTE   W96
//  #14 //039   ----------------------------------------
 BYTE   W96
//  #14 //040   ----------------------------------------
 BYTE   W96
//  #14 //041   ----------------------------------------
 BYTE   W96
//  #14 //042   ----------------------------------------
 BYTE   W96
//  #14 //043   ----------------------------------------
 BYTE   W96
//  #14 //044   ----------------------------------------
 BYTE   W96
//  #14 //045   ----------------------------------------
 BYTE   W96
//  #14 //046   ----------------------------------------
 BYTE   W96
//  #14 //047   ----------------------------------------
 BYTE   W96
//  #14 //048   ----------------------------------------
 BYTE   W96
//  #14 //049   ----------------------------------------
 BYTE   W96
//  #14 //050   ----------------------------------------
 BYTE   W96
//  #14 //051   ----------------------------------------
 BYTE   W96
//  #14 //052   ----------------------------------------
 BYTE   W96
//  #14 //053   ----------------------------------------
 BYTE   W96
//  #14 //054   ----------------------------------------
 BYTE   W96
//  #14 //055   ----------------------------------------
 BYTE   W96
//  #14 //056   ----------------------------------------
 BYTE   W96
//  #14 //057   ----------------------------------------
 BYTE   W96
//  #14 //058   ----------------------------------------
 BYTE   W96
//  #14 //059   ----------------------------------------
 BYTE   GoTo
  POIN2 Label_013077AA
//  #14 //060   ----------------------------------------
 BYTE   W96
//  #14 //061   ----------------------------------------
 BYTE   W96
//  #14 //062   ----------------------------------------
 BYTE   W96
//  #14 //063   ----------------------------------------
 BYTE   W96
//  #14 //064   ----------------------------------------
 BYTE   W96
//  #14 //065   ----------------------------------------
 BYTE   W96
//  #14 //066   ----------------------------------------
 BYTE   W96
//  #14 //067   ----------------------------------------
 BYTE   W96
//  #14 //068   ----------------------------------------
 BYTE   W96
//  #14 //069   ----------------------------------------
 BYTE   W96
//  #14 //070   ----------------------------------------
 BYTE   W96
//  #14 //071   ----------------------------------------
 BYTE   W96
//  #14 //072   ----------------------------------------
 BYTE   W96
//  #14 //073   ----------------------------------------
 BYTE   W96
//  #14 //074   ----------------------------------------
 BYTE   W96
//  #14 //075   ----------------------------------------
 BYTE   W96
//  #14 //076   ----------------------------------------
 BYTE   W96
//  #14 //077   ----------------------------------------
 BYTE   W96
//  #14 //078   ----------------------------------------
 BYTE   W96
//  #14 //079   ----------------------------------------
 BYTE   W96
//  #14 //080   ----------------------------------------
 BYTE   W96
//  #14 //081   ----------------------------------------
 BYTE   W96
//  #14 //082   ----------------------------------------
 BYTE   W96
//  #14 //083   ----------------------------------------
 BYTE   W96
//  #14 //084   ----------------------------------------
 BYTE   W96
//  #14 //085   ----------------------------------------
 BYTE   W96
//  #14 //086   ----------------------------------------
 BYTE   W96
//  #14 //087   ----------------------------------------
 BYTE   W96
//  #14 //088   ----------------------------------------
 BYTE   W96
//  #14 //089   ----------------------------------------
 BYTE   W96
//  #14 //090   ----------------------------------------
 BYTE   W96
//  #14 //091   ----------------------------------------
 BYTE   W96
//  #14 //092   ----------------------------------------
 BYTE   W96
//  #14 //093   ----------------------------------------
 BYTE   W96
//  #14 //094   ----------------------------------------
 BYTE   W96
//  #14 //095   ----------------------------------------
 BYTE   W96
//  #14 //096   ----------------------------------------
 BYTE   W96
//  #14 //097   ----------------------------------------
 BYTE   W96
//  #14 //098   ----------------------------------------
 BYTE   W96
//  #14 //099   ----------------------------------------
 BYTE   W96
//  #14 //100   ----------------------------------------
 BYTE   W96
//  #14 //101   ----------------------------------------
 BYTE   W96
//  #14 //102   ----------------------------------------
 BYTE   W96
//  #14 //103   ----------------------------------------
 BYTE   W96
//  #14 //104   ----------------------------------------
 BYTE   W96
//  #14 //105   ----------------------------------------
 BYTE   W96
//  #14 //106   ----------------------------------------
 BYTE   W09
 BYTE   FINE

//**************** Track 15 (Midi-Chn.14) ****************//

CastlevaniaSymphonyoftheNightDraculasCastle_015:
//  #15 //000   ----------------------------------------
 BYTE   KEYSH   CastlevaniaSymphonyoftheNightDraculasCastle_key+0
 BYTE   VOICE   54
 BYTE   MODT 0
 BYTE   LFOS 44
 BYTE   VOL   80*CastlevaniaSymphonyoftheNightDraculasCastle_mvl/mxv
 BYTE   PAN   c_v+10
 BYTE   VOL   40*CastlevaniaSymphonyoftheNightDraculasCastle_mvl/mxv
 BYTE   MOD 0
 BYTE   TIE  Fs3  v072
 BYTE   TIE  Bn3
 BYTE   TIE  Cs4  v088
 BYTE   W96
//  #15 //001   ----------------------------------------
 BYTE   W92
 BYTE   W03
 BYTE   EOT
 BYTE   Fs3  v071
 BYTE   Cs4
 BYTE   W01
//  #15 //002   ----------------------------------------
 BYTE   N92  Bn2  v060
 BYTE   N92  Dn3
 BYTE   N92  An3  v072
 BYTE   W96
//  #15 //003   ----------------------------------------
 BYTE   N44  Bn2  v048
 BYTE   N44  Dn3
 BYTE   N44  Gn3  v060
 BYTE   W48
 BYTE   Bn2
 BYTE   N44  Dn3
 BYTE   N44  An3  v072
 BYTE   W48
//  #15 //004   ----------------------------------------
 BYTE   TIE  Fs3
 BYTE   TIE  Bn3
 BYTE   TIE  Cs4  v088
 BYTE   W96
//  #15 //005   ----------------------------------------
 BYTE   W92
 BYTE   W03
 BYTE   EOT
 BYTE   Fs3  v071
 BYTE   Cs4
 BYTE   W01
//  #15 //006   ----------------------------------------
 BYTE   TIE  Gn3
 BYTE   TIE  An3
 BYTE   TIE  Dn4  v100
 BYTE   W96
//  #15 //007   ----------------------------------------
 BYTE   W92
 BYTE   W03
 BYTE   EOT
 BYTE   Gn3  v069
 BYTE   Dn4
 BYTE   W01
//  #15 //008   ----------------------------------------
 BYTE   VOL   40*CastlevaniaSymphonyoftheNightDraculasCastle_mvl/mxv
 BYTE   TIE  Fs3  v060
 BYTE   TIE  An3
 BYTE   TIE  Dn4  v072
 BYTE   W76
 BYTE   W01
 BYTE   VOL   39*CastlevaniaSymphonyoftheNightDraculasCastle_mvl/mxv
 BYTE   W19
//  #15 //009   ----------------------------------------
 BYTE   W17
 BYTE   VOL   38*CastlevaniaSymphonyoftheNightDraculasCastle_mvl/mxv
 BYTE   W22
 BYTE   VOL   38*CastlevaniaSymphonyoftheNightDraculasCastle_mvl/mxv
 BYTE   W18
 BYTE   VOL   37*CastlevaniaSymphonyoftheNightDraculasCastle_mvl/mxv
 BYTE   W14
 BYTE   VOL   37*CastlevaniaSymphonyoftheNightDraculasCastle_mvl/mxv
 BYTE   W12
 BYTE   VOL   37*CastlevaniaSymphonyoftheNightDraculasCastle_mvl/mxv
 BYTE   W10
 BYTE   VOL   36*CastlevaniaSymphonyoftheNightDraculasCastle_mvl/mxv
 BYTE   W03
//  #15 //010   ----------------------------------------
 BYTE   W05
 BYTE   VOL   35*CastlevaniaSymphonyoftheNightDraculasCastle_mvl/mxv
 BYTE   W07
 BYTE   VOL   35*CastlevaniaSymphonyoftheNightDraculasCastle_mvl/mxv
 BYTE   W08
 BYTE   VOL   34*CastlevaniaSymphonyoftheNightDraculasCastle_mvl/mxv
 BYTE   W06
 BYTE   VOL   34*CastlevaniaSymphonyoftheNightDraculasCastle_mvl/mxv
 BYTE   W06
 BYTE   VOL   34*CastlevaniaSymphonyoftheNightDraculasCastle_mvl/mxv
 BYTE   W06
 BYTE   VOL   33*CastlevaniaSymphonyoftheNightDraculasCastle_mvl/mxv
 BYTE   W04
 BYTE   VOL   32*CastlevaniaSymphonyoftheNightDraculasCastle_mvl/mxv
 BYTE   W05
 BYTE   VOL   32*CastlevaniaSymphonyoftheNightDraculasCastle_mvl/mxv
 BYTE   W04
 BYTE   VOL   31*CastlevaniaSymphonyoftheNightDraculasCastle_mvl/mxv
 BYTE   W05
 BYTE   VOL   30*CastlevaniaSymphonyoftheNightDraculasCastle_mvl/mxv
 BYTE   W03
 BYTE   VOL   30*CastlevaniaSymphonyoftheNightDraculasCastle_mvl/mxv
 BYTE   W04
 BYTE   VOL   30*CastlevaniaSymphonyoftheNightDraculasCastle_mvl/mxv
 BYTE   W03
 BYTE   VOL   29*CastlevaniaSymphonyoftheNightDraculasCastle_mvl/mxv
 BYTE   W03
 BYTE   VOL   29*CastlevaniaSymphonyoftheNightDraculasCastle_mvl/mxv
 BYTE   W03
 BYTE   VOL   28*CastlevaniaSymphonyoftheNightDraculasCastle_mvl/mxv
 BYTE   W03
 BYTE   VOL   28*CastlevaniaSymphonyoftheNightDraculasCastle_mvl/mxv
 BYTE   W03
 BYTE   VOL   28*CastlevaniaSymphonyoftheNightDraculasCastle_mvl/mxv
 BYTE   W03
 BYTE   VOL   27*CastlevaniaSymphonyoftheNightDraculasCastle_mvl/mxv
 BYTE   W03
 BYTE   VOL   27*CastlevaniaSymphonyoftheNightDraculasCastle_mvl/mxv
 BYTE   W03
 BYTE   VOL   27*CastlevaniaSymphonyoftheNightDraculasCastle_mvl/mxv
 BYTE   W02
 BYTE   VOL   26*CastlevaniaSymphonyoftheNightDraculasCastle_mvl/mxv
 BYTE   W03
 BYTE   VOL   25*CastlevaniaSymphonyoftheNightDraculasCastle_mvl/mxv
 BYTE   W01
 BYTE   VOL   25*CastlevaniaSymphonyoftheNightDraculasCastle_mvl/mxv
 BYTE   W03
//  #15 //011   ----------------------------------------
 BYTE   VOL   24*CastlevaniaSymphonyoftheNightDraculasCastle_mvl/mxv
 BYTE   W02
 BYTE   VOL   23*CastlevaniaSymphonyoftheNightDraculasCastle_mvl/mxv
 BYTE   W03
 BYTE   VOL   23*CastlevaniaSymphonyoftheNightDraculasCastle_mvl/mxv
 BYTE   W01
 BYTE   VOL   23*CastlevaniaSymphonyoftheNightDraculasCastle_mvl/mxv
 BYTE   W02
 BYTE   VOL   22*CastlevaniaSymphonyoftheNightDraculasCastle_mvl/mxv
 BYTE   W03
 BYTE   VOL   22*CastlevaniaSymphonyoftheNightDraculasCastle_mvl/mxv
 BYTE   W01
 BYTE   VOL   22*CastlevaniaSymphonyoftheNightDraculasCastle_mvl/mxv
 BYTE   W02
 BYTE   VOL   21*CastlevaniaSymphonyoftheNightDraculasCastle_mvl/mxv
 BYTE   W01
 BYTE   VOL   21*CastlevaniaSymphonyoftheNightDraculasCastle_mvl/mxv
 BYTE   W02
 BYTE   VOL   20*CastlevaniaSymphonyoftheNightDraculasCastle_mvl/mxv
 BYTE   W03
 BYTE   VOL   20*CastlevaniaSymphonyoftheNightDraculasCastle_mvl/mxv
 BYTE   W01
 BYTE   VOL   20*CastlevaniaSymphonyoftheNightDraculasCastle_mvl/mxv
 BYTE   W02
 BYTE   VOL   19*CastlevaniaSymphonyoftheNightDraculasCastle_mvl/mxv
 BYTE   W01
 BYTE   VOL   19*CastlevaniaSymphonyoftheNightDraculasCastle_mvl/mxv
 BYTE   W02
 BYTE   VOL   19*CastlevaniaSymphonyoftheNightDraculasCastle_mvl/mxv
 BYTE   W01
 BYTE   VOL   18*CastlevaniaSymphonyoftheNightDraculasCastle_mvl/mxv
 BYTE   W02
 BYTE   VOL   18*CastlevaniaSymphonyoftheNightDraculasCastle_mvl/mxv
 BYTE   W01
 BYTE   VOL   18*CastlevaniaSymphonyoftheNightDraculasCastle_mvl/mxv
 BYTE   W02
 BYTE   VOL   17*CastlevaniaSymphonyoftheNightDraculasCastle_mvl/mxv
 BYTE   W01
 BYTE   VOL   17*CastlevaniaSymphonyoftheNightDraculasCastle_mvl/mxv
 BYTE   W02
 BYTE   VOL   16*CastlevaniaSymphonyoftheNightDraculasCastle_mvl/mxv
 BYTE   W01
 BYTE   VOL   15*CastlevaniaSymphonyoftheNightDraculasCastle_mvl/mxv
 BYTE   W02
 BYTE   VOL   15*CastlevaniaSymphonyoftheNightDraculasCastle_mvl/mxv
 BYTE   W01
 BYTE   VOL   15*CastlevaniaSymphonyoftheNightDraculasCastle_mvl/mxv
 BYTE   W02
 BYTE   VOL   14*CastlevaniaSymphonyoftheNightDraculasCastle_mvl/mxv
 BYTE   W01
 BYTE   VOL   14*CastlevaniaSymphonyoftheNightDraculasCastle_mvl/mxv
 BYTE   W02
 BYTE   VOL   13*CastlevaniaSymphonyoftheNightDraculasCastle_mvl/mxv
 BYTE   W01
 BYTE   VOL   13*CastlevaniaSymphonyoftheNightDraculasCastle_mvl/mxv
 BYTE   W02
 BYTE   VOL   12*CastlevaniaSymphonyoftheNightDraculasCastle_mvl/mxv
 BYTE   W01
 BYTE   VOL   12*CastlevaniaSymphonyoftheNightDraculasCastle_mvl/mxv
 BYTE   W02
 BYTE   VOL   11*CastlevaniaSymphonyoftheNightDraculasCastle_mvl/mxv
 BYTE   W01
 BYTE   VOL   11*CastlevaniaSymphonyoftheNightDraculasCastle_mvl/mxv
 BYTE   W02
 BYTE   VOL   11*CastlevaniaSymphonyoftheNightDraculasCastle_mvl/mxv
 BYTE   W01
 BYTE   VOL   11*CastlevaniaSymphonyoftheNightDraculasCastle_mvl/mxv
 BYTE   W02
 BYTE   VOL   10*CastlevaniaSymphonyoftheNightDraculasCastle_mvl/mxv
 BYTE   W01
 BYTE   VOL   10*CastlevaniaSymphonyoftheNightDraculasCastle_mvl/mxv
 BYTE   W02
 BYTE   VOL   9*CastlevaniaSymphonyoftheNightDraculasCastle_mvl/mxv
 BYTE   W01
 BYTE   VOL   8*CastlevaniaSymphonyoftheNightDraculasCastle_mvl/mxv
 BYTE   W02
 BYTE   VOL   8*CastlevaniaSymphonyoftheNightDraculasCastle_mvl/mxv
 BYTE   W01
 BYTE   VOL   8*CastlevaniaSymphonyoftheNightDraculasCastle_mvl/mxv
 BYTE   W02
 BYTE   VOL   7*CastlevaniaSymphonyoftheNightDraculasCastle_mvl/mxv
 BYTE   W01
 BYTE   VOL   6*CastlevaniaSymphonyoftheNightDraculasCastle_mvl/mxv
 BYTE   W02
 BYTE   VOL   6*CastlevaniaSymphonyoftheNightDraculasCastle_mvl/mxv
 BYTE   W01
 BYTE   VOL   6*CastlevaniaSymphonyoftheNightDraculasCastle_mvl/mxv
 BYTE   W02
 BYTE   VOL   5*CastlevaniaSymphonyoftheNightDraculasCastle_mvl/mxv
 BYTE   W01
 BYTE   VOL   5*CastlevaniaSymphonyoftheNightDraculasCastle_mvl/mxv
 BYTE   W02
 BYTE   VOL   4*CastlevaniaSymphonyoftheNightDraculasCastle_mvl/mxv
 BYTE   W01
 BYTE   VOL   4*CastlevaniaSymphonyoftheNightDraculasCastle_mvl/mxv
 BYTE   W02
 BYTE   VOL   3*CastlevaniaSymphonyoftheNightDraculasCastle_mvl/mxv
 BYTE   W01
 BYTE   VOL   3*CastlevaniaSymphonyoftheNightDraculasCastle_mvl/mxv
 BYTE   W02
 BYTE   VOL   3*CastlevaniaSymphonyoftheNightDraculasCastle_mvl/mxv
 BYTE   W01
 BYTE   VOL   2*CastlevaniaSymphonyoftheNightDraculasCastle_mvl/mxv
 BYTE   W02
 BYTE   VOL   2*CastlevaniaSymphonyoftheNightDraculasCastle_mvl/mxv
 BYTE   W01
 BYTE   VOL   1*CastlevaniaSymphonyoftheNightDraculasCastle_mvl/mxv
 BYTE   W02
 BYTE   VOL   1*CastlevaniaSymphonyoftheNightDraculasCastle_mvl/mxv
 BYTE   W01
 BYTE   VOL   1*CastlevaniaSymphonyoftheNightDraculasCastle_mvl/mxv
 BYTE   W02
 BYTE   VOL   1*CastlevaniaSymphonyoftheNightDraculasCastle_mvl/mxv
 BYTE   W01
 BYTE   VOL   0*CastlevaniaSymphonyoftheNightDraculasCastle_mvl/mxv
 BYTE   W02
 BYTE   VOL   0*CastlevaniaSymphonyoftheNightDraculasCastle_mvl/mxv
 BYTE   W01
 BYTE   VOL   0*CastlevaniaSymphonyoftheNightDraculasCastle_mvl/mxv
 BYTE   W02
 BYTE   EOT
 BYTE   Fs3  v069
 BYTE   Dn4
 BYTE   VOL   0*CastlevaniaSymphonyoftheNightDraculasCastle_mvl/mxv
 BYTE   W01
//  #15 //012   ----------------------------------------
Label_01308C49:
 BYTE   VOL   0*CastlevaniaSymphonyoftheNightDraculasCastle_mvl/mxv
 BYTE   W96
//  #15 //013   ----------------------------------------
 BYTE   W96
//  #15 //014   ----------------------------------------
 BYTE   W96
//  #15 //015   ----------------------------------------
 BYTE   W96
//  #15 //016   ----------------------------------------
 BYTE   W96
//  #15 //017   ----------------------------------------
 BYTE   W96
//  #15 //018   ----------------------------------------
 BYTE   W96
//  #15 //019   ----------------------------------------
 BYTE   W96
//  #15 //020   ----------------------------------------
 BYTE   W96
//  #15 //021   ----------------------------------------
 BYTE   W96
//  #15 //022   ----------------------------------------
 BYTE   W96
//  #15 //023   ----------------------------------------
 BYTE   W96
//  #15 //024   ----------------------------------------
 BYTE   W96
//  #15 //025   ----------------------------------------
 BYTE   W96
//  #15 //026   ----------------------------------------
 BYTE   W96
//  #15 //027   ----------------------------------------
 BYTE   W96
//  #15 //028   ----------------------------------------
 BYTE   W96
//  #15 //029   ----------------------------------------
 BYTE   W96
//  #15 //030   ----------------------------------------
 BYTE   W96
//  #15 //031   ----------------------------------------
 BYTE   W96
//  #15 //032   ----------------------------------------
 BYTE   W96
//  #15 //033   ----------------------------------------
 BYTE   W96
//  #15 //034   ----------------------------------------
 BYTE   W96
//  #15 //035   ----------------------------------------
 BYTE   W96
//  #15 //036   ----------------------------------------
 BYTE   W96
//  #15 //037   ----------------------------------------
 BYTE   W96
//  #15 //038   ----------------------------------------
 BYTE   W96
//  #15 //039   ----------------------------------------
 BYTE   W96
//  #15 //040   ----------------------------------------
 BYTE   W96
//  #15 //041   ----------------------------------------
 BYTE   W96
//  #15 //042   ----------------------------------------
 BYTE   W96
//  #15 //043   ----------------------------------------
 BYTE   W96
//  #15 //044   ----------------------------------------
 BYTE   W96
//  #15 //045   ----------------------------------------
 BYTE   W96
//  #15 //046   ----------------------------------------
 BYTE   W96
//  #15 //047   ----------------------------------------
 BYTE   W96
//  #15 //048   ----------------------------------------
 BYTE   W96
//  #15 //049   ----------------------------------------
 BYTE   W96
//  #15 //050   ----------------------------------------
 BYTE   W96
//  #15 //051   ----------------------------------------
 BYTE   W96
//  #15 //052   ----------------------------------------
 BYTE   W96
//  #15 //053   ----------------------------------------
 BYTE   W96
//  #15 //054   ----------------------------------------
 BYTE   W96
//  #15 //055   ----------------------------------------
 BYTE   W96
//  #15 //056   ----------------------------------------
 BYTE   W96
//  #15 //057   ----------------------------------------
 BYTE   W96
//  #15 //058   ----------------------------------------
 BYTE   W96
//  #15 //059   ----------------------------------------
 BYTE   GoTo
  POIN2 Label_01308C49
//  #15 //060   ----------------------------------------
 BYTE   W96
//  #15 //061   ----------------------------------------
 BYTE   W96
//  #15 //062   ----------------------------------------
 BYTE   W96
//  #15 //063   ----------------------------------------
 BYTE   W96
//  #15 //064   ----------------------------------------
 BYTE   W96
//  #15 //065   ----------------------------------------
 BYTE   W96
//  #15 //066   ----------------------------------------
 BYTE   W96
//  #15 //067   ----------------------------------------
 BYTE   W96
//  #15 //068   ----------------------------------------
 BYTE   W96
//  #15 //069   ----------------------------------------
 BYTE   W96
//  #15 //070   ----------------------------------------
 BYTE   W96
//  #15 //071   ----------------------------------------
 BYTE   W96
//  #15 //072   ----------------------------------------
 BYTE   W96
//  #15 //073   ----------------------------------------
 BYTE   W96
//  #15 //074   ----------------------------------------
 BYTE   W96
//  #15 //075   ----------------------------------------
 BYTE   W96
//  #15 //076   ----------------------------------------
 BYTE   W96
//  #15 //077   ----------------------------------------
 BYTE   W96
//  #15 //078   ----------------------------------------
 BYTE   W96
//  #15 //079   ----------------------------------------
 BYTE   W96
//  #15 //080   ----------------------------------------
 BYTE   W96
//  #15 //081   ----------------------------------------
 BYTE   W96
//  #15 //082   ----------------------------------------
 BYTE   W96
//  #15 //083   ----------------------------------------
 BYTE   W96
//  #15 //084   ----------------------------------------
 BYTE   W96
//  #15 //085   ----------------------------------------
 BYTE   W96
//  #15 //086   ----------------------------------------
 BYTE   W96
//  #15 //087   ----------------------------------------
 BYTE   W96
//  #15 //088   ----------------------------------------
 BYTE   W96
//  #15 //089   ----------------------------------------
 BYTE   W96
//  #15 //090   ----------------------------------------
 BYTE   W96
//  #15 //091   ----------------------------------------
 BYTE   W96
//  #15 //092   ----------------------------------------
 BYTE   W96
//  #15 //093   ----------------------------------------
 BYTE   W96
//  #15 //094   ----------------------------------------
 BYTE   W96
//  #15 //095   ----------------------------------------
 BYTE   W96
//  #15 //096   ----------------------------------------
 BYTE   W96
//  #15 //097   ----------------------------------------
 BYTE   W96
//  #15 //098   ----------------------------------------
 BYTE   W96
//  #15 //099   ----------------------------------------
 BYTE   W96
//  #15 //100   ----------------------------------------
 BYTE   W96
//  #15 //101   ----------------------------------------
 BYTE   W96
//  #15 //102   ----------------------------------------
 BYTE   W96
//  #15 //103   ----------------------------------------
 BYTE   W96
//  #15 //104   ----------------------------------------
 BYTE   W96
//  #15 //105   ----------------------------------------
 BYTE   W96
//  #15 //106   ----------------------------------------
 BYTE   W09
 BYTE   FINE

//**************** Track 16 (Midi-Chn.15) ****************//

CastlevaniaSymphonyoftheNightDraculasCastle_016:
//  #16 //000   ----------------------------------------
 BYTE   KEYSH   CastlevaniaSymphonyoftheNightDraculasCastle_key+0
 BYTE   VOICE   122
 BYTE   MODT 0
 BYTE   LFOS 44
 BYTE   VOL   80*CastlevaniaSymphonyoftheNightDraculasCastle_mvl/mxv
 BYTE   PAN   c_v+0
 BYTE   VOL   40*CastlevaniaSymphonyoftheNightDraculasCastle_mvl/mxv
 BYTE   MOD 0
 BYTE   TIE  Fs2  v088
 BYTE   W96
//  #16 //001   ----------------------------------------
 BYTE   W96
//  #16 //002   ----------------------------------------
 BYTE   Gn2
 BYTE   W10
 BYTE   EOT
 BYTE   Fs2
 BYTE   W84
 BYTE   W02
//  #16 //003   ----------------------------------------
 BYTE   W96
//  #16 //004   ----------------------------------------
 BYTE   N96  Bn2  v100
 BYTE   W10
 BYTE   EOT
 BYTE   Gn2
 BYTE   W84
 BYTE   W02
//  #16 //005   ----------------------------------------
 BYTE   TIE  Fs2  v088
 BYTE   W96
//  #16 //006   ----------------------------------------
 BYTE   Gn2
 BYTE   W10
 BYTE   EOT
 BYTE   Fs2
 BYTE   W84
 BYTE   W02
//  #16 //007   ----------------------------------------
 BYTE   W96
//  #16 //008   ----------------------------------------
 BYTE   TIE  Dn2
 BYTE   W10
 BYTE   EOT
 BYTE   Gn2
 BYTE   W84
 BYTE   W02
//  #16 //009   ----------------------------------------
 BYTE   W96
//  #16 //010   ----------------------------------------
 BYTE   W96
//  #16 //011   ----------------------------------------
 BYTE   VOL   40*CastlevaniaSymphonyoftheNightDraculasCastle_mvl/mxv
 BYTE   W01
 BYTE   VOL   39*CastlevaniaSymphonyoftheNightDraculasCastle_mvl/mxv
 BYTE   W01
 BYTE   VOL   38*CastlevaniaSymphonyoftheNightDraculasCastle_mvl/mxv
 BYTE   W01
 BYTE   VOL   38*CastlevaniaSymphonyoftheNightDraculasCastle_mvl/mxv
 BYTE   W01
 BYTE   VOL   37*CastlevaniaSymphonyoftheNightDraculasCastle_mvl/mxv
 BYTE   W01
 BYTE   VOL   37*CastlevaniaSymphonyoftheNightDraculasCastle_mvl/mxv
 BYTE   W01
 BYTE   VOL   36*CastlevaniaSymphonyoftheNightDraculasCastle_mvl/mxv
 BYTE   W01
 BYTE   VOL   35*CastlevaniaSymphonyoftheNightDraculasCastle_mvl/mxv
 BYTE   W01
 BYTE   VOL   34*CastlevaniaSymphonyoftheNightDraculasCastle_mvl/mxv
 BYTE   W01
 BYTE   VOL   34*CastlevaniaSymphonyoftheNightDraculasCastle_mvl/mxv
 BYTE   W01
 BYTE   VOL   33*CastlevaniaSymphonyoftheNightDraculasCastle_mvl/mxv
 BYTE   W01
 BYTE   VOL   32*CastlevaniaSymphonyoftheNightDraculasCastle_mvl/mxv
 BYTE   W01
 BYTE   VOL   32*CastlevaniaSymphonyoftheNightDraculasCastle_mvl/mxv
 BYTE   W01
 BYTE   VOL   30*CastlevaniaSymphonyoftheNightDraculasCastle_mvl/mxv
 BYTE   W01
 BYTE   VOL   30*CastlevaniaSymphonyoftheNightDraculasCastle_mvl/mxv
 BYTE   W01
 BYTE   VOL   30*CastlevaniaSymphonyoftheNightDraculasCastle_mvl/mxv
 BYTE   W01
 BYTE   VOL   29*CastlevaniaSymphonyoftheNightDraculasCastle_mvl/mxv
 BYTE   W01
 BYTE   VOL   28*CastlevaniaSymphonyoftheNightDraculasCastle_mvl/mxv
 BYTE   W01
 BYTE   VOL   28*CastlevaniaSymphonyoftheNightDraculasCastle_mvl/mxv
 BYTE   W01
 BYTE   VOL   27*CastlevaniaSymphonyoftheNightDraculasCastle_mvl/mxv
 BYTE   W01
 BYTE   VOL   27*CastlevaniaSymphonyoftheNightDraculasCastle_mvl/mxv
 BYTE   W01
 BYTE   VOL   27*CastlevaniaSymphonyoftheNightDraculasCastle_mvl/mxv
 BYTE   W01
 BYTE   VOL   25*CastlevaniaSymphonyoftheNightDraculasCastle_mvl/mxv
 BYTE   W01
 BYTE   VOL   25*CastlevaniaSymphonyoftheNightDraculasCastle_mvl/mxv
 BYTE   W01
 BYTE   VOL   24*CastlevaniaSymphonyoftheNightDraculasCastle_mvl/mxv
 BYTE   W01
 BYTE   VOL   23*CastlevaniaSymphonyoftheNightDraculasCastle_mvl/mxv
 BYTE   W01
 BYTE   VOL   23*CastlevaniaSymphonyoftheNightDraculasCastle_mvl/mxv
 BYTE   W01
 BYTE   VOL   22*CastlevaniaSymphonyoftheNightDraculasCastle_mvl/mxv
 BYTE   W01
 BYTE   VOL   22*CastlevaniaSymphonyoftheNightDraculasCastle_mvl/mxv
 BYTE   W01
 BYTE   VOL   21*CastlevaniaSymphonyoftheNightDraculasCastle_mvl/mxv
 BYTE   W01
 BYTE   VOL   21*CastlevaniaSymphonyoftheNightDraculasCastle_mvl/mxv
 BYTE   W01
 BYTE   VOL   20*CastlevaniaSymphonyoftheNightDraculasCastle_mvl/mxv
 BYTE   W01
 BYTE   VOL   20*CastlevaniaSymphonyoftheNightDraculasCastle_mvl/mxv
 BYTE   W01
 BYTE   VOL   19*CastlevaniaSymphonyoftheNightDraculasCastle_mvl/mxv
 BYTE   W01
 BYTE   VOL   19*CastlevaniaSymphonyoftheNightDraculasCastle_mvl/mxv
 BYTE   W01
 BYTE   VOL   18*CastlevaniaSymphonyoftheNightDraculasCastle_mvl/mxv
 BYTE   W01
 BYTE   VOL   18*CastlevaniaSymphonyoftheNightDraculasCastle_mvl/mxv
 BYTE   W01
 BYTE   VOL   17*CastlevaniaSymphonyoftheNightDraculasCastle_mvl/mxv
 BYTE   W01
 BYTE   VOL   17*CastlevaniaSymphonyoftheNightDraculasCastle_mvl/mxv
 BYTE   W01
 BYTE   VOL   17*CastlevaniaSymphonyoftheNightDraculasCastle_mvl/mxv
 BYTE   W01
 BYTE   VOL   15*CastlevaniaSymphonyoftheNightDraculasCastle_mvl/mxv
 BYTE   W01
 BYTE   VOL   15*CastlevaniaSymphonyoftheNightDraculasCastle_mvl/mxv
 BYTE   W01
 BYTE   VOL   15*CastlevaniaSymphonyoftheNightDraculasCastle_mvl/mxv
 BYTE   W01
 BYTE   VOL   14*CastlevaniaSymphonyoftheNightDraculasCastle_mvl/mxv
 BYTE   W01
 BYTE   VOL   14*CastlevaniaSymphonyoftheNightDraculasCastle_mvl/mxv
 BYTE   W01
 BYTE   VOL   13*CastlevaniaSymphonyoftheNightDraculasCastle_mvl/mxv
 BYTE   W01
 BYTE   VOL   13*CastlevaniaSymphonyoftheNightDraculasCastle_mvl/mxv
 BYTE   W01
 BYTE   VOL   12*CastlevaniaSymphonyoftheNightDraculasCastle_mvl/mxv
 BYTE   W01
 BYTE   VOL   12*CastlevaniaSymphonyoftheNightDraculasCastle_mvl/mxv
 BYTE   W01
 BYTE   VOL   11*CastlevaniaSymphonyoftheNightDraculasCastle_mvl/mxv
 BYTE   W01
 BYTE   VOL   11*CastlevaniaSymphonyoftheNightDraculasCastle_mvl/mxv
 BYTE   W01
 BYTE   VOL   11*CastlevaniaSymphonyoftheNightDraculasCastle_mvl/mxv
 BYTE   W01
 BYTE   VOL   10*CastlevaniaSymphonyoftheNightDraculasCastle_mvl/mxv
 BYTE   W01
 BYTE   VOL   10*CastlevaniaSymphonyoftheNightDraculasCastle_mvl/mxv
 BYTE   W01
 BYTE   VOL   10*CastlevaniaSymphonyoftheNightDraculasCastle_mvl/mxv
 BYTE   W01
 BYTE   VOL   9*CastlevaniaSymphonyoftheNightDraculasCastle_mvl/mxv
 BYTE   W01
 BYTE   VOL   9*CastlevaniaSymphonyoftheNightDraculasCastle_mvl/mxv
 BYTE   W01
 BYTE   VOL   8*CastlevaniaSymphonyoftheNightDraculasCastle_mvl/mxv
 BYTE   W01
 BYTE   VOL   8*CastlevaniaSymphonyoftheNightDraculasCastle_mvl/mxv
 BYTE   W01
 BYTE   VOL   8*CastlevaniaSymphonyoftheNightDraculasCastle_mvl/mxv
 BYTE   W01
 BYTE   VOL   7*CastlevaniaSymphonyoftheNightDraculasCastle_mvl/mxv
 BYTE   W01
 BYTE   VOL   6*CastlevaniaSymphonyoftheNightDraculasCastle_mvl/mxv
 BYTE   W01
 BYTE   VOL   6*CastlevaniaSymphonyoftheNightDraculasCastle_mvl/mxv
 BYTE   W01
 BYTE   VOL   6*CastlevaniaSymphonyoftheNightDraculasCastle_mvl/mxv
 BYTE   W01
 BYTE   VOL   6*CastlevaniaSymphonyoftheNightDraculasCastle_mvl/mxv
 BYTE   W01
 BYTE   VOL   6*CastlevaniaSymphonyoftheNightDraculasCastle_mvl/mxv
 BYTE   W01
 BYTE   VOL   5*CastlevaniaSymphonyoftheNightDraculasCastle_mvl/mxv
 BYTE   W01
 BYTE   VOL   5*CastlevaniaSymphonyoftheNightDraculasCastle_mvl/mxv
 BYTE   W01
 BYTE   VOL   5*CastlevaniaSymphonyoftheNightDraculasCastle_mvl/mxv
 BYTE   W01
 BYTE   VOL   4*CastlevaniaSymphonyoftheNightDraculasCastle_mvl/mxv
 BYTE   W01
 BYTE   VOL   4*CastlevaniaSymphonyoftheNightDraculasCastle_mvl/mxv
 BYTE   W01
 BYTE   VOL   3*CastlevaniaSymphonyoftheNightDraculasCastle_mvl/mxv
 BYTE   W01
 BYTE   VOL   3*CastlevaniaSymphonyoftheNightDraculasCastle_mvl/mxv
 BYTE   W01
 BYTE   VOL   3*CastlevaniaSymphonyoftheNightDraculasCastle_mvl/mxv
 BYTE   W01
 BYTE   VOL   3*CastlevaniaSymphonyoftheNightDraculasCastle_mvl/mxv
 BYTE   W01
 BYTE   VOL   3*CastlevaniaSymphonyoftheNightDraculasCastle_mvl/mxv
 BYTE   W01
 BYTE   VOL   2*CastlevaniaSymphonyoftheNightDraculasCastle_mvl/mxv
 BYTE   W01
 BYTE   VOL   2*CastlevaniaSymphonyoftheNightDraculasCastle_mvl/mxv
 BYTE   W01
 BYTE   VOL   2*CastlevaniaSymphonyoftheNightDraculasCastle_mvl/mxv
 BYTE   W01
 BYTE   VOL   1*CastlevaniaSymphonyoftheNightDraculasCastle_mvl/mxv
 BYTE   W01
 BYTE   VOL   1*CastlevaniaSymphonyoftheNightDraculasCastle_mvl/mxv
 BYTE   W01
 BYTE   VOL   1*CastlevaniaSymphonyoftheNightDraculasCastle_mvl/mxv
 BYTE   W01
 BYTE   VOL   1*CastlevaniaSymphonyoftheNightDraculasCastle_mvl/mxv
 BYTE   W01
 BYTE   VOL   1*CastlevaniaSymphonyoftheNightDraculasCastle_mvl/mxv
 BYTE   W01
 BYTE   VOL   1*CastlevaniaSymphonyoftheNightDraculasCastle_mvl/mxv
 BYTE   W01
 BYTE   VOL   1*CastlevaniaSymphonyoftheNightDraculasCastle_mvl/mxv
 BYTE   W01
 BYTE   VOL   0*CastlevaniaSymphonyoftheNightDraculasCastle_mvl/mxv
 BYTE   W01
 BYTE   VOL   0*CastlevaniaSymphonyoftheNightDraculasCastle_mvl/mxv
 BYTE   W01
 BYTE   VOL   0*CastlevaniaSymphonyoftheNightDraculasCastle_mvl/mxv
 BYTE   W01
 BYTE   VOL   0*CastlevaniaSymphonyoftheNightDraculasCastle_mvl/mxv
 BYTE   W01
 BYTE   VOL   0*CastlevaniaSymphonyoftheNightDraculasCastle_mvl/mxv
 BYTE   W01
 BYTE   VOL   0*CastlevaniaSymphonyoftheNightDraculasCastle_mvl/mxv
 BYTE   W01
 BYTE   VOL   0*CastlevaniaSymphonyoftheNightDraculasCastle_mvl/mxv
 BYTE   W01
 BYTE   VOL   0*CastlevaniaSymphonyoftheNightDraculasCastle_mvl/mxv
 BYTE   W01
 BYTE   VOL   0*CastlevaniaSymphonyoftheNightDraculasCastle_mvl/mxv
 BYTE   W01
 BYTE   EOT
 BYTE   Dn2
 BYTE   VOL   0*CastlevaniaSymphonyoftheNightDraculasCastle_mvl/mxv
 BYTE   W01
//  #16 //012   ----------------------------------------
Label_012D39B4:
 BYTE   VOL   40*CastlevaniaSymphonyoftheNightDraculasCastle_mvl/mxv
 BYTE   W96
//  #16 //013   ----------------------------------------
 BYTE   W96
//  #16 //014   ----------------------------------------
 BYTE   W96
//  #16 //015   ----------------------------------------
 BYTE   W96
//  #16 //016   ----------------------------------------
 BYTE   W96
//  #16 //017   ----------------------------------------
 BYTE   W96
//  #16 //018   ----------------------------------------
 BYTE   W96
//  #16 //019   ----------------------------------------
 BYTE   W96
//  #16 //020   ----------------------------------------
 BYTE   W96
//  #16 //021   ----------------------------------------
 BYTE   W96
//  #16 //022   ----------------------------------------
 BYTE   W96
//  #16 //023   ----------------------------------------
 BYTE   W96
//  #16 //024   ----------------------------------------
 BYTE   W96
//  #16 //025   ----------------------------------------
 BYTE   W96
//  #16 //026   ----------------------------------------
 BYTE   W96
//  #16 //027   ----------------------------------------
 BYTE   W96
//  #16 //028   ----------------------------------------
 BYTE   W96
//  #16 //029   ----------------------------------------
 BYTE   W96
//  #16 //030   ----------------------------------------
 BYTE   W96
//  #16 //031   ----------------------------------------
 BYTE   W96
//  #16 //032   ----------------------------------------
 BYTE   W96
//  #16 //033   ----------------------------------------
 BYTE   W96
//  #16 //034   ----------------------------------------
 BYTE   W96
//  #16 //035   ----------------------------------------
 BYTE   W96
//  #16 //036   ----------------------------------------
 BYTE   W96
//  #16 //037   ----------------------------------------
 BYTE   W96
//  #16 //038   ----------------------------------------
 BYTE   W96
//  #16 //039   ----------------------------------------
 BYTE   W96
//  #16 //040   ----------------------------------------
 BYTE   W96
//  #16 //041   ----------------------------------------
 BYTE   W96
//  #16 //042   ----------------------------------------
 BYTE   W96
//  #16 //043   ----------------------------------------
 BYTE   W96
//  #16 //044   ----------------------------------------
 BYTE   W96
//  #16 //045   ----------------------------------------
 BYTE   W96
//  #16 //046   ----------------------------------------
 BYTE   W96
//  #16 //047   ----------------------------------------
 BYTE   TIE  Fn2  v072
 BYTE   W96
//  #16 //048   ----------------------------------------
 BYTE   W96
//  #16 //049   ----------------------------------------
 BYTE   Fs2
 BYTE   W10
 BYTE   EOT
 BYTE   Fn2
 BYTE   W84
 BYTE   W02
//  #16 //050   ----------------------------------------
 BYTE   W96
//  #16 //051   ----------------------------------------
 BYTE   TIE
 BYTE   W10
 BYTE   EOT
 BYTE   Fs2
 BYTE   W84
 BYTE   W02
//  #16 //052   ----------------------------------------
 BYTE   W96
//  #16 //053   ----------------------------------------
 BYTE   TIE
 BYTE   W10
 BYTE   EOT
 BYTE   Fn2
 BYTE   W84
 BYTE   W02
//  #16 //054   ----------------------------------------
 BYTE   W96
//  #16 //055   ----------------------------------------
 BYTE   W10
 BYTE   Fs2
 BYTE   W84
 BYTE   W02
//  #16 //056   ----------------------------------------
 BYTE   W96
//  #16 //057   ----------------------------------------
 BYTE   W96
//  #16 //058   ----------------------------------------
 BYTE   W96
//  #16 //059   ----------------------------------------
 BYTE   GoTo
  POIN2 Label_012D39B4
//  #16 //060   ----------------------------------------
 BYTE   W96
//  #16 //061   ----------------------------------------
 BYTE   W96
//  #16 //062   ----------------------------------------
 BYTE   W96
//  #16 //063   ----------------------------------------
 BYTE   W96
//  #16 //064   ----------------------------------------
 BYTE   W96
//  #16 //065   ----------------------------------------
 BYTE   W96
//  #16 //066   ----------------------------------------
 BYTE   W96
//  #16 //067   ----------------------------------------
 BYTE   W96
//  #16 //068   ----------------------------------------
 BYTE   W96
//  #16 //069   ----------------------------------------
 BYTE   W96
//  #16 //070   ----------------------------------------
 BYTE   W96
//  #16 //071   ----------------------------------------
 BYTE   W96
//  #16 //072   ----------------------------------------
 BYTE   W96
//  #16 //073   ----------------------------------------
 BYTE   W96
//  #16 //074   ----------------------------------------
 BYTE   W96
//  #16 //075   ----------------------------------------
 BYTE   W96
//  #16 //076   ----------------------------------------
 BYTE   W96
//  #16 //077   ----------------------------------------
 BYTE   W96
//  #16 //078   ----------------------------------------
 BYTE   W96
//  #16 //079   ----------------------------------------
 BYTE   W96
//  #16 //080   ----------------------------------------
 BYTE   W96
//  #16 //081   ----------------------------------------
 BYTE   W96
//  #16 //082   ----------------------------------------
 BYTE   W96
//  #16 //083   ----------------------------------------
 BYTE   W96
//  #16 //084   ----------------------------------------
 BYTE   W96
//  #16 //085   ----------------------------------------
 BYTE   W96
//  #16 //086   ----------------------------------------
 BYTE   W96
//  #16 //087   ----------------------------------------
 BYTE   W96
//  #16 //088   ----------------------------------------
 BYTE   W96
//  #16 //089   ----------------------------------------
 BYTE   W96
//  #16 //090   ----------------------------------------
 BYTE   W96
//  #16 //091   ----------------------------------------
 BYTE   W96
//  #16 //092   ----------------------------------------
 BYTE   W96
//  #16 //093   ----------------------------------------
 BYTE   W96
//  #16 //094   ----------------------------------------
 BYTE   W96
//  #16 //095   ----------------------------------------
 BYTE   W96
//  #16 //096   ----------------------------------------
 BYTE   W96
//  #16 //097   ----------------------------------------
 BYTE   W96
//  #16 //098   ----------------------------------------
 BYTE   W96
//  #16 //099   ----------------------------------------
 BYTE   W96
//  #16 //100   ----------------------------------------
 BYTE   W96
//  #16 //101   ----------------------------------------
 BYTE   W96
//  #16 //102   ----------------------------------------
 BYTE   W96
//  #16 //103   ----------------------------------------
 BYTE   W96
//  #16 //104   ----------------------------------------
 BYTE   W96
//  #16 //105   ----------------------------------------
 BYTE   W96
//  #16 //106   ----------------------------------------
 BYTE   W09
 BYTE   FINE

//******************************************************//
	ALIGN 4

CastlevaniaSymphonyoftheNightDraculasCastle:
	BYTE	16	// NumTrks
	BYTE	0	// NumBlks
	BYTE	CastlevaniaSymphonyoftheNightDraculasCastle_pri	// Priority
	BYTE	CastlevaniaSymphonyoftheNightDraculasCastle_rev	// Reverb.
    
	POIN2	CastlevaniaSymphonyoftheNightDraculasCastle_grp
    
	POIN2	CastlevaniaSymphonyoftheNightDraculasCastle_001
	POIN2	CastlevaniaSymphonyoftheNightDraculasCastle_002
	POIN2	CastlevaniaSymphonyoftheNightDraculasCastle_003
	POIN2	CastlevaniaSymphonyoftheNightDraculasCastle_004
	POIN2	CastlevaniaSymphonyoftheNightDraculasCastle_005
	POIN2	CastlevaniaSymphonyoftheNightDraculasCastle_006
	POIN2	CastlevaniaSymphonyoftheNightDraculasCastle_007
	POIN2	CastlevaniaSymphonyoftheNightDraculasCastle_008
	POIN2	CastlevaniaSymphonyoftheNightDraculasCastle_009
	POIN2	CastlevaniaSymphonyoftheNightDraculasCastle_010
	POIN2	CastlevaniaSymphonyoftheNightDraculasCastle_011
	POIN2	CastlevaniaSymphonyoftheNightDraculasCastle_012
	POIN2	CastlevaniaSymphonyoftheNightDraculasCastle_013
	POIN2	CastlevaniaSymphonyoftheNightDraculasCastle_014
	POIN2	CastlevaniaSymphonyoftheNightDraculasCastle_015
	POIN2	CastlevaniaSymphonyoftheNightDraculasCastle_016

	
