//Event file generated from Sappy .s format.
	#include "MPlayDef.event"

	#define	CastlevaniaOrderofEcclesiaSorrowsDistortionDolkar_grp  voicegroup000
	#define	CastlevaniaOrderofEcclesiaSorrowsDistortionDolkar_pri  0
	#define	CastlevaniaOrderofEcclesiaSorrowsDistortionDolkar_rev  0
	#define	CastlevaniaOrderofEcclesiaSorrowsDistortionDolkar_mvl  127
	#define	CastlevaniaOrderofEcclesiaSorrowsDistortionDolkar_key  0
	#define	CastlevaniaOrderofEcclesiaSorrowsDistortionDolkar_tbs  1
	#define	CastlevaniaOrderofEcclesiaSorrowsDistortionDolkar_exg  0
	#define	CastlevaniaOrderofEcclesiaSorrowsDistortionDolkar_cmp  1

	// .rodata
	//	CastlevaniaOrderofEcclesiaSorrowsDistortionDolkar
	ALIGN 4


//**************** Track 1 (Midi-Chn.0) ****************//

CastlevaniaOrderofEcclesiaSorrowsDistortionDolkar_001:
// 000   ----------------------------------------
 BYTE   KEYSH   CastlevaniaOrderofEcclesiaSorrowsDistortionDolkar_key+0
 BYTE   VOICE   19
 BYTE   TEMPO   120*CastlevaniaOrderofEcclesiaSorrowsDistortionDolkar_tbs/2
 BYTE   VOL   55*CastlevaniaOrderofEcclesiaSorrowsDistortionDolkar_mvl/mxv
 BYTE   PAN   c_v+45
 BYTE   N68  Dn1  v127
 BYTE   N68  Dn2
 BYTE   W72
 BYTE   N23  Cn1
 BYTE   N23  Cn2
 BYTE   W24
// 001   ----------------------------------------
 BYTE   N92  As0
 BYTE   N92  As1
 BYTE   W96
// 002   ----------------------------------------
 BYTE   VOICE   29
 BYTE   VOL   68*CastlevaniaOrderofEcclesiaSorrowsDistortionDolkar_mvl/mxv
 BYTE   PAN   c_v+45
 BYTE   N64  An1
 BYTE   N64  An2
 BYTE   W64
Label_0_01657725:
 BYTE   W01
 BYTE   N96  Gn4  v096
 BYTE   W30
 BYTE   W01
// 003   ----------------------------------------
 BYTE   W66
 BYTE   N09  Fn4  v092
 BYTE   W16
 BYTE   En4  v096
 BYTE   W14
// 004   ----------------------------------------
 BYTE   W03
 BYTE   N18  En4  v108
 BYTE   W24
 BYTE   W03
 BYTE   TIE  Dn4
 BYTE   W66
// 005   ----------------------------------------
 BYTE   W32
 BYTE   W03
 BYTE   EOT
 BYTE   W02
 BYTE   BEND   c_v-47
 BYTE   N19  Fn3  v116
 BYTE   W01
 BYTE   BEND   c_v-33
 BYTE   W01
 BYTE   En3
 BYTE   W19
 BYTE   N04
 BYTE   W06
 BYTE   Gn3
 BYTE   W05
 BYTE   N14  An3
 BYTE   W16
 BYTE   Dn4
 BYTE   W11
// 006   ----------------------------------------
 BYTE   W04
 BYTE   BEND   c_v-5
 BYTE   W01
 BYTE   En0
 BYTE   W01
 BYTE   CnM2
 BYTE   N20  En4
 BYTE   W02
 BYTE   BEND   c_v-62
 BYTE   W01
 BYTE   As1
 BYTE   W01
 BYTE   En3
 BYTE   W17
 BYTE   N04  Dn4
 BYTE   W06
 BYTE   Cn4
 BYTE   W05
 BYTE   N14  Gn3
 BYTE   W16
 BYTE   N12  Cn4  v112
 BYTE   W17
 BYTE   N04  Fn3
 BYTE   W05
 BYTE   Gn3  v108
 BYTE   W06
 BYTE   An3
 BYTE   W05
 BYTE   N28  Dn4  v116
 BYTE   W09
// 007   ----------------------------------------
 BYTE   W24
 BYTE   N14  Fn4
 BYTE   W16
 BYTE   N04  Gn4  v108
 BYTE   W05
 BYTE   Fn4  v116
 BYTE   W06
 BYTE   En4  v104
 BYTE   W05
 BYTE   N42  Cn4  v116
 BYTE   W40
// 008   ----------------------------------------
 BYTE   W05
 BYTE   BEND   c_v-23
 BYTE   W01
 BYTE   CnM2
 BYTE   W03
 BYTE   N19  Dn4
 BYTE   W02
 BYTE   BEND   c_v-59
 BYTE   W01
 BYTE   GsM1
 BYTE   W01
 BYTE   As2
 BYTE   W01
 BYTE   En3
 BYTE   W16
 BYTE   N04  Cn4  v104
 BYTE   W06
 BYTE   As3  v112
 BYTE   W05
 BYTE   N14  Fn3  v116
 BYTE   W17
 BYTE   As3
 BYTE   W16
 BYTE   N04  Cn4  v112
 BYTE   W05
 BYTE   As3  v116
 BYTE   W06
 BYTE   An3  v112
 BYTE   W05
 BYTE   N19  Fn3  v116
 BYTE   W06
// 009   ----------------------------------------
 BYTE   W16
 BYTE   N04  Dn3
 BYTE   W05
 BYTE   En3  v108
 BYTE   W06
 BYTE   Fn3
 BYTE   W05
 BYTE   Gn3  v112
 BYTE   W05
 BYTE   An3  v116
 BYTE   W03
 BYTE   BEND   c_v-13
 BYTE   W01
 BYTE   Ds0
 BYTE   W01
 BYTE   CsM2
 BYTE   W01
 BYTE   CnM2
 BYTE   N14  Bn3
 BYTE   W01
 BYTE   BEND   c_v-57
 BYTE   W01
 BYTE   Ds0
 BYTE   W01
 BYTE   An2
 BYTE   W01
 BYTE   En3
 BYTE   W12
 BYTE   N14  En3
 BYTE   W14
 BYTE   BEND   c_v-57
 BYTE   W01
 BYTE   CnM2
 BYTE   W01
 BYTE   N14  En4
 BYTE   W02
 BYTE   BEND   c_v-53
 BYTE   W01
 BYTE   Bn0
 BYTE   W01
 BYTE   En3
 BYTE   W13
 BYTE   N14  Dn4
 BYTE   W04
// 010   ----------------------------------------
 BYTE   W12
 BYTE   N19
 BYTE   W22
 BYTE   N04  Cs4  v108
 BYTE   W05
 BYTE   Dn4  v112
 BYTE   W05
 BYTE   N28  En4  v116
 BYTE   W32
 BYTE   W01
 BYTE   N36  Fn4
 BYTE   W19
// 011   ----------------------------------------
 BYTE   W24
 BYTE   N11  Gn4
 BYTE   W13
 BYTE   N08  An4
 BYTE   W10
 BYTE   N28
 BYTE   W24
 BYTE   W01
 BYTE   BEND   c_v+6
 BYTE   W01
 BYTE   Dn8
 BYTE   W01
 BYTE   En3
 BYTE   W04
 BYTE   N15  Gn4
 BYTE   W18
// 012   ----------------------------------------
 BYTE   N14  Fn4
 BYTE   W16
 BYTE   N13  En4
 BYTE   W16
 BYTE   N14  Fn4
 BYTE   W16
 BYTE   N16  Gn4  v104
 BYTE   W18
 BYTE   N13  Cn4  v112
 BYTE   W16
 BYTE   N28  Dn4  v116
 BYTE   W14
// 013   ----------------------------------------
 BYTE   W18
 BYTE   N09  Cs4
 BYTE   W10
 BYTE   N08  Dn4
 BYTE   W10
 BYTE   N09  En4
 BYTE   W11
 BYTE   N36  Fn4
 BYTE   W42
 BYTE   N11  Gn4
 BYTE   W05
// 014   ----------------------------------------
 BYTE   W08
 BYTE   N09  An4
 BYTE   W11
 BYTE   N28
 BYTE   W32
 BYTE   N09  Gn4
 BYTE   W11
 BYTE   An4
 BYTE   W11
 BYTE   As4  v112
 BYTE   W11
 BYTE   N28  Dn5  v116
 BYTE   W12
// 015   ----------------------------------------
 BYTE   W18
 BYTE   BEND   c_v-31
 BYTE   W01
 BYTE   CsM2
 BYTE   W01
 BYTE   CnM2
 BYTE   W01
 BYTE   N10
 BYTE   W01
 BYTE   BEND   c_v-50
 BYTE   W01
 BYTE   En3
 BYTE   W10
 BYTE   N09  En5
 BYTE   W10
 BYTE   N08  Fn5
 BYTE   W10
 BYTE   N24
 BYTE   W24
 BYTE   W02
 BYTE   BEND   c_v+49
 BYTE   W01
 BYTE   En3
 BYTE   W04
 BYTE   N30  En5
 BYTE   W12
// 016   ----------------------------------------
 BYTE   W20
 BYTE   BEND   c_v-9
 BYTE   W01
 BYTE   Gn1
 BYTE   W01
 BYTE   Dn1
 BYTE   N44  Dn5
 BYTE   W01
 BYTE   BEND   c_v-22
 BYTE   W01
 BYTE   Fn2
 BYTE   W01
 BYTE   En3
 BYTE   W48
 BYTE   W02
 BYTE   N05  Fn5
 BYTE   W07
 BYTE   N04  En5
 BYTE   W05
 BYTE   N48  Dn5
 BYTE   W09
// 017   ----------------------------------------
 BYTE   W44
 BYTE   W01
 BYTE   N04  Fn5
 BYTE   W05
 BYTE   N03  En5
 BYTE   W05
 BYTE   N30  Dn5
 BYTE   W32
 BYTE   W03
 BYTE   N13  As4
 BYTE   W06
// 018   ----------------------------------------
 BYTE   W09
 BYTE   Dn5
 BYTE   W15
 BYTE   BEND   c_v-33
 BYTE   W01
 BYTE   GnM1
 BYTE   N20
 BYTE   W01
 BYTE   BEND   c_v-43
 BYTE   W01
 BYTE   As0
 BYTE   W01
 BYTE   En3
 BYTE   W06
 BYTE   Fn4
 BYTE   W01
 BYTE   Bn4
 BYTE   W01
 BYTE   Dn5
 BYTE   W01
 BYTE   As4
 BYTE   W01
 BYTE   An3
 BYTE   W01
 BYTE   En3
 BYTE   W09
 BYTE   N03  Cs5
 BYTE   W04
 BYTE   N05  Bn4
 BYTE   W06
 BYTE   N14  Cs5
 BYTE   W16
 BYTE   An4
 BYTE   W13
 BYTE   BEND   c_v-7
 BYTE   W01
 BYTE   Cs0
 BYTE   W01
 BYTE   CsM2
 BYTE   W01
 BYTE   BnM2
 BYTE   N48  Dn5
 BYTE   W01
 BYTE   BEND   c_v-38
 BYTE   W01
 BYTE   Bn1
 BYTE   W01
 BYTE   En3
 BYTE   W03
// 019   ----------------------------------------
 BYTE   W48
 BYTE   N05  Fn5
 BYTE   W05
 BYTE   N04  En5
 BYTE   W05
 BYTE   N48  Dn5
 BYTE   W36
 BYTE   W02
// 020   ----------------------------------------
 BYTE   W18
 BYTE   N04  Fn5
 BYTE   W06
 BYTE   N03  En5
 BYTE   W04
 BYTE   TIE  Dn5
 BYTE   W68
// 021   ----------------------------------------
 BYTE   W32
 BYTE   EOT
 BYTE   W02
 BYTE   N02  Cn5
 BYTE   W02
 BYTE   N03  Bn4
 BYTE   W02
 BYTE   N02  An4
 BYTE   W04
 BYTE   Fn4
 BYTE   W01
 BYTE   En4
 BYTE   W03
 BYTE   N01  Cn4
 BYTE   W02
 BYTE   Bn3
 BYTE   W01
 BYTE   An3
 BYTE   W02
 BYTE   Fn3
 BYTE   W02
 BYTE   En3
 BYTE   W01
 BYTE   Dn3
 BYTE   W01
 BYTE   Cn3
 BYTE   W01
 BYTE   GoTo
  POIN2 Label_0_01657725
 BYTE   FINE

//**************** Track 2 (Midi-Chn.1) ****************//

CastlevaniaOrderofEcclesiaSorrowsDistortionDolkar_002:
// 000   ----------------------------------------
 BYTE   KEYSH   CastlevaniaOrderofEcclesiaSorrowsDistortionDolkar_key+0
 BYTE   VOICE   14
 BYTE   PAN   c_v-35
 BYTE   VOL   68*CastlevaniaOrderofEcclesiaSorrowsDistortionDolkar_mvl/mxv
 BYTE   MOD 0
 BYTE   CnM2  v000
 BYTE   CnM2
 BYTE   BEND   c_v+0
 BYTE   N68  Dn3  v116
 BYTE   W72
 BYTE   N22  Cn3
 BYTE   W24
// 001   ----------------------------------------
 BYTE   N92  An2  v112
 BYTE   W96
// 002   ----------------------------------------
 BYTE   VOICE   30
 BYTE   PAN   c_v-35
 BYTE   VOL   48*CastlevaniaOrderofEcclesiaSorrowsDistortionDolkar_mvl/mxv
 BYTE   MOD 0
 BYTE   CnM2  v000
 BYTE   CnM2
 BYTE   BEND   c_v+0
 BYTE   W32
 BYTE   N05  Bn3  v127
 BYTE   W04
 BYTE   As3
 BYTE   W04
 BYTE   N04  An3
 BYTE   W04
 BYTE   Gs3
 BYTE   W04
 BYTE   N05  Gn3
 BYTE   W04
 BYTE   Fs3
 BYTE   W04
 BYTE   N04  Fn3
 BYTE   W04
 BYTE   En3
 BYTE   W04
Label_1_0165794B:
 BYTE   MOD 0
 BYTE   CnM2  v000
 BYTE   CnM2
 BYTE   VOL   48*CastlevaniaOrderofEcclesiaSorrowsDistortionDolkar_mvl/mxv
 BYTE   BEND   c_v+0
 BYTE   W16
 BYTE   N09  Dn3  v116
 BYTE   W11
 BYTE   N13  Cn3
 BYTE   W05
// 003   ----------------------------------------
 BYTE   W16
 BYTE   N09
 BYTE   W11
 BYTE   N13  As2
 BYTE   W32
 BYTE   W01
 BYTE   N04
 BYTE   W05
 BYTE   N09  An2
 BYTE   W06
 BYTE   BEND   c_v+5
 BYTE   W05
 BYTE   En3
 BYTE   N04
 BYTE   W06
 BYTE   Cs3
 BYTE   W05
 BYTE   N10  As2
 BYTE   W05
 BYTE   BEND   c_v-6
 BYTE   W04
// 004   ----------------------------------------
 BYTE   W02
 BYTE   En3
 BYTE   W16
 BYTE   N09  Dn3
 BYTE   W11
 BYTE   N12  Cn3
 BYTE   W22
 BYTE   N09
 BYTE   W10
 BYTE   N14  As2
 BYTE   W32
 BYTE   W01
 BYTE   N04
 BYTE   W02
// 005   ----------------------------------------
 BYTE   W03
 BYTE   BEND   c_v+21
 BYTE   W01
 BYTE   N04  Bn3  v127
 BYTE   W04
 BYTE   As3
 BYTE   W04
 BYTE   An3
 BYTE   W04
 BYTE   Gs3
 BYTE   W04
 BYTE   Gn3
 BYTE   W04
 BYTE   Fs3
 BYTE   W05
 BYTE   Fn3
 BYTE   W04
 BYTE   En3
 BYTE   W60
 BYTE   W03
// 006   ----------------------------------------
 BYTE   W21
 BYTE   N09  Cn3  v116
 BYTE   W11
 BYTE   N04
 BYTE   W64
// 007   ----------------------------------------
 BYTE   W76
 BYTE   W01
 BYTE   N10  En2  v096
 BYTE   W05
 BYTE   BEND   c_v+21
 BYTE   W06
 BYTE   En3
 BYTE   W08
// 008   ----------------------------------------
 BYTE   W88
 BYTE   W01
 BYTE   N09  An2  v116
 BYTE   W07
// 009   ----------------------------------------
 BYTE   W04
 BYTE   N05
 BYTE   W36
 BYTE   W02
 BYTE   N30  Bn2  v104
 BYTE   W13
 BYTE   BEND   c_v+0
 BYTE   W03
 BYTE   En3
 BYTE   W03
 BYTE   En3
 BYTE   W02
 BYTE   Dn3
 BYTE   W03
 BYTE   An2
 BYTE   W03
 BYTE   Dn2
 BYTE   W03
 BYTE   Ds1
 BYTE   W03
 BYTE   En3
 BYTE   N32  En2
 BYTE   W21
// 010   ----------------------------------------
 BYTE   W11
 BYTE   N36  An2
 BYTE   W32
 BYTE   W01
 BYTE   N05  Gs4  v127
 BYTE   W04
 BYTE   Gn4
 BYTE   W05
 BYTE   N04  Fs4
 BYTE   W04
 BYTE   Fn4
 BYTE   W04
 BYTE   N05  En4
 BYTE   W04
 BYTE   N04  Ds4
 BYTE   W04
 BYTE   N05  Dn4
 BYTE   W04
 BYTE   Cs4
 BYTE   W23
// 011   ----------------------------------------
 BYTE   W96
// 012   ----------------------------------------
 BYTE   W60
 BYTE   W03
 BYTE   N14  Gn2  v104
 BYTE   W16
 BYTE   N28  Fn2
 BYTE   W17
// 013   ----------------------------------------
 BYTE   W16
 BYTE   N15  An2
 BYTE   W80
// 014   ----------------------------------------
 BYTE   W96
// 015   ----------------------------------------
 BYTE   W03
 BYTE   N09  As2  v116
 BYTE   W10
 BYTE   N04
 BYTE   W80
 BYTE   W03
// 016   ----------------------------------------
 BYTE   W36
 BYTE   W01
 BYTE   N09  Gn2
 BYTE   W10
 BYTE   N05
 BYTE   W48
 BYTE   W01
// 017   ----------------------------------------
 BYTE   W06
 BYTE   N09  An2
 BYTE   W10
 BYTE   N04
 BYTE   W80
// 018   ----------------------------------------
 BYTE   W40
 BYTE   N10
 BYTE   W56
// 019   ----------------------------------------
 BYTE   W96
// 020   ----------------------------------------
 BYTE   W96
// 021   ----------------------------------------
 BYTE   W12
 BYTE   N09  Dn3
 BYTE   W11
 BYTE   N04
 BYTE   W04
 BYTE   BEND   c_v-6
 BYTE   W28
 BYTE   W01
 BYTE   GoTo
  POIN2 Label_1_0165794B
 BYTE   FINE

//**************** Track 3 (Midi-Chn.2) ****************//

CastlevaniaOrderofEcclesiaSorrowsDistortionDolkar_003:
// 000   ----------------------------------------
 BYTE   KEYSH   CastlevaniaOrderofEcclesiaSorrowsDistortionDolkar_key+0
 BYTE   VOICE   0
 BYTE   W96
// 001   ----------------------------------------
 BYTE   W96
// 002   ----------------------------------------
 BYTE   Fs0
 BYTE   PAN   c_v-31
 BYTE   VOL   48*CastlevaniaOrderofEcclesiaSorrowsDistortionDolkar_mvl/mxv
 BYTE   MOD 0
 BYTE   CnM2  v000
 BYTE   CnM2
 BYTE   BEND   c_v+0
 BYTE   W64
Label_2_01657A3A:
 BYTE   W01
 BYTE   N14  Dn2  v100
 BYTE   W16
 BYTE   N09  Dn3  v092
 BYTE   W11
 BYTE   N19  Cn3
 BYTE   W04
// 003   ----------------------------------------
 BYTE   W17
 BYTE   N09
 BYTE   W11
 BYTE   N32  As2
 BYTE   W36
 BYTE   W02
 BYTE   N14  Cn3  v100
 BYTE   W16
 BYTE   N14
 BYTE   W14
// 004   ----------------------------------------
 BYTE   W03
 BYTE   Dn2
 BYTE   W16
 BYTE   N09  Dn3  v092
 BYTE   W11
 BYTE   N19  Cn3
 BYTE   W21
 BYTE   N09
 BYTE   W11
 BYTE   N32  As2
 BYTE   W32
 BYTE   W02
// 005   ----------------------------------------
 BYTE   W04
 BYTE   N14  Cn3  v100
 BYTE   W16
 BYTE   N14
 BYTE   W17
 BYTE   N42  Dn3  v096
 BYTE   W48
 BYTE   N14
 BYTE   W11
// 006   ----------------------------------------
 BYTE   W06
 BYTE   N42  Cn3  v100
 BYTE   W48
 BYTE   N14
 BYTE   W17
 BYTE   N28  As2
 BYTE   W24
 BYTE   W01
// 007   ----------------------------------------
 BYTE   W07
 BYTE   Cn3  v104
 BYTE   W32
 BYTE   W01
 BYTE   N56  An2  v108
 BYTE   W56
// 008   ----------------------------------------
 BYTE   W09
 BYTE   As2  v096
 BYTE   W64
 BYTE   W01
 BYTE   An2  v108
 BYTE   W22
// 009   ----------------------------------------
 BYTE   W42
 BYTE   W01
 BYTE   N28  En2  v092
 BYTE   W32
 BYTE   En2  v100
 BYTE   W21
// 010   ----------------------------------------
 BYTE   W12
 BYTE   Gn2  v080
 BYTE   W32
 BYTE   An2  v092
 BYTE   W32
 BYTE   W01
 BYTE   N42  Dn3
 BYTE   W19
// 011   ----------------------------------------
 BYTE   W30
 BYTE   N14
 BYTE   W16
 BYTE   N42  As2  v096
 BYTE   W48
 BYTE   W01
 BYTE   N14  As2  v092
 BYTE   W01
// 012   ----------------------------------------
 BYTE   W15
 BYTE   N42  Cn3  v088
 BYTE   W48
 BYTE   W01
 BYTE   N14  Cn3  v092
 BYTE   W16
 BYTE   N28  As2  v096
 BYTE   W16
// 013   ----------------------------------------
 BYTE   W17
 BYTE   An2  v100
 BYTE   W32
 BYTE   N42  Dn3  v092
 BYTE   W44
 BYTE   W03
// 014   ----------------------------------------
 BYTE   W02
 BYTE   N14
 BYTE   W16
 BYTE   N42  As2  v096
 BYTE   W48
 BYTE   W01
 BYTE   N14  As2  v092
 BYTE   W16
 BYTE   N42
 BYTE   W13
// 015   ----------------------------------------
 BYTE   W36
 BYTE   N14  As2  v096
 BYTE   W16
 BYTE   N28  As2  v100
 BYTE   W32
 BYTE   W01
 BYTE   An2
 BYTE   W11
// 016   ----------------------------------------
 BYTE   W21
 BYTE   N56  As2  v096
 BYTE   W64
 BYTE   W01
 BYTE   An2
 BYTE   W10
// 017   ----------------------------------------
 BYTE   W54
 BYTE   W01
 BYTE   As2  v092
 BYTE   W40
 BYTE   W01
// 018   ----------------------------------------
 BYTE   W24
 BYTE   An2  v100
 BYTE   W64
 BYTE   W01
 BYTE   As2  v096
 BYTE   W07
// 019   ----------------------------------------
 BYTE   W56
 BYTE   W02
 BYTE   Cn3
 BYTE   W36
 BYTE   W02
// 020   ----------------------------------------
 BYTE   W24
 BYTE   W03
 BYTE   Dn3
 BYTE   W64
 BYTE   W01
 BYTE   Dn3  v100
 BYTE   W04
// 021   ----------------------------------------
 BYTE   W56
 BYTE   GoTo
  POIN2 Label_2_01657A3A
 BYTE   FINE

//**************** Track 4 (Midi-Chn.3) ****************//

CastlevaniaOrderofEcclesiaSorrowsDistortionDolkar_004:
// 000   ----------------------------------------
 BYTE   KEYSH   CastlevaniaOrderofEcclesiaSorrowsDistortionDolkar_key+0
 BYTE   VOICE   0
 BYTE   W96
// 001   ----------------------------------------
 BYTE   W96
// 002   ----------------------------------------
 BYTE   Fs0
 BYTE   PAN   c_v-20
 BYTE   VOL   48*CastlevaniaOrderofEcclesiaSorrowsDistortionDolkar_mvl/mxv
 BYTE   MOD 0
 BYTE   CnM2  v000
 BYTE   CnM2
 BYTE   BEND   c_v+0
 BYTE   W64
Label_3_01657B1A:
 BYTE   W01
 BYTE   N04  Dn4  v116
 BYTE   W05
 BYTE   Dn4  v108
 BYTE   W05
 BYTE   N04
 BYTE   W21
// 003   ----------------------------------------
 BYTE   W12
 BYTE   Cn4
 BYTE   W32
 BYTE   As3
 BYTE   W06
 BYTE   N04
 BYTE   W05
 BYTE   N04
 BYTE   W40
 BYTE   W01
// 004   ----------------------------------------
 BYTE   W03
 BYTE   Dn4  v116
 BYTE   W05
 BYTE   Dn4  v108
 BYTE   W05
 BYTE   N04
 BYTE   W32
 BYTE   W01
 BYTE   Cn4
 BYTE   W32
 BYTE   As3
 BYTE   W06
 BYTE   N04
 BYTE   W05
 BYTE   N04
 BYTE   W07
// 005   ----------------------------------------
 BYTE   W36
 BYTE   W01
 BYTE   Dn4  v112
 BYTE   W10
 BYTE   Dn4  v108
 BYTE   W06
 BYTE   Dn4  v104
 BYTE   W11
 BYTE   Dn4  v100
 BYTE   W05
 BYTE   Dn4  v112
 BYTE   W11
 BYTE   Dn4  v096
 BYTE   W05
 BYTE   Dn4  v108
 BYTE   W11
// 006   ----------------------------------------
 BYTE   N04
 BYTE   W06
 BYTE   Cn4  v112
 BYTE   W11
 BYTE   N04
 BYTE   W21
 BYTE   N04
 BYTE   W11
 BYTE   Cn4  v108
 BYTE   W05
 BYTE   N04
 BYTE   W06
 BYTE   Cn4  v112
 BYTE   W05
 BYTE   N04
 BYTE   W06
 BYTE   As3
 BYTE   W11
 BYTE   As3  v108
 BYTE   W05
 BYTE   As3  v104
 BYTE   W09
// 007   ----------------------------------------
 BYTE   W02
 BYTE   As3  v100
 BYTE   W05
 BYTE   As3  v112
 BYTE   W11
 BYTE   As3  v096
 BYTE   W06
 BYTE   As3  v108
 BYTE   W10
 BYTE   N04
 BYTE   W06
 BYTE   An3  v112
 BYTE   W11
 BYTE   An3  v108
 BYTE   W05
 BYTE   An3  v104
 BYTE   W11
 BYTE   An3  v100
 BYTE   W05
 BYTE   An3  v112
 BYTE   W11
 BYTE   An3  v096
 BYTE   W06
 BYTE   An3  v108
 BYTE   W07
// 008   ----------------------------------------
 BYTE   W03
 BYTE   N04
 BYTE   W06
 BYTE   As3  v112
 BYTE   W11
 BYTE   As3  v108
 BYTE   W05
 BYTE   As3  v104
 BYTE   W11
 BYTE   As3  v100
 BYTE   W05
 BYTE   As3  v112
 BYTE   W11
 BYTE   As3  v096
 BYTE   W06
 BYTE   As3  v108
 BYTE   W10
 BYTE   N04
 BYTE   W06
 BYTE   An3  v112
 BYTE   W11
 BYTE   N04
 BYTE   W11
// 009   ----------------------------------------
 BYTE   W10
 BYTE   N04
 BYTE   W11
 BYTE   An3  v108
 BYTE   W06
 BYTE   N04
 BYTE   W05
 BYTE   An3  v112
 BYTE   W05
 BYTE   N04
 BYTE   W56
 BYTE   W03
// 010   ----------------------------------------
 BYTE   W76
 BYTE   W01
 BYTE   Dn4  v116
 BYTE   W05
 BYTE   Dn4  v112
 BYTE   W06
 BYTE   N04
 BYTE   W05
 BYTE   Cn4  v116
 BYTE   W03
// 011   ----------------------------------------
 BYTE   W03
 BYTE   N04
 BYTE   W05
 BYTE   Cn4  v112
 BYTE   W05
 BYTE   Dn4  v116
 BYTE   W06
 BYTE   N04
 BYTE   W05
 BYTE   Dn4  v112
 BYTE   W06
 BYTE   An3  v116
 BYTE   W05
 BYTE   An3  v108
 BYTE   W06
 BYTE   N04
 BYTE   W05
 BYTE   Gn3  v112
 BYTE   W05
 BYTE   Gn3  v108
 BYTE   W06
 BYTE   N04
 BYTE   W05
 BYTE   An3  v116
 BYTE   W06
 BYTE   An3  v096
 BYTE   W05
 BYTE   An3  v084
 BYTE   W05
 BYTE   As3  v116
 BYTE   W06
 BYTE   As3  v108
 BYTE   W05
 BYTE   N04
 BYTE   W06
 BYTE   Dn4  v116
 BYTE   W01
// 012   ----------------------------------------
 BYTE   W04
 BYTE   Dn4  v108
 BYTE   W06
 BYTE   N04
 BYTE   W05
 BYTE   Cn4  v112
 BYTE   W05
 BYTE   Cn4  v092
 BYTE   W06
 BYTE   N04
 BYTE   W05
 BYTE   As3  v116
 BYTE   W06
 BYTE   As3  v112
 BYTE   W05
 BYTE   As3  v108
 BYTE   W06
 BYTE   Cn4  v116
 BYTE   W05
 BYTE   Cn4  v100
 BYTE   W05
 BYTE   Cn4  v080
 BYTE   W36
 BYTE   W02
// 013   ----------------------------------------
 BYTE   W48
 BYTE   W01
 BYTE   Dn4  v116
 BYTE   W05
 BYTE   Dn4  v112
 BYTE   W06
 BYTE   N04
 BYTE   W05
 BYTE   Cn4  v116
 BYTE   W06
 BYTE   N04
 BYTE   W05
 BYTE   Cn4  v112
 BYTE   W06
 BYTE   Dn4  v116
 BYTE   W05
 BYTE   N04
 BYTE   W05
 BYTE   Dn4  v112
 BYTE   W04
// 014   ----------------------------------------
 BYTE   W02
 BYTE   An3  v116
 BYTE   W05
 BYTE   An3  v108
 BYTE   W06
 BYTE   N04
 BYTE   W05
 BYTE   Gn3  v112
 BYTE   W06
 BYTE   Gn3  v108
 BYTE   W05
 BYTE   N04
 BYTE   W05
 BYTE   An3  v116
 BYTE   W06
 BYTE   An3  v096
 BYTE   W05
 BYTE   An3  v084
 BYTE   W06
 BYTE   As3  v116
 BYTE   W05
 BYTE   As3  v108
 BYTE   W05
 BYTE   N04
 BYTE   W06
 BYTE   An3  v116
 BYTE   W05
 BYTE   An3  v108
 BYTE   W06
 BYTE   N04
 BYTE   W05
 BYTE   As3  v112
 BYTE   W06
 BYTE   As3  v116
 BYTE   W05
 BYTE   As3  v112
 BYTE   W02
// 015   ----------------------------------------
 BYTE   W20
 BYTE   N04
 BYTE   W05
 BYTE   As3  v116
 BYTE   W05
 BYTE   As3  v108
 BYTE   W06
 BYTE   N04
 BYTE   W05
 BYTE   N04
 BYTE   W06
 BYTE   As3  v112
 BYTE   W05
 BYTE   As3  v116
 BYTE   W06
 BYTE   As3  v100
 BYTE   W05
 BYTE   N04
 BYTE   W05
 BYTE   As3  v108
 BYTE   W06
 BYTE   N04
 BYTE   W05
 BYTE   As3  v104
 BYTE   W06
 BYTE   An3  v108
 BYTE   W05
 BYTE   Dn3  v116
 BYTE   W05
 BYTE   En3
 BYTE   W01
// 016   ----------------------------------------
 BYTE   W05
 BYTE   An3
 BYTE   W05
 BYTE   N04
 BYTE   W06
 BYTE   N04
 BYTE   W05
 BYTE   Gn3
 BYTE   W11
 BYTE   N04
 BYTE   W22
 BYTE   Gn3  v112
 BYTE   W11
 BYTE   Gn3  v108
 BYTE   W05
 BYTE   N04
 BYTE   W11
 BYTE   Gn3  v116
 BYTE   W05
 BYTE   An3
 BYTE   W10
// 017   ----------------------------------------
 BYTE   W01
 BYTE   N04
 BYTE   W22
 BYTE   An3  v112
 BYTE   W11
 BYTE   N04
 BYTE   W05
 BYTE   An3  v108
 BYTE   W11
 BYTE   An3  v116
 BYTE   W05
 BYTE   As3
 BYTE   W11
 BYTE   As3  v112
 BYTE   W05
 BYTE   As3  v108
 BYTE   W11
 BYTE   As3  v112
 BYTE   W06
 BYTE   As3  v108
 BYTE   W08
// 018   ----------------------------------------
 BYTE   W03
 BYTE   N04
 BYTE   W05
 BYTE   As3  v112
 BYTE   W05
 BYTE   As3  v116
 BYTE   W06
 BYTE   N04
 BYTE   W05
 BYTE   An3
 BYTE   W06
 BYTE   N04
 BYTE   W05
 BYTE   N04
 BYTE   W16
 BYTE   N04
 BYTE   W06
 BYTE   An3  v108
 BYTE   W05
 BYTE   En3  v116
 BYTE   W06
 BYTE   Gn3  v108
 BYTE   W05
 BYTE   Gs3  v116
 BYTE   W05
 BYTE   An3
 BYTE   W06
 BYTE   Cn4
 BYTE   W05
 BYTE   As3
 BYTE   W06
 BYTE   N04
 BYTE   W01
// 019   ----------------------------------------
 BYTE   W04
 BYTE   N04
 BYTE   W06
 BYTE   N04
 BYTE   W05
 BYTE   N04
 BYTE   W05
 BYTE   N04
 BYTE   W06
 BYTE   N04
 BYTE   W05
 BYTE   N04
 BYTE   W06
 BYTE   As3  v104
 BYTE   W05
 BYTE   As3  v116
 BYTE   W06
 BYTE   N04
 BYTE   W05
 BYTE   N04
 BYTE   W05
 BYTE   Cn4
 BYTE   W06
 BYTE   N04
 BYTE   W05
 BYTE   N04
 BYTE   W06
 BYTE   N04
 BYTE   W05
 BYTE   N04
 BYTE   W05
 BYTE   N04
 BYTE   W06
 BYTE   Cn4  v108
 BYTE   W05
// 020   ----------------------------------------
 BYTE   Cn4  v116
 BYTE   W06
 BYTE   N04
 BYTE   W05
 BYTE   N04
 BYTE   W06
 BYTE   An3
 BYTE   W05
 BYTE   Cn4
 BYTE   W05
 BYTE   Dn4
 BYTE   W06
 BYTE   N04
 BYTE   W05
 BYTE   N04
 BYTE   W06
 BYTE   N04
 BYTE   W05
 BYTE   N04
 BYTE   W05
 BYTE   N04
 BYTE   W06
 BYTE   N04
 BYTE   W05
 BYTE   N04
 BYTE   W06
 BYTE   N04
 BYTE   W05
 BYTE   N04
 BYTE   W06
 BYTE   An3
 BYTE   W05
 BYTE   Cn4
 BYTE   W05
 BYTE   Dn4
 BYTE   W04
// 021   ----------------------------------------
 BYTE   W02
 BYTE   N04
 BYTE   W05
 BYTE   N04
 BYTE   W48
 BYTE   W01
 BYTE   GoTo
  POIN2 Label_3_01657B1A
 BYTE   FINE

//**************** Track 5 (Midi-Chn.4) ****************//

CastlevaniaOrderofEcclesiaSorrowsDistortionDolkar_005:
// 000   ----------------------------------------
 BYTE   KEYSH   CastlevaniaOrderofEcclesiaSorrowsDistortionDolkar_key+0
 BYTE   VOICE   19
 BYTE   PAN   c_v+31
 BYTE   VOL   49*CastlevaniaOrderofEcclesiaSorrowsDistortionDolkar_mvl/mxv
 BYTE   BEND   c_v+2
 BYTE   W24
 BYTE   N56  An3  v127
 BYTE   W12
 BYTE   N23  Fn3
 BYTE   W12
 BYTE   N44  Dn4
 BYTE   W12
 BYTE   N23  Fn3
 BYTE   W12
 BYTE   N22  En4
 BYTE   W12
 BYTE   N11  Dn3
 BYTE   W12
// 001   ----------------------------------------
 BYTE   N92  Gs3
 BYTE   N92  Dn4
 BYTE   N92  Fn4
 BYTE   W96
// 002   ----------------------------------------
 BYTE   VOICE   19
 BYTE   PAN   c_v+31
 BYTE   VOL   49*CastlevaniaOrderofEcclesiaSorrowsDistortionDolkar_mvl/mxv
 BYTE   BEND   c_v+2
 BYTE   N64  As3
 BYTE   N64  Cs4
 BYTE   N64  En4
 BYTE   W64
Label_4_01657D80:
 BYTE   W01
 BYTE   N96  An3  v104
 BYTE   N96  Dn4
 BYTE   W30
 BYTE   W01
// 003   ----------------------------------------
 BYTE   W66
 BYTE   N09  An3  v084
 BYTE   N09  Dn4  v088
 BYTE   W16
 BYTE   An3
 BYTE   N09  Dn4
 BYTE   W14
// 004   ----------------------------------------
 BYTE   W03
 BYTE   N18  An3  v096
 BYTE   W24
 BYTE   W03
 BYTE   TIE  An3  v100
 BYTE   W66
// 005   ----------------------------------------
 BYTE   W32
 BYTE   W03
 BYTE   EOT
 BYTE   W60
 BYTE   W01
// 006   ----------------------------------------
 BYTE   W06
 BYTE   N32  Dn4  v116
 BYTE   W32
 BYTE   N05  En4  v104
 BYTE   W11
 BYTE   Cn4  v108
 BYTE   W11
 BYTE   Gn3  v116
 BYTE   W11
 BYTE   N32  An3  v108
 BYTE   W24
 BYTE   W01
// 007   ----------------------------------------
 BYTE   W07
 BYTE   Dn4  v104
 BYTE   W32
 BYTE   W01
 BYTE   Cn4  v108
 BYTE   W32
 BYTE   Gn3  v112
 BYTE   W24
// 008   ----------------------------------------
 BYTE   W09
 BYTE   N64  Fn3  v108
 BYTE   W64
 BYTE   W01
 BYTE   N32  Gn3  v112
 BYTE   W22
// 009   ----------------------------------------
 BYTE   W10
 BYTE   An3
 BYTE   W32
 BYTE   W01
 BYTE   Gs3
 BYTE   W32
 BYTE   En3  v116
 BYTE   W21
// 010   ----------------------------------------
 BYTE   W12
 BYTE   An3
 BYTE   W32
 BYTE   N04  Dn2  v127
 BYTE   W06
 BYTE   En2
 BYTE   W05
 BYTE   An2
 BYTE   W06
 BYTE   Dn3
 BYTE   W05
 BYTE   En3
 BYTE   W05
 BYTE   An3
 BYTE   W06
 BYTE   N05  Fn4
 BYTE   W05
 BYTE   N04  En4
 BYTE   W06
 BYTE   N05  Dn4
 BYTE   W05
 BYTE   N04  En4
 BYTE   W03
// 011   ----------------------------------------
 BYTE   W03
 BYTE   N05  Dn4
 BYTE   W05
 BYTE   Cn4
 BYTE   W05
 BYTE   Dn4
 BYTE   W06
 BYTE   Fn3
 BYTE   W05
 BYTE   An3
 BYTE   W06
 BYTE   N04  Dn4
 BYTE   W05
 BYTE   En4
 BYTE   W06
 BYTE   N05  Fn4
 BYTE   W05
 BYTE   Gn4
 BYTE   W05
 BYTE   Fn4
 BYTE   W06
 BYTE   En4
 BYTE   W05
 BYTE   Fn4
 BYTE   W06
 BYTE   N04  En4
 BYTE   W05
 BYTE   N05  Dn4
 BYTE   W05
 BYTE   N04  En4
 BYTE   W06
 BYTE   N05  As3
 BYTE   W05
 BYTE   Cn4
 BYTE   W06
 BYTE   Dn4
 BYTE   W01
// 012   ----------------------------------------
 BYTE   W04
 BYTE   N04  En4
 BYTE   W06
 BYTE   N05  Fn4
 BYTE   W05
 BYTE   N04  En4
 BYTE   W05
 BYTE   N05  Dn4
 BYTE   W06
 BYTE   Cn4
 BYTE   W05
 BYTE   Dn4
 BYTE   W06
 BYTE   Cn4
 BYTE   W05
 BYTE   As3
 BYTE   W06
 BYTE   N04  Cn4
 BYTE   W05
 BYTE   Gn3
 BYTE   W05
 BYTE   N05  An3
 BYTE   W06
 BYTE   As3
 BYTE   W05
 BYTE   Gn3
 BYTE   W06
 BYTE   En4
 BYTE   W05
 BYTE   Gn4
 BYTE   W05
 BYTE   N04  Fn4
 BYTE   W06
 BYTE   N05  En4
 BYTE   W05
// 013   ----------------------------------------
 BYTE   N04  Fn4
 BYTE   W06
 BYTE   N05  En4
 BYTE   W05
 BYTE   Dn4
 BYTE   W06
 BYTE   Cs4
 BYTE   W05
 BYTE   En4
 BYTE   W05
 BYTE   Dn4
 BYTE   W06
 BYTE   N15  Cs4
 BYTE   W16
 BYTE   N05  Fn4
 BYTE   W05
 BYTE   En4
 BYTE   W06
 BYTE   Dn4
 BYTE   W05
 BYTE   En4
 BYTE   W06
 BYTE   N04  Dn4
 BYTE   W05
 BYTE   N05  Cn4
 BYTE   W06
 BYTE   Dn4
 BYTE   W05
 BYTE   Fn3
 BYTE   W05
 BYTE   An3
 BYTE   W04
// 014   ----------------------------------------
 BYTE   W02
 BYTE   Dn4
 BYTE   W05
 BYTE   N04  En4
 BYTE   W06
 BYTE   N05  Fn4
 BYTE   W05
 BYTE   N04  Gn4
 BYTE   W06
 BYTE   N05  Fn4
 BYTE   W05
 BYTE   En4
 BYTE   W05
 BYTE   Fn4
 BYTE   W06
 BYTE   En4
 BYTE   W05
 BYTE   Cn4
 BYTE   W06
 BYTE   N04  Dn4
 BYTE   W05
 BYTE   An3
 BYTE   W05
 BYTE   N05  Cn4
 BYTE   W06
 BYTE   Dn4
 BYTE   W05
 BYTE   En4
 BYTE   W06
 BYTE   Fn4
 BYTE   W05
 BYTE   N17  Dn4
 BYTE   W13
// 015   ----------------------------------------
 BYTE   W09
 BYTE   N05
 BYTE   W05
 BYTE   En4
 BYTE   W06
 BYTE   N13  Fn4
 BYTE   W16
 BYTE   Dn4
 BYTE   W16
 BYTE   N15  Fn4
 BYTE   W22
 BYTE   N04  Gn4
 BYTE   W05
 BYTE   N05  Fn4
 BYTE   W06
 BYTE   N24  An4
 BYTE   W11
// 016   ----------------------------------------
 BYTE   W21
 BYTE   N44  Fn4
 BYTE   W54
 BYTE   N05  An4
 BYTE   W06
 BYTE   Gn4
 BYTE   W05
 BYTE   N44  Fn4
 BYTE   W10
// 017   ----------------------------------------
 BYTE   W44
 BYTE   N05  An4
 BYTE   W06
 BYTE   Gn4
 BYTE   W05
 BYTE   N60  Fn4
 BYTE   W40
 BYTE   W01
// 018   ----------------------------------------
 BYTE   W24
 BYTE   N15
 BYTE   W22
 BYTE   N05  En4
 BYTE   W05
 BYTE   Dn4
 BYTE   W06
 BYTE   N30  En4
 BYTE   W32
 BYTE   N44  Fn4
 BYTE   W07
// 019   ----------------------------------------
 BYTE   W48
 BYTE   N05  An4
 BYTE   W05
 BYTE   Gn4
 BYTE   W05
 BYTE   N44  Fn4
 BYTE   W36
 BYTE   W02
// 020   ----------------------------------------
 BYTE   W17
 BYTE   N04  An4
 BYTE   W05
 BYTE   N05  Gn4
 BYTE   W05
 BYTE   N48
 BYTE   W54
 BYTE   W01
 BYTE   N05  Fs4
 BYTE   W05
 BYTE   En4
 BYTE   W05
 BYTE   N56  Dn4
 BYTE   W04
// 021   ----------------------------------------
 BYTE   W56
 BYTE   GoTo
  POIN2 Label_4_01657D80
 BYTE   FINE

//**************** Track 6 (Midi-Chn.5) ****************//

CastlevaniaOrderofEcclesiaSorrowsDistortionDolkar_006:
// 000   ----------------------------------------
 BYTE   VOL   68*CastlevaniaOrderofEcclesiaSorrowsDistortionDolkar_mvl/mxv
 BYTE   KEYSH   CastlevaniaOrderofEcclesiaSorrowsDistortionDolkar_key+0
 BYTE   VOICE   33
 BYTE   W96
// 001   ----------------------------------------
 BYTE   W96
// 002   ----------------------------------------
 BYTE   An0
 BYTE   PAN   c_v+18
 BYTE   W64
Label_5_01657F00:
 BYTE   W01
 BYTE   N04  Dn0  v127
 BYTE   W05
 BYTE   N04
 BYTE   W05
 BYTE   N04
 BYTE   W06
 BYTE   N09  Dn1
 BYTE   W11
 BYTE   N04  Dn0
 BYTE   W04
// 003   ----------------------------------------
 BYTE   W01
 BYTE   N09  Cn1
 BYTE   W11
 BYTE   N04  Dn0
 BYTE   W05
 BYTE   N09  Cn1
 BYTE   W11
 BYTE   N14  As0
 BYTE   W16
 BYTE   N04
 BYTE   W06
 BYTE   N04
 BYTE   W05
 BYTE   Gn0
 BYTE   W06
 BYTE   Gs0
 BYTE   W05
 BYTE   An0
 BYTE   W06
 BYTE   As0
 BYTE   W05
 BYTE   An0
 BYTE   W05
 BYTE   Cn1
 BYTE   W06
 BYTE   As0
 BYTE   W05
 BYTE   An0
 BYTE   W03
// 004   ----------------------------------------
 BYTE   W03
 BYTE   N09  Dn0
 BYTE   W10
 BYTE   N04
 BYTE   W06
 BYTE   N14  Dn1
 BYTE   W16
 BYTE   N09  Cn1
 BYTE   W11
 BYTE   N04  Dn0
 BYTE   W05
 BYTE   N09  Cn1
 BYTE   W11
 BYTE   N14  As0
 BYTE   W16
 BYTE   N04
 BYTE   W06
 BYTE   N04
 BYTE   W05
 BYTE   Gn0
 BYTE   W06
 BYTE   Gs0
 BYTE   W01
// 005   ----------------------------------------
 BYTE   W04
 BYTE   N14  An0
 BYTE   W16
 BYTE   An1
 BYTE   W17
 BYTE   N09  Dn0
 BYTE   W10
 BYTE   N04
 BYTE   W06
 BYTE   N09
 BYTE   W11
 BYTE   N04
 BYTE   W05
 BYTE   N09
 BYTE   W11
 BYTE   N04
 BYTE   W05
 BYTE   N04
 BYTE   W06
 BYTE   An0
 BYTE   W05
// 006   ----------------------------------------
 BYTE   Dn1
 BYTE   W06
 BYTE   N09  Cn1
 BYTE   W11
 BYTE   N04
 BYTE   W05
 BYTE   N09
 BYTE   W11
 BYTE   N04
 BYTE   W05
 BYTE   N09
 BYTE   W11
 BYTE   N04
 BYTE   W05
 BYTE   N04
 BYTE   W06
 BYTE   Gn0
 BYTE   W05
 BYTE   An0
 BYTE   W06
 BYTE   N09  As0
 BYTE   W11
 BYTE   N04
 BYTE   W05
 BYTE   N09
 BYTE   W09
// 007   ----------------------------------------
 BYTE   W02
 BYTE   N04
 BYTE   W05
 BYTE   N09
 BYTE   W11
 BYTE   N04
 BYTE   W06
 BYTE   N04
 BYTE   W05
 BYTE   N04
 BYTE   W05
 BYTE   N04
 BYTE   W06
 BYTE   N09  An0
 BYTE   W11
 BYTE   N04
 BYTE   W05
 BYTE   N09
 BYTE   W11
 BYTE   N04
 BYTE   W05
 BYTE   N04
 BYTE   W06
 BYTE   Dn0
 BYTE   W05
 BYTE   En0
 BYTE   W06
 BYTE   Gn0
 BYTE   W05
 BYTE   An0
 BYTE   W02
// 008   ----------------------------------------
 BYTE   W03
 BYTE   Cn1
 BYTE   W06
 BYTE   N09  As0
 BYTE   W11
 BYTE   N04
 BYTE   W05
 BYTE   N09
 BYTE   W11
 BYTE   N04
 BYTE   W05
 BYTE   N09
 BYTE   W11
 BYTE   N04
 BYTE   W06
 BYTE   N09
 BYTE   W10
 BYTE   N04
 BYTE   W06
 BYTE   N09  An0
 BYTE   W11
 BYTE   N04
 BYTE   W05
 BYTE   N09
 BYTE   W06
// 009   ----------------------------------------
 BYTE   W05
 BYTE   N04
 BYTE   W05
 BYTE   N09
 BYTE   W11
 BYTE   N04
 BYTE   W06
 BYTE   N04
 BYTE   W05
 BYTE   Fn0
 BYTE   W05
 BYTE   An0
 BYTE   W06
 BYTE   N09  Gs0
 BYTE   W11
 BYTE   N04
 BYTE   W05
 BYTE   N09
 BYTE   W11
 BYTE   N04
 BYTE   W05
 BYTE   N09  En0
 BYTE   W11
 BYTE   N04
 BYTE   W06
 BYTE   N04
 BYTE   W04
// 010   ----------------------------------------
 BYTE   W01
 BYTE   Gs0
 BYTE   W05
 BYTE   Bn0
 BYTE   W06
 BYTE   N09  An0
 BYTE   W11
 BYTE   N04
 BYTE   W05
 BYTE   N09
 BYTE   W11
 BYTE   N04
 BYTE   W05
 BYTE   N04
 BYTE   W06
 BYTE   Bn0
 BYTE   W05
 BYTE   Cs1
 BYTE   W06
 BYTE   An1
 BYTE   W05
 BYTE   Gn1
 BYTE   W05
 BYTE   En1
 BYTE   W06
 BYTE   Dn1
 BYTE   W05
 BYTE   Dn0
 BYTE   W06
 BYTE   Dn1
 BYTE   W05
 BYTE   N09  Cn1
 BYTE   W03
// 011   ----------------------------------------
 BYTE   W08
 BYTE   N04
 BYTE   W05
 BYTE   N14  Dn1
 BYTE   W17
 BYTE   An0
 BYTE   W16
 BYTE   Gn0
 BYTE   W16
 BYTE   An0
 BYTE   W16
 BYTE   As0
 BYTE   W17
 BYTE   Dn1
 BYTE   W01
// 012   ----------------------------------------
 BYTE   W15
 BYTE   N09  Cn1
 BYTE   W11
 BYTE   N04
 BYTE   W05
 BYTE   N14  As0
 BYTE   W17
 BYTE   Cn1
 BYTE   W16
 BYTE   Gn0
 BYTE   W16
 BYTE   Fn0
 BYTE   W16
// 013   ----------------------------------------
 BYTE   N04
 BYTE   W06
 BYTE   N04
 BYTE   W05
 BYTE   Gn0
 BYTE   W06
 BYTE   An0
 BYTE   W05
 BYTE   Bn0
 BYTE   W05
 BYTE   Cs1
 BYTE   W06
 BYTE   N04
 BYTE   W05
 BYTE   Dn1
 BYTE   W06
 BYTE   En1
 BYTE   W05
 BYTE   Dn1
 BYTE   W05
 BYTE   Dn0
 BYTE   W06
 BYTE   Dn1
 BYTE   W05
 BYTE   N09  Cn1
 BYTE   W11
 BYTE   N04
 BYTE   W06
 BYTE   N14  Dn1
 BYTE   W14
// 014   ----------------------------------------
 BYTE   W02
 BYTE   An0
 BYTE   W16
 BYTE   Gn0
 BYTE   W16
 BYTE   An0
 BYTE   W17
 BYTE   As0
 BYTE   W16
 BYTE   An0
 BYTE   W16
 BYTE   N09  As0
 BYTE   W11
 BYTE   N04
 BYTE   W02
// 015   ----------------------------------------
 BYTE   W03
 BYTE   N09
 BYTE   W11
 BYTE   N04
 BYTE   W06
 BYTE   N09
 BYTE   W10
 BYTE   N04
 BYTE   W06
 BYTE   N04
 BYTE   W05
 BYTE   N04
 BYTE   W06
 BYTE   N04
 BYTE   W05
 BYTE   N09  An0
 BYTE   W11
 BYTE   N04
 BYTE   W05
 BYTE   N09
 BYTE   W11
 BYTE   N04
 BYTE   W06
 BYTE   N04
 BYTE   W05
 BYTE   Dn0
 BYTE   W05
 BYTE   En0
 BYTE   W01
// 016   ----------------------------------------
 BYTE   W05
 BYTE   An0
 BYTE   W05
 BYTE   Gn1
 BYTE   W06
 BYTE   As0
 BYTE   W05
 BYTE   N09  Gn0
 BYTE   W11
 BYTE   N04
 BYTE   W05
 BYTE   N09
 BYTE   W11
 BYTE   N04
 BYTE   W06
 BYTE   N09
 BYTE   W11
 BYTE   N04
 BYTE   W05
 BYTE   N09
 BYTE   W11
 BYTE   N04
 BYTE   W05
 BYTE   N09  An0
 BYTE   W10
// 017   ----------------------------------------
 BYTE   W01
 BYTE   N04
 BYTE   W05
 BYTE   N09
 BYTE   W11
 BYTE   N04
 BYTE   W06
 BYTE   N09
 BYTE   W11
 BYTE   N04
 BYTE   W05
 BYTE   N04
 BYTE   W05
 BYTE   Fs0
 BYTE   W06
 BYTE   An0
 BYTE   W05
 BYTE   N09  As0
 BYTE   W11
 BYTE   N04
 BYTE   W05
 BYTE   N09
 BYTE   W11
 BYTE   N04
 BYTE   W06
 BYTE   N09
 BYTE   W08
// 018   ----------------------------------------
 BYTE   W03
 BYTE   N04
 BYTE   W05
 BYTE   N09
 BYTE   W11
 BYTE   N04
 BYTE   W05
 BYTE   N09  An0
 BYTE   W11
 BYTE   N04
 BYTE   W06
 BYTE   N09
 BYTE   W10
 BYTE   N04
 BYTE   W06
 BYTE   N04
 BYTE   W05
 BYTE   En0
 BYTE   W06
 BYTE   Fs0
 BYTE   W05
 BYTE   An0
 BYTE   W05
 BYTE   Gn0
 BYTE   W06
 BYTE   Fn0
 BYTE   W05
 BYTE   N09  As0
 BYTE   W07
// 019   ----------------------------------------
 BYTE   W04
 BYTE   N04
 BYTE   W06
 BYTE   N09
 BYTE   W10
 BYTE   N04
 BYTE   W06
 BYTE   N09
 BYTE   W11
 BYTE   N04
 BYTE   W05
 BYTE   N09
 BYTE   W11
 BYTE   N04
 BYTE   W05
 BYTE   N09  Cn1
 BYTE   W11
 BYTE   N04
 BYTE   W06
 BYTE   N09
 BYTE   W10
 BYTE   N04
 BYTE   W06
 BYTE   N09
 BYTE   W05
// 020   ----------------------------------------
 BYTE   W06
 BYTE   N04
 BYTE   W05
 BYTE   N04
 BYTE   W06
 BYTE   An0
 BYTE   W05
 BYTE   Cn1
 BYTE   W05
 BYTE   N09  Dn1
 BYTE   W11
 BYTE   N04
 BYTE   W06
 BYTE   N09
 BYTE   W10
 BYTE   N04
 BYTE   W06
 BYTE   N09
 BYTE   W11
 BYTE   N04
 BYTE   W05
 BYTE   N04
 BYTE   W06
 BYTE   N04
 BYTE   W05
 BYTE   N04
 BYTE   W05
 BYTE   N09
 BYTE   W04
// 021   ----------------------------------------
 BYTE   W07
 BYTE   N04
 BYTE   W06
 BYTE   N09
 BYTE   W10
 BYTE   N04
 BYTE   W06
 BYTE   N09
 BYTE   W11
 BYTE   N04
 BYTE   W05
 BYTE   N04
 BYTE   W06
 BYTE   N04
 BYTE   W05
 BYTE   GoTo
  POIN2 Label_5_01657F00
 BYTE   FINE

//**************** Track 7 (Midi-Chn.6) ****************//

CastlevaniaOrderofEcclesiaSorrowsDistortionDolkar_007:
// 000   ----------------------------------------
 BYTE   VOL   70*CastlevaniaOrderofEcclesiaSorrowsDistortionDolkar_mvl/mxv
 BYTE   KEYSH   CastlevaniaOrderofEcclesiaSorrowsDistortionDolkar_key+0
 BYTE   VOICE   127
 BYTE   W96
// 001   ----------------------------------------
 BYTE   W96
// 002   ----------------------------------------
 BYTE   MOD 0
 BYTE   CnM2  v000
 BYTE   CnM2
 BYTE   BEND   c_v-24
 BYTE   W32
 BYTE   N04  Dn1  v127
 BYTE   W05
 BYTE   N01  An1
 BYTE   W03
 BYTE   Gn1
 BYTE   W03
 BYTE   N04  Fn1
 BYTE   W05
 BYTE   Dn1
 BYTE   N14  Gn2
 BYTE   W11
 BYTE   N04  Cn1
 BYTE   W05
Label_6_0165812E:
 BYTE   W01
 BYTE   N04  Cn1  v127
 BYTE   N24  Cs2
 BYTE   W10
 BYTE   N04  Cn1
 BYTE   W06
 BYTE   Dn1
 BYTE   W15
// 003   ----------------------------------------
 BYTE   W01
 BYTE   Cn1
 BYTE   N04  As1  v104
 BYTE   W16
 BYTE   Dn1  v127
 BYTE   N04  As1  v096
 BYTE   W11
 BYTE   Cn1  v127
 BYTE   W06
 BYTE   As1  v104
 BYTE   W10
 BYTE   Cn1  v127
 BYTE   W06
 BYTE   Dn1
 BYTE   N04  As1  v072
 BYTE   W16
 BYTE   Cn1  v127
 BYTE   N04  As1  v104
 BYTE   W11
 BYTE   Cn1  v127
 BYTE   W05
 BYTE   Dn1
 BYTE   N04  As1  v100
 BYTE   W06
 BYTE   Gn1  v127
 BYTE   W05
 BYTE   Fn1
 BYTE   W03
// 004   ----------------------------------------
 BYTE   W03
 BYTE   Dn1
 BYTE   N14  Cs2
 BYTE   W05
 BYTE   N04  Fn1
 BYTE   W05
 BYTE   Cn1
 BYTE   W06
 BYTE   Dn1
 BYTE   N15  An2
 BYTE   W16
 BYTE   N04  Cn1
 BYTE   N04  As1  v104
 BYTE   W16
 BYTE   Dn1  v127
 BYTE   N04  As1  v096
 BYTE   W11
 BYTE   Cn1  v127
 BYTE   W06
 BYTE   As1  v104
 BYTE   W10
 BYTE   Cn1  v127
 BYTE   W06
 BYTE   Dn1
 BYTE   N04  As1  v072
 BYTE   W12
// 005   ----------------------------------------
 BYTE   W04
 BYTE   Cn1  v127
 BYTE   N04  As1  v104
 BYTE   W06
 BYTE   N02  Dn1  v120
 BYTE   W02
 BYTE   N01
 BYTE   W03
 BYTE   N04  Cn1  v127
 BYTE   N01  Dn1
 BYTE   W05
 BYTE   N04
 BYTE   N04  As1  v100
 BYTE   W06
 BYTE   Dn1  v127
 BYTE   W05
 BYTE   N04
 BYTE   W06
 BYTE   BEND   c_v-24
 BYTE   N04  Cn1
 BYTE   N24  Cs2
 BYTE   W10
 BYTE   N04  Cn1
 BYTE   W06
 BYTE   Dn1
 BYTE   W16
 BYTE   Cn1
 BYTE   N04  As1  v104
 BYTE   W16
 BYTE   Dn1  v127
 BYTE   N04  As1  v096
 BYTE   W11
// 006   ----------------------------------------
 BYTE   Cn1  v127
 BYTE   W06
 BYTE   As1  v108
 BYTE   W11
 BYTE   Cn1  v127
 BYTE   W05
 BYTE   Dn1
 BYTE   N04  As1  v096
 BYTE   W11
 BYTE   Cn1  v127
 BYTE   W05
 BYTE   As1  v108
 BYTE   W11
 BYTE   Cn1  v127
 BYTE   W05
 BYTE   Dn1
 BYTE   N04  As1  v096
 BYTE   W11
 BYTE   Cn1  v127
 BYTE   W06
 BYTE   N04
 BYTE   N04  As1  v108
 BYTE   W11
 BYTE   Cn1  v127
 BYTE   W05
 BYTE   Dn1
 BYTE   N04  As1  v096
 BYTE   W09
// 007   ----------------------------------------
 BYTE   W07
 BYTE   Cn1  v127
 BYTE   N04  As1  v108
 BYTE   W17
 BYTE   Dn1  v127
 BYTE   N04  As1  v096
 BYTE   W10
 BYTE   Cn1  v127
 BYTE   W06
 BYTE   As1  v108
 BYTE   W11
 BYTE   Cn1  v127
 BYTE   W05
 BYTE   Dn1
 BYTE   N04  As1  v096
 BYTE   W16
 BYTE   Cn1  v127
 BYTE   N04  As1  v108
 BYTE   W06
 BYTE   Cn1  v127
 BYTE   W05
 BYTE   N04
 BYTE   W06
 BYTE   Dn1
 BYTE   N04  As1  v096
 BYTE   W05
 BYTE   Gn1  v127
 BYTE   W02
// 008   ----------------------------------------
 BYTE   W03
 BYTE   Fn1
 BYTE   W06
 BYTE   Cn1
 BYTE   N24  Cs2
 BYTE   W11
 BYTE   N04  Cn1
 BYTE   W05
 BYTE   Dn1
 BYTE   W16
 BYTE   Cn1
 BYTE   N04  As1  v104
 BYTE   W17
 BYTE   Dn1  v127
 BYTE   N04  As1  v096
 BYTE   W10
 BYTE   Cn1  v127
 BYTE   W06
 BYTE   As1  v108
 BYTE   W11
 BYTE   Cn1  v127
 BYTE   W05
 BYTE   Dn1
 BYTE   N04  As1  v096
 BYTE   W06
// 009   ----------------------------------------
 BYTE   W05
 BYTE   Cn1  v127
 BYTE   W05
 BYTE   As1  v108
 BYTE   W11
 BYTE   Cn1  v127
 BYTE   W06
 BYTE   Dn1
 BYTE   N04  As1  v096
 BYTE   W10
 BYTE   Cn1  v127
 BYTE   W06
 BYTE   N04
 BYTE   N04  As1  v108
 BYTE   W11
 BYTE   Cn1  v127
 BYTE   W05
 BYTE   Dn1
 BYTE   N04  As1  v096
 BYTE   W16
 BYTE   Cn1  v127
 BYTE   N04  As1  v108
 BYTE   W17
 BYTE   Dn1  v127
 BYTE   N04  As1  v096
 BYTE   W04
// 010   ----------------------------------------
 BYTE   W06
 BYTE   Cn1  v127
 BYTE   W06
 BYTE   As1  v108
 BYTE   W11
 BYTE   Cn1  v127
 BYTE   W05
 BYTE   Dn1
 BYTE   N04  As1  v096
 BYTE   W16
 BYTE   Cn1  v127
 BYTE   N04  As1  v108
 BYTE   W06
 BYTE   Cn1  v127
 BYTE   W05
 BYTE   N04
 BYTE   N04  Dn1
 BYTE   W06
 BYTE   N04
 BYTE   N04  As1  v096
 BYTE   W05
 BYTE   Gn1  v127
 BYTE   W05
 BYTE   Fn1
 BYTE   W06
 BYTE   Cn1
 BYTE   N24  Cs2
 BYTE   W11
 BYTE   N04  Cn1
 BYTE   W05
 BYTE   Dn1
 BYTE   W03
// 011   ----------------------------------------
 BYTE   W13
 BYTE   Cn1
 BYTE   N04  As1  v104
 BYTE   W17
 BYTE   Dn1  v127
 BYTE   N04  As1  v096
 BYTE   W11
 BYTE   Cn1  v127
 BYTE   W05
 BYTE   As1  v108
 BYTE   W11
 BYTE   Cn1  v127
 BYTE   W05
 BYTE   Dn1
 BYTE   N04  As1  v096
 BYTE   W11
 BYTE   Cn1  v127
 BYTE   W05
 BYTE   As1  v108
 BYTE   W11
 BYTE   Cn1  v127
 BYTE   W06
 BYTE   Dn1
 BYTE   N04  As1  v096
 BYTE   W01
// 012   ----------------------------------------
 BYTE   W10
 BYTE   Cn1  v127
 BYTE   W05
 BYTE   N04
 BYTE   N04  As1  v108
 BYTE   W11
 BYTE   Cn1  v127
 BYTE   W05
 BYTE   Dn1
 BYTE   N04  As1  v096
 BYTE   W17
 BYTE   Cn1  v127
 BYTE   N04  As1  v108
 BYTE   W16
 BYTE   Dn1  v127
 BYTE   N04  As1  v096
 BYTE   W11
 BYTE   Cn1  v127
 BYTE   W05
 BYTE   As1  v108
 BYTE   W11
 BYTE   Cn1  v127
 BYTE   W05
// 013   ----------------------------------------
 BYTE   Dn1
 BYTE   N04  As1  v096
 BYTE   W17
 BYTE   Cn1  v127
 BYTE   N04  As1  v108
 BYTE   W05
 BYTE   Cn1  v127
 BYTE   W05
 BYTE   N04
 BYTE   W06
 BYTE   Dn1
 BYTE   N04  As1  v096
 BYTE   W05
 BYTE   Gn1  v127
 BYTE   W06
 BYTE   Fn1
 BYTE   W05
 BYTE   Cn1
 BYTE   N24  Cs2
 BYTE   W11
 BYTE   N04  Cn1
 BYTE   W05
 BYTE   Dn1
 BYTE   W17
 BYTE   Cn1
 BYTE   N04  As1  v104
 BYTE   W14
// 014   ----------------------------------------
 BYTE   W02
 BYTE   Dn1  v127
 BYTE   N04  As1  v096
 BYTE   W11
 BYTE   Cn1  v127
 BYTE   W05
 BYTE   As1  v108
 BYTE   W11
 BYTE   Cn1  v127
 BYTE   W05
 BYTE   Dn1
 BYTE   N04  As1  v096
 BYTE   W11
 BYTE   Cn1  v127
 BYTE   W06
 BYTE   As1  v108
 BYTE   W10
 BYTE   Cn1  v127
 BYTE   W06
 BYTE   Dn1
 BYTE   N04  As1  v096
 BYTE   W11
 BYTE   Cn1  v127
 BYTE   W05
 BYTE   N04
 BYTE   N04  As1  v108
 BYTE   W11
 BYTE   Cn1  v127
 BYTE   W02
// 015   ----------------------------------------
 BYTE   W03
 BYTE   Dn1
 BYTE   N04  As1  v096
 BYTE   W17
 BYTE   Cn1  v127
 BYTE   N04  As1  v108
 BYTE   W16
 BYTE   Dn1  v127
 BYTE   N04  As1  v096
 BYTE   W11
 BYTE   Cn1  v127
 BYTE   W05
 BYTE   As1  v108
 BYTE   W06
 BYTE   Dn1  v127
 BYTE   W05
 BYTE   Cn1
 BYTE   W05
 BYTE   Dn1
 BYTE   N04  As1  v096
 BYTE   W17
 BYTE   Cn1  v127
 BYTE   N04  As1  v108
 BYTE   W05
 BYTE   Cn1  v127
 BYTE   W05
 BYTE   N04
 BYTE   W01
// 016   ----------------------------------------
 BYTE   W05
 BYTE   Dn1
 BYTE   N04  As1  v096
 BYTE   W05
 BYTE   Gn1  v127
 BYTE   W06
 BYTE   Fn1
 BYTE   W05
 BYTE   Cn1
 BYTE   N24  Cs2
 BYTE   W11
 BYTE   N04  Cn1
 BYTE   W05
 BYTE   Dn1
 BYTE   W17
 BYTE   Cn1
 BYTE   N04  As1  v104
 BYTE   W16
 BYTE   Dn1  v127
 BYTE   N04  As1  v096
 BYTE   W11
 BYTE   Cn1  v127
 BYTE   W05
 BYTE   As1  v108
 BYTE   W10
// 017   ----------------------------------------
 BYTE   W01
 BYTE   Cn1  v127
 BYTE   W05
 BYTE   Dn1
 BYTE   N04  As1  v096
 BYTE   W11
 BYTE   Cn1  v127
 BYTE   W06
 BYTE   As1  v108
 BYTE   W11
 BYTE   Cn1  v127
 BYTE   W05
 BYTE   Dn1
 BYTE   N04  As1  v096
 BYTE   W11
 BYTE   Cn1  v127
 BYTE   W05
 BYTE   N04
 BYTE   N24  Cs2
 BYTE   W11
 BYTE   N04  Cn1
 BYTE   W05
 BYTE   Dn1
 BYTE   N04  As1  v104
 BYTE   W17
 BYTE   Cn1  v127
 BYTE   N04  As1  v112
 BYTE   W08
// 018   ----------------------------------------
 BYTE   W08
 BYTE   Dn1  v127
 BYTE   N04  As1  v092
 BYTE   W11
 BYTE   Cn1  v127
 BYTE   W05
 BYTE   As1  v104
 BYTE   W11
 BYTE   Cn1  v127
 BYTE   W06
 BYTE   Dn1
 BYTE   N04  As1  v072
 BYTE   W16
 BYTE   Cn1  v127
 BYTE   N04  As1  v104
 BYTE   W11
 BYTE   Cn1  v127
 BYTE   W05
 BYTE   Dn1
 BYTE   N04  As1  v100
 BYTE   W05
 BYTE   Gn1  v127
 BYTE   W06
 BYTE   Fn1
 BYTE   W05
 BYTE   Dn1
 BYTE   N28  Fn2
 BYTE   N04  An2
 BYTE   W06
 BYTE   Fn1
 BYTE   W01
// 019   ----------------------------------------
 BYTE   W04
 BYTE   Cn1
 BYTE   W06
 BYTE   Dn1
 BYTE   N04  An2
 BYTE   W16
 BYTE   Dn1
 BYTE   N08  Fn2
 BYTE   N04  An2
 BYTE   W11
 BYTE   Cn1
 BYTE   W05
 BYTE   Dn1
 BYTE   N08  Fn2
 BYTE   N04  An2
 BYTE   W11
 BYTE   Cn1
 BYTE   W05
 BYTE   Dn1
 BYTE   N08  Fn2
 BYTE   N04  An2
 BYTE   W11
 BYTE   Cn1
 BYTE   W06
 BYTE   Dn1
 BYTE   N08  Fn2
 BYTE   N04  An2
 BYTE   W10
 BYTE   Cn1
 BYTE   W06
 BYTE   Dn1
 BYTE   N08  Fn2
 BYTE   N04  An2
 BYTE   W05
// 020   ----------------------------------------
 BYTE   W06
 BYTE   Cn1
 BYTE   W05
 BYTE   N03  Dn1
 BYTE   N04  Fn2
 BYTE   N04  An2
 BYTE   W04
 BYTE   Fn2
 BYTE   N04  An2
 BYTE   W02
 BYTE   N02  Dn1  v120
 BYTE   W05
 BYTE   N04  Cn1  v127
 BYTE   W05
 BYTE   N04
 BYTE   N08  Fn2
 BYTE   N04  An2
 BYTE   W11
 BYTE   Cn1
 BYTE   W06
 BYTE   Dn1
 BYTE   N08  Fn2
 BYTE   N04  An2
 BYTE   W16
 BYTE   Cn1
 BYTE   N08  Fn2
 BYTE   N04  An2
 BYTE   W16
 BYTE   Dn1
 BYTE   N08  Fn2
 BYTE   N04  An2
 BYTE   W11
 BYTE   Cn1
 BYTE   W05
 BYTE   N08  Fn2
 BYTE   N04  An2
 BYTE   W04
// 021   ----------------------------------------
 BYTE   W07
 BYTE   Cn1
 BYTE   W06
 BYTE   Dn1
 BYTE   N08  Fn2
 BYTE   N04  An2
 BYTE   W16
 BYTE   Cn1
 BYTE   N08  Fn2
 BYTE   N04  An2
 BYTE   W05
 BYTE   N02  Dn1  v120
 BYTE   W03
 BYTE   N01
 BYTE   W03
 BYTE   N04  Cn1  v127
 BYTE   N01  Dn1
 BYTE   W05
 BYTE   N04
 BYTE   N08  Fn2
 BYTE   N04  An2
 BYTE   W06
 BYTE   Dn1
 BYTE   W05
 BYTE   GoTo
  POIN2 Label_6_0165812E
 BYTE   FINE

//******************************************************//
	ALIGN 4

CastlevaniaOrderofEcclesiaSorrowsDistortionDolkar:
	BYTE	7	// NumTrks
	BYTE	0	// NumBlks
	BYTE	CastlevaniaOrderofEcclesiaSorrowsDistortionDolkar_pri	// Priority
	BYTE	CastlevaniaOrderofEcclesiaSorrowsDistortionDolkar_rev	// Reverb.
    
	POIN2	CastlevaniaOrderofEcclesiaSorrowsDistortionDolkar_grp
    
	POIN2	CastlevaniaOrderofEcclesiaSorrowsDistortionDolkar_001
	POIN2	CastlevaniaOrderofEcclesiaSorrowsDistortionDolkar_002
	POIN2	CastlevaniaOrderofEcclesiaSorrowsDistortionDolkar_003
	POIN2	CastlevaniaOrderofEcclesiaSorrowsDistortionDolkar_004
	POIN2	CastlevaniaOrderofEcclesiaSorrowsDistortionDolkar_005
	POIN2	CastlevaniaOrderofEcclesiaSorrowsDistortionDolkar_006
	POIN2	CastlevaniaOrderofEcclesiaSorrowsDistortionDolkar_007

	
