//Event file generated from Sappy .s format.
	#include "MPlayDef.event"

	#define	CastlevaniaOrderofEcclesiaStonesHoldaGrudgePsyche_grp  voicegroup000
	#define	CastlevaniaOrderofEcclesiaStonesHoldaGrudgePsyche_pri  0
	#define	CastlevaniaOrderofEcclesiaStonesHoldaGrudgePsyche_rev  0
	#define	CastlevaniaOrderofEcclesiaStonesHoldaGrudgePsyche_mvl  60
	#define	CastlevaniaOrderofEcclesiaStonesHoldaGrudgePsyche_key  0
	#define	CastlevaniaOrderofEcclesiaStonesHoldaGrudgePsyche_tbs  1
	#define	CastlevaniaOrderofEcclesiaStonesHoldaGrudgePsyche_exg  0
	#define	CastlevaniaOrderofEcclesiaStonesHoldaGrudgePsyche_cmp  1

	// .rodata
	//	CastlevaniaOrderofEcclesiaStonesHoldaGrudgePsyche
	ALIGN 4

//**************** Track 1 (Midi-Chn.1) ****************//

CastlevaniaOrderofEcclesiaStonesHoldaGrudgePsyche_1:
	BYTE	KEYSH   CastlevaniaOrderofEcclesiaStonesHoldaGrudgePsyche_key+0
CastlevaniaOrderofEcclesiaStonesHoldaGrudgePsyche_1_B1:
// 000   ----------------------------------------
	BYTE	TEMPO   80*CastlevaniaOrderofEcclesiaStonesHoldaGrudgePsyche_tbs/2
	BYTE		VOICE   116
	BYTE		PAN     c_v+0
	BYTE		VOL     127*CastlevaniaOrderofEcclesiaStonesHoldaGrudgePsyche_mvl/mxv
	BYTE		MOD     0
	BYTE	W96
// 001   ----------------------------------------
	BYTE	W96
// 002   ----------------------------------------
CastlevaniaOrderofEcclesiaStonesHoldaGrudgePsyche_1_002:
	BYTE		N17     An2   v127
	BYTE	W18
	BYTE		        En2 
	BYTE	W18
	BYTE		N84     Bn1 
	BYTE	W60
	BYTE	PEND
// 003   ----------------------------------------
	BYTE	W90
	BYTE		N03   
	BYTE	W03
	BYTE		        Bn1   v112
	BYTE	W03
// 004   ----------------------------------------
	BYTE		N12     An2   v127
	BYTE	W12
	BYTE		N05     En2 
	BYTE	W06
	BYTE		N11   
	BYTE	W12
	BYTE		N05     Bn1 
	BYTE	W06
	BYTE		N84   
	BYTE	W60
// 005   ----------------------------------------
	BYTE	W96
// 006   ----------------------------------------
	BYTE	PATT
	 POIN2	CastlevaniaOrderofEcclesiaStonesHoldaGrudgePsyche_1_002
// 007   ----------------------------------------
	BYTE	W90
	BYTE		N03     Bn1   v127
	BYTE	W03
	BYTE		        Bn1   v108
	BYTE	W03
// 008   ----------------------------------------
	BYTE		N12     An2   v127
	BYTE	W12
	BYTE		N05     En2 
	BYTE	W06
	BYTE		N17   
	BYTE	W18
	BYTE		N84     Bn1 
	BYTE	W60
// 009   ----------------------------------------
	BYTE	W96
// 010   ----------------------------------------
CastlevaniaOrderofEcclesiaStonesHoldaGrudgePsyche_1_010:
	BYTE		N17     Cn3   v127
	BYTE	W18
	BYTE		        Gn2 
	BYTE	W18
	BYTE		N84     Dn2 
	BYTE	W60
	BYTE	PEND
// 011   ----------------------------------------
	BYTE	W90
	BYTE		N03   
	BYTE	W03
	BYTE		        Dn2   v108
	BYTE	W03
// 012   ----------------------------------------
	BYTE		N12     Cn3   v127
	BYTE	W12
	BYTE		N05     Gn2 
	BYTE	W06
	BYTE		N11   
	BYTE	W12
	BYTE		N05     Dn2 
	BYTE	W06
	BYTE		N84   
	BYTE	W60
// 013   ----------------------------------------
	BYTE	W96
// 014   ----------------------------------------
	BYTE	PATT
	 POIN2	CastlevaniaOrderofEcclesiaStonesHoldaGrudgePsyche_1_010
// 015   ----------------------------------------
	BYTE	W90
	BYTE		N03     Dn2   v127
	BYTE	W03
	BYTE		        Dn2   v112
	BYTE	W03
// 016   ----------------------------------------
	BYTE		N12     Cn3   v127
	BYTE	W12
	BYTE		N05     Gn2 
	BYTE	W06
	BYTE		N17   
	BYTE	W18
	BYTE		N84     Dn2 
	BYTE	W60
// 017   ----------------------------------------
	BYTE	W96
// 018   ----------------------------------------
	BYTE	W96
// 019   ----------------------------------------
	BYTE	W96
// 020   ----------------------------------------
	BYTE	W96
// 021   ----------------------------------------
	BYTE	W96
	BYTE	GoTo
	 POIN2	CastlevaniaOrderofEcclesiaStonesHoldaGrudgePsyche_1_B1
CastlevaniaOrderofEcclesiaStonesHoldaGrudgePsyche_1_B2:
// 022   ----------------------------------------
	BYTE	FINE

//**************** Track 2 (Midi-Chn.2) ****************//

CastlevaniaOrderofEcclesiaStonesHoldaGrudgePsyche_2:
	BYTE	KEYSH   CastlevaniaOrderofEcclesiaStonesHoldaGrudgePsyche_key+0
CastlevaniaOrderofEcclesiaStonesHoldaGrudgePsyche_2_B1:
// 000   ----------------------------------------
	BYTE		VOICE   49
	BYTE		PAN     c_v-64
	BYTE		VOL     70*CastlevaniaOrderofEcclesiaStonesHoldaGrudgePsyche_mvl/mxv
	BYTE		MOD     0
	BYTE	W96
// 001   ----------------------------------------
	BYTE	W96
// 002   ----------------------------------------
	BYTE		TIE     An1   v127
	BYTE	W96
// 003   ----------------------------------------
	BYTE	W96
// 004   ----------------------------------------
	BYTE	W96
// 005   ----------------------------------------
	BYTE	W96
	BYTE		EOT   
// 006   ----------------------------------------
	BYTE		TIE   
	BYTE	W96
// 007   ----------------------------------------
	BYTE	W96
// 008   ----------------------------------------
	BYTE	W96
// 009   ----------------------------------------
	BYTE	W96
	BYTE		EOT   
// 010   ----------------------------------------
	BYTE		TIE     Cn2 
	BYTE	W96
// 011   ----------------------------------------
	BYTE	W96
// 012   ----------------------------------------
	BYTE	W96
// 013   ----------------------------------------
	BYTE	W96
	BYTE		EOT   
// 014   ----------------------------------------
	BYTE		TIE   
	BYTE	W96
// 015   ----------------------------------------
	BYTE	W96
// 016   ----------------------------------------
	BYTE	W96
// 017   ----------------------------------------
	BYTE	W96
	BYTE		EOT   
// 018   ----------------------------------------
	BYTE	W96
// 019   ----------------------------------------
	BYTE	W96
// 020   ----------------------------------------
	BYTE	W96
// 021   ----------------------------------------
	BYTE	W96
	BYTE	GoTo
	 POIN2	CastlevaniaOrderofEcclesiaStonesHoldaGrudgePsyche_2_B1
CastlevaniaOrderofEcclesiaStonesHoldaGrudgePsyche_2_B2:
// 022   ----------------------------------------
	BYTE	FINE

//**************** Track 3 (Midi-Chn.3) ****************//

CastlevaniaOrderofEcclesiaStonesHoldaGrudgePsyche_3:
	BYTE	KEYSH   CastlevaniaOrderofEcclesiaStonesHoldaGrudgePsyche_key+0
CastlevaniaOrderofEcclesiaStonesHoldaGrudgePsyche_3_B1:
// 000   ----------------------------------------
	BYTE		VOICE   14
	BYTE		PAN     c_v+63
	BYTE		VOL     70*CastlevaniaOrderofEcclesiaStonesHoldaGrudgePsyche_mvl/mxv
	BYTE		MOD     0
	BYTE	W96
// 001   ----------------------------------------
	BYTE	W96
// 002   ----------------------------------------
	BYTE		TIE     Gn2   v127
	BYTE	W96
// 003   ----------------------------------------
	BYTE	W96
// 004   ----------------------------------------
	BYTE	W96
// 005   ----------------------------------------
	BYTE	W96
	BYTE		EOT   
// 006   ----------------------------------------
	BYTE		TIE   
	BYTE	W96
// 007   ----------------------------------------
	BYTE	W96
// 008   ----------------------------------------
	BYTE	W96
// 009   ----------------------------------------
	BYTE	W96
	BYTE		EOT   
// 010   ----------------------------------------
	BYTE		TIE     As2 
	BYTE	W96
// 011   ----------------------------------------
	BYTE	W96
// 012   ----------------------------------------
	BYTE	W96
// 013   ----------------------------------------
	BYTE	W96
	BYTE		EOT   
// 014   ----------------------------------------
	BYTE		TIE   
	BYTE	W96
// 015   ----------------------------------------
	BYTE	W96
// 016   ----------------------------------------
	BYTE	W96
// 017   ----------------------------------------
	BYTE	W96
	BYTE		EOT   
// 018   ----------------------------------------
	BYTE	W96
// 019   ----------------------------------------
	BYTE	W96
// 020   ----------------------------------------
	BYTE	W96
// 021   ----------------------------------------
	BYTE	W96
	BYTE	GoTo
	 POIN2	CastlevaniaOrderofEcclesiaStonesHoldaGrudgePsyche_3_B1
CastlevaniaOrderofEcclesiaStonesHoldaGrudgePsyche_3_B2:
// 022   ----------------------------------------
	BYTE	FINE

//**************** Track 4 (Midi-Chn.4) ****************//

CastlevaniaOrderofEcclesiaStonesHoldaGrudgePsyche_4:
	BYTE	KEYSH   CastlevaniaOrderofEcclesiaStonesHoldaGrudgePsyche_key+0
CastlevaniaOrderofEcclesiaStonesHoldaGrudgePsyche_4_B1:
// 000   ----------------------------------------
	BYTE		VOICE   14
	BYTE		PAN     c_v+0
	BYTE		VOL     127*CastlevaniaOrderofEcclesiaStonesHoldaGrudgePsyche_mvl/mxv
	BYTE		MOD     0
	BYTE	W96
// 001   ----------------------------------------
	BYTE	W96
// 002   ----------------------------------------
	BYTE		PAN     c_v+2
	BYTE		TIE     An2   v112
	BYTE	W01
	BYTE		PAN     c_v+0
	BYTE	W01
	BYTE		        c_v-1
	BYTE	W01
	BYTE		        c_v-3
	BYTE	W01
	BYTE		        c_v-4
	BYTE	W01
	BYTE		        c_v-5
	BYTE	W01
	BYTE		        c_v-7
	BYTE	W01
	BYTE		        c_v-8
	BYTE	W01
	BYTE		        c_v-10
	BYTE	W01
	BYTE		        c_v-11
	BYTE	W01
	BYTE		        c_v-12
	BYTE	W01
	BYTE		        c_v-14
	BYTE	W01
	BYTE		        c_v-15
	BYTE	W01
	BYTE		        c_v-17
	BYTE	W01
	BYTE		        c_v-18
	BYTE	W01
	BYTE		        c_v-19
	BYTE	W01
	BYTE		        c_v-21
	BYTE	W01
	BYTE		        c_v-22
	BYTE	W01
	BYTE		        c_v-24
	BYTE	W01
	BYTE		        c_v-25
	BYTE	W01
	BYTE		        c_v-26
	BYTE	W01
	BYTE		        c_v-28
	BYTE	W01
	BYTE		        c_v-29
	BYTE	W01
	BYTE		        c_v-31
	BYTE	W01
	BYTE		        c_v-32
	BYTE	W01
	BYTE		        c_v-33
	BYTE	W01
	BYTE		        c_v-35
	BYTE	W01
	BYTE		        c_v-36
	BYTE	W01
	BYTE		        c_v-38
	BYTE	W01
	BYTE		        c_v-39
	BYTE	W01
	BYTE		        c_v-40
	BYTE	W01
	BYTE		        c_v-42
	BYTE	W01
	BYTE		        c_v-43
	BYTE	W01
	BYTE		        c_v-45
	BYTE	W01
	BYTE		        c_v-46
	BYTE	W01
	BYTE		        c_v-47
	BYTE	W01
	BYTE		        c_v-49
	BYTE	W01
	BYTE		        c_v-50
	BYTE	W01
	BYTE		        c_v-52
	BYTE	W01
	BYTE		        c_v-53
	BYTE	W01
	BYTE		        c_v-55
	BYTE	W01
	BYTE		        c_v-56
	BYTE	W01
	BYTE		        c_v-57
	BYTE	W01
	BYTE		        c_v-59
	BYTE	W01
	BYTE		        c_v-60
	BYTE	W01
	BYTE		        c_v-62
	BYTE	W01
	BYTE		        c_v-63
	BYTE	W01
	BYTE		        c_v-64
	BYTE	W01
	BYTE		        c_v-64
	BYTE	W01
	BYTE		        c_v-63
	BYTE	W01
	BYTE		        c_v-62
	BYTE	W01
	BYTE		        c_v-60
	BYTE	W01
	BYTE		        c_v-59
	BYTE	W01
	BYTE		        c_v-58
	BYTE	W01
	BYTE		        c_v-56
	BYTE	W01
	BYTE		        c_v-55
	BYTE	W01
	BYTE		        c_v-54
	BYTE	W01
	BYTE		        c_v-52
	BYTE	W01
	BYTE		        c_v-51
	BYTE	W01
	BYTE		        c_v-50
	BYTE	W01
	BYTE		        c_v-48
	BYTE	W01
	BYTE		        c_v-47
	BYTE	W01
	BYTE		        c_v-46
	BYTE	W01
	BYTE		        c_v-44
	BYTE	W01
	BYTE		        c_v-43
	BYTE	W01
	BYTE		        c_v-42
	BYTE	W01
	BYTE		        c_v-40
	BYTE	W01
	BYTE		        c_v-39
	BYTE	W01
	BYTE		        c_v-38
	BYTE	W01
	BYTE		        c_v-36
	BYTE	W01
	BYTE		        c_v-35
	BYTE	W01
	BYTE		        c_v-34
	BYTE	W01
	BYTE		        c_v-32
	BYTE	W01
	BYTE		        c_v-31
	BYTE	W01
	BYTE		        c_v-29
	BYTE	W01
	BYTE		        c_v-28
	BYTE	W01
	BYTE		        c_v-27
	BYTE	W01
	BYTE		        c_v-25
	BYTE	W01
	BYTE		        c_v-24
	BYTE	W01
	BYTE		        c_v-23
	BYTE	W01
	BYTE		        c_v-21
	BYTE	W01
	BYTE		        c_v-20
	BYTE	W01
	BYTE		        c_v-19
	BYTE	W01
	BYTE		        c_v-17
	BYTE	W01
	BYTE		        c_v-16
	BYTE	W01
	BYTE		        c_v-15
	BYTE	W01
	BYTE		        c_v-13
	BYTE	W01
	BYTE		        c_v-12
	BYTE	W01
	BYTE		        c_v-11
	BYTE	W01
	BYTE		        c_v-9
	BYTE	W01
	BYTE		        c_v-8
	BYTE	W01
	BYTE		        c_v-7
	BYTE	W01
	BYTE		        c_v-5
	BYTE	W01
	BYTE		        c_v-4
	BYTE	W01
	BYTE		        c_v-3
	BYTE	W02
// 003   ----------------------------------------
CastlevaniaOrderofEcclesiaStonesHoldaGrudgePsyche_4_003:
	BYTE		PAN     c_v-1
	BYTE	W01
	BYTE		        c_v+0
	BYTE	W01
	BYTE		        c_v+1
	BYTE	W01
	BYTE		        c_v+3
	BYTE	W01
	BYTE		        c_v+4
	BYTE	W01
	BYTE		        c_v+6
	BYTE	W01
	BYTE		        c_v+7
	BYTE	W01
	BYTE		        c_v+8
	BYTE	W01
	BYTE		        c_v+10
	BYTE	W01
	BYTE		        c_v+11
	BYTE	W01
	BYTE		        c_v+12
	BYTE	W01
	BYTE		        c_v+14
	BYTE	W01
	BYTE		        c_v+15
	BYTE	W01
	BYTE		        c_v+16
	BYTE	W01
	BYTE		        c_v+18
	BYTE	W01
	BYTE		        c_v+19
	BYTE	W01
	BYTE		        c_v+20
	BYTE	W01
	BYTE		        c_v+22
	BYTE	W01
	BYTE		        c_v+23
	BYTE	W01
	BYTE		        c_v+24
	BYTE	W01
	BYTE		        c_v+26
	BYTE	W01
	BYTE		        c_v+27
	BYTE	W01
	BYTE		        c_v+28
	BYTE	W01
	BYTE		        c_v+30
	BYTE	W01
	BYTE		        c_v+31
	BYTE	W01
	BYTE		        c_v+32
	BYTE	W01
	BYTE		        c_v+34
	BYTE	W01
	BYTE		        c_v+35
	BYTE	W01
	BYTE		        c_v+36
	BYTE	W01
	BYTE		        c_v+38
	BYTE	W01
	BYTE		        c_v+39
	BYTE	W01
	BYTE		        c_v+41
	BYTE	W01
	BYTE		        c_v+42
	BYTE	W01
	BYTE		        c_v+43
	BYTE	W01
	BYTE		        c_v+45
	BYTE	W01
	BYTE		        c_v+46
	BYTE	W01
	BYTE		        c_v+47
	BYTE	W01
	BYTE		        c_v+49
	BYTE	W01
	BYTE		        c_v+50
	BYTE	W01
	BYTE		        c_v+51
	BYTE	W01
	BYTE		        c_v+53
	BYTE	W01
	BYTE		        c_v+54
	BYTE	W01
	BYTE		        c_v+55
	BYTE	W01
	BYTE		        c_v+57
	BYTE	W01
	BYTE		        c_v+58
	BYTE	W01
	BYTE		        c_v+59
	BYTE	W01
	BYTE		        c_v+61
	BYTE	W01
	BYTE		        c_v+63
	BYTE	W01
	BYTE		        c_v+62
	BYTE	W01
	BYTE		        c_v+60
	BYTE	W01
	BYTE		        c_v+59
	BYTE	W01
	BYTE		        c_v+58
	BYTE	W01
	BYTE		        c_v+56
	BYTE	W01
	BYTE		        c_v+55
	BYTE	W01
	BYTE		        c_v+54
	BYTE	W01
	BYTE		        c_v+52
	BYTE	W01
	BYTE		        c_v+51
	BYTE	W01
	BYTE		        c_v+49
	BYTE	W01
	BYTE		        c_v+48
	BYTE	W01
	BYTE		        c_v+47
	BYTE	W01
	BYTE		        c_v+45
	BYTE	W01
	BYTE		        c_v+44
	BYTE	W01
	BYTE		        c_v+43
	BYTE	W01
	BYTE		        c_v+41
	BYTE	W01
	BYTE		        c_v+40
	BYTE	W01
	BYTE		        c_v+39
	BYTE	W01
	BYTE		        c_v+37
	BYTE	W01
	BYTE		        c_v+36
	BYTE	W01
	BYTE		        c_v+35
	BYTE	W01
	BYTE		        c_v+33
	BYTE	W01
	BYTE		        c_v+32
	BYTE	W01
	BYTE		        c_v+31
	BYTE	W01
	BYTE		        c_v+29
	BYTE	W01
	BYTE		        c_v+28
	BYTE	W01
	BYTE		        c_v+27
	BYTE	W01
	BYTE		        c_v+25
	BYTE	W01
	BYTE		        c_v+24
	BYTE	W01
	BYTE		        c_v+23
	BYTE	W01
	BYTE		        c_v+21
	BYTE	W01
	BYTE		        c_v+20
	BYTE	W01
	BYTE		        c_v+19
	BYTE	W01
	BYTE		        c_v+17
	BYTE	W01
	BYTE		        c_v+16
	BYTE	W01
	BYTE		        c_v+15
	BYTE	W01
	BYTE		        c_v+13
	BYTE	W01
	BYTE		        c_v+12
	BYTE	W01
	BYTE		        c_v+11
	BYTE	W01
	BYTE		        c_v+9
	BYTE	W01
	BYTE		        c_v+8
	BYTE	W01
	BYTE		        c_v+7
	BYTE	W01
	BYTE		        c_v+5
	BYTE	W01
	BYTE		        c_v+4
	BYTE	W01
	BYTE		        c_v+3
	BYTE	W01
	BYTE		        c_v+1
	BYTE	W01
	BYTE		        c_v+0
	BYTE	W02
	BYTE	PEND
// 004   ----------------------------------------
	BYTE		        c_v-1
	BYTE	W01
	BYTE		        c_v-3
	BYTE	W01
	BYTE		        c_v-4
	BYTE	W01
	BYTE		        c_v-5
	BYTE	W01
	BYTE		        c_v-7
	BYTE	W01
	BYTE		        c_v-8
	BYTE	W01
	BYTE		        c_v-9
	BYTE	W01
	BYTE		        c_v-11
	BYTE	W01
	BYTE		        c_v-12
	BYTE	W01
	BYTE		        c_v-13
	BYTE	W01
	BYTE		        c_v-15
	BYTE	W01
	BYTE		        c_v-16
	BYTE	W01
	BYTE		        c_v-17
	BYTE	W01
	BYTE		        c_v-19
	BYTE	W01
	BYTE		        c_v-20
	BYTE	W01
	BYTE		        c_v-21
	BYTE	W01
	BYTE		        c_v-23
	BYTE	W01
	BYTE		        c_v-24
	BYTE	W01
	BYTE		        c_v-25
	BYTE	W01
	BYTE		        c_v-27
	BYTE	W01
	BYTE		        c_v-28
	BYTE	W01
	BYTE		        c_v-29
	BYTE	W01
	BYTE		        c_v-31
	BYTE	W01
	BYTE		        c_v-32
	BYTE	W01
	BYTE		        c_v-33
	BYTE	W01
	BYTE		        c_v-35
	BYTE	W01
	BYTE		        c_v-36
	BYTE	W01
	BYTE		        c_v-37
	BYTE	W01
	BYTE		        c_v-39
	BYTE	W01
	BYTE		        c_v-40
	BYTE	W01
	BYTE		        c_v-41
	BYTE	W01
	BYTE		        c_v-43
	BYTE	W01
	BYTE		        c_v-44
	BYTE	W01
	BYTE		        c_v-45
	BYTE	W01
	BYTE		        c_v-47
	BYTE	W01
	BYTE		        c_v-48
	BYTE	W01
	BYTE		        c_v-49
	BYTE	W01
	BYTE		        c_v-51
	BYTE	W01
	BYTE		        c_v-52
	BYTE	W01
	BYTE		        c_v-53
	BYTE	W01
	BYTE		        c_v-55
	BYTE	W01
	BYTE		        c_v-56
	BYTE	W01
	BYTE		        c_v-57
	BYTE	W01
	BYTE		        c_v-59
	BYTE	W01
	BYTE		        c_v-60
	BYTE	W01
	BYTE		        c_v-61
	BYTE	W01
	BYTE		        c_v-63
	BYTE	W01
	BYTE		        c_v-64
	BYTE	W01
	BYTE		        c_v-64
	BYTE	W01
	BYTE		        c_v-63
	BYTE	W01
	BYTE		        c_v-62
	BYTE	W01
	BYTE		        c_v-61
	BYTE	W01
	BYTE		        c_v-59
	BYTE	W01
	BYTE		        c_v-58
	BYTE	W01
	BYTE		        c_v-57
	BYTE	W01
	BYTE		        c_v-55
	BYTE	W01
	BYTE		        c_v-54
	BYTE	W01
	BYTE		        c_v-52
	BYTE	W01
	BYTE		        c_v-51
	BYTE	W01
	BYTE		        c_v-50
	BYTE	W01
	BYTE		        c_v-48
	BYTE	W01
	BYTE		        c_v-47
	BYTE	W01
	BYTE		        c_v-46
	BYTE	W01
	BYTE		        c_v-44
	BYTE	W01
	BYTE		        c_v-43
	BYTE	W01
	BYTE		        c_v-42
	BYTE	W01
	BYTE		        c_v-40
	BYTE	W01
	BYTE		        c_v-39
	BYTE	W01
	BYTE		        c_v-38
	BYTE	W01
	BYTE		        c_v-36
	BYTE	W01
	BYTE		        c_v-35
	BYTE	W01
	BYTE		        c_v-34
	BYTE	W01
	BYTE		        c_v-32
	BYTE	W01
	BYTE		        c_v-31
	BYTE	W01
	BYTE		        c_v-30
	BYTE	W01
	BYTE		        c_v-28
	BYTE	W01
	BYTE		        c_v-27
	BYTE	W01
	BYTE		        c_v-26
	BYTE	W01
	BYTE		        c_v-24
	BYTE	W01
	BYTE		        c_v-23
	BYTE	W01
	BYTE		        c_v-22
	BYTE	W01
	BYTE		        c_v-20
	BYTE	W01
	BYTE		        c_v-19
	BYTE	W01
	BYTE		        c_v-18
	BYTE	W01
	BYTE		        c_v-16
	BYTE	W01
	BYTE		        c_v-15
	BYTE	W01
	BYTE		        c_v-14
	BYTE	W01
	BYTE		        c_v-12
	BYTE	W01
	BYTE		        c_v-11
	BYTE	W01
	BYTE		        c_v-10
	BYTE	W01
	BYTE		        c_v-8
	BYTE	W01
	BYTE		        c_v-7
	BYTE	W01
	BYTE		        c_v-6
	BYTE	W01
	BYTE		        c_v-4
	BYTE	W01
	BYTE		        c_v-3
	BYTE	W02
// 005   ----------------------------------------
	BYTE		        c_v-2
	BYTE	W01
	BYTE		        c_v+0
	BYTE	W01
	BYTE		        c_v+1
	BYTE	W01
	BYTE		        c_v+2
	BYTE	W01
	BYTE		        c_v+4
	BYTE	W01
	BYTE		        c_v+5
	BYTE	W01
	BYTE		        c_v+6
	BYTE	W01
	BYTE		        c_v+8
	BYTE	W01
	BYTE		        c_v+9
	BYTE	W01
	BYTE		        c_v+10
	BYTE	W01
	BYTE		        c_v+12
	BYTE	W01
	BYTE		        c_v+13
	BYTE	W01
	BYTE		        c_v+14
	BYTE	W01
	BYTE		        c_v+16
	BYTE	W01
	BYTE		        c_v+17
	BYTE	W01
	BYTE		        c_v+18
	BYTE	W01
	BYTE		        c_v+20
	BYTE	W01
	BYTE		        c_v+21
	BYTE	W01
	BYTE		        c_v+22
	BYTE	W01
	BYTE		        c_v+24
	BYTE	W01
	BYTE		        c_v+25
	BYTE	W01
	BYTE		        c_v+26
	BYTE	W01
	BYTE		        c_v+28
	BYTE	W01
	BYTE		        c_v+29
	BYTE	W01
	BYTE		        c_v+30
	BYTE	W01
	BYTE		        c_v+32
	BYTE	W01
	BYTE		        c_v+33
	BYTE	W01
	BYTE		        c_v+34
	BYTE	W01
	BYTE		        c_v+36
	BYTE	W01
	BYTE		        c_v+37
	BYTE	W01
	BYTE		        c_v+38
	BYTE	W01
	BYTE		        c_v+40
	BYTE	W01
	BYTE		        c_v+41
	BYTE	W01
	BYTE		        c_v+42
	BYTE	W01
	BYTE		        c_v+44
	BYTE	W01
	BYTE		        c_v+45
	BYTE	W01
	BYTE		        c_v+46
	BYTE	W01
	BYTE		        c_v+48
	BYTE	W01
	BYTE		        c_v+49
	BYTE	W01
	BYTE		        c_v+50
	BYTE	W01
	BYTE		        c_v+52
	BYTE	W01
	BYTE		        c_v+53
	BYTE	W01
	BYTE		        c_v+54
	BYTE	W01
	BYTE		        c_v+56
	BYTE	W01
	BYTE		        c_v+57
	BYTE	W01
	BYTE		        c_v+58
	BYTE	W01
	BYTE		        c_v+60
	BYTE	W01
	BYTE		        c_v+62
	BYTE	W01
	BYTE		        c_v+62
	BYTE	W01
	BYTE		        c_v+60
	BYTE	W01
	BYTE		        c_v+59
	BYTE	W01
	BYTE		        c_v+58
	BYTE	W01
	BYTE		        c_v+56
	BYTE	W01
	BYTE		        c_v+55
	BYTE	W01
	BYTE		        c_v+54
	BYTE	W01
	BYTE		        c_v+52
	BYTE	W01
	BYTE		        c_v+51
	BYTE	W01
	BYTE		        c_v+49
	BYTE	W01
	BYTE		        c_v+48
	BYTE	W01
	BYTE		        c_v+47
	BYTE	W01
	BYTE		        c_v+45
	BYTE	W01
	BYTE		        c_v+44
	BYTE	W01
	BYTE		        c_v+43
	BYTE	W01
	BYTE		        c_v+41
	BYTE	W01
	BYTE		        c_v+40
	BYTE	W01
	BYTE		        c_v+39
	BYTE	W01
	BYTE		        c_v+37
	BYTE	W01
	BYTE		        c_v+36
	BYTE	W01
	BYTE		        c_v+35
	BYTE	W01
	BYTE		        c_v+33
	BYTE	W01
	BYTE		        c_v+32
	BYTE	W01
	BYTE		        c_v+31
	BYTE	W01
	BYTE		        c_v+29
	BYTE	W01
	BYTE		        c_v+28
	BYTE	W01
	BYTE		        c_v+27
	BYTE	W01
	BYTE		        c_v+25
	BYTE	W01
	BYTE		        c_v+24
	BYTE	W01
	BYTE		        c_v+23
	BYTE	W01
	BYTE		        c_v+21
	BYTE	W01
	BYTE		        c_v+20
	BYTE	W01
	BYTE		        c_v+19
	BYTE	W01
	BYTE		        c_v+17
	BYTE	W01
	BYTE		        c_v+16
	BYTE	W01
	BYTE		        c_v+15
	BYTE	W01
	BYTE		        c_v+13
	BYTE	W01
	BYTE		        c_v+12
	BYTE	W01
	BYTE		        c_v+11
	BYTE	W01
	BYTE		        c_v+9
	BYTE	W01
	BYTE		        c_v+8
	BYTE	W01
	BYTE		        c_v+7
	BYTE	W01
	BYTE		        c_v+5
	BYTE	W01
	BYTE		        c_v+4
	BYTE	W01
	BYTE		        c_v+3
	BYTE	W01
	BYTE		        c_v+1
	BYTE	W01
	BYTE		        c_v+0
	BYTE	W02
	BYTE		EOT     An2 
// 006   ----------------------------------------
	BYTE		PAN     c_v-1
	BYTE		TIE     An2   v112
	BYTE	W01
	BYTE		PAN     c_v-3
	BYTE	W01
	BYTE		        c_v-4
	BYTE	W01
	BYTE		        c_v-5
	BYTE	W01
	BYTE		        c_v-7
	BYTE	W01
	BYTE		        c_v-8
	BYTE	W01
	BYTE		        c_v-9
	BYTE	W01
	BYTE		        c_v-11
	BYTE	W01
	BYTE		        c_v-12
	BYTE	W01
	BYTE		        c_v-13
	BYTE	W01
	BYTE		        c_v-15
	BYTE	W01
	BYTE		        c_v-16
	BYTE	W01
	BYTE		        c_v-17
	BYTE	W01
	BYTE		        c_v-19
	BYTE	W01
	BYTE		        c_v-20
	BYTE	W01
	BYTE		        c_v-21
	BYTE	W01
	BYTE		        c_v-23
	BYTE	W01
	BYTE		        c_v-24
	BYTE	W01
	BYTE		        c_v-25
	BYTE	W01
	BYTE		        c_v-27
	BYTE	W01
	BYTE		        c_v-28
	BYTE	W01
	BYTE		        c_v-29
	BYTE	W01
	BYTE		        c_v-31
	BYTE	W01
	BYTE		        c_v-32
	BYTE	W01
	BYTE		        c_v-33
	BYTE	W01
	BYTE		        c_v-35
	BYTE	W01
	BYTE		        c_v-36
	BYTE	W01
	BYTE		        c_v-37
	BYTE	W01
	BYTE		        c_v-39
	BYTE	W01
	BYTE		        c_v-40
	BYTE	W01
	BYTE		        c_v-41
	BYTE	W01
	BYTE		        c_v-43
	BYTE	W01
	BYTE		        c_v-44
	BYTE	W01
	BYTE		        c_v-45
	BYTE	W01
	BYTE		        c_v-47
	BYTE	W01
	BYTE		        c_v-48
	BYTE	W01
	BYTE		        c_v-49
	BYTE	W01
	BYTE		        c_v-51
	BYTE	W01
	BYTE		        c_v-52
	BYTE	W01
	BYTE		        c_v-53
	BYTE	W01
	BYTE		        c_v-55
	BYTE	W01
	BYTE		        c_v-56
	BYTE	W01
	BYTE		        c_v-57
	BYTE	W01
	BYTE		        c_v-59
	BYTE	W01
	BYTE		        c_v-60
	BYTE	W01
	BYTE		        c_v-61
	BYTE	W01
	BYTE		        c_v-63
	BYTE	W01
	BYTE		        c_v-64
	BYTE	W01
	BYTE		        c_v-64
	BYTE	W01
	BYTE		        c_v-63
	BYTE	W01
	BYTE		        c_v-62
	BYTE	W01
	BYTE		        c_v-60
	BYTE	W01
	BYTE		        c_v-59
	BYTE	W01
	BYTE		        c_v-58
	BYTE	W01
	BYTE		        c_v-56
	BYTE	W01
	BYTE		        c_v-55
	BYTE	W01
	BYTE		        c_v-54
	BYTE	W01
	BYTE		        c_v-52
	BYTE	W01
	BYTE		        c_v-51
	BYTE	W01
	BYTE		        c_v-50
	BYTE	W01
	BYTE		        c_v-48
	BYTE	W01
	BYTE		        c_v-47
	BYTE	W01
	BYTE		        c_v-46
	BYTE	W01
	BYTE		        c_v-44
	BYTE	W01
	BYTE		        c_v-43
	BYTE	W01
	BYTE		        c_v-42
	BYTE	W01
	BYTE		        c_v-40
	BYTE	W01
	BYTE		        c_v-39
	BYTE	W01
	BYTE		        c_v-38
	BYTE	W01
	BYTE		        c_v-36
	BYTE	W01
	BYTE		        c_v-35
	BYTE	W01
	BYTE		        c_v-34
	BYTE	W01
	BYTE		        c_v-32
	BYTE	W01
	BYTE		        c_v-31
	BYTE	W01
	BYTE		        c_v-29
	BYTE	W01
	BYTE		        c_v-28
	BYTE	W01
	BYTE		        c_v-27
	BYTE	W01
	BYTE		        c_v-25
	BYTE	W01
	BYTE		        c_v-24
	BYTE	W01
	BYTE		        c_v-23
	BYTE	W01
	BYTE		        c_v-21
	BYTE	W01
	BYTE		        c_v-20
	BYTE	W01
	BYTE		        c_v-19
	BYTE	W01
	BYTE		        c_v-17
	BYTE	W01
	BYTE		        c_v-16
	BYTE	W01
	BYTE		        c_v-15
	BYTE	W01
	BYTE		        c_v-13
	BYTE	W01
	BYTE		        c_v-12
	BYTE	W01
	BYTE		        c_v-11
	BYTE	W01
	BYTE		        c_v-9
	BYTE	W01
	BYTE		        c_v-8
	BYTE	W01
	BYTE		        c_v-7
	BYTE	W01
	BYTE		        c_v-5
	BYTE	W01
	BYTE		        c_v-4
	BYTE	W01
	BYTE		        c_v-3
	BYTE	W02
// 007   ----------------------------------------
	BYTE	PATT
	 POIN2	CastlevaniaOrderofEcclesiaStonesHoldaGrudgePsyche_4_003
// 008   ----------------------------------------
CastlevaniaOrderofEcclesiaStonesHoldaGrudgePsyche_4_008:
	BYTE		PAN     c_v-1
	BYTE	W01
	BYTE		        c_v-3
	BYTE	W01
	BYTE		        c_v-4
	BYTE	W01
	BYTE		        c_v-5
	BYTE	W01
	BYTE		        c_v-7
	BYTE	W01
	BYTE		        c_v-8
	BYTE	W01
	BYTE		        c_v-9
	BYTE	W01
	BYTE		        c_v-11
	BYTE	W01
	BYTE		        c_v-12
	BYTE	W01
	BYTE		        c_v-13
	BYTE	W01
	BYTE		        c_v-15
	BYTE	W01
	BYTE		        c_v-16
	BYTE	W01
	BYTE		        c_v-17
	BYTE	W01
	BYTE		        c_v-19
	BYTE	W01
	BYTE		        c_v-20
	BYTE	W01
	BYTE		        c_v-21
	BYTE	W01
	BYTE		        c_v-23
	BYTE	W01
	BYTE		        c_v-24
	BYTE	W01
	BYTE		        c_v-25
	BYTE	W01
	BYTE		        c_v-27
	BYTE	W01
	BYTE		        c_v-28
	BYTE	W01
	BYTE		        c_v-29
	BYTE	W01
	BYTE		        c_v-31
	BYTE	W01
	BYTE		        c_v-32
	BYTE	W01
	BYTE		        c_v-33
	BYTE	W01
	BYTE		        c_v-35
	BYTE	W01
	BYTE		        c_v-36
	BYTE	W01
	BYTE		        c_v-37
	BYTE	W01
	BYTE		        c_v-39
	BYTE	W01
	BYTE		        c_v-40
	BYTE	W01
	BYTE		        c_v-41
	BYTE	W01
	BYTE		        c_v-43
	BYTE	W01
	BYTE		        c_v-44
	BYTE	W01
	BYTE		        c_v-45
	BYTE	W01
	BYTE		        c_v-47
	BYTE	W01
	BYTE		        c_v-48
	BYTE	W01
	BYTE		        c_v-49
	BYTE	W01
	BYTE		        c_v-51
	BYTE	W01
	BYTE		        c_v-52
	BYTE	W01
	BYTE		        c_v-53
	BYTE	W01
	BYTE		        c_v-55
	BYTE	W01
	BYTE		        c_v-56
	BYTE	W01
	BYTE		        c_v-57
	BYTE	W01
	BYTE		        c_v-59
	BYTE	W01
	BYTE		        c_v-60
	BYTE	W01
	BYTE		        c_v-61
	BYTE	W01
	BYTE		        c_v-63
	BYTE	W01
	BYTE		        c_v-64
	BYTE	W01
	BYTE		        c_v-64
	BYTE	W01
	BYTE		        c_v-63
	BYTE	W01
	BYTE		        c_v-62
	BYTE	W01
	BYTE		        c_v-60
	BYTE	W01
	BYTE		        c_v-59
	BYTE	W01
	BYTE		        c_v-58
	BYTE	W01
	BYTE		        c_v-56
	BYTE	W01
	BYTE		        c_v-55
	BYTE	W01
	BYTE		        c_v-54
	BYTE	W01
	BYTE		        c_v-52
	BYTE	W01
	BYTE		        c_v-51
	BYTE	W01
	BYTE		        c_v-50
	BYTE	W01
	BYTE		        c_v-48
	BYTE	W01
	BYTE		        c_v-47
	BYTE	W01
	BYTE		        c_v-46
	BYTE	W01
	BYTE		        c_v-44
	BYTE	W01
	BYTE		        c_v-43
	BYTE	W01
	BYTE		        c_v-42
	BYTE	W01
	BYTE		        c_v-40
	BYTE	W01
	BYTE		        c_v-39
	BYTE	W01
	BYTE		        c_v-38
	BYTE	W01
	BYTE		        c_v-36
	BYTE	W01
	BYTE		        c_v-35
	BYTE	W01
	BYTE		        c_v-34
	BYTE	W01
	BYTE		        c_v-32
	BYTE	W01
	BYTE		        c_v-31
	BYTE	W01
	BYTE		        c_v-29
	BYTE	W01
	BYTE		        c_v-28
	BYTE	W01
	BYTE		        c_v-27
	BYTE	W01
	BYTE		        c_v-25
	BYTE	W01
	BYTE		        c_v-24
	BYTE	W01
	BYTE		        c_v-23
	BYTE	W01
	BYTE		        c_v-21
	BYTE	W01
	BYTE		        c_v-20
	BYTE	W01
	BYTE		        c_v-19
	BYTE	W01
	BYTE		        c_v-17
	BYTE	W01
	BYTE		        c_v-16
	BYTE	W01
	BYTE		        c_v-15
	BYTE	W01
	BYTE		        c_v-13
	BYTE	W01
	BYTE		        c_v-12
	BYTE	W01
	BYTE		        c_v-11
	BYTE	W01
	BYTE		        c_v-9
	BYTE	W01
	BYTE		        c_v-8
	BYTE	W01
	BYTE		        c_v-7
	BYTE	W01
	BYTE		        c_v-5
	BYTE	W01
	BYTE		        c_v-4
	BYTE	W01
	BYTE		        c_v-3
	BYTE	W02
	BYTE	PEND
// 009   ----------------------------------------
	BYTE		        c_v-1
	BYTE	W01
	BYTE		        c_v+0
	BYTE	W01
	BYTE		        c_v+1
	BYTE	W01
	BYTE		        c_v+3
	BYTE	W01
	BYTE		        c_v+4
	BYTE	W01
	BYTE		        c_v+6
	BYTE	W01
	BYTE		        c_v+7
	BYTE	W01
	BYTE		        c_v+8
	BYTE	W01
	BYTE		        c_v+10
	BYTE	W01
	BYTE		        c_v+11
	BYTE	W01
	BYTE		        c_v+12
	BYTE	W01
	BYTE		        c_v+14
	BYTE	W01
	BYTE		        c_v+15
	BYTE	W01
	BYTE		        c_v+16
	BYTE	W01
	BYTE		        c_v+18
	BYTE	W01
	BYTE		        c_v+19
	BYTE	W01
	BYTE		        c_v+20
	BYTE	W01
	BYTE		        c_v+22
	BYTE	W01
	BYTE		        c_v+23
	BYTE	W01
	BYTE		        c_v+24
	BYTE	W01
	BYTE		        c_v+26
	BYTE	W01
	BYTE		        c_v+27
	BYTE	W01
	BYTE		        c_v+28
	BYTE	W01
	BYTE		        c_v+30
	BYTE	W01
	BYTE		        c_v+31
	BYTE	W01
	BYTE		        c_v+32
	BYTE	W01
	BYTE		        c_v+34
	BYTE	W01
	BYTE		        c_v+35
	BYTE	W01
	BYTE		        c_v+36
	BYTE	W01
	BYTE		        c_v+38
	BYTE	W01
	BYTE		        c_v+39
	BYTE	W01
	BYTE		        c_v+41
	BYTE	W01
	BYTE		        c_v+42
	BYTE	W01
	BYTE		        c_v+43
	BYTE	W01
	BYTE		        c_v+45
	BYTE	W01
	BYTE		        c_v+46
	BYTE	W01
	BYTE		        c_v+47
	BYTE	W01
	BYTE		        c_v+49
	BYTE	W01
	BYTE		        c_v+50
	BYTE	W01
	BYTE		        c_v+51
	BYTE	W01
	BYTE		        c_v+53
	BYTE	W01
	BYTE		        c_v+54
	BYTE	W01
	BYTE		        c_v+55
	BYTE	W01
	BYTE		        c_v+57
	BYTE	W01
	BYTE		        c_v+58
	BYTE	W01
	BYTE		        c_v+59
	BYTE	W01
	BYTE		        c_v+61
	BYTE	W01
	BYTE		        c_v+63
	BYTE	W01
	BYTE		        c_v+60
	BYTE	W01
	BYTE		        c_v+58
	BYTE	W01
	BYTE		        c_v+57
	BYTE	W01
	BYTE		        c_v+56
	BYTE	W01
	BYTE		        c_v+54
	BYTE	W01
	BYTE		        c_v+53
	BYTE	W01
	BYTE		        c_v+52
	BYTE	W01
	BYTE		        c_v+50
	BYTE	W01
	BYTE		        c_v+49
	BYTE	W01
	BYTE		        c_v+48
	BYTE	W01
	BYTE		        c_v+46
	BYTE	W01
	BYTE		        c_v+45
	BYTE	W01
	BYTE		        c_v+44
	BYTE	W01
	BYTE		        c_v+42
	BYTE	W01
	BYTE		        c_v+41
	BYTE	W01
	BYTE		        c_v+40
	BYTE	W01
	BYTE		        c_v+38
	BYTE	W01
	BYTE		        c_v+37
	BYTE	W01
	BYTE		        c_v+36
	BYTE	W01
	BYTE		        c_v+34
	BYTE	W01
	BYTE		        c_v+33
	BYTE	W01
	BYTE		        c_v+32
	BYTE	W01
	BYTE		        c_v+31
	BYTE	W01
	BYTE		        c_v+29
	BYTE	W01
	BYTE		        c_v+28
	BYTE	W01
	BYTE		        c_v+27
	BYTE	W01
	BYTE		        c_v+25
	BYTE	W01
	BYTE		        c_v+24
	BYTE	W01
	BYTE		        c_v+23
	BYTE	W01
	BYTE		        c_v+21
	BYTE	W01
	BYTE		        c_v+20
	BYTE	W01
	BYTE		        c_v+19
	BYTE	W01
	BYTE		        c_v+17
	BYTE	W01
	BYTE		        c_v+16
	BYTE	W01
	BYTE		        c_v+15
	BYTE	W01
	BYTE		        c_v+13
	BYTE	W01
	BYTE		        c_v+12
	BYTE	W01
	BYTE		        c_v+11
	BYTE	W01
	BYTE		        c_v+9
	BYTE	W01
	BYTE		        c_v+8
	BYTE	W01
	BYTE		        c_v+7
	BYTE	W01
	BYTE		        c_v+6
	BYTE	W01
	BYTE		        c_v+4
	BYTE	W01
	BYTE		        c_v+3
	BYTE	W01
	BYTE		        c_v+2
	BYTE	W01
	BYTE		        c_v+0
	BYTE	W01
	BYTE		        c_v-1
	BYTE	W02
	BYTE		EOT     An2 
// 010   ----------------------------------------
	BYTE		PAN     c_v-2
	BYTE		TIE     Cn3   v112
	BYTE	W01
	BYTE		PAN     c_v-4
	BYTE	W01
	BYTE		        c_v-5
	BYTE	W01
	BYTE		        c_v-6
	BYTE	W01
	BYTE		        c_v-8
	BYTE	W01
	BYTE		        c_v-9
	BYTE	W01
	BYTE		        c_v-10
	BYTE	W01
	BYTE		        c_v-12
	BYTE	W01
	BYTE		        c_v-13
	BYTE	W01
	BYTE		        c_v-14
	BYTE	W01
	BYTE		        c_v-16
	BYTE	W01
	BYTE		        c_v-17
	BYTE	W01
	BYTE		        c_v-18
	BYTE	W01
	BYTE		        c_v-19
	BYTE	W01
	BYTE		        c_v-21
	BYTE	W01
	BYTE		        c_v-22
	BYTE	W01
	BYTE		        c_v-23
	BYTE	W01
	BYTE		        c_v-25
	BYTE	W01
	BYTE		        c_v-26
	BYTE	W01
	BYTE		        c_v-27
	BYTE	W01
	BYTE		        c_v-29
	BYTE	W01
	BYTE		        c_v-30
	BYTE	W01
	BYTE		        c_v-31
	BYTE	W01
	BYTE		        c_v-33
	BYTE	W01
	BYTE		        c_v-34
	BYTE	W01
	BYTE		        c_v-35
	BYTE	W01
	BYTE		        c_v-37
	BYTE	W01
	BYTE		        c_v-38
	BYTE	W01
	BYTE		        c_v-39
	BYTE	W01
	BYTE		        c_v-41
	BYTE	W01
	BYTE		        c_v-42
	BYTE	W01
	BYTE		        c_v-43
	BYTE	W01
	BYTE		        c_v-44
	BYTE	W01
	BYTE		        c_v-46
	BYTE	W01
	BYTE		        c_v-47
	BYTE	W01
	BYTE		        c_v-48
	BYTE	W01
	BYTE		        c_v-50
	BYTE	W01
	BYTE		        c_v-51
	BYTE	W01
	BYTE		        c_v-52
	BYTE	W01
	BYTE		        c_v-54
	BYTE	W01
	BYTE		        c_v-55
	BYTE	W01
	BYTE		        c_v-56
	BYTE	W01
	BYTE		        c_v-58
	BYTE	W01
	BYTE		        c_v-59
	BYTE	W01
	BYTE		        c_v-60
	BYTE	W01
	BYTE		        c_v-62
	BYTE	W01
	BYTE		        c_v-63
	BYTE	W01
	BYTE		        c_v-64
	BYTE	W01
	BYTE		        c_v-64
	BYTE	W01
	BYTE		        c_v-63
	BYTE	W01
	BYTE		        c_v-62
	BYTE	W01
	BYTE		        c_v-60
	BYTE	W01
	BYTE		        c_v-59
	BYTE	W01
	BYTE		        c_v-58
	BYTE	W01
	BYTE		        c_v-56
	BYTE	W01
	BYTE		        c_v-55
	BYTE	W01
	BYTE		        c_v-54
	BYTE	W01
	BYTE		        c_v-52
	BYTE	W01
	BYTE		        c_v-51
	BYTE	W01
	BYTE		        c_v-50
	BYTE	W01
	BYTE		        c_v-48
	BYTE	W01
	BYTE		        c_v-47
	BYTE	W01
	BYTE		        c_v-46
	BYTE	W01
	BYTE		        c_v-44
	BYTE	W01
	BYTE		        c_v-43
	BYTE	W01
	BYTE		        c_v-42
	BYTE	W01
	BYTE		        c_v-40
	BYTE	W01
	BYTE		        c_v-39
	BYTE	W01
	BYTE		        c_v-38
	BYTE	W01
	BYTE		        c_v-36
	BYTE	W01
	BYTE		        c_v-35
	BYTE	W01
	BYTE		        c_v-34
	BYTE	W01
	BYTE		        c_v-32
	BYTE	W01
	BYTE		        c_v-31
	BYTE	W01
	BYTE		        c_v-29
	BYTE	W01
	BYTE		        c_v-28
	BYTE	W01
	BYTE		        c_v-27
	BYTE	W01
	BYTE		        c_v-25
	BYTE	W01
	BYTE		        c_v-24
	BYTE	W01
	BYTE		        c_v-23
	BYTE	W01
	BYTE		        c_v-21
	BYTE	W01
	BYTE		        c_v-20
	BYTE	W01
	BYTE		        c_v-19
	BYTE	W01
	BYTE		        c_v-17
	BYTE	W01
	BYTE		        c_v-16
	BYTE	W01
	BYTE		        c_v-15
	BYTE	W01
	BYTE		        c_v-13
	BYTE	W01
	BYTE		        c_v-12
	BYTE	W01
	BYTE		        c_v-11
	BYTE	W01
	BYTE		        c_v-9
	BYTE	W01
	BYTE		        c_v-8
	BYTE	W01
	BYTE		        c_v-7
	BYTE	W01
	BYTE		        c_v-5
	BYTE	W01
	BYTE		        c_v-4
	BYTE	W01
	BYTE		        c_v-3
	BYTE	W02
// 011   ----------------------------------------
CastlevaniaOrderofEcclesiaStonesHoldaGrudgePsyche_4_011:
	BYTE		PAN     c_v-1
	BYTE	W01
	BYTE		        c_v+0
	BYTE	W01
	BYTE		        c_v+1
	BYTE	W01
	BYTE		        c_v+3
	BYTE	W01
	BYTE		        c_v+4
	BYTE	W01
	BYTE		        c_v+6
	BYTE	W01
	BYTE		        c_v+7
	BYTE	W01
	BYTE		        c_v+8
	BYTE	W01
	BYTE		        c_v+10
	BYTE	W01
	BYTE		        c_v+11
	BYTE	W01
	BYTE		        c_v+12
	BYTE	W01
	BYTE		        c_v+14
	BYTE	W01
	BYTE		        c_v+15
	BYTE	W01
	BYTE		        c_v+16
	BYTE	W01
	BYTE		        c_v+18
	BYTE	W01
	BYTE		        c_v+19
	BYTE	W01
	BYTE		        c_v+20
	BYTE	W01
	BYTE		        c_v+22
	BYTE	W01
	BYTE		        c_v+23
	BYTE	W01
	BYTE		        c_v+24
	BYTE	W01
	BYTE		        c_v+26
	BYTE	W01
	BYTE		        c_v+27
	BYTE	W01
	BYTE		        c_v+28
	BYTE	W01
	BYTE		        c_v+30
	BYTE	W01
	BYTE		        c_v+31
	BYTE	W01
	BYTE		        c_v+32
	BYTE	W01
	BYTE		        c_v+34
	BYTE	W01
	BYTE		        c_v+35
	BYTE	W01
	BYTE		        c_v+36
	BYTE	W01
	BYTE		        c_v+38
	BYTE	W01
	BYTE		        c_v+39
	BYTE	W01
	BYTE		        c_v+41
	BYTE	W01
	BYTE		        c_v+42
	BYTE	W01
	BYTE		        c_v+43
	BYTE	W01
	BYTE		        c_v+45
	BYTE	W01
	BYTE		        c_v+46
	BYTE	W01
	BYTE		        c_v+47
	BYTE	W01
	BYTE		        c_v+49
	BYTE	W01
	BYTE		        c_v+50
	BYTE	W01
	BYTE		        c_v+51
	BYTE	W01
	BYTE		        c_v+53
	BYTE	W01
	BYTE		        c_v+54
	BYTE	W01
	BYTE		        c_v+55
	BYTE	W01
	BYTE		        c_v+57
	BYTE	W01
	BYTE		        c_v+58
	BYTE	W01
	BYTE		        c_v+59
	BYTE	W01
	BYTE		        c_v+61
	BYTE	W01
	BYTE		        c_v+63
	BYTE	W01
	BYTE		        c_v+63
	BYTE	W01
	BYTE		        c_v+61
	BYTE	W01
	BYTE		        c_v+60
	BYTE	W01
	BYTE		        c_v+58
	BYTE	W01
	BYTE		        c_v+57
	BYTE	W01
	BYTE		        c_v+56
	BYTE	W01
	BYTE		        c_v+54
	BYTE	W01
	BYTE		        c_v+53
	BYTE	W01
	BYTE		        c_v+52
	BYTE	W01
	BYTE		        c_v+50
	BYTE	W01
	BYTE		        c_v+49
	BYTE	W01
	BYTE		        c_v+48
	BYTE	W01
	BYTE		        c_v+46
	BYTE	W01
	BYTE		        c_v+45
	BYTE	W01
	BYTE		        c_v+44
	BYTE	W01
	BYTE		        c_v+42
	BYTE	W01
	BYTE		        c_v+41
	BYTE	W01
	BYTE		        c_v+40
	BYTE	W01
	BYTE		        c_v+38
	BYTE	W01
	BYTE		        c_v+37
	BYTE	W01
	BYTE		        c_v+36
	BYTE	W01
	BYTE		        c_v+34
	BYTE	W01
	BYTE		        c_v+33
	BYTE	W01
	BYTE		        c_v+32
	BYTE	W01
	BYTE		        c_v+30
	BYTE	W01
	BYTE		        c_v+29
	BYTE	W01
	BYTE		        c_v+27
	BYTE	W01
	BYTE		        c_v+26
	BYTE	W01
	BYTE		        c_v+25
	BYTE	W01
	BYTE		        c_v+23
	BYTE	W01
	BYTE		        c_v+22
	BYTE	W01
	BYTE		        c_v+21
	BYTE	W01
	BYTE		        c_v+19
	BYTE	W01
	BYTE		        c_v+18
	BYTE	W01
	BYTE		        c_v+17
	BYTE	W01
	BYTE		        c_v+15
	BYTE	W01
	BYTE		        c_v+14
	BYTE	W01
	BYTE		        c_v+13
	BYTE	W01
	BYTE		        c_v+11
	BYTE	W01
	BYTE		        c_v+10
	BYTE	W01
	BYTE		        c_v+9
	BYTE	W01
	BYTE		        c_v+7
	BYTE	W01
	BYTE		        c_v+6
	BYTE	W01
	BYTE		        c_v+5
	BYTE	W01
	BYTE		        c_v+3
	BYTE	W01
	BYTE		        c_v+2
	BYTE	W01
	BYTE		        c_v+1
	BYTE	W02
	BYTE	PEND
// 012   ----------------------------------------
	BYTE		        c_v-1
	BYTE	W01
	BYTE		        c_v-2
	BYTE	W01
	BYTE		        c_v-3
	BYTE	W01
	BYTE		        c_v-5
	BYTE	W01
	BYTE		        c_v-6
	BYTE	W01
	BYTE		        c_v-8
	BYTE	W01
	BYTE		        c_v-9
	BYTE	W01
	BYTE		        c_v-10
	BYTE	W01
	BYTE		        c_v-12
	BYTE	W01
	BYTE		        c_v-13
	BYTE	W01
	BYTE		        c_v-14
	BYTE	W01
	BYTE		        c_v-16
	BYTE	W01
	BYTE		        c_v-17
	BYTE	W01
	BYTE		        c_v-18
	BYTE	W01
	BYTE		        c_v-20
	BYTE	W01
	BYTE		        c_v-21
	BYTE	W01
	BYTE		        c_v-22
	BYTE	W01
	BYTE		        c_v-24
	BYTE	W01
	BYTE		        c_v-25
	BYTE	W01
	BYTE		        c_v-26
	BYTE	W01
	BYTE		        c_v-28
	BYTE	W01
	BYTE		        c_v-29
	BYTE	W01
	BYTE		        c_v-30
	BYTE	W01
	BYTE		        c_v-32
	BYTE	W01
	BYTE		        c_v-33
	BYTE	W01
	BYTE		        c_v-34
	BYTE	W01
	BYTE		        c_v-36
	BYTE	W01
	BYTE		        c_v-37
	BYTE	W01
	BYTE		        c_v-38
	BYTE	W01
	BYTE		        c_v-40
	BYTE	W01
	BYTE		        c_v-41
	BYTE	W01
	BYTE		        c_v-43
	BYTE	W01
	BYTE		        c_v-44
	BYTE	W01
	BYTE		        c_v-45
	BYTE	W01
	BYTE		        c_v-47
	BYTE	W01
	BYTE		        c_v-48
	BYTE	W01
	BYTE		        c_v-49
	BYTE	W01
	BYTE		        c_v-51
	BYTE	W01
	BYTE		        c_v-52
	BYTE	W01
	BYTE		        c_v-53
	BYTE	W01
	BYTE		        c_v-55
	BYTE	W01
	BYTE		        c_v-56
	BYTE	W01
	BYTE		        c_v-57
	BYTE	W01
	BYTE		        c_v-59
	BYTE	W01
	BYTE		        c_v-60
	BYTE	W01
	BYTE		        c_v-61
	BYTE	W01
	BYTE		        c_v-63
	BYTE	W01
	BYTE		        c_v-64
	BYTE	W01
	BYTE		        c_v-64
	BYTE	W01
	BYTE		        c_v-63
	BYTE	W01
	BYTE		        c_v-62
	BYTE	W01
	BYTE		        c_v-60
	BYTE	W01
	BYTE		        c_v-59
	BYTE	W01
	BYTE		        c_v-58
	BYTE	W01
	BYTE		        c_v-56
	BYTE	W01
	BYTE		        c_v-55
	BYTE	W01
	BYTE		        c_v-54
	BYTE	W01
	BYTE		        c_v-52
	BYTE	W01
	BYTE		        c_v-51
	BYTE	W01
	BYTE		        c_v-50
	BYTE	W01
	BYTE		        c_v-48
	BYTE	W01
	BYTE		        c_v-47
	BYTE	W01
	BYTE		        c_v-46
	BYTE	W01
	BYTE		        c_v-44
	BYTE	W01
	BYTE		        c_v-43
	BYTE	W01
	BYTE		        c_v-42
	BYTE	W01
	BYTE		        c_v-40
	BYTE	W01
	BYTE		        c_v-39
	BYTE	W01
	BYTE		        c_v-38
	BYTE	W01
	BYTE		        c_v-36
	BYTE	W01
	BYTE		        c_v-35
	BYTE	W01
	BYTE		        c_v-34
	BYTE	W01
	BYTE		        c_v-32
	BYTE	W01
	BYTE		        c_v-31
	BYTE	W01
	BYTE		        c_v-29
	BYTE	W01
	BYTE		        c_v-28
	BYTE	W01
	BYTE		        c_v-27
	BYTE	W01
	BYTE		        c_v-25
	BYTE	W01
	BYTE		        c_v-24
	BYTE	W01
	BYTE		        c_v-23
	BYTE	W01
	BYTE		        c_v-21
	BYTE	W01
	BYTE		        c_v-20
	BYTE	W01
	BYTE		        c_v-19
	BYTE	W01
	BYTE		        c_v-17
	BYTE	W01
	BYTE		        c_v-16
	BYTE	W01
	BYTE		        c_v-15
	BYTE	W01
	BYTE		        c_v-13
	BYTE	W01
	BYTE		        c_v-12
	BYTE	W01
	BYTE		        c_v-11
	BYTE	W01
	BYTE		        c_v-9
	BYTE	W01
	BYTE		        c_v-8
	BYTE	W01
	BYTE		        c_v-7
	BYTE	W01
	BYTE		        c_v-5
	BYTE	W01
	BYTE		        c_v-4
	BYTE	W01
	BYTE		        c_v-3
	BYTE	W02
// 013   ----------------------------------------
	BYTE	PATT
	 POIN2	CastlevaniaOrderofEcclesiaStonesHoldaGrudgePsyche_4_011
	BYTE		EOT     Cn3 
// 014   ----------------------------------------
	BYTE		PAN     c_v-1
	BYTE		TIE     Cn3   v112
	BYTE	W01
	BYTE		PAN     c_v-2
	BYTE	W01
	BYTE		        c_v-3
	BYTE	W01
	BYTE		        c_v-5
	BYTE	W01
	BYTE		        c_v-6
	BYTE	W01
	BYTE		        c_v-8
	BYTE	W01
	BYTE		        c_v-9
	BYTE	W01
	BYTE		        c_v-10
	BYTE	W01
	BYTE		        c_v-12
	BYTE	W01
	BYTE		        c_v-13
	BYTE	W01
	BYTE		        c_v-14
	BYTE	W01
	BYTE		        c_v-16
	BYTE	W01
	BYTE		        c_v-17
	BYTE	W01
	BYTE		        c_v-18
	BYTE	W01
	BYTE		        c_v-20
	BYTE	W01
	BYTE		        c_v-21
	BYTE	W01
	BYTE		        c_v-22
	BYTE	W01
	BYTE		        c_v-24
	BYTE	W01
	BYTE		        c_v-25
	BYTE	W01
	BYTE		        c_v-26
	BYTE	W01
	BYTE		        c_v-28
	BYTE	W01
	BYTE		        c_v-29
	BYTE	W01
	BYTE		        c_v-30
	BYTE	W01
	BYTE		        c_v-32
	BYTE	W01
	BYTE		        c_v-33
	BYTE	W01
	BYTE		        c_v-34
	BYTE	W01
	BYTE		        c_v-36
	BYTE	W01
	BYTE		        c_v-37
	BYTE	W01
	BYTE		        c_v-38
	BYTE	W01
	BYTE		        c_v-40
	BYTE	W01
	BYTE		        c_v-41
	BYTE	W01
	BYTE		        c_v-43
	BYTE	W01
	BYTE		        c_v-44
	BYTE	W01
	BYTE		        c_v-45
	BYTE	W01
	BYTE		        c_v-47
	BYTE	W01
	BYTE		        c_v-48
	BYTE	W01
	BYTE		        c_v-49
	BYTE	W01
	BYTE		        c_v-51
	BYTE	W01
	BYTE		        c_v-52
	BYTE	W01
	BYTE		        c_v-53
	BYTE	W01
	BYTE		        c_v-55
	BYTE	W01
	BYTE		        c_v-56
	BYTE	W01
	BYTE		        c_v-57
	BYTE	W01
	BYTE		        c_v-59
	BYTE	W01
	BYTE		        c_v-60
	BYTE	W01
	BYTE		        c_v-61
	BYTE	W01
	BYTE		        c_v-63
	BYTE	W01
	BYTE		        c_v-64
	BYTE	W01
	BYTE		        c_v-64
	BYTE	W01
	BYTE		        c_v-63
	BYTE	W01
	BYTE		        c_v-62
	BYTE	W01
	BYTE		        c_v-60
	BYTE	W01
	BYTE		        c_v-59
	BYTE	W01
	BYTE		        c_v-58
	BYTE	W01
	BYTE		        c_v-56
	BYTE	W01
	BYTE		        c_v-55
	BYTE	W01
	BYTE		        c_v-54
	BYTE	W01
	BYTE		        c_v-52
	BYTE	W01
	BYTE		        c_v-51
	BYTE	W01
	BYTE		        c_v-50
	BYTE	W01
	BYTE		        c_v-48
	BYTE	W01
	BYTE		        c_v-47
	BYTE	W01
	BYTE		        c_v-46
	BYTE	W01
	BYTE		        c_v-44
	BYTE	W01
	BYTE		        c_v-43
	BYTE	W01
	BYTE		        c_v-42
	BYTE	W01
	BYTE		        c_v-40
	BYTE	W01
	BYTE		        c_v-39
	BYTE	W01
	BYTE		        c_v-38
	BYTE	W01
	BYTE		        c_v-36
	BYTE	W01
	BYTE		        c_v-35
	BYTE	W01
	BYTE		        c_v-34
	BYTE	W01
	BYTE		        c_v-32
	BYTE	W01
	BYTE		        c_v-31
	BYTE	W01
	BYTE		        c_v-29
	BYTE	W01
	BYTE		        c_v-28
	BYTE	W01
	BYTE		        c_v-27
	BYTE	W01
	BYTE		        c_v-25
	BYTE	W01
	BYTE		        c_v-24
	BYTE	W01
	BYTE		        c_v-23
	BYTE	W01
	BYTE		        c_v-21
	BYTE	W01
	BYTE		        c_v-20
	BYTE	W01
	BYTE		        c_v-19
	BYTE	W01
	BYTE		        c_v-17
	BYTE	W01
	BYTE		        c_v-16
	BYTE	W01
	BYTE		        c_v-15
	BYTE	W01
	BYTE		        c_v-13
	BYTE	W01
	BYTE		        c_v-12
	BYTE	W01
	BYTE		        c_v-11
	BYTE	W01
	BYTE		        c_v-9
	BYTE	W01
	BYTE		        c_v-8
	BYTE	W01
	BYTE		        c_v-7
	BYTE	W01
	BYTE		        c_v-5
	BYTE	W01
	BYTE		        c_v-4
	BYTE	W01
	BYTE		        c_v-3
	BYTE	W02
// 015   ----------------------------------------
	BYTE	PATT
	 POIN2	CastlevaniaOrderofEcclesiaStonesHoldaGrudgePsyche_4_003
// 016   ----------------------------------------
	BYTE	PATT
	 POIN2	CastlevaniaOrderofEcclesiaStonesHoldaGrudgePsyche_4_008
// 017   ----------------------------------------
	BYTE		PAN     c_v-1
	BYTE	W01
	BYTE		        c_v+0
	BYTE	W01
	BYTE		        c_v+1
	BYTE	W01
	BYTE		        c_v+3
	BYTE	W01
	BYTE		        c_v+4
	BYTE	W01
	BYTE		        c_v+6
	BYTE	W01
	BYTE		        c_v+7
	BYTE	W01
	BYTE		        c_v+8
	BYTE	W01
	BYTE		        c_v+10
	BYTE	W01
	BYTE		        c_v+11
	BYTE	W01
	BYTE		        c_v+12
	BYTE	W01
	BYTE		        c_v+14
	BYTE	W01
	BYTE		        c_v+15
	BYTE	W01
	BYTE		        c_v+16
	BYTE	W01
	BYTE		        c_v+18
	BYTE	W01
	BYTE		        c_v+19
	BYTE	W01
	BYTE		        c_v+20
	BYTE	W01
	BYTE		        c_v+22
	BYTE	W01
	BYTE		        c_v+23
	BYTE	W01
	BYTE		        c_v+24
	BYTE	W01
	BYTE		        c_v+26
	BYTE	W01
	BYTE		        c_v+27
	BYTE	W01
	BYTE		        c_v+28
	BYTE	W01
	BYTE		        c_v+30
	BYTE	W01
	BYTE		        c_v+31
	BYTE	W01
	BYTE		        c_v+32
	BYTE	W01
	BYTE		        c_v+34
	BYTE	W01
	BYTE		        c_v+35
	BYTE	W01
	BYTE		        c_v+36
	BYTE	W01
	BYTE		        c_v+38
	BYTE	W01
	BYTE		        c_v+39
	BYTE	W01
	BYTE		        c_v+41
	BYTE	W01
	BYTE		        c_v+42
	BYTE	W01
	BYTE		        c_v+43
	BYTE	W01
	BYTE		        c_v+45
	BYTE	W01
	BYTE		        c_v+46
	BYTE	W01
	BYTE		        c_v+47
	BYTE	W01
	BYTE		        c_v+49
	BYTE	W01
	BYTE		        c_v+50
	BYTE	W01
	BYTE		        c_v+51
	BYTE	W01
	BYTE		        c_v+53
	BYTE	W01
	BYTE		        c_v+54
	BYTE	W01
	BYTE		        c_v+55
	BYTE	W01
	BYTE		        c_v+57
	BYTE	W01
	BYTE		        c_v+58
	BYTE	W01
	BYTE		        c_v+59
	BYTE	W01
	BYTE		        c_v+61
	BYTE	W01
	BYTE		        c_v+63
	BYTE	W01
	BYTE		        c_v+60
	BYTE	W01
	BYTE		        c_v+58
	BYTE	W01
	BYTE		        c_v+57
	BYTE	W01
	BYTE		        c_v+56
	BYTE	W01
	BYTE		        c_v+54
	BYTE	W01
	BYTE		        c_v+53
	BYTE	W01
	BYTE		        c_v+52
	BYTE	W01
	BYTE		        c_v+51
	BYTE	W01
	BYTE		        c_v+49
	BYTE	W01
	BYTE		        c_v+48
	BYTE	W01
	BYTE		        c_v+47
	BYTE	W01
	BYTE		        c_v+46
	BYTE	W01
	BYTE		        c_v+44
	BYTE	W01
	BYTE		        c_v+43
	BYTE	W01
	BYTE		        c_v+42
	BYTE	W01
	BYTE		        c_v+40
	BYTE	W01
	BYTE		        c_v+39
	BYTE	W01
	BYTE		        c_v+38
	BYTE	W01
	BYTE		        c_v+37
	BYTE	W01
	BYTE		        c_v+35
	BYTE	W01
	BYTE		        c_v+34
	BYTE	W01
	BYTE		        c_v+33
	BYTE	W01
	BYTE		        c_v+31
	BYTE	W01
	BYTE		        c_v+30
	BYTE	W01
	BYTE		        c_v+29
	BYTE	W01
	BYTE		        c_v+28
	BYTE	W01
	BYTE		        c_v+26
	BYTE	W01
	BYTE		        c_v+25
	BYTE	W01
	BYTE		        c_v+24
	BYTE	W01
	BYTE		        c_v+23
	BYTE	W01
	BYTE		        c_v+21
	BYTE	W01
	BYTE		        c_v+20
	BYTE	W01
	BYTE		        c_v+19
	BYTE	W01
	BYTE		        c_v+17
	BYTE	W01
	BYTE		        c_v+16
	BYTE	W01
	BYTE		        c_v+15
	BYTE	W01
	BYTE		        c_v+14
	BYTE	W01
	BYTE		        c_v+12
	BYTE	W01
	BYTE		        c_v+11
	BYTE	W01
	BYTE		        c_v+10
	BYTE	W01
	BYTE		        c_v+8
	BYTE	W01
	BYTE		        c_v+7
	BYTE	W01
	BYTE		        c_v+6
	BYTE	W01
	BYTE		        c_v+5
	BYTE	W01
	BYTE		        c_v+3
	BYTE	W01
	BYTE		        c_v+2
	BYTE	W01
	BYTE		        c_v+1
	BYTE	W01
	BYTE		        c_v+0
	BYTE	W01
	BYTE		EOT     Cn3 
// 018   ----------------------------------------
	BYTE	W96
// 019   ----------------------------------------
	BYTE	W96
// 020   ----------------------------------------
	BYTE		PAN     c_v-2
	BYTE		TIE     An2   v112
	BYTE	W01
	BYTE		PAN     c_v-4
	BYTE	W01
	BYTE		        c_v-5
	BYTE	W01
	BYTE		        c_v-6
	BYTE	W01
	BYTE		        c_v-8
	BYTE	W01
	BYTE		        c_v-9
	BYTE	W01
	BYTE		        c_v-10
	BYTE	W01
	BYTE		        c_v-12
	BYTE	W01
	BYTE		        c_v-13
	BYTE	W01
	BYTE		        c_v-14
	BYTE	W01
	BYTE		        c_v-16
	BYTE	W01
	BYTE		        c_v-17
	BYTE	W01
	BYTE		        c_v-18
	BYTE	W01
	BYTE		        c_v-20
	BYTE	W01
	BYTE		        c_v-21
	BYTE	W01
	BYTE		        c_v-22
	BYTE	W01
	BYTE		        c_v-24
	BYTE	W01
	BYTE		        c_v-25
	BYTE	W01
	BYTE		        c_v-26
	BYTE	W01
	BYTE		        c_v-28
	BYTE	W01
	BYTE		        c_v-29
	BYTE	W01
	BYTE		        c_v-30
	BYTE	W01
	BYTE		        c_v-31
	BYTE	W01
	BYTE		        c_v-33
	BYTE	W01
	BYTE		        c_v-34
	BYTE	W01
	BYTE		        c_v-35
	BYTE	W01
	BYTE		        c_v-37
	BYTE	W01
	BYTE		        c_v-38
	BYTE	W01
	BYTE		        c_v-39
	BYTE	W01
	BYTE		        c_v-41
	BYTE	W01
	BYTE		        c_v-42
	BYTE	W01
	BYTE		        c_v-43
	BYTE	W01
	BYTE		        c_v-45
	BYTE	W01
	BYTE		        c_v-46
	BYTE	W01
	BYTE		        c_v-47
	BYTE	W01
	BYTE		        c_v-49
	BYTE	W01
	BYTE		        c_v-50
	BYTE	W01
	BYTE		        c_v-51
	BYTE	W01
	BYTE		        c_v-53
	BYTE	W01
	BYTE		        c_v-54
	BYTE	W01
	BYTE		        c_v-55
	BYTE	W01
	BYTE		        c_v-56
	BYTE	W01
	BYTE		        c_v-58
	BYTE	W01
	BYTE		        c_v-59
	BYTE	W01
	BYTE		        c_v-60
	BYTE	W01
	BYTE		        c_v-62
	BYTE	W01
	BYTE		        c_v-63
	BYTE	W01
	BYTE		        c_v-64
	BYTE	W01
	BYTE		        c_v-64
	BYTE	W01
	BYTE		        c_v-63
	BYTE	W01
	BYTE		        c_v-62
	BYTE	W01
	BYTE		        c_v-60
	BYTE	W01
	BYTE		        c_v-59
	BYTE	W01
	BYTE		        c_v-58
	BYTE	W01
	BYTE		        c_v-56
	BYTE	W01
	BYTE		        c_v-55
	BYTE	W01
	BYTE		        c_v-54
	BYTE	W01
	BYTE		        c_v-52
	BYTE	W01
	BYTE		        c_v-51
	BYTE	W01
	BYTE		        c_v-50
	BYTE	W01
	BYTE		        c_v-48
	BYTE	W01
	BYTE		        c_v-47
	BYTE	W01
	BYTE		        c_v-46
	BYTE	W01
	BYTE		        c_v-44
	BYTE	W01
	BYTE		        c_v-43
	BYTE	W01
	BYTE		        c_v-42
	BYTE	W01
	BYTE		        c_v-40
	BYTE	W01
	BYTE		        c_v-39
	BYTE	W01
	BYTE		        c_v-38
	BYTE	W01
	BYTE		        c_v-36
	BYTE	W01
	BYTE		        c_v-35
	BYTE	W01
	BYTE		        c_v-34
	BYTE	W01
	BYTE		        c_v-32
	BYTE	W01
	BYTE		        c_v-31
	BYTE	W01
	BYTE		        c_v-29
	BYTE	W01
	BYTE		        c_v-28
	BYTE	W01
	BYTE		        c_v-27
	BYTE	W01
	BYTE		        c_v-25
	BYTE	W01
	BYTE		        c_v-24
	BYTE	W01
	BYTE		        c_v-23
	BYTE	W01
	BYTE		        c_v-21
	BYTE	W01
	BYTE		        c_v-20
	BYTE	W01
	BYTE		        c_v-19
	BYTE	W01
	BYTE		        c_v-17
	BYTE	W01
	BYTE		        c_v-16
	BYTE	W01
	BYTE		        c_v-15
	BYTE	W01
	BYTE		        c_v-13
	BYTE	W01
	BYTE		        c_v-12
	BYTE	W01
	BYTE		        c_v-11
	BYTE	W01
	BYTE		        c_v-9
	BYTE	W01
	BYTE		        c_v-8
	BYTE	W01
	BYTE		        c_v-7
	BYTE	W01
	BYTE		        c_v-5
	BYTE	W01
	BYTE		        c_v-4
	BYTE	W01
	BYTE		        c_v-3
	BYTE	W02
// 021   ----------------------------------------
	BYTE		        c_v-1
	BYTE	W01
	BYTE		        c_v+0
	BYTE	W01
	BYTE		        c_v+1
	BYTE	W01
	BYTE		        c_v+3
	BYTE	W01
	BYTE		        c_v+4
	BYTE	W01
	BYTE		        c_v+6
	BYTE	W01
	BYTE		        c_v+7
	BYTE	W01
	BYTE		        c_v+8
	BYTE	W01
	BYTE		        c_v+10
	BYTE	W01
	BYTE		        c_v+11
	BYTE	W01
	BYTE		        c_v+12
	BYTE	W01
	BYTE		        c_v+14
	BYTE	W01
	BYTE		        c_v+15
	BYTE	W01
	BYTE		        c_v+16
	BYTE	W01
	BYTE		        c_v+18
	BYTE	W01
	BYTE		        c_v+19
	BYTE	W01
	BYTE		        c_v+20
	BYTE	W01
	BYTE		        c_v+22
	BYTE	W01
	BYTE		        c_v+23
	BYTE	W01
	BYTE		        c_v+24
	BYTE	W01
	BYTE		        c_v+26
	BYTE	W01
	BYTE		        c_v+27
	BYTE	W01
	BYTE		        c_v+28
	BYTE	W01
	BYTE		        c_v+30
	BYTE	W01
	BYTE		        c_v+31
	BYTE	W01
	BYTE		        c_v+32
	BYTE	W01
	BYTE		        c_v+34
	BYTE	W01
	BYTE		        c_v+35
	BYTE	W01
	BYTE		        c_v+36
	BYTE	W01
	BYTE		        c_v+38
	BYTE	W01
	BYTE		        c_v+39
	BYTE	W01
	BYTE		        c_v+41
	BYTE	W01
	BYTE		        c_v+42
	BYTE	W01
	BYTE		        c_v+43
	BYTE	W01
	BYTE		        c_v+45
	BYTE	W01
	BYTE		        c_v+46
	BYTE	W01
	BYTE		        c_v+47
	BYTE	W01
	BYTE		        c_v+49
	BYTE	W01
	BYTE		        c_v+50
	BYTE	W01
	BYTE		        c_v+51
	BYTE	W01
	BYTE		        c_v+53
	BYTE	W01
	BYTE		        c_v+54
	BYTE	W01
	BYTE		        c_v+55
	BYTE	W01
	BYTE		        c_v+57
	BYTE	W01
	BYTE		        c_v+58
	BYTE	W01
	BYTE		        c_v+59
	BYTE	W01
	BYTE		        c_v+61
	BYTE	W01
	BYTE		        c_v+63
	BYTE	W01
	BYTE		        c_v+62
	BYTE	W01
	BYTE		        c_v+60
	BYTE	W01
	BYTE		        c_v+59
	BYTE	W01
	BYTE		        c_v+58
	BYTE	W01
	BYTE		        c_v+56
	BYTE	W01
	BYTE		        c_v+55
	BYTE	W01
	BYTE		        c_v+54
	BYTE	W01
	BYTE		        c_v+52
	BYTE	W01
	BYTE		        c_v+51
	BYTE	W01
	BYTE		        c_v+50
	BYTE	W01
	BYTE		        c_v+48
	BYTE	W01
	BYTE		        c_v+47
	BYTE	W01
	BYTE		        c_v+46
	BYTE	W01
	BYTE		        c_v+44
	BYTE	W01
	BYTE		        c_v+43
	BYTE	W01
	BYTE		        c_v+42
	BYTE	W01
	BYTE		        c_v+40
	BYTE	W01
	BYTE		        c_v+39
	BYTE	W01
	BYTE		        c_v+38
	BYTE	W01
	BYTE		        c_v+36
	BYTE	W01
	BYTE		        c_v+35
	BYTE	W01
	BYTE		        c_v+34
	BYTE	W01
	BYTE		        c_v+33
	BYTE	W01
	BYTE		        c_v+31
	BYTE	W01
	BYTE		        c_v+30
	BYTE	W01
	BYTE		        c_v+29
	BYTE	W01
	BYTE		        c_v+27
	BYTE	W01
	BYTE		        c_v+26
	BYTE	W01
	BYTE		        c_v+25
	BYTE	W01
	BYTE		        c_v+23
	BYTE	W01
	BYTE		        c_v+22
	BYTE	W01
	BYTE		        c_v+21
	BYTE	W01
	BYTE		        c_v+19
	BYTE	W01
	BYTE		        c_v+18
	BYTE	W01
	BYTE		        c_v+17
	BYTE	W01
	BYTE		        c_v+15
	BYTE	W01
	BYTE		        c_v+14
	BYTE	W01
	BYTE		        c_v+13
	BYTE	W01
	BYTE		        c_v+11
	BYTE	W01
	BYTE		        c_v+10
	BYTE	W01
	BYTE		        c_v+9
	BYTE	W01
	BYTE		        c_v+8
	BYTE	W01
	BYTE		        c_v+6
	BYTE	W01
	BYTE		        c_v+5
	BYTE	W01
	BYTE		        c_v+4
	BYTE	W01
	BYTE		        c_v+2
	BYTE	W01
	BYTE		        c_v+1
	BYTE	W02
	BYTE		EOT   
	BYTE	GoTo
	 POIN2	CastlevaniaOrderofEcclesiaStonesHoldaGrudgePsyche_4_B1
CastlevaniaOrderofEcclesiaStonesHoldaGrudgePsyche_4_B2:
// 022   ----------------------------------------
	BYTE	FINE

//**************** Track 5 (Midi-Chn.5) ****************//

CastlevaniaOrderofEcclesiaStonesHoldaGrudgePsyche_5:
	BYTE	KEYSH   CastlevaniaOrderofEcclesiaStonesHoldaGrudgePsyche_key+0
CastlevaniaOrderofEcclesiaStonesHoldaGrudgePsyche_5_B1:
// 000   ----------------------------------------
	BYTE		VOICE   11
	BYTE		VOL     42*CastlevaniaOrderofEcclesiaStonesHoldaGrudgePsyche_mvl/mxv
	BYTE		PAN     c_v+0
	BYTE		MOD     0
	BYTE		N05     An4   v104
	BYTE	W06
	BYTE		        An3 
	BYTE	W06
	BYTE		        Dn4 
	BYTE	W06
	BYTE		        En4 
	BYTE	W06
	BYTE		        An4 
	BYTE	W06
	BYTE		        Dn4 
	BYTE	W06
	BYTE		        En4 
	BYTE	W06
	BYTE		        Cn5 
	BYTE	W06
	BYTE		        Bn4 
	BYTE	W06
	BYTE		        Dn4 
	BYTE	W06
	BYTE		        En4 
	BYTE	W06
	BYTE		        Gn4 
	BYTE	W06
	BYTE		        Dn5 
	BYTE	W06
	BYTE		        An4 
	BYTE	W06
	BYTE		        Bn4 
	BYTE	W06
	BYTE		        En5 
	BYTE	W06
// 001   ----------------------------------------
CastlevaniaOrderofEcclesiaStonesHoldaGrudgePsyche_5_001:
	BYTE		N05     An4   v104
	BYTE	W06
	BYTE		        An3 
	BYTE	W06
	BYTE		        Dn4 
	BYTE	W06
	BYTE		        En4 
	BYTE	W06
	BYTE		        An4 
	BYTE	W06
	BYTE		        Dn4 
	BYTE	W06
	BYTE		        En4 
	BYTE	W06
	BYTE		        Cn5 
	BYTE	W06
	BYTE		        Bn4 
	BYTE	W06
	BYTE		        Dn4 
	BYTE	W06
	BYTE		        En4 
	BYTE	W06
	BYTE		        Gn4 
	BYTE	W06
	BYTE		        Dn5 
	BYTE	W06
	BYTE		        An4 
	BYTE	W06
	BYTE		        Bn4 
	BYTE	W06
	BYTE		        En5 
	BYTE	W06
	BYTE	PEND
// 002   ----------------------------------------
	BYTE	PATT
	 POIN2	CastlevaniaOrderofEcclesiaStonesHoldaGrudgePsyche_5_001
// 003   ----------------------------------------
	BYTE	PATT
	 POIN2	CastlevaniaOrderofEcclesiaStonesHoldaGrudgePsyche_5_001
// 004   ----------------------------------------
	BYTE	PATT
	 POIN2	CastlevaniaOrderofEcclesiaStonesHoldaGrudgePsyche_5_001
// 005   ----------------------------------------
	BYTE	PATT
	 POIN2	CastlevaniaOrderofEcclesiaStonesHoldaGrudgePsyche_5_001
// 006   ----------------------------------------
	BYTE	PATT
	 POIN2	CastlevaniaOrderofEcclesiaStonesHoldaGrudgePsyche_5_001
// 007   ----------------------------------------
	BYTE	PATT
	 POIN2	CastlevaniaOrderofEcclesiaStonesHoldaGrudgePsyche_5_001
// 008   ----------------------------------------
	BYTE	PATT
	 POIN2	CastlevaniaOrderofEcclesiaStonesHoldaGrudgePsyche_5_001
// 009   ----------------------------------------
	BYTE	PATT
	 POIN2	CastlevaniaOrderofEcclesiaStonesHoldaGrudgePsyche_5_001
// 010   ----------------------------------------
CastlevaniaOrderofEcclesiaStonesHoldaGrudgePsyche_5_010:
	BYTE		N05     Cn5   v104
	BYTE	W06
	BYTE		        Cn4 
	BYTE	W06
	BYTE		        Fn4 
	BYTE	W06
	BYTE		        Gn4 
	BYTE	W06
	BYTE		        Cn5 
	BYTE	W06
	BYTE		        Fn4 
	BYTE	W06
	BYTE		        Gn4 
	BYTE	W06
	BYTE		        Ds5 
	BYTE	W06
	BYTE		        Dn5 
	BYTE	W06
	BYTE		        Fn4 
	BYTE	W06
	BYTE		        Gn4 
	BYTE	W06
	BYTE		        As4 
	BYTE	W06
	BYTE		        Fn5 
	BYTE	W06
	BYTE		        Cn5 
	BYTE	W06
	BYTE		        Dn5 
	BYTE	W06
	BYTE		        Gn5 
	BYTE	W06
	BYTE	PEND
// 011   ----------------------------------------
	BYTE	PATT
	 POIN2	CastlevaniaOrderofEcclesiaStonesHoldaGrudgePsyche_5_010
// 012   ----------------------------------------
	BYTE	PATT
	 POIN2	CastlevaniaOrderofEcclesiaStonesHoldaGrudgePsyche_5_010
// 013   ----------------------------------------
	BYTE	PATT
	 POIN2	CastlevaniaOrderofEcclesiaStonesHoldaGrudgePsyche_5_010
// 014   ----------------------------------------
	BYTE	PATT
	 POIN2	CastlevaniaOrderofEcclesiaStonesHoldaGrudgePsyche_5_010
// 015   ----------------------------------------
	BYTE	PATT
	 POIN2	CastlevaniaOrderofEcclesiaStonesHoldaGrudgePsyche_5_010
// 016   ----------------------------------------
	BYTE	PATT
	 POIN2	CastlevaniaOrderofEcclesiaStonesHoldaGrudgePsyche_5_010
// 017   ----------------------------------------
	BYTE	PATT
	 POIN2	CastlevaniaOrderofEcclesiaStonesHoldaGrudgePsyche_5_010
// 018   ----------------------------------------
	BYTE	PATT
	 POIN2	CastlevaniaOrderofEcclesiaStonesHoldaGrudgePsyche_5_001
// 019   ----------------------------------------
	BYTE	PATT
	 POIN2	CastlevaniaOrderofEcclesiaStonesHoldaGrudgePsyche_5_001
// 020   ----------------------------------------
	BYTE	PATT
	 POIN2	CastlevaniaOrderofEcclesiaStonesHoldaGrudgePsyche_5_001
// 021   ----------------------------------------
	BYTE	PATT
	 POIN2	CastlevaniaOrderofEcclesiaStonesHoldaGrudgePsyche_5_001
	BYTE	GoTo
	 POIN2	CastlevaniaOrderofEcclesiaStonesHoldaGrudgePsyche_5_B1
CastlevaniaOrderofEcclesiaStonesHoldaGrudgePsyche_5_B2:
// 022   ----------------------------------------
	BYTE	FINE

//**************** Track 6 (Midi-Chn.6) ****************//

CastlevaniaOrderofEcclesiaStonesHoldaGrudgePsyche_6:
	BYTE	KEYSH   CastlevaniaOrderofEcclesiaStonesHoldaGrudgePsyche_key+0
CastlevaniaOrderofEcclesiaStonesHoldaGrudgePsyche_6_B1:
// 000   ----------------------------------------
	BYTE		VOICE   11
	BYTE		VOL     33*CastlevaniaOrderofEcclesiaStonesHoldaGrudgePsyche_mvl/mxv
	BYTE		PAN     c_v-50
	BYTE		MOD     0
	BYTE	W05
	BYTE		N05     An4   v104
	BYTE	W06
	BYTE		        An3 
	BYTE	W06
	BYTE		        Dn4 
	BYTE	W06
	BYTE		        En4 
	BYTE	W06
	BYTE		        An4 
	BYTE	W06
	BYTE		        Dn4 
	BYTE	W06
	BYTE		        En4 
	BYTE	W06
	BYTE		        Cn5 
	BYTE	W06
	BYTE		        Bn4 
	BYTE	W06
	BYTE		        Dn4 
	BYTE	W06
	BYTE		        En4 
	BYTE	W06
	BYTE		        Gn4 
	BYTE	W06
	BYTE		        Dn5 
	BYTE	W06
	BYTE		        An4 
	BYTE	W06
	BYTE		        Bn4 
	BYTE	W06
	BYTE		        En5 
	BYTE	W01
// 001   ----------------------------------------
CastlevaniaOrderofEcclesiaStonesHoldaGrudgePsyche_6_001:
	BYTE	W05
	BYTE		N05     An4   v104
	BYTE	W06
	BYTE		        An3 
	BYTE	W06
	BYTE		        Dn4 
	BYTE	W06
	BYTE		        En4 
	BYTE	W06
	BYTE		        An4 
	BYTE	W06
	BYTE		        Dn4 
	BYTE	W06
	BYTE		        En4 
	BYTE	W06
	BYTE		        Cn5 
	BYTE	W06
	BYTE		        Bn4 
	BYTE	W06
	BYTE		        Dn4 
	BYTE	W06
	BYTE		        En4 
	BYTE	W06
	BYTE		        Gn4 
	BYTE	W06
	BYTE		        Dn5 
	BYTE	W06
	BYTE		        An4 
	BYTE	W06
	BYTE		        Bn4 
	BYTE	W06
	BYTE		        En5 
	BYTE	W01
	BYTE	PEND
// 002   ----------------------------------------
	BYTE	PATT
	 POIN2	CastlevaniaOrderofEcclesiaStonesHoldaGrudgePsyche_6_001
// 003   ----------------------------------------
	BYTE	PATT
	 POIN2	CastlevaniaOrderofEcclesiaStonesHoldaGrudgePsyche_6_001
// 004   ----------------------------------------
	BYTE	PATT
	 POIN2	CastlevaniaOrderofEcclesiaStonesHoldaGrudgePsyche_6_001
// 005   ----------------------------------------
	BYTE	W05
	BYTE		N05     An4   v104
	BYTE	W06
	BYTE		        An3 
	BYTE	W06
	BYTE		        Dn4 
	BYTE	W06
	BYTE		        En4 
	BYTE	W06
	BYTE		        An4 
	BYTE	W06
	BYTE		        Dn4 
	BYTE	W06
	BYTE		        En4 
	BYTE	W06
	BYTE		        Cn5 
	BYTE	W06
	BYTE		        Bn4 
	BYTE	W06
	BYTE		        Dn4 
	BYTE	W06
	BYTE		        En4 
	BYTE	W06
	BYTE		        Gn4 
	BYTE	W06
	BYTE		        Dn5 
	BYTE	W06
	BYTE		        An4 
	BYTE	W06
	BYTE		        Bn4 
	BYTE	W06
	BYTE		N02     En5 
	BYTE	W01
// 006   ----------------------------------------
	BYTE	PATT
	 POIN2	CastlevaniaOrderofEcclesiaStonesHoldaGrudgePsyche_6_001
// 007   ----------------------------------------
	BYTE	PATT
	 POIN2	CastlevaniaOrderofEcclesiaStonesHoldaGrudgePsyche_6_001
// 008   ----------------------------------------
	BYTE	PATT
	 POIN2	CastlevaniaOrderofEcclesiaStonesHoldaGrudgePsyche_6_001
// 009   ----------------------------------------
CastlevaniaOrderofEcclesiaStonesHoldaGrudgePsyche_6_009:
	BYTE	W05
	BYTE		N05     An4   v104
	BYTE	W06
	BYTE		        An3 
	BYTE	W06
	BYTE		        Dn4 
	BYTE	W06
	BYTE		        En4 
	BYTE	W06
	BYTE		        An4 
	BYTE	W06
	BYTE		        Dn4 
	BYTE	W06
	BYTE		        En4 
	BYTE	W06
	BYTE		        Cn5 
	BYTE	W06
	BYTE		        Bn4 
	BYTE	W06
	BYTE		        Dn4 
	BYTE	W06
	BYTE		        En4 
	BYTE	W06
	BYTE		        Gn4 
	BYTE	W06
	BYTE		        Dn5 
	BYTE	W06
	BYTE		        An4 
	BYTE	W06
	BYTE		        Bn4 
	BYTE	W06
	BYTE		N01     En5 
	BYTE	W01
	BYTE	PEND
// 010   ----------------------------------------
CastlevaniaOrderofEcclesiaStonesHoldaGrudgePsyche_6_010:
	BYTE	W05
	BYTE		N05     Cn5   v104
	BYTE	W06
	BYTE		        Cn4 
	BYTE	W06
	BYTE		        Fn4 
	BYTE	W06
	BYTE		        Gn4 
	BYTE	W06
	BYTE		        Cn5 
	BYTE	W06
	BYTE		        Fn4 
	BYTE	W06
	BYTE		        Gn4 
	BYTE	W06
	BYTE		        Ds5 
	BYTE	W06
	BYTE		        Dn5 
	BYTE	W06
	BYTE		        Fn4 
	BYTE	W06
	BYTE		        Gn4 
	BYTE	W06
	BYTE		        As4 
	BYTE	W06
	BYTE		        Fn5 
	BYTE	W06
	BYTE		        Cn5 
	BYTE	W06
	BYTE		        Dn5 
	BYTE	W06
	BYTE		        Gn5 
	BYTE	W01
	BYTE	PEND
// 011   ----------------------------------------
	BYTE	PATT
	 POIN2	CastlevaniaOrderofEcclesiaStonesHoldaGrudgePsyche_6_010
// 012   ----------------------------------------
	BYTE	PATT
	 POIN2	CastlevaniaOrderofEcclesiaStonesHoldaGrudgePsyche_6_010
// 013   ----------------------------------------
	BYTE	W05
	BYTE		N05     Cn5   v104
	BYTE	W06
	BYTE		        Cn4 
	BYTE	W06
	BYTE		        Fn4 
	BYTE	W06
	BYTE		        Gn4 
	BYTE	W06
	BYTE		        Cn5 
	BYTE	W06
	BYTE		        Fn4 
	BYTE	W06
	BYTE		        Gn4 
	BYTE	W06
	BYTE		        Ds5 
	BYTE	W06
	BYTE		        Dn5 
	BYTE	W06
	BYTE		        Fn4 
	BYTE	W06
	BYTE		        Gn4 
	BYTE	W06
	BYTE		        As4 
	BYTE	W06
	BYTE		        Fn5 
	BYTE	W06
	BYTE		        Cn5 
	BYTE	W06
	BYTE		        Dn5 
	BYTE	W06
	BYTE		N02     Gn5 
	BYTE	W01
// 014   ----------------------------------------
	BYTE	PATT
	 POIN2	CastlevaniaOrderofEcclesiaStonesHoldaGrudgePsyche_6_010
// 015   ----------------------------------------
	BYTE	PATT
	 POIN2	CastlevaniaOrderofEcclesiaStonesHoldaGrudgePsyche_6_010
// 016   ----------------------------------------
	BYTE	PATT
	 POIN2	CastlevaniaOrderofEcclesiaStonesHoldaGrudgePsyche_6_010
// 017   ----------------------------------------
	BYTE	W05
	BYTE		N05     Cn5   v104
	BYTE	W06
	BYTE		        Cn4 
	BYTE	W06
	BYTE		        Fn4 
	BYTE	W06
	BYTE		        Gn4 
	BYTE	W06
	BYTE		        Cn5 
	BYTE	W06
	BYTE		        Fn4 
	BYTE	W06
	BYTE		        Gn4 
	BYTE	W06
	BYTE		        Ds5 
	BYTE	W06
	BYTE		        Dn5 
	BYTE	W06
	BYTE		        Fn4 
	BYTE	W06
	BYTE		        Gn4 
	BYTE	W06
	BYTE		        As4 
	BYTE	W06
	BYTE		        Fn5 
	BYTE	W06
	BYTE		        Cn5 
	BYTE	W06
	BYTE		        Dn5 
	BYTE	W06
	BYTE		N01     Gn5 
	BYTE	W01
// 018   ----------------------------------------
	BYTE	PATT
	 POIN2	CastlevaniaOrderofEcclesiaStonesHoldaGrudgePsyche_6_001
// 019   ----------------------------------------
	BYTE	PATT
	 POIN2	CastlevaniaOrderofEcclesiaStonesHoldaGrudgePsyche_6_009
// 020   ----------------------------------------
	BYTE	PATT
	 POIN2	CastlevaniaOrderofEcclesiaStonesHoldaGrudgePsyche_6_001
// 021   ----------------------------------------
	BYTE	PATT
	 POIN2	CastlevaniaOrderofEcclesiaStonesHoldaGrudgePsyche_6_009
	BYTE	GoTo
	 POIN2	CastlevaniaOrderofEcclesiaStonesHoldaGrudgePsyche_6_B1
CastlevaniaOrderofEcclesiaStonesHoldaGrudgePsyche_6_B2:
// 022   ----------------------------------------
	BYTE	FINE

//**************** Track 7 (Midi-Chn.7) ****************//

CastlevaniaOrderofEcclesiaStonesHoldaGrudgePsyche_7:
	BYTE	KEYSH   CastlevaniaOrderofEcclesiaStonesHoldaGrudgePsyche_key+0
CastlevaniaOrderofEcclesiaStonesHoldaGrudgePsyche_7_B1:
// 000   ----------------------------------------
	BYTE		VOICE   11
	BYTE		VOL     22*CastlevaniaOrderofEcclesiaStonesHoldaGrudgePsyche_mvl/mxv
	BYTE		PAN     c_v+50
	BYTE		MOD     0
	BYTE	W10
	BYTE		N05     An4   v104
	BYTE	W06
	BYTE		        An3 
	BYTE	W06
	BYTE		        Dn4 
	BYTE	W06
	BYTE		        En4 
	BYTE	W06
	BYTE		        An4 
	BYTE	W06
	BYTE		        Dn4 
	BYTE	W06
	BYTE		        En4 
	BYTE	W06
	BYTE		        Cn5 
	BYTE	W06
	BYTE		        Bn4 
	BYTE	W06
	BYTE		        Dn4 
	BYTE	W06
	BYTE		        En4 
	BYTE	W06
	BYTE		        Gn4 
	BYTE	W06
	BYTE		        Dn5 
	BYTE	W06
	BYTE		        An4 
	BYTE	W06
	BYTE		        Bn4 
	BYTE	W02
// 001   ----------------------------------------
CastlevaniaOrderofEcclesiaStonesHoldaGrudgePsyche_7_001:
	BYTE	W04
	BYTE		N05     En5   v104
	BYTE	W06
	BYTE		        An4 
	BYTE	W06
	BYTE		        An3 
	BYTE	W06
	BYTE		        Dn4 
	BYTE	W06
	BYTE		        En4 
	BYTE	W06
	BYTE		        An4 
	BYTE	W06
	BYTE		        Dn4 
	BYTE	W06
	BYTE		        En4 
	BYTE	W06
	BYTE		        Cn5 
	BYTE	W06
	BYTE		        Bn4 
	BYTE	W06
	BYTE		        Dn4 
	BYTE	W06
	BYTE		        En4 
	BYTE	W06
	BYTE		        Gn4 
	BYTE	W06
	BYTE		        Dn5 
	BYTE	W06
	BYTE		        An4 
	BYTE	W06
	BYTE		        Bn4 
	BYTE	W02
	BYTE	PEND
// 002   ----------------------------------------
	BYTE	PATT
	 POIN2	CastlevaniaOrderofEcclesiaStonesHoldaGrudgePsyche_7_001
// 003   ----------------------------------------
	BYTE	PATT
	 POIN2	CastlevaniaOrderofEcclesiaStonesHoldaGrudgePsyche_7_001
// 004   ----------------------------------------
	BYTE	PATT
	 POIN2	CastlevaniaOrderofEcclesiaStonesHoldaGrudgePsyche_7_001
// 005   ----------------------------------------
	BYTE	W04
	BYTE		N05     En5   v104
	BYTE	W06
	BYTE		        An4 
	BYTE	W06
	BYTE		        An3 
	BYTE	W06
	BYTE		        Dn4 
	BYTE	W06
	BYTE		        En4 
	BYTE	W06
	BYTE		        An4 
	BYTE	W06
	BYTE		        Dn4 
	BYTE	W06
	BYTE		        En4 
	BYTE	W06
	BYTE		        Cn5 
	BYTE	W06
	BYTE		        Bn4 
	BYTE	W06
	BYTE		        Dn4 
	BYTE	W06
	BYTE		        En4 
	BYTE	W06
	BYTE		        Gn4 
	BYTE	W06
	BYTE		        Dn5 
	BYTE	W06
	BYTE		        An4 
	BYTE	W06
	BYTE		N03     Bn4 
	BYTE	W02
// 006   ----------------------------------------
	BYTE	PATT
	 POIN2	CastlevaniaOrderofEcclesiaStonesHoldaGrudgePsyche_7_001
// 007   ----------------------------------------
	BYTE	PATT
	 POIN2	CastlevaniaOrderofEcclesiaStonesHoldaGrudgePsyche_7_001
// 008   ----------------------------------------
	BYTE	PATT
	 POIN2	CastlevaniaOrderofEcclesiaStonesHoldaGrudgePsyche_7_001
// 009   ----------------------------------------
CastlevaniaOrderofEcclesiaStonesHoldaGrudgePsyche_7_009:
	BYTE	W04
	BYTE		N05     En5   v104
	BYTE	W06
	BYTE		        An4 
	BYTE	W06
	BYTE		        An3 
	BYTE	W06
	BYTE		        Dn4 
	BYTE	W06
	BYTE		        En4 
	BYTE	W06
	BYTE		        An4 
	BYTE	W06
	BYTE		        Dn4 
	BYTE	W06
	BYTE		        En4 
	BYTE	W06
	BYTE		        Cn5 
	BYTE	W06
	BYTE		        Bn4 
	BYTE	W06
	BYTE		        Dn4 
	BYTE	W06
	BYTE		        En4 
	BYTE	W06
	BYTE		        Gn4 
	BYTE	W06
	BYTE		        Dn5 
	BYTE	W06
	BYTE		        An4 
	BYTE	W06
	BYTE		N02     Bn4 
	BYTE	W02
	BYTE	PEND
// 010   ----------------------------------------
CastlevaniaOrderofEcclesiaStonesHoldaGrudgePsyche_7_010:
	BYTE	W04
	BYTE		N05     Gn5   v104
	BYTE	W06
	BYTE		        Cn5 
	BYTE	W06
	BYTE		        Cn4 
	BYTE	W06
	BYTE		        Fn4 
	BYTE	W06
	BYTE		        Gn4 
	BYTE	W06
	BYTE		        Cn5 
	BYTE	W06
	BYTE		        Fn4 
	BYTE	W06
	BYTE		        Gn4 
	BYTE	W06
	BYTE		        Ds5 
	BYTE	W06
	BYTE		        Dn5 
	BYTE	W06
	BYTE		        Fn4 
	BYTE	W06
	BYTE		        Gn4 
	BYTE	W06
	BYTE		        As4 
	BYTE	W06
	BYTE		        Fn5 
	BYTE	W06
	BYTE		        Cn5 
	BYTE	W06
	BYTE		        Dn5 
	BYTE	W02
	BYTE	PEND
// 011   ----------------------------------------
	BYTE	PATT
	 POIN2	CastlevaniaOrderofEcclesiaStonesHoldaGrudgePsyche_7_010
// 012   ----------------------------------------
	BYTE	PATT
	 POIN2	CastlevaniaOrderofEcclesiaStonesHoldaGrudgePsyche_7_010
// 013   ----------------------------------------
	BYTE	W04
	BYTE		N05     Gn5   v104
	BYTE	W06
	BYTE		        Cn5 
	BYTE	W06
	BYTE		        Cn4 
	BYTE	W06
	BYTE		        Fn4 
	BYTE	W06
	BYTE		        Gn4 
	BYTE	W06
	BYTE		        Cn5 
	BYTE	W06
	BYTE		        Fn4 
	BYTE	W06
	BYTE		        Gn4 
	BYTE	W06
	BYTE		        Ds5 
	BYTE	W06
	BYTE		        Dn5 
	BYTE	W06
	BYTE		        Fn4 
	BYTE	W06
	BYTE		        Gn4 
	BYTE	W06
	BYTE		        As4 
	BYTE	W06
	BYTE		        Fn5 
	BYTE	W06
	BYTE		        Cn5 
	BYTE	W06
	BYTE		N03     Dn5 
	BYTE	W02
// 014   ----------------------------------------
	BYTE	PATT
	 POIN2	CastlevaniaOrderofEcclesiaStonesHoldaGrudgePsyche_7_010
// 015   ----------------------------------------
	BYTE	PATT
	 POIN2	CastlevaniaOrderofEcclesiaStonesHoldaGrudgePsyche_7_010
// 016   ----------------------------------------
	BYTE	PATT
	 POIN2	CastlevaniaOrderofEcclesiaStonesHoldaGrudgePsyche_7_010
// 017   ----------------------------------------
	BYTE	W04
	BYTE		N05     Gn5   v104
	BYTE	W06
	BYTE		        Cn5 
	BYTE	W06
	BYTE		        Cn4 
	BYTE	W06
	BYTE		        Fn4 
	BYTE	W06
	BYTE		        Gn4 
	BYTE	W06
	BYTE		        Cn5 
	BYTE	W06
	BYTE		        Fn4 
	BYTE	W06
	BYTE		        Gn4 
	BYTE	W06
	BYTE		        Ds5 
	BYTE	W06
	BYTE		        Dn5 
	BYTE	W06
	BYTE		        Fn4 
	BYTE	W06
	BYTE		        Gn4 
	BYTE	W06
	BYTE		        As4 
	BYTE	W06
	BYTE		        Fn5 
	BYTE	W06
	BYTE		        Cn5 
	BYTE	W06
	BYTE		N02     Dn5 
	BYTE	W02
// 018   ----------------------------------------
CastlevaniaOrderofEcclesiaStonesHoldaGrudgePsyche_7_018:
	BYTE	W10
	BYTE		N05     An4   v104
	BYTE	W06
	BYTE		        An3 
	BYTE	W06
	BYTE		        Dn4 
	BYTE	W06
	BYTE		        En4 
	BYTE	W06
	BYTE		        An4 
	BYTE	W06
	BYTE		        Dn4 
	BYTE	W06
	BYTE		        En4 
	BYTE	W06
	BYTE		        Cn5 
	BYTE	W06
	BYTE		        Bn4 
	BYTE	W06
	BYTE		        Dn4 
	BYTE	W06
	BYTE		        En4 
	BYTE	W06
	BYTE		        Gn4 
	BYTE	W06
	BYTE		        Dn5 
	BYTE	W06
	BYTE		        An4 
	BYTE	W06
	BYTE		        Bn4 
	BYTE	W02
	BYTE	PEND
// 019   ----------------------------------------
	BYTE	PATT
	 POIN2	CastlevaniaOrderofEcclesiaStonesHoldaGrudgePsyche_7_009
// 020   ----------------------------------------
	BYTE	PATT
	 POIN2	CastlevaniaOrderofEcclesiaStonesHoldaGrudgePsyche_7_018
// 021   ----------------------------------------
	BYTE	PATT
	 POIN2	CastlevaniaOrderofEcclesiaStonesHoldaGrudgePsyche_7_009
	BYTE	GoTo
	 POIN2	CastlevaniaOrderofEcclesiaStonesHoldaGrudgePsyche_7_B1
CastlevaniaOrderofEcclesiaStonesHoldaGrudgePsyche_7_B2:
// 022   ----------------------------------------
	BYTE	FINE

//**************** Track 8 (Midi-Chn.8) ****************//

CastlevaniaOrderofEcclesiaStonesHoldaGrudgePsyche_8:
	BYTE	KEYSH   CastlevaniaOrderofEcclesiaStonesHoldaGrudgePsyche_key+0
CastlevaniaOrderofEcclesiaStonesHoldaGrudgePsyche_8_B1:
// 000   ----------------------------------------
	BYTE		VOICE   11
	BYTE		VOL     11*CastlevaniaOrderofEcclesiaStonesHoldaGrudgePsyche_mvl/mxv
	BYTE		PAN     c_v+0
	BYTE		MOD     0
	BYTE	W18
	BYTE		N05     An4   v104
	BYTE	W06
	BYTE		        An3 
	BYTE	W06
	BYTE		        Dn4 
	BYTE	W06
	BYTE		        En4 
	BYTE	W06
	BYTE		        An4 
	BYTE	W06
	BYTE		        Dn4 
	BYTE	W06
	BYTE		        En4 
	BYTE	W06
	BYTE		        Cn5 
	BYTE	W06
	BYTE		        Bn4 
	BYTE	W06
	BYTE		        Dn4 
	BYTE	W06
	BYTE		        En4 
	BYTE	W06
	BYTE		        Gn4 
	BYTE	W06
	BYTE		        Dn5 
	BYTE	W06
// 001   ----------------------------------------
CastlevaniaOrderofEcclesiaStonesHoldaGrudgePsyche_8_001:
	BYTE		N05     An4   v104
	BYTE	W06
	BYTE		        Bn4 
	BYTE	W06
	BYTE		        En5 
	BYTE	W06
	BYTE		        An4 
	BYTE	W06
	BYTE		        An3 
	BYTE	W06
	BYTE		        Dn4 
	BYTE	W06
	BYTE		        En4 
	BYTE	W06
	BYTE		        An4 
	BYTE	W06
	BYTE		        Dn4 
	BYTE	W06
	BYTE		        En4 
	BYTE	W06
	BYTE		        Cn5 
	BYTE	W06
	BYTE		        Bn4 
	BYTE	W06
	BYTE		        Dn4 
	BYTE	W06
	BYTE		        En4 
	BYTE	W06
	BYTE		        Gn4 
	BYTE	W06
	BYTE		        Dn5 
	BYTE	W06
	BYTE	PEND
// 002   ----------------------------------------
	BYTE	PATT
	 POIN2	CastlevaniaOrderofEcclesiaStonesHoldaGrudgePsyche_8_001
// 003   ----------------------------------------
	BYTE	PATT
	 POIN2	CastlevaniaOrderofEcclesiaStonesHoldaGrudgePsyche_8_001
// 004   ----------------------------------------
	BYTE	PATT
	 POIN2	CastlevaniaOrderofEcclesiaStonesHoldaGrudgePsyche_8_001
// 005   ----------------------------------------
	BYTE	PATT
	 POIN2	CastlevaniaOrderofEcclesiaStonesHoldaGrudgePsyche_8_001
// 006   ----------------------------------------
	BYTE	PATT
	 POIN2	CastlevaniaOrderofEcclesiaStonesHoldaGrudgePsyche_8_001
// 007   ----------------------------------------
	BYTE	PATT
	 POIN2	CastlevaniaOrderofEcclesiaStonesHoldaGrudgePsyche_8_001
// 008   ----------------------------------------
	BYTE	PATT
	 POIN2	CastlevaniaOrderofEcclesiaStonesHoldaGrudgePsyche_8_001
// 009   ----------------------------------------
	BYTE	PATT
	 POIN2	CastlevaniaOrderofEcclesiaStonesHoldaGrudgePsyche_8_001
// 010   ----------------------------------------
	BYTE		N05     An4   v104
	BYTE	W06
	BYTE		        Bn4 
	BYTE	W06
	BYTE		        En5 
	BYTE	W06
	BYTE		        Cn5 
	BYTE	W06
	BYTE		        Cn4 
	BYTE	W06
	BYTE		        Fn4 
	BYTE	W06
	BYTE		        Gn4 
	BYTE	W06
	BYTE		        Cn5 
	BYTE	W06
	BYTE		        Fn4 
	BYTE	W06
	BYTE		        Gn4 
	BYTE	W06
	BYTE		        Ds5 
	BYTE	W06
	BYTE		        Dn5 
	BYTE	W06
	BYTE		        Fn4 
	BYTE	W06
	BYTE		        Gn4 
	BYTE	W06
	BYTE		        As4 
	BYTE	W06
	BYTE		        Fn5 
	BYTE	W06
// 011   ----------------------------------------
CastlevaniaOrderofEcclesiaStonesHoldaGrudgePsyche_8_011:
	BYTE		N05     Cn5   v104
	BYTE	W06
	BYTE		        Dn5 
	BYTE	W06
	BYTE		        Gn5 
	BYTE	W06
	BYTE		        Cn5 
	BYTE	W06
	BYTE		        Cn4 
	BYTE	W06
	BYTE		        Fn4 
	BYTE	W06
	BYTE		        Gn4 
	BYTE	W06
	BYTE		        Cn5 
	BYTE	W06
	BYTE		        Fn4 
	BYTE	W06
	BYTE		        Gn4 
	BYTE	W06
	BYTE		        Ds5 
	BYTE	W06
	BYTE		        Dn5 
	BYTE	W06
	BYTE		        Fn4 
	BYTE	W06
	BYTE		        Gn4 
	BYTE	W06
	BYTE		        As4 
	BYTE	W06
	BYTE		        Fn5 
	BYTE	W06
	BYTE	PEND
// 012   ----------------------------------------
	BYTE	PATT
	 POIN2	CastlevaniaOrderofEcclesiaStonesHoldaGrudgePsyche_8_011
// 013   ----------------------------------------
	BYTE	PATT
	 POIN2	CastlevaniaOrderofEcclesiaStonesHoldaGrudgePsyche_8_011
// 014   ----------------------------------------
	BYTE	PATT
	 POIN2	CastlevaniaOrderofEcclesiaStonesHoldaGrudgePsyche_8_011
// 015   ----------------------------------------
	BYTE	PATT
	 POIN2	CastlevaniaOrderofEcclesiaStonesHoldaGrudgePsyche_8_011
// 016   ----------------------------------------
	BYTE	PATT
	 POIN2	CastlevaniaOrderofEcclesiaStonesHoldaGrudgePsyche_8_011
// 017   ----------------------------------------
	BYTE	PATT
	 POIN2	CastlevaniaOrderofEcclesiaStonesHoldaGrudgePsyche_8_011
// 018   ----------------------------------------
	BYTE		N05     Cn5   v104
	BYTE	W06
	BYTE		        Dn5 
	BYTE	W06
	BYTE		        Gn5 
	BYTE	W06
	BYTE		        An4 
	BYTE	W06
	BYTE		        An3 
	BYTE	W06
	BYTE		        Dn4 
	BYTE	W06
	BYTE		        En4 
	BYTE	W06
	BYTE		        An4 
	BYTE	W06
	BYTE		        Dn4 
	BYTE	W06
	BYTE		        En4 
	BYTE	W06
	BYTE		        Cn5 
	BYTE	W06
	BYTE		        Bn4 
	BYTE	W06
	BYTE		        Dn4 
	BYTE	W06
	BYTE		        En4 
	BYTE	W06
	BYTE		        Gn4 
	BYTE	W06
	BYTE		        Dn5 
	BYTE	W06
// 019   ----------------------------------------
	BYTE	PATT
	 POIN2	CastlevaniaOrderofEcclesiaStonesHoldaGrudgePsyche_8_001
// 020   ----------------------------------------
	BYTE	PATT
	 POIN2	CastlevaniaOrderofEcclesiaStonesHoldaGrudgePsyche_8_001
// 021   ----------------------------------------
	BYTE	PATT
	 POIN2	CastlevaniaOrderofEcclesiaStonesHoldaGrudgePsyche_8_001
	BYTE	GoTo
	 POIN2	CastlevaniaOrderofEcclesiaStonesHoldaGrudgePsyche_8_B1
CastlevaniaOrderofEcclesiaStonesHoldaGrudgePsyche_8_B2:
// 022   ----------------------------------------
	BYTE	FINE

//******************************************************//
	ALIGN 4

CastlevaniaOrderofEcclesiaStonesHoldaGrudgePsyche:
	BYTE	8	// NumTrks
	BYTE	0	// NumBlks
	BYTE	CastlevaniaOrderofEcclesiaStonesHoldaGrudgePsyche_pri	// Priority
	BYTE	CastlevaniaOrderofEcclesiaStonesHoldaGrudgePsyche_rev	// Reverb.

	POIN2	CastlevaniaOrderofEcclesiaStonesHoldaGrudgePsyche_grp

	POIN2	CastlevaniaOrderofEcclesiaStonesHoldaGrudgePsyche_1
	POIN2	CastlevaniaOrderofEcclesiaStonesHoldaGrudgePsyche_2
	POIN2	CastlevaniaOrderofEcclesiaStonesHoldaGrudgePsyche_3
	POIN2	CastlevaniaOrderofEcclesiaStonesHoldaGrudgePsyche_4
	POIN2	CastlevaniaOrderofEcclesiaStonesHoldaGrudgePsyche_5
	POIN2	CastlevaniaOrderofEcclesiaStonesHoldaGrudgePsyche_6
	POIN2	CastlevaniaOrderofEcclesiaStonesHoldaGrudgePsyche_7
	POIN2	CastlevaniaOrderofEcclesiaStonesHoldaGrudgePsyche_8

	
