//Event file generated from Sappy .s format.
	#include "MPlayDef.event"

	#define	ShovelKnightRequiemOfShieldKnight_grp  voicegroup000
	#define	ShovelKnightRequiemOfShieldKnight_pri  0
	#define	ShovelKnightRequiemOfShieldKnight_rev  0
	#define	ShovelKnightRequiemOfShieldKnight_mvl  95
	#define	ShovelKnightRequiemOfShieldKnight_key  0
	#define	ShovelKnightRequiemOfShieldKnight_tbs  1
	#define	ShovelKnightRequiemOfShieldKnight_exg  0
	#define	ShovelKnightRequiemOfShieldKnight_cmp  1

	// .rodata
	//	ShovelKnightRequiemOfShieldKnight
	ALIGN 4

//**************** Track 1 (Midi-Chn.1) ****************//

ShovelKnightRequiemOfShieldKnight_1:
	BYTE	KEYSH   ShovelKnightRequiemOfShieldKnight_key+0
// 000   ----------------------------------------
	BYTE	TEMPO   128*ShovelKnightRequiemOfShieldKnight_tbs/2
	BYTE		VOICE   68
	BYTE		MODT    0
	BYTE		LFOS    44
	BYTE		VOL     85*ShovelKnightRequiemOfShieldKnight_mvl/mxv
	BYTE		PAN     c_v+0
	BYTE		VOL     85*ShovelKnightRequiemOfShieldKnight_mvl/mxv
	BYTE		PAN     c_v+0
	BYTE	W96
// 001   ----------------------------------------
	BYTE	W96
ShovelKnightRequiemOfShieldKnight_1_B1:
// 002   ----------------------------------------
ShovelKnightRequiemOfShieldKnight_1_002:
	BYTE	W24
	BYTE		N11     Cs3   v060
	BYTE	W12
	BYTE		        Cs4 
	BYTE	W12
	BYTE		N68     Bn3 
	BYTE	W48
	BYTE	PEND
// 003   ----------------------------------------
ShovelKnightRequiemOfShieldKnight_1_003:
	BYTE	W24
	BYTE		N11     Cs3   v060
	BYTE	W12
	BYTE		        Bn3 
	BYTE	W12
	BYTE		N68     An3 
	BYTE	W48
	BYTE	PEND
// 004   ----------------------------------------
ShovelKnightRequiemOfShieldKnight_1_004:
	BYTE	W24
	BYTE		N11     Bn2   v060
	BYTE	W12
	BYTE		        An3 
	BYTE	W12
	BYTE		N23     Gs3 
	BYTE	W24
	BYTE		N11     An2 
	BYTE	W12
	BYTE		        Gs3 
	BYTE	W12
	BYTE	PEND
// 005   ----------------------------------------
ShovelKnightRequiemOfShieldKnight_1_005:
	BYTE		N44     Fs3   v060
	BYTE	W48
	BYTE		N23     En3 
	BYTE	W24
	BYTE		        Fs3 
	BYTE	W24
	BYTE	PEND
// 006   ----------------------------------------
ShovelKnightRequiemOfShieldKnight_1_006:
	BYTE		N92     Cs3   v060
	BYTE	W96
	BYTE	PEND
// 007   ----------------------------------------
ShovelKnightRequiemOfShieldKnight_1_007:
	BYTE		N22     Gs3   v060
	BYTE	W24
	BYTE		        An3 
	BYTE	W24
	BYTE		        Cs4 
	BYTE	W24
	BYTE		        Fs4 
	BYTE	W24
	BYTE	PEND
// 008   ----------------------------------------
ShovelKnightRequiemOfShieldKnight_1_008:
	BYTE		N44     Gs4   v060
	BYTE	W48
	BYTE		        Fs4 
	BYTE	W48
	BYTE	PEND
// 009   ----------------------------------------
ShovelKnightRequiemOfShieldKnight_1_009:
	BYTE		N22     Cs4   v060
	BYTE	W24
	BYTE		        An3 
	BYTE	W24
	BYTE		        Gs3 
	BYTE	W24
	BYTE		        Fs3 
	BYTE	W24
	BYTE	PEND
// 010   ----------------------------------------
ShovelKnightRequiemOfShieldKnight_1_010:
	BYTE		N90     En3   v060
	BYTE	W24
	BYTE		N11     Cs3 
	BYTE	W12
	BYTE		        Cs4 
	BYTE	W12
	BYTE		N68     Bn3 
	BYTE	W48
	BYTE	PEND
// 011   ----------------------------------------
ShovelKnightRequiemOfShieldKnight_1_011:
	BYTE	W24
	BYTE		N11     Cs3   v060
	BYTE	W12
	BYTE		        Bn3 
	BYTE	W12
	BYTE		N68     An3 
	BYTE	W48
	BYTE	PEND
// 012   ----------------------------------------
ShovelKnightRequiemOfShieldKnight_1_012:
	BYTE	W24
	BYTE		N11     Bn2   v060
	BYTE	W12
	BYTE		        An3 
	BYTE	W12
	BYTE		N23     Gs3 
	BYTE	W24
	BYTE		N11     An2 
	BYTE	W12
	BYTE		        Gs3 
	BYTE	W12
	BYTE	PEND
// 013   ----------------------------------------
	BYTE	PATT
	 POIN2	ShovelKnightRequiemOfShieldKnight_1_005
// 014   ----------------------------------------
ShovelKnightRequiemOfShieldKnight_1_014:
	BYTE		N92     Cs3   v060
	BYTE	W72
	BYTE		N22     Gs3 
	BYTE	W24
	BYTE	PEND
// 015   ----------------------------------------
ShovelKnightRequiemOfShieldKnight_1_015:
	BYTE		N44     An3   v060
	BYTE	W48
	BYTE		N22     Cs4 
	BYTE	W24
	BYTE		        Fs4 
	BYTE	W24
	BYTE	PEND
// 016   ----------------------------------------
	BYTE	PATT
	 POIN2	ShovelKnightRequiemOfShieldKnight_1_008
// 017   ----------------------------------------
ShovelKnightRequiemOfShieldKnight_1_017:
	BYTE		N44     Cs4   v060
	BYTE	W48
	BYTE		        Fs4 
	BYTE	W48
	BYTE	PEND
// 018   ----------------------------------------
ShovelKnightRequiemOfShieldKnight_1_018:
	BYTE		N11     Fs4   v028
	BYTE	W24
	BYTE		        Cs4   v060
	BYTE		N11     Fs4   v028
	BYTE	W12
	BYTE		        Cs5   v060
	BYTE	W12
	BYTE		        Fs4   v028
	BYTE		N68     Bn4   v060
	BYTE	W24
	BYTE		N11     Fs4   v028
	BYTE	W24
	BYTE	PEND
// 019   ----------------------------------------
ShovelKnightRequiemOfShieldKnight_1_019:
	BYTE		N11     An4   v028
	BYTE	W24
	BYTE		        Cs4   v060
	BYTE		N11     An4   v028
	BYTE	W12
	BYTE		        Bn4   v060
	BYTE	W12
	BYTE		N72     An4 
	BYTE	W24
	BYTE		N11     Gs4   v028
	BYTE	W24
	BYTE	PEND
// 020   ----------------------------------------
ShovelKnightRequiemOfShieldKnight_1_020:
	BYTE		N11     Fs4   v028
	BYTE	W24
	BYTE		        Bn3   v060
	BYTE		N11     Fs4   v028
	BYTE	W12
	BYTE		        An4   v060
	BYTE	W12
	BYTE		        Fs4   v028
	BYTE		N22     Gs4   v060
	BYTE	W24
	BYTE		N11     An3 
	BYTE		N11     Fs4   v028
	BYTE	W12
	BYTE		        Gs4   v060
	BYTE	W12
	BYTE	PEND
// 021   ----------------------------------------
ShovelKnightRequiemOfShieldKnight_1_021:
	BYTE		N48     Fs4   v060
	BYTE	W24
	BYTE		N11     En4   v028
	BYTE	W24
	BYTE		N22     En4   v060
	BYTE		N11     Fs4   v028
	BYTE	W24
	BYTE		N22     Fs4   v060
	BYTE		N11     Gs4   v028
	BYTE	W24
	BYTE	PEND
// 022   ----------------------------------------
ShovelKnightRequiemOfShieldKnight_1_022:
	BYTE		N72     Cs4   v060
	BYTE		N11     Gs4   v028
	BYTE	W24
	BYTE		N11   
	BYTE	W24
	BYTE		        Bn3 
	BYTE	W24
	BYTE		        Cs4 
	BYTE	W24
	BYTE	PEND
// 023   ----------------------------------------
ShovelKnightRequiemOfShieldKnight_1_023:
	BYTE		N11     Fs4   v028
	BYTE	W24
	BYTE		N11   
	BYTE	W24
	BYTE		        Cs4   v060
	BYTE		N11     Gs4   v028
	BYTE	W12
	BYTE		        Fs4   v060
	BYTE	W12
	BYTE		        An4   v028
	BYTE	W12
	BYTE		        Cs5   v060
	BYTE	W12
	BYTE	PEND
// 024   ----------------------------------------
ShovelKnightRequiemOfShieldKnight_1_024:
	BYTE		N48     Bn4   v060
	BYTE	W24
	BYTE		N11     An4   v028
	BYTE	W24
	BYTE		N48     An4   v060
	BYTE	W24
	BYTE		N11     Gs4   v028
	BYTE	W24
	BYTE	PEND
// 025   ----------------------------------------
ShovelKnightRequiemOfShieldKnight_1_025:
	BYTE		N11     Fs4   v028
	BYTE		N32     Gs4   v060
	BYTE	W24
	BYTE		N11     Fs4   v028
	BYTE	W12
	BYTE		N05     An4   v060
	BYTE	W06
	BYTE		        Gs4 
	BYTE	W06
	BYTE		N90     Fs4 
	BYTE		N11     Gs4   v028
	BYTE	W03
	BYTE	W03
	BYTE	W03
	BYTE	W03
	BYTE	W03
	BYTE	W03
	BYTE	W03
	BYTE	W03
	BYTE		        An4 
	BYTE	W03
	BYTE	W04
	BYTE	W03
	BYTE	W03
	BYTE	W03
	BYTE	W03
	BYTE	W03
	BYTE	W02
	BYTE	PEND
// 026   ----------------------------------------
ShovelKnightRequiemOfShieldKnight_1_026:
	BYTE		N11     Cs4   v028
	BYTE	W01
	BYTE	W03
	BYTE	W03
	BYTE	W03
	BYTE	W03
	BYTE	W04
	BYTE	W03
	BYTE	W03
	BYTE	W01
	BYTE		N11   
	BYTE	W02
	BYTE	W03
	BYTE	W03
	BYTE	W03
	BYTE	W03
	BYTE	W03
	BYTE	W03
	BYTE	W04
	BYTE		        Bn3 
	BYTE		N90     Bn4   v060
	BYTE	W01
	BYTE	W02
	BYTE	W01
	BYTE	W02
	BYTE	W01
	BYTE	W02
	BYTE	W01
	BYTE	W02
	BYTE	W01
	BYTE	W02
	BYTE	W02
	BYTE	W01
	BYTE	W02
	BYTE	W01
	BYTE	W02
	BYTE	W01
	BYTE		N11     Bn3   v028
	BYTE	W02
	BYTE	W01
	BYTE	W02
	BYTE	W02
	BYTE	W01
	BYTE	W02
	BYTE	W01
	BYTE	W02
	BYTE	W01
	BYTE	W02
	BYTE	W01
	BYTE	W02
	BYTE	W01
	BYTE	W02
	BYTE	W02
	BYTE	PEND
// 027   ----------------------------------------
ShovelKnightRequiemOfShieldKnight_1_027:
	BYTE		N11     Cs4   v028
	BYTE	W24
	BYTE		N11   
	BYTE	W24
	BYTE		        Dn4 
	BYTE		N22     Cs5   v060
	BYTE	W24
	BYTE		N11     Dn4   v028
	BYTE		TIE     Dn5   v060
	BYTE	W24
	BYTE	PEND
// 028   ----------------------------------------
ShovelKnightRequiemOfShieldKnight_1_028:
	BYTE		N11     Fs4   v028
	BYTE	W24
	BYTE		N11   
	BYTE	W24
	BYTE		        Dn4 
	BYTE	W24
	BYTE		N11   
	BYTE	W24
	BYTE	PEND
// 029   ----------------------------------------
ShovelKnightRequiemOfShieldKnight_1_029:
	BYTE		N11     Dn4   v028
	BYTE	W24
	BYTE		N11   
	BYTE	W24
	BYTE		N11   
	BYTE	W14
	BYTE	PEND
	BYTE		EOT     Dn5 
	BYTE	W10
	BYTE		N11     Dn4 
	BYTE		N22     Bn4   v060
	BYTE	W24
// 030   ----------------------------------------
ShovelKnightRequiemOfShieldKnight_1_030:
	BYTE		N11     Fs4   v028
	BYTE		TIE     Cs5   v060
	BYTE	W04
	BYTE	W04
	BYTE	W04
	BYTE	W04
	BYTE	W04
	BYTE	W04
	BYTE		N11     Fs4   v028
	BYTE	W04
	BYTE	W04
	BYTE	W04
	BYTE	W04
	BYTE	W04
	BYTE	W04
	BYTE		N11   
	BYTE	W01
	BYTE	W04
	BYTE	W04
	BYTE	W04
	BYTE	W04
	BYTE	W04
	BYTE	W03
	BYTE		N11   
	BYTE	W01
	BYTE	W04
	BYTE	W04
	BYTE	W04
	BYTE	W04
	BYTE	W05
	BYTE	W02
	BYTE	PEND
// 031   ----------------------------------------
ShovelKnightRequiemOfShieldKnight_1_031:
	BYTE		N11     Fs4   v028
	BYTE	W02
	BYTE	W04
	BYTE	W04
	BYTE	W03
	BYTE	W01
	BYTE	W04
	BYTE	W04
	BYTE	W02
	BYTE		N11   
	BYTE	W02
	BYTE	W01
	BYTE	W03
	BYTE	W04
	BYTE	W04
	BYTE	W02
	BYTE	W02
	BYTE	W05
	BYTE	W01
	BYTE		        Gs4   v024
	BYTE	W03
	BYTE	W03
	BYTE	W01
	BYTE	W04
	BYTE	W04
	BYTE	W04
	BYTE	W04
	BYTE	W01
	BYTE		        An4 
	BYTE	W03
	BYTE	W04
	BYTE	W02
	BYTE	W02
	BYTE	W03
	BYTE	PEND
	BYTE		EOT     Cs5 
	BYTE	W01
	BYTE	W04
	BYTE	W03
	BYTE	W02
// 032   ----------------------------------------
ShovelKnightRequiemOfShieldKnight_1_032:
	BYTE		N11     An3   v020
	BYTE	W12
	BYTE	W12
	BYTE		N11   
	BYTE	W01
	BYTE	W14
	BYTE	W09
	BYTE		        Bn3 
	BYTE	W04
	BYTE	W14
	BYTE	W13
	BYTE	W14
	BYTE	W03
	BYTE	PEND
// 033   ----------------------------------------
ShovelKnightRequiemOfShieldKnight_1_033:
	BYTE		N11     Fs4   v016
	BYTE	W10
	BYTE	W14
	BYTE		N11   
	BYTE	W72
	BYTE	PEND
// 034   ----------------------------------------
ShovelKnightRequiemOfShieldKnight_1_034:
	BYTE		N11     Fs4   v016
	BYTE	W03
	BYTE	W03
	BYTE	W03
	BYTE	W03
	BYTE	W03
	BYTE	W03
	BYTE	W03
	BYTE	W03
	BYTE		        Fs4   v020
	BYTE		TIE     Cs5   v036
	BYTE	W03
	BYTE	W04
	BYTE	W03
	BYTE	W03
	BYTE	W01
	BYTE	W02
	BYTE	W01
	BYTE	W02
	BYTE	W02
	BYTE	W01
	BYTE	W02
	BYTE		N11     Fs4   v028
	BYTE	W01
	BYTE	W03
	BYTE	W03
	BYTE	W01
	BYTE	W02
	BYTE	W01
	BYTE	W02
	BYTE	W02
	BYTE	W02
	BYTE	W01
	BYTE	W02
	BYTE	W02
	BYTE	W01
	BYTE	W01
	BYTE		        Fs4   v032
	BYTE	W02
	BYTE	W03
	BYTE	W03
	BYTE	W01
	BYTE	W02
	BYTE	W01
	BYTE	W02
	BYTE	W02
	BYTE	W01
	BYTE	W02
	BYTE	W01
	BYTE	W03
	BYTE	W01
	BYTE	PEND
// 035   ----------------------------------------
ShovelKnightRequiemOfShieldKnight_1_035:
	BYTE		N11     An4   v044
	BYTE	W03
	BYTE	W03
	BYTE	W04
	BYTE	W03
	BYTE	W04
	BYTE	W03
	BYTE	W04
	BYTE		N11   
	BYTE	W04
	BYTE	W03
	BYTE	W04
	BYTE	W03
	BYTE	W04
	BYTE	W04
	BYTE	W02
	BYTE		N11   
	BYTE	W01
	BYTE	W04
	BYTE	W03
	BYTE	W04
	BYTE	W03
	BYTE	W04
	BYTE	W04
	BYTE	W01
	BYTE		N11   
	BYTE	W02
	BYTE	W04
	BYTE	W03
	BYTE	W04
	BYTE	W03
	BYTE	W04
	BYTE	W04
	BYTE	PEND
// 036   ----------------------------------------
ShovelKnightRequiemOfShieldKnight_1_036:
	BYTE		N11     Fs4   v044
	BYTE	W24
	BYTE		N11   
	BYTE	W24
	BYTE		N11   
	BYTE	W24
	BYTE		N11   
	BYTE	W24
	BYTE	PEND
// 037   ----------------------------------------
ShovelKnightRequiemOfShieldKnight_1_037:
	BYTE		N11     Fs4   v044
	BYTE	W24
	BYTE		N11   
	BYTE	W08
	BYTE	PEND
	BYTE		EOT     Cs5 
	BYTE	W16
	BYTE		N11     Fs4 
	BYTE		N90     Bn4   v036
	BYTE	W24
	BYTE		N11     Gs4   v044
	BYTE	W24
// 038   ----------------------------------------
ShovelKnightRequiemOfShieldKnight_1_038:
	BYTE		N11     Gs4   v044
	BYTE	W24
	BYTE		N11   
	BYTE	W24
	BYTE		        Cs4 
	BYTE		N90     An4   v036
	BYTE	W24
	BYTE		N11     Cs4   v044
	BYTE	W24
	BYTE	PEND
// 039   ----------------------------------------
ShovelKnightRequiemOfShieldKnight_1_039:
	BYTE		N11     Fs4   v044
	BYTE	W24
	BYTE		N11   
	BYTE	W24
	BYTE		        Gs4 
	BYTE	W24
	BYTE		        An4 
	BYTE	W24
	BYTE	PEND
// 040   ----------------------------------------
ShovelKnightRequiemOfShieldKnight_1_040:
	BYTE		N11     Bn4   v044
	BYTE	W24
	BYTE		N11   
	BYTE	W24
	BYTE		N48     Fs4   v036
	BYTE		N11     An4 
	BYTE	W03
	BYTE	W03
	BYTE	W03
	BYTE	W03
	BYTE	W03
	BYTE	W03
	BYTE	W03
	BYTE	W03
	BYTE		        An4   v044
	BYTE	W03
	BYTE	W03
	BYTE	W03
	BYTE	W03
	BYTE	W03
	BYTE	W03
	BYTE	W04
	BYTE	W02
	BYTE	PEND
// 041   ----------------------------------------
ShovelKnightRequiemOfShieldKnight_1_041:
	BYTE		N11     Fs4   v044
	BYTE	W01
	BYTE	W03
	BYTE	W03
	BYTE	W03
	BYTE	W03
	BYTE	W03
	BYTE	W03
	BYTE	W03
	BYTE	W02
	BYTE		N11   
	BYTE	W01
	BYTE	W03
	BYTE	W03
	BYTE	W03
	BYTE	W03
	BYTE	W03
	BYTE	W03
	BYTE	W04
	BYTE	W01
	BYTE		        Gs4 
	BYTE	W02
	BYTE	W03
	BYTE	W03
	BYTE	W03
	BYTE	W03
	BYTE	W03
	BYTE	W03
	BYTE	W03
	BYTE	W01
	BYTE		        An4 
	BYTE	W02
	BYTE	W03
	BYTE	W03
	BYTE	W03
	BYTE	W03
	BYTE	W03
	BYTE	W03
	BYTE	W04
	BYTE	PEND
// 042   ----------------------------------------
ShovelKnightRequiemOfShieldKnight_1_042:
	BYTE		N11     Cs4   v044
	BYTE	W02
	BYTE	W02
	BYTE	W02
	BYTE	W02
	BYTE	W02
	BYTE	W02
	BYTE	W02
	BYTE	W02
	BYTE	W02
	BYTE	W02
	BYTE	W02
	BYTE	W02
	BYTE		N11   
	BYTE	W02
	BYTE	W02
	BYTE	W02
	BYTE	W02
	BYTE	W02
	BYTE	W02
	BYTE	W02
	BYTE	W02
	BYTE	W02
	BYTE	W02
	BYTE	W03
	BYTE	W01
	BYTE		        Bn3 
	BYTE	W01
	BYTE	W02
	BYTE	W02
	BYTE	W02
	BYTE	W02
	BYTE	W02
	BYTE	W02
	BYTE	W02
	BYTE	W02
	BYTE	W02
	BYTE	W02
	BYTE	W02
	BYTE	W01
	BYTE		N11   
	BYTE	W01
	BYTE	W02
	BYTE	W02
	BYTE	W02
	BYTE	W02
	BYTE	W02
	BYTE	W02
	BYTE	W02
	BYTE	W02
	BYTE	W02
	BYTE	W03
	BYTE	W02
	BYTE	PEND
// 043   ----------------------------------------
ShovelKnightRequiemOfShieldKnight_1_043:
	BYTE		N11     Cs4   v044
	BYTE	W24
	BYTE		N11   
	BYTE	W24
	BYTE		N15     Cs4   v060
	BYTE		N11     Dn4   v044
	BYTE	W16
	BYTE		N08     Dn4   v060
	BYTE	W08
	BYTE		N07     Dn4   v044
	BYTE	W08
	BYTE		N16     Fs4   v060
	BYTE	W16
	BYTE	PEND
// 044   ----------------------------------------
ShovelKnightRequiemOfShieldKnight_1_044:
	BYTE		N04     Fs4   v048
	BYTE	W06
	BYTE		TIE     Bn4   v044
	BYTE	W05
	BYTE	W06
	BYTE	W05
	BYTE	W02
	BYTE		N11     Fs4 
	BYTE	W04
	BYTE	W06
	BYTE	W05
	BYTE	W06
	BYTE	W03
	BYTE		        Dn4 
	BYTE	W03
	BYTE	W05
	BYTE	W06
	BYTE	W05
	BYTE	W05
	BYTE		N11   
	BYTE	W01
	BYTE	W06
	BYTE	W05
	BYTE	W06
	BYTE	W06
	BYTE	PEND
// 045   ----------------------------------------
ShovelKnightRequiemOfShieldKnight_1_045:
	BYTE		N11     Dn4   v044
	BYTE	W24
	BYTE		N11   
	BYTE	W17
	BYTE	PEND
	BYTE		EOT     Bn4 
	BYTE	W07
	BYTE		N11     Dn4 
	BYTE		TIE     Cs5   v036
	BYTE	W03
	BYTE	W03
	BYTE	W03
	BYTE	W03
	BYTE	W03
	BYTE	W03
	BYTE	W03
	BYTE	W03
	BYTE		N11     Dn4   v044
	BYTE	W03
	BYTE	W03
	BYTE	W03
	BYTE	W03
	BYTE	W03
	BYTE	W03
	BYTE	W04
	BYTE	W02
// 046   ----------------------------------------
ShovelKnightRequiemOfShieldKnight_1_046:
	BYTE		N11     Fs4   v044
	BYTE	W01
	BYTE	W03
	BYTE	W03
	BYTE	W03
	BYTE	W03
	BYTE	W03
	BYTE	W03
	BYTE	W03
	BYTE	W02
	BYTE		N11   
	BYTE	W01
	BYTE	W03
	BYTE	W03
	BYTE	W03
	BYTE	W03
	BYTE	W03
	BYTE	W03
	BYTE	W04
	BYTE	W01
	BYTE		N11   
	BYTE	W02
	BYTE	W03
	BYTE	W03
	BYTE	W03
	BYTE	W03
	BYTE	W03
	BYTE	W03
	BYTE	W03
	BYTE	W01
	BYTE		N11   
	BYTE	W02
	BYTE	W03
	BYTE	W03
	BYTE	W03
	BYTE	W03
	BYTE	W03
	BYTE	W03
	BYTE	W04
	BYTE	PEND
// 047   ----------------------------------------
	BYTE	PATT
	 POIN2	ShovelKnightRequiemOfShieldKnight_1_039
// 048   ----------------------------------------
ShovelKnightRequiemOfShieldKnight_1_048:
	BYTE		N44     En4   v044
	BYTE	W06
	BYTE	W06
	BYTE	W06
	BYTE	W06
	BYTE	W06
	BYTE	W06
	BYTE	W06
	BYTE	W06
	BYTE		        Fs4   v052
	BYTE	W06
	BYTE	W06
	BYTE	W06
	BYTE	W06
	BYTE	W06
	BYTE	W06
	BYTE	W06
	BYTE	W06
	BYTE	PEND
// 049   ----------------------------------------
ShovelKnightRequiemOfShieldKnight_1_049:
	BYTE		N56     Fs4   v060
	BYTE	W05
	BYTE	PEND
	BYTE		EOT     Cs5 
	BYTE	W42
	BYTE	W01
	BYTE	W12
	BYTE		N11     Cs4 
	BYTE	W01
	BYTE	W01
	BYTE	W01
	BYTE	W01
	BYTE	W01
	BYTE	W07
	BYTE		        An3 
	BYTE	W01
	BYTE	W01
	BYTE	W01
	BYTE	W01
	BYTE	W01
	BYTE	W07
	BYTE		        Gs3 
	BYTE	W01
	BYTE	W01
	BYTE	W01
	BYTE	W01
	BYTE	W01
	BYTE	W07
	BYTE	GoTo
	 POIN2	ShovelKnightRequiemOfShieldKnight_1_B1
ShovelKnightRequiemOfShieldKnight_1_B2:
// 050   ----------------------------------------
	BYTE	PATT
	 POIN2	ShovelKnightRequiemOfShieldKnight_1_002
// 051   ----------------------------------------
	BYTE	PATT
	 POIN2	ShovelKnightRequiemOfShieldKnight_1_003
// 052   ----------------------------------------
	BYTE	PATT
	 POIN2	ShovelKnightRequiemOfShieldKnight_1_004
// 053   ----------------------------------------
	BYTE	PATT
	 POIN2	ShovelKnightRequiemOfShieldKnight_1_005
// 054   ----------------------------------------
	BYTE	PATT
	 POIN2	ShovelKnightRequiemOfShieldKnight_1_006
// 055   ----------------------------------------
	BYTE	PATT
	 POIN2	ShovelKnightRequiemOfShieldKnight_1_007
// 056   ----------------------------------------
	BYTE	PATT
	 POIN2	ShovelKnightRequiemOfShieldKnight_1_008
// 057   ----------------------------------------
	BYTE	PATT
	 POIN2	ShovelKnightRequiemOfShieldKnight_1_009
// 058   ----------------------------------------
	BYTE	PATT
	 POIN2	ShovelKnightRequiemOfShieldKnight_1_010
// 059   ----------------------------------------
	BYTE	PATT
	 POIN2	ShovelKnightRequiemOfShieldKnight_1_011
// 060   ----------------------------------------
	BYTE	PATT
	 POIN2	ShovelKnightRequiemOfShieldKnight_1_012
// 061   ----------------------------------------
	BYTE	PATT
	 POIN2	ShovelKnightRequiemOfShieldKnight_1_005
// 062   ----------------------------------------
	BYTE	PATT
	 POIN2	ShovelKnightRequiemOfShieldKnight_1_014
// 063   ----------------------------------------
	BYTE	PATT
	 POIN2	ShovelKnightRequiemOfShieldKnight_1_015
// 064   ----------------------------------------
	BYTE	PATT
	 POIN2	ShovelKnightRequiemOfShieldKnight_1_008
// 065   ----------------------------------------
	BYTE	PATT
	 POIN2	ShovelKnightRequiemOfShieldKnight_1_017
// 066   ----------------------------------------
	BYTE	PATT
	 POIN2	ShovelKnightRequiemOfShieldKnight_1_018
// 067   ----------------------------------------
	BYTE	PATT
	 POIN2	ShovelKnightRequiemOfShieldKnight_1_019
// 068   ----------------------------------------
	BYTE	PATT
	 POIN2	ShovelKnightRequiemOfShieldKnight_1_020
// 069   ----------------------------------------
	BYTE	PATT
	 POIN2	ShovelKnightRequiemOfShieldKnight_1_021
// 070   ----------------------------------------
	BYTE	PATT
	 POIN2	ShovelKnightRequiemOfShieldKnight_1_022
// 071   ----------------------------------------
	BYTE	PATT
	 POIN2	ShovelKnightRequiemOfShieldKnight_1_023
// 072   ----------------------------------------
	BYTE	PATT
	 POIN2	ShovelKnightRequiemOfShieldKnight_1_024
// 073   ----------------------------------------
	BYTE	PATT
	 POIN2	ShovelKnightRequiemOfShieldKnight_1_025
// 074   ----------------------------------------
	BYTE	PATT
	 POIN2	ShovelKnightRequiemOfShieldKnight_1_026
// 075   ----------------------------------------
	BYTE	PATT
	 POIN2	ShovelKnightRequiemOfShieldKnight_1_027
// 076   ----------------------------------------
	BYTE	PATT
	 POIN2	ShovelKnightRequiemOfShieldKnight_1_028
// 077   ----------------------------------------
	BYTE	PATT
	 POIN2	ShovelKnightRequiemOfShieldKnight_1_029
	BYTE		EOT     Dn5 
	BYTE	W10
	BYTE		N11     Dn4   v028
	BYTE		N22     Bn4   v060
	BYTE	W24
// 078   ----------------------------------------
	BYTE	PATT
	 POIN2	ShovelKnightRequiemOfShieldKnight_1_030
// 079   ----------------------------------------
	BYTE	PATT
	 POIN2	ShovelKnightRequiemOfShieldKnight_1_031
	BYTE		EOT     Cs5 
	BYTE	W01
	BYTE	W04
	BYTE	W03
	BYTE	W02
// 080   ----------------------------------------
	BYTE	PATT
	 POIN2	ShovelKnightRequiemOfShieldKnight_1_032
// 081   ----------------------------------------
	BYTE	PATT
	 POIN2	ShovelKnightRequiemOfShieldKnight_1_033
// 082   ----------------------------------------
	BYTE	PATT
	 POIN2	ShovelKnightRequiemOfShieldKnight_1_034
// 083   ----------------------------------------
	BYTE	PATT
	 POIN2	ShovelKnightRequiemOfShieldKnight_1_035
// 084   ----------------------------------------
	BYTE	PATT
	 POIN2	ShovelKnightRequiemOfShieldKnight_1_036
// 085   ----------------------------------------
	BYTE	PATT
	 POIN2	ShovelKnightRequiemOfShieldKnight_1_037
	BYTE		EOT     Cs5 
	BYTE	W16
	BYTE		N11     Fs4   v044
	BYTE		N90     Bn4   v036
	BYTE	W24
	BYTE		N11     Gs4   v044
	BYTE	W24
// 086   ----------------------------------------
	BYTE	PATT
	 POIN2	ShovelKnightRequiemOfShieldKnight_1_038
// 087   ----------------------------------------
	BYTE	PATT
	 POIN2	ShovelKnightRequiemOfShieldKnight_1_039
// 088   ----------------------------------------
	BYTE	PATT
	 POIN2	ShovelKnightRequiemOfShieldKnight_1_040
// 089   ----------------------------------------
	BYTE	PATT
	 POIN2	ShovelKnightRequiemOfShieldKnight_1_041
// 090   ----------------------------------------
	BYTE	PATT
	 POIN2	ShovelKnightRequiemOfShieldKnight_1_042
// 091   ----------------------------------------
	BYTE	PATT
	 POIN2	ShovelKnightRequiemOfShieldKnight_1_043
// 092   ----------------------------------------
	BYTE	PATT
	 POIN2	ShovelKnightRequiemOfShieldKnight_1_044
// 093   ----------------------------------------
	BYTE	PATT
	 POIN2	ShovelKnightRequiemOfShieldKnight_1_045
	BYTE		EOT     Bn4 
	BYTE	W07
	BYTE		N11     Dn4   v044
	BYTE		TIE     Cs5   v036
	BYTE	W03
	BYTE	W03
	BYTE	W03
	BYTE	W03
	BYTE	W03
	BYTE	W03
	BYTE	W03
	BYTE	W03
	BYTE		N11     Dn4   v044
	BYTE	W03
	BYTE	W03
	BYTE	W03
	BYTE	W03
	BYTE	W03
	BYTE	W03
	BYTE	W04
	BYTE	W02
// 094   ----------------------------------------
	BYTE	PATT
	 POIN2	ShovelKnightRequiemOfShieldKnight_1_046
// 095   ----------------------------------------
	BYTE	PATT
	 POIN2	ShovelKnightRequiemOfShieldKnight_1_039
// 096   ----------------------------------------
	BYTE	PATT
	 POIN2	ShovelKnightRequiemOfShieldKnight_1_048
// 097   ----------------------------------------
	BYTE	PATT
	 POIN2	ShovelKnightRequiemOfShieldKnight_1_049
	BYTE		EOT     Cs5 
	BYTE	W42
	BYTE	W01
	BYTE	W12
	BYTE		N11     Cs4   v060
	BYTE	W01
	BYTE	W01
	BYTE	W01
	BYTE	W01
	BYTE	W01
	BYTE	W07
	BYTE		        An3 
	BYTE	W01
	BYTE	W01
	BYTE	W01
	BYTE	W01
	BYTE	W01
	BYTE	W07
	BYTE		        Gs3 
	BYTE	W01
	BYTE	W01
	BYTE	W01
	BYTE	W01
	BYTE	W01
	BYTE	W07
// 098   ----------------------------------------
	BYTE	W24
	BYTE		        Cs4   v080
	BYTE	W12
	BYTE		        Cs5 
	BYTE	W12
	BYTE		N68     Bn4 
	BYTE	W48
// 099   ----------------------------------------
	BYTE		N44     Fs3   v060
	BYTE	W24
	BYTE		N11     Cs4   v080
	BYTE	W12
	BYTE		        Bn4 
	BYTE	W12
	BYTE		N68     An4 
	BYTE	W48
// 100   ----------------------------------------
	BYTE		N23     Cs4   v060
	BYTE	W24
	BYTE		N11     Bn3   v080
	BYTE	W12
	BYTE		        An4 
	BYTE	W12
	BYTE		N23     Gs3   v060
	BYTE		N22     Gs4   v080
	BYTE	W24
	BYTE		N11     An3 
	BYTE	W12
	BYTE		        Gs4 
	BYTE	W12
// 101   ----------------------------------------
	BYTE		N44     Gs3   v060
	BYTE		N44     Fs4   v080
	BYTE	W48
	BYTE		N22     Gs4 
	BYTE	W24
	BYTE		        An4 
	BYTE	W24
// 102   ----------------------------------------
	BYTE	TEMPO   80*ShovelKnightRequiemOfShieldKnight_tbs/2
	BYTE		TIE   
	BYTE	W96
// 103   ----------------------------------------
	BYTE	W84
	BYTE	W02
	BYTE		EOT   
	BYTE	W56
	BYTE	W02
// 104   ----------------------------------------
	BYTE	W96
// 105   ----------------------------------------
	BYTE		TIE     Cs4   v004
	BYTE	W01
	BYTE	W02
	BYTE	W01
	BYTE	W02
	BYTE	W01
	BYTE	W02
	BYTE	W01
	BYTE	W02
	BYTE	W01
	BYTE	W02
	BYTE	W01
	BYTE	W02
	BYTE	W01
	BYTE	W02
	BYTE	W01
	BYTE	W02
	BYTE	W01
	BYTE	W02
	BYTE	W01
	BYTE	W02
	BYTE	W01
	BYTE	W02
	BYTE	W01
	BYTE	W02
	BYTE	W01
	BYTE	W02
	BYTE	W01
	BYTE	W02
	BYTE	W01
	BYTE	W02
	BYTE	W01
	BYTE	W02
	BYTE	W01
	BYTE	W02
	BYTE	W01
	BYTE	W02
	BYTE	W01
	BYTE	W02
	BYTE	W01
	BYTE	W02
	BYTE	W01
	BYTE	W02
	BYTE	W01
	BYTE	W02
	BYTE	W01
	BYTE	W02
	BYTE	W01
	BYTE	W02
	BYTE	W01
	BYTE	W02
	BYTE	W01
	BYTE	W02
	BYTE	W01
	BYTE	W02
	BYTE	W01
	BYTE	W02
	BYTE	W01
	BYTE	W02
	BYTE	W01
	BYTE	W02
	BYTE	W01
	BYTE	W02
	BYTE	W01
	BYTE	W02
// 106   ----------------------------------------
	BYTE	W92
	BYTE	W03
	BYTE		EOT   
	BYTE	FINE

//**************** Track 2 (Midi-Chn.3) ****************//

ShovelKnightRequiemOfShieldKnight_2:
	BYTE	KEYSH   ShovelKnightRequiemOfShieldKnight_key+0
// 000   ----------------------------------------
	BYTE		VOICE   45
	BYTE		MODT    0
	BYTE		LFOS    44
	BYTE		VOL     85*ShovelKnightRequiemOfShieldKnight_mvl/mxv
	BYTE		PAN     c_v+0
	BYTE		VOL     85*ShovelKnightRequiemOfShieldKnight_mvl/mxv
	BYTE		PAN     c_v+0
	BYTE		N44     Fs2   v016
	BYTE	W02
	BYTE	W02
	BYTE	W02
	BYTE	W02
	BYTE	W02
	BYTE	W02
	BYTE	W02
	BYTE	W02
	BYTE	W02
	BYTE	W02
	BYTE	W02
	BYTE	W02
	BYTE	W02
	BYTE	W02
	BYTE	W02
	BYTE	W02
	BYTE	W02
	BYTE	W02
	BYTE	W02
	BYTE	W02
	BYTE	W02
	BYTE	W02
	BYTE	W03
	BYTE	W01
	BYTE		        Gs2   v032
	BYTE	W01
	BYTE	W02
	BYTE	W02
	BYTE	W02
	BYTE	W02
	BYTE	W02
	BYTE	W02
	BYTE	W02
	BYTE	W02
	BYTE	W02
	BYTE	W02
	BYTE	W02
	BYTE	W02
	BYTE	W02
	BYTE	W02
	BYTE	W02
	BYTE	W02
	BYTE	W02
	BYTE	W02
	BYTE	W02
	BYTE	W02
	BYTE	W02
	BYTE	W03
	BYTE	W02
// 001   ----------------------------------------
	BYTE		        An1   v060
	BYTE	W06
	BYTE	W06
	BYTE	W06
	BYTE	W06
	BYTE	W06
	BYTE	W06
	BYTE	W06
	BYTE	W06
	BYTE		        En2   v052
	BYTE	W06
	BYTE	W06
	BYTE	W06
	BYTE	W06
	BYTE	W06
	BYTE	W06
	BYTE	W06
	BYTE	W06
ShovelKnightRequiemOfShieldKnight_2_B1:
// 002   ----------------------------------------
ShovelKnightRequiemOfShieldKnight_2_002:
	BYTE		N92     Dn2   v044
	BYTE	W96
	BYTE	PEND
// 003   ----------------------------------------
	BYTE	PATT
	 POIN2	ShovelKnightRequiemOfShieldKnight_2_002
// 004   ----------------------------------------
ShovelKnightRequiemOfShieldKnight_2_004:
	BYTE		N92     Bn2   v044
	BYTE	W96
	BYTE	PEND
// 005   ----------------------------------------
ShovelKnightRequiemOfShieldKnight_2_005:
	BYTE		N44     Bn2   v044
	BYTE	W48
	BYTE		N44   
	BYTE	W48
	BYTE	PEND
// 006   ----------------------------------------
	BYTE	W96
// 007   ----------------------------------------
	BYTE	W96
// 008   ----------------------------------------
ShovelKnightRequiemOfShieldKnight_2_008:
	BYTE		N44     Gs1   v044
	BYTE	W48
	BYTE		        An2 
	BYTE	W48
	BYTE	PEND
// 009   ----------------------------------------
	BYTE	W96
// 010   ----------------------------------------
ShovelKnightRequiemOfShieldKnight_2_010:
	BYTE		TIE     Bn1   v044
	BYTE	W96
	BYTE	PEND
// 011   ----------------------------------------
ShovelKnightRequiemOfShieldKnight_2_011:
	BYTE	W44
	BYTE	W03
	BYTE	PEND
	BYTE		EOT     Bn1 
	BYTE	W01
	BYTE		N23     Bn1   v080
	BYTE	W01
	BYTE	W01
	BYTE	W01
	BYTE	W01
	BYTE	W01
	BYTE	W19
	BYTE		        An1 
	BYTE	W01
	BYTE	W01
	BYTE	W01
	BYTE	W01
	BYTE	W01
	BYTE	W19
// 012   ----------------------------------------
ShovelKnightRequiemOfShieldKnight_2_012:
	BYTE		TIE     Gs1   v080
	BYTE	W01
	BYTE	W01
	BYTE	W01
	BYTE	W01
	BYTE	W01
	BYTE	W90
	BYTE	W01
	BYTE	PEND
// 013   ----------------------------------------
	BYTE	PATT
	 POIN2	ShovelKnightRequiemOfShieldKnight_2_011
	BYTE		EOT     Gs1 
	BYTE	W01
	BYTE		N44     Bn1   v044
	BYTE	W48
// 014   ----------------------------------------
ShovelKnightRequiemOfShieldKnight_2_014:
	BYTE		TIE     An1   v044
	BYTE	W96
	BYTE	PEND
// 015   ----------------------------------------
ShovelKnightRequiemOfShieldKnight_2_015:
	BYTE	W92
	BYTE	W03
	BYTE	PEND
	BYTE		EOT     An1 
	BYTE	W01
// 016   ----------------------------------------
	BYTE	W96
// 017   ----------------------------------------
	BYTE	W96
// 018   ----------------------------------------
ShovelKnightRequiemOfShieldKnight_2_018:
	BYTE		TIE     Dn1   v044
	BYTE	W96
	BYTE	PEND
// 019   ----------------------------------------
	BYTE	PATT
	 POIN2	ShovelKnightRequiemOfShieldKnight_2_015
	BYTE		EOT     Dn1 
	BYTE	W01
// 020   ----------------------------------------
ShovelKnightRequiemOfShieldKnight_2_020:
	BYTE		TIE     Bn0   v044
	BYTE	W96
	BYTE	PEND
// 021   ----------------------------------------
	BYTE	PATT
	 POIN2	ShovelKnightRequiemOfShieldKnight_2_015
	BYTE		EOT     Bn0 
	BYTE	W01
// 022   ----------------------------------------
ShovelKnightRequiemOfShieldKnight_2_022:
	BYTE		TIE     Fs1   v044
	BYTE	W96
	BYTE	PEND
// 023   ----------------------------------------
	BYTE	PATT
	 POIN2	ShovelKnightRequiemOfShieldKnight_2_015
	BYTE		EOT     Fs1 
	BYTE	W01
// 024   ----------------------------------------
ShovelKnightRequiemOfShieldKnight_2_024:
	BYTE		N44     Gs1   v044
	BYTE	W48
	BYTE		        An1 
	BYTE	W48
	BYTE	PEND
// 025   ----------------------------------------
	BYTE	W96
// 026   ----------------------------------------
	BYTE	PATT
	 POIN2	ShovelKnightRequiemOfShieldKnight_2_020
// 027   ----------------------------------------
	BYTE	PATT
	 POIN2	ShovelKnightRequiemOfShieldKnight_2_011
	BYTE		EOT     Bn0 
	BYTE	W01
	BYTE		N23     Bn0   v044
	BYTE	W24
	BYTE		        An0 
	BYTE	W24
// 028   ----------------------------------------
ShovelKnightRequiemOfShieldKnight_2_028:
	BYTE		TIE     Gs0   v044
	BYTE	W96
	BYTE	PEND
// 029   ----------------------------------------
	BYTE	PATT
	 POIN2	ShovelKnightRequiemOfShieldKnight_2_011
	BYTE		EOT     Gs0 
	BYTE	W01
	BYTE		N44     Bn0   v044
	BYTE	W48
// 030   ----------------------------------------
	BYTE	PATT
	 POIN2	ShovelKnightRequiemOfShieldKnight_2_014
// 031   ----------------------------------------
	BYTE	PATT
	 POIN2	ShovelKnightRequiemOfShieldKnight_2_015
	BYTE		EOT     An1 
	BYTE	W01
// 032   ----------------------------------------
	BYTE	W96
// 033   ----------------------------------------
	BYTE	W96
// 034   ----------------------------------------
	BYTE	W96
// 035   ----------------------------------------
	BYTE	W96
// 036   ----------------------------------------
	BYTE	W96
// 037   ----------------------------------------
	BYTE	W96
// 038   ----------------------------------------
	BYTE	W96
// 039   ----------------------------------------
ShovelKnightRequiemOfShieldKnight_2_039:
	BYTE	W48
	BYTE		N44     Cs1   v127
	BYTE	W01
	BYTE	W01
	BYTE	W01
	BYTE	W01
	BYTE	W01
	BYTE	W01
	BYTE	W01
	BYTE	W02
	BYTE	W01
	BYTE	W02
	BYTE	W01
	BYTE	W02
	BYTE	W01
	BYTE	W02
	BYTE	W01
	BYTE	W02
	BYTE	W01
	BYTE	W02
	BYTE	W01
	BYTE	W02
	BYTE	W01
	BYTE	W02
	BYTE	W01
	BYTE	W02
	BYTE	W01
	BYTE	W02
	BYTE	W01
	BYTE	W02
	BYTE	W01
	BYTE	W02
	BYTE	W01
	BYTE	W02
	BYTE	W01
	BYTE	W02
	BYTE	PEND
// 040   ----------------------------------------
	BYTE	PATT
	 POIN2	ShovelKnightRequiemOfShieldKnight_2_022
// 041   ----------------------------------------
	BYTE	PATT
	 POIN2	ShovelKnightRequiemOfShieldKnight_2_015
	BYTE		EOT     Fs1 
	BYTE	W01
// 042   ----------------------------------------
ShovelKnightRequiemOfShieldKnight_2_042:
	BYTE		N92     Bn1   v044
	BYTE	W96
	BYTE	PEND
// 043   ----------------------------------------
ShovelKnightRequiemOfShieldKnight_2_043:
	BYTE		N23     Bn1   v044
	BYTE	W24
	BYTE		        Cs2 
	BYTE	W24
	BYTE		        Dn2 
	BYTE	W24
	BYTE		        Bn1 
	BYTE	W24
	BYTE	PEND
// 044   ----------------------------------------
ShovelKnightRequiemOfShieldKnight_2_044:
	BYTE		TIE     Gs1   v044
	BYTE	W96
	BYTE	PEND
// 045   ----------------------------------------
	BYTE	PATT
	 POIN2	ShovelKnightRequiemOfShieldKnight_2_011
	BYTE		EOT     Gs1 
	BYTE	W01
	BYTE		N44     Bn1   v044
	BYTE	W48
// 046   ----------------------------------------
ShovelKnightRequiemOfShieldKnight_2_046:
	BYTE		N92     An1   v044
	BYTE	W96
	BYTE	PEND
// 047   ----------------------------------------
ShovelKnightRequiemOfShieldKnight_2_047:
	BYTE		N68     An1   v044
	BYTE	W72
	BYTE		N11   
	BYTE	W12
	BYTE		        Gs1 
	BYTE	W12
	BYTE	PEND
// 048   ----------------------------------------
ShovelKnightRequiemOfShieldKnight_2_048:
	BYTE		N92     Fs1   v044
	BYTE	W96
	BYTE	PEND
// 049   ----------------------------------------
	BYTE	W96
	BYTE	GoTo
	 POIN2	ShovelKnightRequiemOfShieldKnight_2_B1
ShovelKnightRequiemOfShieldKnight_2_B2:
// 050   ----------------------------------------
	BYTE	PATT
	 POIN2	ShovelKnightRequiemOfShieldKnight_2_002
// 051   ----------------------------------------
	BYTE	PATT
	 POIN2	ShovelKnightRequiemOfShieldKnight_2_002
// 052   ----------------------------------------
	BYTE	PATT
	 POIN2	ShovelKnightRequiemOfShieldKnight_2_004
// 053   ----------------------------------------
	BYTE	PATT
	 POIN2	ShovelKnightRequiemOfShieldKnight_2_005
// 054   ----------------------------------------
	BYTE	W96
// 055   ----------------------------------------
	BYTE	W96
// 056   ----------------------------------------
	BYTE	PATT
	 POIN2	ShovelKnightRequiemOfShieldKnight_2_008
// 057   ----------------------------------------
	BYTE	W96
// 058   ----------------------------------------
	BYTE	PATT
	 POIN2	ShovelKnightRequiemOfShieldKnight_2_010
// 059   ----------------------------------------
	BYTE	PATT
	 POIN2	ShovelKnightRequiemOfShieldKnight_2_011
	BYTE		EOT     Bn1 
	BYTE	W01
	BYTE		N23     Bn1   v080
	BYTE	W01
	BYTE	W01
	BYTE	W01
	BYTE	W01
	BYTE	W01
	BYTE	W19
	BYTE		        An1 
	BYTE	W01
	BYTE	W01
	BYTE	W01
	BYTE	W01
	BYTE	W01
	BYTE	W19
// 060   ----------------------------------------
	BYTE	PATT
	 POIN2	ShovelKnightRequiemOfShieldKnight_2_012
// 061   ----------------------------------------
	BYTE	PATT
	 POIN2	ShovelKnightRequiemOfShieldKnight_2_011
	BYTE		EOT     Gs1 
	BYTE	W01
	BYTE		N44     Bn1   v044
	BYTE	W48
// 062   ----------------------------------------
	BYTE	PATT
	 POIN2	ShovelKnightRequiemOfShieldKnight_2_014
// 063   ----------------------------------------
	BYTE	PATT
	 POIN2	ShovelKnightRequiemOfShieldKnight_2_015
	BYTE		EOT     An1 
	BYTE	W01
// 064   ----------------------------------------
	BYTE	W96
// 065   ----------------------------------------
	BYTE	W96
// 066   ----------------------------------------
	BYTE	PATT
	 POIN2	ShovelKnightRequiemOfShieldKnight_2_018
// 067   ----------------------------------------
	BYTE	PATT
	 POIN2	ShovelKnightRequiemOfShieldKnight_2_015
	BYTE		EOT     Dn1 
	BYTE	W01
// 068   ----------------------------------------
	BYTE	PATT
	 POIN2	ShovelKnightRequiemOfShieldKnight_2_020
// 069   ----------------------------------------
	BYTE	PATT
	 POIN2	ShovelKnightRequiemOfShieldKnight_2_015
	BYTE		EOT     Bn0 
	BYTE	W01
// 070   ----------------------------------------
	BYTE	PATT
	 POIN2	ShovelKnightRequiemOfShieldKnight_2_022
// 071   ----------------------------------------
	BYTE	PATT
	 POIN2	ShovelKnightRequiemOfShieldKnight_2_015
	BYTE		EOT     Fs1 
	BYTE	W01
// 072   ----------------------------------------
	BYTE	PATT
	 POIN2	ShovelKnightRequiemOfShieldKnight_2_024
// 073   ----------------------------------------
	BYTE	W96
// 074   ----------------------------------------
	BYTE	PATT
	 POIN2	ShovelKnightRequiemOfShieldKnight_2_020
// 075   ----------------------------------------
	BYTE	PATT
	 POIN2	ShovelKnightRequiemOfShieldKnight_2_011
	BYTE		EOT     Bn0 
	BYTE	W01
	BYTE		N23     Bn0   v044
	BYTE	W24
	BYTE		        An0 
	BYTE	W24
// 076   ----------------------------------------
	BYTE	PATT
	 POIN2	ShovelKnightRequiemOfShieldKnight_2_028
// 077   ----------------------------------------
	BYTE	PATT
	 POIN2	ShovelKnightRequiemOfShieldKnight_2_011
	BYTE		EOT     Gs0 
	BYTE	W01
	BYTE		N44     Bn0   v044
	BYTE	W48
// 078   ----------------------------------------
	BYTE	PATT
	 POIN2	ShovelKnightRequiemOfShieldKnight_2_014
// 079   ----------------------------------------
	BYTE	PATT
	 POIN2	ShovelKnightRequiemOfShieldKnight_2_015
	BYTE		EOT     An1 
	BYTE	W01
// 080   ----------------------------------------
	BYTE	W96
// 081   ----------------------------------------
	BYTE	W96
// 082   ----------------------------------------
	BYTE	W96
// 083   ----------------------------------------
	BYTE	W96
// 084   ----------------------------------------
	BYTE	W96
// 085   ----------------------------------------
	BYTE	W96
// 086   ----------------------------------------
	BYTE	W96
// 087   ----------------------------------------
	BYTE	PATT
	 POIN2	ShovelKnightRequiemOfShieldKnight_2_039
// 088   ----------------------------------------
	BYTE	PATT
	 POIN2	ShovelKnightRequiemOfShieldKnight_2_022
// 089   ----------------------------------------
	BYTE	PATT
	 POIN2	ShovelKnightRequiemOfShieldKnight_2_015
	BYTE		EOT     Fs1 
	BYTE	W01
// 090   ----------------------------------------
	BYTE	PATT
	 POIN2	ShovelKnightRequiemOfShieldKnight_2_042
// 091   ----------------------------------------
	BYTE	PATT
	 POIN2	ShovelKnightRequiemOfShieldKnight_2_043
// 092   ----------------------------------------
	BYTE	PATT
	 POIN2	ShovelKnightRequiemOfShieldKnight_2_044
// 093   ----------------------------------------
	BYTE	PATT
	 POIN2	ShovelKnightRequiemOfShieldKnight_2_011
	BYTE		EOT     Gs1 
	BYTE	W01
	BYTE		N44     Bn1   v044
	BYTE	W48
// 094   ----------------------------------------
	BYTE	PATT
	 POIN2	ShovelKnightRequiemOfShieldKnight_2_046
// 095   ----------------------------------------
	BYTE	PATT
	 POIN2	ShovelKnightRequiemOfShieldKnight_2_047
// 096   ----------------------------------------
	BYTE	PATT
	 POIN2	ShovelKnightRequiemOfShieldKnight_2_048
// 097   ----------------------------------------
	BYTE	W96
// 098   ----------------------------------------
	BYTE	W96
// 099   ----------------------------------------
	BYTE		N44     Dn1   v044
	BYTE	W96
// 100   ----------------------------------------
	BYTE		N23     Bn0 
	BYTE	W48
	BYTE		        An1 
	BYTE	W48
// 101   ----------------------------------------
	BYTE		N44     Cs2 
	BYTE	W96
// 102   ----------------------------------------
	BYTE	W96
// 103   ----------------------------------------
	BYTE	W96
	BYTE	W48
// 104   ----------------------------------------
	BYTE	W96
// 105   ----------------------------------------
	BYTE		TIE     Fs1   v004
	BYTE	W01
	BYTE	W02
	BYTE	W01
	BYTE	W02
	BYTE	W01
	BYTE	W02
	BYTE	W01
	BYTE	W02
	BYTE	W01
	BYTE	W02
	BYTE	W01
	BYTE	W02
	BYTE	W01
	BYTE	W02
	BYTE	W01
	BYTE	W02
	BYTE	W01
	BYTE	W02
	BYTE	W01
	BYTE	W02
	BYTE	W01
	BYTE	W02
	BYTE	W01
	BYTE	W02
	BYTE	W01
	BYTE	W02
	BYTE	W01
	BYTE	W02
	BYTE	W01
	BYTE	W02
	BYTE	W01
	BYTE	W02
	BYTE	W01
	BYTE	W02
	BYTE	W01
	BYTE	W02
	BYTE	W01
	BYTE	W02
	BYTE	W01
	BYTE	W02
	BYTE	W01
	BYTE	W02
	BYTE	W01
	BYTE	W02
	BYTE	W01
	BYTE	W02
	BYTE	W01
	BYTE	W02
	BYTE	W01
	BYTE	W02
	BYTE	W01
	BYTE	W02
	BYTE	W01
	BYTE	W02
	BYTE	W01
	BYTE	W02
	BYTE	W01
	BYTE	W02
	BYTE	W01
	BYTE	W02
	BYTE	W01
	BYTE	W02
	BYTE	W01
	BYTE	W02
// 106   ----------------------------------------
	BYTE	W92
	BYTE	W03
	BYTE		EOT   
	BYTE	FINE

//**************** Track 3 (Midi-Chn.4) ****************//

ShovelKnightRequiemOfShieldKnight_3:
	BYTE	KEYSH   ShovelKnightRequiemOfShieldKnight_key+0
// 000   ----------------------------------------
	BYTE		VOICE   50
	BYTE		MODT    0
	BYTE		LFOS    44
	BYTE		VOL     60*ShovelKnightRequiemOfShieldKnight_mvl/mxv
	BYTE		PAN     c_v+0
	BYTE		        c_v+0
	BYTE	W96
// 001   ----------------------------------------
	BYTE		N44     An3   v016
	BYTE	W48
	BYTE		N68     An4 
	BYTE	W48
ShovelKnightRequiemOfShieldKnight_3_B1:
// 002   ----------------------------------------
	BYTE	W96
// 003   ----------------------------------------
	BYTE	W96
// 004   ----------------------------------------
	BYTE	W96
// 005   ----------------------------------------
ShovelKnightRequiemOfShieldKnight_3_005:
	BYTE	W48
	BYTE		N23     Fs3   v060
	BYTE	W24
	BYTE		        Gs3 
	BYTE	W24
	BYTE	PEND
// 006   ----------------------------------------
ShovelKnightRequiemOfShieldKnight_3_006:
	BYTE		N44     Gs3   v060
	BYTE	W48
	BYTE		        An3 
	BYTE	W48
	BYTE	PEND
// 007   ----------------------------------------
ShovelKnightRequiemOfShieldKnight_3_007:
	BYTE		N44     Fs3   v060
	BYTE	W48
	BYTE		N23     Gs3 
	BYTE	W24
	BYTE		        An3 
	BYTE	W24
	BYTE	PEND
// 008   ----------------------------------------
ShovelKnightRequiemOfShieldKnight_3_008:
	BYTE		N44     Bn2   v060
	BYTE	W48
	BYTE		        An3 
	BYTE	W48
	BYTE	PEND
// 009   ----------------------------------------
	BYTE	PATT
	 POIN2	ShovelKnightRequiemOfShieldKnight_3_007
// 010   ----------------------------------------
	BYTE	W96
// 011   ----------------------------------------
ShovelKnightRequiemOfShieldKnight_3_011:
	BYTE	W48
	BYTE		N92     Cs4   v060
	BYTE	W48
	BYTE	PEND
// 012   ----------------------------------------
ShovelKnightRequiemOfShieldKnight_3_012:
	BYTE	W48
	BYTE		N92     Bn3   v060
	BYTE	W48
	BYTE	PEND
// 013   ----------------------------------------
ShovelKnightRequiemOfShieldKnight_3_013:
	BYTE	W48
	BYTE		N32     Cs4   v060
	BYTE	W36
	BYTE		N05     Dn4 
	BYTE	W06
	BYTE		        Cs4 
	BYTE	W06
	BYTE	PEND
// 014   ----------------------------------------
ShovelKnightRequiemOfShieldKnight_3_014:
	BYTE		N92     Bn3   v060
	BYTE	W96
	BYTE	PEND
// 015   ----------------------------------------
	BYTE	PATT
	 POIN2	ShovelKnightRequiemOfShieldKnight_3_007
// 016   ----------------------------------------
ShovelKnightRequiemOfShieldKnight_3_016:
	BYTE		N92     An3   v060
	BYTE	W96
	BYTE	PEND
// 017   ----------------------------------------
ShovelKnightRequiemOfShieldKnight_3_017:
	BYTE		N23     Fs3   v060
	BYTE	W24
	BYTE		        Gs3 
	BYTE	W24
	BYTE		        An3 
	BYTE	W24
	BYTE		        Cs4 
	BYTE	W24
	BYTE	PEND
// 018   ----------------------------------------
ShovelKnightRequiemOfShieldKnight_3_018:
	BYTE		N11     En4   v028
	BYTE	W24
	BYTE		N11   
	BYTE	W24
	BYTE		N11   
	BYTE	W24
	BYTE		N11   
	BYTE	W24
	BYTE	PEND
// 019   ----------------------------------------
ShovelKnightRequiemOfShieldKnight_3_019:
	BYTE		N11     Dn4   v028
	BYTE	W24
	BYTE		N11   
	BYTE	W24
	BYTE		N11   
	BYTE	W24
	BYTE		N11   
	BYTE	W24
	BYTE	PEND
// 020   ----------------------------------------
	BYTE	PATT
	 POIN2	ShovelKnightRequiemOfShieldKnight_3_019
// 021   ----------------------------------------
ShovelKnightRequiemOfShieldKnight_3_021:
	BYTE		N11     Dn4   v028
	BYTE	W24
	BYTE		N11   
	BYTE	W24
	BYTE		        Bn3 
	BYTE	W24
	BYTE		N11   
	BYTE	W24
	BYTE	PEND
// 022   ----------------------------------------
ShovelKnightRequiemOfShieldKnight_3_022:
	BYTE		N11     Cs4   v028
	BYTE	W24
	BYTE		N11   
	BYTE	W24
	BYTE		        An3 
	BYTE	W24
	BYTE		N11   
	BYTE	W24
	BYTE	PEND
// 023   ----------------------------------------
ShovelKnightRequiemOfShieldKnight_3_023:
	BYTE		N11     Cs4   v028
	BYTE	W24
	BYTE		N11   
	BYTE	W24
	BYTE		        Gs4 
	BYTE	W24
	BYTE		        Fs4 
	BYTE	W24
	BYTE	PEND
// 024   ----------------------------------------
ShovelKnightRequiemOfShieldKnight_3_024:
	BYTE		N11     Gs4   v028
	BYTE	W24
	BYTE		N11   
	BYTE	W24
	BYTE		        Fs4 
	BYTE	W24
	BYTE		N11   
	BYTE	W24
	BYTE	PEND
// 025   ----------------------------------------
ShovelKnightRequiemOfShieldKnight_3_025:
	BYTE		N11     Cs4   v028
	BYTE	W24
	BYTE		        Fs4 
	BYTE	W24
	BYTE		        Cs4 
	BYTE	W24
	BYTE		N11   
	BYTE	W24
	BYTE	PEND
// 026   ----------------------------------------
ShovelKnightRequiemOfShieldKnight_3_026:
	BYTE		N11     Fs3   v028
	BYTE	W24
	BYTE		N11   
	BYTE	W24
	BYTE		N11   
	BYTE	W24
	BYTE		N11   
	BYTE	W24
	BYTE	PEND
// 027   ----------------------------------------
ShovelKnightRequiemOfShieldKnight_3_027:
	BYTE		N11     Cs4   v028
	BYTE	W24
	BYTE		N11   
	BYTE	W24
	BYTE		N11   
	BYTE	W24
	BYTE		N11   
	BYTE	W24
	BYTE	PEND
// 028   ----------------------------------------
	BYTE	PATT
	 POIN2	ShovelKnightRequiemOfShieldKnight_3_021
// 029   ----------------------------------------
ShovelKnightRequiemOfShieldKnight_3_029:
	BYTE		N11     Bn3   v028
	BYTE	W24
	BYTE		N11   
	BYTE	W24
	BYTE		        Cs4 
	BYTE	W24
	BYTE		N11   
	BYTE	W24
	BYTE	PEND
// 030   ----------------------------------------
	BYTE	PATT
	 POIN2	ShovelKnightRequiemOfShieldKnight_3_027
// 031   ----------------------------------------
ShovelKnightRequiemOfShieldKnight_3_031:
	BYTE		N11     Cs4   v028
	BYTE	W13
	BYTE	W11
	BYTE		N11   
	BYTE	W03
	BYTE	W13
	BYTE	W08
	BYTE		        Gs4   v024
	BYTE	W06
	BYTE	W13
	BYTE	W05
	BYTE		        Fs4 
	BYTE	W09
	BYTE	W13
	BYTE	W02
	BYTE	PEND
// 032   ----------------------------------------
ShovelKnightRequiemOfShieldKnight_3_032:
	BYTE		N11     Fs4   v020
	BYTE	W12
	BYTE	W12
	BYTE		N11   
	BYTE	W01
	BYTE	W14
	BYTE	W09
	BYTE		N11   
	BYTE	W04
	BYTE	W14
	BYTE	W13
	BYTE	W14
	BYTE	W03
	BYTE	PEND
// 033   ----------------------------------------
ShovelKnightRequiemOfShieldKnight_3_033:
	BYTE		N11     Cs4   v016
	BYTE	W10
	BYTE	W14
	BYTE		N11   
	BYTE	W72
	BYTE	PEND
// 034   ----------------------------------------
ShovelKnightRequiemOfShieldKnight_3_034:
	BYTE		N11     En4   v016
	BYTE	W03
	BYTE	W03
	BYTE	W03
	BYTE	W03
	BYTE	W03
	BYTE	W03
	BYTE	W03
	BYTE	W03
	BYTE		        En4   v020
	BYTE	W03
	BYTE	W04
	BYTE	W03
	BYTE	W03
	BYTE	W03
	BYTE	W03
	BYTE	W03
	BYTE	W03
	BYTE	W03
	BYTE	W03
	BYTE	W03
	BYTE	W03
	BYTE	W04
	BYTE	W03
	BYTE	W03
	BYTE	W03
	BYTE	W03
	BYTE	W03
	BYTE	W03
	BYTE	W03
	BYTE	W03
	BYTE	W03
	BYTE	W04
	BYTE	PEND
// 035   ----------------------------------------
ShovelKnightRequiemOfShieldKnight_3_035:
	BYTE		N11     Dn4   v044
	BYTE	W24
	BYTE		N11   
	BYTE	W24
	BYTE		N11   
	BYTE	W24
	BYTE		N11   
	BYTE	W24
	BYTE	PEND
// 036   ----------------------------------------
	BYTE	PATT
	 POIN2	ShovelKnightRequiemOfShieldKnight_3_035
// 037   ----------------------------------------
ShovelKnightRequiemOfShieldKnight_3_037:
	BYTE		N11     Dn4   v044
	BYTE	W24
	BYTE		N11   
	BYTE	W24
	BYTE		        Bn3 
	BYTE	W24
	BYTE		N11   
	BYTE	W24
	BYTE	PEND
// 038   ----------------------------------------
ShovelKnightRequiemOfShieldKnight_3_038:
	BYTE		N11     Cs4   v044
	BYTE	W24
	BYTE		N11   
	BYTE	W24
	BYTE		        An3 
	BYTE	W24
	BYTE		N11   
	BYTE	W24
	BYTE	PEND
// 039   ----------------------------------------
ShovelKnightRequiemOfShieldKnight_3_039:
	BYTE		N11     Cs4   v044
	BYTE	W24
	BYTE		N11   
	BYTE	W48
	BYTE		        Fs4 
	BYTE	W24
	BYTE	PEND
// 040   ----------------------------------------
ShovelKnightRequiemOfShieldKnight_3_040:
	BYTE		N11     Gs4   v044
	BYTE	W24
	BYTE		N11   
	BYTE	W24
	BYTE		        Fs4 
	BYTE	W24
	BYTE		N11   
	BYTE	W24
	BYTE	PEND
// 041   ----------------------------------------
ShovelKnightRequiemOfShieldKnight_3_041:
	BYTE		N11     Cs4   v044
	BYTE	W48
	BYTE		N11   
	BYTE	W24
	BYTE		N11   
	BYTE	W24
	BYTE	PEND
// 042   ----------------------------------------
ShovelKnightRequiemOfShieldKnight_3_042:
	BYTE		N11     Fs3   v044
	BYTE	W24
	BYTE		N11   
	BYTE	W24
	BYTE		N11   
	BYTE	W24
	BYTE		N11   
	BYTE	W24
	BYTE	PEND
// 043   ----------------------------------------
ShovelKnightRequiemOfShieldKnight_3_043:
	BYTE		N11     Fs3   v044
	BYTE	W24
	BYTE		N11   
	BYTE	W24
	BYTE		        Cs4 
	BYTE	W24
	BYTE		N11   
	BYTE	W24
	BYTE	PEND
// 044   ----------------------------------------
	BYTE	PATT
	 POIN2	ShovelKnightRequiemOfShieldKnight_3_037
// 045   ----------------------------------------
ShovelKnightRequiemOfShieldKnight_3_045:
	BYTE		N11     Bn3   v044
	BYTE	W24
	BYTE		N11   
	BYTE	W24
	BYTE		        Cs4 
	BYTE	W24
	BYTE		N11   
	BYTE	W24
	BYTE	PEND
// 046   ----------------------------------------
ShovelKnightRequiemOfShieldKnight_3_046:
	BYTE		N11     Cs4   v044
	BYTE	W24
	BYTE		N11   
	BYTE	W24
	BYTE		N11   
	BYTE	W24
	BYTE		N11   
	BYTE	W24
	BYTE	PEND
// 047   ----------------------------------------
ShovelKnightRequiemOfShieldKnight_3_047:
	BYTE		N11     Cs4   v044
	BYTE	W24
	BYTE		N11   
	BYTE	W24
	BYTE		N11   
	BYTE	W24
	BYTE		        Fs4 
	BYTE	W24
	BYTE	PEND
// 048   ----------------------------------------
ShovelKnightRequiemOfShieldKnight_3_048:
	BYTE		N44     An3   v044
	BYTE	W06
	BYTE	W06
	BYTE	W06
	BYTE	W06
	BYTE	W06
	BYTE	W06
	BYTE	W06
	BYTE	W06
	BYTE		        Bn3   v052
	BYTE	W06
	BYTE	W06
	BYTE	W06
	BYTE	W06
	BYTE	W06
	BYTE	W06
	BYTE	W06
	BYTE	W06
	BYTE	PEND
// 049   ----------------------------------------
ShovelKnightRequiemOfShieldKnight_3_049:
	BYTE		N56     Cs4   v060
	BYTE	W48
	BYTE	W12
	BYTE		N11   
	BYTE	W01
	BYTE	W01
	BYTE	W01
	BYTE	W01
	BYTE	W01
	BYTE	W07
	BYTE		        An3 
	BYTE	W01
	BYTE	W01
	BYTE	W01
	BYTE	W01
	BYTE	W01
	BYTE	W07
	BYTE		        Gs3 
	BYTE	W01
	BYTE	W01
	BYTE	W01
	BYTE	W01
	BYTE	W01
	BYTE	W07
	BYTE	PEND
	BYTE	GoTo
	 POIN2	ShovelKnightRequiemOfShieldKnight_3_B1
ShovelKnightRequiemOfShieldKnight_3_B2:
// 050   ----------------------------------------
	BYTE	W96
// 051   ----------------------------------------
	BYTE	W96
// 052   ----------------------------------------
	BYTE	W96
// 053   ----------------------------------------
	BYTE	PATT
	 POIN2	ShovelKnightRequiemOfShieldKnight_3_005
// 054   ----------------------------------------
	BYTE	PATT
	 POIN2	ShovelKnightRequiemOfShieldKnight_3_006
// 055   ----------------------------------------
	BYTE	PATT
	 POIN2	ShovelKnightRequiemOfShieldKnight_3_007
// 056   ----------------------------------------
	BYTE	PATT
	 POIN2	ShovelKnightRequiemOfShieldKnight_3_008
// 057   ----------------------------------------
	BYTE	PATT
	 POIN2	ShovelKnightRequiemOfShieldKnight_3_007
// 058   ----------------------------------------
	BYTE	W96
// 059   ----------------------------------------
	BYTE	PATT
	 POIN2	ShovelKnightRequiemOfShieldKnight_3_011
// 060   ----------------------------------------
	BYTE	PATT
	 POIN2	ShovelKnightRequiemOfShieldKnight_3_012
// 061   ----------------------------------------
	BYTE	PATT
	 POIN2	ShovelKnightRequiemOfShieldKnight_3_013
// 062   ----------------------------------------
	BYTE	PATT
	 POIN2	ShovelKnightRequiemOfShieldKnight_3_014
// 063   ----------------------------------------
	BYTE	PATT
	 POIN2	ShovelKnightRequiemOfShieldKnight_3_007
// 064   ----------------------------------------
	BYTE	PATT
	 POIN2	ShovelKnightRequiemOfShieldKnight_3_016
// 065   ----------------------------------------
	BYTE	PATT
	 POIN2	ShovelKnightRequiemOfShieldKnight_3_017
// 066   ----------------------------------------
	BYTE	PATT
	 POIN2	ShovelKnightRequiemOfShieldKnight_3_018
// 067   ----------------------------------------
	BYTE	PATT
	 POIN2	ShovelKnightRequiemOfShieldKnight_3_019
// 068   ----------------------------------------
	BYTE	PATT
	 POIN2	ShovelKnightRequiemOfShieldKnight_3_019
// 069   ----------------------------------------
	BYTE	PATT
	 POIN2	ShovelKnightRequiemOfShieldKnight_3_021
// 070   ----------------------------------------
	BYTE	PATT
	 POIN2	ShovelKnightRequiemOfShieldKnight_3_022
// 071   ----------------------------------------
	BYTE	PATT
	 POIN2	ShovelKnightRequiemOfShieldKnight_3_023
// 072   ----------------------------------------
	BYTE	PATT
	 POIN2	ShovelKnightRequiemOfShieldKnight_3_024
// 073   ----------------------------------------
	BYTE	PATT
	 POIN2	ShovelKnightRequiemOfShieldKnight_3_025
// 074   ----------------------------------------
	BYTE	PATT
	 POIN2	ShovelKnightRequiemOfShieldKnight_3_026
// 075   ----------------------------------------
	BYTE	PATT
	 POIN2	ShovelKnightRequiemOfShieldKnight_3_027
// 076   ----------------------------------------
	BYTE	PATT
	 POIN2	ShovelKnightRequiemOfShieldKnight_3_021
// 077   ----------------------------------------
	BYTE	PATT
	 POIN2	ShovelKnightRequiemOfShieldKnight_3_029
// 078   ----------------------------------------
	BYTE	PATT
	 POIN2	ShovelKnightRequiemOfShieldKnight_3_027
// 079   ----------------------------------------
	BYTE	PATT
	 POIN2	ShovelKnightRequiemOfShieldKnight_3_031
// 080   ----------------------------------------
	BYTE	PATT
	 POIN2	ShovelKnightRequiemOfShieldKnight_3_032
// 081   ----------------------------------------
	BYTE	PATT
	 POIN2	ShovelKnightRequiemOfShieldKnight_3_033
// 082   ----------------------------------------
	BYTE	PATT
	 POIN2	ShovelKnightRequiemOfShieldKnight_3_034
// 083   ----------------------------------------
	BYTE	PATT
	 POIN2	ShovelKnightRequiemOfShieldKnight_3_035
// 084   ----------------------------------------
	BYTE	PATT
	 POIN2	ShovelKnightRequiemOfShieldKnight_3_035
// 085   ----------------------------------------
	BYTE	PATT
	 POIN2	ShovelKnightRequiemOfShieldKnight_3_037
// 086   ----------------------------------------
	BYTE	PATT
	 POIN2	ShovelKnightRequiemOfShieldKnight_3_038
// 087   ----------------------------------------
	BYTE	PATT
	 POIN2	ShovelKnightRequiemOfShieldKnight_3_039
// 088   ----------------------------------------
	BYTE	PATT
	 POIN2	ShovelKnightRequiemOfShieldKnight_3_040
// 089   ----------------------------------------
	BYTE	PATT
	 POIN2	ShovelKnightRequiemOfShieldKnight_3_041
// 090   ----------------------------------------
	BYTE	PATT
	 POIN2	ShovelKnightRequiemOfShieldKnight_3_042
// 091   ----------------------------------------
	BYTE	PATT
	 POIN2	ShovelKnightRequiemOfShieldKnight_3_043
// 092   ----------------------------------------
	BYTE	PATT
	 POIN2	ShovelKnightRequiemOfShieldKnight_3_037
// 093   ----------------------------------------
	BYTE	PATT
	 POIN2	ShovelKnightRequiemOfShieldKnight_3_045
// 094   ----------------------------------------
	BYTE	PATT
	 POIN2	ShovelKnightRequiemOfShieldKnight_3_046
// 095   ----------------------------------------
	BYTE	PATT
	 POIN2	ShovelKnightRequiemOfShieldKnight_3_047
// 096   ----------------------------------------
	BYTE	PATT
	 POIN2	ShovelKnightRequiemOfShieldKnight_3_048
// 097   ----------------------------------------
	BYTE	PATT
	 POIN2	ShovelKnightRequiemOfShieldKnight_3_049
// 098   ----------------------------------------
	BYTE	W96
// 099   ----------------------------------------
	BYTE		N44     An3   v060
	BYTE	W96
// 100   ----------------------------------------
	BYTE		N23     Fs3 
	BYTE	W48
	BYTE		        En3 
	BYTE	W48
// 101   ----------------------------------------
	BYTE		N44     Fn3 
	BYTE	W96
// 102   ----------------------------------------
	BYTE	W96
// 103   ----------------------------------------
	BYTE	W96
	BYTE	W48
// 104   ----------------------------------------
	BYTE	W96
// 105   ----------------------------------------
	BYTE		TIE     Gs3   v004
	BYTE	W01
	BYTE	W02
	BYTE	W01
	BYTE	W02
	BYTE	W01
	BYTE	W02
	BYTE	W01
	BYTE	W02
	BYTE	W01
	BYTE	W02
	BYTE	W01
	BYTE	W02
	BYTE	W01
	BYTE	W02
	BYTE	W01
	BYTE	W02
	BYTE	W01
	BYTE	W02
	BYTE	W01
	BYTE	W02
	BYTE	W01
	BYTE	W02
	BYTE	W01
	BYTE	W02
	BYTE	W01
	BYTE	W02
	BYTE	W01
	BYTE	W02
	BYTE	W01
	BYTE	W02
	BYTE	W01
	BYTE	W02
	BYTE	W01
	BYTE	W02
	BYTE	W01
	BYTE	W02
	BYTE	W01
	BYTE	W02
	BYTE	W01
	BYTE	W02
	BYTE	W01
	BYTE	W02
	BYTE	W01
	BYTE	W02
	BYTE	W01
	BYTE	W02
	BYTE	W01
	BYTE	W02
	BYTE	W01
	BYTE	W02
	BYTE	W01
	BYTE	W02
	BYTE	W01
	BYTE	W02
	BYTE	W01
	BYTE	W02
	BYTE	W01
	BYTE	W02
	BYTE	W01
	BYTE	W02
	BYTE	W01
	BYTE	W02
	BYTE	W01
	BYTE	W02
// 106   ----------------------------------------
	BYTE	W92
	BYTE	W03
	BYTE		EOT   
	BYTE	FINE

//**************** Track 4 (Midi-Chn.6) ****************//

ShovelKnightRequiemOfShieldKnight_4:
	BYTE	KEYSH   ShovelKnightRequiemOfShieldKnight_key+0
// 000   ----------------------------------------
	BYTE		VOICE   11
	BYTE		MODT    0
	BYTE		LFOS    44
	BYTE		VOL     85*ShovelKnightRequiemOfShieldKnight_mvl/mxv
	BYTE		PAN     c_v+0
	BYTE		VOL     85*ShovelKnightRequiemOfShieldKnight_mvl/mxv
	BYTE		PAN     c_v+0
	BYTE	W24
	BYTE		N11     Gs1   v024
	BYTE	W12
	BYTE		        An1   v028
	BYTE	W12
	BYTE		        Cs2   v032
	BYTE	W12
	BYTE		        Fs2   v040
	BYTE	W12
	BYTE		        Gs2   v048
	BYTE	W12
	BYTE		        An2   v052
	BYTE	W12
// 001   ----------------------------------------
	BYTE		N44     En2   v060
	BYTE		N44     Fs2 
	BYTE		N44     An2 
	BYTE	W12
	BYTE		N11     Fs3   v056
	BYTE	W12
	BYTE		N21     Cs3   v052
	BYTE	W12
	BYTE		N11     Fs3   v048
	BYTE	W12
	BYTE		N44     En2   v044
	BYTE		N44     Gs2 
	BYTE		N44     Cs3 
	BYTE		N11     Gs3 
	BYTE	W12
	BYTE		        An3   v040
	BYTE	W12
	BYTE		        Cs4   v036
	BYTE	W12
	BYTE		        Fs4   v032
	BYTE	W12
ShovelKnightRequiemOfShieldKnight_4_B1:
// 002   ----------------------------------------
	BYTE	W96
// 003   ----------------------------------------
	BYTE	W96
// 004   ----------------------------------------
	BYTE	W96
// 005   ----------------------------------------
	BYTE	W96
// 006   ----------------------------------------
	BYTE	W96
// 007   ----------------------------------------
	BYTE	W96
// 008   ----------------------------------------
	BYTE	W96
// 009   ----------------------------------------
	BYTE	W96
// 010   ----------------------------------------
	BYTE	W96
// 011   ----------------------------------------
	BYTE	W96
// 012   ----------------------------------------
	BYTE	W96
// 013   ----------------------------------------
	BYTE	W96
// 014   ----------------------------------------
	BYTE	W96
// 015   ----------------------------------------
	BYTE	W96
// 016   ----------------------------------------
	BYTE	W96
// 017   ----------------------------------------
ShovelKnightRequiemOfShieldKnight_4_017:
	BYTE		N11     Fs1   v028
	BYTE	W12
	BYTE		        Cs2 
	BYTE	W12
	BYTE		        Fs2   v032
	BYTE	W12
	BYTE		        Gs2   v044
	BYTE	W12
	BYTE		        Dn3   v052
	BYTE	W12
	BYTE		        En3   v060
	BYTE	W12
	BYTE		        Gs3   v072
	BYTE	W12
	BYTE		        An3   v080
	BYTE	W12
	BYTE	PEND
// 018   ----------------------------------------
ShovelKnightRequiemOfShieldKnight_4_018:
	BYTE		N22     Dn2   v044
	BYTE		N22     En2 
	BYTE		N22     Fs2 
	BYTE		N11     An3 
	BYTE	W12
	BYTE		N05     Gs3 
	BYTE	W06
	BYTE		        An3 
	BYTE	W06
	BYTE		N22     Dn2 
	BYTE		N22     En2 
	BYTE		N22     Fs2 
	BYTE		N05     Fs3 
	BYTE	W06
	BYTE		        Gs3 
	BYTE	W06
	BYTE		        Dn3 
	BYTE	W06
	BYTE		        Fs3 
	BYTE	W06
	BYTE		N22     Dn2 
	BYTE		N22     En2 
	BYTE		N22     Fs2 
	BYTE		N05     An3 
	BYTE	W06
	BYTE		        Dn3 
	BYTE	W06
	BYTE		        Gs3 
	BYTE	W06
	BYTE		        An3 
	BYTE	W06
	BYTE		N22     Dn2 
	BYTE		N22     En2 
	BYTE		N22     Fs2 
	BYTE		N05     Fs3 
	BYTE	W06
	BYTE		        Gs3 
	BYTE	W06
	BYTE		        Dn3 
	BYTE	W06
	BYTE		        Fs3 
	BYTE	W06
	BYTE	PEND
// 019   ----------------------------------------
ShovelKnightRequiemOfShieldKnight_4_019:
	BYTE		N22     Cs2   v044
	BYTE		N22     Dn2 
	BYTE		N22     An2 
	BYTE		N05     An3 
	BYTE	W06
	BYTE		        Dn3 
	BYTE	W06
	BYTE		        Gs3 
	BYTE	W06
	BYTE		        An3 
	BYTE	W06
	BYTE		N22     Cs2 
	BYTE		N22     Dn2 
	BYTE		N22     An2 
	BYTE		N05     Fs3 
	BYTE	W06
	BYTE		        Gs3 
	BYTE	W06
	BYTE		        Dn3 
	BYTE	W06
	BYTE		        Fs3 
	BYTE	W06
	BYTE		N22     Cs2 
	BYTE		N22     Dn2 
	BYTE		N22     An2 
	BYTE		N05     An3 
	BYTE	W06
	BYTE		        Dn3 
	BYTE	W06
	BYTE		        Gs3 
	BYTE	W06
	BYTE		        An3 
	BYTE	W06
	BYTE		N22     Cs2 
	BYTE		N22     Dn2 
	BYTE		N22     An2 
	BYTE		N05     Fs3 
	BYTE	W06
	BYTE		        Gs3 
	BYTE	W06
	BYTE		        Dn3 
	BYTE	W06
	BYTE		        Fs3 
	BYTE	W06
	BYTE	PEND
// 020   ----------------------------------------
ShovelKnightRequiemOfShieldKnight_4_020:
	BYTE		N22     Cs2   v044
	BYTE		N22     Dn2 
	BYTE		N22     Fs2 
	BYTE		N05     An3 
	BYTE	W06
	BYTE		        Dn3 
	BYTE	W06
	BYTE		        Gs3 
	BYTE	W06
	BYTE		        An3 
	BYTE	W06
	BYTE		N22     Bn1 
	BYTE		N22     Dn2 
	BYTE		N22     Fs2 
	BYTE		N05     Fs3 
	BYTE	W06
	BYTE		        Gs3 
	BYTE	W06
	BYTE		        Dn3 
	BYTE	W06
	BYTE		        Fs3 
	BYTE	W06
	BYTE		N22     Fs1 
	BYTE		N22     Dn2 
	BYTE		N22     Fs2 
	BYTE		N05     An3 
	BYTE	W06
	BYTE		        Dn3 
	BYTE	W06
	BYTE		        Gs3 
	BYTE	W06
	BYTE		        An3 
	BYTE	W06
	BYTE		N22     Fs1 
	BYTE		N22     Dn2 
	BYTE		N22     Fs2 
	BYTE		N05     Fs3 
	BYTE	W06
	BYTE		        Gs3 
	BYTE	W06
	BYTE		        Dn3 
	BYTE	W06
	BYTE		        Fs3 
	BYTE	W06
	BYTE	PEND
// 021   ----------------------------------------
ShovelKnightRequiemOfShieldKnight_4_021:
	BYTE		N22     Gs1   v044
	BYTE		N22     Dn2 
	BYTE		N22     Fs2 
	BYTE		N05     An3 
	BYTE	W06
	BYTE		        Dn3 
	BYTE	W06
	BYTE		        Gs3 
	BYTE	W06
	BYTE		        An3 
	BYTE	W06
	BYTE		N22     Gs1 
	BYTE		N22     Dn2 
	BYTE		N22     Fs2 
	BYTE		N05     Fs3 
	BYTE	W06
	BYTE		        Gs3 
	BYTE	W06
	BYTE		        Dn3 
	BYTE	W06
	BYTE		        Fs3 
	BYTE	W06
	BYTE		N22     Gs1 
	BYTE		N22     Bn1 
	BYTE		N22     Fs2 
	BYTE		N05     An3 
	BYTE	W06
	BYTE		        Dn3 
	BYTE	W06
	BYTE		        Gs3 
	BYTE	W06
	BYTE		        An3 
	BYTE	W06
	BYTE		N22     Gs1 
	BYTE		N22     Bn1 
	BYTE		N22     Gs2 
	BYTE		N05     Fs3 
	BYTE	W06
	BYTE		        Gs3 
	BYTE	W06
	BYTE		        Dn3 
	BYTE	W06
	BYTE		        Fs3 
	BYTE	W06
	BYTE	PEND
// 022   ----------------------------------------
ShovelKnightRequiemOfShieldKnight_4_022:
	BYTE		N22     Gs2   v044
	BYTE		N06     An2 
	BYTE		N22     Cs3 
	BYTE		N05     Gs3 
	BYTE	W06
	BYTE		N16     An2 
	BYTE	W06
	BYTE		N05     Fs3 
	BYTE	W06
	BYTE		        Gs3 
	BYTE	W06
	BYTE		N22     Gs2 
	BYTE		N12     An2 
	BYTE	W06
	BYTE		N05     Fs3 
	BYTE	W06
	BYTE		N10     An2 
	BYTE	W06
	BYTE		N05     Cs3 
	BYTE	W06
	BYTE		N22     Fs2 
	BYTE		N06     An2 
	BYTE		N22     Cs3 
	BYTE		N05     Gs3 
	BYTE	W06
	BYTE		N16     An2 
	BYTE	W06
	BYTE		N05     Fs3 
	BYTE	W06
	BYTE		        Gs3 
	BYTE	W06
	BYTE		N22     Fs2 
	BYTE		N12     An2 
	BYTE	W06
	BYTE		N05     Fs3 
	BYTE	W06
	BYTE		N10     An2 
	BYTE	W06
	BYTE		N05     Cs3 
	BYTE	W06
	BYTE	PEND
// 023   ----------------------------------------
ShovelKnightRequiemOfShieldKnight_4_023:
	BYTE		N22     Fs2   v044
	BYTE		N22     Gs2 
	BYTE		N22     Cs3 
	BYTE		N05     Gs3 
	BYTE	W06
	BYTE		        An2 
	BYTE	W06
	BYTE		        Fs3 
	BYTE	W06
	BYTE		        Gs3 
	BYTE	W06
	BYTE		N22     Fs2 
	BYTE		N22     Gs2 
	BYTE	W06
	BYTE		N05     Fs3 
	BYTE	W06
	BYTE		        An2 
	BYTE	W06
	BYTE		        Cs3 
	BYTE	W06
	BYTE		N22     Cs2 
	BYTE		N22     Gs2 
	BYTE		N05     Gs3 
	BYTE	W06
	BYTE		        An2 
	BYTE	W06
	BYTE		        Fs3 
	BYTE	W06
	BYTE		        Gs3 
	BYTE	W06
	BYTE		N22     Cs2 
	BYTE		N22     Fs2 
	BYTE		N12     An2 
	BYTE		N05     Cs3 
	BYTE	W06
	BYTE		        Fs3 
	BYTE	W06
	BYTE		N10     An2 
	BYTE	W06
	BYTE		N05     Cs3 
	BYTE	W06
	BYTE	PEND
// 024   ----------------------------------------
ShovelKnightRequiemOfShieldKnight_4_024:
	BYTE		N22     Cs2   v044
	BYTE		N22     Gs2 
	BYTE		N22     Bn2 
	BYTE		N05     Gs3 
	BYTE	W06
	BYTE		        An2 
	BYTE	W06
	BYTE		        Fs3 
	BYTE	W06
	BYTE		        Gs3 
	BYTE	W06
	BYTE		N22     Cs2 
	BYTE		N22     Gs2 
	BYTE		N22     Bn2 
	BYTE		N05     Cs3 
	BYTE	W06
	BYTE		        Fs3 
	BYTE	W06
	BYTE		        An2 
	BYTE	W06
	BYTE		        Cs3 
	BYTE	W06
	BYTE		N22     En2 
	BYTE		N22     Fs2 
	BYTE		N06     An2 
	BYTE		N05     Gs3 
	BYTE	W06
	BYTE		N16     An2 
	BYTE	W06
	BYTE		N05     Fs3 
	BYTE	W06
	BYTE		        Gs3 
	BYTE	W06
	BYTE		N22     En2 
	BYTE		N22     Fs2 
	BYTE		N12     An2 
	BYTE		N05     Cs3 
	BYTE	W06
	BYTE		        Fs3 
	BYTE	W06
	BYTE		N10     An2 
	BYTE	W06
	BYTE		N05     Cs3 
	BYTE	W06
	BYTE	PEND
// 025   ----------------------------------------
ShovelKnightRequiemOfShieldKnight_4_025:
	BYTE		N22     An1   v044
	BYTE		N22     En2 
	BYTE		N22     Fs2 
	BYTE		N05     Gs3 
	BYTE	W06
	BYTE		        An2 
	BYTE	W06
	BYTE		        Fs3 
	BYTE	W06
	BYTE		        Gs3 
	BYTE	W06
	BYTE		N22     An1 
	BYTE		N22     Fs2 
	BYTE		N05     Cs3 
	BYTE	W06
	BYTE		        Fs3 
	BYTE	W06
	BYTE		        An2 
	BYTE	W06
	BYTE		        Cs3 
	BYTE	W06
	BYTE		N22     Gs1 
	BYTE		N22     En2 
	BYTE		N22     Gs2 
	BYTE		N05     Gs3 
	BYTE	W06
	BYTE		        An2 
	BYTE	W06
	BYTE		        Fs3 
	BYTE	W06
	BYTE		        Gs3 
	BYTE	W06
	BYTE		N22     Fs1 
	BYTE		N22     En2 
	BYTE		N05     Cs3 
	BYTE	W06
	BYTE		        Fs3 
	BYTE	W06
	BYTE		        An2 
	BYTE	W06
	BYTE		        Cs3 
	BYTE	W06
	BYTE	PEND
// 026   ----------------------------------------
ShovelKnightRequiemOfShieldKnight_4_026:
	BYTE		N22     Cs2   v044
	BYTE		N22     En2 
	BYTE		N22     Fs2 
	BYTE		N05     Gs3 
	BYTE	W06
	BYTE		        An2 
	BYTE	W06
	BYTE		        Fs3 
	BYTE	W06
	BYTE		        Gs3 
	BYTE	W06
	BYTE		N22     Cs2 
	BYTE		N22     En2 
	BYTE		N22     Fs2 
	BYTE		N05     Dn3 
	BYTE	W06
	BYTE		        Fs3 
	BYTE	W06
	BYTE		        An2 
	BYTE	W06
	BYTE		        Cs3 
	BYTE	W06
	BYTE		N22     Bn1 
	BYTE		N22     Dn2 
	BYTE		N22     Fs2 
	BYTE		N05     Gs3 
	BYTE	W06
	BYTE		        An2 
	BYTE	W06
	BYTE		        Fs3 
	BYTE	W06
	BYTE		        Gs3 
	BYTE	W06
	BYTE		N22     Bn1 
	BYTE		N22     Dn2 
	BYTE		N22     Fs2 
	BYTE		N05     Dn3 
	BYTE	W06
	BYTE		        Fs3 
	BYTE	W06
	BYTE		        An2 
	BYTE	W06
	BYTE		        Dn3 
	BYTE	W06
	BYTE	PEND
// 027   ----------------------------------------
ShovelKnightRequiemOfShieldKnight_4_027:
	BYTE		N22     Cs2   v044
	BYTE		N22     Fs2 
	BYTE		N05     Gs3 
	BYTE	W06
	BYTE		        An2 
	BYTE	W06
	BYTE		        Fs3 
	BYTE	W06
	BYTE		        Gs3 
	BYTE	W06
	BYTE		N22     Cs2 
	BYTE		N22     Fs2 
	BYTE		N05     Dn3 
	BYTE	W06
	BYTE		        Fs3 
	BYTE	W06
	BYTE		        An2 
	BYTE	W06
	BYTE		        Cs3 
	BYTE	W06
	BYTE		N22     Cs2 
	BYTE		N22     Dn2 
	BYTE		N22     Fs2 
	BYTE		N05     Gs3 
	BYTE	W06
	BYTE		        An2 
	BYTE	W06
	BYTE		        Fs3 
	BYTE	W06
	BYTE		        Gs3 
	BYTE	W06
	BYTE		N22     Cs2 
	BYTE		N22     Dn2 
	BYTE		N22     Fs2 
	BYTE		N05     Dn3 
	BYTE	W06
	BYTE		        Fs3 
	BYTE	W06
	BYTE		        An2 
	BYTE	W06
	BYTE		        Dn3 
	BYTE	W06
	BYTE	PEND
// 028   ----------------------------------------
ShovelKnightRequiemOfShieldKnight_4_028:
	BYTE		N22     Cs2   v044
	BYTE		N22     Dn2 
	BYTE		N22     Fs2 
	BYTE		N05     Fs3 
	BYTE	W06
	BYTE		        An2 
	BYTE	W06
	BYTE		        Dn3 
	BYTE	W06
	BYTE		        Fs3 
	BYTE	W06
	BYTE		N22     Cs2 
	BYTE		N22     Dn2 
	BYTE		N22     Fs2 
	BYTE		N05     Bn2 
	BYTE	W06
	BYTE		        Dn3 
	BYTE	W06
	BYTE		        Gs2 
	BYTE	W06
	BYTE		        Bn2 
	BYTE	W06
	BYTE		N22     Bn1 
	BYTE		N22     Dn2 
	BYTE		N22     Gs2 
	BYTE		N05     Fs3 
	BYTE	W06
	BYTE		        An2 
	BYTE	W06
	BYTE		        Dn3 
	BYTE	W06
	BYTE		        Fs3 
	BYTE	W06
	BYTE		N22     Bn1 
	BYTE		N22     Dn2 
	BYTE		N12     Gs2 
	BYTE		N05     Bn2 
	BYTE	W06
	BYTE		        Dn3 
	BYTE	W06
	BYTE		N10     Gs2 
	BYTE	W06
	BYTE		N05     Bn2 
	BYTE	W06
	BYTE	PEND
// 029   ----------------------------------------
ShovelKnightRequiemOfShieldKnight_4_029:
	BYTE		N22     Dn2   v044
	BYTE		N22     Fs2 
	BYTE		N22     Bn2 
	BYTE		N05     Fs3 
	BYTE	W06
	BYTE		        An2 
	BYTE	W06
	BYTE		        Dn3 
	BYTE	W06
	BYTE		        Fs3 
	BYTE	W06
	BYTE		N22     Dn2 
	BYTE		N22     Fs2 
	BYTE	W06
	BYTE		N05     Dn3 
	BYTE	W06
	BYTE		        Gs2 
	BYTE	W06
	BYTE		        Bn2 
	BYTE	W06
	BYTE		N22     Dn2 
	BYTE		N22     Gs2 
	BYTE		N22     Cs3 
	BYTE		N05     Fs3 
	BYTE	W06
	BYTE		        An2 
	BYTE	W06
	BYTE		        Dn3 
	BYTE	W06
	BYTE		        Fs3 
	BYTE	W06
	BYTE		N22     Dn2 
	BYTE		N12     Gs2 
	BYTE		N05     Bn2 
	BYTE		N22     Cs3 
	BYTE	W06
	BYTE		N05     Dn3 
	BYTE	W06
	BYTE		N10     Gs2 
	BYTE	W06
	BYTE		N05     Bn2 
	BYTE	W06
	BYTE	PEND
// 030   ----------------------------------------
ShovelKnightRequiemOfShieldKnight_4_030:
	BYTE		N05     Cs3   v044
	BYTE	W06
	BYTE		        Gs2 
	BYTE	W06
	BYTE		        An2 
	BYTE	W06
	BYTE		        Cs3 
	BYTE	W06
	BYTE		        Gs2 
	BYTE	W06
	BYTE		        An2 
	BYTE	W06
	BYTE		        En2 
	BYTE	W06
	BYTE		        Gs2 
	BYTE	W06
	BYTE		        Cs3 
	BYTE	W06
	BYTE		        Gs2 
	BYTE	W06
	BYTE		        An2 
	BYTE	W06
	BYTE		        Cs3 
	BYTE	W06
	BYTE		        Gs2 
	BYTE	W06
	BYTE		        An2 
	BYTE	W06
	BYTE		        En2 
	BYTE	W06
	BYTE		        Gs2 
	BYTE	W06
	BYTE	PEND
// 031   ----------------------------------------
	BYTE	PATT
	 POIN2	ShovelKnightRequiemOfShieldKnight_4_030
// 032   ----------------------------------------
ShovelKnightRequiemOfShieldKnight_4_032:
	BYTE		N05     Cs3   v044
	BYTE	W06
	BYTE		        Fs2 
	BYTE	W06
	BYTE		        Fs3 
	BYTE	W06
	BYTE		        Cs3 
	BYTE	W06
	BYTE		        Gs3   v048
	BYTE	W06
	BYTE		        Fs3 
	BYTE	W06
	BYTE		        An3 
	BYTE	W06
	BYTE		        Gs3 
	BYTE	W06
	BYTE		        Gs3   v052
	BYTE	W06
	BYTE		        An3 
	BYTE	W06
	BYTE		N05   
	BYTE	W06
	BYTE		        Gs3   v056
	BYTE	W06
	BYTE		        Cs4 
	BYTE	W06
	BYTE		        An3 
	BYTE	W06
	BYTE		        Fs4 
	BYTE	W06
	BYTE		        Cs4   v060
	BYTE	W06
	BYTE	PEND
// 033   ----------------------------------------
ShovelKnightRequiemOfShieldKnight_4_033:
	BYTE		N05     Cs4   v060
	BYTE	W06
	BYTE		        Fs4   v064
	BYTE	W06
	BYTE		N05   
	BYTE	W06
	BYTE		        Cs4 
	BYTE	W06
	BYTE		        Gs4   v068
	BYTE	W06
	BYTE		        Fs4 
	BYTE	W06
	BYTE		        An4 
	BYTE	W06
	BYTE		        Gs4   v072
	BYTE	W06
	BYTE		N05   
	BYTE	W06
	BYTE		        An4 
	BYTE	W06
	BYTE		        An4   v076
	BYTE	W06
	BYTE		        Gs4 
	BYTE	W06
	BYTE		        Cs5 
	BYTE	W06
	BYTE		        An4   v080
	BYTE	W06
	BYTE		        Fs5 
	BYTE	W06
	BYTE		        Cs5 
	BYTE	W06
	BYTE	PEND
// 034   ----------------------------------------
ShovelKnightRequiemOfShieldKnight_4_034:
	BYTE		N11     An4   v080
	BYTE	W12
	BYTE		N05     Gs4   v076
	BYTE	W06
	BYTE		        An4   v072
	BYTE	W06
	BYTE		        Fs4   v068
	BYTE	W06
	BYTE		        Gs4 
	BYTE	W06
	BYTE		        Dn4   v064
	BYTE	W06
	BYTE		        Fs4   v060
	BYTE	W06
	BYTE		        An4 
	BYTE	W06
	BYTE		        Dn4   v056
	BYTE	W06
	BYTE		        Gs4 
	BYTE	W06
	BYTE		        An4   v052
	BYTE	W06
	BYTE		        Fs4 
	BYTE	W06
	BYTE		        Gs4   v048
	BYTE	W06
	BYTE		        Dn4 
	BYTE	W06
	BYTE		        Fs4   v044
	BYTE	W06
	BYTE	PEND
// 035   ----------------------------------------
ShovelKnightRequiemOfShieldKnight_4_035:
	BYTE		N05     An4   v044
	BYTE	W06
	BYTE		        Dn4 
	BYTE	W06
	BYTE		        Gs4 
	BYTE	W06
	BYTE		        An4 
	BYTE	W06
	BYTE		        Fs4 
	BYTE	W06
	BYTE		        Gs4 
	BYTE	W06
	BYTE		        Dn4 
	BYTE	W06
	BYTE		        Fs4 
	BYTE	W06
	BYTE		        An4 
	BYTE	W06
	BYTE		        Dn4 
	BYTE	W06
	BYTE		        Gs4 
	BYTE	W06
	BYTE		        An4 
	BYTE	W06
	BYTE		        Fs4 
	BYTE	W06
	BYTE		        Gs4 
	BYTE	W06
	BYTE		        Dn4 
	BYTE	W06
	BYTE		        Fs4 
	BYTE	W06
	BYTE	PEND
// 036   ----------------------------------------
	BYTE	PATT
	 POIN2	ShovelKnightRequiemOfShieldKnight_4_035
// 037   ----------------------------------------
	BYTE	PATT
	 POIN2	ShovelKnightRequiemOfShieldKnight_4_035
// 038   ----------------------------------------
ShovelKnightRequiemOfShieldKnight_4_038:
	BYTE		N05     Gs4   v044
	BYTE	W06
	BYTE		        Dn4 
	BYTE	W06
	BYTE		        Fs4 
	BYTE	W06
	BYTE		        Gs4 
	BYTE	W06
	BYTE		        Cs4 
	BYTE	W06
	BYTE		        Fs4 
	BYTE	W06
	BYTE		        An3 
	BYTE	W06
	BYTE		        Cs4 
	BYTE	W06
	BYTE		        Gs4 
	BYTE	W06
	BYTE		        An3 
	BYTE	W06
	BYTE		        Fs4 
	BYTE	W06
	BYTE		        Gs4 
	BYTE	W06
	BYTE		        Cs4 
	BYTE	W06
	BYTE		        Fs4 
	BYTE	W06
	BYTE		        An3 
	BYTE	W06
	BYTE		        Cs4 
	BYTE	W06
	BYTE	PEND
// 039   ----------------------------------------
ShovelKnightRequiemOfShieldKnight_4_039:
	BYTE		N05     Gs4   v044
	BYTE	W06
	BYTE		        An3 
	BYTE	W06
	BYTE		        Fs4 
	BYTE	W06
	BYTE		        Gs4 
	BYTE	W06
	BYTE		        Cs4 
	BYTE	W06
	BYTE		        Fs4 
	BYTE	W06
	BYTE		        An3 
	BYTE	W06
	BYTE		        Cs4 
	BYTE	W06
	BYTE		        Gs4 
	BYTE	W06
	BYTE		        An3 
	BYTE	W06
	BYTE		        Fs4 
	BYTE	W06
	BYTE		        Gs4 
	BYTE	W06
	BYTE		        Cs4 
	BYTE	W06
	BYTE		        Fs4 
	BYTE	W06
	BYTE		        An3 
	BYTE	W06
	BYTE		        Cs4 
	BYTE	W06
	BYTE	PEND
// 040   ----------------------------------------
	BYTE	PATT
	 POIN2	ShovelKnightRequiemOfShieldKnight_4_039
// 041   ----------------------------------------
	BYTE	PATT
	 POIN2	ShovelKnightRequiemOfShieldKnight_4_039
// 042   ----------------------------------------
	BYTE	PATT
	 POIN2	ShovelKnightRequiemOfShieldKnight_4_039
// 043   ----------------------------------------
ShovelKnightRequiemOfShieldKnight_4_043:
	BYTE		N05     Gs4   v044
	BYTE	W06
	BYTE		        An3 
	BYTE	W06
	BYTE		        Fs4 
	BYTE	W06
	BYTE		        Gs4 
	BYTE	W06
	BYTE		        Dn4 
	BYTE	W06
	BYTE		        Fs4 
	BYTE	W06
	BYTE		        An3 
	BYTE	W06
	BYTE		        Dn4 
	BYTE	W06
	BYTE		        Gs4 
	BYTE	W06
	BYTE		        An3 
	BYTE	W06
	BYTE		        Fs4 
	BYTE	W06
	BYTE		        Gs4 
	BYTE	W06
	BYTE		        Dn4 
	BYTE	W06
	BYTE		        Fs4 
	BYTE	W06
	BYTE		        An3 
	BYTE	W06
	BYTE		        Dn4 
	BYTE	W06
	BYTE	PEND
// 044   ----------------------------------------
ShovelKnightRequiemOfShieldKnight_4_044:
	BYTE		N05     Fs4   v044
	BYTE	W06
	BYTE		        An3 
	BYTE	W06
	BYTE		        Dn4 
	BYTE	W06
	BYTE		        Fs4 
	BYTE	W06
	BYTE		        Bn3 
	BYTE	W06
	BYTE		        Dn4 
	BYTE	W06
	BYTE		        Gs3 
	BYTE	W06
	BYTE		        Bn3 
	BYTE	W06
	BYTE		        Fs4 
	BYTE	W06
	BYTE		        An3 
	BYTE	W06
	BYTE		        Dn4 
	BYTE	W06
	BYTE		        Fs4 
	BYTE	W06
	BYTE		        Bn3 
	BYTE	W06
	BYTE		        Dn4 
	BYTE	W06
	BYTE		        Gs3 
	BYTE	W06
	BYTE		        Bn3 
	BYTE	W06
	BYTE	PEND
// 045   ----------------------------------------
	BYTE	PATT
	 POIN2	ShovelKnightRequiemOfShieldKnight_4_044
// 046   ----------------------------------------
ShovelKnightRequiemOfShieldKnight_4_046:
	BYTE		N05     Cs4   v044
	BYTE	W06
	BYTE		        Gs3 
	BYTE	W06
	BYTE		        An3 
	BYTE	W06
	BYTE		        Cs4 
	BYTE	W06
	BYTE		        Gs3 
	BYTE	W06
	BYTE		        An3 
	BYTE	W06
	BYTE		        Fs3 
	BYTE	W06
	BYTE		        Gs3 
	BYTE	W06
	BYTE		        Cs4 
	BYTE	W06
	BYTE		        Gs3 
	BYTE	W06
	BYTE		        An3 
	BYTE	W06
	BYTE		        Cs4 
	BYTE	W06
	BYTE		        Gs3 
	BYTE	W06
	BYTE		        An3 
	BYTE	W06
	BYTE		        Fs3 
	BYTE	W06
	BYTE		        Gs3 
	BYTE	W06
	BYTE	PEND
// 047   ----------------------------------------
	BYTE	PATT
	 POIN2	ShovelKnightRequiemOfShieldKnight_4_046
// 048   ----------------------------------------
ShovelKnightRequiemOfShieldKnight_4_048:
	BYTE		N05     Cs4   v044
	BYTE	W06
	BYTE		        Fs3 
	BYTE	W06
	BYTE		        Fs4 
	BYTE	W06
	BYTE		        Cs4 
	BYTE	W06
	BYTE		        Gs4   v048
	BYTE	W06
	BYTE		        Fs4 
	BYTE	W06
	BYTE		        An4 
	BYTE	W06
	BYTE		        Gs4   v052
	BYTE	W06
	BYTE		N05   
	BYTE	W06
	BYTE		        An4 
	BYTE	W06
	BYTE		        An4   v056
	BYTE	W06
	BYTE		        Gs4 
	BYTE	W06
	BYTE		        Cs5 
	BYTE	W06
	BYTE		        An4 
	BYTE	W06
	BYTE		        Fs5   v060
	BYTE	W06
	BYTE		        Cs5 
	BYTE	W06
	BYTE	PEND
// 049   ----------------------------------------
ShovelKnightRequiemOfShieldKnight_4_049:
	BYTE		N44     Dn2   v064
	BYTE		N44     Fs2 
	BYTE		N44     An2 
	BYTE		N44     Bn2 
	BYTE		N05     Cs5 
	BYTE	W06
	BYTE		        Fs5 
	BYTE	W06
	BYTE		N05   
	BYTE	W06
	BYTE		        Cs5   v068
	BYTE	W06
	BYTE		        Gs5 
	BYTE	W06
	BYTE		        Fs5   v072
	BYTE	W06
	BYTE		        An5 
	BYTE	W06
	BYTE		        Gs5 
	BYTE	W06
	BYTE		N44     Fn2   v076
	BYTE		N44     Gs2 
	BYTE		N44     Cs3 
	BYTE		N05     Gs5 
	BYTE	W06
	BYTE		        An5 
	BYTE	W06
	BYTE		N05   
	BYTE	W06
	BYTE		        Gs5   v080
	BYTE	W06
	BYTE		        Cs6 
	BYTE	W06
	BYTE		N17     An5 
	BYTE	W18
	BYTE	PEND
	BYTE	GoTo
	 POIN2	ShovelKnightRequiemOfShieldKnight_4_B1
ShovelKnightRequiemOfShieldKnight_4_B2:
// 050   ----------------------------------------
	BYTE	W96
// 051   ----------------------------------------
	BYTE	W96
// 052   ----------------------------------------
	BYTE	W96
// 053   ----------------------------------------
	BYTE	W96
// 054   ----------------------------------------
	BYTE	W96
// 055   ----------------------------------------
	BYTE	W96
// 056   ----------------------------------------
	BYTE	W96
// 057   ----------------------------------------
	BYTE	W96
// 058   ----------------------------------------
	BYTE	W96
// 059   ----------------------------------------
	BYTE	W96
// 060   ----------------------------------------
	BYTE	W96
// 061   ----------------------------------------
	BYTE	W96
// 062   ----------------------------------------
	BYTE	W96
// 063   ----------------------------------------
	BYTE	W96
// 064   ----------------------------------------
	BYTE	W96
// 065   ----------------------------------------
	BYTE	PATT
	 POIN2	ShovelKnightRequiemOfShieldKnight_4_017
// 066   ----------------------------------------
	BYTE	PATT
	 POIN2	ShovelKnightRequiemOfShieldKnight_4_018
// 067   ----------------------------------------
	BYTE	PATT
	 POIN2	ShovelKnightRequiemOfShieldKnight_4_019
// 068   ----------------------------------------
	BYTE	PATT
	 POIN2	ShovelKnightRequiemOfShieldKnight_4_020
// 069   ----------------------------------------
	BYTE	PATT
	 POIN2	ShovelKnightRequiemOfShieldKnight_4_021
// 070   ----------------------------------------
	BYTE	PATT
	 POIN2	ShovelKnightRequiemOfShieldKnight_4_022
// 071   ----------------------------------------
	BYTE	PATT
	 POIN2	ShovelKnightRequiemOfShieldKnight_4_023
// 072   ----------------------------------------
	BYTE	PATT
	 POIN2	ShovelKnightRequiemOfShieldKnight_4_024
// 073   ----------------------------------------
	BYTE	PATT
	 POIN2	ShovelKnightRequiemOfShieldKnight_4_025
// 074   ----------------------------------------
	BYTE	PATT
	 POIN2	ShovelKnightRequiemOfShieldKnight_4_026
// 075   ----------------------------------------
	BYTE	PATT
	 POIN2	ShovelKnightRequiemOfShieldKnight_4_027
// 076   ----------------------------------------
	BYTE	PATT
	 POIN2	ShovelKnightRequiemOfShieldKnight_4_028
// 077   ----------------------------------------
	BYTE	PATT
	 POIN2	ShovelKnightRequiemOfShieldKnight_4_029
// 078   ----------------------------------------
	BYTE	PATT
	 POIN2	ShovelKnightRequiemOfShieldKnight_4_030
// 079   ----------------------------------------
	BYTE	PATT
	 POIN2	ShovelKnightRequiemOfShieldKnight_4_030
// 080   ----------------------------------------
	BYTE	PATT
	 POIN2	ShovelKnightRequiemOfShieldKnight_4_032
// 081   ----------------------------------------
	BYTE	PATT
	 POIN2	ShovelKnightRequiemOfShieldKnight_4_033
// 082   ----------------------------------------
	BYTE	PATT
	 POIN2	ShovelKnightRequiemOfShieldKnight_4_034
// 083   ----------------------------------------
	BYTE	PATT
	 POIN2	ShovelKnightRequiemOfShieldKnight_4_035
// 084   ----------------------------------------
	BYTE	PATT
	 POIN2	ShovelKnightRequiemOfShieldKnight_4_035
// 085   ----------------------------------------
	BYTE	PATT
	 POIN2	ShovelKnightRequiemOfShieldKnight_4_035
// 086   ----------------------------------------
	BYTE	PATT
	 POIN2	ShovelKnightRequiemOfShieldKnight_4_038
// 087   ----------------------------------------
	BYTE	PATT
	 POIN2	ShovelKnightRequiemOfShieldKnight_4_039
// 088   ----------------------------------------
	BYTE	PATT
	 POIN2	ShovelKnightRequiemOfShieldKnight_4_039
// 089   ----------------------------------------
	BYTE	PATT
	 POIN2	ShovelKnightRequiemOfShieldKnight_4_039
// 090   ----------------------------------------
	BYTE	PATT
	 POIN2	ShovelKnightRequiemOfShieldKnight_4_039
// 091   ----------------------------------------
	BYTE	PATT
	 POIN2	ShovelKnightRequiemOfShieldKnight_4_043
// 092   ----------------------------------------
	BYTE	PATT
	 POIN2	ShovelKnightRequiemOfShieldKnight_4_044
// 093   ----------------------------------------
	BYTE	PATT
	 POIN2	ShovelKnightRequiemOfShieldKnight_4_044
// 094   ----------------------------------------
	BYTE	PATT
	 POIN2	ShovelKnightRequiemOfShieldKnight_4_046
// 095   ----------------------------------------
	BYTE	PATT
	 POIN2	ShovelKnightRequiemOfShieldKnight_4_046
// 096   ----------------------------------------
	BYTE	PATT
	 POIN2	ShovelKnightRequiemOfShieldKnight_4_048
// 097   ----------------------------------------
	BYTE	PATT
	 POIN2	ShovelKnightRequiemOfShieldKnight_4_049
// 098   ----------------------------------------
	BYTE		N44     Dn1   v080
	BYTE		N44     Dn2 
	BYTE		N44     An2 
	BYTE		N44     Cs3 
	BYTE		N44     Dn3 
	BYTE		N44     Fs3 
	BYTE	W96
// 099   ----------------------------------------
	BYTE	W96
// 100   ----------------------------------------
	BYTE	W96
// 101   ----------------------------------------
	BYTE	W96
// 102   ----------------------------------------
	BYTE	W96
// 103   ----------------------------------------
	BYTE		TIE     Fs1 
	BYTE		TIE     Fs2 
	BYTE		N48     An3 
	BYTE	W02
	BYTE		TIE     Gs3 
	BYTE	W02
	BYTE		N54     Fs3 
	BYTE	W02
	BYTE		N17     Cs3 
	BYTE	W06
	BYTE		N11     Gs2 
	BYTE	W12
	BYTE		TIE     Cs3 
	BYTE	W12
	BYTE		N11     En3 
	BYTE	W12
	BYTE		N92     An3 
	BYTE	W12
	BYTE		N80     Fs3 
	BYTE	W12
	BYTE		N11     Bn3 
	BYTE	W12
	BYTE		        Dn4 
	BYTE	W12
	BYTE		N44     Bn3 
	BYTE		N44     Dn4 
	BYTE		N44     Fs4 
	BYTE		N44     An4 
	BYTE	W40
	BYTE		EOT     Fs1 
	BYTE		        Fs2 
	BYTE	W07
	BYTE		        Cs3 
	BYTE		        Gs3 
	BYTE	W01
// 104   ----------------------------------------
	BYTE		N90     Cs3 
	BYTE		N90     Bn3 
	BYTE		N90     Cs4 
	BYTE		N90     Fn4 
	BYTE		N90     Gs4 
	BYTE	W96
// 105   ----------------------------------------
	BYTE		TIE     Fs2 
	BYTE		TIE     En3 
	BYTE		TIE     Gs3 
	BYTE	W02
	BYTE		        An3 
	BYTE	W01
	BYTE		        Cs4 
	BYTE	W01
	BYTE		        Fs4 
	BYTE	W92
// 106   ----------------------------------------
	BYTE	W84
	BYTE	W02
	BYTE		EOT     Fs2 
	BYTE	W04
	BYTE		        Gs3 
	BYTE		        Cs4 
	BYTE		        Fs4 
	BYTE	W01
	BYTE		        En3 
	BYTE		        An3 
	BYTE	W04
	BYTE	FINE

//**************** Track 5 (Midi-Chn.7) ****************//

ShovelKnightRequiemOfShieldKnight_5:
	BYTE	KEYSH   ShovelKnightRequiemOfShieldKnight_key+0
// 000   ----------------------------------------
	BYTE		VOICE   40
	BYTE		MODT    0
	BYTE		LFOS    44
	BYTE		VOL     109*ShovelKnightRequiemOfShieldKnight_mvl/mxv
	BYTE		PAN     c_v+0
	BYTE		N23     Gs1   v016
	BYTE	W02
	BYTE	W02
	BYTE	W02
	BYTE	W02
	BYTE	W02
	BYTE	W02
	BYTE	W02
	BYTE	W02
	BYTE	W02
	BYTE	W02
	BYTE	W02
	BYTE	W02
	BYTE		        An1   v024
	BYTE	W02
	BYTE	W02
	BYTE	W02
	BYTE	W02
	BYTE	W02
	BYTE	W02
	BYTE	W02
	BYTE	W02
	BYTE	W02
	BYTE	W02
	BYTE	W03
	BYTE	W01
	BYTE		        Cs2   v032
	BYTE	W01
	BYTE	W02
	BYTE	W02
	BYTE	W02
	BYTE	W02
	BYTE	W02
	BYTE	W02
	BYTE	W02
	BYTE	W02
	BYTE	W02
	BYTE	W02
	BYTE	W02
	BYTE	W01
	BYTE		        Fs2   v048
	BYTE	W01
	BYTE	W02
	BYTE	W02
	BYTE	W02
	BYTE	W02
	BYTE	W02
	BYTE	W02
	BYTE	W02
	BYTE	W02
	BYTE	W02
	BYTE	W03
	BYTE	W02
// 001   ----------------------------------------
	BYTE		        Gs2   v060
	BYTE	W24
	BYTE		        An2 
	BYTE	W24
	BYTE		        Cs3 
	BYTE	W24
	BYTE		        Fs3 
	BYTE	W24
ShovelKnightRequiemOfShieldKnight_5_B1:
// 002   ----------------------------------------
ShovelKnightRequiemOfShieldKnight_5_002:
	BYTE		N92     Dn3   v060
	BYTE	W96
	BYTE	PEND
// 003   ----------------------------------------
ShovelKnightRequiemOfShieldKnight_5_003:
	BYTE		N44     Dn3   v060
	BYTE	W48
	BYTE		        Cs3 
	BYTE	W48
	BYTE	PEND
// 004   ----------------------------------------
ShovelKnightRequiemOfShieldKnight_5_004:
	BYTE		N92     Fs3   v060
	BYTE	W96
	BYTE	PEND
// 005   ----------------------------------------
	BYTE	PATT
	 POIN2	ShovelKnightRequiemOfShieldKnight_5_004
// 006   ----------------------------------------
ShovelKnightRequiemOfShieldKnight_5_006:
	BYTE		TIE     Cs3   v060
	BYTE	W96
	BYTE	PEND
// 007   ----------------------------------------
ShovelKnightRequiemOfShieldKnight_5_007:
	BYTE	W92
	BYTE	W03
	BYTE	PEND
	BYTE		EOT     Cs3 
	BYTE	W01
// 008   ----------------------------------------
	BYTE	W96
// 009   ----------------------------------------
ShovelKnightRequiemOfShieldKnight_5_009:
	BYTE		N32     Gs2   v060
	BYTE	W03
	BYTE	W03
	BYTE	W03
	BYTE	W03
	BYTE	W03
	BYTE	W03
	BYTE	W03
	BYTE	W03
	BYTE	W03
	BYTE	W04
	BYTE	W03
	BYTE	W02
	BYTE		N05     An2   v048
	BYTE	W01
	BYTE	W03
	BYTE	W02
	BYTE		        Gs2   v044
	BYTE	W01
	BYTE	W03
	BYTE	W02
	BYTE		N44     Fs2 
	BYTE	W01
	BYTE	W03
	BYTE	W03
	BYTE	W03
	BYTE	W03
	BYTE	W04
	BYTE	W03
	BYTE	W03
	BYTE	W03
	BYTE	W03
	BYTE	W03
	BYTE	W03
	BYTE	W03
	BYTE	W03
	BYTE	W03
	BYTE	W04
	BYTE	PEND
// 010   ----------------------------------------
ShovelKnightRequiemOfShieldKnight_5_010:
	BYTE		N44     Cs3   v028
	BYTE	W48
	BYTE		        Bn2 
	BYTE	W48
	BYTE	PEND
// 011   ----------------------------------------
ShovelKnightRequiemOfShieldKnight_5_011:
	BYTE		N44     Cs3   v028
	BYTE	W48
	BYTE		        Dn3 
	BYTE	W48
	BYTE	PEND
// 012   ----------------------------------------
ShovelKnightRequiemOfShieldKnight_5_012:
	BYTE		N44     Fs3   v028
	BYTE	W48
	BYTE		N92     Dn3 
	BYTE	W48
	BYTE	PEND
// 013   ----------------------------------------
ShovelKnightRequiemOfShieldKnight_5_013:
	BYTE	W48
	BYTE		N44     Gs2   v028
	BYTE	W48
	BYTE	PEND
// 014   ----------------------------------------
	BYTE	W96
// 015   ----------------------------------------
	BYTE	W96
// 016   ----------------------------------------
ShovelKnightRequiemOfShieldKnight_5_016:
	BYTE		N44     Fs2   v028
	BYTE	W48
	BYTE		        Gs2 
	BYTE	W48
	BYTE	PEND
// 017   ----------------------------------------
ShovelKnightRequiemOfShieldKnight_5_017:
	BYTE		N92     An2   v028
	BYTE	W96
	BYTE	PEND
// 018   ----------------------------------------
ShovelKnightRequiemOfShieldKnight_5_018:
	BYTE		N11     Dn4   v028
	BYTE	W24
	BYTE		N11   
	BYTE	W24
	BYTE		N11   
	BYTE	W24
	BYTE		N11   
	BYTE	W24
	BYTE	PEND
// 019   ----------------------------------------
ShovelKnightRequiemOfShieldKnight_5_019:
	BYTE		N11     Cs4   v028
	BYTE	W24
	BYTE		N11   
	BYTE	W24
	BYTE		N11   
	BYTE	W24
	BYTE		N11   
	BYTE	W24
	BYTE	PEND
// 020   ----------------------------------------
ShovelKnightRequiemOfShieldKnight_5_020:
	BYTE		N11     Cs4   v028
	BYTE	W24
	BYTE		        Bn3 
	BYTE	W24
	BYTE		        Fs3 
	BYTE	W24
	BYTE		N11   
	BYTE	W24
	BYTE	PEND
// 021   ----------------------------------------
ShovelKnightRequiemOfShieldKnight_5_021:
	BYTE		N11     Gs3   v028
	BYTE	W24
	BYTE		N11   
	BYTE	W24
	BYTE		N11   
	BYTE	W24
	BYTE		N11   
	BYTE	W24
	BYTE	PEND
// 022   ----------------------------------------
ShovelKnightRequiemOfShieldKnight_5_022:
	BYTE		N11     An3   v028
	BYTE	W24
	BYTE		N11   
	BYTE	W24
	BYTE		        Fs3 
	BYTE	W24
	BYTE		N11   
	BYTE	W24
	BYTE	PEND
// 023   ----------------------------------------
ShovelKnightRequiemOfShieldKnight_5_023:
	BYTE		N11     Gs3   v028
	BYTE	W24
	BYTE		        An3 
	BYTE	W24
	BYTE		        Cs4 
	BYTE	W24
	BYTE		N11   
	BYTE	W24
	BYTE	PEND
// 024   ----------------------------------------
ShovelKnightRequiemOfShieldKnight_5_024:
	BYTE		N11     Cs4   v028
	BYTE	W24
	BYTE		N11   
	BYTE	W24
	BYTE		        En4 
	BYTE	W24
	BYTE		N11   
	BYTE	W24
	BYTE	PEND
// 025   ----------------------------------------
ShovelKnightRequiemOfShieldKnight_5_025:
	BYTE		N11     An3   v028
	BYTE	W24
	BYTE		N11   
	BYTE	W24
	BYTE		        Gs3 
	BYTE	W24
	BYTE		        Fs3 
	BYTE	W24
	BYTE	PEND
// 026   ----------------------------------------
ShovelKnightRequiemOfShieldKnight_5_026:
	BYTE		N11     En3   v028
	BYTE	W24
	BYTE		N11   
	BYTE	W24
	BYTE		        Dn3 
	BYTE	W24
	BYTE		N11   
	BYTE	W24
	BYTE	PEND
// 027   ----------------------------------------
ShovelKnightRequiemOfShieldKnight_5_027:
	BYTE		N11     Fs3   v028
	BYTE	W24
	BYTE		N11   
	BYTE	W24
	BYTE		        Cs4 
	BYTE	W24
	BYTE		N11   
	BYTE	W24
	BYTE	PEND
// 028   ----------------------------------------
ShovelKnightRequiemOfShieldKnight_5_028:
	BYTE		N11     Cs4   v028
	BYTE	W24
	BYTE		N11   
	BYTE	W24
	BYTE		        Fs3 
	BYTE	W24
	BYTE		N11   
	BYTE	W24
	BYTE	PEND
// 029   ----------------------------------------
ShovelKnightRequiemOfShieldKnight_5_029:
	BYTE		N11     Fs3   v028
	BYTE	W24
	BYTE		N11   
	BYTE	W24
	BYTE		        Gs3 
	BYTE	W24
	BYTE		N11   
	BYTE	W24
	BYTE	PEND
// 030   ----------------------------------------
ShovelKnightRequiemOfShieldKnight_5_030:
	BYTE		N11     Bn3   v028
	BYTE	W24
	BYTE		N11   
	BYTE	W24
	BYTE		N11   
	BYTE	W24
	BYTE		        Gs3 
	BYTE	W24
	BYTE	PEND
// 031   ----------------------------------------
ShovelKnightRequiemOfShieldKnight_5_031:
	BYTE		N11     An3   v028
	BYTE	W13
	BYTE	W11
	BYTE		N11   
	BYTE	W03
	BYTE	W13
	BYTE	W08
	BYTE		        Cs4   v024
	BYTE	W06
	BYTE	W13
	BYTE	W05
	BYTE		N11   
	BYTE	W09
	BYTE	W13
	BYTE	W02
	BYTE	PEND
// 032   ----------------------------------------
ShovelKnightRequiemOfShieldKnight_5_032:
	BYTE		N11     Cs4   v020
	BYTE	W12
	BYTE	W12
	BYTE		N11   
	BYTE	W01
	BYTE	W14
	BYTE	W09
	BYTE		N11   
	BYTE	W04
	BYTE	W14
	BYTE	W13
	BYTE	W14
	BYTE	W03
	BYTE	PEND
// 033   ----------------------------------------
ShovelKnightRequiemOfShieldKnight_5_033:
	BYTE		N11     En3   v016
	BYTE	W10
	BYTE	W14
	BYTE		N11   
	BYTE	W72
	BYTE	PEND
// 034   ----------------------------------------
ShovelKnightRequiemOfShieldKnight_5_034:
	BYTE		N11     Dn4   v016
	BYTE	W03
	BYTE	W03
	BYTE	W03
	BYTE	W03
	BYTE	W03
	BYTE	W03
	BYTE	W03
	BYTE	W03
	BYTE		        Dn4   v020
	BYTE	W03
	BYTE	W04
	BYTE	W03
	BYTE	W03
	BYTE	W03
	BYTE	W03
	BYTE	W03
	BYTE	W02
	BYTE		        Dn4   v028
	BYTE	W01
	BYTE	W03
	BYTE	W03
	BYTE	W03
	BYTE	W03
	BYTE	W04
	BYTE	W03
	BYTE	W03
	BYTE	W01
	BYTE		        Dn4   v032
	BYTE	W02
	BYTE	W03
	BYTE	W03
	BYTE	W03
	BYTE	W03
	BYTE	W03
	BYTE	W03
	BYTE	W04
	BYTE	PEND
// 035   ----------------------------------------
ShovelKnightRequiemOfShieldKnight_5_035:
	BYTE		N11     Cs4   v044
	BYTE	W24
	BYTE		N11   
	BYTE	W24
	BYTE		        Bn3 
	BYTE	W24
	BYTE		N11   
	BYTE	W24
	BYTE	PEND
// 036   ----------------------------------------
ShovelKnightRequiemOfShieldKnight_5_036:
	BYTE		N11     Cs4   v044
	BYTE	W24
	BYTE		        Bn3 
	BYTE	W24
	BYTE		        Fs3 
	BYTE	W24
	BYTE		N11   
	BYTE	W24
	BYTE	PEND
// 037   ----------------------------------------
ShovelKnightRequiemOfShieldKnight_5_037:
	BYTE		N11     Gs3   v044
	BYTE	W24
	BYTE		N11   
	BYTE	W24
	BYTE		N11   
	BYTE	W24
	BYTE		N11   
	BYTE	W24
	BYTE	PEND
// 038   ----------------------------------------
ShovelKnightRequiemOfShieldKnight_5_038:
	BYTE		N11     An3   v044
	BYTE	W24
	BYTE		N11   
	BYTE	W24
	BYTE		        Fs3 
	BYTE	W24
	BYTE		N11   
	BYTE	W24
	BYTE	PEND
// 039   ----------------------------------------
ShovelKnightRequiemOfShieldKnight_5_039:
	BYTE		N11     Gs3   v044
	BYTE	W24
	BYTE		        An3 
	BYTE	W24
	BYTE		        Cs4 
	BYTE	W24
	BYTE		N11   
	BYTE	W24
	BYTE	PEND
// 040   ----------------------------------------
ShovelKnightRequiemOfShieldKnight_5_040:
	BYTE		N11     Cs4   v044
	BYTE	W24
	BYTE		N11   
	BYTE	W24
	BYTE		        En4 
	BYTE	W24
	BYTE		N11   
	BYTE	W24
	BYTE	PEND
// 041   ----------------------------------------
ShovelKnightRequiemOfShieldKnight_5_041:
	BYTE		N11     An3   v044
	BYTE	W24
	BYTE		N11   
	BYTE	W24
	BYTE		        Gs3 
	BYTE	W24
	BYTE		        Fs3 
	BYTE	W24
	BYTE	PEND
// 042   ----------------------------------------
ShovelKnightRequiemOfShieldKnight_5_042:
	BYTE		N11     En3   v044
	BYTE	W24
	BYTE		N11   
	BYTE	W24
	BYTE		        Dn3 
	BYTE	W24
	BYTE		N11   
	BYTE	W24
	BYTE	PEND
// 043   ----------------------------------------
ShovelKnightRequiemOfShieldKnight_5_043:
	BYTE		N11     Fs3   v044
	BYTE	W24
	BYTE		N11   
	BYTE	W24
	BYTE		N11   
	BYTE	W24
	BYTE		N11   
	BYTE	W24
	BYTE	PEND
// 044   ----------------------------------------
ShovelKnightRequiemOfShieldKnight_5_044:
	BYTE		N11     Cs4   v044
	BYTE	W24
	BYTE		N11   
	BYTE	W24
	BYTE		        Fs3 
	BYTE	W24
	BYTE		N11   
	BYTE	W24
	BYTE	PEND
// 045   ----------------------------------------
ShovelKnightRequiemOfShieldKnight_5_045:
	BYTE		N11     Fs3   v044
	BYTE	W24
	BYTE		N11   
	BYTE	W24
	BYTE		        Gs3 
	BYTE	W24
	BYTE		N11   
	BYTE	W24
	BYTE	PEND
// 046   ----------------------------------------
ShovelKnightRequiemOfShieldKnight_5_046:
	BYTE		N11     Bn3   v044
	BYTE	W24
	BYTE		N11   
	BYTE	W24
	BYTE		N11   
	BYTE	W24
	BYTE		        Gs3 
	BYTE	W24
	BYTE	PEND
// 047   ----------------------------------------
ShovelKnightRequiemOfShieldKnight_5_047:
	BYTE		N11     An3   v044
	BYTE	W24
	BYTE		N11   
	BYTE	W24
	BYTE		        Cs4 
	BYTE	W24
	BYTE		N11   
	BYTE	W24
	BYTE	PEND
// 048   ----------------------------------------
ShovelKnightRequiemOfShieldKnight_5_048:
	BYTE		N44     Fs3   v044
	BYTE	W06
	BYTE	W06
	BYTE	W06
	BYTE	W06
	BYTE	W06
	BYTE	W06
	BYTE	W06
	BYTE	W06
	BYTE		        Gs3   v052
	BYTE	W06
	BYTE	W06
	BYTE	W06
	BYTE	W06
	BYTE	W06
	BYTE	W06
	BYTE	W06
	BYTE	W06
	BYTE	PEND
// 049   ----------------------------------------
ShovelKnightRequiemOfShieldKnight_5_049:
	BYTE		N56     An3   v060
	BYTE	W48
	BYTE	W12
	BYTE		N11     Gs3 
	BYTE	W01
	BYTE	W01
	BYTE	W01
	BYTE	W01
	BYTE	W01
	BYTE	W07
	BYTE		        Fs3 
	BYTE	W01
	BYTE	W01
	BYTE	W01
	BYTE	W01
	BYTE	W01
	BYTE	W07
	BYTE		        En3 
	BYTE	W01
	BYTE	W01
	BYTE	W01
	BYTE	W01
	BYTE	W01
	BYTE	W07
	BYTE	PEND
	BYTE	GoTo
	 POIN2	ShovelKnightRequiemOfShieldKnight_5_B1
ShovelKnightRequiemOfShieldKnight_5_B2:
// 050   ----------------------------------------
	BYTE	PATT
	 POIN2	ShovelKnightRequiemOfShieldKnight_5_002
// 051   ----------------------------------------
	BYTE	PATT
	 POIN2	ShovelKnightRequiemOfShieldKnight_5_003
// 052   ----------------------------------------
	BYTE	PATT
	 POIN2	ShovelKnightRequiemOfShieldKnight_5_004
// 053   ----------------------------------------
	BYTE	PATT
	 POIN2	ShovelKnightRequiemOfShieldKnight_5_004
// 054   ----------------------------------------
	BYTE	PATT
	 POIN2	ShovelKnightRequiemOfShieldKnight_5_006
// 055   ----------------------------------------
	BYTE	PATT
	 POIN2	ShovelKnightRequiemOfShieldKnight_5_007
	BYTE		EOT     Cs3 
	BYTE	W01
// 056   ----------------------------------------
	BYTE	W96
// 057   ----------------------------------------
	BYTE	PATT
	 POIN2	ShovelKnightRequiemOfShieldKnight_5_009
// 058   ----------------------------------------
	BYTE	PATT
	 POIN2	ShovelKnightRequiemOfShieldKnight_5_010
// 059   ----------------------------------------
	BYTE	PATT
	 POIN2	ShovelKnightRequiemOfShieldKnight_5_011
// 060   ----------------------------------------
	BYTE	PATT
	 POIN2	ShovelKnightRequiemOfShieldKnight_5_012
// 061   ----------------------------------------
	BYTE	PATT
	 POIN2	ShovelKnightRequiemOfShieldKnight_5_013
// 062   ----------------------------------------
	BYTE	W96
// 063   ----------------------------------------
	BYTE	W96
// 064   ----------------------------------------
	BYTE	PATT
	 POIN2	ShovelKnightRequiemOfShieldKnight_5_016
// 065   ----------------------------------------
	BYTE	PATT
	 POIN2	ShovelKnightRequiemOfShieldKnight_5_017
// 066   ----------------------------------------
	BYTE	PATT
	 POIN2	ShovelKnightRequiemOfShieldKnight_5_018
// 067   ----------------------------------------
	BYTE	PATT
	 POIN2	ShovelKnightRequiemOfShieldKnight_5_019
// 068   ----------------------------------------
	BYTE	PATT
	 POIN2	ShovelKnightRequiemOfShieldKnight_5_020
// 069   ----------------------------------------
	BYTE	PATT
	 POIN2	ShovelKnightRequiemOfShieldKnight_5_021
// 070   ----------------------------------------
	BYTE	PATT
	 POIN2	ShovelKnightRequiemOfShieldKnight_5_022
// 071   ----------------------------------------
	BYTE	PATT
	 POIN2	ShovelKnightRequiemOfShieldKnight_5_023
// 072   ----------------------------------------
	BYTE	PATT
	 POIN2	ShovelKnightRequiemOfShieldKnight_5_024
// 073   ----------------------------------------
	BYTE	PATT
	 POIN2	ShovelKnightRequiemOfShieldKnight_5_025
// 074   ----------------------------------------
	BYTE	PATT
	 POIN2	ShovelKnightRequiemOfShieldKnight_5_026
// 075   ----------------------------------------
	BYTE	PATT
	 POIN2	ShovelKnightRequiemOfShieldKnight_5_027
// 076   ----------------------------------------
	BYTE	PATT
	 POIN2	ShovelKnightRequiemOfShieldKnight_5_028
// 077   ----------------------------------------
	BYTE	PATT
	 POIN2	ShovelKnightRequiemOfShieldKnight_5_029
// 078   ----------------------------------------
	BYTE	PATT
	 POIN2	ShovelKnightRequiemOfShieldKnight_5_030
// 079   ----------------------------------------
	BYTE	PATT
	 POIN2	ShovelKnightRequiemOfShieldKnight_5_031
// 080   ----------------------------------------
	BYTE	PATT
	 POIN2	ShovelKnightRequiemOfShieldKnight_5_032
// 081   ----------------------------------------
	BYTE	PATT
	 POIN2	ShovelKnightRequiemOfShieldKnight_5_033
// 082   ----------------------------------------
	BYTE	PATT
	 POIN2	ShovelKnightRequiemOfShieldKnight_5_034
// 083   ----------------------------------------
	BYTE	PATT
	 POIN2	ShovelKnightRequiemOfShieldKnight_5_035
// 084   ----------------------------------------
	BYTE	PATT
	 POIN2	ShovelKnightRequiemOfShieldKnight_5_036
// 085   ----------------------------------------
	BYTE	PATT
	 POIN2	ShovelKnightRequiemOfShieldKnight_5_037
// 086   ----------------------------------------
	BYTE	PATT
	 POIN2	ShovelKnightRequiemOfShieldKnight_5_038
// 087   ----------------------------------------
	BYTE	PATT
	 POIN2	ShovelKnightRequiemOfShieldKnight_5_039
// 088   ----------------------------------------
	BYTE	PATT
	 POIN2	ShovelKnightRequiemOfShieldKnight_5_040
// 089   ----------------------------------------
	BYTE	PATT
	 POIN2	ShovelKnightRequiemOfShieldKnight_5_041
// 090   ----------------------------------------
	BYTE	PATT
	 POIN2	ShovelKnightRequiemOfShieldKnight_5_042
// 091   ----------------------------------------
	BYTE	PATT
	 POIN2	ShovelKnightRequiemOfShieldKnight_5_043
// 092   ----------------------------------------
	BYTE	PATT
	 POIN2	ShovelKnightRequiemOfShieldKnight_5_044
// 093   ----------------------------------------
	BYTE	PATT
	 POIN2	ShovelKnightRequiemOfShieldKnight_5_045
// 094   ----------------------------------------
	BYTE	PATT
	 POIN2	ShovelKnightRequiemOfShieldKnight_5_046
// 095   ----------------------------------------
	BYTE	PATT
	 POIN2	ShovelKnightRequiemOfShieldKnight_5_047
// 096   ----------------------------------------
	BYTE	PATT
	 POIN2	ShovelKnightRequiemOfShieldKnight_5_048
// 097   ----------------------------------------
	BYTE	PATT
	 POIN2	ShovelKnightRequiemOfShieldKnight_5_049
// 098   ----------------------------------------
	BYTE	W96
// 099   ----------------------------------------
ShovelKnightRequiemOfShieldKnight_5_099:
	BYTE		N44     Cs3   v060
	BYTE	W96
	BYTE	PEND
// 100   ----------------------------------------
	BYTE		N23     Dn3 
	BYTE	W48
	BYTE		        Cs3 
	BYTE	W48
// 101   ----------------------------------------
	BYTE	PATT
	 POIN2	ShovelKnightRequiemOfShieldKnight_5_099
// 102   ----------------------------------------
	BYTE	W96
// 103   ----------------------------------------
	BYTE	W96
	BYTE	W48
// 104   ----------------------------------------
	BYTE	W96
// 105   ----------------------------------------
	BYTE		TIE     An2   v004
	BYTE	W01
	BYTE	W02
	BYTE	W01
	BYTE	W02
	BYTE	W01
	BYTE	W02
	BYTE	W01
	BYTE	W02
	BYTE	W01
	BYTE	W02
	BYTE	W01
	BYTE	W02
	BYTE	W01
	BYTE	W02
	BYTE	W01
	BYTE	W02
	BYTE	W01
	BYTE	W02
	BYTE	W01
	BYTE	W02
	BYTE	W01
	BYTE	W02
	BYTE	W01
	BYTE	W02
	BYTE	W01
	BYTE	W02
	BYTE	W01
	BYTE	W02
	BYTE	W01
	BYTE	W02
	BYTE	W01
	BYTE	W02
	BYTE	W01
	BYTE	W02
	BYTE	W01
	BYTE	W02
	BYTE	W01
	BYTE	W02
	BYTE	W01
	BYTE	W02
	BYTE	W01
	BYTE	W02
	BYTE	W01
	BYTE	W02
	BYTE	W01
	BYTE	W02
	BYTE	W01
	BYTE	W02
	BYTE	W01
	BYTE	W02
	BYTE	W01
	BYTE	W02
	BYTE	W01
	BYTE	W02
	BYTE	W01
	BYTE	W02
	BYTE	W01
	BYTE	W02
	BYTE	W01
	BYTE	W02
	BYTE	W01
	BYTE	W02
	BYTE	W01
	BYTE	W02
// 106   ----------------------------------------
	BYTE	PATT
	 POIN2	ShovelKnightRequiemOfShieldKnight_5_007
	BYTE		EOT     An2 
	BYTE	FINE

//**************** Track 6 (Midi-Chn.11) ****************//

ShovelKnightRequiemOfShieldKnight_6:
	BYTE	KEYSH   ShovelKnightRequiemOfShieldKnight_key+0
// 000   ----------------------------------------
	BYTE		VOICE   42
	BYTE		MODT    0
	BYTE		LFOS    44
	BYTE		VOL     85*ShovelKnightRequiemOfShieldKnight_mvl/mxv
	BYTE		PAN     c_v+0
	BYTE		N23     Gs2   v016
	BYTE	W02
	BYTE	W02
	BYTE	W02
	BYTE	W02
	BYTE	W02
	BYTE	W02
	BYTE	W02
	BYTE	W02
	BYTE	W02
	BYTE	W02
	BYTE	W02
	BYTE	W02
	BYTE		        Gs2   v024
	BYTE	W02
	BYTE	W02
	BYTE	W02
	BYTE	W02
	BYTE	W02
	BYTE	W02
	BYTE	W02
	BYTE	W02
	BYTE	W02
	BYTE	W02
	BYTE	W03
	BYTE	W01
	BYTE		        Bn2   v032
	BYTE	W01
	BYTE	W02
	BYTE	W02
	BYTE	W02
	BYTE	W02
	BYTE	W02
	BYTE	W02
	BYTE	W02
	BYTE	W02
	BYTE	W02
	BYTE	W02
	BYTE	W02
	BYTE	W01
	BYTE		        An2   v048
	BYTE	W01
	BYTE	W02
	BYTE	W02
	BYTE	W02
	BYTE	W02
	BYTE	W02
	BYTE	W02
	BYTE	W02
	BYTE	W02
	BYTE	W02
	BYTE	W03
	BYTE	W02
// 001   ----------------------------------------
	BYTE		        Cs2   v060
	BYTE	W06
	BYTE	W06
	BYTE	W06
	BYTE	W06
	BYTE		        Fs2   v056
	BYTE	W06
	BYTE	W06
	BYTE	W06
	BYTE	W06
	BYTE		        An2   v052
	BYTE	W06
	BYTE	W06
	BYTE	W06
	BYTE	W06
	BYTE		        Cs3   v048
	BYTE	W06
	BYTE	W06
	BYTE	W06
	BYTE	W06
ShovelKnightRequiemOfShieldKnight_6_B1:
// 002   ----------------------------------------
ShovelKnightRequiemOfShieldKnight_6_002:
	BYTE		N92     Fs2   v044
	BYTE	W96
	BYTE	PEND
// 003   ----------------------------------------
ShovelKnightRequiemOfShieldKnight_6_003:
	BYTE		N92     An2   v044
	BYTE	W96
	BYTE	PEND
// 004   ----------------------------------------
ShovelKnightRequiemOfShieldKnight_6_004:
	BYTE		N92     Dn3   v044
	BYTE	W96
	BYTE	PEND
// 005   ----------------------------------------
	BYTE	PATT
	 POIN2	ShovelKnightRequiemOfShieldKnight_6_004
// 006   ----------------------------------------
ShovelKnightRequiemOfShieldKnight_6_006:
	BYTE		TIE     Fs2   v044
	BYTE	W96
	BYTE	PEND
// 007   ----------------------------------------
ShovelKnightRequiemOfShieldKnight_6_007:
	BYTE	W92
	BYTE	W03
	BYTE	PEND
	BYTE		EOT     Fs2 
	BYTE	W01
// 008   ----------------------------------------
ShovelKnightRequiemOfShieldKnight_6_008:
	BYTE		N44     Gs2   v044
	BYTE	W48
	BYTE		        En3 
	BYTE	W48
	BYTE	PEND
// 009   ----------------------------------------
ShovelKnightRequiemOfShieldKnight_6_009:
	BYTE		N44     An2   v044
	BYTE	W48
	BYTE		        Cs3 
	BYTE	W48
	BYTE	PEND
// 010   ----------------------------------------
	BYTE	PATT
	 POIN2	ShovelKnightRequiemOfShieldKnight_6_002
// 011   ----------------------------------------
ShovelKnightRequiemOfShieldKnight_6_011:
	BYTE		N44     Fs2   v044
	BYTE	W48
	BYTE		        Cs3 
	BYTE	W48
	BYTE	PEND
// 012   ----------------------------------------
ShovelKnightRequiemOfShieldKnight_6_012:
	BYTE		N44     Dn3   v044
	BYTE	W48
	BYTE		N92     Fs2 
	BYTE	W48
	BYTE	PEND
// 013   ----------------------------------------
ShovelKnightRequiemOfShieldKnight_6_013:
	BYTE	W48
	BYTE		N44     Dn2   v044
	BYTE	W48
	BYTE	PEND
// 014   ----------------------------------------
ShovelKnightRequiemOfShieldKnight_6_014:
	BYTE		TIE     Cs3   v044
	BYTE	W96
	BYTE	PEND
// 015   ----------------------------------------
	BYTE	PATT
	 POIN2	ShovelKnightRequiemOfShieldKnight_6_007
	BYTE		EOT     Cs3 
	BYTE	W01
// 016   ----------------------------------------
	BYTE	W96
// 017   ----------------------------------------
	BYTE	W96
// 018   ----------------------------------------
ShovelKnightRequiemOfShieldKnight_6_018:
	BYTE		TIE     Dn2   v044
	BYTE	W96
	BYTE	PEND
// 019   ----------------------------------------
	BYTE	PATT
	 POIN2	ShovelKnightRequiemOfShieldKnight_6_007
	BYTE		EOT     Dn2 
	BYTE	W01
// 020   ----------------------------------------
ShovelKnightRequiemOfShieldKnight_6_020:
	BYTE		TIE     Bn1   v044
	BYTE	W96
	BYTE	PEND
// 021   ----------------------------------------
	BYTE	PATT
	 POIN2	ShovelKnightRequiemOfShieldKnight_6_007
	BYTE		EOT     Bn1 
	BYTE	W01
// 022   ----------------------------------------
	BYTE	PATT
	 POIN2	ShovelKnightRequiemOfShieldKnight_6_006
// 023   ----------------------------------------
	BYTE	PATT
	 POIN2	ShovelKnightRequiemOfShieldKnight_6_007
	BYTE		EOT     Fs2 
	BYTE	W01
// 024   ----------------------------------------
ShovelKnightRequiemOfShieldKnight_6_024:
	BYTE		N44     Gs2   v044
	BYTE	W48
	BYTE		        An2 
	BYTE	W48
	BYTE	PEND
// 025   ----------------------------------------
ShovelKnightRequiemOfShieldKnight_6_025:
	BYTE		N44     Gs2   v044
	BYTE	W48
	BYTE		        Fs2 
	BYTE	W48
	BYTE	PEND
// 026   ----------------------------------------
	BYTE	PATT
	 POIN2	ShovelKnightRequiemOfShieldKnight_6_020
// 027   ----------------------------------------
ShovelKnightRequiemOfShieldKnight_6_027:
	BYTE	W44
	BYTE	W03
	BYTE	PEND
	BYTE		EOT     Bn1 
	BYTE	W01
	BYTE		N23     Bn1   v044
	BYTE	W24
	BYTE		        An1 
	BYTE	W24
// 028   ----------------------------------------
ShovelKnightRequiemOfShieldKnight_6_028:
	BYTE		TIE     Gs1   v044
	BYTE	W96
	BYTE	PEND
// 029   ----------------------------------------
	BYTE	PATT
	 POIN2	ShovelKnightRequiemOfShieldKnight_6_027
	BYTE		EOT     Gs1 
	BYTE	W01
	BYTE		N44     Bn1   v044
	BYTE	W48
// 030   ----------------------------------------
ShovelKnightRequiemOfShieldKnight_6_030:
	BYTE		TIE     An2   v044
	BYTE	W96
	BYTE	PEND
// 031   ----------------------------------------
	BYTE	PATT
	 POIN2	ShovelKnightRequiemOfShieldKnight_6_007
	BYTE		EOT     An2 
	BYTE	W01
// 032   ----------------------------------------
	BYTE	PATT
	 POIN2	ShovelKnightRequiemOfShieldKnight_6_002
// 033   ----------------------------------------
ShovelKnightRequiemOfShieldKnight_6_033:
	BYTE		N23     Gs2   v044
	BYTE	W24
	BYTE		        An2 
	BYTE	W24
	BYTE		        Cs3 
	BYTE	W24
	BYTE		        Fs3 
	BYTE	W24
	BYTE	PEND
// 034   ----------------------------------------
ShovelKnightRequiemOfShieldKnight_6_034:
	BYTE		N92     An3   v044
	BYTE	W96
	BYTE	PEND
// 035   ----------------------------------------
ShovelKnightRequiemOfShieldKnight_6_035:
	BYTE		N44     Dn3   v044
	BYTE	W48
	BYTE		        Fs3 
	BYTE	W48
	BYTE	PEND
// 036   ----------------------------------------
ShovelKnightRequiemOfShieldKnight_6_036:
	BYTE		N68     En3   v044
	BYTE	W72
	BYTE		N11     Dn3 
	BYTE	W12
	BYTE		        Cs3 
	BYTE	W12
	BYTE	PEND
// 037   ----------------------------------------
ShovelKnightRequiemOfShieldKnight_6_037:
	BYTE		N68     Bn2   v044
	BYTE	W72
	BYTE		N11     An2 
	BYTE	W12
	BYTE		        Gs2 
	BYTE	W12
	BYTE	PEND
// 038   ----------------------------------------
	BYTE	PATT
	 POIN2	ShovelKnightRequiemOfShieldKnight_6_030
// 039   ----------------------------------------
	BYTE	PATT
	 POIN2	ShovelKnightRequiemOfShieldKnight_6_027
	BYTE		EOT     An2 
	BYTE	W01
	BYTE		N44     Cs2   v127
	BYTE	W01
	BYTE	W01
	BYTE	W01
	BYTE	W01
	BYTE	W01
	BYTE	W01
	BYTE	W01
	BYTE	W02
	BYTE	W01
	BYTE	W02
	BYTE	W01
	BYTE	W02
	BYTE	W01
	BYTE	W02
	BYTE	W01
	BYTE	W02
	BYTE	W01
	BYTE	W02
	BYTE	W01
	BYTE	W02
	BYTE	W01
	BYTE	W02
	BYTE	W01
	BYTE	W02
	BYTE	W01
	BYTE	W02
	BYTE	W01
	BYTE	W02
	BYTE	W01
	BYTE	W02
	BYTE	W01
	BYTE	W02
	BYTE	W01
	BYTE	W02
// 040   ----------------------------------------
	BYTE	PATT
	 POIN2	ShovelKnightRequiemOfShieldKnight_6_006
// 041   ----------------------------------------
	BYTE	PATT
	 POIN2	ShovelKnightRequiemOfShieldKnight_6_007
	BYTE		EOT     Fs2 
	BYTE	W01
// 042   ----------------------------------------
ShovelKnightRequiemOfShieldKnight_6_042:
	BYTE		N92     Bn2   v044
	BYTE	W96
	BYTE	PEND
// 043   ----------------------------------------
ShovelKnightRequiemOfShieldKnight_6_043:
	BYTE		N23     Bn2   v044
	BYTE	W24
	BYTE		        Cs3 
	BYTE	W24
	BYTE		        Dn3 
	BYTE	W24
	BYTE		        Bn2 
	BYTE	W24
	BYTE	PEND
// 044   ----------------------------------------
ShovelKnightRequiemOfShieldKnight_6_044:
	BYTE		TIE     Gs2   v044
	BYTE	W96
	BYTE	PEND
// 045   ----------------------------------------
	BYTE	PATT
	 POIN2	ShovelKnightRequiemOfShieldKnight_6_027
	BYTE		EOT     Gs2 
	BYTE	W01
	BYTE		N44     Bn2   v044
	BYTE	W48
// 046   ----------------------------------------
	BYTE	PATT
	 POIN2	ShovelKnightRequiemOfShieldKnight_6_003
// 047   ----------------------------------------
ShovelKnightRequiemOfShieldKnight_6_047:
	BYTE		N68     An2   v044
	BYTE	W72
	BYTE		N11   
	BYTE	W12
	BYTE		        Gs2 
	BYTE	W12
	BYTE	PEND
// 048   ----------------------------------------
	BYTE	PATT
	 POIN2	ShovelKnightRequiemOfShieldKnight_6_002
// 049   ----------------------------------------
	BYTE	W96
	BYTE	GoTo
	 POIN2	ShovelKnightRequiemOfShieldKnight_6_B1
ShovelKnightRequiemOfShieldKnight_6_B2:
// 050   ----------------------------------------
	BYTE	PATT
	 POIN2	ShovelKnightRequiemOfShieldKnight_6_002
// 051   ----------------------------------------
	BYTE	PATT
	 POIN2	ShovelKnightRequiemOfShieldKnight_6_003
// 052   ----------------------------------------
	BYTE	PATT
	 POIN2	ShovelKnightRequiemOfShieldKnight_6_004
// 053   ----------------------------------------
	BYTE	PATT
	 POIN2	ShovelKnightRequiemOfShieldKnight_6_004
// 054   ----------------------------------------
	BYTE	PATT
	 POIN2	ShovelKnightRequiemOfShieldKnight_6_006
// 055   ----------------------------------------
	BYTE	PATT
	 POIN2	ShovelKnightRequiemOfShieldKnight_6_007
	BYTE		EOT     Fs2 
	BYTE	W01
// 056   ----------------------------------------
	BYTE	PATT
	 POIN2	ShovelKnightRequiemOfShieldKnight_6_008
// 057   ----------------------------------------
	BYTE	PATT
	 POIN2	ShovelKnightRequiemOfShieldKnight_6_009
// 058   ----------------------------------------
	BYTE	PATT
	 POIN2	ShovelKnightRequiemOfShieldKnight_6_002
// 059   ----------------------------------------
	BYTE	PATT
	 POIN2	ShovelKnightRequiemOfShieldKnight_6_011
// 060   ----------------------------------------
	BYTE	PATT
	 POIN2	ShovelKnightRequiemOfShieldKnight_6_012
// 061   ----------------------------------------
	BYTE	PATT
	 POIN2	ShovelKnightRequiemOfShieldKnight_6_013
// 062   ----------------------------------------
	BYTE	PATT
	 POIN2	ShovelKnightRequiemOfShieldKnight_6_014
// 063   ----------------------------------------
	BYTE	PATT
	 POIN2	ShovelKnightRequiemOfShieldKnight_6_007
	BYTE		EOT     Cs3 
	BYTE	W01
// 064   ----------------------------------------
	BYTE	W96
// 065   ----------------------------------------
	BYTE	W96
// 066   ----------------------------------------
	BYTE	PATT
	 POIN2	ShovelKnightRequiemOfShieldKnight_6_018
// 067   ----------------------------------------
	BYTE	PATT
	 POIN2	ShovelKnightRequiemOfShieldKnight_6_007
	BYTE		EOT     Dn2 
	BYTE	W01
// 068   ----------------------------------------
	BYTE	PATT
	 POIN2	ShovelKnightRequiemOfShieldKnight_6_020
// 069   ----------------------------------------
	BYTE	PATT
	 POIN2	ShovelKnightRequiemOfShieldKnight_6_007
	BYTE		EOT     Bn1 
	BYTE	W01
// 070   ----------------------------------------
	BYTE	PATT
	 POIN2	ShovelKnightRequiemOfShieldKnight_6_006
// 071   ----------------------------------------
	BYTE	PATT
	 POIN2	ShovelKnightRequiemOfShieldKnight_6_007
	BYTE		EOT     Fs2 
	BYTE	W01
// 072   ----------------------------------------
	BYTE	PATT
	 POIN2	ShovelKnightRequiemOfShieldKnight_6_024
// 073   ----------------------------------------
	BYTE	PATT
	 POIN2	ShovelKnightRequiemOfShieldKnight_6_025
// 074   ----------------------------------------
	BYTE	PATT
	 POIN2	ShovelKnightRequiemOfShieldKnight_6_020
// 075   ----------------------------------------
	BYTE	PATT
	 POIN2	ShovelKnightRequiemOfShieldKnight_6_027
	BYTE		EOT     Bn1 
	BYTE	W01
	BYTE		N23     Bn1   v044
	BYTE	W24
	BYTE		        An1 
	BYTE	W24
// 076   ----------------------------------------
	BYTE	PATT
	 POIN2	ShovelKnightRequiemOfShieldKnight_6_028
// 077   ----------------------------------------
	BYTE	PATT
	 POIN2	ShovelKnightRequiemOfShieldKnight_6_027
	BYTE		EOT     Gs1 
	BYTE	W01
	BYTE		N44     Bn1   v044
	BYTE	W48
// 078   ----------------------------------------
	BYTE	PATT
	 POIN2	ShovelKnightRequiemOfShieldKnight_6_030
// 079   ----------------------------------------
	BYTE	PATT
	 POIN2	ShovelKnightRequiemOfShieldKnight_6_007
	BYTE		EOT     An2 
	BYTE	W01
// 080   ----------------------------------------
	BYTE	PATT
	 POIN2	ShovelKnightRequiemOfShieldKnight_6_002
// 081   ----------------------------------------
	BYTE	PATT
	 POIN2	ShovelKnightRequiemOfShieldKnight_6_033
// 082   ----------------------------------------
	BYTE	PATT
	 POIN2	ShovelKnightRequiemOfShieldKnight_6_034
// 083   ----------------------------------------
	BYTE	PATT
	 POIN2	ShovelKnightRequiemOfShieldKnight_6_035
// 084   ----------------------------------------
	BYTE	PATT
	 POIN2	ShovelKnightRequiemOfShieldKnight_6_036
// 085   ----------------------------------------
	BYTE	PATT
	 POIN2	ShovelKnightRequiemOfShieldKnight_6_037
// 086   ----------------------------------------
	BYTE	PATT
	 POIN2	ShovelKnightRequiemOfShieldKnight_6_030
// 087   ----------------------------------------
	BYTE	PATT
	 POIN2	ShovelKnightRequiemOfShieldKnight_6_027
	BYTE		EOT     An2 
	BYTE	W01
	BYTE		N44     Cs2   v127
	BYTE	W01
	BYTE	W01
	BYTE	W01
	BYTE	W01
	BYTE	W01
	BYTE	W01
	BYTE	W01
	BYTE	W02
	BYTE	W01
	BYTE	W02
	BYTE	W01
	BYTE	W02
	BYTE	W01
	BYTE	W02
	BYTE	W01
	BYTE	W02
	BYTE	W01
	BYTE	W02
	BYTE	W01
	BYTE	W02
	BYTE	W01
	BYTE	W02
	BYTE	W01
	BYTE	W02
	BYTE	W01
	BYTE	W02
	BYTE	W01
	BYTE	W02
	BYTE	W01
	BYTE	W02
	BYTE	W01
	BYTE	W02
	BYTE	W01
	BYTE	W02
// 088   ----------------------------------------
	BYTE	PATT
	 POIN2	ShovelKnightRequiemOfShieldKnight_6_006
// 089   ----------------------------------------
	BYTE	PATT
	 POIN2	ShovelKnightRequiemOfShieldKnight_6_007
	BYTE		EOT     Fs2 
	BYTE	W01
// 090   ----------------------------------------
	BYTE	PATT
	 POIN2	ShovelKnightRequiemOfShieldKnight_6_042
// 091   ----------------------------------------
	BYTE	PATT
	 POIN2	ShovelKnightRequiemOfShieldKnight_6_043
// 092   ----------------------------------------
	BYTE	PATT
	 POIN2	ShovelKnightRequiemOfShieldKnight_6_044
// 093   ----------------------------------------
	BYTE	PATT
	 POIN2	ShovelKnightRequiemOfShieldKnight_6_027
	BYTE		EOT     Gs2 
	BYTE	W01
	BYTE		N44     Bn2   v044
	BYTE	W48
// 094   ----------------------------------------
	BYTE	PATT
	 POIN2	ShovelKnightRequiemOfShieldKnight_6_003
// 095   ----------------------------------------
	BYTE	PATT
	 POIN2	ShovelKnightRequiemOfShieldKnight_6_047
// 096   ----------------------------------------
	BYTE	PATT
	 POIN2	ShovelKnightRequiemOfShieldKnight_6_002
// 097   ----------------------------------------
	BYTE	W96
// 098   ----------------------------------------
	BYTE	W96
// 099   ----------------------------------------
	BYTE		N44     An2   v044
	BYTE	W96
// 100   ----------------------------------------
	BYTE		N23     Fs2 
	BYTE	W48
	BYTE		        An2 
	BYTE	W48
// 101   ----------------------------------------
	BYTE		N44     Gs2 
	BYTE	W96
// 102   ----------------------------------------
	BYTE	W96
// 103   ----------------------------------------
	BYTE	W96
	BYTE	W48
// 104   ----------------------------------------
	BYTE	W96
// 105   ----------------------------------------
	BYTE		TIE     Fs2   v004
	BYTE	W01
	BYTE	W02
	BYTE	W01
	BYTE	W02
	BYTE	W01
	BYTE	W02
	BYTE	W01
	BYTE	W02
	BYTE	W01
	BYTE	W02
	BYTE	W01
	BYTE	W02
	BYTE	W01
	BYTE	W02
	BYTE	W01
	BYTE	W02
	BYTE	W01
	BYTE	W02
	BYTE	W01
	BYTE	W02
	BYTE	W01
	BYTE	W02
	BYTE	W01
	BYTE	W02
	BYTE	W01
	BYTE	W02
	BYTE	W01
	BYTE	W02
	BYTE	W01
	BYTE	W02
	BYTE	W01
	BYTE	W02
	BYTE	W01
	BYTE	W02
	BYTE	W01
	BYTE	W02
	BYTE	W01
	BYTE	W02
	BYTE	W01
	BYTE	W02
	BYTE	W01
	BYTE	W02
	BYTE	W01
	BYTE	W02
	BYTE	W01
	BYTE	W02
	BYTE	W01
	BYTE	W02
	BYTE	W01
	BYTE	W02
	BYTE	W01
	BYTE	W02
	BYTE	W01
	BYTE	W02
	BYTE	W01
	BYTE	W02
	BYTE	W01
	BYTE	W02
	BYTE	W01
	BYTE	W02
	BYTE	W01
	BYTE	W02
	BYTE	W01
	BYTE	W02
// 106   ----------------------------------------
	BYTE	W92
	BYTE	W03
	BYTE		EOT   
	BYTE	FINE

//******************************************************//
	ALIGN 4

ShovelKnightRequiemOfShieldKnight:
	BYTE	6	// NumTrks
	BYTE	0	// NumBlks
	BYTE	ShovelKnightRequiemOfShieldKnight_pri	// Priority
	BYTE	ShovelKnightRequiemOfShieldKnight_rev	// Reverb.

	POIN2	ShovelKnightRequiemOfShieldKnight_grp

	POIN2	ShovelKnightRequiemOfShieldKnight_1
	POIN2	ShovelKnightRequiemOfShieldKnight_2
	POIN2	ShovelKnightRequiemOfShieldKnight_3
	POIN2	ShovelKnightRequiemOfShieldKnight_4
	POIN2	ShovelKnightRequiemOfShieldKnight_5
	POIN2	ShovelKnightRequiemOfShieldKnight_6

	
