//Event file generated from Sappy .s format.
	#include "MPlayDef.event"

	#define	GuiltyGearXAdvanceZatoEddiesThemeFeelaFear_grp  voicegroup000
	#define	GuiltyGearXAdvanceZatoEddiesThemeFeelaFear_pri  0
	#define	GuiltyGearXAdvanceZatoEddiesThemeFeelaFear_rev  0
	#define	GuiltyGearXAdvanceZatoEddiesThemeFeelaFear_mvl  127
	#define	GuiltyGearXAdvanceZatoEddiesThemeFeelaFear_key  0
	#define	GuiltyGearXAdvanceZatoEddiesThemeFeelaFear_tbs  1
	#define	GuiltyGearXAdvanceZatoEddiesThemeFeelaFear_exg  0
	#define	GuiltyGearXAdvanceZatoEddiesThemeFeelaFear_cmp  1

	// .rodata
	//	GuiltyGearXAdvanceZatoEddiesThemeFeelaFear
	ALIGN 4


//**************** Track 1 (Midi-Chn.0) ****************//

GuiltyGearXAdvanceZatoEddiesThemeFeelaFear_001:
//  #01 //000   ----------------------------------------
 BYTE   KEYSH   GuiltyGearXAdvanceZatoEddiesThemeFeelaFear_key+0
 BYTE   TEMPO   120*GuiltyGearXAdvanceZatoEddiesThemeFeelaFear_tbs/2
 BYTE   VOICE   42
 BYTE   MODT 0
 BYTE   LFOS 44
 BYTE   VOL   56*GuiltyGearXAdvanceZatoEddiesThemeFeelaFear_mvl/mxv
 BYTE   BEND   c_v+0
 BYTE   W01
 BYTE   PAN   c_v+0
 BYTE   TIE  Ds3  v127
 BYTE   W92
 BYTE   W03
//  #01 //001   ----------------------------------------
 BYTE   W96
//  #01 //002   ----------------------------------------
 BYTE   N96  En3  v116
 BYTE   W01
 BYTE   EOT
 BYTE   Ds3
 BYTE   W92
 BYTE   W03
//  #01 //003   ----------------------------------------
 BYTE   N48  Fs3
 BYTE   W48
 BYTE   En3  v127
 BYTE   W48
//  #01 //004   ----------------------------------------
 BYTE   TIE  Ds3  v124
 BYTE   W96
//  #01 //005   ----------------------------------------
 BYTE   W96
//  #01 //006   ----------------------------------------
 BYTE   EOT
 BYTE   N96  En3
 BYTE   W96
//  #01 //007   ----------------------------------------
 BYTE   N48  Fs3  v127
 BYTE   W48
 BYTE   En3
 BYTE   W48
//  #01 //008   ----------------------------------------
Label_01002B0C:
 BYTE   N05  Ds3  v116
 BYTE   W12
 BYTE   N10  Ds3  v124
 BYTE   W12
 BYTE   N05  Ds3  v116
 BYTE   W06
 BYTE   N05
 BYTE   W06
 BYTE   N05
 BYTE   W06
 BYTE   N05
 BYTE   W06
 BYTE   Fs3
 BYTE   W06
 BYTE   Ds3
 BYTE   W06
 BYTE   N05
 BYTE   W06
 BYTE   N05
 BYTE   W06
 BYTE   Gs3  v127
 BYTE   W06
 BYTE   Ds3  v124
 BYTE   W06
 BYTE   En3
 BYTE   W06
 BYTE   Fs3
 BYTE   W06
 BYTE   PEND 
//  #01 //009   ----------------------------------------
Label_01002B31:
 BYTE   N05  Ds3  v124
 BYTE   W12
 BYTE   N10
 BYTE   W12
 BYTE   N05  Ds3  v116
 BYTE   W06
 BYTE   N05
 BYTE   W06
 BYTE   N05
 BYTE   W06
 BYTE   N05
 BYTE   W06
 BYTE   Fs3  v124
 BYTE   W06
 BYTE   Ds3  v116
 BYTE   W06
 BYTE   Ds4  v127
 BYTE   W06
 BYTE   Ds3  v116
 BYTE   W06
 BYTE   An3  v124
 BYTE   W06
 BYTE   Gs3
 BYTE   W06
 BYTE   Fs3
 BYTE   W06
 BYTE   En3  v127
 BYTE   W06
 BYTE   PEND 
//  #01 //010   ----------------------------------------
 BYTE   PATT
  POIN2 Label_01002B0C
//  #01 //011   ----------------------------------------
 BYTE   PATT
  POIN2 Label_01002B31
//  #01 //012   ----------------------------------------
Label_01002B62:
 BYTE   N05  As3  v116
 BYTE   W12
 BYTE   N10  As3  v124
 BYTE   W12
 BYTE   N05  As3  v116
 BYTE   W06
 BYTE   N05
 BYTE   W06
 BYTE   N05
 BYTE   W06
 BYTE   N05
 BYTE   W12
 BYTE   N05
 BYTE   W06
 BYTE   N05
 BYTE   W06
 BYTE   N05
 BYTE   W30
 BYTE   PEND 
//  #01 //013   ----------------------------------------
Label_01002B7B:
 BYTE   N05  As3  v124
 BYTE   W12
 BYTE   N10
 BYTE   W12
 BYTE   N05  As3  v116
 BYTE   W06
 BYTE   N05
 BYTE   W06
 BYTE   N05
 BYTE   W06
 BYTE   N05
 BYTE   W12
 BYTE   N05
 BYTE   W12
 BYTE   N05
 BYTE   W06
 BYTE   An3  v124
 BYTE   W24
 BYTE   PEND 
//  #01 //014   ----------------------------------------
 BYTE   PATT
  POIN2 Label_01002B62
//  #01 //015   ----------------------------------------
 BYTE   PATT
  POIN2 Label_01002B7B
//  #01 //016   ----------------------------------------
 BYTE   PATT
  POIN2 Label_01002B62
//  #01 //017   ----------------------------------------
 BYTE   PATT
  POIN2 Label_01002B7B
//  #01 //018   ----------------------------------------
 BYTE   PATT
  POIN2 Label_01002B62
//  #01 //019   ----------------------------------------
 BYTE   PATT
  POIN2 Label_01002B7B
//  #01 //020   ----------------------------------------
Label_01002BB1:
 BYTE   N10  Ds3  v124
 BYTE   W12
 BYTE   N05  Ds3  v116
 BYTE   W06
 BYTE   N05
 BYTE   W06
 BYTE   Gs3
 BYTE   W06
 BYTE   Ds3
 BYTE   W06
 BYTE   Fs3  v127
 BYTE   W06
 BYTE   Ds3  v116
 BYTE   W06
 BYTE   As3  v124
 BYTE   W06
 BYTE   Ds3  v116
 BYTE   W06
 BYTE   N05
 BYTE   W06
 BYTE   N05
 BYTE   W06
 BYTE   Fs3  v127
 BYTE   W06
 BYTE   Ds3  v116
 BYTE   W06
 BYTE   Cs4
 BYTE   W06
 BYTE   Ds3
 BYTE   W06
 BYTE   PEND 
//  #01 //021   ----------------------------------------
Label_01002BDA:
 BYTE   N05  Cn4  v124
 BYTE   W06
 BYTE   Ds3  v116
 BYTE   W06
 BYTE   N05
 BYTE   W06
 BYTE   N05
 BYTE   W06
 BYTE   Fs3
 BYTE   W06
 BYTE   Ds3
 BYTE   W06
 BYTE   Gs3  v127
 BYTE   W06
 BYTE   Ds3  v116
 BYTE   W06
 BYTE   An3  v124
 BYTE   W06
 BYTE   Gs3
 BYTE   W06
 BYTE   Fs3
 BYTE   W06
 BYTE   An3  v127
 BYTE   W06
 BYTE   Gs3  v124
 BYTE   W06
 BYTE   Fs3
 BYTE   W06
 BYTE   Gs3
 BYTE   W06
 BYTE   Fs3  v116
 BYTE   W06
 BYTE   PEND 
//  #01 //022   ----------------------------------------
 BYTE   N10  Ds3  v124
 BYTE   W12
 BYTE   N05  Ds3  v116
 BYTE   W06
 BYTE   N05
 BYTE   W06
 BYTE   Gs3  v124
 BYTE   W06
 BYTE   Ds3  v116
 BYTE   W06
 BYTE   Fs3  v127
 BYTE   W06
 BYTE   Ds3  v116
 BYTE   W06
 BYTE   As3  v124
 BYTE   W06
 BYTE   Ds3  v116
 BYTE   W06
 BYTE   N05
 BYTE   W06
 BYTE   N05
 BYTE   W06
 BYTE   Fs3  v127
 BYTE   W06
 BYTE   Ds3  v116
 BYTE   W06
 BYTE   Cs4  v124
 BYTE   W06
 BYTE   Ds3  v116
 BYTE   W06
//  #01 //023   ----------------------------------------
 BYTE   Cn4
 BYTE   W06
 BYTE   Ds3
 BYTE   W06
 BYTE   N05
 BYTE   W06
 BYTE   N05
 BYTE   W06
 BYTE   Fs3  v127
 BYTE   W06
 BYTE   Ds3  v116
 BYTE   W06
 BYTE   Gs3  v127
 BYTE   W06
 BYTE   Ds3  v116
 BYTE   W06
 BYTE   An3  v124
 BYTE   W06
 BYTE   Ds3  v116
 BYTE   W06
 BYTE   Gs3  v127
 BYTE   W06
 BYTE   Ds3  v116
 BYTE   W06
 BYTE   N16  Fs3  v124
 BYTE   W18
 BYTE   N05  Ds3  v116
 BYTE   W06
//  #01 //024   ----------------------------------------
 BYTE   PATT
  POIN2 Label_01002BB1
//  #01 //025   ----------------------------------------
 BYTE   PATT
  POIN2 Label_01002BDA
//  #01 //026   ----------------------------------------
 BYTE   N42  Ds5  v072
 BYTE   W48
 BYTE   En5  v064
 BYTE   W48
//  #01 //027   ----------------------------------------
Label_01002C69:
 BYTE   N42  An4  v072
 BYTE   W48
 BYTE   Gs4
 BYTE   W48
 BYTE   PEND 
//  #01 //028   ----------------------------------------
 BYTE   Cs5  v064
 BYTE   W48
 BYTE   Fs5  v072
 BYTE   W48
//  #01 //029   ----------------------------------------
 BYTE   Ds5
 BYTE   W48
 BYTE   Dn5  v064
 BYTE   W48
//  #01 //030   ----------------------------------------
 BYTE   Ds5  v072
 BYTE   W48
 BYTE   En5
 BYTE   W48
//  #01 //031   ----------------------------------------
 BYTE   PATT
  POIN2 Label_01002C69
//  #01 //032   ----------------------------------------
 BYTE   N42  Cs5  v072
 BYTE   W48
 BYTE   Fs5  v064
 BYTE   W48
//  #01 //033   ----------------------------------------
 BYTE   Ds5
 BYTE   W48
 BYTE   Dn5  v072
 BYTE   W48
//  #01 //034   ----------------------------------------
 BYTE   N10  Ds3  v124
 BYTE   W12
 BYTE   N05  Ds3  v116
 BYTE   W06
 BYTE   N05
 BYTE   W06
 BYTE   Ds5  v124
 BYTE   W06
 BYTE   Cs5  v116
 BYTE   W06
 BYTE   An4  v124
 BYTE   W06
 BYTE   Gs4
 BYTE   W06
 BYTE   N10  Ds3
 BYTE   W12
 BYTE   N05  Ds3  v116
 BYTE   W06
 BYTE   N05
 BYTE   W06
 BYTE   Gn3  v124
 BYTE   W06
 BYTE   Gs3
 BYTE   W06
 BYTE   An3  v116
 BYTE   W06
 BYTE   As3  v124
 BYTE   W06
//  #01 //035   ----------------------------------------
 BYTE   N10  Ds3  v116
 BYTE   W12
 BYTE   Fs3  v127
 BYTE   W12
 BYTE   Fn3  v124
 BYTE   W12
 BYTE   En3  v116
 BYTE   W12
 BYTE   N05  Ds5  v124
 BYTE   W06
 BYTE   Cs5  v127
 BYTE   W06
 BYTE   An4  v116
 BYTE   W06
 BYTE   Gs4  v127
 BYTE   W06
 BYTE   N10  Ds3  v116
 BYTE   W12
 BYTE   En3  v124
 BYTE   W12
//  #01 //036   ----------------------------------------
 BYTE   Fn3  v127
 BYTE   W12
 BYTE   Fs3  v124
 BYTE   W12
 BYTE   N05  Ds5
 BYTE   W06
 BYTE   Cs5  v127
 BYTE   W06
 BYTE   An4  v124
 BYTE   W06
 BYTE   As4  v127
 BYTE   W06
 BYTE   N21  Fs3
 BYTE   W24
 BYTE   En3  v124
 BYTE   W24
//  #01 //037   ----------------------------------------
Label_01002CF3:
 BYTE   N42  As3  v112
 BYTE   W48
 BYTE   N05  As3  v104
 BYTE   W06
 BYTE   N05
 BYTE   W06
 BYTE   N05
 BYTE   W12
 BYTE   N05
 BYTE   W06
 BYTE   N05
 BYTE   W06
 BYTE   N05
 BYTE   W12
 BYTE   PEND 
//  #01 //038   ----------------------------------------
Label_01002D06:
 BYTE   N10  Bn3  v116
 BYTE   W12
 BYTE   N05  Bn3  v104
 BYTE   W06
 BYTE   N05
 BYTE   W06
 BYTE   N05
 BYTE   W06
 BYTE   N05
 BYTE   W06
 BYTE   N05
 BYTE   W12
 BYTE   N05
 BYTE   W06
 BYTE   N05
 BYTE   W06
 BYTE   N05
 BYTE   W12
 BYTE   N05
 BYTE   W06
 BYTE   N05
 BYTE   W06
 BYTE   N05
 BYTE   W12
 BYTE   PEND 
//  #01 //039   ----------------------------------------
Label_01002D23:
 BYTE   N10  As3  v112
 BYTE   W12
 BYTE   N05  As3  v104
 BYTE   W06
 BYTE   N05
 BYTE   W06
 BYTE   N05
 BYTE   W06
 BYTE   N05
 BYTE   W06
 BYTE   N05
 BYTE   W12
 BYTE   N05
 BYTE   W06
 BYTE   N05
 BYTE   W06
 BYTE   N05
 BYTE   W12
 BYTE   N05
 BYTE   W06
 BYTE   N05
 BYTE   W06
 BYTE   N05
 BYTE   W12
 BYTE   PEND 
//  #01 //040   ----------------------------------------
Label_01002D40:
 BYTE   N10  Bn3  v112
 BYTE   W12
 BYTE   N05  Bn3  v104
 BYTE   W06
 BYTE   N05
 BYTE   W06
 BYTE   N05
 BYTE   W06
 BYTE   N05
 BYTE   W06
 BYTE   N05
 BYTE   W12
 BYTE   N05
 BYTE   W06
 BYTE   N05
 BYTE   W06
 BYTE   N05
 BYTE   W12
 BYTE   N05
 BYTE   W06
 BYTE   N05
 BYTE   W06
 BYTE   N05
 BYTE   W12
 BYTE   PEND 
//  #01 //041   ----------------------------------------
 BYTE   N10  Ds3  v124
 BYTE   W12
 BYTE   Ds3  v127
 BYTE   W12
 BYTE   N05  Ds4  v124
 BYTE   W06
 BYTE   Cs4  v116
 BYTE   W06
 BYTE   Gs3  v127
 BYTE   W06
 BYTE   Fs3  v124
 BYTE   W06
 BYTE   N10  Ds3  v116
 BYTE   W12
 BYTE   Ds3  v124
 BYTE   W12
 BYTE   N05  Ds4
 BYTE   W06
 BYTE   Cs4
 BYTE   W06
 BYTE   Gs3  v127
 BYTE   W06
 BYTE   Fs3  v124
 BYTE   W06
//  #01 //042   ----------------------------------------
 BYTE   N10  Ds3  v127
 BYTE   W12
 BYTE   Ds3  v124
 BYTE   W12
 BYTE   N05  Ds4  v116
 BYTE   W06
 BYTE   Cs4  v127
 BYTE   W06
 BYTE   Gs3
 BYTE   W06
 BYTE   Fs3  v124
 BYTE   W06
 BYTE   N10  Ds3
 BYTE   W12
 BYTE   Ds3  v127
 BYTE   W12
 BYTE   N05  Ds4  v124
 BYTE   W06
 BYTE   Cs4  v127
 BYTE   W06
 BYTE   Gs3
 BYTE   W06
 BYTE   Fs3  v124
 BYTE   W06
//  #01 //043   ----------------------------------------
 BYTE   PATT
  POIN2 Label_01002CF3
//  #01 //044   ----------------------------------------
 BYTE   PATT
  POIN2 Label_01002D06
//  #01 //045   ----------------------------------------
 BYTE   PATT
  POIN2 Label_01002D23
//  #01 //046   ----------------------------------------
 BYTE   PATT
  POIN2 Label_01002D40
//  #01 //047   ----------------------------------------
 BYTE   N10  Ds5  v127
 BYTE   W24
 BYTE   Ds5  v124
 BYTE   W24
 BYTE   Ds5  v127
 BYTE   W24
 BYTE   En5  v124
 BYTE   W24
//  #01 //048   ----------------------------------------
 BYTE   Ds5  v116
 BYTE   W24
 BYTE   Ds5  v127
 BYTE   W24
 BYTE   Ds5  v124
 BYTE   W24
 BYTE   En5
 BYTE   W24
//  #01 //049   ----------------------------------------
 BYTE   N42  Gs3  v127
 BYTE   W48
 BYTE   Gs4  v116
 BYTE   W48
//  #01 //050   ----------------------------------------
 BYTE   Fs4  v124
 BYTE   W48
 BYTE   Ds4
 BYTE   W48
//  #01 //051   ----------------------------------------
 BYTE   Bn3  v127
 BYTE   W48
 BYTE   Cn4  v116
 BYTE   W48
//  #01 //052   ----------------------------------------
 BYTE   Cs4  v127
 BYTE   W48
 BYTE   Dn4  v124
 BYTE   W48
//  #01 //053   ----------------------------------------
 BYTE   GoTo
  POIN2 Label_01002B62
 BYTE   FINE

//**************** Track 2 (Midi-Chn.1) ****************//

GuiltyGearXAdvanceZatoEddiesThemeFeelaFear_002:
//  #02 //000   ----------------------------------------
 BYTE   KEYSH   GuiltyGearXAdvanceZatoEddiesThemeFeelaFear_key+0
 BYTE   VOICE   4
 BYTE   MODT 0
 BYTE   LFOS 44
 BYTE   VOL   72*GuiltyGearXAdvanceZatoEddiesThemeFeelaFear_mvl/mxv
 BYTE   BENDR  12
 BYTE   BEND   c_v+0
 BYTE   W01
 BYTE   PAN   c_v+0
 BYTE   TIE  As1  v116
 BYTE   W92
 BYTE   W03
//  #02 //001   ----------------------------------------
 BYTE   W96
//  #02 //002   ----------------------------------------
 BYTE   N96  Bn1
 BYTE   W01
 BYTE   EOT
 BYTE   As1
 BYTE   W92
 BYTE   W03
//  #02 //003   ----------------------------------------
Label_01002E12:
 BYTE   N48  Cs2  v116
 BYTE   W48
 BYTE   Bn1
 BYTE   W48
 BYTE   PEND 
//  #02 //004   ----------------------------------------
 BYTE   TIE  As1
 BYTE   W96
//  #02 //005   ----------------------------------------
 BYTE   W96
//  #02 //006   ----------------------------------------
 BYTE   EOT
 BYTE   N96  Bn1
 BYTE   W96
//  #02 //007   ----------------------------------------
 BYTE   PATT
  POIN2 Label_01002E12
//  #02 //008   ----------------------------------------
Label_01002E26:
 BYTE   N05  Ds2  v116
 BYTE   W12
 BYTE   N10  Ds2  v124
 BYTE   W12
 BYTE   N05  Ds2  v116
 BYTE   W06
 BYTE   N05
 BYTE   W06
 BYTE   N05
 BYTE   W06
 BYTE   N05
 BYTE   W06
 BYTE   Fs2
 BYTE   W06
 BYTE   Ds2
 BYTE   W06
 BYTE   N05
 BYTE   W06
 BYTE   N05
 BYTE   W06
 BYTE   Gs2  v127
 BYTE   W06
 BYTE   Ds2  v124
 BYTE   W06
 BYTE   En2
 BYTE   W06
 BYTE   Fs2
 BYTE   W06
 BYTE   PEND 
//  #02 //009   ----------------------------------------
Label_01002E4B:
 BYTE   N05  Ds2  v124
 BYTE   W12
 BYTE   N10
 BYTE   W12
 BYTE   N05  Ds2  v116
 BYTE   W06
 BYTE   N05
 BYTE   W06
 BYTE   N05
 BYTE   W06
 BYTE   N05
 BYTE   W06
 BYTE   Fs2  v124
 BYTE   W06
 BYTE   Ds2  v116
 BYTE   W06
 BYTE   Ds3  v127
 BYTE   W06
 BYTE   Ds2  v116
 BYTE   W06
 BYTE   An2  v124
 BYTE   W06
 BYTE   Gs2
 BYTE   W06
 BYTE   Fs2
 BYTE   W06
 BYTE   En2  v127
 BYTE   W06
 BYTE   PEND 
//  #02 //010   ----------------------------------------
 BYTE   PATT
  POIN2 Label_01002E26
//  #02 //011   ----------------------------------------
 BYTE   PATT
  POIN2 Label_01002E4B
//  #02 //012   ----------------------------------------
Label_01002E7C:
 BYTE   N05  Ds1  v116
 BYTE   W12
 BYTE   N10  Ds1  v124
 BYTE   W12
 BYTE   N05  Ds1  v116
 BYTE   W06
 BYTE   N05
 BYTE   W06
 BYTE   N05
 BYTE   W06
 BYTE   N05
 BYTE   W06
 BYTE   Fs1
 BYTE   W06
 BYTE   Ds1
 BYTE   W06
 BYTE   N05
 BYTE   W06
 BYTE   N05
 BYTE   W06
 BYTE   Gs1  v127
 BYTE   W06
 BYTE   Ds1  v124
 BYTE   W06
 BYTE   En1
 BYTE   W06
 BYTE   Fs1
 BYTE   W06
 BYTE   PEND 
//  #02 //013   ----------------------------------------
Label_01002EA1:
 BYTE   N05  Ds1  v124
 BYTE   W12
 BYTE   N10
 BYTE   W12
 BYTE   N05  Ds1  v116
 BYTE   W06
 BYTE   N05
 BYTE   W06
 BYTE   N05
 BYTE   W06
 BYTE   N05
 BYTE   W06
 BYTE   Fs1  v124
 BYTE   W06
 BYTE   Ds1  v116
 BYTE   W06
 BYTE   Ds2  v127
 BYTE   W06
 BYTE   Ds1  v116
 BYTE   W12
 BYTE   Gs1  v124
 BYTE   W06
 BYTE   Fs1
 BYTE   W06
 BYTE   En1  v127
 BYTE   W06
 BYTE   PEND 
//  #02 //014   ----------------------------------------
 BYTE   PATT
  POIN2 Label_01002E7C
//  #02 //015   ----------------------------------------
 BYTE   PATT
  POIN2 Label_01002EA1
//  #02 //016   ----------------------------------------
 BYTE   PATT
  POIN2 Label_01002E7C
//  #02 //017   ----------------------------------------
 BYTE   PATT
  POIN2 Label_01002EA1
//  #02 //018   ----------------------------------------
 BYTE   PATT
  POIN2 Label_01002E7C
//  #02 //019   ----------------------------------------
 BYTE   PATT
  POIN2 Label_01002EA1
//  #02 //020   ----------------------------------------
Label_01002EE4:
 BYTE   N10  Ds2  v124
 BYTE   W12
 BYTE   N05  Ds2  v116
 BYTE   W06
 BYTE   N05
 BYTE   W06
 BYTE   Gs2  v127
 BYTE   W06
 BYTE   Ds2  v116
 BYTE   W06
 BYTE   Fs2
 BYTE   W06
 BYTE   Ds2
 BYTE   W06
 BYTE   As2  v127
 BYTE   W06
 BYTE   Ds2  v116
 BYTE   W06
 BYTE   N05
 BYTE   W06
 BYTE   N05
 BYTE   W06
 BYTE   Fs2  v124
 BYTE   W06
 BYTE   Ds2  v116
 BYTE   W06
 BYTE   Cs3  v127
 BYTE   W06
 BYTE   Ds2  v116
 BYTE   W06
 BYTE   PEND 
//  #02 //021   ----------------------------------------
Label_01002F0F:
 BYTE   N05  Cn3  v127
 BYTE   W06
 BYTE   Ds2  v116
 BYTE   W06
 BYTE   N05
 BYTE   W06
 BYTE   N05
 BYTE   W06
 BYTE   Fs2  v124
 BYTE   W06
 BYTE   Ds2  v116
 BYTE   W06
 BYTE   Gs2  v127
 BYTE   W06
 BYTE   Ds2  v116
 BYTE   W06
 BYTE   An2  v127
 BYTE   W06
 BYTE   Gs2  v124
 BYTE   W06
 BYTE   Fs2  v127
 BYTE   W06
 BYTE   An2  v124
 BYTE   W06
 BYTE   Gs2
 BYTE   W06
 BYTE   Fs2
 BYTE   W06
 BYTE   Gs2
 BYTE   W06
 BYTE   Fs2  v116
 BYTE   W06
 BYTE   PEND 
//  #02 //022   ----------------------------------------
 BYTE   N10  Ds2  v124
 BYTE   W12
 BYTE   N05  Ds2  v116
 BYTE   W06
 BYTE   N05
 BYTE   W06
 BYTE   Gs2  v127
 BYTE   W06
 BYTE   Ds2  v116
 BYTE   W06
 BYTE   Fs2  v124
 BYTE   W06
 BYTE   Ds2  v116
 BYTE   W06
 BYTE   As2  v124
 BYTE   W06
 BYTE   Ds2  v116
 BYTE   W06
 BYTE   N05
 BYTE   W06
 BYTE   N05
 BYTE   W06
 BYTE   Fs2  v124
 BYTE   W06
 BYTE   Ds2  v116
 BYTE   W06
 BYTE   Cs3
 BYTE   W06
 BYTE   Ds2
 BYTE   W06
//  #02 //023   ----------------------------------------
 BYTE   Cn3
 BYTE   W06
 BYTE   Ds2
 BYTE   W06
 BYTE   N05
 BYTE   W06
 BYTE   N05
 BYTE   W06
 BYTE   Fs2  v127
 BYTE   W06
 BYTE   Ds2  v116
 BYTE   W06
 BYTE   Gs2  v124
 BYTE   W06
 BYTE   Ds2  v116
 BYTE   W06
 BYTE   An2
 BYTE   W06
 BYTE   Ds2
 BYTE   W06
 BYTE   Gs2  v127
 BYTE   W06
 BYTE   Ds2  v116
 BYTE   W06
 BYTE   N16  Fs2  v124
 BYTE   W18
 BYTE   N05  Ds2  v116
 BYTE   W06
//  #02 //024   ----------------------------------------
 BYTE   PATT
  POIN2 Label_01002EE4
//  #02 //025   ----------------------------------------
 BYTE   PATT
  POIN2 Label_01002F0F
//  #02 //026   ----------------------------------------
Label_01002F96:
 BYTE   N10  En4  v060
 BYTE   W12
 BYTE   Dn4
 BYTE   W12
 BYTE   Gs3
 BYTE   W12
 BYTE   An3
 BYTE   W12
 BYTE   En4
 BYTE   W12
 BYTE   Ds4
 BYTE   W12
 BYTE   An3
 BYTE   W12
 BYTE   Fs4
 BYTE   W12
 BYTE   PEND 
//  #02 //027   ----------------------------------------
 BYTE   PATT
  POIN2 Label_01002F96
//  #02 //028   ----------------------------------------
Label_01002FAE:
 BYTE   N10  Fn4  v060
 BYTE   W12
 BYTE   Dn4
 BYTE   W12
 BYTE   Ds4
 BYTE   W12
 BYTE   An3
 BYTE   W12
 BYTE   Cs4
 BYTE   W12
 BYTE   Cn4
 BYTE   W12
 BYTE   As3
 BYTE   W12
 BYTE   An3
 BYTE   W12
 BYTE   PEND 
//  #02 //029   ----------------------------------------
Label_01002FC1:
 BYTE   N10  As3  v060
 BYTE   W12
 BYTE   An3
 BYTE   W12
 BYTE   Cs4
 BYTE   W12
 BYTE   An3
 BYTE   W12
 BYTE   En4
 BYTE   W12
 BYTE   Ds4
 BYTE   W12
 BYTE   An3
 BYTE   W12
 BYTE   Fs4
 BYTE   W12
 BYTE   PEND 
//  #02 //030   ----------------------------------------
 BYTE   PATT
  POIN2 Label_01002F96
//  #02 //031   ----------------------------------------
 BYTE   PATT
  POIN2 Label_01002F96
//  #02 //032   ----------------------------------------
 BYTE   PATT
  POIN2 Label_01002FAE
//  #02 //033   ----------------------------------------
 BYTE   PATT
  POIN2 Label_01002FC1
//  #02 //034   ----------------------------------------
 BYTE   N10  Ds1  v127
 BYTE   W12
 BYTE   N05  Ds1  v124
 BYTE   W06
 BYTE   N05
 BYTE   W06
 BYTE   Ds3  v127
 BYTE   W06
 BYTE   Cs3  v124
 BYTE   W06
 BYTE   An2  v127
 BYTE   W06
 BYTE   Gs2  v124
 BYTE   W06
 BYTE   N10  Ds1
 BYTE   W12
 BYTE   N05
 BYTE   W06
 BYTE   N05
 BYTE   W06
 BYTE   Gn1  v127
 BYTE   W06
 BYTE   Gs1  v116
 BYTE   W06
 BYTE   An1  v124
 BYTE   W06
 BYTE   As1
 BYTE   W06
//  #02 //035   ----------------------------------------
 BYTE   N10  Ds1  v127
 BYTE   W12
 BYTE   Fs1
 BYTE   W12
 BYTE   Fn1  v124
 BYTE   W12
 BYTE   En1
 BYTE   W12
 BYTE   N05  Ds3
 BYTE   W06
 BYTE   Cs3
 BYTE   W06
 BYTE   An2  v127
 BYTE   W06
 BYTE   Gs2
 BYTE   W06
 BYTE   N10  Ds1
 BYTE   W12
 BYTE   En1
 BYTE   W12
//  #02 //036   ----------------------------------------
 BYTE   Fn1  v124
 BYTE   W12
 BYTE   Fs1  v127
 BYTE   W12
 BYTE   N05  Ds3
 BYTE   W06
 BYTE   Cs3  v124
 BYTE   W06
 BYTE   An2  v116
 BYTE   W06
 BYTE   As2  v127
 BYTE   W06
 BYTE   N21  Fs1
 BYTE   W24
 BYTE   En1  v124
 BYTE   W24
//  #02 //037   ----------------------------------------
 BYTE   N32  An3
 BYTE   W36
 BYTE   N05  Gn3
 BYTE   W06
 BYTE   An3
 BYTE   W06
 BYTE   N21  As3  v127
 BYTE   W24
 BYTE   Cn4  v124
 BYTE   W24
//  #02 //038   ----------------------------------------
 BYTE   N16  Cs4  v116
 BYTE   W18
 BYTE   Cn4  v124
 BYTE   W18
 BYTE   N10  As3
 BYTE   W12
 BYTE   Ds4
 BYTE   W12
 BYTE   Cs4
 BYTE   W12
 BYTE   N21  Cn4
 BYTE   W24
//  #02 //039   ----------------------------------------
 BYTE   N42  An3  v127
 BYTE   W48
 BYTE   N32  Gs3  v124
 BYTE   W36
 BYTE   N05  An3
 BYTE   W06
 BYTE   Gs3
 BYTE   W06
//  #02 //040   ----------------------------------------
 BYTE   N32  Fs3
 BYTE   W36
 BYTE   N05  Gs3  v116
 BYTE   W06
 BYTE   As3
 BYTE   W06
 BYTE   N21  Fn3  v127
 BYTE   W24
 BYTE   Gs3  v124
 BYTE   W24
//  #02 //041   ----------------------------------------
Label_0100307F:
 BYTE   N10  As1  v127
 BYTE   W12
 BYTE   As1  v124
 BYTE   W12
 BYTE   N05  Ds2
 BYTE   W06
 BYTE   Cs2
 BYTE   W06
 BYTE   Gs1
 BYTE   W06
 BYTE   Fs1
 BYTE   W06
 BYTE   N10  As1  v116
 BYTE   W12
 BYTE   As1  v127
 BYTE   W12
 BYTE   N05  Ds2  v124
 BYTE   W06
 BYTE   Cs2  v116
 BYTE   W06
 BYTE   Gs1
 BYTE   W06
 BYTE   Fs1
 BYTE   W06
 BYTE   PEND 
//  #02 //042   ----------------------------------------
Label_010030A2:
 BYTE   N10  As1  v127
 BYTE   W12
 BYTE   As1  v124
 BYTE   W12
 BYTE   N05  Ds2  v127
 BYTE   W06
 BYTE   Cs2  v116
 BYTE   W06
 BYTE   Gs1
 BYTE   W06
 BYTE   Fs1  v127
 BYTE   W06
 BYTE   N10  As1
 BYTE   W12
 BYTE   N10
 BYTE   W12
 BYTE   N05  Ds2
 BYTE   W06
 BYTE   Cs2  v124
 BYTE   W06
 BYTE   Gs1  v127
 BYTE   W06
 BYTE   Fs1  v124
 BYTE   W06
 BYTE   PEND 
//  #02 //043   ----------------------------------------
 BYTE   N32  An3  v060
 BYTE   W36
 BYTE   N05  Gn3
 BYTE   W06
 BYTE   An3
 BYTE   W06
 BYTE   N21  As3
 BYTE   W24
 BYTE   Cn4
 BYTE   W24
//  #02 //044   ----------------------------------------
 BYTE   N16  Cs4
 BYTE   W18
 BYTE   Cn4
 BYTE   W18
 BYTE   N10  As3
 BYTE   W12
 BYTE   Ds4
 BYTE   W12
 BYTE   Cs4
 BYTE   W12
 BYTE   N21  Cn4
 BYTE   W24
//  #02 //045   ----------------------------------------
 BYTE   N42  An3
 BYTE   W48
 BYTE   N32  Gs3
 BYTE   W36
 BYTE   N05  An3
 BYTE   W06
 BYTE   Gs3
 BYTE   W06
//  #02 //046   ----------------------------------------
 BYTE   N32  Fs3
 BYTE   W36
 BYTE   N05  Gs3
 BYTE   W06
 BYTE   As3
 BYTE   W06
 BYTE   N21  Fn3
 BYTE   W24
 BYTE   Gs3
 BYTE   W24
//  #02 //047   ----------------------------------------
 BYTE   PATT
  POIN2 Label_0100307F
//  #02 //048   ----------------------------------------
 BYTE   PATT
  POIN2 Label_010030A2
//  #02 //049   ----------------------------------------
 BYTE   N16  Gs3  v124
 BYTE   W18
 BYTE   Ds4
 BYTE   W18
 BYTE   N10  Gs3  v127
 BYTE   W12
 BYTE   N16  Fs3  v124
 BYTE   W18
 BYTE   Ds4
 BYTE   W18
 BYTE   N10  Fs3
 BYTE   W12
//  #02 //050   ----------------------------------------
 BYTE   N16  En3
 BYTE   W18
 BYTE   Ds4  v127
 BYTE   W18
 BYTE   N10  En3
 BYTE   W12
 BYTE   N16  Fs3
 BYTE   W18
 BYTE   Ds4  v124
 BYTE   W18
 BYTE   N10  Fs3
 BYTE   W12
//  #02 //051   ----------------------------------------
 BYTE   N16  Gs3  v116
 BYTE   W18
 BYTE   Ds4  v124
 BYTE   W18
 BYTE   N10  Gs3
 BYTE   W12
 BYTE   N16  Fs3
 BYTE   W18
 BYTE   Ds4  v127
 BYTE   W18
 BYTE   N10  Fs3  v124
 BYTE   W12
//  #02 //052   ----------------------------------------
 BYTE   N16  En3
 BYTE   W18
 BYTE   Ds4
 BYTE   W18
 BYTE   N10  En3  v127
 BYTE   W12
 BYTE   N16  Fs3  v124
 BYTE   W18
 BYTE   Ds4
 BYTE   W18
 BYTE   N10  Fs3
 BYTE   W12
//  #02 //053   ----------------------------------------
 BYTE   GoTo
  POIN2 Label_01002E7C
 BYTE   FINE

//**************** Track 3 (Midi-Chn.2) ****************//

GuiltyGearXAdvanceZatoEddiesThemeFeelaFear_003:
//  #03 //000   ----------------------------------------
 BYTE   KEYSH   GuiltyGearXAdvanceZatoEddiesThemeFeelaFear_key+0
 BYTE   VOICE   30
 BYTE   MODT 0
 BYTE   LFOS 44
 BYTE   PAN   c_v+0
 BYTE   VOL   56*GuiltyGearXAdvanceZatoEddiesThemeFeelaFear_mvl/mxv
 BYTE   BEND   c_v+0
 BYTE   W01
 BYTE   TIE  Ds2  v127
 BYTE   W92
 BYTE   W03
//  #03 //001   ----------------------------------------
 BYTE   W92
 BYTE   W01
 BYTE   EOT
 BYTE   W03
//  #03 //002   ----------------------------------------
 BYTE   N92  En2
 BYTE   W96
//  #03 //003   ----------------------------------------
 BYTE   N44  Fs2
 BYTE   W48
 BYTE   N42  En2
 BYTE   W36
 BYTE   N04  Fs2
 BYTE   W06
 BYTE   En2
 BYTE   W06
//  #03 //004   ----------------------------------------
Label_0100317E:
 BYTE   N15  Ds2  v127
 BYTE   W48
 BYTE   N15
 BYTE   W48
 BYTE   PEND 
//  #03 //005   ----------------------------------------
 BYTE   PATT
  POIN2 Label_0100317E
//  #03 //006   ----------------------------------------
 BYTE   N15  En2  v127
 BYTE   W48
 BYTE   N15
 BYTE   W48
//  #03 //007   ----------------------------------------
 BYTE   N13  Fs2
 BYTE   W24
 BYTE   N21
 BYTE   W24
 BYTE   N10  En2
 BYTE   W24
 BYTE   N21
 BYTE   W24
//  #03 //008   ----------------------------------------
 BYTE   TIE  Ds2  v052
 BYTE   W96
//  #03 //009   ----------------------------------------
 BYTE   W76
 BYTE   EOT
 BYTE   W20
//  #03 //010   ----------------------------------------
 BYTE   W96
//  #03 //011   ----------------------------------------
 BYTE   W96
//  #03 //012   ----------------------------------------
Label_010031A3:
 BYTE   N09  Ds2  v127
 BYTE   W12
 BYTE   N04
 BYTE   W06
 BYTE   N04
 BYTE   W06
 BYTE   N09
 BYTE   W12
 BYTE   N04
 BYTE   W06
 BYTE   N04
 BYTE   W06
 BYTE   Fs2
 BYTE   W06
 BYTE   Ds2
 BYTE   W06
 BYTE   N04
 BYTE   W06
 BYTE   N04
 BYTE   W06
 BYTE   Gs2
 BYTE   W06
 BYTE   Ds2
 BYTE   W06
 BYTE   En2
 BYTE   W06
 BYTE   Fs2
 BYTE   W06
 BYTE   PEND 
//  #03 //013   ----------------------------------------
Label_010031C2:
 BYTE   N09  Ds2  v127
 BYTE   W12
 BYTE   N04
 BYTE   W06
 BYTE   N04
 BYTE   W06
 BYTE   N09
 BYTE   W12
 BYTE   N04
 BYTE   W06
 BYTE   N04
 BYTE   W06
 BYTE   Fs2
 BYTE   W06
 BYTE   Ds2
 BYTE   W06
 BYTE   Ds3
 BYTE   W06
 BYTE   Ds2
 BYTE   W06
 BYTE   As2
 BYTE   W06
 BYTE   Gs2
 BYTE   W06
 BYTE   Fn2
 BYTE   W06
 BYTE   En2
 BYTE   W06
 BYTE   PEND 
//  #03 //014   ----------------------------------------
 BYTE   PATT
  POIN2 Label_010031A3
//  #03 //015   ----------------------------------------
 BYTE   PATT
  POIN2 Label_010031C2
//  #03 //016   ----------------------------------------
 BYTE   PATT
  POIN2 Label_010031A3
//  #03 //017   ----------------------------------------
 BYTE   PATT
  POIN2 Label_010031C2
//  #03 //018   ----------------------------------------
 BYTE   PATT
  POIN2 Label_010031A3
//  #03 //019   ----------------------------------------
 BYTE   PATT
  POIN2 Label_010031C2
//  #03 //020   ----------------------------------------
 BYTE   N19  Ds2  v127
 BYTE   W96
//  #03 //021   ----------------------------------------
 BYTE   W96
//  #03 //022   ----------------------------------------
Label_01003204:
 BYTE   N09  Ds2  v127
 BYTE   W12
 BYTE   N04
 BYTE   W06
 BYTE   N04
 BYTE   W06
 BYTE   N04
 BYTE   W06
 BYTE   N04
 BYTE   W06
 BYTE   N04
 BYTE   W06
 BYTE   N04
 BYTE   W06
 BYTE   N04
 BYTE   W06
 BYTE   N04
 BYTE   W06
 BYTE   N04
 BYTE   W06
 BYTE   N04
 BYTE   W06
 BYTE   Fs2
 BYTE   W06
 BYTE   Ds2
 BYTE   W06
 BYTE   Gs2
 BYTE   W06
 BYTE   Ds2
 BYTE   W06
 BYTE   PEND 
//  #03 //023   ----------------------------------------
Label_01003225:
 BYTE   N09  Ds2  v127
 BYTE   W12
 BYTE   N04
 BYTE   W06
 BYTE   N04
 BYTE   W06
 BYTE   Fs2
 BYTE   W06
 BYTE   Ds2
 BYTE   W06
 BYTE   Gs2
 BYTE   W06
 BYTE   Ds2
 BYTE   W06
 BYTE   An2
 BYTE   W06
 BYTE   Ds2
 BYTE   W06
 BYTE   Gs2
 BYTE   W06
 BYTE   Ds2
 BYTE   W06
 BYTE   N14  Fs2
 BYTE   W18
 BYTE   N04  Ds2
 BYTE   W06
 BYTE   PEND 
//  #03 //024   ----------------------------------------
 BYTE   PATT
  POIN2 Label_01003204
//  #03 //025   ----------------------------------------
Label_01003249:
 BYTE   N09  Ds2  v127
 BYTE   W12
 BYTE   N04
 BYTE   W06
 BYTE   N04
 BYTE   W06
 BYTE   Fs2
 BYTE   W06
 BYTE   Ds2
 BYTE   W06
 BYTE   Gs2
 BYTE   W06
 BYTE   Ds2
 BYTE   W06
 BYTE   An2
 BYTE   W06
 BYTE   Gs2
 BYTE   W06
 BYTE   Fs2
 BYTE   W06
 BYTE   An2
 BYTE   W06
 BYTE   Gs2
 BYTE   W06
 BYTE   Fs2
 BYTE   W06
 BYTE   Gs2
 BYTE   W06
 BYTE   Fs2
 BYTE   W06
 BYTE   PEND 
//  #03 //026   ----------------------------------------
 BYTE   PATT
  POIN2 Label_01003204
//  #03 //027   ----------------------------------------
 BYTE   PATT
  POIN2 Label_01003225
//  #03 //028   ----------------------------------------
 BYTE   PATT
  POIN2 Label_01003204
//  #03 //029   ----------------------------------------
 BYTE   PATT
  POIN2 Label_01003249
//  #03 //030   ----------------------------------------
 BYTE   PATT
  POIN2 Label_01003204
//  #03 //031   ----------------------------------------
 BYTE   PATT
  POIN2 Label_01003225
//  #03 //032   ----------------------------------------
 BYTE   PATT
  POIN2 Label_01003204
//  #03 //033   ----------------------------------------
 BYTE   PATT
  POIN2 Label_01003249
//  #03 //034   ----------------------------------------
 BYTE   N09  Ds2  v127
 BYTE   W12
 BYTE   N04
 BYTE   W06
 BYTE   N04
 BYTE   W06
 BYTE   N04
 BYTE   W06
 BYTE   N04
 BYTE   W06
 BYTE   N04
 BYTE   W06
 BYTE   N04
 BYTE   W06
 BYTE   N09
 BYTE   W12
 BYTE   N04
 BYTE   W06
 BYTE   N04
 BYTE   W06
 BYTE   N04
 BYTE   W06
 BYTE   N04
 BYTE   W06
 BYTE   N04
 BYTE   W06
 BYTE   N04
 BYTE   W06
//  #03 //035   ----------------------------------------
 BYTE   N09
 BYTE   W12
 BYTE   Fs2
 BYTE   W12
 BYTE   Fn2
 BYTE   W12
 BYTE   En2
 BYTE   W36
 BYTE   Ds2
 BYTE   W12
 BYTE   En2
 BYTE   W12
//  #03 //036   ----------------------------------------
 BYTE   Fn2
 BYTE   W12
 BYTE   Fs2
 BYTE   W36
 BYTE   N09
 BYTE   W12
 BYTE   N04  Gs2
 BYTE   W06
 BYTE   As2
 BYTE   W06
 BYTE   N09  En2
 BYTE   W12
 BYTE   N04  Fs2
 BYTE   W06
 BYTE   Gs2
 BYTE   W06
//  #03 //037   ----------------------------------------
Label_010032CF:
 BYTE   N09  Ds2  v127
 BYTE   W12
 BYTE   N04
 BYTE   W06
 BYTE   N04
 BYTE   W06
 BYTE   N09  En2
 BYTE   W12
 BYTE   Fs2
 BYTE   W12
 BYTE   N19  An2
 BYTE   W24
 BYTE   Gs2
 BYTE   W24
 BYTE   PEND 
//  #03 //038   ----------------------------------------
Label_010032E2:
 BYTE   N28  En2  v127
 BYTE   W36
 BYTE   N09
 BYTE   W12
 BYTE   N19
 BYTE   W24
 BYTE   N09  Fs2
 BYTE   W12
 BYTE   En2
 BYTE   W12
 BYTE   PEND 
//  #03 //039   ----------------------------------------
 BYTE   PATT
  POIN2 Label_010032CF
//  #03 //040   ----------------------------------------
 BYTE   PATT
  POIN2 Label_010032E2
//  #03 //041   ----------------------------------------
Label_010032FA:
 BYTE   N09  Ds2  v127
 BYTE   W12
 BYTE   N09
 BYTE   W12
 BYTE   N04  En2
 BYTE   W06
 BYTE   Fn2
 BYTE   W06
 BYTE   N09  Fs2
 BYTE   W12
 BYTE   Ds2
 BYTE   W12
 BYTE   N09
 BYTE   W12
 BYTE   N04  En2
 BYTE   W06
 BYTE   Fn2
 BYTE   W06
 BYTE   N09  Fs2
 BYTE   W12
 BYTE   PEND 
//  #03 //042   ----------------------------------------
 BYTE   PATT
  POIN2 Label_010032FA
//  #03 //043   ----------------------------------------
 BYTE   PATT
  POIN2 Label_010032CF
//  #03 //044   ----------------------------------------
 BYTE   PATT
  POIN2 Label_010032E2
//  #03 //045   ----------------------------------------
 BYTE   PATT
  POIN2 Label_010032CF
//  #03 //046   ----------------------------------------
 BYTE   PATT
  POIN2 Label_010032E2
//  #03 //047   ----------------------------------------
 BYTE   PATT
  POIN2 Label_010032FA
//  #03 //048   ----------------------------------------
 BYTE   PATT
  POIN2 Label_010032FA
//  #03 //049   ----------------------------------------
 BYTE   N36  Gs2  v127
 BYTE   W48
 BYTE   Fs2
 BYTE   W48
//  #03 //050   ----------------------------------------
 BYTE   En2
 BYTE   W48
 BYTE   Fs2
 BYTE   W48
//  #03 //051   ----------------------------------------
 BYTE   N14  Gs2
 BYTE   W18
 BYTE   Ds3  v124
 BYTE   W18
 BYTE   N09  Gs2  v127
 BYTE   W12
 BYTE   N14  Fs2
 BYTE   W18
 BYTE   Cs3
 BYTE   W18
 BYTE   N09  Fs2
 BYTE   W12
//  #03 //052   ----------------------------------------
 BYTE   N14  En2  v124
 BYTE   W18
 BYTE   Bn2
 BYTE   W18
 BYTE   N09  En2  v127
 BYTE   W12
 BYTE   N14  Fs2
 BYTE   W18
 BYTE   Cs2
 BYTE   W18
 BYTE   N09  Fs2
 BYTE   W12
//  #03 //053   ----------------------------------------
 BYTE   GoTo
  POIN2 Label_010031A3
 BYTE   FINE

//**************** Track 4 (Midi-Chn.3) ****************//

GuiltyGearXAdvanceZatoEddiesThemeFeelaFear_004:
//  #04 //000   ----------------------------------------
 BYTE   KEYSH   GuiltyGearXAdvanceZatoEddiesThemeFeelaFear_key+0
 BYTE   VOICE   30
 BYTE   MODT 0
 BYTE   LFOS 44
 BYTE   VOL   80*GuiltyGearXAdvanceZatoEddiesThemeFeelaFear_mvl/mxv
 BYTE   PAN   c_v+0
 BYTE   BENDR  12
 BYTE   BEND   c_v+0
 BYTE   W01
 BYTE   N04  Ds1  v116
 BYTE   W05
 BYTE   N06  Ds1  v112
 BYTE   W06
 BYTE   N06
 BYTE   W06
 BYTE   Ds1  v116
 BYTE   W06
 BYTE   BEND   c_v-11
 BYTE   N24  Ds3
 BYTE   W01
 BYTE   BEND   c_v-10
 BYTE   W01
 BYTE   BEND   c_v-9
 BYTE   W01
 BYTE   BEND   c_v-7
 BYTE   W01
 BYTE   BEND   c_v-5
 BYTE   W01
 BYTE   BEND   c_v-2
 BYTE   W01
 BYTE   BEND   c_v+0
 BYTE   W18
 BYTE   N06  Ds1
 BYTE   W06
 BYTE   Ds1  v112
 BYTE   W06
 BYTE   Ds1  v116
 BYTE   W06
 BYTE   N06
 BYTE   W06
 BYTE   BEND   c_v-11
 BYTE   N24  Ds3
 BYTE   W01
 BYTE   BEND   c_v-10
 BYTE   W01
 BYTE   BEND   c_v-9
 BYTE   W01
 BYTE   BEND   c_v-7
 BYTE   W01
 BYTE   BEND   c_v-5
 BYTE   W01
 BYTE   BEND   c_v-2
 BYTE   W01
 BYTE   BEND   c_v+0
 BYTE   W18
//  #04 //001   ----------------------------------------
 BYTE   N06  Ds1  v112
 BYTE   W06
 BYTE   N06
 BYTE   W06
 BYTE   N06
 BYTE   W06
 BYTE   N06
 BYTE   W06
 BYTE   BEND   c_v-11
 BYTE   N24  Ds3  v116
 BYTE   W01
 BYTE   BEND   c_v-10
 BYTE   W01
 BYTE   BEND   c_v-9
 BYTE   W01
 BYTE   BEND   c_v-7
 BYTE   W01
 BYTE   BEND   c_v-5
 BYTE   W01
 BYTE   BEND   c_v-2
 BYTE   W01
 BYTE   BEND   c_v+0
 BYTE   W18
 BYTE   N06  Ds1  v112
 BYTE   W06
 BYTE   N06
 BYTE   W06
 BYTE   Ds1  v116
 BYTE   W06
 BYTE   Ds1  v112
 BYTE   W06
 BYTE   BEND   c_v-11
 BYTE   N24  Ds3  v116
 BYTE   W01
 BYTE   BEND   c_v-10
 BYTE   W01
 BYTE   BEND   c_v-9
 BYTE   W01
 BYTE   BEND   c_v-7
 BYTE   W01
 BYTE   BEND   c_v-5
 BYTE   W01
 BYTE   BEND   c_v-2
 BYTE   W01
 BYTE   BEND   c_v+0
 BYTE   W18
//  #04 //002   ----------------------------------------
 BYTE   N06  En1  v112
 BYTE   W06
 BYTE   En1  v116
 BYTE   W06
 BYTE   En1  v112
 BYTE   W06
 BYTE   N06
 BYTE   W06
 BYTE   BEND   c_v-11
 BYTE   N24  Ds3  v116
 BYTE   W01
 BYTE   BEND   c_v-10
 BYTE   W01
 BYTE   BEND   c_v-9
 BYTE   W01
 BYTE   BEND   c_v-7
 BYTE   W01
 BYTE   BEND   c_v-5
 BYTE   W01
 BYTE   BEND   c_v-2
 BYTE   W01
 BYTE   BEND   c_v+0
 BYTE   W18
 BYTE   N06  En1  v112
 BYTE   W06
 BYTE   N06
 BYTE   W06
 BYTE   N06
 BYTE   W06
 BYTE   N06
 BYTE   W06
 BYTE   BEND   c_v-11
 BYTE   N24  Ds3  v116
 BYTE   W01
 BYTE   BEND   c_v-10
 BYTE   W01
 BYTE   BEND   c_v-9
 BYTE   W01
 BYTE   BEND   c_v-7
 BYTE   W01
 BYTE   BEND   c_v-5
 BYTE   W01
 BYTE   BEND   c_v-2
 BYTE   W01
 BYTE   BEND   c_v+0
 BYTE   W18
//  #04 //003   ----------------------------------------
 BYTE   N06  Fs1  v112
 BYTE   W06
 BYTE   N06
 BYTE   W06
 BYTE   Fs1  v116
 BYTE   W06
 BYTE   Fs1  v112
 BYTE   W06
 BYTE   BEND   c_v-11
 BYTE   N24  Ds3  v116
 BYTE   W01
 BYTE   BEND   c_v-10
 BYTE   W01
 BYTE   BEND   c_v-9
 BYTE   W01
 BYTE   BEND   c_v-7
 BYTE   W01
 BYTE   BEND   c_v-5
 BYTE   W01
 BYTE   BEND   c_v-2
 BYTE   W01
 BYTE   BEND   c_v+0
 BYTE   W18
 BYTE   N06  En1  v112
 BYTE   W06
 BYTE   En1  v116
 BYTE   W06
 BYTE   N06
 BYTE   W06
 BYTE   En1  v112
 BYTE   W06
 BYTE   BEND   c_v-11
 BYTE   N24  Ds3  v116
 BYTE   W01
 BYTE   BEND   c_v-10
 BYTE   W01
 BYTE   BEND   c_v-9
 BYTE   W01
 BYTE   BEND   c_v-7
 BYTE   W01
 BYTE   BEND   c_v-5
 BYTE   W01
 BYTE   BEND   c_v-2
 BYTE   W01
 BYTE   BEND   c_v+0
 BYTE   W18
//  #04 //004   ----------------------------------------
 BYTE   N06  Ds1
 BYTE   W06
 BYTE   Ds1  v112
 BYTE   W06
 BYTE   N06
 BYTE   W06
 BYTE   N06
 BYTE   W06
 BYTE   BEND   c_v-11
 BYTE   N24  Ds3  v116
 BYTE   W01
 BYTE   BEND   c_v-10
 BYTE   W01
 BYTE   BEND   c_v-9
 BYTE   W01
 BYTE   BEND   c_v-7
 BYTE   W01
 BYTE   BEND   c_v-5
 BYTE   W01
 BYTE   BEND   c_v-2
 BYTE   W01
 BYTE   BEND   c_v+0
 BYTE   W18
 BYTE   N06  Ds1  v112
 BYTE   W06
 BYTE   N06
 BYTE   W06
 BYTE   N06
 BYTE   W06
 BYTE   N06
 BYTE   W06
 BYTE   BEND   c_v-11
 BYTE   N24  Ds3  v116
 BYTE   W01
 BYTE   BEND   c_v-10
 BYTE   W01
 BYTE   BEND   c_v-9
 BYTE   W01
 BYTE   BEND   c_v-7
 BYTE   W01
 BYTE   BEND   c_v-5
 BYTE   W01
 BYTE   BEND   c_v-2
 BYTE   W01
 BYTE   BEND   c_v+0
 BYTE   W18
//  #04 //005   ----------------------------------------
 BYTE   N06  Ds1  v112
 BYTE   W06
 BYTE   N06
 BYTE   W06
 BYTE   Ds1  v116
 BYTE   W06
 BYTE   N06
 BYTE   W06
 BYTE   BEND   c_v-11
 BYTE   N24  Ds3
 BYTE   W01
 BYTE   BEND   c_v-10
 BYTE   W01
 BYTE   BEND   c_v-9
 BYTE   W01
 BYTE   BEND   c_v-7
 BYTE   W01
 BYTE   BEND   c_v-5
 BYTE   W01
 BYTE   BEND   c_v-2
 BYTE   W01
 BYTE   BEND   c_v+0
 BYTE   W18
 BYTE   N06  Ds1
 BYTE   W06
 BYTE   Ds1  v112
 BYTE   W06
 BYTE   N06
 BYTE   W06
 BYTE   N06
 BYTE   W06
 BYTE   BEND   c_v-11
 BYTE   N24  Ds3  v116
 BYTE   W01
 BYTE   BEND   c_v-10
 BYTE   W01
 BYTE   BEND   c_v-9
 BYTE   W01
 BYTE   BEND   c_v-7
 BYTE   W01
 BYTE   BEND   c_v-5
 BYTE   W01
 BYTE   BEND   c_v-2
 BYTE   W01
 BYTE   BEND   c_v+0
 BYTE   W18
//  #04 //006   ----------------------------------------
 BYTE   N06  En1
 BYTE   W06
 BYTE   En1  v112
 BYTE   W06
 BYTE   En1  v116
 BYTE   W06
 BYTE   En1  v112
 BYTE   W06
 BYTE   BEND   c_v-11
 BYTE   N24  Ds3  v116
 BYTE   W01
 BYTE   BEND   c_v-10
 BYTE   W01
 BYTE   BEND   c_v-9
 BYTE   W01
 BYTE   BEND   c_v-7
 BYTE   W01
 BYTE   BEND   c_v-5
 BYTE   W01
 BYTE   BEND   c_v-2
 BYTE   W01
 BYTE   BEND   c_v+0
 BYTE   W18
 BYTE   N06  En1  v112
 BYTE   W06
 BYTE   N06
 BYTE   W06
 BYTE   En1  v116
 BYTE   W06
 BYTE   N06
 BYTE   W06
 BYTE   BEND   c_v-11
 BYTE   N24  Ds3
 BYTE   W01
 BYTE   BEND   c_v-10
 BYTE   W01
 BYTE   BEND   c_v-9
 BYTE   W01
 BYTE   BEND   c_v-7
 BYTE   W01
 BYTE   BEND   c_v-5
 BYTE   W01
 BYTE   BEND   c_v-2
 BYTE   W01
 BYTE   BEND   c_v+0
 BYTE   W18
//  #04 //007   ----------------------------------------
 BYTE   N06  Fs1
 BYTE   W06
 BYTE   Fs1  v112
 BYTE   W06
 BYTE   Fs1  v116
 BYTE   W06
 BYTE   N06
 BYTE   W06
 BYTE   BEND   c_v-11
 BYTE   N24  Ds3
 BYTE   W01
 BYTE   BEND   c_v-10
 BYTE   W01
 BYTE   BEND   c_v-9
 BYTE   W01
 BYTE   BEND   c_v-7
 BYTE   W01
 BYTE   BEND   c_v-5
 BYTE   W01
 BYTE   BEND   c_v-2
 BYTE   W01
 BYTE   BEND   c_v+0
 BYTE   W18
 BYTE   N06  En1
 BYTE   W06
 BYTE   N06
 BYTE   W06
 BYTE   N06
 BYTE   W06
 BYTE   N06
 BYTE   W06
 BYTE   BEND   c_v-11
 BYTE   N24  Ds3
 BYTE   W01
 BYTE   BEND   c_v-10
 BYTE   W01
 BYTE   BEND   c_v-9
 BYTE   W01
 BYTE   BEND   c_v-7
 BYTE   W01
 BYTE   BEND   c_v-5
 BYTE   W01
 BYTE   BEND   c_v-2
 BYTE   W01
 BYTE   BEND   c_v+0
 BYTE   W18
//  #04 //008   ----------------------------------------
Label_010035A7:
 BYTE   N06  Ds1  v116
 BYTE   W12
 BYTE   N12  Ds1  v124
 BYTE   W12
 BYTE   N06  Ds1  v116
 BYTE   W06
 BYTE   N06
 BYTE   W06
 BYTE   N06
 BYTE   W06
 BYTE   N06
 BYTE   W06
 BYTE   Fs1
 BYTE   W06
 BYTE   Ds1
 BYTE   W06
 BYTE   N06
 BYTE   W06
 BYTE   N06
 BYTE   W06
 BYTE   Gs1  v127
 BYTE   W06
 BYTE   Ds1  v124
 BYTE   W06
 BYTE   En1
 BYTE   W06
 BYTE   Fs1
 BYTE   W06
 BYTE   PEND 
//  #04 //009   ----------------------------------------
Label_010035CC:
 BYTE   N06  Ds1  v124
 BYTE   W12
 BYTE   N12
 BYTE   W12
 BYTE   N06  Ds1  v116
 BYTE   W06
 BYTE   N06
 BYTE   W06
 BYTE   N06
 BYTE   W06
 BYTE   N06
 BYTE   W06
 BYTE   Fs1  v124
 BYTE   W06
 BYTE   Ds1  v116
 BYTE   W06
 BYTE   Ds2  v127
 BYTE   W06
 BYTE   Ds1  v116
 BYTE   W06
 BYTE   An1  v124
 BYTE   W06
 BYTE   Gs1
 BYTE   W06
 BYTE   Fs1
 BYTE   W06
 BYTE   En1  v127
 BYTE   W06
 BYTE   PEND 
//  #04 //010   ----------------------------------------
 BYTE   PATT
  POIN2 Label_010035A7
//  #04 //011   ----------------------------------------
 BYTE   PATT
  POIN2 Label_010035CC
//  #04 //012   ----------------------------------------
Label_010035FD:
 BYTE   N05  Ds1  v124
 BYTE   W12
 BYTE   N10  Ds1  v127
 BYTE   W12
 BYTE   N05  Ds1  v116
 BYTE   W06
 BYTE   N05
 BYTE   W06
 BYTE   N05
 BYTE   W06
 BYTE   N05
 BYTE   W06
 BYTE   Fs1  v124
 BYTE   W06
 BYTE   Ds1  v116
 BYTE   W06
 BYTE   N05
 BYTE   W06
 BYTE   N05
 BYTE   W06
 BYTE   Gs1  v127
 BYTE   W06
 BYTE   Ds1  v116
 BYTE   W06
 BYTE   En1  v124
 BYTE   W06
 BYTE   Fs1
 BYTE   W06
 BYTE   PEND 
//  #04 //013   ----------------------------------------
Label_01003625:
 BYTE   N05  Ds1  v124
 BYTE   W12
 BYTE   N10
 BYTE   W12
 BYTE   N05  Ds1  v116
 BYTE   W06
 BYTE   N05
 BYTE   W06
 BYTE   N05
 BYTE   W06
 BYTE   N05
 BYTE   W06
 BYTE   Fs1  v124
 BYTE   W06
 BYTE   Ds1  v116
 BYTE   W06
 BYTE   Ds2  v124
 BYTE   W06
 BYTE   Ds1  v116
 BYTE   W06
 BYTE   As1  v124
 BYTE   W06
 BYTE   Gs1  v127
 BYTE   W06
 BYTE   Fs1  v116
 BYTE   W06
 BYTE   En1  v124
 BYTE   W06
 BYTE   PEND 
//  #04 //014   ----------------------------------------
 BYTE   PATT
  POIN2 Label_010035FD
//  #04 //015   ----------------------------------------
 BYTE   PATT
  POIN2 Label_01003625
//  #04 //016   ----------------------------------------
 BYTE   PATT
  POIN2 Label_010035FD
//  #04 //017   ----------------------------------------
 BYTE   PATT
  POIN2 Label_01003625
//  #04 //018   ----------------------------------------
 BYTE   PATT
  POIN2 Label_010035FD
//  #04 //019   ----------------------------------------
 BYTE   PATT
  POIN2 Label_01003625
//  #04 //020   ----------------------------------------
Label_0100366C:
 BYTE   N10  Ds1  v124
 BYTE   W12
 BYTE   N05  Ds1  v116
 BYTE   W06
 BYTE   N05
 BYTE   W06
 BYTE   Gs1
 BYTE   W06
 BYTE   Ds1
 BYTE   W06
 BYTE   Fs1  v127
 BYTE   W06
 BYTE   Ds1  v116
 BYTE   W06
 BYTE   As1  v124
 BYTE   W06
 BYTE   Ds1  v116
 BYTE   W06
 BYTE   N05
 BYTE   W06
 BYTE   N05
 BYTE   W06
 BYTE   Fs1  v127
 BYTE   W06
 BYTE   Ds1  v116
 BYTE   W06
 BYTE   Cs2
 BYTE   W06
 BYTE   Ds1
 BYTE   W06
 BYTE   PEND 
//  #04 //021   ----------------------------------------
Label_01003695:
 BYTE   N05  Cn2  v124
 BYTE   W06
 BYTE   Ds1  v116
 BYTE   W06
 BYTE   N05
 BYTE   W06
 BYTE   N05
 BYTE   W06
 BYTE   Fs1
 BYTE   W06
 BYTE   Ds1
 BYTE   W06
 BYTE   Gs1  v127
 BYTE   W06
 BYTE   Ds1  v116
 BYTE   W06
 BYTE   An1  v124
 BYTE   W06
 BYTE   Gs1
 BYTE   W06
 BYTE   Fs1
 BYTE   W06
 BYTE   An1  v127
 BYTE   W06
 BYTE   Gs1  v124
 BYTE   W06
 BYTE   Fs1
 BYTE   W06
 BYTE   Gs1
 BYTE   W06
 BYTE   Fs1  v116
 BYTE   W06
 BYTE   PEND 
//  #04 //022   ----------------------------------------
 BYTE   N10  Ds1  v124
 BYTE   W12
 BYTE   N05  Ds1  v116
 BYTE   W06
 BYTE   N05
 BYTE   W06
 BYTE   Gs1  v124
 BYTE   W06
 BYTE   Ds1  v116
 BYTE   W06
 BYTE   Fs1  v127
 BYTE   W06
 BYTE   Ds1  v116
 BYTE   W06
 BYTE   As1  v124
 BYTE   W06
 BYTE   Ds1  v116
 BYTE   W06
 BYTE   N05
 BYTE   W06
 BYTE   N05
 BYTE   W06
 BYTE   Fs1  v127
 BYTE   W06
 BYTE   Ds1  v116
 BYTE   W06
 BYTE   Cs2  v124
 BYTE   W06
 BYTE   Ds1  v116
 BYTE   W06
//  #04 //023   ----------------------------------------
 BYTE   Cn2
 BYTE   W06
 BYTE   Ds1
 BYTE   W06
 BYTE   N05
 BYTE   W06
 BYTE   N05
 BYTE   W06
 BYTE   Fs1  v127
 BYTE   W06
 BYTE   Ds1  v116
 BYTE   W06
 BYTE   Gs1  v127
 BYTE   W06
 BYTE   Ds1  v116
 BYTE   W06
 BYTE   An1  v124
 BYTE   W06
 BYTE   Ds1  v116
 BYTE   W06
 BYTE   Gs1  v127
 BYTE   W06
 BYTE   Ds1  v116
 BYTE   W06
 BYTE   N16  Fs1  v124
 BYTE   W18
 BYTE   N05  Ds1  v116
 BYTE   W06
//  #04 //024   ----------------------------------------
 BYTE   PATT
  POIN2 Label_0100366C
//  #04 //025   ----------------------------------------
 BYTE   PATT
  POIN2 Label_01003695
//  #04 //026   ----------------------------------------
Label_0100371D:
 BYTE   N10  Ds2  v124
 BYTE   W12
 BYTE   N05  Ds2  v116
 BYTE   W06
 BYTE   N05
 BYTE   W06
 BYTE   Gs2  v127
 BYTE   W06
 BYTE   Ds2  v116
 BYTE   W06
 BYTE   Fs2  v124
 BYTE   W06
 BYTE   Ds2  v116
 BYTE   W06
 BYTE   As2  v124
 BYTE   W06
 BYTE   Ds2  v116
 BYTE   W06
 BYTE   N05
 BYTE   W06
 BYTE   N05
 BYTE   W06
 BYTE   Fs2  v124
 BYTE   W06
 BYTE   Ds2  v116
 BYTE   W06
 BYTE   Cs3
 BYTE   W06
 BYTE   Ds2
 BYTE   W06
 BYTE   PEND 
//  #04 //027   ----------------------------------------
Label_01003748:
 BYTE   N05  Cn3  v116
 BYTE   W06
 BYTE   Ds2
 BYTE   W06
 BYTE   N05
 BYTE   W06
 BYTE   N05
 BYTE   W06
 BYTE   Fs2  v127
 BYTE   W06
 BYTE   Ds2  v116
 BYTE   W06
 BYTE   Gs2  v124
 BYTE   W06
 BYTE   Ds2  v116
 BYTE   W06
 BYTE   An2
 BYTE   W06
 BYTE   Ds2
 BYTE   W06
 BYTE   Gs2  v127
 BYTE   W06
 BYTE   Ds2  v116
 BYTE   W06
 BYTE   N16  Fs2  v124
 BYTE   W18
 BYTE   N05  Ds2  v116
 BYTE   W06
 BYTE   PEND 
//  #04 //028   ----------------------------------------
Label_01003771:
 BYTE   N10  Ds2  v124
 BYTE   W12
 BYTE   N05  Ds2  v116
 BYTE   W06
 BYTE   N05
 BYTE   W06
 BYTE   Gs2  v127
 BYTE   W06
 BYTE   Ds2  v116
 BYTE   W06
 BYTE   Fs2
 BYTE   W06
 BYTE   Ds2
 BYTE   W06
 BYTE   As2  v127
 BYTE   W06
 BYTE   Ds2  v116
 BYTE   W06
 BYTE   N05
 BYTE   W06
 BYTE   N05
 BYTE   W06
 BYTE   Fs2  v124
 BYTE   W06
 BYTE   Ds2  v116
 BYTE   W06
 BYTE   Cs3  v127
 BYTE   W06
 BYTE   Ds2  v116
 BYTE   W06
 BYTE   PEND 
//  #04 //029   ----------------------------------------
Label_0100379C:
 BYTE   N05  Cn3  v127
 BYTE   W06
 BYTE   Ds2  v116
 BYTE   W06
 BYTE   N05
 BYTE   W06
 BYTE   N05
 BYTE   W06
 BYTE   Fs2  v124
 BYTE   W06
 BYTE   Ds2  v116
 BYTE   W06
 BYTE   Gs2  v127
 BYTE   W06
 BYTE   Ds2  v116
 BYTE   W06
 BYTE   An2  v127
 BYTE   W06
 BYTE   Gs2  v124
 BYTE   W06
 BYTE   Fs2  v127
 BYTE   W06
 BYTE   An2  v124
 BYTE   W06
 BYTE   Gs2
 BYTE   W06
 BYTE   Fs2
 BYTE   W06
 BYTE   Gs2
 BYTE   W06
 BYTE   Fs2  v116
 BYTE   W06
 BYTE   PEND 
//  #04 //030   ----------------------------------------
 BYTE   PATT
  POIN2 Label_0100371D
//  #04 //031   ----------------------------------------
 BYTE   PATT
  POIN2 Label_01003748
//  #04 //032   ----------------------------------------
 BYTE   PATT
  POIN2 Label_01003771
//  #04 //033   ----------------------------------------
 BYTE   PATT
  POIN2 Label_0100379C
//  #04 //034   ----------------------------------------
 BYTE   N10  Ds1  v127
 BYTE   W12
 BYTE   N05  Ds1  v124
 BYTE   W06
 BYTE   N05
 BYTE   W06
 BYTE   Ds3  v127
 BYTE   W06
 BYTE   Cs3  v124
 BYTE   W06
 BYTE   An2  v127
 BYTE   W06
 BYTE   Gs2  v124
 BYTE   W06
 BYTE   N10  Ds1
 BYTE   W12
 BYTE   N05
 BYTE   W06
 BYTE   N05
 BYTE   W06
 BYTE   Gn1  v127
 BYTE   W06
 BYTE   Gs1  v116
 BYTE   W06
 BYTE   An1  v124
 BYTE   W06
 BYTE   As1
 BYTE   W06
//  #04 //035   ----------------------------------------
 BYTE   N10  Ds1  v127
 BYTE   W12
 BYTE   Fs1
 BYTE   W12
 BYTE   Fn1  v124
 BYTE   W12
 BYTE   En1
 BYTE   W12
 BYTE   N05  Ds3
 BYTE   W06
 BYTE   Cs3
 BYTE   W06
 BYTE   An2  v127
 BYTE   W06
 BYTE   Gs2
 BYTE   W06
 BYTE   N10  Ds1
 BYTE   W12
 BYTE   En1
 BYTE   W12
//  #04 //036   ----------------------------------------
 BYTE   Fn1  v124
 BYTE   W12
 BYTE   Fs1  v127
 BYTE   W12
 BYTE   N05  Ds3
 BYTE   W06
 BYTE   Cs3  v124
 BYTE   W06
 BYTE   An2  v116
 BYTE   W06
 BYTE   As2  v127
 BYTE   W06
 BYTE   N21  Fs1
 BYTE   W24
 BYTE   En1  v124
 BYTE   W24
//  #04 //037   ----------------------------------------
Label_01003837:
 BYTE   N32  Dn3  v072
 BYTE   W36
 BYTE   N05  Cn3  v064
 BYTE   W06
 BYTE   Dn3  v072
 BYTE   W06
 BYTE   N21  Ds3
 BYTE   W24
 BYTE   Fn3
 BYTE   W24
 BYTE   PEND 
//  #04 //038   ----------------------------------------
Label_01003848:
 BYTE   N16  Fs3  v064
 BYTE   W18
 BYTE   Fn3  v072
 BYTE   W18
 BYTE   N10  Ds3
 BYTE   W12
 BYTE   Gs3
 BYTE   W12
 BYTE   Fs3  v064
 BYTE   W12
 BYTE   N21  Fn3  v072
 BYTE   W24
 BYTE   PEND 
//  #04 //039   ----------------------------------------
Label_0100385C:
 BYTE   N42  Dn3  v072
 BYTE   W48
 BYTE   N32  Cs3
 BYTE   W36
 BYTE   N05  Dn3
 BYTE   W06
 BYTE   Cs3
 BYTE   W06
 BYTE   PEND 
//  #04 //040   ----------------------------------------
Label_01003869:
 BYTE   N32  Bn2  v072
 BYTE   W36
 BYTE   N05  Cs3  v064
 BYTE   W06
 BYTE   Ds3
 BYTE   W06
 BYTE   N21  As2  v072
 BYTE   W24
 BYTE   Cs3
 BYTE   W24
 BYTE   PEND 
//  #04 //041   ----------------------------------------
 BYTE   N10  Ds3  v127
 BYTE   W24
 BYTE   Ds3  v124
 BYTE   W24
 BYTE   Ds3  v127
 BYTE   W24
 BYTE   En3  v124
 BYTE   W24
//  #04 //042   ----------------------------------------
 BYTE   Ds3  v116
 BYTE   W24
 BYTE   Ds3  v127
 BYTE   W24
 BYTE   Ds3  v124
 BYTE   W24
 BYTE   En3
 BYTE   W24
//  #04 //043   ----------------------------------------
 BYTE   PATT
  POIN2 Label_01003837
//  #04 //044   ----------------------------------------
 BYTE   PATT
  POIN2 Label_01003848
//  #04 //045   ----------------------------------------
 BYTE   PATT
  POIN2 Label_0100385C
//  #04 //046   ----------------------------------------
 BYTE   PATT
  POIN2 Label_01003869
//  #04 //047   ----------------------------------------
 BYTE   N02  An3  v076
 BYTE   N02  En4
 BYTE   W03
 BYTE   As3
 BYTE   N02  Fn4
 BYTE   W03
 BYTE   Ds3
 BYTE   N02  As3
 BYTE   W03
 BYTE   Cs3
 BYTE   N02  Gs3
 BYTE   W03
 BYTE   An3
 BYTE   N02  En4
 BYTE   W03
 BYTE   As3
 BYTE   N02  Fn4
 BYTE   W03
 BYTE   Ds3
 BYTE   N02  As3
 BYTE   W03
 BYTE   Cs3
 BYTE   N02  Gs3
 BYTE   W03
 BYTE   As3
 BYTE   N02  Fn4
 BYTE   W03
 BYTE   Bn3
 BYTE   N02  Fs4
 BYTE   W03
 BYTE   Ds3
 BYTE   N02  As3
 BYTE   W03
 BYTE   Cs3
 BYTE   N02  Gs3
 BYTE   W03
 BYTE   As3
 BYTE   N02  Fn4
 BYTE   W03
 BYTE   Bn3
 BYTE   N02  Fs4
 BYTE   W03
 BYTE   Ds3
 BYTE   N02  As3
 BYTE   W03
 BYTE   Cs3
 BYTE   N02  Gs3
 BYTE   W03
 BYTE   An3
 BYTE   N02  En4
 BYTE   W03
 BYTE   As3
 BYTE   N02  Fn4
 BYTE   W03
 BYTE   Ds3
 BYTE   N02  As3
 BYTE   W03
 BYTE   Cs3
 BYTE   N02  Gs3
 BYTE   W03
 BYTE   An3
 BYTE   N02  En4
 BYTE   W03
 BYTE   As3
 BYTE   N02  Fn4
 BYTE   W03
 BYTE   Ds3
 BYTE   N02  As3
 BYTE   W03
 BYTE   Cs3
 BYTE   N02  Gs3
 BYTE   W03
 BYTE   N02
 BYTE   N02  Ds4
 BYTE   W03
 BYTE   An3
 BYTE   N02  En4
 BYTE   W03
 BYTE   Ds3
 BYTE   N02  As3
 BYTE   W03
 BYTE   Cs3
 BYTE   N02  Gs3
 BYTE   W03
 BYTE   N02
 BYTE   N02  Ds4
 BYTE   W03
 BYTE   An3
 BYTE   N02  En4
 BYTE   W03
 BYTE   Ds3
 BYTE   N02  As3
 BYTE   W03
 BYTE   Cs3
 BYTE   N02  Gs3
 BYTE   W03
//  #04 //048   ----------------------------------------
 BYTE   An3
 BYTE   N02  En4
 BYTE   W03
 BYTE   As3
 BYTE   N02  Fn4
 BYTE   W03
 BYTE   Ds3
 BYTE   N02  As3
 BYTE   W03
 BYTE   Cs3
 BYTE   N02  Gs3
 BYTE   W03
 BYTE   An3
 BYTE   N02  En4
 BYTE   W03
 BYTE   As3
 BYTE   N02  Fn4
 BYTE   W03
 BYTE   Ds3
 BYTE   N02  As3
 BYTE   W03
 BYTE   Cs3
 BYTE   N02  Gs3
 BYTE   W03
 BYTE   As3
 BYTE   N02  Fn4
 BYTE   W03
 BYTE   Bn3
 BYTE   N02  Fs4
 BYTE   W03
 BYTE   Ds3
 BYTE   N02  As3
 BYTE   W03
 BYTE   Cs3
 BYTE   N02  Gs3
 BYTE   W03
 BYTE   As3
 BYTE   N02  Fn4
 BYTE   W03
 BYTE   Bn3
 BYTE   N02  Fs4
 BYTE   W03
 BYTE   Ds3
 BYTE   N02  As3
 BYTE   W03
 BYTE   Cs3
 BYTE   N02  Gs3
 BYTE   W03
 BYTE   Bn3
 BYTE   N02  Fs4
 BYTE   W03
 BYTE   Cn4
 BYTE   N02  Gn4
 BYTE   W03
 BYTE   Ds3
 BYTE   N02  As3
 BYTE   W03
 BYTE   Cs3
 BYTE   N02  Gs3
 BYTE   W03
 BYTE   Bn3
 BYTE   N02  Fs4
 BYTE   W03
 BYTE   Cn4
 BYTE   N02  Gn4
 BYTE   W03
 BYTE   Ds3
 BYTE   N02  As3
 BYTE   W03
 BYTE   Cs3
 BYTE   N02  Gs3
 BYTE   W03
 BYTE   Cn4
 BYTE   N02  Gn4
 BYTE   W03
 BYTE   Cs4
 BYTE   N02  Gs4
 BYTE   W03
 BYTE   Ds3
 BYTE   N02  As3
 BYTE   W03
 BYTE   Cs3
 BYTE   N02  Gs3
 BYTE   W03
 BYTE   Cn4
 BYTE   N02  Gn4
 BYTE   W03
 BYTE   Cs4
 BYTE   N02  Gs4
 BYTE   W03
 BYTE   Ds3
 BYTE   N02  As3
 BYTE   W03
 BYTE   Cs3
 BYTE   N02  Gs3
 BYTE   W03
//  #04 //049   ----------------------------------------
 BYTE   N05  Gs1  v056
 BYTE   W06
 BYTE   N05
 BYTE   W06
 BYTE   Gs1  v052
 BYTE   W06
 BYTE   N05
 BYTE   W06
 BYTE   N21  Ds3  v056
 BYTE   W24
 BYTE   N05  Fs1
 BYTE   W06
 BYTE   Fs1  v052
 BYTE   W06
 BYTE   N05
 BYTE   W06
 BYTE   N05
 BYTE   W06
 BYTE   N21  Ds3
 BYTE   W24
//  #04 //050   ----------------------------------------
 BYTE   N05  En1  v056
 BYTE   W06
 BYTE   N05
 BYTE   W06
 BYTE   N05
 BYTE   W06
 BYTE   N05
 BYTE   W06
 BYTE   N21  Ds3
 BYTE   W24
 BYTE   N05  Fs1  v052
 BYTE   W06
 BYTE   N05
 BYTE   W06
 BYTE   Fs1  v056
 BYTE   W06
 BYTE   N05
 BYTE   W06
 BYTE   N21  Ds3
 BYTE   W24
//  #04 //051   ----------------------------------------
 BYTE   N05  Gs1
 BYTE   W06
 BYTE   Gs1  v052
 BYTE   W06
 BYTE   Gs1  v056
 BYTE   W06
 BYTE   N05
 BYTE   W06
 BYTE   N21  Ds3
 BYTE   W24
 BYTE   N05  Fs1  v052
 BYTE   W06
 BYTE   Fs1  v056
 BYTE   W06
 BYTE   Fs1  v052
 BYTE   W06
 BYTE   Fs1  v056
 BYTE   W06
 BYTE   N21  Ds3
 BYTE   W24
//  #04 //052   ----------------------------------------
 BYTE   N05  En1
 BYTE   W06
 BYTE   N05
 BYTE   W06
 BYTE   N05
 BYTE   W06
 BYTE   N05
 BYTE   W06
 BYTE   N21  Ds3
 BYTE   W24
 BYTE   N05  Fs1
 BYTE   W06
 BYTE   Fs1  v052
 BYTE   W06
 BYTE   Fs1  v056
 BYTE   W06
 BYTE   Fs1  v052
 BYTE   W06
 BYTE   N21  Ds3
 BYTE   W24
//  #04 //053   ----------------------------------------
 BYTE   GoTo
  POIN2 Label_010035FD
 BYTE   FINE

//**************** Track 5 (Midi-Chn.4) ****************//

GuiltyGearXAdvanceZatoEddiesThemeFeelaFear_005:
//  #05 //000   ----------------------------------------
 BYTE   KEYSH   GuiltyGearXAdvanceZatoEddiesThemeFeelaFear_key+0
 BYTE   VOICE   117
 BYTE   MODT 0
 BYTE   LFOS 44
 BYTE   VOL   36*GuiltyGearXAdvanceZatoEddiesThemeFeelaFear_mvl/mxv
 BYTE   PAN   c_v+0
 BYTE   BEND   c_v+0
 BYTE   W01
 BYTE   N06  Cn3  v127
 BYTE   W92
 BYTE   W03
//  #05 //001   ----------------------------------------
 BYTE   W96
//  #05 //002   ----------------------------------------
 BYTE   N06
 BYTE   W96
//  #05 //003   ----------------------------------------
Label_01003A37:
 BYTE   N06  Cn3  v127
 BYTE   W48
 BYTE   N06
 BYTE   W48
 BYTE   PEND 
//  #05 //004   ----------------------------------------
 BYTE   PATT
  POIN2 Label_01003A37
//  #05 //005   ----------------------------------------
 BYTE   PATT
  POIN2 Label_01003A37
//  #05 //006   ----------------------------------------
 BYTE   PATT
  POIN2 Label_01003A37
//  #05 //007   ----------------------------------------
 BYTE   N06  Cn3  v127
 BYTE   W24
 BYTE   N06
 BYTE   W64
 BYTE   N06
 BYTE   W08
//  #05 //008   ----------------------------------------
Label_01003A55:
 BYTE   N06  Cn3  v127
 BYTE   W24
 BYTE   N06
 BYTE   W24
 BYTE   N06
 BYTE   W24
 BYTE   N06
 BYTE   W24
 BYTE   PEND 
//  #05 //009   ----------------------------------------
 BYTE   PATT
  POIN2 Label_01003A55
//  #05 //010   ----------------------------------------
 BYTE   PATT
  POIN2 Label_01003A55
//  #05 //011   ----------------------------------------
 BYTE   N06  Cn3  v127
 BYTE   W24
 BYTE   N06
 BYTE   W36
 BYTE   N06
 BYTE   W36
//  #05 //012   ----------------------------------------
Label_01003A72:
 BYTE   N06  Cn3  v127
 BYTE   W18
 BYTE   N06
 BYTE   W18
 BYTE   N06
 BYTE   W12
 BYTE   N06
 BYTE   W18
 BYTE   N06
 BYTE   W18
 BYTE   N06
 BYTE   W12
 BYTE   PEND 
//  #05 //013   ----------------------------------------
Label_01003A81:
 BYTE   N06  Cn3  v127
 BYTE   W18
 BYTE   N06
 BYTE   W18
 BYTE   N06
 BYTE   W12
 BYTE   N06
 BYTE   W12
 BYTE   N06
 BYTE   W06
 BYTE   N06
 BYTE   W30
 BYTE   PEND 
//  #05 //014   ----------------------------------------
 BYTE   PATT
  POIN2 Label_01003A72
//  #05 //015   ----------------------------------------
 BYTE   PATT
  POIN2 Label_01003A81
//  #05 //016   ----------------------------------------
 BYTE   PATT
  POIN2 Label_01003A72
//  #05 //017   ----------------------------------------
 BYTE   PATT
  POIN2 Label_01003A81
//  #05 //018   ----------------------------------------
 BYTE   PATT
  POIN2 Label_01003A72
//  #05 //019   ----------------------------------------
 BYTE   PATT
  POIN2 Label_01003A81
//  #05 //020   ----------------------------------------
 BYTE   N06  Cn3  v127
 BYTE   W96
//  #05 //021   ----------------------------------------
Label_01003AB2:
 BYTE   W60
 BYTE   N06  Cn3  v127
 BYTE   W18
 BYTE   N06
 BYTE   W18
 BYTE   PEND 
//  #05 //022   ----------------------------------------
Label_01003ABA:
 BYTE   N06  Cn3  v127
 BYTE   W24
 BYTE   N06
 BYTE   W24
 BYTE   N06
 BYTE   W18
 BYTE   N06
 BYTE   W12
 BYTE   N06
 BYTE   W18
 BYTE   PEND 
//  #05 //023   ----------------------------------------
 BYTE   PATT
  POIN2 Label_01003ABA
//  #05 //024   ----------------------------------------
 BYTE   PATT
  POIN2 Label_01003ABA
//  #05 //025   ----------------------------------------
Label_01003AD1:
 BYTE   N06  Cn3  v127
 BYTE   W24
 BYTE   N06
 BYTE   W36
 BYTE   N06
 BYTE   W18
 BYTE   N06
 BYTE   W18
 BYTE   PEND 
//  #05 //026   ----------------------------------------
 BYTE   PATT
  POIN2 Label_01003ABA
//  #05 //027   ----------------------------------------
 BYTE   PATT
  POIN2 Label_01003ABA
//  #05 //028   ----------------------------------------
 BYTE   PATT
  POIN2 Label_01003ABA
//  #05 //029   ----------------------------------------
 BYTE   PATT
  POIN2 Label_01003AD1
//  #05 //030   ----------------------------------------
 BYTE   PATT
  POIN2 Label_01003ABA
//  #05 //031   ----------------------------------------
 BYTE   PATT
  POIN2 Label_01003ABA
//  #05 //032   ----------------------------------------
 BYTE   PATT
  POIN2 Label_01003ABA
//  #05 //033   ----------------------------------------
 BYTE   PATT
  POIN2 Label_01003AD1
//  #05 //034   ----------------------------------------
 BYTE   W12
 BYTE   N06  Cn3  v127
 BYTE   W06
 BYTE   N06
 BYTE   W06
 BYTE   N06
 BYTE   W06
 BYTE   N06
 BYTE   W12
 BYTE   N06
 BYTE   W18
 BYTE   N06
 BYTE   W06
 BYTE   N06
 BYTE   W06
 BYTE   N06
 BYTE   W06
 BYTE   N06
 BYTE   W18
//  #05 //035   ----------------------------------------
 BYTE   W06
 BYTE   N06
 BYTE   W12
 BYTE   N06
 BYTE   W12
 BYTE   N06
 BYTE   W12
 BYTE   N06
 BYTE   W06
 BYTE   N06
 BYTE   W30
 BYTE   N06
 BYTE   W12
 BYTE   N06
 BYTE   W06
//  #05 //036   ----------------------------------------
 BYTE   W06
 BYTE   N06
 BYTE   W12
 BYTE   N06
 BYTE   W06
 BYTE   N06
 BYTE   W36
 BYTE   N06
 BYTE   W06
 BYTE   N06
 BYTE   W18
 BYTE   N06
 BYTE   W06
 BYTE   N06
 BYTE   W06
//  #05 //037   ----------------------------------------
Label_01003B37:
 BYTE   N06  Cn3  v127
 BYTE   W36
 BYTE   N06
 BYTE   W48
 BYTE   N06
 BYTE   W06
 BYTE   N06
 BYTE   W06
 BYTE   PEND 
//  #05 //038   ----------------------------------------
Label_01003B42:
 BYTE   N06  Cn3  v127
 BYTE   W36
 BYTE   N06
 BYTE   W48
 BYTE   N06
 BYTE   W12
 BYTE   PEND 
//  #05 //039   ----------------------------------------
 BYTE   PATT
  POIN2 Label_01003B37
//  #05 //040   ----------------------------------------
 BYTE   PATT
  POIN2 Label_01003B42
//  #05 //041   ----------------------------------------
 BYTE   W24
 BYTE   N06  Cn3  v127
 BYTE   W06
 BYTE   N06
 BYTE   W12
 BYTE   N06
 BYTE   W06
 BYTE   N06
 BYTE   W24
 BYTE   N06
 BYTE   W06
 BYTE   N06
 BYTE   W12
 BYTE   N06
 BYTE   W06
//  #05 //042   ----------------------------------------
 BYTE   N06
 BYTE   W24
 BYTE   N06
 BYTE   W06
 BYTE   N06
 BYTE   W12
 BYTE   N06
 BYTE   W18
 BYTE   N06
 BYTE   W24
 BYTE   N06
 BYTE   W12
//  #05 //043   ----------------------------------------
 BYTE   PATT
  POIN2 Label_01003B37
//  #05 //044   ----------------------------------------
 BYTE   PATT
  POIN2 Label_01003B42
//  #05 //045   ----------------------------------------
 BYTE   PATT
  POIN2 Label_01003B37
//  #05 //046   ----------------------------------------
 BYTE   PATT
  POIN2 Label_01003B42
//  #05 //047   ----------------------------------------
 BYTE   N06  Cn3  v127
 BYTE   W24
 BYTE   N06
 BYTE   W06
 BYTE   N06
 BYTE   W12
 BYTE   N06
 BYTE   W18
 BYTE   N06
 BYTE   W12
 BYTE   N06
 BYTE   W06
 BYTE   N06
 BYTE   W12
 BYTE   N06
 BYTE   W06
//  #05 //048   ----------------------------------------
 BYTE   W24
 BYTE   N06
 BYTE   W06
 BYTE   N06
 BYTE   W12
 BYTE   N06
 BYTE   W18
 BYTE   N06
 BYTE   W36
//  #05 //049   ----------------------------------------
 BYTE   N06
 BYTE   W96
//  #05 //050   ----------------------------------------
 BYTE   W96
//  #05 //051   ----------------------------------------
 BYTE   W96
//  #05 //052   ----------------------------------------
 BYTE   PATT
  POIN2 Label_01003AB2
//  #05 //053   ----------------------------------------
 BYTE   GoTo
  POIN2 Label_01003A72
 BYTE   FINE

//**************** Track 6 (Midi-Chn.5) ****************//

GuiltyGearXAdvanceZatoEddiesThemeFeelaFear_006:
//  #06 //000   ----------------------------------------
 BYTE   KEYSH   GuiltyGearXAdvanceZatoEddiesThemeFeelaFear_key+0
 BYTE   VOICE   116
 BYTE   MODT 0
 BYTE   LFOS 44
 BYTE   VOL   36*GuiltyGearXAdvanceZatoEddiesThemeFeelaFear_mvl/mxv
 BYTE   BEND   c_v+0
 BYTE   W01
 BYTE   PAN   c_v+0
 BYTE   W92
 BYTE   W03
//  #06 //001   ----------------------------------------
 BYTE   W96
//  #06 //002   ----------------------------------------
 BYTE   W96
//  #06 //003   ----------------------------------------
 BYTE   W96
//  #06 //004   ----------------------------------------
 BYTE   W96
//  #06 //005   ----------------------------------------
 BYTE   W96
//  #06 //006   ----------------------------------------
 BYTE   W96
//  #06 //007   ----------------------------------------
 BYTE   W48
 BYTE   N06  An2  v127
 BYTE   W08
 BYTE   N06
 BYTE   W08
 BYTE   N06
 BYTE   W08
 BYTE   N06
 BYTE   W24
//  #06 //008   ----------------------------------------
 BYTE   W96
//  #06 //009   ----------------------------------------
 BYTE   W96
//  #06 //010   ----------------------------------------
 BYTE   W96
//  #06 //011   ----------------------------------------
 BYTE   W48
 BYTE   N06
 BYTE   W18
 BYTE   N06
 BYTE   W06
 BYTE   N06
 BYTE   W06
 BYTE   N06
 BYTE   W06
 BYTE   N06
 BYTE   W06
 BYTE   N06
 BYTE   W06
//  #06 //012   ----------------------------------------
Label_01003BE2:
 BYTE   W24
 BYTE   N06  An2  v127
 BYTE   W18
 BYTE   N06
 BYTE   W12
 BYTE   N06
 BYTE   W18
 BYTE   N06
 BYTE   W24
 BYTE   PEND 
//  #06 //013   ----------------------------------------
Label_01003BEE:
 BYTE   W06
 BYTE   N06  An2  v127
 BYTE   W18
 BYTE   N06
 BYTE   W18
 BYTE   N06
 BYTE   W12
 BYTE   N06
 BYTE   W18
 BYTE   N06
 BYTE   W06
 BYTE   N06
 BYTE   W06
 BYTE   N06
 BYTE   W06
 BYTE   N06
 BYTE   W06
 BYTE   PEND 
//  #06 //014   ----------------------------------------
 BYTE   PATT
  POIN2 Label_01003BE2
//  #06 //015   ----------------------------------------
 BYTE   PATT
  POIN2 Label_01003BEE
//  #06 //016   ----------------------------------------
 BYTE   PATT
  POIN2 Label_01003BE2
//  #06 //017   ----------------------------------------
 BYTE   PATT
  POIN2 Label_01003BEE
//  #06 //018   ----------------------------------------
 BYTE   PATT
  POIN2 Label_01003BE2
//  #06 //019   ----------------------------------------
 BYTE   PATT
  POIN2 Label_01003BEE
//  #06 //020   ----------------------------------------
 BYTE   W96
//  #06 //021   ----------------------------------------
 BYTE   W48
 BYTE   N06  An2  v127
 BYTE   W18
 BYTE   N06
 BYTE   W18
 BYTE   N06
 BYTE   W06
 BYTE   N06
 BYTE   W06
//  #06 //022   ----------------------------------------
Label_01003C2C:
 BYTE   W12
 BYTE   N06  An2  v127
 BYTE   W24
 BYTE   N06
 BYTE   W24
 BYTE   N06
 BYTE   W24
 BYTE   N06
 BYTE   W12
 BYTE   PEND 
//  #06 //023   ----------------------------------------
 BYTE   PATT
  POIN2 Label_01003C2C
//  #06 //024   ----------------------------------------
 BYTE   PATT
  POIN2 Label_01003C2C
//  #06 //025   ----------------------------------------
Label_01003C42:
 BYTE   W12
 BYTE   N06  An2  v127
 BYTE   W24
 BYTE   N06
 BYTE   W12
 BYTE   N06
 BYTE   W18
 BYTE   N06
 BYTE   W18
 BYTE   N06
 BYTE   W06
 BYTE   N06
 BYTE   W06
 BYTE   PEND 
//  #06 //026   ----------------------------------------
 BYTE   PATT
  POIN2 Label_01003C2C
//  #06 //027   ----------------------------------------
 BYTE   PATT
  POIN2 Label_01003C2C
//  #06 //028   ----------------------------------------
 BYTE   PATT
  POIN2 Label_01003C2C
//  #06 //029   ----------------------------------------
 BYTE   PATT
  POIN2 Label_01003C42
//  #06 //030   ----------------------------------------
 BYTE   PATT
  POIN2 Label_01003C2C
//  #06 //031   ----------------------------------------
 BYTE   PATT
  POIN2 Label_01003C2C
//  #06 //032   ----------------------------------------
 BYTE   PATT
  POIN2 Label_01003C2C
//  #06 //033   ----------------------------------------
 BYTE   PATT
  POIN2 Label_01003C42
//  #06 //034   ----------------------------------------
 BYTE   N06  An2  v127
 BYTE   W36
 BYTE   N06
 BYTE   W06
 BYTE   N06
 BYTE   W06
 BYTE   N06
 BYTE   W36
 BYTE   N06
 BYTE   W06
 BYTE   N06
 BYTE   W06
//  #06 //035   ----------------------------------------
 BYTE   N06
 BYTE   W12
 BYTE   N06
 BYTE   W12
 BYTE   N06
 BYTE   W12
 BYTE   N06
 BYTE   W36
 BYTE   N06
 BYTE   W12
 BYTE   N06
 BYTE   W12
//  #06 //036   ----------------------------------------
 BYTE   N06
 BYTE   W12
 BYTE   N06
 BYTE   W36
 BYTE   N06
 BYTE   W24
 BYTE   N06
 BYTE   W24
//  #06 //037   ----------------------------------------
 BYTE   W48
 BYTE   N06
 BYTE   W48
//  #06 //038   ----------------------------------------
Label_01003C9F:
 BYTE   W48
 BYTE   N06  An2  v127
 BYTE   W24
 BYTE   N06
 BYTE   W18
 BYTE   N06
 BYTE   W06
 BYTE   PEND 
//  #06 //039   ----------------------------------------
 BYTE   W48
 BYTE   N06
 BYTE   W48
//  #06 //040   ----------------------------------------
 BYTE   PATT
  POIN2 Label_01003C9F
//  #06 //041   ----------------------------------------
Label_01003CB1:
 BYTE   N06  An2  v127
 BYTE   W12
 BYTE   N06
 BYTE   W24
 BYTE   N06
 BYTE   W12
 BYTE   N06
 BYTE   W12
 BYTE   N06
 BYTE   W24
 BYTE   N06
 BYTE   W12
 BYTE   PEND 
//  #06 //042   ----------------------------------------
 BYTE   N06
 BYTE   W12
 BYTE   N06
 BYTE   W24
 BYTE   N06
 BYTE   W12
 BYTE   N06
 BYTE   W12
 BYTE   N06
 BYTE   W12
 BYTE   N06
 BYTE   W06
 BYTE   N06
 BYTE   W12
 BYTE   N06
 BYTE   W06
//  #06 //043   ----------------------------------------
 BYTE   W48
 BYTE   N06
 BYTE   W48
//  #06 //044   ----------------------------------------
 BYTE   PATT
  POIN2 Label_01003C9F
//  #06 //045   ----------------------------------------
 BYTE   W48
 BYTE   N06  An2  v127
 BYTE   W48
//  #06 //046   ----------------------------------------
 BYTE   PATT
  POIN2 Label_01003C9F
//  #06 //047   ----------------------------------------
 BYTE   PATT
  POIN2 Label_01003CB1
//  #06 //048   ----------------------------------------
 BYTE   N06  An2  v127
 BYTE   W12
 BYTE   N06
 BYTE   W24
 BYTE   N06
 BYTE   W12
 BYTE   N06
 BYTE   W12
 BYTE   N06
 BYTE   W12
 BYTE   N06
 BYTE   W06
 BYTE   N06
 BYTE   W06
 BYTE   N06
 BYTE   W06
 BYTE   N06
 BYTE   W06
//  #06 //049   ----------------------------------------
 BYTE   W96
//  #06 //050   ----------------------------------------
 BYTE   W96
//  #06 //051   ----------------------------------------
 BYTE   W96
//  #06 //052   ----------------------------------------
 BYTE   W48
 BYTE   N06
 BYTE   W18
 BYTE   N06
 BYTE   W06
 BYTE   N06
 BYTE   W12
 BYTE   N06
 BYTE   W06
 BYTE   N06
 BYTE   W06
//  #06 //053   ----------------------------------------
 BYTE   GoTo
  POIN2 Label_01003BE2
 BYTE   FINE

//**************** Track 7 (Midi-Chn.6) ****************//

GuiltyGearXAdvanceZatoEddiesThemeFeelaFear_007:
//  #07 //000   ----------------------------------------
 BYTE   KEYSH   GuiltyGearXAdvanceZatoEddiesThemeFeelaFear_key+0
 BYTE   VOICE   123
 BYTE   MODT 0
 BYTE   LFOS 44
 BYTE   VOL   36*GuiltyGearXAdvanceZatoEddiesThemeFeelaFear_mvl/mxv
 BYTE   BEND   c_v+0
 BYTE   W01
 BYTE   PAN   c_v+0
 BYTE   W92
 BYTE   W03
//  #07 //001   ----------------------------------------
 BYTE   W96
//  #07 //002   ----------------------------------------
 BYTE   W96
//  #07 //003   ----------------------------------------
 BYTE   W96
//  #07 //004   ----------------------------------------
 BYTE   W96
//  #07 //005   ----------------------------------------
 BYTE   W96
//  #07 //006   ----------------------------------------
 BYTE   W96
//  #07 //007   ----------------------------------------
 BYTE   W36
 BYTE   N04  An2  v088
 BYTE   W44
 BYTE   An2  v092
 BYTE   W16
//  #07 //008   ----------------------------------------
 BYTE   W96
//  #07 //009   ----------------------------------------
 BYTE   W96
//  #07 //010   ----------------------------------------
 BYTE   W96
//  #07 //011   ----------------------------------------
 BYTE   W96
//  #07 //012   ----------------------------------------
Label_01002633:
 BYTE   W12
 BYTE   N04  An2  v060
 BYTE   W84
//  #07 //013   ----------------------------------------
 BYTE   W96
//  #07 //014   ----------------------------------------
 BYTE   W12
 BYTE   N04
 BYTE   W84
//  #07 //015   ----------------------------------------
 BYTE   W96
//  #07 //016   ----------------------------------------
 BYTE   W12
 BYTE   N04
 BYTE   W84
//  #07 //017   ----------------------------------------
 BYTE   W96
//  #07 //018   ----------------------------------------
 BYTE   W12
 BYTE   N04
 BYTE   W84
//  #07 //019   ----------------------------------------
 BYTE   W96
//  #07 //020   ----------------------------------------
 BYTE   W12
 BYTE   An2  v048
 BYTE   W12
 BYTE   An2  v072
 BYTE   W12
 BYTE   An2  v048
 BYTE   W12
 BYTE   An2  v072
 BYTE   W12
 BYTE   An2  v048
 BYTE   W12
 BYTE   An2  v076
 BYTE   W12
 BYTE   An2  v048
 BYTE   W12
//  #07 //021   ----------------------------------------
 BYTE   An2  v076
 BYTE   W12
 BYTE   An2  v048
 BYTE   W12
 BYTE   An2  v076
 BYTE   W12
 BYTE   An2  v048
 BYTE   W36
 BYTE   An2  v092
 BYTE   W24
//  #07 //022   ----------------------------------------
 BYTE   W96
//  #07 //023   ----------------------------------------
 BYTE   W96
//  #07 //024   ----------------------------------------
 BYTE   W96
//  #07 //025   ----------------------------------------
 BYTE   W96
//  #07 //026   ----------------------------------------
 BYTE   W96
//  #07 //027   ----------------------------------------
 BYTE   W96
//  #07 //028   ----------------------------------------
 BYTE   W96
//  #07 //029   ----------------------------------------
 BYTE   W96
//  #07 //030   ----------------------------------------
 BYTE   W96
//  #07 //031   ----------------------------------------
 BYTE   W96
//  #07 //032   ----------------------------------------
 BYTE   W96
//  #07 //033   ----------------------------------------
 BYTE   W96
//  #07 //034   ----------------------------------------
 BYTE   W96
//  #07 //035   ----------------------------------------
 BYTE   W96
//  #07 //036   ----------------------------------------
 BYTE   W96
//  #07 //037   ----------------------------------------
Label_01002679:
 BYTE   W12
 BYTE   N04  An2  v044
 BYTE   W12
 BYTE   An2  v060
 BYTE   W36
 BYTE   An2  v052
 BYTE   W12
 BYTE   An2  v064
 BYTE   W24
 BYTE   PEND 
//  #07 //038   ----------------------------------------
Label_01002688:
 BYTE   W12
 BYTE   N04  An2  v048
 BYTE   W12
 BYTE   An2  v064
 BYTE   W36
 BYTE   An2  v048
 BYTE   W36
 BYTE   PEND 
//  #07 //039   ----------------------------------------
 BYTE   PATT
  POIN2 Label_01002679
//  #07 //040   ----------------------------------------
 BYTE   PATT
  POIN2 Label_01002688
//  #07 //041   ----------------------------------------
 BYTE   W96
//  #07 //042   ----------------------------------------
 BYTE   W96
//  #07 //043   ----------------------------------------
 BYTE   PATT
  POIN2 Label_01002679
//  #07 //044   ----------------------------------------
 BYTE   PATT
  POIN2 Label_01002688
//  #07 //045   ----------------------------------------
 BYTE   PATT
  POIN2 Label_01002679
//  #07 //046   ----------------------------------------
 BYTE   PATT
  POIN2 Label_01002688
//  #07 //047   ----------------------------------------
 BYTE   W96
//  #07 //048   ----------------------------------------
 BYTE   W96
//  #07 //049   ----------------------------------------
 BYTE   W96
//  #07 //050   ----------------------------------------
 BYTE   W84
 BYTE   N04  An2  v052
 BYTE   W04
 BYTE   N04
 BYTE   W04
 BYTE   N04
 BYTE   W04
//  #07 //051   ----------------------------------------
 BYTE   N04
 BYTE   W12
 BYTE   An2  v008
 BYTE   W84
//  #07 //052   ----------------------------------------
 BYTE   An2  v060
 BYTE   W24
 BYTE   An2  v064
 BYTE   W72
//  #07 //053   ----------------------------------------
 BYTE   GoTo
  POIN2 Label_01002633
 BYTE   FINE

//******************************************************//
	ALIGN 4

GuiltyGearXAdvanceZatoEddiesThemeFeelaFear:
	BYTE	7	// NumTrks
	BYTE	0	// NumBlks
	BYTE	GuiltyGearXAdvanceZatoEddiesThemeFeelaFear_pri	// Priority
	BYTE	GuiltyGearXAdvanceZatoEddiesThemeFeelaFear_rev	// Reverb.
    
	POIN2	GuiltyGearXAdvanceZatoEddiesThemeFeelaFear_grp
    
	POIN2	GuiltyGearXAdvanceZatoEddiesThemeFeelaFear_001
	POIN2	GuiltyGearXAdvanceZatoEddiesThemeFeelaFear_002
	POIN2	GuiltyGearXAdvanceZatoEddiesThemeFeelaFear_003
	POIN2	GuiltyGearXAdvanceZatoEddiesThemeFeelaFear_004
	POIN2	GuiltyGearXAdvanceZatoEddiesThemeFeelaFear_005
	POIN2	GuiltyGearXAdvanceZatoEddiesThemeFeelaFear_006
	POIN2	GuiltyGearXAdvanceZatoEddiesThemeFeelaFear_007

	
