//Event file generated from Sappy .s format.
	#include "MPlayDef.event"

	#define	GuiltyGearXMilliaRagesThemeMeatOfJustice_grp  voicegroup000
	#define	GuiltyGearXMilliaRagesThemeMeatOfJustice_pri  0
	#define	GuiltyGearXMilliaRagesThemeMeatOfJustice_rev  0
	#define	GuiltyGearXMilliaRagesThemeMeatOfJustice_mvl  127
	#define	GuiltyGearXMilliaRagesThemeMeatOfJustice_key  0
	#define	GuiltyGearXMilliaRagesThemeMeatOfJustice_tbs  1
	#define	GuiltyGearXMilliaRagesThemeMeatOfJustice_exg  0
	#define	GuiltyGearXMilliaRagesThemeMeatOfJustice_cmp  1

	// .rodata
	//	GuiltyGearXMilliaRagesThemeMeatOfJustice
	ALIGN 4


//**************** Track 1 (Midi-Chn.0) ****************//

GuiltyGearXMilliaRagesThemeMeatOfJustice_001:
// 000   ----------------------------------------
 BYTE   KEYSH   GuiltyGearXMilliaRagesThemeMeatOfJustice_key+0
 BYTE   TEMPO   256*GuiltyGearXMilliaRagesThemeMeatOfJustice_tbs/2
 BYTE   VOICE   127
 BYTE   VOL   40*GuiltyGearXMilliaRagesThemeMeatOfJustice_mvl/mxv
 BYTE   W96
// 001   ----------------------------------------
 BYTE   W96
// 002   ----------------------------------------
 BYTE   W96
// 003   ----------------------------------------
 BYTE   W96
// 004   ----------------------------------------
 BYTE   W96
// 005   ----------------------------------------
 BYTE   W96
// 006   ----------------------------------------
 BYTE   W96
// 007   ----------------------------------------
 BYTE   W96
// 008   ----------------------------------------
Label_0_014AECD8:
 BYTE   N11  Cn1  v092
 BYTE   W48
 BYTE   N11
 BYTE   W48
 BYTE   PEND 
// 009   ----------------------------------------
 BYTE   PATT
  POIN2 Label_0_014AECD8
// 010   ----------------------------------------
 BYTE   PATT
  POIN2 Label_0_014AECD8
// 011   ----------------------------------------
 BYTE   PATT
  POIN2 Label_0_014AECD8
// 012   ----------------------------------------
 BYTE   PATT
  POIN2 Label_0_014AECD8
// 013   ----------------------------------------
 BYTE   PATT
  POIN2 Label_0_014AECD8
// 014   ----------------------------------------
 BYTE   PATT
  POIN2 Label_0_014AECD8
// 015   ----------------------------------------
 BYTE   N11  Cn1  v092
 BYTE   W24
 BYTE   N11
 BYTE   W12
 BYTE   N11
 BYTE   W12
 BYTE   Dn1
 BYTE   N11  As1
 BYTE   W48
// 016   ----------------------------------------
 BYTE   W96
// 017   ----------------------------------------
 BYTE   W96
// 018   ----------------------------------------
 BYTE   W96
// 019   ----------------------------------------
 BYTE   Dn1
 BYTE   W24
 BYTE   N11
 BYTE   W24
 BYTE   N11
 BYTE   W12
 BYTE   N11
 BYTE   N11  Gn1
 BYTE   W12
 BYTE   Cn1
 BYTE   N11  Fn1
 BYTE   W12
 BYTE   Cn1
 BYTE   N11  Fn1
 BYTE   W12
// 020   ----------------------------------------
 BYTE   Cn1
 BYTE   N11  Cs2
 BYTE   N11  Gn2
 BYTE   W24
 BYTE   Dn1
 BYTE   N11  As1  v076
 BYTE   W24
 BYTE   Cn1  v092
 BYTE   N11  As1
 BYTE   W12
 BYTE   Cn1
 BYTE   W12
 BYTE   Dn1
 BYTE   N11  As1  v076
 BYTE   W24
// 021   ----------------------------------------
Label_0_014AED35:
 BYTE   N11  Cn1  v092
 BYTE   N11  As1
 BYTE   W24
 BYTE   Dn1
 BYTE   N11  As1  v076
 BYTE   W12
 BYTE   Cn1  v092
 BYTE   W12
 BYTE   As1
 BYTE   W12
 BYTE   Cn1
 BYTE   W12
 BYTE   Dn1
 BYTE   N11  As1  v076
 BYTE   W24
 BYTE   PEND 
// 022   ----------------------------------------
Label_0_014AED4D:
 BYTE   N11  Cn1  v092
 BYTE   N11  As1
 BYTE   W24
 BYTE   Dn1
 BYTE   N11  As1  v076
 BYTE   W24
 BYTE   Cn1  v092
 BYTE   N11  As1
 BYTE   W12
 BYTE   Cn1
 BYTE   W12
 BYTE   Dn1
 BYTE   N11  As1  v076
 BYTE   W24
 BYTE   PEND 
// 023   ----------------------------------------
 BYTE   PATT
  POIN2 Label_0_014AED35
// 024   ----------------------------------------
 BYTE   PATT
  POIN2 Label_0_014AED4D
// 025   ----------------------------------------
 BYTE   PATT
  POIN2 Label_0_014AED35
// 026   ----------------------------------------
 BYTE   N11  Cn1  v092
 BYTE   N11  Gn2
 BYTE   N11  An2
 BYTE   W24
 BYTE   Dn1
 BYTE   N11  As1  v076
 BYTE   W24
 BYTE   Cn1  v092
 BYTE   N11  As1
 BYTE   W12
 BYTE   Cn1
 BYTE   W12
 BYTE   Dn1
 BYTE   N11  As1  v076
 BYTE   W24
// 027   ----------------------------------------
 BYTE   Cn1  v092
 BYTE   N11  Dn1
 BYTE   W12
 BYTE   Cn1
 BYTE   N11  Dn1
 BYTE   W12
 BYTE   Cn1
 BYTE   N11  Dn1
 BYTE   W12
 BYTE   Cn1
 BYTE   N11  Dn1
 BYTE   W12
 BYTE   Cn1
 BYTE   N11  Dn1
 BYTE   W12
 BYTE   Cn1
 BYTE   N11  Dn1
 BYTE   W12
 BYTE   Cn1
 BYTE   N11  Dn1
 BYTE   W12
 BYTE   Cn1
 BYTE   N11  Dn1
 BYTE   W12
// 028   ----------------------------------------
Label_0_014AEDAE:
 BYTE   N11  Cn1  v092
 BYTE   N11  Dn1
 BYTE   N11  Gn1
 BYTE   W24
 BYTE   Cn1
 BYTE   N11  Gn1
 BYTE   W24
 BYTE   Dn1
 BYTE   N11  Gn1
 BYTE   N11  Gn2
 BYTE   N11  An2
 BYTE   W24
 BYTE   Cn1
 BYTE   N11  Gn1
 BYTE   W24
 BYTE   PEND 
// 029   ----------------------------------------
 BYTE   Cn1
 BYTE   N11  Dn1
 BYTE   N11  Gn1
 BYTE   W24
 BYTE   Cn1
 BYTE   N11  Gn1
 BYTE   W24
 BYTE   Dn1
 BYTE   N11  Gn1
 BYTE   N11  Cs2
 BYTE   N11  Gn2
 BYTE   W24
 BYTE   Cn1
 BYTE   W24
// 030   ----------------------------------------
 BYTE   PATT
  POIN2 Label_0_014AEDAE
// 031   ----------------------------------------
 BYTE   N11  Cn1  v092
 BYTE   N11  Dn1
 BYTE   N11  Gn1
 BYTE   W24
 BYTE   Cn1
 BYTE   N11  Gn1
 BYTE   W12
 BYTE   Cn1
 BYTE   W12
 BYTE   Dn1
 BYTE   N11  Gn1
 BYTE   N11  Cs2
 BYTE   N11  An2
 BYTE   W24
 BYTE   Cn1
 BYTE   W24
// 032   ----------------------------------------
 BYTE   PATT
  POIN2 Label_0_014AEDAE
// 033   ----------------------------------------
 BYTE   N11  Cn1  v092
 BYTE   N11  Dn1
 BYTE   N11  Gn1
 BYTE   W24
 BYTE   Cn1
 BYTE   N11  Gn1
 BYTE   W24
 BYTE   Dn1
 BYTE   N11  Gn1
 BYTE   N11  Cs2
 BYTE   N11  An2
 BYTE   W24
 BYTE   Cn1
 BYTE   W24
// 034   ----------------------------------------
 BYTE   PATT
  POIN2 Label_0_014AEDAE
// 035   ----------------------------------------
 BYTE   N11  Dn1  v092
 BYTE   N11  Gn1
 BYTE   W24
 BYTE   Cn1
 BYTE   W12
 BYTE   Dn1
 BYTE   N11  Gn1
 BYTE   W12
 BYTE   Dn1
 BYTE   N11  Gn1
 BYTE   W24
 BYTE   Dn1
 BYTE   W12
 BYTE   N11
 BYTE   W12
// 036   ----------------------------------------
 BYTE   Cn1
 BYTE   N11  Cs2
 BYTE   N11  Gn2
 BYTE   W96
// 037   ----------------------------------------
 BYTE   W96
// 038   ----------------------------------------
 BYTE   W96
// 039   ----------------------------------------
 BYTE   W72
 BYTE   Dn1
 BYTE   W24
// 040   ----------------------------------------
Label_0_014AEE37:
 BYTE   N11  Cn1  v092
 BYTE   N11  Gn2
 BYTE   N11  An2
 BYTE   W24
 BYTE   Dn1
 BYTE   N11  As1  v076
 BYTE   W24
 BYTE   Cn1  v092
 BYTE   N11  As1
 BYTE   W24
 BYTE   Dn1
 BYTE   N11  As1  v076
 BYTE   W24
 BYTE   PEND 
// 041   ----------------------------------------
 BYTE   PATT
  POIN2 Label_0_014AED35
// 042   ----------------------------------------
Label_0_014AEE54:
 BYTE   N11  Cn1  v092
 BYTE   N11  As1
 BYTE   W24
 BYTE   Dn1
 BYTE   N11  As1  v076
 BYTE   W24
 BYTE   Cn1  v092
 BYTE   N11  As1
 BYTE   W24
 BYTE   Dn1
 BYTE   N11  As1  v076
 BYTE   W24
 BYTE   PEND 
// 043   ----------------------------------------
 BYTE   PATT
  POIN2 Label_0_014AED35
// 044   ----------------------------------------
 BYTE   PATT
  POIN2 Label_0_014AEE54
// 045   ----------------------------------------
 BYTE   PATT
  POIN2 Label_0_014AED35
// 046   ----------------------------------------
 BYTE   PATT
  POIN2 Label_0_014AEE54
// 047   ----------------------------------------
 BYTE   PATT
  POIN2 Label_0_014AED35
// 048   ----------------------------------------
 BYTE   PATT
  POIN2 Label_0_014AEE54
// 049   ----------------------------------------
 BYTE   PATT
  POIN2 Label_0_014AED35
// 050   ----------------------------------------
 BYTE   N11  Cn1  v092
 BYTE   N11  Cs2
 BYTE   N11  Gn2
 BYTE   W24
 BYTE   Dn1
 BYTE   W12
 BYTE   N11
 BYTE   W12
 BYTE   Cn1
 BYTE   N11  Dn1
 BYTE   W12
 BYTE   Cn1
 BYTE   N11  Dn1
 BYTE   W12
 BYTE   Cn1
 BYTE   N11  Dn1
 BYTE   W12
 BYTE   Cn1
 BYTE   N11  Dn1
 BYTE   W12
// 051   ----------------------------------------
 BYTE   Cn1
 BYTE   N11  Dn1
 BYTE   W12
 BYTE   Cn1
 BYTE   N11  An1
 BYTE   W12
 BYTE   Cn1
 BYTE   N11  An1
 BYTE   W12
 BYTE   Cn1
 BYTE   N11  Gn1
 BYTE   W12
 BYTE   Cn1
 BYTE   N11  Gn1
 BYTE   W12
 BYTE   Cn1
 BYTE   N11  Fn1
 BYTE   W12
 BYTE   Cn1
 BYTE   N11  Fn1
 BYTE   W12
 BYTE   Cn1
 BYTE   N11  Fn1
 BYTE   W12
// 052   ----------------------------------------
 BYTE   W96
// 053   ----------------------------------------
 BYTE   W96
// 054   ----------------------------------------
 BYTE   W96
// 055   ----------------------------------------
 BYTE   W24
 BYTE   Cn1
 BYTE   W12
 BYTE   N11
 BYTE   W12
 BYTE   Dn1
 BYTE   N11  En1
 BYTE   N11  As1
 BYTE   W48
// 056   ----------------------------------------
 BYTE   PATT
  POIN2 Label_0_014AEE37
// 057   ----------------------------------------
 BYTE   PATT
  POIN2 Label_0_014AED35
// 058   ----------------------------------------
 BYTE   PATT
  POIN2 Label_0_014AEE54
// 059   ----------------------------------------
 BYTE   PATT
  POIN2 Label_0_014AED35
// 060   ----------------------------------------
 BYTE   PATT
  POIN2 Label_0_014AEE54
// 061   ----------------------------------------
Label_0_014AEEF0:
 BYTE   N11  Cn1  v092
 BYTE   N11  As1
 BYTE   W24
 BYTE   Dn1
 BYTE   N11  As1  v076
 BYTE   W12
 BYTE   Cn1  v092
 BYTE   W12
 BYTE   N07  Dn1
 BYTE   W12
 BYTE   N11  Cn1
 BYTE   W12
 BYTE   N07
 BYTE   N11  Dn1
 BYTE   W12
 BYTE   N07  Cn1
 BYTE   N07  Dn1
 BYTE   W12
 BYTE   PEND 
// 062   ----------------------------------------
Label_0_014AEF0E:
 BYTE   N07  Cn1  v092
 BYTE   N07  Gn1
 BYTE   W12
 BYTE   N07
 BYTE   W12
 BYTE   Dn1
 BYTE   N07  Gn1
 BYTE   W12
 BYTE   Cn1
 BYTE   W12
 BYTE   N07
 BYTE   N07  Fn1
 BYTE   W12
 BYTE   N07
 BYTE   W12
 BYTE   Dn1
 BYTE   N07  Fn1
 BYTE   N07  Cs2
 BYTE   N07  Gn2
 BYTE   W12
 BYTE   Cn1
 BYTE   W12
 BYTE   PEND 
// 063   ----------------------------------------
Label_0_014AEF2D:
 BYTE   N07  Cn1  v092
 BYTE   N07  Gn1
 BYTE   W12
 BYTE   N07
 BYTE   W12
 BYTE   Dn1
 BYTE   N07  Gn1
 BYTE   W12
 BYTE   Cn1
 BYTE   W12
 BYTE   N07
 BYTE   N07  Fn1
 BYTE   W12
 BYTE   N07
 BYTE   W12
 BYTE   Dn1
 BYTE   N07  Fn1
 BYTE   N07  Gn2
 BYTE   N07  An2
 BYTE   W12
 BYTE   Cn1
 BYTE   W12
 BYTE   PEND 
// 064   ----------------------------------------
Label_0_014AEF4C:
 BYTE   N11  Cn1  v092
 BYTE   N11  Cs2
 BYTE   N11  Gn2
 BYTE   W24
 BYTE   Dn1
 BYTE   N11  As1  v076
 BYTE   W24
 BYTE   Cn1  v092
 BYTE   N11  As1
 BYTE   W24
 BYTE   Dn1
 BYTE   N11  As1  v076
 BYTE   W24
 BYTE   PEND 
// 065   ----------------------------------------
 BYTE   PATT
  POIN2 Label_0_014AED35
// 066   ----------------------------------------
 BYTE   PATT
  POIN2 Label_0_014AEE54
// 067   ----------------------------------------
 BYTE   PATT
  POIN2 Label_0_014AED35
// 068   ----------------------------------------
Label_0_014AEF73:
 BYTE   N11  Dn1  v092
 BYTE   N11  Gn1
 BYTE   W24
 BYTE   Cn1
 BYTE   N11  Fn1
 BYTE   W24
 BYTE   Dn1
 BYTE   N11  Gn1
 BYTE   N11  Gn2
 BYTE   N11  An2
 BYTE   W24
 BYTE   Cn1
 BYTE   N11  Fn1
 BYTE   W24
 BYTE   PEND 
// 069   ----------------------------------------
Label_0_014AEF8A:
 BYTE   N11  Dn1  v092
 BYTE   N11  Gn1
 BYTE   W24
 BYTE   Cn1
 BYTE   N11  Fn1
 BYTE   W24
 BYTE   Dn1
 BYTE   N11  Gn1
 BYTE   N11  Cs2
 BYTE   N11  Gn2
 BYTE   W24
 BYTE   Cn1
 BYTE   N11  Fn1
 BYTE   W24
 BYTE   PEND 
// 070   ----------------------------------------
Label_0_014AEFA1:
 BYTE   N11  Cn1  v092
 BYTE   N11  Gn2
 BYTE   N11  An2
 BYTE   W24
 BYTE   Dn1
 BYTE   W12
 BYTE   N11
 BYTE   W12
 BYTE   Cn1
 BYTE   N11  Dn1
 BYTE   W12
 BYTE   Cn1
 BYTE   N11  Dn1
 BYTE   W12
 BYTE   Cn1
 BYTE   N11  Dn1
 BYTE   W12
 BYTE   Cn1
 BYTE   N11  Dn1
 BYTE   W12
 BYTE   PEND 
// 071   ----------------------------------------
Label_0_014AEFBE:
 BYTE   N11  Cn1  v092
 BYTE   N11  Cs2
 BYTE   W48
 BYTE   Cn1
 BYTE   N11  An2
 BYTE   W48
 BYTE   PEND 
// 072   ----------------------------------------
 BYTE   Cn1
 BYTE   N11  Cs2
 BYTE   N11  Gn2
 BYTE   W24
 BYTE   Cn1
 BYTE   N11  As1
 BYTE   W72
// 073   ----------------------------------------
 BYTE   Fs1
 BYTE   W96
// 074   ----------------------------------------
 BYTE   N11
 BYTE   W96
// 075   ----------------------------------------
 BYTE   As1
 BYTE   W96
// 076   ----------------------------------------
 BYTE   Cn1
 BYTE   N11  Gn2
 BYTE   N11  An2
 BYTE   W24
 BYTE   Cn1
 BYTE   N11  As1
 BYTE   W72
// 077   ----------------------------------------
 BYTE   Fs1
 BYTE   W96
// 078   ----------------------------------------
 BYTE   N11
 BYTE   W96
// 079   ----------------------------------------
 BYTE   Dn1
 BYTE   W24
 BYTE   N11
 BYTE   W12
 BYTE   Cn1
 BYTE   W12
 BYTE   Dn1
 BYTE   W12
 BYTE   N11
 BYTE   W12
 BYTE   Cn1
 BYTE   W12
 BYTE   N11
 BYTE   W12
// 080   ----------------------------------------
Label_0_014AEFF5:
 BYTE   N11  Cn1  v092
 BYTE   N11  Gn2
 BYTE   N11  An2
 BYTE   W24
 BYTE   Dn1
 BYTE   N11  Ds2  v076
 BYTE   W24
 BYTE   Cn1  v092
 BYTE   N11  Ds2
 BYTE   W12
 BYTE   Cn1
 BYTE   W12
 BYTE   Dn1
 BYTE   N11  Ds2  v076
 BYTE   W24
 BYTE   PEND 
// 081   ----------------------------------------
Label_0_014AF00F:
 BYTE   N11  Cn1  v092
 BYTE   N11  Ds2
 BYTE   W24
 BYTE   Dn1
 BYTE   N11  Ds2  v076
 BYTE   W12
 BYTE   Cn1  v092
 BYTE   W12
 BYTE   Ds2
 BYTE   W12
 BYTE   Cn1
 BYTE   W12
 BYTE   Dn1
 BYTE   N11  Ds2  v076
 BYTE   W24
 BYTE   PEND 
// 082   ----------------------------------------
Label_0_014AF027:
 BYTE   N11  Cn1  v092
 BYTE   N11  Ds2
 BYTE   W24
 BYTE   Dn1
 BYTE   N11  Ds2  v076
 BYTE   W24
 BYTE   Cn1  v092
 BYTE   N11  Ds2
 BYTE   W12
 BYTE   Cn1
 BYTE   W12
 BYTE   Dn1
 BYTE   N11  Ds2  v076
 BYTE   W24
 BYTE   PEND 
// 083   ----------------------------------------
Label_0_014AF03F:
 BYTE   N11  Cn1  v092
 BYTE   N11  Ds2
 BYTE   W24
 BYTE   Dn1
 BYTE   N11  En2
 BYTE   N11  Gn2
 BYTE   W12
 BYTE   Cn1
 BYTE   W12
 BYTE   Ds2
 BYTE   W12
 BYTE   Cn1
 BYTE   W12
 BYTE   Dn1
 BYTE   N11  En2
 BYTE   N11  Gn2
 BYTE   W24
 BYTE   PEND 
// 084   ----------------------------------------
Label_0_014AF058:
 BYTE   N11  Cn1  v092
 BYTE   N11  Cs2
 BYTE   N11  Gn2
 BYTE   W24
 BYTE   Dn1
 BYTE   N11  Ds2  v076
 BYTE   W24
 BYTE   Cn1  v092
 BYTE   N11  Ds2
 BYTE   W12
 BYTE   Cn1
 BYTE   W12
 BYTE   Dn1
 BYTE   N11  Ds2  v076
 BYTE   W24
 BYTE   PEND 
// 085   ----------------------------------------
 BYTE   PATT
  POIN2 Label_0_014AF00F
// 086   ----------------------------------------
Label_0_014AF077:
 BYTE   N11  Cn1  v092
 BYTE   N11  Ds2
 BYTE   W24
 BYTE   Dn1
 BYTE   N11  En2
 BYTE   N11  Gn2
 BYTE   W24
 BYTE   Cn1
 BYTE   N11  Ds2
 BYTE   W12
 BYTE   Cn1
 BYTE   W12
 BYTE   Dn1
 BYTE   N11  En2
 BYTE   N11  Gn2
 BYTE   W24
 BYTE   PEND 
// 087   ----------------------------------------
Label_0_014AF090:
 BYTE   N11  Dn1  v092
 BYTE   W12
 BYTE   N11
 BYTE   W12
 BYTE   Cn1
 BYTE   N11  Dn1
 BYTE   W12
 BYTE   Cn1
 BYTE   N11  Dn1
 BYTE   W12
 BYTE   Cn1
 BYTE   N11  Dn1
 BYTE   W12
 BYTE   Cn1
 BYTE   N11  Dn1
 BYTE   W12
 BYTE   Cn1
 BYTE   N11  Dn1
 BYTE   W12
 BYTE   Cn1
 BYTE   N11  Dn1
 BYTE   W12
 BYTE   PEND 
// 088   ----------------------------------------
 BYTE   PATT
  POIN2 Label_0_014AEFF5
// 089   ----------------------------------------
 BYTE   PATT
  POIN2 Label_0_014AF00F
// 090   ----------------------------------------
 BYTE   PATT
  POIN2 Label_0_014AF027
// 091   ----------------------------------------
 BYTE   PATT
  POIN2 Label_0_014AF03F
// 092   ----------------------------------------
 BYTE   PATT
  POIN2 Label_0_014AF058
// 093   ----------------------------------------
 BYTE   PATT
  POIN2 Label_0_014AF00F
// 094   ----------------------------------------
 BYTE   PATT
  POIN2 Label_0_014AF077
// 095   ----------------------------------------
 BYTE   PATT
  POIN2 Label_0_014AF090
// 096   ----------------------------------------
 BYTE   PATT
  POIN2 Label_0_014AEE37
// 097   ----------------------------------------
 BYTE   PATT
  POIN2 Label_0_014AED35
// 098   ----------------------------------------
 BYTE   PATT
  POIN2 Label_0_014AEE54
// 099   ----------------------------------------
 BYTE   PATT
  POIN2 Label_0_014AED35
// 100   ----------------------------------------
 BYTE   PATT
  POIN2 Label_0_014AEE54
// 101   ----------------------------------------
 BYTE   PATT
  POIN2 Label_0_014AEEF0
// 102   ----------------------------------------
 BYTE   PATT
  POIN2 Label_0_014AEF0E
// 103   ----------------------------------------
 BYTE   PATT
  POIN2 Label_0_014AEF2D
// 104   ----------------------------------------
 BYTE   PATT
  POIN2 Label_0_014AEF4C
// 105   ----------------------------------------
 BYTE   PATT
  POIN2 Label_0_014AED35
// 106   ----------------------------------------
 BYTE   PATT
  POIN2 Label_0_014AEE54
// 107   ----------------------------------------
 BYTE   PATT
  POIN2 Label_0_014AED35
// 108   ----------------------------------------
 BYTE   PATT
  POIN2 Label_0_014AEF73
// 109   ----------------------------------------
 BYTE   PATT
  POIN2 Label_0_014AEF8A
// 110   ----------------------------------------
 BYTE   PATT
  POIN2 Label_0_014AEFA1
// 111   ----------------------------------------
 BYTE   PATT
  POIN2 Label_0_014AEFBE
// 112   ----------------------------------------
 BYTE   PATT
  POIN2 Label_0_014AEFF5
// 113   ----------------------------------------
 BYTE   PATT
  POIN2 Label_0_014AF00F
// 114   ----------------------------------------
 BYTE   PATT
  POIN2 Label_0_014AF027
// 115   ----------------------------------------
 BYTE   PATT
  POIN2 Label_0_014AF03F
// 116   ----------------------------------------
 BYTE   PATT
  POIN2 Label_0_014AF058
// 117   ----------------------------------------
 BYTE   PATT
  POIN2 Label_0_014AF00F
// 118   ----------------------------------------
 BYTE   PATT
  POIN2 Label_0_014AF077
// 119   ----------------------------------------
 BYTE   PATT
  POIN2 Label_0_014AF090
// 120   ----------------------------------------
 BYTE   PATT
  POIN2 Label_0_014AEFF5
// 121   ----------------------------------------
 BYTE   PATT
  POIN2 Label_0_014AF00F
// 122   ----------------------------------------
 BYTE   PATT
  POIN2 Label_0_014AF027
// 123   ----------------------------------------
 BYTE   PATT
  POIN2 Label_0_014AF03F
// 124   ----------------------------------------
 BYTE   PATT
  POIN2 Label_0_014AF058
// 125   ----------------------------------------
 BYTE   PATT
  POIN2 Label_0_014AF00F
// 126   ----------------------------------------
 BYTE   PATT
  POIN2 Label_0_014AF077
// 127   ----------------------------------------
 BYTE   PATT
  POIN2 Label_0_014AF090
// 128   ----------------------------------------
 BYTE   PATT
  POIN2 Label_0_014AEE37
// 129   ----------------------------------------
 BYTE   PATT
  POIN2 Label_0_014AED35
// 130   ----------------------------------------
 BYTE   PATT
  POIN2 Label_0_014AEE54
// 131   ----------------------------------------
 BYTE   PATT
  POIN2 Label_0_014AED35
// 132   ----------------------------------------
 BYTE   PATT
  POIN2 Label_0_014AEE54
// 133   ----------------------------------------
 BYTE   PATT
  POIN2 Label_0_014AEEF0
// 134   ----------------------------------------
 BYTE   PATT
  POIN2 Label_0_014AEF0E
// 135   ----------------------------------------
 BYTE   PATT
  POIN2 Label_0_014AEF2D
// 136   ----------------------------------------
 BYTE   PATT
  POIN2 Label_0_014AEF4C
// 137   ----------------------------------------
 BYTE   PATT
  POIN2 Label_0_014AED35
// 138   ----------------------------------------
 BYTE   PATT
  POIN2 Label_0_014AEE54
// 139   ----------------------------------------
 BYTE   PATT
  POIN2 Label_0_014AED35
// 140   ----------------------------------------
 BYTE   PATT
  POIN2 Label_0_014AEF73
// 141   ----------------------------------------
 BYTE   PATT
  POIN2 Label_0_014AEF8A
// 142   ----------------------------------------
 BYTE   PATT
  POIN2 Label_0_014AEFA1
// 143   ----------------------------------------
 BYTE   PATT
  POIN2 Label_0_014AEFBE
// 144   ----------------------------------------
 BYTE   GoTo
  POIN2 Label_0_014AECD8
// 145   ----------------------------------------
 BYTE   W96
// 146   ----------------------------------------
 BYTE   W96
// 147   ----------------------------------------
 BYTE   W96
// 148   ----------------------------------------
 BYTE   W96
// 149   ----------------------------------------
 BYTE   W96
// 150   ----------------------------------------
 BYTE   W96
// 151   ----------------------------------------
 BYTE   W96
// 152   ----------------------------------------
 BYTE   W96
// 153   ----------------------------------------
 BYTE   W96
// 154   ----------------------------------------
 BYTE   W96
// 155   ----------------------------------------
 BYTE   W96
// 156   ----------------------------------------
 BYTE   W96
// 157   ----------------------------------------
 BYTE   W96
// 158   ----------------------------------------
 BYTE   W96
// 159   ----------------------------------------
 BYTE   W96
// 160   ----------------------------------------
 BYTE   W96
// 161   ----------------------------------------
 BYTE   TEMPO   230*GuiltyGearXMilliaRagesThemeMeatOfJustice_tbs/2
 BYTE   W96
// 162   ----------------------------------------
 BYTE   TEMPO   200*GuiltyGearXMilliaRagesThemeMeatOfJustice_tbs/2
 BYTE   W96
// 163   ----------------------------------------
 BYTE   TEMPO   170*GuiltyGearXMilliaRagesThemeMeatOfJustice_tbs/2
 BYTE   W96
// 164   ----------------------------------------
 BYTE   TEMPO   140*GuiltyGearXMilliaRagesThemeMeatOfJustice_tbs/2
 BYTE   W48
 BYTE   TEMPO   100*GuiltyGearXMilliaRagesThemeMeatOfJustice_tbs/2
 BYTE   W24
 BYTE   TEMPO   64*GuiltyGearXMilliaRagesThemeMeatOfJustice_tbs/2
 BYTE   W24
// 165   ----------------------------------------
 BYTE   TEMPO   130*GuiltyGearXMilliaRagesThemeMeatOfJustice_tbs/2
 BYTE   W96
// 166   ----------------------------------------
 BYTE   W23
 BYTE   FINE

//**************** Track 2 (Midi-Chn.1) ****************//

GuiltyGearXMilliaRagesThemeMeatOfJustice_002:
// 000   ----------------------------------------
 BYTE   KEYSH   GuiltyGearXMilliaRagesThemeMeatOfJustice_key+0
 BYTE   VOICE   6
 BYTE   PAN   c_v-30
 BYTE   VOL   40*GuiltyGearXMilliaRagesThemeMeatOfJustice_mvl/mxv
 BYTE   N11  Bn2  v092
 BYTE   W12
 BYTE   Gn2
 BYTE   W12
 BYTE   En2
 BYTE   W12
 BYTE   Gn2
 BYTE   W12
 BYTE   Fs2
 BYTE   W12
 BYTE   Gn2
 BYTE   W12
 BYTE   En2
 BYTE   W12
 BYTE   Gn2
 BYTE   W12
// 001   ----------------------------------------
Label_1_014AD822:
 BYTE   N11  Cn3  v092
 BYTE   W12
 BYTE   An2
 BYTE   W12
 BYTE   Gn2
 BYTE   W12
 BYTE   An2
 BYTE   W12
 BYTE   Gs2
 BYTE   W12
 BYTE   An2
 BYTE   W12
 BYTE   Gn2
 BYTE   W12
 BYTE   An2
 BYTE   W12
 BYTE   PEND 
// 002   ----------------------------------------
Label_1_014AD835:
 BYTE   N11  En3  v092
 BYTE   W12
 BYTE   Cn3
 BYTE   W12
 BYTE   An2
 BYTE   W12
 BYTE   Cn3
 BYTE   W12
 BYTE   Bn2
 BYTE   W12
 BYTE   Cn3
 BYTE   W12
 BYTE   Bn2
 BYTE   W12
 BYTE   Cn3
 BYTE   W12
 BYTE   PEND 
// 003   ----------------------------------------
Label_1_014AD848:
 BYTE   N11  En3  v092
 BYTE   W12
 BYTE   Cn3
 BYTE   W12
 BYTE   En2
 BYTE   W12
 BYTE   Gn2
 BYTE   W12
 BYTE   Fs2
 BYTE   W12
 BYTE   Gn2
 BYTE   W12
 BYTE   Fs2
 BYTE   W12
 BYTE   Gn2
 BYTE   W12
 BYTE   PEND 
// 004   ----------------------------------------
Label_1_014AD85B:
 BYTE   N11  Cn3  v092
 BYTE   W12
 BYTE   An2
 BYTE   W12
 BYTE   Fs2
 BYTE   W12
 BYTE   An2
 BYTE   W12
 BYTE   Ds2
 BYTE   W12
 BYTE   An2
 BYTE   W12
 BYTE   Gn2
 BYTE   W12
 BYTE   An2
 BYTE   W12
 BYTE   PEND 
// 005   ----------------------------------------
 BYTE   PATT
  POIN2 Label_1_014AD85B
// 006   ----------------------------------------
Label_1_014AD873:
 BYTE   N11  En3  v092
 BYTE   W12
 BYTE   Bn2
 BYTE   W12
 BYTE   An2
 BYTE   W12
 BYTE   Bn2
 BYTE   W12
 BYTE   En2
 BYTE   W12
 BYTE   Bn2
 BYTE   W12
 BYTE   En2
 BYTE   W12
 BYTE   Bn2
 BYTE   W12
 BYTE   PEND 
// 007   ----------------------------------------
Label_1_014AD886:
 BYTE   N11  En3  v092
 BYTE   W12
 BYTE   Bn2
 BYTE   W12
 BYTE   An2
 BYTE   W12
 BYTE   Bn2
 BYTE   W12
 BYTE   En2
 BYTE   W12
 BYTE   Bn2
 BYTE   W12
 BYTE   N23  En2
 BYTE   W24
 BYTE   PEND 
// 008   ----------------------------------------
Label_1_014AD898:
 BYTE   N11  Bn2  v092
 BYTE   W12
 BYTE   Gn2
 BYTE   W12
 BYTE   En2
 BYTE   W12
 BYTE   Gn2
 BYTE   W12
 BYTE   Fs2
 BYTE   W12
 BYTE   Gn2
 BYTE   W12
 BYTE   En2
 BYTE   W12
 BYTE   Gn2
 BYTE   W12
// 009   ----------------------------------------
 BYTE   PATT
  POIN2 Label_1_014AD822
// 010   ----------------------------------------
 BYTE   PATT
  POIN2 Label_1_014AD835
// 011   ----------------------------------------
 BYTE   PATT
  POIN2 Label_1_014AD848
// 012   ----------------------------------------
 BYTE   PATT
  POIN2 Label_1_014AD85B
// 013   ----------------------------------------
 BYTE   PATT
  POIN2 Label_1_014AD85B
// 014   ----------------------------------------
 BYTE   PATT
  POIN2 Label_1_014AD873
// 015   ----------------------------------------
 BYTE   PATT
  POIN2 Label_1_014AD886
// 016   ----------------------------------------
 BYTE   N11  En3  v092
 BYTE   W12
 BYTE   Bn2
 BYTE   W12
 BYTE   En2
 BYTE   W12
 BYTE   Gn2
 BYTE   W12
 BYTE   Fs2
 BYTE   W12
 BYTE   Gn2
 BYTE   W12
 BYTE   Fs2
 BYTE   W12
 BYTE   Gn2
 BYTE   W12
// 017   ----------------------------------------
Label_1_014AD8DF:
 BYTE   N11  Cn3  v092
 BYTE   W12
 BYTE   An2
 BYTE   W12
 BYTE   Fs2
 BYTE   W12
 BYTE   An2
 BYTE   W12
 BYTE   Gs2
 BYTE   W12
 BYTE   An2
 BYTE   W12
 BYTE   Gs2
 BYTE   W12
 BYTE   An2
 BYTE   W12
 BYTE   PEND 
// 018   ----------------------------------------
Label_1_014AD8F2:
 BYTE   N11  Ds3  v092
 BYTE   W12
 BYTE   Cn3
 BYTE   W12
 BYTE   An2
 BYTE   W12
 BYTE   Cn3
 BYTE   W12
 BYTE   Bn2
 BYTE   W12
 BYTE   Cn3
 BYTE   W12
 BYTE   Bn2
 BYTE   W12
 BYTE   Cn3
 BYTE   W12
 BYTE   PEND 
// 019   ----------------------------------------
Label_1_014AD905:
 BYTE   N11  En3  v092
 BYTE   W12
 BYTE   Gn2
 BYTE   W12
 BYTE   En2
 BYTE   W12
 BYTE   Gn2
 BYTE   W12
 BYTE   Fs2
 BYTE   W12
 BYTE   Gn2
 BYTE   W12
 BYTE   Fs2
 BYTE   W12
 BYTE   Gn2
 BYTE   W12
 BYTE   PEND 
// 020   ----------------------------------------
 BYTE   Gn3
 BYTE   W12
 BYTE   Gn2
 BYTE   W12
 BYTE   En2
 BYTE   W12
 BYTE   Gn2
 BYTE   W12
 BYTE   Fs2
 BYTE   W12
 BYTE   Gn2
 BYTE   W12
 BYTE   Fs2
 BYTE   W12
 BYTE   Gn2
 BYTE   W12
// 021   ----------------------------------------
 BYTE   PATT
  POIN2 Label_1_014AD8DF
// 022   ----------------------------------------
 BYTE   PATT
  POIN2 Label_1_014AD8F2
// 023   ----------------------------------------
 BYTE   PATT
  POIN2 Label_1_014AD905
// 024   ----------------------------------------
Label_1_014AD937:
 BYTE   N11  Cn3  v092
 BYTE   W12
 BYTE   Gn2
 BYTE   W12
 BYTE   En2
 BYTE   W12
 BYTE   Gn2
 BYTE   W12
 BYTE   Fs2
 BYTE   W12
 BYTE   Gn2
 BYTE   W12
 BYTE   Fs2
 BYTE   W12
 BYTE   Gn2
 BYTE   W12
 BYTE   PEND 
// 025   ----------------------------------------
 BYTE   PATT
  POIN2 Label_1_014AD937
// 026   ----------------------------------------
 BYTE   N11  En3  v092
 BYTE   W12
 BYTE   An2
 BYTE   W12
 BYTE   Fs2
 BYTE   W12
 BYTE   An2
 BYTE   W12
 BYTE   Gs2
 BYTE   W12
 BYTE   An2
 BYTE   W12
 BYTE   Gs2
 BYTE   W12
 BYTE   An2
 BYTE   W12
// 027   ----------------------------------------
 BYTE   En3
 BYTE   W12
 BYTE   An2
 BYTE   W12
 BYTE   Fs2
 BYTE   W12
 BYTE   An2
 BYTE   W12
 BYTE   Fs2
 BYTE   W12
 BYTE   An2
 BYTE   W12
 BYTE   N23  En2
 BYTE   W24
// 028   ----------------------------------------
 BYTE   W96
// 029   ----------------------------------------
 BYTE   W96
// 030   ----------------------------------------
 BYTE   W96
// 031   ----------------------------------------
 BYTE   W96
// 032   ----------------------------------------
 BYTE   W96
// 033   ----------------------------------------
 BYTE   W96
// 034   ----------------------------------------
 BYTE   W96
// 035   ----------------------------------------
 BYTE   W96
// 036   ----------------------------------------
 BYTE   N11  Gn2
 BYTE   W12
 BYTE   An2
 BYTE   W12
 BYTE   Bn2
 BYTE   W12
 BYTE   En2
 BYTE   W12
 BYTE   An2
 BYTE   W12
 BYTE   Bn2
 BYTE   W12
 BYTE   Cn3
 BYTE   W12
 BYTE   En2
 BYTE   W12
// 037   ----------------------------------------
Label_1_014AD989:
 BYTE   N11  An2  v092
 BYTE   W12
 BYTE   Dn3
 BYTE   W12
 BYTE   En3
 BYTE   W12
 BYTE   Dn3
 BYTE   W12
 BYTE   Cn3
 BYTE   W12
 BYTE   Bn2
 BYTE   W12
 BYTE   An2
 BYTE   W12
 BYTE   Cn3
 BYTE   W12
 BYTE   PEND 
// 038   ----------------------------------------
Label_1_014AD99C:
 BYTE   N11  En3  v092
 BYTE   W12
 BYTE   En2
 BYTE   W12
 BYTE   Fs2
 BYTE   W12
 BYTE   En2
 BYTE   W12
 BYTE   Gn2
 BYTE   W12
 BYTE   En2
 BYTE   W12
 BYTE   Fs2
 BYTE   W12
 BYTE   En2
 BYTE   W12
 BYTE   PEND 
// 039   ----------------------------------------
Label_1_014AD9AF:
 BYTE   N11  En3  v092
 BYTE   W12
 BYTE   Fs3
 BYTE   W12
 BYTE   Gn3
 BYTE   W12
 BYTE   En3
 BYTE   W12
 BYTE   Ds3
 BYTE   W12
 BYTE   An3
 BYTE   W12
 BYTE   Gn3
 BYTE   W12
 BYTE   Fs3
 BYTE   W12
 BYTE   PEND 
// 040   ----------------------------------------
Label_1_014AD9C2:
 BYTE   N32  Gn3  v092
 BYTE   W36
 BYTE   An3
 BYTE   W36
 BYTE   Bn3
 BYTE   W24
 BYTE   PEND 
// 041   ----------------------------------------
Label_1_014AD9CB:
 BYTE   W12
 BYTE   N32  En3  v092
 BYTE   W36
 BYTE   N11  Cn4
 BYTE   W12
 BYTE   Bn3
 BYTE   W12
 BYTE   An3
 BYTE   W12
 BYTE   Gn3
 BYTE   W12
 BYTE   PEND 
// 042   ----------------------------------------
Label_1_014AD9DA:
 BYTE   N11  Fs3  v092
 BYTE   W12
 BYTE   Ds3
 BYTE   W12
 BYTE   En3
 BYTE   W12
 BYTE   Ds3
 BYTE   W12
 BYTE   Gn3
 BYTE   W12
 BYTE   Ds3
 BYTE   W12
 BYTE   En3
 BYTE   W12
 BYTE   Ds3
 BYTE   W12
 BYTE   PEND 
// 043   ----------------------------------------
 BYTE   N23  Gn3
 BYTE   W24
 BYTE   N11  En3
 BYTE   W12
 BYTE   Gn3
 BYTE   W12
 BYTE   An3
 BYTE   W12
 BYTE   Cn4
 BYTE   W12
 BYTE   Bn3
 BYTE   W12
 BYTE   An3
 BYTE   W12
// 044   ----------------------------------------
 BYTE   N23  En3
 BYTE   W24
 BYTE   N11  Cn3
 BYTE   W12
 BYTE   Bn2
 BYTE   W12
 BYTE   An2
 BYTE   W12
 BYTE   Bn2
 BYTE   W12
 BYTE   Cn3
 BYTE   W12
 BYTE   En2
 BYTE   W12
// 045   ----------------------------------------
 BYTE   Bn2
 BYTE   W12
 BYTE   Ds3
 BYTE   W12
 BYTE   Fs3
 BYTE   W12
 BYTE   En3
 BYTE   W12
 BYTE   Ds3
 BYTE   W12
 BYTE   Cn3
 BYTE   W12
 BYTE   Bn2
 BYTE   W12
 BYTE   An2
 BYTE   W12
// 046   ----------------------------------------
 BYTE   Bn2
 BYTE   W12
 BYTE   En3
 BYTE   W12
 BYTE   Bn2
 BYTE   W12
 BYTE   N11
 BYTE   W12
 BYTE   Fs3
 BYTE   W12
 BYTE   Bn2
 BYTE   W12
 BYTE   N11
 BYTE   W12
 BYTE   N11
 BYTE   W12
// 047   ----------------------------------------
 BYTE   Gn3
 BYTE   W12
 BYTE   An3
 BYTE   W12
 BYTE   Bn3
 BYTE   W12
 BYTE   En3
 BYTE   W12
 BYTE   Bn3
 BYTE   W12
 BYTE   An3
 BYTE   W12
 BYTE   Gn3
 BYTE   W12
 BYTE   Fs3
 BYTE   W12
// 048   ----------------------------------------
 BYTE   PATT
  POIN2 Label_1_014AD9C2
// 049   ----------------------------------------
 BYTE   W12
 BYTE   N32  Cn4  v092
 BYTE   W36
 BYTE   N11  En4
 BYTE   W12
 BYTE   Ds4
 BYTE   W12
 BYTE   En4
 BYTE   W12
 BYTE   Gn3
 BYTE   W12
// 050   ----------------------------------------
 BYTE   Fs3
 BYTE   W12
 BYTE   En4
 BYTE   W12
 BYTE   Ds4
 BYTE   W12
 BYTE   En4
 BYTE   W12
 BYTE   Gn3
 BYTE   W12
 BYTE   Fs4
 BYTE   W12
 BYTE   En4
 BYTE   W12
 BYTE   Fs4
 BYTE   W12
// 051   ----------------------------------------
 BYTE   An3
 BYTE   W12
 BYTE   Gn4
 BYTE   W12
 BYTE   Fs4
 BYTE   W12
 BYTE   Gn4
 BYTE   W12
 BYTE   Fs4
 BYTE   W12
 BYTE   En4
 BYTE   W12
 BYTE   N23  Ds4
 BYTE   W24
// 052   ----------------------------------------
 BYTE   W96
// 053   ----------------------------------------
 BYTE   W96
// 054   ----------------------------------------
 BYTE   W96
// 055   ----------------------------------------
 BYTE   W96
// 056   ----------------------------------------
Label_1_014ADA73:
 BYTE   VOL   28*GuiltyGearXMilliaRagesThemeMeatOfJustice_mvl/mxv
 BYTE   N11  Bn4  v092
 BYTE   W12
 BYTE   Gn4
 BYTE   W12
 BYTE   En4
 BYTE   W12
 BYTE   Gn4
 BYTE   W12
 BYTE   Fs4
 BYTE   W12
 BYTE   Gn4
 BYTE   W12
 BYTE   Fs4
 BYTE   W12
 BYTE   Gn4
 BYTE   W12
 BYTE   PEND 
// 057   ----------------------------------------
Label_1_014ADA88:
 BYTE   N11  Cn5  v092
 BYTE   W12
 BYTE   Gn4
 BYTE   W12
 BYTE   En4
 BYTE   W12
 BYTE   Gn4
 BYTE   W12
 BYTE   Fs4
 BYTE   W12
 BYTE   Gn4
 BYTE   W12
 BYTE   Fs4
 BYTE   W12
 BYTE   Gn4
 BYTE   W12
 BYTE   PEND 
// 058   ----------------------------------------
Label_1_014ADA9B:
 BYTE   N11  Cn5  v092
 BYTE   W12
 BYTE   An4
 BYTE   W12
 BYTE   Fs4
 BYTE   W12
 BYTE   An4
 BYTE   W12
 BYTE   Gn4
 BYTE   W12
 BYTE   An4
 BYTE   W12
 BYTE   Gn4
 BYTE   W12
 BYTE   An4
 BYTE   W12
 BYTE   PEND 
// 059   ----------------------------------------
Label_1_014ADAAE:
 BYTE   N11  Dn5  v092
 BYTE   W12
 BYTE   An4
 BYTE   W12
 BYTE   Fs4
 BYTE   W12
 BYTE   An4
 BYTE   W12
 BYTE   Gn4
 BYTE   W12
 BYTE   An4
 BYTE   W12
 BYTE   Gn4
 BYTE   W12
 BYTE   An4
 BYTE   W12
 BYTE   PEND 
// 060   ----------------------------------------
Label_1_014ADAC1:
 BYTE   N11  En5  v092
 BYTE   W12
 BYTE   Gn4
 BYTE   W12
 BYTE   En4
 BYTE   W12
 BYTE   Gn4
 BYTE   W12
 BYTE   Fs4
 BYTE   W12
 BYTE   Gn4
 BYTE   W12
 BYTE   Fs4
 BYTE   W12
 BYTE   Gn4
 BYTE   W12
 BYTE   PEND 
// 061   ----------------------------------------
 BYTE   PATT
  POIN2 Label_1_014ADAC1
// 062   ----------------------------------------
Label_1_014ADAD9:
 BYTE   N11  Ds5  v092
 BYTE   W12
 BYTE   Fs4
 BYTE   W12
 BYTE   Ds4
 BYTE   W12
 BYTE   Fs4
 BYTE   W12
 BYTE   En4
 BYTE   W12
 BYTE   Fs4
 BYTE   W12
 BYTE   En4
 BYTE   W12
 BYTE   Fs4
 BYTE   W12
 BYTE   PEND 
// 063   ----------------------------------------
 BYTE   PATT
  POIN2 Label_1_014ADAD9
// 064   ----------------------------------------
Label_1_014ADAF1:
 BYTE   N11  Bn4  v092
 BYTE   W12
 BYTE   Gn4
 BYTE   W12
 BYTE   En4
 BYTE   W12
 BYTE   Gn4
 BYTE   W12
 BYTE   Fs4
 BYTE   W12
 BYTE   Gn4
 BYTE   W12
 BYTE   Fs4
 BYTE   W12
 BYTE   Gn4
 BYTE   W12
 BYTE   PEND 
// 065   ----------------------------------------
 BYTE   PATT
  POIN2 Label_1_014ADA88
// 066   ----------------------------------------
 BYTE   PATT
  POIN2 Label_1_014ADA9B
// 067   ----------------------------------------
 BYTE   PATT
  POIN2 Label_1_014ADAAE
// 068   ----------------------------------------
 BYTE   PATT
  POIN2 Label_1_014ADAC1
// 069   ----------------------------------------
 BYTE   PATT
  POIN2 Label_1_014ADAC1
// 070   ----------------------------------------
 BYTE   PATT
  POIN2 Label_1_014ADAD9
// 071   ----------------------------------------
 BYTE   PATT
  POIN2 Label_1_014ADAD9
// 072   ----------------------------------------
 BYTE   W96
// 073   ----------------------------------------
 BYTE   W96
// 074   ----------------------------------------
 BYTE   W96
// 075   ----------------------------------------
 BYTE   W96
// 076   ----------------------------------------
 BYTE   W96
// 077   ----------------------------------------
 BYTE   W96
// 078   ----------------------------------------
 BYTE   W96
// 079   ----------------------------------------
 BYTE   W96
// 080   ----------------------------------------
 BYTE   W96
// 081   ----------------------------------------
 BYTE   W96
// 082   ----------------------------------------
 BYTE   W96
// 083   ----------------------------------------
 BYTE   W96
// 084   ----------------------------------------
 BYTE   W96
// 085   ----------------------------------------
 BYTE   W96
// 086   ----------------------------------------
 BYTE   W96
// 087   ----------------------------------------
 BYTE   W96
// 088   ----------------------------------------
Label_1_014ADB37:
 BYTE   VOL   40*GuiltyGearXMilliaRagesThemeMeatOfJustice_mvl/mxv
 BYTE   N11  Gn2  v092
 BYTE   W12
 BYTE   An2
 BYTE   W12
 BYTE   Bn2
 BYTE   W12
 BYTE   En2
 BYTE   W12
 BYTE   An2
 BYTE   W12
 BYTE   Bn2
 BYTE   W12
 BYTE   Cn3
 BYTE   W12
 BYTE   En2
 BYTE   W12
 BYTE   PEND 
// 089   ----------------------------------------
 BYTE   PATT
  POIN2 Label_1_014AD989
// 090   ----------------------------------------
 BYTE   PATT
  POIN2 Label_1_014AD99C
// 091   ----------------------------------------
 BYTE   PATT
  POIN2 Label_1_014AD9AF
// 092   ----------------------------------------
 BYTE   PATT
  POIN2 Label_1_014AD9C2
// 093   ----------------------------------------
 BYTE   PATT
  POIN2 Label_1_014AD9CB
// 094   ----------------------------------------
 BYTE   PATT
  POIN2 Label_1_014AD9DA
// 095   ----------------------------------------
Label_1_014ADB6A:
 BYTE   N11  Gn3  v092
 BYTE   W12
 BYTE   Ds3
 BYTE   W12
 BYTE   En3
 BYTE   W12
 BYTE   Gn3
 BYTE   W12
 BYTE   An3
 BYTE   W12
 BYTE   Cn4
 BYTE   W12
 BYTE   Bn3
 BYTE   W12
 BYTE   An3
 BYTE   W12
 BYTE   PEND 
// 096   ----------------------------------------
 BYTE   PATT
  POIN2 Label_1_014ADA73
// 097   ----------------------------------------
 BYTE   PATT
  POIN2 Label_1_014ADA88
// 098   ----------------------------------------
 BYTE   PATT
  POIN2 Label_1_014ADA9B
// 099   ----------------------------------------
 BYTE   PATT
  POIN2 Label_1_014ADAAE
// 100   ----------------------------------------
 BYTE   PATT
  POIN2 Label_1_014ADAC1
// 101   ----------------------------------------
 BYTE   PATT
  POIN2 Label_1_014ADAC1
// 102   ----------------------------------------
 BYTE   PATT
  POIN2 Label_1_014ADAD9
// 103   ----------------------------------------
 BYTE   PATT
  POIN2 Label_1_014ADAD9
// 104   ----------------------------------------
 BYTE   PATT
  POIN2 Label_1_014ADAF1
// 105   ----------------------------------------
 BYTE   PATT
  POIN2 Label_1_014ADA88
// 106   ----------------------------------------
 BYTE   PATT
  POIN2 Label_1_014ADA9B
// 107   ----------------------------------------
 BYTE   PATT
  POIN2 Label_1_014ADAAE
// 108   ----------------------------------------
 BYTE   PATT
  POIN2 Label_1_014ADAC1
// 109   ----------------------------------------
 BYTE   PATT
  POIN2 Label_1_014ADAC1
// 110   ----------------------------------------
 BYTE   PATT
  POIN2 Label_1_014ADAD9
// 111   ----------------------------------------
 BYTE   PATT
  POIN2 Label_1_014ADAD9
// 112   ----------------------------------------
 BYTE   W96
// 113   ----------------------------------------
 BYTE   W96
// 114   ----------------------------------------
 BYTE   W96
// 115   ----------------------------------------
 BYTE   W96
// 116   ----------------------------------------
 BYTE   W96
// 117   ----------------------------------------
 BYTE   W96
// 118   ----------------------------------------
 BYTE   W96
// 119   ----------------------------------------
 BYTE   W96
// 120   ----------------------------------------
 BYTE   PATT
  POIN2 Label_1_014ADB37
// 121   ----------------------------------------
 BYTE   PATT
  POIN2 Label_1_014AD989
// 122   ----------------------------------------
 BYTE   PATT
  POIN2 Label_1_014AD99C
// 123   ----------------------------------------
 BYTE   PATT
  POIN2 Label_1_014AD9AF
// 124   ----------------------------------------
 BYTE   PATT
  POIN2 Label_1_014AD9C2
// 125   ----------------------------------------
 BYTE   PATT
  POIN2 Label_1_014AD9CB
// 126   ----------------------------------------
 BYTE   PATT
  POIN2 Label_1_014AD9DA
// 127   ----------------------------------------
 BYTE   PATT
  POIN2 Label_1_014ADB6A
// 128   ----------------------------------------
 BYTE   PATT
  POIN2 Label_1_014ADA73
// 129   ----------------------------------------
 BYTE   PATT
  POIN2 Label_1_014ADA88
// 130   ----------------------------------------
 BYTE   PATT
  POIN2 Label_1_014ADA9B
// 131   ----------------------------------------
 BYTE   PATT
  POIN2 Label_1_014ADAAE
// 132   ----------------------------------------
 BYTE   PATT
  POIN2 Label_1_014ADAC1
// 133   ----------------------------------------
 BYTE   PATT
  POIN2 Label_1_014ADAC1
// 134   ----------------------------------------
 BYTE   PATT
  POIN2 Label_1_014ADAD9
// 135   ----------------------------------------
 BYTE   PATT
  POIN2 Label_1_014ADAD9
// 136   ----------------------------------------
 BYTE   PATT
  POIN2 Label_1_014ADAF1
// 137   ----------------------------------------
 BYTE   PATT
  POIN2 Label_1_014ADA88
// 138   ----------------------------------------
 BYTE   PATT
  POIN2 Label_1_014ADA9B
// 139   ----------------------------------------
 BYTE   PATT
  POIN2 Label_1_014ADAAE
// 140   ----------------------------------------
 BYTE   PATT
  POIN2 Label_1_014ADAC1
// 141   ----------------------------------------
 BYTE   PATT
  POIN2 Label_1_014ADAC1
// 142   ----------------------------------------
 BYTE   PATT
  POIN2 Label_1_014ADAD9
// 143   ----------------------------------------
 BYTE   PATT
  POIN2 Label_1_014ADAD9
// 144   ----------------------------------------
 BYTE   GoTo
  POIN2 Label_1_014AD898
// 145   ----------------------------------------
Label_1_014ADC52:
 BYTE   VOL   40*GuiltyGearXMilliaRagesThemeMeatOfJustice_mvl/mxv
 BYTE   N11  Bn2  v092
 BYTE   W12
 BYTE   Gn2
 BYTE   W12
 BYTE   En2
 BYTE   W12
 BYTE   Gn2
 BYTE   W12
 BYTE   Fs2
 BYTE   W12
 BYTE   Gn2
 BYTE   W12
 BYTE   En2
 BYTE   W12
 BYTE   Gn2
 BYTE   W12
 BYTE   PEND 
// 146   ----------------------------------------
 BYTE   PATT
  POIN2 Label_1_014AD822
// 147   ----------------------------------------
 BYTE   PATT
  POIN2 Label_1_014AD835
// 148   ----------------------------------------
 BYTE   PATT
  POIN2 Label_1_014AD848
// 149   ----------------------------------------
 BYTE   PATT
  POIN2 Label_1_014AD85B
// 150   ----------------------------------------
 BYTE   PATT
  POIN2 Label_1_014AD85B
// 151   ----------------------------------------
 BYTE   PATT
  POIN2 Label_1_014AD873
// 152   ----------------------------------------
 BYTE   PATT
  POIN2 Label_1_014AD886
// 153   ----------------------------------------
 BYTE   PATT
  POIN2 Label_1_014ADC52
// 154   ----------------------------------------
 BYTE   PATT
  POIN2 Label_1_014AD822
// 155   ----------------------------------------
 BYTE   PATT
  POIN2 Label_1_014AD835
// 156   ----------------------------------------
 BYTE   PATT
  POIN2 Label_1_014AD848
// 157   ----------------------------------------
 BYTE   PATT
  POIN2 Label_1_014AD85B
// 158   ----------------------------------------
 BYTE   PATT
  POIN2 Label_1_014AD85B
// 159   ----------------------------------------
 BYTE   PATT
  POIN2 Label_1_014AD873
// 160   ----------------------------------------
 BYTE   PATT
  POIN2 Label_1_014AD886
// 161   ----------------------------------------
 BYTE   PATT
  POIN2 Label_1_014ADC52
// 162   ----------------------------------------
 BYTE   PATT
  POIN2 Label_1_014AD822
// 163   ----------------------------------------
 BYTE   PATT
  POIN2 Label_1_014AD835
// 164   ----------------------------------------
 BYTE   N11  En3  v092
 BYTE   W12
 BYTE   Cn3
 BYTE   W12
 BYTE   En2
 BYTE   W12
 BYTE   Gn2
 BYTE   W12
 BYTE   Fs2
 BYTE   W12
 BYTE   Gn2
 BYTE   W12
 BYTE   Fs2
 BYTE   W12
 BYTE   Ds2
 BYTE   W12
// 165   ----------------------------------------
 BYTE   TIE  En1
 BYTE   W03
 BYTE   N11  An1
 BYTE   W03
 BYTE   Cn2
 BYTE   W03
 BYTE   En2
 BYTE   W03
 BYTE   N92  An2
 BYTE   W84
// 166   ----------------------------------------
 BYTE   W23
 BYTE   EOT
 BYTE   En1
 BYTE   FINE

//**************** Track 3 (Midi-Chn.2) ****************//

GuiltyGearXMilliaRagesThemeMeatOfJustice_003:
// 000   ----------------------------------------
 BYTE   KEYSH   GuiltyGearXMilliaRagesThemeMeatOfJustice_key+0
 BYTE   VOICE   0
 BYTE   PAN   c_v+30
 BYTE   VOL   45*GuiltyGearXMilliaRagesThemeMeatOfJustice_mvl/mxv
 BYTE   W96
// 001   ----------------------------------------
 BYTE   W96
// 002   ----------------------------------------
 BYTE   W96
// 003   ----------------------------------------
 BYTE   W96
// 004   ----------------------------------------
 BYTE   W96
// 005   ----------------------------------------
 BYTE   W96
// 006   ----------------------------------------
 BYTE   W96
// 007   ----------------------------------------
 BYTE   W96
// 008   ----------------------------------------
Label_2_01023BE4:
 BYTE   N11  Bn3  v092
 BYTE   W12
 BYTE   Gn3
 BYTE   W12
 BYTE   En3
 BYTE   W12
 BYTE   Gn3
 BYTE   W12
 BYTE   Fs3
 BYTE   W12
 BYTE   Gn3
 BYTE   W12
 BYTE   En3
 BYTE   W12
 BYTE   Gn3
 BYTE   W12
// 009   ----------------------------------------
 BYTE   Cn4
 BYTE   W12
 BYTE   An3
 BYTE   W12
 BYTE   Gn3
 BYTE   W12
 BYTE   An3
 BYTE   W12
 BYTE   Gs3
 BYTE   W12
 BYTE   An3
 BYTE   W12
 BYTE   Gn3
 BYTE   W12
 BYTE   An3
 BYTE   W12
// 010   ----------------------------------------
 BYTE   En4
 BYTE   W12
 BYTE   Cn4
 BYTE   W12
 BYTE   An3
 BYTE   W12
 BYTE   Cn4
 BYTE   W12
 BYTE   Bn3
 BYTE   W12
 BYTE   Cn4
 BYTE   W12
 BYTE   Bn3
 BYTE   W12
 BYTE   Cn4
 BYTE   W12
// 011   ----------------------------------------
 BYTE   En4
 BYTE   W12
 BYTE   Cn4
 BYTE   W12
 BYTE   En3
 BYTE   W12
 BYTE   Gn3
 BYTE   W12
 BYTE   Fs3
 BYTE   W12
 BYTE   Gn3
 BYTE   W12
 BYTE   Fs3
 BYTE   W12
 BYTE   Gn3
 BYTE   W12
// 012   ----------------------------------------
Label_2_01023C26:
 BYTE   N11  Cn4  v092
 BYTE   W12
 BYTE   An3
 BYTE   W12
 BYTE   Fs3
 BYTE   W12
 BYTE   An3
 BYTE   W12
 BYTE   Ds3
 BYTE   W12
 BYTE   An3
 BYTE   W12
 BYTE   Gn3
 BYTE   W12
 BYTE   An3
 BYTE   W12
 BYTE   PEND 
// 013   ----------------------------------------
 BYTE   PATT
  POIN2 Label_2_01023C26
// 014   ----------------------------------------
 BYTE   N11  En4  v092
 BYTE   W12
 BYTE   Bn3
 BYTE   W12
 BYTE   An3
 BYTE   W12
 BYTE   Bn3
 BYTE   W12
 BYTE   En3
 BYTE   W12
 BYTE   Bn3
 BYTE   W12
 BYTE   En3
 BYTE   W12
 BYTE   Bn3
 BYTE   W12
// 015   ----------------------------------------
 BYTE   En4
 BYTE   W12
 BYTE   Bn3
 BYTE   W12
 BYTE   An3
 BYTE   W12
 BYTE   Bn3
 BYTE   W12
 BYTE   En3
 BYTE   W12
 BYTE   Bn3
 BYTE   W12
 BYTE   N23  En3
 BYTE   W24
// 016   ----------------------------------------
 BYTE   N11  En4
 BYTE   W12
 BYTE   Bn3
 BYTE   W12
 BYTE   En3
 BYTE   W12
 BYTE   Gn3
 BYTE   W12
 BYTE   Fs3
 BYTE   W12
 BYTE   Gn3
 BYTE   W12
 BYTE   Fs3
 BYTE   W12
 BYTE   Gn3
 BYTE   W12
// 017   ----------------------------------------
Label_2_01023C70:
 BYTE   N11  Cn4  v092
 BYTE   W12
 BYTE   An3
 BYTE   W12
 BYTE   Fs3
 BYTE   W12
 BYTE   An3
 BYTE   W12
 BYTE   Gs3
 BYTE   W12
 BYTE   An3
 BYTE   W12
 BYTE   Gs3
 BYTE   W12
 BYTE   An3
 BYTE   W12
 BYTE   PEND 
// 018   ----------------------------------------
Label_2_01023C83:
 BYTE   N11  Ds4  v092
 BYTE   W12
 BYTE   Cn4
 BYTE   W12
 BYTE   An3
 BYTE   W12
 BYTE   Cn4
 BYTE   W12
 BYTE   Bn3
 BYTE   W12
 BYTE   Cn4
 BYTE   W12
 BYTE   Bn3
 BYTE   W12
 BYTE   Cn4
 BYTE   W12
 BYTE   PEND 
// 019   ----------------------------------------
Label_2_01023C96:
 BYTE   N11  En4  v092
 BYTE   W12
 BYTE   Gn3
 BYTE   W12
 BYTE   En3
 BYTE   W12
 BYTE   Gn3
 BYTE   W12
 BYTE   Fs3
 BYTE   W12
 BYTE   Gn3
 BYTE   W12
 BYTE   Fs3
 BYTE   W12
 BYTE   Gn3
 BYTE   W12
 BYTE   PEND 
// 020   ----------------------------------------
 BYTE   Gn4
 BYTE   W12
 BYTE   Gn3
 BYTE   W12
 BYTE   En3
 BYTE   W12
 BYTE   Gn3
 BYTE   W12
 BYTE   Fs3
 BYTE   W12
 BYTE   Gn3
 BYTE   W12
 BYTE   Fs3
 BYTE   W12
 BYTE   Gn3
 BYTE   W12
// 021   ----------------------------------------
 BYTE   PATT
  POIN2 Label_2_01023C70
// 022   ----------------------------------------
 BYTE   PATT
  POIN2 Label_2_01023C83
// 023   ----------------------------------------
 BYTE   PATT
  POIN2 Label_2_01023C96
// 024   ----------------------------------------
Label_2_01023CC8:
 BYTE   N11  Cn4  v092
 BYTE   W12
 BYTE   Gn3
 BYTE   W12
 BYTE   En3
 BYTE   W12
 BYTE   Gn3
 BYTE   W12
 BYTE   Fs3
 BYTE   W12
 BYTE   Gn3
 BYTE   W12
 BYTE   Fs3
 BYTE   W12
 BYTE   Gn3
 BYTE   W12
 BYTE   PEND 
// 025   ----------------------------------------
 BYTE   PATT
  POIN2 Label_2_01023CC8
// 026   ----------------------------------------
 BYTE   N11  En4  v092
 BYTE   W12
 BYTE   An3
 BYTE   W12
 BYTE   Fs3
 BYTE   W12
 BYTE   An3
 BYTE   W12
 BYTE   Gs3
 BYTE   W12
 BYTE   An3
 BYTE   W12
 BYTE   Gs3
 BYTE   W12
 BYTE   An3
 BYTE   W12
// 027   ----------------------------------------
 BYTE   En4
 BYTE   W12
 BYTE   An3
 BYTE   W12
 BYTE   Fs3
 BYTE   W12
 BYTE   An3
 BYTE   W12
 BYTE   Fs3
 BYTE   W12
 BYTE   An3
 BYTE   W12
 BYTE   N23  En3
 BYTE   W24
// 028   ----------------------------------------
 BYTE   W96
// 029   ----------------------------------------
 BYTE   W96
// 030   ----------------------------------------
 BYTE   W96
// 031   ----------------------------------------
 BYTE   W96
// 032   ----------------------------------------
 BYTE   W96
// 033   ----------------------------------------
 BYTE   W96
// 034   ----------------------------------------
 BYTE   W96
// 035   ----------------------------------------
 BYTE   W96
// 036   ----------------------------------------
 BYTE   W96
// 037   ----------------------------------------
 BYTE   W96
// 038   ----------------------------------------
 BYTE   W96
// 039   ----------------------------------------
 BYTE   W96
// 040   ----------------------------------------
 BYTE   W96
// 041   ----------------------------------------
 BYTE   W96
// 042   ----------------------------------------
 BYTE   W96
// 043   ----------------------------------------
 BYTE   W96
// 044   ----------------------------------------
 BYTE   W96
// 045   ----------------------------------------
 BYTE   W96
// 046   ----------------------------------------
 BYTE   W96
// 047   ----------------------------------------
 BYTE   W96
// 048   ----------------------------------------
 BYTE   W96
// 049   ----------------------------------------
 BYTE   W96
// 050   ----------------------------------------
 BYTE   W96
// 051   ----------------------------------------
 BYTE   W96
// 052   ----------------------------------------
 BYTE   N11  Gn3
 BYTE   W12
 BYTE   En3
 BYTE   W12
 BYTE   Cn3
 BYTE   W12
 BYTE   En3
 BYTE   W12
 BYTE   Gn3
 BYTE   W12
 BYTE   Fs3
 BYTE   W12
 BYTE   Gn3
 BYTE   W12
 BYTE   Cn3
 BYTE   W12
// 053   ----------------------------------------
 BYTE   An3
 BYTE   W12
 BYTE   Fs3
 BYTE   W12
 BYTE   Dn3
 BYTE   W12
 BYTE   Fs3
 BYTE   W12
 BYTE   An3
 BYTE   W12
 BYTE   Gn3
 BYTE   W12
 BYTE   An3
 BYTE   W12
 BYTE   Fs3
 BYTE   W12
// 054   ----------------------------------------
 BYTE   Bn3
 BYTE   W12
 BYTE   Bn2
 BYTE   W12
 BYTE   Ds3
 BYTE   W12
 BYTE   Fs3
 BYTE   W12
 BYTE   Cn4
 BYTE   W12
 BYTE   Bn3
 BYTE   W12
 BYTE   An3
 BYTE   W12
 BYTE   Gn3
 BYTE   W12
// 055   ----------------------------------------
 BYTE   Fs3
 BYTE   W12
 BYTE   An2
 BYTE   W12
 BYTE   Gn3
 BYTE   W12
 BYTE   An2
 BYTE   W12
 BYTE   An3
 BYTE   W12
 BYTE   An2
 BYTE   W12
 BYTE   Fs3
 BYTE   W12
 BYTE   An2
 BYTE   W12
// 056   ----------------------------------------
 BYTE   W96
// 057   ----------------------------------------
 BYTE   W96
// 058   ----------------------------------------
 BYTE   W96
// 059   ----------------------------------------
 BYTE   W96
// 060   ----------------------------------------
 BYTE   W96
// 061   ----------------------------------------
 BYTE   W96
// 062   ----------------------------------------
 BYTE   W96
// 063   ----------------------------------------
 BYTE   W96
// 064   ----------------------------------------
 BYTE   W96
// 065   ----------------------------------------
 BYTE   W96
// 066   ----------------------------------------
 BYTE   W96
// 067   ----------------------------------------
 BYTE   W96
// 068   ----------------------------------------
 BYTE   W96
// 069   ----------------------------------------
 BYTE   W96
// 070   ----------------------------------------
 BYTE   W96
// 071   ----------------------------------------
 BYTE   W96
// 072   ----------------------------------------
 BYTE   W96
// 073   ----------------------------------------
 BYTE   W96
// 074   ----------------------------------------
 BYTE   W96
// 075   ----------------------------------------
 BYTE   W96
// 076   ----------------------------------------
 BYTE   W96
// 077   ----------------------------------------
 BYTE   W96
// 078   ----------------------------------------
 BYTE   W96
// 079   ----------------------------------------
 BYTE   W96
// 080   ----------------------------------------
 BYTE   W96
// 081   ----------------------------------------
 BYTE   W96
// 082   ----------------------------------------
 BYTE   W96
// 083   ----------------------------------------
 BYTE   W96
// 084   ----------------------------------------
 BYTE   W96
// 085   ----------------------------------------
 BYTE   W96
// 086   ----------------------------------------
 BYTE   W96
// 087   ----------------------------------------
 BYTE   W96
// 088   ----------------------------------------
 BYTE   W96
// 089   ----------------------------------------
 BYTE   W96
// 090   ----------------------------------------
 BYTE   W96
// 091   ----------------------------------------
 BYTE   W96
// 092   ----------------------------------------
 BYTE   W96
// 093   ----------------------------------------
 BYTE   W96
// 094   ----------------------------------------
 BYTE   W96
// 095   ----------------------------------------
 BYTE   W96
// 096   ----------------------------------------
 BYTE   W96
// 097   ----------------------------------------
 BYTE   W96
// 098   ----------------------------------------
 BYTE   W96
// 099   ----------------------------------------
 BYTE   W96
// 100   ----------------------------------------
 BYTE   W96
// 101   ----------------------------------------
 BYTE   W96
// 102   ----------------------------------------
 BYTE   W96
// 103   ----------------------------------------
 BYTE   W96
// 104   ----------------------------------------
 BYTE   W96
// 105   ----------------------------------------
 BYTE   W96
// 106   ----------------------------------------
 BYTE   W96
// 107   ----------------------------------------
 BYTE   W96
// 108   ----------------------------------------
 BYTE   W96
// 109   ----------------------------------------
 BYTE   W96
// 110   ----------------------------------------
 BYTE   W96
// 111   ----------------------------------------
 BYTE   W96
// 112   ----------------------------------------
 BYTE   W96
// 113   ----------------------------------------
 BYTE   W96
// 114   ----------------------------------------
 BYTE   W96
// 115   ----------------------------------------
 BYTE   W96
// 116   ----------------------------------------
 BYTE   W96
// 117   ----------------------------------------
 BYTE   W96
// 118   ----------------------------------------
 BYTE   W96
// 119   ----------------------------------------
 BYTE   W96
// 120   ----------------------------------------
 BYTE   W96
// 121   ----------------------------------------
 BYTE   W96
// 122   ----------------------------------------
 BYTE   W96
// 123   ----------------------------------------
 BYTE   W96
// 124   ----------------------------------------
 BYTE   W96
// 125   ----------------------------------------
 BYTE   W96
// 126   ----------------------------------------
 BYTE   W96
// 127   ----------------------------------------
 BYTE   W96
// 128   ----------------------------------------
 BYTE   W96
// 129   ----------------------------------------
 BYTE   W96
// 130   ----------------------------------------
 BYTE   W96
// 131   ----------------------------------------
 BYTE   W96
// 132   ----------------------------------------
 BYTE   W96
// 133   ----------------------------------------
 BYTE   W96
// 134   ----------------------------------------
 BYTE   W96
// 135   ----------------------------------------
 BYTE   W96
// 136   ----------------------------------------
 BYTE   W96
// 137   ----------------------------------------
 BYTE   W96
// 138   ----------------------------------------
 BYTE   W96
// 139   ----------------------------------------
 BYTE   W96
// 140   ----------------------------------------
 BYTE   W96
// 141   ----------------------------------------
 BYTE   W96
// 142   ----------------------------------------
 BYTE   W96
// 143   ----------------------------------------
 BYTE   W96
// 144   ----------------------------------------
 BYTE   GoTo
  POIN2 Label_2_01023BE4
// 145   ----------------------------------------
 BYTE   W96
// 146   ----------------------------------------
 BYTE   W96
// 147   ----------------------------------------
 BYTE   W96
// 148   ----------------------------------------
 BYTE   W96
// 149   ----------------------------------------
 BYTE   W96
// 150   ----------------------------------------
 BYTE   W96
// 151   ----------------------------------------
 BYTE   W96
// 152   ----------------------------------------
 BYTE   W96
// 153   ----------------------------------------
 BYTE   W96
// 154   ----------------------------------------
 BYTE   W96
// 155   ----------------------------------------
 BYTE   W96
// 156   ----------------------------------------
 BYTE   W96
// 157   ----------------------------------------
 BYTE   W96
// 158   ----------------------------------------
 BYTE   W96
// 159   ----------------------------------------
 BYTE   W96
// 160   ----------------------------------------
 BYTE   W96
// 161   ----------------------------------------
 BYTE   W96
// 162   ----------------------------------------
 BYTE   W96
// 163   ----------------------------------------
 BYTE   W96
// 164   ----------------------------------------
 BYTE   W96
// 165   ----------------------------------------
 BYTE   W96
// 166   ----------------------------------------
 BYTE   W23
 BYTE   FINE

//**************** Track 4 (Midi-Chn.3) ****************//

GuiltyGearXMilliaRagesThemeMeatOfJustice_004:
// 000   ----------------------------------------
 BYTE   KEYSH   GuiltyGearXMilliaRagesThemeMeatOfJustice_key+0
 BYTE   VOICE   48
 BYTE   PAN   c_v-14
 BYTE   VOL   40*GuiltyGearXMilliaRagesThemeMeatOfJustice_mvl/mxv
 BYTE   N11  Gn2  v092
 BYTE   W48
 BYTE   Bn2
 BYTE   W48
// 001   ----------------------------------------
Label_3_0102330E:
 BYTE   N11  An2  v092
 BYTE   W48
 BYTE   Bn2
 BYTE   W48
 BYTE   PEND 
// 002   ----------------------------------------
Label_3_01023315:
 BYTE   N11  En2  v092
 BYTE   W48
 BYTE   Cn3
 BYTE   W48
 BYTE   PEND 
// 003   ----------------------------------------
Label_3_0102331C:
 BYTE   N11  Bn2  v092
 BYTE   W48
 BYTE   Cn3
 BYTE   W48
 BYTE   PEND 
// 004   ----------------------------------------
Label_3_01023323:
 BYTE   N11  Ds2  v092
 BYTE   W48
 BYTE   An2
 BYTE   W48
 BYTE   PEND 
// 005   ----------------------------------------
Label_3_0102332A:
 BYTE   N11  Gn2  v092
 BYTE   W48
 BYTE   An2
 BYTE   W48
 BYTE   PEND 
// 006   ----------------------------------------
Label_3_01023331:
 BYTE   N11  Bn2  v092
 BYTE   W48
 BYTE   Gn2
 BYTE   W48
 BYTE   PEND 
// 007   ----------------------------------------
Label_3_01023338:
 BYTE   N11  Fs2  v092
 BYTE   W48
 BYTE   Gn2
 BYTE   W48
 BYTE   PEND 
// 008   ----------------------------------------
Label_3_0102333F:
 BYTE   N11  Gn2  v092
 BYTE   W48
 BYTE   Bn2
 BYTE   W48
 BYTE   PEND 
// 009   ----------------------------------------
 BYTE   PATT
  POIN2 Label_3_0102330E
// 010   ----------------------------------------
 BYTE   PATT
  POIN2 Label_3_01023315
// 011   ----------------------------------------
 BYTE   PATT
  POIN2 Label_3_0102331C
// 012   ----------------------------------------
 BYTE   PATT
  POIN2 Label_3_01023323
// 013   ----------------------------------------
 BYTE   PATT
  POIN2 Label_3_0102332A
// 014   ----------------------------------------
 BYTE   PATT
  POIN2 Label_3_01023331
// 015   ----------------------------------------
 BYTE   PATT
  POIN2 Label_3_01023338
// 016   ----------------------------------------
 BYTE   W96
// 017   ----------------------------------------
 BYTE   W96
// 018   ----------------------------------------
 BYTE   W96
// 019   ----------------------------------------
 BYTE   W96
// 020   ----------------------------------------
 BYTE   W96
// 021   ----------------------------------------
 BYTE   W96
// 022   ----------------------------------------
 BYTE   W96
// 023   ----------------------------------------
 BYTE   W96
// 024   ----------------------------------------
 BYTE   W96
// 025   ----------------------------------------
 BYTE   W96
// 026   ----------------------------------------
 BYTE   W96
// 027   ----------------------------------------
 BYTE   W96
// 028   ----------------------------------------
 BYTE   W96
// 029   ----------------------------------------
 BYTE   W96
// 030   ----------------------------------------
 BYTE   W96
// 031   ----------------------------------------
 BYTE   W96
// 032   ----------------------------------------
 BYTE   W96
// 033   ----------------------------------------
 BYTE   W96
// 034   ----------------------------------------
 BYTE   W96
// 035   ----------------------------------------
 BYTE   W96
// 036   ----------------------------------------
 BYTE   W96
// 037   ----------------------------------------
 BYTE   W96
// 038   ----------------------------------------
 BYTE   W96
// 039   ----------------------------------------
 BYTE   W96
// 040   ----------------------------------------
 BYTE   W96
// 041   ----------------------------------------
 BYTE   W96
// 042   ----------------------------------------
 BYTE   W96
// 043   ----------------------------------------
 BYTE   W96
// 044   ----------------------------------------
 BYTE   W96
// 045   ----------------------------------------
 BYTE   W96
// 046   ----------------------------------------
 BYTE   W96
// 047   ----------------------------------------
 BYTE   W96
// 048   ----------------------------------------
 BYTE   W96
// 049   ----------------------------------------
 BYTE   W96
// 050   ----------------------------------------
 BYTE   W96
// 051   ----------------------------------------
 BYTE   W96
// 052   ----------------------------------------
 BYTE   N44  Cn2  v092
 BYTE   N11  Gn4
 BYTE   W12
 BYTE   En4
 BYTE   W12
 BYTE   Cn4
 BYTE   W12
 BYTE   En4
 BYTE   W12
 BYTE   N44  Gn1
 BYTE   N11  Gn4
 BYTE   W12
 BYTE   Fs4
 BYTE   W12
 BYTE   Gn4
 BYTE   W12
 BYTE   Cn4
 BYTE   W12
// 053   ----------------------------------------
 BYTE   N44  Cn2
 BYTE   N11  An4
 BYTE   W12
 BYTE   Fs4
 BYTE   W12
 BYTE   Dn4
 BYTE   W12
 BYTE   Fs4
 BYTE   W12
 BYTE   N23  Bn1
 BYTE   N11  An4
 BYTE   W12
 BYTE   Gn4
 BYTE   W12
 BYTE   N23  An1
 BYTE   N11  An4
 BYTE   W12
 BYTE   Fs4
 BYTE   W12
// 054   ----------------------------------------
 BYTE   N44  Ds1
 BYTE   N11  Bn4
 BYTE   W12
 BYTE   Bn3
 BYTE   W12
 BYTE   Ds4
 BYTE   W12
 BYTE   Fs4
 BYTE   W12
 BYTE   N44  Bn0
 BYTE   N11  Cn5
 BYTE   W12
 BYTE   Bn4
 BYTE   W12
 BYTE   An4
 BYTE   W12
 BYTE   Gn4
 BYTE   W12
// 055   ----------------------------------------
 BYTE   N23  En1
 BYTE   N11  Fs4
 BYTE   W12
 BYTE   An3
 BYTE   W12
 BYTE   N23  Fn1
 BYTE   N11  Gn4
 BYTE   W12
 BYTE   An3
 BYTE   W12
 BYTE   N23  Fs1
 BYTE   N11  An4
 BYTE   W12
 BYTE   An3
 BYTE   W12
 BYTE   Fs4
 BYTE   W12
 BYTE   An3
 BYTE   W12
// 056   ----------------------------------------
 BYTE   W96
// 057   ----------------------------------------
 BYTE   W96
// 058   ----------------------------------------
 BYTE   W96
// 059   ----------------------------------------
 BYTE   W96
// 060   ----------------------------------------
 BYTE   W96
// 061   ----------------------------------------
 BYTE   W96
// 062   ----------------------------------------
 BYTE   W96
// 063   ----------------------------------------
 BYTE   W96
// 064   ----------------------------------------
 BYTE   W96
// 065   ----------------------------------------
 BYTE   W96
// 066   ----------------------------------------
 BYTE   W96
// 067   ----------------------------------------
 BYTE   W96
// 068   ----------------------------------------
 BYTE   W96
// 069   ----------------------------------------
 BYTE   W96
// 070   ----------------------------------------
 BYTE   W96
// 071   ----------------------------------------
 BYTE   W96
// 072   ----------------------------------------
 BYTE   W96
// 073   ----------------------------------------
 BYTE   W96
// 074   ----------------------------------------
 BYTE   W96
// 075   ----------------------------------------
 BYTE   W96
// 076   ----------------------------------------
 BYTE   W96
// 077   ----------------------------------------
 BYTE   W96
// 078   ----------------------------------------
 BYTE   W96
// 079   ----------------------------------------
 BYTE   W96
// 080   ----------------------------------------
 BYTE   W96
// 081   ----------------------------------------
 BYTE   W96
// 082   ----------------------------------------
 BYTE   W96
// 083   ----------------------------------------
 BYTE   W96
// 084   ----------------------------------------
 BYTE   W96
// 085   ----------------------------------------
 BYTE   W96
// 086   ----------------------------------------
 BYTE   W96
// 087   ----------------------------------------
 BYTE   W96
// 088   ----------------------------------------
 BYTE   W96
// 089   ----------------------------------------
 BYTE   W96
// 090   ----------------------------------------
 BYTE   W96
// 091   ----------------------------------------
 BYTE   W96
// 092   ----------------------------------------
 BYTE   W96
// 093   ----------------------------------------
 BYTE   W96
// 094   ----------------------------------------
 BYTE   W96
// 095   ----------------------------------------
 BYTE   W96
// 096   ----------------------------------------
 BYTE   W96
// 097   ----------------------------------------
 BYTE   W96
// 098   ----------------------------------------
 BYTE   W96
// 099   ----------------------------------------
 BYTE   W96
// 100   ----------------------------------------
 BYTE   W96
// 101   ----------------------------------------
 BYTE   W96
// 102   ----------------------------------------
 BYTE   W96
// 103   ----------------------------------------
 BYTE   W96
// 104   ----------------------------------------
 BYTE   W96
// 105   ----------------------------------------
 BYTE   W96
// 106   ----------------------------------------
 BYTE   W96
// 107   ----------------------------------------
 BYTE   W96
// 108   ----------------------------------------
 BYTE   W96
// 109   ----------------------------------------
 BYTE   W96
// 110   ----------------------------------------
 BYTE   W96
// 111   ----------------------------------------
 BYTE   W96
// 112   ----------------------------------------
 BYTE   W96
// 113   ----------------------------------------
 BYTE   W96
// 114   ----------------------------------------
 BYTE   W96
// 115   ----------------------------------------
 BYTE   W96
// 116   ----------------------------------------
 BYTE   W96
// 117   ----------------------------------------
 BYTE   W96
// 118   ----------------------------------------
 BYTE   W96
// 119   ----------------------------------------
 BYTE   W96
// 120   ----------------------------------------
 BYTE   W96
// 121   ----------------------------------------
 BYTE   W96
// 122   ----------------------------------------
 BYTE   W96
// 123   ----------------------------------------
 BYTE   W96
// 124   ----------------------------------------
 BYTE   W96
// 125   ----------------------------------------
 BYTE   W96
// 126   ----------------------------------------
 BYTE   W96
// 127   ----------------------------------------
 BYTE   W96
// 128   ----------------------------------------
 BYTE   W96
// 129   ----------------------------------------
 BYTE   W96
// 130   ----------------------------------------
 BYTE   W96
// 131   ----------------------------------------
 BYTE   W96
// 132   ----------------------------------------
 BYTE   W96
// 133   ----------------------------------------
 BYTE   W96
// 134   ----------------------------------------
 BYTE   W96
// 135   ----------------------------------------
 BYTE   W96
// 136   ----------------------------------------
 BYTE   W96
// 137   ----------------------------------------
 BYTE   W96
// 138   ----------------------------------------
 BYTE   W96
// 139   ----------------------------------------
 BYTE   W96
// 140   ----------------------------------------
 BYTE   W96
// 141   ----------------------------------------
 BYTE   W96
// 142   ----------------------------------------
 BYTE   W96
// 143   ----------------------------------------
 BYTE   W96
// 144   ----------------------------------------
 BYTE   GoTo
  POIN2 Label_3_0102333F
// 145   ----------------------------------------
 BYTE   PATT
  POIN2 Label_3_0102333F
// 146   ----------------------------------------
 BYTE   PATT
  POIN2 Label_3_0102330E
// 147   ----------------------------------------
 BYTE   PATT
  POIN2 Label_3_01023315
// 148   ----------------------------------------
 BYTE   PATT
  POIN2 Label_3_0102331C
// 149   ----------------------------------------
 BYTE   PATT
  POIN2 Label_3_01023323
// 150   ----------------------------------------
 BYTE   PATT
  POIN2 Label_3_0102332A
// 151   ----------------------------------------
 BYTE   PATT
  POIN2 Label_3_01023331
// 152   ----------------------------------------
 BYTE   PATT
  POIN2 Label_3_01023338
// 153   ----------------------------------------
 BYTE   PATT
  POIN2 Label_3_0102333F
// 154   ----------------------------------------
 BYTE   PATT
  POIN2 Label_3_0102330E
// 155   ----------------------------------------
 BYTE   PATT
  POIN2 Label_3_01023315
// 156   ----------------------------------------
 BYTE   PATT
  POIN2 Label_3_0102331C
// 157   ----------------------------------------
 BYTE   PATT
  POIN2 Label_3_01023323
// 158   ----------------------------------------
 BYTE   PATT
  POIN2 Label_3_0102332A
// 159   ----------------------------------------
 BYTE   PATT
  POIN2 Label_3_01023331
// 160   ----------------------------------------
 BYTE   PATT
  POIN2 Label_3_01023338
// 161   ----------------------------------------
 BYTE   W96
// 162   ----------------------------------------
 BYTE   W96
// 163   ----------------------------------------
 BYTE   W96
// 164   ----------------------------------------
 BYTE   W96
// 165   ----------------------------------------
 BYTE   W96
// 166   ----------------------------------------
 BYTE   W23
 BYTE   FINE

//**************** Track 5 (Midi-Chn.4) ****************//

GuiltyGearXMilliaRagesThemeMeatOfJustice_005:
// 000   ----------------------------------------
 BYTE   KEYSH   GuiltyGearXMilliaRagesThemeMeatOfJustice_key+0
 BYTE   VOICE   48
 BYTE   PAN   c_v+6
 BYTE   VOL   40*GuiltyGearXMilliaRagesThemeMeatOfJustice_mvl/mxv
 BYTE   W96
// 001   ----------------------------------------
 BYTE   W96
// 002   ----------------------------------------
 BYTE   W96
// 003   ----------------------------------------
 BYTE   W96
// 004   ----------------------------------------
 BYTE   W96
// 005   ----------------------------------------
 BYTE   W96
// 006   ----------------------------------------
 BYTE   W96
// 007   ----------------------------------------
 BYTE   W96
// 008   ----------------------------------------
Label_4_014AE20C:
 BYTE   N92  Gn3  v092
 BYTE   N92  Gn4
 BYTE   W96
// 009   ----------------------------------------
 BYTE   Fs3
 BYTE   N92  Fs4
 BYTE   W96
// 010   ----------------------------------------
 BYTE   En3
 BYTE   N92  En4
 BYTE   W96
// 011   ----------------------------------------
 BYTE   TIE  Cn4
 BYTE   TIE  Cn5
 BYTE   W96
// 012   ----------------------------------------
 BYTE   W92
 BYTE   W03
 BYTE   EOT
 BYTE   Cn4  v084
 BYTE   W01
// 013   ----------------------------------------
 BYTE   TIE  Bn3
 BYTE   TIE  Bn4
 BYTE   W96
// 014   ----------------------------------------
 BYTE   W96
// 015   ----------------------------------------
 BYTE   W92
 BYTE   W03
 BYTE   EOT
 BYTE   Bn3  v083
 BYTE   W01
// 016   ----------------------------------------
 BYTE   W96
// 017   ----------------------------------------
 BYTE   W96
// 018   ----------------------------------------
 BYTE   W96
// 019   ----------------------------------------
 BYTE   W96
// 020   ----------------------------------------
 BYTE   W96
// 021   ----------------------------------------
 BYTE   W96
// 022   ----------------------------------------
 BYTE   W96
// 023   ----------------------------------------
 BYTE   W96
// 024   ----------------------------------------
 BYTE   W96
// 025   ----------------------------------------
 BYTE   W96
// 026   ----------------------------------------
 BYTE   W96
// 027   ----------------------------------------
 BYTE   W96
// 028   ----------------------------------------
 BYTE   W96
// 029   ----------------------------------------
 BYTE   W96
// 030   ----------------------------------------
 BYTE   W96
// 031   ----------------------------------------
 BYTE   W96
// 032   ----------------------------------------
 BYTE   W96
// 033   ----------------------------------------
 BYTE   W96
// 034   ----------------------------------------
 BYTE   W96
// 035   ----------------------------------------
 BYTE   W96
// 036   ----------------------------------------
 BYTE   W96
// 037   ----------------------------------------
 BYTE   W96
// 038   ----------------------------------------
 BYTE   W96
// 039   ----------------------------------------
 BYTE   W96
// 040   ----------------------------------------
 BYTE   W96
// 041   ----------------------------------------
 BYTE   W96
// 042   ----------------------------------------
 BYTE   W96
// 043   ----------------------------------------
 BYTE   W96
// 044   ----------------------------------------
 BYTE   W96
// 045   ----------------------------------------
 BYTE   W96
// 046   ----------------------------------------
 BYTE   W96
// 047   ----------------------------------------
 BYTE   W96
// 048   ----------------------------------------
 BYTE   W96
// 049   ----------------------------------------
 BYTE   W96
// 050   ----------------------------------------
 BYTE   W96
// 051   ----------------------------------------
 BYTE   W96
// 052   ----------------------------------------
 BYTE   N11  Gn3
 BYTE   W12
 BYTE   En3
 BYTE   W12
 BYTE   Cn3
 BYTE   W12
 BYTE   En3
 BYTE   W12
 BYTE   Gn3
 BYTE   W12
 BYTE   Fs3
 BYTE   W12
 BYTE   Gn3
 BYTE   W12
 BYTE   Cn3
 BYTE   W12
// 053   ----------------------------------------
 BYTE   An3
 BYTE   W12
 BYTE   Fs3
 BYTE   W12
 BYTE   Dn3
 BYTE   W12
 BYTE   Fs3
 BYTE   W12
 BYTE   An3
 BYTE   W12
 BYTE   Gn3
 BYTE   W12
 BYTE   An3
 BYTE   W12
 BYTE   Fs3
 BYTE   W12
// 054   ----------------------------------------
 BYTE   Bn3
 BYTE   W12
 BYTE   Bn2
 BYTE   W12
 BYTE   Ds3
 BYTE   W12
 BYTE   Fs3
 BYTE   W12
 BYTE   Cn4
 BYTE   W12
 BYTE   Bn3
 BYTE   W12
 BYTE   An3
 BYTE   W12
 BYTE   Gn3
 BYTE   W12
// 055   ----------------------------------------
 BYTE   Fs3
 BYTE   W12
 BYTE   An2
 BYTE   W12
 BYTE   Gn3
 BYTE   W12
 BYTE   An2
 BYTE   W12
 BYTE   An3
 BYTE   W12
 BYTE   An2
 BYTE   W12
 BYTE   Fs3
 BYTE   W12
 BYTE   An2
 BYTE   W12
// 056   ----------------------------------------
Label_4_014AE296:
 BYTE   N44  Gn3  v092
 BYTE   W48
 BYTE   Bn2
 BYTE   W48
 BYTE   PEND 
// 057   ----------------------------------------
Label_4_014AE29D:
 BYTE   N44  Cn3  v092
 BYTE   W48
 BYTE   N23  An3
 BYTE   W24
 BYTE   Gn3
 BYTE   W24
 BYTE   PEND 
// 058   ----------------------------------------
Label_4_014AE2A7:
 BYTE   N44  Fs3  v092
 BYTE   W48
 BYTE   N23  Gn3
 BYTE   W24
 BYTE   An3
 BYTE   W24
 BYTE   PEND 
// 059   ----------------------------------------
Label_4_014AE2B1:
 BYTE   N44  Bn3  v092
 BYTE   W72
 BYTE   N11  An3
 BYTE   W12
 BYTE   Bn3
 BYTE   W12
 BYTE   PEND 
// 060   ----------------------------------------
Label_4_014AE2BB:
 BYTE   N44  An3  v092
 BYTE   W48
 BYTE   Bn3
 BYTE   W48
 BYTE   PEND 
// 061   ----------------------------------------
Label_4_014AE2C2:
 BYTE   N23  En3  v092
 BYTE   W24
 BYTE   Fs3
 BYTE   W24
 BYTE   Gn3
 BYTE   W24
 BYTE   An3
 BYTE   W24
 BYTE   PEND 
// 062   ----------------------------------------
Label_4_014AE2CD:
 BYTE   N44  Gn3  v092
 BYTE   W48
 BYTE   Fs3
 BYTE   W48
 BYTE   PEND 
// 063   ----------------------------------------
Label_4_014AE2D4:
 BYTE   N44  En3  v092
 BYTE   W48
 BYTE   N23  Fs3
 BYTE   W24
 BYTE   N11  En3
 BYTE   W12
 BYTE   Fs3
 BYTE   W12
 BYTE   PEND 
// 064   ----------------------------------------
 BYTE   PATT
  POIN2 Label_4_014AE296
// 065   ----------------------------------------
 BYTE   PATT
  POIN2 Label_4_014AE29D
// 066   ----------------------------------------
 BYTE   PATT
  POIN2 Label_4_014AE2A7
// 067   ----------------------------------------
Label_4_014AE2F0:
 BYTE   N44  Gn4  v092
 BYTE   W48
 BYTE   Fs4
 BYTE   W48
 BYTE   PEND 
// 068   ----------------------------------------
 BYTE   TIE  En4
 BYTE   W96
// 069   ----------------------------------------
 BYTE   W23
 BYTE   EOT
 BYTE   W01
 BYTE   N23  Gn4
 BYTE   W24
 BYTE   Cn5
 BYTE   W24
 BYTE   Bn4
 BYTE   W24
// 070   ----------------------------------------
 BYTE   N92  An4
 BYTE   W96
// 071   ----------------------------------------
Label_4_014AE307:
 BYTE   N44  Gn4  v092
 BYTE   W48
 BYTE   Ds4
 BYTE   W48
 BYTE   PEND 
// 072   ----------------------------------------
 BYTE   W96
// 073   ----------------------------------------
 BYTE   W96
// 074   ----------------------------------------
 BYTE   W96
// 075   ----------------------------------------
 BYTE   W96
// 076   ----------------------------------------
 BYTE   W96
// 077   ----------------------------------------
 BYTE   W96
// 078   ----------------------------------------
 BYTE   W96
// 079   ----------------------------------------
 BYTE   W96
// 080   ----------------------------------------
 BYTE   W96
// 081   ----------------------------------------
 BYTE   W96
// 082   ----------------------------------------
 BYTE   W96
// 083   ----------------------------------------
 BYTE   W96
// 084   ----------------------------------------
 BYTE   W96
// 085   ----------------------------------------
 BYTE   W96
// 086   ----------------------------------------
 BYTE   W96
// 087   ----------------------------------------
 BYTE   W96
// 088   ----------------------------------------
 BYTE   W96
// 089   ----------------------------------------
 BYTE   W96
// 090   ----------------------------------------
 BYTE   W96
// 091   ----------------------------------------
 BYTE   W96
// 092   ----------------------------------------
 BYTE   W96
// 093   ----------------------------------------
 BYTE   W96
// 094   ----------------------------------------
 BYTE   W96
// 095   ----------------------------------------
 BYTE   W96
// 096   ----------------------------------------
 BYTE   PATT
  POIN2 Label_4_014AE296
// 097   ----------------------------------------
 BYTE   PATT
  POIN2 Label_4_014AE29D
// 098   ----------------------------------------
 BYTE   PATT
  POIN2 Label_4_014AE2A7
// 099   ----------------------------------------
 BYTE   PATT
  POIN2 Label_4_014AE2B1
// 100   ----------------------------------------
 BYTE   PATT
  POIN2 Label_4_014AE2BB
// 101   ----------------------------------------
 BYTE   PATT
  POIN2 Label_4_014AE2C2
// 102   ----------------------------------------
 BYTE   PATT
  POIN2 Label_4_014AE2CD
// 103   ----------------------------------------
 BYTE   PATT
  POIN2 Label_4_014AE2D4
// 104   ----------------------------------------
 BYTE   PATT
  POIN2 Label_4_014AE296
// 105   ----------------------------------------
 BYTE   PATT
  POIN2 Label_4_014AE29D
// 106   ----------------------------------------
 BYTE   PATT
  POIN2 Label_4_014AE2A7
// 107   ----------------------------------------
 BYTE   PATT
  POIN2 Label_4_014AE2F0
// 108   ----------------------------------------
 BYTE   TIE  En4  v092
 BYTE   W96
// 109   ----------------------------------------
 BYTE   W23
 BYTE   EOT
 BYTE   W01
 BYTE   N23  Gn4
 BYTE   W24
 BYTE   Cn5
 BYTE   W24
 BYTE   Bn4
 BYTE   W24
// 110   ----------------------------------------
 BYTE   N92  An4
 BYTE   W96
// 111   ----------------------------------------
 BYTE   PATT
  POIN2 Label_4_014AE307
// 112   ----------------------------------------
 BYTE   W96
// 113   ----------------------------------------
 BYTE   W96
// 114   ----------------------------------------
 BYTE   W96
// 115   ----------------------------------------
 BYTE   W96
// 116   ----------------------------------------
 BYTE   W96
// 117   ----------------------------------------
 BYTE   W96
// 118   ----------------------------------------
 BYTE   W96
// 119   ----------------------------------------
 BYTE   W96
// 120   ----------------------------------------
 BYTE   W96
// 121   ----------------------------------------
 BYTE   W96
// 122   ----------------------------------------
 BYTE   W96
// 123   ----------------------------------------
 BYTE   W96
// 124   ----------------------------------------
 BYTE   W96
// 125   ----------------------------------------
 BYTE   W96
// 126   ----------------------------------------
 BYTE   W96
// 127   ----------------------------------------
 BYTE   W96
// 128   ----------------------------------------
 BYTE   PATT
  POIN2 Label_4_014AE296
// 129   ----------------------------------------
 BYTE   PATT
  POIN2 Label_4_014AE29D
// 130   ----------------------------------------
 BYTE   PATT
  POIN2 Label_4_014AE2A7
// 131   ----------------------------------------
 BYTE   PATT
  POIN2 Label_4_014AE2B1
// 132   ----------------------------------------
 BYTE   PATT
  POIN2 Label_4_014AE2BB
// 133   ----------------------------------------
 BYTE   PATT
  POIN2 Label_4_014AE2C2
// 134   ----------------------------------------
 BYTE   PATT
  POIN2 Label_4_014AE2CD
// 135   ----------------------------------------
 BYTE   PATT
  POIN2 Label_4_014AE2D4
// 136   ----------------------------------------
 BYTE   PATT
  POIN2 Label_4_014AE296
// 137   ----------------------------------------
 BYTE   PATT
  POIN2 Label_4_014AE29D
// 138   ----------------------------------------
 BYTE   PATT
  POIN2 Label_4_014AE2A7
// 139   ----------------------------------------
 BYTE   PATT
  POIN2 Label_4_014AE2F0
// 140   ----------------------------------------
 BYTE   TIE  En4  v092
 BYTE   W96
// 141   ----------------------------------------
 BYTE   W23
 BYTE   EOT
 BYTE   W01
 BYTE   N23  Gn4
 BYTE   W24
 BYTE   Cn5
 BYTE   W24
 BYTE   Bn4
 BYTE   W24
// 142   ----------------------------------------
 BYTE   N92  An4
 BYTE   W96
// 143   ----------------------------------------
 BYTE   PATT
  POIN2 Label_4_014AE307
// 144   ----------------------------------------
 BYTE   GoTo
  POIN2 Label_4_014AE20C
// 145   ----------------------------------------
 BYTE   N92  Gn3  v092
 BYTE   W96
// 146   ----------------------------------------
 BYTE   Fs3
 BYTE   W96
// 147   ----------------------------------------
 BYTE   En3
 BYTE   W96
// 148   ----------------------------------------
 BYTE   TIE  Cn4
 BYTE   W96
// 149   ----------------------------------------
 BYTE   W92
 BYTE   W03
 BYTE   EOT
 BYTE   W01
// 150   ----------------------------------------
 BYTE   TIE  Bn3
 BYTE   W96
// 151   ----------------------------------------
 BYTE   W96
// 152   ----------------------------------------
 BYTE   W92
 BYTE   W03
 BYTE   EOT
 BYTE   W01
// 153   ----------------------------------------
 BYTE   W96
// 154   ----------------------------------------
 BYTE   W96
// 155   ----------------------------------------
 BYTE   W96
// 156   ----------------------------------------
 BYTE   W96
// 157   ----------------------------------------
 BYTE   W96
// 158   ----------------------------------------
 BYTE   W96
// 159   ----------------------------------------
 BYTE   W96
// 160   ----------------------------------------
 BYTE   W96
// 161   ----------------------------------------
 BYTE   W96
// 162   ----------------------------------------
 BYTE   W96
// 163   ----------------------------------------
 BYTE   W96
// 164   ----------------------------------------
 BYTE   W96
// 165   ----------------------------------------
 BYTE   W96
// 166   ----------------------------------------
 BYTE   W23
 BYTE   FINE

//**************** Track 6 (Midi-Chn.5) ****************//

GuiltyGearXMilliaRagesThemeMeatOfJustice_006:
// 000   ----------------------------------------
 BYTE   KEYSH   GuiltyGearXMilliaRagesThemeMeatOfJustice_key+0
 BYTE   VOICE   20
 BYTE   PAN   c_v+16
 BYTE   VOL   40*GuiltyGearXMilliaRagesThemeMeatOfJustice_mvl/mxv
 BYTE   TIE  Gn3  v092
 BYTE   TIE  Gn4
 BYTE   W96
// 001   ----------------------------------------
 BYTE   W92
 BYTE   W03
 BYTE   EOT
 BYTE   Gn3  v079
 BYTE   W01
// 002   ----------------------------------------
Label_5_010240E4:
 BYTE   TIE  An3  v092
 BYTE   TIE  An4
 BYTE   W96
 BYTE   PEND 
// 003   ----------------------------------------
 BYTE   W92
 BYTE   W03
 BYTE   EOT
 BYTE   An3  v081
 BYTE   W01
// 004   ----------------------------------------
Label_5_010240F1:
 BYTE   TIE  Ds3  v092
 BYTE   TIE  Ds4
 BYTE   W96
 BYTE   PEND 
// 005   ----------------------------------------
 BYTE   W92
 BYTE   W03
 BYTE   EOT
 BYTE   Ds3  v075
 BYTE   W01
// 006   ----------------------------------------
Label_5_010240FE:
 BYTE   TIE  En3  v092
 BYTE   TIE  En4
 BYTE   W96
 BYTE   PEND 
// 007   ----------------------------------------
 BYTE   W92
 BYTE   W03
 BYTE   EOT
 BYTE   En3  v076
 BYTE   W01
// 008   ----------------------------------------
Label_5_0102410B:
 BYTE   TIE  Gn3  v092
 BYTE   TIE  Gn4
 BYTE   W96
// 009   ----------------------------------------
 BYTE   W92
 BYTE   W03
 BYTE   EOT
 BYTE   Gn3  v079
 BYTE   W01
// 010   ----------------------------------------
 BYTE   PATT
  POIN2 Label_5_010240E4
// 011   ----------------------------------------
 BYTE   W92
 BYTE   W03
 BYTE   EOT
 BYTE   An3  v081
 BYTE   W01
// 012   ----------------------------------------
 BYTE   PATT
  POIN2 Label_5_010240F1
// 013   ----------------------------------------
 BYTE   W92
 BYTE   W03
 BYTE   EOT
 BYTE   Ds3  v075
 BYTE   W01
// 014   ----------------------------------------
 BYTE   PATT
  POIN2 Label_5_010240FE
// 015   ----------------------------------------
 BYTE   W92
 BYTE   W03
 BYTE   EOT
 BYTE   En3  v076
 BYTE   W01
// 016   ----------------------------------------
 BYTE   W96
// 017   ----------------------------------------
 BYTE   W96
// 018   ----------------------------------------
 BYTE   W96
// 019   ----------------------------------------
 BYTE   W96
// 020   ----------------------------------------
 BYTE   W96
// 021   ----------------------------------------
 BYTE   W96
// 022   ----------------------------------------
 BYTE   W96
// 023   ----------------------------------------
 BYTE   W96
// 024   ----------------------------------------
 BYTE   W96
// 025   ----------------------------------------
 BYTE   W96
// 026   ----------------------------------------
 BYTE   W96
// 027   ----------------------------------------
 BYTE   W96
// 028   ----------------------------------------
 BYTE   W96
// 029   ----------------------------------------
 BYTE   W96
// 030   ----------------------------------------
 BYTE   W96
// 031   ----------------------------------------
 BYTE   W96
// 032   ----------------------------------------
 BYTE   W96
// 033   ----------------------------------------
 BYTE   W96
// 034   ----------------------------------------
 BYTE   W96
// 035   ----------------------------------------
 BYTE   W96
// 036   ----------------------------------------
 BYTE   W96
// 037   ----------------------------------------
 BYTE   W96
// 038   ----------------------------------------
 BYTE   W96
// 039   ----------------------------------------
 BYTE   W96
// 040   ----------------------------------------
 BYTE   W96
// 041   ----------------------------------------
 BYTE   W96
// 042   ----------------------------------------
 BYTE   W96
// 043   ----------------------------------------
 BYTE   W96
// 044   ----------------------------------------
 BYTE   W96
// 045   ----------------------------------------
 BYTE   W96
// 046   ----------------------------------------
 BYTE   W96
// 047   ----------------------------------------
 BYTE   W96
// 048   ----------------------------------------
 BYTE   W96
// 049   ----------------------------------------
 BYTE   W96
// 050   ----------------------------------------
 BYTE   W96
// 051   ----------------------------------------
 BYTE   W96
// 052   ----------------------------------------
 BYTE   W96
// 053   ----------------------------------------
 BYTE   W96
// 054   ----------------------------------------
 BYTE   W96
// 055   ----------------------------------------
 BYTE   W96
// 056   ----------------------------------------
 BYTE   W96
// 057   ----------------------------------------
 BYTE   W96
// 058   ----------------------------------------
 BYTE   W96
// 059   ----------------------------------------
 BYTE   W96
// 060   ----------------------------------------
 BYTE   W96
// 061   ----------------------------------------
 BYTE   W96
// 062   ----------------------------------------
 BYTE   W96
// 063   ----------------------------------------
 BYTE   W96
// 064   ----------------------------------------
 BYTE   W96
// 065   ----------------------------------------
 BYTE   W96
// 066   ----------------------------------------
 BYTE   W96
// 067   ----------------------------------------
 BYTE   W96
// 068   ----------------------------------------
 BYTE   W96
// 069   ----------------------------------------
 BYTE   W96
// 070   ----------------------------------------
 BYTE   W96
// 071   ----------------------------------------
 BYTE   W96
// 072   ----------------------------------------
 BYTE   N92  Bn3  v092
 BYTE   N92  En4
 BYTE   W96
// 073   ----------------------------------------
 BYTE   N92
 BYTE   N92  Gn4
 BYTE   W96
// 074   ----------------------------------------
 BYTE   Dn4
 BYTE   N92  Fs4
 BYTE   W96
// 075   ----------------------------------------
 BYTE   Bn3
 BYTE   N92  En4
 BYTE   W96
// 076   ----------------------------------------
 BYTE   Cn4
 BYTE   N92  Fs4
 BYTE   W96
// 077   ----------------------------------------
 BYTE   En4
 BYTE   N92  Gn4
 BYTE   W96
// 078   ----------------------------------------
 BYTE   Dn4
 BYTE   N92  Fs4
 BYTE   W96
// 079   ----------------------------------------
 BYTE   An3
 BYTE   N92  Dn4
 BYTE   W96
// 080   ----------------------------------------
 BYTE   W96
// 081   ----------------------------------------
 BYTE   W96
// 082   ----------------------------------------
 BYTE   W96
// 083   ----------------------------------------
 BYTE   W96
// 084   ----------------------------------------
 BYTE   W96
// 085   ----------------------------------------
 BYTE   W96
// 086   ----------------------------------------
 BYTE   W96
// 087   ----------------------------------------
 BYTE   W96
// 088   ----------------------------------------
 BYTE   W96
// 089   ----------------------------------------
 BYTE   W96
// 090   ----------------------------------------
 BYTE   W96
// 091   ----------------------------------------
 BYTE   W96
// 092   ----------------------------------------
 BYTE   W96
// 093   ----------------------------------------
 BYTE   W96
// 094   ----------------------------------------
 BYTE   W96
// 095   ----------------------------------------
 BYTE   W96
// 096   ----------------------------------------
 BYTE   W96
// 097   ----------------------------------------
 BYTE   W96
// 098   ----------------------------------------
 BYTE   W96
// 099   ----------------------------------------
 BYTE   W96
// 100   ----------------------------------------
 BYTE   W96
// 101   ----------------------------------------
 BYTE   W96
// 102   ----------------------------------------
 BYTE   W96
// 103   ----------------------------------------
 BYTE   W96
// 104   ----------------------------------------
 BYTE   W96
// 105   ----------------------------------------
 BYTE   W96
// 106   ----------------------------------------
 BYTE   W96
// 107   ----------------------------------------
 BYTE   W96
// 108   ----------------------------------------
 BYTE   W96
// 109   ----------------------------------------
 BYTE   W96
// 110   ----------------------------------------
 BYTE   W96
// 111   ----------------------------------------
 BYTE   W96
// 112   ----------------------------------------
 BYTE   W96
// 113   ----------------------------------------
 BYTE   W96
// 114   ----------------------------------------
 BYTE   W96
// 115   ----------------------------------------
 BYTE   W96
// 116   ----------------------------------------
 BYTE   W96
// 117   ----------------------------------------
 BYTE   W96
// 118   ----------------------------------------
 BYTE   W96
// 119   ----------------------------------------
 BYTE   W96
// 120   ----------------------------------------
 BYTE   W96
// 121   ----------------------------------------
 BYTE   W96
// 122   ----------------------------------------
 BYTE   W96
// 123   ----------------------------------------
 BYTE   W96
// 124   ----------------------------------------
 BYTE   W96
// 125   ----------------------------------------
 BYTE   W96
// 126   ----------------------------------------
 BYTE   W96
// 127   ----------------------------------------
 BYTE   W96
// 128   ----------------------------------------
 BYTE   W96
// 129   ----------------------------------------
 BYTE   W96
// 130   ----------------------------------------
 BYTE   W96
// 131   ----------------------------------------
 BYTE   W96
// 132   ----------------------------------------
 BYTE   W96
// 133   ----------------------------------------
 BYTE   W96
// 134   ----------------------------------------
 BYTE   W96
// 135   ----------------------------------------
 BYTE   W96
// 136   ----------------------------------------
 BYTE   W96
// 137   ----------------------------------------
 BYTE   W96
// 138   ----------------------------------------
 BYTE   W96
// 139   ----------------------------------------
 BYTE   W96
// 140   ----------------------------------------
 BYTE   W96
// 141   ----------------------------------------
 BYTE   W96
// 142   ----------------------------------------
 BYTE   W96
// 143   ----------------------------------------
 BYTE   W96
// 144   ----------------------------------------
 BYTE   GoTo
  POIN2 Label_5_0102410B
// 145   ----------------------------------------
 BYTE   W96
// 146   ----------------------------------------
 BYTE   W96
// 147   ----------------------------------------
 BYTE   W96
// 148   ----------------------------------------
 BYTE   W96
// 149   ----------------------------------------
 BYTE   W96
// 150   ----------------------------------------
 BYTE   W96
// 151   ----------------------------------------
 BYTE   W96
// 152   ----------------------------------------
 BYTE   W96
// 153   ----------------------------------------
 BYTE   W96
// 154   ----------------------------------------
 BYTE   W96
// 155   ----------------------------------------
 BYTE   W96
// 156   ----------------------------------------
 BYTE   W96
// 157   ----------------------------------------
 BYTE   W96
// 158   ----------------------------------------
 BYTE   W96
// 159   ----------------------------------------
 BYTE   W96
// 160   ----------------------------------------
 BYTE   W96
// 161   ----------------------------------------
 BYTE   W96
// 162   ----------------------------------------
 BYTE   W96
// 163   ----------------------------------------
 BYTE   W96
// 164   ----------------------------------------
 BYTE   W96
// 165   ----------------------------------------
 BYTE   W96
// 166   ----------------------------------------
 BYTE   W23
 BYTE   FINE

//**************** Track 7 (Midi-Chn.6) ****************//

GuiltyGearXMilliaRagesThemeMeatOfJustice_007:
// 000   ----------------------------------------
 BYTE   KEYSH   GuiltyGearXMilliaRagesThemeMeatOfJustice_key+0
 BYTE   VOICE   20
 BYTE   PAN   c_v+16
 BYTE   VOL   40*GuiltyGearXMilliaRagesThemeMeatOfJustice_mvl/mxv
 BYTE   W96
// 001   ----------------------------------------
 BYTE   W96
// 002   ----------------------------------------
 BYTE   W96
// 003   ----------------------------------------
 BYTE   W96
// 004   ----------------------------------------
 BYTE   W96
// 005   ----------------------------------------
 BYTE   W96
// 006   ----------------------------------------
 BYTE   W96
// 007   ----------------------------------------
 BYTE   W96
// 008   ----------------------------------------
Label_6_01023E24:
 BYTE   W96
// 009   ----------------------------------------
 BYTE   W96
// 010   ----------------------------------------
 BYTE   W96
// 011   ----------------------------------------
 BYTE   W96
// 012   ----------------------------------------
 BYTE   W96
// 013   ----------------------------------------
 BYTE   W96
// 014   ----------------------------------------
 BYTE   W96
// 015   ----------------------------------------
 BYTE   W96
// 016   ----------------------------------------
 BYTE   W96
// 017   ----------------------------------------
 BYTE   W96
// 018   ----------------------------------------
 BYTE   W96
// 019   ----------------------------------------
 BYTE   W96
// 020   ----------------------------------------
 BYTE   W96
// 021   ----------------------------------------
 BYTE   W96
// 022   ----------------------------------------
 BYTE   W96
// 023   ----------------------------------------
 BYTE   W96
// 024   ----------------------------------------
 BYTE   W96
// 025   ----------------------------------------
 BYTE   W96
// 026   ----------------------------------------
 BYTE   W96
// 027   ----------------------------------------
 BYTE   W96
// 028   ----------------------------------------
 BYTE   W96
// 029   ----------------------------------------
 BYTE   W96
// 030   ----------------------------------------
 BYTE   W96
// 031   ----------------------------------------
 BYTE   W96
// 032   ----------------------------------------
 BYTE   W96
// 033   ----------------------------------------
 BYTE   W96
// 034   ----------------------------------------
 BYTE   W96
// 035   ----------------------------------------
 BYTE   W96
// 036   ----------------------------------------
Label_6_01023E40:
 BYTE   N11  Gn3  v092
 BYTE   W12
 BYTE   An3
 BYTE   W12
 BYTE   Bn3
 BYTE   W12
 BYTE   En3
 BYTE   W12
 BYTE   An3
 BYTE   W12
 BYTE   Bn3
 BYTE   W12
 BYTE   Cn4
 BYTE   W12
 BYTE   En3
 BYTE   W12
 BYTE   PEND 
// 037   ----------------------------------------
Label_6_01023E53:
 BYTE   N11  An3  v092
 BYTE   W12
 BYTE   Dn4
 BYTE   W12
 BYTE   En4
 BYTE   W12
 BYTE   Dn4
 BYTE   W12
 BYTE   Cn4
 BYTE   W12
 BYTE   Bn3
 BYTE   W12
 BYTE   An3
 BYTE   W12
 BYTE   Cn4
 BYTE   W12
 BYTE   PEND 
// 038   ----------------------------------------
Label_6_01023E66:
 BYTE   N11  En4  v092
 BYTE   W12
 BYTE   En3
 BYTE   W12
 BYTE   Fs3
 BYTE   W12
 BYTE   En3
 BYTE   W12
 BYTE   Gn3
 BYTE   W12
 BYTE   En3
 BYTE   W12
 BYTE   Fs3
 BYTE   W12
 BYTE   En3
 BYTE   W12
 BYTE   PEND 
// 039   ----------------------------------------
Label_6_01023E79:
 BYTE   N11  En4  v092
 BYTE   W12
 BYTE   Fs4
 BYTE   W12
 BYTE   Gn4
 BYTE   W12
 BYTE   En4
 BYTE   W12
 BYTE   Ds4
 BYTE   W12
 BYTE   An4
 BYTE   W12
 BYTE   Gn4
 BYTE   W12
 BYTE   Fs4
 BYTE   W12
 BYTE   PEND 
// 040   ----------------------------------------
Label_6_01023E8C:
 BYTE   N32  Gn4  v092
 BYTE   W36
 BYTE   An4
 BYTE   W36
 BYTE   Bn4
 BYTE   W24
 BYTE   PEND 
// 041   ----------------------------------------
Label_6_01023E95:
 BYTE   W12
 BYTE   N32  En4  v092
 BYTE   W36
 BYTE   N11  Cn5
 BYTE   W12
 BYTE   Bn4
 BYTE   W12
 BYTE   An4
 BYTE   W12
 BYTE   Gn4
 BYTE   W12
 BYTE   PEND 
// 042   ----------------------------------------
Label_6_01023EA4:
 BYTE   N11  Fs4  v092
 BYTE   W12
 BYTE   Ds4
 BYTE   W12
 BYTE   En4
 BYTE   W12
 BYTE   Ds4
 BYTE   W12
 BYTE   Gn4
 BYTE   W12
 BYTE   Ds4
 BYTE   W12
 BYTE   En4
 BYTE   W12
 BYTE   Ds4
 BYTE   W12
 BYTE   PEND 
// 043   ----------------------------------------
 BYTE   N23  Gn4
 BYTE   W24
 BYTE   N11  En4
 BYTE   W12
 BYTE   Gn4
 BYTE   W12
 BYTE   An4
 BYTE   W12
 BYTE   Cn5
 BYTE   W12
 BYTE   Bn4
 BYTE   W12
 BYTE   An4
 BYTE   W12
// 044   ----------------------------------------
 BYTE   N23  En4
 BYTE   W24
 BYTE   N11  Cn4
 BYTE   W12
 BYTE   Bn3
 BYTE   W12
 BYTE   An3
 BYTE   W12
 BYTE   Bn3
 BYTE   W12
 BYTE   Cn4
 BYTE   W12
 BYTE   En3
 BYTE   W12
// 045   ----------------------------------------
 BYTE   Bn3
 BYTE   W12
 BYTE   Ds4
 BYTE   W12
 BYTE   Fs4
 BYTE   W12
 BYTE   En4
 BYTE   W12
 BYTE   Ds4
 BYTE   W12
 BYTE   Cn4
 BYTE   W12
 BYTE   Bn3
 BYTE   W12
 BYTE   An3
 BYTE   W12
// 046   ----------------------------------------
 BYTE   Bn3
 BYTE   W12
 BYTE   En4
 BYTE   W12
 BYTE   Bn3
 BYTE   W12
 BYTE   N11
 BYTE   W12
 BYTE   Fs4
 BYTE   W12
 BYTE   Bn3
 BYTE   W12
 BYTE   N11
 BYTE   W12
 BYTE   N11
 BYTE   W12
// 047   ----------------------------------------
 BYTE   Gn4
 BYTE   W12
 BYTE   An4
 BYTE   W12
 BYTE   Bn4
 BYTE   W12
 BYTE   En4
 BYTE   W12
 BYTE   Bn4
 BYTE   W12
 BYTE   An4
 BYTE   W12
 BYTE   Gn4
 BYTE   W12
 BYTE   Fs4
 BYTE   W12
// 048   ----------------------------------------
 BYTE   PATT
  POIN2 Label_6_01023E8C
// 049   ----------------------------------------
 BYTE   W12
 BYTE   N32  Cn5  v092
 BYTE   W36
 BYTE   N11  En5
 BYTE   W12
 BYTE   Ds5
 BYTE   W12
 BYTE   En5
 BYTE   W12
 BYTE   Gn4
 BYTE   W12
// 050   ----------------------------------------
 BYTE   Fs4
 BYTE   W12
 BYTE   En5
 BYTE   W12
 BYTE   Ds5
 BYTE   W12
 BYTE   En5
 BYTE   W12
 BYTE   Gn4
 BYTE   W12
 BYTE   Fs5
 BYTE   W12
 BYTE   En5
 BYTE   W12
 BYTE   Fs5
 BYTE   W12
// 051   ----------------------------------------
 BYTE   An4
 BYTE   W12
 BYTE   Gn5
 BYTE   W12
 BYTE   Fs5
 BYTE   W12
 BYTE   Gn5
 BYTE   W12
 BYTE   Fs5
 BYTE   W12
 BYTE   En5
 BYTE   W12
 BYTE   N23  Ds5
 BYTE   W24
// 052   ----------------------------------------
 BYTE   W96
// 053   ----------------------------------------
 BYTE   W96
// 054   ----------------------------------------
 BYTE   W96
// 055   ----------------------------------------
 BYTE   W96
// 056   ----------------------------------------
 BYTE   W96
// 057   ----------------------------------------
 BYTE   W96
// 058   ----------------------------------------
 BYTE   W96
// 059   ----------------------------------------
 BYTE   W96
// 060   ----------------------------------------
 BYTE   W96
// 061   ----------------------------------------
 BYTE   W96
// 062   ----------------------------------------
 BYTE   W96
// 063   ----------------------------------------
 BYTE   W96
// 064   ----------------------------------------
 BYTE   W96
// 065   ----------------------------------------
 BYTE   W96
// 066   ----------------------------------------
 BYTE   W96
// 067   ----------------------------------------
 BYTE   W96
// 068   ----------------------------------------
 BYTE   W96
// 069   ----------------------------------------
 BYTE   W96
// 070   ----------------------------------------
 BYTE   W96
// 071   ----------------------------------------
 BYTE   W96
// 072   ----------------------------------------
 BYTE   W96
// 073   ----------------------------------------
 BYTE   W96
// 074   ----------------------------------------
 BYTE   W96
// 075   ----------------------------------------
 BYTE   W96
// 076   ----------------------------------------
 BYTE   W96
// 077   ----------------------------------------
 BYTE   W96
// 078   ----------------------------------------
 BYTE   W96
// 079   ----------------------------------------
 BYTE   W96
// 080   ----------------------------------------
 BYTE   W96
// 081   ----------------------------------------
 BYTE   W96
// 082   ----------------------------------------
 BYTE   W96
// 083   ----------------------------------------
 BYTE   W96
// 084   ----------------------------------------
 BYTE   W96
// 085   ----------------------------------------
 BYTE   W96
// 086   ----------------------------------------
 BYTE   W96
// 087   ----------------------------------------
 BYTE   W96
// 088   ----------------------------------------
 BYTE   PATT
  POIN2 Label_6_01023E40
// 089   ----------------------------------------
 BYTE   PATT
  POIN2 Label_6_01023E53
// 090   ----------------------------------------
 BYTE   PATT
  POIN2 Label_6_01023E66
// 091   ----------------------------------------
 BYTE   PATT
  POIN2 Label_6_01023E79
// 092   ----------------------------------------
 BYTE   PATT
  POIN2 Label_6_01023E8C
// 093   ----------------------------------------
 BYTE   PATT
  POIN2 Label_6_01023E95
// 094   ----------------------------------------
 BYTE   PATT
  POIN2 Label_6_01023EA4
// 095   ----------------------------------------
Label_6_01023F80:
 BYTE   N11  Gn4  v092
 BYTE   W12
 BYTE   Ds4
 BYTE   W12
 BYTE   En4
 BYTE   W12
 BYTE   Gn4
 BYTE   W12
 BYTE   An4
 BYTE   W12
 BYTE   Cn5
 BYTE   W12
 BYTE   Bn4
 BYTE   W12
 BYTE   An4
 BYTE   W12
 BYTE   PEND 
// 096   ----------------------------------------
 BYTE   W96
// 097   ----------------------------------------
 BYTE   W96
// 098   ----------------------------------------
 BYTE   W96
// 099   ----------------------------------------
 BYTE   W96
// 100   ----------------------------------------
 BYTE   W96
// 101   ----------------------------------------
 BYTE   W96
// 102   ----------------------------------------
 BYTE   W96
// 103   ----------------------------------------
 BYTE   W96
// 104   ----------------------------------------
 BYTE   W96
// 105   ----------------------------------------
 BYTE   W96
// 106   ----------------------------------------
 BYTE   W96
// 107   ----------------------------------------
 BYTE   W96
// 108   ----------------------------------------
 BYTE   W96
// 109   ----------------------------------------
 BYTE   W96
// 110   ----------------------------------------
 BYTE   W96
// 111   ----------------------------------------
 BYTE   W96
// 112   ----------------------------------------
 BYTE   W96
// 113   ----------------------------------------
 BYTE   W96
// 114   ----------------------------------------
 BYTE   W96
// 115   ----------------------------------------
 BYTE   W96
// 116   ----------------------------------------
 BYTE   W96
// 117   ----------------------------------------
 BYTE   W96
// 118   ----------------------------------------
 BYTE   W96
// 119   ----------------------------------------
 BYTE   W96
// 120   ----------------------------------------
 BYTE   PATT
  POIN2 Label_6_01023E40
// 121   ----------------------------------------
 BYTE   PATT
  POIN2 Label_6_01023E53
// 122   ----------------------------------------
 BYTE   PATT
  POIN2 Label_6_01023E66
// 123   ----------------------------------------
 BYTE   PATT
  POIN2 Label_6_01023E79
// 124   ----------------------------------------
 BYTE   PATT
  POIN2 Label_6_01023E8C
// 125   ----------------------------------------
 BYTE   PATT
  POIN2 Label_6_01023E95
// 126   ----------------------------------------
 BYTE   PATT
  POIN2 Label_6_01023EA4
// 127   ----------------------------------------
 BYTE   PATT
  POIN2 Label_6_01023F80
// 128   ----------------------------------------
 BYTE   W96
// 129   ----------------------------------------
 BYTE   W96
// 130   ----------------------------------------
 BYTE   W96
// 131   ----------------------------------------
 BYTE   W96
// 132   ----------------------------------------
 BYTE   W96
// 133   ----------------------------------------
 BYTE   W96
// 134   ----------------------------------------
 BYTE   W96
// 135   ----------------------------------------
 BYTE   W96
// 136   ----------------------------------------
 BYTE   W96
// 137   ----------------------------------------
 BYTE   W96
// 138   ----------------------------------------
 BYTE   W96
// 139   ----------------------------------------
 BYTE   W96
// 140   ----------------------------------------
 BYTE   W96
// 141   ----------------------------------------
 BYTE   W96
// 142   ----------------------------------------
 BYTE   W96
// 143   ----------------------------------------
 BYTE   W96
// 144   ----------------------------------------
 BYTE   GoTo
  POIN2 Label_6_01023E24
// 145   ----------------------------------------
 BYTE   W96
// 146   ----------------------------------------
 BYTE   W96
// 147   ----------------------------------------
 BYTE   W96
// 148   ----------------------------------------
 BYTE   W96
// 149   ----------------------------------------
 BYTE   W96
// 150   ----------------------------------------
 BYTE   W96
// 151   ----------------------------------------
 BYTE   W96
// 152   ----------------------------------------
 BYTE   W96
// 153   ----------------------------------------
 BYTE   W96
// 154   ----------------------------------------
 BYTE   W96
// 155   ----------------------------------------
 BYTE   W96
// 156   ----------------------------------------
 BYTE   W96
// 157   ----------------------------------------
 BYTE   W96
// 158   ----------------------------------------
 BYTE   W96
// 159   ----------------------------------------
 BYTE   W96
// 160   ----------------------------------------
 BYTE   W96
// 161   ----------------------------------------
 BYTE   W96
// 162   ----------------------------------------
 BYTE   W96
// 163   ----------------------------------------
 BYTE   W96
// 164   ----------------------------------------
 BYTE   W96
// 165   ----------------------------------------
 BYTE   W96
// 166   ----------------------------------------
 BYTE   W23
 BYTE   FINE

//**************** Track 8 (Midi-Chn.7) ****************//

GuiltyGearXMilliaRagesThemeMeatOfJustice_008:
// 000   ----------------------------------------
 BYTE   KEYSH   GuiltyGearXMilliaRagesThemeMeatOfJustice_key+0
 BYTE   VOICE   36
 BYTE   PAN   c_v+0
 BYTE   VOL   72*GuiltyGearXMilliaRagesThemeMeatOfJustice_mvl/mxv
 BYTE   W96
// 001   ----------------------------------------
 BYTE   W96
// 002   ----------------------------------------
 BYTE   W96
// 003   ----------------------------------------
 BYTE   W96
// 004   ----------------------------------------
 BYTE   W96
// 005   ----------------------------------------
 BYTE   W96
// 006   ----------------------------------------
 BYTE   W96
// 007   ----------------------------------------
 BYTE   W96
// 008   ----------------------------------------
Label_7_014AE53C:
 BYTE   W96
// 009   ----------------------------------------
 BYTE   W96
// 010   ----------------------------------------
 BYTE   W96
// 011   ----------------------------------------
 BYTE   W96
// 012   ----------------------------------------
 BYTE   W96
// 013   ----------------------------------------
 BYTE   W96
// 014   ----------------------------------------
 BYTE   W96
// 015   ----------------------------------------
 BYTE   W96
// 016   ----------------------------------------
 BYTE   W96
// 017   ----------------------------------------
 BYTE   W96
// 018   ----------------------------------------
 BYTE   W96
// 019   ----------------------------------------
 BYTE   W96
// 020   ----------------------------------------
Label_7_014AE548:
 BYTE   N05  En0  v092
 BYTE   W12
 BYTE   N05
 BYTE   W12
 BYTE   N05
 BYTE   W12
 BYTE   N05
 BYTE   W12
 BYTE   N05
 BYTE   W12
 BYTE   N05
 BYTE   W12
 BYTE   N05
 BYTE   W12
 BYTE   N05
 BYTE   W12
 BYTE   PEND 
// 021   ----------------------------------------
 BYTE   PATT
  POIN2 Label_7_014AE548
// 022   ----------------------------------------
 BYTE   PATT
  POIN2 Label_7_014AE548
// 023   ----------------------------------------
 BYTE   PATT
  POIN2 Label_7_014AE548
// 024   ----------------------------------------
Label_7_014AE56A:
 BYTE   N05  Cn1  v092
 BYTE   W12
 BYTE   N05
 BYTE   W12
 BYTE   N05
 BYTE   W12
 BYTE   N05
 BYTE   W12
 BYTE   N05
 BYTE   W12
 BYTE   N05
 BYTE   W12
 BYTE   N05
 BYTE   W12
 BYTE   N05
 BYTE   W12
 BYTE   PEND 
// 025   ----------------------------------------
 BYTE   PATT
  POIN2 Label_7_014AE56A
// 026   ----------------------------------------
Label_7_014AE582:
 BYTE   N05  Dn1  v092
 BYTE   W12
 BYTE   N05
 BYTE   W12
 BYTE   N05
 BYTE   W12
 BYTE   N05
 BYTE   W12
 BYTE   N05
 BYTE   W12
 BYTE   N05
 BYTE   W12
 BYTE   N05
 BYTE   W12
 BYTE   N05
 BYTE   W12
 BYTE   PEND 
// 027   ----------------------------------------
 BYTE   N05
 BYTE   W12
 BYTE   N05
 BYTE   W12
 BYTE   N05
 BYTE   W12
 BYTE   N05
 BYTE   W12
 BYTE   Gn1
 BYTE   W12
 BYTE   En1
 BYTE   W12
 BYTE   Dn1
 BYTE   W12
 BYTE   Cn1
 BYTE   W12
// 028   ----------------------------------------
 BYTE   PATT
  POIN2 Label_7_014AE548
// 029   ----------------------------------------
Label_7_014AE5AA:
 BYTE   N05  En0  v092
 BYTE   W12
 BYTE   N05
 BYTE   W12
 BYTE   N05
 BYTE   W12
 BYTE   N05
 BYTE   W12
 BYTE   N05
 BYTE   W12
 BYTE   N05
 BYTE   W12
 BYTE   N05
 BYTE   W24
 BYTE   PEND 
// 030   ----------------------------------------
 BYTE   PATT
  POIN2 Label_7_014AE548
// 031   ----------------------------------------
 BYTE   PATT
  POIN2 Label_7_014AE5AA
// 032   ----------------------------------------
 BYTE   PATT
  POIN2 Label_7_014AE548
// 033   ----------------------------------------
 BYTE   PATT
  POIN2 Label_7_014AE5AA
// 034   ----------------------------------------
 BYTE   PATT
  POIN2 Label_7_014AE548
// 035   ----------------------------------------
 BYTE   PATT
  POIN2 Label_7_014AE5AA
// 036   ----------------------------------------
 BYTE   W96
// 037   ----------------------------------------
 BYTE   W96
// 038   ----------------------------------------
 BYTE   W96
// 039   ----------------------------------------
 BYTE   W96
// 040   ----------------------------------------
 BYTE   PATT
  POIN2 Label_7_014AE56A
// 041   ----------------------------------------
Label_7_014AE5E2:
 BYTE   N05  Bn0  v092
 BYTE   W12
 BYTE   N05
 BYTE   W12
 BYTE   N05
 BYTE   W12
 BYTE   N05
 BYTE   W12
 BYTE   N05
 BYTE   W12
 BYTE   N05
 BYTE   W12
 BYTE   N05
 BYTE   W12
 BYTE   N05
 BYTE   W12
 BYTE   PEND 
// 042   ----------------------------------------
Label_7_014AE5F5:
 BYTE   N05  Ds1  v092
 BYTE   W12
 BYTE   N05
 BYTE   W12
 BYTE   N05
 BYTE   W12
 BYTE   N05
 BYTE   W12
 BYTE   N05
 BYTE   W12
 BYTE   N05
 BYTE   W12
 BYTE   N05
 BYTE   W12
 BYTE   N05
 BYTE   W12
 BYTE   PEND 
// 043   ----------------------------------------
Label_7_014AE608:
 BYTE   N05  En1  v092
 BYTE   W12
 BYTE   N05
 BYTE   W12
 BYTE   N05
 BYTE   W12
 BYTE   N05
 BYTE   W12
 BYTE   N05
 BYTE   W12
 BYTE   N05
 BYTE   W12
 BYTE   N05
 BYTE   W12
 BYTE   N05
 BYTE   W12
 BYTE   PEND 
// 044   ----------------------------------------
 BYTE   PATT
  POIN2 Label_7_014AE56A
// 045   ----------------------------------------
 BYTE   PATT
  POIN2 Label_7_014AE5E2
// 046   ----------------------------------------
 BYTE   PATT
  POIN2 Label_7_014AE548
// 047   ----------------------------------------
 BYTE   PATT
  POIN2 Label_7_014AE548
// 048   ----------------------------------------
 BYTE   PATT
  POIN2 Label_7_014AE56A
// 049   ----------------------------------------
 BYTE   PATT
  POIN2 Label_7_014AE5E2
// 050   ----------------------------------------
 BYTE   PATT
  POIN2 Label_7_014AE5F5
// 051   ----------------------------------------
 BYTE   PATT
  POIN2 Label_7_014AE608
// 052   ----------------------------------------
 BYTE   W96
// 053   ----------------------------------------
 BYTE   W96
// 054   ----------------------------------------
 BYTE   W96
// 055   ----------------------------------------
 BYTE   W96
// 056   ----------------------------------------
 BYTE   PATT
  POIN2 Label_7_014AE548
// 057   ----------------------------------------
Label_7_014AE64C:
 BYTE   N05  An0  v092
 BYTE   W12
 BYTE   N05
 BYTE   W12
 BYTE   N05
 BYTE   W12
 BYTE   N05
 BYTE   W12
 BYTE   N05
 BYTE   W12
 BYTE   N05
 BYTE   W12
 BYTE   N05
 BYTE   W12
 BYTE   N05
 BYTE   W12
 BYTE   PEND 
// 058   ----------------------------------------
 BYTE   PATT
  POIN2 Label_7_014AE582
// 059   ----------------------------------------
Label_7_014AE664:
 BYTE   N05  Gn0  v092
 BYTE   W12
 BYTE   N05
 BYTE   W12
 BYTE   N05
 BYTE   W12
 BYTE   N05
 BYTE   W12
 BYTE   N05
 BYTE   W12
 BYTE   N05
 BYTE   W12
 BYTE   N05
 BYTE   W12
 BYTE   N05
 BYTE   W12
 BYTE   PEND 
// 060   ----------------------------------------
 BYTE   PATT
  POIN2 Label_7_014AE56A
// 061   ----------------------------------------
 BYTE   PATT
  POIN2 Label_7_014AE56A
// 062   ----------------------------------------
 BYTE   PATT
  POIN2 Label_7_014AE5E2
// 063   ----------------------------------------
 BYTE   PATT
  POIN2 Label_7_014AE5F5
// 064   ----------------------------------------
 BYTE   PATT
  POIN2 Label_7_014AE548
// 065   ----------------------------------------
 BYTE   PATT
  POIN2 Label_7_014AE64C
// 066   ----------------------------------------
 BYTE   PATT
  POIN2 Label_7_014AE582
// 067   ----------------------------------------
 BYTE   PATT
  POIN2 Label_7_014AE664
// 068   ----------------------------------------
 BYTE   PATT
  POIN2 Label_7_014AE56A
// 069   ----------------------------------------
 BYTE   PATT
  POIN2 Label_7_014AE56A
// 070   ----------------------------------------
 BYTE   PATT
  POIN2 Label_7_014AE5E2
// 071   ----------------------------------------
Label_7_014AE6AE:
 BYTE   N05  Ds1  v092
 BYTE   W12
 BYTE   N05
 BYTE   W12
 BYTE   N05
 BYTE   W12
 BYTE   N05
 BYTE   W12
 BYTE   Bn0
 BYTE   W12
 BYTE   N05
 BYTE   W12
 BYTE   N05
 BYTE   W12
 BYTE   N05
 BYTE   W12
 BYTE   PEND 
// 072   ----------------------------------------
Label_7_014AE6C1:
 BYTE   N17  En1  v108
 BYTE   W24
 BYTE   En1  v092
 BYTE   W72
 BYTE   PEND 
// 073   ----------------------------------------
 BYTE   W96
// 074   ----------------------------------------
 BYTE   W96
// 075   ----------------------------------------
 BYTE   W96
// 076   ----------------------------------------
 BYTE   PATT
  POIN2 Label_7_014AE6C1
// 077   ----------------------------------------
 BYTE   W96
// 078   ----------------------------------------
 BYTE   W96
// 079   ----------------------------------------
 BYTE   N11  An1  v092
 BYTE   W12
 BYTE   Gn1
 BYTE   W12
 BYTE   Fs1
 BYTE   W12
 BYTE   En1
 BYTE   W12
 BYTE   Dn1
 BYTE   W12
 BYTE   Cn1
 BYTE   W12
 BYTE   Bn0
 BYTE   W12
 BYTE   An0
 BYTE   W12
// 080   ----------------------------------------
 BYTE   PATT
  POIN2 Label_7_014AE548
// 081   ----------------------------------------
 BYTE   PATT
  POIN2 Label_7_014AE548
// 082   ----------------------------------------
 BYTE   PATT
  POIN2 Label_7_014AE548
// 083   ----------------------------------------
 BYTE   PATT
  POIN2 Label_7_014AE548
// 084   ----------------------------------------
 BYTE   PATT
  POIN2 Label_7_014AE56A
// 085   ----------------------------------------
 BYTE   PATT
  POIN2 Label_7_014AE56A
// 086   ----------------------------------------
 BYTE   PATT
  POIN2 Label_7_014AE582
// 087   ----------------------------------------
 BYTE   PATT
  POIN2 Label_7_014AE582
// 088   ----------------------------------------
 BYTE   PATT
  POIN2 Label_7_014AE548
// 089   ----------------------------------------
 BYTE   PATT
  POIN2 Label_7_014AE548
// 090   ----------------------------------------
 BYTE   PATT
  POIN2 Label_7_014AE548
// 091   ----------------------------------------
 BYTE   PATT
  POIN2 Label_7_014AE548
// 092   ----------------------------------------
 BYTE   PATT
  POIN2 Label_7_014AE56A
// 093   ----------------------------------------
Label_7_014AE726:
 BYTE   N05  Bn0  v092
 BYTE   W12
 BYTE   N05
 BYTE   W12
 BYTE   N05
 BYTE   W12
 BYTE   N05
 BYTE   W12
 BYTE   N05
 BYTE   W12
 BYTE   N05
 BYTE   W12
 BYTE   N05
 BYTE   W12
 BYTE   N05
 BYTE   W11
 BYTE   N05
 BYTE   W01
 BYTE   PEND 
// 094   ----------------------------------------
Label_7_014AE73B:
 BYTE   W11
 BYTE   N05  Bn0  v092
 BYTE   W12
 BYTE   N05
 BYTE   W12
 BYTE   N05
 BYTE   W12
 BYTE   N05
 BYTE   W12
 BYTE   N05
 BYTE   W12
 BYTE   N05
 BYTE   W13
 BYTE   N05
 BYTE   W12
 BYTE   PEND 
// 095   ----------------------------------------
 BYTE   PATT
  POIN2 Label_7_014AE5E2
// 096   ----------------------------------------
 BYTE   PATT
  POIN2 Label_7_014AE548
// 097   ----------------------------------------
 BYTE   PATT
  POIN2 Label_7_014AE64C
// 098   ----------------------------------------
 BYTE   PATT
  POIN2 Label_7_014AE582
// 099   ----------------------------------------
 BYTE   PATT
  POIN2 Label_7_014AE664
// 100   ----------------------------------------
 BYTE   PATT
  POIN2 Label_7_014AE56A
// 101   ----------------------------------------
 BYTE   PATT
  POIN2 Label_7_014AE56A
// 102   ----------------------------------------
 BYTE   PATT
  POIN2 Label_7_014AE5E2
// 103   ----------------------------------------
 BYTE   PATT
  POIN2 Label_7_014AE5F5
// 104   ----------------------------------------
 BYTE   PATT
  POIN2 Label_7_014AE548
// 105   ----------------------------------------
 BYTE   PATT
  POIN2 Label_7_014AE64C
// 106   ----------------------------------------
 BYTE   PATT
  POIN2 Label_7_014AE582
// 107   ----------------------------------------
 BYTE   PATT
  POIN2 Label_7_014AE664
// 108   ----------------------------------------
 BYTE   PATT
  POIN2 Label_7_014AE56A
// 109   ----------------------------------------
 BYTE   PATT
  POIN2 Label_7_014AE56A
// 110   ----------------------------------------
 BYTE   PATT
  POIN2 Label_7_014AE5E2
// 111   ----------------------------------------
 BYTE   PATT
  POIN2 Label_7_014AE6AE
// 112   ----------------------------------------
 BYTE   PATT
  POIN2 Label_7_014AE548
// 113   ----------------------------------------
 BYTE   PATT
  POIN2 Label_7_014AE548
// 114   ----------------------------------------
 BYTE   PATT
  POIN2 Label_7_014AE548
// 115   ----------------------------------------
 BYTE   PATT
  POIN2 Label_7_014AE548
// 116   ----------------------------------------
 BYTE   PATT
  POIN2 Label_7_014AE56A
// 117   ----------------------------------------
 BYTE   PATT
  POIN2 Label_7_014AE56A
// 118   ----------------------------------------
 BYTE   PATT
  POIN2 Label_7_014AE582
// 119   ----------------------------------------
 BYTE   PATT
  POIN2 Label_7_014AE582
// 120   ----------------------------------------
 BYTE   PATT
  POIN2 Label_7_014AE548
// 121   ----------------------------------------
 BYTE   PATT
  POIN2 Label_7_014AE548
// 122   ----------------------------------------
 BYTE   PATT
  POIN2 Label_7_014AE548
// 123   ----------------------------------------
 BYTE   PATT
  POIN2 Label_7_014AE548
// 124   ----------------------------------------
 BYTE   PATT
  POIN2 Label_7_014AE56A
// 125   ----------------------------------------
 BYTE   PATT
  POIN2 Label_7_014AE726
// 126   ----------------------------------------
 BYTE   PATT
  POIN2 Label_7_014AE73B
// 127   ----------------------------------------
 BYTE   PATT
  POIN2 Label_7_014AE5E2
// 128   ----------------------------------------
 BYTE   PATT
  POIN2 Label_7_014AE548
// 129   ----------------------------------------
 BYTE   PATT
  POIN2 Label_7_014AE64C
// 130   ----------------------------------------
 BYTE   PATT
  POIN2 Label_7_014AE582
// 131   ----------------------------------------
 BYTE   PATT
  POIN2 Label_7_014AE664
// 132   ----------------------------------------
 BYTE   PATT
  POIN2 Label_7_014AE56A
// 133   ----------------------------------------
 BYTE   PATT
  POIN2 Label_7_014AE56A
// 134   ----------------------------------------
 BYTE   PATT
  POIN2 Label_7_014AE5E2
// 135   ----------------------------------------
 BYTE   PATT
  POIN2 Label_7_014AE5F5
// 136   ----------------------------------------
 BYTE   PATT
  POIN2 Label_7_014AE548
// 137   ----------------------------------------
 BYTE   PATT
  POIN2 Label_7_014AE64C
// 138   ----------------------------------------
 BYTE   PATT
  POIN2 Label_7_014AE582
// 139   ----------------------------------------
 BYTE   PATT
  POIN2 Label_7_014AE664
// 140   ----------------------------------------
 BYTE   PATT
  POIN2 Label_7_014AE56A
// 141   ----------------------------------------
 BYTE   PATT
  POIN2 Label_7_014AE56A
// 142   ----------------------------------------
 BYTE   PATT
  POIN2 Label_7_014AE5E2
// 143   ----------------------------------------
 BYTE   PATT
  POIN2 Label_7_014AE6AE
// 144   ----------------------------------------
 BYTE   GoTo
  POIN2 Label_7_014AE53C
// 145   ----------------------------------------
 BYTE   W96
// 146   ----------------------------------------
 BYTE   W96
// 147   ----------------------------------------
 BYTE   W96
// 148   ----------------------------------------
 BYTE   W96
// 149   ----------------------------------------
 BYTE   W96
// 150   ----------------------------------------
 BYTE   W96
// 151   ----------------------------------------
 BYTE   W96
// 152   ----------------------------------------
 BYTE   W96
// 153   ----------------------------------------
 BYTE   W96
// 154   ----------------------------------------
 BYTE   W96
// 155   ----------------------------------------
 BYTE   W96
// 156   ----------------------------------------
 BYTE   W96
// 157   ----------------------------------------
 BYTE   W96
// 158   ----------------------------------------
 BYTE   W96
// 159   ----------------------------------------
 BYTE   W96
// 160   ----------------------------------------
 BYTE   W96
// 161   ----------------------------------------
 BYTE   W96
// 162   ----------------------------------------
 BYTE   W96
// 163   ----------------------------------------
 BYTE   W96
// 164   ----------------------------------------
 BYTE   W96
// 165   ----------------------------------------
 BYTE   W96
// 166   ----------------------------------------
 BYTE   W23
 BYTE   FINE

//**************** Track 9 (Midi-Chn.8) ****************//

GuiltyGearXMilliaRagesThemeMeatOfJustice_009:
// 000   ----------------------------------------
 BYTE   KEYSH   GuiltyGearXMilliaRagesThemeMeatOfJustice_key+0
 BYTE   VOICE   30
 BYTE   PAN   c_v-12
 BYTE   VOL   45*GuiltyGearXMilliaRagesThemeMeatOfJustice_mvl/mxv
 BYTE   W96
// 001   ----------------------------------------
 BYTE   W96
// 002   ----------------------------------------
 BYTE   W96
// 003   ----------------------------------------
 BYTE   W96
// 004   ----------------------------------------
 BYTE   W96
// 005   ----------------------------------------
 BYTE   W96
// 006   ----------------------------------------
 BYTE   W96
// 007   ----------------------------------------
 BYTE   W96
// 008   ----------------------------------------
Label_8_014ADD40:
 BYTE   W96
// 009   ----------------------------------------
 BYTE   W96
// 010   ----------------------------------------
 BYTE   W96
// 011   ----------------------------------------
 BYTE   W96
// 012   ----------------------------------------
 BYTE   W96
// 013   ----------------------------------------
 BYTE   W96
// 014   ----------------------------------------
 BYTE   W96
// 015   ----------------------------------------
 BYTE   W96
// 016   ----------------------------------------
 BYTE   W96
// 017   ----------------------------------------
 BYTE   W96
// 018   ----------------------------------------
 BYTE   W96
// 019   ----------------------------------------
 BYTE   W96
// 020   ----------------------------------------
Label_8_014ADD4C:
 BYTE   N23  En1  v092
 BYTE   W24
 BYTE   N05
 BYTE   W12
 BYTE   N05
 BYTE   W12
 BYTE   N05
 BYTE   W12
 BYTE   N05
 BYTE   W12
 BYTE   N05
 BYTE   W12
 BYTE   N05
 BYTE   W12
 BYTE   PEND 
// 021   ----------------------------------------
Label_8_014ADD5D:
 BYTE   N05  En1  v092
 BYTE   W12
 BYTE   N05
 BYTE   W12
 BYTE   N05
 BYTE   W12
 BYTE   N05
 BYTE   W12
 BYTE   N05
 BYTE   W12
 BYTE   N05
 BYTE   W12
 BYTE   N05
 BYTE   W12
 BYTE   N05
 BYTE   W12
 BYTE   PEND 
// 022   ----------------------------------------
 BYTE   PATT
  POIN2 Label_8_014ADD5D
// 023   ----------------------------------------
 BYTE   PATT
  POIN2 Label_8_014ADD5D
// 024   ----------------------------------------
Label_8_014ADD7A:
 BYTE   N23  Cn2  v092
 BYTE   W24
 BYTE   N05
 BYTE   W12
 BYTE   N05
 BYTE   W12
 BYTE   N05
 BYTE   W12
 BYTE   N05
 BYTE   W12
 BYTE   N05
 BYTE   W12
 BYTE   N05
 BYTE   W12
 BYTE   PEND 
// 025   ----------------------------------------
Label_8_014ADD8B:
 BYTE   N05  Cn2  v092
 BYTE   W12
 BYTE   N05
 BYTE   W12
 BYTE   N05
 BYTE   W12
 BYTE   N05
 BYTE   W12
 BYTE   N05
 BYTE   W12
 BYTE   N05
 BYTE   W12
 BYTE   N05
 BYTE   W12
 BYTE   N05
 BYTE   W12
 BYTE   PEND 
// 026   ----------------------------------------
Label_8_014ADD9E:
 BYTE   N23  Dn2  v092
 BYTE   W24
 BYTE   N05
 BYTE   W12
 BYTE   N05
 BYTE   W12
 BYTE   N05
 BYTE   W12
 BYTE   N05
 BYTE   W12
 BYTE   N05
 BYTE   W12
 BYTE   N05
 BYTE   W12
 BYTE   PEND 
// 027   ----------------------------------------
Label_8_014ADDAF:
 BYTE   N05  Dn2  v092
 BYTE   W12
 BYTE   N05
 BYTE   W12
 BYTE   N05
 BYTE   W12
 BYTE   N05
 BYTE   W12
 BYTE   N05
 BYTE   W12
 BYTE   N05
 BYTE   W12
 BYTE   N05
 BYTE   W12
 BYTE   N05
 BYTE   W12
 BYTE   PEND 
// 028   ----------------------------------------
 BYTE   VOL   49*GuiltyGearXMilliaRagesThemeMeatOfJustice_mvl/mxv
 BYTE   N11  En1
 BYTE   W24
 BYTE   N11
 BYTE   W24
 BYTE   N11
 BYTE   W24
 BYTE   N11
 BYTE   W24
// 029   ----------------------------------------
Label_8_014ADDCD:
 BYTE   N11  En1  v092
 BYTE   W24
 BYTE   N11
 BYTE   W24
 BYTE   N11
 BYTE   W48
 BYTE   PEND 
// 030   ----------------------------------------
Label_8_014ADDD6:
 BYTE   N11  En1  v092
 BYTE   W24
 BYTE   N11
 BYTE   W24
 BYTE   N11
 BYTE   W24
 BYTE   N11
 BYTE   W24
 BYTE   PEND 
// 031   ----------------------------------------
 BYTE   PATT
  POIN2 Label_8_014ADDD6
// 032   ----------------------------------------
 BYTE   PATT
  POIN2 Label_8_014ADDD6
// 033   ----------------------------------------
 BYTE   PATT
  POIN2 Label_8_014ADDCD
// 034   ----------------------------------------
 BYTE   PATT
  POIN2 Label_8_014ADDD6
// 035   ----------------------------------------
 BYTE   PATT
  POIN2 Label_8_014ADDD6
// 036   ----------------------------------------
 BYTE   W96
// 037   ----------------------------------------
 BYTE   W96
// 038   ----------------------------------------
 BYTE   W96
// 039   ----------------------------------------
 BYTE   W96
// 040   ----------------------------------------
 BYTE   VOL   41*GuiltyGearXMilliaRagesThemeMeatOfJustice_mvl/mxv
 BYTE   N23  Cn2  v092
 BYTE   W24
 BYTE   N05
 BYTE   W12
 BYTE   N05
 BYTE   W12
 BYTE   N05
 BYTE   W12
 BYTE   N05
 BYTE   W12
 BYTE   N05
 BYTE   W12
 BYTE   N05
 BYTE   W12
// 041   ----------------------------------------
Label_8_014ADE10:
 BYTE   N23  Bn1  v092
 BYTE   W24
 BYTE   N05
 BYTE   W12
 BYTE   N05
 BYTE   W12
 BYTE   N05
 BYTE   W12
 BYTE   N05
 BYTE   W12
 BYTE   N05
 BYTE   W12
 BYTE   N05
 BYTE   W12
 BYTE   PEND 
// 042   ----------------------------------------
Label_8_014ADE21:
 BYTE   N23  Ds2  v092
 BYTE   W24
 BYTE   N05
 BYTE   W12
 BYTE   N05
 BYTE   W12
 BYTE   N05
 BYTE   W12
 BYTE   N05
 BYTE   W12
 BYTE   N05
 BYTE   W12
 BYTE   N05
 BYTE   W12
 BYTE   PEND 
// 043   ----------------------------------------
Label_8_014ADE32:
 BYTE   N23  En2  v092
 BYTE   W24
 BYTE   N05
 BYTE   W12
 BYTE   N05
 BYTE   W12
 BYTE   N05
 BYTE   W12
 BYTE   N05
 BYTE   W12
 BYTE   N05
 BYTE   W12
 BYTE   N05
 BYTE   W12
 BYTE   PEND 
// 044   ----------------------------------------
 BYTE   PATT
  POIN2 Label_8_014ADD7A
// 045   ----------------------------------------
 BYTE   PATT
  POIN2 Label_8_014ADE10
// 046   ----------------------------------------
 BYTE   PATT
  POIN2 Label_8_014ADD4C
// 047   ----------------------------------------
 BYTE   PATT
  POIN2 Label_8_014ADD5D
// 048   ----------------------------------------
 BYTE   PATT
  POIN2 Label_8_014ADD7A
// 049   ----------------------------------------
 BYTE   PATT
  POIN2 Label_8_014ADE10
// 050   ----------------------------------------
 BYTE   PATT
  POIN2 Label_8_014ADE21
// 051   ----------------------------------------
 BYTE   PATT
  POIN2 Label_8_014ADE32
// 052   ----------------------------------------
 BYTE   W96
// 053   ----------------------------------------
 BYTE   W96
// 054   ----------------------------------------
 BYTE   W96
// 055   ----------------------------------------
 BYTE   W96
// 056   ----------------------------------------
Label_8_014ADE6F:
 BYTE   VOL   49*GuiltyGearXMilliaRagesThemeMeatOfJustice_mvl/mxv
 BYTE   N23  En1  v092
 BYTE   W24
 BYTE   N05
 BYTE   W12
 BYTE   N05
 BYTE   W12
 BYTE   N05
 BYTE   W12
 BYTE   N05
 BYTE   W12
 BYTE   N05
 BYTE   W12
 BYTE   N05
 BYTE   W12
 BYTE   PEND 
// 057   ----------------------------------------
Label_8_014ADE82:
 BYTE   N23  An1  v092
 BYTE   W24
 BYTE   N05
 BYTE   W12
 BYTE   N05
 BYTE   W12
 BYTE   N05
 BYTE   W12
 BYTE   N05
 BYTE   W12
 BYTE   N05
 BYTE   W12
 BYTE   N05
 BYTE   W12
 BYTE   PEND 
// 058   ----------------------------------------
 BYTE   PATT
  POIN2 Label_8_014ADD9E
// 059   ----------------------------------------
Label_8_014ADE98:
 BYTE   N23  Gn1  v092
 BYTE   W24
 BYTE   N05
 BYTE   W12
 BYTE   N05
 BYTE   W12
 BYTE   N05
 BYTE   W12
 BYTE   N05
 BYTE   W12
 BYTE   N05
 BYTE   W12
 BYTE   N05
 BYTE   W12
 BYTE   PEND 
// 060   ----------------------------------------
 BYTE   PATT
  POIN2 Label_8_014ADD7A
// 061   ----------------------------------------
 BYTE   PATT
  POIN2 Label_8_014ADD8B
// 062   ----------------------------------------
Label_8_014ADEB3:
 BYTE   N05  Bn1  v092
 BYTE   W12
 BYTE   N05
 BYTE   W12
 BYTE   N05
 BYTE   W12
 BYTE   N05
 BYTE   W12
 BYTE   N05
 BYTE   W12
 BYTE   N05
 BYTE   W12
 BYTE   N05
 BYTE   W12
 BYTE   N05
 BYTE   W12
 BYTE   PEND 
// 063   ----------------------------------------
Label_8_014ADEC6:
 BYTE   N05  Ds2  v092
 BYTE   W12
 BYTE   N05
 BYTE   W12
 BYTE   N05
 BYTE   W12
 BYTE   N05
 BYTE   W12
 BYTE   N05
 BYTE   W12
 BYTE   N05
 BYTE   W12
 BYTE   N05
 BYTE   W12
 BYTE   N05
 BYTE   W12
 BYTE   PEND 
// 064   ----------------------------------------
 BYTE   PATT
  POIN2 Label_8_014ADD4C
// 065   ----------------------------------------
 BYTE   PATT
  POIN2 Label_8_014ADE82
// 066   ----------------------------------------
 BYTE   PATT
  POIN2 Label_8_014ADD9E
// 067   ----------------------------------------
 BYTE   PATT
  POIN2 Label_8_014ADE98
// 068   ----------------------------------------
 BYTE   PATT
  POIN2 Label_8_014ADD7A
// 069   ----------------------------------------
 BYTE   PATT
  POIN2 Label_8_014ADD8B
// 070   ----------------------------------------
 BYTE   PATT
  POIN2 Label_8_014ADEB3
// 071   ----------------------------------------
Label_8_014ADEFC:
 BYTE   N05  Ds2  v092
 BYTE   W12
 BYTE   N05
 BYTE   W12
 BYTE   N05
 BYTE   W12
 BYTE   N05
 BYTE   W12
 BYTE   Bn1
 BYTE   W12
 BYTE   N05
 BYTE   W12
 BYTE   N05
 BYTE   W12
 BYTE   N05
 BYTE   W12
 BYTE   PEND 
// 072   ----------------------------------------
 BYTE   PATT
  POIN2 Label_8_014ADD5D
// 073   ----------------------------------------
Label_8_014ADF14:
 BYTE   N05  En1  v092
 BYTE   W12
 BYTE   N05
 BYTE   W12
 BYTE   N05
 BYTE   W12
 BYTE   N05
 BYTE   W12
 BYTE   N05
 BYTE   W12
 BYTE   N05
 BYTE   W06
 BYTE   N05
 BYTE   W06
 BYTE   N05
 BYTE   W24
 BYTE   PEND 
// 074   ----------------------------------------
 BYTE   PATT
  POIN2 Label_8_014ADD5D
// 075   ----------------------------------------
Label_8_014ADF2C:
 BYTE   N05  En1  v092
 BYTE   W12
 BYTE   N05
 BYTE   W12
 BYTE   N05
 BYTE   W12
 BYTE   N05
 BYTE   W12
 BYTE   N05
 BYTE   W12
 BYTE   N05
 BYTE   W06
 BYTE   N05
 BYTE   W06
 BYTE   N05
 BYTE   W12
 BYTE   N05
 BYTE   W12
 BYTE   PEND 
// 076   ----------------------------------------
 BYTE   PATT
  POIN2 Label_8_014ADD5D
// 077   ----------------------------------------
 BYTE   PATT
  POIN2 Label_8_014ADF14
// 078   ----------------------------------------
 BYTE   PATT
  POIN2 Label_8_014ADD5D
// 079   ----------------------------------------
 BYTE   PATT
  POIN2 Label_8_014ADF2C
// 080   ----------------------------------------
Label_8_014ADF55:
 BYTE   N05  En1  v092
 BYTE   W12
 BYTE   En1  v072
 BYTE   W12
 BYTE   En1  v092
 BYTE   W12
 BYTE   N05
 BYTE   W12
 BYTE   N05
 BYTE   W12
 BYTE   N05
 BYTE   W12
 BYTE   N05
 BYTE   W12
 BYTE   N05
 BYTE   W12
 BYTE   PEND 
// 081   ----------------------------------------
 BYTE   PATT
  POIN2 Label_8_014ADD5D
// 082   ----------------------------------------
Label_8_014ADF6F:
 BYTE   N05  En1  v072
 BYTE   W12
 BYTE   N05
 BYTE   W12
 BYTE   En1  v092
 BYTE   W12
 BYTE   N05
 BYTE   W12
 BYTE   N05
 BYTE   W12
 BYTE   N05
 BYTE   W12
 BYTE   N05
 BYTE   W12
 BYTE   N05
 BYTE   W12
 BYTE   PEND 
// 083   ----------------------------------------
 BYTE   PATT
  POIN2 Label_8_014ADD5D
// 084   ----------------------------------------
 BYTE   PATT
  POIN2 Label_8_014ADD7A
// 085   ----------------------------------------
 BYTE   PATT
  POIN2 Label_8_014ADD8B
// 086   ----------------------------------------
 BYTE   PATT
  POIN2 Label_8_014ADD9E
// 087   ----------------------------------------
 BYTE   PATT
  POIN2 Label_8_014ADDAF
// 088   ----------------------------------------
Label_8_014ADF9C:
 BYTE   VOL   45*GuiltyGearXMilliaRagesThemeMeatOfJustice_mvl/mxv
 BYTE   N23  En1  v092
 BYTE   N23  En2
 BYTE   W24
 BYTE   N05  En1
 BYTE   N05  En2
 BYTE   W12
 BYTE   En1
 BYTE   N05  En2
 BYTE   W12
 BYTE   En1
 BYTE   N05  En2
 BYTE   W12
 BYTE   En1
 BYTE   N05  En2
 BYTE   W12
 BYTE   En1
 BYTE   N05  En2
 BYTE   W12
 BYTE   En1
 BYTE   N05  En2
 BYTE   W12
 BYTE   PEND 
// 089   ----------------------------------------
Label_8_014ADFBE:
 BYTE   N05  En1  v092
 BYTE   N05  En2
 BYTE   W12
 BYTE   En1
 BYTE   N05  En2
 BYTE   W12
 BYTE   En1
 BYTE   N05  En2
 BYTE   W12
 BYTE   En1
 BYTE   N05  En2
 BYTE   W12
 BYTE   En1
 BYTE   N05  En2
 BYTE   W12
 BYTE   En1
 BYTE   N05  En2
 BYTE   W12
 BYTE   En1
 BYTE   N05  En2
 BYTE   W12
 BYTE   En1
 BYTE   N05  En2
 BYTE   W12
 BYTE   PEND 
// 090   ----------------------------------------
 BYTE   PATT
  POIN2 Label_8_014ADFBE
// 091   ----------------------------------------
 BYTE   PATT
  POIN2 Label_8_014ADFBE
// 092   ----------------------------------------
Label_8_014ADFEB:
 BYTE   VOL   45*GuiltyGearXMilliaRagesThemeMeatOfJustice_mvl/mxv
 BYTE   N23  Cn2  v092
 BYTE   N23  Cn3
 BYTE   W24
 BYTE   N05  Cn2
 BYTE   N05  Cn3
 BYTE   W12
 BYTE   Cn2
 BYTE   N05  Cn3
 BYTE   W12
 BYTE   Cn2
 BYTE   N05  Cn3
 BYTE   W12
 BYTE   Cn2
 BYTE   N05  Cn3
 BYTE   W12
 BYTE   Cn2
 BYTE   N05  Cn3
 BYTE   W12
 BYTE   Cn2
 BYTE   N05  Cn3
 BYTE   W12
 BYTE   PEND 
// 093   ----------------------------------------
Label_8_014AE00D:
 BYTE   N23  Bn1  v092
 BYTE   N23  Bn2
 BYTE   W24
 BYTE   N05  Bn1
 BYTE   N05  Bn2
 BYTE   W12
 BYTE   Bn1
 BYTE   N05  Bn2
 BYTE   W12
 BYTE   Bn1
 BYTE   N05  Bn2
 BYTE   W12
 BYTE   Bn1
 BYTE   N05  Bn2
 BYTE   W12
 BYTE   Bn1
 BYTE   N05  Bn2
 BYTE   W12
 BYTE   Bn1
 BYTE   N05  Bn2
 BYTE   W12
 BYTE   PEND 
// 094   ----------------------------------------
Label_8_014AE02D:
 BYTE   VOL   45*GuiltyGearXMilliaRagesThemeMeatOfJustice_mvl/mxv
 BYTE   N05  Bn1  v092
 BYTE   N05  Bn2
 BYTE   W12
 BYTE   Bn1
 BYTE   N05  Bn2
 BYTE   W12
 BYTE   Bn1
 BYTE   N05  Bn2
 BYTE   W12
 BYTE   Bn1
 BYTE   N05  Bn2
 BYTE   W12
 BYTE   Bn1
 BYTE   N05  Bn2
 BYTE   W12
 BYTE   Bn1
 BYTE   N05  Bn2
 BYTE   W12
 BYTE   Bn1
 BYTE   N05  Bn2
 BYTE   W12
 BYTE   Bn1
 BYTE   N05  Bn2
 BYTE   W12
 BYTE   PEND 
// 095   ----------------------------------------
Label_8_014AE052:
 BYTE   N05  Bn1  v092
 BYTE   N05  Bn2
 BYTE   W12
 BYTE   Bn1
 BYTE   N05  Bn2
 BYTE   W12
 BYTE   Bn1
 BYTE   N05  Bn2
 BYTE   W12
 BYTE   Bn1
 BYTE   N05  Bn2
 BYTE   W12
 BYTE   Bn1
 BYTE   N05  Bn2
 BYTE   W12
 BYTE   Bn1
 BYTE   N05  Bn2
 BYTE   W12
 BYTE   Bn1
 BYTE   N05  Bn2
 BYTE   W12
 BYTE   Bn1
 BYTE   N05  Bn2
 BYTE   W12
 BYTE   PEND 
// 096   ----------------------------------------
 BYTE   PATT
  POIN2 Label_8_014ADE6F
// 097   ----------------------------------------
 BYTE   PATT
  POIN2 Label_8_014ADE82
// 098   ----------------------------------------
 BYTE   PATT
  POIN2 Label_8_014ADD9E
// 099   ----------------------------------------
 BYTE   PATT
  POIN2 Label_8_014ADE98
// 100   ----------------------------------------
 BYTE   PATT
  POIN2 Label_8_014ADD7A
// 101   ----------------------------------------
 BYTE   PATT
  POIN2 Label_8_014ADD8B
// 102   ----------------------------------------
 BYTE   PATT
  POIN2 Label_8_014ADEB3
// 103   ----------------------------------------
 BYTE   PATT
  POIN2 Label_8_014ADEC6
// 104   ----------------------------------------
 BYTE   PATT
  POIN2 Label_8_014ADD4C
// 105   ----------------------------------------
 BYTE   PATT
  POIN2 Label_8_014ADE82
// 106   ----------------------------------------
 BYTE   PATT
  POIN2 Label_8_014ADD9E
// 107   ----------------------------------------
 BYTE   PATT
  POIN2 Label_8_014ADE98
// 108   ----------------------------------------
 BYTE   PATT
  POIN2 Label_8_014ADD7A
// 109   ----------------------------------------
 BYTE   PATT
  POIN2 Label_8_014ADD8B
// 110   ----------------------------------------
 BYTE   PATT
  POIN2 Label_8_014ADEB3
// 111   ----------------------------------------
 BYTE   PATT
  POIN2 Label_8_014ADEFC
// 112   ----------------------------------------
 BYTE   PATT
  POIN2 Label_8_014ADF55
// 113   ----------------------------------------
 BYTE   PATT
  POIN2 Label_8_014ADD5D
// 114   ----------------------------------------
 BYTE   PATT
  POIN2 Label_8_014ADF6F
// 115   ----------------------------------------
 BYTE   PATT
  POIN2 Label_8_014ADD5D
// 116   ----------------------------------------
 BYTE   PATT
  POIN2 Label_8_014ADD7A
// 117   ----------------------------------------
 BYTE   PATT
  POIN2 Label_8_014ADD8B
// 118   ----------------------------------------
 BYTE   PATT
  POIN2 Label_8_014ADD9E
// 119   ----------------------------------------
 BYTE   PATT
  POIN2 Label_8_014ADDAF
// 120   ----------------------------------------
 BYTE   PATT
  POIN2 Label_8_014ADF9C
// 121   ----------------------------------------
 BYTE   PATT
  POIN2 Label_8_014ADFBE
// 122   ----------------------------------------
 BYTE   PATT
  POIN2 Label_8_014ADFBE
// 123   ----------------------------------------
 BYTE   PATT
  POIN2 Label_8_014ADFBE
// 124   ----------------------------------------
 BYTE   PATT
  POIN2 Label_8_014ADFEB
// 125   ----------------------------------------
 BYTE   PATT
  POIN2 Label_8_014AE00D
// 126   ----------------------------------------
 BYTE   PATT
  POIN2 Label_8_014AE02D
// 127   ----------------------------------------
 BYTE   PATT
  POIN2 Label_8_014AE052
// 128   ----------------------------------------
 BYTE   PATT
  POIN2 Label_8_014ADE6F
// 129   ----------------------------------------
 BYTE   PATT
  POIN2 Label_8_014ADE82
// 130   ----------------------------------------
 BYTE   PATT
  POIN2 Label_8_014ADD9E
// 131   ----------------------------------------
 BYTE   PATT
  POIN2 Label_8_014ADE98
// 132   ----------------------------------------
 BYTE   PATT
  POIN2 Label_8_014ADD7A
// 133   ----------------------------------------
 BYTE   PATT
  POIN2 Label_8_014ADD8B
// 134   ----------------------------------------
 BYTE   PATT
  POIN2 Label_8_014ADEB3
// 135   ----------------------------------------
 BYTE   PATT
  POIN2 Label_8_014ADEC6
// 136   ----------------------------------------
 BYTE   PATT
  POIN2 Label_8_014ADD4C
// 137   ----------------------------------------
 BYTE   PATT
  POIN2 Label_8_014ADE82
// 138   ----------------------------------------
 BYTE   PATT
  POIN2 Label_8_014ADD9E
// 139   ----------------------------------------
 BYTE   PATT
  POIN2 Label_8_014ADE98
// 140   ----------------------------------------
 BYTE   PATT
  POIN2 Label_8_014ADD7A
// 141   ----------------------------------------
 BYTE   PATT
  POIN2 Label_8_014ADD8B
// 142   ----------------------------------------
 BYTE   PATT
  POIN2 Label_8_014ADEB3
// 143   ----------------------------------------
 BYTE   PATT
  POIN2 Label_8_014ADEFC
// 144   ----------------------------------------
 BYTE   GoTo
  POIN2 Label_8_014ADD40
// 145   ----------------------------------------
 BYTE   W96
// 146   ----------------------------------------
 BYTE   W96
// 147   ----------------------------------------
 BYTE   W96
// 148   ----------------------------------------
 BYTE   W96
// 149   ----------------------------------------
 BYTE   W96
// 150   ----------------------------------------
 BYTE   W96
// 151   ----------------------------------------
 BYTE   W96
// 152   ----------------------------------------
 BYTE   W96
// 153   ----------------------------------------
 BYTE   W96
// 154   ----------------------------------------
 BYTE   W96
// 155   ----------------------------------------
 BYTE   W96
// 156   ----------------------------------------
 BYTE   W96
// 157   ----------------------------------------
 BYTE   W96
// 158   ----------------------------------------
 BYTE   W96
// 159   ----------------------------------------
 BYTE   W96
// 160   ----------------------------------------
 BYTE   W96
// 161   ----------------------------------------
 BYTE   W96
// 162   ----------------------------------------
 BYTE   W96
// 163   ----------------------------------------
 BYTE   W96
// 164   ----------------------------------------
 BYTE   W96
// 165   ----------------------------------------
 BYTE   W96
// 166   ----------------------------------------
 BYTE   W23
 BYTE   FINE

//**************** Track 10 (Midi-Chn.9) ****************//

GuiltyGearXMilliaRagesThemeMeatOfJustice_010:
// 000   ----------------------------------------
 BYTE   KEYSH   GuiltyGearXMilliaRagesThemeMeatOfJustice_key+0
 BYTE   VOICE   39
 BYTE   PAN   c_v-12
 BYTE   VOL   50*GuiltyGearXMilliaRagesThemeMeatOfJustice_mvl/mxv
 BYTE   W96
// 001   ----------------------------------------
 BYTE   W96
// 002   ----------------------------------------
 BYTE   W96
// 003   ----------------------------------------
 BYTE   W96
// 004   ----------------------------------------
 BYTE   W96
// 005   ----------------------------------------
 BYTE   W96
// 006   ----------------------------------------
 BYTE   W96
// 007   ----------------------------------------
 BYTE   W96
// 008   ----------------------------------------
Label_9_01023780:
 BYTE   W96
// 009   ----------------------------------------
 BYTE   W96
// 010   ----------------------------------------
 BYTE   W96
// 011   ----------------------------------------
 BYTE   W96
// 012   ----------------------------------------
 BYTE   W96
// 013   ----------------------------------------
 BYTE   W96
// 014   ----------------------------------------
 BYTE   W96
// 015   ----------------------------------------
 BYTE   W96
// 016   ----------------------------------------
 BYTE   W96
// 017   ----------------------------------------
 BYTE   W96
// 018   ----------------------------------------
 BYTE   W96
// 019   ----------------------------------------
 BYTE   W96
// 020   ----------------------------------------
Label_9_0102378C:
 BYTE   N23  En2  v060
 BYTE   W24
 BYTE   N05
 BYTE   W12
 BYTE   N05
 BYTE   W12
 BYTE   N05
 BYTE   W12
 BYTE   N05
 BYTE   W12
 BYTE   N05
 BYTE   W12
 BYTE   N05
 BYTE   W12
 BYTE   PEND 
// 021   ----------------------------------------
Label_9_0102379D:
 BYTE   N05  En2  v060
 BYTE   W12
 BYTE   N05
 BYTE   W12
 BYTE   N05
 BYTE   W12
 BYTE   N05
 BYTE   W12
 BYTE   N05
 BYTE   W12
 BYTE   N05
 BYTE   W12
 BYTE   N05
 BYTE   W12
 BYTE   N05
 BYTE   W12
 BYTE   PEND 
// 022   ----------------------------------------
 BYTE   PATT
  POIN2 Label_9_0102379D
// 023   ----------------------------------------
 BYTE   PATT
  POIN2 Label_9_0102379D
// 024   ----------------------------------------
Label_9_010237BA:
 BYTE   N23  Cn3  v060
 BYTE   W24
 BYTE   N05
 BYTE   W12
 BYTE   N05
 BYTE   W12
 BYTE   N05
 BYTE   W12
 BYTE   N05
 BYTE   W12
 BYTE   N05
 BYTE   W12
 BYTE   N05
 BYTE   W12
 BYTE   PEND 
// 025   ----------------------------------------
 BYTE   N05
 BYTE   W12
 BYTE   N05
 BYTE   W12
 BYTE   N05
 BYTE   W12
 BYTE   N05
 BYTE   W12
 BYTE   N05
 BYTE   W12
 BYTE   N05
 BYTE   W12
 BYTE   N05
 BYTE   W12
 BYTE   N05
 BYTE   W12
// 026   ----------------------------------------
 BYTE   N23  Dn3
 BYTE   W24
 BYTE   N05
 BYTE   W12
 BYTE   N05
 BYTE   W12
 BYTE   N05
 BYTE   W12
 BYTE   N05
 BYTE   W12
 BYTE   N05
 BYTE   W12
 BYTE   N05
 BYTE   W12
// 027   ----------------------------------------
 BYTE   N05
 BYTE   W12
 BYTE   N05
 BYTE   W12
 BYTE   N05
 BYTE   W12
 BYTE   N05
 BYTE   W12
 BYTE   N05
 BYTE   W12
 BYTE   N05
 BYTE   W12
 BYTE   N05
 BYTE   W12
 BYTE   N05
 BYTE   W12
// 028   ----------------------------------------
 BYTE   W96
// 029   ----------------------------------------
 BYTE   W96
// 030   ----------------------------------------
 BYTE   W96
// 031   ----------------------------------------
 BYTE   W96
// 032   ----------------------------------------
 BYTE   W96
// 033   ----------------------------------------
 BYTE   W96
// 034   ----------------------------------------
 BYTE   W96
// 035   ----------------------------------------
 BYTE   W96
// 036   ----------------------------------------
 BYTE   W96
// 037   ----------------------------------------
 BYTE   W96
// 038   ----------------------------------------
 BYTE   W96
// 039   ----------------------------------------
 BYTE   W96
// 040   ----------------------------------------
 BYTE   PATT
  POIN2 Label_9_010237BA
// 041   ----------------------------------------
Label_9_0102380B:
 BYTE   N23  Bn2  v060
 BYTE   W24
 BYTE   N05
 BYTE   W12
 BYTE   N05
 BYTE   W12
 BYTE   N05
 BYTE   W12
 BYTE   N05
 BYTE   W12
 BYTE   N05
 BYTE   W12
 BYTE   N05
 BYTE   W12
 BYTE   PEND 
// 042   ----------------------------------------
Label_9_0102381C:
 BYTE   N23  Ds3  v060
 BYTE   W24
 BYTE   N05
 BYTE   W12
 BYTE   N05
 BYTE   W12
 BYTE   N05
 BYTE   W12
 BYTE   N05
 BYTE   W12
 BYTE   N05
 BYTE   W12
 BYTE   N05
 BYTE   W12
 BYTE   PEND 
// 043   ----------------------------------------
Label_9_0102382D:
 BYTE   N23  En3  v060
 BYTE   W24
 BYTE   N05
 BYTE   W12
 BYTE   N05
 BYTE   W12
 BYTE   N05
 BYTE   W12
 BYTE   N05
 BYTE   W12
 BYTE   N05
 BYTE   W12
 BYTE   N05
 BYTE   W12
 BYTE   PEND 
// 044   ----------------------------------------
 BYTE   PATT
  POIN2 Label_9_010237BA
// 045   ----------------------------------------
 BYTE   PATT
  POIN2 Label_9_0102380B
// 046   ----------------------------------------
 BYTE   PATT
  POIN2 Label_9_0102378C
// 047   ----------------------------------------
 BYTE   PATT
  POIN2 Label_9_0102379D
// 048   ----------------------------------------
 BYTE   PATT
  POIN2 Label_9_010237BA
// 049   ----------------------------------------
 BYTE   PATT
  POIN2 Label_9_0102380B
// 050   ----------------------------------------
 BYTE   PATT
  POIN2 Label_9_0102381C
// 051   ----------------------------------------
 BYTE   PATT
  POIN2 Label_9_0102382D
// 052   ----------------------------------------
 BYTE   W96
// 053   ----------------------------------------
 BYTE   W96
// 054   ----------------------------------------
 BYTE   W96
// 055   ----------------------------------------
 BYTE   W96
// 056   ----------------------------------------
 BYTE   W96
// 057   ----------------------------------------
 BYTE   W96
// 058   ----------------------------------------
 BYTE   W96
// 059   ----------------------------------------
 BYTE   W96
// 060   ----------------------------------------
 BYTE   W96
// 061   ----------------------------------------
 BYTE   W96
// 062   ----------------------------------------
 BYTE   W96
// 063   ----------------------------------------
 BYTE   W96
// 064   ----------------------------------------
 BYTE   W96
// 065   ----------------------------------------
 BYTE   W96
// 066   ----------------------------------------
 BYTE   W96
// 067   ----------------------------------------
 BYTE   W96
// 068   ----------------------------------------
 BYTE   W96
// 069   ----------------------------------------
 BYTE   W96
// 070   ----------------------------------------
 BYTE   W96
// 071   ----------------------------------------
 BYTE   W96
// 072   ----------------------------------------
 BYTE   W96
// 073   ----------------------------------------
 BYTE   W96
// 074   ----------------------------------------
 BYTE   W96
// 075   ----------------------------------------
 BYTE   W96
// 076   ----------------------------------------
 BYTE   W96
// 077   ----------------------------------------
 BYTE   W96
// 078   ----------------------------------------
 BYTE   W96
// 079   ----------------------------------------
 BYTE   W96
// 080   ----------------------------------------
 BYTE   W96
// 081   ----------------------------------------
 BYTE   W96
// 082   ----------------------------------------
 BYTE   W96
// 083   ----------------------------------------
 BYTE   W96
// 084   ----------------------------------------
 BYTE   W96
// 085   ----------------------------------------
 BYTE   W96
// 086   ----------------------------------------
 BYTE   W96
// 087   ----------------------------------------
 BYTE   W96
// 088   ----------------------------------------
 BYTE   W96
// 089   ----------------------------------------
 BYTE   W96
// 090   ----------------------------------------
 BYTE   W96
// 091   ----------------------------------------
 BYTE   W96
// 092   ----------------------------------------
 BYTE   W96
// 093   ----------------------------------------
 BYTE   W96
// 094   ----------------------------------------
 BYTE   W96
// 095   ----------------------------------------
 BYTE   W96
// 096   ----------------------------------------
 BYTE   W96
// 097   ----------------------------------------
 BYTE   W96
// 098   ----------------------------------------
 BYTE   W96
// 099   ----------------------------------------
 BYTE   W96
// 100   ----------------------------------------
 BYTE   W96
// 101   ----------------------------------------
 BYTE   W96
// 102   ----------------------------------------
 BYTE   W96
// 103   ----------------------------------------
 BYTE   W96
// 104   ----------------------------------------
 BYTE   W96
// 105   ----------------------------------------
 BYTE   W96
// 106   ----------------------------------------
 BYTE   W96
// 107   ----------------------------------------
 BYTE   W96
// 108   ----------------------------------------
 BYTE   W96
// 109   ----------------------------------------
 BYTE   W96
// 110   ----------------------------------------
 BYTE   W96
// 111   ----------------------------------------
 BYTE   W96
// 112   ----------------------------------------
 BYTE   W96
// 113   ----------------------------------------
 BYTE   W96
// 114   ----------------------------------------
 BYTE   W96
// 115   ----------------------------------------
 BYTE   W96
// 116   ----------------------------------------
 BYTE   W96
// 117   ----------------------------------------
 BYTE   W96
// 118   ----------------------------------------
 BYTE   W96
// 119   ----------------------------------------
 BYTE   W96
// 120   ----------------------------------------
 BYTE   W96
// 121   ----------------------------------------
 BYTE   W96
// 122   ----------------------------------------
 BYTE   W96
// 123   ----------------------------------------
 BYTE   W96
// 124   ----------------------------------------
 BYTE   W96
// 125   ----------------------------------------
 BYTE   W96
// 126   ----------------------------------------
 BYTE   W96
// 127   ----------------------------------------
 BYTE   W96
// 128   ----------------------------------------
 BYTE   W96
// 129   ----------------------------------------
 BYTE   W96
// 130   ----------------------------------------
 BYTE   W96
// 131   ----------------------------------------
 BYTE   W96
// 132   ----------------------------------------
 BYTE   W96
// 133   ----------------------------------------
 BYTE   W96
// 134   ----------------------------------------
 BYTE   W96
// 135   ----------------------------------------
 BYTE   W96
// 136   ----------------------------------------
 BYTE   W96
// 137   ----------------------------------------
 BYTE   W96
// 138   ----------------------------------------
 BYTE   W96
// 139   ----------------------------------------
 BYTE   W96
// 140   ----------------------------------------
 BYTE   W96
// 141   ----------------------------------------
 BYTE   W96
// 142   ----------------------------------------
 BYTE   W96
// 143   ----------------------------------------
 BYTE   W96
// 144   ----------------------------------------
 BYTE   GoTo
  POIN2 Label_9_01023780
// 145   ----------------------------------------
 BYTE   W96
// 146   ----------------------------------------
 BYTE   W96
// 147   ----------------------------------------
 BYTE   W96
// 148   ----------------------------------------
 BYTE   W96
// 149   ----------------------------------------
 BYTE   W96
// 150   ----------------------------------------
 BYTE   W96
// 151   ----------------------------------------
 BYTE   W96
// 152   ----------------------------------------
 BYTE   W96
// 153   ----------------------------------------
 BYTE   W96
// 154   ----------------------------------------
 BYTE   W96
// 155   ----------------------------------------
 BYTE   W96
// 156   ----------------------------------------
 BYTE   W96
// 157   ----------------------------------------
 BYTE   W96
// 158   ----------------------------------------
 BYTE   W96
// 159   ----------------------------------------
 BYTE   W96
// 160   ----------------------------------------
 BYTE   W96
// 161   ----------------------------------------
 BYTE   W96
// 162   ----------------------------------------
 BYTE   W96
// 163   ----------------------------------------
 BYTE   W96
// 164   ----------------------------------------
 BYTE   W96
// 165   ----------------------------------------
 BYTE   W96
// 166   ----------------------------------------
 BYTE   W23
 BYTE   FINE

//**************** Track 11 (Midi-Chn.10) ****************//

GuiltyGearXMilliaRagesThemeMeatOfJustice_011:
// 000   ----------------------------------------
 BYTE   KEYSH   GuiltyGearXMilliaRagesThemeMeatOfJustice_key+0
 BYTE   VOICE   30
 BYTE   PAN   c_v+0
 BYTE   VOL   50*GuiltyGearXMilliaRagesThemeMeatOfJustice_mvl/mxv
 BYTE   W96
// 001   ----------------------------------------
 BYTE   W96
// 002   ----------------------------------------
 BYTE   W96
// 003   ----------------------------------------
 BYTE   W96
// 004   ----------------------------------------
 BYTE   W96
// 005   ----------------------------------------
 BYTE   W96
// 006   ----------------------------------------
 BYTE   W96
// 007   ----------------------------------------
 BYTE   W96
// 008   ----------------------------------------
Label_10_014AF558:
 BYTE   W96
// 009   ----------------------------------------
 BYTE   W96
// 010   ----------------------------------------
 BYTE   W96
// 011   ----------------------------------------
 BYTE   W96
// 012   ----------------------------------------
 BYTE   W96
// 013   ----------------------------------------
 BYTE   W96
// 014   ----------------------------------------
 BYTE   W96
// 015   ----------------------------------------
 BYTE   W96
// 016   ----------------------------------------
 BYTE   W96
// 017   ----------------------------------------
 BYTE   W96
// 018   ----------------------------------------
 BYTE   W96
// 019   ----------------------------------------
 BYTE   W96
// 020   ----------------------------------------
 BYTE   W96
// 021   ----------------------------------------
 BYTE   W96
// 022   ----------------------------------------
 BYTE   W96
// 023   ----------------------------------------
 BYTE   W96
// 024   ----------------------------------------
 BYTE   W96
// 025   ----------------------------------------
 BYTE   W96
// 026   ----------------------------------------
 BYTE   W96
// 027   ----------------------------------------
 BYTE   W96
// 028   ----------------------------------------
Label_10_014AF56C:
 BYTE   W24
 BYTE   N23  Gn1  v092
 BYTE   N23  Gn2
 BYTE   W36
 BYTE   Gn1
 BYTE   N23  Gn2
 BYTE   W36
 BYTE   PEND 
// 029   ----------------------------------------
Label_10_014AF578:
 BYTE   N23  Gn1  v092
 BYTE   N23  Gn2
 BYTE   W36
 BYTE   Fs1
 BYTE   N23  Fs2
 BYTE   W36
 BYTE   En1
 BYTE   N23  En2
 BYTE   W24
 BYTE   PEND 
// 030   ----------------------------------------
Label_10_014AF587:
 BYTE   W24
 BYTE   N23  Gn1  v092
 BYTE   N23  Gn2
 BYTE   W36
 BYTE   Fs1
 BYTE   N23  Fs2
 BYTE   W36
 BYTE   PEND 
// 031   ----------------------------------------
Label_10_014AF593:
 BYTE   N11  An2  v092
 BYTE   N11  An3
 BYTE   W24
 BYTE   Gn2
 BYTE   N11  Gn3
 BYTE   W24
 BYTE   Fs2
 BYTE   N11  Fs3
 BYTE   W24
 BYTE   N23  Gn2
 BYTE   N23  Gn3
 BYTE   W24
 BYTE   PEND 
// 032   ----------------------------------------
 BYTE   PATT
  POIN2 Label_10_014AF56C
// 033   ----------------------------------------
 BYTE   PATT
  POIN2 Label_10_014AF578
// 034   ----------------------------------------
 BYTE   PATT
  POIN2 Label_10_014AF587
// 035   ----------------------------------------
 BYTE   PATT
  POIN2 Label_10_014AF593
// 036   ----------------------------------------
 BYTE   W96
// 037   ----------------------------------------
 BYTE   W96
// 038   ----------------------------------------
 BYTE   W96
// 039   ----------------------------------------
 BYTE   W96
// 040   ----------------------------------------
 BYTE   W96
// 041   ----------------------------------------
 BYTE   W96
// 042   ----------------------------------------
 BYTE   W96
// 043   ----------------------------------------
 BYTE   W96
// 044   ----------------------------------------
 BYTE   W96
// 045   ----------------------------------------
 BYTE   W96
// 046   ----------------------------------------
 BYTE   W96
// 047   ----------------------------------------
 BYTE   W96
// 048   ----------------------------------------
 BYTE   W96
// 049   ----------------------------------------
 BYTE   W96
// 050   ----------------------------------------
 BYTE   W96
// 051   ----------------------------------------
 BYTE   W96
// 052   ----------------------------------------
 BYTE   W96
// 053   ----------------------------------------
 BYTE   W96
// 054   ----------------------------------------
 BYTE   W96
// 055   ----------------------------------------
Label_10_014AF5CE:
 BYTE   W72
 BYTE   N11  Bn2  v092
 BYTE   N11  En3
 BYTE   W12
 BYTE   Dn3
 BYTE   N11  Fs3
 BYTE   W12
 BYTE   PEND 
// 056   ----------------------------------------
Label_10_014AF5DA:
 BYTE   N44  En3  v092
 BYTE   N02  Fs3  v108
 BYTE   N44  Gn3  v092
 BYTE   W48
 BYTE   Gn2
 BYTE   N44  Bn2
 BYTE   W48
 BYTE   PEND 
// 057   ----------------------------------------
Label_10_014AF5E9:
 BYTE   N44  An2  v092
 BYTE   N44  Cn3
 BYTE   W48
 BYTE   N23  En3
 BYTE   N23  An3
 BYTE   W24
 BYTE   En3
 BYTE   N23  Gn3
 BYTE   W24
 BYTE   PEND 
// 058   ----------------------------------------
Label_10_014AF5F9:
 BYTE   N44  Dn3  v092
 BYTE   N02  En3  v108
 BYTE   N44  Fs3  v092
 BYTE   W48
 BYTE   N23  En3
 BYTE   N23  Gn3
 BYTE   W24
 BYTE   Fs3
 BYTE   N23  An3
 BYTE   W24
 BYTE   PEND 
// 059   ----------------------------------------
Label_10_014AF60D:
 BYTE   N44  Gn3  v092
 BYTE   N02  An3  v108
 BYTE   N44  Bn3  v092
 BYTE   W72
 BYTE   N11  En3
 BYTE   N11  An3
 BYTE   W12
 BYTE   Gn3
 BYTE   N11  Bn3
 BYTE   W12
 BYTE   PEND 
// 060   ----------------------------------------
Label_10_014AF621:
 BYTE   N44  En3  v092
 BYTE   N44  An3
 BYTE   W48
 BYTE   Gn3
 BYTE   N44  Bn3
 BYTE   W48
 BYTE   PEND 
// 061   ----------------------------------------
Label_10_014AF62C:
 BYTE   N23  Bn2  v092
 BYTE   N02  Dn3  v108
 BYTE   N23  En3  v092
 BYTE   W24
 BYTE   Dn3
 BYTE   N23  Fs3
 BYTE   W24
 BYTE   En3
 BYTE   N23  Gn3
 BYTE   W24
 BYTE   En3
 BYTE   N23  An3
 BYTE   W24
 BYTE   PEND 
// 062   ----------------------------------------
Label_10_014AF643:
 BYTE   N44  En3  v092
 BYTE   N02  Fs3  v108
 BYTE   N44  Gn3  v092
 BYTE   W48
 BYTE   Dn3
 BYTE   N44  Fs3
 BYTE   W48
 BYTE   PEND 
// 063   ----------------------------------------
Label_10_014AF652:
 BYTE   N44  An2  v092
 BYTE   N44  En3
 BYTE   W48
 BYTE   N23  Dn3
 BYTE   N02  En3  v108
 BYTE   N23  Fs3  v092
 BYTE   W24
 BYTE   N11  Bn2
 BYTE   N11  En3
 BYTE   W12
 BYTE   Dn3
 BYTE   N11  Fs3
 BYTE   W12
 BYTE   PEND 
// 064   ----------------------------------------
 BYTE   PATT
  POIN2 Label_10_014AF5DA
// 065   ----------------------------------------
Label_10_014AF670:
 BYTE   N44  An2  v092
 BYTE   N44  Cn3
 BYTE   W48
 BYTE   N23  En3
 BYTE   N02  Gn3  v108
 BYTE   N23  An3  v092
 BYTE   W24
 BYTE   En3
 BYTE   N23  Gn3
 BYTE   W24
 BYTE   PEND 
// 066   ----------------------------------------
 BYTE   PATT
  POIN2 Label_10_014AF5F9
// 067   ----------------------------------------
Label_10_014AF689:
 BYTE   N44  En4  v092
 BYTE   N02  Fs4  v108
 BYTE   N44  Gn4  v092
 BYTE   W48
 BYTE   Dn4
 BYTE   N02  En4  v108
 BYTE   N44  Fs4  v092
 BYTE   W48
 BYTE   PEND 
// 068   ----------------------------------------
Label_10_014AF69C:
 BYTE   TIE  Bn3  v092
 BYTE   TIE  En4
 BYTE   W96
 BYTE   PEND 
// 069   ----------------------------------------
 BYTE   W23
 BYTE   EOT
 BYTE   Bn3  v076
 BYTE   W01
 BYTE   N23
 BYTE   N02  Fs4  v108
 BYTE   N23  Gn4  v092
 BYTE   W24
 BYTE   An4
 BYTE   N02  Bn4  v108
 BYTE   N23  Cn5  v092
 BYTE   W24
 BYTE   Gn4
 BYTE   N23  Bn4
 BYTE   W24
// 070   ----------------------------------------
 BYTE   N92  En4
 BYTE   N92  An4
 BYTE   W96
// 071   ----------------------------------------
Label_10_014AF6C1:
 BYTE   N44  En4  v092
 BYTE   N02  Fs4  v108
 BYTE   N44  Gn4  v092
 BYTE   W48
 BYTE   An3
 BYTE   N44  Ds4
 BYTE   W48
 BYTE   PEND 
// 072   ----------------------------------------
Label_10_014AF6D0:
 BYTE   TIE  Bn3  v092
 BYTE   TIE  En4
 BYTE   W24
 BYTE   N23  Gn1
 BYTE   N23  Gn2
 BYTE   W36
 BYTE   Gn1
 BYTE   N23  Gn2
 BYTE   W36
 BYTE   PEND 
// 073   ----------------------------------------
 BYTE   PATT
  POIN2 Label_10_014AF578
// 074   ----------------------------------------
 BYTE   W23
 BYTE   EOT
 BYTE   Bn3  v076
 BYTE   W01
 BYTE   N23  Gn1  v092
 BYTE   N23  Gn2
 BYTE   W36
 BYTE   Fs1
 BYTE   N23  Fs2
 BYTE   W36
// 075   ----------------------------------------
Label_10_014AF6F4:
 BYTE   N11  An2  v092
 BYTE   N11  Fs3
 BYTE   N11  An3
 BYTE   W24
 BYTE   Gn2
 BYTE   N11  En3
 BYTE   N11  Gn3
 BYTE   W24
 BYTE   Fs2
 BYTE   N11  Dn3
 BYTE   N11  Fs3
 BYTE   W24
 BYTE   N23  Gn2
 BYTE   N23  En3
 BYTE   N23  Gn3
 BYTE   W24
 BYTE   PEND 
// 076   ----------------------------------------
 BYTE   PATT
  POIN2 Label_10_014AF56C
// 077   ----------------------------------------
 BYTE   PATT
  POIN2 Label_10_014AF578
// 078   ----------------------------------------
 BYTE   W24
 BYTE   N23  Gn1  v092
 BYTE   N23  Gn2
 BYTE   W36
 BYTE   Fs1
 BYTE   N23  Fs2  v072
 BYTE   W36
// 079   ----------------------------------------
 BYTE   PATT
  POIN2 Label_10_014AF6F4
// 080   ----------------------------------------
 BYTE   PATT
  POIN2 Label_10_014AF56C
// 081   ----------------------------------------
 BYTE   PATT
  POIN2 Label_10_014AF578
// 082   ----------------------------------------
 BYTE   PATT
  POIN2 Label_10_014AF587
// 083   ----------------------------------------
 BYTE   PATT
  POIN2 Label_10_014AF6F4
// 084   ----------------------------------------
 BYTE   PATT
  POIN2 Label_10_014AF56C
// 085   ----------------------------------------
 BYTE   PATT
  POIN2 Label_10_014AF578
// 086   ----------------------------------------
 BYTE   PATT
  POIN2 Label_10_014AF587
// 087   ----------------------------------------
 BYTE   PATT
  POIN2 Label_10_014AF6F4
// 088   ----------------------------------------
 BYTE   W96
// 089   ----------------------------------------
 BYTE   W96
// 090   ----------------------------------------
 BYTE   W96
// 091   ----------------------------------------
 BYTE   W96
// 092   ----------------------------------------
 BYTE   W96
// 093   ----------------------------------------
 BYTE   W96
// 094   ----------------------------------------
 BYTE   W96
// 095   ----------------------------------------
 BYTE   PATT
  POIN2 Label_10_014AF5CE
// 096   ----------------------------------------
 BYTE   PATT
  POIN2 Label_10_014AF5DA
// 097   ----------------------------------------
 BYTE   PATT
  POIN2 Label_10_014AF5E9
// 098   ----------------------------------------
 BYTE   PATT
  POIN2 Label_10_014AF5F9
// 099   ----------------------------------------
 BYTE   PATT
  POIN2 Label_10_014AF60D
// 100   ----------------------------------------
 BYTE   PATT
  POIN2 Label_10_014AF621
// 101   ----------------------------------------
 BYTE   PATT
  POIN2 Label_10_014AF62C
// 102   ----------------------------------------
 BYTE   PATT
  POIN2 Label_10_014AF643
// 103   ----------------------------------------
 BYTE   PATT
  POIN2 Label_10_014AF652
// 104   ----------------------------------------
 BYTE   PATT
  POIN2 Label_10_014AF5DA
// 105   ----------------------------------------
 BYTE   PATT
  POIN2 Label_10_014AF670
// 106   ----------------------------------------
 BYTE   PATT
  POIN2 Label_10_014AF5F9
// 107   ----------------------------------------
 BYTE   PATT
  POIN2 Label_10_014AF689
// 108   ----------------------------------------
 BYTE   PATT
  POIN2 Label_10_014AF69C
// 109   ----------------------------------------
 BYTE   W23
 BYTE   EOT
 BYTE   Bn3  v076
 BYTE   W01
 BYTE   N23  En4  v092
 BYTE   N02  Fs4  v108
 BYTE   N23  Gn4  v092
 BYTE   W24
 BYTE   An4
 BYTE   N02  Bn4  v108
 BYTE   N23  Cn5  v092
 BYTE   W24
 BYTE   Gn4
 BYTE   N23  Bn4
 BYTE   W24
// 110   ----------------------------------------
 BYTE   N92  En4
 BYTE   N92  An4
 BYTE   W96
// 111   ----------------------------------------
 BYTE   PATT
  POIN2 Label_10_014AF6C1
// 112   ----------------------------------------
 BYTE   PATT
  POIN2 Label_10_014AF6D0
// 113   ----------------------------------------
 BYTE   PATT
  POIN2 Label_10_014AF578
// 114   ----------------------------------------
 BYTE   W23
 BYTE   EOT
 BYTE   Bn3  v076
 BYTE   W01
 BYTE   N23  Gn1  v092
 BYTE   N23  Gn2
 BYTE   W36
 BYTE   Fs1
 BYTE   N23  Fs2
 BYTE   W36
// 115   ----------------------------------------
 BYTE   PATT
  POIN2 Label_10_014AF6F4
// 116   ----------------------------------------
 BYTE   PATT
  POIN2 Label_10_014AF56C
// 117   ----------------------------------------
 BYTE   PATT
  POIN2 Label_10_014AF578
// 118   ----------------------------------------
 BYTE   PATT
  POIN2 Label_10_014AF587
// 119   ----------------------------------------
 BYTE   PATT
  POIN2 Label_10_014AF6F4
// 120   ----------------------------------------
 BYTE   W96
// 121   ----------------------------------------
 BYTE   W96
// 122   ----------------------------------------
 BYTE   W96
// 123   ----------------------------------------
 BYTE   W96
// 124   ----------------------------------------
 BYTE   W96
// 125   ----------------------------------------
 BYTE   W96
// 126   ----------------------------------------
 BYTE   W96
// 127   ----------------------------------------
 BYTE   PATT
  POIN2 Label_10_014AF5CE
// 128   ----------------------------------------
 BYTE   PATT
  POIN2 Label_10_014AF5DA
// 129   ----------------------------------------
 BYTE   PATT
  POIN2 Label_10_014AF5E9
// 130   ----------------------------------------
 BYTE   PATT
  POIN2 Label_10_014AF5F9
// 131   ----------------------------------------
 BYTE   PATT
  POIN2 Label_10_014AF60D
// 132   ----------------------------------------
 BYTE   PATT
  POIN2 Label_10_014AF621
// 133   ----------------------------------------
 BYTE   PATT
  POIN2 Label_10_014AF62C
// 134   ----------------------------------------
 BYTE   PATT
  POIN2 Label_10_014AF643
// 135   ----------------------------------------
 BYTE   PATT
  POIN2 Label_10_014AF652
// 136   ----------------------------------------
 BYTE   PATT
  POIN2 Label_10_014AF5DA
// 137   ----------------------------------------
 BYTE   PATT
  POIN2 Label_10_014AF670
// 138   ----------------------------------------
 BYTE   PATT
  POIN2 Label_10_014AF5F9
// 139   ----------------------------------------
 BYTE   PATT
  POIN2 Label_10_014AF689
// 140   ----------------------------------------
 BYTE   PATT
  POIN2 Label_10_014AF69C
// 141   ----------------------------------------
 BYTE   W23
 BYTE   EOT
 BYTE   Bn3  v076
 BYTE   W01
 BYTE   N23  En4  v092
 BYTE   N02  Fs4  v108
 BYTE   N23  Gn4  v092
 BYTE   W24
 BYTE   An4
 BYTE   N02  Bn4  v108
 BYTE   N23  Cn5  v092
 BYTE   W24
 BYTE   Gn4
 BYTE   N23  Bn4
 BYTE   W24
// 142   ----------------------------------------
 BYTE   N92  En4
 BYTE   N92  An4
 BYTE   W96
// 143   ----------------------------------------
 BYTE   PATT
  POIN2 Label_10_014AF6C1
// 144   ----------------------------------------
 BYTE   GoTo
  POIN2 Label_10_014AF558
// 145   ----------------------------------------
 BYTE   TIE  Bn3  v092
 BYTE   N02  Dn4  v108
 BYTE   TIE  En4  v092
 BYTE   W96
// 146   ----------------------------------------
 BYTE   W96
// 147   ----------------------------------------
 BYTE   VOL   46*GuiltyGearXMilliaRagesThemeMeatOfJustice_mvl/mxv
 BYTE   W24
 BYTE   En0
 BYTE   W24
 BYTE   BnM1
 BYTE   W24
 BYTE   FsM1
 BYTE   W23
 BYTE   EOT
 BYTE   Bn3  v076
 BYTE   W01
// 148   ----------------------------------------
 BYTE   W96
// 149   ----------------------------------------
 BYTE   W96
// 150   ----------------------------------------
 BYTE   W96
// 151   ----------------------------------------
 BYTE   W96
// 152   ----------------------------------------
 BYTE   W96
// 153   ----------------------------------------
 BYTE   W96
// 154   ----------------------------------------
 BYTE   W96
// 155   ----------------------------------------
 BYTE   W96
// 156   ----------------------------------------
 BYTE   W96
// 157   ----------------------------------------
 BYTE   W96
// 158   ----------------------------------------
 BYTE   W96
// 159   ----------------------------------------
 BYTE   W96
// 160   ----------------------------------------
 BYTE   W96
// 161   ----------------------------------------
 BYTE   W96
// 162   ----------------------------------------
 BYTE   W96
// 163   ----------------------------------------
 BYTE   W96
// 164   ----------------------------------------
 BYTE   W96
// 165   ----------------------------------------
 BYTE   W96
// 166   ----------------------------------------
 BYTE   W23
 BYTE   FINE

//******************************************************//
	ALIGN 4

GuiltyGearXMilliaRagesThemeMeatOfJustice:
	BYTE	11	// NumTrks
	BYTE	0	// NumBlks
	BYTE	GuiltyGearXMilliaRagesThemeMeatOfJustice_pri	// Priority
	BYTE	GuiltyGearXMilliaRagesThemeMeatOfJustice_rev	// Reverb.
    
	POIN2	GuiltyGearXMilliaRagesThemeMeatOfJustice_grp
    
	POIN2	GuiltyGearXMilliaRagesThemeMeatOfJustice_001
	POIN2	GuiltyGearXMilliaRagesThemeMeatOfJustice_002
	POIN2	GuiltyGearXMilliaRagesThemeMeatOfJustice_003
	POIN2	GuiltyGearXMilliaRagesThemeMeatOfJustice_004
	POIN2	GuiltyGearXMilliaRagesThemeMeatOfJustice_005
	POIN2	GuiltyGearXMilliaRagesThemeMeatOfJustice_006
	POIN2	GuiltyGearXMilliaRagesThemeMeatOfJustice_007
	POIN2	GuiltyGearXMilliaRagesThemeMeatOfJustice_008
	POIN2	GuiltyGearXMilliaRagesThemeMeatOfJustice_009
	POIN2	GuiltyGearXMilliaRagesThemeMeatOfJustice_010
	POIN2	GuiltyGearXMilliaRagesThemeMeatOfJustice_011

	
