//Event file generated from Sappy .s format.
	#include "MPlayDef.event"

	#define	GuiltyGearXDizzysThemeMeatOfJustice_grp  voicegroup000
	#define	GuiltyGearXDizzysThemeMeatOfJustice_pri  0
	#define	GuiltyGearXDizzysThemeMeatOfJustice_rev  0
	#define	GuiltyGearXDizzysThemeMeatOfJustice_mvl  127
	#define	GuiltyGearXDizzysThemeMeatOfJustice_key  0
	#define	GuiltyGearXDizzysThemeMeatOfJustice_tbs  1
	#define	GuiltyGearXDizzysThemeMeatOfJustice_exg  0
	#define	GuiltyGearXDizzysThemeMeatOfJustice_cmp  1

	// .rodata
	//	GuiltyGearXDizzysThemeMeatOfJustice
	ALIGN 4


//**************** Track 1 (Midi-Chn.0) ****************//

GuiltyGearXDizzysThemeMeatOfJustice_001:
// 000   ----------------------------------------
 BYTE   KEYSH   GuiltyGearXDizzysThemeMeatOfJustice_key+0
 BYTE   TEMPO   120*GuiltyGearXDizzysThemeMeatOfJustice_tbs/2
 BYTE   VOICE   52
 BYTE   PAN   c_v-20
 BYTE   VOL   40*GuiltyGearXDizzysThemeMeatOfJustice_mvl/mxv
 BYTE   W36
 BYTE   N11  Dn3  v092
 BYTE   W12
 BYTE   N80  An3
 BYTE   W48
// 001   ----------------------------------------
 BYTE   W36
 BYTE   N23  Cn4  v080
 BYTE   W24
 BYTE   N11  Bn3
 BYTE   W12
 BYTE   TIE  Dn4
 BYTE   W24
// 002   ----------------------------------------
 BYTE   W36
 BYTE   VOL   44*GuiltyGearXDizzysThemeMeatOfJustice_mvl/mxv
 BYTE   W36
 BYTE   Bn1
 BYTE   W24
// 003   ----------------------------------------
 BYTE   W12
 BYTE   Ds1
 BYTE   W23
 BYTE   EOT
 BYTE   W01
 BYTE   N23  Cn4  v092
 BYTE   W24
 BYTE   Dn4
 BYTE   W24
 BYTE   N11  Cn4  v080
 BYTE   W12
// 004   ----------------------------------------
 BYTE   N92  Dn4
 BYTE   W96
// 005   ----------------------------------------
 BYTE   An3  v092
 BYTE   W96
// 006   ----------------------------------------
 BYTE   N11  As3
 BYTE   W12
 BYTE   An3
 BYTE   W12
 BYTE   N23  As3
 BYTE   W24
 BYTE   An3
 BYTE   W24
 BYTE   N11  Gn3
 BYTE   W12
 BYTE   Fn3
 BYTE   W12
// 007   ----------------------------------------
 BYTE   N44  Gn3
 BYTE   W48
 BYTE   N11  En3
 BYTE   W12
 BYTE   Fn3
 BYTE   W12
 BYTE   En3
 BYTE   W12
 BYTE   Fn3
 BYTE   W12
// 008   ----------------------------------------
 BYTE   N23  Dn3
 BYTE   W24
 BYTE   En3
 BYTE   W24
 BYTE   Fn3
 BYTE   W24
 BYTE   Gn3
 BYTE   W24
// 009   ----------------------------------------
 BYTE   TIE  Dn3
 BYTE   W96
// 010   ----------------------------------------
 BYTE   VOL   35*GuiltyGearXDizzysThemeMeatOfJustice_mvl/mxv
 BYTE   W96
// 011   ----------------------------------------
 BYTE   Gn0
 BYTE   W96
// 012   ----------------------------------------
 BYTE   Ds0
 BYTE   W92
 BYTE   W03
 BYTE   EOT
 BYTE   W01
// 013   ----------------------------------------
 BYTE   W96
// 014   ----------------------------------------
 BYTE   W96
// 015   ----------------------------------------
 BYTE   W96
// 016   ----------------------------------------
 BYTE   W96
// 017   ----------------------------------------
Label_0_014B2729:
 BYTE   TEMPO   240*GuiltyGearXDizzysThemeMeatOfJustice_tbs/2
 BYTE   W96
// 018   ----------------------------------------
 BYTE   W96
// 019   ----------------------------------------
 BYTE   W96
// 020   ----------------------------------------
 BYTE   W96
// 021   ----------------------------------------
 BYTE   W96
// 022   ----------------------------------------
 BYTE   W96
// 023   ----------------------------------------
 BYTE   W96
// 024   ----------------------------------------
 BYTE   W96
// 025   ----------------------------------------
 BYTE   W96
// 026   ----------------------------------------
 BYTE   W96
// 027   ----------------------------------------
 BYTE   W96
// 028   ----------------------------------------
 BYTE   W96
// 029   ----------------------------------------
 BYTE   W96
// 030   ----------------------------------------
 BYTE   W96
// 031   ----------------------------------------
 BYTE   W96
// 032   ----------------------------------------
 BYTE   W96
// 033   ----------------------------------------
 BYTE   W96
// 034   ----------------------------------------
 BYTE   W96
// 035   ----------------------------------------
 BYTE   W96
// 036   ----------------------------------------
 BYTE   W96
// 037   ----------------------------------------
 BYTE   W96
// 038   ----------------------------------------
 BYTE   W96
// 039   ----------------------------------------
 BYTE   W96
// 040   ----------------------------------------
 BYTE   W96
// 041   ----------------------------------------
 BYTE   W96
// 042   ----------------------------------------
 BYTE   W96
// 043   ----------------------------------------
 BYTE   W96
// 044   ----------------------------------------
 BYTE   W96
// 045   ----------------------------------------
 BYTE   W96
// 046   ----------------------------------------
 BYTE   W96
// 047   ----------------------------------------
 BYTE   W96
// 048   ----------------------------------------
 BYTE   W96
// 049   ----------------------------------------
 BYTE   W96
// 050   ----------------------------------------
 BYTE   W96
// 051   ----------------------------------------
 BYTE   W96
// 052   ----------------------------------------
 BYTE   W96
// 053   ----------------------------------------
 BYTE   W96
// 054   ----------------------------------------
 BYTE   W96
// 055   ----------------------------------------
 BYTE   W96
// 056   ----------------------------------------
 BYTE   W96
// 057   ----------------------------------------
 BYTE   W96
// 058   ----------------------------------------
 BYTE   W96
// 059   ----------------------------------------
 BYTE   W96
// 060   ----------------------------------------
Label_0_014B2756:
 BYTE   VOL   40*GuiltyGearXDizzysThemeMeatOfJustice_mvl/mxv
 BYTE   N32  Cn4  v092
 BYTE   W36
 BYTE   As3
 BYTE   W36
 BYTE   N11  An3
 BYTE   W24
 BYTE   PEND 
// 061   ----------------------------------------
 BYTE   N92
 BYTE   W96
// 062   ----------------------------------------
 BYTE   Gn3
 BYTE   W96
// 063   ----------------------------------------
 BYTE   As3
 BYTE   W96
// 064   ----------------------------------------
 BYTE   An3
 BYTE   W96
// 065   ----------------------------------------
 BYTE   TIE  Dn3
 BYTE   W96
// 066   ----------------------------------------
 BYTE   W92
 BYTE   W03
 BYTE   EOT
 BYTE   W01
// 067   ----------------------------------------
 BYTE   N44  En3
 BYTE   W48
 BYTE   Fn3
 BYTE   W48
// 068   ----------------------------------------
Label_0_014B2776:
 BYTE   N44  Gn3  v092
 BYTE   W48
 BYTE   An3
 BYTE   W48
 BYTE   PEND 
// 069   ----------------------------------------
 BYTE   W96
// 070   ----------------------------------------
 BYTE   W96
// 071   ----------------------------------------
 BYTE   W96
// 072   ----------------------------------------
 BYTE   W96
// 073   ----------------------------------------
 BYTE   W96
// 074   ----------------------------------------
 BYTE   W96
// 075   ----------------------------------------
 BYTE   W96
// 076   ----------------------------------------
 BYTE   PATT
  POIN2 Label_0_014B2756
// 077   ----------------------------------------
 BYTE   N92  An3  v092
 BYTE   W96
// 078   ----------------------------------------
 BYTE   Gn3
 BYTE   W96
// 079   ----------------------------------------
 BYTE   As3
 BYTE   W96
// 080   ----------------------------------------
 BYTE   An3
 BYTE   W96
// 081   ----------------------------------------
 BYTE   TIE  Dn3
 BYTE   W96
// 082   ----------------------------------------
 BYTE   W92
 BYTE   W03
 BYTE   EOT
 BYTE   W01
// 083   ----------------------------------------
 BYTE   N44  En3
 BYTE   W48
 BYTE   Fn3
 BYTE   W48
// 084   ----------------------------------------
 BYTE   PATT
  POIN2 Label_0_014B2776
// 085   ----------------------------------------
 BYTE   W96
// 086   ----------------------------------------
 BYTE   W96
// 087   ----------------------------------------
 BYTE   W96
// 088   ----------------------------------------
 BYTE   W96
// 089   ----------------------------------------
 BYTE   N92  Dn2  v080
 BYTE   W96
// 090   ----------------------------------------
 BYTE   En2  v092
 BYTE   W96
// 091   ----------------------------------------
Label_0_014B27AF:
 BYTE   N92  Cs3  v080
 BYTE   N92  Gn3  v092
 BYTE   W96
 BYTE   PEND 
// 092   ----------------------------------------
Label_0_014B27B7:
 BYTE   N92  Dn3  v080
 BYTE   N92  Fn3  v092
 BYTE   W96
 BYTE   PEND 
// 093   ----------------------------------------
 BYTE   W96
// 094   ----------------------------------------
 BYTE   W96
// 095   ----------------------------------------
 BYTE   W96
// 096   ----------------------------------------
 BYTE   W96
// 097   ----------------------------------------
 BYTE   W96
// 098   ----------------------------------------
 BYTE   W96
// 099   ----------------------------------------
 BYTE   W96
// 100   ----------------------------------------
 BYTE   W96
// 101   ----------------------------------------
 BYTE   W96
// 102   ----------------------------------------
 BYTE   W96
// 103   ----------------------------------------
 BYTE   W96
// 104   ----------------------------------------
 BYTE   W96
// 105   ----------------------------------------
 BYTE   W96
// 106   ----------------------------------------
 BYTE   W96
// 107   ----------------------------------------
 BYTE   W96
// 108   ----------------------------------------
 BYTE   W96
// 109   ----------------------------------------
 BYTE   W96
// 110   ----------------------------------------
 BYTE   W96
// 111   ----------------------------------------
 BYTE   W96
// 112   ----------------------------------------
 BYTE   W96
// 113   ----------------------------------------
 BYTE   W96
// 114   ----------------------------------------
 BYTE   W96
// 115   ----------------------------------------
 BYTE   W96
// 116   ----------------------------------------
 BYTE   W96
// 117   ----------------------------------------
 BYTE   W96
// 118   ----------------------------------------
 BYTE   W96
// 119   ----------------------------------------
 BYTE   W96
// 120   ----------------------------------------
 BYTE   W96
// 121   ----------------------------------------
 BYTE   W96
// 122   ----------------------------------------
 BYTE   W96
// 123   ----------------------------------------
 BYTE   W96
// 124   ----------------------------------------
 BYTE   W96
// 125   ----------------------------------------
 BYTE   W96
// 126   ----------------------------------------
 BYTE   W96
// 127   ----------------------------------------
 BYTE   W96
// 128   ----------------------------------------
 BYTE   W96
// 129   ----------------------------------------
 BYTE   W96
// 130   ----------------------------------------
 BYTE   W96
// 131   ----------------------------------------
 BYTE   W96
// 132   ----------------------------------------
 BYTE   W96
// 133   ----------------------------------------
 BYTE   W96
// 134   ----------------------------------------
 BYTE   W96
// 135   ----------------------------------------
 BYTE   W96
// 136   ----------------------------------------
 BYTE   W96
// 137   ----------------------------------------
 BYTE   W96
// 138   ----------------------------------------
 BYTE   W96
// 139   ----------------------------------------
 BYTE   W96
// 140   ----------------------------------------
 BYTE   W96
// 141   ----------------------------------------
 BYTE   W96
// 142   ----------------------------------------
 BYTE   W96
// 143   ----------------------------------------
 BYTE   W96
// 144   ----------------------------------------
 BYTE   PATT
  POIN2 Label_0_014B2756
// 145   ----------------------------------------
 BYTE   N92  An3  v092
 BYTE   W96
// 146   ----------------------------------------
 BYTE   Gn3
 BYTE   W96
// 147   ----------------------------------------
 BYTE   As3
 BYTE   W96
// 148   ----------------------------------------
 BYTE   An3
 BYTE   W96
// 149   ----------------------------------------
 BYTE   TIE  Dn3
 BYTE   W96
// 150   ----------------------------------------
 BYTE   W92
 BYTE   W03
 BYTE   EOT
 BYTE   W01
// 151   ----------------------------------------
 BYTE   N44  En3
 BYTE   W48
 BYTE   Fn3
 BYTE   W48
// 152   ----------------------------------------
 BYTE   PATT
  POIN2 Label_0_014B2776
// 153   ----------------------------------------
 BYTE   W96
// 154   ----------------------------------------
 BYTE   W96
// 155   ----------------------------------------
 BYTE   W96
// 156   ----------------------------------------
 BYTE   W96
// 157   ----------------------------------------
 BYTE   W96
// 158   ----------------------------------------
 BYTE   W96
// 159   ----------------------------------------
 BYTE   W96
// 160   ----------------------------------------
 BYTE   PATT
  POIN2 Label_0_014B2756
// 161   ----------------------------------------
 BYTE   N92  An3  v092
 BYTE   W96
// 162   ----------------------------------------
 BYTE   Gn3
 BYTE   W96
// 163   ----------------------------------------
 BYTE   As3
 BYTE   W96
// 164   ----------------------------------------
 BYTE   An3
 BYTE   W96
// 165   ----------------------------------------
 BYTE   TIE  Dn3
 BYTE   W96
// 166   ----------------------------------------
 BYTE   W92
 BYTE   W03
 BYTE   EOT
 BYTE   W01
// 167   ----------------------------------------
 BYTE   N44  En3
 BYTE   W48
 BYTE   Fn3
 BYTE   W48
// 168   ----------------------------------------
 BYTE   PATT
  POIN2 Label_0_014B2776
// 169   ----------------------------------------
 BYTE   W96
// 170   ----------------------------------------
 BYTE   W96
// 171   ----------------------------------------
 BYTE   W96
// 172   ----------------------------------------
 BYTE   W96
// 173   ----------------------------------------
 BYTE   N92  Dn2  v080
 BYTE   W96
// 174   ----------------------------------------
 BYTE   En2  v092
 BYTE   W96
// 175   ----------------------------------------
 BYTE   PATT
  POIN2 Label_0_014B27AF
// 176   ----------------------------------------
 BYTE   PATT
  POIN2 Label_0_014B27B7
// 177   ----------------------------------------
 BYTE   W96
// 178   ----------------------------------------
 BYTE   W96
// 179   ----------------------------------------
 BYTE   W96
// 180   ----------------------------------------
 BYTE   W96
// 181   ----------------------------------------
 BYTE   W96
// 182   ----------------------------------------
 BYTE   W96
// 183   ----------------------------------------
 BYTE   W96
// 184   ----------------------------------------
 BYTE   W96
// 185   ----------------------------------------
 BYTE   W96
// 186   ----------------------------------------
 BYTE   W96
// 187   ----------------------------------------
 BYTE   W96
// 188   ----------------------------------------
 BYTE   W96
// 189   ----------------------------------------
 BYTE   W96
// 190   ----------------------------------------
 BYTE   W96
// 191   ----------------------------------------
 BYTE   W96
// 192   ----------------------------------------
 BYTE   W96
// 193   ----------------------------------------
 BYTE   W96
// 194   ----------------------------------------
 BYTE   W96
// 195   ----------------------------------------
 BYTE   W96
// 196   ----------------------------------------
 BYTE   W96
// 197   ----------------------------------------
 BYTE   W96
// 198   ----------------------------------------
 BYTE   W96
// 199   ----------------------------------------
 BYTE   W96
// 200   ----------------------------------------
 BYTE   W96
// 201   ----------------------------------------
 BYTE   W96
// 202   ----------------------------------------
 BYTE   W96
// 203   ----------------------------------------
 BYTE   W96
// 204   ----------------------------------------
 BYTE   W96
// 205   ----------------------------------------
 BYTE   W96
// 206   ----------------------------------------
 BYTE   W96
// 207   ----------------------------------------
 BYTE   W96
// 208   ----------------------------------------
 BYTE   W96
// 209   ----------------------------------------
 BYTE   W96
// 210   ----------------------------------------
 BYTE   W96
// 211   ----------------------------------------
 BYTE   W96
// 212   ----------------------------------------
 BYTE   W96
// 213   ----------------------------------------
 BYTE   W96
// 214   ----------------------------------------
 BYTE   W96
// 215   ----------------------------------------
 BYTE   W96
// 216   ----------------------------------------
 BYTE   W96
// 217   ----------------------------------------
 BYTE   W96
// 218   ----------------------------------------
 BYTE   W96
// 219   ----------------------------------------
 BYTE   W96
// 220   ----------------------------------------
 BYTE   W96
// 221   ----------------------------------------
 BYTE   W96
// 222   ----------------------------------------
 BYTE   W96
// 223   ----------------------------------------
 BYTE   W96
// 224   ----------------------------------------
 BYTE   W96
// 225   ----------------------------------------
 BYTE   W96
// 226   ----------------------------------------
 BYTE   W96
// 227   ----------------------------------------
 BYTE   W96
// 228   ----------------------------------------
 BYTE   PATT
  POIN2 Label_0_014B2756
// 229   ----------------------------------------
 BYTE   N92  An3  v092
 BYTE   W96
// 230   ----------------------------------------
 BYTE   Gn3
 BYTE   W96
// 231   ----------------------------------------
 BYTE   As3
 BYTE   W96
// 232   ----------------------------------------
 BYTE   An3
 BYTE   W96
// 233   ----------------------------------------
 BYTE   TIE  Dn3
 BYTE   W96
// 234   ----------------------------------------
 BYTE   W92
 BYTE   W03
 BYTE   EOT
 BYTE   W01
// 235   ----------------------------------------
 BYTE   N44  En3
 BYTE   W48
 BYTE   Fn3
 BYTE   W48
// 236   ----------------------------------------
 BYTE   PATT
  POIN2 Label_0_014B2776
// 237   ----------------------------------------
 BYTE   W96
// 238   ----------------------------------------
 BYTE   W96
// 239   ----------------------------------------
 BYTE   W96
// 240   ----------------------------------------
 BYTE   W96
// 241   ----------------------------------------
 BYTE   W96
// 242   ----------------------------------------
 BYTE   W96
// 243   ----------------------------------------
 BYTE   W96
// 244   ----------------------------------------
 BYTE   PATT
  POIN2 Label_0_014B2756
// 245   ----------------------------------------
 BYTE   N92  An3  v092
 BYTE   W96
// 246   ----------------------------------------
 BYTE   Gn3
 BYTE   W96
// 247   ----------------------------------------
 BYTE   As3
 BYTE   W96
// 248   ----------------------------------------
 BYTE   An3
 BYTE   W96
// 249   ----------------------------------------
 BYTE   TIE  Dn3
 BYTE   W96
// 250   ----------------------------------------
 BYTE   W92
 BYTE   W03
 BYTE   EOT
 BYTE   W01
// 251   ----------------------------------------
 BYTE   N44  En3
 BYTE   W48
 BYTE   Fn3
 BYTE   W48
// 252   ----------------------------------------
 BYTE   PATT
  POIN2 Label_0_014B2776
// 253   ----------------------------------------
 BYTE   W96
// 254   ----------------------------------------
 BYTE   W96
// 255   ----------------------------------------
 BYTE   W96
// 256   ----------------------------------------
 BYTE   W96
// 257   ----------------------------------------
 BYTE   GoTo
  POIN2 Label_0_014B2729
// 258   ----------------------------------------
 BYTE   N92  Dn2  v080
 BYTE   W96
// 259   ----------------------------------------
 BYTE   En2  v092
 BYTE   W96
// 260   ----------------------------------------
 BYTE   PATT
  POIN2 Label_0_014B27AF
// 261   ----------------------------------------
 BYTE   PATT
  POIN2 Label_0_014B27B7
// 262   ----------------------------------------
 BYTE   TIE  Dn3  v092
 BYTE   W96
// 263   ----------------------------------------
 BYTE   W96
// 264   ----------------------------------------
 BYTE   W96
// 265   ----------------------------------------
 BYTE   VOL   34*GuiltyGearXDizzysThemeMeatOfJustice_mvl/mxv
 BYTE   W48
 BYTE   Ds0
 BYTE   W48
// 266   ----------------------------------------
 BYTE   BnM1
 BYTE   W24
 BYTE   GnM1
 BYTE   W24
 BYTE   DsM1
 BYTE   W24
 BYTE   BnM2
 BYTE   W23
 BYTE   EOT
 BYTE   FINE

//**************** Track 2 (Midi-Chn.1) ****************//

GuiltyGearXDizzysThemeMeatOfJustice_002:
// 000   ----------------------------------------
 BYTE   KEYSH   GuiltyGearXDizzysThemeMeatOfJustice_key+0
 BYTE   VOICE   52
 BYTE   PAN   c_v+2
 BYTE   VOL   40*GuiltyGearXDizzysThemeMeatOfJustice_mvl/mxv
 BYTE   W96
// 001   ----------------------------------------
 BYTE   W96
// 002   ----------------------------------------
 BYTE   W12
 BYTE   N11  An3  v092
 BYTE   W12
 BYTE   Gn3
 BYTE   W12
 BYTE   N68  An3
 BYTE   W60
// 003   ----------------------------------------
 BYTE   W12
 BYTE   N23
 BYTE   W24
 BYTE   Gn3
 BYTE   W24
 BYTE   An3
 BYTE   W24
 BYTE   N11  Gn3  v080
 BYTE   W12
// 004   ----------------------------------------
 BYTE   N92  An3
 BYTE   W96
// 005   ----------------------------------------
 BYTE   Dn3  v092
 BYTE   W96
// 006   ----------------------------------------
 BYTE   N44
 BYTE   W48
 BYTE   Cs3
 BYTE   W48
// 007   ----------------------------------------
 BYTE   Dn3
 BYTE   W48
 BYTE   An2
 BYTE   W48
// 008   ----------------------------------------
 BYTE   N92
 BYTE   W96
// 009   ----------------------------------------
 BYTE   TIE
 BYTE   W96
// 010   ----------------------------------------
 BYTE   VOL   35*GuiltyGearXDizzysThemeMeatOfJustice_mvl/mxv
 BYTE   W96
// 011   ----------------------------------------
 BYTE   Gn0
 BYTE   W96
// 012   ----------------------------------------
 BYTE   Ds0
 BYTE   W92
 BYTE   W03
 BYTE   EOT
 BYTE   W01
// 013   ----------------------------------------
 BYTE   W96
// 014   ----------------------------------------
 BYTE   W96
// 015   ----------------------------------------
 BYTE   W96
// 016   ----------------------------------------
 BYTE   W96
// 017   ----------------------------------------
Label_1_014B34FF:
 BYTE   W96
// 018   ----------------------------------------
 BYTE   W96
// 019   ----------------------------------------
 BYTE   W96
// 020   ----------------------------------------
 BYTE   W96
// 021   ----------------------------------------
 BYTE   W96
// 022   ----------------------------------------
 BYTE   W96
// 023   ----------------------------------------
 BYTE   W96
// 024   ----------------------------------------
 BYTE   W96
// 025   ----------------------------------------
 BYTE   W96
// 026   ----------------------------------------
 BYTE   W96
// 027   ----------------------------------------
 BYTE   W96
// 028   ----------------------------------------
 BYTE   W96
// 029   ----------------------------------------
 BYTE   W96
// 030   ----------------------------------------
 BYTE   W96
// 031   ----------------------------------------
 BYTE   W96
// 032   ----------------------------------------
 BYTE   W96
// 033   ----------------------------------------
 BYTE   W96
// 034   ----------------------------------------
 BYTE   W96
// 035   ----------------------------------------
 BYTE   W96
// 036   ----------------------------------------
 BYTE   W96
// 037   ----------------------------------------
 BYTE   W96
// 038   ----------------------------------------
 BYTE   W96
// 039   ----------------------------------------
 BYTE   W96
// 040   ----------------------------------------
 BYTE   W96
// 041   ----------------------------------------
 BYTE   W96
// 042   ----------------------------------------
 BYTE   W96
// 043   ----------------------------------------
 BYTE   W96
// 044   ----------------------------------------
 BYTE   W96
// 045   ----------------------------------------
 BYTE   W96
// 046   ----------------------------------------
 BYTE   W96
// 047   ----------------------------------------
 BYTE   W96
// 048   ----------------------------------------
 BYTE   W96
// 049   ----------------------------------------
 BYTE   W96
// 050   ----------------------------------------
 BYTE   W96
// 051   ----------------------------------------
 BYTE   W96
// 052   ----------------------------------------
 BYTE   W96
// 053   ----------------------------------------
 BYTE   W96
// 054   ----------------------------------------
 BYTE   W96
// 055   ----------------------------------------
 BYTE   W96
// 056   ----------------------------------------
 BYTE   W96
// 057   ----------------------------------------
 BYTE   W96
// 058   ----------------------------------------
 BYTE   W96
// 059   ----------------------------------------
 BYTE   W96
// 060   ----------------------------------------
 BYTE   W96
// 061   ----------------------------------------
 BYTE   W96
// 062   ----------------------------------------
 BYTE   W96
// 063   ----------------------------------------
 BYTE   W96
// 064   ----------------------------------------
 BYTE   W96
// 065   ----------------------------------------
 BYTE   W96
// 066   ----------------------------------------
 BYTE   W96
// 067   ----------------------------------------
 BYTE   W96
// 068   ----------------------------------------
 BYTE   W96
// 069   ----------------------------------------
 BYTE   W96
// 070   ----------------------------------------
 BYTE   W96
// 071   ----------------------------------------
 BYTE   W96
// 072   ----------------------------------------
 BYTE   W96
// 073   ----------------------------------------
 BYTE   W96
// 074   ----------------------------------------
 BYTE   W96
// 075   ----------------------------------------
 BYTE   W96
// 076   ----------------------------------------
 BYTE   W96
// 077   ----------------------------------------
 BYTE   W96
// 078   ----------------------------------------
 BYTE   W96
// 079   ----------------------------------------
 BYTE   W96
// 080   ----------------------------------------
 BYTE   W96
// 081   ----------------------------------------
 BYTE   W96
// 082   ----------------------------------------
 BYTE   W96
// 083   ----------------------------------------
 BYTE   W96
// 084   ----------------------------------------
 BYTE   W96
// 085   ----------------------------------------
 BYTE   W96
// 086   ----------------------------------------
 BYTE   W96
// 087   ----------------------------------------
 BYTE   W96
// 088   ----------------------------------------
 BYTE   W96
// 089   ----------------------------------------
Label_1_014B3547:
 BYTE   VOL   40*GuiltyGearXDizzysThemeMeatOfJustice_mvl/mxv
 BYTE   N92  Dn3  v080
 BYTE   W96
 BYTE   PEND 
// 090   ----------------------------------------
 BYTE   En3  v092
 BYTE   W96
// 091   ----------------------------------------
 BYTE   Cs2  v088
 BYTE   W96
// 092   ----------------------------------------
 BYTE   Dn2  v092
 BYTE   W96
// 093   ----------------------------------------
 BYTE   W96
// 094   ----------------------------------------
 BYTE   W96
// 095   ----------------------------------------
 BYTE   W96
// 096   ----------------------------------------
 BYTE   W96
// 097   ----------------------------------------
 BYTE   W96
// 098   ----------------------------------------
 BYTE   W96
// 099   ----------------------------------------
 BYTE   W96
// 100   ----------------------------------------
 BYTE   W96
// 101   ----------------------------------------
 BYTE   W96
// 102   ----------------------------------------
 BYTE   W96
// 103   ----------------------------------------
 BYTE   W96
// 104   ----------------------------------------
 BYTE   W96
// 105   ----------------------------------------
 BYTE   W96
// 106   ----------------------------------------
 BYTE   W96
// 107   ----------------------------------------
 BYTE   W96
// 108   ----------------------------------------
 BYTE   W96
// 109   ----------------------------------------
 BYTE   W96
// 110   ----------------------------------------
 BYTE   W96
// 111   ----------------------------------------
 BYTE   W96
// 112   ----------------------------------------
 BYTE   W96
// 113   ----------------------------------------
 BYTE   W96
// 114   ----------------------------------------
 BYTE   W96
// 115   ----------------------------------------
 BYTE   W96
// 116   ----------------------------------------
 BYTE   W96
// 117   ----------------------------------------
 BYTE   W96
// 118   ----------------------------------------
 BYTE   W96
// 119   ----------------------------------------
 BYTE   W96
// 120   ----------------------------------------
 BYTE   W96
// 121   ----------------------------------------
 BYTE   W96
// 122   ----------------------------------------
 BYTE   W96
// 123   ----------------------------------------
 BYTE   W96
// 124   ----------------------------------------
 BYTE   W96
// 125   ----------------------------------------
 BYTE   W96
// 126   ----------------------------------------
 BYTE   W96
// 127   ----------------------------------------
 BYTE   W96
// 128   ----------------------------------------
 BYTE   W96
// 129   ----------------------------------------
 BYTE   W96
// 130   ----------------------------------------
 BYTE   W96
// 131   ----------------------------------------
 BYTE   W96
// 132   ----------------------------------------
 BYTE   W96
// 133   ----------------------------------------
 BYTE   W96
// 134   ----------------------------------------
 BYTE   W96
// 135   ----------------------------------------
 BYTE   W96
// 136   ----------------------------------------
 BYTE   W96
// 137   ----------------------------------------
 BYTE   W96
// 138   ----------------------------------------
 BYTE   W96
// 139   ----------------------------------------
 BYTE   W96
// 140   ----------------------------------------
 BYTE   W96
// 141   ----------------------------------------
 BYTE   W96
// 142   ----------------------------------------
 BYTE   W96
// 143   ----------------------------------------
 BYTE   W96
// 144   ----------------------------------------
 BYTE   W96
// 145   ----------------------------------------
 BYTE   W96
// 146   ----------------------------------------
 BYTE   W96
// 147   ----------------------------------------
 BYTE   W96
// 148   ----------------------------------------
 BYTE   W96
// 149   ----------------------------------------
 BYTE   W96
// 150   ----------------------------------------
 BYTE   W96
// 151   ----------------------------------------
 BYTE   W96
// 152   ----------------------------------------
 BYTE   W96
// 153   ----------------------------------------
 BYTE   W96
// 154   ----------------------------------------
 BYTE   W96
// 155   ----------------------------------------
 BYTE   W96
// 156   ----------------------------------------
 BYTE   W96
// 157   ----------------------------------------
 BYTE   W96
// 158   ----------------------------------------
 BYTE   W96
// 159   ----------------------------------------
 BYTE   W96
// 160   ----------------------------------------
 BYTE   W96
// 161   ----------------------------------------
 BYTE   W96
// 162   ----------------------------------------
 BYTE   W96
// 163   ----------------------------------------
 BYTE   W96
// 164   ----------------------------------------
 BYTE   W96
// 165   ----------------------------------------
 BYTE   W96
// 166   ----------------------------------------
 BYTE   W96
// 167   ----------------------------------------
 BYTE   W96
// 168   ----------------------------------------
 BYTE   W96
// 169   ----------------------------------------
 BYTE   W96
// 170   ----------------------------------------
 BYTE   W96
// 171   ----------------------------------------
 BYTE   W96
// 172   ----------------------------------------
 BYTE   W96
// 173   ----------------------------------------
 BYTE   PATT
  POIN2 Label_1_014B3547
// 174   ----------------------------------------
 BYTE   N92  En3  v092
 BYTE   W96
// 175   ----------------------------------------
 BYTE   Cs2  v088
 BYTE   W96
// 176   ----------------------------------------
 BYTE   Dn2  v092
 BYTE   W96
// 177   ----------------------------------------
 BYTE   W96
// 178   ----------------------------------------
 BYTE   W96
// 179   ----------------------------------------
 BYTE   W96
// 180   ----------------------------------------
 BYTE   W96
// 181   ----------------------------------------
 BYTE   W96
// 182   ----------------------------------------
 BYTE   W96
// 183   ----------------------------------------
 BYTE   W96
// 184   ----------------------------------------
 BYTE   W96
// 185   ----------------------------------------
 BYTE   W96
// 186   ----------------------------------------
 BYTE   W96
// 187   ----------------------------------------
 BYTE   W96
// 188   ----------------------------------------
 BYTE   W96
// 189   ----------------------------------------
 BYTE   W96
// 190   ----------------------------------------
 BYTE   W96
// 191   ----------------------------------------
 BYTE   W96
// 192   ----------------------------------------
 BYTE   W96
// 193   ----------------------------------------
 BYTE   W96
// 194   ----------------------------------------
 BYTE   W96
// 195   ----------------------------------------
 BYTE   W96
// 196   ----------------------------------------
 BYTE   W96
// 197   ----------------------------------------
 BYTE   W96
// 198   ----------------------------------------
 BYTE   W96
// 199   ----------------------------------------
 BYTE   W96
// 200   ----------------------------------------
 BYTE   W96
// 201   ----------------------------------------
 BYTE   W96
// 202   ----------------------------------------
 BYTE   W96
// 203   ----------------------------------------
 BYTE   W96
// 204   ----------------------------------------
 BYTE   W96
// 205   ----------------------------------------
 BYTE   W96
// 206   ----------------------------------------
 BYTE   W96
// 207   ----------------------------------------
 BYTE   W96
// 208   ----------------------------------------
 BYTE   W96
// 209   ----------------------------------------
 BYTE   W96
// 210   ----------------------------------------
 BYTE   W96
// 211   ----------------------------------------
 BYTE   W96
// 212   ----------------------------------------
 BYTE   W96
// 213   ----------------------------------------
 BYTE   W96
// 214   ----------------------------------------
 BYTE   W96
// 215   ----------------------------------------
 BYTE   W96
// 216   ----------------------------------------
 BYTE   W96
// 217   ----------------------------------------
 BYTE   W96
// 218   ----------------------------------------
 BYTE   W96
// 219   ----------------------------------------
 BYTE   W96
// 220   ----------------------------------------
 BYTE   W96
// 221   ----------------------------------------
 BYTE   W96
// 222   ----------------------------------------
 BYTE   W96
// 223   ----------------------------------------
 BYTE   W96
// 224   ----------------------------------------
 BYTE   W96
// 225   ----------------------------------------
 BYTE   W96
// 226   ----------------------------------------
 BYTE   W96
// 227   ----------------------------------------
 BYTE   W96
// 228   ----------------------------------------
 BYTE   W96
// 229   ----------------------------------------
 BYTE   W96
// 230   ----------------------------------------
 BYTE   W96
// 231   ----------------------------------------
 BYTE   W96
// 232   ----------------------------------------
 BYTE   W96
// 233   ----------------------------------------
 BYTE   W96
// 234   ----------------------------------------
 BYTE   W96
// 235   ----------------------------------------
 BYTE   W96
// 236   ----------------------------------------
 BYTE   W96
// 237   ----------------------------------------
 BYTE   W96
// 238   ----------------------------------------
 BYTE   W96
// 239   ----------------------------------------
 BYTE   W96
// 240   ----------------------------------------
 BYTE   W96
// 241   ----------------------------------------
 BYTE   W96
// 242   ----------------------------------------
 BYTE   W96
// 243   ----------------------------------------
 BYTE   W96
// 244   ----------------------------------------
 BYTE   W96
// 245   ----------------------------------------
 BYTE   W96
// 246   ----------------------------------------
 BYTE   W96
// 247   ----------------------------------------
 BYTE   W96
// 248   ----------------------------------------
 BYTE   W96
// 249   ----------------------------------------
 BYTE   W96
// 250   ----------------------------------------
 BYTE   W96
// 251   ----------------------------------------
 BYTE   W96
// 252   ----------------------------------------
 BYTE   W96
// 253   ----------------------------------------
 BYTE   W96
// 254   ----------------------------------------
 BYTE   W96
// 255   ----------------------------------------
 BYTE   W96
// 256   ----------------------------------------
 BYTE   W96
// 257   ----------------------------------------
 BYTE   GoTo
  POIN2 Label_1_014B34FF
// 258   ----------------------------------------
 BYTE   PATT
  POIN2 Label_1_014B3547
// 259   ----------------------------------------
 BYTE   N92  En3  v092
 BYTE   W96
// 260   ----------------------------------------
 BYTE   Cs2  v088
 BYTE   W96
// 261   ----------------------------------------
 BYTE   Dn2  v092
 BYTE   W96
// 262   ----------------------------------------
 BYTE   Gn2
 BYTE   W96
// 263   ----------------------------------------
 BYTE   N44  Fn2
 BYTE   W48
 BYTE   En2
 BYTE   W48
// 264   ----------------------------------------
 BYTE   TIE  Dn2
 BYTE   W96
// 265   ----------------------------------------
 BYTE   VOL   34*GuiltyGearXDizzysThemeMeatOfJustice_mvl/mxv
 BYTE   W48
 BYTE   Ds0
 BYTE   W48
// 266   ----------------------------------------
 BYTE   BnM1
 BYTE   W24
 BYTE   GnM1
 BYTE   W24
 BYTE   DsM1
 BYTE   W24
 BYTE   BnM2
 BYTE   W23
 BYTE   EOT
 BYTE   FINE

//**************** Track 3 (Midi-Chn.2) ****************//

GuiltyGearXDizzysThemeMeatOfJustice_003:
// 000   ----------------------------------------
 BYTE   KEYSH   GuiltyGearXDizzysThemeMeatOfJustice_key+0
 BYTE   VOICE   52
 BYTE   PAN   c_v+25
 BYTE   VOL   40*GuiltyGearXDizzysThemeMeatOfJustice_mvl/mxv
 BYTE   W96
// 001   ----------------------------------------
 BYTE   W96
// 002   ----------------------------------------
 BYTE   W60
 BYTE   N11  An2  v092
 BYTE   W12
 BYTE   Gn2
 BYTE   W12
 BYTE   N23  An2
 BYTE   W12
// 003   ----------------------------------------
 BYTE   W12
 BYTE   Dn2
 BYTE   W24
 BYTE   Cn2
 BYTE   W24
 BYTE   Dn2
 BYTE   W24
 BYTE   N11  En2  v080
 BYTE   W12
// 004   ----------------------------------------
 BYTE   N92  Fn2
 BYTE   W96
// 005   ----------------------------------------
 BYTE   N23  Fn2  v092
 BYTE   W24
 BYTE   En2
 BYTE   W24
 BYTE   Dn2
 BYTE   W24
 BYTE   N23
 BYTE   W12
 BYTE   N11  Cs2
 BYTE   W12
// 006   ----------------------------------------
 BYTE   N44  Dn2
 BYTE   W48
 BYTE   Cs2
 BYTE   W48
// 007   ----------------------------------------
 BYTE   Dn2
 BYTE   W48
 BYTE   N44
 BYTE   W48
// 008   ----------------------------------------
 BYTE   N92
 BYTE   W96
// 009   ----------------------------------------
 BYTE   TIE
 BYTE   W96
// 010   ----------------------------------------
 BYTE   VOL   35*GuiltyGearXDizzysThemeMeatOfJustice_mvl/mxv
 BYTE   W96
// 011   ----------------------------------------
 BYTE   Gn0
 BYTE   W96
// 012   ----------------------------------------
 BYTE   Ds0
 BYTE   W92
 BYTE   W03
 BYTE   EOT
 BYTE   W01
// 013   ----------------------------------------
 BYTE   W96
// 014   ----------------------------------------
 BYTE   W96
// 015   ----------------------------------------
 BYTE   W96
// 016   ----------------------------------------
 BYTE   W96
// 017   ----------------------------------------
Label_2_014B3256:
 BYTE   W96
// 018   ----------------------------------------
 BYTE   W96
// 019   ----------------------------------------
 BYTE   W96
// 020   ----------------------------------------
 BYTE   W96
// 021   ----------------------------------------
 BYTE   W96
// 022   ----------------------------------------
 BYTE   W96
// 023   ----------------------------------------
 BYTE   W96
// 024   ----------------------------------------
 BYTE   W96
// 025   ----------------------------------------
 BYTE   W96
// 026   ----------------------------------------
 BYTE   W96
// 027   ----------------------------------------
 BYTE   W96
// 028   ----------------------------------------
 BYTE   W96
// 029   ----------------------------------------
 BYTE   W96
// 030   ----------------------------------------
 BYTE   W96
// 031   ----------------------------------------
 BYTE   W96
// 032   ----------------------------------------
 BYTE   W96
// 033   ----------------------------------------
 BYTE   W96
// 034   ----------------------------------------
 BYTE   W96
// 035   ----------------------------------------
 BYTE   W96
// 036   ----------------------------------------
 BYTE   W96
// 037   ----------------------------------------
 BYTE   W96
// 038   ----------------------------------------
 BYTE   W96
// 039   ----------------------------------------
 BYTE   W96
// 040   ----------------------------------------
 BYTE   W96
// 041   ----------------------------------------
 BYTE   W96
// 042   ----------------------------------------
 BYTE   W96
// 043   ----------------------------------------
 BYTE   W96
// 044   ----------------------------------------
 BYTE   W96
// 045   ----------------------------------------
 BYTE   W96
// 046   ----------------------------------------
 BYTE   W96
// 047   ----------------------------------------
 BYTE   W96
// 048   ----------------------------------------
 BYTE   W96
// 049   ----------------------------------------
 BYTE   W96
// 050   ----------------------------------------
 BYTE   W96
// 051   ----------------------------------------
 BYTE   W96
// 052   ----------------------------------------
 BYTE   W96
// 053   ----------------------------------------
 BYTE   W96
// 054   ----------------------------------------
 BYTE   W96
// 055   ----------------------------------------
 BYTE   W96
// 056   ----------------------------------------
 BYTE   W96
// 057   ----------------------------------------
 BYTE   W96
// 058   ----------------------------------------
 BYTE   W96
// 059   ----------------------------------------
 BYTE   W96
// 060   ----------------------------------------
 BYTE   W96
// 061   ----------------------------------------
 BYTE   W96
// 062   ----------------------------------------
 BYTE   W96
// 063   ----------------------------------------
 BYTE   W96
// 064   ----------------------------------------
 BYTE   W96
// 065   ----------------------------------------
 BYTE   W96
// 066   ----------------------------------------
 BYTE   W96
// 067   ----------------------------------------
 BYTE   W96
// 068   ----------------------------------------
 BYTE   W96
// 069   ----------------------------------------
 BYTE   W96
// 070   ----------------------------------------
 BYTE   W96
// 071   ----------------------------------------
 BYTE   W96
// 072   ----------------------------------------
 BYTE   W96
// 073   ----------------------------------------
 BYTE   W96
// 074   ----------------------------------------
 BYTE   W96
// 075   ----------------------------------------
 BYTE   W96
// 076   ----------------------------------------
 BYTE   W96
// 077   ----------------------------------------
 BYTE   W96
// 078   ----------------------------------------
 BYTE   W96
// 079   ----------------------------------------
 BYTE   W96
// 080   ----------------------------------------
 BYTE   W96
// 081   ----------------------------------------
 BYTE   W96
// 082   ----------------------------------------
 BYTE   W96
// 083   ----------------------------------------
 BYTE   W96
// 084   ----------------------------------------
 BYTE   W96
// 085   ----------------------------------------
 BYTE   W96
// 086   ----------------------------------------
 BYTE   W96
// 087   ----------------------------------------
 BYTE   W96
// 088   ----------------------------------------
 BYTE   W96
// 089   ----------------------------------------
Label_2_014B329E:
 BYTE   VOL   40*GuiltyGearXDizzysThemeMeatOfJustice_mvl/mxv
 BYTE   N92  Fn4  v080
 BYTE   W96
 BYTE   PEND 
// 090   ----------------------------------------
 BYTE   En4  v092
 BYTE   W96
// 091   ----------------------------------------
Label_2_014B32A8:
 BYTE   N44  Cs4  v080
 BYTE   W48
 BYTE   Dn4  v088
 BYTE   W48
 BYTE   PEND 
// 092   ----------------------------------------
Label_2_014B32B0:
 BYTE   N44  En4  v092
 BYTE   W48
 BYTE   Fn4
 BYTE   W48
 BYTE   PEND 
// 093   ----------------------------------------
 BYTE   W96
// 094   ----------------------------------------
 BYTE   W96
// 095   ----------------------------------------
 BYTE   W96
// 096   ----------------------------------------
 BYTE   W96
// 097   ----------------------------------------
 BYTE   W96
// 098   ----------------------------------------
 BYTE   W96
// 099   ----------------------------------------
 BYTE   W96
// 100   ----------------------------------------
 BYTE   W96
// 101   ----------------------------------------
 BYTE   W96
// 102   ----------------------------------------
 BYTE   W96
// 103   ----------------------------------------
 BYTE   W96
// 104   ----------------------------------------
 BYTE   W96
// 105   ----------------------------------------
 BYTE   W96
// 106   ----------------------------------------
 BYTE   W96
// 107   ----------------------------------------
 BYTE   W96
// 108   ----------------------------------------
 BYTE   W96
// 109   ----------------------------------------
 BYTE   W96
// 110   ----------------------------------------
 BYTE   W96
// 111   ----------------------------------------
 BYTE   W96
// 112   ----------------------------------------
 BYTE   W96
// 113   ----------------------------------------
 BYTE   W96
// 114   ----------------------------------------
 BYTE   W96
// 115   ----------------------------------------
 BYTE   W96
// 116   ----------------------------------------
 BYTE   W96
// 117   ----------------------------------------
 BYTE   W96
// 118   ----------------------------------------
 BYTE   W96
// 119   ----------------------------------------
 BYTE   W96
// 120   ----------------------------------------
 BYTE   W96
// 121   ----------------------------------------
 BYTE   W96
// 122   ----------------------------------------
 BYTE   W96
// 123   ----------------------------------------
 BYTE   W96
// 124   ----------------------------------------
 BYTE   W96
// 125   ----------------------------------------
 BYTE   W96
// 126   ----------------------------------------
 BYTE   W96
// 127   ----------------------------------------
 BYTE   W96
// 128   ----------------------------------------
 BYTE   W96
// 129   ----------------------------------------
 BYTE   W96
// 130   ----------------------------------------
 BYTE   W96
// 131   ----------------------------------------
 BYTE   W96
// 132   ----------------------------------------
 BYTE   W96
// 133   ----------------------------------------
 BYTE   W96
// 134   ----------------------------------------
 BYTE   W96
// 135   ----------------------------------------
 BYTE   W96
// 136   ----------------------------------------
 BYTE   W96
// 137   ----------------------------------------
 BYTE   W96
// 138   ----------------------------------------
 BYTE   W96
// 139   ----------------------------------------
 BYTE   W96
// 140   ----------------------------------------
 BYTE   W96
// 141   ----------------------------------------
 BYTE   W96
// 142   ----------------------------------------
 BYTE   W96
// 143   ----------------------------------------
 BYTE   W96
// 144   ----------------------------------------
 BYTE   W96
// 145   ----------------------------------------
 BYTE   W96
// 146   ----------------------------------------
 BYTE   W96
// 147   ----------------------------------------
 BYTE   W96
// 148   ----------------------------------------
 BYTE   W96
// 149   ----------------------------------------
 BYTE   W96
// 150   ----------------------------------------
 BYTE   W96
// 151   ----------------------------------------
 BYTE   W96
// 152   ----------------------------------------
 BYTE   W96
// 153   ----------------------------------------
 BYTE   W96
// 154   ----------------------------------------
 BYTE   W96
// 155   ----------------------------------------
 BYTE   W96
// 156   ----------------------------------------
 BYTE   W96
// 157   ----------------------------------------
 BYTE   W96
// 158   ----------------------------------------
 BYTE   W96
// 159   ----------------------------------------
 BYTE   W96
// 160   ----------------------------------------
 BYTE   W96
// 161   ----------------------------------------
 BYTE   W96
// 162   ----------------------------------------
 BYTE   W96
// 163   ----------------------------------------
 BYTE   W96
// 164   ----------------------------------------
 BYTE   W96
// 165   ----------------------------------------
 BYTE   W96
// 166   ----------------------------------------
 BYTE   W96
// 167   ----------------------------------------
 BYTE   W96
// 168   ----------------------------------------
 BYTE   W96
// 169   ----------------------------------------
 BYTE   W96
// 170   ----------------------------------------
 BYTE   W96
// 171   ----------------------------------------
 BYTE   W96
// 172   ----------------------------------------
 BYTE   W96
// 173   ----------------------------------------
 BYTE   PATT
  POIN2 Label_2_014B329E
// 174   ----------------------------------------
 BYTE   N92  En4  v092
 BYTE   W96
// 175   ----------------------------------------
 BYTE   PATT
  POIN2 Label_2_014B32A8
// 176   ----------------------------------------
 BYTE   PATT
  POIN2 Label_2_014B32B0
// 177   ----------------------------------------
 BYTE   W96
// 178   ----------------------------------------
 BYTE   W96
// 179   ----------------------------------------
 BYTE   W96
// 180   ----------------------------------------
 BYTE   W96
// 181   ----------------------------------------
 BYTE   W96
// 182   ----------------------------------------
 BYTE   W96
// 183   ----------------------------------------
 BYTE   W96
// 184   ----------------------------------------
 BYTE   W96
// 185   ----------------------------------------
 BYTE   W96
// 186   ----------------------------------------
 BYTE   W96
// 187   ----------------------------------------
 BYTE   W96
// 188   ----------------------------------------
 BYTE   W96
// 189   ----------------------------------------
 BYTE   W96
// 190   ----------------------------------------
 BYTE   W96
// 191   ----------------------------------------
 BYTE   W96
// 192   ----------------------------------------
 BYTE   W96
// 193   ----------------------------------------
 BYTE   W96
// 194   ----------------------------------------
 BYTE   W96
// 195   ----------------------------------------
 BYTE   W96
// 196   ----------------------------------------
 BYTE   W96
// 197   ----------------------------------------
 BYTE   W96
// 198   ----------------------------------------
 BYTE   W96
// 199   ----------------------------------------
 BYTE   W96
// 200   ----------------------------------------
 BYTE   W96
// 201   ----------------------------------------
 BYTE   W96
// 202   ----------------------------------------
 BYTE   W96
// 203   ----------------------------------------
 BYTE   W96
// 204   ----------------------------------------
 BYTE   W96
// 205   ----------------------------------------
 BYTE   W96
// 206   ----------------------------------------
 BYTE   W96
// 207   ----------------------------------------
 BYTE   W96
// 208   ----------------------------------------
 BYTE   W96
// 209   ----------------------------------------
 BYTE   W96
// 210   ----------------------------------------
 BYTE   W96
// 211   ----------------------------------------
 BYTE   W96
// 212   ----------------------------------------
 BYTE   W96
// 213   ----------------------------------------
 BYTE   W96
// 214   ----------------------------------------
 BYTE   W96
// 215   ----------------------------------------
 BYTE   W96
// 216   ----------------------------------------
 BYTE   W96
// 217   ----------------------------------------
 BYTE   W96
// 218   ----------------------------------------
 BYTE   W96
// 219   ----------------------------------------
 BYTE   W96
// 220   ----------------------------------------
 BYTE   W96
// 221   ----------------------------------------
 BYTE   W96
// 222   ----------------------------------------
 BYTE   W96
// 223   ----------------------------------------
 BYTE   W96
// 224   ----------------------------------------
 BYTE   W96
// 225   ----------------------------------------
 BYTE   W96
// 226   ----------------------------------------
 BYTE   W96
// 227   ----------------------------------------
 BYTE   W96
// 228   ----------------------------------------
 BYTE   W96
// 229   ----------------------------------------
 BYTE   W96
// 230   ----------------------------------------
 BYTE   W96
// 231   ----------------------------------------
 BYTE   W96
// 232   ----------------------------------------
 BYTE   W96
// 233   ----------------------------------------
 BYTE   W96
// 234   ----------------------------------------
 BYTE   W96
// 235   ----------------------------------------
 BYTE   W96
// 236   ----------------------------------------
 BYTE   W96
// 237   ----------------------------------------
 BYTE   W96
// 238   ----------------------------------------
 BYTE   W96
// 239   ----------------------------------------
 BYTE   W96
// 240   ----------------------------------------
 BYTE   W96
// 241   ----------------------------------------
 BYTE   W96
// 242   ----------------------------------------
 BYTE   W96
// 243   ----------------------------------------
 BYTE   W96
// 244   ----------------------------------------
 BYTE   W96
// 245   ----------------------------------------
 BYTE   W96
// 246   ----------------------------------------
 BYTE   W96
// 247   ----------------------------------------
 BYTE   W96
// 248   ----------------------------------------
 BYTE   W96
// 249   ----------------------------------------
 BYTE   W96
// 250   ----------------------------------------
 BYTE   W96
// 251   ----------------------------------------
 BYTE   W96
// 252   ----------------------------------------
 BYTE   W96
// 253   ----------------------------------------
 BYTE   W96
// 254   ----------------------------------------
 BYTE   W96
// 255   ----------------------------------------
 BYTE   W96
// 256   ----------------------------------------
 BYTE   W96
// 257   ----------------------------------------
 BYTE   GoTo
  POIN2 Label_2_014B3256
// 258   ----------------------------------------
 BYTE   PATT
  POIN2 Label_2_014B329E
// 259   ----------------------------------------
 BYTE   N92  En4  v092
 BYTE   W96
// 260   ----------------------------------------
 BYTE   PATT
  POIN2 Label_2_014B32A8
// 261   ----------------------------------------
 BYTE   N44  En4  v092
 BYTE   W48
 BYTE   Cs4
 BYTE   W48
// 262   ----------------------------------------
 BYTE   TIE  Dn4
 BYTE   W96
// 263   ----------------------------------------
 BYTE   W96
// 264   ----------------------------------------
 BYTE   W96
// 265   ----------------------------------------
 BYTE   VOL   34*GuiltyGearXDizzysThemeMeatOfJustice_mvl/mxv
 BYTE   W48
 BYTE   Fn0
 BYTE   W48
// 266   ----------------------------------------
 BYTE   BnM1
 BYTE   W24
 BYTE   GnM1
 BYTE   W24
 BYTE   DsM1
 BYTE   W24
 BYTE   BnM2
 BYTE   W23
 BYTE   EOT
 BYTE   FINE

//**************** Track 4 (Midi-Chn.3) ****************//

GuiltyGearXDizzysThemeMeatOfJustice_004:
// 000   ----------------------------------------
 BYTE   KEYSH   GuiltyGearXDizzysThemeMeatOfJustice_key+0
 BYTE   VOICE   0
 BYTE   PAN   c_v-19
 BYTE   VOL   40*GuiltyGearXDizzysThemeMeatOfJustice_mvl/mxv
 BYTE   W96
// 001   ----------------------------------------
 BYTE   W96
// 002   ----------------------------------------
 BYTE   W96
// 003   ----------------------------------------
 BYTE   W96
// 004   ----------------------------------------
 BYTE   W96
// 005   ----------------------------------------
 BYTE   W96
// 006   ----------------------------------------
 BYTE   W96
// 007   ----------------------------------------
 BYTE   W96
// 008   ----------------------------------------
 BYTE   W96
// 009   ----------------------------------------
 BYTE   En0
 BYTE   N11  Fn4  v092
 BYTE   W12
 BYTE   Dn3
 BYTE   W12
 BYTE   Fn4
 BYTE   W12
 BYTE   Dn3
 BYTE   W12
 BYTE   Gn4
 BYTE   W12
 BYTE   Dn3
 BYTE   W12
 BYTE   Gn4
 BYTE   W12
 BYTE   Dn3
 BYTE   W12
// 010   ----------------------------------------
 BYTE   VOL   31*GuiltyGearXDizzysThemeMeatOfJustice_mvl/mxv
 BYTE   N11  En4
 BYTE   W12
 BYTE   Dn3
 BYTE   W12
 BYTE   En4
 BYTE   W12
 BYTE   Dn3
 BYTE   W12
 BYTE   Fn4
 BYTE   W12
 BYTE   Dn3
 BYTE   W12
 BYTE   Fn4
 BYTE   W12
 BYTE   Dn3
 BYTE   W12
// 011   ----------------------------------------
 BYTE   VOL   34*GuiltyGearXDizzysThemeMeatOfJustice_mvl/mxv
 BYTE   N11  Dn4
 BYTE   W12
 BYTE   Dn3
 BYTE   W12
 BYTE   Dn4
 BYTE   W12
 BYTE   Dn3
 BYTE   W12
 BYTE   VOL   36*GuiltyGearXDizzysThemeMeatOfJustice_mvl/mxv
 BYTE   N11  En4
 BYTE   W12
 BYTE   Dn3
 BYTE   W12
 BYTE   En4
 BYTE   W12
 BYTE   Dn3
 BYTE   W12
// 012   ----------------------------------------
 BYTE   VOL   38*GuiltyGearXDizzysThemeMeatOfJustice_mvl/mxv
 BYTE   N11  Cs4
 BYTE   W12
 BYTE   Dn3
 BYTE   W12
 BYTE   Dn4
 BYTE   W12
 BYTE   Dn3
 BYTE   W12
 BYTE   VOL   40*GuiltyGearXDizzysThemeMeatOfJustice_mvl/mxv
 BYTE   N11  En4
 BYTE   W12
 BYTE   Dn3
 BYTE   W12
 BYTE   Fn4
 BYTE   W12
 BYTE   Dn3
 BYTE   W12
// 013   ----------------------------------------
 BYTE   Fn4
 BYTE   W12
 BYTE   Dn3
 BYTE   W12
 BYTE   Fn4
 BYTE   W12
 BYTE   Dn3
 BYTE   W12
 BYTE   Gn4
 BYTE   W12
 BYTE   Dn3
 BYTE   W12
 BYTE   Gn4
 BYTE   W12
 BYTE   Dn3
 BYTE   W12
// 014   ----------------------------------------
 BYTE   En4
 BYTE   W12
 BYTE   Dn3
 BYTE   W12
 BYTE   En4
 BYTE   W12
 BYTE   Dn3
 BYTE   W12
 BYTE   Fn4
 BYTE   W12
 BYTE   Dn3
 BYTE   W12
 BYTE   Fn4
 BYTE   W12
 BYTE   Dn3
 BYTE   W12
// 015   ----------------------------------------
 BYTE   Dn4
 BYTE   W12
 BYTE   Dn3
 BYTE   W12
 BYTE   Dn4
 BYTE   W12
 BYTE   Dn3
 BYTE   W12
 BYTE   En4
 BYTE   W12
 BYTE   Dn3
 BYTE   W12
 BYTE   En4
 BYTE   W12
 BYTE   Dn3
 BYTE   W12
// 016   ----------------------------------------
 BYTE   Cs4
 BYTE   W12
 BYTE   Dn3
 BYTE   W12
 BYTE   Dn4
 BYTE   W12
 BYTE   Dn3
 BYTE   W12
 BYTE   En4
 BYTE   W12
 BYTE   Dn3
 BYTE   W12
 BYTE   Fn4
 BYTE   W12
 BYTE   Dn3
 BYTE   W12
// 017   ----------------------------------------
Label_3_014C1773:
 BYTE   W96
// 018   ----------------------------------------
 BYTE   W96
// 019   ----------------------------------------
 BYTE   W96
// 020   ----------------------------------------
 BYTE   W96
// 021   ----------------------------------------
 BYTE   W96
// 022   ----------------------------------------
 BYTE   W96
// 023   ----------------------------------------
 BYTE   W96
// 024   ----------------------------------------
 BYTE   W96
// 025   ----------------------------------------
 BYTE   W96
// 026   ----------------------------------------
 BYTE   W96
// 027   ----------------------------------------
 BYTE   W96
// 028   ----------------------------------------
 BYTE   W96
// 029   ----------------------------------------
 BYTE   W96
// 030   ----------------------------------------
 BYTE   W96
// 031   ----------------------------------------
 BYTE   W96
// 032   ----------------------------------------
 BYTE   W96
// 033   ----------------------------------------
 BYTE   W96
// 034   ----------------------------------------
 BYTE   W96
// 035   ----------------------------------------
 BYTE   W96
// 036   ----------------------------------------
 BYTE   W96
// 037   ----------------------------------------
 BYTE   W96
// 038   ----------------------------------------
 BYTE   W96
// 039   ----------------------------------------
 BYTE   W96
// 040   ----------------------------------------
 BYTE   W96
// 041   ----------------------------------------
 BYTE   W96
// 042   ----------------------------------------
 BYTE   W96
// 043   ----------------------------------------
 BYTE   W96
// 044   ----------------------------------------
 BYTE   W96
// 045   ----------------------------------------
 BYTE   W96
// 046   ----------------------------------------
 BYTE   W96
// 047   ----------------------------------------
 BYTE   W96
// 048   ----------------------------------------
 BYTE   W96
// 049   ----------------------------------------
 BYTE   W96
// 050   ----------------------------------------
 BYTE   W96
// 051   ----------------------------------------
 BYTE   W96
// 052   ----------------------------------------
 BYTE   W96
// 053   ----------------------------------------
 BYTE   W96
// 054   ----------------------------------------
 BYTE   W96
// 055   ----------------------------------------
 BYTE   W96
// 056   ----------------------------------------
 BYTE   W96
// 057   ----------------------------------------
 BYTE   W96
// 058   ----------------------------------------
 BYTE   W96
// 059   ----------------------------------------
 BYTE   W96
// 060   ----------------------------------------
 BYTE   W96
// 061   ----------------------------------------
 BYTE   W96
// 062   ----------------------------------------
 BYTE   W96
// 063   ----------------------------------------
 BYTE   W96
// 064   ----------------------------------------
 BYTE   W96
// 065   ----------------------------------------
 BYTE   W96
// 066   ----------------------------------------
 BYTE   W96
// 067   ----------------------------------------
 BYTE   W96
// 068   ----------------------------------------
 BYTE   W96
// 069   ----------------------------------------
 BYTE   W96
// 070   ----------------------------------------
 BYTE   W96
// 071   ----------------------------------------
 BYTE   W96
// 072   ----------------------------------------
 BYTE   W96
// 073   ----------------------------------------
 BYTE   W96
// 074   ----------------------------------------
 BYTE   W96
// 075   ----------------------------------------
 BYTE   W96
// 076   ----------------------------------------
 BYTE   W96
// 077   ----------------------------------------
 BYTE   W96
// 078   ----------------------------------------
 BYTE   W96
// 079   ----------------------------------------
 BYTE   W96
// 080   ----------------------------------------
 BYTE   W96
// 081   ----------------------------------------
 BYTE   W96
// 082   ----------------------------------------
 BYTE   W96
// 083   ----------------------------------------
 BYTE   W96
// 084   ----------------------------------------
 BYTE   W96
// 085   ----------------------------------------
 BYTE   W96
// 086   ----------------------------------------
 BYTE   W96
// 087   ----------------------------------------
 BYTE   W96
// 088   ----------------------------------------
 BYTE   W96
// 089   ----------------------------------------
 BYTE   W96
// 090   ----------------------------------------
 BYTE   W96
// 091   ----------------------------------------
 BYTE   W96
// 092   ----------------------------------------
 BYTE   W96
// 093   ----------------------------------------
 BYTE   W96
// 094   ----------------------------------------
 BYTE   W96
// 095   ----------------------------------------
 BYTE   W96
// 096   ----------------------------------------
 BYTE   W96
// 097   ----------------------------------------
 BYTE   W96
// 098   ----------------------------------------
 BYTE   W96
// 099   ----------------------------------------
 BYTE   W96
// 100   ----------------------------------------
 BYTE   W96
// 101   ----------------------------------------
 BYTE   W96
// 102   ----------------------------------------
 BYTE   W96
// 103   ----------------------------------------
 BYTE   W96
// 104   ----------------------------------------
 BYTE   W96
// 105   ----------------------------------------
 BYTE   W96
// 106   ----------------------------------------
 BYTE   W96
// 107   ----------------------------------------
 BYTE   W96
// 108   ----------------------------------------
 BYTE   W96
// 109   ----------------------------------------
 BYTE   W96
// 110   ----------------------------------------
 BYTE   W96
// 111   ----------------------------------------
 BYTE   W96
// 112   ----------------------------------------
 BYTE   W96
// 113   ----------------------------------------
 BYTE   W96
// 114   ----------------------------------------
 BYTE   W96
// 115   ----------------------------------------
 BYTE   W96
// 116   ----------------------------------------
 BYTE   W96
// 117   ----------------------------------------
 BYTE   W96
// 118   ----------------------------------------
 BYTE   W96
// 119   ----------------------------------------
 BYTE   W96
// 120   ----------------------------------------
 BYTE   W96
// 121   ----------------------------------------
 BYTE   W96
// 122   ----------------------------------------
 BYTE   W96
// 123   ----------------------------------------
 BYTE   W96
// 124   ----------------------------------------
 BYTE   W96
// 125   ----------------------------------------
 BYTE   W96
// 126   ----------------------------------------
 BYTE   W96
// 127   ----------------------------------------
 BYTE   W96
// 128   ----------------------------------------
 BYTE   W96
// 129   ----------------------------------------
 BYTE   W96
// 130   ----------------------------------------
 BYTE   W96
// 131   ----------------------------------------
 BYTE   W96
// 132   ----------------------------------------
 BYTE   W96
// 133   ----------------------------------------
 BYTE   W96
// 134   ----------------------------------------
 BYTE   W96
// 135   ----------------------------------------
 BYTE   W96
// 136   ----------------------------------------
 BYTE   W96
// 137   ----------------------------------------
 BYTE   W96
// 138   ----------------------------------------
 BYTE   W96
// 139   ----------------------------------------
 BYTE   W96
// 140   ----------------------------------------
 BYTE   W96
// 141   ----------------------------------------
 BYTE   W96
// 142   ----------------------------------------
 BYTE   W96
// 143   ----------------------------------------
 BYTE   W96
// 144   ----------------------------------------
 BYTE   W96
// 145   ----------------------------------------
 BYTE   W96
// 146   ----------------------------------------
 BYTE   W96
// 147   ----------------------------------------
 BYTE   W96
// 148   ----------------------------------------
 BYTE   W96
// 149   ----------------------------------------
 BYTE   W96
// 150   ----------------------------------------
 BYTE   W96
// 151   ----------------------------------------
 BYTE   W96
// 152   ----------------------------------------
 BYTE   W96
// 153   ----------------------------------------
 BYTE   W96
// 154   ----------------------------------------
 BYTE   W96
// 155   ----------------------------------------
 BYTE   W96
// 156   ----------------------------------------
 BYTE   W96
// 157   ----------------------------------------
 BYTE   W96
// 158   ----------------------------------------
 BYTE   W96
// 159   ----------------------------------------
 BYTE   W96
// 160   ----------------------------------------
 BYTE   W96
// 161   ----------------------------------------
 BYTE   W96
// 162   ----------------------------------------
 BYTE   W96
// 163   ----------------------------------------
 BYTE   W96
// 164   ----------------------------------------
 BYTE   W96
// 165   ----------------------------------------
 BYTE   W96
// 166   ----------------------------------------
 BYTE   W96
// 167   ----------------------------------------
 BYTE   W96
// 168   ----------------------------------------
 BYTE   W96
// 169   ----------------------------------------
 BYTE   W96
// 170   ----------------------------------------
 BYTE   W96
// 171   ----------------------------------------
 BYTE   W96
// 172   ----------------------------------------
 BYTE   W96
// 173   ----------------------------------------
 BYTE   W96
// 174   ----------------------------------------
 BYTE   W96
// 175   ----------------------------------------
 BYTE   W96
// 176   ----------------------------------------
 BYTE   W96
// 177   ----------------------------------------
 BYTE   W96
// 178   ----------------------------------------
 BYTE   W96
// 179   ----------------------------------------
 BYTE   W96
// 180   ----------------------------------------
 BYTE   W96
// 181   ----------------------------------------
 BYTE   W96
// 182   ----------------------------------------
 BYTE   W96
// 183   ----------------------------------------
 BYTE   W96
// 184   ----------------------------------------
 BYTE   W96
// 185   ----------------------------------------
 BYTE   W96
// 186   ----------------------------------------
 BYTE   W96
// 187   ----------------------------------------
 BYTE   W96
// 188   ----------------------------------------
 BYTE   W96
// 189   ----------------------------------------
 BYTE   W96
// 190   ----------------------------------------
 BYTE   W96
// 191   ----------------------------------------
 BYTE   W96
// 192   ----------------------------------------
 BYTE   W96
// 193   ----------------------------------------
 BYTE   W96
// 194   ----------------------------------------
 BYTE   W96
// 195   ----------------------------------------
 BYTE   W96
// 196   ----------------------------------------
 BYTE   W96
// 197   ----------------------------------------
 BYTE   W96
// 198   ----------------------------------------
 BYTE   W96
// 199   ----------------------------------------
 BYTE   W96
// 200   ----------------------------------------
 BYTE   W96
// 201   ----------------------------------------
 BYTE   W96
// 202   ----------------------------------------
 BYTE   W96
// 203   ----------------------------------------
 BYTE   W96
// 204   ----------------------------------------
 BYTE   W96
// 205   ----------------------------------------
 BYTE   W96
// 206   ----------------------------------------
 BYTE   W96
// 207   ----------------------------------------
 BYTE   W96
// 208   ----------------------------------------
 BYTE   W96
// 209   ----------------------------------------
 BYTE   W96
// 210   ----------------------------------------
 BYTE   W96
// 211   ----------------------------------------
 BYTE   W96
// 212   ----------------------------------------
 BYTE   W96
// 213   ----------------------------------------
 BYTE   W96
// 214   ----------------------------------------
 BYTE   W96
// 215   ----------------------------------------
 BYTE   W96
// 216   ----------------------------------------
 BYTE   W96
// 217   ----------------------------------------
 BYTE   W96
// 218   ----------------------------------------
 BYTE   W96
// 219   ----------------------------------------
 BYTE   W96
// 220   ----------------------------------------
 BYTE   W96
// 221   ----------------------------------------
 BYTE   W96
// 222   ----------------------------------------
 BYTE   W96
// 223   ----------------------------------------
 BYTE   W96
// 224   ----------------------------------------
 BYTE   W96
// 225   ----------------------------------------
 BYTE   W96
// 226   ----------------------------------------
 BYTE   W96
// 227   ----------------------------------------
 BYTE   W96
// 228   ----------------------------------------
 BYTE   W96
// 229   ----------------------------------------
 BYTE   W96
// 230   ----------------------------------------
 BYTE   W96
// 231   ----------------------------------------
 BYTE   W96
// 232   ----------------------------------------
 BYTE   W96
// 233   ----------------------------------------
 BYTE   W96
// 234   ----------------------------------------
 BYTE   W96
// 235   ----------------------------------------
 BYTE   W96
// 236   ----------------------------------------
 BYTE   W96
// 237   ----------------------------------------
 BYTE   W96
// 238   ----------------------------------------
 BYTE   W96
// 239   ----------------------------------------
 BYTE   W96
// 240   ----------------------------------------
 BYTE   W96
// 241   ----------------------------------------
 BYTE   W96
// 242   ----------------------------------------
 BYTE   W96
// 243   ----------------------------------------
 BYTE   W96
// 244   ----------------------------------------
 BYTE   W96
// 245   ----------------------------------------
 BYTE   W96
// 246   ----------------------------------------
 BYTE   W96
// 247   ----------------------------------------
 BYTE   W96
// 248   ----------------------------------------
 BYTE   W96
// 249   ----------------------------------------
 BYTE   W96
// 250   ----------------------------------------
 BYTE   W96
// 251   ----------------------------------------
 BYTE   W96
// 252   ----------------------------------------
 BYTE   W96
// 253   ----------------------------------------
 BYTE   W96
// 254   ----------------------------------------
 BYTE   W96
// 255   ----------------------------------------
 BYTE   W96
// 256   ----------------------------------------
 BYTE   W96
// 257   ----------------------------------------
 BYTE   GoTo
  POIN2 Label_3_014C1773
// 258   ----------------------------------------
 BYTE   W96
// 259   ----------------------------------------
 BYTE   W96
// 260   ----------------------------------------
 BYTE   W96
// 261   ----------------------------------------
 BYTE   W96
// 262   ----------------------------------------
 BYTE   W96
// 263   ----------------------------------------
 BYTE   W96
// 264   ----------------------------------------
 BYTE   W96
// 265   ----------------------------------------
 BYTE   W96
// 266   ----------------------------------------
 BYTE   W92
 BYTE   W03
 BYTE   FINE

//**************** Track 5 (Midi-Chn.4) ****************//

GuiltyGearXDizzysThemeMeatOfJustice_005:
// 000   ----------------------------------------
 BYTE   KEYSH   GuiltyGearXDizzysThemeMeatOfJustice_key+0
 BYTE   VOICE   19
 BYTE   PAN   c_v+21
 BYTE   VOL   40*GuiltyGearXDizzysThemeMeatOfJustice_mvl/mxv
 BYTE   W96
// 001   ----------------------------------------
 BYTE   W96
// 002   ----------------------------------------
 BYTE   W96
// 003   ----------------------------------------
 BYTE   W96
// 004   ----------------------------------------
 BYTE   W96
// 005   ----------------------------------------
 BYTE   W96
// 006   ----------------------------------------
 BYTE   W96
// 007   ----------------------------------------
 BYTE   W96
// 008   ----------------------------------------
 BYTE   W96
// 009   ----------------------------------------
 BYTE   W96
// 010   ----------------------------------------
 BYTE   W96
// 011   ----------------------------------------
 BYTE   W96
// 012   ----------------------------------------
 BYTE   W96
// 013   ----------------------------------------
 BYTE   Gn0
 BYTE   N44  Dn3  v092
 BYTE   N44  Dn4
 BYTE   N44  Fn4
 BYTE   W48
 BYTE   Dn3
 BYTE   N44  Dn4
 BYTE   N44  Gn4
 BYTE   W48
// 014   ----------------------------------------
 BYTE   Dn3
 BYTE   N44  En4
 BYTE   W48
 BYTE   Dn3
 BYTE   N44  Fn4
 BYTE   W48
// 015   ----------------------------------------
 BYTE   Dn3
 BYTE   N44  Dn4
 BYTE   W48
 BYTE   Dn3
 BYTE   N44  En4
 BYTE   W48
// 016   ----------------------------------------
 BYTE   N23  Dn3
 BYTE   N23  Cs4
 BYTE   W24
 BYTE   Dn3
 BYTE   N23  Dn4
 BYTE   W24
 BYTE   Dn3
 BYTE   N23  En4
 BYTE   W24
 BYTE   Dn3
 BYTE   N23  Fn4
 BYTE   W24
// 017   ----------------------------------------
Label_4_014C18B9:
 BYTE   W96
// 018   ----------------------------------------
 BYTE   W96
// 019   ----------------------------------------
 BYTE   W96
// 020   ----------------------------------------
 BYTE   W96
// 021   ----------------------------------------
 BYTE   W96
// 022   ----------------------------------------
 BYTE   W96
// 023   ----------------------------------------
 BYTE   W96
// 024   ----------------------------------------
 BYTE   W96
// 025   ----------------------------------------
 BYTE   W96
// 026   ----------------------------------------
 BYTE   W96
// 027   ----------------------------------------
 BYTE   W96
// 028   ----------------------------------------
 BYTE   W96
// 029   ----------------------------------------
 BYTE   W96
// 030   ----------------------------------------
 BYTE   W96
// 031   ----------------------------------------
 BYTE   W96
// 032   ----------------------------------------
 BYTE   W96
// 033   ----------------------------------------
 BYTE   W96
// 034   ----------------------------------------
 BYTE   W96
// 035   ----------------------------------------
 BYTE   W96
// 036   ----------------------------------------
 BYTE   W96
// 037   ----------------------------------------
 BYTE   W96
// 038   ----------------------------------------
 BYTE   W96
// 039   ----------------------------------------
 BYTE   W96
// 040   ----------------------------------------
 BYTE   W96
// 041   ----------------------------------------
 BYTE   W96
// 042   ----------------------------------------
 BYTE   W96
// 043   ----------------------------------------
 BYTE   W96
// 044   ----------------------------------------
 BYTE   W96
// 045   ----------------------------------------
 BYTE   W96
// 046   ----------------------------------------
 BYTE   W96
// 047   ----------------------------------------
 BYTE   W96
// 048   ----------------------------------------
 BYTE   W96
// 049   ----------------------------------------
 BYTE   W96
// 050   ----------------------------------------
 BYTE   W96
// 051   ----------------------------------------
 BYTE   W96
// 052   ----------------------------------------
 BYTE   W96
// 053   ----------------------------------------
 BYTE   W96
// 054   ----------------------------------------
 BYTE   W96
// 055   ----------------------------------------
 BYTE   W96
// 056   ----------------------------------------
 BYTE   W96
// 057   ----------------------------------------
Label_4_014C18E1:
 BYTE   VOL   40*GuiltyGearXDizzysThemeMeatOfJustice_mvl/mxv
 BYTE   N11  As4  v092
 BYTE   W12
 BYTE   Fn5
 BYTE   W12
 BYTE   En5
 BYTE   W12
 BYTE   Fn5
 BYTE   W12
 BYTE   As4
 BYTE   W12
 BYTE   Fn5
 BYTE   W12
 BYTE   En5
 BYTE   W12
 BYTE   Fn5
 BYTE   W12
 BYTE   PEND 
// 058   ----------------------------------------
Label_4_014C18F6:
 BYTE   N11  As4  v092
 BYTE   W12
 BYTE   Fn5
 BYTE   W12
 BYTE   En5
 BYTE   W12
 BYTE   Fn5
 BYTE   W12
 BYTE   As4
 BYTE   W12
 BYTE   Fn5
 BYTE   W12
 BYTE   En5
 BYTE   W12
 BYTE   Fn5
 BYTE   W12
 BYTE   PEND 
// 059   ----------------------------------------
Label_4_014C1909:
 BYTE   N11  Gn4  v092
 BYTE   W12
 BYTE   En5
 BYTE   W12
 BYTE   Dn5
 BYTE   W12
 BYTE   En5
 BYTE   W12
 BYTE   Gn4
 BYTE   W12
 BYTE   En5
 BYTE   W12
 BYTE   Dn5
 BYTE   W12
 BYTE   En5
 BYTE   W12
 BYTE   PEND 
// 060   ----------------------------------------
 BYTE   PATT
  POIN2 Label_4_014C1909
// 061   ----------------------------------------
Label_4_014C1921:
 BYTE   N11  An4  v092
 BYTE   W12
 BYTE   En5
 BYTE   W12
 BYTE   Dn5
 BYTE   W12
 BYTE   En5
 BYTE   W12
 BYTE   An4
 BYTE   W12
 BYTE   En5
 BYTE   W12
 BYTE   Dn5
 BYTE   W12
 BYTE   En5
 BYTE   W12
 BYTE   PEND 
// 062   ----------------------------------------
 BYTE   PATT
  POIN2 Label_4_014C1921
// 063   ----------------------------------------
Label_4_014C1939:
 BYTE   N11  As4  v092
 BYTE   W12
 BYTE   Dn5
 BYTE   W12
 BYTE   Cn5
 BYTE   W12
 BYTE   Dn5
 BYTE   W12
 BYTE   As4
 BYTE   W12
 BYTE   Dn5
 BYTE   W12
 BYTE   Cn5
 BYTE   W12
 BYTE   Dn5
 BYTE   W12
 BYTE   PEND 
// 064   ----------------------------------------
Label_4_014C194C:
 BYTE   N11  An4  v092
 BYTE   W12
 BYTE   Dn5
 BYTE   W12
 BYTE   Cn5
 BYTE   W12
 BYTE   Dn5
 BYTE   W12
 BYTE   An4
 BYTE   W12
 BYTE   Dn5
 BYTE   W12
 BYTE   Cn5
 BYTE   W12
 BYTE   Dn5
 BYTE   W12
 BYTE   PEND 
// 065   ----------------------------------------
Label_4_014C195F:
 BYTE   N11  Gn4  v092
 BYTE   W12
 BYTE   Dn5
 BYTE   W12
 BYTE   Cn5
 BYTE   W12
 BYTE   Dn5
 BYTE   W12
 BYTE   Gn4
 BYTE   W12
 BYTE   Dn5
 BYTE   W12
 BYTE   Cn5
 BYTE   W12
 BYTE   Dn5
 BYTE   W12
 BYTE   PEND 
// 066   ----------------------------------------
 BYTE   PATT
  POIN2 Label_4_014C195F
// 067   ----------------------------------------
Label_4_014C1977:
 BYTE   N11  An4  v092
 BYTE   W12
 BYTE   Cs5
 BYTE   W12
 BYTE   Dn5
 BYTE   W12
 BYTE   Cs5
 BYTE   W12
 BYTE   An4
 BYTE   W12
 BYTE   Cs5
 BYTE   W12
 BYTE   Dn5
 BYTE   W12
 BYTE   Cs5
 BYTE   W12
 BYTE   PEND 
// 068   ----------------------------------------
 BYTE   PATT
  POIN2 Label_4_014C1977
// 069   ----------------------------------------
 BYTE   W96
// 070   ----------------------------------------
 BYTE   W96
// 071   ----------------------------------------
 BYTE   W96
// 072   ----------------------------------------
 BYTE   W96
// 073   ----------------------------------------
 BYTE   PATT
  POIN2 Label_4_014C18F6
// 074   ----------------------------------------
 BYTE   PATT
  POIN2 Label_4_014C18F6
// 075   ----------------------------------------
 BYTE   PATT
  POIN2 Label_4_014C1909
// 076   ----------------------------------------
 BYTE   PATT
  POIN2 Label_4_014C1909
// 077   ----------------------------------------
 BYTE   PATT
  POIN2 Label_4_014C1921
// 078   ----------------------------------------
 BYTE   PATT
  POIN2 Label_4_014C1921
// 079   ----------------------------------------
 BYTE   PATT
  POIN2 Label_4_014C1939
// 080   ----------------------------------------
 BYTE   PATT
  POIN2 Label_4_014C194C
// 081   ----------------------------------------
 BYTE   PATT
  POIN2 Label_4_014C195F
// 082   ----------------------------------------
 BYTE   PATT
  POIN2 Label_4_014C195F
// 083   ----------------------------------------
 BYTE   PATT
  POIN2 Label_4_014C1977
// 084   ----------------------------------------
 BYTE   PATT
  POIN2 Label_4_014C1977
// 085   ----------------------------------------
 BYTE   W96
// 086   ----------------------------------------
 BYTE   W96
// 087   ----------------------------------------
 BYTE   W96
// 088   ----------------------------------------
 BYTE   W96
// 089   ----------------------------------------
 BYTE   W96
// 090   ----------------------------------------
 BYTE   W96
// 091   ----------------------------------------
 BYTE   W96
// 092   ----------------------------------------
 BYTE   W96
// 093   ----------------------------------------
 BYTE   W96
// 094   ----------------------------------------
 BYTE   W96
// 095   ----------------------------------------
 BYTE   W96
// 096   ----------------------------------------
 BYTE   W96
// 097   ----------------------------------------
 BYTE   W96
// 098   ----------------------------------------
 BYTE   W96
// 099   ----------------------------------------
 BYTE   W96
// 100   ----------------------------------------
 BYTE   W96
// 101   ----------------------------------------
 BYTE   W96
// 102   ----------------------------------------
 BYTE   W96
// 103   ----------------------------------------
 BYTE   W96
// 104   ----------------------------------------
 BYTE   W96
// 105   ----------------------------------------
 BYTE   W96
// 106   ----------------------------------------
 BYTE   W96
// 107   ----------------------------------------
 BYTE   W96
// 108   ----------------------------------------
 BYTE   W96
// 109   ----------------------------------------
 BYTE   W96
// 110   ----------------------------------------
 BYTE   W96
// 111   ----------------------------------------
 BYTE   W96
// 112   ----------------------------------------
 BYTE   W96
// 113   ----------------------------------------
 BYTE   W96
// 114   ----------------------------------------
 BYTE   W96
// 115   ----------------------------------------
 BYTE   W96
// 116   ----------------------------------------
 BYTE   W96
// 117   ----------------------------------------
 BYTE   W96
// 118   ----------------------------------------
 BYTE   W96
// 119   ----------------------------------------
 BYTE   W96
// 120   ----------------------------------------
 BYTE   W96
// 121   ----------------------------------------
 BYTE   W96
// 122   ----------------------------------------
 BYTE   W96
// 123   ----------------------------------------
 BYTE   W96
// 124   ----------------------------------------
 BYTE   W96
// 125   ----------------------------------------
 BYTE   W96
// 126   ----------------------------------------
 BYTE   W96
// 127   ----------------------------------------
 BYTE   W96
// 128   ----------------------------------------
 BYTE   W96
// 129   ----------------------------------------
 BYTE   W96
// 130   ----------------------------------------
 BYTE   W96
// 131   ----------------------------------------
 BYTE   W96
// 132   ----------------------------------------
 BYTE   W96
// 133   ----------------------------------------
 BYTE   W96
// 134   ----------------------------------------
 BYTE   W96
// 135   ----------------------------------------
 BYTE   W96
// 136   ----------------------------------------
 BYTE   W96
// 137   ----------------------------------------
 BYTE   W96
// 138   ----------------------------------------
 BYTE   W96
// 139   ----------------------------------------
 BYTE   W96
// 140   ----------------------------------------
 BYTE   W96
// 141   ----------------------------------------
 BYTE   PATT
  POIN2 Label_4_014C18E1
// 142   ----------------------------------------
 BYTE   PATT
  POIN2 Label_4_014C18F6
// 143   ----------------------------------------
 BYTE   PATT
  POIN2 Label_4_014C1909
// 144   ----------------------------------------
 BYTE   PATT
  POIN2 Label_4_014C1909
// 145   ----------------------------------------
 BYTE   PATT
  POIN2 Label_4_014C1921
// 146   ----------------------------------------
 BYTE   PATT
  POIN2 Label_4_014C1921
// 147   ----------------------------------------
 BYTE   PATT
  POIN2 Label_4_014C1939
// 148   ----------------------------------------
 BYTE   PATT
  POIN2 Label_4_014C194C
// 149   ----------------------------------------
 BYTE   PATT
  POIN2 Label_4_014C195F
// 150   ----------------------------------------
 BYTE   PATT
  POIN2 Label_4_014C195F
// 151   ----------------------------------------
 BYTE   PATT
  POIN2 Label_4_014C1977
// 152   ----------------------------------------
 BYTE   PATT
  POIN2 Label_4_014C1977
// 153   ----------------------------------------
 BYTE   W96
// 154   ----------------------------------------
 BYTE   W96
// 155   ----------------------------------------
 BYTE   W96
// 156   ----------------------------------------
 BYTE   W96
// 157   ----------------------------------------
 BYTE   PATT
  POIN2 Label_4_014C18F6
// 158   ----------------------------------------
 BYTE   PATT
  POIN2 Label_4_014C18F6
// 159   ----------------------------------------
 BYTE   PATT
  POIN2 Label_4_014C1909
// 160   ----------------------------------------
 BYTE   PATT
  POIN2 Label_4_014C1909
// 161   ----------------------------------------
 BYTE   PATT
  POIN2 Label_4_014C1921
// 162   ----------------------------------------
 BYTE   PATT
  POIN2 Label_4_014C1921
// 163   ----------------------------------------
 BYTE   PATT
  POIN2 Label_4_014C1939
// 164   ----------------------------------------
 BYTE   PATT
  POIN2 Label_4_014C194C
// 165   ----------------------------------------
 BYTE   PATT
  POIN2 Label_4_014C195F
// 166   ----------------------------------------
 BYTE   PATT
  POIN2 Label_4_014C195F
// 167   ----------------------------------------
 BYTE   PATT
  POIN2 Label_4_014C1977
// 168   ----------------------------------------
 BYTE   PATT
  POIN2 Label_4_014C1977
// 169   ----------------------------------------
 BYTE   W96
// 170   ----------------------------------------
 BYTE   W96
// 171   ----------------------------------------
 BYTE   W96
// 172   ----------------------------------------
 BYTE   W96
// 173   ----------------------------------------
 BYTE   W96
// 174   ----------------------------------------
 BYTE   W96
// 175   ----------------------------------------
 BYTE   W96
// 176   ----------------------------------------
 BYTE   W96
// 177   ----------------------------------------
 BYTE   W96
// 178   ----------------------------------------
 BYTE   W96
// 179   ----------------------------------------
 BYTE   W96
// 180   ----------------------------------------
 BYTE   W96
// 181   ----------------------------------------
 BYTE   W96
// 182   ----------------------------------------
 BYTE   W96
// 183   ----------------------------------------
 BYTE   W96
// 184   ----------------------------------------
 BYTE   W96
// 185   ----------------------------------------
 BYTE   W96
// 186   ----------------------------------------
 BYTE   W96
// 187   ----------------------------------------
 BYTE   W96
// 188   ----------------------------------------
 BYTE   W96
// 189   ----------------------------------------
 BYTE   W96
// 190   ----------------------------------------
 BYTE   W96
// 191   ----------------------------------------
 BYTE   W96
// 192   ----------------------------------------
 BYTE   W96
// 193   ----------------------------------------
 BYTE   W96
// 194   ----------------------------------------
 BYTE   W96
// 195   ----------------------------------------
 BYTE   W96
// 196   ----------------------------------------
 BYTE   W96
// 197   ----------------------------------------
 BYTE   W96
// 198   ----------------------------------------
 BYTE   W96
// 199   ----------------------------------------
 BYTE   W96
// 200   ----------------------------------------
 BYTE   W96
// 201   ----------------------------------------
 BYTE   W96
// 202   ----------------------------------------
 BYTE   W96
// 203   ----------------------------------------
 BYTE   W96
// 204   ----------------------------------------
 BYTE   W96
// 205   ----------------------------------------
 BYTE   W96
// 206   ----------------------------------------
 BYTE   W96
// 207   ----------------------------------------
 BYTE   W96
// 208   ----------------------------------------
 BYTE   W96
// 209   ----------------------------------------
 BYTE   W96
// 210   ----------------------------------------
 BYTE   W96
// 211   ----------------------------------------
 BYTE   W96
// 212   ----------------------------------------
 BYTE   W96
// 213   ----------------------------------------
 BYTE   W96
// 214   ----------------------------------------
 BYTE   W96
// 215   ----------------------------------------
 BYTE   W96
// 216   ----------------------------------------
 BYTE   W96
// 217   ----------------------------------------
 BYTE   W96
// 218   ----------------------------------------
 BYTE   W96
// 219   ----------------------------------------
 BYTE   W96
// 220   ----------------------------------------
 BYTE   W96
// 221   ----------------------------------------
 BYTE   W96
// 222   ----------------------------------------
 BYTE   W96
// 223   ----------------------------------------
 BYTE   W96
// 224   ----------------------------------------
 BYTE   W96
// 225   ----------------------------------------
 BYTE   PATT
  POIN2 Label_4_014C18E1
// 226   ----------------------------------------
 BYTE   PATT
  POIN2 Label_4_014C18F6
// 227   ----------------------------------------
 BYTE   PATT
  POIN2 Label_4_014C1909
// 228   ----------------------------------------
 BYTE   PATT
  POIN2 Label_4_014C1909
// 229   ----------------------------------------
 BYTE   PATT
  POIN2 Label_4_014C1921
// 230   ----------------------------------------
 BYTE   PATT
  POIN2 Label_4_014C1921
// 231   ----------------------------------------
 BYTE   PATT
  POIN2 Label_4_014C1939
// 232   ----------------------------------------
 BYTE   PATT
  POIN2 Label_4_014C194C
// 233   ----------------------------------------
 BYTE   PATT
  POIN2 Label_4_014C195F
// 234   ----------------------------------------
 BYTE   PATT
  POIN2 Label_4_014C195F
// 235   ----------------------------------------
 BYTE   PATT
  POIN2 Label_4_014C1977
// 236   ----------------------------------------
 BYTE   PATT
  POIN2 Label_4_014C1977
// 237   ----------------------------------------
 BYTE   W96
// 238   ----------------------------------------
 BYTE   W96
// 239   ----------------------------------------
 BYTE   W96
// 240   ----------------------------------------
 BYTE   W96
// 241   ----------------------------------------
 BYTE   PATT
  POIN2 Label_4_014C18F6
// 242   ----------------------------------------
 BYTE   PATT
  POIN2 Label_4_014C18F6
// 243   ----------------------------------------
 BYTE   PATT
  POIN2 Label_4_014C1909
// 244   ----------------------------------------
 BYTE   PATT
  POIN2 Label_4_014C1909
// 245   ----------------------------------------
 BYTE   PATT
  POIN2 Label_4_014C1921
// 246   ----------------------------------------
 BYTE   PATT
  POIN2 Label_4_014C1921
// 247   ----------------------------------------
 BYTE   PATT
  POIN2 Label_4_014C1939
// 248   ----------------------------------------
 BYTE   PATT
  POIN2 Label_4_014C194C
// 249   ----------------------------------------
 BYTE   PATT
  POIN2 Label_4_014C195F
// 250   ----------------------------------------
 BYTE   PATT
  POIN2 Label_4_014C195F
// 251   ----------------------------------------
 BYTE   PATT
  POIN2 Label_4_014C1977
// 252   ----------------------------------------
 BYTE   PATT
  POIN2 Label_4_014C1977
// 253   ----------------------------------------
 BYTE   W96
// 254   ----------------------------------------
 BYTE   W96
// 255   ----------------------------------------
 BYTE   W96
// 256   ----------------------------------------
 BYTE   W96
// 257   ----------------------------------------
 BYTE   GoTo
  POIN2 Label_4_014C18B9
// 258   ----------------------------------------
 BYTE   W96
// 259   ----------------------------------------
 BYTE   W96
// 260   ----------------------------------------
 BYTE   W96
// 261   ----------------------------------------
 BYTE   W96
// 262   ----------------------------------------
 BYTE   W96
// 263   ----------------------------------------
 BYTE   W96
// 264   ----------------------------------------
 BYTE   W96
// 265   ----------------------------------------
 BYTE   W96
// 266   ----------------------------------------
 BYTE   W92
 BYTE   W03
 BYTE   FINE

//**************** Track 6 (Midi-Chn.5) ****************//

GuiltyGearXDizzysThemeMeatOfJustice_006:
// 000   ----------------------------------------
 BYTE   KEYSH   GuiltyGearXDizzysThemeMeatOfJustice_key+0
 BYTE   VOICE   127
 BYTE   VOL   40*GuiltyGearXDizzysThemeMeatOfJustice_mvl/mxv
 BYTE   W96
// 001   ----------------------------------------
 BYTE   W96
// 002   ----------------------------------------
 BYTE   W96
// 003   ----------------------------------------
 BYTE   W96
// 004   ----------------------------------------
 BYTE   W96
// 005   ----------------------------------------
 BYTE   W96
// 006   ----------------------------------------
 BYTE   W96
// 007   ----------------------------------------
 BYTE   W96
// 008   ----------------------------------------
 BYTE   W96
// 009   ----------------------------------------
 BYTE   W96
// 010   ----------------------------------------
 BYTE   W96
// 011   ----------------------------------------
 BYTE   W96
// 012   ----------------------------------------
 BYTE   W96
// 013   ----------------------------------------
 BYTE   W96
// 014   ----------------------------------------
 BYTE   W96
// 015   ----------------------------------------
 BYTE   W96
// 016   ----------------------------------------
 BYTE   W96
// 017   ----------------------------------------
Label_5_014C1B63:
 BYTE   N11  Cn1  v092
 BYTE   N11  Cs2
 BYTE   N11  Gn2
 BYTE   W96
// 018   ----------------------------------------
 BYTE   W96
// 019   ----------------------------------------
 BYTE   W96
// 020   ----------------------------------------
 BYTE   W96
// 021   ----------------------------------------
 BYTE   Cn1
 BYTE   N11  Gn2
 BYTE   N11  An2
 BYTE   W12
 BYTE   Cn1
 BYTE   W84
// 022   ----------------------------------------
 BYTE   W96
// 023   ----------------------------------------
 BYTE   W96
// 024   ----------------------------------------
 BYTE   Dn1
 BYTE   W12
 BYTE   Cn1
 BYTE   W12
 BYTE   N11
 BYTE   W12
 BYTE   Dn1
 BYTE   W12
 BYTE   Cn1
 BYTE   W12
 BYTE   N11
 BYTE   W12
 BYTE   N11
 BYTE   N11  Dn1
 BYTE   W12
 BYTE   Cn1
 BYTE   N11  Dn1
 BYTE   W12
// 025   ----------------------------------------
Label_5_014C1B8C:
 BYTE   N11  Cn1  v092
 BYTE   N11  Cs2
 BYTE   N11  Gn2
 BYTE   W24
 BYTE   Dn1
 BYTE   N11  As1  v076
 BYTE   W24
 BYTE   Cn1  v092
 BYTE   N11  As1
 BYTE   W24
 BYTE   Dn1
 BYTE   N11  As1  v076
 BYTE   W12
 BYTE   Cn1  v092
 BYTE   W12
 BYTE   PEND 
// 026   ----------------------------------------
Label_5_014C1BA7:
 BYTE   N11  As1  v092
 BYTE   W12
 BYTE   Cn1
 BYTE   W12
 BYTE   Dn1
 BYTE   N11  As1  v076
 BYTE   W12
 BYTE   Cn1  v092
 BYTE   W12
 BYTE   N11
 BYTE   N11  As1
 BYTE   W12
 BYTE   Cn1
 BYTE   W12
 BYTE   Dn1
 BYTE   N11  As1  v076
 BYTE   W24
 BYTE   PEND 
// 027   ----------------------------------------
Label_5_014C1BC1:
 BYTE   N11  Cn1  v092
 BYTE   N11  As1
 BYTE   W24
 BYTE   Dn1
 BYTE   N11  As1  v076
 BYTE   W24
 BYTE   Cn1  v092
 BYTE   N11  As1
 BYTE   W24
 BYTE   Dn1
 BYTE   N11  As1  v076
 BYTE   W24
 BYTE   PEND 
// 028   ----------------------------------------
Label_5_014C1BD7:
 BYTE   N11  Cn1  v092
 BYTE   N11  As1
 BYTE   W24
 BYTE   Dn1
 BYTE   N11  As1  v076
 BYTE   W12
 BYTE   Cn1  v092
 BYTE   W12
 BYTE   As1
 BYTE   W12
 BYTE   Cn1
 BYTE   W12
 BYTE   Dn1
 BYTE   N11  As1  v076
 BYTE   W12
 BYTE   Cn1  v092
 BYTE   W12
 BYTE   PEND 
// 029   ----------------------------------------
Label_5_014C1BF2:
 BYTE   N11  Cn1  v092
 BYTE   N11  As1
 BYTE   W24
 BYTE   Dn1
 BYTE   N11  As1  v076
 BYTE   W24
 BYTE   Cn1  v092
 BYTE   N11  As1
 BYTE   W24
 BYTE   Dn1
 BYTE   N11  As1  v076
 BYTE   W12
 BYTE   Cn1  v092
 BYTE   W12
 BYTE   PEND 
// 030   ----------------------------------------
 BYTE   PATT
  POIN2 Label_5_014C1BA7
// 031   ----------------------------------------
 BYTE   PATT
  POIN2 Label_5_014C1BF2
// 032   ----------------------------------------
Label_5_014C1C15:
 BYTE   N11  Cn1  v092
 BYTE   N11  An2
 BYTE   W12
 BYTE   Cn1
 BYTE   W12
 BYTE   Dn1
 BYTE   N11  As1  v076
 BYTE   W12
 BYTE   Cn1  v092
 BYTE   W12
 BYTE   Dn1
 BYTE   N11  Cs2
 BYTE   W12
 BYTE   Cn1
 BYTE   W12
 BYTE   N11
 BYTE   N11  Dn1
 BYTE   N11  As1  v076
 BYTE   W12
 BYTE   Cn1  v092
 BYTE   N11  Dn1
 BYTE   W12
 BYTE   PEND 
// 033   ----------------------------------------
 BYTE   PATT
  POIN2 Label_5_014C1B8C
// 034   ----------------------------------------
 BYTE   PATT
  POIN2 Label_5_014C1BA7
// 035   ----------------------------------------
 BYTE   PATT
  POIN2 Label_5_014C1BC1
// 036   ----------------------------------------
 BYTE   PATT
  POIN2 Label_5_014C1BD7
// 037   ----------------------------------------
 BYTE   PATT
  POIN2 Label_5_014C1BF2
// 038   ----------------------------------------
 BYTE   PATT
  POIN2 Label_5_014C1BA7
// 039   ----------------------------------------
 BYTE   PATT
  POIN2 Label_5_014C1BF2
// 040   ----------------------------------------
Label_5_014C1C5B:
 BYTE   N11  Dn1  v092
 BYTE   N11  An2
 BYTE   W12
 BYTE   Cn1
 BYTE   W12
 BYTE   Dn1
 BYTE   N11  As1  v076
 BYTE   W12
 BYTE   Cn1  v092
 BYTE   W12
 BYTE   Dn1
 BYTE   N11  Cs2
 BYTE   W12
 BYTE   Cn1
 BYTE   W12
 BYTE   N11
 BYTE   N11  Dn1
 BYTE   N11  As1  v076
 BYTE   W12
 BYTE   Cn1  v092
 BYTE   N11  Dn1
 BYTE   W12
 BYTE   PEND 
// 041   ----------------------------------------
Label_5_014C1C7E:
 BYTE   N11  Cn1  v092
 BYTE   N11  Gn2
 BYTE   N11  An2
 BYTE   W24
 BYTE   Dn1
 BYTE   N11  As1  v076
 BYTE   W24
 BYTE   Cn1  v092
 BYTE   N11  As1
 BYTE   W24
 BYTE   Dn1
 BYTE   N11  As1  v076
 BYTE   W12
 BYTE   Cn1  v092
 BYTE   W12
 BYTE   PEND 
// 042   ----------------------------------------
 BYTE   PATT
  POIN2 Label_5_014C1BA7
// 043   ----------------------------------------
 BYTE   PATT
  POIN2 Label_5_014C1BC1
// 044   ----------------------------------------
 BYTE   PATT
  POIN2 Label_5_014C1BD7
// 045   ----------------------------------------
 BYTE   PATT
  POIN2 Label_5_014C1B8C
// 046   ----------------------------------------
Label_5_014C1CAD:
 BYTE   N11  Cn1  v092
 BYTE   N11  As1
 BYTE   W12
 BYTE   Cn1
 BYTE   W12
 BYTE   Dn1
 BYTE   N11  As1  v076
 BYTE   W12
 BYTE   Cn1  v092
 BYTE   W12
 BYTE   As1
 BYTE   W12
 BYTE   Cn1
 BYTE   W12
 BYTE   Dn1
 BYTE   N11  As1  v076
 BYTE   W12
 BYTE   Cn1  v092
 BYTE   W12
 BYTE   PEND 
// 047   ----------------------------------------
Label_5_014C1CCA:
 BYTE   N11  Cn1  v092
 BYTE   N11  An2
 BYTE   W24
 BYTE   Dn1
 BYTE   N11  Fs1  v076
 BYTE   W12
 BYTE   Cn1  v092
 BYTE   W12
 BYTE   N11
 BYTE   N11  As1
 BYTE   W24
 BYTE   Dn1
 BYTE   N11  As1  v076
 BYTE   W12
 BYTE   Cn1  v092
 BYTE   W12
 BYTE   PEND 
// 048   ----------------------------------------
Label_5_014C1CE5:
 BYTE   N11  Cn1  v092
 BYTE   N11  Cs2
 BYTE   W24
 BYTE   Dn1
 BYTE   N11  As1  v076
 BYTE   W12
 BYTE   Cn1  v092
 BYTE   W12
 BYTE   N11
 BYTE   N11  As1
 BYTE   W24
 BYTE   Dn1
 BYTE   N11  As1  v076
 BYTE   W12
 BYTE   Cn1  v092
 BYTE   W12
 BYTE   PEND 
// 049   ----------------------------------------
 BYTE   PATT
  POIN2 Label_5_014C1C7E
// 050   ----------------------------------------
 BYTE   PATT
  POIN2 Label_5_014C1BA7
// 051   ----------------------------------------
 BYTE   PATT
  POIN2 Label_5_014C1BC1
// 052   ----------------------------------------
 BYTE   PATT
  POIN2 Label_5_014C1BD7
// 053   ----------------------------------------
Label_5_014C1D14:
 BYTE   N11  Cn1  v092
 BYTE   N11  Cs2
 BYTE   N11  Gn2
 BYTE   W24
 BYTE   Dn1
 BYTE   N11  As1  v076
 BYTE   W24
 BYTE   Cn1  v092
 BYTE   N11  As1
 BYTE   W12
 BYTE   Cn1
 BYTE   W12
 BYTE   Dn1
 BYTE   N11  As1  v076
 BYTE   W12
 BYTE   Cn1  v092
 BYTE   W12
 BYTE   PEND 
// 054   ----------------------------------------
Label_5_014C1D31:
 BYTE   N11  As1  v092
 BYTE   W12
 BYTE   Cn1
 BYTE   W12
 BYTE   Dn1
 BYTE   N11  As1  v076
 BYTE   W12
 BYTE   Cn1  v092
 BYTE   W12
 BYTE   N11
 BYTE   N11  As1
 BYTE   W12
 BYTE   Cn1
 BYTE   W12
 BYTE   Dn1
 BYTE   N11  As1  v076
 BYTE   W12
 BYTE   Cn1  v092
 BYTE   W12
 BYTE   PEND 
// 055   ----------------------------------------
 BYTE   PATT
  POIN2 Label_5_014C1CCA
// 056   ----------------------------------------
Label_5_014C1D53:
 BYTE   N11  Dn1  v092
 BYTE   N11  Cs2
 BYTE   W12
 BYTE   Cn1
 BYTE   W12
 BYTE   Dn1
 BYTE   N11  As1  v076
 BYTE   W12
 BYTE   Cn1  v092
 BYTE   W12
 BYTE   Dn1
 BYTE   N11  As1
 BYTE   W12
 BYTE   Dn1
 BYTE   W12
 BYTE   Cn1
 BYTE   N11  Dn1
 BYTE   N11  As1  v076
 BYTE   W12
 BYTE   Cn1  v092
 BYTE   N11  Dn1
 BYTE   W12
 BYTE   PEND 
// 057   ----------------------------------------
Label_5_014C1D76:
 BYTE   N11  Cn1  v092
 BYTE   N11  Gn2
 BYTE   N11  An2
 BYTE   W24
 BYTE   Dn1
 BYTE   N11  As1  v076
 BYTE   W12
 BYTE   Cn1  v092
 BYTE   W12
 BYTE   N11
 BYTE   N11  As1
 BYTE   W24
 BYTE   Dn1
 BYTE   N11  As1  v076
 BYTE   W12
 BYTE   Cn1  v092
 BYTE   W12
 BYTE   PEND 
// 058   ----------------------------------------
 BYTE   PATT
  POIN2 Label_5_014C1BA7
// 059   ----------------------------------------
 BYTE   PATT
  POIN2 Label_5_014C1BF2
// 060   ----------------------------------------
Label_5_014C1D9D:
 BYTE   N11  Cn1  v092
 BYTE   N11  As1
 BYTE   W24
 BYTE   Dn1
 BYTE   N11  As1  v076
 BYTE   W12
 BYTE   Cn1  v092
 BYTE   W12
 BYTE   N11
 BYTE   N11  As1
 BYTE   W12
 BYTE   Cn1
 BYTE   W12
 BYTE   Dn1
 BYTE   N11  As1  v076
 BYTE   W12
 BYTE   Cn1  v092
 BYTE   W12
 BYTE   PEND 
// 061   ----------------------------------------
Label_5_014C1DBA:
 BYTE   N11  Cn1  v092
 BYTE   N11  As1
 BYTE   W24
 BYTE   Dn1
 BYTE   N11  As1  v076
 BYTE   W12
 BYTE   Cn1  v092
 BYTE   W12
 BYTE   N11
 BYTE   N11  As1
 BYTE   W24
 BYTE   Dn1
 BYTE   N11  As1  v076
 BYTE   W12
 BYTE   Cn1  v092
 BYTE   W12
 BYTE   PEND 
// 062   ----------------------------------------
 BYTE   PATT
  POIN2 Label_5_014C1BA7
// 063   ----------------------------------------
 BYTE   PATT
  POIN2 Label_5_014C1BF2
// 064   ----------------------------------------
 BYTE   PATT
  POIN2 Label_5_014C1D9D
// 065   ----------------------------------------
 BYTE   PATT
  POIN2 Label_5_014C1DBA
// 066   ----------------------------------------
 BYTE   PATT
  POIN2 Label_5_014C1BA7
// 067   ----------------------------------------
 BYTE   PATT
  POIN2 Label_5_014C1BF2
// 068   ----------------------------------------
 BYTE   PATT
  POIN2 Label_5_014C1D9D
// 069   ----------------------------------------
Label_5_014C1DF8:
 BYTE   N11  Cn1  v092
 BYTE   N11  Cs2
 BYTE   W12
 BYTE   Cn1
 BYTE   W12
 BYTE   Dn1
 BYTE   N11  As1  v076
 BYTE   W12
 BYTE   Cn1  v092
 BYTE   W12
 BYTE   N11
 BYTE   N11  As1
 BYTE   W12
 BYTE   Cn1
 BYTE   W12
 BYTE   Dn1
 BYTE   N11  As1  v076
 BYTE   W12
 BYTE   Cn1  v092
 BYTE   W12
 BYTE   PEND 
// 070   ----------------------------------------
Label_5_014C1E17:
 BYTE   N11  Cn1  v092
 BYTE   N11  An2
 BYTE   W12
 BYTE   Cn1
 BYTE   W12
 BYTE   Dn1
 BYTE   N11  As1  v076
 BYTE   W12
 BYTE   Cn1  v092
 BYTE   W12
 BYTE   N11
 BYTE   N11  As1
 BYTE   W12
 BYTE   Cn1
 BYTE   W12
 BYTE   Dn1
 BYTE   N11  As1  v076
 BYTE   W12
 BYTE   Cn1  v092
 BYTE   W12
 BYTE   PEND 
// 071   ----------------------------------------
 BYTE   PATT
  POIN2 Label_5_014C1DF8
// 072   ----------------------------------------
Label_5_014C1E3B:
 BYTE   N11  Dn1  v092
 BYTE   N11  An2
 BYTE   W12
 BYTE   Cn1
 BYTE   W12
 BYTE   Dn1
 BYTE   W12
 BYTE   Cn1
 BYTE   W12
 BYTE   Dn1
 BYTE   W12
 BYTE   N11
 BYTE   W12
 BYTE   Cn1
 BYTE   N11  Dn1
 BYTE   W12
 BYTE   Cn1
 BYTE   N11  Dn1
 BYTE   W12
 BYTE   PEND 
// 073   ----------------------------------------
 BYTE   PATT
  POIN2 Label_5_014C1D76
// 074   ----------------------------------------
 BYTE   PATT
  POIN2 Label_5_014C1BA7
// 075   ----------------------------------------
 BYTE   PATT
  POIN2 Label_5_014C1BF2
// 076   ----------------------------------------
 BYTE   PATT
  POIN2 Label_5_014C1D9D
// 077   ----------------------------------------
 BYTE   PATT
  POIN2 Label_5_014C1DBA
// 078   ----------------------------------------
 BYTE   PATT
  POIN2 Label_5_014C1BA7
// 079   ----------------------------------------
 BYTE   PATT
  POIN2 Label_5_014C1BF2
// 080   ----------------------------------------
 BYTE   PATT
  POIN2 Label_5_014C1D9D
// 081   ----------------------------------------
 BYTE   PATT
  POIN2 Label_5_014C1DBA
// 082   ----------------------------------------
 BYTE   PATT
  POIN2 Label_5_014C1BA7
// 083   ----------------------------------------
 BYTE   PATT
  POIN2 Label_5_014C1BF2
// 084   ----------------------------------------
 BYTE   PATT
  POIN2 Label_5_014C1D9D
// 085   ----------------------------------------
 BYTE   PATT
  POIN2 Label_5_014C1DF8
// 086   ----------------------------------------
 BYTE   PATT
  POIN2 Label_5_014C1E17
// 087   ----------------------------------------
 BYTE   PATT
  POIN2 Label_5_014C1DF8
// 088   ----------------------------------------
 BYTE   PATT
  POIN2 Label_5_014C1E3B
// 089   ----------------------------------------
 BYTE   N11  Cs2  v092
 BYTE   W96
// 090   ----------------------------------------
 BYTE   W96
// 091   ----------------------------------------
 BYTE   W96
// 092   ----------------------------------------
 BYTE   W96
// 093   ----------------------------------------
 BYTE   PATT
  POIN2 Label_5_014C1E17
// 094   ----------------------------------------
Label_5_014C1EB0:
 BYTE   N11  Cn1  v092
 BYTE   N11  As1
 BYTE   W12
 BYTE   Cn1
 BYTE   W12
 BYTE   Dn1
 BYTE   N11  As1  v076
 BYTE   W12
 BYTE   Cn1  v092
 BYTE   W12
 BYTE   N11
 BYTE   N11  As1
 BYTE   W12
 BYTE   Cn1
 BYTE   W12
 BYTE   Dn1
 BYTE   N11  As1  v076
 BYTE   W12
 BYTE   Cn1  v092
 BYTE   W12
 BYTE   PEND 
// 095   ----------------------------------------
 BYTE   PATT
  POIN2 Label_5_014C1EB0
// 096   ----------------------------------------
 BYTE   PATT
  POIN2 Label_5_014C1EB0
// 097   ----------------------------------------
 BYTE   PATT
  POIN2 Label_5_014C1DF8
// 098   ----------------------------------------
 BYTE   PATT
  POIN2 Label_5_014C1EB0
// 099   ----------------------------------------
Label_5_014C1EE3:
 BYTE   N11  Cn1  v092
 BYTE   N11  As1
 BYTE   W12
 BYTE   Cn1
 BYTE   W12
 BYTE   Dn1
 BYTE   N11  As1  v076
 BYTE   W12
 BYTE   Cn1  v092
 BYTE   W12
 BYTE   N11
 BYTE   N11  As1
 BYTE   W12
 BYTE   Cn1
 BYTE   W12
 BYTE   Dn1
 BYTE   N11  As1  v076
 BYTE   W24
 BYTE   PEND 
// 100   ----------------------------------------
Label_5_014C1EFF:
 BYTE   N11  Cn1  v092
 BYTE   N11  As1
 BYTE   W12
 BYTE   Cn1
 BYTE   W12
 BYTE   Dn1
 BYTE   N11  An2
 BYTE   W24
 BYTE   Cn1
 BYTE   N11  As1
 BYTE   W12
 BYTE   Cn1
 BYTE   W12
 BYTE   Dn1
 BYTE   N11  An2  v076
 BYTE   W12
 BYTE   Cn1  v092
 BYTE   W12
 BYTE   PEND 
// 101   ----------------------------------------
 BYTE   PATT
  POIN2 Label_5_014C1DF8
// 102   ----------------------------------------
 BYTE   PATT
  POIN2 Label_5_014C1EB0
// 103   ----------------------------------------
Label_5_014C1F24:
 BYTE   N11  Cn1  v092
 BYTE   N11  An2
 BYTE   W12
 BYTE   Cn1
 BYTE   W12
 BYTE   Dn1
 BYTE   N11  As1  v076
 BYTE   W12
 BYTE   Cn1  v092
 BYTE   W12
 BYTE   N11
 BYTE   N11  An2
 BYTE   W12
 BYTE   Cn1
 BYTE   W12
 BYTE   Dn1
 BYTE   N11  As1  v076
 BYTE   W12
 BYTE   Cn1  v092
 BYTE   W12
 BYTE   PEND 
// 104   ----------------------------------------
Label_5_014C1F43:
 BYTE   N11  Cn1  v092
 BYTE   N11  An2
 BYTE   W12
 BYTE   Cn1
 BYTE   W12
 BYTE   Dn1
 BYTE   N11  As1  v076
 BYTE   W12
 BYTE   Cn1  v092
 BYTE   W12
 BYTE   Dn1
 BYTE   N11  As1
 BYTE   W12
 BYTE   Dn1
 BYTE   W12
 BYTE   Cn1
 BYTE   N11  As1  v076
 BYTE   W12
 BYTE   Dn1  v092
 BYTE   W12
 BYTE   PEND 
// 105   ----------------------------------------
 BYTE   PATT
  POIN2 Label_5_014C1DF8
// 106   ----------------------------------------
 BYTE   PATT
  POIN2 Label_5_014C1EB0
// 107   ----------------------------------------
 BYTE   PATT
  POIN2 Label_5_014C1EB0
// 108   ----------------------------------------
 BYTE   PATT
  POIN2 Label_5_014C1EB0
// 109   ----------------------------------------
 BYTE   PATT
  POIN2 Label_5_014C1B8C
// 110   ----------------------------------------
 BYTE   PATT
  POIN2 Label_5_014C1BA7
// 111   ----------------------------------------
 BYTE   PATT
  POIN2 Label_5_014C1BC1
// 112   ----------------------------------------
 BYTE   PATT
  POIN2 Label_5_014C1BD7
// 113   ----------------------------------------
 BYTE   PATT
  POIN2 Label_5_014C1BF2
// 114   ----------------------------------------
 BYTE   PATT
  POIN2 Label_5_014C1BA7
// 115   ----------------------------------------
 BYTE   PATT
  POIN2 Label_5_014C1BF2
// 116   ----------------------------------------
 BYTE   PATT
  POIN2 Label_5_014C1C15
// 117   ----------------------------------------
 BYTE   PATT
  POIN2 Label_5_014C1B8C
// 118   ----------------------------------------
 BYTE   PATT
  POIN2 Label_5_014C1BA7
// 119   ----------------------------------------
 BYTE   PATT
  POIN2 Label_5_014C1BC1
// 120   ----------------------------------------
 BYTE   PATT
  POIN2 Label_5_014C1BD7
// 121   ----------------------------------------
 BYTE   PATT
  POIN2 Label_5_014C1BF2
// 122   ----------------------------------------
 BYTE   PATT
  POIN2 Label_5_014C1BA7
// 123   ----------------------------------------
 BYTE   PATT
  POIN2 Label_5_014C1BF2
// 124   ----------------------------------------
 BYTE   PATT
  POIN2 Label_5_014C1C5B
// 125   ----------------------------------------
 BYTE   PATT
  POIN2 Label_5_014C1C7E
// 126   ----------------------------------------
 BYTE   PATT
  POIN2 Label_5_014C1BA7
// 127   ----------------------------------------
 BYTE   PATT
  POIN2 Label_5_014C1BC1
// 128   ----------------------------------------
 BYTE   PATT
  POIN2 Label_5_014C1BD7
// 129   ----------------------------------------
 BYTE   PATT
  POIN2 Label_5_014C1B8C
// 130   ----------------------------------------
 BYTE   PATT
  POIN2 Label_5_014C1CAD
// 131   ----------------------------------------
 BYTE   PATT
  POIN2 Label_5_014C1CCA
// 132   ----------------------------------------
 BYTE   PATT
  POIN2 Label_5_014C1CE5
// 133   ----------------------------------------
 BYTE   PATT
  POIN2 Label_5_014C1C7E
// 134   ----------------------------------------
 BYTE   PATT
  POIN2 Label_5_014C1BA7
// 135   ----------------------------------------
 BYTE   PATT
  POIN2 Label_5_014C1BC1
// 136   ----------------------------------------
 BYTE   PATT
  POIN2 Label_5_014C1BD7
// 137   ----------------------------------------
 BYTE   PATT
  POIN2 Label_5_014C1D14
// 138   ----------------------------------------
 BYTE   PATT
  POIN2 Label_5_014C1D31
// 139   ----------------------------------------
 BYTE   PATT
  POIN2 Label_5_014C1CCA
// 140   ----------------------------------------
 BYTE   PATT
  POIN2 Label_5_014C1D53
// 141   ----------------------------------------
 BYTE   PATT
  POIN2 Label_5_014C1D76
// 142   ----------------------------------------
 BYTE   PATT
  POIN2 Label_5_014C1BA7
// 143   ----------------------------------------
 BYTE   PATT
  POIN2 Label_5_014C1BF2
// 144   ----------------------------------------
 BYTE   PATT
  POIN2 Label_5_014C1D9D
// 145   ----------------------------------------
 BYTE   PATT
  POIN2 Label_5_014C1DBA
// 146   ----------------------------------------
 BYTE   PATT
  POIN2 Label_5_014C1BA7
// 147   ----------------------------------------
 BYTE   PATT
  POIN2 Label_5_014C1BF2
// 148   ----------------------------------------
 BYTE   PATT
  POIN2 Label_5_014C1D9D
// 149   ----------------------------------------
 BYTE   PATT
  POIN2 Label_5_014C1DBA
// 150   ----------------------------------------
 BYTE   PATT
  POIN2 Label_5_014C1BA7
// 151   ----------------------------------------
 BYTE   PATT
  POIN2 Label_5_014C1BF2
// 152   ----------------------------------------
 BYTE   PATT
  POIN2 Label_5_014C1D9D
// 153   ----------------------------------------
 BYTE   PATT
  POIN2 Label_5_014C1DF8
// 154   ----------------------------------------
 BYTE   PATT
  POIN2 Label_5_014C1E17
// 155   ----------------------------------------
 BYTE   PATT
  POIN2 Label_5_014C1DF8
// 156   ----------------------------------------
 BYTE   PATT
  POIN2 Label_5_014C1E3B
// 157   ----------------------------------------
 BYTE   PATT
  POIN2 Label_5_014C1D76
// 158   ----------------------------------------
 BYTE   PATT
  POIN2 Label_5_014C1BA7
// 159   ----------------------------------------
 BYTE   PATT
  POIN2 Label_5_014C1BF2
// 160   ----------------------------------------
 BYTE   PATT
  POIN2 Label_5_014C1D9D
// 161   ----------------------------------------
 BYTE   PATT
  POIN2 Label_5_014C1DBA
// 162   ----------------------------------------
 BYTE   PATT
  POIN2 Label_5_014C1BA7
// 163   ----------------------------------------
 BYTE   PATT
  POIN2 Label_5_014C1BF2
// 164   ----------------------------------------
 BYTE   PATT
  POIN2 Label_5_014C1D9D
// 165   ----------------------------------------
 BYTE   PATT
  POIN2 Label_5_014C1DBA
// 166   ----------------------------------------
 BYTE   PATT
  POIN2 Label_5_014C1BA7
// 167   ----------------------------------------
 BYTE   PATT
  POIN2 Label_5_014C1BF2
// 168   ----------------------------------------
 BYTE   PATT
  POIN2 Label_5_014C1D9D
// 169   ----------------------------------------
 BYTE   PATT
  POIN2 Label_5_014C1DF8
// 170   ----------------------------------------
 BYTE   PATT
  POIN2 Label_5_014C1E17
// 171   ----------------------------------------
 BYTE   PATT
  POIN2 Label_5_014C1DF8
// 172   ----------------------------------------
 BYTE   PATT
  POIN2 Label_5_014C1E3B
// 173   ----------------------------------------
 BYTE   N11  Cs2  v092
 BYTE   W96
// 174   ----------------------------------------
 BYTE   W96
// 175   ----------------------------------------
 BYTE   W96
// 176   ----------------------------------------
 BYTE   W96
// 177   ----------------------------------------
 BYTE   PATT
  POIN2 Label_5_014C1E17
// 178   ----------------------------------------
 BYTE   PATT
  POIN2 Label_5_014C1EB0
// 179   ----------------------------------------
 BYTE   PATT
  POIN2 Label_5_014C1EB0
// 180   ----------------------------------------
 BYTE   PATT
  POIN2 Label_5_014C1EB0
// 181   ----------------------------------------
 BYTE   PATT
  POIN2 Label_5_014C1DF8
// 182   ----------------------------------------
 BYTE   PATT
  POIN2 Label_5_014C1EB0
// 183   ----------------------------------------
 BYTE   PATT
  POIN2 Label_5_014C1EE3
// 184   ----------------------------------------
 BYTE   PATT
  POIN2 Label_5_014C1EFF
// 185   ----------------------------------------
 BYTE   PATT
  POIN2 Label_5_014C1DF8
// 186   ----------------------------------------
 BYTE   PATT
  POIN2 Label_5_014C1EB0
// 187   ----------------------------------------
 BYTE   PATT
  POIN2 Label_5_014C1F24
// 188   ----------------------------------------
 BYTE   PATT
  POIN2 Label_5_014C1F43
// 189   ----------------------------------------
 BYTE   PATT
  POIN2 Label_5_014C1DF8
// 190   ----------------------------------------
 BYTE   PATT
  POIN2 Label_5_014C1EB0
// 191   ----------------------------------------
 BYTE   PATT
  POIN2 Label_5_014C1EB0
// 192   ----------------------------------------
 BYTE   PATT
  POIN2 Label_5_014C1EB0
// 193   ----------------------------------------
 BYTE   PATT
  POIN2 Label_5_014C1B8C
// 194   ----------------------------------------
 BYTE   PATT
  POIN2 Label_5_014C1BA7
// 195   ----------------------------------------
 BYTE   PATT
  POIN2 Label_5_014C1BC1
// 196   ----------------------------------------
 BYTE   PATT
  POIN2 Label_5_014C1BD7
// 197   ----------------------------------------
 BYTE   PATT
  POIN2 Label_5_014C1BF2
// 198   ----------------------------------------
 BYTE   PATT
  POIN2 Label_5_014C1BA7
// 199   ----------------------------------------
 BYTE   PATT
  POIN2 Label_5_014C1BF2
// 200   ----------------------------------------
 BYTE   PATT
  POIN2 Label_5_014C1C15
// 201   ----------------------------------------
 BYTE   PATT
  POIN2 Label_5_014C1B8C
// 202   ----------------------------------------
 BYTE   PATT
  POIN2 Label_5_014C1BA7
// 203   ----------------------------------------
 BYTE   PATT
  POIN2 Label_5_014C1BC1
// 204   ----------------------------------------
 BYTE   PATT
  POIN2 Label_5_014C1BD7
// 205   ----------------------------------------
 BYTE   PATT
  POIN2 Label_5_014C1BF2
// 206   ----------------------------------------
 BYTE   PATT
  POIN2 Label_5_014C1BA7
// 207   ----------------------------------------
 BYTE   PATT
  POIN2 Label_5_014C1BF2
// 208   ----------------------------------------
 BYTE   PATT
  POIN2 Label_5_014C1C5B
// 209   ----------------------------------------
 BYTE   PATT
  POIN2 Label_5_014C1C7E
// 210   ----------------------------------------
 BYTE   PATT
  POIN2 Label_5_014C1BA7
// 211   ----------------------------------------
 BYTE   PATT
  POIN2 Label_5_014C1BC1
// 212   ----------------------------------------
 BYTE   PATT
  POIN2 Label_5_014C1BD7
// 213   ----------------------------------------
 BYTE   PATT
  POIN2 Label_5_014C1B8C
// 214   ----------------------------------------
 BYTE   PATT
  POIN2 Label_5_014C1CAD
// 215   ----------------------------------------
 BYTE   PATT
  POIN2 Label_5_014C1CCA
// 216   ----------------------------------------
 BYTE   PATT
  POIN2 Label_5_014C1CE5
// 217   ----------------------------------------
 BYTE   PATT
  POIN2 Label_5_014C1C7E
// 218   ----------------------------------------
 BYTE   PATT
  POIN2 Label_5_014C1BA7
// 219   ----------------------------------------
 BYTE   PATT
  POIN2 Label_5_014C1BC1
// 220   ----------------------------------------
 BYTE   PATT
  POIN2 Label_5_014C1BD7
// 221   ----------------------------------------
 BYTE   PATT
  POIN2 Label_5_014C1D14
// 222   ----------------------------------------
 BYTE   PATT
  POIN2 Label_5_014C1D31
// 223   ----------------------------------------
 BYTE   PATT
  POIN2 Label_5_014C1CCA
// 224   ----------------------------------------
 BYTE   PATT
  POIN2 Label_5_014C1D53
// 225   ----------------------------------------
 BYTE   PATT
  POIN2 Label_5_014C1D76
// 226   ----------------------------------------
 BYTE   PATT
  POIN2 Label_5_014C1BA7
// 227   ----------------------------------------
 BYTE   PATT
  POIN2 Label_5_014C1BF2
// 228   ----------------------------------------
 BYTE   PATT
  POIN2 Label_5_014C1D9D
// 229   ----------------------------------------
 BYTE   PATT
  POIN2 Label_5_014C1DBA
// 230   ----------------------------------------
 BYTE   PATT
  POIN2 Label_5_014C1BA7
// 231   ----------------------------------------
 BYTE   PATT
  POIN2 Label_5_014C1BF2
// 232   ----------------------------------------
 BYTE   PATT
  POIN2 Label_5_014C1D9D
// 233   ----------------------------------------
 BYTE   PATT
  POIN2 Label_5_014C1DBA
// 234   ----------------------------------------
 BYTE   PATT
  POIN2 Label_5_014C1BA7
// 235   ----------------------------------------
 BYTE   PATT
  POIN2 Label_5_014C1BF2
// 236   ----------------------------------------
 BYTE   PATT
  POIN2 Label_5_014C1D9D
// 237   ----------------------------------------
 BYTE   PATT
  POIN2 Label_5_014C1DF8
// 238   ----------------------------------------
 BYTE   PATT
  POIN2 Label_5_014C1E17
// 239   ----------------------------------------
 BYTE   PATT
  POIN2 Label_5_014C1DF8
// 240   ----------------------------------------
 BYTE   PATT
  POIN2 Label_5_014C1E3B
// 241   ----------------------------------------
 BYTE   PATT
  POIN2 Label_5_014C1D76
// 242   ----------------------------------------
 BYTE   PATT
  POIN2 Label_5_014C1BA7
// 243   ----------------------------------------
 BYTE   PATT
  POIN2 Label_5_014C1BF2
// 244   ----------------------------------------
 BYTE   PATT
  POIN2 Label_5_014C1D9D
// 245   ----------------------------------------
 BYTE   PATT
  POIN2 Label_5_014C1DBA
// 246   ----------------------------------------
 BYTE   PATT
  POIN2 Label_5_014C1BA7
// 247   ----------------------------------------
 BYTE   PATT
  POIN2 Label_5_014C1BF2
// 248   ----------------------------------------
 BYTE   PATT
  POIN2 Label_5_014C1D9D
// 249   ----------------------------------------
 BYTE   PATT
  POIN2 Label_5_014C1DBA
// 250   ----------------------------------------
 BYTE   PATT
  POIN2 Label_5_014C1BA7
// 251   ----------------------------------------
 BYTE   PATT
  POIN2 Label_5_014C1BF2
// 252   ----------------------------------------
 BYTE   PATT
  POIN2 Label_5_014C1D9D
// 253   ----------------------------------------
 BYTE   PATT
  POIN2 Label_5_014C1DF8
// 254   ----------------------------------------
 BYTE   PATT
  POIN2 Label_5_014C1E17
// 255   ----------------------------------------
 BYTE   PATT
  POIN2 Label_5_014C1DF8
// 256   ----------------------------------------
 BYTE   PATT
  POIN2 Label_5_014C1E3B
// 257   ----------------------------------------
 BYTE   GoTo
  POIN2 Label_5_014C1B63
// 258   ----------------------------------------
 BYTE   N11  Cs2  v092
 BYTE   W96
// 259   ----------------------------------------
 BYTE   W96
// 260   ----------------------------------------
 BYTE   W96
// 261   ----------------------------------------
 BYTE   W96
// 262   ----------------------------------------
 BYTE   W96
// 263   ----------------------------------------
 BYTE   W96
// 264   ----------------------------------------
 BYTE   W96
// 265   ----------------------------------------
 BYTE   W96
// 266   ----------------------------------------
 BYTE   W92
 BYTE   W03
 BYTE   FINE

//**************** Track 7 (Midi-Chn.6) ****************//

GuiltyGearXDizzysThemeMeatOfJustice_007:
// 000   ----------------------------------------
 BYTE   KEYSH   GuiltyGearXDizzysThemeMeatOfJustice_key+0
 BYTE   VOICE   33
 BYTE   PAN   c_v+2
 BYTE   VOL   40*GuiltyGearXDizzysThemeMeatOfJustice_mvl/mxv
 BYTE   W96
// 001   ----------------------------------------
 BYTE   W96
// 002   ----------------------------------------
 BYTE   W96
// 003   ----------------------------------------
 BYTE   W96
// 004   ----------------------------------------
 BYTE   W96
// 005   ----------------------------------------
 BYTE   W96
// 006   ----------------------------------------
 BYTE   W96
// 007   ----------------------------------------
 BYTE   W96
// 008   ----------------------------------------
 BYTE   W96
// 009   ----------------------------------------
 BYTE   W96
// 010   ----------------------------------------
 BYTE   W96
// 011   ----------------------------------------
 BYTE   W96
// 012   ----------------------------------------
 BYTE   W96
// 013   ----------------------------------------
 BYTE   W96
// 014   ----------------------------------------
 BYTE   W96
// 015   ----------------------------------------
 BYTE   W96
// 016   ----------------------------------------
 BYTE   W96
// 017   ----------------------------------------
Label_6_014C2279:
 BYTE   TIE  Dn1  v092
 BYTE   W96
// 018   ----------------------------------------
 BYTE   W96
// 019   ----------------------------------------
 BYTE   W96
// 020   ----------------------------------------
 BYTE   W92
 BYTE   W03
 BYTE   EOT
 BYTE   W01
// 021   ----------------------------------------
 BYTE   N11
 BYTE   W12
 BYTE   N11
 BYTE   W84
// 022   ----------------------------------------
 BYTE   W96
// 023   ----------------------------------------
 BYTE   W96
// 024   ----------------------------------------
 BYTE   W96
// 025   ----------------------------------------
Label_6_014C228A:
 BYTE   N05  Dn1  v092
 BYTE   W12
 BYTE   N05
 BYTE   W12
 BYTE   N05
 BYTE   W12
 BYTE   N05
 BYTE   W12
 BYTE   N05
 BYTE   W12
 BYTE   N05
 BYTE   W12
 BYTE   N05
 BYTE   W12
 BYTE   N05
 BYTE   W12
 BYTE   PEND 
// 026   ----------------------------------------
 BYTE   PATT
  POIN2 Label_6_014C228A
// 027   ----------------------------------------
 BYTE   PATT
  POIN2 Label_6_014C228A
// 028   ----------------------------------------
 BYTE   PATT
  POIN2 Label_6_014C228A
// 029   ----------------------------------------
Label_6_014C22AC:
 BYTE   N05  Fn1  v092
 BYTE   W12
 BYTE   N05
 BYTE   W12
 BYTE   N05
 BYTE   W12
 BYTE   N05
 BYTE   W12
 BYTE   N05
 BYTE   W12
 BYTE   N05
 BYTE   W12
 BYTE   N05
 BYTE   W12
 BYTE   N05
 BYTE   W12
 BYTE   PEND 
// 030   ----------------------------------------
 BYTE   PATT
  POIN2 Label_6_014C22AC
// 031   ----------------------------------------
 BYTE   PATT
  POIN2 Label_6_014C22AC
// 032   ----------------------------------------
Label_6_014C22C9:
 BYTE   N44  As0  v092
 BYTE   W48
 BYTE   An0
 BYTE   W48
 BYTE   PEND 
// 033   ----------------------------------------
 BYTE   PATT
  POIN2 Label_6_014C228A
// 034   ----------------------------------------
 BYTE   PATT
  POIN2 Label_6_014C228A
// 035   ----------------------------------------
 BYTE   PATT
  POIN2 Label_6_014C228A
// 036   ----------------------------------------
 BYTE   PATT
  POIN2 Label_6_014C228A
// 037   ----------------------------------------
 BYTE   PATT
  POIN2 Label_6_014C22AC
// 038   ----------------------------------------
 BYTE   PATT
  POIN2 Label_6_014C22AC
// 039   ----------------------------------------
 BYTE   PATT
  POIN2 Label_6_014C22AC
// 040   ----------------------------------------
 BYTE   PATT
  POIN2 Label_6_014C22C9
// 041   ----------------------------------------
 BYTE   PATT
  POIN2 Label_6_014C228A
// 042   ----------------------------------------
 BYTE   PATT
  POIN2 Label_6_014C228A
// 043   ----------------------------------------
 BYTE   PATT
  POIN2 Label_6_014C22AC
// 044   ----------------------------------------
 BYTE   PATT
  POIN2 Label_6_014C22AC
// 045   ----------------------------------------
Label_6_014C230C:
 BYTE   N05  Gn1  v092
 BYTE   W12
 BYTE   N05
 BYTE   W12
 BYTE   N05
 BYTE   W12
 BYTE   N05
 BYTE   W12
 BYTE   N05
 BYTE   W12
 BYTE   N05
 BYTE   W12
 BYTE   N05
 BYTE   W12
 BYTE   N05
 BYTE   W12
 BYTE   PEND 
// 046   ----------------------------------------
 BYTE   PATT
  POIN2 Label_6_014C230C
// 047   ----------------------------------------
 BYTE   PATT
  POIN2 Label_6_014C22AC
// 048   ----------------------------------------
Label_6_014C2329:
 BYTE   N05  An1  v092
 BYTE   W12
 BYTE   N05
 BYTE   W12
 BYTE   N05
 BYTE   W12
 BYTE   N05
 BYTE   W12
 BYTE   N05
 BYTE   W12
 BYTE   N05
 BYTE   W12
 BYTE   N05
 BYTE   W12
 BYTE   N05
 BYTE   W12
 BYTE   PEND 
// 049   ----------------------------------------
 BYTE   PATT
  POIN2 Label_6_014C228A
// 050   ----------------------------------------
 BYTE   PATT
  POIN2 Label_6_014C228A
// 051   ----------------------------------------
 BYTE   PATT
  POIN2 Label_6_014C22AC
// 052   ----------------------------------------
 BYTE   PATT
  POIN2 Label_6_014C22AC
// 053   ----------------------------------------
Label_6_014C2350:
 BYTE   N05  As0  v092
 BYTE   W12
 BYTE   N05
 BYTE   W12
 BYTE   N05
 BYTE   W12
 BYTE   N05
 BYTE   W12
 BYTE   N05
 BYTE   W12
 BYTE   N05
 BYTE   W12
 BYTE   N05
 BYTE   W12
 BYTE   N05
 BYTE   W12
 BYTE   PEND 
// 054   ----------------------------------------
Label_6_014C2363:
 BYTE   N05  Cs1  v092
 BYTE   W12
 BYTE   N05
 BYTE   W12
 BYTE   N05
 BYTE   W12
 BYTE   N05
 BYTE   W12
 BYTE   N05
 BYTE   W12
 BYTE   N05
 BYTE   W12
 BYTE   N05
 BYTE   W12
 BYTE   N05
 BYTE   W12
 BYTE   PEND 
// 055   ----------------------------------------
 BYTE   PATT
  POIN2 Label_6_014C228A
// 056   ----------------------------------------
Label_6_014C237B:
 BYTE   N05  En1  v092
 BYTE   W12
 BYTE   N05
 BYTE   W12
 BYTE   N05
 BYTE   W12
 BYTE   N05
 BYTE   W12
 BYTE   N05
 BYTE   W12
 BYTE   Cs1
 BYTE   W12
 BYTE   Cn1
 BYTE   W12
 BYTE   Bn0
 BYTE   W12
 BYTE   PEND 
// 057   ----------------------------------------
Label_6_014C238E:
 BYTE   N05  Gn0  v092
 BYTE   W12
 BYTE   N05
 BYTE   W12
 BYTE   N05
 BYTE   W12
 BYTE   N05
 BYTE   W12
 BYTE   N05
 BYTE   W12
 BYTE   N05
 BYTE   W12
 BYTE   N05
 BYTE   W12
 BYTE   N05
 BYTE   W12
 BYTE   PEND 
// 058   ----------------------------------------
 BYTE   PATT
  POIN2 Label_6_014C238E
// 059   ----------------------------------------
Label_6_014C23A6:
 BYTE   N05  Cn1  v092
 BYTE   W12
 BYTE   N05
 BYTE   W12
 BYTE   N05
 BYTE   W12
 BYTE   N05
 BYTE   W12
 BYTE   N05
 BYTE   W12
 BYTE   N05
 BYTE   W12
 BYTE   N05
 BYTE   W12
 BYTE   N05
 BYTE   W12
 BYTE   PEND 
// 060   ----------------------------------------
 BYTE   PATT
  POIN2 Label_6_014C23A6
// 061   ----------------------------------------
Label_6_014C23BE:
 BYTE   N05  An0  v092
 BYTE   W12
 BYTE   N05
 BYTE   W12
 BYTE   N05
 BYTE   W12
 BYTE   N05
 BYTE   W12
 BYTE   N05
 BYTE   W12
 BYTE   N05
 BYTE   W12
 BYTE   N05
 BYTE   W12
 BYTE   N05
 BYTE   W12
 BYTE   PEND 
// 062   ----------------------------------------
 BYTE   PATT
  POIN2 Label_6_014C23BE
// 063   ----------------------------------------
 BYTE   PATT
  POIN2 Label_6_014C2350
// 064   ----------------------------------------
 BYTE   PATT
  POIN2 Label_6_014C2350
// 065   ----------------------------------------
 BYTE   PATT
  POIN2 Label_6_014C238E
// 066   ----------------------------------------
 BYTE   PATT
  POIN2 Label_6_014C238E
// 067   ----------------------------------------
 BYTE   PATT
  POIN2 Label_6_014C23BE
// 068   ----------------------------------------
 BYTE   PATT
  POIN2 Label_6_014C23BE
// 069   ----------------------------------------
 BYTE   PATT
  POIN2 Label_6_014C228A
// 070   ----------------------------------------
Label_6_014C23F9:
 BYTE   N05  En1  v092
 BYTE   W12
 BYTE   N05
 BYTE   W12
 BYTE   N05
 BYTE   W12
 BYTE   N05
 BYTE   W12
 BYTE   N05
 BYTE   W12
 BYTE   N05
 BYTE   W12
 BYTE   N05
 BYTE   W12
 BYTE   N05
 BYTE   W12
 BYTE   PEND 
// 071   ----------------------------------------
 BYTE   PATT
  POIN2 Label_6_014C22AC
// 072   ----------------------------------------
 BYTE   PATT
  POIN2 Label_6_014C228A
// 073   ----------------------------------------
 BYTE   PATT
  POIN2 Label_6_014C238E
// 074   ----------------------------------------
 BYTE   PATT
  POIN2 Label_6_014C238E
// 075   ----------------------------------------
 BYTE   PATT
  POIN2 Label_6_014C23A6
// 076   ----------------------------------------
 BYTE   PATT
  POIN2 Label_6_014C23A6
// 077   ----------------------------------------
 BYTE   PATT
  POIN2 Label_6_014C23BE
// 078   ----------------------------------------
 BYTE   PATT
  POIN2 Label_6_014C23BE
// 079   ----------------------------------------
 BYTE   PATT
  POIN2 Label_6_014C2350
// 080   ----------------------------------------
 BYTE   PATT
  POIN2 Label_6_014C2350
// 081   ----------------------------------------
 BYTE   PATT
  POIN2 Label_6_014C238E
// 082   ----------------------------------------
 BYTE   PATT
  POIN2 Label_6_014C238E
// 083   ----------------------------------------
 BYTE   PATT
  POIN2 Label_6_014C23BE
// 084   ----------------------------------------
 BYTE   PATT
  POIN2 Label_6_014C23BE
// 085   ----------------------------------------
 BYTE   PATT
  POIN2 Label_6_014C228A
// 086   ----------------------------------------
 BYTE   PATT
  POIN2 Label_6_014C23F9
// 087   ----------------------------------------
 BYTE   PATT
  POIN2 Label_6_014C22AC
// 088   ----------------------------------------
Label_6_014C2461:
 BYTE   N05  Fs1  v092
 BYTE   W12
 BYTE   N05
 BYTE   W12
 BYTE   N05
 BYTE   W12
 BYTE   N05
 BYTE   W12
 BYTE   N05
 BYTE   W12
 BYTE   N05
 BYTE   W12
 BYTE   N05
 BYTE   W12
 BYTE   N05
 BYTE   W12
 BYTE   PEND 
// 089   ----------------------------------------
 BYTE   W96
// 090   ----------------------------------------
 BYTE   W96
// 091   ----------------------------------------
 BYTE   W96
// 092   ----------------------------------------
 BYTE   W96
// 093   ----------------------------------------
Label_6_014C2478:
 BYTE   N05  Dn0  v092
 BYTE   W12
 BYTE   N05
 BYTE   W12
 BYTE   N05
 BYTE   W12
 BYTE   N05
 BYTE   W12
 BYTE   N05
 BYTE   W12
 BYTE   N05
 BYTE   W12
 BYTE   N05
 BYTE   W12
 BYTE   N05
 BYTE   W12
 BYTE   PEND 
// 094   ----------------------------------------
 BYTE   PATT
  POIN2 Label_6_014C2478
// 095   ----------------------------------------
Label_6_014C2490:
 BYTE   N05  En0  v092
 BYTE   W12
 BYTE   N05
 BYTE   W12
 BYTE   N05
 BYTE   W12
 BYTE   N05
 BYTE   W12
 BYTE   N05
 BYTE   W12
 BYTE   N05
 BYTE   W12
 BYTE   N05
 BYTE   W12
 BYTE   N05
 BYTE   W12
 BYTE   PEND 
// 096   ----------------------------------------
 BYTE   PATT
  POIN2 Label_6_014C2490
// 097   ----------------------------------------
Label_6_014C24A8:
 BYTE   N05  Fs0  v092
 BYTE   W12
 BYTE   N05
 BYTE   W12
 BYTE   N05
 BYTE   W12
 BYTE   N05
 BYTE   W12
 BYTE   N05
 BYTE   W12
 BYTE   N05
 BYTE   W12
 BYTE   N05
 BYTE   W12
 BYTE   N05
 BYTE   W12
 BYTE   PEND 
// 098   ----------------------------------------
 BYTE   PATT
  POIN2 Label_6_014C24A8
// 099   ----------------------------------------
 BYTE   PATT
  POIN2 Label_6_014C238E
// 100   ----------------------------------------
Label_6_014C24C5:
 BYTE   N05  Gn0  v092
 BYTE   W12
 BYTE   N05
 BYTE   W12
 BYTE   N05
 BYTE   W12
 BYTE   N05
 BYTE   W12
 BYTE   Fn0
 BYTE   W12
 BYTE   N05
 BYTE   W12
 BYTE   N05
 BYTE   W12
 BYTE   N05
 BYTE   W12
 BYTE   PEND 
// 101   ----------------------------------------
 BYTE   PATT
  POIN2 Label_6_014C2490
// 102   ----------------------------------------
 BYTE   PATT
  POIN2 Label_6_014C23BE
// 103   ----------------------------------------
Label_6_014C24E2:
 BYTE   N05  Dn0  v092
 BYTE   W12
 BYTE   N05
 BYTE   W12
 BYTE   N05
 BYTE   W12
 BYTE   N05
 BYTE   W12
 BYTE   En0
 BYTE   W12
 BYTE   N05
 BYTE   W12
 BYTE   N05
 BYTE   W12
 BYTE   N05
 BYTE   W12
 BYTE   PEND 
// 104   ----------------------------------------
Label_6_014C24F5:
 BYTE   N05  Fn0  v092
 BYTE   W12
 BYTE   N05
 BYTE   W12
 BYTE   N05
 BYTE   W12
 BYTE   N05
 BYTE   W12
 BYTE   Fs0
 BYTE   W12
 BYTE   N05
 BYTE   W12
 BYTE   N05
 BYTE   W12
 BYTE   N05
 BYTE   W12
 BYTE   PEND 
// 105   ----------------------------------------
 BYTE   PATT
  POIN2 Label_6_014C238E
// 106   ----------------------------------------
Label_6_014C250D:
 BYTE   N05  Gs0  v092
 BYTE   W12
 BYTE   N05
 BYTE   W12
 BYTE   N05
 BYTE   W12
 BYTE   N05
 BYTE   W12
 BYTE   N05
 BYTE   W12
 BYTE   N05
 BYTE   W12
 BYTE   N05
 BYTE   W12
 BYTE   N05
 BYTE   W12
 BYTE   PEND 
// 107   ----------------------------------------
 BYTE   PATT
  POIN2 Label_6_014C23BE
// 108   ----------------------------------------
Label_6_014C2525:
 BYTE   N05  An0  v092
 BYTE   W12
 BYTE   N05
 BYTE   W12
 BYTE   N05
 BYTE   W12
 BYTE   N05
 BYTE   W12
 BYTE   Cs1
 BYTE   W12
 BYTE   N05
 BYTE   W12
 BYTE   N05
 BYTE   W12
 BYTE   N05
 BYTE   W12
 BYTE   PEND 
// 109   ----------------------------------------
 BYTE   PATT
  POIN2 Label_6_014C228A
// 110   ----------------------------------------
 BYTE   PATT
  POIN2 Label_6_014C228A
// 111   ----------------------------------------
 BYTE   PATT
  POIN2 Label_6_014C228A
// 112   ----------------------------------------
 BYTE   PATT
  POIN2 Label_6_014C228A
// 113   ----------------------------------------
 BYTE   PATT
  POIN2 Label_6_014C22AC
// 114   ----------------------------------------
 BYTE   PATT
  POIN2 Label_6_014C22AC
// 115   ----------------------------------------
 BYTE   PATT
  POIN2 Label_6_014C22AC
// 116   ----------------------------------------
 BYTE   PATT
  POIN2 Label_6_014C22C9
// 117   ----------------------------------------
 BYTE   PATT
  POIN2 Label_6_014C228A
// 118   ----------------------------------------
 BYTE   PATT
  POIN2 Label_6_014C228A
// 119   ----------------------------------------
 BYTE   PATT
  POIN2 Label_6_014C228A
// 120   ----------------------------------------
 BYTE   PATT
  POIN2 Label_6_014C228A
// 121   ----------------------------------------
 BYTE   PATT
  POIN2 Label_6_014C22AC
// 122   ----------------------------------------
 BYTE   PATT
  POIN2 Label_6_014C22AC
// 123   ----------------------------------------
 BYTE   PATT
  POIN2 Label_6_014C22AC
// 124   ----------------------------------------
 BYTE   PATT
  POIN2 Label_6_014C22C9
// 125   ----------------------------------------
 BYTE   PATT
  POIN2 Label_6_014C228A
// 126   ----------------------------------------
 BYTE   PATT
  POIN2 Label_6_014C228A
// 127   ----------------------------------------
 BYTE   PATT
  POIN2 Label_6_014C22AC
// 128   ----------------------------------------
 BYTE   PATT
  POIN2 Label_6_014C22AC
// 129   ----------------------------------------
 BYTE   PATT
  POIN2 Label_6_014C230C
// 130   ----------------------------------------
 BYTE   PATT
  POIN2 Label_6_014C230C
// 131   ----------------------------------------
 BYTE   PATT
  POIN2 Label_6_014C22AC
// 132   ----------------------------------------
 BYTE   PATT
  POIN2 Label_6_014C2329
// 133   ----------------------------------------
 BYTE   PATT
  POIN2 Label_6_014C228A
// 134   ----------------------------------------
 BYTE   PATT
  POIN2 Label_6_014C228A
// 135   ----------------------------------------
 BYTE   PATT
  POIN2 Label_6_014C22AC
// 136   ----------------------------------------
 BYTE   PATT
  POIN2 Label_6_014C22AC
// 137   ----------------------------------------
 BYTE   PATT
  POIN2 Label_6_014C2350
// 138   ----------------------------------------
 BYTE   PATT
  POIN2 Label_6_014C2363
// 139   ----------------------------------------
 BYTE   PATT
  POIN2 Label_6_014C228A
// 140   ----------------------------------------
 BYTE   PATT
  POIN2 Label_6_014C237B
// 141   ----------------------------------------
 BYTE   PATT
  POIN2 Label_6_014C238E
// 142   ----------------------------------------
 BYTE   PATT
  POIN2 Label_6_014C238E
// 143   ----------------------------------------
 BYTE   PATT
  POIN2 Label_6_014C23A6
// 144   ----------------------------------------
 BYTE   PATT
  POIN2 Label_6_014C23A6
// 145   ----------------------------------------
 BYTE   PATT
  POIN2 Label_6_014C23BE
// 146   ----------------------------------------
 BYTE   PATT
  POIN2 Label_6_014C23BE
// 147   ----------------------------------------
 BYTE   PATT
  POIN2 Label_6_014C2350
// 148   ----------------------------------------
 BYTE   PATT
  POIN2 Label_6_014C2350
// 149   ----------------------------------------
 BYTE   PATT
  POIN2 Label_6_014C238E
// 150   ----------------------------------------
 BYTE   PATT
  POIN2 Label_6_014C238E
// 151   ----------------------------------------
 BYTE   PATT
  POIN2 Label_6_014C23BE
// 152   ----------------------------------------
 BYTE   PATT
  POIN2 Label_6_014C23BE
// 153   ----------------------------------------
 BYTE   PATT
  POIN2 Label_6_014C228A
// 154   ----------------------------------------
 BYTE   PATT
  POIN2 Label_6_014C23F9
// 155   ----------------------------------------
 BYTE   PATT
  POIN2 Label_6_014C22AC
// 156   ----------------------------------------
 BYTE   PATT
  POIN2 Label_6_014C228A
// 157   ----------------------------------------
 BYTE   PATT
  POIN2 Label_6_014C238E
// 158   ----------------------------------------
 BYTE   PATT
  POIN2 Label_6_014C238E
// 159   ----------------------------------------
 BYTE   PATT
  POIN2 Label_6_014C23A6
// 160   ----------------------------------------
 BYTE   PATT
  POIN2 Label_6_014C23A6
// 161   ----------------------------------------
 BYTE   PATT
  POIN2 Label_6_014C23BE
// 162   ----------------------------------------
 BYTE   PATT
  POIN2 Label_6_014C23BE
// 163   ----------------------------------------
 BYTE   PATT
  POIN2 Label_6_014C2350
// 164   ----------------------------------------
 BYTE   PATT
  POIN2 Label_6_014C2350
// 165   ----------------------------------------
 BYTE   PATT
  POIN2 Label_6_014C238E
// 166   ----------------------------------------
 BYTE   PATT
  POIN2 Label_6_014C238E
// 167   ----------------------------------------
 BYTE   PATT
  POIN2 Label_6_014C23BE
// 168   ----------------------------------------
 BYTE   PATT
  POIN2 Label_6_014C23BE
// 169   ----------------------------------------
 BYTE   PATT
  POIN2 Label_6_014C228A
// 170   ----------------------------------------
 BYTE   PATT
  POIN2 Label_6_014C23F9
// 171   ----------------------------------------
 BYTE   PATT
  POIN2 Label_6_014C22AC
// 172   ----------------------------------------
 BYTE   PATT
  POIN2 Label_6_014C2461
// 173   ----------------------------------------
 BYTE   W96
// 174   ----------------------------------------
 BYTE   W96
// 175   ----------------------------------------
 BYTE   W96
// 176   ----------------------------------------
 BYTE   W96
// 177   ----------------------------------------
 BYTE   PATT
  POIN2 Label_6_014C2478
// 178   ----------------------------------------
 BYTE   PATT
  POIN2 Label_6_014C2478
// 179   ----------------------------------------
 BYTE   PATT
  POIN2 Label_6_014C2490
// 180   ----------------------------------------
 BYTE   PATT
  POIN2 Label_6_014C2490
// 181   ----------------------------------------
 BYTE   PATT
  POIN2 Label_6_014C24A8
// 182   ----------------------------------------
 BYTE   PATT
  POIN2 Label_6_014C24A8
// 183   ----------------------------------------
 BYTE   PATT
  POIN2 Label_6_014C238E
// 184   ----------------------------------------
 BYTE   PATT
  POIN2 Label_6_014C24C5
// 185   ----------------------------------------
 BYTE   PATT
  POIN2 Label_6_014C2490
// 186   ----------------------------------------
 BYTE   PATT
  POIN2 Label_6_014C23BE
// 187   ----------------------------------------
 BYTE   PATT
  POIN2 Label_6_014C24E2
// 188   ----------------------------------------
 BYTE   PATT
  POIN2 Label_6_014C24F5
// 189   ----------------------------------------
 BYTE   PATT
  POIN2 Label_6_014C238E
// 190   ----------------------------------------
 BYTE   PATT
  POIN2 Label_6_014C250D
// 191   ----------------------------------------
 BYTE   PATT
  POIN2 Label_6_014C23BE
// 192   ----------------------------------------
 BYTE   PATT
  POIN2 Label_6_014C2525
// 193   ----------------------------------------
 BYTE   PATT
  POIN2 Label_6_014C228A
// 194   ----------------------------------------
 BYTE   PATT
  POIN2 Label_6_014C228A
// 195   ----------------------------------------
 BYTE   PATT
  POIN2 Label_6_014C228A
// 196   ----------------------------------------
 BYTE   PATT
  POIN2 Label_6_014C228A
// 197   ----------------------------------------
 BYTE   PATT
  POIN2 Label_6_014C22AC
// 198   ----------------------------------------
 BYTE   PATT
  POIN2 Label_6_014C22AC
// 199   ----------------------------------------
 BYTE   PATT
  POIN2 Label_6_014C22AC
// 200   ----------------------------------------
 BYTE   PATT
  POIN2 Label_6_014C22C9
// 201   ----------------------------------------
 BYTE   PATT
  POIN2 Label_6_014C228A
// 202   ----------------------------------------
 BYTE   PATT
  POIN2 Label_6_014C228A
// 203   ----------------------------------------
 BYTE   PATT
  POIN2 Label_6_014C228A
// 204   ----------------------------------------
 BYTE   PATT
  POIN2 Label_6_014C228A
// 205   ----------------------------------------
 BYTE   PATT
  POIN2 Label_6_014C22AC
// 206   ----------------------------------------
 BYTE   PATT
  POIN2 Label_6_014C22AC
// 207   ----------------------------------------
 BYTE   PATT
  POIN2 Label_6_014C22AC
// 208   ----------------------------------------
 BYTE   PATT
  POIN2 Label_6_014C22C9
// 209   ----------------------------------------
 BYTE   PATT
  POIN2 Label_6_014C228A
// 210   ----------------------------------------
 BYTE   PATT
  POIN2 Label_6_014C228A
// 211   ----------------------------------------
 BYTE   PATT
  POIN2 Label_6_014C22AC
// 212   ----------------------------------------
 BYTE   PATT
  POIN2 Label_6_014C22AC
// 213   ----------------------------------------
 BYTE   PATT
  POIN2 Label_6_014C230C
// 214   ----------------------------------------
 BYTE   PATT
  POIN2 Label_6_014C230C
// 215   ----------------------------------------
 BYTE   PATT
  POIN2 Label_6_014C22AC
// 216   ----------------------------------------
 BYTE   PATT
  POIN2 Label_6_014C2329
// 217   ----------------------------------------
 BYTE   PATT
  POIN2 Label_6_014C228A
// 218   ----------------------------------------
 BYTE   PATT
  POIN2 Label_6_014C228A
// 219   ----------------------------------------
 BYTE   PATT
  POIN2 Label_6_014C22AC
// 220   ----------------------------------------
 BYTE   PATT
  POIN2 Label_6_014C22AC
// 221   ----------------------------------------
 BYTE   PATT
  POIN2 Label_6_014C2350
// 222   ----------------------------------------
 BYTE   PATT
  POIN2 Label_6_014C2363
// 223   ----------------------------------------
 BYTE   PATT
  POIN2 Label_6_014C228A
// 224   ----------------------------------------
 BYTE   PATT
  POIN2 Label_6_014C237B
// 225   ----------------------------------------
 BYTE   PATT
  POIN2 Label_6_014C238E
// 226   ----------------------------------------
 BYTE   PATT
  POIN2 Label_6_014C238E
// 227   ----------------------------------------
 BYTE   PATT
  POIN2 Label_6_014C23A6
// 228   ----------------------------------------
 BYTE   PATT
  POIN2 Label_6_014C23A6
// 229   ----------------------------------------
 BYTE   PATT
  POIN2 Label_6_014C23BE
// 230   ----------------------------------------
 BYTE   PATT
  POIN2 Label_6_014C23BE
// 231   ----------------------------------------
 BYTE   PATT
  POIN2 Label_6_014C2350
// 232   ----------------------------------------
 BYTE   PATT
  POIN2 Label_6_014C2350
// 233   ----------------------------------------
 BYTE   PATT
  POIN2 Label_6_014C238E
// 234   ----------------------------------------
 BYTE   PATT
  POIN2 Label_6_014C238E
// 235   ----------------------------------------
 BYTE   PATT
  POIN2 Label_6_014C23BE
// 236   ----------------------------------------
 BYTE   PATT
  POIN2 Label_6_014C23BE
// 237   ----------------------------------------
 BYTE   PATT
  POIN2 Label_6_014C228A
// 238   ----------------------------------------
 BYTE   PATT
  POIN2 Label_6_014C23F9
// 239   ----------------------------------------
 BYTE   PATT
  POIN2 Label_6_014C22AC
// 240   ----------------------------------------
 BYTE   PATT
  POIN2 Label_6_014C228A
// 241   ----------------------------------------
 BYTE   PATT
  POIN2 Label_6_014C238E
// 242   ----------------------------------------
 BYTE   PATT
  POIN2 Label_6_014C238E
// 243   ----------------------------------------
 BYTE   PATT
  POIN2 Label_6_014C23A6
// 244   ----------------------------------------
 BYTE   PATT
  POIN2 Label_6_014C23A6
// 245   ----------------------------------------
 BYTE   PATT
  POIN2 Label_6_014C23BE
// 246   ----------------------------------------
 BYTE   PATT
  POIN2 Label_6_014C23BE
// 247   ----------------------------------------
 BYTE   PATT
  POIN2 Label_6_014C2350
// 248   ----------------------------------------
 BYTE   PATT
  POIN2 Label_6_014C2350
// 249   ----------------------------------------
 BYTE   PATT
  POIN2 Label_6_014C238E
// 250   ----------------------------------------
 BYTE   PATT
  POIN2 Label_6_014C238E
// 251   ----------------------------------------
 BYTE   PATT
  POIN2 Label_6_014C23BE
// 252   ----------------------------------------
 BYTE   PATT
  POIN2 Label_6_014C23BE
// 253   ----------------------------------------
 BYTE   PATT
  POIN2 Label_6_014C228A
// 254   ----------------------------------------
 BYTE   PATT
  POIN2 Label_6_014C23F9
// 255   ----------------------------------------
 BYTE   PATT
  POIN2 Label_6_014C22AC
// 256   ----------------------------------------
 BYTE   PATT
  POIN2 Label_6_014C2461
// 257   ----------------------------------------
 BYTE   GoTo
  POIN2 Label_6_014C2279
// 258   ----------------------------------------
 BYTE   W96
// 259   ----------------------------------------
 BYTE   W96
// 260   ----------------------------------------
 BYTE   W96
// 261   ----------------------------------------
 BYTE   W96
// 262   ----------------------------------------
 BYTE   W96
// 263   ----------------------------------------
 BYTE   W96
// 264   ----------------------------------------
 BYTE   W96
// 265   ----------------------------------------
 BYTE   W96
// 266   ----------------------------------------
 BYTE   W92
 BYTE   W03
 BYTE   FINE

//**************** Track 8 (Midi-Chn.7) ****************//

GuiltyGearXDizzysThemeMeatOfJustice_008:
// 000   ----------------------------------------
 BYTE   KEYSH   GuiltyGearXDizzysThemeMeatOfJustice_key+0
 BYTE   VOICE   30
 BYTE   PAN   c_v-19
 BYTE   VOL   40*GuiltyGearXDizzysThemeMeatOfJustice_mvl/mxv
 BYTE   W96
// 001   ----------------------------------------
 BYTE   W96
// 002   ----------------------------------------
 BYTE   W96
// 003   ----------------------------------------
 BYTE   W96
// 004   ----------------------------------------
 BYTE   W96
// 005   ----------------------------------------
 BYTE   W96
// 006   ----------------------------------------
 BYTE   W96
// 007   ----------------------------------------
 BYTE   W96
// 008   ----------------------------------------
 BYTE   W96
// 009   ----------------------------------------
 BYTE   W96
// 010   ----------------------------------------
 BYTE   W96
// 011   ----------------------------------------
 BYTE   W96
// 012   ----------------------------------------
 BYTE   W96
// 013   ----------------------------------------
 BYTE   W96
// 014   ----------------------------------------
 BYTE   W96
// 015   ----------------------------------------
 BYTE   W96
// 016   ----------------------------------------
 BYTE   W96
// 017   ----------------------------------------
Label_7_014C2835:
 BYTE   TIE  Dn2  v092
 BYTE   TIE  An2
 BYTE   W96
// 018   ----------------------------------------
 BYTE   W96
// 019   ----------------------------------------
 BYTE   W96
// 020   ----------------------------------------
 BYTE   W92
 BYTE   W03
 BYTE   EOT
 BYTE   Dn2  v057
 BYTE   W01
// 021   ----------------------------------------
 BYTE   N11  Dn2
 BYTE   N11  An2
 BYTE   W12
 BYTE   Dn2
 BYTE   N11  An2
 BYTE   W84
// 022   ----------------------------------------
 BYTE   W96
// 023   ----------------------------------------
 BYTE   W96
// 024   ----------------------------------------
 BYTE   W96
// 025   ----------------------------------------
Label_7_014C284F:
 BYTE   N11  Cn2  v092
 BYTE   N11  Cn3
 BYTE   W12
 BYTE   Dn2
 BYTE   N11  Dn3
 BYTE   W12
 BYTE   N05  Dn2
 BYTE   W12
 BYTE   N05
 BYTE   W12
 BYTE   N05
 BYTE   W12
 BYTE   N05
 BYTE   W12
 BYTE   N05
 BYTE   W12
 BYTE   N05
 BYTE   W12
 BYTE   PEND 
// 026   ----------------------------------------
Label_7_014C2867:
 BYTE   N05  Dn2  v092
 BYTE   W12
 BYTE   N05
 BYTE   W12
 BYTE   N05
 BYTE   W12
 BYTE   N05
 BYTE   W12
 BYTE   N05
 BYTE   W12
 BYTE   N05
 BYTE   W12
 BYTE   N05
 BYTE   W12
 BYTE   N05
 BYTE   W12
 BYTE   PEND 
// 027   ----------------------------------------
 BYTE   PATT
  POIN2 Label_7_014C284F
// 028   ----------------------------------------
Label_7_014C287F:
 BYTE   N11  Cn2  v092
 BYTE   N11  Cn3
 BYTE   W12
 BYTE   Dn2
 BYTE   N11  Dn3
 BYTE   W12
 BYTE   N05  Dn2
 BYTE   W12
 BYTE   N05
 BYTE   W12
 BYTE   N11
 BYTE   N11  Dn3
 BYTE   W12
 BYTE   Dn2
 BYTE   W12
 BYTE   N23
 BYTE   N23  Dn3
 BYTE   W24
 BYTE   PEND 
// 029   ----------------------------------------
Label_7_014C2899:
 BYTE   N11  Cn2  v092
 BYTE   N11  Cn3
 BYTE   W12
 BYTE   Dn2
 BYTE   N11  Dn3
 BYTE   W12
 BYTE   N05  Fn2
 BYTE   W12
 BYTE   N05
 BYTE   W12
 BYTE   N05
 BYTE   W12
 BYTE   N05
 BYTE   W12
 BYTE   N05
 BYTE   W12
 BYTE   N05
 BYTE   W12
 BYTE   PEND 
// 030   ----------------------------------------
Label_7_014C28B1:
 BYTE   N05  Fn2  v092
 BYTE   W12
 BYTE   N05
 BYTE   W12
 BYTE   N05
 BYTE   W12
 BYTE   N05
 BYTE   W12
 BYTE   N05
 BYTE   W12
 BYTE   N05
 BYTE   W12
 BYTE   N05
 BYTE   W12
 BYTE   N05
 BYTE   W12
 BYTE   PEND 
// 031   ----------------------------------------
 BYTE   PATT
  POIN2 Label_7_014C2899
// 032   ----------------------------------------
Label_7_014C28C9:
 BYTE   N44  As1  v092
 BYTE   N44  As2
 BYTE   W48
 BYTE   An1
 BYTE   N44  An2
 BYTE   W48
 BYTE   PEND 
// 033   ----------------------------------------
 BYTE   PATT
  POIN2 Label_7_014C284F
// 034   ----------------------------------------
 BYTE   PATT
  POIN2 Label_7_014C2867
// 035   ----------------------------------------
 BYTE   PATT
  POIN2 Label_7_014C284F
// 036   ----------------------------------------
 BYTE   PATT
  POIN2 Label_7_014C287F
// 037   ----------------------------------------
 BYTE   PATT
  POIN2 Label_7_014C2899
// 038   ----------------------------------------
 BYTE   PATT
  POIN2 Label_7_014C28B1
// 039   ----------------------------------------
 BYTE   PATT
  POIN2 Label_7_014C2899
// 040   ----------------------------------------
 BYTE   PATT
  POIN2 Label_7_014C28C9
// 041   ----------------------------------------
Label_7_014C28FC:
 BYTE   N11  Bn1  v092
 BYTE   N11  Cn3
 BYTE   W12
 BYTE   Cn2
 BYTE   N11  Dn3
 BYTE   W12
 BYTE   N05  Dn2
 BYTE   W12
 BYTE   N05
 BYTE   W12
 BYTE   N05
 BYTE   W12
 BYTE   N05
 BYTE   W12
 BYTE   N05
 BYTE   W12
 BYTE   N05
 BYTE   W12
 BYTE   PEND 
// 042   ----------------------------------------
 BYTE   PATT
  POIN2 Label_7_014C2867
// 043   ----------------------------------------
 BYTE   PATT
  POIN2 Label_7_014C28B1
// 044   ----------------------------------------
 BYTE   PATT
  POIN2 Label_7_014C28B1
// 045   ----------------------------------------
Label_7_014C2923:
 BYTE   N05  Gn2  v092
 BYTE   W12
 BYTE   N05
 BYTE   W12
 BYTE   N05
 BYTE   W12
 BYTE   N05
 BYTE   W12
 BYTE   N05
 BYTE   W12
 BYTE   N05
 BYTE   W12
 BYTE   N05
 BYTE   W12
 BYTE   N05
 BYTE   W12
 BYTE   PEND 
// 046   ----------------------------------------
 BYTE   PATT
  POIN2 Label_7_014C2923
// 047   ----------------------------------------
 BYTE   N92  Cn2  v092
 BYTE   N92  Fn2
 BYTE   W96
// 048   ----------------------------------------
 BYTE   En2
 BYTE   N92  An2
 BYTE   W96
// 049   ----------------------------------------
 BYTE   PATT
  POIN2 Label_7_014C2867
// 050   ----------------------------------------
 BYTE   PATT
  POIN2 Label_7_014C2867
// 051   ----------------------------------------
 BYTE   PATT
  POIN2 Label_7_014C28B1
// 052   ----------------------------------------
 BYTE   PATT
  POIN2 Label_7_014C28B1
// 053   ----------------------------------------
 BYTE   N92  As1  v092
 BYTE   W96
// 054   ----------------------------------------
 BYTE   Cs2
 BYTE   W96
// 055   ----------------------------------------
 BYTE   Dn2
 BYTE   W96
// 056   ----------------------------------------
 BYTE   En2
 BYTE   W96
// 057   ----------------------------------------
Label_7_014C2963:
 BYTE   N05  Gn1  v092
 BYTE   W12
 BYTE   N05
 BYTE   W12
 BYTE   N05
 BYTE   W12
 BYTE   N05
 BYTE   W12
 BYTE   N05
 BYTE   W12
 BYTE   N05
 BYTE   W12
 BYTE   N05
 BYTE   W12
 BYTE   N05
 BYTE   W12
 BYTE   PEND 
// 058   ----------------------------------------
 BYTE   PATT
  POIN2 Label_7_014C2963
// 059   ----------------------------------------
Label_7_014C297B:
 BYTE   N05  Cn2  v092
 BYTE   W12
 BYTE   N05
 BYTE   W12
 BYTE   N05
 BYTE   W12
 BYTE   N05
 BYTE   W12
 BYTE   N05
 BYTE   W12
 BYTE   N05
 BYTE   W12
 BYTE   N05
 BYTE   W12
 BYTE   N05
 BYTE   W12
 BYTE   PEND 
// 060   ----------------------------------------
 BYTE   PATT
  POIN2 Label_7_014C297B
// 061   ----------------------------------------
Label_7_014C2993:
 BYTE   N05  An1  v092
 BYTE   W12
 BYTE   N05
 BYTE   W12
 BYTE   N05
 BYTE   W12
 BYTE   N05
 BYTE   W12
 BYTE   N05
 BYTE   W12
 BYTE   N05
 BYTE   W12
 BYTE   N05
 BYTE   W12
 BYTE   N05
 BYTE   W12
 BYTE   PEND 
// 062   ----------------------------------------
 BYTE   PATT
  POIN2 Label_7_014C2993
// 063   ----------------------------------------
Label_7_014C29AB:
 BYTE   N05  As1  v092
 BYTE   W12
 BYTE   N05
 BYTE   W12
 BYTE   N05
 BYTE   W12
 BYTE   N05
 BYTE   W12
 BYTE   N05
 BYTE   W12
 BYTE   N05
 BYTE   W12
 BYTE   N05
 BYTE   W12
 BYTE   N05
 BYTE   W12
 BYTE   PEND 
// 064   ----------------------------------------
 BYTE   PATT
  POIN2 Label_7_014C29AB
// 065   ----------------------------------------
 BYTE   PATT
  POIN2 Label_7_014C2963
// 066   ----------------------------------------
 BYTE   PATT
  POIN2 Label_7_014C2963
// 067   ----------------------------------------
 BYTE   PATT
  POIN2 Label_7_014C2993
// 068   ----------------------------------------
 BYTE   PATT
  POIN2 Label_7_014C2993
// 069   ----------------------------------------
 BYTE   N92  Dn2  v092
 BYTE   W96
// 070   ----------------------------------------
 BYTE   En2
 BYTE   W96
// 071   ----------------------------------------
 BYTE   Fn2
 BYTE   W96
// 072   ----------------------------------------
 BYTE   Dn2
 BYTE   W96
// 073   ----------------------------------------
 BYTE   PATT
  POIN2 Label_7_014C2963
// 074   ----------------------------------------
 BYTE   PATT
  POIN2 Label_7_014C2963
// 075   ----------------------------------------
 BYTE   PATT
  POIN2 Label_7_014C297B
// 076   ----------------------------------------
 BYTE   PATT
  POIN2 Label_7_014C297B
// 077   ----------------------------------------
 BYTE   PATT
  POIN2 Label_7_014C2993
// 078   ----------------------------------------
 BYTE   PATT
  POIN2 Label_7_014C2993
// 079   ----------------------------------------
 BYTE   PATT
  POIN2 Label_7_014C29AB
// 080   ----------------------------------------
 BYTE   PATT
  POIN2 Label_7_014C29AB
// 081   ----------------------------------------
 BYTE   PATT
  POIN2 Label_7_014C2963
// 082   ----------------------------------------
 BYTE   PATT
  POIN2 Label_7_014C2963
// 083   ----------------------------------------
 BYTE   PATT
  POIN2 Label_7_014C2993
// 084   ----------------------------------------
 BYTE   PATT
  POIN2 Label_7_014C2993
// 085   ----------------------------------------
 BYTE   N92  Dn2  v092
 BYTE   W96
// 086   ----------------------------------------
 BYTE   En2
 BYTE   W96
// 087   ----------------------------------------
 BYTE   Fn2
 BYTE   W96
// 088   ----------------------------------------
 BYTE   Fs2
 BYTE   W96
// 089   ----------------------------------------
 BYTE   W96
// 090   ----------------------------------------
 BYTE   W96
// 091   ----------------------------------------
 BYTE   W96
// 092   ----------------------------------------
 BYTE   W96
// 093   ----------------------------------------
Label_7_014C2A2B:
 BYTE   N23  Dn1  v092
 BYTE   W24
 BYTE   N05
 BYTE   W12
 BYTE   N05
 BYTE   W12
 BYTE   N05
 BYTE   W12
 BYTE   N05
 BYTE   W12
 BYTE   N05
 BYTE   W12
 BYTE   N05
 BYTE   W12
 BYTE   PEND 
// 094   ----------------------------------------
Label_7_014C2A3C:
 BYTE   N05  Dn1  v092
 BYTE   W12
 BYTE   N05
 BYTE   W12
 BYTE   N05
 BYTE   W12
 BYTE   N05
 BYTE   W12
 BYTE   N05
 BYTE   W12
 BYTE   N05
 BYTE   W12
 BYTE   N05
 BYTE   W12
 BYTE   N05
 BYTE   W12
 BYTE   PEND 
// 095   ----------------------------------------
Label_7_014C2A4F:
 BYTE   N23  En1  v092
 BYTE   W24
 BYTE   N05
 BYTE   W12
 BYTE   N05
 BYTE   W12
 BYTE   N05
 BYTE   W12
 BYTE   N05
 BYTE   W12
 BYTE   N05
 BYTE   W12
 BYTE   N05
 BYTE   W12
 BYTE   PEND 
// 096   ----------------------------------------
Label_7_014C2A60:
 BYTE   N05  En1  v092
 BYTE   W12
 BYTE   N05
 BYTE   W12
 BYTE   N05
 BYTE   W12
 BYTE   N05
 BYTE   W12
 BYTE   N05
 BYTE   W12
 BYTE   N05
 BYTE   W12
 BYTE   N05
 BYTE   W12
 BYTE   N05
 BYTE   W12
 BYTE   PEND 
// 097   ----------------------------------------
Label_7_014C2A73:
 BYTE   N23  Fs1  v092
 BYTE   W24
 BYTE   N05
 BYTE   W12
 BYTE   N05
 BYTE   W12
 BYTE   N05
 BYTE   W12
 BYTE   N05
 BYTE   W12
 BYTE   N05
 BYTE   W12
 BYTE   N05
 BYTE   W12
 BYTE   PEND 
// 098   ----------------------------------------
Label_7_014C2A84:
 BYTE   N05  Fs1  v092
 BYTE   W12
 BYTE   N05
 BYTE   W12
 BYTE   N05
 BYTE   W12
 BYTE   N05
 BYTE   W12
 BYTE   N05
 BYTE   W12
 BYTE   N05
 BYTE   W12
 BYTE   N05
 BYTE   W12
 BYTE   N05
 BYTE   W12
 BYTE   PEND 
// 099   ----------------------------------------
Label_7_014C2A97:
 BYTE   N23  Gn1  v092
 BYTE   W24
 BYTE   N05
 BYTE   W12
 BYTE   N05
 BYTE   W12
 BYTE   N05
 BYTE   W12
 BYTE   N05
 BYTE   W12
 BYTE   N05
 BYTE   W12
 BYTE   N05
 BYTE   W12
 BYTE   PEND 
// 100   ----------------------------------------
Label_7_014C2AA8:
 BYTE   N44  Gn1  v092
 BYTE   W48
 BYTE   Fn1
 BYTE   W48
 BYTE   PEND 
// 101   ----------------------------------------
 BYTE   PATT
  POIN2 Label_7_014C2A4F
// 102   ----------------------------------------
 BYTE   PATT
  POIN2 Label_7_014C2993
// 103   ----------------------------------------
Label_7_014C2AB9:
 BYTE   N05  Dn1  v092
 BYTE   W12
 BYTE   N05
 BYTE   W12
 BYTE   N05
 BYTE   W12
 BYTE   N05
 BYTE   W12
 BYTE   En1
 BYTE   W12
 BYTE   N05
 BYTE   W12
 BYTE   N05
 BYTE   W12
 BYTE   N05
 BYTE   W12
 BYTE   PEND 
// 104   ----------------------------------------
Label_7_014C2ACC:
 BYTE   N05  Fn1  v092
 BYTE   W12
 BYTE   N05
 BYTE   W12
 BYTE   N05
 BYTE   W12
 BYTE   N05
 BYTE   W12
 BYTE   Fs1
 BYTE   W12
 BYTE   N05
 BYTE   W12
 BYTE   N05
 BYTE   W12
 BYTE   N05
 BYTE   W12
 BYTE   PEND 
// 105   ----------------------------------------
 BYTE   PATT
  POIN2 Label_7_014C2A97
// 106   ----------------------------------------
Label_7_014C2AE4:
 BYTE   N23  Gs1  v092
 BYTE   W24
 BYTE   N05
 BYTE   W12
 BYTE   N05
 BYTE   W12
 BYTE   N05
 BYTE   W12
 BYTE   N05
 BYTE   W12
 BYTE   N05
 BYTE   W12
 BYTE   N05
 BYTE   W12
 BYTE   PEND 
// 107   ----------------------------------------
Label_7_014C2AF5:
 BYTE   N23  An1  v092
 BYTE   W24
 BYTE   N05
 BYTE   W12
 BYTE   N05
 BYTE   W12
 BYTE   N05
 BYTE   W12
 BYTE   N05
 BYTE   W12
 BYTE   N05
 BYTE   W12
 BYTE   N05
 BYTE   W12
 BYTE   PEND 
// 108   ----------------------------------------
Label_7_014C2B06:
 BYTE   N05  An1  v092
 BYTE   W12
 BYTE   N05
 BYTE   W12
 BYTE   N05
 BYTE   W12
 BYTE   N05
 BYTE   W12
 BYTE   N44  Cs2
 BYTE   W48
 BYTE   PEND 
// 109   ----------------------------------------
 BYTE   PATT
  POIN2 Label_7_014C284F
// 110   ----------------------------------------
 BYTE   PATT
  POIN2 Label_7_014C2867
// 111   ----------------------------------------
 BYTE   PATT
  POIN2 Label_7_014C284F
// 112   ----------------------------------------
 BYTE   PATT
  POIN2 Label_7_014C287F
// 113   ----------------------------------------
 BYTE   PATT
  POIN2 Label_7_014C2899
// 114   ----------------------------------------
 BYTE   PATT
  POIN2 Label_7_014C28B1
// 115   ----------------------------------------
 BYTE   PATT
  POIN2 Label_7_014C2899
// 116   ----------------------------------------
 BYTE   PATT
  POIN2 Label_7_014C28C9
// 117   ----------------------------------------
 BYTE   PATT
  POIN2 Label_7_014C284F
// 118   ----------------------------------------
 BYTE   PATT
  POIN2 Label_7_014C2867
// 119   ----------------------------------------
 BYTE   PATT
  POIN2 Label_7_014C284F
// 120   ----------------------------------------
 BYTE   PATT
  POIN2 Label_7_014C287F
// 121   ----------------------------------------
 BYTE   PATT
  POIN2 Label_7_014C2899
// 122   ----------------------------------------
 BYTE   PATT
  POIN2 Label_7_014C28B1
// 123   ----------------------------------------
 BYTE   PATT
  POIN2 Label_7_014C2899
// 124   ----------------------------------------
 BYTE   PATT
  POIN2 Label_7_014C28C9
// 125   ----------------------------------------
 BYTE   PATT
  POIN2 Label_7_014C28FC
// 126   ----------------------------------------
 BYTE   PATT
  POIN2 Label_7_014C2867
// 127   ----------------------------------------
 BYTE   PATT
  POIN2 Label_7_014C28B1
// 128   ----------------------------------------
 BYTE   PATT
  POIN2 Label_7_014C28B1
// 129   ----------------------------------------
 BYTE   PATT
  POIN2 Label_7_014C2923
// 130   ----------------------------------------
 BYTE   PATT
  POIN2 Label_7_014C2923
// 131   ----------------------------------------
 BYTE   N92  Cn2  v092
 BYTE   N92  Fn2
 BYTE   W96
// 132   ----------------------------------------
 BYTE   En2
 BYTE   N92  An2
 BYTE   W96
// 133   ----------------------------------------
 BYTE   PATT
  POIN2 Label_7_014C2867
// 134   ----------------------------------------
 BYTE   PATT
  POIN2 Label_7_014C2867
// 135   ----------------------------------------
 BYTE   PATT
  POIN2 Label_7_014C28B1
// 136   ----------------------------------------
 BYTE   PATT
  POIN2 Label_7_014C28B1
// 137   ----------------------------------------
 BYTE   N92  As1  v092
 BYTE   W96
// 138   ----------------------------------------
 BYTE   Cs2
 BYTE   W96
// 139   ----------------------------------------
 BYTE   Dn2
 BYTE   W96
// 140   ----------------------------------------
 BYTE   En2
 BYTE   W96
// 141   ----------------------------------------
 BYTE   PATT
  POIN2 Label_7_014C2963
// 142   ----------------------------------------
 BYTE   PATT
  POIN2 Label_7_014C2963
// 143   ----------------------------------------
 BYTE   PATT
  POIN2 Label_7_014C297B
// 144   ----------------------------------------
 BYTE   PATT
  POIN2 Label_7_014C297B
// 145   ----------------------------------------
 BYTE   PATT
  POIN2 Label_7_014C2993
// 146   ----------------------------------------
 BYTE   PATT
  POIN2 Label_7_014C2993
// 147   ----------------------------------------
 BYTE   PATT
  POIN2 Label_7_014C29AB
// 148   ----------------------------------------
 BYTE   PATT
  POIN2 Label_7_014C29AB
// 149   ----------------------------------------
 BYTE   PATT
  POIN2 Label_7_014C2963
// 150   ----------------------------------------
 BYTE   PATT
  POIN2 Label_7_014C2963
// 151   ----------------------------------------
 BYTE   PATT
  POIN2 Label_7_014C2993
// 152   ----------------------------------------
 BYTE   PATT
  POIN2 Label_7_014C2993
// 153   ----------------------------------------
 BYTE   N92  Dn2  v092
 BYTE   W96
// 154   ----------------------------------------
 BYTE   En2
 BYTE   W96
// 155   ----------------------------------------
 BYTE   Fn2
 BYTE   W96
// 156   ----------------------------------------
 BYTE   Dn2
 BYTE   W96
// 157   ----------------------------------------
 BYTE   PATT
  POIN2 Label_7_014C2963
// 158   ----------------------------------------
 BYTE   PATT
  POIN2 Label_7_014C2963
// 159   ----------------------------------------
 BYTE   PATT
  POIN2 Label_7_014C297B
// 160   ----------------------------------------
 BYTE   PATT
  POIN2 Label_7_014C297B
// 161   ----------------------------------------
 BYTE   PATT
  POIN2 Label_7_014C2993
// 162   ----------------------------------------
 BYTE   PATT
  POIN2 Label_7_014C2993
// 163   ----------------------------------------
 BYTE   PATT
  POIN2 Label_7_014C29AB
// 164   ----------------------------------------
 BYTE   PATT
  POIN2 Label_7_014C29AB
// 165   ----------------------------------------
 BYTE   PATT
  POIN2 Label_7_014C2963
// 166   ----------------------------------------
 BYTE   PATT
  POIN2 Label_7_014C2963
// 167   ----------------------------------------
 BYTE   PATT
  POIN2 Label_7_014C2993
// 168   ----------------------------------------
 BYTE   PATT
  POIN2 Label_7_014C2993
// 169   ----------------------------------------
 BYTE   N92  Dn2  v092
 BYTE   W96
// 170   ----------------------------------------
 BYTE   En2
 BYTE   W96
// 171   ----------------------------------------
 BYTE   Fn2
 BYTE   W96
// 172   ----------------------------------------
 BYTE   Fs2
 BYTE   W96
// 173   ----------------------------------------
 BYTE   W96
// 174   ----------------------------------------
 BYTE   W96
// 175   ----------------------------------------
 BYTE   W96
// 176   ----------------------------------------
 BYTE   W96
// 177   ----------------------------------------
 BYTE   PATT
  POIN2 Label_7_014C2A2B
// 178   ----------------------------------------
 BYTE   PATT
  POIN2 Label_7_014C2A3C
// 179   ----------------------------------------
 BYTE   PATT
  POIN2 Label_7_014C2A4F
// 180   ----------------------------------------
 BYTE   PATT
  POIN2 Label_7_014C2A60
// 181   ----------------------------------------
 BYTE   PATT
  POIN2 Label_7_014C2A73
// 182   ----------------------------------------
 BYTE   PATT
  POIN2 Label_7_014C2A84
// 183   ----------------------------------------
 BYTE   PATT
  POIN2 Label_7_014C2A97
// 184   ----------------------------------------
 BYTE   PATT
  POIN2 Label_7_014C2AA8
// 185   ----------------------------------------
 BYTE   PATT
  POIN2 Label_7_014C2A4F
// 186   ----------------------------------------
 BYTE   PATT
  POIN2 Label_7_014C2993
// 187   ----------------------------------------
 BYTE   PATT
  POIN2 Label_7_014C2AB9
// 188   ----------------------------------------
 BYTE   PATT
  POIN2 Label_7_014C2ACC
// 189   ----------------------------------------
 BYTE   PATT
  POIN2 Label_7_014C2A97
// 190   ----------------------------------------
 BYTE   PATT
  POIN2 Label_7_014C2AE4
// 191   ----------------------------------------
 BYTE   PATT
  POIN2 Label_7_014C2AF5
// 192   ----------------------------------------
 BYTE   PATT
  POIN2 Label_7_014C2B06
// 193   ----------------------------------------
 BYTE   PATT
  POIN2 Label_7_014C284F
// 194   ----------------------------------------
 BYTE   PATT
  POIN2 Label_7_014C2867
// 195   ----------------------------------------
 BYTE   PATT
  POIN2 Label_7_014C284F
// 196   ----------------------------------------
 BYTE   PATT
  POIN2 Label_7_014C287F
// 197   ----------------------------------------
 BYTE   PATT
  POIN2 Label_7_014C2899
// 198   ----------------------------------------
 BYTE   PATT
  POIN2 Label_7_014C28B1
// 199   ----------------------------------------
 BYTE   PATT
  POIN2 Label_7_014C2899
// 200   ----------------------------------------
 BYTE   PATT
  POIN2 Label_7_014C28C9
// 201   ----------------------------------------
 BYTE   PATT
  POIN2 Label_7_014C284F
// 202   ----------------------------------------
 BYTE   PATT
  POIN2 Label_7_014C2867
// 203   ----------------------------------------
 BYTE   PATT
  POIN2 Label_7_014C284F
// 204   ----------------------------------------
 BYTE   PATT
  POIN2 Label_7_014C287F
// 205   ----------------------------------------
 BYTE   PATT
  POIN2 Label_7_014C2899
// 206   ----------------------------------------
 BYTE   PATT
  POIN2 Label_7_014C28B1
// 207   ----------------------------------------
 BYTE   PATT
  POIN2 Label_7_014C2899
// 208   ----------------------------------------
 BYTE   PATT
  POIN2 Label_7_014C28C9
// 209   ----------------------------------------
 BYTE   PATT
  POIN2 Label_7_014C28FC
// 210   ----------------------------------------
 BYTE   PATT
  POIN2 Label_7_014C2867
// 211   ----------------------------------------
 BYTE   PATT
  POIN2 Label_7_014C28B1
// 212   ----------------------------------------
 BYTE   PATT
  POIN2 Label_7_014C28B1
// 213   ----------------------------------------
 BYTE   PATT
  POIN2 Label_7_014C2923
// 214   ----------------------------------------
 BYTE   PATT
  POIN2 Label_7_014C2923
// 215   ----------------------------------------
 BYTE   N92  Cn2  v092
 BYTE   N92  Fn2
 BYTE   W96
// 216   ----------------------------------------
 BYTE   En2
 BYTE   N92  An2
 BYTE   W96
// 217   ----------------------------------------
 BYTE   PATT
  POIN2 Label_7_014C2867
// 218   ----------------------------------------
 BYTE   PATT
  POIN2 Label_7_014C2867
// 219   ----------------------------------------
 BYTE   PATT
  POIN2 Label_7_014C28B1
// 220   ----------------------------------------
 BYTE   PATT
  POIN2 Label_7_014C28B1
// 221   ----------------------------------------
 BYTE   N92  As1  v092
 BYTE   W96
// 222   ----------------------------------------
 BYTE   Cs2
 BYTE   W96
// 223   ----------------------------------------
 BYTE   Dn2
 BYTE   W96
// 224   ----------------------------------------
 BYTE   En2
 BYTE   W96
// 225   ----------------------------------------
 BYTE   PATT
  POIN2 Label_7_014C2963
// 226   ----------------------------------------
 BYTE   PATT
  POIN2 Label_7_014C2963
// 227   ----------------------------------------
 BYTE   PATT
  POIN2 Label_7_014C297B
// 228   ----------------------------------------
 BYTE   PATT
  POIN2 Label_7_014C297B
// 229   ----------------------------------------
 BYTE   PATT
  POIN2 Label_7_014C2993
// 230   ----------------------------------------
 BYTE   PATT
  POIN2 Label_7_014C2993
// 231   ----------------------------------------
 BYTE   PATT
  POIN2 Label_7_014C29AB
// 232   ----------------------------------------
 BYTE   PATT
  POIN2 Label_7_014C29AB
// 233   ----------------------------------------
 BYTE   PATT
  POIN2 Label_7_014C2963
// 234   ----------------------------------------
 BYTE   PATT
  POIN2 Label_7_014C2963
// 235   ----------------------------------------
 BYTE   PATT
  POIN2 Label_7_014C2993
// 236   ----------------------------------------
 BYTE   PATT
  POIN2 Label_7_014C2993
// 237   ----------------------------------------
 BYTE   N92  Dn2  v092
 BYTE   W96
// 238   ----------------------------------------
 BYTE   En2
 BYTE   W96
// 239   ----------------------------------------
 BYTE   Fn2
 BYTE   W96
// 240   ----------------------------------------
 BYTE   Dn2
 BYTE   W96
// 241   ----------------------------------------
 BYTE   PATT
  POIN2 Label_7_014C2963
// 242   ----------------------------------------
 BYTE   PATT
  POIN2 Label_7_014C2963
// 243   ----------------------------------------
 BYTE   PATT
  POIN2 Label_7_014C297B
// 244   ----------------------------------------
 BYTE   PATT
  POIN2 Label_7_014C297B
// 245   ----------------------------------------
 BYTE   PATT
  POIN2 Label_7_014C2993
// 246   ----------------------------------------
 BYTE   PATT
  POIN2 Label_7_014C2993
// 247   ----------------------------------------
 BYTE   PATT
  POIN2 Label_7_014C29AB
// 248   ----------------------------------------
 BYTE   PATT
  POIN2 Label_7_014C29AB
// 249   ----------------------------------------
 BYTE   PATT
  POIN2 Label_7_014C2963
// 250   ----------------------------------------
 BYTE   PATT
  POIN2 Label_7_014C2963
// 251   ----------------------------------------
 BYTE   PATT
  POIN2 Label_7_014C2993
// 252   ----------------------------------------
 BYTE   PATT
  POIN2 Label_7_014C2993
// 253   ----------------------------------------
 BYTE   N92  Dn2  v092
 BYTE   W96
// 254   ----------------------------------------
 BYTE   En2
 BYTE   W96
// 255   ----------------------------------------
 BYTE   Fn2
 BYTE   W96
// 256   ----------------------------------------
 BYTE   Fs2
 BYTE   W96
// 257   ----------------------------------------
 BYTE   GoTo
  POIN2 Label_7_014C2835
// 258   ----------------------------------------
 BYTE   W96
// 259   ----------------------------------------
 BYTE   W96
// 260   ----------------------------------------
 BYTE   W96
// 261   ----------------------------------------
 BYTE   W96
// 262   ----------------------------------------
 BYTE   W96
// 263   ----------------------------------------
 BYTE   W96
// 264   ----------------------------------------
 BYTE   W96
// 265   ----------------------------------------
 BYTE   W96
// 266   ----------------------------------------
 BYTE   W92
 BYTE   W03
 BYTE   FINE

//**************** Track 9 (Midi-Chn.8) ****************//

GuiltyGearXDizzysThemeMeatOfJustice_009:
// 000   ----------------------------------------
 BYTE   KEYSH   GuiltyGearXDizzysThemeMeatOfJustice_key+0
 BYTE   VOICE   30
 BYTE   PAN   c_v-7
 BYTE   VOL   45*GuiltyGearXDizzysThemeMeatOfJustice_mvl/mxv
 BYTE   W96
// 001   ----------------------------------------
 BYTE   W96
// 002   ----------------------------------------
 BYTE   W96
// 003   ----------------------------------------
 BYTE   W96
// 004   ----------------------------------------
 BYTE   W96
// 005   ----------------------------------------
 BYTE   W96
// 006   ----------------------------------------
 BYTE   W96
// 007   ----------------------------------------
 BYTE   W96
// 008   ----------------------------------------
 BYTE   W96
// 009   ----------------------------------------
 BYTE   W96
// 010   ----------------------------------------
 BYTE   W96
// 011   ----------------------------------------
 BYTE   W96
// 012   ----------------------------------------
 BYTE   W96
// 013   ----------------------------------------
 BYTE   W96
// 014   ----------------------------------------
 BYTE   W96
// 015   ----------------------------------------
 BYTE   W96
// 016   ----------------------------------------
 BYTE   W96
// 017   ----------------------------------------
Label_8_014C2DD5:
 BYTE   N11  Fn3  v092
 BYTE   W12
 BYTE   An2
 BYTE   W12
 BYTE   Fn3
 BYTE   W12
 BYTE   An2
 BYTE   W12
 BYTE   Gn3
 BYTE   W12
 BYTE   An2
 BYTE   W12
 BYTE   Gn3
 BYTE   W12
 BYTE   An2
 BYTE   W12
 BYTE   PEND 
// 018   ----------------------------------------
Label_8_014C2DE8:
 BYTE   N11  En3  v092
 BYTE   W12
 BYTE   An2
 BYTE   W12
 BYTE   En3
 BYTE   W12
 BYTE   An2
 BYTE   W12
 BYTE   Fn3
 BYTE   W12
 BYTE   An2
 BYTE   W12
 BYTE   Fn3
 BYTE   W12
 BYTE   An2
 BYTE   W12
 BYTE   PEND 
// 019   ----------------------------------------
Label_8_014C2DFB:
 BYTE   N11  Dn3  v092
 BYTE   W12
 BYTE   An2
 BYTE   W12
 BYTE   Dn3
 BYTE   W12
 BYTE   An2
 BYTE   W12
 BYTE   En3
 BYTE   W12
 BYTE   An2
 BYTE   W12
 BYTE   En3
 BYTE   W12
 BYTE   An2
 BYTE   W12
 BYTE   PEND 
// 020   ----------------------------------------
Label_8_014C2E0E:
 BYTE   N11  Cs3  v092
 BYTE   W12
 BYTE   An2
 BYTE   W12
 BYTE   Dn3
 BYTE   W12
 BYTE   An2
 BYTE   W12
 BYTE   En3
 BYTE   W12
 BYTE   An2
 BYTE   W12
 BYTE   Fn3
 BYTE   W12
 BYTE   An2
 BYTE   W12
 BYTE   PEND 
// 021   ----------------------------------------
 BYTE   PATT
  POIN2 Label_8_014C2DD5
// 022   ----------------------------------------
 BYTE   PATT
  POIN2 Label_8_014C2DE8
// 023   ----------------------------------------
 BYTE   PATT
  POIN2 Label_8_014C2DFB
// 024   ----------------------------------------
Label_8_014C2E30:
 BYTE   N11  Cs3  v092
 BYTE   W12
 BYTE   An2
 BYTE   W12
 BYTE   Dn3
 BYTE   W12
 BYTE   An2
 BYTE   W12
 BYTE   As3
 BYTE   W12
 BYTE   An2
 BYTE   W12
 BYTE   An3
 BYTE   W12
 BYTE   An2
 BYTE   W12
 BYTE   PEND 
// 025   ----------------------------------------
 BYTE   PATT
  POIN2 Label_8_014C2DD5
// 026   ----------------------------------------
 BYTE   PATT
  POIN2 Label_8_014C2DE8
// 027   ----------------------------------------
 BYTE   PATT
  POIN2 Label_8_014C2DFB
// 028   ----------------------------------------
 BYTE   PATT
  POIN2 Label_8_014C2E0E
// 029   ----------------------------------------
 BYTE   PATT
  POIN2 Label_8_014C2DD5
// 030   ----------------------------------------
 BYTE   PATT
  POIN2 Label_8_014C2DE8
// 031   ----------------------------------------
 BYTE   PATT
  POIN2 Label_8_014C2DFB
// 032   ----------------------------------------
 BYTE   PATT
  POIN2 Label_8_014C2E30
// 033   ----------------------------------------
 BYTE   PATT
  POIN2 Label_8_014C2DD5
// 034   ----------------------------------------
 BYTE   PATT
  POIN2 Label_8_014C2DE8
// 035   ----------------------------------------
 BYTE   PATT
  POIN2 Label_8_014C2DFB
// 036   ----------------------------------------
 BYTE   PATT
  POIN2 Label_8_014C2E0E
// 037   ----------------------------------------
 BYTE   PATT
  POIN2 Label_8_014C2DD5
// 038   ----------------------------------------
 BYTE   PATT
  POIN2 Label_8_014C2DE8
// 039   ----------------------------------------
 BYTE   PATT
  POIN2 Label_8_014C2DFB
// 040   ----------------------------------------
 BYTE   PATT
  POIN2 Label_8_014C2E30
// 041   ----------------------------------------
Label_8_014C2E93:
 BYTE   N02  En3  v108
 BYTE   N92  Fn3  v092
 BYTE   W96
 BYTE   PEND 
// 042   ----------------------------------------
Label_8_014C2E9B:
 BYTE   N02  Dn3  v108
 BYTE   N44  En3  v092
 BYTE   W48
 BYTE   Gn3
 BYTE   W48
 BYTE   PEND 
// 043   ----------------------------------------
Label_8_014C2EA5:
 BYTE   N02  En3  v108
 BYTE   TIE  Fn3  v092
 BYTE   W96
 BYTE   PEND 
// 044   ----------------------------------------
 BYTE   W92
 BYTE   W03
 BYTE   EOT
 BYTE   W01
// 045   ----------------------------------------
 BYTE   PATT
  POIN2 Label_8_014C2E93
// 046   ----------------------------------------
Label_8_014C2EB6:
 BYTE   N02  Dn3  v108
 BYTE   N32  En3  v092
 BYTE   W36
 BYTE   Fn3
 BYTE   W36
 BYTE   N23  Gn3
 BYTE   W24
 BYTE   PEND 
// 047   ----------------------------------------
Label_8_014C2EC3:
 BYTE   N02  Gn3  v108
 BYTE   N32  An3  v092
 BYTE   W36
 BYTE   As3
 BYTE   W36
 BYTE   N23  An3
 BYTE   W24
 BYTE   PEND 
// 048   ----------------------------------------
 BYTE   N92  En3
 BYTE   W96
// 049   ----------------------------------------
 BYTE   PATT
  POIN2 Label_8_014C2E93
// 050   ----------------------------------------
 BYTE   PATT
  POIN2 Label_8_014C2E9B
// 051   ----------------------------------------
 BYTE   PATT
  POIN2 Label_8_014C2EA5
// 052   ----------------------------------------
 BYTE   W92
 BYTE   W03
 BYTE   EOT
 BYTE   Fn3
 BYTE   W01
// 053   ----------------------------------------
 BYTE   PATT
  POIN2 Label_8_014C2E93
// 054   ----------------------------------------
 BYTE   PATT
  POIN2 Label_8_014C2EB6
// 055   ----------------------------------------
 BYTE   PATT
  POIN2 Label_8_014C2EC3
// 056   ----------------------------------------
 BYTE   N92  Gn3  v092
 BYTE   W96
// 057   ----------------------------------------
 BYTE   W96
// 058   ----------------------------------------
Label_8_014C2EFB:
 BYTE   N44  Fn3  v092
 BYTE   W48
 BYTE   Gn3
 BYTE   W48
 BYTE   PEND 
// 059   ----------------------------------------
Label_8_014C2F02:
 BYTE   N32  Cn3  v092
 BYTE   W36
 BYTE   Dn3
 BYTE   W36
 BYTE   TIE  En3
 BYTE   W24
 BYTE   PEND 
// 060   ----------------------------------------
 BYTE   W92
 BYTE   W03
 BYTE   EOT
 BYTE   W01
// 061   ----------------------------------------
 BYTE   N92  En2
 BYTE   W96
// 062   ----------------------------------------
Label_8_014C2F13:
 BYTE   N44  Gn3  v092
 BYTE   W48
 BYTE   En3
 BYTE   W48
 BYTE   PEND 
// 063   ----------------------------------------
Label_8_014C2F1A:
 BYTE   N32  As2  v092
 BYTE   W36
 BYTE   Cn3
 BYTE   W36
 BYTE   TIE  Dn3
 BYTE   W24
 BYTE   PEND 
// 064   ----------------------------------------
 BYTE   W92
 BYTE   W03
 BYTE   EOT
 BYTE   W01
// 065   ----------------------------------------
 BYTE   TIE  Gn3
 BYTE   W96
// 066   ----------------------------------------
 BYTE   W92
 BYTE   W03
 BYTE   EOT
 BYTE   W01
// 067   ----------------------------------------
 BYTE   N44  En3
 BYTE   W48
 BYTE   Fn3
 BYTE   W48
// 068   ----------------------------------------
Label_8_014C2F34:
 BYTE   N44  Gn3  v092
 BYTE   W48
 BYTE   An3
 BYTE   W48
 BYTE   PEND 
// 069   ----------------------------------------
Label_8_014C2F3B:
 BYTE   N11  Gn2  v092
 BYTE   W12
 BYTE   Dn3
 BYTE   W12
 BYTE   Cs3
 BYTE   W12
 BYTE   Dn3
 BYTE   W12
 BYTE   Gn2
 BYTE   W12
 BYTE   Dn3
 BYTE   W12
 BYTE   Cs3
 BYTE   W12
 BYTE   Dn3
 BYTE   W12
 BYTE   PEND 
// 070   ----------------------------------------
Label_8_014C2F4E:
 BYTE   N11  An2  v092
 BYTE   W12
 BYTE   En3
 BYTE   W12
 BYTE   Dn3
 BYTE   W12
 BYTE   En3
 BYTE   W12
 BYTE   An2
 BYTE   W12
 BYTE   En3
 BYTE   W12
 BYTE   Dn3
 BYTE   W12
 BYTE   En3
 BYTE   W12
 BYTE   PEND 
// 071   ----------------------------------------
Label_8_014C2F61:
 BYTE   N11  Gn3  v092
 BYTE   W12
 BYTE   Fn3
 BYTE   W12
 BYTE   En3
 BYTE   W12
 BYTE   Dn3
 BYTE   W12
 BYTE   Cs3
 BYTE   W12
 BYTE   Dn3
 BYTE   W12
 BYTE   En3
 BYTE   W12
 BYTE   Fn3
 BYTE   W12
 BYTE   PEND 
// 072   ----------------------------------------
Label_8_014C2F74:
 BYTE   N11  Gn3  v092
 BYTE   W12
 BYTE   Fn3
 BYTE   W12
 BYTE   As3
 BYTE   W12
 BYTE   N56  An3
 BYTE   W60
 BYTE   PEND 
// 073   ----------------------------------------
 BYTE   W96
// 074   ----------------------------------------
 BYTE   PATT
  POIN2 Label_8_014C2EFB
// 075   ----------------------------------------
 BYTE   PATT
  POIN2 Label_8_014C2F02
// 076   ----------------------------------------
 BYTE   W92
 BYTE   W03
 BYTE   EOT
 BYTE   En3
 BYTE   W01
// 077   ----------------------------------------
 BYTE   N92  En2  v092
 BYTE   W96
// 078   ----------------------------------------
 BYTE   PATT
  POIN2 Label_8_014C2F13
// 079   ----------------------------------------
 BYTE   PATT
  POIN2 Label_8_014C2F1A
// 080   ----------------------------------------
 BYTE   W92
 BYTE   W03
 BYTE   EOT
 BYTE   Dn3
 BYTE   W01
// 081   ----------------------------------------
 BYTE   TIE  Gn3  v092
 BYTE   W96
// 082   ----------------------------------------
 BYTE   W92
 BYTE   W03
 BYTE   EOT
 BYTE   W01
// 083   ----------------------------------------
 BYTE   N44  En3
 BYTE   W48
 BYTE   Fn3
 BYTE   W48
// 084   ----------------------------------------
 BYTE   PATT
  POIN2 Label_8_014C2F34
// 085   ----------------------------------------
 BYTE   PATT
  POIN2 Label_8_014C2F3B
// 086   ----------------------------------------
 BYTE   PATT
  POIN2 Label_8_014C2F4E
// 087   ----------------------------------------
 BYTE   PATT
  POIN2 Label_8_014C2F61
// 088   ----------------------------------------
Label_8_014C2FC4:
 BYTE   N11  Fs3  v092
 BYTE   W12
 BYTE   Dn3
 BYTE   W12
 BYTE   Fs3
 BYTE   W12
 BYTE   An3
 BYTE   W12
 BYTE   As3
 BYTE   W12
 BYTE   An3
 BYTE   W12
 BYTE   Gn3
 BYTE   W12
 BYTE   Fs3
 BYTE   W12
 BYTE   PEND 
// 089   ----------------------------------------
 BYTE   W96
// 090   ----------------------------------------
 BYTE   W96
// 091   ----------------------------------------
 BYTE   W96
// 092   ----------------------------------------
 BYTE   W96
// 093   ----------------------------------------
 BYTE   W96
// 094   ----------------------------------------
 BYTE   W96
// 095   ----------------------------------------
 BYTE   W96
// 096   ----------------------------------------
 BYTE   W96
// 097   ----------------------------------------
 BYTE   W96
// 098   ----------------------------------------
 BYTE   W96
// 099   ----------------------------------------
 BYTE   W96
// 100   ----------------------------------------
 BYTE   W96
// 101   ----------------------------------------
 BYTE   W96
// 102   ----------------------------------------
 BYTE   W96
// 103   ----------------------------------------
 BYTE   W96
// 104   ----------------------------------------
 BYTE   W96
// 105   ----------------------------------------
 BYTE   W96
// 106   ----------------------------------------
 BYTE   W96
// 107   ----------------------------------------
 BYTE   W96
// 108   ----------------------------------------
 BYTE   W96
// 109   ----------------------------------------
 BYTE   PATT
  POIN2 Label_8_014C2DD5
// 110   ----------------------------------------
 BYTE   PATT
  POIN2 Label_8_014C2DE8
// 111   ----------------------------------------
 BYTE   PATT
  POIN2 Label_8_014C2DFB
// 112   ----------------------------------------
 BYTE   PATT
  POIN2 Label_8_014C2E0E
// 113   ----------------------------------------
 BYTE   PATT
  POIN2 Label_8_014C2DD5
// 114   ----------------------------------------
 BYTE   PATT
  POIN2 Label_8_014C2DE8
// 115   ----------------------------------------
 BYTE   PATT
  POIN2 Label_8_014C2DFB
// 116   ----------------------------------------
 BYTE   PATT
  POIN2 Label_8_014C2E30
// 117   ----------------------------------------
 BYTE   PATT
  POIN2 Label_8_014C2DD5
// 118   ----------------------------------------
 BYTE   PATT
  POIN2 Label_8_014C2DE8
// 119   ----------------------------------------
 BYTE   PATT
  POIN2 Label_8_014C2DFB
// 120   ----------------------------------------
 BYTE   PATT
  POIN2 Label_8_014C2E0E
// 121   ----------------------------------------
 BYTE   PATT
  POIN2 Label_8_014C2DD5
// 122   ----------------------------------------
 BYTE   PATT
  POIN2 Label_8_014C2DE8
// 123   ----------------------------------------
 BYTE   PATT
  POIN2 Label_8_014C2DFB
// 124   ----------------------------------------
 BYTE   PATT
  POIN2 Label_8_014C2E30
// 125   ----------------------------------------
 BYTE   PATT
  POIN2 Label_8_014C2E93
// 126   ----------------------------------------
 BYTE   PATT
  POIN2 Label_8_014C2E9B
// 127   ----------------------------------------
 BYTE   PATT
  POIN2 Label_8_014C2EA5
// 128   ----------------------------------------
 BYTE   W92
 BYTE   W03
 BYTE   EOT
 BYTE   Fn3
 BYTE   W01
// 129   ----------------------------------------
 BYTE   PATT
  POIN2 Label_8_014C2E93
// 130   ----------------------------------------
 BYTE   PATT
  POIN2 Label_8_014C2EB6
// 131   ----------------------------------------
 BYTE   PATT
  POIN2 Label_8_014C2EC3
// 132   ----------------------------------------
 BYTE   N92  En3  v092
 BYTE   W96
// 133   ----------------------------------------
 BYTE   PATT
  POIN2 Label_8_014C2E93
// 134   ----------------------------------------
 BYTE   PATT
  POIN2 Label_8_014C2E9B
// 135   ----------------------------------------
 BYTE   PATT
  POIN2 Label_8_014C2EA5
// 136   ----------------------------------------
 BYTE   W92
 BYTE   W03
 BYTE   EOT
 BYTE   Fn3
 BYTE   W01
// 137   ----------------------------------------
 BYTE   PATT
  POIN2 Label_8_014C2E93
// 138   ----------------------------------------
 BYTE   PATT
  POIN2 Label_8_014C2EB6
// 139   ----------------------------------------
 BYTE   PATT
  POIN2 Label_8_014C2EC3
// 140   ----------------------------------------
 BYTE   N92  Gn3  v092
 BYTE   W96
// 141   ----------------------------------------
 BYTE   W96
// 142   ----------------------------------------
 BYTE   PATT
  POIN2 Label_8_014C2EFB
// 143   ----------------------------------------
 BYTE   PATT
  POIN2 Label_8_014C2F02
// 144   ----------------------------------------
 BYTE   W92
 BYTE   W03
 BYTE   EOT
 BYTE   En3
 BYTE   W01
// 145   ----------------------------------------
 BYTE   N92  En2  v092
 BYTE   W96
// 146   ----------------------------------------
 BYTE   PATT
  POIN2 Label_8_014C2F13
// 147   ----------------------------------------
 BYTE   PATT
  POIN2 Label_8_014C2F1A
// 148   ----------------------------------------
 BYTE   W92
 BYTE   W03
 BYTE   EOT
 BYTE   Dn3
 BYTE   W01
// 149   ----------------------------------------
 BYTE   TIE  Gn3  v092
 BYTE   W96
// 150   ----------------------------------------
 BYTE   W92
 BYTE   W03
 BYTE   EOT
 BYTE   W01
// 151   ----------------------------------------
 BYTE   N44  En3
 BYTE   W48
 BYTE   Fn3
 BYTE   W48
// 152   ----------------------------------------
 BYTE   PATT
  POIN2 Label_8_014C2F34
// 153   ----------------------------------------
 BYTE   PATT
  POIN2 Label_8_014C2F3B
// 154   ----------------------------------------
 BYTE   PATT
  POIN2 Label_8_014C2F4E
// 155   ----------------------------------------
 BYTE   PATT
  POIN2 Label_8_014C2F61
// 156   ----------------------------------------
 BYTE   PATT
  POIN2 Label_8_014C2F74
// 157   ----------------------------------------
 BYTE   W96
// 158   ----------------------------------------
 BYTE   PATT
  POIN2 Label_8_014C2EFB
// 159   ----------------------------------------
 BYTE   PATT
  POIN2 Label_8_014C2F02
// 160   ----------------------------------------
 BYTE   W92
 BYTE   W03
 BYTE   EOT
 BYTE   En3
 BYTE   W01
// 161   ----------------------------------------
 BYTE   N92  En2  v092
 BYTE   W96
// 162   ----------------------------------------
 BYTE   PATT
  POIN2 Label_8_014C2F13
// 163   ----------------------------------------
 BYTE   PATT
  POIN2 Label_8_014C2F1A
// 164   ----------------------------------------
 BYTE   W92
 BYTE   W03
 BYTE   EOT
 BYTE   Dn3
 BYTE   W01
// 165   ----------------------------------------
 BYTE   TIE  Gn3  v092
 BYTE   W96
// 166   ----------------------------------------
 BYTE   W92
 BYTE   W03
 BYTE   EOT
 BYTE   W01
// 167   ----------------------------------------
 BYTE   N44  En3
 BYTE   W48
 BYTE   Fn3
 BYTE   W48
// 168   ----------------------------------------
 BYTE   PATT
  POIN2 Label_8_014C2F34
// 169   ----------------------------------------
 BYTE   PATT
  POIN2 Label_8_014C2F3B
// 170   ----------------------------------------
 BYTE   PATT
  POIN2 Label_8_014C2F4E
// 171   ----------------------------------------
 BYTE   PATT
  POIN2 Label_8_014C2F61
// 172   ----------------------------------------
 BYTE   PATT
  POIN2 Label_8_014C2FC4
// 173   ----------------------------------------
 BYTE   W96
// 174   ----------------------------------------
 BYTE   W96
// 175   ----------------------------------------
 BYTE   W96
// 176   ----------------------------------------
 BYTE   W96
// 177   ----------------------------------------
 BYTE   W96
// 178   ----------------------------------------
 BYTE   W96
// 179   ----------------------------------------
 BYTE   W96
// 180   ----------------------------------------
 BYTE   W96
// 181   ----------------------------------------
 BYTE   W96
// 182   ----------------------------------------
 BYTE   W96
// 183   ----------------------------------------
 BYTE   W96
// 184   ----------------------------------------
 BYTE   W96
// 185   ----------------------------------------
 BYTE   W96
// 186   ----------------------------------------
 BYTE   W96
// 187   ----------------------------------------
 BYTE   W96
// 188   ----------------------------------------
 BYTE   W96
// 189   ----------------------------------------
 BYTE   W96
// 190   ----------------------------------------
 BYTE   W96
// 191   ----------------------------------------
 BYTE   W96
// 192   ----------------------------------------
 BYTE   W96
// 193   ----------------------------------------
 BYTE   PATT
  POIN2 Label_8_014C2DD5
// 194   ----------------------------------------
 BYTE   PATT
  POIN2 Label_8_014C2DE8
// 195   ----------------------------------------
 BYTE   PATT
  POIN2 Label_8_014C2DFB
// 196   ----------------------------------------
 BYTE   PATT
  POIN2 Label_8_014C2E0E
// 197   ----------------------------------------
 BYTE   PATT
  POIN2 Label_8_014C2DD5
// 198   ----------------------------------------
 BYTE   PATT
  POIN2 Label_8_014C2DE8
// 199   ----------------------------------------
 BYTE   PATT
  POIN2 Label_8_014C2DFB
// 200   ----------------------------------------
 BYTE   PATT
  POIN2 Label_8_014C2E30
// 201   ----------------------------------------
 BYTE   PATT
  POIN2 Label_8_014C2DD5
// 202   ----------------------------------------
 BYTE   PATT
  POIN2 Label_8_014C2DE8
// 203   ----------------------------------------
 BYTE   PATT
  POIN2 Label_8_014C2DFB
// 204   ----------------------------------------
 BYTE   PATT
  POIN2 Label_8_014C2E0E
// 205   ----------------------------------------
 BYTE   PATT
  POIN2 Label_8_014C2DD5
// 206   ----------------------------------------
 BYTE   PATT
  POIN2 Label_8_014C2DE8
// 207   ----------------------------------------
 BYTE   PATT
  POIN2 Label_8_014C2DFB
// 208   ----------------------------------------
 BYTE   PATT
  POIN2 Label_8_014C2E30
// 209   ----------------------------------------
 BYTE   PATT
  POIN2 Label_8_014C2E93
// 210   ----------------------------------------
 BYTE   PATT
  POIN2 Label_8_014C2E9B
// 211   ----------------------------------------
 BYTE   PATT
  POIN2 Label_8_014C2EA5
// 212   ----------------------------------------
 BYTE   W92
 BYTE   W03
 BYTE   EOT
 BYTE   Fn3
 BYTE   W01
// 213   ----------------------------------------
 BYTE   PATT
  POIN2 Label_8_014C2E93
// 214   ----------------------------------------
 BYTE   PATT
  POIN2 Label_8_014C2EB6
// 215   ----------------------------------------
 BYTE   PATT
  POIN2 Label_8_014C2EC3
// 216   ----------------------------------------
 BYTE   N92  En3  v092
 BYTE   W96
// 217   ----------------------------------------
 BYTE   PATT
  POIN2 Label_8_014C2E93
// 218   ----------------------------------------
 BYTE   PATT
  POIN2 Label_8_014C2E9B
// 219   ----------------------------------------
 BYTE   PATT
  POIN2 Label_8_014C2EA5
// 220   ----------------------------------------
 BYTE   W92
 BYTE   W03
 BYTE   EOT
 BYTE   Fn3
 BYTE   W01
// 221   ----------------------------------------
 BYTE   PATT
  POIN2 Label_8_014C2E93
// 222   ----------------------------------------
 BYTE   PATT
  POIN2 Label_8_014C2EB6
// 223   ----------------------------------------
 BYTE   PATT
  POIN2 Label_8_014C2EC3
// 224   ----------------------------------------
 BYTE   N92  Gn3  v092
 BYTE   W96
// 225   ----------------------------------------
 BYTE   W96
// 226   ----------------------------------------
 BYTE   PATT
  POIN2 Label_8_014C2EFB
// 227   ----------------------------------------
 BYTE   PATT
  POIN2 Label_8_014C2F02
// 228   ----------------------------------------
 BYTE   W92
 BYTE   W03
 BYTE   EOT
 BYTE   En3
 BYTE   W01
// 229   ----------------------------------------
 BYTE   N92  En2  v092
 BYTE   W96
// 230   ----------------------------------------
 BYTE   PATT
  POIN2 Label_8_014C2F13
// 231   ----------------------------------------
 BYTE   PATT
  POIN2 Label_8_014C2F1A
// 232   ----------------------------------------
 BYTE   W92
 BYTE   W03
 BYTE   EOT
 BYTE   Dn3
 BYTE   W01
// 233   ----------------------------------------
 BYTE   TIE  Gn3  v092
 BYTE   W96
// 234   ----------------------------------------
 BYTE   W92
 BYTE   W03
 BYTE   EOT
 BYTE   W01
// 235   ----------------------------------------
 BYTE   N44  En3
 BYTE   W48
 BYTE   Fn3
 BYTE   W48
// 236   ----------------------------------------
 BYTE   PATT
  POIN2 Label_8_014C2F34
// 237   ----------------------------------------
 BYTE   PATT
  POIN2 Label_8_014C2F3B
// 238   ----------------------------------------
 BYTE   PATT
  POIN2 Label_8_014C2F4E
// 239   ----------------------------------------
 BYTE   PATT
  POIN2 Label_8_014C2F61
// 240   ----------------------------------------
 BYTE   PATT
  POIN2 Label_8_014C2F74
// 241   ----------------------------------------
 BYTE   W96
// 242   ----------------------------------------
 BYTE   PATT
  POIN2 Label_8_014C2EFB
// 243   ----------------------------------------
 BYTE   PATT
  POIN2 Label_8_014C2F02
// 244   ----------------------------------------
 BYTE   W92
 BYTE   W03
 BYTE   EOT
 BYTE   En3
 BYTE   W01
// 245   ----------------------------------------
 BYTE   N92  En2  v092
 BYTE   W96
// 246   ----------------------------------------
 BYTE   PATT
  POIN2 Label_8_014C2F13
// 247   ----------------------------------------
 BYTE   PATT
  POIN2 Label_8_014C2F1A
// 248   ----------------------------------------
 BYTE   W92
 BYTE   W03
 BYTE   EOT
 BYTE   Dn3
 BYTE   W01
// 249   ----------------------------------------
 BYTE   TIE  Gn3  v092
 BYTE   W96
// 250   ----------------------------------------
 BYTE   W92
 BYTE   W03
 BYTE   EOT
 BYTE   W01
// 251   ----------------------------------------
 BYTE   N44  En3
 BYTE   W48
 BYTE   Fn3
 BYTE   W48
// 252   ----------------------------------------
 BYTE   PATT
  POIN2 Label_8_014C2F34
// 253   ----------------------------------------
 BYTE   PATT
  POIN2 Label_8_014C2F3B
// 254   ----------------------------------------
 BYTE   PATT
  POIN2 Label_8_014C2F4E
// 255   ----------------------------------------
 BYTE   PATT
  POIN2 Label_8_014C2F61
// 256   ----------------------------------------
 BYTE   PATT
  POIN2 Label_8_014C2FC4
// 257   ----------------------------------------
 BYTE   GoTo
  POIN2 Label_8_014C2DD5
// 258   ----------------------------------------
 BYTE   W96
// 259   ----------------------------------------
 BYTE   W96
// 260   ----------------------------------------
 BYTE   W96
// 261   ----------------------------------------
 BYTE   W96
// 262   ----------------------------------------
 BYTE   W96
// 263   ----------------------------------------
 BYTE   W96
// 264   ----------------------------------------
 BYTE   W96
// 265   ----------------------------------------
 BYTE   W96
// 266   ----------------------------------------
 BYTE   W92
 BYTE   W03
 BYTE   FINE

//**************** Track 10 (Midi-Chn.9) ****************//

GuiltyGearXDizzysThemeMeatOfJustice_010:
// 000   ----------------------------------------
 BYTE   KEYSH   GuiltyGearXDizzysThemeMeatOfJustice_key+0
 BYTE   VOICE   30
 BYTE   PAN   c_v+21
 BYTE   VOL   40*GuiltyGearXDizzysThemeMeatOfJustice_mvl/mxv
 BYTE   W96
// 001   ----------------------------------------
 BYTE   W96
// 002   ----------------------------------------
 BYTE   W96
// 003   ----------------------------------------
 BYTE   W96
// 004   ----------------------------------------
 BYTE   W96
// 005   ----------------------------------------
 BYTE   W96
// 006   ----------------------------------------
 BYTE   W96
// 007   ----------------------------------------
 BYTE   W96
// 008   ----------------------------------------
 BYTE   W96
// 009   ----------------------------------------
 BYTE   W96
// 010   ----------------------------------------
 BYTE   W96
// 011   ----------------------------------------
 BYTE   W96
// 012   ----------------------------------------
 BYTE   W96
// 013   ----------------------------------------
 BYTE   W96
// 014   ----------------------------------------
 BYTE   W96
// 015   ----------------------------------------
 BYTE   W96
// 016   ----------------------------------------
 BYTE   W96
// 017   ----------------------------------------
Label_9_014C3289:
 BYTE   W96
// 018   ----------------------------------------
 BYTE   W96
// 019   ----------------------------------------
 BYTE   W96
// 020   ----------------------------------------
 BYTE   W96
// 021   ----------------------------------------
Label_9_014C328D:
 BYTE   N11  An3  v092
 BYTE   W12
 BYTE   Dn3
 BYTE   W12
 BYTE   An3
 BYTE   W12
 BYTE   Dn3
 BYTE   W12
 BYTE   As3
 BYTE   W12
 BYTE   Dn3
 BYTE   W12
 BYTE   As3
 BYTE   W12
 BYTE   Dn3
 BYTE   W12
 BYTE   PEND 
// 022   ----------------------------------------
Label_9_014C32A0:
 BYTE   N11  Gn3  v092
 BYTE   W12
 BYTE   Dn3
 BYTE   W12
 BYTE   Gn3
 BYTE   W12
 BYTE   Dn3
 BYTE   W12
 BYTE   An3
 BYTE   W12
 BYTE   Dn3
 BYTE   W12
 BYTE   An3
 BYTE   W12
 BYTE   Dn3
 BYTE   W12
 BYTE   PEND 
// 023   ----------------------------------------
Label_9_014C32B3:
 BYTE   N11  Fn3  v092
 BYTE   W12
 BYTE   Dn3
 BYTE   W12
 BYTE   Fn3
 BYTE   W12
 BYTE   Dn3
 BYTE   W12
 BYTE   Gn3
 BYTE   W12
 BYTE   Dn3
 BYTE   W12
 BYTE   Gn3
 BYTE   W12
 BYTE   Dn3
 BYTE   W12
 BYTE   PEND 
// 024   ----------------------------------------
Label_9_014C32C6:
 BYTE   N11  En3  v092
 BYTE   W12
 BYTE   Dn3
 BYTE   W12
 BYTE   Fn3
 BYTE   W12
 BYTE   Dn3
 BYTE   W12
 BYTE   Dn4
 BYTE   W12
 BYTE   Dn3
 BYTE   W12
 BYTE   Cs4
 BYTE   W12
 BYTE   Dn3
 BYTE   W12
 BYTE   PEND 
// 025   ----------------------------------------
 BYTE   PATT
  POIN2 Label_9_014C328D
// 026   ----------------------------------------
 BYTE   PATT
  POIN2 Label_9_014C32A0
// 027   ----------------------------------------
 BYTE   PATT
  POIN2 Label_9_014C32B3
// 028   ----------------------------------------
Label_9_014C32E8:
 BYTE   N11  En3  v092
 BYTE   W12
 BYTE   Dn3
 BYTE   W12
 BYTE   Fn3
 BYTE   W12
 BYTE   Dn3
 BYTE   W12
 BYTE   Gn3
 BYTE   W12
 BYTE   Dn3
 BYTE   W12
 BYTE   An3
 BYTE   W12
 BYTE   Dn3
 BYTE   W12
 BYTE   PEND 
// 029   ----------------------------------------
 BYTE   PATT
  POIN2 Label_9_014C328D
// 030   ----------------------------------------
 BYTE   PATT
  POIN2 Label_9_014C32A0
// 031   ----------------------------------------
 BYTE   PATT
  POIN2 Label_9_014C32B3
// 032   ----------------------------------------
 BYTE   PATT
  POIN2 Label_9_014C32C6
// 033   ----------------------------------------
 BYTE   PATT
  POIN2 Label_9_014C328D
// 034   ----------------------------------------
 BYTE   PATT
  POIN2 Label_9_014C32A0
// 035   ----------------------------------------
 BYTE   PATT
  POIN2 Label_9_014C32B3
// 036   ----------------------------------------
 BYTE   PATT
  POIN2 Label_9_014C32E8
// 037   ----------------------------------------
 BYTE   PATT
  POIN2 Label_9_014C328D
// 038   ----------------------------------------
 BYTE   PATT
  POIN2 Label_9_014C32A0
// 039   ----------------------------------------
 BYTE   PATT
  POIN2 Label_9_014C32B3
// 040   ----------------------------------------
 BYTE   PATT
  POIN2 Label_9_014C32C6
// 041   ----------------------------------------
 BYTE   N92  Dn3  v092
 BYTE   W96
// 042   ----------------------------------------
 BYTE   Cs3
 BYTE   W96
// 043   ----------------------------------------
Label_9_014C333D:
 BYTE   N72  Dn3  v092
 BYTE   W72
 BYTE   TIE
 BYTE   W12
 BYTE   N11  En3
 BYTE   W12
 BYTE   PEND 
// 044   ----------------------------------------
Label_9_014C3347:
 BYTE   N44  Fn3  v092
 BYTE   W48
 BYTE   Gn3
 BYTE   W44
 BYTE   W03
 BYTE   PEND 
 BYTE   EOT
 BYTE   Dn3
 BYTE   W01
// 045   ----------------------------------------
 BYTE   N92
 BYTE   W96
// 046   ----------------------------------------
Label_9_014C3354:
 BYTE   N32  Cs3  v092
 BYTE   W36
 BYTE   Dn3
 BYTE   W36
 BYTE   N23  En3
 BYTE   W24
 BYTE   PEND 
// 047   ----------------------------------------
Label_9_014C335E:
 BYTE   N32  Fn3  v092
 BYTE   W36
 BYTE   Gn3
 BYTE   W36
 BYTE   N23  Fn3
 BYTE   W24
 BYTE   PEND 
// 048   ----------------------------------------
 BYTE   N92  Cs3
 BYTE   W96
// 049   ----------------------------------------
 BYTE   Dn3
 BYTE   W96
// 050   ----------------------------------------
 BYTE   Cs3
 BYTE   W96
// 051   ----------------------------------------
 BYTE   PATT
  POIN2 Label_9_014C333D
// 052   ----------------------------------------
 BYTE   PATT
  POIN2 Label_9_014C3347
// 053   ----------------------------------------
 BYTE   EOT
 BYTE   Dn3
 BYTE   W01
 BYTE   N92  Dn3  v092
 BYTE   W96
// 054   ----------------------------------------
 BYTE   PATT
  POIN2 Label_9_014C3354
// 055   ----------------------------------------
 BYTE   PATT
  POIN2 Label_9_014C335E
// 056   ----------------------------------------
 BYTE   N92  En3  v092
 BYTE   W96
// 057   ----------------------------------------
 BYTE   W96
// 058   ----------------------------------------
 BYTE   W48
 BYTE   N44  Dn3
 BYTE   W48
// 059   ----------------------------------------
Label_9_014C3393:
 BYTE   N32  Gn2  v092
 BYTE   W36
 BYTE   N32
 BYTE   W36
 BYTE   TIE  Cn3
 BYTE   W24
 BYTE   PEND 
// 060   ----------------------------------------
Label_9_014C339D:
 BYTE   N32  Cn4  v092
 BYTE   W36
 BYTE   As3
 BYTE   W36
 BYTE   N23  An3
 BYTE   W23
 BYTE   PEND 
 BYTE   EOT
 BYTE   Cn3
 BYTE   W01
// 061   ----------------------------------------
 BYTE   N92  An2
 BYTE   W96
// 062   ----------------------------------------
Label_9_014C33AD:
 BYTE   N44  An2  v092
 BYTE   W48
 BYTE   Cn3
 BYTE   W48
 BYTE   PEND 
// 063   ----------------------------------------
Label_9_014C33B4:
 BYTE   N32  Gn2  v092
 BYTE   W36
 BYTE   An2
 BYTE   W36
 BYTE   TIE  As2
 BYTE   W24
 BYTE   PEND 
// 064   ----------------------------------------
 BYTE   W92
 BYTE   W03
 BYTE   EOT
 BYTE   W01
// 065   ----------------------------------------
 BYTE   TIE  Gn2
 BYTE   W96
// 066   ----------------------------------------
 BYTE   W92
 BYTE   W03
 BYTE   EOT
 BYTE   W01
// 067   ----------------------------------------
 BYTE   TIE  An2
 BYTE   W96
// 068   ----------------------------------------
 BYTE   W92
 BYTE   W03
 BYTE   EOT
 BYTE   W01
// 069   ----------------------------------------
 BYTE   N92
 BYTE   W96
// 070   ----------------------------------------
 BYTE   Bn2
 BYTE   W96
// 071   ----------------------------------------
 BYTE   Cn3
 BYTE   W96
// 072   ----------------------------------------
 BYTE   An2
 BYTE   W96
// 073   ----------------------------------------
 BYTE   W96
// 074   ----------------------------------------
 BYTE   W48
 BYTE   N44  Dn3
 BYTE   W48
// 075   ----------------------------------------
 BYTE   PATT
  POIN2 Label_9_014C3393
// 076   ----------------------------------------
 BYTE   PATT
  POIN2 Label_9_014C339D
// 077   ----------------------------------------
 BYTE   EOT
 BYTE   Cn3
 BYTE   W01
 BYTE   N92  An2  v092
 BYTE   W96
// 078   ----------------------------------------
 BYTE   PATT
  POIN2 Label_9_014C33AD
// 079   ----------------------------------------
 BYTE   PATT
  POIN2 Label_9_014C33B4
// 080   ----------------------------------------
 BYTE   W92
 BYTE   W03
 BYTE   EOT
 BYTE   As2
 BYTE   W01
// 081   ----------------------------------------
 BYTE   TIE  Gn2  v092
 BYTE   W96
// 082   ----------------------------------------
 BYTE   W92
 BYTE   W03
 BYTE   EOT
 BYTE   W01
// 083   ----------------------------------------
 BYTE   TIE  An2
 BYTE   W96
// 084   ----------------------------------------
 BYTE   W92
 BYTE   W03
 BYTE   EOT
 BYTE   W01
// 085   ----------------------------------------
 BYTE   N92
 BYTE   W96
// 086   ----------------------------------------
 BYTE   Bn2
 BYTE   W96
// 087   ----------------------------------------
 BYTE   Cn3
 BYTE   W96
// 088   ----------------------------------------
 BYTE   An2
 BYTE   W96
// 089   ----------------------------------------
 BYTE   W96
// 090   ----------------------------------------
 BYTE   W96
// 091   ----------------------------------------
 BYTE   W96
// 092   ----------------------------------------
 BYTE   W96
// 093   ----------------------------------------
Label_9_014C3418:
 BYTE   N23  Dn2  v092
 BYTE   W24
 BYTE   N05
 BYTE   W12
 BYTE   N05
 BYTE   W12
 BYTE   N05
 BYTE   W12
 BYTE   N05
 BYTE   W12
 BYTE   N05
 BYTE   W12
 BYTE   N05
 BYTE   W12
 BYTE   PEND 
// 094   ----------------------------------------
Label_9_014C3429:
 BYTE   N05  Dn2  v092
 BYTE   W12
 BYTE   N05
 BYTE   W12
 BYTE   N05
 BYTE   W12
 BYTE   N05
 BYTE   W12
 BYTE   N05
 BYTE   W12
 BYTE   N05
 BYTE   W12
 BYTE   N05
 BYTE   W12
 BYTE   N05
 BYTE   W12
 BYTE   PEND 
// 095   ----------------------------------------
Label_9_014C343C:
 BYTE   N23  En2  v092
 BYTE   W24
 BYTE   N05
 BYTE   W12
 BYTE   N05
 BYTE   W12
 BYTE   N05
 BYTE   W12
 BYTE   N05
 BYTE   W12
 BYTE   N05
 BYTE   W12
 BYTE   N05
 BYTE   W12
 BYTE   PEND 
// 096   ----------------------------------------
Label_9_014C344D:
 BYTE   N05  En2  v092
 BYTE   W12
 BYTE   N05
 BYTE   W12
 BYTE   N05
 BYTE   W12
 BYTE   N05
 BYTE   W12
 BYTE   N05
 BYTE   W12
 BYTE   N05
 BYTE   W12
 BYTE   N05
 BYTE   W12
 BYTE   N05
 BYTE   W12
 BYTE   PEND 
// 097   ----------------------------------------
Label_9_014C3460:
 BYTE   N23  Fs2  v092
 BYTE   W24
 BYTE   N05
 BYTE   W12
 BYTE   N05
 BYTE   W12
 BYTE   N05
 BYTE   W12
 BYTE   N05
 BYTE   W12
 BYTE   N05
 BYTE   W12
 BYTE   N05
 BYTE   W12
 BYTE   PEND 
// 098   ----------------------------------------
Label_9_014C3471:
 BYTE   N05  Fs2  v092
 BYTE   W12
 BYTE   N05
 BYTE   W12
 BYTE   N05
 BYTE   W12
 BYTE   N05
 BYTE   W12
 BYTE   N05
 BYTE   W12
 BYTE   N05
 BYTE   W12
 BYTE   N05
 BYTE   W12
 BYTE   N05
 BYTE   W12
 BYTE   PEND 
// 099   ----------------------------------------
Label_9_014C3484:
 BYTE   N23  Gn2  v092
 BYTE   W24
 BYTE   N05
 BYTE   W12
 BYTE   N05
 BYTE   W12
 BYTE   N05
 BYTE   W12
 BYTE   N05
 BYTE   W12
 BYTE   N05
 BYTE   W12
 BYTE   N05
 BYTE   W12
 BYTE   PEND 
// 100   ----------------------------------------
Label_9_014C3495:
 BYTE   N44  Gn2  v092
 BYTE   W48
 BYTE   Fn2
 BYTE   W48
 BYTE   PEND 
// 101   ----------------------------------------
 BYTE   PATT
  POIN2 Label_9_014C343C
// 102   ----------------------------------------
Label_9_014C34A1:
 BYTE   N05  An2  v092
 BYTE   W12
 BYTE   N05
 BYTE   W12
 BYTE   N05
 BYTE   W12
 BYTE   N05
 BYTE   W12
 BYTE   N05
 BYTE   W12
 BYTE   N05
 BYTE   W12
 BYTE   N05
 BYTE   W12
 BYTE   N05
 BYTE   W12
 BYTE   PEND 
// 103   ----------------------------------------
Label_9_014C34B4:
 BYTE   N05  Dn2  v092
 BYTE   W12
 BYTE   N05
 BYTE   W12
 BYTE   N05
 BYTE   W12
 BYTE   N05
 BYTE   W12
 BYTE   En2
 BYTE   W12
 BYTE   N05
 BYTE   W12
 BYTE   N05
 BYTE   W12
 BYTE   N05
 BYTE   W12
 BYTE   PEND 
// 104   ----------------------------------------
Label_9_014C34C7:
 BYTE   N05  Fn2  v092
 BYTE   W12
 BYTE   N05
 BYTE   W12
 BYTE   N05
 BYTE   W12
 BYTE   N05
 BYTE   W12
 BYTE   Fs2
 BYTE   W12
 BYTE   N05
 BYTE   W12
 BYTE   N05
 BYTE   W12
 BYTE   N05
 BYTE   W12
 BYTE   PEND 
// 105   ----------------------------------------
 BYTE   PATT
  POIN2 Label_9_014C3484
// 106   ----------------------------------------
Label_9_014C34DF:
 BYTE   N23  Gs2  v092
 BYTE   W24
 BYTE   N05
 BYTE   W12
 BYTE   N05
 BYTE   W12
 BYTE   N05
 BYTE   W12
 BYTE   N05
 BYTE   W12
 BYTE   N05
 BYTE   W12
 BYTE   N05
 BYTE   W12
 BYTE   PEND 
// 107   ----------------------------------------
Label_9_014C34F0:
 BYTE   N23  An2  v092
 BYTE   W24
 BYTE   N05
 BYTE   W12
 BYTE   N05
 BYTE   W12
 BYTE   N05
 BYTE   W12
 BYTE   N05
 BYTE   W12
 BYTE   N05
 BYTE   W12
 BYTE   N05
 BYTE   W12
 BYTE   PEND 
// 108   ----------------------------------------
Label_9_014C3501:
 BYTE   N05  An2  v092
 BYTE   W12
 BYTE   N05
 BYTE   W12
 BYTE   N05
 BYTE   W12
 BYTE   N05
 BYTE   W12
 BYTE   N44  Cs3
 BYTE   W48
 BYTE   PEND 
// 109   ----------------------------------------
 BYTE   PATT
  POIN2 Label_9_014C328D
// 110   ----------------------------------------
 BYTE   PATT
  POIN2 Label_9_014C32A0
// 111   ----------------------------------------
 BYTE   PATT
  POIN2 Label_9_014C32B3
// 112   ----------------------------------------
 BYTE   PATT
  POIN2 Label_9_014C32E8
// 113   ----------------------------------------
 BYTE   PATT
  POIN2 Label_9_014C328D
// 114   ----------------------------------------
 BYTE   PATT
  POIN2 Label_9_014C32A0
// 115   ----------------------------------------
 BYTE   PATT
  POIN2 Label_9_014C32B3
// 116   ----------------------------------------
 BYTE   PATT
  POIN2 Label_9_014C32C6
// 117   ----------------------------------------
 BYTE   PATT
  POIN2 Label_9_014C328D
// 118   ----------------------------------------
 BYTE   PATT
  POIN2 Label_9_014C32A0
// 119   ----------------------------------------
 BYTE   PATT
  POIN2 Label_9_014C32B3
// 120   ----------------------------------------
 BYTE   PATT
  POIN2 Label_9_014C32E8
// 121   ----------------------------------------
 BYTE   PATT
  POIN2 Label_9_014C328D
// 122   ----------------------------------------
 BYTE   PATT
  POIN2 Label_9_014C32A0
// 123   ----------------------------------------
 BYTE   PATT
  POIN2 Label_9_014C32B3
// 124   ----------------------------------------
 BYTE   PATT
  POIN2 Label_9_014C32C6
// 125   ----------------------------------------
 BYTE   N92  Dn3  v092
 BYTE   W96
// 126   ----------------------------------------
 BYTE   Cs3
 BYTE   W96
// 127   ----------------------------------------
 BYTE   PATT
  POIN2 Label_9_014C333D
// 128   ----------------------------------------
 BYTE   PATT
  POIN2 Label_9_014C3347
// 129   ----------------------------------------
 BYTE   EOT
 BYTE   Dn3
 BYTE   W01
 BYTE   N92  Dn3  v092
 BYTE   W96
// 130   ----------------------------------------
 BYTE   PATT
  POIN2 Label_9_014C3354
// 131   ----------------------------------------
 BYTE   PATT
  POIN2 Label_9_014C335E
// 132   ----------------------------------------
 BYTE   N92  Cs3  v092
 BYTE   W96
// 133   ----------------------------------------
 BYTE   Dn3
 BYTE   W96
// 134   ----------------------------------------
 BYTE   Cs3
 BYTE   W96
// 135   ----------------------------------------
 BYTE   PATT
  POIN2 Label_9_014C333D
// 136   ----------------------------------------
 BYTE   PATT
  POIN2 Label_9_014C3347
// 137   ----------------------------------------
 BYTE   EOT
 BYTE   Dn3
 BYTE   W01
 BYTE   N92  Dn3  v092
 BYTE   W96
// 138   ----------------------------------------
 BYTE   PATT
  POIN2 Label_9_014C3354
// 139   ----------------------------------------
 BYTE   PATT
  POIN2 Label_9_014C335E
// 140   ----------------------------------------
 BYTE   N92  En3  v092
 BYTE   W96
// 141   ----------------------------------------
 BYTE   W96
// 142   ----------------------------------------
 BYTE   W48
 BYTE   N44  Dn3
 BYTE   W48
// 143   ----------------------------------------
 BYTE   PATT
  POIN2 Label_9_014C3393
// 144   ----------------------------------------
 BYTE   PATT
  POIN2 Label_9_014C339D
// 145   ----------------------------------------
 BYTE   EOT
 BYTE   Cn3
 BYTE   W01
 BYTE   N92  An2  v092
 BYTE   W96
// 146   ----------------------------------------
 BYTE   PATT
  POIN2 Label_9_014C33AD
// 147   ----------------------------------------
 BYTE   PATT
  POIN2 Label_9_014C33B4
// 148   ----------------------------------------
 BYTE   W92
 BYTE   W03
 BYTE   EOT
 BYTE   As2
 BYTE   W01
// 149   ----------------------------------------
 BYTE   TIE  Gn2  v092
 BYTE   W96
// 150   ----------------------------------------
 BYTE   W92
 BYTE   W03
 BYTE   EOT
 BYTE   W01
// 151   ----------------------------------------
 BYTE   TIE  An2
 BYTE   W96
// 152   ----------------------------------------
 BYTE   W92
 BYTE   W03
 BYTE   EOT
 BYTE   W01
// 153   ----------------------------------------
 BYTE   N92
 BYTE   W96
// 154   ----------------------------------------
 BYTE   Bn2
 BYTE   W96
// 155   ----------------------------------------
 BYTE   Cn3
 BYTE   W96
// 156   ----------------------------------------
 BYTE   An2
 BYTE   W96
// 157   ----------------------------------------
 BYTE   W96
// 158   ----------------------------------------
 BYTE   W48
 BYTE   N44  Dn3
 BYTE   W48
// 159   ----------------------------------------
 BYTE   PATT
  POIN2 Label_9_014C3393
// 160   ----------------------------------------
 BYTE   PATT
  POIN2 Label_9_014C339D
// 161   ----------------------------------------
 BYTE   EOT
 BYTE   Cn3
 BYTE   W01
 BYTE   N92  An2  v092
 BYTE   W96
// 162   ----------------------------------------
 BYTE   PATT
  POIN2 Label_9_014C33AD
// 163   ----------------------------------------
 BYTE   PATT
  POIN2 Label_9_014C33B4
// 164   ----------------------------------------
 BYTE   W92
 BYTE   W03
 BYTE   EOT
 BYTE   As2
 BYTE   W01
// 165   ----------------------------------------
 BYTE   TIE  Gn2  v092
 BYTE   W96
// 166   ----------------------------------------
 BYTE   W92
 BYTE   W03
 BYTE   EOT
 BYTE   W01
// 167   ----------------------------------------
 BYTE   TIE  An2
 BYTE   W96
// 168   ----------------------------------------
 BYTE   W92
 BYTE   W03
 BYTE   EOT
 BYTE   W01
// 169   ----------------------------------------
 BYTE   N92
 BYTE   W96
// 170   ----------------------------------------
 BYTE   Bn2
 BYTE   W96
// 171   ----------------------------------------
 BYTE   Cn3
 BYTE   W96
// 172   ----------------------------------------
 BYTE   An2
 BYTE   W96
// 173   ----------------------------------------
 BYTE   W96
// 174   ----------------------------------------
 BYTE   W96
// 175   ----------------------------------------
 BYTE   W96
// 176   ----------------------------------------
 BYTE   W96
// 177   ----------------------------------------
 BYTE   PATT
  POIN2 Label_9_014C3418
// 178   ----------------------------------------
 BYTE   PATT
  POIN2 Label_9_014C3429
// 179   ----------------------------------------
 BYTE   PATT
  POIN2 Label_9_014C343C
// 180   ----------------------------------------
 BYTE   PATT
  POIN2 Label_9_014C344D
// 181   ----------------------------------------
 BYTE   PATT
  POIN2 Label_9_014C3460
// 182   ----------------------------------------
 BYTE   PATT
  POIN2 Label_9_014C3471
// 183   ----------------------------------------
 BYTE   PATT
  POIN2 Label_9_014C3484
// 184   ----------------------------------------
 BYTE   PATT
  POIN2 Label_9_014C3495
// 185   ----------------------------------------
 BYTE   PATT
  POIN2 Label_9_014C343C
// 186   ----------------------------------------
 BYTE   PATT
  POIN2 Label_9_014C34A1
// 187   ----------------------------------------
 BYTE   PATT
  POIN2 Label_9_014C34B4
// 188   ----------------------------------------
 BYTE   PATT
  POIN2 Label_9_014C34C7
// 189   ----------------------------------------
 BYTE   PATT
  POIN2 Label_9_014C3484
// 190   ----------------------------------------
 BYTE   PATT
  POIN2 Label_9_014C34DF
// 191   ----------------------------------------
 BYTE   PATT
  POIN2 Label_9_014C34F0
// 192   ----------------------------------------
 BYTE   PATT
  POIN2 Label_9_014C3501
// 193   ----------------------------------------
 BYTE   PATT
  POIN2 Label_9_014C328D
// 194   ----------------------------------------
 BYTE   PATT
  POIN2 Label_9_014C32A0
// 195   ----------------------------------------
 BYTE   PATT
  POIN2 Label_9_014C32B3
// 196   ----------------------------------------
 BYTE   PATT
  POIN2 Label_9_014C32E8
// 197   ----------------------------------------
 BYTE   PATT
  POIN2 Label_9_014C328D
// 198   ----------------------------------------
 BYTE   PATT
  POIN2 Label_9_014C32A0
// 199   ----------------------------------------
 BYTE   PATT
  POIN2 Label_9_014C32B3
// 200   ----------------------------------------
 BYTE   PATT
  POIN2 Label_9_014C32C6
// 201   ----------------------------------------
 BYTE   PATT
  POIN2 Label_9_014C328D
// 202   ----------------------------------------
 BYTE   PATT
  POIN2 Label_9_014C32A0
// 203   ----------------------------------------
 BYTE   PATT
  POIN2 Label_9_014C32B3
// 204   ----------------------------------------
 BYTE   PATT
  POIN2 Label_9_014C32E8
// 205   ----------------------------------------
 BYTE   PATT
  POIN2 Label_9_014C328D
// 206   ----------------------------------------
 BYTE   PATT
  POIN2 Label_9_014C32A0
// 207   ----------------------------------------
 BYTE   PATT
  POIN2 Label_9_014C32B3
// 208   ----------------------------------------
 BYTE   PATT
  POIN2 Label_9_014C32C6
// 209   ----------------------------------------
 BYTE   N92  Dn3  v092
 BYTE   W96
// 210   ----------------------------------------
 BYTE   Cs3
 BYTE   W96
// 211   ----------------------------------------
 BYTE   PATT
  POIN2 Label_9_014C333D
// 212   ----------------------------------------
 BYTE   PATT
  POIN2 Label_9_014C3347
// 213   ----------------------------------------
 BYTE   EOT
 BYTE   Dn3
 BYTE   W01
 BYTE   N92  Dn3  v092
 BYTE   W96
// 214   ----------------------------------------
 BYTE   PATT
  POIN2 Label_9_014C3354
// 215   ----------------------------------------
 BYTE   PATT
  POIN2 Label_9_014C335E
// 216   ----------------------------------------
 BYTE   N92  Cs3  v092
 BYTE   W96
// 217   ----------------------------------------
 BYTE   Dn3
 BYTE   W96
// 218   ----------------------------------------
 BYTE   Cs3
 BYTE   W96
// 219   ----------------------------------------
 BYTE   PATT
  POIN2 Label_9_014C333D
// 220   ----------------------------------------
 BYTE   PATT
  POIN2 Label_9_014C3347
// 221   ----------------------------------------
 BYTE   EOT
 BYTE   Dn3
 BYTE   W01
 BYTE   N92  Dn3  v092
 BYTE   W96
// 222   ----------------------------------------
 BYTE   PATT
  POIN2 Label_9_014C3354
// 223   ----------------------------------------
 BYTE   PATT
  POIN2 Label_9_014C335E
// 224   ----------------------------------------
 BYTE   N92  En3  v092
 BYTE   W96
// 225   ----------------------------------------
 BYTE   W96
// 226   ----------------------------------------
 BYTE   W48
 BYTE   N44  Dn3
 BYTE   W48
// 227   ----------------------------------------
 BYTE   PATT
  POIN2 Label_9_014C3393
// 228   ----------------------------------------
 BYTE   PATT
  POIN2 Label_9_014C339D
// 229   ----------------------------------------
 BYTE   EOT
 BYTE   Cn3
 BYTE   W01
 BYTE   N92  An2  v092
 BYTE   W96
// 230   ----------------------------------------
 BYTE   PATT
  POIN2 Label_9_014C33AD
// 231   ----------------------------------------
 BYTE   PATT
  POIN2 Label_9_014C33B4
// 232   ----------------------------------------
 BYTE   W92
 BYTE   W03
 BYTE   EOT
 BYTE   As2
 BYTE   W01
// 233   ----------------------------------------
 BYTE   TIE  Gn2  v092
 BYTE   W96
// 234   ----------------------------------------
 BYTE   W92
 BYTE   W03
 BYTE   EOT
 BYTE   W01
// 235   ----------------------------------------
 BYTE   TIE  An2
 BYTE   W96
// 236   ----------------------------------------
 BYTE   W92
 BYTE   W03
 BYTE   EOT
 BYTE   W01
// 237   ----------------------------------------
 BYTE   N92
 BYTE   W96
// 238   ----------------------------------------
 BYTE   Bn2
 BYTE   W96
// 239   ----------------------------------------
 BYTE   Cn3
 BYTE   W96
// 240   ----------------------------------------
 BYTE   An2
 BYTE   W96
// 241   ----------------------------------------
 BYTE   W96
// 242   ----------------------------------------
 BYTE   W48
 BYTE   N44  Dn3
 BYTE   W48
// 243   ----------------------------------------
 BYTE   PATT
  POIN2 Label_9_014C3393
// 244   ----------------------------------------
 BYTE   PATT
  POIN2 Label_9_014C339D
// 245   ----------------------------------------
 BYTE   EOT
 BYTE   Cn3
 BYTE   W01
 BYTE   N92  An2  v092
 BYTE   W96
// 246   ----------------------------------------
 BYTE   PATT
  POIN2 Label_9_014C33AD
// 247   ----------------------------------------
 BYTE   PATT
  POIN2 Label_9_014C33B4
// 248   ----------------------------------------
 BYTE   W92
 BYTE   W03
 BYTE   EOT
 BYTE   As2
 BYTE   W01
// 249   ----------------------------------------
 BYTE   TIE  Gn2  v092
 BYTE   W96
// 250   ----------------------------------------
 BYTE   W92
 BYTE   W03
 BYTE   EOT
 BYTE   W01
// 251   ----------------------------------------
 BYTE   TIE  An2
 BYTE   W96
// 252   ----------------------------------------
 BYTE   W92
 BYTE   W03
 BYTE   EOT
 BYTE   W01
// 253   ----------------------------------------
 BYTE   N92
 BYTE   W96
// 254   ----------------------------------------
 BYTE   Bn2
 BYTE   W96
// 255   ----------------------------------------
 BYTE   Cn3
 BYTE   W96
// 256   ----------------------------------------
 BYTE   An2
 BYTE   W96
// 257   ----------------------------------------
 BYTE   GoTo
  POIN2 Label_9_014C3289
// 258   ----------------------------------------
 BYTE   W96
// 259   ----------------------------------------
 BYTE   W96
// 260   ----------------------------------------
 BYTE   W96
// 261   ----------------------------------------
 BYTE   W96
// 262   ----------------------------------------
 BYTE   W96
// 263   ----------------------------------------
 BYTE   W96
// 264   ----------------------------------------
 BYTE   W96
// 265   ----------------------------------------
 BYTE   W96
// 266   ----------------------------------------
 BYTE   W92
 BYTE   W03
 BYTE   FINE

//**************** Track 11 (Midi-Chn.10) ****************//

GuiltyGearXDizzysThemeMeatOfJustice_011:
// 000   ----------------------------------------
 BYTE   KEYSH   GuiltyGearXDizzysThemeMeatOfJustice_key+0
 BYTE   VOICE   48
 BYTE   PAN   c_v+6
 BYTE   VOL   37*GuiltyGearXDizzysThemeMeatOfJustice_mvl/mxv
 BYTE   W96
// 001   ----------------------------------------
 BYTE   W96
// 002   ----------------------------------------
 BYTE   W96
// 003   ----------------------------------------
 BYTE   W96
// 004   ----------------------------------------
 BYTE   W96
// 005   ----------------------------------------
 BYTE   W96
// 006   ----------------------------------------
 BYTE   W96
// 007   ----------------------------------------
 BYTE   W96
// 008   ----------------------------------------
 BYTE   W96
// 009   ----------------------------------------
 BYTE   W96
// 010   ----------------------------------------
 BYTE   W96
// 011   ----------------------------------------
 BYTE   W96
// 012   ----------------------------------------
 BYTE   W96
// 013   ----------------------------------------
 BYTE   W96
// 014   ----------------------------------------
 BYTE   W96
// 015   ----------------------------------------
 BYTE   W96
// 016   ----------------------------------------
 BYTE   W96
// 017   ----------------------------------------
Label_10_014C37AD:
 BYTE   TIE  Dn3  v092
 BYTE   TIE  Dn4
 BYTE   W96
 BYTE   PEND 
// 018   ----------------------------------------
 BYTE   W96
// 019   ----------------------------------------
 BYTE   W96
// 020   ----------------------------------------
 BYTE   W92
 BYTE   W03
 BYTE   EOT
 BYTE   Dn3  v074
 BYTE   W01
// 021   ----------------------------------------
 BYTE   W96
// 022   ----------------------------------------
 BYTE   W96
// 023   ----------------------------------------
 BYTE   W96
// 024   ----------------------------------------
 BYTE   W96
// 025   ----------------------------------------
 BYTE   W96
// 026   ----------------------------------------
 BYTE   W96
// 027   ----------------------------------------
 BYTE   W96
// 028   ----------------------------------------
 BYTE   W96
// 029   ----------------------------------------
 BYTE   W96
// 030   ----------------------------------------
 BYTE   W96
// 031   ----------------------------------------
 BYTE   W96
// 032   ----------------------------------------
 BYTE   W96
// 033   ----------------------------------------
 BYTE   W96
// 034   ----------------------------------------
 BYTE   W96
// 035   ----------------------------------------
 BYTE   W96
// 036   ----------------------------------------
 BYTE   W96
// 037   ----------------------------------------
 BYTE   W96
// 038   ----------------------------------------
 BYTE   W96
// 039   ----------------------------------------
 BYTE   W96
// 040   ----------------------------------------
 BYTE   W96
// 041   ----------------------------------------
 BYTE   PATT
  POIN2 Label_10_014C37AD
// 042   ----------------------------------------
 BYTE   W92
 BYTE   W03
 BYTE   EOT
 BYTE   Dn3  v074
 BYTE   W01
// 043   ----------------------------------------
Label_10_014C37DB:
 BYTE   TIE  Fn3  v092
 BYTE   TIE  Fn4
 BYTE   W96
 BYTE   PEND 
// 044   ----------------------------------------
 BYTE   W92
 BYTE   W03
 BYTE   EOT
 BYTE   Fn3  v077
 BYTE   W01
// 045   ----------------------------------------
 BYTE   PATT
  POIN2 Label_10_014C37AD
// 046   ----------------------------------------
 BYTE   W92
 BYTE   W03
 BYTE   EOT
 BYTE   Dn3  v074
 BYTE   W01
// 047   ----------------------------------------
 BYTE   N92  Fn3  v092
 BYTE   N92  Fn4
 BYTE   W96
// 048   ----------------------------------------
 BYTE   An3
 BYTE   N92  An4
 BYTE   W96
// 049   ----------------------------------------
 BYTE   PATT
  POIN2 Label_10_014C37AD
// 050   ----------------------------------------
 BYTE   W92
 BYTE   W03
 BYTE   EOT
 BYTE   Dn3  v074
 BYTE   W01
// 051   ----------------------------------------
 BYTE   PATT
  POIN2 Label_10_014C37DB
// 052   ----------------------------------------
 BYTE   W92
 BYTE   W03
 BYTE   EOT
 BYTE   Fn3  v077
 BYTE   W01
// 053   ----------------------------------------
 BYTE   N92  As3  v092
 BYTE   N92  As4
 BYTE   W96
// 054   ----------------------------------------
 BYTE   Cs4
 BYTE   N92  Cs5
 BYTE   W96
// 055   ----------------------------------------
 BYTE   Dn4
 BYTE   N92  Dn5
 BYTE   W96
// 056   ----------------------------------------
 BYTE   En4
 BYTE   N92  En5
 BYTE   W96
// 057   ----------------------------------------
Label_10_014C3825:
 BYTE   N92  As3  v092
 BYTE   N92  Dn4
 BYTE   N92  As4
 BYTE   W96
 BYTE   PEND 
// 058   ----------------------------------------
Label_10_014C382E:
 BYTE   N92  Cn4  v092
 BYTE   N92  Fn4
 BYTE   N92  Cn5
 BYTE   W96
 BYTE   PEND 
// 059   ----------------------------------------
Label_10_014C3837:
 BYTE   TIE  En4  v092
 BYTE   TIE  Cn5
 BYTE   TIE  En5
 BYTE   W96
 BYTE   PEND 
// 060   ----------------------------------------
 BYTE   W92
 BYTE   W03
 BYTE   EOT
 BYTE   En4  v084
 BYTE   En5
 BYTE   W01
// 061   ----------------------------------------
Label_10_014C3847:
 BYTE   N92  An3  v092
 BYTE   N92  En4
 BYTE   N92  An4
 BYTE   W96
 BYTE   PEND 
// 062   ----------------------------------------
Label_10_014C3850:
 BYTE   N92  Cn4  v092
 BYTE   N92  Gn4
 BYTE   N92  Cn5
 BYTE   W96
 BYTE   PEND 
// 063   ----------------------------------------
Label_10_014C3859:
 BYTE   TIE  Dn4  v092
 BYTE   TIE  As4
 BYTE   TIE  Dn5
 BYTE   W96
 BYTE   PEND 
// 064   ----------------------------------------
 BYTE   W92
 BYTE   W03
 BYTE   EOT
 BYTE   Dn4  v082
 BYTE   Dn5
 BYTE   W01
// 065   ----------------------------------------
Label_10_014C3869:
 BYTE   TIE  Gn3  v092
 BYTE   TIE  Dn4
 BYTE   TIE  Gn4
 BYTE   W96
 BYTE   PEND 
// 066   ----------------------------------------
 BYTE   W92
 BYTE   W03
 BYTE   EOT
 BYTE   Gn3  v074
 BYTE   Gn4
 BYTE   W01
// 067   ----------------------------------------
Label_10_014C3879:
 BYTE   TIE  Cs4  v092
 BYTE   TIE  En4
 BYTE   TIE  An4
 BYTE   TIE  Cs5
 BYTE   W96
 BYTE   PEND 
// 068   ----------------------------------------
 BYTE   W92
 BYTE   W03
 BYTE   EOT
 BYTE   Cs4  v076
 BYTE   An4  v085
 BYTE   W01
// 069   ----------------------------------------
Label_10_014C388C:
 BYTE   N92  An3  v092
 BYTE   N92  Dn4
 BYTE   N92  Dn5
 BYTE   W96
 BYTE   PEND 
// 070   ----------------------------------------
Label_10_014C3895:
 BYTE   N92  An3  v092
 BYTE   N92  En4
 BYTE   N92  En5
 BYTE   W96
 BYTE   PEND 
// 071   ----------------------------------------
Label_10_014C389E:
 BYTE   N92  An3  v092
 BYTE   N92  Fn4
 BYTE   N92  Fn5
 BYTE   W96
 BYTE   PEND 
// 072   ----------------------------------------
Label_10_014C38A7:
 BYTE   N92  An3  v092
 BYTE   N92  An4
 BYTE   N92  An5
 BYTE   W96
 BYTE   PEND 
// 073   ----------------------------------------
 BYTE   PATT
  POIN2 Label_10_014C3825
// 074   ----------------------------------------
 BYTE   PATT
  POIN2 Label_10_014C382E
// 075   ----------------------------------------
 BYTE   PATT
  POIN2 Label_10_014C3837
// 076   ----------------------------------------
 BYTE   W92
 BYTE   W03
 BYTE   EOT
 BYTE   En4  v084
 BYTE   En5
 BYTE   W01
// 077   ----------------------------------------
 BYTE   PATT
  POIN2 Label_10_014C3847
// 078   ----------------------------------------
 BYTE   PATT
  POIN2 Label_10_014C3850
// 079   ----------------------------------------
 BYTE   PATT
  POIN2 Label_10_014C3859
// 080   ----------------------------------------
 BYTE   W92
 BYTE   W03
 BYTE   EOT
 BYTE   Dn4  v082
 BYTE   Dn5
 BYTE   W01
// 081   ----------------------------------------
 BYTE   PATT
  POIN2 Label_10_014C3869
// 082   ----------------------------------------
 BYTE   W92
 BYTE   W03
 BYTE   EOT
 BYTE   Gn3  v074
 BYTE   Gn4
 BYTE   W01
// 083   ----------------------------------------
 BYTE   PATT
  POIN2 Label_10_014C3879
// 084   ----------------------------------------
 BYTE   W92
 BYTE   W03
 BYTE   EOT
 BYTE   Cs4  v076
 BYTE   An4  v085
 BYTE   W01
// 085   ----------------------------------------
 BYTE   PATT
  POIN2 Label_10_014C388C
// 086   ----------------------------------------
 BYTE   PATT
  POIN2 Label_10_014C3895
// 087   ----------------------------------------
 BYTE   PATT
  POIN2 Label_10_014C389E
// 088   ----------------------------------------
Label_10_014C3904:
 BYTE   N92  An3  v092
 BYTE   N92  Fs4
 BYTE   N92  Fs5
 BYTE   W96
 BYTE   PEND 
// 089   ----------------------------------------
 BYTE   W96
// 090   ----------------------------------------
 BYTE   W96
// 091   ----------------------------------------
 BYTE   W96
// 092   ----------------------------------------
 BYTE   W96
// 093   ----------------------------------------
 BYTE   W96
// 094   ----------------------------------------
 BYTE   W96
// 095   ----------------------------------------
 BYTE   W96
// 096   ----------------------------------------
 BYTE   W96
// 097   ----------------------------------------
 BYTE   W96
// 098   ----------------------------------------
 BYTE   W96
// 099   ----------------------------------------
 BYTE   W96
// 100   ----------------------------------------
 BYTE   W96
// 101   ----------------------------------------
 BYTE   W96
// 102   ----------------------------------------
 BYTE   W96
// 103   ----------------------------------------
 BYTE   W96
// 104   ----------------------------------------
 BYTE   W96
// 105   ----------------------------------------
 BYTE   W96
// 106   ----------------------------------------
 BYTE   W96
// 107   ----------------------------------------
 BYTE   W96
// 108   ----------------------------------------
 BYTE   W96
// 109   ----------------------------------------
 BYTE   W96
// 110   ----------------------------------------
 BYTE   W96
// 111   ----------------------------------------
 BYTE   W96
// 112   ----------------------------------------
 BYTE   W96
// 113   ----------------------------------------
 BYTE   W96
// 114   ----------------------------------------
 BYTE   W96
// 115   ----------------------------------------
 BYTE   W96
// 116   ----------------------------------------
 BYTE   W96
// 117   ----------------------------------------
 BYTE   W96
// 118   ----------------------------------------
 BYTE   W96
// 119   ----------------------------------------
 BYTE   W96
// 120   ----------------------------------------
 BYTE   W96
// 121   ----------------------------------------
 BYTE   W96
// 122   ----------------------------------------
 BYTE   W96
// 123   ----------------------------------------
 BYTE   W96
// 124   ----------------------------------------
 BYTE   W96
// 125   ----------------------------------------
 BYTE   PATT
  POIN2 Label_10_014C37AD
// 126   ----------------------------------------
 BYTE   W92
 BYTE   W03
 BYTE   EOT
 BYTE   Dn3  v074
 BYTE   W01
// 127   ----------------------------------------
 BYTE   PATT
  POIN2 Label_10_014C37DB
// 128   ----------------------------------------
 BYTE   W92
 BYTE   W03
 BYTE   EOT
 BYTE   Fn3  v077
 BYTE   W01
// 129   ----------------------------------------
 BYTE   PATT
  POIN2 Label_10_014C37AD
// 130   ----------------------------------------
 BYTE   W92
 BYTE   W03
 BYTE   EOT
 BYTE   Dn3  v074
 BYTE   W01
// 131   ----------------------------------------
 BYTE   N92  Fn3  v092
 BYTE   N92  Fn4
 BYTE   W96
// 132   ----------------------------------------
 BYTE   An3
 BYTE   N92  An4
 BYTE   W96
// 133   ----------------------------------------
 BYTE   PATT
  POIN2 Label_10_014C37AD
// 134   ----------------------------------------
 BYTE   W92
 BYTE   W03
 BYTE   EOT
 BYTE   Dn3  v074
 BYTE   W01
// 135   ----------------------------------------
 BYTE   PATT
  POIN2 Label_10_014C37DB
// 136   ----------------------------------------
 BYTE   W92
 BYTE   W03
 BYTE   EOT
 BYTE   Fn3  v077
 BYTE   W01
// 137   ----------------------------------------
 BYTE   N92  As3  v092
 BYTE   N92  As4
 BYTE   W96
// 138   ----------------------------------------
 BYTE   Cs4
 BYTE   N92  Cs5
 BYTE   W96
// 139   ----------------------------------------
 BYTE   Dn4
 BYTE   N92  Dn5
 BYTE   W96
// 140   ----------------------------------------
 BYTE   En4
 BYTE   N92  En5
 BYTE   W96
// 141   ----------------------------------------
 BYTE   PATT
  POIN2 Label_10_014C3825
// 142   ----------------------------------------
 BYTE   PATT
  POIN2 Label_10_014C382E
// 143   ----------------------------------------
 BYTE   PATT
  POIN2 Label_10_014C3837
// 144   ----------------------------------------
 BYTE   W92
 BYTE   W03
 BYTE   EOT
 BYTE   En4  v084
 BYTE   En5
 BYTE   W01
// 145   ----------------------------------------
 BYTE   PATT
  POIN2 Label_10_014C3847
// 146   ----------------------------------------
 BYTE   PATT
  POIN2 Label_10_014C3850
// 147   ----------------------------------------
 BYTE   PATT
  POIN2 Label_10_014C3859
// 148   ----------------------------------------
 BYTE   W92
 BYTE   W03
 BYTE   EOT
 BYTE   Dn4  v082
 BYTE   Dn5
 BYTE   W01
// 149   ----------------------------------------
 BYTE   PATT
  POIN2 Label_10_014C3869
// 150   ----------------------------------------
 BYTE   W92
 BYTE   W03
 BYTE   EOT
 BYTE   Gn3  v074
 BYTE   Gn4
 BYTE   W01
// 151   ----------------------------------------
 BYTE   PATT
  POIN2 Label_10_014C3879
// 152   ----------------------------------------
 BYTE   W92
 BYTE   W03
 BYTE   EOT
 BYTE   Cs4  v076
 BYTE   An4  v085
 BYTE   W01
// 153   ----------------------------------------
 BYTE   PATT
  POIN2 Label_10_014C388C
// 154   ----------------------------------------
 BYTE   PATT
  POIN2 Label_10_014C3895
// 155   ----------------------------------------
 BYTE   PATT
  POIN2 Label_10_014C389E
// 156   ----------------------------------------
 BYTE   PATT
  POIN2 Label_10_014C38A7
// 157   ----------------------------------------
 BYTE   PATT
  POIN2 Label_10_014C3825
// 158   ----------------------------------------
 BYTE   PATT
  POIN2 Label_10_014C382E
// 159   ----------------------------------------
 BYTE   PATT
  POIN2 Label_10_014C3837
// 160   ----------------------------------------
 BYTE   W92
 BYTE   W03
 BYTE   EOT
 BYTE   En4  v084
 BYTE   En5
 BYTE   W01
// 161   ----------------------------------------
 BYTE   PATT
  POIN2 Label_10_014C3847
// 162   ----------------------------------------
 BYTE   PATT
  POIN2 Label_10_014C3850
// 163   ----------------------------------------
 BYTE   PATT
  POIN2 Label_10_014C3859
// 164   ----------------------------------------
 BYTE   W92
 BYTE   W03
 BYTE   EOT
 BYTE   Dn4  v082
 BYTE   Dn5
 BYTE   W01
// 165   ----------------------------------------
 BYTE   PATT
  POIN2 Label_10_014C3869
// 166   ----------------------------------------
 BYTE   W92
 BYTE   W03
 BYTE   EOT
 BYTE   Gn3  v074
 BYTE   Gn4
 BYTE   W01
// 167   ----------------------------------------
 BYTE   PATT
  POIN2 Label_10_014C3879
// 168   ----------------------------------------
 BYTE   W92
 BYTE   W03
 BYTE   EOT
 BYTE   Cs4  v076
 BYTE   An4  v085
 BYTE   W01
// 169   ----------------------------------------
 BYTE   PATT
  POIN2 Label_10_014C388C
// 170   ----------------------------------------
 BYTE   PATT
  POIN2 Label_10_014C3895
// 171   ----------------------------------------
 BYTE   PATT
  POIN2 Label_10_014C389E
// 172   ----------------------------------------
 BYTE   PATT
  POIN2 Label_10_014C3904
// 173   ----------------------------------------
 BYTE   W96
// 174   ----------------------------------------
 BYTE   W96
// 175   ----------------------------------------
 BYTE   W96
// 176   ----------------------------------------
 BYTE   W96
// 177   ----------------------------------------
 BYTE   W96
// 178   ----------------------------------------
 BYTE   W96
// 179   ----------------------------------------
 BYTE   W96
// 180   ----------------------------------------
 BYTE   W96
// 181   ----------------------------------------
 BYTE   W96
// 182   ----------------------------------------
 BYTE   W96
// 183   ----------------------------------------
 BYTE   W96
// 184   ----------------------------------------
 BYTE   W96
// 185   ----------------------------------------
 BYTE   W96
// 186   ----------------------------------------
 BYTE   W96
// 187   ----------------------------------------
 BYTE   W96
// 188   ----------------------------------------
 BYTE   W96
// 189   ----------------------------------------
 BYTE   W96
// 190   ----------------------------------------
 BYTE   W96
// 191   ----------------------------------------
 BYTE   W96
// 192   ----------------------------------------
 BYTE   W96
// 193   ----------------------------------------
 BYTE   W96
// 194   ----------------------------------------
 BYTE   W96
// 195   ----------------------------------------
 BYTE   W96
// 196   ----------------------------------------
 BYTE   W96
// 197   ----------------------------------------
 BYTE   W96
// 198   ----------------------------------------
 BYTE   W96
// 199   ----------------------------------------
 BYTE   W96
// 200   ----------------------------------------
 BYTE   W96
// 201   ----------------------------------------
 BYTE   W96
// 202   ----------------------------------------
 BYTE   W96
// 203   ----------------------------------------
 BYTE   W96
// 204   ----------------------------------------
 BYTE   W96
// 205   ----------------------------------------
 BYTE   W96
// 206   ----------------------------------------
 BYTE   W96
// 207   ----------------------------------------
 BYTE   W96
// 208   ----------------------------------------
 BYTE   W96
// 209   ----------------------------------------
 BYTE   PATT
  POIN2 Label_10_014C37AD
// 210   ----------------------------------------
 BYTE   W92
 BYTE   W03
 BYTE   EOT
 BYTE   Dn3  v074
 BYTE   W01
// 211   ----------------------------------------
 BYTE   PATT
  POIN2 Label_10_014C37DB
// 212   ----------------------------------------
 BYTE   W92
 BYTE   W03
 BYTE   EOT
 BYTE   Fn3  v077
 BYTE   W01
// 213   ----------------------------------------
 BYTE   PATT
  POIN2 Label_10_014C37AD
// 214   ----------------------------------------
 BYTE   W92
 BYTE   W03
 BYTE   EOT
 BYTE   Dn3  v074
 BYTE   W01
// 215   ----------------------------------------
 BYTE   N92  Fn3  v092
 BYTE   N92  Fn4
 BYTE   W96
// 216   ----------------------------------------
 BYTE   An3
 BYTE   N92  An4
 BYTE   W96
// 217   ----------------------------------------
 BYTE   PATT
  POIN2 Label_10_014C37AD
// 218   ----------------------------------------
 BYTE   W92
 BYTE   W03
 BYTE   EOT
 BYTE   Dn3  v074
 BYTE   W01
// 219   ----------------------------------------
 BYTE   PATT
  POIN2 Label_10_014C37DB
// 220   ----------------------------------------
 BYTE   W92
 BYTE   W03
 BYTE   EOT
 BYTE   Fn3  v077
 BYTE   W01
// 221   ----------------------------------------
 BYTE   N92  As3  v092
 BYTE   N92  As4
 BYTE   W96
// 222   ----------------------------------------
 BYTE   Cs4
 BYTE   N92  Cs5
 BYTE   W96
// 223   ----------------------------------------
 BYTE   Dn4
 BYTE   N92  Dn5
 BYTE   W96
// 224   ----------------------------------------
 BYTE   En4
 BYTE   N92  En5
 BYTE   W96
// 225   ----------------------------------------
 BYTE   PATT
  POIN2 Label_10_014C3825
// 226   ----------------------------------------
 BYTE   PATT
  POIN2 Label_10_014C382E
// 227   ----------------------------------------
 BYTE   PATT
  POIN2 Label_10_014C3837
// 228   ----------------------------------------
 BYTE   W92
 BYTE   W03
 BYTE   EOT
 BYTE   En4  v084
 BYTE   En5
 BYTE   W01
// 229   ----------------------------------------
 BYTE   PATT
  POIN2 Label_10_014C3847
// 230   ----------------------------------------
 BYTE   PATT
  POIN2 Label_10_014C3850
// 231   ----------------------------------------
 BYTE   PATT
  POIN2 Label_10_014C3859
// 232   ----------------------------------------
 BYTE   W92
 BYTE   W03
 BYTE   EOT
 BYTE   Dn4  v082
 BYTE   Dn5
 BYTE   W01
// 233   ----------------------------------------
 BYTE   PATT
  POIN2 Label_10_014C3869
// 234   ----------------------------------------
 BYTE   W92
 BYTE   W03
 BYTE   EOT
 BYTE   Gn3  v074
 BYTE   Gn4
 BYTE   W01
// 235   ----------------------------------------
 BYTE   PATT
  POIN2 Label_10_014C3879
// 236   ----------------------------------------
 BYTE   W92
 BYTE   W03
 BYTE   EOT
 BYTE   Cs4  v076
 BYTE   An4  v085
 BYTE   W01
// 237   ----------------------------------------
 BYTE   PATT
  POIN2 Label_10_014C388C
// 238   ----------------------------------------
 BYTE   PATT
  POIN2 Label_10_014C3895
// 239   ----------------------------------------
 BYTE   PATT
  POIN2 Label_10_014C389E
// 240   ----------------------------------------
 BYTE   PATT
  POIN2 Label_10_014C38A7
// 241   ----------------------------------------
 BYTE   PATT
  POIN2 Label_10_014C3825
// 242   ----------------------------------------
 BYTE   PATT
  POIN2 Label_10_014C382E
// 243   ----------------------------------------
 BYTE   PATT
  POIN2 Label_10_014C3837
// 244   ----------------------------------------
 BYTE   W92
 BYTE   W03
 BYTE   EOT
 BYTE   En4  v084
 BYTE   En5
 BYTE   W01
// 245   ----------------------------------------
 BYTE   PATT
  POIN2 Label_10_014C3847
// 246   ----------------------------------------
 BYTE   PATT
  POIN2 Label_10_014C3850
// 247   ----------------------------------------
 BYTE   PATT
  POIN2 Label_10_014C3859
// 248   ----------------------------------------
 BYTE   W92
 BYTE   W03
 BYTE   EOT
 BYTE   Dn4  v082
 BYTE   Dn5
 BYTE   W01
// 249   ----------------------------------------
 BYTE   PATT
  POIN2 Label_10_014C3869
// 250   ----------------------------------------
 BYTE   W92
 BYTE   W03
 BYTE   EOT
 BYTE   Gn3  v074
 BYTE   Gn4
 BYTE   W01
// 251   ----------------------------------------
 BYTE   PATT
  POIN2 Label_10_014C3879
// 252   ----------------------------------------
 BYTE   W92
 BYTE   W03
 BYTE   EOT
 BYTE   Cs4  v076
 BYTE   An4  v085
 BYTE   W01
// 253   ----------------------------------------
 BYTE   PATT
  POIN2 Label_10_014C388C
// 254   ----------------------------------------
 BYTE   PATT
  POIN2 Label_10_014C3895
// 255   ----------------------------------------
 BYTE   PATT
  POIN2 Label_10_014C389E
// 256   ----------------------------------------
 BYTE   PATT
  POIN2 Label_10_014C3904
// 257   ----------------------------------------
 BYTE   GoTo
  POIN2 Label_10_014C37AD
// 258   ----------------------------------------
 BYTE   W96
// 259   ----------------------------------------
 BYTE   W96
// 260   ----------------------------------------
 BYTE   W96
// 261   ----------------------------------------
 BYTE   W96
// 262   ----------------------------------------
 BYTE   W96
// 263   ----------------------------------------
 BYTE   W96
// 264   ----------------------------------------
 BYTE   W96
// 265   ----------------------------------------
 BYTE   W96
// 266   ----------------------------------------
 BYTE   W92
 BYTE   W03
 BYTE   FINE

//**************** Track 12 (Midi-Chn.11) ****************//

GuiltyGearXDizzysThemeMeatOfJustice_012:
// 000   ----------------------------------------
 BYTE   KEYSH   GuiltyGearXDizzysThemeMeatOfJustice_key+0
 BYTE   VOICE   48
 BYTE   PAN   c_v-34
 BYTE   VOL   37*GuiltyGearXDizzysThemeMeatOfJustice_mvl/mxv
 BYTE   W96
// 001   ----------------------------------------
 BYTE   W96
// 002   ----------------------------------------
 BYTE   W96
// 003   ----------------------------------------
 BYTE   W96
// 004   ----------------------------------------
 BYTE   W96
// 005   ----------------------------------------
 BYTE   W96
// 006   ----------------------------------------
 BYTE   W96
// 007   ----------------------------------------
 BYTE   W96
// 008   ----------------------------------------
 BYTE   W96
// 009   ----------------------------------------
 BYTE   W96
// 010   ----------------------------------------
 BYTE   W96
// 011   ----------------------------------------
 BYTE   W96
// 012   ----------------------------------------
 BYTE   W96
// 013   ----------------------------------------
 BYTE   W96
// 014   ----------------------------------------
 BYTE   W96
// 015   ----------------------------------------
 BYTE   W96
// 016   ----------------------------------------
 BYTE   W96
// 017   ----------------------------------------
Label_11_014C3B89:
 BYTE   W96
// 018   ----------------------------------------
 BYTE   W96
// 019   ----------------------------------------
 BYTE   W96
// 020   ----------------------------------------
 BYTE   W96
// 021   ----------------------------------------
 BYTE   W96
// 022   ----------------------------------------
 BYTE   W96
// 023   ----------------------------------------
 BYTE   W96
// 024   ----------------------------------------
 BYTE   W96
// 025   ----------------------------------------
Label_11_014C3B91:
 BYTE   PAN   c_v+6
 BYTE   N44  Fn3  v092
 BYTE   N44  Fn4
 BYTE   W48
 BYTE   Gn3
 BYTE   N44  Gn4
 BYTE   W48
 BYTE   PEND 
// 026   ----------------------------------------
Label_11_014C3B9E:
 BYTE   N44  En3  v092
 BYTE   N44  En4
 BYTE   W48
 BYTE   Fn3
 BYTE   N44  Fn4
 BYTE   W48
 BYTE   PEND 
// 027   ----------------------------------------
Label_11_014C3BA9:
 BYTE   N44  Dn3  v092
 BYTE   N44  Dn4
 BYTE   W48
 BYTE   En3
 BYTE   N44  En4
 BYTE   W48
 BYTE   PEND 
// 028   ----------------------------------------
Label_11_014C3BB4:
 BYTE   N23  Cs3  v092
 BYTE   N23  Cs4
 BYTE   W24
 BYTE   Dn3
 BYTE   N23  Dn4
 BYTE   W24
 BYTE   En3
 BYTE   N23  En4
 BYTE   W24
 BYTE   Fn3
 BYTE   N23  Fn4
 BYTE   W24
 BYTE   PEND 
// 029   ----------------------------------------
Label_11_014C3BC7:
 BYTE   N44  Fn3  v092
 BYTE   N44  Fn4
 BYTE   W48
 BYTE   Gn3
 BYTE   N44  Gn4
 BYTE   W48
 BYTE   PEND 
// 030   ----------------------------------------
 BYTE   PATT
  POIN2 Label_11_014C3B9E
// 031   ----------------------------------------
 BYTE   PATT
  POIN2 Label_11_014C3BA9
// 032   ----------------------------------------
Label_11_014C3BDC:
 BYTE   N23  Cs3  v092
 BYTE   N23  Cs4
 BYTE   W24
 BYTE   Dn3
 BYTE   N23  Dn4
 BYTE   W24
 BYTE   As3
 BYTE   N23  As4
 BYTE   W24
 BYTE   An3
 BYTE   N23  An4
 BYTE   W24
 BYTE   PEND 
// 033   ----------------------------------------
 BYTE   PATT
  POIN2 Label_11_014C3BC7
// 034   ----------------------------------------
 BYTE   PATT
  POIN2 Label_11_014C3B9E
// 035   ----------------------------------------
 BYTE   PATT
  POIN2 Label_11_014C3BA9
// 036   ----------------------------------------
 BYTE   PATT
  POIN2 Label_11_014C3BB4
// 037   ----------------------------------------
 BYTE   PATT
  POIN2 Label_11_014C3BC7
// 038   ----------------------------------------
 BYTE   PATT
  POIN2 Label_11_014C3B9E
// 039   ----------------------------------------
 BYTE   PATT
  POIN2 Label_11_014C3BA9
// 040   ----------------------------------------
 BYTE   PATT
  POIN2 Label_11_014C3BDC
// 041   ----------------------------------------
 BYTE   W96
// 042   ----------------------------------------
 BYTE   W96
// 043   ----------------------------------------
 BYTE   W96
// 044   ----------------------------------------
 BYTE   W96
// 045   ----------------------------------------
 BYTE   W96
// 046   ----------------------------------------
 BYTE   W96
// 047   ----------------------------------------
 BYTE   W96
// 048   ----------------------------------------
 BYTE   W96
// 049   ----------------------------------------
 BYTE   W96
// 050   ----------------------------------------
 BYTE   W96
// 051   ----------------------------------------
 BYTE   W96
// 052   ----------------------------------------
 BYTE   W96
// 053   ----------------------------------------
 BYTE   W96
// 054   ----------------------------------------
 BYTE   W96
// 055   ----------------------------------------
 BYTE   W96
// 056   ----------------------------------------
 BYTE   W96
// 057   ----------------------------------------
 BYTE   W96
// 058   ----------------------------------------
 BYTE   W96
// 059   ----------------------------------------
 BYTE   W96
// 060   ----------------------------------------
 BYTE   W96
// 061   ----------------------------------------
 BYTE   W96
// 062   ----------------------------------------
 BYTE   W96
// 063   ----------------------------------------
 BYTE   W96
// 064   ----------------------------------------
 BYTE   W96
// 065   ----------------------------------------
 BYTE   W96
// 066   ----------------------------------------
 BYTE   W96
// 067   ----------------------------------------
 BYTE   W96
// 068   ----------------------------------------
 BYTE   W96
// 069   ----------------------------------------
 BYTE   W96
// 070   ----------------------------------------
 BYTE   W96
// 071   ----------------------------------------
 BYTE   W96
// 072   ----------------------------------------
 BYTE   W96
// 073   ----------------------------------------
 BYTE   W96
// 074   ----------------------------------------
 BYTE   W96
// 075   ----------------------------------------
 BYTE   W96
// 076   ----------------------------------------
 BYTE   W96
// 077   ----------------------------------------
 BYTE   W96
// 078   ----------------------------------------
 BYTE   W96
// 079   ----------------------------------------
 BYTE   W96
// 080   ----------------------------------------
 BYTE   W96
// 081   ----------------------------------------
 BYTE   W96
// 082   ----------------------------------------
 BYTE   W96
// 083   ----------------------------------------
 BYTE   W96
// 084   ----------------------------------------
 BYTE   W96
// 085   ----------------------------------------
 BYTE   W96
// 086   ----------------------------------------
 BYTE   W96
// 087   ----------------------------------------
 BYTE   W96
// 088   ----------------------------------------
 BYTE   W96
// 089   ----------------------------------------
 BYTE   W96
// 090   ----------------------------------------
 BYTE   W96
// 091   ----------------------------------------
 BYTE   W96
// 092   ----------------------------------------
 BYTE   W96
// 093   ----------------------------------------
Label_11_014C3C4B:
 BYTE   TIE  An3  v092
 BYTE   TIE  An4
 BYTE   W96
 BYTE   PEND 
// 094   ----------------------------------------
 BYTE   W96
// 095   ----------------------------------------
 BYTE   W96
// 096   ----------------------------------------
 BYTE   W92
 BYTE   W03
 BYTE   EOT
 BYTE   An3  v081
 BYTE   W01
// 097   ----------------------------------------
Label_11_014C3C5A:
 BYTE   TIE  Fs3  v092
 BYTE   TIE  Fs4
 BYTE   W96
 BYTE   PEND 
// 098   ----------------------------------------
 BYTE   W92
 BYTE   W03
 BYTE   EOT
 BYTE   Fs3  v078
 BYTE   W01
// 099   ----------------------------------------
Label_11_014C3C67:
 BYTE   TIE  Gn3  v092
 BYTE   TIE  Gn4
 BYTE   W96
 BYTE   PEND 
// 100   ----------------------------------------
 BYTE   W44
 BYTE   W03
 BYTE   EOT
 BYTE   Gn3  v079
 BYTE   W01
 BYTE   N44  Fn3
 BYTE   N44  Fn4
 BYTE   W48
// 101   ----------------------------------------
 BYTE   N92  Gn3
 BYTE   N92  Gn4
 BYTE   W96
// 102   ----------------------------------------
 BYTE   An3
 BYTE   N92  An4
 BYTE   W96
// 103   ----------------------------------------
 BYTE   PATT
  POIN2 Label_11_014C3BA9
// 104   ----------------------------------------
Label_11_014C3C87:
 BYTE   N44  Fn3  v092
 BYTE   N44  Fn4
 BYTE   W48
 BYTE   Fs3
 BYTE   N44  Fs4
 BYTE   W48
 BYTE   PEND 
// 105   ----------------------------------------
 BYTE   N92  As3
 BYTE   N92  As4
 BYTE   W96
// 106   ----------------------------------------
 BYTE   Bn3
 BYTE   N92  Bn4
 BYTE   W96
// 107   ----------------------------------------
 BYTE   PATT
  POIN2 Label_11_014C3C4B
// 108   ----------------------------------------
 BYTE   W92
 BYTE   W03
 BYTE   EOT
 BYTE   An3  v081
 BYTE   W01
// 109   ----------------------------------------
 BYTE   PATT
  POIN2 Label_11_014C3B91
// 110   ----------------------------------------
 BYTE   PATT
  POIN2 Label_11_014C3B9E
// 111   ----------------------------------------
 BYTE   PATT
  POIN2 Label_11_014C3BA9
// 112   ----------------------------------------
 BYTE   PATT
  POIN2 Label_11_014C3BB4
// 113   ----------------------------------------
 BYTE   PATT
  POIN2 Label_11_014C3BC7
// 114   ----------------------------------------
 BYTE   PATT
  POIN2 Label_11_014C3B9E
// 115   ----------------------------------------
 BYTE   PATT
  POIN2 Label_11_014C3BA9
// 116   ----------------------------------------
 BYTE   PATT
  POIN2 Label_11_014C3BDC
// 117   ----------------------------------------
 BYTE   PATT
  POIN2 Label_11_014C3BC7
// 118   ----------------------------------------
 BYTE   PATT
  POIN2 Label_11_014C3B9E
// 119   ----------------------------------------
 BYTE   PATT
  POIN2 Label_11_014C3BA9
// 120   ----------------------------------------
 BYTE   PATT
  POIN2 Label_11_014C3BB4
// 121   ----------------------------------------
 BYTE   PATT
  POIN2 Label_11_014C3BC7
// 122   ----------------------------------------
 BYTE   PATT
  POIN2 Label_11_014C3B9E
// 123   ----------------------------------------
 BYTE   PATT
  POIN2 Label_11_014C3BA9
// 124   ----------------------------------------
 BYTE   PATT
  POIN2 Label_11_014C3BDC
// 125   ----------------------------------------
 BYTE   W96
// 126   ----------------------------------------
 BYTE   W96
// 127   ----------------------------------------
 BYTE   W96
// 128   ----------------------------------------
 BYTE   W96
// 129   ----------------------------------------
 BYTE   W96
// 130   ----------------------------------------
 BYTE   W96
// 131   ----------------------------------------
 BYTE   W96
// 132   ----------------------------------------
 BYTE   W96
// 133   ----------------------------------------
 BYTE   W96
// 134   ----------------------------------------
 BYTE   W96
// 135   ----------------------------------------
 BYTE   W96
// 136   ----------------------------------------
 BYTE   W96
// 137   ----------------------------------------
 BYTE   W96
// 138   ----------------------------------------
 BYTE   W96
// 139   ----------------------------------------
 BYTE   W96
// 140   ----------------------------------------
 BYTE   W96
// 141   ----------------------------------------
 BYTE   W96
// 142   ----------------------------------------
 BYTE   W96
// 143   ----------------------------------------
 BYTE   W96
// 144   ----------------------------------------
 BYTE   W96
// 145   ----------------------------------------
 BYTE   W96
// 146   ----------------------------------------
 BYTE   W96
// 147   ----------------------------------------
 BYTE   W96
// 148   ----------------------------------------
 BYTE   W96
// 149   ----------------------------------------
 BYTE   W96
// 150   ----------------------------------------
 BYTE   W96
// 151   ----------------------------------------
 BYTE   W96
// 152   ----------------------------------------
 BYTE   W96
// 153   ----------------------------------------
 BYTE   W96
// 154   ----------------------------------------
 BYTE   W96
// 155   ----------------------------------------
 BYTE   W96
// 156   ----------------------------------------
 BYTE   W96
// 157   ----------------------------------------
 BYTE   W96
// 158   ----------------------------------------
 BYTE   W96
// 159   ----------------------------------------
 BYTE   W96
// 160   ----------------------------------------
 BYTE   W96
// 161   ----------------------------------------
 BYTE   W96
// 162   ----------------------------------------
 BYTE   W96
// 163   ----------------------------------------
 BYTE   W96
// 164   ----------------------------------------
 BYTE   W96
// 165   ----------------------------------------
 BYTE   W96
// 166   ----------------------------------------
 BYTE   W96
// 167   ----------------------------------------
 BYTE   W96
// 168   ----------------------------------------
 BYTE   W96
// 169   ----------------------------------------
 BYTE   W96
// 170   ----------------------------------------
 BYTE   W96
// 171   ----------------------------------------
 BYTE   W96
// 172   ----------------------------------------
 BYTE   W96
// 173   ----------------------------------------
 BYTE   W96
// 174   ----------------------------------------
 BYTE   W96
// 175   ----------------------------------------
 BYTE   W96
// 176   ----------------------------------------
 BYTE   W96
// 177   ----------------------------------------
 BYTE   PATT
  POIN2 Label_11_014C3C4B
// 178   ----------------------------------------
 BYTE   W96
// 179   ----------------------------------------
 BYTE   W96
// 180   ----------------------------------------
 BYTE   W92
 BYTE   W03
 BYTE   EOT
 BYTE   An3  v081
 BYTE   W01
// 181   ----------------------------------------
 BYTE   PATT
  POIN2 Label_11_014C3C5A
// 182   ----------------------------------------
 BYTE   W92
 BYTE   W03
 BYTE   EOT
 BYTE   Fs3  v078
 BYTE   W01
// 183   ----------------------------------------
 BYTE   PATT
  POIN2 Label_11_014C3C67
// 184   ----------------------------------------
 BYTE   W44
 BYTE   W03
 BYTE   EOT
 BYTE   Gn3  v079
 BYTE   W01
 BYTE   N44  Fn3  v092
 BYTE   N44  Fn4
 BYTE   W48
// 185   ----------------------------------------
 BYTE   N92  Gn3
 BYTE   N92  Gn4
 BYTE   W96
// 186   ----------------------------------------
 BYTE   An3
 BYTE   N92  An4
 BYTE   W96
// 187   ----------------------------------------
 BYTE   PATT
  POIN2 Label_11_014C3BA9
// 188   ----------------------------------------
 BYTE   PATT
  POIN2 Label_11_014C3C87
// 189   ----------------------------------------
 BYTE   N92  As3  v092
 BYTE   N92  As4
 BYTE   W96
// 190   ----------------------------------------
 BYTE   Bn3
 BYTE   N92  Bn4
 BYTE   W96
// 191   ----------------------------------------
 BYTE   PATT
  POIN2 Label_11_014C3C4B
// 192   ----------------------------------------
 BYTE   W92
 BYTE   W03
 BYTE   EOT
 BYTE   An3  v081
 BYTE   W01
// 193   ----------------------------------------
 BYTE   PATT
  POIN2 Label_11_014C3B91
// 194   ----------------------------------------
 BYTE   PATT
  POIN2 Label_11_014C3B9E
// 195   ----------------------------------------
 BYTE   PATT
  POIN2 Label_11_014C3BA9
// 196   ----------------------------------------
 BYTE   PATT
  POIN2 Label_11_014C3BB4
// 197   ----------------------------------------
 BYTE   PATT
  POIN2 Label_11_014C3BC7
// 198   ----------------------------------------
 BYTE   PATT
  POIN2 Label_11_014C3B9E
// 199   ----------------------------------------
 BYTE   PATT
  POIN2 Label_11_014C3BA9
// 200   ----------------------------------------
 BYTE   PATT
  POIN2 Label_11_014C3BDC
// 201   ----------------------------------------
 BYTE   PATT
  POIN2 Label_11_014C3BC7
// 202   ----------------------------------------
 BYTE   PATT
  POIN2 Label_11_014C3B9E
// 203   ----------------------------------------
 BYTE   PATT
  POIN2 Label_11_014C3BA9
// 204   ----------------------------------------
 BYTE   PATT
  POIN2 Label_11_014C3BB4
// 205   ----------------------------------------
 BYTE   PATT
  POIN2 Label_11_014C3BC7
// 206   ----------------------------------------
 BYTE   PATT
  POIN2 Label_11_014C3B9E
// 207   ----------------------------------------
 BYTE   PATT
  POIN2 Label_11_014C3BA9
// 208   ----------------------------------------
 BYTE   PATT
  POIN2 Label_11_014C3BDC
// 209   ----------------------------------------
 BYTE   W96
// 210   ----------------------------------------
 BYTE   W96
// 211   ----------------------------------------
 BYTE   W96
// 212   ----------------------------------------
 BYTE   W96
// 213   ----------------------------------------
 BYTE   W96
// 214   ----------------------------------------
 BYTE   W96
// 215   ----------------------------------------
 BYTE   W96
// 216   ----------------------------------------
 BYTE   W96
// 217   ----------------------------------------
 BYTE   W96
// 218   ----------------------------------------
 BYTE   W96
// 219   ----------------------------------------
 BYTE   W96
// 220   ----------------------------------------
 BYTE   W96
// 221   ----------------------------------------
 BYTE   W96
// 222   ----------------------------------------
 BYTE   W96
// 223   ----------------------------------------
 BYTE   W96
// 224   ----------------------------------------
 BYTE   W96
// 225   ----------------------------------------
 BYTE   W96
// 226   ----------------------------------------
 BYTE   W96
// 227   ----------------------------------------
 BYTE   W96
// 228   ----------------------------------------
 BYTE   W96
// 229   ----------------------------------------
 BYTE   W96
// 230   ----------------------------------------
 BYTE   W96
// 231   ----------------------------------------
 BYTE   W96
// 232   ----------------------------------------
 BYTE   W96
// 233   ----------------------------------------
 BYTE   W96
// 234   ----------------------------------------
 BYTE   W96
// 235   ----------------------------------------
 BYTE   W96
// 236   ----------------------------------------
 BYTE   W96
// 237   ----------------------------------------
 BYTE   W96
// 238   ----------------------------------------
 BYTE   W96
// 239   ----------------------------------------
 BYTE   W96
// 240   ----------------------------------------
 BYTE   W96
// 241   ----------------------------------------
 BYTE   W96
// 242   ----------------------------------------
 BYTE   W96
// 243   ----------------------------------------
 BYTE   W96
// 244   ----------------------------------------
 BYTE   W96
// 245   ----------------------------------------
 BYTE   W96
// 246   ----------------------------------------
 BYTE   W96
// 247   ----------------------------------------
 BYTE   W96
// 248   ----------------------------------------
 BYTE   W96
// 249   ----------------------------------------
 BYTE   W96
// 250   ----------------------------------------
 BYTE   W96
// 251   ----------------------------------------
 BYTE   W96
// 252   ----------------------------------------
 BYTE   W96
// 253   ----------------------------------------
 BYTE   W96
// 254   ----------------------------------------
 BYTE   W96
// 255   ----------------------------------------
 BYTE   W96
// 256   ----------------------------------------
 BYTE   W96
// 257   ----------------------------------------
 BYTE   GoTo
  POIN2 Label_11_014C3B89
// 258   ----------------------------------------
 BYTE   W96
// 259   ----------------------------------------
 BYTE   W96
// 260   ----------------------------------------
 BYTE   W96
// 261   ----------------------------------------
 BYTE   W96
// 262   ----------------------------------------
 BYTE   W96
// 263   ----------------------------------------
 BYTE   W96
// 264   ----------------------------------------
 BYTE   W96
// 265   ----------------------------------------
 BYTE   W96
// 266   ----------------------------------------
 BYTE   W92
 BYTE   W03
 BYTE   FINE

//**************** Track 13 (Midi-Chn.12) ****************//

GuiltyGearXDizzysThemeMeatOfJustice_013:
// 000   ----------------------------------------
 BYTE   KEYSH   GuiltyGearXDizzysThemeMeatOfJustice_key+0
 BYTE   VOICE   4
 BYTE   PAN   c_v-7
 BYTE   VOL   40*GuiltyGearXDizzysThemeMeatOfJustice_mvl/mxv
 BYTE   W96
// 001   ----------------------------------------
 BYTE   W96
// 002   ----------------------------------------
 BYTE   W96
// 003   ----------------------------------------
 BYTE   W96
// 004   ----------------------------------------
 BYTE   W96
// 005   ----------------------------------------
 BYTE   W96
// 006   ----------------------------------------
 BYTE   W96
// 007   ----------------------------------------
 BYTE   W96
// 008   ----------------------------------------
 BYTE   W96
// 009   ----------------------------------------
 BYTE   W96
// 010   ----------------------------------------
 BYTE   W96
// 011   ----------------------------------------
 BYTE   W96
// 012   ----------------------------------------
 BYTE   W96
// 013   ----------------------------------------
 BYTE   W96
// 014   ----------------------------------------
 BYTE   W96
// 015   ----------------------------------------
 BYTE   W96
// 016   ----------------------------------------
 BYTE   W96
// 017   ----------------------------------------
Label_12_014C3E25:
 BYTE   W96
// 018   ----------------------------------------
 BYTE   W96
// 019   ----------------------------------------
 BYTE   W96
// 020   ----------------------------------------
 BYTE   W96
// 021   ----------------------------------------
 BYTE   W96
// 022   ----------------------------------------
 BYTE   W96
// 023   ----------------------------------------
 BYTE   W96
// 024   ----------------------------------------
 BYTE   W96
// 025   ----------------------------------------
 BYTE   W96
// 026   ----------------------------------------
 BYTE   W96
// 027   ----------------------------------------
 BYTE   W96
// 028   ----------------------------------------
 BYTE   W96
// 029   ----------------------------------------
 BYTE   W96
// 030   ----------------------------------------
 BYTE   W96
// 031   ----------------------------------------
 BYTE   W96
// 032   ----------------------------------------
 BYTE   W96
// 033   ----------------------------------------
 BYTE   W96
// 034   ----------------------------------------
 BYTE   W96
// 035   ----------------------------------------
 BYTE   W96
// 036   ----------------------------------------
 BYTE   W96
// 037   ----------------------------------------
 BYTE   W96
// 038   ----------------------------------------
 BYTE   W96
// 039   ----------------------------------------
 BYTE   W96
// 040   ----------------------------------------
 BYTE   W96
// 041   ----------------------------------------
 BYTE   W96
// 042   ----------------------------------------
 BYTE   W96
// 043   ----------------------------------------
 BYTE   W96
// 044   ----------------------------------------
 BYTE   W96
// 045   ----------------------------------------
 BYTE   W96
// 046   ----------------------------------------
 BYTE   W96
// 047   ----------------------------------------
 BYTE   W96
// 048   ----------------------------------------
 BYTE   W96
// 049   ----------------------------------------
 BYTE   W96
// 050   ----------------------------------------
 BYTE   W96
// 051   ----------------------------------------
 BYTE   W96
// 052   ----------------------------------------
 BYTE   W96
// 053   ----------------------------------------
 BYTE   W96
// 054   ----------------------------------------
 BYTE   W96
// 055   ----------------------------------------
 BYTE   W96
// 056   ----------------------------------------
 BYTE   W96
// 057   ----------------------------------------
 BYTE   W96
// 058   ----------------------------------------
 BYTE   W96
// 059   ----------------------------------------
 BYTE   W96
// 060   ----------------------------------------
 BYTE   W96
// 061   ----------------------------------------
 BYTE   W96
// 062   ----------------------------------------
 BYTE   W96
// 063   ----------------------------------------
 BYTE   W96
// 064   ----------------------------------------
 BYTE   W96
// 065   ----------------------------------------
 BYTE   W96
// 066   ----------------------------------------
 BYTE   W96
// 067   ----------------------------------------
 BYTE   W96
// 068   ----------------------------------------
 BYTE   W96
// 069   ----------------------------------------
 BYTE   W96
// 070   ----------------------------------------
 BYTE   W96
// 071   ----------------------------------------
 BYTE   W96
// 072   ----------------------------------------
 BYTE   W96
// 073   ----------------------------------------
 BYTE   W96
// 074   ----------------------------------------
 BYTE   W96
// 075   ----------------------------------------
 BYTE   W96
// 076   ----------------------------------------
 BYTE   W96
// 077   ----------------------------------------
 BYTE   W96
// 078   ----------------------------------------
 BYTE   W96
// 079   ----------------------------------------
 BYTE   W96
// 080   ----------------------------------------
 BYTE   W96
// 081   ----------------------------------------
 BYTE   W96
// 082   ----------------------------------------
 BYTE   W96
// 083   ----------------------------------------
 BYTE   W96
// 084   ----------------------------------------
 BYTE   W96
// 085   ----------------------------------------
 BYTE   W96
// 086   ----------------------------------------
 BYTE   W96
// 087   ----------------------------------------
 BYTE   W96
// 088   ----------------------------------------
 BYTE   W96
// 089   ----------------------------------------
 BYTE   W96
// 090   ----------------------------------------
 BYTE   W96
// 091   ----------------------------------------
 BYTE   W96
// 092   ----------------------------------------
 BYTE   W96
// 093   ----------------------------------------
Label_12_014C3E71:
 BYTE   N02  Cn3  v108
 BYTE   N56  Dn3  v092
 BYTE   W60
 BYTE   N11  An2
 BYTE   W12
 BYTE   Dn3
 BYTE   W12
 BYTE   En3
 BYTE   W12
 BYTE   PEND 
// 094   ----------------------------------------
Label_12_014C3E80:
 BYTE   N02  En3  v108
 BYTE   N23  Fn3  v092
 BYTE   W24
 BYTE   N11  Gn3
 BYTE   W12
 BYTE   Fn3
 BYTE   W12
 BYTE   N32  En3
 BYTE   W36
 BYTE   N11  Fn3
 BYTE   W12
 BYTE   PEND 
// 095   ----------------------------------------
Label_12_014C3E93:
 BYTE   N02  Dn3  v108
 BYTE   N44  En3  v092
 BYTE   W48
 BYTE   An2
 BYTE   W48
 BYTE   PEND 
// 096   ----------------------------------------
Label_12_014C3E9D:
 BYTE   N02  Gn3  v108
 BYTE   N68  An3  v092
 BYTE   W72
 BYTE   N11
 BYTE   W12
 BYTE   Gn3
 BYTE   W12
 BYTE   PEND 
// 097   ----------------------------------------
Label_12_014C3EA9:
 BYTE   N02  Dn3  v108
 BYTE   N68  Fs3  v092
 BYTE   W72
 BYTE   N11  Dn3
 BYTE   W12
 BYTE   Fs3
 BYTE   W12
 BYTE   PEND 
// 098   ----------------------------------------
Label_12_014C3EB6:
 BYTE   N11  An3  v092
 BYTE   W12
 BYTE   Dn3
 BYTE   W12
 BYTE   Fs3
 BYTE   W12
 BYTE   An3
 BYTE   W12
 BYTE   Fs3
 BYTE   W12
 BYTE   An3
 BYTE   W12
 BYTE   Dn4
 BYTE   W12
 BYTE   An3
 BYTE   W12
 BYTE   PEND 
// 099   ----------------------------------------
Label_12_014C3EC9:
 BYTE   N02  As3  v108
 BYTE   N68  Cn4  v092
 BYTE   W72
 BYTE   N11  Dn4
 BYTE   W12
 BYTE   Cn4
 BYTE   W12
 BYTE   PEND 
// 100   ----------------------------------------
Label_12_014C3ED6:
 BYTE   N02  Gn3  v108
 BYTE   N68  As3  v092
 BYTE   W72
 BYTE   N23  An3
 BYTE   W24
 BYTE   PEND 
// 101   ----------------------------------------
Label_12_014C3EE1:
 BYTE   N56  Gn3  v092
 BYTE   W60
 BYTE   N11
 BYTE   W12
 BYTE   An3
 BYTE   W12
 BYTE   As3
 BYTE   W12
 BYTE   PEND 
// 102   ----------------------------------------
Label_12_014C3EEC:
 BYTE   N11  An3  v092
 BYTE   W12
 BYTE   En3
 BYTE   W12
 BYTE   Gn3
 BYTE   W12
 BYTE   Fn3
 BYTE   W12
 BYTE   En3
 BYTE   W12
 BYTE   Dn3
 BYTE   W12
 BYTE   En3
 BYTE   W12
 BYTE   Fn3
 BYTE   W12
 BYTE   PEND 
// 103   ----------------------------------------
Label_12_014C3EFF:
 BYTE   N11  Dn3  v092
 BYTE   W12
 BYTE   An2
 BYTE   W12
 BYTE   Dn3
 BYTE   W12
 BYTE   Fn3
 BYTE   W12
 BYTE   Gn3
 BYTE   W12
 BYTE   Dn3
 BYTE   W12
 BYTE   Gn3
 BYTE   W12
 BYTE   As3
 BYTE   W12
 BYTE   PEND 
// 104   ----------------------------------------
Label_12_014C3F12:
 BYTE   N02  Cn4  v108
 BYTE   N68  Dn4  v092
 BYTE   W72
 BYTE   N11
 BYTE   W12
 BYTE   Cn4
 BYTE   W12
 BYTE   PEND 
// 105   ----------------------------------------
Label_12_014C3F1E:
 BYTE   N68  As3  v092
 BYTE   W72
 BYTE   N11  En3
 BYTE   W12
 BYTE   Gn3
 BYTE   W12
 BYTE   PEND 
// 106   ----------------------------------------
Label_12_014C3F28:
 BYTE   N11  An3  v092
 BYTE   W12
 BYTE   Dn3
 BYTE   W12
 BYTE   En3
 BYTE   W12
 BYTE   Gs3
 BYTE   W12
 BYTE   En3
 BYTE   W12
 BYTE   Gs3
 BYTE   W12
 BYTE   En4
 BYTE   W12
 BYTE   Bn3
 BYTE   W12
 BYTE   PEND 
// 107   ----------------------------------------
Label_12_014C3F3B:
 BYTE   N02  Cs4  v108
 BYTE   N68  Dn4  v092
 BYTE   W72
 BYTE   N11  Cs4
 BYTE   W12
 BYTE   Bn3
 BYTE   W12
 BYTE   PEND 
// 108   ----------------------------------------
Label_12_014C3F48:
 BYTE   N02  Bn3  v108
 BYTE   N92  Cs4  v092
 BYTE   W96
 BYTE   PEND 
// 109   ----------------------------------------
 BYTE   W96
// 110   ----------------------------------------
 BYTE   W96
// 111   ----------------------------------------
 BYTE   W96
// 112   ----------------------------------------
 BYTE   W96
// 113   ----------------------------------------
 BYTE   W96
// 114   ----------------------------------------
 BYTE   W96
// 115   ----------------------------------------
 BYTE   W96
// 116   ----------------------------------------
 BYTE   W96
// 117   ----------------------------------------
 BYTE   W96
// 118   ----------------------------------------
 BYTE   W96
// 119   ----------------------------------------
 BYTE   W96
// 120   ----------------------------------------
 BYTE   W96
// 121   ----------------------------------------
 BYTE   W96
// 122   ----------------------------------------
 BYTE   W96
// 123   ----------------------------------------
 BYTE   W96
// 124   ----------------------------------------
 BYTE   W96
// 125   ----------------------------------------
 BYTE   W96
// 126   ----------------------------------------
 BYTE   W96
// 127   ----------------------------------------
 BYTE   W96
// 128   ----------------------------------------
 BYTE   W96
// 129   ----------------------------------------
 BYTE   W96
// 130   ----------------------------------------
 BYTE   W96
// 131   ----------------------------------------
 BYTE   W96
// 132   ----------------------------------------
 BYTE   W96
// 133   ----------------------------------------
 BYTE   W96
// 134   ----------------------------------------
 BYTE   W96
// 135   ----------------------------------------
 BYTE   W96
// 136   ----------------------------------------
 BYTE   W96
// 137   ----------------------------------------
 BYTE   W96
// 138   ----------------------------------------
 BYTE   W96
// 139   ----------------------------------------
 BYTE   W96
// 140   ----------------------------------------
 BYTE   W96
// 141   ----------------------------------------
 BYTE   W96
// 142   ----------------------------------------
 BYTE   W96
// 143   ----------------------------------------
 BYTE   W96
// 144   ----------------------------------------
 BYTE   W96
// 145   ----------------------------------------
 BYTE   W96
// 146   ----------------------------------------
 BYTE   W96
// 147   ----------------------------------------
 BYTE   W96
// 148   ----------------------------------------
 BYTE   W96
// 149   ----------------------------------------
 BYTE   W96
// 150   ----------------------------------------
 BYTE   W96
// 151   ----------------------------------------
 BYTE   W96
// 152   ----------------------------------------
 BYTE   W96
// 153   ----------------------------------------
 BYTE   W96
// 154   ----------------------------------------
 BYTE   W96
// 155   ----------------------------------------
 BYTE   W96
// 156   ----------------------------------------
 BYTE   W96
// 157   ----------------------------------------
 BYTE   W96
// 158   ----------------------------------------
 BYTE   W96
// 159   ----------------------------------------
 BYTE   W96
// 160   ----------------------------------------
 BYTE   W96
// 161   ----------------------------------------
 BYTE   W96
// 162   ----------------------------------------
 BYTE   W96
// 163   ----------------------------------------
 BYTE   W96
// 164   ----------------------------------------
 BYTE   W96
// 165   ----------------------------------------
 BYTE   W96
// 166   ----------------------------------------
 BYTE   W96
// 167   ----------------------------------------
 BYTE   W96
// 168   ----------------------------------------
 BYTE   W96
// 169   ----------------------------------------
 BYTE   W96
// 170   ----------------------------------------
 BYTE   W96
// 171   ----------------------------------------
 BYTE   W96
// 172   ----------------------------------------
 BYTE   W96
// 173   ----------------------------------------
 BYTE   W96
// 174   ----------------------------------------
 BYTE   W96
// 175   ----------------------------------------
 BYTE   W96
// 176   ----------------------------------------
 BYTE   W96
// 177   ----------------------------------------
 BYTE   PATT
  POIN2 Label_12_014C3E71
// 178   ----------------------------------------
 BYTE   PATT
  POIN2 Label_12_014C3E80
// 179   ----------------------------------------
 BYTE   PATT
  POIN2 Label_12_014C3E93
// 180   ----------------------------------------
 BYTE   PATT
  POIN2 Label_12_014C3E9D
// 181   ----------------------------------------
 BYTE   PATT
  POIN2 Label_12_014C3EA9
// 182   ----------------------------------------
 BYTE   PATT
  POIN2 Label_12_014C3EB6
// 183   ----------------------------------------
 BYTE   PATT
  POIN2 Label_12_014C3EC9
// 184   ----------------------------------------
 BYTE   PATT
  POIN2 Label_12_014C3ED6
// 185   ----------------------------------------
 BYTE   PATT
  POIN2 Label_12_014C3EE1
// 186   ----------------------------------------
 BYTE   PATT
  POIN2 Label_12_014C3EEC
// 187   ----------------------------------------
 BYTE   PATT
  POIN2 Label_12_014C3EFF
// 188   ----------------------------------------
 BYTE   PATT
  POIN2 Label_12_014C3F12
// 189   ----------------------------------------
 BYTE   PATT
  POIN2 Label_12_014C3F1E
// 190   ----------------------------------------
 BYTE   PATT
  POIN2 Label_12_014C3F28
// 191   ----------------------------------------
 BYTE   PATT
  POIN2 Label_12_014C3F3B
// 192   ----------------------------------------
 BYTE   PATT
  POIN2 Label_12_014C3F48
// 193   ----------------------------------------
 BYTE   W96
// 194   ----------------------------------------
 BYTE   W96
// 195   ----------------------------------------
 BYTE   W96
// 196   ----------------------------------------
 BYTE   W96
// 197   ----------------------------------------
 BYTE   W96
// 198   ----------------------------------------
 BYTE   W96
// 199   ----------------------------------------
 BYTE   W96
// 200   ----------------------------------------
 BYTE   W96
// 201   ----------------------------------------
 BYTE   W96
// 202   ----------------------------------------
 BYTE   W96
// 203   ----------------------------------------
 BYTE   W96
// 204   ----------------------------------------
 BYTE   W96
// 205   ----------------------------------------
 BYTE   W96
// 206   ----------------------------------------
 BYTE   W96
// 207   ----------------------------------------
 BYTE   W96
// 208   ----------------------------------------
 BYTE   W96
// 209   ----------------------------------------
 BYTE   W96
// 210   ----------------------------------------
 BYTE   W96
// 211   ----------------------------------------
 BYTE   W96
// 212   ----------------------------------------
 BYTE   W96
// 213   ----------------------------------------
 BYTE   W96
// 214   ----------------------------------------
 BYTE   W96
// 215   ----------------------------------------
 BYTE   W96
// 216   ----------------------------------------
 BYTE   W96
// 217   ----------------------------------------
 BYTE   W96
// 218   ----------------------------------------
 BYTE   W96
// 219   ----------------------------------------
 BYTE   W96
// 220   ----------------------------------------
 BYTE   W96
// 221   ----------------------------------------
 BYTE   W96
// 222   ----------------------------------------
 BYTE   W96
// 223   ----------------------------------------
 BYTE   W96
// 224   ----------------------------------------
 BYTE   W96
// 225   ----------------------------------------
 BYTE   W96
// 226   ----------------------------------------
 BYTE   W96
// 227   ----------------------------------------
 BYTE   W96
// 228   ----------------------------------------
 BYTE   W96
// 229   ----------------------------------------
 BYTE   W96
// 230   ----------------------------------------
 BYTE   W96
// 231   ----------------------------------------
 BYTE   W96
// 232   ----------------------------------------
 BYTE   W96
// 233   ----------------------------------------
 BYTE   W96
// 234   ----------------------------------------
 BYTE   W96
// 235   ----------------------------------------
 BYTE   W96
// 236   ----------------------------------------
 BYTE   W96
// 237   ----------------------------------------
 BYTE   W96
// 238   ----------------------------------------
 BYTE   W96
// 239   ----------------------------------------
 BYTE   W96
// 240   ----------------------------------------
 BYTE   W96
// 241   ----------------------------------------
 BYTE   W96
// 242   ----------------------------------------
 BYTE   W96
// 243   ----------------------------------------
 BYTE   W96
// 244   ----------------------------------------
 BYTE   W96
// 245   ----------------------------------------
 BYTE   W96
// 246   ----------------------------------------
 BYTE   W96
// 247   ----------------------------------------
 BYTE   W96
// 248   ----------------------------------------
 BYTE   W96
// 249   ----------------------------------------
 BYTE   W96
// 250   ----------------------------------------
 BYTE   W96
// 251   ----------------------------------------
 BYTE   W96
// 252   ----------------------------------------
 BYTE   W96
// 253   ----------------------------------------
 BYTE   W96
// 254   ----------------------------------------
 BYTE   W96
// 255   ----------------------------------------
 BYTE   W96
// 256   ----------------------------------------
 BYTE   W96
// 257   ----------------------------------------
 BYTE   GoTo
  POIN2 Label_12_014C3E25
// 258   ----------------------------------------
 BYTE   W96
// 259   ----------------------------------------
 BYTE   W96
// 260   ----------------------------------------
 BYTE   W96
// 261   ----------------------------------------
 BYTE   W96
// 262   ----------------------------------------
 BYTE   W96
// 263   ----------------------------------------
 BYTE   W96
// 264   ----------------------------------------
 BYTE   W96
// 265   ----------------------------------------
 BYTE   W96
// 266   ----------------------------------------
 BYTE   W92
 BYTE   W03
 BYTE   FINE

//**************** Track 14 (Midi-Chn.13) ****************//

GuiltyGearXDizzysThemeMeatOfJustice_014:
// 000   ----------------------------------------
 BYTE   KEYSH   GuiltyGearXDizzysThemeMeatOfJustice_key+0
 BYTE   VOICE   110
 BYTE   PAN   c_v+15
 BYTE   VOL   40*GuiltyGearXDizzysThemeMeatOfJustice_mvl/mxv
 BYTE   W96
// 001   ----------------------------------------
 BYTE   W96
// 002   ----------------------------------------
 BYTE   W96
// 003   ----------------------------------------
 BYTE   W96
// 004   ----------------------------------------
 BYTE   W96
// 005   ----------------------------------------
 BYTE   W96
// 006   ----------------------------------------
 BYTE   W96
// 007   ----------------------------------------
 BYTE   W96
// 008   ----------------------------------------
 BYTE   W96
// 009   ----------------------------------------
 BYTE   W96
// 010   ----------------------------------------
 BYTE   W96
// 011   ----------------------------------------
 BYTE   W96
// 012   ----------------------------------------
 BYTE   W96
// 013   ----------------------------------------
 BYTE   W96
// 014   ----------------------------------------
 BYTE   W96
// 015   ----------------------------------------
 BYTE   W96
// 016   ----------------------------------------
 BYTE   W96
// 017   ----------------------------------------
Label_13_014C404D:
 BYTE   W96
// 018   ----------------------------------------
 BYTE   W96
// 019   ----------------------------------------
 BYTE   W96
// 020   ----------------------------------------
 BYTE   W96
// 021   ----------------------------------------
 BYTE   W96
// 022   ----------------------------------------
 BYTE   W96
// 023   ----------------------------------------
 BYTE   W96
// 024   ----------------------------------------
 BYTE   W96
// 025   ----------------------------------------
 BYTE   W96
// 026   ----------------------------------------
 BYTE   W96
// 027   ----------------------------------------
 BYTE   W96
// 028   ----------------------------------------
 BYTE   W96
// 029   ----------------------------------------
 BYTE   W96
// 030   ----------------------------------------
 BYTE   W96
// 031   ----------------------------------------
 BYTE   W96
// 032   ----------------------------------------
 BYTE   W96
// 033   ----------------------------------------
 BYTE   W96
// 034   ----------------------------------------
 BYTE   W96
// 035   ----------------------------------------
 BYTE   W96
// 036   ----------------------------------------
 BYTE   W96
// 037   ----------------------------------------
 BYTE   W96
// 038   ----------------------------------------
 BYTE   W96
// 039   ----------------------------------------
 BYTE   W96
// 040   ----------------------------------------
 BYTE   W96
// 041   ----------------------------------------
 BYTE   W96
// 042   ----------------------------------------
 BYTE   W96
// 043   ----------------------------------------
 BYTE   W96
// 044   ----------------------------------------
 BYTE   W96
// 045   ----------------------------------------
 BYTE   W96
// 046   ----------------------------------------
 BYTE   W96
// 047   ----------------------------------------
 BYTE   W96
// 048   ----------------------------------------
 BYTE   W96
// 049   ----------------------------------------
 BYTE   W96
// 050   ----------------------------------------
 BYTE   W96
// 051   ----------------------------------------
 BYTE   W96
// 052   ----------------------------------------
 BYTE   W96
// 053   ----------------------------------------
 BYTE   W96
// 054   ----------------------------------------
 BYTE   W96
// 055   ----------------------------------------
 BYTE   W96
// 056   ----------------------------------------
 BYTE   W96
// 057   ----------------------------------------
 BYTE   W96
// 058   ----------------------------------------
 BYTE   W96
// 059   ----------------------------------------
 BYTE   W96
// 060   ----------------------------------------
 BYTE   W96
// 061   ----------------------------------------
 BYTE   W96
// 062   ----------------------------------------
 BYTE   W96
// 063   ----------------------------------------
 BYTE   W96
// 064   ----------------------------------------
 BYTE   W96
// 065   ----------------------------------------
 BYTE   W96
// 066   ----------------------------------------
 BYTE   W96
// 067   ----------------------------------------
 BYTE   W96
// 068   ----------------------------------------
 BYTE   W96
// 069   ----------------------------------------
 BYTE   W96
// 070   ----------------------------------------
 BYTE   W96
// 071   ----------------------------------------
 BYTE   W96
// 072   ----------------------------------------
 BYTE   W96
// 073   ----------------------------------------
 BYTE   W96
// 074   ----------------------------------------
 BYTE   W96
// 075   ----------------------------------------
 BYTE   W96
// 076   ----------------------------------------
 BYTE   W96
// 077   ----------------------------------------
 BYTE   W96
// 078   ----------------------------------------
 BYTE   W96
// 079   ----------------------------------------
 BYTE   W96
// 080   ----------------------------------------
 BYTE   W96
// 081   ----------------------------------------
 BYTE   W96
// 082   ----------------------------------------
 BYTE   W96
// 083   ----------------------------------------
 BYTE   W96
// 084   ----------------------------------------
 BYTE   W96
// 085   ----------------------------------------
 BYTE   W96
// 086   ----------------------------------------
 BYTE   W96
// 087   ----------------------------------------
 BYTE   W96
// 088   ----------------------------------------
 BYTE   W96
// 089   ----------------------------------------
 BYTE   W96
// 090   ----------------------------------------
 BYTE   W96
// 091   ----------------------------------------
 BYTE   W96
// 092   ----------------------------------------
 BYTE   W96
// 093   ----------------------------------------
Label_13_014C4099:
 BYTE   N56  Dn4  v092
 BYTE   W60
 BYTE   N11  An3
 BYTE   W12
 BYTE   Dn4
 BYTE   W12
 BYTE   En4
 BYTE   W12
 BYTE   PEND 
// 094   ----------------------------------------
Label_13_014C40A5:
 BYTE   N23  Fn4  v092
 BYTE   W24
 BYTE   N11  Gn4
 BYTE   W12
 BYTE   Fn4
 BYTE   W12
 BYTE   N32  En4
 BYTE   W36
 BYTE   N11  Fn4
 BYTE   W12
 BYTE   PEND 
// 095   ----------------------------------------
Label_13_014C40B5:
 BYTE   N44  En4  v092
 BYTE   W48
 BYTE   An3
 BYTE   W48
 BYTE   PEND 
// 096   ----------------------------------------
Label_13_014C40BC:
 BYTE   N68  An4  v092
 BYTE   W72
 BYTE   N11
 BYTE   W12
 BYTE   Gn4
 BYTE   W12
 BYTE   PEND 
// 097   ----------------------------------------
Label_13_014C40C5:
 BYTE   N68  Fs4  v092
 BYTE   W72
 BYTE   N11  Dn4
 BYTE   W12
 BYTE   Fs4
 BYTE   W12
 BYTE   PEND 
// 098   ----------------------------------------
Label_13_014C40CF:
 BYTE   N11  An4  v092
 BYTE   W12
 BYTE   Dn4
 BYTE   W12
 BYTE   Fs4
 BYTE   W12
 BYTE   An4
 BYTE   W12
 BYTE   Fs4
 BYTE   W12
 BYTE   An4
 BYTE   W12
 BYTE   Dn5
 BYTE   W12
 BYTE   An4
 BYTE   W12
 BYTE   PEND 
// 099   ----------------------------------------
Label_13_014C40E2:
 BYTE   N68  Cn5  v092
 BYTE   W72
 BYTE   N11  Dn5
 BYTE   W12
 BYTE   Cn5
 BYTE   W12
 BYTE   PEND 
// 100   ----------------------------------------
Label_13_014C40EC:
 BYTE   N68  As4  v092
 BYTE   W72
 BYTE   N23  An4
 BYTE   W24
 BYTE   PEND 
// 101   ----------------------------------------
Label_13_014C40F4:
 BYTE   N56  Gn4  v092
 BYTE   W60
 BYTE   N11
 BYTE   W12
 BYTE   An4
 BYTE   W12
 BYTE   As4
 BYTE   W12
 BYTE   PEND 
// 102   ----------------------------------------
Label_13_014C40FF:
 BYTE   N11  An4  v092
 BYTE   W12
 BYTE   En4
 BYTE   W12
 BYTE   Gn4
 BYTE   W12
 BYTE   Fn4
 BYTE   W12
 BYTE   En4
 BYTE   W12
 BYTE   Dn4
 BYTE   W12
 BYTE   En4
 BYTE   W12
 BYTE   Fn4
 BYTE   W12
 BYTE   PEND 
// 103   ----------------------------------------
Label_13_014C4112:
 BYTE   N11  Dn4  v092
 BYTE   W12
 BYTE   An3
 BYTE   W12
 BYTE   Dn4
 BYTE   W12
 BYTE   Fn4
 BYTE   W12
 BYTE   Gn4
 BYTE   W12
 BYTE   Dn4
 BYTE   W12
 BYTE   Gn4
 BYTE   W12
 BYTE   As4
 BYTE   W12
 BYTE   PEND 
// 104   ----------------------------------------
Label_13_014C4125:
 BYTE   N68  Dn5  v092
 BYTE   W72
 BYTE   N11
 BYTE   W12
 BYTE   Cn5
 BYTE   W12
 BYTE   PEND 
// 105   ----------------------------------------
Label_13_014C412E:
 BYTE   N68  As4  v092
 BYTE   W72
 BYTE   N11  En4
 BYTE   W12
 BYTE   Gn4
 BYTE   W12
 BYTE   PEND 
// 106   ----------------------------------------
Label_13_014C4138:
 BYTE   N11  An4  v092
 BYTE   W12
 BYTE   Dn4
 BYTE   W12
 BYTE   En4
 BYTE   W12
 BYTE   Gs4
 BYTE   W12
 BYTE   En4
 BYTE   W12
 BYTE   Gs4
 BYTE   W12
 BYTE   En5
 BYTE   W12
 BYTE   Bn4
 BYTE   W12
 BYTE   PEND 
// 107   ----------------------------------------
Label_13_014C414B:
 BYTE   N68  Dn5  v092
 BYTE   W72
 BYTE   N11  Cs5
 BYTE   W12
 BYTE   Bn4
 BYTE   W12
 BYTE   PEND 
// 108   ----------------------------------------
 BYTE   N92  Cs5
 BYTE   W96
// 109   ----------------------------------------
 BYTE   W96
// 110   ----------------------------------------
 BYTE   W96
// 111   ----------------------------------------
 BYTE   W96
// 112   ----------------------------------------
 BYTE   W96
// 113   ----------------------------------------
 BYTE   W96
// 114   ----------------------------------------
 BYTE   W96
// 115   ----------------------------------------
 BYTE   W96
// 116   ----------------------------------------
 BYTE   W96
// 117   ----------------------------------------
 BYTE   W96
// 118   ----------------------------------------
 BYTE   W96
// 119   ----------------------------------------
 BYTE   W96
// 120   ----------------------------------------
 BYTE   W96
// 121   ----------------------------------------
 BYTE   W96
// 122   ----------------------------------------
 BYTE   W96
// 123   ----------------------------------------
 BYTE   W96
// 124   ----------------------------------------
 BYTE   W96
// 125   ----------------------------------------
 BYTE   W96
// 126   ----------------------------------------
 BYTE   W96
// 127   ----------------------------------------
 BYTE   W96
// 128   ----------------------------------------
 BYTE   W96
// 129   ----------------------------------------
 BYTE   W96
// 130   ----------------------------------------
 BYTE   W96
// 131   ----------------------------------------
 BYTE   W96
// 132   ----------------------------------------
 BYTE   W96
// 133   ----------------------------------------
 BYTE   W96
// 134   ----------------------------------------
 BYTE   W96
// 135   ----------------------------------------
 BYTE   W96
// 136   ----------------------------------------
 BYTE   W96
// 137   ----------------------------------------
 BYTE   W96
// 138   ----------------------------------------
 BYTE   W96
// 139   ----------------------------------------
 BYTE   W96
// 140   ----------------------------------------
 BYTE   W96
// 141   ----------------------------------------
 BYTE   W96
// 142   ----------------------------------------
 BYTE   W96
// 143   ----------------------------------------
 BYTE   W96
// 144   ----------------------------------------
 BYTE   W96
// 145   ----------------------------------------
 BYTE   W96
// 146   ----------------------------------------
 BYTE   W96
// 147   ----------------------------------------
 BYTE   W96
// 148   ----------------------------------------
 BYTE   W96
// 149   ----------------------------------------
 BYTE   W96
// 150   ----------------------------------------
 BYTE   W96
// 151   ----------------------------------------
 BYTE   W96
// 152   ----------------------------------------
 BYTE   W96
// 153   ----------------------------------------
 BYTE   W96
// 154   ----------------------------------------
 BYTE   W96
// 155   ----------------------------------------
 BYTE   W96
// 156   ----------------------------------------
 BYTE   W96
// 157   ----------------------------------------
 BYTE   W96
// 158   ----------------------------------------
 BYTE   W96
// 159   ----------------------------------------
 BYTE   W96
// 160   ----------------------------------------
 BYTE   W96
// 161   ----------------------------------------
 BYTE   W96
// 162   ----------------------------------------
 BYTE   W96
// 163   ----------------------------------------
 BYTE   W96
// 164   ----------------------------------------
 BYTE   W96
// 165   ----------------------------------------
 BYTE   W96
// 166   ----------------------------------------
 BYTE   W96
// 167   ----------------------------------------
 BYTE   W96
// 168   ----------------------------------------
 BYTE   W96
// 169   ----------------------------------------
 BYTE   W96
// 170   ----------------------------------------
 BYTE   W96
// 171   ----------------------------------------
 BYTE   W96
// 172   ----------------------------------------
 BYTE   W96
// 173   ----------------------------------------
 BYTE   W96
// 174   ----------------------------------------
 BYTE   W96
// 175   ----------------------------------------
 BYTE   W96
// 176   ----------------------------------------
 BYTE   W96
// 177   ----------------------------------------
 BYTE   PATT
  POIN2 Label_13_014C4099
// 178   ----------------------------------------
 BYTE   PATT
  POIN2 Label_13_014C40A5
// 179   ----------------------------------------
 BYTE   PATT
  POIN2 Label_13_014C40B5
// 180   ----------------------------------------
 BYTE   PATT
  POIN2 Label_13_014C40BC
// 181   ----------------------------------------
 BYTE   PATT
  POIN2 Label_13_014C40C5
// 182   ----------------------------------------
 BYTE   PATT
  POIN2 Label_13_014C40CF
// 183   ----------------------------------------
 BYTE   PATT
  POIN2 Label_13_014C40E2
// 184   ----------------------------------------
 BYTE   PATT
  POIN2 Label_13_014C40EC
// 185   ----------------------------------------
 BYTE   PATT
  POIN2 Label_13_014C40F4
// 186   ----------------------------------------
 BYTE   PATT
  POIN2 Label_13_014C40FF
// 187   ----------------------------------------
 BYTE   PATT
  POIN2 Label_13_014C4112
// 188   ----------------------------------------
 BYTE   PATT
  POIN2 Label_13_014C4125
// 189   ----------------------------------------
 BYTE   PATT
  POIN2 Label_13_014C412E
// 190   ----------------------------------------
 BYTE   PATT
  POIN2 Label_13_014C4138
// 191   ----------------------------------------
 BYTE   PATT
  POIN2 Label_13_014C414B
// 192   ----------------------------------------
 BYTE   N92  Cs5  v092
 BYTE   W96
// 193   ----------------------------------------
 BYTE   W96
// 194   ----------------------------------------
 BYTE   W96
// 195   ----------------------------------------
 BYTE   W96
// 196   ----------------------------------------
 BYTE   W96
// 197   ----------------------------------------
 BYTE   W96
// 198   ----------------------------------------
 BYTE   W96
// 199   ----------------------------------------
 BYTE   W96
// 200   ----------------------------------------
 BYTE   W96
// 201   ----------------------------------------
 BYTE   W96
// 202   ----------------------------------------
 BYTE   W96
// 203   ----------------------------------------
 BYTE   W96
// 204   ----------------------------------------
 BYTE   W96
// 205   ----------------------------------------
 BYTE   W96
// 206   ----------------------------------------
 BYTE   W96
// 207   ----------------------------------------
 BYTE   W96
// 208   ----------------------------------------
 BYTE   W96
// 209   ----------------------------------------
 BYTE   W96
// 210   ----------------------------------------
 BYTE   W96
// 211   ----------------------------------------
 BYTE   W96
// 212   ----------------------------------------
 BYTE   W96
// 213   ----------------------------------------
 BYTE   W96
// 214   ----------------------------------------
 BYTE   W96
// 215   ----------------------------------------
 BYTE   W96
// 216   ----------------------------------------
 BYTE   W96
// 217   ----------------------------------------
 BYTE   W96
// 218   ----------------------------------------
 BYTE   W96
// 219   ----------------------------------------
 BYTE   W96
// 220   ----------------------------------------
 BYTE   W96
// 221   ----------------------------------------
 BYTE   W96
// 222   ----------------------------------------
 BYTE   W96
// 223   ----------------------------------------
 BYTE   W96
// 224   ----------------------------------------
 BYTE   W96
// 225   ----------------------------------------
 BYTE   W96
// 226   ----------------------------------------
 BYTE   W96
// 227   ----------------------------------------
 BYTE   W96
// 228   ----------------------------------------
 BYTE   W96
// 229   ----------------------------------------
 BYTE   W96
// 230   ----------------------------------------
 BYTE   W96
// 231   ----------------------------------------
 BYTE   W96
// 232   ----------------------------------------
 BYTE   W96
// 233   ----------------------------------------
 BYTE   W96
// 234   ----------------------------------------
 BYTE   W96
// 235   ----------------------------------------
 BYTE   W96
// 236   ----------------------------------------
 BYTE   W96
// 237   ----------------------------------------
 BYTE   W96
// 238   ----------------------------------------
 BYTE   W96
// 239   ----------------------------------------
 BYTE   W96
// 240   ----------------------------------------
 BYTE   W96
// 241   ----------------------------------------
 BYTE   W96
// 242   ----------------------------------------
 BYTE   W96
// 243   ----------------------------------------
 BYTE   W96
// 244   ----------------------------------------
 BYTE   W96
// 245   ----------------------------------------
 BYTE   W96
// 246   ----------------------------------------
 BYTE   W96
// 247   ----------------------------------------
 BYTE   W96
// 248   ----------------------------------------
 BYTE   W96
// 249   ----------------------------------------
 BYTE   W96
// 250   ----------------------------------------
 BYTE   W96
// 251   ----------------------------------------
 BYTE   W96
// 252   ----------------------------------------
 BYTE   W96
// 253   ----------------------------------------
 BYTE   W96
// 254   ----------------------------------------
 BYTE   W96
// 255   ----------------------------------------
 BYTE   W96
// 256   ----------------------------------------
 BYTE   W96
// 257   ----------------------------------------
 BYTE   GoTo
  POIN2 Label_13_014C404D
// 258   ----------------------------------------
 BYTE   W96
// 259   ----------------------------------------
 BYTE   W96
// 260   ----------------------------------------
 BYTE   W96
// 261   ----------------------------------------
 BYTE   W96
// 262   ----------------------------------------
 BYTE   W96
// 263   ----------------------------------------
 BYTE   W96
// 264   ----------------------------------------
 BYTE   W96
// 265   ----------------------------------------
 BYTE   W96
// 266   ----------------------------------------
 BYTE   W92
 BYTE   W03
 BYTE   FINE

//******************************************************//
	ALIGN 4

GuiltyGearXDizzysThemeMeatOfJustice:
	BYTE	14	// NumTrks
	BYTE	0	// NumBlks
	BYTE	GuiltyGearXDizzysThemeMeatOfJustice_pri	// Priority
	BYTE	GuiltyGearXDizzysThemeMeatOfJustice_rev	// Reverb.
    
	POIN2	GuiltyGearXDizzysThemeMeatOfJustice_grp
    
	POIN2	GuiltyGearXDizzysThemeMeatOfJustice_001
	POIN2	GuiltyGearXDizzysThemeMeatOfJustice_002
	POIN2	GuiltyGearXDizzysThemeMeatOfJustice_003
	POIN2	GuiltyGearXDizzysThemeMeatOfJustice_004
	POIN2	GuiltyGearXDizzysThemeMeatOfJustice_005
	POIN2	GuiltyGearXDizzysThemeMeatOfJustice_006
	POIN2	GuiltyGearXDizzysThemeMeatOfJustice_007
	POIN2	GuiltyGearXDizzysThemeMeatOfJustice_008
	POIN2	GuiltyGearXDizzysThemeMeatOfJustice_009
	POIN2	GuiltyGearXDizzysThemeMeatOfJustice_010
	POIN2	GuiltyGearXDizzysThemeMeatOfJustice_011
	POIN2	GuiltyGearXDizzysThemeMeatOfJustice_012
	POIN2	GuiltyGearXDizzysThemeMeatOfJustice_013
	POIN2	GuiltyGearXDizzysThemeMeatOfJustice_014

	
