//Event file generated from Sappy .s format.
	#include "MPlayDef.event"

	#define	GuiltyGearXMaysThemeMeatOfJustice_grp  voicegroup000
	#define	GuiltyGearXMaysThemeMeatOfJustice_pri  0
	#define	GuiltyGearXMaysThemeMeatOfJustice_rev  0
	#define	GuiltyGearXMaysThemeMeatOfJustice_mvl  127
	#define	GuiltyGearXMaysThemeMeatOfJustice_key  0
	#define	GuiltyGearXMaysThemeMeatOfJustice_tbs  1
	#define	GuiltyGearXMaysThemeMeatOfJustice_exg  0
	#define	GuiltyGearXMaysThemeMeatOfJustice_cmp  1

	// .rodata
	//	GuiltyGearXMaysThemeMeatOfJustice
	ALIGN 4


//**************** Track 1 (Midi-Chn.0) ****************//

GuiltyGearXMaysThemeMeatOfJustice_001:
// 000   ----------------------------------------
 BYTE   KEYSH   GuiltyGearXMaysThemeMeatOfJustice_key+0
 BYTE   TEMPO   194*GuiltyGearXMaysThemeMeatOfJustice_tbs/2
 BYTE   VOICE   127
 BYTE   VOL   40*GuiltyGearXMaysThemeMeatOfJustice_mvl/mxv
 BYTE   W12
 BYTE   N05  As1  v092
 BYTE   W24
 BYTE   N05
 BYTE   W24
 BYTE   Dn1
 BYTE   W12
 BYTE   N05
 BYTE   W12
 BYTE   N05
 BYTE   W12
// 001   ----------------------------------------
Label_0_014C5AD1:
 BYTE   N05  Cn1  v092
 BYTE   N05  Cs2
 BYTE   N05  Gn2
 BYTE   W24
 BYTE   Cn1
 BYTE   W12
 BYTE   Dn1
 BYTE   N05  As1
 BYTE   W24
 BYTE   Cn1
 BYTE   N05  As1
 BYTE   W12
 BYTE   Cn1
 BYTE   W12
 BYTE   Dn1
 BYTE   N05  As1
 BYTE   W12
 BYTE   PEND 
// 002   ----------------------------------------
Label_0_014C5AEA:
 BYTE   W12
 BYTE   N05  Cn1  v092
 BYTE   N05  As1
 BYTE   W12
 BYTE   Cn1
 BYTE   W12
 BYTE   Dn1
 BYTE   N05  As1
 BYTE   W12
 BYTE   Cn1
 BYTE   W12
 BYTE   As1
 BYTE   W12
 BYTE   Cn1
 BYTE   W12
 BYTE   Dn1
 BYTE   N05  As1
 BYTE   W12
 BYTE   PEND 
// 003   ----------------------------------------
Label_0_014C5B02:
 BYTE   N05  Cn1  v092
 BYTE   N05  Gn2
 BYTE   N05  An2
 BYTE   W24
 BYTE   Cn1
 BYTE   W12
 BYTE   Dn1
 BYTE   N05  As1
 BYTE   W24
 BYTE   Cn1
 BYTE   N05  As1
 BYTE   W12
 BYTE   Cn1
 BYTE   W12
 BYTE   Dn1
 BYTE   N05  As1
 BYTE   W12
 BYTE   PEND 
// 004   ----------------------------------------
 BYTE   PATT
  POIN2 Label_0_014C5AEA
// 005   ----------------------------------------
 BYTE   PATT
  POIN2 Label_0_014C5AD1
// 006   ----------------------------------------
 BYTE   PATT
  POIN2 Label_0_014C5AEA
// 007   ----------------------------------------
Label_0_014C5B2A:
 BYTE   N05  Cn1  v092
 BYTE   N05  Gn2
 BYTE   N05  An2
 BYTE   W24
 BYTE   Cn1
 BYTE   W12
 BYTE   Dn1
 BYTE   N05  As1
 BYTE   W12
 BYTE   Cn1
 BYTE   W12
 BYTE   N05
 BYTE   N05  As1
 BYTE   W12
 BYTE   Cn1
 BYTE   W12
 BYTE   Dn1
 BYTE   N05  As1
 BYTE   W12
 BYTE   PEND 
// 008   ----------------------------------------
Label_0_014C5B45:
 BYTE   N05  Cn1  v092
 BYTE   N05  Gn2
 BYTE   W24
 BYTE   Cn1
 BYTE   W12
 BYTE   Dn1
 BYTE   N05  As1
 BYTE   W24
 BYTE   Cn1
 BYTE   N05  As1
 BYTE   W12
 BYTE   Dn1
 BYTE   W12
 BYTE   N05
 BYTE   N05  As1
 BYTE   W12
 BYTE   PEND 
// 009   ----------------------------------------
 BYTE   PATT
  POIN2 Label_0_014C5AD1
// 010   ----------------------------------------
 BYTE   PATT
  POIN2 Label_0_014C5AEA
// 011   ----------------------------------------
 BYTE   PATT
  POIN2 Label_0_014C5B02
// 012   ----------------------------------------
 BYTE   PATT
  POIN2 Label_0_014C5AEA
// 013   ----------------------------------------
 BYTE   PATT
  POIN2 Label_0_014C5AD1
// 014   ----------------------------------------
 BYTE   PATT
  POIN2 Label_0_014C5AEA
// 015   ----------------------------------------
 BYTE   PATT
  POIN2 Label_0_014C5B2A
// 016   ----------------------------------------
Label_0_014C5B7F:
 BYTE   N05  Cn1  v092
 BYTE   N05  Gn2
 BYTE   W24
 BYTE   Cn1
 BYTE   W12
 BYTE   Dn1
 BYTE   N05  As1
 BYTE   W24
 BYTE   Cn1
 BYTE   N05  Dn1
 BYTE   N05  As1
 BYTE   W24
 BYTE   Cn1
 BYTE   N05  Dn1
 BYTE   N05  As1
 BYTE   W12
 BYTE   PEND 
// 017   ----------------------------------------
Label_0_014C5B98:
 BYTE   N05  Cn1  v092
 BYTE   N11  Cs2
 BYTE   N05  Gn2
 BYTE   W24
 BYTE   Fs1
 BYTE   W12
 BYTE   Dn1
 BYTE   N05  Fs1
 BYTE   W12
 BYTE   N05
 BYTE   W12
 BYTE   Cn1
 BYTE   N05  Fs1  v112
 BYTE   W12
 BYTE   Fs1  v092
 BYTE   W12
 BYTE   Dn1
 BYTE   N05  Fs1
 BYTE   W12
 BYTE   PEND 
// 018   ----------------------------------------
Label_0_014C5BB5:
 BYTE   N05  Fs1  v112
 BYTE   W12
 BYTE   Cn1  v092
 BYTE   N05  Fs1
 BYTE   W12
 BYTE   N05
 BYTE   W12
 BYTE   Dn1
 BYTE   N05  Fs1  v112
 BYTE   W12
 BYTE   Fs1  v092
 BYTE   W12
 BYTE   Cn1
 BYTE   N05  Fs1
 BYTE   W12
 BYTE   As1
 BYTE   W12
 BYTE   Dn1
 BYTE   N05  Fs1
 BYTE   W12
 BYTE   PEND 
// 019   ----------------------------------------
Label_0_014C5BD3:
 BYTE   N05  Cn1  v092
 BYTE   N05  As1
 BYTE   W24
 BYTE   Fs1
 BYTE   W12
 BYTE   Dn1
 BYTE   N05  Fs1
 BYTE   W12
 BYTE   N05
 BYTE   W12
 BYTE   Cn1
 BYTE   N05  Fs1  v112
 BYTE   W12
 BYTE   Fs1  v092
 BYTE   W12
 BYTE   Dn1
 BYTE   N05  Fs1
 BYTE   W12
 BYTE   PEND 
// 020   ----------------------------------------
 BYTE   PATT
  POIN2 Label_0_014C5BB5
// 021   ----------------------------------------
 BYTE   PATT
  POIN2 Label_0_014C5BD3
// 022   ----------------------------------------
 BYTE   PATT
  POIN2 Label_0_014C5BB5
// 023   ----------------------------------------
Label_0_014C5BFD:
 BYTE   N05  Cn1  v092
 BYTE   N05  Cs2
 BYTE   N05  Gn2
 BYTE   W24
 BYTE   Fs1
 BYTE   W12
 BYTE   Dn1
 BYTE   N05  Fs1
 BYTE   W12
 BYTE   N05
 BYTE   W12
 BYTE   Cn1
 BYTE   N05  Fs1  v112
 BYTE   W12
 BYTE   As1  v092
 BYTE   W12
 BYTE   Cn1
 BYTE   N05  Fs1
 BYTE   W12
 BYTE   PEND 
// 024   ----------------------------------------
Label_0_014C5C1A:
 BYTE   N05  Cn1  v092
 BYTE   N05  Gn2
 BYTE   N05  An2
 BYTE   W24
 BYTE   Fs1
 BYTE   W12
 BYTE   Dn1
 BYTE   N05  Fs1  v112
 BYTE   W12
 BYTE   Fs1  v092
 BYTE   W12
 BYTE   Cn1
 BYTE   N05  Fs1
 BYTE   W12
 BYTE   Cn1
 BYTE   N05  As1
 BYTE   W12
 BYTE   Dn1
 BYTE   N05  Fs1
 BYTE   W12
 BYTE   PEND 
// 025   ----------------------------------------
 BYTE   PATT
  POIN2 Label_0_014C5B98
// 026   ----------------------------------------
 BYTE   PATT
  POIN2 Label_0_014C5BB5
// 027   ----------------------------------------
 BYTE   PATT
  POIN2 Label_0_014C5BD3
// 028   ----------------------------------------
 BYTE   PATT
  POIN2 Label_0_014C5BB5
// 029   ----------------------------------------
 BYTE   PATT
  POIN2 Label_0_014C5BD3
// 030   ----------------------------------------
 BYTE   PATT
  POIN2 Label_0_014C5BB5
// 031   ----------------------------------------
 BYTE   PATT
  POIN2 Label_0_014C5BFD
// 032   ----------------------------------------
Label_0_014C5C5C:
 BYTE   N05  Cn1  v092
 BYTE   N05  An1
 BYTE   N05  Gn2
 BYTE   N05  An2
 BYTE   W24
 BYTE   Cn1
 BYTE   N05  Fn1
 BYTE   W12
 BYTE   Cn1
 BYTE   N05  Fn1
 BYTE   W12
 BYTE   Cn1
 BYTE   N05  Bn1
 BYTE   W12
 BYTE   Cn1
 BYTE   N05  An1
 BYTE   W12
 BYTE   Cn1
 BYTE   N05  Gn1
 BYTE   W12
 BYTE   Cn1
 BYTE   N05  Fn1
 BYTE   W12
 BYTE   PEND 
// 033   ----------------------------------------
 BYTE   PATT
  POIN2 Label_0_014C5AD1
// 034   ----------------------------------------
 BYTE   PATT
  POIN2 Label_0_014C5AEA
// 035   ----------------------------------------
Label_0_014C5C89:
 BYTE   N05  Cn1  v092
 BYTE   N05  As1  v100
 BYTE   W24
 BYTE   Cn1  v092
 BYTE   W12
 BYTE   Dn1
 BYTE   N05  As1
 BYTE   W24
 BYTE   Cn1
 BYTE   N05  As1
 BYTE   W12
 BYTE   Cn1
 BYTE   W12
 BYTE   Dn1
 BYTE   N05  As1
 BYTE   W12
 BYTE   PEND 
// 036   ----------------------------------------
 BYTE   PATT
  POIN2 Label_0_014C5AEA
// 037   ----------------------------------------
 BYTE   PATT
  POIN2 Label_0_014C5C89
// 038   ----------------------------------------
 BYTE   PATT
  POIN2 Label_0_014C5AEA
// 039   ----------------------------------------
Label_0_014C5CB1:
 BYTE   N05  Cn1  v092
 BYTE   N05  Gn2  v100
 BYTE   W24
 BYTE   N11  Cn1  v092
 BYTE   W12
 BYTE   N05  Dn1
 BYTE   N05  As1
 BYTE   W24
 BYTE   Cn1
 BYTE   N05  As1
 BYTE   W24
 BYTE   N11  Cn1
 BYTE   N05  As1
 BYTE   W12
 BYTE   PEND 
// 040   ----------------------------------------
Label_0_014C5CCB:
 BYTE   N11  Dn1  v092
 BYTE   N11  Cs2
 BYTE   N11  Gn2
 BYTE   W24
 BYTE   N05  Cn1
 BYTE   W12
 BYTE   Dn1
 BYTE   N05  As1
 BYTE   W12
 BYTE   Cn1
 BYTE   W12
 BYTE   As1
 BYTE   W12
 BYTE   Cn1
 BYTE   W12
 BYTE   Dn1
 BYTE   N05  As1
 BYTE   W12
 BYTE   PEND 
// 041   ----------------------------------------
Label_0_014C5CE5:
 BYTE   N11  Dn1  v092
 BYTE   N11  Gn2
 BYTE   N11  An2
 BYTE   W96
 BYTE   PEND 
// 042   ----------------------------------------
 BYTE   W96
// 043   ----------------------------------------
Label_0_014C5CEF:
 BYTE   N05  Cn1  v092
 BYTE   N05  Cs2
 BYTE   N05  Gn2
 BYTE   W24
 BYTE   Cn1
 BYTE   N05  Bn2
 BYTE   W12
 BYTE   Dn1
 BYTE   N05  Bn2  v076
 BYTE   W12
 BYTE   Cn1  v092
 BYTE   N05  Bn2
 BYTE   W12
 BYTE   Cn1
 BYTE   N05  Bn2  v076
 BYTE   W12
 BYTE   Cn1  v092
 BYTE   N05  Bn2
 BYTE   W12
 BYTE   Dn1
 BYTE   N05  Bn2  v076
 BYTE   W12
 BYTE   PEND 
// 044   ----------------------------------------
Label_0_014C5D15:
 BYTE   N05  Cn1  v092
 BYTE   N05  Bn2
 BYTE   W12
 BYTE   Bn2  v076
 BYTE   W12
 BYTE   Cn1  v092
 BYTE   N05  Bn2
 BYTE   W12
 BYTE   Dn1
 BYTE   N05  Bn2  v076
 BYTE   W12
 BYTE   Cn1  v092
 BYTE   N05  Bn2
 BYTE   W12
 BYTE   Cn1
 BYTE   N05  Bn2  v076
 BYTE   W12
 BYTE   Cn1  v092
 BYTE   N05  Bn2
 BYTE   W12
 BYTE   Dn1
 BYTE   N05  Bn2  v076
 BYTE   W12
 BYTE   PEND 
// 045   ----------------------------------------
Label_0_014C5D3D:
 BYTE   N05  Cn1  v092
 BYTE   N05  Gn2
 BYTE   N05  An2
 BYTE   W24
 BYTE   Cn1
 BYTE   N05  Bn2
 BYTE   W12
 BYTE   Dn1
 BYTE   N05  Bn2  v076
 BYTE   W12
 BYTE   Cn1  v092
 BYTE   N05  Bn2
 BYTE   W12
 BYTE   Cn1
 BYTE   N05  Bn2  v076
 BYTE   W12
 BYTE   Cn1  v092
 BYTE   N05  Bn2
 BYTE   W12
 BYTE   Cn1
 BYTE   N05  Bn2  v076
 BYTE   W12
 BYTE   PEND 
// 046   ----------------------------------------
Label_0_014C5D63:
 BYTE   N05  Cn1  v092
 BYTE   N05  Cs2
 BYTE   N05  An2
 BYTE   W24
 BYTE   Cn1
 BYTE   N05  Bn2
 BYTE   W12
 BYTE   Dn1
 BYTE   N05  Bn2  v076
 BYTE   W12
 BYTE   Cn1  v092
 BYTE   N05  Bn2
 BYTE   W12
 BYTE   Cn1
 BYTE   N05  Bn2  v076
 BYTE   W12
 BYTE   Cn1  v092
 BYTE   N05  Bn2
 BYTE   W12
 BYTE   Dn1
 BYTE   N05  Bn2  v076
 BYTE   W12
 BYTE   PEND 
// 047   ----------------------------------------
Label_0_014C5D89:
 BYTE   N05  Cn1  v092
 BYTE   N05  Gn2
 BYTE   N05  An2
 BYTE   W24
 BYTE   Cn1
 BYTE   N05  Bn2
 BYTE   W12
 BYTE   Dn1
 BYTE   N05  Bn2  v076
 BYTE   W12
 BYTE   Cn1  v092
 BYTE   N05  Bn2
 BYTE   W12
 BYTE   Cn1
 BYTE   N05  Bn2  v076
 BYTE   W12
 BYTE   Cn1  v092
 BYTE   N05  Bn2
 BYTE   W12
 BYTE   Dn1
 BYTE   N05  Bn2  v076
 BYTE   W12
 BYTE   PEND 
// 048   ----------------------------------------
Label_0_014C5DAF:
 BYTE   N05  Cn1  v092
 BYTE   N05  Bn2
 BYTE   W12
 BYTE   N11  Bn2  v076
 BYTE   W12
 BYTE   N05  Cn1  v092
 BYTE   N05  Bn2
 BYTE   W12
 BYTE   Dn1
 BYTE   N05  Bn2  v076
 BYTE   W12
 BYTE   Cn1  v092
 BYTE   N05  Bn2
 BYTE   W12
 BYTE   Cn1
 BYTE   N05  Bn2  v076
 BYTE   W12
 BYTE   Cn1  v092
 BYTE   N05  Bn2
 BYTE   W12
 BYTE   Dn1
 BYTE   N05  Bn2  v076
 BYTE   W12
 BYTE   PEND 
// 049   ----------------------------------------
Label_0_014C5DD9:
 BYTE   N05  Cn1  v092
 BYTE   N11  Cs2
 BYTE   N11  An2
 BYTE   W24
 BYTE   N05  Cn1
 BYTE   N05  Bn2
 BYTE   W12
 BYTE   Dn1
 BYTE   N05  Bn2  v076
 BYTE   W12
 BYTE   Cn1  v092
 BYTE   N05  Bn2
 BYTE   W12
 BYTE   Dn1
 BYTE   N05  Bn2  v076
 BYTE   W12
 BYTE   Dn1  v092
 BYTE   N05  Bn2
 BYTE   W12
 BYTE   Dn1
 BYTE   N05  Bn2  v076
 BYTE   W12
 BYTE   PEND 
// 050   ----------------------------------------
Label_0_014C5E00:
 BYTE   N05  Cn1  v092
 BYTE   N05  Gn2
 BYTE   N05  An2
 BYTE   W24
 BYTE   Cn1
 BYTE   N05  Cs2
 BYTE   N05  Gn2
 BYTE   W12
 BYTE   Dn1
 BYTE   W09
 BYTE   Fn1
 BYTE   W03
 BYTE   Cn1
 BYTE   N05  Gn1
 BYTE   W12
 BYTE   Cn1
 BYTE   N05  Gn1
 BYTE   W12
 BYTE   Cn1
 BYTE   N05  Fn1
 BYTE   W12
 BYTE   Cn1
 BYTE   N05  Fn1
 BYTE   W12
 BYTE   PEND 
// 051   ----------------------------------------
 BYTE   PATT
  POIN2 Label_0_014C5CEF
// 052   ----------------------------------------
 BYTE   PATT
  POIN2 Label_0_014C5D15
// 053   ----------------------------------------
 BYTE   PATT
  POIN2 Label_0_014C5D3D
// 054   ----------------------------------------
 BYTE   PATT
  POIN2 Label_0_014C5D63
// 055   ----------------------------------------
 BYTE   PATT
  POIN2 Label_0_014C5D89
// 056   ----------------------------------------
 BYTE   PATT
  POIN2 Label_0_014C5DAF
// 057   ----------------------------------------
 BYTE   PATT
  POIN2 Label_0_014C5DD9
// 058   ----------------------------------------
Label_0_014C5E46:
 BYTE   N05  Cn1  v092
 BYTE   N05  Dn1
 BYTE   N05  Gn2
 BYTE   N05  An2
 BYTE   W24
 BYTE   Cn1
 BYTE   N05  Dn1
 BYTE   N05  Cs2
 BYTE   N05  Gn2
 BYTE   W24
 BYTE   Cn1
 BYTE   N05  Dn1
 BYTE   N05  Gn2
 BYTE   N05  An2
 BYTE   W24
 BYTE   Dn1
 BYTE   W12
 BYTE   N05
 BYTE   W12
 BYTE   PEND 
// 059   ----------------------------------------
 BYTE   PATT
  POIN2 Label_0_014C5AD1
// 060   ----------------------------------------
 BYTE   PATT
  POIN2 Label_0_014C5AEA
// 061   ----------------------------------------
 BYTE   PATT
  POIN2 Label_0_014C5B02
// 062   ----------------------------------------
 BYTE   PATT
  POIN2 Label_0_014C5AEA
// 063   ----------------------------------------
 BYTE   PATT
  POIN2 Label_0_014C5AD1
// 064   ----------------------------------------
 BYTE   PATT
  POIN2 Label_0_014C5AEA
// 065   ----------------------------------------
 BYTE   PATT
  POIN2 Label_0_014C5B2A
// 066   ----------------------------------------
 BYTE   PATT
  POIN2 Label_0_014C5B45
// 067   ----------------------------------------
 BYTE   PATT
  POIN2 Label_0_014C5AD1
// 068   ----------------------------------------
 BYTE   PATT
  POIN2 Label_0_014C5AEA
// 069   ----------------------------------------
 BYTE   PATT
  POIN2 Label_0_014C5B02
// 070   ----------------------------------------
 BYTE   PATT
  POIN2 Label_0_014C5AEA
// 071   ----------------------------------------
 BYTE   PATT
  POIN2 Label_0_014C5AD1
// 072   ----------------------------------------
 BYTE   PATT
  POIN2 Label_0_014C5AEA
// 073   ----------------------------------------
 BYTE   PATT
  POIN2 Label_0_014C5B2A
// 074   ----------------------------------------
 BYTE   PATT
  POIN2 Label_0_014C5B7F
// 075   ----------------------------------------
 BYTE   PATT
  POIN2 Label_0_014C5B98
// 076   ----------------------------------------
 BYTE   PATT
  POIN2 Label_0_014C5BB5
// 077   ----------------------------------------
 BYTE   PATT
  POIN2 Label_0_014C5BD3
// 078   ----------------------------------------
 BYTE   PATT
  POIN2 Label_0_014C5BB5
// 079   ----------------------------------------
 BYTE   PATT
  POIN2 Label_0_014C5BD3
// 080   ----------------------------------------
 BYTE   PATT
  POIN2 Label_0_014C5BB5
// 081   ----------------------------------------
 BYTE   PATT
  POIN2 Label_0_014C5BFD
// 082   ----------------------------------------
 BYTE   PATT
  POIN2 Label_0_014C5C1A
// 083   ----------------------------------------
 BYTE   PATT
  POIN2 Label_0_014C5B98
// 084   ----------------------------------------
 BYTE   PATT
  POIN2 Label_0_014C5BB5
// 085   ----------------------------------------
 BYTE   PATT
  POIN2 Label_0_014C5BD3
// 086   ----------------------------------------
 BYTE   PATT
  POIN2 Label_0_014C5BB5
// 087   ----------------------------------------
 BYTE   PATT
  POIN2 Label_0_014C5BD3
// 088   ----------------------------------------
 BYTE   PATT
  POIN2 Label_0_014C5BB5
// 089   ----------------------------------------
 BYTE   PATT
  POIN2 Label_0_014C5BFD
// 090   ----------------------------------------
 BYTE   PATT
  POIN2 Label_0_014C5C5C
// 091   ----------------------------------------
 BYTE   PATT
  POIN2 Label_0_014C5AD1
// 092   ----------------------------------------
 BYTE   PATT
  POIN2 Label_0_014C5AEA
// 093   ----------------------------------------
 BYTE   PATT
  POIN2 Label_0_014C5C89
// 094   ----------------------------------------
 BYTE   PATT
  POIN2 Label_0_014C5AEA
// 095   ----------------------------------------
 BYTE   PATT
  POIN2 Label_0_014C5C89
// 096   ----------------------------------------
 BYTE   PATT
  POIN2 Label_0_014C5AEA
// 097   ----------------------------------------
 BYTE   PATT
  POIN2 Label_0_014C5CB1
// 098   ----------------------------------------
 BYTE   PATT
  POIN2 Label_0_014C5CCB
// 099   ----------------------------------------
 BYTE   PATT
  POIN2 Label_0_014C5CE5
// 100   ----------------------------------------
 BYTE   W96
// 101   ----------------------------------------
 BYTE   PATT
  POIN2 Label_0_014C5CEF
// 102   ----------------------------------------
 BYTE   PATT
  POIN2 Label_0_014C5D15
// 103   ----------------------------------------
 BYTE   PATT
  POIN2 Label_0_014C5D3D
// 104   ----------------------------------------
 BYTE   PATT
  POIN2 Label_0_014C5D63
// 105   ----------------------------------------
 BYTE   PATT
  POIN2 Label_0_014C5D89
// 106   ----------------------------------------
 BYTE   PATT
  POIN2 Label_0_014C5DAF
// 107   ----------------------------------------
 BYTE   PATT
  POIN2 Label_0_014C5DD9
// 108   ----------------------------------------
 BYTE   PATT
  POIN2 Label_0_014C5E00
// 109   ----------------------------------------
 BYTE   PATT
  POIN2 Label_0_014C5CEF
// 110   ----------------------------------------
 BYTE   PATT
  POIN2 Label_0_014C5D15
// 111   ----------------------------------------
 BYTE   PATT
  POIN2 Label_0_014C5D3D
// 112   ----------------------------------------
 BYTE   PATT
  POIN2 Label_0_014C5D63
// 113   ----------------------------------------
 BYTE   PATT
  POIN2 Label_0_014C5D89
// 114   ----------------------------------------
 BYTE   PATT
  POIN2 Label_0_014C5DAF
// 115   ----------------------------------------
 BYTE   PATT
  POIN2 Label_0_014C5DD9
// 116   ----------------------------------------
 BYTE   PATT
  POIN2 Label_0_014C5E46
// 117   ----------------------------------------
 BYTE   PATT
  POIN2 Label_0_014C5AD1
// 118   ----------------------------------------
 BYTE   PATT
  POIN2 Label_0_014C5AEA
// 119   ----------------------------------------
 BYTE   PATT
  POIN2 Label_0_014C5B02
// 120   ----------------------------------------
 BYTE   PATT
  POIN2 Label_0_014C5AEA
// 121   ----------------------------------------
 BYTE   PATT
  POIN2 Label_0_014C5AD1
// 122   ----------------------------------------
 BYTE   PATT
  POIN2 Label_0_014C5AEA
// 123   ----------------------------------------
 BYTE   N05  Cn1  v092
 BYTE   N05  Gn2
 BYTE   N05  An2
 BYTE   W24
 BYTE   Cn1
 BYTE   W12
 BYTE   Dn1
 BYTE   N05  As1
 BYTE   W12
 BYTE   Dn1
 BYTE   W12
 BYTE   Cn1
 BYTE   N05  As1
 BYTE   W12
 BYTE   Cn1
 BYTE   W12
 BYTE   Dn1
 BYTE   N05  As1
 BYTE   W12
// 124   ----------------------------------------
 BYTE   PATT
  POIN2 Label_0_014C5B45
// 125   ----------------------------------------
 BYTE   PATT
  POIN2 Label_0_014C5AD1
// 126   ----------------------------------------
 BYTE   PATT
  POIN2 Label_0_014C5AEA
// 127   ----------------------------------------
 BYTE   PATT
  POIN2 Label_0_014C5B02
// 128   ----------------------------------------
 BYTE   PATT
  POIN2 Label_0_014C5AEA
// 129   ----------------------------------------
 BYTE   PATT
  POIN2 Label_0_014C5AD1
// 130   ----------------------------------------
 BYTE   PATT
  POIN2 Label_0_014C5AEA
// 131   ----------------------------------------
 BYTE   N05  Cn1  v092
 BYTE   N05  Cs2
 BYTE   N05  Gn2
 BYTE   W24
 BYTE   Cn1
 BYTE   W12
 BYTE   Dn1
 BYTE   N05  As1
 BYTE   W12
 BYTE   Cn1
 BYTE   W12
 BYTE   As1
 BYTE   W12
 BYTE   Cn1
 BYTE   W12
 BYTE   Dn1
 BYTE   N05  As1
 BYTE   W12
// 132   ----------------------------------------
 BYTE   Cn1
 BYTE   N05  Gn2
 BYTE   N11  An2
 BYTE   W24
 BYTE   N05  Cn1
 BYTE   N05  Bn1
 BYTE   W12
 BYTE   Dn1
 BYTE   N11  Bn1
 BYTE   W12
 BYTE   Dn1
 BYTE   N11  An1
 BYTE   W12
 BYTE   N05  Dn1
 BYTE   N11  An1
 BYTE   W12
 BYTE   Dn1
 BYTE   N11  Gn1
 BYTE   W12
 BYTE   N05  Cn1
 BYTE   N11  Fn1
 BYTE   W12
// 133   ----------------------------------------
 BYTE   GoTo
  POIN2 Label_0_014C5AD1
// 134   ----------------------------------------
 BYTE   N11  Dn1  v092
 BYTE   N11  Cs2
 BYTE   N11  Gn2
 BYTE   W24
 BYTE   Cn1
 BYTE   N11  Dn1
 BYTE   N11  Bn1
 BYTE   W12
 BYTE   Cn1
 BYTE   N11  An1
 BYTE   W12
 BYTE   Cn1
 BYTE   N11  Gn1
 BYTE   W12
 BYTE   Dn1
 BYTE   N11  Fn1
 BYTE   N11  Gn2
 BYTE   W12
 BYTE   Cn1
 BYTE   N11  Dn1
 BYTE   W12
 BYTE   Cn1
 BYTE   N11  Dn1
 BYTE   W12
// 135   ----------------------------------------
 BYTE   N11
 BYTE   W17
 BYTE   FINE

//**************** Track 2 (Midi-Chn.1) ****************//

GuiltyGearXMaysThemeMeatOfJustice_002:
// 000   ----------------------------------------
 BYTE   KEYSH   GuiltyGearXMaysThemeMeatOfJustice_key+0
 BYTE   VOICE   39
 BYTE   PAN   c_v+0
 BYTE   VOL   40*GuiltyGearXMaysThemeMeatOfJustice_mvl/mxv
 BYTE   W96
// 001   ----------------------------------------
Label_1_014C2DC5:
 BYTE   N23  Fs0  v092
 BYTE   W24
 BYTE   N05
 BYTE   W12
 BYTE   N05
 BYTE   W12
 BYTE   N05
 BYTE   W12
 BYTE   N05
 BYTE   W12
 BYTE   N05
 BYTE   W12
 BYTE   N05
 BYTE   W12
 BYTE   PEND 
// 002   ----------------------------------------
Label_1_014C2DD6:
 BYTE   N05  Fs0  v092
 BYTE   W12
 BYTE   N05
 BYTE   W12
 BYTE   N05
 BYTE   W12
 BYTE   N05
 BYTE   W12
 BYTE   N05
 BYTE   W12
 BYTE   N05
 BYTE   W12
 BYTE   N05
 BYTE   W12
 BYTE   N05
 BYTE   W12
 BYTE   PEND 
// 003   ----------------------------------------
Label_1_014C2DE9:
 BYTE   N23  Gs0  v092
 BYTE   W24
 BYTE   N05
 BYTE   W12
 BYTE   N05
 BYTE   W12
 BYTE   N05
 BYTE   W12
 BYTE   N05
 BYTE   W12
 BYTE   N05
 BYTE   W12
 BYTE   N05
 BYTE   W12
 BYTE   PEND 
// 004   ----------------------------------------
Label_1_014C2DFA:
 BYTE   N05  Gs0  v092
 BYTE   W12
 BYTE   N05
 BYTE   W12
 BYTE   N05
 BYTE   W12
 BYTE   N05
 BYTE   W12
 BYTE   N05
 BYTE   W12
 BYTE   N05
 BYTE   W12
 BYTE   N05
 BYTE   W12
 BYTE   N05
 BYTE   W12
 BYTE   PEND 
// 005   ----------------------------------------
Label_1_014C2E0D:
 BYTE   N23  An0  v092
 BYTE   W24
 BYTE   N05
 BYTE   W12
 BYTE   N05
 BYTE   W12
 BYTE   N05
 BYTE   W12
 BYTE   N05
 BYTE   W12
 BYTE   N05
 BYTE   W12
 BYTE   N05
 BYTE   W12
 BYTE   PEND 
// 006   ----------------------------------------
Label_1_014C2E1E:
 BYTE   N05  An0  v092
 BYTE   W12
 BYTE   N05
 BYTE   W12
 BYTE   N05
 BYTE   W12
 BYTE   N05
 BYTE   W12
 BYTE   N05
 BYTE   W12
 BYTE   N05
 BYTE   W12
 BYTE   N05
 BYTE   W12
 BYTE   N05
 BYTE   W12
 BYTE   PEND 
// 007   ----------------------------------------
Label_1_014C2E31:
 BYTE   N23  Bn0  v092
 BYTE   W24
 BYTE   N05
 BYTE   W12
 BYTE   N05
 BYTE   W12
 BYTE   N05
 BYTE   W12
 BYTE   N05
 BYTE   W12
 BYTE   N05
 BYTE   W12
 BYTE   N05
 BYTE   W12
 BYTE   PEND 
// 008   ----------------------------------------
Label_1_014C2E42:
 BYTE   N23  An0  v092
 BYTE   W24
 BYTE   N05  Ds1
 BYTE   W12
 BYTE   En1
 BYTE   W12
 BYTE   Dn1
 BYTE   W12
 BYTE   Bn0
 BYTE   W12
 BYTE   An0
 BYTE   W12
 BYTE   Gs0
 BYTE   W12
 BYTE   PEND 
// 009   ----------------------------------------
 BYTE   PATT
  POIN2 Label_1_014C2DC5
// 010   ----------------------------------------
Label_1_014C2E59:
 BYTE   N05  Fs0  v092
 BYTE   W12
 BYTE   N05
 BYTE   W12
 BYTE   N05
 BYTE   W12
 BYTE   N05
 BYTE   W12
 BYTE   N05
 BYTE   W12
 BYTE   N05
 BYTE   W12
 BYTE   N11  En0
 BYTE   W12
 BYTE   Fs0
 BYTE   W12
 BYTE   PEND 
// 011   ----------------------------------------
 BYTE   PATT
  POIN2 Label_1_014C2DE9
// 012   ----------------------------------------
Label_1_014C2E72:
 BYTE   N05  Gs0  v092
 BYTE   W12
 BYTE   N05
 BYTE   W12
 BYTE   N05
 BYTE   W12
 BYTE   N05
 BYTE   W12
 BYTE   N05
 BYTE   W12
 BYTE   N05
 BYTE   W12
 BYTE   N11  Fs0
 BYTE   W12
 BYTE   Gs0
 BYTE   W12
 BYTE   PEND 
// 013   ----------------------------------------
 BYTE   PATT
  POIN2 Label_1_014C2E0D
// 014   ----------------------------------------
Label_1_014C2E8B:
 BYTE   N05  An0  v092
 BYTE   W12
 BYTE   N05
 BYTE   W12
 BYTE   N05
 BYTE   W12
 BYTE   N05
 BYTE   W12
 BYTE   N05
 BYTE   W12
 BYTE   N05
 BYTE   W12
 BYTE   N11  Gs0
 BYTE   W12
 BYTE   An0
 BYTE   W12
 BYTE   PEND 
// 015   ----------------------------------------
 BYTE   PATT
  POIN2 Label_1_014C2E31
// 016   ----------------------------------------
Label_1_014C2EA4:
 BYTE   N23  Gs0  v092
 BYTE   W24
 BYTE   N05
 BYTE   W12
 BYTE   N05
 BYTE   W12
 BYTE   N05
 BYTE   W12
 BYTE   N05
 BYTE   W12
 BYTE   N11  Fs0
 BYTE   W12
 BYTE   Bn0
 BYTE   W12
 BYTE   PEND 
// 017   ----------------------------------------
 BYTE   TIE  An0
 BYTE   W96
// 018   ----------------------------------------
 BYTE   W68
 BYTE   W03
 BYTE   EOT
 BYTE   W01
 BYTE   N11  Gs0
 BYTE   W12
 BYTE   An0
 BYTE   W12
// 019   ----------------------------------------
 BYTE   TIE  Bn0
 BYTE   W96
// 020   ----------------------------------------
 BYTE   W68
 BYTE   W03
 BYTE   EOT
 BYTE   W01
 BYTE   N11  An0
 BYTE   W12
 BYTE   Bn0
 BYTE   W12
// 021   ----------------------------------------
 BYTE   TIE  Cs1
 BYTE   W96
// 022   ----------------------------------------
 BYTE   W68
 BYTE   W03
 BYTE   EOT
 BYTE   W01
 BYTE   N11
 BYTE   W12
 BYTE   Bn0
 BYTE   W12
// 023   ----------------------------------------
Label_1_014C2ED9:
 BYTE   N80  An0  v092
 BYTE   W84
 BYTE   N11
 BYTE   W12
 BYTE   PEND 
// 024   ----------------------------------------
 BYTE   N92  Bn0
 BYTE   W96
// 025   ----------------------------------------
 BYTE   PATT
  POIN2 Label_1_014C2E0D
// 026   ----------------------------------------
 BYTE   PATT
  POIN2 Label_1_014C2E8B
// 027   ----------------------------------------
 BYTE   PATT
  POIN2 Label_1_014C2E31
// 028   ----------------------------------------
Label_1_014C2EF2:
 BYTE   N05  Bn0  v092
 BYTE   W12
 BYTE   N05
 BYTE   W12
 BYTE   N05
 BYTE   W12
 BYTE   N05
 BYTE   W12
 BYTE   N05
 BYTE   W12
 BYTE   N05
 BYTE   W12
 BYTE   N11  An0
 BYTE   W12
 BYTE   Bn0
 BYTE   W12
 BYTE   PEND 
// 029   ----------------------------------------
Label_1_014C2F06:
 BYTE   N23  Cs1  v092
 BYTE   W24
 BYTE   N05
 BYTE   W12
 BYTE   N05
 BYTE   W12
 BYTE   N05
 BYTE   W12
 BYTE   N05
 BYTE   W12
 BYTE   N05
 BYTE   W12
 BYTE   N05
 BYTE   W12
 BYTE   PEND 
// 030   ----------------------------------------
Label_1_014C2F17:
 BYTE   N05  Cs1  v092
 BYTE   W12
 BYTE   N05
 BYTE   W12
 BYTE   N05
 BYTE   W12
 BYTE   N05
 BYTE   W12
 BYTE   N05
 BYTE   W12
 BYTE   N05
 BYTE   W12
 BYTE   N11  Bn0
 BYTE   W12
 BYTE   Cs1
 BYTE   W12
 BYTE   PEND 
// 031   ----------------------------------------
 BYTE   PATT
  POIN2 Label_1_014C2E0D
// 032   ----------------------------------------
Label_1_014C2F30:
 BYTE   N23  Gs0  v092
 BYTE   W24
 BYTE   N05
 BYTE   W12
 BYTE   N05
 BYTE   W12
 BYTE   N05
 BYTE   W12
 BYTE   N05
 BYTE   W12
 BYTE   N11  Bn0
 BYTE   W12
 BYTE   An0
 BYTE   W12
 BYTE   PEND 
// 033   ----------------------------------------
 BYTE   PATT
  POIN2 Label_1_014C2DC5
// 034   ----------------------------------------
 BYTE   PATT
  POIN2 Label_1_014C2DD6
// 035   ----------------------------------------
 BYTE   PATT
  POIN2 Label_1_014C2DE9
// 036   ----------------------------------------
 BYTE   PATT
  POIN2 Label_1_014C2DFA
// 037   ----------------------------------------
 BYTE   PATT
  POIN2 Label_1_014C2E0D
// 038   ----------------------------------------
 BYTE   PATT
  POIN2 Label_1_014C2E1E
// 039   ----------------------------------------
 BYTE   PATT
  POIN2 Label_1_014C2E31
// 040   ----------------------------------------
Label_1_014C2F65:
 BYTE   N23  An0  v092
 BYTE   W24
 BYTE   N05
 BYTE   W12
 BYTE   N05
 BYTE   W12
 BYTE   N23  Bn0
 BYTE   W24
 BYTE   N05  An0
 BYTE   W12
 BYTE   N11  Bn0
 BYTE   W12
 BYTE   PEND 
// 041   ----------------------------------------
 BYTE   W96
// 042   ----------------------------------------
 BYTE   W96
// 043   ----------------------------------------
Label_1_014C2F79:
 BYTE   N23  An0  v092
 BYTE   W24
 BYTE   N05
 BYTE   W12
 BYTE   En1
 BYTE   W12
 BYTE   An0
 BYTE   W12
 BYTE   Ds1
 BYTE   W12
 BYTE   Gn0
 BYTE   W12
 BYTE   An0
 BYTE   W12
 BYTE   PEND 
// 044   ----------------------------------------
Label_1_014C2F8A:
 BYTE   N23  An0  v092
 BYTE   W24
 BYTE   N05
 BYTE   W12
 BYTE   Cn1
 BYTE   W12
 BYTE   Gs0
 BYTE   W12
 BYTE   An0
 BYTE   W12
 BYTE   Fs0
 BYTE   W12
 BYTE   An0
 BYTE   W12
 BYTE   PEND 
// 045   ----------------------------------------
Label_1_014C2F9B:
 BYTE   N23  Gs0  v092
 BYTE   W24
 BYTE   N05
 BYTE   W12
 BYTE   En1
 BYTE   W12
 BYTE   Gs0
 BYTE   W12
 BYTE   Ds1
 BYTE   W12
 BYTE   Fs0
 BYTE   W12
 BYTE   Bn0
 BYTE   W12
 BYTE   PEND 
// 046   ----------------------------------------
Label_1_014C2FAC:
 BYTE   N23  Cs1  v092
 BYTE   W24
 BYTE   N05  Gs0
 BYTE   W12
 BYTE   Cs1
 BYTE   W12
 BYTE   Bn0
 BYTE   W12
 BYTE   Cs1
 BYTE   W12
 BYTE   Bn0
 BYTE   W12
 BYTE   Gs0
 BYTE   W12
 BYTE   PEND 
// 047   ----------------------------------------
 BYTE   PATT
  POIN2 Label_1_014C2E0D
// 048   ----------------------------------------
Label_1_014C2FC3:
 BYTE   N23  An0  v092
 BYTE   W24
 BYTE   N05
 BYTE   W12
 BYTE   Bn0
 BYTE   W12
 BYTE   An0
 BYTE   W12
 BYTE   Gs0
 BYTE   W12
 BYTE   An0
 BYTE   W12
 BYTE   Fs0
 BYTE   W12
 BYTE   PEND 
// 049   ----------------------------------------
 BYTE   PATT
  POIN2 Label_1_014C2DE9
// 050   ----------------------------------------
Label_1_014C2FD9:
 BYTE   N23  Cs1  v092
 BYTE   W24
 BYTE   Bn0
 BYTE   W24
 BYTE   An0
 BYTE   W24
 BYTE   Gs0
 BYTE   W24
 BYTE   PEND 
// 051   ----------------------------------------
 BYTE   PATT
  POIN2 Label_1_014C2F79
// 052   ----------------------------------------
 BYTE   PATT
  POIN2 Label_1_014C2F8A
// 053   ----------------------------------------
 BYTE   PATT
  POIN2 Label_1_014C2F9B
// 054   ----------------------------------------
Label_1_014C2FF3:
 BYTE   N23  Cs1  v092
 BYTE   W24
 BYTE   N05  Gs0
 BYTE   W12
 BYTE   Cs1
 BYTE   W12
 BYTE   Bn0
 BYTE   W12
 BYTE   Cs1
 BYTE   W12
 BYTE   Bn0
 BYTE   W12
 BYTE   Cs1
 BYTE   W12
 BYTE   PEND 
// 055   ----------------------------------------
Label_1_014C3005:
 BYTE   N23  Cn1  v092
 BYTE   W24
 BYTE   N05
 BYTE   W12
 BYTE   N05
 BYTE   W12
 BYTE   N05
 BYTE   W12
 BYTE   N05
 BYTE   W12
 BYTE   N05
 BYTE   W12
 BYTE   N05
 BYTE   W12
 BYTE   PEND 
// 056   ----------------------------------------
Label_1_014C3016:
 BYTE   N23  Cn1  v092
 BYTE   W24
 BYTE   N05
 BYTE   W12
 BYTE   Cs1
 BYTE   W12
 BYTE   Cn1
 BYTE   W12
 BYTE   Bn0
 BYTE   W12
 BYTE   Cs1
 BYTE   W12
 BYTE   An0
 BYTE   W12
 BYTE   PEND 
// 057   ----------------------------------------
 BYTE   PATT
  POIN2 Label_1_014C2E31
// 058   ----------------------------------------
Label_1_014C302C:
 BYTE   N23  An0  v092
 BYTE   W24
 BYTE   Gs0
 BYTE   W24
 BYTE   Fs0
 BYTE   W24
 BYTE   N11  Gs0
 BYTE   W12
 BYTE   N11
 BYTE   W12
 BYTE   PEND 
// 059   ----------------------------------------
 BYTE   PATT
  POIN2 Label_1_014C2DC5
// 060   ----------------------------------------
 BYTE   PATT
  POIN2 Label_1_014C2DD6
// 061   ----------------------------------------
 BYTE   PATT
  POIN2 Label_1_014C2DE9
// 062   ----------------------------------------
 BYTE   PATT
  POIN2 Label_1_014C2DFA
// 063   ----------------------------------------
 BYTE   PATT
  POIN2 Label_1_014C2E0D
// 064   ----------------------------------------
 BYTE   PATT
  POIN2 Label_1_014C2E1E
// 065   ----------------------------------------
 BYTE   PATT
  POIN2 Label_1_014C2E31
// 066   ----------------------------------------
 BYTE   PATT
  POIN2 Label_1_014C2E42
// 067   ----------------------------------------
 BYTE   PATT
  POIN2 Label_1_014C2DC5
// 068   ----------------------------------------
 BYTE   PATT
  POIN2 Label_1_014C2E59
// 069   ----------------------------------------
 BYTE   PATT
  POIN2 Label_1_014C2DE9
// 070   ----------------------------------------
 BYTE   PATT
  POIN2 Label_1_014C2E72
// 071   ----------------------------------------
 BYTE   PATT
  POIN2 Label_1_014C2E0D
// 072   ----------------------------------------
 BYTE   PATT
  POIN2 Label_1_014C2E8B
// 073   ----------------------------------------
 BYTE   PATT
  POIN2 Label_1_014C2E31
// 074   ----------------------------------------
 BYTE   PATT
  POIN2 Label_1_014C2EA4
// 075   ----------------------------------------
 BYTE   TIE  An0  v092
 BYTE   W96
// 076   ----------------------------------------
 BYTE   W68
 BYTE   W03
 BYTE   EOT
 BYTE   W01
 BYTE   N11  Gs0
 BYTE   W12
 BYTE   An0
 BYTE   W12
// 077   ----------------------------------------
 BYTE   TIE  Bn0
 BYTE   W96
// 078   ----------------------------------------
 BYTE   W68
 BYTE   W03
 BYTE   EOT
 BYTE   W01
 BYTE   N11  An0
 BYTE   W12
 BYTE   Bn0
 BYTE   W12
// 079   ----------------------------------------
 BYTE   TIE  Cs1
 BYTE   W96
// 080   ----------------------------------------
 BYTE   W68
 BYTE   W03
 BYTE   EOT
 BYTE   W01
 BYTE   N11
 BYTE   W12
 BYTE   Bn0
 BYTE   W12
// 081   ----------------------------------------
 BYTE   PATT
  POIN2 Label_1_014C2ED9
// 082   ----------------------------------------
 BYTE   N92  Bn0  v092
 BYTE   W96
// 083   ----------------------------------------
 BYTE   PATT
  POIN2 Label_1_014C2E0D
// 084   ----------------------------------------
 BYTE   PATT
  POIN2 Label_1_014C2E8B
// 085   ----------------------------------------
 BYTE   PATT
  POIN2 Label_1_014C2E31
// 086   ----------------------------------------
 BYTE   PATT
  POIN2 Label_1_014C2EF2
// 087   ----------------------------------------
 BYTE   PATT
  POIN2 Label_1_014C2F06
// 088   ----------------------------------------
 BYTE   PATT
  POIN2 Label_1_014C2F17
// 089   ----------------------------------------
 BYTE   PATT
  POIN2 Label_1_014C2E0D
// 090   ----------------------------------------
 BYTE   PATT
  POIN2 Label_1_014C2F30
// 091   ----------------------------------------
 BYTE   PATT
  POIN2 Label_1_014C2DC5
// 092   ----------------------------------------
 BYTE   PATT
  POIN2 Label_1_014C2DD6
// 093   ----------------------------------------
 BYTE   PATT
  POIN2 Label_1_014C2DE9
// 094   ----------------------------------------
 BYTE   PATT
  POIN2 Label_1_014C2DFA
// 095   ----------------------------------------
 BYTE   PATT
  POIN2 Label_1_014C2E0D
// 096   ----------------------------------------
 BYTE   PATT
  POIN2 Label_1_014C2E1E
// 097   ----------------------------------------
 BYTE   PATT
  POIN2 Label_1_014C2E31
// 098   ----------------------------------------
 BYTE   PATT
  POIN2 Label_1_014C2F65
// 099   ----------------------------------------
 BYTE   W96
// 100   ----------------------------------------
 BYTE   W96
// 101   ----------------------------------------
 BYTE   PATT
  POIN2 Label_1_014C2F79
// 102   ----------------------------------------
 BYTE   PATT
  POIN2 Label_1_014C2F8A
// 103   ----------------------------------------
 BYTE   PATT
  POIN2 Label_1_014C2F9B
// 104   ----------------------------------------
 BYTE   PATT
  POIN2 Label_1_014C2FAC
// 105   ----------------------------------------
 BYTE   PATT
  POIN2 Label_1_014C2E0D
// 106   ----------------------------------------
 BYTE   PATT
  POIN2 Label_1_014C2FC3
// 107   ----------------------------------------
 BYTE   PATT
  POIN2 Label_1_014C2DE9
// 108   ----------------------------------------
 BYTE   PATT
  POIN2 Label_1_014C2FD9
// 109   ----------------------------------------
 BYTE   PATT
  POIN2 Label_1_014C2F79
// 110   ----------------------------------------
 BYTE   PATT
  POIN2 Label_1_014C2F8A
// 111   ----------------------------------------
 BYTE   PATT
  POIN2 Label_1_014C2F9B
// 112   ----------------------------------------
 BYTE   PATT
  POIN2 Label_1_014C2FF3
// 113   ----------------------------------------
 BYTE   PATT
  POIN2 Label_1_014C3005
// 114   ----------------------------------------
 BYTE   PATT
  POIN2 Label_1_014C3016
// 115   ----------------------------------------
 BYTE   PATT
  POIN2 Label_1_014C2E31
// 116   ----------------------------------------
 BYTE   PATT
  POIN2 Label_1_014C302C
// 117   ----------------------------------------
 BYTE   PATT
  POIN2 Label_1_014C2DC5
// 118   ----------------------------------------
 BYTE   PATT
  POIN2 Label_1_014C2DD6
// 119   ----------------------------------------
 BYTE   PATT
  POIN2 Label_1_014C2DE9
// 120   ----------------------------------------
 BYTE   PATT
  POIN2 Label_1_014C2DFA
// 121   ----------------------------------------
 BYTE   PATT
  POIN2 Label_1_014C2E0D
// 122   ----------------------------------------
 BYTE   PATT
  POIN2 Label_1_014C2E1E
// 123   ----------------------------------------
 BYTE   PATT
  POIN2 Label_1_014C2E31
// 124   ----------------------------------------
 BYTE   PATT
  POIN2 Label_1_014C2E42
// 125   ----------------------------------------
 BYTE   PATT
  POIN2 Label_1_014C2DC5
// 126   ----------------------------------------
 BYTE   PATT
  POIN2 Label_1_014C2E59
// 127   ----------------------------------------
 BYTE   PATT
  POIN2 Label_1_014C2DE9
// 128   ----------------------------------------
 BYTE   PATT
  POIN2 Label_1_014C2E72
// 129   ----------------------------------------
 BYTE   PATT
  POIN2 Label_1_014C2E0D
// 130   ----------------------------------------
 BYTE   PATT
  POIN2 Label_1_014C2E8B
// 131   ----------------------------------------
 BYTE   PATT
  POIN2 Label_1_014C2E31
// 132   ----------------------------------------
 BYTE   PATT
  POIN2 Label_1_014C2EA4
// 133   ----------------------------------------
 BYTE   GoTo
  POIN2 Label_1_014C2DC5
// 134   ----------------------------------------
 BYTE   N92  An0  v092
 BYTE   W96
// 135   ----------------------------------------
 BYTE   W17
 BYTE   FINE

//**************** Track 3 (Midi-Chn.2) ****************//

GuiltyGearXMaysThemeMeatOfJustice_003:
// 000   ----------------------------------------
 BYTE   KEYSH   GuiltyGearXMaysThemeMeatOfJustice_key+0
 BYTE   VOICE   30
 BYTE   PAN   c_v+0
 BYTE   VOL   55*GuiltyGearXMaysThemeMeatOfJustice_mvl/mxv
 BYTE   W96
// 001   ----------------------------------------
Label_2_014C4245:
 BYTE   VOL   55*GuiltyGearXMaysThemeMeatOfJustice_mvl/mxv
 BYTE   N23  Fs1  v092
 BYTE   N23  Cs2
 BYTE   W24
 BYTE   N05  Fs1
 BYTE   W12
 BYTE   N05
 BYTE   N11  Cs2
 BYTE   N11  En2
 BYTE   W12
 BYTE   N05  Fs1
 BYTE   W12
 BYTE   N05
 BYTE   W12
 BYTE   N05
 BYTE   N11  Cs2
 BYTE   N11  En2
 BYTE   W12
 BYTE   N05  Fs1
 BYTE   W12
 BYTE   PEND 
// 002   ----------------------------------------
Label_2_014C4265:
 BYTE   N05  Fs1  v092
 BYTE   W12
 BYTE   N05
 BYTE   N11  Cs2
 BYTE   N11  En2
 BYTE   W12
 BYTE   N05  Fs1
 BYTE   W12
 BYTE   N05
 BYTE   W12
 BYTE   N05
 BYTE   N11  Cs2
 BYTE   N11  En2
 BYTE   W12
 BYTE   N05  Fs1
 BYTE   W12
 BYTE   N05
 BYTE   N11  Cs2
 BYTE   N23  En2
 BYTE   W12
 BYTE   N05  Fs1
 BYTE   W12
 BYTE   PEND 
// 003   ----------------------------------------
Label_2_014C4287:
 BYTE   N23  Gs1  v092
 BYTE   N23  Ds2
 BYTE   W24
 BYTE   N05  Gs1
 BYTE   W12
 BYTE   N05
 BYTE   N11  Cs2
 BYTE   N11  En2
 BYTE   W12
 BYTE   N05  Gs1
 BYTE   W12
 BYTE   N05
 BYTE   W12
 BYTE   N05
 BYTE   N11  Cs2
 BYTE   N11  En2
 BYTE   W12
 BYTE   N05  Gs1
 BYTE   W12
 BYTE   PEND 
// 004   ----------------------------------------
Label_2_014C42A5:
 BYTE   N05  Gs1  v092
 BYTE   W12
 BYTE   N05
 BYTE   N11  Cs2
 BYTE   N11  En2
 BYTE   W12
 BYTE   N05  Gs1
 BYTE   W12
 BYTE   N05
 BYTE   W12
 BYTE   N05
 BYTE   N11  Cs2
 BYTE   N11  En2
 BYTE   W12
 BYTE   N05  Gs1
 BYTE   W12
 BYTE   N05
 BYTE   N23  Cs2
 BYTE   N23  En2
 BYTE   W12
 BYTE   N05  Gs1
 BYTE   W12
 BYTE   PEND 
// 005   ----------------------------------------
Label_2_014C42C7:
 BYTE   N23  An1  v092
 BYTE   N23  En2
 BYTE   W24
 BYTE   N05  An1
 BYTE   W12
 BYTE   N05
 BYTE   N11  Cs2
 BYTE   N11  En2
 BYTE   W12
 BYTE   N05  An1
 BYTE   W12
 BYTE   N05
 BYTE   W12
 BYTE   N05
 BYTE   N11  Cs2
 BYTE   N11  En2
 BYTE   W12
 BYTE   N05  An1
 BYTE   W12
 BYTE   PEND 
// 006   ----------------------------------------
Label_2_014C42E5:
 BYTE   N05  An1  v092
 BYTE   W12
 BYTE   N05
 BYTE   N11  Cs2
 BYTE   N11  En2
 BYTE   W12
 BYTE   N05  An1
 BYTE   W12
 BYTE   N05
 BYTE   W12
 BYTE   N05
 BYTE   N11  Cs2
 BYTE   N11  En2
 BYTE   W12
 BYTE   N05  An1
 BYTE   W12
 BYTE   N05
 BYTE   N23  Cs2
 BYTE   N23  En2
 BYTE   W12
 BYTE   N05  An1
 BYTE   W12
 BYTE   PEND 
// 007   ----------------------------------------
Label_2_014C4307:
 BYTE   N23  Bn1  v092
 BYTE   N23  Fs2
 BYTE   W24
 BYTE   N05  Bn1
 BYTE   W12
 BYTE   N05
 BYTE   W12
 BYTE   N05
 BYTE   N11  Fs2
 BYTE   W12
 BYTE   N05  Bn1
 BYTE   W12
 BYTE   N05
 BYTE   W12
 BYTE   N05
 BYTE   W12
 BYTE   PEND 
// 008   ----------------------------------------
Label_2_014C431E:
 BYTE   N23  An1  v092
 BYTE   N23  Cs2
 BYTE   N23  En2
 BYTE   W24
 BYTE   N05  An1
 BYTE   W12
 BYTE   N05
 BYTE   N11  Cs2
 BYTE   N11  En2
 BYTE   W12
 BYTE   N05  An1
 BYTE   W12
 BYTE   N05
 BYTE   N11  Cs2
 BYTE   N11  En2
 BYTE   W12
 BYTE   N05  An1
 BYTE   N11  Cs2
 BYTE   N11  En2
 BYTE   W12
 BYTE   An1
 BYTE   W12
 BYTE   PEND 
// 009   ----------------------------------------
Label_2_014C4342:
 BYTE   N23  Fs1  v092
 BYTE   N23  Cs2
 BYTE   W24
 BYTE   N05  Fs1
 BYTE   W12
 BYTE   N05
 BYTE   N11  Cs2
 BYTE   N11  En2
 BYTE   W12
 BYTE   N05  Fs1
 BYTE   W12
 BYTE   N05
 BYTE   W12
 BYTE   N05
 BYTE   N11  Cs2
 BYTE   N11  En2
 BYTE   W12
 BYTE   N05  Fs1
 BYTE   W12
 BYTE   PEND 
// 010   ----------------------------------------
Label_2_014C4360:
 BYTE   N05  Fs1  v092
 BYTE   W12
 BYTE   N05
 BYTE   N11  Cs2
 BYTE   N11  En2
 BYTE   W12
 BYTE   N05  Fs1
 BYTE   W12
 BYTE   N05
 BYTE   W12
 BYTE   N05
 BYTE   N11  Cs2
 BYTE   N11  En2
 BYTE   W12
 BYTE   N05  Fs1
 BYTE   W12
 BYTE   N05
 BYTE   N23  Cs2
 BYTE   N23  En2
 BYTE   W12
 BYTE   N05  Fs1
 BYTE   W12
 BYTE   PEND 
// 011   ----------------------------------------
 BYTE   PATT
  POIN2 Label_2_014C4287
// 012   ----------------------------------------
 BYTE   PATT
  POIN2 Label_2_014C42A5
// 013   ----------------------------------------
 BYTE   PATT
  POIN2 Label_2_014C42C7
// 014   ----------------------------------------
 BYTE   PATT
  POIN2 Label_2_014C42E5
// 015   ----------------------------------------
 BYTE   PATT
  POIN2 Label_2_014C4307
// 016   ----------------------------------------
Label_2_014C439B:
 BYTE   N23  Gs1  v092
 BYTE   N23  Ds2
 BYTE   W24
 BYTE   N05  Gs1
 BYTE   W12
 BYTE   N05
 BYTE   N11  Cs2
 BYTE   N11  En2
 BYTE   W12
 BYTE   N05  Gs1
 BYTE   W12
 BYTE   N05
 BYTE   N11  Cs2
 BYTE   N11  En2
 BYTE   W12
 BYTE   N05  Gs1
 BYTE   N11  Cs2
 BYTE   N11  En2
 BYTE   W12
 BYTE   Gs1
 BYTE   W12
 BYTE   PEND 
// 017   ----------------------------------------
Label_2_014C43BD:
 BYTE   VOL   47*GuiltyGearXMaysThemeMeatOfJustice_mvl/mxv
 BYTE   TIE  An1  v092
 BYTE   TIE  En2
 BYTE   TIE  An2
 BYTE   W96
 BYTE   PEND 
// 018   ----------------------------------------
 BYTE   W92
 BYTE   W03
 BYTE   EOT
 BYTE   An1  v052
 BYTE   An2
 BYTE   W01
// 019   ----------------------------------------
Label_2_014C43CF:
 BYTE   TIE  Bn1  v092
 BYTE   TIE  Fs2
 BYTE   TIE  Bn2
 BYTE   W96
 BYTE   PEND 
// 020   ----------------------------------------
 BYTE   W92
 BYTE   W03
 BYTE   EOT
 BYTE   Bn1  v054
 BYTE   Bn2
 BYTE   W01
// 021   ----------------------------------------
Label_2_014C43DF:
 BYTE   TIE  Cs2  v092
 BYTE   TIE  Gs2
 BYTE   TIE  Cs3
 BYTE   W96
 BYTE   PEND 
// 022   ----------------------------------------
 BYTE   W92
 BYTE   W03
 BYTE   EOT
 BYTE   Cs2  v056
 BYTE   Cs3
 BYTE   W01
// 023   ----------------------------------------
Label_2_014C43EF:
 BYTE   N92  An1  v092
 BYTE   N92  En2
 BYTE   N92  An2
 BYTE   W96
 BYTE   PEND 
// 024   ----------------------------------------
Label_2_014C43F8:
 BYTE   N92  Bn1  v092
 BYTE   N92  Fs2
 BYTE   N92  Bn2
 BYTE   W96
 BYTE   PEND 
// 025   ----------------------------------------
Label_2_014C4401:
 BYTE   VOL   49*GuiltyGearXMaysThemeMeatOfJustice_mvl/mxv
 BYTE   N23  An1  v092
 BYTE   N23  En2
 BYTE   N23  An2
 BYTE   W24
 BYTE   N05  An1
 BYTE   N05  En2
 BYTE   W12
 BYTE   An1
 BYTE   N05  En2
 BYTE   W12
 BYTE   An1
 BYTE   N05  En2
 BYTE   W12
 BYTE   An1
 BYTE   N05  En2
 BYTE   W12
 BYTE   An1
 BYTE   N05  En2
 BYTE   W12
 BYTE   An1
 BYTE   N05  En2
 BYTE   W12
 BYTE   PEND 
// 026   ----------------------------------------
Label_2_014C4425:
 BYTE   N05  An1  v092
 BYTE   N05  En2
 BYTE   N23  An2
 BYTE   W12
 BYTE   N05  An1
 BYTE   N05  En2
 BYTE   W12
 BYTE   An1
 BYTE   N05  En2
 BYTE   N23  An2
 BYTE   W12
 BYTE   N05  An1
 BYTE   N05  En2
 BYTE   W12
 BYTE   An1
 BYTE   N05  En2
 BYTE   N23  An2
 BYTE   W12
 BYTE   N05  An1
 BYTE   N05  En2
 BYTE   W12
 BYTE   An1
 BYTE   N05  En2
 BYTE   W12
 BYTE   An1
 BYTE   N05  En2
 BYTE   N11  An2
 BYTE   W12
 BYTE   PEND 
// 027   ----------------------------------------
Label_2_014C4453:
 BYTE   N23  Bn1  v092
 BYTE   N23  Fs2
 BYTE   W24
 BYTE   N05  Bn1
 BYTE   N05  Fs2
 BYTE   W12
 BYTE   Bn1
 BYTE   N05  Fs2
 BYTE   W12
 BYTE   Bn1
 BYTE   N05  Fs2
 BYTE   W12
 BYTE   Bn1
 BYTE   N05  Fs2
 BYTE   W12
 BYTE   Bn1
 BYTE   N05  Fs2
 BYTE   W12
 BYTE   Bn1
 BYTE   N05  Fs2
 BYTE   W12
 BYTE   PEND 
// 028   ----------------------------------------
Label_2_014C4473:
 BYTE   N05  Bn1  v092
 BYTE   N05  Fs2
 BYTE   W12
 BYTE   Bn1
 BYTE   N05  Fs2
 BYTE   W12
 BYTE   Bn1
 BYTE   N05  Fs2
 BYTE   W12
 BYTE   Bn1
 BYTE   N05  Fs2
 BYTE   W12
 BYTE   Bn1
 BYTE   N05  Fs2
 BYTE   W12
 BYTE   Bn1
 BYTE   N05  Fs2
 BYTE   W12
 BYTE   Bn1
 BYTE   N05  Fs2
 BYTE   W12
 BYTE   Bn1
 BYTE   N05  Fs2
 BYTE   W12
 BYTE   PEND 
// 029   ----------------------------------------
Label_2_014C4496:
 BYTE   N23  Cs2  v092
 BYTE   N23  Gs2
 BYTE   N23  Cs3
 BYTE   W24
 BYTE   N05  Cs2
 BYTE   N05  Gs2
 BYTE   W12
 BYTE   Cs2
 BYTE   N05  Gs2
 BYTE   W12
 BYTE   Cs2
 BYTE   N05  Gs2
 BYTE   W12
 BYTE   Cs2
 BYTE   N05  Gs2
 BYTE   W12
 BYTE   Cs2
 BYTE   N05  Gs2
 BYTE   W12
 BYTE   Cs2
 BYTE   N05  Gs2
 BYTE   W12
 BYTE   PEND 
// 030   ----------------------------------------
Label_2_014C44B8:
 BYTE   N05  Cs2  v092
 BYTE   N05  Gs2
 BYTE   W12
 BYTE   Cs2
 BYTE   N05  Gs2
 BYTE   W12
 BYTE   Cs2
 BYTE   N05  Gs2
 BYTE   W12
 BYTE   Cs2
 BYTE   N05  Gs2
 BYTE   W12
 BYTE   N23  Cs2
 BYTE   N23  Gs2
 BYTE   N23  Cs3
 BYTE   W24
 BYTE   N05  Cs2
 BYTE   N05  Gs2
 BYTE   W12
 BYTE   Cs2
 BYTE   N05  Gs2
 BYTE   W12
 BYTE   PEND 
// 031   ----------------------------------------
Label_2_014C44DB:
 BYTE   N23  An1  v092
 BYTE   N23  En2
 BYTE   N23  An2
 BYTE   W24
 BYTE   N05  An1
 BYTE   N05  En2
 BYTE   W12
 BYTE   An1
 BYTE   N05  En2
 BYTE   W12
 BYTE   N23  An1
 BYTE   N23  En2
 BYTE   N23  An2
 BYTE   W24
 BYTE   N05  An1
 BYTE   N05  En2
 BYTE   W12
 BYTE   An1
 BYTE   N05  En2
 BYTE   W12
 BYTE   PEND 
// 032   ----------------------------------------
Label_2_014C44FD:
 BYTE   N23  Gs1  v092
 BYTE   N23  Ds2
 BYTE   N23  Gs2
 BYTE   W24
 BYTE   N05  Gs1
 BYTE   N05  Ds2
 BYTE   W12
 BYTE   Gs1
 BYTE   N05  Ds2
 BYTE   W12
 BYTE   Gs1
 BYTE   N05  Ds2
 BYTE   W12
 BYTE   Gs1
 BYTE   N05  Ds2
 BYTE   W12
 BYTE   N11  Gs1
 BYTE   N11  Ds2
 BYTE   N11  Gs2
 BYTE   W12
 BYTE   N05  Gs1
 BYTE   N05  Ds2
 BYTE   W12
 BYTE   PEND 
// 033   ----------------------------------------
 BYTE   N92  Fs2
 BYTE   W96
// 034   ----------------------------------------
 BYTE   N92
 BYTE   N92  En3
 BYTE   W96
// 035   ----------------------------------------
 BYTE   Gs2
 BYTE   W96
// 036   ----------------------------------------
 BYTE   N92
 BYTE   N92  En3
 BYTE   W96
// 037   ----------------------------------------
 BYTE   An2
 BYTE   W96
// 038   ----------------------------------------
 BYTE   N92
 BYTE   N92  En3
 BYTE   W96
// 039   ----------------------------------------
 BYTE   Bn2
 BYTE   W96
// 040   ----------------------------------------
Label_2_014C4538:
 BYTE   N44  Cs3  v092
 BYTE   N44  En3
 BYTE   W48
 BYTE   N56  Bn2
 BYTE   N56  Ds3
 BYTE   W48
 BYTE   PEND 
// 041   ----------------------------------------
Label_2_014C4544:
 BYTE   W12
 BYTE   N05  Fs0  v092
 BYTE   N05  Fs1
 BYTE   W12
 BYTE   N11  Fs0
 BYTE   N11  Fs1
 BYTE   W12
 BYTE   En1
 BYTE   N11  En2
 BYTE   W12
 BYTE   N05  Fs0
 BYTE   N05  Fs1
 BYTE   W12
 BYTE   Fs0
 BYTE   N05  Fs1
 BYTE   W12
 BYTE   N11  En1
 BYTE   N11  En2
 BYTE   W12
 BYTE   N05  Fs0
 BYTE   N05  Fs1
 BYTE   W12
 BYTE   PEND 
// 042   ----------------------------------------
Label_2_014C4568:
 BYTE   N11  Fs0  v092
 BYTE   N11  Fs1
 BYTE   W12
 BYTE   En1
 BYTE   N11  En2
 BYTE   W24
 BYTE   N05  En1
 BYTE   N05  En2
 BYTE   W24
 BYTE   En1
 BYTE   N05  En2
 BYTE   W12
 BYTE   Ds1
 BYTE   N05  Ds2
 BYTE   W12
 BYTE   Cs1
 BYTE   N05  Cs2
 BYTE   W12
 BYTE   PEND 
// 043   ----------------------------------------
Label_2_014C4584:
 BYTE   TIE  An1  v092
 BYTE   TIE  En2
 BYTE   TIE  An2
 BYTE   W96
 BYTE   PEND 
// 044   ----------------------------------------
 BYTE   W92
 BYTE   W03
 BYTE   EOT
 BYTE   An1  v052
 BYTE   An2
 BYTE   W01
// 045   ----------------------------------------
 BYTE   N92  Gs1
 BYTE   N92  Gs2
 BYTE   W96
// 046   ----------------------------------------
Label_2_014C4599:
 BYTE   N92  Cs2  v092
 BYTE   N92  Gs2
 BYTE   N92  Cs3
 BYTE   W96
 BYTE   PEND 
// 047   ----------------------------------------
 BYTE   PATT
  POIN2 Label_2_014C4584
// 048   ----------------------------------------
 BYTE   W92
 BYTE   W03
 BYTE   EOT
 BYTE   An1  v052
 BYTE   An2
 BYTE   W01
// 049   ----------------------------------------
Label_2_014C45AE:
 BYTE   N92  Gs1  v092
 BYTE   N92  Ds2
 BYTE   N92  Gs2
 BYTE   W96
 BYTE   PEND 
// 050   ----------------------------------------
Label_2_014C45B7:
 BYTE   N23  Cs3  v092
 BYTE   W24
 BYTE   Bn2
 BYTE   W24
 BYTE   An2
 BYTE   W24
 BYTE   Gs2
 BYTE   W24
 BYTE   PEND 
// 051   ----------------------------------------
 BYTE   PATT
  POIN2 Label_2_014C4584
// 052   ----------------------------------------
 BYTE   W92
 BYTE   W03
 BYTE   EOT
 BYTE   An1  v052
 BYTE   An2
 BYTE   W01
// 053   ----------------------------------------
 BYTE   N92  Gs1  v092
 BYTE   N92  Gs2
 BYTE   W96
// 054   ----------------------------------------
 BYTE   PATT
  POIN2 Label_2_014C4599
// 055   ----------------------------------------
Label_2_014C45D9:
 BYTE   TIE  Cn2  v092
 BYTE   TIE  Cn3
 BYTE   W96
 BYTE   PEND 
// 056   ----------------------------------------
 BYTE   W92
 BYTE   W03
 BYTE   EOT
 BYTE   Cn2  v060
 BYTE   W01
// 057   ----------------------------------------
Label_2_014C45E6:
 BYTE   N92  Bn1  v092
 BYTE   N92  En2
 BYTE   N92  Bn2
 BYTE   W96
 BYTE   PEND 
// 058   ----------------------------------------
Label_2_014C45EF:
 BYTE   N23  An2  v092
 BYTE   W24
 BYTE   Gs2
 BYTE   W24
 BYTE   Fs2
 BYTE   W24
 BYTE   Gs2
 BYTE   W24
 BYTE   PEND 
// 059   ----------------------------------------
 BYTE   PATT
  POIN2 Label_2_014C4245
// 060   ----------------------------------------
 BYTE   PATT
  POIN2 Label_2_014C4265
// 061   ----------------------------------------
 BYTE   PATT
  POIN2 Label_2_014C4287
// 062   ----------------------------------------
 BYTE   PATT
  POIN2 Label_2_014C42A5
// 063   ----------------------------------------
 BYTE   PATT
  POIN2 Label_2_014C42C7
// 064   ----------------------------------------
 BYTE   PATT
  POIN2 Label_2_014C42E5
// 065   ----------------------------------------
 BYTE   PATT
  POIN2 Label_2_014C4307
// 066   ----------------------------------------
 BYTE   PATT
  POIN2 Label_2_014C431E
// 067   ----------------------------------------
 BYTE   PATT
  POIN2 Label_2_014C4342
// 068   ----------------------------------------
 BYTE   PATT
  POIN2 Label_2_014C4360
// 069   ----------------------------------------
 BYTE   PATT
  POIN2 Label_2_014C4287
// 070   ----------------------------------------
 BYTE   PATT
  POIN2 Label_2_014C42A5
// 071   ----------------------------------------
 BYTE   PATT
  POIN2 Label_2_014C42C7
// 072   ----------------------------------------
 BYTE   PATT
  POIN2 Label_2_014C42E5
// 073   ----------------------------------------
 BYTE   PATT
  POIN2 Label_2_014C4307
// 074   ----------------------------------------
 BYTE   PATT
  POIN2 Label_2_014C439B
// 075   ----------------------------------------
 BYTE   PATT
  POIN2 Label_2_014C43BD
// 076   ----------------------------------------
 BYTE   W92
 BYTE   W03
 BYTE   EOT
 BYTE   An1  v052
 BYTE   An2
 BYTE   W01
// 077   ----------------------------------------
 BYTE   PATT
  POIN2 Label_2_014C43CF
// 078   ----------------------------------------
 BYTE   W92
 BYTE   W03
 BYTE   EOT
 BYTE   Bn1  v054
 BYTE   Bn2
 BYTE   W01
// 079   ----------------------------------------
 BYTE   PATT
  POIN2 Label_2_014C43DF
// 080   ----------------------------------------
 BYTE   W92
 BYTE   W03
 BYTE   EOT
 BYTE   Cs2  v056
 BYTE   Cs3
 BYTE   W01
// 081   ----------------------------------------
 BYTE   PATT
  POIN2 Label_2_014C43EF
// 082   ----------------------------------------
 BYTE   PATT
  POIN2 Label_2_014C43F8
// 083   ----------------------------------------
 BYTE   PATT
  POIN2 Label_2_014C4401
// 084   ----------------------------------------
 BYTE   PATT
  POIN2 Label_2_014C4425
// 085   ----------------------------------------
 BYTE   PATT
  POIN2 Label_2_014C4453
// 086   ----------------------------------------
 BYTE   PATT
  POIN2 Label_2_014C4473
// 087   ----------------------------------------
 BYTE   PATT
  POIN2 Label_2_014C4496
// 088   ----------------------------------------
 BYTE   PATT
  POIN2 Label_2_014C44B8
// 089   ----------------------------------------
 BYTE   PATT
  POIN2 Label_2_014C44DB
// 090   ----------------------------------------
 BYTE   PATT
  POIN2 Label_2_014C44FD
// 091   ----------------------------------------
 BYTE   N92  Fs2  v092
 BYTE   W96
// 092   ----------------------------------------
 BYTE   N92
 BYTE   N92  En3
 BYTE   W96
// 093   ----------------------------------------
 BYTE   Gs2
 BYTE   W96
// 094   ----------------------------------------
 BYTE   N92
 BYTE   N92  En3
 BYTE   W96
// 095   ----------------------------------------
 BYTE   An2
 BYTE   W96
// 096   ----------------------------------------
 BYTE   N92
 BYTE   N92  En3
 BYTE   W96
// 097   ----------------------------------------
 BYTE   Bn2
 BYTE   W96
// 098   ----------------------------------------
 BYTE   PATT
  POIN2 Label_2_014C4538
// 099   ----------------------------------------
 BYTE   PATT
  POIN2 Label_2_014C4544
// 100   ----------------------------------------
 BYTE   PATT
  POIN2 Label_2_014C4568
// 101   ----------------------------------------
 BYTE   PATT
  POIN2 Label_2_014C4584
// 102   ----------------------------------------
 BYTE   W92
 BYTE   W03
 BYTE   EOT
 BYTE   An1  v052
 BYTE   An2
 BYTE   W01
// 103   ----------------------------------------
 BYTE   N92  Gs1  v092
 BYTE   N92  Gs2
 BYTE   W96
// 104   ----------------------------------------
 BYTE   PATT
  POIN2 Label_2_014C4599
// 105   ----------------------------------------
 BYTE   PATT
  POIN2 Label_2_014C4584
// 106   ----------------------------------------
 BYTE   W92
 BYTE   W03
 BYTE   EOT
 BYTE   An1  v052
 BYTE   An2
 BYTE   W01
// 107   ----------------------------------------
 BYTE   PATT
  POIN2 Label_2_014C45AE
// 108   ----------------------------------------
 BYTE   PATT
  POIN2 Label_2_014C45B7
// 109   ----------------------------------------
 BYTE   PATT
  POIN2 Label_2_014C4584
// 110   ----------------------------------------
 BYTE   W92
 BYTE   W03
 BYTE   EOT
 BYTE   An1  v052
 BYTE   An2
 BYTE   W01
// 111   ----------------------------------------
 BYTE   N92  Gs1  v092
 BYTE   N92  Gs2
 BYTE   W96
// 112   ----------------------------------------
 BYTE   PATT
  POIN2 Label_2_014C4599
// 113   ----------------------------------------
 BYTE   PATT
  POIN2 Label_2_014C45D9
// 114   ----------------------------------------
 BYTE   W92
 BYTE   W03
 BYTE   EOT
 BYTE   Cn2  v060
 BYTE   W01
// 115   ----------------------------------------
 BYTE   PATT
  POIN2 Label_2_014C45E6
// 116   ----------------------------------------
 BYTE   PATT
  POIN2 Label_2_014C45EF
// 117   ----------------------------------------
 BYTE   PATT
  POIN2 Label_2_014C4245
// 118   ----------------------------------------
 BYTE   PATT
  POIN2 Label_2_014C4265
// 119   ----------------------------------------
 BYTE   PATT
  POIN2 Label_2_014C4287
// 120   ----------------------------------------
 BYTE   PATT
  POIN2 Label_2_014C42A5
// 121   ----------------------------------------
 BYTE   PATT
  POIN2 Label_2_014C42C7
// 122   ----------------------------------------
 BYTE   PATT
  POIN2 Label_2_014C42E5
// 123   ----------------------------------------
 BYTE   PATT
  POIN2 Label_2_014C4307
// 124   ----------------------------------------
 BYTE   PATT
  POIN2 Label_2_014C431E
// 125   ----------------------------------------
 BYTE   PATT
  POIN2 Label_2_014C4342
// 126   ----------------------------------------
 BYTE   PATT
  POIN2 Label_2_014C4360
// 127   ----------------------------------------
 BYTE   PATT
  POIN2 Label_2_014C4287
// 128   ----------------------------------------
 BYTE   PATT
  POIN2 Label_2_014C42A5
// 129   ----------------------------------------
 BYTE   PATT
  POIN2 Label_2_014C42C7
// 130   ----------------------------------------
 BYTE   PATT
  POIN2 Label_2_014C42E5
// 131   ----------------------------------------
 BYTE   PATT
  POIN2 Label_2_014C4307
// 132   ----------------------------------------
 BYTE   PATT
  POIN2 Label_2_014C439B
// 133   ----------------------------------------
 BYTE   GoTo
  POIN2 Label_2_014C4245
// 134   ----------------------------------------
 BYTE   VOL   47*GuiltyGearXMaysThemeMeatOfJustice_mvl/mxv
 BYTE   N56  An1  v092
 BYTE   N56  En2
 BYTE   N56  An2
 BYTE   W60
 BYTE   N11  An1
 BYTE   N11  En2
 BYTE   N11  An2
 BYTE   W12
 BYTE   An1
 BYTE   N11  En2
 BYTE   N11  An2
 BYTE   W12
 BYTE   An1
 BYTE   N11  En2
 BYTE   N11  An2
 BYTE   W12
// 135   ----------------------------------------
 BYTE   N17  An1
 BYTE   N17  En2
 BYTE   N17  An2
 BYTE   W17
 BYTE   FINE

//**************** Track 4 (Midi-Chn.3) ****************//

GuiltyGearXMaysThemeMeatOfJustice_004:
// 000   ----------------------------------------
 BYTE   KEYSH   GuiltyGearXMaysThemeMeatOfJustice_key+0
 BYTE   VOICE   48
 BYTE   PAN   c_v+34
 BYTE   VOL   27*GuiltyGearXMaysThemeMeatOfJustice_mvl/mxv
 BYTE   W96
// 001   ----------------------------------------
Label_3_014C1B55:
 BYTE   N23  En3  v092
 BYTE   W24
 BYTE   N05  Ds3
 BYTE   W12
 BYTE   Bn2
 BYTE   W12
 BYTE   En3
 BYTE   W12
 BYTE   Ds3
 BYTE   W12
 BYTE   Bn2
 BYTE   W12
 BYTE   En3
 BYTE   W12
 BYTE   PEND 
// 002   ----------------------------------------
Label_3_014C1B67:
 BYTE   N05  Ds3  v092
 BYTE   W12
 BYTE   Bn2
 BYTE   W12
 BYTE   En3
 BYTE   W12
 BYTE   Ds3
 BYTE   W12
 BYTE   Bn2
 BYTE   W12
 BYTE   Ds3
 BYTE   W12
 BYTE   En3
 BYTE   W12
 BYTE   Ds3
 BYTE   W12
 BYTE   PEND 
// 003   ----------------------------------------
 BYTE   PATT
  POIN2 Label_3_014C1B55
// 004   ----------------------------------------
 BYTE   PATT
  POIN2 Label_3_014C1B67
// 005   ----------------------------------------
 BYTE   PATT
  POIN2 Label_3_014C1B55
// 006   ----------------------------------------
 BYTE   PATT
  POIN2 Label_3_014C1B67
// 007   ----------------------------------------
Label_3_014C1B8E:
 BYTE   N68  Bn2  v092
 BYTE   W72
 BYTE   N11  An2
 BYTE   W12
 BYTE   Bn2
 BYTE   W12
 BYTE   PEND 
// 008   ----------------------------------------
Label_3_014C1B98:
 BYTE   N32  Cs3  v092
 BYTE   W36
 BYTE   Bn2
 BYTE   W36
 BYTE   N23  Gs2
 BYTE   W24
 BYTE   PEND 
// 009   ----------------------------------------
 BYTE   PATT
  POIN2 Label_3_014C1B55
// 010   ----------------------------------------
 BYTE   PATT
  POIN2 Label_3_014C1B67
// 011   ----------------------------------------
 BYTE   PATT
  POIN2 Label_3_014C1B55
// 012   ----------------------------------------
 BYTE   PATT
  POIN2 Label_3_014C1B67
// 013   ----------------------------------------
 BYTE   PATT
  POIN2 Label_3_014C1B55
// 014   ----------------------------------------
 BYTE   PATT
  POIN2 Label_3_014C1B67
// 015   ----------------------------------------
 BYTE   N92  Bn2  v092
 BYTE   W96
// 016   ----------------------------------------
 BYTE   W96
// 017   ----------------------------------------
 BYTE   W96
// 018   ----------------------------------------
Label_3_014C1BC6:
 BYTE   W24
 BYTE   N11  Gs3  v092
 BYTE   W12
 BYTE   N11
 BYTE   W12
 BYTE   N11
 BYTE   W12
 BYTE   N23  Fs3
 BYTE   W24
 BYTE   N11  Ds3
 BYTE   W12
 BYTE   PEND 
// 019   ----------------------------------------
 BYTE   N23  En3
 BYTE   W96
// 020   ----------------------------------------
 BYTE   W96
// 021   ----------------------------------------
Label_3_014C1BDA:
 BYTE   N11  Gs3  v092
 BYTE   W12
 BYTE   En3
 BYTE   W12
 BYTE   Cs3
 BYTE   W12
 BYTE   Gs3
 BYTE   W12
 BYTE   En3
 BYTE   W12
 BYTE   Cs3
 BYTE   W12
 BYTE   Gs3
 BYTE   W12
 BYTE   En3
 BYTE   W12
 BYTE   PEND 
// 022   ----------------------------------------
Label_3_014C1BED:
 BYTE   N11  Gs3  v092
 BYTE   W12
 BYTE   En3
 BYTE   W12
 BYTE   Cs3
 BYTE   W12
 BYTE   Gs3
 BYTE   W12
 BYTE   En3
 BYTE   W12
 BYTE   Cs3
 BYTE   W12
 BYTE   Bn3
 BYTE   W24
 BYTE   PEND 
// 023   ----------------------------------------
Label_3_014C1BFE:
 BYTE   N11  En3  v092
 BYTE   W12
 BYTE   Ds3
 BYTE   W12
 BYTE   Bn2
 BYTE   W12
 BYTE   En3
 BYTE   W12
 BYTE   Ds3
 BYTE   W12
 BYTE   Bn2
 BYTE   W12
 BYTE   En3
 BYTE   W12
 BYTE   Ds3
 BYTE   W12
 BYTE   PEND 
// 024   ----------------------------------------
 BYTE   PATT
  POIN2 Label_3_014C1BFE
// 025   ----------------------------------------
 BYTE   W96
// 026   ----------------------------------------
 BYTE   PATT
  POIN2 Label_3_014C1BC6
// 027   ----------------------------------------
 BYTE   N23  En3  v092
 BYTE   W96
// 028   ----------------------------------------
 BYTE   W96
// 029   ----------------------------------------
 BYTE   PATT
  POIN2 Label_3_014C1BDA
// 030   ----------------------------------------
 BYTE   PATT
  POIN2 Label_3_014C1BED
// 031   ----------------------------------------
Label_3_014C1C2B:
 BYTE   N68  An3  v092
 BYTE   W72
 BYTE   N11  Gs3
 BYTE   W12
 BYTE   Fs3
 BYTE   W12
 BYTE   PEND 
// 032   ----------------------------------------
Label_3_014C1C35:
 BYTE   N44  En3  v092
 BYTE   W48
 BYTE   N23  Fs3
 BYTE   W24
 BYTE   Gs3
 BYTE   W24
 BYTE   PEND 
// 033   ----------------------------------------
 BYTE   TIE  An3
 BYTE   W96
// 034   ----------------------------------------
 BYTE   W92
 BYTE   W03
 BYTE   EOT
 BYTE   W01
// 035   ----------------------------------------
 BYTE   TIE  Bn3
 BYTE   W96
// 036   ----------------------------------------
 BYTE   W92
 BYTE   W03
 BYTE   EOT
 BYTE   W01
// 037   ----------------------------------------
 BYTE   TIE  Cs4
 BYTE   W96
// 038   ----------------------------------------
 BYTE   W92
 BYTE   W03
 BYTE   EOT
 BYTE   W01
// 039   ----------------------------------------
 BYTE   N92  Bn3
 BYTE   W96
// 040   ----------------------------------------
 BYTE   TIE
 BYTE   W96
// 041   ----------------------------------------
 BYTE   W11
 BYTE   EOT
 BYTE   W84
 BYTE   W01
// 042   ----------------------------------------
 BYTE   W96
// 043   ----------------------------------------
Label_3_014C1C5E:
 BYTE   N23  Fs3  v092
 BYTE   W24
 BYTE   N05  Gs3
 BYTE   W12
 BYTE   An3
 BYTE   W12
 BYTE   Bn3
 BYTE   W12
 BYTE   Fs3
 BYTE   W12
 BYTE   Gs3
 BYTE   W12
 BYTE   Bn3
 BYTE   W12
 BYTE   PEND 
// 044   ----------------------------------------
Label_3_014C1C70:
 BYTE   N23  Fs3  v092
 BYTE   W24
 BYTE   N05  Gs3
 BYTE   W12
 BYTE   An3
 BYTE   W12
 BYTE   Bn3
 BYTE   W12
 BYTE   Fs3
 BYTE   W12
 BYTE   Gs3
 BYTE   W12
 BYTE   Ds3
 BYTE   W12
 BYTE   PEND 
// 045   ----------------------------------------
Label_3_014C1C82:
 BYTE   N23  Fs3  v092
 BYTE   W24
 BYTE   N05  Gs3
 BYTE   W12
 BYTE   Bn3
 BYTE   W12
 BYTE   Fs3
 BYTE   W12
 BYTE   Gs3
 BYTE   W12
 BYTE   Bn3
 BYTE   W12
 BYTE   Gs3
 BYTE   W12
 BYTE   PEND 
// 046   ----------------------------------------
Label_3_014C1C94:
 BYTE   N23  Bn3  v092
 BYTE   W24
 BYTE   N05  Gs3
 BYTE   W12
 BYTE   Cs4
 BYTE   W12
 BYTE   Bn3
 BYTE   W12
 BYTE   Cs4
 BYTE   W12
 BYTE   Bn3
 BYTE   W12
 BYTE   Gs3
 BYTE   W12
 BYTE   PEND 
// 047   ----------------------------------------
 BYTE   PATT
  POIN2 Label_3_014C1C82
// 048   ----------------------------------------
Label_3_014C1CAB:
 BYTE   N23  Fs3  v092
 BYTE   W24
 BYTE   Gs3
 BYTE   W24
 BYTE   N05  Fs3
 BYTE   W12
 BYTE   Gs3
 BYTE   W12
 BYTE   N05
 BYTE   W12
 BYTE   En3
 BYTE   W12
 BYTE   PEND 
// 049   ----------------------------------------
Label_3_014C1CBB:
 BYTE   N05  Fs3  v092
 BYTE   W24
 BYTE   Gs3
 BYTE   W12
 BYTE   Bn3
 BYTE   W12
 BYTE   Gs3
 BYTE   W12
 BYTE   Fs3
 BYTE   W12
 BYTE   Gs3
 BYTE   W12
 BYTE   Bn3
 BYTE   W12
 BYTE   PEND 
// 050   ----------------------------------------
Label_3_014C1CCC:
 BYTE   N23  Bn3  v092
 BYTE   W24
 BYTE   Gs3
 BYTE   W24
 BYTE   En3
 BYTE   W24
 BYTE   Fs3
 BYTE   W24
 BYTE   PEND 
// 051   ----------------------------------------
 BYTE   PATT
  POIN2 Label_3_014C1C5E
// 052   ----------------------------------------
 BYTE   PATT
  POIN2 Label_3_014C1C70
// 053   ----------------------------------------
 BYTE   PATT
  POIN2 Label_3_014C1C82
// 054   ----------------------------------------
 BYTE   PATT
  POIN2 Label_3_014C1C94
// 055   ----------------------------------------
 BYTE   PATT
  POIN2 Label_3_014C1C82
// 056   ----------------------------------------
 BYTE   PATT
  POIN2 Label_3_014C1CAB
// 057   ----------------------------------------
 BYTE   PATT
  POIN2 Label_3_014C1CBB
// 058   ----------------------------------------
 BYTE   PATT
  POIN2 Label_3_014C1CCC
// 059   ----------------------------------------
 BYTE   PATT
  POIN2 Label_3_014C1B55
// 060   ----------------------------------------
 BYTE   PATT
  POIN2 Label_3_014C1B67
// 061   ----------------------------------------
 BYTE   PATT
  POIN2 Label_3_014C1B55
// 062   ----------------------------------------
 BYTE   PATT
  POIN2 Label_3_014C1B67
// 063   ----------------------------------------
 BYTE   PATT
  POIN2 Label_3_014C1B55
// 064   ----------------------------------------
 BYTE   PATT
  POIN2 Label_3_014C1B67
// 065   ----------------------------------------
 BYTE   PATT
  POIN2 Label_3_014C1B8E
// 066   ----------------------------------------
 BYTE   PATT
  POIN2 Label_3_014C1B98
// 067   ----------------------------------------
 BYTE   PATT
  POIN2 Label_3_014C1B55
// 068   ----------------------------------------
 BYTE   PATT
  POIN2 Label_3_014C1B67
// 069   ----------------------------------------
 BYTE   PATT
  POIN2 Label_3_014C1B55
// 070   ----------------------------------------
 BYTE   PATT
  POIN2 Label_3_014C1B67
// 071   ----------------------------------------
 BYTE   PATT
  POIN2 Label_3_014C1B55
// 072   ----------------------------------------
 BYTE   PATT
  POIN2 Label_3_014C1B67
// 073   ----------------------------------------
 BYTE   N92  Bn2  v092
 BYTE   W96
// 074   ----------------------------------------
 BYTE   W96
// 075   ----------------------------------------
 BYTE   W96
// 076   ----------------------------------------
 BYTE   PATT
  POIN2 Label_3_014C1BC6
// 077   ----------------------------------------
 BYTE   N23  En3  v092
 BYTE   W96
// 078   ----------------------------------------
 BYTE   W96
// 079   ----------------------------------------
 BYTE   PATT
  POIN2 Label_3_014C1BDA
// 080   ----------------------------------------
 BYTE   PATT
  POIN2 Label_3_014C1BED
// 081   ----------------------------------------
 BYTE   PATT
  POIN2 Label_3_014C1BFE
// 082   ----------------------------------------
 BYTE   PATT
  POIN2 Label_3_014C1BFE
// 083   ----------------------------------------
 BYTE   W96
// 084   ----------------------------------------
 BYTE   PATT
  POIN2 Label_3_014C1BC6
// 085   ----------------------------------------
 BYTE   N23  En3  v092
 BYTE   W96
// 086   ----------------------------------------
 BYTE   W96
// 087   ----------------------------------------
 BYTE   PATT
  POIN2 Label_3_014C1BDA
// 088   ----------------------------------------
 BYTE   PATT
  POIN2 Label_3_014C1BED
// 089   ----------------------------------------
 BYTE   PATT
  POIN2 Label_3_014C1C2B
// 090   ----------------------------------------
 BYTE   PATT
  POIN2 Label_3_014C1C35
// 091   ----------------------------------------
 BYTE   TIE  An3  v092
 BYTE   W96
// 092   ----------------------------------------
 BYTE   W92
 BYTE   W03
 BYTE   EOT
 BYTE   W01
// 093   ----------------------------------------
 BYTE   TIE  Bn3
 BYTE   W96
// 094   ----------------------------------------
 BYTE   W92
 BYTE   W03
 BYTE   EOT
 BYTE   W01
// 095   ----------------------------------------
 BYTE   TIE  Cs4
 BYTE   W96
// 096   ----------------------------------------
 BYTE   W92
 BYTE   W03
 BYTE   EOT
 BYTE   W01
// 097   ----------------------------------------
 BYTE   N92  Bn3
 BYTE   W96
// 098   ----------------------------------------
 BYTE   TIE
 BYTE   W96
// 099   ----------------------------------------
 BYTE   W11
 BYTE   EOT
 BYTE   W84
 BYTE   W01
// 100   ----------------------------------------
 BYTE   W96
// 101   ----------------------------------------
 BYTE   PATT
  POIN2 Label_3_014C1C5E
// 102   ----------------------------------------
 BYTE   PATT
  POIN2 Label_3_014C1C70
// 103   ----------------------------------------
 BYTE   PATT
  POIN2 Label_3_014C1C82
// 104   ----------------------------------------
 BYTE   PATT
  POIN2 Label_3_014C1C94
// 105   ----------------------------------------
 BYTE   PATT
  POIN2 Label_3_014C1C82
// 106   ----------------------------------------
 BYTE   PATT
  POIN2 Label_3_014C1CAB
// 107   ----------------------------------------
 BYTE   PATT
  POIN2 Label_3_014C1CBB
// 108   ----------------------------------------
 BYTE   PATT
  POIN2 Label_3_014C1CCC
// 109   ----------------------------------------
 BYTE   PATT
  POIN2 Label_3_014C1C5E
// 110   ----------------------------------------
 BYTE   PATT
  POIN2 Label_3_014C1C70
// 111   ----------------------------------------
 BYTE   PATT
  POIN2 Label_3_014C1C82
// 112   ----------------------------------------
 BYTE   PATT
  POIN2 Label_3_014C1C94
// 113   ----------------------------------------
 BYTE   PATT
  POIN2 Label_3_014C1C82
// 114   ----------------------------------------
 BYTE   PATT
  POIN2 Label_3_014C1CAB
// 115   ----------------------------------------
 BYTE   PATT
  POIN2 Label_3_014C1CBB
// 116   ----------------------------------------
 BYTE   PATT
  POIN2 Label_3_014C1CCC
// 117   ----------------------------------------
 BYTE   PATT
  POIN2 Label_3_014C1B55
// 118   ----------------------------------------
 BYTE   PATT
  POIN2 Label_3_014C1B67
// 119   ----------------------------------------
 BYTE   PATT
  POIN2 Label_3_014C1B55
// 120   ----------------------------------------
 BYTE   PATT
  POIN2 Label_3_014C1B67
// 121   ----------------------------------------
 BYTE   PATT
  POIN2 Label_3_014C1B55
// 122   ----------------------------------------
 BYTE   PATT
  POIN2 Label_3_014C1B67
// 123   ----------------------------------------
 BYTE   PATT
  POIN2 Label_3_014C1B8E
// 124   ----------------------------------------
 BYTE   PATT
  POIN2 Label_3_014C1B98
// 125   ----------------------------------------
 BYTE   PATT
  POIN2 Label_3_014C1B55
// 126   ----------------------------------------
 BYTE   PATT
  POIN2 Label_3_014C1B67
// 127   ----------------------------------------
 BYTE   PATT
  POIN2 Label_3_014C1B55
// 128   ----------------------------------------
 BYTE   PATT
  POIN2 Label_3_014C1B67
// 129   ----------------------------------------
 BYTE   PATT
  POIN2 Label_3_014C1B55
// 130   ----------------------------------------
 BYTE   PATT
  POIN2 Label_3_014C1B67
// 131   ----------------------------------------
 BYTE   N92  Bn2  v092
 BYTE   W96
// 132   ----------------------------------------
 BYTE   Gs2
 BYTE   W96
// 133   ----------------------------------------
 BYTE   GoTo
  POIN2 Label_3_014C1B55
// 134   ----------------------------------------
 BYTE   N92  An2  v092
 BYTE   W96
// 135   ----------------------------------------
 BYTE   W17
 BYTE   FINE

//**************** Track 5 (Midi-Chn.4) ****************//

GuiltyGearXMaysThemeMeatOfJustice_005:
// 000   ----------------------------------------
 BYTE   KEYSH   GuiltyGearXMaysThemeMeatOfJustice_key+0
 BYTE   VOICE   48
 BYTE   VOL   27*GuiltyGearXMaysThemeMeatOfJustice_mvl/mxv
 BYTE   PAN   c_v-34
 BYTE   W96
// 001   ----------------------------------------
Label_4_014C4979:
 BYTE   N23  En4  v092
 BYTE   W24
 BYTE   N05  Ds4
 BYTE   W12
 BYTE   Bn3
 BYTE   W12
 BYTE   En4
 BYTE   W12
 BYTE   Ds4
 BYTE   W12
 BYTE   Bn3
 BYTE   W12
 BYTE   En4
 BYTE   W12
 BYTE   PEND 
// 002   ----------------------------------------
Label_4_014C498B:
 BYTE   N05  Ds4  v092
 BYTE   W12
 BYTE   Bn3
 BYTE   W12
 BYTE   En4
 BYTE   W12
 BYTE   Ds4
 BYTE   W12
 BYTE   Bn3
 BYTE   W12
 BYTE   Ds4
 BYTE   W12
 BYTE   En4
 BYTE   W12
 BYTE   Ds4
 BYTE   W12
 BYTE   PEND 
// 003   ----------------------------------------
 BYTE   PATT
  POIN2 Label_4_014C4979
// 004   ----------------------------------------
 BYTE   PATT
  POIN2 Label_4_014C498B
// 005   ----------------------------------------
 BYTE   PATT
  POIN2 Label_4_014C4979
// 006   ----------------------------------------
 BYTE   PATT
  POIN2 Label_4_014C498B
// 007   ----------------------------------------
Label_4_014C49B2:
 BYTE   N68  Fs3  v092
 BYTE   N68  Bn3
 BYTE   W72
 BYTE   N11  En3
 BYTE   N11  An3
 BYTE   W12
 BYTE   Fs3
 BYTE   N11  Bn3
 BYTE   W12
 BYTE   PEND 
// 008   ----------------------------------------
Label_4_014C49C2:
 BYTE   N32  An3  v092
 BYTE   N32  Cs4
 BYTE   W36
 BYTE   Fs3
 BYTE   N32  Bn3
 BYTE   W36
 BYTE   N23  En3
 BYTE   N23  Gs3
 BYTE   W24
 BYTE   PEND 
// 009   ----------------------------------------
 BYTE   PATT
  POIN2 Label_4_014C4979
// 010   ----------------------------------------
 BYTE   PATT
  POIN2 Label_4_014C498B
// 011   ----------------------------------------
 BYTE   PATT
  POIN2 Label_4_014C4979
// 012   ----------------------------------------
 BYTE   PATT
  POIN2 Label_4_014C498B
// 013   ----------------------------------------
 BYTE   PATT
  POIN2 Label_4_014C4979
// 014   ----------------------------------------
 BYTE   PATT
  POIN2 Label_4_014C498B
// 015   ----------------------------------------
 BYTE   N92  Fs3  v092
 BYTE   N92  Bn3
 BYTE   W96
// 016   ----------------------------------------
 BYTE   Gs3
 BYTE   W96
// 017   ----------------------------------------
 BYTE   W96
// 018   ----------------------------------------
Label_4_014C49F9:
 BYTE   W24
 BYTE   N11  Gs4  v092
 BYTE   W12
 BYTE   N11
 BYTE   W12
 BYTE   N11
 BYTE   W12
 BYTE   N23  Fs4
 BYTE   W24
 BYTE   N11  Ds4
 BYTE   W12
 BYTE   PEND 
// 019   ----------------------------------------
 BYTE   N23  En4
 BYTE   W96
// 020   ----------------------------------------
 BYTE   W96
// 021   ----------------------------------------
Label_4_014C4A0D:
 BYTE   N11  Gs4  v092
 BYTE   W12
 BYTE   En4
 BYTE   W12
 BYTE   Cs4
 BYTE   W12
 BYTE   Gs4
 BYTE   W12
 BYTE   En4
 BYTE   W12
 BYTE   Cs4
 BYTE   W12
 BYTE   Gs4
 BYTE   W12
 BYTE   En4
 BYTE   W12
 BYTE   PEND 
// 022   ----------------------------------------
Label_4_014C4A20:
 BYTE   N11  Gs4  v092
 BYTE   W12
 BYTE   En4
 BYTE   W12
 BYTE   Cs4
 BYTE   W12
 BYTE   Gs4
 BYTE   W12
 BYTE   En4
 BYTE   W12
 BYTE   Cs4
 BYTE   W12
 BYTE   N23  Bn4
 BYTE   W24
 BYTE   PEND 
// 023   ----------------------------------------
Label_4_014C4A32:
 BYTE   N11  En4  v092
 BYTE   W12
 BYTE   Ds4
 BYTE   W12
 BYTE   Bn3
 BYTE   W12
 BYTE   En4
 BYTE   W12
 BYTE   Ds4
 BYTE   W12
 BYTE   Bn3
 BYTE   W12
 BYTE   En4
 BYTE   W12
 BYTE   Ds4
 BYTE   W12
 BYTE   PEND 
// 024   ----------------------------------------
 BYTE   PATT
  POIN2 Label_4_014C4A32
// 025   ----------------------------------------
 BYTE   W96
// 026   ----------------------------------------
 BYTE   PATT
  POIN2 Label_4_014C49F9
// 027   ----------------------------------------
 BYTE   N23  En4  v092
 BYTE   W96
// 028   ----------------------------------------
 BYTE   W96
// 029   ----------------------------------------
 BYTE   PATT
  POIN2 Label_4_014C4A0D
// 030   ----------------------------------------
 BYTE   PATT
  POIN2 Label_4_014C4A20
// 031   ----------------------------------------
Label_4_014C4A5F:
 BYTE   N68  An4  v092
 BYTE   W72
 BYTE   N11  Gs4
 BYTE   W12
 BYTE   Fs4
 BYTE   W12
 BYTE   PEND 
// 032   ----------------------------------------
Label_4_014C4A69:
 BYTE   N44  En4  v092
 BYTE   W48
 BYTE   N23  Fs4
 BYTE   W24
 BYTE   Gs4
 BYTE   W24
 BYTE   PEND 
// 033   ----------------------------------------
 BYTE   TIE  An4
 BYTE   W96
// 034   ----------------------------------------
 BYTE   W92
 BYTE   W03
 BYTE   EOT
 BYTE   W01
// 035   ----------------------------------------
 BYTE   TIE  Bn4
 BYTE   W96
// 036   ----------------------------------------
 BYTE   W92
 BYTE   W03
 BYTE   EOT
 BYTE   W01
// 037   ----------------------------------------
 BYTE   TIE  Cs5
 BYTE   W96
// 038   ----------------------------------------
 BYTE   W92
 BYTE   W03
 BYTE   EOT
 BYTE   W01
// 039   ----------------------------------------
 BYTE   N92  Bn4
 BYTE   W96
// 040   ----------------------------------------
Label_4_014C4A8B:
 BYTE   TIE  Fs4  v092
 BYTE   TIE  Bn4
 BYTE   W96
 BYTE   PEND 
// 041   ----------------------------------------
 BYTE   W11
 BYTE   EOT
 BYTE   Fs4  v083
 BYTE   W84
 BYTE   W01
// 042   ----------------------------------------
 BYTE   W96
// 043   ----------------------------------------
Label_4_014C4A99:
 BYTE   N68  En4  v092
 BYTE   W72
 BYTE   N23  Ds4
 BYTE   W24
 BYTE   PEND 
// 044   ----------------------------------------
Label_4_014C4AA1:
 BYTE   N68  Bn4  v092
 BYTE   W72
 BYTE   N23  Ds4
 BYTE   W24
 BYTE   PEND 
// 045   ----------------------------------------
Label_4_014C4AA9:
 BYTE   N80  En4  v092
 BYTE   W84
 BYTE   N11  Ds4
 BYTE   W12
 BYTE   PEND 
// 046   ----------------------------------------
 BYTE   N92  Bn4
 BYTE   W96
// 047   ----------------------------------------
 BYTE   TIE  Gs4
 BYTE   W96
// 048   ----------------------------------------
 BYTE   W92
 BYTE   W03
 BYTE   EOT
 BYTE   W01
// 049   ----------------------------------------
 BYTE   N92
 BYTE   W96
// 050   ----------------------------------------
 BYTE   W96
// 051   ----------------------------------------
 BYTE   PATT
  POIN2 Label_4_014C4A99
// 052   ----------------------------------------
 BYTE   PATT
  POIN2 Label_4_014C4AA1
// 053   ----------------------------------------
 BYTE   PATT
  POIN2 Label_4_014C4AA9
// 054   ----------------------------------------
 BYTE   N92  Bn4  v092
 BYTE   W96
// 055   ----------------------------------------
 BYTE   TIE  Gs4
 BYTE   W96
// 056   ----------------------------------------
 BYTE   W92
 BYTE   W03
 BYTE   EOT
 BYTE   W01
// 057   ----------------------------------------
 BYTE   N92
 BYTE   W96
// 058   ----------------------------------------
 BYTE   W96
// 059   ----------------------------------------
 BYTE   PATT
  POIN2 Label_4_014C4979
// 060   ----------------------------------------
 BYTE   PATT
  POIN2 Label_4_014C498B
// 061   ----------------------------------------
 BYTE   PATT
  POIN2 Label_4_014C4979
// 062   ----------------------------------------
 BYTE   PATT
  POIN2 Label_4_014C498B
// 063   ----------------------------------------
 BYTE   PATT
  POIN2 Label_4_014C4979
// 064   ----------------------------------------
 BYTE   PATT
  POIN2 Label_4_014C498B
// 065   ----------------------------------------
 BYTE   PATT
  POIN2 Label_4_014C49B2
// 066   ----------------------------------------
 BYTE   PATT
  POIN2 Label_4_014C49C2
// 067   ----------------------------------------
 BYTE   PATT
  POIN2 Label_4_014C4979
// 068   ----------------------------------------
 BYTE   PATT
  POIN2 Label_4_014C498B
// 069   ----------------------------------------
 BYTE   PATT
  POIN2 Label_4_014C4979
// 070   ----------------------------------------
 BYTE   PATT
  POIN2 Label_4_014C498B
// 071   ----------------------------------------
 BYTE   PATT
  POIN2 Label_4_014C4979
// 072   ----------------------------------------
 BYTE   PATT
  POIN2 Label_4_014C498B
// 073   ----------------------------------------
 BYTE   N92  Fs3  v092
 BYTE   N92  Bn3
 BYTE   W96
// 074   ----------------------------------------
 BYTE   Gs3
 BYTE   W96
// 075   ----------------------------------------
 BYTE   W96
// 076   ----------------------------------------
 BYTE   PATT
  POIN2 Label_4_014C49F9
// 077   ----------------------------------------
 BYTE   N23  En4  v092
 BYTE   W96
// 078   ----------------------------------------
 BYTE   W96
// 079   ----------------------------------------
 BYTE   PATT
  POIN2 Label_4_014C4A0D
// 080   ----------------------------------------
 BYTE   PATT
  POIN2 Label_4_014C4A20
// 081   ----------------------------------------
 BYTE   PATT
  POIN2 Label_4_014C4A32
// 082   ----------------------------------------
 BYTE   PATT
  POIN2 Label_4_014C4A32
// 083   ----------------------------------------
 BYTE   W96
// 084   ----------------------------------------
 BYTE   PATT
  POIN2 Label_4_014C49F9
// 085   ----------------------------------------
 BYTE   N23  En4  v092
 BYTE   W96
// 086   ----------------------------------------
 BYTE   W96
// 087   ----------------------------------------
 BYTE   PATT
  POIN2 Label_4_014C4A0D
// 088   ----------------------------------------
 BYTE   PATT
  POIN2 Label_4_014C4A20
// 089   ----------------------------------------
 BYTE   PATT
  POIN2 Label_4_014C4A5F
// 090   ----------------------------------------
 BYTE   PATT
  POIN2 Label_4_014C4A69
// 091   ----------------------------------------
 BYTE   TIE  An4  v092
 BYTE   W96
// 092   ----------------------------------------
 BYTE   W92
 BYTE   W03
 BYTE   EOT
 BYTE   W01
// 093   ----------------------------------------
 BYTE   TIE  Bn4
 BYTE   W96
// 094   ----------------------------------------
 BYTE   W92
 BYTE   W03
 BYTE   EOT
 BYTE   W01
// 095   ----------------------------------------
 BYTE   TIE  Cs5
 BYTE   W96
// 096   ----------------------------------------
 BYTE   W92
 BYTE   W03
 BYTE   EOT
 BYTE   W01
// 097   ----------------------------------------
 BYTE   N92  Bn4
 BYTE   W96
// 098   ----------------------------------------
 BYTE   PATT
  POIN2 Label_4_014C4A8B
// 099   ----------------------------------------
 BYTE   W11
 BYTE   EOT
 BYTE   Fs4  v083
 BYTE   W84
 BYTE   W01
// 100   ----------------------------------------
 BYTE   W96
// 101   ----------------------------------------
 BYTE   PATT
  POIN2 Label_4_014C4A99
// 102   ----------------------------------------
 BYTE   PATT
  POIN2 Label_4_014C4AA1
// 103   ----------------------------------------
 BYTE   PATT
  POIN2 Label_4_014C4AA9
// 104   ----------------------------------------
 BYTE   N92  Bn4  v092
 BYTE   W96
// 105   ----------------------------------------
 BYTE   TIE  Gs4
 BYTE   W96
// 106   ----------------------------------------
 BYTE   W92
 BYTE   W03
 BYTE   EOT
 BYTE   W01
// 107   ----------------------------------------
 BYTE   N92
 BYTE   W96
// 108   ----------------------------------------
 BYTE   W96
// 109   ----------------------------------------
 BYTE   PATT
  POIN2 Label_4_014C4A99
// 110   ----------------------------------------
 BYTE   PATT
  POIN2 Label_4_014C4AA1
// 111   ----------------------------------------
 BYTE   PATT
  POIN2 Label_4_014C4AA9
// 112   ----------------------------------------
 BYTE   N92  Bn4  v092
 BYTE   W96
// 113   ----------------------------------------
 BYTE   TIE  Gs4
 BYTE   W96
// 114   ----------------------------------------
 BYTE   W92
 BYTE   W03
 BYTE   EOT
 BYTE   W01
// 115   ----------------------------------------
 BYTE   N92
 BYTE   W96
// 116   ----------------------------------------
 BYTE   W96
// 117   ----------------------------------------
 BYTE   PATT
  POIN2 Label_4_014C4979
// 118   ----------------------------------------
 BYTE   PATT
  POIN2 Label_4_014C498B
// 119   ----------------------------------------
 BYTE   PATT
  POIN2 Label_4_014C4979
// 120   ----------------------------------------
 BYTE   PATT
  POIN2 Label_4_014C498B
// 121   ----------------------------------------
 BYTE   PATT
  POIN2 Label_4_014C4979
// 122   ----------------------------------------
 BYTE   PATT
  POIN2 Label_4_014C498B
// 123   ----------------------------------------
 BYTE   PATT
  POIN2 Label_4_014C49B2
// 124   ----------------------------------------
 BYTE   PATT
  POIN2 Label_4_014C49C2
// 125   ----------------------------------------
 BYTE   PATT
  POIN2 Label_4_014C4979
// 126   ----------------------------------------
 BYTE   PATT
  POIN2 Label_4_014C498B
// 127   ----------------------------------------
 BYTE   PATT
  POIN2 Label_4_014C4979
// 128   ----------------------------------------
 BYTE   PATT
  POIN2 Label_4_014C498B
// 129   ----------------------------------------
 BYTE   PATT
  POIN2 Label_4_014C4979
// 130   ----------------------------------------
 BYTE   PATT
  POIN2 Label_4_014C498B
// 131   ----------------------------------------
 BYTE   N92  Fs3  v092
 BYTE   N92  Bn3
 BYTE   W96
// 132   ----------------------------------------
 BYTE   Ds3
 BYTE   N92  Gs3
 BYTE   W96
// 133   ----------------------------------------
 BYTE   GoTo
  POIN2 Label_4_014C4979
// 134   ----------------------------------------
 BYTE   N92  En3  v092
 BYTE   N92  An3
 BYTE   W96
// 135   ----------------------------------------
 BYTE   W17
 BYTE   FINE

//**************** Track 6 (Midi-Chn.5) ****************//

GuiltyGearXMaysThemeMeatOfJustice_006:
// 000   ----------------------------------------
 BYTE   KEYSH   GuiltyGearXMaysThemeMeatOfJustice_key+0
 BYTE   VOICE   30
 BYTE   VOL   40*GuiltyGearXMaysThemeMeatOfJustice_mvl/mxv
 BYTE   PAN   c_v-9
 BYTE   W96
// 001   ----------------------------------------
Label_5_014C379D:
 BYTE   W96
// 002   ----------------------------------------
 BYTE   W96
// 003   ----------------------------------------
 BYTE   W96
// 004   ----------------------------------------
 BYTE   W96
// 005   ----------------------------------------
 BYTE   W96
// 006   ----------------------------------------
 BYTE   W96
// 007   ----------------------------------------
 BYTE   W96
// 008   ----------------------------------------
 BYTE   W96
// 009   ----------------------------------------
 BYTE   W96
// 010   ----------------------------------------
 BYTE   W96
// 011   ----------------------------------------
 BYTE   W96
// 012   ----------------------------------------
 BYTE   W96
// 013   ----------------------------------------
 BYTE   W96
// 014   ----------------------------------------
 BYTE   W96
// 015   ----------------------------------------
 BYTE   W96
// 016   ----------------------------------------
 BYTE   W96
// 017   ----------------------------------------
Label_5_014C37AD:
 BYTE   N02  Ds3  v100
 BYTE   N23  En3  v092
 BYTE   W24
 BYTE   N11  Bn2
 BYTE   W12
 BYTE   En3
 BYTE   W12
 BYTE   N02  An3  v100
 BYTE   N23  Bn3  v092
 BYTE   W24
 BYTE   N11  Bn2
 BYTE   W12
 BYTE   Ds3
 BYTE   W12
 BYTE   PEND 
// 018   ----------------------------------------
Label_5_014C37C6:
 BYTE   N02  Ds3  v100
 BYTE   N68  En3  v092
 BYTE   W72
 BYTE   N11  Bn2
 BYTE   W12
 BYTE   Ds3
 BYTE   W12
 BYTE   PEND 
// 019   ----------------------------------------
Label_5_014C37D3:
 BYTE   N02  Ds3  v100
 BYTE   N23  En3  v092
 BYTE   W24
 BYTE   N11  Bn2
 BYTE   W12
 BYTE   N02  An3  v100
 BYTE   N11  Bn3  v092
 BYTE   W12
 BYTE   Bn2
 BYTE   W12
 BYTE   An3
 BYTE   W12
 BYTE   Gs3
 BYTE   W12
 BYTE   Fs3
 BYTE   W12
 BYTE   PEND 
// 020   ----------------------------------------
Label_5_014C37ED:
 BYTE   N56  En3  v092
 BYTE   W60
 BYTE   N11  Ds3
 BYTE   W12
 BYTE   En3
 BYTE   W12
 BYTE   Fs3
 BYTE   W12
 BYTE   PEND 
// 021   ----------------------------------------
Label_5_014C37F9:
 BYTE   N02  Fs3  v100
 BYTE   TIE  Gs3  v092
 BYTE   W96
 BYTE   PEND 
// 022   ----------------------------------------
 BYTE   W68
 BYTE   W03
 BYTE   EOT
 BYTE   W01
 BYTE   N11  Ds3
 BYTE   W12
 BYTE   Cs3
 BYTE   W12
// 023   ----------------------------------------
Label_5_014C380A:
 BYTE   N02  Cs3  v100
 BYTE   N23  Ds3  v092
 BYTE   W24
 BYTE   N11  En3
 BYTE   W12
 BYTE   N44  Cs3
 BYTE   W48
 BYTE   N11
 BYTE   W12
 BYTE   PEND 
// 024   ----------------------------------------
 BYTE   N80  Bn2
 BYTE   W96
// 025   ----------------------------------------
 BYTE   PATT
  POIN2 Label_5_014C37AD
// 026   ----------------------------------------
 BYTE   PATT
  POIN2 Label_5_014C37C6
// 027   ----------------------------------------
 BYTE   PATT
  POIN2 Label_5_014C37D3
// 028   ----------------------------------------
 BYTE   PATT
  POIN2 Label_5_014C37ED
// 029   ----------------------------------------
 BYTE   PATT
  POIN2 Label_5_014C37F9
// 030   ----------------------------------------
 BYTE   W68
 BYTE   W03
 BYTE   EOT
 BYTE   Gs3
 BYTE   W01
 BYTE   N11  Ds3  v092
 BYTE   W12
 BYTE   Cs3
 BYTE   W12
// 031   ----------------------------------------
Label_5_014C3841:
 BYTE   N02  Cs3  v100
 BYTE   N23  Ds3  v092
 BYTE   W24
 BYTE   N11  En3
 BYTE   W12
 BYTE   N56  Cs3
 BYTE   W60
 BYTE   PEND 
// 032   ----------------------------------------
Label_5_014C384F:
 BYTE   N23  Ds3  v092
 BYTE   W24
 BYTE   En3
 BYTE   W24
 BYTE   N02  En3  v100
 BYTE   N23  Fs3  v092
 BYTE   W24
 BYTE   N02  Fs3  v100
 BYTE   N23  Gs3  v092
 BYTE   W24
 BYTE   PEND 
// 033   ----------------------------------------
Label_5_014C3864:
 BYTE   N02  Gs3  v100
 BYTE   N68  An3  v092
 BYTE   W72
 BYTE   N11  Gs3
 BYTE   W12
 BYTE   An3
 BYTE   W12
 BYTE   PEND 
// 034   ----------------------------------------
Label_5_014C3871:
 BYTE   N02  An3  v100
 BYTE   N44  Bn3  v092
 BYTE   W48
 BYTE   N23  Fs3
 BYTE   W24
 BYTE   En3
 BYTE   W24
 BYTE   PEND 
// 035   ----------------------------------------
Label_5_014C387E:
 BYTE   N02  Fs3  v100
 BYTE   N68  Gs3  v092
 BYTE   W72
 BYTE   N11  Fs3
 BYTE   W12
 BYTE   Gs3
 BYTE   W12
 BYTE   PEND 
// 036   ----------------------------------------
Label_5_014C388B:
 BYTE   N02  Gs3  v100
 BYTE   N44  An3  v092
 BYTE   W48
 BYTE   N23  Gs3
 BYTE   W24
 BYTE   Ds3
 BYTE   W24
 BYTE   PEND 
// 037   ----------------------------------------
Label_5_014C3898:
 BYTE   N02  Ds3  v100
 BYTE   N68  En3  v092
 BYTE   W72
 BYTE   N11  Ds3
 BYTE   W12
 BYTE   En3
 BYTE   W12
 BYTE   PEND 
// 038   ----------------------------------------
Label_5_014C38A5:
 BYTE   N32  Fs3  v092
 BYTE   W36
 BYTE   Gs3
 BYTE   W36
 BYTE   N23  An3
 BYTE   W24
 BYTE   PEND 
// 039   ----------------------------------------
Label_5_014C38AF:
 BYTE   N02  Ds4  v100
 BYTE   N92  En4  v092
 BYTE   W96
 BYTE   PEND 
// 040   ----------------------------------------
Label_5_014C38B7:
 BYTE   N02  Cs4  v100
 BYTE   TIE  Ds4  v092
 BYTE   W96
 BYTE   PEND 
// 041   ----------------------------------------
 BYTE   W11
 BYTE   EOT
 BYTE   W84
 BYTE   W01
// 042   ----------------------------------------
 BYTE   W96
// 043   ----------------------------------------
Label_5_014C38C4:
 BYTE   N02  Ds3  v108
 BYTE   N68  En3  v092
 BYTE   W72
 BYTE   N23  Ds3
 BYTE   W24
 BYTE   PEND 
// 044   ----------------------------------------
Label_5_014C38CF:
 BYTE   N02  An3  v108
 BYTE   N68  Bn3  v092
 BYTE   W72
 BYTE   N23  Ds3
 BYTE   W24
 BYTE   PEND 
// 045   ----------------------------------------
Label_5_014C38DA:
 BYTE   N02  Ds3  v108
 BYTE   N80  En3  v092
 BYTE   W84
 BYTE   N11  Ds3
 BYTE   W12
 BYTE   PEND 
// 046   ----------------------------------------
Label_5_014C38E5:
 BYTE   N02  An3  v108
 BYTE   N92  Bn3  v092
 BYTE   W96
 BYTE   PEND 
// 047   ----------------------------------------
Label_5_014C38ED:
 BYTE   N02  Fs3  v108
 BYTE   N68  Gs3  v092
 BYTE   W72
 BYTE   N11  An3
 BYTE   W12
 BYTE   Gs3
 BYTE   W12
 BYTE   PEND 
// 048   ----------------------------------------
Label_5_014C38FA:
 BYTE   N02  Ds3  v108
 BYTE   N68  En3  v092
 BYTE   W72
 BYTE   N23  Bn2
 BYTE   W24
 BYTE   PEND 
// 049   ----------------------------------------
 BYTE   PATT
  POIN2 Label_5_014C38ED
// 050   ----------------------------------------
Label_5_014C390A:
 BYTE   N02  An3  v108
 BYTE   N23  Bn3  v092
 BYTE   W24
 BYTE   N02  Fs3  v108
 BYTE   N23  Gs3  v092
 BYTE   W24
 BYTE   N02  Ds3  v108
 BYTE   N23  En3  v092
 BYTE   W24
 BYTE   N02  En3  v108
 BYTE   N23  Fs3  v092
 BYTE   W24
 BYTE   PEND 
// 051   ----------------------------------------
 BYTE   PATT
  POIN2 Label_5_014C38C4
// 052   ----------------------------------------
 BYTE   PATT
  POIN2 Label_5_014C38CF
// 053   ----------------------------------------
 BYTE   PATT
  POIN2 Label_5_014C38DA
// 054   ----------------------------------------
Label_5_014C3936:
 BYTE   N02  An3  v108
 BYTE   N32  Bn3  v092
 BYTE   W36
 BYTE   N02  Bn3  v108
 BYTE   N11  Cs4  v092
 BYTE   W12
 BYTE   N02  An3  v108
 BYTE   N44  Bn3  v092
 BYTE   W48
 BYTE   PEND 
// 055   ----------------------------------------
 BYTE   PATT
  POIN2 Label_5_014C38ED
// 056   ----------------------------------------
 BYTE   PATT
  POIN2 Label_5_014C38FA
// 057   ----------------------------------------
 BYTE   PATT
  POIN2 Label_5_014C38ED
// 058   ----------------------------------------
 BYTE   PATT
  POIN2 Label_5_014C390A
// 059   ----------------------------------------
 BYTE   TIE  En3  v092
 BYTE   W96
// 060   ----------------------------------------
 BYTE   W96
// 061   ----------------------------------------
 BYTE   W96
// 062   ----------------------------------------
 BYTE   W92
 BYTE   W03
 BYTE   EOT
 BYTE   W01
// 063   ----------------------------------------
 BYTE   W96
// 064   ----------------------------------------
 BYTE   W96
// 065   ----------------------------------------
 BYTE   W96
// 066   ----------------------------------------
 BYTE   W96
// 067   ----------------------------------------
 BYTE   W96
// 068   ----------------------------------------
 BYTE   W96
// 069   ----------------------------------------
 BYTE   W96
// 070   ----------------------------------------
 BYTE   W96
// 071   ----------------------------------------
 BYTE   W96
// 072   ----------------------------------------
 BYTE   W96
// 073   ----------------------------------------
 BYTE   W96
// 074   ----------------------------------------
 BYTE   W96
// 075   ----------------------------------------
 BYTE   PATT
  POIN2 Label_5_014C37AD
// 076   ----------------------------------------
 BYTE   PATT
  POIN2 Label_5_014C37C6
// 077   ----------------------------------------
 BYTE   PATT
  POIN2 Label_5_014C37D3
// 078   ----------------------------------------
 BYTE   PATT
  POIN2 Label_5_014C37ED
// 079   ----------------------------------------
 BYTE   PATT
  POIN2 Label_5_014C37F9
// 080   ----------------------------------------
 BYTE   W68
 BYTE   W03
 BYTE   EOT
 BYTE   Gs3
 BYTE   W01
 BYTE   N11  Ds3  v092
 BYTE   W12
 BYTE   Cs3
 BYTE   W12
// 081   ----------------------------------------
 BYTE   PATT
  POIN2 Label_5_014C380A
// 082   ----------------------------------------
 BYTE   N80  Bn2  v092
 BYTE   W96
// 083   ----------------------------------------
 BYTE   PATT
  POIN2 Label_5_014C37AD
// 084   ----------------------------------------
 BYTE   PATT
  POIN2 Label_5_014C37C6
// 085   ----------------------------------------
 BYTE   PATT
  POIN2 Label_5_014C37D3
// 086   ----------------------------------------
 BYTE   PATT
  POIN2 Label_5_014C37ED
// 087   ----------------------------------------
 BYTE   PATT
  POIN2 Label_5_014C37F9
// 088   ----------------------------------------
 BYTE   W68
 BYTE   W03
 BYTE   EOT
 BYTE   Gs3
 BYTE   W01
 BYTE   N11  Ds3  v092
 BYTE   W12
 BYTE   Cs3
 BYTE   W12
// 089   ----------------------------------------
 BYTE   PATT
  POIN2 Label_5_014C3841
// 090   ----------------------------------------
 BYTE   PATT
  POIN2 Label_5_014C384F
// 091   ----------------------------------------
 BYTE   PATT
  POIN2 Label_5_014C3864
// 092   ----------------------------------------
 BYTE   PATT
  POIN2 Label_5_014C3871
// 093   ----------------------------------------
 BYTE   PATT
  POIN2 Label_5_014C387E
// 094   ----------------------------------------
 BYTE   PATT
  POIN2 Label_5_014C388B
// 095   ----------------------------------------
 BYTE   PATT
  POIN2 Label_5_014C3898
// 096   ----------------------------------------
 BYTE   PATT
  POIN2 Label_5_014C38A5
// 097   ----------------------------------------
 BYTE   PATT
  POIN2 Label_5_014C38AF
// 098   ----------------------------------------
 BYTE   PATT
  POIN2 Label_5_014C38B7
// 099   ----------------------------------------
 BYTE   W11
 BYTE   EOT
 BYTE   Ds4
 BYTE   W84
 BYTE   W01
// 100   ----------------------------------------
 BYTE   W96
// 101   ----------------------------------------
 BYTE   PATT
  POIN2 Label_5_014C38C4
// 102   ----------------------------------------
 BYTE   PATT
  POIN2 Label_5_014C38CF
// 103   ----------------------------------------
 BYTE   PATT
  POIN2 Label_5_014C38DA
// 104   ----------------------------------------
 BYTE   PATT
  POIN2 Label_5_014C38E5
// 105   ----------------------------------------
 BYTE   PATT
  POIN2 Label_5_014C38ED
// 106   ----------------------------------------
 BYTE   PATT
  POIN2 Label_5_014C38FA
// 107   ----------------------------------------
 BYTE   PATT
  POIN2 Label_5_014C38ED
// 108   ----------------------------------------
 BYTE   PATT
  POIN2 Label_5_014C390A
// 109   ----------------------------------------
 BYTE   PATT
  POIN2 Label_5_014C38C4
// 110   ----------------------------------------
 BYTE   PATT
  POIN2 Label_5_014C38CF
// 111   ----------------------------------------
 BYTE   PATT
  POIN2 Label_5_014C38DA
// 112   ----------------------------------------
 BYTE   PATT
  POIN2 Label_5_014C3936
// 113   ----------------------------------------
 BYTE   PATT
  POIN2 Label_5_014C38ED
// 114   ----------------------------------------
 BYTE   PATT
  POIN2 Label_5_014C38FA
// 115   ----------------------------------------
 BYTE   PATT
  POIN2 Label_5_014C38ED
// 116   ----------------------------------------
 BYTE   PATT
  POIN2 Label_5_014C390A
// 117   ----------------------------------------
 BYTE   TIE  En3  v092
 BYTE   W96
// 118   ----------------------------------------
 BYTE   W96
// 119   ----------------------------------------
 BYTE   W96
// 120   ----------------------------------------
 BYTE   W92
 BYTE   W03
 BYTE   EOT
 BYTE   W01
// 121   ----------------------------------------
 BYTE   W96
// 122   ----------------------------------------
 BYTE   W96
// 123   ----------------------------------------
 BYTE   W96
// 124   ----------------------------------------
 BYTE   W96
// 125   ----------------------------------------
 BYTE   W96
// 126   ----------------------------------------
 BYTE   W96
// 127   ----------------------------------------
 BYTE   W96
// 128   ----------------------------------------
 BYTE   W96
// 129   ----------------------------------------
 BYTE   W96
// 130   ----------------------------------------
 BYTE   W96
// 131   ----------------------------------------
 BYTE   W96
// 132   ----------------------------------------
 BYTE   W96
// 133   ----------------------------------------
 BYTE   GoTo
  POIN2 Label_5_014C379D
// 134   ----------------------------------------
 BYTE   W96
// 135   ----------------------------------------
 BYTE   W17
 BYTE   FINE

//**************** Track 7 (Midi-Chn.6) ****************//

GuiltyGearXMaysThemeMeatOfJustice_007:
// 000   ----------------------------------------
 BYTE   KEYSH   GuiltyGearXMaysThemeMeatOfJustice_key+0
 BYTE   VOICE   30
 BYTE   PAN   c_v+9
 BYTE   VOL   45*GuiltyGearXMaysThemeMeatOfJustice_mvl/mxv
 BYTE   W96
// 001   ----------------------------------------
Label_6_014C187D:
 BYTE   W96
// 002   ----------------------------------------
 BYTE   W96
// 003   ----------------------------------------
 BYTE   W96
// 004   ----------------------------------------
 BYTE   W96
// 005   ----------------------------------------
 BYTE   W96
// 006   ----------------------------------------
 BYTE   W96
// 007   ----------------------------------------
 BYTE   W96
// 008   ----------------------------------------
 BYTE   W96
// 009   ----------------------------------------
 BYTE   W96
// 010   ----------------------------------------
 BYTE   W96
// 011   ----------------------------------------
 BYTE   W96
// 012   ----------------------------------------
 BYTE   W96
// 013   ----------------------------------------
 BYTE   W96
// 014   ----------------------------------------
 BYTE   W96
// 015   ----------------------------------------
 BYTE   W96
// 016   ----------------------------------------
 BYTE   W96
// 017   ----------------------------------------
 BYTE   W96
// 018   ----------------------------------------
 BYTE   W96
// 019   ----------------------------------------
 BYTE   W96
// 020   ----------------------------------------
 BYTE   W96
// 021   ----------------------------------------
 BYTE   W96
// 022   ----------------------------------------
 BYTE   W96
// 023   ----------------------------------------
 BYTE   W96
// 024   ----------------------------------------
 BYTE   W96
// 025   ----------------------------------------
 BYTE   W96
// 026   ----------------------------------------
 BYTE   W96
// 027   ----------------------------------------
 BYTE   W96
// 028   ----------------------------------------
 BYTE   W96
// 029   ----------------------------------------
 BYTE   W96
// 030   ----------------------------------------
 BYTE   W96
// 031   ----------------------------------------
 BYTE   W96
// 032   ----------------------------------------
 BYTE   W96
// 033   ----------------------------------------
Label_6_014C189D:
 BYTE   N02  Ds3  v100
 BYTE   N68  En3  v092
 BYTE   W72
 BYTE   N11
 BYTE   W12
 BYTE   Fs3
 BYTE   W12
 BYTE   PEND 
// 034   ----------------------------------------
Label_6_014C18A9:
 BYTE   N02  Fs3  v100
 BYTE   N44  Gs3  v092
 BYTE   W48
 BYTE   N23  Ds3
 BYTE   W24
 BYTE   Cs3
 BYTE   W24
 BYTE   PEND 
// 035   ----------------------------------------
Label_6_014C18B6:
 BYTE   N02  Cs3  v100
 BYTE   N68  Ds3  v092
 BYTE   W72
 BYTE   N11  Cs3
 BYTE   W12
 BYTE   Ds3
 BYTE   W12
 BYTE   PEND 
// 036   ----------------------------------------
Label_6_014C18C3:
 BYTE   N02  Dn3  v100
 BYTE   N44  En3  v092
 BYTE   W48
 BYTE   N23  Ds3
 BYTE   W24
 BYTE   Bn2
 BYTE   W24
 BYTE   PEND 
// 037   ----------------------------------------
Label_6_014C18D0:
 BYTE   N02  Bn2  v100
 BYTE   N68  Cs3  v092
 BYTE   W72
 BYTE   N11  Bn2
 BYTE   W12
 BYTE   Cs3
 BYTE   W12
 BYTE   PEND 
// 038   ----------------------------------------
Label_6_014C18DD:
 BYTE   N32  Ds3  v092
 BYTE   W36
 BYTE   En3
 BYTE   W36
 BYTE   N23  Fs3
 BYTE   W24
 BYTE   PEND 
// 039   ----------------------------------------
Label_6_014C18E7:
 BYTE   N02  Fs3  v092
 BYTE   N92  Gs3
 BYTE   W96
 BYTE   PEND 
// 040   ----------------------------------------
Label_6_014C18EE:
 BYTE   N02  En3  v092
 BYTE   TIE  Fs3
 BYTE   W96
 BYTE   PEND 
// 041   ----------------------------------------
 BYTE   W11
 BYTE   EOT
 BYTE   W84
 BYTE   W01
// 042   ----------------------------------------
 BYTE   W96
// 043   ----------------------------------------
 BYTE   W96
// 044   ----------------------------------------
 BYTE   W96
// 045   ----------------------------------------
 BYTE   W96
// 046   ----------------------------------------
 BYTE   W96
// 047   ----------------------------------------
 BYTE   W96
// 048   ----------------------------------------
 BYTE   W96
// 049   ----------------------------------------
 BYTE   W96
// 050   ----------------------------------------
Label_6_014C1901:
 BYTE   N23  Gs3  v092
 BYTE   W24
 BYTE   En3
 BYTE   W24
 BYTE   Bn2
 BYTE   W24
 BYTE   Ds3
 BYTE   W24
 BYTE   PEND 
// 051   ----------------------------------------
 BYTE   W96
// 052   ----------------------------------------
 BYTE   W96
// 053   ----------------------------------------
 BYTE   W96
// 054   ----------------------------------------
 BYTE   W96
// 055   ----------------------------------------
 BYTE   W96
// 056   ----------------------------------------
 BYTE   W96
// 057   ----------------------------------------
 BYTE   W96
// 058   ----------------------------------------
 BYTE   PATT
  POIN2 Label_6_014C1901
// 059   ----------------------------------------
 BYTE   TIE  Bn2  v092
 BYTE   W96
// 060   ----------------------------------------
 BYTE   W96
// 061   ----------------------------------------
 BYTE   W96
// 062   ----------------------------------------
 BYTE   W92
 BYTE   W03
 BYTE   EOT
 BYTE   W01
// 063   ----------------------------------------
 BYTE   W96
// 064   ----------------------------------------
 BYTE   W96
// 065   ----------------------------------------
 BYTE   W96
// 066   ----------------------------------------
 BYTE   W96
// 067   ----------------------------------------
 BYTE   W96
// 068   ----------------------------------------
 BYTE   W96
// 069   ----------------------------------------
 BYTE   W96
// 070   ----------------------------------------
 BYTE   W96
// 071   ----------------------------------------
 BYTE   W96
// 072   ----------------------------------------
 BYTE   W96
// 073   ----------------------------------------
 BYTE   W96
// 074   ----------------------------------------
 BYTE   W96
// 075   ----------------------------------------
 BYTE   W96
// 076   ----------------------------------------
 BYTE   W96
// 077   ----------------------------------------
 BYTE   W96
// 078   ----------------------------------------
 BYTE   W96
// 079   ----------------------------------------
 BYTE   W96
// 080   ----------------------------------------
 BYTE   W96
// 081   ----------------------------------------
 BYTE   W96
// 082   ----------------------------------------
 BYTE   W96
// 083   ----------------------------------------
 BYTE   W96
// 084   ----------------------------------------
 BYTE   W96
// 085   ----------------------------------------
 BYTE   W96
// 086   ----------------------------------------
 BYTE   W96
// 087   ----------------------------------------
 BYTE   W96
// 088   ----------------------------------------
 BYTE   W96
// 089   ----------------------------------------
 BYTE   W96
// 090   ----------------------------------------
 BYTE   W96
// 091   ----------------------------------------
 BYTE   PATT
  POIN2 Label_6_014C189D
// 092   ----------------------------------------
 BYTE   PATT
  POIN2 Label_6_014C18A9
// 093   ----------------------------------------
 BYTE   PATT
  POIN2 Label_6_014C18B6
// 094   ----------------------------------------
 BYTE   PATT
  POIN2 Label_6_014C18C3
// 095   ----------------------------------------
 BYTE   PATT
  POIN2 Label_6_014C18D0
// 096   ----------------------------------------
 BYTE   PATT
  POIN2 Label_6_014C18DD
// 097   ----------------------------------------
 BYTE   PATT
  POIN2 Label_6_014C18E7
// 098   ----------------------------------------
 BYTE   PATT
  POIN2 Label_6_014C18EE
// 099   ----------------------------------------
 BYTE   W11
 BYTE   EOT
 BYTE   Fs3
 BYTE   W84
 BYTE   W01
// 100   ----------------------------------------
 BYTE   W96
// 101   ----------------------------------------
 BYTE   W96
// 102   ----------------------------------------
 BYTE   W96
// 103   ----------------------------------------
 BYTE   W96
// 104   ----------------------------------------
 BYTE   W96
// 105   ----------------------------------------
 BYTE   W96
// 106   ----------------------------------------
 BYTE   W96
// 107   ----------------------------------------
 BYTE   W96
// 108   ----------------------------------------
 BYTE   PATT
  POIN2 Label_6_014C1901
// 109   ----------------------------------------
 BYTE   W96
// 110   ----------------------------------------
 BYTE   W96
// 111   ----------------------------------------
 BYTE   W96
// 112   ----------------------------------------
 BYTE   W96
// 113   ----------------------------------------
 BYTE   W96
// 114   ----------------------------------------
 BYTE   W96
// 115   ----------------------------------------
 BYTE   W96
// 116   ----------------------------------------
 BYTE   PATT
  POIN2 Label_6_014C1901
// 117   ----------------------------------------
 BYTE   TIE  Bn2  v092
 BYTE   W96
// 118   ----------------------------------------
 BYTE   W96
// 119   ----------------------------------------
 BYTE   W96
// 120   ----------------------------------------
 BYTE   W92
 BYTE   W03
 BYTE   EOT
 BYTE   W01
// 121   ----------------------------------------
 BYTE   W96
// 122   ----------------------------------------
 BYTE   W96
// 123   ----------------------------------------
 BYTE   W96
// 124   ----------------------------------------
 BYTE   W96
// 125   ----------------------------------------
 BYTE   W96
// 126   ----------------------------------------
 BYTE   W96
// 127   ----------------------------------------
 BYTE   W96
// 128   ----------------------------------------
 BYTE   W96
// 129   ----------------------------------------
 BYTE   W96
// 130   ----------------------------------------
 BYTE   W96
// 131   ----------------------------------------
 BYTE   W96
// 132   ----------------------------------------
 BYTE   W96
// 133   ----------------------------------------
 BYTE   GoTo
  POIN2 Label_6_014C187D
// 134   ----------------------------------------
 BYTE   W96
// 135   ----------------------------------------
 BYTE   W17
 BYTE   FINE

//******************************************************//
	ALIGN 4

GuiltyGearXMaysThemeMeatOfJustice:
	BYTE	7	// NumTrks
	BYTE	0	// NumBlks
	BYTE	GuiltyGearXMaysThemeMeatOfJustice_pri	// Priority
	BYTE	GuiltyGearXMaysThemeMeatOfJustice_rev	// Reverb.
    
	POIN2	GuiltyGearXMaysThemeMeatOfJustice_grp
    
	POIN2	GuiltyGearXMaysThemeMeatOfJustice_001
	POIN2	GuiltyGearXMaysThemeMeatOfJustice_002
	POIN2	GuiltyGearXMaysThemeMeatOfJustice_003
	POIN2	GuiltyGearXMaysThemeMeatOfJustice_004
	POIN2	GuiltyGearXMaysThemeMeatOfJustice_005
	POIN2	GuiltyGearXMaysThemeMeatOfJustice_006
	POIN2	GuiltyGearXMaysThemeMeatOfJustice_007

	
