//Event file generated from Sappy .s format.
	#include "MPlayDef.event"

	#define	GuiltyGearXAdvanceSolBadguysThemeMeatOfJustice_grp  voicegroup000
	#define	GuiltyGearXAdvanceSolBadguysThemeMeatOfJustice_pri  0
	#define	GuiltyGearXAdvanceSolBadguysThemeMeatOfJustice_rev  0
	#define	GuiltyGearXAdvanceSolBadguysThemeMeatOfJustice_mvl  127
	#define	GuiltyGearXAdvanceSolBadguysThemeMeatOfJustice_key  0
	#define	GuiltyGearXAdvanceSolBadguysThemeMeatOfJustice_tbs  1
	#define	GuiltyGearXAdvanceSolBadguysThemeMeatOfJustice_exg  0
	#define	GuiltyGearXAdvanceSolBadguysThemeMeatOfJustice_cmp  1

	// .rodata
	//	GuiltyGearXAdvanceSolBadguysThemeMeatOfJustice
	ALIGN 4


//**************** Track 1 (Midi-Chn.0) ****************//

GuiltyGearXAdvanceSolBadguysThemeMeatOfJustice_001:
//  #01 //000   ----------------------------------------
 BYTE   KEYSH   GuiltyGearXAdvanceSolBadguysThemeMeatOfJustice_key+0
 BYTE   TEMPO   240*GuiltyGearXAdvanceSolBadguysThemeMeatOfJustice_tbs/2
 BYTE   VOICE   30
 BYTE   MODT 0
 BYTE   LFOS 44
 BYTE   VOL   72*GuiltyGearXAdvanceSolBadguysThemeMeatOfJustice_mvl/mxv
 BYTE   W01
 BYTE   BENDR  2
 BYTE   W01
 BYTE   PAN   c_v+0
 BYTE   W01
 BYTE   TEMPO   116*GuiltyGearXAdvanceSolBadguysThemeMeatOfJustice_tbs/2
 BYTE   BEND   c_v+0
 BYTE   W60
 BYTE   BEND   c_v+2
 BYTE   N24  Dn4  v036
 BYTE   W02
 BYTE   BEND   c_v+21
 BYTE   W01
 BYTE   BEND   c_v+63
 BYTE   W24
 BYTE   W03
 BYTE   BEND   c_v+0
 BYTE   N24  Dn4  v008
 BYTE   W03
//  #01 //001   ----------------------------------------
 BYTE   W68
 BYTE   W01
 BYTE   BEND   c_v+2
 BYTE   N28  Dn4  v032
 BYTE   W02
 BYTE   BEND   c_v+21
 BYTE   W01
 BYTE   BEND   c_v+63
 BYTE   W24
//  #01 //002   ----------------------------------------
 BYTE   BEND   c_v+50
 BYTE   W02
 BYTE   BEND   c_v+23
 BYTE   W01
 BYTE   BEND   c_v+0
 BYTE   N11  En4  v060
 BYTE   W12
 BYTE   N05  Dn4
 BYTE   W06
 BYTE   Gn3
 BYTE   W06
 BYTE   Cs4
 BYTE   W06
 BYTE   An3  v064
 BYTE   W06
 BYTE   Gn3
 BYTE   W06
 BYTE   N11  En3  v060
 BYTE   W12
 BYTE   N05
 BYTE   W06
 BYTE   BEND   c_v+2
 BYTE   N23  Dn4
 BYTE   W02
 BYTE   BEND   c_v+21
 BYTE   W01
 BYTE   BEND   c_v+63
 BYTE   W20
 BYTE   BEND   c_v+0
 BYTE   W01
 BYTE   N05  En3
 BYTE   W06
 BYTE   N05
 BYTE   W03
//  #01 //003   ----------------------------------------
 BYTE   W03
 BYTE   N11  An3  v064
 BYTE   W12
 BYTE   N05  En3  v060
 BYTE   W06
 BYTE   N11  As3
 BYTE   W12
 BYTE   N05  En3
 BYTE   W06
 BYTE   N11  Bn3
 BYTE   W12
 BYTE   N05  En3
 BYTE   W06
 BYTE   Dn4  v064
 BYTE   W06
 BYTE   En3  v060
 BYTE   W06
 BYTE   N05
 BYTE   W06
 BYTE   Cs4  v064
 BYTE   W06
 BYTE   Gn3  v060
 BYTE   W06
 BYTE   An3  v064
 BYTE   W06
 BYTE   En3  v060
 BYTE   W03
//  #01 //004   ----------------------------------------
 BYTE   W03
 BYTE   N11  En4
 BYTE   W12
 BYTE   N05  Dn4
 BYTE   W06
 BYTE   Gn3
 BYTE   W06
 BYTE   Cs4
 BYTE   W06
 BYTE   An3  v064
 BYTE   W06
 BYTE   Gn3
 BYTE   W06
 BYTE   N11  En3  v060
 BYTE   W12
 BYTE   N05
 BYTE   W06
 BYTE   BEND   c_v+2
 BYTE   N23  Dn4
 BYTE   W02
 BYTE   BEND   c_v+21
 BYTE   W01
 BYTE   BEND   c_v+63
 BYTE   W20
 BYTE   BEND   c_v+0
 BYTE   W01
 BYTE   N05  En3
 BYTE   W06
 BYTE   N05
 BYTE   W03
//  #01 //005   ----------------------------------------
 BYTE   W03
 BYTE   N11  An3
 BYTE   W12
 BYTE   N05  En3
 BYTE   W06
 BYTE   N11  As3
 BYTE   W12
 BYTE   N05  En3
 BYTE   W06
 BYTE   N11  Bn3  v064
 BYTE   W12
 BYTE   N05  En3  v060
 BYTE   W06
 BYTE   Dn4  v064
 BYTE   W06
 BYTE   En3  v060
 BYTE   W06
 BYTE   BEND   c_v+2
 BYTE   N23  Dn4  v064
 BYTE   W02
 BYTE   BEND   c_v+21
 BYTE   W01
 BYTE   BEND   c_v+63
 BYTE   W20
 BYTE   BEND   c_v+0
 BYTE   W01
 BYTE   N05  En3  v060
 BYTE   W03
//  #01 //006   ----------------------------------------
 BYTE   W03
Label_0103C25E:
 BYTE   N05  En2  v064
 BYTE   W06
 BYTE   En2  v060
 BYTE   W06
 BYTE   En3  v064
 BYTE   W06
 BYTE   En2  v060
 BYTE   W06
 BYTE   An2  v064
 BYTE   W06
 BYTE   En2  v060
 BYTE   W06
 BYTE   Gn2
 BYTE   W06
 BYTE   En2
 BYTE   W06
 BYTE   Gn2
 BYTE   W06
 BYTE   En2
 BYTE   W06
 BYTE   Gn2
 BYTE   W06
 BYTE   En2
 BYTE   W06
 BYTE   N05
 BYTE   W06
 BYTE   N05
 BYTE   W06
 BYTE   An2  v064
 BYTE   W06
 BYTE   En2  v060
 BYTE   W03
//  #01 //007   ----------------------------------------
Label_0103C287:
 BYTE   W03
 BYTE   N05  En2  v060
 BYTE   W06
 BYTE   N05
 BYTE   W06
 BYTE   En3
 BYTE   W06
 BYTE   En2
 BYTE   W06
 BYTE   An2
 BYTE   W06
 BYTE   En2
 BYTE   W06
 BYTE   Gn2  v064
 BYTE   W06
 BYTE   En2  v060
 BYTE   W06
 BYTE   Gn2
 BYTE   W06
 BYTE   En2
 BYTE   W06
 BYTE   Gn2  v064
 BYTE   W06
 BYTE   En2  v060
 BYTE   W06
 BYTE   N05
 BYTE   W06
 BYTE   N05
 BYTE   W06
 BYTE   An2  v064
 BYTE   W06
 BYTE   En2  v060
 BYTE   W03
 BYTE   PEND 
//  #01 //008   ----------------------------------------
Label_0103C2B1:
 BYTE   W03
 BYTE   N05  En2  v064
 BYTE   W06
 BYTE   En2  v060
 BYTE   W06
 BYTE   En3  v064
 BYTE   W06
 BYTE   En2  v060
 BYTE   W06
 BYTE   An2  v064
 BYTE   W06
 BYTE   En2  v060
 BYTE   W06
 BYTE   Gn2  v064
 BYTE   W06
 BYTE   En2  v060
 BYTE   W06
 BYTE   Gn2  v064
 BYTE   W06
 BYTE   En2  v060
 BYTE   W06
 BYTE   Gn2
 BYTE   W06
 BYTE   En2
 BYTE   W06
 BYTE   N05
 BYTE   W06
 BYTE   N05
 BYTE   W06
 BYTE   An2
 BYTE   W06
 BYTE   En2
 BYTE   W03
 BYTE   PEND 
//  #01 //009   ----------------------------------------
Label_0103C2DE:
 BYTE   W03
 BYTE   N05  En2  v064
 BYTE   W06
 BYTE   En2  v060
 BYTE   W06
 BYTE   En3
 BYTE   W06
 BYTE   En2
 BYTE   W06
 BYTE   An2
 BYTE   W06
 BYTE   En2
 BYTE   W06
 BYTE   Gn2  v064
 BYTE   W06
 BYTE   En2  v060
 BYTE   W06
 BYTE   N23  Dn3  v064
 BYTE   W24
 BYTE   En3
 BYTE   W21
 BYTE   PEND 
//  #01 //010   ----------------------------------------
 BYTE   W03
 BYTE   N05  En2
 BYTE   W06
 BYTE   En2  v060
 BYTE   W06
 BYTE   En3  v064
 BYTE   W06
 BYTE   En2  v060
 BYTE   W06
 BYTE   An2  v064
 BYTE   W06
 BYTE   En2  v060
 BYTE   W06
 BYTE   Gn2
 BYTE   W06
 BYTE   En2
 BYTE   W06
 BYTE   Gn2
 BYTE   W06
 BYTE   En2
 BYTE   W06
 BYTE   Gn2
 BYTE   W06
 BYTE   En2
 BYTE   W06
 BYTE   N05
 BYTE   W06
 BYTE   N05
 BYTE   W06
 BYTE   An2  v064
 BYTE   W06
 BYTE   En2  v060
 BYTE   W03
//  #01 //011   ----------------------------------------
 BYTE   PATT
  POIN2 Label_0103C287
//  #01 //012   ----------------------------------------
 BYTE   PATT
  POIN2 Label_0103C2B1
//  #01 //013   ----------------------------------------
 BYTE   PATT
  POIN2 Label_0103C2DE
//  #01 //014   ----------------------------------------
 BYTE   PATT
  POIN2 Label_0103C2B1
//  #01 //015   ----------------------------------------
 BYTE   PATT
  POIN2 Label_0103C2DE
//  #01 //016   ----------------------------------------
 BYTE   W03
 BYTE   N11  An2  v064
 BYTE   W12
 BYTE   N05  En2  v060
 BYTE   W06
 BYTE   N11  As2
 BYTE   W12
 BYTE   N05  En2
 BYTE   W06
 BYTE   N11  Bn2
 BYTE   W12
 BYTE   N05  En2  v064
 BYTE   W06
 BYTE   En2  v060
 BYTE   W06
 BYTE   En2  v064
 BYTE   W06
 BYTE   En2  v060
 BYTE   W06
 BYTE   BEND   c_v+2
 BYTE   N11  Dn3
 BYTE   W02
 BYTE   BEND   c_v+21
 BYTE   W01
 BYTE   BEND   c_v+63
 BYTE   W08
 BYTE   BEND   c_v+0
 BYTE   W01
 BYTE   N05  En2
 BYTE   W06
 BYTE   En2  v064
 BYTE   W03
//  #01 //017   ----------------------------------------
Label_0103C36E:
 BYTE   W03
 BYTE   N11  Dn3  v060
 BYTE   W12
 BYTE   N05
 BYTE   W06
 BYTE   N11
 BYTE   W12
 BYTE   N05
 BYTE   W06
 BYTE   N11
 BYTE   W12
 BYTE   N05  Fn2  v064
 BYTE   W06
 BYTE   En3
 BYTE   W06
 BYTE   Gn2  v060
 BYTE   W06
 BYTE   N11  Dn3  v064
 BYTE   W12
 BYTE   N05  Bn2  v060
 BYTE   W06
 BYTE   Gn2
 BYTE   W06
 BYTE   En2
 BYTE   W03
 BYTE   PEND 
//  #01 //018   ----------------------------------------
 BYTE   W03
 BYTE   N11  An2  v064
 BYTE   W12
 BYTE   N05  En2  v060
 BYTE   W06
 BYTE   N11  As2
 BYTE   W12
 BYTE   N05  En2
 BYTE   W06
 BYTE   N11  Bn2
 BYTE   W12
 BYTE   N05  En2  v064
 BYTE   W06
 BYTE   En2  v060
 BYTE   W06
 BYTE   En2  v064
 BYTE   W06
 BYTE   En2  v060
 BYTE   W06
 BYTE   BEND   c_v+2
 BYTE   N11  Dn3
 BYTE   W01
 BYTE   BEND   c_v+10
 BYTE   W01
 BYTE   BEND   c_v+21
 BYTE   W01
 BYTE   BEND   c_v+63
 BYTE   W08
 BYTE   BEND   c_v+0
 BYTE   W01
 BYTE   N05  En2
 BYTE   W06
 BYTE   En2  v064
 BYTE   W03
//  #01 //019   ----------------------------------------
 BYTE   PATT
  POIN2 Label_0103C36E
//  #01 //020   ----------------------------------------
 BYTE   W03
 BYTE   N05  En1  v092
 BYTE   W06
 BYTE   BEND   c_v+2
 BYTE   N11  Fn2  v127
 BYTE   W01
 BYTE   BEND   c_v+10
 BYTE   W01
 BYTE   BEND   c_v+21
 BYTE   W01
 BYTE   BEND   c_v+63
 BYTE   W08
 BYTE   BEND   c_v+0
 BYTE   W01
 BYTE   N05  En1  v092
 BYTE   W06
 BYTE   N11  An2  v127
 BYTE   W12
 BYTE   N05  En1  v092
 BYTE   W06
 BYTE   N11  Dn2  v127
 BYTE   W12
 BYTE   N05  En1  v092
 BYTE   W06
 BYTE   N11  Gn1  v127
 BYTE   W12
 BYTE   N05  En1  v092
 BYTE   W06
 BYTE   BEND   c_v+2
 BYTE   N11  Gn1  v127
 BYTE   W02
 BYTE   BEND   c_v+21
 BYTE   W01
 BYTE   BEND   c_v+63
 BYTE   W08
 BYTE   BEND   c_v+0
 BYTE   W01
 BYTE   N05  En1  v092
 BYTE   W03
//  #01 //021   ----------------------------------------
 BYTE   W03
 BYTE   En1  v104
 BYTE   W06
 BYTE   En1  v092
 BYTE   W06
 BYTE   Gn1  v127
 BYTE   W06
 BYTE   En1  v092
 BYTE   W06
 BYTE   N05
 BYTE   W06
 BYTE   An1  v127
 BYTE   W06
 BYTE   En1  v092
 BYTE   W06
 BYTE   N05
 BYTE   W06
 BYTE   N05
 BYTE   W06
 BYTE   Dn2  v127
 BYTE   W06
 BYTE   En1  v092
 BYTE   W06
 BYTE   N05
 BYTE   W06
 BYTE   Cs2  v127
 BYTE   W06
 BYTE   En1  v092
 BYTE   W06
 BYTE   Dn2  v127
 BYTE   W06
 BYTE   En2
 BYTE   W03
//  #01 //022   ----------------------------------------
 BYTE   W03
 BYTE   En1  v092
 BYTE   W06
 BYTE   BEND   c_v+2
 BYTE   N11  Fn2  v127
 BYTE   W02
 BYTE   BEND   c_v+21
 BYTE   W01
 BYTE   BEND   c_v+63
 BYTE   W08
 BYTE   BEND   c_v+0
 BYTE   W01
 BYTE   N05  En1  v092
 BYTE   W06
 BYTE   N11  An2  v127
 BYTE   W12
 BYTE   N05  En1  v092
 BYTE   W06
 BYTE   N11  Dn2  v127
 BYTE   W12
 BYTE   N05  En1  v092
 BYTE   W06
 BYTE   N11  Gn2  v127
 BYTE   W12
 BYTE   N05  En1  v092
 BYTE   W06
 BYTE   BEND   c_v+2
 BYTE   N11  Gn2  v127
 BYTE   W02
 BYTE   BEND   c_v+21
 BYTE   W01
 BYTE   BEND   c_v+63
 BYTE   W08
 BYTE   BEND   c_v+0
 BYTE   W01
 BYTE   N05  En1  v092
 BYTE   W03
//  #01 //023   ----------------------------------------
Label_0103C474:
 BYTE   W03
 BYTE   N05  En2  v064
 BYTE   W06
 BYTE   En2  v060
 BYTE   W06
 BYTE   Gn2
 BYTE   W06
 BYTE   En2
 BYTE   W06
 BYTE   N05
 BYTE   W06
 BYTE   An2  v064
 BYTE   W06
 BYTE   En2  v060
 BYTE   W06
 BYTE   N05
 BYTE   W06
 BYTE   N05
 BYTE   W06
 BYTE   Dn3  v064
 BYTE   W06
 BYTE   En2  v060
 BYTE   W06
 BYTE   N05
 BYTE   W06
 BYTE   Cs3  v064
 BYTE   W06
 BYTE   En2  v060
 BYTE   W06
 BYTE   Dn3
 BYTE   W06
 BYTE   En3
 BYTE   W03
 BYTE   PEND 
//  #01 //024   ----------------------------------------
Label_0103C49F:
 BYTE   W03
 BYTE   N05  En2  v060
 BYTE   W06
 BYTE   BEND   c_v+2
 BYTE   N11  Fn3  v064
 BYTE   W02
 BYTE   BEND   c_v+21
 BYTE   W01
 BYTE   BEND   c_v+63
 BYTE   W08
 BYTE   BEND   c_v+0
 BYTE   W01
 BYTE   N05  En2  v060
 BYTE   W06
 BYTE   N11  An3  v064
 BYTE   W12
 BYTE   N05  En2  v060
 BYTE   W06
 BYTE   N11  Dn3  v064
 BYTE   W12
 BYTE   N05  En2  v060
 BYTE   W06
 BYTE   N11  Gn2
 BYTE   W12
 BYTE   N05  En2
 BYTE   W06
 BYTE   BEND   c_v+2
 BYTE   N11  Gn2  v064
 BYTE   W02
 BYTE   BEND   c_v+21
 BYTE   W01
 BYTE   BEND   c_v+63
 BYTE   W08
 BYTE   BEND   c_v+0
 BYTE   W01
 BYTE   N05  En2  v060
 BYTE   W03
 BYTE   PEND 
//  #01 //025   ----------------------------------------
 BYTE   PATT
  POIN2 Label_0103C474
//  #01 //026   ----------------------------------------
 BYTE   W03
 BYTE   N05  En2  v060
 BYTE   W06
 BYTE   BEND   c_v+2
 BYTE   N11  Fn3  v064
 BYTE   W02
 BYTE   BEND   c_v+21
 BYTE   W01
 BYTE   BEND   c_v+63
 BYTE   W08
 BYTE   BEND   c_v+0
 BYTE   W01
 BYTE   N05  En2  v060
 BYTE   W06
 BYTE   N11  An3  v064
 BYTE   W12
 BYTE   N05  En2  v060
 BYTE   W06
 BYTE   N11  Dn3  v064
 BYTE   W12
 BYTE   N05  En2  v060
 BYTE   W06
 BYTE   N11  Gn3
 BYTE   W12
 BYTE   N05  En2
 BYTE   W06
 BYTE   BEND   c_v+2
 BYTE   N11  Gn3  v064
 BYTE   W02
 BYTE   BEND   c_v+21
 BYTE   W01
 BYTE   BEND   c_v+63
 BYTE   W08
 BYTE   BEND   c_v+0
 BYTE   W01
 BYTE   N05  En2  v060
 BYTE   W03
//  #01 //027   ----------------------------------------
 BYTE   PATT
  POIN2 Label_0103C474
//  #01 //028   ----------------------------------------
 BYTE   PATT
  POIN2 Label_0103C49F
//  #01 //029   ----------------------------------------
 BYTE   W48
 BYTE   W03
 BYTE   N04  En2  v060
 BYTE   W06
 BYTE   Dn3
 BYTE   W06
 BYTE   En2
 BYTE   W06
 BYTE   BEND   c_v+2
 BYTE   N23  Dn3
 BYTE   W02
 BYTE   BEND   c_v+21
 BYTE   W01
 BYTE   BEND   c_v+63
 BYTE   W20
 BYTE   BEND   c_v+0
 BYTE   W01
 BYTE   N04  En2
 BYTE   W03
//  #01 //030   ----------------------------------------
Label_0103C542:
 BYTE   W03
 BYTE   N04  Gn2  v064
 BYTE   W06
 BYTE   Dn3
 BYTE   W06
 BYTE   Gn2  v060
 BYTE   W06
 BYTE   BEND   c_v+2
 BYTE   N23  Dn3
 BYTE   W02
 BYTE   BEND   c_v+21
 BYTE   W01
 BYTE   BEND   c_v+63
 BYTE   W20
 BYTE   BEND   c_v+0
 BYTE   W01
 BYTE   N04  Gn2
 BYTE   W06
 BYTE   An2
 BYTE   W06
 BYTE   Dn3
 BYTE   W06
 BYTE   An2
 BYTE   W06
 BYTE   BEND   c_v+2
 BYTE   N23  Dn3  v064
 BYTE   W02
 BYTE   BEND   c_v+21
 BYTE   W01
 BYTE   BEND   c_v+63
 BYTE   W20
 BYTE   BEND   c_v+0
 BYTE   W01
 BYTE   N04  An2  v060
 BYTE   W03
 BYTE   PEND 
//  #01 //031   ----------------------------------------
Label_0103C573:
 BYTE   W03
 BYTE   N04  As2  v064
 BYTE   W06
 BYTE   Gn3  v060
 BYTE   W06
 BYTE   As2
 BYTE   W06
 BYTE   BEND   c_v+2
 BYTE   N23  Gn3
 BYTE   W02
 BYTE   BEND   c_v+21
 BYTE   W01
 BYTE   BEND   c_v+63
 BYTE   W20
 BYTE   BEND   c_v+0
 BYTE   W01
 BYTE   N04  As2
 BYTE   W06
 BYTE   En2
 BYTE   W06
 BYTE   Dn3
 BYTE   W06
 BYTE   En2
 BYTE   W06
 BYTE   BEND   c_v+2
 BYTE   N23  Dn3
 BYTE   W02
 BYTE   BEND   c_v+21
 BYTE   W01
 BYTE   BEND   c_v+63
 BYTE   W20
 BYTE   BEND   c_v+0
 BYTE   W01
 BYTE   N04  En2
 BYTE   W03
 BYTE   PEND 
//  #01 //032   ----------------------------------------
 BYTE   PATT
  POIN2 Label_0103C542
//  #01 //033   ----------------------------------------
 BYTE   PATT
  POIN2 Label_0103C573
//  #01 //034   ----------------------------------------
 BYTE   PATT
  POIN2 Label_0103C542
//  #01 //035   ----------------------------------------
 BYTE   PATT
  POIN2 Label_0103C573
//  #01 //036   ----------------------------------------
 BYTE   PATT
  POIN2 Label_0103C542
//  #01 //037   ----------------------------------------
 BYTE   W03
 BYTE   N04  As2  v064
 BYTE   W06
 BYTE   Gn3  v060
 BYTE   W06
 BYTE   As2
 BYTE   W06
 BYTE   BEND   c_v+2
 BYTE   N23  Gn3
 BYTE   W02
 BYTE   BEND   c_v+21
 BYTE   W01
 BYTE   BEND   c_v+63
 BYTE   W20
 BYTE   BEND   c_v+0
 BYTE   W01
 BYTE   N04  As2
 BYTE   W06
 BYTE   BEND   c_v-1
 BYTE   N05  Bn2  v064
 BYTE   W06
 BYTE   Bn2  v060
 BYTE   W06
 BYTE   N05
 BYTE   W06
 BYTE   N05
 BYTE   W06
 BYTE   N05
 BYTE   W06
 BYTE   N05
 BYTE   W06
 BYTE   N05
 BYTE   W06
 BYTE   N05
 BYTE   W03
//  #01 //038   ----------------------------------------
 BYTE   W03
 BYTE   N05
 BYTE   W06
 BYTE   N05
 BYTE   W06
 BYTE   N05
 BYTE   W06
 BYTE   Bn2  v064
 BYTE   W06
 BYTE   Bn2  v060
 BYTE   W06
 BYTE   N05
 BYTE   W06
 BYTE   N05
 BYTE   W06
 BYTE   N05
 BYTE   W06
 BYTE   Bn2  v064
 BYTE   W06
 BYTE   Bn2  v060
 BYTE   W06
 BYTE   N05
 BYTE   W06
 BYTE   N05
 BYTE   W06
 BYTE   N05
 BYTE   W06
 BYTE   N05
 BYTE   W06
 BYTE   Bn2  v064
 BYTE   W06
 BYTE   Bn2  v060
 BYTE   W03
//  #01 //039   ----------------------------------------
Label_0103C610:
 BYTE   W03
 BYTE   BEND   c_v+0
 BYTE   N11  En3  v060
 BYTE   W12
 BYTE   N05  Dn3
 BYTE   W06
 BYTE   Gn2
 BYTE   W06
 BYTE   Cs3
 BYTE   W06
 BYTE   An2  v064
 BYTE   W06
 BYTE   Gn2
 BYTE   W06
 BYTE   N11  En2  v060
 BYTE   W12
 BYTE   N05
 BYTE   W06
 BYTE   BEND   c_v+2
 BYTE   N23  Dn3
 BYTE   W02
 BYTE   BEND   c_v+21
 BYTE   W01
 BYTE   BEND   c_v+63
 BYTE   W20
 BYTE   BEND   c_v+0
 BYTE   W01
 BYTE   N05  En2
 BYTE   W06
 BYTE   N05
 BYTE   W03
 BYTE   PEND 
//  #01 //040   ----------------------------------------
Label_0103C63B:
 BYTE   W03
 BYTE   N11  An2  v064
 BYTE   W12
 BYTE   N05  En2  v060
 BYTE   W06
 BYTE   N11  As2
 BYTE   W12
 BYTE   N05  En2
 BYTE   W06
 BYTE   N11  Bn2
 BYTE   W12
 BYTE   N05  En2
 BYTE   W06
 BYTE   Dn3  v064
 BYTE   W06
 BYTE   En2  v060
 BYTE   W06
 BYTE   N05
 BYTE   W06
 BYTE   Cs3  v064
 BYTE   W06
 BYTE   Gn2  v060
 BYTE   W06
 BYTE   An2  v064
 BYTE   W06
 BYTE   En2  v060
 BYTE   W03
 BYTE   PEND 
//  #01 //041   ----------------------------------------
 BYTE   PATT
  POIN2 Label_0103C610
//  #01 //042   ----------------------------------------
 BYTE   PATT
  POIN2 Label_0103C63B
//  #01 //043   ----------------------------------------
 BYTE   W03
 BYTE   GoTo
  POIN2 Label_0103C25E
 BYTE   FINE

//**************** Track 2 (Midi-Chn.1) ****************//

GuiltyGearXAdvanceSolBadguysThemeMeatOfJustice_002:
//  #02 //000   ----------------------------------------
 BYTE   KEYSH   GuiltyGearXAdvanceSolBadguysThemeMeatOfJustice_key+0
 BYTE   VOICE   36
 BYTE   MODT 0
 BYTE   LFOS 44
 BYTE   VOL   72*GuiltyGearXAdvanceSolBadguysThemeMeatOfJustice_mvl/mxv
 BYTE   W01
 BYTE   BENDR  2
 BYTE   W01
 BYTE   PAN   c_v+0
 BYTE   W01
 BYTE   BEND   c_v+0
 BYTE   W01
 BYTE   N10  En3  v024
 BYTE   W11
 BYTE   N06  Dn3
 BYTE   W06
 BYTE   En2
 BYTE   W06
 BYTE   Cs3
 BYTE   W06
 BYTE   An2
 BYTE   W06
 BYTE   Gn2
 BYTE   W06
 BYTE   N12  En2
 BYTE   W12
 BYTE   N06
 BYTE   W06
 BYTE   BEND   c_v+2
 BYTE   N24  Dn4
 BYTE   W02
 BYTE   BEND   c_v+21
 BYTE   W01
 BYTE   BEND   c_v+63
 BYTE   W21
 BYTE   N06  En2
 BYTE   W02
 BYTE   BEND   c_v+63
 BYTE   W02
 BYTE   BEND   c_v+38
 BYTE   W01
 BYTE   BEND   c_v+23
 BYTE   W01
 BYTE   BEND   c_v+0
 BYTE   N06
 BYTE   W03
//  #02 //001   ----------------------------------------
 BYTE   W03
 BYTE   N12  An3
 BYTE   W12
 BYTE   N06  En3
 BYTE   W06
 BYTE   N12  As3
 BYTE   W12
 BYTE   N06  En3
 BYTE   W06
 BYTE   N12  Bn3
 BYTE   W12
 BYTE   N06  En3
 BYTE   W06
 BYTE   Dn4
 BYTE   W06
 BYTE   En3
 BYTE   W06
 BYTE   BEND   c_v+2
 BYTE   N30  An4
 BYTE   W02
 BYTE   BEND   c_v+21
 BYTE   W01
 BYTE   BEND   c_v+63
 BYTE   W24
//  #02 //002   ----------------------------------------
 BYTE   BEND   c_v+50
 BYTE   W02
 BYTE   BEND   c_v+23
 BYTE   W92
 BYTE   W02
//  #02 //003   ----------------------------------------
 BYTE   W96
//  #02 //004   ----------------------------------------
 BYTE   W96
//  #02 //005   ----------------------------------------
 BYTE   W96
//  #02 //006   ----------------------------------------
 BYTE   W03
Label_014DDC55:
 BYTE   BEND   c_v+23
 BYTE   W92
 BYTE   W01
//  #02 //007   ----------------------------------------
 BYTE   W96
//  #02 //008   ----------------------------------------
 BYTE   W96
//  #02 //009   ----------------------------------------
 BYTE   W03
 BYTE   BEND   c_v+0
 BYTE   N06  En2  v060
 BYTE   W06
 BYTE   An4
 BYTE   W06
 BYTE   En2  v064
 BYTE   W06
 BYTE   N30  Gn4
 BYTE   W24
 BYTE   BEND   c_v+2
 BYTE   W02
 BYTE   BEND   c_v-9
 BYTE   W02
 BYTE   BEND   c_v-28
 BYTE   W01
 BYTE   BEND   c_v+0
 BYTE   W44
 BYTE   W02
//  #02 //010   ----------------------------------------
 BYTE   W24
 BYTE   W03
 BYTE   N06  En3
 BYTE   W06
 BYTE   Gn2
 BYTE   W06
 BYTE   En3
 BYTE   W06
 BYTE   N90  An3  v060
 BYTE   W48
 BYTE   W03
//  #02 //011   ----------------------------------------
Label_014DDC81:
 BYTE   W24
 BYTE   W03
 BYTE   BEND   c_v+2
 BYTE   W04
 BYTE   BEND   c_v-9
 BYTE   W04
 BYTE   BEND   c_v-28
 BYTE   W03
 BYTE   BEND   c_v+0
 BYTE   W56
 BYTE   W02
 BYTE   PEND 
//  #02 //012   ----------------------------------------
 BYTE   W96
//  #02 //013   ----------------------------------------
 BYTE   W03
 BYTE   N12  Bn3  v064
 BYTE   W36
 BYTE   N06  An3  v060
 BYTE   W06
 BYTE   Bn3  v064
 BYTE   W06
 BYTE   N12  Dn4  v060
 BYTE   W12
 BYTE   N06  Cs4
 BYTE   W06
 BYTE   An3  v064
 BYTE   W06
 BYTE   Bn3  v060
 BYTE   W06
 BYTE   An3  v064
 BYTE   W06
 BYTE   Gn3  v060
 BYTE   W06
 BYTE   En3  v064
 BYTE   W03
//  #02 //014   ----------------------------------------
 BYTE   W48
 BYTE   W03
 BYTE   Bn3
 BYTE   W06
 BYTE   Dn3
 BYTE   W06
 BYTE   Bn3
 BYTE   W06
 BYTE   N66  En4
 BYTE   W24
 BYTE   W03
//  #02 //015   ----------------------------------------
 BYTE   PATT
  POIN2 Label_014DDC81
//  #02 //016   ----------------------------------------
 BYTE   W96
//  #02 //017   ----------------------------------------
 BYTE   W96
//  #02 //018   ----------------------------------------
 BYTE   W96
//  #02 //019   ----------------------------------------
 BYTE   W80
 BYTE   W01
 BYTE   N12  Dn3  v016
 BYTE   W15
//  #02 //020   ----------------------------------------
 BYTE   W96
//  #02 //021   ----------------------------------------
Label_014DDCCC:
 BYTE   W03
 BYTE   N05  En1  v064
 BYTE   W06
 BYTE   En1  v056
 BYTE   W06
 BYTE   Gn1  v064
 BYTE   W06
 BYTE   En1  v056
 BYTE   W06
 BYTE   N05
 BYTE   W06
 BYTE   An1  v064
 BYTE   W06
 BYTE   En1  v060
 BYTE   W06
 BYTE   N05
 BYTE   W06
 BYTE   N05
 BYTE   W06
 BYTE   Dn2  v064
 BYTE   W06
 BYTE   En1  v056
 BYTE   W06
 BYTE   En1  v060
 BYTE   W06
 BYTE   Cs2  v064
 BYTE   W06
 BYTE   En1  v056
 BYTE   W06
 BYTE   Dn2  v060
 BYTE   W06
 BYTE   En2  v064
 BYTE   W03
 BYTE   PEND 
//  #02 //022   ----------------------------------------
Label_014DDCFC:
 BYTE   W03
 BYTE   N05  En1  v060
 BYTE   W06
 BYTE   BEND   c_v+2
 BYTE   N11  An2  v064
 BYTE   W02
 BYTE   BEND   c_v+21
 BYTE   W01
 BYTE   BEND   c_v+63
 BYTE   W08
 BYTE   BEND   c_v+0
 BYTE   W01
 BYTE   N05  En1  v056
 BYTE   W06
 BYTE   N11  Cs3  v064
 BYTE   W12
 BYTE   N05  En1  v060
 BYTE   W06
 BYTE   N11  Gn2  v064
 BYTE   W12
 BYTE   N05  En1  v056
 BYTE   W06
 BYTE   N11  Bn2  v064
 BYTE   W12
 BYTE   N05  En1  v060
 BYTE   W06
 BYTE   BEND   c_v+2
 BYTE   N11  Bn2  v064
 BYTE   W02
 BYTE   BEND   c_v+21
 BYTE   W01
 BYTE   BEND   c_v+63
 BYTE   W08
 BYTE   BEND   c_v+0
 BYTE   W01
 BYTE   N05  En1  v056
 BYTE   W03
 BYTE   PEND 
//  #02 //023   ----------------------------------------
 BYTE   PATT
  POIN2 Label_014DDCCC
//  #02 //024   ----------------------------------------
Label_014DDD41:
 BYTE   W03
 BYTE   N05  En1  v060
 BYTE   W06
 BYTE   BEND   c_v+2
 BYTE   N11  An2  v064
 BYTE   W02
 BYTE   BEND   c_v+21
 BYTE   W01
 BYTE   BEND   c_v+63
 BYTE   W08
 BYTE   BEND   c_v+0
 BYTE   W01
 BYTE   N05  En1  v056
 BYTE   W06
 BYTE   N11  Cs3  v064
 BYTE   W12
 BYTE   N05  En1  v060
 BYTE   W06
 BYTE   N11  Gn2  v064
 BYTE   W12
 BYTE   N05  En1  v056
 BYTE   W06
 BYTE   N11  Bn1  v064
 BYTE   W12
 BYTE   N05  En1  v060
 BYTE   W06
 BYTE   BEND   c_v+2
 BYTE   N11  Bn1  v064
 BYTE   W02
 BYTE   BEND   c_v+21
 BYTE   W01
 BYTE   BEND   c_v+63
 BYTE   W08
 BYTE   BEND   c_v+0
 BYTE   W01
 BYTE   N05  En1  v056
 BYTE   W03
 BYTE   PEND 
//  #02 //025   ----------------------------------------
 BYTE   PATT
  POIN2 Label_014DDCCC
//  #02 //026   ----------------------------------------
 BYTE   PATT
  POIN2 Label_014DDCFC
//  #02 //027   ----------------------------------------
 BYTE   PATT
  POIN2 Label_014DDCCC
//  #02 //028   ----------------------------------------
 BYTE   PATT
  POIN2 Label_014DDD41
//  #02 //029   ----------------------------------------
 BYTE   W03
 BYTE   N05  Gn3  v064
 BYTE   W06
 BYTE   N05
 BYTE   W03
 BYTE   BEND   c_v+63
 BYTE   W02
 BYTE   BEND   c_v+0
 BYTE   W01
 BYTE   N05  En3
 BYTE   W06
 BYTE   Dn3
 BYTE   W06
 BYTE   En3
 BYTE   W06
 BYTE   Dn3  v060
 BYTE   W06
 BYTE   Gn2  v064
 BYTE   W06
 BYTE   En2
 BYTE   W06
 BYTE   N06
 BYTE   W06
 BYTE   Dn3
 BYTE   W06
 BYTE   En2
 BYTE   W06
 BYTE   BEND   c_v+2
 BYTE   N24  Fn3
 BYTE   W02
 BYTE   BEND   c_v+21
 BYTE   W01
 BYTE   BEND   c_v+63
 BYTE   W20
 BYTE   BEND   c_v+0
 BYTE   W01
 BYTE   N06  En2
 BYTE   W03
//  #02 //030   ----------------------------------------
Label_014DDDC5:
 BYTE   W03
 BYTE   N06  Gn2  v064
 BYTE   W06
 BYTE   Dn3  v060
 BYTE   W06
 BYTE   Gn2  v064
 BYTE   W06
 BYTE   BEND   c_v+2
 BYTE   N24  Fn3
 BYTE   W02
 BYTE   BEND   c_v+21
 BYTE   W01
 BYTE   BEND   c_v+63
 BYTE   W20
 BYTE   BEND   c_v+0
 BYTE   W01
 BYTE   N06  Gn2
 BYTE   W06
 BYTE   An2
 BYTE   W06
 BYTE   Dn3
 BYTE   W06
 BYTE   An2
 BYTE   W06
 BYTE   BEND   c_v+2
 BYTE   N24  Fn3  v060
 BYTE   W02
 BYTE   BEND   c_v+21
 BYTE   W01
 BYTE   BEND   c_v+63
 BYTE   W20
 BYTE   BEND   c_v+0
 BYTE   W01
 BYTE   N06  An2  v064
 BYTE   W03
 BYTE   PEND 
//  #02 //031   ----------------------------------------
Label_014DDDF7:
 BYTE   W03
 BYTE   N06  As2  v064
 BYTE   W06
 BYTE   Gn3
 BYTE   W06
 BYTE   As2  v060
 BYTE   W06
 BYTE   BEND   c_v+2
 BYTE   N24  An3
 BYTE   W02
 BYTE   BEND   c_v+21
 BYTE   W01
 BYTE   BEND   c_v+63
 BYTE   W20
 BYTE   BEND   c_v+0
 BYTE   W01
 BYTE   N06  As2
 BYTE   W06
 BYTE   En2  v064
 BYTE   W06
 BYTE   Dn3
 BYTE   W06
 BYTE   En2
 BYTE   W06
 BYTE   BEND   c_v+2
 BYTE   N24  Fn3
 BYTE   W02
 BYTE   BEND   c_v+21
 BYTE   W01
 BYTE   BEND   c_v+63
 BYTE   W20
 BYTE   BEND   c_v+0
 BYTE   W01
 BYTE   N06  En2
 BYTE   W03
 BYTE   PEND 
//  #02 //032   ----------------------------------------
 BYTE   PATT
  POIN2 Label_014DDDC5
//  #02 //033   ----------------------------------------
 BYTE   PATT
  POIN2 Label_014DDDF7
//  #02 //034   ----------------------------------------
 BYTE   PATT
  POIN2 Label_014DDDC5
//  #02 //035   ----------------------------------------
 BYTE   PATT
  POIN2 Label_014DDDF7
//  #02 //036   ----------------------------------------
 BYTE   PATT
  POIN2 Label_014DDDC5
//  #02 //037   ----------------------------------------
 BYTE   W03
 BYTE   N06  As2  v064
 BYTE   W06
 BYTE   Gn3
 BYTE   W06
 BYTE   As2  v060
 BYTE   W06
 BYTE   BEND   c_v+2
 BYTE   N24  An3
 BYTE   W02
 BYTE   BEND   c_v+21
 BYTE   W01
 BYTE   BEND   c_v+63
 BYTE   W20
 BYTE   BEND   c_v+0
 BYTE   W01
 BYTE   N06  As2
 BYTE   W06
 BYTE   N05  Bn2
 BYTE   W06
 BYTE   Bn2  v052
 BYTE   W06
 BYTE   Bn2  v056
 BYTE   W06
 BYTE   Bn2  v060
 BYTE   W06
 BYTE   Bn2  v052
 BYTE   W06
 BYTE   N05
 BYTE   W06
 BYTE   Bn2  v064
 BYTE   W06
 BYTE   Bn2  v056
 BYTE   W03
//  #02 //038   ----------------------------------------
 BYTE   W03
 BYTE   Bn2  v064
 BYTE   W06
 BYTE   Bn2  v056
 BYTE   W06
 BYTE   N05
 BYTE   W06
 BYTE   Bn2  v064
 BYTE   W06
 BYTE   Bn2  v056
 BYTE   W06
 BYTE   Bn2  v052
 BYTE   W06
 BYTE   Bn2  v064
 BYTE   W06
 BYTE   Bn2  v052
 BYTE   W06
 BYTE   Bn2  v064
 BYTE   W06
 BYTE   Bn2  v052
 BYTE   W06
 BYTE   N05
 BYTE   W06
 BYTE   Bn2  v060
 BYTE   W06
 BYTE   Bn2  v056
 BYTE   W06
 BYTE   N05
 BYTE   W06
 BYTE   Bn2  v064
 BYTE   W06
 BYTE   Bn2  v052
 BYTE   W03
//  #02 //039   ----------------------------------------
Label_014DDE9E:
 BYTE   W03
 BYTE   N12  Bn2  v064
 BYTE   W12
 BYTE   N06  An2
 BYTE   W06
 BYTE   Bn1  v060
 BYTE   W06
 BYTE   Gs2
 BYTE   W06
 BYTE   En2  v064
 BYTE   W06
 BYTE   Dn2
 BYTE   W06
 BYTE   N12  Bn1
 BYTE   W12
 BYTE   N06  Bn1  v060
 BYTE   W06
 BYTE   BEND   c_v+2
 BYTE   N24  An2  v064
 BYTE   W02
 BYTE   BEND   c_v+21
 BYTE   W01
 BYTE   BEND   c_v+63
 BYTE   W20
 BYTE   BEND   c_v+0
 BYTE   W01
 BYTE   N06  En2  v060
 BYTE   W06
 BYTE   Bn1
 BYTE   W03
 BYTE   PEND 
//  #02 //040   ----------------------------------------
Label_014DDECB:
 BYTE   W03
 BYTE   N12  En2  v060
 BYTE   W12
 BYTE   N06  Bn1  v056
 BYTE   W06
 BYTE   N12  Fn2  v060
 BYTE   W12
 BYTE   N06  Bn1  v056
 BYTE   W06
 BYTE   N12  Fs2  v064
 BYTE   W12
 BYTE   N06  Bn1  v060
 BYTE   W06
 BYTE   En2  v064
 BYTE   W06
 BYTE   Bn1  v060
 BYTE   W06
 BYTE   Bn1  v056
 BYTE   W06
 BYTE   Bn2  v060
 BYTE   W06
 BYTE   Dn2  v064
 BYTE   W06
 BYTE   En2
 BYTE   W06
 BYTE   Bn1  v056
 BYTE   W03
 BYTE   PEND 
//  #02 //041   ----------------------------------------
 BYTE   PATT
  POIN2 Label_014DDE9E
//  #02 //042   ----------------------------------------
 BYTE   PATT
  POIN2 Label_014DDECB
//  #02 //043   ----------------------------------------
 BYTE   W03
 BYTE   GoTo
  POIN2 Label_014DDC55
 BYTE   FINE

//**************** Track 3 (Midi-Chn.2) ****************//

GuiltyGearXAdvanceSolBadguysThemeMeatOfJustice_003:
//  #03 //000   ----------------------------------------
 BYTE   KEYSH   GuiltyGearXAdvanceSolBadguysThemeMeatOfJustice_key+0
 BYTE   VOICE   39
 BYTE   MODT 0
 BYTE   LFOS 44
 BYTE   VOL   56*GuiltyGearXAdvanceSolBadguysThemeMeatOfJustice_mvl/mxv
 BYTE   W01
 BYTE   BENDR  2
 BYTE   W01
 BYTE   PAN   c_v+0
 BYTE   W01
 BYTE   BEND   c_v+0
 BYTE   W92
 BYTE   W01
//  #03 //001   ----------------------------------------
 BYTE   W96
//  #03 //002   ----------------------------------------
Label_014DC8E6:
 BYTE   W03
 BYTE   N10  En3  v127
 BYTE   W12
 BYTE   N04  Dn3
 BYTE   W06
 BYTE   N10  Cs3
 BYTE   W12
 BYTE   N04  An2
 BYTE   W06
 BYTE   N10  Gn2
 BYTE   W12
 BYTE   N04  En2
 BYTE   W06
 BYTE   N04
 BYTE   W06
 BYTE   N04
 BYTE   W06
 BYTE   N04
 BYTE   W06
 BYTE   N04
 BYTE   W06
 BYTE   N04
 BYTE   W06
 BYTE   N04
 BYTE   W06
 BYTE   N04
 BYTE   W03
 BYTE   PEND 
//  #03 //003   ----------------------------------------
Label_014DC909:
 BYTE   W03
 BYTE   N10  Dn2  v127
 BYTE   W12
 BYTE   N04
 BYTE   W06
 BYTE   Ds2
 BYTE   W06
 BYTE   N04
 BYTE   W06
 BYTE   N04
 BYTE   W06
 BYTE   En2
 BYTE   W06
 BYTE   N04
 BYTE   W06
 BYTE   An2
 BYTE   W06
 BYTE   En2
 BYTE   W06
 BYTE   N04
 BYTE   W06
 BYTE   Gs2
 BYTE   W06
 BYTE   An2
 BYTE   W06
 BYTE   Gn2
 BYTE   W06
 BYTE   An2
 BYTE   W06
 BYTE   En2
 BYTE   W03
 BYTE   PEND 
//  #03 //004   ----------------------------------------
 BYTE   PATT
  POIN2 Label_014DC8E6
//  #03 //005   ----------------------------------------
 BYTE   PATT
  POIN2 Label_014DC909
//  #03 //006   ----------------------------------------
 BYTE   W03
Label_014DC936:
 BYTE   N04  En2  v127
 BYTE   W12
 BYTE   N10
 BYTE   W12
 BYTE   N04
 BYTE   W12
 BYTE   N10
 BYTE   W12
 BYTE   N04
 BYTE   W12
 BYTE   N10
 BYTE   W12
 BYTE   N04  Gn2
 BYTE   W06
 BYTE   En2
 BYTE   W06
 BYTE   N10  Gn2
 BYTE   W09
//  #03 //007   ----------------------------------------
Label_014DC94C:
 BYTE   W03
 BYTE   N04  En2  v127
 BYTE   W12
 BYTE   N10
 BYTE   W12
 BYTE   N04
 BYTE   W12
 BYTE   N10
 BYTE   W12
 BYTE   N04
 BYTE   W12
 BYTE   N10
 BYTE   W12
 BYTE   N04  Gn2
 BYTE   W06
 BYTE   En2
 BYTE   W06
 BYTE   N10  Gn2
 BYTE   W09
 BYTE   PEND 
//  #03 //008   ----------------------------------------
 BYTE   PATT
  POIN2 Label_014DC94C
//  #03 //009   ----------------------------------------
Label_014DC969:
 BYTE   W03
 BYTE   N04  En2  v127
 BYTE   W12
 BYTE   N10
 BYTE   W12
 BYTE   N04
 BYTE   W12
 BYTE   N10
 BYTE   W12
 BYTE   Gn2
 BYTE   W12
 BYTE   N04
 BYTE   W06
 BYTE   N04
 BYTE   W06
 BYTE   N10  An2
 BYTE   W12
 BYTE   N04
 BYTE   W06
 BYTE   N04
 BYTE   W03
 BYTE   PEND 
//  #03 //010   ----------------------------------------
 BYTE   W03
 BYTE   En2
 BYTE   W12
 BYTE   N10
 BYTE   W12
 BYTE   N04
 BYTE   W12
 BYTE   N10
 BYTE   W12
 BYTE   N10
 BYTE   W12
 BYTE   N04  Dn3
 BYTE   W06
 BYTE   En2
 BYTE   W06
 BYTE   Cs3
 BYTE   W06
 BYTE   Bn2
 BYTE   W06
 BYTE   An2
 BYTE   W06
 BYTE   Bn2
 BYTE   W03
//  #03 //011   ----------------------------------------
 BYTE   PATT
  POIN2 Label_014DC94C
//  #03 //012   ----------------------------------------
 BYTE   PATT
  POIN2 Label_014DC94C
//  #03 //013   ----------------------------------------
 BYTE   PATT
  POIN2 Label_014DC969
//  #03 //014   ----------------------------------------
 BYTE   PATT
  POIN2 Label_014DC94C
//  #03 //015   ----------------------------------------
 BYTE   PATT
  POIN2 Label_014DC969
//  #03 //016   ----------------------------------------
Label_014DC9B3:
 BYTE   W03
 BYTE   N10  En2  v127
 BYTE   W12
 BYTE   N04
 BYTE   W06
 BYTE   N10  As2
 BYTE   W12
 BYTE   N04
 BYTE   W06
 BYTE   N10  Bn2
 BYTE   W12
 BYTE   N04  En2
 BYTE   W06
 BYTE   N04
 BYTE   W06
 BYTE   N04
 BYTE   W06
 BYTE   N04
 BYTE   W06
 BYTE   N04
 BYTE   W06
 BYTE   N04
 BYTE   W06
 BYTE   N04
 BYTE   W06
 BYTE   N04
 BYTE   W03
 BYTE   PEND 
//  #03 //017   ----------------------------------------
Label_014DC9D4:
 BYTE   W03
 BYTE   N10  Gn2  v127
 BYTE   W12
 BYTE   N04
 BYTE   W06
 BYTE   N10
 BYTE   W12
 BYTE   N04
 BYTE   W06
 BYTE   N10
 BYTE   W12
 BYTE   N04  Fn2
 BYTE   W06
 BYTE   N04
 BYTE   W06
 BYTE   N04
 BYTE   W06
 BYTE   N04
 BYTE   W06
 BYTE   N04
 BYTE   W06
 BYTE   N04
 BYTE   W06
 BYTE   N04
 BYTE   W06
 BYTE   N04
 BYTE   W03
 BYTE   PEND 
//  #03 //018   ----------------------------------------
 BYTE   PATT
  POIN2 Label_014DC9B3
//  #03 //019   ----------------------------------------
 BYTE   PATT
  POIN2 Label_014DC9D4
//  #03 //020   ----------------------------------------
 BYTE   W96
//  #03 //021   ----------------------------------------
 BYTE   W96
//  #03 //022   ----------------------------------------
 BYTE   W96
//  #03 //023   ----------------------------------------
Label_014DCA00:
 BYTE   W03
 BYTE   N04  Cs2  v127
 BYTE   W06
 BYTE   Dn2
 BYTE   W06
 BYTE   Ds2
 BYTE   W06
 BYTE   N10  En2
 BYTE   W12
 BYTE   N04  Cs2
 BYTE   W06
 BYTE   N10  An2
 BYTE   W12
 BYTE   N04  Dn2
 BYTE   W06
 BYTE   Bn2
 BYTE   W06
 BYTE   En2
 BYTE   W06
 BYTE   N04
 BYTE   W06
 BYTE   Bn2
 BYTE   W06
 BYTE   En2
 BYTE   W06
 BYTE   N10  En3
 BYTE   W09
 BYTE   PEND 
//  #03 //024   ----------------------------------------
Label_014DCA23:
 BYTE   W03
 BYTE   N04  En2  v127
 BYTE   W06
 BYTE   N04
 BYTE   W06
 BYTE   En3
 BYTE   W06
 BYTE   En2
 BYTE   W06
 BYTE   Dn3
 BYTE   W06
 BYTE   En2
 BYTE   W06
 BYTE   N04
 BYTE   W06
 BYTE   En3
 BYTE   W06
 BYTE   En2
 BYTE   W06
 BYTE   Cs3
 BYTE   W06
 BYTE   En2
 BYTE   W06
 BYTE   Dn3
 BYTE   W06
 BYTE   An2
 BYTE   W06
 BYTE   En2
 BYTE   W06
 BYTE   N04
 BYTE   W06
 BYTE   Bn2
 BYTE   W03
 BYTE   PEND 
//  #03 //025   ----------------------------------------
 BYTE   PATT
  POIN2 Label_014DCA00
//  #03 //026   ----------------------------------------
 BYTE   PATT
  POIN2 Label_014DCA23
//  #03 //027   ----------------------------------------
 BYTE   PATT
  POIN2 Label_014DCA00
//  #03 //028   ----------------------------------------
 BYTE   PATT
  POIN2 Label_014DCA23
//  #03 //029   ----------------------------------------
 BYTE   W48
 BYTE   W03
 BYTE   N04  En2  v127
 BYTE   W06
 BYTE   N04
 BYTE   W06
 BYTE   N04
 BYTE   W06
 BYTE   N04
 BYTE   W06
 BYTE   N04
 BYTE   W06
 BYTE   N04
 BYTE   W06
 BYTE   N04
 BYTE   W06
 BYTE   N04
 BYTE   W03
//  #03 //030   ----------------------------------------
Label_014DCA6F:
 BYTE   W03
 BYTE   N04  Gn2  v127
 BYTE   W06
 BYTE   N04
 BYTE   W06
 BYTE   N04
 BYTE   W06
 BYTE   N04
 BYTE   W06
 BYTE   N04
 BYTE   W06
 BYTE   N04
 BYTE   W06
 BYTE   N04
 BYTE   W06
 BYTE   N04
 BYTE   W06
 BYTE   An2
 BYTE   W06
 BYTE   N04
 BYTE   W06
 BYTE   N04
 BYTE   W06
 BYTE   N04
 BYTE   W06
 BYTE   N04
 BYTE   W06
 BYTE   N04
 BYTE   W06
 BYTE   N04
 BYTE   W06
 BYTE   N04
 BYTE   W03
 BYTE   PEND 
//  #03 //031   ----------------------------------------
Label_014DCA93:
 BYTE   W03
 BYTE   N04  As2  v127
 BYTE   W06
 BYTE   N04
 BYTE   W06
 BYTE   N04
 BYTE   W06
 BYTE   N04
 BYTE   W06
 BYTE   N04
 BYTE   W06
 BYTE   N04
 BYTE   W06
 BYTE   N04
 BYTE   W06
 BYTE   N04
 BYTE   W06
 BYTE   En2
 BYTE   W06
 BYTE   N04
 BYTE   W06
 BYTE   N04
 BYTE   W06
 BYTE   N04
 BYTE   W06
 BYTE   N04
 BYTE   W06
 BYTE   N04
 BYTE   W06
 BYTE   N04
 BYTE   W06
 BYTE   N04
 BYTE   W03
 BYTE   PEND 
//  #03 //032   ----------------------------------------
 BYTE   PATT
  POIN2 Label_014DCA6F
//  #03 //033   ----------------------------------------
 BYTE   PATT
  POIN2 Label_014DCA93
//  #03 //034   ----------------------------------------
 BYTE   PATT
  POIN2 Label_014DCA6F
//  #03 //035   ----------------------------------------
 BYTE   PATT
  POIN2 Label_014DCA93
//  #03 //036   ----------------------------------------
 BYTE   PATT
  POIN2 Label_014DCA6F
//  #03 //037   ----------------------------------------
 BYTE   PATT
  POIN2 Label_014DCA93
//  #03 //038   ----------------------------------------
 BYTE   W03
 BYTE   N04  En2  v127
 BYTE   W06
 BYTE   N04
 BYTE   W06
 BYTE   N04
 BYTE   W06
 BYTE   N04
 BYTE   W06
 BYTE   N04
 BYTE   W06
 BYTE   N04
 BYTE   W06
 BYTE   N04
 BYTE   W06
 BYTE   N04
 BYTE   W06
 BYTE   N04
 BYTE   W06
 BYTE   N04
 BYTE   W06
 BYTE   N04
 BYTE   W06
 BYTE   N04
 BYTE   W06
 BYTE   N04
 BYTE   W06
 BYTE   N04
 BYTE   W06
 BYTE   N04
 BYTE   W06
 BYTE   N04
 BYTE   W03
//  #03 //039   ----------------------------------------
 BYTE   W96
//  #03 //040   ----------------------------------------
 BYTE   PATT
  POIN2 Label_014DC909
//  #03 //041   ----------------------------------------
 BYTE   PATT
  POIN2 Label_014DC8E6
//  #03 //042   ----------------------------------------
 BYTE   PATT
  POIN2 Label_014DC909
//  #03 //043   ----------------------------------------
 BYTE   W03
 BYTE   GoTo
  POIN2 Label_014DC936
 BYTE   FINE

//**************** Track 4 (Midi-Chn.3) ****************//

GuiltyGearXAdvanceSolBadguysThemeMeatOfJustice_004:
//  #04 //000   ----------------------------------------
 BYTE   KEYSH   GuiltyGearXAdvanceSolBadguysThemeMeatOfJustice_key+0
 BYTE   VOICE   30
 BYTE   MODT 0
 BYTE   LFOS 44
 BYTE   BENDR  2
 BYTE   W01
 BYTE   PAN   c_v+0
 BYTE   BEND   c_v+0
 BYTE   W01
 BYTE   VOL   80*GuiltyGearXAdvanceSolBadguysThemeMeatOfJustice_mvl/mxv
 BYTE   W01
 BYTE   N10  En3  v124
 BYTE   W12
 BYTE   N06  Dn3  v127
 BYTE   W06
 BYTE   En2
 BYTE   W06
 BYTE   Cs3  v124
 BYTE   W06
 BYTE   An2  v127
 BYTE   W06
 BYTE   Gn2  v124
 BYTE   W06
 BYTE   N12  En2
 BYTE   W12
 BYTE   N06  En2  v127
 BYTE   W06
 BYTE   BEND   c_v+2
 BYTE   W01
 BYTE   BEND   c_v+10
 BYTE   W01
 BYTE   BEND   c_v+21
 BYTE   W01
 BYTE   BEND   c_v+63
 BYTE   W21
 BYTE   N06
 BYTE   W02
 BYTE   BEND   c_v+63
 BYTE   W02
 BYTE   BEND   c_v+38
 BYTE   W02
 BYTE   BEND   c_v+0
 BYTE   N06
 BYTE   W03
//  #04 //001   ----------------------------------------
 BYTE   W03
 BYTE   N12  An3  v124
 BYTE   W12
 BYTE   N06  En3  v127
 BYTE   W06
 BYTE   N12  As3  v124
 BYTE   W12
 BYTE   N06  En3  v127
 BYTE   W06
 BYTE   N12  Bn3  v124
 BYTE   W12
 BYTE   N06  En3
 BYTE   W06
 BYTE   Dn4  v127
 BYTE   W06
 BYTE   En3  v124
 BYTE   W06
 BYTE   BEND   c_v+2
 BYTE   W01
 BYTE   BEND   c_v+10
 BYTE   W01
 BYTE   BEND   c_v+21
 BYTE   W01
 BYTE   BEND   c_v+63
 BYTE   W23
 BYTE   BEND   c_v+63
 BYTE   W01
//  #04 //002   ----------------------------------------
 BYTE   W01
 BYTE   BEND   c_v+38
 BYTE   W02
 BYTE   BEND   c_v+0
 BYTE   N12  Bn3  v064
 BYTE   W12
 BYTE   N06  An3
 BYTE   W06
 BYTE   Bn2  v060
 BYTE   W06
 BYTE   Gs3
 BYTE   W06
 BYTE   En3  v064
 BYTE   W06
 BYTE   Dn3
 BYTE   W06
 BYTE   N12  Bn2
 BYTE   W12
 BYTE   N06  Bn2  v060
 BYTE   W06
 BYTE   BEND   c_v+2
 BYTE   N24  An3  v064
 BYTE   W02
 BYTE   BEND   c_v+21
 BYTE   W01
 BYTE   BEND   c_v+63
 BYTE   W20
 BYTE   BEND   c_v+0
 BYTE   W01
 BYTE   N06  En3  v060
 BYTE   W06
 BYTE   Bn2
 BYTE   W03
//  #04 //003   ----------------------------------------
Label_011B19D0:
 BYTE   W03
 BYTE   N12  En3  v060
 BYTE   W12
 BYTE   N06  Bn2  v056
 BYTE   W06
 BYTE   N12  Fn3  v060
 BYTE   W12
 BYTE   N06  Bn2  v056
 BYTE   W06
 BYTE   N12  Fs3  v064
 BYTE   W12
 BYTE   N06  Bn2  v060
 BYTE   W06
 BYTE   En3  v064
 BYTE   W06
 BYTE   Bn2  v060
 BYTE   W06
 BYTE   Bn2  v056
 BYTE   W06
 BYTE   Bn3  v060
 BYTE   W06
 BYTE   Dn3  v064
 BYTE   W06
 BYTE   En3
 BYTE   W06
 BYTE   Bn2  v056
 BYTE   W03
 BYTE   PEND 
//  #04 //004   ----------------------------------------
 BYTE   W03
 BYTE   N12  Bn3  v064
 BYTE   W12
 BYTE   N06  An3
 BYTE   W06
 BYTE   Bn2  v060
 BYTE   W06
 BYTE   Gs3
 BYTE   W06
 BYTE   En3  v064
 BYTE   W06
 BYTE   Dn3
 BYTE   W06
 BYTE   N12  Bn2
 BYTE   W12
 BYTE   N06  Bn2  v060
 BYTE   W06
 BYTE   BEND   c_v+2
 BYTE   N24  An3  v064
 BYTE   W02
 BYTE   BEND   c_v+21
 BYTE   W01
 BYTE   BEND   c_v+63
 BYTE   W20
 BYTE   BEND   c_v+0
 BYTE   W01
 BYTE   N06  En3  v060
 BYTE   W06
 BYTE   Bn2
 BYTE   W03
//  #04 //005   ----------------------------------------
 BYTE   PATT
  POIN2 Label_011B19D0
//  #04 //006   ----------------------------------------
 BYTE   W03
Label_011B1A30:
 BYTE   W92
 BYTE   W01
//  #04 //007   ----------------------------------------
 BYTE   W03
 BYTE   BEND   c_v+0
 BYTE   W48
 BYTE   VOL   80*GuiltyGearXAdvanceSolBadguysThemeMeatOfJustice_mvl/mxv
 BYTE   W36
 BYTE   N04  En0  v092
 BYTE   W06
 BYTE   N06  Ds2  v088
 BYTE   W03
//  #04 //008   ----------------------------------------
 BYTE   W03
 BYTE   N12  An2
 BYTE   W12
 BYTE   N06  Dn2
 BYTE   W06
 BYTE   Cs2
 BYTE   W06
 BYTE   Dn2
 BYTE   W06
 BYTE   N06
 BYTE   W06
 BYTE   N04  En0
 BYTE   W06
 BYTE   N06  Dn2  v092
 BYTE   W06
 BYTE   N04  En0  v088
 BYTE   W06
 BYTE   N06  Dn2
 BYTE   W06
 BYTE   N04  En0
 BYTE   W06
 BYTE   N06  Cs2  v080
 BYTE   W06
 BYTE   Dn2  v088
 BYTE   W06
 BYTE   Cs2
 BYTE   W06
 BYTE   Bn1  v092
 BYTE   W06
 BYTE   An1  v088
 BYTE   W03
//  #04 //009   ----------------------------------------
 BYTE   W03
 BYTE   Gn2
 BYTE   W06
 BYTE   An2
 BYTE   W06
 BYTE   Gn2  v092
 BYTE   W06
 BYTE   N30  Gn2  v088
 BYTE   W24
 BYTE   BEND   c_v+2
 BYTE   W02
 BYTE   BEND   c_v-9
 BYTE   W02
 BYTE   BEND   c_v-28
 BYTE   W01
 BYTE   BEND   c_v+0
 BYTE   W01
 BYTE   N12  Bn2
 BYTE   W12
 BYTE   N06  Bn2  v080
 BYTE   W06
 BYTE   Dn3
 BYTE   W06
 BYTE   Cs3  v092
 BYTE   W06
 BYTE   An2  v088
 BYTE   W06
 BYTE   Gn2
 BYTE   W06
 BYTE   Dn2
 BYTE   W03
//  #04 //010   ----------------------------------------
 BYTE   W03
 BYTE   Bn2
 BYTE   W06
 BYTE   Dn2
 BYTE   W06
 BYTE   Bn2
 BYTE   W06
 BYTE   TIE  En3  v092
 BYTE   W72
 BYTE   W03
//  #04 //011   ----------------------------------------
Label_011B1AA2:
 BYTE   W24
 BYTE   W03
 BYTE   BEND   c_v+2
 BYTE   W04
 BYTE   BEND   c_v-9
 BYTE   W04
 BYTE   BEND   c_v-28
 BYTE   W03
 BYTE   BEND   c_v+0
 BYTE   W01
 BYTE   PEND 
 BYTE   EOT
 BYTE   En3
 BYTE   N06  Bn3  v088
 BYTE   W06
 BYTE   Dn3
 BYTE   W06
 BYTE   En3
 BYTE   W06
 BYTE   Bn2
 BYTE   W06
 BYTE   Dn3  v080
 BYTE   W06
 BYTE   Gn2  v088
 BYTE   W06
 BYTE   Bn2
 BYTE   W06
 BYTE   En2  v092
 BYTE   W06
 BYTE   An2  v088
 BYTE   W06
 BYTE   Dn2
 BYTE   W03
//  #04 //012   ----------------------------------------
 BYTE   W03
 BYTE   N12  An2
 BYTE   W12
 BYTE   N06  Dn2
 BYTE   W06
 BYTE   Cs2
 BYTE   W06
 BYTE   Dn2
 BYTE   W06
 BYTE   N06
 BYTE   W06
 BYTE   N04  En0
 BYTE   W06
 BYTE   N06  Dn2
 BYTE   W06
 BYTE   N04  En0
 BYTE   W06
 BYTE   N06  Dn2
 BYTE   W06
 BYTE   N04  En0
 BYTE   W06
 BYTE   N06  Cs2
 BYTE   W06
 BYTE   Dn2
 BYTE   W06
 BYTE   Cs2
 BYTE   W06
 BYTE   Bn1  v092
 BYTE   W06
 BYTE   An1  v088
 BYTE   W03
//  #04 //013   ----------------------------------------
 BYTE   W03
 BYTE   N12  Bn1
 BYTE   W12
 BYTE   N04  En0
 BYTE   W06
 BYTE   En0  v080
 BYTE   W06
 BYTE   En0  v092
 BYTE   W06
 BYTE   En0  v088
 BYTE   W06
 BYTE   N06  An1
 BYTE   W06
 BYTE   Bn1
 BYTE   W06
 BYTE   N12  Dn2  v092
 BYTE   W12
 BYTE   N06  Cs2  v088
 BYTE   W06
 BYTE   An1
 BYTE   W06
 BYTE   Bn1
 BYTE   W06
 BYTE   An1
 BYTE   W06
 BYTE   Gn1
 BYTE   W06
 BYTE   N04  En0
 BYTE   W03
//  #04 //014   ----------------------------------------
 BYTE   W03
 BYTE   N06  Bn1  v080
 BYTE   W06
 BYTE   N04  Dn0  v088
 BYTE   W06
 BYTE   N06  Bn1
 BYTE   W06
 BYTE   TIE  En2
 BYTE   W72
 BYTE   W03
//  #04 //015   ----------------------------------------
 BYTE   PATT
  POIN2 Label_011B1AA2
//  #04 //016   ----------------------------------------
 BYTE   EOT
 BYTE   En2
 BYTE   N06  Bn2  v092
 BYTE   W06
 BYTE   Dn2
 BYTE   W06
 BYTE   En2  v088
 BYTE   W06
 BYTE   Bn1  v080
 BYTE   W06
 BYTE   Dn2  v092
 BYTE   W06
 BYTE   Gn1  v088
 BYTE   W06
 BYTE   Bn1
 BYTE   W06
 BYTE   N04  En0
 BYTE   W06
 BYTE   N06  An1
 BYTE   W06
 BYTE   N04  Dn0
 BYTE   W03
 BYTE   W03
 BYTE   N12  Gn2  v080
 BYTE   W12
 BYTE   N04  En0  v092
 BYTE   W06
 BYTE   N12  Dn2  v080
 BYTE   W12
 BYTE   N04  En0  v088
 BYTE   W06
//  #04 //017   ----------------------------------------
 BYTE   N12  Bn1  v092
 BYTE   W12
 BYTE   N06  En2  v088
 BYTE   W06
 BYTE   Bn1  v092
 BYTE   W06
 BYTE   An1  v080
 BYTE   W06
 BYTE   N04  En0  v088
 BYTE   W06
 BYTE   N18  En2  v080
 BYTE   W18
 BYTE   N06  Dn2  v088
 BYTE   W03
 BYTE   W03
 BYTE   En2  v080
 BYTE   W06
 BYTE   An2  v088
 BYTE   W06
 BYTE   Bn2  v080
 BYTE   W06
 BYTE   En2  v088
 BYTE   W06
 BYTE   Dn3
 BYTE   W06
 BYTE   En2  v092
 BYTE   W06
//  #04 //018   ----------------------------------------
 BYTE   Cs3
 BYTE   W06
 BYTE   Gn3  v088
 BYTE   W06
 BYTE   N04  Fn0
 BYTE   W06
 BYTE   N06  En3
 BYTE   W06
 BYTE   N04  Fn0
 BYTE   W06
 BYTE   N06  Dn3
 BYTE   W06
 BYTE   N04  Fn0
 BYTE   W06
 BYTE   N06  Cs3  v092
 BYTE   W06
 BYTE   N04  Fn0  v088
 BYTE   W06
 BYTE   N06  Bn2
 BYTE   W03
 BYTE   W03
 BYTE   N12  Gn2
 BYTE   W12
 BYTE   N04  En0
 BYTE   W06
 BYTE   N12  Dn2
 BYTE   W12
 BYTE   N04  En0
 BYTE   W06
//  #04 //019   ----------------------------------------
 BYTE   N12  Bn1
 BYTE   W12
 BYTE   N06  En2
 BYTE   W06
 BYTE   Bn1
 BYTE   W06
 BYTE   An1  v092
 BYTE   W06
 BYTE   N04  En0  v088
 BYTE   W06
 BYTE   N18  En2
 BYTE   W18
 BYTE   N06  Dn2
 BYTE   W03
 BYTE   W03
 BYTE   En2
 BYTE   W06
 BYTE   An2
 BYTE   W06
 BYTE   Bn2  v092
 BYTE   W06
 BYTE   En2  v088
 BYTE   W06
 BYTE   Dn3
 BYTE   W06
 BYTE   En2
 BYTE   W06
//  #04 //020   ----------------------------------------
 BYTE   Cs3
 BYTE   W06
 BYTE   Gn3  v092
 BYTE   W06
 BYTE   N04  Fn0  v088
 BYTE   W06
 BYTE   N06  Bn2
 BYTE   W06
 BYTE   N04  Fn0  v080
 BYTE   W06
 BYTE   N06  En2  v092
 BYTE   N06  An2
 BYTE   W06
 BYTE   N04  Fn0  v088
 BYTE   W06
 BYTE   N12  Dn2
 BYTE   N12  Gn2  v080
 BYTE   W12
 BYTE   N06  Fs2  v088
 BYTE   W03
 BYTE   W09
 BYTE   BEND   c_v+2
 BYTE   N11  Fn2  v124
 BYTE   W02
 BYTE   BEND   c_v+21
 BYTE   W01
 BYTE   BEND   c_v+63
 BYTE   W08
 BYTE   BEND   c_v+0
 BYTE   W07
 BYTE   N11  An2  v127
 BYTE   W18
//  #04 //021   ----------------------------------------
 BYTE   Dn2  v124
 BYTE   W18
 BYTE   Gn1
 BYTE   W18
 BYTE   BEND   c_v+2
 BYTE   N11  Gn1  v127
 BYTE   W02
 BYTE   BEND   c_v+21
 BYTE   W01
 BYTE   BEND   c_v+63
 BYTE   W08
 BYTE   BEND   c_v+0
 BYTE   W04
 BYTE   W15
 BYTE   N05  Gn1  v124
 BYTE   W18
 BYTE   An1  v127
 BYTE   W24
//  #04 //022   ----------------------------------------
 BYTE   Dn2
 BYTE   W18
 BYTE   Cs2  v124
 BYTE   W12
 BYTE   Dn2
 BYTE   W06
 BYTE   En2
 BYTE   W03
 BYTE   W09
 BYTE   BEND   c_v+2
 BYTE   N11  Fn2
 BYTE   W02
 BYTE   BEND   c_v+21
 BYTE   W01
 BYTE   BEND   c_v+63
 BYTE   W08
 BYTE   BEND   c_v+0
 BYTE   W07
 BYTE   N11  An2  v127
 BYTE   W18
 BYTE   Dn2  v124
 BYTE   W18
//  #04 //023   ----------------------------------------
 BYTE   Gn2
 BYTE   W18
 BYTE   BEND   c_v+2
 BYTE   N11  Gn2  v127
 BYTE   W02
 BYTE   BEND   c_v+21
 BYTE   W01
 BYTE   BEND   c_v+63
 BYTE   W08
 BYTE   BEND   c_v+0
 BYTE   W04
 BYTE   W96
//  #04 //024   ----------------------------------------
 BYTE   W96
//  #04 //025   ----------------------------------------
 BYTE   W03
 BYTE   N06  An3  v088
 BYTE   W06
 BYTE   Bn3
 BYTE   W06
 BYTE   En4
 BYTE   W06
 BYTE   En3
 BYTE   W06
 BYTE   Bn3
 BYTE   W06
 BYTE   En4  v092
 BYTE   W06
 BYTE   An3  v088
 BYTE   W06
 BYTE   Bn3
 BYTE   W06
 BYTE   En4
 BYTE   W06
 BYTE   En3
 BYTE   W06
 BYTE   Bn3  v092
 BYTE   W06
 BYTE   En4  v088
 BYTE   W06
 BYTE   En3  v092
 BYTE   W06
 BYTE   Gn3  v088
 BYTE   W06
 BYTE   An3
 BYTE   W06
 BYTE   Bn3
 BYTE   W03
//  #04 //026   ----------------------------------------
 BYTE   W03
 BYTE   An3
 BYTE   W06
 BYTE   Bn3
 BYTE   W06
 BYTE   En4  v092
 BYTE   W06
 BYTE   En3  v080
 BYTE   W06
 BYTE   Bn3  v088
 BYTE   W06
 BYTE   En4  v080
 BYTE   W06
 BYTE   An3  v088
 BYTE   W06
 BYTE   Bn3
 BYTE   W06
 BYTE   En4  v080
 BYTE   W06
 BYTE   En3  v088
 BYTE   W06
 BYTE   Bn3
 BYTE   W06
 BYTE   En4  v092
 BYTE   W06
 BYTE   Gn4  v088
 BYTE   W06
 BYTE   En4  v092
 BYTE   W06
 BYTE   Cs4  v088
 BYTE   W06
 BYTE   Bn3  v080
 BYTE   W03
//  #04 //027   ----------------------------------------
 BYTE   W03
 BYTE   An3  v088
 BYTE   W06
 BYTE   Bn3
 BYTE   W06
 BYTE   En4  v092
 BYTE   W06
 BYTE   En3  v088
 BYTE   W06
 BYTE   Bn3
 BYTE   W06
 BYTE   En4  v080
 BYTE   W06
 BYTE   An3  v088
 BYTE   W06
 BYTE   Bn3  v080
 BYTE   W06
 BYTE   En4
 BYTE   W06
 BYTE   En3  v088
 BYTE   W06
 BYTE   Bn3
 BYTE   W06
 BYTE   En4
 BYTE   W06
 BYTE   En3
 BYTE   W06
 BYTE   Gn3
 BYTE   W06
 BYTE   An3
 BYTE   W06
 BYTE   Bn3  v080
 BYTE   W03
//  #04 //028   ----------------------------------------
 BYTE   W03
 BYTE   An3  v092
 BYTE   W06
 BYTE   Bn3  v088
 BYTE   W06
 BYTE   En4  v080
 BYTE   W06
 BYTE   En3  v088
 BYTE   W06
 BYTE   Bn3
 BYTE   W06
 BYTE   En4
 BYTE   W06
 BYTE   An3  v092
 BYTE   W06
 BYTE   Bn3  v088
 BYTE   W06
 BYTE   En4
 BYTE   W06
 BYTE   En3
 BYTE   W06
 BYTE   Bn3  v092
 BYTE   W06
 BYTE   En4  v088
 BYTE   W06
 BYTE   Gn4  v080
 BYTE   W06
 BYTE   En4  v092
 BYTE   W06
 BYTE   Cs4  v088
 BYTE   W06
 BYTE   Bn3
 BYTE   W03
//  #04 //029   ----------------------------------------
 BYTE   W03
 BYTE   N05  Gn3  v112
 BYTE   W06
 BYTE   N05
 BYTE   W03
 BYTE   BEND   c_v+63
 BYTE   W02
 BYTE   BEND   c_v+0
 BYTE   W01
 BYTE   N05  En3
 BYTE   W06
 BYTE   Dn3
 BYTE   W06
 BYTE   En3  v104
 BYTE   W06
 BYTE   Dn3
 BYTE   W06
 BYTE   Gn2
 BYTE   W06
 BYTE   En2
 BYTE   W06
 BYTE   BEND   c_v-64
 BYTE   N36  En2  v112
 BYTE   W03
 BYTE   BEND   c_v-51
 BYTE   W03
 BYTE   BEND   c_v+0
 BYTE   W30
 BYTE   BEND   c_v-64
 BYTE   N60  Dn3  v104
 BYTE   W03
 BYTE   BEND   c_v-51
 BYTE   W03
 BYTE   BEND   c_v+0
 BYTE   W03
//  #04 //030   ----------------------------------------
 BYTE   W44
 BYTE   W01
 BYTE   BEND   c_v+2
 BYTE   W04
 BYTE   BEND   c_v-28
 BYTE   W01
 BYTE   BEND   c_v+0
 BYTE   W01
 BYTE   N12  Dn3  v112
 BYTE   W12
 BYTE   N06  Cs3  v100
 BYTE   W06
 BYTE   N12  An2  v104
 BYTE   W12
 BYTE   Bn2
 BYTE   W12
 BYTE   Gn2  v112
 BYTE   W03
//  #04 //031   ----------------------------------------
 BYTE   W09
 BYTE   Dn2  v100
 BYTE   W12
 BYTE   En2  v112
 BYTE   W12
 BYTE   BEND   c_v-64
 BYTE   N18  Dn2  v100
 BYTE   W03
 BYTE   BEND   c_v-49
 BYTE   W02
 BYTE   BEND   c_v-20
 BYTE   W01
 BYTE   BEND   c_v+0
 BYTE   W12
 BYTE   BEND   c_v-64
 BYTE   N36  En2  v104
 BYTE   W03
 BYTE   BEND   c_v-51
 BYTE   W03
 BYTE   BEND   c_v+0
 BYTE   W30
 BYTE   BEND   c_v-64
 BYTE   N60  Dn3
 BYTE   W03
 BYTE   BEND   c_v-51
 BYTE   W03
 BYTE   BEND   c_v+0
 BYTE   W03
//  #04 //032   ----------------------------------------
 BYTE   W44
 BYTE   W01
 BYTE   BEND   c_v+2
 BYTE   W02
 BYTE   BEND   c_v-9
 BYTE   W02
 BYTE   BEND   c_v-28
 BYTE   W01
 BYTE   BEND   c_v+0
 BYTE   W01
 BYTE   N12  Dn3  v112
 BYTE   W12
 BYTE   N06  Cs3
 BYTE   W06
 BYTE   N12  An2  v104
 BYTE   W12
 BYTE   Bn2
 BYTE   W12
 BYTE   BEND   c_v-64
 BYTE   N12  Dn3  v100
 BYTE   W02
 BYTE   BEND   c_v-44
 BYTE   W01
//  #04 //033   ----------------------------------------
 BYTE   BEND   c_v+0
 BYTE   W09
 BYTE   BEND   c_v-64
 BYTE   N12  Dn3  v112
 BYTE   W02
 BYTE   BEND   c_v-44
 BYTE   W01
 BYTE   BEND   c_v+0
 BYTE   W09
 BYTE   N12  En3
 BYTE   W12
 BYTE   BEND   c_v-64
 BYTE   N12  Dn3  v104
 BYTE   W03
 BYTE   BEND   c_v-49
 BYTE   W03
 BYTE   BEND   c_v+0
 BYTE   W06
 BYTE   N06  Bn2  v100
 BYTE   W06
 BYTE   BEND   c_v-64
 BYTE   N36  En2  v104
 BYTE   W03
 BYTE   BEND   c_v-51
 BYTE   W03
 BYTE   BEND   c_v+0
 BYTE   W30
 BYTE   BEND   c_v-64
 BYTE   N60  Dn3  v112
 BYTE   W03
 BYTE   BEND   c_v-51
 BYTE   W03
 BYTE   BEND   c_v+0
 BYTE   W03
//  #04 //034   ----------------------------------------
 BYTE   W44
 BYTE   W01
 BYTE   BEND   c_v+2
 BYTE   W04
 BYTE   BEND   c_v-28
 BYTE   W01
 BYTE   BEND   c_v+0
 BYTE   W01
 BYTE   N12
 BYTE   W12
 BYTE   N06  Cs3  v104
 BYTE   W06
 BYTE   N12  An2  v112
 BYTE   W12
 BYTE   Bn2
 BYTE   W12
 BYTE   Gn2
 BYTE   W03
//  #04 //035   ----------------------------------------
 BYTE   W09
 BYTE   Dn2
 BYTE   W12
 BYTE   En2  v100
 BYTE   W12
 BYTE   BEND   c_v-64
 BYTE   N18  Dn2  v112
 BYTE   W03
 BYTE   BEND   c_v-49
 BYTE   W03
 BYTE   BEND   c_v+0
 BYTE   W12
 BYTE   BEND   c_v-64
 BYTE   N36  En2  v104
 BYTE   W03
 BYTE   BEND   c_v-51
 BYTE   W03
 BYTE   BEND   c_v+0
 BYTE   W30
 BYTE   BEND   c_v-64
 BYTE   N60  Dn3
 BYTE   W03
 BYTE   BEND   c_v-51
 BYTE   W03
 BYTE   BEND   c_v+0
 BYTE   W03
//  #04 //036   ----------------------------------------
 BYTE   W44
 BYTE   W01
 BYTE   BEND   c_v+2
 BYTE   W04
 BYTE   BEND   c_v-28
 BYTE   W01
 BYTE   BEND   c_v+0
 BYTE   W01
 BYTE   N12  Dn3  v112
 BYTE   W12
 BYTE   N06  Cs3  v100
 BYTE   W06
 BYTE   N12  An2  v104
 BYTE   W12
 BYTE   Gn2  v100
 BYTE   W12
 BYTE   N03  Dn3  v104
 BYTE   W03
//  #04 //037   ----------------------------------------
 BYTE   En3  v112
 BYTE   W03
 BYTE   Dn3  v104
 BYTE   W03
 BYTE   Gn2  v112
 BYTE   W03
 BYTE   An2
 BYTE   W03
 BYTE   Gn2  v104
 BYTE   W03
 BYTE   Dn3
 BYTE   W03
 BYTE   En3  v112
 BYTE   W03
 BYTE   Dn3
 BYTE   W03
 BYTE   Gn2
 BYTE   W03
 BYTE   An2
 BYTE   W03
 BYTE   Gn2  v100
 BYTE   W03
 BYTE   Dn3  v104
 BYTE   W03
 BYTE   En3
 BYTE   W03
 BYTE   Dn3  v112
 BYTE   W03
 BYTE   Gn2  v104
 BYTE   W03
 BYTE   An2  v112
 BYTE   W03
 BYTE   Gn2  v104
 BYTE   W03
 BYTE   Dn3
 BYTE   W03
 BYTE   En3
 BYTE   W03
 BYTE   Dn3  v112
 BYTE   W03
 BYTE   Gn2
 BYTE   W03
 BYTE   An2
 BYTE   W03
 BYTE   Gn2  v104
 BYTE   W03
 BYTE   Dn3
 BYTE   W03
 BYTE   En3  v112
 BYTE   W03
 BYTE   Dn3
 BYTE   W03
 BYTE   Gn2  v104
 BYTE   W03
 BYTE   An2
 BYTE   W03
 BYTE   Gn2  v100
 BYTE   W03
 BYTE   Dn3  v104
 BYTE   W03
 BYTE   En3
 BYTE   W03
 BYTE   Dn3  v112
 BYTE   W03
//  #04 //038   ----------------------------------------
 BYTE   Gn2
 BYTE   W03
 BYTE   An2  v104
 BYTE   W03
 BYTE   Gn2  v112
 BYTE   W03
 BYTE   Dn3  v104
 BYTE   W03
 BYTE   En3
 BYTE   W03
 BYTE   Dn3  v112
 BYTE   W03
 BYTE   Gn2
 BYTE   W03
 BYTE   An2  v100
 BYTE   W03
 BYTE   Gn2
 BYTE   W03
 BYTE   Dn3  v104
 BYTE   W03
 BYTE   En3
 BYTE   W03
 BYTE   Dn3
 BYTE   W03
 BYTE   Gn2  v112
 BYTE   W03
 BYTE   An2
 BYTE   W03
 BYTE   Gn2
 BYTE   W03
 BYTE   Dn3
 BYTE   W03
 BYTE   En3
 BYTE   W03
 BYTE   Dn3  v124
 BYTE   W03
 BYTE   Gn2
 BYTE   W03
 BYTE   An2
 BYTE   W03
 BYTE   Gn2  v127
 BYTE   W03
 BYTE   Dn3
 BYTE   W03
 BYTE   En3
 BYTE   W03
 BYTE   Dn3
 BYTE   W03
 BYTE   Gn2
 BYTE   W03
 BYTE   An2
 BYTE   W03
 BYTE   Gn2  v124
 BYTE   W03
 BYTE   Dn3  v127
 BYTE   W03
 BYTE   En3  v124
 BYTE   W03
 BYTE   Dn3
 BYTE   W03
 BYTE   Gn2
 BYTE   W03
 BYTE   An2
 BYTE   W03
//  #04 //039   ----------------------------------------
 BYTE   Gn2  v127
 BYTE   W96
//  #04 //040   ----------------------------------------
 BYTE   W96
//  #04 //041   ----------------------------------------
 BYTE   W96
//  #04 //042   ----------------------------------------
 BYTE   W96
//  #04 //043   ----------------------------------------
 BYTE   W03
 BYTE   GoTo
  POIN2 Label_011B1A30
 BYTE   FINE

//**************** Track 5 (Midi-Chn.4) ****************//

GuiltyGearXAdvanceSolBadguysThemeMeatOfJustice_005:
//  #05 //000   ----------------------------------------
 BYTE   KEYSH   GuiltyGearXAdvanceSolBadguysThemeMeatOfJustice_key+0
 BYTE   VOICE   29
 BYTE   MODT 0
 BYTE   LFOS 44
 BYTE   VOL   64*GuiltyGearXAdvanceSolBadguysThemeMeatOfJustice_mvl/mxv
 BYTE   PAN   c_v+0
 BYTE   BENDR  2
 BYTE   W96
//  #05 //001   ----------------------------------------
 BYTE   W96
//  #05 //002   ----------------------------------------
 BYTE   W96
//  #05 //003   ----------------------------------------
 BYTE   W96
//  #05 //004   ----------------------------------------
 BYTE   W96
//  #05 //005   ----------------------------------------
 BYTE   W96
//  #05 //006   ----------------------------------------
 BYTE   W03
Label_014DD841:
 BYTE   W92
 BYTE   W01
//  #05 //007   ----------------------------------------
 BYTE   W96
//  #05 //008   ----------------------------------------
 BYTE   W96
//  #05 //009   ----------------------------------------
 BYTE   W96
//  #05 //010   ----------------------------------------
 BYTE   W96
//  #05 //011   ----------------------------------------
 BYTE   W96
//  #05 //012   ----------------------------------------
 BYTE   W96
//  #05 //013   ----------------------------------------
 BYTE   W96
//  #05 //014   ----------------------------------------
 BYTE   W96
//  #05 //015   ----------------------------------------
 BYTE   W96
//  #05 //016   ----------------------------------------
 BYTE   W96
//  #05 //017   ----------------------------------------
 BYTE   W96
//  #05 //018   ----------------------------------------
 BYTE   W96
//  #05 //019   ----------------------------------------
 BYTE   W96
//  #05 //020   ----------------------------------------
Label_014DD850:
 BYTE   W03
 BYTE   N05  Cn3  v056
 BYTE   W18
 BYTE   N05
 BYTE   W18
 BYTE   N05
 BYTE   W18
 BYTE   N05
 BYTE   W18
 BYTE   N05
 BYTE   W18
 BYTE   N05
 BYTE   W03
 BYTE   PEND 
//  #05 //021   ----------------------------------------
 BYTE   W03
 BYTE   Cn3  v064
 BYTE   W06
 BYTE   Cn3  v056
 BYTE   W12
 BYTE   N05
 BYTE   W06
 BYTE   N05
 BYTE   W12
 BYTE   N05
 BYTE   W06
 BYTE   N05
 BYTE   W06
 BYTE   N05
 BYTE   W12
 BYTE   N05
 BYTE   W06
 BYTE   N05
 BYTE   W12
 BYTE   N05
 BYTE   W15
//  #05 //022   ----------------------------------------
 BYTE   PATT
  POIN2 Label_014DD850
//  #05 //023   ----------------------------------------
 BYTE   W96
//  #05 //024   ----------------------------------------
 BYTE   W96
//  #05 //025   ----------------------------------------
 BYTE   W96
//  #05 //026   ----------------------------------------
 BYTE   W96
//  #05 //027   ----------------------------------------
 BYTE   W96
//  #05 //028   ----------------------------------------
 BYTE   W96
//  #05 //029   ----------------------------------------
 BYTE   W96
//  #05 //030   ----------------------------------------
 BYTE   W96
//  #05 //031   ----------------------------------------
 BYTE   W96
//  #05 //032   ----------------------------------------
 BYTE   W96
//  #05 //033   ----------------------------------------
 BYTE   W96
//  #05 //034   ----------------------------------------
 BYTE   W96
//  #05 //035   ----------------------------------------
 BYTE   W96
//  #05 //036   ----------------------------------------
 BYTE   W96
//  #05 //037   ----------------------------------------
 BYTE   W96
//  #05 //038   ----------------------------------------
 BYTE   W96
//  #05 //039   ----------------------------------------
 BYTE   W96
//  #05 //040   ----------------------------------------
 BYTE   W96
//  #05 //041   ----------------------------------------
 BYTE   W96
//  #05 //042   ----------------------------------------
 BYTE   W96
//  #05 //043   ----------------------------------------
 BYTE   W03
 BYTE   GoTo
  POIN2 Label_014DD841
 BYTE   FINE

//**************** Track 6 (Midi-Chn.5) ****************//

GuiltyGearXAdvanceSolBadguysThemeMeatOfJustice_006:
//  #06 //000   ----------------------------------------
 BYTE   KEYSH   GuiltyGearXAdvanceSolBadguysThemeMeatOfJustice_key+0
 BYTE   VOICE   123
 BYTE   MODT 0
 BYTE   LFOS 44
 BYTE   VOL   48*GuiltyGearXAdvanceSolBadguysThemeMeatOfJustice_mvl/mxv
 BYTE   PAN   c_v+0
 BYTE   W96
//  #06 //001   ----------------------------------------
 BYTE   W96
//  #06 //002   ----------------------------------------
 BYTE   W02
 BYTE   N03  An2  v124
 BYTE   W12
 BYTE   N03
 BYTE   W06
 BYTE   An2  v112
 BYTE   W23
 BYTE   An2  v124
 BYTE   W13
 BYTE   An2  v112
 BYTE   W06
 BYTE   An2  v124
 BYTE   W30
 BYTE   An2  v112
 BYTE   W04
//  #06 //003   ----------------------------------------
 BYTE   W02
 BYTE   An2  v124
 BYTE   W18
 BYTE   N03
 BYTE   W24
 BYTE   N03
 BYTE   W18
 BYTE   N03
 BYTE   W30
 BYTE   An2  v112
 BYTE   W04
//  #06 //004   ----------------------------------------
 BYTE   W02
 BYTE   An2  v124
 BYTE   W12
 BYTE   N03
 BYTE   W06
 BYTE   An2  v112
 BYTE   W24
 BYTE   An2  v124
 BYTE   W12
 BYTE   An2  v112
 BYTE   W06
 BYTE   An2  v124
 BYTE   W30
 BYTE   An2  v112
 BYTE   W04
//  #06 //005   ----------------------------------------
 BYTE   W44
 BYTE   An2  v124
 BYTE   W06
 BYTE   An2  v112
 BYTE   W12
 BYTE   An2  v124
 BYTE   W30
 BYTE   An2  v112
 BYTE   W04
//  #06 //006   ----------------------------------------
 BYTE   W02
 BYTE   An2  v124
 BYTE   W01
Label_010AB05B:
 BYTE   W11
 BYTE   N03  An2  v124
 BYTE   W30
 BYTE   N03
 BYTE   W12
 BYTE   An2  v112
 BYTE   W06
 BYTE   An2  v124
 BYTE   W30
 BYTE   An2  v112
 BYTE   W04
//  #06 //007   ----------------------------------------
Label_010AB06B:
 BYTE   W02
 BYTE   N03  An2  v124
 BYTE   W12
 BYTE   N03
 BYTE   W30
 BYTE   N03
 BYTE   W12
 BYTE   N03
 BYTE   W06
 BYTE   An2  v112
 BYTE   W18
 BYTE   N03
 BYTE   W06
 BYTE   An2  v124
 BYTE   W06
 BYTE   An2  v112
 BYTE   W04
 BYTE   PEND 
//  #06 //008   ----------------------------------------
Label_010AB082:
 BYTE   W02
 BYTE   N03  An2  v124
 BYTE   W12
 BYTE   N03
 BYTE   W30
 BYTE   N03
 BYTE   W12
 BYTE   An2  v112
 BYTE   W06
 BYTE   An2  v124
 BYTE   W30
 BYTE   An2  v112
 BYTE   W04
 BYTE   PEND 
//  #06 //009   ----------------------------------------
 BYTE   PATT
  POIN2 Label_010AB06B
//  #06 //010   ----------------------------------------
 BYTE   PATT
  POIN2 Label_010AB082
//  #06 //011   ----------------------------------------
 BYTE   W02
 BYTE   N03  An2  v124
 BYTE   W12
 BYTE   N03
 BYTE   W66
 BYTE   An2  v112
 BYTE   W06
 BYTE   An2  v124
 BYTE   W06
 BYTE   An2  v112
 BYTE   W04
//  #06 //012   ----------------------------------------
 BYTE   PATT
  POIN2 Label_010AB082
//  #06 //013   ----------------------------------------
 BYTE   PATT
  POIN2 Label_010AB06B
//  #06 //014   ----------------------------------------
 BYTE   PATT
  POIN2 Label_010AB082
//  #06 //015   ----------------------------------------
 BYTE   W02
 BYTE   N03  An2  v124
 BYTE   W12
 BYTE   N03
 BYTE   W30
 BYTE   N03
 BYTE   W18
 BYTE   An2  v112
 BYTE   W18
 BYTE   N03
 BYTE   W16
//  #06 //016   ----------------------------------------
Label_010AB0CC:
 BYTE   W14
 BYTE   N03  An2  v124
 BYTE   W18
 BYTE   N03
 BYTE   W12
 BYTE   An2  v112
 BYTE   W06
 BYTE   An2  v124
 BYTE   W18
 BYTE   An2  v112
 BYTE   W24
 BYTE   N03
 BYTE   W04
 BYTE   PEND 
//  #06 //017   ----------------------------------------
Label_010AB0DF:
 BYTE   W02
 BYTE   N03  An2  v124
 BYTE   W18
 BYTE   N03
 BYTE   W18
 BYTE   N03
 BYTE   W06
 BYTE   An2  v112
 BYTE   W18
 BYTE   An2  v124
 BYTE   W06
 BYTE   An2  v112
 BYTE   W12
 BYTE   An2  v116
 BYTE   W06
 BYTE   An2  v124
 BYTE   W06
 BYTE   An2  v116
 BYTE   W04
 BYTE   PEND 
//  #06 //018   ----------------------------------------
 BYTE   PATT
  POIN2 Label_010AB0CC
//  #06 //019   ----------------------------------------
 BYTE   PATT
  POIN2 Label_010AB0DF
//  #06 //020   ----------------------------------------
Label_010AB105:
 BYTE   W02
 BYTE   N03  An2  v124
 BYTE   W48
 BYTE   N03
 BYTE   W12
 BYTE   An2  v112
 BYTE   W32
 BYTE   W02
 BYTE   PEND 
//  #06 //021   ----------------------------------------
 BYTE   PATT
  POIN2 Label_010AB105
//  #06 //022   ----------------------------------------
 BYTE   W02
 BYTE   N03  An2  v124
 BYTE   W92
 BYTE   W02
//  #06 //023   ----------------------------------------
Label_010AB11C:
 BYTE   W02
 BYTE   N03  An2  v124
 BYTE   W24
 BYTE   N03
 BYTE   W24
 BYTE   N03
 BYTE   W24
 BYTE   N03
 BYTE   W22
 BYTE   PEND 
//  #06 //024   ----------------------------------------
 BYTE   PATT
  POIN2 Label_010AB11C
//  #06 //025   ----------------------------------------
Label_010AB12D:
 BYTE   W02
 BYTE   N03  An2  v124
 BYTE   W06
 BYTE   An2  v112
 BYTE   W06
 BYTE   An2  v124
 BYTE   W06
 BYTE   An2  v112
 BYTE   W12
 BYTE   N03
 BYTE   W06
 BYTE   An2  v124
 BYTE   W06
 BYTE   An2  v112
 BYTE   W06
 BYTE   An2  v124
 BYTE   W06
 BYTE   An2  v112
 BYTE   W06
 BYTE   An2  v124
 BYTE   W06
 BYTE   An2  v112
 BYTE   W12
 BYTE   N03
 BYTE   W06
 BYTE   An2  v124
 BYTE   W06
 BYTE   An2  v112
 BYTE   W04
 BYTE   PEND 
//  #06 //026   ----------------------------------------
 BYTE   W02
 BYTE   An2  v124
 BYTE   W06
 BYTE   An2  v112
 BYTE   W06
 BYTE   An2  v124
 BYTE   W06
 BYTE   An2  v112
 BYTE   W12
 BYTE   N03
 BYTE   W06
 BYTE   An2  v124
 BYTE   W06
 BYTE   An2  v112
 BYTE   W06
 BYTE   An2  v124
 BYTE   W12
 BYTE   N03
 BYTE   W06
 BYTE   An2  v112
 BYTE   W18
 BYTE   An2  v124
 BYTE   W06
 BYTE   An2  v112
 BYTE   W04
//  #06 //027   ----------------------------------------
 BYTE   PATT
  POIN2 Label_010AB12D
//  #06 //028   ----------------------------------------
 BYTE   W08
 BYTE   N03  An2  v112
 BYTE   W06
 BYTE   An2  v124
 BYTE   W12
 BYTE   N03
 BYTE   W06
 BYTE   An2  v112
 BYTE   W12
 BYTE   N03
 BYTE   W12
 BYTE   N03
 BYTE   W12
 BYTE   N03
 BYTE   W28
//  #06 //029   ----------------------------------------
 BYTE   W02
 BYTE   An2  v124
 BYTE   W60
 BYTE   N03
 BYTE   W06
 BYTE   An2  v112
 BYTE   W12
 BYTE   N03
 BYTE   W06
 BYTE   An2  v124
 BYTE   W06
 BYTE   An2  v112
 BYTE   W04
//  #06 //030   ----------------------------------------
Label_010AB1A4:
 BYTE   W02
 BYTE   N03  An2  v124
 BYTE   W18
 BYTE   N03
 BYTE   W18
 BYTE   N03
 BYTE   W06
 BYTE   An2  v112
 BYTE   W18
 BYTE   An2  v124
 BYTE   W06
 BYTE   An2  v112
 BYTE   W12
 BYTE   N03
 BYTE   W06
 BYTE   An2  v124
 BYTE   W06
 BYTE   An2  v112
 BYTE   W04
 BYTE   PEND 
//  #06 //031   ----------------------------------------
Label_010AB1BF:
 BYTE   W14
 BYTE   N03  An2  v124
 BYTE   W18
 BYTE   N03
 BYTE   W12
 BYTE   N03
 BYTE   W18
 BYTE   N03
 BYTE   W06
 BYTE   An2  v112
 BYTE   W12
 BYTE   N03
 BYTE   W06
 BYTE   An2  v124
 BYTE   W06
 BYTE   An2  v112
 BYTE   W04
 BYTE   PEND 
//  #06 //032   ----------------------------------------
 BYTE   PATT
  POIN2 Label_010AB1A4
//  #06 //033   ----------------------------------------
 BYTE   PATT
  POIN2 Label_010AB1BF
//  #06 //034   ----------------------------------------
 BYTE   PATT
  POIN2 Label_010AB1A4
//  #06 //035   ----------------------------------------
 BYTE   PATT
  POIN2 Label_010AB1BF
//  #06 //036   ----------------------------------------
 BYTE   PATT
  POIN2 Label_010AB1A4
//  #06 //037   ----------------------------------------
 BYTE   W14
 BYTE   N03  An2  v124
 BYTE   W18
 BYTE   N03
 BYTE   W12
 BYTE   N03
 BYTE   W18
 BYTE   N03
 BYTE   W18
 BYTE   N03
 BYTE   W12
 BYTE   N03
 BYTE   W04
//  #06 //038   ----------------------------------------
 BYTE   W06
 BYTE   N24  Gn2  v044
 BYTE   W32
 BYTE   N03  An2  v124
 BYTE   W18
 BYTE   N03
 BYTE   W12
 BYTE   N03
 BYTE   W18
 BYTE   N03
 BYTE   W10
//  #06 //039   ----------------------------------------
 BYTE   W08
 BYTE   N03
 BYTE   W12
 BYTE   N03
 BYTE   W06
 BYTE   N03
 BYTE   W68
 BYTE   W02
//  #06 //040   ----------------------------------------
 BYTE   W24
 BYTE   W02
 BYTE   N03
 BYTE   W18
 BYTE   N03
 BYTE   W24
 BYTE   N03
 BYTE   W18
 BYTE   N03
 BYTE   W10
//  #06 //041   ----------------------------------------
 BYTE   W20
 BYTE   An2  v112
 BYTE   W06
 BYTE   An2  v124
 BYTE   W12
 BYTE   N03
 BYTE   W06
 BYTE   An2  v112
 BYTE   W24
 BYTE   An2  v124
 BYTE   W12
 BYTE   An2  v112
 BYTE   W06
 BYTE   An2  v124
 BYTE   W10
//  #06 //042   ----------------------------------------
 BYTE   W20
 BYTE   An2  v112
 BYTE   W48
 BYTE   An2  v124
 BYTE   W18
 BYTE   N03
 BYTE   W10
//  #06 //043   ----------------------------------------
 BYTE   W03
 BYTE   GoTo
  POIN2 Label_010AB05B
 BYTE   FINE

//**************** Track 7 (Midi-Chn.6) ****************//

GuiltyGearXAdvanceSolBadguysThemeMeatOfJustice_007:
//  #07 //000   ----------------------------------------
 BYTE   KEYSH   GuiltyGearXAdvanceSolBadguysThemeMeatOfJustice_key+0
 BYTE   VOICE   117
 BYTE   MODT 0
 BYTE   LFOS 44
 BYTE   VOL   64*GuiltyGearXAdvanceSolBadguysThemeMeatOfJustice_mvl/mxv
 BYTE   PAN   c_v+0
 BYTE   BENDR  2
 BYTE   W96
//  #07 //001   ----------------------------------------
 BYTE   W96
//  #07 //002   ----------------------------------------
Label_014DD04C:
 BYTE   W24
 BYTE   W02
 BYTE   N03  Cn3  v127
 BYTE   W48
 BYTE   N03
 BYTE   W22
 BYTE   PEND 
//  #07 //003   ----------------------------------------
Label_014DD055:
 BYTE   W24
 BYTE   W02
 BYTE   N03  Cn3  v127
 BYTE   W30
 BYTE   N03
 BYTE   W18
 BYTE   N03
 BYTE   W06
 BYTE   N03
 BYTE   W16
 BYTE   PEND 
//  #07 //004   ----------------------------------------
 BYTE   PATT
  POIN2 Label_014DD04C
//  #07 //005   ----------------------------------------
 BYTE   W02
 BYTE   N03  Cn3  v127
 BYTE   W18
 BYTE   N03
 BYTE   W18
 BYTE   N03
 BYTE   W18
 BYTE   N03
 BYTE   W18
 BYTE   N03
 BYTE   W06
 BYTE   N03
 BYTE   W16
//  #07 //006   ----------------------------------------
 BYTE   W03
Label_014DD077:
 BYTE   W23
 BYTE   N03  Cn3  v127
 BYTE   W48
 BYTE   N03
 BYTE   W22
//  #07 //007   ----------------------------------------
Label_014DD07E:
 BYTE   W24
 BYTE   W02
 BYTE   N03  Cn3  v127
 BYTE   W24
 BYTE   N03
 BYTE   W24
 BYTE   N03
 BYTE   W22
 BYTE   PEND 
//  #07 //008   ----------------------------------------
 BYTE   PATT
  POIN2 Label_014DD04C
//  #07 //009   ----------------------------------------
 BYTE   PATT
  POIN2 Label_014DD07E
//  #07 //010   ----------------------------------------
 BYTE   PATT
  POIN2 Label_014DD04C
//  #07 //011   ----------------------------------------
 BYTE   W24
 BYTE   W02
 BYTE   N03  Cn3  v127
 BYTE   W18
 BYTE   N03
 BYTE   W06
 BYTE   N03
 BYTE   W06
 BYTE   N03
 BYTE   W06
 BYTE   N03
 BYTE   W12
 BYTE   N03
 BYTE   W22
//  #07 //012   ----------------------------------------
 BYTE   PATT
  POIN2 Label_014DD04C
//  #07 //013   ----------------------------------------
 BYTE   PATT
  POIN2 Label_014DD07E
//  #07 //014   ----------------------------------------
 BYTE   PATT
  POIN2 Label_014DD04C
//  #07 //015   ----------------------------------------
 BYTE   W24
 BYTE   W02
 BYTE   N03  Cn3  v127
 BYTE   W30
 BYTE   N03
 BYTE   W18
 BYTE   N03
 BYTE   W12
 BYTE   N03
 BYTE   W06
 BYTE   N03
 BYTE   W04
//  #07 //016   ----------------------------------------
Label_014DD0C5:
 BYTE   W02
 BYTE   N03  Cn3  v127
 BYTE   W18
 BYTE   N03
 BYTE   W18
 BYTE   N03
 BYTE   W18
 BYTE   N03
 BYTE   W06
 BYTE   N03
 BYTE   W12
 BYTE   N03
 BYTE   W22
 BYTE   PEND 
//  #07 //017   ----------------------------------------
 BYTE   PATT
  POIN2 Label_014DD07E
//  #07 //018   ----------------------------------------
 BYTE   PATT
  POIN2 Label_014DD0C5
//  #07 //019   ----------------------------------------
 BYTE   PATT
  POIN2 Label_014DD07E
//  #07 //020   ----------------------------------------
 BYTE   PATT
  POIN2 Label_014DD04C
//  #07 //021   ----------------------------------------
 BYTE   PATT
  POIN2 Label_014DD04C
//  #07 //022   ----------------------------------------
 BYTE   W24
 BYTE   W02
 BYTE   N03  Cn3  v127
 BYTE   W12
 BYTE   N03
 BYTE   W04
 BYTE   N03
 BYTE   W04
 BYTE   N03
 BYTE   W04
 BYTE   N03
 BYTE   W06
 BYTE   N03
 BYTE   W06
 BYTE   N03
 BYTE   W06
 BYTE   N03
 BYTE   W06
 BYTE   N03
 BYTE   W06
 BYTE   N03
 BYTE   W06
 BYTE   N03
 BYTE   W06
 BYTE   N03
 BYTE   W04
//  #07 //023   ----------------------------------------
Label_014DD10A:
 BYTE   W03
 BYTE   N03  Cn3  v127
 BYTE   W24
 BYTE   N03
 BYTE   W24
 BYTE   N03
 BYTE   W24
 BYTE   N03
 BYTE   W21
 BYTE   PEND 
//  #07 //024   ----------------------------------------
 BYTE   PATT
  POIN2 Label_014DD10A
//  #07 //025   ----------------------------------------
 BYTE   PATT
  POIN2 Label_014DD04C
//  #07 //026   ----------------------------------------
 BYTE   PATT
  POIN2 Label_014DD055
//  #07 //027   ----------------------------------------
 BYTE   PATT
  POIN2 Label_014DD04C
//  #07 //028   ----------------------------------------
 BYTE   W02
 BYTE   N03  Cn3  v127
 BYTE   W18
 BYTE   N03
 BYTE   W18
 BYTE   N03
 BYTE   W12
 BYTE   N03
 BYTE   W12
 BYTE   N03
 BYTE   W12
 BYTE   N03
 BYTE   W06
 BYTE   N03
 BYTE   W06
 BYTE   N03
 BYTE   W06
 BYTE   N03
 BYTE   W04
//  #07 //029   ----------------------------------------
 BYTE   W36
 BYTE   W02
 BYTE   Cn3  v124
 BYTE   W06
 BYTE   Cn3  v112
 BYTE   W30
 BYTE   Cn3  v127
 BYTE   W22
//  #07 //030   ----------------------------------------
 BYTE   PATT
  POIN2 Label_014DD04C
//  #07 //031   ----------------------------------------
Label_014DD14F:
 BYTE   W02
 BYTE   N03  Cn3  v127
 BYTE   W18
 BYTE   N03
 BYTE   W18
 BYTE   N03
 BYTE   W36
 BYTE   N03
 BYTE   W22
 BYTE   PEND 
//  #07 //032   ----------------------------------------
 BYTE   PATT
  POIN2 Label_014DD04C
//  #07 //033   ----------------------------------------
 BYTE   PATT
  POIN2 Label_014DD14F
//  #07 //034   ----------------------------------------
 BYTE   PATT
  POIN2 Label_014DD04C
//  #07 //035   ----------------------------------------
 BYTE   PATT
  POIN2 Label_014DD14F
//  #07 //036   ----------------------------------------
 BYTE   PATT
  POIN2 Label_014DD04C
//  #07 //037   ----------------------------------------
Label_014DD174:
 BYTE   W02
 BYTE   N03  Cn3  v127
 BYTE   W18
 BYTE   N03
 BYTE   W18
 BYTE   N03
 BYTE   W12
 BYTE   N03
 BYTE   W18
 BYTE   N03
 BYTE   W18
 BYTE   N03
 BYTE   W10
 BYTE   PEND 
//  #07 //038   ----------------------------------------
 BYTE   PATT
  POIN2 Label_014DD174
//  #07 //039   ----------------------------------------
 BYTE   W84
 BYTE   W02
 BYTE   N03  Cn3  v127
 BYTE   W06
 BYTE   N03
 BYTE   W04
//  #07 //040   ----------------------------------------
 BYTE   PATT
  POIN2 Label_014DD055
//  #07 //041   ----------------------------------------
 BYTE   PATT
  POIN2 Label_014DD04C
//  #07 //042   ----------------------------------------
 BYTE   W02
 BYTE   N03  Cn3  v127
 BYTE   W18
 BYTE   N03
 BYTE   W18
 BYTE   N03
 BYTE   W18
 BYTE   N03
 BYTE   W18
 BYTE   N03
 BYTE   W06
 BYTE   N03
 BYTE   W06
 BYTE   N03
 BYTE   W06
 BYTE   N03
 BYTE   W04
//  #07 //043   ----------------------------------------
 BYTE   W03
 BYTE   GoTo
  POIN2 Label_014DD077
 BYTE   FINE

//**************** Track 8 (Midi-Chn.7) ****************//

GuiltyGearXAdvanceSolBadguysThemeMeatOfJustice_008:
//  #08 //000   ----------------------------------------
 BYTE   KEYSH   GuiltyGearXAdvanceSolBadguysThemeMeatOfJustice_key+0
 BYTE   VOICE   127
 BYTE   MODT 0
 BYTE   LFOS 44
 BYTE   VOL   64*GuiltyGearXAdvanceSolBadguysThemeMeatOfJustice_mvl/mxv
 BYTE   PAN   c_v+0
 BYTE   W03
 BYTE   BENDR  2
 BYTE   W92
 BYTE   W01
//  #08 //001   ----------------------------------------
 BYTE   W96
//  #08 //002   ----------------------------------------
Label_0121C26E:
 BYTE   W03
 BYTE   N12  Gs1  v028
 BYTE   W12
 BYTE   N02  An1  v020
 BYTE   W12
 BYTE   An1  v032
 BYTE   W12
 BYTE   An1  v020
 BYTE   W12
 BYTE   An1  v032
 BYTE   W12
 BYTE   An1  v024
 BYTE   W12
 BYTE   An1  v032
 BYTE   W12
 BYTE   An1  v020
 BYTE   W09
 BYTE   PEND 
//  #08 //003   ----------------------------------------
 BYTE   W03
 BYTE   An1  v032
 BYTE   W12
 BYTE   An1  v024
 BYTE   W12
 BYTE   An1  v032
 BYTE   W12
 BYTE   An1  v020
 BYTE   W12
 BYTE   An1  v032
 BYTE   W06
 BYTE   N12  As1  v028
 BYTE   W06
 BYTE   N02  An1  v020
 BYTE   W12
 BYTE   N12  As1  v028
 BYTE   W12
 BYTE   N02  An1  v032
 BYTE   W09
//  #08 //004   ----------------------------------------
 BYTE   PATT
  POIN2 Label_0121C26E
//  #08 //005   ----------------------------------------
 BYTE   W03
 BYTE   N12  Bn1  v028
 BYTE   W18
 BYTE   As1
 BYTE   W18
 BYTE   Gs1
 BYTE   W12
 BYTE   N02  An1  v032
 BYTE   W06
 BYTE   N12  As1  v028
 BYTE   W06
 BYTE   N02  An1  v020
 BYTE   W12
 BYTE   N12  Cn2  v028
 BYTE   W06
 BYTE   N02  An1  v032
 BYTE   W15
//  #08 //006   ----------------------------------------
 BYTE   W03
Label_0121C2CD:
 BYTE   N12  Gs1  v028
 BYTE   W24
 BYTE   N02  Cs2  v036
 BYTE   W12
 BYTE   Cs2  v028
 BYTE   W12
 BYTE   Cs2  v036
 BYTE   W12
 BYTE   Cs2  v032
 BYTE   W12
 BYTE   Cs2  v036
 BYTE   W12
 BYTE   Cs2  v028
 BYTE   W09
//  #08 //007   ----------------------------------------
 BYTE   W03
 BYTE   Cs2  v036
 BYTE   W12
 BYTE   Cs2  v028
 BYTE   W12
 BYTE   Cs2  v036
 BYTE   W12
 BYTE   Cs2  v028
 BYTE   W12
 BYTE   N12  Cn2
 BYTE   W24
 BYTE   N12
 BYTE   W12
 BYTE   N02  Cs2  v024
 BYTE   W09
//  #08 //008   ----------------------------------------
 BYTE   W03
 BYTE   N12  As1  v028
 BYTE   W24
 BYTE   N02  Cs2  v036
 BYTE   W12
 BYTE   Cs2  v024
 BYTE   W12
 BYTE   Cs2  v036
 BYTE   W12
 BYTE   Cs2  v028
 BYTE   W12
 BYTE   Cs2  v036
 BYTE   W12
 BYTE   Cs2  v024
 BYTE   W09
//  #08 //009   ----------------------------------------
Label_0121C312:
 BYTE   W03
 BYTE   N02  Cs2  v036
 BYTE   W12
 BYTE   Cs2  v028
 BYTE   W12
 BYTE   Cs2  v036
 BYTE   W12
 BYTE   Cs2  v024
 BYTE   W12
 BYTE   N12  Bn1  v028
 BYTE   W24
 BYTE   N12
 BYTE   W12
 BYTE   N02  Cs2  v024
 BYTE   W09
 BYTE   PEND 
//  #08 //010   ----------------------------------------
 BYTE   W03
 BYTE   N12  Gs1  v028
 BYTE   W24
 BYTE   N02  Cs2  v036
 BYTE   W12
 BYTE   Cs2  v024
 BYTE   W12
 BYTE   Cs2  v036
 BYTE   W12
 BYTE   Cs2  v028
 BYTE   W12
 BYTE   Cs2  v036
 BYTE   W12
 BYTE   Cs2  v024
 BYTE   W09
//  #08 //011   ----------------------------------------
 BYTE   PATT
  POIN2 Label_0121C312
//  #08 //012   ----------------------------------------
 BYTE   W03
 BYTE   N02  An1  v032
 BYTE   W06
 BYTE   Cs2  v036
 BYTE   W06
 BYTE   N02
 BYTE   W12
 BYTE   An1  v032
 BYTE   W06
 BYTE   Cs2  v036
 BYTE   W06
 BYTE   N02
 BYTE   W12
 BYTE   An1  v032
 BYTE   W06
 BYTE   Cs2  v036
 BYTE   W06
 BYTE   N02
 BYTE   W12
 BYTE   An1  v032
 BYTE   W06
 BYTE   N06  Bn1  v028
 BYTE   W06
 BYTE   N06
 BYTE   W06
 BYTE   N12
 BYTE   W03
//  #08 //013   ----------------------------------------
 BYTE   W03
 BYTE   N02  An1  v032
 BYTE   W06
 BYTE   Cs2  v036
 BYTE   W06
 BYTE   N02
 BYTE   W12
 BYTE   An1  v032
 BYTE   W06
 BYTE   Cs2  v036
 BYTE   W06
 BYTE   N02
 BYTE   W12
 BYTE   N12  As1  v028
 BYTE   W24
 BYTE   N12
 BYTE   W21
//  #08 //014   ----------------------------------------
 BYTE   W03
 BYTE   N02  An1  v032
 BYTE   W06
 BYTE   Cs2
 BYTE   W06
 BYTE   Cs2  v036
 BYTE   W12
 BYTE   An1  v032
 BYTE   W06
 BYTE   Cs2  v036
 BYTE   W06
 BYTE   N02
 BYTE   W12
 BYTE   An1  v032
 BYTE   W06
 BYTE   Cs2  v036
 BYTE   W06
 BYTE   Cs2  v032
 BYTE   W12
 BYTE   An1
 BYTE   W06
 BYTE   N06  Bn1  v028
 BYTE   W06
 BYTE   N06
 BYTE   W06
 BYTE   N12
 BYTE   W03
//  #08 //015   ----------------------------------------
 BYTE   W03
 BYTE   N02  An1  v032
 BYTE   W06
 BYTE   Cs2  v036
 BYTE   W06
 BYTE   N02
 BYTE   W12
 BYTE   An1  v032
 BYTE   W06
 BYTE   Cs2  v036
 BYTE   W06
 BYTE   N02
 BYTE   W12
 BYTE   N12  Dn2  v032
 BYTE   W06
 BYTE   N02  An1
 BYTE   W06
 BYTE   N12  Ds2
 BYTE   W06
 BYTE   Dn2
 BYTE   W06
 BYTE   N02  An1
 BYTE   W06
 BYTE   N12  Ds2
 BYTE   W06
 BYTE   Dn2
 BYTE   W06
 BYTE   N06  As1  v028
 BYTE   W03
//  #08 //016   ----------------------------------------
 BYTE   W03
 BYTE   N12
 BYTE   W18
 BYTE   N12
 BYTE   W18
 BYTE   N12
 BYTE   W12
 BYTE   N02  An1  v032
 BYTE   W12
 BYTE   An1  v028
 BYTE   W12
 BYTE   N12  Gs1
 BYTE   W12
 BYTE   N02  An1  v032
 BYTE   W09
//  #08 //017   ----------------------------------------
 BYTE   W03
 BYTE   N02
 BYTE   W12
 BYTE   An1  v028
 BYTE   W12
 BYTE   An1  v032
 BYTE   W12
 BYTE   An1  v028
 BYTE   W12
 BYTE   N12  As1
 BYTE   W12
 BYTE   N02  An1
 BYTE   W12
 BYTE   N12  As1
 BYTE   W06
 BYTE   Bn1
 BYTE   W12
 BYTE   N12
 BYTE   W03
//  #08 //018   ----------------------------------------
 BYTE   W03
 BYTE   As1
 BYTE   W12
 BYTE   N02  An1  v024
 BYTE   W06
 BYTE   N12  As1  v028
 BYTE   W06
 BYTE   N02  An1  v032
 BYTE   W12
 BYTE   N12  As1  v028
 BYTE   W12
 BYTE   N02  An1  v032
 BYTE   W06
 BYTE   Cs2  v036
 BYTE   W06
 BYTE   N02
 BYTE   W06
 BYTE   N02
 BYTE   W06
 BYTE   N12  Gs1  v028
 BYTE   W12
 BYTE   N02  An1
 BYTE   W06
 BYTE   N12  Bn1
 BYTE   W03
//  #08 //019   ----------------------------------------
 BYTE   W03
 BYTE   Gs1
 BYTE   N12  As1
 BYTE   W12
 BYTE   N02  An1  v024
 BYTE   W12
 BYTE   An1  v032
 BYTE   W12
 BYTE   An1  v028
 BYTE   W12
 BYTE   N12  As1
 BYTE   W12
 BYTE   N02  An1
 BYTE   W12
 BYTE   N12  As1
 BYTE   W06
 BYTE   Bn1
 BYTE   W06
 BYTE   N02  An1
 BYTE   W06
 BYTE   N12  Bn1
 BYTE   W03
//  #08 //020   ----------------------------------------
Label_0121C44A:
 BYTE   W03
 BYTE   N02  Cs2  v036
 BYTE   W12
 BYTE   Cs2  v024
 BYTE   W12
 BYTE   Cs2  v036
 BYTE   W12
 BYTE   Cs2  v024
 BYTE   W12
 BYTE   Cs2  v036
 BYTE   W12
 BYTE   Cs2  v024
 BYTE   W12
 BYTE   Cs2  v036
 BYTE   W12
 BYTE   Cs2  v024
 BYTE   W09
 BYTE   PEND 
//  #08 //021   ----------------------------------------
 BYTE   PATT
  POIN2 Label_0121C44A
//  #08 //022   ----------------------------------------
 BYTE   W03
 BYTE   N02  Cs2  v036
 BYTE   W12
 BYTE   Cs2  v024
 BYTE   W12
 BYTE   N12  Bn1  v028
 BYTE   W68
 BYTE   W01
//  #08 //023   ----------------------------------------
 BYTE   W03
 BYTE   As1
 BYTE   W92
 BYTE   W01
//  #08 //024   ----------------------------------------
 BYTE   W96
//  #08 //025   ----------------------------------------
Label_0121C47C:
 BYTE   W03
 BYTE   N12  As1  v028
 BYTE   W06
 BYTE   N02  An1
 BYTE   W06
 BYTE   An1  v032
 BYTE   W12
 BYTE   N02
 BYTE   W06
 BYTE   An1  v028
 BYTE   W06
 BYTE   An1  v032
 BYTE   W12
 BYTE   N02
 BYTE   W06
 BYTE   An1  v028
 BYTE   W06
 BYTE   An1  v032
 BYTE   W12
 BYTE   N02
 BYTE   W06
 BYTE   An1  v028
 BYTE   W06
 BYTE   An1  v032
 BYTE   W09
 BYTE   PEND 
//  #08 //026   ----------------------------------------
 BYTE   W03
 BYTE   N06  Cn2  v028
 BYTE   W06
 BYTE   N12
 BYTE   W06
 BYTE   Bn1
 BYTE   W12
 BYTE   N06  Cn2
 BYTE   W06
 BYTE   N12
 BYTE   W06
 BYTE   Bn1
 BYTE   W12
 BYTE   N06  Cn2
 BYTE   W06
 BYTE   N12
 BYTE   W06
 BYTE   Bn1
 BYTE   W12
 BYTE   N06  Cn2
 BYTE   W06
 BYTE   N12
 BYTE   W06
 BYTE   Bn1
 BYTE   W09
//  #08 //027   ----------------------------------------
 BYTE   PATT
  POIN2 Label_0121C47C
//  #08 //028   ----------------------------------------
 BYTE   W03
 BYTE   N12  As1  v028
 BYTE   W18
 BYTE   Bn1
 BYTE   W18
 BYTE   As1
 BYTE   W12
 BYTE   N02  An1  v032
 BYTE   W12
 BYTE   N02
 BYTE   W32
 BYTE   W01
//  #08 //029   ----------------------------------------
 BYTE   W03
 BYTE   N12  Cn2  v028
 BYTE   W48
 BYTE   N12
 BYTE   W12
 BYTE   As1  v016
 BYTE   W12
 BYTE   As1  v020
 BYTE   W12
 BYTE   As1  v016
 BYTE   W09
//  #08 //030   ----------------------------------------
 BYTE   W03
 BYTE   As1  v020
 BYTE   W12
 BYTE   As1  v016
 BYTE   W12
 BYTE   As1  v024
 BYTE   W12
 BYTE   As1  v016
 BYTE   W12
 BYTE   Gs1  v028
 BYTE   W12
 BYTE   As1  v016
 BYTE   W12
 BYTE   As1  v020
 BYTE   W12
 BYTE   As1  v016
 BYTE   W09
//  #08 //031   ----------------------------------------
 BYTE   W03
 BYTE   As1  v024
 BYTE   W12
 BYTE   As1  v016
 BYTE   W12
 BYTE   As1  v024
 BYTE   W12
 BYTE   As1  v016
 BYTE   W12
 BYTE   As1  v028
 BYTE   W12
 BYTE   Cn2
 BYTE   W12
 BYTE   N12
 BYTE   W06
 BYTE   Bn1
 BYTE   W06
 BYTE   Cn2
 BYTE   W06
 BYTE   Bn1
 BYTE   W03
//  #08 //032   ----------------------------------------
Label_0121C516:
 BYTE   W03
 BYTE   N12  Cn2  v028
 BYTE   W12
 BYTE   N12
 BYTE   W12
 BYTE   N12
 BYTE   W12
 BYTE   N12
 BYTE   W12
 BYTE   Gs1
 BYTE   W12
 BYTE   Cn2
 BYTE   W12
 BYTE   N12
 BYTE   W06
 BYTE   Bn1
 BYTE   W06
 BYTE   Cn2
 BYTE   W06
 BYTE   Bn1
 BYTE   W03
 BYTE   PEND 
//  #08 //033   ----------------------------------------
Label_0121C52E:
 BYTE   W03
 BYTE   N12  As1  v028
 BYTE   W12
 BYTE   Cn2
 BYTE   W06
 BYTE   As1
 BYTE   W06
 BYTE   Cn2
 BYTE   W12
 BYTE   As1
 BYTE   W12
 BYTE   N12
 BYTE   W12
 BYTE   Cn2
 BYTE   W12
 BYTE   N12
 BYTE   W06
 BYTE   Bn1
 BYTE   W06
 BYTE   Cn2
 BYTE   W06
 BYTE   Bn1
 BYTE   W03
 BYTE   PEND 
//  #08 //034   ----------------------------------------
 BYTE   PATT
  POIN2 Label_0121C516
//  #08 //035   ----------------------------------------
 BYTE   PATT
  POIN2 Label_0121C52E
//  #08 //036   ----------------------------------------
 BYTE   PATT
  POIN2 Label_0121C516
//  #08 //037   ----------------------------------------
Label_0121C557:
 BYTE   W03
 BYTE   N12  As1  v028
 BYTE   W12
 BYTE   Cn2
 BYTE   W06
 BYTE   As1
 BYTE   W06
 BYTE   Cn2
 BYTE   W12
 BYTE   As1
 BYTE   W12
 BYTE   N12
 BYTE   W12
 BYTE   Cn2
 BYTE   W06
 BYTE   As1
 BYTE   W06
 BYTE   Cn2
 BYTE   W12
 BYTE   As1
 BYTE   W09
 BYTE   PEND 
//  #08 //038   ----------------------------------------
 BYTE   PATT
  POIN2 Label_0121C557
//  #08 //039   ----------------------------------------
 BYTE   W03
 BYTE   N12  Bn1  v028
 BYTE   N12  Cn2
 BYTE   W92
 BYTE   W01
//  #08 //040   ----------------------------------------
 BYTE   W03
 BYTE   Gs1
 BYTE   W12
 BYTE   N02  An1  v020
 BYTE   W12
 BYTE   An1  v032
 BYTE   W12
 BYTE   An1  v020
 BYTE   W12
 BYTE   An1  v032
 BYTE   W06
 BYTE   N12  Bn1  v028
 BYTE   W06
 BYTE   N02  An1  v024
 BYTE   W12
 BYTE   N12  Bn1  v028
 BYTE   W12
 BYTE   N02  An1  v020
 BYTE   W09
//  #08 //041   ----------------------------------------
 BYTE   PATT
  POIN2 Label_0121C26E
//  #08 //042   ----------------------------------------
 BYTE   W03
 BYTE   N12  As1  v028
 BYTE   W18
 BYTE   Bn1
 BYTE   W18
 BYTE   Cn2
 BYTE   W18
 BYTE   As1
 BYTE   W18
 BYTE   Gs1
 BYTE   W21
//  #08 //043   ----------------------------------------
 BYTE   W03
 BYTE   GoTo
  POIN2 Label_0121C2CD
 BYTE   FINE

//******************************************************//
	ALIGN 4

GuiltyGearXAdvanceSolBadguysThemeMeatOfJustice:
	BYTE	8	// NumTrks
	BYTE	0	// NumBlks
	BYTE	GuiltyGearXAdvanceSolBadguysThemeMeatOfJustice_pri	// Priority
	BYTE	GuiltyGearXAdvanceSolBadguysThemeMeatOfJustice_rev	// Reverb.
    
	POIN2	GuiltyGearXAdvanceSolBadguysThemeMeatOfJustice_grp
    
	POIN2	GuiltyGearXAdvanceSolBadguysThemeMeatOfJustice_001
	POIN2	GuiltyGearXAdvanceSolBadguysThemeMeatOfJustice_002
	POIN2	GuiltyGearXAdvanceSolBadguysThemeMeatOfJustice_003
	POIN2	GuiltyGearXAdvanceSolBadguysThemeMeatOfJustice_004
	POIN2	GuiltyGearXAdvanceSolBadguysThemeMeatOfJustice_005
	POIN2	GuiltyGearXAdvanceSolBadguysThemeMeatOfJustice_006
	POIN2	GuiltyGearXAdvanceSolBadguysThemeMeatOfJustice_007
	POIN2	GuiltyGearXAdvanceSolBadguysThemeMeatOfJustice_008

	
