//Event file generated from Sappy .s format.
	#include "MPlayDef.event"

	#define	KirbyandtheAmazingMirrorBossThemeMeatOfJustice_grp  voicegroup000
	#define	KirbyandtheAmazingMirrorBossThemeMeatOfJustice_pri  10
	#define	KirbyandtheAmazingMirrorBossThemeMeatOfJustice_rev  0
	#define	KirbyandtheAmazingMirrorBossThemeMeatOfJustice_mvl  127
	#define	KirbyandtheAmazingMirrorBossThemeMeatOfJustice_key  0
	#define	KirbyandtheAmazingMirrorBossThemeMeatOfJustice_tbs  1
	#define	KirbyandtheAmazingMirrorBossThemeMeatOfJustice_exg  0
	#define	KirbyandtheAmazingMirrorBossThemeMeatOfJustice_cmp  1

	// .rodata
	//	KirbyandtheAmazingMirrorBossThemeMeatOfJustice
	ALIGN 4


//**************** Track 1 (Midi-Chn.0) ****************//

KirbyandtheAmazingMirrorBossThemeMeatOfJustice_001:
// 000   ----------------------------------------
Label_0_01649CEC:
 BYTE   TEMPO   154*KirbyandtheAmazingMirrorBossThemeMeatOfJustice_tbs/2
 BYTE   KEYSH   KirbyandtheAmazingMirrorBossThemeMeatOfJustice_key+0
 BYTE   VOL   116*KirbyandtheAmazingMirrorBossThemeMeatOfJustice_mvl/mxv
 BYTE   PAN   c_v+0
 BYTE   VOICE   36
 BYTE   N10  Cn2  v100
 BYTE   N10  Cn1
 BYTE   W12
 BYTE   N02  An1
 BYTE   N02  An0
 BYTE   W06
 BYTE   N10  As1
 BYTE   N10  As0
 BYTE   W12
 BYTE   N10  Bn1
 BYTE   N10  Bn0
 BYTE   W12
 BYTE   N10  Cn2
 BYTE   N10  Cn1
 BYTE   W12
 BYTE   N08  Gs1
 BYTE   N08  Gs0
 BYTE   W12
 BYTE   N02  An1
 BYTE   N02  An0
 BYTE   W06
 BYTE   N08  As1
 BYTE   N08  As0
 BYTE   W12
 BYTE   N08  Bn1
 BYTE   N08  Bn0
 BYTE   W12
// 001   ----------------------------------------
 BYTE   N12  Cn2
 BYTE   N12  Cn1
 BYTE   W12
 BYTE   N02  An1
 BYTE   N02  An0
 BYTE   W06
 BYTE   N10  As1
 BYTE   N10  As0
 BYTE   W12
 BYTE   N10  Bn1
 BYTE   N10  Bn0
 BYTE   W12
 BYTE   N10  Cn2
 BYTE   N10  Cn1
 BYTE   W12
 BYTE   N08  Gs1
 BYTE   N08  Gs0
 BYTE   W12
 BYTE   N02  An1
 BYTE   N02  An0
 BYTE   W06
 BYTE   N04  As0
 BYTE   N04  AsM1
 BYTE   W06
 BYTE   N04  As1
 BYTE   N04  As0
 BYTE   W06
 BYTE   N04  Bn0
 BYTE   N04  BnM1
 BYTE   W06
 BYTE   N04  Bn1
 BYTE   N04  Bn0
 BYTE   W06
// 002   ----------------------------------------
 BYTE   N12  Cn2
 BYTE   W12
 BYTE   N10  En1
 BYTE   W12
 BYTE   N02  Fn1
 BYTE   W06
 BYTE   N10  Fs1
 BYTE   W12
 BYTE   N10  Gn1
 BYTE   W12
 BYTE   N10  As1
 BYTE   W12
 BYTE   N02  Gn1
 BYTE   W06
 BYTE   N02  Fn1
 BYTE   W06
 BYTE   N02  Fs1
 BYTE   W06
 BYTE   N12  Gn1
 BYTE   W12
// 003   ----------------------------------------
 BYTE   N12  Cs2
 BYTE   W12
 BYTE   N10  Fn1
 BYTE   W12
 BYTE   N02  Fs1
 BYTE   W06
 BYTE   N10  Gn1
 BYTE   W12
 BYTE   N10  Gs1
 BYTE   W12
 BYTE   N10  Bn1
 BYTE   W12
 BYTE   N02  Gs1
 BYTE   W06
 BYTE   N02  Fs1
 BYTE   W06
 BYTE   N02  Gn1
 BYTE   W06
 BYTE   N12  Gs1
 BYTE   W12
// 004   ----------------------------------------
 BYTE   N12  Cn2
 BYTE   W12
 BYTE   N10  En1
 BYTE   W12
 BYTE   N02  Fn1
 BYTE   W06
 BYTE   N10  Fs1
 BYTE   W12
 BYTE   N10  Gn1
 BYTE   W12
 BYTE   N10  As1
 BYTE   W12
 BYTE   N02  Gn1
 BYTE   W06
 BYTE   N02  Fn1
 BYTE   W06
 BYTE   N02  Fs1
 BYTE   W06
 BYTE   N12  Gn1
 BYTE   W12
// 005   ----------------------------------------
 BYTE   N12  Cs2
 BYTE   W12
 BYTE   N10  Fn1
 BYTE   W12
 BYTE   N02  Fs1
 BYTE   W06
 BYTE   N10  Gn1
 BYTE   W12
 BYTE   N10  Gs1
 BYTE   W12
 BYTE   N10  Bn1
 BYTE   W12
 BYTE   N02  Gs1
 BYTE   W06
 BYTE   N02  Fs1
 BYTE   W06
 BYTE   N02  Gn1
 BYTE   W06
 BYTE   N12  Gs1
 BYTE   W12
// 006   ----------------------------------------
 BYTE   N12  Cn2
 BYTE   W12
 BYTE   N10  En1
 BYTE   W12
 BYTE   N02  Fn1
 BYTE   W06
 BYTE   N10  Fs1
 BYTE   W12
 BYTE   N10  Gn1
 BYTE   W12
 BYTE   N10  As1
 BYTE   W12
 BYTE   N02  Gn1
 BYTE   W06
 BYTE   N02  Fn1
 BYTE   W06
 BYTE   N02  Fs1
 BYTE   W06
 BYTE   N02  Gn1
 BYTE   W06
 BYTE   N02  Fn1
 BYTE   W06
// 007   ----------------------------------------
 BYTE   N12  Cs2
 BYTE   W12
 BYTE   N10  Fn1
 BYTE   W12
 BYTE   N02  Fs1
 BYTE   W06
 BYTE   N10  Gn1
 BYTE   W12
 BYTE   N10  Gs1
 BYTE   W12
 BYTE   N10  Bn1
 BYTE   W12
 BYTE   N02  Gs1
 BYTE   W06
 BYTE   N02  Fs1
 BYTE   W06
 BYTE   N02  Gn1
 BYTE   W06
 BYTE   N12  Gs1
 BYTE   W12
// 008   ----------------------------------------
 BYTE   N12  Cn2
 BYTE   W12
 BYTE   N10  En1
 BYTE   W12
 BYTE   N02  Fn1
 BYTE   W06
 BYTE   N10  Fs1
 BYTE   W12
 BYTE   N10  Gn1
 BYTE   W12
 BYTE   N10  As1
 BYTE   W12
 BYTE   N02  Gn1
 BYTE   W06
 BYTE   N02  Fn1
 BYTE   W06
 BYTE   N02  Fs1
 BYTE   W06
 BYTE   N12  Gn1
 BYTE   W12
// 009   ----------------------------------------
 BYTE   N12  Cs2
 BYTE   W12
 BYTE   N10  Fn1
 BYTE   W12
 BYTE   N02  Fs1
 BYTE   W06
 BYTE   N10  Gn1
 BYTE   W12
 BYTE   N10  Gs1
 BYTE   W12
 BYTE   N10  Bn1
 BYTE   W12
 BYTE   N02  Gs1
 BYTE   W06
 BYTE   N02  Fs1
 BYTE   W06
 BYTE   N02  Gn1
 BYTE   W06
 BYTE   N02  Gs1
 BYTE   W06
 BYTE   N02  Cs2
 BYTE   W06
// 010   ----------------------------------------
 BYTE   N12  Cn2
 BYTE   W12
 BYTE   N10  En1
 BYTE   W12
 BYTE   N02  Fn1
 BYTE   W06
 BYTE   N12  Fs1
 BYTE   W12
 BYTE   N10  Gn1
 BYTE   W12
 BYTE   N10  As1
 BYTE   W12
 BYTE   N02  Gn1
 BYTE   W06
 BYTE   N02  Fn1
 BYTE   W06
 BYTE   N02  Fs1
 BYTE   W06
 BYTE   N12  Gn1
 BYTE   W12
// 011   ----------------------------------------
 BYTE   N12  Cs2
 BYTE   W12
 BYTE   N10  Fn1
 BYTE   W12
 BYTE   N02  Fs1
 BYTE   W06
 BYTE   N10  Gn1
 BYTE   W12
 BYTE   N10  Gs1
 BYTE   W12
 BYTE   N10  Bn1
 BYTE   W12
 BYTE   N02  Gs1
 BYTE   W06
 BYTE   N02  Fs1
 BYTE   W06
 BYTE   N02  Gn1
 BYTE   W06
 BYTE   N02  Gs1
 BYTE   W06
 BYTE   N02  Cs2
 BYTE   W06
// 012   ----------------------------------------
 BYTE   N12  Cn2
 BYTE   W12
 BYTE   N10  En1
 BYTE   W12
 BYTE   N02  Fn1
 BYTE   W06
 BYTE   N10  Fs1
 BYTE   W12
 BYTE   N10  Gn1
 BYTE   W12
 BYTE   N10  As1
 BYTE   W12
 BYTE   N02  Gn1
 BYTE   W06
 BYTE   N02  Fn1
 BYTE   W06
 BYTE   N02  Fs1
 BYTE   W06
 BYTE   N12  Gn1
 BYTE   W12
// 013   ----------------------------------------
 BYTE   N12  Gs1
 BYTE   W12
 BYTE   N10  Gs0
 BYTE   W12
 BYTE   N02  Cs1
 BYTE   W06
 BYTE   N10  Dn1
 BYTE   W12
 BYTE   N10  Ds1
 BYTE   W12
 BYTE   N10  Gs1
 BYTE   W12
 BYTE   N02  Ds1
 BYTE   W06
 BYTE   N02  Cs1
 BYTE   W06
 BYTE   N02  Dn1
 BYTE   W06
 BYTE   N12  Ds1
 BYTE   W12
// 014   ----------------------------------------
 BYTE   N12  Cn2
 BYTE   W12
 BYTE   N10  En1
 BYTE   W12
 BYTE   N02  Fn1
 BYTE   W06
 BYTE   N10  Fs1
 BYTE   W12
 BYTE   N10  Gn1
 BYTE   W12
 BYTE   N10  As1
 BYTE   W12
 BYTE   N02  Gn1
 BYTE   W06
 BYTE   N02  Fn1
 BYTE   W06
 BYTE   N02  Fs1
 BYTE   W06
 BYTE   N12  Gn1
 BYTE   W12
// 015   ----------------------------------------
 BYTE   N12  Gs1
 BYTE   W12
 BYTE   N10  Gs0
 BYTE   W12
 BYTE   N02  Cs1
 BYTE   W06
 BYTE   N10  Dn1
 BYTE   W12
 BYTE   N10  Ds1
 BYTE   W12
 BYTE   N10  Gs1
 BYTE   W12
 BYTE   N02  Ds1
 BYTE   W06
 BYTE   N02  Cs1
 BYTE   W06
 BYTE   N02  Dn1
 BYTE   W06
 BYTE   N12  Ds1
 BYTE   W12
// 016   ----------------------------------------
 BYTE   N12  Cn2
 BYTE   W12
 BYTE   N10  En1
 BYTE   W12
 BYTE   N02  Fn1
 BYTE   W06
 BYTE   N10  Fs1
 BYTE   W12
 BYTE   N10  Gn1
 BYTE   W12
 BYTE   N10  As1
 BYTE   W12
 BYTE   N02  Gn1
 BYTE   W06
 BYTE   N02  Fn1
 BYTE   W06
 BYTE   N02  Fs1
 BYTE   W06
 BYTE   N12  Gn1
 BYTE   W12
// 017   ----------------------------------------
 BYTE   N12  Gs1
 BYTE   W12
 BYTE   N10  Gs0
 BYTE   W12
 BYTE   N02  Cs1
 BYTE   W06
 BYTE   N10  Dn1
 BYTE   W12
 BYTE   N10  Ds1
 BYTE   W12
 BYTE   N10  Gs1
 BYTE   W12
 BYTE   N02  Ds1
 BYTE   W06
 BYTE   N02  Cs1
 BYTE   W06
 BYTE   N02  Dn1
 BYTE   W06
 BYTE   N12  Ds1
 BYTE   W12
// 018   ----------------------------------------
 BYTE   N12  Cn2
 BYTE   W12
 BYTE   N10  En1
 BYTE   W12
 BYTE   N02  Fn1
 BYTE   W06
 BYTE   N10  Fs1
 BYTE   W12
 BYTE   N10  Gn1
 BYTE   W12
 BYTE   N10  As1
 BYTE   W12
 BYTE   N02  Gn1
 BYTE   W06
 BYTE   N02  Fn1
 BYTE   W06
 BYTE   N02  Fs1
 BYTE   W06
 BYTE   N12  Gn1
 BYTE   W12
// 019   ----------------------------------------
 BYTE   N12  Gs1
 BYTE   W12
 BYTE   N10  Gs0
 BYTE   W12
 BYTE   N02  Cs1
 BYTE   W06
 BYTE   N10  Dn1
 BYTE   W12
 BYTE   Ds1
 BYTE   W12
 BYTE   Gs1
 BYTE   W12
 BYTE   N02  Ds1
 BYTE   W06
 BYTE   Cs1
 BYTE   W06
 BYTE   Dn1
 BYTE   W06
 BYTE   N12  Ds1
 BYTE   W12
// 020   ----------------------------------------
Label_0_01649F7C:
 BYTE   N12  Cn1  v100
 BYTE   N12  Cn0
 BYTE   W12
 BYTE   En0
 BYTE   N12  EnM1
 BYTE   W12
 BYTE   N02  Fn0
 BYTE   N02  FnM1
 BYTE   W06
 BYTE   N12  Fs0
 BYTE   N12  FsM1
 BYTE   W12
 BYTE   N10  Gn0
 BYTE   N10  GnM1
 BYTE   W12
 BYTE   N12  As0
 BYTE   N12  AsM1
 BYTE   W12
 BYTE   N02  Gn0
 BYTE   N02  GnM1
 BYTE   W06
 BYTE   N04  Fn0
 BYTE   N04  FnM1
 BYTE   W06
 BYTE   N06  Fs0
 BYTE   N06  FsM1
 BYTE   W06
 BYTE   N04  Gn0
 BYTE   N04  GnM1
 BYTE   W06
 BYTE   N02  As0
 BYTE   N02  AsM1
 BYTE   W06
 BYTE   PEND 
// 021   ----------------------------------------
Label_0_01649FB4:
 BYTE   N12  Cn1  v100
 BYTE   N12  Cn0
 BYTE   W12
 BYTE   En0
 BYTE   N12  EnM1
 BYTE   W12
 BYTE   N02  Fn0
 BYTE   N02  FnM1
 BYTE   W06
 BYTE   N12  Fs0
 BYTE   N12  FsM1
 BYTE   W12
 BYTE   N10  Gn0
 BYTE   N10  GnM1
 BYTE   W12
 BYTE   N12  As0
 BYTE   N12  AsM1
 BYTE   W12
 BYTE   N02  Gn0
 BYTE   N02  GnM1
 BYTE   W06
 BYTE   N04  Fn0
 BYTE   N04  FnM1
 BYTE   W06
 BYTE   N06  Fs0
 BYTE   N06  FsM1
 BYTE   W06
 BYTE   N10  Gn0
 BYTE   N10  GnM1
 BYTE   W12
 BYTE   PEND 
 BYTE   PATT
  POIN2 Label_0_01649F7C
 BYTE   PATT
  POIN2 Label_0_01649FB4
// 022   ----------------------------------------
Label_0_01649FF1:
 BYTE   N12  Cs1  v100
 BYTE   N12  Cs0
 BYTE   W12
 BYTE   Fn0
 BYTE   N12  FnM1
 BYTE   W12
 BYTE   N02  Fs0
 BYTE   N02  FsM1
 BYTE   W06
 BYTE   N12  Gn0
 BYTE   N12  GnM1
 BYTE   W12
 BYTE   N10  Gs0
 BYTE   N10  GsM1
 BYTE   W12
 BYTE   N12  Bn0
 BYTE   N12  BnM1
 BYTE   W12
 BYTE   N02  Gs0
 BYTE   N02  GsM1
 BYTE   W06
 BYTE   N04  Fs0
 BYTE   N04  FsM1
 BYTE   W06
 BYTE   N06  Gn0
 BYTE   N06  GnM1
 BYTE   W06
 BYTE   N04  Gs0
 BYTE   N04  GsM1
 BYTE   W06
 BYTE   N02  Bn0
 BYTE   N02  BnM1
 BYTE   W06
 BYTE   PEND 
// 023   ----------------------------------------
Label_0_0164A029:
 BYTE   N12  Cs1  v100
 BYTE   N12  Cs0
 BYTE   W12
 BYTE   Fn0
 BYTE   N12  FnM1
 BYTE   W12
 BYTE   N02  Fs0
 BYTE   N02  FsM1
 BYTE   W06
 BYTE   N12  Gn0
 BYTE   N12  GnM1
 BYTE   W12
 BYTE   N10  Gs0
 BYTE   N10  GsM1
 BYTE   W12
 BYTE   N12  Bn0
 BYTE   N12  BnM1
 BYTE   W12
 BYTE   N02  Gs0
 BYTE   N02  GsM1
 BYTE   W06
 BYTE   N04  Fs0
 BYTE   N04  FsM1
 BYTE   W06
 BYTE   N06  Gn0
 BYTE   N06  GnM1
 BYTE   W06
 BYTE   N10  Gs0
 BYTE   N10  GsM1
 BYTE   W12
 BYTE   PEND 
 BYTE   PATT
  POIN2 Label_0_01649FF1
// 024   ----------------------------------------
Label_0_0164A061:
 BYTE   N12  Cs1  v100
 BYTE   N12  Cs0
 BYTE   W12
 BYTE   Fn0
 BYTE   N12  FnM1
 BYTE   W12
 BYTE   N02  Fs0
 BYTE   N02  FsM1
 BYTE   W06
 BYTE   N12  Gn0
 BYTE   N12  GnM1
 BYTE   W12
 BYTE   N10  Gs0
 BYTE   N10  GsM1
 BYTE   W12
 BYTE   N12  Bn0
 BYTE   N12  BnM1
 BYTE   W12
 BYTE   N02  Gs0
 BYTE   N02  GsM1
 BYTE   W06
 BYTE   N04  Fs0
 BYTE   N04  FsM1
 BYTE   W06
 BYTE   N06  Gn0
 BYTE   N06  GnM1
 BYTE   W06
 BYTE   N04  Gs0
 BYTE   N04  GsM1
 BYTE   W06
 BYTE   N02  Fs0
 BYTE   N02  FsM1
 BYTE   W06
 BYTE   PEND 
// 025   ----------------------------------------
Label_0_0164A099:
 BYTE   N12  Cn2  v100
 BYTE   W12
 BYTE   N10  En1
 BYTE   W12
 BYTE   N02  Fn1
 BYTE   W06
 BYTE   N10  Fs1
 BYTE   W12
 BYTE   Gn1
 BYTE   W12
 BYTE   As1
 BYTE   W12
 BYTE   N02  Gn1
 BYTE   W06
 BYTE   Fn1
 BYTE   W06
 BYTE   Fs1
 BYTE   W06
 BYTE   N12  Gn1
 BYTE   W12
 BYTE   PEND 
// 026   ----------------------------------------
Label_0_0164A0B5:
 BYTE   N12  Cs2  v100
 BYTE   W12
 BYTE   N10  Fn1
 BYTE   W12
 BYTE   N02  Fs1
 BYTE   W06
 BYTE   N10  Gn1
 BYTE   W12
 BYTE   Gs1
 BYTE   W12
 BYTE   Bn1
 BYTE   W12
 BYTE   N02  Gs1
 BYTE   W06
 BYTE   Fs1
 BYTE   W06
 BYTE   Gn1
 BYTE   W06
 BYTE   N12  Gs1
 BYTE   W12
 BYTE   PEND 
 BYTE   PATT
  POIN2 Label_0_0164A099
 BYTE   PATT
  POIN2 Label_0_0164A0B5
// 027   ----------------------------------------
 BYTE   N12  Cn2  v100
 BYTE   W12
 BYTE   N10  En1
 BYTE   W12
 BYTE   N02  Fn1
 BYTE   W06
 BYTE   N10  Fs1
 BYTE   W12
 BYTE   Gn1
 BYTE   W12
 BYTE   As1
 BYTE   W12
 BYTE   N02  Gn1
 BYTE   W06
 BYTE   Fn1
 BYTE   W06
 BYTE   Fs1
 BYTE   W06
 BYTE   Gn1
 BYTE   W06
 BYTE   Fn1
 BYTE   W06
 BYTE   PATT
  POIN2 Label_0_0164A0B5
 BYTE   PATT
  POIN2 Label_0_0164A099
// 028   ----------------------------------------
Label_0_0164A101:
 BYTE   N12  Cs2  v100
 BYTE   W12
 BYTE   N10  Fn1
 BYTE   W12
 BYTE   N02  Fs1
 BYTE   W06
 BYTE   N10  Gn1
 BYTE   W12
 BYTE   Gs1
 BYTE   W12
 BYTE   Bn1
 BYTE   W12
 BYTE   N02  Gs1
 BYTE   W06
 BYTE   Fs1
 BYTE   W06
 BYTE   Gn1
 BYTE   W06
 BYTE   Gs1
 BYTE   W06
 BYTE   Cs2
 BYTE   W06
 BYTE   PEND 
// 029   ----------------------------------------
 BYTE   N12  Cn2  v100
 BYTE   W12
 BYTE   N10  En1
 BYTE   W12
 BYTE   N02  Fn1
 BYTE   W06
 BYTE   N12  Fs1
 BYTE   W12
 BYTE   N10  Gn1
 BYTE   W12
 BYTE   As1
 BYTE   W12
 BYTE   N02  Gn1
 BYTE   W06
 BYTE   Fn1
 BYTE   W06
 BYTE   Fs1
 BYTE   W06
 BYTE   N12  Gn1
 BYTE   W12
 BYTE   PATT
  POIN2 Label_0_0164A101
 BYTE   PATT
  POIN2 Label_0_0164A099
// 030   ----------------------------------------
Label_0_0164A144:
 BYTE   N12  Gs1  v100
 BYTE   W12
 BYTE   N10  Gs0
 BYTE   W12
 BYTE   N02  Cs1
 BYTE   W06
 BYTE   N10  Dn1
 BYTE   W12
 BYTE   Ds1
 BYTE   W12
 BYTE   Gs1
 BYTE   W12
 BYTE   N02  Ds1
 BYTE   W06
 BYTE   Cs1
 BYTE   W06
 BYTE   Dn1
 BYTE   W06
 BYTE   N12  Ds1
 BYTE   W12
 BYTE   PEND 
 BYTE   PATT
  POIN2 Label_0_0164A099
 BYTE   PATT
  POIN2 Label_0_0164A144
 BYTE   PATT
  POIN2 Label_0_0164A099
 BYTE   PATT
  POIN2 Label_0_0164A144
 BYTE   PATT
  POIN2 Label_0_0164A099
 BYTE   PATT
  POIN2 Label_0_0164A144
 BYTE   PATT
  POIN2 Label_0_01649F7C
 BYTE   PATT
  POIN2 Label_0_01649FB4
 BYTE   PATT
  POIN2 Label_0_01649F7C
 BYTE   PATT
  POIN2 Label_0_01649FB4
 BYTE   PATT
  POIN2 Label_0_01649FF1
 BYTE   PATT
  POIN2 Label_0_0164A029
 BYTE   PATT
  POIN2 Label_0_01649FF1
 BYTE   PATT
  POIN2 Label_0_0164A061
// 031   ----------------------------------------
 BYTE   GoTo
  POIN2 Label_0_01649CEC
 BYTE   FINE

//**************** Track 2 (Midi-Chn.1) ****************//

KirbyandtheAmazingMirrorBossThemeMeatOfJustice_002:
// 000   ----------------------------------------
Label_1_0164A1AC:
 BYTE   TEMPO   154*KirbyandtheAmazingMirrorBossThemeMeatOfJustice_tbs/2
 BYTE   KEYSH   KirbyandtheAmazingMirrorBossThemeMeatOfJustice_key+0
 BYTE   VOL   72*KirbyandtheAmazingMirrorBossThemeMeatOfJustice_mvl/mxv
 BYTE   PAN   c_v+0
 BYTE   VOICE   62
 BYTE   W96
// 001   ----------------------------------------
 BYTE   W96
// 002   ----------------------------------------
 BYTE   W12
 BYTE   N02  Fn3  v080
 BYTE   N02  Gn2
 BYTE   W06
 BYTE   N03  Fn3  v100
 BYTE   N03  Gn2
 BYTE   W12
 BYTE   N09  Fn3  v080
 BYTE   N09  Gn2
 BYTE   W12
 BYTE   N03  Fn3  v100
 BYTE   N03  Gn2
 BYTE   W24
 BYTE   N02  Fn3
 BYTE   N02  Gn2
 BYTE   W12
 BYTE   N03  Fn3  v080
 BYTE   N03  Gn2
 BYTE   W30
// 003   ----------------------------------------
 BYTE   N02  Fs3
 BYTE   N02  Gs2
 BYTE   W06
 BYTE   N03  Fs3  v100
 BYTE   N03  Gs2
 BYTE   W12
 BYTE   N09  Fs3  v080
 BYTE   N09  Gs2
 BYTE   W12
 BYTE   N03  Fs3  v100
 BYTE   N03  Gs2
 BYTE   W18
 BYTE   N02  Fs3  v080
 BYTE   N02  Gs2
 BYTE   W06
 BYTE   N02  Fs3  v100
 BYTE   N02  Gs2
 BYTE   W12
 BYTE   N03  Fs3  v080
 BYTE   N03  Gs2
 BYTE   W30
// 004   ----------------------------------------
 BYTE   N02  Fn3
 BYTE   N02  Gn2
 BYTE   W06
 BYTE   N03  Fn3  v100
 BYTE   N03  Gn2
 BYTE   W12
 BYTE   N09  Fn3  v080
 BYTE   N09  Gn2
 BYTE   W12
 BYTE   N03  Fn3  v100
 BYTE   N03  Gn2
 BYTE   W24
 BYTE   N02  Fn3
 BYTE   N02  Gn2
 BYTE   W12
 BYTE   N03  Fn3  v080
 BYTE   N03  Gn2
 BYTE   W30
// 005   ----------------------------------------
 BYTE   N02  Fs3
 BYTE   N02  Gs2
 BYTE   W06
 BYTE   N03  Fs3  v100
 BYTE   N03  Gs2
 BYTE   W12
 BYTE   N09  Fs3  v080
 BYTE   N09  Gs2
 BYTE   W12
 BYTE   N03  Fs3  v100
 BYTE   N03  Gs2
 BYTE   W18
 BYTE   N02  Fs3  v080
 BYTE   N02  Gs2
 BYTE   W06
 BYTE   N02  Fs3  v100
 BYTE   N02  Gs2
 BYTE   W12
 BYTE   N03  Fs3  v080
 BYTE   N03  Gs2
 BYTE   W30
// 006   ----------------------------------------
 BYTE   N02  Fn3
 BYTE   N02  Gn2
 BYTE   W06
 BYTE   N03  Fn3  v100
 BYTE   N03  Gn2
 BYTE   W12
 BYTE   N09  Fn3  v080
 BYTE   N09  Gn2
 BYTE   W12
 BYTE   N03  Fn3  v100
 BYTE   N03  Gn2
 BYTE   W24
 BYTE   N02  Fn3
 BYTE   N02  Gn2
 BYTE   W12
 BYTE   N03  Fn3  v080
 BYTE   N03  Gn2
 BYTE   W30
// 007   ----------------------------------------
 BYTE   N02  Fs3
 BYTE   N02  Gs2
 BYTE   W06
 BYTE   N03  Fs3  v100
 BYTE   N03  Gs2
 BYTE   W12
 BYTE   N09  Fs3  v080
 BYTE   N09  Gs2
 BYTE   W12
 BYTE   N03  Fs3  v100
 BYTE   N03  Gs2
 BYTE   W18
 BYTE   N02  Fs3  v080
 BYTE   N02  Gs2
 BYTE   W06
 BYTE   N02  Fs3  v100
 BYTE   N02  Gs2
 BYTE   W12
 BYTE   N03  Fs3  v080
 BYTE   N03  Gs2
 BYTE   W30
// 008   ----------------------------------------
 BYTE   N02  Fn3
 BYTE   N02  Gn2
 BYTE   W06
 BYTE   N03  Fn3  v100
 BYTE   N03  Gn2
 BYTE   W12
 BYTE   N09  Fn3  v080
 BYTE   N09  Gn2
 BYTE   W12
 BYTE   N03  Fn3  v100
 BYTE   N03  Gn2
 BYTE   W24
 BYTE   N02  Fn3
 BYTE   N02  Gn2
 BYTE   W12
 BYTE   N03  Fn3  v080
 BYTE   N03  Gn2
 BYTE   W30
// 009   ----------------------------------------
 BYTE   N02  Fs3
 BYTE   N02  Gs2
 BYTE   W06
 BYTE   N03  Fs3  v100
 BYTE   N03  Gs2
 BYTE   W12
 BYTE   N09  Fs3  v080
 BYTE   N09  Gs2
 BYTE   W12
 BYTE   N03  Fs3  v100
 BYTE   N03  Gs2
 BYTE   W18
 BYTE   N02  Fs3  v080
 BYTE   N02  Gs2
 BYTE   W06
 BYTE   N02  Fs3  v100
 BYTE   N02  Gs2
 BYTE   W12
 BYTE   N03  Fs3  v080
 BYTE   N03  Gs2
 BYTE   W30
// 010   ----------------------------------------
 BYTE   N02  Fn3
 BYTE   N02  Gn2
 BYTE   W06
 BYTE   N03  Fn3  v100
 BYTE   N03  Gn2
 BYTE   W12
 BYTE   N09  Fn3  v080
 BYTE   N09  Gn2
 BYTE   W12
 BYTE   N03  Fn3  v100
 BYTE   N03  Gn2
 BYTE   W24
 BYTE   N02  Fn3
 BYTE   N02  Gn2
 BYTE   W12
 BYTE   N03  Fn3  v080
 BYTE   N03  Gn2
 BYTE   W30
// 011   ----------------------------------------
 BYTE   N02  Fs3
 BYTE   N02  Gs2
 BYTE   W06
 BYTE   N03  Fs3  v100
 BYTE   N03  Gs2
 BYTE   W12
 BYTE   N09  Fs3  v080
 BYTE   N09  Gs2
 BYTE   W12
 BYTE   N03  Fs3  v100
 BYTE   N03  Gs2
 BYTE   W24
 BYTE   N02  Fs3
 BYTE   N02  Gs2
 BYTE   W12
 BYTE   N03  Fs3  v080
 BYTE   N03  Gs2
 BYTE   W30
// 012   ----------------------------------------
 BYTE   N02  Fn3
 BYTE   N02  Gn2
 BYTE   W06
 BYTE   N03  Fn3  v100
 BYTE   N03  Gn2
 BYTE   W12
 BYTE   N09  Fn3  v080
 BYTE   N09  Gn2
 BYTE   W12
 BYTE   N03  Fn3  v100
 BYTE   N03  Gn2
 BYTE   W24
 BYTE   N02  Fn3
 BYTE   N02  Gn2
 BYTE   W12
 BYTE   N03  Fn3  v080
 BYTE   N03  Gn2
 BYTE   W30
// 013   ----------------------------------------
 BYTE   N02  Gs3
 BYTE   N02  Ds3
 BYTE   W06
 BYTE   N03  Gs3  v100
 BYTE   N03  Ds3
 BYTE   W12
 BYTE   N09  Gs3  v080
 BYTE   N09  Ds3
 BYTE   W12
 BYTE   N03  Gs3  v100
 BYTE   N03  Ds3
 BYTE   W24
 BYTE   N02  Gs3
 BYTE   N02  Ds3
 BYTE   W12
 BYTE   N03  Gs3  v080
 BYTE   N03  Ds3
 BYTE   W18
 BYTE   N92  Dn3  v100
 BYTE   N92  Gn2
 BYTE   W96
// 014   ----------------------------------------
 BYTE   N92  Ds3
 BYTE   N92  Gs2
 BYTE   W96
// 015   ----------------------------------------
 BYTE   N92  Dn3
 BYTE   N92  Gn2
 BYTE   W96
// 016   ----------------------------------------
 BYTE   N92  Ds3
 BYTE   N92  Gs2
 BYTE   W96
// 017   ----------------------------------------
 BYTE   N92  Dn3
 BYTE   N92  Gn2
 BYTE   W96
// 018   ----------------------------------------
 BYTE   N92  Ds3
 BYTE   N92  Gs2
 BYTE   W96
// 019   ----------------------------------------
 BYTE   W96
// 020   ----------------------------------------
 BYTE   W96
// 021   ----------------------------------------
 BYTE   W96
// 022   ----------------------------------------
 BYTE   W96
// 023   ----------------------------------------
 BYTE   W96
// 024   ----------------------------------------
 BYTE   W96
// 025   ----------------------------------------
 BYTE   W96
// 026   ----------------------------------------
 BYTE   W96
// 027   ----------------------------------------
 BYTE   W12
Label_1_0164A396:
 BYTE   N02  Fn3  v080
 BYTE   N02  Gn2
 BYTE   W06
 BYTE   N03  Fn3  v100
 BYTE   N03  Gn2
 BYTE   W12
 BYTE   N09  Fn3  v080
 BYTE   N09  Gn2
 BYTE   W12
 BYTE   N03  Fn3  v100
 BYTE   N03  Gn2
 BYTE   W24
 BYTE   N02  Fn3
 BYTE   N02  Gn2
 BYTE   W12
 BYTE   N03  Fn3  v080
 BYTE   N03  Gn2
 BYTE   W30
 BYTE   PEND 
// 028   ----------------------------------------
Label_1_0164A3BA:
 BYTE   N02  Fs3  v080
 BYTE   N02  Gs2
 BYTE   W06
 BYTE   N03  Fs3  v100
 BYTE   N03  Gs2
 BYTE   W12
 BYTE   N09  Fs3  v080
 BYTE   N09  Gs2
 BYTE   W12
 BYTE   N03  Fs3  v100
 BYTE   N03  Gs2
 BYTE   W18
 BYTE   N02  Fs3  v080
 BYTE   N02  Gs2
 BYTE   W06
 BYTE   Fs3  v100
 BYTE   N02  Gs2
 BYTE   W12
 BYTE   N03  Fs3  v080
 BYTE   N03  Gs2
 BYTE   W30
 BYTE   PEND 
 BYTE   PATT
  POIN2 Label_1_0164A396
 BYTE   PATT
  POIN2 Label_1_0164A3BA
 BYTE   PATT
  POIN2 Label_1_0164A396
 BYTE   PATT
  POIN2 Label_1_0164A3BA
 BYTE   PATT
  POIN2 Label_1_0164A396
 BYTE   PATT
  POIN2 Label_1_0164A3BA
 BYTE   PATT
  POIN2 Label_1_0164A396
// 029   ----------------------------------------
 BYTE   N02  Fs3  v080
 BYTE   N02  Gs2
 BYTE   W06
 BYTE   N03  Fs3  v100
 BYTE   N03  Gs2
 BYTE   W12
 BYTE   N09  Fs3  v080
 BYTE   N09  Gs2
 BYTE   W12
 BYTE   N03  Fs3  v100
 BYTE   N03  Gs2
 BYTE   W24
 BYTE   N02  Fs3
 BYTE   N02  Gs2
 BYTE   W12
 BYTE   N03  Fs3  v080
 BYTE   N03  Gs2
 BYTE   W30
 BYTE   PATT
  POIN2 Label_1_0164A396
// 030   ----------------------------------------
 BYTE   N02  Gs3  v080
 BYTE   N02  Ds3
 BYTE   W06
 BYTE   N03  Gs3  v100
 BYTE   N03  Ds3
 BYTE   W12
 BYTE   N09  Gs3  v080
 BYTE   N09  Ds3
 BYTE   W12
 BYTE   N03  Gs3  v100
 BYTE   N03  Ds3
 BYTE   W24
 BYTE   N02  Gs3
 BYTE   N02  Ds3
 BYTE   W12
 BYTE   N03  Gs3  v080
 BYTE   N03  Ds3
 BYTE   W18
 BYTE   N92  Dn3  v100
 BYTE   N92  Gn2
 BYTE   W96
// 031   ----------------------------------------
Label_1_0164A458:
 BYTE   N92  Ds3  v100
 BYTE   N92  Gs2
 BYTE   W96
 BYTE   PEND 
// 032   ----------------------------------------
Label_1_0164A45F:
 BYTE   N92  Dn3  v100
 BYTE   N92  Gn2
 BYTE   W96
 BYTE   PEND 
 BYTE   PATT
  POIN2 Label_1_0164A458
 BYTE   PATT
  POIN2 Label_1_0164A45F
// 033   ----------------------------------------
 BYTE   N92  Ds3  v100
 BYTE   N92  Gs2
 BYTE   W96
// 034   ----------------------------------------
 BYTE   W96
// 035   ----------------------------------------
 BYTE   W96
// 036   ----------------------------------------
 BYTE   W96
// 037   ----------------------------------------
 BYTE   W96
// 038   ----------------------------------------
 BYTE   W96
// 039   ----------------------------------------
 BYTE   W96
// 040   ----------------------------------------
 BYTE   W96
// 041   ----------------------------------------
 BYTE   W88
 BYTE   W01
 BYTE   GoTo
  POIN2 Label_1_0164A1AC
 BYTE   FINE

//**************** Track 3 (Midi-Chn.2) ****************//

KirbyandtheAmazingMirrorBossThemeMeatOfJustice_003:
// 000   ----------------------------------------
Label_2_0164A488:
 BYTE   TEMPO   154*KirbyandtheAmazingMirrorBossThemeMeatOfJustice_tbs/2
 BYTE   KEYSH   KirbyandtheAmazingMirrorBossThemeMeatOfJustice_key+0
 BYTE   VOL   72*KirbyandtheAmazingMirrorBossThemeMeatOfJustice_mvl/mxv
 BYTE   PAN   c_v+0
 BYTE   VOICE   110
 BYTE   W96
// 001   ----------------------------------------
 BYTE   W84
 BYTE   N03  Gs3  v100
 BYTE   W03
 BYTE   N03  An3
 BYTE   W03
 BYTE   N03  As3
 BYTE   W03
 BYTE   N03  Bn3
 BYTE   W03
// 002   ----------------------------------------
 BYTE   N18  Cn4
 BYTE   W18
 BYTE   N18  Gn3
 BYTE   W18
 BYTE   N18  Fn3
 BYTE   W18
 BYTE   N03  Gn2
 BYTE   W06
 BYTE   N03  Cn3
 BYTE   W06
 BYTE   N03  Fn3
 BYTE   W06
 BYTE   N03  Cn4
 BYTE   W06
 BYTE   N03  Gn3
 BYTE   W06
 BYTE   N03  Cn4
 BYTE   W06
 BYTE   N03  Fn4
 BYTE   W06
// 003   ----------------------------------------
 BYTE   N18  Fs4
 BYTE   W18
 BYTE   N18  Cs4
 BYTE   W18
 BYTE   N12  Gs3
 BYTE   W12
 BYTE   N03  Ds3
 BYTE   W06
 BYTE   N03  Gs2
 BYTE   W06
 BYTE   N03  As2
 BYTE   W06
 BYTE   N03  Ds3
 BYTE   W06
 BYTE   N03  Fn3
 BYTE   W06
 BYTE   N03  As3
 BYTE   W06
 BYTE   N03  Ds4
 BYTE   W06
 BYTE   N03  Gs4
 BYTE   W06
// 004   ----------------------------------------
 BYTE   N18  Gn4
 BYTE   W18
 BYTE   N12  Dn4
 BYTE   W12
 BYTE   N03  An3
 BYTE   W06
 BYTE   N03  En3
 BYTE   W06
 BYTE   N03  An3
 BYTE   W06
 BYTE   N03  En2
 BYTE   W06
 BYTE   N03  An2
 BYTE   W06
 BYTE   N03  Dn3
 BYTE   W06
 BYTE   N03  An2
 BYTE   W06
 BYTE   N03  Dn3
 BYTE   W06
 BYTE   N03  Gn3
 BYTE   W06
 BYTE   N03  Dn4
 BYTE   W06
 BYTE   N03  Gn4
 BYTE   W06
// 005   ----------------------------------------
 BYTE   N03  Gs4
 BYTE   W06
 BYTE   N03  Ds4
 BYTE   W06
 BYTE   N03  Cs4
 BYTE   W06
 BYTE   N03  Ds4
 BYTE   W06
 BYTE   N03  Cs4
 BYTE   W06
 BYTE   N03  Gs3
 BYTE   W06
 BYTE   N03  Ds3
 BYTE   W06
 BYTE   N03  Gs3
 BYTE   W06
 BYTE   N03  Ds3
 BYTE   W06
 BYTE   N03  Ds2
 BYTE   W06
 BYTE   N03  Gs2
 BYTE   W06
 BYTE   N03  As2
 BYTE   W06
 BYTE   N03  Ds3
 BYTE   W06
 BYTE   N03  Gs3
 BYTE   W06
 BYTE   N03  Ds4
 BYTE   W06
 BYTE   N03  Gs4
 BYTE   W96
// 006   ----------------------------------------
 BYTE   W96
// 007   ----------------------------------------
 BYTE   W96
// 008   ----------------------------------------
 BYTE   W96
// 009   ----------------------------------------
 BYTE   W18
 BYTE   N06  Dn4
 BYTE   N06  Gn4
 BYTE   W06
 BYTE   N06  Cn4
 BYTE   N06  Fn4
 BYTE   W12
 BYTE   N12  Gn3
 BYTE   N12  Cn4
 BYTE   W12
 BYTE   N06  Dn3
 BYTE   N06  Gn3
 BYTE   W12
 BYTE   N06  An2
 BYTE   N06  Dn3
 BYTE   W06
 BYTE   N06
 BYTE   N06  Gn3
 BYTE   W06
 BYTE   N06  En3
 BYTE   N06  An3
 BYTE   W06
 BYTE   N03  Gn3
 BYTE   N03  Cn4
 BYTE   W06
 BYTE   N03  An3
 BYTE   N03  Dn4
 BYTE   W06
 BYTE   N03
 BYTE   N03  Gn4
 BYTE   W06
// 010   ----------------------------------------
 BYTE   N03  An3
 BYTE   N03  Dn4
 BYTE   W06
 BYTE   N18  Ds4
 BYTE   N18  Gs4
 BYTE   W18
 BYTE   N18  As3
 BYTE   N18  Ds4
 BYTE   W18
 BYTE   N18  Gs3
 BYTE   N18  Cs4
 BYTE   W18
 BYTE   N42  Ds3
 BYTE   N42  Gs3
 BYTE   W54
// 011   ----------------------------------------
 BYTE   N06  Dn3
 BYTE   N06  Gn3
 BYTE   W06
 BYTE   N06
 BYTE   N06  Cn4
 BYTE   W12
 BYTE   N12  An3
 BYTE   N12  Dn4
 BYTE   W12
 BYTE   N06  Dn3
 BYTE   N06  Gn3
 BYTE   W12
 BYTE   N06  An2
 BYTE   N06  Dn3
 BYTE   W06
 BYTE   N06
 BYTE   N06  Gn3
 BYTE   W06
 BYTE   N06  En3
 BYTE   N06  An3
 BYTE   W06
 BYTE   N03  Gn3
 BYTE   N03  Cn4
 BYTE   W06
 BYTE   N03  An3
 BYTE   N03  Dn4
 BYTE   W06
 BYTE   N03
 BYTE   N03  Gn4
 BYTE   W06
 BYTE   N03  An3
 BYTE   N03  Dn4
 BYTE   W06
 BYTE   N30  Ds4
 BYTE   N30  Gs4
 BYTE   W30
// 012   ----------------------------------------
 BYTE   N03  Dn4
 BYTE   N03  Gn4
 BYTE   W06
 BYTE   N03  Ds4
 BYTE   N03  Gs4
 BYTE   W06
 BYTE   N03  Fn4
 BYTE   N03  As4
 BYTE   W06
 BYTE   N12  Gn4
 BYTE   N12  Cn5
 BYTE   W12
 BYTE   N06  Gn4
 BYTE   N06  Cn5
 BYTE   W06
 BYTE   N06  Fn4
 BYTE   N06  As4
 BYTE   W12
 BYTE   N18  Ds4
 BYTE   N18  Gs4
 BYTE   W18
 BYTE   N78  Dn4
 BYTE   N78  Gn4
 BYTE   W78
// 013   ----------------------------------------
 BYTE   N06  As3
 BYTE   N06  Ds4
 BYTE   W06
 BYTE   N06  Cn4
 BYTE   N06  Fn4
 BYTE   W06
 BYTE   N03  Dn4
 BYTE   N03  Gn4
 BYTE   W06
 BYTE   N30  Ds4
 BYTE   N30  Gs4
 BYTE   W30
 BYTE   N03  Dn4
 BYTE   N03  Gn4
 BYTE   W06
 BYTE   N03  Ds4
 BYTE   N03  Gs4
 BYTE   W06
 BYTE   N03  Fn4
 BYTE   N03  As4
 BYTE   W06
 BYTE   N09  Cn5
 BYTE   N12  Gn4
 BYTE   W12
 BYTE   N03  Cn5
 BYTE   N06  Gn4
 BYTE   W06
 BYTE   N03  As4
 BYTE   N06  Fn4
 BYTE   W12
// 014   ----------------------------------------
 BYTE   N18  Ds4
 BYTE   N18  Gs4
 BYTE   W18
 BYTE   N96  Dn4
 BYTE   N96  Gn4
 BYTE   W04
 BYTE   N96  Dn4
 BYTE   N96  Gn4
 BYTE   W04
 BYTE   N96  Dn4
 BYTE   N96  Gn4
 BYTE   W04
 BYTE   N48  Dn4
 BYTE   N48  Gn4
 BYTE   W96
// 015   ----------------------------------------
 BYTE   W96
// 016   ----------------------------------------
 BYTE   W96
// 017   ----------------------------------------
 BYTE   W96
// 018   ----------------------------------------
 BYTE   W96
// 019   ----------------------------------------
 BYTE   W96
// 020   ----------------------------------------
 BYTE   W96
// 021   ----------------------------------------
 BYTE   W68
 BYTE   W01
 BYTE   N03  En4
 BYTE   N03  An3
 BYTE   W03
 BYTE   Fn4
 BYTE   N03  As3
 BYTE   W03
 BYTE   Fs4
 BYTE   N03  Bn3
 BYTE   W03
 BYTE   Gn4
 BYTE   N03  Cn4
 BYTE   W03
 BYTE   N92  An4
 BYTE   N92  Dn4
 BYTE   W04
 BYTE   N01  An4
 BYTE   N01  Dn4
 BYTE   W90
// 022   ----------------------------------------
 BYTE   W01
 BYTE   N92  Gs4
 BYTE   N92  Cs4
 BYTE   W04
 BYTE   N01  Gs4
 BYTE   N01  Cs4
 BYTE   W90
 BYTE   W01
// 023   ----------------------------------------
 BYTE   N92  Gn4
 BYTE   N92  Cn4
 BYTE   W04
 BYTE   N01  Gn4
 BYTE   N01  Cn4
 BYTE   W90
 BYTE   W01
 BYTE   N18  Fs4
 BYTE   N18  Bn3
 BYTE   W18
// 024   ----------------------------------------
 BYTE   Fn4
 BYTE   N18  As3
 BYTE   W18
 BYTE   En4
 BYTE   N18  An3
 BYTE   W18
 BYTE   Ds4
 BYTE   N18  Gs3
 BYTE   W18
 BYTE   N12  Dn4
 BYTE   N12  Gn3
 BYTE   W12
 BYTE   PAN   c_v+10
 BYTE   N09  Cs4  v100
 BYTE   N09  Fs3
 BYTE   W12
 BYTE   N18  Cn4
 BYTE   W18
// 025   ----------------------------------------
 BYTE   Gn3
 BYTE   W18
 BYTE   Fn3
 BYTE   W18
 BYTE   N03  Gn2
 BYTE   W06
 BYTE   Cn3
 BYTE   W06
 BYTE   Fn3
 BYTE   W06
 BYTE   Cn4
 BYTE   W06
 BYTE   Gn3
 BYTE   W06
 BYTE   Cn4
 BYTE   W06
 BYTE   Fn4
 BYTE   W06
 BYTE   N18  Fs4
 BYTE   W18
// 026   ----------------------------------------
 BYTE   Cs4
 BYTE   W18
 BYTE   N12  Gs3
 BYTE   W12
 BYTE   N03  Ds3
 BYTE   W06
 BYTE   Gs2
 BYTE   W06
 BYTE   As2
 BYTE   W06
 BYTE   Ds3
 BYTE   W06
 BYTE   Fn3
 BYTE   W06
 BYTE   As3
 BYTE   W06
 BYTE   Ds4
 BYTE   W06
 BYTE   Gs4
 BYTE   W06
 BYTE   N18  Gn4
 BYTE   W18
// 027   ----------------------------------------
 BYTE   N12  Dn4
 BYTE   W12
 BYTE   N03  An3
 BYTE   W06
 BYTE   En3
 BYTE   W06
 BYTE   An3
 BYTE   W06
 BYTE   En2
 BYTE   W06
 BYTE   An2
 BYTE   W06
 BYTE   Dn3
 BYTE   W06
 BYTE   An2
 BYTE   W06
 BYTE   Dn3
 BYTE   W06
 BYTE   Gn3
 BYTE   W06
 BYTE   Dn4
 BYTE   W06
 BYTE   Gn4
 BYTE   W06
 BYTE   Gs4
 BYTE   W06
 BYTE   Ds4
 BYTE   W06
 BYTE   Cs4
 BYTE   W06
// 028   ----------------------------------------
 BYTE   Ds4
 BYTE   W06
 BYTE   Cs4
 BYTE   W06
 BYTE   Gs3
 BYTE   W06
 BYTE   Ds3
 BYTE   W06
 BYTE   Gs3
 BYTE   W06
 BYTE   Ds3
 BYTE   W06
 BYTE   Ds2
 BYTE   W06
 BYTE   Gs2
 BYTE   W06
 BYTE   As2
 BYTE   W06
 BYTE   Ds3
 BYTE   W06
 BYTE   Gs3
 BYTE   W06
 BYTE   Ds4
 BYTE   W06
 BYTE   Gs4
 BYTE   W96
// 029   ----------------------------------------
 BYTE   W96
// 030   ----------------------------------------
 BYTE   W96
// 031   ----------------------------------------
 BYTE   W96
// 032   ----------------------------------------
 BYTE   W18
 BYTE   N06  Dn4
 BYTE   N06  Gn4
 BYTE   W06
 BYTE   Cn4
 BYTE   N06  Fn4
 BYTE   W12
 BYTE   N12  Gn3
 BYTE   N12  Cn4
 BYTE   W12
 BYTE   N06  Dn3
 BYTE   N06  Gn3
 BYTE   W12
 BYTE   An2
 BYTE   N06  Dn3
 BYTE   W06
 BYTE   Dn3
 BYTE   N06  Gn3
 BYTE   W06
 BYTE   En3
 BYTE   N06  An3
 BYTE   W06
 BYTE   N03  Gn3
 BYTE   N03  Cn4
 BYTE   W06
 BYTE   An3
 BYTE   N03  Dn4
 BYTE   W06
 BYTE   Dn4
 BYTE   N03  Gn4
 BYTE   W06
// 033   ----------------------------------------
 BYTE   An3
 BYTE   N03  Dn4
 BYTE   W06
 BYTE   N18  Ds4
 BYTE   N18  Gs4
 BYTE   W18
 BYTE   As3
 BYTE   N18  Ds4
 BYTE   W18
 BYTE   Gs3
 BYTE   N18  Cs4
 BYTE   W18
 BYTE   N42  Ds3
 BYTE   N42  Gs3
 BYTE   W54
// 034   ----------------------------------------
 BYTE   N06  Dn3
 BYTE   N06  Gn3
 BYTE   W06
 BYTE   Gn3
 BYTE   N06  Cn4
 BYTE   W12
 BYTE   N12  An3
 BYTE   N12  Dn4
 BYTE   W12
 BYTE   N06  Dn3
 BYTE   N06  Gn3
 BYTE   W12
 BYTE   An2
 BYTE   N06  Dn3
 BYTE   W06
 BYTE   Dn3
 BYTE   N06  Gn3
 BYTE   W06
 BYTE   En3
 BYTE   N06  An3
 BYTE   W06
 BYTE   N03  Gn3
 BYTE   N03  Cn4
 BYTE   W06
 BYTE   An3
 BYTE   N03  Dn4
 BYTE   W06
 BYTE   Dn4
 BYTE   N03  Gn4
 BYTE   W06
 BYTE   An3
 BYTE   N03  Dn4
 BYTE   W06
 BYTE   N30  Ds4
 BYTE   N30  Gs4
 BYTE   W30
// 035   ----------------------------------------
 BYTE   N03  Dn4
 BYTE   N03  Gn4
 BYTE   W06
 BYTE   Ds4
 BYTE   N03  Gs4
 BYTE   W06
 BYTE   Fn4
 BYTE   N03  As4
 BYTE   W06
 BYTE   N12  Gn4
 BYTE   N12  Cn5
 BYTE   W12
 BYTE   N06  Gn4
 BYTE   N06  Cn5
 BYTE   W06
 BYTE   Fn4
 BYTE   N06  As4
 BYTE   W12
 BYTE   N18  Ds4
 BYTE   N18  Gs4
 BYTE   W18
 BYTE   N78  Dn4
 BYTE   N78  Gn4
 BYTE   W78
// 036   ----------------------------------------
 BYTE   N06  As3
 BYTE   N06  Ds4
 BYTE   W06
 BYTE   Cn4
 BYTE   N06  Fn4
 BYTE   W06
 BYTE   N03  Dn4
 BYTE   N03  Gn4
 BYTE   W06
 BYTE   N30  Ds4
 BYTE   N30  Gs4
 BYTE   W30
 BYTE   N03  Dn4
 BYTE   N03  Gn4
 BYTE   W06
 BYTE   Ds4
 BYTE   N03  Gs4
 BYTE   W06
 BYTE   Fn4
 BYTE   N03  As4
 BYTE   W06
 BYTE   N09  Cn5
 BYTE   N12  Gn4
 BYTE   W12
 BYTE   N03  Cn5
 BYTE   N06  Gn4
 BYTE   W06
 BYTE   N03  As4
 BYTE   N06  Fn4
 BYTE   W12
// 037   ----------------------------------------
 BYTE   N18  Ds4
 BYTE   N18  Gs4
 BYTE   W18
 BYTE   N96  Dn4
 BYTE   N96  Gn4
 BYTE   W04
 BYTE   Dn4
 BYTE   N96  Gn4
 BYTE   W04
 BYTE   Dn4
 BYTE   N96  Gn4
 BYTE   W04
 BYTE   N48  Dn4
 BYTE   N48  Gn4
 BYTE   W96
// 038   ----------------------------------------
 BYTE   W96
// 039   ----------------------------------------
 BYTE   W96
// 040   ----------------------------------------
 BYTE   W96
// 041   ----------------------------------------
 BYTE   W96
// 042   ----------------------------------------
 BYTE   W96
// 043   ----------------------------------------
 BYTE   W96
// 044   ----------------------------------------
 BYTE   W68
 BYTE   W01
 BYTE   N03  En4
 BYTE   N03  An3
 BYTE   W03
 BYTE   Fn4
 BYTE   N03  As3
 BYTE   W03
 BYTE   Fs4
 BYTE   N03  Bn3
 BYTE   W03
 BYTE   Gn4
 BYTE   N03  Cn4
 BYTE   W03
 BYTE   N92  An4
 BYTE   N92  Dn4
 BYTE   W04
 BYTE   N01  An4
 BYTE   N01  Dn4
 BYTE   W90
// 045   ----------------------------------------
 BYTE   W01
 BYTE   N92  Gs4
 BYTE   N92  Cs4
 BYTE   W04
 BYTE   N01  Gs4
 BYTE   N01  Cs4
 BYTE   W90
 BYTE   W01
// 046   ----------------------------------------
 BYTE   N92  Gn4
 BYTE   N92  Cn4
 BYTE   W04
 BYTE   N01  Gn4
 BYTE   N01  Cn4
 BYTE   W90
 BYTE   W01
 BYTE   N18  Fs4
 BYTE   N18  Bn3
 BYTE   W18
// 047   ----------------------------------------
 BYTE   Fn4
 BYTE   N18  As3
 BYTE   W18
 BYTE   En4
 BYTE   N18  An3
 BYTE   W18
 BYTE   Ds4
 BYTE   N18  Gs3
 BYTE   W18
 BYTE   N12  Dn4
 BYTE   N12  Gn3
 BYTE   W12
 BYTE   PAN   c_v+10
 BYTE   N09  Cs4  v100
 BYTE   N09  Fs3
 BYTE   W06
 BYTE   GoTo
  POIN2 Label_2_0164A488
 BYTE   FINE

//**************** Track 4 (Midi-Chn.3) ****************//

KirbyandtheAmazingMirrorBossThemeMeatOfJustice_004:
// 000   ----------------------------------------
Label_3_0164A838:
 BYTE   TEMPO   154*KirbyandtheAmazingMirrorBossThemeMeatOfJustice_tbs/2
 BYTE   KEYSH   KirbyandtheAmazingMirrorBossThemeMeatOfJustice_key+0
 BYTE   VOL   90*KirbyandtheAmazingMirrorBossThemeMeatOfJustice_mvl/mxv
 BYTE   PAN   c_v+0
 BYTE   VOICE   45
 BYTE   W96
// 001   ----------------------------------------
 BYTE   W96
// 002   ----------------------------------------
 BYTE   W96
// 003   ----------------------------------------
 BYTE   W96
// 004   ----------------------------------------
 BYTE   W96
// 005   ----------------------------------------
 BYTE   W96
// 006   ----------------------------------------
Label_3_0164A848:
 BYTE   PAN   c_v+20
 BYTE   N03  Gn3  v106
 BYTE   W06
 BYTE   N03  Cn4  v102
 BYTE   W06
 BYTE   N03  Gn4  v100
 BYTE   W06
 BYTE   PEND 
Label_3_0164A857:
 BYTE   PAN   c_v-20
 BYTE   N03  Gn3  v096
 BYTE   W06
 BYTE   N03  Cn4  v093
 BYTE   W06
 BYTE   N03  Gn4  v089
 BYTE   W06
 BYTE   PEND 
Label_3_0164A866:
 BYTE   PAN   c_v+20
 BYTE   N03  Gn3  v086
 BYTE   W06
 BYTE   N03  Cn4  v082
 BYTE   W06
 BYTE   N03  Gn4  v080
 BYTE   W06
 BYTE   PEND 
Label_3_0164A875:
 BYTE   PAN   c_v-20
 BYTE   N03  Gn3  v076
 BYTE   W06
 BYTE   N03  Cn4  v073
 BYTE   W06
 BYTE   N03  Gn4  v069
 BYTE   W06
 BYTE   PEND 
Label_3_0164A884:
 BYTE   PAN   c_v+20
 BYTE   N03  Gn3  v104
 BYTE   W06
 BYTE   N03  Cn4  v100
 BYTE   W06
 BYTE   PEND 
Label_3_0164A88F:
 BYTE   PAN   c_v-20
 BYTE   N03  Gn4  v098
 BYTE   W06
 BYTE   N03  Gn3  v094
 BYTE   W06
 BYTE   PEND 
// 007   ----------------------------------------
Label_3_0164A89A:
 BYTE   PAN   c_v+20
 BYTE   N03  Gs3  v091
 BYTE   W06
 BYTE   N03  Cs4  v087
 BYTE   W06
 BYTE   N03  Gs4  v084
 BYTE   W06
 BYTE   PEND 
Label_3_0164A8A9:
 BYTE   PAN   c_v-20
 BYTE   N03  Gs3  v080
 BYTE   W06
 BYTE   N03  Cs4  v077
 BYTE   W06
 BYTE   N03  Gs4  v073
 BYTE   W06
 BYTE   PEND 
Label_3_0164A8B8:
 BYTE   PAN   c_v+20
 BYTE   N03  Gs3  v070
 BYTE   W06
 BYTE   N03  Cs4  v066
 BYTE   W06
 BYTE   N03  Gs4  v064
 BYTE   W06
 BYTE   PEND 
Label_3_0164A8C7:
 BYTE   PAN   c_v-20
 BYTE   N03  Gs3  v060
 BYTE   W06
 BYTE   N03  Cs4  v057
 BYTE   W06
 BYTE   N03  Gs4  v053
 BYTE   W06
 BYTE   PEND 
Label_3_0164A8D6:
 BYTE   PAN   c_v+20
 BYTE   N03  Gs3  v103
 BYTE   W06
 BYTE   N03  Cs4  v101
 BYTE   W06
 BYTE   PEND 
Label_3_0164A8E1:
 BYTE   PAN   c_v-20
 BYTE   N03  Gs4  v098
 BYTE   W06
 BYTE   N03  Gs3  v096
 BYTE   W06
 BYTE   PEND 
// 008   ----------------------------------------
Label_3_0164A8EC:
 BYTE   PAN   c_v+20
 BYTE   N03  Gn3  v093
 BYTE   W06
 BYTE   N03  Cn4  v091
 BYTE   W06
 BYTE   N03  Gn4  v088
 BYTE   W06
 BYTE   PEND 
Label_3_0164A8FB:
 BYTE   PAN   c_v-20
 BYTE   N03  Gn3  v085
 BYTE   W06
 BYTE   N03  Cn4  v082
 BYTE   W06
 BYTE   N03  Gn4  v080
 BYTE   W06
 BYTE   PEND 
Label_3_0164A90A:
 BYTE   PAN   c_v+20
 BYTE   N03  Gn3  v077
 BYTE   W06
 BYTE   N03  Cn4  v075
 BYTE   W06
 BYTE   N03  Gn4  v072
 BYTE   W06
 BYTE   PEND 
Label_3_0164A919:
 BYTE   PAN   c_v-20
 BYTE   N03  Gn3  v069
 BYTE   W06
 BYTE   N03  Cn4  v066
 BYTE   W06
 BYTE   N03  Gn4  v064
 BYTE   W06
 BYTE   PEND 
Label_3_0164A928:
 BYTE   PAN   c_v+20
 BYTE   N03  Gn3  v092
 BYTE   W06
 BYTE   N03  Cn4  v089
 BYTE   W06
 BYTE   PEND 
Label_3_0164A933:
 BYTE   PAN   c_v-20
 BYTE   N03  Gn4  v086
 BYTE   W06
 BYTE   N03  Gn3  v083
 BYTE   W06
 BYTE   PEND 
// 009   ----------------------------------------
Label_3_0164A93E:
 BYTE   PAN   c_v+20
 BYTE   N03  Gs3  v080
 BYTE   W06
 BYTE   N03  Cs4  v077
 BYTE   W06
 BYTE   N03  Gs4  v074
 BYTE   W06
 BYTE   PEND 
Label_3_0164A94D:
 BYTE   PAN   c_v-20
 BYTE   N03  Gs3  v070
 BYTE   W06
 BYTE   N03  Cs4  v068
 BYTE   W06
 BYTE   N03  Gs4  v064
 BYTE   W06
 BYTE   PEND 
Label_3_0164A95C:
 BYTE   PAN   c_v+20
 BYTE   N03  Gs3  v062
 BYTE   W06
 BYTE   N03  Cs4  v058
 BYTE   W06
 BYTE   N03  Gs4  v056
 BYTE   W06
 BYTE   PEND 
Label_3_0164A96B:
 BYTE   PAN   c_v-20
 BYTE   N03  Gs3  v052
 BYTE   W06
 BYTE   N03  Cs4  v050
 BYTE   W06
 BYTE   N03  Gs4  v046
 BYTE   W06
 BYTE   PEND 
Label_3_0164A97A:
 BYTE   PAN   c_v+20
 BYTE   N03  Gs3  v092
 BYTE   W06
 BYTE   N03  Cs4  v088
 BYTE   W06
 BYTE   PEND 
 BYTE   PAN   c_v-20
 BYTE   N03  Gs4  v082
 BYTE   W06
 BYTE   N03  Gs3  v078
 BYTE   W96
// 010   ----------------------------------------
 BYTE   W96
// 011   ----------------------------------------
 BYTE   W96
// 012   ----------------------------------------
 BYTE   W96
// 013   ----------------------------------------
 BYTE   W96
// 014   ----------------------------------------
 BYTE   W96
// 015   ----------------------------------------
 BYTE   W96
// 016   ----------------------------------------
 BYTE   W96
// 017   ----------------------------------------
 BYTE   W96
// 018   ----------------------------------------
 BYTE   W96
// 019   ----------------------------------------
 BYTE   W96
// 020   ----------------------------------------
 BYTE   W96
// 021   ----------------------------------------
 BYTE   W96
// 022   ----------------------------------------
 BYTE   W96
// 023   ----------------------------------------
 BYTE   W96
// 024   ----------------------------------------
 BYTE   W96
// 025   ----------------------------------------
 BYTE   W96
// 026   ----------------------------------------
 BYTE   W96
// 027   ----------------------------------------
 BYTE   W96
// 028   ----------------------------------------
 BYTE   W96
// 029   ----------------------------------------
 BYTE   W96
// 030   ----------------------------------------
 BYTE   W96
// 031   ----------------------------------------
 BYTE   W06
 BYTE   PATT
  POIN2 Label_3_0164A848
 BYTE   PATT
  POIN2 Label_3_0164A857
 BYTE   PATT
  POIN2 Label_3_0164A866
 BYTE   PATT
  POIN2 Label_3_0164A875
 BYTE   PATT
  POIN2 Label_3_0164A884
 BYTE   PATT
  POIN2 Label_3_0164A88F
 BYTE   PATT
  POIN2 Label_3_0164A89A
 BYTE   PATT
  POIN2 Label_3_0164A8A9
 BYTE   PATT
  POIN2 Label_3_0164A8B8
 BYTE   PATT
  POIN2 Label_3_0164A8C7
 BYTE   PATT
  POIN2 Label_3_0164A8D6
 BYTE   PATT
  POIN2 Label_3_0164A8E1
 BYTE   PATT
  POIN2 Label_3_0164A8EC
 BYTE   PATT
  POIN2 Label_3_0164A8FB
 BYTE   PATT
  POIN2 Label_3_0164A90A
 BYTE   PATT
  POIN2 Label_3_0164A919
 BYTE   PATT
  POIN2 Label_3_0164A928
 BYTE   PATT
  POIN2 Label_3_0164A933
 BYTE   PATT
  POIN2 Label_3_0164A93E
 BYTE   PATT
  POIN2 Label_3_0164A94D
 BYTE   PATT
  POIN2 Label_3_0164A95C
 BYTE   PATT
  POIN2 Label_3_0164A96B
 BYTE   PATT
  POIN2 Label_3_0164A97A
// 032   ----------------------------------------
 BYTE   PAN   c_v-20
 BYTE   N03  Gs4  v082
 BYTE   W06
 BYTE   Gs3  v078
 BYTE   W96
// 033   ----------------------------------------
 BYTE   W96
// 034   ----------------------------------------
 BYTE   W96
// 035   ----------------------------------------
 BYTE   W96
// 036   ----------------------------------------
 BYTE   W96
// 037   ----------------------------------------
 BYTE   W96
// 038   ----------------------------------------
 BYTE   W96
// 039   ----------------------------------------
 BYTE   W96
// 040   ----------------------------------------
 BYTE   W96
// 041   ----------------------------------------
 BYTE   W96
// 042   ----------------------------------------
 BYTE   W96
// 043   ----------------------------------------
 BYTE   W96
// 044   ----------------------------------------
 BYTE   W96
// 045   ----------------------------------------
 BYTE   W96
// 046   ----------------------------------------
 BYTE   W96
// 047   ----------------------------------------
 BYTE   W96
// 048   ----------------------------------------
 BYTE   W96
// 049   ----------------------------------------
 BYTE   W96
// 050   ----------------------------------------
 BYTE   GoTo
  POIN2 Label_3_0164A838
 BYTE   FINE

//******************************************************//
	ALIGN 4

KirbyandtheAmazingMirrorBossThemeMeatOfJustice:
	BYTE	4	// NumTrks
	BYTE	0	// NumBlks
	BYTE	KirbyandtheAmazingMirrorBossThemeMeatOfJustice_pri	// Priority
	BYTE	KirbyandtheAmazingMirrorBossThemeMeatOfJustice_rev	// Reverb.
    
	POIN2	KirbyandtheAmazingMirrorBossThemeMeatOfJustice_grp
    
	POIN2	KirbyandtheAmazingMirrorBossThemeMeatOfJustice_001
	POIN2	KirbyandtheAmazingMirrorBossThemeMeatOfJustice_002
	POIN2	KirbyandtheAmazingMirrorBossThemeMeatOfJustice_003
	POIN2	KirbyandtheAmazingMirrorBossThemeMeatOfJustice_004

	
