//Event file generated from Sappy .s format.
	#include "MPlayDef.event"

	#define	KirbysDreamLand3RippleField1Psyche_grp  voicegroup000
	#define	KirbysDreamLand3RippleField1Psyche_pri  0
	#define	KirbysDreamLand3RippleField1Psyche_rev  148
	#define	KirbysDreamLand3RippleField1Psyche_mvl  127
	#define	KirbysDreamLand3RippleField1Psyche_key  0
	#define	KirbysDreamLand3RippleField1Psyche_tbs  1
	#define	KirbysDreamLand3RippleField1Psyche_exg  0
	#define	KirbysDreamLand3RippleField1Psyche_cmp  1

	// .rodata
	//	KirbysDreamLand3RippleField1Psyche
	ALIGN 4


//**************** Track 1 (Midi-Chn.0) ****************//

KirbysDreamLand3RippleField1Psyche_001:
//  #01 //000   ----------------------------------------
 BYTE   KEYSH   KirbysDreamLand3RippleField1Psyche_key+0
 BYTE   TEMPO   152*KirbysDreamLand3RippleField1Psyche_tbs/2
 BYTE   VOICE   76
 BYTE   VOL   48*KirbysDreamLand3RippleField1Psyche_mvl/mxv
 BYTE   PAN   c_v+0
 BYTE   W96
//  #01 //001   ----------------------------------------
Label_01054107:
 BYTE   N18  Gn4  v127
 BYTE   W96
//  #01 //002   ----------------------------------------
 BYTE   W36
 BYTE   N06  En4
 BYTE   W06
 BYTE   Fn4
 BYTE   W06
 BYTE   N15  Gn4
 BYTE   W18
 BYTE   N18  Cn5
 BYTE   W18
 BYTE   N12  Gn4
 BYTE   W12
//  #01 //003   ----------------------------------------
 BYTE   N18
 BYTE   W96
//  #01 //004   ----------------------------------------
 BYTE   Dn4
 BYTE   W96
//  #01 //005   ----------------------------------------
 BYTE   Gn4
 BYTE   W17
 BYTE   PAN   c_v-28
 BYTE   W01
 BYTE   N18  Gn4  v080
 BYTE   W17
 BYTE   PAN   c_v+26
 BYTE   W01
 BYTE   N18  Gn4  v068
 BYTE   W17
 BYTE   PAN   c_v-40
 BYTE   W01
 BYTE   N18  Gn4  v056
 BYTE   W17
 BYTE   PAN   c_v+41
 BYTE   W01
 BYTE   N18  Gn4  v048
 BYTE   W17
 BYTE   PAN   c_v-51
 BYTE   W01
 BYTE   N18  Gn4  v044
 BYTE   W06
//  #01 //006   ----------------------------------------
 BYTE   W11
 BYTE   PAN   c_v+48
 BYTE   W01
 BYTE   N18  Gn4  v040
 BYTE   W17
 BYTE   PAN   c_v-59
 BYTE   W01
 BYTE   N06  Gn4  v036
 BYTE   W05
 BYTE   PAN   c_v+0
 BYTE   W01
 BYTE   N06  En4  v127
 BYTE   W06
 BYTE   Fn4
 BYTE   W06
 BYTE   N18  Gn4
 BYTE   W18
 BYTE   Cn5
 BYTE   W18
 BYTE   N12  Gn4
 BYTE   W12
//  #01 //007   ----------------------------------------
 BYTE   N18  Dn5
 BYTE   W17
 BYTE   PAN   c_v-28
 BYTE   W01
 BYTE   N18  Dn5  v080
 BYTE   W17
 BYTE   PAN   c_v+26
 BYTE   W01
 BYTE   N18  Dn5  v068
 BYTE   W17
 BYTE   PAN   c_v-40
 BYTE   W01
 BYTE   N18  Dn5  v056
 BYTE   W17
 BYTE   PAN   c_v+41
 BYTE   W01
 BYTE   N18  Dn5  v048
 BYTE   W17
 BYTE   PAN   c_v-51
 BYTE   W01
 BYTE   N05  Dn5  v044
 BYTE   W05
 BYTE   VOICE   8
 BYTE   PAN   c_v-35
 BYTE   W01
//  #01 //008   ----------------------------------------
 BYTE   N18  Fs5  v127
 BYTE   W17
 BYTE   PAN   c_v+26
 BYTE   W01
 BYTE   N18  Fs5  v080
 BYTE   W17
 BYTE   PAN   c_v-40
 BYTE   W01
 BYTE   N18  Fs5  v068
 BYTE   W17
 BYTE   PAN   c_v+41
 BYTE   W01
 BYTE   N18  Fs5  v056
 BYTE   W17
 BYTE   PAN   c_v-57
 BYTE   W01
 BYTE   N18  Fs5  v048
 BYTE   W17
 BYTE   PAN   c_v+53
 BYTE   W01
 BYTE   N06  Fs5  v044
 BYTE   W06
//  #01 //009   ----------------------------------------
 BYTE   W96
//  #01 //010   ----------------------------------------
 BYTE   W96
//  #01 //011   ----------------------------------------
 BYTE   W96
//  #01 //012   ----------------------------------------
 BYTE   W96
//  #01 //013   ----------------------------------------
 BYTE   W96
//  #01 //014   ----------------------------------------
 BYTE   W96
//  #01 //015   ----------------------------------------
 BYTE   W96
//  #01 //016   ----------------------------------------
 BYTE   W96
//  #01 //017   ----------------------------------------
 BYTE   W96
//  #01 //018   ----------------------------------------
 BYTE   W96
//  #01 //019   ----------------------------------------
 BYTE   W96
//  #01 //020   ----------------------------------------
 BYTE   W96
//  #01 //021   ----------------------------------------
 BYTE   W96
//  #01 //022   ----------------------------------------
 BYTE   W96
//  #01 //023   ----------------------------------------
 BYTE   W96
//  #01 //024   ----------------------------------------
 BYTE   W96
//  #01 //025   ----------------------------------------
 BYTE   W96
//  #01 //026   ----------------------------------------
 BYTE   W96
//  #01 //027   ----------------------------------------
 BYTE   W96
//  #01 //028   ----------------------------------------
 BYTE   W96
//  #01 //029   ----------------------------------------
 BYTE   W96
//  #01 //030   ----------------------------------------
 BYTE   W96
//  #01 //031   ----------------------------------------
 BYTE   W96
//  #01 //032   ----------------------------------------
 BYTE   W96
//  #01 //033   ----------------------------------------
 BYTE   W96
//  #01 //034   ----------------------------------------
 BYTE   W96
//  #01 //035   ----------------------------------------
 BYTE   W96
//  #01 //036   ----------------------------------------
 BYTE   W96
//  #01 //037   ----------------------------------------
 BYTE   W96
//  #01 //038   ----------------------------------------
 BYTE   W96
//  #01 //039   ----------------------------------------
 BYTE   W96
//  #01 //040   ----------------------------------------
 BYTE   W96
//  #01 //041   ----------------------------------------
 BYTE   W96
//  #01 //042   ----------------------------------------
 BYTE   W96
//  #01 //043   ----------------------------------------
 BYTE   W96
//  #01 //044   ----------------------------------------
 BYTE   W96
//  #01 //045   ----------------------------------------
 BYTE   W96
//  #01 //046   ----------------------------------------
 BYTE   W96
//  #01 //047   ----------------------------------------
 BYTE   W96
//  #01 //048   ----------------------------------------
 BYTE   W96
//  #01 //049   ----------------------------------------
 BYTE   W96
//  #01 //050   ----------------------------------------
 BYTE   W96
//  #01 //051   ----------------------------------------
 BYTE   W96
//  #01 //052   ----------------------------------------
 BYTE   VOICE   76
 BYTE   PAN   c_v+0
 BYTE   W96
//  #01 //053   ----------------------------------------
 BYTE   GoTo
  POIN2 Label_01054107
 BYTE   FINE

//**************** Track 2 (Midi-Chn.1) ****************//

KirbysDreamLand3RippleField1Psyche_002:
//  #02 //000   ----------------------------------------
 BYTE   KEYSH   KirbysDreamLand3RippleField1Psyche_key+0
 BYTE   VOICE   76
 BYTE   VOL   20*KirbysDreamLand3RippleField1Psyche_mvl/mxv
 BYTE   PAN   c_v+16
 BYTE   BEND   c_v-3
 BYTE   W96
//  #02 //001   ----------------------------------------
Label_01054217:
 BYTE   W18
 BYTE   N18  Gn4  v127
 BYTE   W78
//  #02 //002   ----------------------------------------
 BYTE   W54
 BYTE   N06  En4
 BYTE   W06
 BYTE   Fn4
 BYTE   W06
 BYTE   N15  Gn4
 BYTE   W18
 BYTE   N18  Cn5
 BYTE   W12
//  #02 //003   ----------------------------------------
 BYTE   W06
 BYTE   N12  Gn4
 BYTE   W12
 BYTE   N18
 BYTE   W78
//  #02 //004   ----------------------------------------
 BYTE   W18
 BYTE   Dn4
 BYTE   W78
//  #02 //005   ----------------------------------------
 BYTE   W18
 BYTE   Gn4
 BYTE   W17
 BYTE   PAN   c_v-28
 BYTE   W01
 BYTE   N18  Gn4  v080
 BYTE   W17
 BYTE   PAN   c_v+26
 BYTE   W01
 BYTE   N18  Gn4  v068
 BYTE   W17
 BYTE   PAN   c_v-40
 BYTE   W01
 BYTE   N18  Gn4  v056
 BYTE   W17
 BYTE   PAN   c_v+41
 BYTE   W01
 BYTE   N18  Gn4  v048
 BYTE   W06
//  #02 //006   ----------------------------------------
 BYTE   W11
 BYTE   PAN   c_v-51
 BYTE   W01
 BYTE   N18  Gn4  v044
 BYTE   W17
 BYTE   PAN   c_v+48
 BYTE   W01
 BYTE   N18  Gn4  v040
 BYTE   W17
 BYTE   PAN   c_v-59
 BYTE   W01
 BYTE   N06  Gn4  v036
 BYTE   W05
 BYTE   PAN   c_v+16
 BYTE   W01
 BYTE   N06  En4  v127
 BYTE   W06
 BYTE   Fn4
 BYTE   W06
 BYTE   N18  Gn4
 BYTE   W18
 BYTE   Cn5
 BYTE   W12
//  #02 //007   ----------------------------------------
 BYTE   W06
 BYTE   N12  Gn4
 BYTE   W12
 BYTE   N18  Dn5
 BYTE   W17
 BYTE   PAN   c_v-28
 BYTE   W01
 BYTE   N18  Dn5  v080
 BYTE   W17
 BYTE   PAN   c_v+26
 BYTE   W01
 BYTE   N18  Dn5  v068
 BYTE   W17
 BYTE   PAN   c_v-40
 BYTE   W01
 BYTE   N18  Dn5  v056
 BYTE   W17
 BYTE   PAN   c_v+41
 BYTE   W01
 BYTE   N18  Dn5  v048
 BYTE   W06
//  #02 //008   ----------------------------------------
 BYTE   W11
 BYTE   PAN   c_v-51
 BYTE   W01
 BYTE   N05  Dn5  v044
 BYTE   W05
 BYTE   VOICE   8
 BYTE   PAN   c_v-35
 BYTE   W01
 BYTE   N18  Fs5  v127
 BYTE   W17
 BYTE   PAN   c_v+26
 BYTE   W01
 BYTE   N18  Fs5  v080
 BYTE   W17
 BYTE   PAN   c_v-40
 BYTE   W01
 BYTE   N18  Fs5  v068
 BYTE   W17
 BYTE   PAN   c_v+41
 BYTE   W01
 BYTE   N18  Fs5  v056
 BYTE   W17
 BYTE   PAN   c_v-57
 BYTE   W01
 BYTE   N18  Fs5  v048
 BYTE   W06
//  #02 //009   ----------------------------------------
 BYTE   W11
 BYTE   PAN   c_v+53
 BYTE   W01
 BYTE   N06  Fs5  v044
 BYTE   W84
//  #02 //010   ----------------------------------------
 BYTE   W96
//  #02 //011   ----------------------------------------
 BYTE   W96
//  #02 //012   ----------------------------------------
 BYTE   W96
//  #02 //013   ----------------------------------------
 BYTE   W96
//  #02 //014   ----------------------------------------
 BYTE   W96
//  #02 //015   ----------------------------------------
 BYTE   W96
//  #02 //016   ----------------------------------------
 BYTE   W96
//  #02 //017   ----------------------------------------
 BYTE   W96
//  #02 //018   ----------------------------------------
 BYTE   W96
//  #02 //019   ----------------------------------------
 BYTE   W96
//  #02 //020   ----------------------------------------
 BYTE   W96
//  #02 //021   ----------------------------------------
 BYTE   W96
//  #02 //022   ----------------------------------------
 BYTE   W96
//  #02 //023   ----------------------------------------
 BYTE   W96
//  #02 //024   ----------------------------------------
 BYTE   W96
//  #02 //025   ----------------------------------------
 BYTE   W96
//  #02 //026   ----------------------------------------
 BYTE   W96
//  #02 //027   ----------------------------------------
 BYTE   W96
//  #02 //028   ----------------------------------------
 BYTE   W96
//  #02 //029   ----------------------------------------
 BYTE   W96
//  #02 //030   ----------------------------------------
 BYTE   W96
//  #02 //031   ----------------------------------------
 BYTE   W96
//  #02 //032   ----------------------------------------
 BYTE   W96
//  #02 //033   ----------------------------------------
 BYTE   W96
//  #02 //034   ----------------------------------------
 BYTE   W96
//  #02 //035   ----------------------------------------
 BYTE   W96
//  #02 //036   ----------------------------------------
 BYTE   W96
//  #02 //037   ----------------------------------------
 BYTE   W96
//  #02 //038   ----------------------------------------
 BYTE   W96
//  #02 //039   ----------------------------------------
 BYTE   W96
//  #02 //040   ----------------------------------------
 BYTE   W96
//  #02 //041   ----------------------------------------
 BYTE   W96
//  #02 //042   ----------------------------------------
 BYTE   W96
//  #02 //043   ----------------------------------------
 BYTE   W96
//  #02 //044   ----------------------------------------
 BYTE   W96
//  #02 //045   ----------------------------------------
 BYTE   W96
//  #02 //046   ----------------------------------------
 BYTE   W96
//  #02 //047   ----------------------------------------
 BYTE   W96
//  #02 //048   ----------------------------------------
 BYTE   W96
//  #02 //049   ----------------------------------------
 BYTE   W96
//  #02 //050   ----------------------------------------
 BYTE   W96
//  #02 //051   ----------------------------------------
 BYTE   W96
//  #02 //052   ----------------------------------------
 BYTE   W12
 BYTE   VOICE   76
 BYTE   PAN   c_v+16
 BYTE   W84
//  #02 //053   ----------------------------------------
 BYTE   GoTo
  POIN2 Label_01054217
 BYTE   FINE

//**************** Track 3 (Midi-Chn.2) ****************//

KirbysDreamLand3RippleField1Psyche_003:
//  #03 //000   ----------------------------------------
 BYTE   KEYSH   KirbysDreamLand3RippleField1Psyche_key+0
 BYTE   VOICE   50
 BYTE   PAN   c_v+0
 BYTE   VOL   32*KirbysDreamLand3RippleField1Psyche_mvl/mxv
 BYTE   W96
//  #03 //001   ----------------------------------------
Label_01053941:
 BYTE   N15  Fn1  v127
 BYTE   W18
 BYTE   Cn2
 BYTE   W18
 BYTE   Fn1
 BYTE   W24
 BYTE   N06
 BYTE   W12
 BYTE   N12  Cn2
 BYTE   W12
 BYTE   N09  Fn1
 BYTE   W12
 BYTE   PEND 
//  #03 //002   ----------------------------------------
Label_01053952:
 BYTE   N15  Fn1  v127
 BYTE   W18
 BYTE   Cn2
 BYTE   W18
 BYTE   Fn1
 BYTE   W24
 BYTE   N06
 BYTE   W12
 BYTE   Fn2
 BYTE   W06
 BYTE   Cn2
 BYTE   W06
 BYTE   N09  Fn1
 BYTE   W12
 BYTE   PEND 
//  #03 //003   ----------------------------------------
Label_01053964:
 BYTE   N15  En1  v127
 BYTE   W18
 BYTE   Bn1
 BYTE   W18
 BYTE   En1
 BYTE   W24
 BYTE   N06
 BYTE   W12
 BYTE   N12  En2
 BYTE   W12
 BYTE   N09  En1
 BYTE   W12
 BYTE   PEND 
//  #03 //004   ----------------------------------------
Label_01053975:
 BYTE   N15  En1  v127
 BYTE   W18
 BYTE   Bn1
 BYTE   W18
 BYTE   En1
 BYTE   W24
 BYTE   N06
 BYTE   W12
 BYTE   En2
 BYTE   W06
 BYTE   Bn1
 BYTE   W06
 BYTE   N09  En1
 BYTE   W12
 BYTE   PEND 
//  #03 //005   ----------------------------------------
 BYTE   PATT
  POIN2 Label_01053941
//  #03 //006   ----------------------------------------
 BYTE   PATT
  POIN2 Label_01053952
//  #03 //007   ----------------------------------------
 BYTE   PATT
  POIN2 Label_01053975
//  #03 //008   ----------------------------------------
 BYTE   PATT
  POIN2 Label_01053975
//  #03 //009   ----------------------------------------
Label_0105399B:
 BYTE   N15  Dn1  v127
 BYTE   W18
 BYTE   An1
 BYTE   W18
 BYTE   Dn1
 BYTE   W24
 BYTE   N06
 BYTE   W12
 BYTE   N12  An1
 BYTE   W12
 BYTE   N09  Dn1
 BYTE   W12
 BYTE   PEND 
//  #03 //010   ----------------------------------------
Label_010539AC:
 BYTE   N15  Gn1  v127
 BYTE   W18
 BYTE   Gn2
 BYTE   W18
 BYTE   Gn1
 BYTE   W24
 BYTE   N06
 BYTE   W12
 BYTE   Gn2
 BYTE   W06
 BYTE   Dn2
 BYTE   W06
 BYTE   N09  Gn1
 BYTE   W12
 BYTE   PEND 
//  #03 //011   ----------------------------------------
Label_010539BE:
 BYTE   N15  Cn1  v127
 BYTE   W18
 BYTE   Gn1
 BYTE   W18
 BYTE   N12  Cn1
 BYTE   W12
 BYTE   N06
 BYTE   W18
 BYTE   N04
 BYTE   W06
 BYTE   N12  Cn2
 BYTE   W12
 BYTE   Cn1
 BYTE   W12
 BYTE   PEND 
//  #03 //012   ----------------------------------------
Label_010539D1:
 BYTE   N15  Cn1  v127
 BYTE   W18
 BYTE   Gn1
 BYTE   W18
 BYTE   N12  Cn1
 BYTE   W12
 BYTE   N06
 BYTE   W18
 BYTE   N04
 BYTE   W06
 BYTE   Cn2
 BYTE   W06
 BYTE   Gn1
 BYTE   W06
 BYTE   N12  Cn1
 BYTE   W12
 BYTE   PEND 
//  #03 //013   ----------------------------------------
Label_010539E6:
 BYTE   N15  Gs0  v127
 BYTE   W18
 BYTE   Gs1
 BYTE   W18
 BYTE   Gs0
 BYTE   W24
 BYTE   N06
 BYTE   W12
 BYTE   N12  Gs1
 BYTE   W12
 BYTE   N09  Gs0
 BYTE   W12
 BYTE   PEND 
//  #03 //014   ----------------------------------------
 BYTE   N15
 BYTE   W18
 BYTE   Gs1
 BYTE   W18
 BYTE   Gs0
 BYTE   W24
 BYTE   N06
 BYTE   W12
 BYTE   Gs1
 BYTE   W06
 BYTE   Gs0
 BYTE   W06
 BYTE   N09  Gs1
 BYTE   W12
//  #03 //015   ----------------------------------------
 BYTE   N15  Dn1
 BYTE   W18
 BYTE   Dn2
 BYTE   W18
 BYTE   Dn1
 BYTE   W24
 BYTE   N06
 BYTE   W12
 BYTE   N12  Dn2
 BYTE   W12
 BYTE   N09  Dn1
 BYTE   W12
//  #03 //016   ----------------------------------------
 BYTE   PATT
  POIN2 Label_010539AC
//  #03 //017   ----------------------------------------
 BYTE   PATT
  POIN2 Label_01053941
//  #03 //018   ----------------------------------------
 BYTE   PATT
  POIN2 Label_01053952
//  #03 //019   ----------------------------------------
 BYTE   PATT
  POIN2 Label_01053964
//  #03 //020   ----------------------------------------
 BYTE   PATT
  POIN2 Label_01053975
//  #03 //021   ----------------------------------------
 BYTE   PATT
  POIN2 Label_01053941
//  #03 //022   ----------------------------------------
 BYTE   PATT
  POIN2 Label_01053952
//  #03 //023   ----------------------------------------
 BYTE   PATT
  POIN2 Label_01053975
//  #03 //024   ----------------------------------------
 BYTE   PATT
  POIN2 Label_01053975
//  #03 //025   ----------------------------------------
 BYTE   PATT
  POIN2 Label_0105399B
//  #03 //026   ----------------------------------------
 BYTE   PATT
  POIN2 Label_010539AC
//  #03 //027   ----------------------------------------
 BYTE   PATT
  POIN2 Label_010539BE
//  #03 //028   ----------------------------------------
 BYTE   PATT
  POIN2 Label_010539D1
//  #03 //029   ----------------------------------------
 BYTE   PATT
  POIN2 Label_010539E6
//  #03 //030   ----------------------------------------
 BYTE   N15  Dn1  v127
 BYTE   W18
 BYTE   N04  Dn2
 BYTE   W06
 BYTE   Dn1
 BYTE   W06
 BYTE   Dn2
 BYTE   W06
 BYTE   N09  Dn1
 BYTE   W12
 BYTE   N15  Gn0
 BYTE   W18
 BYTE   N04  Gn1
 BYTE   W06
 BYTE   Gn0
 BYTE   W06
 BYTE   Gn1
 BYTE   W06
 BYTE   N09  Gn0
 BYTE   W12
//  #03 //031   ----------------------------------------
 BYTE   N15  Gs0
 BYTE   W18
 BYTE   Gs1
 BYTE   W18
 BYTE   Gs0
 BYTE   W24
 BYTE   N06  As0
 BYTE   W12
 BYTE   N12  As1
 BYTE   W12
 BYTE   N09  As0
 BYTE   W12
//  #03 //032   ----------------------------------------
 BYTE   N15  Cn1
 BYTE   W18
 BYTE   Cn2
 BYTE   W18
 BYTE   Cn1
 BYTE   W24
 BYTE   N06
 BYTE   W12
 BYTE   N04  Cn2
 BYTE   W06
 BYTE   Gn1
 BYTE   W06
 BYTE   Cn1
 BYTE   W06
 BYTE   Cn2
 BYTE   W06
//  #03 //033   ----------------------------------------
 BYTE   PATT
  POIN2 Label_01053941
//  #03 //034   ----------------------------------------
 BYTE   N15  As1  v127
 BYTE   W18
 BYTE   As2
 BYTE   W18
 BYTE   As1
 BYTE   W24
 BYTE   N06
 BYTE   W12
 BYTE   As2
 BYTE   W06
 BYTE   Fn2
 BYTE   W06
 BYTE   N09  As1
 BYTE   W12
//  #03 //035   ----------------------------------------
 BYTE   N15  En1
 BYTE   W18
 BYTE   Bn1
 BYTE   W18
 BYTE   En1
 BYTE   W24
 BYTE   N06
 BYTE   W12
 BYTE   N12  Bn1
 BYTE   W12
 BYTE   N09  En1
 BYTE   W12
//  #03 //036   ----------------------------------------
Label_01053ABD:
 BYTE   N15  An1  v127
 BYTE   W18
 BYTE   An2
 BYTE   W18
 BYTE   An1
 BYTE   W24
 BYTE   N06
 BYTE   W12
 BYTE   Gn2
 BYTE   W06
 BYTE   Dn2
 BYTE   W06
 BYTE   N09  Gn1
 BYTE   W12
 BYTE   PEND 
//  #03 //037   ----------------------------------------
 BYTE   N15  Fn1
 BYTE   W18
 BYTE   Fn2
 BYTE   W18
 BYTE   Fn1
 BYTE   W24
 BYTE   N06
 BYTE   W12
 BYTE   N12  Fn2
 BYTE   W12
 BYTE   N09  Fn1
 BYTE   W12
//  #03 //038   ----------------------------------------
 BYTE   N15
 BYTE   W18
 BYTE   Fn2
 BYTE   W18
 BYTE   N12  Fn1
 BYTE   W12
 BYTE   N12
 BYTE   W12
 BYTE   N06
 BYTE   W12
 BYTE   N04  Fn2
 BYTE   W06
 BYTE   Cn2
 BYTE   W06
 BYTE   Fn1
 BYTE   W06
 BYTE   Fn2
 BYTE   W06
//  #03 //039   ----------------------------------------
 BYTE   N15  En1
 BYTE   W18
 BYTE   En2
 BYTE   W18
 BYTE   En1
 BYTE   W24
 BYTE   N06
 BYTE   W12
 BYTE   N12  En2
 BYTE   W12
 BYTE   N09  En1
 BYTE   W12
//  #03 //040   ----------------------------------------
 BYTE   N15  An1
 BYTE   W18
 BYTE   An2
 BYTE   W18
 BYTE   An1
 BYTE   W24
 BYTE   N06
 BYTE   W12
 BYTE   N12  An2
 BYTE   W12
 BYTE   N09  An1
 BYTE   W12
//  #03 //041   ----------------------------------------
Label_01053B10:
 BYTE   N15  Fn1  v127
 BYTE   W18
 BYTE   Cn2
 BYTE   W18
 BYTE   Fn1
 BYTE   W24
 BYTE   N06
 BYTE   W12
 BYTE   N12  Cn2
 BYTE   W12
 BYTE   N06  Fn1
 BYTE   W12
 BYTE   PEND 
//  #03 //042   ----------------------------------------
 BYTE   PATT
  POIN2 Label_01053B10
//  #03 //043   ----------------------------------------
 BYTE   N15  En1  v127
 BYTE   W18
 BYTE   Bn1
 BYTE   W18
 BYTE   En1
 BYTE   W24
 BYTE   N06
 BYTE   W12
 BYTE   N12  En2
 BYTE   W12
 BYTE   N06  En1
 BYTE   W12
//  #03 //044   ----------------------------------------
 BYTE   PATT
  POIN2 Label_01053ABD
//  #03 //045   ----------------------------------------
 BYTE   N15  Dn1  v127
 BYTE   W18
 BYTE   Dn2
 BYTE   W18
 BYTE   Dn1
 BYTE   W24
 BYTE   N06
 BYTE   W12
 BYTE   N12  Dn2
 BYTE   W12
 BYTE   N06  Dn1
 BYTE   W12
//  #03 //046   ----------------------------------------
 BYTE   N15  En1
 BYTE   W18
 BYTE   En2
 BYTE   W18
 BYTE   En1
 BYTE   W24
 BYTE   N06
 BYTE   W12
 BYTE   N12  En2
 BYTE   W12
 BYTE   N06  En1
 BYTE   W12
//  #03 //047   ----------------------------------------
 BYTE   N15  Fn1
 BYTE   W18
 BYTE   Fn2
 BYTE   W18
 BYTE   Fn1
 BYTE   W24
 BYTE   N06
 BYTE   W12
 BYTE   N12  Fn2
 BYTE   W12
 BYTE   N06  Fn1
 BYTE   W12
//  #03 //048   ----------------------------------------
 BYTE   N15  Dn1
 BYTE   W18
 BYTE   Dn2
 BYTE   W18
 BYTE   Dn1
 BYTE   W24
 BYTE   N06  Gn1
 BYTE   W12
 BYTE   N12  Gn2
 BYTE   W12
 BYTE   N06  Gn1
 BYTE   W12
//  #03 //049   ----------------------------------------
 BYTE   N15  Gs0
 BYTE   W18
 BYTE   Gs1
 BYTE   W18
 BYTE   Gs0
 BYTE   W24
 BYTE   N06
 BYTE   W12
 BYTE   N12  Gs1
 BYTE   W12
 BYTE   N06  Gs0
 BYTE   W12
//  #03 //050   ----------------------------------------
 BYTE   N15  As0
 BYTE   W18
 BYTE   As1
 BYTE   W18
 BYTE   As0
 BYTE   W24
 BYTE   N06
 BYTE   W12
 BYTE   N12  As1
 BYTE   W12
 BYTE   N06  As0
 BYTE   W12
//  #03 //051   ----------------------------------------
Label_01053B97:
 BYTE   N15  Cn1  v127
 BYTE   W18
 BYTE   Cn2
 BYTE   W18
 BYTE   Cn1
 BYTE   W24
 BYTE   N06
 BYTE   W12
 BYTE   N12  Cn2
 BYTE   W12
 BYTE   N06  Cn1
 BYTE   W12
 BYTE   PEND 
//  #03 //052   ----------------------------------------
 BYTE   PATT
  POIN2 Label_01053B97
//  #03 //053   ----------------------------------------
 BYTE   GoTo
  POIN2 Label_01053941
 BYTE   FINE

//**************** Track 4 (Midi-Chn.3) ****************//

KirbysDreamLand3RippleField1Psyche_004:
//  #04 //000   ----------------------------------------
 BYTE   KEYSH   KirbysDreamLand3RippleField1Psyche_key+0
 BYTE   VOICE   50
 BYTE   PAN   c_v+0
 BYTE   VOL   22*KirbysDreamLand3RippleField1Psyche_mvl/mxv
 BYTE   W96
//  #04 //001   ----------------------------------------
Label_01053BF1:
 BYTE   W12
 BYTE   N15  Fn1  v127
 BYTE   W18
 BYTE   Cn2
 BYTE   W18
 BYTE   Fn1
 BYTE   W24
 BYTE   N06
 BYTE   W12
 BYTE   N12  Cn2
 BYTE   W12
//  #04 //002   ----------------------------------------
Label_01053BFF:
 BYTE   N09  Fn1  v127
 BYTE   W12
 BYTE   N15
 BYTE   W18
 BYTE   Cn2
 BYTE   W18
 BYTE   Fn1
 BYTE   W24
 BYTE   N06
 BYTE   W12
 BYTE   Fn2
 BYTE   W06
 BYTE   Cn2
 BYTE   W06
 BYTE   PEND 
//  #04 //003   ----------------------------------------
Label_01053C10:
 BYTE   N09  Fn1  v127
 BYTE   W12
 BYTE   N15  En1
 BYTE   W18
 BYTE   Bn1
 BYTE   W18
 BYTE   En1
 BYTE   W24
 BYTE   N06
 BYTE   W12
 BYTE   N12  En2
 BYTE   W12
 BYTE   PEND 
//  #04 //004   ----------------------------------------
Label_01053C21:
 BYTE   N09  En1  v127
 BYTE   W12
 BYTE   N15
 BYTE   W18
 BYTE   Bn1
 BYTE   W18
 BYTE   En1
 BYTE   W24
 BYTE   N06
 BYTE   W12
 BYTE   En2
 BYTE   W06
 BYTE   Bn1
 BYTE   W06
 BYTE   PEND 
//  #04 //005   ----------------------------------------
Label_01053C32:
 BYTE   N09  En1  v127
 BYTE   W12
 BYTE   N15  Fn1
 BYTE   W18
 BYTE   Cn2
 BYTE   W18
 BYTE   Fn1
 BYTE   W24
 BYTE   N06
 BYTE   W12
 BYTE   N12  Cn2
 BYTE   W12
 BYTE   PEND 
//  #04 //006   ----------------------------------------
 BYTE   PATT
  POIN2 Label_01053BFF
//  #04 //007   ----------------------------------------
Label_01053C48:
 BYTE   N09  Fn1  v127
 BYTE   W12
 BYTE   N15  En1
 BYTE   W18
 BYTE   Bn1
 BYTE   W18
 BYTE   En1
 BYTE   W24
 BYTE   N06
 BYTE   W12
 BYTE   En2
 BYTE   W06
 BYTE   Bn1
 BYTE   W06
 BYTE   PEND 
//  #04 //008   ----------------------------------------
 BYTE   PATT
  POIN2 Label_01053C21
//  #04 //009   ----------------------------------------
Label_01053C5F:
 BYTE   N09  En1  v127
 BYTE   W12
 BYTE   N15  Dn1
 BYTE   W18
 BYTE   An1
 BYTE   W18
 BYTE   Dn1
 BYTE   W24
 BYTE   N06
 BYTE   W12
 BYTE   N12  An1
 BYTE   W12
 BYTE   PEND 
//  #04 //010   ----------------------------------------
Label_01053C70:
 BYTE   N09  Dn1  v127
 BYTE   W12
 BYTE   N15  Gn1
 BYTE   W18
 BYTE   Gn2
 BYTE   W18
 BYTE   Gn1
 BYTE   W24
 BYTE   N06
 BYTE   W12
 BYTE   Gn2
 BYTE   W06
 BYTE   Dn2
 BYTE   W06
 BYTE   PEND 
//  #04 //011   ----------------------------------------
Label_01053C82:
 BYTE   N09  Gn1  v127
 BYTE   W12
 BYTE   N15  Cn1
 BYTE   W18
 BYTE   Gn1
 BYTE   W18
 BYTE   N12  Cn1
 BYTE   W12
 BYTE   N06
 BYTE   W18
 BYTE   N04
 BYTE   W06
 BYTE   N12  Cn2
 BYTE   W12
 BYTE   PEND 
//  #04 //012   ----------------------------------------
Label_01053C96:
 BYTE   N12  Cn1  v127
 BYTE   W12
 BYTE   N15
 BYTE   W18
 BYTE   Gn1
 BYTE   W18
 BYTE   N12  Cn1
 BYTE   W12
 BYTE   N06
 BYTE   W18
 BYTE   N04
 BYTE   W06
 BYTE   Cn2
 BYTE   W06
 BYTE   Gn1
 BYTE   W06
 BYTE   PEND 
//  #04 //013   ----------------------------------------
Label_01053CAA:
 BYTE   N12  Cn1  v127
 BYTE   W12
 BYTE   N15  Gs0
 BYTE   W18
 BYTE   Gs1
 BYTE   W18
 BYTE   Gs0
 BYTE   W24
 BYTE   N06
 BYTE   W12
 BYTE   N12  Gs1
 BYTE   W12
 BYTE   PEND 
//  #04 //014   ----------------------------------------
 BYTE   N09  Gs0
 BYTE   W12
 BYTE   N15
 BYTE   W18
 BYTE   Gs1
 BYTE   W18
 BYTE   Gs0
 BYTE   W24
 BYTE   N06
 BYTE   W12
 BYTE   Gs1
 BYTE   W06
 BYTE   Gs0
 BYTE   W06
//  #04 //015   ----------------------------------------
 BYTE   N09  Gs1
 BYTE   W12
 BYTE   N15  Dn1
 BYTE   W18
 BYTE   Dn2
 BYTE   W18
 BYTE   Dn1
 BYTE   W24
 BYTE   N06
 BYTE   W12
 BYTE   N12  Dn2
 BYTE   W12
//  #04 //016   ----------------------------------------
 BYTE   PATT
  POIN2 Label_01053C70
//  #04 //017   ----------------------------------------
 BYTE   N09  Gn1  v127
 BYTE   W12
 BYTE   N15  Fn1
 BYTE   W18
 BYTE   Cn2
 BYTE   W18
 BYTE   Fn1
 BYTE   W24
 BYTE   N06
 BYTE   W12
 BYTE   N12  Cn2
 BYTE   W12
//  #04 //018   ----------------------------------------
 BYTE   PATT
  POIN2 Label_01053BFF
//  #04 //019   ----------------------------------------
 BYTE   PATT
  POIN2 Label_01053C10
//  #04 //020   ----------------------------------------
 BYTE   PATT
  POIN2 Label_01053C21
//  #04 //021   ----------------------------------------
 BYTE   PATT
  POIN2 Label_01053C32
//  #04 //022   ----------------------------------------
 BYTE   PATT
  POIN2 Label_01053BFF
//  #04 //023   ----------------------------------------
 BYTE   PATT
  POIN2 Label_01053C48
//  #04 //024   ----------------------------------------
 BYTE   PATT
  POIN2 Label_01053C21
//  #04 //025   ----------------------------------------
 BYTE   PATT
  POIN2 Label_01053C5F
//  #04 //026   ----------------------------------------
 BYTE   PATT
  POIN2 Label_01053C70
//  #04 //027   ----------------------------------------
 BYTE   PATT
  POIN2 Label_01053C82
//  #04 //028   ----------------------------------------
 BYTE   PATT
  POIN2 Label_01053C96
//  #04 //029   ----------------------------------------
 BYTE   PATT
  POIN2 Label_01053CAA
//  #04 //030   ----------------------------------------
 BYTE   N09  Gs0  v127
 BYTE   W12
 BYTE   N15  Dn1
 BYTE   W18
 BYTE   N04  Dn2
 BYTE   W06
 BYTE   Dn1
 BYTE   W06
 BYTE   Dn2
 BYTE   W06
 BYTE   N09  Dn1
 BYTE   W12
 BYTE   N15  Gn0
 BYTE   W18
 BYTE   N04  Gn1
 BYTE   W06
 BYTE   Gn0
 BYTE   W06
 BYTE   Gn1
 BYTE   W06
//  #04 //031   ----------------------------------------
 BYTE   N09  Gn0
 BYTE   W12
 BYTE   N15  Gs0
 BYTE   W18
 BYTE   Gs1
 BYTE   W18
 BYTE   Gs0
 BYTE   W24
 BYTE   N06  As0
 BYTE   W12
 BYTE   N12  As1
 BYTE   W12
//  #04 //032   ----------------------------------------
 BYTE   N09  As0
 BYTE   W12
 BYTE   N15  Cn1
 BYTE   W18
 BYTE   Cn2
 BYTE   W18
 BYTE   Cn1
 BYTE   W24
 BYTE   N06
 BYTE   W12
 BYTE   N04  Cn2
 BYTE   W06
 BYTE   Gn1
 BYTE   W06
//  #04 //033   ----------------------------------------
 BYTE   Cn1
 BYTE   W06
 BYTE   Cn2
 BYTE   W06
 BYTE   N15  Fn1
 BYTE   W18
 BYTE   Cn2
 BYTE   W18
 BYTE   Fn1
 BYTE   W24
 BYTE   N06
 BYTE   W12
 BYTE   N12  Cn2
 BYTE   W12
//  #04 //034   ----------------------------------------
 BYTE   N09  Fn1
 BYTE   W12
 BYTE   N15  As1
 BYTE   W18
 BYTE   As2
 BYTE   W18
 BYTE   As1
 BYTE   W24
 BYTE   N06
 BYTE   W12
 BYTE   As2
 BYTE   W06
 BYTE   Fn2
 BYTE   W06
//  #04 //035   ----------------------------------------
 BYTE   N09  As1
 BYTE   W12
 BYTE   N15  En1
 BYTE   W18
 BYTE   Bn1
 BYTE   W18
 BYTE   En1
 BYTE   W24
 BYTE   N06
 BYTE   W12
 BYTE   N12  Bn1
 BYTE   W12
//  #04 //036   ----------------------------------------
 BYTE   N09  En1
 BYTE   W12
 BYTE   N15  An1
 BYTE   W18
 BYTE   An2
 BYTE   W18
 BYTE   An1
 BYTE   W24
 BYTE   N06
 BYTE   W12
 BYTE   Gn2
 BYTE   W06
 BYTE   Dn2
 BYTE   W06
//  #04 //037   ----------------------------------------
 BYTE   N09  Gn1
 BYTE   W12
 BYTE   N15  Fn1
 BYTE   W18
 BYTE   Fn2
 BYTE   W18
 BYTE   Fn1
 BYTE   W24
 BYTE   N06
 BYTE   W12
 BYTE   N12  Fn2
 BYTE   W12
//  #04 //038   ----------------------------------------
 BYTE   N09  Fn1
 BYTE   W12
 BYTE   N15
 BYTE   W18
 BYTE   Fn2
 BYTE   W18
 BYTE   N12  Fn1
 BYTE   W12
 BYTE   N12
 BYTE   W12
 BYTE   N06
 BYTE   W12
 BYTE   N04  Fn2
 BYTE   W06
 BYTE   Cn2
 BYTE   W06
//  #04 //039   ----------------------------------------
 BYTE   Fn1
 BYTE   W06
 BYTE   Fn2
 BYTE   W06
 BYTE   N15  En1
 BYTE   W18
 BYTE   En2
 BYTE   W18
 BYTE   En1
 BYTE   W24
 BYTE   N06
 BYTE   W12
 BYTE   N12  En2
 BYTE   W12
//  #04 //040   ----------------------------------------
 BYTE   N09  En1
 BYTE   W12
 BYTE   N15  An1
 BYTE   W18
 BYTE   An2
 BYTE   W18
 BYTE   An1
 BYTE   W24
 BYTE   N06
 BYTE   W12
 BYTE   N12  An2
 BYTE   W12
//  #04 //041   ----------------------------------------
 BYTE   N09  An1
 BYTE   W12
 BYTE   N15  Fn1
 BYTE   W18
 BYTE   Cn2
 BYTE   W18
 BYTE   Fn1
 BYTE   W24
 BYTE   N06
 BYTE   W12
 BYTE   N12  Cn2
 BYTE   W12
//  #04 //042   ----------------------------------------
 BYTE   N06  Fn1
 BYTE   W12
 BYTE   N15
 BYTE   W18
 BYTE   Cn2
 BYTE   W18
 BYTE   Fn1
 BYTE   W24
 BYTE   N06
 BYTE   W12
 BYTE   N12  Cn2
 BYTE   W12
//  #04 //043   ----------------------------------------
 BYTE   N06  Fn1
 BYTE   W12
 BYTE   N15  En1
 BYTE   W18
 BYTE   Bn1
 BYTE   W18
 BYTE   En1
 BYTE   W24
 BYTE   N06
 BYTE   W12
 BYTE   N12  En2
 BYTE   W12
//  #04 //044   ----------------------------------------
 BYTE   N06  En1
 BYTE   W12
 BYTE   N15  An1
 BYTE   W18
 BYTE   An2
 BYTE   W18
 BYTE   An1
 BYTE   W24
 BYTE   N06
 BYTE   W12
 BYTE   Gn2
 BYTE   W06
 BYTE   Dn2
 BYTE   W06
//  #04 //045   ----------------------------------------
 BYTE   N09  Gn1
 BYTE   W12
 BYTE   N15  Dn1
 BYTE   W18
 BYTE   Dn2
 BYTE   W18
 BYTE   Dn1
 BYTE   W24
 BYTE   N06
 BYTE   W12
 BYTE   N12  Dn2
 BYTE   W12
//  #04 //046   ----------------------------------------
 BYTE   N06  Dn1
 BYTE   W12
 BYTE   N15  En1
 BYTE   W18
 BYTE   En2
 BYTE   W18
 BYTE   En1
 BYTE   W24
 BYTE   N06
 BYTE   W12
 BYTE   N12  En2
 BYTE   W12
//  #04 //047   ----------------------------------------
 BYTE   N06  En1
 BYTE   W12
 BYTE   N15  Fn1
 BYTE   W18
 BYTE   Fn2
 BYTE   W18
 BYTE   Fn1
 BYTE   W24
 BYTE   N06
 BYTE   W12
 BYTE   N12  Fn2
 BYTE   W12
//  #04 //048   ----------------------------------------
 BYTE   N06  Fn1
 BYTE   W12
 BYTE   N15  Dn1
 BYTE   W18
 BYTE   Dn2
 BYTE   W18
 BYTE   Dn1
 BYTE   W24
 BYTE   N06  Gn1
 BYTE   W12
 BYTE   N12  Gn2
 BYTE   W12
//  #04 //049   ----------------------------------------
 BYTE   N06  Gn1
 BYTE   W12
 BYTE   N15  Gs0
 BYTE   W18
 BYTE   Gs1
 BYTE   W18
 BYTE   Gs0
 BYTE   W24
 BYTE   N06
 BYTE   W12
 BYTE   N12  Gs1
 BYTE   W12
//  #04 //050   ----------------------------------------
 BYTE   N06  Gs0
 BYTE   W12
 BYTE   N15  As0
 BYTE   W18
 BYTE   As1
 BYTE   W18
 BYTE   As0
 BYTE   W24
 BYTE   N06
 BYTE   W12
 BYTE   N12  As1
 BYTE   W12
//  #04 //051   ----------------------------------------
 BYTE   N06  As0
 BYTE   W12
 BYTE   N15  Cn1
 BYTE   W18
 BYTE   Cn2
 BYTE   W18
 BYTE   Cn1
 BYTE   W24
 BYTE   N06
 BYTE   W12
 BYTE   N12  Cn2
 BYTE   W12
//  #04 //052   ----------------------------------------
 BYTE   N06  Cn1
 BYTE   W12
 BYTE   N15
 BYTE   W18
 BYTE   Cn2
 BYTE   W18
 BYTE   Cn1
 BYTE   W24
 BYTE   N06
 BYTE   W12
 BYTE   N12  Cn2
 BYTE   W12
//  #04 //053   ----------------------------------------
 BYTE   GoTo
  POIN2 Label_01053BF1
 BYTE   FINE

//**************** Track 5 (Midi-Chn.4) ****************//

KirbysDreamLand3RippleField1Psyche_005:
//  #05 //000   ----------------------------------------
 BYTE   KEYSH   KirbysDreamLand3RippleField1Psyche_key+0
 BYTE   VOICE   4
 BYTE   VOL   30*KirbysDreamLand3RippleField1Psyche_mvl/mxv
 BYTE   PAN   c_v+51
 BYTE   W96
//  #05 //001   ----------------------------------------
Label_010513F9:
 BYTE   N06  En4  v127
 BYTE   W06
 BYTE   Cn4
 BYTE   W06
 BYTE   Fn3
 BYTE   W06
 BYTE   En4
 BYTE   W06
 BYTE   Cn4
 BYTE   W06
 BYTE   Fn3
 BYTE   W06
 BYTE   En4
 BYTE   W06
 BYTE   Cn4
 BYTE   W06
 BYTE   En4
 BYTE   W06
 BYTE   Cn4
 BYTE   W06
 BYTE   Fn3
 BYTE   W06
 BYTE   En4
 BYTE   W06
 BYTE   Cn4
 BYTE   W06
 BYTE   Fn3
 BYTE   W06
 BYTE   En4
 BYTE   W06
 BYTE   Cn4
 BYTE   W06
 BYTE   PEND 
//  #05 //002   ----------------------------------------
 BYTE   PATT
  POIN2 Label_010513F9
//  #05 //003   ----------------------------------------
Label_01051421:
 BYTE   N06  Dn4  v127
 BYTE   W06
 BYTE   Bn3
 BYTE   W06
 BYTE   En3
 BYTE   W06
 BYTE   Dn4
 BYTE   W06
 BYTE   Bn3
 BYTE   W06
 BYTE   En3
 BYTE   W06
 BYTE   Dn4
 BYTE   W06
 BYTE   Bn3
 BYTE   W06
 BYTE   Dn4
 BYTE   W06
 BYTE   Bn3
 BYTE   W06
 BYTE   En3
 BYTE   W06
 BYTE   Dn4
 BYTE   W06
 BYTE   Bn3
 BYTE   W06
 BYTE   En3
 BYTE   W06
 BYTE   Dn4
 BYTE   W06
 BYTE   Bn3
 BYTE   W06
 BYTE   PEND 
//  #05 //004   ----------------------------------------
 BYTE   PATT
  POIN2 Label_01051421
//  #05 //005   ----------------------------------------
 BYTE   PATT
  POIN2 Label_010513F9
//  #05 //006   ----------------------------------------
 BYTE   PATT
  POIN2 Label_010513F9
//  #05 //007   ----------------------------------------
 BYTE   PATT
  POIN2 Label_01051421
//  #05 //008   ----------------------------------------
 BYTE   PATT
  POIN2 Label_01051421
//  #05 //009   ----------------------------------------
Label_0105145D:
 BYTE   N06  Fn4  v127
 BYTE   W06
 BYTE   Cn4
 BYTE   W06
 BYTE   Fn3
 BYTE   W06
 BYTE   Fn4
 BYTE   W06
 BYTE   Cn4
 BYTE   W06
 BYTE   Fn3
 BYTE   W06
 BYTE   Fn4
 BYTE   W06
 BYTE   Cn4
 BYTE   W06
 BYTE   Fn4
 BYTE   W06
 BYTE   Cn4
 BYTE   W06
 BYTE   Fn3
 BYTE   W06
 BYTE   Fn4
 BYTE   W06
 BYTE   Cn4
 BYTE   W06
 BYTE   Fn3
 BYTE   W06
 BYTE   Fn4
 BYTE   W06
 BYTE   Cn4
 BYTE   W06
 BYTE   PEND 
//  #05 //010   ----------------------------------------
Label_01051480:
 BYTE   N06  Fn4  v127
 BYTE   W06
 BYTE   Dn4
 BYTE   W06
 BYTE   Fn3
 BYTE   W06
 BYTE   Fn4
 BYTE   W06
 BYTE   Dn4
 BYTE   W06
 BYTE   Fn3
 BYTE   W06
 BYTE   Fn4
 BYTE   W06
 BYTE   Dn4
 BYTE   W06
 BYTE   Fn4
 BYTE   W06
 BYTE   Dn4
 BYTE   W06
 BYTE   Fn3
 BYTE   W06
 BYTE   Fn4
 BYTE   W06
 BYTE   Dn4
 BYTE   W06
 BYTE   Fn3
 BYTE   W06
 BYTE   Fn4
 BYTE   W06
 BYTE   Dn4
 BYTE   W06
 BYTE   PEND 
//  #05 //011   ----------------------------------------
Label_010514A3:
 BYTE   N06  En4  v127
 BYTE   W06
 BYTE   Bn3
 BYTE   W06
 BYTE   En3
 BYTE   W06
 BYTE   En4
 BYTE   W06
 BYTE   Bn3
 BYTE   W06
 BYTE   En3
 BYTE   W06
 BYTE   En4
 BYTE   W06
 BYTE   Bn3
 BYTE   W06
 BYTE   En4
 BYTE   W06
 BYTE   Bn3
 BYTE   W06
 BYTE   En3
 BYTE   W06
 BYTE   En4
 BYTE   W06
 BYTE   Bn3
 BYTE   W06
 BYTE   En3
 BYTE   W06
 BYTE   En4
 BYTE   W06
 BYTE   Bn3
 BYTE   W06
 BYTE   PEND 
//  #05 //012   ----------------------------------------
 BYTE   PATT
  POIN2 Label_01051421
//  #05 //013   ----------------------------------------
Label_010514CB:
 BYTE   N06  Ds4  v127
 BYTE   W06
 BYTE   Cn4
 BYTE   W06
 BYTE   Ds3
 BYTE   W06
 BYTE   Ds4
 BYTE   W06
 BYTE   Cn4
 BYTE   W06
 BYTE   Ds3
 BYTE   W06
 BYTE   Ds4
 BYTE   W06
 BYTE   Cn4
 BYTE   W06
 BYTE   Ds4
 BYTE   W06
 BYTE   Cn4
 BYTE   W06
 BYTE   Ds3
 BYTE   W06
 BYTE   Ds4
 BYTE   W06
 BYTE   Cn4
 BYTE   W06
 BYTE   Ds3
 BYTE   W06
 BYTE   Ds4
 BYTE   W06
 BYTE   Cn4
 BYTE   W06
 BYTE   PEND 
//  #05 //014   ----------------------------------------
 BYTE   PATT
  POIN2 Label_010514CB
//  #05 //015   ----------------------------------------
 BYTE   PATT
  POIN2 Label_01051480
//  #05 //016   ----------------------------------------
 BYTE   N06  Fn4  v127
 BYTE   W06
 BYTE   Dn4
 BYTE   W06
 BYTE   Fn3
 BYTE   W06
 BYTE   Fn4
 BYTE   W06
 BYTE   Dn4
 BYTE   W06
 BYTE   Fn3
 BYTE   W06
 BYTE   Fn4
 BYTE   W06
 BYTE   Dn4
 BYTE   W06
 BYTE   Fn4
 BYTE   W06
 BYTE   Dn4
 BYTE   W06
 BYTE   Gs3
 BYTE   W06
 BYTE   Fn4
 BYTE   W06
 BYTE   Dn4
 BYTE   W06
 BYTE   Gs3
 BYTE   W06
 BYTE   Fn4
 BYTE   W06
 BYTE   Dn4
 BYTE   W06
//  #05 //017   ----------------------------------------
 BYTE   PATT
  POIN2 Label_010513F9
//  #05 //018   ----------------------------------------
 BYTE   PATT
  POIN2 Label_010513F9
//  #05 //019   ----------------------------------------
 BYTE   PATT
  POIN2 Label_01051421
//  #05 //020   ----------------------------------------
 BYTE   PATT
  POIN2 Label_01051421
//  #05 //021   ----------------------------------------
 BYTE   PATT
  POIN2 Label_010513F9
//  #05 //022   ----------------------------------------
 BYTE   PATT
  POIN2 Label_010513F9
//  #05 //023   ----------------------------------------
 BYTE   PATT
  POIN2 Label_01051421
//  #05 //024   ----------------------------------------
 BYTE   PATT
  POIN2 Label_01051421
//  #05 //025   ----------------------------------------
 BYTE   PATT
  POIN2 Label_0105145D
//  #05 //026   ----------------------------------------
 BYTE   PATT
  POIN2 Label_01051480
//  #05 //027   ----------------------------------------
 BYTE   PATT
  POIN2 Label_010514A3
//  #05 //028   ----------------------------------------
 BYTE   PATT
  POIN2 Label_01051421
//  #05 //029   ----------------------------------------
 BYTE   PATT
  POIN2 Label_010514CB
//  #05 //030   ----------------------------------------
 BYTE   PATT
  POIN2 Label_01051480
//  #05 //031   ----------------------------------------
 BYTE   PATT
  POIN2 Label_010514CB
//  #05 //032   ----------------------------------------
 BYTE   N06  Dn4  v127
 BYTE   W06
 BYTE   Bn3
 BYTE   W06
 BYTE   En3
 BYTE   W06
 BYTE   Dn4
 BYTE   W06
 BYTE   Bn3
 BYTE   W06
 BYTE   En3
 BYTE   W06
 BYTE   Dn4
 BYTE   W06
 BYTE   Bn3
 BYTE   W06
 BYTE   Dn4
 BYTE   W06
 BYTE   Bn3
 BYTE   W06
 BYTE   En3
 BYTE   W06
 BYTE   Dn4
 BYTE   W06
 BYTE   Bn3
 BYTE   W06
 BYTE   En3
 BYTE   W06
 BYTE   Dn4
 BYTE   W06
 BYTE   N05  Bn3
 BYTE   W05
 BYTE   VOICE   11
 BYTE   W01
//  #05 //033   ----------------------------------------
 BYTE   N06  Gn3
 BYTE   W06
 BYTE   Ds3
 BYTE   W06
 BYTE   Gs2
 BYTE   W06
 BYTE   Gn3
 BYTE   W06
 BYTE   Ds3
 BYTE   W06
 BYTE   Gs2
 BYTE   W06
 BYTE   Gn3
 BYTE   W06
 BYTE   Ds3
 BYTE   W06
 BYTE   Gn3
 BYTE   W06
 BYTE   Ds3
 BYTE   W06
 BYTE   Gs2
 BYTE   W06
 BYTE   Gn3
 BYTE   W06
 BYTE   Ds3
 BYTE   W06
 BYTE   Gs2
 BYTE   W06
 BYTE   Gn3
 BYTE   W06
 BYTE   Ds3
 BYTE   W06
//  #05 //034   ----------------------------------------
 BYTE   Fn3
 BYTE   W06
 BYTE   Dn3
 BYTE   W06
 BYTE   Fn2
 BYTE   W06
 BYTE   Fn3
 BYTE   W06
 BYTE   Dn3
 BYTE   W06
 BYTE   Fn2
 BYTE   W06
 BYTE   Fn3
 BYTE   W06
 BYTE   Dn3
 BYTE   W06
 BYTE   Fn3
 BYTE   W06
 BYTE   Dn3
 BYTE   W06
 BYTE   Fn2
 BYTE   W06
 BYTE   Fn3
 BYTE   W06
 BYTE   Dn3
 BYTE   W06
 BYTE   Fn2
 BYTE   W06
 BYTE   Fn3
 BYTE   W06
 BYTE   Dn3
 BYTE   W06
//  #05 //035   ----------------------------------------
 BYTE   Gn3
 BYTE   W06
 BYTE   Dn3
 BYTE   W06
 BYTE   Gn2
 BYTE   W06
 BYTE   Gn3
 BYTE   W06
 BYTE   Dn3
 BYTE   W06
 BYTE   Gn2
 BYTE   W06
 BYTE   Gn3
 BYTE   W06
 BYTE   Dn3
 BYTE   W06
 BYTE   Gn3
 BYTE   W06
 BYTE   Dn3
 BYTE   W06
 BYTE   Gn2
 BYTE   W06
 BYTE   Gn3
 BYTE   W06
 BYTE   Dn3
 BYTE   W06
 BYTE   Gn2
 BYTE   W06
 BYTE   Gn3
 BYTE   W06
 BYTE   Dn3
 BYTE   W06
//  #05 //036   ----------------------------------------
 BYTE   Gn3
 BYTE   W06
 BYTE   En3
 BYTE   W06
 BYTE   An2
 BYTE   W06
 BYTE   Gn3
 BYTE   W06
 BYTE   En3
 BYTE   W06
 BYTE   An2
 BYTE   W06
 BYTE   Gn3
 BYTE   W06
 BYTE   En3
 BYTE   W06
 BYTE   Gn3
 BYTE   W06
 BYTE   En3
 BYTE   W06
 BYTE   An2
 BYTE   W06
 BYTE   Gn3
 BYTE   W06
 BYTE   En3
 BYTE   W06
 BYTE   An2
 BYTE   W06
 BYTE   Gn3
 BYTE   W06
 BYTE   En3
 BYTE   W06
//  #05 //037   ----------------------------------------
Label_0105160C:
 BYTE   N06  An3  v127
 BYTE   W06
 BYTE   Fn3
 BYTE   W06
 BYTE   Fn2
 BYTE   W06
 BYTE   An3
 BYTE   W06
 BYTE   Fn3
 BYTE   W06
 BYTE   Fn2
 BYTE   W06
 BYTE   An3
 BYTE   W06
 BYTE   Fn3
 BYTE   W06
 BYTE   An3
 BYTE   W06
 BYTE   Fn3
 BYTE   W06
 BYTE   Fn2
 BYTE   W06
 BYTE   An3
 BYTE   W06
 BYTE   Fn3
 BYTE   W06
 BYTE   Fn2
 BYTE   W06
 BYTE   An3
 BYTE   W06
 BYTE   Fn3
 BYTE   W06
 BYTE   PEND 
//  #05 //038   ----------------------------------------
 BYTE   PATT
  POIN2 Label_0105160C
//  #05 //039   ----------------------------------------
 BYTE   N06  Bn3  v127
 BYTE   W06
 BYTE   Gn3
 BYTE   W06
 BYTE   Gn2
 BYTE   W06
 BYTE   Bn3
 BYTE   W06
 BYTE   Gn3
 BYTE   W06
 BYTE   Gn2
 BYTE   W06
 BYTE   Bn3
 BYTE   W06
 BYTE   Gn3
 BYTE   W06
 BYTE   Bn3
 BYTE   W06
 BYTE   Gn3
 BYTE   W06
 BYTE   Gn2
 BYTE   W06
 BYTE   Bn3
 BYTE   W06
 BYTE   Gn3
 BYTE   W06
 BYTE   Gn2
 BYTE   W06
 BYTE   Bn3
 BYTE   W06
 BYTE   Gn3
 BYTE   W06
//  #05 //040   ----------------------------------------
 BYTE   Cs4
 BYTE   W06
 BYTE   An3
 BYTE   W06
 BYTE   An2
 BYTE   W06
 BYTE   Cs4
 BYTE   W06
 BYTE   An3
 BYTE   W06
 BYTE   An2
 BYTE   W06
 BYTE   Cs4
 BYTE   W06
 BYTE   An3
 BYTE   W06
 BYTE   En4
 BYTE   W06
 BYTE   Cs4
 BYTE   W06
 BYTE   An2
 BYTE   W06
 BYTE   En4
 BYTE   W06
 BYTE   Cs4
 BYTE   W06
 BYTE   An2
 BYTE   W06
 BYTE   En4
 BYTE   W06
 BYTE   Cs4
 BYTE   W05
 BYTE   VOICE   4
 BYTE   W01
//  #05 //041   ----------------------------------------
Label_01051679:
 BYTE   N05  An3  v127
 BYTE   W06
 BYTE   Fn3
 BYTE   W06
 BYTE   Fn2
 BYTE   W06
 BYTE   An3
 BYTE   W06
 BYTE   Fn3
 BYTE   W06
 BYTE   Fn2
 BYTE   W06
 BYTE   An3
 BYTE   W06
 BYTE   Fn3
 BYTE   W06
 BYTE   An3
 BYTE   W06
 BYTE   Fn3
 BYTE   W06
 BYTE   Fn2
 BYTE   W06
 BYTE   An3
 BYTE   W06
 BYTE   Fn3
 BYTE   W06
 BYTE   Fn2
 BYTE   W06
 BYTE   An3
 BYTE   W06
 BYTE   Fn3
 BYTE   W06
 BYTE   PEND 
//  #05 //042   ----------------------------------------
 BYTE   PATT
  POIN2 Label_01051679
//  #05 //043   ----------------------------------------
 BYTE   N05  Gn3  v127
 BYTE   W06
 BYTE   En3
 BYTE   W06
 BYTE   En2
 BYTE   W06
 BYTE   Gn3
 BYTE   W06
 BYTE   En3
 BYTE   W06
 BYTE   En2
 BYTE   W06
 BYTE   Gn3
 BYTE   W06
 BYTE   En3
 BYTE   W06
 BYTE   Gn3
 BYTE   W06
 BYTE   En3
 BYTE   W06
 BYTE   En2
 BYTE   W06
 BYTE   Gn3
 BYTE   W06
 BYTE   En3
 BYTE   W06
 BYTE   En2
 BYTE   W06
 BYTE   Gn3
 BYTE   W06
 BYTE   En3
 BYTE   W06
//  #05 //044   ----------------------------------------
 BYTE   Gn3
 BYTE   W06
 BYTE   En3
 BYTE   W06
 BYTE   An2
 BYTE   W06
 BYTE   Gn3
 BYTE   W06
 BYTE   En3
 BYTE   W06
 BYTE   An2
 BYTE   W06
 BYTE   Gn3
 BYTE   W06
 BYTE   En3
 BYTE   W06
 BYTE   Gn3
 BYTE   W06
 BYTE   En3
 BYTE   W06
 BYTE   An2
 BYTE   W06
 BYTE   Gn3
 BYTE   W06
 BYTE   En3
 BYTE   W06
 BYTE   An2
 BYTE   W06
 BYTE   Gn3
 BYTE   W06
 BYTE   En3
 BYTE   W06
//  #05 //045   ----------------------------------------
 BYTE   An3
 BYTE   W06
 BYTE   Fn3
 BYTE   W06
 BYTE   An2
 BYTE   W06
 BYTE   An3
 BYTE   W06
 BYTE   Fn3
 BYTE   W06
 BYTE   An2
 BYTE   W06
 BYTE   An3
 BYTE   W06
 BYTE   Fn3
 BYTE   W06
 BYTE   An3
 BYTE   W06
 BYTE   Fn3
 BYTE   W06
 BYTE   An2
 BYTE   W06
 BYTE   An3
 BYTE   W06
 BYTE   Fn3
 BYTE   W06
 BYTE   An2
 BYTE   W06
 BYTE   An3
 BYTE   W06
 BYTE   Fn3
 BYTE   W06
//  #05 //046   ----------------------------------------
Label_01051703:
 BYTE   N05  Bn3  v127
 BYTE   W06
 BYTE   Gn3
 BYTE   W06
 BYTE   Gn2
 BYTE   W06
 BYTE   Bn3
 BYTE   W06
 BYTE   Gn3
 BYTE   W06
 BYTE   Gn2
 BYTE   W06
 BYTE   Bn3
 BYTE   W06
 BYTE   Gn3
 BYTE   W06
 BYTE   Bn3
 BYTE   W06
 BYTE   Gn3
 BYTE   W06
 BYTE   Gn2
 BYTE   W06
 BYTE   Bn3
 BYTE   W06
 BYTE   Gn3
 BYTE   W06
 BYTE   Gn2
 BYTE   W06
 BYTE   Bn3
 BYTE   W06
 BYTE   Gn3
 BYTE   W06
 BYTE   PEND 
//  #05 //047   ----------------------------------------
 BYTE   Cn4
 BYTE   W06
 BYTE   An3
 BYTE   W06
 BYTE   An2
 BYTE   W06
 BYTE   Cn4
 BYTE   W06
 BYTE   An3
 BYTE   W06
 BYTE   An2
 BYTE   W06
 BYTE   Cn4
 BYTE   W06
 BYTE   An3
 BYTE   W06
 BYTE   Cn4
 BYTE   W06
 BYTE   An3
 BYTE   W06
 BYTE   An2
 BYTE   W06
 BYTE   Cn4
 BYTE   W06
 BYTE   An3
 BYTE   W06
 BYTE   An2
 BYTE   W06
 BYTE   Cn4
 BYTE   W06
 BYTE   An3
 BYTE   W06
//  #05 //048   ----------------------------------------
 BYTE   Cn4
 BYTE   W06
 BYTE   An3
 BYTE   W06
 BYTE   An2
 BYTE   W06
 BYTE   Cn4
 BYTE   W06
 BYTE   An3
 BYTE   W06
 BYTE   An2
 BYTE   W06
 BYTE   Cn4
 BYTE   W06
 BYTE   An3
 BYTE   W06
 BYTE   Cn4
 BYTE   W06
 BYTE   An3
 BYTE   W06
 BYTE   Gn2
 BYTE   W06
 BYTE   Cn4
 BYTE   W06
 BYTE   An3
 BYTE   W06
 BYTE   Gn2
 BYTE   W06
 BYTE   Cn4
 BYTE   W06
 BYTE   An3
 BYTE   W06
//  #05 //049   ----------------------------------------
 BYTE   Cn4
 BYTE   W06
 BYTE   Gn3
 BYTE   W06
 BYTE   Gs2
 BYTE   W06
 BYTE   Cn4
 BYTE   W06
 BYTE   Gn3
 BYTE   W06
 BYTE   Gs2
 BYTE   W06
 BYTE   Cn4
 BYTE   W06
 BYTE   Gn3
 BYTE   W06
 BYTE   Cn4
 BYTE   W06
 BYTE   Gn3
 BYTE   W06
 BYTE   Gs2
 BYTE   W06
 BYTE   Cn4
 BYTE   W06
 BYTE   Gn3
 BYTE   W06
 BYTE   Gs2
 BYTE   W06
 BYTE   Cn4
 BYTE   W06
 BYTE   Gn3
 BYTE   W06
//  #05 //050   ----------------------------------------
 BYTE   Cn4
 BYTE   W06
 BYTE   Gn3
 BYTE   W06
 BYTE   As2
 BYTE   W06
 BYTE   Cn4
 BYTE   W06
 BYTE   Gn3
 BYTE   W06
 BYTE   As2
 BYTE   W06
 BYTE   Cn4
 BYTE   W06
 BYTE   Gn3
 BYTE   W06
 BYTE   Cn4
 BYTE   W06
 BYTE   Gn3
 BYTE   W06
 BYTE   As2
 BYTE   W06
 BYTE   Cn4
 BYTE   W06
 BYTE   Gn3
 BYTE   W06
 BYTE   As2
 BYTE   W06
 BYTE   Cn4
 BYTE   W06
 BYTE   Gn3
 BYTE   W06
//  #05 //051   ----------------------------------------
 BYTE   PATT
  POIN2 Label_01051703
//  #05 //052   ----------------------------------------
 BYTE   N05  Bn3  v127
 BYTE   W06
 BYTE   Gn3
 BYTE   W06
 BYTE   Gn2
 BYTE   W06
 BYTE   Bn3
 BYTE   W06
 BYTE   Gn3
 BYTE   W06
 BYTE   Gn2
 BYTE   W06
 BYTE   Bn3
 BYTE   W06
 BYTE   Gn3
 BYTE   W06
 BYTE   Bn3
 BYTE   W06
 BYTE   Gn3
 BYTE   W06
 BYTE   Gn2
 BYTE   W06
 BYTE   Bn3
 BYTE   W06
 BYTE   Gn3
 BYTE   W06
 BYTE   Gn2
 BYTE   W06
 BYTE   Bn3
 BYTE   W12
//  #05 //053   ----------------------------------------
 BYTE   GoTo
  POIN2 Label_010513F9
 BYTE   FINE

//**************** Track 6 (Midi-Chn.5) ****************//

KirbysDreamLand3RippleField1Psyche_006:
//  #06 //000   ----------------------------------------
 BYTE   KEYSH   KirbysDreamLand3RippleField1Psyche_key+0
 BYTE   VOICE   4
 BYTE   VOL   12*KirbysDreamLand3RippleField1Psyche_mvl/mxv
 BYTE   PAN   c_v-39
 BYTE   W96
//  #06 //001   ----------------------------------------
Label_01051801:
 BYTE   W12
 BYTE   N06  En4  v127
 BYTE   W06
 BYTE   Cn4
 BYTE   W06
 BYTE   Fn3
 BYTE   W06
 BYTE   En4
 BYTE   W06
 BYTE   Cn4
 BYTE   W06
 BYTE   Fn3
 BYTE   W06
 BYTE   En4
 BYTE   W06
 BYTE   Cn4
 BYTE   W06
 BYTE   En4
 BYTE   W06
 BYTE   Cn4
 BYTE   W06
 BYTE   Fn3
 BYTE   W06
 BYTE   En4
 BYTE   W06
 BYTE   Cn4
 BYTE   W06
 BYTE   Fn3
 BYTE   W06
//  #06 //002   ----------------------------------------
Label_01051820:
 BYTE   N06  En4  v127
 BYTE   W06
 BYTE   Cn4
 BYTE   W06
 BYTE   En4
 BYTE   W06
 BYTE   Cn4
 BYTE   W06
 BYTE   Fn3
 BYTE   W06
 BYTE   En4
 BYTE   W06
 BYTE   Cn4
 BYTE   W06
 BYTE   Fn3
 BYTE   W06
 BYTE   En4
 BYTE   W06
 BYTE   Cn4
 BYTE   W06
 BYTE   En4
 BYTE   W06
 BYTE   Cn4
 BYTE   W06
 BYTE   Fn3
 BYTE   W06
 BYTE   En4
 BYTE   W06
 BYTE   Cn4
 BYTE   W06
 BYTE   Fn3
 BYTE   W06
 BYTE   PEND 
//  #06 //003   ----------------------------------------
Label_01051843:
 BYTE   N06  En4  v127
 BYTE   W06
 BYTE   Cn4
 BYTE   W06
 BYTE   Dn4
 BYTE   W06
 BYTE   Bn3
 BYTE   W06
 BYTE   En3
 BYTE   W06
 BYTE   Dn4
 BYTE   W06
 BYTE   Bn3
 BYTE   W06
 BYTE   En3
 BYTE   W06
 BYTE   Dn4
 BYTE   W06
 BYTE   Bn3
 BYTE   W06
 BYTE   Dn4
 BYTE   W06
 BYTE   Bn3
 BYTE   W06
 BYTE   En3
 BYTE   W06
 BYTE   Dn4
 BYTE   W06
 BYTE   Bn3
 BYTE   W06
 BYTE   En3
 BYTE   W06
 BYTE   PEND 
//  #06 //004   ----------------------------------------
Label_01051866:
 BYTE   N06  Dn4  v127
 BYTE   W06
 BYTE   Bn3
 BYTE   W06
 BYTE   Dn4
 BYTE   W06
 BYTE   Bn3
 BYTE   W06
 BYTE   En3
 BYTE   W06
 BYTE   Dn4
 BYTE   W06
 BYTE   Bn3
 BYTE   W06
 BYTE   En3
 BYTE   W06
 BYTE   Dn4
 BYTE   W06
 BYTE   Bn3
 BYTE   W06
 BYTE   Dn4
 BYTE   W06
 BYTE   Bn3
 BYTE   W06
 BYTE   En3
 BYTE   W06
 BYTE   Dn4
 BYTE   W06
 BYTE   Bn3
 BYTE   W06
 BYTE   En3
 BYTE   W06
 BYTE   PEND 
//  #06 //005   ----------------------------------------
Label_01051889:
 BYTE   N06  Dn4  v127
 BYTE   W06
 BYTE   Bn3
 BYTE   W06
 BYTE   En4
 BYTE   W06
 BYTE   Cn4
 BYTE   W06
 BYTE   Fn3
 BYTE   W06
 BYTE   En4
 BYTE   W06
 BYTE   Cn4
 BYTE   W06
 BYTE   Fn3
 BYTE   W06
 BYTE   En4
 BYTE   W06
 BYTE   Cn4
 BYTE   W06
 BYTE   En4
 BYTE   W06
 BYTE   Cn4
 BYTE   W06
 BYTE   Fn3
 BYTE   W06
 BYTE   En4
 BYTE   W06
 BYTE   Cn4
 BYTE   W06
 BYTE   Fn3
 BYTE   W06
 BYTE   PEND 
//  #06 //006   ----------------------------------------
 BYTE   PATT
  POIN2 Label_01051820
//  #06 //007   ----------------------------------------
 BYTE   PATT
  POIN2 Label_01051843
//  #06 //008   ----------------------------------------
 BYTE   PATT
  POIN2 Label_01051866
//  #06 //009   ----------------------------------------
Label_010518BB:
 BYTE   N06  Dn4  v127
 BYTE   W06
 BYTE   Bn3
 BYTE   W06
 BYTE   Fn4
 BYTE   W06
 BYTE   Cn4
 BYTE   W06
 BYTE   Fn3
 BYTE   W06
 BYTE   Fn4
 BYTE   W06
 BYTE   Cn4
 BYTE   W06
 BYTE   Fn3
 BYTE   W06
 BYTE   Fn4
 BYTE   W06
 BYTE   Cn4
 BYTE   W06
 BYTE   Fn4
 BYTE   W06
 BYTE   Cn4
 BYTE   W06
 BYTE   Fn3
 BYTE   W06
 BYTE   Fn4
 BYTE   W06
 BYTE   Cn4
 BYTE   W06
 BYTE   Fn3
 BYTE   W06
 BYTE   PEND 
//  #06 //010   ----------------------------------------
Label_010518DE:
 BYTE   N06  Fn4  v127
 BYTE   W06
 BYTE   Cn4
 BYTE   W06
 BYTE   Fn4
 BYTE   W06
 BYTE   Dn4
 BYTE   W06
 BYTE   Fn3
 BYTE   W06
 BYTE   Fn4
 BYTE   W06
 BYTE   Dn4
 BYTE   W06
 BYTE   Fn3
 BYTE   W06
 BYTE   Fn4
 BYTE   W06
 BYTE   Dn4
 BYTE   W06
 BYTE   Fn4
 BYTE   W06
 BYTE   Dn4
 BYTE   W06
 BYTE   Fn3
 BYTE   W06
 BYTE   Fn4
 BYTE   W06
 BYTE   Dn4
 BYTE   W06
 BYTE   Fn3
 BYTE   W06
 BYTE   PEND 
//  #06 //011   ----------------------------------------
Label_01051901:
 BYTE   N06  Fn4  v127
 BYTE   W06
 BYTE   Dn4
 BYTE   W06
 BYTE   En4
 BYTE   W06
 BYTE   Bn3
 BYTE   W06
 BYTE   En3
 BYTE   W06
 BYTE   En4
 BYTE   W06
 BYTE   Bn3
 BYTE   W06
 BYTE   En3
 BYTE   W06
 BYTE   En4
 BYTE   W06
 BYTE   Bn3
 BYTE   W06
 BYTE   En4
 BYTE   W06
 BYTE   Bn3
 BYTE   W06
 BYTE   En3
 BYTE   W06
 BYTE   En4
 BYTE   W06
 BYTE   Bn3
 BYTE   W06
 BYTE   En3
 BYTE   W06
 BYTE   PEND 
//  #06 //012   ----------------------------------------
Label_01051924:
 BYTE   N06  En4  v127
 BYTE   W06
 BYTE   Bn3
 BYTE   W06
 BYTE   Dn4
 BYTE   W06
 BYTE   Bn3
 BYTE   W06
 BYTE   En3
 BYTE   W06
 BYTE   Dn4
 BYTE   W06
 BYTE   Bn3
 BYTE   W06
 BYTE   En3
 BYTE   W06
 BYTE   Dn4
 BYTE   W06
 BYTE   Bn3
 BYTE   W06
 BYTE   Dn4
 BYTE   W06
 BYTE   Bn3
 BYTE   W06
 BYTE   En3
 BYTE   W06
 BYTE   Dn4
 BYTE   W06
 BYTE   Bn3
 BYTE   W06
 BYTE   En3
 BYTE   W06
 BYTE   PEND 
//  #06 //013   ----------------------------------------
Label_01051947:
 BYTE   N06  Dn4  v127
 BYTE   W06
 BYTE   Bn3
 BYTE   W06
 BYTE   Ds4
 BYTE   W06
 BYTE   Cn4
 BYTE   W06
 BYTE   Ds3
 BYTE   W06
 BYTE   Ds4
 BYTE   W06
 BYTE   Cn4
 BYTE   W06
 BYTE   Ds3
 BYTE   W06
 BYTE   Ds4
 BYTE   W06
 BYTE   Cn4
 BYTE   W06
 BYTE   Ds4
 BYTE   W06
 BYTE   Cn4
 BYTE   W06
 BYTE   Ds3
 BYTE   W06
 BYTE   Ds4
 BYTE   W06
 BYTE   Cn4
 BYTE   W06
 BYTE   Ds3
 BYTE   W06
 BYTE   PEND 
//  #06 //014   ----------------------------------------
 BYTE   Ds4
 BYTE   W06
 BYTE   Cn4
 BYTE   W06
 BYTE   Ds4
 BYTE   W06
 BYTE   Cn4
 BYTE   W06
 BYTE   Ds3
 BYTE   W06
 BYTE   Ds4
 BYTE   W06
 BYTE   Cn4
 BYTE   W06
 BYTE   Ds3
 BYTE   W06
 BYTE   Ds4
 BYTE   W06
 BYTE   Cn4
 BYTE   W06
 BYTE   Ds4
 BYTE   W06
 BYTE   Cn4
 BYTE   W06
 BYTE   Ds3
 BYTE   W06
 BYTE   Ds4
 BYTE   W06
 BYTE   Cn4
 BYTE   W06
 BYTE   Ds3
 BYTE   W06
//  #06 //015   ----------------------------------------
Label_0105198A:
 BYTE   N06  Ds4  v127
 BYTE   W06
 BYTE   Cn4
 BYTE   W06
 BYTE   Fn4
 BYTE   W06
 BYTE   Dn4
 BYTE   W06
 BYTE   Fn3
 BYTE   W06
 BYTE   Fn4
 BYTE   W06
 BYTE   Dn4
 BYTE   W06
 BYTE   Fn3
 BYTE   W06
 BYTE   Fn4
 BYTE   W06
 BYTE   Dn4
 BYTE   W06
 BYTE   Fn4
 BYTE   W06
 BYTE   Dn4
 BYTE   W06
 BYTE   Fn3
 BYTE   W06
 BYTE   Fn4
 BYTE   W06
 BYTE   Dn4
 BYTE   W06
 BYTE   Fn3
 BYTE   W06
 BYTE   PEND 
//  #06 //016   ----------------------------------------
 BYTE   Fn4
 BYTE   W06
 BYTE   Dn4
 BYTE   W06
 BYTE   Fn4
 BYTE   W06
 BYTE   Dn4
 BYTE   W06
 BYTE   Fn3
 BYTE   W06
 BYTE   Fn4
 BYTE   W06
 BYTE   Dn4
 BYTE   W06
 BYTE   Fn3
 BYTE   W06
 BYTE   Fn4
 BYTE   W06
 BYTE   Dn4
 BYTE   W06
 BYTE   Fn4
 BYTE   W06
 BYTE   Dn4
 BYTE   W06
 BYTE   Gs3
 BYTE   W06
 BYTE   Fn4
 BYTE   W06
 BYTE   Dn4
 BYTE   W06
 BYTE   Gs3
 BYTE   W06
//  #06 //017   ----------------------------------------
 BYTE   Fn4
 BYTE   W06
 BYTE   Dn4
 BYTE   W06
 BYTE   En4
 BYTE   W06
 BYTE   Cn4
 BYTE   W06
 BYTE   Fn3
 BYTE   W06
 BYTE   En4
 BYTE   W06
 BYTE   Cn4
 BYTE   W06
 BYTE   Fn3
 BYTE   W06
 BYTE   En4
 BYTE   W06
 BYTE   Cn4
 BYTE   W06
 BYTE   En4
 BYTE   W06
 BYTE   Cn4
 BYTE   W06
 BYTE   Fn3
 BYTE   W06
 BYTE   En4
 BYTE   W06
 BYTE   Cn4
 BYTE   W06
 BYTE   Fn3
 BYTE   W06
//  #06 //018   ----------------------------------------
 BYTE   PATT
  POIN2 Label_01051820
//  #06 //019   ----------------------------------------
 BYTE   PATT
  POIN2 Label_01051843
//  #06 //020   ----------------------------------------
 BYTE   PATT
  POIN2 Label_01051866
//  #06 //021   ----------------------------------------
 BYTE   PATT
  POIN2 Label_01051889
//  #06 //022   ----------------------------------------
 BYTE   PATT
  POIN2 Label_01051820
//  #06 //023   ----------------------------------------
 BYTE   PATT
  POIN2 Label_01051843
//  #06 //024   ----------------------------------------
 BYTE   PATT
  POIN2 Label_01051866
//  #06 //025   ----------------------------------------
 BYTE   PATT
  POIN2 Label_010518BB
//  #06 //026   ----------------------------------------
 BYTE   PATT
  POIN2 Label_010518DE
//  #06 //027   ----------------------------------------
 BYTE   PATT
  POIN2 Label_01051901
//  #06 //028   ----------------------------------------
 BYTE   PATT
  POIN2 Label_01051924
//  #06 //029   ----------------------------------------
 BYTE   PATT
  POIN2 Label_01051947
//  #06 //030   ----------------------------------------
 BYTE   PATT
  POIN2 Label_0105198A
//  #06 //031   ----------------------------------------
 BYTE   N06  Fn4  v127
 BYTE   W06
 BYTE   Dn4
 BYTE   W06
 BYTE   Ds4
 BYTE   W06
 BYTE   Cn4
 BYTE   W06
 BYTE   Ds3
 BYTE   W06
 BYTE   Ds4
 BYTE   W06
 BYTE   Cn4
 BYTE   W06
 BYTE   Ds3
 BYTE   W06
 BYTE   Ds4
 BYTE   W06
 BYTE   Cn4
 BYTE   W06
 BYTE   Ds4
 BYTE   W06
 BYTE   Cn4
 BYTE   W06
 BYTE   Ds3
 BYTE   W06
 BYTE   Ds4
 BYTE   W06
 BYTE   Cn4
 BYTE   W06
 BYTE   Ds3
 BYTE   W06
//  #06 //032   ----------------------------------------
 BYTE   Ds4
 BYTE   W06
 BYTE   Cn4
 BYTE   W06
 BYTE   Dn4
 BYTE   W06
 BYTE   Bn3
 BYTE   W06
 BYTE   En3
 BYTE   W06
 BYTE   Dn4
 BYTE   W06
 BYTE   Bn3
 BYTE   W06
 BYTE   En3
 BYTE   W06
 BYTE   Dn4
 BYTE   W06
 BYTE   Bn3
 BYTE   W06
 BYTE   Dn4
 BYTE   W06
 BYTE   Bn3
 BYTE   W06
 BYTE   En3
 BYTE   W06
 BYTE   Dn4
 BYTE   W06
 BYTE   Bn3
 BYTE   W06
 BYTE   En3
 BYTE   W06
//  #06 //033   ----------------------------------------
 BYTE   Dn4
 BYTE   W06
 BYTE   N05  Bn3
 BYTE   W05
 BYTE   VOICE   11
 BYTE   W01
 BYTE   N06  Gn3
 BYTE   W06
 BYTE   Ds3
 BYTE   W06
 BYTE   Gs2
 BYTE   W06
 BYTE   Gn3
 BYTE   W06
 BYTE   Ds3
 BYTE   W06
 BYTE   Gs2
 BYTE   W06
 BYTE   Gn3
 BYTE   W06
 BYTE   Ds3
 BYTE   W06
 BYTE   Gn3
 BYTE   W06
 BYTE   Ds3
 BYTE   W06
 BYTE   Gs2
 BYTE   W06
 BYTE   Gn3
 BYTE   W06
 BYTE   Ds3
 BYTE   W06
 BYTE   Gs2
 BYTE   W06
//  #06 //034   ----------------------------------------
 BYTE   Gn3
 BYTE   W06
 BYTE   Ds3
 BYTE   W06
 BYTE   Fn3
 BYTE   W06
 BYTE   Dn3
 BYTE   W06
 BYTE   Fn2
 BYTE   W06
 BYTE   Fn3
 BYTE   W06
 BYTE   Dn3
 BYTE   W06
 BYTE   Fn2
 BYTE   W06
 BYTE   Fn3
 BYTE   W06
 BYTE   Dn3
 BYTE   W06
 BYTE   Fn3
 BYTE   W06
 BYTE   Dn3
 BYTE   W06
 BYTE   Fn2
 BYTE   W06
 BYTE   Fn3
 BYTE   W06
 BYTE   Dn3
 BYTE   W06
 BYTE   Fn2
 BYTE   W06
//  #06 //035   ----------------------------------------
 BYTE   Fn3
 BYTE   W06
 BYTE   Dn3
 BYTE   W06
 BYTE   Gn3
 BYTE   W06
 BYTE   Dn3
 BYTE   W06
 BYTE   Gn2
 BYTE   W06
 BYTE   Gn3
 BYTE   W06
 BYTE   Dn3
 BYTE   W06
 BYTE   Gn2
 BYTE   W06
 BYTE   Gn3
 BYTE   W06
 BYTE   Dn3
 BYTE   W06
 BYTE   Gn3
 BYTE   W06
 BYTE   Dn3
 BYTE   W06
 BYTE   Gn2
 BYTE   W06
 BYTE   Gn3
 BYTE   W06
 BYTE   Dn3
 BYTE   W06
 BYTE   Gn2
 BYTE   W06
//  #06 //036   ----------------------------------------
 BYTE   Gn3
 BYTE   W06
 BYTE   Dn3
 BYTE   W06
 BYTE   Gn3
 BYTE   W06
 BYTE   En3
 BYTE   W06
 BYTE   An2
 BYTE   W06
 BYTE   Gn3
 BYTE   W06
 BYTE   En3
 BYTE   W06
 BYTE   An2
 BYTE   W06
 BYTE   Gn3
 BYTE   W06
 BYTE   En3
 BYTE   W06
 BYTE   Gn3
 BYTE   W06
 BYTE   En3
 BYTE   W06
 BYTE   An2
 BYTE   W06
 BYTE   Gn3
 BYTE   W06
 BYTE   En3
 BYTE   W06
 BYTE   An2
 BYTE   W06
//  #06 //037   ----------------------------------------
 BYTE   Gn3
 BYTE   W06
 BYTE   En3
 BYTE   W06
 BYTE   An3
 BYTE   W06
 BYTE   Fn3
 BYTE   W06
 BYTE   Fn2
 BYTE   W06
 BYTE   An3
 BYTE   W06
 BYTE   Fn3
 BYTE   W06
 BYTE   Fn2
 BYTE   W06
 BYTE   An3
 BYTE   W06
 BYTE   Fn3
 BYTE   W06
 BYTE   An3
 BYTE   W06
 BYTE   Fn3
 BYTE   W06
 BYTE   Fn2
 BYTE   W06
 BYTE   An3
 BYTE   W06
 BYTE   Fn3
 BYTE   W06
 BYTE   Fn2
 BYTE   W06
//  #06 //038   ----------------------------------------
 BYTE   An3
 BYTE   W06
 BYTE   Fn3
 BYTE   W06
 BYTE   An3
 BYTE   W06
 BYTE   Fn3
 BYTE   W06
 BYTE   Fn2
 BYTE   W06
 BYTE   An3
 BYTE   W06
 BYTE   Fn3
 BYTE   W06
 BYTE   Fn2
 BYTE   W06
 BYTE   An3
 BYTE   W06
 BYTE   Fn3
 BYTE   W06
 BYTE   An3
 BYTE   W06
 BYTE   Fn3
 BYTE   W06
 BYTE   Fn2
 BYTE   W06
 BYTE   An3
 BYTE   W06
 BYTE   Fn3
 BYTE   W06
 BYTE   Fn2
 BYTE   W06
//  #06 //039   ----------------------------------------
 BYTE   An3
 BYTE   W06
 BYTE   Fn3
 BYTE   W06
 BYTE   Bn3
 BYTE   W06
 BYTE   Gn3
 BYTE   W06
 BYTE   Gn2
 BYTE   W06
 BYTE   Bn3
 BYTE   W06
 BYTE   Gn3
 BYTE   W06
 BYTE   Gn2
 BYTE   W06
 BYTE   Bn3
 BYTE   W06
 BYTE   Gn3
 BYTE   W06
 BYTE   Bn3
 BYTE   W06
 BYTE   Gn3
 BYTE   W06
 BYTE   Gn2
 BYTE   W06
 BYTE   Bn3
 BYTE   W06
 BYTE   Gn3
 BYTE   W06
 BYTE   Gn2
 BYTE   W06
//  #06 //040   ----------------------------------------
 BYTE   Bn3
 BYTE   W06
 BYTE   Gn3
 BYTE   W06
 BYTE   Cs4
 BYTE   W06
 BYTE   An3
 BYTE   W06
 BYTE   An2
 BYTE   W06
 BYTE   Cs4
 BYTE   W06
 BYTE   An3
 BYTE   W06
 BYTE   An2
 BYTE   W06
 BYTE   Cs4
 BYTE   W06
 BYTE   An3
 BYTE   W06
 BYTE   En4
 BYTE   W06
 BYTE   Cs4
 BYTE   W06
 BYTE   An2
 BYTE   W06
 BYTE   En4
 BYTE   W06
 BYTE   Cs4
 BYTE   W06
 BYTE   An2
 BYTE   W06
//  #06 //041   ----------------------------------------
 BYTE   En4
 BYTE   W06
 BYTE   Cs4
 BYTE   W05
 BYTE   VOICE   4
 BYTE   W01
 BYTE   N05  An3
 BYTE   W06
 BYTE   Fn3
 BYTE   W06
 BYTE   Fn2
 BYTE   W06
 BYTE   An3
 BYTE   W06
 BYTE   Fn3
 BYTE   W06
 BYTE   Fn2
 BYTE   W06
 BYTE   An3
 BYTE   W06
 BYTE   Fn3
 BYTE   W06
 BYTE   An3
 BYTE   W06
 BYTE   Fn3
 BYTE   W06
 BYTE   Fn2
 BYTE   W06
 BYTE   An3
 BYTE   W06
 BYTE   Fn3
 BYTE   W06
 BYTE   Fn2
 BYTE   W06
//  #06 //042   ----------------------------------------
 BYTE   An3
 BYTE   W06
 BYTE   Fn3
 BYTE   W06
 BYTE   An3
 BYTE   W06
 BYTE   Fn3
 BYTE   W06
 BYTE   Fn2
 BYTE   W06
 BYTE   An3
 BYTE   W06
 BYTE   Fn3
 BYTE   W06
 BYTE   Fn2
 BYTE   W06
 BYTE   An3
 BYTE   W06
 BYTE   Fn3
 BYTE   W06
 BYTE   An3
 BYTE   W06
 BYTE   Fn3
 BYTE   W06
 BYTE   Fn2
 BYTE   W06
 BYTE   An3
 BYTE   W06
 BYTE   Fn3
 BYTE   W06
 BYTE   Fn2
 BYTE   W06
//  #06 //043   ----------------------------------------
 BYTE   An3
 BYTE   W06
 BYTE   Fn3
 BYTE   W06
 BYTE   Gn3
 BYTE   W06
 BYTE   En3
 BYTE   W06
 BYTE   En2
 BYTE   W06
 BYTE   Gn3
 BYTE   W06
 BYTE   En3
 BYTE   W06
 BYTE   En2
 BYTE   W06
 BYTE   Gn3
 BYTE   W06
 BYTE   En3
 BYTE   W06
 BYTE   Gn3
 BYTE   W06
 BYTE   En3
 BYTE   W06
 BYTE   En2
 BYTE   W06
 BYTE   Gn3
 BYTE   W06
 BYTE   En3
 BYTE   W06
 BYTE   En2
 BYTE   W06
//  #06 //044   ----------------------------------------
 BYTE   Gn3
 BYTE   W06
 BYTE   En3
 BYTE   W06
 BYTE   Gn3
 BYTE   W06
 BYTE   En3
 BYTE   W06
 BYTE   An2
 BYTE   W06
 BYTE   Gn3
 BYTE   W06
 BYTE   En3
 BYTE   W06
 BYTE   An2
 BYTE   W06
 BYTE   Gn3
 BYTE   W06
 BYTE   En3
 BYTE   W06
 BYTE   Gn3
 BYTE   W06
 BYTE   En3
 BYTE   W06
 BYTE   An2
 BYTE   W06
 BYTE   Gn3
 BYTE   W06
 BYTE   En3
 BYTE   W06
 BYTE   An2
 BYTE   W06
//  #06 //045   ----------------------------------------
 BYTE   Gn3
 BYTE   W06
 BYTE   En3
 BYTE   W06
 BYTE   An3
 BYTE   W06
 BYTE   Fn3
 BYTE   W06
 BYTE   An2
 BYTE   W06
 BYTE   An3
 BYTE   W06
 BYTE   Fn3
 BYTE   W06
 BYTE   An2
 BYTE   W06
 BYTE   An3
 BYTE   W06
 BYTE   Fn3
 BYTE   W06
 BYTE   An3
 BYTE   W06
 BYTE   Fn3
 BYTE   W06
 BYTE   An2
 BYTE   W06
 BYTE   An3
 BYTE   W06
 BYTE   Fn3
 BYTE   W06
 BYTE   An2
 BYTE   W06
//  #06 //046   ----------------------------------------
 BYTE   An3
 BYTE   W06
 BYTE   Fn3
 BYTE   W06
 BYTE   Bn3
 BYTE   W06
 BYTE   Gn3
 BYTE   W06
 BYTE   Gn2
 BYTE   W06
 BYTE   Bn3
 BYTE   W06
 BYTE   Gn3
 BYTE   W06
 BYTE   Gn2
 BYTE   W06
 BYTE   Bn3
 BYTE   W06
 BYTE   Gn3
 BYTE   W06
 BYTE   Bn3
 BYTE   W06
 BYTE   Gn3
 BYTE   W06
 BYTE   Gn2
 BYTE   W06
 BYTE   Bn3
 BYTE   W06
 BYTE   Gn3
 BYTE   W06
 BYTE   Gn2
 BYTE   W06
//  #06 //047   ----------------------------------------
 BYTE   Bn3
 BYTE   W06
 BYTE   Gn3
 BYTE   W06
 BYTE   Cn4
 BYTE   W06
 BYTE   An3
 BYTE   W06
 BYTE   An2
 BYTE   W06
 BYTE   Cn4
 BYTE   W06
 BYTE   An3
 BYTE   W06
 BYTE   An2
 BYTE   W06
 BYTE   Cn4
 BYTE   W06
 BYTE   An3
 BYTE   W06
 BYTE   Cn4
 BYTE   W06
 BYTE   An3
 BYTE   W06
 BYTE   An2
 BYTE   W06
 BYTE   Cn4
 BYTE   W06
 BYTE   An3
 BYTE   W06
 BYTE   An2
 BYTE   W06
//  #06 //048   ----------------------------------------
 BYTE   Cn4
 BYTE   W06
 BYTE   An3
 BYTE   W06
 BYTE   Cn4
 BYTE   W06
 BYTE   An3
 BYTE   W06
 BYTE   An2
 BYTE   W06
 BYTE   Cn4
 BYTE   W06
 BYTE   An3
 BYTE   W06
 BYTE   An2
 BYTE   W06
 BYTE   Cn4
 BYTE   W06
 BYTE   An3
 BYTE   W06
 BYTE   Cn4
 BYTE   W06
 BYTE   An3
 BYTE   W06
 BYTE   Gn2
 BYTE   W06
 BYTE   Cn4
 BYTE   W06
 BYTE   An3
 BYTE   W06
 BYTE   Gn2
 BYTE   W06
//  #06 //049   ----------------------------------------
 BYTE   Cn4
 BYTE   W06
 BYTE   An3
 BYTE   W06
 BYTE   Cn4
 BYTE   W06
 BYTE   Gn3
 BYTE   W06
 BYTE   Gs2
 BYTE   W06
 BYTE   Cn4
 BYTE   W06
 BYTE   Gn3
 BYTE   W06
 BYTE   Gs2
 BYTE   W06
 BYTE   Cn4
 BYTE   W06
 BYTE   Gn3
 BYTE   W06
 BYTE   Cn4
 BYTE   W06
 BYTE   Gn3
 BYTE   W06
 BYTE   Gs2
 BYTE   W06
 BYTE   Cn4
 BYTE   W06
 BYTE   Gn3
 BYTE   W06
 BYTE   Gs2
 BYTE   W06
//  #06 //050   ----------------------------------------
 BYTE   Cn4
 BYTE   W06
 BYTE   Gn3
 BYTE   W06
 BYTE   Cn4
 BYTE   W06
 BYTE   Gn3
 BYTE   W06
 BYTE   As2
 BYTE   W06
 BYTE   Cn4
 BYTE   W06
 BYTE   Gn3
 BYTE   W06
 BYTE   As2
 BYTE   W06
 BYTE   Cn4
 BYTE   W06
 BYTE   Gn3
 BYTE   W06
 BYTE   Cn4
 BYTE   W06
 BYTE   Gn3
 BYTE   W06
 BYTE   As2
 BYTE   W06
 BYTE   Cn4
 BYTE   W06
 BYTE   Gn3
 BYTE   W06
 BYTE   As2
 BYTE   W06
//  #06 //051   ----------------------------------------
 BYTE   Cn4
 BYTE   W06
 BYTE   Gn3
 BYTE   W06
 BYTE   Bn3
 BYTE   W06
 BYTE   Gn3
 BYTE   W06
 BYTE   Gn2
 BYTE   W06
 BYTE   Bn3
 BYTE   W06
 BYTE   Gn3
 BYTE   W06
 BYTE   Gn2
 BYTE   W06
 BYTE   Bn3
 BYTE   W06
 BYTE   Gn3
 BYTE   W06
 BYTE   Bn3
 BYTE   W06
 BYTE   Gn3
 BYTE   W06
 BYTE   Gn2
 BYTE   W06
 BYTE   Bn3
 BYTE   W06
 BYTE   Gn3
 BYTE   W06
 BYTE   Gn2
 BYTE   W06
//  #06 //052   ----------------------------------------
 BYTE   Bn3
 BYTE   W06
 BYTE   Gn3
 BYTE   W06
 BYTE   Bn3
 BYTE   W06
 BYTE   Gn3
 BYTE   W06
 BYTE   Gn2
 BYTE   W06
 BYTE   Bn3
 BYTE   W06
 BYTE   Gn3
 BYTE   W06
 BYTE   Gn2
 BYTE   W06
 BYTE   Bn3
 BYTE   W06
 BYTE   Gn3
 BYTE   W06
 BYTE   Bn3
 BYTE   W06
 BYTE   Gn3
 BYTE   W06
 BYTE   Gn2
 BYTE   W06
 BYTE   Bn3
 BYTE   W06
 BYTE   Gn3
 BYTE   W12
//  #06 //053   ----------------------------------------
 BYTE   GoTo
  POIN2 Label_01051801
 BYTE   FINE

//**************** Track 7 (Midi-Chn.6) ****************//

KirbysDreamLand3RippleField1Psyche_007:
//  #07 //000   ----------------------------------------
 BYTE   KEYSH   KirbysDreamLand3RippleField1Psyche_key+0
 BYTE   VOICE   127
 BYTE   VOL   42*KirbysDreamLand3RippleField1Psyche_mvl/mxv
 BYTE   PAN   c_v+0
 BYTE   BEND   c_v+14
 BYTE   W72
 BYTE   N06  Dn1  v127
 BYTE   W06
 BYTE   N06
 BYTE   W06
 BYTE   BEND   c_v+4
 BYTE   N06
 BYTE   W06
 BYTE   BEND   c_v-11
 BYTE   N06
 BYTE   W06
//  #07 //001   ----------------------------------------
Label_0105105D:
 BYTE   BEND   c_v+14
 BYTE   N06  Bn0  v127
 BYTE   N06  Cn1  v100
 BYTE   W06
 BYTE   PAN   c_v-64
 BYTE   N06  Fs1  v084
 BYTE   W06
 BYTE   PAN   c_v+0
 BYTE   N06  Fs1  v096
 BYTE   W06
 BYTE   PAN   c_v+63
 BYTE   N06  Fs1  v112
 BYTE   W06
 BYTE   Dn1  v127
 BYTE   W06
 BYTE   PAN   c_v-64
 BYTE   N06  Fs1  v084
 BYTE   W06
 BYTE   PAN   c_v+0
 BYTE   N06  Fs1  v096
 BYTE   W06
 BYTE   PAN   c_v+63
 BYTE   N06  Fs1  v112
 BYTE   W06
 BYTE   PAN   c_v+0
 BYTE   N06  Bn0  v127
 BYTE   N06  Cn1  v100
 BYTE   W06
 BYTE   PAN   c_v-64
 BYTE   N06  Fs1  v084
 BYTE   W06
 BYTE   PAN   c_v+0
 BYTE   N06  Fs1  v096
 BYTE   W06
 BYTE   PAN   c_v+63
 BYTE   N06  Fs1  v112
 BYTE   W06
 BYTE   Dn1  v127
 BYTE   W06
 BYTE   PAN   c_v-64
 BYTE   N06  Fs1  v084
 BYTE   W06
 BYTE   PAN   c_v+0
 BYTE   N06  Fs1  v096
 BYTE   W06
 BYTE   PAN   c_v+63
 BYTE   N06  Fs1  v112
 BYTE   W06
//  #07 //002   ----------------------------------------
Label_010510BD:
 BYTE   PAN   c_v+0
 BYTE   N06  Bn0  v127
 BYTE   N06  Cn1  v100
 BYTE   W06
 BYTE   PAN   c_v-64
 BYTE   N06  Fs1  v084
 BYTE   W06
 BYTE   PAN   c_v+0
 BYTE   N06  Fs1  v096
 BYTE   W06
 BYTE   PAN   c_v+63
 BYTE   N06  Fs1  v112
 BYTE   W06
 BYTE   Dn1  v127
 BYTE   W06
 BYTE   PAN   c_v-64
 BYTE   N06  Fs1  v084
 BYTE   W06
 BYTE   PAN   c_v+0
 BYTE   N06  Fs1  v096
 BYTE   W06
 BYTE   PAN   c_v+63
 BYTE   N06  Fs1  v112
 BYTE   W06
 BYTE   PAN   c_v+0
 BYTE   N06  Bn0  v127
 BYTE   N06  Cn1  v100
 BYTE   W06
 BYTE   PAN   c_v-64
 BYTE   N06  Fs1  v084
 BYTE   W06
 BYTE   PAN   c_v+0
 BYTE   N06  Fs1  v096
 BYTE   W06
 BYTE   PAN   c_v+63
 BYTE   N06  Fs1  v112
 BYTE   W06
 BYTE   Dn1  v127
 BYTE   W06
 BYTE   PAN   c_v-64
 BYTE   N06  Fs1  v084
 BYTE   W06
 BYTE   PAN   c_v+0
 BYTE   N06  Fs1  v096
 BYTE   W06
 BYTE   PAN   c_v+63
 BYTE   N06  Fs1  v112
 BYTE   W06
 BYTE   PEND 
//  #07 //003   ----------------------------------------
 BYTE   PATT
  POIN2 Label_010510BD
//  #07 //004   ----------------------------------------
 BYTE   PATT
  POIN2 Label_010510BD
//  #07 //005   ----------------------------------------
 BYTE   PATT
  POIN2 Label_010510BD
//  #07 //006   ----------------------------------------
 BYTE   PATT
  POIN2 Label_010510BD
//  #07 //007   ----------------------------------------
 BYTE   PATT
  POIN2 Label_010510BD
//  #07 //008   ----------------------------------------
 BYTE   PATT
  POIN2 Label_010510BD
//  #07 //009   ----------------------------------------
 BYTE   PATT
  POIN2 Label_010510BD
//  #07 //010   ----------------------------------------
 BYTE   PATT
  POIN2 Label_010510BD
//  #07 //011   ----------------------------------------
 BYTE   PATT
  POIN2 Label_010510BD
//  #07 //012   ----------------------------------------
 BYTE   PATT
  POIN2 Label_010510BD
//  #07 //013   ----------------------------------------
 BYTE   PATT
  POIN2 Label_010510BD
//  #07 //014   ----------------------------------------
 BYTE   PATT
  POIN2 Label_010510BD
//  #07 //015   ----------------------------------------
 BYTE   PATT
  POIN2 Label_010510BD
//  #07 //016   ----------------------------------------
 BYTE   PAN   c_v+0
 BYTE   N06  Bn0  v127
 BYTE   N06  Cn1  v100
 BYTE   W06
 BYTE   PAN   c_v-64
 BYTE   N06  Fs1  v084
 BYTE   W06
 BYTE   PAN   c_v+0
 BYTE   N06  Fs1  v096
 BYTE   W06
 BYTE   PAN   c_v+63
 BYTE   N06  Fs1  v112
 BYTE   W06
 BYTE   Dn1  v127
 BYTE   W06
 BYTE   PAN   c_v-64
 BYTE   N06  Fs1  v084
 BYTE   W06
 BYTE   PAN   c_v+0
 BYTE   N06  Fs1  v096
 BYTE   W06
 BYTE   PAN   c_v+63
 BYTE   N06  Fs1  v112
 BYTE   W06
 BYTE   PAN   c_v+0
 BYTE   N06  Bn0  v127
 BYTE   N06  Cn1  v100
 BYTE   W06
 BYTE   PAN   c_v-64
 BYTE   N06  Fs1  v084
 BYTE   W06
 BYTE   PAN   c_v+0
 BYTE   N06  Fs1  v096
 BYTE   W06
 BYTE   PAN   c_v+63
 BYTE   N06  Fs1  v112
 BYTE   W06
 BYTE   Dn1  v127
 BYTE   W06
 BYTE   PAN   c_v-64
 BYTE   N06  Fs1  v084
 BYTE   W06
 BYTE   PAN   c_v+0
 BYTE   N06  Dn1  v127
 BYTE   N06  Fs1  v096
 BYTE   W06
 BYTE   PAN   c_v+63
 BYTE   N06  Dn1
 BYTE   N06  Fs1  v112
 BYTE   W06
//  #07 //017   ----------------------------------------
 BYTE   PATT
  POIN2 Label_010510BD
//  #07 //018   ----------------------------------------
 BYTE   PATT
  POIN2 Label_010510BD
//  #07 //019   ----------------------------------------
 BYTE   PATT
  POIN2 Label_010510BD
//  #07 //020   ----------------------------------------
 BYTE   PATT
  POIN2 Label_010510BD
//  #07 //021   ----------------------------------------
 BYTE   PATT
  POIN2 Label_010510BD
//  #07 //022   ----------------------------------------
 BYTE   PATT
  POIN2 Label_010510BD
//  #07 //023   ----------------------------------------
 BYTE   PATT
  POIN2 Label_010510BD
//  #07 //024   ----------------------------------------
 BYTE   PATT
  POIN2 Label_010510BD
//  #07 //025   ----------------------------------------
 BYTE   PATT
  POIN2 Label_010510BD
//  #07 //026   ----------------------------------------
 BYTE   PATT
  POIN2 Label_010510BD
//  #07 //027   ----------------------------------------
 BYTE   PATT
  POIN2 Label_010510BD
//  #07 //028   ----------------------------------------
 BYTE   PATT
  POIN2 Label_010510BD
//  #07 //029   ----------------------------------------
 BYTE   PATT
  POIN2 Label_010510BD
//  #07 //030   ----------------------------------------
 BYTE   PATT
  POIN2 Label_010510BD
//  #07 //031   ----------------------------------------
 BYTE   PATT
  POIN2 Label_010510BD
//  #07 //032   ----------------------------------------
 BYTE   PAN   c_v+0
 BYTE   N06  Bn0  v127
 BYTE   N06  Cn1  v100
 BYTE   W06
 BYTE   PAN   c_v-64
 BYTE   N06  Fs1  v084
 BYTE   W06
 BYTE   PAN   c_v+0
 BYTE   N06  Fs1  v096
 BYTE   W06
 BYTE   PAN   c_v+63
 BYTE   N06  Fs1  v112
 BYTE   W06
 BYTE   Dn1  v127
 BYTE   W06
 BYTE   PAN   c_v-64
 BYTE   N06  Fs1  v084
 BYTE   W06
 BYTE   PAN   c_v+0
 BYTE   N06  Fs1  v096
 BYTE   W06
 BYTE   PAN   c_v+63
 BYTE   N06  Fs1  v112
 BYTE   W06
 BYTE   PAN   c_v+0
 BYTE   N06  Bn0  v127
 BYTE   N06  Cn1  v100
 BYTE   W06
 BYTE   PAN   c_v-64
 BYTE   N06  Fs1  v084
 BYTE   W06
 BYTE   PAN   c_v+0
 BYTE   N06  Fs1  v096
 BYTE   W06
 BYTE   PAN   c_v+63
 BYTE   N06  Dn1  v092
 BYTE   N06  Fs1  v112
 BYTE   W06
 BYTE   Dn1  v127
 BYTE   W06
 BYTE   PAN   c_v-64
 BYTE   N06
 BYTE   N06  Fs1  v084
 BYTE   W06
 BYTE   PAN   c_v+0
 BYTE   BEND   c_v+4
 BYTE   N06  Dn1  v127
 BYTE   N06  Fs1  v096
 BYTE   W06
 BYTE   PAN   c_v+63
 BYTE   BEND   c_v-11
 BYTE   N06  Dn1  v127
 BYTE   N06  Fs1  v112
 BYTE   W06
//  #07 //033   ----------------------------------------
 BYTE   PAN   c_v+0
 BYTE   BEND   c_v+14
 BYTE   N06  Bn0  v127
 BYTE   N06  Cn1  v100
 BYTE   W06
 BYTE   PAN   c_v-64
 BYTE   N06  Fs1  v084
 BYTE   W06
 BYTE   PAN   c_v+0
 BYTE   N06  Fs1  v096
 BYTE   W06
 BYTE   PAN   c_v+63
 BYTE   N06  Fs1  v112
 BYTE   W06
 BYTE   Dn1  v127
 BYTE   W06
 BYTE   PAN   c_v-64
 BYTE   N06  Fs1  v084
 BYTE   W06
 BYTE   PAN   c_v+0
 BYTE   N06  Fs1  v096
 BYTE   W06
 BYTE   PAN   c_v+63
 BYTE   N06  Fs1  v112
 BYTE   W06
 BYTE   PAN   c_v+0
 BYTE   N06  Bn0  v127
 BYTE   N06  Cn1  v100
 BYTE   W06
 BYTE   PAN   c_v-64
 BYTE   N06  Fs1  v084
 BYTE   W06
 BYTE   PAN   c_v+0
 BYTE   N06  Fs1  v096
 BYTE   W06
 BYTE   PAN   c_v+63
 BYTE   N06  Fs1  v112
 BYTE   W06
 BYTE   Dn1  v127
 BYTE   W06
 BYTE   PAN   c_v-64
 BYTE   N06  Fs1  v084
 BYTE   W06
 BYTE   PAN   c_v+0
 BYTE   N06  Fs1  v096
 BYTE   W06
 BYTE   PAN   c_v+63
 BYTE   N06  Fs1  v112
 BYTE   W06
//  #07 //034   ----------------------------------------
 BYTE   PATT
  POIN2 Label_010510BD
//  #07 //035   ----------------------------------------
 BYTE   PATT
  POIN2 Label_010510BD
//  #07 //036   ----------------------------------------
 BYTE   PATT
  POIN2 Label_010510BD
//  #07 //037   ----------------------------------------
 BYTE   PATT
  POIN2 Label_010510BD
//  #07 //038   ----------------------------------------
 BYTE   PATT
  POIN2 Label_010510BD
//  #07 //039   ----------------------------------------
 BYTE   PATT
  POIN2 Label_010510BD
//  #07 //040   ----------------------------------------
 BYTE   PATT
  POIN2 Label_010510BD
//  #07 //041   ----------------------------------------
 BYTE   PATT
  POIN2 Label_010510BD
//  #07 //042   ----------------------------------------
 BYTE   PATT
  POIN2 Label_010510BD
//  #07 //043   ----------------------------------------
 BYTE   PATT
  POIN2 Label_010510BD
//  #07 //044   ----------------------------------------
 BYTE   PATT
  POIN2 Label_010510BD
//  #07 //045   ----------------------------------------
 BYTE   PATT
  POIN2 Label_010510BD
//  #07 //046   ----------------------------------------
 BYTE   PATT
  POIN2 Label_010510BD
//  #07 //047   ----------------------------------------
 BYTE   PATT
  POIN2 Label_010510BD
//  #07 //048   ----------------------------------------
 BYTE   PATT
  POIN2 Label_010510BD
//  #07 //049   ----------------------------------------
 BYTE   PATT
  POIN2 Label_010510BD
//  #07 //050   ----------------------------------------
 BYTE   PATT
  POIN2 Label_010510BD
//  #07 //051   ----------------------------------------
 BYTE   PATT
  POIN2 Label_010510BD
//  #07 //052   ----------------------------------------
 BYTE   PAN   c_v+0
 BYTE   N06  Bn0  v127
 BYTE   N06  Cn1  v100
 BYTE   W06
 BYTE   PAN   c_v-64
 BYTE   N06  Fs1  v084
 BYTE   W06
 BYTE   PAN   c_v+0
 BYTE   N06  Fs1  v096
 BYTE   W06
 BYTE   PAN   c_v+63
 BYTE   N06  Fs1  v112
 BYTE   W06
 BYTE   Dn1  v127
 BYTE   W06
 BYTE   PAN   c_v-64
 BYTE   N06  Fs1  v084
 BYTE   W06
 BYTE   PAN   c_v+0
 BYTE   N06  Fs1  v096
 BYTE   W06
 BYTE   PAN   c_v+63
 BYTE   N06  Fs1  v112
 BYTE   W06
 BYTE   PAN   c_v+0
 BYTE   N06  Bn0  v127
 BYTE   N06  Cn1  v100
 BYTE   W06
 BYTE   PAN   c_v-64
 BYTE   N06  Fs1  v084
 BYTE   W06
 BYTE   PAN   c_v+0
 BYTE   N06  Dn1  v127
 BYTE   N06  Fs1  v096
 BYTE   W06
 BYTE   PAN   c_v+63
 BYTE   N06  Dn1  v080
 BYTE   N06  Fs1  v112
 BYTE   W06
 BYTE   Dn1  v127
 BYTE   W06
 BYTE   PAN   c_v-64
 BYTE   N06
 BYTE   N06  Fs1  v084
 BYTE   W06
 BYTE   PAN   c_v+0
 BYTE   BEND   c_v+4
 BYTE   N06  Dn1  v127
 BYTE   N06  Fs1  v096
 BYTE   W12
//  #07 //053   ----------------------------------------
 BYTE   GoTo
  POIN2 Label_0105105D
 BYTE   FINE

//**************** Track 8 (Midi-Chn.7) ****************//

KirbysDreamLand3RippleField1Psyche_008:
//  #08 //000   ----------------------------------------
 BYTE   KEYSH   KirbysDreamLand3RippleField1Psyche_key+0
 BYTE   VOICE   105
 BYTE   MOD 0
 BYTE   PAN   c_v+0
 BYTE   VOL   48*KirbysDreamLand3RippleField1Psyche_mvl/mxv
 BYTE   W96
//  #08 //001   ----------------------------------------
Label_01050D07:
 BYTE   W96
//  #08 //002   ----------------------------------------
 BYTE   W96
//  #08 //003   ----------------------------------------
 BYTE   W96
//  #08 //004   ----------------------------------------
 BYTE   W96
//  #08 //005   ----------------------------------------
 BYTE   W96
//  #08 //006   ----------------------------------------
 BYTE   W96
//  #08 //007   ----------------------------------------
 BYTE   W96
//  #08 //008   ----------------------------------------
 BYTE   W96
//  #08 //009   ----------------------------------------
 BYTE   TIE  An4  v112
 BYTE   W96
//  #08 //010   ----------------------------------------
 BYTE   W24
 BYTE   EOT
 BYTE   W12
 BYTE   N06  An4  v108
 BYTE   W06
 BYTE   Bn4  v116
 BYTE   W06
 BYTE   N12  En5  v127
 BYTE   W18
 BYTE   Dn5  v120
 BYTE   W18
 BYTE   Cn5  v108
 BYTE   W12
//  #08 //011   ----------------------------------------
 BYTE   Bn4  v104
 BYTE   W18
 BYTE   En4  v092
 BYTE   W18
 BYTE   Bn4  v100
 BYTE   W18
 BYTE   TIE  En4  v092
 BYTE   W42
//  #08 //012   ----------------------------------------
 BYTE   W90
 BYTE   EOT
 BYTE   W06
//  #08 //013   ----------------------------------------
 BYTE   N12  Cn4  v096
 BYTE   W18
 BYTE   Gn4  v112
 BYTE   W18
 BYTE   Cn4  v100
 BYTE   W12
 BYTE   N78  Gn4  v116
 BYTE   W48
//  #08 //014   ----------------------------------------
 BYTE   W36
 BYTE   N06  Ds4  v108
 BYTE   W06
 BYTE   Fn4  v112
 BYTE   W06
 BYTE   N12  Gn4  v120
 BYTE   W18
 BYTE   As4  v127
 BYTE   W18
 BYTE   Gs4  v124
 BYTE   W12
//  #08 //015   ----------------------------------------
 BYTE   TIE  Gn4  v116
 BYTE   W96
//  #08 //016   ----------------------------------------
 BYTE   W96
//  #08 //017   ----------------------------------------
 BYTE   EOT
 BYTE   W96
//  #08 //018   ----------------------------------------
 BYTE   W96
//  #08 //019   ----------------------------------------
 BYTE   W96
//  #08 //020   ----------------------------------------
 BYTE   W96
//  #08 //021   ----------------------------------------
 BYTE   W96
//  #08 //022   ----------------------------------------
 BYTE   W96
//  #08 //023   ----------------------------------------
 BYTE   W96
//  #08 //024   ----------------------------------------
 BYTE   W96
//  #08 //025   ----------------------------------------
 BYTE   TIE  An4  v112
 BYTE   W96
//  #08 //026   ----------------------------------------
 BYTE   W24
 BYTE   EOT
 BYTE   W12
 BYTE   N06  An4  v108
 BYTE   W06
 BYTE   Bn4  v116
 BYTE   W06
 BYTE   N12  En5  v127
 BYTE   W18
 BYTE   Dn5  v120
 BYTE   W18
 BYTE   Cn5  v108
 BYTE   W12
//  #08 //027   ----------------------------------------
 BYTE   Bn4  v104
 BYTE   W18
 BYTE   Cn5  v092
 BYTE   W18
 BYTE   Dn5  v100
 BYTE   W12
 BYTE   Gn4  v076
 BYTE   W18
 BYTE   Bn4
 BYTE   W18
 BYTE   N24  En4
 BYTE   W12
//  #08 //028   ----------------------------------------
 BYTE   W12
 BYTE   N72  Gn4  v120
 BYTE   W84
//  #08 //029   ----------------------------------------
 BYTE   N12  Cn4  v080
 BYTE   W18
 BYTE   Gn4  v084
 BYTE   W18
 BYTE   Cn4  v108
 BYTE   W12
 BYTE   N72  Gn4  v120
 BYTE   W48
//  #08 //030   ----------------------------------------
 BYTE   W36
 BYTE   N12  Dn4  v108
 BYTE   W12
 BYTE   Fn4  v120
 BYTE   W18
 BYTE   En4  v127
 BYTE   W18
 BYTE   Dn4  v124
 BYTE   W12
//  #08 //031   ----------------------------------------
 BYTE   TIE  Cn4  v116
 BYTE   W96
//  #08 //032   ----------------------------------------
 BYTE   W96
//  #08 //033   ----------------------------------------
 BYTE   EOT
 BYTE   W96
//  #08 //034   ----------------------------------------
 BYTE   W96
//  #08 //035   ----------------------------------------
 BYTE   W96
//  #08 //036   ----------------------------------------
 BYTE   W96
//  #08 //037   ----------------------------------------
 BYTE   W96
//  #08 //038   ----------------------------------------
 BYTE   W96
//  #08 //039   ----------------------------------------
 BYTE   W96
//  #08 //040   ----------------------------------------
 BYTE   W72
 BYTE   N24  An4  v112
 BYTE   W24
//  #08 //041   ----------------------------------------
 BYTE   TIE  An5  v100
 BYTE   W96
//  #08 //042   ----------------------------------------
 BYTE   W36
 BYTE   EOT
 BYTE   N12
 BYTE   W12
 BYTE   Gn5  v096
 BYTE   W12
 BYTE   Fn5  v092
 BYTE   W12
 BYTE   En5  v088
 BYTE   W12
 BYTE   Dn5  v084
 BYTE   W12
//  #08 //043   ----------------------------------------
 BYTE   N18  En5  v108
 BYTE   W18
 BYTE   Fn5  v092
 BYTE   W18
 BYTE   N12  Gn5  v088
 BYTE   W12
 BYTE   N18  Fn5  v108
 BYTE   W18
 BYTE   En5  v092
 BYTE   W18
 BYTE   N12  Dn5  v088
 BYTE   W12
//  #08 //044   ----------------------------------------
 BYTE   N48  Cs5  v092
 BYTE   W48
 BYTE   N24  An4  v096
 BYTE   W24
 BYTE   An4  v084
 BYTE   W24
//  #08 //045   ----------------------------------------
 BYTE   N32  En5  v096
 BYTE   W36
 BYTE   An4  v092
 BYTE   W36
 BYTE   N09  Cn5  v088
 BYTE   W12
 BYTE   Dn5  v096
 BYTE   W12
//  #08 //046   ----------------------------------------
 BYTE   N32  En5
 BYTE   W36
 BYTE   N21  Gn4  v092
 BYTE   W24
 BYTE   N15  Cn5  v088
 BYTE   W18
 BYTE   Dn5  v096
 BYTE   W18
//  #08 //047   ----------------------------------------
 BYTE   N44  En5
 BYTE   W44
 BYTE   W01
 BYTE   N48  An4  v088
 BYTE   W48
 BYTE   W03
//  #08 //048   ----------------------------------------
 BYTE   N32  Dn5
 BYTE   W36
 BYTE   En5  v096
 BYTE   W36
 BYTE   N21  Dn5  v088
 BYTE   W24
//  #08 //049   ----------------------------------------
 BYTE   W96
//  #08 //050   ----------------------------------------
 BYTE   W96
//  #08 //051   ----------------------------------------
 BYTE   W96
//  #08 //052   ----------------------------------------
 BYTE   W96
//  #08 //053   ----------------------------------------
 BYTE   GoTo
  POIN2 Label_01050D07
 BYTE   FINE

//**************** Track 9 (Midi-Chn.8) ****************//

KirbysDreamLand3RippleField1Psyche_009:
//  #09 //000   ----------------------------------------
 BYTE   KEYSH   KirbysDreamLand3RippleField1Psyche_key+0
 BYTE   VOICE   105
 BYTE   MOD 0
 BYTE   PAN   c_v-29
 BYTE   VOL   23*KirbysDreamLand3RippleField1Psyche_mvl/mxv
 BYTE   BEND   c_v-3
 BYTE   W96
//  #09 //001   ----------------------------------------
Label_01050E79:
 BYTE   W96
//  #09 //002   ----------------------------------------
 BYTE   W96
//  #09 //003   ----------------------------------------
 BYTE   W96
//  #09 //004   ----------------------------------------
 BYTE   W96
//  #09 //005   ----------------------------------------
 BYTE   W96
//  #09 //006   ----------------------------------------
 BYTE   W96
//  #09 //007   ----------------------------------------
 BYTE   W96
//  #09 //008   ----------------------------------------
 BYTE   W96
//  #09 //009   ----------------------------------------
Label_01050E81:
 BYTE   W12
 BYTE   TIE  An4  v112
 BYTE   W84
 BYTE   PEND 
//  #09 //010   ----------------------------------------
 BYTE   W36
 BYTE   EOT
 BYTE   W12
 BYTE   N06  An4  v108
 BYTE   W06
 BYTE   Bn4  v116
 BYTE   W06
 BYTE   N12  En5  v127
 BYTE   W18
 BYTE   Dn5  v120
 BYTE   W18
//  #09 //011   ----------------------------------------
 BYTE   Cn5  v108
 BYTE   W12
 BYTE   Bn4  v104
 BYTE   W18
 BYTE   En4  v092
 BYTE   W18
 BYTE   Bn4  v100
 BYTE   W18
 BYTE   TIE  En4  v092
 BYTE   W30
//  #09 //012   ----------------------------------------
 BYTE   W96
//  #09 //013   ----------------------------------------
 BYTE   W06
 BYTE   EOT
 BYTE   W06
 BYTE   N12  Cn4  v096
 BYTE   W18
 BYTE   Gn4  v112
 BYTE   W18
 BYTE   Cn4  v100
 BYTE   W12
 BYTE   N78  Gn4  v116
 BYTE   W36
//  #09 //014   ----------------------------------------
 BYTE   W48
 BYTE   N06  Ds4  v108
 BYTE   W06
 BYTE   Fn4  v112
 BYTE   W06
 BYTE   N12  Gn4  v120
 BYTE   W18
 BYTE   As4  v127
 BYTE   W18
//  #09 //015   ----------------------------------------
 BYTE   Gs4  v124
 BYTE   W12
 BYTE   TIE  Gn4  v116
 BYTE   W84
//  #09 //016   ----------------------------------------
 BYTE   W96
//  #09 //017   ----------------------------------------
 BYTE   W12
 BYTE   EOT
 BYTE   W84
//  #09 //018   ----------------------------------------
 BYTE   W96
//  #09 //019   ----------------------------------------
 BYTE   W96
//  #09 //020   ----------------------------------------
 BYTE   W96
//  #09 //021   ----------------------------------------
 BYTE   W96
//  #09 //022   ----------------------------------------
 BYTE   W96
//  #09 //023   ----------------------------------------
 BYTE   W96
//  #09 //024   ----------------------------------------
 BYTE   W96
//  #09 //025   ----------------------------------------
 BYTE   PATT
  POIN2 Label_01050E81
//  #09 //026   ----------------------------------------
 BYTE   W36
 BYTE   EOT
 BYTE   An4
 BYTE   W12
 BYTE   N06  An4  v108
 BYTE   W06
 BYTE   Bn4  v116
 BYTE   W06
 BYTE   N12  En5  v127
 BYTE   W18
 BYTE   Dn5  v120
 BYTE   W18
//  #09 //027   ----------------------------------------
 BYTE   Cn5  v108
 BYTE   W12
 BYTE   Bn4  v104
 BYTE   W18
 BYTE   Cn5  v092
 BYTE   W18
 BYTE   Dn5  v100
 BYTE   W12
 BYTE   Gn4  v076
 BYTE   W18
 BYTE   Bn4
 BYTE   W18
//  #09 //028   ----------------------------------------
 BYTE   N24  En4
 BYTE   W24
 BYTE   N72  Gn4  v120
 BYTE   W72
//  #09 //029   ----------------------------------------
 BYTE   W12
 BYTE   N12  Cn4  v080
 BYTE   W18
 BYTE   Gn4  v084
 BYTE   W18
 BYTE   Cn4  v108
 BYTE   W12
 BYTE   N72  Gn4  v120
 BYTE   W36
//  #09 //030   ----------------------------------------
 BYTE   W48
 BYTE   N12  Dn4  v108
 BYTE   W12
 BYTE   Fn4  v120
 BYTE   W18
 BYTE   En4  v127
 BYTE   W18
//  #09 //031   ----------------------------------------
 BYTE   Dn4  v124
 BYTE   W12
 BYTE   TIE  Cn4  v116
 BYTE   W84
//  #09 //032   ----------------------------------------
 BYTE   W96
//  #09 //033   ----------------------------------------
 BYTE   W12
 BYTE   EOT
 BYTE   W84
//  #09 //034   ----------------------------------------
 BYTE   W96
//  #09 //035   ----------------------------------------
 BYTE   W96
//  #09 //036   ----------------------------------------
 BYTE   W96
//  #09 //037   ----------------------------------------
 BYTE   W96
//  #09 //038   ----------------------------------------
 BYTE   W96
//  #09 //039   ----------------------------------------
 BYTE   W96
//  #09 //040   ----------------------------------------
 BYTE   W84
 BYTE   N24  An4  v112
 BYTE   W12
//  #09 //041   ----------------------------------------
 BYTE   W12
 BYTE   TIE  An5  v100
 BYTE   W84
//  #09 //042   ----------------------------------------
 BYTE   W48
 BYTE   EOT
 BYTE   N12
 BYTE   W12
 BYTE   Gn5  v096
 BYTE   W12
 BYTE   Fn5  v092
 BYTE   W12
 BYTE   En5  v088
 BYTE   W12
//  #09 //043   ----------------------------------------
 BYTE   Dn5  v084
 BYTE   W12
 BYTE   N18  En5  v108
 BYTE   W18
 BYTE   Fn5  v092
 BYTE   W18
 BYTE   N12  Gn5  v088
 BYTE   W12
 BYTE   N18  Fn5  v108
 BYTE   W18
 BYTE   En5  v092
 BYTE   W18
//  #09 //044   ----------------------------------------
 BYTE   N12  Dn5  v088
 BYTE   W12
 BYTE   N48  Cs5  v092
 BYTE   W48
 BYTE   N24  An4  v096
 BYTE   W24
 BYTE   An4  v084
 BYTE   W12
//  #09 //045   ----------------------------------------
 BYTE   W12
 BYTE   N32  En5  v096
 BYTE   W36
 BYTE   An4  v092
 BYTE   W36
 BYTE   N09  Cn5  v088
 BYTE   W12
//  #09 //046   ----------------------------------------
 BYTE   Dn5  v096
 BYTE   W12
 BYTE   N32  En5
 BYTE   W36
 BYTE   N21  Gn4  v092
 BYTE   W24
 BYTE   N15  Cn5  v088
 BYTE   W18
 BYTE   Dn5  v096
 BYTE   W06
//  #09 //047   ----------------------------------------
 BYTE   W12
 BYTE   N44  En5
 BYTE   W44
 BYTE   W01
 BYTE   N48  An4  v088
 BYTE   W36
 BYTE   W03
//  #09 //048   ----------------------------------------
 BYTE   W12
 BYTE   N32  Dn5
 BYTE   W36
 BYTE   En5  v096
 BYTE   W36
 BYTE   N21  Dn5  v088
 BYTE   W12
//  #09 //049   ----------------------------------------
 BYTE   W96
//  #09 //050   ----------------------------------------
 BYTE   W96
//  #09 //051   ----------------------------------------
 BYTE   W96
//  #09 //052   ----------------------------------------
 BYTE   W96
//  #09 //053   ----------------------------------------
 BYTE   GoTo
  POIN2 Label_01050E79
 BYTE   FINE

//**************** Track 10 (Midi-Chn.9) ****************//

KirbysDreamLand3RippleField1Psyche_010:
//  #10 //000   ----------------------------------------
 BYTE   KEYSH   KirbysDreamLand3RippleField1Psyche_key+0
 BYTE   VOICE   76
 BYTE   MOD 0
 BYTE   VOL   48*KirbysDreamLand3RippleField1Psyche_mvl/mxv
 BYTE   PAN   c_v+0
 BYTE   W96
//  #10 //001   ----------------------------------------
Label_01050FB7:
 BYTE   W96
//  #10 //002   ----------------------------------------
 BYTE   W96
//  #10 //003   ----------------------------------------
 BYTE   W96
//  #10 //004   ----------------------------------------
 BYTE   W96
//  #10 //005   ----------------------------------------
 BYTE   W96
//  #10 //006   ----------------------------------------
 BYTE   W96
//  #10 //007   ----------------------------------------
 BYTE   W96
//  #10 //008   ----------------------------------------
 BYTE   W96
//  #10 //009   ----------------------------------------
 BYTE   W96
//  #10 //010   ----------------------------------------
 BYTE   W96
//  #10 //011   ----------------------------------------
 BYTE   W96
//  #10 //012   ----------------------------------------
 BYTE   W96
//  #10 //013   ----------------------------------------
 BYTE   W96
//  #10 //014   ----------------------------------------
 BYTE   W96
//  #10 //015   ----------------------------------------
 BYTE   W96
//  #10 //016   ----------------------------------------
 BYTE   W96
//  #10 //017   ----------------------------------------
 BYTE   TIE  Gn4  v127
 BYTE   W96
//  #10 //018   ----------------------------------------
 BYTE   W24
 BYTE   EOT
 BYTE   W12
 BYTE   N06  En4
 BYTE   W06
 BYTE   Fn4
 BYTE   W06
 BYTE   N18  Gn4
 BYTE   W18
 BYTE   Cn5
 BYTE   W18
 BYTE   N12  Gn4
 BYTE   W12
//  #10 //019   ----------------------------------------
 BYTE   N96
 BYTE   W96
//  #10 //020   ----------------------------------------
 BYTE   N84  Dn4
 BYTE   W96
//  #10 //021   ----------------------------------------
 BYTE   TIE  Gn4
 BYTE   W96
//  #10 //022   ----------------------------------------
 BYTE   W24
 BYTE   EOT
 BYTE   W12
 BYTE   N06  En4
 BYTE   W06
 BYTE   Fn4
 BYTE   W06
 BYTE   N15  Gn4
 BYTE   W18
 BYTE   N18  Cn5
 BYTE   W18
 BYTE   N12  Gn4
 BYTE   W12
//  #10 //023   ----------------------------------------
 BYTE   N96  Dn5
 BYTE   W96
//  #10 //024   ----------------------------------------
 BYTE   Fs5
 BYTE   W96
//  #10 //025   ----------------------------------------
 BYTE   W96
//  #10 //026   ----------------------------------------
 BYTE   W96
//  #10 //027   ----------------------------------------
 BYTE   W96
//  #10 //028   ----------------------------------------
 BYTE   W96
//  #10 //029   ----------------------------------------
 BYTE   W96
//  #10 //030   ----------------------------------------
 BYTE   W96
//  #10 //031   ----------------------------------------
 BYTE   W96
//  #10 //032   ----------------------------------------
 BYTE   W96
//  #10 //033   ----------------------------------------
 BYTE   W96
//  #10 //034   ----------------------------------------
 BYTE   W96
//  #10 //035   ----------------------------------------
 BYTE   W96
//  #10 //036   ----------------------------------------
 BYTE   W96
//  #10 //037   ----------------------------------------
 BYTE   W96
//  #10 //038   ----------------------------------------
 BYTE   W96
//  #10 //039   ----------------------------------------
 BYTE   W96
//  #10 //040   ----------------------------------------
 BYTE   W96
//  #10 //041   ----------------------------------------
 BYTE   W96
//  #10 //042   ----------------------------------------
 BYTE   W96
//  #10 //043   ----------------------------------------
 BYTE   W96
//  #10 //044   ----------------------------------------
 BYTE   W96
//  #10 //045   ----------------------------------------
 BYTE   W96
//  #10 //046   ----------------------------------------
 BYTE   W96
//  #10 //047   ----------------------------------------
 BYTE   W96
//  #10 //048   ----------------------------------------
 BYTE   W96
//  #10 //049   ----------------------------------------
 BYTE   W96
//  #10 //050   ----------------------------------------
 BYTE   W96
//  #10 //051   ----------------------------------------
 BYTE   W96
//  #10 //052   ----------------------------------------
 BYTE   W96
//  #10 //053   ----------------------------------------
 BYTE   GoTo
  POIN2 Label_01050FB7
 BYTE   FINE

//**************** Track 11 (Midi-Chn.10) ****************//

KirbysDreamLand3RippleField1Psyche_011:
//  #11 //000   ----------------------------------------
 BYTE   KEYSH   KirbysDreamLand3RippleField1Psyche_key+0
 BYTE   VOICE   76
 BYTE   MOD 0
 BYTE   VOL   20*KirbysDreamLand3RippleField1Psyche_mvl/mxv
 BYTE   PAN   c_v-34
 BYTE   W96
//  #11 //001   ----------------------------------------
Label_010523AB:
 BYTE   W96
//  #11 //002   ----------------------------------------
 BYTE   W96
//  #11 //003   ----------------------------------------
 BYTE   W96
//  #11 //004   ----------------------------------------
 BYTE   W96
//  #11 //005   ----------------------------------------
 BYTE   W96
//  #11 //006   ----------------------------------------
 BYTE   W96
//  #11 //007   ----------------------------------------
 BYTE   W96
//  #11 //008   ----------------------------------------
 BYTE   W96
//  #11 //009   ----------------------------------------
 BYTE   W96
//  #11 //010   ----------------------------------------
 BYTE   W96
//  #11 //011   ----------------------------------------
 BYTE   W96
//  #11 //012   ----------------------------------------
 BYTE   W96
//  #11 //013   ----------------------------------------
 BYTE   W96
//  #11 //014   ----------------------------------------
 BYTE   W96
//  #11 //015   ----------------------------------------
 BYTE   W96
//  #11 //016   ----------------------------------------
 BYTE   W96
//  #11 //017   ----------------------------------------
Label_010523BB:
 BYTE   W18
 BYTE   TIE  Gn4  v127
 BYTE   W78
 BYTE   PEND 
//  #11 //018   ----------------------------------------
 BYTE   W42
 BYTE   EOT
 BYTE   W12
 BYTE   N06  En4
 BYTE   W06
 BYTE   Fn4
 BYTE   W06
 BYTE   N18  Gn4
 BYTE   W18
 BYTE   Cn5
 BYTE   W12
//  #11 //019   ----------------------------------------
 BYTE   W06
 BYTE   N12  Gn4
 BYTE   W12
 BYTE   N96
 BYTE   W78
//  #11 //020   ----------------------------------------
 BYTE   W18
 BYTE   N84  Dn4
 BYTE   W78
//  #11 //021   ----------------------------------------
 BYTE   PATT
  POIN2 Label_010523BB
//  #11 //022   ----------------------------------------
 BYTE   W42
 BYTE   EOT
 BYTE   Gn4
 BYTE   W12
 BYTE   N06  En4  v127
 BYTE   W06
 BYTE   Fn4
 BYTE   W06
 BYTE   N15  Gn4
 BYTE   W18
 BYTE   N18  Cn5
 BYTE   W12
//  #11 //023   ----------------------------------------
 BYTE   W06
 BYTE   N12  Gn4
 BYTE   W12
 BYTE   N96  Dn5
 BYTE   W78
//  #11 //024   ----------------------------------------
 BYTE   W18
 BYTE   Fs5
 BYTE   W78
//  #11 //025   ----------------------------------------
 BYTE   W96
//  #11 //026   ----------------------------------------
 BYTE   W96
//  #11 //027   ----------------------------------------
 BYTE   W96
//  #11 //028   ----------------------------------------
 BYTE   W96
//  #11 //029   ----------------------------------------
 BYTE   W96
//  #11 //030   ----------------------------------------
 BYTE   W96
//  #11 //031   ----------------------------------------
 BYTE   W96
//  #11 //032   ----------------------------------------
 BYTE   W96
//  #11 //033   ----------------------------------------
 BYTE   W96
//  #11 //034   ----------------------------------------
 BYTE   W96
//  #11 //035   ----------------------------------------
 BYTE   W96
//  #11 //036   ----------------------------------------
 BYTE   W96
//  #11 //037   ----------------------------------------
 BYTE   W96
//  #11 //038   ----------------------------------------
 BYTE   W96
//  #11 //039   ----------------------------------------
 BYTE   W96
//  #11 //040   ----------------------------------------
 BYTE   W96
//  #11 //041   ----------------------------------------
 BYTE   W96
//  #11 //042   ----------------------------------------
 BYTE   W96
//  #11 //043   ----------------------------------------
 BYTE   W96
//  #11 //044   ----------------------------------------
 BYTE   W96
//  #11 //045   ----------------------------------------
 BYTE   W96
//  #11 //046   ----------------------------------------
 BYTE   W96
//  #11 //047   ----------------------------------------
 BYTE   W96
//  #11 //048   ----------------------------------------
 BYTE   W96
//  #11 //049   ----------------------------------------
 BYTE   W96
//  #11 //050   ----------------------------------------
 BYTE   W96
//  #11 //051   ----------------------------------------
 BYTE   W96
//  #11 //052   ----------------------------------------
 BYTE   W96
//  #11 //053   ----------------------------------------
 BYTE   GoTo
  POIN2 Label_010523AB
 BYTE   FINE

//**************** Track 12 (Midi-Chn.11) ****************//

KirbysDreamLand3RippleField1Psyche_012:
//  #12 //000   ----------------------------------------
 BYTE   KEYSH   KirbysDreamLand3RippleField1Psyche_key+0
 BYTE   VOICE   56
 BYTE   MOD 0
 BYTE   VOL   60*KirbysDreamLand3RippleField1Psyche_mvl/mxv
 BYTE   PAN   c_v+0
 BYTE   W96
//  #12 //001   ----------------------------------------
Label_01052427:
 BYTE   W96
//  #12 //002   ----------------------------------------
 BYTE   W96
//  #12 //003   ----------------------------------------
 BYTE   W96
//  #12 //004   ----------------------------------------
 BYTE   W96
//  #12 //005   ----------------------------------------
 BYTE   W96
//  #12 //006   ----------------------------------------
 BYTE   W96
//  #12 //007   ----------------------------------------
 BYTE   W96
//  #12 //008   ----------------------------------------
 BYTE   W96
//  #12 //009   ----------------------------------------
 BYTE   W96
//  #12 //010   ----------------------------------------
 BYTE   W96
//  #12 //011   ----------------------------------------
 BYTE   W96
//  #12 //012   ----------------------------------------
 BYTE   W96
//  #12 //013   ----------------------------------------
 BYTE   W96
//  #12 //014   ----------------------------------------
 BYTE   W96
//  #12 //015   ----------------------------------------
 BYTE   W96
//  #12 //016   ----------------------------------------
 BYTE   W96
//  #12 //017   ----------------------------------------
 BYTE   W96
//  #12 //018   ----------------------------------------
 BYTE   W96
//  #12 //019   ----------------------------------------
 BYTE   W96
//  #12 //020   ----------------------------------------
 BYTE   W96
//  #12 //021   ----------------------------------------
 BYTE   W96
//  #12 //022   ----------------------------------------
 BYTE   W96
//  #12 //023   ----------------------------------------
 BYTE   W96
//  #12 //024   ----------------------------------------
 BYTE   W96
//  #12 //025   ----------------------------------------
 BYTE   W96
//  #12 //026   ----------------------------------------
 BYTE   W96
//  #12 //027   ----------------------------------------
 BYTE   W96
//  #12 //028   ----------------------------------------
 BYTE   W96
//  #12 //029   ----------------------------------------
 BYTE   W96
//  #12 //030   ----------------------------------------
 BYTE   W96
//  #12 //031   ----------------------------------------
 BYTE   W96
//  #12 //032   ----------------------------------------
 BYTE   W96
//  #12 //033   ----------------------------------------
 BYTE   N16  Cn4  v127
 BYTE   W18
 BYTE   Gn4
 BYTE   W18
 BYTE   N10  Cn4
 BYTE   W12
 BYTE   N80  Gn4
 BYTE   W48
//  #12 //034   ----------------------------------------
 BYTE   W36
 BYTE   N10  Cn5
 BYTE   W12
 BYTE   As4
 BYTE   W12
 BYTE   Gs4
 BYTE   W12
 BYTE   Gn4
 BYTE   W12
 BYTE   Fn4
 BYTE   W12
//  #12 //035   ----------------------------------------
 BYTE   N16  Gn4
 BYTE   W18
 BYTE   Dn5
 BYTE   W18
 BYTE   N10  Gn4
 BYTE   W12
 BYTE   N16  Bn4
 BYTE   W18
 BYTE   Cn5
 BYTE   W18
 BYTE   N10  Dn5
 BYTE   W12
//  #12 //036   ----------------------------------------
 BYTE   N92  Cn5
 BYTE   W92
 BYTE   W03
 BYTE   BEND   c_v-7
 BYTE   W01
//  #12 //037   ----------------------------------------
 BYTE   BEND   c_v-9
 BYTE   N16  An4
 BYTE   W01
 BYTE   BEND   c_v-8
 BYTE   W01
 BYTE   BEND   c_v-7
 BYTE   W01
 BYTE   BEND   c_v-6
 BYTE   W01
 BYTE   BEND   c_v-3
 BYTE   W01
 BYTE   BEND   c_v+0
 BYTE   W13
 BYTE   N16  Bn4
 BYTE   W18
 BYTE   N92  Cn5
 BYTE   W60
//  #12 //038   ----------------------------------------
 BYTE   W36
 BYTE   N10  En5
 BYTE   W12
 BYTE   Dn5
 BYTE   W12
 BYTE   Cn5
 BYTE   W12
 BYTE   Bn4
 BYTE   W12
 BYTE   An4
 BYTE   W12
//  #12 //039   ----------------------------------------
 BYTE   N16  Bn4
 BYTE   W18
 BYTE   Cn5
 BYTE   W18
 BYTE   N10  Dn5
 BYTE   W12
 BYTE   N16  En4
 BYTE   W18
 BYTE   Bn4
 BYTE   W18
 BYTE   N10  Dn5
 BYTE   W12
//  #12 //040   ----------------------------------------
 BYTE   N44  Cs5
 BYTE   W48
 BYTE   N22  An4
 BYTE   W48
//  #12 //041   ----------------------------------------
 BYTE   W96
//  #12 //042   ----------------------------------------
 BYTE   W96
//  #12 //043   ----------------------------------------
 BYTE   W96
//  #12 //044   ----------------------------------------
 BYTE   W96
//  #12 //045   ----------------------------------------
 BYTE   W96
//  #12 //046   ----------------------------------------
 BYTE   W96
//  #12 //047   ----------------------------------------
 BYTE   W96
//  #12 //048   ----------------------------------------
 BYTE   W96
//  #12 //049   ----------------------------------------
 BYTE   W96
//  #12 //050   ----------------------------------------
 BYTE   W96
//  #12 //051   ----------------------------------------
 BYTE   W96
//  #12 //052   ----------------------------------------
 BYTE   W96
//  #12 //053   ----------------------------------------
 BYTE   GoTo
  POIN2 Label_01052427
 BYTE   FINE

//**************** Track 13 (Midi-Chn.12) ****************//

KirbysDreamLand3RippleField1Psyche_013:
//  #13 //000   ----------------------------------------
 BYTE   KEYSH   KirbysDreamLand3RippleField1Psyche_key+0
 BYTE   VOICE   56
 BYTE   MOD 0
 BYTE   VOL   25*KirbysDreamLand3RippleField1Psyche_mvl/mxv
 BYTE   PAN   c_v+26
 BYTE   W96
//  #13 //001   ----------------------------------------
Label_010524CB:
 BYTE   W96
//  #13 //002   ----------------------------------------
 BYTE   W96
//  #13 //003   ----------------------------------------
 BYTE   W96
//  #13 //004   ----------------------------------------
 BYTE   W96
//  #13 //005   ----------------------------------------
 BYTE   W96
//  #13 //006   ----------------------------------------
 BYTE   W96
//  #13 //007   ----------------------------------------
 BYTE   W96
//  #13 //008   ----------------------------------------
 BYTE   W96
//  #13 //009   ----------------------------------------
 BYTE   W96
//  #13 //010   ----------------------------------------
 BYTE   W96
//  #13 //011   ----------------------------------------
 BYTE   W96
//  #13 //012   ----------------------------------------
 BYTE   W96
//  #13 //013   ----------------------------------------
 BYTE   W96
//  #13 //014   ----------------------------------------
 BYTE   W96
//  #13 //015   ----------------------------------------
 BYTE   W96
//  #13 //016   ----------------------------------------
 BYTE   W96
//  #13 //017   ----------------------------------------
 BYTE   W96
//  #13 //018   ----------------------------------------
 BYTE   W96
//  #13 //019   ----------------------------------------
 BYTE   W96
//  #13 //020   ----------------------------------------
 BYTE   W96
//  #13 //021   ----------------------------------------
 BYTE   W96
//  #13 //022   ----------------------------------------
 BYTE   W96
//  #13 //023   ----------------------------------------
 BYTE   W96
//  #13 //024   ----------------------------------------
 BYTE   W96
//  #13 //025   ----------------------------------------
 BYTE   W96
//  #13 //026   ----------------------------------------
 BYTE   W96
//  #13 //027   ----------------------------------------
 BYTE   W96
//  #13 //028   ----------------------------------------
 BYTE   W96
//  #13 //029   ----------------------------------------
 BYTE   W96
//  #13 //030   ----------------------------------------
 BYTE   W96
//  #13 //031   ----------------------------------------
 BYTE   W96
//  #13 //032   ----------------------------------------
 BYTE   W96
//  #13 //033   ----------------------------------------
 BYTE   W12
 BYTE   N16  Cn4  v127
 BYTE   W18
 BYTE   Gn4
 BYTE   W18
 BYTE   N10  Cn4
 BYTE   W12
 BYTE   N80  Gn4
 BYTE   W36
//  #13 //034   ----------------------------------------
 BYTE   W48
 BYTE   N10  Cn5
 BYTE   W12
 BYTE   As4
 BYTE   W12
 BYTE   Gs4
 BYTE   W12
 BYTE   Gn4
 BYTE   W12
//  #13 //035   ----------------------------------------
 BYTE   Fn4
 BYTE   W12
 BYTE   N16  Gn4
 BYTE   W18
 BYTE   Dn5
 BYTE   W18
 BYTE   N10  Gn4
 BYTE   W12
 BYTE   N16  Bn4
 BYTE   W18
 BYTE   Cn5
 BYTE   W18
//  #13 //036   ----------------------------------------
 BYTE   N10  Dn5
 BYTE   W12
 BYTE   N92  Cn5
 BYTE   W84
//  #13 //037   ----------------------------------------
 BYTE   W11
 BYTE   BEND   c_v-7
 BYTE   W01
 BYTE   BEND   c_v-9
 BYTE   N16  An4
 BYTE   W01
 BYTE   BEND   c_v-8
 BYTE   W01
 BYTE   BEND   c_v-7
 BYTE   W01
 BYTE   BEND   c_v-6
 BYTE   W01
 BYTE   BEND   c_v-3
 BYTE   W01
 BYTE   BEND   c_v+0
 BYTE   W13
 BYTE   N16  Bn4
 BYTE   W18
 BYTE   N92  Cn5
 BYTE   W48
//  #13 //038   ----------------------------------------
 BYTE   W48
 BYTE   N10  En5
 BYTE   W12
 BYTE   Dn5
 BYTE   W12
 BYTE   Cn5
 BYTE   W12
 BYTE   Bn4
 BYTE   W12
//  #13 //039   ----------------------------------------
 BYTE   An4
 BYTE   W12
 BYTE   N16  Bn4
 BYTE   W18
 BYTE   Cn5
 BYTE   W18
 BYTE   N10  Dn5
 BYTE   W12
 BYTE   N16  En4
 BYTE   W18
 BYTE   Bn4
 BYTE   W18
//  #13 //040   ----------------------------------------
 BYTE   N10  Dn5
 BYTE   W12
 BYTE   N44  Cs5
 BYTE   W48
 BYTE   N22  An4
 BYTE   W36
//  #13 //041   ----------------------------------------
 BYTE   W96
//  #13 //042   ----------------------------------------
 BYTE   W96
//  #13 //043   ----------------------------------------
 BYTE   W96
//  #13 //044   ----------------------------------------
 BYTE   W96
//  #13 //045   ----------------------------------------
 BYTE   W96
//  #13 //046   ----------------------------------------
 BYTE   W96
//  #13 //047   ----------------------------------------
 BYTE   W96
//  #13 //048   ----------------------------------------
 BYTE   W96
//  #13 //049   ----------------------------------------
 BYTE   W96
//  #13 //050   ----------------------------------------
 BYTE   W96
//  #13 //051   ----------------------------------------
 BYTE   W96
//  #13 //052   ----------------------------------------
 BYTE   W96
//  #13 //053   ----------------------------------------
 BYTE   GoTo
  POIN2 Label_010524CB
 BYTE   FINE

//******************************************************//
	ALIGN 4

KirbysDreamLand3RippleField1Psyche:
	BYTE	13	// NumTrks
	BYTE	0	// NumBlks
	BYTE	KirbysDreamLand3RippleField1Psyche_pri	// Priority
	BYTE	KirbysDreamLand3RippleField1Psyche_rev	// Reverb.
    
	POIN2	KirbysDreamLand3RippleField1Psyche_grp
    
	POIN2	KirbysDreamLand3RippleField1Psyche_001
	POIN2	KirbysDreamLand3RippleField1Psyche_002
	POIN2	KirbysDreamLand3RippleField1Psyche_003
	POIN2	KirbysDreamLand3RippleField1Psyche_004
	POIN2	KirbysDreamLand3RippleField1Psyche_005
	POIN2	KirbysDreamLand3RippleField1Psyche_006
	POIN2	KirbysDreamLand3RippleField1Psyche_007
	POIN2	KirbysDreamLand3RippleField1Psyche_008
	POIN2	KirbysDreamLand3RippleField1Psyche_009
	POIN2	KirbysDreamLand3RippleField1Psyche_010
	POIN2	KirbysDreamLand3RippleField1Psyche_011
	POIN2	KirbysDreamLand3RippleField1Psyche_012
	POIN2	KirbysDreamLand3RippleField1Psyche_013

	
