//Event file generated from Sappy .s format.
	#include "MPlayDef.event"

	#define	KirbyandtheAmazingMirrorCabbageCavernPandan_grp  voicegroup000
	#define	KirbyandtheAmazingMirrorCabbageCavernPandan_pri  10
	#define	KirbyandtheAmazingMirrorCabbageCavernPandan_rev  0
	#define	KirbyandtheAmazingMirrorCabbageCavernPandan_mvl  127
	#define	KirbyandtheAmazingMirrorCabbageCavernPandan_key  0
	#define	KirbyandtheAmazingMirrorCabbageCavernPandan_tbs  1
	#define	KirbyandtheAmazingMirrorCabbageCavernPandan_exg  0
	#define	KirbyandtheAmazingMirrorCabbageCavernPandan_cmp  1

	// .rodata
	//	KirbyandtheAmazingMirrorCabbageCavernPandan
	ALIGN 4


//**************** Track 1 (Midi-Chn.0) ****************//

KirbyandtheAmazingMirrorCabbageCavernPandan_001:
// 000   ----------------------------------------
Label_0_01392A70:
 BYTE   TEMPO   120*KirbyandtheAmazingMirrorCabbageCavernPandan_tbs/2
 BYTE   KEYSH   KirbyandtheAmazingMirrorCabbageCavernPandan_key+0
 BYTE   VOL   70*KirbyandtheAmazingMirrorCabbageCavernPandan_mvl/mxv
 BYTE   PAN   c_v+0
 BYTE   VOICE   34
 BYTE   N06  En1  v100
 BYTE   W36
 BYTE   N04  Bn0
 BYTE   W07
 BYTE   N04  En1
 BYTE   W48
 BYTE   N04  Bn0
 BYTE   W05
// 001   ----------------------------------------
 BYTE   N04  En1
 BYTE   W36
 BYTE   N06  Bn0
 BYTE   W07
 BYTE   N10  En1
 BYTE   W17
 BYTE   N04
 BYTE   W30
 BYTE   W01
 BYTE   N03  Bn0
 BYTE   W05
// 002   ----------------------------------------
 BYTE   N06  En1
 BYTE   W36
 BYTE   N06  Bn0
 BYTE   W07
 BYTE   N06  En1
 BYTE   W48
 BYTE   N04  Bn0
 BYTE   W05
// 003   ----------------------------------------
 BYTE   N06  En1
 BYTE   W36
 BYTE   N06  Bn0
 BYTE   W07
 BYTE   N12  En1
 BYTE   W17
 BYTE   N06
 BYTE   W30
 BYTE   W01
 BYTE   N03  Bn0
 BYTE   W05
// 004   ----------------------------------------
 BYTE   N06  En1
 BYTE   W36
 BYTE   N04  Bn0
 BYTE   W07
 BYTE   N04  En1
 BYTE   W48
 BYTE   N04  Bn0
 BYTE   W05
// 005   ----------------------------------------
 BYTE   N04  En1
 BYTE   W36
 BYTE   N06  Bn0
 BYTE   W07
 BYTE   N12  En1
 BYTE   W17
 BYTE   N04
 BYTE   W30
 BYTE   W01
 BYTE   N03  Bn0
 BYTE   W05
// 006   ----------------------------------------
 BYTE   N06  En1
 BYTE   W36
 BYTE   N06  Bn0
 BYTE   W07
 BYTE   N06  En1
 BYTE   W48
 BYTE   N04  Bn0
 BYTE   W05
// 007   ----------------------------------------
 BYTE   N04  En1
 BYTE   W36
 BYTE   N06  Bn0
 BYTE   W07
 BYTE   N12  En1
 BYTE   W17
 BYTE   N06
 BYTE   W12
 BYTE   N02  An1
 BYTE   W04
 BYTE   N02  Gn1
 BYTE   W03
 BYTE   N02  En1
 BYTE   W05
 BYTE   N10  Bn0
 BYTE   W12
// 008   ----------------------------------------
 BYTE   N06  En1
 BYTE   W36
 BYTE   N06  Bn0
 BYTE   W07
 BYTE   N06  En1
 BYTE   W48
 BYTE   N04  Bn0
 BYTE   W05
// 009   ----------------------------------------
 BYTE   N04  En1
 BYTE   W36
 BYTE   N06  Bn0
 BYTE   W07
 BYTE   N12  En1
 BYTE   W17
 BYTE   N06
 BYTE   W30
 BYTE   W01
 BYTE   N04  Bn0
 BYTE   W05
// 010   ----------------------------------------
 BYTE   N06  En1
 BYTE   W36
 BYTE   N06  Bn0
 BYTE   W07
 BYTE   N06  En1
 BYTE   W48
 BYTE   N04  Bn0
 BYTE   W05
// 011   ----------------------------------------
 BYTE   N04  En1
 BYTE   W36
 BYTE   N06  Bn0
 BYTE   W07
 BYTE   N12  En1
 BYTE   W17
 BYTE   N06
 BYTE   W30
 BYTE   W01
 BYTE   N04  Bn0
 BYTE   W05
// 012   ----------------------------------------
 BYTE   N06  Gn1
 BYTE   W36
 BYTE   N06  Dn1
 BYTE   W07
 BYTE   N06  Gn1
 BYTE   W48
 BYTE   N04  Dn1
 BYTE   W05
// 013   ----------------------------------------
 BYTE   N04  Gn1
 BYTE   W36
 BYTE   N06  Dn1
 BYTE   W07
 BYTE   N12  Gn1
 BYTE   W17
 BYTE   N06
 BYTE   W30
 BYTE   W01
 BYTE   N04  Dn1
 BYTE   W05
// 014   ----------------------------------------
 BYTE   N06  Gn1
 BYTE   W36
 BYTE   N06  Dn1
 BYTE   W07
 BYTE   N06  Gn1
 BYTE   W48
 BYTE   N04  Dn1
 BYTE   W05
// 015   ----------------------------------------
 BYTE   N04  Gn1
 BYTE   W36
 BYTE   N06  Dn1
 BYTE   W07
 BYTE   N12  Gn1
 BYTE   W17
 BYTE   N06
 BYTE   W30
 BYTE   W01
 BYTE   N04  Dn1
 BYTE   W05
// 016   ----------------------------------------
 BYTE   N06  En1
 BYTE   W36
 BYTE   N06  Bn0
 BYTE   W07
 BYTE   N06  En1
 BYTE   W48
 BYTE   N04  Bn0
 BYTE   W05
// 017   ----------------------------------------
 BYTE   N04  Fn1
 BYTE   W36
 BYTE   N06  Cn1
 BYTE   W07
 BYTE   N12  Fn1
 BYTE   W17
 BYTE   N06
 BYTE   W30
 BYTE   W01
 BYTE   N04  Cn1
 BYTE   W05
// 018   ----------------------------------------
 BYTE   N06  En1
 BYTE   W36
 BYTE   N06  Bn0
 BYTE   W07
 BYTE   N06  En1
 BYTE   W48
 BYTE   N04  Bn0
 BYTE   W05
// 019   ----------------------------------------
 BYTE   N06  Fn1
 BYTE   W36
 BYTE   Cn1
 BYTE   W07
 BYTE   N12  Fn1
 BYTE   W17
 BYTE   N06
 BYTE   W30
 BYTE   W01
 BYTE   N04  Cn1
 BYTE   W05
// 020   ----------------------------------------
Label_0_01392B90:
 BYTE   N06  Gn1  v100
 BYTE   W36
 BYTE   Dn1
 BYTE   W07
 BYTE   Gn1
 BYTE   W48
 BYTE   N04  Dn1
 BYTE   W05
 BYTE   PEND 
// 021   ----------------------------------------
Label_0_01392B9C:
 BYTE   N06  An1  v100
 BYTE   W36
 BYTE   En1
 BYTE   W07
 BYTE   N12  An1
 BYTE   W17
 BYTE   N06
 BYTE   W30
 BYTE   W01
 BYTE   N04  En1
 BYTE   W05
 BYTE   PEND 
// 022   ----------------------------------------
Label_0_01392BAC:
 BYTE   N06  Gn1  v100
 BYTE   W36
 BYTE   Gn0
 BYTE   W07
 BYTE   Gn1
 BYTE   W48
 BYTE   N04  Gn0
 BYTE   W05
 BYTE   PEND 
// 023   ----------------------------------------
Label_0_01392BB8:
 BYTE   N06  Bn1  v100
 BYTE   W36
 BYTE   Bn0
 BYTE   W07
 BYTE   N12  Bn1
 BYTE   W17
 BYTE   N06
 BYTE   W30
 BYTE   W01
 BYTE   N04  Bn0
 BYTE   W05
 BYTE   PEND 
// 024   ----------------------------------------
Label_0_01392BC8:
 BYTE   N06  En1  v100
 BYTE   W36
 BYTE   N04  Bn0
 BYTE   W07
 BYTE   En1
 BYTE   W48
 BYTE   Bn0
 BYTE   W05
 BYTE   PEND 
// 025   ----------------------------------------
 BYTE   N04  En1  v100
 BYTE   W36
 BYTE   N06  Bn0
 BYTE   W07
 BYTE   N10  En1
 BYTE   W17
 BYTE   N04
 BYTE   W30
 BYTE   W01
 BYTE   N03  Bn0
 BYTE   W05
// 026   ----------------------------------------
Label_0_01392BE4:
 BYTE   N06  En1  v100
 BYTE   W36
 BYTE   Bn0
 BYTE   W07
 BYTE   En1
 BYTE   W48
 BYTE   N04  Bn0
 BYTE   W05
 BYTE   PEND 
// 027   ----------------------------------------
 BYTE   N06  En1  v100
 BYTE   W36
 BYTE   Bn0
 BYTE   W07
 BYTE   N12  En1
 BYTE   W17
 BYTE   N06
 BYTE   W30
 BYTE   W01
 BYTE   N03  Bn0
 BYTE   W05
 BYTE   PATT
  POIN2 Label_0_01392BC8
// 028   ----------------------------------------
 BYTE   N04  En1  v100
 BYTE   W36
 BYTE   N06  Bn0  v100
 BYTE   W07
 BYTE   N12  En1
 BYTE   W17
 BYTE   N04
 BYTE   W30
 BYTE   W01
 BYTE   N03  Bn0
 BYTE   W05
 BYTE   PATT
  POIN2 Label_0_01392BE4
// 029   ----------------------------------------
 BYTE   N04  En1  v100
 BYTE   W36
 BYTE   N06  Bn0
 BYTE   W07
 BYTE   N12  En1
 BYTE   W17
 BYTE   N06
 BYTE   W12
 BYTE   N02  An1
 BYTE   W04
 BYTE   Gn1
 BYTE   W03
 BYTE   En1
 BYTE   W05
 BYTE   N10  Bn0
 BYTE   W12
 BYTE   PATT
  POIN2 Label_0_01392BE4
// 030   ----------------------------------------
Label_0_01392C35:
 BYTE   N04  En1  v100
 BYTE   W36
 BYTE   N06  Bn0
 BYTE   W07
 BYTE   N12  En1
 BYTE   W17
 BYTE   N06
 BYTE   W30
 BYTE   W01
 BYTE   N04  Bn0
 BYTE   W05
 BYTE   PEND 
 BYTE   PATT
  POIN2 Label_0_01392BE4
 BYTE   PATT
  POIN2 Label_0_01392C35
 BYTE   PATT
  POIN2 Label_0_01392B90
// 031   ----------------------------------------
Label_0_01392C55:
 BYTE   N04  Gn1  v100
 BYTE   W36
 BYTE   N06  Dn1
 BYTE   W07
 BYTE   N12  Gn1
 BYTE   W17
 BYTE   N06
 BYTE   W30
 BYTE   W01
 BYTE   N04  Dn1
 BYTE   W05
 BYTE   PEND 
 BYTE   PATT
  POIN2 Label_0_01392B90
 BYTE   PATT
  POIN2 Label_0_01392C55
 BYTE   PATT
  POIN2 Label_0_01392BE4
// 032   ----------------------------------------
 BYTE   N04  Fn1  v100
 BYTE   W36
 BYTE   N06  Cn1
 BYTE   W07
 BYTE   N12  Fn1
 BYTE   W17
 BYTE   N06
 BYTE   W30
 BYTE   W01
 BYTE   N04  Cn1
 BYTE   W05
 BYTE   PATT
  POIN2 Label_0_01392BE4
// 033   ----------------------------------------
 BYTE   N06  Fn1  v100
 BYTE   W36
 BYTE   Cn1
 BYTE   W07
 BYTE   N12  Fn1
 BYTE   W17
 BYTE   N06
 BYTE   W30
 BYTE   W01
 BYTE   N04  Cn1
 BYTE   W05
 BYTE   PATT
  POIN2 Label_0_01392B90
 BYTE   PATT
  POIN2 Label_0_01392B9C
 BYTE   PATT
  POIN2 Label_0_01392BAC
 BYTE   PATT
  POIN2 Label_0_01392BB8
// 034   ----------------------------------------
 BYTE   GoTo
  POIN2 Label_0_01392A70
 BYTE   FINE

//**************** Track 2 (Midi-Chn.1) ****************//

KirbyandtheAmazingMirrorCabbageCavernPandan_002:
// 000   ----------------------------------------
Label_1_01392CB4:
 BYTE   TEMPO   120*KirbyandtheAmazingMirrorCabbageCavernPandan_tbs/2
 BYTE   KEYSH   KirbyandtheAmazingMirrorCabbageCavernPandan_key+0
 BYTE   VOL   70*KirbyandtheAmazingMirrorCabbageCavernPandan_mvl/mxv
 BYTE   PAN   c_v+0
 BYTE   VOICE   62
 BYTE   W96
// 001   ----------------------------------------
 BYTE   W96
// 002   ----------------------------------------
 BYTE   W96
// 003   ----------------------------------------
 BYTE   W96
// 004   ----------------------------------------
 BYTE   N18  En3  v100
 BYTE   W19
 BYTE   N02  Fs3
 BYTE   W02
 BYTE   N03  Gn3
 BYTE   W03
 BYTE   N04  Dn4
 BYTE   W12
 BYTE   N04  Cs4
 BYTE   W12
 BYTE   N04  Bn3
 BYTE   W12
 BYTE   N04  An3
 BYTE   W12
 BYTE   N04  Gn3
 BYTE   W12
 BYTE   N04  Fs3
 BYTE   W12
// 005   ----------------------------------------
 BYTE   N05  Gn3
 BYTE   W07
 BYTE   N05  An3
 BYTE   W05
 BYTE   N05  Gn3
 BYTE   W07
 BYTE   N05  An3
 BYTE   W05
 BYTE   N05  Gn3
 BYTE   W07
 BYTE   N04  An3
 BYTE   W12
 BYTE   N36  Bn3
 BYTE   W01
 BYTE   N01
 BYTE   W48
 BYTE   W03
 BYTE   N11  En3
 BYTE   W12
// 006   ----------------------------------------
 BYTE   N04  Fs3
 BYTE   W07
 BYTE   N04  Gn3
 BYTE   W05
 BYTE   N04  Dn4
 BYTE   W12
 BYTE   N04  Cs4
 BYTE   W12
 BYTE   N04  Bn3
 BYTE   W12
 BYTE   N04  An3
 BYTE   W12
 BYTE   N04  Gn3
 BYTE   W12
 BYTE   N06  Fs3
 BYTE   W12
 BYTE   N04  Gn3
 BYTE   W07
 BYTE   N04
 BYTE   W05
// 007   ----------------------------------------
 BYTE   N04
 BYTE   W07
 BYTE   N04
 BYTE   W05
 BYTE   N04  Fs3
 BYTE   W07
 BYTE   N04  Dn3
 BYTE   W12
 BYTE   N36  En3
 BYTE   W01
 BYTE   N01
 BYTE   W96
// 008   ----------------------------------------
 BYTE   W96
// 009   ----------------------------------------
 BYTE   W96
// 010   ----------------------------------------
 BYTE   W96
// 011   ----------------------------------------
 BYTE   W96
// 012   ----------------------------------------
 BYTE   W96
// 013   ----------------------------------------
 BYTE   W96
// 014   ----------------------------------------
 BYTE   W96
// 015   ----------------------------------------
 BYTE   W48
 BYTE   W03
 BYTE   N13
 BYTE   W19
 BYTE   N04  Fs3
 BYTE   W05
 BYTE   N03  Gn3
 BYTE   W12
 BYTE   N03  An3
 BYTE   W12
// 016   ----------------------------------------
 BYTE   N04  Bn3
 BYTE   W12
 BYTE   N03  An3
 BYTE   W12
 BYTE   N03  Gn3
 BYTE   W12
 BYTE   N05  En3
 BYTE   W12
 BYTE   N13  Fn3
 BYTE   W19
 BYTE   N04  Gn3
 BYTE   W05
 BYTE   N04  An3
 BYTE   W07
 BYTE   N04  Bn3
 BYTE   W12
 BYTE   N17  Cn4
 BYTE   W24
// 017   ----------------------------------------
 BYTE   N15  Cn3
 BYTE   W28
 BYTE   W01
 BYTE   N13  En3
 BYTE   W19
 BYTE   N04  Fs3
 BYTE   W05
 BYTE   N03  Gn3
 BYTE   W07
 BYTE   N03  An3
 BYTE   W12
 BYTE   N04  Bn3
 BYTE   W12
 BYTE   N03  An3
 BYTE   W12
// 018   ----------------------------------------
 BYTE   N03  Gn3
 BYTE   W12
 BYTE   N11  En3
 BYTE   W17
 BYTE   N05  Fn3
 BYTE   W07
 BYTE   En3
 BYTE   W05
 BYTE   Fn3
 BYTE   W07
 BYTE   N04  Gn3
 BYTE   W05
 BYTE   An3
 BYTE   W07
 BYTE   N03  Bn3
 BYTE   W12
 BYTE   Cn4
 BYTE   W12
 BYTE   N05  Fn3
 BYTE   W12
// 019   ----------------------------------------
 BYTE   N23  Cn3
 BYTE   W96
// 020   ----------------------------------------
 BYTE   W96
// 021   ----------------------------------------
 BYTE   W28
 BYTE   W01
Label_1_01392D8A:
 BYTE   N15  Bn2  v100
 BYTE   W19
 BYTE   N04  Cn3
 BYTE   W05
 BYTE   N05  Dn3
 BYTE   W07
 BYTE   En3
 BYTE   W12
 BYTE   Fn3
 BYTE   W12
 BYTE   En3
 BYTE   W12
// 022   ----------------------------------------
 BYTE   Dn3
 BYTE   W12
 BYTE   N11  Cn3
 BYTE   W17
 BYTE   PEND 
 BYTE   N17  Bn2  v100
 BYTE   W19
 BYTE   N01  En3
 BYTE   W02
 BYTE   Fs3
 BYTE   W03
 BYTE   N03  Fs4
 BYTE   W07
 BYTE   N10  Fs3
 BYTE   W12
 BYTE   N36  Bn3
 BYTE   W96
// 023   ----------------------------------------
 BYTE   W96
// 024   ----------------------------------------
 BYTE   W96
// 025   ----------------------------------------
 BYTE   W96
// 026   ----------------------------------------
 BYTE   W52
 BYTE   W01
 BYTE   N18  En3
 BYTE   W19
 BYTE   N02  Fs3
 BYTE   W02
 BYTE   N03  Gn3
 BYTE   W03
 BYTE   N04  Dn4
 BYTE   W12
 BYTE   Cs4
 BYTE   W12
// 027   ----------------------------------------
 BYTE   Bn3
 BYTE   W12
 BYTE   An3
 BYTE   W12
 BYTE   Gn3
 BYTE   W12
 BYTE   Fs3
 BYTE   W12
 BYTE   N05  Gn3
 BYTE   W07
 BYTE   N05  An3  v100
 BYTE   W05
 BYTE   Gn3
 BYTE   W07
 BYTE   An3
 BYTE   W05
 BYTE   Gn3
 BYTE   W07
 BYTE   N04  An3
 BYTE   W12
 BYTE   N36  Bn3
 BYTE   W01
 BYTE   N01
 BYTE   W48
// 028   ----------------------------------------
 BYTE   W03
 BYTE   N11  En3
 BYTE   W12
 BYTE   N04  Fs3
 BYTE   W07
 BYTE   Gn3
 BYTE   W05
 BYTE   Dn4
 BYTE   W12
 BYTE   Cs4
 BYTE   W12
 BYTE   Bn3
 BYTE   W12
 BYTE   An3
 BYTE   W12
 BYTE   Gn3
 BYTE   W12
 BYTE   N06  Fs3
 BYTE   W12
// 029   ----------------------------------------
 BYTE   N04  Gn3
 BYTE   W07
 BYTE   Gn3
 BYTE   W05
 BYTE   Gn3
 BYTE   W07
 BYTE   Gn3
 BYTE   W05
 BYTE   Fs3
 BYTE   W07
 BYTE   Dn3
 BYTE   W12
 BYTE   N36  En3
 BYTE   W01
 BYTE   N01
 BYTE   W96
// 030   ----------------------------------------
 BYTE   W96
// 031   ----------------------------------------
 BYTE   W96
// 032   ----------------------------------------
 BYTE   W96
// 033   ----------------------------------------
 BYTE   W96
// 034   ----------------------------------------
 BYTE   W96
// 035   ----------------------------------------
 BYTE   W96
// 036   ----------------------------------------
 BYTE   W96
// 037   ----------------------------------------
 BYTE   W48
 BYTE   W03
 BYTE   N13
 BYTE   W19
 BYTE   N04  Fs3
 BYTE   W05
 BYTE   N03  Gn3
 BYTE   W12
 BYTE   An3
 BYTE   W12
// 038   ----------------------------------------
 BYTE   N04  Bn3
 BYTE   W12
 BYTE   N03  An3
 BYTE   W12
 BYTE   Gn3
 BYTE   W12
 BYTE   N05  En3
 BYTE   W12
 BYTE   N13  Fn3
 BYTE   W19
 BYTE   N04  Gn3
 BYTE   W05
 BYTE   An3
 BYTE   W07
 BYTE   Bn3
 BYTE   W12
 BYTE   N17  Cn4
 BYTE   W24
// 039   ----------------------------------------
 BYTE   N15  Cn3
 BYTE   W28
 BYTE   W01
 BYTE   N13  En3
 BYTE   W19
 BYTE   N04  Fs3
 BYTE   W05
 BYTE   N03  Gn3
 BYTE   W07
 BYTE   An3
 BYTE   W12
 BYTE   N04  Bn3
 BYTE   W12
 BYTE   N03  An3
 BYTE   W12
// 040   ----------------------------------------
 BYTE   Gn3
 BYTE   W12
 BYTE   N11  En3
 BYTE   W17
 BYTE   N05  Fn3
 BYTE   W07
 BYTE   En3
 BYTE   W05
 BYTE   Fn3
 BYTE   W07
 BYTE   N04  Gn3
 BYTE   W05
 BYTE   An3
 BYTE   W07
 BYTE   N03  Bn3
 BYTE   W12
 BYTE   Cn4
 BYTE   W12
 BYTE   N05  Fn3
 BYTE   W12
// 041   ----------------------------------------
 BYTE   N23  Cn3
 BYTE   W96
// 042   ----------------------------------------
 BYTE   W96
// 043   ----------------------------------------
 BYTE   W28
 BYTE   W01
 BYTE   PATT
  POIN2 Label_1_01392D8A
// 044   ----------------------------------------
 BYTE   N17  Bn2  v100
 BYTE   W19
 BYTE   N01  En3
 BYTE   W02
 BYTE   Fs3
 BYTE   W03
 BYTE   N03  Fs4
 BYTE   W07
 BYTE   N10  Fs3
 BYTE   W12
 BYTE   N36  Bn3
 BYTE   W48
 BYTE   GoTo
  POIN2 Label_1_01392CB4
 BYTE   FINE

//**************** Track 3 (Midi-Chn.2) ****************//

KirbyandtheAmazingMirrorCabbageCavernPandan_003:
// 000   ----------------------------------------
Label_2_01392E88:
 BYTE   TEMPO   120*KirbyandtheAmazingMirrorCabbageCavernPandan_tbs/2
 BYTE   KEYSH   KirbyandtheAmazingMirrorCabbageCavernPandan_key+0
 BYTE   VOL   70*KirbyandtheAmazingMirrorCabbageCavernPandan_mvl/mxv
 BYTE   PAN   c_v+0
 BYTE   VOICE   19
 BYTE   W96
// 001   ----------------------------------------
 BYTE   W96
// 002   ----------------------------------------
 BYTE   W96
// 003   ----------------------------------------
 BYTE   W96
// 004   ----------------------------------------
 BYTE   W96
// 005   ----------------------------------------
 BYTE   W96
// 006   ----------------------------------------
 BYTE   W96
// 007   ----------------------------------------
 BYTE   W96
// 008   ----------------------------------------
 BYTE   N18  En3  v100
 BYTE   W19
 BYTE   N02  Fs3
 BYTE   W02
 BYTE   N03  Gn3
 BYTE   W03
 BYTE   N04  Dn4
 BYTE   W12
 BYTE   N09  Cs4
 BYTE   W12
 BYTE   N04  Bn3
 BYTE   W12
 BYTE   N04  An3
 BYTE   W12
 BYTE   N04  Gn3
 BYTE   W12
 BYTE   N10  Fs3
 BYTE   W12
// 009   ----------------------------------------
 BYTE   N04  Gn3
 BYTE   W07
 BYTE   N04  An3
 BYTE   W05
 BYTE   N04  Gn3
 BYTE   W07
 BYTE   N04  An3
 BYTE   W05
 BYTE   N04  Gn3
 BYTE   W07
 BYTE   N04  An3
 BYTE   W12
 BYTE   N36  Bn3
 BYTE   W01
 BYTE   N01
 BYTE   W48
 BYTE   W03
 BYTE   N06  Gn3
 BYTE   W07
// 010   ----------------------------------------
 BYTE   N04  An3
 BYTE   W05
 BYTE   N04  Bn3
 BYTE   W12
 BYTE   N04  Dn4
 BYTE   W12
 BYTE   N10  Cs4
 BYTE   W12
 BYTE   N04  Bn3
 BYTE   W12
 BYTE   N04  An3
 BYTE   W12
 BYTE   N04  Gn3
 BYTE   W12
 BYTE   N10  Fs3
 BYTE   W12
 BYTE   N04  Gn3
 BYTE   W07
// 011   ----------------------------------------
 BYTE   N04
 BYTE   W05
 BYTE   N04
 BYTE   W07
 BYTE   N04
 BYTE   W05
 BYTE   N04  Fs3
 BYTE   W07
 BYTE   N04  Dn3
 BYTE   W12
 BYTE   N36  En3
 BYTE   W01
 BYTE   N01
 BYTE   W96
// 012   ----------------------------------------
 BYTE   W96
// 013   ----------------------------------------
 BYTE   W96
// 014   ----------------------------------------
 BYTE   W96
// 015   ----------------------------------------
 BYTE   W96
// 016   ----------------------------------------
 BYTE   W96
// 017   ----------------------------------------
 BYTE   W96
// 018   ----------------------------------------
 BYTE   W96
// 019   ----------------------------------------
 BYTE   W96
// 020   ----------------------------------------
 BYTE   W96
// 021   ----------------------------------------
 BYTE   W96
// 022   ----------------------------------------
 BYTE   W96
// 023   ----------------------------------------
 BYTE   W96
// 024   ----------------------------------------
 BYTE   W96
// 025   ----------------------------------------
 BYTE   W96
// 026   ----------------------------------------
 BYTE   W96
// 027   ----------------------------------------
 BYTE   W96
// 028   ----------------------------------------
 BYTE   W48
 BYTE   W03
 BYTE   W96
// 029   ----------------------------------------
 BYTE   W96
// 030   ----------------------------------------
 BYTE   W96
// 031   ----------------------------------------
 BYTE   N18  En3  v100
 BYTE   W19
 BYTE   N02  Fs3
 BYTE   W02
 BYTE   N03  Gn3
 BYTE   W03
 BYTE   N04  Dn4
 BYTE   W12
 BYTE   N09  Cs4
 BYTE   W12
 BYTE   N04  Bn3
 BYTE   W12
 BYTE   An3
 BYTE   W12
 BYTE   Gn3
 BYTE   W12
 BYTE   N10  Fs3
 BYTE   W12
// 032   ----------------------------------------
 BYTE   N04  Gn3
 BYTE   W07
 BYTE   An3
 BYTE   W05
 BYTE   Gn3
 BYTE   W07
 BYTE   An3
 BYTE   W05
 BYTE   Gn3
 BYTE   W07
 BYTE   An3
 BYTE   W12
 BYTE   N36  Bn3
 BYTE   W01
 BYTE   N01
 BYTE   W48
 BYTE   W03
 BYTE   N06  Gn3
 BYTE   W07
// 033   ----------------------------------------
 BYTE   N04  An3
 BYTE   W05
 BYTE   Bn3
 BYTE   W12
 BYTE   Dn4
 BYTE   W12
 BYTE   N10  Cs4
 BYTE   W12
 BYTE   N04  Bn3
 BYTE   W12
 BYTE   An3
 BYTE   W12
 BYTE   Gn3
 BYTE   W12
 BYTE   N10  Fs3
 BYTE   W12
 BYTE   N04  Gn3
 BYTE   W07
// 034   ----------------------------------------
 BYTE   Gn3
 BYTE   W05
 BYTE   Gn3
 BYTE   W07
 BYTE   Gn3
 BYTE   W05
 BYTE   Fs3
 BYTE   W07
 BYTE   Dn3
 BYTE   W12
 BYTE   N36  En3
 BYTE   W01
 BYTE   N01
 BYTE   W96
// 035   ----------------------------------------
 BYTE   W96
// 036   ----------------------------------------
 BYTE   W96
// 037   ----------------------------------------
 BYTE   W96
// 038   ----------------------------------------
 BYTE   W96
// 039   ----------------------------------------
 BYTE   W96
// 040   ----------------------------------------
 BYTE   W96
// 041   ----------------------------------------
 BYTE   W96
// 042   ----------------------------------------
 BYTE   W96
// 043   ----------------------------------------
 BYTE   W96
// 044   ----------------------------------------
 BYTE   W96
// 045   ----------------------------------------
 BYTE   W96
// 046   ----------------------------------------
 BYTE   W44
 BYTE   W02
 BYTE   GoTo
  POIN2 Label_2_01392E88
 BYTE   FINE

//**************** Track 4 (Midi-Chn.3) ****************//

KirbyandtheAmazingMirrorCabbageCavernPandan_004:
// 000   ----------------------------------------
Label_3_01392F7C:
 BYTE   TEMPO   120*KirbyandtheAmazingMirrorCabbageCavernPandan_tbs/2
 BYTE   KEYSH   KirbyandtheAmazingMirrorCabbageCavernPandan_key+0
 BYTE   VOL   85*KirbyandtheAmazingMirrorCabbageCavernPandan_mvl/mxv
 BYTE   PAN   c_v+0
 BYTE   VOICE   56
 BYTE   W96
// 001   ----------------------------------------
 BYTE   W96
// 002   ----------------------------------------
 BYTE   W96
// 003   ----------------------------------------
 BYTE   W96
// 004   ----------------------------------------
 BYTE   W96
// 005   ----------------------------------------
 BYTE   W96
// 006   ----------------------------------------
 BYTE   W96
// 007   ----------------------------------------
 BYTE   W96
// 008   ----------------------------------------
 BYTE   W96
// 009   ----------------------------------------
 BYTE   W96
// 010   ----------------------------------------
 BYTE   W96
// 011   ----------------------------------------
 BYTE   W96
// 012   ----------------------------------------
 BYTE   N16  Gn3  v100
 BYTE   W17
 BYTE   N04  An3
 BYTE   W04
 BYTE   N03  As3
 BYTE   W03
 BYTE   N05  Cn4
 BYTE   W12
 BYTE   N05  As3
 BYTE   W12
 BYTE   N05  An3
 BYTE   W12
 BYTE   N05  Gn3
 BYTE   W12
 BYTE   N18  Dn4
 BYTE   W19
 BYTE   N01  Ds4
 BYTE   W01
 BYTE   N03  En4
 BYTE   W04
// 013   ----------------------------------------
 BYTE   N04  Fn4
 BYTE   W12
 BYTE   N04  En4
 BYTE   W12
 BYTE   N04  Dn4
 BYTE   W07
 BYTE   N04  Cn4
 BYTE   W12
 BYTE   N32  Dn4
 BYTE   W01
 BYTE   N01
 BYTE   W48
 BYTE   W03
 BYTE   N18  Gn3
 BYTE   W19
// 014   ----------------------------------------
 BYTE   N02  An3
 BYTE   W02
 BYTE   N03  As3
 BYTE   W03
 BYTE   N04  Cn4
 BYTE   W12
 BYTE   N06  As3
 BYTE   W12
 BYTE   N05  An3
 BYTE   W12
 BYTE   N05  Gn3
 BYTE   W12
 BYTE   N05  Dn3
 BYTE   W12
 BYTE   N10  An3
 BYTE   W12
 BYTE   N14  Gn3
 BYTE   W19
// 015   ----------------------------------------
 BYTE   N05  Dn3
 BYTE   W05
 BYTE   N06  Cn3
 BYTE   W07
 BYTE   N05  Cs3
 BYTE   W05
 BYTE   N04  Dn3
 BYTE   W07
 BYTE   N40  Gn2
 BYTE   W02
 BYTE   N01
 BYTE   W96
// 016   ----------------------------------------
 BYTE   W96
// 017   ----------------------------------------
 BYTE   W96
// 018   ----------------------------------------
 BYTE   W96
// 019   ----------------------------------------
 BYTE   W96
// 020   ----------------------------------------
 BYTE   W96
// 021   ----------------------------------------
 BYTE   W96
// 022   ----------------------------------------
 BYTE   W96
// 023   ----------------------------------------
 BYTE   W96
// 024   ----------------------------------------
 BYTE   W96
// 025   ----------------------------------------
 BYTE   W96
// 026   ----------------------------------------
 BYTE   W96
// 027   ----------------------------------------
 BYTE   W96
// 028   ----------------------------------------
 BYTE   W48
 BYTE   W03
 BYTE   W96
// 029   ----------------------------------------
 BYTE   W96
// 030   ----------------------------------------
 BYTE   W96
// 031   ----------------------------------------
 BYTE   W96
// 032   ----------------------------------------
 BYTE   W96
// 033   ----------------------------------------
 BYTE   W96
// 034   ----------------------------------------
 BYTE   W96
// 035   ----------------------------------------
 BYTE   N16  Gn3  v100
 BYTE   W17
 BYTE   N04  An3
 BYTE   W04
 BYTE   N03  As3
 BYTE   W03
 BYTE   N05  Cn4
 BYTE   W12
 BYTE   As3
 BYTE   W12
 BYTE   An3
 BYTE   W12
 BYTE   Gn3
 BYTE   W12
 BYTE   N18  Dn4
 BYTE   W19
 BYTE   N01  Ds4
 BYTE   W01
 BYTE   N03  En4
 BYTE   W04
// 036   ----------------------------------------
 BYTE   N04  Fn4
 BYTE   W12
 BYTE   En4
 BYTE   W12
 BYTE   Dn4
 BYTE   W07
 BYTE   Cn4
 BYTE   W12
 BYTE   N32  Dn4
 BYTE   W01
 BYTE   N01
 BYTE   W48
 BYTE   W03
 BYTE   N18  Gn3
 BYTE   W19
// 037   ----------------------------------------
 BYTE   N02  An3
 BYTE   W02
 BYTE   N03  As3
 BYTE   W03
 BYTE   N04  Cn4
 BYTE   W12
 BYTE   N06  As3
 BYTE   W12
 BYTE   N05  An3
 BYTE   W12
 BYTE   Gn3
 BYTE   W12
 BYTE   Dn3
 BYTE   W12
 BYTE   N10  An3
 BYTE   W12
 BYTE   N14  Gn3
 BYTE   W19
// 038   ----------------------------------------
 BYTE   N05  Dn3
 BYTE   W05
 BYTE   N06  Cn3
 BYTE   W07
 BYTE   N05  Cs3
 BYTE   W05
 BYTE   N04  Dn3
 BYTE   W07
 BYTE   N40  Gn2
 BYTE   W02
 BYTE   N01
 BYTE   W96
// 039   ----------------------------------------
 BYTE   W96
// 040   ----------------------------------------
 BYTE   W96
// 041   ----------------------------------------
 BYTE   W96
// 042   ----------------------------------------
 BYTE   W96
// 043   ----------------------------------------
 BYTE   W96
// 044   ----------------------------------------
 BYTE   W96
// 045   ----------------------------------------
 BYTE   W96
// 046   ----------------------------------------
 BYTE   W44
 BYTE   W02
 BYTE   GoTo
  POIN2 Label_3_01392F7C
 BYTE   FINE

//**************** Track 5 (Midi-Chn.4) ****************//

KirbyandtheAmazingMirrorCabbageCavernPandan_005:
// 000   ----------------------------------------
Label_4_01393070:
 BYTE   TEMPO   120*KirbyandtheAmazingMirrorCabbageCavernPandan_tbs/2
 BYTE   KEYSH   KirbyandtheAmazingMirrorCabbageCavernPandan_key+0
 BYTE   VOL   101*KirbyandtheAmazingMirrorCabbageCavernPandan_mvl/mxv
 BYTE   PAN   c_v+0
 BYTE   VOICE   79
 BYTE   W96
// 001   ----------------------------------------
 BYTE   W96
// 002   ----------------------------------------
 BYTE   W96
// 003   ----------------------------------------
 BYTE   W96
// 004   ----------------------------------------
 BYTE   W96
// 005   ----------------------------------------
 BYTE   W96
// 006   ----------------------------------------
 BYTE   W96
// 007   ----------------------------------------
 BYTE   W96
// 008   ----------------------------------------
 BYTE   W96
// 009   ----------------------------------------
 BYTE   W96
// 010   ----------------------------------------
 BYTE   W96
// 011   ----------------------------------------
 BYTE   W96
// 012   ----------------------------------------
 BYTE   W96
// 013   ----------------------------------------
 BYTE   W96
// 014   ----------------------------------------
 BYTE   W96
// 015   ----------------------------------------
 BYTE   W96
// 016   ----------------------------------------
 BYTE   W96
// 017   ----------------------------------------
 BYTE   W96
// 018   ----------------------------------------
 BYTE   W96
// 019   ----------------------------------------
 BYTE   W96
// 020   ----------------------------------------
Label_4_0139308E:
 BYTE   N18  Gn3  v100
 BYTE   W19
 BYTE   N05  An3
 BYTE   W05
 BYTE   Bn3
 BYTE   W07
 BYTE   N04  Cn4
 BYTE   W12
 BYTE   Dn4
 BYTE   W12
 BYTE   Cn4
 BYTE   W12
 BYTE   Bn3
 BYTE   W12
 BYTE   N10  Gn3
 BYTE   W17
 BYTE   PEND 
// 021   ----------------------------------------
 BYTE   N04  An3  v100
 BYTE   W07
 BYTE   Bn3
 BYTE   W05
 BYTE   An3
 BYTE   W07
 BYTE   Bn3
 BYTE   W05
 BYTE   Cn4
 BYTE   W07
 BYTE   Dn4
 BYTE   W12
 BYTE   N06  En4
 BYTE   W12
 BYTE   N04  An3
 BYTE   W12
 BYTE   En3
 BYTE   W12
 BYTE   N10  An2
 BYTE   W96
// 022   ----------------------------------------
 BYTE   W96
// 023   ----------------------------------------
 BYTE   W96
// 024   ----------------------------------------
 BYTE   W96
// 025   ----------------------------------------
 BYTE   W96
// 026   ----------------------------------------
 BYTE   W96
// 027   ----------------------------------------
 BYTE   W96
// 028   ----------------------------------------
 BYTE   W17
 BYTE   W96
// 029   ----------------------------------------
 BYTE   W96
// 030   ----------------------------------------
 BYTE   W96
// 031   ----------------------------------------
 BYTE   W96
// 032   ----------------------------------------
 BYTE   W96
// 033   ----------------------------------------
 BYTE   W96
// 034   ----------------------------------------
 BYTE   W96
// 035   ----------------------------------------
 BYTE   W96
// 036   ----------------------------------------
 BYTE   W96
// 037   ----------------------------------------
 BYTE   W96
// 038   ----------------------------------------
 BYTE   W96
// 039   ----------------------------------------
 BYTE   W96
// 040   ----------------------------------------
 BYTE   W96
// 041   ----------------------------------------
 BYTE   W96
// 042   ----------------------------------------
 BYTE   W96
 BYTE   PATT
  POIN2 Label_4_0139308E
// 043   ----------------------------------------
 BYTE   N04  An3  v100
 BYTE   W07
 BYTE   Bn3
 BYTE   W05
 BYTE   An3
 BYTE   W07
 BYTE   Bn3
 BYTE   W05
 BYTE   Cn4
 BYTE   W07
 BYTE   Dn4
 BYTE   W12
 BYTE   N06  En4
 BYTE   W12
 BYTE   N04  An3
 BYTE   W12
 BYTE   En3
 BYTE   W12
 BYTE   N10  An2
 BYTE   W96
// 044   ----------------------------------------
 BYTE   W96
// 045   ----------------------------------------
 BYTE   W12
 BYTE   GoTo
  POIN2 Label_4_01393070
 BYTE   FINE

//**************** Track 6 (Midi-Chn.5) ****************//

KirbyandtheAmazingMirrorCabbageCavernPandan_006:
// 000   ----------------------------------------
Label_5_013930FC:
 BYTE   TEMPO   120*KirbyandtheAmazingMirrorCabbageCavernPandan_tbs/2
 BYTE   KEYSH   KirbyandtheAmazingMirrorCabbageCavernPandan_key+0
 BYTE   VOL   70*KirbyandtheAmazingMirrorCabbageCavernPandan_mvl/mxv
 BYTE   PAN   c_v+10
 BYTE   VOICE   32
 BYTE   W12
 BYTE   N05  Bn2  v100
 BYTE   W12
 BYTE   N05  Cs3
 BYTE   W36
 BYTE   N05  Dn3
 BYTE   W12
 BYTE   N05  Cs3
 BYTE   W36
// 001   ----------------------------------------
 BYTE   N05  Bn2
 BYTE   W12
 BYTE   N05  An2
 BYTE   W36
 BYTE   N05  Gn2
 BYTE   W12
 BYTE   N05  An2
 BYTE   W36
// 002   ----------------------------------------
 BYTE   N05  Dn3
 BYTE   W12
 BYTE   N05  En3
 BYTE   W36
 BYTE   N05  Fs3
 BYTE   W12
 BYTE   N05  En3
 BYTE   W36
// 003   ----------------------------------------
 BYTE   N05  Dn3
 BYTE   W12
 BYTE   N05  Cs3
 BYTE   W36
 BYTE   N05  Bn2
 BYTE   W12
 BYTE   N05  Cs3
 BYTE   W36
// 004   ----------------------------------------
 BYTE   N05  Bn2
 BYTE   W12
 BYTE   N05  Cs3
 BYTE   W36
 BYTE   N05  Dn3
 BYTE   W12
 BYTE   N05  Cs3
 BYTE   W36
// 005   ----------------------------------------
 BYTE   N05  Bn2
 BYTE   W12
 BYTE   N05  An2
 BYTE   W36
 BYTE   N05  Gn2
 BYTE   W12
 BYTE   N05  An2
 BYTE   W36
// 006   ----------------------------------------
 BYTE   N05  Bn2
 BYTE   W12
 BYTE   N05  Cs3
 BYTE   W36
 BYTE   N05  Dn3
 BYTE   W12
 BYTE   N05  Cs3
 BYTE   W36
// 007   ----------------------------------------
 BYTE   N05  Bn2
 BYTE   W12
 BYTE   N05  An2
 BYTE   W36
 BYTE   N05  Gn2
 BYTE   W12
 BYTE   N05  An2
 BYTE   W36
// 008   ----------------------------------------
 BYTE   N05  Bn2
 BYTE   W12
 BYTE   N05  Cs3
 BYTE   W36
 BYTE   N05  Dn3
 BYTE   W12
 BYTE   N05  Cs3
 BYTE   W36
// 009   ----------------------------------------
 BYTE   N05  Bn2
 BYTE   W12
 BYTE   N05  An2
 BYTE   W36
 BYTE   N05  Gn2
 BYTE   W12
 BYTE   N05  An2
 BYTE   W36
// 010   ----------------------------------------
 BYTE   N05  Bn2
 BYTE   W12
 BYTE   N05  Cs3
 BYTE   W36
 BYTE   N05  Dn3
 BYTE   W12
 BYTE   N05  Cs3
 BYTE   W36
// 011   ----------------------------------------
 BYTE   N05  Bn2
 BYTE   W12
 BYTE   N05  An2
 BYTE   W36
 BYTE   N05  Gn2
 BYTE   W12
 BYTE   N05  An2
 BYTE   W36
// 012   ----------------------------------------
 BYTE   N05  Dn3
 BYTE   W12
 BYTE   N05  En3
 BYTE   W36
 BYTE   N05  Fn3
 BYTE   W12
 BYTE   N05  En3
 BYTE   W36
// 013   ----------------------------------------
 BYTE   N05  Dn3
 BYTE   W12
 BYTE   N05  Cn3
 BYTE   W36
 BYTE   N05  As2
 BYTE   W12
 BYTE   N05  Cn3
 BYTE   W36
// 014   ----------------------------------------
 BYTE   N05  Dn3
 BYTE   W12
 BYTE   N05  En3
 BYTE   W36
 BYTE   N05  Fn3
 BYTE   W12
 BYTE   N05  En3
 BYTE   W36
// 015   ----------------------------------------
 BYTE   N05  Dn3
 BYTE   W12
 BYTE   N05  Cn3
 BYTE   W36
 BYTE   N05  As2
 BYTE   W12
 BYTE   N05  Cn3
 BYTE   W36
// 016   ----------------------------------------
 BYTE   N05  Gn3
 BYTE   W07
 BYTE   N05
 BYTE   W05
 BYTE   N05  Bn3
 BYTE   W12
 BYTE   N05  Gn3
 BYTE   W24
 BYTE   N05
 BYTE   W07
 BYTE   N05
 BYTE   W05
 BYTE   N05  Bn3
 BYTE   W12
 BYTE   N05  Gn3
 BYTE   W24
// 017   ----------------------------------------
 BYTE   N05  An3
 BYTE   W07
 BYTE   N05
 BYTE   W05
 BYTE   N05  Cn4
 BYTE   W12
 BYTE   N05  An3
 BYTE   W24
 BYTE   N05
 BYTE   W07
 BYTE   N05
 BYTE   W05
 BYTE   N05  Cn4
 BYTE   W12
 BYTE   N05  An3
 BYTE   W24
// 018   ----------------------------------------
 BYTE   N05  Gn3
 BYTE   W07
 BYTE   N05
 BYTE   W05
 BYTE   N05  Bn3
 BYTE   W12
 BYTE   N05  Gn3
 BYTE   W24
 BYTE   N05
 BYTE   W07
 BYTE   N05
 BYTE   W05
 BYTE   N05  Bn3
 BYTE   W12
 BYTE   N05  Gn3
 BYTE   W24
// 019   ----------------------------------------
 BYTE   An3
 BYTE   W07
 BYTE   An3
 BYTE   W05
 BYTE   Cn4
 BYTE   W12
 BYTE   An3
 BYTE   W24
 BYTE   An3
 BYTE   W07
 BYTE   An3
 BYTE   W05
 BYTE   Cn4
 BYTE   W12
 BYTE   An3
 BYTE   W24
// 020   ----------------------------------------
Label_5_01393217:
 BYTE   N05  Bn3  v100
 BYTE   W07
 BYTE   Bn3
 BYTE   W05
 BYTE   Dn4
 BYTE   W12
 BYTE   Bn3
 BYTE   W24
 BYTE   Bn3
 BYTE   W07
 BYTE   Bn3
 BYTE   W05
 BYTE   Dn4
 BYTE   W12
 BYTE   Bn3
 BYTE   W24
 BYTE   PEND 
// 021   ----------------------------------------
Label_5_0139322A:
 BYTE   N05  Cn4  v100
 BYTE   W07
 BYTE   Cn4
 BYTE   W05
 BYTE   En4
 BYTE   W12
 BYTE   Cn4
 BYTE   W24
 BYTE   Cn4
 BYTE   W07
 BYTE   Cn4
 BYTE   W05
 BYTE   En4
 BYTE   W12
 BYTE   Cn4
 BYTE   W24
 BYTE   PEND 
 BYTE   PATT
  POIN2 Label_5_01393217
// 022   ----------------------------------------
 BYTE   N05  Bn3  v100
 BYTE   W07
 BYTE   Bn3
 BYTE   W05
 BYTE   Ds4
 BYTE   W12
 BYTE   Bn3
 BYTE   W24
 BYTE   Fs4
 BYTE   W07
 BYTE   Fs4
 BYTE   W17
 BYTE   Bn4
 BYTE   W24
// 023   ----------------------------------------
Label_5_01393252:
 BYTE   N05  Bn2  v100
 BYTE   W12
 BYTE   Cs3
 BYTE   W36
 BYTE   Dn3
 BYTE   W12
 BYTE   Cs3
 BYTE   W36
 BYTE   PEND 
// 024   ----------------------------------------
Label_5_0139325D:
 BYTE   N05  Bn2  v100
 BYTE   W12
 BYTE   An2
 BYTE   W36
 BYTE   Gn2
 BYTE   W12
 BYTE   An2
 BYTE   W36
 BYTE   PEND 
// 025   ----------------------------------------
 BYTE   N05  Dn3  v100
 BYTE   W12
 BYTE   En3
 BYTE   W36
 BYTE   Fs3
 BYTE   W12
 BYTE   En3
 BYTE   W36
// 026   ----------------------------------------
 BYTE   Dn3
 BYTE   W12
 BYTE   Cs3
 BYTE   W36
 BYTE   Bn2
 BYTE   W12
 BYTE   Cs3
 BYTE   W36
// 027   ----------------------------------------
 BYTE   Bn2
 BYTE   W12
 BYTE   Cs3
 BYTE   W36
 BYTE   Dn3
 BYTE   W12
 BYTE   Cs3
 BYTE   W24
 BYTE   W12
 BYTE   PATT
  POIN2 Label_5_0139325D
 BYTE   PATT
  POIN2 Label_5_01393252
 BYTE   PATT
  POIN2 Label_5_0139325D
 BYTE   PATT
  POIN2 Label_5_01393252
 BYTE   PATT
  POIN2 Label_5_0139325D
 BYTE   PATT
  POIN2 Label_5_01393252
 BYTE   PATT
  POIN2 Label_5_0139325D
// 028   ----------------------------------------
Label_5_013932A6:
 BYTE   N05  Dn3  v100
 BYTE   W12
 BYTE   En3
 BYTE   W36
 BYTE   Fn3
 BYTE   W12
 BYTE   En3
 BYTE   W36
 BYTE   PEND 
// 029   ----------------------------------------
Label_5_013932B1:
 BYTE   N05  Dn3  v100
 BYTE   W12
 BYTE   Cn3
 BYTE   W36
 BYTE   As2
 BYTE   W12
 BYTE   Cn3
 BYTE   W36
 BYTE   PEND 
 BYTE   PATT
  POIN2 Label_5_013932A6
 BYTE   PATT
  POIN2 Label_5_013932B1
// 030   ----------------------------------------
Label_5_013932C6:
 BYTE   N05  Gn3  v100
 BYTE   W07
 BYTE   Gn3
 BYTE   W05
 BYTE   Bn3
 BYTE   W12
 BYTE   Gn3
 BYTE   W24
 BYTE   Gn3
 BYTE   W07
 BYTE   Gn3
 BYTE   W05
 BYTE   Bn3
 BYTE   W12
 BYTE   Gn3
 BYTE   W24
 BYTE   PEND 
// 031   ----------------------------------------
Label_5_013932D9:
 BYTE   N05  An3  v100
 BYTE   W07
 BYTE   An3
 BYTE   W05
 BYTE   Cn4
 BYTE   W12
 BYTE   An3
 BYTE   W24
 BYTE   An3
 BYTE   W07
 BYTE   An3
 BYTE   W05
 BYTE   Cn4
 BYTE   W12
 BYTE   An3
 BYTE   W24
 BYTE   PEND 
 BYTE   PATT
  POIN2 Label_5_013932C6
 BYTE   PATT
  POIN2 Label_5_013932D9
 BYTE   PATT
  POIN2 Label_5_01393217
 BYTE   PATT
  POIN2 Label_5_0139322A
 BYTE   PATT
  POIN2 Label_5_01393217
// 032   ----------------------------------------
 BYTE   N05  Bn3  v100
 BYTE   W07
 BYTE   Bn3
 BYTE   W05
 BYTE   Ds4
 BYTE   W12
 BYTE   Bn3
 BYTE   W24
 BYTE   Fs4
 BYTE   W07
 BYTE   Fs4
 BYTE   W17
 BYTE   Bn4
 BYTE   W07
 BYTE   GoTo
  POIN2 Label_5_013930FC
 BYTE   FINE

//**************** Track 7 (Midi-Chn.6) ****************//

KirbyandtheAmazingMirrorCabbageCavernPandan_007:
// 000   ----------------------------------------
Label_6_0139331C:
 BYTE   TEMPO   120*KirbyandtheAmazingMirrorCabbageCavernPandan_tbs/2
 BYTE   KEYSH   KirbyandtheAmazingMirrorCabbageCavernPandan_key+0
 BYTE   VOL   70*KirbyandtheAmazingMirrorCabbageCavernPandan_mvl/mxv
 BYTE   PAN   c_v-10
 BYTE   VOICE   32
 BYTE   W12
 BYTE   N05  Gn2  v100
 BYTE   W12
 BYTE   N05  An2
 BYTE   W36
 BYTE   N05  Bn2
 BYTE   W12
 BYTE   N05  An2
 BYTE   W36
// 001   ----------------------------------------
 BYTE   N05  Gn2
 BYTE   W12
 BYTE   N05  Fs2
 BYTE   W36
 BYTE   N05  En2
 BYTE   W12
 BYTE   N05  Fs2
 BYTE   W36
// 002   ----------------------------------------
 BYTE   N05  Gn2
 BYTE   W12
 BYTE   N05  An2
 BYTE   W36
 BYTE   N05  Bn2
 BYTE   W12
 BYTE   N05  An2
 BYTE   W36
// 003   ----------------------------------------
 BYTE   N05  Gn2
 BYTE   W12
 BYTE   N05  Fs2
 BYTE   W36
 BYTE   N05  En2
 BYTE   W12
 BYTE   N05  Fs2
 BYTE   W36
// 004   ----------------------------------------
 BYTE   N05  Gn2
 BYTE   W12
 BYTE   N05  An2
 BYTE   W36
 BYTE   N05  Bn2
 BYTE   W12
 BYTE   N05  An2
 BYTE   W36
// 005   ----------------------------------------
 BYTE   N05  Gn2
 BYTE   W12
 BYTE   N05  Fs2
 BYTE   W36
 BYTE   N05  En2
 BYTE   W12
 BYTE   N05  Fs2
 BYTE   W36
// 006   ----------------------------------------
 BYTE   N05  Gn2
 BYTE   W12
 BYTE   N05  An2
 BYTE   W36
 BYTE   N05  Bn2
 BYTE   W12
 BYTE   N05  An2
 BYTE   W36
// 007   ----------------------------------------
 BYTE   N05  Gn2
 BYTE   W12
 BYTE   N05  Fs2
 BYTE   W36
 BYTE   N05  En2
 BYTE   W12
 BYTE   N05  Fs2
 BYTE   W36
// 008   ----------------------------------------
 BYTE   N05  Gn2
 BYTE   W12
 BYTE   N05  An2
 BYTE   W36
 BYTE   N05  Bn2
 BYTE   W12
 BYTE   N05  An2
 BYTE   W36
// 009   ----------------------------------------
 BYTE   N05  Gn2
 BYTE   W12
 BYTE   N05  Fs2
 BYTE   W36
 BYTE   N05  En2
 BYTE   W12
 BYTE   N05  Fs2
 BYTE   W36
// 010   ----------------------------------------
 BYTE   N05  Gn2
 BYTE   W12
 BYTE   N05  An2
 BYTE   W36
 BYTE   N05  Bn2
 BYTE   W12
 BYTE   N05  An2
 BYTE   W36
// 011   ----------------------------------------
 BYTE   N05  Gn2
 BYTE   W12
 BYTE   N05  Fs2
 BYTE   W36
 BYTE   N05  En2
 BYTE   W12
 BYTE   N05  Fs2
 BYTE   W36
// 012   ----------------------------------------
 BYTE   N05  As2
 BYTE   W12
 BYTE   N05  Cn3
 BYTE   W36
 BYTE   N05  Dn3
 BYTE   W12
 BYTE   N05  Cn3
 BYTE   W36
// 013   ----------------------------------------
 BYTE   N05  As2
 BYTE   W12
 BYTE   N05  An2
 BYTE   W36
 BYTE   N05  Gn2
 BYTE   W12
 BYTE   N05  An2
 BYTE   W36
// 014   ----------------------------------------
 BYTE   N05  As2
 BYTE   W12
 BYTE   N05  Cn3
 BYTE   W36
 BYTE   N05  Dn3
 BYTE   W12
 BYTE   N05  Cn3
 BYTE   W36
// 015   ----------------------------------------
 BYTE   N05  As2
 BYTE   W12
 BYTE   N05  An2
 BYTE   W36
 BYTE   N05  Gn2
 BYTE   W12
 BYTE   N05  An2
 BYTE   W36
// 016   ----------------------------------------
 BYTE   N05  Bn2
 BYTE   W07
 BYTE   N05
 BYTE   W05
 BYTE   N05  En3
 BYTE   W12
 BYTE   N05  Bn2
 BYTE   W24
 BYTE   N05
 BYTE   W07
 BYTE   N05
 BYTE   W05
 BYTE   N05  En3
 BYTE   W12
 BYTE   N05  Bn2
 BYTE   W24
// 017   ----------------------------------------
 BYTE   N05  Cn3
 BYTE   W07
 BYTE   N05
 BYTE   W05
 BYTE   N05  Fn3
 BYTE   W12
 BYTE   N05  Cn3
 BYTE   W24
 BYTE   N05
 BYTE   W07
 BYTE   N05
 BYTE   W05
 BYTE   N05  Fn3
 BYTE   W12
 BYTE   N05  Cn3
 BYTE   W24
// 018   ----------------------------------------
 BYTE   N05  Bn2
 BYTE   W07
 BYTE   N05
 BYTE   W05
 BYTE   N05  En3
 BYTE   W12
 BYTE   N05  Bn2
 BYTE   W24
 BYTE   N05
 BYTE   W07
 BYTE   N05
 BYTE   W05
 BYTE   N05  En3
 BYTE   W12
 BYTE   N05  Bn2
 BYTE   W24
// 019   ----------------------------------------
 BYTE   Cn3
 BYTE   W07
 BYTE   Cn3
 BYTE   W05
 BYTE   Fn3
 BYTE   W12
 BYTE   Cn3
 BYTE   W24
 BYTE   Cn3
 BYTE   W07
 BYTE   Cn3
 BYTE   W05
 BYTE   Fn3
 BYTE   W12
 BYTE   Cn3
 BYTE   W24
// 020   ----------------------------------------
Label_6_01393437:
 BYTE   N05  Dn3  v100
 BYTE   W07
 BYTE   Dn3
 BYTE   W05
 BYTE   Gn3
 BYTE   W12
 BYTE   Dn3
 BYTE   W24
 BYTE   Dn3
 BYTE   W07
 BYTE   Dn3
 BYTE   W05
 BYTE   Gn3
 BYTE   W12
 BYTE   Dn3
 BYTE   W24
 BYTE   PEND 
// 021   ----------------------------------------
Label_6_0139344A:
 BYTE   N05  En3  v100
 BYTE   W07
 BYTE   En3
 BYTE   W05
 BYTE   An3
 BYTE   W12
 BYTE   En3
 BYTE   W24
 BYTE   En3
 BYTE   W07
 BYTE   En3
 BYTE   W05
 BYTE   An3
 BYTE   W12
 BYTE   En3
 BYTE   W24
 BYTE   PEND 
 BYTE   PATT
  POIN2 Label_6_01393437
// 022   ----------------------------------------
 BYTE   N05  Fs3  v100
 BYTE   W07
 BYTE   Fs3
 BYTE   W05
 BYTE   An3
 BYTE   W36
 BYTE   Bn3
 BYTE   W07
 BYTE   En4
 BYTE   W17
 BYTE   An4
 BYTE   W07
 BYTE   Bn3
 BYTE   W17
// 023   ----------------------------------------
Label_6_01393472:
 BYTE   N05  Gn2  v100
 BYTE   W12
 BYTE   An2
 BYTE   W36
 BYTE   Bn2
 BYTE   W12
 BYTE   An2
 BYTE   W36
 BYTE   PEND 
// 024   ----------------------------------------
Label_6_0139347D:
 BYTE   N05  Gn2  v100
 BYTE   W12
 BYTE   Fs2
 BYTE   W36
 BYTE   En2
 BYTE   W12
 BYTE   Fs2
 BYTE   W36
 BYTE   PEND 
 BYTE   PATT
  POIN2 Label_6_01393472
 BYTE   PATT
  POIN2 Label_6_0139347D
// 025   ----------------------------------------
 BYTE   N05  Gn2  v100
 BYTE   W12
 BYTE   An2
 BYTE   W36
 BYTE   Bn2
 BYTE   W12
 BYTE   An2
 BYTE   W24
 BYTE   W12
 BYTE   PATT
  POIN2 Label_6_0139347D
 BYTE   PATT
  POIN2 Label_6_01393472
 BYTE   PATT
  POIN2 Label_6_0139347D
 BYTE   PATT
  POIN2 Label_6_01393472
 BYTE   PATT
  POIN2 Label_6_0139347D
 BYTE   PATT
  POIN2 Label_6_01393472
 BYTE   PATT
  POIN2 Label_6_0139347D
// 026   ----------------------------------------
Label_6_013934C0:
 BYTE   N05  As2  v100
 BYTE   W12
 BYTE   Cn3
 BYTE   W36
 BYTE   Dn3
 BYTE   W12
 BYTE   Cn3
 BYTE   W36
 BYTE   PEND 
// 027   ----------------------------------------
Label_6_013934CB:
 BYTE   N05  As2  v100
 BYTE   W12
 BYTE   An2
 BYTE   W36
 BYTE   Gn2
 BYTE   W12
 BYTE   An2
 BYTE   W36
 BYTE   PEND 
 BYTE   PATT
  POIN2 Label_6_013934C0
 BYTE   PATT
  POIN2 Label_6_013934CB
// 028   ----------------------------------------
Label_6_013934E0:
 BYTE   N05  Bn2  v100
 BYTE   W07
 BYTE   Bn2
 BYTE   W05
 BYTE   En3
 BYTE   W12
 BYTE   Bn2
 BYTE   W24
 BYTE   Bn2
 BYTE   W07
 BYTE   Bn2
 BYTE   W05
 BYTE   En3
 BYTE   W12
 BYTE   Bn2
 BYTE   W24
 BYTE   PEND 
// 029   ----------------------------------------
Label_6_013934F3:
 BYTE   N05  Cn3  v100
 BYTE   W07
 BYTE   Cn3
 BYTE   W05
 BYTE   Fn3
 BYTE   W12
 BYTE   Cn3
 BYTE   W24
 BYTE   Cn3
 BYTE   W07
 BYTE   Cn3
 BYTE   W05
 BYTE   Fn3
 BYTE   W12
 BYTE   Cn3
 BYTE   W24
 BYTE   PEND 
 BYTE   PATT
  POIN2 Label_6_013934E0
 BYTE   PATT
  POIN2 Label_6_013934F3
 BYTE   PATT
  POIN2 Label_6_01393437
 BYTE   PATT
  POIN2 Label_6_0139344A
 BYTE   PATT
  POIN2 Label_6_01393437
// 030   ----------------------------------------
 BYTE   N05  Fs3  v100
 BYTE   W07
 BYTE   Fs3
 BYTE   W05
 BYTE   An3
 BYTE   W36
 BYTE   Bn3
 BYTE   W07
 BYTE   En4
 BYTE   W17
 BYTE   An4
 BYTE   W07
 BYTE   Bn3
 BYTE   GoTo
  POIN2 Label_6_0139331C
 BYTE   FINE

//**************** Track 8 (Midi-Chn.7) ****************//

KirbyandtheAmazingMirrorCabbageCavernPandan_008:
// 000   ----------------------------------------
Label_7_01393534:
 BYTE   TEMPO   120*KirbyandtheAmazingMirrorCabbageCavernPandan_tbs/2
 BYTE   KEYSH   KirbyandtheAmazingMirrorCabbageCavernPandan_key+0
 BYTE   VOL   70*KirbyandtheAmazingMirrorCabbageCavernPandan_mvl/mxv
 BYTE   PAN   c_v+0
 BYTE   VOICE   32
 BYTE   W96
// 001   ----------------------------------------
 BYTE   W96
// 002   ----------------------------------------
 BYTE   W12
 BYTE   N04  Bn2  v100
 BYTE   W12
 BYTE   N04  Cs3
 BYTE   W36
 BYTE   N04  Dn3
 BYTE   W12
 BYTE   N04  Cs3
 BYTE   W36
// 003   ----------------------------------------
 BYTE   N04  Bn2
 BYTE   W12
 BYTE   N04  An2
 BYTE   W36
 BYTE   N04  Gn2
 BYTE   W12
 BYTE   N04  An2
 BYTE   W96
// 004   ----------------------------------------
 BYTE   W96
// 005   ----------------------------------------
 BYTE   W96
// 006   ----------------------------------------
 BYTE   W96
// 007   ----------------------------------------
 BYTE   W96
// 008   ----------------------------------------
 BYTE   W96
// 009   ----------------------------------------
 BYTE   W96
// 010   ----------------------------------------
 BYTE   W96
// 011   ----------------------------------------
 BYTE   W96
// 012   ----------------------------------------
 BYTE   W96
// 013   ----------------------------------------
 BYTE   W96
// 014   ----------------------------------------
 BYTE   W96
// 015   ----------------------------------------
 BYTE   W96
// 016   ----------------------------------------
 BYTE   W96
// 017   ----------------------------------------
 BYTE   W96
// 018   ----------------------------------------
 BYTE   W96
// 019   ----------------------------------------
 BYTE   W96
// 020   ----------------------------------------
 BYTE   W96
// 021   ----------------------------------------
 BYTE   W96
// 022   ----------------------------------------
 BYTE   W96
// 023   ----------------------------------------
 BYTE   W96
// 024   ----------------------------------------
 BYTE   W96
// 025   ----------------------------------------
 BYTE   W36
 BYTE   Bn2
 BYTE   W12
 BYTE   Cs3
 BYTE   W36
 BYTE   Dn3
 BYTE   W12
// 026   ----------------------------------------
 BYTE   Cs3
 BYTE   W36
 BYTE   Bn2
 BYTE   W12
 BYTE   An2
 BYTE   W36
 BYTE   Gn2
 BYTE   W12
// 027   ----------------------------------------
 BYTE   An2
 BYTE   W96
// 028   ----------------------------------------
 BYTE   W24
 BYTE   W96
// 029   ----------------------------------------
 BYTE   W96
// 030   ----------------------------------------
 BYTE   W96
// 031   ----------------------------------------
 BYTE   W96
// 032   ----------------------------------------
 BYTE   W96
// 033   ----------------------------------------
 BYTE   W96
// 034   ----------------------------------------
 BYTE   W96
// 035   ----------------------------------------
 BYTE   W96
// 036   ----------------------------------------
 BYTE   W96
// 037   ----------------------------------------
 BYTE   W96
// 038   ----------------------------------------
 BYTE   W96
// 039   ----------------------------------------
 BYTE   W96
// 040   ----------------------------------------
 BYTE   W96
// 041   ----------------------------------------
 BYTE   W96
// 042   ----------------------------------------
 BYTE   W96
// 043   ----------------------------------------
 BYTE   W96
// 044   ----------------------------------------
 BYTE   W96
// 045   ----------------------------------------
 BYTE   W96
// 046   ----------------------------------------
 BYTE   W90
 BYTE   W01
 BYTE   GoTo
  POIN2 Label_7_01393534
 BYTE   FINE

//**************** Track 9 (Midi-Chn.8) ****************//

KirbyandtheAmazingMirrorCabbageCavernPandan_009:
// 000   ----------------------------------------
Label_8_0139359C:
 BYTE   TEMPO   120*KirbyandtheAmazingMirrorCabbageCavernPandan_tbs/2
 BYTE   KEYSH   KirbyandtheAmazingMirrorCabbageCavernPandan_key+0
 BYTE   VOL   70*KirbyandtheAmazingMirrorCabbageCavernPandan_mvl/mxv
 BYTE   PAN   c_v+0
 BYTE   VOICE   57
 BYTE   W96
// 001   ----------------------------------------
 BYTE   W96
// 002   ----------------------------------------
 BYTE   W96
// 003   ----------------------------------------
 BYTE   W96
// 004   ----------------------------------------
 BYTE   W96
// 005   ----------------------------------------
 BYTE   W96
// 006   ----------------------------------------
 BYTE   W96
// 007   ----------------------------------------
 BYTE   W96
// 008   ----------------------------------------
 BYTE   W96
// 009   ----------------------------------------
 BYTE   W96
// 010   ----------------------------------------
 BYTE   W96
// 011   ----------------------------------------
 BYTE   W96
// 012   ----------------------------------------
 BYTE   W96
// 013   ----------------------------------------
 BYTE   W96
// 014   ----------------------------------------
 BYTE   W96
// 015   ----------------------------------------
 BYTE   W96
// 016   ----------------------------------------
 BYTE   W96
// 017   ----------------------------------------
 BYTE   W96
// 018   ----------------------------------------
 BYTE   W96
// 019   ----------------------------------------
 BYTE   W96
// 020   ----------------------------------------
 BYTE   W96
// 021   ----------------------------------------
 BYTE   W96
// 022   ----------------------------------------
 BYTE   W96
// 023   ----------------------------------------
 BYTE   W72
 BYTE   N24  Bn3  v100
 BYTE   W96
// 024   ----------------------------------------
 BYTE   W96
// 025   ----------------------------------------
 BYTE   W96
// 026   ----------------------------------------
 BYTE   W96
// 027   ----------------------------------------
 BYTE   W96
// 028   ----------------------------------------
 BYTE   W24
 BYTE   W96
// 029   ----------------------------------------
 BYTE   W96
// 030   ----------------------------------------
 BYTE   W96
// 031   ----------------------------------------
 BYTE   W96
// 032   ----------------------------------------
 BYTE   W96
// 033   ----------------------------------------
 BYTE   W96
// 034   ----------------------------------------
 BYTE   W96
// 035   ----------------------------------------
 BYTE   W96
// 036   ----------------------------------------
 BYTE   W96
// 037   ----------------------------------------
 BYTE   W96
// 038   ----------------------------------------
 BYTE   W96
// 039   ----------------------------------------
 BYTE   W96
// 040   ----------------------------------------
 BYTE   W96
// 041   ----------------------------------------
 BYTE   W96
// 042   ----------------------------------------
 BYTE   W96
// 043   ----------------------------------------
 BYTE   W96
// 044   ----------------------------------------
 BYTE   W96
// 045   ----------------------------------------
 BYTE   W96
// 046   ----------------------------------------
 BYTE   W72
 BYTE   N24  Bn3  v100
 BYTE   W19
 BYTE   GoTo
  POIN2 Label_8_0139359C
 BYTE   FINE

//******************************************************//
	ALIGN 4

KirbyandtheAmazingMirrorCabbageCavernPandan:
	BYTE	9	// NumTrks
	BYTE	0	// NumBlks
	BYTE	KirbyandtheAmazingMirrorCabbageCavernPandan_pri	// Priority
	BYTE	KirbyandtheAmazingMirrorCabbageCavernPandan_rev	// Reverb.
    
	POIN2	KirbyandtheAmazingMirrorCabbageCavernPandan_grp
    
	POIN2	KirbyandtheAmazingMirrorCabbageCavernPandan_001
	POIN2	KirbyandtheAmazingMirrorCabbageCavernPandan_002
	POIN2	KirbyandtheAmazingMirrorCabbageCavernPandan_003
	POIN2	KirbyandtheAmazingMirrorCabbageCavernPandan_004
	POIN2	KirbyandtheAmazingMirrorCabbageCavernPandan_005
	POIN2	KirbyandtheAmazingMirrorCabbageCavernPandan_006
	POIN2	KirbyandtheAmazingMirrorCabbageCavernPandan_007
	POIN2	KirbyandtheAmazingMirrorCabbageCavernPandan_008
	POIN2	KirbyandtheAmazingMirrorCabbageCavernPandan_009

	
