//Event file generated from Sappy .s format.
	#include "MPlayDef.event"

	#define	KirbyTripleDeluxeBouncingBossBattleRandomWizard_grp  voicegroup000
	#define	KirbyTripleDeluxeBouncingBossBattleRandomWizard_pri  0
	#define	KirbyTripleDeluxeBouncingBossBattleRandomWizard_rev  0
	#define	KirbyTripleDeluxeBouncingBossBattleRandomWizard_mvl  127
	#define	KirbyTripleDeluxeBouncingBossBattleRandomWizard_key  0
	#define	KirbyTripleDeluxeBouncingBossBattleRandomWizard_tbs  1
	#define	KirbyTripleDeluxeBouncingBossBattleRandomWizard_exg  0
	#define	KirbyTripleDeluxeBouncingBossBattleRandomWizard_cmp  1

	// .rodata
	//	KirbyTripleDeluxeBouncingBossBattleRandomWizard
	ALIGN 4


//**************** Track 1 (Midi-Chn.0) ****************//

KirbyTripleDeluxeBouncingBossBattleRandomWizard_001:
// 000   ----------------------------------------
 BYTE   KEYSH   KirbyTripleDeluxeBouncingBossBattleRandomWizard_key+0
 BYTE   TEMPO   124*KirbyTripleDeluxeBouncingBossBattleRandomWizard_tbs/2
 BYTE   VOICE   89
 BYTE   VOL   40*KirbyTripleDeluxeBouncingBossBattleRandomWizard_mvl/mxv
 BYTE   PAN   c_v+0
 BYTE   N06  Gn1  v100
 BYTE   W06
 BYTE   N06
 BYTE   W12
 BYTE   N06
 BYTE   W18
 BYTE   Fn1
 BYTE   W06
 BYTE   N06
 BYTE   W12
 BYTE   N06
 BYTE   W12
 BYTE   N12  Dn2
 BYTE   W12
 BYTE   N18  Fn1
 BYTE   W18
// 001   ----------------------------------------
 BYTE   N06  Ds1
 BYTE   W06
 BYTE   N06
 BYTE   W12
 BYTE   Ds2
 BYTE   W12
 BYTE   Dn1
 BYTE   W06
 BYTE   N06
 BYTE   W12
 BYTE   Dn2
 BYTE   W12
 BYTE   Dn1
 BYTE   W12
 BYTE   N24
 BYTE   W24
// 002   ----------------------------------------
 BYTE   N06  Gn1
 BYTE   W06
 BYTE   N06
 BYTE   W90
// 003   ----------------------------------------
 BYTE   W96
// 004   ----------------------------------------
Label_0_01556499:
 BYTE   N06  Gn0  v100
 BYTE   W06
 BYTE   N06
 BYTE   W12
 BYTE   N09  Gn1
 BYTE   W18
 BYTE   N06  Gn0
 BYTE   W06
 BYTE   N06
 BYTE   W12
 BYTE   N09  Gn1
 BYTE   W12
 BYTE   N12
 BYTE   W12
 BYTE   N06  An1
 BYTE   W06
 BYTE   Gn1
 BYTE   W12
// 005   ----------------------------------------
 BYTE   Fn0
 BYTE   W06
 BYTE   N06
 BYTE   W12
 BYTE   Fn1
 BYTE   W06
 BYTE   N06
 BYTE   W12
 BYTE   Fn0
 BYTE   W06
 BYTE   N06
 BYTE   W12
 BYTE   N09  Fn1
 BYTE   W12
 BYTE   N12  Fn0
 BYTE   W12
 BYTE   N06
 BYTE   W06
 BYTE   N06
 BYTE   W12
// 006   ----------------------------------------
 BYTE   Ds1
 BYTE   W06
 BYTE   N06
 BYTE   W12
 BYTE   Ds2
 BYTE   W24
 BYTE   Ds1
 BYTE   W06
 BYTE   N03  Gn1
 BYTE   W06
 BYTE   Ds1
 BYTE   W06
 BYTE   Dn1
 BYTE   W06
 BYTE   N12  Ds1
 BYTE   W30
// 007   ----------------------------------------
 BYTE   Gs0
 BYTE   W18
 BYTE   N06
 BYTE   W18
 BYTE   N12  Dn1
 BYTE   W18
 BYTE   N06
 BYTE   W12
 BYTE   N06
 BYTE   W06
 BYTE   N03  Gs0
 BYTE   W06
 BYTE   N03
 BYTE   W06
 BYTE   N12
 BYTE   W12
// 008   ----------------------------------------
 BYTE   N06  Gn0
 BYTE   W06
 BYTE   N06
 BYTE   W12
 BYTE   Gn1
 BYTE   W18
 BYTE   Gn0
 BYTE   W06
 BYTE   N06
 BYTE   W12
 BYTE   Gn1
 BYTE   W12
 BYTE   N12
 BYTE   W12
 BYTE   N06  An1
 BYTE   W06
 BYTE   N03  Gn1
 BYTE   W06
 BYTE   Gn0
 BYTE   W06
// 009   ----------------------------------------
 BYTE   N12  Fn1
 BYTE   W18
 BYTE   N03  As0
 BYTE   W06
 BYTE   N06  Fn0
 BYTE   W12
 BYTE   Fn1
 BYTE   W06
 BYTE   Fn0
 BYTE   W12
 BYTE   N12  Fn1
 BYTE   W12
 BYTE   N06  Fn0
 BYTE   W06
 BYTE   Fn1
 BYTE   W06
 BYTE   N03
 BYTE   W06
 BYTE   N03
 BYTE   W06
 BYTE   En1
 BYTE   W06
// 010   ----------------------------------------
 BYTE   N12  Ds1
 BYTE   W18
 BYTE   N09  Ds2
 BYTE   W12
 BYTE   N06  Ds1
 BYTE   W12
 BYTE   N06
 BYTE   W06
 BYTE   Gn1
 BYTE   W06
 BYTE   N03  Ds1
 BYTE   W06
 BYTE   Dn1
 BYTE   W06
 BYTE   N12  Ds1
 BYTE   W12
 BYTE   N06  Ds0
 BYTE   W18
// 011   ----------------------------------------
 BYTE   N12  Gs0
 BYTE   W18
 BYTE   N12
 BYTE   W18
 BYTE   Dn1
 BYTE   W18
 BYTE   N09
 BYTE   W12
 BYTE   N06
 BYTE   W06
 BYTE   Gs0
 BYTE   W12
 BYTE   N09
 BYTE   W12
// 012   ----------------------------------------
 BYTE   N06  Gn0
 BYTE   W12
 BYTE   N06
 BYTE   W06
 BYTE   Gn1
 BYTE   W12
 BYTE   Gn0
 BYTE   W12
 BYTE   N06
 BYTE   W06
 BYTE   N06
 BYTE   W12
 BYTE   N06
 BYTE   W06
 BYTE   Gn1
 BYTE   W12
 BYTE   N12  Gn0
 BYTE   W18
// 013   ----------------------------------------
Label_0_01556558:
 BYTE   N06  Gn0  v100
 BYTE   W12
 BYTE   N06
 BYTE   W06
 BYTE   Gn1
 BYTE   W12
 BYTE   N06
 BYTE   W12
 BYTE   N06
 BYTE   W06
 BYTE   Gn0
 BYTE   W12
 BYTE   N06
 BYTE   W06
 BYTE   Gn1
 BYTE   W12
 BYTE   N12  Gn0
 BYTE   W18
 BYTE   PEND 
// 014   ----------------------------------------
 BYTE   N06  Ds1
 BYTE   W12
 BYTE   Gn0
 BYTE   W06
 BYTE   Ds1
 BYTE   W12
 BYTE   Gn0
 BYTE   W12
 BYTE   Ds1
 BYTE   W06
 BYTE   Dn1
 BYTE   W18
 BYTE   An0
 BYTE   W12
 BYTE   Dn1
 BYTE   W06
 BYTE   Ds0
 BYTE   W06
 BYTE   N06
 BYTE   W06
// 015   ----------------------------------------
 BYTE   N12  Cn1
 BYTE   W18
 BYTE   N12
 BYTE   W18
 BYTE   N06
 BYTE   W12
 BYTE   Dn1
 BYTE   W06
 BYTE   N06
 BYTE   W12
 BYTE   N06
 BYTE   W12
 BYTE   N06
 BYTE   W06
 BYTE   N06
 BYTE   W06
 BYTE   N06
 BYTE   W06
// 016   ----------------------------------------
 BYTE   Gn0
 BYTE   W12
 BYTE   N06
 BYTE   W06
 BYTE   Gn1
 BYTE   W12
 BYTE   N06
 BYTE   W06
 BYTE   Gn0
 BYTE   W06
 BYTE   N06
 BYTE   W06
 BYTE   N06
 BYTE   W12
 BYTE   N06
 BYTE   W06
 BYTE   Gn1
 BYTE   W12
 BYTE   N12  Gn0
 BYTE   W18
 BYTE   PATT
  POIN2 Label_0_01556558
// 017   ----------------------------------------
 BYTE   N06  Ds1  v100
 BYTE   W12
 BYTE   Gn0
 BYTE   W06
 BYTE   Ds1
 BYTE   W12
 BYTE   Gn0
 BYTE   W12
 BYTE   Ds1
 BYTE   W06
 BYTE   Dn1
 BYTE   W18
 BYTE   An0
 BYTE   W06
 BYTE   Dn1
 BYTE   W12
 BYTE   Ds0
 BYTE   W06
 BYTE   N06
 BYTE   W06
// 018   ----------------------------------------
 BYTE   Ds1
 BYTE   W12
 BYTE   N06
 BYTE   W06
 BYTE   N06
 BYTE   W06
 BYTE   Cs1
 BYTE   W12
 BYTE   N06
 BYTE   W06
 BYTE   N06
 BYTE   W06
 BYTE   Cn1
 BYTE   W06
 BYTE   N06
 BYTE   W06
 BYTE   N06
 BYTE   W06
 BYTE   N12  Dn1
 BYTE   W12
 BYTE   N06
 BYTE   W06
 BYTE   N06
 BYTE   W06
 BYTE   N06
 BYTE   W06
// 019   ----------------------------------------
Label_0_015565E1:
 BYTE   N06  Gn1  v100
 BYTE   W06
 BYTE   N06
 BYTE   W06
 BYTE   N06
 BYTE   W06
 BYTE   N06
 BYTE   W12
 BYTE   N18
 BYTE   W18
 BYTE   N06  Fn1
 BYTE   W06
 BYTE   N06
 BYTE   W06
 BYTE   N06
 BYTE   W06
 BYTE   N06
 BYTE   W12
 BYTE   N06
 BYTE   W12
 BYTE   N06
 BYTE   W06
 BYTE   PEND 
// 020   ----------------------------------------
 BYTE   En1
 BYTE   W06
 BYTE   N06
 BYTE   W06
 BYTE   N06
 BYTE   W06
 BYTE   N06
 BYTE   W12
 BYTE   N06
 BYTE   W12
 BYTE   N06
 BYTE   W06
 BYTE   Ds1
 BYTE   W12
 BYTE   Dn1
 BYTE   W06
 BYTE   N12  Cs1
 BYTE   W12
 BYTE   N06
 BYTE   W06
 BYTE   N06
 BYTE   W06
 BYTE   N06
 BYTE   W06
 BYTE   PATT
  POIN2 Label_0_015565E1
// 021   ----------------------------------------
 BYTE   N06  En1  v100
 BYTE   W06
 BYTE   N06
 BYTE   W06
 BYTE   N06
 BYTE   W06
 BYTE   N06
 BYTE   W12
 BYTE   N06
 BYTE   W12
 BYTE   N06
 BYTE   W06
 BYTE   Ds1
 BYTE   W06
 BYTE   N06
 BYTE   W12
 BYTE   Dn1
 BYTE   W12
 BYTE   N12  Fn1
 BYTE   W18
// 022   ----------------------------------------
 BYTE   Gn1
 BYTE   W96
// 023   ----------------------------------------
 BYTE   W96
// 024   ----------------------------------------
 BYTE   GoTo
  POIN2 Label_0_01556499
 BYTE   FINE

//**************** Track 2 (Midi-Chn.1) ****************//

KirbyTripleDeluxeBouncingBossBattleRandomWizard_002:
// 000   ----------------------------------------
 BYTE   KEYSH   KirbyTripleDeluxeBouncingBossBattleRandomWizard_key+0
 BYTE   VOICE   65
 BYTE   VOL   40*KirbyTripleDeluxeBouncingBossBattleRandomWizard_mvl/mxv
 BYTE   PAN   c_v+0
 BYTE   N06  Cn2  v100
 BYTE   N06  An2
 BYTE   W06
 BYTE   Dn2
 BYTE   N06  As2
 BYTE   W12
 BYTE   Dn2
 BYTE   N06  As2
 BYTE   W18
 BYTE   Cn2
 BYTE   N06  An2
 BYTE   W06
 BYTE   Dn2
 BYTE   N06  As2
 BYTE   W12
 BYTE   Dn2
 BYTE   N06  As2
 BYTE   W18
 BYTE   Dn3
 BYTE   W06
 BYTE   Cn3
 BYTE   W06
 BYTE   As2
 BYTE   W06
 BYTE   Cn3
 BYTE   W06
// 001   ----------------------------------------
 BYTE   N12  Dn2
 BYTE   N12  Dn3
 BYTE   N12  Gn3
 BYTE   W18
 BYTE   N06  Dn2
 BYTE   N06  Dn3
 BYTE   N06  Gn3
 BYTE   W18
 BYTE   Dn2
 BYTE   N12  Dn3
 BYTE   N12  Fs3
 BYTE   W06
 BYTE   N06  Dn2
 BYTE   W12
 BYTE   N06
 BYTE   N06  Dn3
 BYTE   N06  Fs3
 BYTE   W18
 BYTE   N24  Cn4
 BYTE   N24  Dn4
 BYTE   W24
// 002   ----------------------------------------
 BYTE   W96
// 003   ----------------------------------------
 BYTE   W96
// 004   ----------------------------------------
Label_1_0155668A:
 BYTE   W96
// 005   ----------------------------------------
 BYTE   W96
// 006   ----------------------------------------
 BYTE   W96
// 007   ----------------------------------------
 BYTE   W96
// 008   ----------------------------------------
 BYTE   W96
// 009   ----------------------------------------
 BYTE   W96
// 010   ----------------------------------------
 BYTE   W96
// 011   ----------------------------------------
 BYTE   W96
// 012   ----------------------------------------
 BYTE   W96
// 013   ----------------------------------------
 BYTE   W96
// 014   ----------------------------------------
 BYTE   W96
// 015   ----------------------------------------
 BYTE   W96
// 016   ----------------------------------------
 BYTE   W96
// 017   ----------------------------------------
 BYTE   W96
// 018   ----------------------------------------
 BYTE   W96
// 019   ----------------------------------------
 BYTE   W96
// 020   ----------------------------------------
Label_1_0155669A:
 BYTE   N06  Gn2  v100
 BYTE   W06
 BYTE   An2
 BYTE   W12
 BYTE   N24
 BYTE   N24  Dn3
 BYTE   W30
 BYTE   N06  Gn2
 BYTE   W06
 BYTE   An2
 BYTE   W12
 BYTE   N24
 BYTE   N24  Dn3
 BYTE   W30
 BYTE   PEND 
// 021   ----------------------------------------
 BYTE   N06  Gn2
 BYTE   W06
 BYTE   An2
 BYTE   W12
 BYTE   N24
 BYTE   N24  Dn3
 BYTE   W30
 BYTE   N06  Fn2
 BYTE   N06  As2
 BYTE   W06
 BYTE   Fn2
 BYTE   N06  Cn3
 BYTE   W12
 BYTE   N24  Gs2
 BYTE   N24  Fn3
 BYTE   W30
 BYTE   PATT
  POIN2 Label_1_0155669A
// 022   ----------------------------------------
 BYTE   N06  As2  v100
 BYTE   W06
 BYTE   Cn3
 BYTE   W12
 BYTE   N24  Gn2
 BYTE   N24  As2
 BYTE   N24  Fn3
 BYTE   W30
 BYTE   N06  As2
 BYTE   W06
 BYTE   Cn3
 BYTE   W12
 BYTE   N06
 BYTE   W12
 BYTE   N18  Ds3
 BYTE   W18
// 023   ----------------------------------------
 BYTE   N09  Fn3
 BYTE   W96
// 024   ----------------------------------------
 BYTE   W96
// 025   ----------------------------------------
 BYTE   GoTo
  POIN2 Label_1_0155668A
 BYTE   FINE

//**************** Track 3 (Midi-Chn.2) ****************//

KirbyTripleDeluxeBouncingBossBattleRandomWizard_003:
// 000   ----------------------------------------
 BYTE   KEYSH   KirbyTripleDeluxeBouncingBossBattleRandomWizard_key+0
 BYTE   VOICE   62
 BYTE   VOL   40*KirbyTripleDeluxeBouncingBossBattleRandomWizard_mvl/mxv
 BYTE   PAN   c_v+0
 BYTE   W18
 BYTE   N06  Dn4  v100
 BYTE   N06  Fn4
 BYTE   W36
 BYTE   Dn4
 BYTE   N06  Fn4
 BYTE   W42
// 001   ----------------------------------------
 BYTE   Dn3
 BYTE   W06
 BYTE   Gn3
 BYTE   W12
 BYTE   Cn4
 BYTE   W18
 BYTE   Fs3
 BYTE   W06
 BYTE   Cn4
 BYTE   W12
 BYTE   Fn4
 BYTE   W18
 BYTE   Cn5
 BYTE   W12
 BYTE   As4
 BYTE   W12
// 002   ----------------------------------------
 BYTE   N72  En4
 BYTE   N72  Gn4
 BYTE   N72  An4
 BYTE   W96
// 003   ----------------------------------------
 BYTE   W96
// 004   ----------------------------------------
Label_2_01556717:
 BYTE   W96
// 005   ----------------------------------------
 BYTE   W96
// 006   ----------------------------------------
 BYTE   W96
// 007   ----------------------------------------
 BYTE   N06  Dn3  v100
 BYTE   W06
 BYTE   Gn3
 BYTE   W12
 BYTE   Cn4
 BYTE   W18
 BYTE   Fn3
 BYTE   W06
 BYTE   Cn4
 BYTE   W12
 BYTE   Fn4
 BYTE   W18
 BYTE   Cn5
 BYTE   W12
 BYTE   As4
 BYTE   W12
// 008   ----------------------------------------
 BYTE   N24  En4
 BYTE   N24  Gn4
 BYTE   N24  An4
 BYTE   N06  As4
 BYTE   W06
 BYTE   Cn5
 BYTE   W12
 BYTE   Fn5
 BYTE   W06
 BYTE   En4  v052
 BYTE   N06  Gn4
 BYTE   N06  An4
 BYTE   N03  Dn5  v100
 BYTE   W06
 BYTE   Cn5
 BYTE   W06
 BYTE   As4
 BYTE   W06
 BYTE   N12  Cn5
 BYTE   W12
 BYTE   N36  Dn5
 BYTE   W42
// 009   ----------------------------------------
 BYTE   N06  As4
 BYTE   W06
 BYTE   Cn5
 BYTE   W12
 BYTE   Fn5
 BYTE   W06
 BYTE   N03  Dn5
 BYTE   W06
 BYTE   Cn5
 BYTE   W06
 BYTE   As4
 BYTE   W06
 BYTE   N12  Cn5
 BYTE   W12
 BYTE   N36  Dn5
 BYTE   W42
// 010   ----------------------------------------
 BYTE   N06  As4
 BYTE   W06
 BYTE   Cn5
 BYTE   W12
 BYTE   Fn5
 BYTE   W06
 BYTE   N03  Dn5
 BYTE   W06
 BYTE   Cn5
 BYTE   W06
 BYTE   As4
 BYTE   W06
 BYTE   Cn5
 BYTE   W06
 BYTE   Dn5
 BYTE   W06
 BYTE   As4
 BYTE   W06
 BYTE   An4
 BYTE   W06
 BYTE   N24  Gn4
 BYTE   W30
// 011   ----------------------------------------
 BYTE   W96
// 012   ----------------------------------------
 BYTE   W96
// 013   ----------------------------------------
 BYTE   W96
// 014   ----------------------------------------
 BYTE   W96
// 015   ----------------------------------------
 BYTE   W96
// 016   ----------------------------------------
 BYTE   W96
// 017   ----------------------------------------
 BYTE   W96
// 018   ----------------------------------------
 BYTE   W96
// 019   ----------------------------------------
 BYTE   W96
// 020   ----------------------------------------
Label_2_01556783:
 BYTE   N06  Gn2  v100
 BYTE   W06
 BYTE   An2
 BYTE   W12
 BYTE   N24
 BYTE   N24  Dn3
 BYTE   W30
 BYTE   N06  Gn2
 BYTE   W06
 BYTE   An2
 BYTE   W12
 BYTE   N24
 BYTE   N24  Dn3
 BYTE   W30
 BYTE   PEND 
// 021   ----------------------------------------
 BYTE   N06  Gn2
 BYTE   W06
 BYTE   An2
 BYTE   W12
 BYTE   N24
 BYTE   N24  Dn3
 BYTE   W30
 BYTE   N06  Fn2
 BYTE   N06  As2
 BYTE   W06
 BYTE   Fn2
 BYTE   N06  Cn3
 BYTE   W12
 BYTE   N24  Gs2
 BYTE   N24  Fn3
 BYTE   W30
 BYTE   PATT
  POIN2 Label_2_01556783
// 022   ----------------------------------------
 BYTE   N06  As2  v100
 BYTE   W06
 BYTE   Cn3
 BYTE   W12
 BYTE   N24  Gn2
 BYTE   N24  As2
 BYTE   N24  Fn3
 BYTE   W30
 BYTE   N06
 BYTE   N06  As3
 BYTE   W06
 BYTE   Gn3
 BYTE   N06  Cn4
 BYTE   W12
 BYTE   N06
 BYTE   N06  Fn4
 BYTE   W12
 BYTE   N18  Ds4
 BYTE   N18  Gs4
 BYTE   W18
// 023   ----------------------------------------
 BYTE   N09  Fn4
 BYTE   N09  As4
 BYTE   W96
// 024   ----------------------------------------
 BYTE   W96
// 025   ----------------------------------------
 BYTE   GoTo
  POIN2 Label_2_01556717
 BYTE   FINE

//**************** Track 4 (Midi-Chn.3) ****************//

KirbyTripleDeluxeBouncingBossBattleRandomWizard_004:
// 000   ----------------------------------------
 BYTE   KEYSH   KirbyTripleDeluxeBouncingBossBattleRandomWizard_key+0
 BYTE   VOICE   56
 BYTE   VOL   40*KirbyTripleDeluxeBouncingBossBattleRandomWizard_mvl/mxv
 BYTE   PAN   c_v+0
 BYTE   W18
 BYTE   N06  Fn4  v100
 BYTE   W36
 BYTE   N06
 BYTE   W42
// 001   ----------------------------------------
Label_3_015567EF:
 BYTE   N06  Dn3  v100
 BYTE   W06
 BYTE   Gn3
 BYTE   W12
 BYTE   Cn4
 BYTE   W18
 BYTE   Fs3
 BYTE   W06
 BYTE   Cn4
 BYTE   W12
 BYTE   Fn4
 BYTE   W18
 BYTE   Cn5
 BYTE   W12
 BYTE   As4
 BYTE   W12
 BYTE   PEND 
// 002   ----------------------------------------
 BYTE   N84  En4
 BYTE   N84  Gn4
 BYTE   N84  An4
 BYTE   W48
 BYTE   W01
 BYTE   W01
 BYTE   W01
 BYTE   W01
 BYTE   W01
 BYTE   W01
 BYTE   W01
 BYTE   W02
 BYTE   W01
 BYTE   W01
 BYTE   W01
 BYTE   W01
 BYTE   W01
 BYTE   W01
 BYTE   W01
 BYTE   W01
 BYTE   W01
 BYTE   W01
 BYTE   W01
 BYTE   W02
 BYTE   W01
 BYTE   W01
 BYTE   W01
 BYTE   W01
 BYTE   W01
 BYTE   W01
 BYTE   W01
 BYTE   W01
 BYTE   W01
 BYTE   W05
 BYTE   N03  Ds4
 BYTE   W03
 BYTE   Cn4
 BYTE   W03
 BYTE   An3
 BYTE   W03
 BYTE   Fs3
 BYTE   W03
// 003   ----------------------------------------
 BYTE   W96
// 004   ----------------------------------------
Label_3_01556831:
 BYTE   W96
// 005   ----------------------------------------
 BYTE   W96
// 006   ----------------------------------------
 BYTE   W96
 BYTE   PATT
  POIN2 Label_3_015567EF
// 007   ----------------------------------------
 BYTE   N24  En4  v100
 BYTE   N24  Gn4
 BYTE   N24  An4
 BYTE   N06  As4
 BYTE   W06
 BYTE   Cn5
 BYTE   W12
 BYTE   Fn5
 BYTE   W06
 BYTE   En4  v052
 BYTE   N06  Gn4
 BYTE   N06  An4
 BYTE   N03  Dn5  v100
 BYTE   W06
 BYTE   Cn5
 BYTE   W06
 BYTE   As4
 BYTE   W06
 BYTE   N12  Cn5
 BYTE   W12
 BYTE   N36  Dn5
 BYTE   W42
// 008   ----------------------------------------
 BYTE   N06  As4
 BYTE   W06
 BYTE   Cn5
 BYTE   W12
 BYTE   Fn5
 BYTE   W06
 BYTE   N03  Dn5
 BYTE   W06
 BYTE   Cn5
 BYTE   W06
 BYTE   As4
 BYTE   W06
 BYTE   N12  Cn5
 BYTE   W12
 BYTE   N36  Dn5
 BYTE   W42
// 009   ----------------------------------------
 BYTE   N06  As4
 BYTE   W06
 BYTE   Cn5
 BYTE   W12
 BYTE   Fn5
 BYTE   W06
 BYTE   N03  Dn5
 BYTE   W06
 BYTE   Cn5
 BYTE   W06
 BYTE   As4
 BYTE   W06
 BYTE   Cn5
 BYTE   W06
 BYTE   Dn5
 BYTE   W06
 BYTE   As4
 BYTE   W06
 BYTE   An4
 BYTE   W06
 BYTE   N24  Gn4
 BYTE   W30
// 010   ----------------------------------------
 BYTE   W96
// 011   ----------------------------------------
 BYTE   W96
// 012   ----------------------------------------
 BYTE   W96
// 013   ----------------------------------------
 BYTE   W96
// 014   ----------------------------------------
 BYTE   W96
// 015   ----------------------------------------
 BYTE   W96
// 016   ----------------------------------------
 BYTE   W96
// 017   ----------------------------------------
 BYTE   W96
// 018   ----------------------------------------
 BYTE   W96
// 019   ----------------------------------------
 BYTE   W96
// 020   ----------------------------------------
 BYTE   W96
// 021   ----------------------------------------
 BYTE   N06  Gn3
 BYTE   W06
 BYTE   An3
 BYTE   W12
 BYTE   N24  Dn4
 BYTE   W30
 BYTE   N06  Gn3
 BYTE   W06
 BYTE   An3
 BYTE   W12
 BYTE   N24  Dn4
 BYTE   W30
// 022   ----------------------------------------
 BYTE   W48
 BYTE   N06  Fn3
 BYTE   N06  As3
 BYTE   W06
 BYTE   Gn3
 BYTE   N06  Cn4
 BYTE   W12
 BYTE   N06
 BYTE   N06  Fn4
 BYTE   W12
 BYTE   N18  Ds4
 BYTE   N18  Gs4
 BYTE   W18
// 023   ----------------------------------------
 BYTE   N06  Fn4
 BYTE   N06  As4
 BYTE   W96
// 024   ----------------------------------------
 BYTE   W96
// 025   ----------------------------------------
 BYTE   GoTo
  POIN2 Label_3_01556831
 BYTE   FINE

//**************** Track 5 (Midi-Chn.4) ****************//

KirbyTripleDeluxeBouncingBossBattleRandomWizard_005:
// 000   ----------------------------------------
 BYTE   KEYSH   KirbyTripleDeluxeBouncingBossBattleRandomWizard_key+0
 BYTE   VOICE   2
 BYTE   VOL   40*KirbyTripleDeluxeBouncingBossBattleRandomWizard_mvl/mxv
 BYTE   PAN   c_v+0
 BYTE   W96
// 001   ----------------------------------------
 BYTE   W96
// 002   ----------------------------------------
Label_4_015568CE:
 BYTE   N06  Gn1  v100
 BYTE   W06
 BYTE   An1
 BYTE   N06  Dn2
 BYTE   W12
 BYTE   Gn1
 BYTE   W06
 BYTE   As1
 BYTE   N06  Ds2
 BYTE   W12
 BYTE   Gn1
 BYTE   W06
 BYTE   An1
 BYTE   N06  Dn2
 BYTE   W12
 BYTE   Gn1
 BYTE   W06
 BYTE   As1
 BYTE   N06  Ds2
 BYTE   W18
 BYTE   Cn2
 BYTE   N06  Fn2
 BYTE   W18
 BYTE   PEND 
// 003   ----------------------------------------
Label_4_015568ED:
 BYTE   N06  Gn1  v100
 BYTE   W06
 BYTE   An1
 BYTE   N06  Dn2
 BYTE   W12
 BYTE   Gn1
 BYTE   W06
 BYTE   As1
 BYTE   N06  Ds2
 BYTE   W12
 BYTE   Gn1
 BYTE   W06
 BYTE   An1
 BYTE   N06  Dn2
 BYTE   W12
 BYTE   Gn1
 BYTE   W06
 BYTE   As1
 BYTE   N06  Ds2
 BYTE   W18
 BYTE   Dn2
 BYTE   N06  Gn2
 BYTE   W18
 BYTE   PEND 
// 004   ----------------------------------------
Label_4_0155690C:
 BYTE   N06  Gn1  v080
 BYTE   W06
 BYTE   An1
 BYTE   N06  Dn2
 BYTE   W12
 BYTE   Gn1
 BYTE   W06
 BYTE   As1
 BYTE   N06  Ds2
 BYTE   W12
 BYTE   Gn1
 BYTE   W06
 BYTE   An1
 BYTE   N06  Dn2
 BYTE   W12
 BYTE   Gn1
 BYTE   W06
 BYTE   As1
 BYTE   N06  Ds2
 BYTE   W18
 BYTE   Cn2
 BYTE   N06  Fn2
 BYTE   W18
// 005   ----------------------------------------
Label_4_0155692A:
 BYTE   N06  Gn1  v080
 BYTE   W06
 BYTE   An1
 BYTE   N06  Dn2
 BYTE   W12
 BYTE   Gn1
 BYTE   W06
 BYTE   As1
 BYTE   N06  Ds2
 BYTE   W12
 BYTE   Gn1
 BYTE   W06
 BYTE   An1
 BYTE   N06  Dn2
 BYTE   W12
 BYTE   Gn1
 BYTE   W06
 BYTE   As1
 BYTE   N06  Ds2
 BYTE   W18
 BYTE   Dn2
 BYTE   N06  Gn2
 BYTE   W18
 BYTE   PEND 
// 006   ----------------------------------------
 BYTE   Gn1  v100
 BYTE   W06
 BYTE   An1  v080
 BYTE   N06  Dn2  v100
 BYTE   W18
 BYTE   As1  v080
 BYTE   N06  Ds2  v100
 BYTE   W18
 BYTE   Cn2  v080
 BYTE   N06  Fn2  v100
 BYTE   W18
 BYTE   N15  As1  v080
 BYTE   N15  Ds2  v100
 BYTE   W18
 BYTE   N06  Cn2
 BYTE   N06  Fn2
 BYTE   W18
 BYTE   PATT
  POIN2 Label_4_0155692A
// 007   ----------------------------------------
 BYTE   W96
// 008   ----------------------------------------
 BYTE   W96
// 009   ----------------------------------------
 BYTE   W96
// 010   ----------------------------------------
 BYTE   W96
// 011   ----------------------------------------
 BYTE   N42  Gn2  v100
 BYTE   N42  An2
 BYTE   N42  As2
 BYTE   W96
// 012   ----------------------------------------
 BYTE   W48
 BYTE   Dn4
 BYTE   N42  En4
 BYTE   N42  Fn4
 BYTE   W48
// 013   ----------------------------------------
 BYTE   W96
// 014   ----------------------------------------
 BYTE   W96
// 015   ----------------------------------------
 BYTE   W96
// 016   ----------------------------------------
 BYTE   W96
// 017   ----------------------------------------
 BYTE   W96
// 018   ----------------------------------------
 BYTE   W96
// 019   ----------------------------------------
 BYTE   W96
// 020   ----------------------------------------
 BYTE   W96
// 021   ----------------------------------------
 BYTE   W96
// 022   ----------------------------------------
 BYTE   W96
 BYTE   PATT
  POIN2 Label_4_015568CE
 BYTE   PATT
  POIN2 Label_4_015568ED
// 023   ----------------------------------------
 BYTE   GoTo
  POIN2 Label_4_0155690C
 BYTE   FINE

//**************** Track 6 (Midi-Chn.5) ****************//

KirbyTripleDeluxeBouncingBossBattleRandomWizard_006:
// 000   ----------------------------------------
 BYTE   KEYSH   KirbyTripleDeluxeBouncingBossBattleRandomWizard_key+0
 BYTE   VOICE   127
 BYTE   VOL   40*KirbyTripleDeluxeBouncingBossBattleRandomWizard_mvl/mxv
 BYTE   PAN   c_v+0
 BYTE   N03  Cn1  v100
 BYTE   W06
 BYTE   N03
 BYTE   W12
 BYTE   N03
 BYTE   N03  Fs1
 BYTE   W12
 BYTE   As1
 BYTE   W06
 BYTE   Cn1
 BYTE   N03  Fs1
 BYTE   W06
 BYTE   Cn1
 BYTE   N03  Fs1
 BYTE   W12
 BYTE   Cn1
 BYTE   N03  Fs1
 BYTE   W12
 BYTE   Cn1
 BYTE   N03  Fs1
 BYTE   W06
 BYTE   N03
 BYTE   W06
 BYTE   Cn1
 BYTE   N03  Fs1
 BYTE   W06
 BYTE   As1
 BYTE   W06
 BYTE   Fs1
 BYTE   W06
// 001   ----------------------------------------
 BYTE   Cn1
 BYTE   N03  Fs1
 BYTE   W06
 BYTE   Cn1
 BYTE   N03  Fs1
 BYTE   W12
 BYTE   Cn1
 BYTE   N03  Fs1
 BYTE   W12
 BYTE   As1
 BYTE   W06
 BYTE   Cn1
 BYTE   N03  Fs1
 BYTE   W06
 BYTE   Cn1
 BYTE   N03  Fs1
 BYTE   W12
 BYTE   Cn1
 BYTE   N03  Fs1
 BYTE   W12
 BYTE   Cn1
 BYTE   N03  Fs1
 BYTE   W06
 BYTE   N03
 BYTE   W06
 BYTE   Cn1
 BYTE   N03  Fs1
 BYTE   W06
 BYTE   As1
 BYTE   W06
 BYTE   Fs1
 BYTE   W06
// 002   ----------------------------------------
Label_5_015569F2:
 BYTE   N03  An2  v100
 BYTE   W06
 BYTE   Fs1
 BYTE   W06
 BYTE   N03
 BYTE   W06
 BYTE   N03
 BYTE   W12
 BYTE   N03
 BYTE   W06
 BYTE   N03
 BYTE   W06
 BYTE   N03
 BYTE   W12
 BYTE   N03
 BYTE   W06
 BYTE   N03
 BYTE   W06
 BYTE   N03
 BYTE   W12
 BYTE   N03
 BYTE   W06
 BYTE   N03
 BYTE   W06
 BYTE   N03
 BYTE   W06
 BYTE   PEND 
// 003   ----------------------------------------
Label_5_01556A0F:
 BYTE   N03  Cn1  v100
 BYTE   N03  En2
 BYTE   W06
 BYTE   Fs1
 BYTE   W06
 BYTE   N03
 BYTE   W06
 BYTE   N03
 BYTE   W12
 BYTE   N03
 BYTE   W06
 BYTE   N03
 BYTE   W06
 BYTE   N03
 BYTE   W12
 BYTE   N03
 BYTE   W06
 BYTE   N03
 BYTE   W06
 BYTE   N03
 BYTE   W06
 BYTE   Gn2
 BYTE   W06
 BYTE   Fs1
 BYTE   N03  Gn2
 BYTE   W06
 BYTE   Fs1
 BYTE   N03  Gn2
 BYTE   W06
 BYTE   Fs1
 BYTE   W06
 BYTE   PEND 
// 004   ----------------------------------------
Label_5_01556A34:
 BYTE   N03  Cn1  v100
 BYTE   N03  Fs1
 BYTE   W06
 BYTE   N03
 BYTE   W06
 BYTE   En0
 BYTE   N03  Dn1
 BYTE   N03  Fs1
 BYTE   W06
 BYTE   N03
 BYTE   W06
 BYTE   Cn1
 BYTE   N03  Fs1
 BYTE   W06
 BYTE   N03
 BYTE   W06
 BYTE   En0
 BYTE   N03  Dn1
 BYTE   N03  Fs1
 BYTE   W06
 BYTE   N03
 BYTE   W06
 BYTE   Cn1
 BYTE   N03  Fs1
 BYTE   W06
 BYTE   N03
 BYTE   W06
 BYTE   En0
 BYTE   N03  Dn1
 BYTE   N03  Fs1
 BYTE   W06
 BYTE   Cn1
 BYTE   N03  Fs1
 BYTE   W06
 BYTE   N03
 BYTE   W06
 BYTE   N03
 BYTE   W06
 BYTE   En0
 BYTE   N03  Dn1
 BYTE   N03  Fs1
 BYTE   W06
 BYTE   N03
 BYTE   W06
 BYTE   PEND 
 BYTE   PATT
  POIN2 Label_5_01556A34
 BYTE   PATT
  POIN2 Label_5_01556A34
 BYTE   PATT
  POIN2 Label_5_01556A34
 BYTE   PATT
  POIN2 Label_5_01556A34
 BYTE   PATT
  POIN2 Label_5_01556A34
 BYTE   PATT
  POIN2 Label_5_01556A34
 BYTE   PATT
  POIN2 Label_5_01556A34
 BYTE   PATT
  POIN2 Label_5_01556A34
 BYTE   PATT
  POIN2 Label_5_01556A34
 BYTE   PATT
  POIN2 Label_5_01556A34
 BYTE   PATT
  POIN2 Label_5_01556A34
 BYTE   PATT
  POIN2 Label_5_01556A34
 BYTE   PATT
  POIN2 Label_5_01556A34
 BYTE   PATT
  POIN2 Label_5_01556A34
 BYTE   PATT
  POIN2 Label_5_01556A34
 BYTE   PATT
  POIN2 Label_5_01556A34
 BYTE   PATT
  POIN2 Label_5_01556A34
 BYTE   PATT
  POIN2 Label_5_01556A34
 BYTE   PATT
  POIN2 Label_5_01556A34
 BYTE   PATT
  POIN2 Label_5_015569F2
 BYTE   PATT
  POIN2 Label_5_01556A0F
// 005   ----------------------------------------
 BYTE   GoTo
  POIN2 Label_5_01556A34
 BYTE   FINE

//**************** Track 7 (Midi-Chn.6) ****************//

KirbyTripleDeluxeBouncingBossBattleRandomWizard_007:
// 000   ----------------------------------------
 BYTE   KEYSH   KirbyTripleDeluxeBouncingBossBattleRandomWizard_key+0
 BYTE   VOICE   2
 BYTE   VOL   40*KirbyTripleDeluxeBouncingBossBattleRandomWizard_mvl/mxv
 BYTE   PAN   c_v+0
 BYTE   W96
// 001   ----------------------------------------
 BYTE   W96
// 002   ----------------------------------------
 BYTE   W96
// 003   ----------------------------------------
 BYTE   W96
// 004   ----------------------------------------
Label_6_01556AEC:
 BYTE   W96
// 005   ----------------------------------------
 BYTE   N06  Fn2  v100
 BYTE   W06
 BYTE   N06
 BYTE   W12
 BYTE   An2
 BYTE   N06  Cn3
 BYTE   W18
 BYTE   Fn2
 BYTE   W06
 BYTE   N06
 BYTE   W12
 BYTE   N12  An2
 BYTE   N12  Cn3
 BYTE   W18
 BYTE   N06  Dn3
 BYTE   N03  Dn4
 BYTE   W06
 BYTE   N06  Cn3
 BYTE   W06
 BYTE   Fn3
 BYTE   W06
 BYTE   Cn3
 BYTE   N03  Cn4
 BYTE   W06
// 006   ----------------------------------------
 BYTE   N06  Dn3
 BYTE   N03  Dn4
 BYTE   W06
 BYTE   N06  Gn2
 BYTE   N03  Gn3
 BYTE   W84
 BYTE   N15  An2
 BYTE   W03
 BYTE   N12  As2
 BYTE   W03
// 007   ----------------------------------------
 BYTE   N09  Cn3
 BYTE   W54
 BYTE   N06  Fn4
 BYTE   W18
 BYTE   N06
 BYTE   N06  An4
 BYTE   N06  Cn5
 BYTE   W12
 BYTE   Fs4
 BYTE   N06  Gs4
 BYTE   N06  As4
 BYTE   W12
// 008   ----------------------------------------
 BYTE   N24  En4
 BYTE   N24  Gn4
 BYTE   N24  An4
 BYTE   W96
// 009   ----------------------------------------
 BYTE   W96
// 010   ----------------------------------------
 BYTE   W96
// 011   ----------------------------------------
 BYTE   N18  Gs2
 BYTE   N18  En3
 BYTE   N18  Gs3
 BYTE   W18
 BYTE   Cn3
 BYTE   N18  Gn3
 BYTE   N18  Cn4
 BYTE   W18
 BYTE   Cn3
 BYTE   N18  Fs3
 BYTE   N18  Gs3
 BYTE   W18
 BYTE   Gs2
 BYTE   N18  Fs3
 BYTE   N18  Cn4
 BYTE   W18
 BYTE   N12  Cn3
 BYTE   N12  Fs3
 BYTE   N12  Fn4
 BYTE   W12
 BYTE   Gs2
 BYTE   N12  Fs3
 BYTE   N12  Fn4
 BYTE   W12
// 012   ----------------------------------------
 BYTE   N30  Dn4
 BYTE   N30  Gn4
 BYTE   W96
// 013   ----------------------------------------
 BYTE   W96
// 014   ----------------------------------------
 BYTE   N18  Ds2
 BYTE   N18  As2
 BYTE   W18
 BYTE   N24  Ds3
 BYTE   N24  Dn4
 BYTE   N24  As4
 BYTE   W30
 BYTE   N18  Cn2
 BYTE   N18  Cn3
 BYTE   N18  Cn4
 BYTE   W18
 BYTE   N24  Dn2
 BYTE   N24  Fn3
 BYTE   N24  Dn4
 BYTE   W30
// 015   ----------------------------------------
 BYTE   N12  As2
 BYTE   N12  Ds4
 BYTE   N12  Gn4
 BYTE   W18
 BYTE   N24  Cn3
 BYTE   N24  Ds4
 BYTE   N24  As4
 BYTE   W30
 BYTE   N12  Dn3
 BYTE   N06  Gn3
 BYTE   W06
 BYTE   An3
 BYTE   W12
 BYTE   N24  Dn3
 BYTE   N24  An3
 BYTE   W30
// 016   ----------------------------------------
 BYTE   W96
// 017   ----------------------------------------
 BYTE   W96
// 018   ----------------------------------------
 BYTE   N48  Gn2
 BYTE   N48  Dn3
 BYTE   W48
 BYTE   Fn2
 BYTE   N48  Cn3
 BYTE   W48
// 019   ----------------------------------------
 BYTE   N24  Gn3
 BYTE   W12
 BYTE   N18  An3
 BYTE   N18  Cs4
 BYTE   N18  Ds4
 BYTE   W12
 BYTE   N12  Fn3
 BYTE   W12
 BYTE   N12
 BYTE   N12  Bn3
 BYTE   N12  Cs4
 BYTE   W12
 BYTE   N03  Cn2
 BYTE   N03  Dn2
 BYTE   N42  Fs3
 BYTE   N42  An3
 BYTE   N42  Dn4
 BYTE   W06
 BYTE   N03  Cn2
 BYTE   N03  Dn2
 BYTE   W06
 BYTE   Cn2
 BYTE   N03  Dn2
 BYTE   W06
 BYTE   N06
 BYTE   N12  Gs2
 BYTE   W06
 BYTE   N03  Dn2
 BYTE   W06
 BYTE   N06
 BYTE   N06  Fs2
 BYTE   W06
 BYTE   N03  Dn2
 BYTE   W12
// 020   ----------------------------------------
 BYTE   N24  Gn2
 BYTE   N24  Dn3
 BYTE   W48
 BYTE   Gn2
 BYTE   N24  Dn3
 BYTE   W48
// 021   ----------------------------------------
 BYTE   Gn2
 BYTE   N24  Dn3
 BYTE   W48
 BYTE   N06  Gs2
 BYTE   N06  Fn3
 BYTE   W18
 BYTE   N18  Gs2
 BYTE   N18  Cs3
 BYTE   W30
// 022   ----------------------------------------
 BYTE   N06  Gn3
 BYTE   W06
 BYTE   An3
 BYTE   W12
 BYTE   N24  As3
 BYTE   N24  Dn4
 BYTE   W30
 BYTE   N06  Fn3
 BYTE   W06
 BYTE   An3
 BYTE   W12
 BYTE   N24  Gn3
 BYTE   N24  Dn4
 BYTE   W30
// 023   ----------------------------------------
 BYTE   N06  As3
 BYTE   W06
 BYTE   Cn4
 BYTE   W12
 BYTE   N24  As3
 BYTE   N24  Fn4
 BYTE   W30
 BYTE   N06  Fs3
 BYTE   N06  As3
 BYTE   W06
 BYTE   Fs3
 BYTE   N06  Cn4
 BYTE   W12
 BYTE   Gs3
 BYTE   N06  Cn4
 BYTE   N06  Fn4
 BYTE   W12
 BYTE   N18  Gs3
 BYTE   N18  Ds4
 BYTE   N18  Gs4
 BYTE   W18
// 024   ----------------------------------------
 BYTE   N06  Dn4
 BYTE   N06  Fn4
 BYTE   N06  As4
 BYTE   W96
// 025   ----------------------------------------
 BYTE   W96
// 026   ----------------------------------------
 BYTE   GoTo
  POIN2 Label_6_01556AEC
 BYTE   FINE

//**************** Track 8 (Midi-Chn.7) ****************//

KirbyTripleDeluxeBouncingBossBattleRandomWizard_008:
// 000   ----------------------------------------
 BYTE   KEYSH   KirbyTripleDeluxeBouncingBossBattleRandomWizard_key+0
 BYTE   VOICE   28
 BYTE   VOL   40*KirbyTripleDeluxeBouncingBossBattleRandomWizard_mvl/mxv
 BYTE   PAN   c_v+0
 BYTE   W96
// 001   ----------------------------------------
 BYTE   W96
// 002   ----------------------------------------
Label_7_01556C3E:
 BYTE   N03  Gn0  v100
 BYTE   W06
 BYTE   Gn1
 BYTE   W06
 BYTE   N03
 BYTE   W06
 BYTE   Gn0
 BYTE   W06
 BYTE   Gn1
 BYTE   W06
 BYTE   N03
 BYTE   W06
 BYTE   N03
 BYTE   W06
 BYTE   N03
 BYTE   W06
 BYTE   N03
 BYTE   W06
 BYTE   N03
 BYTE   W06
 BYTE   N03
 BYTE   W06
 BYTE   N03
 BYTE   W06
 BYTE   N03
 BYTE   W06
 BYTE   N03
 BYTE   W06
 BYTE   N03
 BYTE   W06
 BYTE   Gn0
 BYTE   W06
 BYTE   PEND 
// 003   ----------------------------------------
Label_7_01556C61:
 BYTE   N03  Gn1  v100
 BYTE   W06
 BYTE   N03
 BYTE   W06
 BYTE   N03
 BYTE   W06
 BYTE   Gn0
 BYTE   W06
 BYTE   Gn1
 BYTE   W06
 BYTE   Gs1
 BYTE   W06
 BYTE   N03
 BYTE   W06
 BYTE   Gn1
 BYTE   W06
 BYTE   N03
 BYTE   W06
 BYTE   Gs1
 BYTE   W06
 BYTE   N03
 BYTE   W06
 BYTE   Gn1
 BYTE   W06
 BYTE   N03
 BYTE   W06
 BYTE   N03
 BYTE   W06
 BYTE   N03
 BYTE   W06
 BYTE   Gn0
 BYTE   W06
 BYTE   PEND 
// 004   ----------------------------------------
Label_7_01556C84:
 BYTE   W96
// 005   ----------------------------------------
 BYTE   W96
// 006   ----------------------------------------
 BYTE   W96
// 007   ----------------------------------------
 BYTE   W96
// 008   ----------------------------------------
 BYTE   W96
// 009   ----------------------------------------
 BYTE   W96
// 010   ----------------------------------------
 BYTE   W96
// 011   ----------------------------------------
 BYTE   W96
// 012   ----------------------------------------
 BYTE   N30  Gn3  v100
 BYTE   W36
 BYTE   N03  Dn3
 BYTE   W06
 BYTE   N03
 BYTE   W06
 BYTE   N06  Fn3
 BYTE   W06
 BYTE   En3
 BYTE   W06
 BYTE   Dn3
 BYTE   W06
 BYTE   N18  Cn3
 BYTE   W30
// 013   ----------------------------------------
 BYTE   N30  Gn3
 BYTE   W36
 BYTE   N06  Dn3
 BYTE   W06
 BYTE   Fn3
 BYTE   W06
 BYTE   Cn4
 BYTE   W06
 BYTE   N03  An3
 BYTE   W06
 BYTE   N06  Gn3
 BYTE   W06
 BYTE   N18  Fn3
 BYTE   W30
// 014   ----------------------------------------
 BYTE   N06  Dn4
 BYTE   W06
 BYTE   Ds4
 BYTE   W06
 BYTE   Dn4
 BYTE   W06
 BYTE   Ds4
 BYTE   W06
 BYTE   N12  Fn4
 BYTE   W12
 BYTE   N06  Dn4
 BYTE   W06
 BYTE   As3
 BYTE   W06
 BYTE   Cn4
 BYTE   W06
 BYTE   Dn4
 BYTE   W06
 BYTE   Cn4
 BYTE   W06
 BYTE   N12  Dn4
 BYTE   W12
 BYTE   N06  Cn4
 BYTE   W06
 BYTE   An3
 BYTE   W06
 BYTE   Fn3
 BYTE   W06
// 015   ----------------------------------------
 BYTE   N12  Gn3
 BYTE   W18
 BYTE   N18
 BYTE   W18
 BYTE   N12  As3
 BYTE   W12
 BYTE   N06  An3
 BYTE   W06
 BYTE   Gn3
 BYTE   W12
 BYTE   N24  Fn3
 BYTE   W30
// 016   ----------------------------------------
 BYTE   N36  As2
 BYTE   N36  Dn3
 BYTE   N36  Gn3
 BYTE   W36
 BYTE   N06  Dn3
 BYTE   W06
 BYTE   N06
 BYTE   W06
 BYTE   An2
 BYTE   N06  Cn3
 BYTE   N06  Fn3
 BYTE   W06
 BYTE   En3
 BYTE   W06
 BYTE   Dn3
 BYTE   W06
 BYTE   N24  Fn2
 BYTE   N24  Gn2
 BYTE   N24  An2
 BYTE   N24  Cn3
 BYTE   W30
// 017   ----------------------------------------
 BYTE   N36  As2
 BYTE   N36  Dn3
 BYTE   N36  Gn3
 BYTE   W36
 BYTE   N06  Dn3
 BYTE   W06
 BYTE   Fn3
 BYTE   W06
 BYTE   Cn3
 BYTE   N06  En3
 BYTE   N06  Cn4
 BYTE   W06
 BYTE   An3
 BYTE   W06
 BYTE   Gn3
 BYTE   W06
 BYTE   N24  Gn2
 BYTE   N24  An2
 BYTE   N24  Cn3
 BYTE   N24  Fn3
 BYTE   W30
// 018   ----------------------------------------
 BYTE   W96
// 019   ----------------------------------------
 BYTE   N12
 BYTE   W24
 BYTE   N04  Ds3
 BYTE   W08
 BYTE   Fn3
 BYTE   W08
 BYTE   Ds3
 BYTE   W08
 BYTE   N24  Dn3
 BYTE   W48
// 020   ----------------------------------------
 BYTE   W96
// 021   ----------------------------------------
 BYTE   W96
// 022   ----------------------------------------
 BYTE   W96
// 023   ----------------------------------------
 BYTE   W96
 BYTE   PATT
  POIN2 Label_7_01556C3E
 BYTE   PATT
  POIN2 Label_7_01556C61
// 024   ----------------------------------------
 BYTE   GoTo
  POIN2 Label_7_01556C84
 BYTE   FINE

//**************** Track 9 (Midi-Chn.8) ****************//

KirbyTripleDeluxeBouncingBossBattleRandomWizard_009:
// 000   ----------------------------------------
 BYTE   KEYSH   KirbyTripleDeluxeBouncingBossBattleRandomWizard_key+0
 BYTE   VOICE   30
 BYTE   VOL   40*KirbyTripleDeluxeBouncingBossBattleRandomWizard_mvl/mxv
 BYTE   PAN   c_v+0
 BYTE   W96
// 001   ----------------------------------------
 BYTE   W96
// 002   ----------------------------------------
 BYTE   W96
// 003   ----------------------------------------
 BYTE   W96
// 004   ----------------------------------------
Label_8_01556D50:
 BYTE   N06  As2  v100
 BYTE   W06
 BYTE   Cn3
 BYTE   W12
 BYTE   Fn3
 BYTE   W06
 BYTE   N03  Dn3
 BYTE   W06
 BYTE   Cn3
 BYTE   W06
 BYTE   As2
 BYTE   W06
 BYTE   N12  Cn3
 BYTE   W12
 BYTE   N36  Dn3
 BYTE   W42
 BYTE   PEND 
 BYTE   PATT
  POIN2 Label_8_01556D50
// 005   ----------------------------------------
 BYTE   N06  As2  v100
 BYTE   W06
 BYTE   Cn3
 BYTE   W12
 BYTE   Fn3
 BYTE   W06
 BYTE   N03  Dn3
 BYTE   W06
 BYTE   Cn3
 BYTE   W06
 BYTE   As2
 BYTE   W06
 BYTE   Cn3
 BYTE   W06
 BYTE   Dn3
 BYTE   W06
 BYTE   As2
 BYTE   W06
 BYTE   An2
 BYTE   W06
 BYTE   N24  Gn2
 BYTE   W30
// 006   ----------------------------------------
 BYTE   W96
// 007   ----------------------------------------
 BYTE   W96
// 008   ----------------------------------------
 BYTE   W96
// 009   ----------------------------------------
 BYTE   W96
// 010   ----------------------------------------
 BYTE   W96
// 011   ----------------------------------------
 BYTE   W96
// 012   ----------------------------------------
 BYTE   W96
// 013   ----------------------------------------
 BYTE   W96
// 014   ----------------------------------------
 BYTE   W96
// 015   ----------------------------------------
 BYTE   N30  Gn3
 BYTE   W36
 BYTE   N06  Dn3
 BYTE   W06
 BYTE   N06
 BYTE   W06
 BYTE   Fn3
 BYTE   W06
 BYTE   En3
 BYTE   W06
 BYTE   Dn3
 BYTE   W06
 BYTE   N24  Cn3
 BYTE   W30
// 016   ----------------------------------------
 BYTE   N30  Gn3
 BYTE   W36
 BYTE   N06  Dn3
 BYTE   W06
 BYTE   Fn3
 BYTE   W06
 BYTE   Cn4
 BYTE   W06
 BYTE   An3
 BYTE   W06
 BYTE   Gn3
 BYTE   W06
 BYTE   N24  Fn3
 BYTE   W30
// 017   ----------------------------------------
 BYTE   W96
// 018   ----------------------------------------
 BYTE   W48
 BYTE   N03  Cn2
 BYTE   W06
 BYTE   N03
 BYTE   W06
 BYTE   N03
 BYTE   W06
 BYTE   N12  Dn2
 BYTE   W12
 BYTE   N03
 BYTE   W06
 BYTE   N03
 BYTE   W12
// 019   ----------------------------------------
 BYTE   W96
// 020   ----------------------------------------
 BYTE   W96
// 021   ----------------------------------------
 BYTE   W96
// 022   ----------------------------------------
 BYTE   W96
// 023   ----------------------------------------
 BYTE   W96
// 024   ----------------------------------------
 BYTE   W96
// 025   ----------------------------------------
 BYTE   GoTo
  POIN2 Label_8_01556D50
 BYTE   FINE

//**************** Track 10 (Midi-Chn.9) ****************//

KirbyTripleDeluxeBouncingBossBattleRandomWizard_010:
// 000   ----------------------------------------
 BYTE   KEYSH   KirbyTripleDeluxeBouncingBossBattleRandomWizard_key+0
 BYTE   VOICE   45
 BYTE   VOL   25*KirbyTripleDeluxeBouncingBossBattleRandomWizard_mvl/mxv
 BYTE   PAN   c_v+0
 BYTE   W96
// 001   ----------------------------------------
 BYTE   W96
// 002   ----------------------------------------
 BYTE   W96
// 003   ----------------------------------------
 BYTE   W96
// 004   ----------------------------------------
Label_9_01556DD8:
 BYTE   W96
// 005   ----------------------------------------
 BYTE   W96
// 006   ----------------------------------------
 BYTE   N06  As2  v100
 BYTE   N06  As3
 BYTE   W06
 BYTE   N03  Cn3
 BYTE   N03  Cn4
 BYTE   W12
 BYTE   N06  Fn3
 BYTE   N06  Fn4
 BYTE   W06
 BYTE   N03  Dn3
 BYTE   N03  Dn4
 BYTE   W06
 BYTE   Cn3
 BYTE   N03  Cn4
 BYTE   W06
 BYTE   As2
 BYTE   N03  As3
 BYTE   W06
 BYTE   Cn3
 BYTE   N03  Cn4
 BYTE   W06
 BYTE   Dn3
 BYTE   N03  Dn4
 BYTE   W06
 BYTE   As2
 BYTE   N03  As3
 BYTE   W06
 BYTE   An2
 BYTE   N03  An3
 BYTE   W06
 BYTE   N24  Gn2
 BYTE   N24  Gn3
 BYTE   W30
// 007   ----------------------------------------
 BYTE   W96
// 008   ----------------------------------------
 BYTE   W96
// 009   ----------------------------------------
 BYTE   W96
// 010   ----------------------------------------
 BYTE   W96
// 011   ----------------------------------------
 BYTE   W96
// 012   ----------------------------------------
 BYTE   W96
// 013   ----------------------------------------
 BYTE   W96
// 014   ----------------------------------------
 BYTE   N06  Dn3
 BYTE   N06  Dn4
 BYTE   W06
 BYTE   Ds3
 BYTE   N06  Ds4
 BYTE   W06
 BYTE   Dn3
 BYTE   N06  Dn4
 BYTE   W06
 BYTE   Ds3
 BYTE   N06  Ds4
 BYTE   W06
 BYTE   N12  Fn3
 BYTE   N12  Fn4
 BYTE   W12
 BYTE   N06  Dn3
 BYTE   N06  Dn4
 BYTE   W06
 BYTE   As2
 BYTE   N06  As3
 BYTE   W06
 BYTE   Cn3
 BYTE   N06  Cn4
 BYTE   W06
 BYTE   Dn3
 BYTE   N06  Dn4
 BYTE   W06
 BYTE   Cn3
 BYTE   N06  Cn4
 BYTE   W06
 BYTE   N12  Dn3
 BYTE   N12  Dn4
 BYTE   W12
 BYTE   N06  Cn3
 BYTE   N06  Cn4
 BYTE   W06
 BYTE   An2
 BYTE   N06  An3
 BYTE   W06
 BYTE   Fn2
 BYTE   N06  Fn3
 BYTE   W06
// 015   ----------------------------------------
 BYTE   W96
// 016   ----------------------------------------
 BYTE   N36  Gn3
 BYTE   W36
 BYTE   N06  Dn3
 BYTE   W06
 BYTE   N06
 BYTE   W06
 BYTE   Fn3
 BYTE   W06
 BYTE   En3
 BYTE   W06
 BYTE   Dn3
 BYTE   W06
 BYTE   N24  Cn3
 BYTE   W30
// 017   ----------------------------------------
 BYTE   N36  Gn3
 BYTE   W36
 BYTE   N06  Dn3
 BYTE   W06
 BYTE   Fn3
 BYTE   W06
 BYTE   Cn4
 BYTE   W06
 BYTE   An3
 BYTE   W06
 BYTE   Gn3
 BYTE   W06
 BYTE   N24  Fn3
 BYTE   W30
// 018   ----------------------------------------
 BYTE   N06  Dn4
 BYTE   W06
 BYTE   Ds4
 BYTE   W06
 BYTE   Dn4
 BYTE   W06
 BYTE   Ds4
 BYTE   W06
 BYTE   N12  Fn4
 BYTE   W12
 BYTE   N06  Dn4
 BYTE   W06
 BYTE   As3
 BYTE   W06
 BYTE   Cn4
 BYTE   W06
 BYTE   Dn4
 BYTE   W06
 BYTE   Cn4
 BYTE   W06
 BYTE   N12  Dn4
 BYTE   W12
 BYTE   N06  Cn4
 BYTE   W06
 BYTE   An3
 BYTE   W06
 BYTE   Fn3
 BYTE   W06
// 019   ----------------------------------------
 BYTE   W96
// 020   ----------------------------------------
 BYTE   W96
// 021   ----------------------------------------
 BYTE   W96
// 022   ----------------------------------------
 BYTE   Gn2
 BYTE   N06  Gn3
 BYTE   W06
 BYTE   An2
 BYTE   N06  An3
 BYTE   W12
 BYTE   N18  As2
 BYTE   N18  As3
 BYTE   W30
 BYTE   N06  Gn2
 BYTE   N06  Gn3
 BYTE   W06
 BYTE   An2
 BYTE   N06  An3
 BYTE   W12
 BYTE   N18  Gn2
 BYTE   N18  Gn3
 BYTE   W30
// 023   ----------------------------------------
 BYTE   N06  As2
 BYTE   N06  As3
 BYTE   W06
 BYTE   Cn3
 BYTE   N06  Cn4
 BYTE   W12
 BYTE   N18  As2
 BYTE   N18  As3
 BYTE   W30
 BYTE   N06  Fs2
 BYTE   N06  Fs3
 BYTE   W06
 BYTE   Fs2
 BYTE   N06  Fs3
 BYTE   W12
 BYTE   Gs2
 BYTE   N06  Gs3
 BYTE   W12
 BYTE   N12  Gs2
 BYTE   N12  Gs3
 BYTE   W18
// 024   ----------------------------------------
 BYTE   W96
// 025   ----------------------------------------
 BYTE   W96
// 026   ----------------------------------------
 BYTE   GoTo
  POIN2 Label_9_01556DD8
 BYTE   FINE

//**************** Track 11 (Midi-Chn.10) ****************//

KirbyTripleDeluxeBouncingBossBattleRandomWizard_011:
// 000   ----------------------------------------
 BYTE   KEYSH   KirbyTripleDeluxeBouncingBossBattleRandomWizard_key+0
 BYTE   VOICE   76
 BYTE   VOL   25*KirbyTripleDeluxeBouncingBossBattleRandomWizard_mvl/mxv
 BYTE   PAN   c_v+0
 BYTE   W96
// 001   ----------------------------------------
 BYTE   W96
// 002   ----------------------------------------
 BYTE   W96
// 003   ----------------------------------------
 BYTE   W96
// 004   ----------------------------------------
Label_10_01556EE8:
 BYTE   W96
// 005   ----------------------------------------
 BYTE   W96
// 006   ----------------------------------------
 BYTE   W96
// 007   ----------------------------------------
 BYTE   W96
// 008   ----------------------------------------
Label_10_01556EEC:
 BYTE   N06  As3  v100
 BYTE   W06
 BYTE   Cn4
 BYTE   W12
 BYTE   Fn4
 BYTE   W06
 BYTE   N03  Dn4
 BYTE   W06
 BYTE   Cn4
 BYTE   W06
 BYTE   As3
 BYTE   W06
 BYTE   N12  Cn4
 BYTE   W12
 BYTE   N36  Dn4
 BYTE   W42
 BYTE   PEND 
 BYTE   PATT
  POIN2 Label_10_01556EEC
// 009   ----------------------------------------
 BYTE   N06  As4  v100
 BYTE   W06
 BYTE   N03  Cn5
 BYTE   W12
 BYTE   N06  Fn5
 BYTE   W06
 BYTE   N03  Dn5
 BYTE   W06
 BYTE   Cn5
 BYTE   W06
 BYTE   As4
 BYTE   W06
 BYTE   Cn5
 BYTE   W06
 BYTE   Dn5
 BYTE   W06
 BYTE   As4
 BYTE   W06
 BYTE   An4
 BYTE   W06
 BYTE   N30  Gn4
 BYTE   W30
// 010   ----------------------------------------
 BYTE   W96
// 011   ----------------------------------------
 BYTE   W96
// 012   ----------------------------------------
 BYTE   W96
// 013   ----------------------------------------
 BYTE   W96
// 014   ----------------------------------------
 BYTE   W96
// 015   ----------------------------------------
 BYTE   W96
// 016   ----------------------------------------
 BYTE   W96
// 017   ----------------------------------------
 BYTE   W96
// 018   ----------------------------------------
 BYTE   W96
// 019   ----------------------------------------
 BYTE   W96
// 020   ----------------------------------------
 BYTE   W96
// 021   ----------------------------------------
 BYTE   W96
// 022   ----------------------------------------
 BYTE   W96
// 023   ----------------------------------------
 BYTE   W96
// 024   ----------------------------------------
 BYTE   W96
// 025   ----------------------------------------
 BYTE   GoTo
  POIN2 Label_10_01556EE8
 BYTE   FINE

//**************** Track 12 (Midi-Chn.11) ****************//

KirbyTripleDeluxeBouncingBossBattleRandomWizard_012:
// 000   ----------------------------------------
 BYTE   KEYSH   KirbyTripleDeluxeBouncingBossBattleRandomWizard_key+0
 BYTE   VOICE   85
 BYTE   VOL   40*KirbyTripleDeluxeBouncingBossBattleRandomWizard_mvl/mxv
 BYTE   PAN   c_v+0
 BYTE   W96
// 001   ----------------------------------------
 BYTE   W96
// 002   ----------------------------------------
 BYTE   W96
// 003   ----------------------------------------
 BYTE   W96
// 004   ----------------------------------------
Label_11_01556F44:
 BYTE   W96
// 005   ----------------------------------------
 BYTE   W96
// 006   ----------------------------------------
 BYTE   W96
// 007   ----------------------------------------
 BYTE   W96
// 008   ----------------------------------------
 BYTE   W96
// 009   ----------------------------------------
 BYTE   W96
// 010   ----------------------------------------
 BYTE   W96
// 011   ----------------------------------------
 BYTE   W96
// 012   ----------------------------------------
 BYTE   N36  As2  v100
 BYTE   N36  Dn3
 BYTE   N36  Gn3
 BYTE   W48
 BYTE   N06  An2
 BYTE   N06  Cn3
 BYTE   W18
 BYTE   N18  Fn2
 BYTE   N18  Gn2
 BYTE   N18  An2
 BYTE   W30
// 013   ----------------------------------------
 BYTE   N36  As2
 BYTE   N36  Dn3
 BYTE   N36  Gn3
 BYTE   W48
 BYTE   N06  Cn3
 BYTE   N06  En3
 BYTE   W18
 BYTE   N18  Gn2
 BYTE   N18  An2
 BYTE   N18  Cn3
 BYTE   W30
// 014   ----------------------------------------
 BYTE   W96
// 015   ----------------------------------------
 BYTE   N12
 BYTE   N12  Ds3
 BYTE   N12  Gn3
 BYTE   W18
 BYTE   Cn3
 BYTE   N12  Ds3
 BYTE   N12  Gn3
 BYTE   W18
 BYTE   N06
 BYTE   N06  As3
 BYTE   W12
 BYTE   Fn3
 BYTE   N06  An3
 BYTE   W06
 BYTE   Dn3
 BYTE   N06  Gn3
 BYTE   W12
 BYTE   N18  Cn3
 BYTE   N18  Dn3
 BYTE   N18  Fn3
 BYTE   W30
// 016   ----------------------------------------
 BYTE   W96
// 017   ----------------------------------------
 BYTE   W96
// 018   ----------------------------------------
 BYTE   W96
// 019   ----------------------------------------
 BYTE   N15  Gn2
 BYTE   N15  Cn3
 BYTE   N15  Fn3
 BYTE   W24
 BYTE   N06  Fn2
 BYTE   N06  Bn2
 BYTE   N04  Ds3
 BYTE   W08
 BYTE   Fn3
 BYTE   W08
 BYTE   Ds3
 BYTE   W08
 BYTE   N42  Fs2
 BYTE   N42  An2
 BYTE   N42  Dn3
 BYTE   W48
// 020   ----------------------------------------
 BYTE   W96
// 021   ----------------------------------------
 BYTE   W96
// 022   ----------------------------------------
 BYTE   W96
// 023   ----------------------------------------
 BYTE   W96
// 024   ----------------------------------------
 BYTE   W96
// 025   ----------------------------------------
 BYTE   W96
// 026   ----------------------------------------
 BYTE   GoTo
  POIN2 Label_11_01556F44
 BYTE   FINE

//**************** Track 13 (Midi-Chn.12) ****************//

KirbyTripleDeluxeBouncingBossBattleRandomWizard_013:
// 000   ----------------------------------------
 BYTE   KEYSH   KirbyTripleDeluxeBouncingBossBattleRandomWizard_key+0
 BYTE   VOICE   11
 BYTE   VOL   24*KirbyTripleDeluxeBouncingBossBattleRandomWizard_mvl/mxv
 BYTE   PAN   c_v+0
 BYTE   W96
// 001   ----------------------------------------
 BYTE   W96
// 002   ----------------------------------------
 BYTE   W96
// 003   ----------------------------------------
 BYTE   W96
// 004   ----------------------------------------
Label_12_01556FC8:
 BYTE   W96
// 005   ----------------------------------------
 BYTE   W96
// 006   ----------------------------------------
 BYTE   W96
// 007   ----------------------------------------
 BYTE   W96
// 008   ----------------------------------------
 BYTE   N12  En4  v100
 BYTE   N12  Fn4
 BYTE   W18
 BYTE   En4
 BYTE   N12  Fn4
 BYTE   N12  An4
 BYTE   W18
 BYTE   En4
 BYTE   N12  Fn4
 BYTE   N12  Cn5
 BYTE   W18
 BYTE   En4
 BYTE   N12  Fn4
 BYTE   W18
 BYTE   N06  En4
 BYTE   N06  Fn4
 BYTE   W12
 BYTE   En4
 BYTE   N06  Fn4
 BYTE   W12
// 009   ----------------------------------------
 BYTE   N12  En4
 BYTE   N12  Fn4
 BYTE   N12  An4
 BYTE   W18
 BYTE   En4
 BYTE   N12  Fn4
 BYTE   N12  An4
 BYTE   W18
 BYTE   En4
 BYTE   N12  Fn4
 BYTE   N12  Cn5
 BYTE   W18
 BYTE   En4
 BYTE   N12  Fn4
 BYTE   W18
 BYTE   N06  En4
 BYTE   N06  Fn4
 BYTE   W12
 BYTE   En4
 BYTE   N06  Fn4
 BYTE   W12
// 010   ----------------------------------------
 BYTE   N12
 BYTE   N12  Gn4
 BYTE   N12  An4
 BYTE   W18
 BYTE   Fn4
 BYTE   N12  Gn4
 BYTE   N12  An4
 BYTE   W18
 BYTE   Fn4
 BYTE   N12  Gn4
 BYTE   N12  As4
 BYTE   W18
 BYTE   Fn4
 BYTE   N12  Gn4
 BYTE   W18
 BYTE   N06  Fn4
 BYTE   N06  Gn4
 BYTE   W12
 BYTE   Fn4
 BYTE   N06  Gn4
 BYTE   W12
// 011   ----------------------------------------
 BYTE   W96
// 012   ----------------------------------------
 BYTE   W96
// 013   ----------------------------------------
 BYTE   W96
// 014   ----------------------------------------
 BYTE   W96
// 015   ----------------------------------------
 BYTE   W96
// 016   ----------------------------------------
 BYTE   W96
// 017   ----------------------------------------
 BYTE   W96
// 018   ----------------------------------------
 BYTE   Dn3
 BYTE   N06  Dn5
 BYTE   W06
 BYTE   Ds3
 BYTE   N06  Ds5
 BYTE   W06
 BYTE   Dn3
 BYTE   N06  Dn5
 BYTE   W06
 BYTE   Ds3
 BYTE   N06  Ds5
 BYTE   W06
 BYTE   N12  Fn3
 BYTE   N12  Fn5
 BYTE   W12
 BYTE   N06  Dn3
 BYTE   N06  Dn5
 BYTE   W06
 BYTE   As2
 BYTE   N06  As4
 BYTE   W06
 BYTE   Cn3
 BYTE   N06  Cn5
 BYTE   W06
 BYTE   Dn3
 BYTE   N06  Dn5
 BYTE   W06
 BYTE   Cn3
 BYTE   N06  Cn5
 BYTE   W06
 BYTE   N12  Dn3
 BYTE   N12  Dn5
 BYTE   W12
 BYTE   N06  Cn3
 BYTE   N06  Cn5
 BYTE   W06
 BYTE   An2
 BYTE   N06  An4
 BYTE   W06
 BYTE   Fn2
 BYTE   N06  Fn4
 BYTE   W06
// 019   ----------------------------------------
 BYTE   N24  Fn3
 BYTE   W24
 BYTE   N08  Ds3
 BYTE   W08
 BYTE   Fn3
 BYTE   W08
 BYTE   Ds3
 BYTE   W08
 BYTE   N03  Dn3
 BYTE   W03
 BYTE   N03
 BYTE   W03
 BYTE   N03
 BYTE   W03
 BYTE   N03
 BYTE   W03
 BYTE   N03
 BYTE   W03
 BYTE   N03
 BYTE   W03
 BYTE   N03
 BYTE   W03
 BYTE   N03
 BYTE   W03
 BYTE   N03
 BYTE   W03
 BYTE   N03
 BYTE   W03
 BYTE   N03
 BYTE   W03
 BYTE   N03
 BYTE   W15
// 020   ----------------------------------------
 BYTE   W96
// 021   ----------------------------------------
 BYTE   W96
// 022   ----------------------------------------
 BYTE   W96
// 023   ----------------------------------------
 BYTE   W96
// 024   ----------------------------------------
 BYTE   W96
// 025   ----------------------------------------
 BYTE   W96
// 026   ----------------------------------------
 BYTE   GoTo
  POIN2 Label_12_01556FC8
 BYTE   FINE

//******************************************************//
	ALIGN 4

KirbyTripleDeluxeBouncingBossBattleRandomWizard:
	BYTE	13	// NumTrks
	BYTE	0	// NumBlks
	BYTE	KirbyTripleDeluxeBouncingBossBattleRandomWizard_pri	// Priority
	BYTE	KirbyTripleDeluxeBouncingBossBattleRandomWizard_rev	// Reverb.
    
	POIN2	KirbyTripleDeluxeBouncingBossBattleRandomWizard_grp
    
	POIN2	KirbyTripleDeluxeBouncingBossBattleRandomWizard_001
	POIN2	KirbyTripleDeluxeBouncingBossBattleRandomWizard_002
	POIN2	KirbyTripleDeluxeBouncingBossBattleRandomWizard_003
	POIN2	KirbyTripleDeluxeBouncingBossBattleRandomWizard_004
	POIN2	KirbyTripleDeluxeBouncingBossBattleRandomWizard_005
	POIN2	KirbyTripleDeluxeBouncingBossBattleRandomWizard_006
	POIN2	KirbyTripleDeluxeBouncingBossBattleRandomWizard_007
	POIN2	KirbyTripleDeluxeBouncingBossBattleRandomWizard_008
	POIN2	KirbyTripleDeluxeBouncingBossBattleRandomWizard_009
	POIN2	KirbyTripleDeluxeBouncingBossBattleRandomWizard_010
	POIN2	KirbyTripleDeluxeBouncingBossBattleRandomWizard_011
	POIN2	KirbyTripleDeluxeBouncingBossBattleRandomWizard_012
	POIN2	KirbyTripleDeluxeBouncingBossBattleRandomWizard_013

	
