//Event file generated from Sappy .s format.
	#include "MPlayDef.event"

	#define	KirbyandtheAmazingMirrorRadishRuinsPandan_grp  voicegroup000
	#define	KirbyandtheAmazingMirrorRadishRuinsPandan_pri  10
	#define	KirbyandtheAmazingMirrorRadishRuinsPandan_rev  0
	#define	KirbyandtheAmazingMirrorRadishRuinsPandan_mvl  127
	#define	KirbyandtheAmazingMirrorRadishRuinsPandan_key  0
	#define	KirbyandtheAmazingMirrorRadishRuinsPandan_tbs  1
	#define	KirbyandtheAmazingMirrorRadishRuinsPandan_exg  0
	#define	KirbyandtheAmazingMirrorRadishRuinsPandan_cmp  1

	// .rodata
	//	KirbyandtheAmazingMirrorRadishRuinsPandan
	ALIGN 4


//**************** Track 1 (Midi-Chn.0) ****************//

KirbyandtheAmazingMirrorRadishRuinsPandan_001:
// 000   ----------------------------------------
Label_0_01200CC4:
 BYTE   TEMPO   136*KirbyandtheAmazingMirrorRadishRuinsPandan_tbs/2
 BYTE   KEYSH   KirbyandtheAmazingMirrorRadishRuinsPandan_key+0
 BYTE   VOL   50*KirbyandtheAmazingMirrorRadishRuinsPandan_mvl/mxv
 BYTE   PAN   c_v+0
 BYTE   VOICE   33
 BYTE   N09  Cs1  v120
 BYTE   W36
 BYTE   N04
 BYTE   W06
 BYTE   N04
 BYTE   W06
 BYTE   N04
 BYTE   W06
 BYTE   N04
 BYTE   W06
 BYTE   N09
 BYTE   W36
// 001   ----------------------------------------
 BYTE   N09
 BYTE   W36
 BYTE   N04
 BYTE   W06
 BYTE   N04
 BYTE   W06
 BYTE   N04
 BYTE   W06
 BYTE   N04
 BYTE   W06
 BYTE   N09
 BYTE   W36
// 002   ----------------------------------------
 BYTE   N09
 BYTE   W36
 BYTE   N04
 BYTE   W06
 BYTE   N04
 BYTE   W06
 BYTE   N04
 BYTE   W06
 BYTE   N04
 BYTE   W06
 BYTE   N09
 BYTE   W36
// 003   ----------------------------------------
 BYTE   N09
 BYTE   W36
 BYTE   N04
 BYTE   W06
 BYTE   N04
 BYTE   W06
 BYTE   N04
 BYTE   W06
 BYTE   N04
 BYTE   W06
 BYTE   N09
 BYTE   W36
// 004   ----------------------------------------
 BYTE   N09
 BYTE   W36
 BYTE   N04
 BYTE   W06
 BYTE   N04
 BYTE   W06
 BYTE   N04
 BYTE   W06
 BYTE   N04
 BYTE   W06
 BYTE   N09
 BYTE   W36
// 005   ----------------------------------------
 BYTE   N09
 BYTE   W36
 BYTE   N04
 BYTE   W06
 BYTE   N04
 BYTE   W06
 BYTE   N04
 BYTE   W06
 BYTE   N04
 BYTE   W06
 BYTE   N09
 BYTE   W36
// 006   ----------------------------------------
 BYTE   N09
 BYTE   W36
 BYTE   N04
 BYTE   W06
 BYTE   N04
 BYTE   W06
 BYTE   N04
 BYTE   W06
 BYTE   N04
 BYTE   W06
 BYTE   N09
 BYTE   W36
// 007   ----------------------------------------
 BYTE   N09
 BYTE   W36
 BYTE   N04
 BYTE   W06
 BYTE   N04
 BYTE   W06
 BYTE   N04
 BYTE   W06
 BYTE   N04
 BYTE   W06
 BYTE   N09
 BYTE   W36
// 008   ----------------------------------------
 BYTE   N09
 BYTE   W36
 BYTE   N04
 BYTE   W06
 BYTE   N04
 BYTE   W06
 BYTE   N04
 BYTE   W06
 BYTE   N04
 BYTE   W06
 BYTE   N09
 BYTE   W36
// 009   ----------------------------------------
 BYTE   N09
 BYTE   W36
 BYTE   N04
 BYTE   W06
 BYTE   N04
 BYTE   W06
 BYTE   N04
 BYTE   W06
 BYTE   N04
 BYTE   W06
 BYTE   N09
 BYTE   W36
// 010   ----------------------------------------
 BYTE   N09
 BYTE   W36
 BYTE   N04
 BYTE   W06
 BYTE   N04
 BYTE   W06
 BYTE   N04
 BYTE   W06
 BYTE   N04
 BYTE   W06
 BYTE   N09
 BYTE   W36
// 011   ----------------------------------------
 BYTE   N09
 BYTE   W36
 BYTE   N04
 BYTE   W06
 BYTE   N04
 BYTE   W06
 BYTE   N04
 BYTE   W06
 BYTE   N04
 BYTE   W06
 BYTE   N09
 BYTE   W36
// 012   ----------------------------------------
 BYTE   N09
 BYTE   W36
 BYTE   N04
 BYTE   W06
 BYTE   N04
 BYTE   W06
 BYTE   N04
 BYTE   W06
 BYTE   N04
 BYTE   W06
 BYTE   N09
 BYTE   W36
// 013   ----------------------------------------
 BYTE   N09
 BYTE   W36
 BYTE   N04
 BYTE   W06
 BYTE   N04
 BYTE   W06
 BYTE   N04
 BYTE   W06
 BYTE   N04
 BYTE   W06
 BYTE   N09
 BYTE   W36
// 014   ----------------------------------------
 BYTE   N09
 BYTE   W36
 BYTE   N04
 BYTE   W06
 BYTE   N04
 BYTE   W06
 BYTE   N04
 BYTE   W06
 BYTE   N04
 BYTE   W06
 BYTE   N09
 BYTE   W36
// 015   ----------------------------------------
 BYTE   N09
 BYTE   W36
 BYTE   N04
 BYTE   W06
 BYTE   N04
 BYTE   W06
 BYTE   N04
 BYTE   W06
 BYTE   N04
 BYTE   W06
 BYTE   N09
 BYTE   W36
// 016   ----------------------------------------
 BYTE   N09
 BYTE   W36
 BYTE   N04
 BYTE   W06
 BYTE   N04
 BYTE   W06
 BYTE   N04
 BYTE   W06
 BYTE   N04
 BYTE   W06
 BYTE   N09
 BYTE   W36
// 017   ----------------------------------------
 BYTE   N09
 BYTE   W36
 BYTE   N04
 BYTE   W06
 BYTE   N04
 BYTE   W06
 BYTE   N04
 BYTE   W06
 BYTE   N04
 BYTE   W06
 BYTE   N09
 BYTE   W36
// 018   ----------------------------------------
 BYTE   N09
 BYTE   W36
 BYTE   N04
 BYTE   W06
 BYTE   N04
 BYTE   W06
 BYTE   N04
 BYTE   W06
 BYTE   N04
 BYTE   W06
 BYTE   N09
 BYTE   W36
// 019   ----------------------------------------
 BYTE   N09
 BYTE   W36
 BYTE   N04
 BYTE   W06
 BYTE   Cs1
 BYTE   W06
 BYTE   Cs1
 BYTE   W06
 BYTE   Cs1
 BYTE   W06
 BYTE   N09
 BYTE   W36
// 020   ----------------------------------------
Label_0_01200DC0:
 BYTE   N09  Cs1  v120
 BYTE   W36
 BYTE   N04
 BYTE   W06
 BYTE   Cs1
 BYTE   W06
 BYTE   Cs1
 BYTE   W06
 BYTE   Cs1
 BYTE   W06
 BYTE   N09
 BYTE   W36
 BYTE   PEND 
 BYTE   PATT
  POIN2 Label_0_01200DC0
 BYTE   PATT
  POIN2 Label_0_01200DC0
// 021   ----------------------------------------
Label_0_01200DD9:
 BYTE   N09  Cs1  v120
 BYTE   W36
 BYTE   N04
 BYTE   W06
 BYTE   Cs1
 BYTE   W06
 BYTE   Cs1
 BYTE   W06
 BYTE   Cs1
 BYTE   W42
 BYTE   PEND 
// 022   ----------------------------------------
Label_0_01200DE6:
 BYTE   N09  Cs1  v120
 BYTE   W36
 BYTE   N04
 BYTE   W06
 BYTE   Cs1
 BYTE   W06
 BYTE   Cs1
 BYTE   W12
 BYTE   N09
 BYTE   W36
 BYTE   PEND 
 BYTE   PATT
  POIN2 Label_0_01200DC0
// 023   ----------------------------------------
Label_0_01200DF8:
 BYTE   N08  Cs1  v120
 BYTE   W08
 BYTE   N04  Gs0
 BYTE   W08
 BYTE   Cs1
 BYTE   W08
 BYTE   N42  Gs0
 BYTE   W02
 BYTE   N01
 BYTE   W44
 BYTE   W01
 BYTE   N16  Cs1
 BYTE   W24
 BYTE   PEND 
Label_0_01200E0B:
 BYTE   N08  Bn0  v120
 BYTE   W08
// 024   ----------------------------------------
 BYTE   N04  Fs0
 BYTE   W08
 BYTE   Bn0
 BYTE   W08
 BYTE   N42  Fs0
 BYTE   W02
 BYTE   N01
 BYTE   W44
 BYTE   W01
 BYTE   N16  Bn0
 BYTE   W24
 BYTE   PEND 
 BYTE   PATT
  POIN2 Label_0_01200DF8
 BYTE   PATT
  POIN2 Label_0_01200E0B
 BYTE   PATT
  POIN2 Label_0_01200DF8
 BYTE   PATT
  POIN2 Label_0_01200E0B
 BYTE   PATT
  POIN2 Label_0_01200DF8
 BYTE   PATT
  POIN2 Label_0_01200E0B
 BYTE   PATT
  POIN2 Label_0_01200DC0
 BYTE   PATT
  POIN2 Label_0_01200DC0
 BYTE   PATT
  POIN2 Label_0_01200DC0
 BYTE   PATT
  POIN2 Label_0_01200DC0
 BYTE   PATT
  POIN2 Label_0_01200DC0
 BYTE   PATT
  POIN2 Label_0_01200DC0
 BYTE   PATT
  POIN2 Label_0_01200DC0
 BYTE   PATT
  POIN2 Label_0_01200DC0
 BYTE   PATT
  POIN2 Label_0_01200DC0
 BYTE   PATT
  POIN2 Label_0_01200DC0
 BYTE   PATT
  POIN2 Label_0_01200DC0
 BYTE   PATT
  POIN2 Label_0_01200DC0
 BYTE   PATT
  POIN2 Label_0_01200DC0
 BYTE   PATT
  POIN2 Label_0_01200DC0
 BYTE   PATT
  POIN2 Label_0_01200DC0
 BYTE   PATT
  POIN2 Label_0_01200DC0
 BYTE   PATT
  POIN2 Label_0_01200DC0
 BYTE   PATT
  POIN2 Label_0_01200DC0
 BYTE   PATT
  POIN2 Label_0_01200DC0
 BYTE   PATT
  POIN2 Label_0_01200DC0
 BYTE   PATT
  POIN2 Label_0_01200DC0
 BYTE   PATT
  POIN2 Label_0_01200DC0
 BYTE   PATT
  POIN2 Label_0_01200DC0
 BYTE   PATT
  POIN2 Label_0_01200DC0
 BYTE   PATT
  POIN2 Label_0_01200DC0
 BYTE   PATT
  POIN2 Label_0_01200DD9
 BYTE   PATT
  POIN2 Label_0_01200DE6
 BYTE   PATT
  POIN2 Label_0_01200DC0
 BYTE   PATT
  POIN2 Label_0_01200DF8
 BYTE   PATT
  POIN2 Label_0_01200E0B
 BYTE   PATT
  POIN2 Label_0_01200DF8
 BYTE   PATT
  POIN2 Label_0_01200E0B
 BYTE   PATT
  POIN2 Label_0_01200DF8
 BYTE   PATT
  POIN2 Label_0_01200E0B
 BYTE   PATT
  POIN2 Label_0_01200DF8
 BYTE   PATT
  POIN2 Label_0_01200E0B
 BYTE   PATT
  POIN2 Label_0_01200DC0
 BYTE   PATT
  POIN2 Label_0_01200DC0
// 025   ----------------------------------------
 BYTE   GoTo
  POIN2 Label_0_01200CC4
 BYTE   FINE

//**************** Track 2 (Midi-Chn.1) ****************//

KirbyandtheAmazingMirrorRadishRuinsPandan_002:
// 000   ----------------------------------------
Label_1_01200F00:
 BYTE   TEMPO   136*KirbyandtheAmazingMirrorRadishRuinsPandan_tbs/2
 BYTE   KEYSH   KirbyandtheAmazingMirrorRadishRuinsPandan_key+0
 BYTE   VOL   25*KirbyandtheAmazingMirrorRadishRuinsPandan_mvl/mxv
 BYTE   PAN   c_v-10
 BYTE   VOICE   47
 BYTE   N24  Dn2  v100
 BYTE   W36
 BYTE   N04  An1
 BYTE   W06
 BYTE   N04
 BYTE   W06
 BYTE   N12  Dn2
 BYTE   W12
 BYTE   N16  An1
 BYTE   W36
// 001   ----------------------------------------
 BYTE   N24  Dn2
 BYTE   W36
 BYTE   N04  An1
 BYTE   W06
 BYTE   N04
 BYTE   W06
 BYTE   N12  Dn2
 BYTE   W12
 BYTE   N12  An1
 BYTE   W12
 BYTE   N12  Bn1
 BYTE   W12
 BYTE   N04  Cn2
 BYTE   W04
 BYTE   N04
 BYTE   W04
 BYTE   N04
 BYTE   W04
// 002   ----------------------------------------
 BYTE   N24  Dn2
 BYTE   W36
 BYTE   N04  An1
 BYTE   W06
 BYTE   N04
 BYTE   W06
 BYTE   N12  Dn2
 BYTE   W12
 BYTE   N16  An1
 BYTE   W36
// 003   ----------------------------------------
 BYTE   N24  Dn2
 BYTE   W36
 BYTE   N04  An1
 BYTE   W06
 BYTE   N04
 BYTE   W06
 BYTE   N12  Dn2
 BYTE   W12
 BYTE   N12  An1
 BYTE   W12
 BYTE   N12  Cn2
 BYTE   W12
 BYTE   N12
 BYTE   W12
// 004   ----------------------------------------
 BYTE   N24  Dn2
 BYTE   W36
 BYTE   N04  An1
 BYTE   W06
 BYTE   N04
 BYTE   W06
 BYTE   N12  Dn2
 BYTE   W12
 BYTE   N16  An1
 BYTE   W36
// 005   ----------------------------------------
 BYTE   N24  Dn2
 BYTE   W36
 BYTE   N04  An1
 BYTE   W06
 BYTE   N04
 BYTE   W06
 BYTE   N12  Dn2
 BYTE   W12
 BYTE   N12  An1
 BYTE   W12
 BYTE   N08  Cn2
 BYTE   W08
 BYTE   N08
 BYTE   W08
 BYTE   N08
 BYTE   W08
// 006   ----------------------------------------
 BYTE   N24  Dn2
 BYTE   W36
 BYTE   N04  An1
 BYTE   W06
 BYTE   N04
 BYTE   W06
 BYTE   N12  Dn2
 BYTE   W12
 BYTE   N16  An1
 BYTE   W36
// 007   ----------------------------------------
 BYTE   N24  Dn2
 BYTE   W36
 BYTE   N04  An1
 BYTE   W06
 BYTE   N04
 BYTE   W06
 BYTE   N12  Dn2
 BYTE   W12
 BYTE   N12  An1
 BYTE   W12
 BYTE   N12  Cn2
 BYTE   W12
 BYTE   N12
 BYTE   W12
// 008   ----------------------------------------
 BYTE   N24  Dn2
 BYTE   W36
 BYTE   N04  An1
 BYTE   W06
 BYTE   N04
 BYTE   W06
 BYTE   N12  Dn2
 BYTE   W12
 BYTE   N16  An1
 BYTE   W36
// 009   ----------------------------------------
 BYTE   N24  Dn2
 BYTE   W36
 BYTE   N04  An1
 BYTE   W06
 BYTE   N04
 BYTE   W06
 BYTE   N12  Dn2
 BYTE   W12
 BYTE   N12  An1
 BYTE   W12
 BYTE   N12  Bn1
 BYTE   W12
 BYTE   N04  Cn2
 BYTE   W04
 BYTE   N04
 BYTE   W04
 BYTE   N04
 BYTE   W04
// 010   ----------------------------------------
 BYTE   N24  Dn2
 BYTE   W36
 BYTE   N04  An1
 BYTE   W06
 BYTE   N04
 BYTE   W06
 BYTE   N12  Dn2
 BYTE   W12
 BYTE   N16  An1
 BYTE   W36
// 011   ----------------------------------------
 BYTE   N24  Dn2
 BYTE   W36
 BYTE   N04  An1
 BYTE   W06
 BYTE   N04
 BYTE   W06
 BYTE   N12  Dn2
 BYTE   W12
 BYTE   N12  An1
 BYTE   W12
 BYTE   N12  Cn2
 BYTE   W12
 BYTE   N12
 BYTE   W12
// 012   ----------------------------------------
 BYTE   N24  Dn2
 BYTE   W36
 BYTE   N04  An1
 BYTE   W06
 BYTE   N04
 BYTE   W06
 BYTE   N12  Dn2
 BYTE   W12
 BYTE   N16  An1
 BYTE   W36
// 013   ----------------------------------------
 BYTE   N24  Dn2
 BYTE   W36
 BYTE   N04  An1
 BYTE   W06
 BYTE   N04
 BYTE   W06
 BYTE   N12  Dn2
 BYTE   W12
 BYTE   N12  An1
 BYTE   W12
 BYTE   N12  Bn1
 BYTE   W12
 BYTE   N04  Cn2
 BYTE   W04
 BYTE   N04
 BYTE   W04
 BYTE   N04
 BYTE   W04
// 014   ----------------------------------------
 BYTE   N24  Dn2
 BYTE   W36
 BYTE   N04  An1
 BYTE   W06
 BYTE   N04
 BYTE   W06
 BYTE   N12  Dn2
 BYTE   W12
 BYTE   N16  An1
 BYTE   W36
// 015   ----------------------------------------
 BYTE   N24  Dn2
 BYTE   W36
 BYTE   N04  An1
 BYTE   W06
 BYTE   N04
 BYTE   W06
 BYTE   N12  Dn2
 BYTE   W12
 BYTE   N12  An1
 BYTE   W12
 BYTE   N12  Cn2
 BYTE   W12
 BYTE   N12
 BYTE   W12
// 016   ----------------------------------------
 BYTE   N24  Dn2
 BYTE   W36
 BYTE   N04  An1
 BYTE   W06
 BYTE   N04
 BYTE   W06
 BYTE   N12  Dn2
 BYTE   W12
 BYTE   N16  An1
 BYTE   W36
// 017   ----------------------------------------
 BYTE   N24  Dn2
 BYTE   W36
 BYTE   N04  An1
 BYTE   W06
 BYTE   N04
 BYTE   W06
 BYTE   N12  Dn2
 BYTE   W12
 BYTE   N12  An1
 BYTE   W12
 BYTE   N08  Cn2
 BYTE   W08
 BYTE   N08
 BYTE   W08
 BYTE   N08
 BYTE   W08
// 018   ----------------------------------------
 BYTE   N24  Dn2
 BYTE   W36
 BYTE   N04  An1
 BYTE   W06
 BYTE   N04
 BYTE   W06
 BYTE   N12  Dn2
 BYTE   W12
 BYTE   N16  An1
 BYTE   W36
// 019   ----------------------------------------
 BYTE   N24  Dn2
 BYTE   W36
 BYTE   N04  An1
 BYTE   W06
 BYTE   An1
 BYTE   W06
 BYTE   N12  Dn2
 BYTE   W12
 BYTE   An1
 BYTE   W12
 BYTE   Cn2
 BYTE   W12
 BYTE   Cn2
 BYTE   W12
// 020   ----------------------------------------
Label_1_01201066:
 BYTE   N24  Dn2  v100
 BYTE   W36
 BYTE   N04  An1
 BYTE   W06
 BYTE   An1
 BYTE   W06
 BYTE   N12  Dn2
 BYTE   W12
 BYTE   N16  An1
 BYTE   W36
 BYTE   PEND 
// 021   ----------------------------------------
Label_1_01201076:
 BYTE   N24  Dn2  v100
 BYTE   W36
 BYTE   N04  An1
 BYTE   W06
 BYTE   An1
 BYTE   W06
 BYTE   N12  Dn2
 BYTE   W12
 BYTE   An1
 BYTE   W12
 BYTE   Bn1
 BYTE   W12
 BYTE   N04  Cn2
 BYTE   W04
 BYTE   Cn2
 BYTE   W04
 BYTE   Cn2
 BYTE   W04
 BYTE   PEND 
 BYTE   PATT
  POIN2 Label_1_01201066
// 022   ----------------------------------------
Label_1_01201093:
 BYTE   N24  Dn2  v100
 BYTE   W36
 BYTE   N04  An1
 BYTE   W06
 BYTE   An1
 BYTE   W06
 BYTE   N12  Dn2
 BYTE   W12
 BYTE   An1
 BYTE   W12
 BYTE   Cn2
 BYTE   W12
 BYTE   Cn2
 BYTE   W12
 BYTE   PEND 
 BYTE   PATT
  POIN2 Label_1_01201066
 BYTE   PATT
  POIN2 Label_1_01201076
// 023   ----------------------------------------
Label_1_012010B0:
 BYTE   N08  Dn2  v100
 BYTE   W08
 BYTE   An1
 BYTE   W08
 BYTE   Dn2
 BYTE   W08
 BYTE   N24  An1
 BYTE   W48
 BYTE   N16  Dn2
 BYTE   W24
 BYTE   PEND 
// 024   ----------------------------------------
Label_1_012010BF:
 BYTE   N08  Cn2  v100
 BYTE   W08
 BYTE   Gn1
 BYTE   W08
 BYTE   Cn2
 BYTE   W08
 BYTE   N24  Gn1
 BYTE   W48
 BYTE   N16  Cn2
 BYTE   W24
 BYTE   PEND 
 BYTE   PATT
  POIN2 Label_1_012010B0
// 025   ----------------------------------------
Label_1_012010D3:
 BYTE   N08  Cn2  v100
 BYTE   W08
 BYTE   Gn1
 BYTE   W08
 BYTE   Cn2
 BYTE   W08
 BYTE   N24  Gn1
 BYTE   W48
 BYTE   N04  Cn2
 BYTE   W04
 BYTE   Cn2
 BYTE   W04
 BYTE   Cn2
 BYTE   W04
 BYTE   Cn2
 BYTE   W04
 BYTE   Cn2
 BYTE   W04
 BYTE   Cn2
 BYTE   W04
 BYTE   PEND 
 BYTE   PATT
  POIN2 Label_1_012010B0
 BYTE   PATT
  POIN2 Label_1_012010BF
 BYTE   PATT
  POIN2 Label_1_012010B0
 BYTE   PATT
  POIN2 Label_1_012010D3
 BYTE   PATT
  POIN2 Label_1_01201066
 BYTE   PATT
  POIN2 Label_1_01201093
 BYTE   PATT
  POIN2 Label_1_01201066
 BYTE   PATT
  POIN2 Label_1_01201076
 BYTE   PATT
  POIN2 Label_1_01201066
 BYTE   PATT
  POIN2 Label_1_01201093
 BYTE   PATT
  POIN2 Label_1_01201066
// 026   ----------------------------------------
Label_1_01201123:
 BYTE   N24  Dn2  v100
 BYTE   W36
 BYTE   N04  An1
 BYTE   W06
 BYTE   An1
 BYTE   W06
 BYTE   N12  Dn2
 BYTE   W12
 BYTE   An1
 BYTE   W12
 BYTE   N08  Cn2
 BYTE   W08
 BYTE   Cn2
 BYTE   W08
 BYTE   Cn2
 BYTE   W08
 BYTE   PEND 
 BYTE   PATT
  POIN2 Label_1_01201066
 BYTE   PATT
  POIN2 Label_1_01201093
 BYTE   PATT
  POIN2 Label_1_01201066
 BYTE   PATT
  POIN2 Label_1_01201076
 BYTE   PATT
  POIN2 Label_1_01201066
 BYTE   PATT
  POIN2 Label_1_01201093
 BYTE   PATT
  POIN2 Label_1_01201066
 BYTE   PATT
  POIN2 Label_1_01201076
 BYTE   PATT
  POIN2 Label_1_01201066
 BYTE   PATT
  POIN2 Label_1_01201093
 BYTE   PATT
  POIN2 Label_1_01201066
 BYTE   PATT
  POIN2 Label_1_01201123
 BYTE   PATT
  POIN2 Label_1_01201066
 BYTE   PATT
  POIN2 Label_1_01201093
 BYTE   PATT
  POIN2 Label_1_01201066
 BYTE   PATT
  POIN2 Label_1_01201076
 BYTE   PATT
  POIN2 Label_1_01201066
 BYTE   PATT
  POIN2 Label_1_01201093
 BYTE   PATT
  POIN2 Label_1_01201066
 BYTE   PATT
  POIN2 Label_1_01201076
 BYTE   PATT
  POIN2 Label_1_012010B0
 BYTE   PATT
  POIN2 Label_1_012010BF
 BYTE   PATT
  POIN2 Label_1_012010B0
 BYTE   PATT
  POIN2 Label_1_012010D3
 BYTE   PATT
  POIN2 Label_1_012010B0
 BYTE   PATT
  POIN2 Label_1_012010BF
 BYTE   PATT
  POIN2 Label_1_012010B0
 BYTE   PATT
  POIN2 Label_1_012010D3
 BYTE   PATT
  POIN2 Label_1_01201066
 BYTE   PATT
  POIN2 Label_1_01201093
// 027   ----------------------------------------
 BYTE   GoTo
  POIN2 Label_1_01200F00
 BYTE   FINE

//**************** Track 3 (Midi-Chn.2) ****************//

KirbyandtheAmazingMirrorRadishRuinsPandan_003:
// 000   ----------------------------------------
Label_2_012011D8:
 BYTE   TEMPO   136*KirbyandtheAmazingMirrorRadishRuinsPandan_tbs/2
 BYTE   KEYSH   KirbyandtheAmazingMirrorRadishRuinsPandan_key+0
 BYTE   VOL   35*KirbyandtheAmazingMirrorRadishRuinsPandan_mvl/mxv
 BYTE   PAN   c_v-20
 BYTE   VOICE   57
 BYTE   N06  Cs4  v127
 BYTE   W36
 BYTE   N04
 BYTE   W06
 BYTE   N04
 BYTE   W06
 BYTE   N06
 BYTE   W06
 BYTE   N06
 BYTE   W06
 BYTE   N06
 BYTE   W36
// 001   ----------------------------------------
 BYTE   N06
 BYTE   W36
 BYTE   N04
 BYTE   W06
 BYTE   N04
 BYTE   W06
 BYTE   N06
 BYTE   W06
 BYTE   N06
 BYTE   W06
 BYTE   N06
 BYTE   W36
// 002   ----------------------------------------
 BYTE   N06
 BYTE   W36
 BYTE   N04
 BYTE   W06
 BYTE   N04
 BYTE   W06
 BYTE   N06
 BYTE   W06
 BYTE   N06
 BYTE   W06
 BYTE   N06
 BYTE   W36
// 003   ----------------------------------------
 BYTE   N06
 BYTE   W36
 BYTE   N04
 BYTE   W06
 BYTE   N04
 BYTE   W06
 BYTE   N06
 BYTE   W06
 BYTE   N06
 BYTE   W06
 BYTE   N06
 BYTE   W36
// 004   ----------------------------------------
 BYTE   N06
 BYTE   W36
 BYTE   N04
 BYTE   W06
 BYTE   N04
 BYTE   W06
 BYTE   N06
 BYTE   W06
 BYTE   N06
 BYTE   W06
 BYTE   N06
 BYTE   W36
// 005   ----------------------------------------
 BYTE   N06
 BYTE   W36
 BYTE   N04
 BYTE   W06
 BYTE   N04
 BYTE   W06
 BYTE   N06
 BYTE   W06
 BYTE   N06
 BYTE   W06
 BYTE   N06
 BYTE   W36
// 006   ----------------------------------------
 BYTE   N06
 BYTE   W36
 BYTE   N04
 BYTE   W06
 BYTE   N04
 BYTE   W06
 BYTE   N06
 BYTE   W06
 BYTE   N06
 BYTE   W06
 BYTE   N06
 BYTE   W36
// 007   ----------------------------------------
 BYTE   N06
 BYTE   W36
 BYTE   N04
 BYTE   W06
 BYTE   N04
 BYTE   W06
 BYTE   N06
 BYTE   W06
 BYTE   N06
 BYTE   W06
 BYTE   N06
 BYTE   W36
// 008   ----------------------------------------
 BYTE   N06
 BYTE   W36
 BYTE   N04
 BYTE   W06
 BYTE   N04
 BYTE   W06
 BYTE   N06
 BYTE   W06
 BYTE   N06
 BYTE   W06
 BYTE   N06
 BYTE   W36
// 009   ----------------------------------------
 BYTE   N06
 BYTE   W36
 BYTE   N04
 BYTE   W06
 BYTE   N04
 BYTE   W06
 BYTE   N06
 BYTE   W06
 BYTE   N06
 BYTE   W06
 BYTE   N06
 BYTE   W96
// 010   ----------------------------------------
 BYTE   W96
// 011   ----------------------------------------
 BYTE   W96
// 012   ----------------------------------------
 BYTE   W96
// 013   ----------------------------------------
 BYTE   W36
 BYTE   N06
 BYTE   W36
 BYTE   N04
 BYTE   W06
 BYTE   N04
 BYTE   W06
 BYTE   N06
 BYTE   W06
 BYTE   N06
 BYTE   W06
// 014   ----------------------------------------
 BYTE   N06
 BYTE   W36
 BYTE   N06
 BYTE   W36
 BYTE   N04
 BYTE   W06
 BYTE   N04
 BYTE   W06
 BYTE   N06
 BYTE   W06
 BYTE   N06
 BYTE   W06
// 015   ----------------------------------------
 BYTE   N06
 BYTE   W36
 BYTE   N06
 BYTE   W36
 BYTE   N04
 BYTE   W06
 BYTE   N04
 BYTE   W06
 BYTE   N06
 BYTE   W06
 BYTE   N06
 BYTE   W06
// 016   ----------------------------------------
 BYTE   N06
 BYTE   W36
 BYTE   N06
 BYTE   W36
 BYTE   N04
 BYTE   W06
 BYTE   N04
 BYTE   W06
 BYTE   N06
 BYTE   W06
 BYTE   N06
 BYTE   W06
// 017   ----------------------------------------
 BYTE   N06
 BYTE   W36
 BYTE   N06
 BYTE   W36
 BYTE   N04
 BYTE   W06
 BYTE   N04
 BYTE   W06
 BYTE   N06
 BYTE   W06
 BYTE   N06
 BYTE   W06
// 018   ----------------------------------------
 BYTE   N06
 BYTE   W36
 BYTE   N06
 BYTE   W36
 BYTE   N04
 BYTE   W06
 BYTE   Cs4
 BYTE   W06
 BYTE   N06
 BYTE   W06
 BYTE   Cs4
 BYTE   W06
// 019   ----------------------------------------
 BYTE   Cs4
 BYTE   W36
Label_2_012012A8:
 BYTE   N06  Cs4  v127
 BYTE   W36
 BYTE   N04
 BYTE   W06
 BYTE   Cs4
 BYTE   W06
 BYTE   N06
 BYTE   W06
 BYTE   Cs4
 BYTE   W06
// 020   ----------------------------------------
 BYTE   Cs4
 BYTE   W36
 BYTE   PEND 
Label_2_012012B7:
 BYTE   N06  Cs4  v127
 BYTE   W36
 BYTE   N04
 BYTE   W06
 BYTE   Cs4
 BYTE   W06
 BYTE   N06
 BYTE   W06
 BYTE   Cs4
 BYTE   W06
// 021   ----------------------------------------
 BYTE   Cs4
 BYTE   W96
// 022   ----------------------------------------
 BYTE   W96
// 023   ----------------------------------------
 BYTE   W96
// 024   ----------------------------------------
 BYTE   W96
// 025   ----------------------------------------
 BYTE   W96
// 026   ----------------------------------------
 BYTE   W96
// 027   ----------------------------------------
 BYTE   W96
// 028   ----------------------------------------
 BYTE   W96
// 029   ----------------------------------------
 BYTE   W96
// 030   ----------------------------------------
 BYTE   W96
// 031   ----------------------------------------
 BYTE   W96
// 032   ----------------------------------------
 BYTE   W96
// 033   ----------------------------------------
 BYTE   W96
// 034   ----------------------------------------
 BYTE   W96
// 035   ----------------------------------------
 BYTE   W36
 BYTE   PEND 
 BYTE   PATT
  POIN2 Label_2_012012A8
 BYTE   PATT
  POIN2 Label_2_012012A8
 BYTE   PATT
  POIN2 Label_2_012012A8
 BYTE   PATT
  POIN2 Label_2_012012A8
 BYTE   PATT
  POIN2 Label_2_012012A8
 BYTE   PATT
  POIN2 Label_2_012012A8
 BYTE   PATT
  POIN2 Label_2_012012A8
 BYTE   PATT
  POIN2 Label_2_012012A8
 BYTE   PATT
  POIN2 Label_2_012012A8
// 036   ----------------------------------------
 BYTE   N06  Cs4  v127
 BYTE   W36
 BYTE   N04
 BYTE   W06
 BYTE   Cs4
 BYTE   W06
 BYTE   N06
 BYTE   W06
 BYTE   Cs4
 BYTE   W06
 BYTE   Cs4
 BYTE   W96
// 037   ----------------------------------------
 BYTE   W96
// 038   ----------------------------------------
 BYTE   W96
// 039   ----------------------------------------
 BYTE   W96
// 040   ----------------------------------------
 BYTE   W36
 BYTE   PATT
  POIN2 Label_2_012012A8
 BYTE   PATT
  POIN2 Label_2_012012A8
 BYTE   PATT
  POIN2 Label_2_012012A8
 BYTE   PATT
  POIN2 Label_2_012012A8
 BYTE   PATT
  POIN2 Label_2_012012A8
 BYTE   PATT
  POIN2 Label_2_012012A8
 BYTE   PATT
  POIN2 Label_2_012012A8
 BYTE   PATT
  POIN2 Label_2_012012B7
// 041   ----------------------------------------
 BYTE   GoTo
  POIN2 Label_2_012011D8
 BYTE   FINE

//**************** Track 4 (Midi-Chn.3) ****************//

KirbyandtheAmazingMirrorRadishRuinsPandan_004:
// 000   ----------------------------------------
Label_3_01201344:
 BYTE   TEMPO   136*KirbyandtheAmazingMirrorRadishRuinsPandan_tbs/2
 BYTE   KEYSH   KirbyandtheAmazingMirrorRadishRuinsPandan_key+0
 BYTE   VOL   35*KirbyandtheAmazingMirrorRadishRuinsPandan_mvl/mxv
 BYTE   PAN   c_v+0
 BYTE   VOICE   61
 BYTE   N06  Cs5  v110
 BYTE   W36
 BYTE   N04
 BYTE   W06
 BYTE   N04
 BYTE   W06
 BYTE   N06
 BYTE   W06
 BYTE   N06
 BYTE   W06
 BYTE   N06
 BYTE   W36
// 001   ----------------------------------------
 BYTE   N06
 BYTE   W36
 BYTE   N04
 BYTE   W06
 BYTE   N04
 BYTE   W06
 BYTE   N06
 BYTE   W06
 BYTE   N06
 BYTE   W06
 BYTE   N06
 BYTE   W36
// 002   ----------------------------------------
 BYTE   N06
 BYTE   W36
 BYTE   N04
 BYTE   W06
 BYTE   N04
 BYTE   W06
 BYTE   N06
 BYTE   W06
 BYTE   N06
 BYTE   W06
 BYTE   N06
 BYTE   W36
// 003   ----------------------------------------
 BYTE   N06
 BYTE   W36
 BYTE   N04
 BYTE   W06
 BYTE   N04
 BYTE   W06
 BYTE   N06
 BYTE   W06
 BYTE   N06
 BYTE   W06
 BYTE   N06
 BYTE   W36
// 004   ----------------------------------------
 BYTE   N06
 BYTE   W36
 BYTE   N04
 BYTE   W06
 BYTE   N04
 BYTE   W06
 BYTE   N06
 BYTE   W06
 BYTE   N06
 BYTE   W06
 BYTE   N06
 BYTE   W36
// 005   ----------------------------------------
 BYTE   N06
 BYTE   W36
 BYTE   N04
 BYTE   W06
 BYTE   N04
 BYTE   W06
 BYTE   N06
 BYTE   W06
 BYTE   N06
 BYTE   W06
 BYTE   N06
 BYTE   W36
// 006   ----------------------------------------
 BYTE   N06
 BYTE   W36
 BYTE   N04
 BYTE   W06
 BYTE   N04
 BYTE   W06
 BYTE   N06
 BYTE   W06
 BYTE   N06
 BYTE   W06
 BYTE   N06
 BYTE   W36
// 007   ----------------------------------------
 BYTE   N06
 BYTE   W36
 BYTE   N04
 BYTE   W06
 BYTE   N04
 BYTE   W06
 BYTE   N06
 BYTE   W06
 BYTE   N06
 BYTE   W06
 BYTE   N06
 BYTE   W36
// 008   ----------------------------------------
 BYTE   N06
 BYTE   W36
 BYTE   N04
 BYTE   W06
 BYTE   N04
 BYTE   W06
 BYTE   N06
 BYTE   W06
 BYTE   N06
 BYTE   W06
 BYTE   N06
 BYTE   W36
// 009   ----------------------------------------
 BYTE   N06
 BYTE   W36
 BYTE   N04
 BYTE   W06
 BYTE   N04
 BYTE   W06
 BYTE   N06
 BYTE   W06
 BYTE   N06
 BYTE   W06
 BYTE   N06
 BYTE   W96
// 010   ----------------------------------------
 BYTE   W96
// 011   ----------------------------------------
 BYTE   W96
// 012   ----------------------------------------
 BYTE   W96
// 013   ----------------------------------------
 BYTE   W36
 BYTE   N06
 BYTE   W36
 BYTE   N04
 BYTE   W06
 BYTE   N04
 BYTE   W06
 BYTE   N06
 BYTE   W06
 BYTE   N06
 BYTE   W06
// 014   ----------------------------------------
 BYTE   N06
 BYTE   W36
 BYTE   N06
 BYTE   W36
 BYTE   N04
 BYTE   W06
 BYTE   N04
 BYTE   W06
 BYTE   N06
 BYTE   W06
 BYTE   N06
 BYTE   W06
// 015   ----------------------------------------
 BYTE   N06
 BYTE   W36
 BYTE   N06
 BYTE   W36
 BYTE   N04
 BYTE   W06
 BYTE   N04
 BYTE   W06
 BYTE   N06
 BYTE   W06
 BYTE   N06
 BYTE   W06
// 016   ----------------------------------------
 BYTE   N06
 BYTE   W36
 BYTE   N06
 BYTE   W36
 BYTE   N04
 BYTE   W06
 BYTE   N04
 BYTE   W06
 BYTE   N06
 BYTE   W06
 BYTE   N06
 BYTE   W06
// 017   ----------------------------------------
 BYTE   N06
 BYTE   W36
 BYTE   N06
 BYTE   W36
 BYTE   N04
 BYTE   W06
 BYTE   N04
 BYTE   W06
 BYTE   N06
 BYTE   W06
 BYTE   N06
 BYTE   W06
// 018   ----------------------------------------
 BYTE   N06
 BYTE   W36
 BYTE   N06
 BYTE   W36
 BYTE   N04
 BYTE   W06
 BYTE   Cs5
 BYTE   W06
 BYTE   N06
 BYTE   W06
 BYTE   Cs5
 BYTE   W06
// 019   ----------------------------------------
 BYTE   Cs5
 BYTE   W36
Label_3_01201414:
 BYTE   N06  Cs5  v110
 BYTE   W36
 BYTE   N04
 BYTE   W06
 BYTE   Cs5
 BYTE   W06
 BYTE   N06
 BYTE   W06
 BYTE   Cs5
 BYTE   W06
// 020   ----------------------------------------
 BYTE   Cs5
 BYTE   W36
 BYTE   PEND 
Label_3_01201423:
 BYTE   N06  Cs5  v110
 BYTE   W36
 BYTE   N04
 BYTE   W06
 BYTE   Cs5
 BYTE   W06
 BYTE   N06
 BYTE   W06
 BYTE   Cs5
 BYTE   W06
// 021   ----------------------------------------
 BYTE   Cs5
 BYTE   W96
// 022   ----------------------------------------
 BYTE   W96
// 023   ----------------------------------------
 BYTE   W96
// 024   ----------------------------------------
 BYTE   W96
// 025   ----------------------------------------
 BYTE   W96
// 026   ----------------------------------------
 BYTE   W96
// 027   ----------------------------------------
 BYTE   W96
// 028   ----------------------------------------
 BYTE   W96
// 029   ----------------------------------------
 BYTE   W96
// 030   ----------------------------------------
 BYTE   W96
// 031   ----------------------------------------
 BYTE   W96
// 032   ----------------------------------------
 BYTE   W96
// 033   ----------------------------------------
 BYTE   W96
// 034   ----------------------------------------
 BYTE   W96
// 035   ----------------------------------------
 BYTE   W36
 BYTE   PEND 
 BYTE   PATT
  POIN2 Label_3_01201414
 BYTE   PATT
  POIN2 Label_3_01201414
 BYTE   PATT
  POIN2 Label_3_01201414
 BYTE   PATT
  POIN2 Label_3_01201414
 BYTE   PATT
  POIN2 Label_3_01201414
 BYTE   PATT
  POIN2 Label_3_01201414
 BYTE   PATT
  POIN2 Label_3_01201414
 BYTE   PATT
  POIN2 Label_3_01201414
 BYTE   PATT
  POIN2 Label_3_01201414
// 036   ----------------------------------------
 BYTE   N06  Cs5  v110
 BYTE   W36
 BYTE   N04
 BYTE   W06
 BYTE   Cs5
 BYTE   W06
 BYTE   N06
 BYTE   W06
 BYTE   Cs5
 BYTE   W06
 BYTE   Cs5
 BYTE   W96
// 037   ----------------------------------------
 BYTE   W96
// 038   ----------------------------------------
 BYTE   W96
// 039   ----------------------------------------
 BYTE   W96
// 040   ----------------------------------------
 BYTE   W36
 BYTE   PATT
  POIN2 Label_3_01201414
 BYTE   PATT
  POIN2 Label_3_01201414
 BYTE   PATT
  POIN2 Label_3_01201414
 BYTE   PATT
  POIN2 Label_3_01201414
 BYTE   PATT
  POIN2 Label_3_01201414
 BYTE   PATT
  POIN2 Label_3_01201414
 BYTE   PATT
  POIN2 Label_3_01201414
 BYTE   PATT
  POIN2 Label_3_01201423
// 041   ----------------------------------------
 BYTE   GoTo
  POIN2 Label_3_01201344
 BYTE   FINE

//**************** Track 5 (Midi-Chn.4) ****************//

KirbyandtheAmazingMirrorRadishRuinsPandan_005:
// 000   ----------------------------------------
Label_4_012014B0:
 BYTE   TEMPO   136*KirbyandtheAmazingMirrorRadishRuinsPandan_tbs/2
 BYTE   KEYSH   KirbyandtheAmazingMirrorRadishRuinsPandan_key+0
 BYTE   VOL   50*KirbyandtheAmazingMirrorRadishRuinsPandan_mvl/mxv
 BYTE   PAN   c_v+10
 BYTE   VOICE   56
 BYTE   W96
// 001   ----------------------------------------
 BYTE   W96
// 002   ----------------------------------------
 BYTE   N05  Cs3  v120
 BYTE   W06
 BYTE   N06  Fs3
 BYTE   W06
 BYTE   N06  Gs3
 BYTE   W12
 BYTE   N12  Bn3
 BYTE   W12
 BYTE   N06  Cs4
 BYTE   W12
 BYTE   N12  Bn3
 BYTE   W12
 BYTE   N06  As3
 BYTE   W12
 BYTE   N06  Gs3
 BYTE   W12
 BYTE   N06  Fs3
 BYTE   W12
// 003   ----------------------------------------
 BYTE   N12  Fn3
 BYTE   W12
 BYTE   N06  Fs3
 BYTE   W12
 BYTE   N64  Gs3
 BYTE   W03
 BYTE   N01
 BYTE   W68
 BYTE   N06  Cs3
 BYTE   W06
// 004   ----------------------------------------
 BYTE   N06  Fs3
 BYTE   W06
 BYTE   N06  Gs3
 BYTE   W12
 BYTE   N12  As3
 BYTE   W12
 BYTE   N06  Bn3
 BYTE   W12
 BYTE   N12  Cs4
 BYTE   W12
 BYTE   N06  Ds4
 BYTE   W12
 BYTE   N06  Fn4
 BYTE   W12
 BYTE   N06  Fs4
 BYTE   W12
 BYTE   N06  Fn4
 BYTE   W06
// 005   ----------------------------------------
 BYTE   N06  Fs4
 BYTE   W06
 BYTE   N06  Gs4
 BYTE   W12
 BYTE   N64  Cs4
 BYTE   W03
 BYTE   N01
 BYTE   W68
 BYTE   N05  Cs3
 BYTE   W06
 BYTE   N06  Fs3
 BYTE   W06
// 006   ----------------------------------------
 BYTE   N06  Gs3
 BYTE   W12
 BYTE   N12  Bn3
 BYTE   W12
 BYTE   N06  Cs4
 BYTE   W12
 BYTE   N12  Bn3
 BYTE   W12
 BYTE   N06  As3
 BYTE   W12
 BYTE   N06  Gs3
 BYTE   W12
 BYTE   N06  Fs3
 BYTE   W12
 BYTE   N12  Fn3
 BYTE   W12
// 007   ----------------------------------------
 BYTE   N06  Fs3
 BYTE   W12
 BYTE   N64  Gs3
 BYTE   W03
 BYTE   N01
 BYTE   W68
 BYTE   N06  Cs3
 BYTE   W06
 BYTE   N06  Fs3
 BYTE   W06
 BYTE   N06  Gs3
 BYTE   W12
// 008   ----------------------------------------
 BYTE   N12  As3
 BYTE   W12
 BYTE   N06  Bn3
 BYTE   W12
 BYTE   N12  Cs4
 BYTE   W12
 BYTE   N06  Ds4
 BYTE   W12
 BYTE   N06  Fn4
 BYTE   W12
 BYTE   N06  Fs4
 BYTE   W12
 BYTE   N06  Fn4
 BYTE   W06
 BYTE   N06  Fs4
 BYTE   W06
 BYTE   N06  Gs4
 BYTE   W12
// 009   ----------------------------------------
 BYTE   N64  Cs4
 BYTE   W03
 BYTE   N01
 BYTE   W96
// 010   ----------------------------------------
 BYTE   W96
// 011   ----------------------------------------
 BYTE   W96
// 012   ----------------------------------------
 BYTE   W96
// 013   ----------------------------------------
 BYTE   W96
// 014   ----------------------------------------
 BYTE   W96
// 015   ----------------------------------------
 BYTE   W96
// 016   ----------------------------------------
 BYTE   W96
// 017   ----------------------------------------
 BYTE   W96
// 018   ----------------------------------------
 BYTE   W96
// 019   ----------------------------------------
 BYTE   W96
// 020   ----------------------------------------
 BYTE   W96
// 021   ----------------------------------------
 BYTE   W96
// 022   ----------------------------------------
 BYTE   W96
// 023   ----------------------------------------
 BYTE   W96
// 024   ----------------------------------------
 BYTE   W96
// 025   ----------------------------------------
 BYTE   W68
Label_4_0120156B:
 BYTE   N08  Cs4  v120
 BYTE   W08
 BYTE   N04  Gs3
 BYTE   W08
 BYTE   Cs4
 BYTE   W08
 BYTE   N42  Gs3
 BYTE   W02
 BYTE   N01
 BYTE   W44
// 026   ----------------------------------------
 BYTE   W01
 BYTE   N20  Cs4
 BYTE   W24
 BYTE   PEND 
Label_4_0120157E:
 BYTE   N20  Bn3  v120
 BYTE   W24
 BYTE   As3
 BYTE   W24
 BYTE   Gs3
 BYTE   W24
// 027   ----------------------------------------
 BYTE   Fs3
 BYTE   W24
 BYTE   PEND 
 BYTE   PATT
  POIN2 Label_4_0120156B
// 028   ----------------------------------------
Label_4_0120158E:
 BYTE   N20  Bn3  v120
 BYTE   W24
 BYTE   Fs3
 BYTE   W24
 BYTE   Ds4
 BYTE   W24
 BYTE   Bn3
 BYTE   W24
 BYTE   PEND 
// 029   ----------------------------------------
Label_4_01201599:
 BYTE   N08  Gs4  v120
 BYTE   W08
 BYTE   N04  Fn4
 BYTE   W08
 BYTE   Gs4
 BYTE   W08
 BYTE   N42  Fn4
 BYTE   W02
 BYTE   N01
 BYTE   W44
 BYTE   W01
 BYTE   N20  Gs4
 BYTE   W24
 BYTE   PEND 
Label_4_012015AC:
 BYTE   N20  Fs4  v120
 BYTE   W24
// 030   ----------------------------------------
 BYTE   Fn4
 BYTE   W24
 BYTE   Ds4
 BYTE   W24
 BYTE   Fs4
 BYTE   W24
 BYTE   PEND 
 BYTE   PATT
  POIN2 Label_4_01201599
// 031   ----------------------------------------
Label_4_012015BC:
 BYTE   N20  Fs4  v120
 BYTE   W24
 BYTE   Gs4
 BYTE   W24
 BYTE   As4
 BYTE   W24
 BYTE   Fs4
 BYTE   W24
 BYTE   PEND 
// 032   ----------------------------------------
Label_4_012015C7:
 BYTE   N68  Fn4  v120
 BYTE   W03
 BYTE   N01
 BYTE   W76
 BYTE   N04  Cs4
 BYTE   W08
 BYTE   Fn4
 BYTE   W08
 BYTE   PEND 
 BYTE   N68  Gs4  v120
 BYTE   W03
// 033   ----------------------------------------
 BYTE   N01
 BYTE   W96
// 034   ----------------------------------------
 BYTE   W96
// 035   ----------------------------------------
 BYTE   W92
Label_4_012015DB:
 BYTE   N05  Cs3  v120
 BYTE   W06
// 036   ----------------------------------------
 BYTE   N06  Fs3
 BYTE   W06
 BYTE   Gs3
 BYTE   W12
 BYTE   N12  Bn3
 BYTE   W12
 BYTE   N06  Cs4
 BYTE   W12
 BYTE   N12  Bn3
 BYTE   W12
 BYTE   N06  As3
 BYTE   W12
 BYTE   Gs3
 BYTE   W12
 BYTE   Fs3
 BYTE   W12
 BYTE   PEND 
Label_4_012015F5:
 BYTE   N12  Fn3  v120
 BYTE   W12
// 037   ----------------------------------------
 BYTE   N06  Fs3
 BYTE   W12
 BYTE   N64  Gs3
 BYTE   W03
 BYTE   N01
 BYTE   W68
 BYTE   PEND 
Label_4_01201602:
 BYTE   N06  Cs3  v120
 BYTE   W06
 BYTE   Fs3
 BYTE   W06
 BYTE   Gs3
 BYTE   W12
// 038   ----------------------------------------
 BYTE   N12  As3
 BYTE   W12
 BYTE   N06  Bn3
 BYTE   W12
 BYTE   N12  Cs4
 BYTE   W12
 BYTE   N06  Ds4
 BYTE   W12
 BYTE   Fn4
 BYTE   W12
 BYTE   Fs4
 BYTE   W12
 BYTE   PEND 
 BYTE   N06  Fn4  v120
 BYTE   W06
 BYTE   Fs4
 BYTE   W06
 BYTE   Gs4
 BYTE   W12
// 039   ----------------------------------------
 BYTE   N64  Cs4
 BYTE   W03
 BYTE   N01
 BYTE   W68
 BYTE   PATT
  POIN2 Label_4_012015DB
 BYTE   PATT
  POIN2 Label_4_012015F5
 BYTE   PATT
  POIN2 Label_4_01201602
// 040   ----------------------------------------
 BYTE   N06  Fn4  v120
 BYTE   W06
 BYTE   Fs4
 BYTE   W06
 BYTE   Gs4
 BYTE   W12
 BYTE   N64  Cs4
 BYTE   W03
 BYTE   N01
 BYTE   W96
// 041   ----------------------------------------
 BYTE   W96
// 042   ----------------------------------------
 BYTE   W96
// 043   ----------------------------------------
 BYTE   W96
// 044   ----------------------------------------
 BYTE   W96
// 045   ----------------------------------------
 BYTE   W96
// 046   ----------------------------------------
 BYTE   W96
// 047   ----------------------------------------
 BYTE   W96
// 048   ----------------------------------------
 BYTE   W96
// 049   ----------------------------------------
 BYTE   W96
// 050   ----------------------------------------
 BYTE   W96
// 051   ----------------------------------------
 BYTE   W96
// 052   ----------------------------------------
 BYTE   W96
// 053   ----------------------------------------
 BYTE   W96
// 054   ----------------------------------------
 BYTE   W96
// 055   ----------------------------------------
 BYTE   W96
// 056   ----------------------------------------
 BYTE   W68
 BYTE   PATT
  POIN2 Label_4_0120156B
 BYTE   PATT
  POIN2 Label_4_0120157E
 BYTE   PATT
  POIN2 Label_4_0120156B
 BYTE   PATT
  POIN2 Label_4_0120158E
 BYTE   PATT
  POIN2 Label_4_01201599
 BYTE   PATT
  POIN2 Label_4_012015AC
 BYTE   PATT
  POIN2 Label_4_01201599
 BYTE   PATT
  POIN2 Label_4_012015BC
 BYTE   PATT
  POIN2 Label_4_012015C7
// 057   ----------------------------------------
 BYTE   N68  Gs4  v120
 BYTE   W03
 BYTE   N01
 BYTE   W80
 BYTE   GoTo
  POIN2 Label_4_012014B0
 BYTE   FINE

//**************** Track 6 (Midi-Chn.5) ****************//

KirbyandtheAmazingMirrorRadishRuinsPandan_006:
// 000   ----------------------------------------
Label_5_01201690:
 BYTE   TEMPO   136*KirbyandtheAmazingMirrorRadishRuinsPandan_tbs/2
 BYTE   KEYSH   KirbyandtheAmazingMirrorRadishRuinsPandan_key+0
 BYTE   VOL   45*KirbyandtheAmazingMirrorRadishRuinsPandan_mvl/mxv
 BYTE   PAN   c_v+0
 BYTE   VOICE   75
 BYTE   W96
// 001   ----------------------------------------
 BYTE   W96
// 002   ----------------------------------------
 BYTE   W96
// 003   ----------------------------------------
 BYTE   W96
// 004   ----------------------------------------
 BYTE   W96
// 005   ----------------------------------------
 BYTE   W96
// 006   ----------------------------------------
 BYTE   W96
// 007   ----------------------------------------
 BYTE   W96
// 008   ----------------------------------------
 BYTE   W96
// 009   ----------------------------------------
 BYTE   W96
// 010   ----------------------------------------
 BYTE   N06  Cs4  v100
 BYTE   W06
 BYTE   N06  Fs4
 BYTE   W06
 BYTE   N04  Gs4
 BYTE   W12
 BYTE   N12  Bn4
 BYTE   W12
 BYTE   N04  As4
 BYTE   W12
 BYTE   N12  Gs4
 BYTE   W12
 BYTE   N04  Fs4
 BYTE   W12
 BYTE   N06  Fn4
 BYTE   W06
 BYTE   N06  Fs4
 BYTE   W06
 BYTE   N04  Gs4
 BYTE   W12
// 011   ----------------------------------------
 BYTE   N06  Cs4
 BYTE   W06
 BYTE   N06  Fs4
 BYTE   W06
 BYTE   N04  Gs4
 BYTE   W12
 BYTE   N12  Bn4
 BYTE   W12
 BYTE   N04  Cs5
 BYTE   W12
 BYTE   N12  Ds5
 BYTE   W12
 BYTE   N04  Cs5
 BYTE   W12
 BYTE   N04  Bn4
 BYTE   W12
 BYTE   N04  Ds5
 BYTE   W12
// 012   ----------------------------------------
 BYTE   N06  Cs4
 BYTE   W06
 BYTE   N06  Fs4
 BYTE   W06
 BYTE   N04  Gs4
 BYTE   W12
 BYTE   N12  Bn4
 BYTE   W12
 BYTE   N04  As4
 BYTE   W12
 BYTE   N12  Gs4
 BYTE   W12
 BYTE   N04  Fs4
 BYTE   W12
 BYTE   N06  Fn4
 BYTE   W06
 BYTE   N06  Fs4
 BYTE   W06
 BYTE   N04  Gs4
 BYTE   W12
// 013   ----------------------------------------
 BYTE   N06  Cs4
 BYTE   W06
 BYTE   N06  Fs4
 BYTE   W06
 BYTE   N04  Gs4
 BYTE   W12
 BYTE   N12  Bn4
 BYTE   W12
 BYTE   N04  Cs5
 BYTE   W12
 BYTE   N12  Ds5
 BYTE   W12
 BYTE   N04  Cs5
 BYTE   W12
 BYTE   N04  Bn4
 BYTE   W12
 BYTE   N04  Ds5
 BYTE   W96
// 014   ----------------------------------------
 BYTE   W96
// 015   ----------------------------------------
 BYTE   W96
// 016   ----------------------------------------
 BYTE   W96
// 017   ----------------------------------------
 BYTE   W96
// 018   ----------------------------------------
 BYTE   W96
// 019   ----------------------------------------
 BYTE   W96
// 020   ----------------------------------------
 BYTE   W96
// 021   ----------------------------------------
 BYTE   W12
Label_5_0120171F:
 BYTE   N06  Cs4  v100
 BYTE   W06
 BYTE   Fs4
 BYTE   W06
 BYTE   N04  Gs4
 BYTE   W12
 BYTE   N12  Bn4
 BYTE   W12
 BYTE   N04  As4
 BYTE   W12
 BYTE   N12  Gs4
 BYTE   W12
 BYTE   N04  Fs4
 BYTE   W12
 BYTE   N06  Fn4
 BYTE   W06
 BYTE   Fs4
 BYTE   W06
// 022   ----------------------------------------
 BYTE   N04  Gs4
 BYTE   W12
 BYTE   PEND 
Label_5_0120173D:
 BYTE   N06  Cs4  v100
 BYTE   W06
 BYTE   Fs4
 BYTE   W06
 BYTE   N04  Gs4
 BYTE   W12
 BYTE   N12  Bn4
 BYTE   W12
 BYTE   N04  Cs5
 BYTE   W12
 BYTE   N12  Ds5
 BYTE   W12
 BYTE   N04  Cs5
 BYTE   W12
 BYTE   Bn4
 BYTE   W12
// 023   ----------------------------------------
 BYTE   Ds5
 BYTE   W12
 BYTE   PEND 
 BYTE   PATT
  POIN2 Label_5_0120171F
// 024   ----------------------------------------
 BYTE   N06  Cs4  v100
 BYTE   W06
 BYTE   Fs4
 BYTE   W06
 BYTE   N04  Gs4
 BYTE   W12
 BYTE   N12  Bn4
 BYTE   W12
 BYTE   N04  Cs5
 BYTE   W12
 BYTE   N12  Ds5
 BYTE   W12
 BYTE   N04  Cs5
 BYTE   W12
 BYTE   Bn4
 BYTE   W12
 BYTE   Ds5
 BYTE   W96
// 025   ----------------------------------------
 BYTE   W96
// 026   ----------------------------------------
 BYTE   W96
// 027   ----------------------------------------
 BYTE   W96
// 028   ----------------------------------------
 BYTE   W96
// 029   ----------------------------------------
 BYTE   W96
// 030   ----------------------------------------
 BYTE   W96
// 031   ----------------------------------------
 BYTE   W96
// 032   ----------------------------------------
 BYTE   W96
// 033   ----------------------------------------
 BYTE   W96
// 034   ----------------------------------------
 BYTE   W96
// 035   ----------------------------------------
 BYTE   W96
// 036   ----------------------------------------
 BYTE   W96
// 037   ----------------------------------------
 BYTE   W96
// 038   ----------------------------------------
 BYTE   W96
// 039   ----------------------------------------
 BYTE   W96
// 040   ----------------------------------------
 BYTE   W96
// 041   ----------------------------------------
 BYTE   W96
// 042   ----------------------------------------
 BYTE   W96
// 043   ----------------------------------------
 BYTE   W96
// 044   ----------------------------------------
 BYTE   W12
 BYTE   PATT
  POIN2 Label_5_0120171F
 BYTE   PATT
  POIN2 Label_5_0120173D
 BYTE   PATT
  POIN2 Label_5_0120171F
// 045   ----------------------------------------
 BYTE   N06  Cs4  v100
 BYTE   W06
 BYTE   Fs4
 BYTE   W06
 BYTE   N04  Gs4
 BYTE   W12
 BYTE   N12  Bn4
 BYTE   W12
 BYTE   N04  Cs5
 BYTE   W12
 BYTE   N12  Ds5
 BYTE   W12
 BYTE   N04  Cs5
 BYTE   W12
 BYTE   Bn4
 BYTE   W12
 BYTE   Ds5
 BYTE   W96
// 046   ----------------------------------------
 BYTE   W96
// 047   ----------------------------------------
 BYTE   W96
// 048   ----------------------------------------
 BYTE   W96
// 049   ----------------------------------------
 BYTE   W96
// 050   ----------------------------------------
 BYTE   W96
// 051   ----------------------------------------
 BYTE   W96
// 052   ----------------------------------------
 BYTE   W96
// 053   ----------------------------------------
 BYTE   W12
 BYTE   PATT
  POIN2 Label_5_0120171F
 BYTE   PATT
  POIN2 Label_5_0120173D
 BYTE   PATT
  POIN2 Label_5_0120171F
// 054   ----------------------------------------
 BYTE   N06  Cs4  v100
 BYTE   W06
 BYTE   Fs4
 BYTE   W06
 BYTE   N04  Gs4
 BYTE   W12
 BYTE   N12  Bn4
 BYTE   W12
 BYTE   N04  Cs5
 BYTE   W12
 BYTE   N12  Ds5
 BYTE   W12
 BYTE   N04  Cs5
 BYTE   W12
 BYTE   Bn4
 BYTE   W12
 BYTE   Ds5
 BYTE   W96
// 055   ----------------------------------------
 BYTE   W96
// 056   ----------------------------------------
 BYTE   W96
// 057   ----------------------------------------
 BYTE   W96
// 058   ----------------------------------------
 BYTE   W96
// 059   ----------------------------------------
 BYTE   W96
// 060   ----------------------------------------
 BYTE   W96
// 061   ----------------------------------------
 BYTE   W96
// 062   ----------------------------------------
 BYTE   W96
// 063   ----------------------------------------
 BYTE   W96
// 064   ----------------------------------------
 BYTE   GoTo
  POIN2 Label_5_01201690
 BYTE   FINE

//**************** Track 7 (Midi-Chn.6) ****************//

KirbyandtheAmazingMirrorRadishRuinsPandan_007:
// 000   ----------------------------------------
Label_6_012017F0:
 BYTE   TEMPO   136*KirbyandtheAmazingMirrorRadishRuinsPandan_tbs/2
 BYTE   KEYSH   KirbyandtheAmazingMirrorRadishRuinsPandan_key+0
 BYTE   VOL   45*KirbyandtheAmazingMirrorRadishRuinsPandan_mvl/mxv
 BYTE   PAN   c_v+10
 BYTE   VOICE   79
 BYTE   W96
// 001   ----------------------------------------
 BYTE   W96
// 002   ----------------------------------------
 BYTE   W96
// 003   ----------------------------------------
 BYTE   W96
// 004   ----------------------------------------
 BYTE   W96
// 005   ----------------------------------------
 BYTE   W96
// 006   ----------------------------------------
 BYTE   W96
// 007   ----------------------------------------
 BYTE   W96
// 008   ----------------------------------------
 BYTE   W96
// 009   ----------------------------------------
 BYTE   W96
// 010   ----------------------------------------
 BYTE   W96
// 011   ----------------------------------------
 BYTE   W96
// 012   ----------------------------------------
 BYTE   W96
// 013   ----------------------------------------
 BYTE   W96
// 014   ----------------------------------------
 BYTE   N06  Cs3  v100
 BYTE   W06
 BYTE   N07  Fs3
 BYTE   W06
 BYTE   N07  Gs3
 BYTE   W12
 BYTE   N13  Bn3
 BYTE   W12
 BYTE   N07  Cs4
 BYTE   W12
 BYTE   N13  Bn3
 BYTE   W12
 BYTE   N07  As3
 BYTE   W12
 BYTE   N07  Gs3
 BYTE   W12
 BYTE   N07  Fs3
 BYTE   W12
// 015   ----------------------------------------
 BYTE   N13  Fn3
 BYTE   W12
 BYTE   N07  Fs3
 BYTE   W12
 BYTE   N04  Gs3
 BYTE   W04
 BYTE   N04  Gs3  v088
 BYTE   W04
 BYTE   N04  Gs3  v084
 BYTE   W04
 BYTE   N04  Gs3  v080
 BYTE   W04
 BYTE   N04  Gs3  v076
 BYTE   W04
 BYTE   N04  Gs3  v068
 BYTE   W04
 BYTE   N04  Gs3  v064
 BYTE   W04
 BYTE   N04  Gs3  v060
 BYTE   W04
 BYTE   N04  Gs3  v056
 BYTE   W04
 BYTE   N04  Gs3  v048
 BYTE   W04
 BYTE   N04  Gs3  v044
 BYTE   W04
 BYTE   N04  Gs3  v040
 BYTE   W04
 BYTE   N04  Gs3  v036
 BYTE   W04
 BYTE   N04  Gs3  v028
 BYTE   W05
 BYTE   N04  Gs3  v020
 BYTE   W04
 BYTE   N04  Gs3  v016
 BYTE   W11
// 016   ----------------------------------------
 BYTE   N07  Cs3  v100
 BYTE   W06
 BYTE   N07  Fs3
 BYTE   W06
 BYTE   N07  Gs3
 BYTE   W12
 BYTE   N13  As3
 BYTE   W12
 BYTE   N07  Bn3
 BYTE   W12
 BYTE   N13  Cs4
 BYTE   W12
 BYTE   N07  Ds4
 BYTE   W12
 BYTE   N07  Fn4
 BYTE   W12
 BYTE   N07  Fs4
 BYTE   W12
// 017   ----------------------------------------
 BYTE   N07  Fn4
 BYTE   W06
 BYTE   N07  Fs4
 BYTE   W06
 BYTE   N07  Gs4
 BYTE   W12
 BYTE   N04  Cs4
 BYTE   W04
 BYTE   N04  Cs4  v088
 BYTE   W04
 BYTE   N04  Cs4  v084
 BYTE   W04
 BYTE   N04  Cs4  v080
 BYTE   W04
 BYTE   N04  Cs4  v076
 BYTE   W04
 BYTE   N04  Cs4  v068
 BYTE   W04
 BYTE   N04  Cs4  v064
 BYTE   W04
 BYTE   N04  Cs4  v060
 BYTE   W04
 BYTE   N04  Cs4  v056
 BYTE   W04
 BYTE   N04  Cs4  v048
 BYTE   W04
 BYTE   N04  Cs4  v044
 BYTE   W04
 BYTE   N04  Cs4  v040
 BYTE   W04
 BYTE   N04  Cs4  v036
 BYTE   W04
 BYTE   N04  Cs4  v028
 BYTE   W05
 BYTE   N04  Cs4  v020
 BYTE   W04
 BYTE   N04  Cs4  v016
 BYTE   W11
// 018   ----------------------------------------
 BYTE   N06  Cs3  v100
 BYTE   W06
 BYTE   N07  Fs3
 BYTE   W06
 BYTE   N07  Gs3
 BYTE   W12
 BYTE   N13  Bn3
 BYTE   W12
 BYTE   N07  Cs4
 BYTE   W12
 BYTE   N13  Bn3
 BYTE   W12
 BYTE   N07  As3
 BYTE   W12
 BYTE   N07  Gs3
 BYTE   W12
 BYTE   N07  Fs3
 BYTE   W12
// 019   ----------------------------------------
 BYTE   N13  Fn3
 BYTE   W12
 BYTE   N07  Fs3
 BYTE   W12
 BYTE   N04  Gs3
 BYTE   W04
 BYTE   Gs3  v088
 BYTE   W04
 BYTE   Gs3  v084
 BYTE   W04
 BYTE   Gs3  v080
 BYTE   W04
 BYTE   Gs3  v076
 BYTE   W04
 BYTE   Gs3  v068
 BYTE   W04
 BYTE   Gs3  v064
 BYTE   W04
 BYTE   Gs3  v060
 BYTE   W04
 BYTE   Gs3  v056
 BYTE   W04
 BYTE   Gs3  v048
 BYTE   W04
 BYTE   Gs3  v044
 BYTE   W04
 BYTE   Gs3  v040
 BYTE   W04
 BYTE   Gs3  v036
 BYTE   W04
 BYTE   Gs3  v028
 BYTE   W05
 BYTE   Gs3  v020
 BYTE   W04
 BYTE   Gs3  v016
 BYTE   W11
// 020   ----------------------------------------
Label_6_0120191F:
 BYTE   N07  Cs3  v100
 BYTE   W06
 BYTE   Fs3
 BYTE   W06
 BYTE   Gs3
 BYTE   W12
 BYTE   N13  As3
 BYTE   W12
 BYTE   N07  Bn3
 BYTE   W12
 BYTE   N13  Cs4
 BYTE   W12
 BYTE   N07  Ds4
 BYTE   W12
 BYTE   Fn4
 BYTE   W12
 BYTE   Fs4
 BYTE   W12
 BYTE   PEND 
// 021   ----------------------------------------
 BYTE   N07  Fn4  v100
 BYTE   W06
 BYTE   Fs4
 BYTE   W06
 BYTE   Gs4
 BYTE   W12
 BYTE   N04  Cs4
 BYTE   W04
 BYTE   Cs4  v088
 BYTE   W04
 BYTE   Cs4  v084
 BYTE   W04
 BYTE   Cs4  v080
 BYTE   W04
 BYTE   Cs4  v076
 BYTE   W04
 BYTE   Cs4  v068
 BYTE   W04
 BYTE   Cs4  v064
 BYTE   W04
 BYTE   Cs4  v060
 BYTE   W04
 BYTE   Cs4  v056
 BYTE   W04
 BYTE   Cs4  v048
 BYTE   W04
 BYTE   Cs4  v044
 BYTE   W04
 BYTE   Cs4  v040
 BYTE   W04
 BYTE   Cs4  v036
 BYTE   W04
 BYTE   Cs4  v028
 BYTE   W05
 BYTE   Cs4  v020
 BYTE   W04
 BYTE   Cs4  v016
 BYTE   W96
// 022   ----------------------------------------
 BYTE   W96
// 023   ----------------------------------------
 BYTE   W96
// 024   ----------------------------------------
 BYTE   W96
// 025   ----------------------------------------
 BYTE   W96
// 026   ----------------------------------------
 BYTE   W96
// 027   ----------------------------------------
 BYTE   W96
// 028   ----------------------------------------
 BYTE   W96
// 029   ----------------------------------------
 BYTE   W96
// 030   ----------------------------------------
 BYTE   W96
// 031   ----------------------------------------
 BYTE   W96
// 032   ----------------------------------------
 BYTE   W96
// 033   ----------------------------------------
 BYTE   W96
// 034   ----------------------------------------
 BYTE   W96
// 035   ----------------------------------------
 BYTE   W96
// 036   ----------------------------------------
 BYTE   W96
// 037   ----------------------------------------
 BYTE   W96
// 038   ----------------------------------------
 BYTE   W96
// 039   ----------------------------------------
 BYTE   W96
// 040   ----------------------------------------
 BYTE   W96
// 041   ----------------------------------------
 BYTE   W96
// 042   ----------------------------------------
 BYTE   W96
// 043   ----------------------------------------
 BYTE   W96
// 044   ----------------------------------------
 BYTE   W96
// 045   ----------------------------------------
 BYTE   W96
// 046   ----------------------------------------
 BYTE   W96
// 047   ----------------------------------------
 BYTE   W96
// 048   ----------------------------------------
 BYTE   W96
// 049   ----------------------------------------
 BYTE   W11
Label_6_0120198C:
 BYTE   N06  Cs3  v100
 BYTE   W06
 BYTE   N07  Fs3
 BYTE   W06
 BYTE   Gs3
 BYTE   W12
 BYTE   N13  Bn3
 BYTE   W12
 BYTE   N07  Cs4
 BYTE   W12
 BYTE   N13  Bn3
 BYTE   W12
 BYTE   N07  As3
 BYTE   W12
 BYTE   Gs3
 BYTE   W12
 BYTE   Fs3
 BYTE   W12
 BYTE   PEND 
// 050   ----------------------------------------
Label_6_012019A6:
 BYTE   N13  Fn3  v100
 BYTE   W12
 BYTE   N07  Fs3
 BYTE   W12
 BYTE   N04  Gs3
 BYTE   W04
 BYTE   Gs3  v088
 BYTE   W04
 BYTE   Gs3  v084
 BYTE   W04
 BYTE   Gs3  v080
 BYTE   W04
 BYTE   Gs3  v076
 BYTE   W04
 BYTE   Gs3  v068
 BYTE   W04
 BYTE   Gs3  v064
 BYTE   W04
 BYTE   Gs3  v060
 BYTE   W04
 BYTE   Gs3  v056
 BYTE   W04
 BYTE   Gs3  v048
 BYTE   W04
 BYTE   Gs3  v044
 BYTE   W04
 BYTE   Gs3  v040
 BYTE   W04
 BYTE   Gs3  v036
 BYTE   W04
 BYTE   Gs3  v028
 BYTE   W05
 BYTE   Gs3  v020
 BYTE   W04
 BYTE   Gs3  v016
 BYTE   W11
 BYTE   PEND 
 BYTE   PATT
  POIN2 Label_6_0120191F
// 051   ----------------------------------------
 BYTE   N07  Fn4  v100
 BYTE   W06
 BYTE   Fs4
 BYTE   W06
 BYTE   Gs4
 BYTE   W12
 BYTE   N04  Cs4
 BYTE   W04
 BYTE   Cs4  v088
 BYTE   W04
 BYTE   Cs4  v084
 BYTE   W04
 BYTE   Cs4  v080
 BYTE   W04
 BYTE   Cs4  v076
 BYTE   W04
 BYTE   Cs4  v068
 BYTE   W04
 BYTE   Cs4  v064
 BYTE   W04
 BYTE   Cs4  v060
 BYTE   W04
 BYTE   Cs4  v056
 BYTE   W04
 BYTE   Cs4  v048
 BYTE   W04
 BYTE   Cs4  v044
 BYTE   W04
 BYTE   Cs4  v040
 BYTE   W04
 BYTE   Cs4  v036
 BYTE   W04
 BYTE   Cs4  v028
 BYTE   W05
 BYTE   Cs4  v020
 BYTE   W04
 BYTE   Cs4  v016
 BYTE   W11
 BYTE   PATT
  POIN2 Label_6_0120198C
 BYTE   PATT
  POIN2 Label_6_012019A6
 BYTE   PATT
  POIN2 Label_6_0120191F
// 052   ----------------------------------------
 BYTE   N07  Fn4  v100
 BYTE   W06
 BYTE   Fs4
 BYTE   W06
 BYTE   Gs4
 BYTE   W12
 BYTE   N04  Cs4
 BYTE   W04
 BYTE   Cs4  v088
 BYTE   W04
 BYTE   Cs4  v084
 BYTE   W04
 BYTE   Cs4  v080
 BYTE   W04
 BYTE   Cs4  v076
 BYTE   W04
 BYTE   Cs4  v068
 BYTE   W04
 BYTE   Cs4  v064
 BYTE   W04
 BYTE   Cs4  v060
 BYTE   W04
 BYTE   Cs4  v056
 BYTE   W04
 BYTE   Cs4  v048
 BYTE   W04
 BYTE   Cs4  v044
 BYTE   W04
 BYTE   Cs4  v040
 BYTE   W04
 BYTE   Cs4  v036
 BYTE   W04
 BYTE   Cs4  v028
 BYTE   W05
 BYTE   Cs4  v020
 BYTE   W04
 BYTE   Cs4  v016
 BYTE   W96
// 053   ----------------------------------------
 BYTE   W96
// 054   ----------------------------------------
 BYTE   W96
// 055   ----------------------------------------
 BYTE   W96
// 056   ----------------------------------------
 BYTE   W96
// 057   ----------------------------------------
 BYTE   W96
// 058   ----------------------------------------
 BYTE   W96
// 059   ----------------------------------------
 BYTE   W96
// 060   ----------------------------------------
 BYTE   W96
// 061   ----------------------------------------
 BYTE   W96
// 062   ----------------------------------------
 BYTE   W96
// 063   ----------------------------------------
 BYTE   W96
// 064   ----------------------------------------
 BYTE   W96
// 065   ----------------------------------------
 BYTE   W92
 BYTE   W03
 BYTE   GoTo
  POIN2 Label_6_012017F0
 BYTE   FINE

//**************** Track 8 (Midi-Chn.7) ****************//

KirbyandtheAmazingMirrorRadishRuinsPandan_008:
// 000   ----------------------------------------
Label_7_01201A78:
 BYTE   TEMPO   136*KirbyandtheAmazingMirrorRadishRuinsPandan_tbs/2
 BYTE   KEYSH   KirbyandtheAmazingMirrorRadishRuinsPandan_key+0
 BYTE   VOL   35*KirbyandtheAmazingMirrorRadishRuinsPandan_mvl/mxv
 BYTE   PAN   c_v+0
 BYTE   VOICE   61
 BYTE   W96
// 001   ----------------------------------------
 BYTE   W96
// 002   ----------------------------------------
 BYTE   W96
// 003   ----------------------------------------
 BYTE   W96
// 004   ----------------------------------------
 BYTE   W96
// 005   ----------------------------------------
 BYTE   W96
// 006   ----------------------------------------
 BYTE   N05  Gs3  v120
 BYTE   W06
 BYTE   N06  Cs4
 BYTE   W06
 BYTE   N06  Ds4
 BYTE   W12
 BYTE   N12  Fs4
 BYTE   W12
 BYTE   N06  As4
 BYTE   W12
 BYTE   N12  Gs4
 BYTE   W12
 BYTE   N06  Fs4
 BYTE   W12
 BYTE   N06  Fn4
 BYTE   W12
 BYTE   N06  Ds4
 BYTE   W12
// 007   ----------------------------------------
 BYTE   N12  Cs4
 BYTE   W12
 BYTE   N06  Ds4
 BYTE   W12
 BYTE   N64  Fn4
 BYTE   W03
 BYTE   N01
 BYTE   W68
 BYTE   N06  Gs3
 BYTE   W06
// 008   ----------------------------------------
 BYTE   N06  Cs4
 BYTE   W06
 BYTE   N06  Ds4
 BYTE   W12
 BYTE   N12  Fs4
 BYTE   W12
 BYTE   N06  Gs4
 BYTE   W12
 BYTE   N12
 BYTE   W12
 BYTE   N06  Bn4
 BYTE   W12
 BYTE   N06  Cs5
 BYTE   W12
 BYTE   N06  Ds5
 BYTE   W12
 BYTE   N06  Cs5
 BYTE   W06
// 009   ----------------------------------------
 BYTE   N06  Ds5
 BYTE   W06
 BYTE   N06  Fn5
 BYTE   W12
 BYTE   N64  Gs4
 BYTE   W03
 BYTE   N01
 BYTE   W96
// 010   ----------------------------------------
 BYTE   W96
// 011   ----------------------------------------
 BYTE   W68
 BYTE   N06  Gs3
 BYTE   W06
 BYTE   N06  Ds4
 BYTE   W06
 BYTE   N04  Fn4
 BYTE   W12
 BYTE   N12  Gs4
 BYTE   W12
// 012   ----------------------------------------
 BYTE   N04  Fs4
 BYTE   W12
 BYTE   N12  Fn4
 BYTE   W12
 BYTE   N04  Ds4
 BYTE   W12
 BYTE   N06  Cs4
 BYTE   W06
 BYTE   N06  Ds4
 BYTE   W06
 BYTE   N04  Fn4
 BYTE   W12
 BYTE   N06  Gs3
 BYTE   W06
 BYTE   N06  Ds4
 BYTE   W06
 BYTE   N04  Fn4
 BYTE   W12
 BYTE   N12  Gs4
 BYTE   W12
// 013   ----------------------------------------
 BYTE   N04  As4
 BYTE   W12
 BYTE   N12  Bn4
 BYTE   W12
 BYTE   N04  As4
 BYTE   W12
 BYTE   N04  Gs4
 BYTE   W12
 BYTE   N04  Bn4
 BYTE   W96
// 014   ----------------------------------------
 BYTE   W96
// 015   ----------------------------------------
 BYTE   W96
// 016   ----------------------------------------
 BYTE   W96
// 017   ----------------------------------------
 BYTE   W12
 BYTE   N05  Gs3
 BYTE   W06
 BYTE   N06  Cs4
 BYTE   W06
 BYTE   N06  Ds4
 BYTE   W12
 BYTE   N12  Fs4
 BYTE   W12
 BYTE   N06  As4
 BYTE   W12
 BYTE   N12  Gs4
 BYTE   W12
 BYTE   N06  Fs4
 BYTE   W12
 BYTE   N06  Fn4
 BYTE   W12
// 018   ----------------------------------------
 BYTE   N06  Ds4
 BYTE   W12
 BYTE   N12  Cs4
 BYTE   W12
 BYTE   N06  Ds4
 BYTE   W12
 BYTE   N64  Fn4
 BYTE   W03
 BYTE   N01
 BYTE   W68
// 019   ----------------------------------------
Label_7_01201B3C:
 BYTE   N06  Gs3  v120
 BYTE   W06
 BYTE   Cs4
 BYTE   W06
 BYTE   Ds4
 BYTE   W12
 BYTE   N12  Fs4
 BYTE   W12
 BYTE   N06  Gs4
 BYTE   W12
 BYTE   N12
 BYTE   W12
 BYTE   N06  Bn4
 BYTE   W12
 BYTE   Cs5
 BYTE   W12
 BYTE   Ds5
 BYTE   W12
 BYTE   PEND 
// 020   ----------------------------------------
Label_7_01201B54:
 BYTE   N06  Cs5  v120
 BYTE   W06
 BYTE   Ds5
 BYTE   W06
 BYTE   Fn5
 BYTE   W12
 BYTE   N64  Gs4
 BYTE   W03
 BYTE   N01
 BYTE   W96
// 021   ----------------------------------------
 BYTE   W96
// 022   ----------------------------------------
 BYTE   W68
 BYTE   PEND 
Label_7_01201B64:
 BYTE   N06  Gs3  v120
 BYTE   W06
 BYTE   Ds4
 BYTE   W06
 BYTE   N04  Fn4
 BYTE   W12
 BYTE   N12  Gs4
 BYTE   W12
// 023   ----------------------------------------
 BYTE   N04  Fs4
 BYTE   W12
 BYTE   N12  Fn4
 BYTE   W12
 BYTE   N04  Ds4
 BYTE   W12
 BYTE   N06  Cs4
 BYTE   W06
 BYTE   Ds4
 BYTE   W06
 BYTE   N04  Fn4
 BYTE   W12
 BYTE   PEND 
Label_7_01201B82:
 BYTE   N06  Gs3  v120
 BYTE   W06
 BYTE   Ds4
 BYTE   W06
 BYTE   N04  Fn4
 BYTE   W12
 BYTE   N12  Gs4
 BYTE   W12
// 024   ----------------------------------------
 BYTE   N04  As4
 BYTE   W12
 BYTE   N12  Bn4
 BYTE   W12
 BYTE   N04  As4
 BYTE   W12
 BYTE   Gs4
 BYTE   W12
 BYTE   Bn4
 BYTE   W12
 BYTE   PEND 
Label_7_01201B9C:
 BYTE   N08  Fn4  v120
 BYTE   W08
 BYTE   N04  Cs4
 BYTE   W08
 BYTE   Fn4
 BYTE   W08
 BYTE   N42  Cs4
 BYTE   W02
 BYTE   N01
 BYTE   W44
// 025   ----------------------------------------
 BYTE   W01
 BYTE   N20  Fn4
 BYTE   W24
 BYTE   PEND 
Label_7_01201BAF:
 BYTE   N20  Ds4  v120
 BYTE   W24
 BYTE   Cs4
 BYTE   W24
 BYTE   Bn3
 BYTE   W24
// 026   ----------------------------------------
 BYTE   Ds4
 BYTE   W24
 BYTE   PEND 
 BYTE   PATT
  POIN2 Label_7_01201B9C
// 027   ----------------------------------------
Label_7_01201BBF:
 BYTE   N20  Ds4  v120
 BYTE   W24
 BYTE   Bn3
 BYTE   W24
 BYTE   Fs4
 BYTE   W24
 BYTE   Ds4
 BYTE   W24
 BYTE   PEND 
 BYTE   PATT
  POIN2 Label_7_01201B9C
 BYTE   PATT
  POIN2 Label_7_01201BAF
 BYTE   PATT
  POIN2 Label_7_01201B9C
// 028   ----------------------------------------
 BYTE   N20  Ds4  v120
 BYTE   W24
 BYTE   Fn4
 BYTE   W24
 BYTE   Fs4
 BYTE   W24
 BYTE   Cs4
 BYTE   W96
// 029   ----------------------------------------
 BYTE   W96
// 030   ----------------------------------------
 BYTE   W96
// 031   ----------------------------------------
 BYTE   W96
// 032   ----------------------------------------
 BYTE   W96
// 033   ----------------------------------------
 BYTE   W96
// 034   ----------------------------------------
 BYTE   W96
// 035   ----------------------------------------
 BYTE   W96
// 036   ----------------------------------------
 BYTE   W24
Label_7_01201BEB:
 BYTE   N05  Gs3  v120
 BYTE   W06
 BYTE   N06  Cs4
 BYTE   W06
 BYTE   Ds4
 BYTE   W12
 BYTE   N12  Fs4
 BYTE   W12
 BYTE   N06  As4
 BYTE   W12
 BYTE   N12  Gs4
 BYTE   W12
 BYTE   N06  Fs4
 BYTE   W12
// 037   ----------------------------------------
 BYTE   Fn4
 BYTE   W12
 BYTE   Ds4
 BYTE   W12
 BYTE   PEND 
Label_7_01201C05:
 BYTE   N12  Cs4  v120
 BYTE   W12
 BYTE   N06  Ds4
 BYTE   W12
 BYTE   N64  Fn4
 BYTE   W03
 BYTE   N01
 BYTE   W68
 BYTE   PEND 
 BYTE   PATT
  POIN2 Label_7_01201B3C
 BYTE   PATT
  POIN2 Label_7_01201B54
 BYTE   PATT
  POIN2 Label_7_01201B64
// 038   ----------------------------------------
 BYTE   N06  Gs3  v120
 BYTE   W06
 BYTE   Ds4
 BYTE   W06
 BYTE   N04  Fn4
 BYTE   W12
 BYTE   N12  Gs4
 BYTE   W12
 BYTE   N04  As4
 BYTE   W12
 BYTE   N12  Bn4
 BYTE   W12
 BYTE   N04  As4
 BYTE   W12
 BYTE   Gs4
 BYTE   W12
 BYTE   Bn4
 BYTE   W96
// 039   ----------------------------------------
 BYTE   W96
// 040   ----------------------------------------
 BYTE   W96
// 041   ----------------------------------------
 BYTE   W96
// 042   ----------------------------------------
 BYTE   W12
 BYTE   PATT
  POIN2 Label_7_01201BEB
 BYTE   PATT
  POIN2 Label_7_01201C05
 BYTE   PATT
  POIN2 Label_7_01201B3C
 BYTE   PATT
  POIN2 Label_7_01201B54
 BYTE   PATT
  POIN2 Label_7_01201B64
 BYTE   PATT
  POIN2 Label_7_01201B82
 BYTE   PATT
  POIN2 Label_7_01201B9C
 BYTE   PATT
  POIN2 Label_7_01201BAF
 BYTE   PATT
  POIN2 Label_7_01201B9C
 BYTE   PATT
  POIN2 Label_7_01201BBF
 BYTE   PATT
  POIN2 Label_7_01201B9C
 BYTE   PATT
  POIN2 Label_7_01201BAF
 BYTE   PATT
  POIN2 Label_7_01201B9C
// 043   ----------------------------------------
 BYTE   N20  Ds4  v120
 BYTE   W24
 BYTE   Fn4
 BYTE   W24
 BYTE   Fs4
 BYTE   W24
 BYTE   Cs4
 BYTE   W96
// 044   ----------------------------------------
 BYTE   W96
// 045   ----------------------------------------
 BYTE   W12
 BYTE   GoTo
  POIN2 Label_7_01201A78
 BYTE   FINE

//******************************************************//
	ALIGN 4

KirbyandtheAmazingMirrorRadishRuinsPandan:
	BYTE	8	// NumTrks
	BYTE	0	// NumBlks
	BYTE	KirbyandtheAmazingMirrorRadishRuinsPandan_pri	// Priority
	BYTE	KirbyandtheAmazingMirrorRadishRuinsPandan_rev	// Reverb.
    
	POIN2	KirbyandtheAmazingMirrorRadishRuinsPandan_grp
    
	POIN2	KirbyandtheAmazingMirrorRadishRuinsPandan_001
	POIN2	KirbyandtheAmazingMirrorRadishRuinsPandan_002
	POIN2	KirbyandtheAmazingMirrorRadishRuinsPandan_003
	POIN2	KirbyandtheAmazingMirrorRadishRuinsPandan_004
	POIN2	KirbyandtheAmazingMirrorRadishRuinsPandan_005
	POIN2	KirbyandtheAmazingMirrorRadishRuinsPandan_006
	POIN2	KirbyandtheAmazingMirrorRadishRuinsPandan_007
	POIN2	KirbyandtheAmazingMirrorRadishRuinsPandan_008

	
