//Event file generated from Sappy .s format.
	#include "MPlayDef.event"

	#define	KirbySuperStarUltraTheStrongestKnightintheGalaxyRSflame_grp  voicegroup000
	#define	KirbySuperStarUltraTheStrongestKnightintheGalaxyRSflame_pri  0
	#define	KirbySuperStarUltraTheStrongestKnightintheGalaxyRSflame_rev  0
	#define	KirbySuperStarUltraTheStrongestKnightintheGalaxyRSflame_mvl  127
	#define	KirbySuperStarUltraTheStrongestKnightintheGalaxyRSflame_key  0
	#define	KirbySuperStarUltraTheStrongestKnightintheGalaxyRSflame_tbs  1
	#define	KirbySuperStarUltraTheStrongestKnightintheGalaxyRSflame_exg  0
	#define	KirbySuperStarUltraTheStrongestKnightintheGalaxyRSflame_cmp  1

	// .rodata
	//	KirbySuperStarUltraTheStrongestKnightintheGalaxyRSflame
	ALIGN 4


//**************** Track 1 (Midi-Chn.0) ****************//

KirbySuperStarUltraTheStrongestKnightintheGalaxyRSflame_001:
// 000   ----------------------------------------
 BYTE   KEYSH   KirbySuperStarUltraTheStrongestKnightintheGalaxyRSflame_key+0
 BYTE   TEMPO   180*KirbySuperStarUltraTheStrongestKnightintheGalaxyRSflame_tbs/2
 BYTE   VOICE   38
 BYTE   VOL   61*KirbySuperStarUltraTheStrongestKnightintheGalaxyRSflame_mvl/mxv
 BYTE   W96
// 001   ----------------------------------------
 BYTE   W96
// 002   ----------------------------------------
 BYTE   W96
// 003   ----------------------------------------
 BYTE   W96
// 004   ----------------------------------------
 BYTE   W24
Label_0_01EA6999:
 BYTE   W72
// 005   ----------------------------------------
 BYTE   W96
// 006   ----------------------------------------
 BYTE   W96
// 007   ----------------------------------------
 BYTE   W96
// 008   ----------------------------------------
 BYTE   W96
// 009   ----------------------------------------
 BYTE   W96
// 010   ----------------------------------------
 BYTE   W96
// 011   ----------------------------------------
 BYTE   W96
// 012   ----------------------------------------
Label_0_01EA69A1:
 BYTE   W06
 BYTE   PAN   c_v+51
 BYTE   N32  An0  v084
 BYTE   W36
 BYTE   PAN   c_v-50
 BYTE   N44  Gn0
 BYTE   W54
 BYTE   PEND 
// 013   ----------------------------------------
Label_0_01EA69AE:
 BYTE   W18
 BYTE   PAN   c_v+50
 BYTE   N44  Gn0  v084
 BYTE   W60
 BYTE   PAN   c_v-53
 BYTE   N23  As0
 BYTE   W18
 BYTE   PEND 
// 014   ----------------------------------------
 BYTE   PATT
  POIN2 Label_0_01EA69A1
// 015   ----------------------------------------
 BYTE   PATT
  POIN2 Label_0_01EA69AE
// 016   ----------------------------------------
 BYTE   W06
 BYTE   PAN   c_v+51
 BYTE   W18
 BYTE   DnM1
 BYTE   W06
 BYTE   N23  An0  v084
 BYTE   W24
 BYTE   PAN   c_v+46
 BYTE   N23  Gn0
 BYTE   W42
// 017   ----------------------------------------
 BYTE   W18
 BYTE   PAN   c_v-46
 BYTE   N44
 BYTE   W60
 BYTE   PAN   c_v+48
 BYTE   N23  As0
 BYTE   W18
// 018   ----------------------------------------
 BYTE   W06
 BYTE   PAN   c_v+51
 BYTE   TIE  AsM1  v072
 BYTE   W90
// 019   ----------------------------------------
 BYTE   W96
// 020   ----------------------------------------
 BYTE   W05
 BYTE   EOT
 BYTE   W90
 BYTE   W01
// 021   ----------------------------------------
 BYTE   W96
// 022   ----------------------------------------
 BYTE   W96
// 023   ----------------------------------------
 BYTE   W96
// 024   ----------------------------------------
 BYTE   W06
 BYTE   MOD 0
 BYTE   CnM2
 BYTE   PAN   c_v+0
 BYTE   BEND   c_v-34
 BYTE   N66  An2  v100
 BYTE   W02
 BYTE   BEND   c_v-33
 BYTE   W01
 BYTE   Gn0
 BYTE   W01
 BYTE   Gs0
 BYTE   W01
 BYTE   An0
 BYTE   W01
 BYTE   An0
 BYTE   W01
 BYTE   As0
 BYTE   W01
 BYTE   As0
 BYTE   W01
 BYTE   Bn0
 BYTE   W01
 BYTE   Bn0
 BYTE   W01
 BYTE   Cn1
 BYTE   W01
 BYTE   Cs1
 BYTE   W01
 BYTE   Cs1
 BYTE   W01
 BYTE   Dn1
 BYTE   W01
 BYTE   Dn1
 BYTE   W01
 BYTE   Ds1
 BYTE   W01
 BYTE   Ds1
 BYTE   W01
 BYTE   En1
 BYTE   W01
 BYTE   Fn1
 BYTE   W01
 BYTE   Fn1
 BYTE   W01
 BYTE   Fs1
 BYTE   W01
 BYTE   Fs1
 BYTE   W01
 BYTE   Gn1
 BYTE   W01
 BYTE   Gs1
 BYTE   W01
 BYTE   Gs1
 BYTE   W01
 BYTE   An1
 BYTE   W01
 BYTE   An1
 BYTE   W01
 BYTE   As1
 BYTE   W01
 BYTE   As1
 BYTE   W01
 BYTE   Bn1
 BYTE   W01
 BYTE   Cn2
 BYTE   W01
 BYTE   Cn2
 BYTE   W01
 BYTE   Cs2
 BYTE   W01
 BYTE   Cs2
 BYTE   W01
 BYTE   Dn2
 BYTE   W01
 BYTE   MOD 0
 BYTE   FsM1
 BYTE   BEND   c_v-14
 BYTE   W01
 BYTE   Ds2
 BYTE   W01
 BYTE   En2
 BYTE   W01
 BYTE   En2
 BYTE   W01
 BYTE   Fn2
 BYTE   W01
 BYTE   Fn2
 BYTE   W01
 BYTE   Fs2
 BYTE   W01
 BYTE   Gn2
 BYTE   W01
 BYTE   Gn2
 BYTE   W01
 BYTE   Gs2
 BYTE   W01
 BYTE   Gs2
 BYTE   W01
 BYTE   An2
 BYTE   W01
 BYTE   MOD 0
 BYTE   Cs1
 BYTE   BEND   c_v-7
 BYTE   W01
 BYTE   As2
 BYTE   W01
 BYTE   Bn2
 BYTE   W01
 BYTE   Bn2
 BYTE   W01
 BYTE   Cn3
 BYTE   W01
 BYTE   Cn3
 BYTE   W02
 BYTE   En3
 BYTE   W17
 BYTE   MOD 0
 BYTE   Cn4
 BYTE   W18
// 025   ----------------------------------------
 BYTE   W18
 BYTE   FsM2
 BYTE   W05
 BYTE   N12  Gn2
 BYTE   W13
 BYTE   N08  Gs2
 BYTE   W09
 BYTE   N09  An2
 BYTE   W10
 BYTE   N07  Gn2
 BYTE   W08
 BYTE   N05  Gs2
 BYTE   W06
 BYTE   N07  An2
 BYTE   W08
 BYTE   N06  Gn2
 BYTE   W07
 BYTE   N05  Gs2
 BYTE   W06
 BYTE   N10  An2
 BYTE   W06
// 026   ----------------------------------------
 BYTE   W05
 BYTE   N12  Gn2
 BYTE   W13
 BYTE   N08  Gs2
 BYTE   W09
 BYTE   N13  An2
 BYTE   W14
 BYTE   N08  Gn2
 BYTE   W09
 BYTE   En2
 BYTE   W09
 BYTE   N06  Ds2
 BYTE   W07
 BYTE   Dn2
 BYTE   W07
 BYTE   Ds2
 BYTE   W07
 BYTE   N08  En2
 BYTE   W09
 BYTE   N07  Gn2
 BYTE   W07
// 027   ----------------------------------------
 BYTE   W01
 BYTE   N06  En2
 BYTE   W07
 BYTE   N07  Ds2
 BYTE   W08
 BYTE   N04  Dn2
 BYTE   W05
 BYTE   N30  Cn2
 BYTE   W09
 BYTE   N01  An1
 BYTE   W08
 BYTE   Gn1
 BYTE   W09
 BYTE   An1
 BYTE   W06
 BYTE   N05  Cn2
 BYTE   W06
 BYTE   N06  Dn2
 BYTE   W07
 BYTE   N30  Cn2
 BYTE   W30
// 028   ----------------------------------------
 BYTE   W06
 BYTE   PAN   c_v+0
 BYTE   N52  An0  v104
 BYTE   W90
// 029   ----------------------------------------
 BYTE   W96
// 030   ----------------------------------------
 BYTE   W96
// 031   ----------------------------------------
 BYTE   W96
// 032   ----------------------------------------
 BYTE   W96
// 033   ----------------------------------------
 BYTE   W96
// 034   ----------------------------------------
 BYTE   W54
 BYTE   PAN   c_v-63
 BYTE   N10  An0  v092
 BYTE   N10  An1  v060
 BYTE   W18
 BYTE   PAN   c_v+50
 BYTE   N10  An0  v092
 BYTE   N10  An1  v060
 BYTE   W18
 BYTE   N11  An0  v092
 BYTE   N11  An1  v060
 BYTE   W06
// 035   ----------------------------------------
 BYTE   W06
 BYTE   PAN   c_v-56
 BYTE   W06
 BYTE   Fs4
 BYTE   W06
 BYTE   DsM2
 BYTE   N05  As0  v092
 BYTE   N05  As1  v060
 BYTE   W06
 BYTE   PAN   c_v-59
 BYTE   N05  As0  v092
 BYTE   N05  As1  v060
 BYTE   W06
 BYTE   PAN   c_v+3
 BYTE   N11  As0  v092
 BYTE   N11  As1  v060
 BYTE   W12
 BYTE   PAN   c_v-25
 BYTE   N23  Fn1  v092
 BYTE   N23  Fn2  v060
 BYTE   W24
 BYTE   N05  En1  v092
 BYTE   N05  En2  v060
 BYTE   W12
 BYTE   PAN   c_v+23
 BYTE   N28  En1  v092
 BYTE   N28  En2  v060
 BYTE   W18
// 036   ----------------------------------------
 BYTE   W18
 BYTE   N05  As0  v092
 BYTE   N05  As1  v060
 BYTE   W12
 BYTE   PAN   c_v-40
 BYTE   N05  As0  v092
 BYTE   N05  As1  v060
 BYTE   W06
 BYTE   As0  v092
 BYTE   N05  As1  v060
 BYTE   W06
 BYTE   PAN   c_v-40
 BYTE   N11  Cn1  v092
 BYTE   N11  Cn2  v060
 BYTE   W11
 BYTE   GoTo
  POIN2 Label_0_01EA6999
 BYTE   FINE

//**************** Track 2 (Midi-Chn.1) ****************//

KirbySuperStarUltraTheStrongestKnightintheGalaxyRSflame_002:
// 000   ----------------------------------------
 BYTE   KEYSH   KirbySuperStarUltraTheStrongestKnightintheGalaxyRSflame_key+0
 BYTE   VOICE   118
 BYTE   W96
// 001   ----------------------------------------
 BYTE   W96
// 002   ----------------------------------------
 BYTE   W96
// 003   ----------------------------------------
 BYTE   W96
// 004   ----------------------------------------
 BYTE   W06
 BYTE   VOL   59*KirbySuperStarUltraTheStrongestKnightintheGalaxyRSflame_mvl/mxv
 BYTE   PAN   c_v+59
 BYTE   N11  Ds2  v104
 BYTE   W12
 BYTE   PAN   c_v+23
 BYTE   N05
 BYTE   W06
Label_1_01EA7F89:
 BYTE   PAN   c_v-44
 BYTE   N05  Ds2  v104
 BYTE   W06
 BYTE   PAN   c_v+48
 BYTE   N11
 BYTE   W12
 BYTE   PAN   c_v+41
 BYTE   N05
 BYTE   W06
 BYTE   PAN   c_v+10
 BYTE   N05
 BYTE   W06
 BYTE   PAN   c_v-39
 BYTE   N11
 BYTE   W12
 BYTE   PAN   c_v-41
 BYTE   N05
 BYTE   W06
 BYTE   PAN   c_v+40
 BYTE   N05
 BYTE   W06
 BYTE   PAN   c_v-3
 BYTE   N11
 BYTE   W12
 BYTE   PAN   c_v-44
 BYTE   N05
 BYTE   W06
// 005   ----------------------------------------
 BYTE   PAN   c_v+0
 BYTE   N05
 BYTE   W06
 BYTE   PAN   c_v+29
 BYTE   N11
 BYTE   W12
 BYTE   PAN   c_v-12
 BYTE   N05
 BYTE   W06
 BYTE   PAN   c_v-28
 BYTE   N05
 BYTE   W06
 BYTE   PAN   c_v+9
 BYTE   N11
 BYTE   W12
 BYTE   PAN   c_v+23
 BYTE   N05
 BYTE   W06
 BYTE   PAN   c_v+32
 BYTE   N05
 BYTE   W06
 BYTE   PAN   c_v+28
 BYTE   N11
 BYTE   W12
 BYTE   PAN   c_v-3
 BYTE   N05
 BYTE   W06
 BYTE   PAN   c_v-48
 BYTE   N05
 BYTE   W06
 BYTE   PAN   c_v-17
 BYTE   N11
 BYTE   W12
 BYTE   PAN   c_v+43
 BYTE   N05
 BYTE   W06
// 006   ----------------------------------------
 BYTE   PAN   c_v-59
 BYTE   N05
 BYTE   W06
 BYTE   PAN   c_v+2
 BYTE   N11
 BYTE   W12
 BYTE   PAN   c_v+21
 BYTE   N05
 BYTE   W06
 BYTE   PAN   c_v-9
 BYTE   N05
 BYTE   W06
 BYTE   PAN   c_v-50
 BYTE   N11
 BYTE   W12
 BYTE   PAN   c_v+57
 BYTE   N05
 BYTE   W06
 BYTE   PAN   c_v+54
 BYTE   N05
 BYTE   W06
 BYTE   PAN   c_v+6
 BYTE   N11
 BYTE   W12
 BYTE   PAN   c_v-20
 BYTE   N05
 BYTE   W06
 BYTE   PAN   c_v-4
 BYTE   N05
 BYTE   W06
 BYTE   PAN   c_v-16
 BYTE   N11
 BYTE   W12
 BYTE   PAN   c_v+44
 BYTE   N05
 BYTE   W06
// 007   ----------------------------------------
 BYTE   PAN   c_v-23
 BYTE   N05
 BYTE   W06
 BYTE   PAN   c_v-6
 BYTE   N11
 BYTE   W12
 BYTE   PAN   c_v-29
 BYTE   N05
 BYTE   W06
 BYTE   PAN   c_v+61
 BYTE   N05
 BYTE   W06
 BYTE   PAN   c_v-26
 BYTE   N11
 BYTE   W12
 BYTE   PAN   c_v+30
 BYTE   N05
 BYTE   W06
 BYTE   PAN   c_v+9
 BYTE   N05
 BYTE   W06
 BYTE   PAN   c_v-39
 BYTE   N11
 BYTE   W12
 BYTE   PAN   c_v+33
 BYTE   N05
 BYTE   W06
 BYTE   PAN   c_v+43
 BYTE   N05
 BYTE   W06
 BYTE   PAN   c_v-13
 BYTE   N11
 BYTE   W12
 BYTE   PAN   c_v+0
 BYTE   N05
 BYTE   W06
// 008   ----------------------------------------
 BYTE   PAN   c_v+50
 BYTE   N05
 BYTE   W06
 BYTE   PAN   c_v-60
 BYTE   N11
 BYTE   W12
 BYTE   PAN   c_v+63
 BYTE   N05
 BYTE   W06
 BYTE   PAN   c_v+9
 BYTE   N05
 BYTE   W06
 BYTE   PAN   c_v-57
 BYTE   N11
 BYTE   W12
 BYTE   PAN   c_v+4
 BYTE   N05
 BYTE   W06
 BYTE   PAN   c_v-39
 BYTE   N05
 BYTE   W06
 BYTE   PAN   c_v+44
 BYTE   N11
 BYTE   W12
 BYTE   PAN   c_v+16
 BYTE   N05
 BYTE   W06
 BYTE   PAN   c_v+20
 BYTE   N05
 BYTE   W06
 BYTE   PAN   c_v-38
 BYTE   N11
 BYTE   W12
 BYTE   PAN   c_v+43
 BYTE   N05
 BYTE   W06
// 009   ----------------------------------------
 BYTE   PAN   c_v-48
 BYTE   N05
 BYTE   W06
 BYTE   PAN   c_v-50
 BYTE   N11
 BYTE   W12
 BYTE   PAN   c_v+31
 BYTE   N05
 BYTE   W06
 BYTE   PAN   c_v-24
 BYTE   N05
 BYTE   W06
 BYTE   PAN   c_v+56
 BYTE   N11
 BYTE   W12
 BYTE   PAN   c_v-27
 BYTE   N05
 BYTE   W06
 BYTE   PAN   c_v-21
 BYTE   N05
 BYTE   W06
 BYTE   PAN   c_v-46
 BYTE   N11
 BYTE   W12
 BYTE   PAN   c_v+30
 BYTE   N05
 BYTE   W06
 BYTE   PAN   c_v+42
 BYTE   N05
 BYTE   W06
 BYTE   PAN   c_v+26
 BYTE   N11
 BYTE   W12
 BYTE   PAN   c_v+13
 BYTE   N05
 BYTE   W06
// 010   ----------------------------------------
 BYTE   PAN   c_v+31
 BYTE   N05
 BYTE   W06
 BYTE   PAN   c_v-31
 BYTE   N11
 BYTE   W12
 BYTE   PAN   c_v-45
 BYTE   N05
 BYTE   W06
 BYTE   PAN   c_v-63
 BYTE   N05
 BYTE   W06
 BYTE   PAN   c_v-56
 BYTE   N11
 BYTE   W12
 BYTE   PAN   c_v+39
 BYTE   N05
 BYTE   W06
 BYTE   PAN   c_v+45
 BYTE   N05
 BYTE   W06
 BYTE   PAN   c_v-37
 BYTE   N11
 BYTE   W12
 BYTE   PAN   c_v-49
 BYTE   N05
 BYTE   W06
 BYTE   PAN   c_v+7
 BYTE   N05
 BYTE   W06
 BYTE   PAN   c_v-62
 BYTE   N11
 BYTE   W12
 BYTE   PAN   c_v-49
 BYTE   N05
 BYTE   W06
// 011   ----------------------------------------
 BYTE   PAN   c_v-6
 BYTE   N05
 BYTE   W06
 BYTE   PAN   c_v-1
 BYTE   N11
 BYTE   W12
 BYTE   PAN   c_v-55
 BYTE   N05
 BYTE   W06
 BYTE   PAN   c_v+25
 BYTE   N05
 BYTE   W06
 BYTE   PAN   c_v+1
 BYTE   N11
 BYTE   W12
 BYTE   PAN   c_v-45
 BYTE   N05
 BYTE   W06
 BYTE   PAN   c_v+57
 BYTE   N05
 BYTE   W06
 BYTE   PAN   c_v-46
 BYTE   N11
 BYTE   W12
 BYTE   PAN   c_v+51
 BYTE   N05
 BYTE   W06
 BYTE   PAN   c_v+24
 BYTE   N05
 BYTE   W06
 BYTE   PAN   c_v-25
 BYTE   N11
 BYTE   W12
 BYTE   PAN   c_v-9
 BYTE   N05
 BYTE   W06
// 012   ----------------------------------------
 BYTE   PAN   c_v-55
 BYTE   N05
 BYTE   W06
 BYTE   PAN   c_v-45
 BYTE   N32  As1
 BYTE   W36
 BYTE   PAN   c_v+50
 BYTE   N32
 BYTE   W48
 BYTE   N11  Bn1  v080
 BYTE   W06
// 013   ----------------------------------------
Label_1_01EA8110:
 BYTE   W06
 BYTE   PAN   c_v-1
 BYTE   W12
 BYTE   EnM1
 BYTE   W12
 BYTE   N23  Gn1  v104
 BYTE   W24
 BYTE   PAN   c_v+49
 BYTE   N32  As1
 BYTE   W42
 BYTE   PEND 
// 014   ----------------------------------------
 BYTE   W06
 BYTE   PAN   c_v-45
 BYTE   N32
 BYTE   W36
 BYTE   PAN   c_v+50
 BYTE   N32
 BYTE   W48
 BYTE   N11  Bn1  v080
 BYTE   W06
// 015   ----------------------------------------
 BYTE   PATT
  POIN2 Label_1_01EA8110
// 016   ----------------------------------------
 BYTE   W06
 BYTE   PAN   c_v-63
 BYTE   N05  As1  v112
 BYTE   W06
 BYTE   N17  As1  v104
 BYTE   W18
 BYTE   PAN   c_v+62
 BYTE   N23
 BYTE   W24
 BYTE   PAN   c_v-39
 BYTE   N11
 BYTE   W12
 BYTE   PAN   c_v+39
 BYTE   N11
 BYTE   W12
 BYTE   PAN   c_v+11
 BYTE   N11
 BYTE   W12
 BYTE   PAN   c_v-3
 BYTE   N11  Bn1  v080
 BYTE   W06
// 017   ----------------------------------------
 BYTE   W06
 BYTE   PAN   c_v-19
 BYTE   N05  As1  v104
 BYTE   W06
 BYTE   PAN   c_v+50
 BYTE   N05
 BYTE   W06
 BYTE   PAN   c_v+41
 BYTE   N05
 BYTE   W06
 BYTE   PAN   c_v+31
 BYTE   N05
 BYTE   W06
 BYTE   PAN   c_v-41
 BYTE   N11  Gn1
 BYTE   W12
 BYTE   PAN   c_v+46
 BYTE   N11
 BYTE   W12
 BYTE   PAN   c_v+27
 BYTE   N11  As1
 BYTE   W12
 BYTE   PAN   c_v+2
 BYTE   N11
 BYTE   W12
 BYTE   PAN   c_v-25
 BYTE   N11  Gn1
 BYTE   W12
 BYTE   PAN   c_v-62
 BYTE   N05  As1
 BYTE   W06
// 018   ----------------------------------------
 BYTE   PAN   c_v-52
 BYTE   N05
 BYTE   W06
 BYTE   PAN   c_v-63
 BYTE   N11  As1  v112
 BYTE   W12
 BYTE   N05
 BYTE   W06
 BYTE   N05
 BYTE   W06
 BYTE   PAN   c_v+62
 BYTE   N11
 BYTE   W12
 BYTE   N05
 BYTE   W06
 BYTE   N05
 BYTE   W06
 BYTE   PAN   c_v-56
 BYTE   N05
 BYTE   W06
 BYTE   PAN   c_v+14
 BYTE   N05
 BYTE   W06
 BYTE   PAN   c_v+36
 BYTE   N05
 BYTE   W06
 BYTE   PAN   c_v+38
 BYTE   N05
 BYTE   W06
 BYTE   PAN   c_v+3
 BYTE   N11
 BYTE   W12
 BYTE   PAN   c_v-25
 BYTE   N11  Bn1  v092
 BYTE   W06
// 019   ----------------------------------------
 BYTE   W06
 BYTE   PAN   c_v+48
 BYTE   N05  As1  v112
 BYTE   W06
 BYTE   PAN   c_v+29
 BYTE   N05
 BYTE   W06
 BYTE   PAN   c_v+58
 BYTE   N05
 BYTE   W06
 BYTE   PAN   c_v+54
 BYTE   N05
 BYTE   W06
 BYTE   PAN   c_v+5
 BYTE   N11  Gn1
 BYTE   W12
 BYTE   PAN   c_v-45
 BYTE   N11  Cs2
 BYTE   W12
 BYTE   PAN   c_v-5
 BYTE   N11  As1
 BYTE   W12
 BYTE   PAN   c_v-34
 BYTE   N11
 BYTE   W12
 BYTE   PAN   c_v+46
 BYTE   N05  Gn1
 BYTE   W06
 BYTE   N05
 BYTE   W06
 BYTE   PAN   c_v-37
 BYTE   N05  As1
 BYTE   W06
// 020   ----------------------------------------
 BYTE   PAN   c_v+36
 BYTE   N05
 BYTE   W06
 BYTE   PAN   c_v+23
 BYTE   N11  Ds2  v092
 BYTE   W12
 BYTE   N05
 BYTE   W06
 BYTE   N05
 BYTE   W06
 BYTE   N11
 BYTE   W12
 BYTE   N05
 BYTE   W06
 BYTE   N05
 BYTE   W06
 BYTE   N11
 BYTE   W12
 BYTE   N05
 BYTE   W06
 BYTE   N05
 BYTE   W06
 BYTE   N11
 BYTE   W12
 BYTE   N05
 BYTE   W06
// 021   ----------------------------------------
Label_1_01EA8202:
 BYTE   N05  Ds2  v092
 BYTE   W06
 BYTE   PAN   c_v+23
 BYTE   N11
 BYTE   W12
 BYTE   N05
 BYTE   W06
 BYTE   N05
 BYTE   W06
 BYTE   N11
 BYTE   W12
 BYTE   N05
 BYTE   W06
 BYTE   N05
 BYTE   W06
 BYTE   N11
 BYTE   W12
 BYTE   N05
 BYTE   W06
 BYTE   N05
 BYTE   W06
 BYTE   N11
 BYTE   W12
 BYTE   N05
 BYTE   W06
 BYTE   PEND 
// 022   ----------------------------------------
 BYTE   PATT
  POIN2 Label_1_01EA8202
// 023   ----------------------------------------
 BYTE   PATT
  POIN2 Label_1_01EA8202
// 024   ----------------------------------------
 BYTE   PATT
  POIN2 Label_1_01EA8202
// 025   ----------------------------------------
 BYTE   PATT
  POIN2 Label_1_01EA8202
// 026   ----------------------------------------
 BYTE   PATT
  POIN2 Label_1_01EA8202
// 027   ----------------------------------------
 BYTE   PATT
  POIN2 Label_1_01EA8202
// 028   ----------------------------------------
 BYTE   N05  Ds2  v092
 BYTE   W96
// 029   ----------------------------------------
 BYTE   W96
// 030   ----------------------------------------
 BYTE   W96
// 031   ----------------------------------------
 BYTE   W96
// 032   ----------------------------------------
 BYTE   W54
 BYTE   PAN   c_v-63
 BYTE   N10  As1  v108
 BYTE   W12
 BYTE   N04
 BYTE   W06
 BYTE   N04
 BYTE   W06
 BYTE   PAN   c_v+62
 BYTE   N10
 BYTE   W12
 BYTE   N04
 BYTE   W06
// 033   ----------------------------------------
Label_1_01EA8255:
 BYTE   N04  As1  v108
 BYTE   W06
 BYTE   PAN   c_v-56
 BYTE   N04
 BYTE   W06
 BYTE   PAN   c_v+14
 BYTE   N04
 BYTE   W06
 BYTE   PAN   c_v+36
 BYTE   N04
 BYTE   W06
 BYTE   PAN   c_v+38
 BYTE   N04
 BYTE   W06
 BYTE   PAN   c_v+3
 BYTE   N10
 BYTE   W12
 BYTE   PAN   c_v-25
 BYTE   N10  Bn1  v084
 BYTE   W12
 BYTE   PAN   c_v+48
 BYTE   N04  As1  v108
 BYTE   W06
 BYTE   PAN   c_v+29
 BYTE   N04
 BYTE   W06
 BYTE   PAN   c_v+58
 BYTE   N04
 BYTE   W06
 BYTE   PAN   c_v+54
 BYTE   N04
 BYTE   W06
 BYTE   PAN   c_v+5
 BYTE   N10  Gn1
 BYTE   W12
 BYTE   PAN   c_v-45
 BYTE   N10  Cs2
 BYTE   W06
 BYTE   PEND 
// 034   ----------------------------------------
 BYTE   W06
 BYTE   PAN   c_v-5
 BYTE   N10  As1
 BYTE   W12
 BYTE   PAN   c_v-34
 BYTE   N10
 BYTE   W12
 BYTE   PAN   c_v+46
 BYTE   N04  Gn1
 BYTE   W06
 BYTE   N04
 BYTE   W06
 BYTE   PAN   c_v-37
 BYTE   N04  As1
 BYTE   W06
 BYTE   PAN   c_v+36
 BYTE   N04
 BYTE   W06
 BYTE   PAN   c_v-63
 BYTE   N10
 BYTE   W12
 BYTE   N04
 BYTE   W06
 BYTE   N04
 BYTE   W06
 BYTE   PAN   c_v+62
 BYTE   N10
 BYTE   W12
 BYTE   N04
 BYTE   W06
// 035   ----------------------------------------
 BYTE   PATT
  POIN2 Label_1_01EA8255
// 036   ----------------------------------------
 BYTE   W06
 BYTE   PAN   c_v-5
 BYTE   N10  As1  v108
 BYTE   W12
 BYTE   PAN   c_v-34
 BYTE   N10
 BYTE   W12
 BYTE   PAN   c_v+46
 BYTE   N04  Gn1
 BYTE   W06
 BYTE   N04
 BYTE   W06
 BYTE   PAN   c_v-37
 BYTE   N04  As1
 BYTE   W06
 BYTE   PAN   c_v+36
 BYTE   N04
 BYTE   W05
 BYTE   GoTo
  POIN2 Label_1_01EA7F89
 BYTE   FINE

//**************** Track 3 (Midi-Chn.2) ****************//

KirbySuperStarUltraTheStrongestKnightintheGalaxyRSflame_003:
// 000   ----------------------------------------
 BYTE   KEYSH   KirbySuperStarUltraTheStrongestKnightintheGalaxyRSflame_key+0
 BYTE   VOICE   30
 BYTE   W06
 BYTE   VOL   59*KirbySuperStarUltraTheStrongestKnightintheGalaxyRSflame_mvl/mxv
 BYTE   PAN   c_v+0
 BYTE   VOL   44*KirbySuperStarUltraTheStrongestKnightintheGalaxyRSflame_mvl/mxv
 BYTE   BEND   c_v-1
 BYTE   TIE  An3  v088
 BYTE   W90
// 001   ----------------------------------------
 BYTE   W96
// 002   ----------------------------------------
 BYTE   W96
// 003   ----------------------------------------
 BYTE   W92
 BYTE   W03
 BYTE   EOT
 BYTE   W01
// 004   ----------------------------------------
 BYTE   W06
 BYTE   VOL   59*KirbySuperStarUltraTheStrongestKnightintheGalaxyRSflame_mvl/mxv
 BYTE   PAN   c_v+0
 BYTE   VOL   44*KirbySuperStarUltraTheStrongestKnightintheGalaxyRSflame_mvl/mxv
 BYTE   BEND   c_v-1
 BYTE   N10
 BYTE   W18
Label_2_01EA6E8E:
 BYTE   N10  An3  v088
 BYTE   W18
 BYTE   N13  As3
 BYTE   W24
 BYTE   N10  Gn3
 BYTE   W12
 BYTE   As3
 BYTE   W12
 BYTE   Ds3
 BYTE   W06
// 005   ----------------------------------------
Label_2_01EA6E9C:
 BYTE   W06
 BYTE   BEND   c_v-1
 BYTE   N10  An3  v088
 BYTE   W18
 BYTE   N10
 BYTE   W18
 BYTE   N13  As3
 BYTE   W24
 BYTE   N10  Gn3
 BYTE   W12
 BYTE   As3
 BYTE   W12
 BYTE   Ds3
 BYTE   W06
 BYTE   PEND 
// 006   ----------------------------------------
 BYTE   PATT
  POIN2 Label_2_01EA6E9C
// 007   ----------------------------------------
 BYTE   W06
 BYTE   BEND   c_v-1
 BYTE   N10  An3  v088
 BYTE   W18
 BYTE   N10
 BYTE   W18
 BYTE   N13  As3
 BYTE   W24
 BYTE   N10  Gn3
 BYTE   W12
 BYTE   As3
 BYTE   W12
 BYTE   Ds4
 BYTE   W06
// 008   ----------------------------------------
 BYTE   W06
 BYTE   BEND   c_v-1
 BYTE   N10  Cn4  v096
 BYTE   W18
 BYTE   N10
 BYTE   W18
 BYTE   N13  Dn4
 BYTE   W24
 BYTE   N10  As3
 BYTE   W12
 BYTE   Dn4
 BYTE   W12
 BYTE   As3
 BYTE   W06
// 009   ----------------------------------------
 BYTE   W06
 BYTE   BEND   c_v-1
 BYTE   N10  Cn4
 BYTE   W12
 BYTE   N04
 BYTE   W06
 BYTE   N10
 BYTE   W18
 BYTE   N11  Dn4
 BYTE   W12
 BYTE   N05
 BYTE   W06
 BYTE   N05
 BYTE   W06
 BYTE   N10  As3
 BYTE   W12
 BYTE   Dn4
 BYTE   W12
 BYTE   As3
 BYTE   W06
// 010   ----------------------------------------
 BYTE   W06
 BYTE   BEND   c_v-1
 BYTE   N10  Cn4
 BYTE   W12
 BYTE   N04
 BYTE   W06
 BYTE   N04
 BYTE   W06
 BYTE   N10
 BYTE   W12
 BYTE   N19  Dn4
 BYTE   W24
 BYTE   N10  As3
 BYTE   W12
 BYTE   Dn4
 BYTE   W12
 BYTE   As3
 BYTE   W06
// 011   ----------------------------------------
 BYTE   W06
 BYTE   BEND   c_v-1
 BYTE   N04  Cn4
 BYTE   W06
 BYTE   N04
 BYTE   W06
 BYTE   N04
 BYTE   W06
 BYTE   N04
 BYTE   W06
 BYTE   N10
 BYTE   W12
 BYTE   N13  Dn4
 BYTE   W24
 BYTE   N10  As3
 BYTE   W12
 BYTE   Dn4
 BYTE   W12
 BYTE   As3
 BYTE   W06
// 012   ----------------------------------------
 BYTE   W96
// 013   ----------------------------------------
 BYTE   W96
// 014   ----------------------------------------
 BYTE   W96
// 015   ----------------------------------------
 BYTE   W96
// 016   ----------------------------------------
 BYTE   W96
// 017   ----------------------------------------
 BYTE   W96
// 018   ----------------------------------------
 BYTE   W96
// 019   ----------------------------------------
 BYTE   W96
// 020   ----------------------------------------
 BYTE   W06
 BYTE   N11  An3  v104
 BYTE   W12
 BYTE   N05
 BYTE   W06
 BYTE   N05
 BYTE   W06
 BYTE   N11
 BYTE   W12
 BYTE   N05
 BYTE   W06
 BYTE   N05
 BYTE   W06
 BYTE   N05
 BYTE   W06
 BYTE   An3  v096
 BYTE   W06
 BYTE   N11  An3  v104
 BYTE   W12
 BYTE   As3
 BYTE   W12
 BYTE   N05  Gn3
 BYTE   W06
// 021   ----------------------------------------
Label_2_01EA6F46:
 BYTE   N05  Gn3  v104
 BYTE   W06
 BYTE   N11  An3
 BYTE   W12
 BYTE   N05
 BYTE   W06
 BYTE   N05
 BYTE   W06
 BYTE   N11
 BYTE   W12
 BYTE   N05
 BYTE   W06
 BYTE   N05
 BYTE   W06
 BYTE   N05
 BYTE   W06
 BYTE   An3  v096
 BYTE   W06
 BYTE   N11  An3  v104
 BYTE   W12
 BYTE   As3
 BYTE   W12
 BYTE   N05  Gn3
 BYTE   W06
 BYTE   PEND 
// 022   ----------------------------------------
 BYTE   PATT
  POIN2 Label_2_01EA6F46
// 023   ----------------------------------------
 BYTE   PATT
  POIN2 Label_2_01EA6F46
// 024   ----------------------------------------
 BYTE   PATT
  POIN2 Label_2_01EA6F46
// 025   ----------------------------------------
 BYTE   PATT
  POIN2 Label_2_01EA6F46
// 026   ----------------------------------------
 BYTE   PATT
  POIN2 Label_2_01EA6F46
// 027   ----------------------------------------
 BYTE   PATT
  POIN2 Label_2_01EA6F46
// 028   ----------------------------------------
 BYTE   N05  Gn3  v104
 BYTE   W06
 BYTE   Gn3  v096
 BYTE   W06
 BYTE   N11  An3
 BYTE   W12
 BYTE   N05  Gn3
 BYTE   W06
 BYTE   An3
 BYTE   W06
 BYTE   Gn3
 BYTE   W06
 BYTE   An3
 BYTE   W06
 BYTE   Gn3
 BYTE   W06
 BYTE   N11  Cn4
 BYTE   W12
 BYTE   Dn4
 BYTE   W12
 BYTE   N05  Gn3
 BYTE   W06
 BYTE   N11  An3
 BYTE   W12
// 029   ----------------------------------------
 BYTE   N05  Gn3
 BYTE   W06
 BYTE   An3
 BYTE   W06
 BYTE   Gn3
 BYTE   W06
 BYTE   An3
 BYTE   W06
 BYTE   Gn3
 BYTE   W06
 BYTE   N11  Cn4
 BYTE   W12
 BYTE   Dn4
 BYTE   W12
 BYTE   N05  Gs3
 BYTE   W06
 BYTE   As3
 BYTE   W06
 BYTE   Gs3
 BYTE   W06
 BYTE   As3
 BYTE   W06
 BYTE   Gs3
 BYTE   W06
 BYTE   N11  Cs4
 BYTE   W12
// 030   ----------------------------------------
 BYTE   Ds4
 BYTE   W12
 BYTE   N05  An3
 BYTE   W06
 BYTE   Bn3
 BYTE   W06
 BYTE   An3
 BYTE   W06
 BYTE   Bn3
 BYTE   W06
 BYTE   An3
 BYTE   W06
 BYTE   N11  Dn4
 BYTE   W12
 BYTE   En4
 BYTE   W12
 BYTE   N05  As3
 BYTE   W06
 BYTE   N11  Cn4
 BYTE   W12
 BYTE   N05  As3
 BYTE   W06
 BYTE   Cn4
 BYTE   W06
// 031   ----------------------------------------
 BYTE   As3
 BYTE   W06
 BYTE   Cn4
 BYTE   W06
 BYTE   As3
 BYTE   W06
 BYTE   N11  Ds4
 BYTE   W12
 BYTE   Fn4
 BYTE   W12
 BYTE   N05  An3
 BYTE   W06
 BYTE   Bn3
 BYTE   W06
 BYTE   An3
 BYTE   W06
 BYTE   N11  Dn4
 BYTE   W12
 BYTE   En4
 BYTE   W12
 BYTE   N05  Gs3
 BYTE   W06
 BYTE   As3
 BYTE   W06
// 032   ----------------------------------------
 BYTE   Gs3
 BYTE   W06
 BYTE   N11  Cs4
 BYTE   W12
 BYTE   Ds4
 BYTE   W12
 BYTE   Dn4
 BYTE   W12
 BYTE   Gn3
 BYTE   W54
// 033   ----------------------------------------
 BYTE   W96
// 034   ----------------------------------------
 BYTE   W96
// 035   ----------------------------------------
 BYTE   W96
// 036   ----------------------------------------
 BYTE   W52
 BYTE   W01
 BYTE   GoTo
  POIN2 Label_2_01EA6E8E
 BYTE   FINE

//**************** Track 4 (Midi-Chn.3) ****************//

KirbySuperStarUltraTheStrongestKnightintheGalaxyRSflame_004:
// 000   ----------------------------------------
 BYTE   KEYSH   KirbySuperStarUltraTheStrongestKnightintheGalaxyRSflame_key+0
 BYTE   VOICE   30
 BYTE   W06
 BYTE   VOL   71*KirbySuperStarUltraTheStrongestKnightintheGalaxyRSflame_mvl/mxv
 BYTE   TIE  An1  v104
 BYTE   W90
// 001   ----------------------------------------
 BYTE   W96
// 002   ----------------------------------------
 BYTE   W96
// 003   ----------------------------------------
 BYTE   W92
 BYTE   W03
 BYTE   EOT
 BYTE   W01
// 004   ----------------------------------------
 BYTE   W06
 BYTE   VOL   71*KirbySuperStarUltraTheStrongestKnightintheGalaxyRSflame_mvl/mxv
 BYTE   N11
 BYTE   W18
Label_3_01EA773A:
 BYTE   N11  An1  v104
 BYTE   W18
 BYTE   N13  As1
 BYTE   W24
 BYTE   N11  Gn1
 BYTE   W12
 BYTE   As1
 BYTE   W12
 BYTE   Ds1
 BYTE   W06
// 005   ----------------------------------------
Label_3_01EA7748:
 BYTE   W06
 BYTE   N11  An1  v104
 BYTE   W12
 BYTE   N05
 BYTE   W06
 BYTE   N11
 BYTE   W18
 BYTE   As1
 BYTE   W12
 BYTE   N05  As1  v084
 BYTE   W06
 BYTE   N05
 BYTE   W06
 BYTE   N11  Gn1  v104
 BYTE   W12
 BYTE   As1
 BYTE   W12
 BYTE   Ds1
 BYTE   W06
 BYTE   PEND 
// 006   ----------------------------------------
Label_3_01EA7762:
 BYTE   W06
 BYTE   N11  An1  v104
 BYTE   W12
 BYTE   N05
 BYTE   W06
 BYTE   N05
 BYTE   W06
 BYTE   N11
 BYTE   W12
 BYTE   N19  As1
 BYTE   W24
 BYTE   N05  Gn1
 BYTE   W06
 BYTE   N05
 BYTE   W06
 BYTE   As1
 BYTE   W06
 BYTE   N05
 BYTE   W06
 BYTE   N11  Ds1
 BYTE   W06
 BYTE   PEND 
// 007   ----------------------------------------
Label_3_01EA777D:
 BYTE   W06
 BYTE   N05  An1  v104
 BYTE   W06
 BYTE   N05
 BYTE   W06
 BYTE   N05
 BYTE   W06
 BYTE   N05
 BYTE   W06
 BYTE   N11
 BYTE   W12
 BYTE   As1
 BYTE   W12
 BYTE   N05  As1  v080
 BYTE   W06
 BYTE   N05
 BYTE   W06
 BYTE   Gn1  v104
 BYTE   W06
 BYTE   N05
 BYTE   W06
 BYTE   As1
 BYTE   W06
 BYTE   N05
 BYTE   W06
 BYTE   N11  Ds2
 BYTE   W06
 BYTE   PEND 
// 008   ----------------------------------------
 BYTE   W06
 BYTE   An1
 BYTE   W18
 BYTE   N11
 BYTE   W18
 BYTE   N13  As1
 BYTE   W24
 BYTE   N11  Gn1
 BYTE   W12
 BYTE   As1
 BYTE   W12
 BYTE   Ds1
 BYTE   W06
// 009   ----------------------------------------
 BYTE   PATT
  POIN2 Label_3_01EA7748
// 010   ----------------------------------------
 BYTE   PATT
  POIN2 Label_3_01EA7762
// 011   ----------------------------------------
 BYTE   PATT
  POIN2 Label_3_01EA777D
// 012   ----------------------------------------
Label_3_01EA77BD:
 BYTE   W06
 BYTE   N23  An1  v104
 BYTE   W24
 BYTE   N23
 BYTE   W24
 BYTE   N56  Ds1
 BYTE   W42
 BYTE   PEND 
// 013   ----------------------------------------
Label_3_01EA77C8:
 BYTE   W18
 BYTE   N32  Ds1  v104
 BYTE   W36
 BYTE   N23
 BYTE   W24
 BYTE   N23
 BYTE   W18
 BYTE   PEND 
// 014   ----------------------------------------
 BYTE   PATT
  POIN2 Label_3_01EA77BD
// 015   ----------------------------------------
 BYTE   PATT
  POIN2 Label_3_01EA77C8
// 016   ----------------------------------------
 BYTE   W30
 BYTE   N23  An1  v104
 BYTE   W24
 BYTE   N56  Ds1
 BYTE   W42
// 017   ----------------------------------------
 BYTE   PATT
  POIN2 Label_3_01EA77C8
// 018   ----------------------------------------
 BYTE   W06
 BYTE   N06  An1  v104
 BYTE   W48
 BYTE   N06
 BYTE   W42
// 019   ----------------------------------------
 BYTE   W06
 BYTE   N06
 BYTE   W72
 BYTE   N10  Gn1
 BYTE   W18
// 020   ----------------------------------------
 BYTE   W06
 BYTE   N11  An1
 BYTE   W12
 BYTE   N05
 BYTE   W06
 BYTE   N05
 BYTE   W06
 BYTE   N11
 BYTE   W12
 BYTE   N05
 BYTE   W06
 BYTE   N05
 BYTE   W06
 BYTE   N05
 BYTE   W06
 BYTE   An1  v084
 BYTE   W06
 BYTE   N11  An1  v104
 BYTE   W12
 BYTE   N11
 BYTE   W12
 BYTE   N05
 BYTE   W06
// 021   ----------------------------------------
Label_3_01EA7811:
 BYTE   N05  An1  v104
 BYTE   W06
 BYTE   N11
 BYTE   W12
 BYTE   N05
 BYTE   W06
 BYTE   N05
 BYTE   W06
 BYTE   N11
 BYTE   W12
 BYTE   N05
 BYTE   W06
 BYTE   N05
 BYTE   W06
 BYTE   N05
 BYTE   W06
 BYTE   An1  v084
 BYTE   W06
 BYTE   N11  An1  v104
 BYTE   W12
 BYTE   N11
 BYTE   W12
 BYTE   N05
 BYTE   W06
 BYTE   PEND 
// 022   ----------------------------------------
 BYTE   PATT
  POIN2 Label_3_01EA7811
// 023   ----------------------------------------
 BYTE   PATT
  POIN2 Label_3_01EA7811
// 024   ----------------------------------------
 BYTE   PATT
  POIN2 Label_3_01EA7811
// 025   ----------------------------------------
 BYTE   PATT
  POIN2 Label_3_01EA7811
// 026   ----------------------------------------
 BYTE   PATT
  POIN2 Label_3_01EA7811
// 027   ----------------------------------------
 BYTE   PATT
  POIN2 Label_3_01EA7811
// 028   ----------------------------------------
 BYTE   N05  An1  v104
 BYTE   W06
 BYTE   Gn1
 BYTE   W06
 BYTE   N11  An1
 BYTE   W12
 BYTE   N05  Gn1
 BYTE   W06
 BYTE   An1
 BYTE   W06
 BYTE   Gn1
 BYTE   W06
 BYTE   An1
 BYTE   W06
 BYTE   Gn1
 BYTE   W06
 BYTE   N11  Cn2
 BYTE   W12
 BYTE   Dn2
 BYTE   W12
 BYTE   N05  Gn1
 BYTE   W06
 BYTE   N11  An1
 BYTE   W12
// 029   ----------------------------------------
 BYTE   N05  Gn1
 BYTE   W06
 BYTE   An1
 BYTE   W06
 BYTE   Gn1
 BYTE   W06
 BYTE   An1
 BYTE   W06
 BYTE   Gn1
 BYTE   W06
 BYTE   N11  Cn2
 BYTE   W12
 BYTE   Dn2
 BYTE   W12
 BYTE   N05  Gs1
 BYTE   W06
 BYTE   As1
 BYTE   W06
 BYTE   Gs1
 BYTE   W06
 BYTE   As1
 BYTE   W06
 BYTE   Gs1
 BYTE   W06
 BYTE   N11  Cs2
 BYTE   W12
// 030   ----------------------------------------
 BYTE   Ds2
 BYTE   W12
 BYTE   N05  An1
 BYTE   W06
 BYTE   Bn1
 BYTE   W06
 BYTE   An1
 BYTE   W06
 BYTE   Bn1
 BYTE   W06
 BYTE   An1
 BYTE   W06
 BYTE   N11  Dn2
 BYTE   W12
 BYTE   En2
 BYTE   W12
 BYTE   N05  As1
 BYTE   W06
 BYTE   N11  Cn2
 BYTE   W12
 BYTE   N05  As1
 BYTE   W06
 BYTE   Cn2
 BYTE   W06
// 031   ----------------------------------------
 BYTE   As1
 BYTE   W06
 BYTE   Cn2
 BYTE   W06
 BYTE   As1
 BYTE   W06
 BYTE   N11  Ds2
 BYTE   W12
 BYTE   Fn2
 BYTE   W12
 BYTE   N05  An1
 BYTE   W06
 BYTE   Bn1
 BYTE   W06
 BYTE   An1
 BYTE   W06
 BYTE   N11  Dn2
 BYTE   W12
 BYTE   En2
 BYTE   W12
 BYTE   N05  Gs1
 BYTE   W06
 BYTE   As1
 BYTE   W06
// 032   ----------------------------------------
 BYTE   Gs1
 BYTE   W06
 BYTE   N11  Cs2
 BYTE   W12
 BYTE   Ds2
 BYTE   W12
 BYTE   Dn2
 BYTE   W12
 BYTE   Gn1
 BYTE   W54
// 033   ----------------------------------------
 BYTE   W96
// 034   ----------------------------------------
 BYTE   W96
// 035   ----------------------------------------
 BYTE   W96
// 036   ----------------------------------------
 BYTE   W52
 BYTE   W01
 BYTE   GoTo
  POIN2 Label_3_01EA773A
 BYTE   FINE

//**************** Track 5 (Midi-Chn.4) ****************//

KirbySuperStarUltraTheStrongestKnightintheGalaxyRSflame_005:
// 000   ----------------------------------------
 BYTE   KEYSH   KirbySuperStarUltraTheStrongestKnightintheGalaxyRSflame_key+0
 BYTE   VOICE   30
 BYTE   W06
 BYTE   VOL   54*KirbySuperStarUltraTheStrongestKnightintheGalaxyRSflame_mvl/mxv
 BYTE   PAN   c_v+0
 BYTE   BEND   c_v-29
 BYTE   TIE  An0  v100
 BYTE   W90
// 001   ----------------------------------------
 BYTE   W16
 BYTE   EOT
 BYTE   W03
 BYTE   BEND   c_v-63
 BYTE   N42
 BYTE   W01
 BYTE   BEND   c_v-61
 BYTE   W01
 BYTE   FnM2
 BYTE   W01
 BYTE   GsM2
 BYTE   W01
 BYTE   AsM2
 BYTE   W01
 BYTE   CnM1
 BYTE   W01
 BYTE   DsM1
 BYTE   W01
 BYTE   FnM1
 BYTE   W01
 BYTE   GnM1
 BYTE   W01
 BYTE   AsM1
 BYTE   W01
 BYTE   Cn0
 BYTE   W01
 BYTE   Dn0
 BYTE   W01
 BYTE   En0
 BYTE   W01
 BYTE   Gn0
 BYTE   W01
 BYTE   Bn0
 BYTE   W32
 BYTE   DnM2
 BYTE   TIE
 BYTE   W01
 BYTE   BEND   c_v-60
 BYTE   W01
 BYTE   FnM2
 BYTE   W01
 BYTE   GnM2
 BYTE   W01
 BYTE   AnM2
 BYTE   W01
 BYTE   BnM2
 BYTE   W01
 BYTE   CnM1
 BYTE   W01
 BYTE   DnM1
 BYTE   W01
 BYTE   EnM1
 BYTE   W01
 BYTE   FnM1
 BYTE   W01
 BYTE   GsM1
 BYTE   W01
 BYTE   AsM1
 BYTE   W01
 BYTE   BnM1
 BYTE   W01
 BYTE   Cs0
 BYTE   W01
 BYTE   Ds0
 BYTE   W01
 BYTE   En0
 BYTE   W01
 BYTE   Fs0
 BYTE   W01
 BYTE   Gs0
 BYTE   W01
 BYTE   Bn0
 BYTE   W13
// 002   ----------------------------------------
 BYTE   W96
// 003   ----------------------------------------
 BYTE   W92
 BYTE   W01
 BYTE   EOT
 BYTE   W03
// 004   ----------------------------------------
 BYTE   W06
 BYTE   PAN   c_v+0
 BYTE   BEND   c_v-29
 BYTE   N10
 BYTE   W12
 BYTE   N05
 BYTE   W06
Label_4_01EA7A15:
 BYTE   N05  An0  v100
 BYTE   W06
 BYTE   N10
 BYTE   W12
 BYTE   N05  As0
 BYTE   W06
 BYTE   N05
 BYTE   W06
 BYTE   N10
 BYTE   W12
 BYTE   N05
 BYTE   W06
 BYTE   N05
 BYTE   W06
 BYTE   N10
 BYTE   W12
 BYTE   Ds0
 BYTE   W06
// 005   ----------------------------------------
Label_4_01EA7A2A:
 BYTE   W06
 BYTE   PAN   c_v+0
 BYTE   BEND   c_v-29
 BYTE   N10  An0  v100
 BYTE   W12
 BYTE   N05
 BYTE   W06
 BYTE   N05
 BYTE   W06
 BYTE   N10
 BYTE   W12
 BYTE   N05  As0
 BYTE   W06
 BYTE   N05
 BYTE   W06
 BYTE   N10
 BYTE   W12
 BYTE   N05
 BYTE   W06
 BYTE   N05
 BYTE   W06
 BYTE   N10
 BYTE   W12
 BYTE   Ds0
 BYTE   W06
 BYTE   PEND 
// 006   ----------------------------------------
 BYTE   PATT
  POIN2 Label_4_01EA7A2A
// 007   ----------------------------------------
Label_4_01EA7A4E:
 BYTE   W06
 BYTE   PAN   c_v+0
 BYTE   BEND   c_v-29
 BYTE   N10  An0  v100
 BYTE   W12
 BYTE   N05
 BYTE   W06
 BYTE   N05
 BYTE   W06
 BYTE   N10
 BYTE   W12
 BYTE   N05  As0
 BYTE   W06
 BYTE   N05
 BYTE   W06
 BYTE   N10
 BYTE   W12
 BYTE   N05
 BYTE   W06
 BYTE   N05
 BYTE   W06
 BYTE   N10
 BYTE   W12
 BYTE   Ds1
 BYTE   W06
 BYTE   PEND 
// 008   ----------------------------------------
 BYTE   PATT
  POIN2 Label_4_01EA7A2A
// 009   ----------------------------------------
 BYTE   PATT
  POIN2 Label_4_01EA7A2A
// 010   ----------------------------------------
 BYTE   PATT
  POIN2 Label_4_01EA7A2A
// 011   ----------------------------------------
 BYTE   PATT
  POIN2 Label_4_01EA7A4E
// 012   ----------------------------------------
Label_4_01EA7A81:
 BYTE   W06
 BYTE   N23  An0  v104
 BYTE   W24
 BYTE   N23
 BYTE   W24
 BYTE   N56  Ds0
 BYTE   W42
 BYTE   PEND 
// 013   ----------------------------------------
Label_4_01EA7A8C:
 BYTE   W18
 BYTE   N32  Ds0  v104
 BYTE   W36
 BYTE   N23
 BYTE   W24
 BYTE   N23
 BYTE   W18
 BYTE   PEND 
// 014   ----------------------------------------
 BYTE   PATT
  POIN2 Label_4_01EA7A81
// 015   ----------------------------------------
 BYTE   PATT
  POIN2 Label_4_01EA7A8C
// 016   ----------------------------------------
 BYTE   W30
 BYTE   N23  An0  v104
 BYTE   W24
 BYTE   N56  Ds0
 BYTE   W42
// 017   ----------------------------------------
 BYTE   PATT
  POIN2 Label_4_01EA7A8C
// 018   ----------------------------------------
 BYTE   W06
 BYTE   N06  An0  v104
 BYTE   W48
 BYTE   N06
 BYTE   W42
// 019   ----------------------------------------
 BYTE   W06
 BYTE   N06
 BYTE   W72
 BYTE   N10  Gn0
 BYTE   W18
// 020   ----------------------------------------
 BYTE   W06
 BYTE   PAN   c_v+0
 BYTE   BEND   c_v-29
 BYTE   N10  An0  v100
 BYTE   W12
 BYTE   N05
 BYTE   W06
 BYTE   N05
 BYTE   W06
 BYTE   N10
 BYTE   W12
 BYTE   N05
 BYTE   W06
 BYTE   N05
 BYTE   W06
 BYTE   N10
 BYTE   W12
 BYTE   N05
 BYTE   W06
 BYTE   N05
 BYTE   W06
 BYTE   N10
 BYTE   W12
 BYTE   N05
 BYTE   W06
// 021   ----------------------------------------
Label_4_01EA7AD7:
 BYTE   N05  An0  v100
 BYTE   W06
 BYTE   PAN   c_v+0
 BYTE   BEND   c_v-29
 BYTE   N10
 BYTE   W12
 BYTE   N05
 BYTE   W06
 BYTE   N05
 BYTE   W06
 BYTE   N10
 BYTE   W12
 BYTE   N05
 BYTE   W06
 BYTE   N05
 BYTE   W06
 BYTE   N10
 BYTE   W12
 BYTE   N05
 BYTE   W06
 BYTE   N05
 BYTE   W06
 BYTE   N10
 BYTE   W12
 BYTE   N05
 BYTE   W06
 BYTE   PEND 
// 022   ----------------------------------------
 BYTE   PATT
  POIN2 Label_4_01EA7AD7
// 023   ----------------------------------------
 BYTE   PATT
  POIN2 Label_4_01EA7AD7
// 024   ----------------------------------------
 BYTE   PATT
  POIN2 Label_4_01EA7AD7
// 025   ----------------------------------------
 BYTE   PATT
  POIN2 Label_4_01EA7AD7
// 026   ----------------------------------------
 BYTE   PATT
  POIN2 Label_4_01EA7AD7
// 027   ----------------------------------------
 BYTE   PATT
  POIN2 Label_4_01EA7AD7
// 028   ----------------------------------------
 BYTE   N05  An0  v100
 BYTE   W06
 BYTE   Gn0  v104
 BYTE   W06
 BYTE   N11  An0
 BYTE   W12
 BYTE   N05  Gn0
 BYTE   W06
 BYTE   An0
 BYTE   W06
 BYTE   Gn0
 BYTE   W06
 BYTE   An0
 BYTE   W06
 BYTE   Gn0
 BYTE   W06
 BYTE   N11  Cn1
 BYTE   W12
 BYTE   Dn1
 BYTE   W12
 BYTE   N05  Gn0
 BYTE   W06
 BYTE   N11  An0
 BYTE   W12
// 029   ----------------------------------------
 BYTE   N05  Gn0
 BYTE   W06
 BYTE   An0
 BYTE   W06
 BYTE   Gn0
 BYTE   W06
 BYTE   An0
 BYTE   W06
 BYTE   Gn0
 BYTE   W06
 BYTE   N11  Cn1
 BYTE   W12
 BYTE   Dn1
 BYTE   W12
 BYTE   N05  Gs0
 BYTE   W06
 BYTE   As0
 BYTE   W06
 BYTE   Gs0
 BYTE   W06
 BYTE   As0
 BYTE   W06
 BYTE   Gs0
 BYTE   W06
 BYTE   N11  Cs1
 BYTE   W12
// 030   ----------------------------------------
 BYTE   Ds1
 BYTE   W12
 BYTE   N05  An0
 BYTE   W06
 BYTE   Bn0
 BYTE   W06
 BYTE   An0
 BYTE   W06
 BYTE   Bn0
 BYTE   W06
 BYTE   An0
 BYTE   W06
 BYTE   N11  Dn1
 BYTE   W12
 BYTE   En1
 BYTE   W12
 BYTE   N05  As0
 BYTE   W06
 BYTE   N11  Cn1
 BYTE   W12
 BYTE   N05  As0
 BYTE   W06
 BYTE   Cn1
 BYTE   W06
// 031   ----------------------------------------
 BYTE   As0
 BYTE   W06
 BYTE   Cn1
 BYTE   W06
 BYTE   As0
 BYTE   W06
 BYTE   N11  Ds1
 BYTE   W12
 BYTE   Fn1
 BYTE   W12
 BYTE   N05  An0
 BYTE   W06
 BYTE   Bn0
 BYTE   W06
 BYTE   An0
 BYTE   W06
 BYTE   N11  Dn1
 BYTE   W12
 BYTE   En1
 BYTE   W12
 BYTE   N05  Gs0
 BYTE   W06
 BYTE   As0
 BYTE   W06
// 032   ----------------------------------------
 BYTE   Gs0
 BYTE   W06
 BYTE   N11  Cs1
 BYTE   W12
 BYTE   Ds1
 BYTE   W12
 BYTE   Dn1
 BYTE   W12
 BYTE   Gn0
 BYTE   W54
// 033   ----------------------------------------
 BYTE   W96
// 034   ----------------------------------------
 BYTE   W96
// 035   ----------------------------------------
 BYTE   W96
// 036   ----------------------------------------
 BYTE   W52
 BYTE   W01
 BYTE   GoTo
  POIN2 Label_4_01EA7A15
 BYTE   FINE

//**************** Track 6 (Midi-Chn.5) ****************//

KirbySuperStarUltraTheStrongestKnightintheGalaxyRSflame_006:
// 000   ----------------------------------------
 BYTE   KEYSH   KirbySuperStarUltraTheStrongestKnightintheGalaxyRSflame_key+0
 BYTE   VOICE   6
 BYTE   VOL   56*KirbySuperStarUltraTheStrongestKnightintheGalaxyRSflame_mvl/mxv
 BYTE   W96
// 001   ----------------------------------------
 BYTE   W96
// 002   ----------------------------------------
 BYTE   W96
// 003   ----------------------------------------
 BYTE   W96
// 004   ----------------------------------------
 BYTE   W24
Label_5_01EA7453:
 BYTE   W72
// 005   ----------------------------------------
 BYTE   W96
// 006   ----------------------------------------
 BYTE   W96
// 007   ----------------------------------------
 BYTE   W96
// 008   ----------------------------------------
 BYTE   W96
// 009   ----------------------------------------
 BYTE   W96
// 010   ----------------------------------------
 BYTE   W96
// 011   ----------------------------------------
 BYTE   W96
// 012   ----------------------------------------
 BYTE   W96
// 013   ----------------------------------------
 BYTE   W96
// 014   ----------------------------------------
 BYTE   W96
// 015   ----------------------------------------
 BYTE   W96
// 016   ----------------------------------------
 BYTE   W96
// 017   ----------------------------------------
 BYTE   W96
// 018   ----------------------------------------
 BYTE   W96
// 019   ----------------------------------------
 BYTE   W96
// 020   ----------------------------------------
 BYTE   W96
// 021   ----------------------------------------
 BYTE   W96
// 022   ----------------------------------------
 BYTE   W96
// 023   ----------------------------------------
 BYTE   W96
// 024   ----------------------------------------
 BYTE   W06
 BYTE   MOD 0
 BYTE   CnM2
 BYTE   BEND   c_v-34
 BYTE   TIE  An4  v100
 BYTE   W02
 BYTE   PAN   c_v+0
 BYTE   BEND   c_v-33
 BYTE   W01
 BYTE   Gn0
 BYTE   W01
 BYTE   Gs0
 BYTE   W01
 BYTE   An0
 BYTE   W01
 BYTE   An0
 BYTE   W01
 BYTE   As0
 BYTE   W01
 BYTE   As0
 BYTE   W01
 BYTE   Bn0
 BYTE   W01
 BYTE   Bn0
 BYTE   W01
 BYTE   Cn1
 BYTE   W01
 BYTE   Cs1
 BYTE   W01
 BYTE   Cs1
 BYTE   W01
 BYTE   Dn1
 BYTE   W01
 BYTE   Dn1
 BYTE   W01
 BYTE   Ds1
 BYTE   W01
 BYTE   Ds1
 BYTE   W01
 BYTE   En1
 BYTE   W01
 BYTE   Fn1
 BYTE   W01
 BYTE   Fn1
 BYTE   W01
 BYTE   Fs1
 BYTE   W01
 BYTE   Fs1
 BYTE   W01
 BYTE   Gn1
 BYTE   W01
 BYTE   Gs1
 BYTE   W01
 BYTE   Gs1
 BYTE   W01
 BYTE   An1
 BYTE   W01
 BYTE   An1
 BYTE   W01
 BYTE   As1
 BYTE   W01
 BYTE   As1
 BYTE   W01
 BYTE   Bn1
 BYTE   W01
 BYTE   Cn2
 BYTE   W01
 BYTE   Cn2
 BYTE   W01
 BYTE   Cs2
 BYTE   W01
 BYTE   Cs2
 BYTE   W01
 BYTE   Dn2
 BYTE   W01
 BYTE   MOD 0
 BYTE   FsM1
 BYTE   BEND   c_v-14
 BYTE   W01
 BYTE   Ds2
 BYTE   W01
 BYTE   En2
 BYTE   W01
 BYTE   En2
 BYTE   W01
 BYTE   Fn2
 BYTE   W01
 BYTE   Fn2
 BYTE   W01
 BYTE   Fs2
 BYTE   W01
 BYTE   Gn2
 BYTE   W01
 BYTE   Gn2
 BYTE   W01
 BYTE   Gs2
 BYTE   W01
 BYTE   Gs2
 BYTE   W01
 BYTE   An2
 BYTE   W01
 BYTE   MOD 0
 BYTE   Cs1
 BYTE   BEND   c_v-7
 BYTE   W01
 BYTE   As2
 BYTE   W01
 BYTE   Bn2
 BYTE   W01
 BYTE   Bn2
 BYTE   W01
 BYTE   Cn3
 BYTE   W01
 BYTE   Cn3
 BYTE   W02
 BYTE   Dn3
 BYTE   W17
 BYTE   MOD 0
 BYTE   Cn4
 BYTE   W18
// 025   ----------------------------------------
 BYTE   W18
 BYTE   FsM2
 BYTE   W05
 BYTE   N16  Gn4
 BYTE   W02
 BYTE   EOT
 BYTE   An4
 BYTE   W11
 BYTE   N10  Gs4
 BYTE   W09
 BYTE   N11  An4
 BYTE   W10
 BYTE   N10  Gn4
 BYTE   W08
 BYTE   N07  Gs4
 BYTE   W06
 BYTE   N09  An4
 BYTE   W08
 BYTE   Gn4
 BYTE   W07
 BYTE   N06  Gs4
 BYTE   W06
 BYTE   N12  An4
 BYTE   W06
// 026   ----------------------------------------
 BYTE   W05
 BYTE   N14  Gn4
 BYTE   W13
 BYTE   N10  Gs4
 BYTE   W09
 BYTE   N12  An4
 BYTE   W14
 BYTE   N09  Gn4
 BYTE   W09
 BYTE   N11  En4
 BYTE   W09
 BYTE   N07  Ds4
 BYTE   W07
 BYTE   N10  Dn4
 BYTE   W07
 BYTE   N08  Ds4
 BYTE   W07
 BYTE   N10  En4
 BYTE   W09
 BYTE   Gn4
 BYTE   W07
// 027   ----------------------------------------
 BYTE   W01
 BYTE   N09  En4
 BYTE   W07
 BYTE   N06  Ds4
 BYTE   W08
 BYTE   Dn4
 BYTE   W05
 BYTE   N12  Cn4
 BYTE   W09
 BYTE   N09  An3
 BYTE   W08
 BYTE   Gn3
 BYTE   W09
 BYTE   N07  An3
 BYTE   W06
 BYTE   N08  Cn4
 BYTE   W06
 BYTE   N09  Dn4
 BYTE   W07
 BYTE   N32  Cn4
 BYTE   W30
// 028   ----------------------------------------
 BYTE   W96
// 029   ----------------------------------------
 BYTE   W96
// 030   ----------------------------------------
 BYTE   W96
// 031   ----------------------------------------
 BYTE   W96
// 032   ----------------------------------------
 BYTE   W96
// 033   ----------------------------------------
 BYTE   W96
// 034   ----------------------------------------
 BYTE   W96
// 035   ----------------------------------------
 BYTE   W96
// 036   ----------------------------------------
 BYTE   W52
 BYTE   W01
 BYTE   GoTo
  POIN2 Label_5_01EA7453
 BYTE   FINE

//**************** Track 7 (Midi-Chn.6) ****************//

KirbySuperStarUltraTheStrongestKnightintheGalaxyRSflame_007:
// 000   ----------------------------------------
 BYTE   KEYSH   KirbySuperStarUltraTheStrongestKnightintheGalaxyRSflame_key+0
 BYTE   VOICE   33
 BYTE   W96
// 001   ----------------------------------------
 BYTE   W96
// 002   ----------------------------------------
 BYTE   W96
// 003   ----------------------------------------
 BYTE   W06
 BYTE   VOL   67*KirbySuperStarUltraTheStrongestKnightintheGalaxyRSflame_mvl/mxv
 BYTE   W12
 BYTE   PAN   c_v+43
 BYTE   W24
 BYTE   Bn5
 BYTE   W12
 BYTE   En3
 BYTE   W12
 BYTE   Cs2
 BYTE   W12
 BYTE   FnM1
 BYTE   N05  Cn1  v104
 BYTE   W06
 BYTE   N05
 BYTE   W06
 BYTE   PAN   c_v+43
 BYTE   N05  An0  v112
 BYTE   W06
// 004   ----------------------------------------
 BYTE   N05
 BYTE   W24
Label_6_01EA556F:
 BYTE   W72
// 005   ----------------------------------------
 BYTE   W96
// 006   ----------------------------------------
 BYTE   W96
// 007   ----------------------------------------
 BYTE   W96
// 008   ----------------------------------------
 BYTE   W96
// 009   ----------------------------------------
 BYTE   W96
// 010   ----------------------------------------
 BYTE   W96
// 011   ----------------------------------------
 BYTE   W06
 BYTE   VOL   67*KirbySuperStarUltraTheStrongestKnightintheGalaxyRSflame_mvl/mxv
 BYTE   W12
 BYTE   PAN   c_v+43
 BYTE   W24
 BYTE   Bn5
 BYTE   N11  Cn2  v096
 BYTE   W12
 BYTE   PAN   c_v+0
 BYTE   N05  En1  v104
 BYTE   W06
 BYTE   N05
 BYTE   W06
 BYTE   PAN   c_v-15
 BYTE   N05  Dn1
 BYTE   W06
 BYTE   N05
 BYTE   W06
 BYTE   PAN   c_v-47
 BYTE   N05  Cn1
 BYTE   W06
 BYTE   N05
 BYTE   W06
 BYTE   PAN   c_v+43
 BYTE   N05  An0  v112
 BYTE   W06
// 012   ----------------------------------------
 BYTE   N05
 BYTE   W06
 BYTE   VOL   67*KirbySuperStarUltraTheStrongestKnightintheGalaxyRSflame_mvl/mxv
 BYTE   PAN   c_v+0
 BYTE   N17  Gn0  v096
 BYTE   W24
 BYTE   N17
 BYTE   W48
 BYTE   N17
 BYTE   W18
// 013   ----------------------------------------
Label_6_01EA55AC:
 BYTE   W06
 BYTE   VOL   67*KirbySuperStarUltraTheStrongestKnightintheGalaxyRSflame_mvl/mxv
 BYTE   N17  Gn0  v096
 BYTE   W36
 BYTE   N17
 BYTE   W36
 BYTE   En0
 BYTE   W18
 BYTE   PEND 
// 014   ----------------------------------------
Label_6_01EA55B8:
 BYTE   W06
 BYTE   VOL   67*KirbySuperStarUltraTheStrongestKnightintheGalaxyRSflame_mvl/mxv
 BYTE   PAN   c_v+0
 BYTE   N17  Gn0  v096
 BYTE   W24
 BYTE   N17
 BYTE   W48
 BYTE   N17
 BYTE   W18
 BYTE   PEND 
// 015   ----------------------------------------
 BYTE   PATT
  POIN2 Label_6_01EA55AC
// 016   ----------------------------------------
 BYTE   PATT
  POIN2 Label_6_01EA55B8
// 017   ----------------------------------------
 BYTE   PATT
  POIN2 Label_6_01EA55AC
// 018   ----------------------------------------
 BYTE   W06
 BYTE   VOL   67*KirbySuperStarUltraTheStrongestKnightintheGalaxyRSflame_mvl/mxv
 BYTE   PAN   c_v+0
 BYTE   N17  Gn0  v096
 BYTE   W90
// 019   ----------------------------------------
 BYTE   W06
 BYTE   VOL   67*KirbySuperStarUltraTheStrongestKnightintheGalaxyRSflame_mvl/mxv
 BYTE   W24
 BYTE   PAN   c_v+0
 BYTE   W48
 BYTE   Bn7
 BYTE   N05  As1
 BYTE   W06
 BYTE   PAN   c_v+37
 BYTE   N05  Ds1
 BYTE   W06
 BYTE   PAN   c_v-43
 BYTE   N05  Fs1
 BYTE   W06
// 020   ----------------------------------------
 BYTE   PAN   c_v-59
 BYTE   N05  Cs1
 BYTE   W96
// 021   ----------------------------------------
 BYTE   W96
// 022   ----------------------------------------
 BYTE   W96
// 023   ----------------------------------------
 BYTE   W96
// 024   ----------------------------------------
 BYTE   W96
// 025   ----------------------------------------
 BYTE   W96
// 026   ----------------------------------------
 BYTE   W96
// 027   ----------------------------------------
 BYTE   W96
// 028   ----------------------------------------
 BYTE   W96
// 029   ----------------------------------------
 BYTE   W96
// 030   ----------------------------------------
 BYTE   W96
// 031   ----------------------------------------
 BYTE   W96
// 032   ----------------------------------------
 BYTE   W96
// 033   ----------------------------------------
 BYTE   W96
// 034   ----------------------------------------
 BYTE   W96
// 035   ----------------------------------------
 BYTE   W54
 BYTE   VOL   67*KirbySuperStarUltraTheStrongestKnightintheGalaxyRSflame_mvl/mxv
 BYTE   W24
 BYTE   PAN   c_v+0
 BYTE   W18
// 036   ----------------------------------------
 BYTE   W06
 BYTE   Bn7
 BYTE   N05  As1
 BYTE   W12
 BYTE   N05
 BYTE   W12
 BYTE   N05
 BYTE   W06
 BYTE   PAN   c_v+37
 BYTE   N05  Ds1
 BYTE   W06
 BYTE   PAN   c_v-43
 BYTE   N05  Fs1
 BYTE   W06
 BYTE   PAN   c_v-59
 BYTE   N05  Cs1
 BYTE   W05
 BYTE   GoTo
  POIN2 Label_6_01EA556F
 BYTE   FINE

//**************** Track 8 (Midi-Chn.7) ****************//

KirbySuperStarUltraTheStrongestKnightintheGalaxyRSflame_008:
// 000   ----------------------------------------
 BYTE   KEYSH   KirbySuperStarUltraTheStrongestKnightintheGalaxyRSflame_key+0
 BYTE   VOICE   18
 BYTE   VOL   68*KirbySuperStarUltraTheStrongestKnightintheGalaxyRSflame_mvl/mxv
 BYTE   PAN   c_v+0
 BYTE   N44  En1  v072
 BYTE   W06
 BYTE   N11  Cs2
 BYTE   W72
 BYTE   PAN   c_v+0
 BYTE   W18
// 001   ----------------------------------------
 BYTE   W96
// 002   ----------------------------------------
 BYTE   W96
// 003   ----------------------------------------
 BYTE   W96
// 004   ----------------------------------------
 BYTE   W24
Label_7_01EA756A:
 BYTE   W72
// 005   ----------------------------------------
 BYTE   W96
// 006   ----------------------------------------
 BYTE   W96
// 007   ----------------------------------------
 BYTE   W96
// 008   ----------------------------------------
 BYTE   W96
// 009   ----------------------------------------
 BYTE   W96
// 010   ----------------------------------------
 BYTE   W96
// 011   ----------------------------------------
 BYTE   W96
// 012   ----------------------------------------
 BYTE   W96
// 013   ----------------------------------------
 BYTE   W96
// 014   ----------------------------------------
 BYTE   W96
// 015   ----------------------------------------
 BYTE   W96
// 016   ----------------------------------------
 BYTE   W96
// 017   ----------------------------------------
 BYTE   W96
// 018   ----------------------------------------
 BYTE   W06
 BYTE   VOL   68*KirbySuperStarUltraTheStrongestKnightintheGalaxyRSflame_mvl/mxv
 BYTE   PAN   c_v+56
 BYTE   N30  En2  v104
 BYTE   W32
 BYTE   PAN   c_v+21
 BYTE   N30  En2  v080
 BYTE   W32
 BYTE   PAN   c_v+2
 BYTE   N30  En2  v076
 BYTE   W24
 BYTE   W02
// 019   ----------------------------------------
 BYTE   W06
 BYTE   PAN   c_v-34
 BYTE   N30  En2  v072
 BYTE   W32
 BYTE   PAN   c_v-59
 BYTE   N36  En2  v068
 BYTE   W40
 BYTE   PAN   c_v+0
 BYTE   N23  Fn2  v104
 BYTE   W18
// 020   ----------------------------------------
 BYTE   W96
// 021   ----------------------------------------
 BYTE   W96
// 022   ----------------------------------------
 BYTE   W96
// 023   ----------------------------------------
 BYTE   W96
// 024   ----------------------------------------
 BYTE   W96
// 025   ----------------------------------------
 BYTE   W96
// 026   ----------------------------------------
 BYTE   W96
// 027   ----------------------------------------
 BYTE   W96
// 028   ----------------------------------------
 BYTE   W06
 BYTE   VOL   50*KirbySuperStarUltraTheStrongestKnightintheGalaxyRSflame_mvl/mxv
 BYTE   PAN   c_v+0
 BYTE   N11  As1
 BYTE   W12
 BYTE   N05
 BYTE   W06
 BYTE   N05
 BYTE   W06
 BYTE   N11
 BYTE   W12
 BYTE   N05
 BYTE   W06
 BYTE   N05
 BYTE   W06
 BYTE   N05
 BYTE   W06
 BYTE   N05
 BYTE   W06
 BYTE   N11
 BYTE   W12
 BYTE   N05
 BYTE   W06
 BYTE   N05
 BYTE   W06
 BYTE   N11
 BYTE   W06
// 029   ----------------------------------------
 BYTE   W06
 BYTE   N11
 BYTE   W12
 BYTE   N05
 BYTE   W06
 BYTE   N05
 BYTE   W06
 BYTE   N11
 BYTE   W12
 BYTE   N05
 BYTE   W06
 BYTE   N05
 BYTE   W06
 BYTE   N05
 BYTE   W06
 BYTE   N05
 BYTE   W06
 BYTE   N11
 BYTE   W12
 BYTE   PAN   c_v+0
 BYTE   N05
 BYTE   W06
 BYTE   N05
 BYTE   W06
 BYTE   N11
 BYTE   W06
// 030   ----------------------------------------
 BYTE   W06
 BYTE   N11
 BYTE   W12
 BYTE   N05
 BYTE   W06
 BYTE   N05
 BYTE   W06
 BYTE   N11
 BYTE   W12
 BYTE   N05
 BYTE   W06
 BYTE   N05
 BYTE   W06
 BYTE   N05
 BYTE   W06
 BYTE   N05
 BYTE   W06
 BYTE   N11
 BYTE   W12
 BYTE   N05
 BYTE   W06
 BYTE   N05
 BYTE   W06
 BYTE   N11
 BYTE   W06
// 031   ----------------------------------------
 BYTE   W06
 BYTE   N11
 BYTE   W12
 BYTE   N05
 BYTE   W06
 BYTE   N05
 BYTE   W06
 BYTE   N11
 BYTE   W12
 BYTE   N05
 BYTE   W06
 BYTE   N05
 BYTE   W06
 BYTE   N05
 BYTE   W06
 BYTE   N05
 BYTE   W06
 BYTE   N11
 BYTE   W12
 BYTE   N11
 BYTE   W12
 BYTE   N05
 BYTE   W06
// 032   ----------------------------------------
 BYTE   N05
 BYTE   W06
 BYTE   N05
 BYTE   W06
 BYTE   N05
 BYTE   W06
 BYTE   N11
 BYTE   W12
 BYTE   N05
 BYTE   W06
 BYTE   N05
 BYTE   W06
 BYTE   N11
 BYTE   W12
 BYTE   PAN   c_v+51
 BYTE   N11  An1  v112
 BYTE   W12
 BYTE   PAN   c_v-44
 BYTE   N05  Bn1
 BYTE   W06
 BYTE   PAN   c_v-35
 BYTE   N05
 BYTE   W06
 BYTE   PAN   c_v-10
 BYTE   N11
 BYTE   W12
 BYTE   PAN   c_v+38
 BYTE   N11
 BYTE   W06
// 033   ----------------------------------------
 BYTE   W06
 BYTE   PAN   c_v+2
 BYTE   N28  An1
 BYTE   W36
 BYTE   PAN   c_v+32
 BYTE   W12
 BYTE   N05  Bn1
 BYTE   W06
 BYTE   N11
 BYTE   W18
 BYTE   PAN   c_v-20
 BYTE   N05
 BYTE   W06
 BYTE   PAN   c_v-42
 BYTE   W06
 BYTE   Cn5
 BYTE   N05
 BYTE   W06
// 034   ----------------------------------------
 BYTE   PAN   c_v-1
 BYTE   W06
 BYTE   N23  En1
 BYTE   W24
 BYTE   PAN   c_v+25
 BYTE   N05  An1
 BYTE   W06
 BYTE   N05
 BYTE   W06
 BYTE   PAN   c_v+1
 BYTE   N11  An1  v120
 BYTE   W24
 BYTE   PAN   c_v-44
 BYTE   N05  Cn2  v112
 BYTE   W06
 BYTE   PAN   c_v-35
 BYTE   N05
 BYTE   W06
 BYTE   PAN   c_v-10
 BYTE   N11
 BYTE   W12
 BYTE   PAN   c_v+38
 BYTE   N11  Bn1
 BYTE   W06
// 035   ----------------------------------------
 BYTE   W06
 BYTE   PAN   c_v+2
 BYTE   N28  Gn1
 BYTE   W36
 BYTE   PAN   c_v+32
 BYTE   W12
 BYTE   N05  Cn2
 BYTE   W06
 BYTE   N11
 BYTE   W18
 BYTE   PAN   c_v-20
 BYTE   N05  Fn2
 BYTE   W06
 BYTE   PAN   c_v-42
 BYTE   N05
 BYTE   W06
 BYTE   PAN   c_v+20
 BYTE   N05
 BYTE   W06
// 036   ----------------------------------------
 BYTE   PAN   c_v-1
 BYTE   N05
 BYTE   W18
 BYTE   PAN   c_v-55
 BYTE   N05  Ds2
 BYTE   W06
 BYTE   PAN   c_v+25
 BYTE   N05
 BYTE   W18
 BYTE   PAN   c_v+1
 BYTE   N11  As1  v120
 BYTE   W11
 BYTE   GoTo
  POIN2 Label_7_01EA756A
 BYTE   FINE

//**************** Track 9 (Midi-Chn.8) ****************//

KirbySuperStarUltraTheStrongestKnightintheGalaxyRSflame_009:
// 000   ----------------------------------------
 BYTE   KEYSH   KirbySuperStarUltraTheStrongestKnightintheGalaxyRSflame_key+0
 BYTE   VOICE   127
 BYTE   VOL   62*KirbySuperStarUltraTheStrongestKnightintheGalaxyRSflame_mvl/mxv
 BYTE   W96
// 001   ----------------------------------------
 BYTE   W96
// 002   ----------------------------------------
 BYTE   W96
// 003   ----------------------------------------
 BYTE   W05
 BYTE   PAN   c_v+63
 BYTE   W01
 BYTE   Fs8
 BYTE   N22  Cn1  v072
 BYTE   W01
 BYTE   PAN   c_v+61
 BYTE   W01
 BYTE   Ds8
 BYTE   W01
 BYTE   Dn8
 BYTE   W01
 BYTE   Cs8
 BYTE   W01
 BYTE   Bn7
 BYTE   W01
 BYTE   As7
 BYTE   W01
 BYTE   An7
 BYTE   W01
 BYTE   Gn7
 BYTE   W01
 BYTE   Fs7
 BYTE   W01
 BYTE   Fn7
 BYTE   W01
 BYTE   Ds7
 BYTE   W01
 BYTE   Dn7
 BYTE   W01
 BYTE   Cs7
 BYTE   W01
 BYTE   Bn6
 BYTE   W01
 BYTE   As6
 BYTE   W01
 BYTE   An6
 BYTE   W01
 BYTE   Gn6
 BYTE   W01
 BYTE   Fs6
 BYTE   W01
 BYTE   Fn6
 BYTE   W01
 BYTE   Ds6
 BYTE   W01
 BYTE   Dn6
 BYTE   W01
 BYTE   Cs6
 BYTE   W01
 BYTE   Bn5
 BYTE   W01
 BYTE   As5
 BYTE   N22  Cn1  v068
 BYTE   W01
 BYTE   PAN   c_v+29
 BYTE   W01
 BYTE   Gn5
 BYTE   W01
 BYTE   Fs5
 BYTE   W01
 BYTE   Fn5
 BYTE   W01
 BYTE   Ds5
 BYTE   W01
 BYTE   Dn5
 BYTE   W01
 BYTE   Cs5
 BYTE   W01
 BYTE   Bn4
 BYTE   W01
 BYTE   As4
 BYTE   W01
 BYTE   An4
 BYTE   W01
 BYTE   Gn4
 BYTE   W01
 BYTE   Fs4
 BYTE   W01
 BYTE   Fn4
 BYTE   W01
 BYTE   Ds4
 BYTE   W01
 BYTE   Dn4
 BYTE   W01
 BYTE   Cn4
 BYTE   W01
 BYTE   Bn3
 BYTE   W01
 BYTE   As3
 BYTE   W01
 BYTE   Gs3
 BYTE   W01
 BYTE   Gn3
 BYTE   W01
 BYTE   Fs3
 BYTE   W01
 BYTE   En3
 BYTE   W01
 BYTE   Ds3
 BYTE   W01
 BYTE   Dn3
 BYTE   N22
 BYTE   W01
 BYTE   PAN   c_v-4
 BYTE   W01
 BYTE   Bn2
 BYTE   W01
 BYTE   As2
 BYTE   W01
 BYTE   Gs2
 BYTE   W01
 BYTE   Gn2
 BYTE   W01
 BYTE   Fs2
 BYTE   W01
 BYTE   En2
 BYTE   W01
 BYTE   Ds2
 BYTE   W01
 BYTE   Cs2
 BYTE   W01
 BYTE   Cn2
 BYTE   W01
 BYTE   Bn1
 BYTE   W01
 BYTE   An1
 BYTE   W01
 BYTE   Gs1
 BYTE   W01
 BYTE   Gn1
 BYTE   W01
 BYTE   Fn1
 BYTE   W01
 BYTE   En1
 BYTE   W01
 BYTE   Ds1
 BYTE   W01
 BYTE   Cs1
 BYTE   W01
 BYTE   Cn1
 BYTE   W01
 BYTE   Bn0
 BYTE   W01
 BYTE   An0
 BYTE   W01
 BYTE   Gs0
 BYTE   W01
 BYTE   Gn0
 BYTE   W01
 BYTE   Fn0
 BYTE   N22  Cn1  v076
 BYTE   W01
 BYTE   PAN   c_v-36
 BYTE   W01
 BYTE   Ds0
 BYTE   W01
 BYTE   Cs0
 BYTE   W01
 BYTE   Cn0
 BYTE   W01
 BYTE   AsM1
 BYTE   W01
 BYTE   AnM1
 BYTE   W01
 BYTE   GsM1
 BYTE   W01
 BYTE   FsM1
 BYTE   W01
 BYTE   FnM1
 BYTE   W01
 BYTE   EnM1
 BYTE   W01
 BYTE   DnM1
 BYTE   W01
 BYTE   CsM1
 BYTE   W01
 BYTE   CnM1
 BYTE   W01
 BYTE   AsM2
 BYTE   W01
 BYTE   AnM2
 BYTE   W01
 BYTE   GsM2
 BYTE   W01
 BYTE   FsM2
 BYTE   W01
// 004   ----------------------------------------
 BYTE   FnM2
 BYTE   W01
 BYTE   EnM2
 BYTE   W01
 BYTE   DnM2
 BYTE   W01
 BYTE   CsM2
 BYTE   W01
 BYTE   CsM2
 BYTE   W02
 BYTE   En3
 BYTE   N10  Cn1  v072
 BYTE   N06  Dn1  v092
 BYTE   W01
 BYTE   PAN   c_v-62
 BYTE   W01
 BYTE   EnM2
 BYTE   W01
 BYTE   FnM2
 BYTE   W01
 BYTE   GnM2
 BYTE   W01
 BYTE   AnM2
 BYTE   W01
 BYTE   BnM2
 BYTE   N11  Dn1  v100
 BYTE   W01
 BYTE   PAN   c_v-51
 BYTE   W01
 BYTE   DnM1
 BYTE   W01
 BYTE   EnM1
 BYTE   W01
 BYTE   FsM1
 BYTE   W01
 BYTE   GsM1
 BYTE   W01
 BYTE   AsM1
 BYTE   N10  Cn1  v060
 BYTE   W01
 BYTE   PAN   c_v-40
 BYTE   W01
 BYTE   Cs0
 BYTE   W01
 BYTE   Ds0
 BYTE   W01
 BYTE   Fn0
 BYTE   W01
 BYTE   Gn0
 BYTE   W01
Label_8_01EA8A80:
 BYTE   PAN   c_v-31
 BYTE   N06  Dn1  v100
 BYTE   W01
 BYTE   PAN   c_v-29
 BYTE   W01
 BYTE   Cn1
 BYTE   W01
 BYTE   Dn1
 BYTE   W01
 BYTE   En1
 BYTE   W01
 BYTE   Fn1
 BYTE   W01
 BYTE   Gs1
 BYTE   N10  Cn1  v060
 BYTE   N05  Dn1  v092
 BYTE   W01
 BYTE   PAN   c_v-19
 BYTE   W01
 BYTE   Bn1
 BYTE   W01
 BYTE   Cs2
 BYTE   W01
 BYTE   Ds2
 BYTE   W01
 BYTE   En2
 BYTE   W01
 BYTE   Gn2
 BYTE   N05
 BYTE   W01
 BYTE   PAN   c_v-8
 BYTE   W01
 BYTE   As2
 BYTE   W01
 BYTE   Cn3
 BYTE   W01
 BYTE   Dn3
 BYTE   W01
 BYTE   En3
 BYTE   W01
 BYTE   Fs3
 BYTE   N10  Cn1  v072
 BYTE   N11  Dn1  v100
 BYTE   W01
 BYTE   PAN   c_v+3
 BYTE   W01
 BYTE   An3
 BYTE   W01
 BYTE   Bn3
 BYTE   W01
 BYTE   Cn4
 BYTE   W01
 BYTE   Ds4
 BYTE   W01
 BYTE   Fn4
 BYTE   W01
 BYTE   Fs4
 BYTE   W01
 BYTE   Gs4
 BYTE   W01
 BYTE   As4
 BYTE   W01
 BYTE   Bn4
 BYTE   W01
 BYTE   Dn5
 BYTE   W01
 BYTE   Ds5
 BYTE   N10  Cn1  v060
 BYTE   N05  Dn1  v092
 BYTE   W01
 BYTE   PAN   c_v+25
 BYTE   W01
 BYTE   Gn5
 BYTE   W01
 BYTE   An5
 BYTE   W01
 BYTE   As5
 BYTE   W01
 BYTE   Cs6
 BYTE   W01
 BYTE   Dn6
 BYTE   N11  Dn1  v100
 BYTE   W01
 BYTE   PAN   c_v+36
 BYTE   W01
 BYTE   Fs6
 BYTE   W01
 BYTE   Gs6
 BYTE   W01
 BYTE   An6
 BYTE   W01
 BYTE   Cn7
 BYTE   W01
 BYTE   Cs7
 BYTE   N10  Cn1  v060
 BYTE   W01
 BYTE   PAN   c_v+47
 BYTE   W01
 BYTE   Fn7
 BYTE   W01
 BYTE   Fs7
 BYTE   W01
 BYTE   Gs7
 BYTE   W01
 BYTE   As7
 BYTE   W01
 BYTE   Cn8
 BYTE   N05  Dn1  v100
 BYTE   W01
 BYTE   PAN   c_v+58
 BYTE   W01
 BYTE   En8
 BYTE   W01
 BYTE   Fn8
 BYTE   W03
 BYTE   Gn8
 BYTE   N10  Cn1  v072
 BYTE   N11  Dn1  v100
 BYTE   W01
 BYTE   PAN   c_v+61
 BYTE   W01
 BYTE   Ds8
 BYTE   W01
 BYTE   Cs8
 BYTE   W01
 BYTE   Cn8
 BYTE   W01
 BYTE   As7
 BYTE   W01
 BYTE   Gs7
 BYTE   W01
 BYTE   Fs7
 BYTE   W01
 BYTE   En7
 BYTE   W01
 BYTE   Dn7
 BYTE   W01
 BYTE   Cs7
 BYTE   W01
 BYTE   Bn6
 BYTE   W01
 BYTE   An6
 BYTE   N10  Cn1  v060
 BYTE   N11  Dn1  v100
 BYTE   W01
 BYTE   PAN   c_v+40
 BYTE   W01
 BYTE   Fs6
 BYTE   W01
 BYTE   Ds6
 BYTE   W01
 BYTE   Dn6
 BYTE   W01
 BYTE   Cn6
 BYTE   W01
// 005   ----------------------------------------
Label_8_01EA8B42:
 BYTE   PAN   c_v+30
 BYTE   W01
 BYTE   An5
 BYTE   W01
 BYTE   Gn5
 BYTE   W01
 BYTE   Fn5
 BYTE   W01
 BYTE   Ds5
 BYTE   W01
 BYTE   Cs5
 BYTE   W01
 BYTE   En3
 BYTE   N10  Cn1  v060
 BYTE   N06  Dn1  v092
 BYTE   W01
 BYTE   PAN   c_v+18
 BYTE   W01
 BYTE   Gs4
 BYTE   W01
 BYTE   Fs4
 BYTE   W01
 BYTE   Fn4
 BYTE   W01
 BYTE   Dn4
 BYTE   W01
 BYTE   Cn4
 BYTE   N11  Dn1  v100
 BYTE   W01
 BYTE   PAN   c_v+7
 BYTE   W01
 BYTE   An3
 BYTE   W01
 BYTE   Gn3
 BYTE   W01
 BYTE   Fs3
 BYTE   W01
 BYTE   En3
 BYTE   W01
 BYTE   Dn3
 BYTE   N10  Cn1  v072
 BYTE   W01
 BYTE   PAN   c_v-4
 BYTE   W01
 BYTE   As2
 BYTE   W01
 BYTE   Gs2
 BYTE   W01
 BYTE   Gn2
 BYTE   W01
 BYTE   Fn2
 BYTE   W01
 BYTE   Ds2
 BYTE   N06  Dn1  v100
 BYTE   W01
 BYTE   PAN   c_v-15
 BYTE   W01
 BYTE   Bn1
 BYTE   W01
 BYTE   An1
 BYTE   W01
 BYTE   Gs1
 BYTE   W01
 BYTE   Fs1
 BYTE   W01
 BYTE   En1
 BYTE   N10  Cn1  v060
 BYTE   N05  Dn1  v092
 BYTE   W01
 BYTE   PAN   c_v-25
 BYTE   W01
 BYTE   Cn1
 BYTE   W01
 BYTE   Bn0
 BYTE   W01
 BYTE   An0
 BYTE   W01
 BYTE   Gn0
 BYTE   W01
 BYTE   Fn0
 BYTE   N05
 BYTE   W01
 BYTE   PAN   c_v-36
 BYTE   W01
 BYTE   Dn0
 BYTE   W01
 BYTE   Cn0
 BYTE   W01
 BYTE   AsM1
 BYTE   W01
 BYTE   GsM1
 BYTE   W01
 BYTE   FsM1
 BYTE   N10  Cn1  v060
 BYTE   N11  Dn1  v100
 BYTE   W01
 BYTE   PAN   c_v-47
 BYTE   W01
 BYTE   DsM1
 BYTE   W01
 BYTE   CsM1
 BYTE   W01
 BYTE   BnM2
 BYTE   W01
 BYTE   AnM2
 BYTE   W01
 BYTE   GsM2
 BYTE   W01
 BYTE   FsM2
 BYTE   W01
 BYTE   EnM2
 BYTE   W01
 BYTE   DnM2
 BYTE   W01
 BYTE   CsM2
 BYTE   W01
 BYTE   DnM2
 BYTE   W01
 BYTE   DsM2
 BYTE   N10  Cn1  v072
 BYTE   N05  Dn1  v092
 BYTE   W01
 BYTE   PAN   c_v-59
 BYTE   W01
 BYTE   FsM2
 BYTE   W01
 BYTE   GsM2
 BYTE   W01
 BYTE   AnM2
 BYTE   W01
 BYTE   AsM2
 BYTE   W01
 BYTE   CnM1
 BYTE   N11  Dn1  v100
 BYTE   W01
 BYTE   PAN   c_v-51
 BYTE   W01
 BYTE   DnM1
 BYTE   W01
 BYTE   EnM1
 BYTE   W01
 BYTE   FnM1
 BYTE   W01
 BYTE   FsM1
 BYTE   W01
 BYTE   GsM1
 BYTE   N10  Cn1  v060
 BYTE   W01
 BYTE   PAN   c_v-43
 BYTE   W01
 BYTE   BnM1
 BYTE   W01
 BYTE   Cn0
 BYTE   W01
 BYTE   Cs0
 BYTE   W01
 BYTE   Ds0
 BYTE   W01
 BYTE   En0
 BYTE   N05  Dn1  v100
 BYTE   W01
 BYTE   PAN   c_v-34
 BYTE   W01
 BYTE   Gn0
 BYTE   W01
 BYTE   An0
 BYTE   W01
 BYTE   As0
 BYTE   W01
 BYTE   Bn0
 BYTE   W01
 BYTE   Cs1
 BYTE   N10  Cn1  v060
 BYTE   N11  Dn1  v100
 BYTE   W01
 BYTE   PAN   c_v-26
 BYTE   W01
 BYTE   En1
 BYTE   W01
 BYTE   Fn1
 BYTE   W01
 BYTE   Gn1
 BYTE   W01
 BYTE   Gs1
 BYTE   W01
 BYTE   An1
 BYTE   W01
 BYTE   Bn1
 BYTE   W01
 BYTE   Cn2
 BYTE   W01
 BYTE   Cs2
 BYTE   W01
 BYTE   Ds2
 BYTE   W01
 BYTE   En2
 BYTE   W01
 BYTE   Fs2
 BYTE   N10  Cn1  v072
 BYTE   N11  Dn1  v100
 BYTE   W01
 BYTE   PAN   c_v-9
 BYTE   W01
 BYTE   Gs2
 BYTE   W01
 BYTE   As2
 BYTE   W01
 BYTE   Bn2
 BYTE   W01
 BYTE   Cn3
 BYTE   W01
 BYTE   PEND 
// 006   ----------------------------------------
 BYTE   Dn3
 BYTE   W01
 BYTE   Ds3
 BYTE   W01
 BYTE   Fn3
 BYTE   W01
 BYTE   Fs3
 BYTE   W01
 BYTE   Gs3
 BYTE   W01
 BYTE   An3
 BYTE   W01
 BYTE   En3
 BYTE   N10  Cn1  v060
 BYTE   N06  Dn1  v092
 BYTE   W01
 BYTE   PAN   c_v+8
 BYTE   W01
 BYTE   Cs4
 BYTE   W01
 BYTE   Ds4
 BYTE   W01
 BYTE   En4
 BYTE   W01
 BYTE   Fs4
 BYTE   W01
 BYTE   Gn4
 BYTE   N11  Dn1  v100
 BYTE   W01
 BYTE   PAN   c_v+17
 BYTE   W01
 BYTE   As4
 BYTE   W01
 BYTE   Bn4
 BYTE   W01
 BYTE   Cs5
 BYTE   W01
 BYTE   Dn5
 BYTE   W01
 BYTE   Ds5
 BYTE   N10  Cn1  v060
 BYTE   W01
 BYTE   PAN   c_v+25
 BYTE   W01
 BYTE   Fs5
 BYTE   W01
 BYTE   Gn5
 BYTE   W01
 BYTE   An5
 BYTE   W01
 BYTE   As5
 BYTE   W01
 BYTE   Bn5
 BYTE   N06  Dn1  v100
 BYTE   W01
 BYTE   PAN   c_v+33
 BYTE   W01
 BYTE   Dn6
 BYTE   W01
 BYTE   En6
 BYTE   W01
 BYTE   Fn6
 BYTE   W01
 BYTE   Gn6
 BYTE   W01
 BYTE   Gs6
 BYTE   N10  Cn1  v072
 BYTE   N05  Dn1  v092
 BYTE   W01
 BYTE   PAN   c_v+41
 BYTE   W01
 BYTE   Bn6
 BYTE   W01
 BYTE   Cn7
 BYTE   W01
 BYTE   Dn7
 BYTE   W01
 BYTE   Ds7
 BYTE   W01
 BYTE   Fn7
 BYTE   N05
 BYTE   W01
 BYTE   PAN   c_v+50
 BYTE   W01
 BYTE   Gs7
 BYTE   W01
 BYTE   An7
 BYTE   W01
 BYTE   As7
 BYTE   W01
 BYTE   Cn8
 BYTE   W01
 BYTE   Cs8
 BYTE   N10  Cn1  v060
 BYTE   N11  Dn1  v100
 BYTE   W01
 BYTE   PAN   c_v+58
 BYTE   W01
 BYTE   En8
 BYTE   W01
 BYTE   Fn8
 BYTE   W01
 BYTE   Gn8
 BYTE   W08
 BYTE   Gn8
 BYTE   N10  Cn1  v060
 BYTE   N05  Dn1  v092
 BYTE   W01
 BYTE   PAN   c_v+61
 BYTE   W01
 BYTE   Ds8
 BYTE   W01
 BYTE   Cs8
 BYTE   W01
 BYTE   Cn8
 BYTE   W01
 BYTE   As7
 BYTE   W01
 BYTE   Gs7
 BYTE   N11  Dn1  v100
 BYTE   W01
 BYTE   PAN   c_v+50
 BYTE   W01
 BYTE   Fn7
 BYTE   W01
 BYTE   Ds7
 BYTE   W01
 BYTE   Cs7
 BYTE   W01
 BYTE   Cn7
 BYTE   W01
 BYTE   As6
 BYTE   N10  Cn1  v072
 BYTE   W01
 BYTE   PAN   c_v+40
 BYTE   W01
 BYTE   Fs6
 BYTE   W01
 BYTE   Fn6
 BYTE   W01
 BYTE   Ds6
 BYTE   W01
 BYTE   Cs6
 BYTE   W01
 BYTE   Bn5
 BYTE   N05  Dn1  v100
 BYTE   W01
 BYTE   PAN   c_v+29
 BYTE   W01
 BYTE   Gn5
 BYTE   W01
 BYTE   Fs5
 BYTE   W01
 BYTE   En5
 BYTE   W01
 BYTE   Dn5
 BYTE   W01
 BYTE   Cs5
 BYTE   N10  Cn1  v060
 BYTE   N11  Dn1  v100
 BYTE   W01
 BYTE   PAN   c_v+19
 BYTE   W01
 BYTE   An4
 BYTE   W01
 BYTE   Gn4
 BYTE   W01
 BYTE   Fs4
 BYTE   W01
 BYTE   En4
 BYTE   W01
 BYTE   Dn4
 BYTE   W01
 BYTE   Cn4
 BYTE   W01
 BYTE   Bn3
 BYTE   W01
 BYTE   An3
 BYTE   W01
 BYTE   Gn3
 BYTE   W01
 BYTE   Fs3
 BYTE   W01
 BYTE   En3
 BYTE   N10  Cn1  v060
 BYTE   N11  Dn1  v100
 BYTE   W01
 BYTE   PAN   c_v-2
 BYTE   W01
 BYTE   Cn3
 BYTE   W01
 BYTE   As2
 BYTE   W01
 BYTE   Gs2
 BYTE   W01
 BYTE   Gn2
 BYTE   W01
// 007   ----------------------------------------
 BYTE   Fn2
 BYTE   W01
 BYTE   Ds2
 BYTE   W01
 BYTE   Cs2
 BYTE   W01
 BYTE   Cn2
 BYTE   W01
 BYTE   As1
 BYTE   W01
 BYTE   Gs1
 BYTE   W01
 BYTE   En3
 BYTE   N10  Cn1  v072
 BYTE   N06  Dn1  v092
 BYTE   W01
 BYTE   PAN   c_v-23
 BYTE   W01
 BYTE   Ds1
 BYTE   W01
 BYTE   Cs1
 BYTE   W01
 BYTE   Cn1
 BYTE   W01
 BYTE   As0
 BYTE   W01
 BYTE   Gs0
 BYTE   N11  Dn1  v100
 BYTE   W01
 BYTE   PAN   c_v-34
 BYTE   W01
 BYTE   En0
 BYTE   W01
 BYTE   Ds0
 BYTE   W01
 BYTE   Cs0
 BYTE   W01
 BYTE   BnM1
 BYTE   W01
 BYTE   AnM1
 BYTE   N10  Cn1  v060
 BYTE   W01
 BYTE   PAN   c_v-44
 BYTE   W01
 BYTE   FsM1
 BYTE   W01
 BYTE   EnM1
 BYTE   W01
 BYTE   DnM1
 BYTE   W01
 BYTE   CsM1
 BYTE   W01
 BYTE   BnM2
 BYTE   N06  Dn1  v100
 BYTE   W01
 BYTE   PAN   c_v-55
 BYTE   W01
 BYTE   GsM2
 BYTE   W01
 BYTE   FsM2
 BYTE   W01
 BYTE   EnM2
 BYTE   W01
 BYTE   DnM2
 BYTE   W01
 BYTE   DnM2
 BYTE   N10  Cn1  v060
 BYTE   N05  Dn1  v092
 BYTE   W01
 BYTE   PAN   c_v-60
 BYTE   W01
 BYTE   FnM2
 BYTE   W01
 BYTE   GnM2
 BYTE   W01
 BYTE   AnM2
 BYTE   W01
 BYTE   AsM2
 BYTE   W01
 BYTE   CnM1
 BYTE   N05
 BYTE   W01
 BYTE   PAN   c_v-50
 BYTE   W01
 BYTE   EnM1
 BYTE   W01
 BYTE   FnM1
 BYTE   W01
 BYTE   GnM1
 BYTE   W01
 BYTE   AnM1
 BYTE   W01
 BYTE   AsM1
 BYTE   N10  Cn1  v072
 BYTE   N11  Dn1  v100
 BYTE   W01
 BYTE   PAN   c_v-40
 BYTE   W01
 BYTE   Dn0
 BYTE   W01
 BYTE   En0
 BYTE   W01
 BYTE   Fn0
 BYTE   W01
 BYTE   Gn0
 BYTE   W01
 BYTE   An0
 BYTE   W01
 BYTE   Bn0
 BYTE   W01
 BYTE   Cn1
 BYTE   W01
 BYTE   Dn1
 BYTE   W01
 BYTE   En1
 BYTE   W01
 BYTE   Fn1
 BYTE   W01
 BYTE   Gn1
 BYTE   N10  Cn1  v060
 BYTE   N05  Dn1  v092
 BYTE   W01
 BYTE   PAN   c_v-19
 BYTE   W01
 BYTE   Bn1
 BYTE   W01
 BYTE   Cn2
 BYTE   W01
 BYTE   Dn2
 BYTE   W01
 BYTE   En2
 BYTE   W01
 BYTE   Fs2
 BYTE   N11  Dn1  v100
 BYTE   W01
 BYTE   PAN   c_v-9
 BYTE   W01
 BYTE   An2
 BYTE   W01
 BYTE   Bn2
 BYTE   W01
 BYTE   Cn3
 BYTE   W01
 BYTE   Dn3
 BYTE   W01
 BYTE   En3
 BYTE   N10  Cn1  v060
 BYTE   W01
 BYTE   PAN   c_v+1
 BYTE   W01
 BYTE   Gn3
 BYTE   W01
 BYTE   Gs3
 BYTE   W01
 BYTE   As3
 BYTE   W01
 BYTE   Cn4
 BYTE   W01
 BYTE   Dn4
 BYTE   N05  Dn1  v100
 BYTE   W01
 BYTE   PAN   c_v+11
 BYTE   W01
 BYTE   Fn4
 BYTE   W01
 BYTE   Gn4
 BYTE   W01
 BYTE   An4
 BYTE   W01
 BYTE   As4
 BYTE   W01
 BYTE   Cn5
 BYTE   N10  Cn1  v072
 BYTE   N11  Dn1  v100
 BYTE   W01
 BYTE   PAN   c_v+22
 BYTE   W01
 BYTE   Ds5
 BYTE   W01
 BYTE   Fn5
 BYTE   W01
 BYTE   Gn5
 BYTE   W01
 BYTE   An5
 BYTE   W01
 BYTE   As5
 BYTE   W01
 BYTE   Cn6
 BYTE   W01
 BYTE   Dn6
 BYTE   W01
 BYTE   Ds6
 BYTE   W01
 BYTE   Fn6
 BYTE   W01
 BYTE   Gn6
 BYTE   W01
 BYTE   An6
 BYTE   N10  Cn1  v060
 BYTE   N11  Dn1  v100
 BYTE   W01
 BYTE   PAN   c_v+42
 BYTE   W01
 BYTE   Cn7
 BYTE   W01
 BYTE   Dn7
 BYTE   W01
 BYTE   En7
 BYTE   W01
 BYTE   Fn7
 BYTE   W01
// 008   ----------------------------------------
 BYTE   Gn7
 BYTE   W01
 BYTE   An7
 BYTE   W01
 BYTE   As7
 BYTE   W01
 BYTE   Cn8
 BYTE   W01
 BYTE   Dn8
 BYTE   W01
 BYTE   En8
 BYTE   W01
 BYTE   En3
 BYTE   N10  Cn1  v060
 BYTE   N06  Dn1  v092
 BYTE   W01
 BYTE   PAN   c_v+60
 BYTE   W01
 BYTE   Dn8
 BYTE   W01
 BYTE   Cs8
 BYTE   W01
 BYTE   Bn7
 BYTE   W01
 BYTE   An7
 BYTE   W01
 BYTE   Gs7
 BYTE   N11  Dn1  v100
 BYTE   W01
 BYTE   PAN   c_v+50
 BYTE   W01
 BYTE   En7
 BYTE   W01
 BYTE   Dn7
 BYTE   W01
 BYTE   Cs7
 BYTE   W01
 BYTE   Bn6
 BYTE   W01
 BYTE   An6
 BYTE   N10  Cn1  v072
 BYTE   W01
 BYTE   PAN   c_v+40
 BYTE   W01
 BYTE   Fs6
 BYTE   W01
 BYTE   Ds6
 BYTE   W01
 BYTE   Dn6
 BYTE   W01
 BYTE   Cn6
 BYTE   W01
 BYTE   As5
 BYTE   N06  Dn1  v100
 BYTE   W01
 BYTE   PAN   c_v+29
 BYTE   W01
 BYTE   Gn5
 BYTE   W01
 BYTE   Fn5
 BYTE   W01
 BYTE   Ds5
 BYTE   W01
 BYTE   Dn5
 BYTE   W01
 BYTE   Cn5
 BYTE   N10  Cn1  v060
 BYTE   N05  Dn1  v092
 BYTE   W01
 BYTE   PAN   c_v+18
 BYTE   W01
 BYTE   An4
 BYTE   W01
 BYTE   Gn4
 BYTE   W01
 BYTE   Fn4
 BYTE   W01
 BYTE   Ds4
 BYTE   W01
 BYTE   Cs4
 BYTE   N05
 BYTE   W01
 BYTE   PAN   c_v+7
 BYTE   W01
 BYTE   As3
 BYTE   W01
 BYTE   Gs3
 BYTE   W01
 BYTE   Fs3
 BYTE   W01
 BYTE   En3
 BYTE   W01
 BYTE   Ds3
 BYTE   N10  Cn1  v060
 BYTE   N11  Dn1  v100
 BYTE   W01
 BYTE   PAN   c_v-3
 BYTE   W01
 BYTE   Bn2
 BYTE   W01
 BYTE   As2
 BYTE   W01
 BYTE   Gs2
 BYTE   W01
 BYTE   Fs2
 BYTE   W01
 BYTE   En2
 BYTE   W01
 BYTE   Ds2
 BYTE   W01
 BYTE   Cn2
 BYTE   W01
 BYTE   Bn1
 BYTE   W01
 BYTE   An1
 BYTE   W01
 BYTE   Gn1
 BYTE   W01
 BYTE   Fn1
 BYTE   N10  Cn1  v072
 BYTE   N05  Dn1  v092
 BYTE   W01
 BYTE   PAN   c_v-24
 BYTE   W01
 BYTE   Dn1
 BYTE   W01
 BYTE   Cn1
 BYTE   W01
 BYTE   Bn0
 BYTE   W01
 BYTE   An0
 BYTE   W01
 BYTE   Gn0
 BYTE   N11  Dn1  v100
 BYTE   W01
 BYTE   PAN   c_v-35
 BYTE   W01
 BYTE   En0
 BYTE   W01
 BYTE   Dn0
 BYTE   W01
 BYTE   Cn0
 BYTE   W01
 BYTE   AsM1
 BYTE   W01
 BYTE   GsM1
 BYTE   N10  Cn1  v060
 BYTE   W01
 BYTE   PAN   c_v-46
 BYTE   W01
 BYTE   FnM1
 BYTE   W01
 BYTE   DsM1
 BYTE   W01
 BYTE   CsM1
 BYTE   W01
 BYTE   CnM1
 BYTE   W01
 BYTE   AsM2
 BYTE   N05  Dn1  v100
 BYTE   W01
 BYTE   PAN   c_v-56
 BYTE   W01
 BYTE   FsM2
 BYTE   W01
 BYTE   FnM2
 BYTE   W01
 BYTE   DsM2
 BYTE   W01
 BYTE   CnM2
 BYTE   W01
 BYTE   CsM2
 BYTE   N10  Cn1  v060
 BYTE   N11  Dn1  v100
 BYTE   W01
 BYTE   PAN   c_v-61
 BYTE   W01
 BYTE   FnM2
 BYTE   W01
 BYTE   FsM2
 BYTE   W01
 BYTE   GsM2
 BYTE   W01
 BYTE   AsM2
 BYTE   W01
 BYTE   CnM1
 BYTE   W01
 BYTE   CsM1
 BYTE   W01
 BYTE   DsM1
 BYTE   W01
 BYTE   FnM1
 BYTE   W01
 BYTE   FsM1
 BYTE   W01
 BYTE   GsM1
 BYTE   W01
 BYTE   AsM1
 BYTE   N10  Cn1  v072
 BYTE   N11  Dn1  v100
 BYTE   W01
 BYTE   PAN   c_v-40
 BYTE   W01
 BYTE   Cs0
 BYTE   W01
 BYTE   Ds0
 BYTE   W01
 BYTE   Fn0
 BYTE   W01
 BYTE   Gn0
 BYTE   W01
// 009   ----------------------------------------
 BYTE   Gs0
 BYTE   W01
 BYTE   As0
 BYTE   W01
 BYTE   Cn1
 BYTE   W01
 BYTE   Cs1
 BYTE   W01
 BYTE   Ds1
 BYTE   W01
 BYTE   Fn1
 BYTE   W01
 BYTE   En3
 BYTE   N10  Cn1  v060
 BYTE   N06  Dn1  v092
 BYTE   W01
 BYTE   PAN   c_v-19
 BYTE   W01
 BYTE   Bn1
 BYTE   W01
 BYTE   Cn2
 BYTE   W01
 BYTE   Dn2
 BYTE   W01
 BYTE   En2
 BYTE   W01
 BYTE   Fs2
 BYTE   N11  Dn1  v100
 BYTE   W01
 BYTE   PAN   c_v-9
 BYTE   W01
 BYTE   An2
 BYTE   W01
 BYTE   Bn2
 BYTE   W01
 BYTE   Cn3
 BYTE   W01
 BYTE   Dn3
 BYTE   W01
 BYTE   En3
 BYTE   N10  Cn1  v060
 BYTE   W01
 BYTE   PAN   c_v+2
 BYTE   W01
 BYTE   Gn3
 BYTE   W01
 BYTE   An3
 BYTE   W01
 BYTE   Bn3
 BYTE   W01
 BYTE   Cn4
 BYTE   W01
 BYTE   Dn4
 BYTE   N06  Dn1  v100
 BYTE   W01
 BYTE   PAN   c_v+12
 BYTE   W01
 BYTE   Fs4
 BYTE   W01
 BYTE   Gn4
 BYTE   W01
 BYTE   An4
 BYTE   W01
 BYTE   Bn4
 BYTE   W01
 BYTE   Cs5
 BYTE   N10  Cn1  v072
 BYTE   N05  Dn1  v092
 BYTE   W01
 BYTE   PAN   c_v+23
 BYTE   W01
 BYTE   Fn5
 BYTE   W01
 BYTE   Fs5
 BYTE   W01
 BYTE   Gs5
 BYTE   W01
 BYTE   As5
 BYTE   W01
 BYTE   Bn5
 BYTE   N05
 BYTE   W01
 BYTE   PAN   c_v+33
 BYTE   W01
 BYTE   Ds6
 BYTE   W01
 BYTE   Fn6
 BYTE   W01
 BYTE   Fs6
 BYTE   W01
 BYTE   Gs6
 BYTE   W01
 BYTE   As6
 BYTE   N10  Cn1  v060
 BYTE   N11  Dn1  v100
 BYTE   W01
 BYTE   PAN   c_v+44
 BYTE   W01
 BYTE   Cs7
 BYTE   W01
 BYTE   Ds7
 BYTE   W01
 BYTE   Fn7
 BYTE   W01
 BYTE   Fs7
 BYTE   W01
 BYTE   Gs7
 BYTE   W01
 BYTE   As7
 BYTE   W01
 BYTE   Cn8
 BYTE   W01
 BYTE   Cs8
 BYTE   W01
 BYTE   Ds8
 BYTE   W01
 BYTE   Fn8
 BYTE   W01
 BYTE   Fs8
 BYTE   N10  Cn1  v060
 BYTE   N05  Dn1  v092
 BYTE   W01
 BYTE   PAN   c_v+60
 BYTE   W01
 BYTE   Cs8
 BYTE   W01
 BYTE   As7
 BYTE   W01
 BYTE   Gs7
 BYTE   W01
 BYTE   Fn7
 BYTE   W01
 BYTE   Dn7
 BYTE   N11  Dn1  v100
 BYTE   W01
 BYTE   PAN   c_v+43
 BYTE   W01
 BYTE   An6
 BYTE   W01
 BYTE   Fs6
 BYTE   W01
 BYTE   Ds6
 BYTE   W01
 BYTE   Cs6
 BYTE   W01
 BYTE   As5
 BYTE   N10  Cn1  v072
 BYTE   W01
 BYTE   PAN   c_v+27
 BYTE   W01
 BYTE   En5
 BYTE   W01
 BYTE   Dn5
 BYTE   W01
 BYTE   Bn4
 BYTE   W01
 BYTE   Gs4
 BYTE   W01
 BYTE   Fn4
 BYTE   N05  Dn1  v100
 BYTE   W01
 BYTE   PAN   c_v+11
 BYTE   W01
 BYTE   Cn4
 BYTE   W01
 BYTE   An3
 BYTE   W01
 BYTE   Gn3
 BYTE   W01
 BYTE   En3
 BYTE   W01
 BYTE   Cs3
 BYTE   N10  Cn1  v060
 BYTE   N11  Dn1  v100
 BYTE   W01
 BYTE   PAN   c_v-6
 BYTE   W01
 BYTE   Gs2
 BYTE   W01
 BYTE   Fn2
 BYTE   W01
 BYTE   Dn2
 BYTE   W01
 BYTE   Cn2
 BYTE   W01
 BYTE   An1
 BYTE   W01
 BYTE   Fs1
 BYTE   W01
 BYTE   Ds1
 BYTE   W01
 BYTE   Cs1
 BYTE   W01
 BYTE   As0
 BYTE   W01
 BYTE   Gn0
 BYTE   W01
 BYTE   En0
 BYTE   N10  Cn1  v060
 BYTE   N11  Dn1  v100
 BYTE   W01
 BYTE   PAN   c_v-38
 BYTE   W01
 BYTE   BnM1
 BYTE   W01
 BYTE   GsM1
 BYTE   W01
 BYTE   FsM1
 BYTE   W01
 BYTE   DsM1
 BYTE   W01
// 010   ----------------------------------------
 BYTE   CnM1
 BYTE   W01
 BYTE   AnM2
 BYTE   W01
 BYTE   GnM2
 BYTE   W01
 BYTE   EnM2
 BYTE   W01
 BYTE   CsM2
 BYTE   W02
 BYTE   En3
 BYTE   N10  Cn1  v072
 BYTE   N06  Dn1  v092
 BYTE   W01
 BYTE   PAN   c_v-62
 BYTE   W01
 BYTE   EnM2
 BYTE   W01
 BYTE   FnM2
 BYTE   W01
 BYTE   GnM2
 BYTE   W01
 BYTE   AnM2
 BYTE   W01
 BYTE   BnM2
 BYTE   N11  Dn1  v100
 BYTE   W01
 BYTE   PAN   c_v-51
 BYTE   W01
 BYTE   DnM1
 BYTE   W01
 BYTE   EnM1
 BYTE   W01
 BYTE   FsM1
 BYTE   W01
 BYTE   GsM1
 BYTE   W01
 BYTE   AsM1
 BYTE   N10  Cn1  v060
 BYTE   W01
 BYTE   PAN   c_v-40
 BYTE   W01
 BYTE   Cs0
 BYTE   W01
 BYTE   Ds0
 BYTE   W01
 BYTE   Fn0
 BYTE   W01
 BYTE   Gn0
 BYTE   W01
 BYTE   An0
 BYTE   N06  Dn1  v100
 BYTE   W01
 BYTE   PAN   c_v-29
 BYTE   W01
 BYTE   Cn1
 BYTE   W01
 BYTE   Dn1
 BYTE   W01
 BYTE   En1
 BYTE   W01
 BYTE   Fn1
 BYTE   W01
 BYTE   Gs1
 BYTE   N10  Cn1  v060
 BYTE   N05  Dn1  v092
 BYTE   W01
 BYTE   PAN   c_v-19
 BYTE   W01
 BYTE   Bn1
 BYTE   W01
 BYTE   Cs2
 BYTE   W01
 BYTE   Ds2
 BYTE   W01
 BYTE   En2
 BYTE   W01
 BYTE   Gn2
 BYTE   N05
 BYTE   W01
 BYTE   PAN   c_v-8
 BYTE   W01
 BYTE   As2
 BYTE   W01
 BYTE   Cn3
 BYTE   W01
 BYTE   Dn3
 BYTE   W01
 BYTE   En3
 BYTE   W01
 BYTE   Fs3
 BYTE   N10  Cn1  v072
 BYTE   N11  Dn1  v100
 BYTE   W01
 BYTE   PAN   c_v+3
 BYTE   W01
 BYTE   An3
 BYTE   W01
 BYTE   Bn3
 BYTE   W01
 BYTE   Cn4
 BYTE   W01
 BYTE   Ds4
 BYTE   W01
 BYTE   Fn4
 BYTE   W01
 BYTE   Fs4
 BYTE   W01
 BYTE   Gs4
 BYTE   W01
 BYTE   As4
 BYTE   W01
 BYTE   Bn4
 BYTE   W01
 BYTE   Dn5
 BYTE   W01
 BYTE   Ds5
 BYTE   N10  Cn1  v060
 BYTE   N05  Dn1  v092
 BYTE   W01
 BYTE   PAN   c_v+25
 BYTE   W01
 BYTE   Gn5
 BYTE   W01
 BYTE   An5
 BYTE   W01
 BYTE   As5
 BYTE   W01
 BYTE   Cs6
 BYTE   W01
 BYTE   Dn6
 BYTE   N11  Dn1  v100
 BYTE   W01
 BYTE   PAN   c_v+36
 BYTE   W01
 BYTE   Fs6
 BYTE   W01
 BYTE   Gs6
 BYTE   W01
 BYTE   An6
 BYTE   W01
 BYTE   Cn7
 BYTE   W01
 BYTE   Cs7
 BYTE   N10  Cn1  v060
 BYTE   W01
 BYTE   PAN   c_v+47
 BYTE   W01
 BYTE   Fn7
 BYTE   W01
 BYTE   Fs7
 BYTE   W01
 BYTE   Gs7
 BYTE   W01
 BYTE   As7
 BYTE   W01
 BYTE   Cn8
 BYTE   N05  Dn1  v100
 BYTE   W01
 BYTE   PAN   c_v+58
 BYTE   W01
 BYTE   En8
 BYTE   W01
 BYTE   Fn8
 BYTE   W03
 BYTE   Gn8
 BYTE   N10  Cn1  v072
 BYTE   N11  Dn1  v100
 BYTE   W01
 BYTE   PAN   c_v+61
 BYTE   W01
 BYTE   Ds8
 BYTE   W01
 BYTE   Cs8
 BYTE   W01
 BYTE   Cn8
 BYTE   W01
 BYTE   As7
 BYTE   W01
 BYTE   Gs7
 BYTE   W01
 BYTE   Fs7
 BYTE   W01
 BYTE   En7
 BYTE   W01
 BYTE   Dn7
 BYTE   W01
 BYTE   Cs7
 BYTE   W01
 BYTE   Bn6
 BYTE   W01
 BYTE   An6
 BYTE   N10  Cn1  v060
 BYTE   N11  Dn1  v100
 BYTE   W01
 BYTE   PAN   c_v+40
 BYTE   W01
 BYTE   Fs6
 BYTE   W01
 BYTE   Ds6
 BYTE   W01
 BYTE   Dn6
 BYTE   W01
 BYTE   Cn6
 BYTE   W01
// 011   ----------------------------------------
 BYTE   PATT
  POIN2 Label_8_01EA8B42
// 012   ----------------------------------------
 BYTE   PAN   c_v-2
 BYTE   W01
 BYTE   Ds3
 BYTE   W01
 BYTE   Fn3
 BYTE   W01
 BYTE   Fs3
 BYTE   W01
 BYTE   Gs3
 BYTE   W01
 BYTE   An3
 BYTE   W48
 BYTE   W01
 BYTE   N23  Fn0  v092
 BYTE   W42
// 013   ----------------------------------------
Label_8_01EA915F:
 BYTE   W18
 BYTE   N23  Fn0  v072
 BYTE   W36
 BYTE   Fn0  v092
 BYTE   W42
 BYTE   PEND 
// 014   ----------------------------------------
 BYTE   W54
 BYTE   N23
 BYTE   W42
// 015   ----------------------------------------
 BYTE   PATT
  POIN2 Label_8_01EA915F
// 016   ----------------------------------------
 BYTE   W54
 BYTE   N23  Fn0  v092
 BYTE   W42
// 017   ----------------------------------------
 BYTE   PATT
  POIN2 Label_8_01EA915F
// 018   ----------------------------------------
 BYTE   W06
 BYTE   N23  Fn0  v092
 BYTE   W48
 BYTE   N23
 BYTE   W42
// 019   ----------------------------------------
 BYTE   W18
 BYTE   Fn0  v072
 BYTE   W36
 BYTE   Fn0  v092
 BYTE   W24
 BYTE   N05
 BYTE   W06
 BYTE   N05
 BYTE   W06
 BYTE   N05
 BYTE   W06
// 020   ----------------------------------------
 BYTE   N05
 BYTE   W06
 BYTE   PAN   c_v+0
 BYTE   N10  Cn1  v072
 BYTE   N05  Dn1  v112
 BYTE   W01
 BYTE   PAN   c_v-62
 BYTE   W01
 BYTE   EnM2
 BYTE   W01
 BYTE   FnM2
 BYTE   W01
 BYTE   GnM2
 BYTE   W01
 BYTE   AnM2
 BYTE   W01
 BYTE   BnM2
 BYTE   N05
 BYTE   W01
 BYTE   PAN   c_v-51
 BYTE   W01
 BYTE   DnM1
 BYTE   W01
 BYTE   EnM1
 BYTE   W01
 BYTE   FsM1
 BYTE   W01
 BYTE   GsM1
 BYTE   W01
 BYTE   AsM1
 BYTE   N10  Cn1  v060
 BYTE   N11  Dn1  v092
 BYTE   W01
 BYTE   PAN   c_v-40
 BYTE   W01
 BYTE   Cs0
 BYTE   W01
 BYTE   Ds0
 BYTE   W01
 BYTE   Fn0
 BYTE   W01
 BYTE   Gn0
 BYTE   W01
 BYTE   An0
 BYTE   W01
 BYTE   Bn0
 BYTE   W01
 BYTE   Cn1
 BYTE   W01
 BYTE   Dn1
 BYTE   W01
 BYTE   En1
 BYTE   W01
 BYTE   Fn1
 BYTE   W01
 BYTE   Gs1
 BYTE   N10  Cn1  v060
 BYTE   N05  Dn1  v112
 BYTE   W01
 BYTE   PAN   c_v-19
 BYTE   W01
 BYTE   Bn1
 BYTE   W01
 BYTE   Cs2
 BYTE   W01
 BYTE   Ds2
 BYTE   W01
 BYTE   En2
 BYTE   W01
 BYTE   Gn2
 BYTE   N05
 BYTE   W01
 BYTE   PAN   c_v-8
 BYTE   W01
 BYTE   As2
 BYTE   W01
 BYTE   Cn3
 BYTE   W01
 BYTE   Dn3
 BYTE   W01
 BYTE   En3
 BYTE   W01
 BYTE   Fs3
 BYTE   N10  Cn1  v072
 BYTE   N11  Dn1  v092
 BYTE   W01
 BYTE   PAN   c_v+3
 BYTE   W01
 BYTE   An3
 BYTE   W01
 BYTE   Bn3
 BYTE   W01
 BYTE   Cn4
 BYTE   W01
 BYTE   Ds4
 BYTE   W01
 BYTE   Fn4
 BYTE   W01
 BYTE   Fs4
 BYTE   W01
 BYTE   Gs4
 BYTE   W01
 BYTE   As4
 BYTE   W01
 BYTE   Bn4
 BYTE   W01
 BYTE   Dn5
 BYTE   W01
 BYTE   Ds5
 BYTE   N10  Cn1  v060
 BYTE   N05  Dn1  v112
 BYTE   W01
 BYTE   PAN   c_v+25
 BYTE   W01
 BYTE   Gn5
 BYTE   W01
 BYTE   An5
 BYTE   W01
 BYTE   As5
 BYTE   W01
 BYTE   Cs6
 BYTE   W01
 BYTE   Dn6
 BYTE   N05
 BYTE   W01
 BYTE   PAN   c_v+36
 BYTE   W01
 BYTE   Fs6
 BYTE   W01
 BYTE   Gs6
 BYTE   W01
 BYTE   An6
 BYTE   W01
 BYTE   Cn7
 BYTE   W01
 BYTE   Cs7
 BYTE   N10  Cn1  v060
 BYTE   N06  Dn1  v112
 BYTE   W01
 BYTE   PAN   c_v+47
 BYTE   W01
 BYTE   Fn7
 BYTE   W01
 BYTE   Fs7
 BYTE   W01
 BYTE   Gs7
 BYTE   W01
 BYTE   As7
 BYTE   W01
 BYTE   Cn8
 BYTE   N05
 BYTE   W01
 BYTE   PAN   c_v+58
 BYTE   W01
 BYTE   En8
 BYTE   W01
 BYTE   Fn8
 BYTE   W03
 BYTE   Gn8
 BYTE   N10  Cn1  v072
 BYTE   N05  Dn1  v112
 BYTE   W01
 BYTE   PAN   c_v+61
 BYTE   W01
 BYTE   Ds8
 BYTE   W01
 BYTE   Cs8
 BYTE   W01
 BYTE   Cn8
 BYTE   W01
 BYTE   As7
 BYTE   W01
 BYTE   Gs7
 BYTE   N05
 BYTE   W01
 BYTE   PAN   c_v+50
 BYTE   W01
 BYTE   En7
 BYTE   W01
 BYTE   Dn7
 BYTE   W01
 BYTE   Cs7
 BYTE   W01
 BYTE   Bn6
 BYTE   W01
 BYTE   An6
 BYTE   N10  Cn1  v060
 BYTE   N11  Dn1  v092
 BYTE   W01
 BYTE   PAN   c_v+40
 BYTE   W01
 BYTE   Fs6
 BYTE   W01
 BYTE   Ds6
 BYTE   W01
 BYTE   Dn6
 BYTE   W01
 BYTE   Cn6
 BYTE   W01
// 021   ----------------------------------------
Label_8_01EA9283:
 BYTE   PAN   c_v+30
 BYTE   W01
 BYTE   An5
 BYTE   W01
 BYTE   Gn5
 BYTE   W01
 BYTE   Fn5
 BYTE   W01
 BYTE   Ds5
 BYTE   W01
 BYTE   Cs5
 BYTE   W01
 BYTE   En3
 BYTE   N10  Cn1  v060
 BYTE   N05  Dn1  v112
 BYTE   W01
 BYTE   PAN   c_v+18
 BYTE   W01
 BYTE   Gs4
 BYTE   W01
 BYTE   Fs4
 BYTE   W01
 BYTE   Fn4
 BYTE   W01
 BYTE   Dn4
 BYTE   W01
 BYTE   Cn4
 BYTE   N05
 BYTE   W01
 BYTE   PAN   c_v+7
 BYTE   W01
 BYTE   An3
 BYTE   W01
 BYTE   Gn3
 BYTE   W01
 BYTE   Fs3
 BYTE   W01
 BYTE   En3
 BYTE   W01
 BYTE   Dn3
 BYTE   N10  Cn1  v072
 BYTE   N11  Dn1  v092
 BYTE   W01
 BYTE   PAN   c_v-4
 BYTE   W01
 BYTE   As2
 BYTE   W01
 BYTE   Gs2
 BYTE   W01
 BYTE   Gn2
 BYTE   W01
 BYTE   Fn2
 BYTE   W01
 BYTE   Ds2
 BYTE   W01
 BYTE   Cs2
 BYTE   W01
 BYTE   Bn1
 BYTE   W01
 BYTE   An1
 BYTE   W01
 BYTE   Gs1
 BYTE   W01
 BYTE   Fs1
 BYTE   W01
 BYTE   En1
 BYTE   N10  Cn1  v060
 BYTE   N05  Dn1  v112
 BYTE   W01
 BYTE   PAN   c_v-25
 BYTE   W01
 BYTE   Cn1
 BYTE   W01
 BYTE   Bn0
 BYTE   W01
 BYTE   An0
 BYTE   W01
 BYTE   Gn0
 BYTE   W01
 BYTE   Fn0
 BYTE   N05
 BYTE   W01
 BYTE   PAN   c_v-36
 BYTE   W01
 BYTE   Dn0
 BYTE   W01
 BYTE   Cn0
 BYTE   W01
 BYTE   AsM1
 BYTE   W01
 BYTE   GsM1
 BYTE   W01
 BYTE   FsM1
 BYTE   N10  Cn1  v060
 BYTE   N11  Dn1  v092
 BYTE   W01
 BYTE   PAN   c_v-47
 BYTE   W01
 BYTE   DsM1
 BYTE   W01
 BYTE   CsM1
 BYTE   W01
 BYTE   BnM2
 BYTE   W01
 BYTE   AnM2
 BYTE   W01
 BYTE   GsM2
 BYTE   W01
 BYTE   FsM2
 BYTE   W01
 BYTE   EnM2
 BYTE   W01
 BYTE   DnM2
 BYTE   W01
 BYTE   CsM2
 BYTE   W01
 BYTE   DnM2
 BYTE   W01
 BYTE   DsM2
 BYTE   N10  Cn1  v072
 BYTE   N05  Dn1  v112
 BYTE   W01
 BYTE   PAN   c_v-59
 BYTE   W01
 BYTE   FsM2
 BYTE   W01
 BYTE   GsM2
 BYTE   W01
 BYTE   AnM2
 BYTE   W01
 BYTE   AsM2
 BYTE   W01
 BYTE   CnM1
 BYTE   N05
 BYTE   W01
 BYTE   PAN   c_v-51
 BYTE   W01
 BYTE   DnM1
 BYTE   W01
 BYTE   EnM1
 BYTE   W01
 BYTE   FnM1
 BYTE   W01
 BYTE   FsM1
 BYTE   W01
 BYTE   GsM1
 BYTE   N10  Cn1  v060
 BYTE   N06  Dn1  v112
 BYTE   W01
 BYTE   PAN   c_v-43
 BYTE   W01
 BYTE   BnM1
 BYTE   W01
 BYTE   Cn0
 BYTE   W01
 BYTE   Cs0
 BYTE   W01
 BYTE   Ds0
 BYTE   W01
 BYTE   En0
 BYTE   N05
 BYTE   W01
 BYTE   PAN   c_v-34
 BYTE   W01
 BYTE   Gn0
 BYTE   W01
 BYTE   An0
 BYTE   W01
 BYTE   As0
 BYTE   W01
 BYTE   Bn0
 BYTE   W01
 BYTE   Cs1
 BYTE   N10  Cn1  v060
 BYTE   N05  Dn1  v112
 BYTE   W01
 BYTE   PAN   c_v-26
 BYTE   W01
 BYTE   En1
 BYTE   W01
 BYTE   Fn1
 BYTE   W01
 BYTE   Gn1
 BYTE   W01
 BYTE   Gs1
 BYTE   W01
 BYTE   An1
 BYTE   N05
 BYTE   W01
 BYTE   PAN   c_v-17
 BYTE   W01
 BYTE   Cn2
 BYTE   W01
 BYTE   Cs2
 BYTE   W01
 BYTE   Ds2
 BYTE   W01
 BYTE   En2
 BYTE   W01
 BYTE   Fs2
 BYTE   N10  Cn1  v072
 BYTE   N11  Dn1  v092
 BYTE   W01
 BYTE   PAN   c_v-9
 BYTE   W01
 BYTE   Gs2
 BYTE   W01
 BYTE   As2
 BYTE   W01
 BYTE   Bn2
 BYTE   W01
 BYTE   Cn3
 BYTE   W01
 BYTE   PEND 
// 022   ----------------------------------------
 BYTE   Dn3
 BYTE   W01
 BYTE   Ds3
 BYTE   W01
 BYTE   Fn3
 BYTE   W01
 BYTE   Fs3
 BYTE   W01
 BYTE   Gs3
 BYTE   W01
 BYTE   An3
 BYTE   W01
 BYTE   En3
 BYTE   N10  Cn1  v060
 BYTE   N05  Dn1  v112
 BYTE   W01
 BYTE   PAN   c_v+8
 BYTE   W01
 BYTE   Cs4
 BYTE   W01
 BYTE   Ds4
 BYTE   W01
 BYTE   En4
 BYTE   W01
 BYTE   Fs4
 BYTE   W01
 BYTE   Gn4
 BYTE   N05
 BYTE   W01
 BYTE   PAN   c_v+17
 BYTE   W01
 BYTE   As4
 BYTE   W01
 BYTE   Bn4
 BYTE   W01
 BYTE   Cs5
 BYTE   W01
 BYTE   Dn5
 BYTE   W01
 BYTE   Ds5
 BYTE   N10  Cn1  v060
 BYTE   N11  Dn1  v092
 BYTE   W01
 BYTE   PAN   c_v+25
 BYTE   W01
 BYTE   Fs5
 BYTE   W01
 BYTE   Gn5
 BYTE   W01
 BYTE   An5
 BYTE   W01
 BYTE   As5
 BYTE   W01
 BYTE   Bn5
 BYTE   W01
 BYTE   Cs6
 BYTE   W01
 BYTE   Dn6
 BYTE   W01
 BYTE   En6
 BYTE   W01
 BYTE   Fn6
 BYTE   W01
 BYTE   Gn6
 BYTE   W01
 BYTE   Gs6
 BYTE   N10  Cn1  v072
 BYTE   N05  Dn1  v112
 BYTE   W01
 BYTE   PAN   c_v+41
 BYTE   W01
 BYTE   Bn6
 BYTE   W01
 BYTE   Cn7
 BYTE   W01
 BYTE   Dn7
 BYTE   W01
 BYTE   Ds7
 BYTE   W01
 BYTE   Fn7
 BYTE   N05
 BYTE   W01
 BYTE   PAN   c_v+50
 BYTE   W01
 BYTE   Gs7
 BYTE   W01
 BYTE   An7
 BYTE   W01
 BYTE   As7
 BYTE   W01
 BYTE   Cn8
 BYTE   W01
 BYTE   Cs8
 BYTE   N10  Cn1  v060
 BYTE   N11  Dn1  v092
 BYTE   W01
 BYTE   PAN   c_v+58
 BYTE   W01
 BYTE   En8
 BYTE   W01
 BYTE   Fn8
 BYTE   W01
 BYTE   Gn8
 BYTE   W08
 BYTE   Gn8
 BYTE   N10  Cn1  v060
 BYTE   N05  Dn1  v112
 BYTE   W01
 BYTE   PAN   c_v+61
 BYTE   W01
 BYTE   Ds8
 BYTE   W01
 BYTE   Cs8
 BYTE   W01
 BYTE   Cn8
 BYTE   W01
 BYTE   As7
 BYTE   W01
 BYTE   Gs7
 BYTE   N05
 BYTE   W01
 BYTE   PAN   c_v+50
 BYTE   W01
 BYTE   Fn7
 BYTE   W01
 BYTE   Ds7
 BYTE   W01
 BYTE   Cs7
 BYTE   W01
 BYTE   Cn7
 BYTE   W01
 BYTE   As6
 BYTE   N10  Cn1  v072
 BYTE   N06  Dn1  v112
 BYTE   W01
 BYTE   PAN   c_v+40
 BYTE   W01
 BYTE   Fs6
 BYTE   W01
 BYTE   Fn6
 BYTE   W01
 BYTE   Ds6
 BYTE   W01
 BYTE   Cs6
 BYTE   W01
 BYTE   Bn5
 BYTE   N05
 BYTE   W01
 BYTE   PAN   c_v+29
 BYTE   W01
 BYTE   Gn5
 BYTE   W01
 BYTE   Fs5
 BYTE   W01
 BYTE   En5
 BYTE   W01
 BYTE   Dn5
 BYTE   W01
 BYTE   Cs5
 BYTE   N10  Cn1  v060
 BYTE   N05  Dn1  v112
 BYTE   W01
 BYTE   PAN   c_v+19
 BYTE   W01
 BYTE   An4
 BYTE   W01
 BYTE   Gn4
 BYTE   W01
 BYTE   Fs4
 BYTE   W01
 BYTE   En4
 BYTE   W01
 BYTE   Dn4
 BYTE   N05
 BYTE   W01
 BYTE   PAN   c_v+8
 BYTE   W01
 BYTE   Bn3
 BYTE   W01
 BYTE   An3
 BYTE   W01
 BYTE   Gn3
 BYTE   W01
 BYTE   Fs3
 BYTE   W01
 BYTE   En3
 BYTE   N10  Cn1  v060
 BYTE   N11  Dn1  v092
 BYTE   W01
 BYTE   PAN   c_v-2
 BYTE   W01
 BYTE   Cn3
 BYTE   W01
 BYTE   As2
 BYTE   W01
 BYTE   Gs2
 BYTE   W01
 BYTE   Gn2
 BYTE   W01
// 023   ----------------------------------------
 BYTE   Fn2
 BYTE   W01
 BYTE   Ds2
 BYTE   W01
 BYTE   Cs2
 BYTE   W01
 BYTE   Cn2
 BYTE   W01
 BYTE   As1
 BYTE   W01
 BYTE   Gs1
 BYTE   W01
 BYTE   En3
 BYTE   N10  Cn1  v072
 BYTE   N05  Dn1  v112
 BYTE   W01
 BYTE   PAN   c_v-23
 BYTE   W01
 BYTE   Ds1
 BYTE   W01
 BYTE   Cs1
 BYTE   W01
 BYTE   Cn1
 BYTE   W01
 BYTE   As0
 BYTE   W01
 BYTE   Gs0
 BYTE   N05
 BYTE   W01
 BYTE   PAN   c_v-34
 BYTE   W01
 BYTE   En0
 BYTE   W01
 BYTE   Ds0
 BYTE   W01
 BYTE   Cs0
 BYTE   W01
 BYTE   BnM1
 BYTE   W01
 BYTE   AnM1
 BYTE   N10  Cn1  v060
 BYTE   N11  Dn1  v092
 BYTE   W01
 BYTE   PAN   c_v-44
 BYTE   W01
 BYTE   FsM1
 BYTE   W01
 BYTE   EnM1
 BYTE   W01
 BYTE   DnM1
 BYTE   W01
 BYTE   CsM1
 BYTE   W01
 BYTE   BnM2
 BYTE   W01
 BYTE   AnM2
 BYTE   W01
 BYTE   GsM2
 BYTE   W01
 BYTE   FsM2
 BYTE   W01
 BYTE   EnM2
 BYTE   W01
 BYTE   DnM2
 BYTE   W01
 BYTE   DnM2
 BYTE   N10  Cn1  v060
 BYTE   N05  Dn1  v112
 BYTE   W01
 BYTE   PAN   c_v-60
 BYTE   W01
 BYTE   FnM2
 BYTE   W01
 BYTE   GnM2
 BYTE   W01
 BYTE   AnM2
 BYTE   W01
 BYTE   AsM2
 BYTE   W01
 BYTE   CnM1
 BYTE   N05
 BYTE   W01
 BYTE   PAN   c_v-50
 BYTE   W01
 BYTE   EnM1
 BYTE   W01
 BYTE   FnM1
 BYTE   W01
 BYTE   GnM1
 BYTE   W01
 BYTE   AnM1
 BYTE   W01
 BYTE   AsM1
 BYTE   N10  Cn1  v072
 BYTE   N11  Dn1  v092
 BYTE   W01
 BYTE   PAN   c_v-40
 BYTE   W01
 BYTE   Dn0
 BYTE   W01
 BYTE   En0
 BYTE   W01
 BYTE   Fn0
 BYTE   W01
 BYTE   Gn0
 BYTE   W01
 BYTE   An0
 BYTE   W01
 BYTE   Bn0
 BYTE   W01
 BYTE   Cn1
 BYTE   W01
 BYTE   Dn1
 BYTE   W01
 BYTE   En1
 BYTE   W01
 BYTE   Fn1
 BYTE   W01
 BYTE   Gn1
 BYTE   N10  Cn1  v060
 BYTE   N05  Dn1  v112
 BYTE   W01
 BYTE   PAN   c_v-19
 BYTE   W01
 BYTE   Bn1
 BYTE   W01
 BYTE   Cn2
 BYTE   W01
 BYTE   Dn2
 BYTE   W01
 BYTE   En2
 BYTE   W01
 BYTE   Fs2
 BYTE   N05
 BYTE   W01
 BYTE   PAN   c_v-9
 BYTE   W01
 BYTE   An2
 BYTE   W01
 BYTE   Bn2
 BYTE   W01
 BYTE   Cn3
 BYTE   W01
 BYTE   Dn3
 BYTE   W01
 BYTE   En3
 BYTE   N10  Cn1  v060
 BYTE   N06  Dn1  v112
 BYTE   W01
 BYTE   PAN   c_v+1
 BYTE   W01
 BYTE   Gn3
 BYTE   W01
 BYTE   Gs3
 BYTE   W01
 BYTE   As3
 BYTE   W01
 BYTE   Cn4
 BYTE   W01
 BYTE   Dn4
 BYTE   N05
 BYTE   W01
 BYTE   PAN   c_v+11
 BYTE   W01
 BYTE   Fn4
 BYTE   W01
 BYTE   Gn4
 BYTE   W01
 BYTE   An4
 BYTE   W01
 BYTE   As4
 BYTE   W01
 BYTE   Cn5
 BYTE   N10  Cn1  v072
 BYTE   N05  Dn1  v112
 BYTE   W01
 BYTE   PAN   c_v+22
 BYTE   W01
 BYTE   Ds5
 BYTE   W01
 BYTE   Fn5
 BYTE   W01
 BYTE   Gn5
 BYTE   W01
 BYTE   An5
 BYTE   W01
 BYTE   As5
 BYTE   N05
 BYTE   W01
 BYTE   PAN   c_v+32
 BYTE   W01
 BYTE   Dn6
 BYTE   W01
 BYTE   Ds6
 BYTE   W01
 BYTE   Fn6
 BYTE   W01
 BYTE   Gn6
 BYTE   W01
 BYTE   An6
 BYTE   N10  Cn1  v060
 BYTE   N11  Dn1  v092
 BYTE   W01
 BYTE   PAN   c_v+42
 BYTE   W01
 BYTE   Cn7
 BYTE   W01
 BYTE   Dn7
 BYTE   W01
 BYTE   En7
 BYTE   W01
 BYTE   Fn7
 BYTE   W01
// 024   ----------------------------------------
 BYTE   Gn7
 BYTE   W01
 BYTE   An7
 BYTE   W01
 BYTE   As7
 BYTE   W01
 BYTE   Cn8
 BYTE   W01
 BYTE   Dn8
 BYTE   W01
 BYTE   En8
 BYTE   W01
 BYTE   En3
 BYTE   N10  Cn1  v060
 BYTE   N05  Dn1  v112
 BYTE   W01
 BYTE   PAN   c_v+60
 BYTE   W01
 BYTE   Dn8
 BYTE   W01
 BYTE   Cs8
 BYTE   W01
 BYTE   Bn7
 BYTE   W01
 BYTE   An7
 BYTE   W01
 BYTE   Gs7
 BYTE   N05
 BYTE   W01
 BYTE   PAN   c_v+50
 BYTE   W01
 BYTE   En7
 BYTE   W01
 BYTE   Dn7
 BYTE   W01
 BYTE   Cs7
 BYTE   W01
 BYTE   Bn6
 BYTE   W01
 BYTE   An6
 BYTE   N10  Cn1  v072
 BYTE   N11  Dn1  v092
 BYTE   W01
 BYTE   PAN   c_v+40
 BYTE   W01
 BYTE   Fs6
 BYTE   W01
 BYTE   Ds6
 BYTE   W01
 BYTE   Dn6
 BYTE   W01
 BYTE   Cn6
 BYTE   W01
 BYTE   As5
 BYTE   W01
 BYTE   An5
 BYTE   W01
 BYTE   Gn5
 BYTE   W01
 BYTE   Fn5
 BYTE   W01
 BYTE   Ds5
 BYTE   W01
 BYTE   Dn5
 BYTE   W01
 BYTE   Cn5
 BYTE   N10  Cn1  v060
 BYTE   N05  Dn1  v112
 BYTE   W01
 BYTE   PAN   c_v+18
 BYTE   W01
 BYTE   An4
 BYTE   W01
 BYTE   Gn4
 BYTE   W01
 BYTE   Fn4
 BYTE   W01
 BYTE   Ds4
 BYTE   W01
 BYTE   Cs4
 BYTE   N05
 BYTE   W01
 BYTE   PAN   c_v+7
 BYTE   W01
 BYTE   As3
 BYTE   W01
 BYTE   Gs3
 BYTE   W01
 BYTE   Fs3
 BYTE   W01
 BYTE   En3
 BYTE   W01
 BYTE   Ds3
 BYTE   N10  Cn1  v060
 BYTE   N11  Dn1  v092
 BYTE   W01
 BYTE   PAN   c_v-3
 BYTE   W01
 BYTE   Bn2
 BYTE   W01
 BYTE   As2
 BYTE   W01
 BYTE   Gs2
 BYTE   W01
 BYTE   Fs2
 BYTE   W01
 BYTE   En2
 BYTE   W01
 BYTE   Ds2
 BYTE   W01
 BYTE   Cn2
 BYTE   W01
 BYTE   Bn1
 BYTE   W01
 BYTE   An1
 BYTE   W01
 BYTE   Gn1
 BYTE   W01
 BYTE   Fn1
 BYTE   N10  Cn1  v072
 BYTE   N05  Dn1  v112
 BYTE   W01
 BYTE   PAN   c_v-24
 BYTE   W01
 BYTE   Dn1
 BYTE   W01
 BYTE   Cn1
 BYTE   W01
 BYTE   Bn0
 BYTE   W01
 BYTE   An0
 BYTE   W01
 BYTE   Gn0
 BYTE   N05
 BYTE   W01
 BYTE   PAN   c_v-35
 BYTE   W01
 BYTE   En0
 BYTE   W01
 BYTE   Dn0
 BYTE   W01
 BYTE   Cn0
 BYTE   W01
 BYTE   AsM1
 BYTE   W01
 BYTE   GsM1
 BYTE   N10  Cn1  v060
 BYTE   N06  Dn1  v112
 BYTE   W01
 BYTE   PAN   c_v-46
 BYTE   W01
 BYTE   FnM1
 BYTE   W01
 BYTE   DsM1
 BYTE   W01
 BYTE   CsM1
 BYTE   W01
 BYTE   CnM1
 BYTE   W01
 BYTE   AsM2
 BYTE   N05
 BYTE   W01
 BYTE   PAN   c_v-56
 BYTE   W01
 BYTE   FsM2
 BYTE   W01
 BYTE   FnM2
 BYTE   W01
 BYTE   DsM2
 BYTE   W01
 BYTE   CnM2
 BYTE   W01
 BYTE   CsM2
 BYTE   N10  Cn1  v060
 BYTE   N05  Dn1  v112
 BYTE   W01
 BYTE   PAN   c_v-61
 BYTE   W01
 BYTE   FnM2
 BYTE   W01
 BYTE   FsM2
 BYTE   W01
 BYTE   GsM2
 BYTE   W01
 BYTE   AsM2
 BYTE   W01
 BYTE   CnM1
 BYTE   N05
 BYTE   W01
 BYTE   PAN   c_v-51
 BYTE   W01
 BYTE   DsM1
 BYTE   W01
 BYTE   FnM1
 BYTE   W01
 BYTE   FsM1
 BYTE   W01
 BYTE   GsM1
 BYTE   W01
 BYTE   AsM1
 BYTE   N10  Cn1  v072
 BYTE   N11  Dn1  v092
 BYTE   W01
 BYTE   PAN   c_v-40
 BYTE   W01
 BYTE   Cs0
 BYTE   W01
 BYTE   Ds0
 BYTE   W01
 BYTE   Fn0
 BYTE   W01
 BYTE   Gn0
 BYTE   W01
// 025   ----------------------------------------
 BYTE   Gs0
 BYTE   W01
 BYTE   As0
 BYTE   W01
 BYTE   Cn1
 BYTE   W01
 BYTE   Cs1
 BYTE   W01
 BYTE   Ds1
 BYTE   W01
 BYTE   Fn1
 BYTE   W01
 BYTE   En3
 BYTE   N10  Cn1  v060
 BYTE   N05  Dn1  v112
 BYTE   W01
 BYTE   PAN   c_v-19
 BYTE   W01
 BYTE   Bn1
 BYTE   W01
 BYTE   Cn2
 BYTE   W01
 BYTE   Dn2
 BYTE   W01
 BYTE   En2
 BYTE   W01
 BYTE   Fs2
 BYTE   N05
 BYTE   W01
 BYTE   PAN   c_v-9
 BYTE   W01
 BYTE   An2
 BYTE   W01
 BYTE   Bn2
 BYTE   W01
 BYTE   Cn3
 BYTE   W01
 BYTE   Dn3
 BYTE   W01
 BYTE   En3
 BYTE   N10  Cn1  v060
 BYTE   N11  Dn1  v092
 BYTE   W01
 BYTE   PAN   c_v+2
 BYTE   W01
 BYTE   Gn3
 BYTE   W01
 BYTE   An3
 BYTE   W01
 BYTE   Bn3
 BYTE   W01
 BYTE   Cn4
 BYTE   W01
 BYTE   Dn4
 BYTE   W01
 BYTE   En4
 BYTE   W01
 BYTE   Fs4
 BYTE   W01
 BYTE   Gn4
 BYTE   W01
 BYTE   An4
 BYTE   W01
 BYTE   Bn4
 BYTE   W01
 BYTE   Cs5
 BYTE   N10  Cn1  v072
 BYTE   N05  Dn1  v112
 BYTE   W01
 BYTE   PAN   c_v+23
 BYTE   W01
 BYTE   Fn5
 BYTE   W01
 BYTE   Fs5
 BYTE   W01
 BYTE   Gs5
 BYTE   W01
 BYTE   As5
 BYTE   W01
 BYTE   Bn5
 BYTE   N05
 BYTE   W01
 BYTE   PAN   c_v+33
 BYTE   W01
 BYTE   Ds6
 BYTE   W01
 BYTE   Fn6
 BYTE   W01
 BYTE   Fs6
 BYTE   W01
 BYTE   Gs6
 BYTE   W01
 BYTE   As6
 BYTE   N10  Cn1  v060
 BYTE   N11  Dn1  v092
 BYTE   W01
 BYTE   PAN   c_v+44
 BYTE   W01
 BYTE   Cs7
 BYTE   W01
 BYTE   Ds7
 BYTE   W01
 BYTE   Fn7
 BYTE   W01
 BYTE   Fs7
 BYTE   W01
 BYTE   Gs7
 BYTE   W01
 BYTE   As7
 BYTE   W01
 BYTE   Cn8
 BYTE   W01
 BYTE   Cs8
 BYTE   W01
 BYTE   Ds8
 BYTE   W01
 BYTE   Fn8
 BYTE   W01
 BYTE   Fs8
 BYTE   N10  Cn1  v060
 BYTE   N05  Dn1  v112
 BYTE   W01
 BYTE   PAN   c_v+60
 BYTE   W01
 BYTE   Cs8
 BYTE   W01
 BYTE   As7
 BYTE   W01
 BYTE   Gs7
 BYTE   W01
 BYTE   Fn7
 BYTE   W01
 BYTE   Dn7
 BYTE   N05
 BYTE   W01
 BYTE   PAN   c_v+43
 BYTE   W01
 BYTE   An6
 BYTE   W01
 BYTE   Fs6
 BYTE   W01
 BYTE   Ds6
 BYTE   W01
 BYTE   Cs6
 BYTE   W01
 BYTE   As5
 BYTE   N10  Cn1  v072
 BYTE   N06  Dn1  v112
 BYTE   W01
 BYTE   PAN   c_v+27
 BYTE   W01
 BYTE   En5
 BYTE   W01
 BYTE   Dn5
 BYTE   W01
 BYTE   Bn4
 BYTE   W01
 BYTE   Gs4
 BYTE   W01
 BYTE   Fn4
 BYTE   N05
 BYTE   W01
 BYTE   PAN   c_v+11
 BYTE   W01
 BYTE   Cn4
 BYTE   W01
 BYTE   An3
 BYTE   W01
 BYTE   Gn3
 BYTE   W01
 BYTE   En3
 BYTE   W01
 BYTE   Cs3
 BYTE   N10  Cn1  v060
 BYTE   N05  Dn1  v112
 BYTE   W01
 BYTE   PAN   c_v-6
 BYTE   W01
 BYTE   Gs2
 BYTE   W01
 BYTE   Fn2
 BYTE   W01
 BYTE   Dn2
 BYTE   W01
 BYTE   Cn2
 BYTE   W01
 BYTE   An1
 BYTE   N05
 BYTE   W01
 BYTE   PAN   c_v-22
 BYTE   W01
 BYTE   Ds1
 BYTE   W01
 BYTE   Cs1
 BYTE   W01
 BYTE   As0
 BYTE   W01
 BYTE   Gn0
 BYTE   W01
 BYTE   En0
 BYTE   N10  Cn1  v060
 BYTE   N11  Dn1  v092
 BYTE   W01
 BYTE   PAN   c_v-38
 BYTE   W01
 BYTE   BnM1
 BYTE   W01
 BYTE   GsM1
 BYTE   W01
 BYTE   FsM1
 BYTE   W01
 BYTE   DsM1
 BYTE   W01
// 026   ----------------------------------------
 BYTE   CnM1
 BYTE   W01
 BYTE   AnM2
 BYTE   W01
 BYTE   GnM2
 BYTE   W01
 BYTE   EnM2
 BYTE   W01
 BYTE   CsM2
 BYTE   W02
 BYTE   En3
 BYTE   N10  Cn1  v072
 BYTE   N05  Dn1  v112
 BYTE   W01
 BYTE   PAN   c_v-62
 BYTE   W01
 BYTE   EnM2
 BYTE   W01
 BYTE   FnM2
 BYTE   W01
 BYTE   GnM2
 BYTE   W01
 BYTE   AnM2
 BYTE   W01
 BYTE   BnM2
 BYTE   N05
 BYTE   W01
 BYTE   PAN   c_v-51
 BYTE   W01
 BYTE   DnM1
 BYTE   W01
 BYTE   EnM1
 BYTE   W01
 BYTE   FsM1
 BYTE   W01
 BYTE   GsM1
 BYTE   W01
 BYTE   AsM1
 BYTE   N10  Cn1  v060
 BYTE   N11  Dn1  v092
 BYTE   W01
 BYTE   PAN   c_v-40
 BYTE   W01
 BYTE   Cs0
 BYTE   W01
 BYTE   Ds0
 BYTE   W01
 BYTE   Fn0
 BYTE   W01
 BYTE   Gn0
 BYTE   W01
 BYTE   An0
 BYTE   W01
 BYTE   Bn0
 BYTE   W01
 BYTE   Cn1
 BYTE   W01
 BYTE   Dn1
 BYTE   W01
 BYTE   En1
 BYTE   W01
 BYTE   Fn1
 BYTE   W01
 BYTE   Gs1
 BYTE   N10  Cn1  v060
 BYTE   N05  Dn1  v112
 BYTE   W01
 BYTE   PAN   c_v-19
 BYTE   W01
 BYTE   Bn1
 BYTE   W01
 BYTE   Cs2
 BYTE   W01
 BYTE   Ds2
 BYTE   W01
 BYTE   En2
 BYTE   W01
 BYTE   Gn2
 BYTE   N05
 BYTE   W01
 BYTE   PAN   c_v-8
 BYTE   W01
 BYTE   As2
 BYTE   W01
 BYTE   Cn3
 BYTE   W01
 BYTE   Dn3
 BYTE   W01
 BYTE   En3
 BYTE   W01
 BYTE   Fs3
 BYTE   N10  Cn1  v072
 BYTE   N11  Dn1  v092
 BYTE   W01
 BYTE   PAN   c_v+3
 BYTE   W01
 BYTE   An3
 BYTE   W01
 BYTE   Bn3
 BYTE   W01
 BYTE   Cn4
 BYTE   W01
 BYTE   Ds4
 BYTE   W01
 BYTE   Fn4
 BYTE   W01
 BYTE   Fs4
 BYTE   W01
 BYTE   Gs4
 BYTE   W01
 BYTE   As4
 BYTE   W01
 BYTE   Bn4
 BYTE   W01
 BYTE   Dn5
 BYTE   W01
 BYTE   Ds5
 BYTE   N10  Cn1  v060
 BYTE   N05  Dn1  v112
 BYTE   W01
 BYTE   PAN   c_v+25
 BYTE   W01
 BYTE   Gn5
 BYTE   W01
 BYTE   An5
 BYTE   W01
 BYTE   As5
 BYTE   W01
 BYTE   Cs6
 BYTE   W01
 BYTE   Dn6
 BYTE   N05
 BYTE   W01
 BYTE   PAN   c_v+36
 BYTE   W01
 BYTE   Fs6
 BYTE   W01
 BYTE   Gs6
 BYTE   W01
 BYTE   An6
 BYTE   W01
 BYTE   Cn7
 BYTE   W01
 BYTE   Cs7
 BYTE   N10  Cn1  v060
 BYTE   N06  Dn1  v112
 BYTE   W01
 BYTE   PAN   c_v+47
 BYTE   W01
 BYTE   Fn7
 BYTE   W01
 BYTE   Fs7
 BYTE   W01
 BYTE   Gs7
 BYTE   W01
 BYTE   As7
 BYTE   W01
 BYTE   Cn8
 BYTE   N05
 BYTE   W01
 BYTE   PAN   c_v+58
 BYTE   W01
 BYTE   En8
 BYTE   W01
 BYTE   Fn8
 BYTE   W03
 BYTE   Gn8
 BYTE   N10  Cn1  v072
 BYTE   N05  Dn1  v112
 BYTE   W01
 BYTE   PAN   c_v+61
 BYTE   W01
 BYTE   Ds8
 BYTE   W01
 BYTE   Cs8
 BYTE   W01
 BYTE   Cn8
 BYTE   W01
 BYTE   As7
 BYTE   W01
 BYTE   Gs7
 BYTE   N05
 BYTE   W01
 BYTE   PAN   c_v+50
 BYTE   W01
 BYTE   En7
 BYTE   W01
 BYTE   Dn7
 BYTE   W01
 BYTE   Cs7
 BYTE   W01
 BYTE   Bn6
 BYTE   W01
 BYTE   An6
 BYTE   N10  Cn1  v060
 BYTE   N11  Dn1  v092
 BYTE   W01
 BYTE   PAN   c_v+40
 BYTE   W01
 BYTE   Fs6
 BYTE   W01
 BYTE   Ds6
 BYTE   W01
 BYTE   Dn6
 BYTE   W01
 BYTE   Cn6
 BYTE   W01
// 027   ----------------------------------------
 BYTE   PATT
  POIN2 Label_8_01EA9283
// 028   ----------------------------------------
 BYTE   PAN   c_v-2
 BYTE   W01
 BYTE   Ds3
 BYTE   W01
 BYTE   Fn3
 BYTE   W01
 BYTE   Fs3
 BYTE   W01
 BYTE   Gs3
 BYTE   W01
 BYTE   An3
 BYTE   W01
 BYTE   En3
 BYTE   N05  Dn1  v112
 BYTE   W01
 BYTE   PAN   c_v-62
 BYTE   W01
 BYTE   EnM2
 BYTE   W01
 BYTE   FnM2
 BYTE   W01
 BYTE   GnM2
 BYTE   W01
 BYTE   AnM2
 BYTE   W01
 BYTE   BnM2
 BYTE   N16  Bn0  v080
 BYTE   N11  Dn1  v092
 BYTE   W01
 BYTE   PAN   c_v-51
 BYTE   W01
 BYTE   DnM1
 BYTE   W01
 BYTE   EnM1
 BYTE   W01
 BYTE   FsM1
 BYTE   W01
 BYTE   GsM1
 BYTE   W01
 BYTE   AsM1
 BYTE   W01
 BYTE   Cn0
 BYTE   W01
 BYTE   Cs0
 BYTE   W01
 BYTE   Ds0
 BYTE   W01
 BYTE   Fn0
 BYTE   W01
 BYTE   Gn0
 BYTE   W01
 BYTE   An0
 BYTE   N05  Dn1  v112
 BYTE   W01
 BYTE   PAN   c_v-29
 BYTE   W01
 BYTE   Cn1
 BYTE   W01
 BYTE   Dn1
 BYTE   W01
 BYTE   En1
 BYTE   W01
 BYTE   Fn1
 BYTE   W01
 BYTE   Gs1
 BYTE   N22  Bn0  v080
 BYTE   N11  Dn1  v092
 BYTE   W01
 BYTE   PAN   c_v-19
 BYTE   W01
 BYTE   Bn1
 BYTE   W01
 BYTE   Cs2
 BYTE   W01
 BYTE   Ds2
 BYTE   W01
 BYTE   En2
 BYTE   W01
 BYTE   Gn2
 BYTE   W01
 BYTE   Gs2
 BYTE   W01
 BYTE   As2
 BYTE   W01
 BYTE   Cn3
 BYTE   W01
 BYTE   Dn3
 BYTE   W01
 BYTE   En3
 BYTE   W01
 BYTE   Fs3
 BYTE   N11
 BYTE   W01
 BYTE   PAN   c_v+3
 BYTE   W01
 BYTE   An3
 BYTE   W01
 BYTE   Bn3
 BYTE   W01
 BYTE   Cn4
 BYTE   W01
 BYTE   Ds4
 BYTE   W01
 BYTE   Fn4
 BYTE   W01
 BYTE   Fs4
 BYTE   W01
 BYTE   Gs4
 BYTE   W01
 BYTE   As4
 BYTE   W01
 BYTE   Bn4
 BYTE   W01
 BYTE   Dn5
 BYTE   W01
 BYTE   Ds5
 BYTE   N22  Bn0  v080
 BYTE   N11  Dn1  v092
 BYTE   W01
 BYTE   PAN   c_v+25
 BYTE   W01
 BYTE   Gn5
 BYTE   W01
 BYTE   An5
 BYTE   W01
 BYTE   As5
 BYTE   W01
 BYTE   Cs6
 BYTE   W01
 BYTE   Dn6
 BYTE   W01
 BYTE   En6
 BYTE   W01
 BYTE   Fs6
 BYTE   W01
 BYTE   Gs6
 BYTE   W01
 BYTE   An6
 BYTE   W01
 BYTE   Cn7
 BYTE   W01
 BYTE   Cs7
 BYTE   N11
 BYTE   W01
 BYTE   PAN   c_v+47
 BYTE   W01
 BYTE   Fn7
 BYTE   W01
 BYTE   Fs7
 BYTE   W01
 BYTE   Gs7
 BYTE   W01
 BYTE   As7
 BYTE   W01
 BYTE   Cn8
 BYTE   W01
 BYTE   Dn8
 BYTE   W01
 BYTE   En8
 BYTE   W01
 BYTE   Fn8
 BYTE   W03
 BYTE   Gn8
 BYTE   N05  Dn1  v112
 BYTE   W01
 BYTE   PAN   c_v+61
 BYTE   W01
 BYTE   Ds8
 BYTE   W01
 BYTE   Cs8
 BYTE   W01
 BYTE   Cn8
 BYTE   W01
 BYTE   As7
 BYTE   W01
 BYTE   Gs7
 BYTE   N16  Bn0  v080
 BYTE   N11  Dn1  v092
 BYTE   W01
 BYTE   PAN   c_v+50
 BYTE   W01
 BYTE   En7
 BYTE   W01
 BYTE   Dn7
 BYTE   W01
 BYTE   Cs7
 BYTE   W01
 BYTE   Bn6
 BYTE   W01
 BYTE   An6
 BYTE   W01
 BYTE   Gs6
 BYTE   W01
 BYTE   Fs6
 BYTE   W01
 BYTE   Ds6
 BYTE   W01
 BYTE   Dn6
 BYTE   W01
 BYTE   Cn6
 BYTE   W01
// 029   ----------------------------------------
 BYTE   As5
 BYTE   N05  Dn1  v112
 BYTE   W01
 BYTE   PAN   c_v+29
 BYTE   W01
 BYTE   Gn5
 BYTE   W01
 BYTE   Fn5
 BYTE   W01
 BYTE   Ds5
 BYTE   W01
 BYTE   Cs5
 BYTE   W01
 BYTE   Bn4
 BYTE   N22  Bn0  v080
 BYTE   N11  Dn1  v092
 BYTE   W01
 BYTE   PAN   c_v+18
 BYTE   W01
 BYTE   Gs4
 BYTE   W01
 BYTE   Fs4
 BYTE   W01
 BYTE   Fn4
 BYTE   W01
 BYTE   Dn4
 BYTE   W01
 BYTE   Cn4
 BYTE   W01
 BYTE   Bn3
 BYTE   W01
 BYTE   An3
 BYTE   W01
 BYTE   Gn3
 BYTE   W01
 BYTE   Fs3
 BYTE   W01
 BYTE   En3
 BYTE   W01
 BYTE   Dn3
 BYTE   N11
 BYTE   W01
 BYTE   PAN   c_v-4
 BYTE   W01
 BYTE   As2
 BYTE   W01
 BYTE   Gs2
 BYTE   W01
 BYTE   Gn2
 BYTE   W01
 BYTE   Fn2
 BYTE   W01
 BYTE   Ds2
 BYTE   W01
 BYTE   Cs2
 BYTE   W01
 BYTE   Bn1
 BYTE   W01
 BYTE   An1
 BYTE   W01
 BYTE   Gs1
 BYTE   W01
 BYTE   Fs1
 BYTE   W01
 BYTE   En1
 BYTE   N22  Bn0  v080
 BYTE   N11  Dn1  v092
 BYTE   W01
 BYTE   PAN   c_v-25
 BYTE   W01
 BYTE   Cn1
 BYTE   W01
 BYTE   Bn0
 BYTE   W01
 BYTE   An0
 BYTE   W01
 BYTE   Gn0
 BYTE   W01
 BYTE   Fn0
 BYTE   W01
 BYTE   En0
 BYTE   W01
 BYTE   Dn0
 BYTE   W01
 BYTE   Cn0
 BYTE   W01
 BYTE   AsM1
 BYTE   W01
 BYTE   GsM1
 BYTE   W01
 BYTE   FsM1
 BYTE   N11
 BYTE   W01
 BYTE   PAN   c_v-47
 BYTE   W01
 BYTE   DsM1
 BYTE   W01
 BYTE   CsM1
 BYTE   W01
 BYTE   BnM2
 BYTE   W01
 BYTE   AnM2
 BYTE   W01
 BYTE   GsM2
 BYTE   W01
 BYTE   FsM2
 BYTE   W01
 BYTE   EnM2
 BYTE   W01
 BYTE   DnM2
 BYTE   W01
 BYTE   CsM2
 BYTE   W01
 BYTE   DnM2
 BYTE   W01
 BYTE   DsM2
 BYTE   N05  Dn1  v112
 BYTE   W01
 BYTE   PAN   c_v-59
 BYTE   W01
 BYTE   FsM2
 BYTE   W01
 BYTE   GsM2
 BYTE   W01
 BYTE   AnM2
 BYTE   W01
 BYTE   AsM2
 BYTE   W01
 BYTE   CnM1
 BYTE   N22  Bn0  v080
 BYTE   N11  Dn1  v092
 BYTE   W01
 BYTE   PAN   c_v-51
 BYTE   W01
 BYTE   DnM1
 BYTE   W01
 BYTE   EnM1
 BYTE   W01
 BYTE   FnM1
 BYTE   W01
 BYTE   FsM1
 BYTE   W01
 BYTE   GsM1
 BYTE   W01
 BYTE   AnM1
 BYTE   W01
 BYTE   BnM1
 BYTE   W01
 BYTE   Cn0
 BYTE   W01
 BYTE   Cs0
 BYTE   W01
 BYTE   Ds0
 BYTE   W01
 BYTE   En0
 BYTE   N11
 BYTE   W01
 BYTE   PAN   c_v-34
 BYTE   W01
 BYTE   Gn0
 BYTE   W01
 BYTE   An0
 BYTE   W01
 BYTE   As0
 BYTE   W01
 BYTE   Bn0
 BYTE   W01
 BYTE   Cs1
 BYTE   W01
 BYTE   Dn1
 BYTE   W01
 BYTE   En1
 BYTE   W01
 BYTE   Fn1
 BYTE   W01
 BYTE   Gn1
 BYTE   W01
 BYTE   Gs1
 BYTE   W01
 BYTE   An1
 BYTE   N17  Bn0  v080
 BYTE   N11  Dn1  v092
 BYTE   W01
 BYTE   PAN   c_v-17
 BYTE   W01
 BYTE   Cn2
 BYTE   W01
 BYTE   Cs2
 BYTE   W01
 BYTE   Ds2
 BYTE   W01
 BYTE   En2
 BYTE   W01
 BYTE   Fs2
 BYTE   W01
 BYTE   Gn2
 BYTE   W01
 BYTE   Gs2
 BYTE   W01
 BYTE   As2
 BYTE   W01
 BYTE   Bn2
 BYTE   W01
 BYTE   Cn3
 BYTE   W01
// 030   ----------------------------------------
 BYTE   Dn3
 BYTE   N11
 BYTE   W01
 BYTE   PAN   c_v-1
 BYTE   W01
 BYTE   Fn3
 BYTE   W01
 BYTE   Fs3
 BYTE   W01
 BYTE   Gs3
 BYTE   W01
 BYTE   An3
 BYTE   W01
 BYTE   As3
 BYTE   W01
 BYTE   Cn4
 BYTE   W01
 BYTE   Cs4
 BYTE   W01
 BYTE   Ds4
 BYTE   W01
 BYTE   En4
 BYTE   W01
 BYTE   Fs4
 BYTE   W01
 BYTE   Gn4
 BYTE   N05  Dn1  v112
 BYTE   W01
 BYTE   PAN   c_v+17
 BYTE   W01
 BYTE   As4
 BYTE   W01
 BYTE   Bn4
 BYTE   W01
 BYTE   Cs5
 BYTE   W01
 BYTE   Dn5
 BYTE   W01
 BYTE   Ds5
 BYTE   N23  Bn0  v080
 BYTE   N11  Dn1  v092
 BYTE   W01
 BYTE   PAN   c_v+25
 BYTE   W01
 BYTE   Fs5
 BYTE   W01
 BYTE   Gn5
 BYTE   W01
 BYTE   An5
 BYTE   W01
 BYTE   As5
 BYTE   W01
 BYTE   Bn5
 BYTE   W01
 BYTE   Cs6
 BYTE   W01
 BYTE   Dn6
 BYTE   W01
 BYTE   En6
 BYTE   W01
 BYTE   Fn6
 BYTE   W01
 BYTE   Gn6
 BYTE   W01
 BYTE   Gs6
 BYTE   N11
 BYTE   W01
 BYTE   PAN   c_v+41
 BYTE   W01
 BYTE   Bn6
 BYTE   W01
 BYTE   Cn7
 BYTE   W01
 BYTE   Dn7
 BYTE   W01
 BYTE   Ds7
 BYTE   W01
 BYTE   Fn7
 BYTE   W01
 BYTE   Fs7
 BYTE   W01
 BYTE   Gs7
 BYTE   W01
 BYTE   An7
 BYTE   W01
 BYTE   As7
 BYTE   W01
 BYTE   Cn8
 BYTE   W01
 BYTE   Cs8
 BYTE   N23  Bn0  v080
 BYTE   N11  Dn1  v092
 BYTE   W01
 BYTE   PAN   c_v+58
 BYTE   W01
 BYTE   En8
 BYTE   W01
 BYTE   Fn8
 BYTE   W01
 BYTE   Gn8
 BYTE   W08
 BYTE   Gn8
 BYTE   N11
 BYTE   W01
 BYTE   PAN   c_v+61
 BYTE   W01
 BYTE   Ds8
 BYTE   W01
 BYTE   Cs8
 BYTE   W01
 BYTE   Cn8
 BYTE   W01
 BYTE   As7
 BYTE   W01
 BYTE   Gs7
 BYTE   W01
 BYTE   Fs7
 BYTE   W01
 BYTE   Fn7
 BYTE   W01
 BYTE   Ds7
 BYTE   W01
 BYTE   Cs7
 BYTE   W01
 BYTE   Cn7
 BYTE   W01
 BYTE   As6
 BYTE   N05  Dn1  v112
 BYTE   W01
 BYTE   PAN   c_v+40
 BYTE   W01
 BYTE   Fs6
 BYTE   W01
 BYTE   Fn6
 BYTE   W01
 BYTE   Ds6
 BYTE   W01
 BYTE   Cs6
 BYTE   W01
 BYTE   Bn5
 BYTE   N23  Bn0  v080
 BYTE   N11  Dn1  v092
 BYTE   W01
 BYTE   PAN   c_v+29
 BYTE   W01
 BYTE   Gn5
 BYTE   W01
 BYTE   Fs5
 BYTE   W01
 BYTE   En5
 BYTE   W01
 BYTE   Dn5
 BYTE   W01
 BYTE   Cs5
 BYTE   W01
 BYTE   Bn4
 BYTE   W01
 BYTE   An4
 BYTE   W01
 BYTE   Gn4
 BYTE   W01
 BYTE   Fs4
 BYTE   W01
 BYTE   En4
 BYTE   W01
 BYTE   Dn4
 BYTE   N11
 BYTE   W01
 BYTE   PAN   c_v+8
 BYTE   W01
 BYTE   Bn3
 BYTE   W01
 BYTE   An3
 BYTE   W01
 BYTE   Gn3
 BYTE   W01
 BYTE   Fs3
 BYTE   W01
 BYTE   En3
 BYTE   W01
 BYTE   Dn3
 BYTE   W01
 BYTE   Cn3
 BYTE   W01
 BYTE   As2
 BYTE   W01
 BYTE   Gs2
 BYTE   W01
 BYTE   Gn2
 BYTE   W01
// 031   ----------------------------------------
 BYTE   Fn2
 BYTE   N11
 BYTE   W01
 BYTE   PAN   c_v-13
 BYTE   W01
 BYTE   Cs2
 BYTE   W01
 BYTE   Cn2
 BYTE   W01
 BYTE   As1
 BYTE   W01
 BYTE   Gs1
 BYTE   W01
 BYTE   Gn1
 BYTE   W01
 BYTE   Fn1
 BYTE   W01
 BYTE   Ds1
 BYTE   W01
 BYTE   Cs1
 BYTE   W01
 BYTE   Cn1
 BYTE   W01
 BYTE   As0
 BYTE   W01
 BYTE   Gs0
 BYTE   N05  Dn1  v112
 BYTE   W01
 BYTE   PAN   c_v-34
 BYTE   W01
 BYTE   En0
 BYTE   W01
 BYTE   Ds0
 BYTE   W01
 BYTE   Cs0
 BYTE   W01
 BYTE   BnM1
 BYTE   W01
 BYTE   AnM1
 BYTE   N23  Bn0  v080
 BYTE   N11  Dn1  v092
 BYTE   W01
 BYTE   PAN   c_v-44
 BYTE   W01
 BYTE   FsM1
 BYTE   W01
 BYTE   EnM1
 BYTE   W01
 BYTE   DnM1
 BYTE   W01
 BYTE   CsM1
 BYTE   W01
 BYTE   BnM2
 BYTE   W01
 BYTE   AnM2
 BYTE   W01
 BYTE   GsM2
 BYTE   W01
 BYTE   FsM2
 BYTE   W01
 BYTE   EnM2
 BYTE   W01
 BYTE   DnM2
 BYTE   W01
 BYTE   DnM2
 BYTE   N11
 BYTE   W01
 BYTE   PAN   c_v-60
 BYTE   W01
 BYTE   FnM2
 BYTE   W01
 BYTE   GnM2
 BYTE   W01
 BYTE   AnM2
 BYTE   W01
 BYTE   AsM2
 BYTE   W01
 BYTE   CnM1
 BYTE   W01
 BYTE   DnM1
 BYTE   W01
 BYTE   EnM1
 BYTE   W01
 BYTE   FnM1
 BYTE   W01
 BYTE   GnM1
 BYTE   W01
 BYTE   AnM1
 BYTE   W01
 BYTE   AsM1
 BYTE   N05  Dn1  v112
 BYTE   W01
 BYTE   PAN   c_v-40
 BYTE   W01
 BYTE   Dn0
 BYTE   W01
 BYTE   En0
 BYTE   W01
 BYTE   Fn0
 BYTE   W01
 BYTE   Gn0
 BYTE   W01
 BYTE   An0
 BYTE   N23  Bn0  v080
 BYTE   N11  Dn1  v092
 BYTE   W01
 BYTE   PAN   c_v-29
 BYTE   W01
 BYTE   Cn1
 BYTE   W01
 BYTE   Dn1
 BYTE   W01
 BYTE   En1
 BYTE   W01
 BYTE   Fn1
 BYTE   W01
 BYTE   Gn1
 BYTE   W01
 BYTE   An1
 BYTE   W01
 BYTE   Bn1
 BYTE   W01
 BYTE   Cn2
 BYTE   W01
 BYTE   Dn2
 BYTE   W01
 BYTE   En2
 BYTE   W01
 BYTE   Fs2
 BYTE   N11
 BYTE   W01
 BYTE   PAN   c_v-9
 BYTE   W01
 BYTE   An2
 BYTE   W01
 BYTE   Bn2
 BYTE   W01
 BYTE   Cn3
 BYTE   W01
 BYTE   Dn3
 BYTE   W01
 BYTE   En3
 BYTE   W01
 BYTE   Fn3
 BYTE   W01
 BYTE   Gn3
 BYTE   W01
 BYTE   Gs3
 BYTE   W01
 BYTE   As3
 BYTE   W01
 BYTE   Cn4
 BYTE   W01
 BYTE   Dn4
 BYTE   N11
 BYTE   W01
 BYTE   PAN   c_v+11
 BYTE   W01
 BYTE   Fn4
 BYTE   W01
 BYTE   Gn4
 BYTE   W01
 BYTE   An4
 BYTE   W01
 BYTE   As4
 BYTE   W01
 BYTE   Cn5
 BYTE   W01
 BYTE   Dn5
 BYTE   W01
 BYTE   Ds5
 BYTE   W01
 BYTE   Fn5
 BYTE   W01
 BYTE   Gn5
 BYTE   W01
 BYTE   An5
 BYTE   W01
 BYTE   As5
 BYTE   N05  Dn1  v112
 BYTE   W01
 BYTE   PAN   c_v+32
 BYTE   W01
 BYTE   Dn6
 BYTE   W01
 BYTE   Ds6
 BYTE   W01
 BYTE   Fn6
 BYTE   W01
 BYTE   Gn6
 BYTE   W01
 BYTE   An6
 BYTE   N23  Bn0  v080
 BYTE   N11  Dn1  v092
 BYTE   W01
 BYTE   PAN   c_v+42
 BYTE   W01
 BYTE   Cn7
 BYTE   W01
 BYTE   Dn7
 BYTE   W01
 BYTE   En7
 BYTE   W01
 BYTE   Fn7
 BYTE   W01
// 032   ----------------------------------------
 BYTE   Gn7
 BYTE   W01
 BYTE   An7
 BYTE   W01
 BYTE   As7
 BYTE   W01
 BYTE   Cn8
 BYTE   W01
 BYTE   Dn8
 BYTE   W01
 BYTE   En8
 BYTE   W01
 BYTE   Fs8
 BYTE   N11
 BYTE   W01
 BYTE   PAN   c_v+60
 BYTE   W01
 BYTE   Dn8
 BYTE   W01
 BYTE   Cs8
 BYTE   W01
 BYTE   Bn7
 BYTE   W01
 BYTE   An7
 BYTE   W01
 BYTE   Gs7
 BYTE   W01
 BYTE   Fs7
 BYTE   W01
 BYTE   En7
 BYTE   W01
 BYTE   Dn7
 BYTE   W01
 BYTE   Cs7
 BYTE   W01
 BYTE   Bn6
 BYTE   W01
 BYTE   An6
 BYTE   N23  Bn0  v080
 BYTE   N11  Dn1  v092
 BYTE   W01
 BYTE   PAN   c_v+40
 BYTE   W01
 BYTE   Fs6
 BYTE   W01
 BYTE   Ds6
 BYTE   W01
 BYTE   Dn6
 BYTE   W01
 BYTE   Cn6
 BYTE   W01
 BYTE   As5
 BYTE   W01
 BYTE   An5
 BYTE   W01
 BYTE   Gn5
 BYTE   W01
 BYTE   Fn5
 BYTE   W01
 BYTE   Ds5
 BYTE   W01
 BYTE   Dn5
 BYTE   W01
 BYTE   Cn5
 BYTE   N11
 BYTE   W01
 BYTE   PAN   c_v+18
 BYTE   W01
 BYTE   An4
 BYTE   W01
 BYTE   Gn4
 BYTE   W01
 BYTE   Fn4
 BYTE   W01
 BYTE   Ds4
 BYTE   W01
 BYTE   Cs4
 BYTE   W01
 BYTE   Bn3
 BYTE   W01
 BYTE   As3
 BYTE   W01
 BYTE   Gs3
 BYTE   W01
 BYTE   Fs3
 BYTE   W01
 BYTE   En3
 BYTE   W01
 BYTE   Ds3
 BYTE   N11
 BYTE   W01
 BYTE   PAN   c_v-3
 BYTE   W01
 BYTE   Bn2
 BYTE   W01
 BYTE   As2
 BYTE   W01
 BYTE   Gs2
 BYTE   W01
 BYTE   Fs2
 BYTE   W01
 BYTE   En2
 BYTE   W01
 BYTE   Ds2
 BYTE   W01
 BYTE   Cn2
 BYTE   W01
 BYTE   Bn1
 BYTE   W01
 BYTE   An1
 BYTE   W01
 BYTE   Gn1
 BYTE   W42
 BYTE   W01
// 033   ----------------------------------------
 BYTE   W96
// 034   ----------------------------------------
 BYTE   W96
// 035   ----------------------------------------
 BYTE   W52
 BYTE   W01
 BYTE   Gn8
 BYTE   W01
 BYTE   Fs8
 BYTE   N22  Cn1  v072
 BYTE   W01
 BYTE   PAN   c_v+61
 BYTE   W01
 BYTE   Ds8
 BYTE   W01
 BYTE   Dn8
 BYTE   W01
 BYTE   Cs8
 BYTE   W01
 BYTE   Bn7
 BYTE   W01
 BYTE   As7
 BYTE   W01
 BYTE   An7
 BYTE   W01
 BYTE   Gn7
 BYTE   W01
 BYTE   Fs7
 BYTE   W01
 BYTE   Fn7
 BYTE   W01
 BYTE   Ds7
 BYTE   W01
 BYTE   Dn7
 BYTE   W01
 BYTE   Cs7
 BYTE   W01
 BYTE   Bn6
 BYTE   W01
 BYTE   As6
 BYTE   W01
 BYTE   An6
 BYTE   W01
 BYTE   Gn6
 BYTE   W01
 BYTE   Fs6
 BYTE   W01
 BYTE   Fn6
 BYTE   W01
 BYTE   Ds6
 BYTE   W01
 BYTE   Dn6
 BYTE   W01
 BYTE   Cs6
 BYTE   W01
 BYTE   Bn5
 BYTE   W01
 BYTE   As5
 BYTE   N22  Cn1  v068
 BYTE   W01
 BYTE   PAN   c_v+29
 BYTE   W01
 BYTE   Gn5
 BYTE   W01
 BYTE   Fs5
 BYTE   W01
 BYTE   Fn5
 BYTE   W01
 BYTE   Ds5
 BYTE   W01
 BYTE   Dn5
 BYTE   W01
 BYTE   Cs5
 BYTE   W01
 BYTE   Bn4
 BYTE   W01
 BYTE   As4
 BYTE   W01
 BYTE   An4
 BYTE   W01
 BYTE   Gn4
 BYTE   W01
 BYTE   Fs4
 BYTE   W01
 BYTE   Fn4
 BYTE   W01
 BYTE   Ds4
 BYTE   W01
 BYTE   Dn4
 BYTE   W01
 BYTE   Cn4
 BYTE   W01
 BYTE   Bn3
 BYTE   W01
// 036   ----------------------------------------
 BYTE   As3
 BYTE   W01
 BYTE   Gs3
 BYTE   W01
 BYTE   Gn3
 BYTE   W01
 BYTE   Fs3
 BYTE   W01
 BYTE   En3
 BYTE   W01
 BYTE   Ds3
 BYTE   W01
 BYTE   Dn3
 BYTE   N22
 BYTE   W01
 BYTE   PAN   c_v-4
 BYTE   W01
 BYTE   Bn2
 BYTE   W01
 BYTE   As2
 BYTE   W01
 BYTE   Gs2
 BYTE   W01
 BYTE   Gn2
 BYTE   W01
 BYTE   Fs2
 BYTE   W01
 BYTE   En2
 BYTE   W01
 BYTE   Ds2
 BYTE   W01
 BYTE   Cs2
 BYTE   W01
 BYTE   Cn2
 BYTE   W01
 BYTE   Bn1
 BYTE   W01
 BYTE   An1
 BYTE   W01
 BYTE   Gs1
 BYTE   W01
 BYTE   Gn1
 BYTE   W01
 BYTE   Fn1
 BYTE   W01
 BYTE   En1
 BYTE   W01
 BYTE   Ds1
 BYTE   W01
 BYTE   Cs1
 BYTE   W01
 BYTE   Cn1
 BYTE   W01
 BYTE   Bn0
 BYTE   W01
 BYTE   An0
 BYTE   W01
 BYTE   Gs0
 BYTE   W01
 BYTE   Gn0
 BYTE   W01
 BYTE   Fn0
 BYTE   N22  Cn1  v076
 BYTE   W01
 BYTE   PAN   c_v-36
 BYTE   W01
 BYTE   Ds0
 BYTE   W01
 BYTE   Cs0
 BYTE   W01
 BYTE   Cn0
 BYTE   W01
 BYTE   AsM1
 BYTE   W01
 BYTE   AnM1
 BYTE   W01
 BYTE   GsM1
 BYTE   W01
 BYTE   FsM1
 BYTE   W01
 BYTE   FnM1
 BYTE   W01
 BYTE   EnM1
 BYTE   W01
 BYTE   DnM1
 BYTE   W01
 BYTE   CsM1
 BYTE   W01
 BYTE   CnM1
 BYTE   W01
 BYTE   AsM2
 BYTE   W01
 BYTE   AnM2
 BYTE   W01
 BYTE   GsM2
 BYTE   W01
 BYTE   FsM2
 BYTE   W01
 BYTE   FnM2
 BYTE   W01
 BYTE   EnM2
 BYTE   W01
 BYTE   DnM2
 BYTE   W01
 BYTE   CsM2
 BYTE   W01
 BYTE   CsM2
 BYTE   W01
 BYTE   GoTo
  POIN2 Label_8_01EA8A80
 BYTE   FINE

//******************************************************//
	ALIGN 4

KirbySuperStarUltraTheStrongestKnightintheGalaxyRSflame:
	BYTE	9	// NumTrks
	BYTE	0	// NumBlks
	BYTE	KirbySuperStarUltraTheStrongestKnightintheGalaxyRSflame_pri	// Priority
	BYTE	KirbySuperStarUltraTheStrongestKnightintheGalaxyRSflame_rev	// Reverb.
    
	POIN2	KirbySuperStarUltraTheStrongestKnightintheGalaxyRSflame_grp
    
	POIN2	KirbySuperStarUltraTheStrongestKnightintheGalaxyRSflame_001
	POIN2	KirbySuperStarUltraTheStrongestKnightintheGalaxyRSflame_002
	POIN2	KirbySuperStarUltraTheStrongestKnightintheGalaxyRSflame_003
	POIN2	KirbySuperStarUltraTheStrongestKnightintheGalaxyRSflame_004
	POIN2	KirbySuperStarUltraTheStrongestKnightintheGalaxyRSflame_005
	POIN2	KirbySuperStarUltraTheStrongestKnightintheGalaxyRSflame_006
	POIN2	KirbySuperStarUltraTheStrongestKnightintheGalaxyRSflame_007
	POIN2	KirbySuperStarUltraTheStrongestKnightintheGalaxyRSflame_008
	POIN2	KirbySuperStarUltraTheStrongestKnightintheGalaxyRSflame_009

	
