//Event file generated from Sappy .s format.
	#include "MPlayDef.event"

	#define	KirbyTripleDeluxeMoonstruckBlossomRandomWizard_grp  voicegroup000
	#define	KirbyTripleDeluxeMoonstruckBlossomRandomWizard_pri  0
	#define	KirbyTripleDeluxeMoonstruckBlossomRandomWizard_rev  0
	#define	KirbyTripleDeluxeMoonstruckBlossomRandomWizard_mvl  127
	#define	KirbyTripleDeluxeMoonstruckBlossomRandomWizard_key  0
	#define	KirbyTripleDeluxeMoonstruckBlossomRandomWizard_tbs  1
	#define	KirbyTripleDeluxeMoonstruckBlossomRandomWizard_exg  0
	#define	KirbyTripleDeluxeMoonstruckBlossomRandomWizard_cmp  1

	// .rodata
	//	KirbyTripleDeluxeMoonstruckBlossomRandomWizard
	ALIGN 4


//**************** Track 1 (Midi-Chn.0) ****************//

KirbyTripleDeluxeMoonstruckBlossomRandomWizard_001:
// 000   ----------------------------------------
 BYTE   KEYSH   KirbyTripleDeluxeMoonstruckBlossomRandomWizard_key+0
 BYTE   TEMPO   64*KirbyTripleDeluxeMoonstruckBlossomRandomWizard_tbs/2
 BYTE   VOICE   8
 BYTE   VOL   29*KirbyTripleDeluxeMoonstruckBlossomRandomWizard_mvl/mxv
 BYTE   PAN   c_v+0
 BYTE   VOL   29*KirbyTripleDeluxeMoonstruckBlossomRandomWizard_mvl/mxv
 BYTE   PAN   c_v+0
 BYTE   W96
// 001   ----------------------------------------
 BYTE   TEMPO   60*KirbyTripleDeluxeMoonstruckBlossomRandomWizard_tbs/2
 BYTE   W54
 BYTE   TEMPO   50*KirbyTripleDeluxeMoonstruckBlossomRandomWizard_tbs/2
 BYTE   W30
 BYTE   TEMPO   74*KirbyTripleDeluxeMoonstruckBlossomRandomWizard_tbs/2
 BYTE   W60
// 002   ----------------------------------------
 BYTE   TEMPO   160*KirbyTripleDeluxeMoonstruckBlossomRandomWizard_tbs/2
 BYTE   W96
// 003   ----------------------------------------
Label_0_015570F7:
 BYTE   W12
 BYTE   N11  Fn5  v096
 BYTE   W12
 BYTE   Cn6
 BYTE   W12
 BYTE   Fn6
 BYTE   W12
 BYTE   Dn6
 BYTE   W12
 BYTE   Cn6
 BYTE   W12
 BYTE   As5
 BYTE   W12
 BYTE   Cn6
 BYTE   W12
 BYTE   PEND 
// 004   ----------------------------------------
Label_0_01557109:
 BYTE   W72
 BYTE   N11  Fn5  v096
 BYTE   N11  An5
 BYTE   W12
 BYTE   N23  Gn5
 BYTE   N23  As5
 BYTE   W12
 BYTE   PEND 
// 005   ----------------------------------------
Label_0_01557116:
 BYTE   W12
 BYTE   N80  Fn5  v096
 BYTE   N80  Dn6
 BYTE   W84
 BYTE   PEND 
// 006   ----------------------------------------
 BYTE   W96
 BYTE   PATT
  POIN2 Label_0_015570F7
// 007   ----------------------------------------
 BYTE   W96
// 008   ----------------------------------------
Label_0_01557125:
 BYTE   W12
 BYTE   N11  Dn6  v096
 BYTE   W12
 BYTE   Fn6
 BYTE   W12
 BYTE   N23  As6
 BYTE   W24
 BYTE   N32  As5
 BYTE   W36
 BYTE   PEND 
// 009   ----------------------------------------
 BYTE   W48
Label_0_01557134:
 BYTE   W48
// 010   ----------------------------------------
 BYTE   W96
// 011   ----------------------------------------
 BYTE   W96
// 012   ----------------------------------------
 BYTE   W96
// 013   ----------------------------------------
 BYTE   W96
// 014   ----------------------------------------
 BYTE   W96
// 015   ----------------------------------------
 BYTE   W96
// 016   ----------------------------------------
 BYTE   W96
// 017   ----------------------------------------
 BYTE   W96
// 018   ----------------------------------------
 BYTE   W96
// 019   ----------------------------------------
 BYTE   W96
// 020   ----------------------------------------
 BYTE   W96
// 021   ----------------------------------------
 BYTE   N11  Dn1  v112
 BYTE   N11  Dn5  v127
 BYTE   W12
 BYTE   Gn1  v112
 BYTE   N11  Gn5  v127
 BYTE   W24
 BYTE   Cn2  v112
 BYTE   N11  Cn6  v127
 BYTE   W36
 BYTE   Dn1  v112
 BYTE   N11  Dn5  v127
 BYTE   W12
 BYTE   Cn2  v112
 BYTE   N11  Cn6  v127
 BYTE   W12
// 022   ----------------------------------------
 BYTE   W12
 BYTE   Fn2  v112
 BYTE   N11  Fn6  v127
 BYTE   W36
 BYTE   N23  Cn3  v112
 BYTE   N23  Cn7  v127
 BYTE   W24
 BYTE   As2  v112
 BYTE   N23  As6  v127
 BYTE   W24
// 023   ----------------------------------------
 BYTE   N11  An2  v112
 BYTE   N11  An6  v127
 BYTE   W12
 BYTE   N01  Gn2  v112
 BYTE   W01
 BYTE   Fn2
 BYTE   W02
 BYTE   Ds2
 BYTE   W01
 BYTE   Dn2
 BYTE   W02
 BYTE   Cn2
 BYTE   W01
 BYTE   As1
 BYTE   W02
 BYTE   An1
 BYTE   W01
 BYTE   Gn1
 BYTE   W72
 BYTE   W02
// 024   ----------------------------------------
 BYTE   W96
// 025   ----------------------------------------
 BYTE   W96
// 026   ----------------------------------------
 BYTE   W96
// 027   ----------------------------------------
 BYTE   N68  Gn2
 BYTE   W72
 BYTE   N11  Dn2
 BYTE   W12
 BYTE   N11
 BYTE   W12
// 028   ----------------------------------------
 BYTE   Fn2
 BYTE   W12
 BYTE   En2
 BYTE   W12
 BYTE   Dn2
 BYTE   W12
 BYTE   N56  Cn2
 BYTE   W60
// 029   ----------------------------------------
 BYTE   N68  Gn2
 BYTE   W72
 BYTE   N11  Dn2
 BYTE   W12
 BYTE   Fn2
 BYTE   W12
// 030   ----------------------------------------
 BYTE   Cn3
 BYTE   W12
 BYTE   An2
 BYTE   W12
 BYTE   Gn2
 BYTE   W12
 BYTE   N56  Fn2
 BYTE   W60
// 031   ----------------------------------------
 BYTE   W96
// 032   ----------------------------------------
 BYTE   W96
// 033   ----------------------------------------
 BYTE   N44  As2
 BYTE   N44  Gn3
 BYTE   W48
 BYTE   N23  As2
 BYTE   N23  Gn3
 BYTE   W24
 BYTE   Dn3
 BYTE   N23  As3
 BYTE   W24
// 034   ----------------------------------------
 BYTE   N17  Cn3
 BYTE   N17  An3
 BYTE   W18
 BYTE   As2
 BYTE   N17  Gn3
 BYTE   W18
 BYTE   N56  An2
 BYTE   N56  Fn3
 BYTE   W60
// 035   ----------------------------------------
 BYTE   W96
// 036   ----------------------------------------
 BYTE   W96
// 037   ----------------------------------------
 BYTE   W96
// 038   ----------------------------------------
 BYTE   W96
// 039   ----------------------------------------
 BYTE   N11  Dn3  v092
 BYTE   W12
 BYTE   Ds3  v104
 BYTE   W12
 BYTE   Dn3  v096
 BYTE   W12
 BYTE   Ds3  v104
 BYTE   W12
 BYTE   N23  Fn3  v108
 BYTE   W24
 BYTE   N11  Dn3  v092
 BYTE   W12
 BYTE   As2
 BYTE   W12
// 040   ----------------------------------------
 BYTE   Cn3  v108
 BYTE   W12
 BYTE   Dn3
 BYTE   W12
 BYTE   Cn3  v092
 BYTE   W12
 BYTE   N23  Dn3  v104
 BYTE   W24
 BYTE   N11  Cn3  v088
 BYTE   W12
 BYTE   An2  v096
 BYTE   W12
 BYTE   Fn2  v092
 BYTE   W12
// 041   ----------------------------------------
 BYTE   N44  Cn3  v072
 BYTE   N44  Fn3  v124
 BYTE   W48
 BYTE   As2  v076
 BYTE   N15  Ds3  v100
 BYTE   W16
 BYTE   Fn3  v104
 BYTE   W16
 BYTE   Ds3  v096
 BYTE   W16
// 042   ----------------------------------------
 BYTE   TIE  An2  v072
 BYTE   TIE  Dn3  v092
 BYTE   W96
// 043   ----------------------------------------
 BYTE   W92
 BYTE   W03
 BYTE   EOT
 BYTE   An2  v062
 BYTE   W01
// 044   ----------------------------------------
 BYTE   W96
// 045   ----------------------------------------
 BYTE   W96
// 046   ----------------------------------------
 BYTE   W96
// 047   ----------------------------------------
 BYTE   W96
// 048   ----------------------------------------
 BYTE   W96
// 049   ----------------------------------------
 BYTE   W96
// 050   ----------------------------------------
 BYTE   W96
// 051   ----------------------------------------
 BYTE   W96
// 052   ----------------------------------------
 BYTE   W96
// 053   ----------------------------------------
 BYTE   W96
// 054   ----------------------------------------
 BYTE   W96
// 055   ----------------------------------------
 BYTE   W96
// 056   ----------------------------------------
 BYTE   W96
// 057   ----------------------------------------
 BYTE   W96
// 058   ----------------------------------------
 BYTE   W96
// 059   ----------------------------------------
 BYTE   W96
// 060   ----------------------------------------
 BYTE   W96
// 061   ----------------------------------------
 BYTE   W96
// 062   ----------------------------------------
 BYTE   W96
// 063   ----------------------------------------
 BYTE   N11  An4  v127
 BYTE   W12
 BYTE   N23  As4
 BYTE   W24
 BYTE   N32  Fn5
 BYTE   W36
 BYTE   N23  Ds5
 BYTE   W24
// 064   ----------------------------------------
 BYTE   W96
// 065   ----------------------------------------
 BYTE   N11  An5
 BYTE   W12
 BYTE   N23  As5
 BYTE   W24
 BYTE   Fn6
 BYTE   W60
// 066   ----------------------------------------
 BYTE   W96
// 067   ----------------------------------------
 BYTE   N11  Fn5
 BYTE   W12
 BYTE   N23  Gn5
 BYTE   W24
 BYTE   Cn6
 BYTE   W60
// 068   ----------------------------------------
 BYTE   W96
// 069   ----------------------------------------
 BYTE   W96
 BYTE   PATT
  POIN2 Label_0_015570F7
 BYTE   PATT
  POIN2 Label_0_01557109
 BYTE   PATT
  POIN2 Label_0_01557116
// 070   ----------------------------------------
 BYTE   W96
 BYTE   PATT
  POIN2 Label_0_015570F7
// 071   ----------------------------------------
 BYTE   W96
 BYTE   PATT
  POIN2 Label_0_01557125
// 072   ----------------------------------------
 BYTE   W48
 BYTE   GoTo
  POIN2 Label_0_01557134
 BYTE   FINE

//**************** Track 2 (Midi-Chn.1) ****************//

KirbyTripleDeluxeMoonstruckBlossomRandomWizard_002:
// 000   ----------------------------------------
 BYTE   KEYSH   KirbyTripleDeluxeMoonstruckBlossomRandomWizard_key+0
 BYTE   VOICE   73
 BYTE   VOL   29*KirbyTripleDeluxeMoonstruckBlossomRandomWizard_mvl/mxv
 BYTE   PAN   c_v+0
 BYTE   VOL   29*KirbyTripleDeluxeMoonstruckBlossomRandomWizard_mvl/mxv
 BYTE   PAN   c_v+0
 BYTE   W96
// 001   ----------------------------------------
 BYTE   W96
// 002   ----------------------------------------
 BYTE   W48
 BYTE   W96
// 003   ----------------------------------------
 BYTE   W96
// 004   ----------------------------------------
 BYTE   W96
// 005   ----------------------------------------
 BYTE   W96
// 006   ----------------------------------------
 BYTE   W96
// 007   ----------------------------------------
 BYTE   W96
// 008   ----------------------------------------
 BYTE   W96
// 009   ----------------------------------------
 BYTE   W96
// 010   ----------------------------------------
 BYTE   W48
Label_1_01557290:
 BYTE   W48
// 011   ----------------------------------------
 BYTE   W96
// 012   ----------------------------------------
 BYTE   W96
// 013   ----------------------------------------
 BYTE   W96
// 014   ----------------------------------------
 BYTE   W96
// 015   ----------------------------------------
 BYTE   W96
// 016   ----------------------------------------
 BYTE   W96
// 017   ----------------------------------------
 BYTE   W96
// 018   ----------------------------------------
 BYTE   N11  An3  v052
 BYTE   W12
 BYTE   As3
 BYTE   W24
 BYTE   Fn4
 BYTE   W36
 BYTE   An3
 BYTE   W12
 BYTE   As3
 BYTE   W12
// 019   ----------------------------------------
 BYTE   W12
 BYTE   An4
 BYTE   W84
// 020   ----------------------------------------
 BYTE   An3
 BYTE   W12
 BYTE   As3
 BYTE   W24
 BYTE   Gn4
 BYTE   N11  Cn5
 BYTE   W36
 BYTE   An3
 BYTE   W12
 BYTE   As3
 BYTE   W12
// 021   ----------------------------------------
 BYTE   W12
 BYTE   As4
 BYTE   W36
 BYTE   Dn2  v080
 BYTE   N11  Dn4  v052
 BYTE   W12
 BYTE   Cn2  v080
 BYTE   N11  Cn4  v052
 BYTE   W12
 BYTE   As1  v080
 BYTE   N11  As3  v052
 BYTE   W12
 BYTE   Cn2  v080
 BYTE   N11  Cn4  v052
 BYTE   W12
// 022   ----------------------------------------
 BYTE   Dn2  v112
 BYTE   N11  Dn3  v052
 BYTE   W12
 BYTE   Gn2  v112
 BYTE   N11  Gn3  v052
 BYTE   W24
 BYTE   Cn3  v112
 BYTE   N11  Cn4  v052
 BYTE   W36
 BYTE   Dn2  v112
 BYTE   N11  Dn3  v052
 BYTE   W12
 BYTE   Cn3  v112
 BYTE   N11  Cn4  v052
 BYTE   W12
// 023   ----------------------------------------
 BYTE   W12
 BYTE   Fn3  v112
 BYTE   N11  Fn4  v052
 BYTE   W36
 BYTE   N23  Cn3  v112
 BYTE   N22  Cn5  v052
 BYTE   W24
 BYTE   N23  As2  v112
 BYTE   N22  As4  v052
 BYTE   W24
// 024   ----------------------------------------
 BYTE   N11  An2  v112
 BYTE   N11  An4  v052
 BYTE   W12
 BYTE   N01  Gn4
 BYTE   W01
 BYTE   Fn4
 BYTE   W02
 BYTE   Ds4
 BYTE   W01
 BYTE   Dn4
 BYTE   W02
 BYTE   Cn4
 BYTE   W01
 BYTE   As3
 BYTE   W02
 BYTE   An3
 BYTE   W01
 BYTE   Gn3
 BYTE   W72
 BYTE   W02
// 025   ----------------------------------------
 BYTE   W96
// 026   ----------------------------------------
 BYTE   W96
// 027   ----------------------------------------
 BYTE   W96
// 028   ----------------------------------------
 BYTE   N68  Gn2  v112
 BYTE   W72
 BYTE   N11  Dn2
 BYTE   W12
 BYTE   N11
 BYTE   W12
// 029   ----------------------------------------
 BYTE   Fn2
 BYTE   W12
 BYTE   En2
 BYTE   W12
 BYTE   Dn2
 BYTE   W12
 BYTE   N56  Cn2
 BYTE   W60
// 030   ----------------------------------------
 BYTE   N68  Gn2
 BYTE   W72
 BYTE   N11  Dn2
 BYTE   W12
 BYTE   Fn2
 BYTE   W12
// 031   ----------------------------------------
 BYTE   Cn3
 BYTE   W12
 BYTE   An2
 BYTE   W12
 BYTE   Gn2
 BYTE   W12
 BYTE   N56  Fn2
 BYTE   W60
// 032   ----------------------------------------
 BYTE   W96
// 033   ----------------------------------------
 BYTE   W96
// 034   ----------------------------------------
 BYTE   N44  As1
 BYTE   N44  Gn2
 BYTE   W48
 BYTE   N23  As1
 BYTE   N23  Gn2
 BYTE   W24
 BYTE   Dn2
 BYTE   N23  As2
 BYTE   W24
// 035   ----------------------------------------
 BYTE   N17  Cn2
 BYTE   N17  An2
 BYTE   W18
 BYTE   As1
 BYTE   N17  Gn2
 BYTE   W18
 BYTE   N56  An1
 BYTE   N56  Fn2
 BYTE   W60
// 036   ----------------------------------------
 BYTE   W96
// 037   ----------------------------------------
 BYTE   W96
// 038   ----------------------------------------
 BYTE   W96
// 039   ----------------------------------------
 BYTE   W96
// 040   ----------------------------------------
 BYTE   N11  Dn3  v092
 BYTE   W12
 BYTE   Ds3  v104
 BYTE   W12
 BYTE   Dn3  v096
 BYTE   W12
 BYTE   Ds3  v104
 BYTE   W12
 BYTE   N23  Fn3  v108
 BYTE   W24
 BYTE   N11  Dn3  v092
 BYTE   W12
 BYTE   As2
 BYTE   W12
// 041   ----------------------------------------
 BYTE   Cn3  v108
 BYTE   W12
 BYTE   Dn3
 BYTE   W12
 BYTE   Cn3  v092
 BYTE   W12
 BYTE   N23  Dn3  v104
 BYTE   W24
 BYTE   N11  Cn3  v088
 BYTE   W12
 BYTE   An2  v096
 BYTE   W12
 BYTE   Fn2  v092
 BYTE   W12
// 042   ----------------------------------------
 BYTE   N44  Cn3  v072
 BYTE   N44  Fn3  v124
 BYTE   N44  Cn4  v072
 BYTE   N44  Fn4  v124
 BYTE   W48
 BYTE   As2  v076
 BYTE   N15  Ds3  v100
 BYTE   N44  As3  v076
 BYTE   N15  Ds4  v100
 BYTE   W16
 BYTE   Fn3  v104
 BYTE   N15  Fn4
 BYTE   W16
 BYTE   Ds3  v096
 BYTE   N15  Ds4
 BYTE   W16
// 043   ----------------------------------------
 BYTE   TIE  An2  v072
 BYTE   TIE  Dn3  v092
 BYTE   TIE  An3  v072
 BYTE   TIE  Dn4  v092
 BYTE   W96
// 044   ----------------------------------------
 BYTE   W84
 BYTE   W02
 BYTE   EOT
 BYTE   An3  v074
 BYTE   W09
 BYTE   An2  v062
 BYTE   W01
// 045   ----------------------------------------
 BYTE   N32  As3  v068
 BYTE   W36
 BYTE   N05  As3  v076
 BYTE   W06
 BYTE   Cn4  v080
 BYTE   W06
 BYTE   N22  Dn4
 BYTE   W24
 BYTE   Ds4
 BYTE   W24
// 046   ----------------------------------------
 BYTE   N32  Dn4  v076
 BYTE   W36
 BYTE   N56  An3  v068
 BYTE   W60
// 047   ----------------------------------------
 BYTE   N32  An3  v080
 BYTE   W36
 BYTE   N05
 BYTE   W06
 BYTE   As3
 BYTE   W06
 BYTE   N22  Cn4  v084
 BYTE   W24
 BYTE   Dn4
 BYTE   W24
// 048   ----------------------------------------
 BYTE   N32  Cn4  v076
 BYTE   W36
 BYTE   N56  Gn3  v068
 BYTE   W60
// 049   ----------------------------------------
 BYTE   W96
// 050   ----------------------------------------
 BYTE   W96
// 051   ----------------------------------------
 BYTE   W96
// 052   ----------------------------------------
 BYTE   W96
// 053   ----------------------------------------
 BYTE   W96
// 054   ----------------------------------------
 BYTE   W96
// 055   ----------------------------------------
 BYTE   W96
// 056   ----------------------------------------
 BYTE   W96
// 057   ----------------------------------------
 BYTE   W96
// 058   ----------------------------------------
 BYTE   W96
// 059   ----------------------------------------
 BYTE   W96
// 060   ----------------------------------------
 BYTE   W96
// 061   ----------------------------------------
 BYTE   W96
// 062   ----------------------------------------
 BYTE   W96
// 063   ----------------------------------------
 BYTE   W96
// 064   ----------------------------------------
 BYTE   W96
// 065   ----------------------------------------
 BYTE   W96
// 066   ----------------------------------------
 BYTE   W96
// 067   ----------------------------------------
 BYTE   W96
// 068   ----------------------------------------
 BYTE   W96
// 069   ----------------------------------------
 BYTE   W96
// 070   ----------------------------------------
 BYTE   W96
// 071   ----------------------------------------
 BYTE   W96
// 072   ----------------------------------------
 BYTE   W96
// 073   ----------------------------------------
 BYTE   W96
// 074   ----------------------------------------
 BYTE   W96
// 075   ----------------------------------------
 BYTE   W96
// 076   ----------------------------------------
 BYTE   W96
// 077   ----------------------------------------
 BYTE   W96
// 078   ----------------------------------------
 BYTE   W48
 BYTE   GoTo
  POIN2 Label_1_01557290
 BYTE   FINE

//**************** Track 3 (Midi-Chn.2) ****************//

KirbyTripleDeluxeMoonstruckBlossomRandomWizard_003:
// 000   ----------------------------------------
 BYTE   KEYSH   KirbyTripleDeluxeMoonstruckBlossomRandomWizard_key+0
 BYTE   VOICE   52
 BYTE   VOL   29*KirbyTripleDeluxeMoonstruckBlossomRandomWizard_mvl/mxv
 BYTE   PAN   c_v+0
 BYTE   VOL   29*KirbyTripleDeluxeMoonstruckBlossomRandomWizard_mvl/mxv
 BYTE   PAN   c_v+0
 BYTE   W96
// 001   ----------------------------------------
 BYTE   W96
// 002   ----------------------------------------
 BYTE   W48
 BYTE   TIE  Gn0  v080
 BYTE   W96
// 003   ----------------------------------------
 BYTE   W92
 BYTE   W03
 BYTE   EOT
 BYTE   W01
// 004   ----------------------------------------
 BYTE   TIE
 BYTE   W96
// 005   ----------------------------------------
 BYTE   W92
 BYTE   W03
 BYTE   EOT
 BYTE   W01
// 006   ----------------------------------------
 BYTE   TIE
 BYTE   W96
// 007   ----------------------------------------
 BYTE   W92
 BYTE   W03
 BYTE   EOT
 BYTE   W01
// 008   ----------------------------------------
 BYTE   N32  Fn0
 BYTE   W36
 BYTE   TIE
 BYTE   W60
// 009   ----------------------------------------
 BYTE   W92
 BYTE   W03
 BYTE   EOT
 BYTE   W01
// 010   ----------------------------------------
 BYTE   N32  Ds1
 BYTE   N32  An4
 BYTE   W36
 BYTE   N56  Ds1
 BYTE   N05  As4
 BYTE   W06
 BYTE   Cn5
 BYTE   W06
Label_2_01557454:
 BYTE   N80  An4  v080
 BYTE   W48
// 011   ----------------------------------------
Label_2_01557458:
 BYTE   N32  Ds1  v080
 BYTE   W36
 BYTE   N56  Dn1
 BYTE   N05  An4
 BYTE   W06
 BYTE   As4
 BYTE   W06
 BYTE   N11  An4
 BYTE   W12
 BYTE   Gn4
 BYTE   W12
 BYTE   Fn4
 BYTE   W12
 BYTE   Cn4
 BYTE   W12
 BYTE   PEND 
// 012   ----------------------------------------
Label_2_0155746D:
 BYTE   N32  Gn0  v080
 BYTE   N32  An3
 BYTE   W36
 BYTE   N11  Dn1
 BYTE   N05  As3
 BYTE   W06
 BYTE   Fn4
 BYTE   W06
 BYTE   N44  Gn1
 BYTE   N92  An3
 BYTE   W48
 BYTE   PEND 
// 013   ----------------------------------------
Label_2_01557480:
 BYTE   N23  Gn0  v080
 BYTE   W24
 BYTE   N11  Fn1
 BYTE   W12
 BYTE   Gn1
 BYTE   W12
 BYTE   Gn0
 BYTE   W12
 BYTE   N11
 BYTE   W12
 BYTE   Gn1
 BYTE   N11  As3
 BYTE   W12
 BYTE   Gn1
 BYTE   N11  Cn4
 BYTE   W12
 BYTE   PEND 
// 014   ----------------------------------------
 BYTE   N32  Ds0
 BYTE   N32  Dn4
 BYTE   W36
 BYTE   Ds0
 BYTE   N05  Dn4
 BYTE   W06
 BYTE   Gn4
 BYTE   W06
 BYTE   N80  Dn4
 BYTE   W24
 BYTE   N23  Ds1
 BYTE   W24
// 015   ----------------------------------------
 BYTE   Ds0
 BYTE   W24
 BYTE   N11  As0
 BYTE   W12
 BYTE   Ds1
 BYTE   N05  Cn4
 BYTE   W06
 BYTE   As3
 BYTE   W06
 BYTE   N11  Dn0
 BYTE   N11  An3
 BYTE   W12
 BYTE   Dn0
 BYTE   N11  Cn4
 BYTE   W12
 BYTE   Dn1
 BYTE   N11  Fn4
 BYTE   W12
 BYTE   Dn1
 BYTE   N11  An4
 BYTE   W12
// 016   ----------------------------------------
 BYTE   N32  Gn0
 BYTE   N32  Cn5
 BYTE   W36
 BYTE   N11  Dn1
 BYTE   N05  As4
 BYTE   W06
 BYTE   An4
 BYTE   W06
 BYTE   N44  Gn1
 BYTE   TIE  As4
 BYTE   W48
// 017   ----------------------------------------
 BYTE   N23  Gn0
 BYTE   W24
 BYTE   N11  Fn1
 BYTE   W12
 BYTE   Gn1
 BYTE   W12
 BYTE   Gn0
 BYTE   W12
 BYTE   N11
 BYTE   W11
 BYTE   EOT
 BYTE   As4
 BYTE   W01
 BYTE   N11  Gn1
 BYTE   W12
 BYTE   N11
 BYTE   W12
// 018   ----------------------------------------
 BYTE   N32  Ds1
 BYTE   N32  An4
 BYTE   W36
 BYTE   N56  Ds1
 BYTE   N05  As4
 BYTE   W06
 BYTE   Cn5
 BYTE   W06
 BYTE   N80  An4
 BYTE   W48
 BYTE   PATT
  POIN2 Label_2_01557458
 BYTE   PATT
  POIN2 Label_2_0155746D
 BYTE   PATT
  POIN2 Label_2_01557480
// 019   ----------------------------------------
 BYTE   N32  Gn0  v080
 BYTE   N32  Dn4
 BYTE   W36
 BYTE   N11  Dn1
 BYTE   N05  Dn4
 BYTE   W06
 BYTE   Gn4
 BYTE   W06
 BYTE   N44  Gn1
 BYTE   N68  Dn4
 BYTE   W48
// 020   ----------------------------------------
 BYTE   N23  Gn0
 BYTE   W24
 BYTE   N11  Fn1
 BYTE   N11  Dn4
 BYTE   W12
 BYTE   Gn1
 BYTE   N11  Fn4
 BYTE   W12
 BYTE   Gn0
 BYTE   N11  Gn4
 BYTE   W12
 BYTE   Gn0
 BYTE   N11  Cn5
 BYTE   W12
 BYTE   Gn1
 BYTE   N11  As4
 BYTE   W12
 BYTE   Gn1
 BYTE   N11  Cn5
 BYTE   W12
// 021   ----------------------------------------
 BYTE   N23  An4
 BYTE   W96
// 022   ----------------------------------------
 BYTE   W96
// 023   ----------------------------------------
 BYTE   W96
// 024   ----------------------------------------
 BYTE   W96
// 025   ----------------------------------------
 BYTE   TIE  Gn0
 BYTE   W96
// 026   ----------------------------------------
 BYTE   W92
 BYTE   W03
 BYTE   EOT
 BYTE   W01
// 027   ----------------------------------------
 BYTE   TIE
 BYTE   W96
// 028   ----------------------------------------
 BYTE   W92
 BYTE   W03
 BYTE   EOT
 BYTE   W01
// 029   ----------------------------------------
 BYTE   N92  Ds1
 BYTE   W96
// 030   ----------------------------------------
 BYTE   Dn1
 BYTE   W96
// 031   ----------------------------------------
 BYTE   Cn1
 BYTE   W96
// 032   ----------------------------------------
 BYTE   Dn1
 BYTE   W96
// 033   ----------------------------------------
 BYTE   TIE  Gn0
 BYTE   N68  Gn4  v088
 BYTE   W72
 BYTE   N11  Dn4  v084
 BYTE   W12
 BYTE   Dn4  v096
 BYTE   W12
// 034   ----------------------------------------
 BYTE   Fn4  v108
 BYTE   W12
 BYTE   En4  v096
 BYTE   W12
 BYTE   Dn4
 BYTE   W12
 BYTE   N56  Cn4  v092
 BYTE   W56
 BYTE   W03
 BYTE   EOT
 BYTE   Gn0
 BYTE   W01
// 035   ----------------------------------------
 BYTE   TIE  Gn0  v080
 BYTE   N68  Gn4  v116
 BYTE   W72
 BYTE   N11  Dn4  v088
 BYTE   W12
 BYTE   Fn4  v108
 BYTE   W12
// 036   ----------------------------------------
 BYTE   Cn5  v116
 BYTE   W12
 BYTE   An4  v096
 BYTE   W12
 BYTE   Gn4  v092
 BYTE   W12
 BYTE   N56  Fn4
 BYTE   W56
 BYTE   W03
 BYTE   EOT
 BYTE   Gn0
 BYTE   W01
// 037   ----------------------------------------
 BYTE   N92  Ds0  v080
 BYTE   W96
// 038   ----------------------------------------
 BYTE   Dn0
 BYTE   W96
// 039   ----------------------------------------
 BYTE   Cn1
 BYTE   N44  Cn4  v072
 BYTE   N44  Fn4  v124
 BYTE   W48
 BYTE   As3  v076
 BYTE   N15  Ds4  v100
 BYTE   W16
 BYTE   Fn4  v104
 BYTE   W16
 BYTE   Ds4  v096
 BYTE   W16
// 040   ----------------------------------------
 BYTE   TIE  Dn1  v080
 BYTE   TIE  An3  v072
 BYTE   TIE  Dn4  v092
 BYTE   W96
// 041   ----------------------------------------
 BYTE   W92
 BYTE   W03
 BYTE   EOT
 BYTE   Dn1  v069
 BYTE   Dn4
 BYTE   W01
// 042   ----------------------------------------
 BYTE   TIE  Gn0  v080
 BYTE   N32  As3  v068
 BYTE   W36
 BYTE   N05  As3  v076
 BYTE   W06
 BYTE   Cn4  v080
 BYTE   W06
 BYTE   N23  Dn4
 BYTE   W24
 BYTE   Ds4
 BYTE   W24
// 043   ----------------------------------------
 BYTE   N32  Dn4  v076
 BYTE   W36
 BYTE   N56  An3  v068
 BYTE   W56
 BYTE   W03
 BYTE   EOT
 BYTE   Gn0
 BYTE   W01
// 044   ----------------------------------------
 BYTE   TIE  Fn0  v080
 BYTE   N32  An3
 BYTE   W36
 BYTE   N05
 BYTE   W06
 BYTE   As3
 BYTE   W06
 BYTE   N23  Cn4  v084
 BYTE   W24
 BYTE   Dn4
 BYTE   W24
// 045   ----------------------------------------
 BYTE   N32  Cn4  v076
 BYTE   W36
 BYTE   N56  Gn3  v068
 BYTE   W56
 BYTE   W03
 BYTE   EOT
 BYTE   Fn0
 BYTE   W01
// 046   ----------------------------------------
 BYTE   N92  Ds0  v080
 BYTE   N32  Gn3
 BYTE   W36
 BYTE   N05
 BYTE   W06
 BYTE   An3
 BYTE   W06
 BYTE   N32  As3
 BYTE   W36
 BYTE   N05  As3  v076
 BYTE   W06
 BYTE   Cn4  v080
 BYTE   W06
// 047   ----------------------------------------
 BYTE   N92  Dn0
 BYTE   N11  Dn4  v088
 BYTE   W12
 BYTE   Cn4  v068
 BYTE   W12
 BYTE   Dn4  v080
 BYTE   W12
 BYTE   Cn4  v076
 BYTE   W12
 BYTE   Gn3  v068
 BYTE   W12
 BYTE   N23  Gn4  v096
 BYTE   W24
 BYTE   N05  Fs4  v084
 BYTE   W06
 BYTE   Dn4  v068
 BYTE   W06
// 048   ----------------------------------------
 BYTE   N92  Cs0  v080
 BYTE   N32  Cs4  v076
 BYTE   W36
 BYTE   En4  v100
 BYTE   N32  Cs5
 BYTE   W36
 BYTE   N23  Cs4  v056
 BYTE   W24
// 049   ----------------------------------------
 BYTE   N92  Cn0  v080
 BYTE   N32  Cn4  v072
 BYTE   W36
 BYTE   N56  Ds4  v096
 BYTE   N56  Cn5
 BYTE   W60
// 050   ----------------------------------------
 BYTE   N92  Gn0  v080
 BYTE   N23  As3  v056
 BYTE   N23  As4  v084
 BYTE   W24
 BYTE   N11  An3  v068
 BYTE   N11  An4  v080
 BYTE   W12
 BYTE   N23  As3
 BYTE   N23  As4
 BYTE   W24
 BYTE   N11  Cn4
 BYTE   N11  Cn5  v084
 BYTE   W12
 BYTE   Dn4  v088
 BYTE   N11  Dn5  v084
 BYTE   W12
 BYTE   Ds4
 BYTE   N11  Ds5  v080
 BYTE   W12
// 051   ----------------------------------------
 BYTE   N92  Fn0
 BYTE   N23  Dn4  v076
 BYTE   N23  Dn5  v080
 BYTE   W24
 BYTE   N11  An3  v068
 BYTE   N11  An4
 BYTE   W12
 BYTE   N56  An3  v076
 BYTE   N56  An4  v080
 BYTE   W60
// 052   ----------------------------------------
 BYTE   N92  Ds0
 BYTE   N23  Gn3  v072
 BYTE   N23  Gn4  v076
 BYTE   W24
 BYTE   N11  Fn3  v068
 BYTE   N11  Fn4
 BYTE   W12
 BYTE   N23  Gn3  v080
 BYTE   N23  Gn4
 BYTE   W24
 BYTE   N11  An3  v084
 BYTE   N11  An4
 BYTE   W12
 BYTE   As3  v080
 BYTE   N11  As4  v084
 BYTE   W12
 BYTE   Cn4
 BYTE   N11  Cn5
 BYTE   W12
// 053   ----------------------------------------
 BYTE   N44  Dn0  v080
 BYTE   N23  As3  v072
 BYTE   N23  As4
 BYTE   W24
 BYTE   Fn3  v068
 BYTE   N23  Fn4
 BYTE   W24
 BYTE   N44  Bn0  v080
 BYTE   N15  Fn4  v096
 BYTE   N15  Fn5
 BYTE   W16
 BYTE   Ds4  v072
 BYTE   N15  Ds5  v076
 BYTE   W16
 BYTE   Dn4
 BYTE   N15  Dn5  v072
 BYTE   W16
// 054   ----------------------------------------
 BYTE   N92  Cn1  v080
 BYTE   N32  Gn3  v052
 BYTE   W36
 BYTE   N05  Gn3  v076
 BYTE   W06
 BYTE   An3  v084
 BYTE   W06
 BYTE   N32  As3  v080
 BYTE   W36
 BYTE   N05
 BYTE   W06
 BYTE   Cn4  v076
 BYTE   W06
// 055   ----------------------------------------
 BYTE   N92  As0  v080
 BYTE   N11  Dn4
 BYTE   W12
 BYTE   Cn4  v072
 BYTE   W12
 BYTE   As3
 BYTE   W12
 BYTE   Cn4  v080
 BYTE   W12
 BYTE   Gn3  v068
 BYTE   W12
 BYTE   N23  Gn4  v096
 BYTE   W24
 BYTE   N05  Fs4  v076
 BYTE   W06
 BYTE   Dn4  v068
 BYTE   W06
// 056   ----------------------------------------
 BYTE   N92  An0  v080
 BYTE   N32  Cs3  v068
 BYTE   W36
 BYTE   Cs4  v092
 BYTE   W36
 BYTE   N23  En4  v084
 BYTE   W24
// 057   ----------------------------------------
 BYTE   TIE  Dn1  v080
 BYTE   N92  Gn4  v092
 BYTE   W96
// 058   ----------------------------------------
 BYTE   Fs4  v076
 BYTE   W92
 BYTE   W03
 BYTE   EOT
 BYTE   Dn1
 BYTE   W01
// 059   ----------------------------------------
 BYTE   TIE  Ds1  v080
 BYTE   TIE  Gn4  v064
 BYTE   W96
// 060   ----------------------------------------
 BYTE   W92
 BYTE   W03
 BYTE   EOT
 BYTE   Ds1  v079
 BYTE   W01
// 061   ----------------------------------------
 BYTE   TIE  Fn1  v080
 BYTE   W96
// 062   ----------------------------------------
 BYTE   W92
 BYTE   W03
 BYTE   EOT
 BYTE   W01
// 063   ----------------------------------------
 BYTE   TIE  Gn1
 BYTE   W96
// 064   ----------------------------------------
 BYTE   W92
 BYTE   W03
 BYTE   EOT
 BYTE   W01
// 065   ----------------------------------------
 BYTE   TIE  Dn1
 BYTE   W96
// 066   ----------------------------------------
 BYTE   W92
 BYTE   W03
 BYTE   EOT
 BYTE   W01
// 067   ----------------------------------------
 BYTE   TIE  Ds1
 BYTE   W96
// 068   ----------------------------------------
 BYTE   W92
 BYTE   W03
 BYTE   EOT
 BYTE   W01
// 069   ----------------------------------------
 BYTE   TIE  Dn1
 BYTE   W96
// 070   ----------------------------------------
 BYTE   W92
 BYTE   W03
 BYTE   EOT
 BYTE   W01
// 071   ----------------------------------------
 BYTE   TIE  Gn1
 BYTE   W96
// 072   ----------------------------------------
 BYTE   W92
 BYTE   W03
 BYTE   EOT
 BYTE   W01
// 073   ----------------------------------------
 BYTE   TIE  Fn1
 BYTE   W96
// 074   ----------------------------------------
 BYTE   W92
 BYTE   W03
 BYTE   EOT
 BYTE   W01
// 075   ----------------------------------------
 BYTE   N32  Ds1
 BYTE   N32  An4
 BYTE   W36
 BYTE   N11  Ds1
 BYTE   N05  As4
 BYTE   W06
 BYTE   Cn5
 BYTE   W06
 BYTE   GoTo
  POIN2 Label_2_01557454
 BYTE   FINE

//**************** Track 4 (Midi-Chn.3) ****************//

KirbyTripleDeluxeMoonstruckBlossomRandomWizard_004:
// 000   ----------------------------------------
 BYTE   KEYSH   KirbyTripleDeluxeMoonstruckBlossomRandomWizard_key+0
 BYTE   VOICE   1
 BYTE   VOL   29*KirbyTripleDeluxeMoonstruckBlossomRandomWizard_mvl/mxv
 BYTE   PAN   c_v+0
 BYTE   VOL   29*KirbyTripleDeluxeMoonstruckBlossomRandomWizard_mvl/mxv
 BYTE   PAN   c_v+0
 BYTE   N05  Fn4  v096
 BYTE   N05  An4
 BYTE   W06
 BYTE   N11  As4
 BYTE   W12
 BYTE   N17  Fn5
 BYTE   W18
 BYTE   N05  Fn4
 BYTE   N05  An4
 BYTE   W06
 BYTE   N11  As4
 BYTE   W12
 BYTE   N17  Fn5
 BYTE   W18
 BYTE   N05  Dn5
 BYTE   W06
 BYTE   Cn5
 BYTE   W06
 BYTE   As4
 BYTE   W06
 BYTE   Cn5
 BYTE   W06
// 001   ----------------------------------------
 BYTE   Dn5
 BYTE   W06
 BYTE   N11  Gn5
 BYTE   W12
 BYTE   N17  Cn6
 BYTE   W18
 BYTE   N05  Fn5
 BYTE   W06
 BYTE   N11  Cn6
 BYTE   W12
 BYTE   N17  Fn6
 BYTE   W18
 BYTE   N11  Cn7
 BYTE   W12
 BYTE   N44  As6
 BYTE   W60
// 002   ----------------------------------------
 BYTE   N11  An3  v080
 BYTE   W12
 BYTE   N22  As3
 BYTE   W24
 BYTE   Fn4
 BYTE   W24
 BYTE   N11  En4
 BYTE   W12
 BYTE   An3
 BYTE   W12
 BYTE   N22  As3
 BYTE   W12
// 003   ----------------------------------------
Label_3_015577B8:
 BYTE   W12
 BYTE   N22  Fn4  v080
 BYTE   W24
 BYTE   N56  Gn3
 BYTE   W60
 BYTE   PEND 
// 004   ----------------------------------------
Label_3_015577C1:
 BYTE   N11  An3  v080
 BYTE   W12
 BYTE   N22  As3
 BYTE   W24
 BYTE   N32  Fn4
 BYTE   W36
 BYTE   N11
 BYTE   N11  An4
 BYTE   W12
 BYTE   N22  Gn4
 BYTE   N22  As4
 BYTE   W12
 BYTE   PEND 
// 005   ----------------------------------------
Label_3_015577D5:
 BYTE   W12
 BYTE   N11  Fn3  v052
 BYTE   N11  Dn4
 BYTE   W12
 BYTE   Fn3
 BYTE   N11  Ds4
 BYTE   W12
 BYTE   N22  Fn3
 BYTE   N22  Fn4
 BYTE   W24
 BYTE   N32  As3
 BYTE   N32  Ds4
 BYTE   W36
 BYTE   PEND 
// 006   ----------------------------------------
Label_3_015577EB:
 BYTE   N11  An2  v096
 BYTE   W12
 BYTE   N22  As2
 BYTE   W24
 BYTE   Fn3
 BYTE   W24
 BYTE   N44  Dn3  v052
 BYTE   W36
 BYTE   PEND 
// 007   ----------------------------------------
 BYTE   W12
 BYTE   N22  As3
 BYTE   W24
 BYTE   N56  As2
 BYTE   W36
 BYTE   N05  Gn1  v080
 BYTE   W06
 BYTE   N05
 BYTE   W06
 BYTE   N05
 BYTE   W06
 BYTE   N05
 BYTE   W06
// 008   ----------------------------------------
 BYTE   TIE  Fn1
 BYTE   W72
 BYTE   N11  An3
 BYTE   W12
 BYTE   N22  As3
 BYTE   W12
// 009   ----------------------------------------
 BYTE   W12
 BYTE   N44  Fn4
 BYTE   W80
 BYTE   W03
 BYTE   EOT
 BYTE   Fn1
 BYTE   W01
// 010   ----------------------------------------
 BYTE   W48
Label_3_0155781C:
 BYTE   W48
// 011   ----------------------------------------
 BYTE   W96
// 012   ----------------------------------------
 BYTE   W96
// 013   ----------------------------------------
 BYTE   W96
// 014   ----------------------------------------
 BYTE   W96
// 015   ----------------------------------------
 BYTE   W96
// 016   ----------------------------------------
 BYTE   W96
// 017   ----------------------------------------
 BYTE   W96
// 018   ----------------------------------------
 BYTE   N11  An3  v052
 BYTE   W12
 BYTE   As3
 BYTE   W24
 BYTE   Fn4
 BYTE   W36
 BYTE   An3
 BYTE   W12
 BYTE   As3
 BYTE   W12
// 019   ----------------------------------------
 BYTE   W12
 BYTE   An4
 BYTE   W84
// 020   ----------------------------------------
 BYTE   W96
// 021   ----------------------------------------
 BYTE   W96
// 022   ----------------------------------------
 BYTE   Dn3  v127
 BYTE   W12
 BYTE   Gn3
 BYTE   W24
 BYTE   Cn4
 BYTE   W36
 BYTE   Dn3
 BYTE   W12
 BYTE   Cn4
 BYTE   W12
// 023   ----------------------------------------
 BYTE   W12
 BYTE   Fn4
 BYTE   W36
 BYTE   N22  Cn5
 BYTE   W24
 BYTE   As4
 BYTE   W24
// 024   ----------------------------------------
 BYTE   N11  An4
 BYTE   W96
// 025   ----------------------------------------
 BYTE   W96
// 026   ----------------------------------------
 BYTE   W96
// 027   ----------------------------------------
 BYTE   W96
// 028   ----------------------------------------
 BYTE   N44  Dn3  v112
 BYTE   N44  Gn3
 BYTE   W48
 BYTE   Ds3
 BYTE   N44  Gn3
 BYTE   W48
// 029   ----------------------------------------
 BYTE   As2
 BYTE   N44  Gn3
 BYTE   W48
 BYTE   N15  Dn3
 BYTE   N15  Gn3
 BYTE   W16
 BYTE   Gn2
 BYTE   N15  Gn3
 BYTE   W16
 BYTE   Cn3
 BYTE   N15  Gn3
 BYTE   W16
// 030   ----------------------------------------
 BYTE   N32  Dn4
 BYTE   N32  Gn4
 BYTE   W36
 BYTE   N11  An2
 BYTE   N11  Dn3
 BYTE   W12
 BYTE   N15  As3
 BYTE   N15  Dn4
 BYTE   N15  Fn4
 BYTE   W16
 BYTE   Gn2
 BYTE   N15  Cn3
 BYTE   W16
 BYTE   Fn4
 BYTE   N15  As4
 BYTE   W16
// 031   ----------------------------------------
 BYTE   Cn5  v052
 BYTE   W03
 BYTE   N12  Fn5
 BYTE   W13
 BYTE   N15  Gn4
 BYTE   N15  Cn5
 BYTE   W16
 BYTE   N15
 BYTE   N15  Fn5
 BYTE   W16
 BYTE   Fn2  v080
 BYTE   N15  An2
 BYTE   N15  Dn3
 BYTE   W16
 BYTE   Fn2
 BYTE   N15  An2
 BYTE   N15  Dn3
 BYTE   W16
 BYTE   Fn2
 BYTE   N15  An2
 BYTE   N15  Cn3
 BYTE   W16
// 032   ----------------------------------------
 BYTE   N17  Dn3  v096
 BYTE   N17  Gn3
 BYTE   W18
 BYTE   Dn3
 BYTE   N17  Gn3
 BYTE   W18
 BYTE   N36  Dn3
 BYTE   N36  Gn3
 BYTE   W42
 BYTE   N05  Dn3
 BYTE   N05  Gn3
 BYTE   W06
 BYTE   N11  Dn4
 BYTE   N11  Gn4
 BYTE   W12
// 033   ----------------------------------------
 BYTE   N17  Cn3
 BYTE   N17  Fn3
 BYTE   W18
 BYTE   Cn3
 BYTE   N17  Fn3
 BYTE   W18
 BYTE   Cn3
 BYTE   N17  Fn3
 BYTE   W18
 BYTE   N05  Cn3
 BYTE   N05  Fn3
 BYTE   W06
 BYTE   Cn4
 BYTE   N05  Fn4
 BYTE   W06
 BYTE   N11  Fn3
 BYTE   N11  As3
 BYTE   W12
 BYTE   N05  Cn3
 BYTE   N05  Fn3
 BYTE   W06
 BYTE   N11  Cn4
 BYTE   N11  Fn4
 BYTE   W12
// 034   ----------------------------------------
 BYTE   N17  As4
 BYTE   W18
 BYTE   Gn3  v068
 BYTE   W18
 BYTE   N11  As3  v100
 BYTE   W18
 BYTE   N05  Ds4  v084
 BYTE   W06
 BYTE   As4  v112
 BYTE   W06
 BYTE   Fn4  v080
 BYTE   W06
 BYTE   Cn5  v104
 BYTE   W06
 BYTE   Dn5  v100
 BYTE   W06
 BYTE   Fn3  v068
 BYTE   W06
 BYTE   Gn3  v092
 BYTE   W06
// 035   ----------------------------------------
 BYTE   N11  Dn5  v100
 BYTE   W54
 BYTE   Cn5  v084
 BYTE   W12
 BYTE   An4  v080
 BYTE   W12
 BYTE   N17  Fn4  v084
 BYTE   W18
// 036   ----------------------------------------
 BYTE   Dn4  v068
 BYTE   W18
 BYTE   N28  As3
 BYTE   W30
 BYTE   N17  Cn4  v080
 BYTE   W18
 BYTE   N28  Dn4
 BYTE   W30
// 037   ----------------------------------------
 BYTE   N17
 BYTE   W18
 BYTE   N28  As4  v096
 BYTE   W30
 BYTE   N17  Dn4  v064
 BYTE   W18
 BYTE   En4  v084
 BYTE   W18
 BYTE   N11  Cn4  v068
 BYTE   W12
// 038   ----------------------------------------
 BYTE   N17  Dn4  v080
 BYTE   W18
 BYTE   N28  As4  v092
 BYTE   W30
 BYTE   N17  Dn4  v068
 BYTE   W18
 BYTE   N28  As4  v092
 BYTE   W30
// 039   ----------------------------------------
 BYTE   N17  Fn4  v068
 BYTE   W18
 BYTE   En4  v076
 BYTE   W18
 BYTE   N05  Dn4  v072
 BYTE   W06
 BYTE   Gn3  v068
 BYTE   W06
 BYTE   Gn3  v076
 BYTE   W06
 BYTE   Gn3  v080
 BYTE   W06
 BYTE   An3  v084
 BYTE   W06
 BYTE   As3  v080
 BYTE   W06
 BYTE   An3  v076
 BYTE   W06
 BYTE   Fn3
 BYTE   W06
 BYTE   N11  Fn3  v080
 BYTE   W12
// 040   ----------------------------------------
 BYTE   N17  Ds4  v096
 BYTE   W18
 BYTE   N11  Gn3  v064
 BYTE   W12
 BYTE   N05  Gn3  v080
 BYTE   W06
 BYTE   N11  Ds4  v096
 BYTE   W12
 BYTE   Gn3  v060
 BYTE   W12
 BYTE   N05  Gn3  v080
 BYTE   W06
 BYTE   As3  v088
 BYTE   W06
 BYTE   Cn4  v084
 BYTE   W06
 BYTE   N17  Fn4  v092
 BYTE   W18
// 041   ----------------------------------------
 BYTE   Dn4  v072
 BYTE   W18
 BYTE   Fn3  v060
 BYTE   W18
 BYTE   Dn4  v088
 BYTE   W18
 BYTE   Fn3  v060
 BYTE   W18
 BYTE   N11  Dn4  v088
 BYTE   W12
 BYTE   Fn3  v060
 BYTE   W12
// 042   ----------------------------------------
 BYTE   W96
// 043   ----------------------------------------
 BYTE   W48
 BYTE   N05  Fn4  v088
 BYTE   W06
 BYTE   Gn4  v104
 BYTE   W06
 BYTE   An4  v100
 BYTE   W06
 BYTE   Dn5
 BYTE   W06
 BYTE   Ds5  v096
 BYTE   W06
 BYTE   Fn5  v108
 BYTE   W06
 BYTE   Gn5  v116
 BYTE   W06
 BYTE   An5  v092
 BYTE   W06
// 044   ----------------------------------------
 BYTE   N15  Fs3  v112
 BYTE   N15  An3
 BYTE   N15  Dn4
 BYTE   W16
 BYTE   An2
 BYTE   N15  Dn3
 BYTE   W16
 BYTE   Fs2
 BYTE   N15  An2
 BYTE   W16
 BYTE   Fs2
 BYTE   N15  Cn3
 BYTE   W16
 BYTE   Ds2
 BYTE   N15  Cn3
 BYTE   N15  Ds3
 BYTE   W16
 BYTE   An2
 BYTE   N15  Fs3
 BYTE   W16
// 045   ----------------------------------------
 BYTE   W96
// 046   ----------------------------------------
 BYTE   W96
// 047   ----------------------------------------
 BYTE   W96
// 048   ----------------------------------------
 BYTE   W96
// 049   ----------------------------------------
 BYTE   W96
// 050   ----------------------------------------
 BYTE   W96
// 051   ----------------------------------------
 BYTE   W96
// 052   ----------------------------------------
 BYTE   W96
// 053   ----------------------------------------
 BYTE   W96
// 054   ----------------------------------------
 BYTE   W96
// 055   ----------------------------------------
 BYTE   W96
// 056   ----------------------------------------
 BYTE   W96
// 057   ----------------------------------------
 BYTE   W96
// 058   ----------------------------------------
 BYTE   W96
// 059   ----------------------------------------
 BYTE   W96
// 060   ----------------------------------------
 BYTE   N32  En4  v092
 BYTE   N32  Cs5  v112
 BYTE   W36
 BYTE   Gn3  v068
 BYTE   N32  En4  v112
 BYTE   W36
 BYTE   N22  An3  v100
 BYTE   N22  Gn4
 BYTE   N22  Cs5  v112
 BYTE   W24
// 061   ----------------------------------------
 BYTE   N32  Cn4  v080
 BYTE   N32  Fs4
 BYTE   N32  An4  v112
 BYTE   W36
 BYTE   Fs3  v068
 BYTE   N32  Dn4  v112
 BYTE   W36
 BYTE   N22  Cn4  v104
 BYTE   N22  Cn5  v112
 BYTE   W24
// 062   ----------------------------------------
 BYTE   N11  An3  v096
 BYTE   W12
 BYTE   N22  As3
 BYTE   W24
 BYTE   N32  Fn4
 BYTE   W36
 BYTE   Fn3
 BYTE   W24
// 063   ----------------------------------------
Label_3_01557A14:
 BYTE   W12
 BYTE   N11  Fn4  v096
 BYTE   W12
 BYTE   Cn5
 BYTE   W12
 BYTE   Fn5
 BYTE   W12
 BYTE   Dn5
 BYTE   W12
 BYTE   Cn5
 BYTE   W12
 BYTE   As4
 BYTE   W12
 BYTE   Cn5
 BYTE   W12
 BYTE   PEND 
// 064   ----------------------------------------
 BYTE   An3
 BYTE   W12
 BYTE   N22  As3
 BYTE   W24
 BYTE   N32  Fn4
 BYTE   W36
 BYTE   Ds4
 BYTE   W24
// 065   ----------------------------------------
 BYTE   W12
 BYTE   N11  Ds4  v080
 BYTE   W12
 BYTE   Cn5  v100
 BYTE   W12
 BYTE   Gn4  v084
 BYTE   W12
 BYTE   An4  v088
 BYTE   W12
 BYTE   N32  Ds5  v100
 BYTE   W36
// 066   ----------------------------------------
 BYTE   N11  An3  v096
 BYTE   W12
 BYTE   N22  As3
 BYTE   W24
 BYTE   Fn4
 BYTE   W24
 BYTE   N11  Dn4
 BYTE   W12
 BYTE   An3  v036
 BYTE   W12
 BYTE   N22  As3
 BYTE   W12
 BYTE   PATT
  POIN2 Label_3_01557A14
// 067   ----------------------------------------
 BYTE   N11  Fn4  v072
 BYTE   W12
 BYTE   Gn4  v080
 BYTE   W12
 BYTE   Dn4  v076
 BYTE   W12
 BYTE   N22  Cn5  v108
 BYTE   W36
 BYTE   N44  Fn3  v088
 BYTE   W24
// 068   ----------------------------------------
 BYTE   W12
 BYTE   N11  Dn5  v072
 BYTE   W12
 BYTE   Fn5  v092
 BYTE   W12
 BYTE   N22  An5  v096
 BYTE   W24
 BYTE   An4  v076
 BYTE   W36
// 069   ----------------------------------------
 BYTE   N11  An3  v080
 BYTE   W12
 BYTE   N22  As3
 BYTE   W24
 BYTE   N32  Fn4
 BYTE   W36
 BYTE   N11  An3
 BYTE   W12
 BYTE   N22  As3
 BYTE   W12
 BYTE   PATT
  POIN2 Label_3_015577B8
 BYTE   PATT
  POIN2 Label_3_015577C1
 BYTE   PATT
  POIN2 Label_3_015577D5
 BYTE   PATT
  POIN2 Label_3_015577EB
// 070   ----------------------------------------
 BYTE   W12
 BYTE   N22  As3  v052
 BYTE   W24
 BYTE   N56  As2
 BYTE   W60
// 071   ----------------------------------------
 BYTE   W72
 BYTE   N11  An3  v080
 BYTE   W12
 BYTE   N22  As3
 BYTE   W12
// 072   ----------------------------------------
 BYTE   W12
 BYTE   N44  Fn4
 BYTE   W84
// 073   ----------------------------------------
 BYTE   W48
 BYTE   GoTo
  POIN2 Label_3_0155781C
 BYTE   FINE

//**************** Track 5 (Midi-Chn.4) ****************//

KirbyTripleDeluxeMoonstruckBlossomRandomWizard_005:
// 000   ----------------------------------------
 BYTE   KEYSH   KirbyTripleDeluxeMoonstruckBlossomRandomWizard_key+0
 BYTE   VOICE   1
 BYTE   VOL   29*KirbyTripleDeluxeMoonstruckBlossomRandomWizard_mvl/mxv
 BYTE   PAN   c_v+0
 BYTE   N05  An4  v052
 BYTE   W06
 BYTE   Cn4
 BYTE   W06
 BYTE   Fn4
 BYTE   W06
 BYTE   An3
 BYTE   W06
 BYTE   As3
 BYTE   W06
 BYTE   Cn4
 BYTE   W06
 BYTE   Fn4
 BYTE   W06
 BYTE   N28  Gn2
 BYTE   N05  As3
 BYTE   W06
 BYTE   Fn3
 BYTE   W06
 BYTE   Gn3
 BYTE   W06
 BYTE   An3
 BYTE   W06
 BYTE   As3
 BYTE   W06
 BYTE   N17  Fn2
 BYTE   N05  An3
 BYTE   W06
 BYTE   Dn3
 BYTE   W06
 BYTE   Fn3
 BYTE   W06
 BYTE   Ds2
 BYTE   N05  An3
 BYTE   W06
// 001   ----------------------------------------
 BYTE   N48  Ds2
 BYTE   N05  Gn3
 BYTE   W06
 BYTE   Ds3
 BYTE   W06
 BYTE   Dn3
 BYTE   W06
 BYTE   Fn3
 BYTE   W06
 BYTE   Cn4
 BYTE   W06
 BYTE   Ds3
 BYTE   W06
 BYTE   Ds4
 BYTE   W06
 BYTE   Dn4
 BYTE   W06
 BYTE   Dn3
 BYTE   N05  An3
 BYTE   W06
 BYTE   N44  Dn2
 BYTE   N05  Cn3
 BYTE   N05  Fs3
 BYTE   W06
 BYTE   Dn3
 BYTE   W06
 BYTE   Ds3
 BYTE   W06
 BYTE   Fn3
 BYTE   W06
 BYTE   Fs3
 BYTE   W06
 BYTE   N44  An3
 BYTE   W60
// 002   ----------------------------------------
 BYTE   W96
// 003   ----------------------------------------
 BYTE   W96
// 004   ----------------------------------------
 BYTE   W96
// 005   ----------------------------------------
 BYTE   W96
// 006   ----------------------------------------
 BYTE   W96
// 007   ----------------------------------------
 BYTE   W96
// 008   ----------------------------------------
 BYTE   W96
// 009   ----------------------------------------
 BYTE   W96
// 010   ----------------------------------------
 BYTE   W48
Label_4_01557B20:
 BYTE   W48
// 011   ----------------------------------------
 BYTE   W96
// 012   ----------------------------------------
 BYTE   W96
// 013   ----------------------------------------
 BYTE   W96
// 014   ----------------------------------------
 BYTE   W96
// 015   ----------------------------------------
 BYTE   W96
// 016   ----------------------------------------
 BYTE   W96
// 017   ----------------------------------------
 BYTE   W96
// 018   ----------------------------------------
 BYTE   W96
// 019   ----------------------------------------
 BYTE   W96
// 020   ----------------------------------------
 BYTE   W96
// 021   ----------------------------------------
 BYTE   W96
// 022   ----------------------------------------
 BYTE   N11  Dn1  v127
 BYTE   W12
 BYTE   Gn1
 BYTE   W24
 BYTE   Cn2
 BYTE   W36
 BYTE   Dn1
 BYTE   W12
 BYTE   Cn2
 BYTE   W12
// 023   ----------------------------------------
 BYTE   W12
 BYTE   Fn2
 BYTE   W36
 BYTE   N22  Cn3
 BYTE   W24
 BYTE   As2
 BYTE   W24
// 024   ----------------------------------------
 BYTE   N11  An2
 BYTE   W96
// 025   ----------------------------------------
 BYTE   W96
// 026   ----------------------------------------
 BYTE   W96
// 027   ----------------------------------------
 BYTE   W96
// 028   ----------------------------------------
 BYTE   N44  Dn2  v112
 BYTE   N44  Gn2
 BYTE   W48
 BYTE   Ds2
 BYTE   N44  Gn2
 BYTE   W48
// 029   ----------------------------------------
 BYTE   As1
 BYTE   N44  Gn2
 BYTE   W48
 BYTE   N15  Dn2
 BYTE   N15  Gn2
 BYTE   W16
 BYTE   Gn1
 BYTE   N15  Gn2
 BYTE   W16
 BYTE   Cn2
 BYTE   N15  Gn2
 BYTE   W16
// 030   ----------------------------------------
 BYTE   N32  Dn3
 BYTE   N32  Gn3
 BYTE   W36
 BYTE   N11  An1
 BYTE   N11  Dn2
 BYTE   W12
 BYTE   N15  As2
 BYTE   N15  Dn3
 BYTE   N15  Fn3
 BYTE   W16
 BYTE   Gn1
 BYTE   N15  Cn2
 BYTE   W16
 BYTE   Fn3
 BYTE   N15  As3
 BYTE   W16
// 031   ----------------------------------------
 BYTE   Cn4  v052
 BYTE   W03
 BYTE   N12  Fn4
 BYTE   W13
 BYTE   N15  Gn3
 BYTE   N15  Cn4
 BYTE   W16
 BYTE   N15
 BYTE   N15  Fn4
 BYTE   W16
 BYTE   Fn1  v080
 BYTE   N15  An1
 BYTE   N15  Dn2
 BYTE   W16
 BYTE   Fn1
 BYTE   N15  An1
 BYTE   N15  Dn2
 BYTE   W16
 BYTE   Fn1
 BYTE   N15  An1
 BYTE   N15  Cn2
 BYTE   W16
// 032   ----------------------------------------
 BYTE   N17  Dn2  v096
 BYTE   N17  Gn2
 BYTE   W18
 BYTE   Dn2
 BYTE   N17  Gn2
 BYTE   W18
 BYTE   N36  Dn2
 BYTE   N36  Gn2
 BYTE   W42
 BYTE   N05  Dn2
 BYTE   N05  Gn2
 BYTE   W06
 BYTE   N11  Dn3
 BYTE   N11  Gn3
 BYTE   W12
// 033   ----------------------------------------
 BYTE   N17  Cn2
 BYTE   N17  Fn2
 BYTE   W18
 BYTE   Cn2
 BYTE   N17  Fn2
 BYTE   W18
 BYTE   Cn2
 BYTE   N17  Fn2
 BYTE   W18
 BYTE   N05  Cn2
 BYTE   N05  Fn2
 BYTE   W06
 BYTE   Cn3
 BYTE   N05  Fn3
 BYTE   W06
 BYTE   N11  Fn2
 BYTE   N11  As2
 BYTE   W12
 BYTE   N05  Cn2
 BYTE   N05  Fn2
 BYTE   W06
 BYTE   N11  Cn3
 BYTE   N11  Fn3
 BYTE   W12
// 034   ----------------------------------------
 BYTE   N17  Dn3
 BYTE   W18
 BYTE   Ds2  v068
 BYTE   W18
 BYTE   N11  Gn2  v100
 BYTE   W24
 BYTE   N05  Gn2  v112
 BYTE   W36
// 035   ----------------------------------------
 BYTE   W54
 BYTE   N11  Fn2  v084
 BYTE   N11  Gn2
 BYTE   W12
 BYTE   Fn2  v080
 BYTE   W12
 BYTE   N17  Dn2  v084
 BYTE   W18
// 036   ----------------------------------------
 BYTE   As2  v068
 BYTE   W18
 BYTE   N28  Fn2
 BYTE   N28  Gn2
 BYTE   W30
 BYTE   N17  Fn2  v080
 BYTE   W18
 BYTE   N28  Gn2
 BYTE   W30
// 037   ----------------------------------------
 BYTE   W18
 BYTE   Dn3  v096
 BYTE   W30
 BYTE   N17  Gn2  v064
 BYTE   W18
 BYTE   Dn3  v084
 BYTE   W18
 BYTE   N11  Gn2  v068
 BYTE   W12
// 038   ----------------------------------------
 BYTE   N17  Gn2  v080
 BYTE   W18
 BYTE   N28  Cn3  v092
 BYTE   N28  An3
 BYTE   W30
 BYTE   N17  Fn2  v068
 BYTE   W18
 BYTE   N28  Dn3  v092
 BYTE   N28  An3
 BYTE   W30
// 039   ----------------------------------------
 BYTE   W42
 BYTE   N05  Gn1  v072
 BYTE   W06
 BYTE   Gn1  v076
 BYTE   W06
 BYTE   Gn1  v080
 BYTE   W06
 BYTE   An1
 BYTE   W06
 BYTE   As1  v076
 BYTE   W06
 BYTE   An1  v072
 BYTE   W06
 BYTE   Fn1  v076
 BYTE   W06
 BYTE   N11
 BYTE   W12
// 040   ----------------------------------------
 BYTE   W36
 BYTE   Gn2  v096
 BYTE   N11  Dn3
 BYTE   W60
// 041   ----------------------------------------
 BYTE   N22  Fn2  v072
 BYTE   N22  Gn2
 BYTE   W36
 BYTE   N17  Fn2  v088
 BYTE   N17  Gn2
 BYTE   W36
 BYTE   N11  Fn2
 BYTE   N11  Gn2
 BYTE   W24
// 042   ----------------------------------------
 BYTE   W96
// 043   ----------------------------------------
 BYTE   N05  Dn1  v052
 BYTE   W06
 BYTE   Fn1
 BYTE   W06
 BYTE   As1
 BYTE   W06
 BYTE   Dn2
 BYTE   W06
 BYTE   Fn2
 BYTE   W06
 BYTE   As2
 BYTE   W06
 BYTE   Fn3
 BYTE   W06
 BYTE   As3
 BYTE   W54
// 044   ----------------------------------------
 BYTE   W96
// 045   ----------------------------------------
 BYTE   W96
// 046   ----------------------------------------
 BYTE   W96
// 047   ----------------------------------------
 BYTE   W96
// 048   ----------------------------------------
 BYTE   W96
// 049   ----------------------------------------
 BYTE   W96
// 050   ----------------------------------------
 BYTE   W96
// 051   ----------------------------------------
 BYTE   W96
// 052   ----------------------------------------
 BYTE   W96
// 053   ----------------------------------------
 BYTE   W96
// 054   ----------------------------------------
 BYTE   W96
// 055   ----------------------------------------
 BYTE   W96
// 056   ----------------------------------------
 BYTE   W96
// 057   ----------------------------------------
 BYTE   W96
// 058   ----------------------------------------
 BYTE   W96
// 059   ----------------------------------------
 BYTE   W96
// 060   ----------------------------------------
 BYTE   W96
// 061   ----------------------------------------
 BYTE   W96
// 062   ----------------------------------------
 BYTE   W96
// 063   ----------------------------------------
 BYTE   W96
// 064   ----------------------------------------
 BYTE   W96
// 065   ----------------------------------------
 BYTE   W96
// 066   ----------------------------------------
 BYTE   W96
// 067   ----------------------------------------
 BYTE   W96
// 068   ----------------------------------------
 BYTE   W96
// 069   ----------------------------------------
 BYTE   W36
 BYTE   N44  Dn1
 BYTE   W60
// 070   ----------------------------------------
 BYTE   W96
// 071   ----------------------------------------
 BYTE   W96
// 072   ----------------------------------------
 BYTE   W96
// 073   ----------------------------------------
 BYTE   W96
// 074   ----------------------------------------
 BYTE   W96
// 075   ----------------------------------------
 BYTE   W96
// 076   ----------------------------------------
 BYTE   W96
// 077   ----------------------------------------
 BYTE   W96
// 078   ----------------------------------------
 BYTE   W48
 BYTE   GoTo
  POIN2 Label_4_01557B20
 BYTE   FINE

//**************** Track 6 (Midi-Chn.5) ****************//

KirbyTripleDeluxeMoonstruckBlossomRandomWizard_006:
// 000   ----------------------------------------
 BYTE   KEYSH   KirbyTripleDeluxeMoonstruckBlossomRandomWizard_key+0
 BYTE   VOICE   40
 BYTE   VOL   29*KirbyTripleDeluxeMoonstruckBlossomRandomWizard_mvl/mxv
 BYTE   PAN   c_v+0
 BYTE   W96
// 001   ----------------------------------------
 BYTE   W96
// 002   ----------------------------------------
 BYTE   W48
 BYTE   W96
// 003   ----------------------------------------
 BYTE   W96
// 004   ----------------------------------------
 BYTE   W96
// 005   ----------------------------------------
 BYTE   W96
// 006   ----------------------------------------
 BYTE   W96
// 007   ----------------------------------------
 BYTE   W96
// 008   ----------------------------------------
 BYTE   W96
// 009   ----------------------------------------
 BYTE   W96
// 010   ----------------------------------------
Label_5_01557CAB:
 BYTE   N11  Dn3  v052
 BYTE   W12
 BYTE   Ds3
 BYTE   W24
 BYTE   As3
 BYTE   W12
 BYTE   PEND 
Label_5_01557CB4:
 BYTE   W24
 BYTE   N11  Dn3  v052
 BYTE   W12
 BYTE   Ds3
 BYTE   W12
// 011   ----------------------------------------
Label_5_01557CBB:
 BYTE   W12
 BYTE   N11  As3  v052
 BYTE   W36
 BYTE   An3
 BYTE   W12
 BYTE   Gn3
 BYTE   W12
 BYTE   Fn3
 BYTE   W12
 BYTE   Cn3
 BYTE   W12
 BYTE   PEND 
// 012   ----------------------------------------
Label_5_01557CC9:
 BYTE   N11  An2  v052
 BYTE   W12
 BYTE   As2
 BYTE   W24
 BYTE   Fn3
 BYTE   W36
 BYTE   An2
 BYTE   W12
 BYTE   As2
 BYTE   W12
 BYTE   PEND 
// 013   ----------------------------------------
Label_5_01557CD6:
 BYTE   W12
 BYTE   N11  An3  v052
 BYTE   W36
 BYTE   Dn3
 BYTE   W12
 BYTE   Cn3
 BYTE   W12
 BYTE   As2
 BYTE   W12
 BYTE   Cn3
 BYTE   W12
 BYTE   PEND 
// 014   ----------------------------------------
 BYTE   N11
 BYTE   W12
 BYTE   Dn3
 BYTE   W24
 BYTE   An3
 BYTE   W36
 BYTE   Cn3
 BYTE   W12
 BYTE   Dn3
 BYTE   W12
// 015   ----------------------------------------
 BYTE   W12
 BYTE   As3
 BYTE   W36
 BYTE   Gn3
 BYTE   W12
 BYTE   Fn3
 BYTE   W12
 BYTE   Ds3
 BYTE   W12
 BYTE   As2
 BYTE   W12
 BYTE   PATT
  POIN2 Label_5_01557CC9
// 016   ----------------------------------------
Label_5_01557CFE:
 BYTE   W12
 BYTE   N11  Fn3  v052
 BYTE   W36
 BYTE   Dn3
 BYTE   W12
 BYTE   Cn3
 BYTE   W12
 BYTE   As2
 BYTE   W12
 BYTE   Cn3
 BYTE   W12
 BYTE   PEND 
// 017   ----------------------------------------
 BYTE   Dn3
 BYTE   W12
 BYTE   Ds3
 BYTE   W24
 BYTE   As3
 BYTE   W36
 BYTE   Dn3
 BYTE   W12
 BYTE   Ds3
 BYTE   W12
 BYTE   PATT
  POIN2 Label_5_01557CBB
 BYTE   PATT
  POIN2 Label_5_01557CC9
 BYTE   PATT
  POIN2 Label_5_01557CD6
 BYTE   PATT
  POIN2 Label_5_01557CC9
 BYTE   PATT
  POIN2 Label_5_01557CFE
// 018   ----------------------------------------
 BYTE   W96
// 019   ----------------------------------------
 BYTE   W96
// 020   ----------------------------------------
 BYTE   W96
// 021   ----------------------------------------
 BYTE   W96
// 022   ----------------------------------------
 BYTE   W96
// 023   ----------------------------------------
 BYTE   W96
// 024   ----------------------------------------
 BYTE   W96
// 025   ----------------------------------------
 BYTE   W96
// 026   ----------------------------------------
 BYTE   W96
// 027   ----------------------------------------
 BYTE   W96
// 028   ----------------------------------------
 BYTE   W96
// 029   ----------------------------------------
 BYTE   W96
// 030   ----------------------------------------
 BYTE   W96
// 031   ----------------------------------------
 BYTE   W96
// 032   ----------------------------------------
 BYTE   W96
// 033   ----------------------------------------
 BYTE   W96
// 034   ----------------------------------------
 BYTE   W96
// 035   ----------------------------------------
 BYTE   W96
// 036   ----------------------------------------
 BYTE   W96
// 037   ----------------------------------------
 BYTE   W96
// 038   ----------------------------------------
 BYTE   W96
// 039   ----------------------------------------
 BYTE   W96
// 040   ----------------------------------------
 BYTE   W96
// 041   ----------------------------------------
 BYTE   W96
// 042   ----------------------------------------
 BYTE   W96
// 043   ----------------------------------------
 BYTE   W96
// 044   ----------------------------------------
 BYTE   W96
// 045   ----------------------------------------
 BYTE   W96
// 046   ----------------------------------------
 BYTE   W96
// 047   ----------------------------------------
 BYTE   N05  Gn3  v056
 BYTE   W06
 BYTE   An3  v064
 BYTE   W06
 BYTE   As3
 BYTE   W06
 BYTE   Dn4  v072
 BYTE   W06
 BYTE   Gn3  v052
 BYTE   W06
 BYTE   An3  v064
 BYTE   W06
 BYTE   As3  v068
 BYTE   W06
 BYTE   Dn4  v072
 BYTE   W06
 BYTE   Gn3  v052
 BYTE   W06
 BYTE   An3  v068
 BYTE   W06
 BYTE   As3  v064
 BYTE   W06
 BYTE   Dn4  v068
 BYTE   W06
 BYTE   Gn3  v056
 BYTE   W06
 BYTE   An3  v068
 BYTE   W06
 BYTE   As3  v064
 BYTE   W06
 BYTE   Dn4  v072
 BYTE   W06
// 048   ----------------------------------------
 BYTE   Fn3  v044
 BYTE   W06
 BYTE   Gn3  v068
 BYTE   W06
 BYTE   An3
 BYTE   W06
 BYTE   Dn4
 BYTE   W06
 BYTE   Fn3  v048
 BYTE   W06
 BYTE   Gn3  v060
 BYTE   W06
 BYTE   An3  v068
 BYTE   W06
 BYTE   Dn4  v072
 BYTE   W06
 BYTE   Fn3  v052
 BYTE   W06
 BYTE   Gn3  v064
 BYTE   W06
 BYTE   An3  v068
 BYTE   W06
 BYTE   Dn4  v072
 BYTE   W06
 BYTE   Fn3  v052
 BYTE   W06
 BYTE   Gn3  v064
 BYTE   W06
 BYTE   An3  v068
 BYTE   W06
 BYTE   Dn4  v072
 BYTE   W06
// 049   ----------------------------------------
 BYTE   Ds3  v044
 BYTE   W06
 BYTE   Gn3  v072
 BYTE   W06
 BYTE   Cn4
 BYTE   W06
 BYTE   As3  v056
 BYTE   W06
 BYTE   Ds3  v052
 BYTE   W06
 BYTE   Gn3  v076
 BYTE   W06
 BYTE   Cn4  v072
 BYTE   W06
 BYTE   As3  v060
 BYTE   W06
 BYTE   Ds3  v048
 BYTE   W06
 BYTE   Gn3  v068
 BYTE   W06
 BYTE   Cn4  v072
 BYTE   W06
 BYTE   As3  v064
 BYTE   W06
 BYTE   Ds3  v048
 BYTE   W06
 BYTE   Gn3  v064
 BYTE   W06
 BYTE   Cn4  v068
 BYTE   W06
 BYTE   As3  v060
 BYTE   W06
// 050   ----------------------------------------
 BYTE   Fn3  v056
 BYTE   W06
 BYTE   As3  v068
 BYTE   W06
 BYTE   Dn4
 BYTE   W06
 BYTE   As3  v060
 BYTE   W06
 BYTE   Fn3  v052
 BYTE   W06
 BYTE   As3  v068
 BYTE   W06
 BYTE   Dn4
 BYTE   W06
 BYTE   As3  v052
 BYTE   W06
 BYTE   Fn3
 BYTE   W06
 BYTE   Bn3  v072
 BYTE   W06
 BYTE   Dn4
 BYTE   W06
 BYTE   Bn3  v056
 BYTE   W06
 BYTE   Fn3  v052
 BYTE   W06
 BYTE   Bn3  v076
 BYTE   W06
 BYTE   Dn4  v072
 BYTE   W06
 BYTE   Bn3  v060
 BYTE   W06
// 051   ----------------------------------------
 BYTE   Ds3  v048
 BYTE   W06
 BYTE   Gn3  v068
 BYTE   W06
 BYTE   As3
 BYTE   W06
 BYTE   Cn4
 BYTE   W06
 BYTE   Ds3  v048
 BYTE   W06
 BYTE   Gn3  v064
 BYTE   W06
 BYTE   As3  v068
 BYTE   W06
 BYTE   Cn4
 BYTE   W06
 BYTE   Ds3  v044
 BYTE   W06
 BYTE   Gn3  v068
 BYTE   W06
 BYTE   As3
 BYTE   W06
 BYTE   Cn4  v064
 BYTE   W06
 BYTE   Ds3  v052
 BYTE   W06
 BYTE   Gn3  v064
 BYTE   W06
 BYTE   As3
 BYTE   W06
 BYTE   Cn4
 BYTE   W06
// 052   ----------------------------------------
 BYTE   Gn3  v056
 BYTE   W06
 BYTE   An3  v064
 BYTE   W06
 BYTE   As3  v068
 BYTE   W06
 BYTE   Dn4  v076
 BYTE   W06
 BYTE   Gn3  v052
 BYTE   W06
 BYTE   An3  v064
 BYTE   W06
 BYTE   As3
 BYTE   W06
 BYTE   Dn4  v076
 BYTE   W06
 BYTE   Gn3  v048
 BYTE   W06
 BYTE   An3  v072
 BYTE   W06
 BYTE   As3  v068
 BYTE   W06
 BYTE   Dn4  v072
 BYTE   W06
 BYTE   Gn3  v052
 BYTE   W06
 BYTE   An3  v064
 BYTE   W06
 BYTE   As3  v068
 BYTE   W06
 BYTE   Dn4
 BYTE   W06
// 053   ----------------------------------------
 BYTE   En3  v032
 BYTE   W06
 BYTE   Gn3  v036
 BYTE   W06
 BYTE   An3  v040
 BYTE   W06
 BYTE   En3  v036
 BYTE   W06
 BYTE   En3  v044
 BYTE   W06
 BYTE   Gn3
 BYTE   W06
 BYTE   An3
 BYTE   W06
 BYTE   En3  v036
 BYTE   W06
 BYTE   En3  v040
 BYTE   W06
 BYTE   Gn3  v048
 BYTE   W06
 BYTE   An3  v044
 BYTE   W06
 BYTE   En3  v036
 BYTE   W06
 BYTE   En3  v040
 BYTE   W06
 BYTE   Gn3  v044
 BYTE   W06
 BYTE   An3
 BYTE   W06
 BYTE   En3  v032
 BYTE   W06
// 054   ----------------------------------------
 BYTE   En3  v040
 BYTE   W06
 BYTE   Gn3  v044
 BYTE   W06
 BYTE   An3  v040
 BYTE   W06
 BYTE   En3  v036
 BYTE   W06
 BYTE   N05
 BYTE   W06
 BYTE   Gn3  v044
 BYTE   W06
 BYTE   An3  v048
 BYTE   W06
 BYTE   En3  v036
 BYTE   W06
 BYTE   En3  v040
 BYTE   W06
 BYTE   Gn3  v044
 BYTE   W06
 BYTE   An3
 BYTE   W06
 BYTE   En3  v036
 BYTE   W06
 BYTE   En3  v044
 BYTE   W06
 BYTE   Gn3
 BYTE   W06
 BYTE   An3
 BYTE   W06
 BYTE   En3  v036
 BYTE   W06
// 055   ----------------------------------------
 BYTE   An3  v044
 BYTE   W06
 BYTE   Cn4  v048
 BYTE   W06
 BYTE   Dn4
 BYTE   W06
 BYTE   An3  v036
 BYTE   W06
 BYTE   N05
 BYTE   W06
 BYTE   Cn4  v048
 BYTE   W06
 BYTE   Dn4  v040
 BYTE   W06
 BYTE   An3  v036
 BYTE   W06
 BYTE   An3  v040
 BYTE   W06
 BYTE   Cn4  v048
 BYTE   W06
 BYTE   Dn4  v044
 BYTE   W06
 BYTE   An3  v040
 BYTE   W06
 BYTE   An3  v036
 BYTE   W06
 BYTE   Cn4  v040
 BYTE   W06
 BYTE   Dn4
 BYTE   W06
 BYTE   An3  v036
 BYTE   W06
// 056   ----------------------------------------
 BYTE   Fn3  v032
 BYTE   W06
 BYTE   Gn3  v036
 BYTE   W06
 BYTE   An3  v048
 BYTE   W06
 BYTE   As3  v040
 BYTE   W06
 BYTE   Fn3
 BYTE   W06
 BYTE   Gn3
 BYTE   W06
 BYTE   An3  v044
 BYTE   W06
 BYTE   As3  v040
 BYTE   W06
 BYTE   Fn3
 BYTE   W06
 BYTE   Gn3
 BYTE   W06
 BYTE   An3
 BYTE   W06
 BYTE   As3  v048
 BYTE   W06
 BYTE   Fn3  v036
 BYTE   W06
 BYTE   Gn3  v040
 BYTE   W06
 BYTE   An3  v044
 BYTE   W06
 BYTE   As3
 BYTE   W06
// 057   ----------------------------------------
 BYTE   Fn3  v040
 BYTE   W06
 BYTE   Gn3  v044
 BYTE   W06
 BYTE   An3  v040
 BYTE   W06
 BYTE   As3
 BYTE   W06
 BYTE   Fn3  v036
 BYTE   W06
 BYTE   Gn3  v044
 BYTE   W06
 BYTE   An3  v048
 BYTE   W06
 BYTE   As3  v044
 BYTE   W06
 BYTE   Fn3  v032
 BYTE   W06
 BYTE   Gn3  v040
 BYTE   W06
 BYTE   An3
 BYTE   W06
 BYTE   As3  v048
 BYTE   W06
 BYTE   Fn3  v036
 BYTE   W06
 BYTE   Gn3  v044
 BYTE   W06
 BYTE   An3  v040
 BYTE   W06
 BYTE   As3  v048
 BYTE   W06
// 058   ----------------------------------------
 BYTE   Fn3  v036
 BYTE   W06
 BYTE   Gn3  v040
 BYTE   W06
 BYTE   An3
 BYTE   W06
 BYTE   As3  v048
 BYTE   W06
 BYTE   Fn3  v040
 BYTE   W06
 BYTE   Gn3  v044
 BYTE   W06
 BYTE   An3
 BYTE   W06
 BYTE   As3
 BYTE   W06
 BYTE   Fn3  v032
 BYTE   W06
 BYTE   Gn3  v044
 BYTE   W06
 BYTE   An3
 BYTE   W06
 BYTE   As3  v040
 BYTE   W06
 BYTE   Fn3  v036
 BYTE   W06
 BYTE   Gn3  v040
 BYTE   W06
 BYTE   An3  v044
 BYTE   W06
 BYTE   As3
 BYTE   W06
// 059   ----------------------------------------
 BYTE   Fn3  v036
 BYTE   W06
 BYTE   Gn3  v040
 BYTE   W06
 BYTE   An3  v044
 BYTE   W06
 BYTE   As3  v040
 BYTE   W06
 BYTE   Fn3  v036
 BYTE   W06
 BYTE   Gn3  v044
 BYTE   W06
 BYTE   An3
 BYTE   W06
 BYTE   As3
 BYTE   W06
 BYTE   Fn3  v036
 BYTE   W06
 BYTE   Gn3  v044
 BYTE   W06
 BYTE   An3
 BYTE   W06
 BYTE   As3  v040
 BYTE   W06
 BYTE   Fn3  v032
 BYTE   W06
 BYTE   Gn3  v040
 BYTE   W06
 BYTE   An3  v044
 BYTE   W06
 BYTE   As3  v040
 BYTE   W06
// 060   ----------------------------------------
 BYTE   Fn3  v036
 BYTE   W06
 BYTE   Gn3  v040
 BYTE   W06
 BYTE   An3  v036
 BYTE   W06
 BYTE   As3  v044
 BYTE   W06
 BYTE   Fn3  v040
 BYTE   W06
 BYTE   Gn3  v044
 BYTE   W06
 BYTE   An3  v040
 BYTE   W06
 BYTE   As3
 BYTE   W06
 BYTE   Fn3  v036
 BYTE   W06
 BYTE   Gn3  v040
 BYTE   W06
 BYTE   An3  v044
 BYTE   W06
 BYTE   As3
 BYTE   W06
 BYTE   Fn3  v036
 BYTE   W06
 BYTE   Gn3
 BYTE   W06
 BYTE   An3  v048
 BYTE   W06
 BYTE   As3  v044
 BYTE   W06
// 061   ----------------------------------------
 BYTE   Fn3  v036
 BYTE   W06
 BYTE   Gn3
 BYTE   W06
 BYTE   An3  v044
 BYTE   W06
 BYTE   As3  v040
 BYTE   W06
 BYTE   Fn3  v032
 BYTE   W06
 BYTE   Gn3  v044
 BYTE   W06
 BYTE   An3
 BYTE   W06
 BYTE   As3  v040
 BYTE   W06
 BYTE   Fn3
 BYTE   W06
 BYTE   Gn3  v048
 BYTE   W06
 BYTE   An3  v040
 BYTE   W06
 BYTE   As3  v044
 BYTE   W06
 BYTE   Fn3  v040
 BYTE   W06
 BYTE   Gn3  v044
 BYTE   W06
 BYTE   An3  v040
 BYTE   W06
 BYTE   As3
 BYTE   W06
// 062   ----------------------------------------
 BYTE   Fn3  v036
 BYTE   W06
 BYTE   Gn3  v040
 BYTE   W06
 BYTE   An3  v044
 BYTE   W06
 BYTE   As3
 BYTE   W06
 BYTE   Fn3  v040
 BYTE   W06
 BYTE   Gn3  v044
 BYTE   W06
 BYTE   An3
 BYTE   W06
 BYTE   As3  v040
 BYTE   W06
 BYTE   Fn3  v032
 BYTE   W06
 BYTE   Gn3  v040
 BYTE   W06
 BYTE   An3  v044
 BYTE   W06
 BYTE   As3
 BYTE   W06
 BYTE   Fn3  v036
 BYTE   W06
 BYTE   Gn3  v040
 BYTE   W06
 BYTE   An3  v048
 BYTE   W06
 BYTE   As3  v044
 BYTE   W06
// 063   ----------------------------------------
 BYTE   Fn3  v036
 BYTE   W06
 BYTE   Gn3  v040
 BYTE   W06
 BYTE   An3  v048
 BYTE   W06
 BYTE   As3  v044
 BYTE   W06
 BYTE   Fn3  v036
 BYTE   W06
 BYTE   Gn3  v040
 BYTE   W06
 BYTE   An3  v044
 BYTE   W06
 BYTE   As3  v048
 BYTE   W06
 BYTE   Fn3  v032
 BYTE   W06
 BYTE   Gn3  v044
 BYTE   W06
 BYTE   An3  v040
 BYTE   W06
 BYTE   As3
 BYTE   W06
 BYTE   Fn3  v036
 BYTE   W06
 BYTE   Gn3  v044
 BYTE   W06
 BYTE   An3
 BYTE   W06
 BYTE   As3  v040
 BYTE   W06
// 064   ----------------------------------------
 BYTE   Fn3  v036
 BYTE   W06
 BYTE   Gn3  v044
 BYTE   W06
 BYTE   An3
 BYTE   W06
 BYTE   As3  v040
 BYTE   W06
 BYTE   Fn3  v036
 BYTE   W06
 BYTE   Gn3  v044
 BYTE   W06
 BYTE   An3
 BYTE   W06
 BYTE   As3  v040
 BYTE   W06
 BYTE   Fn3  v036
 BYTE   W06
 BYTE   Gn3  v040
 BYTE   W06
 BYTE   An3  v044
 BYTE   W06
 BYTE   As3
 BYTE   W06
 BYTE   Fn3  v032
 BYTE   W06
 BYTE   Gn3  v040
 BYTE   W06
 BYTE   An3  v044
 BYTE   W06
 BYTE   As3  v040
 BYTE   W06
// 065   ----------------------------------------
 BYTE   Fn3
 BYTE   W06
 BYTE   Gn3
 BYTE   W06
 BYTE   An3  v044
 BYTE   W06
 BYTE   As3
 BYTE   W06
 BYTE   Fn3  v040
 BYTE   W06
 BYTE   Gn3  v048
 BYTE   W06
 BYTE   An3  v044
 BYTE   W06
 BYTE   As3
 BYTE   W06
 BYTE   Fn3  v040
 BYTE   W06
 BYTE   Gn3
 BYTE   W06
 BYTE   An3
 BYTE   W06
 BYTE   As3
 BYTE   W06
 BYTE   Fn3  v036
 BYTE   W06
 BYTE   Gn3  v044
 BYTE   W06
 BYTE   An3
 BYTE   W06
 BYTE   As3  v040
 BYTE   W06
// 066   ----------------------------------------
 BYTE   Fn3
 BYTE   W06
 BYTE   Gn3  v044
 BYTE   W06
 BYTE   An3
 BYTE   W06
 BYTE   As3  v040
 BYTE   W06
 BYTE   Fn3  v036
 BYTE   W06
 BYTE   Gn3  v040
 BYTE   W06
 BYTE   An3  v044
 BYTE   W06
 BYTE   As3  v040
 BYTE   W06
 BYTE   Fn3
 BYTE   W06
 BYTE   Gn3
 BYTE   W06
 BYTE   An3  v044
 BYTE   W06
 BYTE   As3
 BYTE   W06
 BYTE   Fn3  v036
 BYTE   W06
 BYTE   Gn3
 BYTE   W06
 BYTE   An3  v040
 BYTE   W06
 BYTE   As3
 BYTE   W06
// 067   ----------------------------------------
 BYTE   Fn3  v036
 BYTE   W06
 BYTE   Gn3
 BYTE   W06
 BYTE   An3  v044
 BYTE   W06
 BYTE   As3  v040
 BYTE   W06
 BYTE   Fn3  v032
 BYTE   W06
 BYTE   Gn3  v040
 BYTE   W06
 BYTE   An3  v044
 BYTE   W06
 BYTE   As3
 BYTE   W06
 BYTE   Fn3  v032
 BYTE   W06
 BYTE   Gn3  v044
 BYTE   W06
 BYTE   An3  v040
 BYTE   W06
 BYTE   As3  v044
 BYTE   W06
 BYTE   Fn3  v036
 BYTE   W06
 BYTE   Gn3  v040
 BYTE   W06
 BYTE   An3
 BYTE   W06
 BYTE   As3  v044
 BYTE   W06
// 068   ----------------------------------------
 BYTE   Fn3  v036
 BYTE   W06
 BYTE   Gn3  v040
 BYTE   W06
 BYTE   An3  v044
 BYTE   W06
 BYTE   As3
 BYTE   W06
 BYTE   Fn3  v036
 BYTE   W06
 BYTE   Gn3  v044
 BYTE   W06
 BYTE   An3  v040
 BYTE   W06
 BYTE   As3  v044
 BYTE   W06
 BYTE   Fn3  v036
 BYTE   W06
 BYTE   Gn3  v044
 BYTE   W06
 BYTE   An3
 BYTE   W06
 BYTE   As3
 BYTE   W06
 BYTE   Fn3  v036
 BYTE   W06
 BYTE   Gn3  v032
 BYTE   W06
 BYTE   An3  v044
 BYTE   W06
 BYTE   As3  v040
 BYTE   W06
// 069   ----------------------------------------
 BYTE   Fn3  v036
 BYTE   W06
 BYTE   Gn3  v040
 BYTE   W06
 BYTE   An3  v044
 BYTE   W06
 BYTE   As3  v040
 BYTE   W06
 BYTE   Fn3  v032
 BYTE   W06
 BYTE   Gn3  v040
 BYTE   W06
 BYTE   An3  v044
 BYTE   W06
 BYTE   As3  v040
 BYTE   W06
 BYTE   Fn3  v036
 BYTE   W06
 BYTE   Gn3  v044
 BYTE   W06
 BYTE   An3  v040
 BYTE   W06
 BYTE   As3
 BYTE   W06
 BYTE   Fn3
 BYTE   W06
 BYTE   Gn3  v044
 BYTE   W06
 BYTE   An3
 BYTE   W06
 BYTE   As3  v048
 BYTE   W06
// 070   ----------------------------------------
 BYTE   W96
// 071   ----------------------------------------
 BYTE   W96
 BYTE   PATT
  POIN2 Label_5_01557CAB
// 072   ----------------------------------------
 BYTE   GoTo
  POIN2 Label_5_01557CB4
 BYTE   FINE

//**************** Track 7 (Midi-Chn.6) ****************//

KirbyTripleDeluxeMoonstruckBlossomRandomWizard_007:
// 000   ----------------------------------------
 BYTE   KEYSH   KirbyTripleDeluxeMoonstruckBlossomRandomWizard_key+0
 BYTE   VOICE   124
 BYTE   VOL   19*KirbyTripleDeluxeMoonstruckBlossomRandomWizard_mvl/mxv
 BYTE   PAN   c_v+0
 BYTE   VOL   19*KirbyTripleDeluxeMoonstruckBlossomRandomWizard_mvl/mxv
 BYTE   PAN   c_v+0
 BYTE   VOL   19*KirbyTripleDeluxeMoonstruckBlossomRandomWizard_mvl/mxv
 BYTE   PAN   c_v+0
 BYTE   VOL   19*KirbyTripleDeluxeMoonstruckBlossomRandomWizard_mvl/mxv
 BYTE   PAN   c_v+0
 BYTE   VOL   19*KirbyTripleDeluxeMoonstruckBlossomRandomWizard_mvl/mxv
 BYTE   PAN   c_v+0
 BYTE   VOL   19*KirbyTripleDeluxeMoonstruckBlossomRandomWizard_mvl/mxv
 BYTE   PAN   c_v+0
 BYTE   VOL   19*KirbyTripleDeluxeMoonstruckBlossomRandomWizard_mvl/mxv
 BYTE   PAN   c_v+0
 BYTE   VOL   19*KirbyTripleDeluxeMoonstruckBlossomRandomWizard_mvl/mxv
 BYTE   PAN   c_v+0
 BYTE   W96
// 001   ----------------------------------------
 BYTE   W96
// 002   ----------------------------------------
 BYTE   W48
Label_6_01558183:
 BYTE   N32  Bn0  v064
 BYTE   N11  As1
 BYTE   W12
 BYTE   Fs1
 BYTE   W12
 BYTE   N23  Dn1
 BYTE   N11  As1
 BYTE   W12
 BYTE   Bn0
 BYTE   N11  Fs1
 BYTE   W12
// 003   ----------------------------------------
 BYTE   As1
 BYTE   W12
 BYTE   Fs1
 BYTE   W12
 BYTE   N23  Dn1
 BYTE   N11  As1
 BYTE   W12
 BYTE   Fs1
 BYTE   W12
 BYTE   PEND 
Label_6_015581A0:
 BYTE   N32  Bn0  v064
 BYTE   N11  As1
 BYTE   W12
 BYTE   Fs1
 BYTE   W12
 BYTE   N23  Dn1
 BYTE   N11  As1
 BYTE   W12
 BYTE   Bn0
 BYTE   N11  Fs1
 BYTE   W12
// 004   ----------------------------------------
 BYTE   As1
 BYTE   N05  Fn4  v036
 BYTE   W06
 BYTE   N05
 BYTE   W06
 BYTE   N11  Fs1  v064
 BYTE   N05  Fn4  v036
 BYTE   W06
 BYTE   N05
 BYTE   W06
 BYTE   N23  Dn1  v064
 BYTE   N11  As1
 BYTE   N05  Fn4  v036
 BYTE   W06
 BYTE   N05
 BYTE   W06
 BYTE   N11  Fs1  v064
 BYTE   N05  Fn4  v036
 BYTE   W06
 BYTE   N05
 BYTE   W06
 BYTE   PEND 
Label_6_015581D6:
 BYTE   N11  As1  v064
 BYTE   W12
 BYTE   Fs1
 BYTE   W12
 BYTE   N23  Dn1
 BYTE   N11  As1
 BYTE   W12
 BYTE   Fs1
 BYTE   W12
// 005   ----------------------------------------
 BYTE   As1
 BYTE   W12
 BYTE   Fs1
 BYTE   W12
 BYTE   N23  Dn1
 BYTE   N11  As1
 BYTE   W12
 BYTE   Fs1
 BYTE   W12
 BYTE   PEND 
 BYTE   PATT
  POIN2 Label_6_015581D6
 BYTE   PATT
  POIN2 Label_6_01558183
 BYTE   PATT
  POIN2 Label_6_015581A0
 BYTE   PATT
  POIN2 Label_6_01558183
 BYTE   PATT
  POIN2 Label_6_01558183
// 006   ----------------------------------------
 BYTE   N32  Bn0  v080
 BYTE   N11  Fs1  v064
 BYTE   W12
 BYTE   N11
 BYTE   W12
 BYTE   N23  Dn1  v080
 BYTE   N11  Fs1  v064
 BYTE   W12
 BYTE   N44  Bn0  v080
 BYTE   N11  Fs1  v064
 BYTE   W12
Label_6_0155821F:
 BYTE   N11  Fs1  v064
 BYTE   W12
 BYTE   N11
 BYTE   W12
 BYTE   N23  Dn1  v080
 BYTE   N11  Fs1  v064
 BYTE   W12
 BYTE   Bn0  v080
 BYTE   N11  Fs1  v064
 BYTE   W12
// 007   ----------------------------------------
Label_6_01558232:
 BYTE   N32  Bn0  v080
 BYTE   N11  Fs1  v064
 BYTE   W12
 BYTE   N05  Dn1  v036
 BYTE   N11  Fs1  v064
 BYTE   W06
 BYTE   N05  Dn1  v036
 BYTE   W06
 BYTE   N23  Dn1  v080
 BYTE   N11  Fs1  v064
 BYTE   W12
 BYTE   N44  Bn0  v080
 BYTE   N11  Fs1  v064
 BYTE   W12
 BYTE   N11
 BYTE   W12
 BYTE   N11
 BYTE   W12
 BYTE   N23  Dn1  v080
 BYTE   N05  Fs1  v064
 BYTE   W06
 BYTE   N05
 BYTE   W06
 BYTE   N11  Bn0  v080
 BYTE   N05  Fs1  v064
 BYTE   W06
 BYTE   N05
 BYTE   W06
 BYTE   PEND 
// 008   ----------------------------------------
Label_6_01558269:
 BYTE   N32  Bn0  v080
 BYTE   N11  Fs1  v064
 BYTE   W12
 BYTE   N11
 BYTE   W12
 BYTE   N23  Dn1  v080
 BYTE   N11  Fs1  v064
 BYTE   W12
 BYTE   N44  Bn0  v080
 BYTE   N11  Fs1  v064
 BYTE   W12
 BYTE   N11
 BYTE   W12
 BYTE   N11
 BYTE   W12
 BYTE   N23  Dn1  v080
 BYTE   N11  Fs1  v064
 BYTE   W12
 BYTE   Bn0  v080
 BYTE   N11  Fs1  v064
 BYTE   W12
 BYTE   PEND 
 BYTE   PATT
  POIN2 Label_6_01558232
 BYTE   PATT
  POIN2 Label_6_01558269
 BYTE   PATT
  POIN2 Label_6_01558232
 BYTE   PATT
  POIN2 Label_6_01558269
 BYTE   PATT
  POIN2 Label_6_01558232
 BYTE   PATT
  POIN2 Label_6_01558269
 BYTE   PATT
  POIN2 Label_6_01558232
 BYTE   PATT
  POIN2 Label_6_01558269
 BYTE   PATT
  POIN2 Label_6_01558232
 BYTE   PATT
  POIN2 Label_6_01558269
// 009   ----------------------------------------
 BYTE   N32  Bn0  v080
 BYTE   N11  Fs1  v064
 BYTE   W12
 BYTE   N05  Dn1  v036
 BYTE   N11  Fs1  v064
 BYTE   W06
 BYTE   N05  Dn1  v036
 BYTE   W06
 BYTE   N23  Dn1  v080
 BYTE   N11  Fs1  v064
 BYTE   W12
 BYTE   Bn0  v080
 BYTE   N11  Fs1  v064
 BYTE   W12
 BYTE   N23  Bn0  v080
 BYTE   N23  Dn1
 BYTE   N23  Fs1  v064
 BYTE   W24
 BYTE   Bn0  v080
 BYTE   N23  Dn1
 BYTE   N23  Fs1  v064
 BYTE   W24
// 010   ----------------------------------------
 BYTE   N05  Dn1  v096
 BYTE   N92  An2  v080
 BYTE   W06
 BYTE   N05  Dn1  v096
 BYTE   W06
 BYTE   N05
 BYTE   W06
 BYTE   N05
 BYTE   W18
 BYTE   N05
 BYTE   W06
 BYTE   N05
 BYTE   W06
 BYTE   N05
 BYTE   W24
 BYTE   N05
 BYTE   W06
 BYTE   N05
 BYTE   W06
 BYTE   N05
 BYTE   W06
 BYTE   N05
 BYTE   W06
// 011   ----------------------------------------
 BYTE   N05
 BYTE   W06
 BYTE   N05
 BYTE   W06
 BYTE   N05
 BYTE   W06
 BYTE   N05
 BYTE   W18
 BYTE   N05
 BYTE   W06
 BYTE   N05
 BYTE   W06
 BYTE   N05
 BYTE   N11  Dn2  v080
 BYTE   W06
 BYTE   N05  Cs1  v127
 BYTE   W18
 BYTE   Dn1  v096
 BYTE   N11  Bn1  v080
 BYTE   W06
 BYTE   N05  Dn1  v096
 BYTE   W06
 BYTE   N05
 BYTE   N11  Fn1  v080
 BYTE   W06
 BYTE   N05  Dn1  v096
 BYTE   W06
// 012   ----------------------------------------
 BYTE   N05
 BYTE   N05  Fs1
 BYTE   N92  An2
 BYTE   N23  An4  v080
 BYTE   W06
 BYTE   N05  Dn1  v096
 BYTE   N05  Fs1
 BYTE   W06
 BYTE   Dn1
 BYTE   N11  As1
 BYTE   W06
 BYTE   N05  Dn1
 BYTE   W06
 BYTE   Fs1
 BYTE   W06
 BYTE   N05
 BYTE   W06
 BYTE   Dn1
 BYTE   N11  As1
 BYTE   W06
 BYTE   N05  Dn1
 BYTE   W06
 BYTE   N05
 BYTE   N05  Fs1
 BYTE   W06
 BYTE   N05
 BYTE   W06
 BYTE   N11  As1
 BYTE   W12
 BYTE   N05  Dn1
 BYTE   N05  Fs1
 BYTE   W06
 BYTE   Dn1
 BYTE   N05  Fs1
 BYTE   W06
 BYTE   Dn1
 BYTE   N11  As1
 BYTE   W06
 BYTE   N05  Dn1
 BYTE   W06
// 013   ----------------------------------------
 BYTE   N05
 BYTE   N05  Fs1
 BYTE   N23  An4  v080
 BYTE   W06
 BYTE   N05  Dn1  v096
 BYTE   N05  Fs1
 BYTE   W06
 BYTE   Dn1
 BYTE   N11  As1
 BYTE   N80  An2
 BYTE   W06
 BYTE   N05  Dn1
 BYTE   W06
 BYTE   Fs1
 BYTE   W06
 BYTE   N05
 BYTE   W06
 BYTE   Dn1
 BYTE   N11  As1
 BYTE   W06
 BYTE   N05  Dn1
 BYTE   W06
 BYTE   N05
 BYTE   N05  Fs1
 BYTE   N44  As2  v127
 BYTE   W06
 BYTE   N05  Fs1  v096
 BYTE   W06
 BYTE   N11  As1
 BYTE   W12
 BYTE   N05  Dn1
 BYTE   N05  Fs1
 BYTE   N23  An4  v080
 BYTE   W06
 BYTE   N05  Dn1  v096
 BYTE   N05  Fs1
 BYTE   W06
 BYTE   Dn1
 BYTE   N11  As1
 BYTE   W06
 BYTE   N05  Dn1
 BYTE   W06
// 014   ----------------------------------------
 BYTE   N23  Bn0  v080
 BYTE   N05  Fs1  v096
 BYTE   TIE  An2
 BYTE   W06
 BYTE   N05  Fs1
 BYTE   W06
 BYTE   N11  As1
 BYTE   W12
 BYTE   N23  Bn0  v080
 BYTE   N05  Fs1  v096
 BYTE   W06
 BYTE   N05
 BYTE   W06
 BYTE   N11  As1
 BYTE   W12
 BYTE   N23  Bn0  v080
 BYTE   N05  Fs1  v096
 BYTE   W06
 BYTE   N05
 BYTE   W06
 BYTE   N11  As1
 BYTE   W12
 BYTE   N23  Bn0  v080
 BYTE   N05  Fs1  v096
 BYTE   W06
 BYTE   N05
 BYTE   W06
 BYTE   N11  As1
 BYTE   W12
// 015   ----------------------------------------
 BYTE   N23  Bn0  v080
 BYTE   N05  Fs1  v096
 BYTE   W06
 BYTE   N05
 BYTE   W06
 BYTE   N11  As1
 BYTE   W12
 BYTE   N23  Bn0  v080
 BYTE   N05  Fs1  v096
 BYTE   W06
 BYTE   N05
 BYTE   W06
 BYTE   N11  As1
 BYTE   W12
 BYTE   N23  Bn0  v080
 BYTE   N05  Fs1  v096
 BYTE   W06
 BYTE   N05
 BYTE   W06
 BYTE   N11  As1
 BYTE   W12
 BYTE   N23  Bn0  v080
 BYTE   N05  Fs1  v096
 BYTE   W06
 BYTE   N05
 BYTE   W06
 BYTE   N11  As1
 BYTE   W11
 BYTE   EOT
 BYTE   An2
 BYTE   W01
// 016   ----------------------------------------
Label_6_0155841D:
 BYTE   N23  Bn0  v080
 BYTE   N05  Fs1  v096
 BYTE   N23  Gs4  v080
 BYTE   W06
 BYTE   N05  Fs1  v096
 BYTE   W06
 BYTE   N11  As1
 BYTE   W12
 BYTE   N23  Bn0  v080
 BYTE   N05  Fs1  v096
 BYTE   N23  Gs4  v080
 BYTE   W06
 BYTE   N05  Fs1  v096
 BYTE   W06
 BYTE   N11  As1
 BYTE   W12
 BYTE   N23  Bn0  v080
 BYTE   N05  Fs1  v096
 BYTE   N23  Gs4  v080
 BYTE   W06
 BYTE   N05  Fs1  v096
 BYTE   W06
 BYTE   N11  As1
 BYTE   W12
 BYTE   N23  Bn0  v080
 BYTE   N05  Fs1  v096
 BYTE   N23  Gs4  v080
 BYTE   W06
 BYTE   N05  Fs1  v096
 BYTE   W06
 BYTE   N11  As1
 BYTE   W12
 BYTE   PEND 
 BYTE   PATT
  POIN2 Label_6_0155841D
 BYTE   PATT
  POIN2 Label_6_0155841D
 BYTE   PATT
  POIN2 Label_6_0155841D
 BYTE   PATT
  POIN2 Label_6_0155841D
 BYTE   PATT
  POIN2 Label_6_0155841D
// 017   ----------------------------------------
Label_6_0155847B:
 BYTE   N17  Bn0  v080
 BYTE   N05  Dn1  v096
 BYTE   N05  Fs1
 BYTE   N23  Gs4  v080
 BYTE   W06
 BYTE   N05  Dn1  v096
 BYTE   N05  Fs1
 BYTE   W06
 BYTE   Dn1
 BYTE   N11  As1
 BYTE   W06
 BYTE   N05  Bn0  v080
 BYTE   W06
 BYTE   N23
 BYTE   N05  Fs1  v096
 BYTE   N23  Gs4  v080
 BYTE   W06
 BYTE   N05  Fs1  v096
 BYTE   W06
 BYTE   Dn1
 BYTE   N11  As1
 BYTE   W06
 BYTE   N05  Dn1
 BYTE   W06
 BYTE   N23  Bn0  v080
 BYTE   N05  Dn1  v096
 BYTE   N05  Fs1
 BYTE   N23  Gs4  v080
 BYTE   W06
 BYTE   N05  Fs1  v096
 BYTE   W06
 BYTE   N11  As1
 BYTE   W12
 BYTE   N23  Bn0  v080
 BYTE   N05  Dn1  v096
 BYTE   N05  Fs1
 BYTE   N23  Gs4  v080
 BYTE   W06
 BYTE   N05  Dn1  v096
 BYTE   N05  Fs1
 BYTE   W06
 BYTE   Dn1
 BYTE   N11  As1
 BYTE   W06
 BYTE   N05  Dn1
 BYTE   W06
 BYTE   PEND 
 BYTE   PATT
  POIN2 Label_6_0155847B
 BYTE   PATT
  POIN2 Label_6_0155847B
 BYTE   PATT
  POIN2 Label_6_0155847B
 BYTE   PATT
  POIN2 Label_6_0155847B
 BYTE   PATT
  POIN2 Label_6_0155847B
 BYTE   PATT
  POIN2 Label_6_0155847B
 BYTE   PATT
  POIN2 Label_6_0155847B
 BYTE   PATT
  POIN2 Label_6_0155847B
// 018   ----------------------------------------
 BYTE   N17  Bn0  v080
 BYTE   N05  Fs1  v096
 BYTE   N92  An2
 BYTE   W06
 BYTE   N05  Fs1
 BYTE   W06
 BYTE   N05
 BYTE   W06
 BYTE   Bn0  v080
 BYTE   N05  Fs1  v096
 BYTE   W06
 BYTE   N11  Bn0  v080
 BYTE   N11  As1  v096
 BYTE   W12
 BYTE   Bn0  v080
 BYTE   N05  Fs1  v096
 BYTE   W06
 BYTE   N05
 BYTE   W06
 BYTE   N05
 BYTE   W06
 BYTE   N05
 BYTE   W06
 BYTE   N11  Bn0  v080
 BYTE   N11  As1  v096
 BYTE   W12
 BYTE   N05  Fs1
 BYTE   W06
 BYTE   N05
 BYTE   W06
 BYTE   N03
 BYTE   W04
 BYTE   N03
 BYTE   W04
 BYTE   N03
 BYTE   W04
// 019   ----------------------------------------
Label_6_01558536:
 BYTE   N17  Bn0  v080
 BYTE   N05  Fs1  v096
 BYTE   W06
 BYTE   N05
 BYTE   W06
 BYTE   N05
 BYTE   W06
 BYTE   Bn0  v080
 BYTE   N05  Fs1  v096
 BYTE   W06
 BYTE   N11  Bn0  v080
 BYTE   N11  As1  v096
 BYTE   W12
 BYTE   Bn0  v080
 BYTE   N05  Fs1  v096
 BYTE   W06
 BYTE   N05
 BYTE   W06
 BYTE   N05
 BYTE   W06
 BYTE   N05
 BYTE   W06
 BYTE   N11  Bn0  v080
 BYTE   N11  As1  v096
 BYTE   W12
 BYTE   N05  Fs1
 BYTE   W06
 BYTE   N05
 BYTE   W06
 BYTE   N03
 BYTE   W04
 BYTE   N03
 BYTE   W04
 BYTE   N03
 BYTE   W04
 BYTE   PEND 
 BYTE   PATT
  POIN2 Label_6_01558536
 BYTE   PATT
  POIN2 Label_6_01558536
 BYTE   PATT
  POIN2 Label_6_01558536
 BYTE   PATT
  POIN2 Label_6_01558536
// 020   ----------------------------------------
Label_6_01558581:
 BYTE   N17  Bn0  v080
 BYTE   N05  Dn1  v096
 BYTE   N05  Fs1
 BYTE   W06
 BYTE   Dn1
 BYTE   N05  Fs1
 BYTE   W06
 BYTE   Dn1
 BYTE   N05  Fs1
 BYTE   W06
 BYTE   Bn0  v080
 BYTE   N05  Fs1  v096
 BYTE   W06
 BYTE   N11  Bn0  v080
 BYTE   N11  As1  v096
 BYTE   W12
 BYTE   Bn0  v080
 BYTE   N05  Dn1  v096
 BYTE   N05  Fs1
 BYTE   W06
 BYTE   Dn1
 BYTE   N05  Fs1
 BYTE   W06
 BYTE   Dn1
 BYTE   N05  Fs1
 BYTE   W06
 BYTE   N05
 BYTE   W06
 BYTE   N11  Bn0  v080
 BYTE   N11  As1  v096
 BYTE   W12
 BYTE   N05  Dn1
 BYTE   N05  Fs1
 BYTE   W06
 BYTE   Dn1
 BYTE   N05  Fs1
 BYTE   W06
 BYTE   Dn1
 BYTE   N03  Fs1
 BYTE   W04
 BYTE   N03
 BYTE   W02
 BYTE   N05  Dn1
 BYTE   W02
 BYTE   N03  Fs1
 BYTE   W04
 BYTE   PEND 
 BYTE   PATT
  POIN2 Label_6_01558581
// 021   ----------------------------------------
Label_6_015585D3:
 BYTE   N17  Bn0  v080
 BYTE   W12
 BYTE   N11  Fs1  v096
 BYTE   W06
 BYTE   N05  Bn0  v080
 BYTE   W06
 BYTE   N11
 BYTE   W12
 BYTE   N11
 BYTE   N11  Fs1  v096
 BYTE   W24
 BYTE   Bn0  v080
 BYTE   N11  Fs1  v096
 BYTE   W24
 BYTE   N05
 BYTE   W06
 BYTE   N05
 BYTE   W06
 BYTE   PEND 
 BYTE   PATT
  POIN2 Label_6_015585D3
 BYTE   PATT
  POIN2 Label_6_015585D3
 BYTE   PATT
  POIN2 Label_6_015585D3
 BYTE   PATT
  POIN2 Label_6_015585D3
 BYTE   PATT
  POIN2 Label_6_015585D3
 BYTE   PATT
  POIN2 Label_6_015585D3
// 022   ----------------------------------------
 BYTE   N32  Bn0  v080
 BYTE   N32  Fn1
 BYTE   N32  An2  v096
 BYTE   W12
 BYTE   N11  Fs1
 BYTE   W24
 BYTE   N32  Bn0  v080
 BYTE   N32  Gn1
 BYTE   N32  An2  v096
 BYTE   W36
 BYTE   N23  Bn0  v080
 BYTE   N23  Fn1
 BYTE   N23  An2  v096
 BYTE   W12
 BYTE   N05  Fs1
 BYTE   W06
 BYTE   N05
 BYTE   W06
// 023   ----------------------------------------
 BYTE   N32  Bn0  v080
 BYTE   N32  Fn1
 BYTE   N32  An2  v096
 BYTE   W36
 BYTE   Bn0  v080
 BYTE   N32  Gn1
 BYTE   N32  An2  v096
 BYTE   W36
 BYTE   N23  Bn0  v080
 BYTE   N05  Dn1  v096
 BYTE   N23  Fn1  v080
 BYTE   N11  Fs1  v096
 BYTE   N23  An2
 BYTE   W06
 BYTE   N05  Dn1
 BYTE   W06
 BYTE   N05
 BYTE   N05  Fs1
 BYTE   W06
 BYTE   Dn1
 BYTE   N05  Fs1
 BYTE   W06
// 024   ----------------------------------------
Label_6_0155865D:
 BYTE   N32  Bn0  v052
 BYTE   N11  Dn1  v036
 BYTE   W12
 BYTE   N11
 BYTE   W24
 BYTE   Bn0  v052
 BYTE   N11  Dn1  v036
 BYTE   W12
 BYTE   N11
 BYTE   W24
 BYTE   N05
 BYTE   W06
 BYTE   N05
 BYTE   W06
 BYTE   N05
 BYTE   W06
 BYTE   N05
 BYTE   W06
 BYTE   PEND 
 BYTE   PATT
  POIN2 Label_6_0155865D
 BYTE   PATT
  POIN2 Label_6_0155865D
 BYTE   PATT
  POIN2 Label_6_0155865D
 BYTE   PATT
  POIN2 Label_6_0155865D
 BYTE   PATT
  POIN2 Label_6_0155865D
 BYTE   PATT
  POIN2 Label_6_0155865D
 BYTE   PATT
  POIN2 Label_6_0155865D
// 025   ----------------------------------------
Label_6_0155869A:
 BYTE   N32  Bn0  v052
 BYTE   N11  Dn1  v036
 BYTE   N23  Fs1  v096
 BYTE   W12
 BYTE   N11  Dn1  v036
 BYTE   W12
 BYTE   N23  Fs1  v096
 BYTE   W12
 BYTE   N11  Bn0  v052
 BYTE   N11  Dn1  v036
 BYTE   W12
 BYTE   N11
 BYTE   N23  Fs1  v096
 BYTE   W24
 BYTE   N05  Dn1  v036
 BYTE   N23  Fs1  v096
 BYTE   W06
 BYTE   N05  Dn1  v036
 BYTE   W06
 BYTE   N05
 BYTE   W06
 BYTE   N05
 BYTE   W06
 BYTE   PEND 
 BYTE   PATT
  POIN2 Label_6_0155869A
 BYTE   PATT
  POIN2 Label_6_0155869A
 BYTE   PATT
  POIN2 Label_6_0155869A
 BYTE   PATT
  POIN2 Label_6_0155869A
 BYTE   PATT
  POIN2 Label_6_0155869A
// 026   ----------------------------------------
 BYTE   N23  Fs1  v052
 BYTE   W24
 BYTE   Dn1  v036
 BYTE   N23  Fs1  v052
 BYTE   W24
 BYTE   N23
 BYTE   W24
 BYTE   Dn1  v036
 BYTE   N23  Fs1  v052
 BYTE   W24
// 027   ----------------------------------------
 BYTE   N23
 BYTE   W24
 BYTE   Dn1  v036
 BYTE   N23  Fs1  v052
 BYTE   W24
 BYTE   N23
 BYTE   W12
 BYTE   N05  Dn1  v036
 BYTE   W06
 BYTE   N05
 BYTE   W06
 BYTE   N23
 BYTE   N23  Fs1  v052
 BYTE   W24
// 028   ----------------------------------------
 BYTE   N32  Bn0  v080
 BYTE   N11  Fs1  v064
 BYTE   W12
 BYTE   N11
 BYTE   W12
 BYTE   N23  Dn1  v080
 BYTE   N11  Fs1  v064
 BYTE   W12
 BYTE   Bn0  v080
 BYTE   N11  Fs1  v064
 BYTE   W12
 BYTE   GoTo
  POIN2 Label_6_0155821F
 BYTE   FINE

//**************** Track 8 (Midi-Chn.7) ****************//

KirbyTripleDeluxeMoonstruckBlossomRandomWizard_008:
// 000   ----------------------------------------
 BYTE   KEYSH   KirbyTripleDeluxeMoonstruckBlossomRandomWizard_key+0
 BYTE   VOICE   14
 BYTE   VOL   29*KirbyTripleDeluxeMoonstruckBlossomRandomWizard_mvl/mxv
 BYTE   PAN   c_v+0
 BYTE   W96
// 001   ----------------------------------------
 BYTE   W96
// 002   ----------------------------------------
 BYTE   W48
 BYTE   W96
// 003   ----------------------------------------
 BYTE   W96
// 004   ----------------------------------------
 BYTE   TIE  Gn3  v080
 BYTE   W96
// 005   ----------------------------------------
 BYTE   W92
 BYTE   W03
 BYTE   EOT
 BYTE   W01
// 006   ----------------------------------------
 BYTE   TIE  As3
 BYTE   W96
// 007   ----------------------------------------
 BYTE   W92
 BYTE   W03
 BYTE   EOT
 BYTE   W01
// 008   ----------------------------------------
 BYTE   TIE  Fn3
 BYTE   W96
// 009   ----------------------------------------
 BYTE   W92
 BYTE   W03
 BYTE   EOT
 BYTE   W01
// 010   ----------------------------------------
 BYTE   W48
Label_7_01558748:
 BYTE   W48
// 011   ----------------------------------------
 BYTE   W96
// 012   ----------------------------------------
 BYTE   W96
// 013   ----------------------------------------
 BYTE   W96
// 014   ----------------------------------------
 BYTE   W96
// 015   ----------------------------------------
 BYTE   W96
// 016   ----------------------------------------
 BYTE   W96
// 017   ----------------------------------------
 BYTE   W96
// 018   ----------------------------------------
 BYTE   W96
// 019   ----------------------------------------
 BYTE   W96
// 020   ----------------------------------------
 BYTE   W96
// 021   ----------------------------------------
 BYTE   W96
// 022   ----------------------------------------
 BYTE   W96
// 023   ----------------------------------------
 BYTE   W96
// 024   ----------------------------------------
 BYTE   W96
// 025   ----------------------------------------
 BYTE   W96
// 026   ----------------------------------------
 BYTE   W96
// 027   ----------------------------------------
 BYTE   W96
// 028   ----------------------------------------
 BYTE   W96
// 029   ----------------------------------------
 BYTE   W96
// 030   ----------------------------------------
 BYTE   W96
// 031   ----------------------------------------
 BYTE   W96
// 032   ----------------------------------------
 BYTE   W96
// 033   ----------------------------------------
 BYTE   W96
// 034   ----------------------------------------
 BYTE   W96
// 035   ----------------------------------------
 BYTE   W96
// 036   ----------------------------------------
 BYTE   W96
// 037   ----------------------------------------
 BYTE   W96
// 038   ----------------------------------------
 BYTE   W96
// 039   ----------------------------------------
 BYTE   W96
// 040   ----------------------------------------
 BYTE   W96
// 041   ----------------------------------------
 BYTE   W96
// 042   ----------------------------------------
 BYTE   W96
// 043   ----------------------------------------
 BYTE   W96
// 044   ----------------------------------------
 BYTE   W96
// 045   ----------------------------------------
 BYTE   W96
// 046   ----------------------------------------
 BYTE   W96
// 047   ----------------------------------------
 BYTE   W96
// 048   ----------------------------------------
 BYTE   W96
// 049   ----------------------------------------
 BYTE   W96
// 050   ----------------------------------------
 BYTE   W96
// 051   ----------------------------------------
 BYTE   W96
// 052   ----------------------------------------
 BYTE   W96
// 053   ----------------------------------------
 BYTE   W96
// 054   ----------------------------------------
 BYTE   W96
// 055   ----------------------------------------
 BYTE   W96
// 056   ----------------------------------------
 BYTE   W96
// 057   ----------------------------------------
 BYTE   W96
// 058   ----------------------------------------
 BYTE   W96
// 059   ----------------------------------------
 BYTE   W96
// 060   ----------------------------------------
 BYTE   W96
// 061   ----------------------------------------
 BYTE   W96
// 062   ----------------------------------------
 BYTE   W96
// 063   ----------------------------------------
 BYTE   W96
// 064   ----------------------------------------
 BYTE   W96
// 065   ----------------------------------------
 BYTE   W96
// 066   ----------------------------------------
 BYTE   W96
// 067   ----------------------------------------
 BYTE   W96
// 068   ----------------------------------------
 BYTE   W96
// 069   ----------------------------------------
 BYTE   W96
// 070   ----------------------------------------
 BYTE   W96
// 071   ----------------------------------------
 BYTE   W96
// 072   ----------------------------------------
 BYTE   W96
// 073   ----------------------------------------
 BYTE   W96
// 074   ----------------------------------------
 BYTE   W96
// 075   ----------------------------------------
 BYTE   W96
// 076   ----------------------------------------
 BYTE   W96
// 077   ----------------------------------------
 BYTE   W96
// 078   ----------------------------------------
 BYTE   W48
 BYTE   GoTo
  POIN2 Label_7_01558748
 BYTE   FINE

//**************** Track 9 (Midi-Chn.8) ****************//

KirbyTripleDeluxeMoonstruckBlossomRandomWizard_009:
// 000   ----------------------------------------
 BYTE   KEYSH   KirbyTripleDeluxeMoonstruckBlossomRandomWizard_key+0
 BYTE   VOICE   48
 BYTE   VOL   29*KirbyTripleDeluxeMoonstruckBlossomRandomWizard_mvl/mxv
 BYTE   PAN   c_v+0
 BYTE   W96
// 001   ----------------------------------------
 BYTE   W96
// 002   ----------------------------------------
 BYTE   W48
 BYTE   W96
// 003   ----------------------------------------
 BYTE   W96
// 004   ----------------------------------------
Label_8_015587A1:
 BYTE   W72
 BYTE   N11  Fn4  v080
 BYTE   N11  An4
 BYTE   W12
 BYTE   N23  Gn4
 BYTE   N23  As4
 BYTE   W12
 BYTE   PEND 
// 005   ----------------------------------------
Label_8_015587AE:
 BYTE   W12
 BYTE   N80  Fn3  v080
 BYTE   N80  Dn4
 BYTE   W84
 BYTE   PEND 
// 006   ----------------------------------------
Label_8_015587B6:
 BYTE   W72
 BYTE   N11  An3  v080
 BYTE   N11  An4
 BYTE   W12
 BYTE   N23  As3
 BYTE   N23  As4
 BYTE   W12
 BYTE   PEND 
// 007   ----------------------------------------
Label_8_015587C3:
 BYTE   W12
 BYTE   N23  Fn4  v080
 BYTE   N23  Fn5
 BYTE   W84
 BYTE   PEND 
// 008   ----------------------------------------
Label_8_015587CB:
 BYTE   N11  Fn2  v080
 BYTE   W12
 BYTE   N23  As2
 BYTE   W24
 BYTE   N44  Fn3
 BYTE   W60
 BYTE   PEND 
// 009   ----------------------------------------
 BYTE   W96
// 010   ----------------------------------------
Label_8_015587D7:
 BYTE   N11  Dn3  v052
 BYTE   W12
 BYTE   Ds3
 BYTE   W24
 BYTE   As3
 BYTE   W12
 BYTE   PEND 
Label_8_015587E0:
 BYTE   W24
 BYTE   N11  Dn3  v052
 BYTE   W12
 BYTE   Ds3
 BYTE   W12
// 011   ----------------------------------------
 BYTE   W12
 BYTE   As3
 BYTE   W36
 BYTE   An3
 BYTE   W12
 BYTE   Gn3
 BYTE   W12
 BYTE   Fn3
 BYTE   W12
 BYTE   Cn3
 BYTE   W12
// 012   ----------------------------------------
Label_8_015587F2:
 BYTE   N11  An2  v052
 BYTE   W12
 BYTE   As2
 BYTE   W24
 BYTE   Fn3
 BYTE   W36
 BYTE   An2
 BYTE   W12
 BYTE   As2
 BYTE   W12
 BYTE   PEND 
// 013   ----------------------------------------
Label_8_015587FF:
 BYTE   W12
 BYTE   N11  An3  v052
 BYTE   W36
 BYTE   Dn3
 BYTE   W12
 BYTE   Cn3
 BYTE   W12
 BYTE   As2
 BYTE   W12
 BYTE   Cn3
 BYTE   W12
 BYTE   PEND 
// 014   ----------------------------------------
 BYTE   N11
 BYTE   W12
 BYTE   Dn3
 BYTE   W24
 BYTE   An3
 BYTE   W36
 BYTE   Cn3
 BYTE   W12
 BYTE   Dn3
 BYTE   W12
// 015   ----------------------------------------
 BYTE   W12
 BYTE   As3
 BYTE   W36
 BYTE   Gn3
 BYTE   W12
 BYTE   Fn3
 BYTE   W12
 BYTE   Ds3
 BYTE   W12
 BYTE   As2
 BYTE   W12
 BYTE   PATT
  POIN2 Label_8_015587F2
// 016   ----------------------------------------
 BYTE   W12
 BYTE   N11  Fn3  v052
 BYTE   W36
 BYTE   Dn3
 BYTE   W12
 BYTE   Cn3
 BYTE   W12
 BYTE   As2
 BYTE   W12
 BYTE   Cn3
 BYTE   W12
// 017   ----------------------------------------
 BYTE   An2  v080
 BYTE   W12
 BYTE   As2
 BYTE   W24
 BYTE   Fn3
 BYTE   W36
 BYTE   An2
 BYTE   W12
 BYTE   As2
 BYTE   W12
// 018   ----------------------------------------
 BYTE   W12
 BYTE   An3
 BYTE   W36
 BYTE   N11
 BYTE   W12
 BYTE   Gn3
 BYTE   W12
 BYTE   Fn3
 BYTE   W12
 BYTE   Cn3
 BYTE   W12
 BYTE   PATT
  POIN2 Label_8_015587F2
 BYTE   PATT
  POIN2 Label_8_015587FF
// 019   ----------------------------------------
 BYTE   N11  Dn3  v127
 BYTE   W12
 BYTE   Gn3
 BYTE   W24
 BYTE   Cn4
 BYTE   W36
 BYTE   Dn3
 BYTE   W12
 BYTE   Cn4
 BYTE   W12
// 020   ----------------------------------------
 BYTE   W12
 BYTE   Fn4
 BYTE   W36
 BYTE   N23  Cn5
 BYTE   W24
 BYTE   As4
 BYTE   W24
// 021   ----------------------------------------
 BYTE   N11  An4
 BYTE   W96
// 022   ----------------------------------------
 BYTE   W96
// 023   ----------------------------------------
 BYTE   W96
// 024   ----------------------------------------
 BYTE   W96
// 025   ----------------------------------------
 BYTE   W96
// 026   ----------------------------------------
 BYTE   W96
// 027   ----------------------------------------
 BYTE   W96
// 028   ----------------------------------------
 BYTE   W96
// 029   ----------------------------------------
 BYTE   W96
// 030   ----------------------------------------
 BYTE   W96
// 031   ----------------------------------------
 BYTE   W96
// 032   ----------------------------------------
 BYTE   W96
// 033   ----------------------------------------
 BYTE   W96
// 034   ----------------------------------------
 BYTE   W96
// 035   ----------------------------------------
 BYTE   W96
// 036   ----------------------------------------
 BYTE   W96
// 037   ----------------------------------------
 BYTE   W96
// 038   ----------------------------------------
 BYTE   W96
// 039   ----------------------------------------
 BYTE   W96
// 040   ----------------------------------------
 BYTE   N05  Dn2  v052
 BYTE   W06
 BYTE   Fn2
 BYTE   W06
 BYTE   As2
 BYTE   W06
 BYTE   Dn3
 BYTE   W06
 BYTE   Fn3
 BYTE   W06
 BYTE   As3
 BYTE   W06
 BYTE   Fn4
 BYTE   W06
 BYTE   As4
 BYTE   W06
 BYTE   Fn3  v088
 BYTE   W06
 BYTE   Gn3  v104
 BYTE   W06
 BYTE   An3  v100
 BYTE   W06
 BYTE   Dn4
 BYTE   W06
 BYTE   Ds4  v096
 BYTE   W06
 BYTE   Fn4  v108
 BYTE   W06
 BYTE   Gn4  v116
 BYTE   W06
 BYTE   An4  v092
 BYTE   W06
// 041   ----------------------------------------
 BYTE   N23  Fn5  v052
 BYTE   W96
// 042   ----------------------------------------
 BYTE   W96
// 043   ----------------------------------------
 BYTE   W96
// 044   ----------------------------------------
 BYTE   W96
// 045   ----------------------------------------
 BYTE   W96
// 046   ----------------------------------------
 BYTE   W96
// 047   ----------------------------------------
 BYTE   W96
// 048   ----------------------------------------
 BYTE   W96
// 049   ----------------------------------------
 BYTE   W96
// 050   ----------------------------------------
 BYTE   W96
// 051   ----------------------------------------
 BYTE   W96
// 052   ----------------------------------------
 BYTE   W96
// 053   ----------------------------------------
 BYTE   W96
// 054   ----------------------------------------
 BYTE   W96
// 055   ----------------------------------------
 BYTE   W96
// 056   ----------------------------------------
 BYTE   W96
// 057   ----------------------------------------
 BYTE   W96
// 058   ----------------------------------------
 BYTE   W96
// 059   ----------------------------------------
 BYTE   W96
// 060   ----------------------------------------
 BYTE   W96
// 061   ----------------------------------------
 BYTE   N11  An3
 BYTE   W12
 BYTE   N23  As3
 BYTE   W24
 BYTE   N32  Fn4
 BYTE   W36
 BYTE   N23  Ds4
 BYTE   W24
// 062   ----------------------------------------
 BYTE   W96
// 063   ----------------------------------------
 BYTE   W96
// 064   ----------------------------------------
 BYTE   W96
// 065   ----------------------------------------
 BYTE   W96
// 066   ----------------------------------------
 BYTE   W96
// 067   ----------------------------------------
 BYTE   W96
// 068   ----------------------------------------
 BYTE   W96
 BYTE   PATT
  POIN2 Label_8_015587A1
 BYTE   PATT
  POIN2 Label_8_015587AE
 BYTE   PATT
  POIN2 Label_8_015587B6
 BYTE   PATT
  POIN2 Label_8_015587C3
 BYTE   PATT
  POIN2 Label_8_015587CB
// 069   ----------------------------------------
 BYTE   W96
 BYTE   PATT
  POIN2 Label_8_015587D7
// 070   ----------------------------------------
 BYTE   GoTo
  POIN2 Label_8_015587E0
 BYTE   FINE

//**************** Track 10 (Midi-Chn.9) ****************//

KirbyTripleDeluxeMoonstruckBlossomRandomWizard_010:
// 000   ----------------------------------------
 BYTE   KEYSH   KirbyTripleDeluxeMoonstruckBlossomRandomWizard_key+0
 BYTE   VOICE   51
 BYTE   VOL   29*KirbyTripleDeluxeMoonstruckBlossomRandomWizard_mvl/mxv
 BYTE   PAN   c_v+0
 BYTE   W96
// 001   ----------------------------------------
 BYTE   W96
// 002   ----------------------------------------
 BYTE   W48
 BYTE   TIE  Gn1  v052
 BYTE   TIE  An3
 BYTE   TIE  Dn4
 BYTE   TIE  An4
 BYTE   W96
// 003   ----------------------------------------
 BYTE   W92
 BYTE   W03
 BYTE   EOT
 BYTE   Gn1  v069
 BYTE   Dn4  v081
 BYTE   W01
// 004   ----------------------------------------
 BYTE   TIE  Gn1
 BYTE   TIE  As3
 BYTE   TIE  Ds4
 BYTE   TIE  Gn4
 BYTE   W96
// 005   ----------------------------------------
 BYTE   W92
 BYTE   W03
 BYTE   EOT
 BYTE   Gn1  v070
 BYTE   Ds4  v079
 BYTE   W01
// 006   ----------------------------------------
 BYTE   TIE  Gn1
 BYTE   TIE  Dn3
 BYTE   TIE  Gn3
 BYTE   TIE  As3
 BYTE   W96
// 007   ----------------------------------------
 BYTE   W92
 BYTE   W03
 BYTE   EOT
 BYTE   Gn1  v062
 BYTE   Gn3  v070
 BYTE   W01
// 008   ----------------------------------------
 BYTE   TIE  Fn3
 BYTE   TIE  As3
 BYTE   TIE  Dn4
 BYTE   TIE  Fn4
 BYTE   W96
// 009   ----------------------------------------
 BYTE   W92
 BYTE   W03
 BYTE   EOT
 BYTE   Fn3  v070
 BYTE   Dn4  v077
 BYTE   W01
// 010   ----------------------------------------
 BYTE   N32  Ds2
 BYTE   W36
 BYTE   N56
 BYTE   W12
Label_9_0155894D:
 BYTE   W48
// 011   ----------------------------------------
 BYTE   N23  Ds2  v052
 BYTE   W24
 BYTE   N11  Dn3
 BYTE   W12
 BYTE   Ds3
 BYTE   W12
 BYTE   Ds2
 BYTE   W12
 BYTE   N11
 BYTE   W12
 BYTE   As3
 BYTE   W12
 BYTE   N11
 BYTE   W12
// 012   ----------------------------------------
Label_9_0155895F:
 BYTE   N32  Gn2  v052
 BYTE   W36
 BYTE   N32
 BYTE   W36
 BYTE   N11
 BYTE   W12
 BYTE   Dn3
 BYTE   W12
 BYTE   PEND 
// 013   ----------------------------------------
 BYTE   N23  Gn2
 BYTE   W24
 BYTE   N11  Dn3
 BYTE   W12
 BYTE   Gn3
 BYTE   W12
 BYTE   N44  Dn3
 BYTE   W48
// 014   ----------------------------------------
 BYTE   N32  Ds2
 BYTE   W36
 BYTE   N32
 BYTE   W36
 BYTE   N23  Ds3
 BYTE   W24
// 015   ----------------------------------------
 BYTE   Ds2
 BYTE   W24
 BYTE   N11  As2
 BYTE   W12
 BYTE   Ds3
 BYTE   W12
 BYTE   N44  Dn2
 BYTE   W48
 BYTE   PATT
  POIN2 Label_9_0155895F
// 016   ----------------------------------------
 BYTE   N23  Gn2  v052
 BYTE   W24
 BYTE   N11  Dn3
 BYTE   W12
 BYTE   Gn3
 BYTE   W12
 BYTE   Gn2
 BYTE   W12
 BYTE   Cn3
 BYTE   W12
 BYTE   Gn3
 BYTE   W12
 BYTE   Gn2
 BYTE   W12
// 017   ----------------------------------------
 BYTE   N32  Ds2  v064
 BYTE   TIE  Dn4
 BYTE   TIE  Fn4
 BYTE   TIE  An4
 BYTE   W36
 BYTE   N56  Ds2
 BYTE   W60
// 018   ----------------------------------------
 BYTE   N23
 BYTE   W24
 BYTE   N11  Dn3
 BYTE   W12
 BYTE   Ds3
 BYTE   W11
 BYTE   EOT
 BYTE   Dn4  v077
 BYTE   An4
 BYTE   W01
 BYTE   N11  Ds2
 BYTE   N44  Fn4
 BYTE   N44  An4
 BYTE   N44  Cn5
 BYTE   W12
 BYTE   N11  Ds2
 BYTE   W12
 BYTE   As3
 BYTE   W12
 BYTE   N11
 BYTE   W12
// 019   ----------------------------------------
 BYTE   N32  Gn2  v080
 BYTE   TIE  Dn4
 BYTE   TIE  Fn4
 BYTE   TIE  An4
 BYTE   W36
 BYTE   N32  Gn2
 BYTE   W36
 BYTE   N11
 BYTE   W12
 BYTE   Dn3
 BYTE   W12
// 020   ----------------------------------------
 BYTE   N23  Gn2
 BYTE   W24
 BYTE   N11  Dn3
 BYTE   W12
 BYTE   Gn3
 BYTE   W12
 BYTE   N44  Dn3
 BYTE   W44
 BYTE   W03
 BYTE   EOT
 BYTE   Dn4  v077
 BYTE   An4
 BYTE   W01
// 021   ----------------------------------------
 BYTE   N32  Gn2
 BYTE   W36
 BYTE   N32
 BYTE   W36
 BYTE   N11
 BYTE   W12
 BYTE   Dn3
 BYTE   W12
// 022   ----------------------------------------
 BYTE   N23  Gn2
 BYTE   W24
 BYTE   N11  Dn3
 BYTE   W12
 BYTE   Gn3
 BYTE   W12
 BYTE   Gn2
 BYTE   W12
 BYTE   Cn3
 BYTE   W12
 BYTE   Gn3
 BYTE   W12
 BYTE   Gn2
 BYTE   W12
// 023   ----------------------------------------
 BYTE   W96
// 024   ----------------------------------------
 BYTE   W96
// 025   ----------------------------------------
 BYTE   W96
// 026   ----------------------------------------
 BYTE   W96
// 027   ----------------------------------------
 BYTE   W96
// 028   ----------------------------------------
 BYTE   W96
// 029   ----------------------------------------
 BYTE   W96
// 030   ----------------------------------------
 BYTE   W96
// 031   ----------------------------------------
 BYTE   W96
// 032   ----------------------------------------
 BYTE   W96
// 033   ----------------------------------------
 BYTE   W96
// 034   ----------------------------------------
 BYTE   W96
// 035   ----------------------------------------
 BYTE   N68  Gn4  v088
 BYTE   W72
 BYTE   N11  Dn4  v084
 BYTE   W12
 BYTE   Dn4  v096
 BYTE   W12
// 036   ----------------------------------------
 BYTE   Fn4  v108
 BYTE   W12
 BYTE   En4  v096
 BYTE   W12
 BYTE   Dn4
 BYTE   W12
 BYTE   N56  Cn4  v092
 BYTE   W60
// 037   ----------------------------------------
 BYTE   N68  Gn4  v116
 BYTE   W72
 BYTE   N11  Dn4  v088
 BYTE   W12
 BYTE   Fn4  v108
 BYTE   W12
// 038   ----------------------------------------
 BYTE   Cn5  v116
 BYTE   W12
 BYTE   An4  v096
 BYTE   W12
 BYTE   Gn4  v092
 BYTE   W12
 BYTE   N56  Fn4
 BYTE   W60
// 039   ----------------------------------------
 BYTE   W96
// 040   ----------------------------------------
 BYTE   W96
// 041   ----------------------------------------
 BYTE   N44  Cn4  v072
 BYTE   N44  Fn4  v124
 BYTE   W48
 BYTE   As3  v076
 BYTE   N15  Ds4  v100
 BYTE   W16
 BYTE   Fn4  v104
 BYTE   W16
 BYTE   Ds4  v096
 BYTE   W16
// 042   ----------------------------------------
 BYTE   N92  An2  v072
 BYTE   N92  Dn3  v092
 BYTE   N92  An3  v072
 BYTE   N92  Dn4  v092
 BYTE   W96
// 043   ----------------------------------------
 BYTE   An3  v096
 BYTE   N92  Dn4
 BYTE   N92  An4
 BYTE   N92  Dn5
 BYTE   W96
// 044   ----------------------------------------
 BYTE   TIE  Gn2  v080
 BYTE   TIE  Dn3
 BYTE   TIE  Gn3
 BYTE   N32  As3  v068
 BYTE   N32  As4  v072
 BYTE   W36
 BYTE   N05  As3  v076
 BYTE   N05  As4  v072
 BYTE   W06
 BYTE   Cn4  v080
 BYTE   N05  Cn5
 BYTE   W06
 BYTE   N23  Dn4
 BYTE   N23  Dn5  v084
 BYTE   W24
 BYTE   Ds4  v080
 BYTE   N23  Ds5  v088
 BYTE   W24
// 045   ----------------------------------------
 BYTE   N32  Dn4  v076
 BYTE   N32  Dn5
 BYTE   W36
 BYTE   N56  An3  v068
 BYTE   N56  An4  v064
 BYTE   W56
 BYTE   W03
 BYTE   EOT
 BYTE   Gn2  v062
 BYTE   Gn3
 BYTE   W01
// 046   ----------------------------------------
 BYTE   N92  Fn2  v080
 BYTE   N92  Cn3
 BYTE   N92  Fn3
 BYTE   N32  An3
 BYTE   N32  An4  v076
 BYTE   W36
 BYTE   N05  An3  v080
 BYTE   N05  An4
 BYTE   W06
 BYTE   As3
 BYTE   N05  As4
 BYTE   W06
 BYTE   N23  Cn4  v084
 BYTE   N23  Cn5  v088
 BYTE   W24
 BYTE   Dn4  v084
 BYTE   N23  Dn5
 BYTE   W24
// 047   ----------------------------------------
 BYTE   N92  En2  v080
 BYTE   N92  Bn2
 BYTE   N92  En3
 BYTE   N32  Cn4  v076
 BYTE   N32  Cn5  v072
 BYTE   W36
 BYTE   N56  Gn3  v068
 BYTE   N56  Gn4  v064
 BYTE   W60
// 048   ----------------------------------------
 BYTE   N92  Ds2  v052
 BYTE   N92  As2
 BYTE   N92  Ds3
 BYTE   N32  Gn3  v080
 BYTE   W36
 BYTE   N05
 BYTE   W06
 BYTE   An3
 BYTE   W06
 BYTE   N32  As3
 BYTE   W36
 BYTE   N05  As3  v076
 BYTE   W06
 BYTE   Cn4  v080
 BYTE   W06
// 049   ----------------------------------------
 BYTE   N92  Dn2  v052
 BYTE   N92  An2
 BYTE   N92  Dn3
 BYTE   N11  Dn4  v088
 BYTE   W12
 BYTE   Cn4  v068
 BYTE   W12
 BYTE   Dn4  v080
 BYTE   W12
 BYTE   Cn4  v076
 BYTE   W12
 BYTE   Gn3  v068
 BYTE   W12
 BYTE   N23  Gn4  v096
 BYTE   W24
 BYTE   N05  Fs4  v084
 BYTE   W06
 BYTE   Dn4  v068
 BYTE   W06
// 050   ----------------------------------------
 BYTE   N92  Cs2  v052
 BYTE   N92  Gs2
 BYTE   N92  Cs3
 BYTE   N32  Cs4  v076
 BYTE   W36
 BYTE   En4  v100
 BYTE   N32  Cs5
 BYTE   W36
 BYTE   N23  Cs4  v056
 BYTE   W24
// 051   ----------------------------------------
 BYTE   N92  Cn2  v052
 BYTE   N92  Gn2
 BYTE   N92  Cn3
 BYTE   N32  Cn4  v072
 BYTE   W36
 BYTE   N56  Ds4  v096
 BYTE   N56  Cn5
 BYTE   W60
// 052   ----------------------------------------
 BYTE   N92  Gn2  v052
 BYTE   N92  Dn3
 BYTE   N92  Gn3
 BYTE   W96
// 053   ----------------------------------------
 BYTE   Fn2
 BYTE   N92  Cn3
 BYTE   N92  Fn3
 BYTE   W96
// 054   ----------------------------------------
 BYTE   Ds2
 BYTE   N92  As2
 BYTE   N92  Ds3
 BYTE   W96
// 055   ----------------------------------------
 BYTE   N44  Dn2
 BYTE   N44  An2
 BYTE   N44  Dn3
 BYTE   W48
 BYTE   Bn1
 BYTE   N44  Fs2
 BYTE   N44  Bn2
 BYTE   W48
// 056   ----------------------------------------
 BYTE   N92  Cn2
 BYTE   N92  Gn2
 BYTE   N92  Cn3
 BYTE   N32  Gn3
 BYTE   W36
 BYTE   N05  Gn3  v076
 BYTE   W06
 BYTE   An3  v084
 BYTE   W06
 BYTE   N32  As3  v080
 BYTE   W36
 BYTE   N05
 BYTE   W06
 BYTE   Cn4  v076
 BYTE   W06
// 057   ----------------------------------------
 BYTE   N92  As1  v052
 BYTE   N92  Fn2
 BYTE   N92  As2
 BYTE   N11  Dn4  v080
 BYTE   W12
 BYTE   Cn4  v072
 BYTE   W12
 BYTE   As3
 BYTE   W12
 BYTE   Cn4  v080
 BYTE   W12
 BYTE   Gn3  v068
 BYTE   W12
 BYTE   N23  Gn4  v096
 BYTE   W24
 BYTE   N05  Fs4  v076
 BYTE   W06
 BYTE   Dn4  v068
 BYTE   W06
// 058   ----------------------------------------
 BYTE   N92  An1  v052
 BYTE   N92  Ds2
 BYTE   N92  An2
 BYTE   N32  Cs3  v068
 BYTE   W36
 BYTE   Cs4  v092
 BYTE   W36
 BYTE   N23  En4  v084
 BYTE   W24
// 059   ----------------------------------------
 BYTE   TIE  Dn2  v052
 BYTE   TIE  An2
 BYTE   TIE  Dn3
 BYTE   N92  Gn4  v092
 BYTE   W96
// 060   ----------------------------------------
 BYTE   Fs4  v076
 BYTE   W92
 BYTE   W03
 BYTE   EOT
 BYTE   Dn2  v057
 BYTE   Dn3
 BYTE   W01
// 061   ----------------------------------------
 BYTE   TIE  Ds1  v052
 BYTE   TIE  Gn4  v084
 BYTE   W96
// 062   ----------------------------------------
 BYTE   W92
 BYTE   W03
 BYTE   EOT
 BYTE   Ds1  v079
 BYTE   W01
// 063   ----------------------------------------
 BYTE   TIE  Fn1  v064
 BYTE   W96
// 064   ----------------------------------------
 BYTE   W48
 BYTE   N11  An3  v080
 BYTE   W12
 BYTE   Gn3
 BYTE   W12
 BYTE   Fn3  v084
 BYTE   W12
 BYTE   Cn3  v080
 BYTE   W11
 BYTE   EOT
 BYTE   Fn1
 BYTE   W01
// 065   ----------------------------------------
 BYTE   TIE  Gn1  v064
 BYTE   TIE  An2
 BYTE   W96
// 066   ----------------------------------------
 BYTE   W92
 BYTE   W03
 BYTE   EOT
 BYTE   Gn1  v057
 BYTE   W01
// 067   ----------------------------------------
 BYTE   TIE  Dn1
 BYTE   W96
// 068   ----------------------------------------
 BYTE   W92
 BYTE   W03
 BYTE   EOT
 BYTE   W01
// 069   ----------------------------------------
 BYTE   TIE  Ds1
 BYTE   TIE  Dn5
 BYTE   TIE  Ds5
 BYTE   TIE  An5
 BYTE   W96
// 070   ----------------------------------------
 BYTE   W92
 BYTE   W03
 BYTE   EOT
 BYTE   Ds1  v086
 BYTE   Ds5  v093
 BYTE   W01
// 071   ----------------------------------------
 BYTE   TIE  Dn1
 BYTE   TIE  Cn5
 BYTE   TIE  Dn5
 BYTE   TIE  Gn5
 BYTE   W96
// 072   ----------------------------------------
 BYTE   W92
 BYTE   W03
 BYTE   EOT
 BYTE   Dn1  v084
 BYTE   Dn5  v091
 BYTE   W01
// 073   ----------------------------------------
 BYTE   TIE  Gn1
 BYTE   W96
// 074   ----------------------------------------
 BYTE   W92
 BYTE   W03
 BYTE   EOT
 BYTE   W01
// 075   ----------------------------------------
 BYTE   TIE  Fn1
 BYTE   TIE  Cn4
 BYTE   TIE  Fn4
 BYTE   TIE  An4
 BYTE   W96
// 076   ----------------------------------------
 BYTE   W92
 BYTE   W03
 BYTE   EOT
 BYTE   Fn1  v072
 BYTE   Fn4  v081
 BYTE   W01
// 077   ----------------------------------------
 BYTE   N32  Ds2  v052
 BYTE   W48
 BYTE   GoTo
  POIN2 Label_9_0155894D
 BYTE   FINE

//**************** Track 11 (Midi-Chn.10) ****************//

KirbyTripleDeluxeMoonstruckBlossomRandomWizard_011:
// 000   ----------------------------------------
 BYTE   KEYSH   KirbyTripleDeluxeMoonstruckBlossomRandomWizard_key+0
 BYTE   VOICE   80
 BYTE   VOL   29*KirbyTripleDeluxeMoonstruckBlossomRandomWizard_mvl/mxv
 BYTE   PAN   c_v+0
 BYTE   W96
// 001   ----------------------------------------
 BYTE   W96
// 002   ----------------------------------------
 BYTE   W48
Label_10_01558C3B:
 BYTE   N02  Gn1  v052
 BYTE   W06
 BYTE   N02
 BYTE   W06
 BYTE   N02
 BYTE   W06
 BYTE   N02
 BYTE   W06
 BYTE   N02
 BYTE   W06
 BYTE   N02
 BYTE   W06
 BYTE   N02
 BYTE   W06
 BYTE   N02
 BYTE   W06
// 003   ----------------------------------------
 BYTE   N02
 BYTE   W06
 BYTE   N02
 BYTE   W06
 BYTE   N02
 BYTE   W06
 BYTE   N02
 BYTE   W06
 BYTE   N02
 BYTE   W06
 BYTE   N02
 BYTE   W06
 BYTE   N02
 BYTE   W06
 BYTE   N02
 BYTE   W06
 BYTE   PEND 
 BYTE   PATT
  POIN2 Label_10_01558C3B
 BYTE   PATT
  POIN2 Label_10_01558C3B
 BYTE   PATT
  POIN2 Label_10_01558C3B
 BYTE   PATT
  POIN2 Label_10_01558C3B
 BYTE   PATT
  POIN2 Label_10_01558C3B
// 004   ----------------------------------------
Label_10_01558C77:
 BYTE   N02  Fn1  v052
 BYTE   W06
 BYTE   N02
 BYTE   W06
 BYTE   N02
 BYTE   W06
 BYTE   N02
 BYTE   W06
 BYTE   N02
 BYTE   W06
 BYTE   N02
 BYTE   W06
 BYTE   N02
 BYTE   W06
 BYTE   N02
 BYTE   W06
 BYTE   N02
 BYTE   W06
 BYTE   N02
 BYTE   W06
 BYTE   N02
 BYTE   W06
 BYTE   N02
 BYTE   W06
 BYTE   N02
 BYTE   W06
 BYTE   N02
 BYTE   W06
 BYTE   N02
 BYTE   W06
 BYTE   N02
 BYTE   W06
 BYTE   PEND 
 BYTE   PATT
  POIN2 Label_10_01558C77
// 005   ----------------------------------------
 BYTE   W48
Label_10_01558CA0:
 BYTE   W48
// 006   ----------------------------------------
 BYTE   W96
// 007   ----------------------------------------
 BYTE   W96
// 008   ----------------------------------------
 BYTE   W96
// 009   ----------------------------------------
 BYTE   W96
// 010   ----------------------------------------
 BYTE   W96
// 011   ----------------------------------------
 BYTE   W96
// 012   ----------------------------------------
 BYTE   W96
// 013   ----------------------------------------
 BYTE   W96
// 014   ----------------------------------------
 BYTE   W96
// 015   ----------------------------------------
 BYTE   W96
// 016   ----------------------------------------
 BYTE   W96
// 017   ----------------------------------------
 BYTE   W96
// 018   ----------------------------------------
 BYTE   W96
// 019   ----------------------------------------
 BYTE   W96
// 020   ----------------------------------------
 BYTE   W96
// 021   ----------------------------------------
 BYTE   W96
// 022   ----------------------------------------
 BYTE   W96
// 023   ----------------------------------------
 BYTE   N02  Gn1  v096
 BYTE   N05  Gn3  v036
 BYTE   W06
 BYTE   N02  Gn1  v096
 BYTE   N05  Gn3  v040
 BYTE   W06
 BYTE   Gn1  v096
 BYTE   N05  Dn4  v048
 BYTE   W06
 BYTE   N11  Gn3  v036
 BYTE   W06
 BYTE   N02  Gn1  v096
 BYTE   W06
 BYTE   N02
 BYTE   N05  Gn3  v040
 BYTE   W06
 BYTE   Gn1  v096
 BYTE   N05  Dn4  v048
 BYTE   W06
 BYTE   N11  Gn3  v036
 BYTE   W06
 BYTE   N02  Gn1  v096
 BYTE   W06
 BYTE   N02
 BYTE   N05  Gn3  v044
 BYTE   W06
 BYTE   Gn1  v096
 BYTE   N05  Dn4  v048
 BYTE   W06
 BYTE   N11  Gn3  v036
 BYTE   W06
 BYTE   N02  Gn1  v096
 BYTE   W06
 BYTE   N02
 BYTE   N05  Gn3  v036
 BYTE   W06
 BYTE   Gn1  v096
 BYTE   N05  Dn4  v044
 BYTE   W06
 BYTE   N11  Gn3  v040
 BYTE   W06
// 024   ----------------------------------------
 BYTE   N02  Gn1  v096
 BYTE   W06
 BYTE   N02
 BYTE   N05  Gn3  v044
 BYTE   W06
 BYTE   Gn1  v096
 BYTE   N05  Dn4  v044
 BYTE   W06
 BYTE   N11  Gn3  v032
 BYTE   W06
 BYTE   N02  Gn1  v096
 BYTE   W06
 BYTE   N02
 BYTE   N05  Gn3  v044
 BYTE   W06
 BYTE   Gn1  v096
 BYTE   N05  Dn4  v048
 BYTE   W06
 BYTE   N11  Gn3  v032
 BYTE   W06
 BYTE   N02  Gn1  v096
 BYTE   W06
 BYTE   N02
 BYTE   N05  Gn3  v044
 BYTE   W06
 BYTE   Gn1  v096
 BYTE   N05  Dn4  v048
 BYTE   W06
 BYTE   N11  Gn3  v036
 BYTE   W06
 BYTE   N02  Gn1  v096
 BYTE   W06
 BYTE   N02
 BYTE   N05  Gn3  v040
 BYTE   W06
 BYTE   Gn1  v096
 BYTE   N05  Dn4  v044
 BYTE   W06
 BYTE   N11  Gn3  v032
 BYTE   W06
// 025   ----------------------------------------
 BYTE   N02  Gn1  v096
 BYTE   W06
 BYTE   N02
 BYTE   N05  Gn3  v040
 BYTE   W06
 BYTE   Gn1  v096
 BYTE   N05  Dn4  v052
 BYTE   W06
 BYTE   N11  Gn3  v036
 BYTE   W06
 BYTE   N02  Gn1  v096
 BYTE   W06
 BYTE   N02
 BYTE   N05  Gn3  v040
 BYTE   W06
 BYTE   Gn1  v096
 BYTE   N05  Dn4  v044
 BYTE   W06
 BYTE   N11  Gn3  v032
 BYTE   W06
 BYTE   N02  Gn1  v096
 BYTE   W06
 BYTE   N02
 BYTE   N05  Gn3  v040
 BYTE   W06
 BYTE   Gn1  v096
 BYTE   N05  Dn4  v048
 BYTE   W06
 BYTE   N11  Gn3  v032
 BYTE   W06
 BYTE   N02  Gn1  v096
 BYTE   W06
 BYTE   N02
 BYTE   N05  Gn3  v044
 BYTE   W06
 BYTE   Gn1  v096
 BYTE   N05  Dn4  v052
 BYTE   W06
 BYTE   Gn3  v036
 BYTE   W06
// 026   ----------------------------------------
 BYTE   N02  Gn1  v096
 BYTE   N05  An3  v040
 BYTE   W06
 BYTE   N02  Gn1  v096
 BYTE   N05  An3  v036
 BYTE   W06
 BYTE   Gn1  v096
 BYTE   N05  Cn4  v040
 BYTE   W06
 BYTE   An3  v044
 BYTE   W06
 BYTE   N02  Gn1  v096
 BYTE   N05  An3  v040
 BYTE   W06
 BYTE   N02  Gn1  v096
 BYTE   N05  An3  v040
 BYTE   W06
 BYTE   Gn1  v096
 BYTE   N05  Cn4  v044
 BYTE   W06
 BYTE   An3  v040
 BYTE   W06
 BYTE   N02  Gn1  v096
 BYTE   N05  An3  v040
 BYTE   W06
 BYTE   N02  Gn1  v096
 BYTE   N05  An3  v044
 BYTE   W06
 BYTE   Gn1  v096
 BYTE   N05  Cn4  v044
 BYTE   W06
 BYTE   An3  v036
 BYTE   W06
 BYTE   N02  Gn1  v096
 BYTE   N05  An3  v036
 BYTE   W06
 BYTE   N02  Gn1  v096
 BYTE   N05  An3  v044
 BYTE   W06
 BYTE   Gn1  v096
 BYTE   N05  Cn4  v044
 BYTE   W06
 BYTE   An3  v040
 BYTE   W06
// 027   ----------------------------------------
 BYTE   Ds2  v096
 BYTE   W06
 BYTE   N05
 BYTE   W06
 BYTE   N05
 BYTE   W06
 BYTE   N05
 BYTE   W06
 BYTE   N05
 BYTE   W06
 BYTE   N05
 BYTE   W06
 BYTE   N05
 BYTE   W06
 BYTE   N05
 BYTE   W06
 BYTE   N05
 BYTE   W06
 BYTE   N05
 BYTE   W06
 BYTE   N05
 BYTE   W06
 BYTE   N05
 BYTE   W06
 BYTE   N05
 BYTE   W06
 BYTE   N05
 BYTE   W06
 BYTE   N05
 BYTE   W06
 BYTE   N05
 BYTE   W06
// 028   ----------------------------------------
 BYTE   Dn2
 BYTE   W06
 BYTE   N05
 BYTE   W06
 BYTE   N05
 BYTE   W06
 BYTE   N05
 BYTE   W06
 BYTE   N05
 BYTE   W06
 BYTE   N05
 BYTE   W06
 BYTE   N05
 BYTE   W06
 BYTE   N05
 BYTE   W06
 BYTE   N05
 BYTE   W06
 BYTE   N05
 BYTE   W06
 BYTE   N05
 BYTE   W06
 BYTE   N05
 BYTE   W06
 BYTE   N05
 BYTE   W06
 BYTE   N05
 BYTE   W06
 BYTE   N05
 BYTE   W06
 BYTE   N05
 BYTE   W06
// 029   ----------------------------------------
 BYTE   Cn2  v112
 BYTE   N44  As3
 BYTE   N44  Gn4
 BYTE   W06
 BYTE   N05  Cn2
 BYTE   W06
 BYTE   N05
 BYTE   W06
 BYTE   N05
 BYTE   W06
 BYTE   N05
 BYTE   W06
 BYTE   N05
 BYTE   W06
 BYTE   N05
 BYTE   W06
 BYTE   N05
 BYTE   W06
 BYTE   N05
 BYTE   N23  As3
 BYTE   N23  Gn4
 BYTE   W06
 BYTE   N05  Cn2
 BYTE   W06
 BYTE   N05
 BYTE   W06
 BYTE   N05
 BYTE   W06
 BYTE   N05
 BYTE   N23  Dn4
 BYTE   N23  As4
 BYTE   W06
 BYTE   N05  Cn2
 BYTE   W06
 BYTE   N05
 BYTE   W06
 BYTE   N05
 BYTE   W06
// 030   ----------------------------------------
 BYTE   Dn2
 BYTE   N17  Cn4
 BYTE   N17  An4
 BYTE   W06
 BYTE   N05  Dn2
 BYTE   W06
 BYTE   N05
 BYTE   W06
 BYTE   N05
 BYTE   N17  As3
 BYTE   N17  Gn4
 BYTE   W06
 BYTE   N05  Dn2
 BYTE   W06
 BYTE   N05
 BYTE   W06
 BYTE   N05
 BYTE   N56  An3
 BYTE   N56  Cn4
 BYTE   N56  Fn4
 BYTE   W06
 BYTE   N05  Dn2
 BYTE   W06
 BYTE   N05
 BYTE   W06
 BYTE   N05
 BYTE   W06
 BYTE   N05
 BYTE   W06
 BYTE   N05
 BYTE   W06
 BYTE   N05
 BYTE   W06
 BYTE   N05
 BYTE   W06
 BYTE   N05
 BYTE   W06
 BYTE   N05
 BYTE   W06
// 031   ----------------------------------------
 BYTE   Gn2  v064
 BYTE   N05  Gn3  v040
 BYTE   W06
 BYTE   Gn2  v064
 BYTE   N05  Gn3  v036
 BYTE   W06
 BYTE   Gn2  v064
 BYTE   N05  Dn4  v048
 BYTE   W06
 BYTE   Gn2  v064
 BYTE   N11  Gn3  v032
 BYTE   W06
 BYTE   N05  Gn2  v064
 BYTE   W06
 BYTE   N05
 BYTE   N05  Gn3  v040
 BYTE   W06
 BYTE   Gn2  v064
 BYTE   N05  Dn4  v052
 BYTE   W06
 BYTE   Gn2  v064
 BYTE   N11  Gn3  v032
 BYTE   W06
 BYTE   N05  Gn2  v064
 BYTE   W06
 BYTE   N05
 BYTE   N05  Gn3  v036
 BYTE   W06
 BYTE   Gn2  v064
 BYTE   N05  Dn4  v048
 BYTE   W06
 BYTE   Gn2  v064
 BYTE   N11  Gn3  v032
 BYTE   W06
 BYTE   N05  Gn2  v064
 BYTE   W06
 BYTE   N05
 BYTE   N05  Gn3  v048
 BYTE   W06
 BYTE   Gn2  v064
 BYTE   N05  Dn4  v048
 BYTE   W06
 BYTE   Gn2  v064
 BYTE   N11  Gn3  v040
 BYTE   W06
// 032   ----------------------------------------
 BYTE   N05  Gn2  v064
 BYTE   W06
 BYTE   N05
 BYTE   N05  Gn3  v044
 BYTE   W06
 BYTE   Gn2  v064
 BYTE   N05  Dn4  v044
 BYTE   W06
 BYTE   Gn2  v064
 BYTE   N11  Gn3  v036
 BYTE   W06
 BYTE   N05  Gn2  v064
 BYTE   W06
 BYTE   N05
 BYTE   N05  Gn3  v040
 BYTE   W06
 BYTE   Gn2  v064
 BYTE   N05  Dn4  v048
 BYTE   W06
 BYTE   Gn2  v064
 BYTE   N11  Gn3  v036
 BYTE   W06
 BYTE   N05  Gn2  v064
 BYTE   W06
 BYTE   N05
 BYTE   N05  Gn3  v040
 BYTE   W06
 BYTE   Gn2  v064
 BYTE   N05  Dn4  v048
 BYTE   W06
 BYTE   Gn2  v064
 BYTE   N11  Gn3  v032
 BYTE   W06
 BYTE   N05  Gn2  v064
 BYTE   W06
 BYTE   N05
 BYTE   N05  Gn3  v040
 BYTE   W06
 BYTE   Gn2  v064
 BYTE   N05  Dn4  v048
 BYTE   W06
 BYTE   Gn2  v064
 BYTE   N05  Gn3  v032
 BYTE   W06
// 033   ----------------------------------------
 BYTE   Gn2  v064
 BYTE   N05  Gn4  v044
 BYTE   W06
 BYTE   Gn2  v064
 BYTE   N05  Gn4  v040
 BYTE   W06
 BYTE   Gn2  v064
 BYTE   N05  Gn4  v044
 BYTE   W06
 BYTE   Gn2  v064
 BYTE   N11  Gn3  v028
 BYTE   W06
 BYTE   N05  Gn2  v064
 BYTE   W06
 BYTE   N05
 BYTE   N05  Gn3  v040
 BYTE   W06
 BYTE   Gn2  v064
 BYTE   N05  Gn4  v052
 BYTE   W06
 BYTE   Gn2  v064
 BYTE   N11  Gn4  v040
 BYTE   W06
 BYTE   N05  Gn2  v064
 BYTE   W06
 BYTE   N05
 BYTE   N05  Gn4  v040
 BYTE   W06
 BYTE   Gn2  v064
 BYTE   N05  Gn3  v032
 BYTE   W06
 BYTE   Gn2  v064
 BYTE   N11  Gn3  v036
 BYTE   W06
 BYTE   N05  Gn2  v064
 BYTE   W06
 BYTE   N05
 BYTE   N05  Gn4  v052
 BYTE   W06
 BYTE   Gn2  v064
 BYTE   N05  Gn4  v044
 BYTE   W06
 BYTE   Gn2  v064
 BYTE   N05  Gn3  v032
 BYTE   W06
// 034   ----------------------------------------
 BYTE   Gn2  v064
 BYTE   N05  Gn5  v048
 BYTE   W06
 BYTE   Gn2  v064
 BYTE   N11  Gn5  v040
 BYTE   W06
 BYTE   N05  Gn2  v064
 BYTE   W06
 BYTE   N05
 BYTE   N11  Gn5  v040
 BYTE   W06
 BYTE   N05  Gn2  v064
 BYTE   W06
 BYTE   N05
 BYTE   N05  Gn5  v040
 BYTE   W06
 BYTE   Gn2  v064
 BYTE   N05  Gn5  v040
 BYTE   W06
 BYTE   Gn2  v064
 BYTE   N05  Gn5  v040
 BYTE   W06
 BYTE   Gn2  v064
 BYTE   N05  Gn5  v040
 BYTE   W06
 BYTE   Gn2  v064
 BYTE   N11  Gn5  v040
 BYTE   W06
 BYTE   N05  Gn2  v064
 BYTE   W06
 BYTE   N05
 BYTE   N11  Gn5  v040
 BYTE   W06
 BYTE   N05  Gn2  v064
 BYTE   W06
 BYTE   N05
 BYTE   N05  Dn5  v036
 BYTE   W06
 BYTE   Gn2  v064
 BYTE   N05  Ds5  v044
 BYTE   W06
 BYTE   Gn2  v064
 BYTE   N05  Fn5  v044
 BYTE   W06
// 035   ----------------------------------------
 BYTE   Ds4  v028
 BYTE   W06
 BYTE   N11  Ds4  v040
 BYTE   W12
 BYTE   Gn3  v036
 BYTE   W12
 BYTE   N05  Gn3  v040
 BYTE   W06
 BYTE   Ds4  v044
 BYTE   W06
 BYTE   N11  Ds4  v040
 BYTE   W12
 BYTE   Gn3  v036
 BYTE   W12
 BYTE   Gn3  v044
 BYTE   W12
 BYTE   N11
 BYTE   W12
 BYTE   N05
 BYTE   W06
// 036   ----------------------------------------
 BYTE   Dn4  v048
 BYTE   W06
 BYTE   N11  Dn4  v040
 BYTE   W12
 BYTE   Fn3  v036
 BYTE   W12
 BYTE   N05
 BYTE   W06
 BYTE   Dn4  v052
 BYTE   W06
 BYTE   N11  Dn4  v044
 BYTE   W12
 BYTE   Fn3  v036
 BYTE   W12
 BYTE   N05  Dn4  v048
 BYTE   W06
 BYTE   Fn3  v036
 BYTE   W06
 BYTE   Dn4  v052
 BYTE   W06
 BYTE   Dn4  v040
 BYTE   W06
 BYTE   Fn3  v032
 BYTE   W06
// 037   ----------------------------------------
 BYTE   N44  Cn4  v072
 BYTE   N44  Fn4  v124
 BYTE   W48
 BYTE   As3  v076
 BYTE   N15  Ds4  v100
 BYTE   W16
 BYTE   Fn4  v104
 BYTE   W16
 BYTE   Ds4  v096
 BYTE   W16
// 038   ----------------------------------------
 BYTE   TIE  An3  v072
 BYTE   TIE  Dn4  v092
 BYTE   W96
// 039   ----------------------------------------
 BYTE   W92
 BYTE   W03
 BYTE   EOT
 BYTE   An3  v074
 BYTE   W01
// 040   ----------------------------------------
Label_10_01559053:
 BYTE   N17  Gn1  v064
 BYTE   N23  Gn3
 BYTE   W18
 BYTE   N05  Gn1
 BYTE   W06
 BYTE   N11
 BYTE   N11  Gn4
 BYTE   W12
 BYTE   Gn1
 BYTE   N23  Gn3
 BYTE   W24
 BYTE   N11  Gn4
 BYTE   W36
 BYTE   PEND 
 BYTE   PATT
  POIN2 Label_10_01559053
// 041   ----------------------------------------
 BYTE   N17  Fn1  v064
 BYTE   N23  Fn3
 BYTE   W18
 BYTE   N05  Fn1
 BYTE   W06
 BYTE   N11
 BYTE   N11  Fn4
 BYTE   W12
 BYTE   Fn1
 BYTE   N23  Fn3
 BYTE   W24
 BYTE   N11  Fn4
 BYTE   W36
// 042   ----------------------------------------
 BYTE   N17  En1
 BYTE   N23  En3
 BYTE   W18
 BYTE   N05  En1
 BYTE   W06
 BYTE   N11
 BYTE   N11  En4
 BYTE   W12
 BYTE   En1
 BYTE   N23  En3
 BYTE   W24
 BYTE   N11  En4
 BYTE   W36
// 043   ----------------------------------------
 BYTE   N23  Ds3
 BYTE   W24
 BYTE   N11  Ds4
 BYTE   W12
 BYTE   N23  Ds3
 BYTE   W24
 BYTE   N11  Ds4
 BYTE   W36
// 044   ----------------------------------------
Label_10_015590A0:
 BYTE   N23  Dn3  v064
 BYTE   W24
 BYTE   N11  Dn4
 BYTE   W12
 BYTE   N23  Dn3
 BYTE   W24
 BYTE   N11  Dn4
 BYTE   W36
 BYTE   PEND 
// 045   ----------------------------------------
 BYTE   N23  An3
 BYTE   W24
 BYTE   N11  An4
 BYTE   W12
 BYTE   N23  An3
 BYTE   W24
 BYTE   N11  An4
 BYTE   W36
 BYTE   PATT
  POIN2 Label_10_015590A0
// 046   ----------------------------------------
 BYTE   N05  Gn1  v064
 BYTE   W06
 BYTE   N17
 BYTE   W18
 BYTE   N17
 BYTE   W18
 BYTE   N05
 BYTE   W54
// 047   ----------------------------------------
 BYTE   Fn1
 BYTE   W06
 BYTE   N17
 BYTE   W18
 BYTE   N17
 BYTE   W18
 BYTE   N05
 BYTE   W54
// 048   ----------------------------------------
 BYTE   Ds1
 BYTE   W06
 BYTE   N17
 BYTE   W18
 BYTE   N17
 BYTE   W18
 BYTE   N05
 BYTE   W54
// 049   ----------------------------------------
 BYTE   Dn1
 BYTE   W06
 BYTE   N17
 BYTE   W18
 BYTE   N17
 BYTE   W18
 BYTE   N05
 BYTE   W54
// 050   ----------------------------------------
 BYTE   Cn2
 BYTE   W06
 BYTE   N17
 BYTE   W18
 BYTE   N17
 BYTE   W18
 BYTE   N05
 BYTE   W54
// 051   ----------------------------------------
 BYTE   As1
 BYTE   W06
 BYTE   N17
 BYTE   W18
 BYTE   N17
 BYTE   W18
 BYTE   N05
 BYTE   W54
// 052   ----------------------------------------
 BYTE   An1
 BYTE   W06
 BYTE   N17
 BYTE   W18
 BYTE   N17
 BYTE   W18
 BYTE   N05
 BYTE   W54
// 053   ----------------------------------------
 BYTE   N11  Dn1
 BYTE   W12
 BYTE   N05  An1
 BYTE   W06
 BYTE   N11
 BYTE   W12
 BYTE   N05  Dn1
 BYTE   W06
 BYTE   N05
 BYTE   W06
 BYTE   N05
 BYTE   W06
 BYTE   N05
 BYTE   W06
 BYTE   N05
 BYTE   W06
 BYTE   N05
 BYTE   W06
 BYTE   N05
 BYTE   W06
 BYTE   N05
 BYTE   W06
 BYTE   N05
 BYTE   W06
 BYTE   N05
 BYTE   W06
 BYTE   N05
 BYTE   W06
// 054   ----------------------------------------
 BYTE   N11
 BYTE   W12
 BYTE   N05  An1
 BYTE   W06
 BYTE   N11
 BYTE   W12
 BYTE   N05  Dn1
 BYTE   W06
 BYTE   N05
 BYTE   W06
 BYTE   N05
 BYTE   W06
 BYTE   N05
 BYTE   W06
 BYTE   N05
 BYTE   W06
 BYTE   N05
 BYTE   W06
 BYTE   N05
 BYTE   W06
 BYTE   N05
 BYTE   W06
 BYTE   N05
 BYTE   W06
 BYTE   Cn1
 BYTE   W06
 BYTE   As0
 BYTE   W06
// 055   ----------------------------------------
 BYTE   W96
// 056   ----------------------------------------
 BYTE   W96
// 057   ----------------------------------------
 BYTE   W96
// 058   ----------------------------------------
 BYTE   W96
// 059   ----------------------------------------
 BYTE   W96
// 060   ----------------------------------------
 BYTE   W96
// 061   ----------------------------------------
 BYTE   W96
// 062   ----------------------------------------
 BYTE   W96
// 063   ----------------------------------------
Label_10_0155913E:
 BYTE   N02  Ds1  v064
 BYTE   W06
 BYTE   N02
 BYTE   W06
 BYTE   N02
 BYTE   W06
 BYTE   N02
 BYTE   W06
 BYTE   N02
 BYTE   W06
 BYTE   N02
 BYTE   W06
 BYTE   N02
 BYTE   W06
 BYTE   N02
 BYTE   W06
 BYTE   N02
 BYTE   W06
 BYTE   N02
 BYTE   W06
 BYTE   N02
 BYTE   W06
 BYTE   N02
 BYTE   W06
 BYTE   N02
 BYTE   W06
 BYTE   N02
 BYTE   W06
 BYTE   N02
 BYTE   W06
 BYTE   N02
 BYTE   W06
 BYTE   PEND 
 BYTE   PATT
  POIN2 Label_10_0155913E
// 064   ----------------------------------------
Label_10_01559166:
 BYTE   N02  Dn1  v064
 BYTE   W06
 BYTE   N02
 BYTE   W06
 BYTE   N02
 BYTE   W06
 BYTE   N02
 BYTE   W06
 BYTE   N02
 BYTE   W06
 BYTE   N02
 BYTE   W06
 BYTE   N02
 BYTE   W06
 BYTE   N02
 BYTE   W06
 BYTE   N02
 BYTE   W06
 BYTE   N02
 BYTE   W06
 BYTE   N02
 BYTE   W06
 BYTE   N02
 BYTE   W06
 BYTE   N02
 BYTE   W06
 BYTE   N02
 BYTE   W06
 BYTE   N02
 BYTE   W06
 BYTE   N02
 BYTE   W06
 BYTE   PEND 
 BYTE   PATT
  POIN2 Label_10_01559166
// 065   ----------------------------------------
Label_10_0155918E:
 BYTE   N02  Gn1  v064
 BYTE   W06
 BYTE   N02
 BYTE   W06
 BYTE   N02
 BYTE   W06
 BYTE   N02
 BYTE   W06
 BYTE   N02
 BYTE   W06
 BYTE   N02
 BYTE   W06
 BYTE   N02
 BYTE   W06
 BYTE   N02
 BYTE   W06
 BYTE   N02
 BYTE   W06
 BYTE   N02
 BYTE   W06
 BYTE   N02
 BYTE   W06
 BYTE   N02
 BYTE   W06
 BYTE   N02
 BYTE   W06
 BYTE   N02
 BYTE   W06
 BYTE   N02
 BYTE   W06
 BYTE   N02
 BYTE   W06
 BYTE   PEND 
 BYTE   PATT
  POIN2 Label_10_0155918E
// 066   ----------------------------------------
Label_10_015591B6:
 BYTE   N02  Fn1  v064
 BYTE   W06
 BYTE   N02
 BYTE   W06
 BYTE   N02
 BYTE   W06
 BYTE   N02
 BYTE   W06
 BYTE   N02
 BYTE   W06
 BYTE   N02
 BYTE   W06
 BYTE   N02
 BYTE   W06
 BYTE   N02
 BYTE   W06
 BYTE   N02
 BYTE   W06
 BYTE   N02
 BYTE   W06
 BYTE   N02
 BYTE   W06
 BYTE   N02
 BYTE   W06
 BYTE   N02
 BYTE   W06
 BYTE   N02
 BYTE   W06
 BYTE   N02
 BYTE   W06
 BYTE   N02
 BYTE   W06
 BYTE   PEND 
 BYTE   PATT
  POIN2 Label_10_015591B6
// 067   ----------------------------------------
 BYTE   W48
 BYTE   GoTo
  POIN2 Label_10_01558CA0
 BYTE   FINE

//**************** Track 12 (Midi-Chn.11) ****************//

KirbyTripleDeluxeMoonstruckBlossomRandomWizard_012:
// 000   ----------------------------------------
 BYTE   KEYSH   KirbyTripleDeluxeMoonstruckBlossomRandomWizard_key+0
 BYTE   VOICE   56
 BYTE   VOL   29*KirbyTripleDeluxeMoonstruckBlossomRandomWizard_mvl/mxv
 BYTE   PAN   c_v+0
 BYTE   W96
// 001   ----------------------------------------
 BYTE   W96
// 002   ----------------------------------------
 BYTE   W48
 BYTE   W96
// 003   ----------------------------------------
 BYTE   W96
// 004   ----------------------------------------
 BYTE   W96
// 005   ----------------------------------------
 BYTE   W96
// 006   ----------------------------------------
 BYTE   W96
// 007   ----------------------------------------
 BYTE   W96
// 008   ----------------------------------------
 BYTE   W96
// 009   ----------------------------------------
 BYTE   W96
// 010   ----------------------------------------
 BYTE   W48
Label_11_015591FC:
 BYTE   W48
// 011   ----------------------------------------
 BYTE   W96
// 012   ----------------------------------------
 BYTE   W96
// 013   ----------------------------------------
 BYTE   W96
// 014   ----------------------------------------
 BYTE   W96
// 015   ----------------------------------------
 BYTE   W96
// 016   ----------------------------------------
 BYTE   W96
// 017   ----------------------------------------
 BYTE   W96
// 018   ----------------------------------------
 BYTE   W96
// 019   ----------------------------------------
 BYTE   W96
// 020   ----------------------------------------
 BYTE   N11  An2  v112
 BYTE   W12
 BYTE   As2
 BYTE   W24
 BYTE   Gn3
 BYTE   N11  Cn4
 BYTE   W36
 BYTE   An2
 BYTE   W12
 BYTE   As2
 BYTE   W12
// 021   ----------------------------------------
 BYTE   W12
 BYTE   As3
 BYTE   W36
 BYTE   Dn4
 BYTE   W12
 BYTE   Cn4
 BYTE   W12
 BYTE   As3
 BYTE   W12
 BYTE   Cn4
 BYTE   W12
// 022   ----------------------------------------
 BYTE   Dn3
 BYTE   W12
 BYTE   Gn3
 BYTE   W24
 BYTE   Cn4
 BYTE   W36
 BYTE   Dn3
 BYTE   W12
 BYTE   Cn4
 BYTE   W12
// 023   ----------------------------------------
 BYTE   W12
 BYTE   Fn4
 BYTE   W36
 BYTE   N23  Cn5
 BYTE   W24
 BYTE   As4
 BYTE   W24
// 024   ----------------------------------------
 BYTE   N11  An4
 BYTE   W12
 BYTE   N01  Gn4
 BYTE   W01
 BYTE   Fn4
 BYTE   W02
 BYTE   Ds4
 BYTE   W01
 BYTE   Dn4
 BYTE   W02
 BYTE   Cn4
 BYTE   W01
 BYTE   As3
 BYTE   W02
 BYTE   An3
 BYTE   W01
 BYTE   Gn3
 BYTE   W72
 BYTE   W02
// 025   ----------------------------------------
 BYTE   W96
// 026   ----------------------------------------
 BYTE   W96
// 027   ----------------------------------------
 BYTE   W96
// 028   ----------------------------------------
 BYTE   W96
// 029   ----------------------------------------
 BYTE   W96
// 030   ----------------------------------------
 BYTE   N68
 BYTE   W72
 BYTE   N11  Dn3
 BYTE   W12
 BYTE   Fn3
 BYTE   W12
// 031   ----------------------------------------
 BYTE   Cn4
 BYTE   W12
 BYTE   An3
 BYTE   W12
 BYTE   Gn3
 BYTE   W12
 BYTE   N56  Fn3
 BYTE   W60
// 032   ----------------------------------------
 BYTE   N11  Dn4
 BYTE   W12
 BYTE   Ds4
 BYTE   W12
 BYTE   Dn4
 BYTE   W12
 BYTE   Ds4
 BYTE   W12
 BYTE   N23  Fn4
 BYTE   W24
 BYTE   N11  Dn4
 BYTE   W12
 BYTE   As3
 BYTE   W12
// 033   ----------------------------------------
 BYTE   Cn4
 BYTE   W12
 BYTE   Dn4
 BYTE   W12
 BYTE   Cn4
 BYTE   W12
 BYTE   N23  Dn4
 BYTE   W24
 BYTE   N11  Cn4
 BYTE   W12
 BYTE   An3
 BYTE   W12
 BYTE   Fn3
 BYTE   W12
// 034   ----------------------------------------
 BYTE   W96
// 035   ----------------------------------------
 BYTE   W96
// 036   ----------------------------------------
 BYTE   W96
// 037   ----------------------------------------
 BYTE   W96
// 038   ----------------------------------------
 BYTE   W96
// 039   ----------------------------------------
 BYTE   W96
// 040   ----------------------------------------
 BYTE   W96
// 041   ----------------------------------------
 BYTE   W96
// 042   ----------------------------------------
 BYTE   W96
// 043   ----------------------------------------
 BYTE   W96
// 044   ----------------------------------------
 BYTE   W96
// 045   ----------------------------------------
 BYTE   W96
// 046   ----------------------------------------
 BYTE   W96
// 047   ----------------------------------------
 BYTE   W96
// 048   ----------------------------------------
 BYTE   W96
// 049   ----------------------------------------
 BYTE   W96
// 050   ----------------------------------------
 BYTE   W96
// 051   ----------------------------------------
 BYTE   W96
// 052   ----------------------------------------
 BYTE   W96
// 053   ----------------------------------------
 BYTE   W96
// 054   ----------------------------------------
 BYTE   W96
// 055   ----------------------------------------
 BYTE   W96
// 056   ----------------------------------------
 BYTE   W96
// 057   ----------------------------------------
 BYTE   W96
// 058   ----------------------------------------
 BYTE   W96
// 059   ----------------------------------------
 BYTE   W96
// 060   ----------------------------------------
 BYTE   W96
// 061   ----------------------------------------
 BYTE   W96
// 062   ----------------------------------------
 BYTE   W96
// 063   ----------------------------------------
 BYTE   W96
// 064   ----------------------------------------
 BYTE   W96
// 065   ----------------------------------------
 BYTE   W96
// 066   ----------------------------------------
 BYTE   W96
// 067   ----------------------------------------
 BYTE   W96
// 068   ----------------------------------------
 BYTE   W96
// 069   ----------------------------------------
 BYTE   W96
// 070   ----------------------------------------
 BYTE   W96
// 071   ----------------------------------------
 BYTE   W96
// 072   ----------------------------------------
 BYTE   W96
// 073   ----------------------------------------
 BYTE   W96
// 074   ----------------------------------------
 BYTE   W96
// 075   ----------------------------------------
 BYTE   W96
// 076   ----------------------------------------
 BYTE   W96
// 077   ----------------------------------------
 BYTE   W96
// 078   ----------------------------------------
 BYTE   W48
 BYTE   GoTo
  POIN2 Label_11_015591FC
 BYTE   FINE

//******************************************************//
	ALIGN 4

KirbyTripleDeluxeMoonstruckBlossomRandomWizard:
	BYTE	12	// NumTrks
	BYTE	0	// NumBlks
	BYTE	KirbyTripleDeluxeMoonstruckBlossomRandomWizard_pri	// Priority
	BYTE	KirbyTripleDeluxeMoonstruckBlossomRandomWizard_rev	// Reverb.
    
	POIN2	KirbyTripleDeluxeMoonstruckBlossomRandomWizard_grp
    
	POIN2	KirbyTripleDeluxeMoonstruckBlossomRandomWizard_001
	POIN2	KirbyTripleDeluxeMoonstruckBlossomRandomWizard_002
	POIN2	KirbyTripleDeluxeMoonstruckBlossomRandomWizard_003
	POIN2	KirbyTripleDeluxeMoonstruckBlossomRandomWizard_004
	POIN2	KirbyTripleDeluxeMoonstruckBlossomRandomWizard_005
	POIN2	KirbyTripleDeluxeMoonstruckBlossomRandomWizard_006
	POIN2	KirbyTripleDeluxeMoonstruckBlossomRandomWizard_007
	POIN2	KirbyTripleDeluxeMoonstruckBlossomRandomWizard_008
	POIN2	KirbyTripleDeluxeMoonstruckBlossomRandomWizard_009
	POIN2	KirbyTripleDeluxeMoonstruckBlossomRandomWizard_010
	POIN2	KirbyTripleDeluxeMoonstruckBlossomRandomWizard_011
	POIN2	KirbyTripleDeluxeMoonstruckBlossomRandomWizard_012

	
