//Event file generated from Sappy .s format.
	#include "MPlayDef.event"

	#define	DKC2StickerbrushSymphonyRetina_grp  voicegroup000
	#define	DKC2StickerbrushSymphonyRetina_pri  0
	#define	DKC2StickerbrushSymphonyRetina_rev  0
	#define	DKC2StickerbrushSymphonyRetina_mvl  127
	#define	DKC2StickerbrushSymphonyRetina_key  0
	#define	DKC2StickerbrushSymphonyRetina_tbs  1
	#define	DKC2StickerbrushSymphonyRetina_exg  0
	#define	DKC2StickerbrushSymphonyRetina_cmp  1

	// .rodata
	//	DKC2StickerbrushSymphonyRetina
	ALIGN 4


//**************** Track 1 (Midi-Chn.0) ****************//

DKC2StickerbrushSymphonyRetina_001:
// 000   ----------------------------------------
 BYTE   KEYSH   DKC2StickerbrushSymphonyRetina_key+0
 BYTE   TEMPO   96*DKC2StickerbrushSymphonyRetina_tbs/2
 BYTE   VOICE   74
 BYTE   MODT 0
 BYTE   CnM2  v000
 BYTE   LFOS 0
 BYTE   CnM2  v044
 BYTE   VOL   50*DKC2StickerbrushSymphonyRetina_mvl/mxv
 BYTE   PAN   c_v+0
 BYTE   VOL   50*DKC2StickerbrushSymphonyRetina_mvl/mxv
 BYTE   PAN   c_v+0
 BYTE   W96
// 001   ----------------------------------------
 BYTE   W96
// 002   ----------------------------------------
 BYTE   W96
// 003   ----------------------------------------
 BYTE   W96
// 004   ----------------------------------------
 BYTE   W96
// 005   ----------------------------------------
 BYTE   W96
// 006   ----------------------------------------
 BYTE   W96
// 007   ----------------------------------------
 BYTE   W96
// 008   ----------------------------------------
 BYTE   W96
// 009   ----------------------------------------
Label_0_01612417:
 BYTE   W96
// 010   ----------------------------------------
 BYTE   W96
// 011   ----------------------------------------
 BYTE   W96
// 012   ----------------------------------------
 BYTE   W96
// 013   ----------------------------------------
 BYTE   W96
// 014   ----------------------------------------
 BYTE   W96
// 015   ----------------------------------------
 BYTE   W96
// 016   ----------------------------------------
 BYTE   W96
// 017   ----------------------------------------
 BYTE   W84
 BYTE   N06  En4  v104
 BYTE   W01
 BYTE   BEND   c_v-14
 BYTE   W01
 BYTE   BEND   c_v-13
 BYTE   W01
 BYTE   BEND   c_v-12
 BYTE   W01
 BYTE   BEND   c_v-10
 BYTE   W01
 BYTE   BEND   c_v-9
 BYTE   W01
 BYTE   BEND   c_v-8
 BYTE   N06  En4  v028
 BYTE   W01
 BYTE   BEND   c_v-6
 BYTE   W01
 BYTE   BEND   c_v-5
 BYTE   W01
 BYTE   BEND   c_v-4
 BYTE   W01
 BYTE   BEND   c_v-2
 BYTE   W01
 BYTE   BEND   c_v+0
 BYTE   W01
// 018   ----------------------------------------
 BYTE   BEND   c_v-13
 BYTE   N06  Dn4  v104
 BYTE   W01
 BYTE   BEND   c_v-11
 BYTE   W01
 BYTE   BEND   c_v-10
 BYTE   W01
 BYTE   BEND   c_v-8
 BYTE   W01
 BYTE   BEND   c_v-7
 BYTE   W01
 BYTE   BEND   c_v-5
 BYTE   W01
 BYTE   BEND   c_v-4
 BYTE   N78  Dn4  v028
 BYTE   W01
 BYTE   BEND   c_v-2
 BYTE   W01
 BYTE   BEND   c_v+0
 BYTE   W01
 BYTE   BEND   c_v-1
 BYTE   W72
 BYTE   W03
 BYTE   N06  Gn4  v104
 BYTE   W06
 BYTE   Gn4  v028
 BYTE   W06
// 019   ----------------------------------------
 BYTE   BEND   c_v-15
 BYTE   W01
 BYTE   BEND   c_v-14
 BYTE   W01
 BYTE   BEND   c_v-12
 BYTE   W01
 BYTE   BEND   c_v-11
 BYTE   W01
 BYTE   BEND   c_v-10
 BYTE   W01
 BYTE   BEND   c_v-9
 BYTE   W01
 BYTE   BEND   c_v-7
 BYTE   N36
 BYTE   W01
 BYTE   BEND   c_v-6
 BYTE   W01
 BYTE   BEND   c_v-5
 BYTE   W01
 BYTE   BEND   c_v-4
 BYTE   W01
 BYTE   BEND   c_v-3
 BYTE   W01
 BYTE   BEND   c_v-2
 BYTE   W01
 BYTE   BEND   c_v-1
 BYTE   W01
 BYTE   BEND   c_v+1
 BYTE   W32
 BYTE   W03
 BYTE   BEND   c_v-12
 BYTE   W01
 BYTE   BEND   c_v-10
 BYTE   W01
 BYTE   BEND   c_v-8
 BYTE   W01
 BYTE   BEND   c_v-7
 BYTE   W01
 BYTE   BEND   c_v-5
 BYTE   W01
 BYTE   BEND   c_v-3
 BYTE   W01
 BYTE   BEND   c_v-2
 BYTE   N10
 BYTE   W01
 BYTE   BEND   c_v+0
 BYTE   W01
 BYTE   BEND   c_v+2
 BYTE   W08
 BYTE   N06  Fn4  v104
 BYTE   W06
 BYTE   N10  Fn4  v028
 BYTE   W10
 BYTE   N06  En4  v104
 BYTE   W06
 BYTE   N10  En4  v028
 BYTE   W10
// 020   ----------------------------------------
 BYTE   BEND   c_v-12
 BYTE   N06  Dn4  v104
 BYTE   W01
 BYTE   BEND   c_v-11
 BYTE   W01
 BYTE   BEND   c_v-9
 BYTE   W01
 BYTE   BEND   c_v-8
 BYTE   W01
 BYTE   BEND   c_v-7
 BYTE   W01
 BYTE   BEND   c_v-5
 BYTE   W01
 BYTE   BEND   c_v-4
 BYTE   N30  Dn4  v028
 BYTE   W01
 BYTE   BEND   c_v-3
 BYTE   W01
 BYTE   BEND   c_v-1
 BYTE   W01
 BYTE   BEND   c_v+0
 BYTE   W01
 BYTE   BEND   c_v+1
 BYTE   W24
 BYTE   W02
 BYTE   N06  En4  v104
 BYTE   W06
 BYTE   En4  v028
 BYTE   W06
 BYTE   Cn4  v104
 BYTE   N06  Dn4  v028
 BYTE   W06
 BYTE   N10  Cn4
 BYTE   W10
 BYTE   N06  Bn3  v104
 BYTE   W06
 BYTE   N10  Bn3  v028
 BYTE   W10
 BYTE   N06  Cn4  v104
 BYTE   W06
 BYTE   N10  Cn4  v028
 BYTE   W10
// 021   ----------------------------------------
 BYTE   BEND   c_v-16
 BYTE   N06  An4  v104
 BYTE   W01
 BYTE   BEND   c_v-14
 BYTE   W01
 BYTE   BEND   c_v-13
 BYTE   W01
 BYTE   BEND   c_v-12
 BYTE   W01
 BYTE   BEND   c_v-10
 BYTE   W01
 BYTE   BEND   c_v-9
 BYTE   W01
 BYTE   BEND   c_v-8
 BYTE   N48  An4  v028
 BYTE   W01
 BYTE   BEND   c_v-6
 BYTE   W01
 BYTE   BEND   c_v-5
 BYTE   W01
 BYTE   BEND   c_v-4
 BYTE   W01
 BYTE   BEND   c_v-2
 BYTE   W02
 BYTE   BEND   c_v+0
 BYTE   W44
 BYTE   BEND   c_v-13
 BYTE   W01
 BYTE   BEND   c_v-12
 BYTE   W01
 BYTE   BEND   c_v-11
 BYTE   W01
 BYTE   BEND   c_v-10
 BYTE   W01
 BYTE   BEND   c_v-8
 BYTE   W01
 BYTE   BEND   c_v-7
 BYTE   W01
 BYTE   BEND   c_v-6
 BYTE   W01
 BYTE   BEND   c_v-4
 BYTE   W01
 BYTE   BEND   c_v-3
 BYTE   W01
 BYTE   BEND   c_v-1
 BYTE   W01
 BYTE   BEND   c_v+0
 BYTE   N18
 BYTE   W18
 BYTE   N06  En4  v104
 BYTE   W06
 BYTE   En4  v028
 BYTE   W06
// 022   ----------------------------------------
 BYTE   Dn4  v104
 BYTE   W06
 BYTE   N66  Dn4  v028
 BYTE   W66
 BYTE   N06  Gn3  v104
 BYTE   W06
 BYTE   Gn3  v028
 BYTE   W06
 BYTE   Gn4  v104
 BYTE   W06
 BYTE   Gn4  v028
 BYTE   W06
// 023   ----------------------------------------
 BYTE   BEND   c_v-12
 BYTE   W01
 BYTE   BEND   c_v-11
 BYTE   W01
 BYTE   BEND   c_v-10
 BYTE   W01
 BYTE   BEND   c_v-9
 BYTE   W01
 BYTE   BEND   c_v-8
 BYTE   W01
 BYTE   BEND   c_v-7
 BYTE   W01
 BYTE   BEND   c_v-6
 BYTE   N36
 BYTE   W01
 BYTE   BEND   c_v-5
 BYTE   W01
 BYTE   BEND   c_v-4
 BYTE   W01
 BYTE   BEND   c_v-3
 BYTE   W01
 BYTE   BEND   c_v-2
 BYTE   W01
 BYTE   BEND   c_v-1
 BYTE   W01
 BYTE   BEND   c_v+0
 BYTE   W42
 BYTE   N10
 BYTE   W10
 BYTE   N06  An4  v104
 BYTE   W06
 BYTE   N10  An4  v028
 BYTE   W10
 BYTE   N06  Bn4  v104
 BYTE   W06
 BYTE   N10  Bn4  v028
 BYTE   W10
// 024   ----------------------------------------
 BYTE   BEND   c_v-11
 BYTE   N06  Bn4  v104
 BYTE   W01
 BYTE   BEND   c_v-10
 BYTE   W01
 BYTE   BEND   c_v-9
 BYTE   W01
 BYTE   BEND   c_v-8
 BYTE   W01
 BYTE   BEND   c_v-7
 BYTE   W01
 BYTE   BEND   c_v-6
 BYTE   W01
 BYTE   N18  Bn4  v028
 BYTE   W01
 BYTE   BEND   c_v-5
 BYTE   W01
 BYTE   BEND   c_v-4
 BYTE   W01
 BYTE   BEND   c_v-3
 BYTE   W01
 BYTE   BEND   c_v-2
 BYTE   W01
 BYTE   BEND   c_v-1
 BYTE   W13
 BYTE   N06  Cn5  v104
 BYTE   W06
 BYTE   Cn5  v028
 BYTE   W06
 BYTE   Bn4  v104
 BYTE   W06
 BYTE   N18  Bn4  v028
 BYTE   W18
 BYTE   N06  Gn4  v104
 BYTE   W06
 BYTE   N18  Gn4  v028
 BYTE   W18
 BYTE   N06  En4  v104
 BYTE   W06
 BYTE   En4  v028
 BYTE   W06
// 025   ----------------------------------------
 BYTE   BEND   c_v-12
 BYTE   N06  An4  v104
 BYTE   W01
 BYTE   BEND   c_v-11
 BYTE   W01
 BYTE   BEND   c_v-10
 BYTE   W01
 BYTE   BEND   c_v-9
 BYTE   W01
 BYTE   BEND   c_v-8
 BYTE   W01
 BYTE   BEND   c_v-7
 BYTE   W01
 BYTE   BEND   c_v-5
 BYTE   N42  An4  v028
 BYTE   W01
 BYTE   BEND   c_v-4
 BYTE   W01
 BYTE   BEND   c_v-3
 BYTE   W01
 BYTE   BEND   c_v-2
 BYTE   W01
 BYTE   BEND   c_v-1
 BYTE   W02
 BYTE   BEND   c_v+1
 BYTE   W84
// 026   ----------------------------------------
 BYTE   W36
 BYTE   N06  Cn4  v104
 BYTE   W06
 BYTE   Cn4  v028
 BYTE   W06
 BYTE   Bn3  v104
 BYTE   W06
 BYTE   N10  Bn3  v028
 BYTE   W10
 BYTE   N06  Cn4  v104
 BYTE   W06
 BYTE   N10  Cn4  v028
 BYTE   W10
 BYTE   N06  En4  v104
 BYTE   W06
 BYTE   N10  En4  v028
 BYTE   W10
// 027   ----------------------------------------
 BYTE   BEND   c_v-14
 BYTE   N06  An4  v104
 BYTE   W01
 BYTE   BEND   c_v-13
 BYTE   W01
 BYTE   BEND   c_v-12
 BYTE   W01
 BYTE   BEND   c_v-11
 BYTE   W01
 BYTE   BEND   c_v-10
 BYTE   W01
 BYTE   BEND   c_v-9
 BYTE   W01
 BYTE   BEND   c_v-7
 BYTE   N42  An4  v028
 BYTE   W01
 BYTE   BEND   c_v-6
 BYTE   W01
 BYTE   BEND   c_v-5
 BYTE   W01
 BYTE   BEND   c_v-4
 BYTE   W01
 BYTE   BEND   c_v-3
 BYTE   W01
 BYTE   BEND   c_v-2
 BYTE   W01
 BYTE   BEND   c_v+0
 BYTE   W01
 BYTE   BEND   c_v+1
 BYTE   W80
 BYTE   W03
// 028   ----------------------------------------
 BYTE   W96
// 029   ----------------------------------------
 BYTE   W96
// 030   ----------------------------------------
 BYTE   W96
// 031   ----------------------------------------
 BYTE   W96
// 032   ----------------------------------------
 BYTE   W96
// 033   ----------------------------------------
 BYTE   W96
// 034   ----------------------------------------
 BYTE   W96
// 035   ----------------------------------------
 BYTE   W96
// 036   ----------------------------------------
 BYTE   W96
// 037   ----------------------------------------
 BYTE   W96
// 038   ----------------------------------------
 BYTE   W96
// 039   ----------------------------------------
 BYTE   W96
// 040   ----------------------------------------
 BYTE   W96
// 041   ----------------------------------------
 BYTE   W96
// 042   ----------------------------------------
 BYTE   W96
// 043   ----------------------------------------
 BYTE   W96
// 044   ----------------------------------------
 BYTE   W96
// 045   ----------------------------------------
 BYTE   W96
// 046   ----------------------------------------
Label_0_0161261E:
 BYTE   W36
 BYTE   N12  Cn4  v104
 BYTE   W12
 BYTE   N16  Bn3
 BYTE   W16
 BYTE   Cn4
 BYTE   W16
 BYTE   En4
 BYTE   W16
 BYTE   PEND 
// 047   ----------------------------------------
 BYTE   BEND   c_v-15
 BYTE   N48  An4
 BYTE   W01
 BYTE   BEND   c_v-14
 BYTE   W01
 BYTE   BEND   c_v-13
 BYTE   W01
 BYTE   BEND   c_v-12
 BYTE   W01
 BYTE   BEND   c_v-11
 BYTE   W01
 BYTE   BEND   c_v-10
 BYTE   W01
 BYTE   BEND   c_v-9
 BYTE   W01
 BYTE   BEND   c_v-7
 BYTE   W01
 BYTE   BEND   c_v-6
 BYTE   W01
 BYTE   BEND   c_v-5
 BYTE   W01
 BYTE   BEND   c_v-4
 BYTE   W01
 BYTE   BEND   c_v-3
 BYTE   W01
 BYTE   BEND   c_v-2
 BYTE   W01
 BYTE   BEND   c_v-1
 BYTE   W01
 BYTE   BEND   c_v+0
 BYTE   W80
 BYTE   W02
// 048   ----------------------------------------
 BYTE   W96
// 049   ----------------------------------------
 BYTE   W96
// 050   ----------------------------------------
 BYTE   PATT
  POIN2 Label_0_0161261E
// 051   ----------------------------------------
 BYTE   N48  An4  v104
 BYTE   W01
 BYTE   BEND   c_v-13
 BYTE   W01
 BYTE   BEND   c_v-12
 BYTE   W01
 BYTE   BEND   c_v-11
 BYTE   W01
 BYTE   BEND   c_v-9
 BYTE   W01
 BYTE   BEND   c_v-8
 BYTE   W01
 BYTE   BEND   c_v-7
 BYTE   W01
 BYTE   BEND   c_v-6
 BYTE   W01
 BYTE   BEND   c_v-5
 BYTE   W01
 BYTE   BEND   c_v-4
 BYTE   W01
 BYTE   BEND   c_v-2
 BYTE   W02
 BYTE   BEND   c_v-1
 BYTE   W01
 BYTE   BEND   c_v+1
 BYTE   W80
 BYTE   W03
// 052   ----------------------------------------
 BYTE   W96
// 053   ----------------------------------------
 BYTE   W96
// 054   ----------------------------------------
 BYTE   GoTo
  POIN2 Label_0_01612417
 BYTE   FINE

//**************** Track 2 (Midi-Chn.1) ****************//

DKC2StickerbrushSymphonyRetina_002:
// 000   ----------------------------------------
 BYTE   KEYSH   DKC2StickerbrushSymphonyRetina_key+0
 BYTE   VOICE   74
 BYTE   MODT 0
 BYTE   CnM2  v000
 BYTE   LFOS 0
 BYTE   CnM2  v044
 BYTE   VOL   50*DKC2StickerbrushSymphonyRetina_mvl/mxv
 BYTE   PAN   c_v+0
 BYTE   W96
// 001   ----------------------------------------
 BYTE   W96
// 002   ----------------------------------------
 BYTE   W96
// 003   ----------------------------------------
 BYTE   W96
// 004   ----------------------------------------
 BYTE   W96
// 005   ----------------------------------------
 BYTE   W96
// 006   ----------------------------------------
 BYTE   W96
// 007   ----------------------------------------
 BYTE   W96
// 008   ----------------------------------------
 BYTE   W96
// 009   ----------------------------------------
Label_1_0160FBC9:
 BYTE   W96
// 010   ----------------------------------------
 BYTE   W96
// 011   ----------------------------------------
 BYTE   W96
// 012   ----------------------------------------
 BYTE   W96
// 013   ----------------------------------------
 BYTE   W96
// 014   ----------------------------------------
 BYTE   W96
// 015   ----------------------------------------
 BYTE   W96
// 016   ----------------------------------------
 BYTE   W96
// 017   ----------------------------------------
 BYTE   W96
// 018   ----------------------------------------
 BYTE   W96
// 019   ----------------------------------------
 BYTE   W96
// 020   ----------------------------------------
 BYTE   W96
// 021   ----------------------------------------
 BYTE   W96
// 022   ----------------------------------------
 BYTE   W12
 BYTE   N24  An4  v116
 BYTE   W02
 BYTE   BEND   c_v-13
 BYTE   W01
 BYTE   BEND   c_v-12
 BYTE   W01
 BYTE   BEND   c_v-11
 BYTE   W01
 BYTE   BEND   c_v-10
 BYTE   W01
 BYTE   BEND   c_v-9
 BYTE   W01
 BYTE   BEND   c_v-8
 BYTE   W01
 BYTE   BEND   c_v-7
 BYTE   W01
 BYTE   BEND   c_v-6
 BYTE   W01
 BYTE   BEND   c_v-4
 BYTE   W02
 BYTE   BEND   c_v-3
 BYTE   W01
 BYTE   BEND   c_v-2
 BYTE   W01
 BYTE   BEND   c_v+0
 BYTE   W10
 BYTE   N12  En4
 BYTE   W12
 BYTE   N48  Dn4
 BYTE   W48
// 023   ----------------------------------------
 BYTE   W96
// 024   ----------------------------------------
 BYTE   W96
// 025   ----------------------------------------
 BYTE   W48
 BYTE   N16  Cn4
 BYTE   W16
 BYTE   Dn4
 BYTE   W16
 BYTE   En4
 BYTE   W16
// 026   ----------------------------------------
 BYTE   BEND   c_v-14
 BYTE   N48  Gn4
 BYTE   W01
 BYTE   BEND   c_v-13
 BYTE   W01
 BYTE   BEND   c_v-11
 BYTE   W01
 BYTE   BEND   c_v-10
 BYTE   W01
 BYTE   BEND   c_v-9
 BYTE   W01
 BYTE   BEND   c_v-8
 BYTE   W01
 BYTE   BEND   c_v-7
 BYTE   W01
 BYTE   BEND   c_v-5
 BYTE   W01
 BYTE   BEND   c_v-4
 BYTE   W01
 BYTE   BEND   c_v-3
 BYTE   W01
 BYTE   BEND   c_v-2
 BYTE   W01
 BYTE   BEND   c_v-1
 BYTE   W01
 BYTE   BEND   c_v+0
 BYTE   W84
// 027   ----------------------------------------
 BYTE   W36
 BYTE   N12  Cn4
 BYTE   W12
 BYTE   N16  An3
 BYTE   W16
 BYTE   Bn3
 BYTE   W16
 BYTE   Cn4
 BYTE   W16
// 028   ----------------------------------------
 BYTE   BEND   c_v-15
 BYTE   N24  En4
 BYTE   W01
 BYTE   BEND   c_v-13
 BYTE   W01
 BYTE   BEND   c_v-12
 BYTE   W01
 BYTE   BEND   c_v-11
 BYTE   W01
 BYTE   BEND   c_v-9
 BYTE   W01
 BYTE   BEND   c_v-8
 BYTE   W01
 BYTE   BEND   c_v-7
 BYTE   W01
 BYTE   BEND   c_v-5
 BYTE   W01
 BYTE   BEND   c_v-4
 BYTE   W01
 BYTE   BEND   c_v-3
 BYTE   W01
 BYTE   BEND   c_v-1
 BYTE   W01
 BYTE   BEND   c_v+0
 BYTE   W13
 BYTE   N12  Fn4
 BYTE   W12
 BYTE   N24  En4
 BYTE   W24
 BYTE   Dn4
 BYTE   W24
 BYTE   N12  Cn4
 BYTE   W12
// 029   ----------------------------------------
 BYTE   N96  En4
 BYTE   W96
// 030   ----------------------------------------
 BYTE   W96
// 031   ----------------------------------------
 BYTE   W96
// 032   ----------------------------------------
 BYTE   W96
// 033   ----------------------------------------
 BYTE   W96
// 034   ----------------------------------------
 BYTE   W96
// 035   ----------------------------------------
 BYTE   W96
// 036   ----------------------------------------
 BYTE   W96
// 037   ----------------------------------------
 BYTE   W96
// 038   ----------------------------------------
 BYTE   W96
// 039   ----------------------------------------
 BYTE   W96
// 040   ----------------------------------------
 BYTE   W96
// 041   ----------------------------------------
 BYTE   W96
// 042   ----------------------------------------
 BYTE   W96
// 043   ----------------------------------------
 BYTE   W96
// 044   ----------------------------------------
 BYTE   W96
// 045   ----------------------------------------
 BYTE   W48
 BYTE   N16  Cn4  v127
 BYTE   W16
 BYTE   Dn4
 BYTE   W16
 BYTE   En4
 BYTE   W16
// 046   ----------------------------------------
 BYTE   BEND   c_v-12
 BYTE   N48  Gn4
 BYTE   W01
 BYTE   BEND   c_v-11
 BYTE   W01
 BYTE   BEND   c_v-10
 BYTE   W01
 BYTE   BEND   c_v-9
 BYTE   W01
 BYTE   BEND   c_v-8
 BYTE   W01
 BYTE   BEND   c_v-7
 BYTE   W01
 BYTE   BEND   c_v-6
 BYTE   W01
 BYTE   BEND   c_v-5
 BYTE   W01
 BYTE   BEND   c_v-4
 BYTE   W01
 BYTE   BEND   c_v-3
 BYTE   W01
 BYTE   BEND   c_v-2
 BYTE   W01
 BYTE   BEND   c_v-1
 BYTE   W01
 BYTE   BEND   c_v+0
 BYTE   W24
 BYTE   N12  Cn4
 BYTE   W12
 BYTE   N16  Bn3
 BYTE   W16
 BYTE   Cn4
 BYTE   W16
 BYTE   En4
 BYTE   W16
// 047   ----------------------------------------
 BYTE   BEND   c_v-11
 BYTE   N48  An4
 BYTE   W01
 BYTE   BEND   c_v-10
 BYTE   W01
 BYTE   BEND   c_v-9
 BYTE   W01
 BYTE   BEND   c_v-7
 BYTE   W01
 BYTE   BEND   c_v-6
 BYTE   W01
 BYTE   BEND   c_v-5
 BYTE   W01
 BYTE   BEND   c_v-4
 BYTE   W01
 BYTE   BEND   c_v-3
 BYTE   W01
 BYTE   BEND   c_v-2
 BYTE   W01
 BYTE   BEND   c_v+0
 BYTE   W24
 BYTE   W03
 BYTE   N12  Cn4
 BYTE   W12
 BYTE   N16  An3
 BYTE   W16
 BYTE   Bn3
 BYTE   W16
 BYTE   Cn4
 BYTE   W15
 BYTE   BEND   c_v-10
 BYTE   W01
// 048   ----------------------------------------
 BYTE   BEND   c_v-9
 BYTE   N24  En4
 BYTE   W01
 BYTE   BEND   c_v-8
 BYTE   W01
 BYTE   BEND   c_v-7
 BYTE   W01
 BYTE   BEND   c_v-6
 BYTE   W01
 BYTE   BEND   c_v-5
 BYTE   W01
 BYTE   BEND   c_v-3
 BYTE   W01
 BYTE   BEND   c_v-2
 BYTE   W01
 BYTE   BEND   c_v-1
 BYTE   W01
 BYTE   BEND   c_v+0
 BYTE   W16
 BYTE   N12  Fn4
 BYTE   W12
 BYTE   N24  En4
 BYTE   W24
 BYTE   Dn4
 BYTE   W24
 BYTE   N12  Cn4
 BYTE   W12
// 049   ----------------------------------------
 BYTE   BEND   c_v-14
 BYTE   N48  En4
 BYTE   W01
 BYTE   BEND   c_v-12
 BYTE   W01
 BYTE   BEND   c_v-11
 BYTE   W01
 BYTE   BEND   c_v-9
 BYTE   W01
 BYTE   BEND   c_v-8
 BYTE   W01
 BYTE   BEND   c_v-6
 BYTE   W01
 BYTE   BEND   c_v-5
 BYTE   W01
 BYTE   BEND   c_v-3
 BYTE   W01
 BYTE   BEND   c_v-2
 BYTE   W01
 BYTE   BEND   c_v+0
 BYTE   W36
 BYTE   W03
 BYTE   N16  Cn4
 BYTE   W16
 BYTE   Dn4
 BYTE   W16
 BYTE   En4
 BYTE   W16
// 050   ----------------------------------------
 BYTE   BEND   c_v-11
 BYTE   N48  Gn4
 BYTE   W01
 BYTE   BEND   c_v-10
 BYTE   W01
 BYTE   BEND   c_v-9
 BYTE   W01
 BYTE   BEND   c_v-8
 BYTE   W01
 BYTE   BEND   c_v-7
 BYTE   W01
 BYTE   BEND   c_v-6
 BYTE   W01
 BYTE   BEND   c_v-5
 BYTE   W01
 BYTE   BEND   c_v-3
 BYTE   W01
 BYTE   BEND   c_v-2
 BYTE   W01
 BYTE   BEND   c_v-1
 BYTE   W01
 BYTE   BEND   c_v+0
 BYTE   W24
 BYTE   W02
 BYTE   N12  Cn4
 BYTE   W12
 BYTE   N16  Bn3
 BYTE   W16
 BYTE   Cn4
 BYTE   W16
 BYTE   En4
 BYTE   W16
// 051   ----------------------------------------
 BYTE   BEND   c_v-10
 BYTE   N48  An4
 BYTE   W01
 BYTE   BEND   c_v-9
 BYTE   W01
 BYTE   BEND   c_v-8
 BYTE   W01
 BYTE   BEND   c_v-7
 BYTE   W01
 BYTE   BEND   c_v-6
 BYTE   W01
 BYTE   BEND   c_v-5
 BYTE   W01
 BYTE   BEND   c_v-4
 BYTE   W01
 BYTE   BEND   c_v-3
 BYTE   W01
 BYTE   BEND   c_v-2
 BYTE   W01
 BYTE   BEND   c_v-1
 BYTE   W01
 BYTE   BEND   c_v+0
 BYTE   W24
 BYTE   W02
 BYTE   N12  Cn4
 BYTE   W12
 BYTE   N16  An3
 BYTE   W16
 BYTE   Bn3
 BYTE   W16
 BYTE   Cn4
 BYTE   W16
// 052   ----------------------------------------
 BYTE   N24  En4
 BYTE   W24
 BYTE   N12  Fn4
 BYTE   W12
 BYTE   N24  En4
 BYTE   W24
 BYTE   N12  Fn4
 BYTE   W12
 BYTE   N24  Dn4
 BYTE   W24
// 053   ----------------------------------------
 BYTE   W96
// 054   ----------------------------------------
 BYTE   GoTo
  POIN2 Label_1_0160FBC9
 BYTE   FINE

//**************** Track 3 (Midi-Chn.2) ****************//

DKC2StickerbrushSymphonyRetina_003:
// 000   ----------------------------------------
 BYTE   KEYSH   DKC2StickerbrushSymphonyRetina_key+0
 BYTE   VOICE   74
 BYTE   MODT 0
 BYTE   CnM2  v000
 BYTE   LFOS 0
 BYTE   CnM2  v044
 BYTE   VOL   50*DKC2StickerbrushSymphonyRetina_mvl/mxv
 BYTE   PAN   c_v+0
 BYTE   W96
// 001   ----------------------------------------
 BYTE   W96
// 002   ----------------------------------------
 BYTE   W96
// 003   ----------------------------------------
 BYTE   W96
// 004   ----------------------------------------
 BYTE   W96
// 005   ----------------------------------------
 BYTE   W96
// 006   ----------------------------------------
 BYTE   W96
// 007   ----------------------------------------
 BYTE   W96
// 008   ----------------------------------------
 BYTE   W96
// 009   ----------------------------------------
Label_2_014AF34D:
 BYTE   W60
 BYTE   N12  Bn3  v068
 BYTE   W12
 BYTE   Cn4
 BYTE   W12
 BYTE   Gn4
 BYTE   W12
// 010   ----------------------------------------
 BYTE   W12
 BYTE   Bn3  v020
 BYTE   W12
 BYTE   Cn4
 BYTE   W12
 BYTE   Gn4
 BYTE   W60
// 011   ----------------------------------------
 BYTE   W60
 BYTE   Gn4  v036
 BYTE   W12
 BYTE   An4
 BYTE   W12
 BYTE   En4
 BYTE   W12
// 012   ----------------------------------------
 BYTE   W96
// 013   ----------------------------------------
 BYTE   W96
// 014   ----------------------------------------
 BYTE   W96
// 015   ----------------------------------------
 BYTE   W96
// 016   ----------------------------------------
 BYTE   W96
// 017   ----------------------------------------
 BYTE   W96
// 018   ----------------------------------------
 BYTE   W96
// 019   ----------------------------------------
 BYTE   W96
// 020   ----------------------------------------
 BYTE   W96
// 021   ----------------------------------------
 BYTE   W96
// 022   ----------------------------------------
 BYTE   W96
// 023   ----------------------------------------
 BYTE   W96
// 024   ----------------------------------------
 BYTE   W96
// 025   ----------------------------------------
 BYTE   W96
// 026   ----------------------------------------
 BYTE   W96
// 027   ----------------------------------------
 BYTE   W96
// 028   ----------------------------------------
 BYTE   W96
// 029   ----------------------------------------
 BYTE   W96
// 030   ----------------------------------------
 BYTE   W96
// 031   ----------------------------------------
 BYTE   W96
// 032   ----------------------------------------
 BYTE   W96
// 033   ----------------------------------------
 BYTE   W96
// 034   ----------------------------------------
 BYTE   W96
// 035   ----------------------------------------
 BYTE   W96
// 036   ----------------------------------------
 BYTE   W96
// 037   ----------------------------------------
 BYTE   W48
 BYTE   N10  Dn4  v072
 BYTE   W12
 BYTE   En4
 BYTE   W12
 BYTE   Dn4
 BYTE   W12
 BYTE   N06  Cn4
 BYTE   W06
 BYTE   N18  Dn4
 BYTE   W06
// 038   ----------------------------------------
 BYTE   W12
 BYTE   N12  En4
 BYTE   W12
 BYTE   Dn4  v028
 BYTE   W12
 BYTE   N06  Cn4
 BYTE   W06
 BYTE   N18  Dn4
 BYTE   W18
 BYTE   N12  En4
 BYTE   W12
 BYTE   Dn4  v008
 BYTE   W12
 BYTE   N06  Cn4
 BYTE   W06
 BYTE   N18  Dn4
 BYTE   W06
// 039   ----------------------------------------
 BYTE   W12
 BYTE   N12  En4
 BYTE   W36
 BYTE   Dn4  v072
 BYTE   W12
 BYTE   En4
 BYTE   W12
 BYTE   Gn4
 BYTE   W12
 BYTE   En4
 BYTE   W12
// 040   ----------------------------------------
 BYTE   N36  Dn4
 BYTE   W36
 BYTE   N06  En4
 BYTE   W06
 BYTE   Dn4
 BYTE   W06
 BYTE   N24  Cn4
 BYTE   W24
 BYTE   N12  Bn3
 BYTE   W12
 BYTE   Cn4
 BYTE   W12
// 041   ----------------------------------------
 BYTE   N54  An4
 BYTE   W60
 BYTE   N24
 BYTE   W24
 BYTE   N12  En4
 BYTE   W12
// 042   ----------------------------------------
 BYTE   N60  Dn4
 BYTE   W60
 BYTE   N06  Gn3
 BYTE   W12
 BYTE   N12
 BYTE   W12
 BYTE   N06  Gn4
 BYTE   W12
// 043   ----------------------------------------
 BYTE   N42
 BYTE   W48
 BYTE   N16
 BYTE   W16
 BYTE   An4
 BYTE   W16
 BYTE   Bn4
 BYTE   W16
// 044   ----------------------------------------
 BYTE   N24
 BYTE   W24
 BYTE   N12  Cn5
 BYTE   W12
 BYTE   N24  Bn4
 BYTE   W24
 BYTE   Gn4
 BYTE   W24
 BYTE   N12  En4
 BYTE   W12
// 045   ----------------------------------------
 BYTE   N36  An4
 BYTE   W96
// 046   ----------------------------------------
 BYTE   W96
// 047   ----------------------------------------
 BYTE   W96
// 048   ----------------------------------------
 BYTE   W96
// 049   ----------------------------------------
 BYTE   W96
// 050   ----------------------------------------
 BYTE   W96
// 051   ----------------------------------------
 BYTE   W96
// 052   ----------------------------------------
 BYTE   W96
// 053   ----------------------------------------
 BYTE   W96
// 054   ----------------------------------------
 BYTE   GoTo
  POIN2 Label_2_014AF34D
 BYTE   FINE

//**************** Track 4 (Midi-Chn.3) ****************//

DKC2StickerbrushSymphonyRetina_004:
// 000   ----------------------------------------
 BYTE   KEYSH   DKC2StickerbrushSymphonyRetina_key+0
 BYTE   VOICE   74
 BYTE   MODT 0
 BYTE   CnM2  v000
 BYTE   LFOS 0
 BYTE   CnM2  v044
 BYTE   VOL   50*DKC2StickerbrushSymphonyRetina_mvl/mxv
 BYTE   PAN   c_v-32
 BYTE   VOL   50*DKC2StickerbrushSymphonyRetina_mvl/mxv
 BYTE   PAN   c_v-32
 BYTE   W96
// 001   ----------------------------------------
 BYTE   W96
// 002   ----------------------------------------
 BYTE   W96
// 003   ----------------------------------------
 BYTE   W96
// 004   ----------------------------------------
 BYTE   W96
// 005   ----------------------------------------
 BYTE   W96
// 006   ----------------------------------------
 BYTE   W96
// 007   ----------------------------------------
 BYTE   W96
// 008   ----------------------------------------
 BYTE   W96
// 009   ----------------------------------------
Label_3_014AF0ED:
 BYTE   W66
 BYTE   N05  Bn3  v016
 BYTE   W05
 BYTE   N06  Bn3  v012
 BYTE   W07
 BYTE   N05  Cn4  v016
 BYTE   W05
 BYTE   N06  Cn4  v012
 BYTE   W07
 BYTE   N05  Gn4  v016
 BYTE   W05
 BYTE   N06  Gn4  v012
 BYTE   W01
// 010   ----------------------------------------
 BYTE   W18
 BYTE   N05  Bn3  v016
 BYTE   W05
 BYTE   N06  Bn3  v012
 BYTE   W07
 BYTE   N05  Cn4  v016
 BYTE   W05
 BYTE   N06  Cn4  v012
 BYTE   W07
 BYTE   N05  Gn4  v016
 BYTE   W05
 BYTE   N06  Gn4  v012
 BYTE   W19
 BYTE   N05  Bn3  v016
 BYTE   W05
 BYTE   N06  Bn3  v012
 BYTE   W07
 BYTE   N05  Cn4  v016
 BYTE   W05
 BYTE   N06  Cn4  v012
 BYTE   W07
 BYTE   N05  Gn4  v016
 BYTE   W05
 BYTE   N06  Gn4  v012
 BYTE   W01
// 011   ----------------------------------------
 BYTE   W66
 BYTE   N05  Gn4  v016
 BYTE   W05
 BYTE   N07
 BYTE   W07
 BYTE   N05  An4
 BYTE   W05
 BYTE   N07
 BYTE   W07
 BYTE   N05  En4
 BYTE   W05
 BYTE   N07
 BYTE   W01
// 012   ----------------------------------------
 BYTE   W96
// 013   ----------------------------------------
 BYTE   W96
// 014   ----------------------------------------
 BYTE   W96
// 015   ----------------------------------------
 BYTE   W96
// 016   ----------------------------------------
 BYTE   W96
// 017   ----------------------------------------
 BYTE   W96
// 018   ----------------------------------------
 BYTE   W96
// 019   ----------------------------------------
 BYTE   W96
// 020   ----------------------------------------
 BYTE   W96
// 021   ----------------------------------------
 BYTE   W96
// 022   ----------------------------------------
 BYTE   W96
// 023   ----------------------------------------
 BYTE   W96
// 024   ----------------------------------------
 BYTE   W96
// 025   ----------------------------------------
 BYTE   W96
// 026   ----------------------------------------
 BYTE   W96
// 027   ----------------------------------------
 BYTE   W96
// 028   ----------------------------------------
 BYTE   W96
// 029   ----------------------------------------
 BYTE   W96
// 030   ----------------------------------------
 BYTE   W96
// 031   ----------------------------------------
 BYTE   W96
// 032   ----------------------------------------
 BYTE   W96
// 033   ----------------------------------------
 BYTE   W96
// 034   ----------------------------------------
 BYTE   W96
// 035   ----------------------------------------
 BYTE   W96
// 036   ----------------------------------------
 BYTE   W96
// 037   ----------------------------------------
 BYTE   W54
 BYTE   N06  Dn4  v020
 BYTE   W06
 BYTE   N04  Dn4  v012
 BYTE   W06
 BYTE   N06  En4  v020
 BYTE   W06
 BYTE   N04  En4  v012
 BYTE   W06
 BYTE   N06  Dn4  v020
 BYTE   W06
 BYTE   N04  Dn4  v012
 BYTE   W06
 BYTE   N06  Cn4  v020
 BYTE   W06
// 038   ----------------------------------------
 BYTE   Cn4  v012
 BYTE   N06  Dn4  v020
 BYTE   W06
 BYTE   N12  Dn4  v012
 BYTE   W12
 BYTE   N06  En4  v020
 BYTE   W06
 BYTE   En4  v012
 BYTE   W06
 BYTE   Dn4  v020
 BYTE   W06
 BYTE   Dn4  v012
 BYTE   W06
 BYTE   Cn4  v020
 BYTE   W06
 BYTE   Cn4  v012
 BYTE   W06
 BYTE   N12  Dn4
 BYTE   W12
 BYTE   N06  En4  v020
 BYTE   W06
 BYTE   En4  v012
 BYTE   W06
 BYTE   Dn4  v020
 BYTE   W06
 BYTE   Dn4  v012
 BYTE   W06
 BYTE   Cn4  v020
 BYTE   W06
// 039   ----------------------------------------
 BYTE   Cn4  v012
 BYTE   W06
 BYTE   N12  Dn4
 BYTE   W12
 BYTE   N06  En4  v020
 BYTE   W06
 BYTE   En4  v012
 BYTE   W30
 BYTE   Dn4  v020
 BYTE   W06
 BYTE   Dn4  v012
 BYTE   W06
 BYTE   En4  v020
 BYTE   W06
 BYTE   En4  v012
 BYTE   W06
 BYTE   Gn4  v020
 BYTE   W06
 BYTE   Gn4  v012
 BYTE   W06
 BYTE   En4  v020
 BYTE   W06
// 040   ----------------------------------------
 BYTE   En4  v012
 BYTE   W06
 BYTE   Dn4  v020
 BYTE   W06
 BYTE   N30  Dn4  v012
 BYTE   W30
 BYTE   N06  En4  v020
 BYTE   W06
 BYTE   En4  v012
 BYTE   W06
 BYTE   Cn4  v020
 BYTE   N06  Dn4  v012
 BYTE   W06
 BYTE   N18  Cn4
 BYTE   W18
 BYTE   N06  Bn3  v020
 BYTE   W06
 BYTE   Bn3  v012
 BYTE   W06
 BYTE   Cn4  v020
 BYTE   W06
// 041   ----------------------------------------
 BYTE   Cn4  v012
 BYTE   W06
 BYTE   An4  v020
 BYTE   W06
 BYTE   N48  An4  v012
 BYTE   W60
 BYTE   N18
 BYTE   W18
 BYTE   N06  En4  v020
 BYTE   W06
// 042   ----------------------------------------
 BYTE   En4  v012
 BYTE   W06
 BYTE   Dn4  v020
 BYTE   W06
 BYTE   N54  Dn4  v012
 BYTE   W54
 BYTE   N06  Gn3  v020
 BYTE   W06
 BYTE   Gn3  v012
 BYTE   W12
 BYTE   N06
 BYTE   W06
 BYTE   Gn4  v020
 BYTE   W06
// 043   ----------------------------------------
 BYTE   Gn4  v012
 BYTE   W12
 BYTE   N36
 BYTE   W48
 BYTE   N10
 BYTE   W10
 BYTE   N06  An4  v020
 BYTE   W06
 BYTE   N10  An4  v012
 BYTE   W10
 BYTE   N06  Bn4  v020
 BYTE   W06
 BYTE   N10  Bn4  v012
 BYTE   W04
// 044   ----------------------------------------
 BYTE   W06
 BYTE   N06  Bn4  v020
 BYTE   W06
 BYTE   N18  Bn4  v012
 BYTE   W18
 BYTE   N06  Cn5  v020
 BYTE   W06
 BYTE   Cn5  v012
 BYTE   W06
 BYTE   Bn4  v020
 BYTE   W06
 BYTE   N18  Bn4  v012
 BYTE   W18
 BYTE   N06  Gn4  v020
 BYTE   W06
 BYTE   N18  Gn4  v012
 BYTE   W18
 BYTE   N06  En4  v020
 BYTE   W06
// 045   ----------------------------------------
 BYTE   En4  v012
 BYTE   W06
 BYTE   An4  v020
 BYTE   W06
 BYTE   N30  An4  v012
 BYTE   W84
// 046   ----------------------------------------
 BYTE   W96
// 047   ----------------------------------------
 BYTE   W96
// 048   ----------------------------------------
 BYTE   W96
// 049   ----------------------------------------
 BYTE   W96
// 050   ----------------------------------------
 BYTE   W96
// 051   ----------------------------------------
 BYTE   W96
// 052   ----------------------------------------
 BYTE   W96
// 053   ----------------------------------------
 BYTE   W96
// 054   ----------------------------------------
 BYTE   GoTo
  POIN2 Label_3_014AF0ED
 BYTE   FINE

//**************** Track 5 (Midi-Chn.4) ****************//

DKC2StickerbrushSymphonyRetina_005:
// 000   ----------------------------------------
 BYTE   KEYSH   DKC2StickerbrushSymphonyRetina_key+0
 BYTE   VOICE   13
 BYTE   MODT 0
 BYTE   CnM2  v000
 BYTE   LFOS 0
 BYTE   CnM2  v044
 BYTE   VOL   50*DKC2StickerbrushSymphonyRetina_mvl/mxv
 BYTE   PAN   c_v-32
 BYTE   W96
// 001   ----------------------------------------
 BYTE   W96
// 002   ----------------------------------------
 BYTE   W96
// 003   ----------------------------------------
 BYTE   W96
// 004   ----------------------------------------
 BYTE   W96
// 005   ----------------------------------------
 BYTE   W96
// 006   ----------------------------------------
 BYTE   W96
// 007   ----------------------------------------
 BYTE   W96
// 008   ----------------------------------------
 BYTE   W96
// 009   ----------------------------------------
Label_4_01610351:
 BYTE   W96
// 010   ----------------------------------------
 BYTE   W96
// 011   ----------------------------------------
 BYTE   W96
// 012   ----------------------------------------
 BYTE   W96
// 013   ----------------------------------------
 BYTE   W56
 BYTE   W01
 BYTE   W03
 BYTE   N12  Bn4  v100
 BYTE   W12
 BYTE   Cn5
 BYTE   W12
 BYTE   Gn5
 BYTE   W12
// 014   ----------------------------------------
 BYTE   W12
 BYTE   Bn4  v072
 BYTE   W12
 BYTE   Cn5
 BYTE   W12
 BYTE   Gn5
 BYTE   W24
 BYTE   Bn4  v028
 BYTE   W12
 BYTE   Cn5
 BYTE   W12
 BYTE   Gn5
 BYTE   W12
// 015   ----------------------------------------
 BYTE   W30
 BYTE   W01
 BYTE   W05
 BYTE   Cn6  v100
 BYTE   W12
 BYTE   Bn5
 BYTE   W12
 BYTE   Gn5
 BYTE   W12
 BYTE   En5
 BYTE   W12
 BYTE   N48  An5
 BYTE   W12
// 016   ----------------------------------------
 BYTE   W32
 BYTE   W01
 BYTE   W60
 BYTE   W03
// 017   ----------------------------------------
 BYTE   W96
// 018   ----------------------------------------
 BYTE   W96
// 019   ----------------------------------------
 BYTE   W96
// 020   ----------------------------------------
 BYTE   W96
// 021   ----------------------------------------
 BYTE   W96
// 022   ----------------------------------------
 BYTE   W96
// 023   ----------------------------------------
 BYTE   W96
// 024   ----------------------------------------
 BYTE   W96
// 025   ----------------------------------------
 BYTE   W96
// 026   ----------------------------------------
 BYTE   W96
// 027   ----------------------------------------
 BYTE   W96
// 028   ----------------------------------------
 BYTE   W96
// 029   ----------------------------------------
 BYTE   W96
// 030   ----------------------------------------
 BYTE   W96
// 031   ----------------------------------------
 BYTE   W96
// 032   ----------------------------------------
 BYTE   W96
// 033   ----------------------------------------
 BYTE   W96
// 034   ----------------------------------------
 BYTE   W96
// 035   ----------------------------------------
 BYTE   W96
// 036   ----------------------------------------
 BYTE   W96
// 037   ----------------------------------------
 BYTE   W96
// 038   ----------------------------------------
 BYTE   W96
// 039   ----------------------------------------
 BYTE   W96
// 040   ----------------------------------------
 BYTE   W96
// 041   ----------------------------------------
 BYTE   W96
// 042   ----------------------------------------
 BYTE   W96
// 043   ----------------------------------------
 BYTE   W96
// 044   ----------------------------------------
 BYTE   W96
// 045   ----------------------------------------
 BYTE   W96
// 046   ----------------------------------------
 BYTE   W96
// 047   ----------------------------------------
 BYTE   W96
// 048   ----------------------------------------
 BYTE   W96
// 049   ----------------------------------------
 BYTE   W96
// 050   ----------------------------------------
 BYTE   W96
// 051   ----------------------------------------
 BYTE   W96
// 052   ----------------------------------------
 BYTE   W96
// 053   ----------------------------------------
 BYTE   W96
// 054   ----------------------------------------
 BYTE   GoTo
  POIN2 Label_4_01610351
 BYTE   FINE

//**************** Track 6 (Midi-Chn.5) ****************//

DKC2StickerbrushSymphonyRetina_006:
// 000   ----------------------------------------
 BYTE   KEYSH   DKC2StickerbrushSymphonyRetina_key+0
 BYTE   VOICE   13
 BYTE   MODT 0
 BYTE   CnM2  v000
 BYTE   LFOS 0
 BYTE   CnM2  v044
 BYTE   VOL   28*DKC2StickerbrushSymphonyRetina_mvl/mxv
 BYTE   PAN   c_v+32
 BYTE   VOL   28*DKC2StickerbrushSymphonyRetina_mvl/mxv
 BYTE   PAN   c_v+32
 BYTE   W96
// 001   ----------------------------------------
 BYTE   W96
// 002   ----------------------------------------
 BYTE   W96
// 003   ----------------------------------------
 BYTE   W96
// 004   ----------------------------------------
 BYTE   W96
// 005   ----------------------------------------
 BYTE   W96
// 006   ----------------------------------------
 BYTE   W96
// 007   ----------------------------------------
 BYTE   W96
// 008   ----------------------------------------
 BYTE   W96
// 009   ----------------------------------------
Label_5_014AE081:
 BYTE   W96
// 010   ----------------------------------------
 BYTE   W96
// 011   ----------------------------------------
 BYTE   W96
// 012   ----------------------------------------
 BYTE   W96
// 013   ----------------------------------------
 BYTE   W66
 BYTE   N05  Bn4  v024
 BYTE   W05
 BYTE   N06  Bn4  v020
 BYTE   W07
 BYTE   N05  Cn5  v024
 BYTE   W05
 BYTE   N06  Cn5  v020
 BYTE   W07
 BYTE   N05  Gn5  v024
 BYTE   W05
 BYTE   N06  Gn5  v020
 BYTE   W01
// 014   ----------------------------------------
 BYTE   W18
 BYTE   N05  Bn4  v024
 BYTE   W05
 BYTE   N06  Bn4  v020
 BYTE   W07
 BYTE   N05  Cn5  v024
 BYTE   W05
 BYTE   N06  Cn5  v020
 BYTE   W07
 BYTE   N05  Gn5  v024
 BYTE   W05
 BYTE   N06  Gn5  v020
 BYTE   W19
 BYTE   N05  Bn4  v024
 BYTE   W05
 BYTE   N06  Bn4  v020
 BYTE   W07
 BYTE   N05  Cn5  v024
 BYTE   W05
 BYTE   N06  Cn5  v020
 BYTE   W07
 BYTE   N05  Gn5  v024
 BYTE   W05
 BYTE   N06  Gn5  v020
 BYTE   W01
// 015   ----------------------------------------
 BYTE   W42
 BYTE   N05  Cn6  v024
 BYTE   W05
 BYTE   N06  Cn6  v020
 BYTE   W07
 BYTE   N05  Bn5  v024
 BYTE   W05
 BYTE   N06  Bn5  v020
 BYTE   W07
 BYTE   N05  Gn5  v024
 BYTE   W05
 BYTE   N06  Gn5  v020
 BYTE   W07
 BYTE   N05  En5  v024
 BYTE   W05
 BYTE   N06  En5  v020
 BYTE   W07
 BYTE   N05  An5  v024
 BYTE   W05
 BYTE   N18  An5  v020
 BYTE   W01
// 016   ----------------------------------------
 BYTE   W96
// 017   ----------------------------------------
 BYTE   W96
// 018   ----------------------------------------
 BYTE   W96
// 019   ----------------------------------------
 BYTE   W96
// 020   ----------------------------------------
 BYTE   W96
// 021   ----------------------------------------
 BYTE   W96
// 022   ----------------------------------------
 BYTE   W96
// 023   ----------------------------------------
 BYTE   W96
// 024   ----------------------------------------
 BYTE   W96
// 025   ----------------------------------------
 BYTE   W96
// 026   ----------------------------------------
 BYTE   W96
// 027   ----------------------------------------
 BYTE   W96
// 028   ----------------------------------------
 BYTE   W96
// 029   ----------------------------------------
 BYTE   W96
// 030   ----------------------------------------
 BYTE   W96
// 031   ----------------------------------------
 BYTE   W96
// 032   ----------------------------------------
 BYTE   W96
// 033   ----------------------------------------
 BYTE   W96
// 034   ----------------------------------------
 BYTE   W96
// 035   ----------------------------------------
 BYTE   W96
// 036   ----------------------------------------
 BYTE   W96
// 037   ----------------------------------------
 BYTE   W96
// 038   ----------------------------------------
 BYTE   W96
// 039   ----------------------------------------
 BYTE   W96
// 040   ----------------------------------------
 BYTE   W96
// 041   ----------------------------------------
 BYTE   W96
// 042   ----------------------------------------
 BYTE   W96
// 043   ----------------------------------------
 BYTE   W96
// 044   ----------------------------------------
 BYTE   W96
// 045   ----------------------------------------
 BYTE   W96
// 046   ----------------------------------------
 BYTE   W96
// 047   ----------------------------------------
 BYTE   W96
// 048   ----------------------------------------
 BYTE   W96
// 049   ----------------------------------------
 BYTE   W96
// 050   ----------------------------------------
 BYTE   W96
// 051   ----------------------------------------
 BYTE   W96
// 052   ----------------------------------------
 BYTE   W96
// 053   ----------------------------------------
 BYTE   W96
// 054   ----------------------------------------
 BYTE   GoTo
  POIN2 Label_5_014AE081
 BYTE   FINE

//**************** Track 7 (Midi-Chn.6) ****************//

DKC2StickerbrushSymphonyRetina_007:
// 000   ----------------------------------------
 BYTE   KEYSH   DKC2StickerbrushSymphonyRetina_key+0
 BYTE   VOICE   105
 BYTE   MODT 0
 BYTE   CnM2  v000
 BYTE   LFOS 0
 BYTE   CnM2  v044
 BYTE   VOL   33*DKC2StickerbrushSymphonyRetina_mvl/mxv
 BYTE   PAN   c_v-32
 BYTE   W96
// 001   ----------------------------------------
Label_6_0151DA29:
 BYTE   W12
 BYTE   N06  Bn3  v072
 BYTE   W12
 BYTE   Cn4
 BYTE   W18
 BYTE   Bn3
 BYTE   W18
 BYTE   Cn4
 BYTE   W12
 BYTE   Gn3
 BYTE   W24
 BYTE   PEND 
// 002   ----------------------------------------
 BYTE   PATT
  POIN2 Label_6_0151DA29
// 003   ----------------------------------------
 BYTE   PATT
  POIN2 Label_6_0151DA29
// 004   ----------------------------------------
Label_6_0151DA41:
 BYTE   W12
 BYTE   N06  Bn3  v072
 BYTE   W12
 BYTE   Cn4
 BYTE   W18
 BYTE   Bn3
 BYTE   W18
 BYTE   Cn4
 BYTE   W12
 BYTE   Gn3
 BYTE   W12
 BYTE   Gn4
 BYTE   W06
 BYTE   N06
 BYTE   W06
 BYTE   PEND 
// 005   ----------------------------------------
 BYTE   PATT
  POIN2 Label_6_0151DA29
// 006   ----------------------------------------
 BYTE   PATT
  POIN2 Label_6_0151DA29
// 007   ----------------------------------------
 BYTE   PATT
  POIN2 Label_6_0151DA29
// 008   ----------------------------------------
 BYTE   PATT
  POIN2 Label_6_0151DA41
// 009   ----------------------------------------
Label_6_0151DA67:
 BYTE   VOL   33*DKC2StickerbrushSymphonyRetina_mvl/mxv
 BYTE   W12
 BYTE   N06  Bn3  v072
 BYTE   W12
 BYTE   Cn4
 BYTE   W18
 BYTE   Bn3
 BYTE   W18
 BYTE   Cn4
 BYTE   W12
 BYTE   Gn3
 BYTE   W24
// 010   ----------------------------------------
 BYTE   PATT
  POIN2 Label_6_0151DA29
// 011   ----------------------------------------
 BYTE   PATT
  POIN2 Label_6_0151DA29
// 012   ----------------------------------------
 BYTE   PATT
  POIN2 Label_6_0151DA41
// 013   ----------------------------------------
 BYTE   PATT
  POIN2 Label_6_0151DA29
// 014   ----------------------------------------
 BYTE   PATT
  POIN2 Label_6_0151DA29
// 015   ----------------------------------------
 BYTE   PATT
  POIN2 Label_6_0151DA29
// 016   ----------------------------------------
 BYTE   PATT
  POIN2 Label_6_0151DA41
// 017   ----------------------------------------
 BYTE   PATT
  POIN2 Label_6_0151DA29
// 018   ----------------------------------------
 BYTE   PATT
  POIN2 Label_6_0151DA29
// 019   ----------------------------------------
 BYTE   PATT
  POIN2 Label_6_0151DA29
// 020   ----------------------------------------
 BYTE   PATT
  POIN2 Label_6_0151DA41
// 021   ----------------------------------------
 BYTE   PATT
  POIN2 Label_6_0151DA29
// 022   ----------------------------------------
 BYTE   PATT
  POIN2 Label_6_0151DA29
// 023   ----------------------------------------
 BYTE   PATT
  POIN2 Label_6_0151DA29
// 024   ----------------------------------------
 BYTE   PATT
  POIN2 Label_6_0151DA41
// 025   ----------------------------------------
 BYTE   PATT
  POIN2 Label_6_0151DA29
// 026   ----------------------------------------
 BYTE   PATT
  POIN2 Label_6_0151DA29
// 027   ----------------------------------------
 BYTE   PATT
  POIN2 Label_6_0151DA29
// 028   ----------------------------------------
 BYTE   PATT
  POIN2 Label_6_0151DA41
// 029   ----------------------------------------
 BYTE   PATT
  POIN2 Label_6_0151DA29
// 030   ----------------------------------------
 BYTE   PATT
  POIN2 Label_6_0151DA29
// 031   ----------------------------------------
 BYTE   PATT
  POIN2 Label_6_0151DA29
// 032   ----------------------------------------
 BYTE   PATT
  POIN2 Label_6_0151DA41
// 033   ----------------------------------------
 BYTE   PATT
  POIN2 Label_6_0151DA29
// 034   ----------------------------------------
 BYTE   PATT
  POIN2 Label_6_0151DA29
// 035   ----------------------------------------
 BYTE   PATT
  POIN2 Label_6_0151DA29
// 036   ----------------------------------------
 BYTE   PATT
  POIN2 Label_6_0151DA41
// 037   ----------------------------------------
 BYTE   PATT
  POIN2 Label_6_0151DA29
// 038   ----------------------------------------
 BYTE   PATT
  POIN2 Label_6_0151DA29
// 039   ----------------------------------------
 BYTE   PATT
  POIN2 Label_6_0151DA29
// 040   ----------------------------------------
 BYTE   PATT
  POIN2 Label_6_0151DA41
// 041   ----------------------------------------
 BYTE   PATT
  POIN2 Label_6_0151DA29
// 042   ----------------------------------------
 BYTE   PATT
  POIN2 Label_6_0151DA29
// 043   ----------------------------------------
 BYTE   PATT
  POIN2 Label_6_0151DA29
// 044   ----------------------------------------
 BYTE   PATT
  POIN2 Label_6_0151DA41
// 045   ----------------------------------------
 BYTE   PATT
  POIN2 Label_6_0151DA29
// 046   ----------------------------------------
 BYTE   PATT
  POIN2 Label_6_0151DA29
// 047   ----------------------------------------
 BYTE   PATT
  POIN2 Label_6_0151DA29
// 048   ----------------------------------------
 BYTE   PATT
  POIN2 Label_6_0151DA41
// 049   ----------------------------------------
 BYTE   PATT
  POIN2 Label_6_0151DA29
// 050   ----------------------------------------
 BYTE   PATT
  POIN2 Label_6_0151DA29
// 051   ----------------------------------------
 BYTE   PATT
  POIN2 Label_6_0151DA29
// 052   ----------------------------------------
 BYTE   PATT
  POIN2 Label_6_0151DA41
// 053   ----------------------------------------
 BYTE   VOL   33*DKC2StickerbrushSymphonyRetina_mvl/mxv
 BYTE   W04
 BYTE   VOL   33*DKC2StickerbrushSymphonyRetina_mvl/mxv
 BYTE   W04
 BYTE   VOL   32*DKC2StickerbrushSymphonyRetina_mvl/mxv
 BYTE   W04
 BYTE   VOL   31*DKC2StickerbrushSymphonyRetina_mvl/mxv
 BYTE   N06  Bn3  v072
 BYTE   W04
 BYTE   VOL   31*DKC2StickerbrushSymphonyRetina_mvl/mxv
 BYTE   W03
 BYTE   VOL   30*DKC2StickerbrushSymphonyRetina_mvl/mxv
 BYTE   W05
 BYTE   VOL   30*DKC2StickerbrushSymphonyRetina_mvl/mxv
 BYTE   N06  Cn4
 BYTE   W03
 BYTE   VOL   29*DKC2StickerbrushSymphonyRetina_mvl/mxv
 BYTE   W04
 BYTE   VOL   29*DKC2StickerbrushSymphonyRetina_mvl/mxv
 BYTE   W04
 BYTE   VOL   28*DKC2StickerbrushSymphonyRetina_mvl/mxv
 BYTE   W04
 BYTE   VOL   28*DKC2StickerbrushSymphonyRetina_mvl/mxv
 BYTE   W03
 BYTE   VOL   27*DKC2StickerbrushSymphonyRetina_mvl/mxv
 BYTE   N06  Bn3
 BYTE   W04
 BYTE   VOL   27*DKC2StickerbrushSymphonyRetina_mvl/mxv
 BYTE   W04
 BYTE   VOL   26*DKC2StickerbrushSymphonyRetina_mvl/mxv
 BYTE   W04
 BYTE   VOL   25*DKC2StickerbrushSymphonyRetina_mvl/mxv
 BYTE   W04
 BYTE   VOL   25*DKC2StickerbrushSymphonyRetina_mvl/mxv
 BYTE   W02
 BYTE   N06  Cn4
 BYTE   W02
 BYTE   VOL   25*DKC2StickerbrushSymphonyRetina_mvl/mxv
 BYTE   W03
 BYTE   VOL   24*DKC2StickerbrushSymphonyRetina_mvl/mxv
 BYTE   W04
 BYTE   VOL   24*DKC2StickerbrushSymphonyRetina_mvl/mxv
 BYTE   W03
 BYTE   N06  Gn3
 BYTE   W01
 BYTE   VOL   23*DKC2StickerbrushSymphonyRetina_mvl/mxv
 BYTE   W04
 BYTE   VOL   23*DKC2StickerbrushSymphonyRetina_mvl/mxv
 BYTE   W04
 BYTE   VOL   22*DKC2StickerbrushSymphonyRetina_mvl/mxv
 BYTE   W04
 BYTE   VOL   22*DKC2StickerbrushSymphonyRetina_mvl/mxv
 BYTE   W04
 BYTE   VOL   21*DKC2StickerbrushSymphonyRetina_mvl/mxv
 BYTE   W03
 BYTE   VOL   21*DKC2StickerbrushSymphonyRetina_mvl/mxv
 BYTE   W04
// 054   ----------------------------------------
 BYTE   GoTo
  POIN2 Label_6_0151DA67
// 055   ----------------------------------------
 BYTE   VOL   20*DKC2StickerbrushSymphonyRetina_mvl/mxv
 BYTE   W04
 BYTE   VOL   20*DKC2StickerbrushSymphonyRetina_mvl/mxv
 BYTE   W04
 BYTE   VOL   19*DKC2StickerbrushSymphonyRetina_mvl/mxv
 BYTE   W04
 BYTE   VOL   19*DKC2StickerbrushSymphonyRetina_mvl/mxv
 BYTE   N06  Bn3  v072
 BYTE   W04
 BYTE   VOL   18*DKC2StickerbrushSymphonyRetina_mvl/mxv
 BYTE   W03
 BYTE   VOL   18*DKC2StickerbrushSymphonyRetina_mvl/mxv
 BYTE   W04
 BYTE   VOL   18*DKC2StickerbrushSymphonyRetina_mvl/mxv
 BYTE   W01
 BYTE   N06  Cn4
 BYTE   W03
 BYTE   VOL   17*DKC2StickerbrushSymphonyRetina_mvl/mxv
 BYTE   W04
 BYTE   VOL   17*DKC2StickerbrushSymphonyRetina_mvl/mxv
 BYTE   W03
 BYTE   VOL   16*DKC2StickerbrushSymphonyRetina_mvl/mxv
 BYTE   W05
 BYTE   VOL   16*DKC2StickerbrushSymphonyRetina_mvl/mxv
 BYTE   W03
 BYTE   VOL   16*DKC2StickerbrushSymphonyRetina_mvl/mxv
 BYTE   N06  Bn3
 BYTE   W04
 BYTE   VOL   15*DKC2StickerbrushSymphonyRetina_mvl/mxv
 BYTE   W04
 BYTE   VOL   14*DKC2StickerbrushSymphonyRetina_mvl/mxv
 BYTE   W04
 BYTE   VOL   14*DKC2StickerbrushSymphonyRetina_mvl/mxv
 BYTE   W03
 BYTE   VOL   14*DKC2StickerbrushSymphonyRetina_mvl/mxv
 BYTE   W03
 BYTE   N06  Cn4
 BYTE   W02
 BYTE   VOL   13*DKC2StickerbrushSymphonyRetina_mvl/mxv
 BYTE   W03
 BYTE   VOL   13*DKC2StickerbrushSymphonyRetina_mvl/mxv
 BYTE   W04
 BYTE   VOL   12*DKC2StickerbrushSymphonyRetina_mvl/mxv
 BYTE   W03
 BYTE   N06  Gn3
 BYTE   W01
 BYTE   VOL   12*DKC2StickerbrushSymphonyRetina_mvl/mxv
 BYTE   W04
 BYTE   VOL   12*DKC2StickerbrushSymphonyRetina_mvl/mxv
 BYTE   W04
 BYTE   VOL   12*DKC2StickerbrushSymphonyRetina_mvl/mxv
 BYTE   W04
 BYTE   VOL   11*DKC2StickerbrushSymphonyRetina_mvl/mxv
 BYTE   W03
 BYTE   VOL   11*DKC2StickerbrushSymphonyRetina_mvl/mxv
 BYTE   W04
 BYTE   VOL   11*DKC2StickerbrushSymphonyRetina_mvl/mxv
 BYTE   W04
// 056   ----------------------------------------
 BYTE   VOL   10*DKC2StickerbrushSymphonyRetina_mvl/mxv
 BYTE   W04
 BYTE   VOL   10*DKC2StickerbrushSymphonyRetina_mvl/mxv
 BYTE   W04
 BYTE   VOL   9*DKC2StickerbrushSymphonyRetina_mvl/mxv
 BYTE   W04
 BYTE   VOL   9*DKC2StickerbrushSymphonyRetina_mvl/mxv
 BYTE   N06  Bn3
 BYTE   W03
 BYTE   VOL   9*DKC2StickerbrushSymphonyRetina_mvl/mxv
 BYTE   W04
 BYTE   VOL   9*DKC2StickerbrushSymphonyRetina_mvl/mxv
 BYTE   W04
 BYTE   VOL   8*DKC2StickerbrushSymphonyRetina_mvl/mxv
 BYTE   W01
 BYTE   N06  Cn4
 BYTE   W03
 BYTE   VOL   8*DKC2StickerbrushSymphonyRetina_mvl/mxv
 BYTE   W04
 BYTE   VOL   7*DKC2StickerbrushSymphonyRetina_mvl/mxv
 BYTE   W03
 BYTE   VOL   7*DKC2StickerbrushSymphonyRetina_mvl/mxv
 BYTE   W04
 BYTE   VOL   7*DKC2StickerbrushSymphonyRetina_mvl/mxv
 BYTE   W04
 BYTE   VOL   7*DKC2StickerbrushSymphonyRetina_mvl/mxv
 BYTE   N06  Bn3
 BYTE   W04
 BYTE   VOL   6*DKC2StickerbrushSymphonyRetina_mvl/mxv
 BYTE   W04
 BYTE   VOL   6*DKC2StickerbrushSymphonyRetina_mvl/mxv
 BYTE   W04
 BYTE   VOL   6*DKC2StickerbrushSymphonyRetina_mvl/mxv
 BYTE   W03
 BYTE   VOL   5*DKC2StickerbrushSymphonyRetina_mvl/mxv
 BYTE   W03
 BYTE   N06  Cn4
 BYTE   W02
 BYTE   VOL   5*DKC2StickerbrushSymphonyRetina_mvl/mxv
 BYTE   W03
 BYTE   VOL   5*DKC2StickerbrushSymphonyRetina_mvl/mxv
 BYTE   W04
 BYTE   VOL   5*DKC2StickerbrushSymphonyRetina_mvl/mxv
 BYTE   W03
 BYTE   N06  Gn3
 BYTE   W01
 BYTE   VOL   4*DKC2StickerbrushSymphonyRetina_mvl/mxv
 BYTE   W04
 BYTE   VOL   4*DKC2StickerbrushSymphonyRetina_mvl/mxv
 BYTE   W03
 BYTE   VOL   4*DKC2StickerbrushSymphonyRetina_mvl/mxv
 BYTE   W05
 BYTE   VOL   3*DKC2StickerbrushSymphonyRetina_mvl/mxv
 BYTE   W03
 BYTE   VOL   3*DKC2StickerbrushSymphonyRetina_mvl/mxv
 BYTE   W04
 BYTE   VOL   3*DKC2StickerbrushSymphonyRetina_mvl/mxv
 BYTE   W04
// 057   ----------------------------------------
 BYTE   VOL   3*DKC2StickerbrushSymphonyRetina_mvl/mxv
 BYTE   W04
 BYTE   VOL   3*DKC2StickerbrushSymphonyRetina_mvl/mxv
 BYTE   W03
 BYTE   VOL   2*DKC2StickerbrushSymphonyRetina_mvl/mxv
 BYTE   W05
 BYTE   VOL   2*DKC2StickerbrushSymphonyRetina_mvl/mxv
 BYTE   N06  Bn3
 BYTE   W03
 BYTE   VOL   2*DKC2StickerbrushSymphonyRetina_mvl/mxv
 BYTE   W04
 BYTE   VOL   2*DKC2StickerbrushSymphonyRetina_mvl/mxv
 BYTE   W04
 BYTE   VOL   1*DKC2StickerbrushSymphonyRetina_mvl/mxv
 BYTE   W01
 BYTE   N06  Cn4
 BYTE   W03
 BYTE   VOL   1*DKC2StickerbrushSymphonyRetina_mvl/mxv
 BYTE   W04
 BYTE   VOL   1*DKC2StickerbrushSymphonyRetina_mvl/mxv
 BYTE   W03
 BYTE   VOL   1*DKC2StickerbrushSymphonyRetina_mvl/mxv
 BYTE   W04
 BYTE   VOL   1*DKC2StickerbrushSymphonyRetina_mvl/mxv
 BYTE   W04
 BYTE   VOL   1*DKC2StickerbrushSymphonyRetina_mvl/mxv
 BYTE   N06  Bn3
 BYTE   W04
 BYTE   VOL   1*DKC2StickerbrushSymphonyRetina_mvl/mxv
 BYTE   W04
 BYTE   VOL   0*DKC2StickerbrushSymphonyRetina_mvl/mxv
 BYTE   W04
 BYTE   VOL   0*DKC2StickerbrushSymphonyRetina_mvl/mxv
 BYTE   W03
 BYTE   VOL   0*DKC2StickerbrushSymphonyRetina_mvl/mxv
 BYTE   W03
 BYTE   N06  Cn4
 BYTE   W01
 BYTE   VOL   0*DKC2StickerbrushSymphonyRetina_mvl/mxv
 BYTE   W04
 BYTE   VOL   0*DKC2StickerbrushSymphonyRetina_mvl/mxv
 BYTE   W04
 BYTE   VOL   0*DKC2StickerbrushSymphonyRetina_mvl/mxv
 BYTE   W03
 BYTE   N06  Gn3
 BYTE   W01
 BYTE   VOL   0*DKC2StickerbrushSymphonyRetina_mvl/mxv
 BYTE   W04
 BYTE   VOL   0*DKC2StickerbrushSymphonyRetina_mvl/mxv
 BYTE   W03
 BYTE   VOL   0*DKC2StickerbrushSymphonyRetina_mvl/mxv
 BYTE   W04
 BYTE   VOL   0*DKC2StickerbrushSymphonyRetina_mvl/mxv
 BYTE   N06  Gn4
 BYTE   W04
 BYTE   VOL   0*DKC2StickerbrushSymphonyRetina_mvl/mxv
 BYTE   W02
 BYTE   N06
 BYTE   W02
 BYTE   VOL   0*DKC2StickerbrushSymphonyRetina_mvl/mxv
 BYTE   W04
// 058   ----------------------------------------
 BYTE   VOL   0*DKC2StickerbrushSymphonyRetina_mvl/mxv
 BYTE   FINE

//**************** Track 8 (Midi-Chn.7) ****************//

DKC2StickerbrushSymphonyRetina_008:
// 000   ----------------------------------------
 BYTE   KEYSH   DKC2StickerbrushSymphonyRetina_key+0
 BYTE   VOICE   105
 BYTE   MODT 0
 BYTE   CnM2  v000
 BYTE   LFOS 0
 BYTE   CnM2  v044
 BYTE   VOL   33*DKC2StickerbrushSymphonyRetina_mvl/mxv
 BYTE   PAN   c_v+32
 BYTE   W06
 BYTE   W90
// 001   ----------------------------------------
Label_7_0161AD12:
 BYTE   W18
 BYTE   N06  Bn3  v036
 BYTE   W12
 BYTE   Cn4
 BYTE   W18
 BYTE   Bn3
 BYTE   W18
 BYTE   Cn4
 BYTE   W12
 BYTE   Gn3
 BYTE   W18
 BYTE   PEND 
// 002   ----------------------------------------
 BYTE   PATT
  POIN2 Label_7_0161AD12
// 003   ----------------------------------------
 BYTE   PATT
  POIN2 Label_7_0161AD12
// 004   ----------------------------------------
Label_7_0161AD2A:
 BYTE   W18
 BYTE   N06  Bn3  v036
 BYTE   W12
 BYTE   Cn4
 BYTE   W18
 BYTE   Bn3
 BYTE   W18
 BYTE   Cn4
 BYTE   W12
 BYTE   Gn3
 BYTE   W12
 BYTE   Gn4
 BYTE   W06
 BYTE   PEND 
// 005   ----------------------------------------
Label_7_0161AD3A:
 BYTE   N06  Gn4  v036
 BYTE   W18
 BYTE   Bn3
 BYTE   W12
 BYTE   Cn4
 BYTE   W18
 BYTE   Bn3
 BYTE   W18
 BYTE   Cn4
 BYTE   W12
 BYTE   Gn3
 BYTE   W18
 BYTE   PEND 
// 006   ----------------------------------------
 BYTE   PATT
  POIN2 Label_7_0161AD12
// 007   ----------------------------------------
 BYTE   PATT
  POIN2 Label_7_0161AD12
// 008   ----------------------------------------
 BYTE   PATT
  POIN2 Label_7_0161AD2A
// 009   ----------------------------------------
Label_7_0161AD58:
 BYTE   VOL   33*DKC2StickerbrushSymphonyRetina_mvl/mxv
 BYTE   N06  Gn4  v036
 BYTE   W18
 BYTE   Bn3
 BYTE   W12
 BYTE   Cn4
 BYTE   W18
 BYTE   Bn3
 BYTE   W18
 BYTE   Cn4
 BYTE   W12
 BYTE   Gn3
 BYTE   W18
// 010   ----------------------------------------
 BYTE   PATT
  POIN2 Label_7_0161AD12
// 011   ----------------------------------------
 BYTE   PATT
  POIN2 Label_7_0161AD12
// 012   ----------------------------------------
 BYTE   PATT
  POIN2 Label_7_0161AD2A
// 013   ----------------------------------------
 BYTE   PATT
  POIN2 Label_7_0161AD3A
// 014   ----------------------------------------
 BYTE   PATT
  POIN2 Label_7_0161AD12
// 015   ----------------------------------------
 BYTE   PATT
  POIN2 Label_7_0161AD12
// 016   ----------------------------------------
 BYTE   PATT
  POIN2 Label_7_0161AD2A
// 017   ----------------------------------------
 BYTE   PATT
  POIN2 Label_7_0161AD3A
// 018   ----------------------------------------
 BYTE   PATT
  POIN2 Label_7_0161AD12
// 019   ----------------------------------------
 BYTE   PATT
  POIN2 Label_7_0161AD12
// 020   ----------------------------------------
 BYTE   PATT
  POIN2 Label_7_0161AD2A
// 021   ----------------------------------------
 BYTE   PATT
  POIN2 Label_7_0161AD3A
// 022   ----------------------------------------
 BYTE   PATT
  POIN2 Label_7_0161AD12
// 023   ----------------------------------------
 BYTE   PATT
  POIN2 Label_7_0161AD12
// 024   ----------------------------------------
 BYTE   PATT
  POIN2 Label_7_0161AD2A
// 025   ----------------------------------------
 BYTE   PATT
  POIN2 Label_7_0161AD3A
// 026   ----------------------------------------
 BYTE   PATT
  POIN2 Label_7_0161AD12
// 027   ----------------------------------------
 BYTE   PATT
  POIN2 Label_7_0161AD12
// 028   ----------------------------------------
 BYTE   PATT
  POIN2 Label_7_0161AD2A
// 029   ----------------------------------------
 BYTE   PATT
  POIN2 Label_7_0161AD3A
// 030   ----------------------------------------
 BYTE   PATT
  POIN2 Label_7_0161AD12
// 031   ----------------------------------------
 BYTE   PATT
  POIN2 Label_7_0161AD12
// 032   ----------------------------------------
 BYTE   PATT
  POIN2 Label_7_0161AD2A
// 033   ----------------------------------------
 BYTE   PATT
  POIN2 Label_7_0161AD3A
// 034   ----------------------------------------
 BYTE   PATT
  POIN2 Label_7_0161AD12
// 035   ----------------------------------------
 BYTE   PATT
  POIN2 Label_7_0161AD12
// 036   ----------------------------------------
 BYTE   PATT
  POIN2 Label_7_0161AD2A
// 037   ----------------------------------------
 BYTE   PATT
  POIN2 Label_7_0161AD3A
// 038   ----------------------------------------
 BYTE   PATT
  POIN2 Label_7_0161AD12
// 039   ----------------------------------------
 BYTE   PATT
  POIN2 Label_7_0161AD12
// 040   ----------------------------------------
 BYTE   PATT
  POIN2 Label_7_0161AD2A
// 041   ----------------------------------------
 BYTE   PATT
  POIN2 Label_7_0161AD12
// 042   ----------------------------------------
 BYTE   PATT
  POIN2 Label_7_0161AD12
// 043   ----------------------------------------
 BYTE   PATT
  POIN2 Label_7_0161AD12
// 044   ----------------------------------------
 BYTE   PATT
  POIN2 Label_7_0161AD2A
// 045   ----------------------------------------
 BYTE   PATT
  POIN2 Label_7_0161AD12
// 046   ----------------------------------------
 BYTE   PATT
  POIN2 Label_7_0161AD12
// 047   ----------------------------------------
 BYTE   PATT
  POIN2 Label_7_0161AD12
// 048   ----------------------------------------
 BYTE   PATT
  POIN2 Label_7_0161AD2A
// 049   ----------------------------------------
 BYTE   PATT
  POIN2 Label_7_0161AD3A
// 050   ----------------------------------------
 BYTE   PATT
  POIN2 Label_7_0161AD12
// 051   ----------------------------------------
 BYTE   PATT
  POIN2 Label_7_0161AD12
// 052   ----------------------------------------
 BYTE   PATT
  POIN2 Label_7_0161AD2A
// 053   ----------------------------------------
 BYTE   VOL   33*DKC2StickerbrushSymphonyRetina_mvl/mxv
 BYTE   N06  Gn4  v036
 BYTE   W04
 BYTE   VOL   33*DKC2StickerbrushSymphonyRetina_mvl/mxv
 BYTE   W03
 BYTE   VOL   32*DKC2StickerbrushSymphonyRetina_mvl/mxv
 BYTE   W05
 BYTE   VOL   31*DKC2StickerbrushSymphonyRetina_mvl/mxv
 BYTE   W03
 BYTE   VOL   31*DKC2StickerbrushSymphonyRetina_mvl/mxv
 BYTE   W03
 BYTE   N06  Bn3
 BYTE   W01
 BYTE   VOL   30*DKC2StickerbrushSymphonyRetina_mvl/mxv
 BYTE   W04
 BYTE   VOL   30*DKC2StickerbrushSymphonyRetina_mvl/mxv
 BYTE   W04
 BYTE   VOL   29*DKC2StickerbrushSymphonyRetina_mvl/mxv
 BYTE   W03
 BYTE   VOL   29*DKC2StickerbrushSymphonyRetina_mvl/mxv
 BYTE   N06  Cn4
 BYTE   W04
 BYTE   VOL   28*DKC2StickerbrushSymphonyRetina_mvl/mxv
 BYTE   W04
 BYTE   VOL   28*DKC2StickerbrushSymphonyRetina_mvl/mxv
 BYTE   W04
 BYTE   VOL   27*DKC2StickerbrushSymphonyRetina_mvl/mxv
 BYTE   W04
 BYTE   VOL   27*DKC2StickerbrushSymphonyRetina_mvl/mxv
 BYTE   W02
 BYTE   N06  Bn3
 BYTE   W02
 BYTE   VOL   26*DKC2StickerbrushSymphonyRetina_mvl/mxv
 BYTE   W03
 BYTE   VOL   25*DKC2StickerbrushSymphonyRetina_mvl/mxv
 BYTE   W04
 BYTE   VOL   25*DKC2StickerbrushSymphonyRetina_mvl/mxv
 BYTE   W04
 BYTE   VOL   25*DKC2StickerbrushSymphonyRetina_mvl/mxv
 BYTE   W04
 BYTE   VOL   24*DKC2StickerbrushSymphonyRetina_mvl/mxv
 BYTE   W01
 BYTE   N06  Cn4
 BYTE   W03
 BYTE   VOL   24*DKC2StickerbrushSymphonyRetina_mvl/mxv
 BYTE   W04
 BYTE   VOL   23*DKC2StickerbrushSymphonyRetina_mvl/mxv
 BYTE   W03
 BYTE   VOL   23*DKC2StickerbrushSymphonyRetina_mvl/mxv
 BYTE   W02
 BYTE   N06  Gn3
 BYTE   W02
 BYTE   VOL   22*DKC2StickerbrushSymphonyRetina_mvl/mxv
 BYTE   W04
 BYTE   VOL   22*DKC2StickerbrushSymphonyRetina_mvl/mxv
 BYTE   W04
 BYTE   VOL   21*DKC2StickerbrushSymphonyRetina_mvl/mxv
 BYTE   W04
 BYTE   VOL   21*DKC2StickerbrushSymphonyRetina_mvl/mxv
 BYTE   W04
// 054   ----------------------------------------
 BYTE   GoTo
  POIN2 Label_7_0161AD58
// 055   ----------------------------------------
 BYTE   VOL   20*DKC2StickerbrushSymphonyRetina_mvl/mxv
 BYTE   W04
 BYTE   VOL   20*DKC2StickerbrushSymphonyRetina_mvl/mxv
 BYTE   W03
 BYTE   VOL   19*DKC2StickerbrushSymphonyRetina_mvl/mxv
 BYTE   W04
 BYTE   VOL   19*DKC2StickerbrushSymphonyRetina_mvl/mxv
 BYTE   W04
 BYTE   VOL   18*DKC2StickerbrushSymphonyRetina_mvl/mxv
 BYTE   W03
 BYTE   N06  Bn3  v036
 BYTE   W01
 BYTE   VOL   18*DKC2StickerbrushSymphonyRetina_mvl/mxv
 BYTE   W03
 BYTE   VOL   18*DKC2StickerbrushSymphonyRetina_mvl/mxv
 BYTE   W05
 BYTE   VOL   17*DKC2StickerbrushSymphonyRetina_mvl/mxv
 BYTE   W03
 BYTE   VOL   17*DKC2StickerbrushSymphonyRetina_mvl/mxv
 BYTE   N06  Cn4
 BYTE   W04
 BYTE   VOL   16*DKC2StickerbrushSymphonyRetina_mvl/mxv
 BYTE   W04
 BYTE   VOL   16*DKC2StickerbrushSymphonyRetina_mvl/mxv
 BYTE   W04
 BYTE   VOL   16*DKC2StickerbrushSymphonyRetina_mvl/mxv
 BYTE   W03
 BYTE   VOL   15*DKC2StickerbrushSymphonyRetina_mvl/mxv
 BYTE   W03
 BYTE   N06  Bn3
 BYTE   W02
 BYTE   VOL   14*DKC2StickerbrushSymphonyRetina_mvl/mxv
 BYTE   W03
 BYTE   VOL   14*DKC2StickerbrushSymphonyRetina_mvl/mxv
 BYTE   W04
 BYTE   VOL   14*DKC2StickerbrushSymphonyRetina_mvl/mxv
 BYTE   W04
 BYTE   VOL   13*DKC2StickerbrushSymphonyRetina_mvl/mxv
 BYTE   W04
 BYTE   VOL   13*DKC2StickerbrushSymphonyRetina_mvl/mxv
 BYTE   W01
 BYTE   N06  Cn4
 BYTE   W03
 BYTE   VOL   12*DKC2StickerbrushSymphonyRetina_mvl/mxv
 BYTE   W04
 BYTE   VOL   12*DKC2StickerbrushSymphonyRetina_mvl/mxv
 BYTE   W03
 BYTE   VOL   12*DKC2StickerbrushSymphonyRetina_mvl/mxv
 BYTE   W02
 BYTE   N06  Gn3
 BYTE   W02
 BYTE   VOL   12*DKC2StickerbrushSymphonyRetina_mvl/mxv
 BYTE   W04
 BYTE   VOL   11*DKC2StickerbrushSymphonyRetina_mvl/mxv
 BYTE   W04
 BYTE   VOL   11*DKC2StickerbrushSymphonyRetina_mvl/mxv
 BYTE   W04
 BYTE   VOL   11*DKC2StickerbrushSymphonyRetina_mvl/mxv
 BYTE   W04
// 056   ----------------------------------------
 BYTE   VOL   10*DKC2StickerbrushSymphonyRetina_mvl/mxv
 BYTE   W03
 BYTE   VOL   10*DKC2StickerbrushSymphonyRetina_mvl/mxv
 BYTE   W04
 BYTE   VOL   9*DKC2StickerbrushSymphonyRetina_mvl/mxv
 BYTE   W04
 BYTE   VOL   9*DKC2StickerbrushSymphonyRetina_mvl/mxv
 BYTE   W04
 BYTE   VOL   9*DKC2StickerbrushSymphonyRetina_mvl/mxv
 BYTE   W03
 BYTE   N06  Bn3
 BYTE   W01
 BYTE   VOL   9*DKC2StickerbrushSymphonyRetina_mvl/mxv
 BYTE   W03
 BYTE   VOL   8*DKC2StickerbrushSymphonyRetina_mvl/mxv
 BYTE   W04
 BYTE   VOL   8*DKC2StickerbrushSymphonyRetina_mvl/mxv
 BYTE   W04
 BYTE   VOL   7*DKC2StickerbrushSymphonyRetina_mvl/mxv
 BYTE   N06  Cn4
 BYTE   W04
 BYTE   VOL   7*DKC2StickerbrushSymphonyRetina_mvl/mxv
 BYTE   W04
 BYTE   VOL   7*DKC2StickerbrushSymphonyRetina_mvl/mxv
 BYTE   W04
 BYTE   VOL   7*DKC2StickerbrushSymphonyRetina_mvl/mxv
 BYTE   W03
 BYTE   VOL   6*DKC2StickerbrushSymphonyRetina_mvl/mxv
 BYTE   W03
 BYTE   N06  Bn3
 BYTE   W02
 BYTE   VOL   6*DKC2StickerbrushSymphonyRetina_mvl/mxv
 BYTE   W03
 BYTE   VOL   6*DKC2StickerbrushSymphonyRetina_mvl/mxv
 BYTE   W04
 BYTE   VOL   5*DKC2StickerbrushSymphonyRetina_mvl/mxv
 BYTE   W04
 BYTE   VOL   5*DKC2StickerbrushSymphonyRetina_mvl/mxv
 BYTE   W04
 BYTE   VOL   5*DKC2StickerbrushSymphonyRetina_mvl/mxv
 BYTE   W01
 BYTE   N06  Cn4
 BYTE   W02
 BYTE   VOL   5*DKC2StickerbrushSymphonyRetina_mvl/mxv
 BYTE   W05
 BYTE   VOL   4*DKC2StickerbrushSymphonyRetina_mvl/mxv
 BYTE   W03
 BYTE   VOL   4*DKC2StickerbrushSymphonyRetina_mvl/mxv
 BYTE   W02
 BYTE   N06  Gn3
 BYTE   W02
 BYTE   VOL   4*DKC2StickerbrushSymphonyRetina_mvl/mxv
 BYTE   W04
 BYTE   VOL   3*DKC2StickerbrushSymphonyRetina_mvl/mxv
 BYTE   W04
 BYTE   VOL   3*DKC2StickerbrushSymphonyRetina_mvl/mxv
 BYTE   W03
 BYTE   VOL   3*DKC2StickerbrushSymphonyRetina_mvl/mxv
 BYTE   W05
// 057   ----------------------------------------
 BYTE   VOL   3*DKC2StickerbrushSymphonyRetina_mvl/mxv
 BYTE   W03
 BYTE   VOL   3*DKC2StickerbrushSymphonyRetina_mvl/mxv
 BYTE   W04
 BYTE   VOL   2*DKC2StickerbrushSymphonyRetina_mvl/mxv
 BYTE   W04
 BYTE   VOL   2*DKC2StickerbrushSymphonyRetina_mvl/mxv
 BYTE   W04
 BYTE   VOL   2*DKC2StickerbrushSymphonyRetina_mvl/mxv
 BYTE   W03
 BYTE   VOL   2*DKC2StickerbrushSymphonyRetina_mvl/mxv
 BYTE   N06  Bn3
 BYTE   W04
 BYTE   VOL   1*DKC2StickerbrushSymphonyRetina_mvl/mxv
 BYTE   W04
 BYTE   VOL   1*DKC2StickerbrushSymphonyRetina_mvl/mxv
 BYTE   W04
 BYTE   VOL   1*DKC2StickerbrushSymphonyRetina_mvl/mxv
 BYTE   N06  Cn4
 BYTE   W04
 BYTE   VOL   1*DKC2StickerbrushSymphonyRetina_mvl/mxv
 BYTE   W04
 BYTE   VOL   1*DKC2StickerbrushSymphonyRetina_mvl/mxv
 BYTE   W04
 BYTE   VOL   1*DKC2StickerbrushSymphonyRetina_mvl/mxv
 BYTE   W03
 BYTE   VOL   1*DKC2StickerbrushSymphonyRetina_mvl/mxv
 BYTE   W03
 BYTE   N06  Bn3
 BYTE   W01
 BYTE   VOL   0*DKC2StickerbrushSymphonyRetina_mvl/mxv
 BYTE   W04
 BYTE   VOL   0*DKC2StickerbrushSymphonyRetina_mvl/mxv
 BYTE   W04
 BYTE   VOL   0*DKC2StickerbrushSymphonyRetina_mvl/mxv
 BYTE   W04
 BYTE   VOL   0*DKC2StickerbrushSymphonyRetina_mvl/mxv
 BYTE   W04
 BYTE   VOL   0*DKC2StickerbrushSymphonyRetina_mvl/mxv
 BYTE   W01
 BYTE   N06  Cn4
 BYTE   W02
 BYTE   VOL   0*DKC2StickerbrushSymphonyRetina_mvl/mxv
 BYTE   W04
 BYTE   VOL   0*DKC2StickerbrushSymphonyRetina_mvl/mxv
 BYTE   W04
 BYTE   VOL   0*DKC2StickerbrushSymphonyRetina_mvl/mxv
 BYTE   W02
 BYTE   N06  Gn3
 BYTE   W02
 BYTE   VOL   0*DKC2StickerbrushSymphonyRetina_mvl/mxv
 BYTE   W04
 BYTE   VOL   0*DKC2StickerbrushSymphonyRetina_mvl/mxv
 BYTE   W04
 BYTE   VOL   0*DKC2StickerbrushSymphonyRetina_mvl/mxv
 BYTE   W02
 BYTE   N06  Gn4
 BYTE   W01
 BYTE   VOL   0*DKC2StickerbrushSymphonyRetina_mvl/mxv
 BYTE   W04
 BYTE   VOL   0*DKC2StickerbrushSymphonyRetina_mvl/mxv
 BYTE   W01
 BYTE   FINE

//**************** Track 9 (Midi-Chn.8) ****************//

DKC2StickerbrushSymphonyRetina_009:
// 000   ----------------------------------------
 BYTE   KEYSH   DKC2StickerbrushSymphonyRetina_key+0
 BYTE   VOICE   89
 BYTE   MODT 0
 BYTE   CnM2  v000
 BYTE   LFOS 0
 BYTE   CnM2  v044
 BYTE   VOL   23*DKC2StickerbrushSymphonyRetina_mvl/mxv
 BYTE   PAN   c_v+0
 BYTE   W96
// 001   ----------------------------------------
Label_8_014B3E65:
 BYTE   TIE  An1  v088
 BYTE   TIE  En2
 BYTE   TIE  An2
 BYTE   W06
 BYTE   W06
 BYTE   W06
 BYTE   W06
 BYTE   W06
 BYTE   W06
 BYTE   W06
 BYTE   W06
 BYTE   W05
 BYTE   W07
 BYTE   W05
 BYTE   W07
 BYTE   W05
 BYTE   W07
 BYTE   W05
 BYTE   W06
 BYTE   W01
 BYTE   PEND 
// 002   ----------------------------------------
Label_8_014B3E7E:
 BYTE   W05
 BYTE   W05
 BYTE   W06
 BYTE   W06
 BYTE   W06
 BYTE   W05
 BYTE   W06
 BYTE   W05
 BYTE   W06
 BYTE   W06
 BYTE   W06
 BYTE   W05
 BYTE   W06
 BYTE   W05
 BYTE   W06
 BYTE   W06
 BYTE   W05
 BYTE   W01
 BYTE   PEND 
// 003   ----------------------------------------
 BYTE   EOT
 BYTE   An1  v052
 BYTE   An2
Label_8_014B3E95:
 BYTE   TIE  Cn2  v088
 BYTE   TIE  Gn2
 BYTE   TIE  Cn3
 BYTE   W06
 BYTE   W06
 BYTE   W06
 BYTE   W06
 BYTE   W06
 BYTE   W06
 BYTE   W06
 BYTE   W06
 BYTE   W05
 BYTE   W07
 BYTE   W05
 BYTE   W07
 BYTE   W05
 BYTE   W07
 BYTE   W05
 BYTE   W06
 BYTE   W01
 BYTE   PEND 
// 004   ----------------------------------------
 BYTE   PATT
  POIN2 Label_8_014B3E7E
// 005   ----------------------------------------
 BYTE   EOT
 BYTE   Cn2  v055
 BYTE   Cn3
// 006   ----------------------------------------
 BYTE   PATT
  POIN2 Label_8_014B3E65
// 007   ----------------------------------------
 BYTE   PATT
  POIN2 Label_8_014B3E7E
// 008   ----------------------------------------
 BYTE   EOT
 BYTE   An1  v052
 BYTE   An2
// 009   ----------------------------------------
 BYTE   PATT
  POIN2 Label_8_014B3E95
// 010   ----------------------------------------
 BYTE   PATT
  POIN2 Label_8_014B3E7E
// 011   ----------------------------------------
 BYTE   EOT
 BYTE   Cn2  v055
 BYTE   Cn3
Label_8_014B3ED3:
 BYTE   VOL   23*DKC2StickerbrushSymphonyRetina_mvl/mxv
 BYTE   N96  An3  v088
 BYTE   N96  Cn4
 BYTE   N96  En4
 BYTE   W96
// 012   ----------------------------------------
Label_8_014B3EDD:
 BYTE   TIE  Gn3  v088
 BYTE   TIE  Bn3
 BYTE   TIE  Dn4
 BYTE   W06
 BYTE   W06
 BYTE   W06
 BYTE   W06
 BYTE   W06
 BYTE   W06
 BYTE   W06
 BYTE   W06
 BYTE   W05
 BYTE   W07
 BYTE   W05
 BYTE   W07
 BYTE   W05
 BYTE   W07
 BYTE   W05
 BYTE   W06
 BYTE   W01
 BYTE   PEND 
// 013   ----------------------------------------
 BYTE   PATT
  POIN2 Label_8_014B3E7E
// 014   ----------------------------------------
 BYTE   EOT
 BYTE   Gn3  v071
 BYTE   Dn4
 BYTE   N96  An3  v088
 BYTE   N96  Cn4
 BYTE   N96  En4
 BYTE   W06
 BYTE   W06
 BYTE   W06
 BYTE   W06
 BYTE   W06
 BYTE   W06
 BYTE   W06
 BYTE   W06
 BYTE   W05
 BYTE   W07
 BYTE   W05
 BYTE   W07
 BYTE   W05
 BYTE   W07
 BYTE   W05
 BYTE   W06
 BYTE   W01
// 015   ----------------------------------------
 BYTE   An3
 BYTE   N96  Cn4
 BYTE   N96  En4
 BYTE   W05
 BYTE   W05
 BYTE   W06
 BYTE   W06
 BYTE   W06
 BYTE   W05
 BYTE   W06
 BYTE   W05
 BYTE   W06
 BYTE   W06
 BYTE   W06
 BYTE   W05
 BYTE   W06
 BYTE   W05
 BYTE   W06
 BYTE   W06
 BYTE   W05
 BYTE   W01
// 016   ----------------------------------------
 BYTE   PATT
  POIN2 Label_8_014B3EDD
// 017   ----------------------------------------
 BYTE   PATT
  POIN2 Label_8_014B3E7E
// 018   ----------------------------------------
 BYTE   EOT
 BYTE   Gn3  v071
 BYTE   Dn4
 BYTE   N96  En4  v088
 BYTE   W96
// 019   ----------------------------------------
 BYTE   N96
 BYTE   W96
// 020   ----------------------------------------
 BYTE   TIE  Dn4
 BYTE   W96
// 021   ----------------------------------------
 BYTE   W96
// 022   ----------------------------------------
 BYTE   EOT
 BYTE   N96  En4
 BYTE   W96
// 023   ----------------------------------------
 BYTE   N96
 BYTE   W96
// 024   ----------------------------------------
 BYTE   TIE  Dn4
 BYTE   W96
// 025   ----------------------------------------
 BYTE   W96
// 026   ----------------------------------------
 BYTE   EOT
 BYTE   N96  En4
 BYTE   W96
// 027   ----------------------------------------
 BYTE   W96
// 028   ----------------------------------------
 BYTE   W96
// 029   ----------------------------------------
 BYTE   W96
// 030   ----------------------------------------
 BYTE   W96
// 031   ----------------------------------------
 BYTE   PATT
  POIN2 Label_8_014B3E65
// 032   ----------------------------------------
 BYTE   PATT
  POIN2 Label_8_014B3E7E
// 033   ----------------------------------------
 BYTE   EOT
 BYTE   An1  v052
 BYTE   An2
// 034   ----------------------------------------
 BYTE   PATT
  POIN2 Label_8_014B3E95
// 035   ----------------------------------------
 BYTE   PATT
  POIN2 Label_8_014B3E7E
// 036   ----------------------------------------
 BYTE   EOT
 BYTE   Cn2  v055
 BYTE   Cn3
// 037   ----------------------------------------
 BYTE   PATT
  POIN2 Label_8_014B3E65
// 038   ----------------------------------------
 BYTE   PATT
  POIN2 Label_8_014B3E7E
// 039   ----------------------------------------
 BYTE   EOT
 BYTE   An1  v052
 BYTE   An2
// 040   ----------------------------------------
 BYTE   PATT
  POIN2 Label_8_014B3E95
// 041   ----------------------------------------
 BYTE   PATT
  POIN2 Label_8_014B3E7E
// 042   ----------------------------------------
 BYTE   EOT
 BYTE   Cn2  v055
 BYTE   Cn3
 BYTE   N96  En4  v088
 BYTE   W96
// 043   ----------------------------------------
 BYTE   TIE  Dn4
 BYTE   W96
// 044   ----------------------------------------
 BYTE   W96
// 045   ----------------------------------------
 BYTE   EOT
 BYTE   N96  En4
 BYTE   W96
// 046   ----------------------------------------
 BYTE   N96
 BYTE   W96
// 047   ----------------------------------------
 BYTE   TIE  Dn4
 BYTE   W96
// 048   ----------------------------------------
 BYTE   W96
// 049   ----------------------------------------
 BYTE   EOT
 BYTE   N96  En4
 BYTE   W96
// 050   ----------------------------------------
 BYTE   W96
// 051   ----------------------------------------
 BYTE   W96
// 052   ----------------------------------------
 BYTE   W96
// 053   ----------------------------------------
 BYTE   W96
// 054   ----------------------------------------
 BYTE   W96
// 055   ----------------------------------------
 BYTE   W96
// 056   ----------------------------------------
 BYTE   W96
// 057   ----------------------------------------
 BYTE   W96
// 058   ----------------------------------------
 BYTE   VOL   33*DKC2StickerbrushSymphonyRetina_mvl/mxv
 BYTE   TIE  An1
 BYTE   TIE  En2
 BYTE   TIE  An2
 BYTE   W04
 BYTE   VOL   33*DKC2StickerbrushSymphonyRetina_mvl/mxv
 BYTE   W03
 BYTE   VOL   32*DKC2StickerbrushSymphonyRetina_mvl/mxv
 BYTE   W05
 BYTE   VOL   31*DKC2StickerbrushSymphonyRetina_mvl/mxv
 BYTE   W03
 BYTE   VOL   31*DKC2StickerbrushSymphonyRetina_mvl/mxv
 BYTE   W04
 BYTE   VOL   30*DKC2StickerbrushSymphonyRetina_mvl/mxv
 BYTE   W04
 BYTE   VOL   30*DKC2StickerbrushSymphonyRetina_mvl/mxv
 BYTE   W04
 BYTE   VOL   29*DKC2StickerbrushSymphonyRetina_mvl/mxv
 BYTE   W03
 BYTE   VOL   29*DKC2StickerbrushSymphonyRetina_mvl/mxv
 BYTE   W04
 BYTE   VOL   28*DKC2StickerbrushSymphonyRetina_mvl/mxv
 BYTE   W04
 BYTE   VOL   28*DKC2StickerbrushSymphonyRetina_mvl/mxv
 BYTE   W04
 BYTE   VOL   27*DKC2StickerbrushSymphonyRetina_mvl/mxv
 BYTE   W04
 BYTE   VOL   27*DKC2StickerbrushSymphonyRetina_mvl/mxv
 BYTE   W04
 BYTE   VOL   26*DKC2StickerbrushSymphonyRetina_mvl/mxv
 BYTE   W04
 BYTE   VOL   25*DKC2StickerbrushSymphonyRetina_mvl/mxv
 BYTE   W03
 BYTE   VOL   25*DKC2StickerbrushSymphonyRetina_mvl/mxv
 BYTE   W04
 BYTE   VOL   25*DKC2StickerbrushSymphonyRetina_mvl/mxv
 BYTE   W04
 BYTE   VOL   24*DKC2StickerbrushSymphonyRetina_mvl/mxv
 BYTE   W04
 BYTE   VOL   24*DKC2StickerbrushSymphonyRetina_mvl/mxv
 BYTE   W04
 BYTE   VOL   23*DKC2StickerbrushSymphonyRetina_mvl/mxv
 BYTE   W04
 BYTE   VOL   23*DKC2StickerbrushSymphonyRetina_mvl/mxv
 BYTE   W03
 BYTE   VOL   22*DKC2StickerbrushSymphonyRetina_mvl/mxv
 BYTE   W04
 BYTE   VOL   22*DKC2StickerbrushSymphonyRetina_mvl/mxv
 BYTE   W04
 BYTE   VOL   21*DKC2StickerbrushSymphonyRetina_mvl/mxv
 BYTE   W04
 BYTE   VOL   21*DKC2StickerbrushSymphonyRetina_mvl/mxv
 BYTE   W04
// 059   ----------------------------------------
 BYTE   GoTo
  POIN2 Label_8_014B3ED3
// 060   ----------------------------------------
 BYTE   VOL   20*DKC2StickerbrushSymphonyRetina_mvl/mxv
 BYTE   W04
 BYTE   VOL   20*DKC2StickerbrushSymphonyRetina_mvl/mxv
 BYTE   W03
 BYTE   VOL   19*DKC2StickerbrushSymphonyRetina_mvl/mxv
 BYTE   W05
 BYTE   VOL   19*DKC2StickerbrushSymphonyRetina_mvl/mxv
 BYTE   W03
 BYTE   VOL   18*DKC2StickerbrushSymphonyRetina_mvl/mxv
 BYTE   W04
 BYTE   VOL   18*DKC2StickerbrushSymphonyRetina_mvl/mxv
 BYTE   W04
 BYTE   VOL   18*DKC2StickerbrushSymphonyRetina_mvl/mxv
 BYTE   W04
 BYTE   VOL   17*DKC2StickerbrushSymphonyRetina_mvl/mxv
 BYTE   W03
 BYTE   VOL   17*DKC2StickerbrushSymphonyRetina_mvl/mxv
 BYTE   W04
 BYTE   VOL   16*DKC2StickerbrushSymphonyRetina_mvl/mxv
 BYTE   W04
 BYTE   VOL   16*DKC2StickerbrushSymphonyRetina_mvl/mxv
 BYTE   W04
 BYTE   VOL   16*DKC2StickerbrushSymphonyRetina_mvl/mxv
 BYTE   W04
 BYTE   VOL   15*DKC2StickerbrushSymphonyRetina_mvl/mxv
 BYTE   W04
 BYTE   VOL   14*DKC2StickerbrushSymphonyRetina_mvl/mxv
 BYTE   W04
 BYTE   VOL   14*DKC2StickerbrushSymphonyRetina_mvl/mxv
 BYTE   W03
 BYTE   VOL   14*DKC2StickerbrushSymphonyRetina_mvl/mxv
 BYTE   W04
 BYTE   VOL   13*DKC2StickerbrushSymphonyRetina_mvl/mxv
 BYTE   W04
 BYTE   VOL   13*DKC2StickerbrushSymphonyRetina_mvl/mxv
 BYTE   W04
 BYTE   VOL   12*DKC2StickerbrushSymphonyRetina_mvl/mxv
 BYTE   W04
 BYTE   VOL   12*DKC2StickerbrushSymphonyRetina_mvl/mxv
 BYTE   W04
 BYTE   VOL   12*DKC2StickerbrushSymphonyRetina_mvl/mxv
 BYTE   W03
 BYTE   VOL   12*DKC2StickerbrushSymphonyRetina_mvl/mxv
 BYTE   W04
 BYTE   VOL   11*DKC2StickerbrushSymphonyRetina_mvl/mxv
 BYTE   W04
 BYTE   VOL   11*DKC2StickerbrushSymphonyRetina_mvl/mxv
 BYTE   W04
 BYTE   VOL   11*DKC2StickerbrushSymphonyRetina_mvl/mxv
 BYTE   W04
// 061   ----------------------------------------
 BYTE   EOT
 BYTE   An1  v052
 BYTE   An2
 BYTE   VOL   10*DKC2StickerbrushSymphonyRetina_mvl/mxv
 BYTE   TIE  Cn2  v088
 BYTE   TIE  Gn2
 BYTE   TIE  Cn3
 BYTE   W04
 BYTE   VOL   10*DKC2StickerbrushSymphonyRetina_mvl/mxv
 BYTE   W03
 BYTE   VOL   9*DKC2StickerbrushSymphonyRetina_mvl/mxv
 BYTE   W05
 BYTE   VOL   9*DKC2StickerbrushSymphonyRetina_mvl/mxv
 BYTE   W03
 BYTE   VOL   9*DKC2StickerbrushSymphonyRetina_mvl/mxv
 BYTE   W04
 BYTE   VOL   9*DKC2StickerbrushSymphonyRetina_mvl/mxv
 BYTE   W04
 BYTE   VOL   8*DKC2StickerbrushSymphonyRetina_mvl/mxv
 BYTE   W04
 BYTE   VOL   8*DKC2StickerbrushSymphonyRetina_mvl/mxv
 BYTE   W03
 BYTE   VOL   7*DKC2StickerbrushSymphonyRetina_mvl/mxv
 BYTE   W04
 BYTE   VOL   7*DKC2StickerbrushSymphonyRetina_mvl/mxv
 BYTE   W04
 BYTE   VOL   7*DKC2StickerbrushSymphonyRetina_mvl/mxv
 BYTE   W04
 BYTE   VOL   7*DKC2StickerbrushSymphonyRetina_mvl/mxv
 BYTE   W04
 BYTE   VOL   6*DKC2StickerbrushSymphonyRetina_mvl/mxv
 BYTE   W04
 BYTE   VOL   6*DKC2StickerbrushSymphonyRetina_mvl/mxv
 BYTE   W04
 BYTE   VOL   6*DKC2StickerbrushSymphonyRetina_mvl/mxv
 BYTE   W03
 BYTE   VOL   5*DKC2StickerbrushSymphonyRetina_mvl/mxv
 BYTE   W04
 BYTE   VOL   5*DKC2StickerbrushSymphonyRetina_mvl/mxv
 BYTE   W04
 BYTE   VOL   5*DKC2StickerbrushSymphonyRetina_mvl/mxv
 BYTE   W04
 BYTE   VOL   5*DKC2StickerbrushSymphonyRetina_mvl/mxv
 BYTE   W04
 BYTE   VOL   4*DKC2StickerbrushSymphonyRetina_mvl/mxv
 BYTE   W04
 BYTE   VOL   4*DKC2StickerbrushSymphonyRetina_mvl/mxv
 BYTE   W03
 BYTE   VOL   4*DKC2StickerbrushSymphonyRetina_mvl/mxv
 BYTE   W04
 BYTE   VOL   3*DKC2StickerbrushSymphonyRetina_mvl/mxv
 BYTE   W04
 BYTE   VOL   3*DKC2StickerbrushSymphonyRetina_mvl/mxv
 BYTE   W04
 BYTE   VOL   3*DKC2StickerbrushSymphonyRetina_mvl/mxv
 BYTE   W04
// 062   ----------------------------------------
 BYTE   VOL   3*DKC2StickerbrushSymphonyRetina_mvl/mxv
 BYTE   W04
 BYTE   VOL   3*DKC2StickerbrushSymphonyRetina_mvl/mxv
 BYTE   W03
 BYTE   VOL   2*DKC2StickerbrushSymphonyRetina_mvl/mxv
 BYTE   W05
 BYTE   VOL   2*DKC2StickerbrushSymphonyRetina_mvl/mxv
 BYTE   W03
 BYTE   VOL   2*DKC2StickerbrushSymphonyRetina_mvl/mxv
 BYTE   W04
 BYTE   VOL   2*DKC2StickerbrushSymphonyRetina_mvl/mxv
 BYTE   W04
 BYTE   VOL   1*DKC2StickerbrushSymphonyRetina_mvl/mxv
 BYTE   W04
 BYTE   VOL   1*DKC2StickerbrushSymphonyRetina_mvl/mxv
 BYTE   W03
 BYTE   VOL   1*DKC2StickerbrushSymphonyRetina_mvl/mxv
 BYTE   W04
 BYTE   VOL   1*DKC2StickerbrushSymphonyRetina_mvl/mxv
 BYTE   W04
 BYTE   VOL   1*DKC2StickerbrushSymphonyRetina_mvl/mxv
 BYTE   W04
 BYTE   VOL   1*DKC2StickerbrushSymphonyRetina_mvl/mxv
 BYTE   W04
 BYTE   VOL   1*DKC2StickerbrushSymphonyRetina_mvl/mxv
 BYTE   W04
 BYTE   VOL   0*DKC2StickerbrushSymphonyRetina_mvl/mxv
 BYTE   W04
 BYTE   VOL   0*DKC2StickerbrushSymphonyRetina_mvl/mxv
 BYTE   W03
 BYTE   VOL   0*DKC2StickerbrushSymphonyRetina_mvl/mxv
 BYTE   W04
 BYTE   VOL   0*DKC2StickerbrushSymphonyRetina_mvl/mxv
 BYTE   W04
 BYTE   VOL   0*DKC2StickerbrushSymphonyRetina_mvl/mxv
 BYTE   W04
 BYTE   VOL   0*DKC2StickerbrushSymphonyRetina_mvl/mxv
 BYTE   W04
 BYTE   VOL   0*DKC2StickerbrushSymphonyRetina_mvl/mxv
 BYTE   W04
 BYTE   VOL   0*DKC2StickerbrushSymphonyRetina_mvl/mxv
 BYTE   W03
 BYTE   VOL   0*DKC2StickerbrushSymphonyRetina_mvl/mxv
 BYTE   W04
 BYTE   VOL   0*DKC2StickerbrushSymphonyRetina_mvl/mxv
 BYTE   W04
 BYTE   VOL   0*DKC2StickerbrushSymphonyRetina_mvl/mxv
 BYTE   W04
 BYTE   VOL   0*DKC2StickerbrushSymphonyRetina_mvl/mxv
 BYTE   W04
// 063   ----------------------------------------
 BYTE   EOT
 BYTE   Cn2  v055
 BYTE   Cn3
 BYTE   VOL   0*DKC2StickerbrushSymphonyRetina_mvl/mxv
 BYTE   FINE

//**************** Track 10 (Midi-Chn.9) ****************//

DKC2StickerbrushSymphonyRetina_010:
// 000   ----------------------------------------
 BYTE   KEYSH   DKC2StickerbrushSymphonyRetina_key+0
 BYTE   VOICE   13
 BYTE   MODT 0
 BYTE   CnM2  v000
 BYTE   LFOS 0
 BYTE   CnM2  v044
 BYTE   VOL   28*DKC2StickerbrushSymphonyRetina_mvl/mxv
 BYTE   PAN   c_v+0
 BYTE   W96
// 001   ----------------------------------------
 BYTE   W96
// 002   ----------------------------------------
 BYTE   W96
// 003   ----------------------------------------
 BYTE   W96
// 004   ----------------------------------------
 BYTE   W96
// 005   ----------------------------------------
 BYTE   W96
// 006   ----------------------------------------
 BYTE   W96
// 007   ----------------------------------------
 BYTE   W96
// 008   ----------------------------------------
 BYTE   W96
// 009   ----------------------------------------
Label_9_014B0EF9:
 BYTE   W96
// 010   ----------------------------------------
 BYTE   W96
// 011   ----------------------------------------
 BYTE   W96
// 012   ----------------------------------------
 BYTE   W96
// 013   ----------------------------------------
 BYTE   W96
// 014   ----------------------------------------
 BYTE   W96
// 015   ----------------------------------------
 BYTE   W96
// 016   ----------------------------------------
 BYTE   W96
// 017   ----------------------------------------
 BYTE   W96
// 018   ----------------------------------------
 BYTE   W96
// 019   ----------------------------------------
 BYTE   W96
// 020   ----------------------------------------
 BYTE   W96
// 021   ----------------------------------------
 BYTE   W96
// 022   ----------------------------------------
 BYTE   W96
// 023   ----------------------------------------
 BYTE   W96
// 024   ----------------------------------------
 BYTE   W96
// 025   ----------------------------------------
 BYTE   W96
// 026   ----------------------------------------
 BYTE   W96
// 027   ----------------------------------------
 BYTE   W96
// 028   ----------------------------------------
 BYTE   W96
// 029   ----------------------------------------
 BYTE   N18  Cn1  v048
 BYTE   N06  Fs1  v060
 BYTE   W06
 BYTE   N06
 BYTE   W06
 BYTE   N12  As1
 BYTE   W12
 BYTE   Dn1  v048
 BYTE   N06  Fs1  v060
 BYTE   W06
 BYTE   N06
 BYTE   W06
 BYTE   As1
 BYTE   W06
 BYTE   Cn1  v048
 BYTE   N06  Fs1  v060
 BYTE   W06
 BYTE   As1
 BYTE   W06
 BYTE   Cn1  v048
 BYTE   W06
 BYTE   N06
 BYTE   W06
 BYTE   As1  v060
 BYTE   W06
 BYTE   Dn1  v048
 BYTE   W06
 BYTE   Fs1  v060
 BYTE   W06
 BYTE   As1
 BYTE   W12
// 030   ----------------------------------------
Label_9_014B0F3B:
 BYTE   N18  Cn1  v060
 BYTE   N06  Fs1
 BYTE   W06
 BYTE   N06
 BYTE   W06
 BYTE   N12  As1
 BYTE   W12
 BYTE   Dn1
 BYTE   N06  Fs1
 BYTE   W06
 BYTE   N06
 BYTE   W06
 BYTE   As1
 BYTE   W06
 BYTE   Cn1
 BYTE   N06  Fs1
 BYTE   W06
 BYTE   As1
 BYTE   W06
 BYTE   Cn1
 BYTE   W06
 BYTE   N06
 BYTE   W06
 BYTE   As1
 BYTE   W06
 BYTE   Dn1
 BYTE   W06
 BYTE   Fs1
 BYTE   W06
 BYTE   As1
 BYTE   W12
 BYTE   PEND 
// 031   ----------------------------------------
 BYTE   PATT
  POIN2 Label_9_014B0F3B
// 032   ----------------------------------------
 BYTE   PATT
  POIN2 Label_9_014B0F3B
// 033   ----------------------------------------
 BYTE   PATT
  POIN2 Label_9_014B0F3B
// 034   ----------------------------------------
 BYTE   PATT
  POIN2 Label_9_014B0F3B
// 035   ----------------------------------------
 BYTE   PATT
  POIN2 Label_9_014B0F3B
// 036   ----------------------------------------
 BYTE   PATT
  POIN2 Label_9_014B0F3B
// 037   ----------------------------------------
 BYTE   PATT
  POIN2 Label_9_014B0F3B
// 038   ----------------------------------------
 BYTE   PATT
  POIN2 Label_9_014B0F3B
// 039   ----------------------------------------
 BYTE   PATT
  POIN2 Label_9_014B0F3B
// 040   ----------------------------------------
 BYTE   PATT
  POIN2 Label_9_014B0F3B
// 041   ----------------------------------------
Label_9_014B0F93:
 BYTE   W01
 BYTE   N18  Cn1  v060
 BYTE   N06  Fs1
 BYTE   W06
 BYTE   N06
 BYTE   W06
 BYTE   N12  As1
 BYTE   W12
 BYTE   Dn1
 BYTE   N06  Fs1
 BYTE   W06
 BYTE   N06
 BYTE   W06
 BYTE   As1
 BYTE   W06
 BYTE   Cn1
 BYTE   N06  Fs1
 BYTE   W06
 BYTE   As1
 BYTE   W06
 BYTE   Cn1
 BYTE   W06
 BYTE   N06
 BYTE   W06
 BYTE   As1
 BYTE   W06
 BYTE   Dn1
 BYTE   W06
 BYTE   Fs1
 BYTE   W06
 BYTE   As1
 BYTE   W11
 BYTE   PEND 
// 042   ----------------------------------------
 BYTE   PATT
  POIN2 Label_9_014B0F93
// 043   ----------------------------------------
 BYTE   PATT
  POIN2 Label_9_014B0F93
// 044   ----------------------------------------
 BYTE   PATT
  POIN2 Label_9_014B0F93
// 045   ----------------------------------------
 BYTE   PATT
  POIN2 Label_9_014B0F3B
// 046   ----------------------------------------
 BYTE   PATT
  POIN2 Label_9_014B0F3B
// 047   ----------------------------------------
 BYTE   PATT
  POIN2 Label_9_014B0F3B
// 048   ----------------------------------------
 BYTE   PATT
  POIN2 Label_9_014B0F3B
// 049   ----------------------------------------
 BYTE   W96
// 050   ----------------------------------------
 BYTE   W96
// 051   ----------------------------------------
 BYTE   W96
// 052   ----------------------------------------
 BYTE   W96
// 053   ----------------------------------------
 BYTE   W96
// 054   ----------------------------------------
 BYTE   GoTo
  POIN2 Label_9_014B0EF9
 BYTE   FINE

//**************** Track 11 (Midi-Chn.10) ****************//

DKC2StickerbrushSymphonyRetina_011:
// 000   ----------------------------------------
 BYTE   KEYSH   DKC2StickerbrushSymphonyRetina_key+0
 BYTE   VOICE   54
 BYTE   MODT 0
 BYTE   CnM2  v000
 BYTE   LFOS 0
 BYTE   CnM2  v044
 BYTE   VOL   23*DKC2StickerbrushSymphonyRetina_mvl/mxv
 BYTE   PAN   c_v+0
 BYTE   W96
// 001   ----------------------------------------
 BYTE   W96
// 002   ----------------------------------------
 BYTE   W48
 BYTE   N12  Cn4  v060
 BYTE   W12
 BYTE   Dn4
 BYTE   W12
 BYTE   En4
 BYTE   W12
 BYTE   Fn4
 BYTE   W12
// 003   ----------------------------------------
 BYTE   N14  Gn4
 BYTE   W12
 BYTE   N13  Gs4
 BYTE   W12
 BYTE   An4
 BYTE   W12
 BYTE   N14  As4
 BYTE   W12
 BYTE   N13  Bn4
 BYTE   W12
 BYTE   N15  Cn5
 BYTE   W12
 BYTE   N13  Cs5
 BYTE   W12
 BYTE   N12  Dn5
 BYTE   W12
// 004   ----------------------------------------
 BYTE   N32  Ds5
 BYTE   W24
 BYTE   En5
 BYTE   W24
 BYTE   Fn5
 BYTE   W24
 BYTE   N30  Fs5
 BYTE   W24
// 005   ----------------------------------------
 BYTE   N32  Gn5
 BYTE   W24
 BYTE   Gs5
 BYTE   W24
 BYTE   An5
 BYTE   W24
 BYTE   As5
 BYTE   W24
// 006   ----------------------------------------
 BYTE   Bn5
 BYTE   W24
 BYTE   Cn6
 BYTE   W24
 BYTE   Cs6
 BYTE   W24
 BYTE   Dn6
 BYTE   W24
// 007   ----------------------------------------
 BYTE   Ds6
 BYTE   W24
 BYTE   En6
 BYTE   W24
 BYTE   Fn6
 BYTE   W24
 BYTE   Fs6
 BYTE   W24
// 008   ----------------------------------------
 BYTE   Gn6
 BYTE   W24
 BYTE   N30  Gs6
 BYTE   W24
 BYTE   N24  An6
 BYTE   W24
 BYTE   As6
 BYTE   W24
// 009   ----------------------------------------
Label_10_014AC23D:
 BYTE   W96
// 010   ----------------------------------------
 BYTE   W96
// 011   ----------------------------------------
 BYTE   W96
// 012   ----------------------------------------
 BYTE   W96
// 013   ----------------------------------------
 BYTE   W96
// 014   ----------------------------------------
 BYTE   W96
// 015   ----------------------------------------
 BYTE   W96
// 016   ----------------------------------------
 BYTE   W96
// 017   ----------------------------------------
 BYTE   W96
// 018   ----------------------------------------
 BYTE   W96
// 019   ----------------------------------------
 BYTE   W96
// 020   ----------------------------------------
 BYTE   W96
// 021   ----------------------------------------
 BYTE   W96
// 022   ----------------------------------------
 BYTE   W96
// 023   ----------------------------------------
 BYTE   W96
// 024   ----------------------------------------
 BYTE   W96
// 025   ----------------------------------------
 BYTE   W96
// 026   ----------------------------------------
 BYTE   W96
// 027   ----------------------------------------
 BYTE   W96
// 028   ----------------------------------------
 BYTE   W96
// 029   ----------------------------------------
 BYTE   W96
// 030   ----------------------------------------
 BYTE   W96
// 031   ----------------------------------------
 BYTE   W96
// 032   ----------------------------------------
 BYTE   W96
// 033   ----------------------------------------
 BYTE   W96
// 034   ----------------------------------------
 BYTE   W96
// 035   ----------------------------------------
 BYTE   W96
// 036   ----------------------------------------
 BYTE   W96
// 037   ----------------------------------------
 BYTE   W96
// 038   ----------------------------------------
 BYTE   W96
// 039   ----------------------------------------
 BYTE   W96
// 040   ----------------------------------------
 BYTE   W96
// 041   ----------------------------------------
 BYTE   W96
// 042   ----------------------------------------
 BYTE   W96
// 043   ----------------------------------------
 BYTE   W96
// 044   ----------------------------------------
 BYTE   W96
// 045   ----------------------------------------
 BYTE   W96
// 046   ----------------------------------------
 BYTE   W96
// 047   ----------------------------------------
 BYTE   W96
// 048   ----------------------------------------
 BYTE   W96
// 049   ----------------------------------------
 BYTE   W96
// 050   ----------------------------------------
 BYTE   W96
// 051   ----------------------------------------
 BYTE   W96
// 052   ----------------------------------------
 BYTE   W96
// 053   ----------------------------------------
 BYTE   W96
// 054   ----------------------------------------
 BYTE   GoTo
  POIN2 Label_10_014AC23D
 BYTE   FINE

//**************** Track 12 (Midi-Chn.11) ****************//

DKC2StickerbrushSymphonyRetina_012:
// 000   ----------------------------------------
 BYTE   KEYSH   DKC2StickerbrushSymphonyRetina_key+0
 BYTE   VOICE   49
 BYTE   MODT 0
 BYTE   CnM2  v000
 BYTE   LFOS 0
 BYTE   CnM2  v044
 BYTE   VOL   18*DKC2StickerbrushSymphonyRetina_mvl/mxv
 BYTE   PAN   c_v+0
 BYTE   W96
// 001   ----------------------------------------
Label_11_01611FD1:
 BYTE   VOL   9*DKC2StickerbrushSymphonyRetina_mvl/mxv
 BYTE   TIE  En3  v088
 BYTE   TIE  Cn4
 BYTE   TIE  En4
 BYTE   W04
 BYTE   VOL   9*DKC2StickerbrushSymphonyRetina_mvl/mxv
 BYTE   W03
 BYTE   VOL   9*DKC2StickerbrushSymphonyRetina_mvl/mxv
 BYTE   W05
 BYTE   VOL   9*DKC2StickerbrushSymphonyRetina_mvl/mxv
 BYTE   W03
 BYTE   VOL   10*DKC2StickerbrushSymphonyRetina_mvl/mxv
 BYTE   W04
 BYTE   VOL   10*DKC2StickerbrushSymphonyRetina_mvl/mxv
 BYTE   W04
 BYTE   VOL   11*DKC2StickerbrushSymphonyRetina_mvl/mxv
 BYTE   W04
 BYTE   VOL   11*DKC2StickerbrushSymphonyRetina_mvl/mxv
 BYTE   W03
 BYTE   VOL   11*DKC2StickerbrushSymphonyRetina_mvl/mxv
 BYTE   W04
 BYTE   VOL   12*DKC2StickerbrushSymphonyRetina_mvl/mxv
 BYTE   W04
 BYTE   VOL   12*DKC2StickerbrushSymphonyRetina_mvl/mxv
 BYTE   W04
 BYTE   VOL   12*DKC2StickerbrushSymphonyRetina_mvl/mxv
 BYTE   W04
 BYTE   VOL   12*DKC2StickerbrushSymphonyRetina_mvl/mxv
 BYTE   W04
 BYTE   VOL   13*DKC2StickerbrushSymphonyRetina_mvl/mxv
 BYTE   W04
 BYTE   VOL   13*DKC2StickerbrushSymphonyRetina_mvl/mxv
 BYTE   W03
 BYTE   VOL   14*DKC2StickerbrushSymphonyRetina_mvl/mxv
 BYTE   W04
 BYTE   VOL   14*DKC2StickerbrushSymphonyRetina_mvl/mxv
 BYTE   W04
 BYTE   VOL   14*DKC2StickerbrushSymphonyRetina_mvl/mxv
 BYTE   W04
 BYTE   VOL   15*DKC2StickerbrushSymphonyRetina_mvl/mxv
 BYTE   W04
 BYTE   VOL   16*DKC2StickerbrushSymphonyRetina_mvl/mxv
 BYTE   W04
 BYTE   VOL   16*DKC2StickerbrushSymphonyRetina_mvl/mxv
 BYTE   W03
 BYTE   VOL   16*DKC2StickerbrushSymphonyRetina_mvl/mxv
 BYTE   W04
 BYTE   VOL   17*DKC2StickerbrushSymphonyRetina_mvl/mxv
 BYTE   W04
 BYTE   VOL   17*DKC2StickerbrushSymphonyRetina_mvl/mxv
 BYTE   W04
 BYTE   VOL   18*DKC2StickerbrushSymphonyRetina_mvl/mxv
 BYTE   W04
 BYTE   PEND 
// 002   ----------------------------------------
Label_11_0161200D:
 BYTE   VOL   18*DKC2StickerbrushSymphonyRetina_mvl/mxv
 BYTE   W04
 BYTE   VOL   18*DKC2StickerbrushSymphonyRetina_mvl/mxv
 BYTE   W03
 BYTE   VOL   17*DKC2StickerbrushSymphonyRetina_mvl/mxv
 BYTE   W05
 BYTE   VOL   17*DKC2StickerbrushSymphonyRetina_mvl/mxv
 BYTE   W03
 BYTE   VOL   16*DKC2StickerbrushSymphonyRetina_mvl/mxv
 BYTE   W04
 BYTE   VOL   16*DKC2StickerbrushSymphonyRetina_mvl/mxv
 BYTE   W04
 BYTE   VOL   16*DKC2StickerbrushSymphonyRetina_mvl/mxv
 BYTE   W04
 BYTE   VOL   15*DKC2StickerbrushSymphonyRetina_mvl/mxv
 BYTE   W03
 BYTE   VOL   14*DKC2StickerbrushSymphonyRetina_mvl/mxv
 BYTE   W04
 BYTE   VOL   14*DKC2StickerbrushSymphonyRetina_mvl/mxv
 BYTE   W04
 BYTE   VOL   14*DKC2StickerbrushSymphonyRetina_mvl/mxv
 BYTE   W04
 BYTE   VOL   13*DKC2StickerbrushSymphonyRetina_mvl/mxv
 BYTE   W04
 BYTE   VOL   13*DKC2StickerbrushSymphonyRetina_mvl/mxv
 BYTE   W04
 BYTE   VOL   12*DKC2StickerbrushSymphonyRetina_mvl/mxv
 BYTE   W04
 BYTE   VOL   12*DKC2StickerbrushSymphonyRetina_mvl/mxv
 BYTE   W03
 BYTE   VOL   12*DKC2StickerbrushSymphonyRetina_mvl/mxv
 BYTE   W04
 BYTE   VOL   12*DKC2StickerbrushSymphonyRetina_mvl/mxv
 BYTE   W04
 BYTE   VOL   11*DKC2StickerbrushSymphonyRetina_mvl/mxv
 BYTE   W04
 BYTE   VOL   11*DKC2StickerbrushSymphonyRetina_mvl/mxv
 BYTE   W04
 BYTE   VOL   11*DKC2StickerbrushSymphonyRetina_mvl/mxv
 BYTE   W04
 BYTE   VOL   10*DKC2StickerbrushSymphonyRetina_mvl/mxv
 BYTE   W03
 BYTE   VOL   10*DKC2StickerbrushSymphonyRetina_mvl/mxv
 BYTE   W04
 BYTE   VOL   9*DKC2StickerbrushSymphonyRetina_mvl/mxv
 BYTE   W04
 BYTE   VOL   9*DKC2StickerbrushSymphonyRetina_mvl/mxv
 BYTE   W04
 BYTE   VOL   9*DKC2StickerbrushSymphonyRetina_mvl/mxv
 BYTE   W04
 BYTE   PEND 
// 003   ----------------------------------------
 BYTE   EOT
 BYTE   En3  v072
 BYTE   En4
Label_11_01612045:
 BYTE   VOL   9*DKC2StickerbrushSymphonyRetina_mvl/mxv
 BYTE   TIE  Gn3  v088
 BYTE   TIE  En4
 BYTE   TIE  Gn4
 BYTE   W04
 BYTE   VOL   9*DKC2StickerbrushSymphonyRetina_mvl/mxv
 BYTE   W03
 BYTE   VOL   9*DKC2StickerbrushSymphonyRetina_mvl/mxv
 BYTE   W05
 BYTE   VOL   9*DKC2StickerbrushSymphonyRetina_mvl/mxv
 BYTE   W03
 BYTE   VOL   10*DKC2StickerbrushSymphonyRetina_mvl/mxv
 BYTE   W04
 BYTE   VOL   10*DKC2StickerbrushSymphonyRetina_mvl/mxv
 BYTE   W04
 BYTE   VOL   11*DKC2StickerbrushSymphonyRetina_mvl/mxv
 BYTE   W04
 BYTE   VOL   11*DKC2StickerbrushSymphonyRetina_mvl/mxv
 BYTE   W03
 BYTE   VOL   11*DKC2StickerbrushSymphonyRetina_mvl/mxv
 BYTE   W04
 BYTE   VOL   12*DKC2StickerbrushSymphonyRetina_mvl/mxv
 BYTE   W04
 BYTE   VOL   12*DKC2StickerbrushSymphonyRetina_mvl/mxv
 BYTE   W04
 BYTE   VOL   12*DKC2StickerbrushSymphonyRetina_mvl/mxv
 BYTE   W04
 BYTE   VOL   12*DKC2StickerbrushSymphonyRetina_mvl/mxv
 BYTE   W04
 BYTE   VOL   13*DKC2StickerbrushSymphonyRetina_mvl/mxv
 BYTE   W04
 BYTE   VOL   13*DKC2StickerbrushSymphonyRetina_mvl/mxv
 BYTE   W03
 BYTE   VOL   14*DKC2StickerbrushSymphonyRetina_mvl/mxv
 BYTE   W04
 BYTE   VOL   14*DKC2StickerbrushSymphonyRetina_mvl/mxv
 BYTE   W04
 BYTE   VOL   14*DKC2StickerbrushSymphonyRetina_mvl/mxv
 BYTE   W04
 BYTE   VOL   15*DKC2StickerbrushSymphonyRetina_mvl/mxv
 BYTE   W04
 BYTE   VOL   16*DKC2StickerbrushSymphonyRetina_mvl/mxv
 BYTE   W04
 BYTE   VOL   16*DKC2StickerbrushSymphonyRetina_mvl/mxv
 BYTE   W03
 BYTE   VOL   16*DKC2StickerbrushSymphonyRetina_mvl/mxv
 BYTE   W04
 BYTE   VOL   17*DKC2StickerbrushSymphonyRetina_mvl/mxv
 BYTE   W04
 BYTE   VOL   17*DKC2StickerbrushSymphonyRetina_mvl/mxv
 BYTE   W04
 BYTE   VOL   18*DKC2StickerbrushSymphonyRetina_mvl/mxv
 BYTE   W04
 BYTE   PEND 
// 004   ----------------------------------------
 BYTE   PATT
  POIN2 Label_11_0161200D
// 005   ----------------------------------------
 BYTE   EOT
 BYTE   Gn3  v076
 BYTE   Gn4
// 006   ----------------------------------------
 BYTE   PATT
  POIN2 Label_11_01611FD1
// 007   ----------------------------------------
 BYTE   PATT
  POIN2 Label_11_0161200D
// 008   ----------------------------------------
 BYTE   EOT
 BYTE   En3  v072
 BYTE   En4
// 009   ----------------------------------------
 BYTE   PATT
  POIN2 Label_11_01612045
// 010   ----------------------------------------
 BYTE   PATT
  POIN2 Label_11_0161200D
// 011   ----------------------------------------
 BYTE   EOT
 BYTE   Gn3  v076
 BYTE   Gn4
Label_11_016120A6:
 BYTE   VOL   16*DKC2StickerbrushSymphonyRetina_mvl/mxv
 BYTE   N96  An3  v088
 BYTE   N96  Cn4
 BYTE   N96  En4
 BYTE   W96
// 012   ----------------------------------------
Label_11_016120B0:
 BYTE   VOL   9*DKC2StickerbrushSymphonyRetina_mvl/mxv
 BYTE   TIE  Gn3  v088
 BYTE   TIE  Bn3
 BYTE   TIE  Dn4
 BYTE   W04
 BYTE   VOL   9*DKC2StickerbrushSymphonyRetina_mvl/mxv
 BYTE   W03
 BYTE   VOL   9*DKC2StickerbrushSymphonyRetina_mvl/mxv
 BYTE   W05
 BYTE   VOL   9*DKC2StickerbrushSymphonyRetina_mvl/mxv
 BYTE   W03
 BYTE   VOL   10*DKC2StickerbrushSymphonyRetina_mvl/mxv
 BYTE   W04
 BYTE   VOL   10*DKC2StickerbrushSymphonyRetina_mvl/mxv
 BYTE   W04
 BYTE   VOL   11*DKC2StickerbrushSymphonyRetina_mvl/mxv
 BYTE   W04
 BYTE   VOL   11*DKC2StickerbrushSymphonyRetina_mvl/mxv
 BYTE   W03
 BYTE   VOL   11*DKC2StickerbrushSymphonyRetina_mvl/mxv
 BYTE   W04
 BYTE   VOL   12*DKC2StickerbrushSymphonyRetina_mvl/mxv
 BYTE   W04
 BYTE   VOL   12*DKC2StickerbrushSymphonyRetina_mvl/mxv
 BYTE   W04
 BYTE   VOL   12*DKC2StickerbrushSymphonyRetina_mvl/mxv
 BYTE   W04
 BYTE   VOL   12*DKC2StickerbrushSymphonyRetina_mvl/mxv
 BYTE   W04
 BYTE   VOL   13*DKC2StickerbrushSymphonyRetina_mvl/mxv
 BYTE   W04
 BYTE   VOL   13*DKC2StickerbrushSymphonyRetina_mvl/mxv
 BYTE   W03
 BYTE   VOL   14*DKC2StickerbrushSymphonyRetina_mvl/mxv
 BYTE   W04
 BYTE   VOL   14*DKC2StickerbrushSymphonyRetina_mvl/mxv
 BYTE   W04
 BYTE   VOL   14*DKC2StickerbrushSymphonyRetina_mvl/mxv
 BYTE   W04
 BYTE   VOL   15*DKC2StickerbrushSymphonyRetina_mvl/mxv
 BYTE   W04
 BYTE   VOL   16*DKC2StickerbrushSymphonyRetina_mvl/mxv
 BYTE   W04
 BYTE   VOL   16*DKC2StickerbrushSymphonyRetina_mvl/mxv
 BYTE   W03
 BYTE   VOL   16*DKC2StickerbrushSymphonyRetina_mvl/mxv
 BYTE   W04
 BYTE   VOL   17*DKC2StickerbrushSymphonyRetina_mvl/mxv
 BYTE   W04
 BYTE   VOL   17*DKC2StickerbrushSymphonyRetina_mvl/mxv
 BYTE   W04
 BYTE   VOL   18*DKC2StickerbrushSymphonyRetina_mvl/mxv
 BYTE   W04
 BYTE   PEND 
// 013   ----------------------------------------
 BYTE   PATT
  POIN2 Label_11_0161200D
// 014   ----------------------------------------
 BYTE   EOT
 BYTE   Gn3  v071
 BYTE   Dn4
Label_11_016120F5:
 BYTE   VOL   9*DKC2StickerbrushSymphonyRetina_mvl/mxv
 BYTE   N96  An3  v088
 BYTE   N96  Cn4
 BYTE   N96  En4
 BYTE   W04
 BYTE   VOL   9*DKC2StickerbrushSymphonyRetina_mvl/mxv
 BYTE   W03
 BYTE   VOL   9*DKC2StickerbrushSymphonyRetina_mvl/mxv
 BYTE   W05
 BYTE   VOL   9*DKC2StickerbrushSymphonyRetina_mvl/mxv
 BYTE   W03
 BYTE   VOL   10*DKC2StickerbrushSymphonyRetina_mvl/mxv
 BYTE   W04
 BYTE   VOL   10*DKC2StickerbrushSymphonyRetina_mvl/mxv
 BYTE   W04
 BYTE   VOL   11*DKC2StickerbrushSymphonyRetina_mvl/mxv
 BYTE   W04
 BYTE   VOL   11*DKC2StickerbrushSymphonyRetina_mvl/mxv
 BYTE   W03
 BYTE   VOL   11*DKC2StickerbrushSymphonyRetina_mvl/mxv
 BYTE   W04
 BYTE   VOL   12*DKC2StickerbrushSymphonyRetina_mvl/mxv
 BYTE   W04
 BYTE   VOL   12*DKC2StickerbrushSymphonyRetina_mvl/mxv
 BYTE   W04
 BYTE   VOL   12*DKC2StickerbrushSymphonyRetina_mvl/mxv
 BYTE   W04
 BYTE   VOL   12*DKC2StickerbrushSymphonyRetina_mvl/mxv
 BYTE   W04
 BYTE   VOL   13*DKC2StickerbrushSymphonyRetina_mvl/mxv
 BYTE   W04
 BYTE   VOL   13*DKC2StickerbrushSymphonyRetina_mvl/mxv
 BYTE   W03
 BYTE   VOL   14*DKC2StickerbrushSymphonyRetina_mvl/mxv
 BYTE   W04
 BYTE   VOL   14*DKC2StickerbrushSymphonyRetina_mvl/mxv
 BYTE   W04
 BYTE   VOL   14*DKC2StickerbrushSymphonyRetina_mvl/mxv
 BYTE   W04
 BYTE   VOL   15*DKC2StickerbrushSymphonyRetina_mvl/mxv
 BYTE   W04
 BYTE   VOL   16*DKC2StickerbrushSymphonyRetina_mvl/mxv
 BYTE   W04
 BYTE   VOL   16*DKC2StickerbrushSymphonyRetina_mvl/mxv
 BYTE   W03
 BYTE   VOL   16*DKC2StickerbrushSymphonyRetina_mvl/mxv
 BYTE   W04
 BYTE   VOL   17*DKC2StickerbrushSymphonyRetina_mvl/mxv
 BYTE   W04
 BYTE   VOL   17*DKC2StickerbrushSymphonyRetina_mvl/mxv
 BYTE   W04
 BYTE   VOL   18*DKC2StickerbrushSymphonyRetina_mvl/mxv
 BYTE   W04
 BYTE   PEND 
// 015   ----------------------------------------
Label_11_01612131:
 BYTE   VOL   18*DKC2StickerbrushSymphonyRetina_mvl/mxv
 BYTE   N96  An3  v088
 BYTE   N96  Cn4
 BYTE   N96  En4
 BYTE   W04
 BYTE   VOL   18*DKC2StickerbrushSymphonyRetina_mvl/mxv
 BYTE   W03
 BYTE   VOL   17*DKC2StickerbrushSymphonyRetina_mvl/mxv
 BYTE   W05
 BYTE   VOL   17*DKC2StickerbrushSymphonyRetina_mvl/mxv
 BYTE   W03
 BYTE   VOL   16*DKC2StickerbrushSymphonyRetina_mvl/mxv
 BYTE   W04
 BYTE   VOL   16*DKC2StickerbrushSymphonyRetina_mvl/mxv
 BYTE   W04
 BYTE   VOL   16*DKC2StickerbrushSymphonyRetina_mvl/mxv
 BYTE   W04
 BYTE   VOL   15*DKC2StickerbrushSymphonyRetina_mvl/mxv
 BYTE   W03
 BYTE   VOL   14*DKC2StickerbrushSymphonyRetina_mvl/mxv
 BYTE   W04
 BYTE   VOL   14*DKC2StickerbrushSymphonyRetina_mvl/mxv
 BYTE   W04
 BYTE   VOL   14*DKC2StickerbrushSymphonyRetina_mvl/mxv
 BYTE   W04
 BYTE   VOL   13*DKC2StickerbrushSymphonyRetina_mvl/mxv
 BYTE   W04
 BYTE   VOL   13*DKC2StickerbrushSymphonyRetina_mvl/mxv
 BYTE   W04
 BYTE   VOL   12*DKC2StickerbrushSymphonyRetina_mvl/mxv
 BYTE   W04
 BYTE   VOL   12*DKC2StickerbrushSymphonyRetina_mvl/mxv
 BYTE   W03
 BYTE   VOL   12*DKC2StickerbrushSymphonyRetina_mvl/mxv
 BYTE   W04
 BYTE   VOL   12*DKC2StickerbrushSymphonyRetina_mvl/mxv
 BYTE   W04
 BYTE   VOL   11*DKC2StickerbrushSymphonyRetina_mvl/mxv
 BYTE   W04
 BYTE   VOL   11*DKC2StickerbrushSymphonyRetina_mvl/mxv
 BYTE   W04
 BYTE   VOL   11*DKC2StickerbrushSymphonyRetina_mvl/mxv
 BYTE   W04
 BYTE   VOL   10*DKC2StickerbrushSymphonyRetina_mvl/mxv
 BYTE   W03
 BYTE   VOL   10*DKC2StickerbrushSymphonyRetina_mvl/mxv
 BYTE   W04
 BYTE   VOL   9*DKC2StickerbrushSymphonyRetina_mvl/mxv
 BYTE   W04
 BYTE   VOL   9*DKC2StickerbrushSymphonyRetina_mvl/mxv
 BYTE   W04
 BYTE   VOL   9*DKC2StickerbrushSymphonyRetina_mvl/mxv
 BYTE   W04
 BYTE   PEND 
// 016   ----------------------------------------
 BYTE   PATT
  POIN2 Label_11_016120B0
// 017   ----------------------------------------
 BYTE   PATT
  POIN2 Label_11_0161200D
// 018   ----------------------------------------
 BYTE   EOT
 BYTE   Gn3  v071
 BYTE   Dn4
// 019   ----------------------------------------
 BYTE   PATT
  POIN2 Label_11_016120F5
// 020   ----------------------------------------
 BYTE   PATT
  POIN2 Label_11_01612131
// 021   ----------------------------------------
 BYTE   PATT
  POIN2 Label_11_016120B0
// 022   ----------------------------------------
 BYTE   PATT
  POIN2 Label_11_0161200D
// 023   ----------------------------------------
 BYTE   EOT
 BYTE   Gn3  v071
 BYTE   Dn4
// 024   ----------------------------------------
 BYTE   PATT
  POIN2 Label_11_016120F5
// 025   ----------------------------------------
 BYTE   VOL   18*DKC2StickerbrushSymphonyRetina_mvl/mxv
 BYTE   N96  Fn3  v088
 BYTE   N96  An3
 BYTE   N96  Cn4
 BYTE   N96  En4
 BYTE   W04
 BYTE   VOL   18*DKC2StickerbrushSymphonyRetina_mvl/mxv
 BYTE   W03
 BYTE   VOL   17*DKC2StickerbrushSymphonyRetina_mvl/mxv
 BYTE   W05
 BYTE   VOL   17*DKC2StickerbrushSymphonyRetina_mvl/mxv
 BYTE   W03
 BYTE   VOL   16*DKC2StickerbrushSymphonyRetina_mvl/mxv
 BYTE   W04
 BYTE   VOL   16*DKC2StickerbrushSymphonyRetina_mvl/mxv
 BYTE   W04
 BYTE   VOL   16*DKC2StickerbrushSymphonyRetina_mvl/mxv
 BYTE   W04
 BYTE   VOL   15*DKC2StickerbrushSymphonyRetina_mvl/mxv
 BYTE   W03
 BYTE   VOL   14*DKC2StickerbrushSymphonyRetina_mvl/mxv
 BYTE   W04
 BYTE   VOL   14*DKC2StickerbrushSymphonyRetina_mvl/mxv
 BYTE   W04
 BYTE   VOL   14*DKC2StickerbrushSymphonyRetina_mvl/mxv
 BYTE   W04
 BYTE   VOL   13*DKC2StickerbrushSymphonyRetina_mvl/mxv
 BYTE   W04
 BYTE   VOL   13*DKC2StickerbrushSymphonyRetina_mvl/mxv
 BYTE   W04
 BYTE   VOL   12*DKC2StickerbrushSymphonyRetina_mvl/mxv
 BYTE   W04
 BYTE   VOL   12*DKC2StickerbrushSymphonyRetina_mvl/mxv
 BYTE   W03
 BYTE   VOL   12*DKC2StickerbrushSymphonyRetina_mvl/mxv
 BYTE   W04
 BYTE   VOL   12*DKC2StickerbrushSymphonyRetina_mvl/mxv
 BYTE   W04
 BYTE   VOL   11*DKC2StickerbrushSymphonyRetina_mvl/mxv
 BYTE   W04
 BYTE   VOL   11*DKC2StickerbrushSymphonyRetina_mvl/mxv
 BYTE   W04
 BYTE   VOL   11*DKC2StickerbrushSymphonyRetina_mvl/mxv
 BYTE   W04
 BYTE   VOL   10*DKC2StickerbrushSymphonyRetina_mvl/mxv
 BYTE   W03
 BYTE   VOL   10*DKC2StickerbrushSymphonyRetina_mvl/mxv
 BYTE   W04
 BYTE   VOL   9*DKC2StickerbrushSymphonyRetina_mvl/mxv
 BYTE   W04
 BYTE   VOL   9*DKC2StickerbrushSymphonyRetina_mvl/mxv
 BYTE   W04
 BYTE   VOL   9*DKC2StickerbrushSymphonyRetina_mvl/mxv
 BYTE   W04
// 026   ----------------------------------------
 BYTE   PATT
  POIN2 Label_11_016120B0
// 027   ----------------------------------------
 BYTE   PATT
  POIN2 Label_11_0161200D
// 028   ----------------------------------------
 BYTE   EOT
 BYTE   Gn3  v071
 BYTE   Dn4
 BYTE   VOL   18*DKC2StickerbrushSymphonyRetina_mvl/mxv
 BYTE   N96  An3  v088
 BYTE   N96  Cn4
 BYTE   N96  En4
 BYTE   W96
// 029   ----------------------------------------
Label_11_016121ED:
 BYTE   N96  Fn3  v088
 BYTE   N96  An3
 BYTE   N96  Cn4
 BYTE   W96
 BYTE   PEND 
// 030   ----------------------------------------
Label_11_016121F6:
 BYTE   N96  Gn3  v088
 BYTE   N96  Cn4
 BYTE   N96  En4
 BYTE   W96
 BYTE   PEND 
// 031   ----------------------------------------
Label_11_016121FF:
 BYTE   TIE  Fn3  v088
 BYTE   TIE  An3
 BYTE   TIE  Cn4
 BYTE   TIE  En4
 BYTE   W96
 BYTE   PEND 
// 032   ----------------------------------------
 BYTE   W48
 BYTE   EOT
 BYTE   Fn3  v069
 BYTE   Cn4  v076
 BYTE   N48  Gn3
 BYTE   N48  Bn3
 BYTE   N48  Dn4
 BYTE   N48  Gn4
 BYTE   W48
// 033   ----------------------------------------
 BYTE   PATT
  POIN2 Label_11_01611FD1
// 034   ----------------------------------------
 BYTE   PATT
  POIN2 Label_11_0161200D
// 035   ----------------------------------------
 BYTE   EOT
 BYTE   En3  v072
 BYTE   En4
// 036   ----------------------------------------
 BYTE   PATT
  POIN2 Label_11_01612045
// 037   ----------------------------------------
 BYTE   PATT
  POIN2 Label_11_0161200D
// 038   ----------------------------------------
 BYTE   EOT
 BYTE   Gn3  v076
 BYTE   Gn4
// 039   ----------------------------------------
 BYTE   PATT
  POIN2 Label_11_01611FD1
// 040   ----------------------------------------
 BYTE   PATT
  POIN2 Label_11_0161200D
// 041   ----------------------------------------
 BYTE   EOT
 BYTE   En3  v072
 BYTE   En4
// 042   ----------------------------------------
 BYTE   PATT
  POIN2 Label_11_01612045
// 043   ----------------------------------------
 BYTE   PATT
  POIN2 Label_11_0161200D
// 044   ----------------------------------------
 BYTE   EOT
 BYTE   Gn3  v076
 BYTE   Gn4
 BYTE   VOL   17*DKC2StickerbrushSymphonyRetina_mvl/mxv
 BYTE   N96  An3  v088
 BYTE   N96  Cn4
 BYTE   N96  En4
 BYTE   W96
// 045   ----------------------------------------
Label_11_0161225B:
 BYTE   TIE  Gn3  v088
 BYTE   TIE  Bn3
 BYTE   TIE  Dn4
 BYTE   W96
 BYTE   PEND 
// 046   ----------------------------------------
 BYTE   W96
// 047   ----------------------------------------
 BYTE   EOT
 BYTE   Gn3  v071
 BYTE   Dn4
Label_11_01612269:
 BYTE   N96  An3  v088
 BYTE   N96  Cn4
 BYTE   N96  En4
 BYTE   W96
 BYTE   PEND 
// 048   ----------------------------------------
 BYTE   Fn3
 BYTE   N96  An3
 BYTE   N96  Cn4
 BYTE   N96  En4
 BYTE   W96
// 049   ----------------------------------------
 BYTE   PATT
  POIN2 Label_11_0161225B
// 050   ----------------------------------------
 BYTE   W96
// 051   ----------------------------------------
 BYTE   EOT
 BYTE   Gn3  v071
 BYTE   Dn4
// 052   ----------------------------------------
 BYTE   PATT
  POIN2 Label_11_01612269
// 053   ----------------------------------------
 BYTE   PATT
  POIN2 Label_11_016121ED
// 054   ----------------------------------------
 BYTE   PATT
  POIN2 Label_11_016121F6
// 055   ----------------------------------------
 BYTE   PATT
  POIN2 Label_11_016121FF
// 056   ----------------------------------------
 BYTE   W48
 BYTE   EOT
 BYTE   Fn3  v069
 BYTE   Cn4  v076
 BYTE   N48  Gn3  v088
 BYTE   N48  Bn3
 BYTE   N48  Dn4
 BYTE   N48  Gn4
 BYTE   W48
// 057   ----------------------------------------
 BYTE   PATT
  POIN2 Label_11_016121ED
// 058   ----------------------------------------
 BYTE   PATT
  POIN2 Label_11_016121F6
// 059   ----------------------------------------
 BYTE   PATT
  POIN2 Label_11_016121FF
// 060   ----------------------------------------
 BYTE   W48
 BYTE   EOT
 BYTE   Fn3  v069
 BYTE   Cn4  v076
 BYTE   N48  Gn3  v088
 BYTE   N48  Bn3
 BYTE   N48  Dn4
 BYTE   N48  Gn4
 BYTE   W48
// 061   ----------------------------------------
 BYTE   VOL   9*DKC2StickerbrushSymphonyRetina_mvl/mxv
 BYTE   TIE  En3
 BYTE   TIE  Cn4
 BYTE   TIE  En4
 BYTE   W03
 BYTE   VOL   9*DKC2StickerbrushSymphonyRetina_mvl/mxv
 BYTE   W04
 BYTE   VOL   9*DKC2StickerbrushSymphonyRetina_mvl/mxv
 BYTE   W03
 BYTE   VOL   9*DKC2StickerbrushSymphonyRetina_mvl/mxv
 BYTE   W04
 BYTE   VOL   10*DKC2StickerbrushSymphonyRetina_mvl/mxv
 BYTE   W03
 BYTE   VOL   10*DKC2StickerbrushSymphonyRetina_mvl/mxv
 BYTE   W03
 BYTE   VOL   11*DKC2StickerbrushSymphonyRetina_mvl/mxv
 BYTE   W04
 BYTE   VOL   11*DKC2StickerbrushSymphonyRetina_mvl/mxv
 BYTE   W03
 BYTE   VOL   11*DKC2StickerbrushSymphonyRetina_mvl/mxv
 BYTE   W03
 BYTE   VOL   12*DKC2StickerbrushSymphonyRetina_mvl/mxv
 BYTE   W04
 BYTE   VOL   12*DKC2StickerbrushSymphonyRetina_mvl/mxv
 BYTE   W03
 BYTE   VOL   12*DKC2StickerbrushSymphonyRetina_mvl/mxv
 BYTE   W04
 BYTE   VOL   12*DKC2StickerbrushSymphonyRetina_mvl/mxv
 BYTE   W03
 BYTE   VOL   13*DKC2StickerbrushSymphonyRetina_mvl/mxv
 BYTE   W04
 BYTE   VOL   13*DKC2StickerbrushSymphonyRetina_mvl/mxv
 BYTE   W03
 BYTE   VOL   14*DKC2StickerbrushSymphonyRetina_mvl/mxv
 BYTE   W03
 BYTE   VOL   14*DKC2StickerbrushSymphonyRetina_mvl/mxv
 BYTE   W04
 BYTE   VOL   14*DKC2StickerbrushSymphonyRetina_mvl/mxv
 BYTE   W03
 BYTE   VOL   15*DKC2StickerbrushSymphonyRetina_mvl/mxv
 BYTE   W04
 BYTE   VOL   16*DKC2StickerbrushSymphonyRetina_mvl/mxv
 BYTE   W03
 BYTE   VOL   16*DKC2StickerbrushSymphonyRetina_mvl/mxv
 BYTE   W04
 BYTE   VOL   16*DKC2StickerbrushSymphonyRetina_mvl/mxv
 BYTE   W03
 BYTE   VOL   17*DKC2StickerbrushSymphonyRetina_mvl/mxv
 BYTE   W03
 BYTE   VOL   17*DKC2StickerbrushSymphonyRetina_mvl/mxv
 BYTE   W03
 BYTE   VOL   18*DKC2StickerbrushSymphonyRetina_mvl/mxv
 BYTE   W04
 BYTE   VOL   18*DKC2StickerbrushSymphonyRetina_mvl/mxv
 BYTE   W03
 BYTE   VOL   18*DKC2StickerbrushSymphonyRetina_mvl/mxv
 BYTE   W04
 BYTE   VOL   19*DKC2StickerbrushSymphonyRetina_mvl/mxv
 BYTE   W03
 BYTE   VOL   19*DKC2StickerbrushSymphonyRetina_mvl/mxv
 BYTE   W01
// 062   ----------------------------------------
 BYTE   GoTo
  POIN2 Label_11_016120A6
// 063   ----------------------------------------
 BYTE   W03
 BYTE   VOL   19*DKC2StickerbrushSymphonyRetina_mvl/mxv
 BYTE   W04
 BYTE   VOL   18*DKC2StickerbrushSymphonyRetina_mvl/mxv
 BYTE   W04
 BYTE   VOL   18*DKC2StickerbrushSymphonyRetina_mvl/mxv
 BYTE   W04
 BYTE   VOL   18*DKC2StickerbrushSymphonyRetina_mvl/mxv
 BYTE   W04
 BYTE   VOL   17*DKC2StickerbrushSymphonyRetina_mvl/mxv
 BYTE   W04
 BYTE   VOL   17*DKC2StickerbrushSymphonyRetina_mvl/mxv
 BYTE   W04
 BYTE   VOL   16*DKC2StickerbrushSymphonyRetina_mvl/mxv
 BYTE   W04
 BYTE   VOL   16*DKC2StickerbrushSymphonyRetina_mvl/mxv
 BYTE   W04
 BYTE   VOL   16*DKC2StickerbrushSymphonyRetina_mvl/mxv
 BYTE   W04
 BYTE   VOL   15*DKC2StickerbrushSymphonyRetina_mvl/mxv
 BYTE   W04
 BYTE   VOL   14*DKC2StickerbrushSymphonyRetina_mvl/mxv
 BYTE   W04
 BYTE   VOL   14*DKC2StickerbrushSymphonyRetina_mvl/mxv
 BYTE   W04
 BYTE   VOL   14*DKC2StickerbrushSymphonyRetina_mvl/mxv
 BYTE   W04
 BYTE   VOL   13*DKC2StickerbrushSymphonyRetina_mvl/mxv
 BYTE   W04
 BYTE   VOL   13*DKC2StickerbrushSymphonyRetina_mvl/mxv
 BYTE   W04
 BYTE   VOL   12*DKC2StickerbrushSymphonyRetina_mvl/mxv
 BYTE   W04
 BYTE   VOL   12*DKC2StickerbrushSymphonyRetina_mvl/mxv
 BYTE   W04
 BYTE   VOL   12*DKC2StickerbrushSymphonyRetina_mvl/mxv
 BYTE   W04
 BYTE   VOL   12*DKC2StickerbrushSymphonyRetina_mvl/mxv
 BYTE   W04
 BYTE   VOL   11*DKC2StickerbrushSymphonyRetina_mvl/mxv
 BYTE   W04
 BYTE   VOL   11*DKC2StickerbrushSymphonyRetina_mvl/mxv
 BYTE   W04
 BYTE   VOL   11*DKC2StickerbrushSymphonyRetina_mvl/mxv
 BYTE   W04
 BYTE   VOL   10*DKC2StickerbrushSymphonyRetina_mvl/mxv
 BYTE   W04
 BYTE   VOL   10*DKC2StickerbrushSymphonyRetina_mvl/mxv
 BYTE   W01
// 064   ----------------------------------------
 BYTE   EOT
 BYTE   En3  v072
 BYTE   En4
 BYTE   VOL   9*DKC2StickerbrushSymphonyRetina_mvl/mxv
 BYTE   TIE  Gn3  v088
 BYTE   TIE  En4
 BYTE   TIE  Gn4
 BYTE   W04
 BYTE   VOL   10*DKC2StickerbrushSymphonyRetina_mvl/mxv
 BYTE   W03
 BYTE   VOL   9*DKC2StickerbrushSymphonyRetina_mvl/mxv
 BYTE   W05
 BYTE   VOL   9*DKC2StickerbrushSymphonyRetina_mvl/mxv
 BYTE   W03
 BYTE   VOL   9*DKC2StickerbrushSymphonyRetina_mvl/mxv
 BYTE   W04
 BYTE   VOL   9*DKC2StickerbrushSymphonyRetina_mvl/mxv
 BYTE   W04
 BYTE   VOL   8*DKC2StickerbrushSymphonyRetina_mvl/mxv
 BYTE   W04
 BYTE   VOL   8*DKC2StickerbrushSymphonyRetina_mvl/mxv
 BYTE   W03
 BYTE   VOL   7*DKC2StickerbrushSymphonyRetina_mvl/mxv
 BYTE   W04
 BYTE   VOL   7*DKC2StickerbrushSymphonyRetina_mvl/mxv
 BYTE   W04
 BYTE   VOL   7*DKC2StickerbrushSymphonyRetina_mvl/mxv
 BYTE   W04
 BYTE   VOL   7*DKC2StickerbrushSymphonyRetina_mvl/mxv
 BYTE   W04
 BYTE   VOL   6*DKC2StickerbrushSymphonyRetina_mvl/mxv
 BYTE   W04
 BYTE   VOL   6*DKC2StickerbrushSymphonyRetina_mvl/mxv
 BYTE   W04
 BYTE   VOL   6*DKC2StickerbrushSymphonyRetina_mvl/mxv
 BYTE   W03
 BYTE   VOL   5*DKC2StickerbrushSymphonyRetina_mvl/mxv
 BYTE   W04
 BYTE   VOL   5*DKC2StickerbrushSymphonyRetina_mvl/mxv
 BYTE   W04
 BYTE   VOL   5*DKC2StickerbrushSymphonyRetina_mvl/mxv
 BYTE   W04
 BYTE   VOL   5*DKC2StickerbrushSymphonyRetina_mvl/mxv
 BYTE   W04
 BYTE   VOL   4*DKC2StickerbrushSymphonyRetina_mvl/mxv
 BYTE   W04
 BYTE   VOL   4*DKC2StickerbrushSymphonyRetina_mvl/mxv
 BYTE   W03
 BYTE   VOL   4*DKC2StickerbrushSymphonyRetina_mvl/mxv
 BYTE   W04
 BYTE   VOL   3*DKC2StickerbrushSymphonyRetina_mvl/mxv
 BYTE   W04
 BYTE   VOL   3*DKC2StickerbrushSymphonyRetina_mvl/mxv
 BYTE   W04
 BYTE   VOL   3*DKC2StickerbrushSymphonyRetina_mvl/mxv
 BYTE   W04
// 065   ----------------------------------------
 BYTE   VOL   3*DKC2StickerbrushSymphonyRetina_mvl/mxv
 BYTE   W04
 BYTE   VOL   3*DKC2StickerbrushSymphonyRetina_mvl/mxv
 BYTE   W03
 BYTE   VOL   2*DKC2StickerbrushSymphonyRetina_mvl/mxv
 BYTE   W05
 BYTE   VOL   2*DKC2StickerbrushSymphonyRetina_mvl/mxv
 BYTE   W03
 BYTE   VOL   2*DKC2StickerbrushSymphonyRetina_mvl/mxv
 BYTE   W04
 BYTE   VOL   2*DKC2StickerbrushSymphonyRetina_mvl/mxv
 BYTE   W04
 BYTE   VOL   1*DKC2StickerbrushSymphonyRetina_mvl/mxv
 BYTE   W04
 BYTE   VOL   1*DKC2StickerbrushSymphonyRetina_mvl/mxv
 BYTE   W03
 BYTE   VOL   1*DKC2StickerbrushSymphonyRetina_mvl/mxv
 BYTE   W04
 BYTE   VOL   1*DKC2StickerbrushSymphonyRetina_mvl/mxv
 BYTE   W04
 BYTE   VOL   1*DKC2StickerbrushSymphonyRetina_mvl/mxv
 BYTE   W04
 BYTE   VOL   1*DKC2StickerbrushSymphonyRetina_mvl/mxv
 BYTE   W04
 BYTE   VOL   1*DKC2StickerbrushSymphonyRetina_mvl/mxv
 BYTE   W04
 BYTE   VOL   0*DKC2StickerbrushSymphonyRetina_mvl/mxv
 BYTE   W04
 BYTE   VOL   0*DKC2StickerbrushSymphonyRetina_mvl/mxv
 BYTE   W03
 BYTE   VOL   0*DKC2StickerbrushSymphonyRetina_mvl/mxv
 BYTE   W04
 BYTE   VOL   0*DKC2StickerbrushSymphonyRetina_mvl/mxv
 BYTE   W04
 BYTE   VOL   0*DKC2StickerbrushSymphonyRetina_mvl/mxv
 BYTE   W04
 BYTE   VOL   0*DKC2StickerbrushSymphonyRetina_mvl/mxv
 BYTE   W04
 BYTE   VOL   0*DKC2StickerbrushSymphonyRetina_mvl/mxv
 BYTE   W04
 BYTE   VOL   0*DKC2StickerbrushSymphonyRetina_mvl/mxv
 BYTE   W03
 BYTE   VOL   0*DKC2StickerbrushSymphonyRetina_mvl/mxv
 BYTE   W04
 BYTE   VOL   0*DKC2StickerbrushSymphonyRetina_mvl/mxv
 BYTE   W04
 BYTE   VOL   0*DKC2StickerbrushSymphonyRetina_mvl/mxv
 BYTE   W04
 BYTE   VOL   0*DKC2StickerbrushSymphonyRetina_mvl/mxv
 BYTE   W04
// 066   ----------------------------------------
 BYTE   EOT
 BYTE   Gn3  v076
 BYTE   Gn4
 BYTE   VOL   0*DKC2StickerbrushSymphonyRetina_mvl/mxv
 BYTE   FINE

//**************** Track 13 (Midi-Chn.12) ****************//

DKC2StickerbrushSymphonyRetina_013:
// 000   ----------------------------------------
 BYTE   KEYSH   DKC2StickerbrushSymphonyRetina_key+0
 BYTE   VOICE   74
 BYTE   MODT 0
 BYTE   CnM2  v000
 BYTE   LFOS 0
 BYTE   CnM2  v044
 BYTE   VOL   28*DKC2StickerbrushSymphonyRetina_mvl/mxv
 BYTE   PAN   c_v+0
 BYTE   W96
// 001   ----------------------------------------
 BYTE   W96
// 002   ----------------------------------------
 BYTE   W96
// 003   ----------------------------------------
 BYTE   W96
// 004   ----------------------------------------
 BYTE   W96
// 005   ----------------------------------------
 BYTE   W96
// 006   ----------------------------------------
 BYTE   W96
// 007   ----------------------------------------
 BYTE   W96
// 008   ----------------------------------------
 BYTE   W96
// 009   ----------------------------------------
Label_12_0166BA55:
 BYTE   N06  Fn1  v044
 BYTE   W06
 BYTE   Fn1  v024
 BYTE   W06
 BYTE   Fn1  v028
 BYTE   W06
 BYTE   N06
 BYTE   W06
 BYTE   Fn1  v044
 BYTE   W06
 BYTE   Fn1  v024
 BYTE   W06
 BYTE   Fn1  v032
 BYTE   W06
 BYTE   Fn1  v036
 BYTE   W06
 BYTE   N06
 BYTE   W06
 BYTE   Fn1  v024
 BYTE   W06
 BYTE   Fn1  v028
 BYTE   W06
 BYTE   N06
 BYTE   W06
 BYTE   Fn2  v044
 BYTE   W06
 BYTE   Fn1  v024
 BYTE   W06
 BYTE   Fn2  v028
 BYTE   W06
 BYTE   Fn1
 BYTE   W06
 BYTE   PEND 
// 010   ----------------------------------------
Label_12_0166BA83:
 BYTE   N06  Bn1  v048
 BYTE   W06
 BYTE   Bn1  v024
 BYTE   W06
 BYTE   Bn1  v032
 BYTE   W06
 BYTE   Bn1  v024
 BYTE   W06
 BYTE   Bn1  v040
 BYTE   W06
 BYTE   Bn1  v024
 BYTE   W06
 BYTE   Bn1  v028
 BYTE   W06
 BYTE   Bn1  v036
 BYTE   W06
 BYTE   Bn1  v040
 BYTE   W06
 BYTE   Bn1  v024
 BYTE   W06
 BYTE   Bn1  v028
 BYTE   W06
 BYTE   N06
 BYTE   W06
 BYTE   Bn2  v040
 BYTE   W06
 BYTE   Bn1  v024
 BYTE   W06
 BYTE   Bn2  v028
 BYTE   W06
 BYTE   Bn1  v032
 BYTE   W06
 BYTE   PEND 
// 011   ----------------------------------------
Label_12_0166BAB4:
 BYTE   N06  En1  v044
 BYTE   W06
 BYTE   En1  v024
 BYTE   W06
 BYTE   En1  v028
 BYTE   W06
 BYTE   N06
 BYTE   W06
 BYTE   En1  v044
 BYTE   W06
 BYTE   En1  v024
 BYTE   W06
 BYTE   En1  v032
 BYTE   W06
 BYTE   En1  v036
 BYTE   W06
 BYTE   N06
 BYTE   W06
 BYTE   En1  v024
 BYTE   W06
 BYTE   En1  v028
 BYTE   W06
 BYTE   N06
 BYTE   W06
 BYTE   En2  v044
 BYTE   W06
 BYTE   En1  v024
 BYTE   W06
 BYTE   En2  v028
 BYTE   W06
 BYTE   En1
 BYTE   W06
 BYTE   PEND 
// 012   ----------------------------------------
Label_12_0166BAE2:
 BYTE   N06  An1  v048
 BYTE   W06
 BYTE   An1  v024
 BYTE   W06
 BYTE   An1  v032
 BYTE   W06
 BYTE   An1  v024
 BYTE   W06
 BYTE   An1  v040
 BYTE   W06
 BYTE   An1  v024
 BYTE   W06
 BYTE   An1  v028
 BYTE   W06
 BYTE   An1  v036
 BYTE   W06
 BYTE   Gn1  v040
 BYTE   W06
 BYTE   Gn1  v024
 BYTE   W06
 BYTE   Gn1  v028
 BYTE   W06
 BYTE   N06
 BYTE   W06
 BYTE   Gn1  v040
 BYTE   W06
 BYTE   Gn1  v024
 BYTE   W06
 BYTE   Gn1  v028
 BYTE   W06
 BYTE   Gn1  v032
 BYTE   W06
 BYTE   PEND 
// 013   ----------------------------------------
 BYTE   PATT
  POIN2 Label_12_0166BA55
// 014   ----------------------------------------
 BYTE   PATT
  POIN2 Label_12_0166BA83
// 015   ----------------------------------------
 BYTE   N06  En1  v044
 BYTE   W06
 BYTE   En1  v024
 BYTE   W06
 BYTE   En1  v028
 BYTE   W06
 BYTE   N06
 BYTE   W06
 BYTE   En1  v044
 BYTE   W06
 BYTE   En1  v024
 BYTE   W06
 BYTE   En1  v032
 BYTE   W06
 BYTE   En1  v036
 BYTE   W06
 BYTE   N06
 BYTE   W06
 BYTE   En1  v024
 BYTE   W06
 BYTE   En1  v028
 BYTE   W06
 BYTE   N06
 BYTE   W05
 BYTE   En2  v044
 BYTE   W07
 BYTE   En1  v024
 BYTE   W06
 BYTE   En2  v028
 BYTE   W06
 BYTE   En1
 BYTE   W06
// 016   ----------------------------------------
 BYTE   PATT
  POIN2 Label_12_0166BAE2
// 017   ----------------------------------------
 BYTE   PATT
  POIN2 Label_12_0166BA55
// 018   ----------------------------------------
 BYTE   N06  Bn1  v048
 BYTE   W06
 BYTE   Bn1  v024
 BYTE   W06
 BYTE   Bn1  v032
 BYTE   W06
 BYTE   Bn1  v024
 BYTE   W06
 BYTE   Bn1  v040
 BYTE   W06
 BYTE   Bn1  v024
 BYTE   W06
 BYTE   Bn1  v028
 BYTE   W06
 BYTE   Bn1  v036
 BYTE   W06
 BYTE   Bn1  v040
 BYTE   W06
 BYTE   Bn1  v024
 BYTE   W06
 BYTE   Bn1  v028
 BYTE   W06
 BYTE   N06
 BYTE   W06
 BYTE   Bn2  v040
 BYTE   W06
 BYTE   Bn1  v024
 BYTE   W05
 BYTE   Bn2  v028
 BYTE   W07
 BYTE   Bn1  v032
 BYTE   W06
// 019   ----------------------------------------
 BYTE   En1  v044
 BYTE   W06
 BYTE   En1  v024
 BYTE   W06
 BYTE   En1  v028
 BYTE   W06
 BYTE   N06
 BYTE   W06
 BYTE   En1  v044
 BYTE   W06
 BYTE   En1  v024
 BYTE   W06
 BYTE   En1  v032
 BYTE   W06
 BYTE   En1  v036
 BYTE   W06
 BYTE   N06
 BYTE   W06
 BYTE   En1  v024
 BYTE   W06
 BYTE   En1  v028
 BYTE   W06
 BYTE   N06
 BYTE   W06
 BYTE   En2  v044
 BYTE   W06
 BYTE   En1  v024
 BYTE   W05
 BYTE   En2  v028
 BYTE   W07
 BYTE   En1
 BYTE   W06
// 020   ----------------------------------------
 BYTE   PATT
  POIN2 Label_12_0166BAE2
// 021   ----------------------------------------
 BYTE   N06  Fn1  v044
 BYTE   W06
 BYTE   Fn1  v024
 BYTE   W06
 BYTE   Fn1  v028
 BYTE   W06
 BYTE   N06
 BYTE   W06
 BYTE   Fn1  v044
 BYTE   W06
 BYTE   Fn1  v024
 BYTE   W06
 BYTE   Fn1  v032
 BYTE   W06
 BYTE   Fn1  v036
 BYTE   W06
 BYTE   N06
 BYTE   W06
 BYTE   Fn1  v024
 BYTE   W06
 BYTE   Fn1  v028
 BYTE   W06
 BYTE   N06
 BYTE   W06
 BYTE   Fn2  v044
 BYTE   W06
 BYTE   Fn1  v024
 BYTE   W05
 BYTE   Fn2  v028
 BYTE   W07
 BYTE   Fn1
 BYTE   W06
// 022   ----------------------------------------
 BYTE   PATT
  POIN2 Label_12_0166BA83
// 023   ----------------------------------------
 BYTE   PATT
  POIN2 Label_12_0166BAB4
// 024   ----------------------------------------
 BYTE   PATT
  POIN2 Label_12_0166BAE2
// 025   ----------------------------------------
 BYTE   N06  Dn1  v044
 BYTE   W06
 BYTE   Dn1  v024
 BYTE   W06
 BYTE   Dn1  v028
 BYTE   W06
 BYTE   N06
 BYTE   W06
 BYTE   Dn1  v044
 BYTE   W06
 BYTE   Dn1  v024
 BYTE   W06
 BYTE   Dn1  v032
 BYTE   W06
 BYTE   Dn1  v036
 BYTE   W06
 BYTE   N06
 BYTE   W06
 BYTE   Dn1  v024
 BYTE   W06
 BYTE   Dn1  v028
 BYTE   W06
 BYTE   N06
 BYTE   W06
 BYTE   Dn2  v044
 BYTE   W06
 BYTE   Dn1  v024
 BYTE   W05
 BYTE   Dn2  v028
 BYTE   W07
 BYTE   Dn1
 BYTE   W06
// 026   ----------------------------------------
 BYTE   En1  v048
 BYTE   W06
 BYTE   En1  v024
 BYTE   W06
 BYTE   En1  v032
 BYTE   W06
 BYTE   En1  v024
 BYTE   W06
 BYTE   En1  v040
 BYTE   W06
 BYTE   En1  v024
 BYTE   W06
 BYTE   En1  v028
 BYTE   W06
 BYTE   En1  v036
 BYTE   W06
 BYTE   En1  v040
 BYTE   W06
 BYTE   En1  v024
 BYTE   W06
 BYTE   En1  v028
 BYTE   W06
 BYTE   N06
 BYTE   W06
 BYTE   En2  v040
 BYTE   W06
 BYTE   En1  v024
 BYTE   W06
 BYTE   En2  v028
 BYTE   W06
 BYTE   En1  v032
 BYTE   W06
// 027   ----------------------------------------
 BYTE   Fn1  v044
 BYTE   W06
 BYTE   Fn1  v024
 BYTE   W06
 BYTE   Fn1  v028
 BYTE   W06
 BYTE   N06
 BYTE   W06
 BYTE   Fn1  v044
 BYTE   W06
 BYTE   Fn1  v024
 BYTE   W06
 BYTE   Fn1  v032
 BYTE   W06
 BYTE   Fn1  v036
 BYTE   W06
 BYTE   N06
 BYTE   W06
 BYTE   Fn1  v024
 BYTE   W06
 BYTE   Fn1  v028
 BYTE   W06
 BYTE   N06
 BYTE   W05
 BYTE   Fn2  v044
 BYTE   W07
 BYTE   Fn1  v024
 BYTE   W06
 BYTE   Fn2  v028
 BYTE   W06
 BYTE   Fn1
 BYTE   W06
// 028   ----------------------------------------
 BYTE   Gn1  v048
 BYTE   W06
 BYTE   Gn1  v024
 BYTE   W06
 BYTE   Gn1  v032
 BYTE   W06
 BYTE   Gn1  v024
 BYTE   W06
 BYTE   Gn1  v040
 BYTE   W06
 BYTE   Gn1  v024
 BYTE   W06
 BYTE   Gn1  v028
 BYTE   W06
 BYTE   Gn1  v036
 BYTE   W06
 BYTE   Gn1  v040
 BYTE   W06
 BYTE   Gn1  v024
 BYTE   W06
 BYTE   Gn1  v028
 BYTE   W06
 BYTE   N06
 BYTE   W06
 BYTE   Gn2  v040
 BYTE   W06
 BYTE   Gn1  v024
 BYTE   W06
 BYTE   Gn2  v028
 BYTE   W06
 BYTE   Gn1  v032
 BYTE   W06
// 029   ----------------------------------------
 BYTE   An0  v044
 BYTE   N06  An1
 BYTE   W06
 BYTE   An0  v024
 BYTE   N06  An1
 BYTE   W06
 BYTE   An0  v028
 BYTE   N06  An1
 BYTE   W06
 BYTE   An0
 BYTE   N06  An1
 BYTE   W06
 BYTE   An0  v044
 BYTE   N06  An1
 BYTE   W06
 BYTE   An0  v024
 BYTE   N06  An1
 BYTE   W06
 BYTE   An0  v032
 BYTE   N06  An1
 BYTE   W06
 BYTE   An0  v036
 BYTE   N06  An1
 BYTE   W06
 BYTE   An0
 BYTE   N06  An1
 BYTE   W06
 BYTE   An0  v024
 BYTE   N06  An1
 BYTE   W06
 BYTE   An0  v028
 BYTE   N06  An1
 BYTE   W06
 BYTE   An0
 BYTE   N06  An1
 BYTE   W06
 BYTE   An1  v044
 BYTE   N06  An2
 BYTE   W06
 BYTE   An0  v024
 BYTE   N06  An1
 BYTE   W06
 BYTE   N05  An1  v028
 BYTE   N06  An2
 BYTE   W06
 BYTE   An0
 BYTE   N01  An1
 BYTE   W06
// 030   ----------------------------------------
Label_12_0166BCF5:
 BYTE   N06  An0  v048
 BYTE   N06  An1
 BYTE   W06
 BYTE   An0  v024
 BYTE   N06  An1
 BYTE   W06
 BYTE   An0  v032
 BYTE   N06  An1
 BYTE   W06
 BYTE   An0  v024
 BYTE   N06  An1
 BYTE   W06
 BYTE   An0  v040
 BYTE   N06  An1
 BYTE   W06
 BYTE   An0  v024
 BYTE   N06  An1
 BYTE   W06
 BYTE   An0  v028
 BYTE   N06  An1
 BYTE   W06
 BYTE   An0  v036
 BYTE   N06  An1
 BYTE   W06
 BYTE   An0  v040
 BYTE   N06  An1
 BYTE   W06
 BYTE   An0  v024
 BYTE   N06  An1
 BYTE   W06
 BYTE   An0  v028
 BYTE   N06  An1
 BYTE   W06
 BYTE   An0
 BYTE   N06  An1
 BYTE   W06
 BYTE   An1  v040
 BYTE   N06  An2
 BYTE   W06
 BYTE   An0  v024
 BYTE   N06  An1
 BYTE   W06
 BYTE   An1  v028
 BYTE   N06  An2
 BYTE   W06
 BYTE   An0  v032
 BYTE   N06  An1
 BYTE   W06
 BYTE   PEND 
// 031   ----------------------------------------
Label_12_0166BD46:
 BYTE   N06  Cn0  v044
 BYTE   N06  Cn1
 BYTE   W06
 BYTE   Cn0  v024
 BYTE   N06  Cn1
 BYTE   W06
 BYTE   Cn0  v028
 BYTE   N06  Cn1
 BYTE   W06
 BYTE   Cn0
 BYTE   N06  Cn1
 BYTE   W06
 BYTE   Cn0  v044
 BYTE   N06  Cn1
 BYTE   W06
 BYTE   Cn0  v024
 BYTE   N06  Cn1
 BYTE   W06
 BYTE   Cn0  v032
 BYTE   N06  Cn1
 BYTE   W06
 BYTE   Cn0  v036
 BYTE   N06  Cn1
 BYTE   W06
 BYTE   Cn0
 BYTE   N06  Cn1
 BYTE   W06
 BYTE   Cn0  v024
 BYTE   N06  Cn1
 BYTE   W06
 BYTE   Cn0  v028
 BYTE   N06  Cn1
 BYTE   W06
 BYTE   Cn0
 BYTE   N06  Cn1
 BYTE   W06
 BYTE   Cn1  v044
 BYTE   N06  Cn2
 BYTE   W06
 BYTE   Cn0  v024
 BYTE   N06  Cn1
 BYTE   W06
 BYTE   Cn1  v028
 BYTE   N06  Cn2
 BYTE   W06
 BYTE   Cn0
 BYTE   N06  Cn1
 BYTE   W06
 BYTE   PEND 
// 032   ----------------------------------------
Label_12_0166BD94:
 BYTE   N06  Cn0  v048
 BYTE   N06  Cn1
 BYTE   W06
 BYTE   Cn0  v024
 BYTE   N06  Cn1
 BYTE   W06
 BYTE   Cn0  v032
 BYTE   N06  Cn1
 BYTE   W06
 BYTE   Cn0  v024
 BYTE   N06  Cn1
 BYTE   W06
 BYTE   Cn0  v040
 BYTE   N06  Cn1
 BYTE   W06
 BYTE   Cn0  v024
 BYTE   N06  Cn1
 BYTE   W06
 BYTE   Cn0  v028
 BYTE   N06  Cn1
 BYTE   W06
 BYTE   Cn0  v036
 BYTE   N06  Cn1
 BYTE   W06
 BYTE   Cn0  v040
 BYTE   N06  Cn1
 BYTE   W06
 BYTE   Cn0  v024
 BYTE   N06  Cn1
 BYTE   W06
 BYTE   Cn0  v028
 BYTE   N06  Cn1
 BYTE   W06
 BYTE   Cn0
 BYTE   N06  Cn1
 BYTE   W06
 BYTE   Cn1  v040
 BYTE   N06  Cn2
 BYTE   W06
 BYTE   Cn0  v024
 BYTE   N06  Cn1
 BYTE   W06
 BYTE   Cn1  v028
 BYTE   N06  Cn2
 BYTE   W06
 BYTE   Cn0  v032
 BYTE   N06  Cn1
 BYTE   W06
 BYTE   PEND 
// 033   ----------------------------------------
 BYTE   An0  v044
 BYTE   N06  An1
 BYTE   W06
 BYTE   An0  v024
 BYTE   N06  An1
 BYTE   W06
 BYTE   An0  v028
 BYTE   N06  An1
 BYTE   W06
 BYTE   An0
 BYTE   N06  An1
 BYTE   W06
 BYTE   An0  v044
 BYTE   N06  An1
 BYTE   W06
 BYTE   An0  v024
 BYTE   N06  An1
 BYTE   W06
 BYTE   An0  v032
 BYTE   N06  An1
 BYTE   W06
 BYTE   An0  v036
 BYTE   N06  An1
 BYTE   W06
 BYTE   An0
 BYTE   N06  An1
 BYTE   W06
 BYTE   An0  v024
 BYTE   N06  An1
 BYTE   W06
 BYTE   An0  v028
 BYTE   N06  An1
 BYTE   W06
 BYTE   An0
 BYTE   N06  An1
 BYTE   W06
 BYTE   An1  v044
 BYTE   N06  An2
 BYTE   W06
 BYTE   An0  v024
 BYTE   N06  An1
 BYTE   W06
 BYTE   An1  v028
 BYTE   N06  An2
 BYTE   W06
 BYTE   An0
 BYTE   N06  An1
 BYTE   W06
// 034   ----------------------------------------
 BYTE   PATT
  POIN2 Label_12_0166BCF5
// 035   ----------------------------------------
 BYTE   PATT
  POIN2 Label_12_0166BD46
// 036   ----------------------------------------
 BYTE   PATT
  POIN2 Label_12_0166BD94
// 037   ----------------------------------------
Label_12_0166BE40:
 BYTE   N06  Fn0  v044
 BYTE   N06  Fn1
 BYTE   W06
 BYTE   Fn0  v024
 BYTE   N06  Fn1
 BYTE   W06
 BYTE   Fn0  v028
 BYTE   N06  Fn1
 BYTE   W06
 BYTE   Fn0
 BYTE   N06  Fn1
 BYTE   W06
 BYTE   Fn0  v044
 BYTE   N06  Fn1
 BYTE   W06
 BYTE   Fn0  v024
 BYTE   N06  Fn1
 BYTE   W06
 BYTE   Fn0  v032
 BYTE   N06  Fn1
 BYTE   W06
 BYTE   Fn0  v036
 BYTE   N06  Fn1
 BYTE   W06
 BYTE   Fn0
 BYTE   N06  Fn1
 BYTE   W06
 BYTE   Fn0  v024
 BYTE   N06  Fn1
 BYTE   W06
 BYTE   Fn0  v028
 BYTE   N06  Fn1
 BYTE   W06
 BYTE   Fn0
 BYTE   N06  Fn1
 BYTE   W06
 BYTE   Fn1  v044
 BYTE   N06  Fn2
 BYTE   W06
 BYTE   Fn0  v024
 BYTE   N06  Fn1
 BYTE   W06
 BYTE   Fn1  v028
 BYTE   N06  Fn2
 BYTE   W06
 BYTE   Fn0
 BYTE   N06  Fn1
 BYTE   W06
 BYTE   PEND 
// 038   ----------------------------------------
Label_12_0166BE8E:
 BYTE   N06  Bn0  v048
 BYTE   N06  Bn1
 BYTE   W06
 BYTE   Bn0  v024
 BYTE   N06  Bn1
 BYTE   W06
 BYTE   Bn0  v032
 BYTE   N06  Bn1
 BYTE   W06
 BYTE   Bn0  v024
 BYTE   N06  Bn1
 BYTE   W06
 BYTE   Bn0  v040
 BYTE   N06  Bn1
 BYTE   W06
 BYTE   Bn0  v024
 BYTE   N06  Bn1
 BYTE   W06
 BYTE   Bn0  v028
 BYTE   N06  Bn1
 BYTE   W06
 BYTE   Bn0  v036
 BYTE   N06  Bn1
 BYTE   W06
 BYTE   Bn0  v040
 BYTE   N06  Bn1
 BYTE   W06
 BYTE   Bn0  v024
 BYTE   N06  Bn1
 BYTE   W06
 BYTE   Bn0  v028
 BYTE   N06  Bn1
 BYTE   W06
 BYTE   Bn0
 BYTE   N06  Bn1
 BYTE   W06
 BYTE   Bn1  v040
 BYTE   N06  Bn2
 BYTE   W06
 BYTE   Bn0  v024
 BYTE   N06  Bn1
 BYTE   W06
 BYTE   Bn1  v028
 BYTE   N06  Bn2
 BYTE   W06
 BYTE   Bn0  v032
 BYTE   N06  Bn1
 BYTE   W06
 BYTE   PEND 
// 039   ----------------------------------------
Label_12_0166BEDF:
 BYTE   N06  En0  v044
 BYTE   N06  En1
 BYTE   W06
 BYTE   En0  v024
 BYTE   N06  En1
 BYTE   W06
 BYTE   En0  v028
 BYTE   N06  En1
 BYTE   W06
 BYTE   En0
 BYTE   N06  En1
 BYTE   W06
 BYTE   En0  v044
 BYTE   N06  En1
 BYTE   W06
 BYTE   En0  v024
 BYTE   N06  En1
 BYTE   W06
 BYTE   En0  v032
 BYTE   N06  En1
 BYTE   W06
 BYTE   En0  v036
 BYTE   N06  En1
 BYTE   W06
 BYTE   En0
 BYTE   N06  En1
 BYTE   W06
 BYTE   En0  v024
 BYTE   N06  En1
 BYTE   W06
 BYTE   En0  v028
 BYTE   N06  En1
 BYTE   W06
 BYTE   En0
 BYTE   N06  En1
 BYTE   W06
 BYTE   En1  v044
 BYTE   N06  En2
 BYTE   W06
 BYTE   En0  v024
 BYTE   N06  En1
 BYTE   W06
 BYTE   En1  v028
 BYTE   N06  En2
 BYTE   W06
 BYTE   En0
 BYTE   N06  En1
 BYTE   W06
 BYTE   PEND 
// 040   ----------------------------------------
Label_12_0166BF2D:
 BYTE   N06  An0  v048
 BYTE   N06  An1
 BYTE   W06
 BYTE   An0  v024
 BYTE   N06  An1
 BYTE   W06
 BYTE   An0  v032
 BYTE   N06  An1
 BYTE   W06
 BYTE   An0  v024
 BYTE   N06  An1
 BYTE   W06
 BYTE   An0  v040
 BYTE   N06  An1
 BYTE   W06
 BYTE   An0  v024
 BYTE   N06  An1
 BYTE   W06
 BYTE   An0  v028
 BYTE   N06  An1
 BYTE   W06
 BYTE   An0  v036
 BYTE   N06  An1
 BYTE   W06
 BYTE   Gn0  v040
 BYTE   N06  Gn1
 BYTE   W06
 BYTE   Gn0  v024
 BYTE   N06  Gn1
 BYTE   W06
 BYTE   Gn0  v028
 BYTE   N06  Gn1
 BYTE   W06
 BYTE   Gn0
 BYTE   N06  Gn1
 BYTE   W06
 BYTE   Gn1  v040
 BYTE   N06  Gn2
 BYTE   W06
 BYTE   Gn0  v024
 BYTE   N06  Gn1
 BYTE   W06
 BYTE   Gn1  v028
 BYTE   N06  Gn2
 BYTE   W06
 BYTE   Gn0  v032
 BYTE   N06  Gn1
 BYTE   W06
 BYTE   PEND 
// 041   ----------------------------------------
 BYTE   PATT
  POIN2 Label_12_0166BE40
// 042   ----------------------------------------
 BYTE   PATT
  POIN2 Label_12_0166BE8E
// 043   ----------------------------------------
 BYTE   PATT
  POIN2 Label_12_0166BEDF
// 044   ----------------------------------------
 BYTE   PATT
  POIN2 Label_12_0166BF2D
// 045   ----------------------------------------
 BYTE   N06  Dn0  v044
 BYTE   N06  Dn1
 BYTE   W06
 BYTE   Dn0  v024
 BYTE   N06  Dn1
 BYTE   W06
 BYTE   Dn0  v028
 BYTE   N06  Dn1
 BYTE   W06
 BYTE   Dn0
 BYTE   N06  Dn1
 BYTE   W06
 BYTE   Dn0  v044
 BYTE   N06  Dn1
 BYTE   W06
 BYTE   Dn0  v024
 BYTE   N06  Dn1
 BYTE   W06
 BYTE   Dn0  v032
 BYTE   N06  Dn1
 BYTE   W06
 BYTE   Dn0  v036
 BYTE   N06  Dn1
 BYTE   W06
 BYTE   Dn0
 BYTE   N06  Dn1
 BYTE   W06
 BYTE   Dn0  v024
 BYTE   N06  Dn1
 BYTE   W06
 BYTE   Dn0  v028
 BYTE   N06  Dn1
 BYTE   W06
 BYTE   Dn0
 BYTE   N06  Dn1
 BYTE   W06
 BYTE   Dn1  v044
 BYTE   N06  Dn2
 BYTE   W06
 BYTE   Dn0  v024
 BYTE   N06  Dn1
 BYTE   W06
 BYTE   Dn1  v028
 BYTE   N06  Dn2
 BYTE   W06
 BYTE   Dn0
 BYTE   N06  Dn1
 BYTE   W06
// 046   ----------------------------------------
 BYTE   En0  v048
 BYTE   N06  En1
 BYTE   W06
 BYTE   En0  v024
 BYTE   N06  En1
 BYTE   W06
 BYTE   En0  v032
 BYTE   N06  En1
 BYTE   W06
 BYTE   En0  v024
 BYTE   N06  En1
 BYTE   W06
 BYTE   En0  v040
 BYTE   N06  En1
 BYTE   W06
 BYTE   En0  v024
 BYTE   N06  En1
 BYTE   W06
 BYTE   En0  v028
 BYTE   N06  En1
 BYTE   W06
 BYTE   En0  v036
 BYTE   N06  En1
 BYTE   W06
 BYTE   En0  v040
 BYTE   N06  En1
 BYTE   W06
 BYTE   En0  v024
 BYTE   N06  En1
 BYTE   W06
 BYTE   En0  v028
 BYTE   N06  En1
 BYTE   W06
 BYTE   En0
 BYTE   N06  En1
 BYTE   W06
 BYTE   En1  v040
 BYTE   N06  En2
 BYTE   W06
 BYTE   En0  v024
 BYTE   N06  En1
 BYTE   W06
 BYTE   En1  v028
 BYTE   N06  En2
 BYTE   W06
 BYTE   En0  v032
 BYTE   N06  En1
 BYTE   W06
// 047   ----------------------------------------
 BYTE   PATT
  POIN2 Label_12_0166BE40
// 048   ----------------------------------------
 BYTE   N06  Gn0  v048
 BYTE   N06  Gn1
 BYTE   W06
 BYTE   Gn0  v024
 BYTE   N06  Gn1
 BYTE   W06
 BYTE   Gn0  v032
 BYTE   N06  Gn1
 BYTE   W06
 BYTE   Gn0  v024
 BYTE   N06  Gn1
 BYTE   W06
 BYTE   Gn0  v040
 BYTE   N06  Gn1
 BYTE   W06
 BYTE   Gn0  v024
 BYTE   N06  Gn1
 BYTE   W06
 BYTE   Gn0  v028
 BYTE   N06  Gn1
 BYTE   W06
 BYTE   Gn0  v036
 BYTE   N06  Gn1
 BYTE   W06
 BYTE   Gn0  v040
 BYTE   N06  Gn1
 BYTE   W06
 BYTE   Gn0  v024
 BYTE   N06  Gn1
 BYTE   W06
 BYTE   Gn0  v028
 BYTE   N06  Gn1
 BYTE   W06
 BYTE   Gn0
 BYTE   N06  Gn1
 BYTE   W06
 BYTE   Gn1  v040
 BYTE   N06  Gn2
 BYTE   W06
 BYTE   Gn0  v024
 BYTE   N06  Gn1
 BYTE   W06
 BYTE   Gn1  v028
 BYTE   N06  Gn2
 BYTE   W06
 BYTE   Gn0  v032
 BYTE   N06  Gn1
 BYTE   W06
// 049   ----------------------------------------
 BYTE   N96  Dn0  v044
 BYTE   N96  Dn1
 BYTE   W96
// 050   ----------------------------------------
 BYTE   En0  v048
 BYTE   N96  En1
 BYTE   W96
// 051   ----------------------------------------
 BYTE   Fn0  v044
 BYTE   N96  Fn1
 BYTE   W96
// 052   ----------------------------------------
 BYTE   N48  Gn0  v048
 BYTE   N48  Gn1
 BYTE   W48
 BYTE   Gn0  v040
 BYTE   N48  Gn1
 BYTE   W48
// 053   ----------------------------------------
 BYTE   W96
// 054   ----------------------------------------
 BYTE   GoTo
  POIN2 Label_12_0166BA55
 BYTE   FINE

//**************** Track 14 (Midi-Chn.13) ****************//

DKC2StickerbrushSymphonyRetina_014:
// 000   ----------------------------------------
 BYTE   KEYSH   DKC2StickerbrushSymphonyRetina_key+0
 BYTE   VOICE   35
 BYTE   MODT 0
 BYTE   CnM2  v000
 BYTE   LFOS 0
 BYTE   CnM2  v044
 BYTE   VOL   28*DKC2StickerbrushSymphonyRetina_mvl/mxv
 BYTE   PAN   c_v+0
 BYTE   W96
// 001   ----------------------------------------
 BYTE   W96
// 002   ----------------------------------------
 BYTE   W96
// 003   ----------------------------------------
 BYTE   W96
// 004   ----------------------------------------
 BYTE   W96
// 005   ----------------------------------------
 BYTE   W96
// 006   ----------------------------------------
 BYTE   W96
// 007   ----------------------------------------
 BYTE   W96
// 008   ----------------------------------------
 BYTE   W96
// 009   ----------------------------------------
Label_13_0166C0C1:
 BYTE   N06  Fn1  v056
 BYTE   W06
 BYTE   Fn1  v032
 BYTE   W06
 BYTE   Fn1  v036
 BYTE   W06
 BYTE   N06
 BYTE   W06
 BYTE   Fn1  v052
 BYTE   W06
 BYTE   Fn1  v032
 BYTE   W06
 BYTE   Fn1  v040
 BYTE   W06
 BYTE   Fn1  v048
 BYTE   W06
 BYTE   N06
 BYTE   W06
 BYTE   Fn1  v032
 BYTE   W06
 BYTE   Fn1  v040
 BYTE   W06
 BYTE   Fn1  v036
 BYTE   W06
 BYTE   Fn2  v056
 BYTE   W06
 BYTE   Fn1  v032
 BYTE   W06
 BYTE   Fn2  v036
 BYTE   W06
 BYTE   Fn1
 BYTE   W06
 BYTE   PEND 
// 010   ----------------------------------------
 BYTE   Bn1  v056
 BYTE   W06
 BYTE   Bn1  v032
 BYTE   W06
 BYTE   Bn1  v040
 BYTE   W06
 BYTE   Bn1  v032
 BYTE   W06
 BYTE   Bn1  v052
 BYTE   W06
 BYTE   Bn1  v032
 BYTE   W06
 BYTE   Bn1  v036
 BYTE   W06
 BYTE   Bn1  v048
 BYTE   W06
 BYTE   Bn1  v052
 BYTE   W06
 BYTE   Bn1  v032
 BYTE   W06
 BYTE   Bn1  v036
 BYTE   W06
 BYTE   Bn1  v040
 BYTE   W05
 BYTE   Bn2  v048
 BYTE   W07
 BYTE   Bn1  v032
 BYTE   W05
 BYTE   Bn2  v036
 BYTE   W07
 BYTE   Bn1  v040
 BYTE   W06
// 011   ----------------------------------------
Label_13_0166C120:
 BYTE   N06  En1  v056
 BYTE   W06
 BYTE   En1  v032
 BYTE   W06
 BYTE   En1  v036
 BYTE   W06
 BYTE   N06
 BYTE   W06
 BYTE   En1  v052
 BYTE   W06
 BYTE   En1  v032
 BYTE   W06
 BYTE   En1  v040
 BYTE   W06
 BYTE   En1  v048
 BYTE   W06
 BYTE   N06
 BYTE   W06
 BYTE   En1  v032
 BYTE   W06
 BYTE   En1  v040
 BYTE   W06
 BYTE   En1  v036
 BYTE   W06
 BYTE   En2  v056
 BYTE   W06
 BYTE   En1  v032
 BYTE   W05
 BYTE   En2  v036
 BYTE   W07
 BYTE   En1
 BYTE   W06
 BYTE   PEND 
// 012   ----------------------------------------
Label_13_0166C14F:
 BYTE   N06  An1  v056
 BYTE   W06
 BYTE   An1  v032
 BYTE   W06
 BYTE   An1  v040
 BYTE   W06
 BYTE   An1  v032
 BYTE   W06
 BYTE   An1  v052
 BYTE   W06
 BYTE   An1  v032
 BYTE   W06
 BYTE   An1  v036
 BYTE   W06
 BYTE   An1  v048
 BYTE   W06
 BYTE   Gn1  v052
 BYTE   W06
 BYTE   Gn1  v032
 BYTE   W06
 BYTE   Gn1  v036
 BYTE   W06
 BYTE   Gn1  v040
 BYTE   W06
 BYTE   Gn1  v048
 BYTE   W06
 BYTE   Gn1  v032
 BYTE   W06
 BYTE   Gn1  v036
 BYTE   W06
 BYTE   Gn1  v040
 BYTE   W06
 BYTE   PEND 
// 013   ----------------------------------------
 BYTE   PATT
  POIN2 Label_13_0166C0C1
// 014   ----------------------------------------
Label_13_0166C186:
 BYTE   N06  Bn1  v056
 BYTE   W06
 BYTE   Bn1  v032
 BYTE   W06
 BYTE   Bn1  v040
 BYTE   W06
 BYTE   Bn1  v032
 BYTE   W06
 BYTE   Bn1  v052
 BYTE   W06
 BYTE   Bn1  v032
 BYTE   W06
 BYTE   Bn1  v036
 BYTE   W06
 BYTE   Bn1  v048
 BYTE   W06
 BYTE   Bn1  v052
 BYTE   W06
 BYTE   Bn1  v032
 BYTE   W06
 BYTE   Bn1  v036
 BYTE   W06
 BYTE   Bn1  v040
 BYTE   W06
 BYTE   Bn2  v048
 BYTE   W06
 BYTE   Bn1  v032
 BYTE   W05
 BYTE   Bn2  v036
 BYTE   W07
 BYTE   Bn1  v040
 BYTE   W06
 BYTE   PEND 
// 015   ----------------------------------------
Label_13_0166C1B8:
 BYTE   N06  En1  v056
 BYTE   W06
 BYTE   En1  v032
 BYTE   W06
 BYTE   En1  v036
 BYTE   W06
 BYTE   N06
 BYTE   W06
 BYTE   En1  v052
 BYTE   W06
 BYTE   En1  v032
 BYTE   W06
 BYTE   En1  v040
 BYTE   W06
 BYTE   En1  v048
 BYTE   W06
 BYTE   N06
 BYTE   W06
 BYTE   En1  v032
 BYTE   W06
 BYTE   En1  v040
 BYTE   W06
 BYTE   En1  v036
 BYTE   W06
 BYTE   En2  v056
 BYTE   W06
 BYTE   En1  v032
 BYTE   W06
 BYTE   En2  v036
 BYTE   W06
 BYTE   En1
 BYTE   W06
 BYTE   PEND 
// 016   ----------------------------------------
 BYTE   PATT
  POIN2 Label_13_0166C14F
// 017   ----------------------------------------
 BYTE   PATT
  POIN2 Label_13_0166C0C1
// 018   ----------------------------------------
 BYTE   PATT
  POIN2 Label_13_0166C186
// 019   ----------------------------------------
 BYTE   PATT
  POIN2 Label_13_0166C120
// 020   ----------------------------------------
 BYTE   PATT
  POIN2 Label_13_0166C14F
// 021   ----------------------------------------
 BYTE   N06  Fn1  v056
 BYTE   W06
 BYTE   Fn1  v032
 BYTE   W06
 BYTE   Fn1  v036
 BYTE   W06
 BYTE   N06
 BYTE   W06
 BYTE   Fn1  v052
 BYTE   W06
 BYTE   Fn1  v032
 BYTE   W06
 BYTE   Fn1  v040
 BYTE   W06
 BYTE   Fn1  v048
 BYTE   W06
 BYTE   N06
 BYTE   W06
 BYTE   Fn1  v032
 BYTE   W06
 BYTE   Fn1  v040
 BYTE   W06
 BYTE   Fn1  v036
 BYTE   W06
 BYTE   Fn2  v056
 BYTE   W06
 BYTE   Fn1  v032
 BYTE   W05
 BYTE   Fn2  v036
 BYTE   W07
 BYTE   Fn1
 BYTE   W06
// 022   ----------------------------------------
 BYTE   Bn1  v056
 BYTE   W06
 BYTE   Bn1  v032
 BYTE   W06
 BYTE   Bn1  v040
 BYTE   W06
 BYTE   Bn1  v032
 BYTE   W06
 BYTE   Bn1  v052
 BYTE   W06
 BYTE   Bn1  v032
 BYTE   W06
 BYTE   Bn1  v036
 BYTE   W06
 BYTE   Bn1  v048
 BYTE   W06
 BYTE   Bn1  v052
 BYTE   W06
 BYTE   Bn1  v032
 BYTE   W06
 BYTE   Bn1  v036
 BYTE   W06
 BYTE   Bn1  v040
 BYTE   W06
 BYTE   Bn2  v048
 BYTE   W06
 BYTE   Bn1  v032
 BYTE   W06
 BYTE   Bn2  v036
 BYTE   W06
 BYTE   Bn1  v040
 BYTE   W06
// 023   ----------------------------------------
 BYTE   PATT
  POIN2 Label_13_0166C1B8
// 024   ----------------------------------------
 BYTE   PATT
  POIN2 Label_13_0166C14F
// 025   ----------------------------------------
 BYTE   N06  Dn1  v056
 BYTE   W06
 BYTE   Dn1  v032
 BYTE   W06
 BYTE   Dn1  v036
 BYTE   W06
 BYTE   N06
 BYTE   W06
 BYTE   Dn1  v052
 BYTE   W06
 BYTE   Dn1  v032
 BYTE   W06
 BYTE   Dn1  v040
 BYTE   W06
 BYTE   Dn1  v048
 BYTE   W06
 BYTE   N06
 BYTE   W06
 BYTE   Dn1  v032
 BYTE   W06
 BYTE   Dn1  v040
 BYTE   W06
 BYTE   Dn1  v036
 BYTE   W06
 BYTE   Dn2  v056
 BYTE   W06
 BYTE   Dn1  v032
 BYTE   W05
 BYTE   Dn2  v036
 BYTE   W07
 BYTE   Dn1
 BYTE   W06
// 026   ----------------------------------------
 BYTE   En1  v056
 BYTE   W06
 BYTE   En1  v032
 BYTE   W06
 BYTE   En1  v040
 BYTE   W06
 BYTE   En1  v032
 BYTE   W06
 BYTE   En1  v052
 BYTE   W06
 BYTE   En1  v032
 BYTE   W06
 BYTE   En1  v036
 BYTE   W06
 BYTE   En1  v048
 BYTE   W06
 BYTE   En1  v052
 BYTE   W06
 BYTE   En1  v032
 BYTE   W06
 BYTE   En1  v036
 BYTE   W06
 BYTE   En1  v040
 BYTE   W06
 BYTE   En2  v048
 BYTE   W06
 BYTE   En1  v032
 BYTE   W06
 BYTE   En2  v036
 BYTE   W06
 BYTE   En1  v040
 BYTE   W06
// 027   ----------------------------------------
 BYTE   Fn1  v056
 BYTE   W06
 BYTE   Fn1  v032
 BYTE   W06
 BYTE   Fn1  v036
 BYTE   W06
 BYTE   N06
 BYTE   W06
 BYTE   Fn1  v052
 BYTE   W06
 BYTE   Fn1  v032
 BYTE   W06
 BYTE   Fn1  v040
 BYTE   W06
 BYTE   Fn1  v048
 BYTE   W06
 BYTE   N06
 BYTE   W06
 BYTE   Fn1  v032
 BYTE   W06
 BYTE   Fn1  v040
 BYTE   W06
 BYTE   Fn1  v036
 BYTE   W05
 BYTE   Fn2  v056
 BYTE   W07
 BYTE   Fn1  v032
 BYTE   W06
 BYTE   Fn2  v036
 BYTE   W06
 BYTE   Fn1
 BYTE   W06
// 028   ----------------------------------------
 BYTE   Gn1  v056
 BYTE   W06
 BYTE   Gn1  v032
 BYTE   W06
 BYTE   Gn1  v040
 BYTE   W06
 BYTE   Gn1  v032
 BYTE   W06
 BYTE   Gn1  v052
 BYTE   W06
 BYTE   Gn1  v032
 BYTE   W06
 BYTE   Gn1  v036
 BYTE   W06
 BYTE   Gn1  v048
 BYTE   W06
 BYTE   Gn1  v052
 BYTE   W06
 BYTE   Gn1  v032
 BYTE   W06
 BYTE   Gn1  v036
 BYTE   W06
 BYTE   Gn1  v040
 BYTE   W06
 BYTE   Gn2  v048
 BYTE   W06
 BYTE   Gn1  v032
 BYTE   W06
 BYTE   Gn2  v036
 BYTE   W06
 BYTE   Gn1  v040
 BYTE   W06
// 029   ----------------------------------------
 BYTE   An0  v056
 BYTE   N06  An1
 BYTE   W06
 BYTE   An0  v032
 BYTE   N06  An1
 BYTE   W06
 BYTE   An0  v036
 BYTE   N06  An1
 BYTE   W06
 BYTE   An0
 BYTE   N06  An1
 BYTE   W06
 BYTE   An0  v052
 BYTE   N06  An1
 BYTE   W06
 BYTE   An0  v032
 BYTE   N06  An1
 BYTE   W06
 BYTE   An0  v040
 BYTE   N06  An1
 BYTE   W06
 BYTE   An0  v048
 BYTE   N06  An1
 BYTE   W06
 BYTE   An0
 BYTE   N06  An1
 BYTE   W06
 BYTE   An0  v032
 BYTE   N06  An1
 BYTE   W06
 BYTE   An0  v040
 BYTE   N06  An1
 BYTE   W06
 BYTE   An0  v036
 BYTE   N06  An1
 BYTE   W06
 BYTE   An1  v056
 BYTE   N06  An2
 BYTE   W06
 BYTE   An0  v032
 BYTE   N06  An1
 BYTE   W06
 BYTE   N05  An1  v036
 BYTE   N06  An2
 BYTE   W06
 BYTE   An0
 BYTE   N01  An1
 BYTE   W06
// 030   ----------------------------------------
Label_13_0166C371:
 BYTE   N06  An0  v056
 BYTE   N06  An1
 BYTE   W06
 BYTE   An0  v032
 BYTE   N06  An1
 BYTE   W06
 BYTE   An0  v040
 BYTE   N06  An1
 BYTE   W06
 BYTE   An0  v032
 BYTE   N06  An1
 BYTE   W06
 BYTE   An0  v052
 BYTE   N06  An1
 BYTE   W06
 BYTE   An0  v032
 BYTE   N06  An1
 BYTE   W06
 BYTE   An0  v036
 BYTE   N06  An1
 BYTE   W06
 BYTE   An0  v048
 BYTE   N06  An1
 BYTE   W06
 BYTE   An0  v052
 BYTE   N06  An1
 BYTE   W06
 BYTE   An0  v032
 BYTE   N06  An1
 BYTE   W06
 BYTE   An0  v036
 BYTE   N06  An1
 BYTE   W06
 BYTE   An0  v040
 BYTE   N06  An1
 BYTE   W06
 BYTE   An1  v048
 BYTE   N06  An2
 BYTE   W06
 BYTE   An0  v032
 BYTE   N06  An1
 BYTE   W06
 BYTE   An1  v036
 BYTE   N06  An2
 BYTE   W06
 BYTE   An0  v040
 BYTE   N06  An1
 BYTE   W06
 BYTE   PEND 
// 031   ----------------------------------------
Label_13_0166C3C3:
 BYTE   N06  Cn0  v056
 BYTE   N06  Cn1
 BYTE   W06
 BYTE   Cn0  v032
 BYTE   N06  Cn1
 BYTE   W06
 BYTE   Cn0  v036
 BYTE   N06  Cn1
 BYTE   W06
 BYTE   Cn0
 BYTE   N06  Cn1
 BYTE   W06
 BYTE   Cn0  v052
 BYTE   N06  Cn1
 BYTE   W06
 BYTE   Cn0  v032
 BYTE   N06  Cn1
 BYTE   W06
 BYTE   Cn0  v040
 BYTE   N06  Cn1
 BYTE   W06
 BYTE   Cn0  v048
 BYTE   N06  Cn1
 BYTE   W06
 BYTE   Cn0
 BYTE   N06  Cn1
 BYTE   W06
 BYTE   Cn0  v032
 BYTE   N06  Cn1
 BYTE   W06
 BYTE   Cn0  v040
 BYTE   N06  Cn1
 BYTE   W06
 BYTE   Cn0  v036
 BYTE   N06  Cn1
 BYTE   W06
 BYTE   Cn1  v056
 BYTE   N06  Cn2
 BYTE   W06
 BYTE   Cn0  v032
 BYTE   N06  Cn1
 BYTE   W06
 BYTE   Cn1  v036
 BYTE   N06  Cn2
 BYTE   W06
 BYTE   Cn0
 BYTE   N06  Cn1
 BYTE   W06
 BYTE   PEND 
// 032   ----------------------------------------
Label_13_0166C412:
 BYTE   N06  Cn0  v056
 BYTE   N06  Cn1
 BYTE   W06
 BYTE   Cn0  v032
 BYTE   N06  Cn1
 BYTE   W06
 BYTE   Cn0  v040
 BYTE   N06  Cn1
 BYTE   W06
 BYTE   Cn0  v032
 BYTE   N06  Cn1
 BYTE   W06
 BYTE   Cn0  v052
 BYTE   N06  Cn1
 BYTE   W06
 BYTE   Cn0  v032
 BYTE   N06  Cn1
 BYTE   W06
 BYTE   Cn0  v036
 BYTE   N06  Cn1
 BYTE   W06
 BYTE   Cn0  v048
 BYTE   N06  Cn1
 BYTE   W06
 BYTE   Cn0  v052
 BYTE   N06  Cn1
 BYTE   W06
 BYTE   Cn0  v032
 BYTE   N06  Cn1
 BYTE   W06
 BYTE   Cn0  v036
 BYTE   N06  Cn1
 BYTE   W06
 BYTE   Cn0  v040
 BYTE   N06  Cn1
 BYTE   W06
 BYTE   Cn1  v048
 BYTE   N06  Cn2
 BYTE   W06
 BYTE   Cn0  v032
 BYTE   N06  Cn1
 BYTE   W06
 BYTE   Cn1  v036
 BYTE   N06  Cn2
 BYTE   W06
 BYTE   Cn0  v040
 BYTE   N06  Cn1
 BYTE   W06
 BYTE   PEND 
// 033   ----------------------------------------
 BYTE   An0  v056
 BYTE   N06  An1
 BYTE   W06
 BYTE   An0  v032
 BYTE   N06  An1
 BYTE   W06
 BYTE   An0  v036
 BYTE   N06  An1
 BYTE   W06
 BYTE   An0
 BYTE   N06  An1
 BYTE   W06
 BYTE   An0  v052
 BYTE   N06  An1
 BYTE   W06
 BYTE   An0  v032
 BYTE   N06  An1
 BYTE   W06
 BYTE   An0  v040
 BYTE   N06  An1
 BYTE   W06
 BYTE   An0  v048
 BYTE   N06  An1
 BYTE   W06
 BYTE   An0
 BYTE   N06  An1
 BYTE   W06
 BYTE   An0  v032
 BYTE   N06  An1
 BYTE   W06
 BYTE   An0  v040
 BYTE   N06  An1
 BYTE   W06
 BYTE   An0  v036
 BYTE   N06  An1
 BYTE   W06
 BYTE   An1  v056
 BYTE   N06  An2
 BYTE   W06
 BYTE   An0  v032
 BYTE   N06  An1
 BYTE   W06
 BYTE   An1  v036
 BYTE   N06  An2
 BYTE   W06
 BYTE   An0
 BYTE   N06  An1
 BYTE   W06
// 034   ----------------------------------------
 BYTE   PATT
  POIN2 Label_13_0166C371
// 035   ----------------------------------------
 BYTE   PATT
  POIN2 Label_13_0166C3C3
// 036   ----------------------------------------
 BYTE   PATT
  POIN2 Label_13_0166C412
// 037   ----------------------------------------
Label_13_0166C4C0:
 BYTE   N06  Fn0  v056
 BYTE   N06  Fn1
 BYTE   W06
 BYTE   Fn0  v032
 BYTE   N06  Fn1
 BYTE   W06
 BYTE   Fn0  v036
 BYTE   N06  Fn1
 BYTE   W06
 BYTE   Fn0
 BYTE   N06  Fn1
 BYTE   W06
 BYTE   Fn0  v052
 BYTE   N06  Fn1
 BYTE   W06
 BYTE   Fn0  v032
 BYTE   N06  Fn1
 BYTE   W06
 BYTE   Fn0  v040
 BYTE   N06  Fn1
 BYTE   W06
 BYTE   Fn0  v048
 BYTE   N06  Fn1
 BYTE   W06
 BYTE   Fn0
 BYTE   N06  Fn1
 BYTE   W06
 BYTE   Fn0  v032
 BYTE   N06  Fn1
 BYTE   W06
 BYTE   Fn0  v040
 BYTE   N06  Fn1
 BYTE   W06
 BYTE   Fn0  v036
 BYTE   N06  Fn1
 BYTE   W06
 BYTE   Fn1  v056
 BYTE   N06  Fn2
 BYTE   W06
 BYTE   Fn0  v032
 BYTE   N06  Fn1
 BYTE   W06
 BYTE   Fn1  v036
 BYTE   N06  Fn2
 BYTE   W06
 BYTE   Fn0
 BYTE   N06  Fn1
 BYTE   W06
 BYTE   PEND 
// 038   ----------------------------------------
Label_13_0166C50F:
 BYTE   N06  Bn0  v056
 BYTE   N06  Bn1
 BYTE   W06
 BYTE   Bn0  v032
 BYTE   N06  Bn1
 BYTE   W06
 BYTE   Bn0  v040
 BYTE   N06  Bn1
 BYTE   W06
 BYTE   Bn0  v032
 BYTE   N06  Bn1
 BYTE   W06
 BYTE   Bn0  v052
 BYTE   N06  Bn1
 BYTE   W06
 BYTE   Bn0  v032
 BYTE   N06  Bn1
 BYTE   W06
 BYTE   Bn0  v036
 BYTE   N06  Bn1
 BYTE   W06
 BYTE   Bn0  v048
 BYTE   N06  Bn1
 BYTE   W06
 BYTE   Bn0  v052
 BYTE   N06  Bn1
 BYTE   W06
 BYTE   Bn0  v032
 BYTE   N06  Bn1
 BYTE   W06
 BYTE   Bn0  v036
 BYTE   N06  Bn1
 BYTE   W06
 BYTE   Bn0  v040
 BYTE   N06  Bn1
 BYTE   W06
 BYTE   Bn1  v048
 BYTE   N06  Bn2
 BYTE   W06
 BYTE   Bn0  v032
 BYTE   N06  Bn1
 BYTE   W06
 BYTE   Bn1  v036
 BYTE   N06  Bn2
 BYTE   W06
 BYTE   Bn0  v040
 BYTE   N06  Bn1
 BYTE   W06
 BYTE   PEND 
// 039   ----------------------------------------
Label_13_0166C561:
 BYTE   N06  En0  v056
 BYTE   N06  En1
 BYTE   W06
 BYTE   En0  v032
 BYTE   N06  En1
 BYTE   W06
 BYTE   En0  v036
 BYTE   N06  En1
 BYTE   W06
 BYTE   En0
 BYTE   N06  En1
 BYTE   W06
 BYTE   En0  v052
 BYTE   N06  En1
 BYTE   W06
 BYTE   En0  v032
 BYTE   N06  En1
 BYTE   W06
 BYTE   En0  v040
 BYTE   N06  En1
 BYTE   W06
 BYTE   En0  v048
 BYTE   N06  En1
 BYTE   W06
 BYTE   En0
 BYTE   N06  En1
 BYTE   W06
 BYTE   En0  v032
 BYTE   N06  En1
 BYTE   W06
 BYTE   En0  v040
 BYTE   N06  En1
 BYTE   W06
 BYTE   En0  v036
 BYTE   N06  En1
 BYTE   W06
 BYTE   En1  v056
 BYTE   N06  En2
 BYTE   W06
 BYTE   En0  v032
 BYTE   N06  En1
 BYTE   W06
 BYTE   En1  v036
 BYTE   N06  En2
 BYTE   W06
 BYTE   En0
 BYTE   N06  En1
 BYTE   W06
 BYTE   PEND 
// 040   ----------------------------------------
Label_13_0166C5B0:
 BYTE   N06  An0  v056
 BYTE   N06  An1
 BYTE   W06
 BYTE   An0  v032
 BYTE   N06  An1
 BYTE   W06
 BYTE   An0  v040
 BYTE   N06  An1
 BYTE   W06
 BYTE   An0  v032
 BYTE   N06  An1
 BYTE   W06
 BYTE   An0  v052
 BYTE   N06  An1
 BYTE   W06
 BYTE   An0  v032
 BYTE   N06  An1
 BYTE   W06
 BYTE   An0  v036
 BYTE   N06  An1
 BYTE   W06
 BYTE   An0  v048
 BYTE   N06  An1
 BYTE   W06
 BYTE   Gn0  v052
 BYTE   N06  Gn1
 BYTE   W06
 BYTE   Gn0  v032
 BYTE   N06  Gn1
 BYTE   W06
 BYTE   Gn0  v036
 BYTE   N06  Gn1
 BYTE   W06
 BYTE   Gn0  v040
 BYTE   N06  Gn1
 BYTE   W06
 BYTE   Gn1  v048
 BYTE   N06  Gn2
 BYTE   W06
 BYTE   Gn0  v032
 BYTE   N06  Gn1
 BYTE   W06
 BYTE   Gn1  v036
 BYTE   N06  Gn2
 BYTE   W06
 BYTE   Gn0  v040
 BYTE   N06  Gn1
 BYTE   W06
 BYTE   PEND 
// 041   ----------------------------------------
 BYTE   PATT
  POIN2 Label_13_0166C4C0
// 042   ----------------------------------------
 BYTE   PATT
  POIN2 Label_13_0166C50F
// 043   ----------------------------------------
 BYTE   PATT
  POIN2 Label_13_0166C561
// 044   ----------------------------------------
 BYTE   PATT
  POIN2 Label_13_0166C5B0
// 045   ----------------------------------------
 BYTE   N06  Dn0  v056
 BYTE   N06  Dn1
 BYTE   W06
 BYTE   Dn0  v032
 BYTE   N06  Dn1
 BYTE   W06
 BYTE   Dn0  v036
 BYTE   N06  Dn1
 BYTE   W06
 BYTE   Dn0
 BYTE   N06  Dn1
 BYTE   W06
 BYTE   Dn0  v052
 BYTE   N06  Dn1
 BYTE   W06
 BYTE   Dn0  v032
 BYTE   N06  Dn1
 BYTE   W06
 BYTE   Dn0  v040
 BYTE   N06  Dn1
 BYTE   W06
 BYTE   Dn0  v048
 BYTE   N06  Dn1
 BYTE   W06
 BYTE   Dn0
 BYTE   N06  Dn1
 BYTE   W06
 BYTE   Dn0  v032
 BYTE   N06  Dn1
 BYTE   W06
 BYTE   Dn0  v040
 BYTE   N06  Dn1
 BYTE   W06
 BYTE   Dn0  v036
 BYTE   N06  Dn1
 BYTE   W06
 BYTE   Dn1  v056
 BYTE   N06  Dn2
 BYTE   W06
 BYTE   Dn0  v032
 BYTE   N06  Dn1
 BYTE   W06
 BYTE   Dn1  v036
 BYTE   N06  Dn2
 BYTE   W06
 BYTE   Dn0
 BYTE   N06  Dn1
 BYTE   W06
// 046   ----------------------------------------
 BYTE   En0  v056
 BYTE   N06  En1
 BYTE   W06
 BYTE   En0  v032
 BYTE   N06  En1
 BYTE   W06
 BYTE   En0  v040
 BYTE   N06  En1
 BYTE   W06
 BYTE   En0  v032
 BYTE   N06  En1
 BYTE   W06
 BYTE   En0  v052
 BYTE   N06  En1
 BYTE   W06
 BYTE   En0  v032
 BYTE   N06  En1
 BYTE   W06
 BYTE   En0  v036
 BYTE   N06  En1
 BYTE   W06
 BYTE   En0  v048
 BYTE   N06  En1
 BYTE   W06
 BYTE   En0  v052
 BYTE   N06  En1
 BYTE   W06
 BYTE   En0  v032
 BYTE   N06  En1
 BYTE   W06
 BYTE   En0  v036
 BYTE   N06  En1
 BYTE   W06
 BYTE   En0  v040
 BYTE   N06  En1
 BYTE   W06
 BYTE   En1  v048
 BYTE   N06  En2
 BYTE   W06
 BYTE   En0  v032
 BYTE   N06  En1
 BYTE   W06
 BYTE   En1  v036
 BYTE   N06  En2
 BYTE   W06
 BYTE   En0  v040
 BYTE   N06  En1
 BYTE   W06
// 047   ----------------------------------------
 BYTE   PATT
  POIN2 Label_13_0166C4C0
// 048   ----------------------------------------
 BYTE   N06  Gn0  v056
 BYTE   N06  Gn1
 BYTE   W06
 BYTE   Gn0  v032
 BYTE   N06  Gn1
 BYTE   W06
 BYTE   Gn0  v040
 BYTE   N06  Gn1
 BYTE   W06
 BYTE   Gn0  v032
 BYTE   N06  Gn1
 BYTE   W06
 BYTE   Gn0  v052
 BYTE   N06  Gn1
 BYTE   W06
 BYTE   Gn0  v032
 BYTE   N06  Gn1
 BYTE   W06
 BYTE   Gn0  v036
 BYTE   N06  Gn1
 BYTE   W06
 BYTE   Gn0  v048
 BYTE   N06  Gn1
 BYTE   W06
 BYTE   Gn0  v052
 BYTE   N06  Gn1
 BYTE   W06
 BYTE   Gn0  v032
 BYTE   N06  Gn1
 BYTE   W06
 BYTE   Gn0  v036
 BYTE   N06  Gn1
 BYTE   W06
 BYTE   Gn0  v040
 BYTE   N06  Gn1
 BYTE   W06
 BYTE   Gn1  v048
 BYTE   N06  Gn2
 BYTE   W06
 BYTE   Gn0  v032
 BYTE   N06  Gn1
 BYTE   W06
 BYTE   Gn1  v036
 BYTE   N06  Gn2
 BYTE   W06
 BYTE   Gn0  v040
 BYTE   N06  Gn1
 BYTE   W06
// 049   ----------------------------------------
 BYTE   N96  Dn0  v056
 BYTE   N96  Dn1
 BYTE   W96
// 050   ----------------------------------------
 BYTE   En0
 BYTE   N96  En1
 BYTE   W96
// 051   ----------------------------------------
 BYTE   Fn0
 BYTE   N96  Fn1
 BYTE   W96
// 052   ----------------------------------------
 BYTE   N48  Gn0
 BYTE   N48  Gn1
 BYTE   W48
 BYTE   Gn0  v052
 BYTE   N48  Gn1
 BYTE   W48
// 053   ----------------------------------------
 BYTE   W96
// 054   ----------------------------------------
 BYTE   GoTo
  POIN2 Label_13_0166C0C1
 BYTE   FINE

//**************** Track 15 (Midi-Chn.14) ****************//

DKC2StickerbrushSymphonyRetina_015:
// 000   ----------------------------------------
 BYTE   KEYSH   DKC2StickerbrushSymphonyRetina_key+0
 BYTE   VOICE   99
 BYTE   MODT 0
 BYTE   CnM2  v000
 BYTE   LFOS 0
 BYTE   CnM2  v044
 BYTE   VOL   28*DKC2StickerbrushSymphonyRetina_mvl/mxv
 BYTE   PAN   c_v+0
 BYTE   W96
// 001   ----------------------------------------
 BYTE   W96
// 002   ----------------------------------------
 BYTE   W96
// 003   ----------------------------------------
 BYTE   W96
// 004   ----------------------------------------
 BYTE   W96
// 005   ----------------------------------------
Label_14_0161B72D:
 BYTE   VOL   32*DKC2StickerbrushSymphonyRetina_mvl/mxv
 BYTE   PAN   c_v-63
 BYTE   W01
 BYTE   PAN   c_v-62
 BYTE   W02
 BYTE   PAN   c_v-61
 BYTE   W01
 BYTE   PAN   c_v-60
 BYTE   W02
 BYTE   PAN   c_v-59
 BYTE   N06  Cn4  v048
 BYTE   N06  En4
 BYTE   W01
 BYTE   PAN   c_v-58
 BYTE   W02
 BYTE   PAN   c_v-57
 BYTE   VOL   33*DKC2StickerbrushSymphonyRetina_mvl/mxv
 BYTE   W01
 BYTE   PAN   c_v-56
 BYTE   W02
 BYTE   PAN   c_v-55
 BYTE   N06  Cn4
 BYTE   N06  En4
 BYTE   W02
 BYTE   PAN   c_v-54
 BYTE   W01
 BYTE   PAN   c_v-53
 BYTE   W02
 BYTE   PAN   c_v-52
 BYTE   W01
 BYTE   PAN   c_v-51
 BYTE   W01
 BYTE   VOL   33*DKC2StickerbrushSymphonyRetina_mvl/mxv
 BYTE   W01
 BYTE   PAN   c_v-50
 BYTE   W01
 BYTE   PAN   c_v-49
 BYTE   W02
 BYTE   PAN   c_v-48
 BYTE   W01
 BYTE   N06  Cn4
 BYTE   N06  En4
 BYTE   W01
 BYTE   PAN   c_v-47
 BYTE   W01
 BYTE   PAN   c_v-46
 BYTE   W01
 BYTE   PAN   c_v-45
 BYTE   W02
 BYTE   VOL   34*DKC2StickerbrushSymphonyRetina_mvl/mxv
 BYTE   PAN   c_v-44
 BYTE   W01
 BYTE   PAN   c_v-43
 BYTE   W02
 BYTE   PAN   c_v-42
 BYTE   W01
 BYTE   PAN   c_v-41
 BYTE   W02
 BYTE   PAN   c_v-40
 BYTE   W01
 BYTE   N06  Cn4
 BYTE   N06  En4
 BYTE   W01
 BYTE   PAN   c_v-39
 BYTE   W01
 BYTE   VOL   34*DKC2StickerbrushSymphonyRetina_mvl/mxv
 BYTE   PAN   c_v-38
 BYTE   W02
 BYTE   PAN   c_v-37
 BYTE   W01
 BYTE   PAN   c_v-36
 BYTE   W01
 BYTE   N06  Cn4
 BYTE   N06  En4
 BYTE   W01
 BYTE   PAN   c_v-35
 BYTE   W01
 BYTE   PAN   c_v-34
 BYTE   W02
 BYTE   PAN   c_v-33
 BYTE   W02
 BYTE   VOL   35*DKC2StickerbrushSymphonyRetina_mvl/mxv
 BYTE   PAN   c_v-32
 BYTE   W01
 BYTE   PAN   c_v-31
 BYTE   W02
 BYTE   PAN   c_v-30
 BYTE   W01
 BYTE   PAN   c_v-29
 BYTE   W02
 BYTE   PAN   c_v-28
 BYTE   N06  Cn4
 BYTE   N06  En4
 BYTE   W01
 BYTE   PAN   c_v-27
 BYTE   W01
 BYTE   PAN   c_v-26
 BYTE   W01
 BYTE   VOL   35*DKC2StickerbrushSymphonyRetina_mvl/mxv
 BYTE   W01
 BYTE   PAN   c_v-25
 BYTE   W02
 BYTE   PAN   c_v-24
 BYTE   N06  Cn4
 BYTE   N06  En4
 BYTE   W01
 BYTE   PAN   c_v-23
 BYTE   W02
 BYTE   PAN   c_v-22
 BYTE   W01
 BYTE   PAN   c_v-21
 BYTE   W02
 BYTE   PAN   c_v-20
 BYTE   W01
 BYTE   VOL   36*DKC2StickerbrushSymphonyRetina_mvl/mxv
 BYTE   PAN   c_v-19
 BYTE   W02
 BYTE   PAN   c_v-18
 BYTE   W01
 BYTE   PAN   c_v-17
 BYTE   W02
 BYTE   PAN   c_v-16
 BYTE   N06  Cn4
 BYTE   N06  En4
 BYTE   W02
 BYTE   PAN   c_v-15
 BYTE   W01
 BYTE   PAN   c_v-14
 BYTE   W02
 BYTE   VOL   37*DKC2StickerbrushSymphonyRetina_mvl/mxv
 BYTE   PAN   c_v-13
 BYTE   W01
 BYTE   PAN   c_v-12
 BYTE   W02
 BYTE   PAN   c_v-11
 BYTE   W01
 BYTE   PAN   c_v-10
 BYTE   W01
 BYTE   PAN   c_v-9
 BYTE   W02
 BYTE   PAN   c_v-8
 BYTE   N06  Cn4
 BYTE   N06  En4
 BYTE   W02
 BYTE   PAN   c_v-7
 BYTE   VOL   37*DKC2StickerbrushSymphonyRetina_mvl/mxv
 BYTE   W01
 BYTE   PAN   c_v-6
 BYTE   W02
 BYTE   PAN   c_v-5
 BYTE   W01
 BYTE   PAN   c_v-4
 BYTE   N06  Cn4
 BYTE   N06  En4
 BYTE   W02
 BYTE   PAN   c_v-3
 BYTE   W01
 BYTE   PAN   c_v-2
 BYTE   W02
 BYTE   PAN   c_v-1
 BYTE   W01
 BYTE   PEND 
// 006   ----------------------------------------
Label_14_0161B802:
 BYTE   VOL   38*DKC2StickerbrushSymphonyRetina_mvl/mxv
 BYTE   W01
 BYTE   PAN   c_v+0
 BYTE   W01
 BYTE   PAN   c_v+1
 BYTE   W02
 BYTE   PAN   c_v+2
 BYTE   W01
 BYTE   PAN   c_v+3
 BYTE   W01
 BYTE   N06  Cn4  v048
 BYTE   N06  En4
 BYTE   W01
 BYTE   PAN   c_v+4
 BYTE   W01
 BYTE   PAN   c_v+5
 BYTE   W01
 BYTE   VOL   38*DKC2StickerbrushSymphonyRetina_mvl/mxv
 BYTE   W01
 BYTE   PAN   c_v+6
 BYTE   W02
 BYTE   PAN   c_v+7
 BYTE   N06  Cn4
 BYTE   N06  En4
 BYTE   W01
 BYTE   PAN   c_v+8
 BYTE   W01
 BYTE   PAN   c_v+9
 BYTE   W02
 BYTE   PAN   c_v+10
 BYTE   W01
 BYTE   PAN   c_v+11
 BYTE   W02
 BYTE   VOL   39*DKC2StickerbrushSymphonyRetina_mvl/mxv
 BYTE   PAN   c_v+12
 BYTE   W01
 BYTE   PAN   c_v+13
 BYTE   W02
 BYTE   PAN   c_v+14
 BYTE   W02
 BYTE   PAN   c_v+15
 BYTE   N06  Cn4
 BYTE   N06  En4
 BYTE   W01
 BYTE   PAN   c_v+16
 BYTE   W02
 BYTE   PAN   c_v+17
 BYTE   W01
 BYTE   PAN   c_v+18
 BYTE   W01
 BYTE   VOL   39*DKC2StickerbrushSymphonyRetina_mvl/mxv
 BYTE   W01
 BYTE   PAN   c_v+19
 BYTE   W01
 BYTE   PAN   c_v+20
 BYTE   W02
 BYTE   PAN   c_v+21
 BYTE   W01
 BYTE   PAN   c_v+22
 BYTE   W02
 BYTE   PAN   c_v+23
 BYTE   N06  Cn4
 BYTE   N06  En4
 BYTE   W02
 BYTE   PAN   c_v+24
 BYTE   VOL   40*DKC2StickerbrushSymphonyRetina_mvl/mxv
 BYTE   W01
 BYTE   PAN   c_v+25
 BYTE   W02
 BYTE   PAN   c_v+26
 BYTE   W01
 BYTE   PAN   c_v+27
 BYTE   N06  Cn4
 BYTE   N06  En4
 BYTE   W01
 BYTE   PAN   c_v+28
 BYTE   W02
 BYTE   PAN   c_v+29
 BYTE   W01
 BYTE   PAN   c_v+30
 BYTE   W02
 BYTE   VOL   41*DKC2StickerbrushSymphonyRetina_mvl/mxv
 BYTE   PAN   c_v+31
 BYTE   W02
 BYTE   PAN   c_v+32
 BYTE   W01
 BYTE   PAN   c_v+33
 BYTE   W02
 BYTE   PAN   c_v+34
 BYTE   W01
 BYTE   PAN   c_v+35
 BYTE   N06  Cn4
 BYTE   N06  En4
 BYTE   W02
 BYTE   PAN   c_v+36
 BYTE   W01
 BYTE   VOL   41*DKC2StickerbrushSymphonyRetina_mvl/mxv
 BYTE   PAN   c_v+37
 BYTE   W02
 BYTE   PAN   c_v+38
 BYTE   W01
 BYTE   N06  Cn4
 BYTE   N06  En4
 BYTE   W01
 BYTE   PAN   c_v+39
 BYTE   W01
 BYTE   PAN   c_v+40
 BYTE   W02
 BYTE   PAN   c_v+41
 BYTE   W01
 BYTE   PAN   c_v+42
 BYTE   W02
 BYTE   VOL   42*DKC2StickerbrushSymphonyRetina_mvl/mxv
 BYTE   PAN   c_v+43
 BYTE   W01
 BYTE   PAN   c_v+44
 BYTE   W01
 BYTE   PAN   c_v+45
 BYTE   W02
 BYTE   PAN   c_v+46
 BYTE   W01
 BYTE   N06  Cn4
 BYTE   N06  En4
 BYTE   W01
 BYTE   PAN   c_v+47
 BYTE   W01
 BYTE   PAN   c_v+48
 BYTE   W02
 BYTE   PAN   c_v+49
 BYTE   W01
 BYTE   VOL   42*DKC2StickerbrushSymphonyRetina_mvl/mxv
 BYTE   PAN   c_v+50
 BYTE   W02
 BYTE   PAN   c_v+51
 BYTE   W01
 BYTE   PAN   c_v+52
 BYTE   W02
 BYTE   PAN   c_v+53
 BYTE   W02
 BYTE   PAN   c_v+54
 BYTE   N06  Cn4
 BYTE   N06  En4
 BYTE   W01
 BYTE   PAN   c_v+55
 BYTE   W01
 BYTE   VOL   43*DKC2StickerbrushSymphonyRetina_mvl/mxv
 BYTE   W01
 BYTE   PAN   c_v+56
 BYTE   W01
 BYTE   PAN   c_v+57
 BYTE   W02
 BYTE   PAN   c_v+58
 BYTE   N06  Cn4
 BYTE   N06  En4
 BYTE   W01
 BYTE   PAN   c_v+59
 BYTE   W02
 BYTE   PAN   c_v+60
 BYTE   W01
 BYTE   PAN   c_v+61
 BYTE   W02
 BYTE   PEND 
// 007   ----------------------------------------
Label_14_0161B8D7:
 BYTE   VOL   44*DKC2StickerbrushSymphonyRetina_mvl/mxv
 BYTE   PAN   c_v+60
 BYTE   W03
 BYTE   PAN   c_v+59
 BYTE   W03
 BYTE   PAN   c_v+58
 BYTE   N06  Cn4  v048
 BYTE   N06  En4
 BYTE   W01
 BYTE   VOL   43*DKC2StickerbrushSymphonyRetina_mvl/mxv
 BYTE   W02
 BYTE   PAN   c_v+57
 BYTE   W03
 BYTE   N06  Cn4
 BYTE   N06  En4
 BYTE   W01
 BYTE   PAN   c_v+56
 BYTE   W01
 BYTE   VOL   42*DKC2StickerbrushSymphonyRetina_mvl/mxv
 BYTE   W02
 BYTE   PAN   c_v+55
 BYTE   W03
 BYTE   PAN   c_v+54
 BYTE   W02
 BYTE   VOL   42*DKC2StickerbrushSymphonyRetina_mvl/mxv
 BYTE   W01
 BYTE   PAN   c_v+53
 BYTE   W01
 BYTE   N06  Cn3
 BYTE   W01
 BYTE   Cn4
 BYTE   N06  En4
 BYTE   W02
 BYTE   PAN   c_v+52
 BYTE   W02
 BYTE   VOL   41*DKC2StickerbrushSymphonyRetina_mvl/mxv
 BYTE   W01
 BYTE   PAN   c_v+51
 BYTE   W03
 BYTE   PAN   c_v+50
 BYTE   W02
 BYTE   VOL   41*DKC2StickerbrushSymphonyRetina_mvl/mxv
 BYTE   W01
 BYTE   PAN   c_v+49
 BYTE   W01
 BYTE   N06  Cn4
 BYTE   N06  En4
 BYTE   W02
 BYTE   PAN   c_v+48
 BYTE   W03
 BYTE   PAN   c_v+47
 BYTE   W01
 BYTE   VOL   40*DKC2StickerbrushSymphonyRetina_mvl/mxv
 BYTE   N06  Cn4
 BYTE   N06  En4
 BYTE   W02
 BYTE   PAN   c_v+46
 BYTE   W04
 BYTE   PAN   c_v+45
 BYTE   W01
 BYTE   VOL   39*DKC2StickerbrushSymphonyRetina_mvl/mxv
 BYTE   W02
 BYTE   PAN   c_v+44
 BYTE   W02
 BYTE   N06  Cn3
 BYTE   W01
 BYTE   PAN   c_v+43
 BYTE   N06  Cn4
 BYTE   N06  En4
 BYTE   W02
 BYTE   VOL   39*DKC2StickerbrushSymphonyRetina_mvl/mxv
 BYTE   W01
 BYTE   PAN   c_v+42
 BYTE   W03
 BYTE   N06  Cn4
 BYTE   N06  En4
 BYTE   W01
 BYTE   PAN   c_v+41
 BYTE   W02
 BYTE   VOL   38*DKC2StickerbrushSymphonyRetina_mvl/mxv
 BYTE   W01
 BYTE   PAN   c_v+40
 BYTE   W03
 BYTE   PAN   c_v+39
 BYTE   W02
 BYTE   VOL   38*DKC2StickerbrushSymphonyRetina_mvl/mxv
 BYTE   W01
 BYTE   PAN   c_v+38
 BYTE   W01
 BYTE   N06  Cn3
 BYTE   W01
 BYTE   Cn4
 BYTE   N06  En4
 BYTE   W02
 BYTE   PAN   c_v+37
 BYTE   W03
 BYTE   VOL   37*DKC2StickerbrushSymphonyRetina_mvl/mxv
 BYTE   PAN   c_v+36
 BYTE   W03
 BYTE   PAN   c_v+35
 BYTE   W03
 BYTE   PAN   c_v+34
 BYTE   W01
 BYTE   VOL   37*DKC2StickerbrushSymphonyRetina_mvl/mxv
 BYTE   N06  Cn4
 BYTE   N06  En4
 BYTE   W02
 BYTE   PAN   c_v+33
 BYTE   W03
 BYTE   PAN   c_v+32
 BYTE   W01
 BYTE   N06  Cn4
 BYTE   N06  En4
 BYTE   W01
 BYTE   VOL   36*DKC2StickerbrushSymphonyRetina_mvl/mxv
 BYTE   W01
 BYTE   PAN   c_v+31
 BYTE   W04
 BYTE   PEND 
// 008   ----------------------------------------
Label_14_0161B986:
 BYTE   PAN   c_v+30
 BYTE   W02
 BYTE   VOL   35*DKC2StickerbrushSymphonyRetina_mvl/mxv
 BYTE   W01
 BYTE   PAN   c_v+29
 BYTE   W02
 BYTE   N06  Cn3  v048
 BYTE   W01
 BYTE   PAN   c_v+28
 BYTE   N06  Cn4
 BYTE   N06  En4
 BYTE   W02
 BYTE   VOL   35*DKC2StickerbrushSymphonyRetina_mvl/mxv
 BYTE   W01
 BYTE   PAN   c_v+27
 BYTE   W03
 BYTE   N06  Cn4
 BYTE   N06  En4
 BYTE   W01
 BYTE   PAN   c_v+26
 BYTE   W03
 BYTE   VOL   34*DKC2StickerbrushSymphonyRetina_mvl/mxv
 BYTE   PAN   c_v+25
 BYTE   W03
 BYTE   PAN   c_v+24
 BYTE   W03
 BYTE   PAN   c_v+23
 BYTE   VOL   34*DKC2StickerbrushSymphonyRetina_mvl/mxv
 BYTE   W01
 BYTE   N06  Cn3
 BYTE   W01
 BYTE   Cn4
 BYTE   N06  En4
 BYTE   W02
 BYTE   PAN   c_v+22
 BYTE   W03
 BYTE   PAN   c_v+21
 BYTE   W01
 BYTE   VOL   33*DKC2StickerbrushSymphonyRetina_mvl/mxv
 BYTE   W02
 BYTE   PAN   c_v+20
 BYTE   W03
 BYTE   PAN   c_v+19
 BYTE   W01
 BYTE   N06  Cn4
 BYTE   N06  En4
 BYTE   W01
 BYTE   VOL   33*DKC2StickerbrushSymphonyRetina_mvl/mxv
 BYTE   W01
 BYTE   PAN   c_v+18
 BYTE   W03
 BYTE   PAN   c_v+17
 BYTE   W01
 BYTE   N06  Cn4
 BYTE   N06  En4
 BYTE   W01
 BYTE   VOL   32*DKC2StickerbrushSymphonyRetina_mvl/mxv
 BYTE   W01
 BYTE   PAN   c_v+16
 BYTE   W04
 BYTE   PAN   c_v+15
 BYTE   W03
 BYTE   VOL   31*DKC2StickerbrushSymphonyRetina_mvl/mxv
 BYTE   PAN   c_v+14
 BYTE   W02
 BYTE   N06  Cn3
 BYTE   W01
 BYTE   PAN   c_v+13
 BYTE   N06  Cn4
 BYTE   N06  En4
 BYTE   W03
 BYTE   VOL   31*DKC2StickerbrushSymphonyRetina_mvl/mxv
 BYTE   PAN   c_v+12
 BYTE   W03
 BYTE   N06  Cn4
 BYTE   N06  En4
 BYTE   W01
 BYTE   PAN   c_v+11
 BYTE   W03
 BYTE   PAN   c_v+10
 BYTE   VOL   30*DKC2StickerbrushSymphonyRetina_mvl/mxv
 BYTE   W01
 BYTE   VOL   30*DKC2StickerbrushSymphonyRetina_mvl/mxv
 BYTE   W01
 BYTE   VOL   29*DKC2StickerbrushSymphonyRetina_mvl/mxv
 BYTE   W01
 BYTE   PAN   c_v+9
 BYTE   VOL   29*DKC2StickerbrushSymphonyRetina_mvl/mxv
 BYTE   W01
 BYTE   VOL   28*DKC2StickerbrushSymphonyRetina_mvl/mxv
 BYTE   W01
 BYTE   VOL   28*DKC2StickerbrushSymphonyRetina_mvl/mxv
 BYTE   W01
 BYTE   VOL   27*DKC2StickerbrushSymphonyRetina_mvl/mxv
 BYTE   PAN   c_v+8
 BYTE   W01
 BYTE   VOL   27*DKC2StickerbrushSymphonyRetina_mvl/mxv
 BYTE   N06  Cn3
 BYTE   W01
 BYTE   VOL   26*DKC2StickerbrushSymphonyRetina_mvl/mxv
 BYTE   N06  Cn4
 BYTE   N06  En4
 BYTE   W01
 BYTE   VOL   25*DKC2StickerbrushSymphonyRetina_mvl/mxv
 BYTE   W01
 BYTE   PAN   c_v+7
 BYTE   VOL   25*DKC2StickerbrushSymphonyRetina_mvl/mxv
 BYTE   W01
 BYTE   VOL   25*DKC2StickerbrushSymphonyRetina_mvl/mxv
 BYTE   W01
 BYTE   VOL   24*DKC2StickerbrushSymphonyRetina_mvl/mxv
 BYTE   W01
 BYTE   VOL   24*DKC2StickerbrushSymphonyRetina_mvl/mxv
 BYTE   PAN   c_v+6
 BYTE   W01
 BYTE   VOL   23*DKC2StickerbrushSymphonyRetina_mvl/mxv
 BYTE   W01
 BYTE   VOL   23*DKC2StickerbrushSymphonyRetina_mvl/mxv
 BYTE   W01
 BYTE   VOL   22*DKC2StickerbrushSymphonyRetina_mvl/mxv
 BYTE   PAN   c_v+5
 BYTE   VOL   22*DKC2StickerbrushSymphonyRetina_mvl/mxv
 BYTE   W01
 BYTE   VOL   21*DKC2StickerbrushSymphonyRetina_mvl/mxv
 BYTE   W01
 BYTE   VOL   21*DKC2StickerbrushSymphonyRetina_mvl/mxv
 BYTE   W01
 BYTE   PAN   c_v+4
 BYTE   W01
 BYTE   VOL   20*DKC2StickerbrushSymphonyRetina_mvl/mxv
 BYTE   N06  Cn4
 BYTE   N06  En4
 BYTE   W01
 BYTE   VOL   19*DKC2StickerbrushSymphonyRetina_mvl/mxv
 BYTE   W01
 BYTE   VOL   19*DKC2StickerbrushSymphonyRetina_mvl/mxv
 BYTE   PAN   c_v+3
 BYTE   W01
 BYTE   VOL   18*DKC2StickerbrushSymphonyRetina_mvl/mxv
 BYTE   W01
 BYTE   VOL   18*DKC2StickerbrushSymphonyRetina_mvl/mxv
 BYTE   W01
 BYTE   VOL   18*DKC2StickerbrushSymphonyRetina_mvl/mxv
 BYTE   PAN   c_v+2
 BYTE   W01
 BYTE   VOL   17*DKC2StickerbrushSymphonyRetina_mvl/mxv
 BYTE   N06  Cn4
 BYTE   N06  En4
 BYTE   W01
 BYTE   VOL   17*DKC2StickerbrushSymphonyRetina_mvl/mxv
 BYTE   W01
 BYTE   VOL   16*DKC2StickerbrushSymphonyRetina_mvl/mxv
 BYTE   PAN   c_v+1
 BYTE   W01
 BYTE   VOL   16*DKC2StickerbrushSymphonyRetina_mvl/mxv
 BYTE   W01
 BYTE   VOL   16*DKC2StickerbrushSymphonyRetina_mvl/mxv
 BYTE   W01
 BYTE   VOL   15*DKC2StickerbrushSymphonyRetina_mvl/mxv
 BYTE   W01
 BYTE   PEND 
// 009   ----------------------------------------
Label_14_0161BA6D:
 BYTE   VOL   14*DKC2StickerbrushSymphonyRetina_mvl/mxv
 BYTE   PAN   c_v+0
 BYTE   W96
// 010   ----------------------------------------
 BYTE   W96
// 011   ----------------------------------------
 BYTE   W96
// 012   ----------------------------------------
 BYTE   W96
// 013   ----------------------------------------
 BYTE   W96
// 014   ----------------------------------------
 BYTE   W96
// 015   ----------------------------------------
 BYTE   W96
// 016   ----------------------------------------
 BYTE   W96
// 017   ----------------------------------------
 BYTE   W96
// 018   ----------------------------------------
 BYTE   W96
// 019   ----------------------------------------
 BYTE   W96
// 020   ----------------------------------------
 BYTE   W96
// 021   ----------------------------------------
 BYTE   W96
// 022   ----------------------------------------
 BYTE   W96
// 023   ----------------------------------------
 BYTE   W96
// 024   ----------------------------------------
 BYTE   W96
// 025   ----------------------------------------
 BYTE   W96
// 026   ----------------------------------------
 BYTE   W96
// 027   ----------------------------------------
 BYTE   W96
// 028   ----------------------------------------
 BYTE   W96
// 029   ----------------------------------------
 BYTE   W96
// 030   ----------------------------------------
 BYTE   W96
// 031   ----------------------------------------
 BYTE   W96
// 032   ----------------------------------------
 BYTE   W96
// 033   ----------------------------------------
 BYTE   PATT
  POIN2 Label_14_0161B72D
// 034   ----------------------------------------
 BYTE   PATT
  POIN2 Label_14_0161B802
// 035   ----------------------------------------
 BYTE   PATT
  POIN2 Label_14_0161B8D7
// 036   ----------------------------------------
 BYTE   PATT
  POIN2 Label_14_0161B986
// 037   ----------------------------------------
 BYTE   VOL   14*DKC2StickerbrushSymphonyRetina_mvl/mxv
 BYTE   PAN   c_v+0
 BYTE   W96
// 038   ----------------------------------------
 BYTE   W96
// 039   ----------------------------------------
 BYTE   W96
// 040   ----------------------------------------
 BYTE   W96
// 041   ----------------------------------------
 BYTE   W96
// 042   ----------------------------------------
 BYTE   W96
// 043   ----------------------------------------
 BYTE   W96
// 044   ----------------------------------------
 BYTE   W96
// 045   ----------------------------------------
 BYTE   W96
// 046   ----------------------------------------
 BYTE   W96
// 047   ----------------------------------------
 BYTE   W96
// 048   ----------------------------------------
 BYTE   W96
// 049   ----------------------------------------
 BYTE   W96
// 050   ----------------------------------------
 BYTE   W96
// 051   ----------------------------------------
 BYTE   W96
// 052   ----------------------------------------
 BYTE   W96
// 053   ----------------------------------------
 BYTE   W96
// 054   ----------------------------------------
 BYTE   GoTo
  POIN2 Label_14_0161BA6D
 BYTE   FINE

//**************** Track 16 (Midi-Chn.15) ****************//

DKC2StickerbrushSymphonyRetina_016:
// 000   ----------------------------------------
 BYTE   KEYSH   DKC2StickerbrushSymphonyRetina_key+0
 BYTE   VOICE   76
 BYTE   MODT 0
 BYTE   CnM2  v000
 BYTE   LFOS 0
 BYTE   CnM2  v044
 BYTE   VOL   18*DKC2StickerbrushSymphonyRetina_mvl/mxv
 BYTE   PAN   c_v+0
 BYTE   W96
// 001   ----------------------------------------
 BYTE   W96
// 002   ----------------------------------------
 BYTE   W96
// 003   ----------------------------------------
 BYTE   W96
// 004   ----------------------------------------
 BYTE   W96
// 005   ----------------------------------------
 BYTE   W96
// 006   ----------------------------------------
 BYTE   W96
// 007   ----------------------------------------
 BYTE   W96
// 008   ----------------------------------------
 BYTE   W96
// 009   ----------------------------------------
Label_15_0161024D:
 BYTE   W96
// 010   ----------------------------------------
 BYTE   W96
// 011   ----------------------------------------
 BYTE   W96
// 012   ----------------------------------------
Label_15_01610250:
 BYTE   N03  Cs6  v084
 BYTE   W03
 BYTE   Cn6
 BYTE   W03
 BYTE   Bn5  v080
 BYTE   W03
 BYTE   As5
 BYTE   W03
 BYTE   An5  v076
 BYTE   W03
 BYTE   As5
 BYTE   W03
 BYTE   An5  v072
 BYTE   W03
 BYTE   Gs5
 BYTE   W03
 BYTE   Gn5  v068
 BYTE   W03
 BYTE   Fs5
 BYTE   W03
 BYTE   Gn5  v064
 BYTE   W03
 BYTE   Fs5
 BYTE   W03
 BYTE   Fn5  v060
 BYTE   W03
 BYTE   En5
 BYTE   W03
 BYTE   Ds5  v056
 BYTE   W03
 BYTE   En5
 BYTE   W03
 BYTE   Ds5  v052
 BYTE   W03
 BYTE   Dn5
 BYTE   W03
 BYTE   Cs5
 BYTE   W03
 BYTE   Cn5  v048
 BYTE   W03
 BYTE   Cs5
 BYTE   W03
 BYTE   Cn5  v044
 BYTE   W03
 BYTE   Bn4
 BYTE   W03
 BYTE   As4
 BYTE   W03
 BYTE   An4  v040
 BYTE   W03
 BYTE   As4
 BYTE   W03
 BYTE   An4  v036
 BYTE   W03
 BYTE   Gs4
 BYTE   W03
 BYTE   Gn4
 BYTE   W03
 BYTE   Fs4  v032
 BYTE   W03
 BYTE   Gn4
 BYTE   W03
 BYTE   Fs4
 BYTE   W03
 BYTE   PEND 
// 013   ----------------------------------------
 BYTE   W96
// 014   ----------------------------------------
 BYTE   W96
// 015   ----------------------------------------
 BYTE   W96
// 016   ----------------------------------------
 BYTE   PATT
  POIN2 Label_15_01610250
// 017   ----------------------------------------
 BYTE   W96
// 018   ----------------------------------------
 BYTE   W96
// 019   ----------------------------------------
 BYTE   W96
// 020   ----------------------------------------
 BYTE   W96
// 021   ----------------------------------------
 BYTE   W96
// 022   ----------------------------------------
 BYTE   W96
// 023   ----------------------------------------
 BYTE   W96
// 024   ----------------------------------------
 BYTE   W96
// 025   ----------------------------------------
 BYTE   W96
// 026   ----------------------------------------
 BYTE   W96
// 027   ----------------------------------------
 BYTE   W96
// 028   ----------------------------------------
 BYTE   W96
// 029   ----------------------------------------
 BYTE   W96
// 030   ----------------------------------------
 BYTE   W96
// 031   ----------------------------------------
 BYTE   W96
// 032   ----------------------------------------
 BYTE   W96
// 033   ----------------------------------------
 BYTE   W96
// 034   ----------------------------------------
 BYTE   W96
// 035   ----------------------------------------
 BYTE   W96
// 036   ----------------------------------------
 BYTE   W96
// 037   ----------------------------------------
 BYTE   W96
// 038   ----------------------------------------
 BYTE   W96
// 039   ----------------------------------------
 BYTE   W96
// 040   ----------------------------------------
 BYTE   W96
// 041   ----------------------------------------
 BYTE   W96
// 042   ----------------------------------------
 BYTE   W96
// 043   ----------------------------------------
 BYTE   W96
// 044   ----------------------------------------
 BYTE   W96
// 045   ----------------------------------------
 BYTE   W96
// 046   ----------------------------------------
 BYTE   W96
// 047   ----------------------------------------
 BYTE   W96
// 048   ----------------------------------------
 BYTE   W96
// 049   ----------------------------------------
 BYTE   W96
// 050   ----------------------------------------
 BYTE   W96
// 051   ----------------------------------------
 BYTE   W96
// 052   ----------------------------------------
 BYTE   W96
// 053   ----------------------------------------
 BYTE   W96
// 054   ----------------------------------------
 BYTE   GoTo
  POIN2 Label_15_0161024D
 BYTE   FINE

//******************************************************//
	ALIGN 4

DKC2StickerbrushSymphonyRetina:
	BYTE	16	// NumTrks
	BYTE	0	// NumBlks
	BYTE	DKC2StickerbrushSymphonyRetina_pri	// Priority
	BYTE	DKC2StickerbrushSymphonyRetina_rev	// Reverb.
    
	POIN2	DKC2StickerbrushSymphonyRetina_grp
    
	POIN2	DKC2StickerbrushSymphonyRetina_001
	POIN2	DKC2StickerbrushSymphonyRetina_002
	POIN2	DKC2StickerbrushSymphonyRetina_003
	POIN2	DKC2StickerbrushSymphonyRetina_004
	POIN2	DKC2StickerbrushSymphonyRetina_005
	POIN2	DKC2StickerbrushSymphonyRetina_006
	POIN2	DKC2StickerbrushSymphonyRetina_007
	POIN2	DKC2StickerbrushSymphonyRetina_008
	POIN2	DKC2StickerbrushSymphonyRetina_009
	POIN2	DKC2StickerbrushSymphonyRetina_010
	POIN2	DKC2StickerbrushSymphonyRetina_011
	POIN2	DKC2StickerbrushSymphonyRetina_012
	POIN2	DKC2StickerbrushSymphonyRetina_013
	POIN2	DKC2StickerbrushSymphonyRetina_014
	POIN2	DKC2StickerbrushSymphonyRetina_015
	POIN2	DKC2StickerbrushSymphonyRetina_016

	
