//Event file generated from Sappy .s format.
	#include "MPlayDef.event"

	#define	DKC2CrocodileCacophonyMeatOfJustice_grp  voicegroup000
	#define	DKC2CrocodileCacophonyMeatOfJustice_pri  0
	#define	DKC2CrocodileCacophonyMeatOfJustice_rev  0
	#define	DKC2CrocodileCacophonyMeatOfJustice_mvl  127
	#define	DKC2CrocodileCacophonyMeatOfJustice_key  0
	#define	DKC2CrocodileCacophonyMeatOfJustice_tbs  1
	#define	DKC2CrocodileCacophonyMeatOfJustice_exg  0
	#define	DKC2CrocodileCacophonyMeatOfJustice_cmp  1

	// .rodata
	//	DKC2CrocodileCacophonyMeatOfJustice
	ALIGN 4


//**************** Track 1 (Midi-Chn.0) ****************//

DKC2CrocodileCacophonyMeatOfJustice_001:
// 000   ----------------------------------------
 BYTE   KEYSH   DKC2CrocodileCacophonyMeatOfJustice_key+0
 BYTE   TEMPO   234*DKC2CrocodileCacophonyMeatOfJustice_tbs/2
 BYTE   VOICE   48
 BYTE   VOL   56*DKC2CrocodileCacophonyMeatOfJustice_mvl/mxv
 BYTE   PAN   c_v+0
 BYTE   W96
// 001   ----------------------------------------
Label_0_014DC8B3:
 BYTE   N12  An2  v127
 BYTE   W36
 BYTE   As2
 BYTE   W36
 BYTE   Bn2
 BYTE   W24
 BYTE   PEND 
// 002   ----------------------------------------
 BYTE   W96
// 003   ----------------------------------------
Label_0_014DC8BD:
 BYTE   N12  Cn3  v127
 BYTE   W36
 BYTE   Cs3
 BYTE   W36
 BYTE   Dn3
 BYTE   W12
 BYTE   N12
 BYTE   W12
 BYTE   PEND 
// 004   ----------------------------------------
 BYTE   W96
// 005   ----------------------------------------
Label_0_014DC8C9:
 BYTE   N12  Bn2  v127
 BYTE   W36
 BYTE   Cn3
 BYTE   W36
 BYTE   Cs3
 BYTE   W24
 BYTE   PEND 
// 006   ----------------------------------------
 BYTE   W96
// 007   ----------------------------------------
Label_0_014DC8D3:
 BYTE   N12  Dn3  v127
 BYTE   W36
 BYTE   Ds3
 BYTE   W36
 BYTE   En3
 BYTE   W12
 BYTE   N12
 BYTE   W12
 BYTE   PEND 
// 008   ----------------------------------------
Label_0_014DC8DE:
 BYTE   N12  As3  v127
 BYTE   W12
 BYTE   N12
 BYTE   W12
 BYTE   N12
 BYTE   W24
 BYTE   N12
 BYTE   W24
 BYTE   N12
 BYTE   W12
 BYTE   N12
 BYTE   W12
 BYTE   PEND 
// 009   ----------------------------------------
Label_0_014DC8ED:
 BYTE   N12  As3  v127
 BYTE   W12
 BYTE   N12
 BYTE   W24
 BYTE   N12
 BYTE   W12
 BYTE   N12
 BYTE   W24
 BYTE   N12
 BYTE   W12
 BYTE   N12
 BYTE   W12
 BYTE   PEND 
// 010   ----------------------------------------
 BYTE   PATT
  POIN2 Label_0_014DC8DE
// 011   ----------------------------------------
 BYTE   PATT
  POIN2 Label_0_014DC8ED
// 012   ----------------------------------------
Label_0_014DC906:
 BYTE   N12  An3  v127
 BYTE   W12
 BYTE   N12
 BYTE   W12
 BYTE   N12
 BYTE   W24
 BYTE   N12
 BYTE   W24
 BYTE   N12
 BYTE   W12
 BYTE   N12
 BYTE   W12
 BYTE   PEND 
// 013   ----------------------------------------
Label_0_014DC915:
 BYTE   N12  An3  v127
 BYTE   W12
 BYTE   N12
 BYTE   W24
 BYTE   N12
 BYTE   W12
 BYTE   N12
 BYTE   W24
 BYTE   N12
 BYTE   W12
 BYTE   N12
 BYTE   W12
 BYTE   PEND 
// 014   ----------------------------------------
 BYTE   PATT
  POIN2 Label_0_014DC906
// 015   ----------------------------------------
 BYTE   PATT
  POIN2 Label_0_014DC915
// 016   ----------------------------------------
 BYTE   PATT
  POIN2 Label_0_014DC8DE
// 017   ----------------------------------------
 BYTE   PATT
  POIN2 Label_0_014DC8ED
// 018   ----------------------------------------
 BYTE   PATT
  POIN2 Label_0_014DC8DE
// 019   ----------------------------------------
 BYTE   PATT
  POIN2 Label_0_014DC8ED
// 020   ----------------------------------------
 BYTE   PATT
  POIN2 Label_0_014DC906
// 021   ----------------------------------------
 BYTE   PATT
  POIN2 Label_0_014DC915
// 022   ----------------------------------------
 BYTE   PATT
  POIN2 Label_0_014DC906
// 023   ----------------------------------------
 BYTE   PATT
  POIN2 Label_0_014DC915
// 024   ----------------------------------------
 BYTE   W96
// 025   ----------------------------------------
 BYTE   W96
// 026   ----------------------------------------
 BYTE   W96
// 027   ----------------------------------------
 BYTE   W96
// 028   ----------------------------------------
 BYTE   W96
// 029   ----------------------------------------
 BYTE   W96
// 030   ----------------------------------------
 BYTE   W96
// 031   ----------------------------------------
 BYTE   W96
// 032   ----------------------------------------
Label_0_014DC95E:
 BYTE   N12  An3  v080
 BYTE   W24
 BYTE   N12
 BYTE   W48
 BYTE   N12
 BYTE   W24
 BYTE   PEND 
// 033   ----------------------------------------
Label_0_014DC967:
 BYTE   N12  An3  v080
 BYTE   W12
 BYTE   N12
 BYTE   W12
 BYTE   N12
 BYTE   W48
 BYTE   N12
 BYTE   W24
 BYTE   PEND 
// 034   ----------------------------------------
Label_0_014DC972:
 BYTE   N12  Gn3  v080
 BYTE   W24
 BYTE   N12
 BYTE   W48
 BYTE   N12
 BYTE   W24
 BYTE   PEND 
// 035   ----------------------------------------
Label_0_014DC97B:
 BYTE   N12  An3  v080
 BYTE   W12
 BYTE   N12
 BYTE   W12
 BYTE   N12
 BYTE   W24
 BYTE   N12
 BYTE   W24
 BYTE   N12
 BYTE   W12
 BYTE   N12
 BYTE   W12
 BYTE   PEND 
// 036   ----------------------------------------
 BYTE   PATT
  POIN2 Label_0_014DC95E
// 037   ----------------------------------------
 BYTE   PATT
  POIN2 Label_0_014DC967
// 038   ----------------------------------------
 BYTE   PATT
  POIN2 Label_0_014DC972
// 039   ----------------------------------------
 BYTE   PATT
  POIN2 Label_0_014DC97B
// 040   ----------------------------------------
Label_0_014DC99E:
 BYTE   N12  Dn3  v080
 BYTE   W24
 BYTE   N12
 BYTE   W48
 BYTE   N12
 BYTE   W24
 BYTE   PEND 
// 041   ----------------------------------------
Label_0_014DC9A7:
 BYTE   N12  Dn3  v080
 BYTE   W12
 BYTE   N12
 BYTE   W12
 BYTE   N12
 BYTE   W48
 BYTE   N12
 BYTE   W24
 BYTE   PEND 
// 042   ----------------------------------------
Label_0_014DC9B2:
 BYTE   N12  Cn3  v080
 BYTE   W24
 BYTE   N12
 BYTE   W48
 BYTE   N12
 BYTE   W24
 BYTE   PEND 
// 043   ----------------------------------------
Label_0_014DC9BB:
 BYTE   N12  Dn3  v080
 BYTE   W12
 BYTE   N12
 BYTE   W12
 BYTE   N12
 BYTE   W24
 BYTE   N12
 BYTE   W24
 BYTE   N12
 BYTE   W12
 BYTE   N12
 BYTE   W12
 BYTE   PEND 
// 044   ----------------------------------------
 BYTE   PATT
  POIN2 Label_0_014DC99E
// 045   ----------------------------------------
 BYTE   PATT
  POIN2 Label_0_014DC9A7
// 046   ----------------------------------------
 BYTE   PATT
  POIN2 Label_0_014DC95E
// 047   ----------------------------------------
 BYTE   PATT
  POIN2 Label_0_014DC967
// 048   ----------------------------------------
 BYTE   PATT
  POIN2 Label_0_014DC95E
// 049   ----------------------------------------
 BYTE   PATT
  POIN2 Label_0_014DC97B
// 050   ----------------------------------------
 BYTE   W96
// 051   ----------------------------------------
 BYTE   W96
// 052   ----------------------------------------
 BYTE   W96
// 053   ----------------------------------------
 BYTE   W96
// 054   ----------------------------------------
 BYTE   W96
// 055   ----------------------------------------
 BYTE   PATT
  POIN2 Label_0_014DC8B3
// 056   ----------------------------------------
 BYTE   W96
// 057   ----------------------------------------
 BYTE   PATT
  POIN2 Label_0_014DC8BD
// 058   ----------------------------------------
 BYTE   W96
// 059   ----------------------------------------
 BYTE   PATT
  POIN2 Label_0_014DC8C9
// 060   ----------------------------------------
 BYTE   W96
// 061   ----------------------------------------
 BYTE   PATT
  POIN2 Label_0_014DC8D3
// 062   ----------------------------------------
 BYTE   PATT
  POIN2 Label_0_014DC8DE
// 063   ----------------------------------------
 BYTE   PATT
  POIN2 Label_0_014DC8ED
// 064   ----------------------------------------
 BYTE   PATT
  POIN2 Label_0_014DC8DE
// 065   ----------------------------------------
 BYTE   PATT
  POIN2 Label_0_014DC8ED
// 066   ----------------------------------------
 BYTE   PATT
  POIN2 Label_0_014DC906
// 067   ----------------------------------------
 BYTE   PATT
  POIN2 Label_0_014DC915
// 068   ----------------------------------------
 BYTE   PATT
  POIN2 Label_0_014DC906
// 069   ----------------------------------------
 BYTE   PATT
  POIN2 Label_0_014DC915
// 070   ----------------------------------------
 BYTE   PATT
  POIN2 Label_0_014DC8DE
// 071   ----------------------------------------
 BYTE   PATT
  POIN2 Label_0_014DC8ED
// 072   ----------------------------------------
 BYTE   PATT
  POIN2 Label_0_014DC8DE
// 073   ----------------------------------------
 BYTE   PATT
  POIN2 Label_0_014DC8ED
// 074   ----------------------------------------
 BYTE   PATT
  POIN2 Label_0_014DC906
// 075   ----------------------------------------
 BYTE   PATT
  POIN2 Label_0_014DC915
// 076   ----------------------------------------
 BYTE   PATT
  POIN2 Label_0_014DC906
// 077   ----------------------------------------
 BYTE   PATT
  POIN2 Label_0_014DC915
// 078   ----------------------------------------
 BYTE   W96
// 079   ----------------------------------------
 BYTE   W96
// 080   ----------------------------------------
 BYTE   W96
// 081   ----------------------------------------
 BYTE   W96
// 082   ----------------------------------------
 BYTE   W96
// 083   ----------------------------------------
 BYTE   W96
// 084   ----------------------------------------
 BYTE   W96
// 085   ----------------------------------------
 BYTE   W96
// 086   ----------------------------------------
 BYTE   PATT
  POIN2 Label_0_014DC95E
// 087   ----------------------------------------
 BYTE   PATT
  POIN2 Label_0_014DC967
// 088   ----------------------------------------
 BYTE   PATT
  POIN2 Label_0_014DC972
// 089   ----------------------------------------
 BYTE   PATT
  POIN2 Label_0_014DC97B
// 090   ----------------------------------------
 BYTE   PATT
  POIN2 Label_0_014DC95E
// 091   ----------------------------------------
 BYTE   PATT
  POIN2 Label_0_014DC967
// 092   ----------------------------------------
 BYTE   PATT
  POIN2 Label_0_014DC972
// 093   ----------------------------------------
 BYTE   PATT
  POIN2 Label_0_014DC97B
// 094   ----------------------------------------
 BYTE   GoTo
  POIN2 Label_0_014DC8DE
// 095   ----------------------------------------
 BYTE   PATT
  POIN2 Label_0_014DC99E
// 096   ----------------------------------------
 BYTE   PATT
  POIN2 Label_0_014DC9A7
// 097   ----------------------------------------
 BYTE   PATT
  POIN2 Label_0_014DC9B2
// 098   ----------------------------------------
 BYTE   PATT
  POIN2 Label_0_014DC9BB
// 099   ----------------------------------------
 BYTE   PATT
  POIN2 Label_0_014DC99E
// 100   ----------------------------------------
 BYTE   PATT
  POIN2 Label_0_014DC9A7
// 101   ----------------------------------------
 BYTE   PATT
  POIN2 Label_0_014DC95E
// 102   ----------------------------------------
 BYTE   PATT
  POIN2 Label_0_014DC967
// 103   ----------------------------------------
 BYTE   PATT
  POIN2 Label_0_014DC95E
// 104   ----------------------------------------
 BYTE   PATT
  POIN2 Label_0_014DC97B
// 105   ----------------------------------------
 BYTE   W96
// 106   ----------------------------------------
 BYTE   W96
// 107   ----------------------------------------
 BYTE   W96
// 108   ----------------------------------------
 BYTE   W90
 BYTE   FINE

//**************** Track 2 (Midi-Chn.1) ****************//

DKC2CrocodileCacophonyMeatOfJustice_002:
// 000   ----------------------------------------
 BYTE   KEYSH   DKC2CrocodileCacophonyMeatOfJustice_key+0
 BYTE   VOICE   48
 BYTE   VOL   56*DKC2CrocodileCacophonyMeatOfJustice_mvl/mxv
 BYTE   PAN   c_v+40
 BYTE   W96
// 001   ----------------------------------------
Label_1_54D4A5:
 BYTE   N12  Dn3  v127
 BYTE   W36
 BYTE   Ds3
 BYTE   W36
 BYTE   N12
 BYTE   W24
 BYTE   PEND 
// 002   ----------------------------------------
 BYTE   W96
// 003   ----------------------------------------
Label_1_54D4AF:
 BYTE   N12  En3  v127
 BYTE   W36
 BYTE   Fn3
 BYTE   W36
 BYTE   N12
 BYTE   W12
 BYTE   Fs3
 BYTE   W12
 BYTE   PEND 
// 004   ----------------------------------------
 BYTE   W96
// 005   ----------------------------------------
Label_1_54D4BB:
 BYTE   N12  En3  v127
 BYTE   W36
 BYTE   Fn3
 BYTE   W36
 BYTE   Fs3
 BYTE   W24
 BYTE   PEND 
// 006   ----------------------------------------
 BYTE   W96
// 007   ----------------------------------------
Label_1_54D4C5:
 BYTE   N12  Fs3  v127
 BYTE   W36
 BYTE   Gn3
 BYTE   W36
 BYTE   N12
 BYTE   W12
 BYTE   Gs3
 BYTE   W12
 BYTE   PEND 
// 008   ----------------------------------------
Label_1_54D4D0:
 BYTE   N12  Dn3  v127
 BYTE   W12
 BYTE   N12
 BYTE   W12
 BYTE   N12
 BYTE   W24
 BYTE   N12
 BYTE   W24
 BYTE   N12
 BYTE   W12
 BYTE   N12
 BYTE   W12
 BYTE   PEND 
// 009   ----------------------------------------
Label_1_54D4DF:
 BYTE   N12  Dn3  v127
 BYTE   W12
 BYTE   N12
 BYTE   W24
 BYTE   N12
 BYTE   W12
 BYTE   N12
 BYTE   W24
 BYTE   N12
 BYTE   W12
 BYTE   N12
 BYTE   W12
 BYTE   PEND 
// 010   ----------------------------------------
 BYTE   PATT
  POIN2 Label_1_54D4D0
// 011   ----------------------------------------
 BYTE   PATT
  POIN2 Label_1_54D4DF
// 012   ----------------------------------------
 BYTE   PATT
  POIN2 Label_1_54D4D0
// 013   ----------------------------------------
 BYTE   PATT
  POIN2 Label_1_54D4DF
// 014   ----------------------------------------
 BYTE   PATT
  POIN2 Label_1_54D4D0
// 015   ----------------------------------------
 BYTE   PATT
  POIN2 Label_1_54D4DF
// 016   ----------------------------------------
 BYTE   PATT
  POIN2 Label_1_54D4D0
// 017   ----------------------------------------
 BYTE   PATT
  POIN2 Label_1_54D4DF
// 018   ----------------------------------------
 BYTE   PATT
  POIN2 Label_1_54D4D0
// 019   ----------------------------------------
 BYTE   PATT
  POIN2 Label_1_54D4DF
// 020   ----------------------------------------
 BYTE   PATT
  POIN2 Label_1_54D4D0
// 021   ----------------------------------------
 BYTE   PATT
  POIN2 Label_1_54D4DF
// 022   ----------------------------------------
 BYTE   PATT
  POIN2 Label_1_54D4D0
// 023   ----------------------------------------
 BYTE   PATT
  POIN2 Label_1_54D4DF
// 024   ----------------------------------------
 BYTE   W96
// 025   ----------------------------------------
 BYTE   W96
// 026   ----------------------------------------
 BYTE   W96
// 027   ----------------------------------------
 BYTE   W96
// 028   ----------------------------------------
 BYTE   W96
// 029   ----------------------------------------
 BYTE   W96
// 030   ----------------------------------------
 BYTE   W96
// 031   ----------------------------------------
 BYTE   W96
// 032   ----------------------------------------
Label_1_54D53C:
 BYTE   N12  Dn3  v080
 BYTE   W24
 BYTE   N12
 BYTE   W48
 BYTE   N12
 BYTE   W24
 BYTE   PEND 
// 033   ----------------------------------------
Label_1_54D545:
 BYTE   N12  As2  v080
 BYTE   W12
 BYTE   N12
 BYTE   W12
 BYTE   N12
 BYTE   W48
 BYTE   N12
 BYTE   W24
 BYTE   PEND 
// 034   ----------------------------------------
Label_1_54D550:
 BYTE   N12  Cs3  v080
 BYTE   W24
 BYTE   N12
 BYTE   W48
 BYTE   N12
 BYTE   W24
 BYTE   PEND 
// 035   ----------------------------------------
Label_1_54D559:
 BYTE   N12  Dn3  v080
 BYTE   W12
 BYTE   N12
 BYTE   W12
 BYTE   N12
 BYTE   W24
 BYTE   N12
 BYTE   W24
 BYTE   N12
 BYTE   W12
 BYTE   N12
 BYTE   W12
 BYTE   PEND 
// 036   ----------------------------------------
 BYTE   PATT
  POIN2 Label_1_54D53C
// 037   ----------------------------------------
 BYTE   PATT
  POIN2 Label_1_54D545
// 038   ----------------------------------------
 BYTE   PATT
  POIN2 Label_1_54D550
// 039   ----------------------------------------
 BYTE   PATT
  POIN2 Label_1_54D559
// 040   ----------------------------------------
Label_1_54D57C:
 BYTE   N12  Gn3  v080
 BYTE   W24
 BYTE   N12
 BYTE   W48
 BYTE   N12
 BYTE   W24
 BYTE   PEND 
// 041   ----------------------------------------
Label_1_54D585:
 BYTE   N12  Ds3  v080
 BYTE   W12
 BYTE   N12
 BYTE   W12
 BYTE   N12
 BYTE   W48
 BYTE   N12
 BYTE   W24
 BYTE   PEND 
// 042   ----------------------------------------
Label_1_54D590:
 BYTE   N12  Fs3  v080
 BYTE   W24
 BYTE   N12
 BYTE   W48
 BYTE   N12
 BYTE   W24
 BYTE   PEND 
// 043   ----------------------------------------
Label_1_54D599:
 BYTE   N12  Gn3  v080
 BYTE   W12
 BYTE   N12
 BYTE   W12
 BYTE   N12
 BYTE   W24
 BYTE   N12
 BYTE   W24
 BYTE   N12
 BYTE   W12
 BYTE   N12
 BYTE   W12
 BYTE   PEND 
// 044   ----------------------------------------
 BYTE   PATT
  POIN2 Label_1_54D57C
// 045   ----------------------------------------
 BYTE   PATT
  POIN2 Label_1_54D585
// 046   ----------------------------------------
 BYTE   PATT
  POIN2 Label_1_54D53C
// 047   ----------------------------------------
Label_1_54D5B7:
 BYTE   N12  Dn3  v080
 BYTE   W12
 BYTE   N12
 BYTE   W12
 BYTE   N12
 BYTE   W48
 BYTE   N12
 BYTE   W24
 BYTE   PEND 
// 048   ----------------------------------------
 BYTE   PATT
  POIN2 Label_1_54D53C
// 049   ----------------------------------------
 BYTE   PATT
  POIN2 Label_1_54D559
// 050   ----------------------------------------
 BYTE   W96
// 051   ----------------------------------------
 BYTE   W96
// 052   ----------------------------------------
 BYTE   W96
// 053   ----------------------------------------
 BYTE   W96
// 054   ----------------------------------------
 BYTE   W96
// 055   ----------------------------------------
 BYTE   PATT
  POIN2 Label_1_54D4A5
// 056   ----------------------------------------
 BYTE   W96
// 057   ----------------------------------------
 BYTE   PATT
  POIN2 Label_1_54D4AF
// 058   ----------------------------------------
 BYTE   W96
// 059   ----------------------------------------
 BYTE   PATT
  POIN2 Label_1_54D4BB
// 060   ----------------------------------------
 BYTE   W96
// 061   ----------------------------------------
 BYTE   PATT
  POIN2 Label_1_54D4C5
// 062   ----------------------------------------
 BYTE   PATT
  POIN2 Label_1_54D4D0
// 063   ----------------------------------------
 BYTE   PATT
  POIN2 Label_1_54D4DF
// 064   ----------------------------------------
 BYTE   PATT
  POIN2 Label_1_54D4D0
// 065   ----------------------------------------
 BYTE   PATT
  POIN2 Label_1_54D4DF
// 066   ----------------------------------------
 BYTE   PATT
  POIN2 Label_1_54D4D0
// 067   ----------------------------------------
 BYTE   PATT
  POIN2 Label_1_54D4DF
// 068   ----------------------------------------
 BYTE   PATT
  POIN2 Label_1_54D4D0
// 069   ----------------------------------------
 BYTE   PATT
  POIN2 Label_1_54D4DF
// 070   ----------------------------------------
 BYTE   PATT
  POIN2 Label_1_54D4D0
// 071   ----------------------------------------
 BYTE   PATT
  POIN2 Label_1_54D4DF
// 072   ----------------------------------------
 BYTE   PATT
  POIN2 Label_1_54D4D0
// 073   ----------------------------------------
 BYTE   PATT
  POIN2 Label_1_54D4DF
// 074   ----------------------------------------
 BYTE   PATT
  POIN2 Label_1_54D4D0
// 075   ----------------------------------------
 BYTE   PATT
  POIN2 Label_1_54D4DF
// 076   ----------------------------------------
 BYTE   PATT
  POIN2 Label_1_54D4D0
// 077   ----------------------------------------
 BYTE   PATT
  POIN2 Label_1_54D4DF
// 078   ----------------------------------------
 BYTE   W96
// 079   ----------------------------------------
 BYTE   W96
// 080   ----------------------------------------
 BYTE   W96
// 081   ----------------------------------------
 BYTE   W96
// 082   ----------------------------------------
 BYTE   W96
// 083   ----------------------------------------
 BYTE   W96
// 084   ----------------------------------------
 BYTE   W96
// 085   ----------------------------------------
 BYTE   W96
// 086   ----------------------------------------
 BYTE   PATT
  POIN2 Label_1_54D53C
// 087   ----------------------------------------
 BYTE   PATT
  POIN2 Label_1_54D545
// 088   ----------------------------------------
 BYTE   PATT
  POIN2 Label_1_54D550
// 089   ----------------------------------------
 BYTE   PATT
  POIN2 Label_1_54D559
// 090   ----------------------------------------
 BYTE   PATT
  POIN2 Label_1_54D53C
// 091   ----------------------------------------
 BYTE   PATT
  POIN2 Label_1_54D545
// 092   ----------------------------------------
 BYTE   PATT
  POIN2 Label_1_54D550
// 093   ----------------------------------------
 BYTE   PATT
  POIN2 Label_1_54D559
// 094   ----------------------------------------
 BYTE   GoTo
  POIN2 Label_1_54D4D0
// 095   ----------------------------------------
 BYTE   PATT
  POIN2 Label_1_54D57C
// 096   ----------------------------------------
 BYTE   PATT
  POIN2 Label_1_54D585
// 097   ----------------------------------------
 BYTE   PATT
  POIN2 Label_1_54D590
// 098   ----------------------------------------
 BYTE   PATT
  POIN2 Label_1_54D599
// 099   ----------------------------------------
 BYTE   PATT
  POIN2 Label_1_54D57C
// 100   ----------------------------------------
 BYTE   PATT
  POIN2 Label_1_54D585
// 101   ----------------------------------------
 BYTE   PATT
  POIN2 Label_1_54D53C
// 102   ----------------------------------------
 BYTE   PATT
  POIN2 Label_1_54D5B7
// 103   ----------------------------------------
 BYTE   PATT
  POIN2 Label_1_54D53C
// 104   ----------------------------------------
 BYTE   PATT
  POIN2 Label_1_54D559
// 105   ----------------------------------------
 BYTE   W96
// 106   ----------------------------------------
 BYTE   W96
// 107   ----------------------------------------
 BYTE   W96
// 108   ----------------------------------------
 BYTE   W90
 BYTE   FINE

//**************** Track 3 (Midi-Chn.2) ****************//

DKC2CrocodileCacophonyMeatOfJustice_003:
// 000   ----------------------------------------
 BYTE   KEYSH   DKC2CrocodileCacophonyMeatOfJustice_key+0
 BYTE   VOICE   48
 BYTE   VOL   56*DKC2CrocodileCacophonyMeatOfJustice_mvl/mxv
 BYTE   PAN   c_v-40
 BYTE   W96
// 001   ----------------------------------------
Label_2_54C6F5:
 BYTE   N12  Fn2  v127
 BYTE   W36
 BYTE   N12
 BYTE   W36
 BYTE   N12
 BYTE   W24
 BYTE   PEND 
// 002   ----------------------------------------
 BYTE   W96
// 003   ----------------------------------------
Label_2_54C6FF:
 BYTE   N12  Gs2  v127
 BYTE   W36
 BYTE   N12
 BYTE   W36
 BYTE   N12
 BYTE   W12
 BYTE   N12
 BYTE   W12
 BYTE   PEND 
// 004   ----------------------------------------
 BYTE   Gs2  v080
 BYTE   W96
// 005   ----------------------------------------
Label_2_54C70D:
 BYTE   N12  Gn2  v127
 BYTE   W36
 BYTE   N12
 BYTE   W36
 BYTE   N12
 BYTE   W24
 BYTE   PEND 
// 006   ----------------------------------------
 BYTE   W96
// 007   ----------------------------------------
Label_2_54C717:
 BYTE   N12  As2  v127
 BYTE   W36
 BYTE   N12
 BYTE   W36
 BYTE   N12
 BYTE   W12
 BYTE   N12
 BYTE   W12
 BYTE   PEND 
// 008   ----------------------------------------
Label_2_54C722:
 BYTE   N12  Gn3  v127
 BYTE   W12
 BYTE   N12
 BYTE   W12
 BYTE   N12
 BYTE   W24
 BYTE   N12
 BYTE   W24
 BYTE   N12
 BYTE   W12
 BYTE   N12
 BYTE   W12
 BYTE   PEND 
// 009   ----------------------------------------
Label_2_54C731:
 BYTE   N12  Gn3  v127
 BYTE   W12
 BYTE   N12
 BYTE   W24
 BYTE   N12
 BYTE   W12
 BYTE   N12
 BYTE   W24
 BYTE   N12
 BYTE   W12
 BYTE   N12
 BYTE   W12
 BYTE   PEND 
// 010   ----------------------------------------
 BYTE   PATT
  POIN2 Label_2_54C722
// 011   ----------------------------------------
 BYTE   PATT
  POIN2 Label_2_54C731
// 012   ----------------------------------------
Label_2_54C74A:
 BYTE   N12  Fs3  v127
 BYTE   W12
 BYTE   N12
 BYTE   W12
 BYTE   N12
 BYTE   W24
 BYTE   N12
 BYTE   W24
 BYTE   N12
 BYTE   W12
 BYTE   N12
 BYTE   W12
 BYTE   PEND 
// 013   ----------------------------------------
Label_2_54C759:
 BYTE   N12  Fs3  v127
 BYTE   W12
 BYTE   N12
 BYTE   W24
 BYTE   N12
 BYTE   W12
 BYTE   N12
 BYTE   W24
 BYTE   N12
 BYTE   W12
 BYTE   N12
 BYTE   W12
 BYTE   PEND 
// 014   ----------------------------------------
 BYTE   PATT
  POIN2 Label_2_54C74A
// 015   ----------------------------------------
 BYTE   PATT
  POIN2 Label_2_54C759
// 016   ----------------------------------------
 BYTE   PATT
  POIN2 Label_2_54C722
// 017   ----------------------------------------
 BYTE   PATT
  POIN2 Label_2_54C731
// 018   ----------------------------------------
 BYTE   PATT
  POIN2 Label_2_54C722
// 019   ----------------------------------------
 BYTE   PATT
  POIN2 Label_2_54C731
// 020   ----------------------------------------
 BYTE   PATT
  POIN2 Label_2_54C74A
// 021   ----------------------------------------
 BYTE   PATT
  POIN2 Label_2_54C759
// 022   ----------------------------------------
 BYTE   PATT
  POIN2 Label_2_54C74A
// 023   ----------------------------------------
 BYTE   PATT
  POIN2 Label_2_54C759
// 024   ----------------------------------------
 BYTE   W96
// 025   ----------------------------------------
 BYTE   W96
// 026   ----------------------------------------
 BYTE   W96
// 027   ----------------------------------------
 BYTE   W96
// 028   ----------------------------------------
 BYTE   W96
// 029   ----------------------------------------
 BYTE   W96
// 030   ----------------------------------------
 BYTE   W96
// 031   ----------------------------------------
 BYTE   W96
// 032   ----------------------------------------
Label_2_54C7A2:
 BYTE   N12  Fn3  v080
 BYTE   W24
 BYTE   N12
 BYTE   W48
 BYTE   N12
 BYTE   W24
 BYTE   PEND 
// 033   ----------------------------------------
Label_2_54C7AB:
 BYTE   N12  Dn3  v080
 BYTE   W12
 BYTE   N12
 BYTE   W12
 BYTE   N12
 BYTE   W48
 BYTE   N12
 BYTE   W24
 BYTE   PEND 
// 034   ----------------------------------------
Label_2_54C7B6:
 BYTE   N12  En3  v080
 BYTE   W24
 BYTE   N12
 BYTE   W48
 BYTE   N12
 BYTE   W24
 BYTE   PEND 
// 035   ----------------------------------------
Label_2_54C7BF:
 BYTE   N12  Fn3  v080
 BYTE   W12
 BYTE   N12
 BYTE   W12
 BYTE   N12
 BYTE   W24
 BYTE   N12
 BYTE   W24
 BYTE   N12
 BYTE   W12
 BYTE   N12
 BYTE   W12
 BYTE   PEND 
// 036   ----------------------------------------
 BYTE   PATT
  POIN2 Label_2_54C7A2
// 037   ----------------------------------------
 BYTE   PATT
  POIN2 Label_2_54C7AB
// 038   ----------------------------------------
 BYTE   PATT
  POIN2 Label_2_54C7B6
// 039   ----------------------------------------
 BYTE   PATT
  POIN2 Label_2_54C7BF
// 040   ----------------------------------------
Label_2_54C7E2:
 BYTE   N12  As3  v080
 BYTE   W24
 BYTE   N12
 BYTE   W48
 BYTE   N12
 BYTE   W24
 BYTE   PEND 
// 041   ----------------------------------------
Label_2_54C7EB:
 BYTE   N12  Gn3  v080
 BYTE   W12
 BYTE   N12
 BYTE   W12
 BYTE   N12
 BYTE   W48
 BYTE   N12
 BYTE   W24
 BYTE   PEND 
// 042   ----------------------------------------
Label_2_54C7F6:
 BYTE   N12  An3  v080
 BYTE   W24
 BYTE   N12
 BYTE   W48
 BYTE   N12
 BYTE   W24
 BYTE   PEND 
// 043   ----------------------------------------
Label_2_54C7FF:
 BYTE   N12  As3  v080
 BYTE   W12
 BYTE   N12
 BYTE   W12
 BYTE   N12
 BYTE   W24
 BYTE   N12
 BYTE   W24
 BYTE   N12
 BYTE   W12
 BYTE   N12
 BYTE   W12
 BYTE   PEND 
// 044   ----------------------------------------
 BYTE   PATT
  POIN2 Label_2_54C7E2
// 045   ----------------------------------------
 BYTE   PATT
  POIN2 Label_2_54C7EB
// 046   ----------------------------------------
Label_2_54C818:
 BYTE   N12  Fs3  v080
 BYTE   W24
 BYTE   N12
 BYTE   W48
 BYTE   N12
 BYTE   W24
 BYTE   PEND 
// 047   ----------------------------------------
Label_2_54C821:
 BYTE   N12  Fs3  v080
 BYTE   W12
 BYTE   N12
 BYTE   W12
 BYTE   N12
 BYTE   W48
 BYTE   N12
 BYTE   W24
 BYTE   PEND 
// 048   ----------------------------------------
 BYTE   PATT
  POIN2 Label_2_54C818
// 049   ----------------------------------------
Label_2_54C831:
 BYTE   N12  Fs3  v080
 BYTE   W12
 BYTE   N12
 BYTE   W12
 BYTE   N12
 BYTE   W24
 BYTE   N12
 BYTE   W24
 BYTE   N12
 BYTE   W12
 BYTE   N12
 BYTE   W12
 BYTE   PEND 
// 050   ----------------------------------------
 BYTE   W96
// 051   ----------------------------------------
 BYTE   W96
// 052   ----------------------------------------
 BYTE   W96
// 053   ----------------------------------------
 BYTE   W96
// 054   ----------------------------------------
 BYTE   W96
// 055   ----------------------------------------
 BYTE   PATT
  POIN2 Label_2_54C6F5
// 056   ----------------------------------------
 BYTE   W96
// 057   ----------------------------------------
 BYTE   PATT
  POIN2 Label_2_54C6FF
// 058   ----------------------------------------
 BYTE   N12  Gs2  v080
 BYTE   W96
// 059   ----------------------------------------
 BYTE   PATT
  POIN2 Label_2_54C70D
// 060   ----------------------------------------
 BYTE   W96
// 061   ----------------------------------------
 BYTE   PATT
  POIN2 Label_2_54C717
// 062   ----------------------------------------
 BYTE   PATT
  POIN2 Label_2_54C722
// 063   ----------------------------------------
 BYTE   PATT
  POIN2 Label_2_54C731
// 064   ----------------------------------------
 BYTE   PATT
  POIN2 Label_2_54C722
// 065   ----------------------------------------
 BYTE   PATT
  POIN2 Label_2_54C731
// 066   ----------------------------------------
 BYTE   PATT
  POIN2 Label_2_54C74A
// 067   ----------------------------------------
 BYTE   PATT
  POIN2 Label_2_54C759
// 068   ----------------------------------------
 BYTE   PATT
  POIN2 Label_2_54C74A
// 069   ----------------------------------------
 BYTE   PATT
  POIN2 Label_2_54C759
// 070   ----------------------------------------
 BYTE   PATT
  POIN2 Label_2_54C722
// 071   ----------------------------------------
 BYTE   PATT
  POIN2 Label_2_54C731
// 072   ----------------------------------------
 BYTE   PATT
  POIN2 Label_2_54C722
// 073   ----------------------------------------
 BYTE   PATT
  POIN2 Label_2_54C731
// 074   ----------------------------------------
 BYTE   PATT
  POIN2 Label_2_54C74A
// 075   ----------------------------------------
 BYTE   PATT
  POIN2 Label_2_54C759
// 076   ----------------------------------------
 BYTE   PATT
  POIN2 Label_2_54C74A
// 077   ----------------------------------------
 BYTE   PATT
  POIN2 Label_2_54C759
// 078   ----------------------------------------
 BYTE   W96
// 079   ----------------------------------------
 BYTE   W96
// 080   ----------------------------------------
 BYTE   W96
// 081   ----------------------------------------
 BYTE   W96
// 082   ----------------------------------------
 BYTE   W96
// 083   ----------------------------------------
 BYTE   W96
// 084   ----------------------------------------
 BYTE   W96
// 085   ----------------------------------------
 BYTE   W96
// 086   ----------------------------------------
 BYTE   PATT
  POIN2 Label_2_54C7A2
// 087   ----------------------------------------
 BYTE   PATT
  POIN2 Label_2_54C7AB
// 088   ----------------------------------------
 BYTE   PATT
  POIN2 Label_2_54C7B6
// 089   ----------------------------------------
 BYTE   PATT
  POIN2 Label_2_54C7BF
// 090   ----------------------------------------
 BYTE   PATT
  POIN2 Label_2_54C7A2
// 091   ----------------------------------------
 BYTE   PATT
  POIN2 Label_2_54C7AB
// 092   ----------------------------------------
 BYTE   PATT
  POIN2 Label_2_54C7B6
// 093   ----------------------------------------
 BYTE   PATT
  POIN2 Label_2_54C7BF
// 094   ----------------------------------------
 BYTE   GoTo
  POIN2 Label_2_54C722
// 095   ----------------------------------------
 BYTE   PATT
  POIN2 Label_2_54C7E2
// 096   ----------------------------------------
 BYTE   PATT
  POIN2 Label_2_54C7EB
// 097   ----------------------------------------
 BYTE   PATT
  POIN2 Label_2_54C7F6
// 098   ----------------------------------------
 BYTE   PATT
  POIN2 Label_2_54C7FF
// 099   ----------------------------------------
 BYTE   PATT
  POIN2 Label_2_54C7E2
// 100   ----------------------------------------
 BYTE   PATT
  POIN2 Label_2_54C7EB
// 101   ----------------------------------------
 BYTE   PATT
  POIN2 Label_2_54C818
// 102   ----------------------------------------
 BYTE   PATT
  POIN2 Label_2_54C821
// 103   ----------------------------------------
 BYTE   PATT
  POIN2 Label_2_54C818
// 104   ----------------------------------------
 BYTE   PATT
  POIN2 Label_2_54C831
// 105   ----------------------------------------
 BYTE   W96
// 106   ----------------------------------------
 BYTE   W96
// 107   ----------------------------------------
 BYTE   W96
// 108   ----------------------------------------
 BYTE   W90
 BYTE   FINE

//**************** Track 4 (Midi-Chn.3) ****************//

DKC2CrocodileCacophonyMeatOfJustice_004:
// 000   ----------------------------------------
 BYTE   KEYSH   DKC2CrocodileCacophonyMeatOfJustice_key+0
 BYTE   VOICE   48
 BYTE   VOL   56*DKC2CrocodileCacophonyMeatOfJustice_mvl/mxv
 BYTE   PAN   c_v+0
 BYTE   TIE  AnM1  v127
 BYTE   TIE  An0
 BYTE   W96
// 001   ----------------------------------------
 BYTE   W96
// 002   ----------------------------------------
 BYTE   W96
// 003   ----------------------------------------
 BYTE   W96
// 004   ----------------------------------------
 BYTE   EOT
 BYTE   AnM1
 BYTE   W96
// 005   ----------------------------------------
 BYTE   W96
// 006   ----------------------------------------
 BYTE   W96
// 007   ----------------------------------------
 BYTE   W96
// 008   ----------------------------------------
 BYTE   An0
Label_3_014DD6C8:
 BYTE   W96
// 009   ----------------------------------------
 BYTE   W96
// 010   ----------------------------------------
 BYTE   W96
// 011   ----------------------------------------
 BYTE   W96
// 012   ----------------------------------------
 BYTE   W96
// 013   ----------------------------------------
 BYTE   W96
// 014   ----------------------------------------
 BYTE   W96
// 015   ----------------------------------------
 BYTE   W96
// 016   ----------------------------------------
 BYTE   W96
// 017   ----------------------------------------
 BYTE   W96
// 018   ----------------------------------------
 BYTE   W96
// 019   ----------------------------------------
 BYTE   W96
// 020   ----------------------------------------
 BYTE   W96
// 021   ----------------------------------------
 BYTE   W96
// 022   ----------------------------------------
 BYTE   W96
// 023   ----------------------------------------
 BYTE   W96
// 024   ----------------------------------------
 BYTE   W96
// 025   ----------------------------------------
 BYTE   W96
// 026   ----------------------------------------
 BYTE   W96
// 027   ----------------------------------------
 BYTE   W96
// 028   ----------------------------------------
 BYTE   W96
// 029   ----------------------------------------
 BYTE   W96
// 030   ----------------------------------------
 BYTE   W96
// 031   ----------------------------------------
 BYTE   W96
// 032   ----------------------------------------
 BYTE   W96
// 033   ----------------------------------------
 BYTE   W96
// 034   ----------------------------------------
 BYTE   W96
// 035   ----------------------------------------
 BYTE   W96
// 036   ----------------------------------------
 BYTE   W96
// 037   ----------------------------------------
 BYTE   W96
// 038   ----------------------------------------
 BYTE   W96
// 039   ----------------------------------------
 BYTE   W96
// 040   ----------------------------------------
 BYTE   W96
// 041   ----------------------------------------
 BYTE   W96
// 042   ----------------------------------------
 BYTE   W96
// 043   ----------------------------------------
 BYTE   W96
// 044   ----------------------------------------
 BYTE   W96
// 045   ----------------------------------------
 BYTE   W96
// 046   ----------------------------------------
 BYTE   W96
// 047   ----------------------------------------
 BYTE   W96
// 048   ----------------------------------------
 BYTE   W96
// 049   ----------------------------------------
 BYTE   W96
// 050   ----------------------------------------
 BYTE   W96
// 051   ----------------------------------------
 BYTE   W96
// 052   ----------------------------------------
 BYTE   W96
// 053   ----------------------------------------
 BYTE   W96
// 054   ----------------------------------------
 BYTE   TIE  AnM1  v127
 BYTE   TIE  An0
 BYTE   W96
// 055   ----------------------------------------
 BYTE   W96
// 056   ----------------------------------------
 BYTE   W96
// 057   ----------------------------------------
 BYTE   W96
// 058   ----------------------------------------
 BYTE   EOT
 BYTE   AnM1
 BYTE   W96
// 059   ----------------------------------------
 BYTE   W96
// 060   ----------------------------------------
 BYTE   W96
// 061   ----------------------------------------
 BYTE   W96
// 062   ----------------------------------------
 BYTE   An0
 BYTE   W96
// 063   ----------------------------------------
 BYTE   W96
// 064   ----------------------------------------
 BYTE   W96
// 065   ----------------------------------------
 BYTE   W96
// 066   ----------------------------------------
 BYTE   W96
// 067   ----------------------------------------
 BYTE   W96
// 068   ----------------------------------------
 BYTE   W96
// 069   ----------------------------------------
 BYTE   W96
// 070   ----------------------------------------
 BYTE   W96
// 071   ----------------------------------------
 BYTE   W96
// 072   ----------------------------------------
 BYTE   W96
// 073   ----------------------------------------
 BYTE   W96
// 074   ----------------------------------------
 BYTE   W96
// 075   ----------------------------------------
 BYTE   W96
// 076   ----------------------------------------
 BYTE   W96
// 077   ----------------------------------------
 BYTE   W96
// 078   ----------------------------------------
 BYTE   W96
// 079   ----------------------------------------
 BYTE   W96
// 080   ----------------------------------------
 BYTE   W96
// 081   ----------------------------------------
 BYTE   W96
// 082   ----------------------------------------
 BYTE   W96
// 083   ----------------------------------------
 BYTE   W96
// 084   ----------------------------------------
 BYTE   W96
// 085   ----------------------------------------
 BYTE   W96
// 086   ----------------------------------------
 BYTE   W96
// 087   ----------------------------------------
 BYTE   W96
// 088   ----------------------------------------
 BYTE   W96
// 089   ----------------------------------------
 BYTE   W96
// 090   ----------------------------------------
 BYTE   W96
// 091   ----------------------------------------
 BYTE   W96
// 092   ----------------------------------------
 BYTE   W96
// 093   ----------------------------------------
 BYTE   W96
// 094   ----------------------------------------
 BYTE   GoTo
  POIN2 Label_3_014DD6C8
// 095   ----------------------------------------
 BYTE   W96
// 096   ----------------------------------------
 BYTE   W96
// 097   ----------------------------------------
 BYTE   W96
// 098   ----------------------------------------
 BYTE   W96
// 099   ----------------------------------------
 BYTE   W96
// 100   ----------------------------------------
 BYTE   W96
// 101   ----------------------------------------
 BYTE   W96
// 102   ----------------------------------------
 BYTE   W96
// 103   ----------------------------------------
 BYTE   W96
// 104   ----------------------------------------
 BYTE   W96
// 105   ----------------------------------------
 BYTE   W96
// 106   ----------------------------------------
 BYTE   W96
// 107   ----------------------------------------
 BYTE   W96
// 108   ----------------------------------------
 BYTE   W90
 BYTE   FINE

//**************** Track 5 (Midi-Chn.4) ****************//

DKC2CrocodileCacophonyMeatOfJustice_005:
// 000   ----------------------------------------
 BYTE   KEYSH   DKC2CrocodileCacophonyMeatOfJustice_key+0
 BYTE   VOICE   48
 BYTE   VOL   56*DKC2CrocodileCacophonyMeatOfJustice_mvl/mxv
 BYTE   PAN   c_v+0
 BYTE   VOL   0*DKC2CrocodileCacophonyMeatOfJustice_mvl/mxv
 BYTE   TIE  Dn5  v104
 BYTE   W24
 BYTE   VOL   0*DKC2CrocodileCacophonyMeatOfJustice_mvl/mxv
 BYTE   W24
 BYTE   VOL   6*DKC2CrocodileCacophonyMeatOfJustice_mvl/mxv
 BYTE   W24
 BYTE   VOL   16*DKC2CrocodileCacophonyMeatOfJustice_mvl/mxv
 BYTE   W24
// 001   ----------------------------------------
Label_4_54BECB:
 BYTE   VOL   25*DKC2CrocodileCacophonyMeatOfJustice_mvl/mxv
 BYTE   W24
 BYTE   VOL   35*DKC2CrocodileCacophonyMeatOfJustice_mvl/mxv
 BYTE   W24
 BYTE   VOL   45*DKC2CrocodileCacophonyMeatOfJustice_mvl/mxv
 BYTE   W24
 BYTE   VOL   56*DKC2CrocodileCacophonyMeatOfJustice_mvl/mxv
 BYTE   W24
 BYTE   PEND 
// 002   ----------------------------------------
 BYTE   W96
// 003   ----------------------------------------
 BYTE   W96
// 004   ----------------------------------------
 BYTE   EOT
 BYTE   Dn5
 BYTE   W96
// 005   ----------------------------------------
 BYTE   W96
// 006   ----------------------------------------
Label_4_54BEDE:
 BYTE   W24
 BYTE   VOL   45*DKC2CrocodileCacophonyMeatOfJustice_mvl/mxv
 BYTE   W24
 BYTE   VOL   35*DKC2CrocodileCacophonyMeatOfJustice_mvl/mxv
 BYTE   W24
 BYTE   VOL   25*DKC2CrocodileCacophonyMeatOfJustice_mvl/mxv
 BYTE   W24
 BYTE   PEND 
// 007   ----------------------------------------
Label_4_54BEE9:
 BYTE   VOL   16*DKC2CrocodileCacophonyMeatOfJustice_mvl/mxv
 BYTE   W24
 BYTE   VOL   6*DKC2CrocodileCacophonyMeatOfJustice_mvl/mxv
 BYTE   W24
 BYTE   VOL   0*DKC2CrocodileCacophonyMeatOfJustice_mvl/mxv
 BYTE   W24
 BYTE   VOL   0*DKC2CrocodileCacophonyMeatOfJustice_mvl/mxv
 BYTE   W24
 BYTE   PEND 
// 008   ----------------------------------------
Label_4_54BEF6:
 BYTE   W96
// 009   ----------------------------------------
 BYTE   W96
// 010   ----------------------------------------
 BYTE   W96
// 011   ----------------------------------------
 BYTE   W96
// 012   ----------------------------------------
 BYTE   W96
// 013   ----------------------------------------
 BYTE   W96
// 014   ----------------------------------------
 BYTE   W96
// 015   ----------------------------------------
 BYTE   W96
// 016   ----------------------------------------
 BYTE   W96
// 017   ----------------------------------------
 BYTE   W96
// 018   ----------------------------------------
 BYTE   W96
// 019   ----------------------------------------
 BYTE   W96
// 020   ----------------------------------------
 BYTE   W96
// 021   ----------------------------------------
 BYTE   W96
// 022   ----------------------------------------
 BYTE   W96
// 023   ----------------------------------------
 BYTE   W96
// 024   ----------------------------------------
 BYTE   W96
// 025   ----------------------------------------
 BYTE   W96
// 026   ----------------------------------------
 BYTE   W96
// 027   ----------------------------------------
 BYTE   W96
// 028   ----------------------------------------
 BYTE   W96
// 029   ----------------------------------------
 BYTE   W96
// 030   ----------------------------------------
 BYTE   W96
// 031   ----------------------------------------
 BYTE   W96
// 032   ----------------------------------------
 BYTE   W96
// 033   ----------------------------------------
 BYTE   W96
// 034   ----------------------------------------
 BYTE   W96
// 035   ----------------------------------------
 BYTE   W96
// 036   ----------------------------------------
 BYTE   W96
// 037   ----------------------------------------
 BYTE   W96
// 038   ----------------------------------------
 BYTE   W96
// 039   ----------------------------------------
 BYTE   W96
// 040   ----------------------------------------
 BYTE   W96
// 041   ----------------------------------------
 BYTE   W96
// 042   ----------------------------------------
 BYTE   W96
// 043   ----------------------------------------
 BYTE   W96
// 044   ----------------------------------------
 BYTE   W96
// 045   ----------------------------------------
 BYTE   W96
// 046   ----------------------------------------
 BYTE   W96
// 047   ----------------------------------------
 BYTE   W96
// 048   ----------------------------------------
 BYTE   W96
// 049   ----------------------------------------
 BYTE   W96
// 050   ----------------------------------------
 BYTE   W96
// 051   ----------------------------------------
 BYTE   W96
// 052   ----------------------------------------
 BYTE   W96
// 053   ----------------------------------------
 BYTE   W96
// 054   ----------------------------------------
 BYTE   TIE  Dn5  v104
 BYTE   W24
 BYTE   VOL   0*DKC2CrocodileCacophonyMeatOfJustice_mvl/mxv
 BYTE   W24
 BYTE   VOL   6*DKC2CrocodileCacophonyMeatOfJustice_mvl/mxv
 BYTE   W24
 BYTE   VOL   16*DKC2CrocodileCacophonyMeatOfJustice_mvl/mxv
 BYTE   W24
// 055   ----------------------------------------
 BYTE   PATT
  POIN2 Label_4_54BECB
// 056   ----------------------------------------
 BYTE   W96
// 057   ----------------------------------------
 BYTE   W96
// 058   ----------------------------------------
 BYTE   W96
// 059   ----------------------------------------
 BYTE   EOT
 BYTE   Dn5
 BYTE   W96
// 060   ----------------------------------------
 BYTE   PATT
  POIN2 Label_4_54BEDE
// 061   ----------------------------------------
 BYTE   PATT
  POIN2 Label_4_54BEE9
// 062   ----------------------------------------
 BYTE   W96
// 063   ----------------------------------------
 BYTE   W96
// 064   ----------------------------------------
 BYTE   W96
// 065   ----------------------------------------
 BYTE   W96
// 066   ----------------------------------------
 BYTE   W96
// 067   ----------------------------------------
 BYTE   W96
// 068   ----------------------------------------
 BYTE   W96
// 069   ----------------------------------------
 BYTE   W96
// 070   ----------------------------------------
 BYTE   W96
// 071   ----------------------------------------
 BYTE   W96
// 072   ----------------------------------------
 BYTE   W96
// 073   ----------------------------------------
 BYTE   W96
// 074   ----------------------------------------
 BYTE   W96
// 075   ----------------------------------------
 BYTE   W96
// 076   ----------------------------------------
 BYTE   W96
// 077   ----------------------------------------
 BYTE   W96
// 078   ----------------------------------------
 BYTE   W96
// 079   ----------------------------------------
 BYTE   W96
// 080   ----------------------------------------
 BYTE   W96
// 081   ----------------------------------------
 BYTE   W96
// 082   ----------------------------------------
 BYTE   W96
// 083   ----------------------------------------
 BYTE   W96
// 084   ----------------------------------------
 BYTE   W96
// 085   ----------------------------------------
 BYTE   W96
// 086   ----------------------------------------
 BYTE   W96
// 087   ----------------------------------------
 BYTE   W96
// 088   ----------------------------------------
 BYTE   W96
// 089   ----------------------------------------
 BYTE   W96
// 090   ----------------------------------------
 BYTE   W96
// 091   ----------------------------------------
 BYTE   W96
// 092   ----------------------------------------
 BYTE   W96
// 093   ----------------------------------------
 BYTE   W96
// 094   ----------------------------------------
 BYTE   GoTo
  POIN2 Label_4_54BEF6
// 095   ----------------------------------------
 BYTE   W96
// 096   ----------------------------------------
 BYTE   W96
// 097   ----------------------------------------
 BYTE   W96
// 098   ----------------------------------------
 BYTE   W96
// 099   ----------------------------------------
 BYTE   W96
// 100   ----------------------------------------
 BYTE   W96
// 101   ----------------------------------------
 BYTE   W96
// 102   ----------------------------------------
 BYTE   W96
// 103   ----------------------------------------
 BYTE   W96
// 104   ----------------------------------------
 BYTE   W96
// 105   ----------------------------------------
 BYTE   W96
// 106   ----------------------------------------
 BYTE   W96
// 107   ----------------------------------------
 BYTE   W96
// 108   ----------------------------------------
 BYTE   W90
 BYTE   FINE

//**************** Track 6 (Midi-Chn.5) ****************//

DKC2CrocodileCacophonyMeatOfJustice_006:
// 000   ----------------------------------------
 BYTE   KEYSH   DKC2CrocodileCacophonyMeatOfJustice_key+0
 BYTE   VOICE   30
 BYTE   VOL   24*DKC2CrocodileCacophonyMeatOfJustice_mvl/mxv
 BYTE   PAN   c_v-50
 BYTE   N06  FnM2  v127
 BYTE   N06  FnM1
 BYTE   W24
 BYTE   FnM2
 BYTE   N06  FnM1
 BYTE   W24
 BYTE   FnM2
 BYTE   N06  FnM1
 BYTE   W24
 BYTE   FnM2
 BYTE   N06  FnM1
 BYTE   W24
// 001   ----------------------------------------
Label_5_54CF32:
 BYTE   N06  FnM2  v127
 BYTE   N06  FnM1
 BYTE   W24
 BYTE   FnM2
 BYTE   N06  FnM1
 BYTE   W24
 BYTE   FnM2
 BYTE   N06  FnM1
 BYTE   W24
 BYTE   FnM2
 BYTE   N06  FnM1
 BYTE   W24
 BYTE   PEND 
// 002   ----------------------------------------
 BYTE   PATT
  POIN2 Label_5_54CF32
// 003   ----------------------------------------
 BYTE   PATT
  POIN2 Label_5_54CF32
// 004   ----------------------------------------
 BYTE   PATT
  POIN2 Label_5_54CF32
// 005   ----------------------------------------
 BYTE   PATT
  POIN2 Label_5_54CF32
// 006   ----------------------------------------
 BYTE   PATT
  POIN2 Label_5_54CF32
// 007   ----------------------------------------
 BYTE   PATT
  POIN2 Label_5_54CF32
// 008   ----------------------------------------
Label_5_54CF63:
 BYTE   N06  GnM1  v127
 BYTE   N06  Gn0
 BYTE   W24
 BYTE   GnM1
 BYTE   N06  Gn0
 BYTE   W24
 BYTE   GnM1
 BYTE   N06  Gn0
 BYTE   W24
 BYTE   GnM1
 BYTE   N06  Gn0
 BYTE   W24
 BYTE   PEND 
// 009   ----------------------------------------
 BYTE   PATT
  POIN2 Label_5_54CF63
// 010   ----------------------------------------
 BYTE   PATT
  POIN2 Label_5_54CF63
// 011   ----------------------------------------
 BYTE   PATT
  POIN2 Label_5_54CF63
// 012   ----------------------------------------
 BYTE   PATT
  POIN2 Label_5_54CF63
// 013   ----------------------------------------
 BYTE   PATT
  POIN2 Label_5_54CF63
// 014   ----------------------------------------
 BYTE   PATT
  POIN2 Label_5_54CF63
// 015   ----------------------------------------
 BYTE   PATT
  POIN2 Label_5_54CF63
// 016   ----------------------------------------
 BYTE   PATT
  POIN2 Label_5_54CF63
// 017   ----------------------------------------
 BYTE   PATT
  POIN2 Label_5_54CF63
// 018   ----------------------------------------
 BYTE   PATT
  POIN2 Label_5_54CF63
// 019   ----------------------------------------
 BYTE   PATT
  POIN2 Label_5_54CF63
// 020   ----------------------------------------
 BYTE   PATT
  POIN2 Label_5_54CF63
// 021   ----------------------------------------
 BYTE   PATT
  POIN2 Label_5_54CF63
// 022   ----------------------------------------
 BYTE   PATT
  POIN2 Label_5_54CF63
// 023   ----------------------------------------
 BYTE   PATT
  POIN2 Label_5_54CF63
// 024   ----------------------------------------
 BYTE   PATT
  POIN2 Label_5_54CF63
// 025   ----------------------------------------
 BYTE   PATT
  POIN2 Label_5_54CF63
// 026   ----------------------------------------
 BYTE   PATT
  POIN2 Label_5_54CF63
// 027   ----------------------------------------
 BYTE   PATT
  POIN2 Label_5_54CF63
// 028   ----------------------------------------
 BYTE   PATT
  POIN2 Label_5_54CF63
// 029   ----------------------------------------
 BYTE   PATT
  POIN2 Label_5_54CF63
// 030   ----------------------------------------
 BYTE   PATT
  POIN2 Label_5_54CF63
// 031   ----------------------------------------
 BYTE   PATT
  POIN2 Label_5_54CF63
// 032   ----------------------------------------
Label_5_54CFE9:
 BYTE   N06  FnM2  v104
 BYTE   N06  FnM1
 BYTE   W24
 BYTE   FnM2
 BYTE   N06  FnM1
 BYTE   W24
 BYTE   FnM2
 BYTE   N06  FnM1
 BYTE   W24
 BYTE   FnM2
 BYTE   N06  FnM1
 BYTE   W24
 BYTE   PEND 
// 033   ----------------------------------------
 BYTE   PATT
  POIN2 Label_5_54CFE9
// 034   ----------------------------------------
 BYTE   PATT
  POIN2 Label_5_54CFE9
// 035   ----------------------------------------
 BYTE   PATT
  POIN2 Label_5_54CFE9
// 036   ----------------------------------------
 BYTE   PATT
  POIN2 Label_5_54CFE9
// 037   ----------------------------------------
 BYTE   PATT
  POIN2 Label_5_54CFE9
// 038   ----------------------------------------
 BYTE   PATT
  POIN2 Label_5_54CFE9
// 039   ----------------------------------------
 BYTE   PATT
  POIN2 Label_5_54CFE9
// 040   ----------------------------------------
 BYTE   W96
// 041   ----------------------------------------
 BYTE   W96
// 042   ----------------------------------------
 BYTE   W96
// 043   ----------------------------------------
 BYTE   W96
// 044   ----------------------------------------
 BYTE   W96
// 045   ----------------------------------------
 BYTE   W96
// 046   ----------------------------------------
 BYTE   W96
// 047   ----------------------------------------
 BYTE   W96
// 048   ----------------------------------------
 BYTE   W96
// 049   ----------------------------------------
 BYTE   W96
// 050   ----------------------------------------
 BYTE   PATT
  POIN2 Label_5_54CF63
// 051   ----------------------------------------
 BYTE   PATT
  POIN2 Label_5_54CF63
// 052   ----------------------------------------
 BYTE   PATT
  POIN2 Label_5_54CF63
// 053   ----------------------------------------
 BYTE   PATT
  POIN2 Label_5_54CF63
// 054   ----------------------------------------
 BYTE   PATT
  POIN2 Label_5_54CF32
// 055   ----------------------------------------
 BYTE   PATT
  POIN2 Label_5_54CF32
// 056   ----------------------------------------
 BYTE   PATT
  POIN2 Label_5_54CF32
// 057   ----------------------------------------
 BYTE   PATT
  POIN2 Label_5_54CF32
// 058   ----------------------------------------
 BYTE   PATT
  POIN2 Label_5_54CF32
// 059   ----------------------------------------
 BYTE   PATT
  POIN2 Label_5_54CF32
// 060   ----------------------------------------
 BYTE   PATT
  POIN2 Label_5_54CF32
// 061   ----------------------------------------
 BYTE   PATT
  POIN2 Label_5_54CF32
// 062   ----------------------------------------
 BYTE   PATT
  POIN2 Label_5_54CF63
// 063   ----------------------------------------
 BYTE   PATT
  POIN2 Label_5_54CF63
// 064   ----------------------------------------
 BYTE   PATT
  POIN2 Label_5_54CF63
// 065   ----------------------------------------
 BYTE   PATT
  POIN2 Label_5_54CF63
// 066   ----------------------------------------
 BYTE   PATT
  POIN2 Label_5_54CF63
// 067   ----------------------------------------
 BYTE   PATT
  POIN2 Label_5_54CF63
// 068   ----------------------------------------
 BYTE   PATT
  POIN2 Label_5_54CF63
// 069   ----------------------------------------
 BYTE   PATT
  POIN2 Label_5_54CF63
// 070   ----------------------------------------
 BYTE   PATT
  POIN2 Label_5_54CF63
// 071   ----------------------------------------
 BYTE   PATT
  POIN2 Label_5_54CF63
// 072   ----------------------------------------
 BYTE   PATT
  POIN2 Label_5_54CF63
// 073   ----------------------------------------
 BYTE   PATT
  POIN2 Label_5_54CF63
// 074   ----------------------------------------
 BYTE   PATT
  POIN2 Label_5_54CF63
// 075   ----------------------------------------
 BYTE   PATT
  POIN2 Label_5_54CF63
// 076   ----------------------------------------
 BYTE   PATT
  POIN2 Label_5_54CF63
// 077   ----------------------------------------
 BYTE   PATT
  POIN2 Label_5_54CF63
// 078   ----------------------------------------
 BYTE   PATT
  POIN2 Label_5_54CF63
// 079   ----------------------------------------
 BYTE   PATT
  POIN2 Label_5_54CF63
// 080   ----------------------------------------
 BYTE   PATT
  POIN2 Label_5_54CF63
// 081   ----------------------------------------
 BYTE   PATT
  POIN2 Label_5_54CF63
// 082   ----------------------------------------
 BYTE   PATT
  POIN2 Label_5_54CF63
// 083   ----------------------------------------
 BYTE   PATT
  POIN2 Label_5_54CF63
// 084   ----------------------------------------
 BYTE   PATT
  POIN2 Label_5_54CF63
// 085   ----------------------------------------
 BYTE   PATT
  POIN2 Label_5_54CF63
// 086   ----------------------------------------
 BYTE   PATT
  POIN2 Label_5_54CFE9
// 087   ----------------------------------------
 BYTE   PATT
  POIN2 Label_5_54CFE9
// 088   ----------------------------------------
 BYTE   PATT
  POIN2 Label_5_54CFE9
// 089   ----------------------------------------
 BYTE   PATT
  POIN2 Label_5_54CFE9
// 090   ----------------------------------------
 BYTE   PATT
  POIN2 Label_5_54CFE9
// 091   ----------------------------------------
 BYTE   PATT
  POIN2 Label_5_54CFE9
// 092   ----------------------------------------
 BYTE   PATT
  POIN2 Label_5_54CFE9
// 093   ----------------------------------------
 BYTE   PATT
  POIN2 Label_5_54CFE9
// 094   ----------------------------------------
 BYTE   GoTo
  POIN2 Label_5_54CF63
// 095   ----------------------------------------
 BYTE   W96
// 096   ----------------------------------------
 BYTE   W96
// 097   ----------------------------------------
 BYTE   W96
// 098   ----------------------------------------
 BYTE   W96
// 099   ----------------------------------------
 BYTE   W96
// 100   ----------------------------------------
 BYTE   W96
// 101   ----------------------------------------
 BYTE   W96
// 102   ----------------------------------------
 BYTE   W96
// 103   ----------------------------------------
 BYTE   W96
// 104   ----------------------------------------
 BYTE   W96
// 105   ----------------------------------------
 BYTE   PATT
  POIN2 Label_5_54CF63
// 106   ----------------------------------------
 BYTE   PATT
  POIN2 Label_5_54CF63
// 107   ----------------------------------------
 BYTE   PATT
  POIN2 Label_5_54CF63
// 108   ----------------------------------------
 BYTE   N06  GnM1  v127
 BYTE   N06  Gn0
 BYTE   W24
 BYTE   GnM1
 BYTE   N06  Gn0
 BYTE   W24
 BYTE   GnM1
 BYTE   N06  Gn0
 BYTE   W24
 BYTE   GnM1
 BYTE   N06  Gn0
 BYTE   W18
 BYTE   FINE

//**************** Track 7 (Midi-Chn.6) ****************//

DKC2CrocodileCacophonyMeatOfJustice_007:
// 000   ----------------------------------------
 BYTE   KEYSH   DKC2CrocodileCacophonyMeatOfJustice_key+0
 BYTE   VOICE   30
 BYTE   VOL   24*DKC2CrocodileCacophonyMeatOfJustice_mvl/mxv
 BYTE   PAN   c_v+50
 BYTE   W12
 BYTE   N06  FnM2  v127
 BYTE   N06  FnM1
 BYTE   W24
 BYTE   FnM2
 BYTE   N06  FnM1
 BYTE   W24
 BYTE   FnM2
 BYTE   N06  FnM1
 BYTE   W24
 BYTE   FnM2
 BYTE   N06  FnM1
 BYTE   W12
// 001   ----------------------------------------
Label_6_014DCB07:
 BYTE   W12
 BYTE   N06  FnM2  v127
 BYTE   N06  FnM1
 BYTE   W24
 BYTE   FnM2
 BYTE   N06  FnM1
 BYTE   W24
 BYTE   FnM2
 BYTE   N06  FnM1
 BYTE   W24
 BYTE   FnM2
 BYTE   N06  FnM1
 BYTE   W12
 BYTE   PEND 
// 002   ----------------------------------------
 BYTE   PATT
  POIN2 Label_6_014DCB07
// 003   ----------------------------------------
 BYTE   PATT
  POIN2 Label_6_014DCB07
// 004   ----------------------------------------
 BYTE   PATT
  POIN2 Label_6_014DCB07
// 005   ----------------------------------------
 BYTE   PATT
  POIN2 Label_6_014DCB07
// 006   ----------------------------------------
 BYTE   PATT
  POIN2 Label_6_014DCB07
// 007   ----------------------------------------
 BYTE   PATT
  POIN2 Label_6_014DCB07
// 008   ----------------------------------------
Label_6_014DCB39:
 BYTE   W12
 BYTE   N06  GnM1  v127
 BYTE   N06  Gn0
 BYTE   W24
 BYTE   GnM1
 BYTE   N06  Gn0
 BYTE   W24
 BYTE   GnM1
 BYTE   N06  Gn0
 BYTE   W24
 BYTE   GnM1
 BYTE   N06  Gn0
 BYTE   W12
 BYTE   PEND 
// 009   ----------------------------------------
 BYTE   PATT
  POIN2 Label_6_014DCB39
// 010   ----------------------------------------
 BYTE   PATT
  POIN2 Label_6_014DCB39
// 011   ----------------------------------------
 BYTE   PATT
  POIN2 Label_6_014DCB39
// 012   ----------------------------------------
 BYTE   PATT
  POIN2 Label_6_014DCB39
// 013   ----------------------------------------
 BYTE   PATT
  POIN2 Label_6_014DCB39
// 014   ----------------------------------------
 BYTE   PATT
  POIN2 Label_6_014DCB39
// 015   ----------------------------------------
 BYTE   PATT
  POIN2 Label_6_014DCB39
// 016   ----------------------------------------
 BYTE   PATT
  POIN2 Label_6_014DCB39
// 017   ----------------------------------------
 BYTE   PATT
  POIN2 Label_6_014DCB39
// 018   ----------------------------------------
 BYTE   PATT
  POIN2 Label_6_014DCB39
// 019   ----------------------------------------
 BYTE   PATT
  POIN2 Label_6_014DCB39
// 020   ----------------------------------------
 BYTE   PATT
  POIN2 Label_6_014DCB39
// 021   ----------------------------------------
 BYTE   PATT
  POIN2 Label_6_014DCB39
// 022   ----------------------------------------
 BYTE   PATT
  POIN2 Label_6_014DCB39
// 023   ----------------------------------------
 BYTE   PATT
  POIN2 Label_6_014DCB39
// 024   ----------------------------------------
 BYTE   PATT
  POIN2 Label_6_014DCB39
// 025   ----------------------------------------
 BYTE   PATT
  POIN2 Label_6_014DCB39
// 026   ----------------------------------------
 BYTE   PATT
  POIN2 Label_6_014DCB39
// 027   ----------------------------------------
 BYTE   PATT
  POIN2 Label_6_014DCB39
// 028   ----------------------------------------
 BYTE   PATT
  POIN2 Label_6_014DCB39
// 029   ----------------------------------------
 BYTE   PATT
  POIN2 Label_6_014DCB39
// 030   ----------------------------------------
 BYTE   PATT
  POIN2 Label_6_014DCB39
// 031   ----------------------------------------
 BYTE   PATT
  POIN2 Label_6_014DCB39
// 032   ----------------------------------------
Label_6_014DCBC0:
 BYTE   W12
 BYTE   N06  FnM2  v104
 BYTE   N06  FnM1
 BYTE   W24
 BYTE   FnM2
 BYTE   N06  FnM1
 BYTE   W24
 BYTE   FnM2
 BYTE   N06  FnM1
 BYTE   W24
 BYTE   FnM2
 BYTE   N06  FnM1
 BYTE   W12
 BYTE   PEND 
// 033   ----------------------------------------
 BYTE   PATT
  POIN2 Label_6_014DCBC0
// 034   ----------------------------------------
 BYTE   PATT
  POIN2 Label_6_014DCBC0
// 035   ----------------------------------------
 BYTE   PATT
  POIN2 Label_6_014DCBC0
// 036   ----------------------------------------
 BYTE   PATT
  POIN2 Label_6_014DCBC0
// 037   ----------------------------------------
 BYTE   PATT
  POIN2 Label_6_014DCBC0
// 038   ----------------------------------------
 BYTE   PATT
  POIN2 Label_6_014DCBC0
// 039   ----------------------------------------
 BYTE   PATT
  POIN2 Label_6_014DCBC0
// 040   ----------------------------------------
 BYTE   W96
// 041   ----------------------------------------
 BYTE   W96
// 042   ----------------------------------------
 BYTE   W96
// 043   ----------------------------------------
 BYTE   W96
// 044   ----------------------------------------
 BYTE   W96
// 045   ----------------------------------------
 BYTE   W96
// 046   ----------------------------------------
 BYTE   W96
// 047   ----------------------------------------
 BYTE   W96
// 048   ----------------------------------------
 BYTE   W96
// 049   ----------------------------------------
 BYTE   W96
// 050   ----------------------------------------
 BYTE   PATT
  POIN2 Label_6_014DCB39
// 051   ----------------------------------------
 BYTE   PATT
  POIN2 Label_6_014DCB39
// 052   ----------------------------------------
 BYTE   PATT
  POIN2 Label_6_014DCB39
// 053   ----------------------------------------
 BYTE   PATT
  POIN2 Label_6_014DCB39
// 054   ----------------------------------------
 BYTE   PATT
  POIN2 Label_6_014DCB07
// 055   ----------------------------------------
 BYTE   PATT
  POIN2 Label_6_014DCB07
// 056   ----------------------------------------
 BYTE   PATT
  POIN2 Label_6_014DCB07
// 057   ----------------------------------------
 BYTE   PATT
  POIN2 Label_6_014DCB07
// 058   ----------------------------------------
 BYTE   PATT
  POIN2 Label_6_014DCB07
// 059   ----------------------------------------
 BYTE   PATT
  POIN2 Label_6_014DCB07
// 060   ----------------------------------------
 BYTE   PATT
  POIN2 Label_6_014DCB07
// 061   ----------------------------------------
 BYTE   PATT
  POIN2 Label_6_014DCB07
// 062   ----------------------------------------
 BYTE   PATT
  POIN2 Label_6_014DCB39
// 063   ----------------------------------------
 BYTE   PATT
  POIN2 Label_6_014DCB39
// 064   ----------------------------------------
 BYTE   PATT
  POIN2 Label_6_014DCB39
// 065   ----------------------------------------
 BYTE   PATT
  POIN2 Label_6_014DCB39
// 066   ----------------------------------------
 BYTE   PATT
  POIN2 Label_6_014DCB39
// 067   ----------------------------------------
 BYTE   PATT
  POIN2 Label_6_014DCB39
// 068   ----------------------------------------
 BYTE   PATT
  POIN2 Label_6_014DCB39
// 069   ----------------------------------------
 BYTE   PATT
  POIN2 Label_6_014DCB39
// 070   ----------------------------------------
 BYTE   PATT
  POIN2 Label_6_014DCB39
// 071   ----------------------------------------
 BYTE   PATT
  POIN2 Label_6_014DCB39
// 072   ----------------------------------------
 BYTE   PATT
  POIN2 Label_6_014DCB39
// 073   ----------------------------------------
 BYTE   PATT
  POIN2 Label_6_014DCB39
// 074   ----------------------------------------
 BYTE   PATT
  POIN2 Label_6_014DCB39
// 075   ----------------------------------------
 BYTE   PATT
  POIN2 Label_6_014DCB39
// 076   ----------------------------------------
 BYTE   PATT
  POIN2 Label_6_014DCB39
// 077   ----------------------------------------
 BYTE   PATT
  POIN2 Label_6_014DCB39
// 078   ----------------------------------------
 BYTE   PATT
  POIN2 Label_6_014DCB39
// 079   ----------------------------------------
 BYTE   PATT
  POIN2 Label_6_014DCB39
// 080   ----------------------------------------
 BYTE   PATT
  POIN2 Label_6_014DCB39
// 081   ----------------------------------------
 BYTE   PATT
  POIN2 Label_6_014DCB39
// 082   ----------------------------------------
 BYTE   PATT
  POIN2 Label_6_014DCB39
// 083   ----------------------------------------
 BYTE   PATT
  POIN2 Label_6_014DCB39
// 084   ----------------------------------------
 BYTE   PATT
  POIN2 Label_6_014DCB39
// 085   ----------------------------------------
 BYTE   PATT
  POIN2 Label_6_014DCB39
// 086   ----------------------------------------
 BYTE   PATT
  POIN2 Label_6_014DCBC0
// 087   ----------------------------------------
 BYTE   PATT
  POIN2 Label_6_014DCBC0
// 088   ----------------------------------------
 BYTE   PATT
  POIN2 Label_6_014DCBC0
// 089   ----------------------------------------
 BYTE   PATT
  POIN2 Label_6_014DCBC0
// 090   ----------------------------------------
 BYTE   PATT
  POIN2 Label_6_014DCBC0
// 091   ----------------------------------------
 BYTE   PATT
  POIN2 Label_6_014DCBC0
// 092   ----------------------------------------
 BYTE   PATT
  POIN2 Label_6_014DCBC0
// 093   ----------------------------------------
 BYTE   PATT
  POIN2 Label_6_014DCBC0
// 094   ----------------------------------------
 BYTE   GoTo
  POIN2 Label_6_014DCB39
// 095   ----------------------------------------
 BYTE   W96
// 096   ----------------------------------------
 BYTE   W96
// 097   ----------------------------------------
 BYTE   W96
// 098   ----------------------------------------
 BYTE   W96
// 099   ----------------------------------------
 BYTE   W96
// 100   ----------------------------------------
 BYTE   W96
// 101   ----------------------------------------
 BYTE   W96
// 102   ----------------------------------------
 BYTE   W96
// 103   ----------------------------------------
 BYTE   W96
// 104   ----------------------------------------
 BYTE   W96
// 105   ----------------------------------------
 BYTE   PATT
  POIN2 Label_6_014DCB39
// 106   ----------------------------------------
 BYTE   PATT
  POIN2 Label_6_014DCB39
// 107   ----------------------------------------
 BYTE   PATT
  POIN2 Label_6_014DCB39
// 108   ----------------------------------------
 BYTE   W12
 BYTE   N06  GnM1  v127
 BYTE   N06  Gn0
 BYTE   W24
 BYTE   GnM1
 BYTE   N06  Gn0
 BYTE   W24
 BYTE   GnM1
 BYTE   N06  Gn0
 BYTE   W24
 BYTE   GnM1
 BYTE   N06  Gn0
 BYTE   W06
 BYTE   FINE

//**************** Track 8 (Midi-Chn.7) ****************//

DKC2CrocodileCacophonyMeatOfJustice_008:
// 000   ----------------------------------------
 BYTE   KEYSH   DKC2CrocodileCacophonyMeatOfJustice_key+0
 BYTE   VOICE   48
 BYTE   VOL   56*DKC2CrocodileCacophonyMeatOfJustice_mvl/mxv
 BYTE   PAN   c_v+40
 BYTE   W96
// 001   ----------------------------------------
 BYTE   W96
// 002   ----------------------------------------
 BYTE   W96
// 003   ----------------------------------------
 BYTE   W96
// 004   ----------------------------------------
 BYTE   W96
// 005   ----------------------------------------
 BYTE   W96
// 006   ----------------------------------------
 BYTE   W96
// 007   ----------------------------------------
 BYTE   W96
// 008   ----------------------------------------
Label_7_014DD7B0:
 BYTE   W96
// 009   ----------------------------------------
 BYTE   W96
// 010   ----------------------------------------
 BYTE   W96
// 011   ----------------------------------------
 BYTE   W96
// 012   ----------------------------------------
 BYTE   W96
// 013   ----------------------------------------
 BYTE   W96
// 014   ----------------------------------------
 BYTE   W96
// 015   ----------------------------------------
 BYTE   W96
// 016   ----------------------------------------
Label_7_014DD7B8:
 BYTE   N12  Ds3  v127
 BYTE   W24
 BYTE   Dn3
 BYTE   W24
 BYTE   As2
 BYTE   W24
 BYTE   Ds3
 BYTE   W24
 BYTE   PEND 
// 017   ----------------------------------------
Label_7_014DD7C3:
 BYTE   N12  Dn3  v127
 BYTE   W24
 BYTE   As2
 BYTE   W24
 BYTE   Ds3
 BYTE   W24
 BYTE   Dn3
 BYTE   W24
 BYTE   PEND 
// 018   ----------------------------------------
 BYTE   PATT
  POIN2 Label_7_014DD7B8
// 019   ----------------------------------------
Label_7_014DD7D3:
 BYTE   N12  Dn3  v127
 BYTE   W24
 BYTE   As2
 BYTE   W24
 BYTE   Fn3
 BYTE   W24
 BYTE   Dn3
 BYTE   W24
 BYTE   PEND 
// 020   ----------------------------------------
Label_7_014DD7DE:
 BYTE   N12  Ds3  v127
 BYTE   W24
 BYTE   Dn3
 BYTE   W24
 BYTE   An2
 BYTE   W24
 BYTE   Ds3
 BYTE   W24
 BYTE   PEND 
// 021   ----------------------------------------
Label_7_014DD7E9:
 BYTE   N12  Dn3  v127
 BYTE   W24
 BYTE   An2
 BYTE   W24
 BYTE   Ds3
 BYTE   W24
 BYTE   Dn3
 BYTE   W24
 BYTE   PEND 
// 022   ----------------------------------------
 BYTE   PATT
  POIN2 Label_7_014DD7DE
// 023   ----------------------------------------
Label_7_014DD7F9:
 BYTE   N12  Dn3  v127
 BYTE   W24
 BYTE   An2
 BYTE   W24
 BYTE   Fn3
 BYTE   W24
 BYTE   Dn3
 BYTE   W24
 BYTE   PEND 
// 024   ----------------------------------------
 BYTE   W96
// 025   ----------------------------------------
 BYTE   W96
// 026   ----------------------------------------
 BYTE   W96
// 027   ----------------------------------------
 BYTE   W96
// 028   ----------------------------------------
 BYTE   W96
// 029   ----------------------------------------
 BYTE   W96
// 030   ----------------------------------------
 BYTE   W96
// 031   ----------------------------------------
 BYTE   W96
// 032   ----------------------------------------
Label_7_014DD80C:
 BYTE   N32  Dn2  v127
 BYTE   W36
 BYTE   N12
 BYTE   W12
 BYTE   N24  Fn2
 BYTE   W24
 BYTE   Gn2
 BYTE   W24
 BYTE   PEND 
// 033   ----------------------------------------
Label_7_014DD818:
 BYTE   N48  An2  v127
 BYTE   W72
 BYTE   N24  Fn2
 BYTE   W24
 BYTE   PEND 
// 034   ----------------------------------------
Label_7_014DD820:
 BYTE   N24  Gn2  v127
 BYTE   W36
 BYTE   N12
 BYTE   W12
 BYTE   N24  Fn2
 BYTE   W24
 BYTE   Gn2
 BYTE   W24
 BYTE   PEND 
// 035   ----------------------------------------
Label_7_014DD82C:
 BYTE   N24  An2  v127
 BYTE   W24
 BYTE   Fn2
 BYTE   W24
 BYTE   N48  Dn2
 BYTE   W48
 BYTE   PEND 
// 036   ----------------------------------------
 BYTE   PATT
  POIN2 Label_7_014DD80C
// 037   ----------------------------------------
 BYTE   PATT
  POIN2 Label_7_014DD818
// 038   ----------------------------------------
Label_7_014DD840:
 BYTE   N24  Gn2  v127
 BYTE   W24
 BYTE   N24
 BYTE   W24
 BYTE   Fn2
 BYTE   W24
 BYTE   En2
 BYTE   W24
 BYTE   PEND 
// 039   ----------------------------------------
 BYTE   N48  Dn2
 BYTE   W96
// 040   ----------------------------------------
 BYTE   W96
// 041   ----------------------------------------
 BYTE   W96
// 042   ----------------------------------------
 BYTE   W96
// 043   ----------------------------------------
 BYTE   W96
// 044   ----------------------------------------
 BYTE   W96
// 045   ----------------------------------------
 BYTE   W96
// 046   ----------------------------------------
 BYTE   W96
// 047   ----------------------------------------
 BYTE   W96
// 048   ----------------------------------------
 BYTE   W96
// 049   ----------------------------------------
 BYTE   W96
// 050   ----------------------------------------
 BYTE   W96
// 051   ----------------------------------------
 BYTE   W96
// 052   ----------------------------------------
 BYTE   W96
// 053   ----------------------------------------
 BYTE   W96
// 054   ----------------------------------------
 BYTE   W96
// 055   ----------------------------------------
 BYTE   W96
// 056   ----------------------------------------
 BYTE   W96
// 057   ----------------------------------------
 BYTE   W96
// 058   ----------------------------------------
 BYTE   W96
// 059   ----------------------------------------
 BYTE   W96
// 060   ----------------------------------------
 BYTE   W96
// 061   ----------------------------------------
 BYTE   W96
// 062   ----------------------------------------
 BYTE   W96
// 063   ----------------------------------------
 BYTE   W96
// 064   ----------------------------------------
 BYTE   W96
// 065   ----------------------------------------
 BYTE   W96
// 066   ----------------------------------------
 BYTE   W96
// 067   ----------------------------------------
 BYTE   W96
// 068   ----------------------------------------
 BYTE   W96
// 069   ----------------------------------------
 BYTE   W96
// 070   ----------------------------------------
 BYTE   PATT
  POIN2 Label_7_014DD7B8
// 071   ----------------------------------------
 BYTE   PATT
  POIN2 Label_7_014DD7C3
// 072   ----------------------------------------
 BYTE   PATT
  POIN2 Label_7_014DD7B8
// 073   ----------------------------------------
 BYTE   PATT
  POIN2 Label_7_014DD7D3
// 074   ----------------------------------------
 BYTE   PATT
  POIN2 Label_7_014DD7DE
// 075   ----------------------------------------
 BYTE   PATT
  POIN2 Label_7_014DD7E9
// 076   ----------------------------------------
 BYTE   PATT
  POIN2 Label_7_014DD7DE
// 077   ----------------------------------------
 BYTE   PATT
  POIN2 Label_7_014DD7F9
// 078   ----------------------------------------
 BYTE   W96
// 079   ----------------------------------------
 BYTE   W96
// 080   ----------------------------------------
 BYTE   W96
// 081   ----------------------------------------
 BYTE   W96
// 082   ----------------------------------------
 BYTE   W96
// 083   ----------------------------------------
 BYTE   W96
// 084   ----------------------------------------
 BYTE   W96
// 085   ----------------------------------------
 BYTE   W96
// 086   ----------------------------------------
 BYTE   PATT
  POIN2 Label_7_014DD80C
// 087   ----------------------------------------
 BYTE   PATT
  POIN2 Label_7_014DD818
// 088   ----------------------------------------
 BYTE   PATT
  POIN2 Label_7_014DD820
// 089   ----------------------------------------
 BYTE   PATT
  POIN2 Label_7_014DD82C
// 090   ----------------------------------------
 BYTE   PATT
  POIN2 Label_7_014DD80C
// 091   ----------------------------------------
 BYTE   PATT
  POIN2 Label_7_014DD818
// 092   ----------------------------------------
 BYTE   PATT
  POIN2 Label_7_014DD840
// 093   ----------------------------------------
 BYTE   N48  Dn2  v127
 BYTE   W96
// 094   ----------------------------------------
 BYTE   GoTo
  POIN2 Label_7_014DD7B0
// 095   ----------------------------------------
 BYTE   W96
// 096   ----------------------------------------
 BYTE   W96
// 097   ----------------------------------------
 BYTE   W96
// 098   ----------------------------------------
 BYTE   W96
// 099   ----------------------------------------
 BYTE   W96
// 100   ----------------------------------------
 BYTE   W96
// 101   ----------------------------------------
 BYTE   W96
// 102   ----------------------------------------
 BYTE   W96
// 103   ----------------------------------------
 BYTE   W96
// 104   ----------------------------------------
 BYTE   W96
// 105   ----------------------------------------
 BYTE   W96
// 106   ----------------------------------------
 BYTE   W96
// 107   ----------------------------------------
 BYTE   W96
// 108   ----------------------------------------
 BYTE   W90
 BYTE   FINE

//**************** Track 9 (Midi-Chn.8) ****************//

DKC2CrocodileCacophonyMeatOfJustice_009:
// 000   ----------------------------------------
 BYTE   KEYSH   DKC2CrocodileCacophonyMeatOfJustice_key+0
 BYTE   VOICE   48
 BYTE   VOL   32*DKC2CrocodileCacophonyMeatOfJustice_mvl/mxv
 BYTE   PAN   c_v-40
 BYTE   W96
// 001   ----------------------------------------
 BYTE   W96
// 002   ----------------------------------------
 BYTE   W96
// 003   ----------------------------------------
 BYTE   W96
// 004   ----------------------------------------
 BYTE   W96
// 005   ----------------------------------------
 BYTE   W96
// 006   ----------------------------------------
 BYTE   W96
// 007   ----------------------------------------
 BYTE   W96
// 008   ----------------------------------------
Label_8_014DCFE4:
 BYTE   W96
// 009   ----------------------------------------
 BYTE   W96
// 010   ----------------------------------------
 BYTE   W96
// 011   ----------------------------------------
 BYTE   W96
// 012   ----------------------------------------
 BYTE   W96
// 013   ----------------------------------------
 BYTE   W96
// 014   ----------------------------------------
 BYTE   W96
// 015   ----------------------------------------
 BYTE   W96
// 016   ----------------------------------------
Label_8_014DCFEC:
 BYTE   W12
 BYTE   N12  Ds3  v127
 BYTE   W24
 BYTE   Dn3
 BYTE   W24
 BYTE   As2
 BYTE   W24
 BYTE   Ds3
 BYTE   W12
 BYTE   PEND 
// 017   ----------------------------------------
Label_8_014DCFF8:
 BYTE   W12
 BYTE   N12  Dn3  v127
 BYTE   W24
 BYTE   As2
 BYTE   W24
 BYTE   Ds3
 BYTE   W24
 BYTE   Dn3
 BYTE   W12
 BYTE   PEND 
// 018   ----------------------------------------
 BYTE   PATT
  POIN2 Label_8_014DCFEC
// 019   ----------------------------------------
Label_8_014DD009:
 BYTE   W12
 BYTE   N12  Dn3  v127
 BYTE   W24
 BYTE   As2
 BYTE   W24
 BYTE   Fn3
 BYTE   W24
 BYTE   Dn3
 BYTE   W12
 BYTE   PEND 
// 020   ----------------------------------------
Label_8_014DD015:
 BYTE   W12
 BYTE   N12  Ds3  v127
 BYTE   W24
 BYTE   Dn3
 BYTE   W24
 BYTE   An2
 BYTE   W24
 BYTE   Ds3
 BYTE   W12
 BYTE   PEND 
// 021   ----------------------------------------
Label_8_014DD021:
 BYTE   W12
 BYTE   N12  Dn3  v127
 BYTE   W24
 BYTE   An2
 BYTE   W24
 BYTE   Ds3
 BYTE   W24
 BYTE   Dn3
 BYTE   W12
 BYTE   PEND 
// 022   ----------------------------------------
 BYTE   PATT
  POIN2 Label_8_014DD015
// 023   ----------------------------------------
Label_8_014DD032:
 BYTE   W12
 BYTE   N12  Dn3  v127
 BYTE   W24
 BYTE   An2
 BYTE   W24
 BYTE   Fn3
 BYTE   W24
 BYTE   Dn3
 BYTE   W12
 BYTE   PEND 
// 024   ----------------------------------------
 BYTE   W96
// 025   ----------------------------------------
 BYTE   W96
// 026   ----------------------------------------
 BYTE   W96
// 027   ----------------------------------------
 BYTE   W96
// 028   ----------------------------------------
 BYTE   W96
// 029   ----------------------------------------
 BYTE   W96
// 030   ----------------------------------------
 BYTE   W96
// 031   ----------------------------------------
 BYTE   W96
// 032   ----------------------------------------
Label_8_014DD046:
 BYTE   W12
 BYTE   N32  Dn2  v127
 BYTE   W36
 BYTE   N12
 BYTE   W12
 BYTE   N24  Fn2
 BYTE   W24
 BYTE   Gn2
 BYTE   W12
 BYTE   PEND 
// 033   ----------------------------------------
Label_8_014DD053:
 BYTE   W12
 BYTE   N48  An2  v127
 BYTE   W72
 BYTE   N24  Fn2
 BYTE   W12
 BYTE   PEND 
// 034   ----------------------------------------
Label_8_014DD05C:
 BYTE   W12
 BYTE   N24  Gn2  v127
 BYTE   W36
 BYTE   N12
 BYTE   W12
 BYTE   N24  Fn2
 BYTE   W24
 BYTE   Gn2
 BYTE   W12
 BYTE   PEND 
// 035   ----------------------------------------
Label_8_014DD069:
 BYTE   W12
 BYTE   N24  An2  v127
 BYTE   W24
 BYTE   Fn2
 BYTE   W24
 BYTE   N48  Dn2
 BYTE   W36
 BYTE   PEND 
// 036   ----------------------------------------
 BYTE   PATT
  POIN2 Label_8_014DD046
// 037   ----------------------------------------
 BYTE   PATT
  POIN2 Label_8_014DD053
// 038   ----------------------------------------
Label_8_014DD07E:
 BYTE   W12
 BYTE   N24  Gn2  v127
 BYTE   W24
 BYTE   N24
 BYTE   W24
 BYTE   Fn2
 BYTE   W24
 BYTE   En2
 BYTE   W12
 BYTE   PEND 
// 039   ----------------------------------------
 BYTE   W12
 BYTE   N48  Dn2
 BYTE   W84
// 040   ----------------------------------------
 BYTE   W96
// 041   ----------------------------------------
 BYTE   W96
// 042   ----------------------------------------
 BYTE   W96
// 043   ----------------------------------------
 BYTE   W96
// 044   ----------------------------------------
 BYTE   W96
// 045   ----------------------------------------
 BYTE   W96
// 046   ----------------------------------------
 BYTE   W96
// 047   ----------------------------------------
 BYTE   W96
// 048   ----------------------------------------
 BYTE   W96
// 049   ----------------------------------------
 BYTE   W96
// 050   ----------------------------------------
 BYTE   W96
// 051   ----------------------------------------
 BYTE   W96
// 052   ----------------------------------------
 BYTE   W96
// 053   ----------------------------------------
 BYTE   W96
// 054   ----------------------------------------
 BYTE   W96
// 055   ----------------------------------------
 BYTE   W96
// 056   ----------------------------------------
 BYTE   W96
// 057   ----------------------------------------
 BYTE   W96
// 058   ----------------------------------------
 BYTE   W96
// 059   ----------------------------------------
 BYTE   W96
// 060   ----------------------------------------
 BYTE   W96
// 061   ----------------------------------------
 BYTE   W96
// 062   ----------------------------------------
 BYTE   W96
// 063   ----------------------------------------
 BYTE   W96
// 064   ----------------------------------------
 BYTE   W96
// 065   ----------------------------------------
 BYTE   W96
// 066   ----------------------------------------
 BYTE   W96
// 067   ----------------------------------------
 BYTE   W96
// 068   ----------------------------------------
 BYTE   W96
// 069   ----------------------------------------
 BYTE   W96
// 070   ----------------------------------------
 BYTE   PATT
  POIN2 Label_8_014DCFEC
// 071   ----------------------------------------
 BYTE   PATT
  POIN2 Label_8_014DCFF8
// 072   ----------------------------------------
 BYTE   PATT
  POIN2 Label_8_014DCFEC
// 073   ----------------------------------------
 BYTE   PATT
  POIN2 Label_8_014DD009
// 074   ----------------------------------------
 BYTE   PATT
  POIN2 Label_8_014DD015
// 075   ----------------------------------------
 BYTE   PATT
  POIN2 Label_8_014DD021
// 076   ----------------------------------------
 BYTE   PATT
  POIN2 Label_8_014DD015
// 077   ----------------------------------------
 BYTE   PATT
  POIN2 Label_8_014DD032
// 078   ----------------------------------------
 BYTE   W96
// 079   ----------------------------------------
 BYTE   W96
// 080   ----------------------------------------
 BYTE   W96
// 081   ----------------------------------------
 BYTE   W96
// 082   ----------------------------------------
 BYTE   W96
// 083   ----------------------------------------
 BYTE   W96
// 084   ----------------------------------------
 BYTE   W96
// 085   ----------------------------------------
 BYTE   W96
// 086   ----------------------------------------
 BYTE   PATT
  POIN2 Label_8_014DD046
// 087   ----------------------------------------
 BYTE   PATT
  POIN2 Label_8_014DD053
// 088   ----------------------------------------
 BYTE   PATT
  POIN2 Label_8_014DD05C
// 089   ----------------------------------------
 BYTE   PATT
  POIN2 Label_8_014DD069
// 090   ----------------------------------------
 BYTE   PATT
  POIN2 Label_8_014DD046
// 091   ----------------------------------------
 BYTE   PATT
  POIN2 Label_8_014DD053
// 092   ----------------------------------------
 BYTE   PATT
  POIN2 Label_8_014DD07E
// 093   ----------------------------------------
 BYTE   W12
 BYTE   N48  Dn2  v127
 BYTE   W84
// 094   ----------------------------------------
 BYTE   GoTo
  POIN2 Label_8_014DCFE4
// 095   ----------------------------------------
 BYTE   W96
// 096   ----------------------------------------
 BYTE   W96
// 097   ----------------------------------------
 BYTE   W96
// 098   ----------------------------------------
 BYTE   W96
// 099   ----------------------------------------
 BYTE   W96
// 100   ----------------------------------------
 BYTE   W96
// 101   ----------------------------------------
 BYTE   W96
// 102   ----------------------------------------
 BYTE   W96
// 103   ----------------------------------------
 BYTE   W96
// 104   ----------------------------------------
 BYTE   W96
// 105   ----------------------------------------
 BYTE   W96
// 106   ----------------------------------------
 BYTE   W96
// 107   ----------------------------------------
 BYTE   W96
// 108   ----------------------------------------
 BYTE   W90
 BYTE   FINE

//**************** Track 10 (Midi-Chn.9) ****************//

DKC2CrocodileCacophonyMeatOfJustice_010:
// 000   ----------------------------------------
 BYTE   KEYSH   DKC2CrocodileCacophonyMeatOfJustice_key+0
 BYTE   VOICE   119
 BYTE   VOL   32*DKC2CrocodileCacophonyMeatOfJustice_mvl/mxv
 BYTE   PAN   c_v+0
 BYTE   W96
// 001   ----------------------------------------
 BYTE   W96
// 002   ----------------------------------------
 BYTE   W96
// 003   ----------------------------------------
 BYTE   W96
// 004   ----------------------------------------
 BYTE   W96
// 005   ----------------------------------------
 BYTE   W96
// 006   ----------------------------------------
 BYTE   W96
// 007   ----------------------------------------
 BYTE   W96
// 008   ----------------------------------------
Label_9_014DD128:
 BYTE   W96
// 009   ----------------------------------------
 BYTE   W96
// 010   ----------------------------------------
 BYTE   W96
// 011   ----------------------------------------
 BYTE   W96
// 012   ----------------------------------------
 BYTE   W96
// 013   ----------------------------------------
 BYTE   W96
// 014   ----------------------------------------
 BYTE   W96
// 015   ----------------------------------------
 BYTE   W96
// 016   ----------------------------------------
 BYTE   W96
// 017   ----------------------------------------
 BYTE   W96
// 018   ----------------------------------------
 BYTE   W96
// 019   ----------------------------------------
 BYTE   W96
// 020   ----------------------------------------
 BYTE   W96
// 021   ----------------------------------------
 BYTE   W96
// 022   ----------------------------------------
 BYTE   W96
// 023   ----------------------------------------
 BYTE   W96
// 024   ----------------------------------------
 BYTE   W96
// 025   ----------------------------------------
 BYTE   W96
// 026   ----------------------------------------
 BYTE   W96
// 027   ----------------------------------------
 BYTE   W96
// 028   ----------------------------------------
 BYTE   W96
// 029   ----------------------------------------
 BYTE   W96
// 030   ----------------------------------------
 BYTE   W72
 BYTE   N80  Gn2  v127
 BYTE   W24
// 031   ----------------------------------------
 BYTE   W96
// 032   ----------------------------------------
 BYTE   W96
// 033   ----------------------------------------
 BYTE   W96
// 034   ----------------------------------------
 BYTE   W96
// 035   ----------------------------------------
 BYTE   W96
// 036   ----------------------------------------
 BYTE   W96
// 037   ----------------------------------------
 BYTE   W96
// 038   ----------------------------------------
 BYTE   W96
// 039   ----------------------------------------
 BYTE   W96
// 040   ----------------------------------------
 BYTE   W96
// 041   ----------------------------------------
 BYTE   W96
// 042   ----------------------------------------
 BYTE   W96
// 043   ----------------------------------------
 BYTE   W96
// 044   ----------------------------------------
 BYTE   W96
// 045   ----------------------------------------
 BYTE   W96
// 046   ----------------------------------------
 BYTE   W96
// 047   ----------------------------------------
 BYTE   W96
// 048   ----------------------------------------
 BYTE   W96
// 049   ----------------------------------------
 BYTE   W96
// 050   ----------------------------------------
 BYTE   W96
// 051   ----------------------------------------
 BYTE   W96
// 052   ----------------------------------------
 BYTE   W96
// 053   ----------------------------------------
 BYTE   W96
// 054   ----------------------------------------
 BYTE   W96
// 055   ----------------------------------------
 BYTE   W96
// 056   ----------------------------------------
 BYTE   W96
// 057   ----------------------------------------
 BYTE   W96
// 058   ----------------------------------------
 BYTE   W96
// 059   ----------------------------------------
 BYTE   W96
// 060   ----------------------------------------
 BYTE   W96
// 061   ----------------------------------------
 BYTE   W96
// 062   ----------------------------------------
 BYTE   W96
// 063   ----------------------------------------
 BYTE   W96
// 064   ----------------------------------------
 BYTE   W96
// 065   ----------------------------------------
 BYTE   W96
// 066   ----------------------------------------
 BYTE   W96
// 067   ----------------------------------------
 BYTE   W96
// 068   ----------------------------------------
 BYTE   W96
// 069   ----------------------------------------
 BYTE   W96
// 070   ----------------------------------------
 BYTE   W96
// 071   ----------------------------------------
 BYTE   W96
// 072   ----------------------------------------
 BYTE   W96
// 073   ----------------------------------------
 BYTE   W96
// 074   ----------------------------------------
 BYTE   W96
// 075   ----------------------------------------
 BYTE   W96
// 076   ----------------------------------------
 BYTE   W96
// 077   ----------------------------------------
 BYTE   W96
// 078   ----------------------------------------
 BYTE   W96
// 079   ----------------------------------------
 BYTE   W96
// 080   ----------------------------------------
 BYTE   W96
// 081   ----------------------------------------
 BYTE   W96
// 082   ----------------------------------------
 BYTE   W96
// 083   ----------------------------------------
 BYTE   W96
// 084   ----------------------------------------
 BYTE   W72
 BYTE   N80
 BYTE   W24
// 085   ----------------------------------------
 BYTE   W96
// 086   ----------------------------------------
 BYTE   W96
// 087   ----------------------------------------
 BYTE   W96
// 088   ----------------------------------------
 BYTE   W96
// 089   ----------------------------------------
 BYTE   W96
// 090   ----------------------------------------
 BYTE   W96
// 091   ----------------------------------------
 BYTE   W96
// 092   ----------------------------------------
 BYTE   W96
// 093   ----------------------------------------
 BYTE   W96
// 094   ----------------------------------------
 BYTE   GoTo
  POIN2 Label_9_014DD128
// 095   ----------------------------------------
 BYTE   W96
// 096   ----------------------------------------
 BYTE   W96
// 097   ----------------------------------------
 BYTE   W96
// 098   ----------------------------------------
 BYTE   W96
// 099   ----------------------------------------
 BYTE   W96
// 100   ----------------------------------------
 BYTE   W96
// 101   ----------------------------------------
 BYTE   W96
// 102   ----------------------------------------
 BYTE   W96
// 103   ----------------------------------------
 BYTE   W96
// 104   ----------------------------------------
 BYTE   W96
// 105   ----------------------------------------
 BYTE   W96
// 106   ----------------------------------------
 BYTE   W96
// 107   ----------------------------------------
 BYTE   W96
// 108   ----------------------------------------
 BYTE   W90
 BYTE   FINE

//**************** Track 11 (Midi-Chn.10) ****************//

DKC2CrocodileCacophonyMeatOfJustice_011:
// 000   ----------------------------------------
 BYTE   KEYSH   DKC2CrocodileCacophonyMeatOfJustice_key+0
 BYTE   VOICE   24
 BYTE   VOL   40*DKC2CrocodileCacophonyMeatOfJustice_mvl/mxv
 BYTE   PAN   c_v+0
 BYTE   W96
// 001   ----------------------------------------
 BYTE   W96
// 002   ----------------------------------------
 BYTE   W96
// 003   ----------------------------------------
 BYTE   W96
// 004   ----------------------------------------
 BYTE   W96
// 005   ----------------------------------------
 BYTE   W96
// 006   ----------------------------------------
 BYTE   W96
// 007   ----------------------------------------
 BYTE   W96
// 008   ----------------------------------------
Label_10_014DCD20:
 BYTE   N12  Gn0  v127
 BYTE   N12  Gn1
 BYTE   W48
 BYTE   Gn0
 BYTE   N12  Gn1
 BYTE   W48
 BYTE   PEND 
// 009   ----------------------------------------
 BYTE   PATT
  POIN2 Label_10_014DCD20
// 010   ----------------------------------------
 BYTE   PATT
  POIN2 Label_10_014DCD20
// 011   ----------------------------------------
 BYTE   PATT
  POIN2 Label_10_014DCD20
// 012   ----------------------------------------
 BYTE   PATT
  POIN2 Label_10_014DCD20
// 013   ----------------------------------------
 BYTE   PATT
  POIN2 Label_10_014DCD20
// 014   ----------------------------------------
 BYTE   PATT
  POIN2 Label_10_014DCD20
// 015   ----------------------------------------
 BYTE   PATT
  POIN2 Label_10_014DCD20
// 016   ----------------------------------------
 BYTE   PATT
  POIN2 Label_10_014DCD20
// 017   ----------------------------------------
 BYTE   PATT
  POIN2 Label_10_014DCD20
// 018   ----------------------------------------
 BYTE   PATT
  POIN2 Label_10_014DCD20
// 019   ----------------------------------------
 BYTE   PATT
  POIN2 Label_10_014DCD20
// 020   ----------------------------------------
 BYTE   PATT
  POIN2 Label_10_014DCD20
// 021   ----------------------------------------
 BYTE   PATT
  POIN2 Label_10_014DCD20
// 022   ----------------------------------------
 BYTE   PATT
  POIN2 Label_10_014DCD20
// 023   ----------------------------------------
 BYTE   PATT
  POIN2 Label_10_014DCD20
// 024   ----------------------------------------
Label_10_014DCD76:
 BYTE   N12  Gn0  v127
 BYTE   N12  Gn1
 BYTE   W12
 BYTE   Gn0
 BYTE   N12  Gn1
 BYTE   W12
 BYTE   Gn0
 BYTE   N12  Gn1
 BYTE   W12
 BYTE   Gn0
 BYTE   N12  Gn1
 BYTE   W12
 BYTE   N24  As0
 BYTE   N24  As1
 BYTE   W24
 BYTE   N12  Gn0
 BYTE   N12  Gn1
 BYTE   W24
 BYTE   PEND 
// 025   ----------------------------------------
Label_10_014DCD93:
 BYTE   W24
 BYTE   N12  Gn0  v127
 BYTE   N12  Gn1
 BYTE   W12
 BYTE   Gn0
 BYTE   N12  Gn1
 BYTE   W12
 BYTE   N24  As0
 BYTE   N24  As1
 BYTE   W48
 BYTE   PEND 
// 026   ----------------------------------------
 BYTE   PATT
  POIN2 Label_10_014DCD76
// 027   ----------------------------------------
Label_10_014DCDA9:
 BYTE   W24
 BYTE   N12  Gn0  v127
 BYTE   N12  Gn1
 BYTE   W12
 BYTE   Gn0
 BYTE   N12  Gn1
 BYTE   W12
 BYTE   N24  Fn0
 BYTE   N24  Fn1
 BYTE   W48
 BYTE   PEND 
// 028   ----------------------------------------
 BYTE   PATT
  POIN2 Label_10_014DCD76
// 029   ----------------------------------------
 BYTE   PATT
  POIN2 Label_10_014DCD93
// 030   ----------------------------------------
 BYTE   PATT
  POIN2 Label_10_014DCD76
// 031   ----------------------------------------
Label_10_014DCDC9:
 BYTE   W24
 BYTE   N12  Gn0  v127
 BYTE   N12  Gn1
 BYTE   W12
 BYTE   Gn0
 BYTE   N12  Gn1
 BYTE   W12
 BYTE   N24  An0
 BYTE   N24  An1
 BYTE   W48
 BYTE   PEND 
// 032   ----------------------------------------
 BYTE   W96
// 033   ----------------------------------------
 BYTE   W96
// 034   ----------------------------------------
 BYTE   W96
// 035   ----------------------------------------
 BYTE   W96
// 036   ----------------------------------------
 BYTE   W96
// 037   ----------------------------------------
 BYTE   W96
// 038   ----------------------------------------
 BYTE   W96
// 039   ----------------------------------------
 BYTE   W96
// 040   ----------------------------------------
 BYTE   PATT
  POIN2 Label_10_014DCD20
// 041   ----------------------------------------
 BYTE   PATT
  POIN2 Label_10_014DCD20
// 042   ----------------------------------------
 BYTE   PATT
  POIN2 Label_10_014DCD20
// 043   ----------------------------------------
 BYTE   PATT
  POIN2 Label_10_014DCD20
// 044   ----------------------------------------
 BYTE   PATT
  POIN2 Label_10_014DCD20
// 045   ----------------------------------------
 BYTE   PATT
  POIN2 Label_10_014DCD20
// 046   ----------------------------------------
 BYTE   PATT
  POIN2 Label_10_014DCD20
// 047   ----------------------------------------
 BYTE   PATT
  POIN2 Label_10_014DCD20
// 048   ----------------------------------------
 BYTE   PATT
  POIN2 Label_10_014DCD20
// 049   ----------------------------------------
 BYTE   PATT
  POIN2 Label_10_014DCD20
// 050   ----------------------------------------
 BYTE   PATT
  POIN2 Label_10_014DCD20
// 051   ----------------------------------------
 BYTE   PATT
  POIN2 Label_10_014DCD20
// 052   ----------------------------------------
 BYTE   PATT
  POIN2 Label_10_014DCD20
// 053   ----------------------------------------
 BYTE   PATT
  POIN2 Label_10_014DCD20
// 054   ----------------------------------------
 BYTE   W96
// 055   ----------------------------------------
 BYTE   W96
// 056   ----------------------------------------
 BYTE   W96
// 057   ----------------------------------------
 BYTE   W96
// 058   ----------------------------------------
 BYTE   W96
// 059   ----------------------------------------
 BYTE   W96
// 060   ----------------------------------------
 BYTE   W96
// 061   ----------------------------------------
 BYTE   W96
// 062   ----------------------------------------
 BYTE   PATT
  POIN2 Label_10_014DCD20
// 063   ----------------------------------------
 BYTE   PATT
  POIN2 Label_10_014DCD20
// 064   ----------------------------------------
 BYTE   PATT
  POIN2 Label_10_014DCD20
// 065   ----------------------------------------
 BYTE   PATT
  POIN2 Label_10_014DCD20
// 066   ----------------------------------------
 BYTE   PATT
  POIN2 Label_10_014DCD20
// 067   ----------------------------------------
 BYTE   PATT
  POIN2 Label_10_014DCD20
// 068   ----------------------------------------
 BYTE   PATT
  POIN2 Label_10_014DCD20
// 069   ----------------------------------------
 BYTE   PATT
  POIN2 Label_10_014DCD20
// 070   ----------------------------------------
 BYTE   PATT
  POIN2 Label_10_014DCD20
// 071   ----------------------------------------
 BYTE   PATT
  POIN2 Label_10_014DCD20
// 072   ----------------------------------------
 BYTE   PATT
  POIN2 Label_10_014DCD20
// 073   ----------------------------------------
 BYTE   PATT
  POIN2 Label_10_014DCD20
// 074   ----------------------------------------
 BYTE   PATT
  POIN2 Label_10_014DCD20
// 075   ----------------------------------------
 BYTE   PATT
  POIN2 Label_10_014DCD20
// 076   ----------------------------------------
 BYTE   PATT
  POIN2 Label_10_014DCD20
// 077   ----------------------------------------
 BYTE   PATT
  POIN2 Label_10_014DCD20
// 078   ----------------------------------------
 BYTE   PATT
  POIN2 Label_10_014DCD76
// 079   ----------------------------------------
 BYTE   PATT
  POIN2 Label_10_014DCD93
// 080   ----------------------------------------
 BYTE   PATT
  POIN2 Label_10_014DCD76
// 081   ----------------------------------------
 BYTE   PATT
  POIN2 Label_10_014DCDA9
// 082   ----------------------------------------
 BYTE   PATT
  POIN2 Label_10_014DCD76
// 083   ----------------------------------------
 BYTE   PATT
  POIN2 Label_10_014DCD93
// 084   ----------------------------------------
 BYTE   PATT
  POIN2 Label_10_014DCD76
// 085   ----------------------------------------
 BYTE   PATT
  POIN2 Label_10_014DCDC9
// 086   ----------------------------------------
 BYTE   W96
// 087   ----------------------------------------
 BYTE   W96
// 088   ----------------------------------------
 BYTE   W96
// 089   ----------------------------------------
 BYTE   W96
// 090   ----------------------------------------
 BYTE   W96
// 091   ----------------------------------------
 BYTE   W96
// 092   ----------------------------------------
 BYTE   W96
// 093   ----------------------------------------
 BYTE   W96
// 094   ----------------------------------------
 BYTE   GoTo
  POIN2 Label_10_014DCD20
// 095   ----------------------------------------
 BYTE   PATT
  POIN2 Label_10_014DCD20
// 096   ----------------------------------------
 BYTE   PATT
  POIN2 Label_10_014DCD20
// 097   ----------------------------------------
 BYTE   PATT
  POIN2 Label_10_014DCD20
// 098   ----------------------------------------
 BYTE   PATT
  POIN2 Label_10_014DCD20
// 099   ----------------------------------------
 BYTE   PATT
  POIN2 Label_10_014DCD20
// 100   ----------------------------------------
 BYTE   PATT
  POIN2 Label_10_014DCD20
// 101   ----------------------------------------
 BYTE   PATT
  POIN2 Label_10_014DCD20
// 102   ----------------------------------------
 BYTE   PATT
  POIN2 Label_10_014DCD20
// 103   ----------------------------------------
 BYTE   PATT
  POIN2 Label_10_014DCD20
// 104   ----------------------------------------
 BYTE   PATT
  POIN2 Label_10_014DCD20
// 105   ----------------------------------------
 BYTE   PATT
  POIN2 Label_10_014DCD20
// 106   ----------------------------------------
 BYTE   PATT
  POIN2 Label_10_014DCD20
// 107   ----------------------------------------
 BYTE   PATT
  POIN2 Label_10_014DCD20
// 108   ----------------------------------------
 BYTE   N12  Gn0  v127
 BYTE   N12  Gn1
 BYTE   W48
 BYTE   Gn0
 BYTE   N12  Gn1
 BYTE   W42
 BYTE   FINE

//**************** Track 12 (Midi-Chn.11) ****************//

DKC2CrocodileCacophonyMeatOfJustice_012:
// 000   ----------------------------------------
 BYTE   KEYSH   DKC2CrocodileCacophonyMeatOfJustice_key+0
 BYTE   VOICE   103
 BYTE   VOL   40*DKC2CrocodileCacophonyMeatOfJustice_mvl/mxv
 BYTE   PAN   c_v-40
 BYTE   W96
// 001   ----------------------------------------
 BYTE   W96
// 002   ----------------------------------------
 BYTE   W96
// 003   ----------------------------------------
 BYTE   W96
// 004   ----------------------------------------
 BYTE   W96
// 005   ----------------------------------------
 BYTE   W96
// 006   ----------------------------------------
 BYTE   W96
// 007   ----------------------------------------
 BYTE   W96
// 008   ----------------------------------------
Label_11_014DD1C4:
 BYTE   W96
// 009   ----------------------------------------
 BYTE   W96
// 010   ----------------------------------------
 BYTE   W96
// 011   ----------------------------------------
 BYTE   W96
// 012   ----------------------------------------
 BYTE   W96
// 013   ----------------------------------------
 BYTE   W96
// 014   ----------------------------------------
 BYTE   W96
// 015   ----------------------------------------
 BYTE   W96
// 016   ----------------------------------------
 BYTE   W96
// 017   ----------------------------------------
 BYTE   W96
// 018   ----------------------------------------
 BYTE   W96
// 019   ----------------------------------------
 BYTE   W96
// 020   ----------------------------------------
 BYTE   W96
// 021   ----------------------------------------
 BYTE   W96
// 022   ----------------------------------------
 BYTE   W96
// 023   ----------------------------------------
 BYTE   W96
// 024   ----------------------------------------
 BYTE   W96
// 025   ----------------------------------------
 BYTE   W96
// 026   ----------------------------------------
 BYTE   W96
// 027   ----------------------------------------
 BYTE   W96
// 028   ----------------------------------------
 BYTE   W96
// 029   ----------------------------------------
 BYTE   W96
// 030   ----------------------------------------
 BYTE   W96
// 031   ----------------------------------------
 BYTE   W96
// 032   ----------------------------------------
 BYTE   W96
// 033   ----------------------------------------
 BYTE   W96
// 034   ----------------------------------------
 BYTE   W96
// 035   ----------------------------------------
 BYTE   W96
// 036   ----------------------------------------
 BYTE   W96
// 037   ----------------------------------------
 BYTE   W96
// 038   ----------------------------------------
 BYTE   W96
// 039   ----------------------------------------
 BYTE   W96
// 040   ----------------------------------------
Label_11_014DD1E4:
 BYTE   W24
 BYTE   N48  Dn2  v127
 BYTE   W48
 BYTE   N24
 BYTE   W24
 BYTE   PEND 
// 041   ----------------------------------------
Label_11_014DD1EC:
 BYTE   N48  Dn2  v127
 BYTE   W72
 BYTE   N12  Cn2
 BYTE   W12
 BYTE   As1
 BYTE   W12
 BYTE   PEND 
// 042   ----------------------------------------
Label_11_014DD1F6:
 BYTE   N48  An1  v127
 BYTE   W48
 BYTE   N24  As1
 BYTE   W24
 BYTE   An1
 BYTE   W24
 BYTE   PEND 
// 043   ----------------------------------------
Label_11_014DD200:
 BYTE   N24  As1  v127
 BYTE   W24
 BYTE   An1
 BYTE   W24
 BYTE   N72  Gn1
 BYTE   W48
 BYTE   PEND 
// 044   ----------------------------------------
 BYTE   PATT
  POIN2 Label_11_014DD1E4
// 045   ----------------------------------------
 BYTE   PATT
  POIN2 Label_11_014DD1EC
// 046   ----------------------------------------
Label_11_014DD214:
 BYTE   N32  An1  v127
 BYTE   W36
 BYTE   N12
 BYTE   W12
 BYTE   N24  As1
 BYTE   W24
 BYTE   N72  An1
 BYTE   W24
 BYTE   PEND 
// 047   ----------------------------------------
Label_11_014DD221:
 BYTE   W48
 BYTE   N24  Cn2  v127
 BYTE   W24
 BYTE   As1
 BYTE   W24
 BYTE   PEND 
// 048   ----------------------------------------
Label_11_014DD229:
 BYTE   N32  An1  v127
 BYTE   W36
 BYTE   N12
 BYTE   W12
 BYTE   N24  As1
 BYTE   W24
 BYTE   N48  Cn2
 BYTE   W24
 BYTE   PEND 
// 049   ----------------------------------------
Label_11_014DD236:
 BYTE   W24
 BYTE   N24  As1  v127
 BYTE   W24
 BYTE   N48  Dn2
 BYTE   W48
 BYTE   PEND 
// 050   ----------------------------------------
 BYTE   W96
// 051   ----------------------------------------
 BYTE   W96
// 052   ----------------------------------------
 BYTE   W96
// 053   ----------------------------------------
 BYTE   W96
// 054   ----------------------------------------
 BYTE   W96
// 055   ----------------------------------------
 BYTE   W96
// 056   ----------------------------------------
 BYTE   W96
// 057   ----------------------------------------
 BYTE   W96
// 058   ----------------------------------------
 BYTE   W96
// 059   ----------------------------------------
 BYTE   W96
// 060   ----------------------------------------
 BYTE   W96
// 061   ----------------------------------------
 BYTE   W96
// 062   ----------------------------------------
 BYTE   W96
// 063   ----------------------------------------
 BYTE   W96
// 064   ----------------------------------------
 BYTE   W96
// 065   ----------------------------------------
 BYTE   W96
// 066   ----------------------------------------
 BYTE   W96
// 067   ----------------------------------------
 BYTE   W96
// 068   ----------------------------------------
 BYTE   W96
// 069   ----------------------------------------
 BYTE   W96
// 070   ----------------------------------------
 BYTE   W96
// 071   ----------------------------------------
 BYTE   W96
// 072   ----------------------------------------
 BYTE   W96
// 073   ----------------------------------------
 BYTE   W96
// 074   ----------------------------------------
 BYTE   W96
// 075   ----------------------------------------
 BYTE   W96
// 076   ----------------------------------------
 BYTE   W96
// 077   ----------------------------------------
 BYTE   W96
// 078   ----------------------------------------
 BYTE   W96
// 079   ----------------------------------------
 BYTE   W96
// 080   ----------------------------------------
 BYTE   W96
// 081   ----------------------------------------
 BYTE   W96
// 082   ----------------------------------------
 BYTE   W96
// 083   ----------------------------------------
 BYTE   W96
// 084   ----------------------------------------
 BYTE   W96
// 085   ----------------------------------------
 BYTE   W96
// 086   ----------------------------------------
 BYTE   W96
// 087   ----------------------------------------
 BYTE   W96
// 088   ----------------------------------------
 BYTE   W96
// 089   ----------------------------------------
 BYTE   W96
// 090   ----------------------------------------
 BYTE   W96
// 091   ----------------------------------------
 BYTE   W96
// 092   ----------------------------------------
 BYTE   W96
// 093   ----------------------------------------
 BYTE   W96
// 094   ----------------------------------------
 BYTE   GoTo
  POIN2 Label_11_014DD1C4
// 095   ----------------------------------------
 BYTE   PATT
  POIN2 Label_11_014DD1E4
// 096   ----------------------------------------
 BYTE   PATT
  POIN2 Label_11_014DD1EC
// 097   ----------------------------------------
 BYTE   PATT
  POIN2 Label_11_014DD1F6
// 098   ----------------------------------------
 BYTE   PATT
  POIN2 Label_11_014DD200
// 099   ----------------------------------------
 BYTE   PATT
  POIN2 Label_11_014DD1E4
// 100   ----------------------------------------
 BYTE   PATT
  POIN2 Label_11_014DD1EC
// 101   ----------------------------------------
 BYTE   PATT
  POIN2 Label_11_014DD214
// 102   ----------------------------------------
 BYTE   PATT
  POIN2 Label_11_014DD221
// 103   ----------------------------------------
 BYTE   PATT
  POIN2 Label_11_014DD229
// 104   ----------------------------------------
 BYTE   PATT
  POIN2 Label_11_014DD236
// 105   ----------------------------------------
 BYTE   W96
// 106   ----------------------------------------
 BYTE   W96
// 107   ----------------------------------------
 BYTE   W96
// 108   ----------------------------------------
 BYTE   W90
 BYTE   FINE

//**************** Track 13 (Midi-Chn.12) ****************//

DKC2CrocodileCacophonyMeatOfJustice_013:
// 000   ----------------------------------------
 BYTE   KEYSH   DKC2CrocodileCacophonyMeatOfJustice_key+0
 BYTE   VOICE   30
 BYTE   VOL   48*DKC2CrocodileCacophonyMeatOfJustice_mvl/mxv
 BYTE   PAN   c_v+40
 BYTE   W96
// 001   ----------------------------------------
 BYTE   W96
// 002   ----------------------------------------
 BYTE   W96
// 003   ----------------------------------------
 BYTE   W96
// 004   ----------------------------------------
 BYTE   W96
// 005   ----------------------------------------
 BYTE   W96
// 006   ----------------------------------------
 BYTE   W96
// 007   ----------------------------------------
 BYTE   W96
// 008   ----------------------------------------
Label_12_014DD2B8:
 BYTE   W96
// 009   ----------------------------------------
 BYTE   W96
// 010   ----------------------------------------
 BYTE   W96
// 011   ----------------------------------------
 BYTE   W96
// 012   ----------------------------------------
 BYTE   W96
// 013   ----------------------------------------
 BYTE   W96
// 014   ----------------------------------------
 BYTE   W96
// 015   ----------------------------------------
 BYTE   W96
// 016   ----------------------------------------
 BYTE   W96
// 017   ----------------------------------------
 BYTE   W96
// 018   ----------------------------------------
 BYTE   W96
// 019   ----------------------------------------
 BYTE   W96
// 020   ----------------------------------------
 BYTE   W96
// 021   ----------------------------------------
 BYTE   W96
// 022   ----------------------------------------
 BYTE   W96
// 023   ----------------------------------------
 BYTE   W96
// 024   ----------------------------------------
 BYTE   W96
// 025   ----------------------------------------
 BYTE   W96
// 026   ----------------------------------------
 BYTE   W96
// 027   ----------------------------------------
 BYTE   W96
// 028   ----------------------------------------
 BYTE   W96
// 029   ----------------------------------------
 BYTE   W96
// 030   ----------------------------------------
 BYTE   W96
// 031   ----------------------------------------
 BYTE   W96
// 032   ----------------------------------------
 BYTE   W96
// 033   ----------------------------------------
 BYTE   W96
// 034   ----------------------------------------
 BYTE   W96
// 035   ----------------------------------------
 BYTE   W96
// 036   ----------------------------------------
 BYTE   W96
// 037   ----------------------------------------
 BYTE   W96
// 038   ----------------------------------------
 BYTE   W96
// 039   ----------------------------------------
 BYTE   W96
// 040   ----------------------------------------
Label_12_014DD2D8:
 BYTE   W36
 BYTE   N48  Dn2  v127
 BYTE   W48
 BYTE   N24
 BYTE   W12
 BYTE   PEND 
// 041   ----------------------------------------
Label_12_014DD2E0:
 BYTE   W12
 BYTE   N48  Dn2  v127
 BYTE   W72
 BYTE   N12  Cn2
 BYTE   W12
 BYTE   PEND 
// 042   ----------------------------------------
Label_12_014DD2E9:
 BYTE   N12  As1  v127
 BYTE   W12
 BYTE   N48  An1
 BYTE   W48
 BYTE   N24  As1
 BYTE   W24
 BYTE   An1
 BYTE   W12
 BYTE   PEND 
// 043   ----------------------------------------
Label_12_014DD2F6:
 BYTE   W12
 BYTE   N24  As1  v127
 BYTE   W24
 BYTE   An1
 BYTE   W24
 BYTE   N72  Gn1
 BYTE   W36
 BYTE   PEND 
// 044   ----------------------------------------
 BYTE   PATT
  POIN2 Label_12_014DD2D8
// 045   ----------------------------------------
 BYTE   PATT
  POIN2 Label_12_014DD2E0
// 046   ----------------------------------------
Label_12_014DD30B:
 BYTE   N12  As1  v127
 BYTE   W12
 BYTE   N32  An1
 BYTE   W36
 BYTE   N12
 BYTE   W12
 BYTE   N24  As1
 BYTE   W24
 BYTE   N72  An1
 BYTE   W12
 BYTE   PEND 
// 047   ----------------------------------------
Label_12_014DD31B:
 BYTE   W60
 BYTE   N24  Cn2  v127
 BYTE   W24
 BYTE   As1
 BYTE   W12
 BYTE   PEND 
// 048   ----------------------------------------
Label_12_014DD323:
 BYTE   W12
 BYTE   N32  An1  v127
 BYTE   W36
 BYTE   N12
 BYTE   W12
 BYTE   N24  As1
 BYTE   W24
 BYTE   N48  Cn2
 BYTE   W12
 BYTE   PEND 
// 049   ----------------------------------------
Label_12_014DD331:
 BYTE   W36
 BYTE   N24  As1  v127
 BYTE   W24
 BYTE   N48  Dn2
 BYTE   W36
 BYTE   PEND 
// 050   ----------------------------------------
 BYTE   W96
// 051   ----------------------------------------
 BYTE   W96
// 052   ----------------------------------------
 BYTE   W96
// 053   ----------------------------------------
 BYTE   W96
// 054   ----------------------------------------
 BYTE   W96
// 055   ----------------------------------------
 BYTE   W96
// 056   ----------------------------------------
 BYTE   W96
// 057   ----------------------------------------
 BYTE   W96
// 058   ----------------------------------------
 BYTE   W96
// 059   ----------------------------------------
 BYTE   W96
// 060   ----------------------------------------
 BYTE   W96
// 061   ----------------------------------------
 BYTE   W96
// 062   ----------------------------------------
 BYTE   W96
// 063   ----------------------------------------
 BYTE   W96
// 064   ----------------------------------------
 BYTE   W96
// 065   ----------------------------------------
 BYTE   W96
// 066   ----------------------------------------
 BYTE   W96
// 067   ----------------------------------------
 BYTE   W96
// 068   ----------------------------------------
 BYTE   W96
// 069   ----------------------------------------
 BYTE   W96
// 070   ----------------------------------------
 BYTE   W96
// 071   ----------------------------------------
 BYTE   W96
// 072   ----------------------------------------
 BYTE   W96
// 073   ----------------------------------------
 BYTE   W96
// 074   ----------------------------------------
 BYTE   W96
// 075   ----------------------------------------
 BYTE   W96
// 076   ----------------------------------------
 BYTE   W96
// 077   ----------------------------------------
 BYTE   W96
// 078   ----------------------------------------
 BYTE   W96
// 079   ----------------------------------------
 BYTE   W96
// 080   ----------------------------------------
 BYTE   W96
// 081   ----------------------------------------
 BYTE   W96
// 082   ----------------------------------------
 BYTE   W96
// 083   ----------------------------------------
 BYTE   W96
// 084   ----------------------------------------
 BYTE   W96
// 085   ----------------------------------------
 BYTE   W96
// 086   ----------------------------------------
 BYTE   W96
// 087   ----------------------------------------
 BYTE   W96
// 088   ----------------------------------------
 BYTE   W96
// 089   ----------------------------------------
 BYTE   W96
// 090   ----------------------------------------
 BYTE   W96
// 091   ----------------------------------------
 BYTE   W96
// 092   ----------------------------------------
 BYTE   W96
// 093   ----------------------------------------
 BYTE   W96
// 094   ----------------------------------------
 BYTE   GoTo
  POIN2 Label_12_014DD2B8
// 095   ----------------------------------------
 BYTE   PATT
  POIN2 Label_12_014DD2D8
// 096   ----------------------------------------
 BYTE   PATT
  POIN2 Label_12_014DD2E0
// 097   ----------------------------------------
 BYTE   PATT
  POIN2 Label_12_014DD2E9
// 098   ----------------------------------------
 BYTE   PATT
  POIN2 Label_12_014DD2F6
// 099   ----------------------------------------
 BYTE   PATT
  POIN2 Label_12_014DD2D8
// 100   ----------------------------------------
 BYTE   PATT
  POIN2 Label_12_014DD2E0
// 101   ----------------------------------------
 BYTE   PATT
  POIN2 Label_12_014DD30B
// 102   ----------------------------------------
 BYTE   PATT
  POIN2 Label_12_014DD31B
// 103   ----------------------------------------
 BYTE   PATT
  POIN2 Label_12_014DD323
// 104   ----------------------------------------
 BYTE   PATT
  POIN2 Label_12_014DD331
// 105   ----------------------------------------
 BYTE   W96
// 106   ----------------------------------------
 BYTE   W96
// 107   ----------------------------------------
 BYTE   W96
// 108   ----------------------------------------
 BYTE   W90
 BYTE   FINE

//**************** Track 14 (Midi-Chn.13) ****************//

DKC2CrocodileCacophonyMeatOfJustice_014:
// 000   ----------------------------------------
 BYTE   KEYSH   DKC2CrocodileCacophonyMeatOfJustice_key+0
 BYTE   VOICE   51
 BYTE   VOL   56*DKC2CrocodileCacophonyMeatOfJustice_mvl/mxv
 BYTE   PAN   c_v+40
 BYTE   W96
// 001   ----------------------------------------
 BYTE   W96
// 002   ----------------------------------------
 BYTE   W96
// 003   ----------------------------------------
 BYTE   W96
// 004   ----------------------------------------
 BYTE   W96
// 005   ----------------------------------------
 BYTE   W96
// 006   ----------------------------------------
 BYTE   W96
// 007   ----------------------------------------
 BYTE   W96
// 008   ----------------------------------------
Label_13_014DD3B4:
 BYTE   W96
// 009   ----------------------------------------
 BYTE   W96
// 010   ----------------------------------------
 BYTE   W96
// 011   ----------------------------------------
 BYTE   W96
// 012   ----------------------------------------
 BYTE   W96
// 013   ----------------------------------------
 BYTE   W96
// 014   ----------------------------------------
 BYTE   W96
// 015   ----------------------------------------
 BYTE   W96
// 016   ----------------------------------------
Label_13_014DD3BC:
 BYTE   N12  Ds3  v127
 BYTE   W24
 BYTE   Dn3
 BYTE   W24
 BYTE   As2
 BYTE   W24
 BYTE   Ds3
 BYTE   W24
 BYTE   PEND 
// 017   ----------------------------------------
Label_13_014DD3C7:
 BYTE   N12  Dn3  v127
 BYTE   W24
 BYTE   As2
 BYTE   W24
 BYTE   Ds3
 BYTE   W24
 BYTE   Dn3
 BYTE   W24
 BYTE   PEND 
// 018   ----------------------------------------
 BYTE   PATT
  POIN2 Label_13_014DD3BC
// 019   ----------------------------------------
Label_13_014DD3D7:
 BYTE   N12  Dn3  v127
 BYTE   W24
 BYTE   As2
 BYTE   W24
 BYTE   Fn3
 BYTE   W24
 BYTE   Dn3
 BYTE   W24
 BYTE   PEND 
// 020   ----------------------------------------
Label_13_014DD3E2:
 BYTE   N12  Ds3  v127
 BYTE   W24
 BYTE   Dn3
 BYTE   W24
 BYTE   An2
 BYTE   W24
 BYTE   Ds3
 BYTE   W24
 BYTE   PEND 
// 021   ----------------------------------------
Label_13_014DD3ED:
 BYTE   N12  Dn3  v127
 BYTE   W24
 BYTE   An2
 BYTE   W24
 BYTE   Ds3
 BYTE   W24
 BYTE   Dn3
 BYTE   W24
 BYTE   PEND 
// 022   ----------------------------------------
 BYTE   PATT
  POIN2 Label_13_014DD3E2
// 023   ----------------------------------------
Label_13_014DD3FD:
 BYTE   N12  Dn3  v127
 BYTE   W24
 BYTE   An2
 BYTE   W24
 BYTE   Fn3
 BYTE   W24
 BYTE   Dn3
 BYTE   W24
 BYTE   PEND 
// 024   ----------------------------------------
 BYTE   W96
// 025   ----------------------------------------
 BYTE   W96
// 026   ----------------------------------------
 BYTE   W96
// 027   ----------------------------------------
 BYTE   W96
// 028   ----------------------------------------
 BYTE   W96
// 029   ----------------------------------------
 BYTE   W96
// 030   ----------------------------------------
 BYTE   W96
// 031   ----------------------------------------
 BYTE   W96
// 032   ----------------------------------------
Label_13_014DD410:
 BYTE   N32  Dn2  v127
 BYTE   W36
 BYTE   N12
 BYTE   W12
 BYTE   N24  Fn2
 BYTE   W24
 BYTE   Gn2
 BYTE   W24
 BYTE   PEND 
// 033   ----------------------------------------
Label_13_014DD41C:
 BYTE   N48  An2  v127
 BYTE   W72
 BYTE   N24  Fn2
 BYTE   W24
 BYTE   PEND 
// 034   ----------------------------------------
Label_13_014DD424:
 BYTE   N24  Gn2  v127
 BYTE   W36
 BYTE   N12
 BYTE   W12
 BYTE   N24  Fn2
 BYTE   W24
 BYTE   Gn2
 BYTE   W24
 BYTE   PEND 
// 035   ----------------------------------------
Label_13_014DD430:
 BYTE   N24  An2  v127
 BYTE   W24
 BYTE   Fn2
 BYTE   W24
 BYTE   N48  Dn2
 BYTE   W48
 BYTE   PEND 
// 036   ----------------------------------------
 BYTE   PATT
  POIN2 Label_13_014DD410
// 037   ----------------------------------------
 BYTE   PATT
  POIN2 Label_13_014DD41C
// 038   ----------------------------------------
Label_13_014DD444:
 BYTE   N24  Gn2  v127
 BYTE   W24
 BYTE   N24
 BYTE   W24
 BYTE   Fn2
 BYTE   W24
 BYTE   En2
 BYTE   W24
 BYTE   PEND 
// 039   ----------------------------------------
 BYTE   N48  Dn2
 BYTE   W96
// 040   ----------------------------------------
 BYTE   W96
// 041   ----------------------------------------
 BYTE   W96
// 042   ----------------------------------------
 BYTE   W96
// 043   ----------------------------------------
 BYTE   W96
// 044   ----------------------------------------
 BYTE   W96
// 045   ----------------------------------------
 BYTE   W96
// 046   ----------------------------------------
 BYTE   W96
// 047   ----------------------------------------
 BYTE   W96
// 048   ----------------------------------------
 BYTE   W96
// 049   ----------------------------------------
 BYTE   W96
// 050   ----------------------------------------
 BYTE   W96
// 051   ----------------------------------------
 BYTE   W96
// 052   ----------------------------------------
 BYTE   W96
// 053   ----------------------------------------
 BYTE   W96
// 054   ----------------------------------------
 BYTE   W96
// 055   ----------------------------------------
 BYTE   W96
// 056   ----------------------------------------
 BYTE   W96
// 057   ----------------------------------------
 BYTE   W96
// 058   ----------------------------------------
 BYTE   W96
// 059   ----------------------------------------
 BYTE   W96
// 060   ----------------------------------------
 BYTE   W96
// 061   ----------------------------------------
 BYTE   W96
// 062   ----------------------------------------
 BYTE   W96
// 063   ----------------------------------------
 BYTE   W96
// 064   ----------------------------------------
 BYTE   W96
// 065   ----------------------------------------
 BYTE   W96
// 066   ----------------------------------------
 BYTE   W96
// 067   ----------------------------------------
 BYTE   W96
// 068   ----------------------------------------
 BYTE   W96
// 069   ----------------------------------------
 BYTE   W96
// 070   ----------------------------------------
 BYTE   PATT
  POIN2 Label_13_014DD3BC
// 071   ----------------------------------------
 BYTE   PATT
  POIN2 Label_13_014DD3C7
// 072   ----------------------------------------
 BYTE   PATT
  POIN2 Label_13_014DD3BC
// 073   ----------------------------------------
 BYTE   PATT
  POIN2 Label_13_014DD3D7
// 074   ----------------------------------------
 BYTE   PATT
  POIN2 Label_13_014DD3E2
// 075   ----------------------------------------
 BYTE   PATT
  POIN2 Label_13_014DD3ED
// 076   ----------------------------------------
 BYTE   PATT
  POIN2 Label_13_014DD3E2
// 077   ----------------------------------------
 BYTE   PATT
  POIN2 Label_13_014DD3FD
// 078   ----------------------------------------
 BYTE   W96
// 079   ----------------------------------------
 BYTE   W96
// 080   ----------------------------------------
 BYTE   W96
// 081   ----------------------------------------
 BYTE   W96
// 082   ----------------------------------------
 BYTE   W96
// 083   ----------------------------------------
 BYTE   W96
// 084   ----------------------------------------
 BYTE   W96
// 085   ----------------------------------------
 BYTE   W96
// 086   ----------------------------------------
 BYTE   PATT
  POIN2 Label_13_014DD410
// 087   ----------------------------------------
 BYTE   PATT
  POIN2 Label_13_014DD41C
// 088   ----------------------------------------
 BYTE   PATT
  POIN2 Label_13_014DD424
// 089   ----------------------------------------
 BYTE   PATT
  POIN2 Label_13_014DD430
// 090   ----------------------------------------
 BYTE   PATT
  POIN2 Label_13_014DD410
// 091   ----------------------------------------
 BYTE   PATT
  POIN2 Label_13_014DD41C
// 092   ----------------------------------------
 BYTE   PATT
  POIN2 Label_13_014DD444
// 093   ----------------------------------------
 BYTE   N48  Dn2  v127
 BYTE   W96
// 094   ----------------------------------------
 BYTE   GoTo
  POIN2 Label_13_014DD3B4
// 095   ----------------------------------------
 BYTE   W96
// 096   ----------------------------------------
 BYTE   W96
// 097   ----------------------------------------
 BYTE   W96
// 098   ----------------------------------------
 BYTE   W96
// 099   ----------------------------------------
 BYTE   W96
// 100   ----------------------------------------
 BYTE   W96
// 101   ----------------------------------------
 BYTE   W96
// 102   ----------------------------------------
 BYTE   W96
// 103   ----------------------------------------
 BYTE   W96
// 104   ----------------------------------------
 BYTE   W96
// 105   ----------------------------------------
 BYTE   W96
// 106   ----------------------------------------
 BYTE   W96
// 107   ----------------------------------------
 BYTE   W96
// 108   ----------------------------------------
 BYTE   W90
 BYTE   FINE

//**************** Track 15 (Midi-Chn.14) ****************//

DKC2CrocodileCacophonyMeatOfJustice_015:
// 000   ----------------------------------------
 BYTE   KEYSH   DKC2CrocodileCacophonyMeatOfJustice_key+0
 BYTE   VOICE   51
 BYTE   VOL   24*DKC2CrocodileCacophonyMeatOfJustice_mvl/mxv
 BYTE   PAN   c_v-40
 BYTE   W96
// 001   ----------------------------------------
 BYTE   W96
// 002   ----------------------------------------
 BYTE   W96
// 003   ----------------------------------------
 BYTE   W96
// 004   ----------------------------------------
 BYTE   W96
// 005   ----------------------------------------
 BYTE   W96
// 006   ----------------------------------------
 BYTE   W96
// 007   ----------------------------------------
 BYTE   W96
// 008   ----------------------------------------
Label_14_014DD4EC:
 BYTE   W96
// 009   ----------------------------------------
 BYTE   W96
// 010   ----------------------------------------
 BYTE   W96
// 011   ----------------------------------------
 BYTE   W96
// 012   ----------------------------------------
 BYTE   W96
// 013   ----------------------------------------
 BYTE   W96
// 014   ----------------------------------------
 BYTE   W96
// 015   ----------------------------------------
 BYTE   W96
// 016   ----------------------------------------
Label_14_014DD4F4:
 BYTE   W12
 BYTE   N12  Ds3  v127
 BYTE   W24
 BYTE   Dn3
 BYTE   W24
 BYTE   As2
 BYTE   W24
 BYTE   Ds3
 BYTE   W12
 BYTE   PEND 
// 017   ----------------------------------------
Label_14_014DD500:
 BYTE   W12
 BYTE   N12  Dn3  v127
 BYTE   W24
 BYTE   As2
 BYTE   W24
 BYTE   Ds3
 BYTE   W24
 BYTE   Dn3
 BYTE   W12
 BYTE   PEND 
// 018   ----------------------------------------
 BYTE   PATT
  POIN2 Label_14_014DD4F4
// 019   ----------------------------------------
Label_14_014DD511:
 BYTE   W12
 BYTE   N12  Dn3  v127
 BYTE   W24
 BYTE   As2
 BYTE   W24
 BYTE   Fn3
 BYTE   W24
 BYTE   Dn3
 BYTE   W12
 BYTE   PEND 
// 020   ----------------------------------------
Label_14_014DD51D:
 BYTE   W12
 BYTE   N12  Ds3  v127
 BYTE   W24
 BYTE   Dn3
 BYTE   W24
 BYTE   An2
 BYTE   W24
 BYTE   Ds3
 BYTE   W12
 BYTE   PEND 
// 021   ----------------------------------------
Label_14_014DD529:
 BYTE   W12
 BYTE   N12  Dn3  v127
 BYTE   W24
 BYTE   An2
 BYTE   W24
 BYTE   Ds3
 BYTE   W24
 BYTE   Dn3
 BYTE   W12
 BYTE   PEND 
// 022   ----------------------------------------
 BYTE   PATT
  POIN2 Label_14_014DD51D
// 023   ----------------------------------------
Label_14_014DD53A:
 BYTE   W12
 BYTE   N12  Dn3  v127
 BYTE   W24
 BYTE   An2
 BYTE   W24
 BYTE   Fn3
 BYTE   W24
 BYTE   Dn3
 BYTE   W12
 BYTE   PEND 
// 024   ----------------------------------------
 BYTE   W96
// 025   ----------------------------------------
 BYTE   W96
// 026   ----------------------------------------
 BYTE   W96
// 027   ----------------------------------------
 BYTE   W96
// 028   ----------------------------------------
 BYTE   W96
// 029   ----------------------------------------
 BYTE   W96
// 030   ----------------------------------------
 BYTE   W96
// 031   ----------------------------------------
 BYTE   W96
// 032   ----------------------------------------
Label_14_014DD54E:
 BYTE   W12
 BYTE   N32  Dn2  v127
 BYTE   W36
 BYTE   N12
 BYTE   W12
 BYTE   N24  Fn2
 BYTE   W24
 BYTE   Gn2
 BYTE   W12
 BYTE   PEND 
// 033   ----------------------------------------
Label_14_014DD55B:
 BYTE   W12
 BYTE   N48  An2  v127
 BYTE   W72
 BYTE   N24  Fn2
 BYTE   W12
 BYTE   PEND 
// 034   ----------------------------------------
Label_14_014DD564:
 BYTE   W12
 BYTE   N24  Gn2  v127
 BYTE   W36
 BYTE   N12
 BYTE   W12
 BYTE   N24  Fn2
 BYTE   W24
 BYTE   Gn2
 BYTE   W12
 BYTE   PEND 
// 035   ----------------------------------------
Label_14_014DD571:
 BYTE   W12
 BYTE   N24  An2  v127
 BYTE   W24
 BYTE   Fn2
 BYTE   W24
 BYTE   N48  Dn2
 BYTE   W36
 BYTE   PEND 
// 036   ----------------------------------------
 BYTE   PATT
  POIN2 Label_14_014DD54E
// 037   ----------------------------------------
 BYTE   PATT
  POIN2 Label_14_014DD55B
// 038   ----------------------------------------
Label_14_014DD586:
 BYTE   W12
 BYTE   N24  Gn2  v127
 BYTE   W24
 BYTE   N24
 BYTE   W24
 BYTE   Fn2
 BYTE   W24
 BYTE   En2
 BYTE   W12
 BYTE   PEND 
// 039   ----------------------------------------
 BYTE   W12
 BYTE   N48  Dn2
 BYTE   W84
// 040   ----------------------------------------
 BYTE   W96
// 041   ----------------------------------------
 BYTE   W96
// 042   ----------------------------------------
 BYTE   W96
// 043   ----------------------------------------
 BYTE   W96
// 044   ----------------------------------------
 BYTE   W96
// 045   ----------------------------------------
 BYTE   W96
// 046   ----------------------------------------
 BYTE   W96
// 047   ----------------------------------------
 BYTE   W96
// 048   ----------------------------------------
 BYTE   W96
// 049   ----------------------------------------
 BYTE   W96
// 050   ----------------------------------------
 BYTE   W96
// 051   ----------------------------------------
 BYTE   W96
// 052   ----------------------------------------
 BYTE   W96
// 053   ----------------------------------------
 BYTE   W96
// 054   ----------------------------------------
 BYTE   W96
// 055   ----------------------------------------
 BYTE   W96
// 056   ----------------------------------------
 BYTE   W96
// 057   ----------------------------------------
 BYTE   W96
// 058   ----------------------------------------
 BYTE   W96
// 059   ----------------------------------------
 BYTE   W96
// 060   ----------------------------------------
 BYTE   W96
// 061   ----------------------------------------
 BYTE   W96
// 062   ----------------------------------------
 BYTE   W96
// 063   ----------------------------------------
 BYTE   W96
// 064   ----------------------------------------
 BYTE   W96
// 065   ----------------------------------------
 BYTE   W96
// 066   ----------------------------------------
 BYTE   W96
// 067   ----------------------------------------
 BYTE   W96
// 068   ----------------------------------------
 BYTE   W96
// 069   ----------------------------------------
 BYTE   W96
// 070   ----------------------------------------
 BYTE   PATT
  POIN2 Label_14_014DD4F4
// 071   ----------------------------------------
 BYTE   PATT
  POIN2 Label_14_014DD500
// 072   ----------------------------------------
 BYTE   PATT
  POIN2 Label_14_014DD4F4
// 073   ----------------------------------------
 BYTE   PATT
  POIN2 Label_14_014DD511
// 074   ----------------------------------------
 BYTE   PATT
  POIN2 Label_14_014DD51D
// 075   ----------------------------------------
 BYTE   PATT
  POIN2 Label_14_014DD529
// 076   ----------------------------------------
 BYTE   PATT
  POIN2 Label_14_014DD51D
// 077   ----------------------------------------
 BYTE   PATT
  POIN2 Label_14_014DD53A
// 078   ----------------------------------------
 BYTE   W96
// 079   ----------------------------------------
 BYTE   W96
// 080   ----------------------------------------
 BYTE   W96
// 081   ----------------------------------------
 BYTE   W96
// 082   ----------------------------------------
 BYTE   W96
// 083   ----------------------------------------
 BYTE   W96
// 084   ----------------------------------------
 BYTE   W96
// 085   ----------------------------------------
 BYTE   W96
// 086   ----------------------------------------
 BYTE   PATT
  POIN2 Label_14_014DD54E
// 087   ----------------------------------------
 BYTE   PATT
  POIN2 Label_14_014DD55B
// 088   ----------------------------------------
 BYTE   PATT
  POIN2 Label_14_014DD564
// 089   ----------------------------------------
 BYTE   PATT
  POIN2 Label_14_014DD571
// 090   ----------------------------------------
 BYTE   PATT
  POIN2 Label_14_014DD54E
// 091   ----------------------------------------
 BYTE   PATT
  POIN2 Label_14_014DD55B
// 092   ----------------------------------------
 BYTE   PATT
  POIN2 Label_14_014DD586
// 093   ----------------------------------------
 BYTE   W12
 BYTE   N48  Dn2  v127
 BYTE   W84
// 094   ----------------------------------------
 BYTE   GoTo
  POIN2 Label_14_014DD4EC
// 095   ----------------------------------------
 BYTE   W96
// 096   ----------------------------------------
 BYTE   W96
// 097   ----------------------------------------
 BYTE   W96
// 098   ----------------------------------------
 BYTE   W96
// 099   ----------------------------------------
 BYTE   W96
// 100   ----------------------------------------
 BYTE   W96
// 101   ----------------------------------------
 BYTE   W96
// 102   ----------------------------------------
 BYTE   W96
// 103   ----------------------------------------
 BYTE   W96
// 104   ----------------------------------------
 BYTE   W96
// 105   ----------------------------------------
 BYTE   W96
// 106   ----------------------------------------
 BYTE   W96
// 107   ----------------------------------------
 BYTE   W96
// 108   ----------------------------------------
 BYTE   W90
 BYTE   FINE

//**************** Track 16 (Midi-Chn.15) ****************//

DKC2CrocodileCacophonyMeatOfJustice_016:
// 000   ----------------------------------------
 BYTE   KEYSH   DKC2CrocodileCacophonyMeatOfJustice_key+0
 BYTE   VOICE   123
 BYTE   VOL   32*DKC2CrocodileCacophonyMeatOfJustice_mvl/mxv
 BYTE   PAN   c_v+0
 BYTE   N06  En1  v127
 BYTE   N06  Gn1
 BYTE   N06  Bn2
 BYTE   W12
 BYTE   En1
 BYTE   N06  Gn1
 BYTE   W12
 BYTE   Bn2
 BYTE   W24
 BYTE   N06
 BYTE   W24
 BYTE   N06
 BYTE   W24
// 001   ----------------------------------------
Label_15_014DD932:
 BYTE   N06  Bn2  v127
 BYTE   W24
 BYTE   N06
 BYTE   W24
 BYTE   N06
 BYTE   W24
 BYTE   N06
 BYTE   W24
 BYTE   PEND 
// 002   ----------------------------------------
Label_15_014DD93D:
 BYTE   N06  En1  v127
 BYTE   N06  Gn1
 BYTE   N06  Bn2
 BYTE   W12
 BYTE   En1
 BYTE   N06  Gn1
 BYTE   W12
 BYTE   Bn2
 BYTE   W24
 BYTE   N06
 BYTE   W24
 BYTE   N06
 BYTE   W24
 BYTE   PEND 
// 003   ----------------------------------------
 BYTE   PATT
  POIN2 Label_15_014DD932
// 004   ----------------------------------------
 BYTE   PATT
  POIN2 Label_15_014DD93D
// 005   ----------------------------------------
 BYTE   PATT
  POIN2 Label_15_014DD932
// 006   ----------------------------------------
Label_15_014DD95F:
 BYTE   N06  En1  v127
 BYTE   N06  Gn1
 BYTE   N06  Bn2
 BYTE   W12
 BYTE   En1
 BYTE   N06  Gn1
 BYTE   W12
 BYTE   Bn2
 BYTE   W24
 BYTE   N06
 BYTE   W24
 BYTE   En1
 BYTE   N06  Dn2
 BYTE   N06  Bn2
 BYTE   W12
 BYTE   En1
 BYTE   N06  Dn2
 BYTE   W12
 BYTE   PEND 
// 007   ----------------------------------------
Label_15_014DD97A:
 BYTE   N06  En1  v127
 BYTE   N06  Cn2
 BYTE   N06  Bn2
 BYTE   W12
 BYTE   En1
 BYTE   N06  Cn2
 BYTE   W12
 BYTE   En1
 BYTE   N06  Bn1
 BYTE   N06  Bn2
 BYTE   W12
 BYTE   En1
 BYTE   N06  Bn1
 BYTE   W12
 BYTE   En1
 BYTE   N06  An1
 BYTE   N06  Bn2
 BYTE   W12
 BYTE   En1
 BYTE   N06  An1
 BYTE   W12
 BYTE   En1
 BYTE   N06  Gn1
 BYTE   N06  Bn2
 BYTE   W12
 BYTE   En1
 BYTE   N06  Gn1
 BYTE   W12
 BYTE   PEND 
// 008   ----------------------------------------
Label_15_014DD9A5:
 BYTE   N06  Bn0  v127
 BYTE   N06  Cn1
 BYTE   W12
 BYTE   Dn2  v052
 BYTE   N06  Bn2  v127
 BYTE   W12
 BYTE   Cn2  v052
 BYTE   N06  Bn2  v127
 BYTE   W12
 BYTE   Bn1  v052
 BYTE   N06  Bn2  v127
 BYTE   W12
 BYTE   Dn1
 BYTE   N06  Ds1
 BYTE   N06  En1
 BYTE   W24
 BYTE   Cn2  v052
 BYTE   N06  Bn2  v127
 BYTE   W12
 BYTE   Bn1  v052
 BYTE   N06  Bn2  v127
 BYTE   W12
 BYTE   PEND 
// 009   ----------------------------------------
Label_15_014DD9D0:
 BYTE   N06  Bn0  v127
 BYTE   N06  Cn1
 BYTE   W12
 BYTE   Cn2  v052
 BYTE   N06  Bn2  v127
 BYTE   W24
 BYTE   Cn2  v052
 BYTE   N06  Bn2  v127
 BYTE   W12
 BYTE   Dn1
 BYTE   N06  Ds1
 BYTE   N06  En1
 BYTE   W24
 BYTE   Cn2  v052
 BYTE   N06  Bn2  v127
 BYTE   W12
 BYTE   Bn1  v052
 BYTE   N06  Bn2  v127
 BYTE   W12
 BYTE   PEND 
// 010   ----------------------------------------
 BYTE   PATT
  POIN2 Label_15_014DD9A5
// 011   ----------------------------------------
 BYTE   PATT
  POIN2 Label_15_014DD9D0
// 012   ----------------------------------------
 BYTE   PATT
  POIN2 Label_15_014DD9A5
// 013   ----------------------------------------
 BYTE   PATT
  POIN2 Label_15_014DD9D0
// 014   ----------------------------------------
 BYTE   PATT
  POIN2 Label_15_014DD9A5
// 015   ----------------------------------------
 BYTE   PATT
  POIN2 Label_15_014DD9D0
// 016   ----------------------------------------
 BYTE   PATT
  POIN2 Label_15_014DD9A5
// 017   ----------------------------------------
 BYTE   PATT
  POIN2 Label_15_014DD9D0
// 018   ----------------------------------------
 BYTE   PATT
  POIN2 Label_15_014DD9A5
// 019   ----------------------------------------
 BYTE   PATT
  POIN2 Label_15_014DD9D0
// 020   ----------------------------------------
 BYTE   PATT
  POIN2 Label_15_014DD9A5
// 021   ----------------------------------------
 BYTE   PATT
  POIN2 Label_15_014DD9D0
// 022   ----------------------------------------
 BYTE   PATT
  POIN2 Label_15_014DD9A5
// 023   ----------------------------------------
 BYTE   PATT
  POIN2 Label_15_014DD9D0
// 024   ----------------------------------------
Label_15_014DDA3B:
 BYTE   N06  Bn0  v127
 BYTE   N06  Cn1
 BYTE   W12
 BYTE   Bn0
 BYTE   N06  Cn1
 BYTE   W12
 BYTE   Bn0  v080
 BYTE   N06  Cn1
 BYTE   W09
 BYTE   N03  Bn0
 BYTE   N03  Cn1
 BYTE   W03
 BYTE   Bn0  v127
 BYTE   N03  Cn1
 BYTE   W12
 BYTE   N06  Dn1
 BYTE   N06  Ds1
 BYTE   N06  En1
 BYTE   W12
 BYTE   Bn0  v052
 BYTE   N06  Cn1
 BYTE   W12
 BYTE   Dn1  v028
 BYTE   N06  Ds1
 BYTE   N06  En1
 BYTE   W24
 BYTE   PEND 
// 025   ----------------------------------------
Label_15_014DDA68:
 BYTE   W24
 BYTE   N06  Bn0  v127
 BYTE   N06  Cn1
 BYTE   W12
 BYTE   Bn0
 BYTE   N06  Cn1
 BYTE   W12
 BYTE   Dn1
 BYTE   N06  Ds1
 BYTE   N06  En1
 BYTE   W12
 BYTE   Bn0  v052
 BYTE   N06  Cn1
 BYTE   W12
 BYTE   Dn1  v028
 BYTE   N06  Ds1
 BYTE   N06  En1
 BYTE   W24
 BYTE   PEND 
// 026   ----------------------------------------
 BYTE   PATT
  POIN2 Label_15_014DDA3B
// 027   ----------------------------------------
 BYTE   PATT
  POIN2 Label_15_014DDA68
// 028   ----------------------------------------
 BYTE   PATT
  POIN2 Label_15_014DDA3B
// 029   ----------------------------------------
 BYTE   PATT
  POIN2 Label_15_014DDA68
// 030   ----------------------------------------
Label_15_014DDA9A:
 BYTE   N06  Bn0  v127
 BYTE   N06  Cn1
 BYTE   W12
 BYTE   Bn0
 BYTE   N06  Cn1
 BYTE   W12
 BYTE   Bn0  v080
 BYTE   N06  Cn1
 BYTE   W09
 BYTE   N03  Bn0
 BYTE   N03  Cn1
 BYTE   W03
 BYTE   Bn0  v127
 BYTE   N03  Cn1
 BYTE   W12
 BYTE   N06  Dn1
 BYTE   N06  Ds1
 BYTE   N06  En1
 BYTE   W12
 BYTE   Bn0  v052
 BYTE   N06  Cn1
 BYTE   W12
 BYTE   Dn1
 BYTE   N06  Ds1  v028
 BYTE   N06  En1
 BYTE   W24
 BYTE   PEND 
// 031   ----------------------------------------
 BYTE   W96
// 032   ----------------------------------------
 BYTE   W96
// 033   ----------------------------------------
 BYTE   W96
// 034   ----------------------------------------
 BYTE   W96
// 035   ----------------------------------------
 BYTE   W96
// 036   ----------------------------------------
 BYTE   W96
// 037   ----------------------------------------
 BYTE   W96
// 038   ----------------------------------------
Label_15_014DDACE:
 BYTE   W72
 BYTE   N06  En1  v127
 BYTE   N06  Dn2
 BYTE   W12
 BYTE   En1
 BYTE   N06  Dn2
 BYTE   W12
 BYTE   PEND 
// 039   ----------------------------------------
Label_15_014DDADA:
 BYTE   N06  En1  v127
 BYTE   N06  Cn2
 BYTE   W12
 BYTE   En1
 BYTE   N06  Cn2
 BYTE   W12
 BYTE   En1
 BYTE   N06  Bn1
 BYTE   W12
 BYTE   En1
 BYTE   N06  Bn1
 BYTE   W12
 BYTE   En1
 BYTE   N06  An1
 BYTE   W12
 BYTE   En1
 BYTE   N06  An1
 BYTE   W12
 BYTE   En1
 BYTE   N06  Gn1
 BYTE   W12
 BYTE   En1
 BYTE   N06  Gn1
 BYTE   W12
 BYTE   PEND 
// 040   ----------------------------------------
Label_15_014DDAFD:
 BYTE   N06  Bn0  v127
 BYTE   N06  Cn1
 BYTE   W24
 BYTE   Bn0
 BYTE   N06  Cn1
 BYTE   W24
 BYTE   Dn1
 BYTE   N06  Ds1
 BYTE   N06  En1
 BYTE   W18
 BYTE   Dn1  v028
 BYTE   N06  Ds1
 BYTE   N06  En1
 BYTE   W06
 BYTE   Bn0  v127
 BYTE   N06  Cn1
 BYTE   W24
 BYTE   PEND 
// 041   ----------------------------------------
Label_15_014DDB1A:
 BYTE   N06  Bn0  v127
 BYTE   N06  Cn1
 BYTE   W12
 BYTE   Dn2  v104
 BYTE   W12
 BYTE   Cn2
 BYTE   W12
 BYTE   Bn1  v080
 BYTE   W12
 BYTE   Dn1  v127
 BYTE   N06  Ds1
 BYTE   N06  En1
 BYTE   W24
 BYTE   Dn1
 BYTE   N06  Ds1
 BYTE   N06  En1
 BYTE   N06  Cn2  v052
 BYTE   W12
 BYTE   Bn1
 BYTE   W12
 BYTE   PEND 
// 042   ----------------------------------------
 BYTE   PATT
  POIN2 Label_15_014DDAFD
// 043   ----------------------------------------
Label_15_014DDB40:
 BYTE   N06  Bn0  v127
 BYTE   N06  Cn1
 BYTE   W12
 BYTE   Dn2  v104
 BYTE   W12
 BYTE   Cn2
 BYTE   W12
 BYTE   Bn1
 BYTE   W12
 BYTE   Dn1  v127
 BYTE   N06  Ds1
 BYTE   N06  En1
 BYTE   W24
 BYTE   Dn1
 BYTE   N06  Ds1
 BYTE   N06  En1
 BYTE   N06  Cn2  v104
 BYTE   W12
 BYTE   Bn1
 BYTE   W12
 BYTE   PEND 
// 044   ----------------------------------------
 BYTE   PATT
  POIN2 Label_15_014DDAFD
// 045   ----------------------------------------
 BYTE   PATT
  POIN2 Label_15_014DDB40
// 046   ----------------------------------------
 BYTE   PATT
  POIN2 Label_15_014DDAFD
// 047   ----------------------------------------
Label_15_014DDB6F:
 BYTE   N06  Bn0  v127
 BYTE   N06  Cn1
 BYTE   W12
 BYTE   Dn2  v104
 BYTE   W12
 BYTE   Cn2
 BYTE   W12
 BYTE   Bn1
 BYTE   W12
 BYTE   Dn1  v127
 BYTE   N06  Ds1
 BYTE   N06  En1
 BYTE   W24
 BYTE   Dn1
 BYTE   N06  Ds1
 BYTE   N06  En1
 BYTE   N06  Cn2  v052
 BYTE   W12
 BYTE   Bn1
 BYTE   W12
 BYTE   PEND 
// 048   ----------------------------------------
 BYTE   PATT
  POIN2 Label_15_014DDAFD
// 049   ----------------------------------------
 BYTE   PATT
  POIN2 Label_15_014DDB40
// 050   ----------------------------------------
 BYTE   PATT
  POIN2 Label_15_014DDAFD
// 051   ----------------------------------------
 BYTE   PATT
  POIN2 Label_15_014DDB6F
// 052   ----------------------------------------
 BYTE   PATT
  POIN2 Label_15_014DDAFD
// 053   ----------------------------------------
 BYTE   PATT
  POIN2 Label_15_014DDB40
// 054   ----------------------------------------
 BYTE   PATT
  POIN2 Label_15_014DD93D
// 055   ----------------------------------------
 BYTE   PATT
  POIN2 Label_15_014DD932
// 056   ----------------------------------------
 BYTE   PATT
  POIN2 Label_15_014DD93D
// 057   ----------------------------------------
 BYTE   PATT
  POIN2 Label_15_014DD932
// 058   ----------------------------------------
 BYTE   PATT
  POIN2 Label_15_014DD93D
// 059   ----------------------------------------
 BYTE   PATT
  POIN2 Label_15_014DD932
// 060   ----------------------------------------
 BYTE   PATT
  POIN2 Label_15_014DD95F
// 061   ----------------------------------------
 BYTE   PATT
  POIN2 Label_15_014DD97A
// 062   ----------------------------------------
 BYTE   PATT
  POIN2 Label_15_014DD9A5
// 063   ----------------------------------------
 BYTE   PATT
  POIN2 Label_15_014DD9D0
// 064   ----------------------------------------
 BYTE   PATT
  POIN2 Label_15_014DD9A5
// 065   ----------------------------------------
 BYTE   PATT
  POIN2 Label_15_014DD9D0
// 066   ----------------------------------------
 BYTE   PATT
  POIN2 Label_15_014DD9A5
// 067   ----------------------------------------
 BYTE   PATT
  POIN2 Label_15_014DD9D0
// 068   ----------------------------------------
 BYTE   PATT
  POIN2 Label_15_014DD9A5
// 069   ----------------------------------------
 BYTE   PATT
  POIN2 Label_15_014DD9D0
// 070   ----------------------------------------
 BYTE   PATT
  POIN2 Label_15_014DD9A5
// 071   ----------------------------------------
 BYTE   PATT
  POIN2 Label_15_014DD9D0
// 072   ----------------------------------------
 BYTE   PATT
  POIN2 Label_15_014DD9A5
// 073   ----------------------------------------
 BYTE   PATT
  POIN2 Label_15_014DD9D0
// 074   ----------------------------------------
 BYTE   PATT
  POIN2 Label_15_014DD9A5
// 075   ----------------------------------------
 BYTE   PATT
  POIN2 Label_15_014DD9D0
// 076   ----------------------------------------
 BYTE   PATT
  POIN2 Label_15_014DD9A5
// 077   ----------------------------------------
 BYTE   PATT
  POIN2 Label_15_014DD9D0
// 078   ----------------------------------------
 BYTE   PATT
  POIN2 Label_15_014DDA3B
// 079   ----------------------------------------
 BYTE   PATT
  POIN2 Label_15_014DDA68
// 080   ----------------------------------------
 BYTE   PATT
  POIN2 Label_15_014DDA3B
// 081   ----------------------------------------
 BYTE   PATT
  POIN2 Label_15_014DDA68
// 082   ----------------------------------------
 BYTE   PATT
  POIN2 Label_15_014DDA3B
// 083   ----------------------------------------
 BYTE   PATT
  POIN2 Label_15_014DDA68
// 084   ----------------------------------------
 BYTE   PATT
  POIN2 Label_15_014DDA9A
// 085   ----------------------------------------
 BYTE   W96
// 086   ----------------------------------------
 BYTE   W96
// 087   ----------------------------------------
 BYTE   W96
// 088   ----------------------------------------
 BYTE   W96
// 089   ----------------------------------------
 BYTE   W96
// 090   ----------------------------------------
 BYTE   W96
// 091   ----------------------------------------
 BYTE   W96
// 092   ----------------------------------------
 BYTE   PATT
  POIN2 Label_15_014DDACE
// 093   ----------------------------------------
 BYTE   PATT
  POIN2 Label_15_014DDADA
// 094   ----------------------------------------
 BYTE   GoTo
  POIN2 Label_15_014DD9A5
// 095   ----------------------------------------
 BYTE   PATT
  POIN2 Label_15_014DDAFD
// 096   ----------------------------------------
 BYTE   PATT
  POIN2 Label_15_014DDB1A
// 097   ----------------------------------------
 BYTE   PATT
  POIN2 Label_15_014DDAFD
// 098   ----------------------------------------
 BYTE   PATT
  POIN2 Label_15_014DDB40
// 099   ----------------------------------------
 BYTE   PATT
  POIN2 Label_15_014DDAFD
// 100   ----------------------------------------
 BYTE   PATT
  POIN2 Label_15_014DDB40
// 101   ----------------------------------------
 BYTE   PATT
  POIN2 Label_15_014DDAFD
// 102   ----------------------------------------
 BYTE   PATT
  POIN2 Label_15_014DDB6F
// 103   ----------------------------------------
 BYTE   PATT
  POIN2 Label_15_014DDAFD
// 104   ----------------------------------------
 BYTE   PATT
  POIN2 Label_15_014DDB40
// 105   ----------------------------------------
 BYTE   PATT
  POIN2 Label_15_014DDAFD
// 106   ----------------------------------------
 BYTE   PATT
  POIN2 Label_15_014DDB6F
// 107   ----------------------------------------
 BYTE   PATT
  POIN2 Label_15_014DDAFD
// 108   ----------------------------------------
 BYTE   N06  Bn0  v127
 BYTE   N06  Cn1
 BYTE   W12
 BYTE   Dn2  v104
 BYTE   W12
 BYTE   Cn2
 BYTE   W12
 BYTE   Bn1
 BYTE   W12
 BYTE   Dn1  v127
 BYTE   N06  Ds1
 BYTE   N06  En1
 BYTE   W24
 BYTE   Dn1
 BYTE   N06  Ds1
 BYTE   N06  En1
 BYTE   N06  Cn2  v104
 BYTE   W12
 BYTE   Bn1
 BYTE   W06
 BYTE   FINE

//******************************************************//
	ALIGN 4

DKC2CrocodileCacophonyMeatOfJustice:
	BYTE	16	// NumTrks
	BYTE	0	// NumBlks
	BYTE	DKC2CrocodileCacophonyMeatOfJustice_pri	// Priority
	BYTE	DKC2CrocodileCacophonyMeatOfJustice_rev	// Reverb.
    
	POIN2	DKC2CrocodileCacophonyMeatOfJustice_grp
    
	POIN2	DKC2CrocodileCacophonyMeatOfJustice_001
	POIN2	DKC2CrocodileCacophonyMeatOfJustice_002
	POIN2	DKC2CrocodileCacophonyMeatOfJustice_003
	POIN2	DKC2CrocodileCacophonyMeatOfJustice_004
	POIN2	DKC2CrocodileCacophonyMeatOfJustice_005
	POIN2	DKC2CrocodileCacophonyMeatOfJustice_006
	POIN2	DKC2CrocodileCacophonyMeatOfJustice_007
	POIN2	DKC2CrocodileCacophonyMeatOfJustice_008
	POIN2	DKC2CrocodileCacophonyMeatOfJustice_009
	POIN2	DKC2CrocodileCacophonyMeatOfJustice_010
	POIN2	DKC2CrocodileCacophonyMeatOfJustice_011
	POIN2	DKC2CrocodileCacophonyMeatOfJustice_012
	POIN2	DKC2CrocodileCacophonyMeatOfJustice_013
	POIN2	DKC2CrocodileCacophonyMeatOfJustice_014
	POIN2	DKC2CrocodileCacophonyMeatOfJustice_015
	POIN2	DKC2CrocodileCacophonyMeatOfJustice_016

	
