//Event file generated from Sappy .s format.
	#include "MPlayDef.event"

	#define	DKCVoicesoftheTemplePandan_grp  voicegroup000
	#define	DKCVoicesoftheTemplePandan_pri  0
	#define	DKCVoicesoftheTemplePandan_rev  0
	#define	DKCVoicesoftheTemplePandan_mvl  127
	#define	DKCVoicesoftheTemplePandan_key  0
	#define	DKCVoicesoftheTemplePandan_tbs  1
	#define	DKCVoicesoftheTemplePandan_exg  0
	#define	DKCVoicesoftheTemplePandan_cmp  1

	// .rodata
	//	DKCVoicesoftheTemplePandan
	ALIGN 4


//**************** Track 1 (Midi-Chn.0) ****************//

DKCVoicesoftheTemplePandan_001:
// 000   ----------------------------------------
 BYTE   KEYSH   DKCVoicesoftheTemplePandan_key+0
Label_0_54D75A:
 BYTE   TEMPO   60*DKCVoicesoftheTemplePandan_tbs/2
 BYTE   VOICE   49
 BYTE   VOL   60*DKCVoicesoftheTemplePandan_mvl/mxv
 BYTE   PAN   c_v+0
 BYTE   VOL   37*DKCVoicesoftheTemplePandan_mvl/mxv
 BYTE   N96  Cn1  v127
 BYTE   N96  Gn1
 BYTE   N96  Gn2
 BYTE   W96
// 001   ----------------------------------------
Label_0_54D76C:
 BYTE   N96  Cs1  v127
 BYTE   N96  Gs1
 BYTE   N96  Gs2
 BYTE   W96
 BYTE   PEND 
// 002   ----------------------------------------
Label_0_54D775:
 BYTE   N96  Cn1  v127
 BYTE   N96  Gn1
 BYTE   N96  Gn2
 BYTE   W96
 BYTE   PEND 
// 003   ----------------------------------------
 BYTE   PATT
  POIN2 Label_0_54D76C
// 004   ----------------------------------------
 BYTE   PATT
  POIN2 Label_0_54D775
// 005   ----------------------------------------
 BYTE   PATT
  POIN2 Label_0_54D76C
// 006   ----------------------------------------
 BYTE   PATT
  POIN2 Label_0_54D775
// 007   ----------------------------------------
 BYTE   PATT
  POIN2 Label_0_54D76C
// 008   ----------------------------------------
Label_0_54D797:
 BYTE   N96  Cs1  v127
 BYTE   N96  As1
 BYTE   N96  As2
 BYTE   W96
 BYTE   PEND 
// 009   ----------------------------------------
Label_0_54D7A0:
 BYTE   N96  Bn0  v127
 BYTE   N96  Bn1
 BYTE   N96  Bn2
 BYTE   W96
 BYTE   PEND 
// 010   ----------------------------------------
Label_0_54D7A9:
 BYTE   TIE  Cn1  v127
 BYTE   TIE  Cn2
 BYTE   TIE  Cn3
 BYTE   W96
 BYTE   PEND 
// 011   ----------------------------------------
 BYTE   W96
// 012   ----------------------------------------
 BYTE   W96
// 013   ----------------------------------------
 BYTE   W96
// 014   ----------------------------------------
 BYTE   EOT
 BYTE   Cn1  v048
 BYTE   Cn3
Label_0_54D7B9:
 BYTE   TIE  Gs1  v127
 BYTE   TIE  Cs2
 BYTE   TIE  Gs2
 BYTE   W96
 BYTE   PEND 
// 015   ----------------------------------------
 BYTE   W36
 BYTE   W02
 BYTE   EOT
 BYTE   Cs2
 BYTE   W04
 BYTE   N54  Cn2
 BYTE   W54
// 016   ----------------------------------------
 BYTE   EOT
 BYTE   Gs1  v056
Label_0_54D7CD:
 BYTE   N96  Gs1  v127
 BYTE   N36  Cs2
 BYTE   N96  Gs2
 BYTE   W42
 BYTE   N54  Cn2
 BYTE   W54
 BYTE   PEND 
// 017   ----------------------------------------
Label_0_54D7D9:
 BYTE   N96  An1  v127
 BYTE   N48  Dn2
 BYTE   N96  An2
 BYTE   W48
 BYTE   N48  Cs2
 BYTE   W48
 BYTE   PEND 
// 018   ----------------------------------------
Label_0_54D7E5:
 BYTE   TIE  An1  v127
 BYTE   N96  Dn2
 BYTE   TIE  An2
 BYTE   W96
 BYTE   PEND 
// 019   ----------------------------------------
 BYTE   N96  Cs2
 BYTE   W96
// 020   ----------------------------------------
 BYTE   EOT
 BYTE   An1  v057
Label_0_54D7F4:
 BYTE   N48  Gn1  v127
 BYTE   N48  Cn2
 BYTE   N48  Gn2
 BYTE   W48
 BYTE   Dn1
 BYTE   N48  Gn1
 BYTE   N48  Dn2
 BYTE   W48
 BYTE   PEND 
// 021   ----------------------------------------
Label_0_54D803:
 BYTE   TIE  Cn1  v127
 BYTE   TIE  Cn2
 BYTE   W96
 BYTE   PEND 
// 022   ----------------------------------------
 BYTE   W96
// 023   ----------------------------------------
 BYTE   W96
// 024   ----------------------------------------
 BYTE   EOT
 BYTE   Cn1  v048
// 025   ----------------------------------------
 BYTE   PATT
  POIN2 Label_0_54D775
// 026   ----------------------------------------
 BYTE   PATT
  POIN2 Label_0_54D76C
// 027   ----------------------------------------
 BYTE   PATT
  POIN2 Label_0_54D775
// 028   ----------------------------------------
 BYTE   PATT
  POIN2 Label_0_54D76C
// 029   ----------------------------------------
 BYTE   PATT
  POIN2 Label_0_54D797
// 030   ----------------------------------------
 BYTE   PATT
  POIN2 Label_0_54D7A0
// 031   ----------------------------------------
 BYTE   PATT
  POIN2 Label_0_54D7A9
// 032   ----------------------------------------
 BYTE   W96
// 033   ----------------------------------------
 BYTE   W96
// 034   ----------------------------------------
 BYTE   W96
// 035   ----------------------------------------
 BYTE   EOT
 BYTE   Cn1  v048
 BYTE   Cn3
// 036   ----------------------------------------
 BYTE   PATT
  POIN2 Label_0_54D7B9
// 037   ----------------------------------------
 BYTE   W36
 BYTE   W02
 BYTE   EOT
 BYTE   Cs2
 BYTE   W04
 BYTE   N54  Cn2  v127
 BYTE   W54
// 038   ----------------------------------------
 BYTE   EOT
 BYTE   Gs1  v056
// 039   ----------------------------------------
 BYTE   PATT
  POIN2 Label_0_54D7CD
// 040   ----------------------------------------
 BYTE   PATT
  POIN2 Label_0_54D7D9
// 041   ----------------------------------------
 BYTE   PATT
  POIN2 Label_0_54D7E5
// 042   ----------------------------------------
 BYTE   N96  Cs2  v127
 BYTE   W96
// 043   ----------------------------------------
 BYTE   EOT
 BYTE   An1  v057
// 044   ----------------------------------------
 BYTE   PATT
  POIN2 Label_0_54D7F4
// 045   ----------------------------------------
 BYTE   PATT
  POIN2 Label_0_54D803
// 046   ----------------------------------------
 BYTE   W96
// 047   ----------------------------------------
 BYTE   W03
 BYTE   GoTo
  POIN2 Label_0_54D75A
// 048   ----------------------------------------
 BYTE   W92
 BYTE   W01
 BYTE   EOT
 BYTE   Cn1  v048
 BYTE   N96  Cn1  v127
 BYTE   N96  Gn1
 BYTE   N96  Gn2
 BYTE   W04
// 049   ----------------------------------------
 BYTE   VOL   37*DKCVoicesoftheTemplePandan_mvl/mxv
 BYTE   W04
 BYTE   Gs2
 BYTE   W04
 BYTE   Gs2
 BYTE   W04
 BYTE   Gn2
 BYTE   W04
 BYTE   Fs2
 BYTE   W05
 BYTE   Fs2
 BYTE   W04
 BYTE   Fn2
 BYTE   W04
 BYTE   En2
 BYTE   W04
 BYTE   En2
 BYTE   W04
 BYTE   Ds2
 BYTE   W04
 BYTE   Ds2
 BYTE   W05
 BYTE   Dn2
 BYTE   W04
 BYTE   Cs2
 BYTE   W04
 BYTE   Cs2
 BYTE   W04
 BYTE   Cn2
 BYTE   W04
 BYTE   Bn1
 BYTE   W04
 BYTE   Bn1
 BYTE   W05
 BYTE   As1
 BYTE   W04
 BYTE   An1
 BYTE   W04
 BYTE   An1
 BYTE   W04
 BYTE   Gs1
 BYTE   W04
 BYTE   Gs1
 BYTE   W04
 BYTE   Gn1
 BYTE   W01
 BYTE   N96  Cs1
 BYTE   N96  Gs1
 BYTE   N96  Gs2
 BYTE   W04
// 050   ----------------------------------------
 BYTE   VOL   22*DKCVoicesoftheTemplePandan_mvl/mxv
 BYTE   W04
 BYTE   Fs1
 BYTE   W04
 BYTE   Fn1
 BYTE   W04
 BYTE   En1
 BYTE   W04
 BYTE   En1
 BYTE   W05
 BYTE   Ds1
 BYTE   W04
 BYTE   Ds1
 BYTE   W04
 BYTE   Dn1
 BYTE   W04
 BYTE   Cs1
 BYTE   W04
 BYTE   Cs1
 BYTE   W04
 BYTE   Cn1
 BYTE   W05
 BYTE   Bn0
 BYTE   W04
 BYTE   Bn0
 BYTE   W04
 BYTE   As0
 BYTE   W04
 BYTE   As0
 BYTE   W04
 BYTE   An0
 BYTE   W04
 BYTE   Gs0
 BYTE   W05
 BYTE   Gs0
 BYTE   W04
 BYTE   Gn0
 BYTE   W04
 BYTE   Fs0
 BYTE   W04
 BYTE   Fs0
 BYTE   W04
 BYTE   Fn0
 BYTE   W04
 BYTE   En0
 BYTE   W01
 BYTE   N96  Cn1
 BYTE   N96  Gn1
 BYTE   N96  Gn2
 BYTE   W04
// 051   ----------------------------------------
 BYTE   VOL   8*DKCVoicesoftheTemplePandan_mvl/mxv
 BYTE   W04
 BYTE   Ds0
 BYTE   W04
 BYTE   Ds0
 BYTE   W04
 BYTE   Dn0
 BYTE   W04
 BYTE   Cs0
 BYTE   W05
 BYTE   Cs0
 BYTE   W04
 BYTE   Cn0
 BYTE   W04
 BYTE   BnM1
 BYTE   W04
 BYTE   BnM1
 BYTE   W04
 BYTE   AsM1
 BYTE   W04
 BYTE   AsM1
 BYTE   W05
 BYTE   AnM1
 BYTE   W04
 BYTE   GsM1
 BYTE   W04
 BYTE   GsM1
 BYTE   W04
 BYTE   GnM1
 BYTE   W04
 BYTE   FsM1
 BYTE   W04
 BYTE   FsM1
 BYTE   W05
 BYTE   FnM1
 BYTE   W04
 BYTE   FnM1
 BYTE   W04
 BYTE   EnM1
 BYTE   W04
 BYTE   DsM1
 BYTE   W04
 BYTE   DsM1
 BYTE   W04
 BYTE   DnM1
 BYTE   W01
 BYTE   N96  Cs1
 BYTE   N96  Gs1
 BYTE   N96  Gs2
 BYTE   W04
// 052   ----------------------------------------
 BYTE   VOL   0*DKCVoicesoftheTemplePandan_mvl/mxv
 BYTE   W04
 BYTE   CsM1
 BYTE   W04
 BYTE   CnM1
 BYTE   W04
 BYTE   BnM2
 BYTE   W04
 BYTE   BnM2
 BYTE   W05
 BYTE   AsM2
 BYTE   W04
 BYTE   AsM2
 BYTE   W04
 BYTE   AnM2
 BYTE   W04
 BYTE   GsM2
 BYTE   W04
 BYTE   GsM2
 BYTE   W04
 BYTE   GnM2
 BYTE   W05
 BYTE   FsM2
 BYTE   W04
 BYTE   FsM2
 BYTE   W04
 BYTE   FnM2
 BYTE   W04
 BYTE   FnM2
 BYTE   W04
 BYTE   EnM2
 BYTE   W04
 BYTE   DsM2
 BYTE   W05
 BYTE   DsM2
 BYTE   W04
 BYTE   DnM2
 BYTE   W04
 BYTE   CsM2
 BYTE   W04
 BYTE   CsM2
 BYTE   W04
 BYTE   CnM2
 BYTE   W04
 BYTE   CnM2
 BYTE   W01
 BYTE   CnM2
 BYTE   FINE

//**************** Track 2 (Midi-Chn.1) ****************//

DKCVoicesoftheTemplePandan_002:
// 000   ----------------------------------------
 BYTE   KEYSH   DKCVoicesoftheTemplePandan_key+0
Label_1_54EAFD:
 BYTE   VOICE   47
 BYTE   VOL   60*DKCVoicesoftheTemplePandan_mvl/mxv
 BYTE   PAN   c_v+0
 BYTE   VOL   27*DKCVoicesoftheTemplePandan_mvl/mxv
 BYTE   N03  Ds1  v127
 BYTE   W12
 BYTE   N03
 BYTE   W09
 BYTE   N03
 BYTE   W03
 BYTE   N03
 BYTE   W06
 BYTE   N03
 BYTE   W06
 BYTE   N03
 BYTE   W12
 BYTE   N03
 BYTE   W12
 BYTE   N03
 BYTE   W09
 BYTE   N03
 BYTE   W03
 BYTE   N03
 BYTE   W06
 BYTE   N03
 BYTE   W06
 BYTE   N03
 BYTE   W12
// 001   ----------------------------------------
Label_1_54EB1F:
 BYTE   N03  Ds1  v127
 BYTE   W12
 BYTE   N03
 BYTE   W09
 BYTE   N03
 BYTE   W03
 BYTE   N03
 BYTE   W06
 BYTE   N03
 BYTE   W06
 BYTE   N03
 BYTE   W12
 BYTE   N03
 BYTE   W12
 BYTE   N03
 BYTE   W09
 BYTE   N03
 BYTE   W03
 BYTE   N03
 BYTE   W06
 BYTE   N03
 BYTE   W06
 BYTE   N03
 BYTE   W12
 BYTE   PEND 
// 002   ----------------------------------------
 BYTE   PATT
  POIN2 Label_1_54EB1F
// 003   ----------------------------------------
 BYTE   PATT
  POIN2 Label_1_54EB1F
// 004   ----------------------------------------
 BYTE   PATT
  POIN2 Label_1_54EB1F
// 005   ----------------------------------------
 BYTE   PATT
  POIN2 Label_1_54EB1F
// 006   ----------------------------------------
 BYTE   PATT
  POIN2 Label_1_54EB1F
// 007   ----------------------------------------
 BYTE   PATT
  POIN2 Label_1_54EB1F
// 008   ----------------------------------------
 BYTE   PATT
  POIN2 Label_1_54EB1F
// 009   ----------------------------------------
 BYTE   PATT
  POIN2 Label_1_54EB1F
// 010   ----------------------------------------
 BYTE   PATT
  POIN2 Label_1_54EB1F
// 011   ----------------------------------------
 BYTE   PATT
  POIN2 Label_1_54EB1F
// 012   ----------------------------------------
 BYTE   PATT
  POIN2 Label_1_54EB1F
// 013   ----------------------------------------
 BYTE   PATT
  POIN2 Label_1_54EB1F
// 014   ----------------------------------------
 BYTE   PATT
  POIN2 Label_1_54EB1F
// 015   ----------------------------------------
 BYTE   PATT
  POIN2 Label_1_54EB1F
// 016   ----------------------------------------
 BYTE   PATT
  POIN2 Label_1_54EB1F
// 017   ----------------------------------------
 BYTE   PATT
  POIN2 Label_1_54EB1F
// 018   ----------------------------------------
 BYTE   PATT
  POIN2 Label_1_54EB1F
// 019   ----------------------------------------
 BYTE   PATT
  POIN2 Label_1_54EB1F
// 020   ----------------------------------------
 BYTE   PATT
  POIN2 Label_1_54EB1F
// 021   ----------------------------------------
 BYTE   PATT
  POIN2 Label_1_54EB1F
// 022   ----------------------------------------
 BYTE   PATT
  POIN2 Label_1_54EB1F
// 023   ----------------------------------------
 BYTE   PATT
  POIN2 Label_1_54EB1F
// 024   ----------------------------------------
 BYTE   PATT
  POIN2 Label_1_54EB1F
// 025   ----------------------------------------
 BYTE   PATT
  POIN2 Label_1_54EB1F
// 026   ----------------------------------------
 BYTE   PATT
  POIN2 Label_1_54EB1F
// 027   ----------------------------------------
 BYTE   PATT
  POIN2 Label_1_54EB1F
// 028   ----------------------------------------
 BYTE   PATT
  POIN2 Label_1_54EB1F
// 029   ----------------------------------------
 BYTE   PATT
  POIN2 Label_1_54EB1F
// 030   ----------------------------------------
 BYTE   PATT
  POIN2 Label_1_54EB1F
// 031   ----------------------------------------
 BYTE   PATT
  POIN2 Label_1_54EB1F
// 032   ----------------------------------------
 BYTE   PATT
  POIN2 Label_1_54EB1F
// 033   ----------------------------------------
 BYTE   PATT
  POIN2 Label_1_54EB1F
// 034   ----------------------------------------
 BYTE   PATT
  POIN2 Label_1_54EB1F
// 035   ----------------------------------------
 BYTE   PATT
  POIN2 Label_1_54EB1F
// 036   ----------------------------------------
 BYTE   PATT
  POIN2 Label_1_54EB1F
// 037   ----------------------------------------
 BYTE   PATT
  POIN2 Label_1_54EB1F
// 038   ----------------------------------------
 BYTE   PATT
  POIN2 Label_1_54EB1F
// 039   ----------------------------------------
 BYTE   PATT
  POIN2 Label_1_54EB1F
// 040   ----------------------------------------
 BYTE   PATT
  POIN2 Label_1_54EB1F
// 041   ----------------------------------------
 BYTE   PATT
  POIN2 Label_1_54EB1F
// 042   ----------------------------------------
 BYTE   PATT
  POIN2 Label_1_54EB1F
// 043   ----------------------------------------
 BYTE   N03  Ds1  v127
 BYTE   W03
 BYTE   GoTo
  POIN2 Label_1_54EAFD
// 044   ----------------------------------------
 BYTE   W09
 BYTE   N03  Ds1  v127
 BYTE   W09
 BYTE   N03
 BYTE   W03
 BYTE   N03
 BYTE   W06
 BYTE   N03
 BYTE   W06
 BYTE   N03
 BYTE   W12
 BYTE   N03
 BYTE   W12
 BYTE   N03
 BYTE   W09
 BYTE   N03
 BYTE   W03
 BYTE   N03
 BYTE   W06
 BYTE   N03
 BYTE   W06
 BYTE   N03
 BYTE   W12
 BYTE   N03
 BYTE   W05
// 045   ----------------------------------------
 BYTE   VOL   26*DKCVoicesoftheTemplePandan_mvl/mxv
 BYTE   W05
 BYTE   An1
 BYTE   W02
 BYTE   N03
 BYTE   W03
 BYTE   VOL   25*DKCVoicesoftheTemplePandan_mvl/mxv
 BYTE   W05
 BYTE   Gs1
 BYTE   W01
 BYTE   N03
 BYTE   W03
 BYTE   N03
 BYTE   W01
 BYTE   VOL   24*DKCVoicesoftheTemplePandan_mvl/mxv
 BYTE   W05
 BYTE   Gn1
 BYTE   N03
 BYTE   W05
 BYTE   VOL   22*DKCVoicesoftheTemplePandan_mvl/mxv
 BYTE   W01
 BYTE   N03
 BYTE   W04
 BYTE   VOL   22*DKCVoicesoftheTemplePandan_mvl/mxv
 BYTE   W06
 BYTE   Fn1
 BYTE   W02
 BYTE   N03
 BYTE   W03
 BYTE   VOL   20*DKCVoicesoftheTemplePandan_mvl/mxv
 BYTE   W05
 BYTE   En1
 BYTE   W04
 BYTE   N03
 BYTE   W01
 BYTE   VOL   19*DKCVoicesoftheTemplePandan_mvl/mxv
 BYTE   W05
 BYTE   Ds1
 BYTE   W03
 BYTE   N03
 BYTE   W02
 BYTE   VOL   18*DKCVoicesoftheTemplePandan_mvl/mxv
 BYTE   W01
 BYTE   N03
 BYTE   W04
 BYTE   VOL   17*DKCVoicesoftheTemplePandan_mvl/mxv
 BYTE   W02
 BYTE   N03
 BYTE   W03
 BYTE   VOL   17*DKCVoicesoftheTemplePandan_mvl/mxv
 BYTE   W03
 BYTE   N03
 BYTE   W03
 BYTE   VOL   16*DKCVoicesoftheTemplePandan_mvl/mxv
 BYTE   W05
 BYTE   Bn0
 BYTE   W04
 BYTE   N03
 BYTE   W01
 BYTE   VOL   15*DKCVoicesoftheTemplePandan_mvl/mxv
 BYTE   W05
// 046   ----------------------------------------
 BYTE   As0
 BYTE   W05
 BYTE   As0
 BYTE   W01
 BYTE   N03
 BYTE   W04
 BYTE   VOL   13*DKCVoicesoftheTemplePandan_mvl/mxv
 BYTE   W05
 BYTE   Gs0
 BYTE   N03
 BYTE   W03
 BYTE   N03
 BYTE   W02
 BYTE   VOL   12*DKCVoicesoftheTemplePandan_mvl/mxv
 BYTE   W04
 BYTE   N03
 BYTE   W01
 BYTE   VOL   11*DKCVoicesoftheTemplePandan_mvl/mxv
 BYTE   W05
 BYTE   N03
 BYTE   W01
 BYTE   VOL   10*DKCVoicesoftheTemplePandan_mvl/mxv
 BYTE   W05
 BYTE   Fs0
 BYTE   W05
 BYTE   Fn0
 BYTE   W01
 BYTE   N03
 BYTE   W04
 BYTE   VOL   8*DKCVoicesoftheTemplePandan_mvl/mxv
 BYTE   W05
 BYTE   En0
 BYTE   W03
 BYTE   N03
 BYTE   W02
 BYTE   VOL   7*DKCVoicesoftheTemplePandan_mvl/mxv
 BYTE   W05
 BYTE   Ds0
 BYTE   W02
 BYTE   N03
 BYTE   W03
 BYTE   VOL   6*DKCVoicesoftheTemplePandan_mvl/mxv
 BYTE   N03
 BYTE   W06
 BYTE   VOL   5*DKCVoicesoftheTemplePandan_mvl/mxv
 BYTE   N03
 BYTE   W05
 BYTE   VOL   5*DKCVoicesoftheTemplePandan_mvl/mxv
 BYTE   W01
 BYTE   N03
 BYTE   W04
 BYTE   VOL   4*DKCVoicesoftheTemplePandan_mvl/mxv
 BYTE   W05
 BYTE   BnM1
 BYTE   W03
 BYTE   N03
 BYTE   W02
 BYTE   VOL   3*DKCVoicesoftheTemplePandan_mvl/mxv
 BYTE   W05
// 047   ----------------------------------------
 BYTE   AsM1
 BYTE   W05
 BYTE   AsM1
 BYTE   N03
 BYTE   W05
 BYTE   VOL   1*DKCVoicesoftheTemplePandan_mvl/mxv
 BYTE   W04
 BYTE   N03
 BYTE   W02
 BYTE   VOL   0*DKCVoicesoftheTemplePandan_mvl/mxv
 BYTE   W01
 BYTE   N03
 BYTE   W04
 BYTE   VOL   0*DKCVoicesoftheTemplePandan_mvl/mxv
 BYTE   W02
 BYTE   N03
 BYTE   W03
 BYTE   VOL   0*DKCVoicesoftheTemplePandan_mvl/mxv
 BYTE   W03
 BYTE   N03
 BYTE   W02
 BYTE   VOL   0*DKCVoicesoftheTemplePandan_mvl/mxv
 BYTE   W05
 BYTE   FsM1
 BYTE   W05
 BYTE   FnM1
 BYTE   N03
 BYTE   W05
 BYTE   VOL   0*DKCVoicesoftheTemplePandan_mvl/mxv
 BYTE   W05
 BYTE   EnM1
 BYTE   W02
 BYTE   N03
 BYTE   W03
 BYTE   VOL   0*DKCVoicesoftheTemplePandan_mvl/mxv
 BYTE   W06
 BYTE   DsM1
 BYTE   N03
 BYTE   W03
 BYTE   N03
 BYTE   W02
 BYTE   VOL   0*DKCVoicesoftheTemplePandan_mvl/mxv
 BYTE   W04
 BYTE   N03
 BYTE   W01
 BYTE   VOL   0*DKCVoicesoftheTemplePandan_mvl/mxv
 BYTE   W05
 BYTE   CsM1
 BYTE   N03
 BYTE   W05
 BYTE   VOL   0*DKCVoicesoftheTemplePandan_mvl/mxv
 BYTE   W05
 BYTE   BnM2
 BYTE   W02
 BYTE   N03
 BYTE   W03
 BYTE   VOL   0*DKCVoicesoftheTemplePandan_mvl/mxv
 BYTE   W05
// 048   ----------------------------------------
 BYTE   AsM2
 BYTE   W04
 BYTE   N03
 BYTE   W02
 BYTE   VOL   0*DKCVoicesoftheTemplePandan_mvl/mxv
 BYTE   W05
 BYTE   AnM2
 BYTE   W02
 BYTE   N03
 BYTE   W03
 BYTE   VOL   0*DKCVoicesoftheTemplePandan_mvl/mxv
 BYTE   N03
 BYTE   W05
 BYTE   VOL   0*DKCVoicesoftheTemplePandan_mvl/mxv
 BYTE   W01
 BYTE   N03
 BYTE   W04
 BYTE   VOL   0*DKCVoicesoftheTemplePandan_mvl/mxv
 BYTE   W02
 BYTE   N03
 BYTE   W03
 BYTE   VOL   0*DKCVoicesoftheTemplePandan_mvl/mxv
 BYTE   W05
 BYTE   FsM2
 BYTE   W04
 BYTE   N03
 BYTE   W01
 BYTE   VOL   0*DKCVoicesoftheTemplePandan_mvl/mxv
 BYTE   W06
 BYTE   FnM2
 BYTE   W05
 BYTE   EnM2
 BYTE   N03
 BYTE   W05
 BYTE   VOL   0*DKCVoicesoftheTemplePandan_mvl/mxv
 BYTE   W04
 BYTE   N03
 BYTE   W01
 BYTE   VOL   0*DKCVoicesoftheTemplePandan_mvl/mxv
 BYTE   W02
 BYTE   N03
 BYTE   W03
 BYTE   VOL   0*DKCVoicesoftheTemplePandan_mvl/mxv
 BYTE   W03
 BYTE   N03
 BYTE   W02
 BYTE   VOL   0*DKCVoicesoftheTemplePandan_mvl/mxv
 BYTE   W04
 BYTE   N03
 BYTE   W01
 BYTE   VOL   0*DKCVoicesoftheTemplePandan_mvl/mxv
 BYTE   W05
 BYTE   CnM2
 BYTE   W05
 BYTE   CnM2
 BYTE   W01
 BYTE   CnM2
 BYTE   FINE

//**************** Track 3 (Midi-Chn.2) ****************//

DKCVoicesoftheTemplePandan_003:
// 000   ----------------------------------------
 BYTE   KEYSH   DKCVoicesoftheTemplePandan_key+0
Label_2_0113D992:
 BYTE   VOICE   73
 BYTE   VOL   60*DKCVoicesoftheTemplePandan_mvl/mxv
 BYTE   PAN   c_v+0
 BYTE   VOL   40*DKCVoicesoftheTemplePandan_mvl/mxv
 BYTE   W96
// 001   ----------------------------------------
 BYTE   W96
// 002   ----------------------------------------
 BYTE   W96
// 003   ----------------------------------------
Label_2_0113D99D:
 BYTE   W90
 BYTE   N03  Gn4  v127
 BYTE   W03
 BYTE   Gs4
 BYTE   W03
 BYTE   PEND 
// 004   ----------------------------------------
Label_2_0113D9A5:
 BYTE   N18  Gn4  v127
 BYTE   W18
 BYTE   N03  Gn3
 BYTE   W03
 BYTE   Gs3
 BYTE   W03
 BYTE   N72  Gn3
 BYTE   W01
 BYTE   VOL   39*DKCVoicesoftheTemplePandan_mvl/mxv
 BYTE   W01
 BYTE   Bn2
 BYTE   W01
 BYTE   As2
 BYTE   W01
 BYTE   An2
 BYTE   W01
 BYTE   An2
 BYTE   W01
 BYTE   Gs2
 BYTE   W01
 BYTE   Gs2
 BYTE   W02
 BYTE   Gn2
 BYTE   W01
 BYTE   Fs2
 BYTE   W01
 BYTE   Fs2
 BYTE   W01
 BYTE   Fn2
 BYTE   W01
 BYTE   En2
 BYTE   W01
 BYTE   En2
 BYTE   W01
 BYTE   Ds2
 BYTE   W01
 BYTE   Ds2
 BYTE   W02
 BYTE   Dn2
 BYTE   W01
 BYTE   Cs2
 BYTE   W01
 BYTE   Cs2
 BYTE   W01
 BYTE   Cn2
 BYTE   W01
 BYTE   Bn1
 BYTE   W01
 BYTE   Bn1
 BYTE   W01
 BYTE   As1
 BYTE   W01
 BYTE   An1
 BYTE   W02
 BYTE   An1
 BYTE   W01
 BYTE   Gs1
 BYTE   W01
 BYTE   Gs1
 BYTE   W01
 BYTE   Gn1
 BYTE   W01
 BYTE   Fs1
 BYTE   W01
 BYTE   Fs1
 BYTE   W01
 BYTE   Fn1
 BYTE   W01
 BYTE   En1
 BYTE   W02
 BYTE   En1
 BYTE   W01
 BYTE   Ds1
 BYTE   W01
 BYTE   Ds1
 BYTE   W01
 BYTE   Dn1
 BYTE   W01
 BYTE   Cs1
 BYTE   W01
 BYTE   Cs1
 BYTE   W01
 BYTE   Cn1
 BYTE   W01
 BYTE   Bn0
 BYTE   W02
 BYTE   Bn0
 BYTE   W01
 BYTE   As0
 BYTE   W01
 BYTE   As0
 BYTE   W01
 BYTE   An0
 BYTE   W01
 BYTE   Gs0
 BYTE   W01
 BYTE   Gs0
 BYTE   W01
 BYTE   Gn0
 BYTE   W01
 BYTE   Fs0
 BYTE   W02
 BYTE   Fs0
 BYTE   W01
 BYTE   Fn0
 BYTE   W01
 BYTE   En0
 BYTE   W01
 BYTE   En0
 BYTE   W01
 BYTE   Ds0
 BYTE   W01
 BYTE   Ds0
 BYTE   W01
 BYTE   Dn0
 BYTE   W01
 BYTE   Cs0
 BYTE   W02
 BYTE   Cs0
 BYTE   W01
 BYTE   Cn0
 BYTE   W01
 BYTE   BnM1
 BYTE   W01
 BYTE   BnM1
 BYTE   W01
 BYTE   AsM1
 BYTE   W01
 BYTE   AsM1
 BYTE   W01
 BYTE   AnM1
 BYTE   W01
 BYTE   GsM1
 BYTE   W02
 BYTE   PEND 
// 005   ----------------------------------------
Label_2_0113DA31:
 BYTE   VOL   40*DKCVoicesoftheTemplePandan_mvl/mxv
 BYTE   W90
 BYTE   N03  Gn4  v127
 BYTE   W03
 BYTE   Gs4
 BYTE   W03
 BYTE   PEND 
// 006   ----------------------------------------
Label_2_0113DA3B:
 BYTE   N06  Gn4  v127
 BYTE   W06
 BYTE   Fn4
 BYTE   W06
 BYTE   As3
 BYTE   W06
 BYTE   N24  Cn4
 BYTE   W24
 BYTE   N03  Gn3
 BYTE   W03
 BYTE   Gs3
 BYTE   W03
 BYTE   N06  Gn3
 BYTE   W06
 BYTE   Fn3
 BYTE   W06
 BYTE   As2
 BYTE   W06
 BYTE   TIE  Cn3
 BYTE   W30
 BYTE   PEND 
// 007   ----------------------------------------
Label_2_0113DA56:
 BYTE   W01
 BYTE   VOL   39*DKCVoicesoftheTemplePandan_mvl/mxv
 BYTE   W02
 BYTE   Bn2
 BYTE   W01
 BYTE   As2
 BYTE   W02
 BYTE   An2
 BYTE   W01
 BYTE   An2
 BYTE   W02
 BYTE   Gs2
 BYTE   W01
 BYTE   Gs2
 BYTE   W02
 BYTE   Gn2
 BYTE   W01
 BYTE   Fs2
 BYTE   W02
 BYTE   Fs2
 BYTE   W01
 BYTE   Fn2
 BYTE   W02
 BYTE   En2
 BYTE   W01
 BYTE   En2
 BYTE   W02
 BYTE   Ds2
 BYTE   W01
 BYTE   Ds2
 BYTE   W02
 BYTE   Dn2
 BYTE   W01
 BYTE   Cs2
 BYTE   W02
 BYTE   Cs2
 BYTE   W01
 BYTE   Cn2
 BYTE   W02
 BYTE   Bn1
 BYTE   W01
 BYTE   Bn1
 BYTE   W02
 BYTE   As1
 BYTE   W01
 BYTE   An1
 BYTE   W02
 BYTE   An1
 BYTE   W01
 BYTE   Gs1
 BYTE   W02
 BYTE   Gs1
 BYTE   W01
 BYTE   Gn1
 BYTE   W02
 BYTE   Fs1
 BYTE   W01
 BYTE   Fs1
 BYTE   W02
 BYTE   Fn1
 BYTE   W01
 BYTE   En1
 BYTE   W02
 BYTE   En1
 BYTE   W01
 BYTE   Ds1
 BYTE   W02
 BYTE   Ds1
 BYTE   W01
 BYTE   Dn1
 BYTE   W02
 BYTE   Cs1
 BYTE   W01
 BYTE   Cs1
 BYTE   W02
 BYTE   Cn1
 BYTE   W01
 BYTE   Bn0
 BYTE   W02
 BYTE   Bn0
 BYTE   W01
 BYTE   As0
 BYTE   W02
 BYTE   As0
 BYTE   W01
 BYTE   An0
 BYTE   W02
 BYTE   Gs0
 BYTE   W01
 BYTE   Gs0
 BYTE   W02
 BYTE   Gn0
 BYTE   W01
 BYTE   Fs0
 BYTE   W02
 BYTE   Fs0
 BYTE   W01
 BYTE   Fn0
 BYTE   W02
 BYTE   En0
 BYTE   W01
 BYTE   En0
 BYTE   W02
 BYTE   Ds0
 BYTE   W01
 BYTE   Ds0
 BYTE   W02
 BYTE   Dn0
 BYTE   W01
 BYTE   Cs0
 BYTE   W02
 BYTE   Cs0
 BYTE   W01
 BYTE   Cn0
 BYTE   W02
 BYTE   BnM1
 BYTE   W01
 BYTE   BnM1
 BYTE   W02
 BYTE   AsM1
 BYTE   W01
 BYTE   AsM1
 BYTE   W02
 BYTE   AnM1
 BYTE   W01
 BYTE   GsM1
 BYTE   W02
 BYTE   PEND 
// 008   ----------------------------------------
 BYTE   EOT
 BYTE   Cn3
Label_2_0113DAD9:
 BYTE   VOL   0*DKCVoicesoftheTemplePandan_mvl/mxv
 BYTE   W48
 BYTE   Cn3
 BYTE   W12
 BYTE   N03  Cn4  v127
 BYTE   W03
 BYTE   As3
 BYTE   W03
 BYTE   Gn3
 BYTE   W03
 BYTE   As3
 BYTE   W03
 BYTE   N12  Cn4
 BYTE   W12
 BYTE   Ds4
 BYTE   W12
 BYTE   PEND 
// 009   ----------------------------------------
Label_2_0113DAEE:
 BYTE   N24  Dn4  v127
 BYTE   W24
 BYTE   As3
 BYTE   W24
 BYTE   N48  Gn3
 BYTE   W48
 BYTE   PEND 
// 010   ----------------------------------------
 BYTE   W96
// 011   ----------------------------------------
Label_2_0113DAF9:
 BYTE   N06  Fn3  v127
 BYTE   W06
 BYTE   N42  Gn3
 BYTE   W42
 BYTE   N06  As2
 BYTE   W06
 BYTE   N42  Cn3
 BYTE   W42
 BYTE   PEND 
// 012   ----------------------------------------
 BYTE   W96
// 013   ----------------------------------------
 BYTE   W96
// 014   ----------------------------------------
Label_2_0113DB09:
 BYTE   W36
 BYTE   N04  Cs4  v127
 BYTE   W04
 BYTE   En4
 BYTE   W05
 BYTE   N03  Bn3
 BYTE   W03
 BYTE   N12  Cs4
 BYTE   W12
 BYTE   N04  Fs3
 BYTE   W04
 BYTE   Gs3
 BYTE   W05
 BYTE   N03  En3
 BYTE   W03
 BYTE   N42  Cs3
 BYTE   W24
 BYTE   PEND 
// 015   ----------------------------------------
Label_2_0113DB22:
 BYTE   W18
 BYTE   N03  Bn3  v127
 BYTE   W03
 BYTE   Cs4
 BYTE   W03
 BYTE   N12  Bn3
 BYTE   W12
 BYTE   N06  Fs3
 BYTE   W06
 BYTE   N54  Gs3
 BYTE   W54
 BYTE   PEND 
// 016   ----------------------------------------
Label_2_0113DB33:
 BYTE   W90
 BYTE   N03  Fn3  v127
 BYTE   W03
 BYTE   Gn3
 BYTE   W03
 BYTE   PEND 
// 017   ----------------------------------------
Label_2_0113DB3B:
 BYTE   N18  An3  v127
 BYTE   W18
 BYTE   Gn3
 BYTE   W18
 BYTE   N12  As3
 BYTE   W12
 BYTE   N18  An3
 BYTE   W18
 BYTE   Gn3
 BYTE   W18
 BYTE   N12  Ds3
 BYTE   W12
 BYTE   PEND 
// 018   ----------------------------------------
Label_2_0113DB4D:
 BYTE   N96  Dn3  v127
 BYTE   W01
 BYTE   VOL   39*DKCVoicesoftheTemplePandan_mvl/mxv
 BYTE   W02
 BYTE   Bn2
 BYTE   W01
 BYTE   As2
 BYTE   W02
 BYTE   An2
 BYTE   W01
 BYTE   An2
 BYTE   W02
 BYTE   Gs2
 BYTE   W01
 BYTE   Gs2
 BYTE   W02
 BYTE   Gn2
 BYTE   W01
 BYTE   Fs2
 BYTE   W02
 BYTE   Fs2
 BYTE   W01
 BYTE   Fn2
 BYTE   W02
 BYTE   En2
 BYTE   W01
 BYTE   En2
 BYTE   W02
 BYTE   Ds2
 BYTE   W01
 BYTE   Ds2
 BYTE   W02
 BYTE   Dn2
 BYTE   W01
 BYTE   Cs2
 BYTE   W02
 BYTE   Cs2
 BYTE   W01
 BYTE   Cn2
 BYTE   W02
 BYTE   Bn1
 BYTE   W01
 BYTE   Bn1
 BYTE   W02
 BYTE   As1
 BYTE   W01
 BYTE   An1
 BYTE   W02
 BYTE   An1
 BYTE   W01
 BYTE   Gs1
 BYTE   W02
 BYTE   Gs1
 BYTE   W01
 BYTE   Gn1
 BYTE   W02
 BYTE   Fs1
 BYTE   W01
 BYTE   Fs1
 BYTE   W02
 BYTE   Fn1
 BYTE   W01
 BYTE   En1
 BYTE   W02
 BYTE   En1
 BYTE   W01
 BYTE   Ds1
 BYTE   W02
 BYTE   Ds1
 BYTE   W01
 BYTE   Dn1
 BYTE   W02
 BYTE   Cs1
 BYTE   W01
 BYTE   Cs1
 BYTE   W02
 BYTE   Cn1
 BYTE   W01
 BYTE   Bn0
 BYTE   W02
 BYTE   Bn0
 BYTE   W01
 BYTE   As0
 BYTE   W02
 BYTE   As0
 BYTE   W01
 BYTE   An0
 BYTE   W02
 BYTE   Gs0
 BYTE   W01
 BYTE   Gs0
 BYTE   W02
 BYTE   Gn0
 BYTE   W01
 BYTE   Fs0
 BYTE   W02
 BYTE   Fs0
 BYTE   W01
 BYTE   Fn0
 BYTE   W02
 BYTE   En0
 BYTE   W01
 BYTE   En0
 BYTE   W02
 BYTE   Ds0
 BYTE   W01
 BYTE   Ds0
 BYTE   W02
 BYTE   Dn0
 BYTE   W01
 BYTE   Cs0
 BYTE   W02
 BYTE   Cs0
 BYTE   W01
 BYTE   Cn0
 BYTE   W02
 BYTE   BnM1
 BYTE   W01
 BYTE   BnM1
 BYTE   W02
 BYTE   AsM1
 BYTE   W01
 BYTE   AsM1
 BYTE   W02
 BYTE   AnM1
 BYTE   W01
 BYTE   GsM1
 BYTE   W02
 BYTE   PEND 
// 019   ----------------------------------------
Label_2_0113DBD1:
 BYTE   VOL   40*DKCVoicesoftheTemplePandan_mvl/mxv
 BYTE   N96  Cs3  v127
 BYTE   W01
 BYTE   VOL   39*DKCVoicesoftheTemplePandan_mvl/mxv
 BYTE   W02
 BYTE   Bn2
 BYTE   W01
 BYTE   As2
 BYTE   W02
 BYTE   An2
 BYTE   W01
 BYTE   An2
 BYTE   W02
 BYTE   Gs2
 BYTE   W01
 BYTE   Gs2
 BYTE   W02
 BYTE   Gn2
 BYTE   W01
 BYTE   Fs2
 BYTE   W02
 BYTE   Fs2
 BYTE   W01
 BYTE   Fn2
 BYTE   W02
 BYTE   En2
 BYTE   W01
 BYTE   En2
 BYTE   W02
 BYTE   Ds2
 BYTE   W01
 BYTE   Ds2
 BYTE   W02
 BYTE   Dn2
 BYTE   W01
 BYTE   Cs2
 BYTE   W02
 BYTE   Cs2
 BYTE   W01
 BYTE   Cn2
 BYTE   W02
 BYTE   Bn1
 BYTE   W01
 BYTE   Bn1
 BYTE   W02
 BYTE   As1
 BYTE   W01
 BYTE   An1
 BYTE   W02
 BYTE   An1
 BYTE   W01
 BYTE   Gs1
 BYTE   W02
 BYTE   Gs1
 BYTE   W01
 BYTE   Gn1
 BYTE   W02
 BYTE   Fs1
 BYTE   W01
 BYTE   Fs1
 BYTE   W02
 BYTE   Fn1
 BYTE   W01
 BYTE   En1
 BYTE   W02
 BYTE   En1
 BYTE   W01
 BYTE   Ds1
 BYTE   W02
 BYTE   Ds1
 BYTE   W01
 BYTE   Dn1
 BYTE   W02
 BYTE   Cs1
 BYTE   W01
 BYTE   Cs1
 BYTE   W02
 BYTE   Cn1
 BYTE   W01
 BYTE   Bn0
 BYTE   W02
 BYTE   Bn0
 BYTE   W01
 BYTE   As0
 BYTE   W02
 BYTE   As0
 BYTE   W01
 BYTE   An0
 BYTE   W02
 BYTE   Gs0
 BYTE   W01
 BYTE   Gs0
 BYTE   W02
 BYTE   Gn0
 BYTE   W01
 BYTE   Fs0
 BYTE   W02
 BYTE   Fs0
 BYTE   W01
 BYTE   Fn0
 BYTE   W02
 BYTE   En0
 BYTE   W01
 BYTE   En0
 BYTE   W02
 BYTE   Ds0
 BYTE   W01
 BYTE   Ds0
 BYTE   W02
 BYTE   Dn0
 BYTE   W01
 BYTE   Cs0
 BYTE   W02
 BYTE   Cs0
 BYTE   W01
 BYTE   Cn0
 BYTE   W02
 BYTE   BnM1
 BYTE   W01
 BYTE   BnM1
 BYTE   W02
 BYTE   AsM1
 BYTE   W01
 BYTE   AsM1
 BYTE   W02
 BYTE   AnM1
 BYTE   W01
 BYTE   GsM1
 BYTE   W02
 BYTE   PEND 
// 020   ----------------------------------------
Label_2_0113DC57:
 BYTE   VOL   40*DKCVoicesoftheTemplePandan_mvl/mxv
 BYTE   N48  Cn3  v127
 BYTE   W48
 BYTE   N06  Fn2
 BYTE   W06
 BYTE   N42  Gn2
 BYTE   W42
 BYTE   PEND 
// 021   ----------------------------------------
 BYTE   W96
// 022   ----------------------------------------
 BYTE   W96
// 023   ----------------------------------------
 BYTE   PATT
  POIN2 Label_2_0113D99D
// 024   ----------------------------------------
 BYTE   PATT
  POIN2 Label_2_0113D9A5
// 025   ----------------------------------------
 BYTE   PATT
  POIN2 Label_2_0113DA31
// 026   ----------------------------------------
 BYTE   PATT
  POIN2 Label_2_0113DA3B
// 027   ----------------------------------------
 BYTE   PATT
  POIN2 Label_2_0113DA56
// 028   ----------------------------------------
 BYTE   EOT
 BYTE   Cn3
// 029   ----------------------------------------
 BYTE   PATT
  POIN2 Label_2_0113DAD9
// 030   ----------------------------------------
 BYTE   PATT
  POIN2 Label_2_0113DAEE
// 031   ----------------------------------------
 BYTE   W96
// 032   ----------------------------------------
 BYTE   PATT
  POIN2 Label_2_0113DAF9
// 033   ----------------------------------------
 BYTE   W96
// 034   ----------------------------------------
 BYTE   W96
// 035   ----------------------------------------
 BYTE   PATT
  POIN2 Label_2_0113DB09
// 036   ----------------------------------------
 BYTE   PATT
  POIN2 Label_2_0113DB22
// 037   ----------------------------------------
 BYTE   PATT
  POIN2 Label_2_0113DB33
// 038   ----------------------------------------
 BYTE   PATT
  POIN2 Label_2_0113DB3B
// 039   ----------------------------------------
 BYTE   PATT
  POIN2 Label_2_0113DB4D
// 040   ----------------------------------------
 BYTE   PATT
  POIN2 Label_2_0113DBD1
// 041   ----------------------------------------
 BYTE   PATT
  POIN2 Label_2_0113DC57
// 042   ----------------------------------------
 BYTE   W96
// 043   ----------------------------------------
 BYTE   W96
// 044   ----------------------------------------
 BYTE   W03
 BYTE   GoTo
  POIN2 Label_2_0113D992
// 045   ----------------------------------------
 BYTE   W84
 BYTE   W03
 BYTE   N03  Gn4  v127
 BYTE   W03
 BYTE   Gs4
 BYTE   W03
// 046   ----------------------------------------
 BYTE   PATT
  POIN2 Label_2_0113D9A5
// 047   ----------------------------------------
 BYTE   VOL   20*DKCVoicesoftheTemplePandan_mvl/mxv
 BYTE   W04
 BYTE   Ds1
 BYTE   W05
 BYTE   Ds1
 BYTE   W04
 BYTE   Dn1
 BYTE   W05
 BYTE   Cs1
 BYTE   W04
 BYTE   Cs1
 BYTE   W05
 BYTE   Cn1
 BYTE   W04
 BYTE   Bn0
 BYTE   W05
 BYTE   Bn0
 BYTE   W04
 BYTE   As0
 BYTE   W05
 BYTE   As0
 BYTE   W04
 BYTE   An0
 BYTE   W05
 BYTE   Gs0
 BYTE   W04
 BYTE   Gs0
 BYTE   W05
 BYTE   Gn0
 BYTE   W04
 BYTE   Fs0
 BYTE   W05
 BYTE   Fs0
 BYTE   W04
 BYTE   Fn0
 BYTE   W05
 BYTE   En0
 BYTE   W04
 BYTE   En0
 BYTE   W05
 BYTE   Ds0
 BYTE   N03  Gn4  v127
 BYTE   W03
 BYTE   Gs4
 BYTE   W01
 BYTE   VOL   7*DKCVoicesoftheTemplePandan_mvl/mxv
 BYTE   W02
// 048   ----------------------------------------
 BYTE   N06  Gn4
 BYTE   W03
 BYTE   VOL   6*DKCVoicesoftheTemplePandan_mvl/mxv
 BYTE   W03
 BYTE   N06  Fn4
 BYTE   W01
 BYTE   VOL   5*DKCVoicesoftheTemplePandan_mvl/mxv
 BYTE   W05
 BYTE   Cs0
 BYTE   N06  As3
 BYTE   W04
 BYTE   VOL   4*DKCVoicesoftheTemplePandan_mvl/mxv
 BYTE   W02
 BYTE   N24  Cn4
 BYTE   W03
 BYTE   VOL   3*DKCVoicesoftheTemplePandan_mvl/mxv
 BYTE   W04
 BYTE   BnM1
 BYTE   W05
 BYTE   AsM1
 BYTE   W04
 BYTE   AsM1
 BYTE   W05
 BYTE   AnM1
 BYTE   W03
 BYTE   N03  Gn3
 BYTE   W01
 BYTE   VOL   0*DKCVoicesoftheTemplePandan_mvl/mxv
 BYTE   W02
 BYTE   N03  Gs3
 BYTE   W03
 BYTE   VOL   0*DKCVoicesoftheTemplePandan_mvl/mxv
 BYTE   N06  Gn3
 BYTE   W04
 BYTE   VOL   0*DKCVoicesoftheTemplePandan_mvl/mxv
 BYTE   W02
 BYTE   N06  Fn3
 BYTE   W03
 BYTE   VOL   0*DKCVoicesoftheTemplePandan_mvl/mxv
 BYTE   W03
 BYTE   N06  As2
 BYTE   W01
 BYTE   VOL   0*DKCVoicesoftheTemplePandan_mvl/mxv
 BYTE   W05
 BYTE   FnM1
 BYTE   TIE  Cn3
 BYTE   W04
 BYTE   VOL   0*DKCVoicesoftheTemplePandan_mvl/mxv
 BYTE   W05
 BYTE   EnM1
 BYTE   W04
 BYTE   DsM1
 BYTE   W05
 BYTE   DsM1
 BYTE   W04
 BYTE   DnM1
 BYTE   W05
 BYTE   CsM1
 BYTE   W03
// 049   ----------------------------------------
 BYTE   W01
 BYTE   CsM1
 BYTE   W05
 BYTE   CnM1
 BYTE   W04
 BYTE   BnM2
 BYTE   W05
 BYTE   BnM2
 BYTE   W04
 BYTE   AsM2
 BYTE   W05
 BYTE   AsM2
 BYTE   W04
 BYTE   AnM2
 BYTE   W05
 BYTE   GsM2
 BYTE   W04
 BYTE   GsM2
 BYTE   W05
 BYTE   GnM2
 BYTE   W04
 BYTE   FsM2
 BYTE   W05
 BYTE   FsM2
 BYTE   W04
 BYTE   FnM2
 BYTE   W05
 BYTE   FnM2
 BYTE   W04
 BYTE   EnM2
 BYTE   W05
 BYTE   DsM2
 BYTE   W04
 BYTE   DsM2
 BYTE   W05
 BYTE   DnM2
 BYTE   W04
 BYTE   CsM2
 BYTE   W05
 BYTE   CsM2
 BYTE   W04
 BYTE   CnM2
 BYTE   W05
// 050   ----------------------------------------
 BYTE   EOT
 BYTE   VOL   0*DKCVoicesoftheTemplePandan_mvl/mxv
 BYTE   FINE

//**************** Track 4 (Midi-Chn.3) ****************//

DKCVoicesoftheTemplePandan_004:
// 000   ----------------------------------------
 BYTE   KEYSH   DKCVoicesoftheTemplePandan_key+0
Label_3_54E0BA:
 BYTE   VOICE   45
 BYTE   VOL   60*DKCVoicesoftheTemplePandan_mvl/mxv
 BYTE   PAN   c_v+0
 BYTE   VOL   27*DKCVoicesoftheTemplePandan_mvl/mxv
 BYTE   W96
// 001   ----------------------------------------
 BYTE   W96
// 002   ----------------------------------------
 BYTE   W96
// 003   ----------------------------------------
 BYTE   W96
// 004   ----------------------------------------
 BYTE   W96
// 005   ----------------------------------------
 BYTE   W96
// 006   ----------------------------------------
 BYTE   W96
// 007   ----------------------------------------
 BYTE   W96
// 008   ----------------------------------------
 BYTE   W96
// 009   ----------------------------------------
 BYTE   W96
// 010   ----------------------------------------
 BYTE   W96
// 011   ----------------------------------------
 BYTE   W96
// 012   ----------------------------------------
 BYTE   W96
// 013   ----------------------------------------
Label_3_54E0CF:
 BYTE   N03  Gn3  v127
 BYTE   W03
 BYTE   Ds3
 BYTE   W03
 BYTE   Cn3
 BYTE   W03
 BYTE   Ds3
 BYTE   W03
 BYTE   Cn3
 BYTE   W03
 BYTE   As2
 BYTE   W03
 BYTE   Gn2
 BYTE   W03
 BYTE   Ds2
 BYTE   W03
 BYTE   Cn2
 BYTE   W03
 BYTE   Ds2
 BYTE   W03
 BYTE   Cn2
 BYTE   W03
 BYTE   As1
 BYTE   W60
 BYTE   W03
 BYTE   PEND 
// 014   ----------------------------------------
Label_3_54E0EB:
 BYTE   N04  Gs2  v127
 BYTE   W04
 BYTE   An2
 BYTE   W05
 BYTE   N03  Cs2
 BYTE   W03
 BYTE   N04  Gs2
 BYTE   W04
 BYTE   An2
 BYTE   W05
 BYTE   N03  Cs2
 BYTE   W03
 BYTE   N04  Gs2
 BYTE   W04
 BYTE   An2
 BYTE   W05
 BYTE   N03  Cs2
 BYTE   W03
 BYTE   N04  Fs2
 BYTE   W04
 BYTE   Gs2
 BYTE   W05
 BYTE   N03  Cs2
 BYTE   W03
 BYTE   N04  Gs2
 BYTE   W04
 BYTE   An2
 BYTE   W05
 BYTE   N03  Cs2
 BYTE   W03
 BYTE   N04  Gs2
 BYTE   W04
 BYTE   An2
 BYTE   W05
 BYTE   N03  Cs2
 BYTE   W03
 BYTE   N04  Gs2
 BYTE   W04
 BYTE   An2
 BYTE   W05
 BYTE   N03  Cs2
 BYTE   W03
 BYTE   N04  Fs2
 BYTE   W04
 BYTE   Gs2
 BYTE   W05
 BYTE   N03  Cs2
 BYTE   W03
 BYTE   PEND 
// 015   ----------------------------------------
 BYTE   W96
// 016   ----------------------------------------
Label_3_54E12E:
 BYTE   N04  Fs2  v127
 BYTE   W04
 BYTE   Cs3
 BYTE   W05
 BYTE   N03  Fs3
 BYTE   W03
 BYTE   N04  Cs4
 BYTE   W04
 BYTE   An3
 BYTE   W05
 BYTE   N03  Fs3
 BYTE   W03
 BYTE   N04  Cs3
 BYTE   W04
 BYTE   An2
 BYTE   W05
 BYTE   N03  Fs2
 BYTE   W03
 BYTE   N04  Cs2
 BYTE   W04
 BYTE   An1
 BYTE   W05
 BYTE   N03  Fs1
 BYTE   W03
 BYTE   N04  Fs2
 BYTE   W04
 BYTE   Cs3
 BYTE   W05
 BYTE   N03  Fs3
 BYTE   W03
 BYTE   N04  Cn4
 BYTE   W04
 BYTE   An3
 BYTE   W05
 BYTE   N03  Fs3
 BYTE   W03
 BYTE   N04  Cs3
 BYTE   W04
 BYTE   An2
 BYTE   W05
 BYTE   N03  Fs2
 BYTE   W03
 BYTE   N04  Cs2
 BYTE   W04
 BYTE   An1
 BYTE   W05
 BYTE   N03  Fs1
 BYTE   W03
 BYTE   PEND 
// 017   ----------------------------------------
Label_3_54E170:
 BYTE   N04  Gn2  v127
 BYTE   W04
 BYTE   Dn3
 BYTE   W05
 BYTE   N03  Gn3
 BYTE   W03
 BYTE   N04  Dn4
 BYTE   W04
 BYTE   As3
 BYTE   W05
 BYTE   N03  Gn3
 BYTE   W03
 BYTE   N04  Dn3
 BYTE   W04
 BYTE   As2
 BYTE   W05
 BYTE   N03  Gn2
 BYTE   W03
 BYTE   N04  Dn2
 BYTE   W04
 BYTE   As1
 BYTE   W05
 BYTE   N03  Gn1
 BYTE   W03
 BYTE   N04  Gn2
 BYTE   W04
 BYTE   Dn3
 BYTE   W05
 BYTE   N03  Gn3
 BYTE   W03
 BYTE   N04  Cs4
 BYTE   W04
 BYTE   As3
 BYTE   W05
 BYTE   N03  Gn3
 BYTE   W03
 BYTE   N04  Dn3
 BYTE   W04
 BYTE   As2
 BYTE   W05
 BYTE   N03  Gn2
 BYTE   W03
 BYTE   N04  Dn2
 BYTE   W04
 BYTE   As1
 BYTE   W05
 BYTE   N03  Gn1
 BYTE   W03
 BYTE   PEND 
// 018   ----------------------------------------
 BYTE   W96
// 019   ----------------------------------------
 BYTE   W96
// 020   ----------------------------------------
 BYTE   W96
// 021   ----------------------------------------
 BYTE   PATT
  POIN2 Label_3_54E0CF
// 022   ----------------------------------------
 BYTE   W96
// 023   ----------------------------------------
 BYTE   W96
// 024   ----------------------------------------
 BYTE   W96
// 025   ----------------------------------------
 BYTE   W96
// 026   ----------------------------------------
 BYTE   W96
// 027   ----------------------------------------
 BYTE   W96
// 028   ----------------------------------------
 BYTE   W96
// 029   ----------------------------------------
 BYTE   W96
// 030   ----------------------------------------
 BYTE   W96
// 031   ----------------------------------------
 BYTE   W96
// 032   ----------------------------------------
 BYTE   W96
// 033   ----------------------------------------
 BYTE   PATT
  POIN2 Label_3_54E0CF
// 034   ----------------------------------------
 BYTE   PATT
  POIN2 Label_3_54E0EB
// 035   ----------------------------------------
 BYTE   W96
// 036   ----------------------------------------
 BYTE   PATT
  POIN2 Label_3_54E12E
// 037   ----------------------------------------
 BYTE   PATT
  POIN2 Label_3_54E170
// 038   ----------------------------------------
 BYTE   W96
// 039   ----------------------------------------
 BYTE   W96
// 040   ----------------------------------------
 BYTE   W96
// 041   ----------------------------------------
 BYTE   PATT
  POIN2 Label_3_54E0CF
// 042   ----------------------------------------
 BYTE   W96
// 043   ----------------------------------------
 BYTE   W03
 BYTE   GoTo
  POIN2 Label_3_54E0BA
// 044   ----------------------------------------
 BYTE   W92
 BYTE   W01
 BYTE   W96
// 045   ----------------------------------------
 BYTE   W96
// 046   ----------------------------------------
 BYTE   W96
// 047   ----------------------------------------
 BYTE   W96
 BYTE   FINE

//**************** Track 5 (Midi-Chn.4) ****************//

DKCVoicesoftheTemplePandan_005:
// 000   ----------------------------------------
 BYTE   KEYSH   DKCVoicesoftheTemplePandan_key+0
Label_4_0113DD7E:
 BYTE   VOICE   46
 BYTE   VOL   60*DKCVoicesoftheTemplePandan_mvl/mxv
 BYTE   PAN   c_v+0
 BYTE   VOL   27*DKCVoicesoftheTemplePandan_mvl/mxv
 BYTE   N04  Fn2  v127
 BYTE   W04
 BYTE   Gn2
 BYTE   W05
 BYTE   N03  Cn2
 BYTE   W03
 BYTE   N04  Fn2
 BYTE   W04
 BYTE   Gn2
 BYTE   W05
 BYTE   N03  Cn2
 BYTE   W03
 BYTE   N04  Fn2
 BYTE   W04
 BYTE   Gn2
 BYTE   W05
 BYTE   N03  Cn2
 BYTE   W03
 BYTE   N04  Fn2
 BYTE   W04
 BYTE   Gn2
 BYTE   W05
 BYTE   N03  Cn2
 BYTE   W03
 BYTE   N04  Fn2
 BYTE   W04
 BYTE   Gn2
 BYTE   W05
 BYTE   N03  Cn2
 BYTE   W03
 BYTE   N04  Fn2
 BYTE   W04
 BYTE   Gn2
 BYTE   W05
 BYTE   N03  Cn2
 BYTE   W03
 BYTE   N04  Fn2
 BYTE   W04
 BYTE   Gn2
 BYTE   W05
 BYTE   N03  Cn2
 BYTE   W03
 BYTE   N04  Fn2
 BYTE   W04
 BYTE   Gn2
 BYTE   W05
 BYTE   N03  Cn2
 BYTE   W03
// 001   ----------------------------------------
Label_4_0113DDC7:
 BYTE   N04  Gn2  v127
 BYTE   W04
 BYTE   Gs2
 BYTE   W05
 BYTE   N03  Cs2
 BYTE   W03
 BYTE   N04  Gn2
 BYTE   W04
 BYTE   Gs2
 BYTE   W05
 BYTE   N03  Cs2
 BYTE   W03
 BYTE   N04  Gn2
 BYTE   W04
 BYTE   Gs2
 BYTE   W05
 BYTE   N03  Cs2
 BYTE   W03
 BYTE   N04  Gn2
 BYTE   W04
 BYTE   Gs2
 BYTE   W05
 BYTE   N03  Cs2
 BYTE   W03
 BYTE   N04  Gn2
 BYTE   W04
 BYTE   Gs2
 BYTE   W05
 BYTE   N03  Cs2
 BYTE   W03
 BYTE   N04  Gn2
 BYTE   W04
 BYTE   Gs2
 BYTE   W05
 BYTE   N03  Cs2
 BYTE   W03
 BYTE   N04  Gn2
 BYTE   W04
 BYTE   Gs2
 BYTE   W05
 BYTE   N03  Cs2
 BYTE   W03
 BYTE   N04  Gn2
 BYTE   W04
 BYTE   Gs2
 BYTE   W05
 BYTE   N03  Cs2
 BYTE   W03
 BYTE   PEND 
// 002   ----------------------------------------
Label_4_0113DE09:
 BYTE   N04  Fn2  v127
 BYTE   W04
 BYTE   Gn2
 BYTE   W05
 BYTE   N03  Cn2
 BYTE   W03
 BYTE   N04  Fn2
 BYTE   W04
 BYTE   Gn2
 BYTE   W05
 BYTE   N03  Cn2
 BYTE   W03
 BYTE   N04  Fn2
 BYTE   W04
 BYTE   Gn2
 BYTE   W05
 BYTE   N03  Cn2
 BYTE   W03
 BYTE   N04  Fn2
 BYTE   W04
 BYTE   Gn2
 BYTE   W05
 BYTE   N03  Cn2
 BYTE   W03
 BYTE   N04  Fn2
 BYTE   W04
 BYTE   Gn2
 BYTE   W05
 BYTE   N03  Cn2
 BYTE   W03
 BYTE   N04  Fn2
 BYTE   W04
 BYTE   Gn2
 BYTE   W05
 BYTE   N03  Cn2
 BYTE   W03
 BYTE   N04  Fn2
 BYTE   W04
 BYTE   Gn2
 BYTE   W05
 BYTE   N03  Cn2
 BYTE   W03
 BYTE   N04  Fn2
 BYTE   W04
 BYTE   Gn2
 BYTE   W05
 BYTE   N03  Cn2
 BYTE   W03
 BYTE   PEND 
// 003   ----------------------------------------
Label_4_0113DE4B:
 BYTE   N04  Gn2  v127
 BYTE   W04
 BYTE   Gs2
 BYTE   W05
 BYTE   N03  Cs2
 BYTE   W03
 BYTE   N04  Gn2
 BYTE   W04
 BYTE   Gs2
 BYTE   W05
 BYTE   N03  Cs2
 BYTE   W03
 BYTE   N04  Gn2
 BYTE   W04
 BYTE   Gs2
 BYTE   W05
 BYTE   N03  Cs2
 BYTE   W03
 BYTE   N04  Gn2
 BYTE   W04
 BYTE   Gs2
 BYTE   W05
 BYTE   N03  Cs2
 BYTE   W03
 BYTE   N04  Gn2
 BYTE   W04
 BYTE   Gs2
 BYTE   W05
 BYTE   N03  Cs2
 BYTE   W03
 BYTE   N04  Gn2
 BYTE   W04
 BYTE   Gs2
 BYTE   W05
 BYTE   N03  Cn2
 BYTE   W03
 BYTE   N04  Cs2
 BYTE   W04
 BYTE   Fn2
 BYTE   W05
 BYTE   N03  Gs2
 BYTE   W03
 BYTE   N04  Cs3
 BYTE   W04
 BYTE   Gs2
 BYTE   W05
 BYTE   N03  Fn2
 BYTE   W03
 BYTE   PEND 
// 004   ----------------------------------------
 BYTE   PATT
  POIN2 Label_4_0113DE09
// 005   ----------------------------------------
 BYTE   PATT
  POIN2 Label_4_0113DDC7
// 006   ----------------------------------------
 BYTE   PATT
  POIN2 Label_4_0113DE09
// 007   ----------------------------------------
 BYTE   PATT
  POIN2 Label_4_0113DE4B
// 008   ----------------------------------------
 BYTE   PATT
  POIN2 Label_4_0113DDC7
// 009   ----------------------------------------
Label_4_0113DEA6:
 BYTE   N04  Fn2  v127
 BYTE   W04
 BYTE   Gn2
 BYTE   W05
 BYTE   N03  Cs2
 BYTE   W03
 BYTE   N04  Fn2
 BYTE   W04
 BYTE   Gn2
 BYTE   W05
 BYTE   N03  Cs2
 BYTE   W03
 BYTE   N04  Fn2
 BYTE   W04
 BYTE   Gn2
 BYTE   W05
 BYTE   N03  Cs2
 BYTE   W03
 BYTE   N04  Fn2
 BYTE   W04
 BYTE   Gn2
 BYTE   W05
 BYTE   N03  Cs2
 BYTE   W03
 BYTE   N04  Fn2
 BYTE   W04
 BYTE   Gn2
 BYTE   W05
 BYTE   N03  Cs2
 BYTE   W03
 BYTE   N04  Fn2
 BYTE   W04
 BYTE   Gn2
 BYTE   W05
 BYTE   N03  Cs2
 BYTE   W03
 BYTE   N04  Fn2
 BYTE   W04
 BYTE   Gn2
 BYTE   W05
 BYTE   N03  Cs2
 BYTE   W03
 BYTE   N04  Fn2
 BYTE   W04
 BYTE   Gn2
 BYTE   W05
 BYTE   N03  Cs2
 BYTE   W03
 BYTE   PEND 
// 010   ----------------------------------------
Label_4_0113DEE8:
 BYTE   N04  Fn2  v127
 BYTE   W04
 BYTE   Gn2
 BYTE   W05
 BYTE   N03  Cn2
 BYTE   W03
 BYTE   N04  Fn2
 BYTE   W04
 BYTE   Gn2
 BYTE   W05
 BYTE   N03  Cn2
 BYTE   W03
 BYTE   N04  Fn2
 BYTE   W04
 BYTE   Gn2
 BYTE   W05
 BYTE   N03  Cn2
 BYTE   W03
 BYTE   N04  Fn2
 BYTE   W04
 BYTE   Gn2
 BYTE   W05
 BYTE   N03  Cn2
 BYTE   W03
 BYTE   N04  Fn2
 BYTE   W04
 BYTE   Gn2
 BYTE   W05
 BYTE   N03  Cn2
 BYTE   W03
 BYTE   N04  Fn2
 BYTE   W04
 BYTE   Gn2
 BYTE   W05
 BYTE   N03  Cn2
 BYTE   W03
 BYTE   N04  Fn2
 BYTE   W04
 BYTE   Gn2
 BYTE   W05
 BYTE   N03  Cn2
 BYTE   W03
 BYTE   N04  Fn2
 BYTE   W04
 BYTE   Gn2
 BYTE   W05
 BYTE   N03  Fn3
 BYTE   W03
 BYTE   PEND 
// 011   ----------------------------------------
 BYTE   PATT
  POIN2 Label_4_0113DE09
// 012   ----------------------------------------
 BYTE   PATT
  POIN2 Label_4_0113DE09
// 013   ----------------------------------------
 BYTE   PATT
  POIN2 Label_4_0113DE09
// 014   ----------------------------------------
 BYTE   W96
// 015   ----------------------------------------
Label_4_0113DF3A:
 BYTE   N04  Fs2  v127
 BYTE   W04
 BYTE   Cs3
 BYTE   W05
 BYTE   N03  Fs3
 BYTE   W03
 BYTE   N04  Cs4
 BYTE   W04
 BYTE   An3
 BYTE   W05
 BYTE   N03  Fs3
 BYTE   W03
 BYTE   N04  Cs3
 BYTE   W04
 BYTE   An2
 BYTE   W05
 BYTE   N03  Fs2
 BYTE   W03
 BYTE   N04  Cs2
 BYTE   W04
 BYTE   An1
 BYTE   W05
 BYTE   N03  Fs1
 BYTE   W03
 BYTE   N04  Fs2
 BYTE   W04
 BYTE   Cs3
 BYTE   W05
 BYTE   N03  Fs3
 BYTE   W03
 BYTE   N04  Cn4
 BYTE   W04
 BYTE   An3
 BYTE   W05
 BYTE   N03  Fs3
 BYTE   W03
 BYTE   N04  Cs3
 BYTE   W04
 BYTE   An2
 BYTE   W05
 BYTE   N03  Fs2
 BYTE   W03
 BYTE   N04  Cs2
 BYTE   W04
 BYTE   An1
 BYTE   W05
 BYTE   N03  Fs1
 BYTE   W03
 BYTE   PEND 
// 016   ----------------------------------------
 BYTE   W96
// 017   ----------------------------------------
 BYTE   W96
// 018   ----------------------------------------
Label_4_0113DF7E:
 BYTE   N04  Gn2  v127
 BYTE   W04
 BYTE   An2
 BYTE   W05
 BYTE   N03  Dn2
 BYTE   W03
 BYTE   N04  Gn2
 BYTE   W04
 BYTE   An2
 BYTE   W05
 BYTE   N03  Dn2
 BYTE   W03
 BYTE   N04  Gn2
 BYTE   W04
 BYTE   An2
 BYTE   W05
 BYTE   N03  Dn2
 BYTE   W03
 BYTE   N04  Gn2
 BYTE   W04
 BYTE   An2
 BYTE   W05
 BYTE   N03  Dn2
 BYTE   W03
 BYTE   N04  Gn2
 BYTE   W04
 BYTE   An2
 BYTE   W05
 BYTE   N03  Dn2
 BYTE   W03
 BYTE   N04  Gn2
 BYTE   W04
 BYTE   An2
 BYTE   W05
 BYTE   N03  Dn2
 BYTE   W03
 BYTE   N04  Gn2
 BYTE   W04
 BYTE   An2
 BYTE   W05
 BYTE   N03  Dn2
 BYTE   W03
 BYTE   N04  Gn2
 BYTE   W04
 BYTE   An2
 BYTE   W05
 BYTE   N03  Dn2
 BYTE   W03
 BYTE   PEND 
// 019   ----------------------------------------
Label_4_0113DFC0:
 BYTE   N04  Fs2  v127
 BYTE   W04
 BYTE   Gs2
 BYTE   W05
 BYTE   N03  Cs2
 BYTE   W03
 BYTE   N04  Fs2
 BYTE   W04
 BYTE   Gs2
 BYTE   W05
 BYTE   N03  Cs2
 BYTE   W03
 BYTE   N04  Fs2
 BYTE   W04
 BYTE   Gs2
 BYTE   W05
 BYTE   N03  Cs2
 BYTE   W03
 BYTE   N04  Fs2
 BYTE   W04
 BYTE   Gs2
 BYTE   W05
 BYTE   N03  Cs2
 BYTE   W03
 BYTE   N04  Fs2
 BYTE   W04
 BYTE   Gs2
 BYTE   W05
 BYTE   N03  Cs2
 BYTE   W03
 BYTE   N04  Fs2
 BYTE   W04
 BYTE   Gs2
 BYTE   W05
 BYTE   N03  Cs2
 BYTE   W03
 BYTE   N04  Fs2
 BYTE   W04
 BYTE   Gs2
 BYTE   W05
 BYTE   N03  Cs2
 BYTE   W03
 BYTE   N04  Fs2
 BYTE   W04
 BYTE   Gs2
 BYTE   W05
 BYTE   N03  Cs2
 BYTE   W03
 BYTE   PEND 
// 020   ----------------------------------------
 BYTE   PATT
  POIN2 Label_4_0113DE09
// 021   ----------------------------------------
 BYTE   PATT
  POIN2 Label_4_0113DE09
// 022   ----------------------------------------
 BYTE   PATT
  POIN2 Label_4_0113DE09
// 023   ----------------------------------------
 BYTE   PATT
  POIN2 Label_4_0113DE09
// 024   ----------------------------------------
 BYTE   PATT
  POIN2 Label_4_0113DE09
// 025   ----------------------------------------
 BYTE   PATT
  POIN2 Label_4_0113DDC7
// 026   ----------------------------------------
 BYTE   PATT
  POIN2 Label_4_0113DE09
// 027   ----------------------------------------
 BYTE   PATT
  POIN2 Label_4_0113DE4B
// 028   ----------------------------------------
 BYTE   PATT
  POIN2 Label_4_0113DDC7
// 029   ----------------------------------------
 BYTE   PATT
  POIN2 Label_4_0113DEA6
// 030   ----------------------------------------
 BYTE   PATT
  POIN2 Label_4_0113DEE8
// 031   ----------------------------------------
 BYTE   PATT
  POIN2 Label_4_0113DE09
// 032   ----------------------------------------
 BYTE   PATT
  POIN2 Label_4_0113DE09
// 033   ----------------------------------------
 BYTE   PATT
  POIN2 Label_4_0113DE09
// 034   ----------------------------------------
 BYTE   W96
// 035   ----------------------------------------
 BYTE   PATT
  POIN2 Label_4_0113DF3A
// 036   ----------------------------------------
 BYTE   W96
// 037   ----------------------------------------
 BYTE   W96
// 038   ----------------------------------------
 BYTE   PATT
  POIN2 Label_4_0113DF7E
// 039   ----------------------------------------
 BYTE   PATT
  POIN2 Label_4_0113DFC0
// 040   ----------------------------------------
 BYTE   PATT
  POIN2 Label_4_0113DE09
// 041   ----------------------------------------
 BYTE   PATT
  POIN2 Label_4_0113DE09
// 042   ----------------------------------------
 BYTE   PATT
  POIN2 Label_4_0113DE09
// 043   ----------------------------------------
 BYTE   N04  Fn2  v127
 BYTE   W03
 BYTE   GoTo
  POIN2 Label_4_0113DD7E
// 044   ----------------------------------------
 BYTE   W01
 BYTE   N04  Gn2  v127
 BYTE   W05
 BYTE   N03  Cn2
 BYTE   W03
 BYTE   N04  Fn2
 BYTE   W04
 BYTE   Gn2
 BYTE   W05
 BYTE   N03  Cn2
 BYTE   W03
 BYTE   N04  Fn2
 BYTE   W04
 BYTE   Gn2
 BYTE   W05
 BYTE   N03  Cn2
 BYTE   W03
 BYTE   N04  Fn2
 BYTE   W04
 BYTE   Gn2
 BYTE   W05
 BYTE   N03  Cn2
 BYTE   W03
 BYTE   N04  Fn2
 BYTE   W04
 BYTE   Gn2
 BYTE   W05
 BYTE   N03  Cn2
 BYTE   W03
 BYTE   N04  Fn2
 BYTE   W04
 BYTE   Gn2
 BYTE   W05
 BYTE   N03  Cn2
 BYTE   W03
 BYTE   N04  Fn2
 BYTE   W04
 BYTE   Gn2
 BYTE   W05
 BYTE   N03  Cn2
 BYTE   W03
 BYTE   N04  Fn2
 BYTE   W04
 BYTE   Gn2
 BYTE   W05
 BYTE   N03  Cn2
 BYTE   W03
 BYTE   N04  Fn2
 BYTE   W04
// 045   ----------------------------------------
 BYTE   Gn2
 BYTE   W01
 BYTE   VOL   26*DKCVoicesoftheTemplePandan_mvl/mxv
 BYTE   W04
 BYTE   N03  Cn2
 BYTE   W01
 BYTE   VOL   25*DKCVoicesoftheTemplePandan_mvl/mxv
 BYTE   W02
 BYTE   N04  Fn2
 BYTE   W03
 BYTE   VOL   25*DKCVoicesoftheTemplePandan_mvl/mxv
 BYTE   W01
 BYTE   N04  Gn2
 BYTE   W04
 BYTE   VOL   24*DKCVoicesoftheTemplePandan_mvl/mxv
 BYTE   W01
 BYTE   N03  Cn2
 BYTE   W03
 BYTE   N04  Fn2
 BYTE   W01
 BYTE   VOL   24*DKCVoicesoftheTemplePandan_mvl/mxv
 BYTE   W03
 BYTE   N04  Gn2
 BYTE   W02
 BYTE   VOL   23*DKCVoicesoftheTemplePandan_mvl/mxv
 BYTE   W03
 BYTE   N03  Cn2
 BYTE   W02
 BYTE   VOL   22*DKCVoicesoftheTemplePandan_mvl/mxv
 BYTE   W01
 BYTE   N04  Fn2
 BYTE   W04
 BYTE   VOL   22*DKCVoicesoftheTemplePandan_mvl/mxv
 BYTE   N04  Gn2
 BYTE   W05
 BYTE   N03  Cn2
 BYTE   W01
 BYTE   VOL   21*DKCVoicesoftheTemplePandan_mvl/mxv
 BYTE   W02
 BYTE   N04  Fn2
 BYTE   W03
 BYTE   VOL   20*DKCVoicesoftheTemplePandan_mvl/mxv
 BYTE   W01
 BYTE   N04  Gn2
 BYTE   W04
 BYTE   VOL   20*DKCVoicesoftheTemplePandan_mvl/mxv
 BYTE   W01
 BYTE   N03  Cn2
 BYTE   W03
 BYTE   N04  Fn2
 BYTE   W01
 BYTE   VOL   19*DKCVoicesoftheTemplePandan_mvl/mxv
 BYTE   W03
 BYTE   N04  Gn2
 BYTE   W02
 BYTE   VOL   19*DKCVoicesoftheTemplePandan_mvl/mxv
 BYTE   W03
 BYTE   N03  Cn2
 BYTE   W02
 BYTE   VOL   18*DKCVoicesoftheTemplePandan_mvl/mxv
 BYTE   W01
 BYTE   N04  Fn2
 BYTE   W04
 BYTE   VOL   17*DKCVoicesoftheTemplePandan_mvl/mxv
 BYTE   N04  Gn2
 BYTE   W05
 BYTE   VOL   17*DKCVoicesoftheTemplePandan_mvl/mxv
 BYTE   N03  Cn2
 BYTE   W03
 BYTE   N04  Fn2
 BYTE   W03
 BYTE   VOL   16*DKCVoicesoftheTemplePandan_mvl/mxv
 BYTE   W01
 BYTE   N04  Gn2
 BYTE   W04
 BYTE   VOL   15*DKCVoicesoftheTemplePandan_mvl/mxv
 BYTE   W01
 BYTE   N03  Cn2
 BYTE   W03
 BYTE   N04  Gn2
 BYTE   W01
 BYTE   VOL   15*DKCVoicesoftheTemplePandan_mvl/mxv
 BYTE   W03
// 046   ----------------------------------------
 BYTE   N04  Gs2
 BYTE   W02
 BYTE   VOL   14*DKCVoicesoftheTemplePandan_mvl/mxv
 BYTE   W03
 BYTE   N03  Cs2
 BYTE   W02
 BYTE   VOL   14*DKCVoicesoftheTemplePandan_mvl/mxv
 BYTE   W01
 BYTE   N04  Gn2
 BYTE   W04
 BYTE   VOL   13*DKCVoicesoftheTemplePandan_mvl/mxv
 BYTE   N04  Gs2
 BYTE   W05
 BYTE   VOL   12*DKCVoicesoftheTemplePandan_mvl/mxv
 BYTE   N03  Cs2
 BYTE   W03
 BYTE   N04  Gn2
 BYTE   W02
 BYTE   VOL   12*DKCVoicesoftheTemplePandan_mvl/mxv
 BYTE   W02
 BYTE   N04  Gs2
 BYTE   W03
 BYTE   VOL   11*DKCVoicesoftheTemplePandan_mvl/mxv
 BYTE   W02
 BYTE   N03  Cs2
 BYTE   W03
 BYTE   N04  Gn2
 BYTE   W01
 BYTE   VOL   10*DKCVoicesoftheTemplePandan_mvl/mxv
 BYTE   W03
 BYTE   N04  Gs2
 BYTE   W02
 BYTE   VOL   10*DKCVoicesoftheTemplePandan_mvl/mxv
 BYTE   W03
 BYTE   N03  Cs2
 BYTE   W02
 BYTE   VOL   9*DKCVoicesoftheTemplePandan_mvl/mxv
 BYTE   W01
 BYTE   N04  Gn2
 BYTE   W04
 BYTE   VOL   8*DKCVoicesoftheTemplePandan_mvl/mxv
 BYTE   N04  Gs2
 BYTE   W05
 BYTE   VOL   8*DKCVoicesoftheTemplePandan_mvl/mxv
 BYTE   N03  Cs2
 BYTE   W03
 BYTE   N04  Gn2
 BYTE   W02
 BYTE   VOL   7*DKCVoicesoftheTemplePandan_mvl/mxv
 BYTE   W02
 BYTE   N04  Gs2
 BYTE   W03
 BYTE   VOL   7*DKCVoicesoftheTemplePandan_mvl/mxv
 BYTE   W02
 BYTE   N03  Cs2
 BYTE   W03
 BYTE   VOL   6*DKCVoicesoftheTemplePandan_mvl/mxv
 BYTE   N04  Gn2
 BYTE   W04
 BYTE   Gs2
 BYTE   W02
 BYTE   VOL   5*DKCVoicesoftheTemplePandan_mvl/mxv
 BYTE   W03
 BYTE   N03  Cs2
 BYTE   W02
 BYTE   VOL   5*DKCVoicesoftheTemplePandan_mvl/mxv
 BYTE   W01
 BYTE   N04  Gn2
 BYTE   W04
 BYTE   VOL   4*DKCVoicesoftheTemplePandan_mvl/mxv
 BYTE   N04  Gs2
 BYTE   W05
 BYTE   VOL   3*DKCVoicesoftheTemplePandan_mvl/mxv
 BYTE   N03  Cs2
 BYTE   W03
 BYTE   N04  Fn2
 BYTE   W02
 BYTE   VOL   3*DKCVoicesoftheTemplePandan_mvl/mxv
 BYTE   W02
// 047   ----------------------------------------
 BYTE   N04  Gn2
 BYTE   W03
 BYTE   VOL   2*DKCVoicesoftheTemplePandan_mvl/mxv
 BYTE   W02
 BYTE   N03  Cn2
 BYTE   W03
 BYTE   VOL   2*DKCVoicesoftheTemplePandan_mvl/mxv
 BYTE   N04  Fn2
 BYTE   W04
 BYTE   Gn2
 BYTE   W01
 BYTE   VOL   1*DKCVoicesoftheTemplePandan_mvl/mxv
 BYTE   W04
 BYTE   N03  Cn2
 BYTE   W02
 BYTE   VOL   0*DKCVoicesoftheTemplePandan_mvl/mxv
 BYTE   W01
 BYTE   N04  Fn2
 BYTE   W04
 BYTE   VOL   0*DKCVoicesoftheTemplePandan_mvl/mxv
 BYTE   N04  Gn2
 BYTE   W05
 BYTE   VOL   0*DKCVoicesoftheTemplePandan_mvl/mxv
 BYTE   N03  Cn2
 BYTE   W03
 BYTE   N04  Fn2
 BYTE   W02
 BYTE   VOL   0*DKCVoicesoftheTemplePandan_mvl/mxv
 BYTE   W02
 BYTE   N04  Gn2
 BYTE   W03
 BYTE   VOL   0*DKCVoicesoftheTemplePandan_mvl/mxv
 BYTE   W02
 BYTE   N03  Cn2
 BYTE   W03
 BYTE   VOL   0*DKCVoicesoftheTemplePandan_mvl/mxv
 BYTE   N04  Fn2
 BYTE   W04
 BYTE   Gn2
 BYTE   W01
 BYTE   VOL   0*DKCVoicesoftheTemplePandan_mvl/mxv
 BYTE   W04
 BYTE   N03  Cn2
 BYTE   W01
 BYTE   VOL   0*DKCVoicesoftheTemplePandan_mvl/mxv
 BYTE   W02
 BYTE   N04  Fn2
 BYTE   W03
 BYTE   VOL   0*DKCVoicesoftheTemplePandan_mvl/mxv
 BYTE   W01
 BYTE   N04  Gn2
 BYTE   W05
 BYTE   VOL   0*DKCVoicesoftheTemplePandan_mvl/mxv
 BYTE   N03  Cn2
 BYTE   W03
 BYTE   N04  Fn2
 BYTE   W02
 BYTE   VOL   0*DKCVoicesoftheTemplePandan_mvl/mxv
 BYTE   W02
 BYTE   N04  Gn2
 BYTE   W03
 BYTE   VOL   0*DKCVoicesoftheTemplePandan_mvl/mxv
 BYTE   W02
 BYTE   N03  Cn2
 BYTE   W03
 BYTE   VOL   0*DKCVoicesoftheTemplePandan_mvl/mxv
 BYTE   N04  Fn2
 BYTE   W04
 BYTE   Gn2
 BYTE   W01
 BYTE   VOL   0*DKCVoicesoftheTemplePandan_mvl/mxv
 BYTE   W04
 BYTE   N03  Cn2
 BYTE   W01
 BYTE   VOL   0*DKCVoicesoftheTemplePandan_mvl/mxv
 BYTE   W02
 BYTE   N04  Gn2
 BYTE   W03
 BYTE   VOL   0*DKCVoicesoftheTemplePandan_mvl/mxv
 BYTE   W01
// 048   ----------------------------------------
 BYTE   N04  Gs2
 BYTE   W04
 BYTE   VOL   0*DKCVoicesoftheTemplePandan_mvl/mxv
 BYTE   W01
 BYTE   N03  Cs2
 BYTE   W03
 BYTE   N04  Gn2
 BYTE   W02
 BYTE   VOL   0*DKCVoicesoftheTemplePandan_mvl/mxv
 BYTE   W02
 BYTE   N04  Gs2
 BYTE   W03
 BYTE   VOL   0*DKCVoicesoftheTemplePandan_mvl/mxv
 BYTE   W02
 BYTE   N03  Cs2
 BYTE   W03
 BYTE   VOL   0*DKCVoicesoftheTemplePandan_mvl/mxv
 BYTE   N04  Gn2
 BYTE   W04
 BYTE   Gs2
 BYTE   W01
 BYTE   VOL   0*DKCVoicesoftheTemplePandan_mvl/mxv
 BYTE   W04
 BYTE   N03  Cs2
 BYTE   W01
 BYTE   VOL   0*DKCVoicesoftheTemplePandan_mvl/mxv
 BYTE   W02
 BYTE   N04  Gn2
 BYTE   W03
 BYTE   VOL   0*DKCVoicesoftheTemplePandan_mvl/mxv
 BYTE   W01
 BYTE   N04  Gs2
 BYTE   W04
 BYTE   VOL   0*DKCVoicesoftheTemplePandan_mvl/mxv
 BYTE   W01
 BYTE   N03  Cs2
 BYTE   W03
 BYTE   N04  Gn2
 BYTE   W01
 BYTE   VOL   0*DKCVoicesoftheTemplePandan_mvl/mxv
 BYTE   W03
 BYTE   N04  Gs2
 BYTE   W03
 BYTE   VOL   0*DKCVoicesoftheTemplePandan_mvl/mxv
 BYTE   W02
 BYTE   N03  Cs2
 BYTE   W03
 BYTE   VOL   0*DKCVoicesoftheTemplePandan_mvl/mxv
 BYTE   N04  Gn2
 BYTE   W04
 BYTE   Gs2
 BYTE   W01
 BYTE   VOL   0*DKCVoicesoftheTemplePandan_mvl/mxv
 BYTE   W04
 BYTE   N03  Cn2
 BYTE   W01
 BYTE   VOL   0*DKCVoicesoftheTemplePandan_mvl/mxv
 BYTE   W02
 BYTE   N04  Cs2
 BYTE   W03
 BYTE   VOL   0*DKCVoicesoftheTemplePandan_mvl/mxv
 BYTE   W01
 BYTE   N04  Fn2
 BYTE   W04
 BYTE   VOL   0*DKCVoicesoftheTemplePandan_mvl/mxv
 BYTE   W01
 BYTE   N03  Gs2
 BYTE   W03
 BYTE   N04  Cs3
 BYTE   W01
 BYTE   VOL   0*DKCVoicesoftheTemplePandan_mvl/mxv
 BYTE   W03
 BYTE   N04  Gs2
 BYTE   W02
 BYTE   VOL   0*DKCVoicesoftheTemplePandan_mvl/mxv
 BYTE   W03
 BYTE   N03  Fn2
 BYTE   W02
 BYTE   VOL   0*DKCVoicesoftheTemplePandan_mvl/mxv
 BYTE   W01
 BYTE   CnM2
 BYTE   FINE

//**************** Track 6 (Midi-Chn.5) ****************//

DKCVoicesoftheTemplePandan_006:
// 000   ----------------------------------------
 BYTE   KEYSH   DKCVoicesoftheTemplePandan_key+0
Label_5_54E1F2:
 BYTE   VOICE   11
 BYTE   VOL   60*DKCVoicesoftheTemplePandan_mvl/mxv
 BYTE   PAN   c_v+0
 BYTE   VOL   27*DKCVoicesoftheTemplePandan_mvl/mxv
 BYTE   W96
// 001   ----------------------------------------
Label_5_54E1FB:
 BYTE   N03  Cn3  v127
 BYTE   W03
 BYTE   Dn3
 BYTE   W03
 BYTE   N03
 BYTE   W03
 BYTE   Cn3
 BYTE   W03
 BYTE   N03
 BYTE   W03
 BYTE   Dn3
 BYTE   W03
 BYTE   N03
 BYTE   W03
 BYTE   Cn3
 BYTE   W03
 BYTE   N03
 BYTE   W03
 BYTE   Dn3
 BYTE   W03
 BYTE   N03
 BYTE   W03
 BYTE   Cn3
 BYTE   W03
 BYTE   N03
 BYTE   W03
 BYTE   Dn3
 BYTE   W03
 BYTE   N03
 BYTE   W03
 BYTE   Cn3
 BYTE   W48
 BYTE   W03
 BYTE   PEND 
// 002   ----------------------------------------
 BYTE   W96
// 003   ----------------------------------------
Label_5_54E220:
 BYTE   N03  Ds3  v127
 BYTE   W03
 BYTE   En3
 BYTE   W03
 BYTE   N03
 BYTE   W03
 BYTE   Ds3
 BYTE   W03
 BYTE   N03
 BYTE   W03
 BYTE   En3
 BYTE   W03
 BYTE   N03
 BYTE   W03
 BYTE   Ds3
 BYTE   W03
 BYTE   N03
 BYTE   W03
 BYTE   En3
 BYTE   W03
 BYTE   N03
 BYTE   W03
 BYTE   Ds3
 BYTE   W03
 BYTE   N03
 BYTE   W03
 BYTE   En3
 BYTE   W03
 BYTE   N03
 BYTE   W03
 BYTE   Ds3
 BYTE   W48
 BYTE   W03
 BYTE   PEND 
// 004   ----------------------------------------
 BYTE   W96
// 005   ----------------------------------------
 BYTE   PATT
  POIN2 Label_5_54E1FB
// 006   ----------------------------------------
 BYTE   W96
// 007   ----------------------------------------
 BYTE   PATT
  POIN2 Label_5_54E220
// 008   ----------------------------------------
 BYTE   W96
// 009   ----------------------------------------
 BYTE   PATT
  POIN2 Label_5_54E1FB
// 010   ----------------------------------------
 BYTE   W96
// 011   ----------------------------------------
 BYTE   PATT
  POIN2 Label_5_54E220
// 012   ----------------------------------------
 BYTE   W96
// 013   ----------------------------------------
 BYTE   PATT
  POIN2 Label_5_54E1FB
// 014   ----------------------------------------
 BYTE   W96
// 015   ----------------------------------------
 BYTE   PATT
  POIN2 Label_5_54E220
// 016   ----------------------------------------
 BYTE   W96
// 017   ----------------------------------------
 BYTE   PATT
  POIN2 Label_5_54E1FB
// 018   ----------------------------------------
 BYTE   W96
// 019   ----------------------------------------
 BYTE   PATT
  POIN2 Label_5_54E220
// 020   ----------------------------------------
 BYTE   W96
// 021   ----------------------------------------
 BYTE   PATT
  POIN2 Label_5_54E1FB
// 022   ----------------------------------------
 BYTE   W96
// 023   ----------------------------------------
 BYTE   PATT
  POIN2 Label_5_54E220
// 024   ----------------------------------------
 BYTE   W96
// 025   ----------------------------------------
 BYTE   PATT
  POIN2 Label_5_54E1FB
// 026   ----------------------------------------
 BYTE   W96
// 027   ----------------------------------------
 BYTE   PATT
  POIN2 Label_5_54E220
// 028   ----------------------------------------
 BYTE   W96
// 029   ----------------------------------------
 BYTE   PATT
  POIN2 Label_5_54E1FB
// 030   ----------------------------------------
 BYTE   W96
// 031   ----------------------------------------
 BYTE   PATT
  POIN2 Label_5_54E220
// 032   ----------------------------------------
 BYTE   W96
// 033   ----------------------------------------
 BYTE   PATT
  POIN2 Label_5_54E1FB
// 034   ----------------------------------------
 BYTE   W96
// 035   ----------------------------------------
 BYTE   PATT
  POIN2 Label_5_54E220
// 036   ----------------------------------------
 BYTE   W96
// 037   ----------------------------------------
 BYTE   PATT
  POIN2 Label_5_54E1FB
// 038   ----------------------------------------
 BYTE   W96
// 039   ----------------------------------------
 BYTE   PATT
  POIN2 Label_5_54E220
// 040   ----------------------------------------
 BYTE   W96
// 041   ----------------------------------------
 BYTE   PATT
  POIN2 Label_5_54E1FB
// 042   ----------------------------------------
 BYTE   W96
// 043   ----------------------------------------
 BYTE   N03  Ds3  v127
 BYTE   W03
 BYTE   GoTo
  POIN2 Label_5_54E1F2
// 044   ----------------------------------------
 BYTE   N03  En3  v127
 BYTE   W03
 BYTE   N03
 BYTE   W03
 BYTE   Ds3
 BYTE   W03
 BYTE   N03
 BYTE   W03
 BYTE   En3
 BYTE   W03
 BYTE   N03
 BYTE   W03
 BYTE   Ds3
 BYTE   W03
 BYTE   N03
 BYTE   W03
 BYTE   En3
 BYTE   W03
 BYTE   N03
 BYTE   W03
 BYTE   Ds3
 BYTE   W03
 BYTE   N03
 BYTE   W03
 BYTE   En3
 BYTE   W03
 BYTE   N03
 BYTE   W03
 BYTE   Ds3
 BYTE   W48
 BYTE   W03
 BYTE   W05
// 045   ----------------------------------------
 BYTE   VOL   26*DKCVoicesoftheTemplePandan_mvl/mxv
 BYTE   W05
 BYTE   An1
 BYTE   W05
 BYTE   An1
 BYTE   W05
 BYTE   Gs1
 BYTE   W05
 BYTE   Gs1
 BYTE   W05
 BYTE   Gn1
 BYTE   W05
 BYTE   Fs1
 BYTE   W05
 BYTE   Fs1
 BYTE   W06
 BYTE   Fn1
 BYTE   W05
 BYTE   En1
 BYTE   W05
 BYTE   En1
 BYTE   W05
 BYTE   Ds1
 BYTE   W05
 BYTE   Ds1
 BYTE   W05
 BYTE   Dn1
 BYTE   W05
 BYTE   Cs1
 BYTE   W05
 BYTE   Cs1
 BYTE   W06
 BYTE   Cn1
 BYTE   W05
 BYTE   Bn0
 BYTE   W04
 BYTE   N03  Cn3
 BYTE   W01
 BYTE   VOL   15*DKCVoicesoftheTemplePandan_mvl/mxv
 BYTE   W02
 BYTE   N03  Dn3
 BYTE   W03
// 046   ----------------------------------------
 BYTE   VOL   14*DKCVoicesoftheTemplePandan_mvl/mxv
 BYTE   N03
 BYTE   W03
 BYTE   Cn3
 BYTE   W02
 BYTE   VOL   14*DKCVoicesoftheTemplePandan_mvl/mxv
 BYTE   W01
 BYTE   N03
 BYTE   W03
 BYTE   Dn3
 BYTE   W01
 BYTE   VOL   13*DKCVoicesoftheTemplePandan_mvl/mxv
 BYTE   W02
 BYTE   N03
 BYTE   W03
 BYTE   VOL   12*DKCVoicesoftheTemplePandan_mvl/mxv
 BYTE   N03  Cn3
 BYTE   W03
 BYTE   N03
 BYTE   W02
 BYTE   VOL   12*DKCVoicesoftheTemplePandan_mvl/mxv
 BYTE   W01
 BYTE   N03  Dn3
 BYTE   W03
 BYTE   N03
 BYTE   W01
 BYTE   VOL   11*DKCVoicesoftheTemplePandan_mvl/mxv
 BYTE   W02
 BYTE   N03  Cn3
 BYTE   W03
 BYTE   N03
 BYTE   W01
 BYTE   VOL   10*DKCVoicesoftheTemplePandan_mvl/mxv
 BYTE   W02
 BYTE   N03  Dn3
 BYTE   W03
 BYTE   VOL   10*DKCVoicesoftheTemplePandan_mvl/mxv
 BYTE   N03
 BYTE   W03
 BYTE   Cn3
 BYTE   W02
 BYTE   VOL   9*DKCVoicesoftheTemplePandan_mvl/mxv
 BYTE   W05
 BYTE   En0
 BYTE   W05
 BYTE   En0
 BYTE   W05
 BYTE   Ds0
 BYTE   W05
 BYTE   Ds0
 BYTE   W05
 BYTE   Dn0
 BYTE   W06
 BYTE   Cs0
 BYTE   W05
 BYTE   Cs0
 BYTE   W05
 BYTE   Cn0
 BYTE   W05
 BYTE   BnM1
 BYTE   W03
 BYTE   W02
 BYTE   BnM1
 BYTE   W05
// 047   ----------------------------------------
 BYTE   AsM1
 BYTE   W05
 BYTE   AsM1
 BYTE   W05
 BYTE   AnM1
 BYTE   W06
 BYTE   GsM1
 BYTE   W05
 BYTE   GsM1
 BYTE   W05
 BYTE   GnM1
 BYTE   W05
 BYTE   FsM1
 BYTE   W05
 BYTE   FsM1
 BYTE   W05
 BYTE   FnM1
 BYTE   W05
 BYTE   FnM1
 BYTE   W05
 BYTE   EnM1
 BYTE   W05
 BYTE   DsM1
 BYTE   W06
 BYTE   DsM1
 BYTE   W05
 BYTE   DnM1
 BYTE   W05
 BYTE   CsM1
 BYTE   W05
 BYTE   CsM1
 BYTE   W05
 BYTE   CnM1
 BYTE   W05
 BYTE   BnM2
 BYTE   W02
 BYTE   N03  Ds3
 BYTE   W03
 BYTE   VOL   0*DKCVoicesoftheTemplePandan_mvl/mxv
 BYTE   N03  En3
 BYTE   W03
 BYTE   N03
 BYTE   W02
// 048   ----------------------------------------
 BYTE   VOL   0*DKCVoicesoftheTemplePandan_mvl/mxv
 BYTE   W01
 BYTE   N03  Ds3
 BYTE   W03
 BYTE   N03
 BYTE   W02
 BYTE   VOL   0*DKCVoicesoftheTemplePandan_mvl/mxv
 BYTE   W01
 BYTE   N03  En3
 BYTE   W03
 BYTE   N03
 BYTE   W01
 BYTE   VOL   0*DKCVoicesoftheTemplePandan_mvl/mxv
 BYTE   W02
 BYTE   N03  Ds3
 BYTE   W03
 BYTE   VOL   0*DKCVoicesoftheTemplePandan_mvl/mxv
 BYTE   N03
 BYTE   W03
 BYTE   En3
 BYTE   W02
 BYTE   VOL   0*DKCVoicesoftheTemplePandan_mvl/mxv
 BYTE   W01
 BYTE   N03
 BYTE   W03
 BYTE   Ds3
 BYTE   W01
 BYTE   VOL   0*DKCVoicesoftheTemplePandan_mvl/mxv
 BYTE   W02
 BYTE   N03
 BYTE   W03
 BYTE   VOL   0*DKCVoicesoftheTemplePandan_mvl/mxv
 BYTE   N03  En3
 BYTE   W03
 BYTE   N03
 BYTE   W02
 BYTE   VOL   0*DKCVoicesoftheTemplePandan_mvl/mxv
 BYTE   W01
 BYTE   N03  Ds3
 BYTE   W04
 BYTE   VOL   0*DKCVoicesoftheTemplePandan_mvl/mxv
 BYTE   W06
 BYTE   FnM2
 BYTE   W05
 BYTE   EnM2
 BYTE   W05
 BYTE   DsM2
 BYTE   W05
 BYTE   DsM2
 BYTE   W05
 BYTE   DnM2
 BYTE   W05
 BYTE   CsM2
 BYTE   W05
 BYTE   CsM2
 BYTE   W05
 BYTE   CnM2
 BYTE   W05
 BYTE   CnM2
 BYTE   W01
 BYTE   CnM2
 BYTE   FINE

//******************************************************//
	ALIGN 4

DKCVoicesoftheTemplePandan:
	BYTE	6	// NumTrks
	BYTE	0	// NumBlks
	BYTE	DKCVoicesoftheTemplePandan_pri	// Priority
	BYTE	DKCVoicesoftheTemplePandan_rev	// Reverb.
    
	POIN2	DKCVoicesoftheTemplePandan_grp
    
	POIN2	DKCVoicesoftheTemplePandan_001
	POIN2	DKCVoicesoftheTemplePandan_002
	POIN2	DKCVoicesoftheTemplePandan_003
	POIN2	DKCVoicesoftheTemplePandan_004
	POIN2	DKCVoicesoftheTemplePandan_005
	POIN2	DKCVoicesoftheTemplePandan_006

	
