//Event file generated from Sappy .s format.
	#include "MPlayDef.event"

	#define	StreetFighter33rdStrikeSpunkyMakotoTak_grp  voicegroup000
	#define	StreetFighter33rdStrikeSpunkyMakotoTak_pri  0
	#define	StreetFighter33rdStrikeSpunkyMakotoTak_rev  0
	#define	StreetFighter33rdStrikeSpunkyMakotoTak_mvl  127
	#define	StreetFighter33rdStrikeSpunkyMakotoTak_key  0
	#define	StreetFighter33rdStrikeSpunkyMakotoTak_tbs  1
	#define	StreetFighter33rdStrikeSpunkyMakotoTak_exg  0
	#define	StreetFighter33rdStrikeSpunkyMakotoTak_cmp  1

	// .rodata
	//	StreetFighter33rdStrikeSpunkyMakotoTak
	ALIGN 4


//**************** Track 1 (Midi-Chn.0) ****************//

StreetFighter33rdStrikeSpunkyMakotoTak_001:
//  #01 //000   ----------------------------------------
 BYTE   KEYSH   StreetFighter33rdStrikeSpunkyMakotoTak_key+0
 BYTE   TEMPO   166*StreetFighter33rdStrikeSpunkyMakotoTak_tbs/2
 BYTE   VOICE   81
 BYTE   BENDR  12
 BYTE   VOL   127*StreetFighter33rdStrikeSpunkyMakotoTak_mvl/mxv
 BYTE   W96
//  #01 //001   ----------------------------------------
Label_01003F9B:
 BYTE   W12
 BYTE   N09  Dn4  v085
 BYTE   W12
 BYTE   Gn4
 BYTE   W12
 BYTE   An4
 BYTE   W12
 BYTE   Dn5
 BYTE   W12
 BYTE   An4
 BYTE   W12
 BYTE   Gn4
 BYTE   W12
 BYTE   An4
 BYTE   W12
//  #01 //002   ----------------------------------------
Label_01003FAC:
 BYTE   W12
 BYTE   N09  Dn4  v085
 BYTE   W12
 BYTE   Gn4
 BYTE   W12
 BYTE   An4
 BYTE   W24
 BYTE   An4
 BYTE   W12
 BYTE   Gn4
 BYTE   W12
 BYTE   An4
 BYTE   W12
 BYTE   PEND 
//  #01 //003   ----------------------------------------
Label_01003FBC:
 BYTE   W12
 BYTE   N09  Dn4  v085
 BYTE   W12
 BYTE   Gn4
 BYTE   W12
 BYTE   An4
 BYTE   W12
 BYTE   Dn5
 BYTE   W12
 BYTE   An4
 BYTE   W12
 BYTE   Gn4
 BYTE   W12
 BYTE   An4
 BYTE   W12
 BYTE   PEND 
//  #01 //004   ----------------------------------------
 BYTE   PATT
  POIN2 Label_01003FAC
//  #01 //005   ----------------------------------------
 BYTE   PATT
  POIN2 Label_01003FBC
//  #01 //006   ----------------------------------------
 BYTE   PATT
  POIN2 Label_01003FAC
//  #01 //007   ----------------------------------------
 BYTE   PATT
  POIN2 Label_01003FBC
//  #01 //008   ----------------------------------------
 BYTE   PATT
  POIN2 Label_01003FAC
//  #01 //009   ----------------------------------------
 BYTE   PATT
  POIN2 Label_01003FBC
//  #01 //010   ----------------------------------------
 BYTE   PATT
  POIN2 Label_01003FAC
//  #01 //011   ----------------------------------------
 BYTE   PATT
  POIN2 Label_01003FBC
//  #01 //012   ----------------------------------------
 BYTE   PATT
  POIN2 Label_01003FAC
//  #01 //013   ----------------------------------------
 BYTE   PATT
  POIN2 Label_01003FBC
//  #01 //014   ----------------------------------------
 BYTE   PATT
  POIN2 Label_01003FAC
//  #01 //015   ----------------------------------------
 BYTE   PATT
  POIN2 Label_01003FBC
//  #01 //016   ----------------------------------------
 BYTE   PATT
  POIN2 Label_01003FAC
//  #01 //017   ----------------------------------------
 BYTE   PATT
  POIN2 Label_01003FBC
//  #01 //018   ----------------------------------------
 BYTE   PATT
  POIN2 Label_01003FAC
//  #01 //019   ----------------------------------------
 BYTE   PATT
  POIN2 Label_01003FBC
//  #01 //020   ----------------------------------------
 BYTE   PATT
  POIN2 Label_01003FAC
//  #01 //021   ----------------------------------------
 BYTE   PATT
  POIN2 Label_01003FBC
//  #01 //022   ----------------------------------------
 BYTE   PATT
  POIN2 Label_01003FAC
//  #01 //023   ----------------------------------------
 BYTE   PATT
  POIN2 Label_01003FBC
//  #01 //024   ----------------------------------------
 BYTE   PATT
  POIN2 Label_01003FAC
//  #01 //025   ----------------------------------------
 BYTE   PATT
  POIN2 Label_01003FBC
//  #01 //026   ----------------------------------------
 BYTE   PATT
  POIN2 Label_01003FAC
//  #01 //027   ----------------------------------------
 BYTE   PATT
  POIN2 Label_01003FBC
//  #01 //028   ----------------------------------------
 BYTE   PATT
  POIN2 Label_01003FAC
//  #01 //029   ----------------------------------------
 BYTE   PATT
  POIN2 Label_01003FBC
//  #01 //030   ----------------------------------------
 BYTE   PATT
  POIN2 Label_01003FAC
//  #01 //031   ----------------------------------------
 BYTE   PATT
  POIN2 Label_01003FBC
//  #01 //032   ----------------------------------------
 BYTE   PATT
  POIN2 Label_01003FAC
//  #01 //033   ----------------------------------------
 BYTE   PATT
  POIN2 Label_01003FBC
//  #01 //034   ----------------------------------------
 BYTE   PATT
  POIN2 Label_01003FAC
//  #01 //035   ----------------------------------------
 BYTE   PATT
  POIN2 Label_01003FBC
//  #01 //036   ----------------------------------------
 BYTE   PATT
  POIN2 Label_01003FAC
//  #01 //037   ----------------------------------------
 BYTE   PATT
  POIN2 Label_01003FBC
//  #01 //038   ----------------------------------------
 BYTE   PATT
  POIN2 Label_01003FAC
//  #01 //039   ----------------------------------------
 BYTE   PATT
  POIN2 Label_01003FBC
//  #01 //040   ----------------------------------------
 BYTE   PATT
  POIN2 Label_01003FAC
//  #01 //041   ----------------------------------------
 BYTE   PATT
  POIN2 Label_01003FBC
//  #01 //042   ----------------------------------------
 BYTE   PATT
  POIN2 Label_01003FAC
//  #01 //043   ----------------------------------------
 BYTE   PATT
  POIN2 Label_01003FBC
//  #01 //044   ----------------------------------------
 BYTE   PATT
  POIN2 Label_01003FAC
//  #01 //045   ----------------------------------------
 BYTE   PATT
  POIN2 Label_01003FBC
//  #01 //046   ----------------------------------------
 BYTE   PATT
  POIN2 Label_01003FAC
//  #01 //047   ----------------------------------------
 BYTE   PATT
  POIN2 Label_01003FBC
//  #01 //048   ----------------------------------------
 BYTE   PATT
  POIN2 Label_01003FAC
//  #01 //049   ----------------------------------------
 BYTE   W96
//  #01 //050   ----------------------------------------
 BYTE   W96
//  #01 //051   ----------------------------------------
 BYTE   W96
//  #01 //052   ----------------------------------------
 BYTE   W96
//  #01 //053   ----------------------------------------
 BYTE   W96
//  #01 //054   ----------------------------------------
 BYTE   W96
//  #01 //055   ----------------------------------------
 BYTE   W96
//  #01 //056   ----------------------------------------
 BYTE   W96
//  #01 //057   ----------------------------------------
 BYTE   W96
//  #01 //058   ----------------------------------------
 BYTE   W96
//  #01 //059   ----------------------------------------
 BYTE   W96
//  #01 //060   ----------------------------------------
 BYTE   W96
//  #01 //061   ----------------------------------------
 BYTE   W96
//  #01 //062   ----------------------------------------
 BYTE   W96
//  #01 //063   ----------------------------------------
 BYTE   W96
//  #01 //064   ----------------------------------------
 BYTE   W96
//  #01 //065   ----------------------------------------
 BYTE   PATT
  POIN2 Label_01003FBC
//  #01 //066   ----------------------------------------
 BYTE   PATT
  POIN2 Label_01003FAC
//  #01 //067   ----------------------------------------
 BYTE   PATT
  POIN2 Label_01003FBC
//  #01 //068   ----------------------------------------
 BYTE   PATT
  POIN2 Label_01003FAC
//  #01 //069   ----------------------------------------
 BYTE   PATT
  POIN2 Label_01003FBC
//  #01 //070   ----------------------------------------
 BYTE   PATT
  POIN2 Label_01003FAC
//  #01 //071   ----------------------------------------
 BYTE   PATT
  POIN2 Label_01003FBC
//  #01 //072   ----------------------------------------
 BYTE   PATT
  POIN2 Label_01003FAC
//  #01 //073   ----------------------------------------
 BYTE   GoTo
  POIN2 Label_01003F9B
//  #01 //074   ----------------------------------------
 BYTE   W96
 BYTE   FINE

//**************** Track 2 (Midi-Chn.1) ****************//

StreetFighter33rdStrikeSpunkyMakotoTak_002:
//  #02 //000   ----------------------------------------
 BYTE   KEYSH   StreetFighter33rdStrikeSpunkyMakotoTak_key+0
 BYTE   VOICE   4
 BYTE   BENDR  12
 BYTE   VOL   55*StreetFighter33rdStrikeSpunkyMakotoTak_mvl/mxv
 BYTE   W96
//  #02 //001   ----------------------------------------
Label_0100B741:
 BYTE   N24  Dn2  v080
 BYTE   N24  Dn3
 BYTE   N24  An2
 BYTE   W24
 BYTE   N12
 BYTE   N12  Dn3
 BYTE   N12  Dn2
 BYTE   W12
 BYTE   Dn2
 BYTE   N12  Dn3
 BYTE   N12  An2
 BYTE   W24
 BYTE   An2
 BYTE   N12  Dn3
 BYTE   N12  Dn2
 BYTE   W24
 BYTE   Dn2
 BYTE   N12  Dn3
 BYTE   N12  An2
 BYTE   W12
//  #02 //002   ----------------------------------------
 BYTE   W12
 BYTE   An2
 BYTE   N12  Dn3
 BYTE   N12  Dn2
 BYTE   W24
 BYTE   Dn2
 BYTE   N12  Dn3
 BYTE   N12  An2
 BYTE   W12
 BYTE   N24
 BYTE   N24  Dn3
 BYTE   N24  Dn2
 BYTE   W24
 BYTE   An2
 BYTE   N24  Dn3
 BYTE   N24  Dn2
 BYTE   W24
//  #02 //003   ----------------------------------------
 BYTE   En2
 BYTE   N24  En3
 BYTE   N24  Cn3
 BYTE   W24
 BYTE   N12
 BYTE   N12  En3
 BYTE   N12  En2
 BYTE   W12
 BYTE   En2
 BYTE   N12  En3
 BYTE   N12  Cn3
 BYTE   W24
 BYTE   Cn3
 BYTE   N12  En3
 BYTE   N12  En2
 BYTE   W24
 BYTE   En2
 BYTE   N12  En3
 BYTE   N12  Cn3
 BYTE   W12
//  #02 //004   ----------------------------------------
Label_0100B798:
 BYTE   W12
 BYTE   N12  Cn3  v080
 BYTE   N12  En3
 BYTE   N12  En2
 BYTE   W24
 BYTE   En2
 BYTE   N12  En3
 BYTE   N12  Cn3
 BYTE   W24
 BYTE   Cn3
 BYTE   N12  En3
 BYTE   N12  En2
 BYTE   W12
 BYTE   N24  Cn3
 BYTE   N24  En3
 BYTE   N24  En2
 BYTE   W24
 BYTE   PEND 
//  #02 //005   ----------------------------------------
Label_0100B7B5:
 BYTE   N24  Fn2  v080
 BYTE   N24  Fn3
 BYTE   N24  Cn3
 BYTE   W24
 BYTE   N12  Fn2
 BYTE   N12  Fn3
 BYTE   N12  Cn3
 BYTE   W12
 BYTE   Fn2
 BYTE   N12  Fn3
 BYTE   N12  Cn3
 BYTE   W24
 BYTE   Fn2
 BYTE   N12  Fn3
 BYTE   N12  Cn3
 BYTE   W24
 BYTE   Fn2
 BYTE   N12  Fn3
 BYTE   N12  Cn3
 BYTE   W12
 BYTE   PEND 
//  #02 //006   ----------------------------------------
Label_0100B7D7:
 BYTE   W12
 BYTE   N12  Fn2  v080
 BYTE   N12  Fn3
 BYTE   N12  Cn3
 BYTE   W24
 BYTE   Fn2
 BYTE   N12  Fn3
 BYTE   N12  Cn3
 BYTE   W12
 BYTE   N24  Fn2
 BYTE   N24  Fn3
 BYTE   N24  Cn3
 BYTE   W24
 BYTE   Fn2
 BYTE   N24  Fn3
 BYTE   N24  Cn3
 BYTE   W24
 BYTE   PEND 
//  #02 //007   ----------------------------------------
 BYTE   PATT
  POIN2 Label_0100B7B5
//  #02 //008   ----------------------------------------
Label_0100B7F9:
 BYTE   W12
 BYTE   N12  Fn2  v080
 BYTE   N12  Fn3
 BYTE   N12  Cn3
 BYTE   W24
 BYTE   Fn2
 BYTE   N12  Fn3
 BYTE   N12  Cn3
 BYTE   W24
 BYTE   Fn2
 BYTE   N12  Fn3
 BYTE   N12  Cn3
 BYTE   W12
 BYTE   N24  Fn2
 BYTE   N24  Fn3
 BYTE   N24  Cn3
 BYTE   W24
 BYTE   PEND 
//  #02 //009   ----------------------------------------
 BYTE   Dn2
 BYTE   N24  Dn3
 BYTE   N24  An2
 BYTE   W24
 BYTE   N12
 BYTE   N12  Dn3
 BYTE   N12  Dn2
 BYTE   W12
 BYTE   Dn2
 BYTE   N12  Dn3
 BYTE   N12  An2
 BYTE   W24
 BYTE   An2
 BYTE   N12  Dn3
 BYTE   N12  Dn2
 BYTE   W24
 BYTE   Dn2
 BYTE   N12  Dn3
 BYTE   N12  An2
 BYTE   W12
//  #02 //010   ----------------------------------------
Label_0100B834:
 BYTE   W12
 BYTE   N12  Dn2  v080
 BYTE   N12  Dn3
 BYTE   N12  An2
 BYTE   W24
 BYTE   An2
 BYTE   N12  Dn3
 BYTE   N12  Dn2
 BYTE   W12
 BYTE   N24
 BYTE   N24  Dn3
 BYTE   N24  An2
 BYTE   W24
 BYTE   Dn2
 BYTE   N24  Dn3
 BYTE   N24  An2
 BYTE   W24
 BYTE   PEND 
//  #02 //011   ----------------------------------------
Label_0100B850:
 BYTE   N24  Cn3  v080
 BYTE   N24  En3
 BYTE   N24  En2
 BYTE   W24
 BYTE   N12  Cn3
 BYTE   N12  En3
 BYTE   N12  En2
 BYTE   W12
 BYTE   En2
 BYTE   N12  En3
 BYTE   N12  Cn3
 BYTE   W24
 BYTE   Cn3
 BYTE   N12  En3
 BYTE   N12  En2
 BYTE   W24
 BYTE   Cn3
 BYTE   N12  En3
 BYTE   N12  En2
 BYTE   W12
 BYTE   PEND 
//  #02 //012   ----------------------------------------
 BYTE   PATT
  POIN2 Label_0100B798
//  #02 //013   ----------------------------------------
Label_0100B877:
 BYTE   N24  Fn2  v080
 BYTE   N24  Fn3
 BYTE   N24  Cn3
 BYTE   W24
 BYTE   N12
 BYTE   N12  Fn3
 BYTE   N12  Fn2
 BYTE   W12
 BYTE   Cn3
 BYTE   N12  Fn3
 BYTE   N12  Fn2
 BYTE   W24
 BYTE   Cn3
 BYTE   N12  Fn3
 BYTE   N12  Fn2
 BYTE   W24
 BYTE   Fn2
 BYTE   N12  Fn3
 BYTE   N12  Cn3
 BYTE   W12
 BYTE   PEND 
//  #02 //014   ----------------------------------------
Label_0100B898:
 BYTE   W12
 BYTE   N12  Cn3  v080
 BYTE   N12  Fn3
 BYTE   N12  Fn2
 BYTE   W24
 BYTE   Cn3
 BYTE   N12  Fn3
 BYTE   N12  Fn2
 BYTE   W12
 BYTE   N24  Cn3
 BYTE   N24  Fn3
 BYTE   N24  Fn2
 BYTE   W24
 BYTE   Cn3
 BYTE   N24  Fn3
 BYTE   N24  Fn2
 BYTE   W24
 BYTE   PEND 
//  #02 //015   ----------------------------------------
Label_0100B8B5:
 BYTE   N24  Cn3  v080
 BYTE   N24  Fn3
 BYTE   N24  Fn2
 BYTE   W24
 BYTE   N12  Cn3
 BYTE   N12  Fn3
 BYTE   N12  Fn2
 BYTE   W12
 BYTE   Cn3
 BYTE   N12  Fn3
 BYTE   N12  Fn2
 BYTE   W24
 BYTE   Cn3
 BYTE   N12  Fn3
 BYTE   N12  Fn2
 BYTE   W24
 BYTE   Fn2
 BYTE   N12  Fn3
 BYTE   N12  Cn3
 BYTE   W12
 BYTE   PEND 
//  #02 //016   ----------------------------------------
Label_0100B8D7:
 BYTE   W12
 BYTE   N12  Cn3  v080
 BYTE   N12  Fn3
 BYTE   N12  Fn2
 BYTE   W24
 BYTE   Cn3
 BYTE   N12  Fn3
 BYTE   N12  Fn2
 BYTE   W24
 BYTE   Cn3
 BYTE   N12  Fn3
 BYTE   N12  Fn2
 BYTE   W12
 BYTE   N24  Cn3
 BYTE   N24  Fn3
 BYTE   N24  Fn2
 BYTE   W24
 BYTE   PEND 
//  #02 //017   ----------------------------------------
Label_0100B8F4:
 BYTE   N24  An2  v080
 BYTE   N24  Dn3
 BYTE   N24  Dn2
 BYTE   W24
 BYTE   N12
 BYTE   N12  Dn3
 BYTE   N12  An2
 BYTE   W12
 BYTE   An2
 BYTE   N12  Dn3
 BYTE   N12  Dn2
 BYTE   W24
 BYTE   Dn2
 BYTE   N12  Dn3
 BYTE   N12  An2
 BYTE   W24
 BYTE   Dn2
 BYTE   N12  Dn3
 BYTE   N12  An2
 BYTE   W12
 BYTE   PEND 
//  #02 //018   ----------------------------------------
 BYTE   PATT
  POIN2 Label_0100B834
//  #02 //019   ----------------------------------------
 BYTE   PATT
  POIN2 Label_0100B850
//  #02 //020   ----------------------------------------
 BYTE   PATT
  POIN2 Label_0100B798
//  #02 //021   ----------------------------------------
 BYTE   PATT
  POIN2 Label_0100B877
//  #02 //022   ----------------------------------------
 BYTE   PATT
  POIN2 Label_0100B898
//  #02 //023   ----------------------------------------
 BYTE   PATT
  POIN2 Label_0100B8B5
//  #02 //024   ----------------------------------------
 BYTE   PATT
  POIN2 Label_0100B8D7
//  #02 //025   ----------------------------------------
 BYTE   PATT
  POIN2 Label_0100B8F4
//  #02 //026   ----------------------------------------
 BYTE   PATT
  POIN2 Label_0100B834
//  #02 //027   ----------------------------------------
Label_0100B942:
 BYTE   N24  Cn3  v080
 BYTE   N24  En3
 BYTE   N24  En2
 BYTE   W24
 BYTE   N12
 BYTE   N12  En3
 BYTE   N12  Cn3
 BYTE   W12
 BYTE   Cn3
 BYTE   N12  En3
 BYTE   N12  En2
 BYTE   W24
 BYTE   En2
 BYTE   N12  En3
 BYTE   N12  Cn3
 BYTE   W24
 BYTE   En2
 BYTE   N12  En3
 BYTE   N12  Cn3
 BYTE   W12
 BYTE   PEND 
//  #02 //028   ----------------------------------------
 BYTE   PATT
  POIN2 Label_0100B798
//  #02 //029   ----------------------------------------
Label_0100B968:
 BYTE   N24  Fn2  v080
 BYTE   N24  Fn3
 BYTE   N24  Cn3
 BYTE   W24
 BYTE   N12  Fn2
 BYTE   N12  Fn3
 BYTE   N12  Cn3
 BYTE   W12
 BYTE   Fn2
 BYTE   N12  Fn3
 BYTE   N12  Cn3
 BYTE   W24
 BYTE   Fn2
 BYTE   N12  Fn3
 BYTE   N12  Cn3
 BYTE   W24
 BYTE   Cn3
 BYTE   N12  Fn3
 BYTE   N12  Fn2
 BYTE   W12
 BYTE   PEND 
//  #02 //030   ----------------------------------------
 BYTE   PATT
  POIN2 Label_0100B7D7
//  #02 //031   ----------------------------------------
 BYTE   PATT
  POIN2 Label_0100B968
//  #02 //032   ----------------------------------------
 BYTE   PATT
  POIN2 Label_0100B7F9
//  #02 //033   ----------------------------------------
 BYTE   N24  Dn2  v080
 BYTE   N24  Dn3
 BYTE   N24  An2
 BYTE   W24
 BYTE   N12  Dn2
 BYTE   N12  Dn3
 BYTE   N12  An2
 BYTE   W12
 BYTE   An2
 BYTE   N12  Dn3
 BYTE   N12  Dn2
 BYTE   W24
 BYTE   Dn2
 BYTE   N12  Dn3
 BYTE   N12  An2
 BYTE   W24
 BYTE   Dn2
 BYTE   N12  Dn3
 BYTE   N12  An2
 BYTE   W12
//  #02 //034   ----------------------------------------
 BYTE   PATT
  POIN2 Label_0100B834
//  #02 //035   ----------------------------------------
 BYTE   PATT
  POIN2 Label_0100B942
//  #02 //036   ----------------------------------------
 BYTE   W12
 BYTE   N12  En2  v080
 BYTE   N12  En3
 BYTE   N12  Cn3
 BYTE   W24
 BYTE   Cn3
 BYTE   N12  En3
 BYTE   N12  En2
 BYTE   W24
 BYTE   En2
 BYTE   N12  En3
 BYTE   N12  Cn3
 BYTE   W12
 BYTE   N24  En2
 BYTE   N24  En3
 BYTE   N24  Cn3
 BYTE   W24
//  #02 //037   ----------------------------------------
 BYTE   PATT
  POIN2 Label_0100B8B5
//  #02 //038   ----------------------------------------
 BYTE   PATT
  POIN2 Label_0100B7D7
//  #02 //039   ----------------------------------------
 BYTE   PATT
  POIN2 Label_0100B968
//  #02 //040   ----------------------------------------
 BYTE   PATT
  POIN2 Label_0100B7F9
//  #02 //041   ----------------------------------------
 BYTE   TIE  Dn3  v097
 BYTE   TIE  Dn2
 BYTE   TIE  An2
 BYTE   W96
//  #02 //042   ----------------------------------------
 BYTE   W96
//  #02 //043   ----------------------------------------
Label_0100B9FD:
 BYTE   EOT
 BYTE   An2  v050
 BYTE   Dn3
 BYTE   TIE  En3  v097
 BYTE   TIE  Cn3
 BYTE   TIE  En2
 BYTE   W96
 BYTE   PEND 
//  #02 //044   ----------------------------------------
 BYTE   W96
//  #02 //045   ----------------------------------------
 BYTE   EOT
 BYTE   EOT
 BYTE   En3  v060
 BYTE   TIE  Dn3
 BYTE   TIE  An2
 BYTE   TIE  Dn2
 BYTE   W96
//  #02 //046   ----------------------------------------
 BYTE   W96
//  #02 //047   ----------------------------------------
 BYTE   EOT
 BYTE   EOT
 BYTE   An2  v062
 BYTE   TIE  En3
 BYTE   TIE  Cn3
 BYTE   TIE  En2
 BYTE   W96
//  #02 //048   ----------------------------------------
 BYTE   W96
//  #02 //049   ----------------------------------------
 BYTE   EOT
 BYTE   EOT
 BYTE   En3  v060
 BYTE   W12
 BYTE   N06  Dn4  v109
 BYTE   N06  Gn3
 BYTE   W36
 BYTE   Dn4
 BYTE   N06  Gn3
 BYTE   W36
 BYTE   Dn4  v047
 BYTE   N06  Gn3
 BYTE   W12
//  #02 //050   ----------------------------------------
 BYTE   W96
//  #02 //051   ----------------------------------------
Label_0100BA38:
 BYTE   W12
 BYTE   N06  Gn3  v109
 BYTE   N06  Dn4
 BYTE   W36
 BYTE   Gn3
 BYTE   N06  Dn4
 BYTE   W36
 BYTE   Dn4  v047
 BYTE   N06  Gn3
 BYTE   W12
 BYTE   PEND 
//  #02 //052   ----------------------------------------
 BYTE   W96
//  #02 //053   ----------------------------------------
 BYTE   PATT
  POIN2 Label_0100BA38
//  #02 //054   ----------------------------------------
 BYTE   W96
//  #02 //055   ----------------------------------------
 BYTE   PATT
  POIN2 Label_0100BA38
//  #02 //056   ----------------------------------------
 BYTE   W96
//  #02 //057   ----------------------------------------
Label_0100BA56:
 BYTE   W12
 BYTE   N06  Dn4  v109
 BYTE   N06  Gn3
 BYTE   W36
 BYTE   Dn4
 BYTE   N06  Gn3
 BYTE   W36
 BYTE   Gn3  v047
 BYTE   N06  Dn4
 BYTE   W12
 BYTE   PEND 
//  #02 //058   ----------------------------------------
 BYTE   W96
//  #02 //059   ----------------------------------------
 BYTE   PATT
  POIN2 Label_0100BA56
//  #02 //060   ----------------------------------------
 BYTE   W96
//  #02 //061   ----------------------------------------
 BYTE   W12
 BYTE   N06  Dn4  v109
 BYTE   N06  Gn3
 BYTE   W36
 BYTE   Dn4
 BYTE   N06  Gn3
 BYTE   W36
 BYTE   Dn4  v047
 BYTE   N06  Gn3
 BYTE   W12
//  #02 //062   ----------------------------------------
 BYTE   W96
//  #02 //063   ----------------------------------------
 BYTE   PATT
  POIN2 Label_0100BA38
//  #02 //064   ----------------------------------------
 BYTE   W96
//  #02 //065   ----------------------------------------
 BYTE   TIE  An2  v097
 BYTE   TIE  Dn2
 BYTE   TIE  Dn3
 BYTE   W96
//  #02 //066   ----------------------------------------
 BYTE   W96
//  #02 //067   ----------------------------------------
 BYTE   EOT
 BYTE   EOT
 BYTE   An2  v050
 BYTE   TIE  En2
 BYTE   TIE  Cn3
 BYTE   TIE  En3
 BYTE   W96
//  #02 //068   ----------------------------------------
 BYTE   W96
//  #02 //069   ----------------------------------------
 BYTE   EOT
 BYTE   EOT
 BYTE   Cn3  v052
 BYTE   TIE  Dn2
 BYTE   TIE  An2
 BYTE   TIE  Dn3
 BYTE   W96
//  #02 //070   ----------------------------------------
 BYTE   W96
//  #02 //071   ----------------------------------------
 BYTE   PATT
  POIN2 Label_0100B9FD
//  #02 //072   ----------------------------------------
 BYTE   W96
//  #02 //073   ----------------------------------------
 BYTE   EOT
 BYTE   En2  v064
 BYTE   Cn3
 BYTE   GoTo
  POIN2 Label_0100B741
//  #02 //074   ----------------------------------------
 BYTE   W96
 BYTE   FINE

//**************** Track 3 (Midi-Chn.2) ****************//

StreetFighter33rdStrikeSpunkyMakotoTak_003:
//  #03 //000   ----------------------------------------
 BYTE   KEYSH   StreetFighter33rdStrikeSpunkyMakotoTak_key+0
 BYTE   VOICE   100
 BYTE   BENDR  12
 BYTE   VOL   63*StreetFighter33rdStrikeSpunkyMakotoTak_mvl/mxv
 BYTE   W96
//  #03 //001   ----------------------------------------
Label_010095E9:
 BYTE   W96
//  #03 //002   ----------------------------------------
 BYTE   W96
//  #03 //003   ----------------------------------------
 BYTE   W96
//  #03 //004   ----------------------------------------
 BYTE   W96
//  #03 //005   ----------------------------------------
 BYTE   W96
//  #03 //006   ----------------------------------------
 BYTE   W96
//  #03 //007   ----------------------------------------
 BYTE   W96
//  #03 //008   ----------------------------------------
 BYTE   W96
//  #03 //009   ----------------------------------------
 BYTE   W96
//  #03 //010   ----------------------------------------
 BYTE   W96
//  #03 //011   ----------------------------------------
 BYTE   W96
//  #03 //012   ----------------------------------------
 BYTE   W96
//  #03 //013   ----------------------------------------
 BYTE   W96
//  #03 //014   ----------------------------------------
 BYTE   W96
//  #03 //015   ----------------------------------------
 BYTE   W96
//  #03 //016   ----------------------------------------
 BYTE   W96
//  #03 //017   ----------------------------------------
 BYTE   W96
//  #03 //018   ----------------------------------------
 BYTE   W96
//  #03 //019   ----------------------------------------
 BYTE   W96
//  #03 //020   ----------------------------------------
 BYTE   W96
//  #03 //021   ----------------------------------------
 BYTE   W96
//  #03 //022   ----------------------------------------
 BYTE   W96
//  #03 //023   ----------------------------------------
 BYTE   W96
//  #03 //024   ----------------------------------------
 BYTE   W96
//  #03 //025   ----------------------------------------
 BYTE   W96
//  #03 //026   ----------------------------------------
 BYTE   W96
//  #03 //027   ----------------------------------------
 BYTE   W96
//  #03 //028   ----------------------------------------
 BYTE   W96
//  #03 //029   ----------------------------------------
 BYTE   W96
//  #03 //030   ----------------------------------------
 BYTE   W96
//  #03 //031   ----------------------------------------
 BYTE   W96
//  #03 //032   ----------------------------------------
 BYTE   W96
//  #03 //033   ----------------------------------------
 BYTE   W96
//  #03 //034   ----------------------------------------
 BYTE   W96
//  #03 //035   ----------------------------------------
 BYTE   W96
//  #03 //036   ----------------------------------------
 BYTE   W96
//  #03 //037   ----------------------------------------
 BYTE   W96
//  #03 //038   ----------------------------------------
 BYTE   W96
//  #03 //039   ----------------------------------------
 BYTE   W96
//  #03 //040   ----------------------------------------
 BYTE   W96
//  #03 //041   ----------------------------------------
 BYTE   W96
//  #03 //042   ----------------------------------------
 BYTE   W96
//  #03 //043   ----------------------------------------
 BYTE   W96
//  #03 //044   ----------------------------------------
 BYTE   W96
//  #03 //045   ----------------------------------------
 BYTE   W96
//  #03 //046   ----------------------------------------
 BYTE   W96
//  #03 //047   ----------------------------------------
 BYTE   W96
//  #03 //048   ----------------------------------------
 BYTE   W96
//  #03 //049   ----------------------------------------
 BYTE   W96
//  #03 //050   ----------------------------------------
 BYTE   N12  Cn4  v080
 BYTE   N12  Cn3  v041
 BYTE   W11
 BYTE   PAN   c_v+32
 BYTE   W07
 BYTE   N09
 BYTE   N09  Cn4  v080
 BYTE   W10
 BYTE   PAN   c_v+16
 BYTE   W01
 BYTE   PAN   c_v+0
 BYTE   W01
 BYTE   PAN   c_v-16
 BYTE   W01
 BYTE   PAN   c_v-32
 BYTE   W05
 BYTE   N09  Fs3  v041
 BYTE   N09  Fs4  v080
 BYTE   W08
 BYTE   PAN   c_v-24
 BYTE   W01
 BYTE   PAN   c_v-16
 BYTE   W01
 BYTE   PAN   c_v-8
 BYTE   W01
 BYTE   PAN   c_v+0
 BYTE   W07
 BYTE   N09  Fs3  v022
 BYTE   N09  Fs4  v054
 BYTE   W10
 BYTE   PAN   c_v+8
 BYTE   W01
 BYTE   PAN   c_v+16
 BYTE   W01
 BYTE   PAN   c_v+24
 BYTE   W01
 BYTE   PAN   c_v+32
 BYTE   W05
 BYTE   N09  Fn4  v080
 BYTE   N09  Fn3  v041
 BYTE   W12
 BYTE   PAN   c_v-32
 BYTE   W12
//  #03 //051   ----------------------------------------
 BYTE   W96
//  #03 //052   ----------------------------------------
 BYTE   N12  Fs4  v080
 BYTE   N12  Fs3  v041
 BYTE   W18
 BYTE   N09
 BYTE   N09  Fs4  v080
 BYTE   W10
 BYTE   PAN   c_v-16
 BYTE   W01
 BYTE   PAN   c_v+0
 BYTE   W01
 BYTE   PAN   c_v+16
 BYTE   W01
 BYTE   PAN   c_v+32
 BYTE   W05
 BYTE   N09  Fn3  v041
 BYTE   N09  Fn4  v080
 BYTE   W08
 BYTE   PAN   c_v+24
 BYTE   W01
 BYTE   PAN   c_v+16
 BYTE   W01
 BYTE   PAN   c_v+8
 BYTE   W01
 BYTE   PAN   c_v+0
 BYTE   W07
 BYTE   N09  Fn3  v022
 BYTE   N09  Fn4  v054
 BYTE   W10
 BYTE   PAN   c_v-7
 BYTE   W01
 BYTE   PAN   c_v-15
 BYTE   W01
 BYTE   PAN   c_v-23
 BYTE   W01
 BYTE   PAN   c_v-31
 BYTE   W05
 BYTE   N09  Cn3  v041
 BYTE   N09  Cn4  v080
 BYTE   W11
 BYTE   PAN   c_v-32
 BYTE   W01
 BYTE   PAN   c_v+32
 BYTE   W01
 BYTE   PAN   c_v+31
 BYTE   W11
//  #03 //053   ----------------------------------------
 BYTE   W96
//  #03 //054   ----------------------------------------
Label_010096A1:
 BYTE   N12  Cn4  v080
 BYTE   N12  Cn3  v041
 BYTE   W12
 BYTE   PAN   c_v+32
 BYTE   W06
 BYTE   N09
 BYTE   N09  Cn4  v080
 BYTE   W10
 BYTE   PAN   c_v+16
 BYTE   W01
 BYTE   PAN   c_v+0
 BYTE   W01
 BYTE   PAN   c_v-16
 BYTE   W01
 BYTE   PAN   c_v-32
 BYTE   W05
 BYTE   N09  Fs3  v041
 BYTE   N09  Fs4  v080
 BYTE   W08
 BYTE   PAN   c_v-24
 BYTE   W01
 BYTE   PAN   c_v-16
 BYTE   W01
 BYTE   PAN   c_v-8
 BYTE   W01
 BYTE   PAN   c_v+0
 BYTE   W07
 BYTE   N09  Fs3  v022
 BYTE   N09  Fs4  v054
 BYTE   W10
 BYTE   PAN   c_v+8
 BYTE   W01
 BYTE   PAN   c_v+16
 BYTE   W01
 BYTE   PAN   c_v+24
 BYTE   W01
 BYTE   PAN   c_v+32
 BYTE   W05
 BYTE   N09  Fn4  v080
 BYTE   N09  Fn3  v041
 BYTE   W12
 BYTE   PAN   c_v-32
 BYTE   W12
 BYTE   PEND 
//  #03 //055   ----------------------------------------
 BYTE   W96
//  #03 //056   ----------------------------------------
 BYTE   N12  Fs3
 BYTE   N12  Fs4  v080
 BYTE   W18
 BYTE   N09  Fs3  v041
 BYTE   N09  Fs4  v080
 BYTE   W10
 BYTE   PAN   c_v-16
 BYTE   W01
 BYTE   PAN   c_v+0
 BYTE   W01
 BYTE   PAN   c_v+16
 BYTE   W01
 BYTE   PAN   c_v+32
 BYTE   W05
 BYTE   N09  Fn4
 BYTE   N09  Fn3  v041
 BYTE   W08
 BYTE   PAN   c_v+24
 BYTE   W01
 BYTE   PAN   c_v+16
 BYTE   W01
 BYTE   PAN   c_v+8
 BYTE   W01
 BYTE   PAN   c_v+0
 BYTE   W07
 BYTE   N09  Fn3  v022
 BYTE   N09  Fn4  v054
 BYTE   W10
 BYTE   PAN   c_v-7
 BYTE   W01
 BYTE   PAN   c_v-15
 BYTE   W01
 BYTE   PAN   c_v-23
 BYTE   W01
 BYTE   PAN   c_v-31
 BYTE   W05
 BYTE   N09  Cn3  v041
 BYTE   N09  Cn4  v080
 BYTE   W11
 BYTE   PAN   c_v-32
 BYTE   W01
 BYTE   PAN   c_v+32
 BYTE   W01
 BYTE   PAN   c_v+31
 BYTE   W11
//  #03 //057   ----------------------------------------
 BYTE   W96
//  #03 //058   ----------------------------------------
 BYTE   N12
 BYTE   N12  Cn3  v041
 BYTE   W12
 BYTE   PAN   c_v+32
 BYTE   W06
 BYTE   N09  Cn4  v080
 BYTE   N09  Cn3  v041
 BYTE   W10
 BYTE   PAN   c_v+16
 BYTE   W01
 BYTE   PAN   c_v+0
 BYTE   W01
 BYTE   PAN   c_v-16
 BYTE   W01
 BYTE   PAN   c_v-32
 BYTE   W05
 BYTE   N09  Fs4  v080
 BYTE   N09  Fs3  v041
 BYTE   W08
 BYTE   PAN   c_v-24
 BYTE   W01
 BYTE   PAN   c_v-16
 BYTE   W01
 BYTE   PAN   c_v-8
 BYTE   W01
 BYTE   PAN   c_v+0
 BYTE   W07
 BYTE   N09  Fs4  v054
 BYTE   N09  Fs3  v022
 BYTE   W10
 BYTE   PAN   c_v+8
 BYTE   W01
 BYTE   PAN   c_v+16
 BYTE   W01
 BYTE   PAN   c_v+24
 BYTE   W01
 BYTE   PAN   c_v+32
 BYTE   W05
 BYTE   N09  Fn3  v041
 BYTE   N09  Fn4  v080
 BYTE   W12
 BYTE   PAN   c_v-32
 BYTE   W12
//  #03 //059   ----------------------------------------
 BYTE   W96
//  #03 //060   ----------------------------------------
 BYTE   N12  Fs4
 BYTE   N12  Fs3  v041
 BYTE   W18
 BYTE   N09  Fs4  v080
 BYTE   N09  Fs3  v041
 BYTE   W10
 BYTE   PAN   c_v-16
 BYTE   W01
 BYTE   PAN   c_v+0
 BYTE   W01
 BYTE   PAN   c_v+16
 BYTE   W01
 BYTE   PAN   c_v+32
 BYTE   W05
 BYTE   N09  Fn4  v080
 BYTE   N09  Fn3  v041
 BYTE   W08
 BYTE   PAN   c_v+24
 BYTE   W01
 BYTE   PAN   c_v+16
 BYTE   W01
 BYTE   PAN   c_v+8
 BYTE   W01
 BYTE   PAN   c_v+0
 BYTE   W07
 BYTE   N09  Fn4  v054
 BYTE   N09  Fn3  v022
 BYTE   W10
 BYTE   PAN   c_v-7
 BYTE   W01
 BYTE   PAN   c_v-15
 BYTE   W01
 BYTE   PAN   c_v-23
 BYTE   W01
 BYTE   PAN   c_v-31
 BYTE   W05
 BYTE   N09  Cn3  v041
 BYTE   N09  Cn4  v080
 BYTE   W11
 BYTE   PAN   c_v-32
 BYTE   W01
 BYTE   PAN   c_v+32
 BYTE   W01
 BYTE   PAN   c_v+31
 BYTE   W11
//  #03 //061   ----------------------------------------
 BYTE   W96
//  #03 //062   ----------------------------------------
 BYTE   PATT
  POIN2 Label_010096A1
//  #03 //063   ----------------------------------------
 BYTE   W96
//  #03 //064   ----------------------------------------
 BYTE   N12  Fs3  v041
 BYTE   N12  Fs4  v080
 BYTE   W18
 BYTE   N09  Fs3  v041
 BYTE   N09  Fs4  v080
 BYTE   W10
 BYTE   PAN   c_v-16
 BYTE   W01
 BYTE   PAN   c_v+0
 BYTE   W01
 BYTE   PAN   c_v+16
 BYTE   W01
 BYTE   PAN   c_v+32
 BYTE   W05
 BYTE   N09  Fn3  v041
 BYTE   N09  Fn4  v080
 BYTE   W08
 BYTE   PAN   c_v+24
 BYTE   W01
 BYTE   PAN   c_v+16
 BYTE   W01
 BYTE   PAN   c_v+8
 BYTE   W01
 BYTE   PAN   c_v+0
 BYTE   W07
 BYTE   N09  Fn3  v022
 BYTE   N09  Fn4  v054
 BYTE   W10
 BYTE   PAN   c_v-7
 BYTE   W01
 BYTE   PAN   c_v-15
 BYTE   W01
 BYTE   PAN   c_v-23
 BYTE   W01
 BYTE   PAN   c_v-31
 BYTE   W05
 BYTE   N09  Cn4  v080
 BYTE   N09  Cn3  v041
 BYTE   W11
 BYTE   PAN   c_v-32
 BYTE   W01
 BYTE   PAN   c_v+32
 BYTE   W01
 BYTE   PAN   c_v+31
 BYTE   W11
//  #03 //065   ----------------------------------------
 BYTE   W96
//  #03 //066   ----------------------------------------
 BYTE   W96
//  #03 //067   ----------------------------------------
 BYTE   W96
//  #03 //068   ----------------------------------------
 BYTE   W96
//  #03 //069   ----------------------------------------
 BYTE   W96
//  #03 //070   ----------------------------------------
 BYTE   W96
//  #03 //071   ----------------------------------------
 BYTE   W96
//  #03 //072   ----------------------------------------
 BYTE   W96
//  #03 //073   ----------------------------------------
 BYTE   PAN   c_v+0
 BYTE   GoTo
  POIN2 Label_010095E9
//  #03 //074   ----------------------------------------
 BYTE   W96
//  #03 //075   ----------------------------------------
 BYTE   Bn5
 BYTE   FINE

//**************** Track 4 (Midi-Chn.3) ****************//

StreetFighter33rdStrikeSpunkyMakotoTak_004:
//  #04 //000   ----------------------------------------
 BYTE   KEYSH   StreetFighter33rdStrikeSpunkyMakotoTak_key+0
 BYTE   VOICE   39
 BYTE   BENDR  12
 BYTE   VOL   85*StreetFighter33rdStrikeSpunkyMakotoTak_mvl/mxv
 BYTE   W96
//  #04 //001   ----------------------------------------
Label_01008065:
 BYTE   N36  Gn0  v127
 BYTE   W36
 BYTE   Gn0
 BYTE   W36
 BYTE   N24
 BYTE   W24
//  #04 //002   ----------------------------------------
Label_0100806D:
 BYTE   W24
 BYTE   N12  Gn1  v127
 BYTE   W12
 BYTE   An1
 BYTE   W12
 BYTE   Gn1
 BYTE   W12
 BYTE   Gn0
 BYTE   W12
 BYTE   An1
 BYTE   W12
 BYTE   Gn1
 BYTE   W12
 BYTE   PEND 
//  #04 //003   ----------------------------------------
Label_0100807D:
 BYTE   N36  Gn0  v127
 BYTE   W36
 BYTE   N24
 BYTE   W24
 BYTE   N12  Fn0
 BYTE   W12
 BYTE   Gn0
 BYTE   W24
 BYTE   PEND 
//  #04 //004   ----------------------------------------
Label_01008089:
 BYTE   N30  Fn1  v127
 BYTE   W36
 BYTE   Fn1
 BYTE   W36
 BYTE   N24  An1
 BYTE   W24
 BYTE   PEND 
//  #04 //005   ----------------------------------------
Label_01008093:
 BYTE   N36  Gn0  v127
 BYTE   W36
 BYTE   Gn0
 BYTE   W36
 BYTE   N24
 BYTE   W24
 BYTE   PEND 
//  #04 //006   ----------------------------------------
 BYTE   PATT
  POIN2 Label_0100806D
//  #04 //007   ----------------------------------------
 BYTE   PATT
  POIN2 Label_0100807D
//  #04 //008   ----------------------------------------
Label_010080A6:
 BYTE   N30  Fn1  v127
 BYTE   W36
 BYTE   Fn1
 BYTE   W60
 BYTE   PEND 
//  #04 //009   ----------------------------------------
 BYTE   PATT
  POIN2 Label_01008093
//  #04 //010   ----------------------------------------
 BYTE   PATT
  POIN2 Label_0100806D
//  #04 //011   ----------------------------------------
 BYTE   PATT
  POIN2 Label_0100807D
//  #04 //012   ----------------------------------------
 BYTE   PATT
  POIN2 Label_01008089
//  #04 //013   ----------------------------------------
 BYTE   PATT
  POIN2 Label_01008093
//  #04 //014   ----------------------------------------
 BYTE   PATT
  POIN2 Label_0100806D
//  #04 //015   ----------------------------------------
 BYTE   PATT
  POIN2 Label_0100807D
//  #04 //016   ----------------------------------------
 BYTE   PATT
  POIN2 Label_010080A6
//  #04 //017   ----------------------------------------
 BYTE   PATT
  POIN2 Label_01008093
//  #04 //018   ----------------------------------------
 BYTE   PATT
  POIN2 Label_0100806D
//  #04 //019   ----------------------------------------
 BYTE   PATT
  POIN2 Label_0100807D
//  #04 //020   ----------------------------------------
 BYTE   PATT
  POIN2 Label_01008089
//  #04 //021   ----------------------------------------
 BYTE   PATT
  POIN2 Label_01008093
//  #04 //022   ----------------------------------------
 BYTE   PATT
  POIN2 Label_0100806D
//  #04 //023   ----------------------------------------
 BYTE   PATT
  POIN2 Label_0100807D
//  #04 //024   ----------------------------------------
 BYTE   PATT
  POIN2 Label_010080A6
//  #04 //025   ----------------------------------------
 BYTE   PATT
  POIN2 Label_01008093
//  #04 //026   ----------------------------------------
 BYTE   PATT
  POIN2 Label_0100806D
//  #04 //027   ----------------------------------------
 BYTE   PATT
  POIN2 Label_0100807D
//  #04 //028   ----------------------------------------
 BYTE   PATT
  POIN2 Label_01008089
//  #04 //029   ----------------------------------------
 BYTE   PATT
  POIN2 Label_01008093
//  #04 //030   ----------------------------------------
 BYTE   PATT
  POIN2 Label_0100806D
//  #04 //031   ----------------------------------------
 BYTE   PATT
  POIN2 Label_0100807D
//  #04 //032   ----------------------------------------
 BYTE   PATT
  POIN2 Label_010080A6
//  #04 //033   ----------------------------------------
 BYTE   PATT
  POIN2 Label_01008093
//  #04 //034   ----------------------------------------
 BYTE   PATT
  POIN2 Label_0100806D
//  #04 //035   ----------------------------------------
 BYTE   PATT
  POIN2 Label_0100807D
//  #04 //036   ----------------------------------------
 BYTE   PATT
  POIN2 Label_01008089
//  #04 //037   ----------------------------------------
 BYTE   PATT
  POIN2 Label_01008093
//  #04 //038   ----------------------------------------
 BYTE   PATT
  POIN2 Label_0100806D
//  #04 //039   ----------------------------------------
 BYTE   PATT
  POIN2 Label_0100807D
//  #04 //040   ----------------------------------------
 BYTE   PATT
  POIN2 Label_010080A6
//  #04 //041   ----------------------------------------
 BYTE   PATT
  POIN2 Label_01008093
//  #04 //042   ----------------------------------------
Label_01008152:
 BYTE   N12  Gn1  v080
 BYTE   W18
 BYTE   Gn1
 BYTE   W18
 BYTE   Gn1
 BYTE   W18
 BYTE   Gn1
 BYTE   W18
 BYTE   Gn1
 BYTE   W24
 BYTE   PEND 
//  #04 //043   ----------------------------------------
Label_0100815F:
 BYTE   N36  Gn0  v127
 BYTE   W36
 BYTE   N18
 BYTE   W24
 BYTE   N12  Fn0
 BYTE   W12
 BYTE   Gn0
 BYTE   W24
 BYTE   PEND 
//  #04 //044   ----------------------------------------
Label_0100816B:
 BYTE   N12  An1  v080
 BYTE   W18
 BYTE   An1
 BYTE   W18
 BYTE   Ds1
 BYTE   W18
 BYTE   Ds1
 BYTE   W18
 BYTE   Gn0  v127
 BYTE   W24
 BYTE   PEND 
//  #04 //045   ----------------------------------------
 BYTE   PATT
  POIN2 Label_01008093
//  #04 //046   ----------------------------------------
 BYTE   PATT
  POIN2 Label_01008152
//  #04 //047   ----------------------------------------
 BYTE   PATT
  POIN2 Label_0100815F
//  #04 //048   ----------------------------------------
 BYTE   PATT
  POIN2 Label_0100816B
//  #04 //049   ----------------------------------------
 BYTE   PATT
  POIN2 Label_01008093
//  #04 //050   ----------------------------------------
 BYTE   PATT
  POIN2 Label_01008152
//  #04 //051   ----------------------------------------
 BYTE   PATT
  POIN2 Label_0100815F
//  #04 //052   ----------------------------------------
 BYTE   PATT
  POIN2 Label_0100816B
//  #04 //053   ----------------------------------------
 BYTE   PATT
  POIN2 Label_01008093
//  #04 //054   ----------------------------------------
 BYTE   PATT
  POIN2 Label_01008152
//  #04 //055   ----------------------------------------
 BYTE   PATT
  POIN2 Label_0100815F
//  #04 //056   ----------------------------------------
 BYTE   PATT
  POIN2 Label_0100816B
//  #04 //057   ----------------------------------------
 BYTE   PATT
  POIN2 Label_01008093
//  #04 //058   ----------------------------------------
 BYTE   PATT
  POIN2 Label_01008152
//  #04 //059   ----------------------------------------
 BYTE   PATT
  POIN2 Label_0100815F
//  #04 //060   ----------------------------------------
 BYTE   PATT
  POIN2 Label_0100816B
//  #04 //061   ----------------------------------------
 BYTE   PATT
  POIN2 Label_01008093
//  #04 //062   ----------------------------------------
 BYTE   PATT
  POIN2 Label_01008152
//  #04 //063   ----------------------------------------
 BYTE   PATT
  POIN2 Label_0100815F
//  #04 //064   ----------------------------------------
 BYTE   PATT
  POIN2 Label_0100816B
//  #04 //065   ----------------------------------------
 BYTE   PATT
  POIN2 Label_01008093
//  #04 //066   ----------------------------------------
 BYTE   PATT
  POIN2 Label_01008152
//  #04 //067   ----------------------------------------
 BYTE   PATT
  POIN2 Label_0100815F
//  #04 //068   ----------------------------------------
 BYTE   PATT
  POIN2 Label_0100816B
//  #04 //069   ----------------------------------------
 BYTE   PATT
  POIN2 Label_01008093
//  #04 //070   ----------------------------------------
 BYTE   PATT
  POIN2 Label_01008152
//  #04 //071   ----------------------------------------
 BYTE   PATT
  POIN2 Label_0100815F
//  #04 //072   ----------------------------------------
 BYTE   PATT
  POIN2 Label_0100816B
//  #04 //073   ----------------------------------------
 BYTE   GoTo
  POIN2 Label_01008065
//  #04 //074   ----------------------------------------
 BYTE   W96
 BYTE   FINE

//**************** Track 5 (Midi-Chn.4) ****************//

StreetFighter33rdStrikeSpunkyMakotoTak_005:
//  #05 //000   ----------------------------------------
 BYTE   KEYSH   StreetFighter33rdStrikeSpunkyMakotoTak_key+0
 BYTE   VOICE   81
 BYTE   BENDR  12
 BYTE   VOL   70*StreetFighter33rdStrikeSpunkyMakotoTak_mvl/mxv
 BYTE   W96
//  #05 //001   ----------------------------------------
Label_01003D59:
 BYTE   N36  Gn0  v127
 BYTE   W36
 BYTE   Gn0
 BYTE   W36
 BYTE   N24
 BYTE   W24
//  #05 //002   ----------------------------------------
 BYTE   PATT
  POIN2 Label_0100806D
//  #05 //003   ----------------------------------------
 BYTE   PATT
  POIN2 Label_0100807D
//  #05 //004   ----------------------------------------
 BYTE   PATT
  POIN2 Label_01008089
//  #05 //005   ----------------------------------------
 BYTE   PATT
  POIN2 Label_01008093
//  #05 //006   ----------------------------------------
 BYTE   PATT
  POIN2 Label_0100806D
//  #05 //007   ----------------------------------------
 BYTE   PATT
  POIN2 Label_0100807D
//  #05 //008   ----------------------------------------
 BYTE   PATT
  POIN2 Label_010080A6
//  #05 //009   ----------------------------------------
 BYTE   PATT
  POIN2 Label_01008093
//  #05 //010   ----------------------------------------
 BYTE   PATT
  POIN2 Label_0100806D
//  #05 //011   ----------------------------------------
 BYTE   PATT
  POIN2 Label_0100807D
//  #05 //012   ----------------------------------------
 BYTE   PATT
  POIN2 Label_01008089
//  #05 //013   ----------------------------------------
 BYTE   PATT
  POIN2 Label_01008093
//  #05 //014   ----------------------------------------
 BYTE   PATT
  POIN2 Label_0100806D
//  #05 //015   ----------------------------------------
 BYTE   PATT
  POIN2 Label_0100807D
//  #05 //016   ----------------------------------------
 BYTE   PATT
  POIN2 Label_010080A6
//  #05 //017   ----------------------------------------
 BYTE   PATT
  POIN2 Label_01008093
//  #05 //018   ----------------------------------------
 BYTE   PATT
  POIN2 Label_0100806D
//  #05 //019   ----------------------------------------
 BYTE   PATT
  POIN2 Label_0100807D
//  #05 //020   ----------------------------------------
 BYTE   PATT
  POIN2 Label_01008089
//  #05 //021   ----------------------------------------
 BYTE   PATT
  POIN2 Label_01008093
//  #05 //022   ----------------------------------------
 BYTE   PATT
  POIN2 Label_0100806D
//  #05 //023   ----------------------------------------
 BYTE   PATT
  POIN2 Label_0100807D
//  #05 //024   ----------------------------------------
 BYTE   PATT
  POIN2 Label_010080A6
//  #05 //025   ----------------------------------------
Label_01003DD4:
 BYTE   W04
 BYTE   N36  Gn0  v127
 BYTE   W36
 BYTE   Gn0
 BYTE   W36
 BYTE   N24
 BYTE   W20
 BYTE   PEND 
//  #05 //026   ----------------------------------------
Label_01003DDE:
 BYTE   W28
 BYTE   N12  Gn1  v127
 BYTE   W12
 BYTE   An1
 BYTE   W12
 BYTE   Gn1
 BYTE   W12
 BYTE   Gn0
 BYTE   W12
 BYTE   An1
 BYTE   W12
 BYTE   Gn1
 BYTE   W08
 BYTE   PEND 
//  #05 //027   ----------------------------------------
Label_01003DEE:
 BYTE   W04
 BYTE   N36  Gn0  v127
 BYTE   W36
 BYTE   N24
 BYTE   W24
 BYTE   N12  Fn0
 BYTE   W12
 BYTE   Gn0
 BYTE   W20
 BYTE   PEND 
//  #05 //028   ----------------------------------------
 BYTE   W04
 BYTE   N30  Fn1
 BYTE   W36
 BYTE   Fn1
 BYTE   W36
 BYTE   N24  An1
 BYTE   W20
//  #05 //029   ----------------------------------------
 BYTE   PATT
  POIN2 Label_01003DD4
//  #05 //030   ----------------------------------------
 BYTE   PATT
  POIN2 Label_01003DDE
//  #05 //031   ----------------------------------------
 BYTE   PATT
  POIN2 Label_01003DEE
//  #05 //032   ----------------------------------------
 BYTE   W04
 BYTE   N30  Fn1  v127
 BYTE   W36
 BYTE   Fn1
 BYTE   W56
//  #05 //033   ----------------------------------------
 BYTE   PATT
  POIN2 Label_01008093
//  #05 //034   ----------------------------------------
 BYTE   PATT
  POIN2 Label_0100806D
//  #05 //035   ----------------------------------------
 BYTE   PATT
  POIN2 Label_0100807D
//  #05 //036   ----------------------------------------
 BYTE   PATT
  POIN2 Label_01008089
//  #05 //037   ----------------------------------------
 BYTE   PATT
  POIN2 Label_01008093
//  #05 //038   ----------------------------------------
 BYTE   PATT
  POIN2 Label_0100806D
//  #05 //039   ----------------------------------------
 BYTE   PATT
  POIN2 Label_0100807D
//  #05 //040   ----------------------------------------
 BYTE   PATT
  POIN2 Label_010080A6
//  #05 //041   ----------------------------------------
 BYTE   PATT
  POIN2 Label_01008093
//  #05 //042   ----------------------------------------
 BYTE   W96
//  #05 //043   ----------------------------------------
Label_01003E48:
 BYTE   N36  Gn1  v127
 BYTE   N36  Gn0
 BYTE   W36
 BYTE   N24
 BYTE   N24  Gn1
 BYTE   W24
 BYTE   N12  Fn0
 BYTE   N12  Fn1
 BYTE   W12
 BYTE   Gn1
 BYTE   N12  Gn0
 BYTE   W24
 BYTE   PEND 
//  #05 //044   ----------------------------------------
 BYTE   W96
//  #05 //045   ----------------------------------------
Label_01003E5D:
 BYTE   N36  Gn1  v127
 BYTE   N36  Gn0
 BYTE   W36
 BYTE   Gn1
 BYTE   N36  Gn0
 BYTE   W36
 BYTE   N24  Gn1
 BYTE   N24  Gn0
 BYTE   W24
 BYTE   PEND 
//  #05 //046   ----------------------------------------
 BYTE   W96
//  #05 //047   ----------------------------------------
 BYTE   PATT
  POIN2 Label_01003E48
//  #05 //048   ----------------------------------------
 BYTE   W96
//  #05 //049   ----------------------------------------
 BYTE   PATT
  POIN2 Label_01003E5D
//  #05 //050   ----------------------------------------
 BYTE   W96
//  #05 //051   ----------------------------------------
 BYTE   PATT
  POIN2 Label_01003E48
//  #05 //052   ----------------------------------------
 BYTE   W96
//  #05 //053   ----------------------------------------
 BYTE   PATT
  POIN2 Label_01003E5D
//  #05 //054   ----------------------------------------
 BYTE   W96
//  #05 //055   ----------------------------------------
 BYTE   PATT
  POIN2 Label_01003E48
//  #05 //056   ----------------------------------------
 BYTE   W96
//  #05 //057   ----------------------------------------
 BYTE   PATT
  POIN2 Label_01003E5D
//  #05 //058   ----------------------------------------
 BYTE   W96
//  #05 //059   ----------------------------------------
 BYTE   PATT
  POIN2 Label_01003E48
//  #05 //060   ----------------------------------------
 BYTE   W96
//  #05 //061   ----------------------------------------
 BYTE   PATT
  POIN2 Label_01003E5D
//  #05 //062   ----------------------------------------
 BYTE   W96
//  #05 //063   ----------------------------------------
 BYTE   PATT
  POIN2 Label_01003E48
//  #05 //064   ----------------------------------------
 BYTE   W96
//  #05 //065   ----------------------------------------
 BYTE   PATT
  POIN2 Label_01003E5D
//  #05 //066   ----------------------------------------
 BYTE   W96
//  #05 //067   ----------------------------------------
 BYTE   PATT
  POIN2 Label_01003E48
//  #05 //068   ----------------------------------------
 BYTE   W96
//  #05 //069   ----------------------------------------
 BYTE   PATT
  POIN2 Label_01003E5D
//  #05 //070   ----------------------------------------
 BYTE   W96
//  #05 //071   ----------------------------------------
 BYTE   PATT
  POIN2 Label_01003E48
//  #05 //072   ----------------------------------------
 BYTE   W96
//  #05 //073   ----------------------------------------
 BYTE   GoTo
  POIN2 Label_01003D59
//  #05 //074   ----------------------------------------
 BYTE   W96
 BYTE   FINE

//**************** Track 6 (Midi-Chn.5) ****************//

StreetFighter33rdStrikeSpunkyMakotoTak_006:
//  #06 //000   ----------------------------------------
 BYTE   KEYSH   StreetFighter33rdStrikeSpunkyMakotoTak_key+0
 BYTE   VOICE   18
 BYTE   BENDR  12
 BYTE   VOL   97*StreetFighter33rdStrikeSpunkyMakotoTak_mvl/mxv
 BYTE   W96
//  #06 //001   ----------------------------------------
Label_0100A695:
 BYTE   W96
//  #06 //002   ----------------------------------------
 BYTE   W96
//  #06 //003   ----------------------------------------
 BYTE   W96
//  #06 //004   ----------------------------------------
 BYTE   W96
//  #06 //005   ----------------------------------------
 BYTE   W96
//  #06 //006   ----------------------------------------
 BYTE   W96
//  #06 //007   ----------------------------------------
 BYTE   W96
//  #06 //008   ----------------------------------------
 BYTE   W96
//  #06 //009   ----------------------------------------
Label_0100A69D:
 BYTE   N24  Gn5  v127
 BYTE   W24
 BYTE   N12  Fn5
 BYTE   W12
 BYTE   N96  Dn5
 BYTE   W60
 BYTE   PEND 
//  #06 //010   ----------------------------------------
Label_0100A6A8:
 BYTE   W36
 BYTE   N12  An4  v127
 BYTE   W12
 BYTE   N24  Cn5
 BYTE   W24
 BYTE   N12  Dn5
 BYTE   W12
 BYTE   An4  v080
 BYTE   W12
 BYTE   PEND 
//  #06 //011   ----------------------------------------
 BYTE   PATT
  POIN2 Label_0100A69D
//  #06 //012   ----------------------------------------
Label_0100A6BC:
 BYTE   W36
 BYTE   N12  An4  v127
 BYTE   W12
 BYTE   N24  Cn5
 BYTE   W24
 BYTE   N12  Dn5
 BYTE   W24
 BYTE   PEND 
//  #06 //013   ----------------------------------------
Label_0100A6C8:
 BYTE   N24  Gn5  v127
 BYTE   W24
 BYTE   N12  Fn5
 BYTE   W12
 BYTE   TIE  Dn5
 BYTE   W60
 BYTE   PEND 
//  #06 //014   ----------------------------------------
 BYTE   W96
//  #06 //015   ----------------------------------------
Label_0100A6D4:
 BYTE   EOT
 BYTE   Dn5
 BYTE   N24  An5  v127
 BYTE   W24
 BYTE   N12  Gn5
 BYTE   W12
 BYTE   TIE  Dn5
 BYTE   W60
 BYTE   PEND 
//  #06 //016   ----------------------------------------
 BYTE   W96
//  #06 //017   ----------------------------------------
Label_0100A6E2:
 BYTE   N24  Gn5  v127
 BYTE   W01
 BYTE   EOT
 BYTE   Dn5
 BYTE   W23
 BYTE   N12  Fn5
 BYTE   W12
 BYTE   N96  Dn5
 BYTE   W60
 BYTE   PEND 
//  #06 //018   ----------------------------------------
 BYTE   PATT
  POIN2 Label_0100A6A8
//  #06 //019   ----------------------------------------
 BYTE   PATT
  POIN2 Label_0100A69D
//  #06 //020   ----------------------------------------
 BYTE   PATT
  POIN2 Label_0100A6BC
//  #06 //021   ----------------------------------------
 BYTE   PATT
  POIN2 Label_0100A6C8
//  #06 //022   ----------------------------------------
 BYTE   W96
//  #06 //023   ----------------------------------------
 BYTE   PATT
  POIN2 Label_0100A6D4
//  #06 //024   ----------------------------------------
 BYTE   W96
//  #06 //025   ----------------------------------------
 BYTE   W01
 BYTE   EOT
 BYTE   Dn5
 BYTE   W92
 BYTE   W03
//  #06 //026   ----------------------------------------
 BYTE   W96
//  #06 //027   ----------------------------------------
 BYTE   W96
//  #06 //028   ----------------------------------------
 BYTE   W96
//  #06 //029   ----------------------------------------
 BYTE   W96
//  #06 //030   ----------------------------------------
 BYTE   W96
//  #06 //031   ----------------------------------------
 BYTE   W96
//  #06 //032   ----------------------------------------
 BYTE   W96
//  #06 //033   ----------------------------------------
 BYTE   PATT
  POIN2 Label_0100A69D
//  #06 //034   ----------------------------------------
 BYTE   PATT
  POIN2 Label_0100A6A8
//  #06 //035   ----------------------------------------
 BYTE   PATT
  POIN2 Label_0100A69D
//  #06 //036   ----------------------------------------
 BYTE   PATT
  POIN2 Label_0100A6BC
//  #06 //037   ----------------------------------------
 BYTE   PATT
  POIN2 Label_0100A6C8
//  #06 //038   ----------------------------------------
 BYTE   W96
//  #06 //039   ----------------------------------------
 BYTE   PATT
  POIN2 Label_0100A6D4
//  #06 //040   ----------------------------------------
 BYTE   W96
//  #06 //041   ----------------------------------------
 BYTE   PATT
  POIN2 Label_0100A6E2
//  #06 //042   ----------------------------------------
 BYTE   PATT
  POIN2 Label_0100A6A8
//  #06 //043   ----------------------------------------
 BYTE   PATT
  POIN2 Label_0100A69D
//  #06 //044   ----------------------------------------
 BYTE   PATT
  POIN2 Label_0100A6BC
//  #06 //045   ----------------------------------------
 BYTE   PATT
  POIN2 Label_0100A6C8
//  #06 //046   ----------------------------------------
 BYTE   W96
//  #06 //047   ----------------------------------------
 BYTE   PATT
  POIN2 Label_0100A6D4
//  #06 //048   ----------------------------------------
 BYTE   W96
//  #06 //049   ----------------------------------------
 BYTE   W01
 BYTE   EOT
 BYTE   Dn5
 BYTE   W92
 BYTE   W03
//  #06 //050   ----------------------------------------
 BYTE   W96
//  #06 //051   ----------------------------------------
 BYTE   W96
//  #06 //052   ----------------------------------------
 BYTE   W96
//  #06 //053   ----------------------------------------
 BYTE   W96
//  #06 //054   ----------------------------------------
 BYTE   W96
//  #06 //055   ----------------------------------------
 BYTE   W96
//  #06 //056   ----------------------------------------
 BYTE   W96
//  #06 //057   ----------------------------------------
 BYTE   W96
//  #06 //058   ----------------------------------------
 BYTE   W96
//  #06 //059   ----------------------------------------
 BYTE   W96
//  #06 //060   ----------------------------------------
 BYTE   W96
//  #06 //061   ----------------------------------------
 BYTE   W96
//  #06 //062   ----------------------------------------
 BYTE   W96
//  #06 //063   ----------------------------------------
 BYTE   W96
//  #06 //064   ----------------------------------------
 BYTE   W96
//  #06 //065   ----------------------------------------
 BYTE   PATT
  POIN2 Label_0100A69D
//  #06 //066   ----------------------------------------
 BYTE   PATT
  POIN2 Label_0100A6A8
//  #06 //067   ----------------------------------------
 BYTE   PATT
  POIN2 Label_0100A69D
//  #06 //068   ----------------------------------------
 BYTE   PATT
  POIN2 Label_0100A6BC
//  #06 //069   ----------------------------------------
 BYTE   PATT
  POIN2 Label_0100A6C8
//  #06 //070   ----------------------------------------
 BYTE   W96
//  #06 //071   ----------------------------------------
 BYTE   PATT
  POIN2 Label_0100A6D4
//  #06 //072   ----------------------------------------
 BYTE   W60
 BYTE   EOT
 BYTE   Dn5
 BYTE   W36
//  #06 //073   ----------------------------------------
 BYTE   GoTo
  POIN2 Label_0100A695
//  #06 //074   ----------------------------------------
 BYTE   W96
 BYTE   FINE

//**************** Track 7 (Midi-Chn.6) ****************//

StreetFighter33rdStrikeSpunkyMakotoTak_007:
//  #07 //000   ----------------------------------------
 BYTE   KEYSH   StreetFighter33rdStrikeSpunkyMakotoTak_key+0
 BYTE   VOICE   124
 BYTE   BENDR  12
 BYTE   VOL   85*StreetFighter33rdStrikeSpunkyMakotoTak_mvl/mxv
 BYTE   W96
//  #07 //001   ----------------------------------------
Label_0100C7ED:
 BYTE   N06  Cn1  v127
 BYTE   N06  As3  v088
 BYTE   N06  Fs1  v056
 BYTE   W06
 BYTE   Fs1  v036
 BYTE   W06
 BYTE   As3  v049
 BYTE   W12
 BYTE   Ds1  v064
 BYTE   N12  As1  v056
 BYTE   N06  Dn1  v042
 BYTE   N06  En1  v064
 BYTE   W12
 BYTE   Cn1  v127
 BYTE   N06  As3  v049
 BYTE   N06  Fs1  v056
 BYTE   W06
 BYTE   Fs1
 BYTE   W06
 BYTE   As3  v088
 BYTE   W12
 BYTE   Ds1  v064
 BYTE   N06  As3  v049
 BYTE   N12  As1  v056
 BYTE   N06  Dn1  v042
 BYTE   N06  En1  v064
 BYTE   W12
 BYTE   As3  v088
 BYTE   N06  Fs1  v056
 BYTE   W12
 BYTE   Ds1  v064
 BYTE   N06  As3  v049
 BYTE   N12  As1  v056
 BYTE   N06  Dn1  v042
 BYTE   N06  En1  v064
 BYTE   W12
//  #07 //002   ----------------------------------------
 BYTE   Cn1  v127
 BYTE   N06  As3  v088
 BYTE   N06  Fs1  v056
 BYTE   W06
 BYTE   Fs1
 BYTE   W06
 BYTE   Ds1  v064
 BYTE   N06  As3  v049
 BYTE   N12  As1  v056
 BYTE   N06  Dn1  v042
 BYTE   N06  En1  v064
 BYTE   W06
 BYTE   Fs1  v056
 BYTE   W06
 BYTE   Ds1  v064
 BYTE   N06  As3  v029
 BYTE   N12  As1  v056
 BYTE   N06  Dn1  v042
 BYTE   N06  En1  v064
 BYTE   W06
 BYTE   Fs1  v056
 BYTE   W06
 BYTE   Fs1
 BYTE   N06  Cn1  v127
 BYTE   W06
 BYTE   Fs1  v108
 BYTE   W06
 BYTE   Fs1  v056
 BYTE   N06  As3  v088
 BYTE   W06
 BYTE   Fs1  v036
 BYTE   W06
 BYTE   Fs1  v056
 BYTE   N06  As3  v049
 BYTE   W06
 BYTE   Fs1  v088
 BYTE   W06
 BYTE   Fs1  v056
 BYTE   N06  As3  v029
 BYTE   N06  Cn1  v127
 BYTE   W06
 BYTE   Fs1  v036
 BYTE   W06
 BYTE   Fs1  v056
 BYTE   W06
 BYTE   Fs1  v036
 BYTE   W06
//  #07 //003   ----------------------------------------
 BYTE   As3  v088
 BYTE   N06  Cn1  v127
 BYTE   N06  Fs1  v056
 BYTE   W06
 BYTE   Fs1  v036
 BYTE   W06
 BYTE   As3  v049
 BYTE   W12
 BYTE   Ds1  v064
 BYTE   N06  Dn1  v042
 BYTE   N06  En1  v064
 BYTE   N12  As1  v056
 BYTE   W12
 BYTE   N06  As3  v049
 BYTE   N06  Cn1  v127
 BYTE   N06  Fs1  v056
 BYTE   W06
 BYTE   Fs1
 BYTE   W06
 BYTE   As3  v088
 BYTE   W12
 BYTE   Ds1  v064
 BYTE   N06  As3  v049
 BYTE   N06  Dn1  v042
 BYTE   N06  En1  v064
 BYTE   N12  As1  v056
 BYTE   W12
 BYTE   N06  As3  v088
 BYTE   N06  Fs1  v056
 BYTE   W12
 BYTE   As3  v049
 BYTE   N12  As1  v056
 BYTE   W12
//  #07 //004   ----------------------------------------
 BYTE   N06  Ds1  v064
 BYTE   N06  As3  v088
 BYTE   N06  Cn1  v127
 BYTE   N06  Dn1  v042
 BYTE   N06  En1  v064
 BYTE   N06  Fs1  v056
 BYTE   W06
 BYTE   Fs1
 BYTE   W06
 BYTE   Ds1  v064
 BYTE   N06  As3  v049
 BYTE   N06  Dn1  v042
 BYTE   N06  En1  v064
 BYTE   N12  As1  v056
 BYTE   W06
 BYTE   N06  Fs1
 BYTE   W06
 BYTE   Ds1  v064
 BYTE   N06  Dn1  v042
 BYTE   N06  En1  v064
 BYTE   N12  As1  v056
 BYTE   N06  As3  v029
 BYTE   W06
 BYTE   Fs1  v056
 BYTE   W06
 BYTE   Cn1  v127
 BYTE   N06  Fs1  v056
 BYTE   W06
 BYTE   Fs1  v108
 BYTE   W06
 BYTE   As3  v088
 BYTE   N06  Cn1  v127
 BYTE   N06  Fs1  v056
 BYTE   W06
 BYTE   Fs1  v036
 BYTE   W06
 BYTE   As3  v049
 BYTE   N06  Cn1  v127
 BYTE   N06  Fs1  v056
 BYTE   W06
 BYTE   Fs1  v088
 BYTE   W06
 BYTE   As3  v029
 BYTE   N06  Dn1  v041
 BYTE   N06  Fs1  v056
 BYTE   W06
 BYTE   Dn1  v041
 BYTE   N06  Fs1  v036
 BYTE   W06
 BYTE   Dn1  v041
 BYTE   N06  Fs1  v056
 BYTE   W06
 BYTE   Dn1  v041
 BYTE   N06  Fs1  v036
 BYTE   W06
//  #07 //005   ----------------------------------------
Label_0100C951:
 BYTE   N06  Cn1  v127
 BYTE   N06  As3  v088
 BYTE   N06  Fs1  v056
 BYTE   W06
 BYTE   Fs1  v036
 BYTE   W06
 BYTE   As3  v049
 BYTE   W12
 BYTE   Ds1  v064
 BYTE   N06  Dn1  v042
 BYTE   N06  En1  v064
 BYTE   N12  As1  v056
 BYTE   W12
 BYTE   N06  Cn1  v127
 BYTE   N06  As3  v049
 BYTE   N06  Fs1  v056
 BYTE   W06
 BYTE   Fs1
 BYTE   W06
 BYTE   As3  v088
 BYTE   W12
 BYTE   Ds1  v064
 BYTE   N06  As3  v049
 BYTE   N06  Dn1  v042
 BYTE   N06  En1  v064
 BYTE   N12  As1  v056
 BYTE   W12
 BYTE   N06  As3  v088
 BYTE   N06  Fs1  v056
 BYTE   W12
 BYTE   Ds1  v064
 BYTE   N06  As3  v049
 BYTE   N06  Dn1  v042
 BYTE   N06  En1  v064
 BYTE   N12  As1  v056
 BYTE   W12
 BYTE   PEND 
//  #07 //006   ----------------------------------------
Label_0100C9A2:
 BYTE   N06  Cn1  v127
 BYTE   N06  As3  v088
 BYTE   N06  Fs1  v056
 BYTE   W06
 BYTE   Fs1
 BYTE   W06
 BYTE   Ds1  v064
 BYTE   N06  As3  v049
 BYTE   N06  Dn1  v042
 BYTE   N06  En1  v064
 BYTE   N12  As1  v056
 BYTE   W06
 BYTE   N06  Fs1
 BYTE   W06
 BYTE   Ds1  v064
 BYTE   N06  As3  v029
 BYTE   N06  Dn1  v042
 BYTE   N06  En1  v064
 BYTE   N12  As1  v056
 BYTE   W06
 BYTE   N06  Fs1
 BYTE   W06
 BYTE   Cn1  v127
 BYTE   N06  Fs1  v056
 BYTE   W06
 BYTE   Fs1  v108
 BYTE   W06
 BYTE   As3  v088
 BYTE   N06  Fs1  v056
 BYTE   W06
 BYTE   Fs1  v036
 BYTE   W06
 BYTE   As3  v049
 BYTE   N06  Fs1  v056
 BYTE   W06
 BYTE   Fs1  v088
 BYTE   W06
 BYTE   As3  v029
 BYTE   N06  Cn1  v127
 BYTE   N06  Fs1  v056
 BYTE   W06
 BYTE   Fs1  v036
 BYTE   W06
 BYTE   Fs1  v056
 BYTE   W06
 BYTE   Fs1  v036
 BYTE   W06
 BYTE   PEND 
//  #07 //007   ----------------------------------------
Label_0100CA00:
 BYTE   N06  Cn1  v127
 BYTE   N06  As3  v088
 BYTE   N06  Fs1  v056
 BYTE   W06
 BYTE   Fs1  v036
 BYTE   W06
 BYTE   As3  v049
 BYTE   W12
 BYTE   Ds1  v064
 BYTE   N06  Dn1  v042
 BYTE   N06  En1  v064
 BYTE   N12  As1  v056
 BYTE   W12
 BYTE   N06  As3  v049
 BYTE   N06  Cn1  v127
 BYTE   N06  Fs1  v056
 BYTE   W06
 BYTE   Fs1
 BYTE   W06
 BYTE   As3  v088
 BYTE   W12
 BYTE   Ds1  v064
 BYTE   N06  As3  v049
 BYTE   N06  Dn1  v042
 BYTE   N06  En1  v064
 BYTE   N12  As1  v056
 BYTE   W12
 BYTE   N06  As3  v088
 BYTE   N06  Fs1  v056
 BYTE   W12
 BYTE   As3  v049
 BYTE   N12  As1  v056
 BYTE   W12
 BYTE   PEND 
//  #07 //008   ----------------------------------------
Label_0100CA48:
 BYTE   N06  Ds1  v064
 BYTE   N06  As3  v088
 BYTE   N06  Cn1  v127
 BYTE   N06  Dn1  v042
 BYTE   N06  En1  v064
 BYTE   N06  Fs1  v056
 BYTE   W06
 BYTE   Fs1
 BYTE   W06
 BYTE   Ds1  v064
 BYTE   N06  As3  v049
 BYTE   N06  Dn1  v042
 BYTE   N06  En1  v064
 BYTE   N12  As1  v056
 BYTE   W06
 BYTE   N06  Fs1
 BYTE   W06
 BYTE   Ds1  v064
 BYTE   N06  As3  v029
 BYTE   N06  Dn1  v042
 BYTE   N06  En1  v064
 BYTE   N12  As1  v056
 BYTE   W06
 BYTE   N06  Fs1
 BYTE   W06
 BYTE   Cn1  v127
 BYTE   N06  Fs1  v056
 BYTE   W06
 BYTE   Fs1  v108
 BYTE   W06
 BYTE   As3  v088
 BYTE   N06  Cn1  v127
 BYTE   N06  Fs1  v056
 BYTE   W06
 BYTE   Fs1  v036
 BYTE   W06
 BYTE   As3  v049
 BYTE   N06  Cn1  v127
 BYTE   N06  Fs1  v056
 BYTE   W06
 BYTE   Fs1  v088
 BYTE   W06
 BYTE   As3  v029
 BYTE   N06  Fs1  v056
 BYTE   W06
 BYTE   Fs1  v036
 BYTE   W06
 BYTE   Fs1  v056
 BYTE   W06
 BYTE   Fs1  v036
 BYTE   W06
 BYTE   PEND 
//  #07 //009   ----------------------------------------
 BYTE   PATT
  POIN2 Label_0100C951
//  #07 //010   ----------------------------------------
Label_0100CAB7:
 BYTE   N06  Fs1  v056
 BYTE   N06  As3  v088
 BYTE   N06  Cn1  v127
 BYTE   W06
 BYTE   Fs1  v056
 BYTE   W06
 BYTE   N12  As1
 BYTE   N06  En1  v064
 BYTE   N06  Dn1  v042
 BYTE   N06  As3  v049
 BYTE   N06  Ds1  v064
 BYTE   W06
 BYTE   Fs1  v056
 BYTE   W06
 BYTE   N12  As1
 BYTE   N06  En1  v064
 BYTE   N06  Dn1  v042
 BYTE   N06  As3  v029
 BYTE   N06  Ds1  v064
 BYTE   W06
 BYTE   Fs1  v056
 BYTE   W06
 BYTE   Fs1
 BYTE   N06  Cn1  v127
 BYTE   W06
 BYTE   Fs1  v108
 BYTE   W06
 BYTE   Fs1  v056
 BYTE   N06  As3  v088
 BYTE   W06
 BYTE   Fs1  v036
 BYTE   W06
 BYTE   Fs1  v056
 BYTE   N06  As3  v049
 BYTE   W06
 BYTE   Fs1  v088
 BYTE   W06
 BYTE   Fs1  v056
 BYTE   N06  Cn1  v127
 BYTE   N06  As3  v029
 BYTE   W06
 BYTE   Fs1  v036
 BYTE   W06
 BYTE   Fs1  v056
 BYTE   W06
 BYTE   Fs1  v036
 BYTE   W06
 BYTE   PEND 
//  #07 //011   ----------------------------------------
Label_0100CB15:
 BYTE   N06  Fs1  v056
 BYTE   N06  As3  v088
 BYTE   N06  Cn1  v127
 BYTE   W06
 BYTE   Fs1  v036
 BYTE   W06
 BYTE   As3  v049
 BYTE   W12
 BYTE   Ds1  v064
 BYTE   N06  Dn1  v042
 BYTE   N06  En1  v064
 BYTE   N12  As1  v056
 BYTE   W12
 BYTE   N06  As3  v049
 BYTE   N06  Cn1  v127
 BYTE   N06  Fs1  v056
 BYTE   W06
 BYTE   Fs1
 BYTE   W06
 BYTE   As3  v088
 BYTE   W12
 BYTE   Ds1  v064
 BYTE   N06  As3  v049
 BYTE   N06  Dn1  v042
 BYTE   N06  En1  v064
 BYTE   N12  As1  v056
 BYTE   W12
 BYTE   N06  Fs1
 BYTE   N06  As3  v088
 BYTE   W12
 BYTE   N12  As1  v056
 BYTE   N06  As3  v049
 BYTE   W12
 BYTE   PEND 
//  #07 //012   ----------------------------------------
Label_0100CB5D:
 BYTE   N06  Ds1  v064
 BYTE   N06  As3  v088
 BYTE   N06  Cn1  v127
 BYTE   N06  Dn1  v042
 BYTE   N06  En1  v064
 BYTE   N06  Fs1  v056
 BYTE   W06
 BYTE   Fs1
 BYTE   W06
 BYTE   Ds1  v064
 BYTE   N06  As3  v049
 BYTE   N06  Dn1  v042
 BYTE   N06  En1  v064
 BYTE   N12  As1  v056
 BYTE   W06
 BYTE   N06  Fs1
 BYTE   W06
 BYTE   Ds1  v064
 BYTE   N06  As3  v029
 BYTE   N06  Dn1  v042
 BYTE   N06  En1  v064
 BYTE   N12  As1  v056
 BYTE   W06
 BYTE   N06  Fs1
 BYTE   W06
 BYTE   Cn1  v127
 BYTE   N06  Fs1  v056
 BYTE   W06
 BYTE   Fs1  v108
 BYTE   W06
 BYTE   As3  v088
 BYTE   N06  Cn1  v127
 BYTE   N06  Fs1  v056
 BYTE   W06
 BYTE   Fs1  v036
 BYTE   W06
 BYTE   As3  v049
 BYTE   N06  Cn1  v127
 BYTE   N06  Fs1  v056
 BYTE   W06
 BYTE   Fs1  v088
 BYTE   W06
 BYTE   As3  v029
 BYTE   N06  Dn1  v041
 BYTE   N06  Fs1  v056
 BYTE   W06
 BYTE   Dn1  v041
 BYTE   N06  Fs1  v036
 BYTE   W06
 BYTE   Dn1  v041
 BYTE   N06  Fs1  v056
 BYTE   W06
 BYTE   Dn1  v041
 BYTE   N06  Fs1  v036
 BYTE   W06
 BYTE   PEND 
//  #07 //013   ----------------------------------------
Label_0100CBD3:
 BYTE   N06  Cn1  v127
 BYTE   N06  As3  v088
 BYTE   N06  Fs1  v056
 BYTE   W06
 BYTE   Fs1  v036
 BYTE   W06
 BYTE   As3  v049
 BYTE   W12
 BYTE   N12  As1  v056
 BYTE   N06  En1  v064
 BYTE   N06  Dn1  v042
 BYTE   N06  Ds1  v064
 BYTE   W12
 BYTE   Fs1  v056
 BYTE   N06  As3  v049
 BYTE   N06  Cn1  v127
 BYTE   W06
 BYTE   Fs1  v056
 BYTE   W06
 BYTE   As3  v088
 BYTE   W12
 BYTE   N12  As1  v056
 BYTE   N06  En1  v064
 BYTE   N06  Dn1  v042
 BYTE   N06  As3  v049
 BYTE   N06  Ds1  v064
 BYTE   W12
 BYTE   As3  v088
 BYTE   N06  Fs1  v056
 BYTE   W12
 BYTE   Ds1  v064
 BYTE   N06  As3  v049
 BYTE   N06  Dn1  v042
 BYTE   N06  En1  v064
 BYTE   N12  As1  v056
 BYTE   W12
 BYTE   PEND 
//  #07 //014   ----------------------------------------
Label_0100CC25:
 BYTE   N06  Fs1  v056
 BYTE   N06  As3  v088
 BYTE   N06  Cn1  v127
 BYTE   W06
 BYTE   Fs1  v056
 BYTE   W06
 BYTE   N12  As1
 BYTE   N06  En1  v064
 BYTE   N06  Dn1  v042
 BYTE   N06  As3  v049
 BYTE   N06  Ds1  v064
 BYTE   W06
 BYTE   Fs1  v056
 BYTE   W06
 BYTE   N12  As1
 BYTE   N06  En1  v064
 BYTE   N06  Dn1  v042
 BYTE   N06  As3  v029
 BYTE   N06  Ds1  v064
 BYTE   W06
 BYTE   Fs1  v056
 BYTE   W06
 BYTE   Fs1
 BYTE   N06  Cn1  v127
 BYTE   W06
 BYTE   Fs1  v108
 BYTE   W06
 BYTE   Fs1  v056
 BYTE   N06  As3  v088
 BYTE   W06
 BYTE   Fs1  v036
 BYTE   W06
 BYTE   Fs1  v056
 BYTE   N06  As3  v049
 BYTE   W06
 BYTE   Fs1  v088
 BYTE   W06
 BYTE   Fs1  v056
 BYTE   N06  As3  v029
 BYTE   W06
 BYTE   Fs1  v036
 BYTE   W06
 BYTE   Fs1  v056
 BYTE   W06
 BYTE   Fs1  v036
 BYTE   W06
 BYTE   PEND 
//  #07 //015   ----------------------------------------
Label_0100CC80:
 BYTE   N06  Fs1  v056
 BYTE   N06  As3  v088
 BYTE   N06  Cn1  v127
 BYTE   W06
 BYTE   Fs1  v036
 BYTE   W06
 BYTE   As3  v049
 BYTE   W12
 BYTE   N12  As1  v056
 BYTE   N06  En1  v064
 BYTE   N06  Dn1  v042
 BYTE   N06  Ds1  v064
 BYTE   W12
 BYTE   Fs1  v056
 BYTE   N06  Cn1  v127
 BYTE   N06  As3  v049
 BYTE   W06
 BYTE   Fs1  v056
 BYTE   W06
 BYTE   As3  v088
 BYTE   W12
 BYTE   N12  As1  v056
 BYTE   N06  En1  v064
 BYTE   N06  Dn1  v042
 BYTE   N06  As3  v049
 BYTE   N06  Ds1  v064
 BYTE   W12
 BYTE   Fs1  v056
 BYTE   N06  As3  v088
 BYTE   W12
 BYTE   N12  As1  v056
 BYTE   N06  As3  v049
 BYTE   W12
 BYTE   PEND 
//  #07 //016   ----------------------------------------
Label_0100CCCA:
 BYTE   N06  Ds1  v064
 BYTE   N06  As3  v088
 BYTE   N06  Cn1  v127
 BYTE   N06  Dn1  v042
 BYTE   N06  En1  v064
 BYTE   N06  Fs1  v056
 BYTE   W06
 BYTE   Fs1
 BYTE   W06
 BYTE   Ds1  v064
 BYTE   N06  As3  v049
 BYTE   N06  Dn1  v042
 BYTE   N06  En1  v064
 BYTE   N12  As1  v056
 BYTE   W06
 BYTE   N06  Fs1
 BYTE   W06
 BYTE   N12  As1
 BYTE   N06  En1  v064
 BYTE   N06  Dn1  v042
 BYTE   N06  As3  v029
 BYTE   N06  Ds1  v064
 BYTE   W06
 BYTE   Fs1  v056
 BYTE   W06
 BYTE   Fs1
 BYTE   N06  Cn1  v127
 BYTE   W06
 BYTE   Fs1  v108
 BYTE   W06
 BYTE   Dn1  v063
 BYTE   N06  As3  v088
 BYTE   N06  Cn1  v127
 BYTE   N06  Fs1  v056
 BYTE   W06
 BYTE   Dn1  v063
 BYTE   N06  Fs1  v036
 BYTE   W06
 BYTE   Dn1  v063
 BYTE   N06  Fs1  v056
 BYTE   N06  Cn1  v127
 BYTE   N06  As3  v049
 BYTE   W06
 BYTE   Fs1  v088
 BYTE   W06
 BYTE   Fs1  v056
 BYTE   N06  Dn1  v063
 BYTE   N06  As3  v029
 BYTE   W06
 BYTE   Fs1  v036
 BYTE   N06  Dn1  v063
 BYTE   W06
 BYTE   Fs1  v056
 BYTE   N06  Dn1  v063
 BYTE   W06
 BYTE   Fs1  v036
 BYTE   N06  Dn1  v063
 BYTE   W06
 BYTE   PEND 
//  #07 //017   ----------------------------------------
Label_0100CD48:
 BYTE   N06  Fs1  v056
 BYTE   N06  As3  v088
 BYTE   N06  Cn1  v127
 BYTE   W06
 BYTE   Fs1  v036
 BYTE   W06
 BYTE   As3  v049
 BYTE   W12
 BYTE   N12  As1  v056
 BYTE   N06  En1  v064
 BYTE   N06  Dn1  v042
 BYTE   N06  Ds1  v064
 BYTE   W12
 BYTE   Fs1  v056
 BYTE   N06  As3  v049
 BYTE   N06  Cn1  v127
 BYTE   W06
 BYTE   Fs1  v056
 BYTE   W06
 BYTE   As3  v088
 BYTE   W12
 BYTE   N12  As1  v056
 BYTE   N06  En1  v064
 BYTE   N06  Dn1  v042
 BYTE   N06  As3  v049
 BYTE   N06  Ds1  v064
 BYTE   W12
 BYTE   As3  v088
 BYTE   N06  Fs1  v056
 BYTE   W12
 BYTE   Ds1  v064
 BYTE   N06  As3  v049
 BYTE   N06  Dn1  v042
 BYTE   N06  En1  v064
 BYTE   N12  As1  v056
 BYTE   W12
 BYTE   PEND 
//  #07 //018   ----------------------------------------
 BYTE   PATT
  POIN2 Label_0100CAB7
//  #07 //019   ----------------------------------------
 BYTE   PATT
  POIN2 Label_0100CB15
//  #07 //020   ----------------------------------------
 BYTE   PATT
  POIN2 Label_0100CB5D
//  #07 //021   ----------------------------------------
 BYTE   PATT
  POIN2 Label_0100CBD3
//  #07 //022   ----------------------------------------
 BYTE   PATT
  POIN2 Label_0100CC25
//  #07 //023   ----------------------------------------
 BYTE   PATT
  POIN2 Label_0100CC80
//  #07 //024   ----------------------------------------
 BYTE   PATT
  POIN2 Label_0100CCCA
//  #07 //025   ----------------------------------------
 BYTE   N06  Fs1  v056
 BYTE   N06  As3  v088
 BYTE   N06  Cn1  v127
 BYTE   W06
 BYTE   Fs1  v036
 BYTE   W06
 BYTE   As3  v049
 BYTE   W12
 BYTE   En1  v064
 BYTE   N06  Dn1  v042
 BYTE   N12  As1  v056
 BYTE   N06  Ds1  v064
 BYTE   W12
 BYTE   Fs1  v056
 BYTE   N06  As3  v049
 BYTE   N06  Cn1  v127
 BYTE   W06
 BYTE   Fs1  v056
 BYTE   W06
 BYTE   As3  v088
 BYTE   W12
 BYTE   En1  v064
 BYTE   N06  Dn1  v042
 BYTE   N12  As1  v056
 BYTE   N06  As3  v049
 BYTE   N06  Ds1  v064
 BYTE   W12
 BYTE   As3  v088
 BYTE   N06  Fs1  v056
 BYTE   W12
 BYTE   Ds1  v064
 BYTE   N06  As3  v049
 BYTE   N12  As1  v056
 BYTE   N06  Dn1  v042
 BYTE   N06  En1  v064
 BYTE   W12
//  #07 //026   ----------------------------------------
 BYTE   Fs1  v056
 BYTE   N06  As3  v088
 BYTE   N06  Cn1  v127
 BYTE   W06
 BYTE   Fs1  v056
 BYTE   W06
 BYTE   En1  v064
 BYTE   N06  Dn1  v042
 BYTE   N12  As1  v056
 BYTE   N06  As3  v049
 BYTE   N06  Ds1  v064
 BYTE   W06
 BYTE   Fs1  v056
 BYTE   W06
 BYTE   En1  v064
 BYTE   N06  Dn1  v042
 BYTE   N12  As1  v056
 BYTE   N06  As3  v029
 BYTE   N06  Ds1  v064
 BYTE   W06
 BYTE   Fs1  v056
 BYTE   W06
 BYTE   Cn1  v127
 BYTE   N06  Fs1  v056
 BYTE   W06
 BYTE   Fs1  v108
 BYTE   W06
 BYTE   As3  v088
 BYTE   N06  Fs1  v056
 BYTE   W06
 BYTE   Fs1  v036
 BYTE   W06
 BYTE   As3  v049
 BYTE   N06  Fs1  v056
 BYTE   W06
 BYTE   Fs1  v088
 BYTE   W06
 BYTE   Cn1  v127
 BYTE   N06  As3  v029
 BYTE   N06  Fs1  v056
 BYTE   W06
 BYTE   Fs1  v036
 BYTE   W06
 BYTE   Fs1  v056
 BYTE   W06
 BYTE   Fs1  v036
 BYTE   W06
//  #07 //027   ----------------------------------------
 BYTE   Fs1  v056
 BYTE   N06  Cn1  v127
 BYTE   N06  As3  v088
 BYTE   W06
 BYTE   Fs1  v036
 BYTE   W06
 BYTE   As3  v049
 BYTE   W12
 BYTE   N12  As1  v056
 BYTE   N06  En1  v064
 BYTE   N06  Dn1  v042
 BYTE   N06  Ds1  v064
 BYTE   W12
 BYTE   Fs1  v056
 BYTE   N06  Cn1  v127
 BYTE   N06  As3  v049
 BYTE   W06
 BYTE   Fs1  v056
 BYTE   W06
 BYTE   As3  v088
 BYTE   W12
 BYTE   N12  As1  v056
 BYTE   N06  En1  v064
 BYTE   N06  Dn1  v042
 BYTE   N06  As3  v049
 BYTE   N06  Ds1  v064
 BYTE   W12
 BYTE   As3  v088
 BYTE   N06  Fs1  v056
 BYTE   W12
 BYTE   As3  v049
 BYTE   N12  As1  v056
 BYTE   W12
//  #07 //028   ----------------------------------------
 BYTE   N06  Fs1
 BYTE   N06  En1  v064
 BYTE   N06  Dn1  v042
 BYTE   N06  Cn1  v127
 BYTE   N06  As3  v088
 BYTE   N06  Ds1  v064
 BYTE   W06
 BYTE   Fs1  v056
 BYTE   W06
 BYTE   Ds1  v064
 BYTE   N06  As3  v049
 BYTE   N06  Dn1  v042
 BYTE   N06  En1  v064
 BYTE   N12  As1  v056
 BYTE   W06
 BYTE   N06  Fs1
 BYTE   W06
 BYTE   Ds1  v064
 BYTE   N06  Dn1  v042
 BYTE   N06  En1  v064
 BYTE   N12  As1  v056
 BYTE   N06  As3  v029
 BYTE   W06
 BYTE   Fs1  v056
 BYTE   W06
 BYTE   Cn1  v127
 BYTE   N06  Fs1  v056
 BYTE   W06
 BYTE   Fs1  v108
 BYTE   W06
 BYTE   As3  v088
 BYTE   N06  Cn1  v127
 BYTE   N06  Fs1  v056
 BYTE   W06
 BYTE   Fs1  v036
 BYTE   W06
 BYTE   As3  v049
 BYTE   N06  Cn1  v127
 BYTE   N06  Fs1  v056
 BYTE   W06
 BYTE   Fs1  v088
 BYTE   W06
 BYTE   As3  v029
 BYTE   N06  Dn1  v041
 BYTE   N06  Fs1  v056
 BYTE   W06
 BYTE   Dn1  v041
 BYTE   N06  Fs1  v036
 BYTE   W06
 BYTE   Dn1  v041
 BYTE   N06  Fs1  v056
 BYTE   W06
 BYTE   Dn1  v041
 BYTE   N06  Fs1  v036
 BYTE   W06
//  #07 //029   ----------------------------------------
 BYTE   Cn1  v127
 BYTE   N06  As3  v088
 BYTE   N06  Fs1  v056
 BYTE   W06
 BYTE   Fs1  v036
 BYTE   W06
 BYTE   As3  v049
 BYTE   W12
 BYTE   Ds1  v064
 BYTE   N06  Dn1  v042
 BYTE   N06  En1  v064
 BYTE   N12  As1  v056
 BYTE   W12
 BYTE   N06  Cn1  v127
 BYTE   N06  As3  v049
 BYTE   N06  Fs1  v056
 BYTE   W06
 BYTE   Fs1
 BYTE   W06
 BYTE   As3  v088
 BYTE   W12
 BYTE   Ds1  v064
 BYTE   N06  As3  v049
 BYTE   N06  Dn1  v042
 BYTE   N06  En1  v064
 BYTE   N12  As1  v056
 BYTE   W12
 BYTE   N06  Fs1
 BYTE   N06  As3  v088
 BYTE   W12
 BYTE   N12  As1  v056
 BYTE   N06  En1  v064
 BYTE   N06  Dn1  v042
 BYTE   N06  As3  v049
 BYTE   N06  Ds1  v064
 BYTE   W12
//  #07 //030   ----------------------------------------
 BYTE   PATT
  POIN2 Label_0100C9A2
//  #07 //031   ----------------------------------------
 BYTE   N06  Cn1  v127
 BYTE   N06  As3  v088
 BYTE   N06  Fs1  v056
 BYTE   W06
 BYTE   Fs1  v036
 BYTE   W06
 BYTE   As3  v049
 BYTE   W12
 BYTE   Ds1  v064
 BYTE   N06  Dn1  v042
 BYTE   N06  En1  v064
 BYTE   N12  As1  v056
 BYTE   W12
 BYTE   N06  As3  v049
 BYTE   N06  Cn1  v127
 BYTE   N06  Fs1  v056
 BYTE   W06
 BYTE   Fs1
 BYTE   W06
 BYTE   As3  v088
 BYTE   W12
 BYTE   Ds1  v064
 BYTE   N06  As3  v049
 BYTE   N06  Dn1  v042
 BYTE   N06  En1  v064
 BYTE   N12  As1  v056
 BYTE   W12
 BYTE   N06  Fs1
 BYTE   N06  As3  v088
 BYTE   W12
 BYTE   N12  As1  v056
 BYTE   N06  As3  v049
 BYTE   W12
//  #07 //032   ----------------------------------------
 BYTE   PATT
  POIN2 Label_0100CA48
//  #07 //033   ----------------------------------------
 BYTE   PATT
  POIN2 Label_0100CBD3
//  #07 //034   ----------------------------------------
 BYTE   PATT
  POIN2 Label_0100CAB7
//  #07 //035   ----------------------------------------
 BYTE   N06  Fs1  v056
 BYTE   N06  As3  v088
 BYTE   N06  Cn1  v127
 BYTE   W06
 BYTE   Fs1  v036
 BYTE   W06
 BYTE   As3  v049
 BYTE   W12
 BYTE   N12  As1  v056
 BYTE   N06  En1  v064
 BYTE   N06  Dn1  v042
 BYTE   N06  Ds1  v064
 BYTE   W12
 BYTE   Fs1  v056
 BYTE   N06  Cn1  v127
 BYTE   N06  As3  v049
 BYTE   W06
 BYTE   Fs1  v056
 BYTE   W06
 BYTE   As3  v088
 BYTE   W12
 BYTE   N12  As1  v056
 BYTE   N06  En1  v064
 BYTE   N06  Dn1  v042
 BYTE   N06  As3  v049
 BYTE   N06  Ds1  v064
 BYTE   W12
 BYTE   As3  v088
 BYTE   N06  Fs1  v056
 BYTE   W12
 BYTE   As3  v049
 BYTE   N12  As1  v056
 BYTE   W12
//  #07 //036   ----------------------------------------
 BYTE   N06  Fs1
 BYTE   N06  En1  v064
 BYTE   N06  Dn1  v042
 BYTE   N06  Cn1  v127
 BYTE   N06  As3  v088
 BYTE   N06  Ds1  v064
 BYTE   W06
 BYTE   Fs1  v056
 BYTE   W06
 BYTE   N12  As1
 BYTE   N06  En1  v064
 BYTE   N06  Dn1  v042
 BYTE   N06  As3  v049
 BYTE   N06  Ds1  v064
 BYTE   W06
 BYTE   Fs1  v056
 BYTE   W06
 BYTE   N12  As1
 BYTE   N06  En1  v064
 BYTE   N06  Dn1  v042
 BYTE   N06  As3  v029
 BYTE   N06  Ds1  v064
 BYTE   W06
 BYTE   Fs1  v056
 BYTE   W06
 BYTE   Fs1
 BYTE   N06  Cn1  v127
 BYTE   W06
 BYTE   Fs1  v108
 BYTE   W06
 BYTE   Fs1  v056
 BYTE   N06  Cn1  v127
 BYTE   N06  As3  v088
 BYTE   W06
 BYTE   Fs1  v036
 BYTE   W06
 BYTE   Fs1  v056
 BYTE   N06  Cn1  v127
 BYTE   N06  As3  v049
 BYTE   W06
 BYTE   Fs1  v088
 BYTE   W06
 BYTE   Fs1  v056
 BYTE   N06  Dn1  v041
 BYTE   N06  As3  v029
 BYTE   W06
 BYTE   Fs1  v036
 BYTE   N06  Dn1  v041
 BYTE   W06
 BYTE   Fs1  v056
 BYTE   N06  Dn1  v041
 BYTE   W06
 BYTE   Fs1  v036
 BYTE   N06  Dn1  v041
 BYTE   W06
//  #07 //037   ----------------------------------------
 BYTE   PATT
  POIN2 Label_0100CD48
//  #07 //038   ----------------------------------------
 BYTE   N06  Fs1  v056
 BYTE   N06  As3  v088
 BYTE   N06  Cn1  v127
 BYTE   W06
 BYTE   Fs1  v056
 BYTE   W06
 BYTE   Ds1  v064
 BYTE   N06  As3  v049
 BYTE   N06  Dn1  v042
 BYTE   N06  En1  v064
 BYTE   N12  As1  v056
 BYTE   W06
 BYTE   N06  Fs1
 BYTE   W06
 BYTE   Ds1  v064
 BYTE   N06  As3  v029
 BYTE   N06  Dn1  v042
 BYTE   N06  En1  v064
 BYTE   N12  As1  v056
 BYTE   W06
 BYTE   N06  Fs1
 BYTE   W06
 BYTE   Cn1  v127
 BYTE   N06  Fs1  v056
 BYTE   W06
 BYTE   Fs1  v108
 BYTE   W06
 BYTE   As3  v088
 BYTE   N06  Fs1  v056
 BYTE   W06
 BYTE   Fs1  v036
 BYTE   W06
 BYTE   As3  v049
 BYTE   N06  Fs1  v056
 BYTE   W06
 BYTE   Fs1  v088
 BYTE   W06
 BYTE   As3  v029
 BYTE   N06  Fs1  v056
 BYTE   W06
 BYTE   Fs1  v036
 BYTE   W06
 BYTE   Fs1  v056
 BYTE   W06
 BYTE   Fs1  v036
 BYTE   W06
//  #07 //039   ----------------------------------------
 BYTE   PATT
  POIN2 Label_0100CA00
//  #07 //040   ----------------------------------------
 BYTE   N06  Ds1  v064
 BYTE   N06  As3  v088
 BYTE   N06  Cn1  v127
 BYTE   N06  Dn1  v042
 BYTE   N06  En1  v064
 BYTE   N06  Fs1  v056
 BYTE   W06
 BYTE   Fs1
 BYTE   W06
 BYTE   N12  As1
 BYTE   N06  En1  v064
 BYTE   N06  Dn1  v042
 BYTE   N06  As3  v049
 BYTE   N06  Ds1  v064
 BYTE   W06
 BYTE   Fs1  v056
 BYTE   W06
 BYTE   Ds1  v064
 BYTE   N06  As3  v029
 BYTE   N06  Dn1  v042
 BYTE   N06  En1  v064
 BYTE   N12  As1  v056
 BYTE   W06
 BYTE   N06  Fs1
 BYTE   W06
 BYTE   Cn1  v127
 BYTE   N06  Fs1  v056
 BYTE   W06
 BYTE   Fs1  v108
 BYTE   W06
 BYTE   Fs1  v056
 BYTE   N06  Cn1  v127
 BYTE   N06  As3  v088
 BYTE   N06  Dn1  v063
 BYTE   W06
 BYTE   Fs1  v036
 BYTE   N06  Dn1  v063
 BYTE   W06
 BYTE   As3  v049
 BYTE   N06  Cn1  v127
 BYTE   N06  Fs1  v056
 BYTE   N06  Dn1  v063
 BYTE   W06
 BYTE   Fs1  v088
 BYTE   W06
 BYTE   As3  v029
 BYTE   N06  Dn1  v063
 BYTE   N06  Fs1  v056
 BYTE   W06
 BYTE   Dn1  v063
 BYTE   N06  Fs1  v036
 BYTE   W06
 BYTE   Dn1  v063
 BYTE   N06  Fs1  v056
 BYTE   W06
 BYTE   Dn1  v063
 BYTE   N06  Fs1  v036
 BYTE   W06
//  #07 //041   ----------------------------------------
Label_0100D16E:
 BYTE   N06  As3  v080
 BYTE   W12
 BYTE   As3  v041
 BYTE   W12
 BYTE   As3  v080
 BYTE   W12
 BYTE   As3  v041
 BYTE   W12
 BYTE   As3  v080
 BYTE   W12
 BYTE   As3  v041
 BYTE   W12
 BYTE   As3  v080
 BYTE   W12
 BYTE   As3  v041
 BYTE   W12
 BYTE   PEND 
//  #07 //042   ----------------------------------------
 BYTE   PATT
  POIN2 Label_0100D16E
//  #07 //043   ----------------------------------------
 BYTE   PATT
  POIN2 Label_0100D16E
//  #07 //044   ----------------------------------------
 BYTE   PATT
  POIN2 Label_0100D16E
//  #07 //045   ----------------------------------------
 BYTE   PATT
  POIN2 Label_0100D16E
//  #07 //046   ----------------------------------------
 BYTE   PATT
  POIN2 Label_0100D16E
//  #07 //047   ----------------------------------------
 BYTE   PATT
  POIN2 Label_0100D16E
//  #07 //048   ----------------------------------------
 BYTE   N06  As3  v080
 BYTE   W12
 BYTE   As3  v041
 BYTE   W12
 BYTE   As3  v080
 BYTE   W12
 BYTE   As3  v041
 BYTE   W12
 BYTE   As3  v080
 BYTE   N06  Dn1  v042
 BYTE   N06  En1  v064
 BYTE   N12  As1  v056
 BYTE   N06  Ds1  v064
 BYTE   W12
 BYTE   As3  v041
 BYTE   N12  As1  v056
 BYTE   N06  En1  v064
 BYTE   N06  Dn1  v042
 BYTE   N06  Ds1  v064
 BYTE   W12
 BYTE   As3  v080
 BYTE   N06  Ds1  v064
 BYTE   N06  Dn1  v042
 BYTE   N06  En1  v064
 BYTE   N12  As1  v056
 BYTE   W12
 BYTE   N06  Dn1  v042
 BYTE   N06  As3  v041
 BYTE   N12  As1  v056
 BYTE   N06  En1  v064
 BYTE   N06  Ds1
 BYTE   W12
//  #07 //049   ----------------------------------------
 BYTE   Bn2  v029
 BYTE   N06  Cn1  v127
 BYTE   N06  As3  v088
 BYTE   W12
 BYTE   As3  v049
 BYTE   N06  Bn2  v029
 BYTE   W12
 BYTE   Dn1  v048
 BYTE   N06  En1  v072
 BYTE   N12  As1  v064
 BYTE   N06  Ds1  v072
 BYTE   W06
 BYTE   Bn2  v029
 BYTE   W06
 BYTE   Bn2
 BYTE   N06  Cn1  v127
 BYTE   N06  As3  v049
 BYTE   W06
 BYTE   En1  v041
 BYTE   N12  As1  v042
 BYTE   N06  Ds1  v041
 BYTE   N06  Dn1  v022
 BYTE   W06
 BYTE   As3  v088
 BYTE   N06  Bn2  v029
 BYTE   W06
 BYTE   Bn2  v064
 BYTE   W06
 BYTE   As3  v049
 BYTE   N06  Cn1  v127
 BYTE   N06  Bn2  v047
 BYTE   W06
 BYTE   Bn2  v034
 BYTE   W06
 BYTE   Cs3  v038
 BYTE   N06  As3  v088
 BYTE   N06  Bn2  v029
 BYTE   W06
 BYTE   Bn2
 BYTE   W06
 BYTE   As3  v049
 BYTE   N06  Dn1  v028
 BYTE   N06  Ds1  v048
 BYTE   N12  As1  v042
 BYTE   N06  En1  v048
 BYTE   W12
//  #07 //050   ----------------------------------------
 BYTE   As3  v088
 BYTE   N06  Cn1  v127
 BYTE   N06  Bn2  v029
 BYTE   W12
 BYTE   Cs3  v038
 BYTE   N06  As3  v049
 BYTE   N06  Bn2  v029
 BYTE   W12
 BYTE   En1  v072
 BYTE   N12  As1  v064
 BYTE   N06  Ds1  v072
 BYTE   N06  Dn1  v048
 BYTE   N06  As3  v029
 BYTE   W06
 BYTE   Bn2
 BYTE   W06
 BYTE   Cn1  v127
 BYTE   N06  Bn2  v029
 BYTE   W06
 BYTE   Dn1  v028
 BYTE   N06  Ds1  v048
 BYTE   N12  As1  v042
 BYTE   N06  En1  v048
 BYTE   W06
 BYTE   Cs3  v038
 BYTE   N06  As3  v088
 BYTE   N06  Bn2  v029
 BYTE   W06
 BYTE   Bn2
 BYTE   W06
 BYTE   Cn1  v127
 BYTE   N06  As3  v049
 BYTE   N06  Bn2  v029
 BYTE   W06
 BYTE   Bn2
 BYTE   W06
 BYTE   Bn2
 BYTE   N06  As3
 BYTE   W06
 BYTE   Bn2
 BYTE   W06
 BYTE   Bn2
 BYTE   N06  Dn1  v028
 BYTE   N06  Ds1  v048
 BYTE   N12  As1  v042
 BYTE   N06  En1  v048
 BYTE   W12
//  #07 //051   ----------------------------------------
 BYTE   Cn1  v127
 BYTE   N06  As3  v088
 BYTE   N06  Bn2  v029
 BYTE   W12
 BYTE   Bn2
 BYTE   N06  As3  v049
 BYTE   W12
 BYTE   Dn1  v048
 BYTE   N06  Ds1  v072
 BYTE   N12  As1  v064
 BYTE   N06  En1  v072
 BYTE   W06
 BYTE   Bn2  v029
 BYTE   W06
 BYTE   Bn2
 BYTE   N06  Cn1  v127
 BYTE   N06  As3  v049
 BYTE   W06
 BYTE   En1  v048
 BYTE   N12  As1  v042
 BYTE   N06  Ds1  v048
 BYTE   N06  Dn1  v028
 BYTE   W06
 BYTE   Bn2  v029
 BYTE   N06  As3  v088
 BYTE   W06
 BYTE   Bn2  v064
 BYTE   W06
 BYTE   Bn2  v047
 BYTE   N06  Cn1  v127
 BYTE   N06  As3  v049
 BYTE   W06
 BYTE   Bn2  v034
 BYTE   W06
 BYTE   Cs3  v038
 BYTE   N06  As3  v088
 BYTE   N06  Bn2  v029
 BYTE   W06
 BYTE   Bn2
 BYTE   W06
 BYTE   As3  v049
 BYTE   N06  Dn1  v028
 BYTE   N06  Ds1  v048
 BYTE   N12  As1  v042
 BYTE   N06  En1  v048
 BYTE   W12
//  #07 //052   ----------------------------------------
 BYTE   Cn1  v127
 BYTE   N06  As3  v088
 BYTE   N06  Bn2  v029
 BYTE   W12
 BYTE   Cs3  v038
 BYTE   N06  As3  v049
 BYTE   N06  Bn2  v029
 BYTE   W12
 BYTE   En1  v072
 BYTE   N12  As1  v064
 BYTE   N06  Ds1  v072
 BYTE   N06  Dn1  v048
 BYTE   N06  As3  v029
 BYTE   W06
 BYTE   Bn2
 BYTE   W06
 BYTE   Bn2
 BYTE   W06
 BYTE   Dn1  v028
 BYTE   N06  Ds1  v048
 BYTE   N12  As1  v042
 BYTE   N06  En1  v048
 BYTE   W06
 BYTE   Cs3  v038
 BYTE   N06  Bn2  v029
 BYTE   N06  Cn1  v127
 BYTE   N06  As3  v088
 BYTE   W06
 BYTE   Bn2  v029
 BYTE   W06
 BYTE   Bn2
 BYTE   N06  As3  v049
 BYTE   N06  Cn1  v127
 BYTE   W06
 BYTE   Bn2  v029
 BYTE   W06
 BYTE   N03  En1  v048
 BYTE   N03  As1  v042
 BYTE   N03  Ds1  v048
 BYTE   N03  Dn1  v028
 BYTE   N06  As3  v029
 BYTE   N06  Bn2
 BYTE   W03
 BYTE   N03  En1  v048
 BYTE   N03  As1  v042
 BYTE   N03  Ds1  v048
 BYTE   N03  Dn1  v028
 BYTE   W03
 BYTE   N06  Bn2  v029
 BYTE   N03  En1  v048
 BYTE   N03  As1  v042
 BYTE   N03  Ds1  v048
 BYTE   N03  Dn1  v028
 BYTE   W06
 BYTE   N06  Bn2  v029
 BYTE   W06
 BYTE   Dn1  v028
 BYTE   N06  Ds1  v048
 BYTE   N12  As1  v042
 BYTE   N06  En1  v048
 BYTE   W06
//  #07 //053   ----------------------------------------
 BYTE   As3  v088
 BYTE   N06  Cn1  v127
 BYTE   N06  Bn2  v029
 BYTE   W12
 BYTE   Bn2
 BYTE   N06  As3  v049
 BYTE   W12
 BYTE   Dn1  v048
 BYTE   N06  Ds1  v072
 BYTE   N12  As1  v064
 BYTE   N06  En1  v072
 BYTE   W06
 BYTE   Bn2  v029
 BYTE   W06
 BYTE   Cn1  v127
 BYTE   N06  As3  v049
 BYTE   N06  Bn2  v029
 BYTE   W06
 BYTE   Dn1  v028
 BYTE   N06  Ds1  v048
 BYTE   N12  As1  v042
 BYTE   N06  En1  v048
 BYTE   W06
 BYTE   Bn2  v029
 BYTE   N06  As3  v088
 BYTE   W06
 BYTE   Bn2  v064
 BYTE   W06
 BYTE   Bn2  v047
 BYTE   N06  As3  v049
 BYTE   N06  Cn1  v127
 BYTE   W06
 BYTE   Bn2  v034
 BYTE   W06
 BYTE   As3  v088
 BYTE   N06  Bn2  v029
 BYTE   N06  Cs3  v038
 BYTE   W06
 BYTE   Bn2  v029
 BYTE   W06
 BYTE   As3  v049
 BYTE   N06  Dn1  v028
 BYTE   N06  Ds1  v048
 BYTE   N12  As1  v042
 BYTE   N06  En1  v048
 BYTE   W12
//  #07 //054   ----------------------------------------
 BYTE   As3  v088
 BYTE   N06  Cn1  v127
 BYTE   N06  Bn2  v029
 BYTE   W12
 BYTE   As3  v049
 BYTE   N06  Bn2  v029
 BYTE   N06  Cs3  v038
 BYTE   W12
 BYTE   En1  v072
 BYTE   N12  As1  v064
 BYTE   N06  Ds1  v072
 BYTE   N06  Dn1  v048
 BYTE   N06  As3  v029
 BYTE   W06
 BYTE   Bn2
 BYTE   W06
 BYTE   Cn1  v127
 BYTE   N06  Bn2  v029
 BYTE   W06
 BYTE   Dn1  v028
 BYTE   N06  Ds1  v048
 BYTE   N12  As1  v042
 BYTE   N06  En1  v048
 BYTE   W06
 BYTE   As3  v088
 BYTE   N06  Bn2  v029
 BYTE   N06  Cs3  v038
 BYTE   W06
 BYTE   Bn2  v029
 BYTE   W06
 BYTE   Cn1  v127
 BYTE   N06  As3  v049
 BYTE   N06  Bn2  v029
 BYTE   W06
 BYTE   Bn2
 BYTE   W06
 BYTE   Bn2
 BYTE   N06  As3
 BYTE   W06
 BYTE   Bn2
 BYTE   W06
 BYTE   Bn2
 BYTE   N06  Dn1  v028
 BYTE   N06  Ds1  v048
 BYTE   N12  As1  v042
 BYTE   N06  En1  v048
 BYTE   W12
//  #07 //055   ----------------------------------------
 BYTE   As3  v088
 BYTE   N06  Cn1  v127
 BYTE   N06  Bn2  v029
 BYTE   W12
 BYTE   Bn2
 BYTE   N06  As3  v049
 BYTE   W12
 BYTE   Dn1  v048
 BYTE   N06  Ds1  v072
 BYTE   N12  As1  v064
 BYTE   N06  En1  v072
 BYTE   W06
 BYTE   Bn2  v029
 BYTE   W06
 BYTE   Bn2
 BYTE   N06  Cn1  v127
 BYTE   N06  As3  v049
 BYTE   W06
 BYTE   Dn1  v028
 BYTE   N06  Ds1  v048
 BYTE   N12  As1  v042
 BYTE   N06  En1  v048
 BYTE   W06
 BYTE   Bn2  v029
 BYTE   N06  As3  v088
 BYTE   W06
 BYTE   Bn2  v064
 BYTE   W06
 BYTE   Bn2  v047
 BYTE   N06  As3  v049
 BYTE   N06  Cn1  v127
 BYTE   W06
 BYTE   Bn2  v034
 BYTE   W06
 BYTE   Cs3  v038
 BYTE   N06  As3  v088
 BYTE   N06  Bn2  v029
 BYTE   W06
 BYTE   Bn2
 BYTE   W06
 BYTE   Ds1  v072
 BYTE   N12  As1  v064
 BYTE   N06  En1  v072
 BYTE   N06  As3  v049
 BYTE   N06  Dn1  v048
 BYTE   W12
//  #07 //056   ----------------------------------------
 BYTE   Bn2  v029
 BYTE   N06  As3  v088
 BYTE   N06  Cn1  v127
 BYTE   W06
 BYTE   Dn1  v028
 BYTE   N06  En1  v048
 BYTE   N12  As1  v042
 BYTE   N06  Ds1  v048
 BYTE   W06
 BYTE   Cs3  v038
 BYTE   N06  As3  v049
 BYTE   N06  Bn2  v029
 BYTE   W12
 BYTE   As3
 BYTE   W06
 BYTE   Bn2
 BYTE   W06
 BYTE   Bn2
 BYTE   W12
 BYTE   Bn2
 BYTE   N06  As3  v088
 BYTE   W06
 BYTE   Bn2  v029
 BYTE   W06
 BYTE   Bn2
 BYTE   N06  As3  v049
 BYTE   W06
 BYTE   Bn2  v029
 BYTE   W06
 BYTE   As3
 BYTE   N06  Bn2
 BYTE   W06
 BYTE   Bn2
 BYTE   W06
 BYTE   Bn2
 BYTE   W06
 BYTE   Bn2
 BYTE   W06
//  #07 //057   ----------------------------------------
 BYTE   Bn2
 BYTE   N06  Cn1  v127
 BYTE   N06  As3  v088
 BYTE   W12
 BYTE   As3  v049
 BYTE   N06  Bn2  v029
 BYTE   W12
 BYTE   Dn1  v048
 BYTE   N06  En1  v072
 BYTE   N12  As1  v064
 BYTE   N06  Ds1  v072
 BYTE   W06
 BYTE   Bn2  v029
 BYTE   W06
 BYTE   Bn2
 BYTE   N06  Cn1  v127
 BYTE   N06  As3  v049
 BYTE   W06
 BYTE   En1  v041
 BYTE   N12  As1  v042
 BYTE   N06  Ds1  v041
 BYTE   N06  Dn1  v022
 BYTE   W06
 BYTE   As3  v088
 BYTE   N06  Bn2  v029
 BYTE   W06
 BYTE   Bn2  v064
 BYTE   W06
 BYTE   As3  v049
 BYTE   N06  Cn1  v127
 BYTE   N06  Bn2  v047
 BYTE   W06
 BYTE   Bn2  v034
 BYTE   W06
 BYTE   Bn2  v029
 BYTE   N06  As3  v088
 BYTE   N06  Cs3  v038
 BYTE   W06
 BYTE   Bn2  v029
 BYTE   W06
 BYTE   En1  v048
 BYTE   N12  As1  v042
 BYTE   N06  Ds1  v048
 BYTE   N06  Dn1  v028
 BYTE   N06  As3  v049
 BYTE   W12
//  #07 //058   ----------------------------------------
 BYTE   Bn2  v029
 BYTE   N06  Cn1  v127
 BYTE   N06  As3  v088
 BYTE   W12
 BYTE   Bn2  v029
 BYTE   N06  As3  v049
 BYTE   N06  Cs3  v038
 BYTE   W12
 BYTE   As3  v029
 BYTE   N06  Dn1  v048
 BYTE   N06  Ds1  v072
 BYTE   N12  As1  v064
 BYTE   N06  En1  v072
 BYTE   W06
 BYTE   Bn2  v029
 BYTE   W06
 BYTE   Bn2
 BYTE   N06  Cn1  v127
 BYTE   W06
 BYTE   En1  v048
 BYTE   N12  As1  v042
 BYTE   N06  Ds1  v048
 BYTE   N06  Dn1  v028
 BYTE   W06
 BYTE   Bn2  v029
 BYTE   N06  As3  v088
 BYTE   N06  Cs3  v038
 BYTE   W06
 BYTE   Bn2  v029
 BYTE   W06
 BYTE   Bn2
 BYTE   N06  As3  v049
 BYTE   N06  Cn1  v127
 BYTE   W06
 BYTE   Bn2  v029
 BYTE   W06
 BYTE   As3
 BYTE   N06  Bn2
 BYTE   W06
 BYTE   Bn2
 BYTE   W06
 BYTE   En1  v048
 BYTE   N12  As1  v042
 BYTE   N06  Ds1  v048
 BYTE   N06  Dn1  v028
 BYTE   N06  Bn2  v029
 BYTE   W12
//  #07 //059   ----------------------------------------
 BYTE   Bn2
 BYTE   N06  As3  v088
 BYTE   N06  Cn1  v127
 BYTE   W12
 BYTE   As3  v049
 BYTE   N06  Bn2  v029
 BYTE   W12
 BYTE   En1  v072
 BYTE   N12  As1  v064
 BYTE   N06  Ds1  v072
 BYTE   N06  Dn1  v048
 BYTE   W06
 BYTE   Bn2  v029
 BYTE   W06
 BYTE   As3  v049
 BYTE   N06  Cn1  v127
 BYTE   N06  Bn2  v029
 BYTE   W06
 BYTE   Dn1  v028
 BYTE   N06  Ds1  v048
 BYTE   N12  As1  v042
 BYTE   N06  En1  v048
 BYTE   W06
 BYTE   As3  v088
 BYTE   N06  Bn2  v029
 BYTE   W06
 BYTE   Bn2  v064
 BYTE   W06
 BYTE   As3  v049
 BYTE   N06  Cn1  v127
 BYTE   N06  Bn2  v047
 BYTE   W06
 BYTE   Bn2  v034
 BYTE   W06
 BYTE   Bn2  v029
 BYTE   N06  As3  v088
 BYTE   N06  Cs3  v038
 BYTE   W06
 BYTE   Bn2  v029
 BYTE   W06
 BYTE   En1  v048
 BYTE   N12  As1  v042
 BYTE   N06  Ds1  v048
 BYTE   N06  Dn1  v028
 BYTE   N06  As3  v049
 BYTE   W12
//  #07 //060   ----------------------------------------
 BYTE   Bn2  v029
 BYTE   N06  As3  v088
 BYTE   N06  Cn1  v127
 BYTE   W12
 BYTE   Bn2  v029
 BYTE   N06  As3  v049
 BYTE   N06  Cs3  v038
 BYTE   W12
 BYTE   As3  v029
 BYTE   N06  Dn1  v048
 BYTE   N06  Ds1  v072
 BYTE   N12  As1  v064
 BYTE   N06  En1  v072
 BYTE   W06
 BYTE   Bn2  v029
 BYTE   W06
 BYTE   Bn2
 BYTE   W06
 BYTE   En1  v048
 BYTE   N12  As1  v042
 BYTE   N06  Ds1  v048
 BYTE   N06  Dn1  v028
 BYTE   W06
 BYTE   As3  v088
 BYTE   N06  Cn1  v127
 BYTE   N06  Bn2  v029
 BYTE   N06  Cs3  v038
 BYTE   W06
 BYTE   Bn2  v029
 BYTE   W06
 BYTE   Cn1  v127
 BYTE   N06  As3  v049
 BYTE   N06  Bn2  v029
 BYTE   W06
 BYTE   Bn2
 BYTE   W06
 BYTE   N03  En1  v048
 BYTE   N03  As1  v042
 BYTE   N03  Ds1  v048
 BYTE   N03  Dn1  v028
 BYTE   N06  As3  v029
 BYTE   N06  Bn2
 BYTE   W03
 BYTE   N03  En1  v048
 BYTE   N03  As1  v042
 BYTE   N03  Ds1  v048
 BYTE   N03  Dn1  v028
 BYTE   W03
 BYTE   N06  Bn2  v029
 BYTE   N03  En1  v048
 BYTE   N03  As1  v042
 BYTE   N03  Ds1  v048
 BYTE   N03  Dn1  v028
 BYTE   W06
 BYTE   N06  Bn2  v029
 BYTE   W06
 BYTE   Dn1  v028
 BYTE   N06  Ds1  v048
 BYTE   N12  As1  v042
 BYTE   N06  En1  v048
 BYTE   W06
//  #07 //061   ----------------------------------------
 BYTE   As3  v088
 BYTE   N06  Cn1  v127
 BYTE   N06  Bn2  v029
 BYTE   W12
 BYTE   As3  v049
 BYTE   N06  Bn2  v029
 BYTE   W12
 BYTE   En1  v072
 BYTE   N12  As1  v064
 BYTE   N06  Ds1  v072
 BYTE   N06  Dn1  v048
 BYTE   W06
 BYTE   Bn2  v029
 BYTE   W06
 BYTE   Bn2
 BYTE   N06  As3  v049
 BYTE   N06  Cn1  v127
 BYTE   W06
 BYTE   En1  v048
 BYTE   N12  As1  v042
 BYTE   N06  Ds1  v048
 BYTE   N06  Dn1  v028
 BYTE   W06
 BYTE   Bn2  v029
 BYTE   N06  As3  v088
 BYTE   W06
 BYTE   Bn2  v064
 BYTE   W06
 BYTE   Bn2  v047
 BYTE   N06  As3  v049
 BYTE   N06  Cn1  v127
 BYTE   W06
 BYTE   Bn2  v034
 BYTE   W06
 BYTE   Bn2  v029
 BYTE   N06  As3  v088
 BYTE   N06  Cs3  v038
 BYTE   W06
 BYTE   Bn2  v029
 BYTE   W06
 BYTE   As3  v049
 BYTE   N06  Dn1  v028
 BYTE   N06  Ds1  v048
 BYTE   N12  As1  v042
 BYTE   N06  En1  v048
 BYTE   W12
//  #07 //062   ----------------------------------------
 BYTE   As3  v088
 BYTE   N06  Cn1  v127
 BYTE   N06  Bn2  v029
 BYTE   W12
 BYTE   As3  v049
 BYTE   N06  Bn2  v029
 BYTE   N06  Cs3  v038
 BYTE   W12
 BYTE   As3  v029
 BYTE   N06  Dn1  v048
 BYTE   N06  Ds1  v072
 BYTE   N12  As1  v064
 BYTE   N06  En1  v072
 BYTE   W06
 BYTE   Bn2  v029
 BYTE   W06
 BYTE   Bn2
 BYTE   N06  Cn1  v127
 BYTE   W06
 BYTE   En1  v048
 BYTE   N12  As1  v042
 BYTE   N06  Ds1  v048
 BYTE   N06  Dn1  v028
 BYTE   W06
 BYTE   Bn2  v029
 BYTE   N06  As3  v088
 BYTE   N06  Cs3  v038
 BYTE   W06
 BYTE   Bn2  v029
 BYTE   W06
 BYTE   Cn1  v127
 BYTE   N06  As3  v049
 BYTE   N06  Bn2  v029
 BYTE   W06
 BYTE   Bn2
 BYTE   W06
 BYTE   Bn2
 BYTE   N06  As3
 BYTE   W06
 BYTE   Bn2
 BYTE   W06
 BYTE   Bn2
 BYTE   N06  Dn1  v028
 BYTE   N06  Ds1  v048
 BYTE   N12  As1  v042
 BYTE   N06  En1  v048
 BYTE   W12
//  #07 //063   ----------------------------------------
 BYTE   Bn2  v029
 BYTE   N06  Cn1  v127
 BYTE   N06  As3  v088
 BYTE   W12
 BYTE   Bn2  v029
 BYTE   N06  As3  v049
 BYTE   W12
 BYTE   Dn1  v048
 BYTE   N06  Ds1  v072
 BYTE   N12  As1  v064
 BYTE   N06  En1  v072
 BYTE   W06
 BYTE   Bn2  v029
 BYTE   W06
 BYTE   Bn2
 BYTE   N06  Cn1  v127
 BYTE   N06  As3  v049
 BYTE   W06
 BYTE   Dn1  v028
 BYTE   N06  Ds1  v048
 BYTE   N12  As1  v042
 BYTE   N06  En1  v048
 BYTE   W06
 BYTE   As3  v088
 BYTE   N06  Bn2  v029
 BYTE   W06
 BYTE   Bn2  v064
 BYTE   W06
 BYTE   Cn1  v127
 BYTE   N06  As3  v049
 BYTE   N06  Bn2  v047
 BYTE   W06
 BYTE   Bn2  v034
 BYTE   W06
 BYTE   Cs3  v038
 BYTE   N06  Bn2  v029
 BYTE   N06  As3  v088
 BYTE   W06
 BYTE   Bn2  v029
 BYTE   W06
 BYTE   Ds1  v072
 BYTE   N12  As1  v064
 BYTE   N06  En1  v072
 BYTE   N06  As3  v049
 BYTE   N06  Dn1  v048
 BYTE   W12
//  #07 //064   ----------------------------------------
 BYTE   Bn2  v029
 BYTE   N06  As3  v088
 BYTE   N06  Cn1  v127
 BYTE   N03  Ds3  v046
 BYTE   W06
 BYTE   Ds3
 BYTE   N06  Dn1  v028
 BYTE   N06  En1  v048
 BYTE   N12  As1  v042
 BYTE   N06  Ds1  v048
 BYTE   W06
 BYTE   As3  v049
 BYTE   N06  Bn2  v029
 BYTE   W12
 BYTE   As3
 BYTE   W06
 BYTE   Bn2
 BYTE   W06
 BYTE   Bn2
 BYTE   N03  Ds3  v046
 BYTE   W06
 BYTE   Ds3
 BYTE   W06
 BYTE   N06  Bn2  v029
 BYTE   N06  As3  v088
 BYTE   W06
 BYTE   Bn2  v029
 BYTE   W06
 BYTE   Bn2
 BYTE   N06  As3  v049
 BYTE   W06
 BYTE   Bn2  v029
 BYTE   W06
 BYTE   Bn2
 BYTE   N06  As3
 BYTE   N03  Ds3  v046
 BYTE   W06
 BYTE   N06  Bn2  v029
 BYTE   N03  Ds3  v046
 BYTE   W06
 BYTE   N06  Bn2  v029
 BYTE   W06
 BYTE   Bn2
 BYTE   W06
//  #07 //065   ----------------------------------------
 BYTE   PATT
  POIN2 Label_0100D16E
//  #07 //066   ----------------------------------------
 BYTE   PATT
  POIN2 Label_0100D16E
//  #07 //067   ----------------------------------------
 BYTE   PATT
  POIN2 Label_0100D16E
//  #07 //068   ----------------------------------------
 BYTE   PATT
  POIN2 Label_0100D16E
//  #07 //069   ----------------------------------------
 BYTE   PATT
  POIN2 Label_0100D16E
//  #07 //070   ----------------------------------------
 BYTE   PATT
  POIN2 Label_0100D16E
//  #07 //071   ----------------------------------------
 BYTE   PATT
  POIN2 Label_0100D16E
//  #07 //072   ----------------------------------------
 BYTE   N06  As3  v080
 BYTE   W12
 BYTE   As3  v041
 BYTE   W12
 BYTE   As3  v080
 BYTE   W12
 BYTE   As3  v041
 BYTE   W12
 BYTE   Ds1  v064
 BYTE   N12  As1  v056
 BYTE   N06  En1  v064
 BYTE   N06  Dn1  v042
 BYTE   N06  As3  v080
 BYTE   W12
 BYTE   Ds1  v064
 BYTE   N06  Dn1  v042
 BYTE   N06  En1  v064
 BYTE   N12  As1  v056
 BYTE   N06  As3  v041
 BYTE   W12
 BYTE   N12  As1  v056
 BYTE   N06  En1  v064
 BYTE   N06  Dn1  v042
 BYTE   N06  Ds1  v064
 BYTE   N06  As3  v080
 BYTE   W12
 BYTE   Ds1  v064
 BYTE   N06  En1
 BYTE   N12  As1  v056
 BYTE   N06  As3  v041
 BYTE   N06  Dn1  v042
 BYTE   W12
//  #07 //073   ----------------------------------------
 BYTE   GoTo
  POIN2 Label_0100C7ED
//  #07 //074   ----------------------------------------
 BYTE   W96
 BYTE   FINE

//**************** Track 8 (Midi-Chn.7) ****************//

StreetFighter33rdStrikeSpunkyMakotoTak_008:
//  #08 //000   ----------------------------------------
 BYTE   KEYSH   StreetFighter33rdStrikeSpunkyMakotoTak_key+0
 BYTE   VOICE   94
 BYTE   BENDR  12
 BYTE   PAN   c_v+16
 BYTE   VOL   88*StreetFighter33rdStrikeSpunkyMakotoTak_mvl/mxv
 BYTE   W96
//  #08 //001   ----------------------------------------
Label_0100415B:
 BYTE   W96
//  #08 //002   ----------------------------------------
 BYTE   W96
//  #08 //003   ----------------------------------------
 BYTE   W96
//  #08 //004   ----------------------------------------
 BYTE   W96
//  #08 //005   ----------------------------------------
 BYTE   W96
//  #08 //006   ----------------------------------------
 BYTE   W96
//  #08 //007   ----------------------------------------
 BYTE   W96
//  #08 //008   ----------------------------------------
 BYTE   W96
//  #08 //009   ----------------------------------------
 BYTE   W96
//  #08 //010   ----------------------------------------
 BYTE   W96
//  #08 //011   ----------------------------------------
 BYTE   W96
//  #08 //012   ----------------------------------------
 BYTE   W96
//  #08 //013   ----------------------------------------
 BYTE   W96
//  #08 //014   ----------------------------------------
 BYTE   W96
//  #08 //015   ----------------------------------------
 BYTE   W96
//  #08 //016   ----------------------------------------
 BYTE   W96
//  #08 //017   ----------------------------------------
 BYTE   W96
//  #08 //018   ----------------------------------------
 BYTE   W96
//  #08 //019   ----------------------------------------
 BYTE   W96
//  #08 //020   ----------------------------------------
 BYTE   W96
//  #08 //021   ----------------------------------------
 BYTE   W96
//  #08 //022   ----------------------------------------
 BYTE   W96
//  #08 //023   ----------------------------------------
 BYTE   W96
//  #08 //024   ----------------------------------------
 BYTE   W96
//  #08 //025   ----------------------------------------
 BYTE   W96
//  #08 //026   ----------------------------------------
 BYTE   W96
//  #08 //027   ----------------------------------------
 BYTE   W96
//  #08 //028   ----------------------------------------
 BYTE   W96
//  #08 //029   ----------------------------------------
 BYTE   W96
//  #08 //030   ----------------------------------------
 BYTE   W96
//  #08 //031   ----------------------------------------
 BYTE   W96
//  #08 //032   ----------------------------------------
 BYTE   W96
//  #08 //033   ----------------------------------------
 BYTE   W96
//  #08 //034   ----------------------------------------
 BYTE   W96
//  #08 //035   ----------------------------------------
 BYTE   W96
//  #08 //036   ----------------------------------------
 BYTE   W96
//  #08 //037   ----------------------------------------
 BYTE   W96
//  #08 //038   ----------------------------------------
 BYTE   W96
//  #08 //039   ----------------------------------------
 BYTE   W96
//  #08 //040   ----------------------------------------
 BYTE   W96
//  #08 //041   ----------------------------------------
 BYTE   W96
//  #08 //042   ----------------------------------------
 BYTE   W96
//  #08 //043   ----------------------------------------
 BYTE   W96
//  #08 //044   ----------------------------------------
 BYTE   W96
//  #08 //045   ----------------------------------------
 BYTE   W96
//  #08 //046   ----------------------------------------
 BYTE   W96
//  #08 //047   ----------------------------------------
 BYTE   W96
//  #08 //048   ----------------------------------------
 BYTE   W96
//  #08 //049   ----------------------------------------
Label_0100418B:
 BYTE   N96  Cn5  v109
 BYTE   N96  An4
 BYTE   W96
 BYTE   PEND 
//  #08 //050   ----------------------------------------
 BYTE   W96
//  #08 //051   ----------------------------------------
Label_01004193:
 BYTE   N96  An4  v109
 BYTE   N96  Cn5
 BYTE   W96
 BYTE   PEND 
//  #08 //052   ----------------------------------------
 BYTE   W96
//  #08 //053   ----------------------------------------
 BYTE   PATT
  POIN2 Label_01004193
//  #08 //054   ----------------------------------------
 BYTE   W96
//  #08 //055   ----------------------------------------
 BYTE   PATT
  POIN2 Label_01004193
//  #08 //056   ----------------------------------------
 BYTE   W96
//  #08 //057   ----------------------------------------
 BYTE   PATT
  POIN2 Label_0100418B
//  #08 //058   ----------------------------------------
 BYTE   W96
//  #08 //059   ----------------------------------------
 BYTE   PATT
  POIN2 Label_0100418B
//  #08 //060   ----------------------------------------
 BYTE   W96
//  #08 //061   ----------------------------------------
 BYTE   PATT
  POIN2 Label_0100418B
//  #08 //062   ----------------------------------------
 BYTE   W96
//  #08 //063   ----------------------------------------
 BYTE   PATT
  POIN2 Label_01004193
//  #08 //064   ----------------------------------------
 BYTE   W96
//  #08 //065   ----------------------------------------
 BYTE   W96
//  #08 //066   ----------------------------------------
 BYTE   W96
//  #08 //067   ----------------------------------------
 BYTE   W96
//  #08 //068   ----------------------------------------
 BYTE   W96
//  #08 //069   ----------------------------------------
 BYTE   W96
//  #08 //070   ----------------------------------------
 BYTE   W96
//  #08 //071   ----------------------------------------
 BYTE   W96
//  #08 //072   ----------------------------------------
 BYTE   W96
//  #08 //073   ----------------------------------------
 BYTE   GoTo
  POIN2 Label_0100415B
//  #08 //074   ----------------------------------------
 BYTE   W96
 BYTE   FINE

//******************************************************//
	ALIGN 4

StreetFighter33rdStrikeSpunkyMakotoTak:
	BYTE	8	// NumTrks
	BYTE	0	// NumBlks
	BYTE	StreetFighter33rdStrikeSpunkyMakotoTak_pri	// Priority
	BYTE	StreetFighter33rdStrikeSpunkyMakotoTak_rev	// Reverb.
    
	POIN2	StreetFighter33rdStrikeSpunkyMakotoTak_grp
    
	POIN2	StreetFighter33rdStrikeSpunkyMakotoTak_001
	POIN2	StreetFighter33rdStrikeSpunkyMakotoTak_002
	POIN2	StreetFighter33rdStrikeSpunkyMakotoTak_003
	POIN2	StreetFighter33rdStrikeSpunkyMakotoTak_004
	POIN2	StreetFighter33rdStrikeSpunkyMakotoTak_005
	POIN2	StreetFighter33rdStrikeSpunkyMakotoTak_006
	POIN2	StreetFighter33rdStrikeSpunkyMakotoTak_007
	POIN2	StreetFighter33rdStrikeSpunkyMakotoTak_008

	
