//Event file generated from Sappy .s format.
	#include "MPlayDef.event"

	#define	StreetFighter33rdStrikeChinaVOXChunliTak_grp  voicegroup000
	#define	StreetFighter33rdStrikeChinaVOXChunliTak_pri  0
	#define	StreetFighter33rdStrikeChinaVOXChunliTak_rev  0
	#define	StreetFighter33rdStrikeChinaVOXChunliTak_mvl  127
	#define	StreetFighter33rdStrikeChinaVOXChunliTak_key  0
	#define	StreetFighter33rdStrikeChinaVOXChunliTak_tbs  1
	#define	StreetFighter33rdStrikeChinaVOXChunliTak_exg  0
	#define	StreetFighter33rdStrikeChinaVOXChunliTak_cmp  1

	// .rodata
	//	StreetFighter33rdStrikeChinaVOXChunliTak
	ALIGN 4


//**************** Track 1 (Midi-Chn.0) ****************//

StreetFighter33rdStrikeChinaVOXChunliTak_001:
//  #01 //000   ----------------------------------------
 BYTE   KEYSH   StreetFighter33rdStrikeChinaVOXChunliTak_key+0
 BYTE   TEMPO   136*StreetFighter33rdStrikeChinaVOXChunliTak_tbs/2
Label_01003D54:
 BYTE   VOICE   18
 BYTE   VOL   46*StreetFighter33rdStrikeChinaVOXChunliTak_mvl/mxv
 BYTE   BENDR  12
 BYTE   N17  En5  v127
 BYTE   N17  An5
 BYTE   W18
 BYTE   N18  Gn5
 BYTE   N18  Cn6
 BYTE   N18  Cn5
 BYTE   W18
 BYTE   N17  Dn6
 BYTE   N17  An5
 BYTE   N17  Dn5
 BYTE   W18
 BYTE   N18
 BYTE   N18  Gn5
 BYTE   W18
 BYTE   N12  En5
 BYTE   N12  An5
 BYTE   W12
 BYTE   Gn5
 BYTE   N12  Cn6
 BYTE   N12  Cn5
 BYTE   W12
//  #01 //001   ----------------------------------------
Label_01003D7D:
 BYTE   N17  En5  v127
 BYTE   N17  An5
 BYTE   W18
 BYTE   N18  Gn5
 BYTE   N18  Cn6
 BYTE   N18  Cn5
 BYTE   W18
 BYTE   N17  Dn6
 BYTE   N17  An5
 BYTE   N17  Dn5
 BYTE   W18
 BYTE   N18
 BYTE   N18  Gn5
 BYTE   W18
 BYTE   N12  En5
 BYTE   N12  An5
 BYTE   W12
 BYTE   Gn5
 BYTE   N12  Cn6
 BYTE   N12  Cn5
 BYTE   W12
 BYTE   PEND 
//  #01 //002   ----------------------------------------
 BYTE   PATT
  POIN2 Label_01003D7D
//  #01 //003   ----------------------------------------
Label_01003DA6:
 BYTE   N17  En5  v127
 BYTE   N17  An5
 BYTE   W18
 BYTE   Gn5
 BYTE   N18  Cn6
 BYTE   N18  Cn5
 BYTE   W18
 BYTE   N24  Dn5
 BYTE   N24  Dn6
 BYTE   N24  An5
 BYTE   W24
 BYTE   N12  Cs5
 BYTE   N12  Cs6
 BYTE   N12  Gs5
 BYTE   W12
 BYTE   N24  Dn5
 BYTE   N24  Dn6
 BYTE   N24  An5
 BYTE   W24
 BYTE   PEND 
//  #01 //004   ----------------------------------------
Label_01003DC8:
 BYTE   N17  An5  v127
 BYTE   N17  En5
 BYTE   W18
 BYTE   N18  Cn5
 BYTE   N18  Cn6
 BYTE   N18  Gn5
 BYTE   W18
 BYTE   N17  Dn5
 BYTE   N17  An5
 BYTE   N17  Dn6
 BYTE   W18
 BYTE   N18  Dn5
 BYTE   N18  Gn5
 BYTE   W18
 BYTE   N12  En5
 BYTE   N12  An5
 BYTE   W12
 BYTE   Gn5
 BYTE   N12  Cn6
 BYTE   N12  Cn5
 BYTE   W12
 BYTE   PEND 
//  #01 //005   ----------------------------------------
Label_01003DED:
 BYTE   N17  An5  v127
 BYTE   N17  En5
 BYTE   W18
 BYTE   N18  Cn5
 BYTE   N18  Cn6
 BYTE   N18  Gn5
 BYTE   W18
 BYTE   N17  Dn5
 BYTE   N17  An5
 BYTE   N17  Dn6
 BYTE   W18
 BYTE   N18  Gn5
 BYTE   N18  Dn5
 BYTE   W18
 BYTE   N12  An5
 BYTE   N12  En5
 BYTE   W12
 BYTE   Cn5
 BYTE   N12  Cn6
 BYTE   N12  Gn5
 BYTE   W12
 BYTE   PEND 
//  #01 //006   ----------------------------------------
 BYTE   PATT
  POIN2 Label_01003DED
//  #01 //007   ----------------------------------------
 BYTE   PATT
  POIN2 Label_01003DA6
//  #01 //008   ----------------------------------------
 BYTE   N17  An5  v127
 BYTE   N17  En5
 BYTE   W18
 BYTE   N18  Gn5
 BYTE   N18  Cn6
 BYTE   N18  Cn5
 BYTE   W18
 BYTE   N17  Dn6
 BYTE   N17  An5
 BYTE   N17  Dn5
 BYTE   W18
 BYTE   N18  Gn5
 BYTE   N18  Dn5
 BYTE   W18
 BYTE   N12  An5
 BYTE   N12  En5
 BYTE   W12
 BYTE   Cn5
 BYTE   N12  Cn6
 BYTE   N12  Gn5
 BYTE   W12
//  #01 //009   ----------------------------------------
 BYTE   PATT
  POIN2 Label_01003D7D
//  #01 //010   ----------------------------------------
 BYTE   PATT
  POIN2 Label_01003D7D
//  #01 //011   ----------------------------------------
 BYTE   N17  An5  v127
 BYTE   N17  En5
 BYTE   W18
 BYTE   N18  Cn5
 BYTE   N18  Cn6
 BYTE   N17  Gn5
 BYTE   W18
 BYTE   N24  An5
 BYTE   N24  Dn6
 BYTE   N24  Dn5
 BYTE   W24
 BYTE   N12  Gs5
 BYTE   N12  Cs6
 BYTE   N12  Cs5
 BYTE   W12
 BYTE   N24  An5
 BYTE   N24  Dn6
 BYTE   N24  Dn5
 BYTE   W24
//  #01 //012   ----------------------------------------
 BYTE   N17  En5
 BYTE   N17  An5
 BYTE   W18
 BYTE   N18  Cn5
 BYTE   N18  Cn6
 BYTE   N18  Gn5
 BYTE   W18
 BYTE   N17  Dn5
 BYTE   N17  An5
 BYTE   N17  Dn6
 BYTE   W18
 BYTE   N18  Dn5
 BYTE   N18  Gn5
 BYTE   W18
 BYTE   N12  En5
 BYTE   N12  An5
 BYTE   W12
 BYTE   Gn5
 BYTE   N12  Cn6
 BYTE   N12  Cn5
 BYTE   W12
//  #01 //013   ----------------------------------------
 BYTE   PATT
  POIN2 Label_01003DED
//  #01 //014   ----------------------------------------
 BYTE   PATT
  POIN2 Label_01003DED
//  #01 //015   ----------------------------------------
Label_01003E99:
 BYTE   N17  En5  v127
 BYTE   N17  An5
 BYTE   W18
 BYTE   Gn5
 BYTE   N18  Cn6
 BYTE   N18  Cn5
 BYTE   W18
 BYTE   N24  Dn5
 BYTE   N24  Dn6
 BYTE   N24  An5
 BYTE   W24
 BYTE   N12  Gs5
 BYTE   N12  Cs6
 BYTE   N12  Cs5
 BYTE   W12
 BYTE   N24  An5
 BYTE   N24  Dn6
 BYTE   N24  Dn5
 BYTE   W24
 BYTE   PEND 
//  #01 //016   ----------------------------------------
Label_01003EBB:
 BYTE   N17  En5  v127
 BYTE   N17  An5
 BYTE   W18
 BYTE   N18  Gn5
 BYTE   N18  Cn6
 BYTE   N18  Cn5
 BYTE   W18
 BYTE   N17  Dn6
 BYTE   N17  An5
 BYTE   N17  Dn5
 BYTE   W18
 BYTE   N18  Gn5
 BYTE   N18  Dn5
 BYTE   W18
 BYTE   N12  An5
 BYTE   N12  En5
 BYTE   W12
 BYTE   Cn5
 BYTE   N12  Cn6
 BYTE   N12  Gn5
 BYTE   W12
 BYTE   PEND 
//  #01 //017   ----------------------------------------
 BYTE   PATT
  POIN2 Label_01003D7D
//  #01 //018   ----------------------------------------
 BYTE   N17  En5  v127
 BYTE   N17  An5
 BYTE   W18
 BYTE   N18  Gn5
 BYTE   N18  Cn6
 BYTE   N18  Cn5
 BYTE   W18
 BYTE   N17  Dn5
 BYTE   N17  An5
 BYTE   N17  Dn6
 BYTE   W18
 BYTE   N18  Gn5
 BYTE   N18  Dn5
 BYTE   W18
 BYTE   N12  An5
 BYTE   N12  En5
 BYTE   W12
 BYTE   Cn5
 BYTE   N12  Cn6
 BYTE   N12  Gn5
 BYTE   W12
//  #01 //019   ----------------------------------------
Label_01003F09:
 BYTE   N17  En5  v127
 BYTE   N17  An5
 BYTE   W18
 BYTE   Gn5
 BYTE   N18  Cn6
 BYTE   N18  Cn5
 BYTE   W18
 BYTE   N24  An5
 BYTE   N24  Dn6
 BYTE   N24  Dn5
 BYTE   W24
 BYTE   N12  Gs5
 BYTE   N12  Cs6
 BYTE   N12  Cs5
 BYTE   W12
 BYTE   N24  An5
 BYTE   N24  Dn6
 BYTE   N24  Dn5
 BYTE   W24
 BYTE   PEND 
//  #01 //020   ----------------------------------------
 BYTE   PATT
  POIN2 Label_01003DC8
//  #01 //021   ----------------------------------------
 BYTE   PATT
  POIN2 Label_01003DC8
//  #01 //022   ----------------------------------------
 BYTE   N17  An5  v127
 BYTE   N17  En5
 BYTE   W18
 BYTE   N18  Cn5
 BYTE   N18  Cn6
 BYTE   N18  Gn5
 BYTE   W18
 BYTE   N17  Dn6
 BYTE   N17  An5
 BYTE   N17  Dn5
 BYTE   W18
 BYTE   N18
 BYTE   N18  Gn5
 BYTE   W18
 BYTE   N12  En5
 BYTE   N12  An5
 BYTE   W12
 BYTE   Gn5
 BYTE   N12  Cn6
 BYTE   N12  Cn5
 BYTE   W12
//  #01 //023   ----------------------------------------
 BYTE   PATT
  POIN2 Label_01003E99
//  #01 //024   ----------------------------------------
 BYTE   PATT
  POIN2 Label_01003DC8
//  #01 //025   ----------------------------------------
 BYTE   PATT
  POIN2 Label_01003DED
//  #01 //026   ----------------------------------------
 BYTE   PATT
  POIN2 Label_01003DED
//  #01 //027   ----------------------------------------
 BYTE   N17  An5  v127
 BYTE   N17  En5
 BYTE   W18
 BYTE   N18  Cn5
 BYTE   N18  Cn6
 BYTE   N17  Gn5
 BYTE   W18
 BYTE   N24  An5
 BYTE   N24  Dn6
 BYTE   N24  Dn5
 BYTE   W24
 BYTE   N12  Cs5
 BYTE   N12  Cs6
 BYTE   N12  Gs5
 BYTE   W12
 BYTE   N24  Dn5
 BYTE   N24  Dn6
 BYTE   N24  An5
 BYTE   W24
//  #01 //028   ----------------------------------------
 BYTE   PATT
  POIN2 Label_01003EBB
//  #01 //029   ----------------------------------------
 BYTE   PATT
  POIN2 Label_01003EBB
//  #01 //030   ----------------------------------------
 BYTE   PATT
  POIN2 Label_01003DC8
//  #01 //031   ----------------------------------------
Label_01003F9D:
 BYTE   N17  An5  v127
 BYTE   N17  En5
 BYTE   W18
 BYTE   N18  Cn5
 BYTE   N18  Cn6
 BYTE   N17  Gn5
 BYTE   W18
 BYTE   N24  Dn5
 BYTE   N24  Dn6
 BYTE   N24  An5
 BYTE   W24
 BYTE   N12  Gs5
 BYTE   N12  Cs6
 BYTE   N12  Cs5
 BYTE   W12
 BYTE   N24  An5
 BYTE   N24  Dn6
 BYTE   N24  Dn5
 BYTE   W24
 BYTE   PEND 
//  #01 //032   ----------------------------------------
 BYTE   PATT
  POIN2 Label_01003DED
//  #01 //033   ----------------------------------------
 BYTE   PATT
  POIN2 Label_01003DED
//  #01 //034   ----------------------------------------
 BYTE   PATT
  POIN2 Label_01003EBB
//  #01 //035   ----------------------------------------
 BYTE   PATT
  POIN2 Label_01003F09
//  #01 //036   ----------------------------------------
 BYTE   PATT
  POIN2 Label_01003D7D
//  #01 //037   ----------------------------------------
 BYTE   PATT
  POIN2 Label_01003EBB
//  #01 //038   ----------------------------------------
 BYTE   PATT
  POIN2 Label_01003DC8
//  #01 //039   ----------------------------------------
 BYTE   PATT
  POIN2 Label_01003F9D
//  #01 //040   ----------------------------------------
 BYTE   W96
//  #01 //041   ----------------------------------------
 BYTE   W96
//  #01 //042   ----------------------------------------
 BYTE   W96
//  #01 //043   ----------------------------------------
 BYTE   W96
//  #01 //044   ----------------------------------------
 BYTE   W96
//  #01 //045   ----------------------------------------
 BYTE   W96
//  #01 //046   ----------------------------------------
 BYTE   GoTo
  POIN2 Label_01003D54
 BYTE   FINE

//**************** Track 2 (Midi-Chn.1) ****************//

StreetFighter33rdStrikeChinaVOXChunliTak_002:
//  #02 //000   ----------------------------------------
 BYTE   KEYSH   StreetFighter33rdStrikeChinaVOXChunliTak_key+0
Label_01003026:
 BYTE   VOICE   81
 BYTE   PAN   c_v+12
 BYTE   VOL   65*StreetFighter33rdStrikeChinaVOXChunliTak_mvl/mxv
 BYTE   BENDR  12
 BYTE   N12  En1  v127
 BYTE   W08
 BYTE   BEND   c_v-4
 BYTE   W03
 BYTE   BEND   c_v-8
 BYTE   W01
 BYTE   N06  Cn1
 BYTE   BEND   c_v-11
 BYTE   W02
 BYTE   BEND   c_v-4
 BYTE   W01
 BYTE   BEND   c_v+0
 BYTE   W02
 BYTE   BEND   c_v-8
 BYTE   W01
 BYTE   BEND   c_v-11
 BYTE   W02
 BYTE   BEND   c_v-4
 BYTE   W01
 BYTE   BEND   c_v+0
 BYTE   W02
 BYTE   BEND   c_v-8
 BYTE   W01
 BYTE   BEND   c_v-11
 BYTE   W03
 BYTE   BEND   c_v+0
 BYTE   W68
 BYTE   W01
//  #02 //001   ----------------------------------------
Label_0100304F:
 BYTE   N12  En1  v127
 BYTE   W08
 BYTE   BEND   c_v-4
 BYTE   W03
 BYTE   BEND   c_v-8
 BYTE   W01
 BYTE   N06  Cn1
 BYTE   BEND   c_v-11
 BYTE   W02
 BYTE   BEND   c_v-4
 BYTE   W01
 BYTE   BEND   c_v+0
 BYTE   W02
 BYTE   BEND   c_v-8
 BYTE   W01
 BYTE   BEND   c_v-11
 BYTE   W02
 BYTE   BEND   c_v-4
 BYTE   W01
 BYTE   BEND   c_v+0
 BYTE   W02
 BYTE   BEND   c_v-8
 BYTE   W01
 BYTE   BEND   c_v-11
 BYTE   W03
 BYTE   BEND   c_v+0
 BYTE   W68
 BYTE   W01
 BYTE   PEND 
//  #02 //002   ----------------------------------------
 BYTE   PATT
  POIN2 Label_0100304F
//  #02 //003   ----------------------------------------
 BYTE   PATT
  POIN2 Label_0100304F
//  #02 //004   ----------------------------------------
 BYTE   PATT
  POIN2 Label_0100304F
//  #02 //005   ----------------------------------------
 BYTE   PATT
  POIN2 Label_0100304F
//  #02 //006   ----------------------------------------
 BYTE   PATT
  POIN2 Label_0100304F
//  #02 //007   ----------------------------------------
 BYTE   PATT
  POIN2 Label_0100304F
//  #02 //008   ----------------------------------------
 BYTE   PATT
  POIN2 Label_0100304F
//  #02 //009   ----------------------------------------
 BYTE   PATT
  POIN2 Label_0100304F
//  #02 //010   ----------------------------------------
 BYTE   PATT
  POIN2 Label_0100304F
//  #02 //011   ----------------------------------------
 BYTE   PATT
  POIN2 Label_0100304F
//  #02 //012   ----------------------------------------
 BYTE   PATT
  POIN2 Label_0100304F
//  #02 //013   ----------------------------------------
 BYTE   PATT
  POIN2 Label_0100304F
//  #02 //014   ----------------------------------------
 BYTE   PATT
  POIN2 Label_0100304F
//  #02 //015   ----------------------------------------
 BYTE   PATT
  POIN2 Label_0100304F
//  #02 //016   ----------------------------------------
 BYTE   PATT
  POIN2 Label_0100304F
//  #02 //017   ----------------------------------------
 BYTE   PATT
  POIN2 Label_0100304F
//  #02 //018   ----------------------------------------
 BYTE   PATT
  POIN2 Label_0100304F
//  #02 //019   ----------------------------------------
 BYTE   PATT
  POIN2 Label_0100304F
//  #02 //020   ----------------------------------------
 BYTE   PATT
  POIN2 Label_0100304F
//  #02 //021   ----------------------------------------
 BYTE   PATT
  POIN2 Label_0100304F
//  #02 //022   ----------------------------------------
 BYTE   PATT
  POIN2 Label_0100304F
//  #02 //023   ----------------------------------------
 BYTE   PATT
  POIN2 Label_0100304F
//  #02 //024   ----------------------------------------
 BYTE   PATT
  POIN2 Label_0100304F
//  #02 //025   ----------------------------------------
 BYTE   PATT
  POIN2 Label_0100304F
//  #02 //026   ----------------------------------------
 BYTE   PATT
  POIN2 Label_0100304F
//  #02 //027   ----------------------------------------
 BYTE   PATT
  POIN2 Label_0100304F
//  #02 //028   ----------------------------------------
 BYTE   PATT
  POIN2 Label_0100304F
//  #02 //029   ----------------------------------------
 BYTE   PATT
  POIN2 Label_0100304F
//  #02 //030   ----------------------------------------
 BYTE   PATT
  POIN2 Label_0100304F
//  #02 //031   ----------------------------------------
 BYTE   PATT
  POIN2 Label_0100304F
//  #02 //032   ----------------------------------------
 BYTE   PATT
  POIN2 Label_0100304F
//  #02 //033   ----------------------------------------
 BYTE   PATT
  POIN2 Label_0100304F
//  #02 //034   ----------------------------------------
 BYTE   PATT
  POIN2 Label_0100304F
//  #02 //035   ----------------------------------------
 BYTE   PATT
  POIN2 Label_0100304F
//  #02 //036   ----------------------------------------
 BYTE   PATT
  POIN2 Label_0100304F
//  #02 //037   ----------------------------------------
 BYTE   PATT
  POIN2 Label_0100304F
//  #02 //038   ----------------------------------------
 BYTE   PATT
  POIN2 Label_0100304F
//  #02 //039   ----------------------------------------
 BYTE   PATT
  POIN2 Label_0100304F
//  #02 //040   ----------------------------------------
 BYTE   W96
//  #02 //041   ----------------------------------------
 BYTE   W96
//  #02 //042   ----------------------------------------
 BYTE   PATT
  POIN2 Label_0100304F
//  #02 //043   ----------------------------------------
 BYTE   PATT
  POIN2 Label_0100304F
//  #02 //044   ----------------------------------------
 BYTE   PATT
  POIN2 Label_0100304F
//  #02 //045   ----------------------------------------
 BYTE   PATT
  POIN2 Label_0100304F
//  #02 //046   ----------------------------------------
 BYTE   GoTo
  POIN2 Label_01003026
 BYTE   FINE

//**************** Track 3 (Midi-Chn.2) ****************//

StreetFighter33rdStrikeChinaVOXChunliTak_003:
//  #03 //000   ----------------------------------------
 BYTE   KEYSH   StreetFighter33rdStrikeChinaVOXChunliTak_key+0
Label_010005D2:
 BYTE   VOICE   33
 BYTE   PAN   c_v-13
 BYTE   VOL   69*StreetFighter33rdStrikeChinaVOXChunliTak_mvl/mxv
 BYTE   BENDR  12
 BYTE   N12  En1  v127
 BYTE   W08
 BYTE   BEND   c_v-4
 BYTE   W03
 BYTE   BEND   c_v-8
 BYTE   W01
 BYTE   N06  Cn1
 BYTE   BEND   c_v-11
 BYTE   W02
 BYTE   BEND   c_v-4
 BYTE   W01
 BYTE   BEND   c_v+0
 BYTE   W02
 BYTE   BEND   c_v-8
 BYTE   W01
 BYTE   BEND   c_v-11
 BYTE   W02
 BYTE   BEND   c_v-4
 BYTE   W01
 BYTE   BEND   c_v+0
 BYTE   W02
 BYTE   BEND   c_v-8
 BYTE   W01
 BYTE   BEND   c_v-11
 BYTE   W03
 BYTE   BEND   c_v+0
 BYTE   W68
 BYTE   W01
//  #03 //001   ----------------------------------------
 BYTE   PATT
  POIN2 Label_0100304F
//  #03 //002   ----------------------------------------
 BYTE   PATT
  POIN2 Label_0100304F
//  #03 //003   ----------------------------------------
 BYTE   PATT
  POIN2 Label_0100304F
//  #03 //004   ----------------------------------------
 BYTE   PATT
  POIN2 Label_0100304F
//  #03 //005   ----------------------------------------
 BYTE   PATT
  POIN2 Label_0100304F
//  #03 //006   ----------------------------------------
 BYTE   PATT
  POIN2 Label_0100304F
//  #03 //007   ----------------------------------------
 BYTE   PATT
  POIN2 Label_0100304F
//  #03 //008   ----------------------------------------
 BYTE   PATT
  POIN2 Label_0100304F
//  #03 //009   ----------------------------------------
 BYTE   PATT
  POIN2 Label_0100304F
//  #03 //010   ----------------------------------------
 BYTE   PATT
  POIN2 Label_0100304F
//  #03 //011   ----------------------------------------
 BYTE   PATT
  POIN2 Label_0100304F
//  #03 //012   ----------------------------------------
 BYTE   PATT
  POIN2 Label_0100304F
//  #03 //013   ----------------------------------------
 BYTE   PATT
  POIN2 Label_0100304F
//  #03 //014   ----------------------------------------
 BYTE   PATT
  POIN2 Label_0100304F
//  #03 //015   ----------------------------------------
 BYTE   PATT
  POIN2 Label_0100304F
//  #03 //016   ----------------------------------------
 BYTE   PATT
  POIN2 Label_0100304F
//  #03 //017   ----------------------------------------
 BYTE   PATT
  POIN2 Label_0100304F
//  #03 //018   ----------------------------------------
 BYTE   PATT
  POIN2 Label_0100304F
//  #03 //019   ----------------------------------------
 BYTE   PATT
  POIN2 Label_0100304F
//  #03 //020   ----------------------------------------
 BYTE   PATT
  POIN2 Label_0100304F
//  #03 //021   ----------------------------------------
 BYTE   PATT
  POIN2 Label_0100304F
//  #03 //022   ----------------------------------------
 BYTE   PATT
  POIN2 Label_0100304F
//  #03 //023   ----------------------------------------
 BYTE   PATT
  POIN2 Label_0100304F
//  #03 //024   ----------------------------------------
 BYTE   PATT
  POIN2 Label_0100304F
//  #03 //025   ----------------------------------------
 BYTE   PATT
  POIN2 Label_0100304F
//  #03 //026   ----------------------------------------
 BYTE   PATT
  POIN2 Label_0100304F
//  #03 //027   ----------------------------------------
 BYTE   PATT
  POIN2 Label_0100304F
//  #03 //028   ----------------------------------------
 BYTE   PATT
  POIN2 Label_0100304F
//  #03 //029   ----------------------------------------
 BYTE   PATT
  POIN2 Label_0100304F
//  #03 //030   ----------------------------------------
 BYTE   PATT
  POIN2 Label_0100304F
//  #03 //031   ----------------------------------------
 BYTE   PATT
  POIN2 Label_0100304F
//  #03 //032   ----------------------------------------
 BYTE   PATT
  POIN2 Label_0100304F
//  #03 //033   ----------------------------------------
 BYTE   PATT
  POIN2 Label_0100304F
//  #03 //034   ----------------------------------------
 BYTE   PATT
  POIN2 Label_0100304F
//  #03 //035   ----------------------------------------
 BYTE   PATT
  POIN2 Label_0100304F
//  #03 //036   ----------------------------------------
 BYTE   PATT
  POIN2 Label_0100304F
//  #03 //037   ----------------------------------------
 BYTE   PATT
  POIN2 Label_0100304F
//  #03 //038   ----------------------------------------
 BYTE   PATT
  POIN2 Label_0100304F
//  #03 //039   ----------------------------------------
 BYTE   PATT
  POIN2 Label_0100304F
//  #03 //040   ----------------------------------------
 BYTE   W96
//  #03 //041   ----------------------------------------
 BYTE   W96
//  #03 //042   ----------------------------------------
 BYTE   PATT
  POIN2 Label_0100304F
//  #03 //043   ----------------------------------------
 BYTE   PATT
  POIN2 Label_0100304F
//  #03 //044   ----------------------------------------
 BYTE   PATT
  POIN2 Label_0100304F
//  #03 //045   ----------------------------------------
 BYTE   PATT
  POIN2 Label_0100304F
//  #03 //046   ----------------------------------------
 BYTE   GoTo
  POIN2 Label_010005D2
 BYTE   FINE

//**************** Track 4 (Midi-Chn.3) ****************//

StreetFighter33rdStrikeChinaVOXChunliTak_004:
//  #04 //000   ----------------------------------------
 BYTE   KEYSH   StreetFighter33rdStrikeChinaVOXChunliTak_key+0
Label_0100314E:
 BYTE   VOICE   107
 BYTE   PAN   c_v-13
 BYTE   VOL   47*StreetFighter33rdStrikeChinaVOXChunliTak_mvl/mxv
 BYTE   BENDR  12
 BYTE   W96
//  #04 //001   ----------------------------------------
 BYTE   W96
//  #04 //002   ----------------------------------------
 BYTE   W96
//  #04 //003   ----------------------------------------
 BYTE   W96
//  #04 //004   ----------------------------------------
 BYTE   W96
//  #04 //005   ----------------------------------------
 BYTE   W96
//  #04 //006   ----------------------------------------
 BYTE   W96
//  #04 //007   ----------------------------------------
 BYTE   W96
//  #04 //008   ----------------------------------------
Label_0100315E:
 BYTE   TIE  En3  v127
 BYTE   TIE  Dn3
 BYTE   W96
 BYTE   PEND 
//  #04 //009   ----------------------------------------
 BYTE   W96
//  #04 //010   ----------------------------------------
 BYTE   W96
//  #04 //011   ----------------------------------------
 BYTE   W36
 BYTE   EOT
 BYTE   En3  v062
 BYTE   N60  An3
 BYTE   N60  Fs3
 BYTE   W60
//  #04 //012   ----------------------------------------
Label_01003170:
 BYTE   TIE  Dn3  v127
 BYTE   TIE  En3
 BYTE   W96
 BYTE   PEND 
//  #04 //013   ----------------------------------------
 BYTE   W96
//  #04 //014   ----------------------------------------
 BYTE   W96
//  #04 //015   ----------------------------------------
Label_01003179:
 BYTE   W36
 BYTE   EOT
 BYTE   Dn3  v064
 BYTE   N60  Fs3  v127
 BYTE   N60  An3
 BYTE   W60
 BYTE   PEND 
//  #04 //016   ----------------------------------------
 BYTE   PATT
  POIN2 Label_01003170
//  #04 //017   ----------------------------------------
 BYTE   W96
//  #04 //018   ----------------------------------------
 BYTE   W96
//  #04 //019   ----------------------------------------
 BYTE   W36
 BYTE   EOT
 BYTE   Dn3  v064
 BYTE   N60  An3  v127
 BYTE   N60  Fs3
 BYTE   W60
//  #04 //020   ----------------------------------------
 BYTE   PATT
  POIN2 Label_0100315E
//  #04 //021   ----------------------------------------
 BYTE   W96
//  #04 //022   ----------------------------------------
 BYTE   W96
//  #04 //023   ----------------------------------------
Label_0100319C:
 BYTE   W36
 BYTE   EOT
 BYTE   En3  v062
 BYTE   N60  Fs3  v127
 BYTE   N60  An3
 BYTE   W60
 BYTE   PEND 
//  #04 //024   ----------------------------------------
 BYTE   W96
//  #04 //025   ----------------------------------------
 BYTE   W96
//  #04 //026   ----------------------------------------
 BYTE   W96
//  #04 //027   ----------------------------------------
 BYTE   W96
//  #04 //028   ----------------------------------------
 BYTE   W96
//  #04 //029   ----------------------------------------
 BYTE   W96
//  #04 //030   ----------------------------------------
 BYTE   W96
//  #04 //031   ----------------------------------------
 BYTE   W96
//  #04 //032   ----------------------------------------
 BYTE   PATT
  POIN2 Label_0100315E
//  #04 //033   ----------------------------------------
 BYTE   W96
//  #04 //034   ----------------------------------------
 BYTE   W96
//  #04 //035   ----------------------------------------
 BYTE   PATT
  POIN2 Label_01003179
//  #04 //036   ----------------------------------------
 BYTE   PATT
  POIN2 Label_0100315E
//  #04 //037   ----------------------------------------
 BYTE   W96
//  #04 //038   ----------------------------------------
 BYTE   W96
//  #04 //039   ----------------------------------------
 BYTE   PATT
  POIN2 Label_0100319C
//  #04 //040   ----------------------------------------
 BYTE   W96
//  #04 //041   ----------------------------------------
 BYTE   W96
//  #04 //042   ----------------------------------------
 BYTE   W96
//  #04 //043   ----------------------------------------
 BYTE   W96
//  #04 //044   ----------------------------------------
 BYTE   W96
//  #04 //045   ----------------------------------------
 BYTE   W96
//  #04 //046   ----------------------------------------
 BYTE   GoTo
  POIN2 Label_0100314E
 BYTE   FINE

//**************** Track 5 (Midi-Chn.4) ****************//

StreetFighter33rdStrikeChinaVOXChunliTak_005:
//  #05 //000   ----------------------------------------
 BYTE   KEYSH   StreetFighter33rdStrikeChinaVOXChunliTak_key+0
Label_0100400A:
 BYTE   VOICE   100
 BYTE   PAN   c_v+18
 BYTE   VOL   47*StreetFighter33rdStrikeChinaVOXChunliTak_mvl/mxv
 BYTE   BENDR  12
 BYTE   W96
//  #05 //001   ----------------------------------------
 BYTE   W96
//  #05 //002   ----------------------------------------
 BYTE   W96
//  #05 //003   ----------------------------------------
 BYTE   W96
//  #05 //004   ----------------------------------------
 BYTE   W96
//  #05 //005   ----------------------------------------
 BYTE   W96
//  #05 //006   ----------------------------------------
 BYTE   W96
//  #05 //007   ----------------------------------------
 BYTE   W96
//  #05 //008   ----------------------------------------
Label_0100401A:
 BYTE   N06  En3  v127
 BYTE   W06
 BYTE   Gn3
 BYTE   W12
 BYTE   An3
 BYTE   W06
 BYTE   Bn3
 BYTE   W12
 BYTE   Dn4
 BYTE   W06
 BYTE   N54  En4
 BYTE   W54
 BYTE   PEND 
//  #05 //009   ----------------------------------------
 BYTE   W96
//  #05 //010   ----------------------------------------
 BYTE   PATT
  POIN2 Label_0100401A
//  #05 //011   ----------------------------------------
Label_01004030:
 BYTE   W36
 BYTE   N24  Fs3  v127
 BYTE   N24  En3
 BYTE   W36
 BYTE   Fs3
 BYTE   N24  En3
 BYTE   W24
 BYTE   PEND 
//  #05 //012   ----------------------------------------
 BYTE   PATT
  POIN2 Label_0100401A
//  #05 //013   ----------------------------------------
 BYTE   W96
//  #05 //014   ----------------------------------------
 BYTE   PATT
  POIN2 Label_0100401A
//  #05 //015   ----------------------------------------
Label_01004047:
 BYTE   W36
 BYTE   N24  En3  v127
 BYTE   N24  Fs3
 BYTE   W36
 BYTE   Fs3
 BYTE   N24  En3
 BYTE   W24
 BYTE   PEND 
//  #05 //016   ----------------------------------------
 BYTE   PATT
  POIN2 Label_0100401A
//  #05 //017   ----------------------------------------
 BYTE   W96
//  #05 //018   ----------------------------------------
 BYTE   PATT
  POIN2 Label_0100401A
//  #05 //019   ----------------------------------------
 BYTE   PATT
  POIN2 Label_01004030
//  #05 //020   ----------------------------------------
 BYTE   PATT
  POIN2 Label_0100401A
//  #05 //021   ----------------------------------------
 BYTE   W96
//  #05 //022   ----------------------------------------
 BYTE   PATT
  POIN2 Label_0100401A
//  #05 //023   ----------------------------------------
 BYTE   PATT
  POIN2 Label_01004047
//  #05 //024   ----------------------------------------
 BYTE   W96
//  #05 //025   ----------------------------------------
 BYTE   W96
//  #05 //026   ----------------------------------------
 BYTE   W96
//  #05 //027   ----------------------------------------
 BYTE   W96
//  #05 //028   ----------------------------------------
 BYTE   W96
//  #05 //029   ----------------------------------------
 BYTE   W96
//  #05 //030   ----------------------------------------
 BYTE   W96
//  #05 //031   ----------------------------------------
 BYTE   W96
//  #05 //032   ----------------------------------------
 BYTE   PATT
  POIN2 Label_0100401A
//  #05 //033   ----------------------------------------
 BYTE   W96
//  #05 //034   ----------------------------------------
 BYTE   PATT
  POIN2 Label_0100401A
//  #05 //035   ----------------------------------------
 BYTE   PATT
  POIN2 Label_01004030
//  #05 //036   ----------------------------------------
 BYTE   PATT
  POIN2 Label_0100401A
//  #05 //037   ----------------------------------------
 BYTE   W96
//  #05 //038   ----------------------------------------
 BYTE   PATT
  POIN2 Label_0100401A
//  #05 //039   ----------------------------------------
 BYTE   PATT
  POIN2 Label_01004047
//  #05 //040   ----------------------------------------
 BYTE   W96
//  #05 //041   ----------------------------------------
 BYTE   W96
//  #05 //042   ----------------------------------------
 BYTE   W96
//  #05 //043   ----------------------------------------
 BYTE   W96
//  #05 //044   ----------------------------------------
 BYTE   W96
//  #05 //045   ----------------------------------------
 BYTE   W96
//  #05 //046   ----------------------------------------
 BYTE   GoTo
  POIN2 Label_0100400A
 BYTE   FINE

//**************** Track 6 (Midi-Chn.5) ****************//

StreetFighter33rdStrikeChinaVOXChunliTak_006:
//  #06 //000   ----------------------------------------
 BYTE   KEYSH   StreetFighter33rdStrikeChinaVOXChunliTak_key+0
Label_01025B92:
 BYTE   VOICE   124
 BYTE   VOL   64*StreetFighter33rdStrikeChinaVOXChunliTak_mvl/mxv
 BYTE   BENDR  12
 BYTE   N06  Cn1  v127
 BYTE   N06  Fs1
 BYTE   N48  Cs2
 BYTE   W12
 BYTE   N23  Bn2
 BYTE   N06  Fs1
 BYTE   W06
 BYTE   Fs1
 BYTE   N06  Ds5
 BYTE   W06
 BYTE   En1
 BYTE   N06  Cn1
 BYTE   N06  Fs1
 BYTE   W12
 BYTE   Cn1
 BYTE   N23  Bn2
 BYTE   N06  Fs1
 BYTE   W06
 BYTE   Fs1
 BYTE   W12
 BYTE   Cn1
 BYTE   N06  Fs1
 BYTE   W06
 BYTE   N23  Bn2
 BYTE   W06
 BYTE   N06  Cn1
 BYTE   N06  Fs1
 BYTE   N06  Ds5
 BYTE   W06
 BYTE   En1
 BYTE   N06  Cn1
 BYTE   N06  Fs1
 BYTE   W12
 BYTE   N23  Bn2
 BYTE   N06  Ds5
 BYTE   W06
 BYTE   En1
 BYTE   N06  Cn1
 BYTE   N06  Fs1
 BYTE   W06
//  #06 //001   ----------------------------------------
Label_01025BD6:
 BYTE   N01  Cn1  v127
 BYTE   N01  Fs1
 BYTE   W12
 BYTE   N23  Bn2
 BYTE   N06  Fs1
 BYTE   W06
 BYTE   Fs1
 BYTE   N06  Ds5
 BYTE   W06
 BYTE   En1
 BYTE   N06  Cn1
 BYTE   N06  Fs1
 BYTE   W12
 BYTE   Cn1
 BYTE   N23  Bn2
 BYTE   N06  Fs1
 BYTE   W06
 BYTE   Fs1
 BYTE   W05
 BYTE   N07  Ds5
 BYTE   W07
 BYTE   N06  Cn1
 BYTE   N06  Fs1
 BYTE   N06  En1
 BYTE   W06
 BYTE   N23  Bn2
 BYTE   W05
 BYTE   N06  Ds5
 BYTE   W01
 BYTE   Cn1
 BYTE   W06
 BYTE   Cn1
 BYTE   N06  Fs1
 BYTE   N06  En1
 BYTE   N06  Ds5
 BYTE   W06
 BYTE   En1
 BYTE   N06  Cn1
 BYTE   N06  Fs1
 BYTE   N06  Ds5
 BYTE   W06
 BYTE   N23  Bn2
 BYTE   N01  En1
 BYTE   N01  Cn1
 BYTE   N01  Fs1
 BYTE   N01  Ds5
 BYTE   W12
 BYTE   PEND 
//  #06 //002   ----------------------------------------
 BYTE   N06  Cn1
 BYTE   N06  Fs1
 BYTE   N48  Cs2
 BYTE   W12
 BYTE   N23  Bn2
 BYTE   N06  Fs1
 BYTE   W06
 BYTE   Fs1
 BYTE   N06  Ds5
 BYTE   W06
 BYTE   En1
 BYTE   N06  Cn1
 BYTE   N06  Fs1
 BYTE   W12
 BYTE   Cn1
 BYTE   N23  Bn2
 BYTE   N06  Fs1
 BYTE   W06
 BYTE   Fs1
 BYTE   W12
 BYTE   Cn1
 BYTE   N06  Fs1
 BYTE   W06
 BYTE   N23  Bn2
 BYTE   W06
 BYTE   N06  Cn1
 BYTE   N06  Fs1
 BYTE   N06  Ds5
 BYTE   W06
 BYTE   En1
 BYTE   N06  Cn1
 BYTE   N06  Fs1
 BYTE   W12
 BYTE   N23  Bn2
 BYTE   N06  Ds5
 BYTE   W06
 BYTE   En1
 BYTE   N06  Cn1
 BYTE   N06  Fs1
 BYTE   W06
//  #06 //003   ----------------------------------------
 BYTE   N01  Cn1
 BYTE   N01  Fs1
 BYTE   W12
 BYTE   N23  Bn2
 BYTE   N06  Fs1
 BYTE   W06
 BYTE   Fs1
 BYTE   N06  Ds5
 BYTE   W06
 BYTE   En1
 BYTE   N06  Cn1
 BYTE   N06  Fs1
 BYTE   W12
 BYTE   Fs1
 BYTE   N23  Bn2
 BYTE   N06  Cn1
 BYTE   W06
 BYTE   Fs1
 BYTE   W05
 BYTE   N07  Ds5
 BYTE   W07
 BYTE   N06  En1
 BYTE   N06  Fs1
 BYTE   N06  Cn1
 BYTE   W06
 BYTE   N23  Bn2
 BYTE   W05
 BYTE   N06  Ds5
 BYTE   W01
 BYTE   Cn1
 BYTE   W06
 BYTE   Ds5
 BYTE   N06  En1
 BYTE   N06  Fs1
 BYTE   N06  Cn1
 BYTE   W06
 BYTE   Ds5
 BYTE   N06  Fs1
 BYTE   N06  Cn1
 BYTE   N06  En1
 BYTE   W06
 BYTE   N01  Ds5
 BYTE   N01  Fs1
 BYTE   N01  Cn1
 BYTE   N01  En1
 BYTE   N23  Bn2
 BYTE   W12
//  #06 //004   ----------------------------------------
Label_01025CA7:
 BYTE   N48  Cs2  v127
 BYTE   N06  Fs1
 BYTE   N06  Cn1
 BYTE   W12
 BYTE   Fs1
 BYTE   N23  Bn2
 BYTE   W06
 BYTE   N06  Ds5
 BYTE   N06  Fs1
 BYTE   W06
 BYTE   Cn1
 BYTE   N06  Fs1
 BYTE   N06  En1
 BYTE   W12
 BYTE   Fs1
 BYTE   N23  Bn2
 BYTE   N06  Cn1
 BYTE   W06
 BYTE   Fs1
 BYTE   W12
 BYTE   Cn1
 BYTE   N06  Fs1
 BYTE   W06
 BYTE   N23  Bn2
 BYTE   W06
 BYTE   N06  Cn1
 BYTE   N06  Fs1
 BYTE   N06  Ds5
 BYTE   W06
 BYTE   En1
 BYTE   N06  Cn1
 BYTE   N06  Fs1
 BYTE   W12
 BYTE   N23  Bn2
 BYTE   N06  Ds5
 BYTE   W06
 BYTE   En1
 BYTE   N06  Cn1
 BYTE   N06  Fs1
 BYTE   W06
 BYTE   PEND 
//  #06 //005   ----------------------------------------
Label_01025CE6:
 BYTE   N01  Fs1  v127
 BYTE   N01  Cn1
 BYTE   W12
 BYTE   N06  Fs1
 BYTE   N23  Bn2
 BYTE   W06
 BYTE   N06  Ds5
 BYTE   N06  Fs1
 BYTE   W06
 BYTE   Cn1
 BYTE   N06  Fs1
 BYTE   N06  En1
 BYTE   W12
 BYTE   Fs1
 BYTE   N23  Bn2
 BYTE   N06  Cn1
 BYTE   W06
 BYTE   Fs1
 BYTE   W05
 BYTE   N07  Ds5
 BYTE   W07
 BYTE   N06  En1
 BYTE   N06  Fs1
 BYTE   N06  Cn1
 BYTE   W06
 BYTE   N23  Bn2
 BYTE   W05
 BYTE   N06  Ds5
 BYTE   W01
 BYTE   Cn1
 BYTE   W06
 BYTE   Ds5
 BYTE   N06  En1
 BYTE   N06  Fs1
 BYTE   N06  Cn1
 BYTE   W06
 BYTE   Ds5
 BYTE   N06  Fs1
 BYTE   N06  Cn1
 BYTE   N06  En1
 BYTE   W06
 BYTE   N01  Ds5
 BYTE   N01  Fs1
 BYTE   N01  Cn1
 BYTE   N01  En1
 BYTE   N23  Bn2
 BYTE   W12
 BYTE   PEND 
//  #06 //006   ----------------------------------------
Label_01025D32:
 BYTE   N48  Cs2  v127
 BYTE   N06  Fs1
 BYTE   N06  Cn1
 BYTE   W12
 BYTE   Fs1
 BYTE   N23  Bn2
 BYTE   W06
 BYTE   N06  Ds5
 BYTE   N06  Fs1
 BYTE   W06
 BYTE   Cn1
 BYTE   N06  Fs1
 BYTE   N06  En1
 BYTE   W12
 BYTE   Fs1
 BYTE   N23  Bn2
 BYTE   N06  Cn1
 BYTE   W06
 BYTE   Fs1
 BYTE   W12
 BYTE   Fs1
 BYTE   N06  Cn1
 BYTE   W06
 BYTE   N23  Bn2
 BYTE   W06
 BYTE   N06  Ds5
 BYTE   N06  Fs1
 BYTE   N06  Cn1
 BYTE   W06
 BYTE   Fs1
 BYTE   N06  Cn1
 BYTE   N06  En1
 BYTE   W12
 BYTE   Ds5
 BYTE   N23  Bn2
 BYTE   W06
 BYTE   N06  Fs1
 BYTE   N06  Cn1
 BYTE   N06  En1
 BYTE   W06
 BYTE   PEND 
//  #06 //007   ----------------------------------------
 BYTE   W36
 BYTE   Ds5
 BYTE   W06
 BYTE   Fs1
 BYTE   N06  Cn1
 BYTE   N06  En1
 BYTE   W06
 BYTE   Ds5
 BYTE   W06
 BYTE   Fs1
 BYTE   N06  Cn1
 BYTE   N06  En1
 BYTE   W06
 BYTE   Ds5
 BYTE   W06
 BYTE   Ds5
 BYTE   N06  Fs1
 BYTE   N06  Cn1
 BYTE   N06  En1
 BYTE   W06
 BYTE   N01  Ds5
 BYTE   N01  Fs1
 BYTE   N01  Cn1
 BYTE   N01  En1
 BYTE   W06
 BYTE   N06  Ds5
 BYTE   N06  Fs1
 BYTE   N06  Cn1
 BYTE   N06  En1
 BYTE   W06
 BYTE   N01  Ds5
 BYTE   N01  Fs1
 BYTE   N01  Cn1
 BYTE   N01  En1
 BYTE   W12
//  #06 //008   ----------------------------------------
 BYTE   N48  Cs2
 BYTE   N06  Fs1
 BYTE   N06  Cn1
 BYTE   W12
 BYTE   N23  Bn2
 BYTE   N06  Fs1
 BYTE   W06
 BYTE   Fs1
 BYTE   N06  Ds5
 BYTE   W06
 BYTE   En1
 BYTE   N06  Cn1
 BYTE   N06  Fs1
 BYTE   W12
 BYTE   Cn1
 BYTE   N23  Bn2
 BYTE   N06  Fs1
 BYTE   N06  Ds5
 BYTE   W06
 BYTE   En1
 BYTE   N06  Fs1
 BYTE   W06
 BYTE   Ds5
 BYTE   W06
 BYTE   Ds5
 BYTE   N06  En1
 BYTE   N06  Fs1
 BYTE   N06  Cn1
 BYTE   W06
 BYTE   N01  Ds5
 BYTE   N01  En1
 BYTE   N23  Bn2
 BYTE   W06
 BYTE   N06  Ds5
 BYTE   N06  Fs1
 BYTE   N06  Cn1
 BYTE   W06
 BYTE   Fs1
 BYTE   N06  Cn1
 BYTE   N06  En1
 BYTE   W12
 BYTE   Ds5
 BYTE   N23  Bn2
 BYTE   W06
 BYTE   N06  Fs1
 BYTE   N06  Cn1
 BYTE   N06  En1
 BYTE   W06
//  #06 //009   ----------------------------------------
 BYTE   PATT
  POIN2 Label_01025BD6
//  #06 //010   ----------------------------------------
Label_01025DF7:
 BYTE   N06  Cn1  v127
 BYTE   N06  Fs1
 BYTE   N48  Cs2
 BYTE   W12
 BYTE   N23  Bn2
 BYTE   N06  Fs1
 BYTE   W06
 BYTE   Fs1
 BYTE   N06  Ds5
 BYTE   W06
 BYTE   En1
 BYTE   N06  Cn1
 BYTE   N06  Fs1
 BYTE   W12
 BYTE   Cn1
 BYTE   N23  Bn2
 BYTE   N06  Fs1
 BYTE   N06  Ds5
 BYTE   W06
 BYTE   Fs1
 BYTE   N06  En1
 BYTE   W06
 BYTE   Ds5
 BYTE   W06
 BYTE   Cn1
 BYTE   N06  Fs1
 BYTE   N06  En1
 BYTE   N06  Ds5
 BYTE   W06
 BYTE   N23  Bn2
 BYTE   N01  En1
 BYTE   N01  Ds5
 BYTE   W06
 BYTE   N06  Cn1
 BYTE   N06  Fs1
 BYTE   N06  Ds5
 BYTE   W06
 BYTE   En1
 BYTE   N06  Cn1
 BYTE   N06  Fs1
 BYTE   W12
 BYTE   N23  Bn2
 BYTE   N06  Ds5
 BYTE   W06
 BYTE   En1
 BYTE   N06  Cn1
 BYTE   N06  Fs1
 BYTE   W06
 BYTE   PEND 
//  #06 //011   ----------------------------------------
 BYTE   N01
 BYTE   N01  Cn1
 BYTE   W12
 BYTE   N06  Fs1
 BYTE   N23  Bn2
 BYTE   W06
 BYTE   N06  Ds5
 BYTE   N06  Fs1
 BYTE   W06
 BYTE   Cn1
 BYTE   N06  Fs1
 BYTE   N06  En1
 BYTE   W12
 BYTE   Cn1
 BYTE   N23  Bn2
 BYTE   N06  Fs1
 BYTE   W06
 BYTE   Fs1
 BYTE   W05
 BYTE   N07  Ds5
 BYTE   W07
 BYTE   N06  Cn1
 BYTE   N06  Fs1
 BYTE   N06  En1
 BYTE   W06
 BYTE   N23  Bn2
 BYTE   W05
 BYTE   N06  Ds5
 BYTE   W01
 BYTE   Cn1
 BYTE   W06
 BYTE   Cn1
 BYTE   N06  Fs1
 BYTE   N06  En1
 BYTE   N06  Ds5
 BYTE   W06
 BYTE   En1
 BYTE   N06  Cn1
 BYTE   N06  Fs1
 BYTE   N06  Ds5
 BYTE   W06
 BYTE   N23  Bn2
 BYTE   N01  En1
 BYTE   N01  Cn1
 BYTE   N01  Fs1
 BYTE   N01  Ds5
 BYTE   W12
//  #06 //012   ----------------------------------------
 BYTE   N06  Cn1
 BYTE   N06  Fs1
 BYTE   N48  Cs2
 BYTE   W12
 BYTE   N06  Fs1
 BYTE   N23  Bn2
 BYTE   W06
 BYTE   N06  Ds5
 BYTE   N06  Fs1
 BYTE   W06
 BYTE   Cn1
 BYTE   N06  Fs1
 BYTE   N06  En1
 BYTE   W12
 BYTE   Ds5
 BYTE   N06  Fs1
 BYTE   N23  Bn2
 BYTE   N06  Cn1
 BYTE   W06
 BYTE   Fs1
 BYTE   N06  En1
 BYTE   W06
 BYTE   Ds5
 BYTE   W06
 BYTE   Cn1
 BYTE   N06  Fs1
 BYTE   N06  En1
 BYTE   N06  Ds5
 BYTE   W06
 BYTE   N23  Bn2
 BYTE   N01  En1
 BYTE   N01  Ds5
 BYTE   W06
 BYTE   N06  Cn1
 BYTE   N06  Fs1
 BYTE   N06  Ds5
 BYTE   W06
 BYTE   En1
 BYTE   N06  Cn1
 BYTE   N06  Fs1
 BYTE   W12
 BYTE   N23  Bn2
 BYTE   N06  Ds5
 BYTE   W06
 BYTE   En1
 BYTE   N06  Cn1
 BYTE   N06  Fs1
 BYTE   W06
//  #06 //013   ----------------------------------------
 BYTE   PATT
  POIN2 Label_01025CE6
//  #06 //014   ----------------------------------------
Label_01025EDE:
 BYTE   N48  Cs2  v127
 BYTE   N06  Fs1
 BYTE   N06  Cn1
 BYTE   W12
 BYTE   Fs1
 BYTE   N23  Bn2
 BYTE   W06
 BYTE   N06  Ds5
 BYTE   N06  Fs1
 BYTE   W06
 BYTE   Cn1
 BYTE   N06  Fs1
 BYTE   N06  En1
 BYTE   W12
 BYTE   Ds5
 BYTE   N06  Fs1
 BYTE   N23  Bn2
 BYTE   N06  Cn1
 BYTE   W06
 BYTE   En1
 BYTE   N06  Fs1
 BYTE   W06
 BYTE   Ds5
 BYTE   W06
 BYTE   Ds5
 BYTE   N06  En1
 BYTE   N06  Fs1
 BYTE   N06  Cn1
 BYTE   W06
 BYTE   N01  Ds5
 BYTE   N01  En1
 BYTE   N23  Bn2
 BYTE   W06
 BYTE   N06  Ds5
 BYTE   N06  Fs1
 BYTE   N06  Cn1
 BYTE   W06
 BYTE   Fs1
 BYTE   N06  Cn1
 BYTE   N06  En1
 BYTE   W12
 BYTE   Ds5
 BYTE   N23  Bn2
 BYTE   W06
 BYTE   N06  Fs1
 BYTE   N06  Cn1
 BYTE   N06  En1
 BYTE   W06
 BYTE   PEND 
//  #06 //015   ----------------------------------------
Label_01025F2B:
 BYTE   W36
 BYTE   N06  Ds5  v127
 BYTE   W06
 BYTE   En1
 BYTE   N06  Cn1
 BYTE   N06  Fs1
 BYTE   W06
 BYTE   Ds5
 BYTE   W06
 BYTE   En1
 BYTE   N06  Cn1
 BYTE   N06  Fs1
 BYTE   W06
 BYTE   Ds5
 BYTE   W06
 BYTE   En1
 BYTE   N06  Cn1
 BYTE   N06  Fs1
 BYTE   N06  Ds5
 BYTE   W06
 BYTE   N01  En1
 BYTE   N01  Cn1
 BYTE   N01  Fs1
 BYTE   N01  Ds5
 BYTE   W06
 BYTE   N06  En1
 BYTE   N06  Cn1
 BYTE   N06  Fs1
 BYTE   N06  Ds5
 BYTE   W06
 BYTE   N01  En1
 BYTE   N01  Cn1
 BYTE   N01  Fs1
 BYTE   N01  Ds5
 BYTE   W12
 BYTE   PEND 
//  #06 //016   ----------------------------------------
Label_01025F64:
 BYTE   N06  Cn1  v127
 BYTE   N06  Fs1
 BYTE   N48  Cs2
 BYTE   W12
 BYTE   N23  Bn2
 BYTE   N06  Fs1
 BYTE   W06
 BYTE   Fs1
 BYTE   N06  Ds5
 BYTE   W06
 BYTE   En1
 BYTE   N06  Cn1
 BYTE   N06  Fs1
 BYTE   W12
 BYTE   Cn1
 BYTE   N23  Bn2
 BYTE   N06  Fs1
 BYTE   N06  Ds5
 BYTE   W06
 BYTE   En1
 BYTE   N06  Fs1
 BYTE   W06
 BYTE   Ds5
 BYTE   W06
 BYTE   Ds5
 BYTE   N06  En1
 BYTE   N06  Fs1
 BYTE   N06  Cn1
 BYTE   W06
 BYTE   N01  Ds5
 BYTE   N01  En1
 BYTE   N23  Bn2
 BYTE   W06
 BYTE   N06  Ds5
 BYTE   N06  Fs1
 BYTE   N06  Cn1
 BYTE   W06
 BYTE   Fs1
 BYTE   N06  Cn1
 BYTE   N06  En1
 BYTE   W12
 BYTE   Ds5
 BYTE   N23  Bn2
 BYTE   W06
 BYTE   N06  Fs1
 BYTE   N06  Cn1
 BYTE   N06  En1
 BYTE   W06
 BYTE   PEND 
//  #06 //017   ----------------------------------------
 BYTE   PATT
  POIN2 Label_01025BD6
//  #06 //018   ----------------------------------------
 BYTE   N06  Cn1  v127
 BYTE   N06  Fs1
 BYTE   N48  Cs2
 BYTE   W12
 BYTE   N23  Bn2
 BYTE   N06  Fs1
 BYTE   W06
 BYTE   Fs1
 BYTE   N06  Ds5
 BYTE   W06
 BYTE   En1
 BYTE   N06  Cn1
 BYTE   N06  Fs1
 BYTE   W12
 BYTE   Ds5
 BYTE   N06  Fs1
 BYTE   N23  Bn2
 BYTE   N06  Cn1
 BYTE   W06
 BYTE   En1
 BYTE   N06  Fs1
 BYTE   W06
 BYTE   Ds5
 BYTE   W06
 BYTE   Ds5
 BYTE   N06  En1
 BYTE   N06  Fs1
 BYTE   N06  Cn1
 BYTE   W06
 BYTE   N01  Ds5
 BYTE   N01  En1
 BYTE   N23  Bn2
 BYTE   W06
 BYTE   N06  Ds5
 BYTE   N06  Fs1
 BYTE   N06  Cn1
 BYTE   W06
 BYTE   Fs1
 BYTE   N06  Cn1
 BYTE   N06  En1
 BYTE   W12
 BYTE   Ds5
 BYTE   N23  Bn2
 BYTE   W06
 BYTE   N06  Fs1
 BYTE   N06  Cn1
 BYTE   N06  En1
 BYTE   W06
//  #06 //019   ----------------------------------------
 BYTE   PATT
  POIN2 Label_01025BD6
//  #06 //020   ----------------------------------------
Label_01026007:
 BYTE   N48  Cs2  v127
 BYTE   N06  Fs1
 BYTE   N06  Cn1
 BYTE   W12
 BYTE   Fs1
 BYTE   N23  Bn2
 BYTE   W06
 BYTE   N06  Ds5
 BYTE   N06  Fs1
 BYTE   W06
 BYTE   Cn1
 BYTE   N06  Fs1
 BYTE   N06  En1
 BYTE   W12
 BYTE   Ds5
 BYTE   N06  Fs1
 BYTE   N23  Bn2
 BYTE   N06  Cn1
 BYTE   W06
 BYTE   Fs1
 BYTE   N06  En1
 BYTE   W06
 BYTE   Ds5
 BYTE   W06
 BYTE   Cn1
 BYTE   N06  Fs1
 BYTE   N06  En1
 BYTE   N06  Ds5
 BYTE   W06
 BYTE   N23  Bn2
 BYTE   N01  En1
 BYTE   N01  Ds5
 BYTE   W06
 BYTE   N06  Cn1
 BYTE   N06  Fs1
 BYTE   N06  Ds5
 BYTE   W06
 BYTE   En1
 BYTE   N06  Cn1
 BYTE   N06  Fs1
 BYTE   W12
 BYTE   N23  Bn2
 BYTE   N06  Ds5
 BYTE   W06
 BYTE   En1
 BYTE   N06  Cn1
 BYTE   N06  Fs1
 BYTE   W06
 BYTE   PEND 
//  #06 //021   ----------------------------------------
 BYTE   N01
 BYTE   N01  Cn1
 BYTE   W12
 BYTE   N06  Fs1
 BYTE   N23  Bn2
 BYTE   W06
 BYTE   N06  Ds5
 BYTE   N06  Fs1
 BYTE   W06
 BYTE   Cn1
 BYTE   N06  Fs1
 BYTE   N06  En1
 BYTE   W12
 BYTE   Fs1
 BYTE   N23  Bn2
 BYTE   N06  Cn1
 BYTE   W06
 BYTE   Fs1
 BYTE   W05
 BYTE   N07  Ds5
 BYTE   W07
 BYTE   N06  Cn1
 BYTE   N06  Fs1
 BYTE   N06  En1
 BYTE   W06
 BYTE   N23  Bn2
 BYTE   W05
 BYTE   N06  Ds5
 BYTE   W01
 BYTE   Cn1
 BYTE   W06
 BYTE   Cn1
 BYTE   N06  Fs1
 BYTE   N06  En1
 BYTE   N06  Ds5
 BYTE   W06
 BYTE   En1
 BYTE   N06  Cn1
 BYTE   N06  Fs1
 BYTE   N06  Ds5
 BYTE   W06
 BYTE   N23  Bn2
 BYTE   N01  En1
 BYTE   N01  Cn1
 BYTE   N01  Fs1
 BYTE   N01  Ds5
 BYTE   W12
//  #06 //022   ----------------------------------------
 BYTE   N48  Cs2
 BYTE   N06  Fs1
 BYTE   N06  Cn1
 BYTE   W12
 BYTE   Fs1
 BYTE   N23  Bn2
 BYTE   W06
 BYTE   N06  Ds5
 BYTE   N06  Fs1
 BYTE   W06
 BYTE   Cn1
 BYTE   N06  Fs1
 BYTE   N06  En1
 BYTE   W12
 BYTE   Cn1
 BYTE   N23  Bn2
 BYTE   N06  Fs1
 BYTE   N06  Ds5
 BYTE   W06
 BYTE   Fs1
 BYTE   N06  En1
 BYTE   W06
 BYTE   Ds5
 BYTE   W06
 BYTE   Cn1
 BYTE   N06  Fs1
 BYTE   N06  En1
 BYTE   N06  Ds5
 BYTE   W06
 BYTE   N23  Bn2
 BYTE   N01  En1
 BYTE   N01  Ds5
 BYTE   W06
 BYTE   N06  Cn1
 BYTE   N06  Fs1
 BYTE   N06  Ds5
 BYTE   W06
 BYTE   En1
 BYTE   N06  Cn1
 BYTE   N06  Fs1
 BYTE   W12
 BYTE   N23  Bn2
 BYTE   N06  Ds5
 BYTE   W06
 BYTE   En1
 BYTE   N06  Cn1
 BYTE   N06  Fs1
 BYTE   W06
//  #06 //023   ----------------------------------------
 BYTE   PATT
  POIN2 Label_01025F2B
//  #06 //024   ----------------------------------------
 BYTE   PATT
  POIN2 Label_01025CA7
//  #06 //025   ----------------------------------------
 BYTE   PATT
  POIN2 Label_01025CE6
//  #06 //026   ----------------------------------------
 BYTE   PATT
  POIN2 Label_01025D32
//  #06 //027   ----------------------------------------
 BYTE   N01  Fs1  v127
 BYTE   N01  Cn1
 BYTE   W12
 BYTE   N06  Fs1
 BYTE   N23  Bn2
 BYTE   W06
 BYTE   N06  Ds5
 BYTE   N06  Fs1
 BYTE   W06
 BYTE   Cn1
 BYTE   N06  Fs1
 BYTE   N06  En1
 BYTE   W12
 BYTE   Cn1
 BYTE   N23  Bn2
 BYTE   N06  Fs1
 BYTE   W06
 BYTE   Fs1
 BYTE   W05
 BYTE   N07  Ds5
 BYTE   W07
 BYTE   N06  En1
 BYTE   N06  Fs1
 BYTE   N06  Cn1
 BYTE   W06
 BYTE   N23  Bn2
 BYTE   W05
 BYTE   N06  Ds5
 BYTE   W01
 BYTE   Cn1
 BYTE   W06
 BYTE   Ds5
 BYTE   N06  En1
 BYTE   N06  Fs1
 BYTE   N06  Cn1
 BYTE   W06
 BYTE   Ds5
 BYTE   N06  Fs1
 BYTE   N06  Cn1
 BYTE   N06  En1
 BYTE   W06
 BYTE   N01  Ds5
 BYTE   N01  Fs1
 BYTE   N01  Cn1
 BYTE   N01  En1
 BYTE   N23  Bn2
 BYTE   W12
//  #06 //028   ----------------------------------------
 BYTE   N06  Cn1
 BYTE   N06  Fs1
 BYTE   N48  Cs2
 BYTE   W12
 BYTE   N23  Bn2
 BYTE   N06  Fs1
 BYTE   W06
 BYTE   Fs1
 BYTE   N06  Ds5
 BYTE   W06
 BYTE   En1
 BYTE   N06  Cn1
 BYTE   N06  Fs1
 BYTE   W12
 BYTE   Cn1
 BYTE   N23  Bn2
 BYTE   N06  Fs1
 BYTE   W06
 BYTE   Fs1
 BYTE   W12
 BYTE   Fs1
 BYTE   N06  Cn1
 BYTE   W06
 BYTE   N23  Bn2
 BYTE   W06
 BYTE   N06  Ds5
 BYTE   N06  Fs1
 BYTE   N06  Cn1
 BYTE   W06
 BYTE   Fs1
 BYTE   N06  Cn1
 BYTE   N06  En1
 BYTE   W12
 BYTE   Ds5
 BYTE   N23  Bn2
 BYTE   W06
 BYTE   N06  Fs1
 BYTE   N06  Cn1
 BYTE   N06  En1
 BYTE   W06
//  #06 //029   ----------------------------------------
Label_01026184:
 BYTE   N01  Cn1  v127
 BYTE   N01  Fs1
 BYTE   W12
 BYTE   N23  Bn2
 BYTE   N06  Fs1
 BYTE   W06
 BYTE   Fs1
 BYTE   N06  Ds5
 BYTE   W06
 BYTE   En1
 BYTE   N06  Cn1
 BYTE   N06  Fs1
 BYTE   W12
 BYTE   Cn1
 BYTE   N23  Bn2
 BYTE   N06  Fs1
 BYTE   W06
 BYTE   Fs1
 BYTE   W05
 BYTE   N07  Ds5
 BYTE   W07
 BYTE   N06  En1
 BYTE   N06  Fs1
 BYTE   N06  Cn1
 BYTE   W06
 BYTE   N23  Bn2
 BYTE   W05
 BYTE   N06  Ds5
 BYTE   W01
 BYTE   Cn1
 BYTE   W06
 BYTE   Ds5
 BYTE   N06  En1
 BYTE   N06  Fs1
 BYTE   N06  Cn1
 BYTE   W06
 BYTE   Ds5
 BYTE   N06  Fs1
 BYTE   N06  Cn1
 BYTE   N06  En1
 BYTE   W06
 BYTE   N01  Ds5
 BYTE   N01  Fs1
 BYTE   N01  Cn1
 BYTE   N01  En1
 BYTE   N23  Bn2
 BYTE   W12
 BYTE   PEND 
//  #06 //030   ----------------------------------------
 BYTE   N48  Cs2
 BYTE   N06  Fs1
 BYTE   N06  Cn1
 BYTE   W12
 BYTE   Fs1
 BYTE   N23  Bn2
 BYTE   W06
 BYTE   N06  Ds5
 BYTE   N06  Fs1
 BYTE   W06
 BYTE   Cn1
 BYTE   N06  Fs1
 BYTE   N06  En1
 BYTE   W12
 BYTE   Fs1
 BYTE   N23  Bn2
 BYTE   N06  Cn1
 BYTE   W06
 BYTE   Fs1
 BYTE   W12
 BYTE   Cn1
 BYTE   N06  Fs1
 BYTE   W06
 BYTE   N23  Bn2
 BYTE   W06
 BYTE   N06  Cn1
 BYTE   N06  Fs1
 BYTE   N06  Ds5
 BYTE   W06
 BYTE   En1
 BYTE   N06  Fs1
 BYTE   N06  Cn1
 BYTE   W12
 BYTE   N23  Bn2
 BYTE   N06  Ds5
 BYTE   W06
 BYTE   En1
 BYTE   N06  Cn1
 BYTE   N06  Fs1
 BYTE   W06
//  #06 //031   ----------------------------------------
 BYTE   PATT
  POIN2 Label_01025F2B
//  #06 //032   ----------------------------------------
 BYTE   PATT
  POIN2 Label_01025EDE
//  #06 //033   ----------------------------------------
 BYTE   PATT
  POIN2 Label_01025CE6
//  #06 //034   ----------------------------------------
 BYTE   PATT
  POIN2 Label_01025F64
//  #06 //035   ----------------------------------------
 BYTE   PATT
  POIN2 Label_01025BD6
//  #06 //036   ----------------------------------------
 BYTE   PATT
  POIN2 Label_01025DF7
//  #06 //037   ----------------------------------------
 BYTE   PATT
  POIN2 Label_01026184
//  #06 //038   ----------------------------------------
 BYTE   PATT
  POIN2 Label_01026007
//  #06 //039   ----------------------------------------
 BYTE   PATT
  POIN2 Label_01025F2B
//  #06 //040   ----------------------------------------
 BYTE   N06  Fs1  v127
 BYTE   N54  Cs2
 BYTE   N06  Cn1
 BYTE   W06
 BYTE   N11  Bn2
 BYTE   W06
 BYTE   N06  Fs1
 BYTE   W06
 BYTE   N11  Bn2
 BYTE   N06  Ds5
 BYTE   W06
 BYTE   En1
 BYTE   N06  Fs1
 BYTE   N06  Cn1
 BYTE   W06
 BYTE   N11  Bn2
 BYTE   W06
 BYTE   N06  Fs1
 BYTE   W06
 BYTE   N11  Bn2
 BYTE   N06  Ds5
 BYTE   W06
 BYTE   En1
 BYTE   N06  Fs1
 BYTE   W06
 BYTE   N11  Bn2
 BYTE   W05
 BYTE   N06  Ds5
 BYTE   W01
 BYTE   En1
 BYTE   N06  Fs1
 BYTE   W06
 BYTE   N11  Bn2
 BYTE   W06
 BYTE   N06  Fs1
 BYTE   W06
 BYTE   N11  Bn2
 BYTE   W06
 BYTE   N06  En1
 BYTE   N06  Fs1
 BYTE   W06
 BYTE   N11  Bn2
 BYTE   W06
//  #06 //041   ----------------------------------------
 BYTE   N06  Fs1
 BYTE   W06
 BYTE   N11  Bn2
 BYTE   W06
 BYTE   N06  Fs1
 BYTE   W06
 BYTE   Ds5
 BYTE   N11  Bn2
 BYTE   W06
 BYTE   N06  Fs1
 BYTE   N06  Cn1
 BYTE   N06  En1
 BYTE   W06
 BYTE   N11  Bn2
 BYTE   W06
 BYTE   N06  Fs1
 BYTE   W06
 BYTE   Ds5
 BYTE   N11  Bn2
 BYTE   W06
 BYTE   N06  Fs1
 BYTE   N06  En1
 BYTE   W06
 BYTE   N11  Bn2
 BYTE   W05
 BYTE   N06  Ds5
 BYTE   W01
 BYTE   Fs1
 BYTE   N06  En1
 BYTE   W06
 BYTE   N11  Bn2
 BYTE   W06
 BYTE   N06  Fs1
 BYTE   W06
 BYTE   N11  Bn2
 BYTE   W06
 BYTE   N06  Fs1
 BYTE   N06  En1
 BYTE   W06
 BYTE   N11  Bn2
 BYTE   W06
//  #06 //042   ----------------------------------------
Label_010262BA:
 BYTE   N06  Cn1  v127
 BYTE   N06  Fs1
 BYTE   N36  Ds2
 BYTE   N36  Cs2
 BYTE   N06  Ds5
 BYTE   W96
 BYTE   PEND 
//  #06 //043   ----------------------------------------
Label_010262C7:
 BYTE   N06  Ds5  v127
 BYTE   N36  Cs2
 BYTE   N36  Ds2
 BYTE   N06  Fs1
 BYTE   N06  Cn1
 BYTE   W96
 BYTE   PEND 
//  #06 //044   ----------------------------------------
 BYTE   PATT
  POIN2 Label_010262BA
//  #06 //045   ----------------------------------------
 BYTE   PATT
  POIN2 Label_010262C7
//  #06 //046   ----------------------------------------
 BYTE   GoTo
  POIN2 Label_01025B92
 BYTE   FINE

//**************** Track 7 (Midi-Chn.6) ****************//

StreetFighter33rdStrikeChinaVOXChunliTak_007:
//  #07 //000   ----------------------------------------
 BYTE   KEYSH   StreetFighter33rdStrikeChinaVOXChunliTak_key+0
Label_010040BE:
 BYTE   VOICE   31
 BYTE   VOL   72*StreetFighter33rdStrikeChinaVOXChunliTak_mvl/mxv
 BYTE   BENDR  12
 BYTE   W96
//  #07 //001   ----------------------------------------
 BYTE   W96
//  #07 //002   ----------------------------------------
 BYTE   W96
//  #07 //003   ----------------------------------------
 BYTE   W96
//  #07 //004   ----------------------------------------
 BYTE   W96
//  #07 //005   ----------------------------------------
 BYTE   W96
//  #07 //006   ----------------------------------------
 BYTE   W96
//  #07 //007   ----------------------------------------
 BYTE   W96
//  #07 //008   ----------------------------------------
 BYTE   W96
//  #07 //009   ----------------------------------------
 BYTE   W96
//  #07 //010   ----------------------------------------
 BYTE   W96
//  #07 //011   ----------------------------------------
 BYTE   W96
//  #07 //012   ----------------------------------------
 BYTE   W96
//  #07 //013   ----------------------------------------
 BYTE   W96
//  #07 //014   ----------------------------------------
 BYTE   W96
//  #07 //015   ----------------------------------------
 BYTE   W96
//  #07 //016   ----------------------------------------
 BYTE   W96
//  #07 //017   ----------------------------------------
 BYTE   W96
//  #07 //018   ----------------------------------------
 BYTE   W96
//  #07 //019   ----------------------------------------
 BYTE   W96
//  #07 //020   ----------------------------------------
 BYTE   W96
//  #07 //021   ----------------------------------------
 BYTE   W96
//  #07 //022   ----------------------------------------
 BYTE   W96
//  #07 //023   ----------------------------------------
 BYTE   W96
//  #07 //024   ----------------------------------------
 BYTE   W96
//  #07 //025   ----------------------------------------
 BYTE   W96
//  #07 //026   ----------------------------------------
 BYTE   W96
//  #07 //027   ----------------------------------------
 BYTE   W96
//  #07 //028   ----------------------------------------
 BYTE   W96
//  #07 //029   ----------------------------------------
 BYTE   W96
//  #07 //030   ----------------------------------------
 BYTE   W96
//  #07 //031   ----------------------------------------
 BYTE   W96
//  #07 //032   ----------------------------------------
 BYTE   W96
//  #07 //033   ----------------------------------------
 BYTE   W96
//  #07 //034   ----------------------------------------
 BYTE   W96
//  #07 //035   ----------------------------------------
 BYTE   W96
//  #07 //036   ----------------------------------------
 BYTE   W96
//  #07 //037   ----------------------------------------
 BYTE   W96
//  #07 //038   ----------------------------------------
 BYTE   W96
//  #07 //039   ----------------------------------------
 BYTE   W96
//  #07 //040   ----------------------------------------
 BYTE   W96
//  #07 //041   ----------------------------------------
 BYTE   W96
//  #07 //042   ----------------------------------------
Label_010040EE:
 BYTE   W36
 BYTE   N72  Cn3  v127
 BYTE   W60
 BYTE   PEND 
//  #07 //043   ----------------------------------------
 BYTE   PATT
  POIN2 Label_010040EE
//  #07 //044   ----------------------------------------
 BYTE   PATT
  POIN2 Label_010040EE
//  #07 //045   ----------------------------------------
 BYTE   W36
 BYTE   N60  Cn3  v127
 BYTE   W60
//  #07 //046   ----------------------------------------
 BYTE   GoTo
  POIN2 Label_010040BE
 BYTE   FINE

//******************************************************//
	ALIGN 4

StreetFighter33rdStrikeChinaVOXChunliTak:
	BYTE	7	// NumTrks
	BYTE	0	// NumBlks
	BYTE	StreetFighter33rdStrikeChinaVOXChunliTak_pri	// Priority
	BYTE	StreetFighter33rdStrikeChinaVOXChunliTak_rev	// Reverb.
    
	POIN2	StreetFighter33rdStrikeChinaVOXChunliTak_grp
    
	POIN2	StreetFighter33rdStrikeChinaVOXChunliTak_001
	POIN2	StreetFighter33rdStrikeChinaVOXChunliTak_002
	POIN2	StreetFighter33rdStrikeChinaVOXChunliTak_003
	POIN2	StreetFighter33rdStrikeChinaVOXChunliTak_004
	POIN2	StreetFighter33rdStrikeChinaVOXChunliTak_005
	POIN2	StreetFighter33rdStrikeChinaVOXChunliTak_006
	POIN2	StreetFighter33rdStrikeChinaVOXChunliTak_007

	
