//Event file generated from Sappy .s format.
	#include "MPlayDef.event"

	#define	EtrianOdyssey3TheFirstCampaignThegis_grp  voicegroup000
	#define	EtrianOdyssey3TheFirstCampaignThegis_pri  0
	#define	EtrianOdyssey3TheFirstCampaignThegis_rev  0
	#define	EtrianOdyssey3TheFirstCampaignThegis_mvl  127
	#define	EtrianOdyssey3TheFirstCampaignThegis_key  0
	#define	EtrianOdyssey3TheFirstCampaignThegis_tbs  1
	#define	EtrianOdyssey3TheFirstCampaignThegis_exg  0
	#define	EtrianOdyssey3TheFirstCampaignThegis_cmp  1

	// .rodata
	//	EtrianOdyssey3TheFirstCampaignThegis
	ALIGN 4


//**************** Track 1 (Midi-Chn.0) ****************//

EtrianOdyssey3TheFirstCampaignThegis_001:
// 000   ----------------------------------------
 BYTE   KEYSH   EtrianOdyssey3TheFirstCampaignThegis_key+0
Label_0_010087CA:
 BYTE   TEMPO   184*EtrianOdyssey3TheFirstCampaignThegis_tbs/2
 BYTE   VOICE   123
 BYTE   VOL   60*EtrianOdyssey3TheFirstCampaignThegis_mvl/mxv
 BYTE   PAN   c_v+0
 BYTE   N05  Cn1  v127
 BYTE   N05  Dn1
 BYTE   N92  Cs2
 BYTE   W12
 BYTE   N05  Dn1  v084
 BYTE   W06
 BYTE   Dn1  v072
 BYTE   W06
 BYTE   Dn1  v088
 BYTE   W06
 BYTE   Dn1  v072
 BYTE   W06
 BYTE   Cn1  v127
 BYTE   N05  Dn1  v124
 BYTE   W12
 BYTE   Dn1  v072
 BYTE   W06
 BYTE   Dn1  v080
 BYTE   W06
 BYTE   Dn1  v072
 BYTE   W06
 BYTE   Dn1  v068
 BYTE   W06
 BYTE   Cn1  v127
 BYTE   N05  Dn1
 BYTE   W12
 BYTE   Dn1  v068
 BYTE   W06
 BYTE   N05
 BYTE   W06
// 001   ----------------------------------------
 BYTE   Cn1  v127
 BYTE   N05  Dn1  v108
 BYTE   W06
 BYTE   Dn1  v056
 BYTE   W06
 BYTE   Dn1  v127
 BYTE   W12
 BYTE   Cn1
 BYTE   N05  Dn1  v072
 BYTE   W06
 BYTE   N05
 BYTE   W06
 BYTE   Dn1  v076
 BYTE   W06
 BYTE   Dn1  v068
 BYTE   W06
 BYTE   Cn1  v127
 BYTE   N05  Dn1
 BYTE   W06
 BYTE   Dn1  v072
 BYTE   W06
 BYTE   Cn1  v127
 BYTE   N05  Dn1  v076
 BYTE   W06
 BYTE   Dn1  v068
 BYTE   W06
 BYTE   Dn1  v127
 BYTE   W06
 BYTE   Cn1
 BYTE   W06
 BYTE   Dn1  v088
 BYTE   W06
 BYTE   Dn1  v076
 BYTE   W06
// 002   ----------------------------------------
 BYTE   Cn1  v127
 BYTE   N05  Dn1
 BYTE   W12
 BYTE   Dn1  v084
 BYTE   W06
 BYTE   Dn1  v072
 BYTE   W06
 BYTE   Dn1  v088
 BYTE   W06
 BYTE   Dn1  v072
 BYTE   W06
 BYTE   Cn1  v127
 BYTE   N05  Dn1  v124
 BYTE   W12
 BYTE   Dn1  v072
 BYTE   W06
 BYTE   Dn1  v080
 BYTE   W06
 BYTE   Dn1  v072
 BYTE   W06
 BYTE   Dn1  v068
 BYTE   W06
 BYTE   Cn1  v127
 BYTE   N05  Dn1
 BYTE   W12
 BYTE   Dn1  v068
 BYTE   W06
 BYTE   N05
 BYTE   W06
// 003   ----------------------------------------
 BYTE   Cn1  v127
 BYTE   N05  Dn1  v108
 BYTE   W06
 BYTE   Dn1  v056
 BYTE   W06
 BYTE   Dn1  v127
 BYTE   W12
 BYTE   Cn1
 BYTE   N05  Dn1  v076
 BYTE   W06
 BYTE   N05
 BYTE   W06
 BYTE   N05
 BYTE   W06
 BYTE   Dn1  v068
 BYTE   W06
 BYTE   Cn1  v127
 BYTE   N05  Dn1  v120
 BYTE   W06
 BYTE   Dn1  v072
 BYTE   W06
 BYTE   Cn1  v127
 BYTE   N05  Dn1  v076
 BYTE   W06
 BYTE   Dn1  v068
 BYTE   W06
 BYTE   Dn1  v127
 BYTE   W06
 BYTE   Cn1
 BYTE   W06
 BYTE   Dn1  v076
 BYTE   W06
 BYTE   Dn1  v068
 BYTE   W06
// 004   ----------------------------------------
 BYTE   Cn1  v127
 BYTE   N92  Cs2
 BYTE   W12
 BYTE   N05  Dn1  v084
 BYTE   W06
 BYTE   Dn1  v068
 BYTE   W06
 BYTE   Dn1  v088
 BYTE   W06
 BYTE   Dn1  v068
 BYTE   W06
 BYTE   Cn1  v127
 BYTE   N05  Dn1  v124
 BYTE   W12
 BYTE   Dn1  v072
 BYTE   W06
 BYTE   Cn1  v127
 BYTE   N05  Dn1  v080
 BYTE   W06
 BYTE   Dn1  v068
 BYTE   W06
 BYTE   N05
 BYTE   W06
 BYTE   Cn1  v127
 BYTE   N05  Dn1
 BYTE   W12
 BYTE   Dn1  v064
 BYTE   W06
 BYTE   Dn1  v068
 BYTE   W06
// 005   ----------------------------------------
 BYTE   Cn1  v127
 BYTE   N92  Cs2
 BYTE   N92  An2
 BYTE   W24
 BYTE   N17  As1
 BYTE   W24
 BYTE   N17
 BYTE   W12
 BYTE   N05  Cn1
 BYTE   W12
 BYTE   Dn1
 BYTE   N17  Fs1
 BYTE   N05  Gn1
 BYTE   N17  As1
 BYTE   W24
// 006   ----------------------------------------
Label_0_010088E2:
 BYTE   N05  Cn1  v127
 BYTE   N05  Fs1  v116
 BYTE   N92  Cs2  v127
 BYTE   W06
 BYTE   N05  Dn1  v048
 BYTE   W06
 BYTE   Fs1  v080
 BYTE   W12
 BYTE   Dn1  v127
 BYTE   N05  Fs1
 BYTE   W06
 BYTE   Dn1  v060
 BYTE   W06
 BYTE   Fs1  v092
 BYTE   W06
 BYTE   Cn1
 BYTE   W06
 BYTE   Cn1  v127
 BYTE   N05  Fs1
 BYTE   W06
 BYTE   Dn1  v048
 BYTE   W06
 BYTE   Cn1  v127
 BYTE   N05  Fs1  v100
 BYTE   W12
 BYTE   Dn1  v127
 BYTE   N05  Fs1
 BYTE   W06
 BYTE   Dn1  v060
 BYTE   W06
 BYTE   Fs1  v088
 BYTE   W06
 BYTE   Dn1  v060
 BYTE   W06
 BYTE   PEND 
// 007   ----------------------------------------
Label_0_0100891D:
 BYTE   N05  Cn1  v127
 BYTE   N05  Fs1
 BYTE   W06
 BYTE   Dn1  v048
 BYTE   W06
 BYTE   Dn1  v052
 BYTE   N05  Fs1  v084
 BYTE   W12
 BYTE   Dn1  v127
 BYTE   N05  Fs1
 BYTE   W06
 BYTE   Dn1  v060
 BYTE   W06
 BYTE   Cn1  v127
 BYTE   N05  Fs1  v084
 BYTE   W06
 BYTE   Dn1  v052
 BYTE   W06
 BYTE   Fs1  v127
 BYTE   W06
 BYTE   Cn1  v100
 BYTE   W06
 BYTE   Cn1  v127
 BYTE   N05  Fs1  v084
 BYTE   W12
 BYTE   Dn1  v127
 BYTE   N05  Fs1
 BYTE   W06
 BYTE   Dn1  v064
 BYTE   W06
 BYTE   As1  v124
 BYTE   W06
 BYTE   Dn1  v048
 BYTE   W06
 BYTE   PEND 
// 008   ----------------------------------------
Label_0_01008958:
 BYTE   N05  Cn1  v127
 BYTE   N05  Fs1  v116
 BYTE   W06
 BYTE   Dn1  v048
 BYTE   W06
 BYTE   Fs1  v080
 BYTE   W12
 BYTE   Dn1  v127
 BYTE   N05  Fs1
 BYTE   W06
 BYTE   Dn1  v060
 BYTE   W06
 BYTE   Fs1  v092
 BYTE   W06
 BYTE   Cn1
 BYTE   W06
 BYTE   Cn1  v127
 BYTE   N05  Fs1
 BYTE   W06
 BYTE   Dn1  v048
 BYTE   W06
 BYTE   Cn1  v127
 BYTE   N05  Fs1  v100
 BYTE   W12
 BYTE   Dn1  v127
 BYTE   N05  Fs1
 BYTE   W06
 BYTE   Dn1  v060
 BYTE   W06
 BYTE   Fs1  v088
 BYTE   W06
 BYTE   Dn1  v060
 BYTE   W06
 BYTE   PEND 
// 009   ----------------------------------------
 BYTE   PATT
  POIN2 Label_0_0100891D
// 010   ----------------------------------------
 BYTE   PATT
  POIN2 Label_0_01008958
// 011   ----------------------------------------
 BYTE   PATT
  POIN2 Label_0_0100891D
// 012   ----------------------------------------
 BYTE   PATT
  POIN2 Label_0_01008958
// 013   ----------------------------------------
 BYTE   PATT
  POIN2 Label_0_0100891D
// 014   ----------------------------------------
 BYTE   PATT
  POIN2 Label_0_010088E2
// 015   ----------------------------------------
 BYTE   PATT
  POIN2 Label_0_0100891D
// 016   ----------------------------------------
 BYTE   PATT
  POIN2 Label_0_01008958
// 017   ----------------------------------------
 BYTE   PATT
  POIN2 Label_0_0100891D
// 018   ----------------------------------------
 BYTE   PATT
  POIN2 Label_0_01008958
// 019   ----------------------------------------
 BYTE   PATT
  POIN2 Label_0_0100891D
// 020   ----------------------------------------
 BYTE   PATT
  POIN2 Label_0_01008958
// 021   ----------------------------------------
 BYTE   PATT
  POIN2 Label_0_0100891D
// 022   ----------------------------------------
 BYTE   PATT
  POIN2 Label_0_010088E2
// 023   ----------------------------------------
 BYTE   PATT
  POIN2 Label_0_0100891D
// 024   ----------------------------------------
 BYTE   PATT
  POIN2 Label_0_01008958
// 025   ----------------------------------------
 BYTE   PATT
  POIN2 Label_0_0100891D
// 026   ----------------------------------------
 BYTE   PATT
  POIN2 Label_0_01008958
// 027   ----------------------------------------
 BYTE   PATT
  POIN2 Label_0_0100891D
// 028   ----------------------------------------
 BYTE   PATT
  POIN2 Label_0_01008958
// 029   ----------------------------------------
 BYTE   PATT
  POIN2 Label_0_0100891D
// 030   ----------------------------------------
 BYTE   PATT
  POIN2 Label_0_010088E2
// 031   ----------------------------------------
 BYTE   PATT
  POIN2 Label_0_0100891D
// 032   ----------------------------------------
 BYTE   PATT
  POIN2 Label_0_01008958
// 033   ----------------------------------------
 BYTE   PATT
  POIN2 Label_0_0100891D
// 034   ----------------------------------------
 BYTE   PATT
  POIN2 Label_0_010088E2
// 035   ----------------------------------------
 BYTE   PATT
  POIN2 Label_0_0100891D
// 036   ----------------------------------------
Label_0_01008A16:
 BYTE   N05  Cn1  v127
 BYTE   N05  Dn1
 BYTE   N68  Cs2
 BYTE   W12
 BYTE   N05  Dn1  v092
 BYTE   W06
 BYTE   Dn1  v080
 BYTE   W06
 BYTE   Dn1  v096
 BYTE   W06
 BYTE   Dn1  v080
 BYTE   W06
 BYTE   Cn1  v127
 BYTE   N05  Dn1  v124
 BYTE   W12
 BYTE   Cn1  v127
 BYTE   N05  Dn1  v080
 BYTE   W06
 BYTE   Dn1  v088
 BYTE   W06
 BYTE   Dn1  v080
 BYTE   W06
 BYTE   Dn1  v076
 BYTE   W06
 BYTE   Cn1  v127
 BYTE   N05  Dn1
 BYTE   W12
 BYTE   Cn1
 BYTE   N92  Cs2
 BYTE   N92  An2
 BYTE   W12
 BYTE   PEND 
// 037   ----------------------------------------
Label_0_01008A4C:
 BYTE   W24
 BYTE   N17  As1  v127
 BYTE   W24
 BYTE   N17
 BYTE   W12
 BYTE   N05  Cn1
 BYTE   W12
 BYTE   Dn1
 BYTE   N17  Fs1
 BYTE   N05  Gn1
 BYTE   W24
 BYTE   PEND 
// 038   ----------------------------------------
 BYTE   PATT
  POIN2 Label_0_010088E2
// 039   ----------------------------------------
 BYTE   PATT
  POIN2 Label_0_0100891D
// 040   ----------------------------------------
 BYTE   PATT
  POIN2 Label_0_01008958
// 041   ----------------------------------------
 BYTE   PATT
  POIN2 Label_0_0100891D
// 042   ----------------------------------------
 BYTE   PATT
  POIN2 Label_0_01008958
// 043   ----------------------------------------
 BYTE   PATT
  POIN2 Label_0_0100891D
// 044   ----------------------------------------
 BYTE   PATT
  POIN2 Label_0_01008958
// 045   ----------------------------------------
 BYTE   PATT
  POIN2 Label_0_0100891D
// 046   ----------------------------------------
 BYTE   PATT
  POIN2 Label_0_010088E2
// 047   ----------------------------------------
 BYTE   PATT
  POIN2 Label_0_0100891D
// 048   ----------------------------------------
 BYTE   PATT
  POIN2 Label_0_01008958
// 049   ----------------------------------------
 BYTE   PATT
  POIN2 Label_0_0100891D
// 050   ----------------------------------------
 BYTE   PATT
  POIN2 Label_0_01008958
// 051   ----------------------------------------
 BYTE   PATT
  POIN2 Label_0_0100891D
// 052   ----------------------------------------
 BYTE   PATT
  POIN2 Label_0_01008958
// 053   ----------------------------------------
 BYTE   PATT
  POIN2 Label_0_0100891D
// 054   ----------------------------------------
 BYTE   PATT
  POIN2 Label_0_010088E2
// 055   ----------------------------------------
 BYTE   PATT
  POIN2 Label_0_0100891D
// 056   ----------------------------------------
 BYTE   PATT
  POIN2 Label_0_01008958
// 057   ----------------------------------------
 BYTE   PATT
  POIN2 Label_0_0100891D
// 058   ----------------------------------------
 BYTE   PATT
  POIN2 Label_0_01008958
// 059   ----------------------------------------
 BYTE   PATT
  POIN2 Label_0_0100891D
// 060   ----------------------------------------
 BYTE   PATT
  POIN2 Label_0_01008958
// 061   ----------------------------------------
 BYTE   PATT
  POIN2 Label_0_0100891D
// 062   ----------------------------------------
 BYTE   PATT
  POIN2 Label_0_010088E2
// 063   ----------------------------------------
 BYTE   PATT
  POIN2 Label_0_0100891D
// 064   ----------------------------------------
 BYTE   PATT
  POIN2 Label_0_01008958
// 065   ----------------------------------------
 BYTE   PATT
  POIN2 Label_0_0100891D
// 066   ----------------------------------------
 BYTE   PATT
  POIN2 Label_0_010088E2
// 067   ----------------------------------------
 BYTE   PATT
  POIN2 Label_0_0100891D
// 068   ----------------------------------------
 BYTE   PATT
  POIN2 Label_0_01008A16
// 069   ----------------------------------------
 BYTE   PATT
  POIN2 Label_0_01008A4C
// 070   ----------------------------------------
 BYTE   PATT
  POIN2 Label_0_010088E2
// 071   ----------------------------------------
 BYTE   PATT
  POIN2 Label_0_0100891D
// 072   ----------------------------------------
 BYTE   PATT
  POIN2 Label_0_01008958
// 073   ----------------------------------------
 BYTE   PATT
  POIN2 Label_0_0100891D
// 074   ----------------------------------------
 BYTE   PATT
  POIN2 Label_0_01008958
// 075   ----------------------------------------
 BYTE   PATT
  POIN2 Label_0_0100891D
// 076   ----------------------------------------
 BYTE   PATT
  POIN2 Label_0_01008958
// 077   ----------------------------------------
 BYTE   PATT
  POIN2 Label_0_0100891D
// 078   ----------------------------------------
 BYTE   PATT
  POIN2 Label_0_010088E2
// 079   ----------------------------------------
 BYTE   PATT
  POIN2 Label_0_0100891D
// 080   ----------------------------------------
 BYTE   PATT
  POIN2 Label_0_01008958
// 081   ----------------------------------------
 BYTE   PATT
  POIN2 Label_0_0100891D
// 082   ----------------------------------------
 BYTE   PATT
  POIN2 Label_0_01008958
// 083   ----------------------------------------
 BYTE   PATT
  POIN2 Label_0_0100891D
// 084   ----------------------------------------
 BYTE   PATT
  POIN2 Label_0_01008958
// 085   ----------------------------------------
 BYTE   PATT
  POIN2 Label_0_0100891D
// 086   ----------------------------------------
 BYTE   PATT
  POIN2 Label_0_010088E2
// 087   ----------------------------------------
 BYTE   PATT
  POIN2 Label_0_0100891D
// 088   ----------------------------------------
 BYTE   PATT
  POIN2 Label_0_01008958
// 089   ----------------------------------------
 BYTE   PATT
  POIN2 Label_0_0100891D
// 090   ----------------------------------------
 BYTE   PATT
  POIN2 Label_0_01008958
// 091   ----------------------------------------
 BYTE   PATT
  POIN2 Label_0_0100891D
// 092   ----------------------------------------
 BYTE   PATT
  POIN2 Label_0_01008958
// 093   ----------------------------------------
 BYTE   PATT
  POIN2 Label_0_0100891D
// 094   ----------------------------------------
 BYTE   PATT
  POIN2 Label_0_010088E2
// 095   ----------------------------------------
 BYTE   PATT
  POIN2 Label_0_0100891D
// 096   ----------------------------------------
 BYTE   PATT
  POIN2 Label_0_01008958
// 097   ----------------------------------------
 BYTE   PATT
  POIN2 Label_0_0100891D
// 098   ----------------------------------------
 BYTE   PATT
  POIN2 Label_0_01008958
// 099   ----------------------------------------
 BYTE   PATT
  POIN2 Label_0_0100891D
// 100   ----------------------------------------
 BYTE   PATT
  POIN2 Label_0_01008958
// 101   ----------------------------------------
 BYTE   PATT
  POIN2 Label_0_0100891D
// 102   ----------------------------------------
Label_0_01008B9D:
 BYTE   N05  Cn1  v127
 BYTE   N05  Fs1
 BYTE   N92  Cs2
 BYTE   W12
 BYTE   N05  Fs1  v048
 BYTE   W12
 BYTE   Fs1  v127
 BYTE   W12
 BYTE   Fs1  v060
 BYTE   W12
 BYTE   Fs1  v127
 BYTE   W06
 BYTE   Fs1  v056
 BYTE   W06
 BYTE   Fs1  v048
 BYTE   W06
 BYTE   Fs1  v080
 BYTE   W06
 BYTE   Fs1  v127
 BYTE   W12
 BYTE   Fs1  v072
 BYTE   W12
 BYTE   PEND 
// 103   ----------------------------------------
Label_0_01008BC2:
 BYTE   N05  Cn1  v127
 BYTE   N05  Fs1
 BYTE   W12
 BYTE   Cn1
 BYTE   N05  Fs1  v052
 BYTE   W12
 BYTE   Fs1  v127
 BYTE   W12
 BYTE   Fs1  v052
 BYTE   W12
 BYTE   Fs1  v127
 BYTE   W12
 BYTE   Fs1  v052
 BYTE   W12
 BYTE   Dn1  v127
 BYTE   N05  Fs1
 BYTE   W12
 BYTE   Cn1  v116
 BYTE   W12
 BYTE   PEND 
// 104   ----------------------------------------
 BYTE   Cn1  v127
 BYTE   N05  Fs1
 BYTE   W12
 BYTE   Fs1  v048
 BYTE   W12
 BYTE   Fs1  v127
 BYTE   W12
 BYTE   Cn1
 BYTE   W12
 BYTE   Fs1
 BYTE   W12
 BYTE   Fs1  v052
 BYTE   W12
 BYTE   Fs1  v127
 BYTE   W12
 BYTE   Fs1  v052
 BYTE   W12
// 105   ----------------------------------------
 BYTE   Fs1  v127
 BYTE   W12
 BYTE   Fs1  v056
 BYTE   W12
 BYTE   Fs1  v127
 BYTE   W12
 BYTE   Fs1  v048
 BYTE   W12
 BYTE   Fs1  v127
 BYTE   W12
 BYTE   Fs1  v048
 BYTE   W12
 BYTE   Dn1  v127
 BYTE   N05  Fs1
 BYTE   W12
 BYTE   Cn1  v124
 BYTE   N05  Fs1  v048
 BYTE   W12
// 106   ----------------------------------------
 BYTE   PATT
  POIN2 Label_0_01008B9D
// 107   ----------------------------------------
 BYTE   PATT
  POIN2 Label_0_01008BC2
// 108   ----------------------------------------
 BYTE   N05  Cn1  v127
 BYTE   N05  Cn2
 BYTE   W06
 BYTE   Dn1  v072
 BYTE   W06
 BYTE   Dn1  v080
 BYTE   W06
 BYTE   Dn1  v127
 BYTE   W06
 BYTE   N05
 BYTE   W12
 BYTE   Cn2
 BYTE   W06
 BYTE   Dn1  v076
 BYTE   W06
 BYTE   Dn1  v088
 BYTE   W06
 BYTE   Dn1  v127
 BYTE   W06
 BYTE   N05
 BYTE   W12
 BYTE   Cn2
 BYTE   W06
 BYTE   Dn1  v068
 BYTE   W06
 BYTE   Dn1  v064
 BYTE   W06
 BYTE   Dn1  v116
 BYTE   W06
// 109   ----------------------------------------
 BYTE   Dn1  v127
 BYTE   W12
 BYTE   N05
 BYTE   W12
 BYTE   Dn1  v124
 BYTE   W06
 BYTE   Dn1  v084
 BYTE   W06
 BYTE   Dn1  v127
 BYTE   W12
 BYTE   N05
 BYTE   W12
 BYTE   Dn1  v096
 BYTE   W06
 BYTE   Dn1  v084
 BYTE   W06
 BYTE   Dn1  v127
 BYTE   W06
 BYTE   N05
 BYTE   W06
 BYTE   Dn1  v112
 BYTE   W06
 BYTE   Dn1  v092
 BYTE   W06
// 110   ----------------------------------------
 BYTE   GoTo
  POIN2 Label_0_010087CA
// 111   ----------------------------------------
 BYTE   VOL   60*EtrianOdyssey3TheFirstCampaignThegis_mvl/mxv
 BYTE   PAN   c_v+0
 BYTE   W04
 BYTE   FINE

//**************** Track 2 (Midi-Chn.1) ****************//

EtrianOdyssey3TheFirstCampaignThegis_002:
// 000   ----------------------------------------
 BYTE   KEYSH   EtrianOdyssey3TheFirstCampaignThegis_key+0
Label_1_01005592:
 BYTE   VOICE   30
 BYTE   VOL   40*EtrianOdyssey3TheFirstCampaignThegis_mvl/mxv
 BYTE   PAN   c_v+0
 BYTE   N07  En3  v092
 BYTE   W06
 BYTE   Dn3
 BYTE   W06
 BYTE   Cn3
 BYTE   W06
 BYTE   An2
 BYTE   W06
 BYTE   En3
 BYTE   W06
 BYTE   Dn3
 BYTE   W06
 BYTE   Cn3
 BYTE   W06
 BYTE   An2
 BYTE   W06
 BYTE   En3
 BYTE   W06
 BYTE   Dn3
 BYTE   W06
 BYTE   Cn3
 BYTE   W06
 BYTE   An2
 BYTE   W06
 BYTE   En3
 BYTE   W06
 BYTE   Dn3
 BYTE   W06
 BYTE   Cn3
 BYTE   W06
 BYTE   An2
 BYTE   W06
// 001   ----------------------------------------
 BYTE   En3
 BYTE   W06
 BYTE   Dn3
 BYTE   W06
 BYTE   Cn3
 BYTE   W06
 BYTE   An2
 BYTE   W06
 BYTE   En3
 BYTE   W06
 BYTE   Dn3
 BYTE   W06
 BYTE   Cn3
 BYTE   W06
 BYTE   An2
 BYTE   W06
 BYTE   En3
 BYTE   W06
 BYTE   Dn3
 BYTE   W06
 BYTE   Cn3
 BYTE   W06
 BYTE   An2
 BYTE   W06
 BYTE   En3
 BYTE   W06
 BYTE   Dn3
 BYTE   W06
 BYTE   Cn3
 BYTE   W06
 BYTE   N05  An2
 BYTE   W06
// 002   ----------------------------------------
 BYTE   N07  An3
 BYTE   W06
 BYTE   Gn3
 BYTE   W06
 BYTE   Fn3
 BYTE   W06
 BYTE   Dn3
 BYTE   W06
 BYTE   An3
 BYTE   W06
 BYTE   Gn3
 BYTE   W06
 BYTE   Fn3
 BYTE   W06
 BYTE   Dn3
 BYTE   W06
 BYTE   An3
 BYTE   W06
 BYTE   Gn3
 BYTE   W06
 BYTE   Fn3
 BYTE   W06
 BYTE   Dn3
 BYTE   W06
 BYTE   An3
 BYTE   W06
 BYTE   Gn3
 BYTE   W06
 BYTE   Fn3
 BYTE   W06
 BYTE   Dn3
 BYTE   W06
// 003   ----------------------------------------
 BYTE   An3
 BYTE   W06
 BYTE   Gn3
 BYTE   W06
 BYTE   Fn3
 BYTE   W06
 BYTE   Dn3
 BYTE   W06
 BYTE   An3
 BYTE   W06
 BYTE   Gn3
 BYTE   W06
 BYTE   Fn3
 BYTE   W06
 BYTE   Dn3
 BYTE   W06
 BYTE   An3
 BYTE   W06
 BYTE   Gn3
 BYTE   W06
 BYTE   Fn3
 BYTE   W06
 BYTE   Dn3
 BYTE   W06
 BYTE   An3
 BYTE   W06
 BYTE   Gn3
 BYTE   W06
 BYTE   Fn3
 BYTE   W06
 BYTE   N05  Dn3
 BYTE   W06
// 004   ----------------------------------------
 BYTE   N07  Cn4
 BYTE   W06
 BYTE   Bn3
 BYTE   W06
 BYTE   An3
 BYTE   W06
 BYTE   N05  Gn3
 BYTE   W06
 BYTE   N07  Fn3
 BYTE   W06
 BYTE   En3
 BYTE   W06
 BYTE   Bn3
 BYTE   W06
 BYTE   N05  An3
 BYTE   W06
 BYTE   N07  Gn3
 BYTE   W06
 BYTE   Fn3
 BYTE   W06
 BYTE   En3
 BYTE   W06
 BYTE   N05  Dn3
 BYTE   W06
 BYTE   N07  Bn2
 BYTE   W06
 BYTE   Dn3
 BYTE   W06
 BYTE   Gn3
 BYTE   W06
 BYTE   Bn3
 BYTE   W06
// 005   ----------------------------------------
 BYTE   N68  Dn4
 BYTE   W88
 BYTE   W01
 BYTE   VOL   40*EtrianOdyssey3TheFirstCampaignThegis_mvl/mxv
 BYTE   PAN   c_v+0
 BYTE   W07
// 006   ----------------------------------------
 BYTE   W96
// 007   ----------------------------------------
 BYTE   W96
// 008   ----------------------------------------
 BYTE   W96
// 009   ----------------------------------------
 BYTE   W96
// 010   ----------------------------------------
 BYTE   W96
// 011   ----------------------------------------
 BYTE   W96
// 012   ----------------------------------------
 BYTE   W96
// 013   ----------------------------------------
 BYTE   W96
// 014   ----------------------------------------
 BYTE   W96
// 015   ----------------------------------------
 BYTE   W96
// 016   ----------------------------------------
 BYTE   W96
// 017   ----------------------------------------
 BYTE   W96
// 018   ----------------------------------------
 BYTE   W96
// 019   ----------------------------------------
 BYTE   W96
// 020   ----------------------------------------
 BYTE   W96
// 021   ----------------------------------------
 BYTE   W96
// 022   ----------------------------------------
 BYTE   W96
// 023   ----------------------------------------
 BYTE   W96
// 024   ----------------------------------------
 BYTE   W96
// 025   ----------------------------------------
 BYTE   W96
// 026   ----------------------------------------
 BYTE   W96
// 027   ----------------------------------------
 BYTE   W96
// 028   ----------------------------------------
 BYTE   W96
// 029   ----------------------------------------
 BYTE   W96
// 030   ----------------------------------------
 BYTE   W96
// 031   ----------------------------------------
 BYTE   W96
// 032   ----------------------------------------
 BYTE   W96
// 033   ----------------------------------------
 BYTE   W96
// 034   ----------------------------------------
 BYTE   W96
// 035   ----------------------------------------
 BYTE   W96
// 036   ----------------------------------------
 BYTE   W96
// 037   ----------------------------------------
 BYTE   W96
// 038   ----------------------------------------
 BYTE   W96
// 039   ----------------------------------------
 BYTE   W96
// 040   ----------------------------------------
 BYTE   W96
// 041   ----------------------------------------
 BYTE   W96
// 042   ----------------------------------------
 BYTE   W96
// 043   ----------------------------------------
 BYTE   W96
// 044   ----------------------------------------
 BYTE   W96
// 045   ----------------------------------------
 BYTE   W96
// 046   ----------------------------------------
 BYTE   W96
// 047   ----------------------------------------
 BYTE   W96
// 048   ----------------------------------------
 BYTE   W96
// 049   ----------------------------------------
 BYTE   W96
// 050   ----------------------------------------
 BYTE   W96
// 051   ----------------------------------------
 BYTE   W96
// 052   ----------------------------------------
 BYTE   W96
// 053   ----------------------------------------
 BYTE   W96
// 054   ----------------------------------------
 BYTE   W96
// 055   ----------------------------------------
 BYTE   W96
// 056   ----------------------------------------
 BYTE   W96
// 057   ----------------------------------------
 BYTE   W96
// 058   ----------------------------------------
 BYTE   W96
// 059   ----------------------------------------
 BYTE   W96
// 060   ----------------------------------------
 BYTE   W96
// 061   ----------------------------------------
 BYTE   W96
// 062   ----------------------------------------
 BYTE   W96
// 063   ----------------------------------------
 BYTE   W96
// 064   ----------------------------------------
 BYTE   W96
// 065   ----------------------------------------
 BYTE   W96
// 066   ----------------------------------------
 BYTE   W96
// 067   ----------------------------------------
 BYTE   W96
// 068   ----------------------------------------
 BYTE   W96
// 069   ----------------------------------------
 BYTE   W96
// 070   ----------------------------------------
 BYTE   W96
// 071   ----------------------------------------
 BYTE   W96
// 072   ----------------------------------------
 BYTE   W96
// 073   ----------------------------------------
 BYTE   W96
// 074   ----------------------------------------
 BYTE   W96
// 075   ----------------------------------------
 BYTE   W96
// 076   ----------------------------------------
 BYTE   W96
// 077   ----------------------------------------
 BYTE   W96
// 078   ----------------------------------------
 BYTE   W96
// 079   ----------------------------------------
 BYTE   W96
// 080   ----------------------------------------
 BYTE   W96
// 081   ----------------------------------------
 BYTE   W96
// 082   ----------------------------------------
 BYTE   W96
// 083   ----------------------------------------
 BYTE   W96
// 084   ----------------------------------------
 BYTE   W96
// 085   ----------------------------------------
 BYTE   W96
// 086   ----------------------------------------
 BYTE   W96
// 087   ----------------------------------------
 BYTE   W96
// 088   ----------------------------------------
 BYTE   W96
// 089   ----------------------------------------
 BYTE   W96
// 090   ----------------------------------------
 BYTE   W96
// 091   ----------------------------------------
 BYTE   W96
// 092   ----------------------------------------
 BYTE   W96
// 093   ----------------------------------------
 BYTE   W96
// 094   ----------------------------------------
 BYTE   W96
// 095   ----------------------------------------
 BYTE   W96
// 096   ----------------------------------------
 BYTE   W96
// 097   ----------------------------------------
 BYTE   W96
// 098   ----------------------------------------
 BYTE   W96
// 099   ----------------------------------------
 BYTE   W96
// 100   ----------------------------------------
 BYTE   W96
// 101   ----------------------------------------
 BYTE   W96
// 102   ----------------------------------------
 BYTE   W96
// 103   ----------------------------------------
 BYTE   W96
// 104   ----------------------------------------
 BYTE   W96
// 105   ----------------------------------------
 BYTE   W96
// 106   ----------------------------------------
 BYTE   W96
// 107   ----------------------------------------
 BYTE   W96
// 108   ----------------------------------------
 BYTE   W96
// 109   ----------------------------------------
 BYTE   W96
// 110   ----------------------------------------
 BYTE   GoTo
  POIN2 Label_1_01005592
// 111   ----------------------------------------
 BYTE   W04
 BYTE   FINE

//**************** Track 3 (Midi-Chn.2) ****************//

EtrianOdyssey3TheFirstCampaignThegis_003:
// 000   ----------------------------------------
 BYTE   KEYSH   EtrianOdyssey3TheFirstCampaignThegis_key+0
Label_2_010091B6:
 BYTE   VOICE   62
 BYTE   VOL   48*EtrianOdyssey3TheFirstCampaignThegis_mvl/mxv
 BYTE   PAN   c_v+0
 BYTE   N10  Dn4  v092
 BYTE   N12  Fn4  v100
 BYTE   W12
 BYTE   N08  As3  v076
 BYTE   N06  Dn4  v084
 BYTE   W12
 BYTE   N04  Cn4  v076
 BYTE   N03  En4  v084
 BYTE   W12
 BYTE   N10  Dn4  v092
 BYTE   N12  Fn4  v100
 BYTE   W12
 BYTE   N08  Cn4  v076
 BYTE   N06  En4  v084
 BYTE   W12
 BYTE   N04  As3  v076
 BYTE   N03  Dn4  v084
 BYTE   W12
 BYTE   N10  Dn4  v092
 BYTE   N12  Fn4  v100
 BYTE   W12
 BYTE   N08  As3  v076
 BYTE   N06  Dn4  v084
 BYTE   W12
// 001   ----------------------------------------
 BYTE   N04  Cn4  v076
 BYTE   N03  En4  v084
 BYTE   W12
 BYTE   N10  En4  v092
 BYTE   N12  Gn4  v100
 BYTE   W12
 BYTE   N08  Dn4  v076
 BYTE   N06  Fn4  v084
 BYTE   W12
 BYTE   N04  Cn4  v076
 BYTE   N03  En4  v084
 BYTE   W12
 BYTE   N10  Dn4  v092
 BYTE   N12  Fn4  v100
 BYTE   W12
 BYTE   N08  Cn4  v076
 BYTE   N06  En4  v084
 BYTE   W12
 BYTE   N04  As3  v076
 BYTE   N03  Dn4  v084
 BYTE   W12
 BYTE   N04  An3  v076
 BYTE   N03  Cn4  v084
 BYTE   W12
// 002   ----------------------------------------
 BYTE   N10  Fn4  v092
 BYTE   N12  An4  v100
 BYTE   W12
 BYTE   N08  Dn4  v076
 BYTE   N06  Fn4  v084
 BYTE   W12
 BYTE   N04  En4  v076
 BYTE   N03  Gn4  v084
 BYTE   W12
 BYTE   N10  Fn4  v092
 BYTE   N12  An4  v100
 BYTE   W12
 BYTE   N08  En4  v076
 BYTE   N06  Gn4  v084
 BYTE   W12
 BYTE   N04  Dn4  v076
 BYTE   N03  Fn4  v084
 BYTE   W12
 BYTE   N10  Fn4  v092
 BYTE   N12  An4  v100
 BYTE   W12
 BYTE   N08  Dn4  v076
 BYTE   N06  Fn4  v084
 BYTE   W12
// 003   ----------------------------------------
 BYTE   N04  En4  v076
 BYTE   N03  Gn4  v084
 BYTE   W12
 BYTE   N10  Gn4  v092
 BYTE   N12  As4  v100
 BYTE   W12
 BYTE   N08  Fn4  v076
 BYTE   N06  An4  v084
 BYTE   W12
 BYTE   N04  En4  v076
 BYTE   N03  Gn4  v084
 BYTE   W12
 BYTE   N10  Fn4  v092
 BYTE   N12  An4  v100
 BYTE   W12
 BYTE   N08  En4  v076
 BYTE   N06  Gn4  v084
 BYTE   W12
 BYTE   N04  Dn4  v076
 BYTE   N03  Fn4  v084
 BYTE   W12
 BYTE   N04  Cn4  v076
 BYTE   N03  En4  v084
 BYTE   W12
// 004   ----------------------------------------
 BYTE   N30  An4  v088
 BYTE   N28  Cn5
 BYTE   W36
 BYTE   N24  Gn4  v084
 BYTE   N32  Bn4
 BYTE   W36
 BYTE   N07  En4
 BYTE   N07  Gn4
 BYTE   W24
// 005   ----------------------------------------
 BYTE   N76  As3  v088
 BYTE   N76  Dn4  v092
 BYTE   W96
// 006   ----------------------------------------
Label_2_010092B4:
 BYTE   N10  Dn4  v080
 BYTE   N12  Fn4  v092
 BYTE   W12
 BYTE   N08  Cn4  v068
 BYTE   N06  En4  v076
 BYTE   W12
 BYTE   N04  An3  v068
 BYTE   N03  Cn4  v072
 BYTE   W12
 BYTE   N10  Cn4  v080
 BYTE   N12  En4  v092
 BYTE   W12
 BYTE   N08  An3  v068
 BYTE   N06  Dn4  v076
 BYTE   W12
 BYTE   N04  Gn3  v068
 BYTE   N03  Cn4  v072
 BYTE   W12
 BYTE   N10  Dn4  v080
 BYTE   N12  Fn4  v092
 BYTE   W12
 BYTE   N08  Cn4  v068
 BYTE   N06  En4  v076
 BYTE   W12
 BYTE   PEND 
// 007   ----------------------------------------
Label_2_010092ED:
 BYTE   N04  An3  v068
 BYTE   N03  Cn4  v072
 BYTE   W12
 BYTE   N10  En4  v080
 BYTE   N12  Gn4  v092
 BYTE   W12
 BYTE   N08  Dn4  v068
 BYTE   N06  Fn4  v076
 BYTE   W12
 BYTE   N04  Cn4  v068
 BYTE   N03  En4  v072
 BYTE   W12
 BYTE   N10  Dn4  v080
 BYTE   N12  Fn4  v092
 BYTE   W12
 BYTE   N08  Cn4  v068
 BYTE   N06  En4  v076
 BYTE   W12
 BYTE   N04  As3  v068
 BYTE   N03  Dn4  v072
 BYTE   W12
 BYTE   N04  An3  v068
 BYTE   N03  Cn4  v072
 BYTE   W12
 BYTE   PEND 
// 008   ----------------------------------------
 BYTE   PATT
  POIN2 Label_2_010092B4
// 009   ----------------------------------------
 BYTE   PATT
  POIN2 Label_2_010092ED
// 010   ----------------------------------------
 BYTE   PATT
  POIN2 Label_2_010092B4
// 011   ----------------------------------------
 BYTE   PATT
  POIN2 Label_2_010092ED
// 012   ----------------------------------------
 BYTE   PATT
  POIN2 Label_2_010092B4
// 013   ----------------------------------------
 BYTE   PATT
  POIN2 Label_2_010092ED
// 014   ----------------------------------------
 BYTE   PATT
  POIN2 Label_2_010092B4
// 015   ----------------------------------------
 BYTE   PATT
  POIN2 Label_2_010092ED
// 016   ----------------------------------------
 BYTE   PATT
  POIN2 Label_2_010092B4
// 017   ----------------------------------------
 BYTE   PATT
  POIN2 Label_2_010092ED
// 018   ----------------------------------------
 BYTE   PATT
  POIN2 Label_2_010092B4
// 019   ----------------------------------------
 BYTE   PATT
  POIN2 Label_2_010092ED
// 020   ----------------------------------------
 BYTE   PATT
  POIN2 Label_2_010092B4
// 021   ----------------------------------------
 BYTE   PATT
  POIN2 Label_2_010092ED
// 022   ----------------------------------------
Label_2_0100936C:
 BYTE   N10  Dn4  v080
 BYTE   N12  Fn4  v092
 BYTE   W12
 BYTE   N08  Cn4  v068
 BYTE   N06  En4  v076
 BYTE   W12
 BYTE   N04  An3  v068
 BYTE   N03  Dn4  v072
 BYTE   W12
 BYTE   N10  Cn4  v080
 BYTE   N12  En4  v092
 BYTE   W12
 BYTE   N08  An3  v068
 BYTE   N06  Dn4  v076
 BYTE   W12
 BYTE   N04  Gn3  v068
 BYTE   N03  Cn4  v072
 BYTE   W12
 BYTE   N10  Dn4  v080
 BYTE   N12  Fn4  v092
 BYTE   W12
 BYTE   N08  Cn4  v068
 BYTE   N06  En4  v076
 BYTE   W12
 BYTE   PEND 
// 023   ----------------------------------------
Label_2_010093A5:
 BYTE   N04  An3  v068
 BYTE   N03  Dn4  v072
 BYTE   W12
 BYTE   N10  En4  v080
 BYTE   N12  Gn4  v092
 BYTE   W12
 BYTE   N08  Dn4  v068
 BYTE   N06  Fn4  v076
 BYTE   W12
 BYTE   N04  Cn4  v068
 BYTE   N03  En4  v072
 BYTE   W12
 BYTE   N10  Dn4  v080
 BYTE   N12  Fn4  v092
 BYTE   W12
 BYTE   N08  Cn4  v068
 BYTE   N06  En4  v076
 BYTE   W12
 BYTE   N04  An3  v068
 BYTE   N03  Dn4  v072
 BYTE   W12
 BYTE   N04  Gn3  v068
 BYTE   N03  Cn4  v072
 BYTE   W12
 BYTE   PEND 
// 024   ----------------------------------------
Label_2_010093DE:
 BYTE   N10  Dn4  v080
 BYTE   N12  Fn4  v092
 BYTE   W12
 BYTE   N08  Cn4  v068
 BYTE   N06  En4  v076
 BYTE   W12
 BYTE   N04  An3  v068
 BYTE   N03  Dn4  v072
 BYTE   W12
 BYTE   N10  Dn4  v080
 BYTE   N12  Fn4  v092
 BYTE   W12
 BYTE   N08  Cn4  v068
 BYTE   N06  En4  v076
 BYTE   W12
 BYTE   N04  An3  v068
 BYTE   N03  Dn4  v072
 BYTE   W12
 BYTE   N10  Dn4  v080
 BYTE   N12  Fn4  v092
 BYTE   W12
 BYTE   N08  Cn4  v068
 BYTE   N06  En4  v076
 BYTE   W12
 BYTE   PEND 
// 025   ----------------------------------------
 BYTE   PATT
  POIN2 Label_2_010092ED
// 026   ----------------------------------------
 BYTE   PATT
  POIN2 Label_2_0100936C
// 027   ----------------------------------------
Label_2_01009421:
 BYTE   N04  An3  v068
 BYTE   N03  Dn4  v072
 BYTE   W12
 BYTE   N10  En4  v080
 BYTE   N12  Gn4  v092
 BYTE   W12
 BYTE   N08  Dn4  v068
 BYTE   N06  Fn4  v076
 BYTE   W12
 BYTE   N04  Cn4  v068
 BYTE   N03  En4  v072
 BYTE   W12
 BYTE   N10  Dn4  v080
 BYTE   N12  Fn4  v092
 BYTE   W12
 BYTE   N08  Cn4  v068
 BYTE   N06  En4  v076
 BYTE   W12
 BYTE   N04  As3  v068
 BYTE   N03  Dn4  v072
 BYTE   W12
 BYTE   N04  An3  v068
 BYTE   N03  Cn4  v072
 BYTE   W12
 BYTE   PEND 
// 028   ----------------------------------------
 BYTE   PATT
  POIN2 Label_2_010093DE
// 029   ----------------------------------------
 BYTE   PATT
  POIN2 Label_2_010092ED
// 030   ----------------------------------------
 BYTE   PATT
  POIN2 Label_2_010092B4
// 031   ----------------------------------------
 BYTE   PATT
  POIN2 Label_2_010092ED
// 032   ----------------------------------------
 BYTE   PATT
  POIN2 Label_2_010092B4
// 033   ----------------------------------------
 BYTE   PATT
  POIN2 Label_2_010092ED
// 034   ----------------------------------------
Label_2_01009478:
 BYTE   N10  Gn4  v104
 BYTE   N12  As4  v116
 BYTE   W12
 BYTE   N08  Fn4  v092
 BYTE   N06  An4  v100
 BYTE   W12
 BYTE   N04  En4  v092
 BYTE   N03  Gn4  v100
 BYTE   W12
 BYTE   N10  Fn4  v104
 BYTE   N12  An4  v116
 BYTE   W12
 BYTE   N08  En4  v092
 BYTE   N06  Gn4  v100
 BYTE   W12
 BYTE   N04  Dn4  v092
 BYTE   N03  Fn4  v100
 BYTE   W12
 BYTE   N10  En4  v104
 BYTE   N12  Gn4  v116
 BYTE   W12
 BYTE   N08  Dn4  v092
 BYTE   N06  Fn4  v100
 BYTE   W12
 BYTE   PEND 
// 035   ----------------------------------------
Label_2_010094B1:
 BYTE   N04  Cn4  v092
 BYTE   N03  En4  v100
 BYTE   W12
 BYTE   N10  Dn4  v104
 BYTE   N12  Fn4  v116
 BYTE   W12
 BYTE   N08  Cn4  v092
 BYTE   N06  En4  v100
 BYTE   W12
 BYTE   N04  As3  v092
 BYTE   N03  Dn4  v100
 BYTE   W12
 BYTE   N10  Cn4  v104
 BYTE   N12  En4  v116
 BYTE   W12
 BYTE   N08  As3  v092
 BYTE   N06  Dn4  v100
 BYTE   W12
 BYTE   N04  An3  v092
 BYTE   N03  Cn4  v100
 BYTE   W12
 BYTE   N04  Gn3  v092
 BYTE   N03  As3  v100
 BYTE   W12
 BYTE   PEND 
// 036   ----------------------------------------
Label_2_010094EA:
 BYTE   N05  En4  v100
 BYTE   N05  An4
 BYTE   W12
 BYTE   En4
 BYTE   N04  An4
 BYTE   W24
 BYTE   N02  En4
 BYTE   N02  An4
 BYTE   W12
 BYTE   N05  En4
 BYTE   N06  An4
 BYTE   W24
 BYTE   N04  En4
 BYTE   N04  An4
 BYTE   W12
 BYTE   En4
 BYTE   N04  An4
 BYTE   W12
 BYTE   PEND 
// 037   ----------------------------------------
 BYTE   W96
// 038   ----------------------------------------
 BYTE   PATT
  POIN2 Label_2_010092B4
// 039   ----------------------------------------
 BYTE   PATT
  POIN2 Label_2_010092ED
// 040   ----------------------------------------
 BYTE   PATT
  POIN2 Label_2_010092B4
// 041   ----------------------------------------
 BYTE   PATT
  POIN2 Label_2_010092ED
// 042   ----------------------------------------
 BYTE   PATT
  POIN2 Label_2_010092B4
// 043   ----------------------------------------
 BYTE   PATT
  POIN2 Label_2_010092ED
// 044   ----------------------------------------
 BYTE   PATT
  POIN2 Label_2_010092B4
// 045   ----------------------------------------
 BYTE   PATT
  POIN2 Label_2_010092ED
// 046   ----------------------------------------
 BYTE   PATT
  POIN2 Label_2_010092B4
// 047   ----------------------------------------
 BYTE   PATT
  POIN2 Label_2_010092ED
// 048   ----------------------------------------
 BYTE   PATT
  POIN2 Label_2_010092B4
// 049   ----------------------------------------
 BYTE   PATT
  POIN2 Label_2_010092ED
// 050   ----------------------------------------
 BYTE   PATT
  POIN2 Label_2_010092B4
// 051   ----------------------------------------
 BYTE   PATT
  POIN2 Label_2_010092ED
// 052   ----------------------------------------
 BYTE   PATT
  POIN2 Label_2_010092B4
// 053   ----------------------------------------
 BYTE   PATT
  POIN2 Label_2_010092ED
// 054   ----------------------------------------
 BYTE   PATT
  POIN2 Label_2_0100936C
// 055   ----------------------------------------
 BYTE   PATT
  POIN2 Label_2_010093A5
// 056   ----------------------------------------
 BYTE   PATT
  POIN2 Label_2_010093DE
// 057   ----------------------------------------
 BYTE   PATT
  POIN2 Label_2_010092ED
// 058   ----------------------------------------
 BYTE   PATT
  POIN2 Label_2_0100936C
// 059   ----------------------------------------
 BYTE   PATT
  POIN2 Label_2_01009421
// 060   ----------------------------------------
 BYTE   PATT
  POIN2 Label_2_010093DE
// 061   ----------------------------------------
 BYTE   PATT
  POIN2 Label_2_010092ED
// 062   ----------------------------------------
 BYTE   PATT
  POIN2 Label_2_010092B4
// 063   ----------------------------------------
 BYTE   PATT
  POIN2 Label_2_010092ED
// 064   ----------------------------------------
 BYTE   PATT
  POIN2 Label_2_010092B4
// 065   ----------------------------------------
 BYTE   PATT
  POIN2 Label_2_010092ED
// 066   ----------------------------------------
 BYTE   PATT
  POIN2 Label_2_01009478
// 067   ----------------------------------------
 BYTE   PATT
  POIN2 Label_2_010094B1
// 068   ----------------------------------------
 BYTE   PATT
  POIN2 Label_2_010094EA
// 069   ----------------------------------------
 BYTE   W96
// 070   ----------------------------------------
Label_2_010095A5:
 BYTE   N10  Cn4  v080
 BYTE   N11  En4  v092
 BYTE   W12
 BYTE   N08  As3  v068
 BYTE   N06  Dn4  v076
 BYTE   W12
 BYTE   N04  Cn4  v068
 BYTE   N03  En4  v072
 BYTE   W12
 BYTE   N10  Dn4  v080
 BYTE   N11  Fn4  v092
 BYTE   W12
 BYTE   N08  Cn4  v068
 BYTE   N06  En4  v076
 BYTE   W12
 BYTE   N04  Dn4  v068
 BYTE   N03  Fn4  v072
 BYTE   W12
 BYTE   N10  Cn4  v080
 BYTE   N11  En4  v092
 BYTE   W12
 BYTE   N08  As3  v068
 BYTE   N06  Dn4  v076
 BYTE   W12
 BYTE   PEND 
// 071   ----------------------------------------
Label_2_010095DE:
 BYTE   N04  Cn4  v068
 BYTE   N03  En4  v072
 BYTE   W12
 BYTE   N10  Dn4  v080
 BYTE   N11  Fn4  v092
 BYTE   W12
 BYTE   N08  Cn4  v068
 BYTE   N06  En4  v076
 BYTE   W12
 BYTE   N04  Dn4  v068
 BYTE   N03  Fn4  v072
 BYTE   W12
 BYTE   N10  Cn4  v080
 BYTE   N11  En4  v092
 BYTE   W12
 BYTE   N08  As3  v068
 BYTE   N06  Dn4  v076
 BYTE   W12
 BYTE   N04  Cn4  v068
 BYTE   N03  En4  v072
 BYTE   W12
 BYTE   N04  Dn4  v068
 BYTE   N03  Fn4  v072
 BYTE   W12
 BYTE   PEND 
// 072   ----------------------------------------
 BYTE   PATT
  POIN2 Label_2_010095A5
// 073   ----------------------------------------
Label_2_0100961C:
 BYTE   N04  Cn4  v068
 BYTE   N03  En4  v072
 BYTE   W12
 BYTE   N10  Dn4  v080
 BYTE   N11  Fn4  v092
 BYTE   W12
 BYTE   N08  Cn4  v068
 BYTE   N06  En4  v076
 BYTE   W12
 BYTE   N04  Dn4  v068
 BYTE   N03  Fn4  v072
 BYTE   W12
 BYTE   N10  En4  v080
 BYTE   N11  Gn4  v092
 BYTE   W12
 BYTE   N08  Dn4  v068
 BYTE   N06  Fn4  v076
 BYTE   W12
 BYTE   N04  Cn4  v068
 BYTE   N03  En4  v072
 BYTE   W12
 BYTE   N04  Dn4  v068
 BYTE   N03  Fn4  v072
 BYTE   W12
 BYTE   PEND 
// 074   ----------------------------------------
Label_2_01009655:
 BYTE   N10  Fn4  v080
 BYTE   N11  An4  v092
 BYTE   W12
 BYTE   N08  En4  v068
 BYTE   N06  Gn4  v076
 BYTE   W12
 BYTE   N04  Fn4  v068
 BYTE   N03  An4  v072
 BYTE   W12
 BYTE   N10  Gn4  v080
 BYTE   N11  As4  v092
 BYTE   W12
 BYTE   N08  Fn4  v068
 BYTE   N06  An4  v076
 BYTE   W12
 BYTE   N04  Gn4  v068
 BYTE   N03  As4  v072
 BYTE   W12
 BYTE   N10  Fn4  v080
 BYTE   N11  An4  v092
 BYTE   W12
 BYTE   N08  En4  v068
 BYTE   N06  Gn4  v076
 BYTE   W12
 BYTE   PEND 
// 075   ----------------------------------------
Label_2_0100968E:
 BYTE   N04  Fn4  v068
 BYTE   N03  An4  v072
 BYTE   W12
 BYTE   N10  Gn4  v080
 BYTE   N11  As4  v092
 BYTE   W12
 BYTE   N08  Fn4  v068
 BYTE   N06  An4  v076
 BYTE   W12
 BYTE   N04  Gn4  v068
 BYTE   N03  As4  v072
 BYTE   W12
 BYTE   N10  Fn4  v080
 BYTE   N11  An4  v092
 BYTE   W12
 BYTE   N08  En4  v068
 BYTE   N06  Gn4  v076
 BYTE   W12
 BYTE   N04  Fn4  v068
 BYTE   N03  An4  v072
 BYTE   W12
 BYTE   N04  Gn4  v068
 BYTE   N03  As4  v072
 BYTE   W12
 BYTE   PEND 
// 076   ----------------------------------------
Label_2_010096C7:
 BYTE   N10  An4  v080
 BYTE   N11  Cn5  v092
 BYTE   W12
 BYTE   N08  Gn4  v068
 BYTE   N06  As4  v076
 BYTE   W12
 BYTE   N04  An4  v068
 BYTE   N03  Cn5  v072
 BYTE   W12
 BYTE   N10  As4  v080
 BYTE   N11  Dn5  v092
 BYTE   W12
 BYTE   N08  An4  v068
 BYTE   N06  Cn5  v076
 BYTE   W12
 BYTE   N04  As4  v068
 BYTE   N03  Dn5  v072
 BYTE   W12
 BYTE   N10  An4  v080
 BYTE   N11  Cn5  v092
 BYTE   W12
 BYTE   N08  Gn4  v068
 BYTE   N06  As4  v076
 BYTE   W12
 BYTE   PEND 
// 077   ----------------------------------------
Label_2_01009700:
 BYTE   N04  An4  v068
 BYTE   N03  Cn5  v072
 BYTE   W12
 BYTE   N10  As4  v080
 BYTE   N11  Dn5  v092
 BYTE   W12
 BYTE   N08  An4  v068
 BYTE   N06  Cn5  v076
 BYTE   W12
 BYTE   N04  As4  v068
 BYTE   N03  Dn5  v072
 BYTE   W12
 BYTE   N10  An4  v080
 BYTE   N11  Cn5  v092
 BYTE   W12
 BYTE   N08  Gn4  v068
 BYTE   N06  As4  v076
 BYTE   W12
 BYTE   N04  An4  v068
 BYTE   N03  Cn5  v072
 BYTE   W12
 BYTE   N04  As4  v068
 BYTE   N03  Dn5  v072
 BYTE   W12
 BYTE   PEND 
// 078   ----------------------------------------
 BYTE   PATT
  POIN2 Label_2_010095A5
// 079   ----------------------------------------
 BYTE   PATT
  POIN2 Label_2_010095DE
// 080   ----------------------------------------
 BYTE   PATT
  POIN2 Label_2_010095A5
// 081   ----------------------------------------
 BYTE   PATT
  POIN2 Label_2_0100961C
// 082   ----------------------------------------
 BYTE   PATT
  POIN2 Label_2_01009655
// 083   ----------------------------------------
 BYTE   PATT
  POIN2 Label_2_0100968E
// 084   ----------------------------------------
 BYTE   PATT
  POIN2 Label_2_010096C7
// 085   ----------------------------------------
 BYTE   PATT
  POIN2 Label_2_01009700
// 086   ----------------------------------------
 BYTE   PATT
  POIN2 Label_2_010095A5
// 087   ----------------------------------------
 BYTE   PATT
  POIN2 Label_2_010095DE
// 088   ----------------------------------------
 BYTE   PATT
  POIN2 Label_2_010095A5
// 089   ----------------------------------------
 BYTE   PATT
  POIN2 Label_2_0100961C
// 090   ----------------------------------------
 BYTE   PATT
  POIN2 Label_2_01009655
// 091   ----------------------------------------
 BYTE   PATT
  POIN2 Label_2_0100968E
// 092   ----------------------------------------
 BYTE   PATT
  POIN2 Label_2_010096C7
// 093   ----------------------------------------
 BYTE   PATT
  POIN2 Label_2_01009700
// 094   ----------------------------------------
 BYTE   PATT
  POIN2 Label_2_010095A5
// 095   ----------------------------------------
 BYTE   PATT
  POIN2 Label_2_010095DE
// 096   ----------------------------------------
 BYTE   PATT
  POIN2 Label_2_010095A5
// 097   ----------------------------------------
 BYTE   PATT
  POIN2 Label_2_0100961C
// 098   ----------------------------------------
 BYTE   PATT
  POIN2 Label_2_01009655
// 099   ----------------------------------------
 BYTE   PATT
  POIN2 Label_2_0100968E
// 100   ----------------------------------------
 BYTE   PATT
  POIN2 Label_2_010096C7
// 101   ----------------------------------------
 BYTE   PATT
  POIN2 Label_2_01009700
// 102   ----------------------------------------
 BYTE   PATT
  POIN2 Label_2_010095A5
// 103   ----------------------------------------
 BYTE   PATT
  POIN2 Label_2_010095DE
// 104   ----------------------------------------
 BYTE   N10  Ds4  v080
 BYTE   N11  Gn4  v092
 BYTE   W12
 BYTE   N08  Cs4  v068
 BYTE   N06  Fn4  v076
 BYTE   W12
 BYTE   N04  Ds4  v068
 BYTE   N03  Gn4  v072
 BYTE   W12
 BYTE   N10  Fn4  v080
 BYTE   N11  Gs4  v092
 BYTE   W12
 BYTE   N08  Ds4  v068
 BYTE   N06  Gn4  v076
 BYTE   W12
 BYTE   N04  Fn4  v068
 BYTE   N03  Gs4  v072
 BYTE   W12
 BYTE   N10  Ds4  v080
 BYTE   N11  Gn4  v092
 BYTE   W12
 BYTE   N08  Cs4  v068
 BYTE   N06  Fn4  v076
 BYTE   W12
// 105   ----------------------------------------
 BYTE   N04  Ds4  v068
 BYTE   N03  Gn4  v072
 BYTE   W12
 BYTE   N10  Fn4  v080
 BYTE   N11  Gs4  v092
 BYTE   W12
 BYTE   N08  Ds4  v068
 BYTE   N06  Gn4  v076
 BYTE   W12
 BYTE   N04  Fn4  v068
 BYTE   N03  Gs4  v072
 BYTE   W12
 BYTE   N10  Ds4  v080
 BYTE   N11  Gn4  v092
 BYTE   W12
 BYTE   N08  Cs4  v068
 BYTE   N06  Fn4  v076
 BYTE   W12
 BYTE   N04  Ds4  v068
 BYTE   N03  Gn4  v072
 BYTE   W12
 BYTE   N04  Cs4  v068
 BYTE   N03  Fn4  v072
 BYTE   W12
// 106   ----------------------------------------
Label_2_0100982B:
 BYTE   N10  Dn4  v080
 BYTE   N11  Fn4  v092
 BYTE   W12
 BYTE   N08  Cn4  v068
 BYTE   N06  En4  v076
 BYTE   W12
 BYTE   N04  An3  v068
 BYTE   N03  Dn4  v072
 BYTE   W12
 BYTE   N10  Cn4  v080
 BYTE   N11  En4  v092
 BYTE   W12
 BYTE   N08  An3  v068
 BYTE   N06  Dn4  v076
 BYTE   W12
 BYTE   N04  Gn3  v068
 BYTE   N03  Cn4  v072
 BYTE   W12
 BYTE   N10  Dn4  v080
 BYTE   N11  Fn4  v092
 BYTE   W12
 BYTE   N08  Cn4  v068
 BYTE   N06  En4  v076
 BYTE   W12
 BYTE   PEND 
// 107   ----------------------------------------
 BYTE   N04  An3  v068
 BYTE   N03  Dn4  v072
 BYTE   W12
 BYTE   N10  En4  v080
 BYTE   N11  Gn4  v092
 BYTE   W12
 BYTE   N08  Dn4  v068
 BYTE   N06  Fn4  v076
 BYTE   W12
 BYTE   N04  Cn4  v068
 BYTE   N03  En4  v072
 BYTE   W12
 BYTE   N10  Dn4  v080
 BYTE   N11  Fn4  v092
 BYTE   W12
 BYTE   N08  Cn4  v068
 BYTE   N06  En4  v076
 BYTE   W12
 BYTE   N04  An3  v068
 BYTE   N03  Dn4  v072
 BYTE   W12
 BYTE   Gn3
 BYTE   N03  Cn4
 BYTE   W12
// 108   ----------------------------------------
 BYTE   PATT
  POIN2 Label_2_0100982B
// 109   ----------------------------------------
 BYTE   N04  An3  v068
 BYTE   N03  Dn4  v072
 BYTE   W12
 BYTE   N10  En4  v080
 BYTE   N11  Gn4  v092
 BYTE   W12
 BYTE   N08  Dn4  v068
 BYTE   N06  Fn4  v076
 BYTE   W12
 BYTE   N04  Cn4  v068
 BYTE   N03  En4  v072
 BYTE   W12
 BYTE   N10  Dn4  v080
 BYTE   N11  Fn4  v092
 BYTE   W12
 BYTE   N08  Cn4  v068
 BYTE   N06  En4  v076
 BYTE   W12
 BYTE   N04  An3  v068
 BYTE   N03  Dn4  v072
 BYTE   W12
 BYTE   Gn3
 BYTE   N03  Cn4
 BYTE   W03
 BYTE   VOL   48*EtrianOdyssey3TheFirstCampaignThegis_mvl/mxv
 BYTE   PAN   c_v+0
 BYTE   W09
// 110   ----------------------------------------
 BYTE   GoTo
  POIN2 Label_2_010091B6
// 111   ----------------------------------------
 BYTE   W04
 BYTE   FINE

//**************** Track 4 (Midi-Chn.3) ****************//

EtrianOdyssey3TheFirstCampaignThegis_004:
// 000   ----------------------------------------
 BYTE   KEYSH   EtrianOdyssey3TheFirstCampaignThegis_key+0
Label_3_01004E9A:
 BYTE   VOICE   28
 BYTE   VOL   42*EtrianOdyssey3TheFirstCampaignThegis_mvl/mxv
 BYTE   PAN   c_v-61
 BYTE   W01
 BYTE   N11  Fn3  v100
 BYTE   W12
 BYTE   Dn3  v084
 BYTE   W12
 BYTE   N05  En3
 BYTE   W12
 BYTE   N11  Fn3  v100
 BYTE   W12
 BYTE   N05  En3  v084
 BYTE   W12
 BYTE   Dn3
 BYTE   W12
 BYTE   N11  Fn3  v100
 BYTE   W12
 BYTE   N05  Dn3  v084
 BYTE   W11
// 001   ----------------------------------------
 BYTE   W01
 BYTE   En3
 BYTE   W12
 BYTE   N11  Gn3  v100
 BYTE   W12
 BYTE   N05  Fn3  v084
 BYTE   W12
 BYTE   En3
 BYTE   W12
 BYTE   N11  Fn3  v100
 BYTE   W12
 BYTE   N05  En3  v084
 BYTE   W12
 BYTE   Dn3
 BYTE   W12
 BYTE   Cn3
 BYTE   W11
// 002   ----------------------------------------
 BYTE   W01
 BYTE   N11  An3  v100
 BYTE   W12
 BYTE   N05  Fn3  v084
 BYTE   W12
 BYTE   Gn3
 BYTE   W12
 BYTE   N11  An3  v100
 BYTE   W12
 BYTE   N05  Gn3  v084
 BYTE   W12
 BYTE   Fn3
 BYTE   W12
 BYTE   N11  An3  v100
 BYTE   W12
 BYTE   N05  Fn3  v084
 BYTE   W11
// 003   ----------------------------------------
 BYTE   W01
 BYTE   Gn3
 BYTE   W12
 BYTE   N11  As3  v100
 BYTE   W12
 BYTE   N05  An3  v084
 BYTE   W12
 BYTE   Gn3
 BYTE   W12
 BYTE   N11  An3  v100
 BYTE   W12
 BYTE   N05  Gn3  v084
 BYTE   W12
 BYTE   Fn3
 BYTE   W12
 BYTE   En3
 BYTE   W11
// 004   ----------------------------------------
 BYTE   W01
 BYTE   N32  Cn4  v088
 BYTE   W36
 BYTE   Bn3  v084
 BYTE   W36
 BYTE   N23  Gn3
 BYTE   W23
// 005   ----------------------------------------
 BYTE   W01
 BYTE   N76  Dn3  v092
 BYTE   W92
 BYTE   W03
// 006   ----------------------------------------
 BYTE   W96
// 007   ----------------------------------------
 BYTE   W96
// 008   ----------------------------------------
 BYTE   W96
// 009   ----------------------------------------
 BYTE   W96
// 010   ----------------------------------------
 BYTE   W96
// 011   ----------------------------------------
 BYTE   W96
// 012   ----------------------------------------
 BYTE   W96
// 013   ----------------------------------------
 BYTE   W96
// 014   ----------------------------------------
 BYTE   W96
// 015   ----------------------------------------
 BYTE   W96
// 016   ----------------------------------------
 BYTE   W96
// 017   ----------------------------------------
 BYTE   W96
// 018   ----------------------------------------
 BYTE   W96
// 019   ----------------------------------------
 BYTE   W96
// 020   ----------------------------------------
 BYTE   W96
// 021   ----------------------------------------
 BYTE   W96
// 022   ----------------------------------------
Label_3_01004F2D:
 BYTE   W48
 BYTE   W01
 BYTE   N11  Fn3  v096
 BYTE   W12
 BYTE   Gn3
 BYTE   W12
 BYTE   An3
 BYTE   W12
 BYTE   Dn3
 BYTE   W11
 BYTE   PEND 
// 023   ----------------------------------------
Label_3_01004F3A:
 BYTE   W01
 BYTE   N11  Fn3  v084
 BYTE   W12
 BYTE   Gn3
 BYTE   W12
 BYTE   An3
 BYTE   W12
 BYTE   Dn3
 BYTE   W12
 BYTE   Fn3  v072
 BYTE   W12
 BYTE   Gn3
 BYTE   W12
 BYTE   An3
 BYTE   W12
 BYTE   Dn3
 BYTE   W11
 BYTE   PEND 
// 024   ----------------------------------------
 BYTE   PATT
  POIN2 Label_3_01004F2D
// 025   ----------------------------------------
Label_3_01004F54:
 BYTE   W01
 BYTE   N11  Fn3  v084
 BYTE   W12
 BYTE   Gn3
 BYTE   W12
 BYTE   An3
 BYTE   W12
 BYTE   Dn3
 BYTE   W12
 BYTE   Fn3  v068
 BYTE   W12
 BYTE   Gn3
 BYTE   W12
 BYTE   An3
 BYTE   W12
 BYTE   Dn3
 BYTE   W11
 BYTE   PEND 
// 026   ----------------------------------------
 BYTE   PATT
  POIN2 Label_3_01004F2D
// 027   ----------------------------------------
 BYTE   PATT
  POIN2 Label_3_01004F54
// 028   ----------------------------------------
Label_3_01004F73:
 BYTE   W48
 BYTE   W01
 BYTE   N11  Fn3  v100
 BYTE   W12
 BYTE   Gn3
 BYTE   W12
 BYTE   An3
 BYTE   W12
 BYTE   Dn3
 BYTE   W11
 BYTE   PEND 
// 029   ----------------------------------------
Label_3_01004F80:
 BYTE   W01
 BYTE   N11  Fn3  v084
 BYTE   W12
 BYTE   Gn3
 BYTE   W12
 BYTE   An3
 BYTE   W12
 BYTE   Dn3
 BYTE   W12
 BYTE   Fn3  v068
 BYTE   W12
 BYTE   Dn3  v100
 BYTE   W12
 BYTE   Fn3
 BYTE   W12
 BYTE   Gn3
 BYTE   W11
 BYTE   PEND 
// 030   ----------------------------------------
Label_3_01004F96:
 BYTE   W01
 BYTE   N32  An3  v100
 BYTE   W36
 BYTE   Gn3
 BYTE   W36
 BYTE   N23  Dn3
 BYTE   W23
 BYTE   PEND 
// 031   ----------------------------------------
Label_3_01004FA1:
 BYTE   W01
 BYTE   N32  Fn3  v100
 BYTE   W36
 BYTE   Dn3
 BYTE   W36
 BYTE   N11  Cn3
 BYTE   W12
 BYTE   Dn3
 BYTE   W11
 BYTE   PEND 
// 032   ----------------------------------------
 BYTE   PATT
  POIN2 Label_3_01004F96
// 033   ----------------------------------------
 BYTE   PATT
  POIN2 Label_3_01004FA1
// 034   ----------------------------------------
Label_3_01004FB8:
 BYTE   W01
 BYTE   N11  As3  v100
 BYTE   W12
 BYTE   An3
 BYTE   W12
 BYTE   Gn3
 BYTE   W12
 BYTE   An3
 BYTE   W12
 BYTE   N17  Gn3
 BYTE   W12
 BYTE   N11  Fn3
 BYTE   W12
 BYTE   Gn3
 BYTE   W12
 BYTE   Fn3
 BYTE   W11
 BYTE   PEND 
// 035   ----------------------------------------
Label_3_01004FCE:
 BYTE   W01
 BYTE   N11  En3  v100
 BYTE   W12
 BYTE   Fn3
 BYTE   W12
 BYTE   En3
 BYTE   W12
 BYTE   Dn3
 BYTE   W12
 BYTE   En3
 BYTE   W12
 BYTE   Dn3
 BYTE   W12
 BYTE   Cn3
 BYTE   W12
 BYTE   As2
 BYTE   W11
 BYTE   PEND 
// 036   ----------------------------------------
Label_3_01004FE2:
 BYTE   W01
 BYTE   N06  An2  v100
 BYTE   W12
 BYTE   N06
 BYTE   W24
 BYTE   N06
 BYTE   W12
 BYTE   N06
 BYTE   W24
 BYTE   N06
 BYTE   W12
 BYTE   N06
 BYTE   W11
 BYTE   PEND 
// 037   ----------------------------------------
 BYTE   W96
// 038   ----------------------------------------
 BYTE   W96
// 039   ----------------------------------------
 BYTE   W96
// 040   ----------------------------------------
 BYTE   W96
// 041   ----------------------------------------
 BYTE   W96
// 042   ----------------------------------------
 BYTE   W96
// 043   ----------------------------------------
 BYTE   W96
// 044   ----------------------------------------
 BYTE   W96
// 045   ----------------------------------------
 BYTE   W96
// 046   ----------------------------------------
 BYTE   W96
// 047   ----------------------------------------
 BYTE   W96
// 048   ----------------------------------------
 BYTE   W96
// 049   ----------------------------------------
 BYTE   W96
// 050   ----------------------------------------
 BYTE   W96
// 051   ----------------------------------------
 BYTE   W96
// 052   ----------------------------------------
 BYTE   W96
// 053   ----------------------------------------
 BYTE   W96
// 054   ----------------------------------------
 BYTE   PATT
  POIN2 Label_3_01004F2D
// 055   ----------------------------------------
 BYTE   PATT
  POIN2 Label_3_01004F3A
// 056   ----------------------------------------
 BYTE   PATT
  POIN2 Label_3_01004F2D
// 057   ----------------------------------------
 BYTE   PATT
  POIN2 Label_3_01004F54
// 058   ----------------------------------------
 BYTE   PATT
  POIN2 Label_3_01004F2D
// 059   ----------------------------------------
 BYTE   PATT
  POIN2 Label_3_01004F54
// 060   ----------------------------------------
 BYTE   PATT
  POIN2 Label_3_01004F73
// 061   ----------------------------------------
 BYTE   PATT
  POIN2 Label_3_01004F80
// 062   ----------------------------------------
 BYTE   PATT
  POIN2 Label_3_01004F96
// 063   ----------------------------------------
 BYTE   PATT
  POIN2 Label_3_01004FA1
// 064   ----------------------------------------
 BYTE   PATT
  POIN2 Label_3_01004F96
// 065   ----------------------------------------
 BYTE   PATT
  POIN2 Label_3_01004FA1
// 066   ----------------------------------------
 BYTE   PATT
  POIN2 Label_3_01004FB8
// 067   ----------------------------------------
 BYTE   PATT
  POIN2 Label_3_01004FCE
// 068   ----------------------------------------
 BYTE   PATT
  POIN2 Label_3_01004FE2
// 069   ----------------------------------------
 BYTE   W96
// 070   ----------------------------------------
 BYTE   W96
// 071   ----------------------------------------
 BYTE   W96
// 072   ----------------------------------------
 BYTE   W96
// 073   ----------------------------------------
 BYTE   W96
// 074   ----------------------------------------
 BYTE   W96
// 075   ----------------------------------------
 BYTE   W96
// 076   ----------------------------------------
 BYTE   W96
// 077   ----------------------------------------
 BYTE   W96
// 078   ----------------------------------------
 BYTE   W96
// 079   ----------------------------------------
 BYTE   W96
// 080   ----------------------------------------
 BYTE   W96
// 081   ----------------------------------------
 BYTE   W96
// 082   ----------------------------------------
 BYTE   W96
// 083   ----------------------------------------
 BYTE   W96
// 084   ----------------------------------------
 BYTE   W96
// 085   ----------------------------------------
 BYTE   W96
// 086   ----------------------------------------
 BYTE   W13
 BYTE   N13  An3  v088
 BYTE   W12
 BYTE   N14  As3
 BYTE   W12
 BYTE   N24  Cn4
 BYTE   W24
 BYTE   N09  Fn3
 BYTE   W12
 BYTE   N13  Gn3
 BYTE   W12
 BYTE   Cn4
 BYTE   W11
// 087   ----------------------------------------
Label_3_01005072:
 BYTE   W01
 BYTE   N15  Fn3  v088
 BYTE   W12
 BYTE   N14  Gn3
 BYTE   W12
 BYTE   N15  Cn4
 BYTE   W12
 BYTE   N13  Fn3
 BYTE   W12
 BYTE   N12  Gn3
 BYTE   W12
 BYTE   N14  Dn4
 BYTE   W12
 BYTE   N12  Cn4
 BYTE   W12
 BYTE   Fn3
 BYTE   W11
 BYTE   PEND 
// 088   ----------------------------------------
 BYTE   W13
 BYTE   N12
 BYTE   W12
 BYTE   Gn3
 BYTE   W12
 BYTE   N24  Cn4
 BYTE   W24
 BYTE   N09  Fn3
 BYTE   W12
 BYTE   N13  Gn3
 BYTE   W12
 BYTE   Cn4
 BYTE   W11
// 089   ----------------------------------------
 BYTE   PATT
  POIN2 Label_3_01005072
// 090   ----------------------------------------
Label_3_010050A1:
 BYTE   W13
 BYTE   N11  An3  v088
 BYTE   W12
 BYTE   N15  As3
 BYTE   W12
 BYTE   N36  Cn4
 BYTE   W36
 BYTE   N13  Fn3
 BYTE   W23
 BYTE   PEND 
// 091   ----------------------------------------
Label_3_010050B0:
 BYTE   W01
 BYTE   N11  En3  v088
 BYTE   W12
 BYTE   N07  Fn3
 BYTE   W24
 BYTE   N56  Cn4
 BYTE   W56
 BYTE   W03
 BYTE   PEND 
// 092   ----------------------------------------
 BYTE   W13
 BYTE   N11
 BYTE   W12
 BYTE   Dn4
 BYTE   W12
 BYTE   N32  Cn4
 BYTE   W36
 BYTE   N11  Fn4
 BYTE   W23
// 093   ----------------------------------------
 BYTE   W01
 BYTE   N12  En4
 BYTE   W12
 BYTE   N07  Cn4
 BYTE   W24
 BYTE   N23  An3
 BYTE   W24
 BYTE   N11  As3
 BYTE   W12
 BYTE   N09  Dn4
 BYTE   W12
 BYTE   N23  Cn4
 BYTE   W11
// 094   ----------------------------------------
Label_3_010050DB:
 BYTE   W13
 BYTE   N11  Fn3  v088
 BYTE   W12
 BYTE   En3
 BYTE   W12
 BYTE   Fn3
 BYTE   W12
 BYTE   Cn4
 BYTE   W12
 BYTE   En3
 BYTE   W12
 BYTE   Fn3
 BYTE   W12
 BYTE   Cn4
 BYTE   W11
 BYTE   PEND 
// 095   ----------------------------------------
Label_3_010050ED:
 BYTE   W01
 BYTE   N11  En3  v088
 BYTE   W12
 BYTE   Fn3
 BYTE   W12
 BYTE   Cn4
 BYTE   W12
 BYTE   En3
 BYTE   W12
 BYTE   Fn3
 BYTE   W12
 BYTE   Cn4
 BYTE   W12
 BYTE   Dn4
 BYTE   W12
 BYTE   Cn4
 BYTE   W11
 BYTE   PEND 
// 096   ----------------------------------------
 BYTE   PATT
  POIN2 Label_3_010050DB
// 097   ----------------------------------------
 BYTE   PATT
  POIN2 Label_3_010050ED
// 098   ----------------------------------------
 BYTE   PATT
  POIN2 Label_3_010050A1
// 099   ----------------------------------------
 BYTE   PATT
  POIN2 Label_3_010050B0
// 100   ----------------------------------------
 BYTE   W13
 BYTE   N15  Cn4  v088
 BYTE   W12
 BYTE   N14  Dn4
 BYTE   W12
 BYTE   N36  Cn4
 BYTE   W36
 BYTE   N12  Fn4
 BYTE   W23
// 101   ----------------------------------------
 BYTE   W01
 BYTE   N14  Gn4
 BYTE   W12
 BYTE   N09  Cn4
 BYTE   W24
 BYTE   N24  An4
 BYTE   W24
 BYTE   N07  As4
 BYTE   W12
 BYTE   N05  An4
 BYTE   W12
 BYTE   N24  Gn4
 BYTE   W11
// 102   ----------------------------------------
 BYTE   W13
 BYTE   N11  As4
 BYTE   W12
 BYTE   N08  An4
 BYTE   W12
 BYTE   N68  Fn4
 BYTE   W56
 BYTE   W03
// 103   ----------------------------------------
 BYTE   W13
 BYTE   N15  Cn4
 BYTE   W24
 BYTE   N23  Fn4
 BYTE   W24
 BYTE   N07  Gn4
 BYTE   W12
 BYTE   N40  Fn4
 BYTE   W23
// 104   ----------------------------------------
 BYTE   W48
 BYTE   W01
 BYTE   N56
 BYTE   W44
 BYTE   W03
// 105   ----------------------------------------
 BYTE   W24
 BYTE   W01
 BYTE   N02  Gn4  v060
 BYTE   W03
 BYTE   N05  Gs4  v080
 BYTE   W09
 BYTE   N17  Gn4  v088
 BYTE   W24
 BYTE   N14  Fn4  v080
 BYTE   W24
 BYTE   N05
 BYTE   W11
// 106   ----------------------------------------
 BYTE   W01
 BYTE   N02
 BYTE   W03
 BYTE   N14  Gn4  v076
 BYTE   W09
 BYTE   N11  Fn4  v072
 BYTE   W12
 BYTE   N14  Gn4  v068
 BYTE   W12
 BYTE   N06  Fn4  v084
 BYTE   W24
 BYTE   N05  Cn4  v080
 BYTE   W12
 BYTE   N02
 BYTE   W03
 BYTE   N72  Dn4  v088
 BYTE   W20
// 107   ----------------------------------------
 BYTE   W54
 BYTE   W01
 BYTE   N05  Cn4
 BYTE   W06
 BYTE   Fn4
 BYTE   W06
 BYTE   Dn4
 BYTE   W06
 BYTE   Cn4
 BYTE   W06
 BYTE   An3
 BYTE   W06
 BYTE   Dn4
 BYTE   W06
 BYTE   Cn4
 BYTE   W05
// 108   ----------------------------------------
 BYTE   W01
 BYTE   An3
 BYTE   W06
 BYTE   Fn3
 BYTE   W06
 BYTE   Cn4
 BYTE   W06
 BYTE   An3
 BYTE   W06
 BYTE   Fn3
 BYTE   W06
 BYTE   Dn3
 BYTE   W06
 BYTE   Gn3
 BYTE   W06
 BYTE   Fn3
 BYTE   W06
 BYTE   Dn3
 BYTE   W06
 BYTE   Cn3
 BYTE   W06
 BYTE   An2
 BYTE   W06
 BYTE   Gn2
 BYTE   W06
 BYTE   Fn2
 BYTE   W06
 BYTE   An2
 BYTE   W06
 BYTE   Cn3
 BYTE   W06
 BYTE   Dn3
 BYTE   W05
// 109   ----------------------------------------
 BYTE   W01
 BYTE   An2
 BYTE   W06
 BYTE   Cn3
 BYTE   W06
 BYTE   Dn3
 BYTE   W06
 BYTE   Fn3
 BYTE   W06
 BYTE   Dn3
 BYTE   W06
 BYTE   Fn3
 BYTE   W06
 BYTE   Gn3
 BYTE   W06
 BYTE   An3
 BYTE   W06
 BYTE   Fn3
 BYTE   W06
 BYTE   An3
 BYTE   W06
 BYTE   Cn4
 BYTE   W06
 BYTE   Dn4
 BYTE   W06
 BYTE   Fn4
 BYTE   W06
 BYTE   Dn4
 BYTE   W06
 BYTE   Fn4
 BYTE   W06
 BYTE   Gn4
 BYTE   W05
// 110   ----------------------------------------
 BYTE   GoTo
  POIN2 Label_3_01004E9A
// 111   ----------------------------------------
 BYTE   VOL   42*EtrianOdyssey3TheFirstCampaignThegis_mvl/mxv
 BYTE   PAN   c_v-61
 BYTE   W04
 BYTE   FINE

//**************** Track 5 (Midi-Chn.4) ****************//

EtrianOdyssey3TheFirstCampaignThegis_005:
// 000   ----------------------------------------
 BYTE   KEYSH   EtrianOdyssey3TheFirstCampaignThegis_key+0
Label_4_010063FA:
 BYTE   VOICE   38
 BYTE   VOL   58*EtrianOdyssey3TheFirstCampaignThegis_mvl/mxv
 BYTE   PAN   c_v+0
 BYTE   N10  Dn2  v088
 BYTE   W12
 BYTE   N08  As1  v076
 BYTE   W12
 BYTE   N04  Cn2
 BYTE   W12
 BYTE   N10  Dn2  v088
 BYTE   W12
 BYTE   N08  Cn2  v076
 BYTE   W12
 BYTE   N04  As1
 BYTE   W12
 BYTE   N10  Dn2  v088
 BYTE   W12
 BYTE   N08  As1  v076
 BYTE   W12
// 001   ----------------------------------------
 BYTE   N04  Cn2
 BYTE   W12
 BYTE   N10  En2  v088
 BYTE   W12
 BYTE   N08  Dn2  v076
 BYTE   W12
 BYTE   N04  Cn2
 BYTE   W12
 BYTE   N10  Dn2  v088
 BYTE   W12
 BYTE   N08  Cn2  v076
 BYTE   W12
 BYTE   N04  As1
 BYTE   W12
 BYTE   An1
 BYTE   W12
// 002   ----------------------------------------
 BYTE   N10  Fn2  v088
 BYTE   W12
 BYTE   N08  Dn2  v076
 BYTE   W12
 BYTE   N04  En2
 BYTE   W12
 BYTE   N10  Fn2  v088
 BYTE   W12
 BYTE   N08  En2  v076
 BYTE   W12
 BYTE   N04  Dn2
 BYTE   W12
 BYTE   N10  Fn2  v088
 BYTE   W12
 BYTE   N08  Dn2  v076
 BYTE   W12
// 003   ----------------------------------------
 BYTE   N04  En2
 BYTE   W12
 BYTE   N10  Gn2  v088
 BYTE   W12
 BYTE   N08  Fn2  v076
 BYTE   W12
 BYTE   N04  En2
 BYTE   W12
 BYTE   N10  Fn2  v088
 BYTE   W12
 BYTE   N08  En2  v076
 BYTE   W12
 BYTE   N04  Dn2
 BYTE   W12
 BYTE   Cn2
 BYTE   W12
// 004   ----------------------------------------
 BYTE   N28  An2  v096
 BYTE   W36
 BYTE   N32  Gn2  v084
 BYTE   W36
 BYTE   N06  En2  v080
 BYTE   W24
// 005   ----------------------------------------
 BYTE   N84  As1  v088
 BYTE   W96
// 006   ----------------------------------------
Label_4_01006482:
 BYTE   N10  Dn2  v088
 BYTE   W12
 BYTE   N10
 BYTE   W12
 BYTE   N10
 BYTE   W12
 BYTE   N10
 BYTE   W12
 BYTE   N10
 BYTE   W12
 BYTE   N10
 BYTE   W12
 BYTE   N10
 BYTE   W12
 BYTE   N10
 BYTE   W12
 BYTE   PEND 
// 007   ----------------------------------------
 BYTE   PATT
  POIN2 Label_4_01006482
// 008   ----------------------------------------
Label_4_0100649A:
 BYTE   N10  As1  v088
 BYTE   W12
 BYTE   N10
 BYTE   W12
 BYTE   N10
 BYTE   W12
 BYTE   N10
 BYTE   W12
 BYTE   N10
 BYTE   W12
 BYTE   N10
 BYTE   W12
 BYTE   N10
 BYTE   W12
 BYTE   N10
 BYTE   W12
 BYTE   PEND 
// 009   ----------------------------------------
Label_4_010064AD:
 BYTE   N10  Gn1  v088
 BYTE   W12
 BYTE   N10
 BYTE   W12
 BYTE   N10
 BYTE   W12
 BYTE   N10
 BYTE   W12
 BYTE   N10
 BYTE   W12
 BYTE   N10
 BYTE   W12
 BYTE   N10
 BYTE   W12
 BYTE   N10
 BYTE   W12
 BYTE   PEND 
// 010   ----------------------------------------
 BYTE   PATT
  POIN2 Label_4_01006482
// 011   ----------------------------------------
 BYTE   PATT
  POIN2 Label_4_01006482
// 012   ----------------------------------------
Label_4_010064CA:
 BYTE   N10  Fn1  v088
 BYTE   W12
 BYTE   N10
 BYTE   W12
 BYTE   N10
 BYTE   W12
 BYTE   N10
 BYTE   W12
 BYTE   N10
 BYTE   W12
 BYTE   N10
 BYTE   W12
 BYTE   N10
 BYTE   W12
 BYTE   N10
 BYTE   W12
 BYTE   PEND 
// 013   ----------------------------------------
 BYTE   PATT
  POIN2 Label_4_0100649A
// 014   ----------------------------------------
 BYTE   PATT
  POIN2 Label_4_01006482
// 015   ----------------------------------------
 BYTE   PATT
  POIN2 Label_4_01006482
// 016   ----------------------------------------
 BYTE   PATT
  POIN2 Label_4_0100649A
// 017   ----------------------------------------
 BYTE   PATT
  POIN2 Label_4_010064AD
// 018   ----------------------------------------
 BYTE   PATT
  POIN2 Label_4_01006482
// 019   ----------------------------------------
 BYTE   PATT
  POIN2 Label_4_01006482
// 020   ----------------------------------------
 BYTE   PATT
  POIN2 Label_4_010064CA
// 021   ----------------------------------------
 BYTE   PATT
  POIN2 Label_4_0100649A
// 022   ----------------------------------------
 BYTE   PATT
  POIN2 Label_4_01006482
// 023   ----------------------------------------
Label_4_0100650F:
 BYTE   N10  En2  v088
 BYTE   W12
 BYTE   N10
 BYTE   W12
 BYTE   N10
 BYTE   W12
 BYTE   N10
 BYTE   W12
 BYTE   N10
 BYTE   W12
 BYTE   N10
 BYTE   W12
 BYTE   N10
 BYTE   W12
 BYTE   N10
 BYTE   W12
 BYTE   PEND 
// 024   ----------------------------------------
Label_4_01006522:
 BYTE   N10  Fn2  v088
 BYTE   W12
 BYTE   N10
 BYTE   W12
 BYTE   N10
 BYTE   W12
 BYTE   N10
 BYTE   W12
 BYTE   N10
 BYTE   W12
 BYTE   N10
 BYTE   W12
 BYTE   N10
 BYTE   W12
 BYTE   N10
 BYTE   W12
 BYTE   PEND 
// 025   ----------------------------------------
 BYTE   PATT
  POIN2 Label_4_0100649A
// 026   ----------------------------------------
 BYTE   PATT
  POIN2 Label_4_01006482
// 027   ----------------------------------------
 BYTE   PATT
  POIN2 Label_4_0100650F
// 028   ----------------------------------------
 BYTE   PATT
  POIN2 Label_4_01006522
// 029   ----------------------------------------
 BYTE   PATT
  POIN2 Label_4_0100649A
// 030   ----------------------------------------
Label_4_0100654E:
 BYTE   N10  Gn1  v088
 BYTE   W12
 BYTE   N10
 BYTE   W12
 BYTE   N10
 BYTE   W12
 BYTE   An1
 BYTE   W12
 BYTE   N10
 BYTE   W12
 BYTE   N10
 BYTE   W12
 BYTE   N10
 BYTE   W12
 BYTE   As1
 BYTE   W12
 BYTE   PEND 
// 031   ----------------------------------------
Label_4_01006561:
 BYTE   N10  As1  v088
 BYTE   W12
 BYTE   N10
 BYTE   W12
 BYTE   N10
 BYTE   W12
 BYTE   Cn2
 BYTE   W12
 BYTE   N10
 BYTE   W12
 BYTE   N10
 BYTE   W12
 BYTE   N10
 BYTE   W12
 BYTE   N10
 BYTE   W12
 BYTE   PEND 
// 032   ----------------------------------------
 BYTE   PATT
  POIN2 Label_4_0100654E
// 033   ----------------------------------------
 BYTE   PATT
  POIN2 Label_4_01006561
// 034   ----------------------------------------
Label_4_0100657E:
 BYTE   N10  Gn1  v088
 BYTE   W12
 BYTE   N10
 BYTE   W12
 BYTE   N10
 BYTE   W12
 BYTE   An1
 BYTE   W12
 BYTE   N10
 BYTE   W12
 BYTE   N10
 BYTE   W12
 BYTE   As1
 BYTE   W12
 BYTE   N10
 BYTE   W12
 BYTE   PEND 
// 035   ----------------------------------------
Label_4_01006591:
 BYTE   N10  As1  v088
 BYTE   W12
 BYTE   Cn2
 BYTE   W12
 BYTE   N10
 BYTE   W12
 BYTE   N10
 BYTE   W12
 BYTE   Dn2
 BYTE   W12
 BYTE   N10
 BYTE   W12
 BYTE   En2
 BYTE   W12
 BYTE   N10
 BYTE   W12
 BYTE   PEND 
// 036   ----------------------------------------
Label_4_010065A4:
 BYTE   N10  An1  v088
 BYTE   W12
 BYTE   N10
 BYTE   W24
 BYTE   N10
 BYTE   W12
 BYTE   N10
 BYTE   W24
 BYTE   N10
 BYTE   W12
 BYTE   N10
 BYTE   W12
 BYTE   PEND 
// 037   ----------------------------------------
Label_4_010065B3:
 BYTE   W12
 BYTE   N11  Gn1  v088
 BYTE   W12
 BYTE   An1
 BYTE   W12
 BYTE   Cn2
 BYTE   W12
 BYTE   Fn2
 BYTE   W12
 BYTE   En2
 BYTE   W12
 BYTE   Dn2
 BYTE   W12
 BYTE   Cn2
 BYTE   W12
 BYTE   PEND 
// 038   ----------------------------------------
 BYTE   PATT
  POIN2 Label_4_01006482
// 039   ----------------------------------------
 BYTE   PATT
  POIN2 Label_4_01006482
// 040   ----------------------------------------
 BYTE   PATT
  POIN2 Label_4_0100649A
// 041   ----------------------------------------
 BYTE   PATT
  POIN2 Label_4_010064AD
// 042   ----------------------------------------
 BYTE   PATT
  POIN2 Label_4_01006482
// 043   ----------------------------------------
 BYTE   PATT
  POIN2 Label_4_01006482
// 044   ----------------------------------------
 BYTE   PATT
  POIN2 Label_4_010064CA
// 045   ----------------------------------------
 BYTE   PATT
  POIN2 Label_4_0100649A
// 046   ----------------------------------------
 BYTE   PATT
  POIN2 Label_4_01006482
// 047   ----------------------------------------
 BYTE   PATT
  POIN2 Label_4_01006482
// 048   ----------------------------------------
 BYTE   PATT
  POIN2 Label_4_0100649A
// 049   ----------------------------------------
 BYTE   PATT
  POIN2 Label_4_010064AD
// 050   ----------------------------------------
 BYTE   PATT
  POIN2 Label_4_01006482
// 051   ----------------------------------------
 BYTE   PATT
  POIN2 Label_4_01006482
// 052   ----------------------------------------
 BYTE   PATT
  POIN2 Label_4_010064CA
// 053   ----------------------------------------
 BYTE   PATT
  POIN2 Label_4_0100649A
// 054   ----------------------------------------
 BYTE   PATT
  POIN2 Label_4_01006482
// 055   ----------------------------------------
 BYTE   PATT
  POIN2 Label_4_0100650F
// 056   ----------------------------------------
 BYTE   PATT
  POIN2 Label_4_01006522
// 057   ----------------------------------------
 BYTE   PATT
  POIN2 Label_4_0100649A
// 058   ----------------------------------------
 BYTE   PATT
  POIN2 Label_4_01006482
// 059   ----------------------------------------
 BYTE   PATT
  POIN2 Label_4_0100650F
// 060   ----------------------------------------
 BYTE   PATT
  POIN2 Label_4_01006522
// 061   ----------------------------------------
 BYTE   PATT
  POIN2 Label_4_0100649A
// 062   ----------------------------------------
 BYTE   PATT
  POIN2 Label_4_0100654E
// 063   ----------------------------------------
 BYTE   PATT
  POIN2 Label_4_01006561
// 064   ----------------------------------------
 BYTE   PATT
  POIN2 Label_4_0100654E
// 065   ----------------------------------------
 BYTE   PATT
  POIN2 Label_4_01006561
// 066   ----------------------------------------
 BYTE   PATT
  POIN2 Label_4_0100657E
// 067   ----------------------------------------
 BYTE   PATT
  POIN2 Label_4_01006591
// 068   ----------------------------------------
 BYTE   PATT
  POIN2 Label_4_010065A4
// 069   ----------------------------------------
 BYTE   PATT
  POIN2 Label_4_010065B3
// 070   ----------------------------------------
Label_4_01006665:
 BYTE   N09  As1  v088
 BYTE   W12
 BYTE   N09
 BYTE   W12
 BYTE   N09
 BYTE   W12
 BYTE   N09
 BYTE   W12
 BYTE   N09
 BYTE   W12
 BYTE   N09
 BYTE   W12
 BYTE   N09
 BYTE   W12
 BYTE   N09
 BYTE   W12
 BYTE   PEND 
// 071   ----------------------------------------
Label_4_01006678:
 BYTE   N09  As1  v088
 BYTE   W12
 BYTE   N09
 BYTE   W12
 BYTE   N09
 BYTE   W12
 BYTE   N09
 BYTE   W12
 BYTE   N09
 BYTE   W12
 BYTE   N09
 BYTE   W12
 BYTE   An1
 BYTE   W12
 BYTE   As1
 BYTE   W12
 BYTE   PEND 
// 072   ----------------------------------------
Label_4_0100668B:
 BYTE   N09  Cn2  v088
 BYTE   W12
 BYTE   N09
 BYTE   W12
 BYTE   N09
 BYTE   W12
 BYTE   N09
 BYTE   W12
 BYTE   N09
 BYTE   W12
 BYTE   N09
 BYTE   W12
 BYTE   N09
 BYTE   W12
 BYTE   N09
 BYTE   W12
 BYTE   PEND 
// 073   ----------------------------------------
 BYTE   PATT
  POIN2 Label_4_0100668B
// 074   ----------------------------------------
Label_4_010066A3:
 BYTE   N09  Fn1  v088
 BYTE   W12
 BYTE   N09
 BYTE   W12
 BYTE   N09
 BYTE   W12
 BYTE   N09
 BYTE   W12
 BYTE   N09
 BYTE   W12
 BYTE   N09
 BYTE   W12
 BYTE   N09
 BYTE   W12
 BYTE   N09
 BYTE   W12
 BYTE   PEND 
// 075   ----------------------------------------
Label_4_010066B6:
 BYTE   N09  Fn1  v088
 BYTE   W12
 BYTE   N09
 BYTE   W12
 BYTE   N09
 BYTE   W12
 BYTE   N09
 BYTE   W12
 BYTE   N09
 BYTE   W12
 BYTE   N09
 BYTE   W12
 BYTE   N09
 BYTE   W12
 BYTE   Gn1
 BYTE   W12
 BYTE   PEND 
// 076   ----------------------------------------
Label_4_010066C9:
 BYTE   N09  An1  v088
 BYTE   W12
 BYTE   N09
 BYTE   W12
 BYTE   N09
 BYTE   W12
 BYTE   N09
 BYTE   W12
 BYTE   N09
 BYTE   W12
 BYTE   N09
 BYTE   W12
 BYTE   N09
 BYTE   W12
 BYTE   N09
 BYTE   W12
 BYTE   PEND 
// 077   ----------------------------------------
Label_4_010066DC:
 BYTE   N09  An1  v088
 BYTE   W12
 BYTE   N09
 BYTE   W12
 BYTE   Gn1
 BYTE   W12
 BYTE   An1
 BYTE   W12
 BYTE   Cn2
 BYTE   W12
 BYTE   As1
 BYTE   W12
 BYTE   An1
 BYTE   W12
 BYTE   Gn1
 BYTE   W12
 BYTE   PEND 
// 078   ----------------------------------------
 BYTE   PATT
  POIN2 Label_4_01006665
// 079   ----------------------------------------
 BYTE   PATT
  POIN2 Label_4_01006678
// 080   ----------------------------------------
 BYTE   PATT
  POIN2 Label_4_0100668B
// 081   ----------------------------------------
 BYTE   PATT
  POIN2 Label_4_0100668B
// 082   ----------------------------------------
 BYTE   PATT
  POIN2 Label_4_010066A3
// 083   ----------------------------------------
 BYTE   PATT
  POIN2 Label_4_010066B6
// 084   ----------------------------------------
 BYTE   PATT
  POIN2 Label_4_010066C9
// 085   ----------------------------------------
 BYTE   PATT
  POIN2 Label_4_010066DC
// 086   ----------------------------------------
 BYTE   PATT
  POIN2 Label_4_01006665
// 087   ----------------------------------------
 BYTE   PATT
  POIN2 Label_4_01006678
// 088   ----------------------------------------
 BYTE   PATT
  POIN2 Label_4_0100668B
// 089   ----------------------------------------
 BYTE   PATT
  POIN2 Label_4_0100668B
// 090   ----------------------------------------
 BYTE   PATT
  POIN2 Label_4_010066A3
// 091   ----------------------------------------
 BYTE   PATT
  POIN2 Label_4_010066B6
// 092   ----------------------------------------
 BYTE   PATT
  POIN2 Label_4_010066C9
// 093   ----------------------------------------
 BYTE   PATT
  POIN2 Label_4_010066DC
// 094   ----------------------------------------
 BYTE   PATT
  POIN2 Label_4_01006665
// 095   ----------------------------------------
 BYTE   PATT
  POIN2 Label_4_01006678
// 096   ----------------------------------------
 BYTE   PATT
  POIN2 Label_4_0100668B
// 097   ----------------------------------------
 BYTE   PATT
  POIN2 Label_4_0100668B
// 098   ----------------------------------------
 BYTE   PATT
  POIN2 Label_4_010066A3
// 099   ----------------------------------------
 BYTE   PATT
  POIN2 Label_4_010066B6
// 100   ----------------------------------------
 BYTE   PATT
  POIN2 Label_4_010066C9
// 101   ----------------------------------------
 BYTE   PATT
  POIN2 Label_4_010066DC
// 102   ----------------------------------------
 BYTE   PATT
  POIN2 Label_4_01006665
// 103   ----------------------------------------
 BYTE   PATT
  POIN2 Label_4_01006665
// 104   ----------------------------------------
Label_4_01006771:
 BYTE   N09  Cs2  v088
 BYTE   W12
 BYTE   N09
 BYTE   W12
 BYTE   N09
 BYTE   W12
 BYTE   N09
 BYTE   W12
 BYTE   N09
 BYTE   W12
 BYTE   N09
 BYTE   W12
 BYTE   N09
 BYTE   W12
 BYTE   N09
 BYTE   W12
 BYTE   PEND 
// 105   ----------------------------------------
 BYTE   PATT
  POIN2 Label_4_01006771
// 106   ----------------------------------------
Label_4_01006789:
 BYTE   N09  Dn1  v088
 BYTE   W12
 BYTE   N09
 BYTE   W12
 BYTE   N09
 BYTE   W12
 BYTE   N09
 BYTE   W12
 BYTE   N09
 BYTE   W12
 BYTE   N09
 BYTE   W12
 BYTE   N09
 BYTE   W12
 BYTE   N09
 BYTE   W12
 BYTE   PEND 
// 107   ----------------------------------------
 BYTE   PATT
  POIN2 Label_4_01006789
// 108   ----------------------------------------
 BYTE   PATT
  POIN2 Label_4_01006789
// 109   ----------------------------------------
 BYTE   N09  Dn1  v088
 BYTE   W12
 BYTE   N09
 BYTE   W12
 BYTE   N09
 BYTE   W12
 BYTE   N09
 BYTE   W12
 BYTE   N09
 BYTE   W12
 BYTE   N09
 BYTE   W12
 BYTE   N09
 BYTE   W12
 BYTE   N09
 BYTE   W09
 BYTE   VOL   58*EtrianOdyssey3TheFirstCampaignThegis_mvl/mxv
 BYTE   PAN   c_v+0
 BYTE   W03
// 110   ----------------------------------------
 BYTE   GoTo
  POIN2 Label_4_010063FA
// 111   ----------------------------------------
 BYTE   W04
 BYTE   FINE

//**************** Track 6 (Midi-Chn.5) ****************//

EtrianOdyssey3TheFirstCampaignThegis_006:
// 000   ----------------------------------------
 BYTE   KEYSH   EtrianOdyssey3TheFirstCampaignThegis_key+0
Label_5_010048B6:
 BYTE   VOICE   4
 BYTE   VOL   29*EtrianOdyssey3TheFirstCampaignThegis_mvl/mxv
 BYTE   PAN   c_v+61
 BYTE   N11  Fn4  v092
 BYTE   W12
 BYTE   N05  Dn4
 BYTE   W12
 BYTE   En4
 BYTE   W12
 BYTE   N11  Fn4
 BYTE   W12
 BYTE   N05  En4
 BYTE   W12
 BYTE   Dn4
 BYTE   W12
 BYTE   N11  Fn4
 BYTE   W12
 BYTE   N05  Dn4
 BYTE   W12
// 001   ----------------------------------------
 BYTE   En4
 BYTE   W12
 BYTE   N11  Gn4
 BYTE   W12
 BYTE   N05  Fn4
 BYTE   W12
 BYTE   En4
 BYTE   W12
 BYTE   N11  Fn4
 BYTE   W12
 BYTE   N05  En4
 BYTE   W12
 BYTE   Dn4
 BYTE   W12
 BYTE   Cn4
 BYTE   W12
// 002   ----------------------------------------
 BYTE   N11  An4
 BYTE   W12
 BYTE   N05  Fn4
 BYTE   W12
 BYTE   Gn4
 BYTE   W12
 BYTE   N11  An4
 BYTE   W12
 BYTE   N05  Gn4
 BYTE   W12
 BYTE   Fn4
 BYTE   W12
 BYTE   N11  An4
 BYTE   W12
 BYTE   N05  Fn4
 BYTE   W12
// 003   ----------------------------------------
 BYTE   Gn4
 BYTE   W12
 BYTE   N11  As4
 BYTE   W12
 BYTE   N05  An4
 BYTE   W12
 BYTE   Gn4
 BYTE   W12
 BYTE   N11  An4
 BYTE   W12
 BYTE   N05  Gn4
 BYTE   W12
 BYTE   Fn4
 BYTE   W12
 BYTE   En4
 BYTE   W12
// 004   ----------------------------------------
 BYTE   N28  An4
 BYTE   W36
 BYTE   N32  Gn4
 BYTE   W36
 BYTE   N05  Dn4
 BYTE   W24
// 005   ----------------------------------------
 BYTE   N68  As3
 BYTE   W96
// 006   ----------------------------------------
 BYTE   W96
// 007   ----------------------------------------
 BYTE   W96
// 008   ----------------------------------------
 BYTE   W96
// 009   ----------------------------------------
 BYTE   W96
// 010   ----------------------------------------
 BYTE   W96
// 011   ----------------------------------------
 BYTE   W96
// 012   ----------------------------------------
 BYTE   W96
// 013   ----------------------------------------
 BYTE   W96
// 014   ----------------------------------------
 BYTE   W96
// 015   ----------------------------------------
 BYTE   W96
// 016   ----------------------------------------
 BYTE   W96
// 017   ----------------------------------------
 BYTE   W96
// 018   ----------------------------------------
 BYTE   W96
// 019   ----------------------------------------
 BYTE   W96
// 020   ----------------------------------------
 BYTE   W96
// 021   ----------------------------------------
 BYTE   W96
// 022   ----------------------------------------
 BYTE   W96
// 023   ----------------------------------------
 BYTE   W96
// 024   ----------------------------------------
 BYTE   W96
// 025   ----------------------------------------
 BYTE   W96
// 026   ----------------------------------------
 BYTE   W96
// 027   ----------------------------------------
 BYTE   W96
// 028   ----------------------------------------
 BYTE   W96
// 029   ----------------------------------------
 BYTE   W96
// 030   ----------------------------------------
 BYTE   W96
// 031   ----------------------------------------
 BYTE   W96
// 032   ----------------------------------------
 BYTE   W96
// 033   ----------------------------------------
 BYTE   W96
// 034   ----------------------------------------
Label_5_01004939:
 BYTE   N06  Gn2  v092
 BYTE   W12
 BYTE   N06
 BYTE   W12
 BYTE   Gn3
 BYTE   W12
 BYTE   An2
 BYTE   W12
 BYTE   N06
 BYTE   W12
 BYTE   An3
 BYTE   W12
 BYTE   As2
 BYTE   W12
 BYTE   N06
 BYTE   W12
 BYTE   PEND 
// 035   ----------------------------------------
Label_5_0100494C:
 BYTE   N06  As3  v092
 BYTE   W12
 BYTE   Cn3
 BYTE   W12
 BYTE   N06
 BYTE   W12
 BYTE   Cn4
 BYTE   W12
 BYTE   Dn3
 BYTE   W12
 BYTE   N06
 BYTE   W12
 BYTE   En4
 BYTE   W12
 BYTE   En3
 BYTE   W12
 BYTE   PEND 
// 036   ----------------------------------------
Label_5_0100495F:
 BYTE   N06  An3  v092
 BYTE   W12
 BYTE   An2
 BYTE   W12
 BYTE   N06
 BYTE   W12
 BYTE   An3
 BYTE   W12
 BYTE   An2
 BYTE   W12
 BYTE   N05
 BYTE   W12
 BYTE   N06  An3
 BYTE   W12
 BYTE   An2
 BYTE   W12
 BYTE   PEND 
// 037   ----------------------------------------
Label_5_01004973:
 BYTE   W12
 BYTE   N11  Gn3  v092
 BYTE   W12
 BYTE   An3
 BYTE   W12
 BYTE   Cn4
 BYTE   W12
 BYTE   Fn4
 BYTE   W12
 BYTE   En4
 BYTE   W12
 BYTE   Dn4
 BYTE   W12
 BYTE   Cn4
 BYTE   W12
 BYTE   PEND 
// 038   ----------------------------------------
 BYTE   W96
// 039   ----------------------------------------
 BYTE   W96
// 040   ----------------------------------------
 BYTE   W96
// 041   ----------------------------------------
 BYTE   W96
// 042   ----------------------------------------
 BYTE   W96
// 043   ----------------------------------------
 BYTE   W96
// 044   ----------------------------------------
 BYTE   W96
// 045   ----------------------------------------
 BYTE   W96
// 046   ----------------------------------------
 BYTE   W96
// 047   ----------------------------------------
 BYTE   W96
// 048   ----------------------------------------
 BYTE   W96
// 049   ----------------------------------------
 BYTE   W96
// 050   ----------------------------------------
 BYTE   W96
// 051   ----------------------------------------
 BYTE   W96
// 052   ----------------------------------------
 BYTE   W96
// 053   ----------------------------------------
 BYTE   W96
// 054   ----------------------------------------
 BYTE   W96
// 055   ----------------------------------------
 BYTE   W96
// 056   ----------------------------------------
 BYTE   W96
// 057   ----------------------------------------
 BYTE   W96
// 058   ----------------------------------------
 BYTE   W96
// 059   ----------------------------------------
 BYTE   W96
// 060   ----------------------------------------
 BYTE   W96
// 061   ----------------------------------------
 BYTE   W96
// 062   ----------------------------------------
 BYTE   W96
// 063   ----------------------------------------
 BYTE   W96
// 064   ----------------------------------------
 BYTE   W96
// 065   ----------------------------------------
 BYTE   W96
// 066   ----------------------------------------
 BYTE   PATT
  POIN2 Label_5_01004939
// 067   ----------------------------------------
 BYTE   PATT
  POIN2 Label_5_0100494C
// 068   ----------------------------------------
 BYTE   PATT
  POIN2 Label_5_0100495F
// 069   ----------------------------------------
 BYTE   PATT
  POIN2 Label_5_01004973
// 070   ----------------------------------------
 BYTE   TIE  As2  v076
 BYTE   W96
// 071   ----------------------------------------
 BYTE   W68
 BYTE   W03
 BYTE   EOT
 BYTE   W01
 BYTE   N11  An2
 BYTE   W12
 BYTE   As2
 BYTE   W12
// 072   ----------------------------------------
 BYTE   TIE  Cn3
 BYTE   W96
// 073   ----------------------------------------
 BYTE   W44
 BYTE   W03
 BYTE   EOT
 BYTE   W01
 BYTE   N44
 BYTE   W48
// 074   ----------------------------------------
 BYTE   TIE  Fn3
 BYTE   W96
// 075   ----------------------------------------
 BYTE   W44
 BYTE   W03
 BYTE   EOT
 BYTE   W01
 BYTE   N32
 BYTE   W36
 BYTE   N11  Gn3
 BYTE   W12
// 076   ----------------------------------------
 BYTE   TIE  An3
 BYTE   W96
// 077   ----------------------------------------
 BYTE   W23
 BYTE   EOT
 BYTE   W01
 BYTE   N11  Gn3
 BYTE   W12
 BYTE   An3
 BYTE   W12
 BYTE   Cn4
 BYTE   W12
 BYTE   As3
 BYTE   W12
 BYTE   An3
 BYTE   W12
 BYTE   Gn3
 BYTE   W12
// 078   ----------------------------------------
 BYTE   TIE  As2
 BYTE   W96
// 079   ----------------------------------------
 BYTE   W68
 BYTE   W03
 BYTE   EOT
 BYTE   W01
 BYTE   N11  An2
 BYTE   W12
 BYTE   As2
 BYTE   W12
// 080   ----------------------------------------
 BYTE   TIE  Cn3
 BYTE   W96
// 081   ----------------------------------------
 BYTE   W44
 BYTE   W03
 BYTE   EOT
 BYTE   W01
 BYTE   N44
 BYTE   W48
// 082   ----------------------------------------
 BYTE   TIE  Fn3
 BYTE   W96
// 083   ----------------------------------------
 BYTE   W44
 BYTE   W03
 BYTE   EOT
 BYTE   W01
 BYTE   N32
 BYTE   W36
 BYTE   N11  Gn3
 BYTE   W12
// 084   ----------------------------------------
 BYTE   TIE  An3
 BYTE   W96
// 085   ----------------------------------------
 BYTE   W23
 BYTE   EOT
 BYTE   W01
 BYTE   N11  Gn3
 BYTE   W12
 BYTE   An3
 BYTE   W12
 BYTE   Cn4
 BYTE   W12
 BYTE   As3
 BYTE   W12
 BYTE   An3
 BYTE   W12
 BYTE   Gn3
 BYTE   W12
// 086   ----------------------------------------
 BYTE   TIE  As2
 BYTE   W96
// 087   ----------------------------------------
 BYTE   W68
 BYTE   W03
 BYTE   EOT
 BYTE   W01
 BYTE   N11  An2
 BYTE   W12
 BYTE   As2
 BYTE   W12
// 088   ----------------------------------------
 BYTE   TIE  Cn3
 BYTE   W96
// 089   ----------------------------------------
 BYTE   W44
 BYTE   W03
 BYTE   EOT
 BYTE   W01
 BYTE   N44
 BYTE   W48
// 090   ----------------------------------------
 BYTE   TIE  Fn3
 BYTE   W96
// 091   ----------------------------------------
 BYTE   W44
 BYTE   W03
 BYTE   EOT
 BYTE   W01
 BYTE   N32
 BYTE   W36
 BYTE   N11  Gn3
 BYTE   W12
// 092   ----------------------------------------
 BYTE   TIE  An3
 BYTE   W96
// 093   ----------------------------------------
 BYTE   W23
 BYTE   EOT
 BYTE   W01
 BYTE   N11  Gn3
 BYTE   W12
 BYTE   An3
 BYTE   W12
 BYTE   Cn4
 BYTE   W12
 BYTE   As3
 BYTE   W12
 BYTE   An3
 BYTE   W12
 BYTE   Gn3
 BYTE   W12
// 094   ----------------------------------------
 BYTE   TIE  As2
 BYTE   W96
// 095   ----------------------------------------
 BYTE   W68
 BYTE   W03
 BYTE   EOT
 BYTE   W01
 BYTE   N11  An2
 BYTE   W12
 BYTE   As2
 BYTE   W12
// 096   ----------------------------------------
 BYTE   TIE  Cn3
 BYTE   W96
// 097   ----------------------------------------
 BYTE   W44
 BYTE   W03
 BYTE   EOT
 BYTE   W01
 BYTE   N44
 BYTE   W48
// 098   ----------------------------------------
 BYTE   TIE  Fn3
 BYTE   W96
// 099   ----------------------------------------
 BYTE   W44
 BYTE   W03
 BYTE   EOT
 BYTE   W01
 BYTE   N32
 BYTE   W36
 BYTE   N11  Gn3
 BYTE   W12
// 100   ----------------------------------------
 BYTE   TIE  An3
 BYTE   W96
// 101   ----------------------------------------
 BYTE   W23
 BYTE   EOT
 BYTE   W01
 BYTE   N11  Gn3
 BYTE   W12
 BYTE   An3
 BYTE   W12
 BYTE   Cn4
 BYTE   W12
 BYTE   As3
 BYTE   W12
 BYTE   An3
 BYTE   W12
 BYTE   Gn3
 BYTE   W12
// 102   ----------------------------------------
 BYTE   As3
 BYTE   W12
 BYTE   N05  Fn3
 BYTE   W12
 BYTE   N11
 BYTE   W12
 BYTE   As3
 BYTE   W12
 BYTE   N05  Fn3
 BYTE   W12
 BYTE   N11
 BYTE   W12
 BYTE   As3
 BYTE   W12
 BYTE   N05  Fn3
 BYTE   W12
// 103   ----------------------------------------
 BYTE   N11
 BYTE   W12
 BYTE   As3
 BYTE   W12
 BYTE   N05  Fn3
 BYTE   W12
 BYTE   N11
 BYTE   W12
 BYTE   As3
 BYTE   W12
 BYTE   N05  Fn3
 BYTE   W12
 BYTE   N11
 BYTE   W12
 BYTE   As3
 BYTE   W12
// 104   ----------------------------------------
 BYTE   Cs4
 BYTE   W12
 BYTE   N05  Gs3
 BYTE   W12
 BYTE   N11
 BYTE   W12
 BYTE   Cs4
 BYTE   W12
 BYTE   N05  Gs3
 BYTE   W12
 BYTE   N11
 BYTE   W12
 BYTE   Cs4
 BYTE   W12
 BYTE   N05  Gs3
 BYTE   W12
// 105   ----------------------------------------
 BYTE   N11
 BYTE   W12
 BYTE   Cs4
 BYTE   W12
 BYTE   N05  Gs3
 BYTE   W12
 BYTE   N11
 BYTE   W12
 BYTE   Cs4
 BYTE   W12
 BYTE   N05  Gs3
 BYTE   W12
 BYTE   N11
 BYTE   W12
 BYTE   Cs4
 BYTE   W12
// 106   ----------------------------------------
Label_5_01004AD0:
 BYTE   N11  Dn4  v076
 BYTE   W12
 BYTE   N05  An3
 BYTE   W12
 BYTE   N11
 BYTE   W12
 BYTE   Dn4
 BYTE   W12
 BYTE   N05  An3
 BYTE   W12
 BYTE   N11
 BYTE   W12
 BYTE   Dn4
 BYTE   W12
 BYTE   N05  An3
 BYTE   W12
 BYTE   PEND 
// 107   ----------------------------------------
 BYTE   N11
 BYTE   W12
 BYTE   Dn4
 BYTE   W12
 BYTE   N05  An3
 BYTE   W12
 BYTE   N11
 BYTE   W12
 BYTE   Dn4
 BYTE   W12
 BYTE   N05  An3
 BYTE   W12
 BYTE   N11
 BYTE   W12
 BYTE   Dn4
 BYTE   W12
// 108   ----------------------------------------
 BYTE   PATT
  POIN2 Label_5_01004AD0
// 109   ----------------------------------------
 BYTE   N11  An3  v076
 BYTE   W12
 BYTE   Dn4
 BYTE   W12
 BYTE   N05  An3
 BYTE   W12
 BYTE   N11
 BYTE   W12
 BYTE   Dn4
 BYTE   W12
 BYTE   N05  An3
 BYTE   W12
 BYTE   N11
 BYTE   W12
 BYTE   Dn4
 BYTE   W11
 BYTE   VOL   29*EtrianOdyssey3TheFirstCampaignThegis_mvl/mxv
 BYTE   PAN   c_v+61
 BYTE   W01
// 110   ----------------------------------------
 BYTE   GoTo
  POIN2 Label_5_010048B6
// 111   ----------------------------------------
 BYTE   W04
 BYTE   FINE

//**************** Track 7 (Midi-Chn.6) ****************//

EtrianOdyssey3TheFirstCampaignThegis_007:
// 000   ----------------------------------------
 BYTE   KEYSH   EtrianOdyssey3TheFirstCampaignThegis_key+0
Label_6_010071F2:
 BYTE   VOICE   61
 BYTE   VOL   60*EtrianOdyssey3TheFirstCampaignThegis_mvl/mxv
 BYTE   PAN   c_v+0
 BYTE   VOL   60*EtrianOdyssey3TheFirstCampaignThegis_mvl/mxv
 BYTE   W96
// 001   ----------------------------------------
 BYTE   W96
// 002   ----------------------------------------
 BYTE   W96
// 003   ----------------------------------------
 BYTE   W96
// 004   ----------------------------------------
 BYTE   W96
// 005   ----------------------------------------
 BYTE   W96
// 006   ----------------------------------------
Label_6_01007200:
 BYTE   W12
 BYTE   N11  An2  v108
 BYTE   W12
 BYTE   N05  Cn3
 BYTE   W12
 BYTE   Dn3
 BYTE   W12
 BYTE   N32  Gn3
 BYTE   W36
 BYTE   Fn3
 BYTE   W12
 BYTE   PEND 
// 007   ----------------------------------------
Label_6_01007210:
 BYTE   W24
 BYTE   N32  Dn3  v108
 BYTE   W36
 BYTE   Cn3
 BYTE   W36
 BYTE   PEND 
// 008   ----------------------------------------
Label_6_01007218:
 BYTE   N56  An2  v108
 BYTE   W72
 BYTE   N05  Cn3
 BYTE   W12
 BYTE   N44  Gn2
 BYTE   W12
 BYTE   PEND 
// 009   ----------------------------------------
 BYTE   W36
 BYTE   Fn2
 BYTE   W60
// 010   ----------------------------------------
 BYTE   PATT
  POIN2 Label_6_01007200
// 011   ----------------------------------------
Label_6_0100722B:
 BYTE   W24
 BYTE   N32  Dn3  v108
 BYTE   W36
 BYTE   Cn4
 BYTE   W36
 BYTE   PEND 
// 012   ----------------------------------------
Label_6_01007233:
 BYTE   N56  An3  v108
 BYTE   W72
 BYTE   W01
 BYTE   N06
 BYTE   W04
 BYTE   N09  As3
 BYTE   W07
 BYTE   N44  An3
 BYTE   W12
 BYTE   PEND 
// 013   ----------------------------------------
 BYTE   W36
 BYTE   N42  Gn3
 BYTE   W60
// 014   ----------------------------------------
 BYTE   PATT
  POIN2 Label_6_01007200
// 015   ----------------------------------------
 BYTE   PATT
  POIN2 Label_6_01007210
// 016   ----------------------------------------
 BYTE   PATT
  POIN2 Label_6_01007218
// 017   ----------------------------------------
 BYTE   W36
 BYTE   N44  Fn2  v108
 BYTE   W60
// 018   ----------------------------------------
 BYTE   PATT
  POIN2 Label_6_01007200
// 019   ----------------------------------------
 BYTE   PATT
  POIN2 Label_6_0100722B
// 020   ----------------------------------------
 BYTE   PATT
  POIN2 Label_6_01007233
// 021   ----------------------------------------
 BYTE   W36
 BYTE   N42  Gn3  v108
 BYTE   W60
// 022   ----------------------------------------
Label_6_0100726D:
 BYTE   N11  Fn3  v108
 BYTE   W12
 BYTE   Gn3
 BYTE   W12
 BYTE   An3
 BYTE   W12
 BYTE   N17  Dn3
 BYTE   W24
 BYTE   N08
 BYTE   W12
 BYTE   N11  Cn3
 BYTE   W12
 BYTE   N32  Dn3
 BYTE   W12
 BYTE   PEND 
// 023   ----------------------------------------
Label_6_01007281:
 BYTE   W24
 BYTE   N11  An2  v108
 BYTE   W12
 BYTE   N23  Cn3
 BYTE   W24
 BYTE   Dn3
 BYTE   W36
 BYTE   PEND 
// 024   ----------------------------------------
Label_6_0100728C:
 BYTE   N11  Fn3  v108
 BYTE   W12
 BYTE   Gn3
 BYTE   W12
 BYTE   An3
 BYTE   W12
 BYTE   N20  Dn3
 BYTE   W24
 BYTE   N08
 BYTE   W12
 BYTE   N11  Cn3
 BYTE   W12
 BYTE   N32  Dn3
 BYTE   W12
 BYTE   PEND 
// 025   ----------------------------------------
Label_6_010072A0:
 BYTE   W24
 BYTE   N11  An2  v108
 BYTE   W12
 BYTE   N23  Gn2
 BYTE   W24
 BYTE   An2
 BYTE   W36
 BYTE   PEND 
// 026   ----------------------------------------
Label_6_010072AB:
 BYTE   N15  Fn3  v108
 BYTE   W12
 BYTE   Gn3
 BYTE   W12
 BYTE   N13  An3
 BYTE   W12
 BYTE   N20  Dn3
 BYTE   W24
 BYTE   N08
 BYTE   W12
 BYTE   N11  Cn3
 BYTE   W12
 BYTE   N32  Dn3
 BYTE   W12
 BYTE   PEND 
// 027   ----------------------------------------
 BYTE   PATT
  POIN2 Label_6_01007281
// 028   ----------------------------------------
Label_6_010072C5:
 BYTE   N15  Fn3  v108
 BYTE   W12
 BYTE   Gn3
 BYTE   W12
 BYTE   N13  An3
 BYTE   W12
 BYTE   N20  Dn3
 BYTE   W24
 BYTE   N08
 BYTE   W12
 BYTE   N17  Cn4
 BYTE   W12
 BYTE   N32  Dn4
 BYTE   W12
 BYTE   PEND 
// 029   ----------------------------------------
Label_6_010072DA:
 BYTE   W24
 BYTE   N11  An3  v108
 BYTE   W12
 BYTE   N20  Gn3
 BYTE   W24
 BYTE   N11  Dn3
 BYTE   W12
 BYTE   N05  Fn3
 BYTE   W12
 BYTE   Gn3
 BYTE   W12
 BYTE   PEND 
// 030   ----------------------------------------
Label_6_010072EB:
 BYTE   N32  An3  v108
 BYTE   W36
 BYTE   Gn3
 BYTE   W36
 BYTE   N11  Dn3
 BYTE   W24
 BYTE   PEND 
// 031   ----------------------------------------
Label_6_010072F5:
 BYTE   N32  Fn3  v108
 BYTE   W36
 BYTE   Dn3
 BYTE   W60
 BYTE   PEND 
// 032   ----------------------------------------
 BYTE   PATT
  POIN2 Label_6_010072EB
// 033   ----------------------------------------
Label_6_01007301:
 BYTE   N36  Fn3  v108
 BYTE   W36
 BYTE   N32  Dn3
 BYTE   W60
 BYTE   PEND 
// 034   ----------------------------------------
Label_6_01007309:
 BYTE   N11  As3  v108
 BYTE   W12
 BYTE   N05  An3
 BYTE   W12
 BYTE   N03  Gn3
 BYTE   W12
 BYTE   N11  An3
 BYTE   W12
 BYTE   N05  Gn3
 BYTE   W12
 BYTE   N03  Fn3
 BYTE   W12
 BYTE   N11  Gn3
 BYTE   W12
 BYTE   N05  Fn3
 BYTE   W12
 BYTE   PEND 
// 035   ----------------------------------------
Label_6_01007323:
 BYTE   N03  En3  v108
 BYTE   W12
 BYTE   N11  Fn3
 BYTE   W12
 BYTE   N05  En3
 BYTE   W12
 BYTE   N03  Dn3
 BYTE   W12
 BYTE   N11  En3
 BYTE   W12
 BYTE   N05  Dn3
 BYTE   W12
 BYTE   N03  Cn3
 BYTE   W12
 BYTE   As2
 BYTE   W12
 BYTE   PEND 
// 036   ----------------------------------------
 BYTE   W96
// 037   ----------------------------------------
 BYTE   W96
// 038   ----------------------------------------
 BYTE   PATT
  POIN2 Label_6_01007200
// 039   ----------------------------------------
 BYTE   PATT
  POIN2 Label_6_01007210
// 040   ----------------------------------------
 BYTE   PATT
  POIN2 Label_6_01007218
// 041   ----------------------------------------
 BYTE   W36
 BYTE   N44  Fn2  v108
 BYTE   W60
// 042   ----------------------------------------
 BYTE   PATT
  POIN2 Label_6_01007200
// 043   ----------------------------------------
 BYTE   PATT
  POIN2 Label_6_0100722B
// 044   ----------------------------------------
 BYTE   PATT
  POIN2 Label_6_01007233
// 045   ----------------------------------------
 BYTE   W36
 BYTE   N42  Gn3  v108
 BYTE   W60
// 046   ----------------------------------------
 BYTE   PATT
  POIN2 Label_6_01007200
// 047   ----------------------------------------
 BYTE   PATT
  POIN2 Label_6_01007210
// 048   ----------------------------------------
 BYTE   PATT
  POIN2 Label_6_01007218
// 049   ----------------------------------------
 BYTE   W36
 BYTE   N44  Fn2  v108
 BYTE   W60
// 050   ----------------------------------------
 BYTE   PATT
  POIN2 Label_6_01007200
// 051   ----------------------------------------
 BYTE   PATT
  POIN2 Label_6_0100722B
// 052   ----------------------------------------
 BYTE   PATT
  POIN2 Label_6_01007233
// 053   ----------------------------------------
 BYTE   W36
 BYTE   N42  Gn3  v108
 BYTE   W60
// 054   ----------------------------------------
 BYTE   PATT
  POIN2 Label_6_0100726D
// 055   ----------------------------------------
 BYTE   PATT
  POIN2 Label_6_01007281
// 056   ----------------------------------------
 BYTE   PATT
  POIN2 Label_6_0100728C
// 057   ----------------------------------------
 BYTE   PATT
  POIN2 Label_6_010072A0
// 058   ----------------------------------------
 BYTE   PATT
  POIN2 Label_6_010072AB
// 059   ----------------------------------------
 BYTE   PATT
  POIN2 Label_6_01007281
// 060   ----------------------------------------
 BYTE   PATT
  POIN2 Label_6_010072C5
// 061   ----------------------------------------
 BYTE   PATT
  POIN2 Label_6_010072DA
// 062   ----------------------------------------
 BYTE   PATT
  POIN2 Label_6_010072EB
// 063   ----------------------------------------
 BYTE   PATT
  POIN2 Label_6_010072F5
// 064   ----------------------------------------
 BYTE   PATT
  POIN2 Label_6_010072EB
// 065   ----------------------------------------
 BYTE   PATT
  POIN2 Label_6_01007301
// 066   ----------------------------------------
 BYTE   PATT
  POIN2 Label_6_01007309
// 067   ----------------------------------------
 BYTE   PATT
  POIN2 Label_6_01007323
// 068   ----------------------------------------
 BYTE   W96
// 069   ----------------------------------------
 BYTE   W96
// 070   ----------------------------------------
Label_6_010073D6:
 BYTE   N10  Gn3  v108
 BYTE   W12
 BYTE   N12  Gn2
 BYTE   W12
 BYTE   N14  Cn3
 BYTE   W12
 BYTE   N13  Fn3
 BYTE   W12
 BYTE   N14  Gn2
 BYTE   W12
 BYTE   N13  Cn3
 BYTE   W12
 BYTE   N11  Gn3
 BYTE   W12
 BYTE   N12  Gn2
 BYTE   W12
 BYTE   PEND 
// 071   ----------------------------------------
Label_6_010073F0:
 BYTE   N15  Cn3  v108
 BYTE   W12
 BYTE   N11  Fn3
 BYTE   W12
 BYTE   N15  Gn2
 BYTE   W12
 BYTE   N13  Cn3
 BYTE   W12
 BYTE   N08  Gn3
 BYTE   W12
 BYTE   N12  Gn2
 BYTE   W12
 BYTE   N10  Fn3
 BYTE   W12
 BYTE   N09  Gn2
 BYTE   W12
 BYTE   PEND 
// 072   ----------------------------------------
 BYTE   PATT
  POIN2 Label_6_010073D6
// 073   ----------------------------------------
 BYTE   PATT
  POIN2 Label_6_010073F0
// 074   ----------------------------------------
Label_6_01007414:
 BYTE   N11  An3  v108
 BYTE   W12
 BYTE   As3
 BYTE   W12
 BYTE   An3
 BYTE   W11
 BYTE   N07  Fn3
 BYTE   W24
 BYTE   W01
 BYTE   N11  Cn3
 BYTE   W12
 BYTE   N05  Dn3
 BYTE   W12
 BYTE   N56  Cn3
 BYTE   W12
 BYTE   PEND 
// 075   ----------------------------------------
 BYTE   W60
 BYTE   N11
 BYTE   W12
 BYTE   N05  Fn3
 BYTE   W12
 BYTE   N04  Gn3
 BYTE   W12
// 076   ----------------------------------------
 BYTE   N11  An3
 BYTE   W12
 BYTE   As3
 BYTE   W12
 BYTE   An3
 BYTE   W12
 BYTE   N07  Fn3
 BYTE   W24
 BYTE   N11  Dn4
 BYTE   W12
 BYTE   N92  Cn4
 BYTE   W24
// 077   ----------------------------------------
 BYTE   W96
// 078   ----------------------------------------
 BYTE   PATT
  POIN2 Label_6_010073D6
// 079   ----------------------------------------
 BYTE   PATT
  POIN2 Label_6_010073F0
// 080   ----------------------------------------
 BYTE   PATT
  POIN2 Label_6_010073D6
// 081   ----------------------------------------
 BYTE   PATT
  POIN2 Label_6_010073F0
// 082   ----------------------------------------
 BYTE   PATT
  POIN2 Label_6_01007414
// 083   ----------------------------------------
 BYTE   W60
 BYTE   N11  An3  v108
 BYTE   W12
 BYTE   N05  As3
 BYTE   W12
 BYTE   N04  An3
 BYTE   W12
// 084   ----------------------------------------
 BYTE   N11  Dn4
 BYTE   W12
 BYTE   N06  Cn4
 BYTE   W12
 BYTE   N04  Fn3
 BYTE   W12
 BYTE   N11  Dn4
 BYTE   W12
 BYTE   N12  Cn4
 BYTE   W12
 BYTE   N15  Fn4
 BYTE   W12
 BYTE   N13  En4
 BYTE   W12
 BYTE   N56  Cn4
 BYTE   W12
// 085   ----------------------------------------
 BYTE   W60
 BYTE   N13  An3
 BYTE   W12
 BYTE   N14  As3
 BYTE   W12
 BYTE   N24  Cn4
 BYTE   W12
// 086   ----------------------------------------
Label_6_0100748A:
 BYTE   W12
 BYTE   N09  Fn3  v108
 BYTE   W12
 BYTE   N13  Gn3
 BYTE   W12
 BYTE   Cn4
 BYTE   W12
 BYTE   N15  Fn3
 BYTE   W12
 BYTE   N14  Gn3
 BYTE   W12
 BYTE   N15  Cn4
 BYTE   W12
 BYTE   N13  Fn3
 BYTE   W12
 BYTE   PEND 
// 087   ----------------------------------------
 BYTE   N12  Gn3
 BYTE   W12
 BYTE   N14  Dn4
 BYTE   W12
 BYTE   N12  Cn4
 BYTE   W12
 BYTE   Fn3
 BYTE   W24
 BYTE   N12
 BYTE   W12
 BYTE   Gn3
 BYTE   W12
 BYTE   N24  Cn4
 BYTE   W12
// 088   ----------------------------------------
 BYTE   PATT
  POIN2 Label_6_0100748A
// 089   ----------------------------------------
 BYTE   N12  Gn3  v108
 BYTE   W12
 BYTE   N14  Dn4
 BYTE   W12
 BYTE   N12  Cn4
 BYTE   W12
 BYTE   Fn3
 BYTE   W24
 BYTE   N11  An3
 BYTE   W12
 BYTE   N15  As3
 BYTE   W12
 BYTE   N36  Cn4
 BYTE   W12
// 090   ----------------------------------------
Label_6_010074CD:
 BYTE   W24
 BYTE   N13  Fn3  v108
 BYTE   W24
 BYTE   N11  En3
 BYTE   W12
 BYTE   N07  Fn3
 BYTE   W24
 BYTE   N56  Cn4
 BYTE   W12
 BYTE   PEND 
// 091   ----------------------------------------
 BYTE   W60
 BYTE   N11
 BYTE   W12
 BYTE   Dn4
 BYTE   W12
 BYTE   N32  Cn4
 BYTE   W12
// 092   ----------------------------------------
 BYTE   W24
 BYTE   N11  Fn4
 BYTE   W24
 BYTE   N12  En4
 BYTE   W12
 BYTE   N07  Cn4
 BYTE   W24
 BYTE   N23  An3
 BYTE   W12
// 093   ----------------------------------------
 BYTE   W12
 BYTE   N11  As3
 BYTE   W12
 BYTE   N09  Dn4
 BYTE   W12
 BYTE   N23  Cn4
 BYTE   W24
 BYTE   N11  Fn3
 BYTE   W12
 BYTE   En3
 BYTE   W12
 BYTE   Fn3
 BYTE   W12
// 094   ----------------------------------------
Label_6_01007502:
 BYTE   N11  Cn4  v108
 BYTE   W12
 BYTE   En3
 BYTE   W12
 BYTE   Fn3
 BYTE   W12
 BYTE   Cn4
 BYTE   W12
 BYTE   En3
 BYTE   W12
 BYTE   Fn3
 BYTE   W12
 BYTE   Cn4
 BYTE   W12
 BYTE   En3
 BYTE   W12
 BYTE   PEND 
// 095   ----------------------------------------
 BYTE   Fn3
 BYTE   W12
 BYTE   Cn4
 BYTE   W12
 BYTE   Dn4
 BYTE   W12
 BYTE   Cn4
 BYTE   W24
 BYTE   Fn3
 BYTE   W12
 BYTE   En3
 BYTE   W12
 BYTE   Fn3
 BYTE   W12
// 096   ----------------------------------------
 BYTE   PATT
  POIN2 Label_6_01007502
// 097   ----------------------------------------
 BYTE   N11  Fn3  v108
 BYTE   W12
 BYTE   Cn4
 BYTE   W12
 BYTE   Dn4
 BYTE   W12
 BYTE   Cn4
 BYTE   W24
 BYTE   An3
 BYTE   W12
 BYTE   N15  As3
 BYTE   W12
 BYTE   N36  Cn4
 BYTE   W12
// 098   ----------------------------------------
 BYTE   PATT
  POIN2 Label_6_010074CD
// 099   ----------------------------------------
 BYTE   W60
 BYTE   N15  Cn4  v108
 BYTE   W12
 BYTE   N14  Dn4
 BYTE   W12
 BYTE   N36  Cn4
 BYTE   W12
// 100   ----------------------------------------
 BYTE   W24
 BYTE   N12  Fn4
 BYTE   W24
 BYTE   N14  Gn4
 BYTE   W12
 BYTE   N09  Cn4
 BYTE   W24
 BYTE   N24  An4
 BYTE   W12
// 101   ----------------------------------------
 BYTE   W12
 BYTE   N07  As4
 BYTE   W12
 BYTE   N05  An4
 BYTE   W12
 BYTE   N24  Gn4
 BYTE   W24
 BYTE   N11  As4
 BYTE   W12
 BYTE   N08  An4
 BYTE   W12
 BYTE   N68  Fn4
 BYTE   W12
// 102   ----------------------------------------
 BYTE   W60
 BYTE   N15  Cn4
 BYTE   W24
 BYTE   N23  Fn4
 BYTE   W12
// 103   ----------------------------------------
 BYTE   W12
 BYTE   N07  Gn4
 BYTE   W12
 BYTE   N40  Fn4
 BYTE   W72
// 104   ----------------------------------------
 BYTE   N56
 BYTE   W72
 BYTE   N02  Gn4  v080
 BYTE   W03
 BYTE   N05  Gs4  v100
 BYTE   W09
 BYTE   N17  Gn4  v108
 BYTE   W12
// 105   ----------------------------------------
 BYTE   W12
 BYTE   N14  Fn4  v100
 BYTE   W24
 BYTE   N05
 BYTE   W12
 BYTE   N02
 BYTE   W03
 BYTE   N14  Gn4  v096
 BYTE   W09
 BYTE   N11  Fn4  v092
 BYTE   W12
 BYTE   N14  Gn4  v088
 BYTE   W12
 BYTE   N06  Fn4  v104
 BYTE   W12
// 106   ----------------------------------------
 BYTE   W12
 BYTE   N05  Cn4  v100
 BYTE   W12
 BYTE   N02
 BYTE   W03
 BYTE   N72  Dn4  v108
 BYTE   W68
 BYTE   W01
// 107   ----------------------------------------
 BYTE   W06
 BYTE   N05  Cn4
 BYTE   W06
 BYTE   Fn4
 BYTE   W06
 BYTE   Dn4
 BYTE   W06
 BYTE   Cn4
 BYTE   W06
 BYTE   An3
 BYTE   W06
 BYTE   Dn4
 BYTE   W06
 BYTE   Cn4
 BYTE   W06
 BYTE   An3
 BYTE   W06
 BYTE   Fn3
 BYTE   W06
 BYTE   Cn4
 BYTE   W06
 BYTE   An3
 BYTE   W06
 BYTE   Fn3
 BYTE   W06
 BYTE   Dn3
 BYTE   W06
 BYTE   Gn3
 BYTE   W06
 BYTE   Fn3
 BYTE   W06
// 108   ----------------------------------------
 BYTE   Dn3
 BYTE   W06
 BYTE   Cn3
 BYTE   W06
 BYTE   An2
 BYTE   W06
 BYTE   Gn2
 BYTE   W06
 BYTE   Fn2
 BYTE   W06
 BYTE   An2
 BYTE   W06
 BYTE   Cn3
 BYTE   W06
 BYTE   Dn3
 BYTE   W06
 BYTE   An2
 BYTE   W06
 BYTE   Cn3
 BYTE   W06
 BYTE   Dn3
 BYTE   W06
 BYTE   Fn3
 BYTE   W06
 BYTE   Dn3
 BYTE   W06
 BYTE   Fn3
 BYTE   W06
 BYTE   Gn3
 BYTE   W06
 BYTE   An3
 BYTE   W06
// 109   ----------------------------------------
 BYTE   Fn3
 BYTE   W06
 BYTE   An3
 BYTE   W06
 BYTE   Cn4
 BYTE   W06
 BYTE   Dn4
 BYTE   W06
 BYTE   Fn4
 BYTE   W06
 BYTE   Dn4
 BYTE   W06
 BYTE   Fn4
 BYTE   W06
 BYTE   Gn4
 BYTE   W06
 BYTE   An4
 BYTE   W06
 BYTE   Fn4
 BYTE   W06
 BYTE   Gn4
 BYTE   W06
 BYTE   An4
 BYTE   W06
 BYTE   Cn5
 BYTE   W06
 BYTE   An4
 BYTE   W06
 BYTE   Cn5
 BYTE   W06
 BYTE   Dn5
 BYTE   W05
 BYTE   PAN   c_v+0
 BYTE   W01
// 110   ----------------------------------------
 BYTE   GoTo
  POIN2 Label_6_010071F2
// 111   ----------------------------------------
 BYTE   W04
 BYTE   FINE

//**************** Track 8 (Midi-Chn.7) ****************//

EtrianOdyssey3TheFirstCampaignThegis_008:
// 000   ----------------------------------------
 BYTE   KEYSH   EtrianOdyssey3TheFirstCampaignThegis_key+0
Label_7_010098E2:
 BYTE   VOICE   61
 BYTE   VOL   34*EtrianOdyssey3TheFirstCampaignThegis_mvl/mxv
 BYTE   PAN   c_v-61
 BYTE   W96
// 001   ----------------------------------------
 BYTE   W96
// 002   ----------------------------------------
 BYTE   W96
// 003   ----------------------------------------
 BYTE   W96
// 004   ----------------------------------------
 BYTE   W96
// 005   ----------------------------------------
 BYTE   W96
// 006   ----------------------------------------
 BYTE   W06
 BYTE   BEND   c_v+1
 BYTE   W16
 BYTE   N11  An2  v100
 BYTE   W12
 BYTE   N05  Cn3
 BYTE   W12
 BYTE   Dn3
 BYTE   W12
 BYTE   N32  Gn3
 BYTE   W36
 BYTE   Fn3
 BYTE   W02
// 007   ----------------------------------------
Label_7_01009900:
 BYTE   W32
 BYTE   W02
 BYTE   N32  Dn3  v100
 BYTE   W36
 BYTE   Cn3
 BYTE   W24
 BYTE   W02
 BYTE   PEND 
// 008   ----------------------------------------
Label_7_0100990A:
 BYTE   W10
 BYTE   N56  An2  v100
 BYTE   W72
 BYTE   N05  Cn3
 BYTE   W12
 BYTE   N44  Gn2
 BYTE   W02
 BYTE   PEND 
// 009   ----------------------------------------
Label_7_01009916:
 BYTE   W44
 BYTE   W02
 BYTE   N44  Fn2  v100
 BYTE   W48
 BYTE   W02
 BYTE   PEND 
// 010   ----------------------------------------
Label_7_0100991E:
 BYTE   W22
 BYTE   N11  An2  v100
 BYTE   W12
 BYTE   N05  Cn3
 BYTE   W12
 BYTE   Dn3
 BYTE   W12
 BYTE   N32  Gn3
 BYTE   W36
 BYTE   Fn3
 BYTE   W02
 BYTE   PEND 
// 011   ----------------------------------------
Label_7_0100992E:
 BYTE   W32
 BYTE   W02
 BYTE   N32  Dn3  v100
 BYTE   W36
 BYTE   Cn4
 BYTE   W24
 BYTE   W02
 BYTE   PEND 
// 012   ----------------------------------------
Label_7_01009938:
 BYTE   W10
 BYTE   N56  An3  v100
 BYTE   W72
 BYTE   W02
 BYTE   N06
 BYTE   W04
 BYTE   N09  As3
 BYTE   W06
 BYTE   N44  An3
 BYTE   W02
 BYTE   PEND 
// 013   ----------------------------------------
Label_7_01009947:
 BYTE   W44
 BYTE   W02
 BYTE   N42  Gn3  v100
 BYTE   W48
 BYTE   W02
 BYTE   PEND 
// 014   ----------------------------------------
 BYTE   PATT
  POIN2 Label_7_0100991E
// 015   ----------------------------------------
 BYTE   PATT
  POIN2 Label_7_01009900
// 016   ----------------------------------------
 BYTE   PATT
  POIN2 Label_7_0100990A
// 017   ----------------------------------------
 BYTE   PATT
  POIN2 Label_7_01009916
// 018   ----------------------------------------
 BYTE   PATT
  POIN2 Label_7_0100991E
// 019   ----------------------------------------
 BYTE   PATT
  POIN2 Label_7_0100992E
// 020   ----------------------------------------
 BYTE   PATT
  POIN2 Label_7_01009938
// 021   ----------------------------------------
 BYTE   PATT
  POIN2 Label_7_01009947
// 022   ----------------------------------------
Label_7_01009977:
 BYTE   W10
 BYTE   N11  Fn3  v100
 BYTE   W12
 BYTE   Gn3
 BYTE   W12
 BYTE   An3
 BYTE   W12
 BYTE   N17  Dn3
 BYTE   W24
 BYTE   N08
 BYTE   W12
 BYTE   N11  Cn3
 BYTE   W12
 BYTE   N32  Dn3
 BYTE   W02
 BYTE   PEND 
// 023   ----------------------------------------
Label_7_0100998C:
 BYTE   W32
 BYTE   W02
 BYTE   N11  An2  v100
 BYTE   W12
 BYTE   N23  Cn3
 BYTE   W24
 BYTE   Dn3
 BYTE   W24
 BYTE   W02
 BYTE   PEND 
// 024   ----------------------------------------
Label_7_01009999:
 BYTE   W10
 BYTE   N11  Fn3  v100
 BYTE   W12
 BYTE   Gn3
 BYTE   W12
 BYTE   An3
 BYTE   W12
 BYTE   N20  Dn3
 BYTE   W24
 BYTE   N08
 BYTE   W12
 BYTE   N11  Cn3
 BYTE   W12
 BYTE   N32  Dn3
 BYTE   W02
 BYTE   PEND 
// 025   ----------------------------------------
Label_7_010099AE:
 BYTE   W32
 BYTE   W02
 BYTE   N11  An2  v100
 BYTE   W12
 BYTE   N23  Gn2
 BYTE   W24
 BYTE   An2
 BYTE   W24
 BYTE   W02
 BYTE   PEND 
// 026   ----------------------------------------
Label_7_010099BB:
 BYTE   W10
 BYTE   N15  Fn3  v100
 BYTE   W12
 BYTE   Gn3
 BYTE   W12
 BYTE   N13  An3
 BYTE   W12
 BYTE   N20  Dn3
 BYTE   W24
 BYTE   N08
 BYTE   W12
 BYTE   N11  Cn3
 BYTE   W12
 BYTE   N32  Dn3
 BYTE   W02
 BYTE   PEND 
// 027   ----------------------------------------
 BYTE   PATT
  POIN2 Label_7_0100998C
// 028   ----------------------------------------
Label_7_010099D6:
 BYTE   W10
 BYTE   N15  Fn3  v100
 BYTE   W12
 BYTE   Gn3
 BYTE   W12
 BYTE   N13  An3
 BYTE   W12
 BYTE   N20  Dn3
 BYTE   W24
 BYTE   N08
 BYTE   W12
 BYTE   N17  Cn4
 BYTE   W12
 BYTE   N32  Dn4
 BYTE   W02
 BYTE   PEND 
// 029   ----------------------------------------
Label_7_010099EC:
 BYTE   W32
 BYTE   W02
 BYTE   N11  An3  v100
 BYTE   W12
 BYTE   N20  Gn3
 BYTE   W24
 BYTE   N11  Dn3
 BYTE   W12
 BYTE   N05  Fn3
 BYTE   W12
 BYTE   Gn3
 BYTE   W02
 BYTE   PEND 
// 030   ----------------------------------------
Label_7_010099FE:
 BYTE   W10
 BYTE   N32  An3  v100
 BYTE   W36
 BYTE   Gn3
 BYTE   W36
 BYTE   N11  Dn3
 BYTE   W14
 BYTE   PEND 
// 031   ----------------------------------------
Label_7_01009A09:
 BYTE   W10
 BYTE   N32  Fn3  v100
 BYTE   W36
 BYTE   Dn3
 BYTE   W48
 BYTE   W02
 BYTE   PEND 
// 032   ----------------------------------------
 BYTE   PATT
  POIN2 Label_7_010099FE
// 033   ----------------------------------------
Label_7_01009A17:
 BYTE   W10
 BYTE   N36  Fn3  v100
 BYTE   W36
 BYTE   N32  Dn3
 BYTE   W48
 BYTE   W02
 BYTE   PEND 
// 034   ----------------------------------------
Label_7_01009A21:
 BYTE   W10
 BYTE   N11  As3  v100
 BYTE   W12
 BYTE   N05  An3
 BYTE   W12
 BYTE   N03  Gn3
 BYTE   W12
 BYTE   N11  An3
 BYTE   W12
 BYTE   N05  Gn3
 BYTE   W12
 BYTE   N03  Fn3
 BYTE   W12
 BYTE   N11  Gn3
 BYTE   W12
 BYTE   N05  Fn3
 BYTE   W02
 BYTE   PEND 
// 035   ----------------------------------------
Label_7_01009A3C:
 BYTE   W10
 BYTE   N03  En3  v100
 BYTE   W12
 BYTE   N11  Fn3
 BYTE   W12
 BYTE   N05  En3
 BYTE   W12
 BYTE   N03  Dn3
 BYTE   W12
 BYTE   N11  En3
 BYTE   W12
 BYTE   N05  Dn3
 BYTE   W12
 BYTE   N03  Cn3
 BYTE   W12
 BYTE   As2
 BYTE   W02
 BYTE   PEND 
// 036   ----------------------------------------
 BYTE   W96
// 037   ----------------------------------------
 BYTE   W96
// 038   ----------------------------------------
 BYTE   PATT
  POIN2 Label_7_0100991E
// 039   ----------------------------------------
 BYTE   PATT
  POIN2 Label_7_01009900
// 040   ----------------------------------------
 BYTE   PATT
  POIN2 Label_7_0100990A
// 041   ----------------------------------------
 BYTE   PATT
  POIN2 Label_7_01009916
// 042   ----------------------------------------
 BYTE   PATT
  POIN2 Label_7_0100991E
// 043   ----------------------------------------
 BYTE   PATT
  POIN2 Label_7_0100992E
// 044   ----------------------------------------
 BYTE   PATT
  POIN2 Label_7_01009938
// 045   ----------------------------------------
 BYTE   PATT
  POIN2 Label_7_01009947
// 046   ----------------------------------------
 BYTE   PATT
  POIN2 Label_7_0100991E
// 047   ----------------------------------------
 BYTE   PATT
  POIN2 Label_7_01009900
// 048   ----------------------------------------
 BYTE   PATT
  POIN2 Label_7_0100990A
// 049   ----------------------------------------
 BYTE   PATT
  POIN2 Label_7_01009916
// 050   ----------------------------------------
 BYTE   PATT
  POIN2 Label_7_0100991E
// 051   ----------------------------------------
 BYTE   PATT
  POIN2 Label_7_0100992E
// 052   ----------------------------------------
 BYTE   PATT
  POIN2 Label_7_01009938
// 053   ----------------------------------------
 BYTE   PATT
  POIN2 Label_7_01009947
// 054   ----------------------------------------
 BYTE   PATT
  POIN2 Label_7_01009977
// 055   ----------------------------------------
 BYTE   PATT
  POIN2 Label_7_0100998C
// 056   ----------------------------------------
 BYTE   PATT
  POIN2 Label_7_01009999
// 057   ----------------------------------------
 BYTE   PATT
  POIN2 Label_7_010099AE
// 058   ----------------------------------------
 BYTE   PATT
  POIN2 Label_7_010099BB
// 059   ----------------------------------------
 BYTE   PATT
  POIN2 Label_7_0100998C
// 060   ----------------------------------------
 BYTE   PATT
  POIN2 Label_7_010099D6
// 061   ----------------------------------------
 BYTE   PATT
  POIN2 Label_7_010099EC
// 062   ----------------------------------------
 BYTE   PATT
  POIN2 Label_7_010099FE
// 063   ----------------------------------------
 BYTE   PATT
  POIN2 Label_7_01009A09
// 064   ----------------------------------------
 BYTE   PATT
  POIN2 Label_7_010099FE
// 065   ----------------------------------------
 BYTE   PATT
  POIN2 Label_7_01009A17
// 066   ----------------------------------------
 BYTE   PATT
  POIN2 Label_7_01009A21
// 067   ----------------------------------------
 BYTE   PATT
  POIN2 Label_7_01009A3C
// 068   ----------------------------------------
 BYTE   W96
// 069   ----------------------------------------
 BYTE   W96
// 070   ----------------------------------------
Label_7_01009AF0:
 BYTE   W10
 BYTE   N10  Gn3  v100
 BYTE   W12
 BYTE   N12  Gn2
 BYTE   W12
 BYTE   N14  Cn3
 BYTE   W12
 BYTE   N13  Fn3
 BYTE   W12
 BYTE   N14  Gn2
 BYTE   W12
 BYTE   N13  Cn3
 BYTE   W12
 BYTE   N11  Gn3
 BYTE   W12
 BYTE   N12  Gn2
 BYTE   W02
 BYTE   PEND 
// 071   ----------------------------------------
Label_7_01009B0B:
 BYTE   W10
 BYTE   N15  Cn3  v100
 BYTE   W12
 BYTE   N11  Fn3
 BYTE   W12
 BYTE   N15  Gn2
 BYTE   W12
 BYTE   N13  Cn3
 BYTE   W12
 BYTE   N08  Gn3
 BYTE   W12
 BYTE   N12  Gn2
 BYTE   W12
 BYTE   N10  Fn3
 BYTE   W12
 BYTE   N09  Gn2
 BYTE   W02
 BYTE   PEND 
// 072   ----------------------------------------
 BYTE   PATT
  POIN2 Label_7_01009AF0
// 073   ----------------------------------------
 BYTE   PATT
  POIN2 Label_7_01009B0B
// 074   ----------------------------------------
Label_7_01009B30:
 BYTE   W10
 BYTE   N11  An3  v100
 BYTE   W12
 BYTE   As3
 BYTE   W12
 BYTE   An3
 BYTE   W12
 BYTE   N07  Fn3
 BYTE   W24
 BYTE   N11  Cn3
 BYTE   W12
 BYTE   N05  Dn3
 BYTE   W12
 BYTE   N56  Cn3
 BYTE   W02
 BYTE   PEND 
// 075   ----------------------------------------
 BYTE   W68
 BYTE   W02
 BYTE   N11
 BYTE   W12
 BYTE   N05  Fn3
 BYTE   W12
 BYTE   N04  Gn3
 BYTE   W02
// 076   ----------------------------------------
 BYTE   W10
 BYTE   N11  An3
 BYTE   W12
 BYTE   As3
 BYTE   W12
 BYTE   An3
 BYTE   W12
 BYTE   N07  Fn3
 BYTE   W24
 BYTE   N11  Dn4
 BYTE   W12
 BYTE   N92  Cn4
 BYTE   W14
// 077   ----------------------------------------
 BYTE   W96
// 078   ----------------------------------------
 BYTE   PATT
  POIN2 Label_7_01009AF0
// 079   ----------------------------------------
 BYTE   PATT
  POIN2 Label_7_01009B0B
// 080   ----------------------------------------
 BYTE   PATT
  POIN2 Label_7_01009AF0
// 081   ----------------------------------------
 BYTE   PATT
  POIN2 Label_7_01009B0B
// 082   ----------------------------------------
 BYTE   PATT
  POIN2 Label_7_01009B30
// 083   ----------------------------------------
 BYTE   W68
 BYTE   W02
 BYTE   N11  An3  v100
 BYTE   W12
 BYTE   N05  As3
 BYTE   W12
 BYTE   N04  An3
 BYTE   W02
// 084   ----------------------------------------
 BYTE   W10
 BYTE   N11  Dn4
 BYTE   W12
 BYTE   N06  Cn4
 BYTE   W12
 BYTE   N04  Fn3
 BYTE   W12
 BYTE   N11  Dn4
 BYTE   W12
 BYTE   N12  Cn4
 BYTE   W12
 BYTE   N15  Fn4
 BYTE   W12
 BYTE   N12  En4
 BYTE   W12
 BYTE   N56  Cn4
 BYTE   W02
// 085   ----------------------------------------
 BYTE   W68
 BYTE   W02
 BYTE   N13  An3
 BYTE   W12
 BYTE   N14  As3
 BYTE   W12
 BYTE   N24  Cn4
 BYTE   W02
// 086   ----------------------------------------
Label_7_01009BAB:
 BYTE   W22
 BYTE   N09  Fn3  v100
 BYTE   W12
 BYTE   N13  Gn3
 BYTE   W12
 BYTE   Cn4
 BYTE   W12
 BYTE   N15  Fn3
 BYTE   W12
 BYTE   N14  Gn3
 BYTE   W12
 BYTE   N15  Cn4
 BYTE   W12
 BYTE   N13  Fn3
 BYTE   W02
 BYTE   PEND 
// 087   ----------------------------------------
 BYTE   W10
 BYTE   N12  Gn3
 BYTE   W12
 BYTE   N14  Dn4
 BYTE   W12
 BYTE   N12  Cn4
 BYTE   W12
 BYTE   Fn3
 BYTE   W24
 BYTE   N12
 BYTE   W12
 BYTE   Gn3
 BYTE   W12
 BYTE   N24  Cn4
 BYTE   W02
// 088   ----------------------------------------
 BYTE   PATT
  POIN2 Label_7_01009BAB
// 089   ----------------------------------------
 BYTE   W10
 BYTE   N12  Gn3  v100
 BYTE   W12
 BYTE   N14  Dn4
 BYTE   W12
 BYTE   N12  Cn4
 BYTE   W12
 BYTE   Fn3
 BYTE   W24
 BYTE   N11  An3
 BYTE   W12
 BYTE   N15  As3
 BYTE   W12
 BYTE   N36  Cn4
 BYTE   W02
// 090   ----------------------------------------
Label_7_01009BF0:
 BYTE   W32
 BYTE   W02
 BYTE   N13  Fn3  v100
 BYTE   W24
 BYTE   N11  En3
 BYTE   W12
 BYTE   N07  Fn3
 BYTE   W24
 BYTE   N56  Cn4
 BYTE   W02
 BYTE   PEND 
// 091   ----------------------------------------
 BYTE   W68
 BYTE   W02
 BYTE   N11
 BYTE   W12
 BYTE   Dn4
 BYTE   W12
 BYTE   N32  Cn4
 BYTE   W02
// 092   ----------------------------------------
 BYTE   W32
 BYTE   W02
 BYTE   N11  Fn4
 BYTE   W24
 BYTE   N12  En4
 BYTE   W12
 BYTE   N07  Cn4
 BYTE   W24
 BYTE   N23  An3
 BYTE   W02
// 093   ----------------------------------------
 BYTE   W22
 BYTE   N11  As3
 BYTE   W12
 BYTE   N09  Dn4
 BYTE   W12
 BYTE   N23  Cn4
 BYTE   W24
 BYTE   N11  Fn3
 BYTE   W12
 BYTE   En3
 BYTE   W12
 BYTE   Fn3
 BYTE   W02
// 094   ----------------------------------------
Label_7_01009C28:
 BYTE   W10
 BYTE   N11  Cn4  v100
 BYTE   W12
 BYTE   En3
 BYTE   W12
 BYTE   Fn3
 BYTE   W12
 BYTE   Cn4
 BYTE   W12
 BYTE   En3
 BYTE   W12
 BYTE   Fn3
 BYTE   W12
 BYTE   Cn4
 BYTE   W12
 BYTE   En3
 BYTE   W02
 BYTE   PEND 
// 095   ----------------------------------------
 BYTE   W10
 BYTE   Fn3
 BYTE   W12
 BYTE   Cn4
 BYTE   W12
 BYTE   Dn4
 BYTE   W12
 BYTE   Cn4
 BYTE   W24
 BYTE   Fn3
 BYTE   W12
 BYTE   En3
 BYTE   W12
 BYTE   Fn3
 BYTE   W02
// 096   ----------------------------------------
 BYTE   PATT
  POIN2 Label_7_01009C28
// 097   ----------------------------------------
 BYTE   W10
 BYTE   N11  Fn3  v100
 BYTE   W12
 BYTE   Cn4
 BYTE   W12
 BYTE   Dn4
 BYTE   W12
 BYTE   Cn4
 BYTE   W24
 BYTE   An3
 BYTE   W12
 BYTE   N15  As3
 BYTE   W12
 BYTE   N36  Cn4
 BYTE   W02
// 098   ----------------------------------------
 BYTE   PATT
  POIN2 Label_7_01009BF0
// 099   ----------------------------------------
 BYTE   W68
 BYTE   W02
 BYTE   N15  Cn4  v100
 BYTE   W12
 BYTE   N14  Dn4
 BYTE   W12
 BYTE   N36  Cn4
 BYTE   W02
// 100   ----------------------------------------
 BYTE   W32
 BYTE   W02
 BYTE   N12  Fn4
 BYTE   W24
 BYTE   N14  Gn4
 BYTE   W12
 BYTE   N09  Cn4
 BYTE   W24
 BYTE   N24  An4
 BYTE   W02
// 101   ----------------------------------------
 BYTE   W22
 BYTE   N07  As4
 BYTE   W12
 BYTE   N05  An4
 BYTE   W12
 BYTE   N24  Gn4
 BYTE   W24
 BYTE   N11  As4
 BYTE   W12
 BYTE   N08  An4
 BYTE   W12
 BYTE   N68  Fn4
 BYTE   W02
// 102   ----------------------------------------
 BYTE   W68
 BYTE   W02
 BYTE   N15  Cn4
 BYTE   W24
 BYTE   N23  Fn4
 BYTE   W02
// 103   ----------------------------------------
 BYTE   W22
 BYTE   N07  Gn4
 BYTE   W12
 BYTE   N40  Fn4
 BYTE   W60
 BYTE   W02
// 104   ----------------------------------------
 BYTE   W10
 BYTE   N56
 BYTE   W72
 BYTE   N02  Gn4  v076
 BYTE   W03
 BYTE   N05  Gs4  v092
 BYTE   W09
 BYTE   N17  Gn4  v104
 BYTE   W02
// 105   ----------------------------------------
 BYTE   W22
 BYTE   N14  Fn4  v096
 BYTE   W24
 BYTE   N05  Fn4  v092
 BYTE   W12
 BYTE   N02
 BYTE   W03
 BYTE   N14  Gn4
 BYTE   W09
 BYTE   N11  Fn4  v088
 BYTE   W12
 BYTE   N14  Gn4  v084
 BYTE   W12
 BYTE   N06  Fn4  v100
 BYTE   W02
// 106   ----------------------------------------
 BYTE   W22
 BYTE   N05  Cn4  v096
 BYTE   W12
 BYTE   N02  Cn4  v092
 BYTE   W03
 BYTE   N72  Dn4  v100
 BYTE   W56
 BYTE   W03
// 107   ----------------------------------------
 BYTE   W16
 BYTE   N05  Cn4
 BYTE   W06
 BYTE   Fn4
 BYTE   W06
 BYTE   Dn4
 BYTE   W06
 BYTE   Cn4
 BYTE   W06
 BYTE   An3
 BYTE   W06
 BYTE   Dn4
 BYTE   W06
 BYTE   Cn4
 BYTE   W06
 BYTE   An3
 BYTE   W06
 BYTE   Fn3
 BYTE   W06
 BYTE   Cn4
 BYTE   W06
 BYTE   An3
 BYTE   W06
 BYTE   Fn3
 BYTE   W06
 BYTE   Dn3
 BYTE   W06
 BYTE   Gn3
 BYTE   W02
// 108   ----------------------------------------
 BYTE   W04
 BYTE   Fn3
 BYTE   W06
 BYTE   Dn3
 BYTE   W06
 BYTE   Cn3
 BYTE   W06
 BYTE   An2
 BYTE   W06
 BYTE   Gn2
 BYTE   W06
 BYTE   Fn2
 BYTE   W06
 BYTE   An2
 BYTE   W06
 BYTE   Cn3
 BYTE   W06
 BYTE   Dn3
 BYTE   W06
 BYTE   An2
 BYTE   W06
 BYTE   Cn3
 BYTE   W06
 BYTE   Dn3
 BYTE   W06
 BYTE   Fn3
 BYTE   W06
 BYTE   Dn3
 BYTE   W06
 BYTE   Fn3
 BYTE   W06
 BYTE   Gn3
 BYTE   W02
// 109   ----------------------------------------
 BYTE   W04
 BYTE   An3
 BYTE   W06
 BYTE   Fn3
 BYTE   W06
 BYTE   An3
 BYTE   W06
 BYTE   Cn4
 BYTE   W06
 BYTE   Dn4
 BYTE   W06
 BYTE   Fn4
 BYTE   W06
 BYTE   Dn4
 BYTE   W06
 BYTE   Fn4
 BYTE   W06
 BYTE   Gn4
 BYTE   W06
 BYTE   An4
 BYTE   W06
 BYTE   Fn4
 BYTE   W06
 BYTE   Gn4
 BYTE   W06
 BYTE   An4
 BYTE   W06
 BYTE   Cn5
 BYTE   W06
 BYTE   An4
 BYTE   W06
 BYTE   Cn5
 BYTE   W02
// 110   ----------------------------------------
 BYTE   GoTo
  POIN2 Label_7_010098E2
// 111   ----------------------------------------
 BYTE   W04
 BYTE   VOL   34*EtrianOdyssey3TheFirstCampaignThegis_mvl/mxv
 BYTE   PAN   c_v-61
 BYTE   BEND   c_v+1
 BYTE   FINE

//**************** Track 9 (Midi-Chn.8) ****************//

EtrianOdyssey3TheFirstCampaignThegis_009:
// 000   ----------------------------------------
 BYTE   KEYSH   EtrianOdyssey3TheFirstCampaignThegis_key+0
Label_8_0100A1D6:
 BYTE   VOICE   36
 BYTE   VOL   41*EtrianOdyssey3TheFirstCampaignThegis_mvl/mxv
 BYTE   PAN   c_v+62
 BYTE   N10  Dn2  v088
 BYTE   W12
 BYTE   N08  As1  v076
 BYTE   W12
 BYTE   N04  Cn2
 BYTE   W12
 BYTE   N10  Dn2  v088
 BYTE   W12
 BYTE   N08  Cn2  v076
 BYTE   W12
 BYTE   N04  As1
 BYTE   W12
 BYTE   N10  Dn2  v088
 BYTE   W12
 BYTE   N08  As1  v076
 BYTE   W12
// 001   ----------------------------------------
 BYTE   N04  Cn2
 BYTE   W12
 BYTE   N10  En2  v088
 BYTE   W12
 BYTE   N08  Dn2  v076
 BYTE   W12
 BYTE   N04  Cn2
 BYTE   W12
 BYTE   N10  Dn2  v088
 BYTE   W12
 BYTE   N08  Cn2  v076
 BYTE   W12
 BYTE   N04  As1
 BYTE   W12
 BYTE   An1
 BYTE   W12
// 002   ----------------------------------------
 BYTE   N10  Fn2  v088
 BYTE   W12
 BYTE   N08  Dn2  v076
 BYTE   W12
 BYTE   N04  En2
 BYTE   W12
 BYTE   N10  Fn2  v088
 BYTE   W12
 BYTE   N08  En2  v076
 BYTE   W12
 BYTE   N04  Dn2
 BYTE   W12
 BYTE   N10  Fn2  v088
 BYTE   W12
 BYTE   N08  Dn2  v076
 BYTE   W12
// 003   ----------------------------------------
 BYTE   N04  En2
 BYTE   W12
 BYTE   N10  Gn2  v088
 BYTE   W12
 BYTE   N08  Fn2  v076
 BYTE   W12
 BYTE   N04  En2
 BYTE   W12
 BYTE   N10  Fn2  v088
 BYTE   W12
 BYTE   N08  En2  v076
 BYTE   W12
 BYTE   N04  Dn2
 BYTE   W12
 BYTE   Cn2
 BYTE   W12
// 004   ----------------------------------------
 BYTE   N32  An2  v112
 BYTE   N32  Cn3
 BYTE   W36
 BYTE   Gn2
 BYTE   N32  Bn2
 BYTE   W36
 BYTE   N23  Gn2
 BYTE   W24
// 005   ----------------------------------------
 BYTE   N72  As1
 BYTE   N72  Fn2
 BYTE   W96
// 006   ----------------------------------------
Label_8_0100A260:
 BYTE   N10  Dn2  v088
 BYTE   W12
 BYTE   N10
 BYTE   W12
 BYTE   N10
 BYTE   W12
 BYTE   N10
 BYTE   W12
 BYTE   N10
 BYTE   W12
 BYTE   N10
 BYTE   W12
 BYTE   N10
 BYTE   W12
 BYTE   N10
 BYTE   W12
 BYTE   PEND 
// 007   ----------------------------------------
 BYTE   PATT
  POIN2 Label_8_0100A260
// 008   ----------------------------------------
Label_8_0100A278:
 BYTE   N10  As1  v088
 BYTE   W12
 BYTE   N10
 BYTE   W12
 BYTE   N10
 BYTE   W12
 BYTE   N10
 BYTE   W12
 BYTE   N10
 BYTE   W12
 BYTE   N10
 BYTE   W12
 BYTE   N10
 BYTE   W12
 BYTE   N10
 BYTE   W12
 BYTE   PEND 
// 009   ----------------------------------------
Label_8_0100A28B:
 BYTE   N10  Gn1  v088
 BYTE   W12
 BYTE   N10
 BYTE   W12
 BYTE   N10
 BYTE   W12
 BYTE   N10
 BYTE   W12
 BYTE   N10
 BYTE   W12
 BYTE   N10
 BYTE   W12
 BYTE   N10
 BYTE   W12
 BYTE   N10
 BYTE   W12
 BYTE   PEND 
// 010   ----------------------------------------
 BYTE   PATT
  POIN2 Label_8_0100A260
// 011   ----------------------------------------
 BYTE   PATT
  POIN2 Label_8_0100A260
// 012   ----------------------------------------
Label_8_0100A2A8:
 BYTE   N10  Fn1  v088
 BYTE   W12
 BYTE   N10
 BYTE   W12
 BYTE   N10
 BYTE   W12
 BYTE   N10
 BYTE   W12
 BYTE   N10
 BYTE   W12
 BYTE   N10
 BYTE   W12
 BYTE   N10
 BYTE   W12
 BYTE   N10
 BYTE   W12
 BYTE   PEND 
// 013   ----------------------------------------
 BYTE   PATT
  POIN2 Label_8_0100A278
// 014   ----------------------------------------
 BYTE   PATT
  POIN2 Label_8_0100A260
// 015   ----------------------------------------
 BYTE   PATT
  POIN2 Label_8_0100A260
// 016   ----------------------------------------
 BYTE   PATT
  POIN2 Label_8_0100A278
// 017   ----------------------------------------
 BYTE   PATT
  POIN2 Label_8_0100A28B
// 018   ----------------------------------------
 BYTE   PATT
  POIN2 Label_8_0100A260
// 019   ----------------------------------------
 BYTE   PATT
  POIN2 Label_8_0100A260
// 020   ----------------------------------------
 BYTE   PATT
  POIN2 Label_8_0100A2A8
// 021   ----------------------------------------
 BYTE   PATT
  POIN2 Label_8_0100A278
// 022   ----------------------------------------
 BYTE   PATT
  POIN2 Label_8_0100A260
// 023   ----------------------------------------
Label_8_0100A2ED:
 BYTE   N10  En2  v088
 BYTE   W12
 BYTE   N10
 BYTE   W12
 BYTE   N10
 BYTE   W12
 BYTE   N10
 BYTE   W12
 BYTE   N10
 BYTE   W12
 BYTE   N10
 BYTE   W12
 BYTE   N10
 BYTE   W12
 BYTE   N10
 BYTE   W12
 BYTE   PEND 
// 024   ----------------------------------------
Label_8_0100A300:
 BYTE   N10  Fn2  v088
 BYTE   W12
 BYTE   N10
 BYTE   W12
 BYTE   N10
 BYTE   W12
 BYTE   N10
 BYTE   W12
 BYTE   N10
 BYTE   W12
 BYTE   N10
 BYTE   W12
 BYTE   N10
 BYTE   W12
 BYTE   N10
 BYTE   W12
 BYTE   PEND 
// 025   ----------------------------------------
 BYTE   PATT
  POIN2 Label_8_0100A278
// 026   ----------------------------------------
 BYTE   PATT
  POIN2 Label_8_0100A260
// 027   ----------------------------------------
 BYTE   PATT
  POIN2 Label_8_0100A2ED
// 028   ----------------------------------------
 BYTE   PATT
  POIN2 Label_8_0100A300
// 029   ----------------------------------------
 BYTE   PATT
  POIN2 Label_8_0100A278
// 030   ----------------------------------------
Label_8_0100A32C:
 BYTE   N10  Gn1  v088
 BYTE   W12
 BYTE   N10
 BYTE   W12
 BYTE   N10
 BYTE   W12
 BYTE   An1
 BYTE   W12
 BYTE   N10
 BYTE   W12
 BYTE   N10
 BYTE   W12
 BYTE   N10
 BYTE   W12
 BYTE   As1
 BYTE   W12
 BYTE   PEND 
// 031   ----------------------------------------
Label_8_0100A33F:
 BYTE   N10  As1  v088
 BYTE   W12
 BYTE   N10
 BYTE   W12
 BYTE   N10
 BYTE   W12
 BYTE   Cn2
 BYTE   W12
 BYTE   N10
 BYTE   W12
 BYTE   N10
 BYTE   W12
 BYTE   N10
 BYTE   W12
 BYTE   N10
 BYTE   W12
 BYTE   PEND 
// 032   ----------------------------------------
 BYTE   PATT
  POIN2 Label_8_0100A32C
// 033   ----------------------------------------
 BYTE   PATT
  POIN2 Label_8_0100A33F
// 034   ----------------------------------------
Label_8_0100A35C:
 BYTE   N10  Gn1  v088
 BYTE   W12
 BYTE   N10
 BYTE   W12
 BYTE   N10
 BYTE   W12
 BYTE   An1
 BYTE   W12
 BYTE   N10
 BYTE   W12
 BYTE   N10
 BYTE   W12
 BYTE   As1
 BYTE   W12
 BYTE   N10
 BYTE   W12
 BYTE   PEND 
// 035   ----------------------------------------
Label_8_0100A36F:
 BYTE   N10  As1  v088
 BYTE   W12
 BYTE   Cn2
 BYTE   W12
 BYTE   N10
 BYTE   W12
 BYTE   N10
 BYTE   W12
 BYTE   Dn2
 BYTE   W12
 BYTE   N10
 BYTE   W12
 BYTE   En2
 BYTE   W12
 BYTE   N10
 BYTE   W12
 BYTE   PEND 
// 036   ----------------------------------------
Label_8_0100A382:
 BYTE   N10  An1  v088
 BYTE   W12
 BYTE   N10
 BYTE   W24
 BYTE   N10
 BYTE   W12
 BYTE   N10
 BYTE   W24
 BYTE   N10
 BYTE   W12
 BYTE   N10
 BYTE   W12
 BYTE   PEND 
// 037   ----------------------------------------
Label_8_0100A391:
 BYTE   W12
 BYTE   N11  Gn1  v088
 BYTE   W12
 BYTE   An1
 BYTE   W12
 BYTE   Cn2
 BYTE   W12
 BYTE   Fn2
 BYTE   W12
 BYTE   En2
 BYTE   W12
 BYTE   Dn2
 BYTE   W12
 BYTE   Cn2
 BYTE   W12
 BYTE   PEND 
// 038   ----------------------------------------
 BYTE   PATT
  POIN2 Label_8_0100A260
// 039   ----------------------------------------
 BYTE   PATT
  POIN2 Label_8_0100A260
// 040   ----------------------------------------
 BYTE   PATT
  POIN2 Label_8_0100A278
// 041   ----------------------------------------
 BYTE   PATT
  POIN2 Label_8_0100A28B
// 042   ----------------------------------------
 BYTE   PATT
  POIN2 Label_8_0100A260
// 043   ----------------------------------------
 BYTE   PATT
  POIN2 Label_8_0100A260
// 044   ----------------------------------------
 BYTE   PATT
  POIN2 Label_8_0100A2A8
// 045   ----------------------------------------
 BYTE   PATT
  POIN2 Label_8_0100A278
// 046   ----------------------------------------
 BYTE   PATT
  POIN2 Label_8_0100A260
// 047   ----------------------------------------
 BYTE   PATT
  POIN2 Label_8_0100A260
// 048   ----------------------------------------
 BYTE   PATT
  POIN2 Label_8_0100A278
// 049   ----------------------------------------
 BYTE   PATT
  POIN2 Label_8_0100A28B
// 050   ----------------------------------------
 BYTE   PATT
  POIN2 Label_8_0100A260
// 051   ----------------------------------------
 BYTE   PATT
  POIN2 Label_8_0100A260
// 052   ----------------------------------------
 BYTE   PATT
  POIN2 Label_8_0100A2A8
// 053   ----------------------------------------
 BYTE   PATT
  POIN2 Label_8_0100A278
// 054   ----------------------------------------
 BYTE   PATT
  POIN2 Label_8_0100A260
// 055   ----------------------------------------
 BYTE   PATT
  POIN2 Label_8_0100A2ED
// 056   ----------------------------------------
 BYTE   PATT
  POIN2 Label_8_0100A300
// 057   ----------------------------------------
 BYTE   PATT
  POIN2 Label_8_0100A278
// 058   ----------------------------------------
 BYTE   PATT
  POIN2 Label_8_0100A260
// 059   ----------------------------------------
 BYTE   PATT
  POIN2 Label_8_0100A2ED
// 060   ----------------------------------------
 BYTE   PATT
  POIN2 Label_8_0100A300
// 061   ----------------------------------------
 BYTE   PATT
  POIN2 Label_8_0100A278
// 062   ----------------------------------------
 BYTE   PATT
  POIN2 Label_8_0100A32C
// 063   ----------------------------------------
 BYTE   PATT
  POIN2 Label_8_0100A33F
// 064   ----------------------------------------
 BYTE   PATT
  POIN2 Label_8_0100A32C
// 065   ----------------------------------------
 BYTE   PATT
  POIN2 Label_8_0100A33F
// 066   ----------------------------------------
 BYTE   PATT
  POIN2 Label_8_0100A35C
// 067   ----------------------------------------
 BYTE   PATT
  POIN2 Label_8_0100A36F
// 068   ----------------------------------------
 BYTE   PATT
  POIN2 Label_8_0100A382
// 069   ----------------------------------------
 BYTE   PATT
  POIN2 Label_8_0100A391
// 070   ----------------------------------------
Label_8_0100A443:
 BYTE   N09  As1  v088
 BYTE   W12
 BYTE   N09
 BYTE   W12
 BYTE   N09
 BYTE   W12
 BYTE   N09
 BYTE   W12
 BYTE   N09
 BYTE   W12
 BYTE   N09
 BYTE   W12
 BYTE   N09
 BYTE   W12
 BYTE   N09
 BYTE   W12
 BYTE   PEND 
// 071   ----------------------------------------
Label_8_0100A456:
 BYTE   N09  As1  v088
 BYTE   W12
 BYTE   N09
 BYTE   W12
 BYTE   N09
 BYTE   W12
 BYTE   N09
 BYTE   W12
 BYTE   N09
 BYTE   W12
 BYTE   N09
 BYTE   W12
 BYTE   An1
 BYTE   W12
 BYTE   As1
 BYTE   W12
 BYTE   PEND 
// 072   ----------------------------------------
Label_8_0100A469:
 BYTE   N09  Cn2  v088
 BYTE   W12
 BYTE   N09
 BYTE   W12
 BYTE   N09
 BYTE   W12
 BYTE   N09
 BYTE   W12
 BYTE   N09
 BYTE   W12
 BYTE   N09
 BYTE   W12
 BYTE   N09
 BYTE   W12
 BYTE   N09
 BYTE   W12
 BYTE   PEND 
// 073   ----------------------------------------
 BYTE   PATT
  POIN2 Label_8_0100A469
// 074   ----------------------------------------
Label_8_0100A481:
 BYTE   N09  Fn1  v088
 BYTE   W12
 BYTE   N09
 BYTE   W12
 BYTE   N09
 BYTE   W12
 BYTE   N09
 BYTE   W12
 BYTE   N09
 BYTE   W12
 BYTE   N09
 BYTE   W12
 BYTE   N09
 BYTE   W12
 BYTE   N09
 BYTE   W12
 BYTE   PEND 
// 075   ----------------------------------------
Label_8_0100A494:
 BYTE   N09  Fn1  v088
 BYTE   W12
 BYTE   N09
 BYTE   W12
 BYTE   N09
 BYTE   W12
 BYTE   N09
 BYTE   W12
 BYTE   N09
 BYTE   W12
 BYTE   N09
 BYTE   W12
 BYTE   N09
 BYTE   W12
 BYTE   Gn1
 BYTE   W12
 BYTE   PEND 
// 076   ----------------------------------------
Label_8_0100A4A7:
 BYTE   N09  An1  v088
 BYTE   W12
 BYTE   N09
 BYTE   W12
 BYTE   N09
 BYTE   W12
 BYTE   N09
 BYTE   W12
 BYTE   N09
 BYTE   W12
 BYTE   N09
 BYTE   W12
 BYTE   N09
 BYTE   W12
 BYTE   N09
 BYTE   W12
 BYTE   PEND 
// 077   ----------------------------------------
Label_8_0100A4BA:
 BYTE   N09  An1  v088
 BYTE   W12
 BYTE   N09
 BYTE   W12
 BYTE   Gn1
 BYTE   W12
 BYTE   An1
 BYTE   W12
 BYTE   Cn2
 BYTE   W12
 BYTE   As1
 BYTE   W12
 BYTE   An1
 BYTE   W12
 BYTE   Gn1
 BYTE   W12
 BYTE   PEND 
// 078   ----------------------------------------
 BYTE   PATT
  POIN2 Label_8_0100A443
// 079   ----------------------------------------
 BYTE   PATT
  POIN2 Label_8_0100A456
// 080   ----------------------------------------
 BYTE   PATT
  POIN2 Label_8_0100A469
// 081   ----------------------------------------
 BYTE   PATT
  POIN2 Label_8_0100A469
// 082   ----------------------------------------
 BYTE   PATT
  POIN2 Label_8_0100A481
// 083   ----------------------------------------
 BYTE   PATT
  POIN2 Label_8_0100A494
// 084   ----------------------------------------
 BYTE   PATT
  POIN2 Label_8_0100A4A7
// 085   ----------------------------------------
 BYTE   PATT
  POIN2 Label_8_0100A4BA
// 086   ----------------------------------------
 BYTE   PATT
  POIN2 Label_8_0100A443
// 087   ----------------------------------------
 BYTE   PATT
  POIN2 Label_8_0100A456
// 088   ----------------------------------------
 BYTE   PATT
  POIN2 Label_8_0100A469
// 089   ----------------------------------------
 BYTE   PATT
  POIN2 Label_8_0100A469
// 090   ----------------------------------------
 BYTE   PATT
  POIN2 Label_8_0100A481
// 091   ----------------------------------------
 BYTE   PATT
  POIN2 Label_8_0100A494
// 092   ----------------------------------------
 BYTE   PATT
  POIN2 Label_8_0100A4A7
// 093   ----------------------------------------
 BYTE   PATT
  POIN2 Label_8_0100A4BA
// 094   ----------------------------------------
 BYTE   PATT
  POIN2 Label_8_0100A443
// 095   ----------------------------------------
 BYTE   PATT
  POIN2 Label_8_0100A456
// 096   ----------------------------------------
 BYTE   PATT
  POIN2 Label_8_0100A469
// 097   ----------------------------------------
 BYTE   PATT
  POIN2 Label_8_0100A469
// 098   ----------------------------------------
 BYTE   PATT
  POIN2 Label_8_0100A481
// 099   ----------------------------------------
 BYTE   PATT
  POIN2 Label_8_0100A494
// 100   ----------------------------------------
 BYTE   PATT
  POIN2 Label_8_0100A4A7
// 101   ----------------------------------------
 BYTE   PATT
  POIN2 Label_8_0100A4BA
// 102   ----------------------------------------
 BYTE   PATT
  POIN2 Label_8_0100A443
// 103   ----------------------------------------
 BYTE   PATT
  POIN2 Label_8_0100A443
// 104   ----------------------------------------
Label_8_0100A54F:
 BYTE   N09  Cs2  v088
 BYTE   W12
 BYTE   N09
 BYTE   W12
 BYTE   N09
 BYTE   W12
 BYTE   N09
 BYTE   W12
 BYTE   N09
 BYTE   W12
 BYTE   N09
 BYTE   W12
 BYTE   N09
 BYTE   W12
 BYTE   N09
 BYTE   W12
 BYTE   PEND 
// 105   ----------------------------------------
 BYTE   PATT
  POIN2 Label_8_0100A54F
// 106   ----------------------------------------
Label_8_0100A567:
 BYTE   N09  Dn1  v088
 BYTE   W12
 BYTE   N09
 BYTE   W12
 BYTE   N09
 BYTE   W12
 BYTE   N09
 BYTE   W12
 BYTE   N09
 BYTE   W12
 BYTE   N09
 BYTE   W12
 BYTE   N09
 BYTE   W12
 BYTE   N09
 BYTE   W12
 BYTE   PEND 
// 107   ----------------------------------------
 BYTE   PATT
  POIN2 Label_8_0100A567
// 108   ----------------------------------------
 BYTE   PATT
  POIN2 Label_8_0100A567
// 109   ----------------------------------------
 BYTE   N09  Dn1  v088
 BYTE   W12
 BYTE   N09
 BYTE   W12
 BYTE   N09
 BYTE   W12
 BYTE   N09
 BYTE   W12
 BYTE   N09
 BYTE   W12
 BYTE   N09
 BYTE   W12
 BYTE   N09
 BYTE   W12
 BYTE   N09
 BYTE   W09
 BYTE   VOL   41*EtrianOdyssey3TheFirstCampaignThegis_mvl/mxv
 BYTE   PAN   c_v+62
 BYTE   W03
// 110   ----------------------------------------
 BYTE   GoTo
  POIN2 Label_8_0100A1D6
// 111   ----------------------------------------
 BYTE   W04
 BYTE   FINE

//******************************************************//
	ALIGN 4

EtrianOdyssey3TheFirstCampaignThegis:
	BYTE	9	// NumTrks
	BYTE	0	// NumBlks
	BYTE	EtrianOdyssey3TheFirstCampaignThegis_pri	// Priority
	BYTE	EtrianOdyssey3TheFirstCampaignThegis_rev	// Reverb.
    
	POIN2	EtrianOdyssey3TheFirstCampaignThegis_grp
    
	POIN2	EtrianOdyssey3TheFirstCampaignThegis_001
	POIN2	EtrianOdyssey3TheFirstCampaignThegis_002
	POIN2	EtrianOdyssey3TheFirstCampaignThegis_003
	POIN2	EtrianOdyssey3TheFirstCampaignThegis_004
	POIN2	EtrianOdyssey3TheFirstCampaignThegis_005
	POIN2	EtrianOdyssey3TheFirstCampaignThegis_006
	POIN2	EtrianOdyssey3TheFirstCampaignThegis_007
	POIN2	EtrianOdyssey3TheFirstCampaignThegis_008
	POIN2	EtrianOdyssey3TheFirstCampaignThegis_009

	
