//Event file generated from Sappy .s format.
	#include "MPlayDef.event"

	#define	FF13DesperateStruggleMycahel_grp  voicegroup000
	#define	FF13DesperateStruggleMycahel_pri  0
	#define	FF13DesperateStruggleMycahel_rev  0
	#define	FF13DesperateStruggleMycahel_mvl  127
	#define	FF13DesperateStruggleMycahel_key  0
	#define	FF13DesperateStruggleMycahel_tbs  1
	#define	FF13DesperateStruggleMycahel_exg  0
	#define	FF13DesperateStruggleMycahel_cmp  1

	// .rodata
	//	FF13DesperateStruggleMycahel
	ALIGN 4


//**************** Track 1 (Midi-Chn.0) ****************//

FF13DesperateStruggleMycahel_001:
// 000   ----------------------------------------
 BYTE   KEYSH   FF13DesperateStruggleMycahel_key+0
 BYTE   TEMPO   152*FF13DesperateStruggleMycahel_tbs/2
 BYTE   VOICE   48
 BYTE   VOL   48*FF13DesperateStruggleMycahel_mvl/mxv
 BYTE   BEND   c_v+0
 BYTE   N07  Fs3  v112
 BYTE   W12
 BYTE   Cs3  v100
 BYTE   W12
 BYTE   Gs3  v112
 BYTE   W12
 BYTE   An3  v100
 BYTE   W12
 BYTE   En3  v112
 BYTE   W12
 BYTE   An3  v100
 BYTE   W12
 BYTE   Bn3  v112
 BYTE   W12
 BYTE   En3  v100
 BYTE   W12
// 001   ----------------------------------------
 BYTE   Fs3  v112
 BYTE   W12
 BYTE   Cs4  v100
 BYTE   W12
 BYTE   Fs3  v112
 BYTE   W12
 BYTE   Dn4  v100
 BYTE   W12
 BYTE   En4  v112
 BYTE   W12
 BYTE   Bn3  v100
 BYTE   W12
 BYTE   Cs4  v112
 BYTE   W12
 BYTE   Fs3  v100
 BYTE   W12
// 002   ----------------------------------------
 BYTE   Cs4  v112
 BYTE   W12
 BYTE   Dn4  v100
 BYTE   W12
 BYTE   En3  v112
 BYTE   W12
 BYTE   Fs3  v100
 BYTE   W12
 BYTE   Cs4  v112
 BYTE   W12
 BYTE   Bn3  v100
 BYTE   W12
 BYTE   En3  v112
 BYTE   W12
 BYTE   Fs3  v100
 BYTE   W12
// 003   ----------------------------------------
 BYTE   Fs3  v112
 BYTE   W12
 BYTE   Cs3  v100
 BYTE   W12
 BYTE   Gs3  v116
 BYTE   W12
 BYTE   An3  v100
 BYTE   W12
 BYTE   En3  v112
 BYTE   W12
 BYTE   An3  v100
 BYTE   W12
 BYTE   Bn3  v116
 BYTE   W12
 BYTE   En3  v100
 BYTE   W12
// 004   ----------------------------------------
 BYTE   Fs3  v112
 BYTE   W12
 BYTE   Cs4  v100
 BYTE   W12
 BYTE   Fs3  v116
 BYTE   W12
 BYTE   Dn4  v100
 BYTE   W12
 BYTE   En4  v116
 BYTE   W12
 BYTE   Bn3  v100
 BYTE   W12
 BYTE   Cs4  v116
 BYTE   W12
 BYTE   Gs4  v100
 BYTE   W12
// 005   ----------------------------------------
 BYTE   An4  v116
 BYTE   W12
 BYTE   En4  v100
 BYTE   W12
 BYTE   Fs4  v116
 BYTE   W12
 BYTE   Bn3  v100
 BYTE   W12
 BYTE   Cs4  v116
 BYTE   W12
 BYTE   Fs3  v100
 BYTE   W12
 BYTE   Gs3  v116
 BYTE   W12
 BYTE   Cs4  v100
 BYTE   W12
// 006   ----------------------------------------
 BYTE   Fs3  v116
 BYTE   W12
 BYTE   Cs3  v100
 BYTE   W12
 BYTE   Gs3  v116
 BYTE   W12
 BYTE   An3  v100
 BYTE   W12
 BYTE   En3  v116
 BYTE   W12
 BYTE   An3  v100
 BYTE   W12
 BYTE   Bn3  v116
 BYTE   W12
 BYTE   En3  v100
 BYTE   W12
// 007   ----------------------------------------
 BYTE   Fs3  v116
 BYTE   W12
 BYTE   Cs4  v100
 BYTE   W12
 BYTE   Fs3  v112
 BYTE   W12
 BYTE   Dn4  v100
 BYTE   W12
 BYTE   En4  v116
 BYTE   W12
 BYTE   Bn3  v100
 BYTE   W12
 BYTE   Cs4  v116
 BYTE   W12
 BYTE   Gs4  v100
 BYTE   W12
// 008   ----------------------------------------
 BYTE   An4  v112
 BYTE   W12
 BYTE   N05  En4  v100
 BYTE   W06
 BYTE   Cs4  v084
 BYTE   W06
 BYTE   Fs4  v120
 BYTE   W06
 BYTE   Dn4  v092
 BYTE   W06
 BYTE   Cs4  v112
 BYTE   W06
 BYTE   Dn4  v092
 BYTE   W06
 BYTE   Cs4  v112
 BYTE   W06
 BYTE   Fs4  v088
 BYTE   W06
 BYTE   En4  v112
 BYTE   W06
 BYTE   Gs4  v084
 BYTE   W06
 BYTE   Fs4  v112
 BYTE   W06
 BYTE   An4  v096
 BYTE   W06
 BYTE   Gs4  v112
 BYTE   W06
 BYTE   Bn4  v088
 BYTE   W06
// 009   ----------------------------------------
Label_0_0153D991:
 BYTE   N06  Fs3  v112
 BYTE   N06  Cs5  v127
 BYTE   W12
 BYTE   Cs3  v100
 BYTE   W12
 BYTE   Gs3  v112
 BYTE   W12
 BYTE   An3  v100
 BYTE   W12
 BYTE   En3  v112
 BYTE   W12
 BYTE   An3  v100
 BYTE   W12
 BYTE   Bn3  v112
 BYTE   W12
 BYTE   En3  v100
 BYTE   W12
// 010   ----------------------------------------
 BYTE   Fs3  v112
 BYTE   W12
 BYTE   Cs4  v100
 BYTE   W12
 BYTE   Fs3  v112
 BYTE   W12
 BYTE   Dn4  v100
 BYTE   W12
 BYTE   PEND 
Label_0_0153D9BA:
 BYTE   N06  En4  v112
 BYTE   W12
 BYTE   Bn3  v100
 BYTE   W12
 BYTE   Cs4  v112
 BYTE   W12
 BYTE   Fs3  v100
 BYTE   W12
// 011   ----------------------------------------
 BYTE   Cs4  v112
 BYTE   W12
 BYTE   Dn4  v100
 BYTE   W12
 BYTE   En3  v112
 BYTE   W12
 BYTE   Fs3  v100
 BYTE   W12
 BYTE   Cs4  v112
 BYTE   W12
 BYTE   Bn3  v100
 BYTE   W12
 BYTE   N05  En3  v112
 BYTE   W06
 BYTE   Gs3  v096
 BYTE   W06
 BYTE   Bn3  v112
 BYTE   W06
 BYTE   Gs3  v088
 BYTE   W06
 BYTE   PEND 
// 012   ----------------------------------------
Label_0_0153D9E7:
 BYTE   N05  Bn3  v112
 BYTE   W06
 BYTE   Cs3  v080
 BYTE   W06
 BYTE   Cs3  v100
 BYTE   W06
 BYTE   Gs3  v088
 BYTE   W06
 BYTE   Gs3  v116
 BYTE   W12
 BYTE   An3  v100
 BYTE   W12
 BYTE   En3  v112
 BYTE   W06
 BYTE   Fs3  v084
 BYTE   W06
 BYTE   Fs3  v100
 BYTE   W06
 BYTE   Fs3  v084
 BYTE   W06
 BYTE   Fs3  v116
 BYTE   W12
 BYTE   En3  v100
 BYTE   W06
 BYTE   Fs3  v092
 BYTE   W06
// 013   ----------------------------------------
 BYTE   Fs3  v112
 BYTE   W12
 BYTE   Cs4  v100
 BYTE   W06
 BYTE   Cs4  v084
 BYTE   W06
 BYTE   Fs3  v116
 BYTE   W12
 BYTE   Dn4  v100
 BYTE   W06
 BYTE   Dn4  v084
 BYTE   W06
 BYTE   PEND 
Label_0_0153DA22:
 BYTE   N05  En4  v116
 BYTE   W12
 BYTE   Bn3  v100
 BYTE   W06
 BYTE   Bn3  v084
 BYTE   W06
 BYTE   Cs4  v116
 BYTE   W12
 BYTE   Gs4  v100
 BYTE   W12
// 014   ----------------------------------------
 BYTE   An4  v116
 BYTE   W12
 BYTE   En4  v100
 BYTE   W12
 BYTE   Fs4  v116
 BYTE   W12
 BYTE   Bn3  v100
 BYTE   W12
 BYTE   Cs4  v116
 BYTE   W12
 BYTE   Fs3  v100
 BYTE   W06
 BYTE   Fs3  v080
 BYTE   W06
 BYTE   N04  Gs3  v116
 BYTE   W06
 BYTE   Gs3  v092
 BYTE   W06
 BYTE   N05  Cs4  v100
 BYTE   W12
 BYTE   PEND 
// 015   ----------------------------------------
Label_0_0153DA53:
 BYTE   N05  Fs3  v116
 BYTE   W12
 BYTE   Cs3  v100
 BYTE   W06
 BYTE   N04  Cs3  v092
 BYTE   W06
 BYTE   N05  En4  v116
 BYTE   W12
 BYTE   Dn4  v100
 BYTE   W12
 BYTE   Bn3  v116
 BYTE   W06
 BYTE   Bn3  v100
 BYTE   W06
 BYTE   Cs4
 BYTE   W12
 BYTE   Gs3  v116
 BYTE   W12
 BYTE   An3  v100
 BYTE   W12
// 016   ----------------------------------------
 BYTE   En3  v084
 BYTE   W12
 BYTE   Cs4  v120
 BYTE   W06
 BYTE   Cs4  v076
 BYTE   W06
 BYTE   Cs4  v104
 BYTE   W12
 BYTE   Fs3  v100
 BYTE   W12
 BYTE   PEND 
Label_0_0153DA83:
 BYTE   N05  Bn3  v116
 BYTE   W12
 BYTE   En4  v100
 BYTE   W12
 BYTE   Dn4  v116
 BYTE   W12
 BYTE   Gs4  v100
 BYTE   W12
// 017   ----------------------------------------
 BYTE   Fs4  v112
 BYTE   W12
 BYTE   Bn3  v100
 BYTE   W06
 BYTE   Bn3  v112
 BYTE   W06
 BYTE   Cs4  v120
 BYTE   W12
 BYTE   Fs3  v100
 BYTE   W12
 BYTE   Cs4  v112
 BYTE   W12
 BYTE   En4
 BYTE   W12
 BYTE   Dn4
 BYTE   W06
 BYTE   Cs4  v084
 BYTE   W06
 BYTE   Bn3  v104
 BYTE   W06
 BYTE   Cs4  v084
 BYTE   W06
 BYTE   PEND 
// 018   ----------------------------------------
Label_0_0153DAB0:
 BYTE   N05  Cs4  v112
 BYTE   W12
 BYTE   N04  Fs3  v104
 BYTE   W06
 BYTE   Fs3  v092
 BYTE   W06
 BYTE   En4  v112
 BYTE   W06
 BYTE   En4  v092
 BYTE   W06
 BYTE   N05  Dn4  v100
 BYTE   W12
 BYTE   Ds4  v116
 BYTE   W12
 BYTE   Bn3  v100
 BYTE   W12
 BYTE   Cs4  v120
 BYTE   W12
 BYTE   Gs4
 BYTE   W06
 BYTE   N04  Gs4  v092
 BYTE   W06
// 019   ----------------------------------------
 BYTE   En4
 BYTE   W12
 BYTE   N05  Bn3  v120
 BYTE   W12
 BYTE   Cs4
 BYTE   W12
 BYTE   An4
 BYTE   W12
 BYTE   PEND 
Label_0_0153DADF:
 BYTE   N05  Gs4  v120
 BYTE   W12
 BYTE   N04  Bn4  v108
 BYTE   W06
 BYTE   Bn4  v092
 BYTE   W06
 BYTE   N05  An4  v120
 BYTE   W12
 BYTE   Cs5  v108
 BYTE   W12
// 020   ----------------------------------------
 BYTE   Bn4  v120
 BYTE   W12
 BYTE   N04  Fs4  v100
 BYTE   W06
 BYTE   Fs4  v088
 BYTE   W06
 BYTE   N05  An4  v120
 BYTE   W12
 BYTE   Gs4  v104
 BYTE   W12
 BYTE   En4  v120
 BYTE   W12
 BYTE   Dn4  v104
 BYTE   W12
 BYTE   N04  Cs4  v120
 BYTE   W06
 BYTE   Cs4  v088
 BYTE   W06
 BYTE   N05  An4  v108
 BYTE   W12
 BYTE   PEND 
// 021   ----------------------------------------
Label_0_0153DB14:
 BYTE   N06  Fs3  v112
 BYTE   W12
 BYTE   Cs3  v100
 BYTE   W12
 BYTE   Gs3  v112
 BYTE   W12
 BYTE   An3  v100
 BYTE   W12
 BYTE   En3  v112
 BYTE   W12
 BYTE   An3  v100
 BYTE   W12
 BYTE   Bn3  v112
 BYTE   W12
 BYTE   En3  v100
 BYTE   W12
// 022   ----------------------------------------
 BYTE   Fs3  v112
 BYTE   W12
 BYTE   Cs4  v100
 BYTE   W12
 BYTE   Fs3  v112
 BYTE   W12
 BYTE   Dn4  v100
 BYTE   W12
 BYTE   PEND 
 BYTE   PATT
  POIN2 Label_0_0153D9BA
 BYTE   PATT
  POIN2 Label_0_0153D9E7
 BYTE   PATT
  POIN2 Label_0_0153DA22
 BYTE   PATT
  POIN2 Label_0_0153DA53
 BYTE   PATT
  POIN2 Label_0_0153DA83
 BYTE   PATT
  POIN2 Label_0_0153DAB0
 BYTE   PATT
  POIN2 Label_0_0153DADF
// 023   ----------------------------------------
Label_0_0153DB5D:
 BYTE   N05  Fs4  v124
 BYTE   W12
 BYTE   Cs4  v108
 BYTE   W24
 BYTE   Cs4  v096
 BYTE   W12
 BYTE   Dn4  v112
 BYTE   W12
 BYTE   Bn3  v100
 BYTE   W12
 BYTE   Cs4  v124
 BYTE   W24
// 024   ----------------------------------------
 BYTE   Bn3  v080
 BYTE   W04
 BYTE   Cs4  v108
 BYTE   W44
 BYTE   PEND 
Label_0_0153DB77:
 BYTE   N05  Cs4  v120
 BYTE   W24
 BYTE   Bn3  v104
 BYTE   W06
 BYTE   Cs4  v108
 BYTE   W06
 BYTE   En4
 BYTE   W06
 BYTE   Fs4  v112
 BYTE   W06
// 025   ----------------------------------------
 BYTE   Gs4  v124
 BYTE   W12
 BYTE   Cs4  v096
 BYTE   W12
 BYTE   Fs4  v120
 BYTE   W12
 BYTE   Cs4  v092
 BYTE   W12
 BYTE   En4
 BYTE   W12
 BYTE   Dn4  v084
 BYTE   W12
 BYTE   N04  Cs4  v120
 BYTE   W06
 BYTE   Gs3  v092
 BYTE   W06
 BYTE   Bn3  v100
 BYTE   W06
 BYTE   Gs3  v088
 BYTE   W06
 BYTE   PEND 
// 026   ----------------------------------------
Label_0_0153DBA5:
 BYTE   N04  Fs4  v127
 BYTE   W12
 BYTE   Cs4  v120
 BYTE   W12
 BYTE   En4
 BYTE   W06
 BYTE   En4  v104
 BYTE   W06
 BYTE   Dn4  v120
 BYTE   W12
 BYTE   N04
 BYTE   W06
 BYTE   Dn4  v092
 BYTE   W06
 BYTE   Bn3  v120
 BYTE   W12
 BYTE   Cs4  v127
 BYTE   W24
// 027   ----------------------------------------
 BYTE   Bn3  v092
 BYTE   W03
 BYTE   Cs4
 BYTE   W21
 BYTE   Cs4  v100
 BYTE   W12
 BYTE   Bn3  v108
 BYTE   W06
 BYTE   Cs4  v104
 BYTE   W06
 BYTE   PEND 
Label_0_0153DBCE:
 BYTE   N04  Cs4  v124
 BYTE   W48
// 028   ----------------------------------------
 BYTE   Fs3  v076
 BYTE   W12
 BYTE   Cs4  v084
 BYTE   W12
 BYTE   An3  v088
 BYTE   W12
 BYTE   Fs4  v108
 BYTE   W12
 BYTE   Cs4  v112
 BYTE   W12
 BYTE   An4
 BYTE   W12
 BYTE   En4  v108
 BYTE   W06
 BYTE   Fs4  v104
 BYTE   W06
 BYTE   Bn4  v127
 BYTE   W12
 BYTE   PEND 
// 029   ----------------------------------------
Label_0_0153DBED:
 BYTE   N04  Fs4  v124
 BYTE   W12
 BYTE   Cs4  v108
 BYTE   W12
 BYTE   En4  v092
 BYTE   W12
 BYTE   Dn4  v088
 BYTE   W12
 BYTE   Dn4  v108
 BYTE   W12
 BYTE   Bn3  v096
 BYTE   W12
 BYTE   Bn4  v124
 BYTE   W12
 BYTE   En4  v112
 BYTE   W12
// 030   ----------------------------------------
 BYTE   An4  v116
 BYTE   W12
 BYTE   Cs4  v112
 BYTE   W12
 BYTE   Gs4  v116
 BYTE   W12
 BYTE   Cs4
 BYTE   W12
 BYTE   PEND 
Label_0_0153DC12:
 BYTE   N04  Cs4  v124
 BYTE   W24
 BYTE   Bn3  v084
 BYTE   W06
 BYTE   Cs4  v092
 BYTE   W06
 BYTE   En4  v100
 BYTE   W06
 BYTE   Fs4  v112
 BYTE   W06
// 031   ----------------------------------------
 BYTE   Gs4  v124
 BYTE   W12
 BYTE   Cs4  v112
 BYTE   W12
 BYTE   Fs4  v124
 BYTE   W12
 BYTE   Cs4  v104
 BYTE   W12
 BYTE   En4  v100
 BYTE   W12
 BYTE   Dn4  v124
 BYTE   W12
 BYTE   Cs4  v116
 BYTE   W06
 BYTE   Gs3  v104
 BYTE   W06
 BYTE   Cs4  v108
 BYTE   W12
 BYTE   PEND 
// 032   ----------------------------------------
Label_0_0153DC3E:
 BYTE   N04  Fs4  v124
 BYTE   W12
 BYTE   Cs4  v112
 BYTE   W06
 BYTE   Cs4  v092
 BYTE   W06
 BYTE   En4  v116
 BYTE   W06
 BYTE   En4  v100
 BYTE   W06
 BYTE   Dn4  v124
 BYTE   W12
 BYTE   Dn1  v108
 BYTE   N04  Dn4
 BYTE   W06
 BYTE   Dn1  v096
 BYTE   N04  Dn4
 BYTE   W06
 BYTE   Bn0  v108
 BYTE   N04  Bn3
 BYTE   W06
 BYTE   Bn0  v096
 BYTE   N04  Bn3
 BYTE   W06
 BYTE   Cs1  v127
 BYTE   N04  Cs4  v108
 BYTE   W06
 BYTE   Cs1  v104
 BYTE   N04  Cs4  v084
 BYTE   W06
 BYTE   Dn1  v127
 BYTE   N04  Dn4  v108
 BYTE   W06
 BYTE   Dn1
 BYTE   N04  Dn4  v088
 BYTE   W06
// 033   ----------------------------------------
 BYTE   Bn0  v127
 BYTE   N04  Bn3  v108
 BYTE   W06
 BYTE   Bn0
 BYTE   N04  Bn3  v088
 BYTE   W06
 BYTE   Cs1  v127
 BYTE   N04  Cs4  v108
 BYTE   W06
 BYTE   Cs1  v104
 BYTE   N04  Cs4  v084
 BYTE   W06
 BYTE   Gs0  v104
 BYTE   N04  Gs3
 BYTE   W06
 BYTE   Gs0  v068
 BYTE   N04  Gs3
 BYTE   W06
 BYTE   Bn0  v104
 BYTE   N04  Bn3
 BYTE   W06
 BYTE   Bn0  v068
 BYTE   N04  Bn3
 BYTE   W06
 BYTE   PEND 
Label_0_0153DCA8:
 BYTE   N04  Fs0  v104
 BYTE   N04  Fs3
 BYTE   W06
 BYTE   Fs0  v072
 BYTE   N04  Fs3
 BYTE   W06
 BYTE   Cs0  v104
 BYTE   N04  Cs3
 BYTE   W06
 BYTE   Cs0  v072
 BYTE   N04  Cs3
 BYTE   W06
 BYTE   En0  v104
 BYTE   N04  En3
 BYTE   W06
 BYTE   En0  v072
 BYTE   N04  En3
 BYTE   W06
 BYTE   Dn0  v104
 BYTE   N04  Dn3
 BYTE   W06
 BYTE   Dn0  v072
 BYTE   N04  Dn3
 BYTE   W06
// 034   ----------------------------------------
 BYTE   Dn1  v104
 BYTE   N04  Dn4
 BYTE   W06
 BYTE   Dn1  v072
 BYTE   N04  Dn4
 BYTE   W06
 BYTE   Bn0  v104
 BYTE   N04  Bn3
 BYTE   W06
 BYTE   Bn0  v072
 BYTE   N04  Bn3
 BYTE   W06
 BYTE   Cs1  v116
 BYTE   N04  Cs4
 BYTE   W06
 BYTE   Cs1  v076
 BYTE   N04  Cs4
 BYTE   W06
 BYTE   Fs1  v120
 BYTE   N04  Fs4
 BYTE   W06
 BYTE   Fs1  v080
 BYTE   N04  Fs4
 BYTE   W06
 BYTE   Cs1  v120
 BYTE   N04  Cs4
 BYTE   W06
 BYTE   Cs1  v080
 BYTE   N04  Cs4
 BYTE   W06
 BYTE   An1  v127
 BYTE   N04  An4
 BYTE   W06
 BYTE   An1  v088
 BYTE   N04  An4
 BYTE   W06
 BYTE   En1  v127
 BYTE   N04  En4
 BYTE   W06
 BYTE   En1  v088
 BYTE   N04  En4
 BYTE   W06
 BYTE   Bn1  v127
 BYTE   N04  Bn4
 BYTE   W06
 BYTE   Bn1  v088
 BYTE   N04  Bn4
 BYTE   W06
 BYTE   PEND 
 BYTE   PATT
  POIN2 Label_0_0153DB14
 BYTE   PATT
  POIN2 Label_0_0153D9BA
 BYTE   PATT
  POIN2 Label_0_0153D9E7
 BYTE   PATT
  POIN2 Label_0_0153DA22
 BYTE   PATT
  POIN2 Label_0_0153DA53
 BYTE   PATT
  POIN2 Label_0_0153DA83
 BYTE   PATT
  POIN2 Label_0_0153DAB0
 BYTE   PATT
  POIN2 Label_0_0153DADF
 BYTE   PATT
  POIN2 Label_0_0153DB14
 BYTE   PATT
  POIN2 Label_0_0153D9BA
 BYTE   PATT
  POIN2 Label_0_0153D9E7
 BYTE   PATT
  POIN2 Label_0_0153DA22
 BYTE   PATT
  POIN2 Label_0_0153DA53
 BYTE   PATT
  POIN2 Label_0_0153DA83
 BYTE   PATT
  POIN2 Label_0_0153DAB0
 BYTE   PATT
  POIN2 Label_0_0153DADF
 BYTE   PATT
  POIN2 Label_0_0153DB5D
 BYTE   PATT
  POIN2 Label_0_0153DB77
 BYTE   PATT
  POIN2 Label_0_0153DBA5
 BYTE   PATT
  POIN2 Label_0_0153DBCE
 BYTE   PATT
  POIN2 Label_0_0153DBED
 BYTE   PATT
  POIN2 Label_0_0153DC12
// 035   ----------------------------------------
Label_0_0153DD90:
 BYTE   N04  Fs4  v124
 BYTE   W12
 BYTE   Cs4  v112
 BYTE   W06
 BYTE   Cs4  v092
 BYTE   W06
 BYTE   En4  v116
 BYTE   W06
 BYTE   En4  v100
 BYTE   W06
 BYTE   Dn4  v124
 BYTE   W12
 BYTE   Dn1  v108
 BYTE   N04  Dn4
 BYTE   W06
 BYTE   Dn1  v096
 BYTE   N04  Dn4
 BYTE   W06
 BYTE   Bn0  v108
 BYTE   N04  Bn3
 BYTE   W06
 BYTE   Bn0  v096
 BYTE   N04  Bn3
 BYTE   W06
 BYTE   Gn1  v127
 BYTE   N04  Gn4  v108
 BYTE   W06
 BYTE   Gn1  v100
 BYTE   N04  Gn4  v080
 BYTE   W06
 BYTE   Dn1  v127
 BYTE   N04  Dn4  v108
 BYTE   W06
 BYTE   Dn1  v100
 BYTE   N04  Dn4  v080
 BYTE   W06
// 036   ----------------------------------------
 BYTE   Fn1  v127
 BYTE   N04  Fn4  v108
 BYTE   W06
 BYTE   Fn1  v100
 BYTE   N04  Fn4  v080
 BYTE   W06
 BYTE   Cn1  v127
 BYTE   N04  Cn4  v108
 BYTE   W06
 BYTE   Cn1  v100
 BYTE   N04  Cn4  v080
 BYTE   W06
 BYTE   Dn1  v127
 BYTE   N04  Dn4  v108
 BYTE   W06
 BYTE   Dn1  v100
 BYTE   N04  Dn4  v080
 BYTE   W06
 BYTE   Gs1  v127
 BYTE   N04  Gs4  v108
 BYTE   W06
 BYTE   Gs1  v100
 BYTE   N04  Gs4  v080
 BYTE   W06
 BYTE   PEND 
Label_0_0153DE00:
 BYTE   N04  Dn2  v127
 BYTE   N04  Dn5  v108
 BYTE   W06
 BYTE   Dn2  v100
 BYTE   N04  Dn5  v080
 BYTE   W06
 BYTE   Gn1  v127
 BYTE   N04  Gn4  v108
 BYTE   W06
 BYTE   Gn1  v100
 BYTE   N04  Gn4  v080
 BYTE   W06
 BYTE   Cn2  v127
 BYTE   N04  Cn5  v108
 BYTE   W06
 BYTE   Cn2  v100
 BYTE   N04  Cn5  v080
 BYTE   W06
 BYTE   Fn1  v127
 BYTE   N04  Fn4  v108
 BYTE   W06
 BYTE   Fn1  v100
 BYTE   N04  Fn4  v080
 BYTE   W06
// 037   ----------------------------------------
 BYTE   As1  v127
 BYTE   N04  As4  v108
 BYTE   W06
 BYTE   As1  v100
 BYTE   N04  As4  v080
 BYTE   W06
 BYTE   Dn1  v127
 BYTE   N04  Dn4  v108
 BYTE   W06
 BYTE   Dn1  v100
 BYTE   N04  Dn4  v080
 BYTE   W06
 BYTE   Gn1  v127
 BYTE   N04  Gn4  v108
 BYTE   W06
 BYTE   Gn1  v100
 BYTE   N04  Gn4  v080
 BYTE   W06
 BYTE   Dn2  v127
 BYTE   N04  Dn5  v108
 BYTE   W06
 BYTE   Dn2  v100
 BYTE   N04  Dn5  v080
 BYTE   W06
 BYTE   Fn1  v127
 BYTE   N04  Fn4  v108
 BYTE   W06
 BYTE   Fn1  v100
 BYTE   N04  Fn4  v080
 BYTE   W06
 BYTE   An1  v127
 BYTE   N04  An4  v108
 BYTE   W06
 BYTE   An1  v100
 BYTE   N04  An4  v080
 BYTE   W06
 BYTE   Dn1  v127
 BYTE   N04  Dn4  v108
 BYTE   W06
 BYTE   Dn1  v100
 BYTE   N04  Dn4  v080
 BYTE   W06
 BYTE   As1  v127
 BYTE   N04  As4  v108
 BYTE   W06
 BYTE   As1  v100
 BYTE   N04  As4  v080
 BYTE   W06
 BYTE   PEND 
// 038   ----------------------------------------
Label_0_0153DE92:
 BYTE   W24
 BYTE   N04  An4  v108
 BYTE   W06
 BYTE   En4
 BYTE   W06
 BYTE   Fs4
 BYTE   W06
 BYTE   Bn4
 BYTE   W06
 BYTE   Cs5
 BYTE   W12
 BYTE   Fs4
 BYTE   W84
 BYTE   PEND 
// 039   ----------------------------------------
Label_0_0153DEA2:
 BYTE   W24
 BYTE   N04  Bn4  v108
 BYTE   W12
 BYTE   En4
 BYTE   W12
 BYTE   Dn3
 BYTE   W06
 BYTE   Cs3
 BYTE   W06
 BYTE   Dn3
 BYTE   W06
 BYTE   En3
 BYTE   W06
 BYTE   Fs3
 BYTE   W72
 BYTE   PEND 
// 040   ----------------------------------------
 BYTE   W96
// 041   ----------------------------------------
 BYTE   W48
 BYTE   W96
// 042   ----------------------------------------
 BYTE   W48
 BYTE   W96
// 043   ----------------------------------------
 BYTE   W48
 BYTE   W96
// 044   ----------------------------------------
 BYTE   W48
 BYTE   W96
// 045   ----------------------------------------
 BYTE   W48
 BYTE   W96
// 046   ----------------------------------------
 BYTE   W48
Label_0_0153DEC0:
 BYTE   N06  Fs4  v100
 BYTE   W06
 BYTE   En4  v064
 BYTE   W06
 BYTE   Gn4
 BYTE   W06
 BYTE   Fs4  v088
 BYTE   W06
 BYTE   An4  v100
 BYTE   W06
 BYTE   Gn4  v080
 BYTE   W06
 BYTE   Fs4  v092
 BYTE   W06
 BYTE   En4  v072
 BYTE   W06
// 047   ----------------------------------------
 BYTE   Fs4  v104
 BYTE   W06
 BYTE   Gn4  v072
 BYTE   W06
 BYTE   An4  v104
 BYTE   W06
 BYTE   Gn4  v072
 BYTE   W06
 BYTE   Fs4  v100
 BYTE   W06
 BYTE   En4  v072
 BYTE   W06
 BYTE   Gn4  v064
 BYTE   W06
 BYTE   Fs4  v088
 BYTE   W06
 BYTE   An4  v100
 BYTE   W06
 BYTE   Gn4  v080
 BYTE   W06
 BYTE   Fs4  v092
 BYTE   W06
 BYTE   En4  v072
 BYTE   W06
 BYTE   Fs4  v104
 BYTE   W06
 BYTE   Gn4  v072
 BYTE   W06
 BYTE   An4  v104
 BYTE   W06
 BYTE   Gn4  v072
 BYTE   W06
 BYTE   PEND 
 BYTE   PATT
  POIN2 Label_0_0153DEC0
 BYTE   PATT
  POIN2 Label_0_0153DEC0
 BYTE   PATT
  POIN2 Label_0_0153DEC0
 BYTE   PATT
  POIN2 Label_0_0153DEC0
 BYTE   PATT
  POIN2 Label_0_0153DEC0
 BYTE   PATT
  POIN2 Label_0_0153DEC0
 BYTE   PATT
  POIN2 Label_0_0153DEC0
// 048   ----------------------------------------
Label_0_0153DF2C:
 BYTE   N06  Fs3  v088
 BYTE   W06
 BYTE   Cs3
 BYTE   W06
 BYTE   An3
 BYTE   W06
 BYTE   Gn3
 BYTE   W06
 BYTE   Fs3  v084
 BYTE   W06
 BYTE   An3
 BYTE   W06
 BYTE   Cs3
 BYTE   W06
 BYTE   En3
 BYTE   W06
 BYTE   Fs3  v100
 BYTE   W06
 BYTE   En3  v088
 BYTE   W06
 BYTE   Dn3
 BYTE   W06
 BYTE   Bn2  v084
 BYTE   W06
 BYTE   Fs3
 BYTE   W06
 BYTE   Cs3  v080
 BYTE   W06
 BYTE   An3
 BYTE   W06
 BYTE   Gn3  v076
 BYTE   W06
// 049   ----------------------------------------
 BYTE   Fs3  v080
 BYTE   W06
 BYTE   An3
 BYTE   W06
 BYTE   Cs3
 BYTE   W06
 BYTE   En3  v084
 BYTE   W06
 BYTE   Fs3
 BYTE   W06
 BYTE   En3
 BYTE   W06
 BYTE   Dn3  v088
 BYTE   W06
 BYTE   Bn2
 BYTE   W06
 BYTE   PEND 
Label_0_0153DF68:
 BYTE   N06  Fs3  v088
 BYTE   W06
 BYTE   Cs3
 BYTE   W06
 BYTE   An3  v084
 BYTE   W06
 BYTE   Gn3  v080
 BYTE   W06
 BYTE   Fs3  v076
 BYTE   W06
 BYTE   An3
 BYTE   W06
 BYTE   Cs3
 BYTE   W06
 BYTE   En3  v080
 BYTE   W06
// 050   ----------------------------------------
 BYTE   Fs3  v084
 BYTE   W06
 BYTE   En3  v088
 BYTE   W06
 BYTE   Dn3
 BYTE   W06
 BYTE   Bn2
 BYTE   W06
 BYTE   Dn3
 BYTE   W06
 BYTE   Fs3  v092
 BYTE   W06
 BYTE   Bn2  v084
 BYTE   W06
 BYTE   Fs3
 BYTE   W06
 BYTE   Bn2  v100
 BYTE   W06
 BYTE   Fs3  v088
 BYTE   W06
 BYTE   Cs3  v092
 BYTE   W06
 BYTE   An3  v096
 BYTE   W06
 BYTE   Fs3  v100
 BYTE   W06
 BYTE   Bn3  v104
 BYTE   W06
 BYTE   Gs3  v108
 BYTE   W06
 BYTE   En4  v112
 BYTE   W06
 BYTE   PEND 
 BYTE   PATT
  POIN2 Label_0_0153D991
 BYTE   PATT
  POIN2 Label_0_0153D9BA
 BYTE   PATT
  POIN2 Label_0_0153D9E7
 BYTE   PATT
  POIN2 Label_0_0153DA22
 BYTE   PATT
  POIN2 Label_0_0153DA53
 BYTE   PATT
  POIN2 Label_0_0153DA83
 BYTE   PATT
  POIN2 Label_0_0153DAB0
 BYTE   PATT
  POIN2 Label_0_0153DADF
 BYTE   PATT
  POIN2 Label_0_0153DB14
 BYTE   PATT
  POIN2 Label_0_0153D9BA
 BYTE   PATT
  POIN2 Label_0_0153D9E7
 BYTE   PATT
  POIN2 Label_0_0153DA22
 BYTE   PATT
  POIN2 Label_0_0153DA53
 BYTE   PATT
  POIN2 Label_0_0153DA83
 BYTE   PATT
  POIN2 Label_0_0153DAB0
 BYTE   PATT
  POIN2 Label_0_0153DADF
 BYTE   PATT
  POIN2 Label_0_0153DB5D
 BYTE   PATT
  POIN2 Label_0_0153DB77
 BYTE   PATT
  POIN2 Label_0_0153DBA5
 BYTE   PATT
  POIN2 Label_0_0153DBCE
 BYTE   PATT
  POIN2 Label_0_0153DBED
 BYTE   PATT
  POIN2 Label_0_0153DC12
 BYTE   PATT
  POIN2 Label_0_0153DC3E
 BYTE   PATT
  POIN2 Label_0_0153DCA8
 BYTE   PATT
  POIN2 Label_0_0153DB14
 BYTE   PATT
  POIN2 Label_0_0153D9BA
 BYTE   PATT
  POIN2 Label_0_0153D9E7
 BYTE   PATT
  POIN2 Label_0_0153DA22
 BYTE   PATT
  POIN2 Label_0_0153DA53
 BYTE   PATT
  POIN2 Label_0_0153DA83
 BYTE   PATT
  POIN2 Label_0_0153DAB0
 BYTE   PATT
  POIN2 Label_0_0153DADF
 BYTE   PATT
  POIN2 Label_0_0153DB14
 BYTE   PATT
  POIN2 Label_0_0153D9BA
 BYTE   PATT
  POIN2 Label_0_0153D9E7
 BYTE   PATT
  POIN2 Label_0_0153DA22
 BYTE   PATT
  POIN2 Label_0_0153DA53
 BYTE   PATT
  POIN2 Label_0_0153DA83
 BYTE   PATT
  POIN2 Label_0_0153DAB0
 BYTE   PATT
  POIN2 Label_0_0153DADF
 BYTE   PATT
  POIN2 Label_0_0153DB5D
 BYTE   PATT
  POIN2 Label_0_0153DB77
 BYTE   PATT
  POIN2 Label_0_0153DBA5
 BYTE   PATT
  POIN2 Label_0_0153DBCE
 BYTE   PATT
  POIN2 Label_0_0153DBED
 BYTE   PATT
  POIN2 Label_0_0153DC12
 BYTE   PATT
  POIN2 Label_0_0153DD90
 BYTE   PATT
  POIN2 Label_0_0153DE00
 BYTE   PATT
  POIN2 Label_0_0153DE92
 BYTE   PATT
  POIN2 Label_0_0153DEA2
// 051   ----------------------------------------
 BYTE   W96
// 052   ----------------------------------------
 BYTE   W48
 BYTE   W96
// 053   ----------------------------------------
 BYTE   W48
 BYTE   W96
// 054   ----------------------------------------
 BYTE   W48
 BYTE   W96
// 055   ----------------------------------------
 BYTE   W48
 BYTE   W96
// 056   ----------------------------------------
 BYTE   W48
 BYTE   W96
// 057   ----------------------------------------
 BYTE   W48
 BYTE   PATT
  POIN2 Label_0_0153DEC0
 BYTE   PATT
  POIN2 Label_0_0153DEC0
 BYTE   PATT
  POIN2 Label_0_0153DEC0
 BYTE   PATT
  POIN2 Label_0_0153DEC0
 BYTE   PATT
  POIN2 Label_0_0153DEC0
 BYTE   PATT
  POIN2 Label_0_0153DEC0
 BYTE   PATT
  POIN2 Label_0_0153DEC0
 BYTE   PATT
  POIN2 Label_0_0153DEC0
 BYTE   PATT
  POIN2 Label_0_0153DF2C
 BYTE   PATT
  POIN2 Label_0_0153DF68
 BYTE   FINE

//**************** Track 2 (Midi-Chn.1) ****************//

FF13DesperateStruggleMycahel_002:
// 000   ----------------------------------------
 BYTE   KEYSH   FF13DesperateStruggleMycahel_key+0
 BYTE   VOICE   48
 BYTE   VOL   48*FF13DesperateStruggleMycahel_mvl/mxv
 BYTE   N08  Fs2  v120
 BYTE   W96
// 001   ----------------------------------------
 BYTE   W48
 BYTE   W96
// 002   ----------------------------------------
 BYTE   W48
Label_1_0153E0F1:
 BYTE   N08  Fs2  v112
 BYTE   W96
// 003   ----------------------------------------
 BYTE   W48
 BYTE   PEND 
 BYTE   W96
// 004   ----------------------------------------
 BYTE   W48
 BYTE   PATT
  POIN2 Label_1_0153E0F1
// 005   ----------------------------------------
 BYTE   W96
// 006   ----------------------------------------
 BYTE   W48
 BYTE   PATT
  POIN2 Label_1_0153E0F1
// 007   ----------------------------------------
 BYTE   W96
// 008   ----------------------------------------
 BYTE   W48
 BYTE   PATT
  POIN2 Label_1_0153E0F1
// 009   ----------------------------------------
 BYTE   W96
// 010   ----------------------------------------
 BYTE   W48
 BYTE   PATT
  POIN2 Label_1_0153E0F1
// 011   ----------------------------------------
 BYTE   W96
// 012   ----------------------------------------
 BYTE   W48
 BYTE   PATT
  POIN2 Label_1_0153E0F1
// 013   ----------------------------------------
 BYTE   W96
// 014   ----------------------------------------
 BYTE   W48
 BYTE   PATT
  POIN2 Label_1_0153E0F1
// 015   ----------------------------------------
 BYTE   W96
// 016   ----------------------------------------
 BYTE   W48
 BYTE   PATT
  POIN2 Label_1_0153E0F1
// 017   ----------------------------------------
 BYTE   W96
// 018   ----------------------------------------
 BYTE   W48
 BYTE   PATT
  POIN2 Label_1_0153E0F1
// 019   ----------------------------------------
 BYTE   W96
// 020   ----------------------------------------
 BYTE   W48
 BYTE   PATT
  POIN2 Label_1_0153E0F1
// 021   ----------------------------------------
 BYTE   W96
// 022   ----------------------------------------
 BYTE   W48
Label_1_0153E138:
 BYTE   N05  Fs2  v116
 BYTE   N05  Fs3
 BYTE   W12
 BYTE   Fs2  v092
 BYTE   N05  Fs3
 BYTE   W24
 BYTE   Fs2  v100
 BYTE   N05  Fs3
 BYTE   W12
// 023   ----------------------------------------
 BYTE   Fs2
 BYTE   N05  Fs3
 BYTE   W12
 BYTE   Fs2
 BYTE   N05  Fs3
 BYTE   W12
 BYTE   Fs2  v116
 BYTE   N05  Fs3
 BYTE   W16
 BYTE   Fs2
 BYTE   N05  Fs3
 BYTE   W20
 BYTE   N04  Fs2  v112
 BYTE   N04  Fs3
 BYTE   W06
 BYTE   Fs2  v096
 BYTE   N04  Fs3
 BYTE   W06
 BYTE   N05  Fs2  v116
 BYTE   N05  Fs3
 BYTE   W12
 BYTE   Fs2  v108
 BYTE   N05  Fs3
 BYTE   W12
 BYTE   PEND 
// 024   ----------------------------------------
Label_1_0153E170:
 BYTE   N05  Fs2  v116
 BYTE   N05  Fs3
 BYTE   W12
 BYTE   N02  Fs2  v092
 BYTE   N02  Fs3
 BYTE   W05
 BYTE   N05  Fs2  v116
 BYTE   N05  Fs3
 BYTE   W19
 BYTE   N04  Fs2  v072
 BYTE   N04  Fs3
 BYTE   W06
 BYTE   Fs2  v096
 BYTE   N04  Fs3
 BYTE   W06
 BYTE   N05  Fs2  v116
 BYTE   N05  Fs3
 BYTE   W12
 BYTE   Fs2  v108
 BYTE   N05  Fs3
 BYTE   W12
 BYTE   Fs2  v116
 BYTE   N05  Fs3
 BYTE   W17
 BYTE   Fs2
 BYTE   N05  Fs3
 BYTE   W19
// 025   ----------------------------------------
 BYTE   N04  Fs2  v092
 BYTE   N04  Fs3
 BYTE   W12
 BYTE   N05  Fs2  v116
 BYTE   N05  Fs3
 BYTE   W12
 BYTE   Fs2  v108
 BYTE   N05  Fs3
 BYTE   W12
 BYTE   PEND 
 BYTE   PATT
  POIN2 Label_1_0153E138
 BYTE   PATT
  POIN2 Label_1_0153E170
 BYTE   PATT
  POIN2 Label_1_0153E138
 BYTE   PATT
  POIN2 Label_1_0153E170
 BYTE   PATT
  POIN2 Label_1_0153E138
 BYTE   PATT
  POIN2 Label_1_0153E170
 BYTE   PATT
  POIN2 Label_1_0153E0F1
// 026   ----------------------------------------
 BYTE   W96
// 027   ----------------------------------------
 BYTE   W48
 BYTE   PATT
  POIN2 Label_1_0153E0F1
// 028   ----------------------------------------
 BYTE   W96
// 029   ----------------------------------------
 BYTE   W48
 BYTE   PATT
  POIN2 Label_1_0153E0F1
// 030   ----------------------------------------
 BYTE   W96
// 031   ----------------------------------------
 BYTE   W48
 BYTE   PATT
  POIN2 Label_1_0153E0F1
// 032   ----------------------------------------
 BYTE   W96
// 033   ----------------------------------------
 BYTE   W48
 BYTE   PATT
  POIN2 Label_1_0153E0F1
// 034   ----------------------------------------
 BYTE   W96
// 035   ----------------------------------------
 BYTE   W48
 BYTE   PATT
  POIN2 Label_1_0153E0F1
// 036   ----------------------------------------
 BYTE   W96
// 037   ----------------------------------------
 BYTE   W48
 BYTE   PATT
  POIN2 Label_1_0153E0F1
// 038   ----------------------------------------
 BYTE   W96
// 039   ----------------------------------------
 BYTE   W48
 BYTE   PATT
  POIN2 Label_1_0153E0F1
// 040   ----------------------------------------
 BYTE   W96
// 041   ----------------------------------------
 BYTE   W48
 BYTE   PATT
  POIN2 Label_1_0153E138
 BYTE   PATT
  POIN2 Label_1_0153E170
 BYTE   PATT
  POIN2 Label_1_0153E138
 BYTE   PATT
  POIN2 Label_1_0153E170
 BYTE   PATT
  POIN2 Label_1_0153E138
 BYTE   PATT
  POIN2 Label_1_0153E170
 BYTE   PATT
  POIN2 Label_1_0153E138
 BYTE   PATT
  POIN2 Label_1_0153E170
// 042   ----------------------------------------
 BYTE   W96
// 043   ----------------------------------------
 BYTE   W48
 BYTE   W96
// 044   ----------------------------------------
 BYTE   W48
 BYTE   PATT
  POIN2 Label_1_0153E138
// 045   ----------------------------------------
Label_1_0153E23A:
 BYTE   N05  Cn2  v116
 BYTE   N05  Cn3
 BYTE   W12
 BYTE   N02  Cn2  v092
 BYTE   N02  Cn3
 BYTE   W05
 BYTE   N05  Cn2  v116
 BYTE   N05  Cn3
 BYTE   W19
 BYTE   N04  Cn2  v072
 BYTE   N04  Cn3
 BYTE   W06
 BYTE   Cn2  v096
 BYTE   N04  Cn3
 BYTE   W06
 BYTE   N05  Cn2  v116
 BYTE   N05  Cn3
 BYTE   W12
 BYTE   Cn2  v108
 BYTE   N05  Cn3
 BYTE   W12
 BYTE   En2  v116
 BYTE   N05  En3
 BYTE   W17
 BYTE   En2
 BYTE   N05  En3
 BYTE   W19
// 046   ----------------------------------------
 BYTE   N04  En2  v092
 BYTE   N04  En3
 BYTE   W12
 BYTE   N05  En2  v116
 BYTE   N05  En3
 BYTE   W12
 BYTE   En2  v108
 BYTE   N05  En3
 BYTE   W12
 BYTE   PEND 
 BYTE   W96
// 047   ----------------------------------------
 BYTE   W48
 BYTE   W96
// 048   ----------------------------------------
 BYTE   W48
 BYTE   PATT
  POIN2 Label_1_0153E138
 BYTE   PATT
  POIN2 Label_1_0153E23A
// 049   ----------------------------------------
 BYTE   W96
// 050   ----------------------------------------
 BYTE   W48
 BYTE   W96
// 051   ----------------------------------------
 BYTE   W48
 BYTE   PATT
  POIN2 Label_1_0153E138
 BYTE   PATT
  POIN2 Label_1_0153E170
// 052   ----------------------------------------
 BYTE   W96
// 053   ----------------------------------------
 BYTE   W48
 BYTE   W96
// 054   ----------------------------------------
 BYTE   W48
 BYTE   PATT
  POIN2 Label_1_0153E138
 BYTE   PATT
  POIN2 Label_1_0153E170
// 055   ----------------------------------------
Label_1_0153E2A7:
 BYTE   W72
 BYTE   N04  Fs2  v120
 BYTE   N04  Fs3
 BYTE   W12
 BYTE   Fs2  v108
 BYTE   N04  Fs3
 BYTE   W06
 BYTE   Fs2  v100
 BYTE   N04  Fs3
 BYTE   W06
// 056   ----------------------------------------
 BYTE   TIE  Fs2  v124
 BYTE   TIE  Fs3
 BYTE   W18
 BYTE   W02
 BYTE   W03
 BYTE   W02
 BYTE   W02
 BYTE   W02
 BYTE   W03
 BYTE   W01
 BYTE   W03
 BYTE   W02
 BYTE   W01
 BYTE   W02
 BYTE   W01
 BYTE   W01
 BYTE   W01
 BYTE   W02
 BYTE   W01
 BYTE   W01
 BYTE   PEND 
Label_1_0153E2D0:
 BYTE   W01
 BYTE   W02
 BYTE   W01
 BYTE   W01
 BYTE   W01
 BYTE   W02
 BYTE   W01
 BYTE   W01
 BYTE   W02
 BYTE   W01
 BYTE   W01
 BYTE   W01
 BYTE   W02
 BYTE   W01
 BYTE   W01
 BYTE   W01
 BYTE   W02
 BYTE   W03
 BYTE   W03
 BYTE   W02
 BYTE   W03
 BYTE   W03
 BYTE   W02
 BYTE   W03
 BYTE   W03
 BYTE   W03
 BYTE   W02
// 057   ----------------------------------------
 BYTE   W03
 BYTE   W02
 BYTE   W03
 BYTE   W03
 BYTE   W02
 BYTE   W01
 BYTE   W02
 BYTE   W01
 BYTE   W01
 BYTE   W01
 BYTE   W02
 BYTE   W01
 BYTE   W01
 BYTE   W01
 BYTE   W02
 BYTE   W01
 BYTE   W01
 BYTE   W01
 BYTE   W02
 BYTE   W01
 BYTE   W01
 BYTE   W02
 BYTE   W01
 BYTE   W01
 BYTE   W01
 BYTE   W02
 BYTE   W01
 BYTE   W01
 BYTE   W01
 BYTE   W02
 BYTE   W01
 BYTE   W01
 BYTE   W01
 BYTE   W02
 BYTE   W01
 BYTE   W01
 BYTE   W01
 BYTE   W02
 BYTE   W01
 BYTE   W01
 BYTE   W02
 BYTE   W01
 BYTE   W01
 BYTE   W01
 BYTE   W02
 BYTE   W01
 BYTE   W01
 BYTE   W01
 BYTE   W02
 BYTE   W01
 BYTE   W01
 BYTE   W01
 BYTE   W02
 BYTE   W01
 BYTE   W01
 BYTE   W01
 BYTE   W02
 BYTE   W01
 BYTE   W01
 BYTE   W02
 BYTE   W01
 BYTE   W01
 BYTE   W01
 BYTE   W02
 BYTE   W01
 BYTE   W01
 BYTE   W05
 BYTE   PEND 
 BYTE   EOT
 BYTE   Fs2  v066
 BYTE   PATT
  POIN2 Label_1_0153E0F1
// 058   ----------------------------------------
 BYTE   W96
// 059   ----------------------------------------
 BYTE   W48
 BYTE   PATT
  POIN2 Label_1_0153E0F1
// 060   ----------------------------------------
 BYTE   W96
// 061   ----------------------------------------
 BYTE   W48
 BYTE   PATT
  POIN2 Label_1_0153E0F1
// 062   ----------------------------------------
 BYTE   W96
// 063   ----------------------------------------
 BYTE   W48
 BYTE   PATT
  POIN2 Label_1_0153E0F1
// 064   ----------------------------------------
 BYTE   W96
// 065   ----------------------------------------
 BYTE   W48
 BYTE   PATT
  POIN2 Label_1_0153E0F1
// 066   ----------------------------------------
 BYTE   W96
// 067   ----------------------------------------
 BYTE   W48
 BYTE   PATT
  POIN2 Label_1_0153E0F1
// 068   ----------------------------------------
 BYTE   W96
// 069   ----------------------------------------
 BYTE   W48
 BYTE   PATT
  POIN2 Label_1_0153E0F1
// 070   ----------------------------------------
 BYTE   W96
// 071   ----------------------------------------
 BYTE   W48
 BYTE   PATT
  POIN2 Label_1_0153E0F1
// 072   ----------------------------------------
 BYTE   W96
// 073   ----------------------------------------
 BYTE   W48
 BYTE   PATT
  POIN2 Label_1_0153E138
 BYTE   PATT
  POIN2 Label_1_0153E170
 BYTE   PATT
  POIN2 Label_1_0153E138
 BYTE   PATT
  POIN2 Label_1_0153E170
 BYTE   PATT
  POIN2 Label_1_0153E138
 BYTE   PATT
  POIN2 Label_1_0153E170
 BYTE   PATT
  POIN2 Label_1_0153E138
 BYTE   PATT
  POIN2 Label_1_0153E170
 BYTE   PATT
  POIN2 Label_1_0153E0F1
// 074   ----------------------------------------
 BYTE   W96
// 075   ----------------------------------------
 BYTE   W48
 BYTE   PATT
  POIN2 Label_1_0153E0F1
// 076   ----------------------------------------
 BYTE   W96
// 077   ----------------------------------------
 BYTE   W48
 BYTE   PATT
  POIN2 Label_1_0153E0F1
// 078   ----------------------------------------
 BYTE   W96
// 079   ----------------------------------------
 BYTE   W48
 BYTE   PATT
  POIN2 Label_1_0153E0F1
// 080   ----------------------------------------
 BYTE   W96
// 081   ----------------------------------------
 BYTE   W48
 BYTE   PATT
  POIN2 Label_1_0153E0F1
// 082   ----------------------------------------
 BYTE   W96
// 083   ----------------------------------------
 BYTE   W48
 BYTE   PATT
  POIN2 Label_1_0153E0F1
// 084   ----------------------------------------
 BYTE   W96
// 085   ----------------------------------------
 BYTE   W48
 BYTE   PATT
  POIN2 Label_1_0153E0F1
// 086   ----------------------------------------
 BYTE   W96
// 087   ----------------------------------------
 BYTE   W48
 BYTE   PATT
  POIN2 Label_1_0153E0F1
// 088   ----------------------------------------
 BYTE   W96
// 089   ----------------------------------------
 BYTE   W48
 BYTE   PATT
  POIN2 Label_1_0153E138
 BYTE   PATT
  POIN2 Label_1_0153E170
 BYTE   PATT
  POIN2 Label_1_0153E138
 BYTE   PATT
  POIN2 Label_1_0153E170
 BYTE   PATT
  POIN2 Label_1_0153E138
 BYTE   PATT
  POIN2 Label_1_0153E170
 BYTE   PATT
  POIN2 Label_1_0153E138
 BYTE   PATT
  POIN2 Label_1_0153E170
// 090   ----------------------------------------
 BYTE   W96
// 091   ----------------------------------------
 BYTE   W48
 BYTE   W96
// 092   ----------------------------------------
 BYTE   W48
 BYTE   PATT
  POIN2 Label_1_0153E138
 BYTE   PATT
  POIN2 Label_1_0153E23A
// 093   ----------------------------------------
 BYTE   W96
// 094   ----------------------------------------
 BYTE   W48
 BYTE   W96
// 095   ----------------------------------------
 BYTE   W48
 BYTE   PATT
  POIN2 Label_1_0153E138
 BYTE   PATT
  POIN2 Label_1_0153E23A
// 096   ----------------------------------------
 BYTE   W96
// 097   ----------------------------------------
 BYTE   W48
 BYTE   W96
// 098   ----------------------------------------
 BYTE   W48
 BYTE   PATT
  POIN2 Label_1_0153E138
 BYTE   PATT
  POIN2 Label_1_0153E170
// 099   ----------------------------------------
 BYTE   W96
// 100   ----------------------------------------
 BYTE   W48
 BYTE   W96
// 101   ----------------------------------------
 BYTE   W48
 BYTE   PATT
  POIN2 Label_1_0153E138
 BYTE   PATT
  POIN2 Label_1_0153E170
 BYTE   PATT
  POIN2 Label_1_0153E2A7
 BYTE   PATT
  POIN2 Label_1_0153E2D0
// 102   ----------------------------------------
 BYTE   EOT
 BYTE   Fs2  v066
 BYTE   FINE

//**************** Track 3 (Midi-Chn.2) ****************//

FF13DesperateStruggleMycahel_003:
// 000   ----------------------------------------
 BYTE   KEYSH   FF13DesperateStruggleMycahel_key+0
 BYTE   VOICE   48
 BYTE   VOL   48*FF13DesperateStruggleMycahel_mvl/mxv
 BYTE   BEND   c_v-1
 BYTE   N12  Fs0  v112
 BYTE   N12  Fs1
 BYTE   W36
 BYTE   Fs0  v100
 BYTE   N12  Fs1
 BYTE   W24
 BYTE   Fs0  v108
 BYTE   N12  Fs1
 BYTE   W24
 BYTE   Fs0  v100
 BYTE   N12  Fs1
 BYTE   W12
// 001   ----------------------------------------
 BYTE   Fs0  v112
 BYTE   N12  Fs1
 BYTE   W48
Label_2_0153E45A:
 BYTE   N12  Fs0  v112
 BYTE   N12  Fs1
 BYTE   W36
 BYTE   Fs0  v100
 BYTE   N12  Fs1
 BYTE   W24
// 002   ----------------------------------------
 BYTE   Fs0  v108
 BYTE   N12  Fs1
 BYTE   W24
 BYTE   Fs0  v100
 BYTE   N12  Fs1
 BYTE   W12
 BYTE   Fs0  v112
 BYTE   N12  Fs1
 BYTE   W24
 BYTE   Fs0  v100
 BYTE   N12  Fs1
 BYTE   W24
 BYTE   PEND 
Label_2_0153E47A:
 BYTE   N12  Fs0  v112
 BYTE   N12  Fs1
 BYTE   W36
// 003   ----------------------------------------
 BYTE   Fs0  v100
 BYTE   N12  Fs1
 BYTE   W24
 BYTE   Fs0  v112
 BYTE   N12  Fs1
 BYTE   W24
 BYTE   Fs0  v100
 BYTE   N12  Fs1
 BYTE   W12
 BYTE   Fs0  v112
 BYTE   N12  Fs1
 BYTE   W48
 BYTE   PEND 
// 004   ----------------------------------------
Label_2_0153E495:
 BYTE   N12  Fs0  v112
 BYTE   N12  Fs1
 BYTE   W36
 BYTE   Fs0  v100
 BYTE   N12  Fs1
 BYTE   W24
 BYTE   Fs0  v112
 BYTE   N12  Fs1
 BYTE   W24
 BYTE   Fs0  v100
 BYTE   N12  Fs1
 BYTE   W12
// 005   ----------------------------------------
 BYTE   Fs0  v112
 BYTE   N12  Fs1
 BYTE   W24
 BYTE   Fs0  v100
 BYTE   N12  Fs1
 BYTE   W24
 BYTE   PEND 
 BYTE   PATT
  POIN2 Label_2_0153E47A
 BYTE   PATT
  POIN2 Label_2_0153E495
// 006   ----------------------------------------
Label_2_0153E4BF:
 BYTE   N12  Fs0  v112
 BYTE   N12  Fs1
 BYTE   W36
 BYTE   Fs0  v100
 BYTE   N12  Fs1
 BYTE   W24
 BYTE   Fs0  v108
 BYTE   N12  Fs1
 BYTE   W24
 BYTE   Fs0  v100
 BYTE   N12  Fs1
 BYTE   W12
// 007   ----------------------------------------
 BYTE   Fs0  v112
 BYTE   N12  Fs1
 BYTE   W48
 BYTE   PEND 
 BYTE   PATT
  POIN2 Label_2_0153E45A
 BYTE   PATT
  POIN2 Label_2_0153E47A
 BYTE   PATT
  POIN2 Label_2_0153E495
 BYTE   PATT
  POIN2 Label_2_0153E47A
 BYTE   PATT
  POIN2 Label_2_0153E495
 BYTE   PATT
  POIN2 Label_2_0153E47A
 BYTE   PATT
  POIN2 Label_2_0153E495
 BYTE   PATT
  POIN2 Label_2_0153E4BF
 BYTE   PATT
  POIN2 Label_2_0153E45A
 BYTE   PATT
  POIN2 Label_2_0153E47A
 BYTE   PATT
  POIN2 Label_2_0153E495
 BYTE   PATT
  POIN2 Label_2_0153E47A
 BYTE   PATT
  POIN2 Label_2_0153E495
 BYTE   PATT
  POIN2 Label_2_0153E47A
 BYTE   PATT
  POIN2 Label_2_0153E495
// 008   ----------------------------------------
Label_2_0153E525:
 BYTE   N05  Fs0  v116
 BYTE   N05  Fs1
 BYTE   W12
 BYTE   Fs0  v092
 BYTE   N05  Fs1
 BYTE   W24
 BYTE   Fs0  v100
 BYTE   N05  Fs1
 BYTE   W12
 BYTE   Fs0
 BYTE   N05  Fs1
 BYTE   W12
 BYTE   Fs0
 BYTE   N05  Fs1
 BYTE   W12
 BYTE   Fs0  v116
 BYTE   N05  Fs1
 BYTE   W16
 BYTE   Fs0
 BYTE   N05  Fs1
 BYTE   W20
// 009   ----------------------------------------
 BYTE   N04  Fs0  v112
 BYTE   N04  Fs1
 BYTE   W06
 BYTE   Fs0  v096
 BYTE   N04  Fs1
 BYTE   W06
 BYTE   N05  Fs0  v116
 BYTE   N05  Fs1
 BYTE   W12
 BYTE   Fs0  v108
 BYTE   N05  Fs1
 BYTE   W12
 BYTE   PEND 
Label_2_0153E55D:
 BYTE   N05  Fs0  v116
 BYTE   N05  Fs1
 BYTE   W12
 BYTE   N02  Fs0  v092
 BYTE   N02  Fs1
 BYTE   W05
 BYTE   N05  Fs0  v116
 BYTE   N05  Fs1
 BYTE   W19
 BYTE   N04  Fs0  v072
 BYTE   N04  Fs1
 BYTE   W06
 BYTE   Fs0  v096
 BYTE   N04  Fs1
 BYTE   W06
 BYTE   N05  Fs0  v116
 BYTE   N05  Fs1
 BYTE   W12
// 010   ----------------------------------------
 BYTE   Fs0  v108
 BYTE   N05  Fs1
 BYTE   W12
 BYTE   Fs0  v116
 BYTE   N05  Fs1
 BYTE   W17
 BYTE   Fs0
 BYTE   N05  Fs1
 BYTE   W19
 BYTE   N04  Fs0  v092
 BYTE   N04  Fs1
 BYTE   W12
 BYTE   N05  Fs0  v116
 BYTE   N05  Fs1
 BYTE   W12
 BYTE   Fs0  v108
 BYTE   N05  Fs1
 BYTE   W12
 BYTE   PEND 
 BYTE   PATT
  POIN2 Label_2_0153E525
 BYTE   PATT
  POIN2 Label_2_0153E55D
 BYTE   PATT
  POIN2 Label_2_0153E525
 BYTE   PATT
  POIN2 Label_2_0153E55D
 BYTE   PATT
  POIN2 Label_2_0153E525
 BYTE   PATT
  POIN2 Label_2_0153E55D
 BYTE   PATT
  POIN2 Label_2_0153E4BF
 BYTE   PATT
  POIN2 Label_2_0153E45A
 BYTE   PATT
  POIN2 Label_2_0153E47A
 BYTE   PATT
  POIN2 Label_2_0153E495
 BYTE   PATT
  POIN2 Label_2_0153E47A
 BYTE   PATT
  POIN2 Label_2_0153E495
 BYTE   PATT
  POIN2 Label_2_0153E47A
 BYTE   PATT
  POIN2 Label_2_0153E495
 BYTE   PATT
  POIN2 Label_2_0153E4BF
 BYTE   PATT
  POIN2 Label_2_0153E45A
 BYTE   PATT
  POIN2 Label_2_0153E47A
 BYTE   PATT
  POIN2 Label_2_0153E495
 BYTE   PATT
  POIN2 Label_2_0153E47A
 BYTE   PATT
  POIN2 Label_2_0153E495
 BYTE   PATT
  POIN2 Label_2_0153E47A
 BYTE   PATT
  POIN2 Label_2_0153E495
 BYTE   PATT
  POIN2 Label_2_0153E525
 BYTE   PATT
  POIN2 Label_2_0153E55D
 BYTE   PATT
  POIN2 Label_2_0153E525
 BYTE   PATT
  POIN2 Label_2_0153E55D
 BYTE   PATT
  POIN2 Label_2_0153E525
 BYTE   PATT
  POIN2 Label_2_0153E55D
 BYTE   PATT
  POIN2 Label_2_0153E525
 BYTE   PATT
  POIN2 Label_2_0153E55D
// 011   ----------------------------------------
Label_2_0153E636:
 BYTE   N12  Bn0  v116
 BYTE   N12  Bn1
 BYTE   W72
 BYTE   Bn0  v100
 BYTE   N12  Bn1
 BYTE   W12
 BYTE   Fs0
 BYTE   N12  Fs1
 BYTE   W12
// 012   ----------------------------------------
 BYTE   Bn0
 BYTE   N12  Bn1
 BYTE   W12
 BYTE   Fs0
 BYTE   N12  Fs1
 BYTE   W12
 BYTE   Bn0
 BYTE   N12  Bn1
 BYTE   W12
 BYTE   Fs0
 BYTE   N12  Fs1
 BYTE   W12
 BYTE   PEND 
Label_2_0153E656:
 BYTE   N12  Bn0  v120
 BYTE   N12  Bn1
 BYTE   W72
// 013   ----------------------------------------
 BYTE   Bn0  v100
 BYTE   N12  Bn1
 BYTE   W12
 BYTE   Fs0
 BYTE   N12  Fs1
 BYTE   W12
 BYTE   Bn0
 BYTE   N12  Bn1
 BYTE   W12
 BYTE   Fs0
 BYTE   N12  Fs1
 BYTE   W12
 BYTE   Bn0
 BYTE   N12  Bn1
 BYTE   W12
 BYTE   Fs0
 BYTE   N12  Fs1
 BYTE   W12
 BYTE   PEND 
Label_2_0153E676:
 BYTE   N72  Bn0  v100
 BYTE   N72  Bn1
 BYTE   W72
// 014   ----------------------------------------
 BYTE   N12  Bn0
 BYTE   N12  Bn1
 BYTE   W12
 BYTE   Fs0
 BYTE   N12  Fs1
 BYTE   W12
 BYTE   Bn0
 BYTE   N12  Bn1
 BYTE   W12
 BYTE   Fs0
 BYTE   N12  Fs1
 BYTE   W12
 BYTE   Bn0
 BYTE   N12  Bn1
 BYTE   W12
 BYTE   Fs0
 BYTE   N12  Fs1
 BYTE   W12
 BYTE   PEND 
Label_2_0153E696:
 BYTE   N12  Cn1  v100
 BYTE   N12  Cn2
 BYTE   W12
 BYTE   Gn0
 BYTE   N12  Gn1
 BYTE   W12
// 015   ----------------------------------------
 BYTE   Dn1
 BYTE   N12  Dn2
 BYTE   W12
 BYTE   An0
 BYTE   N12  An1
 BYTE   W12
 BYTE   Cn1
 BYTE   N12  Cn2
 BYTE   W12
 BYTE   Gn0
 BYTE   N12  Gn1
 BYTE   W12
 BYTE   N72  Bn0
 BYTE   N72  Bn1
 BYTE   W72
 BYTE   PEND 
 BYTE   PATT
  POIN2 Label_2_0153E636
 BYTE   PATT
  POIN2 Label_2_0153E656
 BYTE   PATT
  POIN2 Label_2_0153E676
 BYTE   PATT
  POIN2 Label_2_0153E696
// 016   ----------------------------------------
Label_2_0153E6CA:
 BYTE   TIE  Cn1  v100
 BYTE   TIE  Cn2
 BYTE   W96
// 017   ----------------------------------------
 BYTE   W48
 BYTE   PEND 
 BYTE   W96
// 018   ----------------------------------------
 BYTE   W48
 BYTE   EOT
 BYTE   Cn1  v048
Label_2_0153E6D7:
 BYTE   TIE  Cs1  v100
 BYTE   TIE  Cs2
 BYTE   W96
// 019   ----------------------------------------
 BYTE   W48
 BYTE   PEND 
 BYTE   W96
// 020   ----------------------------------------
 BYTE   W48
 BYTE   EOT
 BYTE   Cs1  v049
 BYTE   PATT
  POIN2 Label_2_0153E6CA
// 021   ----------------------------------------
 BYTE   W96
// 022   ----------------------------------------
 BYTE   W48
 BYTE   EOT
 BYTE   Cn1  v048
 BYTE   PATT
  POIN2 Label_2_0153E6D7
// 023   ----------------------------------------
 BYTE   W96
// 024   ----------------------------------------
 BYTE   W48
 BYTE   EOT
 BYTE   Cs1  v049
Label_2_0153E6F8:
 BYTE   N04  Fs2  v124
 BYTE   N04  Fs3
 BYTE   W96
// 025   ----------------------------------------
 BYTE   W24
 BYTE   Fs2
 BYTE   N04  Fs3
 BYTE   W24
 BYTE   PEND 
Label_2_0153E704:
 BYTE   N04  Fs2  v124
 BYTE   N04  Fs3
 BYTE   W36
 BYTE   Fs2  v120
 BYTE   N04  Fs3
 BYTE   W36
// 026   ----------------------------------------
 BYTE   Fs2  v124
 BYTE   N04  Fs3
 BYTE   W72
 BYTE   PEND 
 BYTE   PATT
  POIN2 Label_2_0153E4BF
 BYTE   PATT
  POIN2 Label_2_0153E45A
 BYTE   PATT
  POIN2 Label_2_0153E47A
 BYTE   PATT
  POIN2 Label_2_0153E495
 BYTE   PATT
  POIN2 Label_2_0153E47A
 BYTE   PATT
  POIN2 Label_2_0153E495
 BYTE   PATT
  POIN2 Label_2_0153E47A
 BYTE   PATT
  POIN2 Label_2_0153E495
 BYTE   PATT
  POIN2 Label_2_0153E4BF
 BYTE   PATT
  POIN2 Label_2_0153E45A
 BYTE   PATT
  POIN2 Label_2_0153E47A
 BYTE   PATT
  POIN2 Label_2_0153E495
 BYTE   PATT
  POIN2 Label_2_0153E47A
 BYTE   PATT
  POIN2 Label_2_0153E495
 BYTE   PATT
  POIN2 Label_2_0153E47A
 BYTE   PATT
  POIN2 Label_2_0153E495
 BYTE   PATT
  POIN2 Label_2_0153E525
 BYTE   PATT
  POIN2 Label_2_0153E55D
 BYTE   PATT
  POIN2 Label_2_0153E525
 BYTE   PATT
  POIN2 Label_2_0153E55D
 BYTE   PATT
  POIN2 Label_2_0153E525
 BYTE   PATT
  POIN2 Label_2_0153E55D
 BYTE   PATT
  POIN2 Label_2_0153E525
 BYTE   PATT
  POIN2 Label_2_0153E55D
 BYTE   PATT
  POIN2 Label_2_0153E4BF
 BYTE   PATT
  POIN2 Label_2_0153E45A
 BYTE   PATT
  POIN2 Label_2_0153E47A
 BYTE   PATT
  POIN2 Label_2_0153E495
 BYTE   PATT
  POIN2 Label_2_0153E47A
 BYTE   PATT
  POIN2 Label_2_0153E495
 BYTE   PATT
  POIN2 Label_2_0153E47A
 BYTE   PATT
  POIN2 Label_2_0153E495
 BYTE   PATT
  POIN2 Label_2_0153E4BF
 BYTE   PATT
  POIN2 Label_2_0153E45A
 BYTE   PATT
  POIN2 Label_2_0153E47A
 BYTE   PATT
  POIN2 Label_2_0153E495
 BYTE   PATT
  POIN2 Label_2_0153E47A
 BYTE   PATT
  POIN2 Label_2_0153E495
 BYTE   PATT
  POIN2 Label_2_0153E47A
 BYTE   PATT
  POIN2 Label_2_0153E495
 BYTE   PATT
  POIN2 Label_2_0153E525
 BYTE   PATT
  POIN2 Label_2_0153E55D
 BYTE   PATT
  POIN2 Label_2_0153E525
 BYTE   PATT
  POIN2 Label_2_0153E55D
 BYTE   PATT
  POIN2 Label_2_0153E525
 BYTE   PATT
  POIN2 Label_2_0153E55D
 BYTE   PATT
  POIN2 Label_2_0153E525
 BYTE   PATT
  POIN2 Label_2_0153E55D
 BYTE   PATT
  POIN2 Label_2_0153E636
 BYTE   PATT
  POIN2 Label_2_0153E656
 BYTE   PATT
  POIN2 Label_2_0153E676
 BYTE   PATT
  POIN2 Label_2_0153E696
 BYTE   PATT
  POIN2 Label_2_0153E636
 BYTE   PATT
  POIN2 Label_2_0153E656
 BYTE   PATT
  POIN2 Label_2_0153E676
 BYTE   PATT
  POIN2 Label_2_0153E696
 BYTE   PATT
  POIN2 Label_2_0153E6CA
// 027   ----------------------------------------
 BYTE   W96
// 028   ----------------------------------------
 BYTE   W48
 BYTE   EOT
 BYTE   Cn1  v048
 BYTE   PATT
  POIN2 Label_2_0153E6D7
// 029   ----------------------------------------
 BYTE   W96
// 030   ----------------------------------------
 BYTE   W48
 BYTE   EOT
 BYTE   Cs1  v049
 BYTE   PATT
  POIN2 Label_2_0153E6CA
// 031   ----------------------------------------
 BYTE   W96
// 032   ----------------------------------------
 BYTE   W48
 BYTE   EOT
 BYTE   Cn1  v048
 BYTE   PATT
  POIN2 Label_2_0153E6D7
// 033   ----------------------------------------
 BYTE   W96
// 034   ----------------------------------------
 BYTE   W48
 BYTE   EOT
 BYTE   Cs1  v049
 BYTE   PATT
  POIN2 Label_2_0153E6F8
 BYTE   PATT
  POIN2 Label_2_0153E704
 BYTE   FINE

//**************** Track 4 (Midi-Chn.3) ****************//

FF13DesperateStruggleMycahel_004:
// 000   ----------------------------------------
 BYTE   KEYSH   FF13DesperateStruggleMycahel_key+0
 BYTE   VOICE   73
 BYTE   VOL   48*FF13DesperateStruggleMycahel_mvl/mxv
 BYTE   W96
// 001   ----------------------------------------
 BYTE   W48
 BYTE   W96
// 002   ----------------------------------------
 BYTE   W48
 BYTE   W96
// 003   ----------------------------------------
 BYTE   W48
 BYTE   W96
// 004   ----------------------------------------
 BYTE   W48
 BYTE   W96
// 005   ----------------------------------------
 BYTE   W48
 BYTE   W96
// 006   ----------------------------------------
 BYTE   W48
 BYTE   W96
// 007   ----------------------------------------
 BYTE   W48
 BYTE   W96
// 008   ----------------------------------------
 BYTE   W48
 BYTE   W96
// 009   ----------------------------------------
 BYTE   W48
 BYTE   W96
// 010   ----------------------------------------
 BYTE   W48
 BYTE   W96
// 011   ----------------------------------------
 BYTE   W48
 BYTE   W96
// 012   ----------------------------------------
 BYTE   W48
 BYTE   W96
// 013   ----------------------------------------
 BYTE   W48
 BYTE   W96
// 014   ----------------------------------------
 BYTE   W48
 BYTE   W96
// 015   ----------------------------------------
 BYTE   W48
 BYTE   W96
// 016   ----------------------------------------
 BYTE   W48
 BYTE   W96
// 017   ----------------------------------------
 BYTE   W48
Label_3_0153E888:
 BYTE   N72  An4  v104
 BYTE   W72
// 018   ----------------------------------------
 BYTE   N24  Gs4
 BYTE   W24
 BYTE   An4
 BYTE   W24
 BYTE   Bn4
 BYTE   W24
 BYTE   PEND 
Label_3_0153E894:
 BYTE   TIE  Cs5  v104
 BYTE   W96
// 019   ----------------------------------------
 BYTE   W48
 BYTE   PEND 
 BYTE   W96
// 020   ----------------------------------------
 BYTE   W48
 BYTE   EOT
Label_3_0153E89D:
 BYTE   TIE  Fs5  v104
 BYTE   W96
// 021   ----------------------------------------
 BYTE   W48
 BYTE   PEND 
 BYTE   W96
// 022   ----------------------------------------
 BYTE   W48
 BYTE   EOT
 BYTE   W96
// 023   ----------------------------------------
 BYTE   W48
 BYTE   W96
// 024   ----------------------------------------
 BYTE   W48
 BYTE   W96
// 025   ----------------------------------------
 BYTE   W48
 BYTE   W96
// 026   ----------------------------------------
 BYTE   W48
 BYTE   W96
// 027   ----------------------------------------
 BYTE   W48
 BYTE   W96
// 028   ----------------------------------------
 BYTE   W48
 BYTE   W96
// 029   ----------------------------------------
 BYTE   W48
 BYTE   W96
// 030   ----------------------------------------
 BYTE   W48
 BYTE   W96
// 031   ----------------------------------------
 BYTE   W48
 BYTE   W96
// 032   ----------------------------------------
 BYTE   W48
 BYTE   W96
// 033   ----------------------------------------
 BYTE   W48
 BYTE   W96
// 034   ----------------------------------------
 BYTE   W48
 BYTE   W96
// 035   ----------------------------------------
 BYTE   W48
 BYTE   W96
// 036   ----------------------------------------
 BYTE   W48
 BYTE   W96
// 037   ----------------------------------------
 BYTE   W48
 BYTE   W96
// 038   ----------------------------------------
 BYTE   W48
 BYTE   W96
// 039   ----------------------------------------
 BYTE   W48
 BYTE   W96
// 040   ----------------------------------------
 BYTE   W48
 BYTE   W96
// 041   ----------------------------------------
 BYTE   W48
 BYTE   PATT
  POIN2 Label_3_0153E888
 BYTE   PATT
  POIN2 Label_3_0153E894
// 042   ----------------------------------------
 BYTE   W96
// 043   ----------------------------------------
 BYTE   W48
 BYTE   EOT
 BYTE   Cs5
 BYTE   PATT
  POIN2 Label_3_0153E89D
// 044   ----------------------------------------
 BYTE   W96
// 045   ----------------------------------------
 BYTE   W48
 BYTE   EOT
 BYTE   Fs5
 BYTE   W96
// 046   ----------------------------------------
 BYTE   W48
 BYTE   W96
// 047   ----------------------------------------
 BYTE   W48
 BYTE   W96
// 048   ----------------------------------------
 BYTE   W48
 BYTE   W96
// 049   ----------------------------------------
 BYTE   W48
 BYTE   W96
// 050   ----------------------------------------
 BYTE   W48
 BYTE   W96
// 051   ----------------------------------------
 BYTE   W48
 BYTE   W96
// 052   ----------------------------------------
 BYTE   W48
 BYTE   W96
// 053   ----------------------------------------
 BYTE   W48
 BYTE   W96
// 054   ----------------------------------------
 BYTE   W48
 BYTE   W96
// 055   ----------------------------------------
 BYTE   W48
 BYTE   W96
// 056   ----------------------------------------
 BYTE   W48
 BYTE   W96
// 057   ----------------------------------------
 BYTE   W48
 BYTE   W96
// 058   ----------------------------------------
 BYTE   W48
 BYTE   W96
// 059   ----------------------------------------
 BYTE   W48
 BYTE   W96
// 060   ----------------------------------------
 BYTE   W48
 BYTE   W96
// 061   ----------------------------------------
 BYTE   W48
 BYTE   W96
// 062   ----------------------------------------
 BYTE   W48
 BYTE   W96
// 063   ----------------------------------------
 BYTE   W48
 BYTE   W96
// 064   ----------------------------------------
 BYTE   W48
 BYTE   W96
// 065   ----------------------------------------
 BYTE   W48
 BYTE   W96
// 066   ----------------------------------------
 BYTE   W48
 BYTE   W96
// 067   ----------------------------------------
 BYTE   W48
 BYTE   W96
// 068   ----------------------------------------
 BYTE   W48
 BYTE   W96
// 069   ----------------------------------------
 BYTE   W48
 BYTE   W96
// 070   ----------------------------------------
 BYTE   W48
 BYTE   W96
// 071   ----------------------------------------
 BYTE   W48
 BYTE   W96
// 072   ----------------------------------------
 BYTE   W48
 BYTE   W96
// 073   ----------------------------------------
 BYTE   W48
 BYTE   W96
// 074   ----------------------------------------
 BYTE   W48
 BYTE   W96
// 075   ----------------------------------------
 BYTE   W48
 BYTE   W96
// 076   ----------------------------------------
 BYTE   W48
 BYTE   W96
// 077   ----------------------------------------
 BYTE   W48
 BYTE   W96
// 078   ----------------------------------------
 BYTE   W48
 BYTE   W96
// 079   ----------------------------------------
 BYTE   W48
 BYTE   W96
// 080   ----------------------------------------
 BYTE   W48
 BYTE   W96
// 081   ----------------------------------------
 BYTE   W48
 BYTE   W96
// 082   ----------------------------------------
 BYTE   W48
 BYTE   PATT
  POIN2 Label_3_0153E888
 BYTE   PATT
  POIN2 Label_3_0153E894
// 083   ----------------------------------------
 BYTE   W96
// 084   ----------------------------------------
 BYTE   W48
 BYTE   EOT
 BYTE   Cs5
 BYTE   PATT
  POIN2 Label_3_0153E89D
// 085   ----------------------------------------
 BYTE   W96
// 086   ----------------------------------------
 BYTE   W48
 BYTE   EOT
 BYTE   Fs5
 BYTE   W96
// 087   ----------------------------------------
 BYTE   W48
 BYTE   W96
// 088   ----------------------------------------
 BYTE   W48
 BYTE   W96
// 089   ----------------------------------------
 BYTE   W48
 BYTE   W96
// 090   ----------------------------------------
 BYTE   W48
 BYTE   W96
// 091   ----------------------------------------
 BYTE   W48
 BYTE   W96
// 092   ----------------------------------------
 BYTE   W48
 BYTE   W96
// 093   ----------------------------------------
 BYTE   W48
 BYTE   W96
// 094   ----------------------------------------
 BYTE   W48
 BYTE   W96
// 095   ----------------------------------------
 BYTE   W48
 BYTE   W96
// 096   ----------------------------------------
 BYTE   W48
 BYTE   W96
// 097   ----------------------------------------
 BYTE   W48
 BYTE   W96
// 098   ----------------------------------------
 BYTE   W48
 BYTE   W96
// 099   ----------------------------------------
 BYTE   W48
 BYTE   W96
// 100   ----------------------------------------
 BYTE   W48
 BYTE   W96
// 101   ----------------------------------------
 BYTE   W48
 BYTE   W96
// 102   ----------------------------------------
 BYTE   W48
 BYTE   W96
// 103   ----------------------------------------
 BYTE   W48
 BYTE   W96
// 104   ----------------------------------------
 BYTE   W48
 BYTE   W96
// 105   ----------------------------------------
 BYTE   W48
 BYTE   PATT
  POIN2 Label_3_0153E888
 BYTE   PATT
  POIN2 Label_3_0153E894
// 106   ----------------------------------------
 BYTE   W96
// 107   ----------------------------------------
 BYTE   W48
 BYTE   EOT
 BYTE   Cs5
 BYTE   PATT
  POIN2 Label_3_0153E89D
// 108   ----------------------------------------
 BYTE   W96
// 109   ----------------------------------------
 BYTE   W48
 BYTE   EOT
 BYTE   Fs5
 BYTE   W96
// 110   ----------------------------------------
 BYTE   W48
 BYTE   W96
// 111   ----------------------------------------
 BYTE   W48
 BYTE   W96
// 112   ----------------------------------------
 BYTE   W48
 BYTE   W96
// 113   ----------------------------------------
 BYTE   W48
 BYTE   W96
// 114   ----------------------------------------
 BYTE   W48
 BYTE   W96
// 115   ----------------------------------------
 BYTE   W48
 BYTE   W96
// 116   ----------------------------------------
 BYTE   W48
 BYTE   W96
// 117   ----------------------------------------
 BYTE   W48
 BYTE   W96
// 118   ----------------------------------------
 BYTE   W48
 BYTE   W96
// 119   ----------------------------------------
 BYTE   W48
 BYTE   W96
// 120   ----------------------------------------
 BYTE   W48
 BYTE   W96
// 121   ----------------------------------------
 BYTE   W48
 BYTE   W96
// 122   ----------------------------------------
 BYTE   W48
 BYTE   W96
// 123   ----------------------------------------
 BYTE   W48
 BYTE   W96
// 124   ----------------------------------------
 BYTE   W48
 BYTE   W96
// 125   ----------------------------------------
 BYTE   W48
 BYTE   W96
// 126   ----------------------------------------
 BYTE   W48
 BYTE   W96
// 127   ----------------------------------------
 BYTE   W48
 BYTE   W96
// 128   ----------------------------------------
 BYTE   W48
 BYTE   W96
// 129   ----------------------------------------
 BYTE   W48
 BYTE   W96
// 130   ----------------------------------------
 BYTE   W48
 BYTE   W96
// 131   ----------------------------------------
 BYTE   W48
 BYTE   W96
// 132   ----------------------------------------
 BYTE   W48
 BYTE   W96
// 133   ----------------------------------------
 BYTE   W48
 BYTE   W96
// 134   ----------------------------------------
 BYTE   W48
 BYTE   W96
// 135   ----------------------------------------
 BYTE   W48
 BYTE   FINE

//**************** Track 5 (Midi-Chn.4) ****************//

FF13DesperateStruggleMycahel_005:
// 000   ----------------------------------------
 BYTE   KEYSH   FF13DesperateStruggleMycahel_key+0
 BYTE   VOICE   56
 BYTE   VOL   48*FF13DesperateStruggleMycahel_mvl/mxv
 BYTE   W96
// 001   ----------------------------------------
 BYTE   W48
 BYTE   W96
// 002   ----------------------------------------
 BYTE   W48
 BYTE   W96
// 003   ----------------------------------------
 BYTE   W48
 BYTE   W96
// 004   ----------------------------------------
 BYTE   W48
 BYTE   W96
// 005   ----------------------------------------
 BYTE   W48
 BYTE   W96
// 006   ----------------------------------------
 BYTE   W48
 BYTE   W96
// 007   ----------------------------------------
 BYTE   W48
 BYTE   W96
// 008   ----------------------------------------
 BYTE   W48
 BYTE   W96
// 009   ----------------------------------------
 BYTE   W48
 BYTE   W96
// 010   ----------------------------------------
 BYTE   W48
 BYTE   W96
// 011   ----------------------------------------
 BYTE   W48
 BYTE   W96
// 012   ----------------------------------------
 BYTE   W48
 BYTE   W96
// 013   ----------------------------------------
 BYTE   W48
 BYTE   W96
// 014   ----------------------------------------
 BYTE   W48
 BYTE   W96
// 015   ----------------------------------------
 BYTE   W48
 BYTE   W96
// 016   ----------------------------------------
 BYTE   W48
 BYTE   W96
// 017   ----------------------------------------
 BYTE   W48
 BYTE   W96
// 018   ----------------------------------------
 BYTE   W48
Label_4_0153E9E2:
 BYTE   TIE  Cs3  v120
 BYTE   W96
// 019   ----------------------------------------
 BYTE   W48
 BYTE   PEND 
 BYTE   W96
// 020   ----------------------------------------
 BYTE   W48
 BYTE   EOT
Label_4_0153E9EB:
 BYTE   W96
// 021   ----------------------------------------
 BYTE   W24
 BYTE   N24  En2  v116
 BYTE   W24
 BYTE   PEND 
Label_4_0153E9F2:
 BYTE   TIE  Bn2  v120
 BYTE   W96
// 022   ----------------------------------------
 BYTE   W48
 BYTE   PEND 
 BYTE   EOT
 BYTE   W96
// 023   ----------------------------------------
 BYTE   W48
 BYTE   W96
// 024   ----------------------------------------
 BYTE   W48
 BYTE   W96
// 025   ----------------------------------------
 BYTE   W48
 BYTE   W96
// 026   ----------------------------------------
 BYTE   W48
 BYTE   W96
// 027   ----------------------------------------
 BYTE   W48
 BYTE   W96
// 028   ----------------------------------------
 BYTE   W48
 BYTE   W96
// 029   ----------------------------------------
 BYTE   W48
 BYTE   W96
// 030   ----------------------------------------
 BYTE   W48
 BYTE   W96
// 031   ----------------------------------------
 BYTE   W48
 BYTE   W96
// 032   ----------------------------------------
 BYTE   W48
 BYTE   W96
// 033   ----------------------------------------
 BYTE   W48
 BYTE   W96
// 034   ----------------------------------------
 BYTE   W48
 BYTE   W96
// 035   ----------------------------------------
 BYTE   W48
 BYTE   W96
// 036   ----------------------------------------
 BYTE   W48
 BYTE   W96
// 037   ----------------------------------------
 BYTE   W48
 BYTE   W96
// 038   ----------------------------------------
 BYTE   W48
 BYTE   W96
// 039   ----------------------------------------
 BYTE   W48
 BYTE   W96
// 040   ----------------------------------------
 BYTE   W48
 BYTE   W96
// 041   ----------------------------------------
 BYTE   W48
 BYTE   W96
// 042   ----------------------------------------
 BYTE   W48
 BYTE   PATT
  POIN2 Label_4_0153E9E2
// 043   ----------------------------------------
 BYTE   W96
// 044   ----------------------------------------
 BYTE   W48
 BYTE   EOT
 BYTE   Cs3
 BYTE   PATT
  POIN2 Label_4_0153E9EB
 BYTE   PATT
  POIN2 Label_4_0153E9F2
// 045   ----------------------------------------
 BYTE   EOT
 BYTE   Bn2
 BYTE   W96
// 046   ----------------------------------------
 BYTE   W48
 BYTE   W96
// 047   ----------------------------------------
 BYTE   W48
 BYTE   W96
// 048   ----------------------------------------
 BYTE   W48
 BYTE   W96
// 049   ----------------------------------------
 BYTE   W48
 BYTE   W96
// 050   ----------------------------------------
 BYTE   W48
 BYTE   W96
// 051   ----------------------------------------
 BYTE   W48
 BYTE   W96
// 052   ----------------------------------------
 BYTE   W48
 BYTE   W96
// 053   ----------------------------------------
 BYTE   W48
Label_4_0153EA46:
 BYTE   N72  Bn2  v100
 BYTE   N72  Fs3
 BYTE   N72  As3
 BYTE   N72  Bn3
 BYTE   N72  Cs4
 BYTE   W72
// 054   ----------------------------------------
 BYTE   Dn3
 BYTE   N72  Fs3
 BYTE   N72  Gn3
 BYTE   N72  Bn3
 BYTE   N72  Dn4
 BYTE   W72
 BYTE   PEND 
Label_4_0153EA5D:
 BYTE   N72  Bn2  v100
 BYTE   N72  En3
 BYTE   N72  Gn3
 BYTE   N72  Cn4
 BYTE   N72  En4
 BYTE   W72
// 055   ----------------------------------------
 BYTE   Cn3
 BYTE   N72  En3
 BYTE   N72  Gn3
 BYTE   N72  Bn3
 BYTE   N72  En4
 BYTE   W72
 BYTE   PEND 
Label_4_0153EA74:
 BYTE   N72  Ds3  v100
 BYTE   N72  Fs3
 BYTE   N72  Bn3
 BYTE   N72  Fs4
 BYTE   W72
// 056   ----------------------------------------
 BYTE   Dn3
 BYTE   N72  Fs3
 BYTE   N72  An3
 BYTE   N72  Dn4
 BYTE   W72
 BYTE   PEND 
Label_4_0153EA87:
 BYTE   N72  Cn3  v100
 BYTE   N72  En3
 BYTE   N72  Gn3
 BYTE   N72  An3
 BYTE   N72  Cn4
 BYTE   W72
// 057   ----------------------------------------
 BYTE   En3
 BYTE   N72  An3
 BYTE   N72  Bn3
 BYTE   N72  Cn4
 BYTE   N72  En4
 BYTE   W72
 BYTE   PEND 
Label_4_0153EA9E:
 BYTE   N72  Bn2  v100
 BYTE   N72  Fs3
 BYTE   N72  As3
 BYTE   N72  Bn3
 BYTE   N72  Cs4
 BYTE   N72  Fs4
 BYTE   W72
// 058   ----------------------------------------
 BYTE   Dn3
 BYTE   N72  Fs3
 BYTE   N72  Gn3
 BYTE   N72  Bn3
 BYTE   N72  Dn4
 BYTE   W72
 BYTE   PEND 
 BYTE   PATT
  POIN2 Label_4_0153EA5D
 BYTE   PATT
  POIN2 Label_4_0153EA74
 BYTE   PATT
  POIN2 Label_4_0153EA87
// 059   ----------------------------------------
Label_4_0153EAC6:
 BYTE   TIE  Bn2  v116
 BYTE   TIE  En3
 BYTE   TIE  Bn3
 BYTE   TIE  En4
 BYTE   W32
 BYTE   W01
 BYTE   W03
 BYTE   W03
 BYTE   W03
 BYTE   W03
 BYTE   W02
 BYTE   W03
 BYTE   W03
 BYTE   W03
 BYTE   W02
 BYTE   W02
 BYTE   W01
 BYTE   W02
 BYTE   W01
 BYTE   W01
 BYTE   W01
 BYTE   W01
 BYTE   W02
 BYTE   W01
 BYTE   W02
 BYTE   W01
 BYTE   W01
 BYTE   W01
 BYTE   W01
 BYTE   W02
 BYTE   W01
 BYTE   W02
 BYTE   W01
 BYTE   W01
 BYTE   W01
 BYTE   W01
 BYTE   W02
 BYTE   W01
 BYTE   W01
 BYTE   W01
 BYTE   W01
 BYTE   W02
 BYTE   W01
 BYTE   W01
 BYTE   W01
// 060   ----------------------------------------
 BYTE   W01
 BYTE   W01
 BYTE   W01
 BYTE   W01
 BYTE   W02
 BYTE   W01
 BYTE   W01
 BYTE   W01
 BYTE   W01
 BYTE   W01
 BYTE   W01
 BYTE   PEND 
 BYTE   EOT
 BYTE   Bn2  v064
 BYTE   Bn3  v076
 BYTE   W02
 BYTE   W01
 BYTE   W01
 BYTE   W01
 BYTE   W01
 BYTE   W01
 BYTE   W01
 BYTE   W01
 BYTE   W01
 BYTE   W01
 BYTE   W01
 BYTE   N24  An2  v112
 BYTE   N24  An3
 BYTE   W24
Label_4_0153EB1A:
 BYTE   N24  Bn2  v112
 BYTE   N24  Bn3
 BYTE   W24
 BYTE   Dn3
 BYTE   N24  Dn4
 BYTE   W24
// 061   ----------------------------------------
 BYTE   N48  Cn3
 BYTE   N48  Cn4
 BYTE   W48
 BYTE   N24  Bn2
 BYTE   N24  Bn3
 BYTE   W24
 BYTE   An2
 BYTE   N24  An3
 BYTE   W24
 BYTE   PEND 
// 062   ----------------------------------------
Label_4_0153EB33:
 BYTE   TIE  Bn2  v100
 BYTE   TIE  Bn3
 BYTE   W96
// 063   ----------------------------------------
 BYTE   W48
 BYTE   PEND 
 BYTE   W96
// 064   ----------------------------------------
 BYTE   W48
 BYTE   EOT
 BYTE   Bn2  v071
 BYTE   PATT
  POIN2 Label_4_0153EAC6
// 065   ----------------------------------------
 BYTE   EOT
 BYTE   Bn2  v064
 BYTE   Bn3  v076
 BYTE   W02
 BYTE   W01
 BYTE   W01
 BYTE   W01
 BYTE   W01
 BYTE   W01
 BYTE   W01
 BYTE   W01
 BYTE   W01
 BYTE   W01
 BYTE   W01
 BYTE   N24  An2  v112
 BYTE   N24  An3
 BYTE   W24
 BYTE   PATT
  POIN2 Label_4_0153EB1A
 BYTE   PATT
  POIN2 Label_4_0153EB33
// 066   ----------------------------------------
 BYTE   W96
// 067   ----------------------------------------
 BYTE   W48
 BYTE   EOT
 BYTE   Bn2  v071
 BYTE   W96
// 068   ----------------------------------------
 BYTE   W48
 BYTE   W96
// 069   ----------------------------------------
 BYTE   W48
 BYTE   W96
// 070   ----------------------------------------
 BYTE   W48
 BYTE   W96
// 071   ----------------------------------------
 BYTE   W48
 BYTE   W96
// 072   ----------------------------------------
 BYTE   W48
 BYTE   W96
// 073   ----------------------------------------
 BYTE   W48
 BYTE   W96
// 074   ----------------------------------------
 BYTE   W48
 BYTE   W96
// 075   ----------------------------------------
 BYTE   W48
 BYTE   W96
// 076   ----------------------------------------
 BYTE   W48
 BYTE   W96
// 077   ----------------------------------------
 BYTE   W48
 BYTE   W96
// 078   ----------------------------------------
 BYTE   W48
 BYTE   W96
// 079   ----------------------------------------
 BYTE   W48
 BYTE   W96
// 080   ----------------------------------------
 BYTE   W48
 BYTE   W96
// 081   ----------------------------------------
 BYTE   W48
 BYTE   PATT
  POIN2 Label_4_0153E9E2
// 082   ----------------------------------------
 BYTE   W96
// 083   ----------------------------------------
 BYTE   W48
 BYTE   EOT
 BYTE   Cs3
 BYTE   PATT
  POIN2 Label_4_0153E9EB
 BYTE   PATT
  POIN2 Label_4_0153E9F2
// 084   ----------------------------------------
 BYTE   EOT
 BYTE   Bn2
 BYTE   W96
// 085   ----------------------------------------
 BYTE   W48
 BYTE   W96
// 086   ----------------------------------------
 BYTE   W48
 BYTE   W96
// 087   ----------------------------------------
 BYTE   W48
 BYTE   W96
// 088   ----------------------------------------
 BYTE   W48
 BYTE   W96
// 089   ----------------------------------------
 BYTE   W48
 BYTE   W96
// 090   ----------------------------------------
 BYTE   W48
 BYTE   W96
// 091   ----------------------------------------
 BYTE   W48
 BYTE   W96
// 092   ----------------------------------------
 BYTE   W48
 BYTE   W96
// 093   ----------------------------------------
 BYTE   W48
 BYTE   W96
// 094   ----------------------------------------
 BYTE   W48
 BYTE   W96
// 095   ----------------------------------------
 BYTE   W48
 BYTE   W96
// 096   ----------------------------------------
 BYTE   W48
 BYTE   W96
// 097   ----------------------------------------
 BYTE   W48
 BYTE   W96
// 098   ----------------------------------------
 BYTE   W48
 BYTE   W96
// 099   ----------------------------------------
 BYTE   W48
 BYTE   W96
// 100   ----------------------------------------
 BYTE   W48
 BYTE   W96
// 101   ----------------------------------------
 BYTE   W48
 BYTE   W96
// 102   ----------------------------------------
 BYTE   W48
 BYTE   W96
// 103   ----------------------------------------
 BYTE   W48
 BYTE   W96
// 104   ----------------------------------------
 BYTE   W48
 BYTE   PATT
  POIN2 Label_4_0153E9E2
// 105   ----------------------------------------
 BYTE   W96
// 106   ----------------------------------------
 BYTE   W48
 BYTE   EOT
 BYTE   Cs3
 BYTE   PATT
  POIN2 Label_4_0153E9EB
 BYTE   PATT
  POIN2 Label_4_0153E9F2
// 107   ----------------------------------------
 BYTE   EOT
 BYTE   Bn2
 BYTE   W96
// 108   ----------------------------------------
 BYTE   W48
 BYTE   W96
// 109   ----------------------------------------
 BYTE   W48
 BYTE   W96
// 110   ----------------------------------------
 BYTE   W48
 BYTE   W96
// 111   ----------------------------------------
 BYTE   W48
 BYTE   W96
// 112   ----------------------------------------
 BYTE   W48
 BYTE   W96
// 113   ----------------------------------------
 BYTE   W48
 BYTE   W96
// 114   ----------------------------------------
 BYTE   W48
 BYTE   W96
// 115   ----------------------------------------
 BYTE   W48
 BYTE   PATT
  POIN2 Label_4_0153EA46
 BYTE   PATT
  POIN2 Label_4_0153EA5D
 BYTE   PATT
  POIN2 Label_4_0153EA74
 BYTE   PATT
  POIN2 Label_4_0153EA87
 BYTE   PATT
  POIN2 Label_4_0153EA9E
 BYTE   PATT
  POIN2 Label_4_0153EA5D
 BYTE   PATT
  POIN2 Label_4_0153EA74
 BYTE   PATT
  POIN2 Label_4_0153EA87
 BYTE   PATT
  POIN2 Label_4_0153EAC6
// 116   ----------------------------------------
 BYTE   EOT
 BYTE   Bn2  v064
 BYTE   Bn3  v076
 BYTE   W02
 BYTE   W01
 BYTE   W01
 BYTE   W01
 BYTE   W01
 BYTE   W01
 BYTE   W01
 BYTE   W01
 BYTE   W01
 BYTE   W01
 BYTE   W01
 BYTE   N24  An2  v112
 BYTE   N24  An3
 BYTE   W24
 BYTE   PATT
  POIN2 Label_4_0153EB1A
 BYTE   PATT
  POIN2 Label_4_0153EB33
// 117   ----------------------------------------
 BYTE   W96
// 118   ----------------------------------------
 BYTE   W48
 BYTE   EOT
 BYTE   Bn2  v071
 BYTE   PATT
  POIN2 Label_4_0153EAC6
// 119   ----------------------------------------
 BYTE   EOT
 BYTE   Bn2  v064
 BYTE   Bn3  v076
 BYTE   W02
 BYTE   W01
 BYTE   W01
 BYTE   W01
 BYTE   W01
 BYTE   W01
 BYTE   W01
 BYTE   W01
 BYTE   W01
 BYTE   W01
 BYTE   W01
 BYTE   N24  An2  v112
 BYTE   N24  An3
 BYTE   W24
 BYTE   PATT
  POIN2 Label_4_0153EB1A
 BYTE   PATT
  POIN2 Label_4_0153EB33
// 120   ----------------------------------------
 BYTE   W96
// 121   ----------------------------------------
 BYTE   W48
 BYTE   EOT
 BYTE   Bn2  v071
 BYTE   W96
// 122   ----------------------------------------
 BYTE   W48
 BYTE   W96
// 123   ----------------------------------------
 BYTE   W48
 BYTE   FINE

//**************** Track 6 (Midi-Chn.5) ****************//

FF13DesperateStruggleMycahel_006:
// 000   ----------------------------------------
 BYTE   KEYSH   FF13DesperateStruggleMycahel_key+0
 BYTE   VOICE   60
 BYTE   VOL   48*FF13DesperateStruggleMycahel_mvl/mxv
 BYTE   TIE  As2  v092
 BYTE   TIE  Bn2  v100
 BYTE   W96
// 001   ----------------------------------------
 BYTE   W48
 BYTE   EOT
 BYTE   As2
 BYTE   TIE  An2  v092
 BYTE   W96
// 002   ----------------------------------------
 BYTE   W48
 BYTE   EOT
 BYTE   TIE  En3
 BYTE   W96
// 003   ----------------------------------------
 BYTE   W48
 BYTE   W96
// 004   ----------------------------------------
 BYTE   W48
 BYTE   EOT
 BYTE   TIE  Cs3  v100
 BYTE   W96
// 005   ----------------------------------------
 BYTE   W48
 BYTE   En3  v084
 BYTE   W96
// 006   ----------------------------------------
 BYTE   W48
 BYTE   EOT
 BYTE   Bn2  v061
 BYTE   En3
 BYTE   W96
// 007   ----------------------------------------
 BYTE   W48
 BYTE   W96
// 008   ----------------------------------------
 BYTE   W48
Label_5_0153EC9A:
 BYTE   TIE  Dn3  v088
 BYTE   W96
// 009   ----------------------------------------
 BYTE   W48
 BYTE   PEND 
 BYTE   W96
// 010   ----------------------------------------
 BYTE   W48
 BYTE   EOT
Label_5_0153ECA3:
 BYTE   N72  Cs3  v084
 BYTE   W72
// 011   ----------------------------------------
 BYTE   TIE  Bn2
 BYTE   W72
 BYTE   PEND 
 BYTE   W96
// 012   ----------------------------------------
 BYTE   W48
 BYTE   W96
// 013   ----------------------------------------
 BYTE   W48
 BYTE   W96
// 014   ----------------------------------------
 BYTE   W48
 BYTE   EOT
Label_5_0153ECB2:
 BYTE   W72
// 015   ----------------------------------------
 BYTE   N48  Cs4  v108
 BYTE   W48
 BYTE   N24  Bn3
 BYTE   W24
 BYTE   PEND 
Label_5_0153ECBB:
 BYTE   N72  Cs4  v092
 BYTE   W96
// 016   ----------------------------------------
 BYTE   N24  Cs4  v100
 BYTE   W24
 BYTE   Bn3
 BYTE   W24
 BYTE   PEND 
Label_5_0153ECC6:
 BYTE   TIE  Cs4  v088
 BYTE   W96
// 017   ----------------------------------------
 BYTE   W48
 BYTE   PEND 
 BYTE   W96
// 018   ----------------------------------------
 BYTE   W48
 BYTE   EOT
Label_5_0153ECCF:
 BYTE   N96  Cs3  v084
 BYTE   W96
// 019   ----------------------------------------
 BYTE   N48  Bn2  v104
 BYTE   W48
 BYTE   PEND 
Label_5_0153ECD8:
 BYTE   N48  Cs3  v108
 BYTE   W48
// 020   ----------------------------------------
 BYTE   N96  Bn2  v096
 BYTE   W96
 BYTE   PEND 
// 021   ----------------------------------------
Label_5_0153ECE1:
 BYTE   TIE  An2  v080
 BYTE   TIE  Bn2
 BYTE   W96
// 022   ----------------------------------------
 BYTE   W48
 BYTE   PEND 
 BYTE   W96
// 023   ----------------------------------------
 BYTE   W48
 BYTE   EOT
 BYTE   An2  v059
 BYTE   W96
// 024   ----------------------------------------
 BYTE   W48
 BYTE   W96
// 025   ----------------------------------------
 BYTE   W48
 BYTE   W96
// 026   ----------------------------------------
 BYTE   W48
 BYTE   W96
// 027   ----------------------------------------
 BYTE   W48
 BYTE   W96
// 028   ----------------------------------------
 BYTE   W48
 BYTE   W96
// 029   ----------------------------------------
 BYTE   W48
 BYTE   W96
// 030   ----------------------------------------
 BYTE   W48
 BYTE   W96
// 031   ----------------------------------------
 BYTE   W48
 BYTE   W96
// 032   ----------------------------------------
 BYTE   W48
 BYTE   W96
// 033   ----------------------------------------
 BYTE   W48
 BYTE   PATT
  POIN2 Label_5_0153EC9A
// 034   ----------------------------------------
 BYTE   W96
// 035   ----------------------------------------
 BYTE   W48
 BYTE   EOT
 BYTE   Dn3
 BYTE   PATT
  POIN2 Label_5_0153ECA3
// 036   ----------------------------------------
 BYTE   W96
// 037   ----------------------------------------
 BYTE   W48
 BYTE   W96
// 038   ----------------------------------------
 BYTE   W48
 BYTE   W96
// 039   ----------------------------------------
 BYTE   W48
 BYTE   EOT
 BYTE   Bn2
 BYTE   PATT
  POIN2 Label_5_0153ECB2
 BYTE   PATT
  POIN2 Label_5_0153ECBB
 BYTE   PATT
  POIN2 Label_5_0153ECC6
// 040   ----------------------------------------
 BYTE   W96
// 041   ----------------------------------------
 BYTE   W48
 BYTE   EOT
 BYTE   Cs4
 BYTE   PATT
  POIN2 Label_5_0153ECCF
 BYTE   PATT
  POIN2 Label_5_0153ECD8
 BYTE   PATT
  POIN2 Label_5_0153ECE1
// 042   ----------------------------------------
 BYTE   W96
// 043   ----------------------------------------
 BYTE   W48
 BYTE   EOT
 BYTE   An2  v059
 BYTE   W96
// 044   ----------------------------------------
 BYTE   W48
 BYTE   W96
// 045   ----------------------------------------
 BYTE   W48
 BYTE   W96
// 046   ----------------------------------------
 BYTE   W48
 BYTE   W96
// 047   ----------------------------------------
 BYTE   W48
 BYTE   W96
// 048   ----------------------------------------
 BYTE   W48
 BYTE   W96
// 049   ----------------------------------------
 BYTE   W48
 BYTE   W96
// 050   ----------------------------------------
 BYTE   W48
 BYTE   W96
// 051   ----------------------------------------
 BYTE   W48
 BYTE   W96
// 052   ----------------------------------------
 BYTE   W48
 BYTE   W96
// 053   ----------------------------------------
 BYTE   W48
 BYTE   W96
// 054   ----------------------------------------
 BYTE   W48
 BYTE   W96
// 055   ----------------------------------------
 BYTE   W48
 BYTE   W96
// 056   ----------------------------------------
 BYTE   W48
 BYTE   W96
// 057   ----------------------------------------
 BYTE   W48
 BYTE   W96
// 058   ----------------------------------------
 BYTE   W48
 BYTE   W96
// 059   ----------------------------------------
 BYTE   W48
Label_5_0153ED5F:
 BYTE   TIE  Bn2  v100
 BYTE   W96
// 060   ----------------------------------------
 BYTE   W24
 BYTE   PEND 
 BYTE   EOT
 BYTE   N24  An2  v112
 BYTE   W24
Label_5_0153ED6A:
 BYTE   N24  Bn2  v112
 BYTE   W24
 BYTE   Dn3
 BYTE   W24
// 061   ----------------------------------------
 BYTE   N48  Cn3
 BYTE   W48
 BYTE   N24  Bn2
 BYTE   W24
 BYTE   An2
 BYTE   W24
 BYTE   PEND 
// 062   ----------------------------------------
Label_5_0153ED79:
 BYTE   TIE  Bn2  v100
 BYTE   W96
// 063   ----------------------------------------
 BYTE   W48
 BYTE   PEND 
 BYTE   W96
// 064   ----------------------------------------
 BYTE   W48
 BYTE   EOT
Label_5_0153ED82:
 BYTE   N72  En3  v100
 BYTE   W72
// 065   ----------------------------------------
 BYTE   N48  Bn2
 BYTE   W48
 BYTE   N24  An2  v112
 BYTE   W24
 BYTE   PEND 
 BYTE   PATT
  POIN2 Label_5_0153ED6A
 BYTE   PATT
  POIN2 Label_5_0153ED79
// 066   ----------------------------------------
 BYTE   W96
// 067   ----------------------------------------
 BYTE   W48
 BYTE   EOT
 BYTE   Bn2
 BYTE   W96
// 068   ----------------------------------------
 BYTE   W48
 BYTE   W96
// 069   ----------------------------------------
 BYTE   W48
 BYTE   W96
// 070   ----------------------------------------
 BYTE   W48
 BYTE   W96
// 071   ----------------------------------------
 BYTE   W48
 BYTE   PATT
  POIN2 Label_5_0153EC9A
// 072   ----------------------------------------
 BYTE   W96
// 073   ----------------------------------------
 BYTE   W48
 BYTE   EOT
 BYTE   Dn3
 BYTE   PATT
  POIN2 Label_5_0153ECA3
// 074   ----------------------------------------
 BYTE   W96
// 075   ----------------------------------------
 BYTE   W48
 BYTE   W96
// 076   ----------------------------------------
 BYTE   W48
 BYTE   W96
// 077   ----------------------------------------
 BYTE   W48
 BYTE   EOT
 BYTE   Bn2
 BYTE   PATT
  POIN2 Label_5_0153ECB2
 BYTE   PATT
  POIN2 Label_5_0153ECBB
 BYTE   PATT
  POIN2 Label_5_0153ECC6
// 078   ----------------------------------------
 BYTE   W96
// 079   ----------------------------------------
 BYTE   W48
 BYTE   EOT
 BYTE   Cs4
 BYTE   PATT
  POIN2 Label_5_0153ECCF
 BYTE   PATT
  POIN2 Label_5_0153ECD8
 BYTE   PATT
  POIN2 Label_5_0153ECE1
// 080   ----------------------------------------
 BYTE   W96
// 081   ----------------------------------------
 BYTE   W48
 BYTE   EOT
 BYTE   An2  v059
 BYTE   W96
// 082   ----------------------------------------
 BYTE   W48
 BYTE   W96
// 083   ----------------------------------------
 BYTE   W48
 BYTE   W96
// 084   ----------------------------------------
 BYTE   W48
 BYTE   W96
// 085   ----------------------------------------
 BYTE   W48
 BYTE   W96
// 086   ----------------------------------------
 BYTE   W48
 BYTE   W96
// 087   ----------------------------------------
 BYTE   W48
 BYTE   W96
// 088   ----------------------------------------
 BYTE   W48
 BYTE   W96
// 089   ----------------------------------------
 BYTE   W48
 BYTE   W96
// 090   ----------------------------------------
 BYTE   W48
 BYTE   W96
// 091   ----------------------------------------
 BYTE   W48
 BYTE   PATT
  POIN2 Label_5_0153EC9A
// 092   ----------------------------------------
 BYTE   W96
// 093   ----------------------------------------
 BYTE   W48
 BYTE   EOT
 BYTE   Dn3
 BYTE   PATT
  POIN2 Label_5_0153ECA3
// 094   ----------------------------------------
 BYTE   W96
// 095   ----------------------------------------
 BYTE   W48
 BYTE   W96
// 096   ----------------------------------------
 BYTE   W48
 BYTE   W96
// 097   ----------------------------------------
 BYTE   W48
 BYTE   EOT
 BYTE   Bn2
 BYTE   PATT
  POIN2 Label_5_0153ECB2
 BYTE   PATT
  POIN2 Label_5_0153ECBB
 BYTE   PATT
  POIN2 Label_5_0153ECC6
// 098   ----------------------------------------
 BYTE   W96
// 099   ----------------------------------------
 BYTE   W48
 BYTE   EOT
 BYTE   Cs4
 BYTE   PATT
  POIN2 Label_5_0153ECCF
 BYTE   PATT
  POIN2 Label_5_0153ECD8
 BYTE   PATT
  POIN2 Label_5_0153ECE1
// 100   ----------------------------------------
 BYTE   W96
// 101   ----------------------------------------
 BYTE   W48
 BYTE   EOT
 BYTE   An2  v059
 BYTE   W96
// 102   ----------------------------------------
 BYTE   W48
 BYTE   W96
// 103   ----------------------------------------
 BYTE   W48
 BYTE   W96
// 104   ----------------------------------------
 BYTE   W48
 BYTE   W96
// 105   ----------------------------------------
 BYTE   W48
 BYTE   W96
// 106   ----------------------------------------
 BYTE   W48
 BYTE   W96
// 107   ----------------------------------------
 BYTE   W48
 BYTE   W96
// 108   ----------------------------------------
 BYTE   W48
 BYTE   W96
// 109   ----------------------------------------
 BYTE   W48
 BYTE   W96
// 110   ----------------------------------------
 BYTE   W48
 BYTE   W96
// 111   ----------------------------------------
 BYTE   W48
 BYTE   W96
// 112   ----------------------------------------
 BYTE   W48
 BYTE   W96
// 113   ----------------------------------------
 BYTE   W48
 BYTE   W96
// 114   ----------------------------------------
 BYTE   W48
 BYTE   W96
// 115   ----------------------------------------
 BYTE   W48
 BYTE   W96
// 116   ----------------------------------------
 BYTE   W48
 BYTE   W96
// 117   ----------------------------------------
 BYTE   W48
 BYTE   PATT
  POIN2 Label_5_0153ED5F
// 118   ----------------------------------------
 BYTE   EOT
 BYTE   Bn2
 BYTE   N24  An2  v112
 BYTE   W24
 BYTE   PATT
  POIN2 Label_5_0153ED6A
 BYTE   PATT
  POIN2 Label_5_0153ED79
// 119   ----------------------------------------
 BYTE   W96
// 120   ----------------------------------------
 BYTE   W48
 BYTE   EOT
 BYTE   Bn2
 BYTE   PATT
  POIN2 Label_5_0153ED82
 BYTE   PATT
  POIN2 Label_5_0153ED6A
 BYTE   PATT
  POIN2 Label_5_0153ED79
// 121   ----------------------------------------
 BYTE   W96
// 122   ----------------------------------------
 BYTE   W48
 BYTE   EOT
 BYTE   Bn2
 BYTE   W96
// 123   ----------------------------------------
 BYTE   W48
 BYTE   W96
// 124   ----------------------------------------
 BYTE   W48
 BYTE   FINE

//**************** Track 7 (Midi-Chn.6) ****************//

FF13DesperateStruggleMycahel_007:
// 000   ----------------------------------------
 BYTE   KEYSH   FF13DesperateStruggleMycahel_key+0
 BYTE   VOICE   60
 BYTE   VOL   48*FF13DesperateStruggleMycahel_mvl/mxv
 BYTE   TIE  Fs2  v100
 BYTE   TIE  Gs2  v092
 BYTE   W96
// 001   ----------------------------------------
 BYTE   W48
 BYTE   W96
// 002   ----------------------------------------
 BYTE   W48
 BYTE   EOT
 BYTE   TIE  An2  v080
 BYTE   W96
// 003   ----------------------------------------
 BYTE   W48
 BYTE   W96
// 004   ----------------------------------------
 BYTE   W48
 BYTE   EOT
 BYTE   TIE  As2  v100
 BYTE   W96
// 005   ----------------------------------------
 BYTE   W48
 BYTE   EOT
 BYTE   TIE  An2  v084
 BYTE   W96
// 006   ----------------------------------------
 BYTE   W48
 BYTE   EOT
 BYTE   Fs2  v057
 BYTE   W96
// 007   ----------------------------------------
 BYTE   W48
 BYTE   W96
// 008   ----------------------------------------
 BYTE   W48
 BYTE   W96
// 009   ----------------------------------------
 BYTE   W48
 BYTE   W96
// 010   ----------------------------------------
 BYTE   W48
 BYTE   W96
// 011   ----------------------------------------
 BYTE   W48
 BYTE   W96
// 012   ----------------------------------------
 BYTE   W48
 BYTE   W96
// 013   ----------------------------------------
 BYTE   W48
 BYTE   W96
// 014   ----------------------------------------
 BYTE   W48
Label_6_0153EEBB:
 BYTE   TIE  Fs3  v112
 BYTE   W96
// 015   ----------------------------------------
 BYTE   W48
 BYTE   PEND 
 BYTE   EOT
Label_6_0153EEC2:
 BYTE   TIE  Fs3  v104
 BYTE   W96
// 016   ----------------------------------------
 BYTE   W48
 BYTE   PEND 
 BYTE   EOT
Label_6_0153EEC9:
 BYTE   TIE  Fs3  v088
 BYTE   W96
// 017   ----------------------------------------
 BYTE   W48
 BYTE   PEND 
 BYTE   W96
// 018   ----------------------------------------
 BYTE   W48
 BYTE   EOT
 BYTE   W96
// 019   ----------------------------------------
 BYTE   W48
 BYTE   W96
// 020   ----------------------------------------
 BYTE   W48
Label_6_0153EED6:
 BYTE   TIE  Fs2  v080
 BYTE   TIE  Gs2
 BYTE   W96
// 021   ----------------------------------------
 BYTE   W48
 BYTE   PEND 
 BYTE   W96
// 022   ----------------------------------------
 BYTE   W48
 BYTE   EOT
 BYTE   Fs2  v056
 BYTE   W96
// 023   ----------------------------------------
 BYTE   W48
 BYTE   W96
// 024   ----------------------------------------
 BYTE   W48
 BYTE   W96
// 025   ----------------------------------------
 BYTE   W48
 BYTE   W96
// 026   ----------------------------------------
 BYTE   W48
 BYTE   W96
// 027   ----------------------------------------
 BYTE   W48
 BYTE   W96
// 028   ----------------------------------------
 BYTE   W48
 BYTE   W96
// 029   ----------------------------------------
 BYTE   W48
 BYTE   W96
// 030   ----------------------------------------
 BYTE   W48
 BYTE   W96
// 031   ----------------------------------------
 BYTE   W48
 BYTE   W96
// 032   ----------------------------------------
 BYTE   W48
 BYTE   W96
// 033   ----------------------------------------
 BYTE   W48
 BYTE   W96
// 034   ----------------------------------------
 BYTE   W48
 BYTE   W96
// 035   ----------------------------------------
 BYTE   W48
 BYTE   W96
// 036   ----------------------------------------
 BYTE   W48
 BYTE   W96
// 037   ----------------------------------------
 BYTE   W48
 BYTE   W96
// 038   ----------------------------------------
 BYTE   W48
 BYTE   PATT
  POIN2 Label_6_0153EEBB
// 039   ----------------------------------------
 BYTE   EOT
 BYTE   Fs3
 BYTE   PATT
  POIN2 Label_6_0153EEC2
// 040   ----------------------------------------
 BYTE   EOT
 BYTE   Fs3
 BYTE   PATT
  POIN2 Label_6_0153EEC9
// 041   ----------------------------------------
 BYTE   W96
// 042   ----------------------------------------
 BYTE   W48
 BYTE   EOT
 BYTE   Fs3
 BYTE   W96
// 043   ----------------------------------------
 BYTE   W48
 BYTE   W96
// 044   ----------------------------------------
 BYTE   W48
 BYTE   PATT
  POIN2 Label_6_0153EED6
// 045   ----------------------------------------
 BYTE   W96
// 046   ----------------------------------------
 BYTE   W48
 BYTE   EOT
 BYTE   Fs2  v056
 BYTE   W96
// 047   ----------------------------------------
 BYTE   W48
 BYTE   W96
// 048   ----------------------------------------
 BYTE   W48
 BYTE   W96
// 049   ----------------------------------------
 BYTE   W48
 BYTE   W96
// 050   ----------------------------------------
 BYTE   W48
 BYTE   W96
// 051   ----------------------------------------
 BYTE   W48
 BYTE   W96
// 052   ----------------------------------------
 BYTE   W48
 BYTE   W96
// 053   ----------------------------------------
 BYTE   W48
 BYTE   W96
// 054   ----------------------------------------
 BYTE   W48
 BYTE   W96
// 055   ----------------------------------------
 BYTE   W48
 BYTE   W96
// 056   ----------------------------------------
 BYTE   W48
 BYTE   W96
// 057   ----------------------------------------
 BYTE   W48
 BYTE   W96
// 058   ----------------------------------------
 BYTE   W48
 BYTE   W96
// 059   ----------------------------------------
 BYTE   W48
 BYTE   W96
// 060   ----------------------------------------
 BYTE   W48
 BYTE   W96
// 061   ----------------------------------------
 BYTE   W48
 BYTE   W96
// 062   ----------------------------------------
 BYTE   W48
Label_6_0153EF48:
 BYTE   TIE  Cn2  v100
 BYTE   TIE  Gn2
 BYTE   W96
// 063   ----------------------------------------
 BYTE   W48
 BYTE   PEND 
 BYTE   W96
// 064   ----------------------------------------
 BYTE   W48
 BYTE   EOT
 BYTE   Cn2  v055
Label_6_0153EF55:
 BYTE   TIE  Cs2  v100
 BYTE   TIE  Fs2
 BYTE   W96
// 065   ----------------------------------------
 BYTE   W48
 BYTE   PEND 
 BYTE   W96
// 066   ----------------------------------------
 BYTE   W48
 BYTE   EOT
 BYTE   Cs2  v054
 BYTE   PATT
  POIN2 Label_6_0153EF48
// 067   ----------------------------------------
 BYTE   W96
// 068   ----------------------------------------
 BYTE   W48
 BYTE   EOT
 BYTE   Cn2  v055
 BYTE   PATT
  POIN2 Label_6_0153EF55
// 069   ----------------------------------------
 BYTE   W96
// 070   ----------------------------------------
 BYTE   W48
 BYTE   EOT
 BYTE   Cs2  v054
 BYTE   W96
// 071   ----------------------------------------
 BYTE   W48
 BYTE   W96
// 072   ----------------------------------------
 BYTE   W48
 BYTE   W96
// 073   ----------------------------------------
 BYTE   W48
 BYTE   W96
// 074   ----------------------------------------
 BYTE   W48
 BYTE   W96
// 075   ----------------------------------------
 BYTE   W48
 BYTE   W96
// 076   ----------------------------------------
 BYTE   W48
 BYTE   W96
// 077   ----------------------------------------
 BYTE   W48
 BYTE   W96
// 078   ----------------------------------------
 BYTE   W48
 BYTE   W96
// 079   ----------------------------------------
 BYTE   W48
 BYTE   W96
// 080   ----------------------------------------
 BYTE   W48
 BYTE   PATT
  POIN2 Label_6_0153EEBB
// 081   ----------------------------------------
 BYTE   EOT
 BYTE   Fs3
 BYTE   PATT
  POIN2 Label_6_0153EEC2
// 082   ----------------------------------------
 BYTE   EOT
 BYTE   Fs3
 BYTE   PATT
  POIN2 Label_6_0153EEC9
// 083   ----------------------------------------
 BYTE   W96
// 084   ----------------------------------------
 BYTE   W48
 BYTE   EOT
 BYTE   Fs3
 BYTE   W96
// 085   ----------------------------------------
 BYTE   W48
 BYTE   W96
// 086   ----------------------------------------
 BYTE   W48
 BYTE   PATT
  POIN2 Label_6_0153EED6
// 087   ----------------------------------------
 BYTE   W96
// 088   ----------------------------------------
 BYTE   W48
 BYTE   EOT
 BYTE   Fs2  v056
 BYTE   W96
// 089   ----------------------------------------
 BYTE   W48
 BYTE   W96
// 090   ----------------------------------------
 BYTE   W48
 BYTE   W96
// 091   ----------------------------------------
 BYTE   W48
 BYTE   W96
// 092   ----------------------------------------
 BYTE   W48
 BYTE   W96
// 093   ----------------------------------------
 BYTE   W48
 BYTE   W96
// 094   ----------------------------------------
 BYTE   W48
 BYTE   W96
// 095   ----------------------------------------
 BYTE   W48
 BYTE   W96
// 096   ----------------------------------------
 BYTE   W48
 BYTE   W96
// 097   ----------------------------------------
 BYTE   W48
 BYTE   W96
// 098   ----------------------------------------
 BYTE   W48
 BYTE   W96
// 099   ----------------------------------------
 BYTE   W48
 BYTE   W96
// 100   ----------------------------------------
 BYTE   W48
 BYTE   W96
// 101   ----------------------------------------
 BYTE   W48
 BYTE   W96
// 102   ----------------------------------------
 BYTE   W48
 BYTE   W96
// 103   ----------------------------------------
 BYTE   W48
 BYTE   W96
// 104   ----------------------------------------
 BYTE   W48
 BYTE   PATT
  POIN2 Label_6_0153EEBB
// 105   ----------------------------------------
 BYTE   EOT
 BYTE   Fs3
 BYTE   PATT
  POIN2 Label_6_0153EEC2
// 106   ----------------------------------------
 BYTE   EOT
 BYTE   Fs3
 BYTE   PATT
  POIN2 Label_6_0153EEC9
// 107   ----------------------------------------
 BYTE   W96
// 108   ----------------------------------------
 BYTE   W48
 BYTE   EOT
 BYTE   Fs3
 BYTE   W96
// 109   ----------------------------------------
 BYTE   W48
 BYTE   W96
// 110   ----------------------------------------
 BYTE   W48
 BYTE   PATT
  POIN2 Label_6_0153EED6
// 111   ----------------------------------------
 BYTE   W96
// 112   ----------------------------------------
 BYTE   W48
 BYTE   EOT
 BYTE   Fs2  v056
 BYTE   W96
// 113   ----------------------------------------
 BYTE   W48
 BYTE   W96
// 114   ----------------------------------------
 BYTE   W48
 BYTE   W96
// 115   ----------------------------------------
 BYTE   W48
 BYTE   W96
// 116   ----------------------------------------
 BYTE   W48
 BYTE   W96
// 117   ----------------------------------------
 BYTE   W48
 BYTE   W96
// 118   ----------------------------------------
 BYTE   W48
 BYTE   W96
// 119   ----------------------------------------
 BYTE   W48
 BYTE   W96
// 120   ----------------------------------------
 BYTE   W48
 BYTE   W96
// 121   ----------------------------------------
 BYTE   W48
 BYTE   W96
// 122   ----------------------------------------
 BYTE   W48
 BYTE   W96
// 123   ----------------------------------------
 BYTE   W48
 BYTE   W96
// 124   ----------------------------------------
 BYTE   W48
 BYTE   W96
// 125   ----------------------------------------
 BYTE   W48
 BYTE   W96
// 126   ----------------------------------------
 BYTE   W48
 BYTE   W96
// 127   ----------------------------------------
 BYTE   W48
 BYTE   W96
// 128   ----------------------------------------
 BYTE   W48
 BYTE   PATT
  POIN2 Label_6_0153EF48
// 129   ----------------------------------------
 BYTE   W96
// 130   ----------------------------------------
 BYTE   W48
 BYTE   EOT
 BYTE   Cn2  v055
 BYTE   PATT
  POIN2 Label_6_0153EF55
// 131   ----------------------------------------
 BYTE   W96
// 132   ----------------------------------------
 BYTE   W48
 BYTE   EOT
 BYTE   Cs2  v054
 BYTE   PATT
  POIN2 Label_6_0153EF48
// 133   ----------------------------------------
 BYTE   W96
// 134   ----------------------------------------
 BYTE   W48
 BYTE   EOT
 BYTE   Cn2  v055
 BYTE   PATT
  POIN2 Label_6_0153EF55
// 135   ----------------------------------------
 BYTE   W96
// 136   ----------------------------------------
 BYTE   W48
 BYTE   EOT
 BYTE   Cs2  v054
 BYTE   W96
// 137   ----------------------------------------
 BYTE   W48
 BYTE   W96
// 138   ----------------------------------------
 BYTE   W48
 BYTE   FINE

//**************** Track 8 (Midi-Chn.7) ****************//

FF13DesperateStruggleMycahel_008:
// 000   ----------------------------------------
 BYTE   KEYSH   FF13DesperateStruggleMycahel_key+0
 BYTE   VOICE   48
 BYTE   VOL   48*FF13DesperateStruggleMycahel_mvl/mxv
 BYTE   BEND   c_v+0
 BYTE   W96
// 001   ----------------------------------------
 BYTE   W48
 BYTE   W96
// 002   ----------------------------------------
 BYTE   W48
 BYTE   W96
// 003   ----------------------------------------
 BYTE   W48
 BYTE   W96
// 004   ----------------------------------------
 BYTE   W48
 BYTE   TIE  Bn3  v084
 BYTE   W96
// 005   ----------------------------------------
 BYTE   W48
 BYTE   W96
// 006   ----------------------------------------
 BYTE   W48
 BYTE   EOT
Label_7_0153F05C:
 BYTE   TIE  Fs2  v072
 BYTE   TIE  Bn2
 BYTE   TIE  Cs3
 BYTE   TIE  Fs3
 BYTE   W96
// 007   ----------------------------------------
 BYTE   W48
 BYTE   PEND 
 BYTE   W96
// 008   ----------------------------------------
 BYTE   W48
 BYTE   EOT
 BYTE   Fs2  v059
 BYTE   Cs3  v066
Label_7_0153F06F:
 BYTE   TIE  Fs2  v080
 BYTE   TIE  An2
 BYTE   TIE  Bn2
 BYTE   TIE  Bn3  v084
 BYTE   W96
// 009   ----------------------------------------
 BYTE   W48
 BYTE   PEND 
 BYTE   W96
// 010   ----------------------------------------
 BYTE   W48
 BYTE   EOT
 BYTE   Fs2  v057
 BYTE   Bn2  v071
Label_7_0153F083:
 BYTE   TIE  Fs2  v084
 BYTE   TIE  Gs2
 BYTE   TIE  Bn2
 BYTE   TIE  Cs4
 BYTE   W96
// 011   ----------------------------------------
 BYTE   W48
 BYTE   PEND 
 BYTE   W96
// 012   ----------------------------------------
 BYTE   W48
 BYTE   EOT
 BYTE   Fs2  v056
 BYTE   Bn2  v073
 BYTE   PATT
  POIN2 Label_7_0153F083
// 013   ----------------------------------------
 BYTE   W96
// 014   ----------------------------------------
 BYTE   W48
 BYTE   EOT
 BYTE   Fs2  v056
 BYTE   Bn2  v073
Label_7_0153F0A2:
 BYTE   TIE  Fs2  v084
 BYTE   TIE  Bn2
 BYTE   TIE  Cs3
 BYTE   TIE  Fs3
 BYTE   W96
// 015   ----------------------------------------
 BYTE   W48
 BYTE   PEND 
 BYTE   W96
// 016   ----------------------------------------
 BYTE   W48
 BYTE   EOT
 BYTE   Fs2  v059
 BYTE   Cs3  v066
 BYTE   PATT
  POIN2 Label_7_0153F06F
// 017   ----------------------------------------
 BYTE   W96
// 018   ----------------------------------------
 BYTE   W48
 BYTE   EOT
 BYTE   Fs2  v057
 BYTE   Bn2  v071
 BYTE   PATT
  POIN2 Label_7_0153F083
// 019   ----------------------------------------
 BYTE   W96
// 020   ----------------------------------------
 BYTE   W48
 BYTE   EOT
 BYTE   Fs2  v056
 BYTE   Bn2  v073
 BYTE   PATT
  POIN2 Label_7_0153F083
// 021   ----------------------------------------
 BYTE   W96
// 022   ----------------------------------------
 BYTE   W48
 BYTE   EOT
 BYTE   Fs2  v056
 BYTE   Bn2  v073
 BYTE   W96
// 023   ----------------------------------------
 BYTE   W48
 BYTE   W96
// 024   ----------------------------------------
 BYTE   W48
 BYTE   W96
// 025   ----------------------------------------
 BYTE   W48
 BYTE   W96
// 026   ----------------------------------------
 BYTE   W48
 BYTE   W96
// 027   ----------------------------------------
 BYTE   W48
 BYTE   W96
// 028   ----------------------------------------
 BYTE   W48
 BYTE   W96
// 029   ----------------------------------------
 BYTE   W48
 BYTE   W96
// 030   ----------------------------------------
 BYTE   W48
 BYTE   PATT
  POIN2 Label_7_0153F0A2
// 031   ----------------------------------------
 BYTE   W96
// 032   ----------------------------------------
 BYTE   W48
 BYTE   EOT
 BYTE   Fs2  v059
 BYTE   Cs3  v066
 BYTE   PATT
  POIN2 Label_7_0153F06F
// 033   ----------------------------------------
 BYTE   W96
// 034   ----------------------------------------
 BYTE   W48
 BYTE   EOT
 BYTE   Fs2  v057
 BYTE   Bn2  v071
 BYTE   PATT
  POIN2 Label_7_0153F083
// 035   ----------------------------------------
 BYTE   W96
// 036   ----------------------------------------
 BYTE   W48
 BYTE   EOT
 BYTE   Fs2  v056
 BYTE   Bn2  v073
 BYTE   PATT
  POIN2 Label_7_0153F083
// 037   ----------------------------------------
 BYTE   W96
// 038   ----------------------------------------
 BYTE   W48
 BYTE   EOT
 BYTE   Fs2  v056
 BYTE   Bn2  v073
 BYTE   PATT
  POIN2 Label_7_0153F05C
// 039   ----------------------------------------
 BYTE   W96
// 040   ----------------------------------------
 BYTE   W48
 BYTE   EOT
 BYTE   Fs2  v059
 BYTE   Cs3  v066
 BYTE   PATT
  POIN2 Label_7_0153F06F
// 041   ----------------------------------------
 BYTE   W96
// 042   ----------------------------------------
 BYTE   W48
 BYTE   EOT
 BYTE   Fs2  v057
 BYTE   Bn2  v071
 BYTE   PATT
  POIN2 Label_7_0153F083
// 043   ----------------------------------------
 BYTE   W96
// 044   ----------------------------------------
 BYTE   W48
 BYTE   EOT
 BYTE   Fs2  v056
 BYTE   Bn2  v073
 BYTE   PATT
  POIN2 Label_7_0153F083
// 045   ----------------------------------------
 BYTE   W96
// 046   ----------------------------------------
 BYTE   W48
 BYTE   EOT
 BYTE   Fs2  v056
 BYTE   Bn2  v073
 BYTE   W96
// 047   ----------------------------------------
 BYTE   W48
 BYTE   W96
// 048   ----------------------------------------
 BYTE   W48
 BYTE   W96
// 049   ----------------------------------------
 BYTE   W48
 BYTE   W96
// 050   ----------------------------------------
 BYTE   W48
 BYTE   W96
// 051   ----------------------------------------
 BYTE   W48
 BYTE   W96
// 052   ----------------------------------------
 BYTE   W48
 BYTE   W96
// 053   ----------------------------------------
 BYTE   W48
 BYTE   W96
// 054   ----------------------------------------
 BYTE   W48
Label_7_0153F159:
 BYTE   N72  Bn2  v092
 BYTE   N72  Fs3
 BYTE   N72  As3
 BYTE   N72  Bn3
 BYTE   N72  Cs4
 BYTE   W72
// 055   ----------------------------------------
 BYTE   Dn3
 BYTE   N72  Fs3
 BYTE   N72  Gn3
 BYTE   N72  Bn3
 BYTE   N72  Dn4
 BYTE   W72
 BYTE   PEND 
Label_7_0153F170:
 BYTE   N72  Bn2  v092
 BYTE   N72  En3
 BYTE   N72  Gn3
 BYTE   N72  Cn4
 BYTE   N72  En4
 BYTE   W72
// 056   ----------------------------------------
 BYTE   Cn3  v096
 BYTE   N72  En3
 BYTE   N72  Gn3
 BYTE   N72  Bn3
 BYTE   N72  En4
 BYTE   W72
 BYTE   PEND 
Label_7_0153F188:
 BYTE   N72  Ds3  v096
 BYTE   N72  Fs3
 BYTE   N72  Bn3
 BYTE   N72  Fs4
 BYTE   W72
// 057   ----------------------------------------
 BYTE   Dn3  v100
 BYTE   N72  Fs3
 BYTE   N72  An3
 BYTE   N72  Dn4
 BYTE   W72
 BYTE   PEND 
Label_7_0153F19C:
 BYTE   N72  Cn3  v100
 BYTE   N72  En3
 BYTE   N72  Gn3
 BYTE   N72  An3
 BYTE   N72  Cn4
 BYTE   W72
// 058   ----------------------------------------
 BYTE   En3
 BYTE   N72  An3
 BYTE   N72  Bn3
 BYTE   N72  Cn4
 BYTE   N72  En4
 BYTE   W72
 BYTE   PEND 
Label_7_0153F1B3:
 BYTE   N72  Bn2  v104
 BYTE   N72  Fs3
 BYTE   N72  As3  v100
 BYTE   N72  Bn3  v104
 BYTE   N72  Cs4
 BYTE   N72  Fs4
 BYTE   W72
// 059   ----------------------------------------
 BYTE   Dn3
 BYTE   N72  Fs3
 BYTE   N72  Gn3
 BYTE   N72  Bn3
 BYTE   N72  Dn4
 BYTE   W72
 BYTE   PEND 
Label_7_0153F1CE:
 BYTE   N72  Bn2  v104
 BYTE   N72  En3
 BYTE   N72  Gn3
 BYTE   N72  Cn4
 BYTE   N72  En4
 BYTE   W72
// 060   ----------------------------------------
 BYTE   Cn3  v108
 BYTE   N72  En3
 BYTE   N72  Gn3
 BYTE   N72  Bn3
 BYTE   N72  En4
 BYTE   W72
 BYTE   PEND 
Label_7_0153F1E6:
 BYTE   N72  Ds3  v108
 BYTE   N72  Fs3
 BYTE   N72  Bn3
 BYTE   N72  Fs4
 BYTE   W72
// 061   ----------------------------------------
 BYTE   Dn3  v112
 BYTE   N72  Fs3
 BYTE   N72  An3
 BYTE   N72  Dn4
 BYTE   W72
 BYTE   PEND 
Label_7_0153F1FA:
 BYTE   N72  Cn3  v112
 BYTE   N72  En3
 BYTE   N72  Gn3
 BYTE   N72  An3
 BYTE   N72  Cn4
 BYTE   W72
// 062   ----------------------------------------
 BYTE   En3
 BYTE   N72  An3
 BYTE   N72  Bn3
 BYTE   N72  Cn4
 BYTE   N72  En4
 BYTE   W72
 BYTE   PEND 
 BYTE   W96
// 063   ----------------------------------------
 BYTE   W48
 BYTE   W96
// 064   ----------------------------------------
 BYTE   W48
 BYTE   W96
// 065   ----------------------------------------
 BYTE   W48
 BYTE   W96
// 066   ----------------------------------------
 BYTE   W48
Label_7_0153F219:
 BYTE   TIE  Gn2  v112
 BYTE   N72  En3
 BYTE   W72
// 067   ----------------------------------------
 BYTE   N48  Bn2
 BYTE   W48
 BYTE   N24  An2  v124
 BYTE   W24
 BYTE   PEND 
Label_7_0153F227:
 BYTE   N24  Bn2  v124
 BYTE   W24
// 068   ----------------------------------------
 BYTE   Dn3
 BYTE   W24
 BYTE   N48  Cn3
 BYTE   W48
 BYTE   N24  Bn2
 BYTE   W24
// 069   ----------------------------------------
 BYTE   An2
 BYTE   W24
 BYTE   PEND 
 BYTE   EOT
 BYTE   Gn2
Label_7_0153F238:
 BYTE   TIE  Fs2  v112
 BYTE   TIE  Bn2
 BYTE   W96
// 070   ----------------------------------------
 BYTE   W48
 BYTE   PEND 
 BYTE   W96
// 071   ----------------------------------------
 BYTE   W48
 BYTE   EOT
 BYTE   Fs2  v059
 BYTE   W96
// 072   ----------------------------------------
 BYTE   W48
 BYTE   W96
// 073   ----------------------------------------
 BYTE   W48
 BYTE   PATT
  POIN2 Label_7_0153F05C
// 074   ----------------------------------------
 BYTE   W96
// 075   ----------------------------------------
 BYTE   W48
 BYTE   EOT
 BYTE   Fs2  v059
 BYTE   Cs3  v066
 BYTE   PATT
  POIN2 Label_7_0153F06F
// 076   ----------------------------------------
 BYTE   W96
// 077   ----------------------------------------
 BYTE   W48
 BYTE   EOT
 BYTE   Fs2  v057
 BYTE   Bn2  v071
 BYTE   PATT
  POIN2 Label_7_0153F083
// 078   ----------------------------------------
 BYTE   W96
// 079   ----------------------------------------
 BYTE   W48
 BYTE   EOT
 BYTE   Fs2  v056
 BYTE   Bn2  v073
 BYTE   PATT
  POIN2 Label_7_0153F083
// 080   ----------------------------------------
 BYTE   W96
// 081   ----------------------------------------
 BYTE   W48
 BYTE   EOT
 BYTE   Fs2  v056
 BYTE   Bn2  v073
 BYTE   PATT
  POIN2 Label_7_0153F0A2
// 082   ----------------------------------------
 BYTE   W96
// 083   ----------------------------------------
 BYTE   W48
 BYTE   EOT
 BYTE   Fs2  v059
 BYTE   Cs3  v066
 BYTE   PATT
  POIN2 Label_7_0153F06F
// 084   ----------------------------------------
 BYTE   W96
// 085   ----------------------------------------
 BYTE   W48
 BYTE   EOT
 BYTE   Fs2  v057
 BYTE   Bn2  v071
 BYTE   PATT
  POIN2 Label_7_0153F083
// 086   ----------------------------------------
 BYTE   W96
// 087   ----------------------------------------
 BYTE   W48
 BYTE   EOT
 BYTE   Fs2  v056
 BYTE   Bn2  v073
 BYTE   PATT
  POIN2 Label_7_0153F083
// 088   ----------------------------------------
 BYTE   W96
// 089   ----------------------------------------
 BYTE   W48
 BYTE   EOT
 BYTE   Fs2  v056
 BYTE   Bn2  v073
 BYTE   W96
// 090   ----------------------------------------
 BYTE   W48
 BYTE   W96
// 091   ----------------------------------------
 BYTE   W48
 BYTE   W96
// 092   ----------------------------------------
 BYTE   W48
 BYTE   W96
// 093   ----------------------------------------
 BYTE   W48
 BYTE   W96
// 094   ----------------------------------------
 BYTE   W48
 BYTE   W96
// 095   ----------------------------------------
 BYTE   W48
 BYTE   W96
// 096   ----------------------------------------
 BYTE   W48
 BYTE   W96
// 097   ----------------------------------------
 BYTE   W48
 BYTE   PATT
  POIN2 Label_7_0153F0A2
// 098   ----------------------------------------
 BYTE   W96
// 099   ----------------------------------------
 BYTE   W48
 BYTE   EOT
 BYTE   Fs2  v059
 BYTE   Cs3  v066
 BYTE   PATT
  POIN2 Label_7_0153F06F
// 100   ----------------------------------------
 BYTE   W96
// 101   ----------------------------------------
 BYTE   W48
 BYTE   EOT
 BYTE   Fs2  v057
 BYTE   Bn2  v071
 BYTE   PATT
  POIN2 Label_7_0153F083
// 102   ----------------------------------------
 BYTE   W96
// 103   ----------------------------------------
 BYTE   W48
 BYTE   EOT
 BYTE   Fs2  v056
 BYTE   Bn2  v073
 BYTE   PATT
  POIN2 Label_7_0153F083
// 104   ----------------------------------------
 BYTE   W96
// 105   ----------------------------------------
 BYTE   W48
 BYTE   EOT
 BYTE   Fs2  v056
 BYTE   Bn2  v073
 BYTE   PATT
  POIN2 Label_7_0153F05C
// 106   ----------------------------------------
 BYTE   W96
// 107   ----------------------------------------
 BYTE   W48
 BYTE   EOT
 BYTE   Fs2  v059
 BYTE   Cs3  v066
 BYTE   PATT
  POIN2 Label_7_0153F06F
// 108   ----------------------------------------
 BYTE   W96
// 109   ----------------------------------------
 BYTE   W48
 BYTE   EOT
 BYTE   Fs2  v057
 BYTE   Bn2  v071
 BYTE   PATT
  POIN2 Label_7_0153F083
// 110   ----------------------------------------
 BYTE   W96
// 111   ----------------------------------------
 BYTE   W48
 BYTE   EOT
 BYTE   Fs2  v056
 BYTE   Bn2  v073
 BYTE   PATT
  POIN2 Label_7_0153F083
// 112   ----------------------------------------
 BYTE   W96
// 113   ----------------------------------------
 BYTE   W48
 BYTE   EOT
 BYTE   Fs2  v056
 BYTE   Bn2  v073
 BYTE   W96
// 114   ----------------------------------------
 BYTE   W48
 BYTE   W96
// 115   ----------------------------------------
 BYTE   W48
 BYTE   W96
// 116   ----------------------------------------
 BYTE   W48
 BYTE   W96
// 117   ----------------------------------------
 BYTE   W48
 BYTE   W96
// 118   ----------------------------------------
 BYTE   W48
 BYTE   W96
// 119   ----------------------------------------
 BYTE   W48
 BYTE   W96
// 120   ----------------------------------------
 BYTE   W48
 BYTE   W96
// 121   ----------------------------------------
 BYTE   W48
 BYTE   PATT
  POIN2 Label_7_0153F159
 BYTE   PATT
  POIN2 Label_7_0153F170
 BYTE   PATT
  POIN2 Label_7_0153F188
 BYTE   PATT
  POIN2 Label_7_0153F19C
 BYTE   PATT
  POIN2 Label_7_0153F1B3
 BYTE   PATT
  POIN2 Label_7_0153F1CE
 BYTE   PATT
  POIN2 Label_7_0153F1E6
 BYTE   PATT
  POIN2 Label_7_0153F1FA
// 122   ----------------------------------------
 BYTE   W96
// 123   ----------------------------------------
 BYTE   W48
 BYTE   W96
// 124   ----------------------------------------
 BYTE   W48
 BYTE   W96
// 125   ----------------------------------------
 BYTE   W48
 BYTE   W96
// 126   ----------------------------------------
 BYTE   W48
 BYTE   PATT
  POIN2 Label_7_0153F219
 BYTE   PATT
  POIN2 Label_7_0153F227
// 127   ----------------------------------------
 BYTE   EOT
 BYTE   Gn2
 BYTE   PATT
  POIN2 Label_7_0153F238
// 128   ----------------------------------------
 BYTE   W96
// 129   ----------------------------------------
 BYTE   W48
 BYTE   EOT
 BYTE   Fs2  v059
 BYTE   W96
// 130   ----------------------------------------
 BYTE   W48
 BYTE   W96
// 131   ----------------------------------------
 BYTE   W48
 BYTE   FINE

//**************** Track 9 (Midi-Chn.8) ****************//

FF13DesperateStruggleMycahel_009:
// 000   ----------------------------------------
 BYTE   KEYSH   FF13DesperateStruggleMycahel_key+0
 BYTE   VOICE   47
 BYTE   VOL   90*FF13DesperateStruggleMycahel_mvl/mxv
 BYTE   N12  Fs1  v100
 BYTE   W36
 BYTE   N12
 BYTE   W24
 BYTE   N12
 BYTE   W24
 BYTE   N12
 BYTE   W12
// 001   ----------------------------------------
 BYTE   N12
 BYTE   W48
Label_8_0153F386:
 BYTE   N12  Fs1  v100
 BYTE   W36
 BYTE   N12
 BYTE   W24
// 002   ----------------------------------------
 BYTE   N12
 BYTE   W24
 BYTE   N12
 BYTE   W12
 BYTE   N12
 BYTE   W24
 BYTE   N12
 BYTE   W24
 BYTE   PEND 
Label_8_0153F395:
 BYTE   N12  Fs1  v100
 BYTE   W36
// 003   ----------------------------------------
 BYTE   N12
 BYTE   W24
 BYTE   N12
 BYTE   W24
 BYTE   N12
 BYTE   W12
 BYTE   N12
 BYTE   W48
 BYTE   PEND 
 BYTE   PATT
  POIN2 Label_8_0153F386
 BYTE   PATT
  POIN2 Label_8_0153F395
 BYTE   PATT
  POIN2 Label_8_0153F386
 BYTE   PATT
  POIN2 Label_8_0153F395
// 004   ----------------------------------------
Label_8_0153F3B6:
 BYTE   N12  Fs1  v100
 BYTE   W16
 BYTE   Fs1  v084
 BYTE   W20
 BYTE   Fs1  v100
 BYTE   W24
 BYTE   N12
 BYTE   W12
 BYTE   N12
 BYTE   W12
 BYTE   N12
 BYTE   W12
// 005   ----------------------------------------
 BYTE   N12
 BYTE   W24
 BYTE   N12
 BYTE   W24
 BYTE   PEND 
 BYTE   PATT
  POIN2 Label_8_0153F395
 BYTE   PATT
  POIN2 Label_8_0153F3B6
 BYTE   PATT
  POIN2 Label_8_0153F395
 BYTE   PATT
  POIN2 Label_8_0153F3B6
 BYTE   PATT
  POIN2 Label_8_0153F395
 BYTE   PATT
  POIN2 Label_8_0153F3B6
 BYTE   PATT
  POIN2 Label_8_0153F395
 BYTE   PATT
  POIN2 Label_8_0153F3B6
 BYTE   PATT
  POIN2 Label_8_0153F395
 BYTE   PATT
  POIN2 Label_8_0153F3B6
 BYTE   PATT
  POIN2 Label_8_0153F395
 BYTE   PATT
  POIN2 Label_8_0153F3B6
 BYTE   PATT
  POIN2 Label_8_0153F395
 BYTE   PATT
  POIN2 Label_8_0153F3B6
// 006   ----------------------------------------
Label_8_0153F411:
 BYTE   N05  Fs1  v116
 BYTE   W12
 BYTE   Fs1  v092
 BYTE   W24
 BYTE   Fs1  v100
 BYTE   W12
 BYTE   N05
 BYTE   W12
 BYTE   N05
 BYTE   W12
 BYTE   Fs1  v116
 BYTE   W16
 BYTE   N05
 BYTE   W20
// 007   ----------------------------------------
 BYTE   N04  Fs1  v112
 BYTE   W06
 BYTE   Fs1  v096
 BYTE   W06
 BYTE   N05  Fs1  v116
 BYTE   W12
 BYTE   Fs1  v108
 BYTE   W12
 BYTE   PEND 
Label_8_0153F433:
 BYTE   N05  Fs1  v116
 BYTE   W12
 BYTE   N02  Fs1  v092
 BYTE   W05
 BYTE   N05  Fs1  v116
 BYTE   W19
 BYTE   N04  Fs1  v072
 BYTE   W06
 BYTE   Fs1  v096
 BYTE   W06
 BYTE   N05  Fs1  v116
 BYTE   W12
// 008   ----------------------------------------
 BYTE   Fs1  v108
 BYTE   W12
 BYTE   Fs1  v116
 BYTE   W17
 BYTE   N05
 BYTE   W19
 BYTE   N04  Fs1  v092
 BYTE   W12
 BYTE   N05  Fs1  v116
 BYTE   W12
 BYTE   Fs1  v108
 BYTE   W12
 BYTE   PEND 
 BYTE   PATT
  POIN2 Label_8_0153F411
 BYTE   PATT
  POIN2 Label_8_0153F433
 BYTE   PATT
  POIN2 Label_8_0153F411
 BYTE   PATT
  POIN2 Label_8_0153F433
// 009   ----------------------------------------
Label_8_0153F472:
 BYTE   N05  Fs1  v116
 BYTE   W12
 BYTE   Fs1  v092
 BYTE   W24
 BYTE   Fs1  v100
 BYTE   W12
 BYTE   N05
 BYTE   W12
 BYTE   N05
 BYTE   W12
 BYTE   Fs1  v116
 BYTE   W06
 BYTE   N05
 BYTE   W06
 BYTE   Dn1
 BYTE   W04
 BYTE   Fs1
 BYTE   W08
// 010   ----------------------------------------
 BYTE   Bn0
 BYTE   W06
 BYTE   N05
 BYTE   W06
 BYTE   N04  Cs1  v112
 BYTE   W06
 BYTE   Fs1  v096
 BYTE   W06
 BYTE   N05  Fs1  v116
 BYTE   W06
 BYTE   Fs1  v104
 BYTE   W06
 BYTE   Fs1  v108
 BYTE   W06
 BYTE   Fs1  v104
 BYTE   W06
 BYTE   PEND 
Label_8_0153F4A2:
 BYTE   N05  Fs1  v116
 BYTE   W06
 BYTE   Fs1  v104
 BYTE   W06
 BYTE   N02  Fs1  v092
 BYTE   W05
 BYTE   N05  Fs1  v116
 BYTE   W07
 BYTE   Fs1  v104
 BYTE   W06
 BYTE   Fs1  v092
 BYTE   W06
 BYTE   N04  Fs1  v072
 BYTE   W06
 BYTE   Fs1  v096
 BYTE   W06
// 011   ----------------------------------------
 BYTE   N05  Fs1  v116
 BYTE   W06
 BYTE   Fs1  v104
 BYTE   W06
 BYTE   Fs1  v108
 BYTE   W06
 BYTE   Fs1  v104
 BYTE   W06
 BYTE   Fs1  v116
 BYTE   W06
 BYTE   Fs1  v104
 BYTE   W06
 BYTE   N05
 BYTE   W05
 BYTE   Fs1  v116
 BYTE   W07
 BYTE   Fs1  v104
 BYTE   W06
 BYTE   N05
 BYTE   W06
 BYTE   N04  Fs1  v092
 BYTE   W06
 BYTE   N05  Fs1  v104
 BYTE   W06
 BYTE   Fs1  v116
 BYTE   W06
 BYTE   Fs1  v104
 BYTE   W06
 BYTE   Fs1  v108
 BYTE   W06
 BYTE   Fs1  v104
 BYTE   W06
 BYTE   PEND 
 BYTE   PATT
  POIN2 Label_8_0153F395
 BYTE   PATT
  POIN2 Label_8_0153F3B6
 BYTE   PATT
  POIN2 Label_8_0153F395
 BYTE   PATT
  POIN2 Label_8_0153F3B6
 BYTE   PATT
  POIN2 Label_8_0153F395
 BYTE   PATT
  POIN2 Label_8_0153F3B6
 BYTE   PATT
  POIN2 Label_8_0153F395
 BYTE   PATT
  POIN2 Label_8_0153F3B6
 BYTE   PATT
  POIN2 Label_8_0153F395
 BYTE   PATT
  POIN2 Label_8_0153F3B6
 BYTE   PATT
  POIN2 Label_8_0153F395
 BYTE   PATT
  POIN2 Label_8_0153F3B6
 BYTE   PATT
  POIN2 Label_8_0153F395
 BYTE   PATT
  POIN2 Label_8_0153F3B6
 BYTE   PATT
  POIN2 Label_8_0153F395
 BYTE   PATT
  POIN2 Label_8_0153F3B6
 BYTE   PATT
  POIN2 Label_8_0153F411
 BYTE   PATT
  POIN2 Label_8_0153F433
 BYTE   PATT
  POIN2 Label_8_0153F411
 BYTE   PATT
  POIN2 Label_8_0153F433
 BYTE   PATT
  POIN2 Label_8_0153F411
 BYTE   PATT
  POIN2 Label_8_0153F433
 BYTE   PATT
  POIN2 Label_8_0153F472
 BYTE   PATT
  POIN2 Label_8_0153F4A2
// 012   ----------------------------------------
 BYTE   W96
// 013   ----------------------------------------
 BYTE   W48
 BYTE   W96
// 014   ----------------------------------------
 BYTE   W48
 BYTE   W96
// 015   ----------------------------------------
 BYTE   W48
 BYTE   W96
// 016   ----------------------------------------
 BYTE   W48
 BYTE   W96
// 017   ----------------------------------------
 BYTE   W48
 BYTE   W96
// 018   ----------------------------------------
 BYTE   W48
 BYTE   W96
// 019   ----------------------------------------
 BYTE   W48
 BYTE   W96
// 020   ----------------------------------------
 BYTE   W48
Label_8_0153F578:
 BYTE   N06  Cn2  v112
 BYTE   W24
 BYTE   N06
 BYTE   W48
// 021   ----------------------------------------
 BYTE   N06
 BYTE   W30
 BYTE   N06
 BYTE   W42
 BYTE   PEND 
Label_8_0153F583:
 BYTE   N06  Cn2  v124
 BYTE   W12
 BYTE   Cn2  v100
 BYTE   W24
// 022   ----------------------------------------
 BYTE   Cn2  v112
 BYTE   W24
 BYTE   Cn2  v100
 BYTE   W24
 BYTE   Cn2  v088
 BYTE   W12
 BYTE   Cn2  v112
 BYTE   W24
 BYTE   N06
 BYTE   W24
 BYTE   PEND 
// 023   ----------------------------------------
Label_8_0153F599:
 BYTE   N06  Cs2  v112
 BYTE   W24
 BYTE   N06
 BYTE   W48
 BYTE   N06
 BYTE   W30
// 024   ----------------------------------------
 BYTE   N06
 BYTE   W42
 BYTE   PEND 
Label_8_0153F5A4:
 BYTE   N06  Cs2  v124
 BYTE   W12
 BYTE   Cs2  v100
 BYTE   W24
 BYTE   Cs2  v112
 BYTE   W24
// 025   ----------------------------------------
 BYTE   Cs2  v100
 BYTE   W24
 BYTE   Cs2  v088
 BYTE   W12
 BYTE   Cs2  v112
 BYTE   W24
 BYTE   N06
 BYTE   W24
 BYTE   PEND 
 BYTE   PATT
  POIN2 Label_8_0153F578
 BYTE   PATT
  POIN2 Label_8_0153F583
 BYTE   PATT
  POIN2 Label_8_0153F599
 BYTE   PATT
  POIN2 Label_8_0153F5A4
// 026   ----------------------------------------
Label_8_0153F5CE:
 BYTE   N12  Fs1  v120
 BYTE   W48
 BYTE   Cs2  v096
 BYTE   W24
 BYTE   Cs2  v104
 BYTE   W72
 BYTE   PEND 
// 027   ----------------------------------------
Label_8_0153F5D9:
 BYTE   W48
 BYTE   N12  En1  v104
 BYTE   W72
// 028   ----------------------------------------
 BYTE   N12
 BYTE   W24
 BYTE   PEND 
 BYTE   PATT
  POIN2 Label_8_0153F395
 BYTE   PATT
  POIN2 Label_8_0153F3B6
 BYTE   PATT
  POIN2 Label_8_0153F395
 BYTE   PATT
  POIN2 Label_8_0153F3B6
 BYTE   PATT
  POIN2 Label_8_0153F395
 BYTE   PATT
  POIN2 Label_8_0153F3B6
 BYTE   PATT
  POIN2 Label_8_0153F395
 BYTE   PATT
  POIN2 Label_8_0153F3B6
 BYTE   PATT
  POIN2 Label_8_0153F395
 BYTE   PATT
  POIN2 Label_8_0153F3B6
 BYTE   PATT
  POIN2 Label_8_0153F395
 BYTE   PATT
  POIN2 Label_8_0153F3B6
 BYTE   PATT
  POIN2 Label_8_0153F395
 BYTE   PATT
  POIN2 Label_8_0153F3B6
 BYTE   PATT
  POIN2 Label_8_0153F395
 BYTE   PATT
  POIN2 Label_8_0153F3B6
 BYTE   PATT
  POIN2 Label_8_0153F411
 BYTE   PATT
  POIN2 Label_8_0153F433
 BYTE   PATT
  POIN2 Label_8_0153F411
 BYTE   PATT
  POIN2 Label_8_0153F433
 BYTE   PATT
  POIN2 Label_8_0153F411
 BYTE   PATT
  POIN2 Label_8_0153F433
 BYTE   PATT
  POIN2 Label_8_0153F472
 BYTE   PATT
  POIN2 Label_8_0153F4A2
 BYTE   PATT
  POIN2 Label_8_0153F395
 BYTE   PATT
  POIN2 Label_8_0153F3B6
 BYTE   PATT
  POIN2 Label_8_0153F395
 BYTE   PATT
  POIN2 Label_8_0153F3B6
 BYTE   PATT
  POIN2 Label_8_0153F395
 BYTE   PATT
  POIN2 Label_8_0153F3B6
 BYTE   PATT
  POIN2 Label_8_0153F395
 BYTE   PATT
  POIN2 Label_8_0153F3B6
 BYTE   PATT
  POIN2 Label_8_0153F395
 BYTE   PATT
  POIN2 Label_8_0153F3B6
 BYTE   PATT
  POIN2 Label_8_0153F395
 BYTE   PATT
  POIN2 Label_8_0153F3B6
 BYTE   PATT
  POIN2 Label_8_0153F395
 BYTE   PATT
  POIN2 Label_8_0153F3B6
 BYTE   PATT
  POIN2 Label_8_0153F395
 BYTE   PATT
  POIN2 Label_8_0153F3B6
 BYTE   PATT
  POIN2 Label_8_0153F411
 BYTE   PATT
  POIN2 Label_8_0153F433
 BYTE   PATT
  POIN2 Label_8_0153F411
 BYTE   PATT
  POIN2 Label_8_0153F433
 BYTE   PATT
  POIN2 Label_8_0153F411
 BYTE   PATT
  POIN2 Label_8_0153F433
 BYTE   PATT
  POIN2 Label_8_0153F472
 BYTE   PATT
  POIN2 Label_8_0153F4A2
// 029   ----------------------------------------
 BYTE   W96
// 030   ----------------------------------------
 BYTE   W48
 BYTE   W96
// 031   ----------------------------------------
 BYTE   W48
 BYTE   W96
// 032   ----------------------------------------
 BYTE   W48
 BYTE   W96
// 033   ----------------------------------------
 BYTE   W48
 BYTE   W96
// 034   ----------------------------------------
 BYTE   W48
 BYTE   W96
// 035   ----------------------------------------
 BYTE   W48
 BYTE   W96
// 036   ----------------------------------------
 BYTE   W48
 BYTE   W96
// 037   ----------------------------------------
 BYTE   W48
 BYTE   PATT
  POIN2 Label_8_0153F578
 BYTE   PATT
  POIN2 Label_8_0153F583
 BYTE   PATT
  POIN2 Label_8_0153F599
 BYTE   PATT
  POIN2 Label_8_0153F5A4
 BYTE   PATT
  POIN2 Label_8_0153F578
 BYTE   PATT
  POIN2 Label_8_0153F583
 BYTE   PATT
  POIN2 Label_8_0153F599
 BYTE   PATT
  POIN2 Label_8_0153F5A4
 BYTE   PATT
  POIN2 Label_8_0153F5CE
 BYTE   PATT
  POIN2 Label_8_0153F5D9
 BYTE   FINE

//**************** Track 10 (Midi-Chn.9) ****************//

FF13DesperateStruggleMycahel_010:
// 000   ----------------------------------------
 BYTE   KEYSH   FF13DesperateStruggleMycahel_key+0
 BYTE   VOICE   48
 BYTE   VOL   48*FF13DesperateStruggleMycahel_mvl/mxv
 BYTE   N24  Cn1  v100
 BYTE   W96
// 001   ----------------------------------------
 BYTE   W48
 BYTE   W96
// 002   ----------------------------------------
 BYTE   W48
 BYTE   W96
// 003   ----------------------------------------
 BYTE   W48
 BYTE   W96
// 004   ----------------------------------------
 BYTE   W48
 BYTE   W96
// 005   ----------------------------------------
 BYTE   W48
 BYTE   W96
// 006   ----------------------------------------
 BYTE   W48
Label_9_0153F729:
 BYTE   N24  Cn1  v100
 BYTE   W36
 BYTE   N24
 BYTE   W96
// 007   ----------------------------------------
 BYTE   W12
 BYTE   PEND 
 BYTE   W96
// 008   ----------------------------------------
 BYTE   W48
Label_9_0153F733:
 BYTE   N24  Cn1  v100
 BYTE   W96
// 009   ----------------------------------------
 BYTE   W48
 BYTE   PEND 
 BYTE   W96
// 010   ----------------------------------------
 BYTE   W48
 BYTE   PATT
  POIN2 Label_9_0153F733
// 011   ----------------------------------------
 BYTE   W96
// 012   ----------------------------------------
 BYTE   W48
 BYTE   PATT
  POIN2 Label_9_0153F733
// 013   ----------------------------------------
 BYTE   W96
// 014   ----------------------------------------
 BYTE   W48
 BYTE   PATT
  POIN2 Label_9_0153F729
// 015   ----------------------------------------
 BYTE   W96
// 016   ----------------------------------------
 BYTE   W48
 BYTE   PATT
  POIN2 Label_9_0153F733
// 017   ----------------------------------------
 BYTE   W96
// 018   ----------------------------------------
 BYTE   W48
 BYTE   PATT
  POIN2 Label_9_0153F733
// 019   ----------------------------------------
 BYTE   W96
// 020   ----------------------------------------
 BYTE   W48
 BYTE   PATT
  POIN2 Label_9_0153F733
// 021   ----------------------------------------
 BYTE   W96
// 022   ----------------------------------------
 BYTE   W48
 BYTE   W96
// 023   ----------------------------------------
 BYTE   W48
 BYTE   W96
// 024   ----------------------------------------
 BYTE   W48
 BYTE   W96
// 025   ----------------------------------------
 BYTE   W48
 BYTE   W96
// 026   ----------------------------------------
 BYTE   W48
 BYTE   W96
// 027   ----------------------------------------
 BYTE   W48
 BYTE   W96
// 028   ----------------------------------------
 BYTE   W48
 BYTE   W96
// 029   ----------------------------------------
 BYTE   W48
 BYTE   W96
// 030   ----------------------------------------
 BYTE   W48
 BYTE   PATT
  POIN2 Label_9_0153F729
// 031   ----------------------------------------
 BYTE   W96
// 032   ----------------------------------------
 BYTE   W48
 BYTE   PATT
  POIN2 Label_9_0153F733
// 033   ----------------------------------------
 BYTE   W96
// 034   ----------------------------------------
 BYTE   W48
 BYTE   PATT
  POIN2 Label_9_0153F733
// 035   ----------------------------------------
 BYTE   W96
// 036   ----------------------------------------
 BYTE   W48
 BYTE   PATT
  POIN2 Label_9_0153F733
// 037   ----------------------------------------
 BYTE   W96
// 038   ----------------------------------------
 BYTE   W48
 BYTE   PATT
  POIN2 Label_9_0153F729
// 039   ----------------------------------------
 BYTE   W96
// 040   ----------------------------------------
 BYTE   W48
 BYTE   PATT
  POIN2 Label_9_0153F733
// 041   ----------------------------------------
 BYTE   W96
// 042   ----------------------------------------
 BYTE   W48
 BYTE   PATT
  POIN2 Label_9_0153F733
// 043   ----------------------------------------
 BYTE   W96
// 044   ----------------------------------------
 BYTE   W48
 BYTE   PATT
  POIN2 Label_9_0153F733
// 045   ----------------------------------------
 BYTE   W96
// 046   ----------------------------------------
 BYTE   W48
 BYTE   W96
// 047   ----------------------------------------
 BYTE   W48
 BYTE   W96
// 048   ----------------------------------------
 BYTE   W48
 BYTE   W96
// 049   ----------------------------------------
 BYTE   W48
 BYTE   W96
// 050   ----------------------------------------
 BYTE   W48
 BYTE   W96
// 051   ----------------------------------------
 BYTE   W48
 BYTE   W96
// 052   ----------------------------------------
 BYTE   W48
 BYTE   W96
// 053   ----------------------------------------
 BYTE   W48
 BYTE   W96
// 054   ----------------------------------------
 BYTE   W48
Label_9_0153F7BD:
 BYTE   N06  Cn1  v116
 BYTE   W36
 BYTE   Cn1  v088
 BYTE   W36
// 055   ----------------------------------------
 BYTE   Cn1  v100
 BYTE   W12
 BYTE   Cn1  v068
 BYTE   W12
 BYTE   Cn1  v088
 BYTE   W12
 BYTE   Cn1  v076
 BYTE   W12
 BYTE   Cn1  v084
 BYTE   W12
 BYTE   Cn1  v072
 BYTE   W12
 BYTE   PEND 
 BYTE   PATT
  POIN2 Label_9_0153F7BD
 BYTE   PATT
  POIN2 Label_9_0153F7BD
// 056   ----------------------------------------
Label_9_0153F7E1:
 BYTE   N06  Cn1  v100
 BYTE   W12
 BYTE   Cn1  v068
 BYTE   W12
 BYTE   Cn1  v088
 BYTE   W12
 BYTE   Cn1  v076
 BYTE   W12
 BYTE   Cn1  v084
 BYTE   W12
 BYTE   Cn1  v072
 BYTE   W84
 BYTE   PEND 
 BYTE   PATT
  POIN2 Label_9_0153F7BD
 BYTE   PATT
  POIN2 Label_9_0153F7BD
 BYTE   PATT
  POIN2 Label_9_0153F7BD
 BYTE   PATT
  POIN2 Label_9_0153F7E1
// 057   ----------------------------------------
Label_9_0153F809:
 BYTE   N24  Cn1  v127
 BYTE   W96
// 058   ----------------------------------------
 BYTE   W48
 BYTE   PEND 
 BYTE   W96
// 059   ----------------------------------------
 BYTE   W48
 BYTE   PATT
  POIN2 Label_9_0153F809
// 060   ----------------------------------------
 BYTE   W96
// 061   ----------------------------------------
 BYTE   W48
 BYTE   PATT
  POIN2 Label_9_0153F809
// 062   ----------------------------------------
 BYTE   W96
// 063   ----------------------------------------
 BYTE   W48
 BYTE   PATT
  POIN2 Label_9_0153F809
// 064   ----------------------------------------
 BYTE   W96
// 065   ----------------------------------------
 BYTE   W48
Label_9_0153F826:
 BYTE   N24  Cn1  v127
 BYTE   W24
 BYTE   Cn1  v072
 BYTE   W24
// 066   ----------------------------------------
 BYTE   Cn1  v080
 BYTE   W24
 BYTE   Cn1  v072
 BYTE   W24
 BYTE   Cn1  v080
 BYTE   W24
 BYTE   Cn1  v068
 BYTE   W24
 BYTE   PEND 
// 067   ----------------------------------------
Label_9_0153F83A:
 BYTE   N24  Cn1  v104
 BYTE   W36
 BYTE   Cn1  v068
 BYTE   W36
 BYTE   Cn1  v092
 BYTE   W24
// 068   ----------------------------------------
 BYTE   Cn1  v060
 BYTE   W48
 BYTE   PEND 
 BYTE   PATT
  POIN2 Label_9_0153F729
// 069   ----------------------------------------
 BYTE   W96
// 070   ----------------------------------------
 BYTE   W48
 BYTE   PATT
  POIN2 Label_9_0153F733
// 071   ----------------------------------------
 BYTE   W96
// 072   ----------------------------------------
 BYTE   W48
 BYTE   PATT
  POIN2 Label_9_0153F733
// 073   ----------------------------------------
 BYTE   W96
// 074   ----------------------------------------
 BYTE   W48
 BYTE   PATT
  POIN2 Label_9_0153F733
// 075   ----------------------------------------
 BYTE   W96
// 076   ----------------------------------------
 BYTE   W48
 BYTE   PATT
  POIN2 Label_9_0153F729
// 077   ----------------------------------------
 BYTE   W96
// 078   ----------------------------------------
 BYTE   W48
 BYTE   PATT
  POIN2 Label_9_0153F733
// 079   ----------------------------------------
 BYTE   W96
// 080   ----------------------------------------
 BYTE   W48
 BYTE   PATT
  POIN2 Label_9_0153F733
// 081   ----------------------------------------
 BYTE   W96
// 082   ----------------------------------------
 BYTE   W48
 BYTE   PATT
  POIN2 Label_9_0153F733
// 083   ----------------------------------------
 BYTE   W96
// 084   ----------------------------------------
 BYTE   W48
 BYTE   W96
// 085   ----------------------------------------
 BYTE   W48
 BYTE   W96
// 086   ----------------------------------------
 BYTE   W48
 BYTE   W96
// 087   ----------------------------------------
 BYTE   W48
 BYTE   W96
// 088   ----------------------------------------
 BYTE   W48
 BYTE   W96
// 089   ----------------------------------------
 BYTE   W48
 BYTE   W96
// 090   ----------------------------------------
 BYTE   W48
 BYTE   W96
// 091   ----------------------------------------
 BYTE   W48
 BYTE   W96
// 092   ----------------------------------------
 BYTE   W48
 BYTE   PATT
  POIN2 Label_9_0153F729
// 093   ----------------------------------------
 BYTE   W96
// 094   ----------------------------------------
 BYTE   W48
 BYTE   PATT
  POIN2 Label_9_0153F733
// 095   ----------------------------------------
 BYTE   W96
// 096   ----------------------------------------
 BYTE   W48
 BYTE   PATT
  POIN2 Label_9_0153F733
// 097   ----------------------------------------
 BYTE   W96
// 098   ----------------------------------------
 BYTE   W48
 BYTE   PATT
  POIN2 Label_9_0153F733
// 099   ----------------------------------------
 BYTE   W96
// 100   ----------------------------------------
 BYTE   W48
 BYTE   PATT
  POIN2 Label_9_0153F729
// 101   ----------------------------------------
 BYTE   W96
// 102   ----------------------------------------
 BYTE   W48
 BYTE   PATT
  POIN2 Label_9_0153F733
// 103   ----------------------------------------
 BYTE   W96
// 104   ----------------------------------------
 BYTE   W48
 BYTE   PATT
  POIN2 Label_9_0153F733
// 105   ----------------------------------------
 BYTE   W96
// 106   ----------------------------------------
 BYTE   W48
 BYTE   PATT
  POIN2 Label_9_0153F733
// 107   ----------------------------------------
 BYTE   W96
// 108   ----------------------------------------
 BYTE   W48
 BYTE   W96
// 109   ----------------------------------------
 BYTE   W48
 BYTE   W96
// 110   ----------------------------------------
 BYTE   W48
 BYTE   W96
// 111   ----------------------------------------
 BYTE   W48
 BYTE   W96
// 112   ----------------------------------------
 BYTE   W48
 BYTE   W96
// 113   ----------------------------------------
 BYTE   W48
 BYTE   W96
// 114   ----------------------------------------
 BYTE   W48
 BYTE   W96
// 115   ----------------------------------------
 BYTE   W48
 BYTE   W96
// 116   ----------------------------------------
 BYTE   W48
 BYTE   PATT
  POIN2 Label_9_0153F7BD
 BYTE   PATT
  POIN2 Label_9_0153F7BD
 BYTE   PATT
  POIN2 Label_9_0153F7BD
 BYTE   PATT
  POIN2 Label_9_0153F7E1
 BYTE   PATT
  POIN2 Label_9_0153F7BD
 BYTE   PATT
  POIN2 Label_9_0153F7BD
 BYTE   PATT
  POIN2 Label_9_0153F7BD
 BYTE   PATT
  POIN2 Label_9_0153F7E1
 BYTE   PATT
  POIN2 Label_9_0153F809
// 117   ----------------------------------------
 BYTE   W96
// 118   ----------------------------------------
 BYTE   W48
 BYTE   PATT
  POIN2 Label_9_0153F809
// 119   ----------------------------------------
 BYTE   W96
// 120   ----------------------------------------
 BYTE   W48
 BYTE   PATT
  POIN2 Label_9_0153F809
// 121   ----------------------------------------
 BYTE   W96
// 122   ----------------------------------------
 BYTE   W48
 BYTE   PATT
  POIN2 Label_9_0153F809
// 123   ----------------------------------------
 BYTE   W96
// 124   ----------------------------------------
 BYTE   W48
 BYTE   PATT
  POIN2 Label_9_0153F826
 BYTE   PATT
  POIN2 Label_9_0153F83A
 BYTE   FINE

//**************** Track 11 (Midi-Chn.10) ****************//

FF13DesperateStruggleMycahel_011:
// 000   ----------------------------------------
 BYTE   VOL   52*FF13DesperateStruggleMycahel_mvl/mxv
 BYTE   KEYSH   FF13DesperateStruggleMycahel_key+0
 BYTE   VOICE   119
 BYTE   W96
// 001   ----------------------------------------
 BYTE   W48
 BYTE   W96
// 002   ----------------------------------------
 BYTE   W48
 BYTE   W96
// 003   ----------------------------------------
 BYTE   W48
 BYTE   W96
// 004   ----------------------------------------
 BYTE   W48
 BYTE   W96
// 005   ----------------------------------------
 BYTE   W48
 BYTE   W96
// 006   ----------------------------------------
 BYTE   W48
Label_10_0153F93A:
 BYTE   TIE  An2  v124
 BYTE   W96
// 007   ----------------------------------------
 BYTE   W48
 BYTE   PEND 
 BYTE   EOT
 BYTE   W96
// 008   ----------------------------------------
 BYTE   W48
 BYTE   W96
// 009   ----------------------------------------
 BYTE   W48
 BYTE   W96
// 010   ----------------------------------------
 BYTE   W48
 BYTE   W96
// 011   ----------------------------------------
 BYTE   W48
 BYTE   W96
// 012   ----------------------------------------
 BYTE   W48
 BYTE   W96
// 013   ----------------------------------------
 BYTE   W48
 BYTE   W96
// 014   ----------------------------------------
 BYTE   W48
 BYTE   PATT
  POIN2 Label_10_0153F93A
// 015   ----------------------------------------
 BYTE   EOT
 BYTE   An2
 BYTE   W96
// 016   ----------------------------------------
 BYTE   W48
 BYTE   W96
// 017   ----------------------------------------
 BYTE   W48
 BYTE   W96
// 018   ----------------------------------------
 BYTE   W48
 BYTE   W96
// 019   ----------------------------------------
 BYTE   W48
 BYTE   W96
// 020   ----------------------------------------
 BYTE   W48
 BYTE   W96
// 021   ----------------------------------------
 BYTE   W48
 BYTE   W96
// 022   ----------------------------------------
 BYTE   W48
 BYTE   PATT
  POIN2 Label_10_0153F93A
// 023   ----------------------------------------
 BYTE   EOT
 BYTE   An2
 BYTE   W96
// 024   ----------------------------------------
 BYTE   W48
 BYTE   W96
// 025   ----------------------------------------
 BYTE   W48
 BYTE   W96
// 026   ----------------------------------------
 BYTE   W48
 BYTE   PATT
  POIN2 Label_10_0153F93A
// 027   ----------------------------------------
 BYTE   EOT
 BYTE   An2
 BYTE   W96
// 028   ----------------------------------------
 BYTE   W48
 BYTE   W96
// 029   ----------------------------------------
 BYTE   W48
 BYTE   W96
// 030   ----------------------------------------
 BYTE   W48
 BYTE   PATT
  POIN2 Label_10_0153F93A
// 031   ----------------------------------------
 BYTE   EOT
 BYTE   An2
 BYTE   W96
// 032   ----------------------------------------
 BYTE   W48
 BYTE   W96
// 033   ----------------------------------------
 BYTE   W48
 BYTE   W96
// 034   ----------------------------------------
 BYTE   W48
 BYTE   W96
// 035   ----------------------------------------
 BYTE   W48
 BYTE   W96
// 036   ----------------------------------------
 BYTE   W48
 BYTE   W96
// 037   ----------------------------------------
 BYTE   W48
 BYTE   W96
// 038   ----------------------------------------
 BYTE   W48
 BYTE   PATT
  POIN2 Label_10_0153F93A
// 039   ----------------------------------------
 BYTE   EOT
 BYTE   An2
 BYTE   W96
// 040   ----------------------------------------
 BYTE   W48
 BYTE   W96
// 041   ----------------------------------------
 BYTE   W48
 BYTE   W96
// 042   ----------------------------------------
 BYTE   W48
 BYTE   W96
// 043   ----------------------------------------
 BYTE   W48
 BYTE   W96
// 044   ----------------------------------------
 BYTE   W48
 BYTE   W96
// 045   ----------------------------------------
 BYTE   W48
 BYTE   W96
// 046   ----------------------------------------
 BYTE   W48
 BYTE   PATT
  POIN2 Label_10_0153F93A
// 047   ----------------------------------------
 BYTE   EOT
 BYTE   An2
 BYTE   W96
// 048   ----------------------------------------
 BYTE   W48
 BYTE   W96
// 049   ----------------------------------------
 BYTE   W48
 BYTE   W96
// 050   ----------------------------------------
 BYTE   W48
 BYTE   PATT
  POIN2 Label_10_0153F93A
// 051   ----------------------------------------
 BYTE   EOT
 BYTE   An2
 BYTE   W96
// 052   ----------------------------------------
 BYTE   W48
 BYTE   W96
// 053   ----------------------------------------
 BYTE   W48
 BYTE   W96
// 054   ----------------------------------------
 BYTE   W48
 BYTE   PATT
  POIN2 Label_10_0153F93A
// 055   ----------------------------------------
 BYTE   EOT
 BYTE   An2
 BYTE   W96
// 056   ----------------------------------------
 BYTE   W48
 BYTE   PATT
  POIN2 Label_10_0153F93A
// 057   ----------------------------------------
 BYTE   EOT
 BYTE   An2
 BYTE   W96
// 058   ----------------------------------------
 BYTE   W48
 BYTE   PATT
  POIN2 Label_10_0153F93A
// 059   ----------------------------------------
 BYTE   EOT
 BYTE   An2
 BYTE   W96
// 060   ----------------------------------------
 BYTE   W48
 BYTE   PATT
  POIN2 Label_10_0153F93A
// 061   ----------------------------------------
 BYTE   EOT
 BYTE   An2
 BYTE   W96
// 062   ----------------------------------------
 BYTE   W48
 BYTE   PATT
  POIN2 Label_10_0153F93A
// 063   ----------------------------------------
 BYTE   EOT
 BYTE   An2
 BYTE   W96
// 064   ----------------------------------------
 BYTE   W48
 BYTE   W96
// 065   ----------------------------------------
 BYTE   W48
 BYTE   W96
// 066   ----------------------------------------
 BYTE   W48
 BYTE   PATT
  POIN2 Label_10_0153F93A
// 067   ----------------------------------------
 BYTE   EOT
 BYTE   An2
 BYTE   W96
// 068   ----------------------------------------
 BYTE   W48
 BYTE   W96
// 069   ----------------------------------------
 BYTE   W48
 BYTE   W96
// 070   ----------------------------------------
 BYTE   W48
 BYTE   PATT
  POIN2 Label_10_0153F93A
// 071   ----------------------------------------
 BYTE   EOT
 BYTE   An2
 BYTE   W96
// 072   ----------------------------------------
 BYTE   W48
 BYTE   PATT
  POIN2 Label_10_0153F93A
// 073   ----------------------------------------
 BYTE   EOT
 BYTE   An2
 BYTE   W96
// 074   ----------------------------------------
 BYTE   W48
 BYTE   W96
// 075   ----------------------------------------
 BYTE   W48
 BYTE   W96
// 076   ----------------------------------------
 BYTE   W48
 BYTE   W96
// 077   ----------------------------------------
 BYTE   W48
 BYTE   W96
// 078   ----------------------------------------
 BYTE   W48
 BYTE   W96
// 079   ----------------------------------------
 BYTE   W48
 BYTE   W96
// 080   ----------------------------------------
 BYTE   W48
 BYTE   PATT
  POIN2 Label_10_0153F93A
// 081   ----------------------------------------
 BYTE   EOT
 BYTE   An2
 BYTE   W96
// 082   ----------------------------------------
 BYTE   W48
 BYTE   W96
// 083   ----------------------------------------
 BYTE   W48
 BYTE   W96
// 084   ----------------------------------------
 BYTE   W48
 BYTE   W96
// 085   ----------------------------------------
 BYTE   W48
 BYTE   W96
// 086   ----------------------------------------
 BYTE   W48
 BYTE   W96
// 087   ----------------------------------------
 BYTE   W48
 BYTE   W96
// 088   ----------------------------------------
 BYTE   W48
 BYTE   PATT
  POIN2 Label_10_0153F93A
// 089   ----------------------------------------
 BYTE   EOT
 BYTE   An2
 BYTE   W96
// 090   ----------------------------------------
 BYTE   W48
 BYTE   W96
// 091   ----------------------------------------
 BYTE   W48
 BYTE   W96
// 092   ----------------------------------------
 BYTE   W48
 BYTE   PATT
  POIN2 Label_10_0153F93A
// 093   ----------------------------------------
 BYTE   EOT
 BYTE   An2
 BYTE   W96
// 094   ----------------------------------------
 BYTE   W48
 BYTE   W96
// 095   ----------------------------------------
 BYTE   W48
 BYTE   W96
// 096   ----------------------------------------
 BYTE   W48
 BYTE   PATT
  POIN2 Label_10_0153F93A
// 097   ----------------------------------------
 BYTE   EOT
 BYTE   An2
 BYTE   W96
// 098   ----------------------------------------
 BYTE   W48
 BYTE   W96
// 099   ----------------------------------------
 BYTE   W48
 BYTE   W96
// 100   ----------------------------------------
 BYTE   W48
 BYTE   W96
// 101   ----------------------------------------
 BYTE   W48
 BYTE   W96
// 102   ----------------------------------------
 BYTE   W48
 BYTE   W96
// 103   ----------------------------------------
 BYTE   W48
 BYTE   W96
// 104   ----------------------------------------
 BYTE   W48
 BYTE   PATT
  POIN2 Label_10_0153F93A
// 105   ----------------------------------------
 BYTE   EOT
 BYTE   An2
 BYTE   W96
// 106   ----------------------------------------
 BYTE   W48
 BYTE   W96
// 107   ----------------------------------------
 BYTE   W48
 BYTE   W96
// 108   ----------------------------------------
 BYTE   W48
 BYTE   W96
// 109   ----------------------------------------
 BYTE   W48
 BYTE   W96
// 110   ----------------------------------------
 BYTE   W48
 BYTE   W96
// 111   ----------------------------------------
 BYTE   W48
 BYTE   W96
// 112   ----------------------------------------
 BYTE   W48
 BYTE   PATT
  POIN2 Label_10_0153F93A
// 113   ----------------------------------------
 BYTE   EOT
 BYTE   An2
 BYTE   W96
// 114   ----------------------------------------
 BYTE   W48
 BYTE   W96
// 115   ----------------------------------------
 BYTE   W48
 BYTE   W96
// 116   ----------------------------------------
 BYTE   W48
 BYTE   PATT
  POIN2 Label_10_0153F93A
// 117   ----------------------------------------
 BYTE   EOT
 BYTE   An2
 BYTE   W96
// 118   ----------------------------------------
 BYTE   W48
 BYTE   W96
// 119   ----------------------------------------
 BYTE   W48
 BYTE   W96
// 120   ----------------------------------------
 BYTE   W48
 BYTE   PATT
  POIN2 Label_10_0153F93A
// 121   ----------------------------------------
 BYTE   EOT
 BYTE   An2
 BYTE   W96
// 122   ----------------------------------------
 BYTE   W48
 BYTE   PATT
  POIN2 Label_10_0153F93A
// 123   ----------------------------------------
 BYTE   EOT
 BYTE   An2
 BYTE   W96
// 124   ----------------------------------------
 BYTE   W48
 BYTE   PATT
  POIN2 Label_10_0153F93A
// 125   ----------------------------------------
 BYTE   EOT
 BYTE   An2
 BYTE   W96
// 126   ----------------------------------------
 BYTE   W48
 BYTE   PATT
  POIN2 Label_10_0153F93A
// 127   ----------------------------------------
 BYTE   EOT
 BYTE   An2
 BYTE   W96
// 128   ----------------------------------------
 BYTE   W48
 BYTE   PATT
  POIN2 Label_10_0153F93A
// 129   ----------------------------------------
 BYTE   EOT
 BYTE   An2
 BYTE   W96
// 130   ----------------------------------------
 BYTE   W48
 BYTE   W96
// 131   ----------------------------------------
 BYTE   W48
 BYTE   W96
// 132   ----------------------------------------
 BYTE   W48
 BYTE   PATT
  POIN2 Label_10_0153F93A
// 133   ----------------------------------------
 BYTE   EOT
 BYTE   An2
 BYTE   W96
// 134   ----------------------------------------
 BYTE   W48
 BYTE   W96
// 135   ----------------------------------------
 BYTE   W48
 BYTE   W96
// 136   ----------------------------------------
 BYTE   W48
 BYTE   PATT
  POIN2 Label_10_0153F93A
// 137   ----------------------------------------
 BYTE   EOT
 BYTE   An2
 BYTE   W96
// 138   ----------------------------------------
 BYTE   W48
 BYTE   FINE

//**************** Track 12 (Midi-Chn.11) ****************//

FF13DesperateStruggleMycahel_012:
// 000   ----------------------------------------
 BYTE   VOL   52*FF13DesperateStruggleMycahel_mvl/mxv
 BYTE   KEYSH   FF13DesperateStruggleMycahel_key+0
 BYTE   VOICE   119
 BYTE   W96
// 001   ----------------------------------------
 BYTE   W48
 BYTE   W96
// 002   ----------------------------------------
 BYTE   W48
 BYTE   W96
// 003   ----------------------------------------
 BYTE   W48
 BYTE   W96
// 004   ----------------------------------------
 BYTE   W48
 BYTE   W96
// 005   ----------------------------------------
 BYTE   W48
Label_11_0153FAEC:
 BYTE   N03  An2  v008
 BYTE   W03
 BYTE   N03
 BYTE   W03
 BYTE   An2  v012
 BYTE   W03
 BYTE   N03
 BYTE   W03
 BYTE   An2  v016
 BYTE   W03
 BYTE   N03
 BYTE   W03
 BYTE   N03
 BYTE   W03
 BYTE   An2  v020
 BYTE   W03
 BYTE   An2  v024
 BYTE   W03
 BYTE   N03
 BYTE   W03
 BYTE   An2  v028
 BYTE   W03
 BYTE   N03
 BYTE   W03
 BYTE   An2  v032
 BYTE   W03
 BYTE   N03
 BYTE   W03
 BYTE   An2  v036
 BYTE   W03
 BYTE   An2  v040
 BYTE   W03
// 006   ----------------------------------------
 BYTE   N03
 BYTE   W03
 BYTE   An2  v044
 BYTE   W03
 BYTE   N03
 BYTE   W03
 BYTE   An2  v048
 BYTE   W03
 BYTE   N03
 BYTE   W03
 BYTE   N03
 BYTE   W03
 BYTE   An2  v052
 BYTE   W03
 BYTE   N03
 BYTE   W03
 BYTE   An2  v056
 BYTE   W03
 BYTE   N03
 BYTE   W03
 BYTE   An2  v060
 BYTE   W03
 BYTE   N03
 BYTE   W03
 BYTE   N03
 BYTE   W03
 BYTE   An2  v064
 BYTE   W03
 BYTE   An2  v068
 BYTE   W03
 BYTE   N03
 BYTE   W03
 BYTE   N03
 BYTE   W03
 BYTE   N03
 BYTE   W03
 BYTE   N03
 BYTE   W03
 BYTE   N03
 BYTE   W03
 BYTE   N03
 BYTE   W03
 BYTE   An2  v072
 BYTE   W03
 BYTE   N03
 BYTE   W03
 BYTE   N03
 BYTE   W03
 BYTE   N03
 BYTE   W03
 BYTE   N03
 BYTE   W03
 BYTE   N03
 BYTE   W03
 BYTE   N03
 BYTE   W03
 BYTE   An2  v076
 BYTE   W03
 BYTE   N03
 BYTE   W03
 BYTE   N03
 BYTE   W03
 BYTE   N03
 BYTE   W03
 BYTE   PEND 
// 007   ----------------------------------------
 BYTE   W96
// 008   ----------------------------------------
 BYTE   W48
 BYTE   W96
// 009   ----------------------------------------
 BYTE   W48
 BYTE   W96
// 010   ----------------------------------------
 BYTE   W48
 BYTE   W96
// 011   ----------------------------------------
 BYTE   W48
 BYTE   W96
// 012   ----------------------------------------
 BYTE   W48
 BYTE   W96
// 013   ----------------------------------------
 BYTE   W48
 BYTE   W96
// 014   ----------------------------------------
 BYTE   W48
 BYTE   PATT
  POIN2 Label_11_0153FAEC
// 015   ----------------------------------------
 BYTE   W96
// 016   ----------------------------------------
 BYTE   W48
 BYTE   W96
// 017   ----------------------------------------
 BYTE   W48
 BYTE   W96
// 018   ----------------------------------------
 BYTE   W48
 BYTE   W96
// 019   ----------------------------------------
 BYTE   W48
 BYTE   W96
// 020   ----------------------------------------
 BYTE   W48
 BYTE   W96
// 021   ----------------------------------------
 BYTE   W48
 BYTE   W96
// 022   ----------------------------------------
 BYTE   W48
 BYTE   PATT
  POIN2 Label_11_0153FAEC
// 023   ----------------------------------------
 BYTE   W96
// 024   ----------------------------------------
 BYTE   W48
 BYTE   W96
// 025   ----------------------------------------
 BYTE   W48
 BYTE   W96
// 026   ----------------------------------------
 BYTE   W48
 BYTE   W96
// 027   ----------------------------------------
 BYTE   W48
 BYTE   W96
// 028   ----------------------------------------
 BYTE   W48
 BYTE   W96
// 029   ----------------------------------------
 BYTE   W48
 BYTE   W96
// 030   ----------------------------------------
 BYTE   W48
 BYTE   PATT
  POIN2 Label_11_0153FAEC
// 031   ----------------------------------------
 BYTE   W96
// 032   ----------------------------------------
 BYTE   W48
 BYTE   W96
// 033   ----------------------------------------
 BYTE   W48
 BYTE   W96
// 034   ----------------------------------------
 BYTE   W48
 BYTE   W96
// 035   ----------------------------------------
 BYTE   W48
 BYTE   W96
// 036   ----------------------------------------
 BYTE   W48
 BYTE   W96
// 037   ----------------------------------------
 BYTE   W48
 BYTE   W96
// 038   ----------------------------------------
 BYTE   W48
 BYTE   PATT
  POIN2 Label_11_0153FAEC
// 039   ----------------------------------------
 BYTE   W96
// 040   ----------------------------------------
 BYTE   W48
 BYTE   W96
// 041   ----------------------------------------
 BYTE   W48
 BYTE   W96
// 042   ----------------------------------------
 BYTE   W48
 BYTE   W96
// 043   ----------------------------------------
 BYTE   W48
 BYTE   W96
// 044   ----------------------------------------
 BYTE   W48
 BYTE   W96
// 045   ----------------------------------------
 BYTE   W48
 BYTE   W96
// 046   ----------------------------------------
 BYTE   W48
 BYTE   PATT
  POIN2 Label_11_0153FAEC
// 047   ----------------------------------------
 BYTE   W96
// 048   ----------------------------------------
 BYTE   W48
 BYTE   W96
// 049   ----------------------------------------
 BYTE   W48
 BYTE   W96
// 050   ----------------------------------------
 BYTE   W48
 BYTE   W96
// 051   ----------------------------------------
 BYTE   W48
 BYTE   W96
// 052   ----------------------------------------
 BYTE   W48
 BYTE   W96
// 053   ----------------------------------------
 BYTE   W48
 BYTE   W96
// 054   ----------------------------------------
 BYTE   W48
 BYTE   PATT
  POIN2 Label_11_0153FAEC
// 055   ----------------------------------------
 BYTE   W96
// 056   ----------------------------------------
 BYTE   W48
Label_11_0153FBD4:
 BYTE   W72
// 057   ----------------------------------------
 BYTE   N03  An2  v012
 BYTE   W03
 BYTE   An2  v016
 BYTE   W03
 BYTE   N03
 BYTE   W03
 BYTE   An2  v020
 BYTE   W03
 BYTE   An2  v024
 BYTE   W03
 BYTE   An2  v028
 BYTE   W03
 BYTE   N03
 BYTE   W03
 BYTE   An2  v032
 BYTE   W03
 BYTE   An2  v036
 BYTE   W03
 BYTE   N03
 BYTE   W03
 BYTE   An2  v040
 BYTE   W03
 BYTE   An2  v044
 BYTE   W03
 BYTE   An2  v048
 BYTE   W03
 BYTE   N03
 BYTE   W03
 BYTE   An2  v052
 BYTE   W03
 BYTE   An2  v056
 BYTE   W03
 BYTE   An2  v060
 BYTE   W03
 BYTE   N03
 BYTE   W03
 BYTE   An2  v064
 BYTE   W03
 BYTE   An2  v068
 BYTE   W03
 BYTE   N03
 BYTE   W03
 BYTE   An2  v072
 BYTE   W03
 BYTE   An2  v076
 BYTE   W03
 BYTE   An2  v080
 BYTE   W03
 BYTE   PEND 
 BYTE   W96
// 058   ----------------------------------------
 BYTE   W48
 BYTE   W96
// 059   ----------------------------------------
 BYTE   W48
 BYTE   W96
// 060   ----------------------------------------
 BYTE   W48
 BYTE   PATT
  POIN2 Label_11_0153FBD4
// 061   ----------------------------------------
 BYTE   W96
// 062   ----------------------------------------
 BYTE   W48
 BYTE   PATT
  POIN2 Label_11_0153FAEC
// 063   ----------------------------------------
Label_11_0153FC2B:
 BYTE   W48
 BYTE   N03  An2  v020
 BYTE   W03
 BYTE   An2  v024
 BYTE   W03
 BYTE   N03
 BYTE   W03
 BYTE   An2  v028
 BYTE   W03
 BYTE   N03
 BYTE   W03
 BYTE   An2  v032
 BYTE   W03
 BYTE   An2  v036
 BYTE   W03
 BYTE   N03
 BYTE   W03
 BYTE   An2  v040
 BYTE   W03
 BYTE   An2  v044
 BYTE   W03
 BYTE   N03
 BYTE   W03
 BYTE   An2  v048
 BYTE   W03
 BYTE   N03
 BYTE   W03
 BYTE   An2  v052
 BYTE   W03
 BYTE   An2  v056
 BYTE   W03
 BYTE   N03
 BYTE   W03
// 064   ----------------------------------------
 BYTE   An2  v060
 BYTE   W03
 BYTE   An2  v064
 BYTE   W03
 BYTE   N03
 BYTE   W03
 BYTE   An2  v060
 BYTE   W03
 BYTE   N03
 BYTE   W03
 BYTE   An2  v056
 BYTE   W03
 BYTE   An2  v052
 BYTE   W03
 BYTE   N03
 BYTE   W24
 BYTE   W03
 BYTE   PEND 
 BYTE   W96
// 065   ----------------------------------------
 BYTE   W48
 BYTE   W96
// 066   ----------------------------------------
 BYTE   W48
 BYTE   W96
// 067   ----------------------------------------
 BYTE   W48
 BYTE   PATT
  POIN2 Label_11_0153FC2B
// 068   ----------------------------------------
 BYTE   W96
// 069   ----------------------------------------
 BYTE   W48
 BYTE   W96
// 070   ----------------------------------------
 BYTE   W48
 BYTE   PATT
  POIN2 Label_11_0153FAEC
// 071   ----------------------------------------
Label_11_0153FC82:
 BYTE   W21
 BYTE   N03  An2  v004
 BYTE   W03
 BYTE   An2  v008
 BYTE   W03
 BYTE   N03
 BYTE   W03
 BYTE   N03
 BYTE   W03
 BYTE   An2  v012
 BYTE   W03
 BYTE   N03
 BYTE   W03
 BYTE   An2  v016
 BYTE   W03
 BYTE   An2  v020
 BYTE   W03
 BYTE   N03
 BYTE   W03
 BYTE   An2  v024
 BYTE   W03
 BYTE   N03
 BYTE   W03
 BYTE   N03
 BYTE   W03
 BYTE   An2  v032
 BYTE   W03
 BYTE   N03
 BYTE   W03
 BYTE   N03
 BYTE   W03
 BYTE   An2  v036
 BYTE   W03
 BYTE   N03
 BYTE   W03
 BYTE   N03
 BYTE   W03
 BYTE   An2  v040
 BYTE   W03
 BYTE   An2  v036
 BYTE   W03
 BYTE   N03
 BYTE   W03
 BYTE   N03
 BYTE   W03
 BYTE   An2  v032
 BYTE   W03
 BYTE   N03
 BYTE   W03
 BYTE   N03
 BYTE   W03
// 072   ----------------------------------------
 BYTE   An2  v028
 BYTE   W03
 BYTE   N03
 BYTE   W03
 BYTE   An2  v024
 BYTE   W03
 BYTE   N03
 BYTE   W03
 BYTE   N03
 BYTE   W03
 BYTE   An2  v020
 BYTE   W03
 BYTE   N03
 BYTE   W03
 BYTE   N03
 BYTE   W03
 BYTE   An2  v016
 BYTE   W03
 BYTE   N03
 BYTE   W03
 BYTE   An2  v012
 BYTE   W03
 BYTE   N03
 BYTE   W03
 BYTE   N03
 BYTE   W03
 BYTE   An2  v008
 BYTE   W03
 BYTE   N03
 BYTE   W03
 BYTE   N03
 BYTE   W03
 BYTE   PEND 
 BYTE   PATT
  POIN2 Label_11_0153FAEC
// 073   ----------------------------------------
 BYTE   W96
// 074   ----------------------------------------
 BYTE   W48
 BYTE   W96
// 075   ----------------------------------------
 BYTE   W48
 BYTE   W96
// 076   ----------------------------------------
 BYTE   W48
 BYTE   W96
// 077   ----------------------------------------
 BYTE   W48
 BYTE   W96
// 078   ----------------------------------------
 BYTE   W48
 BYTE   W96
// 079   ----------------------------------------
 BYTE   W48
 BYTE   W96
// 080   ----------------------------------------
 BYTE   W48
 BYTE   PATT
  POIN2 Label_11_0153FAEC
// 081   ----------------------------------------
 BYTE   W96
// 082   ----------------------------------------
 BYTE   W48
 BYTE   W96
// 083   ----------------------------------------
 BYTE   W48
 BYTE   W96
// 084   ----------------------------------------
 BYTE   W48
 BYTE   W96
// 085   ----------------------------------------
 BYTE   W48
 BYTE   W96
// 086   ----------------------------------------
 BYTE   W48
 BYTE   W96
// 087   ----------------------------------------
 BYTE   W48
 BYTE   W96
// 088   ----------------------------------------
 BYTE   W48
 BYTE   PATT
  POIN2 Label_11_0153FAEC
// 089   ----------------------------------------
 BYTE   W96
// 090   ----------------------------------------
 BYTE   W48
 BYTE   W96
// 091   ----------------------------------------
 BYTE   W48
 BYTE   W96
// 092   ----------------------------------------
 BYTE   W48
 BYTE   W96
// 093   ----------------------------------------
 BYTE   W48
 BYTE   W96
// 094   ----------------------------------------
 BYTE   W48
 BYTE   W96
// 095   ----------------------------------------
 BYTE   W48
 BYTE   W96
// 096   ----------------------------------------
 BYTE   W48
 BYTE   PATT
  POIN2 Label_11_0153FAEC
// 097   ----------------------------------------
 BYTE   W96
// 098   ----------------------------------------
 BYTE   W48
 BYTE   W96
// 099   ----------------------------------------
 BYTE   W48
 BYTE   W96
// 100   ----------------------------------------
 BYTE   W48
 BYTE   W96
// 101   ----------------------------------------
 BYTE   W48
 BYTE   W96
// 102   ----------------------------------------
 BYTE   W48
 BYTE   W96
// 103   ----------------------------------------
 BYTE   W48
 BYTE   W96
// 104   ----------------------------------------
 BYTE   W48
 BYTE   PATT
  POIN2 Label_11_0153FAEC
// 105   ----------------------------------------
 BYTE   W96
// 106   ----------------------------------------
 BYTE   W48
 BYTE   W96
// 107   ----------------------------------------
 BYTE   W48
 BYTE   W96
// 108   ----------------------------------------
 BYTE   W48
 BYTE   W96
// 109   ----------------------------------------
 BYTE   W48
 BYTE   W96
// 110   ----------------------------------------
 BYTE   W48
 BYTE   W96
// 111   ----------------------------------------
 BYTE   W48
 BYTE   W96
// 112   ----------------------------------------
 BYTE   W48
 BYTE   PATT
  POIN2 Label_11_0153FAEC
// 113   ----------------------------------------
 BYTE   W96
// 114   ----------------------------------------
 BYTE   W48
 BYTE   W96
// 115   ----------------------------------------
 BYTE   W48
 BYTE   W96
// 116   ----------------------------------------
 BYTE   W48
 BYTE   W96
// 117   ----------------------------------------
 BYTE   W48
 BYTE   W96
// 118   ----------------------------------------
 BYTE   W48
 BYTE   W96
// 119   ----------------------------------------
 BYTE   W48
 BYTE   W96
// 120   ----------------------------------------
 BYTE   W48
 BYTE   PATT
  POIN2 Label_11_0153FAEC
// 121   ----------------------------------------
 BYTE   W96
// 122   ----------------------------------------
 BYTE   W48
 BYTE   PATT
  POIN2 Label_11_0153FBD4
// 123   ----------------------------------------
 BYTE   W96
// 124   ----------------------------------------
 BYTE   W48
 BYTE   W96
// 125   ----------------------------------------
 BYTE   W48
 BYTE   W96
// 126   ----------------------------------------
 BYTE   W48
 BYTE   PATT
  POIN2 Label_11_0153FBD4
// 127   ----------------------------------------
 BYTE   W96
// 128   ----------------------------------------
 BYTE   W48
 BYTE   PATT
  POIN2 Label_11_0153FAEC
 BYTE   PATT
  POIN2 Label_11_0153FC2B
// 129   ----------------------------------------
 BYTE   W96
// 130   ----------------------------------------
 BYTE   W48
 BYTE   W96
// 131   ----------------------------------------
 BYTE   W48
 BYTE   W96
// 132   ----------------------------------------
 BYTE   W48
 BYTE   PATT
  POIN2 Label_11_0153FC2B
// 133   ----------------------------------------
 BYTE   W96
// 134   ----------------------------------------
 BYTE   W48
 BYTE   W96
// 135   ----------------------------------------
 BYTE   W48
 BYTE   PATT
  POIN2 Label_11_0153FAEC
 BYTE   PATT
  POIN2 Label_11_0153FC82
 BYTE   PATT
  POIN2 Label_11_0153FAEC
 BYTE   FINE

//**************** Track 13 (Midi-Chn.12) ****************//

FF13DesperateStruggleMycahel_013:
// 000   ----------------------------------------
 BYTE   VOL   48*FF13DesperateStruggleMycahel_mvl/mxv
 BYTE   KEYSH   FF13DesperateStruggleMycahel_key+0
 BYTE   VOICE   127
 BYTE   W96
// 001   ----------------------------------------
 BYTE   W48
 BYTE   W96
// 002   ----------------------------------------
 BYTE   W48
 BYTE   W96
// 003   ----------------------------------------
 BYTE   W48
 BYTE   W96
// 004   ----------------------------------------
 BYTE   W48
 BYTE   W96
// 005   ----------------------------------------
 BYTE   W48
 BYTE   W96
// 006   ----------------------------------------
 BYTE   W48
Label_12_0153FDAE:
 BYTE   N06  An3  v080
 BYTE   W06
 BYTE   As3  v056
 BYTE   W06
 BYTE   An3  v080
 BYTE   W06
 BYTE   As3  v040
 BYTE   W06
 BYTE   An3  v080
 BYTE   W06
 BYTE   As3  v056
 BYTE   W06
 BYTE   An3  v080
 BYTE   W06
 BYTE   As3  v040
 BYTE   W06
// 007   ----------------------------------------
 BYTE   An3  v080
 BYTE   W06
 BYTE   As3  v056
 BYTE   W06
 BYTE   An3  v080
 BYTE   W06
 BYTE   As3  v040
 BYTE   W06
 BYTE   An3  v080
 BYTE   W06
 BYTE   As3  v056
 BYTE   W06
 BYTE   An3  v080
 BYTE   W06
 BYTE   As3  v040
 BYTE   W06
 BYTE   An3  v080
 BYTE   W06
 BYTE   As3  v056
 BYTE   W06
 BYTE   An3  v080
 BYTE   W06
 BYTE   As3  v040
 BYTE   W06
 BYTE   An3  v080
 BYTE   W06
 BYTE   As3  v056
 BYTE   W06
 BYTE   An3  v080
 BYTE   W06
 BYTE   As3  v040
 BYTE   W06
 BYTE   PEND 
 BYTE   PATT
  POIN2 Label_12_0153FDAE
 BYTE   PATT
  POIN2 Label_12_0153FDAE
 BYTE   PATT
  POIN2 Label_12_0153FDAE
 BYTE   PATT
  POIN2 Label_12_0153FDAE
 BYTE   PATT
  POIN2 Label_12_0153FDAE
 BYTE   PATT
  POIN2 Label_12_0153FDAE
 BYTE   PATT
  POIN2 Label_12_0153FDAE
 BYTE   PATT
  POIN2 Label_12_0153FDAE
 BYTE   PATT
  POIN2 Label_12_0153FDAE
 BYTE   PATT
  POIN2 Label_12_0153FDAE
 BYTE   PATT
  POIN2 Label_12_0153FDAE
 BYTE   PATT
  POIN2 Label_12_0153FDAE
 BYTE   PATT
  POIN2 Label_12_0153FDAE
 BYTE   PATT
  POIN2 Label_12_0153FDAE
 BYTE   PATT
  POIN2 Label_12_0153FDAE
 BYTE   PATT
  POIN2 Label_12_0153FDAE
 BYTE   PATT
  POIN2 Label_12_0153FDAE
 BYTE   PATT
  POIN2 Label_12_0153FDAE
 BYTE   PATT
  POIN2 Label_12_0153FDAE
 BYTE   PATT
  POIN2 Label_12_0153FDAE
 BYTE   PATT
  POIN2 Label_12_0153FDAE
 BYTE   PATT
  POIN2 Label_12_0153FDAE
 BYTE   PATT
  POIN2 Label_12_0153FDAE
 BYTE   PATT
  POIN2 Label_12_0153FDAE
 BYTE   PATT
  POIN2 Label_12_0153FDAE
 BYTE   PATT
  POIN2 Label_12_0153FDAE
 BYTE   PATT
  POIN2 Label_12_0153FDAE
 BYTE   PATT
  POIN2 Label_12_0153FDAE
 BYTE   PATT
  POIN2 Label_12_0153FDAE
 BYTE   PATT
  POIN2 Label_12_0153FDAE
 BYTE   PATT
  POIN2 Label_12_0153FDAE
 BYTE   PATT
  POIN2 Label_12_0153FDAE
 BYTE   PATT
  POIN2 Label_12_0153FDAE
 BYTE   PATT
  POIN2 Label_12_0153FDAE
 BYTE   PATT
  POIN2 Label_12_0153FDAE
 BYTE   PATT
  POIN2 Label_12_0153FDAE
 BYTE   PATT
  POIN2 Label_12_0153FDAE
 BYTE   PATT
  POIN2 Label_12_0153FDAE
 BYTE   PATT
  POIN2 Label_12_0153FDAE
 BYTE   PATT
  POIN2 Label_12_0153FDAE
 BYTE   PATT
  POIN2 Label_12_0153FDAE
 BYTE   PATT
  POIN2 Label_12_0153FDAE
 BYTE   PATT
  POIN2 Label_12_0153FDAE
 BYTE   PATT
  POIN2 Label_12_0153FDAE
 BYTE   PATT
  POIN2 Label_12_0153FDAE
 BYTE   PATT
  POIN2 Label_12_0153FDAE
 BYTE   PATT
  POIN2 Label_12_0153FDAE
 BYTE   PATT
  POIN2 Label_12_0153FDAE
 BYTE   PATT
  POIN2 Label_12_0153FDAE
 BYTE   PATT
  POIN2 Label_12_0153FDAE
 BYTE   PATT
  POIN2 Label_12_0153FDAE
 BYTE   PATT
  POIN2 Label_12_0153FDAE
 BYTE   PATT
  POIN2 Label_12_0153FDAE
 BYTE   PATT
  POIN2 Label_12_0153FDAE
 BYTE   PATT
  POIN2 Label_12_0153FDAE
 BYTE   PATT
  POIN2 Label_12_0153FDAE
 BYTE   PATT
  POIN2 Label_12_0153FDAE
 BYTE   PATT
  POIN2 Label_12_0153FDAE
 BYTE   PATT
  POIN2 Label_12_0153FDAE
 BYTE   PATT
  POIN2 Label_12_0153FDAE
 BYTE   PATT
  POIN2 Label_12_0153FDAE
 BYTE   PATT
  POIN2 Label_12_0153FDAE
 BYTE   PATT
  POIN2 Label_12_0153FDAE
// 008   ----------------------------------------
 BYTE   W96
// 009   ----------------------------------------
 BYTE   W48
 BYTE   W96
// 010   ----------------------------------------
 BYTE   W48
 BYTE   PATT
  POIN2 Label_12_0153FDAE
 BYTE   PATT
  POIN2 Label_12_0153FDAE
 BYTE   PATT
  POIN2 Label_12_0153FDAE
 BYTE   PATT
  POIN2 Label_12_0153FDAE
 BYTE   PATT
  POIN2 Label_12_0153FDAE
 BYTE   PATT
  POIN2 Label_12_0153FDAE
 BYTE   PATT
  POIN2 Label_12_0153FDAE
 BYTE   PATT
  POIN2 Label_12_0153FDAE
 BYTE   PATT
  POIN2 Label_12_0153FDAE
 BYTE   PATT
  POIN2 Label_12_0153FDAE
 BYTE   PATT
  POIN2 Label_12_0153FDAE
 BYTE   PATT
  POIN2 Label_12_0153FDAE
 BYTE   PATT
  POIN2 Label_12_0153FDAE
 BYTE   PATT
  POIN2 Label_12_0153FDAE
 BYTE   PATT
  POIN2 Label_12_0153FDAE
 BYTE   PATT
  POIN2 Label_12_0153FDAE
 BYTE   PATT
  POIN2 Label_12_0153FDAE
 BYTE   PATT
  POIN2 Label_12_0153FDAE
 BYTE   PATT
  POIN2 Label_12_0153FDAE
 BYTE   PATT
  POIN2 Label_12_0153FDAE
 BYTE   PATT
  POIN2 Label_12_0153FDAE
 BYTE   PATT
  POIN2 Label_12_0153FDAE
 BYTE   PATT
  POIN2 Label_12_0153FDAE
 BYTE   PATT
  POIN2 Label_12_0153FDAE
 BYTE   PATT
  POIN2 Label_12_0153FDAE
 BYTE   PATT
  POIN2 Label_12_0153FDAE
 BYTE   PATT
  POIN2 Label_12_0153FDAE
 BYTE   PATT
  POIN2 Label_12_0153FDAE
 BYTE   PATT
  POIN2 Label_12_0153FDAE
 BYTE   PATT
  POIN2 Label_12_0153FDAE
 BYTE   PATT
  POIN2 Label_12_0153FDAE
 BYTE   PATT
  POIN2 Label_12_0153FDAE
 BYTE   PATT
  POIN2 Label_12_0153FDAE
 BYTE   PATT
  POIN2 Label_12_0153FDAE
 BYTE   PATT
  POIN2 Label_12_0153FDAE
 BYTE   PATT
  POIN2 Label_12_0153FDAE
 BYTE   PATT
  POIN2 Label_12_0153FDAE
 BYTE   PATT
  POIN2 Label_12_0153FDAE
 BYTE   PATT
  POIN2 Label_12_0153FDAE
 BYTE   PATT
  POIN2 Label_12_0153FDAE
 BYTE   PATT
  POIN2 Label_12_0153FDAE
 BYTE   PATT
  POIN2 Label_12_0153FDAE
 BYTE   PATT
  POIN2 Label_12_0153FDAE
 BYTE   PATT
  POIN2 Label_12_0153FDAE
 BYTE   PATT
  POIN2 Label_12_0153FDAE
 BYTE   PATT
  POIN2 Label_12_0153FDAE
 BYTE   PATT
  POIN2 Label_12_0153FDAE
 BYTE   PATT
  POIN2 Label_12_0153FDAE
 BYTE   PATT
  POIN2 Label_12_0153FDAE
 BYTE   PATT
  POIN2 Label_12_0153FDAE
 BYTE   PATT
  POIN2 Label_12_0153FDAE
 BYTE   PATT
  POIN2 Label_12_0153FDAE
 BYTE   PATT
  POIN2 Label_12_0153FDAE
 BYTE   PATT
  POIN2 Label_12_0153FDAE
 BYTE   PATT
  POIN2 Label_12_0153FDAE
 BYTE   PATT
  POIN2 Label_12_0153FDAE
 BYTE   PATT
  POIN2 Label_12_0153FDAE
 BYTE   PATT
  POIN2 Label_12_0153FDAE
 BYTE   PATT
  POIN2 Label_12_0153FDAE
 BYTE   PATT
  POIN2 Label_12_0153FDAE
 BYTE   PATT
  POIN2 Label_12_0153FDAE
 BYTE   PATT
  POIN2 Label_12_0153FDAE
 BYTE   PATT
  POIN2 Label_12_0153FDAE
 BYTE   PATT
  POIN2 Label_12_0153FDAE
// 011   ----------------------------------------
 BYTE   W96
// 012   ----------------------------------------
 BYTE   W48
 BYTE   W96
// 013   ----------------------------------------
 BYTE   W48
 BYTE   FINE

//**************** Track 14 (Midi-Chn.13) ****************//

FF13DesperateStruggleMycahel_014:
// 000   ----------------------------------------
 BYTE   VOL   42*FF13DesperateStruggleMycahel_mvl/mxv
 BYTE   KEYSH   FF13DesperateStruggleMycahel_key+0
 BYTE   VOICE   100
 BYTE   N96  Bn4  v100
 BYTE   W96
// 001   ----------------------------------------
 BYTE   W48
 BYTE   W96
// 002   ----------------------------------------
 BYTE   W48
 BYTE   W96
// 003   ----------------------------------------
 BYTE   W48
 BYTE   W96
// 004   ----------------------------------------
 BYTE   W48
 BYTE   W96
// 005   ----------------------------------------
 BYTE   W48
 BYTE   W96
// 006   ----------------------------------------
 BYTE   W48
 BYTE   W96
// 007   ----------------------------------------
 BYTE   W48
 BYTE   W96
// 008   ----------------------------------------
 BYTE   W48
Label_13_01540095:
 BYTE   N96  Bn4  v100
 BYTE   W96
// 009   ----------------------------------------
 BYTE   W48
 BYTE   PEND 
 BYTE   W96
// 010   ----------------------------------------
 BYTE   W48
 BYTE   W96
// 011   ----------------------------------------
 BYTE   W48
 BYTE   W96
// 012   ----------------------------------------
 BYTE   W48
 BYTE   PATT
  POIN2 Label_13_01540095
// 013   ----------------------------------------
 BYTE   W96
// 014   ----------------------------------------
 BYTE   W48
 BYTE   W96
// 015   ----------------------------------------
 BYTE   W48
 BYTE   W96
// 016   ----------------------------------------
 BYTE   W48
 BYTE   PATT
  POIN2 Label_13_01540095
// 017   ----------------------------------------
 BYTE   W96
// 018   ----------------------------------------
 BYTE   W48
 BYTE   W96
// 019   ----------------------------------------
 BYTE   W48
 BYTE   W96
// 020   ----------------------------------------
 BYTE   W48
 BYTE   PATT
  POIN2 Label_13_01540095
// 021   ----------------------------------------
 BYTE   W96
// 022   ----------------------------------------
 BYTE   W48
 BYTE   W96
// 023   ----------------------------------------
 BYTE   W48
 BYTE   W96
// 024   ----------------------------------------
 BYTE   W48
 BYTE   W96
// 025   ----------------------------------------
 BYTE   W48
 BYTE   W96
// 026   ----------------------------------------
 BYTE   W48
 BYTE   W96
// 027   ----------------------------------------
 BYTE   W48
 BYTE   W96
// 028   ----------------------------------------
 BYTE   W48
 BYTE   W96
// 029   ----------------------------------------
 BYTE   W48
 BYTE   W96
// 030   ----------------------------------------
 BYTE   W48
 BYTE   W96
// 031   ----------------------------------------
 BYTE   W48
 BYTE   W96
// 032   ----------------------------------------
 BYTE   W48
 BYTE   PATT
  POIN2 Label_13_01540095
// 033   ----------------------------------------
 BYTE   W96
// 034   ----------------------------------------
 BYTE   W48
 BYTE   W96
// 035   ----------------------------------------
 BYTE   W48
 BYTE   W96
// 036   ----------------------------------------
 BYTE   W48
 BYTE   PATT
  POIN2 Label_13_01540095
// 037   ----------------------------------------
 BYTE   W96
// 038   ----------------------------------------
 BYTE   W48
 BYTE   W96
// 039   ----------------------------------------
 BYTE   W48
 BYTE   W96
// 040   ----------------------------------------
 BYTE   W48
 BYTE   PATT
  POIN2 Label_13_01540095
// 041   ----------------------------------------
 BYTE   W96
// 042   ----------------------------------------
 BYTE   W48
 BYTE   W96
// 043   ----------------------------------------
 BYTE   W48
 BYTE   W96
// 044   ----------------------------------------
 BYTE   W48
 BYTE   PATT
  POIN2 Label_13_01540095
// 045   ----------------------------------------
 BYTE   W96
// 046   ----------------------------------------
 BYTE   W48
 BYTE   W96
// 047   ----------------------------------------
 BYTE   W48
 BYTE   W96
// 048   ----------------------------------------
 BYTE   W48
 BYTE   W96
// 049   ----------------------------------------
 BYTE   W48
 BYTE   W96
// 050   ----------------------------------------
 BYTE   W48
 BYTE   W96
// 051   ----------------------------------------
 BYTE   W48
 BYTE   W96
// 052   ----------------------------------------
 BYTE   W48
 BYTE   W96
// 053   ----------------------------------------
 BYTE   W48
 BYTE   W96
// 054   ----------------------------------------
 BYTE   W48
 BYTE   W96
// 055   ----------------------------------------
 BYTE   W48
 BYTE   W96
// 056   ----------------------------------------
 BYTE   W48
 BYTE   W96
// 057   ----------------------------------------
 BYTE   W48
 BYTE   W96
// 058   ----------------------------------------
 BYTE   W48
 BYTE   W96
// 059   ----------------------------------------
 BYTE   W48
 BYTE   W96
// 060   ----------------------------------------
 BYTE   W48
 BYTE   W96
// 061   ----------------------------------------
 BYTE   W48
 BYTE   W96
// 062   ----------------------------------------
 BYTE   W48
 BYTE   W96
// 063   ----------------------------------------
 BYTE   W48
 BYTE   W96
// 064   ----------------------------------------
 BYTE   W48
 BYTE   W96
// 065   ----------------------------------------
 BYTE   W48
 BYTE   W96
// 066   ----------------------------------------
 BYTE   W48
 BYTE   W96
// 067   ----------------------------------------
 BYTE   W48
 BYTE   W96
// 068   ----------------------------------------
 BYTE   W48
 BYTE   W96
// 069   ----------------------------------------
 BYTE   W48
 BYTE   W96
// 070   ----------------------------------------
 BYTE   W48
 BYTE   W96
// 071   ----------------------------------------
 BYTE   W48
 BYTE   W96
// 072   ----------------------------------------
 BYTE   W48
 BYTE   W96
// 073   ----------------------------------------
 BYTE   W48
 BYTE   W96
// 074   ----------------------------------------
 BYTE   W48
 BYTE   PATT
  POIN2 Label_13_01540095
// 075   ----------------------------------------
 BYTE   W96
// 076   ----------------------------------------
 BYTE   W48
 BYTE   W96
// 077   ----------------------------------------
 BYTE   W48
 BYTE   W96
// 078   ----------------------------------------
 BYTE   W48
 BYTE   PATT
  POIN2 Label_13_01540095
// 079   ----------------------------------------
 BYTE   W96
// 080   ----------------------------------------
 BYTE   W48
 BYTE   W96
// 081   ----------------------------------------
 BYTE   W48
 BYTE   W96
// 082   ----------------------------------------
 BYTE   W48
 BYTE   PATT
  POIN2 Label_13_01540095
// 083   ----------------------------------------
 BYTE   W96
// 084   ----------------------------------------
 BYTE   W48
 BYTE   W96
// 085   ----------------------------------------
 BYTE   W48
 BYTE   W96
// 086   ----------------------------------------
 BYTE   W48
 BYTE   PATT
  POIN2 Label_13_01540095
// 087   ----------------------------------------
 BYTE   W96
// 088   ----------------------------------------
 BYTE   W48
 BYTE   W96
// 089   ----------------------------------------
 BYTE   W48
 BYTE   W96
// 090   ----------------------------------------
 BYTE   W48
 BYTE   W96
// 091   ----------------------------------------
 BYTE   W48
 BYTE   W96
// 092   ----------------------------------------
 BYTE   W48
 BYTE   W96
// 093   ----------------------------------------
 BYTE   W48
 BYTE   W96
// 094   ----------------------------------------
 BYTE   W48
 BYTE   W96
// 095   ----------------------------------------
 BYTE   W48
 BYTE   W96
// 096   ----------------------------------------
 BYTE   W48
 BYTE   W96
// 097   ----------------------------------------
 BYTE   W48
 BYTE   W96
// 098   ----------------------------------------
 BYTE   W48
 BYTE   PATT
  POIN2 Label_13_01540095
// 099   ----------------------------------------
 BYTE   W96
// 100   ----------------------------------------
 BYTE   W48
 BYTE   W96
// 101   ----------------------------------------
 BYTE   W48
 BYTE   W96
// 102   ----------------------------------------
 BYTE   W48
 BYTE   PATT
  POIN2 Label_13_01540095
// 103   ----------------------------------------
 BYTE   W96
// 104   ----------------------------------------
 BYTE   W48
 BYTE   W96
// 105   ----------------------------------------
 BYTE   W48
 BYTE   W96
// 106   ----------------------------------------
 BYTE   W48
 BYTE   PATT
  POIN2 Label_13_01540095
// 107   ----------------------------------------
 BYTE   W96
// 108   ----------------------------------------
 BYTE   W48
 BYTE   W96
// 109   ----------------------------------------
 BYTE   W48
 BYTE   W96
// 110   ----------------------------------------
 BYTE   W48
 BYTE   PATT
  POIN2 Label_13_01540095
// 111   ----------------------------------------
 BYTE   W96
// 112   ----------------------------------------
 BYTE   W48
 BYTE   W96
// 113   ----------------------------------------
 BYTE   W48
 BYTE   W96
// 114   ----------------------------------------
 BYTE   W48
 BYTE   W96
// 115   ----------------------------------------
 BYTE   W48
 BYTE   W96
// 116   ----------------------------------------
 BYTE   W48
 BYTE   W96
// 117   ----------------------------------------
 BYTE   W48
 BYTE   W96
// 118   ----------------------------------------
 BYTE   W48
 BYTE   W96
// 119   ----------------------------------------
 BYTE   W48
 BYTE   W96
// 120   ----------------------------------------
 BYTE   W48
 BYTE   W96
// 121   ----------------------------------------
 BYTE   W48
 BYTE   W96
// 122   ----------------------------------------
 BYTE   W48
 BYTE   W96
// 123   ----------------------------------------
 BYTE   W48
 BYTE   W96
// 124   ----------------------------------------
 BYTE   W48
 BYTE   W96
// 125   ----------------------------------------
 BYTE   W48
 BYTE   W96
// 126   ----------------------------------------
 BYTE   W48
 BYTE   W96
// 127   ----------------------------------------
 BYTE   W48
 BYTE   W96
// 128   ----------------------------------------
 BYTE   W48
 BYTE   W96
// 129   ----------------------------------------
 BYTE   W48
 BYTE   W96
// 130   ----------------------------------------
 BYTE   W48
 BYTE   W96
// 131   ----------------------------------------
 BYTE   W48
 BYTE   W96
// 132   ----------------------------------------
 BYTE   W48
 BYTE   W96
// 133   ----------------------------------------
 BYTE   W48
 BYTE   W96
// 134   ----------------------------------------
 BYTE   W48
 BYTE   W96
// 135   ----------------------------------------
 BYTE   W48
 BYTE   W96
// 136   ----------------------------------------
 BYTE   W48
 BYTE   W96
// 137   ----------------------------------------
 BYTE   W48
 BYTE   W96
// 138   ----------------------------------------
 BYTE   W48
 BYTE   FINE

//**************** Track 15 (Midi-Chn.14) ****************//

FF13DesperateStruggleMycahel_015:
// 000   ----------------------------------------
 BYTE   VOL   73*FF13DesperateStruggleMycahel_mvl/mxv
 BYTE   KEYSH   FF13DesperateStruggleMycahel_key+0
 BYTE   VOICE   127
 BYTE   W96
// 001   ----------------------------------------
 BYTE   W48
 BYTE   W96
// 002   ----------------------------------------
 BYTE   W48
 BYTE   W96
// 003   ----------------------------------------
 BYTE   W48
 BYTE   W96
// 004   ----------------------------------------
 BYTE   W48
 BYTE   W96
// 005   ----------------------------------------
 BYTE   W48
 BYTE   W96
// 006   ----------------------------------------
 BYTE   W48
 BYTE   W96
// 007   ----------------------------------------
 BYTE   W48
 BYTE   W96
// 008   ----------------------------------------
 BYTE   W48
 BYTE   W96
// 009   ----------------------------------------
 BYTE   W48
 BYTE   W96
// 010   ----------------------------------------
 BYTE   W48
 BYTE   W96
// 011   ----------------------------------------
 BYTE   W48
 BYTE   W96
// 012   ----------------------------------------
 BYTE   W48
 BYTE   W96
// 013   ----------------------------------------
 BYTE   W48
 BYTE   W96
// 014   ----------------------------------------
 BYTE   W48
 BYTE   W96
// 015   ----------------------------------------
 BYTE   W48
 BYTE   W96
// 016   ----------------------------------------
 BYTE   W48
 BYTE   W96
// 017   ----------------------------------------
 BYTE   W48
 BYTE   W96
// 018   ----------------------------------------
 BYTE   W48
 BYTE   W96
// 019   ----------------------------------------
 BYTE   W48
 BYTE   W96
// 020   ----------------------------------------
 BYTE   W48
 BYTE   W96
// 021   ----------------------------------------
 BYTE   W48
 BYTE   W96
// 022   ----------------------------------------
 BYTE   W48
Label_14_015401FE:
 BYTE   N05  Dn5  v116
 BYTE   W12
 BYTE   Dn5  v092
 BYTE   W24
 BYTE   Dn5  v100
 BYTE   W12
// 023   ----------------------------------------
 BYTE   N05
 BYTE   W12
 BYTE   N05
 BYTE   W12
 BYTE   Dn5  v116
 BYTE   W16
 BYTE   N05
 BYTE   W20
 BYTE   N04  Dn5  v112
 BYTE   W06
 BYTE   Dn5  v096
 BYTE   W06
 BYTE   N05  Dn5  v116
 BYTE   W12
 BYTE   Dn5  v108
 BYTE   W12
 BYTE   PEND 
// 024   ----------------------------------------
Label_14_01540220:
 BYTE   N05  Dn5  v116
 BYTE   W12
 BYTE   N02  Dn5  v080
 BYTE   W05
 BYTE   N05  Dn5  v116
 BYTE   W19
 BYTE   N04  Dn5  v072
 BYTE   W06
 BYTE   Dn5  v096
 BYTE   W06
 BYTE   N05  Dn5  v116
 BYTE   W12
 BYTE   Dn5  v108
 BYTE   W12
 BYTE   Dn5  v116
 BYTE   W17
 BYTE   N05
 BYTE   W19
// 025   ----------------------------------------
 BYTE   N04  Dn5  v092
 BYTE   W12
 BYTE   N05  Dn5  v116
 BYTE   W12
 BYTE   Dn5  v108
 BYTE   W12
 BYTE   PEND 
Label_14_0154024B:
 BYTE   N06  Dn1  v096
 BYTE   N05  Dn5  v116
 BYTE   W06
 BYTE   N06  Dn1  v080
 BYTE   W06
 BYTE   N05  Dn5  v092
 BYTE   W06
 BYTE   N06  Dn1
 BYTE   W18
 BYTE   Dn1  v096
 BYTE   N05  Dn5  v100
 BYTE   W12
 BYTE   N06  Dn1  v080
 BYTE   N05  Dn5  v100
 BYTE   W12
// 026   ----------------------------------------
 BYTE   N06  Dn1  v084
 BYTE   N05  Dn5  v100
 BYTE   W12
 BYTE   N06  Dn1  v096
 BYTE   N05  Dn5  v116
 BYTE   W06
 BYTE   N06  Dn1  v080
 BYTE   W10
 BYTE   N05  Dn5  v116
 BYTE   W02
 BYTE   N06  Dn1  v092
 BYTE   W18
 BYTE   Dn1  v096
 BYTE   N04  Dn5  v112
 BYTE   W06
 BYTE   Dn5  v096
 BYTE   W06
 BYTE   N06  Dn1  v080
 BYTE   N05  Dn5  v116
 BYTE   W12
 BYTE   N06  Dn1  v084
 BYTE   N05  Dn5  v108
 BYTE   W06
 BYTE   N06  Dn1  v080
 BYTE   W06
 BYTE   PEND 
Label_14_015402A0:
 BYTE   N06  Dn1  v096
 BYTE   N05  Dn5  v116
 BYTE   W06
 BYTE   N06  Dn1  v080
 BYTE   W06
// 027   ----------------------------------------
 BYTE   N02  Dn5
 BYTE   W05
 BYTE   N05  Dn5  v116
 BYTE   W01
 BYTE   N06  Dn1  v092
 BYTE   W18
 BYTE   Dn1  v096
 BYTE   N04  Dn5  v072
 BYTE   W06
 BYTE   Dn5  v096
 BYTE   W06
 BYTE   N06  Dn1  v080
 BYTE   N05  Dn5  v116
 BYTE   W12
 BYTE   N06  Dn1  v084
 BYTE   N05  Dn5  v108
 BYTE   W12
 BYTE   N06  Dn1  v096
 BYTE   N05  Dn5  v116
 BYTE   W06
 BYTE   N06  Dn1  v080
 BYTE   W11
 BYTE   N05  Dn5  v116
 BYTE   W01
 BYTE   N06  Dn1  v092
 BYTE   W18
// 028   ----------------------------------------
 BYTE   Dn1  v096
 BYTE   N04  Dn5  v092
 BYTE   W12
 BYTE   N06  Dn1  v080
 BYTE   N05  Dn5  v116
 BYTE   W12
 BYTE   N06  Dn1  v084
 BYTE   N05  Dn5  v108
 BYTE   W06
 BYTE   N06  Dn1  v080
 BYTE   W06
 BYTE   PEND 
 BYTE   PATT
  POIN2 Label_14_015401FE
 BYTE   PATT
  POIN2 Label_14_01540220
 BYTE   PATT
  POIN2 Label_14_0154024B
 BYTE   PATT
  POIN2 Label_14_015402A0
// 029   ----------------------------------------
 BYTE   W96
// 030   ----------------------------------------
 BYTE   W48
 BYTE   W96
// 031   ----------------------------------------
 BYTE   W48
 BYTE   W96
// 032   ----------------------------------------
 BYTE   W48
 BYTE   W96
// 033   ----------------------------------------
 BYTE   W48
 BYTE   W96
// 034   ----------------------------------------
 BYTE   W48
 BYTE   W96
// 035   ----------------------------------------
 BYTE   W48
 BYTE   W96
// 036   ----------------------------------------
 BYTE   W48
 BYTE   W96
// 037   ----------------------------------------
 BYTE   W48
 BYTE   W96
// 038   ----------------------------------------
 BYTE   W48
 BYTE   W96
// 039   ----------------------------------------
 BYTE   W48
 BYTE   W96
// 040   ----------------------------------------
 BYTE   W48
 BYTE   W96
// 041   ----------------------------------------
 BYTE   W48
 BYTE   W96
// 042   ----------------------------------------
 BYTE   W48
 BYTE   W96
// 043   ----------------------------------------
 BYTE   W48
 BYTE   W96
// 044   ----------------------------------------
 BYTE   W48
 BYTE   W96
// 045   ----------------------------------------
 BYTE   W48
 BYTE   PATT
  POIN2 Label_14_015401FE
 BYTE   PATT
  POIN2 Label_14_01540220
 BYTE   PATT
  POIN2 Label_14_0154024B
 BYTE   PATT
  POIN2 Label_14_015402A0
 BYTE   PATT
  POIN2 Label_14_015401FE
 BYTE   PATT
  POIN2 Label_14_01540220
 BYTE   PATT
  POIN2 Label_14_0154024B
 BYTE   PATT
  POIN2 Label_14_015402A0
// 046   ----------------------------------------
 BYTE   W96
// 047   ----------------------------------------
 BYTE   W48
 BYTE   W96
// 048   ----------------------------------------
 BYTE   W48
 BYTE   PATT
  POIN2 Label_14_015401FE
 BYTE   PATT
  POIN2 Label_14_01540220
// 049   ----------------------------------------
 BYTE   W96
// 050   ----------------------------------------
 BYTE   W48
 BYTE   W96
// 051   ----------------------------------------
 BYTE   W48
 BYTE   PATT
  POIN2 Label_14_015401FE
 BYTE   PATT
  POIN2 Label_14_01540220
// 052   ----------------------------------------
 BYTE   W96
// 053   ----------------------------------------
 BYTE   W48
 BYTE   W96
// 054   ----------------------------------------
 BYTE   W48
 BYTE   PATT
  POIN2 Label_14_0154024B
 BYTE   PATT
  POIN2 Label_14_015402A0
// 055   ----------------------------------------
 BYTE   W96
// 056   ----------------------------------------
 BYTE   W48
 BYTE   W96
// 057   ----------------------------------------
 BYTE   W48
 BYTE   PATT
  POIN2 Label_14_0154024B
 BYTE   PATT
  POIN2 Label_14_015402A0
// 058   ----------------------------------------
 BYTE   W96
// 059   ----------------------------------------
 BYTE   W48
 BYTE   W96
// 060   ----------------------------------------
 BYTE   W48
 BYTE   W96
// 061   ----------------------------------------
 BYTE   W48
 BYTE   W96
// 062   ----------------------------------------
 BYTE   W48
 BYTE   W96
// 063   ----------------------------------------
 BYTE   W48
 BYTE   W96
// 064   ----------------------------------------
 BYTE   W48
 BYTE   W96
// 065   ----------------------------------------
 BYTE   W48
 BYTE   W96
// 066   ----------------------------------------
 BYTE   W48
 BYTE   W96
// 067   ----------------------------------------
 BYTE   W48
 BYTE   W96
// 068   ----------------------------------------
 BYTE   W48
 BYTE   W96
// 069   ----------------------------------------
 BYTE   W48
 BYTE   W96
// 070   ----------------------------------------
 BYTE   W48
 BYTE   W96
// 071   ----------------------------------------
 BYTE   W48
 BYTE   W96
// 072   ----------------------------------------
 BYTE   W48
 BYTE   W96
// 073   ----------------------------------------
 BYTE   W48
 BYTE   W96
// 074   ----------------------------------------
 BYTE   W48
 BYTE   W96
// 075   ----------------------------------------
 BYTE   W48
 BYTE   W96
// 076   ----------------------------------------
 BYTE   W48
 BYTE   PATT
  POIN2 Label_14_015401FE
 BYTE   PATT
  POIN2 Label_14_01540220
 BYTE   PATT
  POIN2 Label_14_0154024B
 BYTE   PATT
  POIN2 Label_14_015402A0
 BYTE   PATT
  POIN2 Label_14_015401FE
 BYTE   PATT
  POIN2 Label_14_01540220
 BYTE   PATT
  POIN2 Label_14_0154024B
 BYTE   PATT
  POIN2 Label_14_015402A0
// 077   ----------------------------------------
 BYTE   W96
// 078   ----------------------------------------
 BYTE   W48
 BYTE   W96
// 079   ----------------------------------------
 BYTE   W48
 BYTE   W96
// 080   ----------------------------------------
 BYTE   W48
 BYTE   W96
// 081   ----------------------------------------
 BYTE   W48
 BYTE   W96
// 082   ----------------------------------------
 BYTE   W48
 BYTE   W96
// 083   ----------------------------------------
 BYTE   W48
 BYTE   W96
// 084   ----------------------------------------
 BYTE   W48
 BYTE   W96
// 085   ----------------------------------------
 BYTE   W48
 BYTE   W96
// 086   ----------------------------------------
 BYTE   W48
 BYTE   W96
// 087   ----------------------------------------
 BYTE   W48
 BYTE   W96
// 088   ----------------------------------------
 BYTE   W48
 BYTE   W96
// 089   ----------------------------------------
 BYTE   W48
 BYTE   W96
// 090   ----------------------------------------
 BYTE   W48
 BYTE   W96
// 091   ----------------------------------------
 BYTE   W48
 BYTE   W96
// 092   ----------------------------------------
 BYTE   W48
 BYTE   W96
// 093   ----------------------------------------
 BYTE   W48
 BYTE   PATT
  POIN2 Label_14_015401FE
 BYTE   PATT
  POIN2 Label_14_01540220
 BYTE   PATT
  POIN2 Label_14_0154024B
 BYTE   PATT
  POIN2 Label_14_015402A0
 BYTE   PATT
  POIN2 Label_14_015401FE
 BYTE   PATT
  POIN2 Label_14_01540220
 BYTE   PATT
  POIN2 Label_14_0154024B
 BYTE   PATT
  POIN2 Label_14_015402A0
// 094   ----------------------------------------
 BYTE   W96
// 095   ----------------------------------------
 BYTE   W48
 BYTE   W96
// 096   ----------------------------------------
 BYTE   W48
 BYTE   PATT
  POIN2 Label_14_015401FE
 BYTE   PATT
  POIN2 Label_14_01540220
// 097   ----------------------------------------
 BYTE   W96
// 098   ----------------------------------------
 BYTE   W48
 BYTE   W96
// 099   ----------------------------------------
 BYTE   W48
 BYTE   PATT
  POIN2 Label_14_015401FE
 BYTE   PATT
  POIN2 Label_14_01540220
// 100   ----------------------------------------
 BYTE   W96
// 101   ----------------------------------------
 BYTE   W48
 BYTE   W96
// 102   ----------------------------------------
 BYTE   W48
 BYTE   PATT
  POIN2 Label_14_0154024B
 BYTE   PATT
  POIN2 Label_14_015402A0
// 103   ----------------------------------------
 BYTE   W96
// 104   ----------------------------------------
 BYTE   W48
 BYTE   W96
// 105   ----------------------------------------
 BYTE   W48
 BYTE   PATT
  POIN2 Label_14_0154024B
 BYTE   PATT
  POIN2 Label_14_015402A0
// 106   ----------------------------------------
 BYTE   W96
// 107   ----------------------------------------
 BYTE   W48
 BYTE   W96
// 108   ----------------------------------------
 BYTE   W48
 BYTE   FINE

//******************************************************//
	ALIGN 4

FF13DesperateStruggleMycahel:
	BYTE	15	// NumTrks
	BYTE	0	// NumBlks
	BYTE	FF13DesperateStruggleMycahel_pri	// Priority
	BYTE	FF13DesperateStruggleMycahel_rev	// Reverb.
    
	POIN2	FF13DesperateStruggleMycahel_grp
    
	POIN2	FF13DesperateStruggleMycahel_001
	POIN2	FF13DesperateStruggleMycahel_002
	POIN2	FF13DesperateStruggleMycahel_003
	POIN2	FF13DesperateStruggleMycahel_004
	POIN2	FF13DesperateStruggleMycahel_005
	POIN2	FF13DesperateStruggleMycahel_006
	POIN2	FF13DesperateStruggleMycahel_007
	POIN2	FF13DesperateStruggleMycahel_008
	POIN2	FF13DesperateStruggleMycahel_009
	POIN2	FF13DesperateStruggleMycahel_010
	POIN2	FF13DesperateStruggleMycahel_011
	POIN2	FF13DesperateStruggleMycahel_012
	POIN2	FF13DesperateStruggleMycahel_013
	POIN2	FF13DesperateStruggleMycahel_014
	POIN2	FF13DesperateStruggleMycahel_015

	
