//Event file generated from Sappy .s format.
	#include "MPlayDef.event"

	#define	FF3CloudofDarknessRSflame_grp  voicegroup000
	#define	FF3CloudofDarknessRSflame_pri  10
	#define	FF3CloudofDarknessRSflame_rev  0
	#define	FF3CloudofDarknessRSflame_mvl  127
	#define	FF3CloudofDarknessRSflame_key  0
	#define	FF3CloudofDarknessRSflame_tbs  1
	#define	FF3CloudofDarknessRSflame_exg  0
	#define	FF3CloudofDarknessRSflame_cmp  1

	// .rodata
	//	FF3CloudofDarknessRSflame
	ALIGN 4


//**************** Track 1 (Midi-Chn.0) ****************//

FF3CloudofDarknessRSflame_001:
// 000   ----------------------------------------
Label_0_01014DF4:
 BYTE   KEYSH   FF3CloudofDarknessRSflame_key+0
 BYTE   VOICE   81
 BYTE   VOL   52*FF3CloudofDarknessRSflame_mvl/mxv
 BYTE   PAN   c_v-30
 BYTE   PAN   c_v+30
 BYTE   TEMPO   162*FF3CloudofDarknessRSflame_tbs/2
 BYTE   W96
// 001   ----------------------------------------
 BYTE   W96
// 002   ----------------------------------------
 BYTE   W96
// 003   ----------------------------------------
 BYTE   W96
// 004   ----------------------------------------
 BYTE   W96
// 005   ----------------------------------------
 BYTE   W96
// 006   ----------------------------------------
 BYTE   W96
// 007   ----------------------------------------
 BYTE   W60
 BYTE   W36
// 008   ----------------------------------------
 BYTE   N03  Bn3  v100
 BYTE   N03  Bn2  v120
 BYTE   W03
 BYTE   N10  Cn4  v100
 BYTE   N10  Cn3  v120
 BYTE   W09
 BYTE   N12  Gs3  v100
 BYTE   N12  Gs2  v120
 BYTE   W12
 BYTE   An3  v100
 BYTE   N12  An2  v120
 BYTE   W12
 BYTE   Cn4  v100
 BYTE   N12  Cn3  v120
 BYTE   W12
 BYTE   En4  v100
 BYTE   N12  En3  v120
 BYTE   W12
 BYTE   Gn4  v100
 BYTE   N12  Gn3  v120
 BYTE   W12
 BYTE   N03  Fs4  v100
 BYTE   N03  Fs3  v120
 BYTE   W03
 BYTE   Gn4  v100
 BYTE   N03  Gn3  v120
 BYTE   W03
 BYTE   N06  Fs4  v100
 BYTE   N06  Fs3  v120
 BYTE   W06
 BYTE   N12  Dn4  v100
 BYTE   N12  Dn3  v120
 BYTE   W12
// 009   ----------------------------------------
 BYTE   N03  Gn4  v100
 BYTE   N03  Gn3  v120
 BYTE   W03
 BYTE   N10  Fn4  v100
 BYTE   N10  Fn3  v120
 BYTE   W09
 BYTE   N12  En4  v100
 BYTE   N12  En3  v120
 BYTE   W12
 BYTE   Ds4  v100
 BYTE   N12  Ds3  v120
 BYTE   W12
 BYTE   N60  En4  v100
 BYTE   N60  En3  v120
 BYTE   W60
// 010   ----------------------------------------
 BYTE   N03  Bn3  v100
 BYTE   N03  Bn2  v120
 BYTE   W03
 BYTE   N10  Cn4  v100
 BYTE   N10  Cn3  v120
 BYTE   W09
 BYTE   N12  Gs3  v100
 BYTE   N12  Gs2  v120
 BYTE   W12
 BYTE   An3  v100
 BYTE   N12  An2  v120
 BYTE   W12
 BYTE   Cn4  v100
 BYTE   N12  Cn3  v120
 BYTE   W12
 BYTE   En4  v100
 BYTE   N12  En3  v120
 BYTE   W12
 BYTE   Gn4  v100
 BYTE   N12  Gn3  v120
 BYTE   W12
 BYTE   N03  Fs4  v100
 BYTE   N03  Fs3  v120
 BYTE   W03
 BYTE   Gn4  v100
 BYTE   N03  Gn3  v120
 BYTE   W03
 BYTE   N06  Fs4  v100
 BYTE   N06  Fs3  v120
 BYTE   W06
 BYTE   N12  Dn4  v100
 BYTE   N12  Dn3  v120
 BYTE   W12
// 011   ----------------------------------------
 BYTE   N03  Gn4  v100
 BYTE   N03  Gn3  v120
 BYTE   W03
 BYTE   N10  Fn4  v100
 BYTE   N10  Fn3  v120
 BYTE   W09
 BYTE   N12  En4  v100
 BYTE   N12  En3  v120
 BYTE   W12
 BYTE   Ds4  v100
 BYTE   N12  Ds3  v120
 BYTE   W12
 BYTE   N60  En4  v100
 BYTE   N60  En3  v120
 BYTE   W60
// 012   ----------------------------------------
Label_0_01014EDD:
 BYTE   N03  Gs4  v100
 BYTE   N03  Gs3  v120
 BYTE   W03
 BYTE   N10  An4  v100
 BYTE   N10  An3  v120
 BYTE   W09
 BYTE   N12  En4  v100
 BYTE   N12  En3  v120
 BYTE   W12
 BYTE   Fn4  v100
 BYTE   N12  Fn3  v120
 BYTE   W12
 BYTE   An4  v100
 BYTE   N12  An3  v120
 BYTE   W12
 BYTE   N03  Bn4  v100
 BYTE   N03  Bn3  v120
 BYTE   W03
 BYTE   N09  Cn5  v100
 BYTE   N09  Cn4  v120
 BYTE   W09
 BYTE   N24  Bn4  v100
 BYTE   N24  Bn3  v120
 BYTE   W24
 BYTE   N12  Gs4  v100
 BYTE   N12  Gs3  v120
 BYTE   W12
 BYTE   PEND 
// 013   ----------------------------------------
 BYTE   N12  As4  v100
 BYTE   N12  As3  v120
 BYTE   W12
 BYTE   N03  An4  v100
 BYTE   N03  An3  v120
 BYTE   W03
 BYTE   As4  v100
 BYTE   N03  As3  v120
 BYTE   W03
 BYTE   N06  An4  v100
 BYTE   N06  An3  v120
 BYTE   W06
 BYTE   N12  Gs4  v100
 BYTE   N12  Gs3  v120
 BYTE   W12
 BYTE   N60  An4  v100
 BYTE   N60  An3  v120
 BYTE   W60
// 014   ----------------------------------------
 BYTE   PATT
  POIN2 Label_0_01014EDD
// 015   ----------------------------------------
 BYTE   N12  As4  v100
 BYTE   N12  As3  v120
 BYTE   W12
 BYTE   N03  An4  v100
 BYTE   N03  An3  v120
 BYTE   W03
 BYTE   As4  v100
 BYTE   N03  As3  v120
 BYTE   W03
 BYTE   N06  An4  v100
 BYTE   N06  An3  v120
 BYTE   W06
 BYTE   N12  Gs4  v100
 BYTE   N12  Gs3  v120
 BYTE   W12
 BYTE   N60  An4  v100
 BYTE   N60  An3  v120
 BYTE   W12
 BYTE   W48
// 016   ----------------------------------------
 BYTE   W01
 BYTE   W92
 BYTE   W02
 BYTE   W96
// 017   ----------------------------------------
 BYTE   W96
// 018   ----------------------------------------
 BYTE   W96
// 019   ----------------------------------------
 BYTE   W96
// 020   ----------------------------------------
 BYTE   W96
// 021   ----------------------------------------
 BYTE   W96
// 022   ----------------------------------------
 BYTE   W90
 BYTE   GoTo
  POIN2 Label_0_01014DF4
 BYTE   FINE

//**************** Track 2 (Midi-Chn.1) ****************//

FF3CloudofDarknessRSflame_002:
// 000   ----------------------------------------
Label_1_550288:
 BYTE   KEYSH   FF3CloudofDarknessRSflame_key+0
 BYTE   VOICE   81
 BYTE   VOL   63*FF3CloudofDarknessRSflame_mvl/mxv
 BYTE   PAN   c_v+0
 BYTE   N48  An2  v120
 BYTE   TEMPO   162*FF3CloudofDarknessRSflame_tbs/2
 BYTE   W48
 BYTE   N48  Cn3  v120
 BYTE   W48
// 001   ----------------------------------------
 BYTE   Bn2
 BYTE   W48
 BYTE   Dn3
 BYTE   W48
// 002   ----------------------------------------
 BYTE   Cn3
 BYTE   W48
 BYTE   En3
 BYTE   W48
// 003   ----------------------------------------
 BYTE   Dn3
 BYTE   W48
 BYTE   Fn3
 BYTE   W48
// 004   ----------------------------------------
 BYTE   An2
 BYTE   W48
 BYTE   Cn3
 BYTE   W48
// 005   ----------------------------------------
 BYTE   Bn2
 BYTE   W48
 BYTE   N44  Dn3
 BYTE   W22
 BYTE   N03
 BYTE   W24
 BYTE   W02
// 006   ----------------------------------------
 BYTE   N24  Cn3
 BYTE   W24
 BYTE   En3
 BYTE   W24
 BYTE   Dn3
 BYTE   W24
 BYTE   Fn3
 BYTE   W24
// 007   ----------------------------------------
 BYTE   N23  En3
 BYTE   W24
 BYTE   N24  An3
 BYTE   W24
 BYTE   N23  Gs3
 BYTE   W12
 BYTE   W12
 BYTE   N24  Bn3  v120
 BYTE   W24
// 008   ----------------------------------------
 BYTE   N12  An1  v100
 BYTE   W36
 BYTE   N24  An1  v100
 BYTE   W24
 BYTE   N12  Cn2
 BYTE   W12
 BYTE   Dn2
 BYTE   W12
 BYTE   En2
 BYTE   W12
// 009   ----------------------------------------
Label_1_5502D8:
 BYTE   N12  An1  v100
 BYTE   W36
 BYTE   N24
 BYTE   W24
 BYTE   N12  Cn2
 BYTE   W12
 BYTE   Dn2
 BYTE   W12
 BYTE   En2
 BYTE   W12
 BYTE   PEND 
// 010   ----------------------------------------
 BYTE   PATT
  POIN2 Label_1_5502D8
// 011   ----------------------------------------
 BYTE   PATT
  POIN2 Label_1_5502D8
// 012   ----------------------------------------
Label_1_5502F0:
 BYTE   N12  Dn2  v100
 BYTE   W36
 BYTE   N24
 BYTE   W24
 BYTE   N12  An1
 BYTE   W12
 BYTE   Bn1
 BYTE   W12
 BYTE   Cs2
 BYTE   W12
 BYTE   PEND 
// 013   ----------------------------------------
 BYTE   PATT
  POIN2 Label_1_5502F0
// 014   ----------------------------------------
 BYTE   PATT
  POIN2 Label_1_5502F0
// 015   ----------------------------------------
 BYTE   N12  Dn2  v100
 BYTE   W36
 BYTE   N24
 BYTE   W12
 BYTE   W12
 BYTE   N12  An1  v100
 BYTE   W12
 BYTE   Bn1
 BYTE   W12
 BYTE   Cs2
 BYTE   W12
// 016   ----------------------------------------
 BYTE   W01
 BYTE   W92
 BYTE   W02
 BYTE   W96
// 017   ----------------------------------------
 BYTE   W96
// 018   ----------------------------------------
 BYTE   W96
// 019   ----------------------------------------
 BYTE   W96
// 020   ----------------------------------------
 BYTE   W96
// 021   ----------------------------------------
 BYTE   W96
// 022   ----------------------------------------
 BYTE   W90
 BYTE   GoTo
  POIN2 Label_1_550288
 BYTE   FINE

//**************** Track 3 (Midi-Chn.2) ****************//

FF3CloudofDarknessRSflame_003:
// 000   ----------------------------------------
Label_2_54F890:
 BYTE   KEYSH   FF3CloudofDarknessRSflame_key+0
 BYTE   VOICE   81
 BYTE   VOL   45*FF3CloudofDarknessRSflame_mvl/mxv
 BYTE   VOL   20*FF3CloudofDarknessRSflame_mvl/mxv
 BYTE   PAN   c_v-64
 BYTE   PAN   c_v+61
 BYTE   N02  An2  v101
 BYTE   TEMPO   162*FF3CloudofDarknessRSflame_tbs/2
 BYTE   W02
 BYTE   N02  En2  v101
 BYTE   W02
 BYTE   An1
 BYTE   W02
 BYTE   An2
 BYTE   W02
 BYTE   En2
 BYTE   W02
 BYTE   An1
 BYTE   W02
 BYTE   An2
 BYTE   W02
 BYTE   En2
 BYTE   W02
 BYTE   An1
 BYTE   W02
 BYTE   An2
 BYTE   W02
 BYTE   En2
 BYTE   W02
 BYTE   An1
 BYTE   W02
 BYTE   An2
 BYTE   W02
 BYTE   En2
 BYTE   W02
 BYTE   An1
 BYTE   W02
 BYTE   An2
 BYTE   W02
 BYTE   En2
 BYTE   W02
 BYTE   An1
 BYTE   W02
 BYTE   An2
 BYTE   W02
 BYTE   En2
 BYTE   W02
 BYTE   An1
 BYTE   W02
 BYTE   An2
 BYTE   W02
 BYTE   En2
 BYTE   W02
 BYTE   An1
 BYTE   W02
 BYTE   Cn3
 BYTE   W02
 BYTE   Gn2
 BYTE   W02
 BYTE   Cn2
 BYTE   W02
 BYTE   Cn3
 BYTE   W02
 BYTE   Gn2
 BYTE   W02
 BYTE   Cn2
 BYTE   W02
 BYTE   Cn3
 BYTE   W02
 BYTE   Gn2
 BYTE   W02
 BYTE   Cn2
 BYTE   W02
 BYTE   Cn3
 BYTE   W02
 BYTE   Gn2
 BYTE   W02
 BYTE   Cn2
 BYTE   W02
 BYTE   Cn3
 BYTE   W02
 BYTE   Gn2
 BYTE   W02
 BYTE   Cn2
 BYTE   W02
 BYTE   Cn3
 BYTE   W02
 BYTE   Gn2
 BYTE   W02
 BYTE   Cn2
 BYTE   W02
 BYTE   Cn3
 BYTE   W02
 BYTE   Gn2
 BYTE   W02
 BYTE   Cn2
 BYTE   W02
 BYTE   Cn3
 BYTE   W02
 BYTE   Gn2
 BYTE   W02
 BYTE   Cn2
 BYTE   W02
// 001   ----------------------------------------
Label_2_54F902:
 BYTE   N02  Bn2  v101
 BYTE   W02
 BYTE   Fs2
 BYTE   W02
 BYTE   Bn1
 BYTE   W02
 BYTE   Bn2
 BYTE   W02
 BYTE   Fs2
 BYTE   W02
 BYTE   Bn1
 BYTE   W02
 BYTE   Bn2
 BYTE   W02
 BYTE   Fs2
 BYTE   W02
 BYTE   Bn1
 BYTE   W02
 BYTE   Bn2
 BYTE   W02
 BYTE   Fs2
 BYTE   W02
 BYTE   Bn1
 BYTE   W02
 BYTE   Bn2
 BYTE   W02
 BYTE   Fs2
 BYTE   W02
 BYTE   Bn1
 BYTE   W02
 BYTE   Bn2
 BYTE   W02
 BYTE   Fs2
 BYTE   W02
 BYTE   Bn1
 BYTE   W02
 BYTE   Bn2
 BYTE   W02
 BYTE   Fs2
 BYTE   W02
 BYTE   Bn1
 BYTE   W02
 BYTE   Bn2
 BYTE   W02
 BYTE   Fs2
 BYTE   W02
 BYTE   Bn1
 BYTE   W02
 BYTE   Dn3
 BYTE   W02
 BYTE   An2
 BYTE   W02
 BYTE   Dn2
 BYTE   W02
 BYTE   Dn3
 BYTE   W02
 BYTE   An2
 BYTE   W02
 BYTE   Dn2
 BYTE   W02
 BYTE   Dn3
 BYTE   W02
 BYTE   An2
 BYTE   W02
 BYTE   Dn2
 BYTE   W02
 BYTE   Dn3
 BYTE   W02
 BYTE   An2
 BYTE   W02
 BYTE   Dn2
 BYTE   W02
 BYTE   Dn3
 BYTE   W02
 BYTE   An2
 BYTE   W01
 BYTE   Dn2
 BYTE   W02
 BYTE   Dn3
 BYTE   W02
 BYTE   An2
 BYTE   W02
 BYTE   Dn2
 BYTE   W02
 BYTE   Dn3
 BYTE   W02
 BYTE   An2
 BYTE   W02
 BYTE   Dn2
 BYTE   W02
 BYTE   Dn3
 BYTE   W02
 BYTE   An2
 BYTE   W02
 BYTE   Dn2
 BYTE   W02
 BYTE   PEND 
 BYTE   N02  Cn3  v101
 BYTE   W02
// 002   ----------------------------------------
 BYTE   Gn2
 BYTE   W02
 BYTE   Cn2
 BYTE   W02
 BYTE   Cn3
 BYTE   W02
 BYTE   Gn2
 BYTE   W02
 BYTE   Cn2
 BYTE   W02
 BYTE   Cn3
 BYTE   W02
 BYTE   Gn2
 BYTE   W02
 BYTE   Cn2
 BYTE   W02
 BYTE   Cn3
 BYTE   W02
 BYTE   Gn2
 BYTE   W02
 BYTE   Cn2
 BYTE   W02
 BYTE   Cn3
 BYTE   W02
 BYTE   Gn2
 BYTE   W02
 BYTE   Cn2
 BYTE   W02
 BYTE   Cn3
 BYTE   W02
 BYTE   Gn2
 BYTE   W02
 BYTE   Cn2
 BYTE   W02
 BYTE   Cn3
 BYTE   W02
 BYTE   Gn2
 BYTE   W02
 BYTE   Cn2
 BYTE   W02
 BYTE   Cn3
 BYTE   W02
 BYTE   Gn2
 BYTE   W02
 BYTE   Cn2
 BYTE   W02
 BYTE   En3
 BYTE   W02
 BYTE   Bn2
 BYTE   W02
 BYTE   En2
 BYTE   W02
 BYTE   En3
 BYTE   W02
 BYTE   Bn2
 BYTE   W02
 BYTE   En2
 BYTE   W02
 BYTE   En3
 BYTE   W02
 BYTE   Bn2
 BYTE   W02
 BYTE   En2
 BYTE   W02
 BYTE   En3
 BYTE   W02
 BYTE   Bn2
 BYTE   W02
 BYTE   En2
 BYTE   W02
 BYTE   En3
 BYTE   W02
 BYTE   Bn2
 BYTE   W02
 BYTE   En2
 BYTE   W02
 BYTE   En3
 BYTE   W02
 BYTE   Bn2
 BYTE   W02
 BYTE   En2
 BYTE   W02
 BYTE   En3
 BYTE   W02
 BYTE   Bn2
 BYTE   W02
 BYTE   En2
 BYTE   W02
 BYTE   En3
 BYTE   W02
 BYTE   Bn2
 BYTE   W02
 BYTE   En2
 BYTE   W02
 BYTE   Dn3
 BYTE   W02
// 003   ----------------------------------------
 BYTE   An2
 BYTE   W02
 BYTE   Dn2
 BYTE   W02
 BYTE   Dn3
 BYTE   W02
 BYTE   An2
 BYTE   W02
 BYTE   Dn2
 BYTE   W02
 BYTE   Dn3
 BYTE   W02
 BYTE   An2
 BYTE   W02
 BYTE   Dn2
 BYTE   W02
 BYTE   Dn3
 BYTE   W02
 BYTE   An2
 BYTE   W02
 BYTE   Dn2
 BYTE   W02
 BYTE   Dn3
 BYTE   W02
 BYTE   An2
 BYTE   W02
 BYTE   Dn2
 BYTE   W02
 BYTE   Dn3
 BYTE   W02
 BYTE   An2
 BYTE   W02
 BYTE   Dn2
 BYTE   W02
 BYTE   Dn3
 BYTE   W02
 BYTE   An2
 BYTE   W02
 BYTE   Dn2
 BYTE   W02
 BYTE   Dn3
 BYTE   W02
 BYTE   An2
 BYTE   W02
 BYTE   Dn2
 BYTE   W02
 BYTE   Fn3
 BYTE   W02
 BYTE   Cn3
 BYTE   W02
 BYTE   Fn2
 BYTE   W02
 BYTE   Fn3
 BYTE   W02
 BYTE   Cn3
 BYTE   W02
 BYTE   Fn2
 BYTE   W02
 BYTE   Fn3
 BYTE   W02
 BYTE   Cn3
 BYTE   W02
 BYTE   Fn2
 BYTE   W02
 BYTE   Fn3
 BYTE   W02
 BYTE   Cn3
 BYTE   W02
 BYTE   Fn2
 BYTE   W02
 BYTE   Fn3
 BYTE   W02
 BYTE   Cn3
 BYTE   W02
 BYTE   Fn2
 BYTE   W02
 BYTE   Fn3
 BYTE   W02
 BYTE   Cn3
 BYTE   W02
 BYTE   Fn2
 BYTE   W02
 BYTE   Fn3
 BYTE   W02
 BYTE   Cn3
 BYTE   W02
 BYTE   Fn2
 BYTE   W02
 BYTE   Fn3
 BYTE   W02
 BYTE   Cn3
 BYTE   W02
 BYTE   Fn2
 BYTE   W02
 BYTE   An2
 BYTE   W02
// 004   ----------------------------------------
 BYTE   En2
 BYTE   W02
 BYTE   An1
 BYTE   W02
 BYTE   An2
 BYTE   W02
 BYTE   En2
 BYTE   W02
 BYTE   An1
 BYTE   W02
 BYTE   An2
 BYTE   W02
 BYTE   En2
 BYTE   W02
 BYTE   An1
 BYTE   W02
 BYTE   An2
 BYTE   W02
 BYTE   En2
 BYTE   W02
 BYTE   An1
 BYTE   W02
 BYTE   An2
 BYTE   W02
 BYTE   En2
 BYTE   W02
 BYTE   An1
 BYTE   W02
 BYTE   An2
 BYTE   W02
 BYTE   En2
 BYTE   W02
 BYTE   An1
 BYTE   W02
 BYTE   An2
 BYTE   W02
 BYTE   En2
 BYTE   W02
 BYTE   An1
 BYTE   W02
 BYTE   An2
 BYTE   W02
 BYTE   En2
 BYTE   W02
 BYTE   An1
 BYTE   W02
 BYTE   Cn3
 BYTE   W02
 BYTE   Gn2
 BYTE   W02
 BYTE   Cn2
 BYTE   W02
 BYTE   Cn3
 BYTE   W02
 BYTE   Gn2
 BYTE   W02
 BYTE   Cn2
 BYTE   W02
 BYTE   Cn3
 BYTE   W02
 BYTE   Gn2
 BYTE   W02
 BYTE   Cn2
 BYTE   W02
 BYTE   Cn3
 BYTE   W02
 BYTE   Gn2
 BYTE   W02
 BYTE   Cn2
 BYTE   W02
 BYTE   Cn3
 BYTE   W02
 BYTE   Gn2
 BYTE   W02
 BYTE   Cn2
 BYTE   W02
 BYTE   Cn3
 BYTE   W02
 BYTE   Gn2
 BYTE   W02
 BYTE   Cn2
 BYTE   W02
 BYTE   Cn3
 BYTE   W02
 BYTE   Gn2
 BYTE   W02
 BYTE   Cn2
 BYTE   W02
 BYTE   Cn3
 BYTE   W02
 BYTE   Gn2
 BYTE   W02
 BYTE   Cn2
 BYTE   W02
// 005   ----------------------------------------
 BYTE   PATT
  POIN2 Label_2_54F902
// 006   ----------------------------------------
 BYTE   N02  Cn3  v101
 BYTE   W02
 BYTE   Gn2
 BYTE   W02
 BYTE   Cn2
 BYTE   W02
 BYTE   Cn3
 BYTE   W02
 BYTE   Gn2
 BYTE   W02
 BYTE   Cn2
 BYTE   W02
 BYTE   Cn3
 BYTE   W02
 BYTE   Gn2
 BYTE   W02
 BYTE   Cn2
 BYTE   W02
 BYTE   Cn3
 BYTE   W02
 BYTE   Gn2
 BYTE   W02
 BYTE   Cn2
 BYTE   W02
 BYTE   En3
 BYTE   W02
 BYTE   Bn2
 BYTE   W02
 BYTE   En2
 BYTE   W02
 BYTE   En3
 BYTE   W02
 BYTE   Bn2
 BYTE   W02
 BYTE   En2
 BYTE   W02
 BYTE   En3
 BYTE   W02
 BYTE   Bn2
 BYTE   W02
 BYTE   En2
 BYTE   W02
 BYTE   En3
 BYTE   W02
 BYTE   Bn2
 BYTE   W02
 BYTE   En2
 BYTE   W02
 BYTE   Dn3
 BYTE   W02
 BYTE   An2
 BYTE   W02
 BYTE   Dn2
 BYTE   W02
 BYTE   Dn3
 BYTE   W02
 BYTE   An2
 BYTE   W02
 BYTE   Dn2
 BYTE   W02
 BYTE   Dn3
 BYTE   W02
 BYTE   An2
 BYTE   W02
 BYTE   Dn2
 BYTE   W02
 BYTE   Dn3
 BYTE   W02
 BYTE   An2
 BYTE   W02
 BYTE   Dn2
 BYTE   W02
 BYTE   Fn3
 BYTE   W02
 BYTE   Cn3
 BYTE   W02
 BYTE   Fn2
 BYTE   W02
 BYTE   Fn3
 BYTE   W02
 BYTE   Cn3
 BYTE   W02
 BYTE   Fn2
 BYTE   W02
 BYTE   Fn3
 BYTE   W02
 BYTE   Cn3
 BYTE   W02
 BYTE   Fn2
 BYTE   W02
 BYTE   Fn3
 BYTE   W02
 BYTE   Cn3
 BYTE   W02
 BYTE   Fn2
 BYTE   W02
// 007   ----------------------------------------
 BYTE   En3
 BYTE   W02
 BYTE   Bn2
 BYTE   W02
 BYTE   En2
 BYTE   W02
 BYTE   En3
 BYTE   W02
 BYTE   Bn2
 BYTE   W02
 BYTE   En2
 BYTE   W02
 BYTE   En3
 BYTE   W02
 BYTE   Bn2
 BYTE   W02
 BYTE   En2
 BYTE   W02
 BYTE   En3
 BYTE   W02
 BYTE   Bn2
 BYTE   W02
 BYTE   En2
 BYTE   W02
 BYTE   An3
 BYTE   W02
 BYTE   En3
 BYTE   W02
 BYTE   An2
 BYTE   W02
 BYTE   An3
 BYTE   W02
 BYTE   En3
 BYTE   W02
 BYTE   An2
 BYTE   W02
 BYTE   An3
 BYTE   W02
 BYTE   En3
 BYTE   W02
 BYTE   An2
 BYTE   W02
 BYTE   An3
 BYTE   W02
 BYTE   En3
 BYTE   W02
 BYTE   An2
 BYTE   W02
 BYTE   Gs3
 BYTE   W02
 BYTE   Ds3
 BYTE   W02
 BYTE   Gs2
 BYTE   W02
 BYTE   Gs3
 BYTE   W02
 BYTE   Ds3
 BYTE   W02
 BYTE   Gs2
 BYTE   W02
 BYTE   Gs3
 BYTE   W02
 BYTE   N02  Ds3  v101
 BYTE   W02
 BYTE   Gs2
 BYTE   W02
 BYTE   Gs3
 BYTE   W02
 BYTE   Ds3
 BYTE   W02
 BYTE   Gs2
 BYTE   W02
 BYTE   Bn3
 BYTE   W02
 BYTE   Fs3
 BYTE   W02
 BYTE   Bn2
 BYTE   W02
 BYTE   Bn3
 BYTE   W02
 BYTE   Fs3
 BYTE   W02
 BYTE   Bn2
 BYTE   W02
 BYTE   Bn3
 BYTE   W02
 BYTE   Fs3
 BYTE   W02
 BYTE   Bn2
 BYTE   W02
 BYTE   Bn3
 BYTE   W02
 BYTE   Fs3
 BYTE   W02
 BYTE   Bn2
 BYTE   W02
// 008   ----------------------------------------
 BYTE   W96
// 009   ----------------------------------------
 BYTE   W96
// 010   ----------------------------------------
 BYTE   W96
// 011   ----------------------------------------
 BYTE   W96
// 012   ----------------------------------------
 BYTE   W96
// 013   ----------------------------------------
 BYTE   W96
// 014   ----------------------------------------
 BYTE   W96
// 015   ----------------------------------------
 BYTE   W48
 BYTE   W48
// 016   ----------------------------------------
 BYTE   W01
 BYTE   W92
 BYTE   W02
 BYTE   W96
// 017   ----------------------------------------
 BYTE   W96
// 018   ----------------------------------------
 BYTE   W96
// 019   ----------------------------------------
 BYTE   W96
// 020   ----------------------------------------
 BYTE   W96
// 021   ----------------------------------------
 BYTE   W96
// 022   ----------------------------------------
 BYTE   W90
 BYTE   GoTo
  POIN2 Label_2_54F890
 BYTE   FINE

//**************** Track 4 (Midi-Chn.3) ****************//

FF3CloudofDarknessRSflame_004:
// 000   ----------------------------------------
Label_3_550380:
 BYTE   KEYSH   FF3CloudofDarknessRSflame_key+0
 BYTE   VOICE   81
 BYTE   VOL   40*FF3CloudofDarknessRSflame_mvl/mxv
 BYTE   PAN   c_v+0
 BYTE   TEMPO   162*FF3CloudofDarknessRSflame_tbs/2
 BYTE   W96
// 001   ----------------------------------------
 BYTE   W96
// 002   ----------------------------------------
 BYTE   W96
// 003   ----------------------------------------
 BYTE   W96
// 004   ----------------------------------------
 BYTE   W96
// 005   ----------------------------------------
 BYTE   W96
// 006   ----------------------------------------
 BYTE   W96
// 007   ----------------------------------------
 BYTE   N06  Bn2  v127
 BYTE   N06  Bn1
 BYTE   W06
 BYTE   Cn3
 BYTE   N06  Cn2
 BYTE   W06
 BYTE   Dn3
 BYTE   N06  Dn2
 BYTE   W06
 BYTE   En3
 BYTE   N06  En2
 BYTE   W06
 BYTE   Cn3
 BYTE   N06  Cn2
 BYTE   W06
 BYTE   Dn3
 BYTE   N06  Dn2
 BYTE   W06
 BYTE   En3
 BYTE   N06  En2
 BYTE   W06
 BYTE   Fn3
 BYTE   N06  Fn2
 BYTE   W06
 BYTE   Dn3
 BYTE   N06  Dn2
 BYTE   W06
 BYTE   En3
 BYTE   N06  En2
 BYTE   W06
 BYTE   Fn3
 BYTE   N06  Fn2
 BYTE   W06
 BYTE   N06  Gs3  v127
 BYTE   N06  Gs2
 BYTE   W06
 BYTE   En3
 BYTE   N06  En2
 BYTE   W06
 BYTE   Fs3
 BYTE   N06  Fs2
 BYTE   W06
 BYTE   Gs3
 BYTE   N06  Gs2
 BYTE   W06
 BYTE   Bn3
 BYTE   N06  Bn2
 BYTE   W06
// 008   ----------------------------------------
 BYTE   En2
 BYTE   W06
 BYTE   N06  Bn1  v127
 BYTE   W06
 BYTE   Cn2
 BYTE   W06
 BYTE   Bn1
 BYTE   W06
 BYTE   Cn2
 BYTE   W06
 BYTE   Bn1
 BYTE   W06
 BYTE   Cn2
 BYTE   W06
 BYTE   Dn2
 BYTE   W06
 BYTE   En2
 BYTE   W06
 BYTE   Cn2
 BYTE   W06
 BYTE   Dn2
 BYTE   W06
 BYTE   Bn1
 BYTE   W06
 BYTE   Cn2
 BYTE   W06
 BYTE   Bn1
 BYTE   W06
 BYTE   Cn2
 BYTE   W06
 BYTE   Dn2
 BYTE   W06
// 009   ----------------------------------------
Label_3_5503F7:
 BYTE   N06  En2  v127
 BYTE   W06
 BYTE   Bn1
 BYTE   W06
 BYTE   Cn2
 BYTE   W06
 BYTE   Bn1
 BYTE   W06
 BYTE   Cn2
 BYTE   W06
 BYTE   Bn1
 BYTE   W06
 BYTE   Cn2
 BYTE   W06
 BYTE   Dn2
 BYTE   W06
 BYTE   En2
 BYTE   W06
 BYTE   Cn2
 BYTE   W06
 BYTE   Dn2
 BYTE   W06
 BYTE   Bn1
 BYTE   W06
 BYTE   Cn2
 BYTE   W06
 BYTE   Bn1
 BYTE   W06
 BYTE   Cn2
 BYTE   W06
 BYTE   Dn2
 BYTE   W06
 BYTE   PEND 
// 010   ----------------------------------------
 BYTE   PATT
  POIN2 Label_3_5503F7
// 011   ----------------------------------------
 BYTE   PATT
  POIN2 Label_3_5503F7
// 012   ----------------------------------------
Label_3_550424:
 BYTE   N06  An2  v127
 BYTE   W06
 BYTE   En2
 BYTE   W06
 BYTE   Fn2
 BYTE   W06
 BYTE   En2
 BYTE   W06
 BYTE   Fn2
 BYTE   W06
 BYTE   En2
 BYTE   W06
 BYTE   Fn2
 BYTE   W06
 BYTE   Gn2
 BYTE   W06
 BYTE   An2
 BYTE   W06
 BYTE   Fn2
 BYTE   W06
 BYTE   Gn2
 BYTE   W06
 BYTE   En2
 BYTE   W06
 BYTE   Fn2
 BYTE   W06
 BYTE   En2
 BYTE   W06
 BYTE   Fn2
 BYTE   W06
 BYTE   Gn2
 BYTE   W06
 BYTE   PEND 
// 013   ----------------------------------------
 BYTE   PATT
  POIN2 Label_3_550424
// 014   ----------------------------------------
 BYTE   PATT
  POIN2 Label_3_550424
// 015   ----------------------------------------
 BYTE   N06  An2  v127
 BYTE   W06
 BYTE   En2
 BYTE   W06
 BYTE   Fn2
 BYTE   W06
 BYTE   En2
 BYTE   W06
 BYTE   Fn2
 BYTE   W06
 BYTE   En2
 BYTE   W06
 BYTE   Fn2
 BYTE   W06
 BYTE   Gn2
 BYTE   W06
 BYTE   W48
// 016   ----------------------------------------
 BYTE   W01
 BYTE   W92
 BYTE   W02
 BYTE   W96
// 017   ----------------------------------------
 BYTE   W96
// 018   ----------------------------------------
 BYTE   W96
// 019   ----------------------------------------
 BYTE   W96
// 020   ----------------------------------------
 BYTE   W96
// 021   ----------------------------------------
 BYTE   W96
// 022   ----------------------------------------
 BYTE   W90
 BYTE   GoTo
  POIN2 Label_3_550380
 BYTE   FINE

//**************** Track 5 (Midi-Chn.4) ****************//

FF3CloudofDarknessRSflame_005:
// 000   ----------------------------------------
Label_4_01014D24:
 BYTE   KEYSH   FF3CloudofDarknessRSflame_key+0
 BYTE   VOICE   48
 BYTE   VOL   27*FF3CloudofDarknessRSflame_mvl/mxv
 BYTE   PAN   c_v-64
 BYTE   TEMPO   162*FF3CloudofDarknessRSflame_tbs/2
 BYTE   W96
// 001   ----------------------------------------
 BYTE   W96
// 002   ----------------------------------------
 BYTE   W96
// 003   ----------------------------------------
 BYTE   W96
// 004   ----------------------------------------
 BYTE   W96
// 005   ----------------------------------------
 BYTE   W96
// 006   ----------------------------------------
 BYTE   W96
// 007   ----------------------------------------
 BYTE   W60
 BYTE   W36
// 008   ----------------------------------------
 BYTE   W96
// 009   ----------------------------------------
 BYTE   W96
// 010   ----------------------------------------
 BYTE   W96
// 011   ----------------------------------------
 BYTE   W96
// 012   ----------------------------------------
 BYTE   W96
// 013   ----------------------------------------
 BYTE   W96
// 014   ----------------------------------------
 BYTE   W96
// 015   ----------------------------------------
 BYTE   W48
 BYTE   W06
 BYTE   N06  An3  v120
 BYTE   N06  An2
 BYTE   W06
 BYTE   As3
 BYTE   N06  As2
 BYTE   W06
 BYTE   Cn4
 BYTE   N06  Cn3
 BYTE   W06
 BYTE   Dn4
 BYTE   N06  Dn3
 BYTE   W06
 BYTE   En4
 BYTE   N06  En3
 BYTE   W06
 BYTE   Fn4
 BYTE   N06  Fn3
 BYTE   W06
 BYTE   Gn4
 BYTE   N06  Gn3
 BYTE   W06
// 016   ----------------------------------------
 BYTE   N24  Gs4
 BYTE   N24  Gs3
 BYTE   W01
 BYTE   W32
 BYTE   W02
 BYTE   N24  Gs4  v120
 BYTE   N24  Gs3
 BYTE   W24
 BYTE   N12  En4
 BYTE   N12  En3
 BYTE   W12
 BYTE   Fs4
 BYTE   N12  Fs3
 BYTE   W12
 BYTE   Gs4
 BYTE   N12  Gs3
 BYTE   W12
 BYTE   N24  An4
 BYTE   N24  An3
 BYTE   W24
// 017   ----------------------------------------
 BYTE   N24  Gn4  v120
 BYTE   N24  Gn3
 BYTE   W24
 BYTE   Fn4
 BYTE   N24  Fn3
 BYTE   W24
 BYTE   En4
 BYTE   N24  En3
 BYTE   W24
 BYTE   N36  Dn4
 BYTE   N36  Dn3
 BYTE   W36
// 018   ----------------------------------------
 BYTE   N24  Cn4
 BYTE   N24  Cn3
 BYTE   W24
 BYTE   N12  Dn4
 BYTE   N12  Dn3
 BYTE   W12
 BYTE   N24  Cn4
 BYTE   N24  Cn3
 BYTE   W24
 BYTE   N96  Bn3
 BYTE   N96  Bn2
 BYTE   W96
// 019   ----------------------------------------
 BYTE   N12  Dn4
 BYTE   N12  Dn3
 BYTE   W36
 BYTE   N24  Dn4
 BYTE   N24  Dn3
 BYTE   W24
 BYTE   N12  Bn3
 BYTE   N12  Bn2
 BYTE   W12
 BYTE   Cn4
 BYTE   N12  Cn3
 BYTE   W12
 BYTE   Dn4
 BYTE   N12  Dn3
 BYTE   W12
// 020   ----------------------------------------
 BYTE   N24  En4
 BYTE   N24  En3
 BYTE   W24
 BYTE   Dn4
 BYTE   N24  Dn3
 BYTE   W24
 BYTE   Cn4
 BYTE   N24  Cn3
 BYTE   W24
 BYTE   En4
 BYTE   N24  En3
 BYTE   W24
// 021   ----------------------------------------
 BYTE   N12  Fn4
 BYTE   N12  Fn3
 BYTE   W36
 BYTE   N24  Fn4
 BYTE   N24  Fn3
 BYTE   W24
 BYTE   N12  Ds4
 BYTE   N12  Ds3
 BYTE   W12
 BYTE   Fs4
 BYTE   N12  Fs3
 BYTE   W12
 BYTE   Bn4
 BYTE   N12  Bn3
 BYTE   W12
// 022   ----------------------------------------
 BYTE   N36  An4
 BYTE   N36  An3
 BYTE   W36
 BYTE   N60  Gs4
 BYTE   N60  Gs3
 BYTE   W54
 BYTE   GoTo
  POIN2 Label_4_01014D24
 BYTE   FINE

//**************** Track 6 (Midi-Chn.5) ****************//

FF3CloudofDarknessRSflame_006:
// 000   ----------------------------------------
Label_5_54F3E0:
 BYTE   KEYSH   FF3CloudofDarknessRSflame_key+0
 BYTE   VOICE   48
 BYTE   VOL   71*FF3CloudofDarknessRSflame_mvl/mxv
 BYTE   PAN   c_v+0
 BYTE   TEMPO   162*FF3CloudofDarknessRSflame_tbs/2
 BYTE   W96
// 001   ----------------------------------------
 BYTE   W96
// 002   ----------------------------------------
 BYTE   W96
// 003   ----------------------------------------
 BYTE   W96
// 004   ----------------------------------------
 BYTE   W96
// 005   ----------------------------------------
 BYTE   W96
// 006   ----------------------------------------
 BYTE   W96
// 007   ----------------------------------------
 BYTE   W60
 BYTE   W36
// 008   ----------------------------------------
 BYTE   W96
// 009   ----------------------------------------
 BYTE   W96
// 010   ----------------------------------------
 BYTE   W96
// 011   ----------------------------------------
 BYTE   W96
// 012   ----------------------------------------
 BYTE   W96
// 013   ----------------------------------------
 BYTE   W96
// 014   ----------------------------------------
 BYTE   W72
 BYTE   VOL   55*FF3CloudofDarknessRSflame_mvl/mxv
 BYTE   W16
 BYTE   VOL   47*FF3CloudofDarknessRSflame_mvl/mxv
 BYTE   VOL   55*FF3CloudofDarknessRSflame_mvl/mxv
 BYTE   VOL   42*FF3CloudofDarknessRSflame_mvl/mxv
 BYTE   VOL   36*FF3CloudofDarknessRSflame_mvl/mxv
 BYTE   VOL   24*FF3CloudofDarknessRSflame_mvl/mxv
 BYTE   VOL   29*FF3CloudofDarknessRSflame_mvl/mxv
 BYTE   VOL   19*FF3CloudofDarknessRSflame_mvl/mxv
 BYTE   VOL   14*FF3CloudofDarknessRSflame_mvl/mxv
 BYTE   VOL   3*FF3CloudofDarknessRSflame_mvl/mxv
 BYTE   VOL   8*FF3CloudofDarknessRSflame_mvl/mxv
 BYTE   VOL   0*FF3CloudofDarknessRSflame_mvl/mxv
 BYTE   VOL   0*FF3CloudofDarknessRSflame_mvl/mxv
 BYTE   VOL   0*FF3CloudofDarknessRSflame_mvl/mxv
 BYTE   VOL   0*FF3CloudofDarknessRSflame_mvl/mxv
 BYTE   VOL   0*FF3CloudofDarknessRSflame_mvl/mxv
 BYTE   VOL   0*FF3CloudofDarknessRSflame_mvl/mxv
 BYTE   VOL   0*FF3CloudofDarknessRSflame_mvl/mxv
 BYTE   VOL   0*FF3CloudofDarknessRSflame_mvl/mxv
 BYTE   W01
 BYTE   VOL   0*FF3CloudofDarknessRSflame_mvl/mxv
 BYTE   N92  Dn1  v127
 BYTE   N92  Dn3
 BYTE   N92  Dn2
 BYTE   VOL   0*FF3CloudofDarknessRSflame_mvl/mxv
 BYTE   VOL   0*FF3CloudofDarknessRSflame_mvl/mxv
 BYTE   VOL   0*FF3CloudofDarknessRSflame_mvl/mxv
 BYTE   VOL   0*FF3CloudofDarknessRSflame_mvl/mxv
 BYTE   W01
 BYTE   VOL   0*FF3CloudofDarknessRSflame_mvl/mxv
 BYTE   VOL   0*FF3CloudofDarknessRSflame_mvl/mxv
 BYTE   VOL   0*FF3CloudofDarknessRSflame_mvl/mxv
 BYTE   VOL   0*FF3CloudofDarknessRSflame_mvl/mxv
 BYTE   VOL   0*FF3CloudofDarknessRSflame_mvl/mxv
 BYTE   W01
 BYTE   VOL   0*FF3CloudofDarknessRSflame_mvl/mxv
 BYTE   VOL   0*FF3CloudofDarknessRSflame_mvl/mxv
 BYTE   VOL   0*FF3CloudofDarknessRSflame_mvl/mxv
 BYTE   VOL   0*FF3CloudofDarknessRSflame_mvl/mxv
 BYTE   VOL   0*FF3CloudofDarknessRSflame_mvl/mxv
 BYTE   W01
 BYTE   VOL   0*FF3CloudofDarknessRSflame_mvl/mxv
 BYTE   VOL   0*FF3CloudofDarknessRSflame_mvl/mxv
 BYTE   VOL   0*FF3CloudofDarknessRSflame_mvl/mxv
 BYTE   VOL   0*FF3CloudofDarknessRSflame_mvl/mxv
 BYTE   VOL   0*FF3CloudofDarknessRSflame_mvl/mxv
 BYTE   W01
 BYTE   VOL   0*FF3CloudofDarknessRSflame_mvl/mxv
 BYTE   VOL   0*FF3CloudofDarknessRSflame_mvl/mxv
 BYTE   VOL   0*FF3CloudofDarknessRSflame_mvl/mxv
 BYTE   VOL   0*FF3CloudofDarknessRSflame_mvl/mxv
 BYTE   VOL   0*FF3CloudofDarknessRSflame_mvl/mxv
 BYTE   W01
 BYTE   VOL   0*FF3CloudofDarknessRSflame_mvl/mxv
 BYTE   VOL   0*FF3CloudofDarknessRSflame_mvl/mxv
 BYTE   VOL   0*FF3CloudofDarknessRSflame_mvl/mxv
 BYTE   VOL   0*FF3CloudofDarknessRSflame_mvl/mxv
 BYTE   VOL   0*FF3CloudofDarknessRSflame_mvl/mxv
 BYTE   W01
 BYTE   VOL   1*FF3CloudofDarknessRSflame_mvl/mxv
 BYTE   VOL   2*FF3CloudofDarknessRSflame_mvl/mxv
 BYTE   VOL   3*FF3CloudofDarknessRSflame_mvl/mxv
 BYTE   VOL   4*FF3CloudofDarknessRSflame_mvl/mxv
 BYTE   VOL   5*FF3CloudofDarknessRSflame_mvl/mxv
 BYTE   W01
// 015   ----------------------------------------
 BYTE   VOL   7*FF3CloudofDarknessRSflame_mvl/mxv
 BYTE   VOL   8*FF3CloudofDarknessRSflame_mvl/mxv
 BYTE   VOL   9*FF3CloudofDarknessRSflame_mvl/mxv
 BYTE   VOL   10*FF3CloudofDarknessRSflame_mvl/mxv
 BYTE   VOL   11*FF3CloudofDarknessRSflame_mvl/mxv
 BYTE   W01
 BYTE   VOL   13*FF3CloudofDarknessRSflame_mvl/mxv
 BYTE   VOL   14*FF3CloudofDarknessRSflame_mvl/mxv
 BYTE   VOL   15*FF3CloudofDarknessRSflame_mvl/mxv
 BYTE   VOL   16*FF3CloudofDarknessRSflame_mvl/mxv
 BYTE   VOL   18*FF3CloudofDarknessRSflame_mvl/mxv
 BYTE   W01
 BYTE   VOL   19*FF3CloudofDarknessRSflame_mvl/mxv
 BYTE   VOL   20*FF3CloudofDarknessRSflame_mvl/mxv
 BYTE   VOL   21*FF3CloudofDarknessRSflame_mvl/mxv
 BYTE   VOL   23*FF3CloudofDarknessRSflame_mvl/mxv
 BYTE   VOL   24*FF3CloudofDarknessRSflame_mvl/mxv
 BYTE   W01
 BYTE   VOL   25*FF3CloudofDarknessRSflame_mvl/mxv
 BYTE   VOL   27*FF3CloudofDarknessRSflame_mvl/mxv
 BYTE   VOL   28*FF3CloudofDarknessRSflame_mvl/mxv
 BYTE   VOL   29*FF3CloudofDarknessRSflame_mvl/mxv
 BYTE   VOL   31*FF3CloudofDarknessRSflame_mvl/mxv
 BYTE   W01
 BYTE   VOL   32*FF3CloudofDarknessRSflame_mvl/mxv
 BYTE   VOL   33*FF3CloudofDarknessRSflame_mvl/mxv
 BYTE   VOL   35*FF3CloudofDarknessRSflame_mvl/mxv
 BYTE   VOL   36*FF3CloudofDarknessRSflame_mvl/mxv
 BYTE   VOL   37*FF3CloudofDarknessRSflame_mvl/mxv
 BYTE   W01
 BYTE   VOL   39*FF3CloudofDarknessRSflame_mvl/mxv
 BYTE   W09
 BYTE   VOL   40*FF3CloudofDarknessRSflame_mvl/mxv
 BYTE   W01
 BYTE   N03  Dn3  v127
 BYTE   N03  Dn1
 BYTE   N03  Dn2
 BYTE   W02
 BYTE   W01
 BYTE   VOL   42*FF3CloudofDarknessRSflame_mvl/mxv
 BYTE   W05
 BYTE   VOL   43*FF3CloudofDarknessRSflame_mvl/mxv
 BYTE   W04
 BYTE   VOL   45*FF3CloudofDarknessRSflame_mvl/mxv
 BYTE   W04
 BYTE   VOL   46*FF3CloudofDarknessRSflame_mvl/mxv
 BYTE   W05
 BYTE   VOL   47*FF3CloudofDarknessRSflame_mvl/mxv
 BYTE   W04
 BYTE   VOL   49*FF3CloudofDarknessRSflame_mvl/mxv
 BYTE   W04
 BYTE   VOL   50*FF3CloudofDarknessRSflame_mvl/mxv
 BYTE   W05
 BYTE   VOL   52*FF3CloudofDarknessRSflame_mvl/mxv
 BYTE   W04
 BYTE   VOL   55*FF3CloudofDarknessRSflame_mvl/mxv
 BYTE   VOL   53*FF3CloudofDarknessRSflame_mvl/mxv
 BYTE   W09
 BYTE   N36  Bn2  v108
 BYTE   N36  Bn1
 BYTE   W01
 BYTE   W32
 BYTE   W02
// 016   ----------------------------------------
 BYTE   N24  En3  v108
 BYTE   N24  En2
 BYTE   W24
 BYTE   N12  Dn3
 BYTE   N12  Dn2
 BYTE   W12
 BYTE   Cn3
 BYTE   N12  Cn2
 BYTE   W12
 BYTE   Bn2
 BYTE   N12  Bn1
 BYTE   W12
 BYTE   N24  Cn3
 BYTE   N24  Cn2
 BYTE   W24
 BYTE   N24  Bn2  v108
 BYTE   N24  Bn1
 BYTE   W24
// 017   ----------------------------------------
 BYTE   An2
 BYTE   N24  An1
 BYTE   W24
 BYTE   N12  Gn2
 BYTE   N12  Gn1
 BYTE   W12
 BYTE   En2
 BYTE   N12  En1
 BYTE   W12
 BYTE   N36  Fn2
 BYTE   N36  Fn1
 BYTE   W36
 BYTE   N48  Fs2
 BYTE   N48  Fs1
 BYTE   W60
// 018   ----------------------------------------
 BYTE   N36  Gn2
 BYTE   N36  Gn1
 BYTE   W36
 BYTE   N48  Gs2
 BYTE   N48  Gs1
 BYTE   W60
// 019   ----------------------------------------
 BYTE   N12  An2  v112
 BYTE   N12  An1
 BYTE   W12
 BYTE   Fn2
 BYTE   N12  Fn1
 BYTE   W12
 BYTE   Gn2
 BYTE   N12  Gn1
 BYTE   W12
 BYTE   N24  An2
 BYTE   N24  An1
 BYTE   W24
 BYTE   N12  Gn2
 BYTE   N12  Gn1
 BYTE   W12
 BYTE   Fn2
 BYTE   N12  Fn1
 BYTE   W12
 BYTE   Dn2
 BYTE   N12  Dn1
 BYTE   W12
// 020   ----------------------------------------
 BYTE   Cn3
 BYTE   N12  Cn2
 BYTE   W12
 BYTE   An2
 BYTE   N12  An1
 BYTE   W12
 BYTE   Bn2
 BYTE   N12  Bn1
 BYTE   W12
 BYTE   Gn2
 BYTE   N12  Gn1
 BYTE   W12
 BYTE   An2
 BYTE   N12  An1
 BYTE   W12
 BYTE   En2
 BYTE   N12  En1
 BYTE   W12
 BYTE   An2
 BYTE   N12  An1
 BYTE   W12
 BYTE   Cn3
 BYTE   N12  Cn2
 BYTE   W12
// 021   ----------------------------------------
 BYTE   An2
 BYTE   N12  An1
 BYTE   W12
 BYTE   N06  As2
 BYTE   N06  As1
 BYTE   W06
 BYTE   Bn2
 BYTE   N06  Bn1
 BYTE   W06
 BYTE   N12  Cn3
 BYTE   N12  Cn2
 BYTE   W12
 BYTE   N24  Dn3
 BYTE   N24  Dn2
 BYTE   W24
 BYTE   N12  Cn3
 BYTE   N12  Cn2
 BYTE   W12
 BYTE   Bn2
 BYTE   N12  Bn1
 BYTE   W12
 BYTE   Ds3
 BYTE   N12  Ds2
 BYTE   W12
// 022   ----------------------------------------
 BYTE   Dn3  v127
 BYTE   N12  Dn2
 BYTE   W12
 BYTE   N06  Cn3
 BYTE   N06  Cn2
 BYTE   W06
 BYTE   Bn2
 BYTE   N06  Bn1
 BYTE   W06
 BYTE   N12  Cn3
 BYTE   N12  Cn2
 BYTE   W12
 BYTE   N06  Bn2
 BYTE   N06  Bn1
 BYTE   W06
 BYTE   An2
 BYTE   N06  An1
 BYTE   W06
 BYTE   N12  Bn2
 BYTE   N12  Bn1
 BYTE   W12
 BYTE   N06  An2
 BYTE   N06  An1
 BYTE   W06
 BYTE   Gs2
 BYTE   N06  Gs1
 BYTE   W06
 BYTE   En2
 BYTE   N06  En1
 BYTE   W06
 BYTE   Dn2
 BYTE   N06  Dn1
 BYTE   W06
 BYTE   Bn1
 BYTE   N06  Bn0
 BYTE   W06
 BYTE   Gs1
 BYTE   N06  Gs0
 BYTE   GoTo
  POIN2 Label_5_54F3E0
 BYTE   FINE

//**************** Track 7 (Midi-Chn.6) ****************//

FF3CloudofDarknessRSflame_007:
// 000   ----------------------------------------
Label_6_54FB6C:
 BYTE   KEYSH   FF3CloudofDarknessRSflame_key+0
 BYTE   VOICE   118
 BYTE   VOL   33*FF3CloudofDarknessRSflame_mvl/mxv
 BYTE   VOL   27*FF3CloudofDarknessRSflame_mvl/mxv
 BYTE   PAN   c_v+0
 BYTE   PAN   c_v+0
 BYTE   TEMPO   162*FF3CloudofDarknessRSflame_tbs/2
 BYTE   W48
 BYTE   N06  Dn2  v120
 BYTE   N12  Cs2
 BYTE   W24
 BYTE   N06  Dn2
 BYTE   N12  Gn1
 BYTE   W48
// 001   ----------------------------------------
 BYTE   N06  Dn2
 BYTE   N12  Gn1
 BYTE   W24
 BYTE   N06  Dn2
 BYTE   N12  Cs1
 BYTE   W96
// 002   ----------------------------------------
 BYTE   N06  Dn2
 BYTE   N12  Cs2
 BYTE   W24
 BYTE   N06  Dn2
 BYTE   N12  Gn1
 BYTE   W24
 BYTE   N03  Dn2
 BYTE   N03  Cs2
 BYTE   W03
 BYTE   Dn2  v110
 BYTE   N03  Cs2
 BYTE   W03
 BYTE   Dn2
 BYTE   N03  Cs2
 BYTE   W03
 BYTE   Dn2
 BYTE   N03  Cs2
 BYTE   W03
 BYTE   Dn2
 BYTE   N03  Cs2
 BYTE   W03
 BYTE   N06  Dn2
 BYTE   N12  Cs2
 BYTE   W09
 BYTE   N03  Dn2  v120
 BYTE   N03  Gn1
 BYTE   W03
 BYTE   Dn2  v110
 BYTE   N03  Gn1
 BYTE   W03
 BYTE   Dn2
 BYTE   N03  Gn1
 BYTE   W03
 BYTE   Dn2
 BYTE   N03  Gn1
 BYTE   W03
 BYTE   Dn2
 BYTE   N03  Gn1
 BYTE   W03
 BYTE   N06  Dn2
 BYTE   N12  Gn1  v120
 BYTE   W09
// 003   ----------------------------------------
 BYTE   N06  Dn2
 BYTE   N12  Cs2
 BYTE   W16
 BYTE   N06  Dn2
 BYTE   N12  Gn1
 BYTE   W16
 BYTE   N06  Dn2
 BYTE   N12  Cs1
 BYTE   W64
// 004   ----------------------------------------
 BYTE   N06  Dn2
 BYTE   N12  Cs2
 BYTE   W24
 BYTE   N06  Dn2
 BYTE   N12  Gn1
 BYTE   W48
 BYTE   N06  Dn2
 BYTE   N12  Gn1
 BYTE   W24
// 005   ----------------------------------------
 BYTE   N06  Dn2
 BYTE   N12  Cs1
 BYTE   W72
 BYTE   N06  Dn2
 BYTE   N12  Cs2
 BYTE   W48
// 006   ----------------------------------------
 BYTE   N06  Dn2
 BYTE   N12  Cs2
 BYTE   W48
 BYTE   N06  Dn2
 BYTE   W36
 BYTE   W12
// 007   ----------------------------------------
 BYTE   N06  Dn2  v120
 BYTE   W24
 BYTE   W24
 BYTE   N06  Dn2  v120
 BYTE   W48
// 008   ----------------------------------------
Label_6_54FC0C:
 BYTE   N06  Dn2  v120
 BYTE   W48
 BYTE   Dn2
 BYTE   W48
 BYTE   PEND 
// 009   ----------------------------------------
 BYTE   PATT
  POIN2 Label_6_54FC0C
// 010   ----------------------------------------
 BYTE   PATT
  POIN2 Label_6_54FC0C
// 011   ----------------------------------------
 BYTE   PATT
  POIN2 Label_6_54FC0C
// 012   ----------------------------------------
 BYTE   PATT
  POIN2 Label_6_54FC0C
// 013   ----------------------------------------
 BYTE   PATT
  POIN2 Label_6_54FC0C
// 014   ----------------------------------------
 BYTE   N06  Dn2  v120
 BYTE   W72
 BYTE   W48
// 015   ----------------------------------------
 BYTE   W01
 BYTE   W22
 BYTE   N06  Dn2  v120
 BYTE   W48
 BYTE   Dn2
 BYTE   W24
 BYTE   W24
// 016   ----------------------------------------
 BYTE   N06  Dn2  v120
 BYTE   W48
 BYTE   Dn2
 BYTE   W48
// 017   ----------------------------------------
 BYTE   PATT
  POIN2 Label_6_54FC0C
// 018   ----------------------------------------
 BYTE   PATT
  POIN2 Label_6_54FC0C
// 019   ----------------------------------------
 BYTE   PATT
  POIN2 Label_6_54FC0C
// 020   ----------------------------------------
 BYTE   PATT
  POIN2 Label_6_54FC0C
// 021   ----------------------------------------
 BYTE   PATT
  POIN2 Label_6_54FC0C
// 022   ----------------------------------------
 BYTE   N06  Dn2  v120
 BYTE   W48
 BYTE   Dn2
 BYTE   W06
 BYTE   Dn2
 BYTE   W06
 BYTE   Dn2
 BYTE   W06
 BYTE   Dn2
 BYTE   GoTo
  POIN2 Label_6_54FB6C
 BYTE   FINE

//**************** Track 8 (Midi-Chn.7) ****************//

FF3CloudofDarknessRSflame_008:
// 000   ----------------------------------------
Label_7_54F5C4:
 BYTE   KEYSH   FF3CloudofDarknessRSflame_key+0
 BYTE   VOICE   32
 BYTE   VOL   82*FF3CloudofDarknessRSflame_mvl/mxv
 BYTE   PAN   c_v+0
 BYTE   N06  An2  v127
 BYTE   TEMPO   162*FF3CloudofDarknessRSflame_tbs/2
 BYTE   W12
 BYTE   N06  An2  v127
 BYTE   W12
 BYTE   An2
 BYTE   W12
 BYTE   An2
 BYTE   W12
 BYTE   An2
 BYTE   W12
 BYTE   An2
 BYTE   W12
 BYTE   An2
 BYTE   W12
 BYTE   An2
 BYTE   W12
// 001   ----------------------------------------
Label_7_54F5E2:
 BYTE   N06  An2  v127
 BYTE   W12
 BYTE   An2
 BYTE   W12
 BYTE   An2
 BYTE   W12
 BYTE   An2
 BYTE   W12
 BYTE   An2
 BYTE   W12
 BYTE   An2
 BYTE   W12
 BYTE   An2
 BYTE   W12
 BYTE   An2
 BYTE   W12
 BYTE   PEND 
// 002   ----------------------------------------
 BYTE   PATT
  POIN2 Label_7_54F5E2
// 003   ----------------------------------------
 BYTE   PATT
  POIN2 Label_7_54F5E2
// 004   ----------------------------------------
 BYTE   PATT
  POIN2 Label_7_54F5E2
// 005   ----------------------------------------
 BYTE   PATT
  POIN2 Label_7_54F5E2
// 006   ----------------------------------------
 BYTE   PATT
  POIN2 Label_7_54F5E2
// 007   ----------------------------------------
 BYTE   N24  An2  v127
 BYTE   N96  Gn2
 BYTE   W24
 BYTE   N12  An3
 BYTE   W12
 BYTE   N24  Gs3
 BYTE   W24
 BYTE   N12  Fn3
 BYTE   W12
 BYTE   N12  En3  v127
 BYTE   W12
 BYTE   Dn3
 BYTE   W12
// 008   ----------------------------------------
 BYTE   An2
 BYTE   W36
 BYTE   N24  An2  v127
 BYTE   W24
 BYTE   N12  Cn3
 BYTE   W12
 BYTE   Dn3
 BYTE   W12
 BYTE   En3
 BYTE   W12
// 009   ----------------------------------------
Label_7_54F630:
 BYTE   N12  An2  v127
 BYTE   W36
 BYTE   N24
 BYTE   W24
 BYTE   N12  Cn3
 BYTE   W12
 BYTE   Dn3
 BYTE   W12
 BYTE   En3
 BYTE   W12
 BYTE   PEND 
// 010   ----------------------------------------
 BYTE   PATT
  POIN2 Label_7_54F630
// 011   ----------------------------------------
 BYTE   PATT
  POIN2 Label_7_54F630
// 012   ----------------------------------------
Label_7_54F648:
 BYTE   N12  Dn3  v127
 BYTE   W36
 BYTE   N24
 BYTE   W24
 BYTE   N12  An2
 BYTE   W12
 BYTE   Cn3
 BYTE   W12
 BYTE   Cs3
 BYTE   W12
 BYTE   PEND 
// 013   ----------------------------------------
 BYTE   PATT
  POIN2 Label_7_54F648
// 014   ----------------------------------------
 BYTE   PATT
  POIN2 Label_7_54F648
// 015   ----------------------------------------
 BYTE   N12  Dn3  v127
 BYTE   N12  Dn1  v095
 BYTE   N92  Gn2  v127
 BYTE   W12
 BYTE   N12  Dn1  v098
 BYTE   W12
 BYTE   Dn1  v100
 BYTE   W12
 BYTE   Dn1  v110
 BYTE   N24  Dn3  v127
 BYTE   W10
 BYTE   N03  Gn2
 BYTE   W02
 BYTE   N12  Dn1  v113
 BYTE   W12
 BYTE   N12  Dn1  v115
 BYTE   N12  An2  v127
 BYTE   W12
 BYTE   Dn1  v118
 BYTE   N12  Cn3  v127
 BYTE   W12
 BYTE   N11  Dn1  v123
 BYTE   N12  Cs3  v127
 BYTE   W12
// 016   ----------------------------------------
 BYTE   N09  En3
 BYTE   N24  Bn0
 BYTE   N32  Fn1
 BYTE   W01
 BYTE   W10
 BYTE   N12  Bn2  v127
 BYTE   W04
 BYTE   N02  Fn1
 BYTE   W08
 BYTE   N09  En3
 BYTE   W12
 BYTE   N12  Bn2
 BYTE   W12
 BYTE   N09  En3
 BYTE   W12
 BYTE   N12  Bn2
 BYTE   W12
 BYTE   N09  En3
 BYTE   W12
 BYTE   N12  Bn2
 BYTE   W12
 BYTE   N24  Fn3
 BYTE   W24
// 017   ----------------------------------------
 BYTE   N24  Gn3  v127
 BYTE   W24
 BYTE   N12  An3
 BYTE   W12
 BYTE   Fn3
 BYTE   W12
 BYTE   En3
 BYTE   W12
 BYTE   Cn3
 BYTE   W06
 BYTE   N06  As0  v120
 BYTE   W06
 BYTE   N24  Bn2  v127
 BYTE   N24  Bn0  v120
 BYTE   N32  Fn1  v127
 BYTE   W16
 BYTE   N02
 BYTE   W08
// 018   ----------------------------------------
 BYTE   N08  Bn3
 BYTE   W12
 BYTE   N24  Cn3
 BYTE   N24  Cn1  v120
 BYTE   N54  Fn1  v117
 BYTE   W24
 BYTE   N08  Cn4  v127
 BYTE   W12
 BYTE   N12  Cn3
 BYTE   W12
 BYTE   N08  Cn4
 BYTE   W06
 BYTE   N06  Cn1  v120
 BYTE   W06
 BYTE   N24  Dn3  v127
 BYTE   N24  Dn1  v120
 BYTE   N32  Fn1  v127
 BYTE   W16
 BYTE   N02
 BYTE   W08
// 019   ----------------------------------------
 BYTE   N08  Dn4
 BYTE   W12
 BYTE   N24  En3
 BYTE   N24  En1  v120
 BYTE   N54  Fn1  v117
 BYTE   W24
 BYTE   N08  En4  v127
 BYTE   W03
 BYTE   N01  Fn1  v117
 BYTE   W09
 BYTE   N12  En3  v127
 BYTE   W12
 BYTE   N08  En4
 BYTE   W12
 BYTE   N12  Fn3
 BYTE   N48  Fn1
 BYTE   W12
 BYTE   N06  Cn3
 BYTE   W12
// 020   ----------------------------------------
 BYTE   N12  Fn3
 BYTE   W12
 BYTE   N06  Cn3
 BYTE   W12
 BYTE   N12  Fn3
 BYTE   W12
 BYTE   N06  Cn3
 BYTE   W12
 BYTE   N12  Fn3
 BYTE   W12
 BYTE   N06  Cn3
 BYTE   W12
 BYTE   N12  An2
 BYTE   W12
 BYTE   N08  An3
 BYTE   W12
// 021   ----------------------------------------
 BYTE   N12  Bn2
 BYTE   W12
 BYTE   N08  Bn3
 BYTE   W12
 BYTE   N12  Cn3
 BYTE   W12
 BYTE   N08  Cn4
 BYTE   W12
 BYTE   N12  An2
 BYTE   W12
 BYTE   N08  An3
 BYTE   W12
 BYTE   N12  Fn3
 BYTE   N32  Fn0  v120
 BYTE   N32  Fn1  v117
 BYTE   W12
 BYTE   N06  En3  v127
 BYTE   W04
 BYTE   N01  Fn0  v120
 BYTE   N02  Fn1  v117
 BYTE   W02
 BYTE   N06  Dn3  v127
 BYTE   W06
// 022   ----------------------------------------
 BYTE   N12  Cn3
 BYTE   W12
 BYTE   N24  Bn2
 BYTE   N32  Fn0  v120
 BYTE   N54  Fn1  v127
 BYTE   W16
 BYTE   N01  Fn0  v120
 BYTE   W08
 BYTE   N06  Bn3  v127
 BYTE   W12
 BYTE   N12  Bn2
 BYTE   W12
 BYTE   N06  Bn3
 BYTE   W12
 BYTE   N12  En3
 BYTE   N28  En0  v120
 BYTE   N32  Fn1  v117
 BYTE   W12
 BYTE   N12  Bn2  v127
 BYTE   W02
 BYTE   N01  En0  v120
 BYTE   W02
 BYTE   N03  Fn1  v117
 BYTE   W08
// 023   ----------------------------------------
 BYTE   N12  Cn3  v127
 BYTE   W12
 BYTE   N06  En1  v120
 BYTE   N12  Dn3  v127
 BYTE   N54  Fn1
 BYTE   W06
 BYTE   N06  En1  v120
 BYTE   W06
 BYTE   N11
 BYTE   N12  En3  v127
 BYTE   W12
 BYTE   N06  En1  v120
 BYTE   N12  Fs3  v127
 BYTE   W06
 BYTE   N06  En1  v120
 BYTE   W06
 BYTE   N12  Gs3  v127
 BYTE   N12  En1  v120
 BYTE   W12
 BYTE   En3  v127
 BYTE   N12  En1  v120
 BYTE   W06
 BYTE   GoTo
  POIN2 Label_7_54F5C4
 BYTE   FINE

//**************** Track 9 (Midi-Chn.8) ****************//

FF3CloudofDarknessRSflame_009:
// 000   ----------------------------------------
Label_8_550328:
 BYTE   KEYSH   FF3CloudofDarknessRSflame_key+0
 BYTE   VOICE   127
 BYTE   VOL   82*FF3CloudofDarknessRSflame_mvl/mxv
 BYTE   PAN   c_v+0
 BYTE   N12  Cn0  v127
 BYTE   TEMPO   162*FF3CloudofDarknessRSflame_tbs/2
 BYTE   W72
 BYTE   N12  Bn0  v127
 BYTE   W24
// 001   ----------------------------------------
Label_8_55033A:
 BYTE   N12  Bn0  v127
 BYTE   W72
 BYTE   Bn0
 BYTE   W24
 BYTE   PEND 
// 002   ----------------------------------------
 BYTE   PATT
  POIN2 Label_8_55033A
// 003   ----------------------------------------
 BYTE   PATT
  POIN2 Label_8_55033A
// 004   ----------------------------------------
 BYTE   PATT
  POIN2 Label_8_55033A
// 005   ----------------------------------------
 BYTE   PATT
  POIN2 Label_8_55033A
// 006   ----------------------------------------
 BYTE   PATT
  POIN2 Label_8_55033A
// 007   ----------------------------------------
 BYTE   N12  Bn0  v127
 BYTE   W48
 BYTE   Bn0
 BYTE   W12
 BYTE   W36
// 008   ----------------------------------------
 BYTE   W96
// 009   ----------------------------------------
 BYTE   W96
// 010   ----------------------------------------
 BYTE   W96
// 011   ----------------------------------------
 BYTE   W96
// 012   ----------------------------------------
 BYTE   W96
// 013   ----------------------------------------
 BYTE   W96
// 014   ----------------------------------------
 BYTE   W96
// 015   ----------------------------------------
 BYTE   W48
 BYTE   W48
// 016   ----------------------------------------
 BYTE   W01
 BYTE   W92
 BYTE   W02
 BYTE   W96
// 017   ----------------------------------------
 BYTE   W96
// 018   ----------------------------------------
 BYTE   W96
// 019   ----------------------------------------
 BYTE   W96
// 020   ----------------------------------------
 BYTE   W96
// 021   ----------------------------------------
 BYTE   W96
// 022   ----------------------------------------
 BYTE   W90
 BYTE   GoTo
  POIN2 Label_8_550328
 BYTE   FINE

//**************** Track 10 (Midi-Chn.9) ****************//

FF3CloudofDarknessRSflame_010:
// 000   ----------------------------------------
Label_9_54FFA0:
 BYTE   KEYSH   FF3CloudofDarknessRSflame_key+0
 BYTE   VOICE   119
 BYTE   VOL   46*FF3CloudofDarknessRSflame_mvl/mxv
 BYTE   N96  Cn2  v110
 BYTE   TEMPO   162*FF3CloudofDarknessRSflame_tbs/2
 BYTE   W96
// 001   ----------------------------------------
 BYTE   N96  Cn2  v110
 BYTE   W96
// 002   ----------------------------------------
 BYTE   Cn2
 BYTE   W96
// 003   ----------------------------------------
 BYTE   Cn2
 BYTE   W96
// 004   ----------------------------------------
 BYTE   Cn2
 BYTE   W96
// 005   ----------------------------------------
 BYTE   Cn2
 BYTE   W96
// 006   ----------------------------------------
 BYTE   Cn2
 BYTE   W96
// 007   ----------------------------------------
 BYTE   Cn2
 BYTE   W60
 BYTE   W36
// 008   ----------------------------------------
Label_9_54FFBD:
 BYTE   N96  Cn3  v127
 BYTE   W96
 BYTE   PEND 
// 009   ----------------------------------------
 BYTE   N96  Cn3  v127
 BYTE   W96
// 010   ----------------------------------------
 BYTE   Cn3
 BYTE   W96
// 011   ----------------------------------------
 BYTE   Cn3
 BYTE   W96
// 012   ----------------------------------------
 BYTE   Cn3
 BYTE   W96
// 013   ----------------------------------------
 BYTE   Cn3
 BYTE   W96
// 014   ----------------------------------------
 BYTE   Cn3
 BYTE   W96
// 015   ----------------------------------------
 BYTE   PATT
  POIN2 Label_9_54FFBD
// 016   ----------------------------------------
 BYTE   N96  Cn3  v127
 BYTE   W01
 BYTE   W80
 BYTE   W02
 BYTE   N12  Bn3  v108
 BYTE   W12
 BYTE   W96
// 017   ----------------------------------------
 BYTE   W96
// 018   ----------------------------------------
 BYTE   W96
// 019   ----------------------------------------
 BYTE   W96
// 020   ----------------------------------------
 BYTE   W96
// 021   ----------------------------------------
 BYTE   W96
// 022   ----------------------------------------
 BYTE   W90
 BYTE   GoTo
  POIN2 Label_9_54FFA0
 BYTE   FINE

//**************** Track 11 (Midi-Chn.10) ****************//

FF3CloudofDarknessRSflame_011:
// 000   ----------------------------------------
Label_10_54F7C4:
 BYTE   KEYSH   FF3CloudofDarknessRSflame_key+0
 BYTE   VOICE   0
 BYTE   VOL   82*FF3CloudofDarknessRSflame_mvl/mxv
 BYTE   PAN   c_v+0
 BYTE   TEMPO   162*FF3CloudofDarknessRSflame_tbs/2
 BYTE   W96
// 001   ----------------------------------------
 BYTE   W96
// 002   ----------------------------------------
 BYTE   W96
// 003   ----------------------------------------
 BYTE   W96
// 004   ----------------------------------------
 BYTE   W96
// 005   ----------------------------------------
 BYTE   W96
// 006   ----------------------------------------
 BYTE   W96
// 007   ----------------------------------------
 BYTE   W60
 BYTE   W36
// 008   ----------------------------------------
 BYTE   W96
// 009   ----------------------------------------
 BYTE   W96
// 010   ----------------------------------------
 BYTE   W96
// 011   ----------------------------------------
 BYTE   W96
// 012   ----------------------------------------
 BYTE   W96
// 013   ----------------------------------------
 BYTE   W96
// 014   ----------------------------------------
 BYTE   W96
// 015   ----------------------------------------
 BYTE   W48
 BYTE   W48
// 016   ----------------------------------------
 BYTE   N96  Cn3  v127
 BYTE   W01
 BYTE   W80
 BYTE   W02
 BYTE   N12  Bn3  v108
 BYTE   W12
 BYTE   N06  Fn4
 BYTE   N96  Cn3  v127
 BYTE   W06
// 017   ----------------------------------------
 BYTE   N06  Cn4  v108
 BYTE   W06
 BYTE   N12  An3
 BYTE   W12
 BYTE   N06  En4
 BYTE   W06
 BYTE   Cs4
 BYTE   W06
 BYTE   N12  An3
 BYTE   W12
 BYTE   N06  Dn4
 BYTE   W06
 BYTE   An3
 BYTE   W06
 BYTE   N12  Fn3
 BYTE   W12
 BYTE   N06  Cn4
 BYTE   W06
 BYTE   Gn3
 BYTE   W06
 BYTE   N12  En3
 BYTE   W12
 BYTE   N09  Dn5
 BYTE   N96  Cn3  v127
 BYTE   W09
// 018   ----------------------------------------
 BYTE   N03  Cs5  v108
 BYTE   W03
 BYTE   Cn5
 BYTE   W03
 BYTE   Bn4
 BYTE   W03
 BYTE   As4
 BYTE   W03
 BYTE   An4
 BYTE   W03
 BYTE   Gs4
 BYTE   W03
 BYTE   Gn4
 BYTE   W03
 BYTE   Fs4
 BYTE   W03
 BYTE   Fn4
 BYTE   W03
 BYTE   N09  Cn5
 BYTE   W09
 BYTE   N03  Bn4
 BYTE   W03
 BYTE   As4
 BYTE   W03
 BYTE   An4
 BYTE   W03
 BYTE   Gs4
 BYTE   W03
 BYTE   Gn4
 BYTE   W03
 BYTE   Fs4
 BYTE   W12
 BYTE   N06  Cn4
 BYTE   W06
 BYTE   An3
 BYTE   W06
 BYTE   Fs3
 BYTE   W06
 BYTE   An3
 BYTE   W06
 BYTE   Dn4
 BYTE   N96  Cn3  v127
 BYTE   W12
// 019   ----------------------------------------
 BYTE   N06  Dn4  v108
 BYTE   W06
 BYTE   Bn3
 BYTE   W06
 BYTE   Gn3
 BYTE   W12
 BYTE   Dn4
 BYTE   W12
 BYTE   Dn4
 BYTE   W06
 BYTE   Bn3
 BYTE   W06
 BYTE   Gs3
 BYTE   W12
 BYTE   Dn4
 BYTE   W06
 BYTE   Bn3
 BYTE   W06
 BYTE   Gs3
 BYTE   W12
 BYTE   N96  Cn3  v127
 BYTE   W96
// 020   ----------------------------------------
 BYTE   Cn3
 BYTE   W96
// 021   ----------------------------------------
 BYTE   N12  Fn4  v120
 BYTE   N96  Cn3  v127
 BYTE   W36
 BYTE   N24  Fn4  v120
 BYTE   W24
 BYTE   N12  Ds4
 BYTE   W12
 BYTE   Fs4
 BYTE   W12
 BYTE   Bn4
 BYTE   W12
// 022   ----------------------------------------
 BYTE   N36  An4
 BYTE   N96  Cn3  v127
 BYTE   W36
 BYTE   N60  Gs4  v120
 BYTE   W54
 BYTE   GoTo
  POIN2 Label_10_54F7C4
 BYTE   FINE

//**************** Track 12 (Midi-Chn.11) ****************//

FF3CloudofDarknessRSflame_012:
// 000   ----------------------------------------
Label_11_550474:
 BYTE   KEYSH   FF3CloudofDarknessRSflame_key+0
 BYTE   VOICE   48
 BYTE   VOL   27*FF3CloudofDarknessRSflame_mvl/mxv
 BYTE   PAN   c_v+63
 BYTE   TEMPO   162*FF3CloudofDarknessRSflame_tbs/2
 BYTE   W96
// 001   ----------------------------------------
 BYTE   W96
// 002   ----------------------------------------
 BYTE   W96
// 003   ----------------------------------------
 BYTE   W96
// 004   ----------------------------------------
 BYTE   W96
// 005   ----------------------------------------
 BYTE   W96
// 006   ----------------------------------------
 BYTE   W96
// 007   ----------------------------------------
 BYTE   W60
 BYTE   W36
// 008   ----------------------------------------
 BYTE   W96
// 009   ----------------------------------------
 BYTE   W96
// 010   ----------------------------------------
 BYTE   W96
// 011   ----------------------------------------
 BYTE   W96
// 012   ----------------------------------------
 BYTE   W96
// 013   ----------------------------------------
 BYTE   W96
// 014   ----------------------------------------
 BYTE   W96
// 015   ----------------------------------------
 BYTE   W48
 BYTE   W07
 BYTE   N06  An3  v120
 BYTE   N06  An2
 BYTE   W06
 BYTE   As3
 BYTE   N06  As2
 BYTE   W06
 BYTE   Cn4
 BYTE   N06  Cn3
 BYTE   W06
 BYTE   Dn4
 BYTE   N06  Dn3
 BYTE   W06
 BYTE   En4
 BYTE   N06  En3
 BYTE   W06
 BYTE   Fn4
 BYTE   N06  Fn3
 BYTE   W06
 BYTE   Gn4
 BYTE   N06  Gn3
 BYTE   W04
 BYTE   W01
// 016   ----------------------------------------
 BYTE   N24  Gs4  v120
 BYTE   N24  Gs3
 BYTE   W36
 BYTE   N24  Gs4  v120
 BYTE   N24  Gs3
 BYTE   W24
 BYTE   N12  En4
 BYTE   N12  En3
 BYTE   W12
 BYTE   Fs4
 BYTE   N12  Fs3
 BYTE   W12
 BYTE   Gs4
 BYTE   N12  Gs3
 BYTE   W10
 BYTE   W01
 BYTE   N24  An4  v120
 BYTE   N24  An3
 BYTE   W24
// 017   ----------------------------------------
 BYTE   Gn4
 BYTE   N24  Gn3
 BYTE   W24
 BYTE   Fn4
 BYTE   N24  Fn3
 BYTE   W24
 BYTE   En4
 BYTE   N24  En3
 BYTE   W24
 BYTE   N36  Dn4
 BYTE   N36  Dn3
 BYTE   W36
// 018   ----------------------------------------
 BYTE   N24  Cn4
 BYTE   N24  Cn3
 BYTE   W24
 BYTE   N12  Dn4
 BYTE   N12  Dn3
 BYTE   W12
 BYTE   N24  Cn4
 BYTE   N24  Cn3
 BYTE   W24
 BYTE   N96  Bn3
 BYTE   N96  Bn2
 BYTE   W96
// 019   ----------------------------------------
 BYTE   N12  Dn4
 BYTE   N12  Dn3
 BYTE   W36
 BYTE   N24  Dn4
 BYTE   N24  Dn3
 BYTE   W24
 BYTE   N12  Bn3
 BYTE   N12  Bn2
 BYTE   W12
 BYTE   Cn4
 BYTE   N12  Cn3
 BYTE   W12
 BYTE   Dn4
 BYTE   N12  Dn3
 BYTE   W12
// 020   ----------------------------------------
 BYTE   N24  En4
 BYTE   N24  En3
 BYTE   W24
 BYTE   Dn4
 BYTE   N24  Dn3
 BYTE   W24
 BYTE   Cn4
 BYTE   N24  Cn3
 BYTE   W24
 BYTE   En4
 BYTE   N24  En3
 BYTE   W24
// 021   ----------------------------------------
 BYTE   N12  Fn4
 BYTE   N12  Fn3
 BYTE   W36
 BYTE   N24  Fn4
 BYTE   N24  Fn3
 BYTE   W24
 BYTE   N12  Ds4
 BYTE   N12  Ds3
 BYTE   W12
 BYTE   Fs4
 BYTE   N12  Fs3
 BYTE   W12
 BYTE   Bn4
 BYTE   N12  Bn3
 BYTE   W12
// 022   ----------------------------------------
 BYTE   N36  An4
 BYTE   N36  An3
 BYTE   W36
 BYTE   N60  Gs4
 BYTE   N60  Gs3
 BYTE   W52
 BYTE   GoTo
  POIN2 Label_11_550474
 BYTE   FINE

//**************** Track 13 (Midi-Chn.12) ****************//

FF3CloudofDarknessRSflame_013:
// 000   ----------------------------------------
Label_12_54FE0C:
 BYTE   KEYSH   FF3CloudofDarknessRSflame_key+0
 BYTE   VOICE   7
 BYTE   VOL   52*FF3CloudofDarknessRSflame_mvl/mxv
 BYTE   PAN   c_v+30
 BYTE   TEMPO   162*FF3CloudofDarknessRSflame_tbs/2
 BYTE   W96
// 001   ----------------------------------------
 BYTE   W96
// 002   ----------------------------------------
 BYTE   W96
// 003   ----------------------------------------
 BYTE   W96
// 004   ----------------------------------------
 BYTE   W96
// 005   ----------------------------------------
 BYTE   W96
// 006   ----------------------------------------
 BYTE   W96
// 007   ----------------------------------------
 BYTE   W60
 BYTE   W36
// 008   ----------------------------------------
 BYTE   W01
 BYTE   N03  Bn3  v100
 BYTE   N03  Bn2  v120
 BYTE   W03
 BYTE   N10  Cn4  v100
 BYTE   N10  Cn3  v120
 BYTE   W09
 BYTE   N12  Gs3  v100
 BYTE   N12  Gs2  v120
 BYTE   W12
 BYTE   An3  v100
 BYTE   N12  An2  v120
 BYTE   W12
 BYTE   Cn4  v100
 BYTE   N12  Cn3  v120
 BYTE   W12
 BYTE   En4  v100
 BYTE   N12  En3  v120
 BYTE   W12
 BYTE   Gn4  v100
 BYTE   N12  Gn3  v120
 BYTE   W12
 BYTE   N03  Fs4  v100
 BYTE   N03  Fs3  v120
 BYTE   W03
 BYTE   Gn4  v100
 BYTE   N03  Gn3  v120
 BYTE   W03
 BYTE   N06  Fs4  v100
 BYTE   N06  Fs3  v120
 BYTE   W06
 BYTE   N12  Dn4  v100
 BYTE   N12  Dn3  v120
 BYTE   W12
// 009   ----------------------------------------
 BYTE   N03  Gn4  v100
 BYTE   N03  Gn3  v120
 BYTE   W03
 BYTE   N10  Fn4  v100
 BYTE   N10  Fn3  v120
 BYTE   W09
 BYTE   N12  En4  v100
 BYTE   N12  En3  v120
 BYTE   W12
 BYTE   Ds4  v100
 BYTE   N12  Ds3  v120
 BYTE   W12
 BYTE   N60  En4  v100
 BYTE   N60  En3  v120
 BYTE   W60
// 010   ----------------------------------------
 BYTE   N03  Bn3  v100
 BYTE   N03  Bn2  v120
 BYTE   W03
 BYTE   N10  Cn4  v100
 BYTE   N10  Cn3  v120
 BYTE   W09
 BYTE   N12  Gs3  v100
 BYTE   N12  Gs2  v120
 BYTE   W12
 BYTE   An3  v100
 BYTE   N12  An2  v120
 BYTE   W12
 BYTE   Cn4  v100
 BYTE   N12  Cn3  v120
 BYTE   W12
 BYTE   En4  v100
 BYTE   N12  En3  v120
 BYTE   W12
 BYTE   Gn4  v100
 BYTE   N12  Gn3  v120
 BYTE   W12
 BYTE   N03  Fs4  v100
 BYTE   N03  Fs3  v120
 BYTE   W03
 BYTE   Gn4  v100
 BYTE   N03  Gn3  v120
 BYTE   W03
 BYTE   N06  Fs4  v100
 BYTE   N06  Fs3  v120
 BYTE   W06
 BYTE   N12  Dn4  v100
 BYTE   N12  Dn3  v120
 BYTE   W12
// 011   ----------------------------------------
 BYTE   N03  Gn4  v100
 BYTE   N03  Gn3  v120
 BYTE   W03
 BYTE   N10  Fn4  v100
 BYTE   N10  Fn3  v120
 BYTE   W09
 BYTE   N12  En4  v100
 BYTE   N12  En3  v120
 BYTE   W12
 BYTE   Ds4  v100
 BYTE   N12  Ds3  v120
 BYTE   W12
 BYTE   N60  En4  v100
 BYTE   N60  En3  v120
 BYTE   W60
// 012   ----------------------------------------
Label_12_54FEF4:
 BYTE   N03  Gs4  v100
 BYTE   N03  Gs3  v120
 BYTE   W03
 BYTE   N10  An4  v100
 BYTE   N10  An3  v120
 BYTE   W09
 BYTE   N12  En4  v100
 BYTE   N12  En3  v120
 BYTE   W12
 BYTE   Fn4  v100
 BYTE   N12  Fn3  v120
 BYTE   W12
 BYTE   An4  v100
 BYTE   N12  An3  v120
 BYTE   W12
 BYTE   N03  Bn4  v100
 BYTE   N03  Bn3  v120
 BYTE   W03
 BYTE   N09  Cn5  v100
 BYTE   N09  Cn4  v120
 BYTE   W09
 BYTE   N24  Bn4  v100
 BYTE   N24  Bn3  v120
 BYTE   W24
 BYTE   N12  Gs4  v100
 BYTE   N12  Gs3  v120
 BYTE   W12
 BYTE   PEND 
// 013   ----------------------------------------
 BYTE   N12  As4  v100
 BYTE   N12  As3  v120
 BYTE   W12
 BYTE   N03  An4  v100
 BYTE   N03  An3  v120
 BYTE   W03
 BYTE   As4  v100
 BYTE   N03  As3  v120
 BYTE   W03
 BYTE   N06  An4  v100
 BYTE   N06  An3  v120
 BYTE   W06
 BYTE   N12  Gs4  v100
 BYTE   N12  Gs3  v120
 BYTE   W12
 BYTE   N60  An4  v100
 BYTE   N60  An3  v120
 BYTE   W60
// 014   ----------------------------------------
 BYTE   PATT
  POIN2 Label_12_54FEF4
// 015   ----------------------------------------
 BYTE   N12  As4  v100
 BYTE   N12  As3  v120
 BYTE   W12
 BYTE   N03  An4  v100
 BYTE   N03  An3  v120
 BYTE   W03
 BYTE   As4  v100
 BYTE   N03  As3  v120
 BYTE   W03
 BYTE   N06  An4  v100
 BYTE   N06  An3  v120
 BYTE   W06
 BYTE   N12  Gs4  v100
 BYTE   N12  Gs3  v120
 BYTE   W12
 BYTE   N60  An4  v100
 BYTE   N60  An3  v120
 BYTE   W10
 BYTE   W48
 BYTE   W01
 BYTE   W92
// 016   ----------------------------------------
 BYTE   W02
 BYTE   W96
// 017   ----------------------------------------
 BYTE   W96
// 018   ----------------------------------------
 BYTE   W96
// 019   ----------------------------------------
 BYTE   W96
// 020   ----------------------------------------
 BYTE   W96
// 021   ----------------------------------------
 BYTE   W96
// 022   ----------------------------------------
 BYTE   W90
 BYTE   GoTo
  POIN2 Label_12_54FE0C
 BYTE   FINE

//******************************************************//
	ALIGN 4

FF3CloudofDarknessRSflame:
	BYTE	13	// NumTrks
	BYTE	0	// NumBlks
	BYTE	FF3CloudofDarknessRSflame_pri	// Priority
	BYTE	FF3CloudofDarknessRSflame_rev	// Reverb.
    
	POIN2	FF3CloudofDarknessRSflame_grp
    
	POIN2	FF3CloudofDarknessRSflame_001
	POIN2	FF3CloudofDarknessRSflame_002
	POIN2	FF3CloudofDarknessRSflame_003
	POIN2	FF3CloudofDarknessRSflame_004
	POIN2	FF3CloudofDarknessRSflame_005
	POIN2	FF3CloudofDarknessRSflame_006
	POIN2	FF3CloudofDarknessRSflame_007
	POIN2	FF3CloudofDarknessRSflame_008
	POIN2	FF3CloudofDarknessRSflame_009
	POIN2	FF3CloudofDarknessRSflame_010
	POIN2	FF3CloudofDarknessRSflame_011
	POIN2	FF3CloudofDarknessRSflame_012
	POIN2	FF3CloudofDarknessRSflame_013

	
