//Event file generated from Sappy .s format.
	#include "MPlayDef.event"

	#define	FF4IntotheDarknessSme_grp  voicegroup000
	#define	FF4IntotheDarknessSme_pri  0
	#define	FF4IntotheDarknessSme_rev  0
	#define	FF4IntotheDarknessSme_mvl  127
	#define	FF4IntotheDarknessSme_key  0
	#define	FF4IntotheDarknessSme_tbs  1
	#define	FF4IntotheDarknessSme_exg  0
	#define	FF4IntotheDarknessSme_cmp  1

	// .rodata
	//	FF4IntotheDarknessSme
	ALIGN 4


//**************** Track 1 (Midi-Chn.0) ****************//

FF4IntotheDarknessSme_001:
//  #01 //000   ----------------------------------------
 BYTE   KEYSH   FF4IntotheDarknessSme_key+0
 BYTE   TEMPO   132*FF4IntotheDarknessSme_tbs/2
 BYTE   VOICE   73
 BYTE   VOL   64*FF4IntotheDarknessSme_mvl/mxv
 BYTE   W72
 BYTE   W72
//  #01 //001   ----------------------------------------
 BYTE   W72
 BYTE   W72
//  #01 //002   ----------------------------------------
Label_010061BC:
 BYTE   N24  Fn3  v092
 BYTE   W24
 BYTE   Gn3
 BYTE   W24
 BYTE   Gs3
 BYTE   W24
Label_010061C4:
 BYTE   N24  Fn4  v092
 BYTE   W24
//  #01 //003   ----------------------------------------
 BYTE   En4
 BYTE   W24
 BYTE   Cn4
 BYTE   W24
 BYTE   PEND 
Label_010061CD:
 BYTE   N24  Ds4  v092
 BYTE   W24
 BYTE   Cs4
 BYTE   W24
//  #01 //004   ----------------------------------------
 BYTE   As3
 BYTE   W24
 BYTE   PEND 
Label_010061D6:
 BYTE   N36  Fs3  v092
 BYTE   W36
 BYTE   N12
 BYTE   W12
 BYTE   Gs3
 BYTE   W12
 BYTE   Fs3
 BYTE   W12
 BYTE   PEND 
//  #01 //005   ----------------------------------------
Label_010061E1:
 BYTE   MOD 0
 BYTE   N72  Fn3  v092
 BYTE   W60
 BYTE   MOD 34
 BYTE   W12
 BYTE   PEND 
Label_010061EB:
 BYTE   MOD 0
 BYTE   N72  Cn4  v092
 BYTE   W60
//  #01 //006   ----------------------------------------
 BYTE   MOD 34
 BYTE   W12
 BYTE   PEND 
 BYTE   CnM2
 BYTE   N72  Ds3
 BYTE   W60
 BYTE   MOD 34
 BYTE   W12
 BYTE   MOD 0
 BYTE   N72  As3
 BYTE   W60
//  #01 //007   ----------------------------------------
 BYTE   MOD 34
 BYTE   W12
 BYTE   MOD 0
 BYTE   N24  Fn3
 BYTE   W24
 BYTE   Gn3
 BYTE   W24
 BYTE   Gs3
 BYTE   W24
//  #01 //008   ----------------------------------------
 BYTE   PATT
  POIN2 Label_010061C4
//  #01 //009   ----------------------------------------
 BYTE   PATT
  POIN2 Label_010061CD
//  #01 //010   ----------------------------------------
 BYTE   PATT
  POIN2 Label_010061D6
//  #01 //011   ----------------------------------------
 BYTE   PATT
  POIN2 Label_010061E1
//  #01 //012   ----------------------------------------
 BYTE   PATT
  POIN2 Label_010061EB
//  #01 //013   ----------------------------------------
 BYTE   MOD 0
 BYTE   N72  Fs3  v092
 BYTE   W60
 BYTE   MOD 34
 BYTE   W12
 BYTE   MOD 0
 BYTE   N72  Cs4
 BYTE   W60
//  #01 //014   ----------------------------------------
 BYTE   MOD 34
 BYTE   W12
Label_01006234:
 BYTE   MOD 0
 BYTE   N24  Gs3  v092
 BYTE   W24
 BYTE   As3
 BYTE   W24
 BYTE   Cn4
 BYTE   W24
 BYTE   PEND 
//  #01 //015   ----------------------------------------
 BYTE   PATT
  POIN2 Label_010061CD
//  #01 //016   ----------------------------------------
 BYTE   MOD 0
 BYTE   TIE  Fs3  v092
 BYTE   W60
 BYTE   MOD 34
 BYTE   W12
 BYTE   W72
//  #01 //017   ----------------------------------------
 BYTE   EOT
//  #01 //018   ----------------------------------------
 BYTE   PATT
  POIN2 Label_01006234
//  #01 //019   ----------------------------------------
 BYTE   N24  Ds4  v092
 BYTE   W24
 BYTE   Cs4
 BYTE   W24
 BYTE   Ds4
 BYTE   W24
Label_0100625C:
 BYTE   MOD 0
 BYTE   N72  Fs4  v092
 BYTE   W60
//  #01 //020   ----------------------------------------
 BYTE   MOD 34
 BYTE   W12
 BYTE   PEND 
Label_01006266:
 BYTE   MOD 0
 BYTE   N72  Dn4  v092
 BYTE   W60
 BYTE   MOD 34
 BYTE   W12
 BYTE   PEND 
//  #01 //021   ----------------------------------------
 BYTE   PATT
  POIN2 Label_0100625C
//  #01 //022   ----------------------------------------
Label_01006275:
 BYTE   MOD 0
 BYTE   N24  Gs4  v092
 BYTE   W24
 BYTE   Fs4
 BYTE   W24
 BYTE   Gs4
 BYTE   W24
 BYTE   PEND 
 BYTE   MOD 0
 BYTE   TIE  An4
 BYTE   W60
//  #01 //023   ----------------------------------------
 BYTE   MOD 34
 BYTE   W12
 BYTE   W72
 BYTE   EOT
//  #01 //024   ----------------------------------------
 BYTE   PATT
  POIN2 Label_0100625C
//  #01 //025   ----------------------------------------
 BYTE   PATT
  POIN2 Label_01006266
//  #01 //026   ----------------------------------------
 BYTE   PATT
  POIN2 Label_0100625C
//  #01 //027   ----------------------------------------
 BYTE   PATT
  POIN2 Label_01006275
//  #01 //028   ----------------------------------------
 BYTE   MOD 0
 BYTE   TIE  As4  v092
 BYTE   W60
 BYTE   MOD 34
 BYTE   W12
 BYTE   W72
//  #01 //029   ----------------------------------------
 BYTE   EOT
 BYTE   MOD 0
 BYTE   W72
 BYTE   W72
//  #01 //030   ----------------------------------------
 BYTE   GoTo
  POIN2 Label_010061BC
 BYTE   FINE

//**************** Track 2 (Midi-Chn.1) ****************//

FF4IntotheDarknessSme_002:
//  #02 //000   ----------------------------------------
 BYTE   KEYSH   FF4IntotheDarknessSme_key+0
 BYTE   VOICE   13
 BYTE   VOL   46*FF4IntotheDarknessSme_mvl/mxv
 BYTE   W72
 BYTE   W72
//  #02 //001   ----------------------------------------
 BYTE   W72
 BYTE   W72
//  #02 //002   ----------------------------------------
Label_010076B2:
 BYTE   N07  Gs2  v076
 BYTE   W08
 BYTE   Cn3
 BYTE   W08
 BYTE   Fn3
 BYTE   W08
 BYTE   Gs3
 BYTE   W08
 BYTE   Cn4
 BYTE   W08
 BYTE   Fn4
 BYTE   W08
 BYTE   Gs4
 BYTE   W08
 BYTE   Cn5
 BYTE   W08
 BYTE   Fn5
 BYTE   W08
 BYTE   PEND 
//  #02 //003   ----------------------------------------
 BYTE   PATT
  POIN2 Label_010076B2
//  #02 //004   ----------------------------------------
Label_010076CC:
 BYTE   N07  As2  v076
 BYTE   W08
 BYTE   Cs3
 BYTE   W08
 BYTE   Fs3
 BYTE   W08
 BYTE   As3
 BYTE   W08
 BYTE   Cs4
 BYTE   W08
 BYTE   Fs4
 BYTE   W08
 BYTE   As4
 BYTE   W08
 BYTE   Cs5
 BYTE   W08
 BYTE   Fs5
 BYTE   W08
 BYTE   PEND 
//  #02 //005   ----------------------------------------
 BYTE   PATT
  POIN2 Label_010076CC
//  #02 //006   ----------------------------------------
 BYTE   PATT
  POIN2 Label_010076B2
//  #02 //007   ----------------------------------------
 BYTE   PATT
  POIN2 Label_010076B2
//  #02 //008   ----------------------------------------
 BYTE   PATT
  POIN2 Label_010076CC
//  #02 //009   ----------------------------------------
 BYTE   PATT
  POIN2 Label_010076CC
//  #02 //010   ----------------------------------------
 BYTE   PATT
  POIN2 Label_010076B2
//  #02 //011   ----------------------------------------
 BYTE   PATT
  POIN2 Label_010076B2
//  #02 //012   ----------------------------------------
 BYTE   PATT
  POIN2 Label_010076CC
//  #02 //013   ----------------------------------------
 BYTE   PATT
  POIN2 Label_010076CC
//  #02 //014   ----------------------------------------
 BYTE   PATT
  POIN2 Label_010076B2
//  #02 //015   ----------------------------------------
 BYTE   PATT
  POIN2 Label_010076B2
//  #02 //016   ----------------------------------------
 BYTE   PATT
  POIN2 Label_010076CC
//  #02 //017   ----------------------------------------
 BYTE   PATT
  POIN2 Label_010076CC
//  #02 //018   ----------------------------------------
Label_01007722:
 BYTE   N07  Gs2  v076
 BYTE   W08
 BYTE   Cn3
 BYTE   W08
 BYTE   Ds3
 BYTE   W08
 BYTE   Gs3
 BYTE   W08
 BYTE   Cn4
 BYTE   W08
 BYTE   Ds4
 BYTE   W08
 BYTE   Gs4
 BYTE   W08
 BYTE   Cn5
 BYTE   W08
 BYTE   Ds5
 BYTE   W08
 BYTE   PEND 
//  #02 //019   ----------------------------------------
 BYTE   PATT
  POIN2 Label_01007722
//  #02 //020   ----------------------------------------
Label_0100773C:
 BYTE   N07  Fs2  v076
 BYTE   W08
 BYTE   As2
 BYTE   W08
 BYTE   Ds3
 BYTE   W08
 BYTE   Fs3
 BYTE   W08
 BYTE   As3
 BYTE   W08
 BYTE   Ds4
 BYTE   W08
 BYTE   Fs4
 BYTE   W08
 BYTE   As4
 BYTE   W08
 BYTE   Ds5
 BYTE   W08
 BYTE   PEND 
//  #02 //021   ----------------------------------------
 BYTE   PATT
  POIN2 Label_0100773C
//  #02 //022   ----------------------------------------
 BYTE   PATT
  POIN2 Label_01007722
//  #02 //023   ----------------------------------------
 BYTE   PATT
  POIN2 Label_01007722
//  #02 //024   ----------------------------------------
Label_01007760:
 BYTE   N07  Fs2  v076
 BYTE   W08
 BYTE   Bn2
 BYTE   W08
 BYTE   Dn3
 BYTE   W08
 BYTE   Fs3
 BYTE   W08
 BYTE   Bn3
 BYTE   W08
 BYTE   Dn4
 BYTE   W08
 BYTE   Fs4
 BYTE   W08
 BYTE   Bn4
 BYTE   W08
 BYTE   Dn5
 BYTE   W08
 BYTE   PEND 
Label_01007775:
 BYTE   N07  Gn2  v076
 BYTE   W08
 BYTE   Bn2
 BYTE   W08
 BYTE   Dn3
 BYTE   W08
//  #02 //025   ----------------------------------------
 BYTE   Gn3
 BYTE   W08
 BYTE   Bn3
 BYTE   W08
 BYTE   Dn4
 BYTE   W08
 BYTE   Gn4
 BYTE   W08
 BYTE   Bn4
 BYTE   W08
 BYTE   Dn5
 BYTE   W08
 BYTE   PEND 
//  #02 //026   ----------------------------------------
 BYTE   PATT
  POIN2 Label_01007760
//  #02 //027   ----------------------------------------
 BYTE   N07  Gs2  v076
 BYTE   W08
 BYTE   Cs3
 BYTE   W08
 BYTE   En3
 BYTE   W08
 BYTE   Gs3
 BYTE   W08
 BYTE   Cs4
 BYTE   W08
 BYTE   En4
 BYTE   W08
 BYTE   Gs4
 BYTE   W08
 BYTE   Cs5
 BYTE   W08
 BYTE   En5
 BYTE   W08
Label_010077A3:
 BYTE   N07  An2  v076
 BYTE   W08
 BYTE   Cs3
 BYTE   W08
 BYTE   Fs3
 BYTE   W08
//  #02 //028   ----------------------------------------
 BYTE   An3
 BYTE   W08
 BYTE   Cs4
 BYTE   W08
 BYTE   Fs4
 BYTE   W08
 BYTE   An4
 BYTE   W08
 BYTE   Cs5
 BYTE   W08
 BYTE   Fs5
 BYTE   W08
 BYTE   PEND 
//  #02 //029   ----------------------------------------
 BYTE   PATT
  POIN2 Label_010077A3
//  #02 //030   ----------------------------------------
 BYTE   PATT
  POIN2 Label_01007760
//  #02 //031   ----------------------------------------
 BYTE   PATT
  POIN2 Label_01007775
//  #02 //032   ----------------------------------------
 BYTE   PATT
  POIN2 Label_01007760
//  #02 //033   ----------------------------------------
 BYTE   N07  Gs2  v076
 BYTE   W08
 BYTE   Bn2
 BYTE   W08
 BYTE   En3
 BYTE   W08
 BYTE   Gs3
 BYTE   W08
 BYTE   Bn3
 BYTE   W08
 BYTE   En4
 BYTE   W08
 BYTE   Gs4
 BYTE   W08
 BYTE   Bn4
 BYTE   W08
 BYTE   En5
 BYTE   W08
 BYTE   N11  As4
 BYTE   W12
 BYTE   Gn4
 BYTE   W12
//  #02 //034   ----------------------------------------
 BYTE   Fs4
 BYTE   W12
 BYTE   En4
 BYTE   W12
 BYTE   Cs4
 BYTE   W12
 BYTE   Cn4
 BYTE   W12
 BYTE   As3
 BYTE   W12
 BYTE   Gn3
 BYTE   W12
 BYTE   Fs3
 BYTE   W12
 BYTE   En3
 BYTE   W12
//  #02 //035   ----------------------------------------
 BYTE   Cs3
 BYTE   W12
 BYTE   Cn3
 BYTE   W12
 BYTE   As4
 BYTE   W02
 BYTE   W02
 BYTE   W02
 BYTE   W03
 BYTE   W02
 BYTE   W01
 BYTE   Gn4
 BYTE   W01
 BYTE   W03
 BYTE   W02
 BYTE   W02
 BYTE   W02
 BYTE   W02
 BYTE   Fs4
 BYTE   W01
 BYTE   W02
 BYTE   W02
 BYTE   W03
 BYTE   W02
 BYTE   W02
 BYTE   En4
 BYTE   W02
 BYTE   W03
 BYTE   W02
 BYTE   W02
 BYTE   W03
 BYTE   Cs4
 BYTE   W02
 BYTE   W02
 BYTE   W02
 BYTE   W03
 BYTE   W02
 BYTE   W01
 BYTE   Cn4
 BYTE   W01
 BYTE   W03
 BYTE   W02
 BYTE   W02
 BYTE   W02
 BYTE   W02
//  #02 //036   ----------------------------------------
 BYTE   As3
 BYTE   W01
 BYTE   W02
 BYTE   W02
 BYTE   W03
 BYTE   W02
 BYTE   W02
 BYTE   Gn3
 BYTE   W02
 BYTE   W03
 BYTE   W02
 BYTE   W02
 BYTE   W03
 BYTE   Fs3
 BYTE   W02
 BYTE   W02
 BYTE   W02
 BYTE   W03
 BYTE   W02
 BYTE   W01
 BYTE   En3
 BYTE   W01
 BYTE   W03
 BYTE   W02
 BYTE   W02
 BYTE   W02
 BYTE   W02
 BYTE   Cs3
 BYTE   W01
 BYTE   W02
 BYTE   W02
 BYTE   W03
 BYTE   W02
 BYTE   W02
 BYTE   Cn3
 BYTE   W02
 BYTE   W03
 BYTE   W02
 BYTE   W02
 BYTE   W03
 BYTE   GoTo
  POIN2 Label_010076B2
 BYTE   FINE

//**************** Track 3 (Midi-Chn.2) ****************//

FF4IntotheDarknessSme_003:
//  #03 //000   ----------------------------------------
 BYTE   KEYSH   FF4IntotheDarknessSme_key+0
 BYTE   VOICE   48
 BYTE   VOL   54*FF4IntotheDarknessSme_mvl/mxv
 BYTE   N12  As4  v076
 BYTE   W04
 BYTE   W05
 BYTE   W03
 BYTE   Gn4
 BYTE   W01
 BYTE   W05
 BYTE   W04
 BYTE   W02
 BYTE   As4
 BYTE   W03
 BYTE   W05
 BYTE   W04
 BYTE   Gn4
 BYTE   W05
 BYTE   W04
 BYTE   W03
 BYTE   As4
 BYTE   W02
 BYTE   W04
 BYTE   W05
 BYTE   W01
 BYTE   Gn4
 BYTE   W04
 BYTE   W04
 BYTE   W04
 BYTE   As4
 BYTE   W01
 BYTE   W04
 BYTE   W05
 BYTE   W02
 BYTE   Gn4
 BYTE   W02
 BYTE   W05
 BYTE   W05
//  #03 //001   ----------------------------------------
 BYTE   As4
 BYTE   W04
 BYTE   W05
 BYTE   W03
 BYTE   Gn4
 BYTE   W01
 BYTE   W05
 BYTE   W04
 BYTE   W02
 BYTE   As4
 BYTE   W03
 BYTE   W05
 BYTE   W04
 BYTE   Gn4
 BYTE   W05
 BYTE   W04
 BYTE   W03
 BYTE   As4
 BYTE   W02
 BYTE   W04
 BYTE   W05
 BYTE   W01
 BYTE   Gn4
 BYTE   W04
 BYTE   W04
 BYTE   W04
 BYTE   As4
 BYTE   W01
 BYTE   W04
 BYTE   W05
 BYTE   W02
 BYTE   Gn4
 BYTE   W02
 BYTE   W05
 BYTE   W05
//  #03 //002   ----------------------------------------
 BYTE   As4
 BYTE   W04
 BYTE   W05
 BYTE   W03
 BYTE   Gn4
 BYTE   W01
 BYTE   W05
 BYTE   W04
 BYTE   W02
 BYTE   As4
 BYTE   W03
 BYTE   W05
 BYTE   W04
 BYTE   Gn4
 BYTE   W05
 BYTE   W04
 BYTE   W03
 BYTE   As4
 BYTE   W02
 BYTE   W04
 BYTE   W05
 BYTE   W01
 BYTE   Gn4
 BYTE   W04
 BYTE   W04
 BYTE   W04
 BYTE   As4
 BYTE   W01
 BYTE   W04
 BYTE   W05
 BYTE   W02
 BYTE   Gn4
 BYTE   W02
 BYTE   W05
 BYTE   W05
//  #03 //003   ----------------------------------------
Label_01006CED:
 BYTE   N24  Fn4  v076
 BYTE   W24
 BYTE   Gn4
 BYTE   W24
 BYTE   Gs4
 BYTE   W24
Label_01006CF5:
 BYTE   N24  Fn5  v076
 BYTE   W24
//  #03 //004   ----------------------------------------
 BYTE   En5
 BYTE   W24
 BYTE   Cn5
 BYTE   W24
 BYTE   PEND 
Label_01006CFE:
 BYTE   N24  Ds5  v076
 BYTE   W24
 BYTE   Cs5
 BYTE   W24
//  #03 //005   ----------------------------------------
 BYTE   As4
 BYTE   W24
 BYTE   PEND 
 BYTE   N72  Fs4
 BYTE   W72
//  #03 //006   ----------------------------------------
 BYTE   Fn4
 BYTE   W72
 BYTE   Cn5
 BYTE   W72
//  #03 //007   ----------------------------------------
 BYTE   Ds4
 BYTE   W72
 BYTE   As4
 BYTE   W72
//  #03 //008   ----------------------------------------
 BYTE   N24  Fn4
 BYTE   W24
 BYTE   Gn4
 BYTE   W24
 BYTE   Gs4
 BYTE   W24
//  #03 //009   ----------------------------------------
 BYTE   PATT
  POIN2 Label_01006CF5
//  #03 //010   ----------------------------------------
 BYTE   PATT
  POIN2 Label_01006CFE
//  #03 //011   ----------------------------------------
 BYTE   N72  Fs4  v076
 BYTE   W72
 BYTE   Fn4
 BYTE   W72
//  #03 //012   ----------------------------------------
 BYTE   Cn5
 BYTE   W72
 BYTE   Fs4
 BYTE   W72
//  #03 //013   ----------------------------------------
 BYTE   Cs5
 BYTE   W72
Label_01006D2F:
 BYTE   N24  Gs3  v076
 BYTE   W24
//  #03 //014   ----------------------------------------
 BYTE   As3
 BYTE   W24
 BYTE   Cn4
 BYTE   W24
 BYTE   PEND 
 BYTE   Ds4
 BYTE   W24
 BYTE   Cs4
 BYTE   W24
//  #03 //015   ----------------------------------------
 BYTE   As3
 BYTE   W24
 BYTE   TIE  Fs3
 BYTE   W72
//  #03 //016   ----------------------------------------
 BYTE   W72
 BYTE   EOT
//  #03 //017   ----------------------------------------
 BYTE   PATT
  POIN2 Label_01006D2F
//  #03 //018   ----------------------------------------
 BYTE   N24  Ds4  v076
 BYTE   W24
 BYTE   Cs4
 BYTE   W24
 BYTE   Ds4
 BYTE   W24
 BYTE   N72  Fs4
 BYTE   W72
//  #03 //019   ----------------------------------------
 BYTE   Dn4
 BYTE   W72
 BYTE   Fs4
 BYTE   W72
//  #03 //020   ----------------------------------------
Label_01006D57:
 BYTE   N24  Gs4  v076
 BYTE   W24
 BYTE   Fs4
 BYTE   W24
 BYTE   Gs4
 BYTE   W24
 BYTE   PEND 
 BYTE   TIE  An4
 BYTE   W72
//  #03 //021   ----------------------------------------
 BYTE   W72
 BYTE   EOT
 BYTE   N72  Fs4
 BYTE   W72
//  #03 //022   ----------------------------------------
 BYTE   Dn4
 BYTE   W72
 BYTE   Fs4
 BYTE   W72
//  #03 //023   ----------------------------------------
 BYTE   PATT
  POIN2 Label_01006D57
//  #03 //024   ----------------------------------------
 BYTE   N12  As4  v076
 BYTE   W04
 BYTE   W05
 BYTE   W03
 BYTE   Gn4
 BYTE   W01
 BYTE   W05
 BYTE   W04
 BYTE   W02
 BYTE   As4
 BYTE   W03
 BYTE   W05
 BYTE   W04
 BYTE   Gn4
 BYTE   W05
 BYTE   W04
 BYTE   W03
 BYTE   As4
 BYTE   W02
 BYTE   W04
 BYTE   W05
 BYTE   W01
 BYTE   Gn4
 BYTE   W04
 BYTE   W04
 BYTE   W04
 BYTE   As4
 BYTE   W01
 BYTE   W04
 BYTE   W05
 BYTE   W02
 BYTE   Gn4
 BYTE   W02
 BYTE   W05
 BYTE   W05
//  #03 //025   ----------------------------------------
 BYTE   As4
 BYTE   W04
 BYTE   W05
 BYTE   W03
 BYTE   Gn4
 BYTE   W01
 BYTE   W05
 BYTE   W04
 BYTE   W02
 BYTE   As4
 BYTE   W03
 BYTE   W05
 BYTE   W04
 BYTE   Gn4
 BYTE   W05
 BYTE   W04
 BYTE   W03
 BYTE   As4
 BYTE   W02
 BYTE   W04
 BYTE   W05
 BYTE   W01
 BYTE   Gn4
 BYTE   W04
 BYTE   W04
 BYTE   W04
 BYTE   As4
 BYTE   W01
 BYTE   W04
 BYTE   W05
 BYTE   W02
 BYTE   Gn4
 BYTE   W02
 BYTE   W05
 BYTE   W05
//  #03 //026   ----------------------------------------
 BYTE   As4
 BYTE   W04
 BYTE   W05
 BYTE   W03
 BYTE   Gn4
 BYTE   W01
 BYTE   W05
 BYTE   W04
 BYTE   W02
 BYTE   As4
 BYTE   W03
 BYTE   W05
 BYTE   W04
 BYTE   Gn4
 BYTE   W05
 BYTE   W04
 BYTE   W03
 BYTE   As4
 BYTE   W02
 BYTE   W04
 BYTE   W05
 BYTE   W01
 BYTE   Gn4
 BYTE   W04
 BYTE   W04
 BYTE   W04
 BYTE   As4
 BYTE   W01
 BYTE   W04
 BYTE   W05
 BYTE   W02
 BYTE   Gn4
 BYTE   W02
 BYTE   W05
 BYTE   W05
//  #03 //027   ----------------------------------------
 BYTE   GoTo
  POIN2 Label_01006CED
 BYTE   FINE

//**************** Track 4 (Midi-Chn.3) ****************//

FF4IntotheDarknessSme_004:
//  #04 //000   ----------------------------------------
 BYTE   KEYSH   FF4IntotheDarknessSme_key+0
 BYTE   VOICE   48
 BYTE   VOL   55*FF4IntotheDarknessSme_mvl/mxv
 BYTE   PAN   c_v+20
 BYTE   N12  Cs4  v076
 BYTE   W04
 BYTE   W05
 BYTE   W03
 BYTE   Cn4
 BYTE   W01
 BYTE   W05
 BYTE   W04
 BYTE   W02
 BYTE   Cs4
 BYTE   W03
 BYTE   W05
 BYTE   W04
 BYTE   Cn4
 BYTE   W05
 BYTE   W04
 BYTE   W03
 BYTE   Cs4
 BYTE   W02
 BYTE   W04
 BYTE   W05
 BYTE   W01
 BYTE   Cn4
 BYTE   W04
 BYTE   W04
 BYTE   W04
 BYTE   Cs4
 BYTE   W01
 BYTE   W04
 BYTE   W05
 BYTE   W02
 BYTE   Cn4
 BYTE   W02
 BYTE   W05
 BYTE   W05
//  #04 //001   ----------------------------------------
 BYTE   Cs4
 BYTE   W04
 BYTE   W05
 BYTE   W03
 BYTE   Cn4
 BYTE   W01
 BYTE   W05
 BYTE   W04
 BYTE   W02
 BYTE   Cs4
 BYTE   W03
 BYTE   W05
 BYTE   W04
 BYTE   Cn4
 BYTE   W05
 BYTE   W04
 BYTE   W03
 BYTE   Cs4
 BYTE   W02
 BYTE   W04
 BYTE   W05
 BYTE   W01
 BYTE   Cn4
 BYTE   W04
 BYTE   W04
 BYTE   W04
 BYTE   Cs4
 BYTE   W01
 BYTE   W04
 BYTE   W05
 BYTE   W02
 BYTE   Cn4
 BYTE   W02
 BYTE   W05
 BYTE   W05
//  #04 //002   ----------------------------------------
 BYTE   Cs4
 BYTE   W04
 BYTE   W05
 BYTE   W03
 BYTE   Cn4
 BYTE   W01
 BYTE   W05
 BYTE   W04
 BYTE   W02
 BYTE   Cs4
 BYTE   W03
 BYTE   W05
 BYTE   W04
 BYTE   Cn4
 BYTE   W05
 BYTE   W04
 BYTE   W03
 BYTE   Cs4
 BYTE   W02
 BYTE   W04
 BYTE   W05
 BYTE   W01
 BYTE   Cn4
 BYTE   W04
 BYTE   W04
 BYTE   W04
 BYTE   Cs4
 BYTE   W01
 BYTE   W04
 BYTE   W05
 BYTE   W02
 BYTE   Cn4
 BYTE   W02
 BYTE   W05
 BYTE   W05
//  #04 //003   ----------------------------------------
Label_010069BB:
 BYTE   TIE  Gs3  v076
 BYTE   W72
 BYTE   W72
//  #04 //004   ----------------------------------------
 BYTE   EOT
 BYTE   TIE  As3
 BYTE   W72
 BYTE   W72
//  #04 //005   ----------------------------------------
 BYTE   EOT
 BYTE   TIE  Gs3
 BYTE   W72
 BYTE   W72
//  #04 //006   ----------------------------------------
 BYTE   EOT
 BYTE   TIE  As3
 BYTE   W72
 BYTE   W72
//  #04 //007   ----------------------------------------
 BYTE   EOT
 BYTE   TIE  Gs3
 BYTE   W72
 BYTE   W72
//  #04 //008   ----------------------------------------
 BYTE   EOT
 BYTE   TIE  As3
 BYTE   W72
 BYTE   W72
//  #04 //009   ----------------------------------------
 BYTE   EOT
 BYTE   TIE  Gs3
 BYTE   W72
 BYTE   W72
//  #04 //010   ----------------------------------------
 BYTE   EOT
 BYTE   TIE  As3
 BYTE   W72
 BYTE   W72
//  #04 //011   ----------------------------------------
 BYTE   EOT
 BYTE   N72  Ds3
 BYTE   W72
 BYTE   Cn3
 BYTE   W72
//  #04 //012   ----------------------------------------
 BYTE   N48  Cs3
 BYTE   W48
 BYTE   N24  Cn3
 BYTE   W24
 BYTE   N72  As2
 BYTE   W72
//  #04 //013   ----------------------------------------
 BYTE   Cn3
 BYTE   W72
 BYTE   N48  Ds3
 BYTE   W48
//  #04 //014   ----------------------------------------
 BYTE   N24  Fn3
 BYTE   W24
 BYTE   N72  Fs3
 BYTE   W72
//  #04 //015   ----------------------------------------
Label_010069FD:
 BYTE   N48  Bn3  v076
 BYTE   W48
 BYTE   N24  Gn3
 BYTE   W24
 BYTE   PEND 
 BYTE   N72  Fs3
 BYTE   W72
//  #04 //016   ----------------------------------------
 BYTE   En3
 BYTE   W72
 BYTE   TIE  Fs3
 BYTE   W72
//  #04 //017   ----------------------------------------
 BYTE   W72
 BYTE   EOT
 BYTE   N72
 BYTE   W72
//  #04 //018   ----------------------------------------
 BYTE   PATT
  POIN2 Label_010069FD
//  #04 //019   ----------------------------------------
 BYTE   N72  Fs3  v076
 BYTE   W72
 BYTE   Gs3
 BYTE   W72
//  #04 //020   ----------------------------------------
 BYTE   N12  Cs4
 BYTE   W04
 BYTE   W05
 BYTE   W03
 BYTE   Cn4
 BYTE   W01
 BYTE   W05
 BYTE   W04
 BYTE   W02
 BYTE   Cs4
 BYTE   W03
 BYTE   W05
 BYTE   W04
 BYTE   Cn4
 BYTE   W05
 BYTE   W04
 BYTE   W03
 BYTE   Cs4
 BYTE   W02
 BYTE   W04
 BYTE   W05
 BYTE   W01
 BYTE   Cn4
 BYTE   W04
 BYTE   W04
 BYTE   W04
 BYTE   Cs4
 BYTE   W01
 BYTE   W04
 BYTE   W05
 BYTE   W02
 BYTE   Cn4
 BYTE   W02
 BYTE   W05
 BYTE   W05
//  #04 //021   ----------------------------------------
 BYTE   Cs4
 BYTE   W04
 BYTE   W05
 BYTE   W03
 BYTE   Cn4
 BYTE   W01
 BYTE   W05
 BYTE   W04
 BYTE   W02
 BYTE   Cs4
 BYTE   W03
 BYTE   W05
 BYTE   W04
 BYTE   Cn4
 BYTE   W05
 BYTE   W04
 BYTE   W03
 BYTE   Cs4
 BYTE   W02
 BYTE   W04
 BYTE   W05
 BYTE   W01
 BYTE   Cn4
 BYTE   W04
 BYTE   W04
 BYTE   W04
 BYTE   Cs4
 BYTE   W01
 BYTE   W04
 BYTE   W05
 BYTE   W02
 BYTE   Cn4
 BYTE   W02
 BYTE   W05
 BYTE   W05
//  #04 //022   ----------------------------------------
 BYTE   Cs4
 BYTE   W04
 BYTE   W05
 BYTE   W03
 BYTE   Cn4
 BYTE   W01
 BYTE   W05
 BYTE   W04
 BYTE   W02
 BYTE   Cs4
 BYTE   W03
 BYTE   W05
 BYTE   W04
 BYTE   Cn4
 BYTE   W05
 BYTE   W04
 BYTE   W03
 BYTE   Cs4
 BYTE   W02
 BYTE   W04
 BYTE   W05
 BYTE   W01
 BYTE   Cn4
 BYTE   W04
 BYTE   W04
 BYTE   W04
 BYTE   Cs4
 BYTE   W01
 BYTE   W04
 BYTE   W05
 BYTE   W02
 BYTE   Cn4
 BYTE   W02
 BYTE   W05
 BYTE   W05
//  #04 //023   ----------------------------------------
 BYTE   GoTo
  POIN2 Label_010069BB
 BYTE   FINE

//**************** Track 5 (Midi-Chn.4) ****************//

FF4IntotheDarknessSme_005:
//  #05 //000   ----------------------------------------
 BYTE   KEYSH   FF4IntotheDarknessSme_key+0
 BYTE   VOICE   48
 BYTE   VOL   54*FF4IntotheDarknessSme_mvl/mxv
 BYTE   PAN   c_v-20
 BYTE   N12  Fs3  v076
 BYTE   W04
 BYTE   W05
 BYTE   W03
 BYTE   En3
 BYTE   W01
 BYTE   W05
 BYTE   W04
 BYTE   W02
 BYTE   Fs3
 BYTE   W03
 BYTE   W05
 BYTE   W04
 BYTE   En3
 BYTE   W05
 BYTE   W04
 BYTE   W03
 BYTE   Fs3
 BYTE   W02
 BYTE   W04
 BYTE   W05
 BYTE   W01
 BYTE   En3
 BYTE   W04
 BYTE   W04
 BYTE   W04
 BYTE   Fs3
 BYTE   W01
 BYTE   W04
 BYTE   W05
 BYTE   W02
 BYTE   En3
 BYTE   W02
 BYTE   W05
 BYTE   W05
//  #05 //001   ----------------------------------------
 BYTE   Fs3
 BYTE   W04
 BYTE   W05
 BYTE   W03
 BYTE   En3
 BYTE   W01
 BYTE   W05
 BYTE   W04
 BYTE   W02
 BYTE   Fs3
 BYTE   W03
 BYTE   W05
 BYTE   W04
 BYTE   En3
 BYTE   W05
 BYTE   W04
 BYTE   W03
 BYTE   Fs3
 BYTE   W02
 BYTE   W04
 BYTE   W05
 BYTE   W01
 BYTE   En3
 BYTE   W04
 BYTE   W04
 BYTE   W04
 BYTE   Fs3
 BYTE   W01
 BYTE   W04
 BYTE   W05
 BYTE   W02
 BYTE   En3
 BYTE   W02
 BYTE   W05
 BYTE   W05
//  #05 //002   ----------------------------------------
 BYTE   Fs3
 BYTE   W04
 BYTE   W05
 BYTE   W03
 BYTE   En3
 BYTE   W01
 BYTE   W05
 BYTE   W04
 BYTE   W02
 BYTE   Fs3
 BYTE   W03
 BYTE   W05
 BYTE   W04
 BYTE   En3
 BYTE   W05
 BYTE   W04
 BYTE   W03
 BYTE   Fs3
 BYTE   W02
 BYTE   W04
 BYTE   W05
 BYTE   W01
 BYTE   En3
 BYTE   W04
 BYTE   W04
 BYTE   W04
 BYTE   Fs3
 BYTE   W01
 BYTE   W04
 BYTE   W05
 BYTE   W02
 BYTE   En3
 BYTE   W02
 BYTE   W05
 BYTE   W05
//  #05 //003   ----------------------------------------
Label_01006AFF:
 BYTE   TIE  Cn3  v076
 BYTE   W72
 BYTE   W72
//  #05 //004   ----------------------------------------
 BYTE   EOT
 BYTE   TIE  Cs3
 BYTE   W72
 BYTE   W72
//  #05 //005   ----------------------------------------
 BYTE   EOT
 BYTE   TIE  Cn3
 BYTE   W72
 BYTE   W72
//  #05 //006   ----------------------------------------
 BYTE   EOT
 BYTE   TIE  Cs3
 BYTE   W72
 BYTE   W72
//  #05 //007   ----------------------------------------
 BYTE   EOT
 BYTE   TIE  Cn3
 BYTE   W72
 BYTE   W72
//  #05 //008   ----------------------------------------
 BYTE   EOT
 BYTE   TIE  Cs3
 BYTE   W72
 BYTE   W72
//  #05 //009   ----------------------------------------
 BYTE   EOT
 BYTE   TIE  Cn3
 BYTE   W72
 BYTE   W72
//  #05 //010   ----------------------------------------
 BYTE   EOT
 BYTE   TIE  Cs3
 BYTE   W72
 BYTE   W72
//  #05 //011   ----------------------------------------
 BYTE   EOT
 BYTE   TIE  Gs2
 BYTE   W72
 BYTE   W72
//  #05 //012   ----------------------------------------
 BYTE   EOT
 BYTE   TIE  Fs2
 BYTE   W72
 BYTE   W72
//  #05 //013   ----------------------------------------
 BYTE   EOT
 BYTE   TIE  Gs2
 BYTE   W72
 BYTE   W72
//  #05 //014   ----------------------------------------
 BYTE   EOT
 BYTE   N72  Bn2
 BYTE   W72
 BYTE   Dn3
 BYTE   W72
//  #05 //015   ----------------------------------------
 BYTE   Bn2
 BYTE   W72
 BYTE   Gs2
 BYTE   W72
//  #05 //016   ----------------------------------------
 BYTE   TIE  An2
 BYTE   W72
 BYTE   W72
//  #05 //017   ----------------------------------------
 BYTE   EOT
 BYTE   N72  Bn2
 BYTE   W72
 BYTE   Dn3
 BYTE   W72
//  #05 //018   ----------------------------------------
 BYTE   Bn2
 BYTE   W72
 BYTE   Dn3
 BYTE   W72
//  #05 //019   ----------------------------------------
 BYTE   N12  Fs3
 BYTE   W04
 BYTE   W05
 BYTE   W03
 BYTE   En3
 BYTE   W01
 BYTE   W05
 BYTE   W04
 BYTE   W02
 BYTE   Fs3
 BYTE   W03
 BYTE   W05
 BYTE   W04
 BYTE   En3
 BYTE   W05
 BYTE   W04
 BYTE   W03
 BYTE   Fs3
 BYTE   W02
 BYTE   W04
 BYTE   W05
 BYTE   W01
 BYTE   En3
 BYTE   W04
 BYTE   W04
 BYTE   W04
 BYTE   Fs3
 BYTE   W01
 BYTE   W04
 BYTE   W05
 BYTE   W02
 BYTE   En3
 BYTE   W02
 BYTE   W05
 BYTE   W05
//  #05 //020   ----------------------------------------
 BYTE   Fs3
 BYTE   W04
 BYTE   W05
 BYTE   W03
 BYTE   En3
 BYTE   W01
 BYTE   W05
 BYTE   W04
 BYTE   W02
 BYTE   Fs3
 BYTE   W03
 BYTE   W05
 BYTE   W04
 BYTE   En3
 BYTE   W05
 BYTE   W04
 BYTE   W03
 BYTE   Fs3
 BYTE   W02
 BYTE   W04
 BYTE   W05
 BYTE   W01
 BYTE   En3
 BYTE   W04
 BYTE   W04
 BYTE   W04
 BYTE   Fs3
 BYTE   W01
 BYTE   W04
 BYTE   W05
 BYTE   W02
 BYTE   En3
 BYTE   W02
 BYTE   W05
 BYTE   W05
//  #05 //021   ----------------------------------------
 BYTE   Fs3
 BYTE   W04
 BYTE   W05
 BYTE   W03
 BYTE   En3
 BYTE   W01
 BYTE   W05
 BYTE   W04
 BYTE   W02
 BYTE   Fs3
 BYTE   W03
 BYTE   W05
 BYTE   W04
 BYTE   En3
 BYTE   W05
 BYTE   W04
 BYTE   W03
 BYTE   Fs3
 BYTE   W02
 BYTE   W04
 BYTE   W05
 BYTE   W01
 BYTE   En3
 BYTE   W04
 BYTE   W04
 BYTE   W04
 BYTE   Fs3
 BYTE   W01
 BYTE   W04
 BYTE   W05
 BYTE   W02
 BYTE   En3
 BYTE   W02
 BYTE   W05
 BYTE   W05
//  #05 //022   ----------------------------------------
 BYTE   GoTo
  POIN2 Label_01006AFF
 BYTE   FINE

//**************** Track 6 (Midi-Chn.5) ****************//

FF4IntotheDarknessSme_006:
//  #06 //000   ----------------------------------------
 BYTE   KEYSH   FF4IntotheDarknessSme_key+0
 BYTE   VOICE   35
 BYTE   VOL   65*FF4IntotheDarknessSme_mvl/mxv
 BYTE   PAN   c_v+0
 BYTE   W72
 BYTE   W72
//  #06 //001   ----------------------------------------
 BYTE   W72
 BYTE   W72
//  #06 //002   ----------------------------------------
Label_01006DF0:
 BYTE   N42  Fn1  v092
 BYTE   W48
 BYTE   N20  Cn2
 BYTE   W24
 BYTE   PEND 
Label_01006DF8:
 BYTE   N11  Fn1  v092
 BYTE   W12
 BYTE   N11
 BYTE   W60
 BYTE   PEND 
//  #06 //003   ----------------------------------------
Label_01006DFF:
 BYTE   N42  Fs1  v092
 BYTE   W48
 BYTE   N20  Cs2
 BYTE   W24
 BYTE   PEND 
 BYTE   N66  Fs2
 BYTE   W72
//  #06 //004   ----------------------------------------
 BYTE   PATT
  POIN2 Label_01006DF0
//  #06 //005   ----------------------------------------
 BYTE   PATT
  POIN2 Label_01006DF8
//  #06 //006   ----------------------------------------
Label_01006E14:
 BYTE   N42  Ds1  v092
 BYTE   W48
 BYTE   N20  As1
 BYTE   W24
 BYTE   PEND 
 BYTE   N66  Ds2
 BYTE   W72
//  #06 //007   ----------------------------------------
 BYTE   PATT
  POIN2 Label_01006DF0
//  #06 //008   ----------------------------------------
 BYTE   PATT
  POIN2 Label_01006DF8
//  #06 //009   ----------------------------------------
 BYTE   PATT
  POIN2 Label_01006DFF
//  #06 //010   ----------------------------------------
 BYTE   N66  Fs2  v092
 BYTE   W72
//  #06 //011   ----------------------------------------
 BYTE   PATT
  POIN2 Label_01006DF0
//  #06 //012   ----------------------------------------
 BYTE   PATT
  POIN2 Label_01006DF8
//  #06 //013   ----------------------------------------
 BYTE   PATT
  POIN2 Label_01006E14
//  #06 //014   ----------------------------------------
 BYTE   N66  Ds2  v092
 BYTE   W72
 BYTE   Gs1
 BYTE   W72
//  #06 //015   ----------------------------------------
 BYTE   N42  Cn2
 BYTE   W48
 BYTE   N20  Ds2
 BYTE   W24
 BYTE   N66  Ds1
 BYTE   W72
//  #06 //016   ----------------------------------------
 BYTE   Cs2
 BYTE   W72
 BYTE   Gs1
 BYTE   W72
//  #06 //017   ----------------------------------------
 BYTE   N42  Ds2
 BYTE   W48
 BYTE   N20  Cn2
 BYTE   W24
 BYTE   N66  Bn1
 BYTE   W72
//  #06 //018   ----------------------------------------
Label_01006E5D:
 BYTE   N42  Gn1  v092
 BYTE   W48
 BYTE   N20  An1
 BYTE   W24
 BYTE   PEND 
 BYTE   N66  Bn1
 BYTE   W72
//  #06 //019   ----------------------------------------
 BYTE   N42  Cs2
 BYTE   W48
 BYTE   N20  Cs1
 BYTE   W24
//  #06 //020   ----------------------------------------
 BYTE   PATT
  POIN2 Label_01006DFF
//  #06 //021   ----------------------------------------
 BYTE   N24  An2  v092
 BYTE   W24
 BYTE   Gs2
 BYTE   W24
 BYTE   Gn2
 BYTE   W24
 BYTE   N66  Bn1
 BYTE   W72
//  #06 //022   ----------------------------------------
 BYTE   PATT
  POIN2 Label_01006E5D
//  #06 //023   ----------------------------------------
 BYTE   N66  Bn1  v092
 BYTE   W72
 BYTE   En1
 BYTE   W72
//  #06 //024   ----------------------------------------
 BYTE   TIE  Fs1
 BYTE   W72
 BYTE   W72
//  #06 //025   ----------------------------------------
 BYTE   W72
 BYTE   W66
//  #06 //026   ----------------------------------------
 BYTE   EOT
 BYTE   W06
 BYTE   GoTo
  POIN2 Label_01006DF0
 BYTE   FINE

//**************** Track 7 (Midi-Chn.6) ****************//

FF4IntotheDarknessSme_007:
//  #07 //000   ----------------------------------------
 BYTE   KEYSH   FF4IntotheDarknessSme_key+0
 BYTE   VOICE   123
 BYTE   VOL   57*FF4IntotheDarknessSme_mvl/mxv
 BYTE   PAN   c_v+0
 BYTE   W72
 BYTE   W72
//  #07 //001   ----------------------------------------
 BYTE   W72
 BYTE   W72
//  #07 //002   ----------------------------------------
Label_0100730C:
 BYTE   N20  Gs1  v092
 BYTE   W01
 BYTE   W01
 BYTE   W01
 BYTE   W01
 BYTE   W01
 BYTE   W01
 BYTE   W01
 BYTE   W01
 BYTE   W01
 BYTE   W01
 BYTE   W01
 BYTE   W01
 BYTE   W01
 BYTE   W01
 BYTE   W01
 BYTE   W01
 BYTE   W01
 BYTE   W01
 BYTE   W01
 BYTE   W01
 BYTE   W01
 BYTE   W01
 BYTE   W01
 BYTE   W01
 BYTE   N20
 BYTE   W01
 BYTE   W01
 BYTE   W01
 BYTE   W01
 BYTE   W01
 BYTE   W01
 BYTE   W01
 BYTE   W01
 BYTE   W01
 BYTE   W01
 BYTE   W01
 BYTE   W01
 BYTE   W01
 BYTE   W01
 BYTE   W01
 BYTE   W01
 BYTE   W01
 BYTE   W01
 BYTE   W01
 BYTE   W01
 BYTE   W01
 BYTE   W01
 BYTE   W01
 BYTE   W01
 BYTE   N20
 BYTE   W01
 BYTE   W01
 BYTE   W01
 BYTE   W01
 BYTE   W01
 BYTE   W01
 BYTE   W01
 BYTE   W01
 BYTE   W01
 BYTE   W01
 BYTE   W01
 BYTE   W01
 BYTE   W01
 BYTE   W01
 BYTE   W01
 BYTE   W01
 BYTE   W01
 BYTE   W01
 BYTE   W01
 BYTE   W01
 BYTE   W01
 BYTE   W01
 BYTE   W01
 BYTE   W01
 BYTE   PEND 
//  #07 //003   ----------------------------------------
 BYTE   PATT
  POIN2 Label_0100730C
//  #07 //004   ----------------------------------------
 BYTE   PATT
  POIN2 Label_0100730C
//  #07 //005   ----------------------------------------
 BYTE   PATT
  POIN2 Label_0100730C
//  #07 //006   ----------------------------------------
 BYTE   PATT
  POIN2 Label_0100730C
//  #07 //007   ----------------------------------------
 BYTE   PATT
  POIN2 Label_0100730C
//  #07 //008   ----------------------------------------
 BYTE   PATT
  POIN2 Label_0100730C
//  #07 //009   ----------------------------------------
 BYTE   PATT
  POIN2 Label_0100730C
//  #07 //010   ----------------------------------------
 BYTE   PATT
  POIN2 Label_0100730C
//  #07 //011   ----------------------------------------
 BYTE   PATT
  POIN2 Label_0100730C
//  #07 //012   ----------------------------------------
 BYTE   PATT
  POIN2 Label_0100730C
//  #07 //013   ----------------------------------------
 BYTE   PATT
  POIN2 Label_0100730C
//  #07 //014   ----------------------------------------
 BYTE   PATT
  POIN2 Label_0100730C
//  #07 //015   ----------------------------------------
 BYTE   PATT
  POIN2 Label_0100730C
//  #07 //016   ----------------------------------------
 BYTE   PATT
  POIN2 Label_0100730C
//  #07 //017   ----------------------------------------
 BYTE   PATT
  POIN2 Label_0100730C
//  #07 //018   ----------------------------------------
 BYTE   PATT
  POIN2 Label_0100730C
//  #07 //019   ----------------------------------------
 BYTE   PATT
  POIN2 Label_0100730C
//  #07 //020   ----------------------------------------
 BYTE   PATT
  POIN2 Label_0100730C
//  #07 //021   ----------------------------------------
 BYTE   PATT
  POIN2 Label_0100730C
//  #07 //022   ----------------------------------------
 BYTE   PATT
  POIN2 Label_0100730C
//  #07 //023   ----------------------------------------
 BYTE   PATT
  POIN2 Label_0100730C
//  #07 //024   ----------------------------------------
 BYTE   PATT
  POIN2 Label_0100730C
//  #07 //025   ----------------------------------------
 BYTE   PATT
  POIN2 Label_0100730C
//  #07 //026   ----------------------------------------
 BYTE   PATT
  POIN2 Label_0100730C
//  #07 //027   ----------------------------------------
 BYTE   PATT
  POIN2 Label_0100730C
//  #07 //028   ----------------------------------------
 BYTE   PATT
  POIN2 Label_0100730C
//  #07 //029   ----------------------------------------
 BYTE   PATT
  POIN2 Label_0100730C
//  #07 //030   ----------------------------------------
 BYTE   PATT
  POIN2 Label_0100730C
//  #07 //031   ----------------------------------------
 BYTE   PATT
  POIN2 Label_0100730C
//  #07 //032   ----------------------------------------
 BYTE   PATT
  POIN2 Label_0100730C
//  #07 //033   ----------------------------------------
 BYTE   PATT
  POIN2 Label_0100730C
//  #07 //034   ----------------------------------------
 BYTE   W72
 BYTE   W72
//  #07 //035   ----------------------------------------
 BYTE   W72
 BYTE   W72
//  #07 //036   ----------------------------------------
 BYTE   GoTo
  POIN2 Label_0100730C
 BYTE   FINE

//******************************************************//
	ALIGN 4

FF4IntotheDarknessSme:
	BYTE	7	// NumTrks
	BYTE	0	// NumBlks
	BYTE	FF4IntotheDarknessSme_pri	// Priority
	BYTE	FF4IntotheDarknessSme_rev	// Reverb.
    
	POIN2	FF4IntotheDarknessSme_grp
    
	POIN2	FF4IntotheDarknessSme_001
	POIN2	FF4IntotheDarknessSme_002
	POIN2	FF4IntotheDarknessSme_003
	POIN2	FF4IntotheDarknessSme_004
	POIN2	FF4IntotheDarknessSme_005
	POIN2	FF4IntotheDarknessSme_006
	POIN2	FF4IntotheDarknessSme_007

	
