//Event file generated from Sappy .s format.
	#include "MPlayDef.event"

	#define	FF5Battle2Sme_grp  voicegroup000
	#define	FF5Battle2Sme_pri  0
	#define	FF5Battle2Sme_rev  0
	#define	FF5Battle2Sme_mvl  127
	#define	FF5Battle2Sme_key  0
	#define	FF5Battle2Sme_tbs  1
	#define	FF5Battle2Sme_exg  0
	#define	FF5Battle2Sme_cmp  1

	// .rodata
	//	FF5Battle2Sme
	ALIGN 4


//**************** Track 1 (Midi-Chn.0) ****************//

FF5Battle2Sme_001:
//  #01 //000   ----------------------------------------
 BYTE   KEYSH   FF5Battle2Sme_key+0
 BYTE   TEMPO   168*FF5Battle2Sme_tbs/2
 BYTE   VOICE   47
 BYTE   VOL   83*FF5Battle2Sme_mvl/mxv
 BYTE   PAN   c_v+1
 BYTE   W01
Label_010002A7:
 BYTE   W92
 BYTE   W03
//  #01 //001   ----------------------------------------
 BYTE   W96
//  #01 //002   ----------------------------------------
 BYTE   W96
//  #01 //003   ----------------------------------------
 BYTE   W96
//  #01 //004   ----------------------------------------
 BYTE   W96
//  #01 //005   ----------------------------------------
 BYTE   W96
//  #01 //006   ----------------------------------------
 BYTE   W96
//  #01 //007   ----------------------------------------
 BYTE   W96
//  #01 //008   ----------------------------------------
 BYTE   W96
//  #01 //009   ----------------------------------------
 BYTE   W96
//  #01 //010   ----------------------------------------
 BYTE   W96
//  #01 //011   ----------------------------------------
 BYTE   W96
//  #01 //012   ----------------------------------------
Label_010002B4:
 BYTE   W01
 BYTE   N44  Fs2  v127  gtp3
 BYTE   W48
 BYTE   Cs2
 BYTE   W44
 BYTE   W03
 BYTE   PEND 
//  #01 //013   ----------------------------------------
 BYTE   PATT
  POIN2 Label_010002B4
//  #01 //014   ----------------------------------------
Label_010002C3:
 BYTE   W01
 BYTE   N44  Fs2  v127  gtp3
 BYTE   W48
 BYTE   N68  Cs2  v127  gtp3
 BYTE   W44
 BYTE   W03
 BYTE   PEND 
//  #01 //015   ----------------------------------------
Label_010002D0:
 BYTE   W24
 BYTE   W01
 BYTE   N23  Cs2  v127
 BYTE   W24
 BYTE   Fs2
 BYTE   W24
 BYTE   Cs2
 BYTE   W23
 BYTE   PEND 
//  #01 //016   ----------------------------------------
 BYTE   PATT
  POIN2 Label_010002B4
//  #01 //017   ----------------------------------------
 BYTE   PATT
  POIN2 Label_010002B4
//  #01 //018   ----------------------------------------
Label_010002E5:
 BYTE   W01
 BYTE   N44  An1  v127  gtp3
 BYTE   W48
 BYTE   N68  En1  v127  gtp3
 BYTE   W44
 BYTE   W03
 BYTE   PEND 
//  #01 //019   ----------------------------------------
Label_010002F2:
 BYTE   W24
 BYTE   W01
 BYTE   N23  En1  v127
 BYTE   W24
 BYTE   An1
 BYTE   W24
 BYTE   En1
 BYTE   W23
 BYTE   PEND 
//  #01 //020   ----------------------------------------
 BYTE   PATT
  POIN2 Label_010002B4
//  #01 //021   ----------------------------------------
 BYTE   PATT
  POIN2 Label_010002B4
//  #01 //022   ----------------------------------------
 BYTE   PATT
  POIN2 Label_010002C3
//  #01 //023   ----------------------------------------
 BYTE   PATT
  POIN2 Label_010002D0
//  #01 //024   ----------------------------------------
 BYTE   PATT
  POIN2 Label_010002B4
//  #01 //025   ----------------------------------------
 BYTE   PATT
  POIN2 Label_010002B4
//  #01 //026   ----------------------------------------
 BYTE   PATT
  POIN2 Label_010002E5
//  #01 //027   ----------------------------------------
 BYTE   PATT
  POIN2 Label_010002F2
//  #01 //028   ----------------------------------------
Label_01000325:
 BYTE   W01
 BYTE   N11  Cs2  v127
 BYTE   W12
 BYTE   N56  Cs2  v127  gtp3
 BYTE   W60
 BYTE   N23  Gs1
 BYTE   W23
 BYTE   PEND 
//  #01 //029   ----------------------------------------
 BYTE   PATT
  POIN2 Label_01000325
//  #01 //030   ----------------------------------------
 BYTE   W01
 BYTE   N32  An1  v127  gtp3
 BYTE   W36
 BYTE   En1
 BYTE   W36
 BYTE   An1
 BYTE   W23
//  #01 //031   ----------------------------------------
 BYTE   W13
 BYTE   En1
 BYTE   W36
 BYTE   N23  An1
 BYTE   W24
 BYTE   En1
 BYTE   W23
//  #01 //032   ----------------------------------------
 BYTE   W01
 BYTE   N32  Bn1  v127  gtp3
 BYTE   W36
 BYTE   Fs1
 BYTE   W36
 BYTE   Bn1
 BYTE   W23
//  #01 //033   ----------------------------------------
 BYTE   W13
 BYTE   Fs1
 BYTE   W36
 BYTE   N23  Bn1
 BYTE   W24
 BYTE   Fs1
 BYTE   W23
//  #01 //034   ----------------------------------------
 BYTE   W01
 BYTE   N32  Dn2  v127  gtp3
 BYTE   W36
 BYTE   An1
 BYTE   W36
 BYTE   Dn2
 BYTE   W23
//  #01 //035   ----------------------------------------
 BYTE   W13
 BYTE   An1
 BYTE   W36
 BYTE   N23  Dn2
 BYTE   W24
 BYTE   An1
 BYTE   W23
//  #01 //036   ----------------------------------------
 BYTE   W01
 BYTE   N92  Cs2  v127  gtp3
 BYTE   W92
 BYTE   W03
//  #01 //037   ----------------------------------------
 BYTE   W01
 BYTE   N05  Cs2  v028
 BYTE   W06
 BYTE   Cs2  v032
 BYTE   W06
 BYTE   Cs2  v040
 BYTE   W06
 BYTE   Cs2  v044
 BYTE   W06
 BYTE   Cs2  v052
 BYTE   W06
 BYTE   Cs2  v056
 BYTE   W06
 BYTE   Cs2  v064
 BYTE   W06
 BYTE   Cs2  v068
 BYTE   W06
 BYTE   Cs2  v076
 BYTE   W06
 BYTE   Cs2  v084
 BYTE   W06
 BYTE   Cs2  v088
 BYTE   W06
 BYTE   Cs2  v096
 BYTE   W06
 BYTE   Cs2  v100
 BYTE   W06
 BYTE   Cs2  v108
 BYTE   W06
 BYTE   Cs2  v112
 BYTE   W06
 BYTE   Cs2  v120
 BYTE   W05
//  #01 //038   ----------------------------------------
 BYTE   W01
 BYTE   N92  Fs1  v127  gtp3
 BYTE   W92
 BYTE   W03
//  #01 //039   ----------------------------------------
 BYTE   W96
//  #01 //040   ----------------------------------------
 BYTE   W96
//  #01 //041   ----------------------------------------
 BYTE   W96
//  #01 //042   ----------------------------------------
 BYTE   W96
//  #01 //043   ----------------------------------------
 BYTE   W48
 BYTE   W01
 BYTE   N23  Dn2
 BYTE   W24
 BYTE   An1
 BYTE   W23
//  #01 //044   ----------------------------------------
 BYTE   W01
 BYTE   Dn2
 BYTE   W24
 BYTE   An1
 BYTE   W24
 BYTE   Dn2
 BYTE   W24
 BYTE   An1
 BYTE   W23
//  #01 //045   ----------------------------------------
 BYTE   W01
 BYTE   Dn2
 BYTE   W24
 BYTE   An1
 BYTE   W24
 BYTE   Gn1
 BYTE   W24
 BYTE   Dn1
 BYTE   W23
//  #01 //046   ----------------------------------------
 BYTE   W01
 BYTE   Gn1
 BYTE   W24
 BYTE   Dn1
 BYTE   W24
 BYTE   Gn1
 BYTE   W24
 BYTE   Dn1
 BYTE   W23
//  #01 //047   ----------------------------------------
 BYTE   W01
 BYTE   Gn1
 BYTE   W24
 BYTE   Dn1
 BYTE   W24
 BYTE   GoTo
  POIN2 Label_010002A7
 BYTE   FINE

//**************** Track 2 (Midi-Chn.1) ****************//

FF5Battle2Sme_002:
//  #02 //000   ----------------------------------------
 BYTE   KEYSH   FF5Battle2Sme_key+0
 BYTE   VOICE   57
 BYTE   VOL   91*FF5Battle2Sme_mvl/mxv
 BYTE   PAN   c_v-2
 BYTE   W01
Label_5471E5:
 BYTE   W92
 BYTE   W03
//  #02 //001   ----------------------------------------
 BYTE   W96
//  #02 //002   ----------------------------------------
 BYTE   W96
//  #02 //003   ----------------------------------------
 BYTE   W96
//  #02 //004   ----------------------------------------
 BYTE   W96
//  #02 //005   ----------------------------------------
 BYTE   W96
//  #02 //006   ----------------------------------------
 BYTE   W96
//  #02 //007   ----------------------------------------
 BYTE   W96
//  #02 //008   ----------------------------------------
 BYTE   W96
//  #02 //009   ----------------------------------------
 BYTE   W96
//  #02 //010   ----------------------------------------
 BYTE   W96
//  #02 //011   ----------------------------------------
 BYTE   W96
//  #02 //012   ----------------------------------------
Label_5471F2:
 BYTE   W01
 BYTE   N23  Fs3  v100
 BYTE   W24
 BYTE   N05  Fn3
 BYTE   W12
 BYTE   Fs3
 BYTE   W12
 BYTE   N23  Gs3
 BYTE   W24
 BYTE   N05  Fs3
 BYTE   W12
 BYTE   Gs3
 BYTE   W11
 BYTE   PEND 
//  #02 //013   ----------------------------------------
Label_547205:
 BYTE   W01
 BYTE   N23  An3  v100
 BYTE   W24
 BYTE   N05  Gs3
 BYTE   W12
 BYTE   Fs3
 BYTE   W12
 BYTE   Gs3
 BYTE   W12
 BYTE   Fs3
 BYTE   W12
 BYTE   N23  Fn3
 BYTE   W23
 BYTE   PEND 
//  #02 //014   ----------------------------------------
 BYTE   W01
 BYTE   TIE  Fs3
 BYTE   W92
 BYTE   W03
//  #02 //015   ----------------------------------------
 BYTE   W72
 BYTE   EOT
 BYTE   W24
//  #02 //016   ----------------------------------------
 BYTE   PATT
  POIN2 Label_5471F2
//  #02 //017   ----------------------------------------
Label_547224:
 BYTE   W01
 BYTE   N23  An3  v100
 BYTE   W24
 BYTE   N05  Gs3
 BYTE   W12
 BYTE   An3
 BYTE   W12
 BYTE   N23  Bn3
 BYTE   W24
 BYTE   N05  An3
 BYTE   W12
 BYTE   Bn3
 BYTE   W11
 BYTE   PEND 
//  #02 //018   ----------------------------------------
 BYTE   W01
 BYTE   TIE  Cs4
 BYTE   W92
 BYTE   W03
//  #02 //019   ----------------------------------------
 BYTE   W72
 BYTE   EOT
 BYTE   W24
//  #02 //020   ----------------------------------------
 BYTE   PATT
  POIN2 Label_5471F2
//  #02 //021   ----------------------------------------
 BYTE   PATT
  POIN2 Label_547205
//  #02 //022   ----------------------------------------
 BYTE   W01
 BYTE   TIE  Fs3  v100
 BYTE   W92
 BYTE   W03
//  #02 //023   ----------------------------------------
 BYTE   W72
 BYTE   EOT
 BYTE   W24
//  #02 //024   ----------------------------------------
 BYTE   PATT
  POIN2 Label_5471F2
//  #02 //025   ----------------------------------------
 BYTE   PATT
  POIN2 Label_547224
//  #02 //026   ----------------------------------------
 BYTE   W01
 BYTE   TIE  Cs4  v100
 BYTE   W92
 BYTE   W03
//  #02 //027   ----------------------------------------
 BYTE   W72
 BYTE   EOT
 BYTE   W24
//  #02 //028   ----------------------------------------
 BYTE   W01
 BYTE   N23
 BYTE   W24
 BYTE   N05  Cn4
 BYTE   W12
 BYTE   Cs4
 BYTE   W12
 BYTE   N23  Ds4
 BYTE   W24
 BYTE   Fs4
 BYTE   W23
//  #02 //029   ----------------------------------------
 BYTE   W01
 BYTE   N05  En4
 BYTE   W12
 BYTE   Ds4
 BYTE   W12
 BYTE   N23  Cs4
 BYTE   W24
 BYTE   Ds4
 BYTE   W24
 BYTE   Cn4
 BYTE   W23
//  #02 //030   ----------------------------------------
 BYTE   W01
 BYTE   TIE  Cs4
 BYTE   W92
 BYTE   W03
//  #02 //031   ----------------------------------------
 BYTE   W96
//  #02 //032   ----------------------------------------
 BYTE   EOT
 BYTE   W01
 BYTE   TIE  Bn3
 BYTE   W92
 BYTE   W03
//  #02 //033   ----------------------------------------
 BYTE   W96
//  #02 //034   ----------------------------------------
 BYTE   EOT
 BYTE   W01
 BYTE   N23  Dn4
 BYTE   W24
 BYTE   N05  An3
 BYTE   W12
 BYTE   N23  Fs3
 BYTE   W24
 BYTE   N05  An3
 BYTE   W12
 BYTE   N44  Dn4  v100  gtp3
 BYTE   W23
//  #02 //035   ----------------------------------------
 BYTE   W24
 BYTE   W01
 BYTE   N23  An3
 BYTE   W24
 BYTE   Dn4
 BYTE   W24
 BYTE   Fs4
 BYTE   W23
//  #02 //036   ----------------------------------------
 BYTE   W01
 BYTE   TIE  Fn4
 BYTE   W92
 BYTE   W03
//  #02 //037   ----------------------------------------
 BYTE   W96
//  #02 //038   ----------------------------------------
 BYTE   EOT
 BYTE   W96
//  #02 //039   ----------------------------------------
 BYTE   W96
//  #02 //040   ----------------------------------------
 BYTE   W96
//  #02 //041   ----------------------------------------
 BYTE   W96
//  #02 //042   ----------------------------------------
 BYTE   W96
//  #02 //043   ----------------------------------------
 BYTE   W48
 BYTE   W01
 BYTE   N23  Gs4
 BYTE   W24
 BYTE   TIE  Fs4
 BYTE   W23
//  #02 //044   ----------------------------------------
 BYTE   W96
//  #02 //045   ----------------------------------------
Label_5472BD:
 BYTE   W48
 BYTE   EOT
 BYTE   Fs4
 BYTE   W01
 BYTE   N23  Cs5  v100
 BYTE   W24
 BYTE   TIE  Bn4
 BYTE   W23
 BYTE   PEND 
//  #02 //046   ----------------------------------------
 BYTE   W96
//  #02 //047   ----------------------------------------
 BYTE   W48
 BYTE   EOT
 BYTE   W01
 BYTE   GoTo
  POIN2 Label_5471E5
 BYTE   FINE

//**************** Track 3 (Midi-Chn.2) ****************//

FF5Battle2Sme_003:
//  #03 //000   ----------------------------------------
 BYTE   KEYSH   FF5Battle2Sme_key+0
 BYTE   VOICE   33
 BYTE   VOL   83*FF5Battle2Sme_mvl/mxv
 BYTE   PAN   c_v-4
 BYTE   W01
Label_5466C9:
 BYTE   TIE  Fs1  v100
 BYTE   W92
 BYTE   W03
//  #03 //001   ----------------------------------------
 BYTE   W48
 BYTE   EOT
 BYTE   W01
 BYTE   N44  Cs2  v100  gtp3
 BYTE   W44
 BYTE   W03
//  #03 //002   ----------------------------------------
 BYTE   W01
 BYTE   TIE  Fs1
 BYTE   W92
 BYTE   W03
//  #03 //003   ----------------------------------------
 BYTE   W48
 BYTE   EOT
 BYTE   W01
 BYTE   N44  Cs1  v100  gtp3
 BYTE   W44
 BYTE   W03
//  #03 //004   ----------------------------------------
Label_5466E5:
 BYTE   W01
 BYTE   N11  Fs1  v100
 BYTE   W12
 BYTE   Gs1
 BYTE   W12
 BYTE   An1
 BYTE   W12
 BYTE   Cs2
 BYTE   W12
 BYTE   Fn2
 BYTE   W12
 BYTE   Fs2
 BYTE   W12
 BYTE   Gs2
 BYTE   W12
 BYTE   An2
 BYTE   W11
 BYTE   PEND 
//  #03 //005   ----------------------------------------
 BYTE   W01
 BYTE   Fs1
 BYTE   W12
 BYTE   Gs1
 BYTE   W12
 BYTE   An1
 BYTE   W12
 BYTE   Cn2
 BYTE   W12
 BYTE   Cs2
 BYTE   W12
 BYTE   Fn2
 BYTE   W12
 BYTE   Fs2
 BYTE   W12
 BYTE   Gs2
 BYTE   W11
//  #03 //006   ----------------------------------------
 BYTE   W01
 BYTE   Fs1
 BYTE   W12
 BYTE   Gs1
 BYTE   W12
 BYTE   An1
 BYTE   W12
 BYTE   Cs2
 BYTE   W12
 BYTE   En2
 BYTE   W12
 BYTE   Fs2
 BYTE   W12
 BYTE   Gs2
 BYTE   W12
 BYTE   An2
 BYTE   W11
//  #03 //007   ----------------------------------------
 BYTE   PATT
  POIN2 Label_5466E5
//  #03 //008   ----------------------------------------
Label_546720:
 BYTE   W01
 BYTE   N11  Fs1  v100
 BYTE   W12
 BYTE   Fs1
 BYTE   W12
 BYTE   Fs1
 BYTE   W12
 BYTE   Fs1
 BYTE   W12
 BYTE   Fs1
 BYTE   W12
 BYTE   Fs1
 BYTE   W12
 BYTE   Fs1
 BYTE   W12
 BYTE   Fs1
 BYTE   W11
 BYTE   PEND 
//  #03 //009   ----------------------------------------
 BYTE   PATT
  POIN2 Label_546720
//  #03 //010   ----------------------------------------
 BYTE   PATT
  POIN2 Label_546720
//  #03 //011   ----------------------------------------
 BYTE   W01
 BYTE   N11  Fs1  v100
 BYTE   W12
 BYTE   Cn2
 BYTE   W12
 BYTE   Fs2
 BYTE   W12
 BYTE   Fn2
 BYTE   W12
 BYTE   En2
 BYTE   W12
 BYTE   Ds2
 BYTE   W12
 BYTE   Dn2
 BYTE   W12
 BYTE   Cs2
 BYTE   W11
//  #03 //012   ----------------------------------------
Label_546751:
 BYTE   W01
 BYTE   N11  Fs1  v100
 BYTE   W12
 BYTE   N23  Cs2
 BYTE   W24
 BYTE   N11  Cs1
 BYTE   W12
 BYTE   Fs1
 BYTE   W12
 BYTE   N23  Cs2
 BYTE   W24
 BYTE   N11  Cs1
 BYTE   W11
 BYTE   PEND 
//  #03 //013   ----------------------------------------
 BYTE   PATT
  POIN2 Label_546751
//  #03 //014   ----------------------------------------
 BYTE   PATT
  POIN2 Label_546720
//  #03 //015   ----------------------------------------
Label_54676F:
 BYTE   W01
 BYTE   N11  Fs1  v100
 BYTE   W12
 BYTE   Gs1
 BYTE   W12
 BYTE   An1
 BYTE   W12
 BYTE   Cs2
 BYTE   W12
 BYTE   En2
 BYTE   W12
 BYTE   Ds2
 BYTE   W12
 BYTE   Cs2
 BYTE   W12
 BYTE   An1
 BYTE   W11
 BYTE   PEND 
//  #03 //016   ----------------------------------------
 BYTE   PATT
  POIN2 Label_546751
//  #03 //017   ----------------------------------------
Label_546788:
 BYTE   W01
 BYTE   N11  Fs1  v100
 BYTE   W12
 BYTE   N23  Cs2
 BYTE   W24
 BYTE   N11  Cs1
 BYTE   W12
 BYTE   Fs1
 BYTE   W12
 BYTE   Cs2
 BYTE   W12
 BYTE   Fs1
 BYTE   W12
 BYTE   Gs1
 BYTE   W11
 BYTE   PEND 
//  #03 //018   ----------------------------------------
Label_54679C:
 BYTE   W01
 BYTE   N32  An1  v100  gtp3
 BYTE   W36
 BYTE   En2
 BYTE   W36
 BYTE   N23  En1
 BYTE   W23
 BYTE   PEND 
//  #03 //019   ----------------------------------------
Label_5467A8:
 BYTE   W01
 BYTE   N32  An1  v100  gtp3
 BYTE   W36
 BYTE   N23  En2
 BYTE   W24
 BYTE   N11  Dn2
 BYTE   W12
 BYTE   Cs2
 BYTE   W12
 BYTE   An1
 BYTE   W11
 BYTE   PEND 
//  #03 //020   ----------------------------------------
 BYTE   PATT
  POIN2 Label_546751
//  #03 //021   ----------------------------------------
 BYTE   PATT
  POIN2 Label_546751
//  #03 //022   ----------------------------------------
 BYTE   PATT
  POIN2 Label_546720
//  #03 //023   ----------------------------------------
 BYTE   PATT
  POIN2 Label_54676F
//  #03 //024   ----------------------------------------
 BYTE   PATT
  POIN2 Label_546751
//  #03 //025   ----------------------------------------
 BYTE   PATT
  POIN2 Label_546788
//  #03 //026   ----------------------------------------
 BYTE   PATT
  POIN2 Label_54679C
//  #03 //027   ----------------------------------------
 BYTE   PATT
  POIN2 Label_5467A8
//  #03 //028   ----------------------------------------
Label_5467E1:
 BYTE   W01
 BYTE   N11  Cs1  v100
 BYTE   W12
 BYTE   Cs1
 BYTE   W24
 BYTE   Cs2
 BYTE   W24
 BYTE   Cs2
 BYTE   W12
 BYTE   N23  Gs1
 BYTE   W23
 BYTE   PEND 
//  #03 //029   ----------------------------------------
 BYTE   PATT
  POIN2 Label_5467E1
//  #03 //030   ----------------------------------------
 BYTE   W01
 BYTE   N05  An1  v100
 BYTE   W12
 BYTE   N11  En1
 BYTE   W12
 BYTE   N05  An1
 BYTE   W12
 BYTE   N11  En1
 BYTE   W12
 BYTE   N05  An1
 BYTE   W12
 BYTE   N11  En1
 BYTE   W12
 BYTE   N05  An1
 BYTE   W12
 BYTE   N11  En1
 BYTE   W11
//  #03 //031   ----------------------------------------
 BYTE   W01
 BYTE   N05  An1
 BYTE   W12
 BYTE   N11  En1
 BYTE   W12
 BYTE   N05  An1
 BYTE   W12
 BYTE   N11  En1
 BYTE   W12
 BYTE   N05  An1
 BYTE   W12
 BYTE   N11  En1
 BYTE   W12
 BYTE   An1
 BYTE   W12
 BYTE   Cs2
 BYTE   W11
//  #03 //032   ----------------------------------------
 BYTE   W01
 BYTE   N05  Bn1
 BYTE   W12
 BYTE   N11  Fs1
 BYTE   W12
 BYTE   N05  Bn1
 BYTE   W12
 BYTE   N11  Fs1
 BYTE   W12
 BYTE   N05  Bn1
 BYTE   W12
 BYTE   N11  Fs1
 BYTE   W12
 BYTE   N05  Bn1
 BYTE   W12
 BYTE   N11  Fs1
 BYTE   W11
//  #03 //033   ----------------------------------------
 BYTE   W01
 BYTE   N05  Bn1
 BYTE   W12
 BYTE   N11  Fs1
 BYTE   W12
 BYTE   N05  Bn1
 BYTE   W12
 BYTE   N11  Fs1
 BYTE   W12
 BYTE   N05  Bn1
 BYTE   W12
 BYTE   N11  Fs1
 BYTE   W12
 BYTE   Bn1
 BYTE   W12
 BYTE   Cs2
 BYTE   W11
//  #03 //034   ----------------------------------------
 BYTE   W01
 BYTE   N05  Dn2
 BYTE   W12
 BYTE   N11  An1
 BYTE   W12
 BYTE   N05  Dn2
 BYTE   W12
 BYTE   N11  An1
 BYTE   W12
 BYTE   N05  Dn2
 BYTE   W12
 BYTE   N11  An1
 BYTE   W12
 BYTE   N05  Dn2
 BYTE   W12
 BYTE   N11  An1
 BYTE   W11
//  #03 //035   ----------------------------------------
 BYTE   W01
 BYTE   N05  Dn2
 BYTE   W12
 BYTE   N11  An1
 BYTE   W12
 BYTE   N05  Dn2
 BYTE   W12
 BYTE   N11  An1
 BYTE   W12
 BYTE   N05  Dn2
 BYTE   W12
 BYTE   N11  An1
 BYTE   W12
 BYTE   Gs1
 BYTE   W12
 BYTE   Fs1
 BYTE   W11
//  #03 //036   ----------------------------------------
 BYTE   W01
 BYTE   N32  Fn1  v100  gtp3
 BYTE   W36
 BYTE   Cs2
 BYTE   W36
 BYTE   N23  Gs1
 BYTE   W23
//  #03 //037   ----------------------------------------
 BYTE   W01
 BYTE   N32  Cs1  v100  gtp3
 BYTE   W36
 BYTE   Ds1
 BYTE   W36
 BYTE   N23  Fn1
 BYTE   W23
//  #03 //038   ----------------------------------------
 BYTE   W01
 BYTE   N11  Fs1
 BYTE   W12
 BYTE   Gs1
 BYTE   W12
 BYTE   An1
 BYTE   W12
 BYTE   Bn1
 BYTE   W12
 BYTE   An1
 BYTE   W12
 BYTE   Gs1
 BYTE   W12
 BYTE   Fs1
 BYTE   W12
 BYTE   Gs1
 BYTE   W11
//  #03 //039   ----------------------------------------
 BYTE   W01
 BYTE   An1
 BYTE   W12
 BYTE   Bn1
 BYTE   W12
 BYTE   An1
 BYTE   W12
 BYTE   Gs1
 BYTE   W12
 BYTE   Fs1
 BYTE   W24
 BYTE   Fs1
 BYTE   W12
 BYTE   Gs1
 BYTE   W11
//  #03 //040   ----------------------------------------
 BYTE   W01
 BYTE   An1
 BYTE   W12
 BYTE   Bn1
 BYTE   W12
 BYTE   An1
 BYTE   W12
 BYTE   Gs1
 BYTE   W12
 BYTE   Fs1
 BYTE   W12
 BYTE   Gs1
 BYTE   W12
 BYTE   An1
 BYTE   W12
 BYTE   Bn1
 BYTE   W11
//  #03 //041   ----------------------------------------
 BYTE   W01
 BYTE   An1
 BYTE   W12
 BYTE   Gs1
 BYTE   W12
 BYTE   Fs1
 BYTE   W24
 BYTE   Fs1
 BYTE   W12
 BYTE   Gs1
 BYTE   W12
 BYTE   An1
 BYTE   W12
 BYTE   Bn1
 BYTE   W11
//  #03 //042   ----------------------------------------
 BYTE   W01
 BYTE   An1
 BYTE   W12
 BYTE   Gs1
 BYTE   W12
 BYTE   Fs1
 BYTE   W12
 BYTE   Gs1
 BYTE   W12
 BYTE   An1
 BYTE   W12
 BYTE   Bn1
 BYTE   W12
 BYTE   An1
 BYTE   W12
 BYTE   Gs1
 BYTE   W11
//  #03 //043   ----------------------------------------
 BYTE   W01
 BYTE   Fs1
 BYTE   W12
 BYTE   Gs1
 BYTE   W12
 BYTE   An1
 BYTE   W12
 BYTE   Bn1
 BYTE   W12
 BYTE   N23  Dn1
 BYTE   W24
 BYTE   TIE
 BYTE   W23
//  #03 //044   ----------------------------------------
 BYTE   W96
//  #03 //045   ----------------------------------------
 BYTE   W48
 BYTE   EOT
 BYTE   W01
 BYTE   N23  Gn1
 BYTE   W24
 BYTE   TIE
 BYTE   W23
//  #03 //046   ----------------------------------------
 BYTE   W96
//  #03 //047   ----------------------------------------
 BYTE   W48
 BYTE   EOT
 BYTE   W01
 BYTE   GoTo
  POIN2 Label_5466C9
 BYTE   FINE

//**************** Track 4 (Midi-Chn.3) ****************//

FF5Battle2Sme_004:
//  #04 //000   ----------------------------------------
 BYTE   KEYSH   FF5Battle2Sme_key+0
 BYTE   VOICE   48
 BYTE   VOL   72*FF5Battle2Sme_mvl/mxv
 BYTE   PAN   c_v-19
 BYTE   W01
Label_546E55:
 BYTE   W48
 BYTE   N44  Cs5  v100  gtp3
 BYTE   W44
 BYTE   W03
//  #04 //001   ----------------------------------------
Label_546E5C:
 BYTE   W01
 BYTE   N92  Cn5  v100  gtp3
 BYTE   W92
 BYTE   W03
 BYTE   PEND 
//  #04 //002   ----------------------------------------
Label_546E64:
 BYTE   W48
 BYTE   W01
 BYTE   N44  En5  v100  gtp3
 BYTE   W44
 BYTE   W03
 BYTE   PEND 
//  #04 //003   ----------------------------------------
Label_546E6D:
 BYTE   W01
 BYTE   N92  Ds5  v100  gtp3
 BYTE   W92
 BYTE   W03
 BYTE   PEND 
//  #04 //004   ----------------------------------------
 BYTE   W48
 BYTE   W01
 BYTE   N44  Cs5  v100  gtp3
 BYTE   W44
 BYTE   W03
//  #04 //005   ----------------------------------------
 BYTE   PATT
  POIN2 Label_546E5C
//  #04 //006   ----------------------------------------
 BYTE   PATT
  POIN2 Label_546E64
//  #04 //007   ----------------------------------------
 BYTE   PATT
  POIN2 Label_546E6D
//  #04 //008   ----------------------------------------
Label_546E8C:
 BYTE   W01
 BYTE   N05  Cs4  v100
 BYTE   W12
 BYTE   Cs4
 BYTE   W12
 BYTE   Cs4
 BYTE   W12
 BYTE   Cs4
 BYTE   W12
 BYTE   Dn4
 BYTE   W12
 BYTE   Dn4
 BYTE   W12
 BYTE   Dn4
 BYTE   W12
 BYTE   Dn4
 BYTE   W11
 BYTE   PEND 
//  #04 //009   ----------------------------------------
Label_546EA0:
 BYTE   W01
 BYTE   N05  Ds4  v100
 BYTE   W12
 BYTE   Ds4
 BYTE   W12
 BYTE   Ds4
 BYTE   W12
 BYTE   Ds4
 BYTE   W12
 BYTE   Dn4
 BYTE   W12
 BYTE   Dn4
 BYTE   W12
 BYTE   Dn4
 BYTE   W12
 BYTE   Dn4
 BYTE   W11
 BYTE   PEND 
//  #04 //010   ----------------------------------------
 BYTE   PATT
  POIN2 Label_546E8C
//  #04 //011   ----------------------------------------
 BYTE   PATT
  POIN2 Label_546EA0
//  #04 //012   ----------------------------------------
 BYTE   PATT
  POIN2 Label_546E8C
//  #04 //013   ----------------------------------------
 BYTE   PATT
  POIN2 Label_546EA0
//  #04 //014   ----------------------------------------
Label_546EC8:
 BYTE   W01
 BYTE   N56  Fs3  v100  gtp3
 BYTE   W60
 BYTE   N11  Gs3
 BYTE   W12
 BYTE   An3
 BYTE   W12
 BYTE   Cs4
 BYTE   W11
 BYTE   PEND 
//  #04 //015   ----------------------------------------
Label_546ED6:
 BYTE   W01
 BYTE   N23  Cn4  v100
 BYTE   W24
 BYTE   Gs3
 BYTE   W24
 BYTE   En4
 BYTE   W24
 BYTE   Ds4
 BYTE   W23
 BYTE   PEND 
//  #04 //016   ----------------------------------------
 BYTE   PATT
  POIN2 Label_546E8C
//  #04 //017   ----------------------------------------
 BYTE   PATT
  POIN2 Label_546EA0
//  #04 //018   ----------------------------------------
Label_546EEC:
 BYTE   W01
 BYTE   N44  Cs4  v100  gtp3
 BYTE   W48
 BYTE   En4
 BYTE   W44
 BYTE   W03
 BYTE   PEND 
//  #04 //019   ----------------------------------------
Label_546EF6:
 BYTE   W01
 BYTE   N92  An4  v100  gtp3
 BYTE   W92
 BYTE   W03
 BYTE   PEND 
//  #04 //020   ----------------------------------------
 BYTE   PATT
  POIN2 Label_546E8C
//  #04 //021   ----------------------------------------
 BYTE   PATT
  POIN2 Label_546EA0
//  #04 //022   ----------------------------------------
 BYTE   PATT
  POIN2 Label_546EC8
//  #04 //023   ----------------------------------------
 BYTE   PATT
  POIN2 Label_546ED6
//  #04 //024   ----------------------------------------
 BYTE   PATT
  POIN2 Label_546E8C
//  #04 //025   ----------------------------------------
 BYTE   PATT
  POIN2 Label_546EA0
//  #04 //026   ----------------------------------------
 BYTE   PATT
  POIN2 Label_546EEC
//  #04 //027   ----------------------------------------
 BYTE   PATT
  POIN2 Label_546EF6
//  #04 //028   ----------------------------------------
 BYTE   W01
 BYTE   N05  Gs3  v100
 BYTE   W12
 BYTE   Gs3
 BYTE   W12
 BYTE   Gs3
 BYTE   W12
 BYTE   Gs3
 BYTE   W12
 BYTE   An3
 BYTE   W12
 BYTE   An3
 BYTE   W12
 BYTE   An3
 BYTE   W12
 BYTE   An3
 BYTE   W11
//  #04 //029   ----------------------------------------
 BYTE   W01
 BYTE   As3
 BYTE   W12
 BYTE   As3
 BYTE   W12
 BYTE   As3
 BYTE   W12
 BYTE   As3
 BYTE   W12
 BYTE   An3
 BYTE   W12
 BYTE   An3
 BYTE   W12
 BYTE   An3
 BYTE   W12
 BYTE   An3
 BYTE   W11
//  #04 //030   ----------------------------------------
 BYTE   W01
 BYTE   N23  Cs5
 BYTE   W24
 BYTE   N11  An4
 BYTE   W12
 BYTE   N23  En4
 BYTE   W24
 BYTE   N11  An4
 BYTE   W12
 BYTE   N44  Cs5  v100  gtp3
 BYTE   W23
//  #04 //031   ----------------------------------------
 BYTE   W24
 BYTE   W01
 BYTE   N23  An4
 BYTE   W24
 BYTE   Cs5
 BYTE   W24
 BYTE   En5
 BYTE   W23
//  #04 //032   ----------------------------------------
 BYTE   W01
 BYTE   N32  Ds5  v100  gtp3
 BYTE   W36
 BYTE   Bn4
 BYTE   W36
 BYTE   TIE  Fs4
 BYTE   W23
//  #04 //033   ----------------------------------------
 BYTE   W96
//  #04 //034   ----------------------------------------
 BYTE   EOT
 BYTE   W01
 BYTE   N32  Fs3  v100  gtp3
 BYTE   W36
 BYTE   Gs3
 BYTE   W36
 BYTE   TIE  An3
 BYTE   W23
//  #04 //035   ----------------------------------------
 BYTE   W96
//  #04 //036   ----------------------------------------
 BYTE   EOT
 BYTE   W01
 BYTE   TIE  Gs3
 BYTE   W92
 BYTE   W03
//  #04 //037   ----------------------------------------
 BYTE   W96
//  #04 //038   ----------------------------------------
 BYTE   EOT
 BYTE   W01
 BYTE   N11  Fs1
 BYTE   W12
 BYTE   Gs1
 BYTE   W12
 BYTE   An1
 BYTE   W12
 BYTE   Bn1
 BYTE   W12
 BYTE   An1
 BYTE   W12
 BYTE   Gs1
 BYTE   W12
 BYTE   Fs1
 BYTE   W12
 BYTE   Gs1
 BYTE   W11
//  #04 //039   ----------------------------------------
 BYTE   W01
 BYTE   An1
 BYTE   W12
 BYTE   Bn1
 BYTE   W12
 BYTE   An1
 BYTE   W12
 BYTE   Gs1
 BYTE   W12
 BYTE   Fs1
 BYTE   W24
 BYTE   An2
 BYTE   W12
 BYTE   Bn2
 BYTE   W11
//  #04 //040   ----------------------------------------
 BYTE   W01
 BYTE   Cs3
 BYTE   W12
 BYTE   Ds3
 BYTE   W12
 BYTE   Cs3
 BYTE   W12
 BYTE   Bn2
 BYTE   W12
 BYTE   An2
 BYTE   W12
 BYTE   Bn2
 BYTE   W12
 BYTE   Cs3
 BYTE   W12
 BYTE   Ds3
 BYTE   W11
//  #04 //041   ----------------------------------------
 BYTE   W01
 BYTE   Cs3
 BYTE   W12
 BYTE   Bn2
 BYTE   W12
 BYTE   An2
 BYTE   W24
 BYTE   An2
 BYTE   W12
 BYTE   Bn2
 BYTE   W12
 BYTE   Cs3
 BYTE   W12
 BYTE   Ds3
 BYTE   W11
//  #04 //042   ----------------------------------------
 BYTE   W01
 BYTE   Cs3
 BYTE   W12
 BYTE   Bn2
 BYTE   W12
 BYTE   An2
 BYTE   W12
 BYTE   Bn2
 BYTE   W12
 BYTE   Cs3
 BYTE   W12
 BYTE   Ds3
 BYTE   W12
 BYTE   Cs3
 BYTE   W12
 BYTE   Bn2
 BYTE   W11
//  #04 //043   ----------------------------------------
 BYTE   W01
 BYTE   An2
 BYTE   W12
 BYTE   Bn2
 BYTE   W12
 BYTE   Cs3
 BYTE   W12
 BYTE   Ds3
 BYTE   W12
 BYTE   N23  Gs4
 BYTE   W24
 BYTE   TIE  Fs4
 BYTE   W23
//  #04 //044   ----------------------------------------
 BYTE   W96
//  #04 //045   ----------------------------------------
 BYTE   PATT
  POIN2 Label_5472BD
//  #04 //046   ----------------------------------------
 BYTE   W96
//  #04 //047   ----------------------------------------
 BYTE   W48
 BYTE   EOT
 BYTE   Bn4
 BYTE   W01
 BYTE   GoTo
  POIN2 Label_546E55
 BYTE   FINE

//**************** Track 5 (Midi-Chn.4) ****************//

FF5Battle2Sme_005:
//  #05 //000   ----------------------------------------
 BYTE   KEYSH   FF5Battle2Sme_key+0
 BYTE   VOICE   48
 BYTE   PAN   c_v-15
 BYTE   VOL   72*FF5Battle2Sme_mvl/mxv
 BYTE   W01
Label_01000009:
 BYTE   W48
 BYTE   N44  Cs4  v100  gtp3
 BYTE   W44
 BYTE   W03
//  #05 //001   ----------------------------------------
Label_01000010:
 BYTE   W01
 BYTE   N92  Cn4  v100  gtp3
 BYTE   W92
 BYTE   W03
 BYTE   PEND 
//  #05 //002   ----------------------------------------
Label_01000018:
 BYTE   W48
 BYTE   W01
 BYTE   N44  En4  v100  gtp3
 BYTE   W44
 BYTE   W03
 BYTE   PEND 
//  #05 //003   ----------------------------------------
Label_01000021:
 BYTE   W01
 BYTE   N92  Ds4  v100  gtp3
 BYTE   W92
 BYTE   W03
 BYTE   PEND 
//  #05 //004   ----------------------------------------
 BYTE   W48
 BYTE   W01
 BYTE   N44  Cs4  v100  gtp3
 BYTE   W44
 BYTE   W03
//  #05 //005   ----------------------------------------
 BYTE   PATT
  POIN2 Label_01000010
//  #05 //006   ----------------------------------------
 BYTE   PATT
  POIN2 Label_01000018
//  #05 //007   ----------------------------------------
 BYTE   PATT
  POIN2 Label_01000021
//  #05 //008   ----------------------------------------
Label_01000040:
 BYTE   W01
 BYTE   N05  An3  v100
 BYTE   W12
 BYTE   An3
 BYTE   W12
 BYTE   An3
 BYTE   W12
 BYTE   An3
 BYTE   W12
 BYTE   Bn3
 BYTE   W12
 BYTE   Bn3
 BYTE   W12
 BYTE   Bn3
 BYTE   W12
 BYTE   Bn3
 BYTE   W11
 BYTE   PEND 
//  #05 //009   ----------------------------------------
Label_01000054:
 BYTE   W01
 BYTE   N05  Cn4  v100
 BYTE   W12
 BYTE   Cn4
 BYTE   W12
 BYTE   Cn4
 BYTE   W12
 BYTE   Cn4
 BYTE   W12
 BYTE   Bn3
 BYTE   W12
 BYTE   Bn3
 BYTE   W12
 BYTE   Bn3
 BYTE   W12
 BYTE   Bn3
 BYTE   W11
 BYTE   PEND 
//  #05 //010   ----------------------------------------
 BYTE   PATT
  POIN2 Label_01000040
//  #05 //011   ----------------------------------------
 BYTE   PATT
  POIN2 Label_01000054
//  #05 //012   ----------------------------------------
 BYTE   PATT
  POIN2 Label_01000040
//  #05 //013   ----------------------------------------
 BYTE   PATT
  POIN2 Label_01000054
//  #05 //014   ----------------------------------------
Label_0100007C:
 BYTE   W01
 BYTE   N56  Fs2  v100  gtp3
 BYTE   W60
 BYTE   N11  Gs2
 BYTE   W12
 BYTE   An2
 BYTE   W12
 BYTE   Cs3
 BYTE   W11
 BYTE   PEND 
//  #05 //015   ----------------------------------------
Label_0100008A:
 BYTE   W01
 BYTE   N23  Cn3  v100
 BYTE   W24
 BYTE   Gs2
 BYTE   W24
 BYTE   En3
 BYTE   W24
 BYTE   Ds3
 BYTE   W23
 BYTE   PEND 
//  #05 //016   ----------------------------------------
 BYTE   PATT
  POIN2 Label_01000040
//  #05 //017   ----------------------------------------
 BYTE   PATT
  POIN2 Label_01000054
//  #05 //018   ----------------------------------------
Label_010000A0:
 BYTE   W01
 BYTE   N44  An3  v100  gtp3
 BYTE   W48
 BYTE   N23  Bn3
 BYTE   W24
 BYTE   Dn4
 BYTE   W23
 BYTE   PEND 
//  #05 //019   ----------------------------------------
Label_010000AC:
 BYTE   W01
 BYTE   N92  Cs4  v100  gtp3
 BYTE   W92
 BYTE   W03
 BYTE   PEND 
//  #05 //020   ----------------------------------------
 BYTE   PATT
  POIN2 Label_01000040
//  #05 //021   ----------------------------------------
 BYTE   PATT
  POIN2 Label_01000054
//  #05 //022   ----------------------------------------
 BYTE   PATT
  POIN2 Label_0100007C
//  #05 //023   ----------------------------------------
 BYTE   PATT
  POIN2 Label_0100008A
//  #05 //024   ----------------------------------------
 BYTE   PATT
  POIN2 Label_01000040
//  #05 //025   ----------------------------------------
 BYTE   PATT
  POIN2 Label_01000054
//  #05 //026   ----------------------------------------
 BYTE   PATT
  POIN2 Label_010000A0
//  #05 //027   ----------------------------------------
 BYTE   PATT
  POIN2 Label_010000AC
//  #05 //028   ----------------------------------------
 BYTE   W01
 BYTE   N05  En3  v100
 BYTE   W12
 BYTE   En3
 BYTE   W12
 BYTE   En3
 BYTE   W12
 BYTE   En3
 BYTE   W12
 BYTE   Fs3
 BYTE   W12
 BYTE   Fs3
 BYTE   W12
 BYTE   Fs3
 BYTE   W12
 BYTE   Fs3
 BYTE   W11
//  #05 //029   ----------------------------------------
 BYTE   W01
 BYTE   Gn3
 BYTE   W12
 BYTE   Gn3
 BYTE   W12
 BYTE   Gn3
 BYTE   W12
 BYTE   Gn3
 BYTE   W12
 BYTE   Fs3
 BYTE   W12
 BYTE   Fs3
 BYTE   W12
 BYTE   Fs3
 BYTE   W12
 BYTE   Fs3
 BYTE   W11
//  #05 //030   ----------------------------------------
 BYTE   W01
 BYTE   N23  Cs4
 BYTE   W24
 BYTE   N11  An3
 BYTE   W12
 BYTE   N23  En3
 BYTE   W24
 BYTE   N11  An3
 BYTE   W12
 BYTE   N44  Cs4  v100  gtp3
 BYTE   W23
//  #05 //031   ----------------------------------------
 BYTE   W24
 BYTE   W01
 BYTE   N23  An3
 BYTE   W24
 BYTE   Cs4
 BYTE   W24
 BYTE   En4
 BYTE   W23
//  #05 //032   ----------------------------------------
 BYTE   W01
 BYTE   N32  Ds4  v100  gtp3
 BYTE   W36
 BYTE   Bn3
 BYTE   W36
 BYTE   TIE  Fs3
 BYTE   W23
//  #05 //033   ----------------------------------------
 BYTE   W96
//  #05 //034   ----------------------------------------
 BYTE   EOT
 BYTE   W01
 BYTE   N32  Dn3  v100  gtp3
 BYTE   W36
 BYTE   En3
 BYTE   W36
 BYTE   TIE  Fs3
 BYTE   W23
//  #05 //035   ----------------------------------------
 BYTE   W96
//  #05 //036   ----------------------------------------
 BYTE   EOT
 BYTE   W01
 BYTE   TIE  Fn3
 BYTE   W92
 BYTE   W03
//  #05 //037   ----------------------------------------
 BYTE   W96
//  #05 //038   ----------------------------------------
 BYTE   EOT
 BYTE   W01
 BYTE   N11  Fs2
 BYTE   W12
 BYTE   Gs2
 BYTE   W12
 BYTE   An2
 BYTE   W12
 BYTE   Bn2
 BYTE   W12
 BYTE   An2
 BYTE   W12
 BYTE   Gs2
 BYTE   W12
 BYTE   Fs2
 BYTE   W12
 BYTE   Gs2
 BYTE   W11
//  #05 //039   ----------------------------------------
 BYTE   W01
 BYTE   An2
 BYTE   W12
 BYTE   Bn2
 BYTE   W12
 BYTE   An2
 BYTE   W12
 BYTE   Gs2
 BYTE   W12
 BYTE   Fs2
 BYTE   W24
 BYTE   An3
 BYTE   W12
 BYTE   Bn3
 BYTE   W11
//  #05 //040   ----------------------------------------
 BYTE   W01
 BYTE   Cs4
 BYTE   W12
 BYTE   Ds4
 BYTE   W12
 BYTE   Cs4
 BYTE   W12
 BYTE   Bn3
 BYTE   W12
 BYTE   An3
 BYTE   W12
 BYTE   Bn3
 BYTE   W12
 BYTE   Cs4
 BYTE   W12
 BYTE   Ds4
 BYTE   W11
//  #05 //041   ----------------------------------------
 BYTE   W01
 BYTE   Cs4
 BYTE   W12
 BYTE   Bn3
 BYTE   W12
 BYTE   An3
 BYTE   W24
 BYTE   Cs4
 BYTE   W12
 BYTE   Ds4
 BYTE   W12
 BYTE   En4
 BYTE   W12
 BYTE   Fs4
 BYTE   W11
//  #05 //042   ----------------------------------------
 BYTE   W01
 BYTE   En4
 BYTE   W12
 BYTE   Ds4
 BYTE   W12
 BYTE   Cs4
 BYTE   W12
 BYTE   Ds4
 BYTE   W12
 BYTE   En4
 BYTE   W12
 BYTE   Fs4
 BYTE   W12
 BYTE   En4
 BYTE   W12
 BYTE   Ds4
 BYTE   W11
//  #05 //043   ----------------------------------------
 BYTE   W01
 BYTE   Cs4
 BYTE   W12
 BYTE   Ds4
 BYTE   W12
 BYTE   En4
 BYTE   W12
 BYTE   Fs4
 BYTE   W12
 BYTE   N23  Dn4
 BYTE   W24
 BYTE   TIE
 BYTE   W23
//  #05 //044   ----------------------------------------
 BYTE   W96
//  #05 //045   ----------------------------------------
 BYTE   W48
 BYTE   EOT
 BYTE   W01
 BYTE   N23  Gn4
 BYTE   W24
 BYTE   TIE
 BYTE   W23
//  #05 //046   ----------------------------------------
 BYTE   W96
//  #05 //047   ----------------------------------------
 BYTE   W48
 BYTE   EOT
 BYTE   W01
 BYTE   GoTo
  POIN2 Label_01000009
 BYTE   FINE

//**************** Track 6 (Midi-Chn.5) ****************//

FF5Battle2Sme_006:
//  #06 //000   ----------------------------------------
 BYTE   KEYSH   FF5Battle2Sme_key+0
 BYTE   VOICE   41
 BYTE   VOL   72*FF5Battle2Sme_mvl/mxv
 BYTE   PAN   c_v+6
 BYTE   W01
Label_5462B9:
 BYTE   N11  Fs2  v100
 BYTE   W12
 BYTE   Gs2
 BYTE   W12
 BYTE   An2
 BYTE   W12
 BYTE   Cs3
 BYTE   W12
 BYTE   Fn3
 BYTE   W12
 BYTE   Fs3
 BYTE   W12
 BYTE   Gs3
 BYTE   W12
 BYTE   An3
 BYTE   W11
//  #06 //001   ----------------------------------------
Label_5462CB:
 BYTE   W01
 BYTE   N11  Fs2  v100
 BYTE   W12
 BYTE   Gs2
 BYTE   W12
 BYTE   An2
 BYTE   W12
 BYTE   Cn3
 BYTE   W12
 BYTE   Cs3
 BYTE   W12
 BYTE   Fn3
 BYTE   W12
 BYTE   Fs3
 BYTE   W12
 BYTE   Gs3
 BYTE   W11
 BYTE   PEND 
//  #06 //002   ----------------------------------------
Label_5462DF:
 BYTE   W01
 BYTE   N11  Fs2  v100
 BYTE   W12
 BYTE   Gs2
 BYTE   W12
 BYTE   An2
 BYTE   W12
 BYTE   Cs3
 BYTE   W12
 BYTE   En3
 BYTE   W12
 BYTE   Fs3
 BYTE   W12
 BYTE   Gs3
 BYTE   W12
 BYTE   An3
 BYTE   W11
 BYTE   PEND 
//  #06 //003   ----------------------------------------
Label_5462F3:
 BYTE   W01
 BYTE   N11  Fs2  v100
 BYTE   W12
 BYTE   Gs2
 BYTE   W12
 BYTE   An2
 BYTE   W12
 BYTE   Cs3
 BYTE   W12
 BYTE   Fn3
 BYTE   W12
 BYTE   Fs3
 BYTE   W12
 BYTE   Gs3
 BYTE   W12
 BYTE   An3
 BYTE   W11
 BYTE   PEND 
//  #06 //004   ----------------------------------------
 BYTE   PATT
  POIN2 Label_5462F3
//  #06 //005   ----------------------------------------
 BYTE   PATT
  POIN2 Label_5462CB
//  #06 //006   ----------------------------------------
 BYTE   PATT
  POIN2 Label_5462DF
//  #06 //007   ----------------------------------------
 BYTE   PATT
  POIN2 Label_5462F3
//  #06 //008   ----------------------------------------
 BYTE   W96
//  #06 //009   ----------------------------------------
 BYTE   W96
//  #06 //010   ----------------------------------------
 BYTE   W96
//  #06 //011   ----------------------------------------
 BYTE   W96
//  #06 //012   ----------------------------------------
 BYTE   W96
//  #06 //013   ----------------------------------------
 BYTE   W96
//  #06 //014   ----------------------------------------
 BYTE   W96
//  #06 //015   ----------------------------------------
 BYTE   W96
//  #06 //016   ----------------------------------------
 BYTE   W96
//  #06 //017   ----------------------------------------
 BYTE   W96
//  #06 //018   ----------------------------------------
 BYTE   W96
//  #06 //019   ----------------------------------------
 BYTE   W96
//  #06 //020   ----------------------------------------
 BYTE   W96
//  #06 //021   ----------------------------------------
 BYTE   W96
//  #06 //022   ----------------------------------------
 BYTE   W96
//  #06 //023   ----------------------------------------
 BYTE   W96
//  #06 //024   ----------------------------------------
 BYTE   W96
//  #06 //025   ----------------------------------------
 BYTE   W96
//  #06 //026   ----------------------------------------
 BYTE   W96
//  #06 //027   ----------------------------------------
 BYTE   W96
//  #06 //028   ----------------------------------------
 BYTE   W96
//  #06 //029   ----------------------------------------
 BYTE   W96
//  #06 //030   ----------------------------------------
 BYTE   W96
//  #06 //031   ----------------------------------------
 BYTE   W96
//  #06 //032   ----------------------------------------
 BYTE   W96
//  #06 //033   ----------------------------------------
 BYTE   W96
//  #06 //034   ----------------------------------------
 BYTE   W96
//  #06 //035   ----------------------------------------
 BYTE   W96
//  #06 //036   ----------------------------------------
 BYTE   W96
//  #06 //037   ----------------------------------------
 BYTE   W96
//  #06 //038   ----------------------------------------
 BYTE   W96
//  #06 //039   ----------------------------------------
 BYTE   W96
//  #06 //040   ----------------------------------------
 BYTE   W96
//  #06 //041   ----------------------------------------
 BYTE   W96
//  #06 //042   ----------------------------------------
 BYTE   W96
//  #06 //043   ----------------------------------------
 BYTE   W48
 BYTE   W01
 BYTE   N23  An3  v100
 BYTE   W24
 BYTE   TIE
 BYTE   W23
//  #06 //044   ----------------------------------------
 BYTE   W96
//  #06 //045   ----------------------------------------
 BYTE   W48
 BYTE   EOT
 BYTE   W01
 BYTE   N23  Dn4
 BYTE   W24
 BYTE   TIE
 BYTE   W23
//  #06 //046   ----------------------------------------
 BYTE   W96
//  #06 //047   ----------------------------------------
 BYTE   W48
 BYTE   EOT
 BYTE   W01
 BYTE   GoTo
  POIN2 Label_5462B9
 BYTE   FINE

//**************** Track 7 (Midi-Chn.6) ****************//

FF5Battle2Sme_007:
//  #07 //000   ----------------------------------------
 BYTE   KEYSH   FF5Battle2Sme_key+0
 BYTE   VOICE   127
 BYTE   VOL   84*FF5Battle2Sme_mvl/mxv
 BYTE   PAN   c_v-9
 BYTE   W01
Label_547729:
 BYTE   N92  Cs2  v100  gtp3
 BYTE   W92
 BYTE   W03
//  #07 //001   ----------------------------------------
 BYTE   W96
//  #07 //002   ----------------------------------------
Label_547730:
 BYTE   W01
 BYTE   N92  Cs2  v100  gtp3
 BYTE   W92
 BYTE   W03
 BYTE   PEND 
//  #07 //003   ----------------------------------------
 BYTE   W96
//  #07 //004   ----------------------------------------
 BYTE   PATT
  POIN2 Label_547730
//  #07 //005   ----------------------------------------
 BYTE   W96
//  #07 //006   ----------------------------------------
 BYTE   PATT
  POIN2 Label_547730
//  #07 //007   ----------------------------------------
 BYTE   W96
//  #07 //008   ----------------------------------------
Label_547745:
 BYTE   W01
 BYTE   N32  Dn1  v092  gtp3
 BYTE   N92  Cs2  v100  gtp3
 BYTE   W36
 BYTE   N03  Dn1  v052
 BYTE   W04
 BYTE   Dn1
 BYTE   W04
 BYTE   Dn1
 BYTE   W04
 BYTE   N32  Dn1  v092  gtp3
 BYTE   W36
 BYTE   N03  Dn1  v052
 BYTE   W04
 BYTE   Dn1
 BYTE   W04
 BYTE   Dn1
 BYTE   W03
 BYTE   PEND 
//  #07 //009   ----------------------------------------
Label_547765:
 BYTE   W01
 BYTE   N32  Dn1  v092  gtp3
 BYTE   W36
 BYTE   N03  Dn1  v052
 BYTE   W04
 BYTE   Dn1
 BYTE   W04
 BYTE   Dn1
 BYTE   W04
 BYTE   N11  Dn1  v092
 BYTE   W12
 BYTE   Dn1
 BYTE   W12
 BYTE   Dn1
 BYTE   W12
 BYTE   Dn1
 BYTE   W11
 BYTE   PEND 
//  #07 //010   ----------------------------------------
Label_54777E:
 BYTE   W01
 BYTE   N32  Dn1  v092  gtp3
 BYTE   W36
 BYTE   N03  Dn1  v052
 BYTE   W04
 BYTE   Dn1
 BYTE   W04
 BYTE   Dn1
 BYTE   W04
 BYTE   N32  Dn1  v092  gtp3
 BYTE   W36
 BYTE   N03  Dn1  v052
 BYTE   W04
 BYTE   Dn1
 BYTE   W04
 BYTE   Dn1
 BYTE   W03
 BYTE   PEND 
//  #07 //011   ----------------------------------------
 BYTE   PATT
  POIN2 Label_547765
//  #07 //012   ----------------------------------------
 BYTE   PATT
  POIN2 Label_547745
//  #07 //013   ----------------------------------------
 BYTE   PATT
  POIN2 Label_547765
//  #07 //014   ----------------------------------------
Label_5477A9:
 BYTE   W01
 BYTE   N32  Dn1  v092  gtp3
 BYTE   W36
 BYTE   N03  Dn1  v052
 BYTE   W04
 BYTE   Dn1
 BYTE   W04
 BYTE   Dn1
 BYTE   W04
 BYTE   N44  Dn1  v092  gtp3
 BYTE   W44
 BYTE   W03
 BYTE   PEND 
//  #07 //015   ----------------------------------------
Label_5477BE:
 BYTE   W13
 BYTE   N03  Dn1  v052
 BYTE   W04
 BYTE   Dn1
 BYTE   W04
 BYTE   Dn1
 BYTE   W04
 BYTE   N11  Dn1  v092
 BYTE   W12
 BYTE   N03  Dn1  v052
 BYTE   W04
 BYTE   Dn1
 BYTE   W04
 BYTE   Dn1
 BYTE   W04
 BYTE   N11  Dn1  v092
 BYTE   W12
 BYTE   N03  Dn1  v052
 BYTE   W04
 BYTE   Dn1
 BYTE   W04
 BYTE   Dn1
 BYTE   W04
 BYTE   N23  Dn1  v092
 BYTE   W23
 BYTE   PEND 
//  #07 //016   ----------------------------------------
 BYTE   PATT
  POIN2 Label_54777E
//  #07 //017   ----------------------------------------
 BYTE   PATT
  POIN2 Label_547765
//  #07 //018   ----------------------------------------
 BYTE   PATT
  POIN2 Label_5477A9
//  #07 //019   ----------------------------------------
 BYTE   PATT
  POIN2 Label_5477BE
//  #07 //020   ----------------------------------------
 BYTE   PATT
  POIN2 Label_547745
//  #07 //021   ----------------------------------------
 BYTE   PATT
  POIN2 Label_547765
//  #07 //022   ----------------------------------------
 BYTE   PATT
  POIN2 Label_5477A9
//  #07 //023   ----------------------------------------
 BYTE   PATT
  POIN2 Label_5477BE
//  #07 //024   ----------------------------------------
 BYTE   PATT
  POIN2 Label_54777E
//  #07 //025   ----------------------------------------
 BYTE   PATT
  POIN2 Label_547765
//  #07 //026   ----------------------------------------
 BYTE   PATT
  POIN2 Label_5477A9
//  #07 //027   ----------------------------------------
 BYTE   PATT
  POIN2 Label_5477BE
//  #07 //028   ----------------------------------------
Label_547820:
 BYTE   W01
 BYTE   N68  Dn1  v092  gtp3
 BYTE   W84
 BYTE   N03  Dn1  v052
 BYTE   W04
 BYTE   Dn1
 BYTE   W04
 BYTE   Dn1
 BYTE   W03
 BYTE   PEND 
//  #07 //029   ----------------------------------------
 BYTE   PATT
  POIN2 Label_547820
//  #07 //030   ----------------------------------------
 BYTE   PATT
  POIN2 Label_54777E
//  #07 //031   ----------------------------------------
 BYTE   PATT
  POIN2 Label_547765
//  #07 //032   ----------------------------------------
 BYTE   PATT
  POIN2 Label_547820
//  #07 //033   ----------------------------------------
 BYTE   PATT
  POIN2 Label_547820
//  #07 //034   ----------------------------------------
 BYTE   PATT
  POIN2 Label_54777E
//  #07 //035   ----------------------------------------
 BYTE   PATT
  POIN2 Label_547765
//  #07 //036   ----------------------------------------
 BYTE   PATT
  POIN2 Label_54777E
//  #07 //037   ----------------------------------------
 BYTE   W01
 BYTE   N11  Dn1  v092
 BYTE   W12
 BYTE   N03  Dn1  v052
 BYTE   W04
 BYTE   Dn1
 BYTE   W04
 BYTE   Dn1
 BYTE   W04
 BYTE   N11  Dn1  v092
 BYTE   W12
 BYTE   N03  Dn1  v052
 BYTE   W04
 BYTE   Dn1
 BYTE   W04
 BYTE   Dn1
 BYTE   W04
 BYTE   N11  Dn1  v092
 BYTE   W12
 BYTE   N03  Dn1  v052
 BYTE   W04
 BYTE   Dn1
 BYTE   W04
 BYTE   Dn1
 BYTE   W04
 BYTE   N11  Dn1  v092
 BYTE   W12
 BYTE   N03  Dn1  v052
 BYTE   W04
 BYTE   Dn1
 BYTE   W04
 BYTE   Dn1
 BYTE   W03
//  #07 //038   ----------------------------------------
 BYTE   W01
 BYTE   N11  Dn1  v060
 BYTE   W12
 BYTE   N05  Dn1  v032
 BYTE   W06
 BYTE   Dn1
 BYTE   W06
 BYTE   N11  Dn1  v068
 BYTE   W12
 BYTE   N05  Dn1  v032
 BYTE   W06
 BYTE   Dn1
 BYTE   W06
 BYTE   N11  Dn1  v072
 BYTE   W12
 BYTE   N05  Dn1  v036
 BYTE   W06
 BYTE   Dn1
 BYTE   W06
 BYTE   N11  Dn1  v076
 BYTE   W12
 BYTE   N05  Dn1  v040
 BYTE   W06
 BYTE   Dn1
 BYTE   W05
//  #07 //039   ----------------------------------------
 BYTE   W01
 BYTE   N11  Dn1  v080
 BYTE   W12
 BYTE   N05  Dn1  v040
 BYTE   W06
 BYTE   Dn1
 BYTE   W06
 BYTE   N11  Dn1  v088
 BYTE   W12
 BYTE   N05  Dn1  v044
 BYTE   W06
 BYTE   Dn1
 BYTE   W06
 BYTE   N23  Dn1  v092
 BYTE   W24
 BYTE   N11  Dn1  v060
 BYTE   W12
 BYTE   N05  Dn1  v032
 BYTE   W06
 BYTE   Dn1
 BYTE   W05
//  #07 //040   ----------------------------------------
Label_5478D4:
 BYTE   W01
 BYTE   N11  Dn1  v068
 BYTE   W12
 BYTE   N05  Dn1  v032
 BYTE   W06
 BYTE   Dn1
 BYTE   W06
 BYTE   N11  Dn1  v072
 BYTE   W12
 BYTE   N05  Dn1  v036
 BYTE   W06
 BYTE   Dn1
 BYTE   W06
 BYTE   N11  Dn1  v076
 BYTE   W12
 BYTE   N05  Dn1  v040
 BYTE   W06
 BYTE   Dn1
 BYTE   W06
 BYTE   N11  Dn1  v080
 BYTE   W12
 BYTE   N05  Dn1  v040
 BYTE   W06
 BYTE   Dn1
 BYTE   W05
 BYTE   PEND 
//  #07 //041   ----------------------------------------
 BYTE   W01
 BYTE   N11  Dn1  v088
 BYTE   W12
 BYTE   N05  Dn1  v044
 BYTE   W06
 BYTE   Dn1
 BYTE   W06
 BYTE   N23  Dn1  v092
 BYTE   W24
 BYTE   N11  Dn1  v056
 BYTE   W12
 BYTE   N05  Dn1  v028
 BYTE   W06
 BYTE   Dn1
 BYTE   W06
 BYTE   N11  Dn1  v060
 BYTE   W12
 BYTE   N05  Dn1  v032
 BYTE   W06
 BYTE   Dn1
 BYTE   W05
//  #07 //042   ----------------------------------------
 BYTE   PATT
  POIN2 Label_5478D4
//  #07 //043   ----------------------------------------
 BYTE   W01
 BYTE   N11  Dn1  v088
 BYTE   W12
 BYTE   N05  Dn1  v044
 BYTE   W06
 BYTE   Dn1
 BYTE   W06
 BYTE   Dn1  v092
 BYTE   W06
 BYTE   Dn1
 BYTE   W06
 BYTE   Dn1
 BYTE   W06
 BYTE   Dn1
 BYTE   W06
 BYTE   N23
 BYTE   W24
 BYTE   N03
 BYTE   W04
 BYTE   Dn1  v088
 BYTE   W04
 BYTE   Dn1  v084
 BYTE   W04
 BYTE   Dn1  v080
 BYTE   W04
 BYTE   Dn1  v076
 BYTE   W04
 BYTE   Dn1
 BYTE   W03
//  #07 //044   ----------------------------------------
Label_54794C:
 BYTE   W01
 BYTE   N03  Dn1  v072
 BYTE   W04
 BYTE   Dn1  v068
 BYTE   W04
 BYTE   Dn1  v064
 BYTE   W04
 BYTE   Dn1  v060
 BYTE   W04
 BYTE   Dn1  v056
 BYTE   W04
 BYTE   Dn1  v052
 BYTE   W04
 BYTE   Dn1  v048
 BYTE   W04
 BYTE   Dn1  v044
 BYTE   W04
 BYTE   Dn1
 BYTE   W04
 BYTE   Dn1  v040
 BYTE   W04
 BYTE   Dn1  v036
 BYTE   W04
 BYTE   Dn1  v032
 BYTE   W04
 BYTE   Dn1  v028
 BYTE   N92  Cs2  v100  gtp3
 BYTE   W04
 BYTE   N03  Dn1  v024
 BYTE   W04
 BYTE   Dn1  v020
 BYTE   W04
 BYTE   Dn1  v016
 BYTE   W04
 BYTE   Dn1
 BYTE   W04
 BYTE   Dn1  v012
 BYTE   W24
 BYTE   W03
 BYTE   PEND 
//  #07 //045   ----------------------------------------
 BYTE   W48
 BYTE   W01
 BYTE   N23  Dn1  v092
 BYTE   W24
 BYTE   N03
 BYTE   W04
 BYTE   Dn1  v088
 BYTE   W04
 BYTE   Dn1  v084
 BYTE   W04
 BYTE   Dn1  v080
 BYTE   W04
 BYTE   Dn1  v076
 BYTE   W04
 BYTE   Dn1
 BYTE   W03
//  #07 //046   ----------------------------------------
 BYTE   PATT
  POIN2 Label_54794C
//  #07 //047   ----------------------------------------
 BYTE   W48
 BYTE   W01
 BYTE   GoTo
  POIN2 Label_547729
 BYTE   FINE

//******************************************************//
	ALIGN 4

FF5Battle2Sme:
	BYTE	7	// NumTrks
	BYTE	0	// NumBlks
	BYTE	FF5Battle2Sme_pri	// Priority
	BYTE	FF5Battle2Sme_rev	// Reverb.
    
	POIN2	FF5Battle2Sme_grp
    
	POIN2	FF5Battle2Sme_001
	POIN2	FF5Battle2Sme_002
	POIN2	FF5Battle2Sme_003
	POIN2	FF5Battle2Sme_004
	POIN2	FF5Battle2Sme_005
	POIN2	FF5Battle2Sme_006
	POIN2	FF5Battle2Sme_007

	
