//Event file generated from Sappy .s format.
	#include "MPlayDef.event"

	#define	FF5HomeSme_grp  voicegroup000
	#define	FF5HomeSme_pri  0
	#define	FF5HomeSme_rev  0
	#define	FF5HomeSme_mvl  127
	#define	FF5HomeSme_key  0
	#define	FF5HomeSme_tbs  1
	#define	FF5HomeSme_exg  0
	#define	FF5HomeSme_cmp  1

	// .rodata
	//	FF5HomeSme
	ALIGN 4


//**************** Track 1 (Midi-Chn.0) ****************//

FF5HomeSme_001:
//  #01 //000   ----------------------------------------
 BYTE   KEYSH   FF5HomeSme_key+0
 BYTE   TEMPO   124*FF5HomeSme_tbs/2
Label_546E50:
 BYTE   VOICE   73
 BYTE   VOL   83*FF5HomeSme_mvl/mxv
 BYTE   PAN   c_v-14
 BYTE   LFODL 12
 BYTE   LFOS 24
 BYTE   MOD 3
 BYTE   W96
//  #01 //001   ----------------------------------------
 BYTE   W96
//  #01 //002   ----------------------------------------
 BYTE   W96
//  #01 //003   ----------------------------------------
 BYTE   W96
//  #01 //004   ----------------------------------------
 BYTE   W96
//  #01 //005   ----------------------------------------
 BYTE   W96
//  #01 //006   ----------------------------------------
Label_546E62:
 BYTE   N23  Bn3  v100
 BYTE   W24
 BYTE   N11  Fs4
 BYTE   W24
 BYTE   Fs4
 BYTE   W24
 BYTE   N23  An4
 BYTE   W24
 BYTE   PEND 
//  #01 //007   ----------------------------------------
Label_546E6F:
 BYTE   N11  Gs4  v100
 BYTE   W12
 BYTE   Fs4
 BYTE   W12
 BYTE   En4
 BYTE   W12
 BYTE   Gs4
 BYTE   W12
 BYTE   N23  Fs4
 BYTE   W24
 BYTE   Bn3
 BYTE   W24
 BYTE   PEND 
//  #01 //008   ----------------------------------------
 BYTE   An3
 BYTE   W24
 BYTE   N56  Bn3  v100  gtp3
 BYTE   W04
 BYTE   VOL   78*FF5HomeSme_mvl/mxv
 BYTE   W05
 BYTE   VOL   75*FF5HomeSme_mvl/mxv
 BYTE   W05
 BYTE   VOL   70*FF5HomeSme_mvl/mxv
 BYTE   W05
 BYTE   VOL   68*FF5HomeSme_mvl/mxv
 BYTE   W05
 BYTE   VOL   64*FF5HomeSme_mvl/mxv
 BYTE   W05
 BYTE   VOL   60*FF5HomeSme_mvl/mxv
 BYTE   W05
 BYTE   VOL   57*FF5HomeSme_mvl/mxv
 BYTE   W05
 BYTE   VOL   55*FF5HomeSme_mvl/mxv
 BYTE   W05
 BYTE   VOL   52*FF5HomeSme_mvl/mxv
 BYTE   W05
 BYTE   VOL   49*FF5HomeSme_mvl/mxv
 BYTE   W05
 BYTE   VOL   47*FF5HomeSme_mvl/mxv
 BYTE   W06
 BYTE   VOL   83*FF5HomeSme_mvl/mxv
 BYTE   W12
//  #01 //009   ----------------------------------------
 BYTE   PATT
  POIN2 Label_546E62
//  #01 //010   ----------------------------------------
Label_546EA4:
 BYTE   N11  Gs4  v100
 BYTE   W12
 BYTE   Fs4
 BYTE   W12
 BYTE   En4
 BYTE   W12
 BYTE   Gs4
 BYTE   W12
 BYTE   N23  Fs4
 BYTE   W24
 BYTE   Bn4
 BYTE   W24
 BYTE   PEND 
//  #01 //011   ----------------------------------------
Label_546EB4:
 BYTE   N23  An4  v100
 BYTE   W24
 BYTE   N56  Bn4  v100  gtp3
 BYTE   W04
 BYTE   VOL   78*FF5HomeSme_mvl/mxv
 BYTE   W05
 BYTE   VOL   75*FF5HomeSme_mvl/mxv
 BYTE   W05
 BYTE   VOL   70*FF5HomeSme_mvl/mxv
 BYTE   W05
 BYTE   VOL   68*FF5HomeSme_mvl/mxv
 BYTE   W05
 BYTE   VOL   64*FF5HomeSme_mvl/mxv
 BYTE   W05
 BYTE   VOL   61*FF5HomeSme_mvl/mxv
 BYTE   W05
 BYTE   VOL   57*FF5HomeSme_mvl/mxv
 BYTE   W05
 BYTE   VOL   55*FF5HomeSme_mvl/mxv
 BYTE   W05
 BYTE   VOL   52*FF5HomeSme_mvl/mxv
 BYTE   W05
 BYTE   VOL   49*FF5HomeSme_mvl/mxv
 BYTE   W05
 BYTE   VOL   47*FF5HomeSme_mvl/mxv
 BYTE   W06
 BYTE   VOL   83*FF5HomeSme_mvl/mxv
 BYTE   W12
 BYTE   PEND 
//  #01 //012   ----------------------------------------
Label_546ED7:
 BYTE   N23  Bn4  v100
 BYTE   W24
 BYTE   N11
 BYTE   W12
 BYTE   Cs5
 BYTE   W12
 BYTE   An4
 BYTE   W12
 BYTE   Fs4
 BYTE   W12
 BYTE   N23  En4
 BYTE   W24
 BYTE   PEND 
//  #01 //013   ----------------------------------------
Label_546EE7:
 BYTE   N23  An4  v100
 BYTE   W24
 BYTE   Gs4
 BYTE   W24
 BYTE   Fs4
 BYTE   W24
 BYTE   Bn3
 BYTE   W24
 BYTE   PEND 
//  #01 //014   ----------------------------------------
 BYTE   An3
 BYTE   W24
 BYTE   VOL   82*FF5HomeSme_mvl/mxv
 BYTE   N56  Bn3  v100  gtp3
 BYTE   W05
 BYTE   VOL   78*FF5HomeSme_mvl/mxv
 BYTE   W05
 BYTE   VOL   74*FF5HomeSme_mvl/mxv
 BYTE   W05
 BYTE   VOL   70*FF5HomeSme_mvl/mxv
 BYTE   W05
 BYTE   VOL   67*FF5HomeSme_mvl/mxv
 BYTE   W05
 BYTE   VOL   63*FF5HomeSme_mvl/mxv
 BYTE   W05
 BYTE   VOL   60*FF5HomeSme_mvl/mxv
 BYTE   W05
 BYTE   VOL   57*FF5HomeSme_mvl/mxv
 BYTE   W05
 BYTE   VOL   55*FF5HomeSme_mvl/mxv
 BYTE   W05
 BYTE   VOL   52*FF5HomeSme_mvl/mxv
 BYTE   W05
 BYTE   VOL   49*FF5HomeSme_mvl/mxv
 BYTE   W05
 BYTE   VOL   47*FF5HomeSme_mvl/mxv
 BYTE   W05
 BYTE   VOL   83*FF5HomeSme_mvl/mxv
 BYTE   W12
//  #01 //015   ----------------------------------------
 BYTE   PATT
  POIN2 Label_546E62
//  #01 //016   ----------------------------------------
 BYTE   PATT
  POIN2 Label_546EA4
//  #01 //017   ----------------------------------------
 BYTE   N23  An4  v100
 BYTE   W24
 BYTE   VOL   82*FF5HomeSme_mvl/mxv
 BYTE   N68  Bn4  v100  gtp3
 BYTE   W05
 BYTE   VOL   78*FF5HomeSme_mvl/mxv
 BYTE   W05
 BYTE   VOL   74*FF5HomeSme_mvl/mxv
 BYTE   W05
 BYTE   VOL   70*FF5HomeSme_mvl/mxv
 BYTE   W05
 BYTE   VOL   68*FF5HomeSme_mvl/mxv
 BYTE   W05
 BYTE   VOL   63*FF5HomeSme_mvl/mxv
 BYTE   W04
 BYTE   VOL   61*FF5HomeSme_mvl/mxv
 BYTE   W05
 BYTE   VOL   57*FF5HomeSme_mvl/mxv
 BYTE   W05
 BYTE   VOL   55*FF5HomeSme_mvl/mxv
 BYTE   W05
 BYTE   VOL   52*FF5HomeSme_mvl/mxv
 BYTE   W05
 BYTE   VOL   49*FF5HomeSme_mvl/mxv
 BYTE   W05
 BYTE   VOL   47*FF5HomeSme_mvl/mxv
 BYTE   W05
 BYTE   VOL   44*FF5HomeSme_mvl/mxv
 BYTE   W05
 BYTE   VOL   42*FF5HomeSme_mvl/mxv
 BYTE   W05
 BYTE   VOL   40*FF5HomeSme_mvl/mxv
 BYTE   W03
//  #01 //018   ----------------------------------------
 BYTE   VOL   83*FF5HomeSme_mvl/mxv
 BYTE   W96
//  #01 //019   ----------------------------------------
 BYTE   W96
//  #01 //020   ----------------------------------------
 BYTE   W96
//  #01 //021   ----------------------------------------
 BYTE   W96
//  #01 //022   ----------------------------------------
 BYTE   W96
//  #01 //023   ----------------------------------------
 BYTE   W96
//  #01 //024   ----------------------------------------
 BYTE   PATT
  POIN2 Label_546E62
//  #01 //025   ----------------------------------------
 BYTE   PATT
  POIN2 Label_546E6F
//  #01 //026   ----------------------------------------
Label_546F57:
 BYTE   N23  An3  v100
 BYTE   W24
 BYTE   N56  Bn3  v100  gtp3
 BYTE   W04
 BYTE   VOL   78*FF5HomeSme_mvl/mxv
 BYTE   W05
 BYTE   VOL   75*FF5HomeSme_mvl/mxv
 BYTE   W05
 BYTE   VOL   70*FF5HomeSme_mvl/mxv
 BYTE   W05
 BYTE   VOL   68*FF5HomeSme_mvl/mxv
 BYTE   W05
 BYTE   VOL   64*FF5HomeSme_mvl/mxv
 BYTE   W05
 BYTE   VOL   61*FF5HomeSme_mvl/mxv
 BYTE   W05
 BYTE   VOL   57*FF5HomeSme_mvl/mxv
 BYTE   W05
 BYTE   VOL   55*FF5HomeSme_mvl/mxv
 BYTE   W05
 BYTE   VOL   52*FF5HomeSme_mvl/mxv
 BYTE   W05
 BYTE   VOL   49*FF5HomeSme_mvl/mxv
 BYTE   W05
 BYTE   VOL   47*FF5HomeSme_mvl/mxv
 BYTE   W06
 BYTE   VOL   83*FF5HomeSme_mvl/mxv
 BYTE   W12
 BYTE   PEND 
//  #01 //027   ----------------------------------------
 BYTE   PATT
  POIN2 Label_546E62
//  #01 //028   ----------------------------------------
 BYTE   PATT
  POIN2 Label_546EA4
//  #01 //029   ----------------------------------------
 BYTE   PATT
  POIN2 Label_546EB4
//  #01 //030   ----------------------------------------
 BYTE   PATT
  POIN2 Label_546ED7
//  #01 //031   ----------------------------------------
 BYTE   PATT
  POIN2 Label_546EE7
//  #01 //032   ----------------------------------------
 BYTE   PATT
  POIN2 Label_546F57
//  #01 //033   ----------------------------------------
 BYTE   PATT
  POIN2 Label_546E62
//  #01 //034   ----------------------------------------
 BYTE   PATT
  POIN2 Label_546EA4
//  #01 //035   ----------------------------------------
 BYTE   N23  An4  v100
 BYTE   W24
 BYTE   VOL   82*FF5HomeSme_mvl/mxv
 BYTE   N68  Bn4  v100  gtp3
 BYTE   W05
 BYTE   VOL   78*FF5HomeSme_mvl/mxv
 BYTE   W05
 BYTE   VOL   74*FF5HomeSme_mvl/mxv
 BYTE   W05
 BYTE   VOL   70*FF5HomeSme_mvl/mxv
 BYTE   W05
 BYTE   VOL   68*FF5HomeSme_mvl/mxv
 BYTE   W05
 BYTE   VOL   63*FF5HomeSme_mvl/mxv
 BYTE   W04
 BYTE   VOL   60*FF5HomeSme_mvl/mxv
 BYTE   W05
 BYTE   VOL   57*FF5HomeSme_mvl/mxv
 BYTE   W05
 BYTE   VOL   55*FF5HomeSme_mvl/mxv
 BYTE   W05
 BYTE   VOL   52*FF5HomeSme_mvl/mxv
 BYTE   W05
 BYTE   VOL   49*FF5HomeSme_mvl/mxv
 BYTE   W05
 BYTE   VOL   47*FF5HomeSme_mvl/mxv
 BYTE   W05
 BYTE   VOL   44*FF5HomeSme_mvl/mxv
 BYTE   W05
 BYTE   VOL   42*FF5HomeSme_mvl/mxv
 BYTE   W05
 BYTE   VOL   40*FF5HomeSme_mvl/mxv
 BYTE   W03
//  #01 //036   ----------------------------------------
 BYTE   VOL   83*FF5HomeSme_mvl/mxv
 BYTE   GoTo
  POIN2 Label_546E50
 BYTE   FINE

//**************** Track 2 (Midi-Chn.1) ****************//

FF5HomeSme_002:
//  #02 //000   ----------------------------------------
 BYTE   KEYSH   FF5HomeSme_key+0
Label_0100029E:
 BYTE   VOICE   8
 BYTE   VOL   61*FF5HomeSme_mvl/mxv
 BYTE   PAN   c_v+6
 BYTE   N23  Bn3  v100
 BYTE   W24
 BYTE   Fs4
 BYTE   W24
 BYTE   Fs4
 BYTE   W24
 BYTE   N11  An4
 BYTE   W12
 BYTE   Gs4
 BYTE   W12
//  #02 //001   ----------------------------------------
 BYTE   Fs4
 BYTE   W12
 BYTE   En4
 BYTE   W12
 BYTE   Fs4
 BYTE   W12
 BYTE   Gs4
 BYTE   W12
 BYTE   N23  Fs4
 BYTE   W24
 BYTE   Bn3
 BYTE   W24
//  #02 //002   ----------------------------------------
Label_010002BE:
 BYTE   N23  An3  v100
 BYTE   W24
 BYTE   N68  Bn3  v100  gtp3
 BYTE   W72
 BYTE   PEND 
//  #02 //003   ----------------------------------------
 BYTE   N23
 BYTE   W24
 BYTE   Fs4
 BYTE   W24
 BYTE   Fs4
 BYTE   W24
 BYTE   N11  An4
 BYTE   W12
 BYTE   Gs4
 BYTE   W12
//  #02 //004   ----------------------------------------
 BYTE   Fs4
 BYTE   W12
 BYTE   En4
 BYTE   W12
 BYTE   Fs4
 BYTE   W12
 BYTE   Gs4
 BYTE   W12
 BYTE   N23  Fs4
 BYTE   W24
 BYTE   Bn4
 BYTE   W24
//  #02 //005   ----------------------------------------
Label_010002E0:
 BYTE   N23  An4  v100
 BYTE   W24
 BYTE   N68  Bn4  v100  gtp3
 BYTE   W72
 BYTE   PEND 
//  #02 //006   ----------------------------------------
Label_010002EA:
 BYTE   N23  Bn3  v100
 BYTE   W24
 BYTE   Cs4
 BYTE   W24
 BYTE   Dn4
 BYTE   W24
 BYTE   N68  En4  v100  gtp3
 BYTE   W24
 BYTE   PEND 
//  #02 //007   ----------------------------------------
Label_010002F8:
 BYTE   W48
 BYTE   N23  Dn4  v100
 BYTE   W24
 BYTE   Dn4
 BYTE   W24
 BYTE   PEND 
//  #02 //008   ----------------------------------------
Label_01000300:
 BYTE   N23  Cs4  v100
 BYTE   W24
 BYTE   N68  Bn3  v100  gtp3
 BYTE   W72
 BYTE   PEND 
//  #02 //009   ----------------------------------------
 BYTE   PATT
  POIN2 Label_010002EA
//  #02 //010   ----------------------------------------
 BYTE   PATT
  POIN2 Label_010002F8
//  #02 //011   ----------------------------------------
 BYTE   PATT
  POIN2 Label_01000300
//  #02 //012   ----------------------------------------
Label_01000319:
 BYTE   N11  Bn3  v100
 BYTE   W12
 BYTE   As3
 BYTE   W12
 BYTE   Bn3
 BYTE   W12
 BYTE   Cs4
 BYTE   W12
 BYTE   Dn4
 BYTE   W12
 BYTE   Fs4
 BYTE   W12
 BYTE   N23  En4
 BYTE   W24
 BYTE   PEND 
//  #02 //013   ----------------------------------------
Label_0100032B:
 BYTE   N11  En4  v100
 BYTE   W12
 BYTE   Dn4
 BYTE   W12
 BYTE   Cs4
 BYTE   W12
 BYTE   An3
 BYTE   W12
 BYTE   N23  Dn4
 BYTE   W24
 BYTE   Dn4
 BYTE   W24
 BYTE   PEND 
//  #02 //014   ----------------------------------------
 BYTE   PATT
  POIN2 Label_01000300
//  #02 //015   ----------------------------------------
 BYTE   PATT
  POIN2 Label_010002EA
//  #02 //016   ----------------------------------------
 BYTE   PATT
  POIN2 Label_010002F8
//  #02 //017   ----------------------------------------
 BYTE   PATT
  POIN2 Label_01000300
//  #02 //018   ----------------------------------------
Label_0100034F:
 BYTE   N68  Bn3  v100  gtp3
 BYTE   W72
 BYTE   N44  An3  v100  gtp3
 BYTE   W24
 BYTE   PEND 
//  #02 //019   ----------------------------------------
 BYTE   W24
 BYTE   N23  Gs3
 BYTE   W24
 BYTE   Fs3
 BYTE   W24
 BYTE   En3
 BYTE   W24
//  #02 //020   ----------------------------------------
 BYTE   Dn3
 BYTE   W24
 BYTE   En3
 BYTE   W24
 BYTE   N11  Cs4
 BYTE   W12
 BYTE   Bn3
 BYTE   W12
 BYTE   An3
 BYTE   W12
 BYTE   En3
 BYTE   W12
//  #02 //021   ----------------------------------------
 BYTE   PATT
  POIN2 Label_0100034F
//  #02 //022   ----------------------------------------
 BYTE   W24
 BYTE   N23  Gs3  v100
 BYTE   W24
 BYTE   N11  Dn3
 BYTE   W12
 BYTE   Fs3
 BYTE   W12
 BYTE   Gs3
 BYTE   W12
 BYTE   An3
 BYTE   W12
//  #02 //023   ----------------------------------------
 BYTE   Bn3
 BYTE   W12
 BYTE   Cs4
 BYTE   W12
 BYTE   N68  Dn4  v100  gtp3
 BYTE   W72
//  #02 //024   ----------------------------------------
 BYTE   PATT
  POIN2 Label_010002EA
//  #02 //025   ----------------------------------------
 BYTE   PATT
  POIN2 Label_010002F8
//  #02 //026   ----------------------------------------
 BYTE   PATT
  POIN2 Label_01000300
//  #02 //027   ----------------------------------------
 BYTE   PATT
  POIN2 Label_010002EA
//  #02 //028   ----------------------------------------
 BYTE   PATT
  POIN2 Label_010002F8
//  #02 //029   ----------------------------------------
 BYTE   PATT
  POIN2 Label_01000300
//  #02 //030   ----------------------------------------
 BYTE   PATT
  POIN2 Label_01000319
//  #02 //031   ----------------------------------------
 BYTE   PATT
  POIN2 Label_0100032B
//  #02 //032   ----------------------------------------
 BYTE   PATT
  POIN2 Label_01000300
//  #02 //033   ----------------------------------------
 BYTE   PATT
  POIN2 Label_010002EA
//  #02 //034   ----------------------------------------
 BYTE   PATT
  POIN2 Label_010002F8
//  #02 //035   ----------------------------------------
 BYTE   PATT
  POIN2 Label_01000300
//  #02 //036   ----------------------------------------
 BYTE   GoTo
  POIN2 Label_0100029E
 BYTE   FINE

//**************** Track 3 (Midi-Chn.2) ****************//

FF5HomeSme_003:
//  #03 //000   ----------------------------------------
 BYTE   KEYSH   FF5HomeSme_key+0
Label_5471DE:
 BYTE   VOICE   10
 BYTE   VOL   61*FF5HomeSme_mvl/mxv
 BYTE   PAN   c_v-4
 BYTE   W24
 BYTE   N23  Cs4  v100
 BYTE   W24
 BYTE   Dn4
 BYTE   W24
 BYTE   En4
 BYTE   W24
//  #03 //001   ----------------------------------------
 BYTE   Cs4
 BYTE   W24
 BYTE   An3
 BYTE   W24
 BYTE   N44  Dn4  v100  gtp3
 BYTE   W48
//  #03 //002   ----------------------------------------
 BYTE   N23  En3
 BYTE   W24
 BYTE   N68  En3  v100  gtp3
 BYTE   W72
//  #03 //003   ----------------------------------------
 BYTE   W24
 BYTE   N23  Cs4
 BYTE   W24
 BYTE   Dn4
 BYTE   W24
 BYTE   En4
 BYTE   W24
//  #03 //004   ----------------------------------------
 BYTE   Cs4
 BYTE   W24
 BYTE   An3
 BYTE   W24
 BYTE   Bn3
 BYTE   W24
 BYTE   Dn4
 BYTE   W24
//  #03 //005   ----------------------------------------
 BYTE   Cs4
 BYTE   W24
 BYTE   N68  Dn4  v100  gtp3
 BYTE   W72
//  #03 //006   ----------------------------------------
Label_547215:
 BYTE   N23  Dn3  v100
 BYTE   W24
 BYTE   En3
 BYTE   W24
 BYTE   Fs3
 BYTE   W24
 BYTE   An3
 BYTE   W24
 BYTE   PEND 
//  #03 //007   ----------------------------------------
Label_547220:
 BYTE   N11  Bn3  v100
 BYTE   W12
 BYTE   An3
 BYTE   W12
 BYTE   Gs3
 BYTE   W12
 BYTE   Bn3
 BYTE   W12
 BYTE   N23  An3
 BYTE   W24
 BYTE   Bn3
 BYTE   W24
 BYTE   PEND 
//  #03 //008   ----------------------------------------
Label_547230:
 BYTE   N23  An3  v100
 BYTE   W24
 BYTE   N68  Gn3  v100  gtp3
 BYTE   W72
 BYTE   PEND 
//  #03 //009   ----------------------------------------
 BYTE   PATT
  POIN2 Label_547215
//  #03 //010   ----------------------------------------
Label_54723F:
 BYTE   N11  Bn3  v100
 BYTE   W12
 BYTE   An3
 BYTE   W12
 BYTE   Gs3
 BYTE   W12
 BYTE   Bn3
 BYTE   W12
 BYTE   N23  Fs3
 BYTE   W24
 BYTE   Gs3
 BYTE   W24
 BYTE   PEND 
//  #03 //011   ----------------------------------------
 BYTE   PATT
  POIN2 Label_547230
//  #03 //012   ----------------------------------------
Label_547254:
 BYTE   N44  Fs3  v100  gtp3
 BYTE   W48
 BYTE   N23  Bn3
 BYTE   W24
 BYTE   Cs4
 BYTE   W24
 BYTE   PEND 
//  #03 //013   ----------------------------------------
Label_54725F:
 BYTE   N11  Cs4  v100
 BYTE   W48
 BYTE   N23  Bn3
 BYTE   W24
 BYTE   Bn3
 BYTE   W24
 BYTE   PEND 
//  #03 //014   ----------------------------------------
Label_547269:
 BYTE   N23  An3  v100
 BYTE   W24
 BYTE   N68  Gs3  v100  gtp3
 BYTE   W72
 BYTE   PEND 
//  #03 //015   ----------------------------------------
 BYTE   PATT
  POIN2 Label_547215
//  #03 //016   ----------------------------------------
 BYTE   PATT
  POIN2 Label_547220
//  #03 //017   ----------------------------------------
 BYTE   PATT
  POIN2 Label_547230
//  #03 //018   ----------------------------------------
 BYTE   W96
//  #03 //019   ----------------------------------------
 BYTE   W96
//  #03 //020   ----------------------------------------
 BYTE   W96
//  #03 //021   ----------------------------------------
 BYTE   W96
//  #03 //022   ----------------------------------------
 BYTE   W96
//  #03 //023   ----------------------------------------
 BYTE   W96
//  #03 //024   ----------------------------------------
 BYTE   PATT
  POIN2 Label_547215
//  #03 //025   ----------------------------------------
 BYTE   PATT
  POIN2 Label_547220
//  #03 //026   ----------------------------------------
 BYTE   PATT
  POIN2 Label_547230
//  #03 //027   ----------------------------------------
 BYTE   PATT
  POIN2 Label_547215
//  #03 //028   ----------------------------------------
 BYTE   PATT
  POIN2 Label_54723F
//  #03 //029   ----------------------------------------
 BYTE   PATT
  POIN2 Label_547230
//  #03 //030   ----------------------------------------
 BYTE   PATT
  POIN2 Label_547254
//  #03 //031   ----------------------------------------
 BYTE   PATT
  POIN2 Label_54725F
//  #03 //032   ----------------------------------------
 BYTE   PATT
  POIN2 Label_547269
//  #03 //033   ----------------------------------------
 BYTE   PATT
  POIN2 Label_547215
//  #03 //034   ----------------------------------------
 BYTE   PATT
  POIN2 Label_547220
//  #03 //035   ----------------------------------------
 BYTE   PATT
  POIN2 Label_547230
//  #03 //036   ----------------------------------------
 BYTE   GoTo
  POIN2 Label_5471DE
 BYTE   FINE

//**************** Track 4 (Midi-Chn.3) ****************//

FF5HomeSme_004:
//  #04 //000   ----------------------------------------
 BYTE   KEYSH   FF5HomeSme_key+0
Label_010003E2:
 BYTE   VOICE   6
 BYTE   VOL   61*FF5HomeSme_mvl/mxv
 BYTE   PAN   c_v-19
 BYTE   N68  Bn2  v100  gtp3
 BYTE   W72
 BYTE   N23  An2
 BYTE   W24
//  #04 //001   ----------------------------------------
Label_010003F0:
 BYTE   N23  En3  v100
 BYTE   W24
 BYTE   Cs3
 BYTE   W24
 BYTE   N44  Gn2  v100  gtp3
 BYTE   W48
 BYTE   PEND 
//  #04 //002   ----------------------------------------
Label_010003FC:
 BYTE   N23  An2  v100
 BYTE   W24
 BYTE   N68  Bn2  v100  gtp3
 BYTE   W72
 BYTE   PEND 
//  #04 //003   ----------------------------------------
 BYTE   Bn2
 BYTE   W72
 BYTE   N23  An2
 BYTE   W24
//  #04 //004   ----------------------------------------
 BYTE   PATT
  POIN2 Label_010003F0
//  #04 //005   ----------------------------------------
 BYTE   PATT
  POIN2 Label_010003FC
//  #04 //006   ----------------------------------------
 BYTE   LFODL 12
 BYTE   LFOS 24
 BYTE   MOD 2
 BYTE   VOL   72*FF5HomeSme_mvl/mxv
 BYTE   N68  Bn0  v100  gtp3
 BYTE   W03
 BYTE   VOL   68*FF5HomeSme_mvl/mxv
 BYTE   W04
 BYTE   VOL   63*FF5HomeSme_mvl/mxv
 BYTE   W03
 BYTE   VOL   60*FF5HomeSme_mvl/mxv
 BYTE   W04
 BYTE   VOL   57*FF5HomeSme_mvl/mxv
 BYTE   W04
 BYTE   VOL   53*FF5HomeSme_mvl/mxv
 BYTE   W03
 BYTE   VOL   50*FF5HomeSme_mvl/mxv
 BYTE   W04
 BYTE   VOL   47*FF5HomeSme_mvl/mxv
 BYTE   W03
 BYTE   VOL   44*FF5HomeSme_mvl/mxv
 BYTE   W04
 BYTE   VOL   42*FF5HomeSme_mvl/mxv
 BYTE   W04
 BYTE   VOL   39*FF5HomeSme_mvl/mxv
 BYTE   W03
 BYTE   VOL   36*FF5HomeSme_mvl/mxv
 BYTE   W04
 BYTE   VOL   34*FF5HomeSme_mvl/mxv
 BYTE   W04
 BYTE   VOL   32*FF5HomeSme_mvl/mxv
 BYTE   W03
 BYTE   VOL   31*FF5HomeSme_mvl/mxv
 BYTE   W04
 BYTE   VOL   28*FF5HomeSme_mvl/mxv
 BYTE   W03
 BYTE   VOL   26*FF5HomeSme_mvl/mxv
 BYTE   W04
 BYTE   VOL   25*FF5HomeSme_mvl/mxv
 BYTE   W04
 BYTE   VOL   23*FF5HomeSme_mvl/mxv
 BYTE   W03
 BYTE   VOL   22*FF5HomeSme_mvl/mxv
 BYTE   W04
 BYTE   VOL   72*FF5HomeSme_mvl/mxv
 BYTE   N68  En1  v100  gtp3
 BYTE   W03
 BYTE   VOL   68*FF5HomeSme_mvl/mxv
 BYTE   W03
 BYTE   VOL   64*FF5HomeSme_mvl/mxv
 BYTE   W04
 BYTE   VOL   60*FF5HomeSme_mvl/mxv
 BYTE   W04
 BYTE   VOL   57*FF5HomeSme_mvl/mxv
 BYTE   W03
 BYTE   VOL   53*FF5HomeSme_mvl/mxv
 BYTE   W04
 BYTE   VOL   50*FF5HomeSme_mvl/mxv
 BYTE   W03
//  #04 //007   ----------------------------------------
 BYTE   W01
 BYTE   VOL   47*FF5HomeSme_mvl/mxv
 BYTE   W03
 BYTE   VOL   44*FF5HomeSme_mvl/mxv
 BYTE   W04
 BYTE   VOL   42*FF5HomeSme_mvl/mxv
 BYTE   W03
 BYTE   VOL   39*FF5HomeSme_mvl/mxv
 BYTE   W04
 BYTE   VOL   36*FF5HomeSme_mvl/mxv
 BYTE   W04
 BYTE   VOL   34*FF5HomeSme_mvl/mxv
 BYTE   W03
 BYTE   VOL   33*FF5HomeSme_mvl/mxv
 BYTE   W04
 BYTE   VOL   31*FF5HomeSme_mvl/mxv
 BYTE   W04
 BYTE   VOL   28*FF5HomeSme_mvl/mxv
 BYTE   W03
 BYTE   VOL   26*FF5HomeSme_mvl/mxv
 BYTE   W04
 BYTE   VOL   25*FF5HomeSme_mvl/mxv
 BYTE   W03
 BYTE   VOL   23*FF5HomeSme_mvl/mxv
 BYTE   W04
 BYTE   VOL   22*FF5HomeSme_mvl/mxv
 BYTE   W04
 BYTE   VOL   72*FF5HomeSme_mvl/mxv
 BYTE   N23  Dn1
 BYTE   W24
 BYTE   Bn0
 BYTE   W24
//  #04 //008   ----------------------------------------
Label_0100047D:
 BYTE   N23  An0  v100
 BYTE   W24
 BYTE   Gn0
 BYTE   W24
 BYTE   N11
 BYTE   W12
 BYTE   An0
 BYTE   W12
 BYTE   Bn0
 BYTE   W12
 BYTE   Cs1
 BYTE   W12
 BYTE   PEND 
//  #04 //009   ----------------------------------------
 BYTE   N68  Dn1  v100  gtp3
 BYTE   W03
 BYTE   VOL   68*FF5HomeSme_mvl/mxv
 BYTE   W04
 BYTE   VOL   63*FF5HomeSme_mvl/mxv
 BYTE   W04
 BYTE   VOL   60*FF5HomeSme_mvl/mxv
 BYTE   W03
 BYTE   VOL   56*FF5HomeSme_mvl/mxv
 BYTE   W04
 BYTE   VOL   53*FF5HomeSme_mvl/mxv
 BYTE   W04
 BYTE   VOL   50*FF5HomeSme_mvl/mxv
 BYTE   W03
 BYTE   VOL   47*FF5HomeSme_mvl/mxv
 BYTE   W04
 BYTE   VOL   44*FF5HomeSme_mvl/mxv
 BYTE   W03
 BYTE   VOL   42*FF5HomeSme_mvl/mxv
 BYTE   W04
 BYTE   VOL   39*FF5HomeSme_mvl/mxv
 BYTE   W04
 BYTE   VOL   36*FF5HomeSme_mvl/mxv
 BYTE   W03
 BYTE   VOL   34*FF5HomeSme_mvl/mxv
 BYTE   W04
 BYTE   VOL   32*FF5HomeSme_mvl/mxv
 BYTE   W03
 BYTE   VOL   31*FF5HomeSme_mvl/mxv
 BYTE   W04
 BYTE   VOL   28*FF5HomeSme_mvl/mxv
 BYTE   W04
 BYTE   VOL   26*FF5HomeSme_mvl/mxv
 BYTE   W03
 BYTE   VOL   25*FF5HomeSme_mvl/mxv
 BYTE   W04
 BYTE   VOL   23*FF5HomeSme_mvl/mxv
 BYTE   W04
 BYTE   VOL   21*FF5HomeSme_mvl/mxv
 BYTE   W03
 BYTE   VOL   72*FF5HomeSme_mvl/mxv
 BYTE   N68  En1  v100  gtp3
 BYTE   W03
 BYTE   VOL   68*FF5HomeSme_mvl/mxv
 BYTE   W03
 BYTE   VOL   63*FF5HomeSme_mvl/mxv
 BYTE   W04
 BYTE   VOL   60*FF5HomeSme_mvl/mxv
 BYTE   W04
 BYTE   VOL   57*FF5HomeSme_mvl/mxv
 BYTE   W03
 BYTE   VOL   53*FF5HomeSme_mvl/mxv
 BYTE   W04
 BYTE   VOL   50*FF5HomeSme_mvl/mxv
 BYTE   W03
//  #04 //010   ----------------------------------------
 BYTE   W01
 BYTE   VOL   47*FF5HomeSme_mvl/mxv
 BYTE   W03
 BYTE   VOL   44*FF5HomeSme_mvl/mxv
 BYTE   W04
 BYTE   VOL   42*FF5HomeSme_mvl/mxv
 BYTE   W03
 BYTE   VOL   39*FF5HomeSme_mvl/mxv
 BYTE   W04
 BYTE   VOL   36*FF5HomeSme_mvl/mxv
 BYTE   W04
 BYTE   VOL   34*FF5HomeSme_mvl/mxv
 BYTE   W03
 BYTE   VOL   33*FF5HomeSme_mvl/mxv
 BYTE   W04
 BYTE   VOL   31*FF5HomeSme_mvl/mxv
 BYTE   W04
 BYTE   VOL   28*FF5HomeSme_mvl/mxv
 BYTE   W03
 BYTE   VOL   26*FF5HomeSme_mvl/mxv
 BYTE   W04
 BYTE   VOL   25*FF5HomeSme_mvl/mxv
 BYTE   W03
 BYTE   VOL   23*FF5HomeSme_mvl/mxv
 BYTE   W04
 BYTE   VOL   22*FF5HomeSme_mvl/mxv
 BYTE   W04
 BYTE   VOL   72*FF5HomeSme_mvl/mxv
 BYTE   N23  Dn1
 BYTE   W24
 BYTE   En1
 BYTE   W24
//  #04 //011   ----------------------------------------
Label_010004EC:
 BYTE   N23  Fs1  v100
 BYTE   W24
 BYTE   Gn1
 BYTE   W24
 BYTE   N11  Dn1
 BYTE   W12
 BYTE   Cs1
 BYTE   W12
 BYTE   Bn0
 BYTE   W12
 BYTE   An0
 BYTE   W12
 BYTE   PEND 
//  #04 //012   ----------------------------------------
 BYTE   N44  Bn0  v100  gtp3
 BYTE   W03
 BYTE   VOL   68*FF5HomeSme_mvl/mxv
 BYTE   W04
 BYTE   VOL   63*FF5HomeSme_mvl/mxv
 BYTE   W03
 BYTE   VOL   60*FF5HomeSme_mvl/mxv
 BYTE   W04
 BYTE   VOL   57*FF5HomeSme_mvl/mxv
 BYTE   W04
 BYTE   VOL   53*FF5HomeSme_mvl/mxv
 BYTE   W03
 BYTE   VOL   50*FF5HomeSme_mvl/mxv
 BYTE   W04
 BYTE   VOL   47*FF5HomeSme_mvl/mxv
 BYTE   W03
 BYTE   VOL   44*FF5HomeSme_mvl/mxv
 BYTE   W04
 BYTE   VOL   42*FF5HomeSme_mvl/mxv
 BYTE   W04
 BYTE   VOL   39*FF5HomeSme_mvl/mxv
 BYTE   W03
 BYTE   VOL   36*FF5HomeSme_mvl/mxv
 BYTE   W04
 BYTE   VOL   34*FF5HomeSme_mvl/mxv
 BYTE   W05
 BYTE   VOL   72*FF5HomeSme_mvl/mxv
 BYTE   N23  Bn1
 BYTE   W24
 BYTE   An1
 BYTE   W24
//  #04 //013   ----------------------------------------
 BYTE   VOL   71*FF5HomeSme_mvl/mxv
 BYTE   N44  An0  v100  gtp3
 BYTE   W04
 BYTE   VOL   66*FF5HomeSme_mvl/mxv
 BYTE   W03
 BYTE   VOL   63*FF5HomeSme_mvl/mxv
 BYTE   W04
 BYTE   VOL   60*FF5HomeSme_mvl/mxv
 BYTE   W04
 BYTE   VOL   56*FF5HomeSme_mvl/mxv
 BYTE   W03
 BYTE   VOL   53*FF5HomeSme_mvl/mxv
 BYTE   W04
 BYTE   VOL   50*FF5HomeSme_mvl/mxv
 BYTE   W03
 BYTE   VOL   47*FF5HomeSme_mvl/mxv
 BYTE   W04
 BYTE   VOL   44*FF5HomeSme_mvl/mxv
 BYTE   W04
 BYTE   VOL   42*FF5HomeSme_mvl/mxv
 BYTE   W03
 BYTE   VOL   39*FF5HomeSme_mvl/mxv
 BYTE   W04
 BYTE   VOL   36*FF5HomeSme_mvl/mxv
 BYTE   W04
 BYTE   VOL   34*FF5HomeSme_mvl/mxv
 BYTE   W04
 BYTE   VOL   72*FF5HomeSme_mvl/mxv
 BYTE   N23  Gn0
 BYTE   W24
 BYTE   Gn1
 BYTE   W24
//  #04 //014   ----------------------------------------
 BYTE   Fs1
 BYTE   W24
 BYTE   VOL   70*FF5HomeSme_mvl/mxv
 BYTE   N68  En1  v100  gtp3
 BYTE   W04
 BYTE   VOL   67*FF5HomeSme_mvl/mxv
 BYTE   W03
 BYTE   VOL   63*FF5HomeSme_mvl/mxv
 BYTE   W04
 BYTE   VOL   60*FF5HomeSme_mvl/mxv
 BYTE   W04
 BYTE   VOL   56*FF5HomeSme_mvl/mxv
 BYTE   W03
 BYTE   VOL   52*FF5HomeSme_mvl/mxv
 BYTE   W04
 BYTE   VOL   50*FF5HomeSme_mvl/mxv
 BYTE   W03
 BYTE   VOL   47*FF5HomeSme_mvl/mxv
 BYTE   W04
 BYTE   VOL   44*FF5HomeSme_mvl/mxv
 BYTE   W04
 BYTE   VOL   42*FF5HomeSme_mvl/mxv
 BYTE   W03
 BYTE   VOL   39*FF5HomeSme_mvl/mxv
 BYTE   W04
 BYTE   VOL   36*FF5HomeSme_mvl/mxv
 BYTE   W04
 BYTE   VOL   34*FF5HomeSme_mvl/mxv
 BYTE   W03
 BYTE   VOL   32*FF5HomeSme_mvl/mxv
 BYTE   W04
 BYTE   VOL   30*FF5HomeSme_mvl/mxv
 BYTE   W03
 BYTE   VOL   28*FF5HomeSme_mvl/mxv
 BYTE   W04
 BYTE   VOL   26*FF5HomeSme_mvl/mxv
 BYTE   W04
 BYTE   VOL   25*FF5HomeSme_mvl/mxv
 BYTE   W03
 BYTE   VOL   23*FF5HomeSme_mvl/mxv
 BYTE   W04
 BYTE   VOL   21*FF5HomeSme_mvl/mxv
 BYTE   W03
//  #04 //015   ----------------------------------------
 BYTE   VOL   72*FF5HomeSme_mvl/mxv
 BYTE   N68  Bn0  v100  gtp3
 BYTE   W03
 BYTE   VOL   67*FF5HomeSme_mvl/mxv
 BYTE   W04
 BYTE   VOL   63*FF5HomeSme_mvl/mxv
 BYTE   W03
 BYTE   VOL   60*FF5HomeSme_mvl/mxv
 BYTE   W04
 BYTE   VOL   57*FF5HomeSme_mvl/mxv
 BYTE   W04
 BYTE   VOL   53*FF5HomeSme_mvl/mxv
 BYTE   W03
 BYTE   VOL   50*FF5HomeSme_mvl/mxv
 BYTE   W04
 BYTE   VOL   47*FF5HomeSme_mvl/mxv
 BYTE   W03
 BYTE   VOL   44*FF5HomeSme_mvl/mxv
 BYTE   W04
 BYTE   VOL   42*FF5HomeSme_mvl/mxv
 BYTE   W04
 BYTE   VOL   39*FF5HomeSme_mvl/mxv
 BYTE   W03
 BYTE   VOL   36*FF5HomeSme_mvl/mxv
 BYTE   W04
 BYTE   VOL   34*FF5HomeSme_mvl/mxv
 BYTE   W04
 BYTE   VOL   32*FF5HomeSme_mvl/mxv
 BYTE   W03
 BYTE   VOL   31*FF5HomeSme_mvl/mxv
 BYTE   W04
 BYTE   VOL   28*FF5HomeSme_mvl/mxv
 BYTE   W03
 BYTE   VOL   26*FF5HomeSme_mvl/mxv
 BYTE   W04
 BYTE   VOL   25*FF5HomeSme_mvl/mxv
 BYTE   W04
 BYTE   VOL   23*FF5HomeSme_mvl/mxv
 BYTE   W03
 BYTE   VOL   22*FF5HomeSme_mvl/mxv
 BYTE   W04
 BYTE   VOL   70*FF5HomeSme_mvl/mxv
 BYTE   N68  En1  v100  gtp3
 BYTE   W04
 BYTE   VOL   67*FF5HomeSme_mvl/mxv
 BYTE   W03
 BYTE   VOL   63*FF5HomeSme_mvl/mxv
 BYTE   W04
 BYTE   VOL   60*FF5HomeSme_mvl/mxv
 BYTE   W04
 BYTE   VOL   55*FF5HomeSme_mvl/mxv
 BYTE   W03
 BYTE   VOL   53*FF5HomeSme_mvl/mxv
 BYTE   W04
 BYTE   VOL   50*FF5HomeSme_mvl/mxv
 BYTE   W02
//  #04 //016   ----------------------------------------
Label_010005B6:
 BYTE   W01
 BYTE   VOL   47*FF5HomeSme_mvl/mxv
 BYTE   W04
 BYTE   VOL   44*FF5HomeSme_mvl/mxv
 BYTE   W04
 BYTE   VOL   42*FF5HomeSme_mvl/mxv
 BYTE   W03
 BYTE   VOL   39*FF5HomeSme_mvl/mxv
 BYTE   W04
 BYTE   VOL   36*FF5HomeSme_mvl/mxv
 BYTE   W04
 BYTE   VOL   34*FF5HomeSme_mvl/mxv
 BYTE   W03
 BYTE   VOL   32*FF5HomeSme_mvl/mxv
 BYTE   W04
 BYTE   VOL   30*FF5HomeSme_mvl/mxv
 BYTE   W03
 BYTE   VOL   28*FF5HomeSme_mvl/mxv
 BYTE   W04
 BYTE   VOL   26*FF5HomeSme_mvl/mxv
 BYTE   W04
 BYTE   VOL   25*FF5HomeSme_mvl/mxv
 BYTE   W03
 BYTE   VOL   23*FF5HomeSme_mvl/mxv
 BYTE   W04
 BYTE   VOL   21*FF5HomeSme_mvl/mxv
 BYTE   W03
 BYTE   VOL   72*FF5HomeSme_mvl/mxv
 BYTE   N23  Dn1  v100
 BYTE   W24
 BYTE   En1
 BYTE   W24
 BYTE   PEND 
//  #04 //017   ----------------------------------------
 BYTE   Fs1
 BYTE   W24
 BYTE   N68  Gn1  v100  gtp3
 BYTE   W03
 BYTE   VOL   67*FF5HomeSme_mvl/mxv
 BYTE   W04
 BYTE   VOL   63*FF5HomeSme_mvl/mxv
 BYTE   W03
 BYTE   VOL   60*FF5HomeSme_mvl/mxv
 BYTE   W04
 BYTE   VOL   57*FF5HomeSme_mvl/mxv
 BYTE   W04
 BYTE   VOL   53*FF5HomeSme_mvl/mxv
 BYTE   W03
 BYTE   VOL   50*FF5HomeSme_mvl/mxv
 BYTE   W04
 BYTE   VOL   47*FF5HomeSme_mvl/mxv
 BYTE   W03
 BYTE   VOL   44*FF5HomeSme_mvl/mxv
 BYTE   W04
 BYTE   VOL   42*FF5HomeSme_mvl/mxv
 BYTE   W04
 BYTE   VOL   39*FF5HomeSme_mvl/mxv
 BYTE   W03
 BYTE   VOL   36*FF5HomeSme_mvl/mxv
 BYTE   W04
 BYTE   VOL   34*FF5HomeSme_mvl/mxv
 BYTE   W04
 BYTE   VOL   32*FF5HomeSme_mvl/mxv
 BYTE   W03
 BYTE   VOL   31*FF5HomeSme_mvl/mxv
 BYTE   W04
 BYTE   VOL   28*FF5HomeSme_mvl/mxv
 BYTE   W03
 BYTE   VOL   26*FF5HomeSme_mvl/mxv
 BYTE   W04
 BYTE   VOL   25*FF5HomeSme_mvl/mxv
 BYTE   W04
 BYTE   VOL   23*FF5HomeSme_mvl/mxv
 BYTE   W03
 BYTE   VOL   22*FF5HomeSme_mvl/mxv
 BYTE   W04
//  #04 //018   ----------------------------------------
Label_01000608:
 BYTE   VOL   72*FF5HomeSme_mvl/mxv
 BYTE   N23  Bn1  v100
 BYTE   W24
 BYTE   N11
 BYTE   W12
 BYTE   Cs2
 BYTE   W12
 BYTE   Dn2
 BYTE   W12
 BYTE   Fs2
 BYTE   W12
 BYTE   En2
 BYTE   W12
 BYTE   Dn2
 BYTE   W12
 BYTE   PEND 
//  #04 //019   ----------------------------------------
 BYTE   Cs2
 BYTE   W12
 BYTE   Dn2
 BYTE   W12
 BYTE   N23  En2
 BYTE   W24
 BYTE   Dn2
 BYTE   W24
 BYTE   Cs2
 BYTE   W24
//  #04 //020   ----------------------------------------
 BYTE   Bn1
 BYTE   W24
 BYTE   N68  Cs2  v100  gtp3
 BYTE   W03
 BYTE   VOL   68*FF5HomeSme_mvl/mxv
 BYTE   W04
 BYTE   VOL   63*FF5HomeSme_mvl/mxv
 BYTE   W03
 BYTE   VOL   60*FF5HomeSme_mvl/mxv
 BYTE   W04
 BYTE   VOL   57*FF5HomeSme_mvl/mxv
 BYTE   W04
 BYTE   VOL   53*FF5HomeSme_mvl/mxv
 BYTE   W03
 BYTE   VOL   50*FF5HomeSme_mvl/mxv
 BYTE   W04
 BYTE   VOL   47*FF5HomeSme_mvl/mxv
 BYTE   W03
 BYTE   VOL   44*FF5HomeSme_mvl/mxv
 BYTE   W04
 BYTE   VOL   42*FF5HomeSme_mvl/mxv
 BYTE   W04
 BYTE   VOL   39*FF5HomeSme_mvl/mxv
 BYTE   W03
 BYTE   VOL   36*FF5HomeSme_mvl/mxv
 BYTE   W04
 BYTE   VOL   34*FF5HomeSme_mvl/mxv
 BYTE   W04
 BYTE   VOL   32*FF5HomeSme_mvl/mxv
 BYTE   W03
 BYTE   VOL   31*FF5HomeSme_mvl/mxv
 BYTE   W04
 BYTE   VOL   28*FF5HomeSme_mvl/mxv
 BYTE   W03
 BYTE   VOL   26*FF5HomeSme_mvl/mxv
 BYTE   W04
 BYTE   VOL   25*FF5HomeSme_mvl/mxv
 BYTE   W04
 BYTE   VOL   23*FF5HomeSme_mvl/mxv
 BYTE   W03
 BYTE   VOL   22*FF5HomeSme_mvl/mxv
 BYTE   W04
//  #04 //021   ----------------------------------------
 BYTE   PATT
  POIN2 Label_01000608
//  #04 //022   ----------------------------------------
 BYTE   N11  Cs2  v100
 BYTE   W12
 BYTE   Dn2
 BYTE   W12
 BYTE   N23  En2
 BYTE   W24
 BYTE   N44  Bn1  v100  gtp3
 BYTE   W03
 BYTE   VOL   67*FF5HomeSme_mvl/mxv
 BYTE   W04
 BYTE   VOL   63*FF5HomeSme_mvl/mxv
 BYTE   W04
 BYTE   VOL   60*FF5HomeSme_mvl/mxv
 BYTE   W03
 BYTE   VOL   56*FF5HomeSme_mvl/mxv
 BYTE   W04
 BYTE   VOL   53*FF5HomeSme_mvl/mxv
 BYTE   W04
 BYTE   VOL   50*FF5HomeSme_mvl/mxv
 BYTE   W03
 BYTE   VOL   47*FF5HomeSme_mvl/mxv
 BYTE   W04
 BYTE   VOL   44*FF5HomeSme_mvl/mxv
 BYTE   W03
 BYTE   VOL   42*FF5HomeSme_mvl/mxv
 BYTE   W04
 BYTE   VOL   39*FF5HomeSme_mvl/mxv
 BYTE   W04
 BYTE   VOL   36*FF5HomeSme_mvl/mxv
 BYTE   W03
 BYTE   VOL   34*FF5HomeSme_mvl/mxv
 BYTE   W05
//  #04 //023   ----------------------------------------
 BYTE   VOL   72*FF5HomeSme_mvl/mxv
 BYTE   N23  An1
 BYTE   W24
 BYTE   VOL   70*FF5HomeSme_mvl/mxv
 BYTE   N68  Gn1  v100  gtp3
 BYTE   W04
 BYTE   VOL   67*FF5HomeSme_mvl/mxv
 BYTE   W03
 BYTE   VOL   63*FF5HomeSme_mvl/mxv
 BYTE   W04
 BYTE   VOL   60*FF5HomeSme_mvl/mxv
 BYTE   W04
 BYTE   VOL   55*FF5HomeSme_mvl/mxv
 BYTE   W03
 BYTE   VOL   52*FF5HomeSme_mvl/mxv
 BYTE   W04
 BYTE   VOL   50*FF5HomeSme_mvl/mxv
 BYTE   W03
 BYTE   VOL   47*FF5HomeSme_mvl/mxv
 BYTE   W04
 BYTE   VOL   44*FF5HomeSme_mvl/mxv
 BYTE   W04
 BYTE   VOL   42*FF5HomeSme_mvl/mxv
 BYTE   W03
 BYTE   VOL   39*FF5HomeSme_mvl/mxv
 BYTE   W04
 BYTE   VOL   36*FF5HomeSme_mvl/mxv
 BYTE   W04
 BYTE   VOL   34*FF5HomeSme_mvl/mxv
 BYTE   W03
 BYTE   VOL   32*FF5HomeSme_mvl/mxv
 BYTE   W04
 BYTE   VOL   30*FF5HomeSme_mvl/mxv
 BYTE   W03
 BYTE   VOL   28*FF5HomeSme_mvl/mxv
 BYTE   W04
 BYTE   VOL   26*FF5HomeSme_mvl/mxv
 BYTE   W04
 BYTE   VOL   25*FF5HomeSme_mvl/mxv
 BYTE   W03
 BYTE   VOL   23*FF5HomeSme_mvl/mxv
 BYTE   W04
 BYTE   VOL   22*FF5HomeSme_mvl/mxv
 BYTE   W03
//  #04 //024   ----------------------------------------
 BYTE   VOL   72*FF5HomeSme_mvl/mxv
 BYTE   N68  Bn0  v100  gtp3
 BYTE   W03
 BYTE   VOL   67*FF5HomeSme_mvl/mxv
 BYTE   W04
 BYTE   VOL   63*FF5HomeSme_mvl/mxv
 BYTE   W03
 BYTE   VOL   60*FF5HomeSme_mvl/mxv
 BYTE   W04
 BYTE   VOL   57*FF5HomeSme_mvl/mxv
 BYTE   W04
 BYTE   VOL   53*FF5HomeSme_mvl/mxv
 BYTE   W03
 BYTE   VOL   50*FF5HomeSme_mvl/mxv
 BYTE   W04
 BYTE   VOL   47*FF5HomeSme_mvl/mxv
 BYTE   W03
 BYTE   VOL   44*FF5HomeSme_mvl/mxv
 BYTE   W04
 BYTE   VOL   42*FF5HomeSme_mvl/mxv
 BYTE   W04
 BYTE   VOL   39*FF5HomeSme_mvl/mxv
 BYTE   W03
 BYTE   VOL   36*FF5HomeSme_mvl/mxv
 BYTE   W04
 BYTE   VOL   34*FF5HomeSme_mvl/mxv
 BYTE   W04
 BYTE   VOL   32*FF5HomeSme_mvl/mxv
 BYTE   W03
 BYTE   VOL   31*FF5HomeSme_mvl/mxv
 BYTE   W04
 BYTE   VOL   28*FF5HomeSme_mvl/mxv
 BYTE   W03
 BYTE   VOL   26*FF5HomeSme_mvl/mxv
 BYTE   W04
 BYTE   VOL   25*FF5HomeSme_mvl/mxv
 BYTE   W04
 BYTE   VOL   23*FF5HomeSme_mvl/mxv
 BYTE   W03
 BYTE   VOL   22*FF5HomeSme_mvl/mxv
 BYTE   W04
 BYTE   VOL   70*FF5HomeSme_mvl/mxv
 BYTE   N68  En1  v100  gtp3
 BYTE   W04
 BYTE   VOL   66*FF5HomeSme_mvl/mxv
 BYTE   W03
 BYTE   VOL   63*FF5HomeSme_mvl/mxv
 BYTE   W04
 BYTE   VOL   60*FF5HomeSme_mvl/mxv
 BYTE   W04
 BYTE   VOL   56*FF5HomeSme_mvl/mxv
 BYTE   W03
 BYTE   VOL   53*FF5HomeSme_mvl/mxv
 BYTE   W04
 BYTE   VOL   50*FF5HomeSme_mvl/mxv
 BYTE   W02
//  #04 //025   ----------------------------------------
 BYTE   W01
 BYTE   VOL   47*FF5HomeSme_mvl/mxv
 BYTE   W04
 BYTE   VOL   44*FF5HomeSme_mvl/mxv
 BYTE   W04
 BYTE   VOL   42*FF5HomeSme_mvl/mxv
 BYTE   W03
 BYTE   VOL   39*FF5HomeSme_mvl/mxv
 BYTE   W04
 BYTE   VOL   36*FF5HomeSme_mvl/mxv
 BYTE   W04
 BYTE   VOL   34*FF5HomeSme_mvl/mxv
 BYTE   W03
 BYTE   VOL   32*FF5HomeSme_mvl/mxv
 BYTE   W04
 BYTE   VOL   30*FF5HomeSme_mvl/mxv
 BYTE   W03
 BYTE   VOL   28*FF5HomeSme_mvl/mxv
 BYTE   W04
 BYTE   VOL   26*FF5HomeSme_mvl/mxv
 BYTE   W04
 BYTE   VOL   25*FF5HomeSme_mvl/mxv
 BYTE   W03
 BYTE   VOL   23*FF5HomeSme_mvl/mxv
 BYTE   W04
 BYTE   VOL   21*FF5HomeSme_mvl/mxv
 BYTE   W03
 BYTE   VOL   72*FF5HomeSme_mvl/mxv
 BYTE   N23  Dn1
 BYTE   W24
 BYTE   Bn0
 BYTE   W24
//  #04 //026   ----------------------------------------
 BYTE   PATT
  POIN2 Label_0100047D
//  #04 //027   ----------------------------------------
 BYTE   N68  Dn1  v100  gtp3
 BYTE   W03
 BYTE   VOL   67*FF5HomeSme_mvl/mxv
 BYTE   W04
 BYTE   VOL   63*FF5HomeSme_mvl/mxv
 BYTE   W03
 BYTE   VOL   60*FF5HomeSme_mvl/mxv
 BYTE   W04
 BYTE   VOL   57*FF5HomeSme_mvl/mxv
 BYTE   W04
 BYTE   VOL   53*FF5HomeSme_mvl/mxv
 BYTE   W03
 BYTE   VOL   50*FF5HomeSme_mvl/mxv
 BYTE   W04
 BYTE   VOL   47*FF5HomeSme_mvl/mxv
 BYTE   W03
 BYTE   VOL   44*FF5HomeSme_mvl/mxv
 BYTE   W04
 BYTE   VOL   42*FF5HomeSme_mvl/mxv
 BYTE   W04
 BYTE   VOL   39*FF5HomeSme_mvl/mxv
 BYTE   W03
 BYTE   VOL   36*FF5HomeSme_mvl/mxv
 BYTE   W04
 BYTE   VOL   34*FF5HomeSme_mvl/mxv
 BYTE   W04
 BYTE   VOL   32*FF5HomeSme_mvl/mxv
 BYTE   W03
 BYTE   VOL   31*FF5HomeSme_mvl/mxv
 BYTE   W04
 BYTE   VOL   28*FF5HomeSme_mvl/mxv
 BYTE   W03
 BYTE   VOL   26*FF5HomeSme_mvl/mxv
 BYTE   W04
 BYTE   VOL   25*FF5HomeSme_mvl/mxv
 BYTE   W04
 BYTE   VOL   23*FF5HomeSme_mvl/mxv
 BYTE   W03
 BYTE   VOL   22*FF5HomeSme_mvl/mxv
 BYTE   W04
 BYTE   VOL   70*FF5HomeSme_mvl/mxv
 BYTE   N68  En1  v100  gtp3
 BYTE   W04
 BYTE   VOL   67*FF5HomeSme_mvl/mxv
 BYTE   W03
 BYTE   VOL   63*FF5HomeSme_mvl/mxv
 BYTE   W04
 BYTE   VOL   60*FF5HomeSme_mvl/mxv
 BYTE   W04
 BYTE   VOL   55*FF5HomeSme_mvl/mxv
 BYTE   W03
 BYTE   VOL   53*FF5HomeSme_mvl/mxv
 BYTE   W04
 BYTE   VOL   50*FF5HomeSme_mvl/mxv
 BYTE   W02
//  #04 //028   ----------------------------------------
 BYTE   PATT
  POIN2 Label_010005B6
//  #04 //029   ----------------------------------------
 BYTE   PATT
  POIN2 Label_010004EC
//  #04 //030   ----------------------------------------
 BYTE   VOL   71*FF5HomeSme_mvl/mxv
 BYTE   N44  Bn0  v100  gtp3
 BYTE   W03
 BYTE   VOL   68*FF5HomeSme_mvl/mxv
 BYTE   W04
 BYTE   VOL   63*FF5HomeSme_mvl/mxv
 BYTE   W04
 BYTE   VOL   60*FF5HomeSme_mvl/mxv
 BYTE   W03
 BYTE   VOL   56*FF5HomeSme_mvl/mxv
 BYTE   W04
 BYTE   VOL   53*FF5HomeSme_mvl/mxv
 BYTE   W04
 BYTE   VOL   50*FF5HomeSme_mvl/mxv
 BYTE   W03
 BYTE   VOL   47*FF5HomeSme_mvl/mxv
 BYTE   W04
 BYTE   VOL   44*FF5HomeSme_mvl/mxv
 BYTE   W03
 BYTE   VOL   42*FF5HomeSme_mvl/mxv
 BYTE   W04
 BYTE   VOL   39*FF5HomeSme_mvl/mxv
 BYTE   W04
 BYTE   VOL   36*FF5HomeSme_mvl/mxv
 BYTE   W03
 BYTE   VOL   34*FF5HomeSme_mvl/mxv
 BYTE   W05
 BYTE   VOL   72*FF5HomeSme_mvl/mxv
 BYTE   N23  Bn1
 BYTE   W24
 BYTE   An1
 BYTE   W24
//  #04 //031   ----------------------------------------
 BYTE   N44  An0  v100  gtp3
 BYTE   W03
 BYTE   VOL   67*FF5HomeSme_mvl/mxv
 BYTE   W04
 BYTE   VOL   63*FF5HomeSme_mvl/mxv
 BYTE   W04
 BYTE   VOL   60*FF5HomeSme_mvl/mxv
 BYTE   W03
 BYTE   VOL   56*FF5HomeSme_mvl/mxv
 BYTE   W04
 BYTE   VOL   53*FF5HomeSme_mvl/mxv
 BYTE   W04
 BYTE   VOL   50*FF5HomeSme_mvl/mxv
 BYTE   W03
 BYTE   VOL   47*FF5HomeSme_mvl/mxv
 BYTE   W04
 BYTE   VOL   44*FF5HomeSme_mvl/mxv
 BYTE   W03
 BYTE   VOL   42*FF5HomeSme_mvl/mxv
 BYTE   W04
 BYTE   VOL   39*FF5HomeSme_mvl/mxv
 BYTE   W04
 BYTE   VOL   36*FF5HomeSme_mvl/mxv
 BYTE   W03
 BYTE   VOL   34*FF5HomeSme_mvl/mxv
 BYTE   W05
 BYTE   VOL   72*FF5HomeSme_mvl/mxv
 BYTE   N23  Gn0
 BYTE   W24
 BYTE   Gn1
 BYTE   W24
//  #04 //032   ----------------------------------------
 BYTE   Fs1
 BYTE   W24
 BYTE   VOL   71*FF5HomeSme_mvl/mxv
 BYTE   N68  En1  v100  gtp3
 BYTE   W04
 BYTE   VOL   67*FF5HomeSme_mvl/mxv
 BYTE   W03
 BYTE   VOL   63*FF5HomeSme_mvl/mxv
 BYTE   W04
 BYTE   VOL   60*FF5HomeSme_mvl/mxv
 BYTE   W04
 BYTE   VOL   55*FF5HomeSme_mvl/mxv
 BYTE   W03
 BYTE   VOL   52*FF5HomeSme_mvl/mxv
 BYTE   W04
 BYTE   VOL   50*FF5HomeSme_mvl/mxv
 BYTE   W03
 BYTE   VOL   47*FF5HomeSme_mvl/mxv
 BYTE   W04
 BYTE   VOL   44*FF5HomeSme_mvl/mxv
 BYTE   W04
 BYTE   VOL   42*FF5HomeSme_mvl/mxv
 BYTE   W03
 BYTE   VOL   39*FF5HomeSme_mvl/mxv
 BYTE   W04
 BYTE   VOL   36*FF5HomeSme_mvl/mxv
 BYTE   W04
 BYTE   VOL   34*FF5HomeSme_mvl/mxv
 BYTE   W03
 BYTE   VOL   32*FF5HomeSme_mvl/mxv
 BYTE   W04
 BYTE   VOL   30*FF5HomeSme_mvl/mxv
 BYTE   W03
 BYTE   VOL   28*FF5HomeSme_mvl/mxv
 BYTE   W04
 BYTE   VOL   26*FF5HomeSme_mvl/mxv
 BYTE   W04
 BYTE   VOL   25*FF5HomeSme_mvl/mxv
 BYTE   W03
 BYTE   VOL   23*FF5HomeSme_mvl/mxv
 BYTE   W04
 BYTE   VOL   22*FF5HomeSme_mvl/mxv
 BYTE   W03
//  #04 //033   ----------------------------------------
 BYTE   VOL   72*FF5HomeSme_mvl/mxv
 BYTE   N68  Bn0  v100  gtp3
 BYTE   W03
 BYTE   VOL   68*FF5HomeSme_mvl/mxv
 BYTE   W04
 BYTE   VOL   63*FF5HomeSme_mvl/mxv
 BYTE   W03
 BYTE   VOL   60*FF5HomeSme_mvl/mxv
 BYTE   W04
 BYTE   VOL   57*FF5HomeSme_mvl/mxv
 BYTE   W04
 BYTE   VOL   53*FF5HomeSme_mvl/mxv
 BYTE   W03
 BYTE   VOL   50*FF5HomeSme_mvl/mxv
 BYTE   W04
 BYTE   VOL   47*FF5HomeSme_mvl/mxv
 BYTE   W03
 BYTE   VOL   44*FF5HomeSme_mvl/mxv
 BYTE   W04
 BYTE   VOL   42*FF5HomeSme_mvl/mxv
 BYTE   W04
 BYTE   VOL   39*FF5HomeSme_mvl/mxv
 BYTE   W03
 BYTE   VOL   36*FF5HomeSme_mvl/mxv
 BYTE   W04
 BYTE   VOL   34*FF5HomeSme_mvl/mxv
 BYTE   W04
 BYTE   VOL   32*FF5HomeSme_mvl/mxv
 BYTE   W03
 BYTE   VOL   31*FF5HomeSme_mvl/mxv
 BYTE   W04
 BYTE   VOL   28*FF5HomeSme_mvl/mxv
 BYTE   W03
 BYTE   VOL   26*FF5HomeSme_mvl/mxv
 BYTE   W04
 BYTE   VOL   25*FF5HomeSme_mvl/mxv
 BYTE   W04
 BYTE   VOL   23*FF5HomeSme_mvl/mxv
 BYTE   W03
 BYTE   VOL   22*FF5HomeSme_mvl/mxv
 BYTE   W04
 BYTE   VOL   72*FF5HomeSme_mvl/mxv
 BYTE   N68  En1  v100  gtp3
 BYTE   W03
 BYTE   VOL   68*FF5HomeSme_mvl/mxv
 BYTE   W04
 BYTE   VOL   63*FF5HomeSme_mvl/mxv
 BYTE   W04
 BYTE   VOL   60*FF5HomeSme_mvl/mxv
 BYTE   W03
 BYTE   VOL   56*FF5HomeSme_mvl/mxv
 BYTE   W04
 BYTE   VOL   53*FF5HomeSme_mvl/mxv
 BYTE   W04
 BYTE   VOL   50*FF5HomeSme_mvl/mxv
 BYTE   W02
//  #04 //034   ----------------------------------------
 BYTE   W01
 BYTE   VOL   47*FF5HomeSme_mvl/mxv
 BYTE   W04
 BYTE   VOL   44*FF5HomeSme_mvl/mxv
 BYTE   W03
 BYTE   VOL   42*FF5HomeSme_mvl/mxv
 BYTE   W04
 BYTE   VOL   39*FF5HomeSme_mvl/mxv
 BYTE   W04
 BYTE   VOL   36*FF5HomeSme_mvl/mxv
 BYTE   W03
 BYTE   VOL   34*FF5HomeSme_mvl/mxv
 BYTE   W04
 BYTE   VOL   32*FF5HomeSme_mvl/mxv
 BYTE   W03
 BYTE   VOL   31*FF5HomeSme_mvl/mxv
 BYTE   W04
 BYTE   VOL   28*FF5HomeSme_mvl/mxv
 BYTE   W04
 BYTE   VOL   26*FF5HomeSme_mvl/mxv
 BYTE   W03
 BYTE   VOL   25*FF5HomeSme_mvl/mxv
 BYTE   W04
 BYTE   VOL   23*FF5HomeSme_mvl/mxv
 BYTE   W04
 BYTE   VOL   22*FF5HomeSme_mvl/mxv
 BYTE   W03
 BYTE   VOL   72*FF5HomeSme_mvl/mxv
 BYTE   N23  Dn1
 BYTE   W24
 BYTE   En1
 BYTE   W24
//  #04 //035   ----------------------------------------
 BYTE   Fs1
 BYTE   W24
 BYTE   N68  Gn1  v100  gtp3
 BYTE   W03
 BYTE   VOL   67*FF5HomeSme_mvl/mxv
 BYTE   W04
 BYTE   VOL   63*FF5HomeSme_mvl/mxv
 BYTE   W03
 BYTE   VOL   60*FF5HomeSme_mvl/mxv
 BYTE   W04
 BYTE   VOL   57*FF5HomeSme_mvl/mxv
 BYTE   W04
 BYTE   VOL   53*FF5HomeSme_mvl/mxv
 BYTE   W03
 BYTE   VOL   50*FF5HomeSme_mvl/mxv
 BYTE   W04
 BYTE   VOL   47*FF5HomeSme_mvl/mxv
 BYTE   W03
 BYTE   VOL   44*FF5HomeSme_mvl/mxv
 BYTE   W04
 BYTE   VOL   42*FF5HomeSme_mvl/mxv
 BYTE   W04
 BYTE   VOL   39*FF5HomeSme_mvl/mxv
 BYTE   W03
 BYTE   VOL   36*FF5HomeSme_mvl/mxv
 BYTE   W04
 BYTE   VOL   34*FF5HomeSme_mvl/mxv
 BYTE   W04
 BYTE   VOL   32*FF5HomeSme_mvl/mxv
 BYTE   W03
 BYTE   VOL   31*FF5HomeSme_mvl/mxv
 BYTE   W04
 BYTE   VOL   28*FF5HomeSme_mvl/mxv
 BYTE   W03
 BYTE   VOL   26*FF5HomeSme_mvl/mxv
 BYTE   W04
 BYTE   VOL   25*FF5HomeSme_mvl/mxv
 BYTE   W04
 BYTE   VOL   23*FF5HomeSme_mvl/mxv
 BYTE   W03
 BYTE   VOL   22*FF5HomeSme_mvl/mxv
 BYTE   W03
 BYTE   VOL   61*FF5HomeSme_mvl/mxv
 BYTE   W01
//  #04 //036   ----------------------------------------
 BYTE   MOD 0
 BYTE   GoTo
  POIN2 Label_010003E2
 BYTE   FINE

//**************** Track 5 (Midi-Chn.4) ****************//

FF5HomeSme_005:
//  #05 //000   ----------------------------------------
 BYTE   KEYSH   FF5HomeSme_key+0
Label_5462B2:
 BYTE   VOICE   48
 BYTE   VOL   36*FF5HomeSme_mvl/mxv
 BYTE   PAN   c_v+11
 BYTE   LFODL 12
 BYTE   LFOS 24
 BYTE   MOD 3
 BYTE   W96
//  #05 //001   ----------------------------------------
 BYTE   W96
//  #05 //002   ----------------------------------------
 BYTE   W96
//  #05 //003   ----------------------------------------
 BYTE   W96
//  #05 //004   ----------------------------------------
 BYTE   W96
//  #05 //005   ----------------------------------------
 BYTE   W96
//  #05 //006   ----------------------------------------
 BYTE   W96
//  #05 //007   ----------------------------------------
 BYTE   W96
//  #05 //008   ----------------------------------------
 BYTE   W96
//  #05 //009   ----------------------------------------
 BYTE   W96
//  #05 //010   ----------------------------------------
 BYTE   W96
//  #05 //011   ----------------------------------------
 BYTE   W96
//  #05 //012   ----------------------------------------
 BYTE   W96
//  #05 //013   ----------------------------------------
 BYTE   W96
//  #05 //014   ----------------------------------------
 BYTE   W96
//  #05 //015   ----------------------------------------
 BYTE   W96
//  #05 //016   ----------------------------------------
 BYTE   W96
//  #05 //017   ----------------------------------------
 BYTE   W96
//  #05 //018   ----------------------------------------
 BYTE   W96
//  #05 //019   ----------------------------------------
 BYTE   W96
//  #05 //020   ----------------------------------------
 BYTE   W96
//  #05 //021   ----------------------------------------
 BYTE   W96
//  #05 //022   ----------------------------------------
 BYTE   W96
//  #05 //023   ----------------------------------------
 BYTE   W96
//  #05 //024   ----------------------------------------
 BYTE   PATT
  POIN2 Label_546E62
//  #05 //025   ----------------------------------------
 BYTE   PATT
  POIN2 Label_546E6F
//  #05 //026   ----------------------------------------
Label_5462E0:
 BYTE   N23  An3  v100
 BYTE   W24
 BYTE   N56  Bn3  v100  gtp3
 BYTE   W72
 BYTE   PEND 
//  #05 //027   ----------------------------------------
 BYTE   PATT
  POIN2 Label_546E62
//  #05 //028   ----------------------------------------
 BYTE   PATT
  POIN2 Label_546EA4
//  #05 //029   ----------------------------------------
 BYTE   N23  An4  v100
 BYTE   W24
 BYTE   N56  Bn4  v100  gtp3
 BYTE   W72
//  #05 //030   ----------------------------------------
 BYTE   PATT
  POIN2 Label_546ED7
//  #05 //031   ----------------------------------------
 BYTE   PATT
  POIN2 Label_546EE7
//  #05 //032   ----------------------------------------
 BYTE   PATT
  POIN2 Label_5462E0
//  #05 //033   ----------------------------------------
 BYTE   PATT
  POIN2 Label_546E62
//  #05 //034   ----------------------------------------
 BYTE   PATT
  POIN2 Label_546EA4
//  #05 //035   ----------------------------------------
 BYTE   PATT
  POIN2 Label_010002E0
//  #05 //036   ----------------------------------------
 BYTE   GoTo
  POIN2 Label_5462B2
 BYTE   FINE

//**************** Track 6 (Midi-Chn.5) ****************//

FF5HomeSme_006:
//  #06 //000   ----------------------------------------
 BYTE   KEYSH   FF5HomeSme_key+0
Label_01000002:
 BYTE   VOICE   48
 BYTE   VOL   54*FF5HomeSme_mvl/mxv
 BYTE   PAN   c_v+1
 BYTE   LFODL 12
 BYTE   LFOS 24
 BYTE   MOD 2
 BYTE   W96
//  #06 //001   ----------------------------------------
 BYTE   W96
//  #06 //002   ----------------------------------------
 BYTE   W96
//  #06 //003   ----------------------------------------
 BYTE   W96
//  #06 //004   ----------------------------------------
 BYTE   W96
//  #06 //005   ----------------------------------------
 BYTE   W96
//  #06 //006   ----------------------------------------
 BYTE   W96
//  #06 //007   ----------------------------------------
 BYTE   W96
//  #06 //008   ----------------------------------------
 BYTE   W96
//  #06 //009   ----------------------------------------
 BYTE   W96
//  #06 //010   ----------------------------------------
 BYTE   W96
//  #06 //011   ----------------------------------------
 BYTE   W96
//  #06 //012   ----------------------------------------
 BYTE   W96
//  #06 //013   ----------------------------------------
 BYTE   W96
//  #06 //014   ----------------------------------------
 BYTE   W96
//  #06 //015   ----------------------------------------
 BYTE   W96
//  #06 //016   ----------------------------------------
 BYTE   W96
//  #06 //017   ----------------------------------------
 BYTE   W96
//  #06 //018   ----------------------------------------
Label_01000020:
 BYTE   W24
 BYTE   N11  Fs3  v100
 BYTE   W24
 BYTE   Fs3
 BYTE   W24
 BYTE   N23  En3
 BYTE   W24
 BYTE   PEND 
//  #06 //019   ----------------------------------------
 BYTE   An3
 BYTE   W24
 BYTE   Gs3
 BYTE   W48
 BYTE   N11  Fs3
 BYTE   W24
//  #06 //020   ----------------------------------------
 BYTE   Fs3
 BYTE   W24
 BYTE   N68  En3  v100  gtp3
 BYTE   W72
//  #06 //021   ----------------------------------------
 BYTE   PATT
  POIN2 Label_01000020
//  #06 //022   ----------------------------------------
 BYTE   N23  An3  v100
 BYTE   W24
 BYTE   Gs3
 BYTE   W24
 BYTE   Fs3
 BYTE   W24
 BYTE   Bn3
 BYTE   W24
//  #06 //023   ----------------------------------------
 BYTE   PATT
  POIN2 Label_010002BE
//  #06 //024   ----------------------------------------
Label_0100004D:
 BYTE   W24
 BYTE   N05  Fs3  v100
 BYTE   W24
 BYTE   Fs3
 BYTE   W48
 BYTE   PEND 
//  #06 //025   ----------------------------------------
 BYTE   En3
 BYTE   W24
 BYTE   En3
 BYTE   W48
 BYTE   N23  Fs3
 BYTE   W24
//  #06 //026   ----------------------------------------
 BYTE   PATT
  POIN2 Label_547230
//  #06 //027   ----------------------------------------
 BYTE   PATT
  POIN2 Label_0100004D
//  #06 //028   ----------------------------------------
Label_01000066:
 BYTE   N05  En3  v100
 BYTE   W24
 BYTE   En3
 BYTE   W48
 BYTE   N23  Gs3
 BYTE   W24
 BYTE   PEND 
//  #06 //029   ----------------------------------------
 BYTE   PATT
  POIN2 Label_010002BE
//  #06 //030   ----------------------------------------
 BYTE   PATT
  POIN2 Label_0100004D
//  #06 //031   ----------------------------------------
 BYTE   N05  En3  v100
 BYTE   W24
 BYTE   En3
 BYTE   W48
 BYTE   N23  Dn3
 BYTE   W24
//  #06 //032   ----------------------------------------
 BYTE   Cs3
 BYTE   W24
 BYTE   N68  En3  v100  gtp3
 BYTE   W72
//  #06 //033   ----------------------------------------
 BYTE   PATT
  POIN2 Label_0100004D
//  #06 //034   ----------------------------------------
 BYTE   PATT
  POIN2 Label_01000066
//  #06 //035   ----------------------------------------
 BYTE   PATT
  POIN2 Label_010002BE
//  #06 //036   ----------------------------------------
 BYTE   GoTo
  POIN2 Label_01000002
 BYTE   FINE

//**************** Track 7 (Midi-Chn.6) ****************//

FF5HomeSme_007:
//  #07 //000   ----------------------------------------
 BYTE   KEYSH   FF5HomeSme_key+0
Label_010000A2:
 BYTE   VOICE   48
 BYTE   VOL   54*FF5HomeSme_mvl/mxv
 BYTE   PAN   c_v-9
 BYTE   LFODL 12
 BYTE   LFOS 24
 BYTE   MOD 2
 BYTE   W96
//  #07 //001   ----------------------------------------
 BYTE   W96
//  #07 //002   ----------------------------------------
 BYTE   W96
//  #07 //003   ----------------------------------------
 BYTE   W96
//  #07 //004   ----------------------------------------
 BYTE   W96
//  #07 //005   ----------------------------------------
 BYTE   W96
//  #07 //006   ----------------------------------------
 BYTE   W96
//  #07 //007   ----------------------------------------
 BYTE   W96
//  #07 //008   ----------------------------------------
 BYTE   W96
//  #07 //009   ----------------------------------------
 BYTE   W96
//  #07 //010   ----------------------------------------
 BYTE   W96
//  #07 //011   ----------------------------------------
 BYTE   W96
//  #07 //012   ----------------------------------------
 BYTE   W96
//  #07 //013   ----------------------------------------
 BYTE   W96
//  #07 //014   ----------------------------------------
 BYTE   W96
//  #07 //015   ----------------------------------------
 BYTE   W96
//  #07 //016   ----------------------------------------
 BYTE   W96
//  #07 //017   ----------------------------------------
 BYTE   W96
//  #07 //018   ----------------------------------------
Label_010000C0:
 BYTE   W24
 BYTE   N11  Dn3  v100
 BYTE   W24
 BYTE   Bn2
 BYTE   W24
 BYTE   N23  Cs3
 BYTE   W24
 BYTE   PEND 
//  #07 //019   ----------------------------------------
 BYTE   N44  Dn3  v100  gtp3
 BYTE   W72
 BYTE   N11
 BYTE   W24
//  #07 //020   ----------------------------------------
 BYTE   Bn2
 BYTE   W24
 BYTE   N68  Cs3  v100  gtp3
 BYTE   W72
//  #07 //021   ----------------------------------------
 BYTE   PATT
  POIN2 Label_010000C0
//  #07 //022   ----------------------------------------
 BYTE   N44  Dn3  v100  gtp3
 BYTE   W48
 BYTE   N23  Bn2
 BYTE   W24
 BYTE   Gs3
 BYTE   W24
//  #07 //023   ----------------------------------------
Label_010000E8:
 BYTE   N23  Fs3  v100
 BYTE   W24
 BYTE   N68  Gn3  v100  gtp3
 BYTE   W72
 BYTE   PEND 
//  #07 //024   ----------------------------------------
Label_010000F2:
 BYTE   W24
 BYTE   N05  Dn3  v100
 BYTE   W24
 BYTE   Dn3
 BYTE   W48
 BYTE   PEND 
//  #07 //025   ----------------------------------------
 BYTE   Dn3
 BYTE   W24
 BYTE   Dn3
 BYTE   W48
 BYTE   N23
 BYTE   W24
//  #07 //026   ----------------------------------------
 BYTE   Cs3
 BYTE   W24
 BYTE   N68  Bn2  v100  gtp3
 BYTE   W72
//  #07 //027   ----------------------------------------
 BYTE   PATT
  POIN2 Label_010000F2
//  #07 //028   ----------------------------------------
Label_0100010C:
 BYTE   N05  Dn3  v100
 BYTE   W24
 BYTE   Dn3
 BYTE   W48
 BYTE   N23  En3
 BYTE   W24
 BYTE   PEND 
//  #07 //029   ----------------------------------------
 BYTE   PATT
  POIN2 Label_010000E8
//  #07 //030   ----------------------------------------
 BYTE   PATT
  POIN2 Label_010000F2
//  #07 //031   ----------------------------------------
 BYTE   N05  Cs3  v100
 BYTE   W24
 BYTE   Cs3
 BYTE   W48
 BYTE   N23  Bn2
 BYTE   W24
//  #07 //032   ----------------------------------------
 BYTE   An2
 BYTE   W24
 BYTE   N68  Gs2  v100  gtp3
 BYTE   W72
//  #07 //033   ----------------------------------------
 BYTE   PATT
  POIN2 Label_010000F2
//  #07 //034   ----------------------------------------
 BYTE   PATT
  POIN2 Label_0100010C
//  #07 //035   ----------------------------------------
 BYTE   PATT
  POIN2 Label_010000E8
//  #07 //036   ----------------------------------------
 BYTE   GoTo
  POIN2 Label_010000A2
 BYTE   FINE

//**************** Track 8 (Midi-Chn.7) ****************//

FF5HomeSme_008:
//  #08 //000   ----------------------------------------
 BYTE   KEYSH   FF5HomeSme_key+0
Label_5466C2:
 BYTE   VOICE   48
 BYTE   VOL   54*FF5HomeSme_mvl/mxv
 BYTE   PAN   c_v-24
 BYTE   LFODL 12
 BYTE   LFOS 24
 BYTE   MOD 2
 BYTE   W96
//  #08 //001   ----------------------------------------
 BYTE   W96
//  #08 //002   ----------------------------------------
 BYTE   W96
//  #08 //003   ----------------------------------------
 BYTE   W96
//  #08 //004   ----------------------------------------
 BYTE   W96
//  #08 //005   ----------------------------------------
 BYTE   W96
//  #08 //006   ----------------------------------------
 BYTE   W96
//  #08 //007   ----------------------------------------
 BYTE   W96
//  #08 //008   ----------------------------------------
 BYTE   W96
//  #08 //009   ----------------------------------------
 BYTE   W96
//  #08 //010   ----------------------------------------
 BYTE   W96
//  #08 //011   ----------------------------------------
 BYTE   W96
//  #08 //012   ----------------------------------------
 BYTE   W96
//  #08 //013   ----------------------------------------
 BYTE   W96
//  #08 //014   ----------------------------------------
 BYTE   W96
//  #08 //015   ----------------------------------------
 BYTE   W96
//  #08 //016   ----------------------------------------
 BYTE   W96
//  #08 //017   ----------------------------------------
 BYTE   W96
//  #08 //018   ----------------------------------------
Label_5466E0:
 BYTE   N44  Bn1  v100  gtp3
 BYTE   W48
 BYTE   N23  Dn2
 BYTE   W24
 BYTE   N44  An1  v100  gtp3
 BYTE   W24
 BYTE   PEND 
//  #08 //019   ----------------------------------------
 BYTE   W24
 BYTE   N23  En2
 BYTE   W24
 BYTE   N44  Bn1  v100  gtp3
 BYTE   W48
//  #08 //020   ----------------------------------------
 BYTE   N23  Dn2
 BYTE   W24
 BYTE   N68  An1  v100  gtp3
 BYTE   W72
//  #08 //021   ----------------------------------------
 BYTE   PATT
  POIN2 Label_5466E0
//  #08 //022   ----------------------------------------
 BYTE   W24
 BYTE   N23  En2  v100
 BYTE   W24
 BYTE   Fs2
 BYTE   W24
 BYTE   En2
 BYTE   W24
//  #08 //023   ----------------------------------------
 BYTE   Dn2
 BYTE   W24
 BYTE   N68  Gn2  v100  gtp3
 BYTE   W72
//  #08 //024   ----------------------------------------
Label_546714:
 BYTE   N68  Bn1  v100  gtp3
 BYTE   W72
 BYTE   En2
 BYTE   W24
 BYTE   PEND 
//  #08 //025   ----------------------------------------
 BYTE   W48
 BYTE   N23  Dn2
 BYTE   W24
 BYTE   Bn1
 BYTE   W24
//  #08 //026   ----------------------------------------
 BYTE   An1
 BYTE   W24
 BYTE   Gn1
 BYTE   W24
 BYTE   N11
 BYTE   W12
 BYTE   An1
 BYTE   W12
 BYTE   Bn1
 BYTE   W12
 BYTE   Cs2
 BYTE   W12
//  #08 //027   ----------------------------------------
 BYTE   N68  Dn2  v100  gtp3
 BYTE   W72
 BYTE   En2
 BYTE   W24
//  #08 //028   ----------------------------------------
Label_546735:
 BYTE   W48
 BYTE   N23  Dn2  v100
 BYTE   W24
 BYTE   En2
 BYTE   W24
 BYTE   PEND 
//  #08 //029   ----------------------------------------
 BYTE   Fs2
 BYTE   W24
 BYTE   Gn2
 BYTE   W24
 BYTE   N11  Dn2
 BYTE   W12
 BYTE   Cs2
 BYTE   W12
 BYTE   Bn1
 BYTE   W12
 BYTE   An1
 BYTE   W12
//  #08 //030   ----------------------------------------
 BYTE   N44  Bn1  v100  gtp3
 BYTE   W48
 BYTE   N23  Bn2
 BYTE   W24
 BYTE   An2
 BYTE   W24
//  #08 //031   ----------------------------------------
 BYTE   N44  An1  v100  gtp3
 BYTE   W48
 BYTE   N23  Gn1
 BYTE   W24
 BYTE   Gn2
 BYTE   W24
//  #08 //032   ----------------------------------------
 BYTE   Fs2
 BYTE   W24
 BYTE   N68  En2  v100  gtp3
 BYTE   W72
//  #08 //033   ----------------------------------------
 BYTE   PATT
  POIN2 Label_546714
//  #08 //034   ----------------------------------------
 BYTE   PATT
  POIN2 Label_546735
//  #08 //035   ----------------------------------------
 BYTE   N23  Fs2  v100
 BYTE   W24
 BYTE   N68  Gn2  v100  gtp3
 BYTE   W72
//  #08 //036   ----------------------------------------
 BYTE   GoTo
  POIN2 Label_5466C2
 BYTE   FINE

//******************************************************//
	ALIGN 4

FF5HomeSme:
	BYTE	8	// NumTrks
	BYTE	0	// NumBlks
	BYTE	FF5HomeSme_pri	// Priority
	BYTE	FF5HomeSme_rev	// Reverb.
    
	POIN2	FF5HomeSme_grp
    
	POIN2	FF5HomeSme_001
	POIN2	FF5HomeSme_002
	POIN2	FF5HomeSme_003
	POIN2	FF5HomeSme_004
	POIN2	FF5HomeSme_005
	POIN2	FF5HomeSme_006
	POIN2	FF5HomeSme_007
	POIN2	FF5HomeSme_008

	
