//Event file generated from Sappy .s format.
	#include "MPlayDef.event"

	#define	FF9BossBattleAReliableChair_grp  voicegroup000
	#define	FF9BossBattleAReliableChair_pri  0
	#define	FF9BossBattleAReliableChair_rev  0
	#define	FF9BossBattleAReliableChair_mvl  127
	#define	FF9BossBattleAReliableChair_key  0
	#define	FF9BossBattleAReliableChair_tbs  1
	#define	FF9BossBattleAReliableChair_exg  0
	#define	FF9BossBattleAReliableChair_cmp  1

	// .rodata
	//	FF9BossBattleAReliableChair
	ALIGN 4


//**************** Track 1 (Midi-Chn.0) ****************//

FF9BossBattleAReliableChair_001:
// 000   ----------------------------------------
 BYTE   KEYSH   FF9BossBattleAReliableChair_key+0
Label_0_0135FE06:
 BYTE   TEMPO   170*FF9BossBattleAReliableChair_tbs/2
 BYTE   VOICE   0
 BYTE   BENDR  64
 BYTE   PAN   c_v-4
 BYTE   VOL   50*FF9BossBattleAReliableChair_mvl/mxv
 BYTE   MODT 0
 BYTE   CnM2
 BYTE   LFOS 0
 BYTE   Gs1
 BYTE   N12  Fn0  v116
 BYTE   W12
 BYTE   Fn1  v100
 BYTE   W12
 BYTE   Ds0  v116
 BYTE   W12
 BYTE   Ds1  v100
 BYTE   W12
 BYTE   Fn0  v116
 BYTE   W12
 BYTE   Fn1  v100
 BYTE   W12
 BYTE   Gs0  v116
 BYTE   W12
 BYTE   Gs1  v100
 BYTE   W12
// 001   ----------------------------------------
Label_0_0135FE2D:
 BYTE   N12  Fn0  v116
 BYTE   W12
 BYTE   Fn1  v100
 BYTE   W12
 BYTE   Cn0  v116
 BYTE   W12
 BYTE   Cn1  v100
 BYTE   W12
 BYTE   Ds0  v116
 BYTE   W12
 BYTE   Ds1  v100
 BYTE   W12
 BYTE   En0  v116
 BYTE   W12
 BYTE   En1  v100
 BYTE   W12
 BYTE   PEND 
// 002   ----------------------------------------
Label_0_0135FE47:
 BYTE   N12  Fn0  v116
 BYTE   W12
 BYTE   Fn1  v100
 BYTE   W12
 BYTE   Ds0  v116
 BYTE   W12
 BYTE   Ds1  v100
 BYTE   W12
 BYTE   Fn0  v116
 BYTE   W12
 BYTE   Fn1  v100
 BYTE   W12
 BYTE   Gs0  v116
 BYTE   W12
 BYTE   Gs1  v100
 BYTE   W12
 BYTE   PEND 
 BYTE   PATT
  POIN2 Label_0_0135FE2D
 BYTE   PATT
  POIN2 Label_0_0135FE47
 BYTE   PATT
  POIN2 Label_0_0135FE2D
 BYTE   PATT
  POIN2 Label_0_0135FE47
 BYTE   PATT
  POIN2 Label_0_0135FE2D
 BYTE   PATT
  POIN2 Label_0_0135FE47
 BYTE   PATT
  POIN2 Label_0_0135FE2D
 BYTE   PATT
  POIN2 Label_0_0135FE47
 BYTE   PATT
  POIN2 Label_0_0135FE2D
 BYTE   PATT
  POIN2 Label_0_0135FE47
// 003   ----------------------------------------
Label_0_0135FE93:
 BYTE   N12  Fn0  v116
 BYTE   W12
 BYTE   Fn1  v100
 BYTE   W12
 BYTE   Ds0  v116
 BYTE   W12
 BYTE   Ds1  v100
 BYTE   W12
 BYTE   Fn0  v116
 BYTE   W12
 BYTE   Fn1  v100
 BYTE   W12
 BYTE   En0  v116
 BYTE   W12
 BYTE   En1  v100
 BYTE   W12
 BYTE   PEND 
 BYTE   PATT
  POIN2 Label_0_0135FE47
 BYTE   PATT
  POIN2 Label_0_0135FE2D
 BYTE   PATT
  POIN2 Label_0_0135FE47
 BYTE   PATT
  POIN2 Label_0_0135FE93
 BYTE   PATT
  POIN2 Label_0_0135FE47
 BYTE   PATT
  POIN2 Label_0_0135FE2D
// 004   ----------------------------------------
Label_0_0135FECB:
 BYTE   N12  As0  v116
 BYTE   W12
 BYTE   As1  v100
 BYTE   W12
 BYTE   Gs0  v116
 BYTE   W12
 BYTE   Gs1  v100
 BYTE   W12
 BYTE   As0  v116
 BYTE   W12
 BYTE   As1  v100
 BYTE   W12
 BYTE   Cs1  v116
 BYTE   W12
 BYTE   Cs2  v100
 BYTE   W12
 BYTE   PEND 
// 005   ----------------------------------------
Label_0_0135FEE5:
 BYTE   N12  As0  v116
 BYTE   W12
 BYTE   As1  v100
 BYTE   W12
 BYTE   Gs0  v116
 BYTE   W12
 BYTE   Gs1  v100
 BYTE   W12
 BYTE   As0  v116
 BYTE   W12
 BYTE   As1  v100
 BYTE   W12
 BYTE   An0  v116
 BYTE   W12
 BYTE   An1  v100
 BYTE   W12
 BYTE   PEND 
 BYTE   PATT
  POIN2 Label_0_0135FECB
// 006   ----------------------------------------
Label_0_0135FF04:
 BYTE   N12  As0  v116
 BYTE   W12
 BYTE   As1  v100
 BYTE   W12
 BYTE   Fn0  v116
 BYTE   W12
 BYTE   Fn1  v100
 BYTE   W12
 BYTE   Gs0  v116
 BYTE   W12
 BYTE   Gs1  v100
 BYTE   W12
 BYTE   An0  v116
 BYTE   W12
 BYTE   An1  v100
 BYTE   W12
 BYTE   PEND 
 BYTE   PATT
  POIN2 Label_0_0135FECB
 BYTE   PATT
  POIN2 Label_0_0135FEE5
 BYTE   PATT
  POIN2 Label_0_0135FECB
 BYTE   PATT
  POIN2 Label_0_0135FF04
 BYTE   PATT
  POIN2 Label_0_0135FE47
 BYTE   PATT
  POIN2 Label_0_0135FE93
 BYTE   PATT
  POIN2 Label_0_0135FE47
 BYTE   PATT
  POIN2 Label_0_0135FE2D
 BYTE   PATT
  POIN2 Label_0_0135FE47
 BYTE   PATT
  POIN2 Label_0_0135FE93
 BYTE   PATT
  POIN2 Label_0_0135FE47
 BYTE   PATT
  POIN2 Label_0_0135FE2D
 BYTE   PATT
  POIN2 Label_0_0135FECB
 BYTE   PATT
  POIN2 Label_0_0135FEE5
 BYTE   PATT
  POIN2 Label_0_0135FECB
 BYTE   PATT
  POIN2 Label_0_0135FF04
 BYTE   PATT
  POIN2 Label_0_0135FECB
 BYTE   PATT
  POIN2 Label_0_0135FEE5
 BYTE   PATT
  POIN2 Label_0_0135FECB
 BYTE   PATT
  POIN2 Label_0_0135FF04
// 007   ----------------------------------------
 BYTE   TIE  Cn1  v116
 BYTE   W96
// 008   ----------------------------------------
 BYTE   W72
 BYTE   EOT
 BYTE   TIE  As0
 BYTE   W24
// 009   ----------------------------------------
 BYTE   W96
// 010   ----------------------------------------
 BYTE   W96
// 011   ----------------------------------------
 BYTE   EOT
 BYTE   TIE  Bn0
 BYTE   W96
// 012   ----------------------------------------
 BYTE   W72
 BYTE   EOT
 BYTE   TIE  An0
 BYTE   W24
// 013   ----------------------------------------
 BYTE   W96
// 014   ----------------------------------------
 BYTE   W96
// 015   ----------------------------------------
 BYTE   EOT
 BYTE   TIE  Cn1
 BYTE   W96
// 016   ----------------------------------------
 BYTE   W72
 BYTE   EOT
 BYTE   TIE  As0
 BYTE   W24
// 017   ----------------------------------------
 BYTE   W96
// 018   ----------------------------------------
 BYTE   W96
// 019   ----------------------------------------
 BYTE   EOT
 BYTE   TIE  Bn0
 BYTE   W96
// 020   ----------------------------------------
 BYTE   W72
 BYTE   EOT
 BYTE   TIE  An0
 BYTE   W24
// 021   ----------------------------------------
 BYTE   W96
// 022   ----------------------------------------
 BYTE   W96
// 023   ----------------------------------------
 BYTE   EOT
Label_0_0135FFAF:
 BYTE   N12  Gs0  v116
 BYTE   W12
 BYTE   Gs1  v100
 BYTE   W12
 BYTE   Gn0  v116
 BYTE   W12
 BYTE   Gn1  v100
 BYTE   W12
 BYTE   Fs0  v116
 BYTE   W12
 BYTE   Fs1  v100
 BYTE   W12
 BYTE   Fn0  v116
 BYTE   W12
 BYTE   Fn1  v100
 BYTE   W12
 BYTE   PEND 
 BYTE   PATT
  POIN2 Label_0_0135FFAF
 BYTE   PATT
  POIN2 Label_0_0135FFAF
 BYTE   PATT
  POIN2 Label_0_0135FFAF
 BYTE   PATT
  POIN2 Label_0_0135FFAF
 BYTE   PATT
  POIN2 Label_0_0135FFAF
 BYTE   PATT
  POIN2 Label_0_0135FFAF
 BYTE   PATT
  POIN2 Label_0_0135FFAF
 BYTE   PATT
  POIN2 Label_0_0135FFAF
 BYTE   PATT
  POIN2 Label_0_0135FFAF
 BYTE   PATT
  POIN2 Label_0_0135FFAF
 BYTE   PATT
  POIN2 Label_0_0135FFAF
// 024   ----------------------------------------
 BYTE   TIE  Cn1  v116
 BYTE   W96
// 025   ----------------------------------------
 BYTE   W72
 BYTE   EOT
 BYTE   TIE  As0
 BYTE   W24
// 026   ----------------------------------------
 BYTE   W96
// 027   ----------------------------------------
 BYTE   W96
// 028   ----------------------------------------
 BYTE   EOT
 BYTE   TIE  Bn0
 BYTE   W96
// 029   ----------------------------------------
 BYTE   W72
 BYTE   EOT
 BYTE   TIE  An0
 BYTE   W24
// 030   ----------------------------------------
 BYTE   W96
// 031   ----------------------------------------
 BYTE   W96
// 032   ----------------------------------------
 BYTE   EOT
 BYTE   PATT
  POIN2 Label_0_0135FE47
 BYTE   PATT
  POIN2 Label_0_0135FE2D
 BYTE   PATT
  POIN2 Label_0_0135FE47
 BYTE   PATT
  POIN2 Label_0_0135FE2D
 BYTE   PATT
  POIN2 Label_0_0135FE47
 BYTE   PATT
  POIN2 Label_0_0135FE2D
 BYTE   PATT
  POIN2 Label_0_0135FE47
 BYTE   PATT
  POIN2 Label_0_0135FE2D
 BYTE   PATT
  POIN2 Label_0_0135FE47
 BYTE   PATT
  POIN2 Label_0_0135FE2D
 BYTE   PATT
  POIN2 Label_0_0135FE47
 BYTE   PATT
  POIN2 Label_0_0135FE2D
 BYTE   PATT
  POIN2 Label_0_0135FE47
 BYTE   PATT
  POIN2 Label_0_0135FE93
 BYTE   PATT
  POIN2 Label_0_0135FE47
 BYTE   PATT
  POIN2 Label_0_0135FE2D
 BYTE   PATT
  POIN2 Label_0_0135FE47
 BYTE   PATT
  POIN2 Label_0_0135FE93
 BYTE   PATT
  POIN2 Label_0_0135FE47
 BYTE   PATT
  POIN2 Label_0_0135FE2D
 BYTE   PATT
  POIN2 Label_0_0135FECB
 BYTE   PATT
  POIN2 Label_0_0135FEE5
 BYTE   PATT
  POIN2 Label_0_0135FECB
 BYTE   PATT
  POIN2 Label_0_0135FF04
 BYTE   PATT
  POIN2 Label_0_0135FECB
 BYTE   PATT
  POIN2 Label_0_0135FEE5
 BYTE   PATT
  POIN2 Label_0_0135FECB
 BYTE   PATT
  POIN2 Label_0_0135FF04
 BYTE   PATT
  POIN2 Label_0_0135FE47
 BYTE   PATT
  POIN2 Label_0_0135FE93
 BYTE   PATT
  POIN2 Label_0_0135FE47
 BYTE   PATT
  POIN2 Label_0_0135FE2D
 BYTE   PATT
  POIN2 Label_0_0135FE47
 BYTE   PATT
  POIN2 Label_0_0135FE93
 BYTE   PATT
  POIN2 Label_0_0135FE47
 BYTE   PATT
  POIN2 Label_0_0135FE2D
 BYTE   PATT
  POIN2 Label_0_0135FECB
 BYTE   PATT
  POIN2 Label_0_0135FEE5
 BYTE   PATT
  POIN2 Label_0_0135FECB
 BYTE   PATT
  POIN2 Label_0_0135FF04
 BYTE   PATT
  POIN2 Label_0_0135FECB
 BYTE   PATT
  POIN2 Label_0_0135FEE5
 BYTE   PATT
  POIN2 Label_0_0135FECB
 BYTE   PATT
  POIN2 Label_0_0135FF04
// 033   ----------------------------------------
 BYTE   TIE  Cn1  v116
 BYTE   W96
// 034   ----------------------------------------
 BYTE   W72
 BYTE   EOT
 BYTE   TIE  As0
 BYTE   W24
// 035   ----------------------------------------
 BYTE   W96
// 036   ----------------------------------------
 BYTE   W96
// 037   ----------------------------------------
 BYTE   EOT
 BYTE   TIE  Bn0
 BYTE   W96
// 038   ----------------------------------------
 BYTE   W72
 BYTE   EOT
 BYTE   TIE  An0
 BYTE   W24
// 039   ----------------------------------------
 BYTE   W96
// 040   ----------------------------------------
 BYTE   W96
// 041   ----------------------------------------
 BYTE   EOT
 BYTE   TIE  Cn1
 BYTE   W96
// 042   ----------------------------------------
 BYTE   W72
 BYTE   EOT
 BYTE   TIE  As0
 BYTE   W24
// 043   ----------------------------------------
 BYTE   W96
// 044   ----------------------------------------
 BYTE   W96
// 045   ----------------------------------------
 BYTE   EOT
 BYTE   TIE  Bn0
 BYTE   W96
// 046   ----------------------------------------
 BYTE   W72
 BYTE   EOT
 BYTE   TIE  An0
 BYTE   W24
// 047   ----------------------------------------
 BYTE   W96
// 048   ----------------------------------------
 BYTE   W96
// 049   ----------------------------------------
 BYTE   EOT
 BYTE   PATT
  POIN2 Label_0_0135FFAF
 BYTE   PATT
  POIN2 Label_0_0135FFAF
 BYTE   PATT
  POIN2 Label_0_0135FFAF
 BYTE   PATT
  POIN2 Label_0_0135FFAF
 BYTE   PATT
  POIN2 Label_0_0135FFAF
 BYTE   PATT
  POIN2 Label_0_0135FFAF
 BYTE   PATT
  POIN2 Label_0_0135FFAF
 BYTE   PATT
  POIN2 Label_0_0135FFAF
 BYTE   PATT
  POIN2 Label_0_0135FFAF
 BYTE   PATT
  POIN2 Label_0_0135FFAF
 BYTE   PATT
  POIN2 Label_0_0135FFAF
 BYTE   PATT
  POIN2 Label_0_0135FFAF
// 050   ----------------------------------------
 BYTE   TIE  Cn1  v116
 BYTE   W96
// 051   ----------------------------------------
 BYTE   W72
 BYTE   EOT
 BYTE   TIE  As0
 BYTE   W24
// 052   ----------------------------------------
 BYTE   W96
// 053   ----------------------------------------
 BYTE   W96
// 054   ----------------------------------------
 BYTE   EOT
 BYTE   TIE  Bn0
 BYTE   W96
// 055   ----------------------------------------
 BYTE   W72
 BYTE   EOT
 BYTE   TIE  An0
 BYTE   W24
// 056   ----------------------------------------
 BYTE   W96
// 057   ----------------------------------------
 BYTE   W96
// 058   ----------------------------------------
 BYTE   EOT
 BYTE   PATT
  POIN2 Label_0_0135FE47
 BYTE   PATT
  POIN2 Label_0_0135FE2D
 BYTE   PATT
  POIN2 Label_0_0135FE47
 BYTE   PATT
  POIN2 Label_0_0135FE2D
 BYTE   PATT
  POIN2 Label_0_0135FE47
 BYTE   PATT
  POIN2 Label_0_0135FE2D
 BYTE   PATT
  POIN2 Label_0_0135FE47
 BYTE   PATT
  POIN2 Label_0_0135FE2D
// 059   ----------------------------------------
 BYTE   GoTo
  POIN2 Label_0_0135FE06
 BYTE   FINE

//**************** Track 2 (Midi-Chn.1) ****************//

FF9BossBattleAReliableChair_002:
// 000   ----------------------------------------
 BYTE   KEYSH   FF9BossBattleAReliableChair_key+0
Label_1_013601A6:
 BYTE   VOICE   38
 BYTE   BENDR  64
 BYTE   PAN   c_v+4
 BYTE   VOL   50*FF9BossBattleAReliableChair_mvl/mxv
 BYTE   MODT 0
 BYTE   CnM2
 BYTE   LFOS 0
 BYTE   Gs1
 BYTE   N36  Fn0  v100
 BYTE   W36
 BYTE   N12  Ds0  v088
 BYTE   W12
 BYTE   N24  Fn0  v100
 BYTE   W24
 BYTE   Gs0
 BYTE   W24
// 001   ----------------------------------------
Label_1_013601C0:
 BYTE   W12
 BYTE   N24  Fn0  v088
 BYTE   W24
 BYTE   Cn0
 BYTE   W24
 BYTE   Ds0  v100
 BYTE   W24
 BYTE   N12  En0
 BYTE   W12
 BYTE   PEND 
// 002   ----------------------------------------
Label_1_013601CE:
 BYTE   N36  Fn0  v100
 BYTE   W36
 BYTE   N12  Ds0  v088
 BYTE   W12
 BYTE   N24  Fn0  v100
 BYTE   W24
 BYTE   Gs0
 BYTE   W24
 BYTE   PEND 
// 003   ----------------------------------------
Label_1_013601DD:
 BYTE   N12  Fn0  v100
 BYTE   W12
 BYTE   Cn1
 BYTE   W12
 BYTE   Fn1
 BYTE   W12
 BYTE   Cn2
 BYTE   W12
 BYTE   As1
 BYTE   W12
 BYTE   Gs1
 BYTE   W12
 BYTE   En1
 BYTE   W12
 BYTE   Cn1
 BYTE   W12
 BYTE   PEND 
 BYTE   PATT
  POIN2 Label_1_013601CE
 BYTE   PATT
  POIN2 Label_1_013601C0
 BYTE   PATT
  POIN2 Label_1_013601CE
 BYTE   PATT
  POIN2 Label_1_013601C0
 BYTE   PATT
  POIN2 Label_1_013601CE
 BYTE   PATT
  POIN2 Label_1_013601C0
 BYTE   PATT
  POIN2 Label_1_013601CE
 BYTE   PATT
  POIN2 Label_1_013601DD
 BYTE   PATT
  POIN2 Label_1_013601CE
 BYTE   PATT
  POIN2 Label_1_013601C0
 BYTE   PATT
  POIN2 Label_1_013601CE
 BYTE   PATT
  POIN2 Label_1_013601C0
 BYTE   PATT
  POIN2 Label_1_013601CE
 BYTE   PATT
  POIN2 Label_1_013601C0
 BYTE   PATT
  POIN2 Label_1_013601CE
 BYTE   PATT
  POIN2 Label_1_013601DD
// 004   ----------------------------------------
Label_1_01360240:
 BYTE   N36  As0  v100
 BYTE   W36
 BYTE   N12  Gs0  v088
 BYTE   W12
 BYTE   N24  As0  v100
 BYTE   W24
 BYTE   Cs1
 BYTE   W24
 BYTE   PEND 
// 005   ----------------------------------------
Label_1_0136024F:
 BYTE   W12
 BYTE   N24  As0  v088
 BYTE   W24
 BYTE   Fn0
 BYTE   W24
 BYTE   Gs0  v100
 BYTE   W24
 BYTE   N12  An0
 BYTE   W12
 BYTE   PEND 
 BYTE   PATT
  POIN2 Label_1_01360240
 BYTE   PATT
  POIN2 Label_1_0136024F
 BYTE   PATT
  POIN2 Label_1_01360240
 BYTE   PATT
  POIN2 Label_1_0136024F
 BYTE   PATT
  POIN2 Label_1_01360240
// 006   ----------------------------------------
Label_1_01360276:
 BYTE   N12  As0  v100
 BYTE   W12
 BYTE   Fn1
 BYTE   W12
 BYTE   As1
 BYTE   W12
 BYTE   Fn2
 BYTE   W12
 BYTE   Ds2
 BYTE   W12
 BYTE   Cs2
 BYTE   W12
 BYTE   An1
 BYTE   W12
 BYTE   Fn1
 BYTE   W12
 BYTE   PEND 
 BYTE   PATT
  POIN2 Label_1_013601CE
 BYTE   PATT
  POIN2 Label_1_013601C0
 BYTE   PATT
  POIN2 Label_1_013601CE
 BYTE   PATT
  POIN2 Label_1_013601C0
 BYTE   PATT
  POIN2 Label_1_013601CE
 BYTE   PATT
  POIN2 Label_1_013601C0
 BYTE   PATT
  POIN2 Label_1_013601CE
 BYTE   PATT
  POIN2 Label_1_013601DD
 BYTE   PATT
  POIN2 Label_1_01360240
 BYTE   PATT
  POIN2 Label_1_0136024F
 BYTE   PATT
  POIN2 Label_1_01360240
 BYTE   PATT
  POIN2 Label_1_0136024F
 BYTE   PATT
  POIN2 Label_1_01360240
 BYTE   PATT
  POIN2 Label_1_0136024F
 BYTE   PATT
  POIN2 Label_1_01360240
 BYTE   PATT
  POIN2 Label_1_01360276
// 007   ----------------------------------------
 BYTE   W96
// 008   ----------------------------------------
 BYTE   W96
// 009   ----------------------------------------
 BYTE   W96
// 010   ----------------------------------------
 BYTE   W96
// 011   ----------------------------------------
 BYTE   W96
// 012   ----------------------------------------
 BYTE   W96
// 013   ----------------------------------------
 BYTE   W96
// 014   ----------------------------------------
 BYTE   W96
// 015   ----------------------------------------
 BYTE   W96
// 016   ----------------------------------------
 BYTE   W96
// 017   ----------------------------------------
 BYTE   W96
// 018   ----------------------------------------
 BYTE   W96
// 019   ----------------------------------------
 BYTE   W96
// 020   ----------------------------------------
 BYTE   W96
// 021   ----------------------------------------
 BYTE   W96
// 022   ----------------------------------------
 BYTE   W96
// 023   ----------------------------------------
Label_1_013602E9:
 BYTE   N12  Gs0  v100
 BYTE   W12
 BYTE   Gs1  v088
 BYTE   W12
 BYTE   Gn0  v100
 BYTE   W12
 BYTE   Gn1  v088
 BYTE   W12
 BYTE   Fs0  v100
 BYTE   W12
 BYTE   Fs1  v088
 BYTE   W12
 BYTE   Fn0  v100
 BYTE   W12
 BYTE   Fn1  v088
 BYTE   W12
 BYTE   PEND 
 BYTE   PATT
  POIN2 Label_1_013602E9
 BYTE   PATT
  POIN2 Label_1_013602E9
 BYTE   PATT
  POIN2 Label_1_013602E9
 BYTE   PATT
  POIN2 Label_1_013602E9
 BYTE   PATT
  POIN2 Label_1_013602E9
 BYTE   PATT
  POIN2 Label_1_013602E9
 BYTE   PATT
  POIN2 Label_1_013602E9
 BYTE   PATT
  POIN2 Label_1_013602E9
 BYTE   PATT
  POIN2 Label_1_013602E9
 BYTE   PATT
  POIN2 Label_1_013602E9
 BYTE   PATT
  POIN2 Label_1_013602E9
// 024   ----------------------------------------
 BYTE   W96
// 025   ----------------------------------------
 BYTE   W96
// 026   ----------------------------------------
 BYTE   W96
// 027   ----------------------------------------
 BYTE   W96
// 028   ----------------------------------------
 BYTE   W96
// 029   ----------------------------------------
 BYTE   W96
// 030   ----------------------------------------
 BYTE   W96
// 031   ----------------------------------------
 BYTE   W96
 BYTE   PATT
  POIN2 Label_1_013601CE
 BYTE   PATT
  POIN2 Label_1_013601C0
 BYTE   PATT
  POIN2 Label_1_013601CE
 BYTE   PATT
  POIN2 Label_1_013601DD
 BYTE   PATT
  POIN2 Label_1_013601CE
 BYTE   PATT
  POIN2 Label_1_013601C0
 BYTE   PATT
  POIN2 Label_1_013601CE
 BYTE   PATT
  POIN2 Label_1_013601C0
 BYTE   PATT
  POIN2 Label_1_013601CE
 BYTE   PATT
  POIN2 Label_1_013601C0
 BYTE   PATT
  POIN2 Label_1_013601CE
 BYTE   PATT
  POIN2 Label_1_013601DD
 BYTE   PATT
  POIN2 Label_1_013601CE
 BYTE   PATT
  POIN2 Label_1_013601C0
 BYTE   PATT
  POIN2 Label_1_013601CE
 BYTE   PATT
  POIN2 Label_1_013601C0
 BYTE   PATT
  POIN2 Label_1_013601CE
 BYTE   PATT
  POIN2 Label_1_013601C0
 BYTE   PATT
  POIN2 Label_1_013601CE
 BYTE   PATT
  POIN2 Label_1_013601DD
 BYTE   PATT
  POIN2 Label_1_01360240
 BYTE   PATT
  POIN2 Label_1_0136024F
 BYTE   PATT
  POIN2 Label_1_01360240
 BYTE   PATT
  POIN2 Label_1_0136024F
 BYTE   PATT
  POIN2 Label_1_01360240
 BYTE   PATT
  POIN2 Label_1_0136024F
 BYTE   PATT
  POIN2 Label_1_01360240
 BYTE   PATT
  POIN2 Label_1_01360276
 BYTE   PATT
  POIN2 Label_1_013601CE
 BYTE   PATT
  POIN2 Label_1_013601C0
 BYTE   PATT
  POIN2 Label_1_013601CE
 BYTE   PATT
  POIN2 Label_1_013601C0
 BYTE   PATT
  POIN2 Label_1_013601CE
 BYTE   PATT
  POIN2 Label_1_013601C0
 BYTE   PATT
  POIN2 Label_1_013601CE
 BYTE   PATT
  POIN2 Label_1_013601DD
 BYTE   PATT
  POIN2 Label_1_01360240
 BYTE   PATT
  POIN2 Label_1_0136024F
 BYTE   PATT
  POIN2 Label_1_01360240
 BYTE   PATT
  POIN2 Label_1_0136024F
 BYTE   PATT
  POIN2 Label_1_01360240
 BYTE   PATT
  POIN2 Label_1_0136024F
 BYTE   PATT
  POIN2 Label_1_01360240
 BYTE   PATT
  POIN2 Label_1_01360276
// 032   ----------------------------------------
 BYTE   W96
// 033   ----------------------------------------
 BYTE   W96
// 034   ----------------------------------------
 BYTE   W96
// 035   ----------------------------------------
 BYTE   W96
// 036   ----------------------------------------
 BYTE   W96
// 037   ----------------------------------------
 BYTE   W96
// 038   ----------------------------------------
 BYTE   W96
// 039   ----------------------------------------
 BYTE   W96
// 040   ----------------------------------------
 BYTE   W96
// 041   ----------------------------------------
 BYTE   W96
// 042   ----------------------------------------
 BYTE   W96
// 043   ----------------------------------------
 BYTE   W96
// 044   ----------------------------------------
 BYTE   W96
// 045   ----------------------------------------
 BYTE   W96
// 046   ----------------------------------------
 BYTE   W96
// 047   ----------------------------------------
 BYTE   W96
 BYTE   PATT
  POIN2 Label_1_013602E9
 BYTE   PATT
  POIN2 Label_1_013602E9
 BYTE   PATT
  POIN2 Label_1_013602E9
 BYTE   PATT
  POIN2 Label_1_013602E9
 BYTE   PATT
  POIN2 Label_1_013602E9
 BYTE   PATT
  POIN2 Label_1_013602E9
 BYTE   PATT
  POIN2 Label_1_013602E9
 BYTE   PATT
  POIN2 Label_1_013602E9
 BYTE   PATT
  POIN2 Label_1_013602E9
 BYTE   PATT
  POIN2 Label_1_013602E9
 BYTE   PATT
  POIN2 Label_1_013602E9
 BYTE   PATT
  POIN2 Label_1_013602E9
// 048   ----------------------------------------
 BYTE   W96
// 049   ----------------------------------------
 BYTE   W96
// 050   ----------------------------------------
 BYTE   W96
// 051   ----------------------------------------
 BYTE   W96
// 052   ----------------------------------------
 BYTE   W96
// 053   ----------------------------------------
 BYTE   W96
// 054   ----------------------------------------
 BYTE   W96
// 055   ----------------------------------------
 BYTE   W96
 BYTE   PATT
  POIN2 Label_1_013601CE
 BYTE   PATT
  POIN2 Label_1_013601C0
 BYTE   PATT
  POIN2 Label_1_013601CE
 BYTE   PATT
  POIN2 Label_1_013601DD
 BYTE   PATT
  POIN2 Label_1_013601CE
 BYTE   PATT
  POIN2 Label_1_013601C0
 BYTE   PATT
  POIN2 Label_1_013601CE
 BYTE   PATT
  POIN2 Label_1_013601C0
// 056   ----------------------------------------
 BYTE   GoTo
  POIN2 Label_1_013601A6
 BYTE   FINE

//**************** Track 3 (Midi-Chn.2) ****************//

FF9BossBattleAReliableChair_003:
// 000   ----------------------------------------
 BYTE   KEYSH   FF9BossBattleAReliableChair_key+0
Label_2_013604A2:
 BYTE   VOICE   89
 BYTE   BENDR  64
 BYTE   PAN   c_v+0
 BYTE   VOL   35*FF9BossBattleAReliableChair_mvl/mxv
 BYTE   MODT 0
 BYTE   CnM2
 BYTE   LFOS 0
 BYTE   Gs1
 BYTE   W96
// 001   ----------------------------------------
 BYTE   W96
// 002   ----------------------------------------
 BYTE   W96
// 003   ----------------------------------------
Label_2_013604B1:
 BYTE   W72
 BYTE   N08  Cn3  v100
 BYTE   N08  Cn4
 BYTE   W08
 BYTE   Cs3
 BYTE   N08  Cs4
 BYTE   W08
 BYTE   Fs3
 BYTE   N08  Fs4
 BYTE   W08
 BYTE   PEND 
// 004   ----------------------------------------
Label_2_013604C1:
 BYTE   MOD 0
 BYTE   CnM2
 BYTE   TIE  Gn3  v100
 BYTE   TIE  Gn4
 BYTE   W24
 BYTE   MOD 0
 BYTE   FnM2
 BYTE   W12
 BYTE   AsM2
 BYTE   W12
 BYTE   DsM1
 BYTE   W12
 BYTE   GsM1
 BYTE   W12
 BYTE   Cs0
 BYTE   W12
 BYTE   Fs0
 BYTE   W12
 BYTE   PEND 
// 005   ----------------------------------------
 BYTE   W08
 BYTE   EOT
 BYTE   Gn3  v079
 BYTE   W16
 BYTE   MOD 0
 BYTE   CnM2
 BYTE   N08  Fn3
 BYTE   N08  Fn4
 BYTE   W08
 BYTE   En3
 BYTE   N08  En4
 BYTE   W08
 BYTE   Cn3
 BYTE   N08  Cn4
 BYTE   W08
 BYTE   Ds3
 BYTE   N08  Ds4
 BYTE   W08
 BYTE   As2
 BYTE   N08  As3
 BYTE   W08
 BYTE   Cn3
 BYTE   N08  Cn4
 BYTE   W08
 BYTE   Gs2
 BYTE   N08  Gs3
 BYTE   W08
 BYTE   Cs3
 BYTE   N08  Cs4
 BYTE   W08
 BYTE   Gn2
 BYTE   N08  Gn3
 BYTE   W08
// 006   ----------------------------------------
Label_2_01360503:
 BYTE   MOD 0
 BYTE   CnM2
 BYTE   TIE  Bn2  v100
 BYTE   TIE  Bn3
 BYTE   W24
 BYTE   MOD 0
 BYTE   FnM2
 BYTE   W12
 BYTE   AsM2
 BYTE   W12
 BYTE   DsM1
 BYTE   W12
 BYTE   GsM1
 BYTE   W12
 BYTE   Cs0
 BYTE   W12
 BYTE   Fs0
 BYTE   W12
 BYTE   PEND 
// 007   ----------------------------------------
 BYTE   W60
 BYTE   EOT
 BYTE   Bn2  v071
 BYTE   W12
 BYTE   MOD 0
 BYTE   CnM2
 BYTE   N08  Cn3
 BYTE   N08  Cn4
 BYTE   W08
 BYTE   Ds3
 BYTE   N08  Ds4
 BYTE   W08
 BYTE   Fs3
 BYTE   N08  Fs4
 BYTE   W08
// 008   ----------------------------------------
Label_2_0136052D:
 BYTE   MOD 0
 BYTE   CnM2
 BYTE   TIE  Bn3  v100
 BYTE   TIE  Bn4
 BYTE   W24
 BYTE   MOD 0
 BYTE   FnM2
 BYTE   W12
 BYTE   AsM2
 BYTE   W12
 BYTE   DsM1
 BYTE   W12
 BYTE   GsM1
 BYTE   W12
 BYTE   Cs0
 BYTE   W12
 BYTE   Fs0
 BYTE   W12
 BYTE   PEND 
// 009   ----------------------------------------
Label_2_01360543:
 BYTE   VOL   35*FF9BossBattleAReliableChair_mvl/mxv
 BYTE   W06
 BYTE   An0
 BYTE   W06
 BYTE   Fs0
 BYTE   W06
 BYTE   En0
 BYTE   W06
 BYTE   Cs0
 BYTE   W06
 BYTE   BnM1
 BYTE   W06
 BYTE   GsM1
 BYTE   W06
 BYTE   FsM1
 BYTE   W06
 BYTE   EnM1
 BYTE   W06
 BYTE   DnM1
 BYTE   W06
 BYTE   CnM1
 BYTE   W06
 BYTE   AsM2
 BYTE   W06
 BYTE   AnM2
 BYTE   W06
 BYTE   GnM2
 BYTE   W06
 BYTE   FsM2
 BYTE   W06
 BYTE   EnM2
 BYTE   W06
 BYTE   PEND 
// 010   ----------------------------------------
 BYTE   EOT
 BYTE   Bn3  v083
 BYTE   VOL   3*FF9BossBattleAReliableChair_mvl/mxv
 BYTE   W96
// 011   ----------------------------------------
 BYTE   MOD 0
 BYTE   CnM2
 BYTE   VOL   35*FF9BossBattleAReliableChair_mvl/mxv
 BYTE   W96
// 012   ----------------------------------------
 BYTE   W96
// 013   ----------------------------------------
 BYTE   W96
// 014   ----------------------------------------
 BYTE   W96
// 015   ----------------------------------------
 BYTE   W96
// 016   ----------------------------------------
 BYTE   W96
// 017   ----------------------------------------
 BYTE   W96
// 018   ----------------------------------------
 BYTE   W96
// 019   ----------------------------------------
 BYTE   W96
// 020   ----------------------------------------
 BYTE   W96
// 021   ----------------------------------------
 BYTE   W96
// 022   ----------------------------------------
 BYTE   W96
// 023   ----------------------------------------
 BYTE   W96
// 024   ----------------------------------------
 BYTE   W96
// 025   ----------------------------------------
 BYTE   W96
// 026   ----------------------------------------
 BYTE   W96
// 027   ----------------------------------------
 BYTE   W96
// 028   ----------------------------------------
Label_2_01360580:
 BYTE   N60  Cn4  v100
 BYTE   W60
 BYTE   N06  Gn3
 BYTE   W06
 BYTE   Cn3  v060
 BYTE   W06
 BYTE   Gs3  v100
 BYTE   W06
 BYTE   Fn3  v060
 BYTE   W06
 BYTE   Cn4  v100
 BYTE   W06
 BYTE   Gs3  v060
 BYTE   W06
 BYTE   PEND 
// 029   ----------------------------------------
Label_2_01360597:
 BYTE   N60  Cs4  v100
 BYTE   W60
 BYTE   N06  En3
 BYTE   W06
 BYTE   Bn2  v060
 BYTE   W06
 BYTE   Gn3  v100
 BYTE   W06
 BYTE   En3  v060
 BYTE   W06
 BYTE   Cs4  v100
 BYTE   W06
 BYTE   Gn3  v060
 BYTE   W06
 BYTE   PEND 
 BYTE   PATT
  POIN2 Label_2_01360580
// 030   ----------------------------------------
Label_2_013605B3:
 BYTE   N60  Bn3  v100
 BYTE   W60
 BYTE   N06  En3
 BYTE   W06
 BYTE   Bn2  v060
 BYTE   W06
 BYTE   Gn3  v100
 BYTE   W06
 BYTE   En3  v060
 BYTE   W06
 BYTE   Bn3  v100
 BYTE   W06
 BYTE   Gn3  v060
 BYTE   W06
 BYTE   PEND 
// 031   ----------------------------------------
Label_2_013605CA:
 BYTE   MOD 0
 BYTE   CnM2
 BYTE   TIE  Cn4  v100
 BYTE   W24
 BYTE   MOD 0
 BYTE   FnM2
 BYTE   W12
 BYTE   AsM2
 BYTE   W12
 BYTE   DsM1
 BYTE   W12
 BYTE   GsM1
 BYTE   W12
 BYTE   Cs0
 BYTE   W12
 BYTE   Fs0
 BYTE   W12
 BYTE   PEND 
// 032   ----------------------------------------
 BYTE   W96
// 033   ----------------------------------------
 BYTE   EOT
 BYTE   W96
// 034   ----------------------------------------
 BYTE   MOD 0
 BYTE   CnM2
 BYTE   W96
// 035   ----------------------------------------
Label_2_013605E4:
 BYTE   N60  Fn3  v100
 BYTE   W60
 BYTE   N06  Cn3
 BYTE   W06
 BYTE   Fn2  v060
 BYTE   W06
 BYTE   Cs3  v100
 BYTE   W06
 BYTE   As2  v060
 BYTE   W06
 BYTE   Fn3  v100
 BYTE   W06
 BYTE   Cs3  v060
 BYTE   W06
 BYTE   PEND 
// 036   ----------------------------------------
Label_2_013605FB:
 BYTE   N60  Fs3  v100
 BYTE   W60
 BYTE   N06  An2
 BYTE   W06
 BYTE   Fs2  v060
 BYTE   W06
 BYTE   Cn3  v100
 BYTE   W06
 BYTE   An2  v060
 BYTE   W06
 BYTE   Fs3  v100
 BYTE   W06
 BYTE   Cs3  v060
 BYTE   W06
 BYTE   PEND 
 BYTE   PATT
  POIN2 Label_2_013605E4
// 037   ----------------------------------------
Label_2_01360617:
 BYTE   N60  En3  v100
 BYTE   W60
 BYTE   N06  An2
 BYTE   W06
 BYTE   En2  v060
 BYTE   W06
 BYTE   Cn3  v100
 BYTE   W06
 BYTE   An2  v060
 BYTE   W06
 BYTE   En3  v100
 BYTE   W06
 BYTE   Cn3  v060
 BYTE   W06
 BYTE   PEND 
// 038   ----------------------------------------
Label_2_0136062E:
 BYTE   MOD 0
 BYTE   CnM2
 BYTE   TIE  Fn3  v100
 BYTE   W24
 BYTE   MOD 0
 BYTE   FnM2
 BYTE   W12
 BYTE   AsM2
 BYTE   W12
 BYTE   DsM1
 BYTE   W12
 BYTE   GsM1
 BYTE   W12
 BYTE   Cs0
 BYTE   W12
 BYTE   Fs0
 BYTE   W12
 BYTE   PEND 
// 039   ----------------------------------------
 BYTE   W96
// 040   ----------------------------------------
 BYTE   EOT
 BYTE   W96
// 041   ----------------------------------------
 BYTE   MOD 0
 BYTE   CnM2
 BYTE   W96
// 042   ----------------------------------------
 BYTE   W96
// 043   ----------------------------------------
 BYTE   W96
// 044   ----------------------------------------
 BYTE   W96
// 045   ----------------------------------------
 BYTE   W96
// 046   ----------------------------------------
 BYTE   W96
// 047   ----------------------------------------
 BYTE   W96
// 048   ----------------------------------------
 BYTE   W96
// 049   ----------------------------------------
 BYTE   W96
// 050   ----------------------------------------
 BYTE   W96
// 051   ----------------------------------------
 BYTE   W96
// 052   ----------------------------------------
 BYTE   W96
// 053   ----------------------------------------
 BYTE   W96
// 054   ----------------------------------------
 BYTE   W96
// 055   ----------------------------------------
 BYTE   W96
// 056   ----------------------------------------
 BYTE   W96
// 057   ----------------------------------------
 BYTE   W96
// 058   ----------------------------------------
 BYTE   W96
// 059   ----------------------------------------
 BYTE   W96
// 060   ----------------------------------------
 BYTE   W96
// 061   ----------------------------------------
 BYTE   W96
// 062   ----------------------------------------
 BYTE   W96
// 063   ----------------------------------------
 BYTE   W96
// 064   ----------------------------------------
 BYTE   W96
// 065   ----------------------------------------
 BYTE   W96
// 066   ----------------------------------------
 BYTE   W96
// 067   ----------------------------------------
 BYTE   W96
// 068   ----------------------------------------
 BYTE   W96
// 069   ----------------------------------------
 BYTE   W96
// 070   ----------------------------------------
 BYTE   W96
// 071   ----------------------------------------
 BYTE   W96
// 072   ----------------------------------------
 BYTE   W96
// 073   ----------------------------------------
 BYTE   W96
// 074   ----------------------------------------
 BYTE   W96
// 075   ----------------------------------------
 BYTE   W96
// 076   ----------------------------------------
 BYTE   W96
// 077   ----------------------------------------
 BYTE   W96
// 078   ----------------------------------------
 BYTE   W96
// 079   ----------------------------------------
 BYTE   W96
// 080   ----------------------------------------
 BYTE   W96
 BYTE   PATT
  POIN2 Label_2_013604B1
 BYTE   PATT
  POIN2 Label_2_013604C1
// 081   ----------------------------------------
 BYTE   W08
 BYTE   EOT
 BYTE   Gn3  v079
 BYTE   W16
 BYTE   MOD 0
 BYTE   CnM2
 BYTE   N08  Fn3  v100
 BYTE   N08  Fn4
 BYTE   W08
 BYTE   En3
 BYTE   N08  En4
 BYTE   W08
 BYTE   Cn3
 BYTE   N08  Cn4
 BYTE   W08
 BYTE   Ds3
 BYTE   N08  Ds4
 BYTE   W08
 BYTE   As2
 BYTE   N08  As3
 BYTE   W08
 BYTE   Cn3
 BYTE   N08  Cn4
 BYTE   W08
 BYTE   Gs2
 BYTE   N08  Gs3
 BYTE   W08
 BYTE   Cs3
 BYTE   N08  Cs4
 BYTE   W08
 BYTE   Gn2
 BYTE   N08  Gn3
 BYTE   W08
 BYTE   PATT
  POIN2 Label_2_01360503
// 082   ----------------------------------------
 BYTE   W60
 BYTE   EOT
 BYTE   Bn2  v071
 BYTE   W12
 BYTE   MOD 0
 BYTE   CnM2
 BYTE   N08  Cn3  v100
 BYTE   N08  Cn4
 BYTE   W08
 BYTE   Ds3
 BYTE   N08  Ds4
 BYTE   W08
 BYTE   Fs3
 BYTE   N08  Fs4
 BYTE   W08
 BYTE   PATT
  POIN2 Label_2_0136052D
 BYTE   PATT
  POIN2 Label_2_01360543
// 083   ----------------------------------------
 BYTE   EOT
 BYTE   Bn3  v083
 BYTE   VOL   3*FF9BossBattleAReliableChair_mvl/mxv
 BYTE   W96
// 084   ----------------------------------------
 BYTE   MOD 0
 BYTE   CnM2
 BYTE   VOL   35*FF9BossBattleAReliableChair_mvl/mxv
 BYTE   W96
// 085   ----------------------------------------
 BYTE   W96
// 086   ----------------------------------------
 BYTE   W96
// 087   ----------------------------------------
 BYTE   W96
// 088   ----------------------------------------
 BYTE   W96
// 089   ----------------------------------------
 BYTE   W96
// 090   ----------------------------------------
 BYTE   W96
// 091   ----------------------------------------
 BYTE   W96
// 092   ----------------------------------------
 BYTE   W96
// 093   ----------------------------------------
 BYTE   W96
// 094   ----------------------------------------
 BYTE   W96
// 095   ----------------------------------------
 BYTE   W96
// 096   ----------------------------------------
 BYTE   W96
// 097   ----------------------------------------
 BYTE   W96
// 098   ----------------------------------------
 BYTE   W96
// 099   ----------------------------------------
 BYTE   W96
// 100   ----------------------------------------
 BYTE   W96
 BYTE   PATT
  POIN2 Label_2_01360580
 BYTE   PATT
  POIN2 Label_2_01360597
 BYTE   PATT
  POIN2 Label_2_01360580
 BYTE   PATT
  POIN2 Label_2_013605B3
 BYTE   PATT
  POIN2 Label_2_013605CA
// 101   ----------------------------------------
 BYTE   W96
// 102   ----------------------------------------
 BYTE   EOT
 BYTE   Cn4
 BYTE   W96
// 103   ----------------------------------------
 BYTE   MOD 0
 BYTE   CnM2
 BYTE   W96
 BYTE   PATT
  POIN2 Label_2_013605E4
 BYTE   PATT
  POIN2 Label_2_013605FB
 BYTE   PATT
  POIN2 Label_2_013605E4
 BYTE   PATT
  POIN2 Label_2_01360617
 BYTE   PATT
  POIN2 Label_2_0136062E
// 104   ----------------------------------------
 BYTE   W96
// 105   ----------------------------------------
 BYTE   EOT
 BYTE   Fn3
 BYTE   W96
// 106   ----------------------------------------
 BYTE   MOD 0
 BYTE   CnM2
 BYTE   W96
// 107   ----------------------------------------
 BYTE   W96
// 108   ----------------------------------------
 BYTE   W96
// 109   ----------------------------------------
 BYTE   W96
// 110   ----------------------------------------
 BYTE   W96
// 111   ----------------------------------------
 BYTE   W96
// 112   ----------------------------------------
 BYTE   W96
// 113   ----------------------------------------
 BYTE   W96
// 114   ----------------------------------------
 BYTE   W96
// 115   ----------------------------------------
 BYTE   W96
// 116   ----------------------------------------
 BYTE   W96
// 117   ----------------------------------------
 BYTE   W96
// 118   ----------------------------------------
 BYTE   W96
// 119   ----------------------------------------
 BYTE   W96
// 120   ----------------------------------------
 BYTE   W96
// 121   ----------------------------------------
 BYTE   W96
// 122   ----------------------------------------
 BYTE   W96
// 123   ----------------------------------------
 BYTE   W96
// 124   ----------------------------------------
 BYTE   W96
// 125   ----------------------------------------
 BYTE   W96
// 126   ----------------------------------------
 BYTE   W96
// 127   ----------------------------------------
 BYTE   W96
// 128   ----------------------------------------
 BYTE   W96
// 129   ----------------------------------------
 BYTE   W96
// 130   ----------------------------------------
 BYTE   W96
// 131   ----------------------------------------
 BYTE   W96
// 132   ----------------------------------------
 BYTE   W96
// 133   ----------------------------------------
 BYTE   W96
// 134   ----------------------------------------
 BYTE   W96
// 135   ----------------------------------------
 BYTE   W96
// 136   ----------------------------------------
 BYTE   W96
// 137   ----------------------------------------
 BYTE   W96
// 138   ----------------------------------------
 BYTE   W96
// 139   ----------------------------------------
 BYTE   W96
// 140   ----------------------------------------
 BYTE   W96
// 141   ----------------------------------------
 BYTE   W96
// 142   ----------------------------------------
 BYTE   W96
// 143   ----------------------------------------
 BYTE   W96
// 144   ----------------------------------------
 BYTE   W96
// 145   ----------------------------------------
 BYTE   W96
 BYTE   PATT
  POIN2 Label_2_013604B1
 BYTE   PATT
  POIN2 Label_2_013604C1
// 146   ----------------------------------------
 BYTE   W08
 BYTE   EOT
 BYTE   Gn3  v079
 BYTE   W16
 BYTE   MOD 0
 BYTE   CnM2
 BYTE   N08  Fn3  v100
 BYTE   N08  Fn4
 BYTE   W08
 BYTE   En3
 BYTE   N08  En4
 BYTE   W08
 BYTE   Cn3
 BYTE   N08  Cn4
 BYTE   W08
 BYTE   Ds3
 BYTE   N08  Ds4
 BYTE   W08
 BYTE   As2
 BYTE   N08  As3
 BYTE   W08
 BYTE   Cn3
 BYTE   N08  Cn4
 BYTE   W08
 BYTE   Gs2
 BYTE   N08  Gs3
 BYTE   W08
 BYTE   Cs3
 BYTE   N08  Cs4
 BYTE   W08
 BYTE   Gn2
 BYTE   N08  Gn3
 BYTE   W08
 BYTE   PATT
  POIN2 Label_2_01360503
// 147   ----------------------------------------
 BYTE   W60
 BYTE   EOT
 BYTE   Bn2  v071
 BYTE   W12
 BYTE   MOD 0
 BYTE   CnM2
 BYTE   N08  Cn3  v100
 BYTE   N08  Cn4
 BYTE   W08
 BYTE   Ds3
 BYTE   N08  Ds4
 BYTE   W08
 BYTE   Fs3
 BYTE   N08  Fs4
 BYTE   W08
// 148   ----------------------------------------
 BYTE   GoTo
  POIN2 Label_2_013604A2
 BYTE   FINE

//**************** Track 4 (Midi-Chn.3) ****************//

FF9BossBattleAReliableChair_004:
// 000   ----------------------------------------
 BYTE   KEYSH   FF9BossBattleAReliableChair_key+0
Label_3_013607A6:
 BYTE   VOICE   60
 BYTE   BENDR  64
 BYTE   PAN   c_v+32
 BYTE   VOL   35*FF9BossBattleAReliableChair_mvl/mxv
 BYTE   MODT 0
 BYTE   CnM2
 BYTE   LFOS 0
 BYTE   Gs1
 BYTE   W96
// 001   ----------------------------------------
 BYTE   W96
// 002   ----------------------------------------
 BYTE   W96
// 003   ----------------------------------------
 BYTE   W96
// 004   ----------------------------------------
 BYTE   W96
// 005   ----------------------------------------
 BYTE   W96
// 006   ----------------------------------------
 BYTE   W96
// 007   ----------------------------------------
 BYTE   W96
// 008   ----------------------------------------
Label_3_013607BA:
 BYTE   W48
 BYTE   N48  Cn3  v100
 BYTE   N48  Gs3
 BYTE   W48
 BYTE   PEND 
// 009   ----------------------------------------
Label_3_013607C2:
 BYTE   N48  Ds3  v100
 BYTE   N48  Fn3
 BYTE   N48  As3
 BYTE   W48
 BYTE   Fs3
 BYTE   N48  Gs3
 BYTE   N48  Cs4
 BYTE   W48
 BYTE   PEND 
// 010   ----------------------------------------
Label_3_013607D1:
 BYTE   TIE  Fn3  v100
 BYTE   TIE  Gn3
 BYTE   TIE  Cn4
 BYTE   W96
 BYTE   PEND 
// 011   ----------------------------------------
 BYTE   W72
 BYTE   EOT
 BYTE   Fn3  v067
 BYTE   Cn4
 BYTE   W24
// 012   ----------------------------------------
Label_3_013607E0:
 BYTE   N60  Cn4  v100
 BYTE   W60
 BYTE   N06  Gn3
 BYTE   W06
 BYTE   Cn3  v036
 BYTE   W06
 BYTE   Gs3  v100
 BYTE   W06
 BYTE   Fn3  v036
 BYTE   W06
 BYTE   Cn4  v100
 BYTE   W06
 BYTE   Gs3  v036
 BYTE   W06
 BYTE   PEND 
// 013   ----------------------------------------
Label_3_013607F7:
 BYTE   N60  Cs4  v100
 BYTE   W60
 BYTE   N06  En3
 BYTE   W06
 BYTE   Bn2  v036
 BYTE   W06
 BYTE   Gn3  v100
 BYTE   W06
 BYTE   En3  v036
 BYTE   W06
 BYTE   Cs4  v100
 BYTE   W06
 BYTE   Gn3  v036
 BYTE   W06
 BYTE   PEND 
 BYTE   PATT
  POIN2 Label_3_013607E0
// 014   ----------------------------------------
Label_3_01360813:
 BYTE   N60  Bn3  v100
 BYTE   W60
 BYTE   N06  En3
 BYTE   W06
 BYTE   Bn2  v036
 BYTE   W06
 BYTE   Gn3  v100
 BYTE   W06
 BYTE   En3  v036
 BYTE   W06
 BYTE   Bn3  v100
 BYTE   W06
 BYTE   Gn3  v036
 BYTE   W06
 BYTE   PEND 
// 015   ----------------------------------------
 BYTE   TIE  Cn4  v100
 BYTE   W96
// 016   ----------------------------------------
 BYTE   W96
// 017   ----------------------------------------
 BYTE   EOT
 BYTE   W96
// 018   ----------------------------------------
 BYTE   W96
// 019   ----------------------------------------
Label_3_01360832:
 BYTE   N60  Fn3  v100
 BYTE   W60
 BYTE   N06  Cn3
 BYTE   W06
 BYTE   Fn2  v036
 BYTE   W06
 BYTE   Cs3  v100
 BYTE   W06
 BYTE   As2  v036
 BYTE   W06
 BYTE   Fn3  v100
 BYTE   W06
 BYTE   Cs3  v036
 BYTE   W06
 BYTE   PEND 
// 020   ----------------------------------------
Label_3_01360849:
 BYTE   N60  Fs3  v100
 BYTE   W60
 BYTE   N06  An2
 BYTE   W06
 BYTE   Fs2  v036
 BYTE   W06
 BYTE   Cn3  v100
 BYTE   W06
 BYTE   An2  v036
 BYTE   W06
 BYTE   Fs3  v100
 BYTE   W06
 BYTE   Cs3  v036
 BYTE   W06
 BYTE   PEND 
 BYTE   PATT
  POIN2 Label_3_01360832
// 021   ----------------------------------------
Label_3_01360865:
 BYTE   N60  En3  v100
 BYTE   W60
 BYTE   N06  An2
 BYTE   W06
 BYTE   En2  v036
 BYTE   W06
 BYTE   Cn3  v100
 BYTE   W06
 BYTE   An2  v036
 BYTE   W06
 BYTE   En3  v100
 BYTE   W06
 BYTE   Cn3  v036
 BYTE   W06
 BYTE   PEND 
// 022   ----------------------------------------
 BYTE   TIE  Fn3  v100
 BYTE   W96
// 023   ----------------------------------------
 BYTE   W96
// 024   ----------------------------------------
 BYTE   EOT
 BYTE   W96
// 025   ----------------------------------------
 BYTE   W96
// 026   ----------------------------------------
Label_3_01360884:
 BYTE   N60  Cn4  v100
 BYTE   W60
 BYTE   N06  Gn3
 BYTE   W06
 BYTE   Cn3  v036
 BYTE   W06
 BYTE   Gs3  v100
 BYTE   W06
 BYTE   Fn3  v036
 BYTE   W06
 BYTE   Cn4  v100
 BYTE   W06
 BYTE   Gs3  v036
 BYTE   W06
 BYTE   PEND 
 BYTE   PATT
  POIN2 Label_3_013607F7
 BYTE   PATT
  POIN2 Label_3_013607E0
 BYTE   PATT
  POIN2 Label_3_01360813
// 027   ----------------------------------------
 BYTE   TIE  Cn4  v100
 BYTE   W96
// 028   ----------------------------------------
 BYTE   W96
// 029   ----------------------------------------
 BYTE   EOT
 BYTE   W96
// 030   ----------------------------------------
 BYTE   W96
 BYTE   PATT
  POIN2 Label_3_01360832
 BYTE   PATT
  POIN2 Label_3_01360849
 BYTE   PATT
  POIN2 Label_3_01360832
 BYTE   PATT
  POIN2 Label_3_01360865
// 031   ----------------------------------------
 BYTE   TIE  Fn3  v100
 BYTE   W96
// 032   ----------------------------------------
 BYTE   W96
// 033   ----------------------------------------
 BYTE   EOT
 BYTE   W96
// 034   ----------------------------------------
 BYTE   W96
// 035   ----------------------------------------
 BYTE   W96
// 036   ----------------------------------------
 BYTE   W96
// 037   ----------------------------------------
 BYTE   W96
// 038   ----------------------------------------
 BYTE   W96
// 039   ----------------------------------------
 BYTE   W96
// 040   ----------------------------------------
 BYTE   W96
// 041   ----------------------------------------
 BYTE   W96
// 042   ----------------------------------------
 BYTE   W96
// 043   ----------------------------------------
Label_3_013608D6:
 BYTE   W72
 BYTE   N01  Fn2  v100
 BYTE   N01  Gn2
 BYTE   N01  Cn3
 BYTE   W08
 BYTE   Fn2
 BYTE   N01  Gn2
 BYTE   N01  Cn3
 BYTE   W08
 BYTE   Fn2
 BYTE   N01  Gn2
 BYTE   N01  Cn3
 BYTE   W08
 BYTE   PEND 
// 044   ----------------------------------------
Label_3_013608EC:
 BYTE   TIE  Ds3  v100
 BYTE   TIE  Fn3
 BYTE   TIE  As3
 BYTE   W96
 BYTE   PEND 
// 045   ----------------------------------------
 BYTE   W60
 BYTE   EOT
 BYTE   Ds3  v065
 BYTE   As3
 BYTE   W12
 BYTE   N01  Fn2
 BYTE   N01  Gn2
 BYTE   N01  Cs3
 BYTE   W08
 BYTE   Fn2
 BYTE   N01  Gn2
 BYTE   N01  Cs3
 BYTE   W08
 BYTE   Fn2
 BYTE   N01  Gn2
 BYTE   N01  Cs3
 BYTE   W08
// 046   ----------------------------------------
Label_3_0136090E:
 BYTE   N01  Cs3  v100
 BYTE   N01  Fs3
 BYTE   N01  Gs3
 BYTE   W08
 BYTE   Cs3
 BYTE   N01  Fs3
 BYTE   N01  Gs3
 BYTE   W08
 BYTE   Cs3
 BYTE   N01  Fs3
 BYTE   N01  Gs3
 BYTE   W08
 BYTE   Fn3
 BYTE   N01  Gn3
 BYTE   N01  Cs4
 BYTE   W08
 BYTE   Fn3
 BYTE   N01  Gn3
 BYTE   N01  Cs4
 BYTE   W08
 BYTE   Fn3
 BYTE   N01  Gn3
 BYTE   N01  Cs4
 BYTE   W08
 BYTE   N24  Fn3
 BYTE   N24  Gn3
 BYTE   N24  Cs4
 BYTE   W48
 BYTE   PEND 
// 047   ----------------------------------------
Label_3_0136093C:
 BYTE   W24
 BYTE   N24  Gs2  v100
 BYTE   N24  Gs3
 BYTE   W48
 BYTE   Fs2
 BYTE   N24  Fs3
 BYTE   W24
 BYTE   PEND 
// 048   ----------------------------------------
Label_3_01360948:
 BYTE   W24
 BYTE   N24  En2  v100
 BYTE   N24  En3
 BYTE   W48
 BYTE   Dn2
 BYTE   N24  Dn3
 BYTE   W24
 BYTE   PEND 
// 049   ----------------------------------------
Label_3_01360954:
 BYTE   W24
 BYTE   N24  Cn2  v100
 BYTE   N24  Cn3
 BYTE   W48
 BYTE   An1
 BYTE   N24  An2
 BYTE   W24
 BYTE   PEND 
// 050   ----------------------------------------
Label_3_01360960:
 BYTE   W24
 BYTE   N72  Fs1  v100
 BYTE   N72  Fs2
 BYTE   W72
 BYTE   PEND 
// 051   ----------------------------------------
 BYTE   W96
// 052   ----------------------------------------
 BYTE   W96
// 053   ----------------------------------------
 BYTE   W96
// 054   ----------------------------------------
 BYTE   W96
// 055   ----------------------------------------
 BYTE   W96
// 056   ----------------------------------------
 BYTE   W96
// 057   ----------------------------------------
 BYTE   W96
// 058   ----------------------------------------
 BYTE   W96
// 059   ----------------------------------------
 BYTE   W96
// 060   ----------------------------------------
 BYTE   W96
// 061   ----------------------------------------
 BYTE   W96
// 062   ----------------------------------------
 BYTE   W96
 BYTE   PATT
  POIN2 Label_3_013608D6
 BYTE   PATT
  POIN2 Label_3_013608EC
// 063   ----------------------------------------
 BYTE   W60
 BYTE   EOT
 BYTE   Ds3  v065
 BYTE   As3
 BYTE   W12
 BYTE   N01  Fn2  v100
 BYTE   N01  Gn2
 BYTE   N01  Cs3
 BYTE   W08
 BYTE   Fn2
 BYTE   N01  Gn2
 BYTE   N01  Cs3
 BYTE   W08
 BYTE   Fn2
 BYTE   N01  Gn2
 BYTE   N01  Cs3
 BYTE   W08
 BYTE   PATT
  POIN2 Label_3_0136090E
 BYTE   PATT
  POIN2 Label_3_0136093C
 BYTE   PATT
  POIN2 Label_3_01360948
 BYTE   PATT
  POIN2 Label_3_01360954
 BYTE   PATT
  POIN2 Label_3_01360960
// 064   ----------------------------------------
 BYTE   W96
// 065   ----------------------------------------
 BYTE   W96
// 066   ----------------------------------------
 BYTE   W96
// 067   ----------------------------------------
 BYTE   W96
// 068   ----------------------------------------
 BYTE   W96
// 069   ----------------------------------------
 BYTE   W96
// 070   ----------------------------------------
 BYTE   W96
// 071   ----------------------------------------
 BYTE   W96
 BYTE   PATT
  POIN2 Label_3_013607BA
 BYTE   PATT
  POIN2 Label_3_013607C2
 BYTE   PATT
  POIN2 Label_3_013607D1
// 072   ----------------------------------------
 BYTE   W72
 BYTE   EOT
 BYTE   Fn3  v067
 BYTE   Cn4
 BYTE   W24
 BYTE   PATT
  POIN2 Label_3_013607E0
 BYTE   PATT
  POIN2 Label_3_013607F7
 BYTE   PATT
  POIN2 Label_3_013607E0
 BYTE   PATT
  POIN2 Label_3_01360813
// 073   ----------------------------------------
 BYTE   TIE  Cn4  v100
 BYTE   W96
// 074   ----------------------------------------
 BYTE   W96
// 075   ----------------------------------------
 BYTE   EOT
 BYTE   W96
// 076   ----------------------------------------
 BYTE   W96
 BYTE   PATT
  POIN2 Label_3_01360832
 BYTE   PATT
  POIN2 Label_3_01360849
 BYTE   PATT
  POIN2 Label_3_01360832
 BYTE   PATT
  POIN2 Label_3_01360865
// 077   ----------------------------------------
 BYTE   TIE  Fn3  v100
 BYTE   W96
// 078   ----------------------------------------
 BYTE   W96
// 079   ----------------------------------------
 BYTE   EOT
 BYTE   W96
// 080   ----------------------------------------
 BYTE   W96
 BYTE   PATT
  POIN2 Label_3_01360884
 BYTE   PATT
  POIN2 Label_3_013607F7
 BYTE   PATT
  POIN2 Label_3_013607E0
 BYTE   PATT
  POIN2 Label_3_01360813
// 081   ----------------------------------------
 BYTE   TIE  Cn4  v100
 BYTE   W96
// 082   ----------------------------------------
 BYTE   W96
// 083   ----------------------------------------
 BYTE   EOT
 BYTE   W96
// 084   ----------------------------------------
 BYTE   W96
 BYTE   PATT
  POIN2 Label_3_01360832
 BYTE   PATT
  POIN2 Label_3_01360849
 BYTE   PATT
  POIN2 Label_3_01360832
 BYTE   PATT
  POIN2 Label_3_01360865
// 085   ----------------------------------------
 BYTE   TIE  Fn3  v100
 BYTE   W96
// 086   ----------------------------------------
 BYTE   W96
// 087   ----------------------------------------
 BYTE   EOT
 BYTE   W96
// 088   ----------------------------------------
 BYTE   W96
// 089   ----------------------------------------
 BYTE   W96
// 090   ----------------------------------------
 BYTE   W96
// 091   ----------------------------------------
 BYTE   W96
// 092   ----------------------------------------
 BYTE   W96
// 093   ----------------------------------------
 BYTE   W96
// 094   ----------------------------------------
 BYTE   W96
// 095   ----------------------------------------
 BYTE   W96
// 096   ----------------------------------------
 BYTE   W96
 BYTE   PATT
  POIN2 Label_3_013608D6
 BYTE   PATT
  POIN2 Label_3_013608EC
// 097   ----------------------------------------
 BYTE   W60
 BYTE   EOT
 BYTE   Ds3  v065
 BYTE   As3
 BYTE   W12
 BYTE   N01  Fn2  v100
 BYTE   N01  Gn2
 BYTE   N01  Cs3
 BYTE   W08
 BYTE   Fn2
 BYTE   N01  Gn2
 BYTE   N01  Cs3
 BYTE   W08
 BYTE   Fn2
 BYTE   N01  Gn2
 BYTE   N01  Cs3
 BYTE   W08
 BYTE   PATT
  POIN2 Label_3_0136090E
 BYTE   PATT
  POIN2 Label_3_0136093C
 BYTE   PATT
  POIN2 Label_3_01360948
 BYTE   PATT
  POIN2 Label_3_01360954
 BYTE   PATT
  POIN2 Label_3_01360960
// 098   ----------------------------------------
 BYTE   W96
// 099   ----------------------------------------
 BYTE   W96
// 100   ----------------------------------------
 BYTE   W96
// 101   ----------------------------------------
 BYTE   W96
// 102   ----------------------------------------
 BYTE   W96
// 103   ----------------------------------------
 BYTE   W96
// 104   ----------------------------------------
 BYTE   W96
// 105   ----------------------------------------
 BYTE   W96
// 106   ----------------------------------------
 BYTE   W96
// 107   ----------------------------------------
 BYTE   W96
// 108   ----------------------------------------
 BYTE   W96
// 109   ----------------------------------------
 BYTE   W96
 BYTE   PATT
  POIN2 Label_3_013608D6
 BYTE   PATT
  POIN2 Label_3_013608EC
// 110   ----------------------------------------
 BYTE   W60
 BYTE   EOT
 BYTE   Ds3  v065
 BYTE   As3
 BYTE   W12
 BYTE   N01  Fn2  v100
 BYTE   N01  Gn2
 BYTE   N01  Cs3
 BYTE   W08
 BYTE   Fn2
 BYTE   N01  Gn2
 BYTE   N01  Cs3
 BYTE   W08
 BYTE   Fn2
 BYTE   N01  Gn2
 BYTE   N01  Cs3
 BYTE   W08
 BYTE   PATT
  POIN2 Label_3_0136090E
 BYTE   PATT
  POIN2 Label_3_0136093C
 BYTE   PATT
  POIN2 Label_3_01360948
 BYTE   PATT
  POIN2 Label_3_01360954
 BYTE   PATT
  POIN2 Label_3_01360960
// 111   ----------------------------------------
 BYTE   W96
// 112   ----------------------------------------
 BYTE   W96
// 113   ----------------------------------------
 BYTE   W96
// 114   ----------------------------------------
 BYTE   W96
// 115   ----------------------------------------
 BYTE   W96
// 116   ----------------------------------------
 BYTE   W96
// 117   ----------------------------------------
 BYTE   W96
// 118   ----------------------------------------
 BYTE   W96
// 119   ----------------------------------------
 BYTE   GoTo
  POIN2 Label_3_013607A6
 BYTE   FINE

//**************** Track 5 (Midi-Chn.4) ****************//

FF9BossBattleAReliableChair_005:
// 000   ----------------------------------------
 BYTE   KEYSH   FF9BossBattleAReliableChair_key+0
Label_4_01360ADE:
 BYTE   VOICE   48
 BYTE   BENDR  64
 BYTE   PAN   c_v-32
 BYTE   VOL   45*FF9BossBattleAReliableChair_mvl/mxv
 BYTE   MODT 0
 BYTE   CnM2
 BYTE   LFOS 0
 BYTE   Gs1
 BYTE   W96
// 001   ----------------------------------------
 BYTE   W96
// 002   ----------------------------------------
 BYTE   W96
// 003   ----------------------------------------
 BYTE   W96
// 004   ----------------------------------------
 BYTE   W96
// 005   ----------------------------------------
 BYTE   W96
// 006   ----------------------------------------
 BYTE   W96
// 007   ----------------------------------------
 BYTE   W96
// 008   ----------------------------------------
 BYTE   W96
// 009   ----------------------------------------
 BYTE   W96
// 010   ----------------------------------------
 BYTE   W96
// 011   ----------------------------------------
 BYTE   W96
// 012   ----------------------------------------
Label_4_01360AF6:
 BYTE   N60  Cn4  v100
 BYTE   N60  Cn5
 BYTE   W60
 BYTE   N06  Gn3
 BYTE   N06  Gn4
 BYTE   W06
 BYTE   Cn3  v060
 BYTE   N06  Cn4
 BYTE   W06
 BYTE   Gs3  v100
 BYTE   N06  Gs4
 BYTE   W06
 BYTE   Fn3  v060
 BYTE   N06  Fn4
 BYTE   W06
 BYTE   Cn4  v100
 BYTE   N06  Cn5
 BYTE   W06
 BYTE   Gs3  v060
 BYTE   N06  Gs4
 BYTE   W06
 BYTE   PEND 
// 013   ----------------------------------------
Label_4_01360B1B:
 BYTE   N60  Cs4  v100
 BYTE   N60  Cs5
 BYTE   W60
 BYTE   N06  En3
 BYTE   N06  En4
 BYTE   W06
 BYTE   Bn2  v060
 BYTE   N06  Bn3
 BYTE   W06
 BYTE   Gn3  v100
 BYTE   N06  Gn4
 BYTE   W06
 BYTE   En3  v060
 BYTE   N06  En4
 BYTE   W06
 BYTE   Cs4  v100
 BYTE   N06  Cs5
 BYTE   W06
 BYTE   Gn3  v060
 BYTE   N06  Gn4
 BYTE   W06
 BYTE   PEND 
 BYTE   PATT
  POIN2 Label_4_01360AF6
// 014   ----------------------------------------
Label_4_01360B45:
 BYTE   N60  Bn3  v100
 BYTE   N60  Bn4
 BYTE   W60
 BYTE   N06  En3
 BYTE   N06  En4
 BYTE   W06
 BYTE   Bn2  v060
 BYTE   N06  Bn3
 BYTE   W06
 BYTE   Gn3  v100
 BYTE   N06  Gn4
 BYTE   W06
 BYTE   En3  v060
 BYTE   N06  En4
 BYTE   W06
 BYTE   Bn3  v100
 BYTE   N06  Bn4
 BYTE   W06
 BYTE   Gn3  v060
 BYTE   N06  Gn4
 BYTE   W06
 BYTE   PEND 
// 015   ----------------------------------------
Label_4_01360B6A:
 BYTE   TIE  Cn4  v100
 BYTE   TIE  Cn5
 BYTE   W96
 BYTE   PEND 
// 016   ----------------------------------------
 BYTE   W96
// 017   ----------------------------------------
 BYTE   EOT
 BYTE   Cn4  v084
 BYTE   W96
// 018   ----------------------------------------
 BYTE   W96
// 019   ----------------------------------------
Label_4_01360B77:
 BYTE   N60  Fn3  v100
 BYTE   N60  Fn4
 BYTE   W60
 BYTE   N06  Cn3
 BYTE   N06  Cn4
 BYTE   W06
 BYTE   Fn2  v060
 BYTE   N06  Fn3
 BYTE   W06
 BYTE   Cs3  v100
 BYTE   N06  Cs4
 BYTE   W06
 BYTE   As2  v060
 BYTE   N06  As3
 BYTE   W06
 BYTE   Fn3  v100
 BYTE   N06  Fn4
 BYTE   W06
 BYTE   Cs3  v060
 BYTE   N06  Cs4
 BYTE   W06
 BYTE   PEND 
// 020   ----------------------------------------
Label_4_01360B9C:
 BYTE   N60  Fs3  v100
 BYTE   N60  Fs4
 BYTE   W60
 BYTE   N06  An2
 BYTE   N06  An3
 BYTE   W06
 BYTE   Fs2  v060
 BYTE   N06  Fs3
 BYTE   W06
 BYTE   Cn3  v100
 BYTE   N06  Cn4
 BYTE   W06
 BYTE   An2  v060
 BYTE   N06  An3
 BYTE   W06
 BYTE   Fs3  v100
 BYTE   N06  Fs4
 BYTE   W06
 BYTE   Cs3  v060
 BYTE   N06  Cs4
 BYTE   W06
 BYTE   PEND 
 BYTE   PATT
  POIN2 Label_4_01360B77
// 021   ----------------------------------------
Label_4_01360BC6:
 BYTE   N60  En3  v100
 BYTE   N60  En4
 BYTE   W60
 BYTE   N06  An2
 BYTE   N06  An3
 BYTE   W06
 BYTE   En2  v060
 BYTE   N06  En3
 BYTE   W06
 BYTE   Cn3  v100
 BYTE   N06  Cn4
 BYTE   W06
 BYTE   An2  v060
 BYTE   N06  An3
 BYTE   W06
 BYTE   En3  v100
 BYTE   N06  En4
 BYTE   W06
 BYTE   Cn3  v060
 BYTE   N06  Cn4
 BYTE   W06
 BYTE   PEND 
// 022   ----------------------------------------
Label_4_01360BEB:
 BYTE   TIE  Fn3  v100
 BYTE   TIE  Fn4
 BYTE   W96
 BYTE   PEND 
// 023   ----------------------------------------
 BYTE   W96
// 024   ----------------------------------------
 BYTE   EOT
 BYTE   Fn3  v077
 BYTE   W96
// 025   ----------------------------------------
 BYTE   W96
// 026   ----------------------------------------
Label_4_01360BF8:
 BYTE   N60  Cn4  v100
 BYTE   N60  Cn5
 BYTE   W60
 BYTE   N06  Gn3
 BYTE   N06  Gn4
 BYTE   W06
 BYTE   Cn3  v060
 BYTE   N06  Cn4
 BYTE   W06
 BYTE   Gs3  v100
 BYTE   N06  Gs4
 BYTE   W06
 BYTE   Fn3  v060
 BYTE   N06  Fn4
 BYTE   W06
 BYTE   Cn4  v100
 BYTE   N06  Cn5
 BYTE   W06
 BYTE   Gs3  v060
 BYTE   N06  Gs4
 BYTE   W06
 BYTE   PEND 
 BYTE   PATT
  POIN2 Label_4_01360B1B
 BYTE   PATT
  POIN2 Label_4_01360AF6
 BYTE   PATT
  POIN2 Label_4_01360B45
 BYTE   PATT
  POIN2 Label_4_01360B6A
// 027   ----------------------------------------
 BYTE   W96
// 028   ----------------------------------------
 BYTE   EOT
 BYTE   Cn4  v084
 BYTE   W96
// 029   ----------------------------------------
 BYTE   W96
 BYTE   PATT
  POIN2 Label_4_01360B77
 BYTE   PATT
  POIN2 Label_4_01360B9C
 BYTE   PATT
  POIN2 Label_4_01360B77
 BYTE   PATT
  POIN2 Label_4_01360BC6
 BYTE   PATT
  POIN2 Label_4_01360BEB
// 030   ----------------------------------------
 BYTE   W96
// 031   ----------------------------------------
 BYTE   EOT
 BYTE   Fn3  v077
 BYTE   W96
// 032   ----------------------------------------
 BYTE   W96
// 033   ----------------------------------------
 BYTE   W96
// 034   ----------------------------------------
 BYTE   W96
// 035   ----------------------------------------
 BYTE   W96
// 036   ----------------------------------------
 BYTE   W96
// 037   ----------------------------------------
 BYTE   W96
// 038   ----------------------------------------
 BYTE   W96
// 039   ----------------------------------------
 BYTE   W96
// 040   ----------------------------------------
Label_4_01360C5D:
 BYTE   W72
 BYTE   N04  Cn4  v100
 BYTE   N04  Gn4
 BYTE   N04  Cn5
 BYTE   W08
 BYTE   Cn4
 BYTE   N04  Gn4
 BYTE   N04  Cn5
 BYTE   W08
 BYTE   Cn4
 BYTE   N04  Gn4
 BYTE   N04  Cn5
 BYTE   W08
 BYTE   PEND 
// 041   ----------------------------------------
Label_4_01360C73:
 BYTE   N12  Cn4  v100
 BYTE   N12  Gn4
 BYTE   N12  Cn5
 BYTE   W48
 BYTE   Cn4
 BYTE   N12  Gn4
 BYTE   N12  Cn5
 BYTE   W48
 BYTE   PEND 
// 042   ----------------------------------------
Label_4_01360C82:
 BYTE   N12  Cn4  v100
 BYTE   N12  Gn4
 BYTE   N12  Cn5
 BYTE   W48
 BYTE   N24  Cn4
 BYTE   N24  Gn4
 BYTE   N24  Cn5
 BYTE   W24
 BYTE   TIE  Cs4
 BYTE   TIE  Gs4
 BYTE   TIE  Cs5
 BYTE   W24
 BYTE   PEND 
// 043   ----------------------------------------
 BYTE   W96
// 044   ----------------------------------------
 BYTE   W72
 BYTE   EOT
 BYTE   Cs4  v080
 BYTE   Cs5
 BYTE   N04  Dn4
 BYTE   N04  As4
 BYTE   N04  Dn5
 BYTE   W08
 BYTE   Dn4
 BYTE   N04  As4
 BYTE   N04  Dn5
 BYTE   W08
 BYTE   Dn4
 BYTE   N04  As4
 BYTE   N04  Dn5
 BYTE   W08
// 045   ----------------------------------------
Label_4_01360CB2:
 BYTE   N12  Dn4  v100
 BYTE   N12  As4
 BYTE   N12  Dn5
 BYTE   W48
 BYTE   Dn4
 BYTE   N12  As4
 BYTE   N12  Dn5
 BYTE   W48
 BYTE   PEND 
// 046   ----------------------------------------
Label_4_01360CC1:
 BYTE   N12  Dn4  v100
 BYTE   N12  As4
 BYTE   N12  Dn5
 BYTE   W48
 BYTE   N24  Dn4
 BYTE   N24  As4
 BYTE   N24  Dn5
 BYTE   W24
 BYTE   TIE  En4
 BYTE   TIE  Cn5
 BYTE   TIE  En5
 BYTE   W24
 BYTE   PEND 
// 047   ----------------------------------------
 BYTE   W96
// 048   ----------------------------------------
 BYTE   W96
// 049   ----------------------------------------
 BYTE   EOT
 BYTE   En4  v084
 BYTE   En5
 BYTE   W96
// 050   ----------------------------------------
 BYTE   W96
// 051   ----------------------------------------
 BYTE   W96
// 052   ----------------------------------------
 BYTE   PAN   c_v+0
 BYTE   W96
// 053   ----------------------------------------
Label_4_01360CE4:
 BYTE   N12  Fn4  v100
 BYTE   W12
 BYTE   Cs4
 BYTE   W12
 BYTE   Ds4
 BYTE   W12
 BYTE   Bn3
 BYTE   W12
 BYTE   Cs4
 BYTE   W12
 BYTE   An3
 BYTE   W12
 BYTE   N06  Gn3
 BYTE   W06
 BYTE   An3
 BYTE   W06
 BYTE   Bn3
 BYTE   W06
 BYTE   Cs4
 BYTE   W06
 BYTE   PEND 
// 054   ----------------------------------------
Label_4_01360CFC:
 BYTE   N12  Fn4  v100
 BYTE   W12
 BYTE   Cs4
 BYTE   W12
 BYTE   Ds4
 BYTE   W12
 BYTE   Bn3
 BYTE   W12
 BYTE   Cs4
 BYTE   W12
 BYTE   An3
 BYTE   W12
 BYTE   Bn3
 BYTE   W12
 BYTE   Gn3
 BYTE   W12
 BYTE   PEND 
 BYTE   PATT
  POIN2 Label_4_01360CE4
 BYTE   PATT
  POIN2 Label_4_01360CFC
 BYTE   PATT
  POIN2 Label_4_01360CE4
 BYTE   PATT
  POIN2 Label_4_01360CFC
 BYTE   PATT
  POIN2 Label_4_01360CE4
 BYTE   PATT
  POIN2 Label_4_01360CFC
// 055   ----------------------------------------
Label_4_01360D2D:
 BYTE   PAN   c_v-32
 BYTE   N12  Cn4  v100
 BYTE   N12  Gn4
 BYTE   N12  Cn5
 BYTE   W48
 BYTE   Cn4
 BYTE   N12  Gn4
 BYTE   N12  Cn5
 BYTE   W48
 BYTE   PEND 
 BYTE   PATT
  POIN2 Label_4_01360C82
// 056   ----------------------------------------
 BYTE   W96
// 057   ----------------------------------------
 BYTE   W72
 BYTE   EOT
 BYTE   Cs4  v080
 BYTE   Cs5
 BYTE   N04  Dn4  v100
 BYTE   N04  As4
 BYTE   N04  Dn5
 BYTE   W08
 BYTE   Dn4
 BYTE   N04  As4
 BYTE   N04  Dn5
 BYTE   W08
 BYTE   Dn4
 BYTE   N04  As4
 BYTE   N04  Dn5
 BYTE   W08
 BYTE   PATT
  POIN2 Label_4_01360CB2
 BYTE   PATT
  POIN2 Label_4_01360CC1
// 058   ----------------------------------------
 BYTE   W96
// 059   ----------------------------------------
 BYTE   W96
// 060   ----------------------------------------
 BYTE   EOT
 BYTE   En4  v084
 BYTE   En5
 BYTE   W96
// 061   ----------------------------------------
 BYTE   W96
// 062   ----------------------------------------
 BYTE   W96
// 063   ----------------------------------------
 BYTE   W96
// 064   ----------------------------------------
 BYTE   W96
// 065   ----------------------------------------
 BYTE   W96
// 066   ----------------------------------------
 BYTE   W96
// 067   ----------------------------------------
 BYTE   W96
// 068   ----------------------------------------
 BYTE   W96
// 069   ----------------------------------------
 BYTE   W96
// 070   ----------------------------------------
 BYTE   W96
// 071   ----------------------------------------
 BYTE   W96
 BYTE   PATT
  POIN2 Label_4_01360AF6
 BYTE   PATT
  POIN2 Label_4_01360B1B
 BYTE   PATT
  POIN2 Label_4_01360AF6
 BYTE   PATT
  POIN2 Label_4_01360B45
 BYTE   PATT
  POIN2 Label_4_01360B6A
// 072   ----------------------------------------
 BYTE   W96
// 073   ----------------------------------------
 BYTE   EOT
 BYTE   Cn4  v084
 BYTE   W96
// 074   ----------------------------------------
 BYTE   W96
 BYTE   PATT
  POIN2 Label_4_01360B77
 BYTE   PATT
  POIN2 Label_4_01360B9C
 BYTE   PATT
  POIN2 Label_4_01360B77
 BYTE   PATT
  POIN2 Label_4_01360BC6
 BYTE   PATT
  POIN2 Label_4_01360BEB
// 075   ----------------------------------------
 BYTE   W96
// 076   ----------------------------------------
 BYTE   EOT
 BYTE   Fn3  v077
 BYTE   W96
// 077   ----------------------------------------
 BYTE   W96
 BYTE   PATT
  POIN2 Label_4_01360BF8
 BYTE   PATT
  POIN2 Label_4_01360B1B
 BYTE   PATT
  POIN2 Label_4_01360AF6
 BYTE   PATT
  POIN2 Label_4_01360B45
 BYTE   PATT
  POIN2 Label_4_01360B6A
// 078   ----------------------------------------
 BYTE   W96
// 079   ----------------------------------------
 BYTE   EOT
 BYTE   Cn4  v084
 BYTE   W96
// 080   ----------------------------------------
 BYTE   W96
 BYTE   PATT
  POIN2 Label_4_01360B77
 BYTE   PATT
  POIN2 Label_4_01360B9C
 BYTE   PATT
  POIN2 Label_4_01360B77
 BYTE   PATT
  POIN2 Label_4_01360BC6
 BYTE   PATT
  POIN2 Label_4_01360BEB
// 081   ----------------------------------------
 BYTE   W96
// 082   ----------------------------------------
 BYTE   EOT
 BYTE   Fn3  v077
 BYTE   W96
// 083   ----------------------------------------
 BYTE   W96
// 084   ----------------------------------------
 BYTE   W96
// 085   ----------------------------------------
 BYTE   W96
// 086   ----------------------------------------
 BYTE   W96
// 087   ----------------------------------------
 BYTE   W96
// 088   ----------------------------------------
 BYTE   W96
// 089   ----------------------------------------
 BYTE   W96
// 090   ----------------------------------------
 BYTE   W96
 BYTE   PATT
  POIN2 Label_4_01360C5D
 BYTE   PATT
  POIN2 Label_4_01360C73
 BYTE   PATT
  POIN2 Label_4_01360C82
// 091   ----------------------------------------
 BYTE   W96
// 092   ----------------------------------------
 BYTE   W72
 BYTE   EOT
 BYTE   Cs4  v080
 BYTE   Cs5
 BYTE   N04  Dn4  v100
 BYTE   N04  As4
 BYTE   N04  Dn5
 BYTE   W08
 BYTE   Dn4
 BYTE   N04  As4
 BYTE   N04  Dn5
 BYTE   W08
 BYTE   Dn4
 BYTE   N04  As4
 BYTE   N04  Dn5
 BYTE   W08
 BYTE   PATT
  POIN2 Label_4_01360CB2
 BYTE   PATT
  POIN2 Label_4_01360CC1
// 093   ----------------------------------------
 BYTE   W96
// 094   ----------------------------------------
 BYTE   W96
// 095   ----------------------------------------
 BYTE   EOT
 BYTE   En4  v084
 BYTE   En5
 BYTE   W96
// 096   ----------------------------------------
 BYTE   W96
// 097   ----------------------------------------
 BYTE   W96
// 098   ----------------------------------------
 BYTE   PAN   c_v+0
 BYTE   W96
 BYTE   PATT
  POIN2 Label_4_01360CE4
 BYTE   PATT
  POIN2 Label_4_01360CFC
 BYTE   PATT
  POIN2 Label_4_01360CE4
 BYTE   PATT
  POIN2 Label_4_01360CFC
 BYTE   PATT
  POIN2 Label_4_01360CE4
 BYTE   PATT
  POIN2 Label_4_01360CFC
 BYTE   PATT
  POIN2 Label_4_01360CE4
 BYTE   PATT
  POIN2 Label_4_01360CFC
 BYTE   PATT
  POIN2 Label_4_01360D2D
 BYTE   PATT
  POIN2 Label_4_01360C82
// 099   ----------------------------------------
 BYTE   W96
// 100   ----------------------------------------
 BYTE   W72
 BYTE   EOT
 BYTE   Cs4  v080
 BYTE   Cs5
 BYTE   N04  Dn4  v100
 BYTE   N04  As4
 BYTE   N04  Dn5
 BYTE   W08
 BYTE   Dn4
 BYTE   N04  As4
 BYTE   N04  Dn5
 BYTE   W08
 BYTE   Dn4
 BYTE   N04  As4
 BYTE   N04  Dn5
 BYTE   W08
 BYTE   PATT
  POIN2 Label_4_01360CB2
 BYTE   PATT
  POIN2 Label_4_01360CC1
// 101   ----------------------------------------
 BYTE   W96
// 102   ----------------------------------------
 BYTE   W96
// 103   ----------------------------------------
 BYTE   EOT
 BYTE   En4  v084
 BYTE   En5
 BYTE   W96
// 104   ----------------------------------------
 BYTE   W96
// 105   ----------------------------------------
 BYTE   W96
// 106   ----------------------------------------
 BYTE   W96
// 107   ----------------------------------------
 BYTE   W96
// 108   ----------------------------------------
 BYTE   W96
// 109   ----------------------------------------
 BYTE   W96
// 110   ----------------------------------------
 BYTE   W96
// 111   ----------------------------------------
 BYTE   GoTo
  POIN2 Label_4_01360ADE
 BYTE   FINE

//**************** Track 6 (Midi-Chn.5) ****************//

FF9BossBattleAReliableChair_006:
// 000   ----------------------------------------
 BYTE   KEYSH   FF9BossBattleAReliableChair_key+0
Label_5_01360EAA:
 BYTE   VOICE   56
 BYTE   BENDR  64
 BYTE   PAN   c_v-24
 BYTE   VOL   40*FF9BossBattleAReliableChair_mvl/mxv
 BYTE   MODT 0
 BYTE   CnM2
 BYTE   LFOS 0
 BYTE   Gs1
 BYTE   W96
// 001   ----------------------------------------
 BYTE   W96
// 002   ----------------------------------------
 BYTE   W96
// 003   ----------------------------------------
 BYTE   W96
// 004   ----------------------------------------
 BYTE   W96
// 005   ----------------------------------------
 BYTE   W96
// 006   ----------------------------------------
 BYTE   W96
// 007   ----------------------------------------
 BYTE   W96
// 008   ----------------------------------------
 BYTE   W96
// 009   ----------------------------------------
 BYTE   W96
// 010   ----------------------------------------
 BYTE   W96
// 011   ----------------------------------------
 BYTE   W96
// 012   ----------------------------------------
 BYTE   W96
// 013   ----------------------------------------
 BYTE   W96
// 014   ----------------------------------------
 BYTE   W96
// 015   ----------------------------------------
 BYTE   W96
// 016   ----------------------------------------
Label_5_01360EC6:
 BYTE   W24
 BYTE   N06  Fn4  v088
 BYTE   W12
 BYTE   Gn4
 BYTE   W12
 BYTE   N24  Gs4
 BYTE   W24
 BYTE   N06  Gn4
 BYTE   W12
 BYTE   Gs4
 BYTE   W12
 BYTE   PEND 
// 017   ----------------------------------------
Label_5_01360ED6:
 BYTE   N24  As4  v088
 BYTE   W24
 BYTE   N06  Gn4
 BYTE   W12
 BYTE   As4
 BYTE   W12
 BYTE   Gs4
 BYTE   W12
 BYTE   Gn4
 BYTE   W12
 BYTE   Fn4
 BYTE   W12
 BYTE   En4
 BYTE   W12
 BYTE   PEND 
// 018   ----------------------------------------
Label_5_01360EE8:
 BYTE   N24  Fn4  v088
 BYTE   W24
 BYTE   N06  Cn4
 BYTE   W12
 BYTE   Fn4
 BYTE   W12
 BYTE   Ds4
 BYTE   W12
 BYTE   Cs4
 BYTE   W12
 BYTE   Cn4
 BYTE   W12
 BYTE   As3
 BYTE   W12
 BYTE   PEND 
// 019   ----------------------------------------
Label_5_01360EFA:
 BYTE   N24  Cn4  v088
 BYTE   W24
 BYTE   N06  Gn3
 BYTE   W12
 BYTE   Cn4
 BYTE   W12
 BYTE   As3
 BYTE   W12
 BYTE   Gs3
 BYTE   W12
 BYTE   Gn3
 BYTE   W12
 BYTE   PAN   c_v+0
 BYTE   N06  En3
 BYTE   W12
 BYTE   PEND 
// 020   ----------------------------------------
 BYTE   W96
// 021   ----------------------------------------
 BYTE   W96
// 022   ----------------------------------------
 BYTE   W96
// 023   ----------------------------------------
 BYTE   W96
// 024   ----------------------------------------
 BYTE   W96
// 025   ----------------------------------------
 BYTE   W96
// 026   ----------------------------------------
 BYTE   W96
// 027   ----------------------------------------
 BYTE   W96
// 028   ----------------------------------------
 BYTE   W96
// 029   ----------------------------------------
 BYTE   W96
// 030   ----------------------------------------
 BYTE   W96
// 031   ----------------------------------------
 BYTE   W96
// 032   ----------------------------------------
Label_5_01360F1B:
 BYTE   PAN   c_v-24
 BYTE   W24
 BYTE   N06  Fn4  v088
 BYTE   W12
 BYTE   Gn4
 BYTE   W12
 BYTE   N24  Gs4
 BYTE   W24
 BYTE   N06  Gn4
 BYTE   W12
 BYTE   Gs4
 BYTE   W12
 BYTE   PEND 
 BYTE   PATT
  POIN2 Label_5_01360ED6
 BYTE   PATT
  POIN2 Label_5_01360EE8
 BYTE   PATT
  POIN2 Label_5_01360EFA
// 033   ----------------------------------------
 BYTE   W96
// 034   ----------------------------------------
 BYTE   W96
// 035   ----------------------------------------
 BYTE   W96
// 036   ----------------------------------------
 BYTE   W96
// 037   ----------------------------------------
 BYTE   W96
// 038   ----------------------------------------
 BYTE   W96
// 039   ----------------------------------------
 BYTE   W96
// 040   ----------------------------------------
 BYTE   PAN   c_v-24
 BYTE   W96
// 041   ----------------------------------------
Label_5_01360F46:
 BYTE   N12  Gn3  v088
 BYTE   W48
 BYTE   N12
 BYTE   W48
 BYTE   PEND 
// 042   ----------------------------------------
Label_5_01360F4D:
 BYTE   N12  Gn3  v088
 BYTE   W48
 BYTE   N24
 BYTE   W24
 BYTE   TIE  Gs3
 BYTE   W24
 BYTE   PEND 
// 043   ----------------------------------------
 BYTE   W96
// 044   ----------------------------------------
 BYTE   W72
 BYTE   EOT
 BYTE   N04  As3
 BYTE   W08
 BYTE   N04
 BYTE   W08
 BYTE   N04
 BYTE   W08
// 045   ----------------------------------------
Label_5_01360F61:
 BYTE   N12  As3  v088
 BYTE   W48
 BYTE   N12
 BYTE   W48
 BYTE   PEND 
// 046   ----------------------------------------
Label_5_01360F68:
 BYTE   N12  As3  v088
 BYTE   W48
 BYTE   N24
 BYTE   W24
 BYTE   TIE  Gs3
 BYTE   W24
 BYTE   PEND 
// 047   ----------------------------------------
 BYTE   W96
// 048   ----------------------------------------
 BYTE   W72
 BYTE   EOT
 BYTE   N04  Gn3
 BYTE   W08
 BYTE   N04
 BYTE   W08
 BYTE   N04
 BYTE   W08
 BYTE   PATT
  POIN2 Label_5_01360F46
 BYTE   PATT
  POIN2 Label_5_01360F4D
// 049   ----------------------------------------
 BYTE   W96
// 050   ----------------------------------------
 BYTE   W72
 BYTE   EOT
 BYTE   Gs3
 BYTE   N04  As3  v088
 BYTE   W08
 BYTE   N04
 BYTE   W08
 BYTE   N04
 BYTE   W08
 BYTE   PATT
  POIN2 Label_5_01360F61
 BYTE   PATT
  POIN2 Label_5_01360F68
// 051   ----------------------------------------
 BYTE   W96
// 052   ----------------------------------------
 BYTE   W96
// 053   ----------------------------------------
 BYTE   EOT
 BYTE   Gs3
 BYTE   W96
// 054   ----------------------------------------
 BYTE   W96
// 055   ----------------------------------------
 BYTE   W96
// 056   ----------------------------------------
 BYTE   W96
// 057   ----------------------------------------
 BYTE   W96
// 058   ----------------------------------------
 BYTE   W96
// 059   ----------------------------------------
 BYTE   W96
// 060   ----------------------------------------
 BYTE   W96
// 061   ----------------------------------------
 BYTE   N84  Fn3  v088
 BYTE   W96
// 062   ----------------------------------------
Label_5_01360FAC:
 BYTE   N72  Gn3  v088
 BYTE   W84
 BYTE   N03  Fn3
 BYTE   W06
 BYTE   Gn3
 BYTE   W06
 BYTE   PEND 
// 063   ----------------------------------------
 BYTE   N96  An3
 BYTE   W96
// 064   ----------------------------------------
Label_5_01360FB9:
 BYTE   W12
 BYTE   N06  Gn3  v088
 BYTE   W12
 BYTE   Bn3
 BYTE   W12
 BYTE   An3
 BYTE   W12
 BYTE   N16  Gn3
 BYTE   W16
 BYTE   An3
 BYTE   W16
 BYTE   Bn3
 BYTE   W16
 BYTE   PEND 
 BYTE   PATT
  POIN2 Label_5_01360F46
 BYTE   PATT
  POIN2 Label_5_01360F4D
// 065   ----------------------------------------
 BYTE   W96
// 066   ----------------------------------------
 BYTE   W72
 BYTE   EOT
 BYTE   Gs3
 BYTE   N04  As3  v088
 BYTE   W08
 BYTE   N04
 BYTE   W08
 BYTE   N04
 BYTE   W08
 BYTE   PATT
  POIN2 Label_5_01360F61
 BYTE   PATT
  POIN2 Label_5_01360F68
// 067   ----------------------------------------
 BYTE   W96
// 068   ----------------------------------------
 BYTE   W96
// 069   ----------------------------------------
 BYTE   EOT
 BYTE   Gs3
 BYTE   W96
// 070   ----------------------------------------
 BYTE   W96
// 071   ----------------------------------------
 BYTE   W96
// 072   ----------------------------------------
 BYTE   W96
// 073   ----------------------------------------
 BYTE   W96
// 074   ----------------------------------------
 BYTE   W96
// 075   ----------------------------------------
 BYTE   W96
// 076   ----------------------------------------
 BYTE   W96
// 077   ----------------------------------------
 BYTE   W96
// 078   ----------------------------------------
 BYTE   W96
// 079   ----------------------------------------
 BYTE   W96
// 080   ----------------------------------------
 BYTE   W96
// 081   ----------------------------------------
 BYTE   W96
// 082   ----------------------------------------
 BYTE   W96
// 083   ----------------------------------------
 BYTE   W96
// 084   ----------------------------------------
 BYTE   W96
 BYTE   PATT
  POIN2 Label_5_01360EC6
 BYTE   PATT
  POIN2 Label_5_01360ED6
 BYTE   PATT
  POIN2 Label_5_01360EE8
 BYTE   PATT
  POIN2 Label_5_01360EFA
// 085   ----------------------------------------
 BYTE   W96
// 086   ----------------------------------------
 BYTE   W96
// 087   ----------------------------------------
 BYTE   W96
// 088   ----------------------------------------
 BYTE   W96
// 089   ----------------------------------------
 BYTE   W96
// 090   ----------------------------------------
 BYTE   W96
// 091   ----------------------------------------
 BYTE   W96
// 092   ----------------------------------------
 BYTE   W96
// 093   ----------------------------------------
 BYTE   W96
// 094   ----------------------------------------
 BYTE   W96
// 095   ----------------------------------------
 BYTE   W96
// 096   ----------------------------------------
 BYTE   W96
 BYTE   PATT
  POIN2 Label_5_01360F1B
 BYTE   PATT
  POIN2 Label_5_01360ED6
 BYTE   PATT
  POIN2 Label_5_01360EE8
 BYTE   PATT
  POIN2 Label_5_01360EFA
// 097   ----------------------------------------
 BYTE   W96
// 098   ----------------------------------------
 BYTE   W96
// 099   ----------------------------------------
 BYTE   W96
// 100   ----------------------------------------
 BYTE   W96
// 101   ----------------------------------------
 BYTE   W96
// 102   ----------------------------------------
 BYTE   W96
// 103   ----------------------------------------
 BYTE   W96
// 104   ----------------------------------------
 BYTE   PAN   c_v-24
 BYTE   W96
 BYTE   PATT
  POIN2 Label_5_01360F46
 BYTE   PATT
  POIN2 Label_5_01360F4D
// 105   ----------------------------------------
 BYTE   W96
// 106   ----------------------------------------
 BYTE   W72
 BYTE   EOT
 BYTE   Gs3
 BYTE   N04  As3  v088
 BYTE   W08
 BYTE   N04
 BYTE   W08
 BYTE   N04
 BYTE   W08
 BYTE   PATT
  POIN2 Label_5_01360F61
 BYTE   PATT
  POIN2 Label_5_01360F68
// 107   ----------------------------------------
 BYTE   W96
// 108   ----------------------------------------
 BYTE   W72
 BYTE   EOT
 BYTE   Gs3
 BYTE   N04  Gn3  v088
 BYTE   W08
 BYTE   N04
 BYTE   W08
 BYTE   N04
 BYTE   W08
 BYTE   PATT
  POIN2 Label_5_01360F46
 BYTE   PATT
  POIN2 Label_5_01360F4D
// 109   ----------------------------------------
 BYTE   W96
// 110   ----------------------------------------
 BYTE   W72
 BYTE   EOT
 BYTE   Gs3
 BYTE   N04  As3  v088
 BYTE   W08
 BYTE   N04
 BYTE   W08
 BYTE   N04
 BYTE   W08
 BYTE   PATT
  POIN2 Label_5_01360F61
 BYTE   PATT
  POIN2 Label_5_01360F68
// 111   ----------------------------------------
 BYTE   W96
// 112   ----------------------------------------
 BYTE   W96
// 113   ----------------------------------------
 BYTE   EOT
 BYTE   Gs3
 BYTE   W96
// 114   ----------------------------------------
 BYTE   W96
// 115   ----------------------------------------
 BYTE   W96
// 116   ----------------------------------------
 BYTE   W96
// 117   ----------------------------------------
 BYTE   W96
// 118   ----------------------------------------
 BYTE   W96
// 119   ----------------------------------------
 BYTE   W96
// 120   ----------------------------------------
 BYTE   W96
// 121   ----------------------------------------
 BYTE   N84  Fn3  v088
 BYTE   W96
 BYTE   PATT
  POIN2 Label_5_01360FAC
// 122   ----------------------------------------
 BYTE   N96  An3  v088
 BYTE   W96
 BYTE   PATT
  POIN2 Label_5_01360FB9
 BYTE   PATT
  POIN2 Label_5_01360F46
 BYTE   PATT
  POIN2 Label_5_01360F4D
// 123   ----------------------------------------
 BYTE   W96
// 124   ----------------------------------------
 BYTE   W72
 BYTE   EOT
 BYTE   Gs3
 BYTE   N04  As3  v088
 BYTE   W08
 BYTE   N04
 BYTE   W08
 BYTE   N04
 BYTE   W08
 BYTE   PATT
  POIN2 Label_5_01360F61
 BYTE   PATT
  POIN2 Label_5_01360F68
// 125   ----------------------------------------
 BYTE   W96
// 126   ----------------------------------------
 BYTE   W96
// 127   ----------------------------------------
 BYTE   EOT
 BYTE   Gs3
 BYTE   W96
// 128   ----------------------------------------
 BYTE   W96
// 129   ----------------------------------------
 BYTE   W96
// 130   ----------------------------------------
 BYTE   W96
// 131   ----------------------------------------
 BYTE   W96
// 132   ----------------------------------------
 BYTE   W96
// 133   ----------------------------------------
 BYTE   W96
// 134   ----------------------------------------
 BYTE   W96
// 135   ----------------------------------------
 BYTE   GoTo
  POIN2 Label_5_01360EAA
 BYTE   FINE

//**************** Track 7 (Midi-Chn.6) ****************//

FF9BossBattleAReliableChair_007:
// 000   ----------------------------------------
 BYTE   KEYSH   FF9BossBattleAReliableChair_key+0
Label_6_013610DA:
 BYTE   VOICE   57
 BYTE   BENDR  64
 BYTE   PAN   c_v+24
 BYTE   VOL   45*FF9BossBattleAReliableChair_mvl/mxv
 BYTE   MODT 0
 BYTE   CnM2
 BYTE   LFOS 0
 BYTE   Gs1
 BYTE   W96
// 001   ----------------------------------------
 BYTE   W96
// 002   ----------------------------------------
 BYTE   W96
// 003   ----------------------------------------
 BYTE   W96
// 004   ----------------------------------------
 BYTE   W96
// 005   ----------------------------------------
 BYTE   W96
// 006   ----------------------------------------
 BYTE   W96
// 007   ----------------------------------------
 BYTE   W96
// 008   ----------------------------------------
 BYTE   W96
// 009   ----------------------------------------
 BYTE   W96
// 010   ----------------------------------------
 BYTE   W96
// 011   ----------------------------------------
 BYTE   W96
// 012   ----------------------------------------
 BYTE   W96
// 013   ----------------------------------------
 BYTE   W96
// 014   ----------------------------------------
 BYTE   W96
// 015   ----------------------------------------
 BYTE   W96
// 016   ----------------------------------------
Label_6_013610F6:
 BYTE   W24
 BYTE   N06  Fn3  v100
 BYTE   W12
 BYTE   Gn3
 BYTE   W12
 BYTE   N24  Gs3
 BYTE   W24
 BYTE   N06  Gn3
 BYTE   W12
 BYTE   Gs3
 BYTE   W12
 BYTE   PEND 
// 017   ----------------------------------------
Label_6_01361106:
 BYTE   N24  As3  v100
 BYTE   W24
 BYTE   N06  Gn3
 BYTE   W12
 BYTE   As3
 BYTE   W12
 BYTE   Gs3
 BYTE   W12
 BYTE   Gn3
 BYTE   W12
 BYTE   Fn3
 BYTE   W12
 BYTE   En3
 BYTE   W12
 BYTE   PEND 
// 018   ----------------------------------------
Label_6_01361118:
 BYTE   N24  Fn3  v100
 BYTE   W24
 BYTE   N06  Cn3
 BYTE   W12
 BYTE   Fn3
 BYTE   W12
 BYTE   Ds3
 BYTE   W12
 BYTE   Cs3
 BYTE   W12
 BYTE   Cn3
 BYTE   W12
 BYTE   As2
 BYTE   W12
 BYTE   PEND 
// 019   ----------------------------------------
Label_6_0136112A:
 BYTE   N24  Cn3  v100
 BYTE   W24
 BYTE   N06  Gn2
 BYTE   W12
 BYTE   Cn3
 BYTE   W12
 BYTE   As2
 BYTE   W12
 BYTE   Gs2
 BYTE   W12
 BYTE   Gn2
 BYTE   W12
 BYTE   En2
 BYTE   W12
 BYTE   PEND 
// 020   ----------------------------------------
 BYTE   W96
// 021   ----------------------------------------
 BYTE   W96
// 022   ----------------------------------------
 BYTE   W96
// 023   ----------------------------------------
 BYTE   W96
// 024   ----------------------------------------
 BYTE   W96
// 025   ----------------------------------------
 BYTE   W96
// 026   ----------------------------------------
 BYTE   W96
// 027   ----------------------------------------
 BYTE   W96
// 028   ----------------------------------------
 BYTE   W96
// 029   ----------------------------------------
 BYTE   W96
// 030   ----------------------------------------
 BYTE   W96
// 031   ----------------------------------------
 BYTE   W96
 BYTE   PATT
  POIN2 Label_6_013610F6
 BYTE   PATT
  POIN2 Label_6_01361106
 BYTE   PATT
  POIN2 Label_6_01361118
 BYTE   PATT
  POIN2 Label_6_0136112A
// 032   ----------------------------------------
 BYTE   W96
// 033   ----------------------------------------
 BYTE   W96
// 034   ----------------------------------------
 BYTE   W96
// 035   ----------------------------------------
 BYTE   W96
// 036   ----------------------------------------
 BYTE   W96
// 037   ----------------------------------------
 BYTE   W96
// 038   ----------------------------------------
 BYTE   W96
// 039   ----------------------------------------
 BYTE   W96
// 040   ----------------------------------------
Label_6_01361164:
 BYTE   N12  Cn3  v100
 BYTE   W48
 BYTE   N12
 BYTE   W48
 BYTE   PEND 
// 041   ----------------------------------------
Label_6_0136116B:
 BYTE   N12  Cn3  v100
 BYTE   W48
 BYTE   N24
 BYTE   W24
 BYTE   TIE  As2
 BYTE   W24
 BYTE   PEND 
// 042   ----------------------------------------
 BYTE   W96
// 043   ----------------------------------------
 BYTE   W72
 BYTE   EOT
 BYTE   N04  Bn2
 BYTE   W08
 BYTE   N04
 BYTE   W08
 BYTE   N04
 BYTE   W08
// 044   ----------------------------------------
Label_6_0136117F:
 BYTE   N12  Bn2  v100
 BYTE   W48
 BYTE   N12
 BYTE   W48
 BYTE   PEND 
// 045   ----------------------------------------
Label_6_01361186:
 BYTE   N12  Bn2  v100
 BYTE   W48
 BYTE   N24
 BYTE   W24
 BYTE   TIE  Cn3
 BYTE   W24
 BYTE   PEND 
// 046   ----------------------------------------
 BYTE   W96
// 047   ----------------------------------------
 BYTE   W72
 BYTE   EOT
 BYTE   N04
 BYTE   W08
 BYTE   N04
 BYTE   W08
 BYTE   N04
 BYTE   W08
 BYTE   PATT
  POIN2 Label_6_01361164
 BYTE   PATT
  POIN2 Label_6_0136116B
// 048   ----------------------------------------
 BYTE   W96
// 049   ----------------------------------------
 BYTE   W72
 BYTE   EOT
 BYTE   As2
 BYTE   N04  Bn2  v100
 BYTE   W08
 BYTE   N04
 BYTE   W08
 BYTE   N04
 BYTE   W08
 BYTE   PATT
  POIN2 Label_6_0136117F
 BYTE   PATT
  POIN2 Label_6_01361186
// 050   ----------------------------------------
 BYTE   W96
// 051   ----------------------------------------
 BYTE   W96
// 052   ----------------------------------------
 BYTE   EOT
 BYTE   Cn3
 BYTE   W96
// 053   ----------------------------------------
 BYTE   W96
// 054   ----------------------------------------
 BYTE   W96
// 055   ----------------------------------------
 BYTE   W96
// 056   ----------------------------------------
 BYTE   W96
// 057   ----------------------------------------
 BYTE   W96
// 058   ----------------------------------------
 BYTE   W96
// 059   ----------------------------------------
 BYTE   W96
// 060   ----------------------------------------
 BYTE   W96
// 061   ----------------------------------------
 BYTE   W96
// 062   ----------------------------------------
 BYTE   W96
// 063   ----------------------------------------
 BYTE   W96
 BYTE   PATT
  POIN2 Label_6_01361164
 BYTE   PATT
  POIN2 Label_6_0136116B
// 064   ----------------------------------------
 BYTE   W96
// 065   ----------------------------------------
 BYTE   W72
 BYTE   EOT
 BYTE   As2
 BYTE   N04  Bn2  v100
 BYTE   W08
 BYTE   N04
 BYTE   W08
 BYTE   N04
 BYTE   W08
 BYTE   PATT
  POIN2 Label_6_0136117F
 BYTE   PATT
  POIN2 Label_6_01361186
// 066   ----------------------------------------
 BYTE   W96
// 067   ----------------------------------------
 BYTE   W96
// 068   ----------------------------------------
 BYTE   EOT
 BYTE   Cn3
 BYTE   W96
// 069   ----------------------------------------
 BYTE   W96
// 070   ----------------------------------------
 BYTE   W96
// 071   ----------------------------------------
 BYTE   W96
// 072   ----------------------------------------
 BYTE   W96
// 073   ----------------------------------------
 BYTE   W96
// 074   ----------------------------------------
 BYTE   W96
// 075   ----------------------------------------
 BYTE   W96
// 076   ----------------------------------------
 BYTE   W96
// 077   ----------------------------------------
 BYTE   W96
// 078   ----------------------------------------
 BYTE   W96
// 079   ----------------------------------------
 BYTE   W96
// 080   ----------------------------------------
 BYTE   W96
// 081   ----------------------------------------
 BYTE   W96
// 082   ----------------------------------------
 BYTE   W96
// 083   ----------------------------------------
 BYTE   W96
 BYTE   PATT
  POIN2 Label_6_013610F6
 BYTE   PATT
  POIN2 Label_6_01361106
 BYTE   PATT
  POIN2 Label_6_01361118
 BYTE   PATT
  POIN2 Label_6_0136112A
// 084   ----------------------------------------
 BYTE   W96
// 085   ----------------------------------------
 BYTE   W96
// 086   ----------------------------------------
 BYTE   W96
// 087   ----------------------------------------
 BYTE   W96
// 088   ----------------------------------------
 BYTE   W96
// 089   ----------------------------------------
 BYTE   W96
// 090   ----------------------------------------
 BYTE   W96
// 091   ----------------------------------------
 BYTE   W96
// 092   ----------------------------------------
 BYTE   W96
// 093   ----------------------------------------
 BYTE   W96
// 094   ----------------------------------------
 BYTE   W96
// 095   ----------------------------------------
 BYTE   W96
 BYTE   PATT
  POIN2 Label_6_013610F6
 BYTE   PATT
  POIN2 Label_6_01361106
 BYTE   PATT
  POIN2 Label_6_01361118
 BYTE   PATT
  POIN2 Label_6_0136112A
// 096   ----------------------------------------
 BYTE   W96
// 097   ----------------------------------------
 BYTE   W96
// 098   ----------------------------------------
 BYTE   W96
// 099   ----------------------------------------
 BYTE   W96
// 100   ----------------------------------------
 BYTE   W96
// 101   ----------------------------------------
 BYTE   W96
// 102   ----------------------------------------
 BYTE   W96
// 103   ----------------------------------------
 BYTE   W96
 BYTE   PATT
  POIN2 Label_6_01361164
 BYTE   PATT
  POIN2 Label_6_0136116B
// 104   ----------------------------------------
 BYTE   W96
// 105   ----------------------------------------
 BYTE   W72
 BYTE   EOT
 BYTE   As2
 BYTE   N04  Bn2  v100
 BYTE   W08
 BYTE   N04
 BYTE   W08
 BYTE   N04
 BYTE   W08
 BYTE   PATT
  POIN2 Label_6_0136117F
 BYTE   PATT
  POIN2 Label_6_01361186
// 106   ----------------------------------------
 BYTE   W96
// 107   ----------------------------------------
 BYTE   W72
 BYTE   EOT
 BYTE   Cn3
 BYTE   N04  Cn3  v100
 BYTE   W08
 BYTE   N04
 BYTE   W08
 BYTE   N04
 BYTE   W08
 BYTE   PATT
  POIN2 Label_6_01361164
 BYTE   PATT
  POIN2 Label_6_0136116B
// 108   ----------------------------------------
 BYTE   W96
// 109   ----------------------------------------
 BYTE   W72
 BYTE   EOT
 BYTE   As2
 BYTE   N04  Bn2  v100
 BYTE   W08
 BYTE   N04
 BYTE   W08
 BYTE   N04
 BYTE   W08
 BYTE   PATT
  POIN2 Label_6_0136117F
 BYTE   PATT
  POIN2 Label_6_01361186
// 110   ----------------------------------------
 BYTE   W96
// 111   ----------------------------------------
 BYTE   W96
// 112   ----------------------------------------
 BYTE   EOT
 BYTE   Cn3
 BYTE   W96
// 113   ----------------------------------------
 BYTE   W96
// 114   ----------------------------------------
 BYTE   W96
// 115   ----------------------------------------
 BYTE   W96
// 116   ----------------------------------------
 BYTE   W96
// 117   ----------------------------------------
 BYTE   W96
// 118   ----------------------------------------
 BYTE   W96
// 119   ----------------------------------------
 BYTE   W96
// 120   ----------------------------------------
 BYTE   W96
// 121   ----------------------------------------
 BYTE   W96
// 122   ----------------------------------------
 BYTE   W96
// 123   ----------------------------------------
 BYTE   W96
 BYTE   PATT
  POIN2 Label_6_01361164
 BYTE   PATT
  POIN2 Label_6_0136116B
// 124   ----------------------------------------
 BYTE   W96
// 125   ----------------------------------------
 BYTE   W72
 BYTE   EOT
 BYTE   As2
 BYTE   N04  Bn2  v100
 BYTE   W08
 BYTE   N04
 BYTE   W08
 BYTE   N04
 BYTE   W08
 BYTE   PATT
  POIN2 Label_6_0136117F
 BYTE   PATT
  POIN2 Label_6_01361186
// 126   ----------------------------------------
 BYTE   W96
// 127   ----------------------------------------
 BYTE   W96
// 128   ----------------------------------------
 BYTE   EOT
 BYTE   Cn3
 BYTE   W96
// 129   ----------------------------------------
 BYTE   W96
// 130   ----------------------------------------
 BYTE   W96
// 131   ----------------------------------------
 BYTE   W96
// 132   ----------------------------------------
 BYTE   W96
// 133   ----------------------------------------
 BYTE   W96
// 134   ----------------------------------------
 BYTE   W96
// 135   ----------------------------------------
 BYTE   W96
// 136   ----------------------------------------
 BYTE   GoTo
  POIN2 Label_6_013610DA
 BYTE   FINE

//**************** Track 8 (Midi-Chn.7) ****************//

FF9BossBattleAReliableChair_008:
// 000   ----------------------------------------
 BYTE   KEYSH   FF9BossBattleAReliableChair_key+0
Label_7_013612CA:
 BYTE   VOICE   73
 BYTE   BENDR  64
 BYTE   PAN   c_v+48
 BYTE   VOL   31*FF9BossBattleAReliableChair_mvl/mxv
 BYTE   MODT 0
 BYTE   CnM2
 BYTE   LFOS 0
 BYTE   Gs1
 BYTE   W96
// 001   ----------------------------------------
 BYTE   W96
// 002   ----------------------------------------
 BYTE   W96
// 003   ----------------------------------------
 BYTE   W96
// 004   ----------------------------------------
 BYTE   W96
// 005   ----------------------------------------
 BYTE   W96
// 006   ----------------------------------------
 BYTE   W96
// 007   ----------------------------------------
 BYTE   W96
// 008   ----------------------------------------
 BYTE   W96
// 009   ----------------------------------------
 BYTE   W96
// 010   ----------------------------------------
 BYTE   W96
// 011   ----------------------------------------
 BYTE   W96
// 012   ----------------------------------------
 BYTE   W96
// 013   ----------------------------------------
 BYTE   W96
// 014   ----------------------------------------
 BYTE   W96
// 015   ----------------------------------------
 BYTE   W96
// 016   ----------------------------------------
 BYTE   W96
// 017   ----------------------------------------
 BYTE   W96
// 018   ----------------------------------------
 BYTE   W96
// 019   ----------------------------------------
 BYTE   W96
// 020   ----------------------------------------
 BYTE   W96
// 021   ----------------------------------------
 BYTE   W96
// 022   ----------------------------------------
 BYTE   W96
// 023   ----------------------------------------
 BYTE   W96
// 024   ----------------------------------------
Label_7_013612EE:
 BYTE   W12
 BYTE   N06  Gs4  v088
 BYTE   W12
 BYTE   Gn4
 BYTE   W12
 BYTE   Gs4
 BYTE   W12
 BYTE   Fn4
 BYTE   W12
 BYTE   Cs4
 BYTE   W24
 BYTE   Fn4
 BYTE   W12
 BYTE   PEND 
// 025   ----------------------------------------
Label_7_013612FE:
 BYTE   N06  Ds4  v088
 BYTE   W12
 BYTE   Fn4
 BYTE   W12
 BYTE   Cs4
 BYTE   W12
 BYTE   Cn4
 BYTE   W24
 BYTE   Cs4
 BYTE   W12
 BYTE   Cn4
 BYTE   W12
 BYTE   Cs4
 BYTE   W12
 BYTE   PEND 
// 026   ----------------------------------------
Label_7_0136130F:
 BYTE   N06  As3  v088
 BYTE   W12
 BYTE   Gs3
 BYTE   W24
 BYTE   As3
 BYTE   W12
 BYTE   Gs3
 BYTE   W12
 BYTE   As3
 BYTE   W12
 BYTE   Gn3
 BYTE   W12
 BYTE   Fn3
 BYTE   W12
 BYTE   PEND 
// 027   ----------------------------------------
Label_7_01361320:
 BYTE   N12  Ds3  v088
 BYTE   W12
 BYTE   Fn3
 BYTE   W12
 BYTE   Gn3
 BYTE   W12
 BYTE   Gs3
 BYTE   W12
 BYTE   As3
 BYTE   W12
 BYTE   Cn4
 BYTE   W12
 BYTE   Cs4
 BYTE   W12
 BYTE   Ds4
 BYTE   W12
 BYTE   PEND 
// 028   ----------------------------------------
 BYTE   W96
// 029   ----------------------------------------
 BYTE   W96
// 030   ----------------------------------------
 BYTE   W96
// 031   ----------------------------------------
 BYTE   W96
// 032   ----------------------------------------
 BYTE   W96
// 033   ----------------------------------------
 BYTE   W96
// 034   ----------------------------------------
 BYTE   W96
// 035   ----------------------------------------
 BYTE   W96
// 036   ----------------------------------------
 BYTE   W96
// 037   ----------------------------------------
 BYTE   W96
// 038   ----------------------------------------
 BYTE   W96
// 039   ----------------------------------------
 BYTE   W96
 BYTE   PATT
  POIN2 Label_7_013612EE
 BYTE   PATT
  POIN2 Label_7_013612FE
 BYTE   PATT
  POIN2 Label_7_0136130F
// 040   ----------------------------------------
Label_7_0136134E:
 BYTE   N12  Ds3  v088
 BYTE   W12
 BYTE   Fn3
 BYTE   W12
 BYTE   Gn3
 BYTE   W12
 BYTE   Gs3
 BYTE   W12
 BYTE   As3
 BYTE   W12
 BYTE   Cn4
 BYTE   W12
 BYTE   Cs4
 BYTE   W12
 BYTE   As3
 BYTE   W12
 BYTE   PEND 
// 041   ----------------------------------------
 BYTE   W96
// 042   ----------------------------------------
 BYTE   W96
// 043   ----------------------------------------
 BYTE   W96
// 044   ----------------------------------------
 BYTE   W96
// 045   ----------------------------------------
 BYTE   W96
// 046   ----------------------------------------
 BYTE   W96
// 047   ----------------------------------------
 BYTE   W96
// 048   ----------------------------------------
 BYTE   W96
// 049   ----------------------------------------
 BYTE   W96
// 050   ----------------------------------------
 BYTE   W96
// 051   ----------------------------------------
 BYTE   W96
// 052   ----------------------------------------
 BYTE   W96
// 053   ----------------------------------------
 BYTE   W96
// 054   ----------------------------------------
 BYTE   W96
// 055   ----------------------------------------
 BYTE   W96
// 056   ----------------------------------------
 BYTE   W96
// 057   ----------------------------------------
 BYTE   W96
// 058   ----------------------------------------
 BYTE   W96
// 059   ----------------------------------------
 BYTE   W96
// 060   ----------------------------------------
 BYTE   W96
// 061   ----------------------------------------
Label_7_01361375:
 BYTE   N12  Fn5  v088
 BYTE   W12
 BYTE   Cs5
 BYTE   W84
 BYTE   PEND 
// 062   ----------------------------------------
Label_7_0136137C:
 BYTE   W48
 BYTE   N12  Cs5  v088
 BYTE   W12
 BYTE   An4
 BYTE   W36
 BYTE   PEND 
// 063   ----------------------------------------
Label_7_01361384:
 BYTE   W24
 BYTE   N12  Ds5  v088
 BYTE   W12
 BYTE   Bn4
 BYTE   W60
 BYTE   PEND 
// 064   ----------------------------------------
Label_7_0136138C:
 BYTE   N12  Fn5  v088
 BYTE   W12
 BYTE   Cs5
 BYTE   W60
 BYTE   Bn4
 BYTE   W12
 BYTE   Gn4
 BYTE   W12
 BYTE   PEND 
 BYTE   PATT
  POIN2 Label_7_0136137C
 BYTE   PATT
  POIN2 Label_7_01361384
 BYTE   PATT
  POIN2 Label_7_01361375
// 065   ----------------------------------------
Label_7_013613A6:
 BYTE   W72
 BYTE   N12  Bn4  v088
 BYTE   W12
 BYTE   Gn4
 BYTE   W12
 BYTE   PEND 
// 066   ----------------------------------------
 BYTE   W96
// 067   ----------------------------------------
 BYTE   W96
// 068   ----------------------------------------
 BYTE   W96
// 069   ----------------------------------------
 BYTE   W96
// 070   ----------------------------------------
 BYTE   W96
// 071   ----------------------------------------
 BYTE   W96
// 072   ----------------------------------------
 BYTE   W96
// 073   ----------------------------------------
 BYTE   W96
// 074   ----------------------------------------
 BYTE   W96
// 075   ----------------------------------------
 BYTE   W96
// 076   ----------------------------------------
 BYTE   W96
// 077   ----------------------------------------
 BYTE   W96
// 078   ----------------------------------------
 BYTE   W96
// 079   ----------------------------------------
 BYTE   W96
// 080   ----------------------------------------
 BYTE   W96
// 081   ----------------------------------------
 BYTE   W96
// 082   ----------------------------------------
 BYTE   W96
// 083   ----------------------------------------
 BYTE   W96
// 084   ----------------------------------------
 BYTE   W96
// 085   ----------------------------------------
 BYTE   W96
// 086   ----------------------------------------
 BYTE   W96
// 087   ----------------------------------------
 BYTE   W96
// 088   ----------------------------------------
 BYTE   W96
// 089   ----------------------------------------
 BYTE   W96
// 090   ----------------------------------------
 BYTE   W96
// 091   ----------------------------------------
 BYTE   W96
// 092   ----------------------------------------
 BYTE   W96
// 093   ----------------------------------------
 BYTE   W96
// 094   ----------------------------------------
 BYTE   W96
// 095   ----------------------------------------
 BYTE   W96
// 096   ----------------------------------------
 BYTE   W96
// 097   ----------------------------------------
 BYTE   W96
 BYTE   PATT
  POIN2 Label_7_013612EE
 BYTE   PATT
  POIN2 Label_7_013612FE
 BYTE   PATT
  POIN2 Label_7_0136130F
 BYTE   PATT
  POIN2 Label_7_01361320
// 098   ----------------------------------------
 BYTE   W96
// 099   ----------------------------------------
 BYTE   W96
// 100   ----------------------------------------
 BYTE   W96
// 101   ----------------------------------------
 BYTE   W96
// 102   ----------------------------------------
 BYTE   W96
// 103   ----------------------------------------
 BYTE   W96
// 104   ----------------------------------------
 BYTE   W96
// 105   ----------------------------------------
 BYTE   W96
// 106   ----------------------------------------
 BYTE   W96
// 107   ----------------------------------------
 BYTE   W96
// 108   ----------------------------------------
 BYTE   W96
// 109   ----------------------------------------
 BYTE   W96
 BYTE   PATT
  POIN2 Label_7_013612EE
 BYTE   PATT
  POIN2 Label_7_013612FE
 BYTE   PATT
  POIN2 Label_7_0136130F
 BYTE   PATT
  POIN2 Label_7_0136134E
// 110   ----------------------------------------
 BYTE   W96
// 111   ----------------------------------------
 BYTE   W96
// 112   ----------------------------------------
 BYTE   W96
// 113   ----------------------------------------
 BYTE   W96
// 114   ----------------------------------------
 BYTE   W96
// 115   ----------------------------------------
 BYTE   W96
// 116   ----------------------------------------
 BYTE   W96
// 117   ----------------------------------------
 BYTE   W96
// 118   ----------------------------------------
 BYTE   W96
// 119   ----------------------------------------
 BYTE   W96
// 120   ----------------------------------------
 BYTE   W96
// 121   ----------------------------------------
 BYTE   W96
// 122   ----------------------------------------
 BYTE   W96
// 123   ----------------------------------------
 BYTE   W96
// 124   ----------------------------------------
 BYTE   W96
// 125   ----------------------------------------
 BYTE   W96
// 126   ----------------------------------------
 BYTE   W96
// 127   ----------------------------------------
 BYTE   W96
// 128   ----------------------------------------
 BYTE   W96
// 129   ----------------------------------------
 BYTE   W96
 BYTE   PATT
  POIN2 Label_7_01361375
 BYTE   PATT
  POIN2 Label_7_0136137C
 BYTE   PATT
  POIN2 Label_7_01361384
 BYTE   PATT
  POIN2 Label_7_0136138C
 BYTE   PATT
  POIN2 Label_7_0136137C
 BYTE   PATT
  POIN2 Label_7_01361384
 BYTE   PATT
  POIN2 Label_7_01361375
 BYTE   PATT
  POIN2 Label_7_013613A6
// 130   ----------------------------------------
 BYTE   W96
// 131   ----------------------------------------
 BYTE   W96
// 132   ----------------------------------------
 BYTE   W96
// 133   ----------------------------------------
 BYTE   W96
// 134   ----------------------------------------
 BYTE   W96
// 135   ----------------------------------------
 BYTE   W96
// 136   ----------------------------------------
 BYTE   W96
// 137   ----------------------------------------
 BYTE   W96
// 138   ----------------------------------------
 BYTE   W96
// 139   ----------------------------------------
 BYTE   W96
// 140   ----------------------------------------
 BYTE   W96
// 141   ----------------------------------------
 BYTE   W96
// 142   ----------------------------------------
 BYTE   W96
// 143   ----------------------------------------
 BYTE   W96
// 144   ----------------------------------------
 BYTE   W96
// 145   ----------------------------------------
 BYTE   W96
// 146   ----------------------------------------
 BYTE   GoTo
  POIN2 Label_7_013612CA
 BYTE   FINE

//**************** Track 9 (Midi-Chn.8) ****************//

FF9BossBattleAReliableChair_009:
// 000   ----------------------------------------
 BYTE   KEYSH   FF9BossBattleAReliableChair_key+0
Label_8_01361456:
 BYTE   VOICE   71
 BYTE   BENDR  64
 BYTE   PAN   c_v-48
 BYTE   VOL   40*FF9BossBattleAReliableChair_mvl/mxv
 BYTE   MODT 0
 BYTE   CnM2
 BYTE   LFOS 0
 BYTE   Gs1
 BYTE   W96
// 001   ----------------------------------------
 BYTE   W96
// 002   ----------------------------------------
 BYTE   W96
// 003   ----------------------------------------
 BYTE   W96
// 004   ----------------------------------------
 BYTE   W96
// 005   ----------------------------------------
 BYTE   W96
// 006   ----------------------------------------
 BYTE   W96
// 007   ----------------------------------------
 BYTE   W96
// 008   ----------------------------------------
 BYTE   W96
// 009   ----------------------------------------
 BYTE   W96
// 010   ----------------------------------------
 BYTE   W96
// 011   ----------------------------------------
 BYTE   W96
// 012   ----------------------------------------
 BYTE   W96
// 013   ----------------------------------------
 BYTE   W96
// 014   ----------------------------------------
 BYTE   W96
// 015   ----------------------------------------
 BYTE   W96
// 016   ----------------------------------------
 BYTE   W96
// 017   ----------------------------------------
 BYTE   W96
// 018   ----------------------------------------
 BYTE   W96
// 019   ----------------------------------------
 BYTE   W96
// 020   ----------------------------------------
 BYTE   W96
// 021   ----------------------------------------
 BYTE   W96
// 022   ----------------------------------------
 BYTE   W96
// 023   ----------------------------------------
 BYTE   W96
// 024   ----------------------------------------
Label_8_0136147A:
 BYTE   W12
 BYTE   N06  Gs3  v088
 BYTE   W12
 BYTE   Gn3
 BYTE   W12
 BYTE   Gs3
 BYTE   W12
 BYTE   Fn3
 BYTE   W12
 BYTE   Cs3
 BYTE   W24
 BYTE   Fn3
 BYTE   W12
 BYTE   PEND 
// 025   ----------------------------------------
Label_8_0136148A:
 BYTE   N06  Ds3  v088
 BYTE   W12
 BYTE   Fn3
 BYTE   W12
 BYTE   Cs3
 BYTE   W12
 BYTE   Cn3
 BYTE   W24
 BYTE   Cs3
 BYTE   W12
 BYTE   Cn3
 BYTE   W12
 BYTE   Cs3
 BYTE   W12
 BYTE   PEND 
// 026   ----------------------------------------
Label_8_0136149B:
 BYTE   N06  As2  v088
 BYTE   W12
 BYTE   Gs2
 BYTE   W24
 BYTE   As2
 BYTE   W12
 BYTE   Gs2
 BYTE   W12
 BYTE   As2
 BYTE   W12
 BYTE   Gn2
 BYTE   W12
 BYTE   Fn2
 BYTE   W12
 BYTE   PEND 
// 027   ----------------------------------------
Label_8_013614AC:
 BYTE   N12  Ds2  v088
 BYTE   W12
 BYTE   Fn2
 BYTE   W12
 BYTE   Gn2
 BYTE   W12
 BYTE   Gs2
 BYTE   W12
 BYTE   As2
 BYTE   W12
 BYTE   Cn3
 BYTE   W12
 BYTE   Cs3
 BYTE   W12
 BYTE   Ds3
 BYTE   W12
 BYTE   PEND 
// 028   ----------------------------------------
 BYTE   W96
// 029   ----------------------------------------
 BYTE   W96
// 030   ----------------------------------------
 BYTE   W96
// 031   ----------------------------------------
 BYTE   W96
// 032   ----------------------------------------
 BYTE   W96
// 033   ----------------------------------------
 BYTE   W96
// 034   ----------------------------------------
 BYTE   W96
// 035   ----------------------------------------
 BYTE   W96
// 036   ----------------------------------------
 BYTE   W96
// 037   ----------------------------------------
 BYTE   W96
// 038   ----------------------------------------
 BYTE   W96
// 039   ----------------------------------------
 BYTE   W96
 BYTE   PATT
  POIN2 Label_8_0136147A
 BYTE   PATT
  POIN2 Label_8_0136148A
 BYTE   PATT
  POIN2 Label_8_0136149B
// 040   ----------------------------------------
Label_8_013614DA:
 BYTE   N12  Ds2  v088
 BYTE   W12
 BYTE   Fn2
 BYTE   W12
 BYTE   Gn2
 BYTE   W12
 BYTE   Gs2
 BYTE   W12
 BYTE   As2
 BYTE   W12
 BYTE   Cn3
 BYTE   W12
 BYTE   Cs3
 BYTE   W12
 BYTE   As2
 BYTE   W12
 BYTE   PEND 
// 041   ----------------------------------------
 BYTE   W96
// 042   ----------------------------------------
 BYTE   W96
// 043   ----------------------------------------
 BYTE   W96
// 044   ----------------------------------------
 BYTE   W96
// 045   ----------------------------------------
 BYTE   W96
// 046   ----------------------------------------
 BYTE   W96
// 047   ----------------------------------------
 BYTE   W96
// 048   ----------------------------------------
 BYTE   W96
// 049   ----------------------------------------
 BYTE   W96
// 050   ----------------------------------------
 BYTE   W96
// 051   ----------------------------------------
 BYTE   W96
// 052   ----------------------------------------
 BYTE   W96
// 053   ----------------------------------------
 BYTE   W96
// 054   ----------------------------------------
 BYTE   W96
// 055   ----------------------------------------
 BYTE   W96
// 056   ----------------------------------------
 BYTE   W96
// 057   ----------------------------------------
 BYTE   W96
// 058   ----------------------------------------
 BYTE   W96
// 059   ----------------------------------------
 BYTE   W96
// 060   ----------------------------------------
 BYTE   W96
// 061   ----------------------------------------
Label_8_01361501:
 BYTE   W48
 BYTE   N12  Cs4  v088
 BYTE   W12
 BYTE   An3
 BYTE   W36
 BYTE   PEND 
// 062   ----------------------------------------
Label_8_01361509:
 BYTE   W24
 BYTE   N12  Ds4  v088
 BYTE   W12
 BYTE   Bn3
 BYTE   W60
 BYTE   PEND 
// 063   ----------------------------------------
Label_8_01361511:
 BYTE   N12  Fn4  v088
 BYTE   W12
 BYTE   Cs4
 BYTE   W84
 BYTE   PEND 
 BYTE   PATT
  POIN2 Label_8_01361501
 BYTE   PATT
  POIN2 Label_8_01361509
// 064   ----------------------------------------
Label_8_01361522:
 BYTE   N12  Fn4  v088
 BYTE   W12
 BYTE   Cs4
 BYTE   W60
 BYTE   Bn3
 BYTE   W12
 BYTE   Gn3
 BYTE   W12
 BYTE   PEND 
 BYTE   PATT
  POIN2 Label_8_01361501
 BYTE   PATT
  POIN2 Label_8_01361509
// 065   ----------------------------------------
 BYTE   W96
// 066   ----------------------------------------
 BYTE   W96
// 067   ----------------------------------------
 BYTE   W96
// 068   ----------------------------------------
 BYTE   W96
// 069   ----------------------------------------
 BYTE   W96
// 070   ----------------------------------------
 BYTE   W96
// 071   ----------------------------------------
 BYTE   W96
// 072   ----------------------------------------
 BYTE   W96
// 073   ----------------------------------------
 BYTE   W96
// 074   ----------------------------------------
 BYTE   W96
// 075   ----------------------------------------
 BYTE   W96
// 076   ----------------------------------------
 BYTE   W96
// 077   ----------------------------------------
 BYTE   W96
// 078   ----------------------------------------
 BYTE   W96
// 079   ----------------------------------------
 BYTE   W96
// 080   ----------------------------------------
 BYTE   W96
// 081   ----------------------------------------
 BYTE   W96
// 082   ----------------------------------------
 BYTE   W96
// 083   ----------------------------------------
 BYTE   W96
// 084   ----------------------------------------
 BYTE   W96
// 085   ----------------------------------------
 BYTE   W96
// 086   ----------------------------------------
 BYTE   W96
// 087   ----------------------------------------
 BYTE   W96
// 088   ----------------------------------------
 BYTE   W96
// 089   ----------------------------------------
 BYTE   W96
// 090   ----------------------------------------
 BYTE   W96
// 091   ----------------------------------------
 BYTE   W96
// 092   ----------------------------------------
 BYTE   W96
// 093   ----------------------------------------
 BYTE   W96
// 094   ----------------------------------------
 BYTE   W96
// 095   ----------------------------------------
 BYTE   W96
// 096   ----------------------------------------
 BYTE   W96
 BYTE   PATT
  POIN2 Label_8_0136147A
 BYTE   PATT
  POIN2 Label_8_0136148A
 BYTE   PATT
  POIN2 Label_8_0136149B
 BYTE   PATT
  POIN2 Label_8_013614AC
// 097   ----------------------------------------
 BYTE   W96
// 098   ----------------------------------------
 BYTE   W96
// 099   ----------------------------------------
 BYTE   W96
// 100   ----------------------------------------
 BYTE   W96
// 101   ----------------------------------------
 BYTE   W96
// 102   ----------------------------------------
 BYTE   W96
// 103   ----------------------------------------
 BYTE   W96
// 104   ----------------------------------------
 BYTE   W96
// 105   ----------------------------------------
 BYTE   W96
// 106   ----------------------------------------
 BYTE   W96
// 107   ----------------------------------------
 BYTE   W96
// 108   ----------------------------------------
 BYTE   W96
 BYTE   PATT
  POIN2 Label_8_0136147A
 BYTE   PATT
  POIN2 Label_8_0136148A
 BYTE   PATT
  POIN2 Label_8_0136149B
 BYTE   PATT
  POIN2 Label_8_013614DA
// 109   ----------------------------------------
 BYTE   W96
// 110   ----------------------------------------
 BYTE   W96
// 111   ----------------------------------------
 BYTE   W96
// 112   ----------------------------------------
 BYTE   W96
// 113   ----------------------------------------
 BYTE   W96
// 114   ----------------------------------------
 BYTE   W96
// 115   ----------------------------------------
 BYTE   W96
// 116   ----------------------------------------
 BYTE   W96
// 117   ----------------------------------------
 BYTE   W96
// 118   ----------------------------------------
 BYTE   W96
// 119   ----------------------------------------
 BYTE   W96
// 120   ----------------------------------------
 BYTE   W96
// 121   ----------------------------------------
 BYTE   W96
// 122   ----------------------------------------
 BYTE   W96
// 123   ----------------------------------------
 BYTE   W96
// 124   ----------------------------------------
 BYTE   W96
// 125   ----------------------------------------
 BYTE   W96
// 126   ----------------------------------------
 BYTE   W96
// 127   ----------------------------------------
 BYTE   W96
// 128   ----------------------------------------
 BYTE   W96
 BYTE   PATT
  POIN2 Label_8_01361501
 BYTE   PATT
  POIN2 Label_8_01361509
 BYTE   PATT
  POIN2 Label_8_01361511
 BYTE   PATT
  POIN2 Label_8_01361501
 BYTE   PATT
  POIN2 Label_8_01361509
 BYTE   PATT
  POIN2 Label_8_01361522
 BYTE   PATT
  POIN2 Label_8_01361501
 BYTE   PATT
  POIN2 Label_8_01361509
// 129   ----------------------------------------
 BYTE   W96
// 130   ----------------------------------------
 BYTE   W96
// 131   ----------------------------------------
 BYTE   W96
// 132   ----------------------------------------
 BYTE   W96
// 133   ----------------------------------------
 BYTE   W96
// 134   ----------------------------------------
 BYTE   W96
// 135   ----------------------------------------
 BYTE   W96
// 136   ----------------------------------------
 BYTE   W96
// 137   ----------------------------------------
 BYTE   W96
// 138   ----------------------------------------
 BYTE   W96
// 139   ----------------------------------------
 BYTE   W96
// 140   ----------------------------------------
 BYTE   W96
// 141   ----------------------------------------
 BYTE   W96
// 142   ----------------------------------------
 BYTE   W96
// 143   ----------------------------------------
 BYTE   W96
// 144   ----------------------------------------
 BYTE   W96
// 145   ----------------------------------------
 BYTE   GoTo
  POIN2 Label_8_01361456
 BYTE   FINE

//**************** Track 10 (Midi-Chn.9) ****************//

FF9BossBattleAReliableChair_010:
// 000   ----------------------------------------
 BYTE   KEYSH   FF9BossBattleAReliableChair_key+0
Label_9_013615E2:
 BYTE   VOICE   49
 BYTE   BENDR  60
 BYTE   VOL   50*FF9BossBattleAReliableChair_mvl/mxv
 BYTE   MODT 0
 BYTE   CnM2
 BYTE   LFOS 0
 BYTE   Gs1
 BYTE   N03  Dn0  v036
 BYTE   W12
 BYTE   Dn0  v012
 BYTE   W12
 BYTE   Dn0  v036
 BYTE   W12
 BYTE   Dn0  v012
 BYTE   W12
 BYTE   Dn0  v036
 BYTE   W12
 BYTE   Dn0  v012
 BYTE   W12
 BYTE   Dn0  v036
 BYTE   W12
 BYTE   Dn0  v012
 BYTE   W12
// 001   ----------------------------------------
Label_9_01361605:
 BYTE   N03  Dn0  v036
 BYTE   W12
 BYTE   Dn0  v012
 BYTE   W12
 BYTE   Dn0  v036
 BYTE   W12
 BYTE   Dn0  v012
 BYTE   W12
 BYTE   Dn0  v036
 BYTE   W12
 BYTE   Dn0  v012
 BYTE   W12
 BYTE   Dn0  v036
 BYTE   W12
 BYTE   Dn0  v012
 BYTE   W12
 BYTE   PEND 
 BYTE   PATT
  POIN2 Label_9_01361605
 BYTE   PATT
  POIN2 Label_9_01361605
 BYTE   PATT
  POIN2 Label_9_01361605
// 002   ----------------------------------------
Label_9_0136162E:
 BYTE   N03  Dn0  v060
 BYTE   N96  An1  v088
 BYTE   W12
 BYTE   N03  Dn0  v020
 BYTE   W12
 BYTE   Dn0  v060
 BYTE   W12
 BYTE   Dn0  v020
 BYTE   W12
 BYTE   Dn0  v060
 BYTE   W12
 BYTE   Dn0  v020
 BYTE   W12
 BYTE   Dn0  v060
 BYTE   W12
 BYTE   Dn0  v020
 BYTE   W12
 BYTE   PEND 
// 003   ----------------------------------------
Label_9_0136164C:
 BYTE   N03  Dn0  v060
 BYTE   W12
 BYTE   Dn0  v020
 BYTE   W12
 BYTE   Dn0  v060
 BYTE   W12
 BYTE   Dn0  v020
 BYTE   W12
 BYTE   Dn0  v060
 BYTE   W12
 BYTE   Dn0  v020
 BYTE   W12
 BYTE   Dn0  v060
 BYTE   W12
 BYTE   Dn0  v020
 BYTE   W12
 BYTE   PEND 
 BYTE   PATT
  POIN2 Label_9_0136164C
 BYTE   PATT
  POIN2 Label_9_0136164C
 BYTE   PATT
  POIN2 Label_9_0136164C
 BYTE   PATT
  POIN2 Label_9_0136164C
 BYTE   PATT
  POIN2 Label_9_0136164C
 BYTE   PATT
  POIN2 Label_9_0136164C
 BYTE   PATT
  POIN2 Label_9_0136164C
 BYTE   PATT
  POIN2 Label_9_0136164C
 BYTE   PATT
  POIN2 Label_9_0136164C
 BYTE   PATT
  POIN2 Label_9_0136164C
 BYTE   PATT
  POIN2 Label_9_0136164C
 BYTE   PATT
  POIN2 Label_9_0136164C
 BYTE   PATT
  POIN2 Label_9_0136164C
 BYTE   PATT
  POIN2 Label_9_0136164C
 BYTE   PATT
  POIN2 Label_9_0136164C
 BYTE   PATT
  POIN2 Label_9_0136164C
 BYTE   PATT
  POIN2 Label_9_0136164C
 BYTE   PATT
  POIN2 Label_9_0136164C
 BYTE   PATT
  POIN2 Label_9_0136164C
 BYTE   PATT
  POIN2 Label_9_0136164C
 BYTE   PATT
  POIN2 Label_9_0136164C
 BYTE   PATT
  POIN2 Label_9_0136164C
 BYTE   PATT
  POIN2 Label_9_0136164C
 BYTE   PATT
  POIN2 Label_9_0136164C
 BYTE   PATT
  POIN2 Label_9_0136164C
 BYTE   PATT
  POIN2 Label_9_0136164C
 BYTE   PATT
  POIN2 Label_9_0136164C
 BYTE   PATT
  POIN2 Label_9_0136164C
 BYTE   PATT
  POIN2 Label_9_0136164C
 BYTE   PATT
  POIN2 Label_9_0136164C
 BYTE   PATT
  POIN2 Label_9_0136164C
 BYTE   PATT
  POIN2 Label_9_0136164C
 BYTE   PATT
  POIN2 Label_9_0136164C
 BYTE   PATT
  POIN2 Label_9_0136164C
 BYTE   PATT
  POIN2 Label_9_0136164C
 BYTE   PATT
  POIN2 Label_9_0136164C
 BYTE   PATT
  POIN2 Label_9_0136164C
 BYTE   PATT
  POIN2 Label_9_0136164C
 BYTE   PATT
  POIN2 Label_9_0136164C
 BYTE   PATT
  POIN2 Label_9_0136164C
 BYTE   PATT
  POIN2 Label_9_0136164C
 BYTE   PATT
  POIN2 Label_9_0136164C
 BYTE   PATT
  POIN2 Label_9_0136164C
 BYTE   PATT
  POIN2 Label_9_0136164C
 BYTE   PATT
  POIN2 Label_9_0136164C
 BYTE   PATT
  POIN2 Label_9_0136164C
 BYTE   PATT
  POIN2 Label_9_0136164C
 BYTE   PATT
  POIN2 Label_9_0136164C
 BYTE   PATT
  POIN2 Label_9_0136164C
 BYTE   PATT
  POIN2 Label_9_0136164C
 BYTE   PATT
  POIN2 Label_9_0136164C
 BYTE   PATT
  POIN2 Label_9_0136164C
 BYTE   PATT
  POIN2 Label_9_0136164C
// 004   ----------------------------------------
 BYTE   W96
// 005   ----------------------------------------
 BYTE   W96
// 006   ----------------------------------------
 BYTE   W96
// 007   ----------------------------------------
 BYTE   W96
// 008   ----------------------------------------
 BYTE   W96
// 009   ----------------------------------------
 BYTE   W96
// 010   ----------------------------------------
 BYTE   W96
// 011   ----------------------------------------
 BYTE   W96
// 012   ----------------------------------------
 BYTE   W96
// 013   ----------------------------------------
 BYTE   W96
// 014   ----------------------------------------
 BYTE   W96
// 015   ----------------------------------------
 BYTE   W96
 BYTE   PATT
  POIN2 Label_9_0136164C
 BYTE   PATT
  POIN2 Label_9_0136164C
 BYTE   PATT
  POIN2 Label_9_0136164C
 BYTE   PATT
  POIN2 Label_9_0136164C
 BYTE   PATT
  POIN2 Label_9_0136164C
 BYTE   PATT
  POIN2 Label_9_0136164C
 BYTE   PATT
  POIN2 Label_9_0136164C
 BYTE   PATT
  POIN2 Label_9_0136164C
 BYTE   PATT
  POIN2 Label_9_01361605
 BYTE   PATT
  POIN2 Label_9_01361605
 BYTE   PATT
  POIN2 Label_9_01361605
 BYTE   PATT
  POIN2 Label_9_01361605
 BYTE   PATT
  POIN2 Label_9_01361605
 BYTE   PATT
  POIN2 Label_9_0136162E
 BYTE   PATT
  POIN2 Label_9_0136164C
 BYTE   PATT
  POIN2 Label_9_0136164C
 BYTE   PATT
  POIN2 Label_9_0136164C
 BYTE   PATT
  POIN2 Label_9_0136164C
 BYTE   PATT
  POIN2 Label_9_0136164C
 BYTE   PATT
  POIN2 Label_9_0136164C
 BYTE   PATT
  POIN2 Label_9_0136164C
 BYTE   PATT
  POIN2 Label_9_0136164C
 BYTE   PATT
  POIN2 Label_9_0136164C
 BYTE   PATT
  POIN2 Label_9_0136164C
 BYTE   PATT
  POIN2 Label_9_0136164C
 BYTE   PATT
  POIN2 Label_9_0136164C
 BYTE   PATT
  POIN2 Label_9_0136164C
 BYTE   PATT
  POIN2 Label_9_0136164C
 BYTE   PATT
  POIN2 Label_9_0136164C
 BYTE   PATT
  POIN2 Label_9_0136164C
 BYTE   PATT
  POIN2 Label_9_0136164C
 BYTE   PATT
  POIN2 Label_9_0136164C
 BYTE   PATT
  POIN2 Label_9_0136164C
 BYTE   PATT
  POIN2 Label_9_0136164C
 BYTE   PATT
  POIN2 Label_9_0136164C
 BYTE   PATT
  POIN2 Label_9_0136164C
 BYTE   PATT
  POIN2 Label_9_0136164C
 BYTE   PATT
  POIN2 Label_9_0136164C
 BYTE   PATT
  POIN2 Label_9_0136164C
 BYTE   PATT
  POIN2 Label_9_0136164C
 BYTE   PATT
  POIN2 Label_9_0136164C
 BYTE   PATT
  POIN2 Label_9_0136164C
 BYTE   PATT
  POIN2 Label_9_0136164C
 BYTE   PATT
  POIN2 Label_9_0136164C
 BYTE   PATT
  POIN2 Label_9_0136164C
 BYTE   PATT
  POIN2 Label_9_0136164C
 BYTE   PATT
  POIN2 Label_9_0136164C
 BYTE   PATT
  POIN2 Label_9_0136164C
 BYTE   PATT
  POIN2 Label_9_0136164C
 BYTE   PATT
  POIN2 Label_9_0136164C
 BYTE   PATT
  POIN2 Label_9_0136164C
 BYTE   PATT
  POIN2 Label_9_0136164C
 BYTE   PATT
  POIN2 Label_9_0136164C
 BYTE   PATT
  POIN2 Label_9_0136164C
 BYTE   PATT
  POIN2 Label_9_0136164C
 BYTE   PATT
  POIN2 Label_9_0136164C
 BYTE   PATT
  POIN2 Label_9_0136164C
 BYTE   PATT
  POIN2 Label_9_0136164C
 BYTE   PATT
  POIN2 Label_9_0136164C
 BYTE   PATT
  POIN2 Label_9_0136164C
 BYTE   PATT
  POIN2 Label_9_0136164C
 BYTE   PATT
  POIN2 Label_9_0136164C
 BYTE   PATT
  POIN2 Label_9_0136164C
 BYTE   PATT
  POIN2 Label_9_0136164C
 BYTE   PATT
  POIN2 Label_9_0136164C
 BYTE   PATT
  POIN2 Label_9_0136164C
 BYTE   PATT
  POIN2 Label_9_0136164C
 BYTE   PATT
  POIN2 Label_9_0136164C
// 016   ----------------------------------------
 BYTE   W96
// 017   ----------------------------------------
 BYTE   W96
// 018   ----------------------------------------
 BYTE   W96
// 019   ----------------------------------------
 BYTE   W96
// 020   ----------------------------------------
 BYTE   W96
// 021   ----------------------------------------
 BYTE   W96
// 022   ----------------------------------------
 BYTE   W96
// 023   ----------------------------------------
 BYTE   W96
// 024   ----------------------------------------
 BYTE   W96
// 025   ----------------------------------------
 BYTE   W96
// 026   ----------------------------------------
 BYTE   W96
// 027   ----------------------------------------
 BYTE   W96
 BYTE   PATT
  POIN2 Label_9_0136164C
 BYTE   PATT
  POIN2 Label_9_0136164C
 BYTE   PATT
  POIN2 Label_9_0136164C
 BYTE   PATT
  POIN2 Label_9_0136164C
 BYTE   PATT
  POIN2 Label_9_0136164C
 BYTE   PATT
  POIN2 Label_9_0136164C
 BYTE   PATT
  POIN2 Label_9_0136164C
 BYTE   PATT
  POIN2 Label_9_0136164C
 BYTE   PATT
  POIN2 Label_9_01361605
 BYTE   PATT
  POIN2 Label_9_01361605
 BYTE   PATT
  POIN2 Label_9_01361605
 BYTE   PATT
  POIN2 Label_9_01361605
 BYTE   PATT
  POIN2 Label_9_01361605
// 028   ----------------------------------------
 BYTE   N03  Dn0  v060
 BYTE   N96  An1
 BYTE   W12
 BYTE   N03  Dn0  v020
 BYTE   W12
 BYTE   Dn0  v060
 BYTE   W12
 BYTE   Dn0  v020
 BYTE   W12
 BYTE   Dn0  v060
 BYTE   W12
 BYTE   Dn0  v020
 BYTE   W12
 BYTE   Dn0  v060
 BYTE   W12
 BYTE   Dn0  v020
 BYTE   W12
 BYTE   PATT
  POIN2 Label_9_0136164C
 BYTE   PATT
  POIN2 Label_9_0136164C
// 029   ----------------------------------------
 BYTE   GoTo
  POIN2 Label_9_013615E2
 BYTE   FINE

//**************** Track 11 (Midi-Chn.10) ****************//

FF9BossBattleAReliableChair_011:
// 000   ----------------------------------------
 BYTE   KEYSH   FF9BossBattleAReliableChair_key+0
Label_10_0136194A:
 BYTE   VOICE   48
 BYTE   BENDR  68
 BYTE   VOL   50*FF9BossBattleAReliableChair_mvl/mxv
 BYTE   MODT 0
 BYTE   CnM2
 BYTE   LFOS 0
 BYTE   Gs1
 BYTE   N03  Dn1  v072
 BYTE   W06
 BYTE   Dn1  v048
 BYTE   W06
 BYTE   Dn1  v060
 BYTE   W84
// 001   ----------------------------------------
Label_10_0136195E:
 BYTE   W60
 BYTE   N03  Dn1  v060
 BYTE   W04
 BYTE   Dn1  v048
 BYTE   W04
 BYTE   N03
 BYTE   W04
 BYTE   Dn1  v072
 BYTE   W12
 BYTE   Dn1  v060
 BYTE   W04
 BYTE   Dn1  v048
 BYTE   W04
 BYTE   N03
 BYTE   W04
 BYTE   PEND 
// 002   ----------------------------------------
 BYTE   Dn1  v072
 BYTE   W96
// 003   ----------------------------------------
 BYTE   W96
// 004   ----------------------------------------
Label_10_01361978:
 BYTE   N03  Dn1  v072
 BYTE   W06
 BYTE   Dn1  v048
 BYTE   W06
 BYTE   Dn1  v060
 BYTE   W84
 BYTE   PEND 
 BYTE   PATT
  POIN2 Label_10_0136195E
// 005   ----------------------------------------
 BYTE   N03  Dn1  v072
 BYTE   W96
// 006   ----------------------------------------
 BYTE   W96
 BYTE   PATT
  POIN2 Label_10_01361978
 BYTE   PATT
  POIN2 Label_10_0136195E
// 007   ----------------------------------------
 BYTE   N03  Dn1  v072
 BYTE   W96
// 008   ----------------------------------------
 BYTE   W96
 BYTE   PATT
  POIN2 Label_10_01361978
 BYTE   PATT
  POIN2 Label_10_0136195E
// 009   ----------------------------------------
 BYTE   N03  Dn1  v072
 BYTE   W96
// 010   ----------------------------------------
 BYTE   W96
 BYTE   PATT
  POIN2 Label_10_01361978
 BYTE   PATT
  POIN2 Label_10_0136195E
// 011   ----------------------------------------
 BYTE   N03  Dn1  v072
 BYTE   W96
// 012   ----------------------------------------
 BYTE   W96
 BYTE   PATT
  POIN2 Label_10_01361978
 BYTE   PATT
  POIN2 Label_10_0136195E
// 013   ----------------------------------------
 BYTE   N03  Dn1  v072
 BYTE   W96
// 014   ----------------------------------------
 BYTE   W96
 BYTE   PATT
  POIN2 Label_10_01361978
 BYTE   PATT
  POIN2 Label_10_0136195E
// 015   ----------------------------------------
 BYTE   N03  Dn1  v072
 BYTE   W96
// 016   ----------------------------------------
 BYTE   W96
// 017   ----------------------------------------
Label_10_013619D8:
 BYTE   N03  Dn1  v060
 BYTE   W12
 BYTE   Dn1  v036
 BYTE   W12
 BYTE   Dn1  v048
 BYTE   W12
 BYTE   Dn1  v036
 BYTE   W12
 BYTE   Dn1  v060
 BYTE   N03  Bn2  v036
 BYTE   W12
 BYTE   Dn1
 BYTE   W12
 BYTE   Dn1  v048
 BYTE   W06
 BYTE   Dn1  v036
 BYTE   W18
 BYTE   PEND 
// 018   ----------------------------------------
Label_10_013619F4:
 BYTE   N03  Dn1  v060
 BYTE   W12
 BYTE   Dn1  v036
 BYTE   W12
 BYTE   Dn1  v048
 BYTE   W12
 BYTE   Dn1  v036
 BYTE   W12
 BYTE   Dn1  v060
 BYTE   N03  Bn2  v036
 BYTE   W12
 BYTE   Dn1
 BYTE   W12
 BYTE   Dn1  v048
 BYTE   W06
 BYTE   Dn1  v036
 BYTE   W06
 BYTE   N03
 BYTE   W06
 BYTE   N03
 BYTE   W06
 BYTE   PEND 
 BYTE   PATT
  POIN2 Label_10_013619D8
 BYTE   PATT
  POIN2 Label_10_013619F4
 BYTE   PATT
  POIN2 Label_10_013619D8
// 019   ----------------------------------------
Label_10_01361A23:
 BYTE   N03  Dn1  v060
 BYTE   W12
 BYTE   Dn1  v036
 BYTE   W12
 BYTE   Dn1  v048
 BYTE   W12
 BYTE   Dn1  v036
 BYTE   W12
 BYTE   Dn1  v060
 BYTE   W12
 BYTE   Dn1  v036
 BYTE   W12
 BYTE   Dn1  v048
 BYTE   W06
 BYTE   Dn1  v036
 BYTE   W06
 BYTE   N03
 BYTE   W06
 BYTE   N03
 BYTE   W06
 BYTE   PEND 
// 020   ----------------------------------------
Label_10_01361A41:
 BYTE   N03  Dn1  v060
 BYTE   W12
 BYTE   Dn1  v036
 BYTE   W12
 BYTE   Dn1  v048
 BYTE   W12
 BYTE   Dn1  v036
 BYTE   W12
 BYTE   Dn1  v060
 BYTE   W12
 BYTE   Dn1  v036
 BYTE   W12
 BYTE   Dn1  v048
 BYTE   W06
 BYTE   Dn1  v036
 BYTE   W18
 BYTE   PEND 
 BYTE   PATT
  POIN2 Label_10_01361A23
 BYTE   PATT
  POIN2 Label_10_013619D8
 BYTE   PATT
  POIN2 Label_10_013619F4
 BYTE   PATT
  POIN2 Label_10_013619D8
 BYTE   PATT
  POIN2 Label_10_013619F4
 BYTE   PATT
  POIN2 Label_10_013619D8
 BYTE   PATT
  POIN2 Label_10_01361A23
 BYTE   PATT
  POIN2 Label_10_01361A41
 BYTE   PATT
  POIN2 Label_10_01361A23
// 021   ----------------------------------------
 BYTE   N03  Bn2  v036
 BYTE   W96
// 022   ----------------------------------------
 BYTE   W72
 BYTE   N03
 BYTE   W24
// 023   ----------------------------------------
 BYTE   W96
// 024   ----------------------------------------
 BYTE   W96
// 025   ----------------------------------------
 BYTE   N03
 BYTE   W96
// 026   ----------------------------------------
 BYTE   W72
 BYTE   N03
 BYTE   W24
// 027   ----------------------------------------
 BYTE   W96
// 028   ----------------------------------------
Label_10_01361A97:
 BYTE   W72
 BYTE   N03  Dn1  v060
 BYTE   W08
 BYTE   Dn1  v048
 BYTE   W08
 BYTE   N03
 BYTE   W08
 BYTE   PEND 
// 029   ----------------------------------------
Label_10_01361AA2:
 BYTE   N03  Dn1  v072
 BYTE   N03  Bn2  v048
 BYTE   W42
 BYTE   Dn1
 BYTE   W03
 BYTE   N03
 BYTE   W03
 BYTE   Dn1  v072
 BYTE   W42
 BYTE   Dn1  v048
 BYTE   W03
 BYTE   N03
 BYTE   W03
 BYTE   PEND 
// 030   ----------------------------------------
Label_10_01361AB6:
 BYTE   N03  Dn1  v072
 BYTE   W42
 BYTE   Dn1  v048
 BYTE   W03
 BYTE   N03
 BYTE   W03
 BYTE   Dn1  v072
 BYTE   W18
 BYTE   Dn1  v048
 BYTE   W03
 BYTE   N03
 BYTE   W03
 BYTE   Dn1  v072
 BYTE   N03  Bn2  v048
 BYTE   W24
 BYTE   PEND 
// 031   ----------------------------------------
 BYTE   W96
 BYTE   PATT
  POIN2 Label_10_01361A97
 BYTE   PATT
  POIN2 Label_10_01361AA2
 BYTE   PATT
  POIN2 Label_10_01361AB6
// 032   ----------------------------------------
 BYTE   W96
// 033   ----------------------------------------
 BYTE   W96
// 034   ----------------------------------------
Label_10_01361AE0:
 BYTE   N03  Dn1  v060
 BYTE   N03  Bn2  v036
 BYTE   W12
 BYTE   Dn1
 BYTE   W12
 BYTE   Dn1  v048
 BYTE   W12
 BYTE   Dn1  v036
 BYTE   W12
 BYTE   Dn1  v060
 BYTE   W12
 BYTE   Dn1  v036
 BYTE   W12
 BYTE   Dn1  v048
 BYTE   W12
 BYTE   Dn1  v036
 BYTE   W06
 BYTE   N03
 BYTE   W06
 BYTE   PEND 
// 035   ----------------------------------------
Label_10_01361AFE:
 BYTE   N03  Dn1  v060
 BYTE   W12
 BYTE   Dn1  v048
 BYTE   W06
 BYTE   Dn1  v036
 BYTE   W06
 BYTE   Dn1  v048
 BYTE   W12
 BYTE   Dn1  v036
 BYTE   W12
 BYTE   Dn1  v060
 BYTE   W12
 BYTE   Dn1  v036
 BYTE   W12
 BYTE   Dn1  v048
 BYTE   W12
 BYTE   Dn1  v036
 BYTE   W12
 BYTE   PEND 
// 036   ----------------------------------------
Label_10_01361B1B:
 BYTE   N03  Dn1  v060
 BYTE   W12
 BYTE   Dn1  v036
 BYTE   W12
 BYTE   Dn1  v048
 BYTE   W12
 BYTE   Dn1  v036
 BYTE   W12
 BYTE   Dn1  v060
 BYTE   W12
 BYTE   Dn1  v036
 BYTE   W12
 BYTE   Dn1  v048
 BYTE   W12
 BYTE   Dn1  v036
 BYTE   W06
 BYTE   N03
 BYTE   W06
 BYTE   PEND 
 BYTE   PATT
  POIN2 Label_10_01361AFE
 BYTE   PATT
  POIN2 Label_10_01361B1B
 BYTE   PATT
  POIN2 Label_10_01361AFE
 BYTE   PATT
  POIN2 Label_10_01361B1B
 BYTE   PATT
  POIN2 Label_10_01361AFE
 BYTE   PATT
  POIN2 Label_10_01361B1B
 BYTE   PATT
  POIN2 Label_10_01361AFE
 BYTE   PATT
  POIN2 Label_10_01361B1B
 BYTE   PATT
  POIN2 Label_10_01361AFE
 BYTE   PATT
  POIN2 Label_10_01361AA2
 BYTE   PATT
  POIN2 Label_10_01361AB6
// 037   ----------------------------------------
 BYTE   W96
 BYTE   PATT
  POIN2 Label_10_01361A97
 BYTE   PATT
  POIN2 Label_10_01361AA2
 BYTE   PATT
  POIN2 Label_10_01361AB6
// 038   ----------------------------------------
 BYTE   W96
// 039   ----------------------------------------
 BYTE   W96
 BYTE   PATT
  POIN2 Label_10_01361978
 BYTE   PATT
  POIN2 Label_10_0136195E
// 040   ----------------------------------------
 BYTE   N03  Dn1  v072
 BYTE   W96
// 041   ----------------------------------------
 BYTE   W96
 BYTE   PATT
  POIN2 Label_10_01361978
 BYTE   PATT
  POIN2 Label_10_0136195E
// 042   ----------------------------------------
 BYTE   N03  Dn1  v072
 BYTE   W96
// 043   ----------------------------------------
 BYTE   W96
 BYTE   PATT
  POIN2 Label_10_01361978
 BYTE   PATT
  POIN2 Label_10_0136195E
// 044   ----------------------------------------
 BYTE   N03  Dn1  v072
 BYTE   W96
// 045   ----------------------------------------
 BYTE   W96
 BYTE   PATT
  POIN2 Label_10_01361978
 BYTE   PATT
  POIN2 Label_10_0136195E
// 046   ----------------------------------------
 BYTE   N03  Dn1  v072
 BYTE   W96
// 047   ----------------------------------------
 BYTE   W96
 BYTE   PATT
  POIN2 Label_10_01361978
 BYTE   PATT
  POIN2 Label_10_0136195E
// 048   ----------------------------------------
 BYTE   N03  Dn1  v072
 BYTE   W96
// 049   ----------------------------------------
 BYTE   W96
 BYTE   PATT
  POIN2 Label_10_01361978
 BYTE   PATT
  POIN2 Label_10_0136195E
// 050   ----------------------------------------
 BYTE   N03  Dn1  v072
 BYTE   W96
// 051   ----------------------------------------
 BYTE   W96
 BYTE   PATT
  POIN2 Label_10_01361978
 BYTE   PATT
  POIN2 Label_10_0136195E
// 052   ----------------------------------------
 BYTE   N03  Dn1  v072
 BYTE   W96
// 053   ----------------------------------------
 BYTE   W96
 BYTE   PATT
  POIN2 Label_10_013619D8
 BYTE   PATT
  POIN2 Label_10_013619F4
 BYTE   PATT
  POIN2 Label_10_013619D8
 BYTE   PATT
  POIN2 Label_10_013619F4
 BYTE   PATT
  POIN2 Label_10_013619D8
 BYTE   PATT
  POIN2 Label_10_01361A23
 BYTE   PATT
  POIN2 Label_10_01361A41
 BYTE   PATT
  POIN2 Label_10_01361A23
 BYTE   PATT
  POIN2 Label_10_013619D8
 BYTE   PATT
  POIN2 Label_10_013619F4
 BYTE   PATT
  POIN2 Label_10_013619D8
 BYTE   PATT
  POIN2 Label_10_013619F4
 BYTE   PATT
  POIN2 Label_10_013619D8
 BYTE   PATT
  POIN2 Label_10_01361A23
 BYTE   PATT
  POIN2 Label_10_01361A41
 BYTE   PATT
  POIN2 Label_10_01361A23
// 054   ----------------------------------------
 BYTE   N03  Bn2  v036
 BYTE   W96
// 055   ----------------------------------------
 BYTE   W72
 BYTE   N03
 BYTE   W24
// 056   ----------------------------------------
 BYTE   W96
// 057   ----------------------------------------
 BYTE   W96
// 058   ----------------------------------------
 BYTE   N03
 BYTE   W96
// 059   ----------------------------------------
 BYTE   W72
 BYTE   N03
 BYTE   W24
// 060   ----------------------------------------
 BYTE   W96
 BYTE   PATT
  POIN2 Label_10_01361A97
 BYTE   PATT
  POIN2 Label_10_01361AA2
 BYTE   PATT
  POIN2 Label_10_01361AB6
// 061   ----------------------------------------
 BYTE   W96
 BYTE   PATT
  POIN2 Label_10_01361A97
 BYTE   PATT
  POIN2 Label_10_01361AA2
 BYTE   PATT
  POIN2 Label_10_01361AB6
// 062   ----------------------------------------
 BYTE   W96
// 063   ----------------------------------------
 BYTE   W96
 BYTE   PATT
  POIN2 Label_10_01361AE0
 BYTE   PATT
  POIN2 Label_10_01361AFE
 BYTE   PATT
  POIN2 Label_10_01361B1B
 BYTE   PATT
  POIN2 Label_10_01361AFE
 BYTE   PATT
  POIN2 Label_10_01361B1B
 BYTE   PATT
  POIN2 Label_10_01361AFE
 BYTE   PATT
  POIN2 Label_10_01361B1B
 BYTE   PATT
  POIN2 Label_10_01361AFE
 BYTE   PATT
  POIN2 Label_10_01361B1B
 BYTE   PATT
  POIN2 Label_10_01361AFE
 BYTE   PATT
  POIN2 Label_10_01361B1B
 BYTE   PATT
  POIN2 Label_10_01361AFE
 BYTE   PATT
  POIN2 Label_10_01361AA2
 BYTE   PATT
  POIN2 Label_10_01361AB6
// 064   ----------------------------------------
 BYTE   W96
 BYTE   PATT
  POIN2 Label_10_01361A97
 BYTE   PATT
  POIN2 Label_10_01361AA2
 BYTE   PATT
  POIN2 Label_10_01361AB6
// 065   ----------------------------------------
 BYTE   W96
// 066   ----------------------------------------
 BYTE   W96
 BYTE   PATT
  POIN2 Label_10_01361978
 BYTE   PATT
  POIN2 Label_10_0136195E
// 067   ----------------------------------------
 BYTE   N03  Dn1  v072
 BYTE   W96
// 068   ----------------------------------------
 BYTE   W96
 BYTE   PATT
  POIN2 Label_10_01361978
 BYTE   PATT
  POIN2 Label_10_0136195E
// 069   ----------------------------------------
 BYTE   N03  Dn1  v072
 BYTE   W96
// 070   ----------------------------------------
 BYTE   W96
// 071   ----------------------------------------
 BYTE   GoTo
  POIN2 Label_10_0136194A
 BYTE   FINE

//**************** Track 12 (Midi-Chn.11) ****************//

FF9BossBattleAReliableChair_012:
// 000   ----------------------------------------
 BYTE   KEYSH   FF9BossBattleAReliableChair_key+0
Label_11_01361CEA:
 BYTE   VOICE   116
 BYTE   BENDR  72
 BYTE   PAN   c_v+0
 BYTE   VOL   50*FF9BossBattleAReliableChair_mvl/mxv
 BYTE   MODT 0
 BYTE   CnM2
 BYTE   LFOS 0
 BYTE   Gs1
 BYTE   N12  Cn2  v100
 BYTE   W12
 BYTE   Cn2  v072
 BYTE   W12
 BYTE   Cn2  v048
 BYTE   W12
 BYTE   Cn2  v100
 BYTE   W12
 BYTE   Cn2  v072
 BYTE   W12
 BYTE   Cn2  v048
 BYTE   W12
 BYTE   Cn2  v100
 BYTE   W12
 BYTE   Cn2  v072
 BYTE   W12
// 001   ----------------------------------------
Label_11_01361D0F:
 BYTE   N12  Cn2  v048
 BYTE   W12
 BYTE   Cn2  v100
 BYTE   W12
 BYTE   Cn2  v072
 BYTE   W12
 BYTE   Cn2  v048
 BYTE   W12
 BYTE   Cn2  v100
 BYTE   W12
 BYTE   Cn2  v072
 BYTE   W12
 BYTE   Cn2  v100
 BYTE   W12
 BYTE   Cn2  v048
 BYTE   W12
 BYTE   PEND 
// 002   ----------------------------------------
Label_11_01361D29:
 BYTE   N12  Cn2  v100
 BYTE   W12
 BYTE   Cn2  v072
 BYTE   W12
 BYTE   Cn2  v048
 BYTE   W12
 BYTE   Cn2  v100
 BYTE   W12
 BYTE   Cn2  v072
 BYTE   W12
 BYTE   Cn2  v048
 BYTE   W12
 BYTE   Cn2  v100
 BYTE   W12
 BYTE   Cn2  v072
 BYTE   W12
 BYTE   PEND 
 BYTE   PATT
  POIN2 Label_11_01361D0F
 BYTE   PATT
  POIN2 Label_11_01361D29
 BYTE   PATT
  POIN2 Label_11_01361D0F
 BYTE   PATT
  POIN2 Label_11_01361D29
 BYTE   PATT
  POIN2 Label_11_01361D0F
 BYTE   PATT
  POIN2 Label_11_01361D29
 BYTE   PATT
  POIN2 Label_11_01361D0F
 BYTE   PATT
  POIN2 Label_11_01361D29
 BYTE   PATT
  POIN2 Label_11_01361D0F
 BYTE   PATT
  POIN2 Label_11_01361D29
 BYTE   PATT
  POIN2 Label_11_01361D0F
 BYTE   PATT
  POIN2 Label_11_01361D29
 BYTE   PATT
  POIN2 Label_11_01361D0F
 BYTE   PATT
  POIN2 Label_11_01361D29
 BYTE   PATT
  POIN2 Label_11_01361D0F
 BYTE   PATT
  POIN2 Label_11_01361D29
 BYTE   PATT
  POIN2 Label_11_01361D0F
 BYTE   PATT
  POIN2 Label_11_01361D29
 BYTE   PATT
  POIN2 Label_11_01361D0F
 BYTE   PATT
  POIN2 Label_11_01361D29
 BYTE   PATT
  POIN2 Label_11_01361D0F
 BYTE   PATT
  POIN2 Label_11_01361D29
 BYTE   PATT
  POIN2 Label_11_01361D0F
 BYTE   PATT
  POIN2 Label_11_01361D29
 BYTE   PATT
  POIN2 Label_11_01361D0F
 BYTE   PATT
  POIN2 Label_11_01361D29
 BYTE   PATT
  POIN2 Label_11_01361D0F
 BYTE   PATT
  POIN2 Label_11_01361D29
 BYTE   PATT
  POIN2 Label_11_01361D0F
 BYTE   PATT
  POIN2 Label_11_01361D29
 BYTE   PATT
  POIN2 Label_11_01361D0F
 BYTE   PATT
  POIN2 Label_11_01361D29
 BYTE   PATT
  POIN2 Label_11_01361D0F
 BYTE   PATT
  POIN2 Label_11_01361D29
 BYTE   PATT
  POIN2 Label_11_01361D0F
 BYTE   PATT
  POIN2 Label_11_01361D29
 BYTE   PATT
  POIN2 Label_11_01361D0F
 BYTE   PATT
  POIN2 Label_11_01361D29
 BYTE   PATT
  POIN2 Label_11_01361D0F
 BYTE   PATT
  POIN2 Label_11_01361D29
 BYTE   PATT
  POIN2 Label_11_01361D0F
 BYTE   PATT
  POIN2 Label_11_01361D29
 BYTE   PATT
  POIN2 Label_11_01361D0F
 BYTE   PATT
  POIN2 Label_11_01361D29
 BYTE   PATT
  POIN2 Label_11_01361D0F
 BYTE   PATT
  POIN2 Label_11_01361D29
 BYTE   PATT
  POIN2 Label_11_01361D0F
 BYTE   PATT
  POIN2 Label_11_01361D29
 BYTE   PATT
  POIN2 Label_11_01361D0F
 BYTE   PATT
  POIN2 Label_11_01361D29
 BYTE   PATT
  POIN2 Label_11_01361D0F
 BYTE   PATT
  POIN2 Label_11_01361D29
 BYTE   PATT
  POIN2 Label_11_01361D0F
 BYTE   PATT
  POIN2 Label_11_01361D29
 BYTE   PATT
  POIN2 Label_11_01361D0F
 BYTE   PATT
  POIN2 Label_11_01361D29
 BYTE   PATT
  POIN2 Label_11_01361D0F
// 003   ----------------------------------------
Label_11_01361E60:
 BYTE   N12  Cn1  v088
 BYTE   W12
 BYTE   Cn1  v060
 BYTE   W12
 BYTE   Cn1  v088
 BYTE   W12
 BYTE   Cn1  v060
 BYTE   W12
 BYTE   Cn1  v088
 BYTE   W12
 BYTE   Cn1  v060
 BYTE   W12
 BYTE   Cn1  v088
 BYTE   W12
 BYTE   Cn1  v060
 BYTE   W12
 BYTE   PEND 
 BYTE   PATT
  POIN2 Label_11_01361E60
 BYTE   PATT
  POIN2 Label_11_01361E60
 BYTE   PATT
  POIN2 Label_11_01361E60
 BYTE   PATT
  POIN2 Label_11_01361E60
 BYTE   PATT
  POIN2 Label_11_01361E60
 BYTE   PATT
  POIN2 Label_11_01361E60
 BYTE   PATT
  POIN2 Label_11_01361E60
 BYTE   PATT
  POIN2 Label_11_01361E60
 BYTE   PATT
  POIN2 Label_11_01361E60
 BYTE   PATT
  POIN2 Label_11_01361E60
 BYTE   PATT
  POIN2 Label_11_01361E60
 BYTE   PATT
  POIN2 Label_11_01361D29
 BYTE   PATT
  POIN2 Label_11_01361D0F
 BYTE   PATT
  POIN2 Label_11_01361D29
 BYTE   PATT
  POIN2 Label_11_01361D0F
 BYTE   PATT
  POIN2 Label_11_01361D29
 BYTE   PATT
  POIN2 Label_11_01361D0F
 BYTE   PATT
  POIN2 Label_11_01361D29
 BYTE   PATT
  POIN2 Label_11_01361D0F
 BYTE   PATT
  POIN2 Label_11_01361D29
 BYTE   PATT
  POIN2 Label_11_01361D0F
 BYTE   PATT
  POIN2 Label_11_01361D29
 BYTE   PATT
  POIN2 Label_11_01361D0F
 BYTE   PATT
  POIN2 Label_11_01361D29
 BYTE   PATT
  POIN2 Label_11_01361D0F
 BYTE   PATT
  POIN2 Label_11_01361D29
 BYTE   PATT
  POIN2 Label_11_01361D0F
 BYTE   PATT
  POIN2 Label_11_01361D29
 BYTE   PATT
  POIN2 Label_11_01361D0F
 BYTE   PATT
  POIN2 Label_11_01361D29
 BYTE   PATT
  POIN2 Label_11_01361D0F
 BYTE   PATT
  POIN2 Label_11_01361D29
 BYTE   PATT
  POIN2 Label_11_01361D0F
 BYTE   PATT
  POIN2 Label_11_01361D29
 BYTE   PATT
  POIN2 Label_11_01361D0F
 BYTE   PATT
  POIN2 Label_11_01361D29
 BYTE   PATT
  POIN2 Label_11_01361D0F
 BYTE   PATT
  POIN2 Label_11_01361D29
 BYTE   PATT
  POIN2 Label_11_01361D0F
 BYTE   PATT
  POIN2 Label_11_01361D29
 BYTE   PATT
  POIN2 Label_11_01361D0F
 BYTE   PATT
  POIN2 Label_11_01361D29
 BYTE   PATT
  POIN2 Label_11_01361D0F
 BYTE   PATT
  POIN2 Label_11_01361D29
 BYTE   PATT
  POIN2 Label_11_01361D0F
 BYTE   PATT
  POIN2 Label_11_01361D29
 BYTE   PATT
  POIN2 Label_11_01361D0F
 BYTE   PATT
  POIN2 Label_11_01361D29
 BYTE   PATT
  POIN2 Label_11_01361D0F
 BYTE   PATT
  POIN2 Label_11_01361D29
 BYTE   PATT
  POIN2 Label_11_01361D0F
 BYTE   PATT
  POIN2 Label_11_01361D29
 BYTE   PATT
  POIN2 Label_11_01361D0F
 BYTE   PATT
  POIN2 Label_11_01361D29
 BYTE   PATT
  POIN2 Label_11_01361D0F
 BYTE   PATT
  POIN2 Label_11_01361D29
 BYTE   PATT
  POIN2 Label_11_01361D0F
 BYTE   PATT
  POIN2 Label_11_01361D29
 BYTE   PATT
  POIN2 Label_11_01361D0F
 BYTE   PATT
  POIN2 Label_11_01361D29
 BYTE   PATT
  POIN2 Label_11_01361D0F
 BYTE   PATT
  POIN2 Label_11_01361D29
 BYTE   PATT
  POIN2 Label_11_01361D0F
 BYTE   PATT
  POIN2 Label_11_01361D29
 BYTE   PATT
  POIN2 Label_11_01361D0F
 BYTE   PATT
  POIN2 Label_11_01361D29
 BYTE   PATT
  POIN2 Label_11_01361D0F
 BYTE   PATT
  POIN2 Label_11_01361D29
 BYTE   PATT
  POIN2 Label_11_01361D0F
 BYTE   PATT
  POIN2 Label_11_01361D29
 BYTE   PATT
  POIN2 Label_11_01361D0F
 BYTE   PATT
  POIN2 Label_11_01361D29
 BYTE   PATT
  POIN2 Label_11_01361D0F
 BYTE   PATT
  POIN2 Label_11_01361D29
 BYTE   PATT
  POIN2 Label_11_01361D0F
 BYTE   PATT
  POIN2 Label_11_01361D29
 BYTE   PATT
  POIN2 Label_11_01361D0F
 BYTE   PATT
  POIN2 Label_11_01361D29
 BYTE   PATT
  POIN2 Label_11_01361D0F
 BYTE   PATT
  POIN2 Label_11_01361E60
 BYTE   PATT
  POIN2 Label_11_01361E60
 BYTE   PATT
  POIN2 Label_11_01361E60
 BYTE   PATT
  POIN2 Label_11_01361E60
 BYTE   PATT
  POIN2 Label_11_01361E60
 BYTE   PATT
  POIN2 Label_11_01361E60
 BYTE   PATT
  POIN2 Label_11_01361E60
 BYTE   PATT
  POIN2 Label_11_01361E60
 BYTE   PATT
  POIN2 Label_11_01361E60
 BYTE   PATT
  POIN2 Label_11_01361E60
 BYTE   PATT
  POIN2 Label_11_01361E60
 BYTE   PATT
  POIN2 Label_11_01361E60
 BYTE   PATT
  POIN2 Label_11_01361D29
 BYTE   PATT
  POIN2 Label_11_01361D0F
 BYTE   PATT
  POIN2 Label_11_01361D29
 BYTE   PATT
  POIN2 Label_11_01361D0F
 BYTE   PATT
  POIN2 Label_11_01361D29
 BYTE   PATT
  POIN2 Label_11_01361D0F
 BYTE   PATT
  POIN2 Label_11_01361D29
 BYTE   PATT
  POIN2 Label_11_01361D0F
 BYTE   PATT
  POIN2 Label_11_01361D29
 BYTE   PATT
  POIN2 Label_11_01361D0F
 BYTE   PATT
  POIN2 Label_11_01361D29
 BYTE   PATT
  POIN2 Label_11_01361D0F
 BYTE   PATT
  POIN2 Label_11_01361D29
 BYTE   PATT
  POIN2 Label_11_01361D0F
 BYTE   PATT
  POIN2 Label_11_01361D29
 BYTE   PATT
  POIN2 Label_11_01361D0F
// 004   ----------------------------------------
 BYTE   GoTo
  POIN2 Label_11_01361CEA
 BYTE   FINE

//**************** Track 13 (Midi-Chn.12) ****************//

FF9BossBattleAReliableChair_013:
// 000   ----------------------------------------
 BYTE   KEYSH   FF9BossBattleAReliableChair_key+0
Label_12_0136209A:
 BYTE   VOICE   89
 BYTE   BENDR  64
 BYTE   PAN   c_v-8
 BYTE   VOL   40*FF9BossBattleAReliableChair_mvl/mxv
 BYTE   MODT 0
 BYTE   CnM2
 BYTE   LFOS 0
 BYTE   Gs1
 BYTE   W96
// 001   ----------------------------------------
 BYTE   W96
// 002   ----------------------------------------
 BYTE   W96
// 003   ----------------------------------------
 BYTE   W96
// 004   ----------------------------------------
 BYTE   W96
// 005   ----------------------------------------
 BYTE   W96
// 006   ----------------------------------------
 BYTE   W96
// 007   ----------------------------------------
 BYTE   W96
// 008   ----------------------------------------
 BYTE   W96
// 009   ----------------------------------------
 BYTE   W96
// 010   ----------------------------------------
 BYTE   W96
// 011   ----------------------------------------
 BYTE   W96
// 012   ----------------------------------------
 BYTE   W96
// 013   ----------------------------------------
 BYTE   W96
// 014   ----------------------------------------
 BYTE   W96
// 015   ----------------------------------------
 BYTE   W96
// 016   ----------------------------------------
 BYTE   W96
// 017   ----------------------------------------
 BYTE   W96
// 018   ----------------------------------------
 BYTE   W96
// 019   ----------------------------------------
 BYTE   W96
// 020   ----------------------------------------
 BYTE   W96
// 021   ----------------------------------------
 BYTE   W96
// 022   ----------------------------------------
 BYTE   W96
// 023   ----------------------------------------
 BYTE   W96
// 024   ----------------------------------------
 BYTE   W96
// 025   ----------------------------------------
 BYTE   W96
// 026   ----------------------------------------
 BYTE   W96
// 027   ----------------------------------------
 BYTE   W96
// 028   ----------------------------------------
 BYTE   W96
// 029   ----------------------------------------
 BYTE   W96
// 030   ----------------------------------------
 BYTE   W96
// 031   ----------------------------------------
 BYTE   W96
// 032   ----------------------------------------
 BYTE   W96
// 033   ----------------------------------------
 BYTE   W96
// 034   ----------------------------------------
 BYTE   W96
// 035   ----------------------------------------
 BYTE   W96
// 036   ----------------------------------------
 BYTE   W96
// 037   ----------------------------------------
 BYTE   W96
// 038   ----------------------------------------
 BYTE   W96
// 039   ----------------------------------------
 BYTE   W96
// 040   ----------------------------------------
 BYTE   W96
// 041   ----------------------------------------
 BYTE   W96
// 042   ----------------------------------------
 BYTE   W96
// 043   ----------------------------------------
 BYTE   W96
// 044   ----------------------------------------
Label_12_013620D2:
 BYTE   N12  Cn3  v100
 BYTE   N12  Cn4
 BYTE   W48
 BYTE   Cn3
 BYTE   N12  Cn4
 BYTE   W48
 BYTE   PEND 
// 045   ----------------------------------------
Label_12_013620DD:
 BYTE   N12  Cn3  v100
 BYTE   N12  Cn4
 BYTE   W48
 BYTE   N24  Cn3
 BYTE   N24  Cn4
 BYTE   W24
 BYTE   TIE  Cs3
 BYTE   TIE  Cs4
 BYTE   W24
 BYTE   PEND 
// 046   ----------------------------------------
 BYTE   W96
// 047   ----------------------------------------
 BYTE   W72
 BYTE   EOT
 BYTE   Cs3  v073
 BYTE   N04  Dn3
 BYTE   N04  Dn4
 BYTE   W08
 BYTE   Dn3
 BYTE   N04  Dn4
 BYTE   W08
 BYTE   Dn3
 BYTE   N04  Dn4
 BYTE   W08
// 048   ----------------------------------------
Label_12_01362100:
 BYTE   N12  Dn3  v100
 BYTE   N12  Dn4
 BYTE   W48
 BYTE   Dn3
 BYTE   N12  Dn4
 BYTE   W48
 BYTE   PEND 
// 049   ----------------------------------------
Label_12_0136210B:
 BYTE   N12  Dn3  v100
 BYTE   N12  Dn4
 BYTE   W48
 BYTE   N24  Dn3
 BYTE   N24  Dn4
 BYTE   W24
 BYTE   TIE  En3
 BYTE   TIE  En4
 BYTE   W24
 BYTE   PEND 
// 050   ----------------------------------------
 BYTE   W96
// 051   ----------------------------------------
 BYTE   W72
 BYTE   EOT
 BYTE   En3  v076
 BYTE   N04  Cn3
 BYTE   N04  Cn4
 BYTE   W08
 BYTE   Cn3
 BYTE   N04  Cn4
 BYTE   W08
 BYTE   Cn3
 BYTE   N04  Cn4
 BYTE   W08
 BYTE   PATT
  POIN2 Label_12_013620D2
 BYTE   PATT
  POIN2 Label_12_013620DD
// 052   ----------------------------------------
 BYTE   W96
// 053   ----------------------------------------
 BYTE   W72
 BYTE   EOT
 BYTE   Cs3  v073
 BYTE   N04  Dn3  v100
 BYTE   N04  Dn4
 BYTE   W08
 BYTE   Dn3
 BYTE   N04  Dn4
 BYTE   W08
 BYTE   Dn3
 BYTE   N04  Dn4
 BYTE   W08
 BYTE   PATT
  POIN2 Label_12_01362100
 BYTE   PATT
  POIN2 Label_12_0136210B
// 054   ----------------------------------------
 BYTE   W96
// 055   ----------------------------------------
 BYTE   W96
// 056   ----------------------------------------
 BYTE   EOT
 BYTE   En3  v076
 BYTE   W96
// 057   ----------------------------------------
 BYTE   W96
// 058   ----------------------------------------
 BYTE   W96
// 059   ----------------------------------------
 BYTE   W96
// 060   ----------------------------------------
 BYTE   W96
// 061   ----------------------------------------
 BYTE   W96
// 062   ----------------------------------------
 BYTE   W96
// 063   ----------------------------------------
 BYTE   W96
// 064   ----------------------------------------
 BYTE   N84  Fn3  v088
 BYTE   W96
// 065   ----------------------------------------
Label_12_01362166:
 BYTE   N72  Gn3  v088
 BYTE   W84
 BYTE   N03  Fn3
 BYTE   W06
 BYTE   Gn3
 BYTE   W06
 BYTE   PEND 
// 066   ----------------------------------------
 BYTE   N96  An3
 BYTE   W96
// 067   ----------------------------------------
Label_12_01362173:
 BYTE   W12
 BYTE   N06  Gn3  v088
 BYTE   W12
 BYTE   Bn3
 BYTE   W12
 BYTE   An3
 BYTE   W12
 BYTE   N16  Gn3
 BYTE   W16
 BYTE   An3
 BYTE   W16
 BYTE   Bn3
 BYTE   W16
 BYTE   PEND 
 BYTE   PATT
  POIN2 Label_12_013620D2
 BYTE   PATT
  POIN2 Label_12_013620DD
// 068   ----------------------------------------
 BYTE   W96
// 069   ----------------------------------------
 BYTE   W72
 BYTE   EOT
 BYTE   Cs3  v073
 BYTE   N04  Dn3  v100
 BYTE   N04  Dn4
 BYTE   W08
 BYTE   Dn3
 BYTE   N04  Dn4
 BYTE   W08
 BYTE   Dn3
 BYTE   N04  Dn4
 BYTE   W08
 BYTE   PATT
  POIN2 Label_12_01362100
 BYTE   PATT
  POIN2 Label_12_0136210B
// 070   ----------------------------------------
 BYTE   W96
// 071   ----------------------------------------
 BYTE   W96
// 072   ----------------------------------------
 BYTE   EOT
 BYTE   En3  v076
 BYTE   W96
// 073   ----------------------------------------
 BYTE   W96
// 074   ----------------------------------------
 BYTE   W96
// 075   ----------------------------------------
 BYTE   W96
// 076   ----------------------------------------
 BYTE   W96
// 077   ----------------------------------------
 BYTE   W96
// 078   ----------------------------------------
 BYTE   W96
// 079   ----------------------------------------
 BYTE   W96
// 080   ----------------------------------------
 BYTE   W96
// 081   ----------------------------------------
 BYTE   W96
// 082   ----------------------------------------
 BYTE   W96
// 083   ----------------------------------------
 BYTE   W96
// 084   ----------------------------------------
 BYTE   W96
// 085   ----------------------------------------
 BYTE   W96
// 086   ----------------------------------------
 BYTE   W96
// 087   ----------------------------------------
 BYTE   W96
// 088   ----------------------------------------
 BYTE   W96
// 089   ----------------------------------------
 BYTE   W96
// 090   ----------------------------------------
 BYTE   W96
// 091   ----------------------------------------
 BYTE   W96
// 092   ----------------------------------------
 BYTE   W96
// 093   ----------------------------------------
 BYTE   W96
// 094   ----------------------------------------
 BYTE   W96
// 095   ----------------------------------------
 BYTE   W96
// 096   ----------------------------------------
 BYTE   W96
// 097   ----------------------------------------
 BYTE   W96
// 098   ----------------------------------------
 BYTE   W96
// 099   ----------------------------------------
 BYTE   W96
// 100   ----------------------------------------
 BYTE   W96
// 101   ----------------------------------------
 BYTE   W96
// 102   ----------------------------------------
 BYTE   W96
// 103   ----------------------------------------
 BYTE   W96
// 104   ----------------------------------------
 BYTE   W96
// 105   ----------------------------------------
 BYTE   W96
// 106   ----------------------------------------
 BYTE   W96
// 107   ----------------------------------------
 BYTE   W96
// 108   ----------------------------------------
 BYTE   W96
// 109   ----------------------------------------
 BYTE   W96
// 110   ----------------------------------------
 BYTE   W96
// 111   ----------------------------------------
 BYTE   W96
// 112   ----------------------------------------
 BYTE   W96
// 113   ----------------------------------------
 BYTE   W96
// 114   ----------------------------------------
 BYTE   W96
// 115   ----------------------------------------
 BYTE   W96
 BYTE   PATT
  POIN2 Label_12_013620D2
 BYTE   PATT
  POIN2 Label_12_013620DD
// 116   ----------------------------------------
 BYTE   W96
// 117   ----------------------------------------
 BYTE   W72
 BYTE   EOT
 BYTE   Cs3  v073
 BYTE   N04  Dn3  v100
 BYTE   N04  Dn4
 BYTE   W08
 BYTE   Dn3
 BYTE   N04  Dn4
 BYTE   W08
 BYTE   Dn3
 BYTE   N04  Dn4
 BYTE   W08
 BYTE   PATT
  POIN2 Label_12_01362100
 BYTE   PATT
  POIN2 Label_12_0136210B
// 118   ----------------------------------------
 BYTE   W96
// 119   ----------------------------------------
 BYTE   W72
 BYTE   EOT
 BYTE   En3  v076
 BYTE   N04  Cn3  v100
 BYTE   N04  Cn4
 BYTE   W08
 BYTE   Cn3
 BYTE   N04  Cn4
 BYTE   W08
 BYTE   Cn3
 BYTE   N04  Cn4
 BYTE   W08
 BYTE   PATT
  POIN2 Label_12_013620D2
 BYTE   PATT
  POIN2 Label_12_013620DD
// 120   ----------------------------------------
 BYTE   W96
// 121   ----------------------------------------
 BYTE   W72
 BYTE   EOT
 BYTE   Cs3  v073
 BYTE   N04  Dn3  v100
 BYTE   N04  Dn4
 BYTE   W08
 BYTE   Dn3
 BYTE   N04  Dn4
 BYTE   W08
 BYTE   Dn3
 BYTE   N04  Dn4
 BYTE   W08
 BYTE   PATT
  POIN2 Label_12_01362100
 BYTE   PATT
  POIN2 Label_12_0136210B
// 122   ----------------------------------------
 BYTE   W96
// 123   ----------------------------------------
 BYTE   W96
// 124   ----------------------------------------
 BYTE   EOT
 BYTE   En3  v076
 BYTE   W96
// 125   ----------------------------------------
 BYTE   W96
// 126   ----------------------------------------
 BYTE   W96
// 127   ----------------------------------------
 BYTE   W96
// 128   ----------------------------------------
 BYTE   W96
// 129   ----------------------------------------
 BYTE   W96
// 130   ----------------------------------------
 BYTE   W96
// 131   ----------------------------------------
 BYTE   W96
// 132   ----------------------------------------
 BYTE   N84  Fn3  v088
 BYTE   W96
 BYTE   PATT
  POIN2 Label_12_01362166
// 133   ----------------------------------------
 BYTE   N96  An3  v088
 BYTE   W96
 BYTE   PATT
  POIN2 Label_12_01362173
 BYTE   PATT
  POIN2 Label_12_013620D2
 BYTE   PATT
  POIN2 Label_12_013620DD
// 134   ----------------------------------------
 BYTE   W96
// 135   ----------------------------------------
 BYTE   W72
 BYTE   EOT
 BYTE   Cs3  v073
 BYTE   N04  Dn3  v100
 BYTE   N04  Dn4
 BYTE   W08
 BYTE   Dn3
 BYTE   N04  Dn4
 BYTE   W08
 BYTE   Dn3
 BYTE   N04  Dn4
 BYTE   W08
 BYTE   PATT
  POIN2 Label_12_01362100
 BYTE   PATT
  POIN2 Label_12_0136210B
// 136   ----------------------------------------
 BYTE   W96
// 137   ----------------------------------------
 BYTE   W96
// 138   ----------------------------------------
 BYTE   EOT
 BYTE   En3  v076
 BYTE   W96
// 139   ----------------------------------------
 BYTE   W96
// 140   ----------------------------------------
 BYTE   W96
// 141   ----------------------------------------
 BYTE   W96
// 142   ----------------------------------------
 BYTE   W96
// 143   ----------------------------------------
 BYTE   W96
// 144   ----------------------------------------
 BYTE   W96
// 145   ----------------------------------------
 BYTE   W96
// 146   ----------------------------------------
 BYTE   GoTo
  POIN2 Label_12_0136209A
 BYTE   FINE

//**************** Track 14 (Midi-Chn.13) ****************//

FF9BossBattleAReliableChair_014:
// 000   ----------------------------------------
 BYTE   KEYSH   FF9BossBattleAReliableChair_key+0
Label_13_0136229A:
 BYTE   VOICE   88
 BYTE   BENDR  64
 BYTE   PAN   c_v+8
 BYTE   VOL   50*FF9BossBattleAReliableChair_mvl/mxv
 BYTE   MODT 0
 BYTE   CnM2
 BYTE   LFOS 0
 BYTE   Gs1
 BYTE   W96
// 001   ----------------------------------------
 BYTE   W96
// 002   ----------------------------------------
 BYTE   W96
// 003   ----------------------------------------
 BYTE   W96
// 004   ----------------------------------------
 BYTE   W96
// 005   ----------------------------------------
 BYTE   W96
// 006   ----------------------------------------
 BYTE   W96
// 007   ----------------------------------------
 BYTE   W96
// 008   ----------------------------------------
 BYTE   W96
// 009   ----------------------------------------
 BYTE   W96
// 010   ----------------------------------------
 BYTE   W96
// 011   ----------------------------------------
 BYTE   W96
// 012   ----------------------------------------
 BYTE   W96
// 013   ----------------------------------------
 BYTE   W96
// 014   ----------------------------------------
 BYTE   W96
// 015   ----------------------------------------
 BYTE   W96
// 016   ----------------------------------------
 BYTE   W96
// 017   ----------------------------------------
 BYTE   W96
// 018   ----------------------------------------
 BYTE   W96
// 019   ----------------------------------------
 BYTE   W96
// 020   ----------------------------------------
 BYTE   W96
// 021   ----------------------------------------
 BYTE   W96
// 022   ----------------------------------------
 BYTE   W96
// 023   ----------------------------------------
 BYTE   W96
// 024   ----------------------------------------
 BYTE   W96
// 025   ----------------------------------------
 BYTE   W96
// 026   ----------------------------------------
 BYTE   W96
// 027   ----------------------------------------
 BYTE   W96
// 028   ----------------------------------------
 BYTE   W96
// 029   ----------------------------------------
 BYTE   W96
// 030   ----------------------------------------
 BYTE   W96
// 031   ----------------------------------------
 BYTE   W96
// 032   ----------------------------------------
 BYTE   W96
// 033   ----------------------------------------
 BYTE   W96
// 034   ----------------------------------------
 BYTE   W96
// 035   ----------------------------------------
 BYTE   W96
// 036   ----------------------------------------
 BYTE   W96
// 037   ----------------------------------------
 BYTE   W96
// 038   ----------------------------------------
 BYTE   W96
// 039   ----------------------------------------
 BYTE   W96
// 040   ----------------------------------------
 BYTE   W96
// 041   ----------------------------------------
 BYTE   W96
// 042   ----------------------------------------
 BYTE   W96
// 043   ----------------------------------------
 BYTE   W96
// 044   ----------------------------------------
Label_13_013622D2:
 BYTE   N12  Gn2  v100
 BYTE   W48
 BYTE   N12
 BYTE   W48
 BYTE   PEND 
// 045   ----------------------------------------
Label_13_013622D9:
 BYTE   N12  Gn2  v100
 BYTE   W48
 BYTE   N24
 BYTE   W24
 BYTE   TIE  Fn2
 BYTE   W24
 BYTE   PEND 
// 046   ----------------------------------------
 BYTE   W96
// 047   ----------------------------------------
 BYTE   W72
 BYTE   EOT
 BYTE   N04  Fs2
 BYTE   W08
 BYTE   N04
 BYTE   W08
 BYTE   N04
 BYTE   W08
// 048   ----------------------------------------
Label_13_013622ED:
 BYTE   N12  Fs2  v100
 BYTE   W48
 BYTE   N12
 BYTE   W48
 BYTE   PEND 
// 049   ----------------------------------------
Label_13_013622F4:
 BYTE   N12  Fs2  v100
 BYTE   W48
 BYTE   N24
 BYTE   W24
 BYTE   TIE  En2
 BYTE   W24
 BYTE   PEND 
// 050   ----------------------------------------
 BYTE   W96
// 051   ----------------------------------------
 BYTE   W72
 BYTE   EOT
 BYTE   N04  Gn2
 BYTE   W08
 BYTE   N04
 BYTE   W08
 BYTE   N04
 BYTE   W08
 BYTE   PATT
  POIN2 Label_13_013622D2
 BYTE   PATT
  POIN2 Label_13_013622D9
// 052   ----------------------------------------
 BYTE   W96
// 053   ----------------------------------------
 BYTE   W72
 BYTE   EOT
 BYTE   Fn2
 BYTE   N04  Fs2  v100
 BYTE   W08
 BYTE   N04
 BYTE   W08
 BYTE   N04
 BYTE   W08
 BYTE   PATT
  POIN2 Label_13_013622ED
 BYTE   PATT
  POIN2 Label_13_013622F4
// 054   ----------------------------------------
 BYTE   W96
// 055   ----------------------------------------
 BYTE   W96
// 056   ----------------------------------------
 BYTE   EOT
 BYTE   En2
 BYTE   W96
// 057   ----------------------------------------
 BYTE   W96
// 058   ----------------------------------------
 BYTE   W96
// 059   ----------------------------------------
 BYTE   W96
// 060   ----------------------------------------
 BYTE   W96
// 061   ----------------------------------------
 BYTE   W96
// 062   ----------------------------------------
 BYTE   W96
// 063   ----------------------------------------
 BYTE   W96
// 064   ----------------------------------------
 BYTE   N84  Fn2  v088
 BYTE   W96
// 065   ----------------------------------------
Label_13_01362338:
 BYTE   N72  Gn2  v088
 BYTE   W84
 BYTE   N03  Fn2
 BYTE   W06
 BYTE   Gn2
 BYTE   W06
 BYTE   PEND 
// 066   ----------------------------------------
 BYTE   N96  An2
 BYTE   W96
// 067   ----------------------------------------
Label_13_01362345:
 BYTE   W12
 BYTE   N06  Gn2  v088
 BYTE   W12
 BYTE   Bn2
 BYTE   W12
 BYTE   An2
 BYTE   W12
 BYTE   N16  Gn2
 BYTE   W16
 BYTE   An2
 BYTE   W16
 BYTE   Bn2
 BYTE   W16
 BYTE   PEND 
 BYTE   PATT
  POIN2 Label_13_013622D2
 BYTE   PATT
  POIN2 Label_13_013622D9
// 068   ----------------------------------------
 BYTE   W96
// 069   ----------------------------------------
 BYTE   W72
 BYTE   EOT
 BYTE   Fn2
 BYTE   N04  Fs2  v100
 BYTE   W08
 BYTE   N04
 BYTE   W08
 BYTE   N04
 BYTE   W08
 BYTE   PATT
  POIN2 Label_13_013622ED
 BYTE   PATT
  POIN2 Label_13_013622F4
// 070   ----------------------------------------
 BYTE   W96
// 071   ----------------------------------------
 BYTE   W96
// 072   ----------------------------------------
 BYTE   EOT
 BYTE   En2
 BYTE   W96
// 073   ----------------------------------------
 BYTE   W96
// 074   ----------------------------------------
 BYTE   W96
// 075   ----------------------------------------
 BYTE   W96
// 076   ----------------------------------------
 BYTE   W96
// 077   ----------------------------------------
 BYTE   W96
// 078   ----------------------------------------
 BYTE   W96
// 079   ----------------------------------------
 BYTE   W96
// 080   ----------------------------------------
 BYTE   W96
// 081   ----------------------------------------
 BYTE   W96
// 082   ----------------------------------------
 BYTE   W96
// 083   ----------------------------------------
 BYTE   W96
// 084   ----------------------------------------
 BYTE   W96
// 085   ----------------------------------------
 BYTE   W96
// 086   ----------------------------------------
 BYTE   W96
// 087   ----------------------------------------
 BYTE   W96
// 088   ----------------------------------------
 BYTE   W96
// 089   ----------------------------------------
 BYTE   W96
// 090   ----------------------------------------
 BYTE   W96
// 091   ----------------------------------------
 BYTE   W96
// 092   ----------------------------------------
 BYTE   W96
// 093   ----------------------------------------
 BYTE   W96
// 094   ----------------------------------------
 BYTE   W96
// 095   ----------------------------------------
 BYTE   W96
// 096   ----------------------------------------
 BYTE   W96
// 097   ----------------------------------------
 BYTE   W96
// 098   ----------------------------------------
 BYTE   W96
// 099   ----------------------------------------
 BYTE   W96
// 100   ----------------------------------------
 BYTE   W96
// 101   ----------------------------------------
 BYTE   W96
// 102   ----------------------------------------
 BYTE   W96
// 103   ----------------------------------------
 BYTE   W96
// 104   ----------------------------------------
 BYTE   W96
// 105   ----------------------------------------
 BYTE   W96
// 106   ----------------------------------------
 BYTE   W96
// 107   ----------------------------------------
 BYTE   W96
// 108   ----------------------------------------
 BYTE   W96
// 109   ----------------------------------------
 BYTE   W96
// 110   ----------------------------------------
 BYTE   W96
// 111   ----------------------------------------
 BYTE   W96
// 112   ----------------------------------------
 BYTE   W96
// 113   ----------------------------------------
 BYTE   W96
// 114   ----------------------------------------
 BYTE   W96
// 115   ----------------------------------------
 BYTE   W96
 BYTE   PATT
  POIN2 Label_13_013622D2
 BYTE   PATT
  POIN2 Label_13_013622D9
// 116   ----------------------------------------
 BYTE   W96
// 117   ----------------------------------------
 BYTE   W72
 BYTE   EOT
 BYTE   Fn2
 BYTE   N04  Fs2  v100
 BYTE   W08
 BYTE   N04
 BYTE   W08
 BYTE   N04
 BYTE   W08
 BYTE   PATT
  POIN2 Label_13_013622ED
 BYTE   PATT
  POIN2 Label_13_013622F4
// 118   ----------------------------------------
 BYTE   W96
// 119   ----------------------------------------
 BYTE   W72
 BYTE   EOT
 BYTE   En2
 BYTE   N04  Gn2  v100
 BYTE   W08
 BYTE   N04
 BYTE   W08
 BYTE   N04
 BYTE   W08
 BYTE   PATT
  POIN2 Label_13_013622D2
 BYTE   PATT
  POIN2 Label_13_013622D9
// 120   ----------------------------------------
 BYTE   W96
// 121   ----------------------------------------
 BYTE   W72
 BYTE   EOT
 BYTE   Fn2
 BYTE   N04  Fs2  v100
 BYTE   W08
 BYTE   N04
 BYTE   W08
 BYTE   N04
 BYTE   W08
 BYTE   PATT
  POIN2 Label_13_013622ED
 BYTE   PATT
  POIN2 Label_13_013622F4
// 122   ----------------------------------------
 BYTE   W96
// 123   ----------------------------------------
 BYTE   W96
// 124   ----------------------------------------
 BYTE   EOT
 BYTE   En2
 BYTE   W96
// 125   ----------------------------------------
 BYTE   W96
// 126   ----------------------------------------
 BYTE   W96
// 127   ----------------------------------------
 BYTE   W96
// 128   ----------------------------------------
 BYTE   W96
// 129   ----------------------------------------
 BYTE   W96
// 130   ----------------------------------------
 BYTE   W96
// 131   ----------------------------------------
 BYTE   W96
// 132   ----------------------------------------
 BYTE   N84  Fn2  v088
 BYTE   W96
 BYTE   PATT
  POIN2 Label_13_01362338
// 133   ----------------------------------------
 BYTE   N96  An2  v088
 BYTE   W96
 BYTE   PATT
  POIN2 Label_13_01362345
 BYTE   PATT
  POIN2 Label_13_013622D2
 BYTE   PATT
  POIN2 Label_13_013622D9
// 134   ----------------------------------------
 BYTE   W96
// 135   ----------------------------------------
 BYTE   W72
 BYTE   EOT
 BYTE   Fn2
 BYTE   N04  Fs2  v100
 BYTE   W08
 BYTE   N04
 BYTE   W08
 BYTE   N04
 BYTE   W08
 BYTE   PATT
  POIN2 Label_13_013622ED
 BYTE   PATT
  POIN2 Label_13_013622F4
// 136   ----------------------------------------
 BYTE   W96
// 137   ----------------------------------------
 BYTE   W96
// 138   ----------------------------------------
 BYTE   EOT
 BYTE   En2
 BYTE   W96
// 139   ----------------------------------------
 BYTE   W96
// 140   ----------------------------------------
 BYTE   W96
// 141   ----------------------------------------
 BYTE   W96
// 142   ----------------------------------------
 BYTE   W96
// 143   ----------------------------------------
 BYTE   W96
// 144   ----------------------------------------
 BYTE   W96
// 145   ----------------------------------------
 BYTE   W96
// 146   ----------------------------------------
 BYTE   GoTo
  POIN2 Label_13_0136229A
 BYTE   FINE

//******************************************************//
	ALIGN 4

FF9BossBattleAReliableChair:
	BYTE	14	// NumTrks
	BYTE	0	// NumBlks
	BYTE	FF9BossBattleAReliableChair_pri	// Priority
	BYTE	FF9BossBattleAReliableChair_rev	// Reverb.
    
	POIN2	FF9BossBattleAReliableChair_grp
    
	POIN2	FF9BossBattleAReliableChair_001
	POIN2	FF9BossBattleAReliableChair_002
	POIN2	FF9BossBattleAReliableChair_003
	POIN2	FF9BossBattleAReliableChair_004
	POIN2	FF9BossBattleAReliableChair_005
	POIN2	FF9BossBattleAReliableChair_006
	POIN2	FF9BossBattleAReliableChair_007
	POIN2	FF9BossBattleAReliableChair_008
	POIN2	FF9BossBattleAReliableChair_009
	POIN2	FF9BossBattleAReliableChair_010
	POIN2	FF9BossBattleAReliableChair_011
	POIN2	FF9BossBattleAReliableChair_012
	POIN2	FF9BossBattleAReliableChair_013
	POIN2	FF9BossBattleAReliableChair_014

	
