//Event file generated from Sappy .s format.
	#include "MPlayDef.event"

	#define	FFABossDerTheVaporeon_grp  voicegroup000
	#define	FFABossDerTheVaporeon_pri  0
	#define	FFABossDerTheVaporeon_rev  0
	#define	FFABossDerTheVaporeon_mvl  127
	#define	FFABossDerTheVaporeon_key  0
	#define	FFABossDerTheVaporeon_tbs  1
	#define	FFABossDerTheVaporeon_exg  0
	#define	FFABossDerTheVaporeon_cmp  1

	// .rodata
	//	FFABossDerTheVaporeon
	ALIGN 4

//**************** Track 1 (Midi-Chn.1) ****************//

FFABossDerTheVaporeon_1:
	BYTE	KEYSH   FFABossDerTheVaporeon_key+0
// 000   ----------------------------------------
	BYTE	TEMPO   150*FFABossDerTheVaporeon_tbs/2
	BYTE		VOICE   41
	BYTE		VOL     63*FFABossDerTheVaporeon_mvl/mxv
	BYTE		N92     An2   v080
	BYTE		N92     Cn3 
	BYTE		N92     En3 
	BYTE		N92     An3 
	BYTE		N92     Cn4 
	BYTE		N44     An4 
	BYTE	W48
	BYTE		        Cn5 
	BYTE	W48
// 001   ----------------------------------------
FFABossDerTheVaporeon_1_001:
	BYTE		N92     Gs2   v080
	BYTE		N92     Bn2 
	BYTE		N92     En3 
	BYTE		N92     Gs3 
	BYTE		N92     Bn3 
	BYTE		N92     En4 
	BYTE		N44     Bn4 
	BYTE	W48
	BYTE		        Gs4 
	BYTE	W48
	BYTE	PEND
// 002   ----------------------------------------
	BYTE		N92     An2 
	BYTE		N92     Cn3 
	BYTE		N92     En3 
	BYTE		N92     An3 
	BYTE		N92     Cn4 
	BYTE		N44     An4 
	BYTE	W48
	BYTE		        Cn5 
	BYTE	W48
// 003   ----------------------------------------
	BYTE	PATT
	 POIN2	FFABossDerTheVaporeon_1_001
FFABossDerTheVaporeon_1_B1:
// 004   ----------------------------------------
FFABossDerTheVaporeon_1_004:
	BYTE		N11     An2   v080
	BYTE		N11     Cn3 
	BYTE		N11     En3 
	BYTE		N11     An3 
	BYTE		N11     Cn4 
	BYTE		N11     En4 
	BYTE		N11     An4 
	BYTE	W36
	BYTE		        An2 
	BYTE		N11     Cn3 
	BYTE		N11     En3 
	BYTE		N11     An3 
	BYTE		N11     Cn4 
	BYTE		N11     En4 
	BYTE		N11     An4 
	BYTE	W36
	BYTE		        Gn2 
	BYTE		N11     Bn2 
	BYTE		N11     Dn3 
	BYTE		N11     Gn3 
	BYTE		N11     Bn3 
	BYTE		N11     Dn4 
	BYTE		N11     Gn4 
	BYTE	W24
	BYTE	PEND
// 005   ----------------------------------------
	BYTE	PATT
	 POIN2	FFABossDerTheVaporeon_1_004
// 006   ----------------------------------------
	BYTE	PATT
	 POIN2	FFABossDerTheVaporeon_1_004
// 007   ----------------------------------------
	BYTE	PATT
	 POIN2	FFABossDerTheVaporeon_1_004
// 008   ----------------------------------------
FFABossDerTheVaporeon_1_008:
	BYTE		N92     An2   v080
	BYTE		N92     Dn3 
	BYTE		N92     Fs3 
	BYTE		N92     An3 
	BYTE		N92     Cn4 
	BYTE		N92     Fs4 
	BYTE	W96
	BYTE	PEND
// 009   ----------------------------------------
FFABossDerTheVaporeon_1_009:
	BYTE		N44     An2   v080
	BYTE		N44     Cn3 
	BYTE		N44     Fn3 
	BYTE		N44     An3 
	BYTE		N44     Cn4 
	BYTE		N44     Fn4 
	BYTE	W48
	BYTE		        Gn2 
	BYTE		N44     Bn2 
	BYTE		N44     Dn3 
	BYTE		N44     Gn3 
	BYTE		N44     Bn3 
	BYTE		N44     Dn4 
	BYTE		N44     Gn4 
	BYTE	W48
	BYTE	PEND
// 010   ----------------------------------------
	BYTE	PATT
	 POIN2	FFABossDerTheVaporeon_1_004
// 011   ----------------------------------------
	BYTE	PATT
	 POIN2	FFABossDerTheVaporeon_1_004
// 012   ----------------------------------------
	BYTE	PATT
	 POIN2	FFABossDerTheVaporeon_1_004
// 013   ----------------------------------------
	BYTE	PATT
	 POIN2	FFABossDerTheVaporeon_1_004
// 014   ----------------------------------------
	BYTE	PATT
	 POIN2	FFABossDerTheVaporeon_1_008
// 015   ----------------------------------------
	BYTE	PATT
	 POIN2	FFABossDerTheVaporeon_1_009
// 016   ----------------------------------------
FFABossDerTheVaporeon_1_016:
	BYTE		TIE     Cn4   v080
	BYTE		TIE     Fn4 
	BYTE	W96
	BYTE	PEND
// 017   ----------------------------------------
FFABossDerTheVaporeon_1_017:
	BYTE	W72
	BYTE		N11     Gn3   v080
	BYTE	W12
	BYTE		        An3 
	BYTE	W11
	BYTE	PEND
	BYTE		EOT     Fn4 
	BYTE	W01
// 018   ----------------------------------------
FFABossDerTheVaporeon_1_018:
	BYTE		N32     En3   v080
	BYTE		TIE     An3 
	BYTE	W36
	BYTE		N05     En3 
	BYTE	W06
	BYTE		        Fn3 
	BYTE	W06
	BYTE		N44     Gn3 
	BYTE	W48
	BYTE	PEND
// 019   ----------------------------------------
FFABossDerTheVaporeon_1_019:
	BYTE		N11     En3   v080
	BYTE	W12
	BYTE		N05   
	BYTE	W06
	BYTE		        Fn3 
	BYTE	W06
	BYTE		N68     Gn3 
	BYTE	W68
	BYTE	W03
	BYTE	PEND
	BYTE		EOT     An3 
	BYTE	W01
// 020   ----------------------------------------
	BYTE		TIE     Fn4 
	BYTE	W96
// 021   ----------------------------------------
	BYTE	PATT
	 POIN2	FFABossDerTheVaporeon_1_017
	BYTE		EOT     Fn4 
	BYTE	W01
// 022   ----------------------------------------
	BYTE	PATT
	 POIN2	FFABossDerTheVaporeon_1_018
// 023   ----------------------------------------
	BYTE	PATT
	 POIN2	FFABossDerTheVaporeon_1_019
	BYTE		EOT     An3 
	BYTE		        Cn4 
	BYTE	W01
// 024   ----------------------------------------
FFABossDerTheVaporeon_1_024:
	BYTE		N92     Bn2   v080
	BYTE		N92     En3 
	BYTE		N92     Gs3 
	BYTE		N92     Bn3 
	BYTE		N92     Cn4 
	BYTE		N92     En4 
	BYTE	W96
	BYTE	PEND
// 025   ----------------------------------------
FFABossDerTheVaporeon_1_025:
	BYTE		N92     An2   v080
	BYTE		N92     Cn3 
	BYTE		N92     Fn3 
	BYTE		N92     An3 
	BYTE		N92     Cn4 
	BYTE		N92     Fn4 
	BYTE	W96
	BYTE	PEND
// 026   ----------------------------------------
FFABossDerTheVaporeon_1_026:
	BYTE	W24
	BYTE		N23     Bn2   v080
	BYTE		N23     Dn3 
	BYTE		N23     Gn3 
	BYTE		N23     Bn3 
	BYTE		N23     En4 
	BYTE		N23     Gn4 
	BYTE		N23     Bn4 
	BYTE	W48
	BYTE		        An2 
	BYTE		N23     Cn3 
	BYTE		N23     Fn3 
	BYTE		N23     An3 
	BYTE		N23     Cn4 
	BYTE		N23     Fn4 
	BYTE		N23     An4 
	BYTE	W24
	BYTE	PEND
// 027   ----------------------------------------
FFABossDerTheVaporeon_1_027:
	BYTE	W24
	BYTE		N23     Bn2   v080
	BYTE		N23     En3 
	BYTE		N23     Gs3 
	BYTE		N23     Bn3 
	BYTE		N23     En4 
	BYTE		N23     Gs4 
	BYTE	W48
	BYTE		        Bn2 
	BYTE		N23     En3 
	BYTE		N23     Gs3 
	BYTE		N23     Bn3 
	BYTE		N23     En4 
	BYTE		N23     Gs4 
	BYTE	W24
	BYTE	PEND
// 028   ----------------------------------------
	BYTE	PATT
	 POIN2	FFABossDerTheVaporeon_1_004
// 029   ----------------------------------------
	BYTE	PATT
	 POIN2	FFABossDerTheVaporeon_1_004
// 030   ----------------------------------------
	BYTE	PATT
	 POIN2	FFABossDerTheVaporeon_1_004
// 031   ----------------------------------------
	BYTE	PATT
	 POIN2	FFABossDerTheVaporeon_1_004
// 032   ----------------------------------------
	BYTE	PATT
	 POIN2	FFABossDerTheVaporeon_1_008
// 033   ----------------------------------------
	BYTE	PATT
	 POIN2	FFABossDerTheVaporeon_1_009
// 034   ----------------------------------------
	BYTE	PATT
	 POIN2	FFABossDerTheVaporeon_1_004
// 035   ----------------------------------------
	BYTE	PATT
	 POIN2	FFABossDerTheVaporeon_1_004
// 036   ----------------------------------------
	BYTE	PATT
	 POIN2	FFABossDerTheVaporeon_1_004
// 037   ----------------------------------------
	BYTE	PATT
	 POIN2	FFABossDerTheVaporeon_1_004
// 038   ----------------------------------------
	BYTE	PATT
	 POIN2	FFABossDerTheVaporeon_1_008
// 039   ----------------------------------------
	BYTE	PATT
	 POIN2	FFABossDerTheVaporeon_1_009
// 040   ----------------------------------------
	BYTE	PATT
	 POIN2	FFABossDerTheVaporeon_1_016
// 041   ----------------------------------------
	BYTE	PATT
	 POIN2	FFABossDerTheVaporeon_1_017
	BYTE		EOT     Fn4 
	BYTE	W01
// 042   ----------------------------------------
	BYTE	PATT
	 POIN2	FFABossDerTheVaporeon_1_018
// 043   ----------------------------------------
	BYTE	PATT
	 POIN2	FFABossDerTheVaporeon_1_019
	BYTE		EOT     An3 
	BYTE	W01
// 044   ----------------------------------------
	BYTE		TIE     Fn4   v080
	BYTE	W96
// 045   ----------------------------------------
	BYTE	PATT
	 POIN2	FFABossDerTheVaporeon_1_017
	BYTE		EOT     Fn4 
	BYTE	W01
// 046   ----------------------------------------
	BYTE	PATT
	 POIN2	FFABossDerTheVaporeon_1_018
// 047   ----------------------------------------
	BYTE	PATT
	 POIN2	FFABossDerTheVaporeon_1_019
	BYTE		EOT     An3 
	BYTE		        Cn4 
	BYTE	W01
// 048   ----------------------------------------
	BYTE	PATT
	 POIN2	FFABossDerTheVaporeon_1_024
// 049   ----------------------------------------
	BYTE	PATT
	 POIN2	FFABossDerTheVaporeon_1_025
// 050   ----------------------------------------
	BYTE	PATT
	 POIN2	FFABossDerTheVaporeon_1_026
// 051   ----------------------------------------
	BYTE	PATT
	 POIN2	FFABossDerTheVaporeon_1_027
// 052   ----------------------------------------
	BYTE	PATT
	 POIN2	FFABossDerTheVaporeon_1_004
// 053   ----------------------------------------
	BYTE	PATT
	 POIN2	FFABossDerTheVaporeon_1_004
// 054   ----------------------------------------
	BYTE	PATT
	 POIN2	FFABossDerTheVaporeon_1_004
// 055   ----------------------------------------
	BYTE	PATT
	 POIN2	FFABossDerTheVaporeon_1_004
// 056   ----------------------------------------
	BYTE	PATT
	 POIN2	FFABossDerTheVaporeon_1_008
// 057   ----------------------------------------
	BYTE	PATT
	 POIN2	FFABossDerTheVaporeon_1_009
// 058   ----------------------------------------
	BYTE	PATT
	 POIN2	FFABossDerTheVaporeon_1_004
// 059   ----------------------------------------
	BYTE	PATT
	 POIN2	FFABossDerTheVaporeon_1_004
// 060   ----------------------------------------
	BYTE	PATT
	 POIN2	FFABossDerTheVaporeon_1_004
// 061   ----------------------------------------
	BYTE	PATT
	 POIN2	FFABossDerTheVaporeon_1_004
// 062   ----------------------------------------
	BYTE	PATT
	 POIN2	FFABossDerTheVaporeon_1_008
// 063   ----------------------------------------
	BYTE	PATT
	 POIN2	FFABossDerTheVaporeon_1_009
// 064   ----------------------------------------
	BYTE	PATT
	 POIN2	FFABossDerTheVaporeon_1_016
// 065   ----------------------------------------
	BYTE	PATT
	 POIN2	FFABossDerTheVaporeon_1_017
	BYTE		EOT     Fn4 
	BYTE	W01
// 066   ----------------------------------------
	BYTE	PATT
	 POIN2	FFABossDerTheVaporeon_1_018
// 067   ----------------------------------------
	BYTE	PATT
	 POIN2	FFABossDerTheVaporeon_1_019
	BYTE		EOT     An3 
	BYTE	W01
// 068   ----------------------------------------
	BYTE		TIE     Fn4   v080
	BYTE	W96
// 069   ----------------------------------------
	BYTE	PATT
	 POIN2	FFABossDerTheVaporeon_1_017
	BYTE		EOT     Fn4 
	BYTE	W01
// 070   ----------------------------------------
	BYTE	PATT
	 POIN2	FFABossDerTheVaporeon_1_018
// 071   ----------------------------------------
	BYTE	PATT
	 POIN2	FFABossDerTheVaporeon_1_019
	BYTE		EOT     An3 
	BYTE		        Cn4 
	BYTE	W01
// 072   ----------------------------------------
	BYTE	PATT
	 POIN2	FFABossDerTheVaporeon_1_024
// 073   ----------------------------------------
	BYTE	PATT
	 POIN2	FFABossDerTheVaporeon_1_025
// 074   ----------------------------------------
	BYTE	PATT
	 POIN2	FFABossDerTheVaporeon_1_026
// 075   ----------------------------------------
	BYTE	PATT
	 POIN2	FFABossDerTheVaporeon_1_027
	BYTE	GoTo
	 POIN2	FFABossDerTheVaporeon_1_B1
FFABossDerTheVaporeon_1_B2:
// 076   ----------------------------------------
	BYTE	PATT
	 POIN2	FFABossDerTheVaporeon_1_004
// 077   ----------------------------------------
	BYTE	PATT
	 POIN2	FFABossDerTheVaporeon_1_004
// 078   ----------------------------------------
	BYTE	PATT
	 POIN2	FFABossDerTheVaporeon_1_004
// 079   ----------------------------------------
	BYTE		N92     An2   v080
	BYTE		N92     Cn3 
	BYTE		N92     En3 
	BYTE		N92     An3 
	BYTE		N92     Cn4 
	BYTE		N92     En4 
	BYTE		N92     An4 
	BYTE	W92
	BYTE	W03
	BYTE	FINE

//**************** Track 2 (Midi-Chn.2) ****************//

FFABossDerTheVaporeon_2:
	BYTE	KEYSH   FFABossDerTheVaporeon_key+0
// 000   ----------------------------------------
	BYTE		VOICE   30
	BYTE		VOL     63*FFABossDerTheVaporeon_mvl/mxv
	BYTE	W96
// 001   ----------------------------------------
	BYTE	W96
// 002   ----------------------------------------
	BYTE		N44     An1   v080
	BYTE	W48
	BYTE		        Cn2 
	BYTE	W48
// 003   ----------------------------------------
	BYTE		        Bn1 
	BYTE	W48
	BYTE		        Gs1 
	BYTE	W48
FFABossDerTheVaporeon_2_B1:
// 004   ----------------------------------------
FFABossDerTheVaporeon_2_004:
	BYTE		N11     An1   v080
	BYTE	W12
	BYTE		N11   
	BYTE	W24
	BYTE		N05   
	BYTE	W06
	BYTE		N05   
	BYTE	W06
	BYTE		N11   
	BYTE	W12
	BYTE		N11   
	BYTE	W12
	BYTE		        Gn1 
	BYTE	W12
	BYTE		N11   
	BYTE	W12
	BYTE	PEND
// 005   ----------------------------------------
	BYTE	PATT
	 POIN2	FFABossDerTheVaporeon_2_004
// 006   ----------------------------------------
	BYTE	PATT
	 POIN2	FFABossDerTheVaporeon_2_004
// 007   ----------------------------------------
	BYTE	PATT
	 POIN2	FFABossDerTheVaporeon_2_004
// 008   ----------------------------------------
FFABossDerTheVaporeon_2_008:
	BYTE		N32     Fs1   v080
	BYTE	W36
	BYTE		        Dn1 
	BYTE	W36
	BYTE		N23     En1 
	BYTE	W24
	BYTE	PEND
// 009   ----------------------------------------
FFABossDerTheVaporeon_2_009:
	BYTE		N44     Fn1   v080
	BYTE	W48
	BYTE		        Gn1 
	BYTE	W48
	BYTE	PEND
// 010   ----------------------------------------
	BYTE	PATT
	 POIN2	FFABossDerTheVaporeon_2_004
// 011   ----------------------------------------
	BYTE	PATT
	 POIN2	FFABossDerTheVaporeon_2_004
// 012   ----------------------------------------
	BYTE	PATT
	 POIN2	FFABossDerTheVaporeon_2_004
// 013   ----------------------------------------
	BYTE	PATT
	 POIN2	FFABossDerTheVaporeon_2_004
// 014   ----------------------------------------
	BYTE	PATT
	 POIN2	FFABossDerTheVaporeon_2_008
// 015   ----------------------------------------
	BYTE	PATT
	 POIN2	FFABossDerTheVaporeon_2_009
// 016   ----------------------------------------
FFABossDerTheVaporeon_2_016:
	BYTE		N05     Fn1   v080
	BYTE	W12
	BYTE		N05   
	BYTE	W12
	BYTE		N05   
	BYTE	W12
	BYTE		N05   
	BYTE	W06
	BYTE		N05   
	BYTE	W06
	BYTE		N05   
	BYTE	W12
	BYTE		N05   
	BYTE	W12
	BYTE		N05   
	BYTE	W12
	BYTE		N05   
	BYTE	W06
	BYTE		N05   
	BYTE	W06
	BYTE	PEND
// 017   ----------------------------------------
	BYTE	PATT
	 POIN2	FFABossDerTheVaporeon_2_016
// 018   ----------------------------------------
	BYTE	PATT
	 POIN2	FFABossDerTheVaporeon_2_016
// 019   ----------------------------------------
	BYTE	PATT
	 POIN2	FFABossDerTheVaporeon_2_016
// 020   ----------------------------------------
	BYTE	PATT
	 POIN2	FFABossDerTheVaporeon_2_016
// 021   ----------------------------------------
	BYTE	PATT
	 POIN2	FFABossDerTheVaporeon_2_016
// 022   ----------------------------------------
	BYTE	PATT
	 POIN2	FFABossDerTheVaporeon_2_016
// 023   ----------------------------------------
	BYTE	PATT
	 POIN2	FFABossDerTheVaporeon_2_016
// 024   ----------------------------------------
	BYTE		N92     En1   v080
	BYTE	W96
// 025   ----------------------------------------
	BYTE		        Fn1 
	BYTE	W96
// 026   ----------------------------------------
FFABossDerTheVaporeon_2_026:
	BYTE		N11     Gn1   v080
	BYTE	W12
	BYTE		N11   
	BYTE	W36
	BYTE		        Fn1 
	BYTE	W12
	BYTE		N11   
	BYTE	W36
	BYTE	PEND
// 027   ----------------------------------------
FFABossDerTheVaporeon_2_027:
	BYTE		N11     En1   v080
	BYTE	W12
	BYTE		N11   
	BYTE	W36
	BYTE		N11   
	BYTE	W12
	BYTE		N11   
	BYTE	W12
	BYTE		N11   
	BYTE	W12
	BYTE		N05   
	BYTE	W06
	BYTE		N05   
	BYTE	W06
	BYTE	PEND
// 028   ----------------------------------------
	BYTE	PATT
	 POIN2	FFABossDerTheVaporeon_2_004
// 029   ----------------------------------------
	BYTE	PATT
	 POIN2	FFABossDerTheVaporeon_2_004
// 030   ----------------------------------------
	BYTE	PATT
	 POIN2	FFABossDerTheVaporeon_2_004
// 031   ----------------------------------------
	BYTE	PATT
	 POIN2	FFABossDerTheVaporeon_2_004
// 032   ----------------------------------------
	BYTE	PATT
	 POIN2	FFABossDerTheVaporeon_2_008
// 033   ----------------------------------------
	BYTE	PATT
	 POIN2	FFABossDerTheVaporeon_2_009
// 034   ----------------------------------------
	BYTE	PATT
	 POIN2	FFABossDerTheVaporeon_2_004
// 035   ----------------------------------------
	BYTE	PATT
	 POIN2	FFABossDerTheVaporeon_2_004
// 036   ----------------------------------------
	BYTE	PATT
	 POIN2	FFABossDerTheVaporeon_2_004
// 037   ----------------------------------------
	BYTE	PATT
	 POIN2	FFABossDerTheVaporeon_2_004
// 038   ----------------------------------------
	BYTE	PATT
	 POIN2	FFABossDerTheVaporeon_2_008
// 039   ----------------------------------------
	BYTE	PATT
	 POIN2	FFABossDerTheVaporeon_2_009
// 040   ----------------------------------------
	BYTE	PATT
	 POIN2	FFABossDerTheVaporeon_2_016
// 041   ----------------------------------------
	BYTE	PATT
	 POIN2	FFABossDerTheVaporeon_2_016
// 042   ----------------------------------------
	BYTE	PATT
	 POIN2	FFABossDerTheVaporeon_2_016
// 043   ----------------------------------------
	BYTE	PATT
	 POIN2	FFABossDerTheVaporeon_2_016
// 044   ----------------------------------------
	BYTE	PATT
	 POIN2	FFABossDerTheVaporeon_2_016
// 045   ----------------------------------------
	BYTE	PATT
	 POIN2	FFABossDerTheVaporeon_2_016
// 046   ----------------------------------------
	BYTE	PATT
	 POIN2	FFABossDerTheVaporeon_2_016
// 047   ----------------------------------------
	BYTE	PATT
	 POIN2	FFABossDerTheVaporeon_2_016
// 048   ----------------------------------------
	BYTE		N92     En1   v080
	BYTE	W96
// 049   ----------------------------------------
	BYTE		        Fn1 
	BYTE	W96
// 050   ----------------------------------------
	BYTE	PATT
	 POIN2	FFABossDerTheVaporeon_2_026
// 051   ----------------------------------------
	BYTE	PATT
	 POIN2	FFABossDerTheVaporeon_2_027
// 052   ----------------------------------------
	BYTE	PATT
	 POIN2	FFABossDerTheVaporeon_2_004
// 053   ----------------------------------------
	BYTE	PATT
	 POIN2	FFABossDerTheVaporeon_2_004
// 054   ----------------------------------------
	BYTE	PATT
	 POIN2	FFABossDerTheVaporeon_2_004
// 055   ----------------------------------------
	BYTE	PATT
	 POIN2	FFABossDerTheVaporeon_2_004
// 056   ----------------------------------------
	BYTE	PATT
	 POIN2	FFABossDerTheVaporeon_2_008
// 057   ----------------------------------------
	BYTE	PATT
	 POIN2	FFABossDerTheVaporeon_2_009
// 058   ----------------------------------------
	BYTE	PATT
	 POIN2	FFABossDerTheVaporeon_2_004
// 059   ----------------------------------------
	BYTE	PATT
	 POIN2	FFABossDerTheVaporeon_2_004
// 060   ----------------------------------------
	BYTE	PATT
	 POIN2	FFABossDerTheVaporeon_2_004
// 061   ----------------------------------------
	BYTE	PATT
	 POIN2	FFABossDerTheVaporeon_2_004
// 062   ----------------------------------------
	BYTE	PATT
	 POIN2	FFABossDerTheVaporeon_2_008
// 063   ----------------------------------------
	BYTE	PATT
	 POIN2	FFABossDerTheVaporeon_2_009
// 064   ----------------------------------------
	BYTE	PATT
	 POIN2	FFABossDerTheVaporeon_2_016
// 065   ----------------------------------------
	BYTE	PATT
	 POIN2	FFABossDerTheVaporeon_2_016
// 066   ----------------------------------------
	BYTE	PATT
	 POIN2	FFABossDerTheVaporeon_2_016
// 067   ----------------------------------------
	BYTE	PATT
	 POIN2	FFABossDerTheVaporeon_2_016
// 068   ----------------------------------------
	BYTE	PATT
	 POIN2	FFABossDerTheVaporeon_2_016
// 069   ----------------------------------------
	BYTE	PATT
	 POIN2	FFABossDerTheVaporeon_2_016
// 070   ----------------------------------------
	BYTE	PATT
	 POIN2	FFABossDerTheVaporeon_2_016
// 071   ----------------------------------------
	BYTE	PATT
	 POIN2	FFABossDerTheVaporeon_2_016
// 072   ----------------------------------------
	BYTE		N92     En1   v080
	BYTE	W96
// 073   ----------------------------------------
	BYTE		        Fn1 
	BYTE	W96
// 074   ----------------------------------------
	BYTE	PATT
	 POIN2	FFABossDerTheVaporeon_2_026
// 075   ----------------------------------------
	BYTE	PATT
	 POIN2	FFABossDerTheVaporeon_2_027
	BYTE	GoTo
	 POIN2	FFABossDerTheVaporeon_2_B1
FFABossDerTheVaporeon_2_B2:
// 076   ----------------------------------------
	BYTE	PATT
	 POIN2	FFABossDerTheVaporeon_2_004
// 077   ----------------------------------------
	BYTE	PATT
	 POIN2	FFABossDerTheVaporeon_2_004
// 078   ----------------------------------------
	BYTE	PATT
	 POIN2	FFABossDerTheVaporeon_2_004
// 079   ----------------------------------------
	BYTE		N92     An1   v080
	BYTE	W92
	BYTE	W03
	BYTE	FINE

//**************** Track 3 (Midi-Chn.3) ****************//

FFABossDerTheVaporeon_3:
	BYTE	KEYSH   FFABossDerTheVaporeon_key+0
// 000   ----------------------------------------
	BYTE		VOICE   56
	BYTE		VOL     63*FFABossDerTheVaporeon_mvl/mxv
	BYTE	W96
// 001   ----------------------------------------
	BYTE	W96
// 002   ----------------------------------------
	BYTE	W96
// 003   ----------------------------------------
	BYTE	W96
FFABossDerTheVaporeon_3_B1:
// 004   ----------------------------------------
FFABossDerTheVaporeon_3_004:
	BYTE		N11     An3   v127
	BYTE	W12
	BYTE		N23     En4 
	BYTE	W24
	BYTE		N11     Cn4 
	BYTE	W12
	BYTE		N80     Gn4 
	BYTE	W48
	BYTE	PEND
// 005   ----------------------------------------
FFABossDerTheVaporeon_3_005:
	BYTE	W36
	BYTE		N05     Fs4   v127
	BYTE	W06
	BYTE		        Gn4 
	BYTE	W06
	BYTE		N11     Fs4 
	BYTE	W12
	BYTE		N23     En4 
	BYTE	W24
	BYTE		N11     Dn4 
	BYTE	W12
	BYTE	PEND
// 006   ----------------------------------------
FFABossDerTheVaporeon_3_006:
	BYTE		N11     En4   v127
	BYTE	W12
	BYTE		N23     Cn4 
	BYTE	W24
	BYTE		N11     En4 
	BYTE	W12
	BYTE		N68     An4 
	BYTE	W48
	BYTE	PEND
// 007   ----------------------------------------
FFABossDerTheVaporeon_3_007:
	BYTE	W24
	BYTE		N11     Gn4   v127
	BYTE	W12
	BYTE		        An4 
	BYTE	W12
	BYTE		N23     En4 
	BYTE	W24
	BYTE		        Gn4 
	BYTE	W24
	BYTE	PEND
// 008   ----------------------------------------
FFABossDerTheVaporeon_3_008:
	BYTE		N32     Fs4   v127
	BYTE	W36
	BYTE		        Dn4 
	BYTE	W36
	BYTE		N23     En4 
	BYTE	W24
	BYTE	PEND
// 009   ----------------------------------------
FFABossDerTheVaporeon_3_009:
	BYTE		N11     Fn4   v127
	BYTE	W12
	BYTE		        En4 
	BYTE	W12
	BYTE		        Fn4 
	BYTE	W12
	BYTE		N23     En4 
	BYTE	W24
	BYTE		N05     Dn4 
	BYTE	W06
	BYTE		        Cn4 
	BYTE	W06
	BYTE		N23     Bn3 
	BYTE	W24
	BYTE	PEND
// 010   ----------------------------------------
	BYTE	PATT
	 POIN2	FFABossDerTheVaporeon_3_004
// 011   ----------------------------------------
	BYTE	PATT
	 POIN2	FFABossDerTheVaporeon_3_005
// 012   ----------------------------------------
	BYTE	PATT
	 POIN2	FFABossDerTheVaporeon_3_006
// 013   ----------------------------------------
	BYTE	PATT
	 POIN2	FFABossDerTheVaporeon_3_007
// 014   ----------------------------------------
	BYTE	PATT
	 POIN2	FFABossDerTheVaporeon_3_008
// 015   ----------------------------------------
	BYTE	PATT
	 POIN2	FFABossDerTheVaporeon_3_009
// 016   ----------------------------------------
FFABossDerTheVaporeon_3_016:
	BYTE		N32     Cn4   v127
	BYTE	W36
	BYTE		N05   
	BYTE	W06
	BYTE		        Bn3 
	BYTE	W06
	BYTE		N44     An3 
	BYTE	W48
	BYTE	PEND
// 017   ----------------------------------------
FFABossDerTheVaporeon_3_017:
	BYTE		N11     Cn4   v127
	BYTE	W12
	BYTE		N05   
	BYTE	W06
	BYTE		        Bn3 
	BYTE	W06
	BYTE		N32     An3 
	BYTE	W72
	BYTE	PEND
// 018   ----------------------------------------
	BYTE	W96
// 019   ----------------------------------------
	BYTE	W96
// 020   ----------------------------------------
	BYTE	PATT
	 POIN2	FFABossDerTheVaporeon_3_016
// 021   ----------------------------------------
	BYTE	PATT
	 POIN2	FFABossDerTheVaporeon_3_017
// 022   ----------------------------------------
	BYTE	W96
// 023   ----------------------------------------
	BYTE	W96
// 024   ----------------------------------------
FFABossDerTheVaporeon_3_024:
	BYTE		N11     Gs3   v127
	BYTE	W12
	BYTE		N05   
	BYTE	W06
	BYTE		        An3 
	BYTE	W06
	BYTE		N11     Bn3 
	BYTE	W12
	BYTE		N05     An3 
	BYTE	W06
	BYTE		        Gs3 
	BYTE	W06
	BYTE		N44     En4 
	BYTE	W48
	BYTE	PEND
// 025   ----------------------------------------
FFABossDerTheVaporeon_3_025:
	BYTE		N11     An3   v127
	BYTE	W12
	BYTE		N05   
	BYTE	W06
	BYTE		        Bn3 
	BYTE	W06
	BYTE		N11     Cn4 
	BYTE	W12
	BYTE		N05     Bn3 
	BYTE	W06
	BYTE		        An3 
	BYTE	W06
	BYTE		N44     Fn4 
	BYTE	W48
	BYTE	PEND
// 026   ----------------------------------------
FFABossDerTheVaporeon_3_026:
	BYTE		N05     Bn3   v127
	BYTE	W06
	BYTE		        Cn4 
	BYTE	W06
	BYTE		        Dn4 
	BYTE	W06
	BYTE		        Cn4 
	BYTE	W06
	BYTE		N23     Bn3 
	BYTE	W24
	BYTE		N05     An3 
	BYTE	W06
	BYTE		        Bn3 
	BYTE	W06
	BYTE		        Cn4 
	BYTE	W06
	BYTE		        Bn3 
	BYTE	W06
	BYTE		N23     An3 
	BYTE	W24
	BYTE	PEND
// 027   ----------------------------------------
FFABossDerTheVaporeon_3_027:
	BYTE		N32     Gs3   v127
	BYTE	W36
	BYTE		        An3 
	BYTE	W36
	BYTE		N23     Bn3 
	BYTE	W24
	BYTE	PEND
// 028   ----------------------------------------
	BYTE	PATT
	 POIN2	FFABossDerTheVaporeon_3_004
// 029   ----------------------------------------
	BYTE	PATT
	 POIN2	FFABossDerTheVaporeon_3_005
// 030   ----------------------------------------
	BYTE	PATT
	 POIN2	FFABossDerTheVaporeon_3_006
// 031   ----------------------------------------
	BYTE	PATT
	 POIN2	FFABossDerTheVaporeon_3_007
// 032   ----------------------------------------
	BYTE	PATT
	 POIN2	FFABossDerTheVaporeon_3_008
// 033   ----------------------------------------
	BYTE	PATT
	 POIN2	FFABossDerTheVaporeon_3_009
// 034   ----------------------------------------
	BYTE	PATT
	 POIN2	FFABossDerTheVaporeon_3_004
// 035   ----------------------------------------
	BYTE	PATT
	 POIN2	FFABossDerTheVaporeon_3_005
// 036   ----------------------------------------
	BYTE	PATT
	 POIN2	FFABossDerTheVaporeon_3_006
// 037   ----------------------------------------
	BYTE	PATT
	 POIN2	FFABossDerTheVaporeon_3_007
// 038   ----------------------------------------
	BYTE	PATT
	 POIN2	FFABossDerTheVaporeon_3_008
// 039   ----------------------------------------
	BYTE	PATT
	 POIN2	FFABossDerTheVaporeon_3_009
// 040   ----------------------------------------
	BYTE	PATT
	 POIN2	FFABossDerTheVaporeon_3_016
// 041   ----------------------------------------
	BYTE	PATT
	 POIN2	FFABossDerTheVaporeon_3_017
// 042   ----------------------------------------
	BYTE	W96
// 043   ----------------------------------------
	BYTE	W96
// 044   ----------------------------------------
	BYTE	PATT
	 POIN2	FFABossDerTheVaporeon_3_016
// 045   ----------------------------------------
	BYTE	PATT
	 POIN2	FFABossDerTheVaporeon_3_017
// 046   ----------------------------------------
	BYTE	W96
// 047   ----------------------------------------
	BYTE	W96
// 048   ----------------------------------------
	BYTE	PATT
	 POIN2	FFABossDerTheVaporeon_3_024
// 049   ----------------------------------------
	BYTE	PATT
	 POIN2	FFABossDerTheVaporeon_3_025
// 050   ----------------------------------------
	BYTE	PATT
	 POIN2	FFABossDerTheVaporeon_3_026
// 051   ----------------------------------------
	BYTE	PATT
	 POIN2	FFABossDerTheVaporeon_3_027
// 052   ----------------------------------------
	BYTE	PATT
	 POIN2	FFABossDerTheVaporeon_3_004
// 053   ----------------------------------------
	BYTE	PATT
	 POIN2	FFABossDerTheVaporeon_3_005
// 054   ----------------------------------------
	BYTE	PATT
	 POIN2	FFABossDerTheVaporeon_3_006
// 055   ----------------------------------------
	BYTE	PATT
	 POIN2	FFABossDerTheVaporeon_3_007
// 056   ----------------------------------------
	BYTE	PATT
	 POIN2	FFABossDerTheVaporeon_3_008
// 057   ----------------------------------------
	BYTE	PATT
	 POIN2	FFABossDerTheVaporeon_3_009
// 058   ----------------------------------------
	BYTE	PATT
	 POIN2	FFABossDerTheVaporeon_3_004
// 059   ----------------------------------------
	BYTE	PATT
	 POIN2	FFABossDerTheVaporeon_3_005
// 060   ----------------------------------------
	BYTE	PATT
	 POIN2	FFABossDerTheVaporeon_3_006
// 061   ----------------------------------------
	BYTE	PATT
	 POIN2	FFABossDerTheVaporeon_3_007
// 062   ----------------------------------------
	BYTE	PATT
	 POIN2	FFABossDerTheVaporeon_3_008
// 063   ----------------------------------------
	BYTE	PATT
	 POIN2	FFABossDerTheVaporeon_3_009
// 064   ----------------------------------------
	BYTE	PATT
	 POIN2	FFABossDerTheVaporeon_3_016
// 065   ----------------------------------------
	BYTE	PATT
	 POIN2	FFABossDerTheVaporeon_3_017
// 066   ----------------------------------------
	BYTE	W96
// 067   ----------------------------------------
	BYTE	W96
// 068   ----------------------------------------
	BYTE	PATT
	 POIN2	FFABossDerTheVaporeon_3_016
// 069   ----------------------------------------
	BYTE	PATT
	 POIN2	FFABossDerTheVaporeon_3_017
// 070   ----------------------------------------
	BYTE	W96
// 071   ----------------------------------------
	BYTE	W96
// 072   ----------------------------------------
	BYTE	PATT
	 POIN2	FFABossDerTheVaporeon_3_024
// 073   ----------------------------------------
	BYTE	PATT
	 POIN2	FFABossDerTheVaporeon_3_025
// 074   ----------------------------------------
	BYTE	PATT
	 POIN2	FFABossDerTheVaporeon_3_026
// 075   ----------------------------------------
	BYTE	PATT
	 POIN2	FFABossDerTheVaporeon_3_027
	BYTE	GoTo
	 POIN2	FFABossDerTheVaporeon_3_B1
FFABossDerTheVaporeon_3_B2:
// 076   ----------------------------------------
	BYTE		TIE     An3   v127
	BYTE	W96
// 077   ----------------------------------------
	BYTE	W96
// 078   ----------------------------------------
	BYTE	W96
// 079   ----------------------------------------
	BYTE	W92
	BYTE	W03
	BYTE		EOT   
	BYTE	FINE

//**************** Track 4 (Midi-Chn.4) ****************//

FFABossDerTheVaporeon_4:
	BYTE	KEYSH   FFABossDerTheVaporeon_key+0
// 000   ----------------------------------------
	BYTE		VOICE   33
	BYTE		VOL     63*FFABossDerTheVaporeon_mvl/mxv
	BYTE		N92     An1   v127
	BYTE	W96
// 001   ----------------------------------------
	BYTE		        Gs1 
	BYTE	W96
// 002   ----------------------------------------
	BYTE		        An1 
	BYTE	W96
// 003   ----------------------------------------
	BYTE		        Gs1 
	BYTE	W96
FFABossDerTheVaporeon_4_B1:
// 004   ----------------------------------------
FFABossDerTheVaporeon_4_004:
	BYTE		N11     An1   v127
	BYTE	W12
	BYTE		        An2 
	BYTE	W12
	BYTE		        An1 
	BYTE	W12
	BYTE		        An2 
	BYTE	W12
	BYTE		        An1 
	BYTE	W12
	BYTE		        An2 
	BYTE	W12
	BYTE		        Gn1 
	BYTE	W12
	BYTE		        Gn2 
	BYTE	W12
	BYTE	PEND
// 005   ----------------------------------------
	BYTE	PATT
	 POIN2	FFABossDerTheVaporeon_4_004
// 006   ----------------------------------------
	BYTE	PATT
	 POIN2	FFABossDerTheVaporeon_4_004
// 007   ----------------------------------------
	BYTE	PATT
	 POIN2	FFABossDerTheVaporeon_4_004
// 008   ----------------------------------------
FFABossDerTheVaporeon_4_008:
	BYTE		N11     Fs1   v127
	BYTE	W12
	BYTE		        Fs2 
	BYTE	W12
	BYTE		        Fs1 
	BYTE	W12
	BYTE		        Fs2 
	BYTE	W12
	BYTE		        Fs1 
	BYTE	W12
	BYTE		        Fs2 
	BYTE	W12
	BYTE		        Fs1 
	BYTE	W12
	BYTE		        Fs2 
	BYTE	W12
	BYTE	PEND
// 009   ----------------------------------------
FFABossDerTheVaporeon_4_009:
	BYTE		N11     Fn1   v127
	BYTE	W12
	BYTE		        Fn2 
	BYTE	W12
	BYTE		        Fn1 
	BYTE	W12
	BYTE		        Fn2 
	BYTE	W12
	BYTE		        Gn1 
	BYTE	W12
	BYTE		        Gn2 
	BYTE	W12
	BYTE		        Gn1 
	BYTE	W12
	BYTE		        Gn2 
	BYTE	W12
	BYTE	PEND
// 010   ----------------------------------------
	BYTE	PATT
	 POIN2	FFABossDerTheVaporeon_4_004
// 011   ----------------------------------------
	BYTE	PATT
	 POIN2	FFABossDerTheVaporeon_4_004
// 012   ----------------------------------------
	BYTE	PATT
	 POIN2	FFABossDerTheVaporeon_4_004
// 013   ----------------------------------------
	BYTE	PATT
	 POIN2	FFABossDerTheVaporeon_4_004
// 014   ----------------------------------------
	BYTE	PATT
	 POIN2	FFABossDerTheVaporeon_4_008
// 015   ----------------------------------------
	BYTE	PATT
	 POIN2	FFABossDerTheVaporeon_4_009
// 016   ----------------------------------------
FFABossDerTheVaporeon_4_016:
	BYTE		N11     Fn1   v127
	BYTE	W12
	BYTE		        Fn2 
	BYTE	W12
	BYTE		        Fn1 
	BYTE	W12
	BYTE		        Fn2 
	BYTE	W12
	BYTE		        Fn1 
	BYTE	W12
	BYTE		        Fn2 
	BYTE	W12
	BYTE		        Cn1 
	BYTE	W12
	BYTE		        Cn2 
	BYTE	W12
	BYTE	PEND
// 017   ----------------------------------------
	BYTE	PATT
	 POIN2	FFABossDerTheVaporeon_4_016
// 018   ----------------------------------------
	BYTE	PATT
	 POIN2	FFABossDerTheVaporeon_4_016
// 019   ----------------------------------------
	BYTE	PATT
	 POIN2	FFABossDerTheVaporeon_4_016
// 020   ----------------------------------------
	BYTE	PATT
	 POIN2	FFABossDerTheVaporeon_4_016
// 021   ----------------------------------------
	BYTE	PATT
	 POIN2	FFABossDerTheVaporeon_4_016
// 022   ----------------------------------------
	BYTE	PATT
	 POIN2	FFABossDerTheVaporeon_4_016
// 023   ----------------------------------------
	BYTE	PATT
	 POIN2	FFABossDerTheVaporeon_4_016
// 024   ----------------------------------------
FFABossDerTheVaporeon_4_024:
	BYTE		N11     En1   v127
	BYTE	W12
	BYTE		        En2 
	BYTE	W12
	BYTE		        En1 
	BYTE	W12
	BYTE		        En2 
	BYTE	W12
	BYTE		        En1 
	BYTE	W12
	BYTE		        En2 
	BYTE	W12
	BYTE		        En1 
	BYTE	W12
	BYTE		        En2 
	BYTE	W12
	BYTE	PEND
// 025   ----------------------------------------
FFABossDerTheVaporeon_4_025:
	BYTE		N11     Fn1   v127
	BYTE	W12
	BYTE		        Fn2 
	BYTE	W12
	BYTE		        Fn1 
	BYTE	W12
	BYTE		        Fn2 
	BYTE	W12
	BYTE		        Fn1 
	BYTE	W12
	BYTE		        Fn2 
	BYTE	W12
	BYTE		        Fn1 
	BYTE	W12
	BYTE		        Fn2 
	BYTE	W12
	BYTE	PEND
// 026   ----------------------------------------
FFABossDerTheVaporeon_4_026:
	BYTE		N11     Gn1   v127
	BYTE	W12
	BYTE		        Gn2 
	BYTE	W12
	BYTE		        Gn1 
	BYTE	W12
	BYTE		        Gn2 
	BYTE	W12
	BYTE		        Fn1 
	BYTE	W12
	BYTE		        Fn2 
	BYTE	W12
	BYTE		        Fn1 
	BYTE	W12
	BYTE		        Fn2 
	BYTE	W12
	BYTE	PEND
// 027   ----------------------------------------
FFABossDerTheVaporeon_4_027:
	BYTE		N11     En1   v127
	BYTE	W12
	BYTE		        En2 
	BYTE	W12
	BYTE		        En1 
	BYTE	W12
	BYTE		        En2 
	BYTE	W12
	BYTE		        Gs1 
	BYTE	W12
	BYTE		        Gs2 
	BYTE	W12
	BYTE		        Gs1 
	BYTE	W12
	BYTE		        Gs2 
	BYTE	W12
	BYTE	PEND
// 028   ----------------------------------------
	BYTE	PATT
	 POIN2	FFABossDerTheVaporeon_4_004
// 029   ----------------------------------------
	BYTE	PATT
	 POIN2	FFABossDerTheVaporeon_4_004
// 030   ----------------------------------------
	BYTE	PATT
	 POIN2	FFABossDerTheVaporeon_4_004
// 031   ----------------------------------------
	BYTE	PATT
	 POIN2	FFABossDerTheVaporeon_4_004
// 032   ----------------------------------------
	BYTE	PATT
	 POIN2	FFABossDerTheVaporeon_4_008
// 033   ----------------------------------------
	BYTE	PATT
	 POIN2	FFABossDerTheVaporeon_4_009
// 034   ----------------------------------------
	BYTE	PATT
	 POIN2	FFABossDerTheVaporeon_4_004
// 035   ----------------------------------------
	BYTE	PATT
	 POIN2	FFABossDerTheVaporeon_4_004
// 036   ----------------------------------------
	BYTE	PATT
	 POIN2	FFABossDerTheVaporeon_4_004
// 037   ----------------------------------------
	BYTE	PATT
	 POIN2	FFABossDerTheVaporeon_4_004
// 038   ----------------------------------------
	BYTE	PATT
	 POIN2	FFABossDerTheVaporeon_4_008
// 039   ----------------------------------------
	BYTE	PATT
	 POIN2	FFABossDerTheVaporeon_4_009
// 040   ----------------------------------------
	BYTE	PATT
	 POIN2	FFABossDerTheVaporeon_4_016
// 041   ----------------------------------------
	BYTE	PATT
	 POIN2	FFABossDerTheVaporeon_4_016
// 042   ----------------------------------------
	BYTE	PATT
	 POIN2	FFABossDerTheVaporeon_4_016
// 043   ----------------------------------------
	BYTE	PATT
	 POIN2	FFABossDerTheVaporeon_4_016
// 044   ----------------------------------------
	BYTE	PATT
	 POIN2	FFABossDerTheVaporeon_4_016
// 045   ----------------------------------------
	BYTE	PATT
	 POIN2	FFABossDerTheVaporeon_4_016
// 046   ----------------------------------------
	BYTE	PATT
	 POIN2	FFABossDerTheVaporeon_4_016
// 047   ----------------------------------------
	BYTE	PATT
	 POIN2	FFABossDerTheVaporeon_4_016
// 048   ----------------------------------------
	BYTE	PATT
	 POIN2	FFABossDerTheVaporeon_4_024
// 049   ----------------------------------------
	BYTE	PATT
	 POIN2	FFABossDerTheVaporeon_4_025
// 050   ----------------------------------------
	BYTE	PATT
	 POIN2	FFABossDerTheVaporeon_4_026
// 051   ----------------------------------------
	BYTE	PATT
	 POIN2	FFABossDerTheVaporeon_4_027
// 052   ----------------------------------------
	BYTE	PATT
	 POIN2	FFABossDerTheVaporeon_4_004
// 053   ----------------------------------------
	BYTE	PATT
	 POIN2	FFABossDerTheVaporeon_4_004
// 054   ----------------------------------------
	BYTE	PATT
	 POIN2	FFABossDerTheVaporeon_4_004
// 055   ----------------------------------------
	BYTE	PATT
	 POIN2	FFABossDerTheVaporeon_4_004
// 056   ----------------------------------------
	BYTE	PATT
	 POIN2	FFABossDerTheVaporeon_4_008
// 057   ----------------------------------------
	BYTE	PATT
	 POIN2	FFABossDerTheVaporeon_4_009
// 058   ----------------------------------------
	BYTE	PATT
	 POIN2	FFABossDerTheVaporeon_4_004
// 059   ----------------------------------------
	BYTE	PATT
	 POIN2	FFABossDerTheVaporeon_4_004
// 060   ----------------------------------------
	BYTE	PATT
	 POIN2	FFABossDerTheVaporeon_4_004
// 061   ----------------------------------------
	BYTE	PATT
	 POIN2	FFABossDerTheVaporeon_4_004
// 062   ----------------------------------------
	BYTE	PATT
	 POIN2	FFABossDerTheVaporeon_4_008
// 063   ----------------------------------------
	BYTE	PATT
	 POIN2	FFABossDerTheVaporeon_4_009
// 064   ----------------------------------------
	BYTE	PATT
	 POIN2	FFABossDerTheVaporeon_4_016
// 065   ----------------------------------------
	BYTE	PATT
	 POIN2	FFABossDerTheVaporeon_4_016
// 066   ----------------------------------------
	BYTE	PATT
	 POIN2	FFABossDerTheVaporeon_4_016
// 067   ----------------------------------------
	BYTE	PATT
	 POIN2	FFABossDerTheVaporeon_4_016
// 068   ----------------------------------------
	BYTE	PATT
	 POIN2	FFABossDerTheVaporeon_4_016
// 069   ----------------------------------------
	BYTE	PATT
	 POIN2	FFABossDerTheVaporeon_4_016
// 070   ----------------------------------------
	BYTE	PATT
	 POIN2	FFABossDerTheVaporeon_4_016
// 071   ----------------------------------------
	BYTE	PATT
	 POIN2	FFABossDerTheVaporeon_4_016
// 072   ----------------------------------------
	BYTE	PATT
	 POIN2	FFABossDerTheVaporeon_4_024
// 073   ----------------------------------------
	BYTE	PATT
	 POIN2	FFABossDerTheVaporeon_4_025
// 074   ----------------------------------------
	BYTE	PATT
	 POIN2	FFABossDerTheVaporeon_4_026
// 075   ----------------------------------------
	BYTE	PATT
	 POIN2	FFABossDerTheVaporeon_4_027
	BYTE	GoTo
	 POIN2	FFABossDerTheVaporeon_4_B1
FFABossDerTheVaporeon_4_B2:
// 076   ----------------------------------------
	BYTE	PATT
	 POIN2	FFABossDerTheVaporeon_4_004
// 077   ----------------------------------------
	BYTE	PATT
	 POIN2	FFABossDerTheVaporeon_4_004
// 078   ----------------------------------------
	BYTE	PATT
	 POIN2	FFABossDerTheVaporeon_4_004
// 079   ----------------------------------------
	BYTE		N92     An1   v127
	BYTE		N92     An2 
	BYTE	W92
	BYTE	W03
	BYTE	FINE

//**************** Track 5 (Midi-Chn.5) ****************//

FFABossDerTheVaporeon_5:
	BYTE	KEYSH   FFABossDerTheVaporeon_key+0
// 000   ----------------------------------------
	BYTE		VOICE   127
	BYTE		VOL     63*FFABossDerTheVaporeon_mvl/mxv
	BYTE		N92     Cn1   v127
	BYTE		N92     An2 
	BYTE	W36
	BYTE		N05     Dn1 
	BYTE	W06
	BYTE		N05   
	BYTE	W06
	BYTE		N11   
	BYTE	W12
	BYTE		N11   
	BYTE	W12
	BYTE		N23   
	BYTE	W24
// 001   ----------------------------------------
FFABossDerTheVaporeon_5_001:
	BYTE		N92     Cn1   v127
	BYTE		N92     An2 
	BYTE	W36
	BYTE		N05     Dn1 
	BYTE	W06
	BYTE		N05   
	BYTE	W06
	BYTE		N11   
	BYTE	W12
	BYTE		N11   
	BYTE	W12
	BYTE		N23   
	BYTE	W24
	BYTE	PEND
// 002   ----------------------------------------
	BYTE	PATT
	 POIN2	FFABossDerTheVaporeon_5_001
// 003   ----------------------------------------
	BYTE		N23     Cn1   v127
	BYTE		N44     An2 
	BYTE	W36
	BYTE		N05     Dn1 
	BYTE	W06
	BYTE		N05   
	BYTE	W06
	BYTE		N23     Cn1 
	BYTE		N11     Dn1 
	BYTE		N23     An2 
	BYTE	W12
	BYTE		N11     Dn1 
	BYTE	W12
	BYTE		N23     Cn1 
	BYTE		N06     Dn1 
	BYTE		N23     An2 
	BYTE	W06
	BYTE		N05     Dn1 
	BYTE	W06
	BYTE		N05   
	BYTE	W06
	BYTE		N05   
	BYTE	W06
FFABossDerTheVaporeon_5_B1:
// 004   ----------------------------------------
FFABossDerTheVaporeon_5_004:
	BYTE		N23     Cn1   v127
	BYTE		N11     Gs1 
	BYTE	W12
	BYTE		N05   
	BYTE	W06
	BYTE		N05   
	BYTE	W06
	BYTE		N23     Dn1 
	BYTE		N11     Gs1 
	BYTE	W12
	BYTE		N05   
	BYTE	W06
	BYTE		N05   
	BYTE	W06
	BYTE		N23     Cn1 
	BYTE		N11     Gs1 
	BYTE	W12
	BYTE		N05   
	BYTE	W06
	BYTE		N05   
	BYTE	W06
	BYTE		N23     Dn1 
	BYTE		N11     Gs1 
	BYTE	W12
	BYTE		N05   
	BYTE	W06
	BYTE		N05   
	BYTE	W06
	BYTE	PEND
// 005   ----------------------------------------
	BYTE	PATT
	 POIN2	FFABossDerTheVaporeon_5_004
// 006   ----------------------------------------
	BYTE	PATT
	 POIN2	FFABossDerTheVaporeon_5_004
// 007   ----------------------------------------
	BYTE	PATT
	 POIN2	FFABossDerTheVaporeon_5_004
// 008   ----------------------------------------
FFABossDerTheVaporeon_5_008:
	BYTE		N11     Dn1   v127
	BYTE		N11     Gs1 
	BYTE		N32     An2 
	BYTE	W12
	BYTE		N11     Cn1 
	BYTE		N05     Gs1 
	BYTE	W06
	BYTE		N05   
	BYTE	W06
	BYTE		N11     Cn1 
	BYTE		N11     Gs1 
	BYTE	W12
	BYTE		        Dn1 
	BYTE		N05     Gs1 
	BYTE		N32     An2 
	BYTE	W06
	BYTE		N05     Gs1 
	BYTE	W06
	BYTE		N11     Cn1 
	BYTE		N11     Gs1 
	BYTE	W12
	BYTE		        Cn1 
	BYTE		N05     Gs1 
	BYTE	W06
	BYTE		N05   
	BYTE	W06
	BYTE		N11     Dn1 
	BYTE		N11     Gs1 
	BYTE		N23     An2 
	BYTE	W12
	BYTE		N11     Cn1 
	BYTE		N05     Gs1 
	BYTE	W06
	BYTE		N05   
	BYTE	W06
	BYTE	PEND
// 009   ----------------------------------------
FFABossDerTheVaporeon_5_009:
	BYTE		N11     Dn1   v127
	BYTE		N11     Gs1 
	BYTE		N32     An2 
	BYTE	W12
	BYTE		N11     Cn1 
	BYTE		N05     Gs1 
	BYTE	W06
	BYTE		N05   
	BYTE	W06
	BYTE		N11     Cn1 
	BYTE		N11     Gs1 
	BYTE	W12
	BYTE		        Dn1 
	BYTE		N05     Gs1 
	BYTE		N32     An2 
	BYTE	W06
	BYTE		N05     Gs1 
	BYTE	W06
	BYTE		N11     Cn1 
	BYTE		N11     Gs1 
	BYTE	W12
	BYTE		        Cn1 
	BYTE		N05     Gs1 
	BYTE	W06
	BYTE		N05   
	BYTE	W06
	BYTE		N06     Dn1 
	BYTE		N11     Gs1 
	BYTE		N23     An2 
	BYTE	W06
	BYTE		N05     Dn1 
	BYTE	W06
	BYTE		N11     Cn1 
	BYTE		N05     Dn1 
	BYTE		N05     Gs1 
	BYTE	W06
	BYTE		        Dn1 
	BYTE		N05     Gs1 
	BYTE	W06
	BYTE	PEND
// 010   ----------------------------------------
	BYTE	PATT
	 POIN2	FFABossDerTheVaporeon_5_004
// 011   ----------------------------------------
	BYTE	PATT
	 POIN2	FFABossDerTheVaporeon_5_004
// 012   ----------------------------------------
	BYTE	PATT
	 POIN2	FFABossDerTheVaporeon_5_004
// 013   ----------------------------------------
	BYTE	PATT
	 POIN2	FFABossDerTheVaporeon_5_004
// 014   ----------------------------------------
	BYTE	PATT
	 POIN2	FFABossDerTheVaporeon_5_008
// 015   ----------------------------------------
	BYTE	PATT
	 POIN2	FFABossDerTheVaporeon_5_009
// 016   ----------------------------------------
	BYTE	PATT
	 POIN2	FFABossDerTheVaporeon_5_004
// 017   ----------------------------------------
	BYTE	PATT
	 POIN2	FFABossDerTheVaporeon_5_004
// 018   ----------------------------------------
	BYTE	PATT
	 POIN2	FFABossDerTheVaporeon_5_004
// 019   ----------------------------------------
	BYTE	PATT
	 POIN2	FFABossDerTheVaporeon_5_004
// 020   ----------------------------------------
	BYTE	PATT
	 POIN2	FFABossDerTheVaporeon_5_004
// 021   ----------------------------------------
	BYTE	PATT
	 POIN2	FFABossDerTheVaporeon_5_004
// 022   ----------------------------------------
	BYTE	PATT
	 POIN2	FFABossDerTheVaporeon_5_004
// 023   ----------------------------------------
	BYTE	PATT
	 POIN2	FFABossDerTheVaporeon_5_004
// 024   ----------------------------------------
FFABossDerTheVaporeon_5_024:
	BYTE		N11     Cn1   v127
	BYTE		N11     Gs1 
	BYTE	W12
	BYTE		N05   
	BYTE	W06
	BYTE		N05   
	BYTE	W06
	BYTE		N11   
	BYTE	W12
	BYTE		        Cn1 
	BYTE		N05     Gs1 
	BYTE	W06
	BYTE		N05   
	BYTE	W06
	BYTE		N11   
	BYTE	W12
	BYTE		        Cn1 
	BYTE		N05     Gs1 
	BYTE		N11     An2 
	BYTE	W06
	BYTE		N05     Gs1 
	BYTE	W06
	BYTE		N11     Cn1 
	BYTE		N11     Gs1 
	BYTE	W12
	BYTE		N05   
	BYTE		N11     An2 
	BYTE	W06
	BYTE		N05     Gs1 
	BYTE	W06
	BYTE	PEND
// 025   ----------------------------------------
FFABossDerTheVaporeon_5_025:
	BYTE		N11     Cn1   v127
	BYTE		N11     Gs1 
	BYTE	W12
	BYTE		N05   
	BYTE	W06
	BYTE		N05   
	BYTE	W06
	BYTE		N11   
	BYTE	W12
	BYTE		        Cn1 
	BYTE		N05     Gs1 
	BYTE	W06
	BYTE		N05   
	BYTE	W06
	BYTE		N11     Cn1 
	BYTE		N11     Gs1 
	BYTE	W12
	BYTE		N05   
	BYTE		N11     An2 
	BYTE	W06
	BYTE		N05     Gs1 
	BYTE	W06
	BYTE		N11     Cn1 
	BYTE		N11     Gs1 
	BYTE	W12
	BYTE		N05   
	BYTE		N11     An2 
	BYTE	W06
	BYTE		N05     Gs1 
	BYTE	W06
	BYTE	PEND
// 026   ----------------------------------------
FFABossDerTheVaporeon_5_026:
	BYTE		N11     Cn1   v127
	BYTE		N11     Gs1 
	BYTE	W12
	BYTE		        Cn1 
	BYTE		N11     Gs1 
	BYTE	W12
	BYTE		N23     Dn1 
	BYTE		N23     An2 
	BYTE	W24
	BYTE		N11     Cn1 
	BYTE		N11     Gs1 
	BYTE	W12
	BYTE		        Cn1 
	BYTE		N11     Gs1 
	BYTE	W12
	BYTE		N23     Dn1 
	BYTE		N23     An2 
	BYTE	W24
	BYTE	PEND
// 027   ----------------------------------------
FFABossDerTheVaporeon_5_027:
	BYTE		N11     Cn1   v127
	BYTE		N11     Gs1 
	BYTE	W12
	BYTE		        Cn1 
	BYTE		N11     Gs1 
	BYTE	W12
	BYTE		N23     Dn1 
	BYTE		N23     An2 
	BYTE	W24
	BYTE		N11     Cn1 
	BYTE		N11     Dn1 
	BYTE		N11     Gs1 
	BYTE	W12
	BYTE		        Cn1 
	BYTE		N11     Dn1 
	BYTE		N11     Gs1 
	BYTE	W12
	BYTE		N12     Dn1 
	BYTE		N11     Gs1 
	BYTE		N23     An2 
	BYTE	W12
	BYTE		N05     Dn1 
	BYTE		N05     Gs1 
	BYTE	W06
	BYTE		        Dn1 
	BYTE		N05     Gs1 
	BYTE	W06
	BYTE	PEND
// 028   ----------------------------------------
	BYTE	PATT
	 POIN2	FFABossDerTheVaporeon_5_004
// 029   ----------------------------------------
	BYTE	PATT
	 POIN2	FFABossDerTheVaporeon_5_004
// 030   ----------------------------------------
	BYTE	PATT
	 POIN2	FFABossDerTheVaporeon_5_004
// 031   ----------------------------------------
	BYTE	PATT
	 POIN2	FFABossDerTheVaporeon_5_004
// 032   ----------------------------------------
	BYTE	PATT
	 POIN2	FFABossDerTheVaporeon_5_008
// 033   ----------------------------------------
	BYTE	PATT
	 POIN2	FFABossDerTheVaporeon_5_009
// 034   ----------------------------------------
	BYTE	PATT
	 POIN2	FFABossDerTheVaporeon_5_004
// 035   ----------------------------------------
	BYTE	PATT
	 POIN2	FFABossDerTheVaporeon_5_004
// 036   ----------------------------------------
	BYTE	PATT
	 POIN2	FFABossDerTheVaporeon_5_004
// 037   ----------------------------------------
	BYTE	PATT
	 POIN2	FFABossDerTheVaporeon_5_004
// 038   ----------------------------------------
	BYTE	PATT
	 POIN2	FFABossDerTheVaporeon_5_008
// 039   ----------------------------------------
	BYTE	PATT
	 POIN2	FFABossDerTheVaporeon_5_009
// 040   ----------------------------------------
	BYTE	PATT
	 POIN2	FFABossDerTheVaporeon_5_004
// 041   ----------------------------------------
	BYTE	PATT
	 POIN2	FFABossDerTheVaporeon_5_004
// 042   ----------------------------------------
	BYTE	PATT
	 POIN2	FFABossDerTheVaporeon_5_004
// 043   ----------------------------------------
	BYTE	PATT
	 POIN2	FFABossDerTheVaporeon_5_004
// 044   ----------------------------------------
	BYTE	PATT
	 POIN2	FFABossDerTheVaporeon_5_004
// 045   ----------------------------------------
	BYTE	PATT
	 POIN2	FFABossDerTheVaporeon_5_004
// 046   ----------------------------------------
	BYTE	PATT
	 POIN2	FFABossDerTheVaporeon_5_004
// 047   ----------------------------------------
	BYTE	PATT
	 POIN2	FFABossDerTheVaporeon_5_004
// 048   ----------------------------------------
	BYTE	PATT
	 POIN2	FFABossDerTheVaporeon_5_024
// 049   ----------------------------------------
	BYTE	PATT
	 POIN2	FFABossDerTheVaporeon_5_025
// 050   ----------------------------------------
	BYTE	PATT
	 POIN2	FFABossDerTheVaporeon_5_026
// 051   ----------------------------------------
	BYTE	PATT
	 POIN2	FFABossDerTheVaporeon_5_027
// 052   ----------------------------------------
	BYTE	PATT
	 POIN2	FFABossDerTheVaporeon_5_004
// 053   ----------------------------------------
	BYTE	PATT
	 POIN2	FFABossDerTheVaporeon_5_004
// 054   ----------------------------------------
	BYTE	PATT
	 POIN2	FFABossDerTheVaporeon_5_004
// 055   ----------------------------------------
	BYTE	PATT
	 POIN2	FFABossDerTheVaporeon_5_004
// 056   ----------------------------------------
	BYTE	PATT
	 POIN2	FFABossDerTheVaporeon_5_008
// 057   ----------------------------------------
	BYTE	PATT
	 POIN2	FFABossDerTheVaporeon_5_009
// 058   ----------------------------------------
	BYTE	PATT
	 POIN2	FFABossDerTheVaporeon_5_004
// 059   ----------------------------------------
	BYTE	PATT
	 POIN2	FFABossDerTheVaporeon_5_004
// 060   ----------------------------------------
	BYTE	PATT
	 POIN2	FFABossDerTheVaporeon_5_004
// 061   ----------------------------------------
	BYTE	PATT
	 POIN2	FFABossDerTheVaporeon_5_004
// 062   ----------------------------------------
	BYTE	PATT
	 POIN2	FFABossDerTheVaporeon_5_008
// 063   ----------------------------------------
	BYTE	PATT
	 POIN2	FFABossDerTheVaporeon_5_009
// 064   ----------------------------------------
	BYTE	PATT
	 POIN2	FFABossDerTheVaporeon_5_004
// 065   ----------------------------------------
	BYTE	PATT
	 POIN2	FFABossDerTheVaporeon_5_004
// 066   ----------------------------------------
	BYTE	PATT
	 POIN2	FFABossDerTheVaporeon_5_004
// 067   ----------------------------------------
	BYTE	PATT
	 POIN2	FFABossDerTheVaporeon_5_004
// 068   ----------------------------------------
	BYTE	PATT
	 POIN2	FFABossDerTheVaporeon_5_004
// 069   ----------------------------------------
	BYTE	PATT
	 POIN2	FFABossDerTheVaporeon_5_004
// 070   ----------------------------------------
	BYTE	PATT
	 POIN2	FFABossDerTheVaporeon_5_004
// 071   ----------------------------------------
	BYTE	PATT
	 POIN2	FFABossDerTheVaporeon_5_004
// 072   ----------------------------------------
	BYTE	PATT
	 POIN2	FFABossDerTheVaporeon_5_024
// 073   ----------------------------------------
	BYTE	PATT
	 POIN2	FFABossDerTheVaporeon_5_025
// 074   ----------------------------------------
	BYTE	PATT
	 POIN2	FFABossDerTheVaporeon_5_026
// 075   ----------------------------------------
	BYTE	PATT
	 POIN2	FFABossDerTheVaporeon_5_027
	BYTE	GoTo
	 POIN2	FFABossDerTheVaporeon_5_B1
FFABossDerTheVaporeon_5_B2:
// 076   ----------------------------------------
	BYTE	PATT
	 POIN2	FFABossDerTheVaporeon_5_004
// 077   ----------------------------------------
	BYTE	PATT
	 POIN2	FFABossDerTheVaporeon_5_004
// 078   ----------------------------------------
	BYTE		N23     Cn1   v127
	BYTE		N11     Gs1 
	BYTE	W12
	BYTE		N05   
	BYTE	W06
	BYTE		N05   
	BYTE	W06
	BYTE		N23     Dn1 
	BYTE		N11     Gs1 
	BYTE	W12
	BYTE		N05   
	BYTE	W06
	BYTE		N05   
	BYTE	W06
	BYTE		N23     Cn1 
	BYTE		N11     Gs1 
	BYTE	W12
	BYTE		N05   
	BYTE	W06
	BYTE		N05   
	BYTE	W06
	BYTE		N12     Dn1 
	BYTE		N11     Gs1 
	BYTE	W12
	BYTE		N05     Dn1 
	BYTE		N05     Gs1 
	BYTE	W06
	BYTE		        Dn1 
	BYTE		N05     Gs1 
	BYTE	W06
// 079   ----------------------------------------
	BYTE		N92     Cn1 
	BYTE		N92     An2 
	BYTE	W92
	BYTE	W03
	BYTE	FINE

//******************************************************//
	ALIGN 4

FFABossDerTheVaporeon:
	BYTE	5	// NumTrks
	BYTE	0	// NumBlks
	BYTE	FFABossDerTheVaporeon_pri	// Priority
	BYTE	FFABossDerTheVaporeon_rev	// Reverb.

	POIN2	FFABossDerTheVaporeon_grp

	POIN2	FFABossDerTheVaporeon_1
	POIN2	FFABossDerTheVaporeon_2
	POIN2	FFABossDerTheVaporeon_3
	POIN2	FFABossDerTheVaporeon_4
	POIN2	FFABossDerTheVaporeon_5

	
