//Event file generated from Sappy .s format.
	#include "MPlayDef.event"

	#define	FFLegendFinalBossMrGreen3339_grp  voicegroup000
	#define	FFLegendFinalBossMrGreen3339_pri  0
	#define	FFLegendFinalBossMrGreen3339_rev  0
	#define	FFLegendFinalBossMrGreen3339_mvl  127
	#define	FFLegendFinalBossMrGreen3339_key  0
	#define	FFLegendFinalBossMrGreen3339_tbs  1
	#define	FFLegendFinalBossMrGreen3339_exg  0
	#define	FFLegendFinalBossMrGreen3339_cmp  1

	// .rodata
	//	FFLegendFinalBossMrGreen3339
	ALIGN 4


//**************** Track 1 (Midi-Chn.0) ****************//

FFLegendFinalBossMrGreen3339_001:
// 000   ----------------------------------------
 BYTE   KEYSH   FFLegendFinalBossMrGreen3339_key+0
 BYTE   TEMPO   170*FFLegendFinalBossMrGreen3339_tbs/2
 BYTE   VOICE   48
 BYTE   PAN   c_v+43
 BYTE   VOL   44*FFLegendFinalBossMrGreen3339_mvl/mxv
 BYTE   N24  Gn3  v100
 BYTE   N24  En4
 BYTE   W24
 BYTE   Fs3
 BYTE   N24  Ds4
 BYTE   W24
 BYTE   Fn3
 BYTE   N24  Dn4
 BYTE   W24
 BYTE   En3
 BYTE   N24  Cs4
 BYTE   W24
// 001   ----------------------------------------
 BYTE   Ds3
 BYTE   N24  Cn4
 BYTE   W24
 BYTE   Dn3
 BYTE   N24  Bn3
 BYTE   W24
 BYTE   Cs3
 BYTE   N24  As3
 BYTE   W24
 BYTE   Cn3
 BYTE   N24  An3
 BYTE   W24
// 002   ----------------------------------------
 BYTE   Gn3  v112
 BYTE   N24  En4
 BYTE   W24
 BYTE   Fs3
 BYTE   N24  Ds4
 BYTE   W24
 BYTE   Fn3
 BYTE   N24  Dn4
 BYTE   W24
 BYTE   En3
 BYTE   N24  Cs4
 BYTE   W24
// 003   ----------------------------------------
 BYTE   Ds3
 BYTE   N24  Cn4
 BYTE   W24
 BYTE   Dn3
 BYTE   N24  Bn3
 BYTE   W24
 BYTE   Cs3
 BYTE   N24  As3
 BYTE   W24
 BYTE   Cn3
 BYTE   N24  An3
 BYTE   W24
// 004   ----------------------------------------
 BYTE   TIE  Bn2  v108
 BYTE   N06  En3
 BYTE   W06
 BYTE   Fn3
 BYTE   W06
 BYTE   En3  v104
 BYTE   W06
 BYTE   Fn3  v096
 BYTE   W06
 BYTE   En3  v088
 BYTE   W06
 BYTE   Fn3  v084
 BYTE   W06
 BYTE   En3  v076
 BYTE   W06
 BYTE   Fn3  v072
 BYTE   W06
 BYTE   En3  v064
 BYTE   W06
 BYTE   Fn3  v060
 BYTE   W06
 BYTE   En3  v056
 BYTE   W06
 BYTE   Fn3  v052
 BYTE   W06
 BYTE   En3  v044
 BYTE   W06
 BYTE   Fn3
 BYTE   W06
 BYTE   En3
 BYTE   W06
 BYTE   Fn3
 BYTE   W06
// 005   ----------------------------------------
 BYTE   En3
 BYTE   W06
 BYTE   Fn3
 BYTE   W06
 BYTE   En3
 BYTE   W06
 BYTE   Fn3
 BYTE   W06
 BYTE   En3
 BYTE   W06
 BYTE   Fn3
 BYTE   W06
 BYTE   En3
 BYTE   W06
 BYTE   Fn3
 BYTE   W06
 BYTE   En3
 BYTE   W06
 BYTE   Fn3
 BYTE   W06
 BYTE   En3
 BYTE   W06
 BYTE   Fn3
 BYTE   W06
 BYTE   N02  En3  v108
 BYTE   W04
 BYTE   Fs3
 BYTE   W04
 BYTE   An3
 BYTE   W04
 BYTE   Bn3
 BYTE   W04
 BYTE   Dn4
 BYTE   W04
 BYTE   En4
 BYTE   W04
// 006   ----------------------------------------
 BYTE   EOT
 BYTE   Bn2
Label_0_0113F0C4:
 BYTE   N24  An3  v100
 BYTE   N24  An4
 BYTE   W24
 BYTE   Gn4
 BYTE   N24  Gn5
 BYTE   W24
 BYTE   N12  Fs4
 BYTE   N12  Fs5
 BYTE   W12
 BYTE   N24  En4
 BYTE   N24  En5
 BYTE   W24
 BYTE   N12  An3
 BYTE   N12  An4
 BYTE   W12
 BYTE   PEND 
// 007   ----------------------------------------
Label_0_0113F0DE:
 BYTE   N24  Gn4  v100
 BYTE   N24  Gn5
 BYTE   W24
 BYTE   N12  Fs4
 BYTE   N12  Fs5
 BYTE   W12
 BYTE   N24  En4
 BYTE   N24  En5
 BYTE   W24
 BYTE   N12  Cn4
 BYTE   N12  Cn5
 BYTE   W12
 BYTE   Dn4
 BYTE   N12  Dn5
 BYTE   W12
 BYTE   En4
 BYTE   N12  En5
 BYTE   W12
 BYTE   PEND 
// 008   ----------------------------------------
 BYTE   PATT
  POIN2 Label_0_0113F0C4
// 009   ----------------------------------------
 BYTE   PATT
  POIN2 Label_0_0113F0DE
// 010   ----------------------------------------
Label_0_0113F106:
 BYTE   N24  Dn4  v100
 BYTE   N24  Dn5
 BYTE   W24
 BYTE   Dn4
 BYTE   N24  Dn5
 BYTE   W24
 BYTE   Bn3
 BYTE   N24  Bn4
 BYTE   W24
 BYTE   Dn4
 BYTE   N24  Dn5
 BYTE   W24
 BYTE   PEND 
// 011   ----------------------------------------
Label_0_0113F119:
 BYTE   N48  Cn4  v100
 BYTE   N48  Cn5
 BYTE   W48
 BYTE   N24  An3
 BYTE   N24  An4
 BYTE   W24
 BYTE   Cn4
 BYTE   N24  Cn5
 BYTE   W24
 BYTE   PEND 
// 012   ----------------------------------------
Label_0_0113F129:
 BYTE   N24  Bn3  v100
 BYTE   N24  Bn4
 BYTE   W24
 BYTE   Gn3
 BYTE   N24  Gn4
 BYTE   W24
 BYTE   Dn4
 BYTE   N24  Dn5
 BYTE   W24
 BYTE   Cn4
 BYTE   N24  Cn5
 BYTE   W24
 BYTE   PEND 
// 013   ----------------------------------------
Label_0_0113F13C:
 BYTE   N48  Bn3  v100
 BYTE   N48  Bn4
 BYTE   W48
 BYTE   N03  Ds4
 BYTE   N03  Ds5
 BYTE   W03
 BYTE   N44  En4
 BYTE   N44  En5
 BYTE   W44
 BYTE   W01
 BYTE   PEND 
// 014   ----------------------------------------
 BYTE   PATT
  POIN2 Label_0_0113F0C4
// 015   ----------------------------------------
 BYTE   PATT
  POIN2 Label_0_0113F0DE
// 016   ----------------------------------------
 BYTE   PATT
  POIN2 Label_0_0113F0C4
// 017   ----------------------------------------
 BYTE   PATT
  POIN2 Label_0_0113F0DE
// 018   ----------------------------------------
 BYTE   PATT
  POIN2 Label_0_0113F106
// 019   ----------------------------------------
 BYTE   PATT
  POIN2 Label_0_0113F119
// 020   ----------------------------------------
 BYTE   PATT
  POIN2 Label_0_0113F129
// 021   ----------------------------------------
 BYTE   PATT
  POIN2 Label_0_0113F13C
// 022   ----------------------------------------
 BYTE   W96
// 023   ----------------------------------------
 BYTE   W96
// 024   ----------------------------------------
 BYTE   N06  Cn3  v104
 BYTE   W06
 BYTE   En3
 BYTE   W06
 BYTE   Gn3
 BYTE   W06
 BYTE   En3
 BYTE   W06
 BYTE   Cn3
 BYTE   W06
 BYTE   En3
 BYTE   W06
 BYTE   Gn3
 BYTE   W06
 BYTE   En3
 BYTE   W06
 BYTE   Cn3
 BYTE   W06
 BYTE   Fs3
 BYTE   W06
 BYTE   An3
 BYTE   W06
 BYTE   Fs3
 BYTE   W06
 BYTE   Cn3
 BYTE   W06
 BYTE   Gn3
 BYTE   W06
 BYTE   Bn3
 BYTE   W06
 BYTE   Gn3
 BYTE   W06
// 025   ----------------------------------------
 BYTE   Cn3
 BYTE   W06
 BYTE   Fs3
 BYTE   W06
 BYTE   An3
 BYTE   W06
 BYTE   Fs3
 BYTE   W06
 BYTE   Cn3
 BYTE   W06
 BYTE   En3
 BYTE   W06
 BYTE   Gn3
 BYTE   W06
 BYTE   En3
 BYTE   W06
 BYTE   Cn3
 BYTE   W06
 BYTE   En3
 BYTE   W06
 BYTE   Gn3
 BYTE   W06
 BYTE   En3
 BYTE   W06
 BYTE   Cn3
 BYTE   W06
 BYTE   En3
 BYTE   W06
 BYTE   Dn3
 BYTE   W06
 BYTE   Fs3
 BYTE   W06
// 026   ----------------------------------------
Label_0_0113F1BA:
 BYTE   N48  Gn3  v127
 BYTE   N48  Gn4
 BYTE   W48
 BYTE   N24  An3
 BYTE   N24  An4
 BYTE   W24
 BYTE   Bn3
 BYTE   N24  Bn4
 BYTE   W24
 BYTE   PEND 
// 027   ----------------------------------------
Label_0_0113F1CA:
 BYTE   N24  An3  v127
 BYTE   N24  An4
 BYTE   W24
 BYTE   Gn3
 BYTE   N24  Gn4
 BYTE   W72
 BYTE   PEND 
// 028   ----------------------------------------
 BYTE   N06  En3  v100
 BYTE   W06
 BYTE   Bn3
 BYTE   W06
 BYTE   En4
 BYTE   W06
 BYTE   Bn3
 BYTE   W06
 BYTE   En3
 BYTE   W06
 BYTE   Bn3
 BYTE   W06
 BYTE   En4
 BYTE   W06
 BYTE   Bn3
 BYTE   W06
 BYTE   En3
 BYTE   W06
 BYTE   N04  Dn4
 BYTE   W06
 BYTE   Fs4
 BYTE   W06
 BYTE   Dn4
 BYTE   W06
 BYTE   En3
 BYTE   W06
 BYTE   En4
 BYTE   W06
 BYTE   Gn4
 BYTE   W06
 BYTE   En4
 BYTE   W06
// 029   ----------------------------------------
 BYTE   En3
 BYTE   W06
 BYTE   Dn4
 BYTE   W06
 BYTE   Fs4
 BYTE   W06
 BYTE   Dn4
 BYTE   W06
 BYTE   En3
 BYTE   W06
 BYTE   Bn3
 BYTE   W06
 BYTE   En4
 BYTE   W06
 BYTE   Bn3
 BYTE   W06
 BYTE   En3
 BYTE   W06
 BYTE   Bn3
 BYTE   W06
 BYTE   En4
 BYTE   W06
 BYTE   Bn3
 BYTE   W06
 BYTE   En3
 BYTE   W06
 BYTE   Gn3
 BYTE   W06
 BYTE   Bn2
 BYTE   W06
 BYTE   Dn3
 BYTE   W06
// 030   ----------------------------------------
 BYTE   W96
// 031   ----------------------------------------
 BYTE   W96
// 032   ----------------------------------------
 BYTE   N06  Cn4  v104
 BYTE   W06
 BYTE   En4
 BYTE   W06
 BYTE   Gn4
 BYTE   W06
 BYTE   En4
 BYTE   W06
 BYTE   Cn4
 BYTE   W06
 BYTE   En4
 BYTE   W06
 BYTE   Gn4
 BYTE   W06
 BYTE   En4
 BYTE   W06
 BYTE   Cn4
 BYTE   W06
 BYTE   Fs4
 BYTE   W06
 BYTE   An4
 BYTE   W06
 BYTE   Fs4
 BYTE   W06
 BYTE   Cn4
 BYTE   W06
 BYTE   Gn4
 BYTE   W06
 BYTE   Bn4
 BYTE   W06
 BYTE   Gn4
 BYTE   W06
// 033   ----------------------------------------
 BYTE   Cn4
 BYTE   W06
 BYTE   Fs4
 BYTE   W06
 BYTE   An4
 BYTE   W06
 BYTE   Fs4
 BYTE   W06
 BYTE   Cn4
 BYTE   W06
 BYTE   En4
 BYTE   W06
 BYTE   Gn4
 BYTE   W06
 BYTE   En4
 BYTE   W06
 BYTE   Cn4
 BYTE   W06
 BYTE   En4
 BYTE   W06
 BYTE   Gn4
 BYTE   W06
 BYTE   En4
 BYTE   W06
 BYTE   Cn4
 BYTE   W06
 BYTE   En4
 BYTE   W06
 BYTE   Dn4
 BYTE   W06
 BYTE   Fs4
 BYTE   W06
// 034   ----------------------------------------
 BYTE   PATT
  POIN2 Label_0_0113F1BA
// 035   ----------------------------------------
 BYTE   PATT
  POIN2 Label_0_0113F1CA
// 036   ----------------------------------------
 BYTE   W96
// 037   ----------------------------------------
 BYTE   W96
// 038   ----------------------------------------
 BYTE   GoTo
  POIN2 Label_0_0113F0C4
 BYTE   FINE

//**************** Track 2 (Midi-Chn.1) ****************//

FFLegendFinalBossMrGreen3339_002:
// 000   ----------------------------------------
 BYTE   KEYSH   FFLegendFinalBossMrGreen3339_key+0
 BYTE   VOICE   56
 BYTE   PAN   c_v-44
 BYTE   VOL   48*FFLegendFinalBossMrGreen3339_mvl/mxv
 BYTE   N08  Gn4  v127
 BYTE   W08
 BYTE   N08
 BYTE   W08
 BYTE   N08
 BYTE   W08
 BYTE   Fs4
 BYTE   W08
 BYTE   N08
 BYTE   W08
 BYTE   N08
 BYTE   W08
 BYTE   Fn4
 BYTE   W08
 BYTE   N08
 BYTE   W08
 BYTE   N08
 BYTE   W08
 BYTE   En4
 BYTE   W08
 BYTE   N08
 BYTE   W08
 BYTE   N08
 BYTE   W08
// 001   ----------------------------------------
Label_1_0113FBE6:
 BYTE   N08  Ds4  v127
 BYTE   W08
 BYTE   N08
 BYTE   W08
 BYTE   N08
 BYTE   W08
 BYTE   Dn4
 BYTE   W08
 BYTE   N08
 BYTE   W08
 BYTE   N08
 BYTE   W08
 BYTE   Cs4
 BYTE   W08
 BYTE   N08
 BYTE   W08
 BYTE   N08
 BYTE   W08
 BYTE   Cn4
 BYTE   W08
 BYTE   N08
 BYTE   W08
 BYTE   N08
 BYTE   W08
 BYTE   PEND 
// 002   ----------------------------------------
 BYTE   Gn4
 BYTE   W08
 BYTE   N08
 BYTE   W08
 BYTE   N08
 BYTE   W08
 BYTE   Fs4
 BYTE   W08
 BYTE   N08
 BYTE   W08
 BYTE   N08
 BYTE   W08
 BYTE   Fn4
 BYTE   W08
 BYTE   N08
 BYTE   W08
 BYTE   N08
 BYTE   W08
 BYTE   En4
 BYTE   W08
 BYTE   N08
 BYTE   W08
 BYTE   N08
 BYTE   W08
// 003   ----------------------------------------
 BYTE   PATT
  POIN2 Label_1_0113FBE6
// 004   ----------------------------------------
 BYTE   N05  Bn3  v127
 BYTE   W06
 BYTE   Cn4
 BYTE   W06
 BYTE   Bn3  v120
 BYTE   W06
 BYTE   Cn4  v116
 BYTE   W06
 BYTE   Bn3  v108
 BYTE   W06
 BYTE   Cn4  v104
 BYTE   W06
 BYTE   Bn3  v100
 BYTE   W06
 BYTE   Cn4  v096
 BYTE   W06
 BYTE   Bn3  v088
 BYTE   W06
 BYTE   Cn4  v084
 BYTE   W06
 BYTE   Bn3  v080
 BYTE   W06
 BYTE   Cn4  v072
 BYTE   W06
 BYTE   Bn3  v064
 BYTE   W06
 BYTE   Cn4
 BYTE   W06
 BYTE   Bn3
 BYTE   W06
 BYTE   Cn4  v060
 BYTE   W06
// 005   ----------------------------------------
 BYTE   Bn3
 BYTE   W06
 BYTE   Cn4
 BYTE   W06
 BYTE   Bn3
 BYTE   W06
 BYTE   Cn4  v064
 BYTE   W06
 BYTE   Bn3
 BYTE   W06
 BYTE   Cn4
 BYTE   W06
 BYTE   Bn3
 BYTE   W06
 BYTE   Cn4
 BYTE   W06
 BYTE   Bn3
 BYTE   W06
 BYTE   Cn4
 BYTE   W06
 BYTE   Bn3
 BYTE   W06
 BYTE   Cn4
 BYTE   W06
 BYTE   Bn3
 BYTE   W06
 BYTE   Cn4
 BYTE   W06
 BYTE   Bn3
 BYTE   W06
 BYTE   Cn4
 BYTE   W06
// 006   ----------------------------------------
Label_1_0113FC6D:
 BYTE   N24  An3  v100
 BYTE   W24
 BYTE   Gn4
 BYTE   W24
 BYTE   N12  Fs4
 BYTE   W12
 BYTE   N24  En4
 BYTE   W24
 BYTE   N12  An3
 BYTE   W12
 BYTE   PEND 
// 007   ----------------------------------------
Label_1_0113FC7D:
 BYTE   N24  Gn4  v100
 BYTE   W24
 BYTE   N12  Fs4
 BYTE   W12
 BYTE   N24  En4
 BYTE   W24
 BYTE   N12  Cn4
 BYTE   W12
 BYTE   Dn4
 BYTE   W12
 BYTE   En4
 BYTE   W12
 BYTE   PEND 
// 008   ----------------------------------------
 BYTE   PATT
  POIN2 Label_1_0113FC6D
// 009   ----------------------------------------
 BYTE   PATT
  POIN2 Label_1_0113FC7D
// 010   ----------------------------------------
Label_1_0113FC99:
 BYTE   N24  Dn4  v100
 BYTE   W24
 BYTE   N24
 BYTE   W24
 BYTE   Bn3
 BYTE   W24
 BYTE   Dn4
 BYTE   W24
 BYTE   PEND 
// 011   ----------------------------------------
Label_1_0113FCA4:
 BYTE   N48  Cn4  v100
 BYTE   W48
 BYTE   N24  An3
 BYTE   W24
 BYTE   Cn4
 BYTE   W24
 BYTE   PEND 
// 012   ----------------------------------------
Label_1_0113FCAE:
 BYTE   N24  Bn3  v100
 BYTE   W24
 BYTE   Gn3
 BYTE   W24
 BYTE   Dn4
 BYTE   W24
 BYTE   Cn4
 BYTE   W24
 BYTE   PEND 
// 013   ----------------------------------------
Label_1_0113FCB9:
 BYTE   N48  Bn3  v100
 BYTE   W48
 BYTE   N03  Ds4
 BYTE   W03
 BYTE   N44  En4
 BYTE   W44
 BYTE   W01
 BYTE   PEND 
// 014   ----------------------------------------
 BYTE   PATT
  POIN2 Label_1_0113FC6D
// 015   ----------------------------------------
 BYTE   PATT
  POIN2 Label_1_0113FC7D
// 016   ----------------------------------------
 BYTE   PATT
  POIN2 Label_1_0113FC6D
// 017   ----------------------------------------
 BYTE   PATT
  POIN2 Label_1_0113FC7D
// 018   ----------------------------------------
 BYTE   PATT
  POIN2 Label_1_0113FC99
// 019   ----------------------------------------
 BYTE   PATT
  POIN2 Label_1_0113FCA4
// 020   ----------------------------------------
 BYTE   PATT
  POIN2 Label_1_0113FCAE
// 021   ----------------------------------------
 BYTE   PATT
  POIN2 Label_1_0113FCB9
// 022   ----------------------------------------
 BYTE   W96
// 023   ----------------------------------------
 BYTE   W96
// 024   ----------------------------------------
 BYTE   W96
// 025   ----------------------------------------
 BYTE   W96
// 026   ----------------------------------------
 BYTE   N06  Gn4  v080
 BYTE   W06
 BYTE   En4
 BYTE   W06
 BYTE   Bn3
 BYTE   W06
 BYTE   En4
 BYTE   W06
 BYTE   Gn4
 BYTE   W06
 BYTE   En4
 BYTE   W06
 BYTE   Bn3
 BYTE   W06
 BYTE   En4
 BYTE   W06
 BYTE   An4
 BYTE   W06
 BYTE   En4
 BYTE   W06
 BYTE   Bn3
 BYTE   W06
 BYTE   En4
 BYTE   W06
 BYTE   Bn4
 BYTE   W06
 BYTE   En4
 BYTE   W06
 BYTE   Bn3
 BYTE   W06
 BYTE   En4
 BYTE   W06
// 027   ----------------------------------------
 BYTE   An4
 BYTE   W06
 BYTE   En4  v084
 BYTE   W06
 BYTE   Bn3
 BYTE   W06
 BYTE   En4  v080
 BYTE   W06
 BYTE   Gn4  v084
 BYTE   W06
 BYTE   En4
 BYTE   W06
 BYTE   Bn3
 BYTE   W06
 BYTE   En4
 BYTE   W06
 BYTE   An3
 BYTE   W06
 BYTE   En4
 BYTE   W06
 BYTE   Gn3
 BYTE   W06
 BYTE   En4
 BYTE   W06
 BYTE   Fs3
 BYTE   W06
 BYTE   En4  v080
 BYTE   W06
 BYTE   Gn3
 BYTE   W06
 BYTE   En4
 BYTE   W06
// 028   ----------------------------------------
 BYTE   W96
// 029   ----------------------------------------
 BYTE   W96
// 030   ----------------------------------------
 BYTE   N48  En4  v127
 BYTE   W48
 BYTE   N24  Fs4
 BYTE   W24
 BYTE   Gn4
 BYTE   W24
// 031   ----------------------------------------
 BYTE   Fs4
 BYTE   W24
 BYTE   En4
 BYTE   W72
// 032   ----------------------------------------
 BYTE   W96
// 033   ----------------------------------------
 BYTE   W96
// 034   ----------------------------------------
 BYTE   N06  Gn4  v092
 BYTE   W06
 BYTE   En4
 BYTE   W06
 BYTE   Bn3
 BYTE   W06
 BYTE   En4
 BYTE   W06
 BYTE   Gn4
 BYTE   W06
 BYTE   En4
 BYTE   W06
 BYTE   Bn3
 BYTE   W06
 BYTE   En4
 BYTE   W06
 BYTE   An4
 BYTE   W06
 BYTE   En4
 BYTE   W06
 BYTE   Bn3
 BYTE   W06
 BYTE   En4
 BYTE   W06
 BYTE   Bn4
 BYTE   W06
 BYTE   En4
 BYTE   W06
 BYTE   Bn3
 BYTE   W06
 BYTE   En4
 BYTE   W06
// 035   ----------------------------------------
 BYTE   An4
 BYTE   W06
 BYTE   En4
 BYTE   W06
 BYTE   Bn3
 BYTE   W06
 BYTE   En4
 BYTE   W06
 BYTE   Gn4
 BYTE   W06
 BYTE   En4
 BYTE   W06
 BYTE   Bn3
 BYTE   W06
 BYTE   En4
 BYTE   W06
 BYTE   An3
 BYTE   W06
 BYTE   En4
 BYTE   W06
 BYTE   Gn3
 BYTE   W06
 BYTE   En4
 BYTE   W06
 BYTE   Fs3
 BYTE   W06
 BYTE   En4
 BYTE   W06
 BYTE   Gn3
 BYTE   W06
 BYTE   En4
 BYTE   W06
// 036   ----------------------------------------
 BYTE   W96
// 037   ----------------------------------------
 BYTE   W96
// 038   ----------------------------------------
 BYTE   GoTo
  POIN2 Label_1_0113FC6D
 BYTE   FINE

//**************** Track 3 (Midi-Chn.2) ****************//

FFLegendFinalBossMrGreen3339_003:
// 000   ----------------------------------------
 BYTE   KEYSH   FFLegendFinalBossMrGreen3339_key+0
 BYTE   VOICE   60
 BYTE   PAN   c_v+20
 BYTE   VOL   48*FFLegendFinalBossMrGreen3339_mvl/mxv
 BYTE   W96
// 001   ----------------------------------------
 BYTE   W96
// 002   ----------------------------------------
 BYTE   W96
// 003   ----------------------------------------
 BYTE   W96
// 004   ----------------------------------------
 BYTE   W72
 BYTE   N12  En3  v127
 BYTE   W24
// 005   ----------------------------------------
 BYTE   N96  Bn3
 BYTE   W96
// 006   ----------------------------------------
Label_2_0113F9F0:
 BYTE   W96
// 007   ----------------------------------------
 BYTE   W96
// 008   ----------------------------------------
 BYTE   W96
// 009   ----------------------------------------
 BYTE   W96
// 010   ----------------------------------------
Label_2_0113F9F4:
 BYTE   N12  Bn3  v100
 BYTE   W12
 BYTE   Gn3
 BYTE   W12
 BYTE   Dn3
 BYTE   W12
 BYTE   Gn3
 BYTE   W12
 BYTE   Dn3
 BYTE   W12
 BYTE   Bn2
 BYTE   W12
 BYTE   Gn3
 BYTE   W12
 BYTE   Dn3
 BYTE   W12
 BYTE   PEND 
// 011   ----------------------------------------
Label_2_0113FA07:
 BYTE   N12  An3  v100
 BYTE   W12
 BYTE   Fn3
 BYTE   W12
 BYTE   Cn3
 BYTE   W12
 BYTE   Fn3
 BYTE   W12
 BYTE   Cn3
 BYTE   W12
 BYTE   An2
 BYTE   W12
 BYTE   Fn3
 BYTE   W12
 BYTE   Cn3
 BYTE   W12
 BYTE   PEND 
// 012   ----------------------------------------
 BYTE   N06  Fn3  v040
 BYTE   W06
 BYTE   En3  v072
 BYTE   W06
 BYTE   Fn3  v076
 BYTE   W06
 BYTE   En3
 BYTE   W06
 BYTE   Fn3
 BYTE   W06
 BYTE   En3  v080
 BYTE   W06
 BYTE   Fn3
 BYTE   W06
 BYTE   En3  v084
 BYTE   W06
 BYTE   Fn3
 BYTE   W06
 BYTE   En3  v088
 BYTE   W06
 BYTE   Gn3
 BYTE   W06
 BYTE   Fn3
 BYTE   W06
 BYTE   An3  v092
 BYTE   W06
 BYTE   Gn3
 BYTE   W06
 BYTE   Bn3  v096
 BYTE   W06
 BYTE   An3  v100
 BYTE   W06
// 013   ----------------------------------------
Label_2_0113FA44:
 BYTE   N12  Gs3  v100
 BYTE   W12
 BYTE   N06  Gn3  v104
 BYTE   W06
 BYTE   Gs3  v108
 BYTE   W06
 BYTE   N12  An3
 BYTE   W12
 BYTE   N06  Gs3  v112
 BYTE   W06
 BYTE   An3  v116
 BYTE   W06
 BYTE   N12  As3  v120
 BYTE   W12
 BYTE   N06  An3  v127
 BYTE   W06
 BYTE   As3
 BYTE   W06
 BYTE   Bn3
 BYTE   W06
 BYTE   Gs3  v124
 BYTE   W06
 BYTE   En3  v120
 BYTE   W06
 BYTE   Dn3  v112
 BYTE   W06
 BYTE   PEND 
// 014   ----------------------------------------
 BYTE   W96
// 015   ----------------------------------------
 BYTE   W96
// 016   ----------------------------------------
 BYTE   W96
// 017   ----------------------------------------
 BYTE   W96
// 018   ----------------------------------------
 BYTE   PATT
  POIN2 Label_2_0113F9F4
// 019   ----------------------------------------
 BYTE   PATT
  POIN2 Label_2_0113FA07
// 020   ----------------------------------------
 BYTE   N06  Fn3  v068
 BYTE   W06
 BYTE   En3  v072
 BYTE   W06
 BYTE   Fn3
 BYTE   W06
 BYTE   En3  v076
 BYTE   W06
 BYTE   Fn3
 BYTE   W06
 BYTE   En3  v080
 BYTE   W06
 BYTE   Fn3
 BYTE   W06
 BYTE   En3
 BYTE   W06
 BYTE   Fn3
 BYTE   W06
 BYTE   En3  v084
 BYTE   W06
 BYTE   Gn3
 BYTE   W06
 BYTE   Fn3  v088
 BYTE   W06
 BYTE   An3
 BYTE   W06
 BYTE   Gn3  v092
 BYTE   W06
 BYTE   Bn3  v096
 BYTE   W06
 BYTE   An3  v100
 BYTE   W06
// 021   ----------------------------------------
 BYTE   PATT
  POIN2 Label_2_0113FA44
// 022   ----------------------------------------
 BYTE   N06  En4  v104
 BYTE   W06
 BYTE   Cn4
 BYTE   W06
 BYTE   Gn3
 BYTE   W06
 BYTE   Cn4
 BYTE   W06
 BYTE   En4
 BYTE   W06
 BYTE   Cn4
 BYTE   W06
 BYTE   Gn3
 BYTE   W06
 BYTE   Cn4
 BYTE   W06
 BYTE   Fs4
 BYTE   W06
 BYTE   Dn4
 BYTE   W06
 BYTE   Gn3
 BYTE   W06
 BYTE   Dn4
 BYTE   W06
 BYTE   Gn4
 BYTE   W06
 BYTE   Dn4
 BYTE   W06
 BYTE   Gn3
 BYTE   W06
 BYTE   Cn4
 BYTE   W06
// 023   ----------------------------------------
 BYTE   Fs4
 BYTE   W06
 BYTE   Dn4
 BYTE   W06
 BYTE   An3
 BYTE   W06
 BYTE   Dn4
 BYTE   W06
 BYTE   En4
 BYTE   W06
 BYTE   Cn4
 BYTE   W06
 BYTE   An3
 BYTE   W06
 BYTE   Cn4
 BYTE   W06
 BYTE   En4
 BYTE   W06
 BYTE   Cn4
 BYTE   W06
 BYTE   An3
 BYTE   W06
 BYTE   Cn4
 BYTE   W06
 BYTE   En4
 BYTE   W06
 BYTE   Cn4
 BYTE   W06
 BYTE   An3
 BYTE   W06
 BYTE   Cn4
 BYTE   W06
// 024   ----------------------------------------
Label_2_0113FAEE:
 BYTE   W24
 BYTE   N24  En3  v127
 BYTE   N24  En4
 BYTE   W24
 BYTE   Fs3
 BYTE   N24  Fs4
 BYTE   W24
 BYTE   Gn3
 BYTE   N24  Gn4
 BYTE   W24
 BYTE   PEND 
// 025   ----------------------------------------
Label_2_0113FAFE:
 BYTE   N24  Fs3  v127
 BYTE   N24  Fs4
 BYTE   W24
 BYTE   En3
 BYTE   N24  En4
 BYTE   W72
 BYTE   PEND 
// 026   ----------------------------------------
 BYTE   W96
// 027   ----------------------------------------
 BYTE   W96
// 028   ----------------------------------------
 BYTE   W24
 BYTE   Gn3
 BYTE   N24  Gn4
 BYTE   W24
 BYTE   An3
 BYTE   N24  An4
 BYTE   W24
 BYTE   Bn3
 BYTE   N24  Bn4
 BYTE   W24
// 029   ----------------------------------------
 BYTE   An3
 BYTE   N24  An4
 BYTE   W24
 BYTE   Gn3
 BYTE   N24  Gn4
 BYTE   W72
// 030   ----------------------------------------
 BYTE   N06  En4  v104
 BYTE   W06
 BYTE   Cn4
 BYTE   W06
 BYTE   Gn3
 BYTE   W06
 BYTE   Cn4
 BYTE   W06
 BYTE   En4
 BYTE   W06
 BYTE   Cn4
 BYTE   W06
 BYTE   Gn3
 BYTE   W06
 BYTE   Cn4
 BYTE   W06
 BYTE   Fs4
 BYTE   W06
 BYTE   Dn4
 BYTE   W06
 BYTE   Gn3
 BYTE   W06
 BYTE   Dn4
 BYTE   W06
 BYTE   Gn4
 BYTE   W06
 BYTE   Cn4
 BYTE   W06
 BYTE   Gn3
 BYTE   W06
 BYTE   Cn4
 BYTE   W06
// 031   ----------------------------------------
 BYTE   Fs4
 BYTE   W06
 BYTE   Dn4
 BYTE   W06
 BYTE   Gn3
 BYTE   W06
 BYTE   Dn4
 BYTE   W06
 BYTE   En4
 BYTE   W06
 BYTE   Cn4
 BYTE   W06
 BYTE   Gn3
 BYTE   W06
 BYTE   Cn4
 BYTE   W06
 BYTE   Gn3
 BYTE   W06
 BYTE   En4
 BYTE   W06
 BYTE   Fs3
 BYTE   W06
 BYTE   En4
 BYTE   W06
 BYTE   En3
 BYTE   W06
 BYTE   En4
 BYTE   W06
 BYTE   Fs3
 BYTE   W06
 BYTE   En4
 BYTE   W06
// 032   ----------------------------------------
 BYTE   PATT
  POIN2 Label_2_0113FAEE
// 033   ----------------------------------------
 BYTE   PATT
  POIN2 Label_2_0113FAFE
// 034   ----------------------------------------
 BYTE   W96
// 035   ----------------------------------------
 BYTE   W96
// 036   ----------------------------------------
 BYTE   N06  En3  v104
 BYTE   W06
 BYTE   Bn3
 BYTE   W06
 BYTE   En4
 BYTE   W06
 BYTE   Bn3
 BYTE   W06
 BYTE   En3
 BYTE   W06
 BYTE   Bn3
 BYTE   W06
 BYTE   En4
 BYTE   W06
 BYTE   Bn3
 BYTE   W06
 BYTE   En3
 BYTE   W06
 BYTE   Dn4
 BYTE   W06
 BYTE   Fs4
 BYTE   W06
 BYTE   Dn4
 BYTE   W06
 BYTE   En3
 BYTE   W06
 BYTE   En4
 BYTE   W06
 BYTE   Gn4
 BYTE   W06
 BYTE   En4
 BYTE   W06
// 037   ----------------------------------------
 BYTE   En3
 BYTE   W06
 BYTE   Dn4
 BYTE   W06
 BYTE   Fs4
 BYTE   W06
 BYTE   Dn4
 BYTE   W06
 BYTE   En3
 BYTE   W06
 BYTE   Bn3
 BYTE   W06
 BYTE   En4
 BYTE   W06
 BYTE   Bn3
 BYTE   W06
 BYTE   En3
 BYTE   W06
 BYTE   Bn3
 BYTE   W06
 BYTE   En4
 BYTE   W06
 BYTE   Bn3
 BYTE   W06
 BYTE   En3
 BYTE   W06
 BYTE   Gn3
 BYTE   W06
 BYTE   Dn3
 BYTE   W06
 BYTE   Fs3
 BYTE   W06
// 038   ----------------------------------------
 BYTE   GoTo
  POIN2 Label_2_0113F9F0
 BYTE   FINE

//**************** Track 4 (Midi-Chn.3) ****************//

FFLegendFinalBossMrGreen3339_004:
// 000   ----------------------------------------
 BYTE   KEYSH   FFLegendFinalBossMrGreen3339_key+0
 BYTE   VOICE   49
 BYTE   PAN   c_v+0
 BYTE   VOL   48*FFLegendFinalBossMrGreen3339_mvl/mxv
 BYTE   W96
// 001   ----------------------------------------
 BYTE   W96
// 002   ----------------------------------------
 BYTE   W96
// 003   ----------------------------------------
 BYTE   W96
// 004   ----------------------------------------
 BYTE   W96
// 005   ----------------------------------------
 BYTE   W96
// 006   ----------------------------------------
Label_3_0113F38A:
 BYTE   N48  Cn3  v100
 BYTE   N48  En3
 BYTE   N48  An3
 BYTE   W48
 BYTE   En3
 BYTE   N48  Gn3
 BYTE   N48  Bn3
 BYTE   W48
 BYTE   PEND 
// 007   ----------------------------------------
Label_3_0113F399:
 BYTE   N48  En3  v100
 BYTE   N48  An3
 BYTE   N48  Cn4
 BYTE   W48
 BYTE   Gn3
 BYTE   N48  Bn3
 BYTE   N48  Dn4
 BYTE   W48
 BYTE   PEND 
// 008   ----------------------------------------
 BYTE   PATT
  POIN2 Label_3_0113F38A
// 009   ----------------------------------------
 BYTE   PATT
  POIN2 Label_3_0113F399
// 010   ----------------------------------------
Label_3_0113F3B2:
 BYTE   N96  Gn3  v100
 BYTE   N96  Bn3
 BYTE   N96  Dn4
 BYTE   W96
 BYTE   PEND 
// 011   ----------------------------------------
Label_3_0113F3BB:
 BYTE   N96  Fn3  v100
 BYTE   N96  An3
 BYTE   N96  Cn4
 BYTE   W96
 BYTE   PEND 
// 012   ----------------------------------------
Label_3_0113F3C4:
 BYTE   N48  En3  v100
 BYTE   N48  Gn3
 BYTE   N48  Bn3
 BYTE   W48
 BYTE   Gn3
 BYTE   N48  Bn3
 BYTE   N48  Dn4
 BYTE   W48
 BYTE   PEND 
// 013   ----------------------------------------
 BYTE   N24  Gs3
 BYTE   N24  Bn3
 BYTE   N24  En4
 BYTE   W24
 BYTE   Fs3
 BYTE   N24  An3
 BYTE   N24  Dn4
 BYTE   W24
 BYTE   En3
 BYTE   N24  Gn3
 BYTE   N24  Cn4
 BYTE   W24
 BYTE   En3  v104
 BYTE   N24  Gs3
 BYTE   N24  Bn3
 BYTE   W24
// 014   ----------------------------------------
 BYTE   N48  Cn3
 BYTE   N48  En3
 BYTE   N48  An3
 BYTE   W48
 BYTE   En3  v100
 BYTE   N48  Gn3
 BYTE   N48  Bn3
 BYTE   W48
// 015   ----------------------------------------
 BYTE   PATT
  POIN2 Label_3_0113F399
// 016   ----------------------------------------
 BYTE   PATT
  POIN2 Label_3_0113F38A
// 017   ----------------------------------------
 BYTE   PATT
  POIN2 Label_3_0113F399
// 018   ----------------------------------------
 BYTE   PATT
  POIN2 Label_3_0113F3B2
// 019   ----------------------------------------
 BYTE   PATT
  POIN2 Label_3_0113F3BB
// 020   ----------------------------------------
 BYTE   PATT
  POIN2 Label_3_0113F3C4
// 021   ----------------------------------------
 BYTE   N24  Gs3  v100
 BYTE   N24  Bn3
 BYTE   N24  En4
 BYTE   W24
 BYTE   Fs3
 BYTE   N24  An3
 BYTE   N24  Dn4
 BYTE   W24
 BYTE   En3  v104
 BYTE   N24  Gn3
 BYTE   N24  Cn4
 BYTE   W24
 BYTE   En3  v100
 BYTE   N24  Gs3
 BYTE   N24  Bn3
 BYTE   W24
// 022   ----------------------------------------
 BYTE   N48  Gn3  v104
 BYTE   N48  Cn4
 BYTE   N48  En4
 BYTE   W48
 BYTE   N24  An3
 BYTE   N24  Dn4
 BYTE   N24  Fs4
 BYTE   W24
 BYTE   An3
 BYTE   N24  En4
 BYTE   N24  Gn4
 BYTE   W24
// 023   ----------------------------------------
 BYTE   An3
 BYTE   N24  Dn4
 BYTE   N24  Fs4
 BYTE   W24
 BYTE   Gn3
 BYTE   N24  Cn4
 BYTE   N24  En4
 BYTE   W72
// 024   ----------------------------------------
 BYTE   W96
// 025   ----------------------------------------
 BYTE   W96
// 026   ----------------------------------------
 BYTE   W96
// 027   ----------------------------------------
 BYTE   W96
// 028   ----------------------------------------
 BYTE   TIE  En3  v080
 BYTE   TIE  Gn3
 BYTE   TIE  Bn3
 BYTE   TIE  En4
 BYTE   W96
// 029   ----------------------------------------
 BYTE   W96
// 030   ----------------------------------------
 BYTE   EOT
 BYTE   En3  v067
 BYTE   Bn3  v076
 BYTE   N48  Cn4  v104
 BYTE   N48  En4
 BYTE   W48
 BYTE   N24  Dn4
 BYTE   N24  Fs4
 BYTE   W24
 BYTE   En4
 BYTE   N24  Gn4
 BYTE   W24
// 031   ----------------------------------------
 BYTE   Dn4
 BYTE   N24  Fs4
 BYTE   W24
 BYTE   Cn4
 BYTE   N24  En4
 BYTE   W72
// 032   ----------------------------------------
 BYTE   W96
// 033   ----------------------------------------
 BYTE   W96
// 034   ----------------------------------------
 BYTE   TIE  En3
 BYTE   TIE  Gn3
 BYTE   TIE  Bn3
 BYTE   TIE  En4
 BYTE   W96
// 035   ----------------------------------------
 BYTE   W96
// 036   ----------------------------------------
 BYTE   EOT
 BYTE   En3  v067
 BYTE   Bn3  v076
 BYTE   W24
 BYTE   N24  Bn3
 BYTE   N24  En4
 BYTE   N24  Gn4
 BYTE   W24
 BYTE   Dn4
 BYTE   N24  Fs4
 BYTE   N24  An4
 BYTE   W24
 BYTE   En4
 BYTE   N24  Gn4
 BYTE   N24  Bn4
 BYTE   W24
// 037   ----------------------------------------
 BYTE   Dn4
 BYTE   N24  Fs4
 BYTE   N24  An4
 BYTE   W24
 BYTE   Bn3
 BYTE   N24  En4
 BYTE   N24  Gn4
 BYTE   W72
// 038   ----------------------------------------
 BYTE   GoTo
  POIN2 Label_3_0113F38A
 BYTE   FINE

//**************** Track 5 (Midi-Chn.4) ****************//

FFLegendFinalBossMrGreen3339_005:
// 000   ----------------------------------------
 BYTE   KEYSH   FFLegendFinalBossMrGreen3339_key+0
 BYTE   VOICE   48
 BYTE   PAN   c_v-20
 BYTE   VOL   44*FFLegendFinalBossMrGreen3339_mvl/mxv
 BYTE   N12  En1  v100
 BYTE   W24
 BYTE   N12
 BYTE   W24
 BYTE   Fn1
 BYTE   W24
 BYTE   N12
 BYTE   W24
// 001   ----------------------------------------
Label_4_0113F906:
 BYTE   N12  Fs1  v100
 BYTE   W24
 BYTE   N12
 BYTE   W24
 BYTE   Gn1
 BYTE   W24
 BYTE   N12
 BYTE   W24
 BYTE   PEND 
// 002   ----------------------------------------
 BYTE   En1
 BYTE   W24
 BYTE   N12
 BYTE   W24
 BYTE   Fn1
 BYTE   W24
 BYTE   N12
 BYTE   W24
// 003   ----------------------------------------
 BYTE   PATT
  POIN2 Label_4_0113F906
// 004   ----------------------------------------
 BYTE   TIE  Gs1  v112
 BYTE   W96
// 005   ----------------------------------------
 BYTE   W96
// 006   ----------------------------------------
 BYTE   EOT
Label_4_0113F924:
 BYTE   TIE  An1  v127
 BYTE   W96
// 007   ----------------------------------------
 BYTE   W96
// 008   ----------------------------------------
 BYTE   EOT
 BYTE   TIE
 BYTE   W96
// 009   ----------------------------------------
 BYTE   W96
// 010   ----------------------------------------
 BYTE   EOT
 BYTE   N96  Gn1
 BYTE   W96
// 011   ----------------------------------------
 BYTE   Fn1
 BYTE   W96
// 012   ----------------------------------------
 BYTE   En1
 BYTE   W96
// 013   ----------------------------------------
Label_4_0113F935:
 BYTE   N24  En2  v127
 BYTE   W24
 BYTE   Dn2
 BYTE   W24
 BYTE   Cn2
 BYTE   W24
 BYTE   Bn1
 BYTE   W24
 BYTE   PEND 
// 014   ----------------------------------------
 BYTE   TIE  An1
 BYTE   W96
// 015   ----------------------------------------
 BYTE   W96
// 016   ----------------------------------------
 BYTE   EOT
 BYTE   TIE
 BYTE   W96
// 017   ----------------------------------------
 BYTE   W96
// 018   ----------------------------------------
 BYTE   EOT
 BYTE   N96  Gn1
 BYTE   W96
// 019   ----------------------------------------
 BYTE   Fn1
 BYTE   W96
// 020   ----------------------------------------
 BYTE   En1
 BYTE   W96
// 021   ----------------------------------------
 BYTE   PATT
  POIN2 Label_4_0113F935
// 022   ----------------------------------------
 BYTE   W96
// 023   ----------------------------------------
 BYTE   W96
// 024   ----------------------------------------
Label_4_0113F957:
 BYTE   W24
 BYTE   N24  Bn2  v104
 BYTE   W24
 BYTE   Dn3
 BYTE   W24
 BYTE   En3
 BYTE   W24
 BYTE   PEND 
// 025   ----------------------------------------
 BYTE   Dn3
 BYTE   W24
 BYTE   Cn3
 BYTE   W72
// 026   ----------------------------------------
 BYTE   W96
// 027   ----------------------------------------
 BYTE   W96
// 028   ----------------------------------------
 BYTE   PATT
  POIN2 Label_4_0113F957
// 029   ----------------------------------------
 BYTE   N24  Dn3  v104
 BYTE   W24
 BYTE   Bn2
 BYTE   W72
// 030   ----------------------------------------
 BYTE   W96
// 031   ----------------------------------------
 BYTE   W96
// 032   ----------------------------------------
 BYTE   W24
 BYTE   Gn2
 BYTE   W24
 BYTE   An2
 BYTE   W24
 BYTE   Bn2
 BYTE   W24
// 033   ----------------------------------------
 BYTE   An2
 BYTE   W24
 BYTE   Gn2
 BYTE   W72
// 034   ----------------------------------------
 BYTE   W96
// 035   ----------------------------------------
 BYTE   W96
// 036   ----------------------------------------
 BYTE   TIE  En1
 BYTE   W96
// 037   ----------------------------------------
 BYTE   W96
// 038   ----------------------------------------
 BYTE   EOT
 BYTE   GoTo
  POIN2 Label_4_0113F924
 BYTE   FINE

//**************** Track 6 (Midi-Chn.5) ****************//

FFLegendFinalBossMrGreen3339_006:
// 000   ----------------------------------------
 BYTE   KEYSH   FFLegendFinalBossMrGreen3339_key+0
 BYTE   VOICE   33
 BYTE   PAN   c_v-64
 BYTE   VOL   44*FFLegendFinalBossMrGreen3339_mvl/mxv
 BYTE   N12  En1  v100
 BYTE   W12
 BYTE   N06  En2
 BYTE   W12
 BYTE   N12  En1
 BYTE   W12
 BYTE   N06  En2
 BYTE   W12
 BYTE   N12  Fn1
 BYTE   W12
 BYTE   N06  Fn2
 BYTE   W12
 BYTE   N12  Fn1
 BYTE   W12
 BYTE   N06  Fn2
 BYTE   W12
// 001   ----------------------------------------
Label_5_0113F511:
 BYTE   N12  Fs1  v100
 BYTE   W12
 BYTE   N06  Fs2
 BYTE   W12
 BYTE   N12  Fs1
 BYTE   W12
 BYTE   N06  Fs2
 BYTE   W12
 BYTE   N12  Gn1
 BYTE   W12
 BYTE   N06  Gn2
 BYTE   W12
 BYTE   N12  Gn1
 BYTE   W12
 BYTE   N06  Gn2
 BYTE   W12
 BYTE   PEND 
// 002   ----------------------------------------
 BYTE   N12  En1
 BYTE   W12
 BYTE   N06  En2
 BYTE   W12
 BYTE   N12  En1
 BYTE   W12
 BYTE   N06  En2
 BYTE   W12
 BYTE   N12  Fn1
 BYTE   W12
 BYTE   N06  Fn2
 BYTE   W12
 BYTE   N12  Fn1
 BYTE   W12
 BYTE   N06  Fn2
 BYTE   W12
// 003   ----------------------------------------
 BYTE   PATT
  POIN2 Label_5_0113F511
// 004   ----------------------------------------
 BYTE   TIE  Gs1  v100
 BYTE   W96
// 005   ----------------------------------------
 BYTE   W96
// 006   ----------------------------------------
 BYTE   EOT
Label_5_0113F54E:
 BYTE   N06  An1  v127
 BYTE   W12
 BYTE   N06
 BYTE   W24
 BYTE   Gn2
 BYTE   W06
 BYTE   An2
 BYTE   W06
 BYTE   An1
 BYTE   W12
 BYTE   N06
 BYTE   W24
 BYTE   Gn2
 BYTE   W06
 BYTE   An2
 BYTE   W06
 BYTE   PEND 
// 007   ----------------------------------------
 BYTE   PATT
  POIN2 Label_5_0113F54E
// 008   ----------------------------------------
 BYTE   PATT
  POIN2 Label_5_0113F54E
// 009   ----------------------------------------
 BYTE   PATT
  POIN2 Label_5_0113F54E
// 010   ----------------------------------------
Label_5_0113F570:
 BYTE   N12  Gn1  v127
 BYTE   W12
 BYTE   N06  Gn2
 BYTE   W12
 BYTE   N12  Gn1
 BYTE   W12
 BYTE   N06  Gn2
 BYTE   W12
 BYTE   N12  Gn1
 BYTE   W12
 BYTE   N06  Gn2
 BYTE   W12
 BYTE   N12  Gn1
 BYTE   W12
 BYTE   N06  Gn2
 BYTE   W12
 BYTE   PEND 
// 011   ----------------------------------------
 BYTE   N12  Fn1
 BYTE   W12
 BYTE   N06  Fn2
 BYTE   W12
 BYTE   N12  Fn1
 BYTE   W12
 BYTE   N06  Fn2
 BYTE   W12
 BYTE   N12  Fn1
 BYTE   W12
 BYTE   N06  Fn2  v100
 BYTE   W12
 BYTE   N12  Fn1  v124
 BYTE   W12
 BYTE   N06  Fn2
 BYTE   W12
// 012   ----------------------------------------
Label_5_0113F5A4:
 BYTE   N12  En1  v127
 BYTE   W12
 BYTE   N06  En2
 BYTE   W12
 BYTE   N12  En1
 BYTE   W12
 BYTE   N06  En2
 BYTE   W12
 BYTE   N12  Bn1
 BYTE   W12
 BYTE   N06  Bn2
 BYTE   W12
 BYTE   N12  Bn1
 BYTE   W12
 BYTE   N06  Bn2
 BYTE   W12
 BYTE   PEND 
// 013   ----------------------------------------
Label_5_0113F5BE:
 BYTE   N12  En1  v127
 BYTE   W12
 BYTE   En2
 BYTE   W12
 BYTE   Dn1
 BYTE   W12
 BYTE   Dn2
 BYTE   W12
 BYTE   Cn1
 BYTE   W12
 BYTE   Cn2
 BYTE   W12
 BYTE   Bn0
 BYTE   W12
 BYTE   Bn1
 BYTE   W12
 BYTE   PEND 
// 014   ----------------------------------------
 BYTE   PATT
  POIN2 Label_5_0113F54E
// 015   ----------------------------------------
 BYTE   PATT
  POIN2 Label_5_0113F54E
// 016   ----------------------------------------
 BYTE   PATT
  POIN2 Label_5_0113F54E
// 017   ----------------------------------------
 BYTE   PATT
  POIN2 Label_5_0113F54E
// 018   ----------------------------------------
 BYTE   PATT
  POIN2 Label_5_0113F570
// 019   ----------------------------------------
 BYTE   N12  Fn1  v127
 BYTE   W12
 BYTE   N06  Fn2
 BYTE   W12
 BYTE   N12  Fn1
 BYTE   W12
 BYTE   N06  Fn2
 BYTE   W12
 BYTE   N12  Fn1
 BYTE   W12
 BYTE   N06  Fn2
 BYTE   W12
 BYTE   N12  Fn1
 BYTE   W12
 BYTE   N06  Fn2
 BYTE   W12
// 020   ----------------------------------------
 BYTE   PATT
  POIN2 Label_5_0113F5A4
// 021   ----------------------------------------
 BYTE   PATT
  POIN2 Label_5_0113F5BE
// 022   ----------------------------------------
Label_5_0113F60D:
 BYTE   N12  Cn2  v127
 BYTE   W12
 BYTE   N12
 BYTE   W24
 BYTE   N12
 BYTE   W12
 BYTE   N12
 BYTE   W12
 BYTE   N12
 BYTE   W24
 BYTE   N12
 BYTE   W12
 BYTE   PEND 
// 023   ----------------------------------------
 BYTE   PATT
  POIN2 Label_5_0113F60D
// 024   ----------------------------------------
 BYTE   PATT
  POIN2 Label_5_0113F60D
// 025   ----------------------------------------
Label_5_0113F626:
 BYTE   N12  Cn2  v127
 BYTE   W12
 BYTE   N12
 BYTE   W24
 BYTE   N12
 BYTE   W12
 BYTE   N12
 BYTE   W12
 BYTE   N12
 BYTE   W24
 BYTE   Dn2
 BYTE   W12
 BYTE   PEND 
// 026   ----------------------------------------
Label_5_0113F635:
 BYTE   N12  En2  v127
 BYTE   W12
 BYTE   N12
 BYTE   W24
 BYTE   N12
 BYTE   W12
 BYTE   N12
 BYTE   W12
 BYTE   N12
 BYTE   W24
 BYTE   N12
 BYTE   W12
 BYTE   PEND 
// 027   ----------------------------------------
 BYTE   PATT
  POIN2 Label_5_0113F635
// 028   ----------------------------------------
 BYTE   PATT
  POIN2 Label_5_0113F635
// 029   ----------------------------------------
Label_5_0113F64E:
 BYTE   N12  En2  v127
 BYTE   W12
 BYTE   N12
 BYTE   W24
 BYTE   N12
 BYTE   W12
 BYTE   N12
 BYTE   W12
 BYTE   N12
 BYTE   W24
 BYTE   Dn2
 BYTE   W12
 BYTE   PEND 
// 030   ----------------------------------------
 BYTE   PATT
  POIN2 Label_5_0113F60D
// 031   ----------------------------------------
 BYTE   PATT
  POIN2 Label_5_0113F60D
// 032   ----------------------------------------
 BYTE   PATT
  POIN2 Label_5_0113F60D
// 033   ----------------------------------------
 BYTE   PATT
  POIN2 Label_5_0113F626
// 034   ----------------------------------------
 BYTE   PATT
  POIN2 Label_5_0113F635
// 035   ----------------------------------------
 BYTE   PATT
  POIN2 Label_5_0113F635
// 036   ----------------------------------------
 BYTE   PATT
  POIN2 Label_5_0113F635
// 037   ----------------------------------------
 BYTE   PATT
  POIN2 Label_5_0113F64E
// 038   ----------------------------------------
 BYTE   GoTo
  POIN2 Label_5_0113F54E
 BYTE   FINE

//**************** Track 7 (Midi-Chn.6) ****************//

FFLegendFinalBossMrGreen3339_007:
// 000   ----------------------------------------
 BYTE   KEYSH   FFLegendFinalBossMrGreen3339_key+0
 BYTE   VOICE   30
 BYTE   PAN   c_v+36
 BYTE   VOL   44*FFLegendFinalBossMrGreen3339_mvl/mxv
 BYTE   N12  En1  v080
 BYTE   N12  En2
 BYTE   W24
 BYTE   En1
 BYTE   N12  En2
 BYTE   W24
 BYTE   Fn1
 BYTE   N12  Fn2
 BYTE   W24
 BYTE   Fn1
 BYTE   N12  Fn2
 BYTE   W24
// 001   ----------------------------------------
Label_6_01841FA2:
 BYTE   N12  Fs1  v080
 BYTE   N12  Fs2
 BYTE   W24
 BYTE   Fs1
 BYTE   N12  Fs2
 BYTE   W24
 BYTE   Gn1
 BYTE   N12  Gn2
 BYTE   W24
 BYTE   Gn1
 BYTE   N12  Gn2
 BYTE   W24
 BYTE   PEND 
// 002   ----------------------------------------
 BYTE   En1
 BYTE   N12  En2
 BYTE   W24
 BYTE   En1
 BYTE   N12  En2
 BYTE   W24
 BYTE   Fn1
 BYTE   N12  Fn2
 BYTE   W24
 BYTE   Fn1
 BYTE   N12  Fn2
 BYTE   W24
// 003   ----------------------------------------
 BYTE   PATT
  POIN2 Label_6_01841FA2
// 004   ----------------------------------------
 BYTE   TIE  Gs1  v080
 BYTE   TIE  Gs2
 BYTE   W96
// 005   ----------------------------------------
 BYTE   W96
// 006   ----------------------------------------
 BYTE   EOT
 BYTE   Gs1  v056
Label_6_01841FD4:
 BYTE   N06  An0  v104
 BYTE   N06  An1
 BYTE   W12
 BYTE   An0  v100
 BYTE   N06  An1
 BYTE   W06
 BYTE   An0
 BYTE   N06  An1
 BYTE   W06
 BYTE   An0
 BYTE   N06  An1
 BYTE   W12
 BYTE   An0
 BYTE   N06  An1
 BYTE   W06
 BYTE   An0
 BYTE   N06  An1
 BYTE   W06
 BYTE   An0
 BYTE   N06  An1
 BYTE   W12
 BYTE   An0
 BYTE   N06  An1
 BYTE   W06
 BYTE   An0
 BYTE   N06  An1
 BYTE   W06
 BYTE   An0
 BYTE   N06  An1
 BYTE   W12
 BYTE   An0
 BYTE   N06  An1
 BYTE   W06
 BYTE   An0
 BYTE   N06  An1
 BYTE   W06
 BYTE   PEND 
// 007   ----------------------------------------
Label_6_01842008:
 BYTE   N06  An0  v100
 BYTE   N06  An1
 BYTE   W12
 BYTE   An0
 BYTE   N06  An1
 BYTE   W06
 BYTE   An0
 BYTE   N06  An1
 BYTE   W06
 BYTE   An0
 BYTE   N06  An1
 BYTE   W12
 BYTE   An0
 BYTE   N06  An1
 BYTE   W06
 BYTE   An0
 BYTE   N06  An1
 BYTE   W06
 BYTE   An0
 BYTE   N06  An1
 BYTE   W12
 BYTE   An0
 BYTE   N06  An1
 BYTE   W06
 BYTE   An0
 BYTE   N06  An1
 BYTE   W06
 BYTE   An0  v104
 BYTE   N06  An1
 BYTE   W12
 BYTE   An0
 BYTE   N06  An1
 BYTE   W06
 BYTE   An0
 BYTE   N06  An1
 BYTE   W06
 BYTE   PEND 
// 008   ----------------------------------------
 BYTE   PATT
  POIN2 Label_6_01841FD4
// 009   ----------------------------------------
 BYTE   PATT
  POIN2 Label_6_01842008
// 010   ----------------------------------------
Label_6_01842046:
 BYTE   N12  Gn0  v104
 BYTE   N12  Gn1
 BYTE   N12  Dn2
 BYTE   W12
 BYTE   Gn0
 BYTE   N12  Gn1
 BYTE   N12  Dn2
 BYTE   W12
 BYTE   Gn0
 BYTE   N12  Gn1
 BYTE   N12  Dn2
 BYTE   W12
 BYTE   Gn0
 BYTE   N12  Gn1
 BYTE   N12  Dn2
 BYTE   W12
 BYTE   Gn0
 BYTE   N12  Gn1
 BYTE   N12  Dn2
 BYTE   W12
 BYTE   Gn0
 BYTE   N12  Gn1
 BYTE   N12  Dn2
 BYTE   W12
 BYTE   Gn0
 BYTE   N12  Gn1
 BYTE   N12  Dn2
 BYTE   W12
 BYTE   Gn0
 BYTE   N12  Gn1
 BYTE   N12  Dn2
 BYTE   W12
 BYTE   PEND 
// 011   ----------------------------------------
Label_6_01842079:
 BYTE   N12  Fn0  v104
 BYTE   N12  Fn1
 BYTE   N12  Cn2
 BYTE   W12
 BYTE   Fn0
 BYTE   N12  Fn1
 BYTE   N12  Cn2
 BYTE   W12
 BYTE   Fn0
 BYTE   N12  Fn1
 BYTE   N12  Cn2
 BYTE   W12
 BYTE   Fn0
 BYTE   N12  Fn1
 BYTE   N12  Cn2
 BYTE   W12
 BYTE   Fn0
 BYTE   N12  Fn1
 BYTE   N12  Cn2
 BYTE   W12
 BYTE   Fn0
 BYTE   N12  Fn1
 BYTE   N12  Cn2
 BYTE   W12
 BYTE   Fn0
 BYTE   N12  Fn1
 BYTE   N12  Cn2
 BYTE   W12
 BYTE   Fn0
 BYTE   N12  Fn1
 BYTE   N12  Cn2
 BYTE   W12
 BYTE   PEND 
// 012   ----------------------------------------
Label_6_018420AC:
 BYTE   N12  En0  v104
 BYTE   N12  En1
 BYTE   N12  Bn1
 BYTE   W12
 BYTE   En0
 BYTE   N12  En1
 BYTE   N12  Bn1
 BYTE   W12
 BYTE   En0
 BYTE   N12  En1
 BYTE   N12  Bn1
 BYTE   W12
 BYTE   En0
 BYTE   N12  En1
 BYTE   N12  Bn1
 BYTE   W12
 BYTE   Bn0
 BYTE   N12  Bn1
 BYTE   W12
 BYTE   Bn0
 BYTE   N12  Bn1
 BYTE   W12
 BYTE   Bn0
 BYTE   N12  Bn1
 BYTE   W12
 BYTE   Bn0
 BYTE   N12  Bn1
 BYTE   W12
 BYTE   PEND 
// 013   ----------------------------------------
Label_6_018420D7:
 BYTE   N24  En1  v104
 BYTE   N24  En2
 BYTE   W24
 BYTE   Dn1
 BYTE   N24  Dn2
 BYTE   W24
 BYTE   Cn1
 BYTE   N24  Cn2
 BYTE   W24
 BYTE   Bn0
 BYTE   N24  Bn1
 BYTE   W24
 BYTE   PEND 
// 014   ----------------------------------------
 BYTE   PATT
  POIN2 Label_6_01841FD4
// 015   ----------------------------------------
 BYTE   PATT
  POIN2 Label_6_01842008
// 016   ----------------------------------------
 BYTE   PATT
  POIN2 Label_6_01841FD4
// 017   ----------------------------------------
 BYTE   PATT
  POIN2 Label_6_01842008
// 018   ----------------------------------------
 BYTE   PATT
  POIN2 Label_6_01842046
// 019   ----------------------------------------
 BYTE   PATT
  POIN2 Label_6_01842079
// 020   ----------------------------------------
 BYTE   PATT
  POIN2 Label_6_018420AC
// 021   ----------------------------------------
 BYTE   PATT
  POIN2 Label_6_018420D7
// 022   ----------------------------------------
Label_6_01842112:
 BYTE   N12  Cn1  v104
 BYTE   N12  Cn2
 BYTE   W12
 BYTE   Cn1
 BYTE   N12  Cn2
 BYTE   W24
 BYTE   Cn1
 BYTE   N12  Cn2
 BYTE   W12
 BYTE   Cn1
 BYTE   N12  Cn2
 BYTE   W12
 BYTE   Cn1
 BYTE   N12  Cn2
 BYTE   W24
 BYTE   Cn1
 BYTE   N12  Cn2
 BYTE   W12
 BYTE   PEND 
// 023   ----------------------------------------
 BYTE   PATT
  POIN2 Label_6_01842112
// 024   ----------------------------------------
 BYTE   PATT
  POIN2 Label_6_01842112
// 025   ----------------------------------------
Label_6_01842137:
 BYTE   N12  Cn1  v104
 BYTE   N12  Cn2
 BYTE   W12
 BYTE   Cn1
 BYTE   N12  Cn2
 BYTE   W24
 BYTE   Cn1
 BYTE   N12  Cn2
 BYTE   W12
 BYTE   Cn1
 BYTE   N12  Cn2
 BYTE   W12
 BYTE   Cn1
 BYTE   N12  Cn2
 BYTE   W24
 BYTE   Dn1
 BYTE   N12  Dn2
 BYTE   W12
 BYTE   PEND 
// 026   ----------------------------------------
Label_6_01842152:
 BYTE   N12  En1  v104
 BYTE   N12  En2
 BYTE   W12
 BYTE   En1
 BYTE   N12  En2
 BYTE   W24
 BYTE   En1
 BYTE   N12  En2
 BYTE   W12
 BYTE   En1
 BYTE   N12  En2
 BYTE   W12
 BYTE   En1
 BYTE   N12  En2
 BYTE   W24
 BYTE   En1
 BYTE   N12  En2
 BYTE   W12
 BYTE   PEND 
// 027   ----------------------------------------
 BYTE   PATT
  POIN2 Label_6_01842152
// 028   ----------------------------------------
 BYTE   PATT
  POIN2 Label_6_01842152
// 029   ----------------------------------------
Label_6_01842177:
 BYTE   N12  En1  v104
 BYTE   N12  En2
 BYTE   W12
 BYTE   En1
 BYTE   N12  En2
 BYTE   W24
 BYTE   En1
 BYTE   N12  En2
 BYTE   W12
 BYTE   En1
 BYTE   N12  En2
 BYTE   W12
 BYTE   En1
 BYTE   N12  En2
 BYTE   W24
 BYTE   Dn1
 BYTE   N12  Dn2
 BYTE   W12
 BYTE   PEND 
// 030   ----------------------------------------
 BYTE   PATT
  POIN2 Label_6_01842112
// 031   ----------------------------------------
 BYTE   PATT
  POIN2 Label_6_01842112
// 032   ----------------------------------------
 BYTE   PATT
  POIN2 Label_6_01842112
// 033   ----------------------------------------
 BYTE   PATT
  POIN2 Label_6_01842137
// 034   ----------------------------------------
 BYTE   PATT
  POIN2 Label_6_01842152
// 035   ----------------------------------------
 BYTE   PATT
  POIN2 Label_6_01842152
// 036   ----------------------------------------
 BYTE   PATT
  POIN2 Label_6_01842152
// 037   ----------------------------------------
 BYTE   PATT
  POIN2 Label_6_01842177
// 038   ----------------------------------------
 BYTE   GoTo
  POIN2 Label_6_01841FD4
 BYTE   FINE

//**************** Track 8 (Midi-Chn.7) ****************//

FFLegendFinalBossMrGreen3339_008:
// 000   ----------------------------------------
 BYTE   KEYSH   FFLegendFinalBossMrGreen3339_key+0
 BYTE   VOICE   127
 BYTE   PAN   c_v+0
 BYTE   VOL   48*FFLegendFinalBossMrGreen3339_mvl/mxv
 BYTE   N12  En1  v100
 BYTE   N96  Cs2
 BYTE   W36
 BYTE   N03  En1
 BYTE   W03
 BYTE   N03
 BYTE   W03
 BYTE   N03
 BYTE   W03
 BYTE   N03
 BYTE   W03
 BYTE   N12
 BYTE   W36
 BYTE   N03
 BYTE   W03
 BYTE   N03
 BYTE   W03
 BYTE   N03
 BYTE   W03
 BYTE   N03
 BYTE   W03
// 001   ----------------------------------------
Label_7_018421E1:
 BYTE   N12  En1  v100
 BYTE   W36
 BYTE   N03
 BYTE   W03
 BYTE   N03
 BYTE   W03
 BYTE   N03
 BYTE   W03
 BYTE   N03
 BYTE   W03
 BYTE   N12
 BYTE   W12
 BYTE   N03
 BYTE   W03
 BYTE   N03
 BYTE   W03
 BYTE   N03
 BYTE   W03
 BYTE   N03
 BYTE   W03
 BYTE   N06
 BYTE   W06
 BYTE   N06
 BYTE   W06
 BYTE   N06
 BYTE   W06
 BYTE   N06
 BYTE   W06
 BYTE   PEND 
// 002   ----------------------------------------
 BYTE   N12
 BYTE   N96  Cs2
 BYTE   W36
 BYTE   N03  En1
 BYTE   W03
 BYTE   N03
 BYTE   W03
 BYTE   N03
 BYTE   W03
 BYTE   N03
 BYTE   W03
 BYTE   N12
 BYTE   W36
 BYTE   N03
 BYTE   W03
 BYTE   N03
 BYTE   W03
 BYTE   N03
 BYTE   W03
 BYTE   N03
 BYTE   W03
// 003   ----------------------------------------
 BYTE   PATT
  POIN2 Label_7_018421E1
// 004   ----------------------------------------
 BYTE   N96  En1  v100
 BYTE   N96  Cs2
 BYTE   W96
// 005   ----------------------------------------
 BYTE   W96
// 006   ----------------------------------------
Label_7_01842223:
 BYTE   N12  Cn1  v100
 BYTE   N12  Fs1
 BYTE   N96  Cs2  v127
 BYTE   W12
 BYTE   N12  Cn1  v100
 BYTE   N06  Fs1
 BYTE   W06
 BYTE   N06
 BYTE   W06
 BYTE   N12  Dn1
 BYTE   N12  As1
 BYTE   W12
 BYTE   Cn1
 BYTE   N06  Fs1
 BYTE   W06
 BYTE   N06
 BYTE   W06
 BYTE   N12
 BYTE   W12
 BYTE   Cn1
 BYTE   N06  Fs1
 BYTE   W06
 BYTE   N06
 BYTE   W06
 BYTE   N24  Dn1
 BYTE   N12  As1
 BYTE   W12
 BYTE   N06  Fs1
 BYTE   W06
 BYTE   N06
 BYTE   W06
 BYTE   PEND 
// 007   ----------------------------------------
Label_7_01842252:
 BYTE   N12  Cn1  v100
 BYTE   N12  Fs1
 BYTE   W12
 BYTE   Cn1
 BYTE   N06  Fs1
 BYTE   W06
 BYTE   N06
 BYTE   W06
 BYTE   N12  Dn1
 BYTE   N12  As1
 BYTE   W12
 BYTE   Cn1
 BYTE   N06  Fs1
 BYTE   W06
 BYTE   N06
 BYTE   W06
 BYTE   N12
 BYTE   W12
 BYTE   Cn1
 BYTE   N06  Fs1
 BYTE   W06
 BYTE   N06
 BYTE   W06
 BYTE   N12  Dn1
 BYTE   N12  As1
 BYTE   W12
 BYTE   Dn1
 BYTE   N06  Fs1
 BYTE   W06
 BYTE   N06
 BYTE   W06
 BYTE   PEND 
// 008   ----------------------------------------
 BYTE   PATT
  POIN2 Label_7_01842223
// 009   ----------------------------------------
 BYTE   PATT
  POIN2 Label_7_01842252
// 010   ----------------------------------------
 BYTE   PATT
  POIN2 Label_7_01842223
// 011   ----------------------------------------
Label_7_0184228C:
 BYTE   N12  Cn1  v100
 BYTE   N12  Fs1
 BYTE   N96  Cs2  v104
 BYTE   W12
 BYTE   N12  Cn1  v100
 BYTE   N06  Fs1
 BYTE   W06
 BYTE   N06
 BYTE   W06
 BYTE   N12  Dn1
 BYTE   N12  As1
 BYTE   W12
 BYTE   Cn1
 BYTE   N06  Fs1
 BYTE   W06
 BYTE   N06
 BYTE   W06
 BYTE   N12
 BYTE   W12
 BYTE   Cn1
 BYTE   N06  Fs1
 BYTE   W06
 BYTE   N06
 BYTE   W06
 BYTE   N12  Dn1
 BYTE   N12  As1
 BYTE   W12
 BYTE   Dn1
 BYTE   N06  Fs1
 BYTE   W06
 BYTE   N06
 BYTE   W06
 BYTE   PEND 
// 012   ----------------------------------------
 BYTE   PATT
  POIN2 Label_7_01842223
// 013   ----------------------------------------
Label_7_018422C1:
 BYTE   N12  Cn1  v100
 BYTE   N12  Fs1
 BYTE   N48  Cs2  v104
 BYTE   W12
 BYTE   N12  Cn1  v100
 BYTE   N06  Fs1
 BYTE   W06
 BYTE   N06
 BYTE   W06
 BYTE   N12  Dn1
 BYTE   N12  As1
 BYTE   W12
 BYTE   Cn1
 BYTE   N06  Fs1
 BYTE   W06
 BYTE   N06
 BYTE   W06
 BYTE   N12
 BYTE   N24  Cs2  v104
 BYTE   W12
 BYTE   N12  Cn1  v100
 BYTE   N06  Fs1
 BYTE   W06
 BYTE   N06
 BYTE   W06
 BYTE   Dn1
 BYTE   N12  As1
 BYTE   N24  Cs2  v104
 BYTE   W06
 BYTE   N06  Dn1  v100
 BYTE   W06
 BYTE   N06
 BYTE   N06  Fs1
 BYTE   W06
 BYTE   Dn1
 BYTE   N06  Fs1
 BYTE   W06
 BYTE   PEND 
// 014   ----------------------------------------
 BYTE   PATT
  POIN2 Label_7_01842223
// 015   ----------------------------------------
 BYTE   PATT
  POIN2 Label_7_01842252
// 016   ----------------------------------------
 BYTE   PATT
  POIN2 Label_7_01842223
// 017   ----------------------------------------
 BYTE   PATT
  POIN2 Label_7_01842252
// 018   ----------------------------------------
 BYTE   PATT
  POIN2 Label_7_01842223
// 019   ----------------------------------------
 BYTE   PATT
  POIN2 Label_7_0184228C
// 020   ----------------------------------------
 BYTE   PATT
  POIN2 Label_7_01842223
// 021   ----------------------------------------
 BYTE   PATT
  POIN2 Label_7_018422C1
// 022   ----------------------------------------
 BYTE   N24  Cn1  v104
 BYTE   N12  Fs1
 BYTE   N96  Cs2
 BYTE   W12
 BYTE   N06  Fs1
 BYTE   W06
 BYTE   N06
 BYTE   W06
 BYTE   N24  Dn1
 BYTE   N12  As1
 BYTE   W12
 BYTE   N06  Fs1
 BYTE   W06
 BYTE   N06
 BYTE   W06
 BYTE   N24  Cn1
 BYTE   N12  Fs1
 BYTE   W12
 BYTE   N06
 BYTE   W06
 BYTE   N06
 BYTE   W06
 BYTE   N24  Dn1
 BYTE   N12  As1
 BYTE   W12
 BYTE   N06  Fs1
 BYTE   W06
 BYTE   N06
 BYTE   W06
// 023   ----------------------------------------
Label_7_01842350:
 BYTE   N24  Cn1  v104
 BYTE   N12  Fs1
 BYTE   W12
 BYTE   N06
 BYTE   W06
 BYTE   N06
 BYTE   W06
 BYTE   N24  Dn1
 BYTE   N12  As1
 BYTE   W12
 BYTE   N06  Fs1
 BYTE   W06
 BYTE   N06
 BYTE   W06
 BYTE   N24  Cn1
 BYTE   N12  Fs1
 BYTE   W12
 BYTE   N06
 BYTE   W06
 BYTE   N06
 BYTE   W06
 BYTE   N24  Dn1
 BYTE   N12  As1
 BYTE   W12
 BYTE   N06  Fs1
 BYTE   W06
 BYTE   N06
 BYTE   W06
 BYTE   PEND 
// 024   ----------------------------------------
 BYTE   PATT
  POIN2 Label_7_01842350
// 025   ----------------------------------------
 BYTE   PATT
  POIN2 Label_7_01842350
// 026   ----------------------------------------
 BYTE   PATT
  POIN2 Label_7_01842350
// 027   ----------------------------------------
 BYTE   PATT
  POIN2 Label_7_01842350
// 028   ----------------------------------------
 BYTE   PATT
  POIN2 Label_7_01842350
// 029   ----------------------------------------
 BYTE   PATT
  POIN2 Label_7_01842350
// 030   ----------------------------------------
 BYTE   PATT
  POIN2 Label_7_01842350
// 031   ----------------------------------------
 BYTE   PATT
  POIN2 Label_7_01842350
// 032   ----------------------------------------
 BYTE   PATT
  POIN2 Label_7_01842350
// 033   ----------------------------------------
 BYTE   PATT
  POIN2 Label_7_01842350
// 034   ----------------------------------------
 BYTE   PATT
  POIN2 Label_7_01842350
// 035   ----------------------------------------
 BYTE   PATT
  POIN2 Label_7_01842350
// 036   ----------------------------------------
 BYTE   PATT
  POIN2 Label_7_01842350
// 037   ----------------------------------------
 BYTE   N24  Cn1  v104
 BYTE   N12  Fs1
 BYTE   W12
 BYTE   N06
 BYTE   W06
 BYTE   N06
 BYTE   W06
 BYTE   N24  Dn1
 BYTE   N12  As1
 BYTE   W12
 BYTE   N06  Fs1
 BYTE   W06
 BYTE   N06
 BYTE   W06
 BYTE   N24  Cn1
 BYTE   N12  Fs1
 BYTE   W12
 BYTE   N06
 BYTE   W06
 BYTE   N06
 BYTE   W06
 BYTE   Dn1
 BYTE   N12  As1
 BYTE   N24  Cs2
 BYTE   W06
 BYTE   N06  Dn1
 BYTE   W06
 BYTE   N06
 BYTE   N06  Fs1
 BYTE   W06
 BYTE   Dn1
 BYTE   N06  Fs1
 BYTE   W06
// 038   ----------------------------------------
 BYTE   GoTo
  POIN2 Label_7_01842223
 BYTE   FINE

//******************************************************//
	ALIGN 4

FFLegendFinalBossMrGreen3339:
	BYTE	8	// NumTrks
	BYTE	0	// NumBlks
	BYTE	FFLegendFinalBossMrGreen3339_pri	// Priority
	BYTE	FFLegendFinalBossMrGreen3339_rev	// Reverb.
    
	POIN2	FFLegendFinalBossMrGreen3339_grp
    
	POIN2	FFLegendFinalBossMrGreen3339_001
	POIN2	FFLegendFinalBossMrGreen3339_002
	POIN2	FFLegendFinalBossMrGreen3339_003
	POIN2	FFLegendFinalBossMrGreen3339_004
	POIN2	FFLegendFinalBossMrGreen3339_005
	POIN2	FFLegendFinalBossMrGreen3339_006
	POIN2	FFLegendFinalBossMrGreen3339_007
	POIN2	FFLegendFinalBossMrGreen3339_008

	
