//Event file generated from Sappy .s format.
	#include "MPlayDef.event"

	#define	FFLegend2SaveTheWorldMeatOfJustice_grp  voicegroup000
	#define	FFLegend2SaveTheWorldMeatOfJustice_pri  0
	#define	FFLegend2SaveTheWorldMeatOfJustice_rev  0
	#define	FFLegend2SaveTheWorldMeatOfJustice_mvl  127
	#define	FFLegend2SaveTheWorldMeatOfJustice_key  0
	#define	FFLegend2SaveTheWorldMeatOfJustice_tbs  1
	#define	FFLegend2SaveTheWorldMeatOfJustice_exg  0
	#define	FFLegend2SaveTheWorldMeatOfJustice_cmp  1

	// .rodata
	//	FFLegend2SaveTheWorldMeatOfJustice
	ALIGN 4


//**************** Track 1 (Midi-Chn.0) ****************//

FFLegend2SaveTheWorldMeatOfJustice_001:
// 000   ----------------------------------------
 BYTE   KEYSH   FFLegend2SaveTheWorldMeatOfJustice_key+0
 BYTE   TEMPO   180*FFLegend2SaveTheWorldMeatOfJustice_tbs/2
 BYTE   VOICE   48
 BYTE   VOL   64*FFLegend2SaveTheWorldMeatOfJustice_mvl/mxv
 BYTE   PAN   c_v+0
 BYTE   N05  Gs2  v100
 BYTE   W06
 BYTE   As2
 BYTE   W06
 BYTE   Cn3
 BYTE   W12
 BYTE   Gn2
 BYTE   W06
 BYTE   Gs2
 BYTE   W06
 BYTE   As2
 BYTE   W12
 BYTE   Gs2
 BYTE   W06
 BYTE   As2
 BYTE   W06
 BYTE   Cn3
 BYTE   W12
 BYTE   Gn2
 BYTE   W06
 BYTE   Gs2
 BYTE   W06
 BYTE   As2
 BYTE   W06
 BYTE   Cn3
 BYTE   W06
// 001   ----------------------------------------
Label_0_54CF3E:
 BYTE   N05  Gs2  v100
 BYTE   W06
 BYTE   As2
 BYTE   W06
 BYTE   Cn3
 BYTE   W12
 BYTE   Gn2
 BYTE   W06
 BYTE   Gs2
 BYTE   W06
 BYTE   As2
 BYTE   W12
 BYTE   Gs2
 BYTE   W06
 BYTE   As2
 BYTE   W06
 BYTE   Cn3
 BYTE   W12
 BYTE   Gn2
 BYTE   W06
 BYTE   Gs2
 BYTE   W06
 BYTE   As2
 BYTE   W06
 BYTE   Cn3
 BYTE   W06
 BYTE   PEND 
// 002   ----------------------------------------
 BYTE   PATT
  POIN2 Label_0_54CF3E
// 003   ----------------------------------------
Label_0_54CF60:
 BYTE   N05  Gs2  v100
 BYTE   W06
 BYTE   As2
 BYTE   W06
 BYTE   Cn3
 BYTE   W12
 BYTE   Gn2
 BYTE   W06
 BYTE   Gs2
 BYTE   W06
 BYTE   As2
 BYTE   W12
 BYTE   Fn2
 BYTE   W06
 BYTE   Gn2
 BYTE   W06
 BYTE   Gs2
 BYTE   W06
 BYTE   As2
 BYTE   W06
 BYTE   Cn3
 BYTE   W06
 BYTE   Dn3
 BYTE   W06
 BYTE   Ds3
 BYTE   W06
 BYTE   Fn3
 BYTE   W06
 BYTE   PEND 
// 004   ----------------------------------------
 BYTE   PATT
  POIN2 Label_0_54CF3E
// 005   ----------------------------------------
 BYTE   PATT
  POIN2 Label_0_54CF3E
// 006   ----------------------------------------
 BYTE   PATT
  POIN2 Label_0_54CF3E
// 007   ----------------------------------------
 BYTE   PATT
  POIN2 Label_0_54CF60
// 008   ----------------------------------------
 BYTE   W96
// 009   ----------------------------------------
 BYTE   W96
// 010   ----------------------------------------
 BYTE   W96
// 011   ----------------------------------------
 BYTE   W96
// 012   ----------------------------------------
 BYTE   W96
// 013   ----------------------------------------
 BYTE   W96
// 014   ----------------------------------------
 BYTE   W96
// 015   ----------------------------------------
 BYTE   W96
// 016   ----------------------------------------
 BYTE   W96
// 017   ----------------------------------------
 BYTE   W96
// 018   ----------------------------------------
 BYTE   W96
// 019   ----------------------------------------
 BYTE   W92
 BYTE   W02
 BYTE   TEMPO   176*FFLegend2SaveTheWorldMeatOfJustice_tbs/2
 BYTE   W01
 BYTE   TEMPO   174*FFLegend2SaveTheWorldMeatOfJustice_tbs/2
 BYTE   W01
// 020   ----------------------------------------
Label_0_54CFA6:
 BYTE   TEMPO   168*FFLegend2SaveTheWorldMeatOfJustice_tbs/2
 BYTE   VOL   46*FFLegend2SaveTheWorldMeatOfJustice_mvl/mxv
 BYTE   N10  Ds2  v100
 BYTE   W01
 BYTE   TEMPO   164*FFLegend2SaveTheWorldMeatOfJustice_tbs/2
 BYTE   W01
 BYTE   TEMPO   162*FFLegend2SaveTheWorldMeatOfJustice_tbs/2
 BYTE   W01
 BYTE   TEMPO   158*FFLegend2SaveTheWorldMeatOfJustice_tbs/2
 BYTE   W01
 BYTE   TEMPO   168*FFLegend2SaveTheWorldMeatOfJustice_tbs/2
 BYTE   W01
 BYTE   TEMPO   164*FFLegend2SaveTheWorldMeatOfJustice_tbs/2
 BYTE   W07
 BYTE   Fn2
 BYTE   W01
 BYTE   TEMPO   168*FFLegend2SaveTheWorldMeatOfJustice_tbs/2
 BYTE   W08
 BYTE   TEMPO   164*FFLegend2SaveTheWorldMeatOfJustice_tbs/2
 BYTE   W03
 BYTE   Gn2
 BYTE   W12
 BYTE   Ds2
 BYTE   W12
 BYTE   Fn2
 BYTE   W12
 BYTE   Gn2
 BYTE   W12
 BYTE   Ds2
 BYTE   W12
 BYTE   Fn2
 BYTE   W12
// 021   ----------------------------------------
Label_0_54CFD1:
 BYTE   N10  Gn2  v100
 BYTE   W12
 BYTE   Ds2
 BYTE   W12
 BYTE   Fn2
 BYTE   W12
 BYTE   Gn2
 BYTE   W12
 BYTE   Ds2
 BYTE   W12
 BYTE   Fn2
 BYTE   W12
 BYTE   Gn2
 BYTE   W12
 BYTE   Ds2
 BYTE   W12
 BYTE   PEND 
// 022   ----------------------------------------
Label_0_54CFE4:
 BYTE   N10  Fn2  v100
 BYTE   W12
 BYTE   Gn2
 BYTE   W12
 BYTE   Ds2
 BYTE   W12
 BYTE   Fn2
 BYTE   W12
 BYTE   Gn2
 BYTE   W12
 BYTE   Ds2
 BYTE   W12
 BYTE   Fn2
 BYTE   W12
 BYTE   Gn2
 BYTE   W12
 BYTE   PEND 
// 023   ----------------------------------------
Label_0_54CFF7:
 BYTE   N10  Ds2  v100
 BYTE   W12
 BYTE   Fn2
 BYTE   W12
 BYTE   Gn2
 BYTE   W12
 BYTE   Ds2
 BYTE   W12
 BYTE   Fn2
 BYTE   W12
 BYTE   Gn2
 BYTE   W12
 BYTE   Ds2
 BYTE   W12
 BYTE   Fn2
 BYTE   W12
 BYTE   PEND 
// 024   ----------------------------------------
Label_0_54D00A:
 BYTE   N10  Dn2  v100
 BYTE   W12
 BYTE   Ds2
 BYTE   W12
 BYTE   Fn2
 BYTE   W12
 BYTE   Dn2
 BYTE   W12
 BYTE   Ds2
 BYTE   W12
 BYTE   Fn2
 BYTE   W12
 BYTE   Dn2
 BYTE   W12
 BYTE   Ds2
 BYTE   W12
 BYTE   PEND 
// 025   ----------------------------------------
Label_0_54D01D:
 BYTE   N10  Fn2  v100
 BYTE   W12
 BYTE   Dn2
 BYTE   W12
 BYTE   Ds2
 BYTE   W12
 BYTE   Fn2
 BYTE   W12
 BYTE   Dn2
 BYTE   W12
 BYTE   Ds2
 BYTE   W12
 BYTE   Fn2
 BYTE   W12
 BYTE   Dn2
 BYTE   W12
 BYTE   PEND 
// 026   ----------------------------------------
Label_0_54D030:
 BYTE   N10  Ds2  v100
 BYTE   W12
 BYTE   Fn2
 BYTE   W12
 BYTE   Dn2
 BYTE   W12
 BYTE   Ds2
 BYTE   W12
 BYTE   Fn2
 BYTE   W12
 BYTE   Dn2
 BYTE   W12
 BYTE   Ds2
 BYTE   W12
 BYTE   Fn2
 BYTE   W12
 BYTE   PEND 
// 027   ----------------------------------------
 BYTE   PATT
  POIN2 Label_0_54D00A
// 028   ----------------------------------------
 BYTE   PATT
  POIN2 Label_0_54CFF7
// 029   ----------------------------------------
 BYTE   PATT
  POIN2 Label_0_54CFD1
// 030   ----------------------------------------
 BYTE   PATT
  POIN2 Label_0_54CFE4
// 031   ----------------------------------------
 BYTE   PATT
  POIN2 Label_0_54CFF7
// 032   ----------------------------------------
 BYTE   PATT
  POIN2 Label_0_54D00A
// 033   ----------------------------------------
 BYTE   PATT
  POIN2 Label_0_54D01D
// 034   ----------------------------------------
 BYTE   PATT
  POIN2 Label_0_54D030
// 035   ----------------------------------------
Label_0_54D06B:
 BYTE   N10  Dn2  v100
 BYTE   W12
 BYTE   Ds2
 BYTE   W12
 BYTE   Fn2
 BYTE   W12
 BYTE   Dn2
 BYTE   W12
 BYTE   Ds2
 BYTE   W12
 BYTE   Fn2
 BYTE   W12
 BYTE   Dn2
 BYTE   W11
 BYTE   TEMPO   162*FFLegend2SaveTheWorldMeatOfJustice_tbs/2
 BYTE   W01
 BYTE   TEMPO   158*FFLegend2SaveTheWorldMeatOfJustice_tbs/2
 BYTE   Ds2
 BYTE   W12
 BYTE   PEND 
// 036   ----------------------------------------
Label_0_54D083:
 BYTE   N21  Gs2  v100
 BYTE   W24
 BYTE   Fn2
 BYTE   W24
 BYTE   Ds2
 BYTE   W24
 BYTE   N10  Cn3
 BYTE   W12
 BYTE   N22  As2
 BYTE   W12
 BYTE   PEND 
// 037   ----------------------------------------
Label_0_54D092:
 BYTE   W12
 BYTE   N10  Cn3  v100
 BYTE   W12
 BYTE   Gs2
 BYTE   W12
 BYTE   As2
 BYTE   W12
 BYTE   Gn2
 BYTE   W12
 BYTE   Gs2
 BYTE   W12
 BYTE   Gn2
 BYTE   W12
 BYTE   Fn2
 BYTE   W12
 BYTE   PEND 
// 038   ----------------------------------------
Label_0_54D0A4:
 BYTE   N10  Gn2  v100
 BYTE   W12
 BYTE   Bn2
 BYTE   W12
 BYTE   Gn2
 BYTE   W12
 BYTE   Bn2
 BYTE   W12
 BYTE   An2
 BYTE   W12
 BYTE   Cn3
 BYTE   W12
 BYTE   Bn2
 BYTE   W12
 BYTE   Dn3
 BYTE   W12
 BYTE   PEND 
// 039   ----------------------------------------
Label_0_54D0B7:
 BYTE   N21  Ds3  v100
 BYTE   W24
 BYTE   Dn3
 BYTE   W24
 BYTE   Cn3
 BYTE   W24
 BYTE   N10  As2
 BYTE   W12
 BYTE   N22  An2
 BYTE   W12
 BYTE   PEND 
// 040   ----------------------------------------
Label_0_54D0C6:
 BYTE   W12
 BYTE   N10  Fs2  v100
 BYTE   W12
 BYTE   Ds2
 BYTE   W12
 BYTE   Cn2
 BYTE   W12
 BYTE   An1
 BYTE   W12
 BYTE   Cn2
 BYTE   W12
 BYTE   Ds2
 BYTE   W12
 BYTE   Fs2
 BYTE   W12
 BYTE   PEND 
// 041   ----------------------------------------
Label_0_54D0D8:
 BYTE   N10  Dn2  v100
 BYTE   W12
 BYTE   Fs2
 BYTE   W12
 BYTE   An2
 BYTE   W12
 BYTE   Cn3
 BYTE   W12
 BYTE   Cn2
 BYTE   W12
 BYTE   Ds2
 BYTE   W12
 BYTE   Fs2
 BYTE   W12
 BYTE   An2
 BYTE   W12
 BYTE   PEND 
// 042   ----------------------------------------
Label_0_54D0EB:
 BYTE   N10  Cn3  v100
 BYTE   W12
 BYTE   N05  Fn2
 BYTE   W06
 BYTE   Gn2
 BYTE   W06
 BYTE   N10  Dn2
 BYTE   W12
 BYTE   Cn3
 BYTE   W12
 BYTE   N05  Fn2
 BYTE   W06
 BYTE   Gn2
 BYTE   W06
 BYTE   N10  Dn2
 BYTE   W12
 BYTE   N05  Cn3
 BYTE   W06
 BYTE   Fn2
 BYTE   W06
 BYTE   Gn2
 BYTE   W06
 BYTE   Dn2
 BYTE   W06
 BYTE   PEND 
// 043   ----------------------------------------
Label_0_54D10B:
 BYTE   N10  Bn2  v100
 BYTE   W12
 BYTE   N05  Fn2
 BYTE   W06
 BYTE   Gn2
 BYTE   W06
 BYTE   N10  Dn2
 BYTE   W12
 BYTE   Bn2
 BYTE   W12
 BYTE   N05  Fn2
 BYTE   W06
 BYTE   Gn2
 BYTE   W06
 BYTE   N10  Dn2
 BYTE   W12
 BYTE   N05  Bn2
 BYTE   W06
 BYTE   Fn2
 BYTE   W06
 BYTE   Gn2
 BYTE   W06
 BYTE   Dn2
 BYTE   W06
 BYTE   PEND 
// 044   ----------------------------------------
 BYTE   TEMPO   168*FFLegend2SaveTheWorldMeatOfJustice_tbs/2
 BYTE   N10  Ds2
 BYTE   W01
 BYTE   TEMPO   164*FFLegend2SaveTheWorldMeatOfJustice_tbs/2
 BYTE   W01
 BYTE   TEMPO   162*FFLegend2SaveTheWorldMeatOfJustice_tbs/2
 BYTE   W01
 BYTE   TEMPO   158*FFLegend2SaveTheWorldMeatOfJustice_tbs/2
 BYTE   W01
 BYTE   TEMPO   168*FFLegend2SaveTheWorldMeatOfJustice_tbs/2
 BYTE   W01
 BYTE   TEMPO   164*FFLegend2SaveTheWorldMeatOfJustice_tbs/2
 BYTE   W07
 BYTE   Fn2
 BYTE   W01
 BYTE   TEMPO   168*FFLegend2SaveTheWorldMeatOfJustice_tbs/2
 BYTE   W08
 BYTE   TEMPO   164*FFLegend2SaveTheWorldMeatOfJustice_tbs/2
 BYTE   W03
 BYTE   Gn2
 BYTE   W12
 BYTE   Ds2
 BYTE   W12
 BYTE   Fn2
 BYTE   W12
 BYTE   Gn2
 BYTE   W12
 BYTE   Ds2
 BYTE   W12
 BYTE   Fn2
 BYTE   W12
// 045   ----------------------------------------
 BYTE   PATT
  POIN2 Label_0_54CFD1
// 046   ----------------------------------------
 BYTE   PATT
  POIN2 Label_0_54CFE4
// 047   ----------------------------------------
 BYTE   PATT
  POIN2 Label_0_54CFF7
// 048   ----------------------------------------
 BYTE   PATT
  POIN2 Label_0_54D00A
// 049   ----------------------------------------
 BYTE   PATT
  POIN2 Label_0_54D01D
// 050   ----------------------------------------
 BYTE   PATT
  POIN2 Label_0_54D030
// 051   ----------------------------------------
 BYTE   PATT
  POIN2 Label_0_54D00A
// 052   ----------------------------------------
 BYTE   PATT
  POIN2 Label_0_54CFF7
// 053   ----------------------------------------
 BYTE   PATT
  POIN2 Label_0_54CFD1
// 054   ----------------------------------------
 BYTE   PATT
  POIN2 Label_0_54CFE4
// 055   ----------------------------------------
 BYTE   PATT
  POIN2 Label_0_54CFF7
// 056   ----------------------------------------
 BYTE   PATT
  POIN2 Label_0_54D00A
// 057   ----------------------------------------
 BYTE   PATT
  POIN2 Label_0_54D01D
// 058   ----------------------------------------
 BYTE   PATT
  POIN2 Label_0_54D030
// 059   ----------------------------------------
 BYTE   PATT
  POIN2 Label_0_54D06B
// 060   ----------------------------------------
 BYTE   PATT
  POIN2 Label_0_54D083
// 061   ----------------------------------------
 BYTE   PATT
  POIN2 Label_0_54D092
// 062   ----------------------------------------
 BYTE   PATT
  POIN2 Label_0_54D0A4
// 063   ----------------------------------------
 BYTE   PATT
  POIN2 Label_0_54D0B7
// 064   ----------------------------------------
 BYTE   PATT
  POIN2 Label_0_54D0C6
// 065   ----------------------------------------
 BYTE   PATT
  POIN2 Label_0_54D0D8
// 066   ----------------------------------------
 BYTE   PATT
  POIN2 Label_0_54D0EB
// 067   ----------------------------------------
 BYTE   PATT
  POIN2 Label_0_54D10B
// 068   ----------------------------------------
 BYTE   GoTo
  POIN2 Label_0_54CFA6
 BYTE   FINE

//**************** Track 2 (Midi-Chn.1) ****************//

FFLegend2SaveTheWorldMeatOfJustice_002:
// 000   ----------------------------------------
 BYTE   KEYSH   FFLegend2SaveTheWorldMeatOfJustice_key+0
 BYTE   VOICE   58
 BYTE   VOL   64*FFLegend2SaveTheWorldMeatOfJustice_mvl/mxv
 BYTE   PAN   c_v+0
 BYTE   N96  Fn3  v100
 BYTE   W96
// 001   ----------------------------------------
 BYTE   Gn3
 BYTE   W96
// 002   ----------------------------------------
 BYTE   Gs3
 BYTE   W96
// 003   ----------------------------------------
 BYTE   As3
 BYTE   W96
// 004   ----------------------------------------
 BYTE   N92  Fn3
 BYTE   W96
// 005   ----------------------------------------
 BYTE   N96  Gn3
 BYTE   W96
// 006   ----------------------------------------
 BYTE   Gs3
 BYTE   W96
// 007   ----------------------------------------
 BYTE   As3
 BYTE   W96
// 008   ----------------------------------------
Label_1_54C708:
 BYTE   N10  Fn3  v100
 BYTE   W12
 BYTE   N10
 BYTE   W48
 BYTE   N32  Gn3
 BYTE   W36
 BYTE   PEND 
// 009   ----------------------------------------
Label_1_54C712:
 BYTE   N32  Gs3  v100
 BYTE   W36
 BYTE   As3
 BYTE   W36
 BYTE   N21  Cn4
 BYTE   W24
 BYTE   PEND 
// 010   ----------------------------------------
 BYTE   PATT
  POIN2 Label_1_54C708
// 011   ----------------------------------------
 BYTE   PATT
  POIN2 Label_1_54C712
// 012   ----------------------------------------
 BYTE   W96
// 013   ----------------------------------------
 BYTE   W96
// 014   ----------------------------------------
 BYTE   W96
// 015   ----------------------------------------
 BYTE   W96
// 016   ----------------------------------------
 BYTE   PATT
  POIN2 Label_1_54C708
// 017   ----------------------------------------
 BYTE   PATT
  POIN2 Label_1_54C712
// 018   ----------------------------------------
 BYTE   PATT
  POIN2 Label_1_54C708
// 019   ----------------------------------------
 BYTE   PATT
  POIN2 Label_1_54C712
// 020   ----------------------------------------
Label_1_54C73E:
 BYTE   N21  Cn4  v080
 BYTE   W24
 BYTE   Ds4
 BYTE   W24
 BYTE   Dn4
 BYTE   W24
 BYTE   Cn4
 BYTE   W24
 BYTE   PEND 
// 021   ----------------------------------------
Label_1_54C749:
 BYTE   N21  Fn4  v080
 BYTE   W24
 BYTE   N10  Ds4
 BYTE   W12
 BYTE   N21  Dn4
 BYTE   W24
 BYTE   N10
 BYTE   W12
 BYTE   N21  Cn4
 BYTE   W24
 BYTE   PEND 
// 022   ----------------------------------------
Label_1_54C759:
 BYTE   N21  Gn4  v080
 BYTE   W24
 BYTE   Fn4
 BYTE   W24
 BYTE   Ds4
 BYTE   W24
 BYTE   Dn4
 BYTE   W24
 BYTE   PEND 
// 023   ----------------------------------------
 BYTE   PATT
  POIN2 Label_1_54C749
// 024   ----------------------------------------
Label_1_54C769:
 BYTE   PAN   c_v-64
 BYTE   N05  Bn3  v080
 BYTE   W06
 BYTE   Cn4
 BYTE   W06
 BYTE   Dn4
 BYTE   W06
 BYTE   Bn3
 BYTE   W06
 BYTE   N42  Gn3
 BYTE   W24
 BYTE   PAN   c_v-54
 BYTE   W24
 BYTE   N05  Dn4
 BYTE   W06
 BYTE   Ds4
 BYTE   W06
 BYTE   Fn4
 BYTE   W06
 BYTE   Dn4
 BYTE   W06
 BYTE   PEND 
// 025   ----------------------------------------
Label_1_54C785:
 BYTE   PAN   c_v-44
 BYTE   N10  Bn3  v080
 BYTE   W12
 BYTE   N05  Fn4
 BYTE   W06
 BYTE   Gn4
 BYTE   W06
 BYTE   Gs4
 BYTE   W06
 BYTE   Fn4
 BYTE   W06
 BYTE   N10  Dn4
 BYTE   W12
 BYTE   PAN   c_v-34
 BYTE   N05  Bn4
 BYTE   W06
 BYTE   Cn5
 BYTE   W06
 BYTE   Dn5
 BYTE   W06
 BYTE   Bn4
 BYTE   W06
 BYTE   N21  Gn4
 BYTE   W24
 BYTE   PEND 
// 026   ----------------------------------------
Label_1_54C7A6:
 BYTE   PAN   c_v-24
 BYTE   N05  Dn4  v080
 BYTE   W06
 BYTE   Gn3
 BYTE   W06
 BYTE   Bn3
 BYTE   W06
 BYTE   Fn4
 BYTE   W06
 BYTE   PAN   c_v-4
 BYTE   N05  Ds4
 BYTE   W06
 BYTE   Cs4
 BYTE   W06
 BYTE   Dn4
 BYTE   W06
 BYTE   As4
 BYTE   W06
 BYTE   PAN   c_v+16
 BYTE   N05  Gs4
 BYTE   W06
 BYTE   Fs4
 BYTE   W06
 BYTE   Gn4
 BYTE   W06
 BYTE   Ds5
 BYTE   W06
 BYTE   PAN   c_v+36
 BYTE   N05  Dn5
 BYTE   W06
 BYTE   As4
 BYTE   W06
 BYTE   Bn4
 BYTE   W06
 BYTE   Fn5
 BYTE   W06
 BYTE   PEND 
// 027   ----------------------------------------
Label_1_54C7D4:
 BYTE   PAN   c_v+56
 BYTE   N21  Gn5  v080
 BYTE   W12
 BYTE   N05  Gn4
 BYTE   W06
 BYTE   N05
 BYTE   W06
 BYTE   PAN   c_v+16
 BYTE   N21  Fn5
 BYTE   W12
 BYTE   N05  Gn4
 BYTE   W06
 BYTE   N05
 BYTE   W06
 BYTE   PAN   c_v-24
 BYTE   N21  Ds5
 BYTE   W12
 BYTE   N05  Gn4
 BYTE   W06
 BYTE   N05
 BYTE   W06
 BYTE   PAN   c_v-54
 BYTE   N21  Dn5
 BYTE   W06
 BYTE   N05  Bn4
 BYTE   W06
 BYTE   Gn4
 BYTE   W06
 BYTE   Bn4
 BYTE   W06
 BYTE   PEND 
// 028   ----------------------------------------
Label_1_54C800:
 BYTE   PAN   c_v+0
 BYTE   N21  Cn4  v080
 BYTE   W24
 BYTE   Ds4
 BYTE   W24
 BYTE   Dn4
 BYTE   W24
 BYTE   Cn4
 BYTE   W24
 BYTE   PEND 
// 029   ----------------------------------------
 BYTE   PATT
  POIN2 Label_1_54C749
// 030   ----------------------------------------
 BYTE   PATT
  POIN2 Label_1_54C759
// 031   ----------------------------------------
 BYTE   PATT
  POIN2 Label_1_54C749
// 032   ----------------------------------------
Label_1_54C81C:
 BYTE   PAN   c_v-54
 BYTE   N05  Bn3  v080
 BYTE   W06
 BYTE   Cn4
 BYTE   W06
 BYTE   Dn4
 BYTE   W06
 BYTE   Bn3
 BYTE   W06
 BYTE   PAN   c_v-34
 BYTE   N42  Gn4
 BYTE   W24
 BYTE   PAN   c_v-24
 BYTE   W24
 BYTE   PAN   c_v-14
 BYTE   N05  Bn4
 BYTE   W06
 BYTE   Cn5
 BYTE   W06
 BYTE   Dn5
 BYTE   W06
 BYTE   Bn4
 BYTE   W06
 BYTE   PEND 
// 033   ----------------------------------------
Label_1_54C83C:
 BYTE   PAN   c_v-4
 BYTE   N10  Gn5  v080
 BYTE   W12
 BYTE   N05  Bn4
 BYTE   W06
 BYTE   Cn5
 BYTE   W06
 BYTE   PAN   c_v+6
 BYTE   N05  Dn5
 BYTE   W06
 BYTE   Bn4
 BYTE   W06
 BYTE   N10  Fn5
 BYTE   W12
 BYTE   PAN   c_v+16
 BYTE   N05  Bn4
 BYTE   W06
 BYTE   Cn5
 BYTE   W06
 BYTE   Dn5
 BYTE   W06
 BYTE   Bn4
 BYTE   W06
 BYTE   PAN   c_v+26
 BYTE   N05  Fn5
 BYTE   W06
 BYTE   Ds5
 BYTE   W06
 BYTE   Dn5
 BYTE   W06
 BYTE   Cn5
 BYTE   W06
 BYTE   PEND 
// 034   ----------------------------------------
Label_1_54C868:
 BYTE   PAN   c_v+36
 BYTE   N05  Gn4  v080
 BYTE   W06
 BYTE   Gs4
 BYTE   W06
 BYTE   Gn4
 BYTE   W06
 BYTE   Fn4
 BYTE   W06
 BYTE   PAN   c_v+16
 BYTE   N05  Ds4
 BYTE   W06
 BYTE   Dn4
 BYTE   W06
 BYTE   Fn4
 BYTE   W06
 BYTE   Ds4
 BYTE   W06
 BYTE   PAN   c_v-4
 BYTE   N05  Dn4
 BYTE   W06
 BYTE   Ds4
 BYTE   W06
 BYTE   Dn4
 BYTE   W06
 BYTE   Cn4
 BYTE   W06
 BYTE   PAN   c_v-24
 BYTE   N05  Bn3
 BYTE   W06
 BYTE   Gn3
 BYTE   W06
 BYTE   Dn4
 BYTE   W06
 BYTE   Cn4
 BYTE   W06
 BYTE   PEND 
// 035   ----------------------------------------
Label_1_54C896:
 BYTE   PAN   c_v-44
 BYTE   N05  Bn3  v080
 BYTE   W06
 BYTE   Cn4
 BYTE   W06
 BYTE   Bn3
 BYTE   W06
 BYTE   Gn3
 BYTE   W06
 BYTE   Gs3
 BYTE   W06
 BYTE   As3
 BYTE   W06
 BYTE   Gs3
 BYTE   W06
 BYTE   Fn3
 BYTE   W06
 BYTE   Gn3
 BYTE   W06
 BYTE   Gs3
 BYTE   W06
 BYTE   As3
 BYTE   W06
 BYTE   Cn4
 BYTE   W06
 BYTE   PAN   c_v-64
 BYTE   N05  Cs4
 BYTE   W06
 BYTE   Dn4
 BYTE   W06
 BYTE   Ds4
 BYTE   W06
 BYTE   Fn4
 BYTE   W06
 BYTE   PEND 
// 036   ----------------------------------------
Label_1_54C8BE:
 BYTE   PAN   c_v+0
 BYTE   N10  Gn4  v100
 BYTE   W12
 BYTE   Fn4
 BYTE   W12
 BYTE   Cn4
 BYTE   W12
 BYTE   Gs3
 BYTE   W12
 BYTE   Gn3
 BYTE   W12
 BYTE   Fn3
 BYTE   W12
 BYTE   Ds4
 BYTE   W12
 BYTE   N72  Dn4
 BYTE   W12
 BYTE   PEND 
// 037   ----------------------------------------
Label_1_54C8D4:
 BYTE   W60
 BYTE   N04  Dn4  v100
 BYTE   W12
 BYTE   N10  Ds4
 BYTE   W12
 BYTE   Fn4
 BYTE   W12
 BYTE   PEND 
// 038   ----------------------------------------
Label_1_54C8DF:
 BYTE   N21  Dn4  v100
 BYTE   W24
 BYTE   N21
 BYTE   W24
 BYTE   Ds4
 BYTE   W24
 BYTE   Fn4
 BYTE   W24
 BYTE   PEND 
// 039   ----------------------------------------
Label_1_54C8EA:
 BYTE   N21  Gn4  v100
 BYTE   W24
 BYTE   N10  Gs4
 BYTE   W12
 BYTE   Gn4
 BYTE   W12
 BYTE   Fn4
 BYTE   W12
 BYTE   Gn4
 BYTE   W12
 BYTE   Fn4
 BYTE   W12
 BYTE   N92  Ds4
 BYTE   W12
 BYTE   PEND 
// 040   ----------------------------------------
Label_1_54C8FD:
 BYTE   W84
 BYTE   N05  Dn4  v100
 BYTE   W06
 BYTE   Ds4
 BYTE   W06
 BYTE   PEND 
// 041   ----------------------------------------
Label_1_54C905:
 BYTE   N21  Fn4  v100
 BYTE   W24
 BYTE   Ds4
 BYTE   W24
 BYTE   N10  Dn4
 BYTE   W12
 BYTE   Cn4
 BYTE   W12
 BYTE   Ds4
 BYTE   W12
 BYTE   TIE  Dn4
 BYTE   W12
 BYTE   PEND 
// 042   ----------------------------------------
 BYTE   W96
// 043   ----------------------------------------
 BYTE   W84
 BYTE   W02
 BYTE   EOT
 BYTE   W10
// 044   ----------------------------------------
 BYTE   PATT
  POIN2 Label_1_54C73E
// 045   ----------------------------------------
 BYTE   PATT
  POIN2 Label_1_54C749
// 046   ----------------------------------------
 BYTE   PATT
  POIN2 Label_1_54C759
// 047   ----------------------------------------
 BYTE   PATT
  POIN2 Label_1_54C749
// 048   ----------------------------------------
 BYTE   PATT
  POIN2 Label_1_54C769
// 049   ----------------------------------------
 BYTE   PATT
  POIN2 Label_1_54C785
// 050   ----------------------------------------
 BYTE   PATT
  POIN2 Label_1_54C7A6
// 051   ----------------------------------------
 BYTE   PATT
  POIN2 Label_1_54C7D4
// 052   ----------------------------------------
 BYTE   PATT
  POIN2 Label_1_54C800
// 053   ----------------------------------------
 BYTE   PATT
  POIN2 Label_1_54C749
// 054   ----------------------------------------
 BYTE   PATT
  POIN2 Label_1_54C759
// 055   ----------------------------------------
 BYTE   PATT
  POIN2 Label_1_54C749
// 056   ----------------------------------------
 BYTE   PATT
  POIN2 Label_1_54C81C
// 057   ----------------------------------------
 BYTE   PATT
  POIN2 Label_1_54C83C
// 058   ----------------------------------------
 BYTE   PATT
  POIN2 Label_1_54C868
// 059   ----------------------------------------
 BYTE   PATT
  POIN2 Label_1_54C896
// 060   ----------------------------------------
 BYTE   PATT
  POIN2 Label_1_54C8BE
// 061   ----------------------------------------
 BYTE   PATT
  POIN2 Label_1_54C8D4
// 062   ----------------------------------------
 BYTE   PATT
  POIN2 Label_1_54C8DF
// 063   ----------------------------------------
 BYTE   PATT
  POIN2 Label_1_54C8EA
// 064   ----------------------------------------
 BYTE   PATT
  POIN2 Label_1_54C8FD
// 065   ----------------------------------------
 BYTE   PATT
  POIN2 Label_1_54C905
// 066   ----------------------------------------
 BYTE   W96
// 067   ----------------------------------------
 BYTE   W84
 BYTE   W02
 BYTE   EOT
 BYTE   Dn4
 BYTE   W10
// 068   ----------------------------------------
 BYTE   GoTo
  POIN2 Label_1_54C73E
 BYTE   FINE

//**************** Track 3 (Midi-Chn.2) ****************//

FFLegend2SaveTheWorldMeatOfJustice_003:
// 000   ----------------------------------------
 BYTE   KEYSH   FFLegend2SaveTheWorldMeatOfJustice_key+0
 BYTE   VOICE   40
 BYTE   PAN   c_v-34
 BYTE   VOL   64*FFLegend2SaveTheWorldMeatOfJustice_mvl/mxv
 BYTE   PAN   c_v+0
 BYTE   N96  Fn2  v100
 BYTE   W96
// 001   ----------------------------------------
 BYTE   En2
 BYTE   W96
// 002   ----------------------------------------
 BYTE   Ds2
 BYTE   W96
// 003   ----------------------------------------
 BYTE   Dn2
 BYTE   W96
// 004   ----------------------------------------
 BYTE   PAN   c_v-34
 BYTE   N96  Fn2
 BYTE   W96
// 005   ----------------------------------------
 BYTE   En2
 BYTE   W96
// 006   ----------------------------------------
 BYTE   Ds2
 BYTE   W96
// 007   ----------------------------------------
 BYTE   Dn2
 BYTE   W96
// 008   ----------------------------------------
 BYTE   W96
// 009   ----------------------------------------
 BYTE   W96
// 010   ----------------------------------------
Label_2_54D4BD:
 BYTE   N12  Fn2  v100
 BYTE   W12
 BYTE   N12
 BYTE   W12
 BYTE   Gs2
 BYTE   W12
 BYTE   Gn2
 BYTE   W12
 BYTE   Fn2
 BYTE   W12
 BYTE   Bn2
 BYTE   W12
 BYTE   As2
 BYTE   W12
 BYTE   Gs2
 BYTE   W12
 BYTE   PEND 
// 011   ----------------------------------------
 BYTE   Fn2
 BYTE   W12
 BYTE   Cn3
 BYTE   W12
 BYTE   As2
 BYTE   W12
 BYTE   Dn3
 BYTE   W12
 BYTE   Cn3
 BYTE   W12
 BYTE   Ds3
 BYTE   W12
 BYTE   Dn3
 BYTE   W12
 BYTE   Fn3
 BYTE   W12
// 012   ----------------------------------------
Label_2_54D4E0:
 BYTE   W24
 BYTE   N10  Bn2  v088
 BYTE   W06
 BYTE   N05  Bn3
 BYTE   W06
 BYTE   N10  Fn3
 BYTE   W06
 BYTE   N05  Fn4
 BYTE   W30
 BYTE   N10  As2
 BYTE   W06
 BYTE   N05  As3
 BYTE   W06
 BYTE   N10  En3
 BYTE   W06
 BYTE   N05  En4
 BYTE   W06
 BYTE   PEND 
// 013   ----------------------------------------
 BYTE   W24
 BYTE   N10  An2
 BYTE   W06
 BYTE   N05  An3
 BYTE   W06
 BYTE   N10  Ds3
 BYTE   W06
 BYTE   N05  Ds4
 BYTE   W30
 BYTE   N10  As2
 BYTE   W06
 BYTE   N05  As3
 BYTE   W06
 BYTE   N10  En3
 BYTE   W06
 BYTE   N05  En4
 BYTE   W06
// 014   ----------------------------------------
 BYTE   PATT
  POIN2 Label_2_54D4E0
// 015   ----------------------------------------
 BYTE   W24
 BYTE   N10  An2  v088
 BYTE   W06
 BYTE   N05  An3
 BYTE   W06
 BYTE   N10  Ds3
 BYTE   W06
 BYTE   N05  Ds4
 BYTE   W30
 BYTE   N10  Gs2
 BYTE   W06
 BYTE   N05  Gs3
 BYTE   W06
 BYTE   N10  Dn3
 BYTE   W06
 BYTE   N05  Dn4
 BYTE   W06
// 016   ----------------------------------------
 BYTE   W96
// 017   ----------------------------------------
 BYTE   W96
// 018   ----------------------------------------
 BYTE   PATT
  POIN2 Label_2_54D4BD
// 019   ----------------------------------------
 BYTE   N12  Fn2  v100
 BYTE   W12
 BYTE   Cn3
 BYTE   W12
 BYTE   As2
 BYTE   W12
 BYTE   Dn3
 BYTE   W12
 BYTE   Cn3
 BYTE   W12
 BYTE   Ds3
 BYTE   W12
 BYTE   N03  Dn3
 BYTE   W03
 BYTE   Cs3
 BYTE   W03
 BYTE   Cn3
 BYTE   W03
 BYTE   Bn2
 BYTE   W03
 BYTE   As2
 BYTE   W03
 BYTE   An2
 BYTE   W03
 BYTE   Gs2
 BYTE   W03
 BYTE   Gn2
 BYTE   W03
// 020   ----------------------------------------
Label_2_54D559:
 BYTE   N12  Gs2  v060
 BYTE   W12
 BYTE   Gs3
 BYTE   W12
 BYTE   Gn3
 BYTE   W12
 BYTE   Gs3
 BYTE   W12
 BYTE   Cn4
 BYTE   W12
 BYTE   Gs3
 BYTE   W12
 BYTE   Gn3
 BYTE   W12
 BYTE   Gs3
 BYTE   W12
 BYTE   PEND 
// 021   ----------------------------------------
 BYTE   PATT
  POIN2 Label_2_54D559
// 022   ----------------------------------------
 BYTE   PATT
  POIN2 Label_2_54D559
// 023   ----------------------------------------
 BYTE   PATT
  POIN2 Label_2_54D559
// 024   ----------------------------------------
Label_2_54D57B:
 BYTE   N12  Gn2  v060
 BYTE   W12
 BYTE   Gn3
 BYTE   W12
 BYTE   Fn3
 BYTE   W12
 BYTE   Gn3
 BYTE   W12
 BYTE   Bn3
 BYTE   W12
 BYTE   Gn3
 BYTE   W12
 BYTE   Fn3
 BYTE   W12
 BYTE   Gn3
 BYTE   W12
 BYTE   PEND 
// 025   ----------------------------------------
 BYTE   PATT
  POIN2 Label_2_54D57B
// 026   ----------------------------------------
 BYTE   PATT
  POIN2 Label_2_54D57B
// 027   ----------------------------------------
 BYTE   PATT
  POIN2 Label_2_54D57B
// 028   ----------------------------------------
 BYTE   PATT
  POIN2 Label_2_54D559
// 029   ----------------------------------------
 BYTE   PATT
  POIN2 Label_2_54D559
// 030   ----------------------------------------
 BYTE   PATT
  POIN2 Label_2_54D559
// 031   ----------------------------------------
 BYTE   PATT
  POIN2 Label_2_54D559
// 032   ----------------------------------------
 BYTE   PATT
  POIN2 Label_2_54D57B
// 033   ----------------------------------------
 BYTE   PATT
  POIN2 Label_2_54D57B
// 034   ----------------------------------------
 BYTE   PATT
  POIN2 Label_2_54D57B
// 035   ----------------------------------------
 BYTE   PATT
  POIN2 Label_2_54D57B
// 036   ----------------------------------------
Label_2_54D5C5:
 BYTE   N12  Fn2  v060
 BYTE   W12
 BYTE   Fn3
 BYTE   W12
 BYTE   Fn2
 BYTE   W12
 BYTE   Fn3
 BYTE   W12
 BYTE   Fn2
 BYTE   W12
 BYTE   Fn3
 BYTE   W12
 BYTE   Fn2
 BYTE   W12
 BYTE   Fn3
 BYTE   W12
 BYTE   PEND 
// 037   ----------------------------------------
Label_2_54D5D8:
 BYTE   N12  As2  v060
 BYTE   W12
 BYTE   As3
 BYTE   W12
 BYTE   As2
 BYTE   W12
 BYTE   As3
 BYTE   W12
 BYTE   As2
 BYTE   W12
 BYTE   As3
 BYTE   W12
 BYTE   Gs2
 BYTE   W12
 BYTE   Gs3
 BYTE   W12
 BYTE   PEND 
// 038   ----------------------------------------
Label_2_54D5EB:
 BYTE   N12  Gn2  v060
 BYTE   W12
 BYTE   Gn3
 BYTE   W12
 BYTE   Gn2
 BYTE   W12
 BYTE   Gn3
 BYTE   W12
 BYTE   Gn2
 BYTE   W12
 BYTE   Gn3
 BYTE   W12
 BYTE   Gn2
 BYTE   W12
 BYTE   Gn3
 BYTE   W12
 BYTE   PEND 
// 039   ----------------------------------------
Label_2_54D5FE:
 BYTE   N12  Cn3  v060
 BYTE   W12
 BYTE   Cn4
 BYTE   W12
 BYTE   As2
 BYTE   W12
 BYTE   As3
 BYTE   W12
 BYTE   Gs2
 BYTE   W12
 BYTE   Gs3
 BYTE   W12
 BYTE   Gn2
 BYTE   W12
 BYTE   Gn3
 BYTE   W12
 BYTE   PEND 
// 040   ----------------------------------------
Label_2_54D611:
 BYTE   N12  Fs2  v060
 BYTE   W12
 BYTE   Fs3
 BYTE   W12
 BYTE   Fs2
 BYTE   W12
 BYTE   Fs3
 BYTE   W12
 BYTE   Fs2
 BYTE   W12
 BYTE   Fs3
 BYTE   W12
 BYTE   Fs2
 BYTE   W12
 BYTE   Fs3
 BYTE   W12
 BYTE   PEND 
// 041   ----------------------------------------
Label_2_54D624:
 BYTE   N12  Dn2  v060
 BYTE   W12
 BYTE   Dn3
 BYTE   W12
 BYTE   Dn2
 BYTE   W12
 BYTE   Dn3
 BYTE   W12
 BYTE   Dn2
 BYTE   W12
 BYTE   Dn3
 BYTE   W12
 BYTE   Dn2
 BYTE   W12
 BYTE   Dn3
 BYTE   W12
 BYTE   PEND 
// 042   ----------------------------------------
Label_2_54D637:
 BYTE   N12  Gn3  v060
 BYTE   W12
 BYTE   Gn2
 BYTE   W12
 BYTE   N12
 BYTE   W12
 BYTE   Fn3
 BYTE   W12
 BYTE   Gn2
 BYTE   W12
 BYTE   N12
 BYTE   W12
 BYTE   Ds3
 BYTE   W12
 BYTE   Gn2
 BYTE   W12
 BYTE   PEND 
// 043   ----------------------------------------
 BYTE   Dn3
 BYTE   W12
 BYTE   Gn2
 BYTE   W12
 BYTE   N12
 BYTE   W12
 BYTE   Cn3
 BYTE   W12
 BYTE   Gn2
 BYTE   W12
 BYTE   N12
 BYTE   W12
 BYTE   Bn2
 BYTE   W12
 BYTE   Gn2
 BYTE   W12
// 044   ----------------------------------------
 BYTE   PATT
  POIN2 Label_2_54D559
// 045   ----------------------------------------
 BYTE   PATT
  POIN2 Label_2_54D559
// 046   ----------------------------------------
 BYTE   PATT
  POIN2 Label_2_54D559
// 047   ----------------------------------------
 BYTE   PATT
  POIN2 Label_2_54D559
// 048   ----------------------------------------
 BYTE   PATT
  POIN2 Label_2_54D57B
// 049   ----------------------------------------
 BYTE   PATT
  POIN2 Label_2_54D57B
// 050   ----------------------------------------
 BYTE   PATT
  POIN2 Label_2_54D57B
// 051   ----------------------------------------
 BYTE   PATT
  POIN2 Label_2_54D57B
// 052   ----------------------------------------
 BYTE   PATT
  POIN2 Label_2_54D559
// 053   ----------------------------------------
 BYTE   PATT
  POIN2 Label_2_54D559
// 054   ----------------------------------------
 BYTE   PATT
  POIN2 Label_2_54D559
// 055   ----------------------------------------
 BYTE   PATT
  POIN2 Label_2_54D559
// 056   ----------------------------------------
 BYTE   PATT
  POIN2 Label_2_54D57B
// 057   ----------------------------------------
 BYTE   PATT
  POIN2 Label_2_54D57B
// 058   ----------------------------------------
 BYTE   PATT
  POIN2 Label_2_54D57B
// 059   ----------------------------------------
 BYTE   PATT
  POIN2 Label_2_54D57B
// 060   ----------------------------------------
 BYTE   PATT
  POIN2 Label_2_54D5C5
// 061   ----------------------------------------
 BYTE   PATT
  POIN2 Label_2_54D5D8
// 062   ----------------------------------------
 BYTE   PATT
  POIN2 Label_2_54D5EB
// 063   ----------------------------------------
 BYTE   PATT
  POIN2 Label_2_54D5FE
// 064   ----------------------------------------
 BYTE   PATT
  POIN2 Label_2_54D611
// 065   ----------------------------------------
 BYTE   PATT
  POIN2 Label_2_54D624
// 066   ----------------------------------------
 BYTE   PATT
  POIN2 Label_2_54D637
// 067   ----------------------------------------
 BYTE   N12  Dn3  v060
 BYTE   W12
 BYTE   Gn2
 BYTE   W12
 BYTE   N12
 BYTE   W12
 BYTE   Cn3
 BYTE   W12
 BYTE   Gn2
 BYTE   W12
 BYTE   N12
 BYTE   W12
 BYTE   Bn2
 BYTE   W24
// 068   ----------------------------------------
 BYTE   GoTo
  POIN2 Label_2_54D559
 BYTE   FINE

//**************** Track 4 (Midi-Chn.3) ****************//

FFLegend2SaveTheWorldMeatOfJustice_004:
// 000   ----------------------------------------
 BYTE   KEYSH   FFLegend2SaveTheWorldMeatOfJustice_key+0
 BYTE   VOICE   52
 BYTE   VOL   64*FFLegend2SaveTheWorldMeatOfJustice_mvl/mxv
 BYTE   PAN   c_v+0
 BYTE   N96  Gs2  v036
 BYTE   N96  Fn3
 BYTE   W96
// 001   ----------------------------------------
 BYTE   Cn3  v056
 BYTE   N96  Gn3
 BYTE   W96
// 002   ----------------------------------------
 BYTE   Ds3  v084
 BYTE   N96  Gs3
 BYTE   W96
// 003   ----------------------------------------
 BYTE   Dn3  v127
 BYTE   N96  As3
 BYTE   W96
// 004   ----------------------------------------
 BYTE   Gs2  v032
 BYTE   N96  Fn3
 BYTE   W96
// 005   ----------------------------------------
 BYTE   Cn3  v064
 BYTE   N96  Gn3
 BYTE   W96
// 006   ----------------------------------------
 BYTE   Ds3  v100
 BYTE   N96  Gs3
 BYTE   W96
// 007   ----------------------------------------
 BYTE   Dn3  v127
 BYTE   N96  As3
 BYTE   W96
// 008   ----------------------------------------
Label_3_014DC8D9:
 BYTE   W60
 BYTE   N30  As2  v072
 BYTE   N32  Gn3
 BYTE   W36
 BYTE   PEND 
// 009   ----------------------------------------
 BYTE   N28  Cn3  v092
 BYTE   N32  Gs3
 BYTE   W36
 BYTE   N30  Dn3  v108
 BYTE   N32  As3
 BYTE   W36
 BYTE   N19  Ds3  v127
 BYTE   N21  Cn4
 BYTE   W24
// 010   ----------------------------------------
 BYTE   PATT
  POIN2 Label_3_014DC8D9
// 011   ----------------------------------------
 BYTE   N28  Cn3  v092
 BYTE   N32  Gs3
 BYTE   W36
 BYTE   N30  Dn3  v112
 BYTE   N32  As3
 BYTE   W36
 BYTE   N19  Ds3  v127
 BYTE   N21  Cn4
 BYTE   W24
// 012   ----------------------------------------
 BYTE   W96
// 013   ----------------------------------------
 BYTE   W96
// 014   ----------------------------------------
 BYTE   W96
// 015   ----------------------------------------
 BYTE   W96
// 016   ----------------------------------------
 BYTE   PATT
  POIN2 Label_3_014DC8D9
// 017   ----------------------------------------
Label_3_014DC913:
 BYTE   N28  Cn3  v092
 BYTE   N32  Gs3
 BYTE   W36
 BYTE   N30  Dn3  v104
 BYTE   N32  As3
 BYTE   W36
 BYTE   N19  Ds3  v127
 BYTE   N21  Cn4
 BYTE   W24
 BYTE   PEND 
// 018   ----------------------------------------
 BYTE   W60
 BYTE   N30  As2  v076
 BYTE   N32  Gn3
 BYTE   W36
// 019   ----------------------------------------
 BYTE   PATT
  POIN2 Label_3_014DC913
// 020   ----------------------------------------
Label_3_014DC932:
 BYTE   W96
// 021   ----------------------------------------
 BYTE   W96
// 022   ----------------------------------------
 BYTE   W96
// 023   ----------------------------------------
 BYTE   W96
// 024   ----------------------------------------
Label_3_014DC936:
 BYTE   N05  Bn2  v080
 BYTE   W06
 BYTE   Cn3
 BYTE   W06
 BYTE   Dn3
 BYTE   W06
 BYTE   Bn2
 BYTE   W06
 BYTE   N42  Gn2
 BYTE   W48
 BYTE   N05  Dn3  v100
 BYTE   W06
 BYTE   Ds3
 BYTE   W06
 BYTE   Fn3
 BYTE   W06
 BYTE   Dn3
 BYTE   W06
 BYTE   PEND 
// 025   ----------------------------------------
Label_3_014DC94E:
 BYTE   N10  Bn2  v100
 BYTE   W12
 BYTE   N05  Fn3
 BYTE   W06
 BYTE   Gn3
 BYTE   W06
 BYTE   Gs3
 BYTE   W06
 BYTE   Fn3
 BYTE   W06
 BYTE   N10  Dn3
 BYTE   W12
 BYTE   N05  Bn3
 BYTE   W06
 BYTE   Cn4
 BYTE   W06
 BYTE   Dn4
 BYTE   W06
 BYTE   Bn3
 BYTE   W06
 BYTE   N21  Gn3
 BYTE   W24
 BYTE   PEND 
// 026   ----------------------------------------
Label_3_014DC96B:
 BYTE   N05  Dn3  v100
 BYTE   W06
 BYTE   Gn2
 BYTE   W06
 BYTE   Bn2
 BYTE   W06
 BYTE   Fn3
 BYTE   W06
 BYTE   Ds3
 BYTE   W06
 BYTE   Cs3
 BYTE   W06
 BYTE   Dn3
 BYTE   W06
 BYTE   As3
 BYTE   W06
 BYTE   Gs3
 BYTE   W06
 BYTE   Fs3
 BYTE   W06
 BYTE   Gn3
 BYTE   W06
 BYTE   Ds4
 BYTE   W06
 BYTE   Dn4
 BYTE   W06
 BYTE   As3
 BYTE   W06
 BYTE   Bn3
 BYTE   W06
 BYTE   Fn4
 BYTE   W06
 BYTE   PEND 
// 027   ----------------------------------------
Label_3_014DC98E:
 BYTE   N21  Gn4  v100
 BYTE   W12
 BYTE   N05  Gn3
 BYTE   W06
 BYTE   N05
 BYTE   W06
 BYTE   N21  Fn4
 BYTE   W12
 BYTE   N05  Gn3
 BYTE   W06
 BYTE   N05
 BYTE   W06
 BYTE   N21  Ds4
 BYTE   W12
 BYTE   N05  Gn3
 BYTE   W06
 BYTE   N05
 BYTE   W06
 BYTE   N21  Dn4
 BYTE   W06
 BYTE   N05  Bn3
 BYTE   W06
 BYTE   Gn3
 BYTE   W06
 BYTE   Bn3
 BYTE   W06
 BYTE   PEND 
// 028   ----------------------------------------
 BYTE   W96
// 029   ----------------------------------------
 BYTE   W96
// 030   ----------------------------------------
 BYTE   W96
// 031   ----------------------------------------
 BYTE   W96
// 032   ----------------------------------------
Label_3_014DC9B6:
 BYTE   N05  Bn2  v100
 BYTE   W06
 BYTE   Cn3
 BYTE   W06
 BYTE   Dn3
 BYTE   W06
 BYTE   Bn2
 BYTE   W06
 BYTE   N42  Gn3
 BYTE   W48
 BYTE   N05  Bn3
 BYTE   W06
 BYTE   Cn4
 BYTE   W06
 BYTE   Dn4
 BYTE   W06
 BYTE   Bn3
 BYTE   W06
 BYTE   PEND 
// 033   ----------------------------------------
Label_3_014DC9CD:
 BYTE   N10  Gn4  v100
 BYTE   W12
 BYTE   N05  Bn3
 BYTE   W06
 BYTE   Cn4
 BYTE   W06
 BYTE   Dn4
 BYTE   W06
 BYTE   Bn3
 BYTE   W06
 BYTE   N10  Fn4
 BYTE   W12
 BYTE   N05  Bn3
 BYTE   W06
 BYTE   Cn4
 BYTE   W06
 BYTE   Dn4
 BYTE   W06
 BYTE   Bn3
 BYTE   W06
 BYTE   Fn4
 BYTE   W06
 BYTE   Ds4
 BYTE   W06
 BYTE   Dn4
 BYTE   W06
 BYTE   Cn4
 BYTE   W06
 BYTE   PEND 
// 034   ----------------------------------------
Label_3_014DC9EF:
 BYTE   N05  Gn3  v100
 BYTE   W06
 BYTE   Gs3
 BYTE   W06
 BYTE   Gn3
 BYTE   W06
 BYTE   Fn3
 BYTE   W06
 BYTE   Ds3
 BYTE   W06
 BYTE   Dn3
 BYTE   W06
 BYTE   Fn3
 BYTE   W06
 BYTE   Ds3
 BYTE   W06
 BYTE   Dn3
 BYTE   W06
 BYTE   Ds3
 BYTE   W06
 BYTE   Dn3
 BYTE   W06
 BYTE   Cn3
 BYTE   W06
 BYTE   Bn2
 BYTE   W06
 BYTE   Gn2
 BYTE   W06
 BYTE   Dn3
 BYTE   W06
 BYTE   Cn3
 BYTE   W06
 BYTE   PEND 
// 035   ----------------------------------------
Label_3_014DCA12:
 BYTE   N05  Bn2  v100
 BYTE   W06
 BYTE   Cn3
 BYTE   W06
 BYTE   Bn2
 BYTE   W06
 BYTE   Gn2
 BYTE   W06
 BYTE   Gs2
 BYTE   W06
 BYTE   As2
 BYTE   W06
 BYTE   Gs2
 BYTE   W06
 BYTE   Fn2
 BYTE   W06
 BYTE   Gn2
 BYTE   W06
 BYTE   Gs2
 BYTE   W06
 BYTE   As2
 BYTE   W06
 BYTE   Cn3
 BYTE   W06
 BYTE   Cs3
 BYTE   W06
 BYTE   Dn3
 BYTE   W06
 BYTE   Ds3
 BYTE   W06
 BYTE   Fn3
 BYTE   W06
 BYTE   PEND 
// 036   ----------------------------------------
Label_3_014DCA35:
 BYTE   N10  Gn3  v100
 BYTE   W12
 BYTE   Fn3
 BYTE   W12
 BYTE   Cn3
 BYTE   W12
 BYTE   Gs2
 BYTE   W12
 BYTE   Gn2
 BYTE   W12
 BYTE   Fn2
 BYTE   W12
 BYTE   Ds3
 BYTE   W12
 BYTE   N72  Dn3
 BYTE   W12
 BYTE   PEND 
// 037   ----------------------------------------
Label_3_014DCA49:
 BYTE   W60
 BYTE   N04  Dn3  v100
 BYTE   W12
 BYTE   N10  Ds3
 BYTE   W12
 BYTE   Fn3
 BYTE   W12
 BYTE   PEND 
// 038   ----------------------------------------
Label_3_014DCA54:
 BYTE   N21  Dn3  v100
 BYTE   W24
 BYTE   N21
 BYTE   W24
 BYTE   Ds3
 BYTE   W24
 BYTE   Fn3
 BYTE   W24
 BYTE   PEND 
// 039   ----------------------------------------
Label_3_014DCA5F:
 BYTE   N21  Gn3  v100
 BYTE   W24
 BYTE   N10  Gs3
 BYTE   W12
 BYTE   Gn3
 BYTE   W12
 BYTE   Fn3
 BYTE   W12
 BYTE   Gn3
 BYTE   W12
 BYTE   Fn3
 BYTE   W12
 BYTE   N92  Ds3
 BYTE   W12
 BYTE   PEND 
// 040   ----------------------------------------
Label_3_014DCA72:
 BYTE   W84
 BYTE   N05  Dn3  v100
 BYTE   W06
 BYTE   Ds3
 BYTE   W06
 BYTE   PEND 
// 041   ----------------------------------------
Label_3_014DCA7A:
 BYTE   N21  Fn3  v100
 BYTE   W24
 BYTE   Ds3
 BYTE   W24
 BYTE   N10  Dn3
 BYTE   W12
 BYTE   Cn3
 BYTE   W12
 BYTE   Ds3
 BYTE   W12
 BYTE   TIE  Dn3
 BYTE   W12
 BYTE   PEND 
// 042   ----------------------------------------
 BYTE   W96
// 043   ----------------------------------------
 BYTE   W84
 BYTE   W02
 BYTE   EOT
 BYTE   W10
// 044   ----------------------------------------
 BYTE   W96
// 045   ----------------------------------------
 BYTE   W96
// 046   ----------------------------------------
 BYTE   W96
// 047   ----------------------------------------
 BYTE   W96
// 048   ----------------------------------------
 BYTE   PATT
  POIN2 Label_3_014DC936
// 049   ----------------------------------------
 BYTE   PATT
  POIN2 Label_3_014DC94E
// 050   ----------------------------------------
 BYTE   PATT
  POIN2 Label_3_014DC96B
// 051   ----------------------------------------
 BYTE   PATT
  POIN2 Label_3_014DC98E
// 052   ----------------------------------------
 BYTE   W96
// 053   ----------------------------------------
 BYTE   W96
// 054   ----------------------------------------
 BYTE   W96
// 055   ----------------------------------------
 BYTE   W96
// 056   ----------------------------------------
 BYTE   PATT
  POIN2 Label_3_014DC9B6
// 057   ----------------------------------------
 BYTE   PATT
  POIN2 Label_3_014DC9CD
// 058   ----------------------------------------
 BYTE   PATT
  POIN2 Label_3_014DC9EF
// 059   ----------------------------------------
 BYTE   PATT
  POIN2 Label_3_014DCA12
// 060   ----------------------------------------
 BYTE   PATT
  POIN2 Label_3_014DCA35
// 061   ----------------------------------------
 BYTE   PATT
  POIN2 Label_3_014DCA49
// 062   ----------------------------------------
 BYTE   PATT
  POIN2 Label_3_014DCA54
// 063   ----------------------------------------
 BYTE   PATT
  POIN2 Label_3_014DCA5F
// 064   ----------------------------------------
 BYTE   PATT
  POIN2 Label_3_014DCA72
// 065   ----------------------------------------
 BYTE   PATT
  POIN2 Label_3_014DCA7A
// 066   ----------------------------------------
 BYTE   W96
// 067   ----------------------------------------
 BYTE   W84
 BYTE   W02
 BYTE   EOT
 BYTE   Dn3
 BYTE   W10
// 068   ----------------------------------------
 BYTE   GoTo
  POIN2 Label_3_014DC932
 BYTE   FINE

//**************** Track 5 (Midi-Chn.4) ****************//

FFLegend2SaveTheWorldMeatOfJustice_005:
// 000   ----------------------------------------
 BYTE   KEYSH   FFLegend2SaveTheWorldMeatOfJustice_key+0
 BYTE   VOICE   46
 BYTE   PAN   c_v-34
 BYTE   VOL   64*FFLegend2SaveTheWorldMeatOfJustice_mvl/mxv
 BYTE   PAN   c_v+0
 BYTE   N03  Fn4  v060
 BYTE   W04
 BYTE   Cn4
 BYTE   W04
 BYTE   Fn3
 BYTE   W04
 BYTE   Fn4  v064
 BYTE   W04
 BYTE   Cn4
 BYTE   W04
 BYTE   Fn3
 BYTE   W04
 BYTE   Fn4
 BYTE   W04
 BYTE   Cn4  v068
 BYTE   W04
 BYTE   Fn3
 BYTE   W04
 BYTE   Fn4
 BYTE   W04
 BYTE   Cn4
 BYTE   W04
 BYTE   Fn3  v072
 BYTE   W04
 BYTE   Fn4
 BYTE   W04
 BYTE   Cn4
 BYTE   W04
 BYTE   Fn3
 BYTE   W04
 BYTE   Fn4
 BYTE   W04
 BYTE   Cn4
 BYTE   W04
 BYTE   Fn3
 BYTE   W04
 BYTE   Fn4
 BYTE   W04
 BYTE   Cn4
 BYTE   W04
 BYTE   Fn3
 BYTE   W04
 BYTE   Fn4
 BYTE   W04
 BYTE   Cn4
 BYTE   W04
 BYTE   Fn3  v076
 BYTE   W04
// 001   ----------------------------------------
 BYTE   Gn4
 BYTE   W04
 BYTE   Cn4
 BYTE   W04
 BYTE   Gn3
 BYTE   W04
 BYTE   Gn4
 BYTE   W04
 BYTE   Cn4
 BYTE   W04
 BYTE   Gn3
 BYTE   W04
 BYTE   Gn4
 BYTE   W04
 BYTE   Cn4
 BYTE   W04
 BYTE   Gn3
 BYTE   W04
 BYTE   Gn4
 BYTE   W04
 BYTE   Cn4
 BYTE   W04
 BYTE   Gn3  v080
 BYTE   W04
 BYTE   Gn4
 BYTE   W04
 BYTE   Cn4
 BYTE   W04
 BYTE   Gn3
 BYTE   W04
 BYTE   Gn4
 BYTE   W04
 BYTE   Cn4
 BYTE   W04
 BYTE   Gn3
 BYTE   W04
 BYTE   Gn4
 BYTE   W04
 BYTE   Cn4
 BYTE   W04
 BYTE   Gn3  v084
 BYTE   W04
 BYTE   Gn4  v080
 BYTE   W04
 BYTE   Cn4
 BYTE   W04
 BYTE   Gn3
 BYTE   W04
// 002   ----------------------------------------
 BYTE   Gs4  v076
 BYTE   W04
 BYTE   Cn4
 BYTE   W04
 BYTE   Gs3
 BYTE   W04
 BYTE   Gs4
 BYTE   W04
 BYTE   Cn4  v080
 BYTE   W04
 BYTE   Gs3
 BYTE   W04
 BYTE   Gs4
 BYTE   W04
 BYTE   Cn4
 BYTE   W04
 BYTE   Gs3
 BYTE   W04
 BYTE   Gs4
 BYTE   W04
 BYTE   Cn4
 BYTE   W04
 BYTE   Gs3
 BYTE   W04
 BYTE   Gs4
 BYTE   W04
 BYTE   Cn4
 BYTE   W04
 BYTE   Gs3
 BYTE   W04
 BYTE   Gs4
 BYTE   W04
 BYTE   Cn4
 BYTE   W04
 BYTE   Gs3
 BYTE   W04
 BYTE   Gs4
 BYTE   W04
 BYTE   Cn4
 BYTE   W04
 BYTE   Gs3
 BYTE   W04
 BYTE   Gs4
 BYTE   W04
 BYTE   Cn4
 BYTE   W04
 BYTE   Gs3
 BYTE   W04
// 003   ----------------------------------------
 BYTE   As4
 BYTE   W04
 BYTE   Dn4
 BYTE   W04
 BYTE   As3
 BYTE   W04
 BYTE   As4
 BYTE   W04
 BYTE   Dn4
 BYTE   W04
 BYTE   As3
 BYTE   W04
 BYTE   As4
 BYTE   W04
 BYTE   Dn4
 BYTE   W04
 BYTE   As3
 BYTE   W04
 BYTE   As4
 BYTE   W04
 BYTE   Dn4
 BYTE   W04
 BYTE   As3
 BYTE   W04
 BYTE   As4
 BYTE   W04
 BYTE   Dn4
 BYTE   W04
 BYTE   As3
 BYTE   W04
 BYTE   As4
 BYTE   W04
 BYTE   Dn4
 BYTE   W04
 BYTE   As3
 BYTE   W04
 BYTE   As4  v084
 BYTE   W04
 BYTE   Dn4
 BYTE   W04
 BYTE   As3
 BYTE   W04
 BYTE   As4
 BYTE   W04
 BYTE   Dn4  v088
 BYTE   W04
 BYTE   As3  v092
 BYTE   W04
// 004   ----------------------------------------
 BYTE   Fn4  v068
 BYTE   W04
 BYTE   Cn4  v064
 BYTE   W04
 BYTE   Fn3
 BYTE   W04
 BYTE   Fn4  v068
 BYTE   W04
 BYTE   Cn4
 BYTE   W04
 BYTE   Fn3  v072
 BYTE   W04
 BYTE   Fn4
 BYTE   W04
 BYTE   Cn4
 BYTE   W04
 BYTE   Fn3
 BYTE   W04
 BYTE   Fn4
 BYTE   W04
 BYTE   Cn4
 BYTE   W04
 BYTE   Fn3
 BYTE   W04
 BYTE   Fn4
 BYTE   W04
 BYTE   Cn4
 BYTE   W04
 BYTE   Fn3
 BYTE   W04
 BYTE   Fn4
 BYTE   W04
 BYTE   Cn4
 BYTE   W04
 BYTE   Fn3
 BYTE   W04
 BYTE   Fn4  v076
 BYTE   W04
 BYTE   Cn4
 BYTE   W04
 BYTE   Fn3
 BYTE   W04
 BYTE   Fn4
 BYTE   W04
 BYTE   Cn4
 BYTE   W04
 BYTE   Fn3
 BYTE   W04
// 005   ----------------------------------------
 BYTE   Gn4
 BYTE   W04
 BYTE   Cn4
 BYTE   W04
 BYTE   Gn3
 BYTE   W04
 BYTE   Gn4
 BYTE   W04
 BYTE   Cn4
 BYTE   W04
 BYTE   Gn3  v072
 BYTE   W04
 BYTE   Gn4
 BYTE   W04
 BYTE   Cn4
 BYTE   W04
 BYTE   Gn3
 BYTE   W04
 BYTE   Gn4  v076
 BYTE   W04
 BYTE   Cn4
 BYTE   W04
 BYTE   Gn3
 BYTE   W04
 BYTE   Gn4  v080
 BYTE   W04
 BYTE   Cn4
 BYTE   W04
 BYTE   Gn3
 BYTE   W04
 BYTE   Gn4
 BYTE   W04
 BYTE   Cn4
 BYTE   W04
 BYTE   Gn3
 BYTE   W04
 BYTE   Gn4
 BYTE   W04
 BYTE   Cn4
 BYTE   W04
 BYTE   Gn3
 BYTE   W04
 BYTE   Gn4
 BYTE   W04
 BYTE   Cn4
 BYTE   W04
 BYTE   Gn3
 BYTE   W04
// 006   ----------------------------------------
 BYTE   Gs4
 BYTE   W04
 BYTE   Cn4
 BYTE   W04
 BYTE   Gs3
 BYTE   W04
 BYTE   Gs4
 BYTE   W04
 BYTE   Cn4
 BYTE   W04
 BYTE   Gs3
 BYTE   W04
 BYTE   Gs4
 BYTE   W04
 BYTE   Cn4
 BYTE   W04
 BYTE   Gs3  v076
 BYTE   W04
 BYTE   Gs4
 BYTE   W04
 BYTE   Cn4
 BYTE   W04
 BYTE   Gs3
 BYTE   W04
 BYTE   Gs4
 BYTE   W04
 BYTE   Cn4
 BYTE   W04
 BYTE   Gs3  v080
 BYTE   W04
 BYTE   Gs4
 BYTE   W04
 BYTE   Cn4  v084
 BYTE   W04
 BYTE   Gs3
 BYTE   W04
 BYTE   Gs4
 BYTE   W04
 BYTE   Cn4
 BYTE   W04
 BYTE   Gs3
 BYTE   W04
 BYTE   Gs4  v088
 BYTE   W04
 BYTE   Cn4
 BYTE   W04
 BYTE   Gs3
 BYTE   W04
// 007   ----------------------------------------
 BYTE   As4
 BYTE   W04
 BYTE   Dn4  v084
 BYTE   W04
 BYTE   As3
 BYTE   W04
 BYTE   As4  v080
 BYTE   W04
 BYTE   Dn4
 BYTE   W04
 BYTE   As3  v084
 BYTE   W04
 BYTE   As4
 BYTE   W04
 BYTE   Dn4  v088
 BYTE   W04
 BYTE   As3
 BYTE   W04
 BYTE   As4
 BYTE   W04
 BYTE   Dn4  v092
 BYTE   W04
 BYTE   As3
 BYTE   W04
 BYTE   As4
 BYTE   W04
 BYTE   Dn4
 BYTE   W04
 BYTE   As3  v096
 BYTE   W04
 BYTE   As4
 BYTE   W04
 BYTE   Dn4
 BYTE   W04
 BYTE   As3
 BYTE   W04
 BYTE   As4  v092
 BYTE   W04
 BYTE   Dn4
 BYTE   W04
 BYTE   As3
 BYTE   W04
 BYTE   As4
 BYTE   W04
 BYTE   Dn4
 BYTE   W04
 BYTE   As3
 BYTE   W04
// 008   ----------------------------------------
 BYTE   W96
// 009   ----------------------------------------
 BYTE   W96
// 010   ----------------------------------------
 BYTE   W96
// 011   ----------------------------------------
 BYTE   W96
// 012   ----------------------------------------
Label_4_014DCC9B:
 BYTE   N10  Fn4  v072
 BYTE   W06
 BYTE   N05  Fn5
 BYTE   W06
 BYTE   N10  Cn4
 BYTE   W06
 BYTE   N05  Cn5
 BYTE   W06
 BYTE   N10  Bn3
 BYTE   W06
 BYTE   N05  Bn4
 BYTE   W06
 BYTE   N10  Fn4
 BYTE   W06
 BYTE   N05  Fn5
 BYTE   W06
 BYTE   N10  En4
 BYTE   W06
 BYTE   N05  En5
 BYTE   W06
 BYTE   N10  Bn3
 BYTE   W06
 BYTE   N05  Bn4
 BYTE   W06
 BYTE   N10  As3
 BYTE   W06
 BYTE   N05  As4
 BYTE   W06
 BYTE   N10  En4
 BYTE   W06
 BYTE   N05  En5
 BYTE   W06
 BYTE   PEND 
// 013   ----------------------------------------
 BYTE   N10  Ds4
 BYTE   W06
 BYTE   N05  Ds5
 BYTE   W06
 BYTE   N10  As3
 BYTE   W06
 BYTE   N05  As4
 BYTE   W06
 BYTE   N10  An3
 BYTE   W06
 BYTE   N05  An4
 BYTE   W06
 BYTE   N10  Ds4
 BYTE   W06
 BYTE   N05  Ds5
 BYTE   W06
 BYTE   N10  En4
 BYTE   W06
 BYTE   N05  En5
 BYTE   W06
 BYTE   N10  Bn3
 BYTE   W06
 BYTE   N05  Bn4
 BYTE   W06
 BYTE   N10  As3
 BYTE   W06
 BYTE   N05  As4
 BYTE   W06
 BYTE   N10  En4
 BYTE   W06
 BYTE   N05  En5
 BYTE   W06
// 014   ----------------------------------------
 BYTE   PATT
  POIN2 Label_4_014DCC9B
// 015   ----------------------------------------
 BYTE   N10  Ds4  v072
 BYTE   W06
 BYTE   N05  Ds5
 BYTE   W06
 BYTE   N10  As3
 BYTE   W06
 BYTE   N05  As4
 BYTE   W06
 BYTE   N10  An3
 BYTE   W06
 BYTE   N05  An4
 BYTE   W06
 BYTE   N10  Ds4
 BYTE   W06
 BYTE   N05  Ds5
 BYTE   W06
 BYTE   N10  Dn4
 BYTE   W06
 BYTE   N05  Dn5
 BYTE   W06
 BYTE   N10  An3
 BYTE   W06
 BYTE   N05  An4
 BYTE   W06
 BYTE   N10  Gs3
 BYTE   W06
 BYTE   N05  Gs4
 BYTE   W06
 BYTE   N10  Dn4
 BYTE   W06
 BYTE   N05  Dn5
 BYTE   W06
// 016   ----------------------------------------
 BYTE   W96
// 017   ----------------------------------------
 BYTE   W96
// 018   ----------------------------------------
 BYTE   W96
// 019   ----------------------------------------
 BYTE   W96
// 020   ----------------------------------------
Label_4_014DCD37:
 BYTE   VOL   46*FFLegend2SaveTheWorldMeatOfJustice_mvl/mxv
 BYTE   N10  Gs3  v092
 BYTE   W12
 BYTE   Gs4  v064
 BYTE   W12
 BYTE   Gn4  v068
 BYTE   W12
 BYTE   Gs4
 BYTE   W12
 BYTE   Cn5  v092
 BYTE   W12
 BYTE   Gs4  v068
 BYTE   W12
 BYTE   Gn4
 BYTE   W12
 BYTE   Gs4  v064
 BYTE   W12
 BYTE   PEND 
// 021   ----------------------------------------
Label_4_014DCD51:
 BYTE   N10  Gs3  v092
 BYTE   W12
 BYTE   Gs4  v068
 BYTE   W12
 BYTE   Gn4
 BYTE   W12
 BYTE   Gs4
 BYTE   W12
 BYTE   Cn5  v092
 BYTE   W12
 BYTE   Gs4  v072
 BYTE   W12
 BYTE   Gn4
 BYTE   W12
 BYTE   Gs4
 BYTE   W12
 BYTE   PEND 
// 022   ----------------------------------------
Label_4_014DCD67:
 BYTE   N10  Gs3  v092
 BYTE   W12
 BYTE   Gs4  v072
 BYTE   W12
 BYTE   Gn4  v068
 BYTE   W12
 BYTE   Gs4
 BYTE   W12
 BYTE   Cn5  v092
 BYTE   W12
 BYTE   Gs4  v072
 BYTE   W12
 BYTE   Gn4  v068
 BYTE   W12
 BYTE   Gs4
 BYTE   W12
 BYTE   PEND 
// 023   ----------------------------------------
Label_4_014DCD7F:
 BYTE   N10  Gs3  v092
 BYTE   W12
 BYTE   Gs4  v068
 BYTE   W12
 BYTE   Gn4
 BYTE   W12
 BYTE   Gs4  v064
 BYTE   W12
 BYTE   Cn5  v092
 BYTE   W12
 BYTE   Gs4  v064
 BYTE   W12
 BYTE   Gn4
 BYTE   W12
 BYTE   Gs4
 BYTE   W12
 BYTE   PEND 
// 024   ----------------------------------------
Label_4_014DCD96:
 BYTE   N10  Gn3  v092
 BYTE   W12
 BYTE   Gn4  v064
 BYTE   W12
 BYTE   Fn4  v068
 BYTE   W12
 BYTE   Gn4
 BYTE   W12
 BYTE   Bn4  v092
 BYTE   W12
 BYTE   Gn4  v068
 BYTE   W12
 BYTE   Fn4  v064
 BYTE   W12
 BYTE   Gn4
 BYTE   W12
 BYTE   PEND 
// 025   ----------------------------------------
Label_4_014DCDAE:
 BYTE   N10  Gn3  v092
 BYTE   W12
 BYTE   Gn4  v064
 BYTE   W12
 BYTE   Fn4
 BYTE   W12
 BYTE   Gn4
 BYTE   W12
 BYTE   Bn4  v092
 BYTE   W12
 BYTE   Gn4  v068
 BYTE   W12
 BYTE   Fn4
 BYTE   W12
 BYTE   Gn4
 BYTE   W12
 BYTE   PEND 
// 026   ----------------------------------------
Label_4_014DCDC4:
 BYTE   N10  Gn3  v092
 BYTE   W12
 BYTE   Gn4  v064
 BYTE   W12
 BYTE   Fn4
 BYTE   W12
 BYTE   Gn4  v068
 BYTE   W12
 BYTE   Bn4  v092
 BYTE   W12
 BYTE   Gn4  v068
 BYTE   W12
 BYTE   Fn4
 BYTE   W12
 BYTE   Gn4  v072
 BYTE   W12
 BYTE   PEND 
// 027   ----------------------------------------
Label_4_014DCDDC:
 BYTE   N10  Gn3  v092
 BYTE   W12
 BYTE   Gn4  v072
 BYTE   W12
 BYTE   Fn4  v068
 BYTE   W12
 BYTE   Gn4
 BYTE   W12
 BYTE   Bn4  v092
 BYTE   W12
 BYTE   Gn4  v072
 BYTE   W12
 BYTE   Fn4
 BYTE   W12
 BYTE   Gn4
 BYTE   W12
 BYTE   PEND 
// 028   ----------------------------------------
Label_4_014DCDF3:
 BYTE   N10  Gs3  v092
 BYTE   W12
 BYTE   Gs4  v072
 BYTE   W12
 BYTE   Gn4
 BYTE   W12
 BYTE   Gs4
 BYTE   W12
 BYTE   Cn5  v092
 BYTE   W12
 BYTE   Gs4  v072
 BYTE   W12
 BYTE   Gn4
 BYTE   W12
 BYTE   Gs4
 BYTE   W12
 BYTE   PEND 
// 029   ----------------------------------------
Label_4_014DCE09:
 BYTE   N10  Gs3  v092
 BYTE   W12
 BYTE   Gs4  v068
 BYTE   W12
 BYTE   Gn4  v072
 BYTE   W12
 BYTE   Gs4  v068
 BYTE   W12
 BYTE   Cn5  v092
 BYTE   W12
 BYTE   Gs4  v068
 BYTE   W12
 BYTE   Gn4  v072
 BYTE   W12
 BYTE   Gs4  v076
 BYTE   W12
 BYTE   PEND 
// 030   ----------------------------------------
 BYTE   PATT
  POIN2 Label_4_014DCDF3
// 031   ----------------------------------------
Label_4_014DCE28:
 BYTE   N10  Gs3  v092
 BYTE   W12
 BYTE   Gs4  v072
 BYTE   W12
 BYTE   Gn4
 BYTE   W12
 BYTE   Gs4
 BYTE   W12
 BYTE   Cn5  v092
 BYTE   W12
 BYTE   Gs4  v068
 BYTE   W12
 BYTE   Gn4
 BYTE   W12
 BYTE   Gs4
 BYTE   W12
 BYTE   PEND 
// 032   ----------------------------------------
Label_4_014DCE3E:
 BYTE   N10  Gn3  v092
 BYTE   W12
 BYTE   Gn4  v076
 BYTE   W12
 BYTE   Fn4  v072
 BYTE   W12
 BYTE   Gn4
 BYTE   W12
 BYTE   Bn4  v092
 BYTE   W12
 BYTE   Gn4  v076
 BYTE   W12
 BYTE   Fn4  v072
 BYTE   W12
 BYTE   Gn4
 BYTE   W12
 BYTE   PEND 
// 033   ----------------------------------------
Label_4_014DCE56:
 BYTE   N10  Gn3  v092
 BYTE   W12
 BYTE   Gn4  v068
 BYTE   W12
 BYTE   Fn4
 BYTE   W12
 BYTE   Gn4  v072
 BYTE   W12
 BYTE   Bn4  v092
 BYTE   W12
 BYTE   Gn4  v068
 BYTE   W12
 BYTE   Fn4  v072
 BYTE   W12
 BYTE   Gn4
 BYTE   W12
 BYTE   PEND 
// 034   ----------------------------------------
Label_4_014DCE6E:
 BYTE   N10  Gn3  v092
 BYTE   W12
 BYTE   Gn4  v068
 BYTE   W12
 BYTE   Fn4  v072
 BYTE   W12
 BYTE   Gn4
 BYTE   W12
 BYTE   Bn4  v092
 BYTE   W12
 BYTE   Gn4  v072
 BYTE   W12
 BYTE   Fn4
 BYTE   W12
 BYTE   Gn4
 BYTE   W12
 BYTE   PEND 
// 035   ----------------------------------------
Label_4_014DCE85:
 BYTE   N10  Gn3  v092
 BYTE   W12
 BYTE   Gn4  v064
 BYTE   W12
 BYTE   Fn4
 BYTE   W12
 BYTE   Gn4  v072
 BYTE   W12
 BYTE   Bn4  v092
 BYTE   W12
 BYTE   Gn4  v072
 BYTE   W12
 BYTE   Fn4  v068
 BYTE   W12
 BYTE   Gn4  v072
 BYTE   W12
 BYTE   PEND 
// 036   ----------------------------------------
Label_4_014DCE9E:
 BYTE   VOL   64*FFLegend2SaveTheWorldMeatOfJustice_mvl/mxv
 BYTE   N10  Fn3  v092
 BYTE   W12
 BYTE   Fn4  v068
 BYTE   W12
 BYTE   Fn3
 BYTE   W12
 BYTE   Fn4  v072
 BYTE   W12
 BYTE   Fn3  v092
 BYTE   W12
 BYTE   Fn4  v072
 BYTE   W12
 BYTE   Fn3  v076
 BYTE   W12
 BYTE   Fn4
 BYTE   W12
 BYTE   PEND 
// 037   ----------------------------------------
Label_4_014DCEB8:
 BYTE   N10  As3  v092
 BYTE   W12
 BYTE   As4  v072
 BYTE   W12
 BYTE   As3
 BYTE   W12
 BYTE   As4
 BYTE   W12
 BYTE   As3  v092
 BYTE   W12
 BYTE   As4  v072
 BYTE   W12
 BYTE   Gs3
 BYTE   W12
 BYTE   Gs4
 BYTE   W12
 BYTE   PEND 
// 038   ----------------------------------------
Label_4_014DCECE:
 BYTE   N10  Gn3  v092
 BYTE   W12
 BYTE   Gn4  v072
 BYTE   W12
 BYTE   Gn3
 BYTE   W12
 BYTE   Gn4
 BYTE   W12
 BYTE   Gn3  v092
 BYTE   W12
 BYTE   Gn4  v072
 BYTE   W12
 BYTE   Gn3
 BYTE   W12
 BYTE   Gn4
 BYTE   W12
 BYTE   PEND 
// 039   ----------------------------------------
Label_4_014DCEE4:
 BYTE   N10  Cn4  v092
 BYTE   W12
 BYTE   Cn5  v068
 BYTE   W12
 BYTE   As3
 BYTE   W12
 BYTE   As4
 BYTE   W12
 BYTE   Gs3  v092
 BYTE   W12
 BYTE   Gs4  v072
 BYTE   W12
 BYTE   Gn3  v068
 BYTE   W12
 BYTE   Gn4
 BYTE   W12
 BYTE   PEND 
// 040   ----------------------------------------
Label_4_014DCEFB:
 BYTE   N10  Fs3  v092
 BYTE   W12
 BYTE   Fs4  v068
 BYTE   W12
 BYTE   Fs3
 BYTE   W12
 BYTE   Fs4
 BYTE   W12
 BYTE   Fs3  v092
 BYTE   W12
 BYTE   Fs4  v068
 BYTE   W12
 BYTE   Fs3
 BYTE   W12
 BYTE   Fs4
 BYTE   W12
 BYTE   PEND 
// 041   ----------------------------------------
Label_4_014DCF11:
 BYTE   N10  Dn3  v092
 BYTE   W12
 BYTE   Dn4  v068
 BYTE   W12
 BYTE   Dn3
 BYTE   W12
 BYTE   Dn4
 BYTE   W12
 BYTE   Dn3  v092
 BYTE   W12
 BYTE   Dn4  v068
 BYTE   W12
 BYTE   Dn3
 BYTE   W12
 BYTE   Dn4
 BYTE   W12
 BYTE   PEND 
// 042   ----------------------------------------
Label_4_014DCF27:
 BYTE   N10  Gn4  v092
 BYTE   W12
 BYTE   Gn3  v068
 BYTE   W12
 BYTE   N10
 BYTE   W12
 BYTE   Fn4
 BYTE   W12
 BYTE   Gn3  v092
 BYTE   W12
 BYTE   Gn3  v068
 BYTE   W12
 BYTE   Ds4
 BYTE   W12
 BYTE   Gn3
 BYTE   W12
 BYTE   PEND 
// 043   ----------------------------------------
Label_4_014DCF3D:
 BYTE   N10  Dn4  v092
 BYTE   W12
 BYTE   Gn3  v068
 BYTE   W12
 BYTE   N10
 BYTE   W12
 BYTE   Cn4
 BYTE   W12
 BYTE   Gn3  v092
 BYTE   W12
 BYTE   Gn3  v068
 BYTE   W12
 BYTE   Bn3  v064
 BYTE   W12
 BYTE   Gn3
 BYTE   W12
 BYTE   PEND 
// 044   ----------------------------------------
 BYTE   PATT
  POIN2 Label_4_014DCD37
// 045   ----------------------------------------
 BYTE   PATT
  POIN2 Label_4_014DCD51
// 046   ----------------------------------------
 BYTE   PATT
  POIN2 Label_4_014DCD67
// 047   ----------------------------------------
 BYTE   PATT
  POIN2 Label_4_014DCD7F
// 048   ----------------------------------------
 BYTE   PATT
  POIN2 Label_4_014DCD96
// 049   ----------------------------------------
 BYTE   PATT
  POIN2 Label_4_014DCDAE
// 050   ----------------------------------------
 BYTE   PATT
  POIN2 Label_4_014DCDC4
// 051   ----------------------------------------
 BYTE   PATT
  POIN2 Label_4_014DCDDC
// 052   ----------------------------------------
 BYTE   PATT
  POIN2 Label_4_014DCDF3
// 053   ----------------------------------------
 BYTE   PATT
  POIN2 Label_4_014DCE09
// 054   ----------------------------------------
 BYTE   PATT
  POIN2 Label_4_014DCDF3
// 055   ----------------------------------------
 BYTE   PATT
  POIN2 Label_4_014DCE28
// 056   ----------------------------------------
 BYTE   PATT
  POIN2 Label_4_014DCE3E
// 057   ----------------------------------------
 BYTE   PATT
  POIN2 Label_4_014DCE56
// 058   ----------------------------------------
 BYTE   PATT
  POIN2 Label_4_014DCE6E
// 059   ----------------------------------------
 BYTE   PATT
  POIN2 Label_4_014DCE85
// 060   ----------------------------------------
 BYTE   PATT
  POIN2 Label_4_014DCE9E
// 061   ----------------------------------------
 BYTE   PATT
  POIN2 Label_4_014DCEB8
// 062   ----------------------------------------
 BYTE   PATT
  POIN2 Label_4_014DCECE
// 063   ----------------------------------------
 BYTE   PATT
  POIN2 Label_4_014DCEE4
// 064   ----------------------------------------
 BYTE   PATT
  POIN2 Label_4_014DCEFB
// 065   ----------------------------------------
 BYTE   PATT
  POIN2 Label_4_014DCF11
// 066   ----------------------------------------
 BYTE   PATT
  POIN2 Label_4_014DCF27
// 067   ----------------------------------------
 BYTE   PATT
  POIN2 Label_4_014DCF3D
// 068   ----------------------------------------
 BYTE   GoTo
  POIN2 Label_4_014DCD37
 BYTE   FINE

//**************** Track 6 (Midi-Chn.5) ****************//

FFLegend2SaveTheWorldMeatOfJustice_006:
// 000   ----------------------------------------
 BYTE   KEYSH   FFLegend2SaveTheWorldMeatOfJustice_key+0
 BYTE   VOICE   30
 BYTE   PAN   c_v+11
 BYTE   VOL   64*FFLegend2SaveTheWorldMeatOfJustice_mvl/mxv
 BYTE   PAN   c_v+0
 BYTE   N96  Fn1  v100
 BYTE   W96
// 001   ----------------------------------------
 BYTE   En1
 BYTE   W96
// 002   ----------------------------------------
 BYTE   Ds1
 BYTE   W96
// 003   ----------------------------------------
 BYTE   N64  Dn1
 BYTE   W60
 BYTE   N10  As1
 BYTE   W12
 BYTE   Fn2
 BYTE   W12
 BYTE   Dn2
 BYTE   W12
// 004   ----------------------------------------
 BYTE   N96  Fn1
 BYTE   W96
// 005   ----------------------------------------
 BYTE   En1
 BYTE   W96
// 006   ----------------------------------------
 BYTE   Ds1
 BYTE   W96
// 007   ----------------------------------------
 BYTE   N64  Dn1
 BYTE   W60
 BYTE   N10  As1  v112
 BYTE   W12
 BYTE   Fn2
 BYTE   W12
 BYTE   Dn2
 BYTE   W12
// 008   ----------------------------------------
Label_5_014DD002:
 BYTE   N10  Fn1  v112
 BYTE   W12
 BYTE   N10
 BYTE   W12
 BYTE   Gs1
 BYTE   W12
 BYTE   Gn1
 BYTE   W12
 BYTE   Fn1
 BYTE   W12
 BYTE   Bn1
 BYTE   W12
 BYTE   As1
 BYTE   W12
 BYTE   Gs1
 BYTE   W12
 BYTE   PEND 
// 009   ----------------------------------------
Label_5_014DD015:
 BYTE   N10  Fn1  v112
 BYTE   W12
 BYTE   Cn2
 BYTE   W12
 BYTE   As1
 BYTE   W12
 BYTE   Dn2
 BYTE   W12
 BYTE   Cn2
 BYTE   W12
 BYTE   Ds2
 BYTE   W12
 BYTE   Dn2
 BYTE   W12
 BYTE   Fn2
 BYTE   W12
 BYTE   PEND 
// 010   ----------------------------------------
 BYTE   PATT
  POIN2 Label_5_014DD002
// 011   ----------------------------------------
 BYTE   N10  Fn1  v112
 BYTE   W12
 BYTE   Cn2
 BYTE   W12
 BYTE   As1
 BYTE   W12
 BYTE   Dn2
 BYTE   W12
 BYTE   Cn2
 BYTE   W12
 BYTE   Ds2
 BYTE   W12
 BYTE   Dn2
 BYTE   W12
 BYTE   N22  Fn2
 BYTE   W12
// 012   ----------------------------------------
 BYTE   N01  Fn1
 BYTE   W12
 BYTE   N10  Fn2
 BYTE   W48
 BYTE   N32  Cn2
 BYTE   W36
// 013   ----------------------------------------
 BYTE   N10  Ds2
 BYTE   W12
 BYTE   N10
 BYTE   W48
 BYTE   N32  Bn1
 BYTE   W36
// 014   ----------------------------------------
 BYTE   N10  Cs2
 BYTE   W12
 BYTE   N10
 BYTE   W48
 BYTE   N32  En2
 BYTE   W36
// 015   ----------------------------------------
 BYTE   N10  Ds2
 BYTE   W12
 BYTE   N10
 BYTE   W36
 BYTE   N05  Fn1
 BYTE   W06
 BYTE   Fs1
 BYTE   W06
 BYTE   Gn1
 BYTE   W06
 BYTE   Gs1
 BYTE   W06
 BYTE   An1
 BYTE   W06
 BYTE   As1
 BYTE   W06
 BYTE   Bn1
 BYTE   W06
 BYTE   Cn2
 BYTE   W06
// 016   ----------------------------------------
 BYTE   PATT
  POIN2 Label_5_014DD002
// 017   ----------------------------------------
 BYTE   PATT
  POIN2 Label_5_014DD015
// 018   ----------------------------------------
 BYTE   PATT
  POIN2 Label_5_014DD002
// 019   ----------------------------------------
 BYTE   N10  Fn1  v112
 BYTE   W12
 BYTE   Cn2
 BYTE   W12
 BYTE   As1
 BYTE   W12
 BYTE   Dn2
 BYTE   W12
 BYTE   Cn2
 BYTE   W12
 BYTE   Ds2
 BYTE   W12
 BYTE   Dn2
 BYTE   W12
 BYTE   N12  Fn2
 BYTE   W12
// 020   ----------------------------------------
Label_5_014DD091:
 BYTE   VOL   52*FFLegend2SaveTheWorldMeatOfJustice_mvl/mxv
 BYTE   N96  Cn2  v116
 BYTE   W96
// 021   ----------------------------------------
 BYTE   N92  Fn2  v112
 BYTE   W96
// 022   ----------------------------------------
 BYTE   N96  Gn2  v120
 BYTE   W96
// 023   ----------------------------------------
 BYTE   Fn2  v116
 BYTE   W96
// 024   ----------------------------------------
 BYTE   Bn1  v100
 BYTE   W96
// 025   ----------------------------------------
 BYTE   N96
 BYTE   W96
// 026   ----------------------------------------
Label_5_014DD0A7:
 BYTE   N48  Bn1  v100
 BYTE   W48
 BYTE   N48
 BYTE   W48
 BYTE   PEND 
// 027   ----------------------------------------
 BYTE   PATT
  POIN2 Label_5_014DD0A7
// 028   ----------------------------------------
 BYTE   N96  Cn2  v100
 BYTE   W96
// 029   ----------------------------------------
 BYTE   Fn2
 BYTE   W96
// 030   ----------------------------------------
 BYTE   Gn2
 BYTE   W96
// 031   ----------------------------------------
 BYTE   Fn2
 BYTE   W96
// 032   ----------------------------------------
 BYTE   Bn1
 BYTE   W96
// 033   ----------------------------------------
 BYTE   N96
 BYTE   W96
// 034   ----------------------------------------
 BYTE   PATT
  POIN2 Label_5_014DD0A7
// 035   ----------------------------------------
Label_5_014DD0C6:
 BYTE   N24  Bn1  v100
 BYTE   W24
 BYTE   N24
 BYTE   W24
 BYTE   N24
 BYTE   W24
 BYTE   N24
 BYTE   W24
 BYTE   PEND 
// 036   ----------------------------------------
Label_5_014DD0D1:
 BYTE   VOL   64*FFLegend2SaveTheWorldMeatOfJustice_mvl/mxv
 BYTE   N19  Fn2  v100
 BYTE   W24
 BYTE   N09  Fn3
 BYTE   W12
 BYTE   N09
 BYTE   W12
 BYTE   N19  Fn2
 BYTE   W24
 BYTE   N09  Fn3
 BYTE   W12
 BYTE   N09
 BYTE   W12
 BYTE   PEND 
// 037   ----------------------------------------
Label_5_014DD0E5:
 BYTE   N19  As2  v100
 BYTE   W24
 BYTE   N09  As3
 BYTE   W12
 BYTE   N09
 BYTE   W12
 BYTE   N19  As2
 BYTE   W24
 BYTE   N09  Gs3
 BYTE   W12
 BYTE   N09
 BYTE   W12
 BYTE   PEND 
// 038   ----------------------------------------
Label_5_014DD0F7:
 BYTE   N19  Gn2  v100
 BYTE   W24
 BYTE   N09  Gn3
 BYTE   W12
 BYTE   N09
 BYTE   W12
 BYTE   N19  Gn2
 BYTE   W24
 BYTE   N09  Gn3
 BYTE   W12
 BYTE   N09
 BYTE   W12
 BYTE   PEND 
// 039   ----------------------------------------
Label_5_014DD109:
 BYTE   N19  Cn3  v100
 BYTE   W24
 BYTE   N09  As3
 BYTE   W12
 BYTE   N09
 BYTE   W12
 BYTE   N19  Gs2
 BYTE   W24
 BYTE   N09  Gn3
 BYTE   W12
 BYTE   N09
 BYTE   W12
 BYTE   PEND 
// 040   ----------------------------------------
Label_5_014DD11B:
 BYTE   N19  Fs2  v100
 BYTE   W24
 BYTE   N09  Fs3
 BYTE   W12
 BYTE   N09
 BYTE   W12
 BYTE   N19  Fs2
 BYTE   W24
 BYTE   N09  Fs3
 BYTE   W12
 BYTE   N09
 BYTE   W12
 BYTE   PEND 
// 041   ----------------------------------------
Label_5_014DD12D:
 BYTE   N19  Dn2  v100
 BYTE   W24
 BYTE   N09  Dn3
 BYTE   W12
 BYTE   N09
 BYTE   W12
 BYTE   N19  Dn2
 BYTE   W24
 BYTE   N09  Dn3
 BYTE   W12
 BYTE   N09
 BYTE   W12
 BYTE   PEND 
// 042   ----------------------------------------
Label_5_014DD13F:
 BYTE   N36  Gn2  v100
 BYTE   W48
 BYTE   Fn2
 BYTE   W48
 BYTE   PEND 
// 043   ----------------------------------------
Label_5_014DD146:
 BYTE   N36  Ds2  v100
 BYTE   W48
 BYTE   Dn2
 BYTE   W48
 BYTE   PEND 
// 044   ----------------------------------------
 BYTE   VOL   52*FFLegend2SaveTheWorldMeatOfJustice_mvl/mxv
 BYTE   N96  Cn2  v116
 BYTE   N01  Fn2  v112
 BYTE   W96
// 045   ----------------------------------------
 BYTE   N92
 BYTE   W96
// 046   ----------------------------------------
 BYTE   N96  Gn2  v120
 BYTE   W96
// 047   ----------------------------------------
 BYTE   Fn2  v116
 BYTE   W96
// 048   ----------------------------------------
 BYTE   Bn1  v100
 BYTE   W96
// 049   ----------------------------------------
 BYTE   N96
 BYTE   W96
// 050   ----------------------------------------
 BYTE   PATT
  POIN2 Label_5_014DD0A7
// 051   ----------------------------------------
 BYTE   PATT
  POIN2 Label_5_014DD0A7
// 052   ----------------------------------------
 BYTE   N96  Cn2  v100
 BYTE   W96
// 053   ----------------------------------------
 BYTE   Fn2
 BYTE   W96
// 054   ----------------------------------------
 BYTE   Gn2
 BYTE   W96
// 055   ----------------------------------------
 BYTE   Fn2
 BYTE   W96
// 056   ----------------------------------------
 BYTE   Bn1
 BYTE   W96
// 057   ----------------------------------------
 BYTE   N96
 BYTE   W96
// 058   ----------------------------------------
 BYTE   PATT
  POIN2 Label_5_014DD0A7
// 059   ----------------------------------------
 BYTE   PATT
  POIN2 Label_5_014DD0C6
// 060   ----------------------------------------
 BYTE   PATT
  POIN2 Label_5_014DD0D1
// 061   ----------------------------------------
 BYTE   PATT
  POIN2 Label_5_014DD0E5
// 062   ----------------------------------------
 BYTE   PATT
  POIN2 Label_5_014DD0F7
// 063   ----------------------------------------
 BYTE   PATT
  POIN2 Label_5_014DD109
// 064   ----------------------------------------
 BYTE   PATT
  POIN2 Label_5_014DD11B
// 065   ----------------------------------------
 BYTE   PATT
  POIN2 Label_5_014DD12D
// 066   ----------------------------------------
 BYTE   PATT
  POIN2 Label_5_014DD13F
// 067   ----------------------------------------
 BYTE   PATT
  POIN2 Label_5_014DD146
// 068   ----------------------------------------
 BYTE   GoTo
  POIN2 Label_5_014DD091
 BYTE   FINE

//**************** Track 7 (Midi-Chn.6) ****************//

FFLegend2SaveTheWorldMeatOfJustice_007:
// 000   ----------------------------------------
 BYTE   KEYSH   FFLegend2SaveTheWorldMeatOfJustice_key+0
 BYTE   VOICE   0
 BYTE   PAN   c_v+11
 BYTE   VOL   64*FFLegend2SaveTheWorldMeatOfJustice_mvl/mxv
 BYTE   PAN   c_v+0
 BYTE   N03  Fn3  v068
 BYTE   W04
 BYTE   Cn3
 BYTE   W04
 BYTE   Fn2  v072
 BYTE   W04
 BYTE   Fn3
 BYTE   W04
 BYTE   Cn3
 BYTE   W04
 BYTE   Fn2  v076
 BYTE   W04
 BYTE   Fn3
 BYTE   W04
 BYTE   Cn3
 BYTE   W04
 BYTE   Fn2
 BYTE   W04
 BYTE   Fn3
 BYTE   W04
 BYTE   Cn3
 BYTE   W04
 BYTE   Fn2
 BYTE   W04
 BYTE   Fn3  v080
 BYTE   W04
 BYTE   Cn3
 BYTE   W04
 BYTE   Fn2
 BYTE   W04
 BYTE   Fn3
 BYTE   W04
 BYTE   Cn3
 BYTE   W04
 BYTE   Fn2
 BYTE   W04
 BYTE   Fn3  v084
 BYTE   W04
 BYTE   Cn3
 BYTE   W04
 BYTE   Fn2
 BYTE   W04
 BYTE   Fn3
 BYTE   W04
 BYTE   Cn3
 BYTE   W04
 BYTE   Fn2
 BYTE   W04
// 001   ----------------------------------------
 BYTE   Gn3  v088
 BYTE   W04
 BYTE   Cn3  v092
 BYTE   W04
 BYTE   Gn2
 BYTE   W04
 BYTE   Gn3
 BYTE   W04
 BYTE   Cn3
 BYTE   W04
 BYTE   Gn2
 BYTE   W04
 BYTE   Gn3
 BYTE   W04
 BYTE   Cn3  v096
 BYTE   W04
 BYTE   Gn2
 BYTE   W04
 BYTE   Gn3
 BYTE   W04
 BYTE   Cn3
 BYTE   W04
 BYTE   Gn2  v100
 BYTE   W04
 BYTE   Gn3
 BYTE   W04
 BYTE   Cn3
 BYTE   W04
 BYTE   Gn2
 BYTE   W04
 BYTE   Gn3
 BYTE   W04
 BYTE   Cn3
 BYTE   W04
 BYTE   Gn2
 BYTE   W04
 BYTE   Gn3
 BYTE   W04
 BYTE   Cn3
 BYTE   W04
 BYTE   Gn2
 BYTE   W04
 BYTE   Gn3
 BYTE   W04
 BYTE   Cn3
 BYTE   W04
 BYTE   Gn2
 BYTE   W04
// 002   ----------------------------------------
 BYTE   Gs3
 BYTE   W04
 BYTE   Cn3
 BYTE   W04
 BYTE   Gs2
 BYTE   W04
 BYTE   Gs3
 BYTE   W04
 BYTE   Cn3
 BYTE   W04
 BYTE   Gs2  v104
 BYTE   W04
 BYTE   Gs3
 BYTE   W04
 BYTE   Cn3
 BYTE   W04
 BYTE   Gs2
 BYTE   W04
 BYTE   Gs3
 BYTE   W04
 BYTE   Cn3  v108
 BYTE   W04
 BYTE   Gs2
 BYTE   W04
 BYTE   Gs3
 BYTE   W04
 BYTE   Cn3
 BYTE   W04
 BYTE   Gs2
 BYTE   W04
 BYTE   Gs3  v112
 BYTE   W04
 BYTE   Cn3
 BYTE   W04
 BYTE   Gs2
 BYTE   W04
 BYTE   Gs3
 BYTE   W04
 BYTE   Cn3
 BYTE   W04
 BYTE   Gs2
 BYTE   W04
 BYTE   Gs3
 BYTE   W04
 BYTE   Cn3
 BYTE   W04
 BYTE   Gs2
 BYTE   W04
// 003   ----------------------------------------
 BYTE   As3  v108
 BYTE   W04
 BYTE   Dn3
 BYTE   W04
 BYTE   As2
 BYTE   W04
 BYTE   As3
 BYTE   W04
 BYTE   Dn3
 BYTE   W04
 BYTE   As2
 BYTE   W04
 BYTE   As3
 BYTE   W04
 BYTE   Dn3  v112
 BYTE   W04
 BYTE   As2
 BYTE   W04
 BYTE   As3
 BYTE   W04
 BYTE   Dn3  v116
 BYTE   W04
 BYTE   As2
 BYTE   W04
 BYTE   As3
 BYTE   W04
 BYTE   Dn3
 BYTE   W04
 BYTE   As2  v120
 BYTE   W04
 BYTE   As3
 BYTE   W04
 BYTE   Dn3
 BYTE   W04
 BYTE   As2
 BYTE   W04
 BYTE   As3
 BYTE   W04
 BYTE   Dn3
 BYTE   W04
 BYTE   As2  v124
 BYTE   W04
 BYTE   As3
 BYTE   W04
 BYTE   Dn3
 BYTE   W04
 BYTE   As2
 BYTE   W04
// 004   ----------------------------------------
 BYTE   Fn3  v080
 BYTE   W04
 BYTE   Cn3
 BYTE   W04
 BYTE   Fn2  v084
 BYTE   W04
 BYTE   Fn3
 BYTE   W04
 BYTE   Cn3
 BYTE   W04
 BYTE   Fn2
 BYTE   W04
 BYTE   Fn3
 BYTE   W04
 BYTE   Cn3
 BYTE   W04
 BYTE   Fn2
 BYTE   W04
 BYTE   Fn3
 BYTE   W04
 BYTE   Cn3
 BYTE   W04
 BYTE   Fn2
 BYTE   W04
 BYTE   Fn3
 BYTE   W04
 BYTE   Cn3
 BYTE   W04
 BYTE   Fn2
 BYTE   W04
 BYTE   Fn3
 BYTE   W04
 BYTE   Cn3
 BYTE   W04
 BYTE   Fn2
 BYTE   W04
 BYTE   Fn3
 BYTE   W04
 BYTE   Cn3
 BYTE   W04
 BYTE   Fn2
 BYTE   W04
 BYTE   Fn3
 BYTE   W04
 BYTE   Cn3  v088
 BYTE   W04
 BYTE   Fn2
 BYTE   W04
// 005   ----------------------------------------
 BYTE   Gn3  v092
 BYTE   W04
 BYTE   Cn3
 BYTE   W04
 BYTE   Gn2
 BYTE   W04
 BYTE   Gn3
 BYTE   W04
 BYTE   Cn3
 BYTE   W04
 BYTE   Gn2
 BYTE   W04
 BYTE   Gn3
 BYTE   W04
 BYTE   Cn3  v096
 BYTE   W04
 BYTE   Gn2
 BYTE   W04
 BYTE   Gn3
 BYTE   W04
 BYTE   Cn3
 BYTE   W04
 BYTE   Gn2
 BYTE   W04
 BYTE   Gn3
 BYTE   W04
 BYTE   Cn3
 BYTE   W04
 BYTE   Gn2  v100
 BYTE   W04
 BYTE   Gn3
 BYTE   W04
 BYTE   Cn3
 BYTE   W04
 BYTE   Gn2
 BYTE   W04
 BYTE   Gn3  v104
 BYTE   W04
 BYTE   Cn3
 BYTE   W04
 BYTE   Gn2
 BYTE   W04
 BYTE   Gn3  v100
 BYTE   W04
 BYTE   Cn3
 BYTE   W04
 BYTE   Gn2
 BYTE   W04
// 006   ----------------------------------------
 BYTE   Gs3
 BYTE   W04
 BYTE   Cn3
 BYTE   W04
 BYTE   Gs2
 BYTE   W04
 BYTE   Gs3
 BYTE   W04
 BYTE   Cn3  v104
 BYTE   W04
 BYTE   Gs2
 BYTE   W04
 BYTE   Gs3
 BYTE   W04
 BYTE   Cn3
 BYTE   W04
 BYTE   Gs2
 BYTE   W04
 BYTE   Gs3
 BYTE   W04
 BYTE   Cn3
 BYTE   W04
 BYTE   Gs2
 BYTE   W04
 BYTE   Gs3  v108
 BYTE   W04
 BYTE   Cn3
 BYTE   W04
 BYTE   Gs2
 BYTE   W04
 BYTE   Gs3
 BYTE   W04
 BYTE   Cn3
 BYTE   W04
 BYTE   Gs2
 BYTE   W04
 BYTE   Gs3
 BYTE   W04
 BYTE   Cn3
 BYTE   W04
 BYTE   Gs2
 BYTE   W04
 BYTE   Gs3
 BYTE   W04
 BYTE   Cn3
 BYTE   W04
 BYTE   Gs2
 BYTE   W04
// 007   ----------------------------------------
 BYTE   As3
 BYTE   W04
 BYTE   Dn3  v112
 BYTE   W04
 BYTE   As2
 BYTE   W04
 BYTE   As3
 BYTE   W04
 BYTE   Dn3
 BYTE   W04
 BYTE   As2  v116
 BYTE   W04
 BYTE   As3
 BYTE   W04
 BYTE   Dn3
 BYTE   W04
 BYTE   As2
 BYTE   W04
 BYTE   As3
 BYTE   W04
 BYTE   Dn3
 BYTE   W04
 BYTE   As2
 BYTE   W04
 BYTE   As3
 BYTE   W04
 BYTE   Dn3
 BYTE   W04
 BYTE   As2
 BYTE   W04
 BYTE   As3
 BYTE   W04
 BYTE   Dn3  v120
 BYTE   W04
 BYTE   As2
 BYTE   W04
 BYTE   As3
 BYTE   W04
 BYTE   Dn3  v124
 BYTE   W04
 BYTE   As2
 BYTE   W04
 BYTE   As3
 BYTE   W04
 BYTE   Dn3
 BYTE   W04
 BYTE   As2
 BYTE   W04
// 008   ----------------------------------------
Label_6_014DD35E:
 BYTE   N09  Cn3  v100
 BYTE   N10  Fn3
 BYTE   W12
 BYTE   N09  Cn3
 BYTE   N10  Fn3
 BYTE   W48
 BYTE   N28  As2
 BYTE   N28  Gn3
 BYTE   W36
 BYTE   PEND 
// 009   ----------------------------------------
Label_6_014DD36F:
 BYTE   N28  Cn3  v100
 BYTE   N32  Gs3
 BYTE   W36
 BYTE   N28  Dn3
 BYTE   N28  As3
 BYTE   W36
 BYTE   N19  Ds3
 BYTE   N21  Cn4
 BYTE   W24
 BYTE   PEND 
// 010   ----------------------------------------
Label_6_014DD380:
 BYTE   N09  Cn4  v100
 BYTE   N10  Fn4
 BYTE   W12
 BYTE   N09  Cn4
 BYTE   N10  Fn4
 BYTE   W48
 BYTE   N28  As3
 BYTE   N28  Gn4
 BYTE   W36
 BYTE   PEND 
// 011   ----------------------------------------
Label_6_014DD391:
 BYTE   N28  Cn4  v100
 BYTE   N32  Gs4
 BYTE   W36
 BYTE   N28  Dn4
 BYTE   N28  As4
 BYTE   W36
 BYTE   N19  Ds4
 BYTE   N21  Cn5
 BYTE   W24
 BYTE   PEND 
// 012   ----------------------------------------
Label_6_014DD3A2:
 BYTE   N10  Fn3  v072
 BYTE   W06
 BYTE   N05  Fn4
 BYTE   W06
 BYTE   N10  Cn3
 BYTE   W06
 BYTE   N05  Cn4
 BYTE   W06
 BYTE   N10  Bn2
 BYTE   W06
 BYTE   N05  Bn3
 BYTE   W06
 BYTE   N10  Fn3
 BYTE   W06
 BYTE   N05  Fn4
 BYTE   W06
 BYTE   N10  En3
 BYTE   W06
 BYTE   N05  En4
 BYTE   W06
 BYTE   N10  Bn2
 BYTE   W06
 BYTE   N05  Bn3
 BYTE   W06
 BYTE   N10  As2
 BYTE   W06
 BYTE   N05  As3
 BYTE   W06
 BYTE   N10  En3
 BYTE   W06
 BYTE   N05  En4
 BYTE   W06
 BYTE   PEND 
// 013   ----------------------------------------
 BYTE   N10  Ds3
 BYTE   W06
 BYTE   N05  Ds4
 BYTE   W06
 BYTE   N10  As2
 BYTE   W06
 BYTE   N05  As3
 BYTE   W06
 BYTE   N10  An2
 BYTE   W06
 BYTE   N05  An3
 BYTE   W06
 BYTE   N10  Ds3
 BYTE   W06
 BYTE   N05  Ds4
 BYTE   W06
 BYTE   N10  En3
 BYTE   W06
 BYTE   N05  En4
 BYTE   W06
 BYTE   N10  Bn2
 BYTE   W06
 BYTE   N05  Bn3
 BYTE   W06
 BYTE   N10  As2
 BYTE   W06
 BYTE   N05  As3
 BYTE   W06
 BYTE   N10  En3
 BYTE   W06
 BYTE   N05  En4
 BYTE   W06
// 014   ----------------------------------------
 BYTE   PATT
  POIN2 Label_6_014DD3A2
// 015   ----------------------------------------
 BYTE   N10  Ds3  v072
 BYTE   W06
 BYTE   N05  Ds4
 BYTE   W06
 BYTE   N10  As2
 BYTE   W06
 BYTE   N05  As3
 BYTE   W06
 BYTE   N10  An2
 BYTE   W06
 BYTE   N05  An3
 BYTE   W06
 BYTE   N10  Ds3
 BYTE   W06
 BYTE   N05  Ds4
 BYTE   W06
 BYTE   N10  Dn3
 BYTE   W06
 BYTE   N05  Dn4
 BYTE   W06
 BYTE   N10  An2
 BYTE   W06
 BYTE   N05  An3
 BYTE   W06
 BYTE   N10  Gs2
 BYTE   W06
 BYTE   N05  Gs3
 BYTE   W06
 BYTE   N10  Dn3
 BYTE   W06
 BYTE   N05  Dn4
 BYTE   W06
// 016   ----------------------------------------
 BYTE   PATT
  POIN2 Label_6_014DD35E
// 017   ----------------------------------------
 BYTE   PATT
  POIN2 Label_6_014DD36F
// 018   ----------------------------------------
 BYTE   PATT
  POIN2 Label_6_014DD380
// 019   ----------------------------------------
 BYTE   PATT
  POIN2 Label_6_014DD391
// 020   ----------------------------------------
Label_6_014DD44E:
 BYTE   VOL   58*FFLegend2SaveTheWorldMeatOfJustice_mvl/mxv
 BYTE   N24  Gs2  v100
 BYTE   N24  Cn3  v072
 BYTE   W24
 BYTE   Cn3  v100
 BYTE   N24  Ds3
 BYTE   W24
 BYTE   As2
 BYTE   N24  Dn3  v072
 BYTE   W24
 BYTE   Gs2  v100
 BYTE   N24  Cn3  v072
 BYTE   W24
 BYTE   PEND 
// 021   ----------------------------------------
Label_6_014DD468:
 BYTE   N24  Dn3  v100
 BYTE   N24  Fn3  v072
 BYTE   W24
 BYTE   N09  Cn3  v100
 BYTE   N09  Ds3
 BYTE   W12
 BYTE   N24  As2
 BYTE   N24  Dn3
 BYTE   W24
 BYTE   N09  As2
 BYTE   N10  Dn3  v072
 BYTE   W12
 BYTE   N24  Gs2  v100
 BYTE   N24  Cn3  v072
 BYTE   W24
 BYTE   PEND 
// 022   ----------------------------------------
Label_6_014DD488:
 BYTE   N24  Ds3  v100
 BYTE   N24  Gn3  v072
 BYTE   W24
 BYTE   Dn3  v100
 BYTE   N24  Fn3  v072
 BYTE   W24
 BYTE   Cn3  v100
 BYTE   N24  Ds3
 BYTE   W24
 BYTE   As2
 BYTE   N24  Dn3  v072
 BYTE   W24
 BYTE   PEND 
// 023   ----------------------------------------
 BYTE   PATT
  POIN2 Label_6_014DD468
// 024   ----------------------------------------
Label_6_014DD4A5:
 BYTE   N04  Gn2  v100
 BYTE   N05  Bn2  v072
 BYTE   W06
 BYTE   Cn3
 BYTE   W06
 BYTE   Dn3
 BYTE   W06
 BYTE   Bn2
 BYTE   W06
 BYTE   N36  Ds2  v100
 BYTE   N36  Gn2
 BYTE   W48
 BYTE   N04  Gn3
 BYTE   N05  Bn3  v072
 BYTE   W06
 BYTE   Cn4
 BYTE   W06
 BYTE   Dn4
 BYTE   W06
 BYTE   Bn3
 BYTE   W06
 BYTE   PEND 
// 025   ----------------------------------------
Label_6_014DD4C5:
 BYTE   N36  Ds3  v100
 BYTE   N36  Gn3
 BYTE   W48
 BYTE   N04  Gn4
 BYTE   N05  Bn4  v072
 BYTE   W06
 BYTE   Cn5
 BYTE   W06
 BYTE   Dn5
 BYTE   W06
 BYTE   Bn4
 BYTE   W06
 BYTE   N42  Ds4  v100
 BYTE   N42  Gn4
 BYTE   W24
 BYTE   PEND 
// 026   ----------------------------------------
 BYTE   W96
// 027   ----------------------------------------
 BYTE   W96
// 028   ----------------------------------------
Label_6_014DD4E0:
 BYTE   N24  Gs3  v100
 BYTE   N24  Cn4  v072
 BYTE   W24
 BYTE   Cn4  v100
 BYTE   N24  Ds4
 BYTE   W24
 BYTE   As3
 BYTE   N24  Dn4  v072
 BYTE   W24
 BYTE   Gs3  v100
 BYTE   N24  Cn4  v072
 BYTE   W24
 BYTE   PEND 
// 029   ----------------------------------------
Label_6_014DD4F8:
 BYTE   N24  Dn4  v100
 BYTE   N24  Fn4  v072
 BYTE   W24
 BYTE   N09  Cn4  v100
 BYTE   N09  Ds4
 BYTE   W12
 BYTE   N24  As3
 BYTE   N24  Dn4
 BYTE   W24
 BYTE   N09  As3
 BYTE   N10  Dn4  v072
 BYTE   W12
 BYTE   N24  Gs3  v100
 BYTE   N24  Cn4  v072
 BYTE   W24
 BYTE   PEND 
// 030   ----------------------------------------
Label_6_014DD518:
 BYTE   N24  Ds4  v100
 BYTE   N24  Gn4  v072
 BYTE   W24
 BYTE   Dn4  v100
 BYTE   N24  Fn4  v072
 BYTE   W24
 BYTE   Cn4  v100
 BYTE   N24  Ds4
 BYTE   W24
 BYTE   As3
 BYTE   N24  Dn4  v072
 BYTE   W24
 BYTE   PEND 
// 031   ----------------------------------------
 BYTE   PATT
  POIN2 Label_6_014DD4F8
// 032   ----------------------------------------
Label_6_014DD535:
 BYTE   N04  Gn4  v100
 BYTE   N05  Bn4  v072
 BYTE   W06
 BYTE   Cn5
 BYTE   W06
 BYTE   Dn5
 BYTE   W06
 BYTE   Bn4
 BYTE   W06
 BYTE   N36  Ds5  v100
 BYTE   N36  Gn5
 BYTE   W48
 BYTE   N04  Gn3
 BYTE   N05  Bn3  v072
 BYTE   W06
 BYTE   Cn4
 BYTE   W06
 BYTE   Dn4
 BYTE   W06
 BYTE   Bn3
 BYTE   W06
 BYTE   PEND 
// 033   ----------------------------------------
Label_6_014DD555:
 BYTE   N36  Ds4  v100
 BYTE   N36  Gn4
 BYTE   W48
 BYTE   N04  Gn2
 BYTE   N05  Bn2  v072
 BYTE   W06
 BYTE   Cn3
 BYTE   W06
 BYTE   Dn3
 BYTE   W06
 BYTE   Bn2
 BYTE   W06
 BYTE   N42  Ds3  v100
 BYTE   N42  Gn3
 BYTE   W24
 BYTE   PEND 
// 034   ----------------------------------------
 BYTE   W96
// 035   ----------------------------------------
 BYTE   W96
// 036   ----------------------------------------
Label_6_014DD570:
 BYTE   VOL   71*FFLegend2SaveTheWorldMeatOfJustice_mvl/mxv
 BYTE   N09  Ds4  v100
 BYTE   N10  Gn4
 BYTE   W12
 BYTE   N09  Dn4
 BYTE   N10  Fn4
 BYTE   W12
 BYTE   N09  An3
 BYTE   N10  Cn4
 BYTE   W12
 BYTE   N09  Fn3
 BYTE   N09  Gs3
 BYTE   W12
 BYTE   Ds3
 BYTE   N10  Gn3
 BYTE   W12
 BYTE   N09  Dn3
 BYTE   N10  Fn3
 BYTE   W12
 BYTE   N09  Cn4
 BYTE   N09  Ds4
 BYTE   W12
 BYTE   N68  As3
 BYTE   N72  Dn4
 BYTE   W12
 BYTE   PEND 
// 037   ----------------------------------------
Label_6_014DD59B:
 BYTE   W60
 BYTE   N09  As3  v100
 BYTE   N04  Dn4
 BYTE   W12
 BYTE   N09  Cn4
 BYTE   N09  Ds4
 BYTE   W12
 BYTE   Dn4
 BYTE   N10  Fn4
 BYTE   W12
 BYTE   PEND 
// 038   ----------------------------------------
Label_6_014DD5AC:
 BYTE   N19  As3  v100
 BYTE   N21  Dn4
 BYTE   W24
 BYTE   N19  As3
 BYTE   N21  Dn4
 BYTE   W24
 BYTE   N19  Cn4
 BYTE   N19  Ds4
 BYTE   W24
 BYTE   Dn4
 BYTE   N21  Fn4
 BYTE   W24
 BYTE   PEND 
// 039   ----------------------------------------
Label_6_014DD5C1:
 BYTE   N19  Ds4  v100
 BYTE   N21  Gn4
 BYTE   W24
 BYTE   N09  Fn4
 BYTE   N09  Gs4
 BYTE   W12
 BYTE   Ds4
 BYTE   N10  Gn4
 BYTE   W12
 BYTE   N09  Dn4
 BYTE   N10  Fn4
 BYTE   W12
 BYTE   N09  Ds4
 BYTE   N10  Gn4
 BYTE   W12
 BYTE   N09  Dn4
 BYTE   N10  Fn4
 BYTE   W12
 BYTE   N78  Cn4
 BYTE   N78  Ds4
 BYTE   W12
 BYTE   PEND 
// 040   ----------------------------------------
Label_6_014DD5E5:
 BYTE   W84
 BYTE   N05  Dn4  v100
 BYTE   W06
 BYTE   N04  Ds4
 BYTE   W06
 BYTE   PEND 
// 041   ----------------------------------------
Label_6_014DD5EE:
 BYTE   N19  Dn4  v100
 BYTE   N21  Fn4
 BYTE   W24
 BYTE   N19  Cn4
 BYTE   N19  Ds4
 BYTE   W24
 BYTE   N09  As3
 BYTE   N10  Dn4
 BYTE   W12
 BYTE   N09  Gs3
 BYTE   N10  Cn4
 BYTE   W12
 BYTE   N09
 BYTE   N09  Ds4
 BYTE   W12
 BYTE   N12  As3
 BYTE   N12  Dn4
 BYTE   W12
 BYTE   PEND 
// 042   ----------------------------------------
Label_6_014DD60D:
 BYTE   N09  Ds5  v100
 BYTE   N09  Gn5
 BYTE   W12
 BYTE   Gn4
 BYTE   W12
 BYTE   N09
 BYTE   W12
 BYTE   Dn5
 BYTE   N09  Fn5
 BYTE   W12
 BYTE   Gn4
 BYTE   W12
 BYTE   N09
 BYTE   W12
 BYTE   Cn5
 BYTE   N09  Ds5
 BYTE   W12
 BYTE   Gn4
 BYTE   W12
 BYTE   PEND 
// 043   ----------------------------------------
Label_6_014DD626:
 BYTE   N09  Bn4  v100
 BYTE   N09  Dn5
 BYTE   W12
 BYTE   Gn4
 BYTE   W12
 BYTE   N09
 BYTE   W12
 BYTE   Gs4
 BYTE   N09  Cn5
 BYTE   W12
 BYTE   Gn4
 BYTE   W12
 BYTE   N09
 BYTE   W12
 BYTE   N09
 BYTE   N09  Bn4
 BYTE   W12
 BYTE   Gn4
 BYTE   W12
 BYTE   PEND 
// 044   ----------------------------------------
 BYTE   PATT
  POIN2 Label_6_014DD44E
// 045   ----------------------------------------
 BYTE   PATT
  POIN2 Label_6_014DD468
// 046   ----------------------------------------
 BYTE   PATT
  POIN2 Label_6_014DD488
// 047   ----------------------------------------
 BYTE   PATT
  POIN2 Label_6_014DD468
// 048   ----------------------------------------
 BYTE   PATT
  POIN2 Label_6_014DD4A5
// 049   ----------------------------------------
 BYTE   PATT
  POIN2 Label_6_014DD4C5
// 050   ----------------------------------------
 BYTE   W96
// 051   ----------------------------------------
 BYTE   W96
// 052   ----------------------------------------
 BYTE   PATT
  POIN2 Label_6_014DD4E0
// 053   ----------------------------------------
 BYTE   PATT
  POIN2 Label_6_014DD4F8
// 054   ----------------------------------------
 BYTE   PATT
  POIN2 Label_6_014DD518
// 055   ----------------------------------------
 BYTE   PATT
  POIN2 Label_6_014DD4F8
// 056   ----------------------------------------
 BYTE   PATT
  POIN2 Label_6_014DD535
// 057   ----------------------------------------
 BYTE   PATT
  POIN2 Label_6_014DD555
// 058   ----------------------------------------
 BYTE   W96
// 059   ----------------------------------------
 BYTE   W96
// 060   ----------------------------------------
 BYTE   PATT
  POIN2 Label_6_014DD570
// 061   ----------------------------------------
 BYTE   PATT
  POIN2 Label_6_014DD59B
// 062   ----------------------------------------
 BYTE   PATT
  POIN2 Label_6_014DD5AC
// 063   ----------------------------------------
 BYTE   PATT
  POIN2 Label_6_014DD5C1
// 064   ----------------------------------------
 BYTE   PATT
  POIN2 Label_6_014DD5E5
// 065   ----------------------------------------
 BYTE   PATT
  POIN2 Label_6_014DD5EE
// 066   ----------------------------------------
 BYTE   PATT
  POIN2 Label_6_014DD60D
// 067   ----------------------------------------
 BYTE   PATT
  POIN2 Label_6_014DD626
// 068   ----------------------------------------
 BYTE   GoTo
  POIN2 Label_6_014DD44E
 BYTE   FINE

//**************** Track 8 (Midi-Chn.7) ****************//

FFLegend2SaveTheWorldMeatOfJustice_008:
// 000   ----------------------------------------
 BYTE   KEYSH   FFLegend2SaveTheWorldMeatOfJustice_key+0
 BYTE   VOICE   109
 BYTE   PAN   c_v-34
 BYTE   VOL   64*FFLegend2SaveTheWorldMeatOfJustice_mvl/mxv
 BYTE   PAN   c_v+0
 BYTE   N96  Fn2  v100
 BYTE   W96
// 001   ----------------------------------------
 BYTE   En2
 BYTE   W96
// 002   ----------------------------------------
 BYTE   Ds2
 BYTE   W96
// 003   ----------------------------------------
Label_7_54BEC6:
 BYTE   N60  Dn2  v100
 BYTE   W60
 BYTE   N12  As2
 BYTE   W12
 BYTE   Fn3
 BYTE   W12
 BYTE   Dn3
 BYTE   W12
 BYTE   PEND 
// 004   ----------------------------------------
 BYTE   N96  Fn2
 BYTE   W96
// 005   ----------------------------------------
 BYTE   En2
 BYTE   W96
// 006   ----------------------------------------
 BYTE   Ds2
 BYTE   W96
// 007   ----------------------------------------
 BYTE   PATT
  POIN2 Label_7_54BEC6
// 008   ----------------------------------------
Label_7_54BEDE:
 BYTE   N12  Fn2  v100
 BYTE   W12
 BYTE   N12
 BYTE   W12
 BYTE   Gs2
 BYTE   W12
 BYTE   Gn2
 BYTE   W12
 BYTE   Fn2
 BYTE   W12
 BYTE   Bn2
 BYTE   W12
 BYTE   As2
 BYTE   W12
 BYTE   Gs2
 BYTE   W12
 BYTE   PEND 
// 009   ----------------------------------------
Label_7_54BEF1:
 BYTE   N12  Fn2  v100
 BYTE   W12
 BYTE   Cn3
 BYTE   W12
 BYTE   As2
 BYTE   W12
 BYTE   Dn3
 BYTE   W12
 BYTE   Cn3
 BYTE   W12
 BYTE   Ds3
 BYTE   W12
 BYTE   Dn3
 BYTE   W12
 BYTE   Fn3
 BYTE   W12
 BYTE   PEND 
// 010   ----------------------------------------
 BYTE   W96
// 011   ----------------------------------------
 BYTE   W96
// 012   ----------------------------------------
 BYTE   N36  Fn2
 BYTE   W48
 BYTE   Cn2
 BYTE   W48
// 013   ----------------------------------------
 BYTE   Ds2
 BYTE   W48
 BYTE   Bn1
 BYTE   W48
// 014   ----------------------------------------
 BYTE   Cs2
 BYTE   W48
 BYTE   En2
 BYTE   W48
// 015   ----------------------------------------
 BYTE   N76  Ds2
 BYTE   W96
// 016   ----------------------------------------
 BYTE   PATT
  POIN2 Label_7_54BEDE
// 017   ----------------------------------------
 BYTE   PATT
  POIN2 Label_7_54BEF1
// 018   ----------------------------------------
 BYTE   W96
// 019   ----------------------------------------
 BYTE   W96
// 020   ----------------------------------------
Label_7_54BF22:
 BYTE   TIE  Gs2  v100
 BYTE   W96
// 021   ----------------------------------------
 BYTE   W96
// 022   ----------------------------------------
 BYTE   EOT
 BYTE   N96  Gn2
 BYTE   W96
// 023   ----------------------------------------
 BYTE   Fn2
 BYTE   W96
// 024   ----------------------------------------
 BYTE   TIE  Bn1
 BYTE   W96
// 025   ----------------------------------------
 BYTE   W96
// 026   ----------------------------------------
 BYTE   EOT
 BYTE   N76
 BYTE   W96
// 027   ----------------------------------------
 BYTE   N76
 BYTE   W96
// 028   ----------------------------------------
 BYTE   TIE  Gs2
 BYTE   W96
// 029   ----------------------------------------
 BYTE   W96
// 030   ----------------------------------------
 BYTE   EOT
 BYTE   N96  Gn2
 BYTE   W96
// 031   ----------------------------------------
 BYTE   Fn2
 BYTE   W96
// 032   ----------------------------------------
 BYTE   TIE  Bn1
 BYTE   W96
// 033   ----------------------------------------
 BYTE   W96
// 034   ----------------------------------------
 BYTE   EOT
 BYTE   N96
 BYTE   W96
// 035   ----------------------------------------
 BYTE   N96
 BYTE   W96
// 036   ----------------------------------------
Label_7_54BF49:
 BYTE   N72  Fn2  v100
 BYTE   W72
 BYTE   N24
 BYTE   W24
 BYTE   PEND 
// 037   ----------------------------------------
Label_7_54BF50:
 BYTE   N72  As2  v100
 BYTE   W72
 BYTE   N24  Gs2
 BYTE   W24
 BYTE   PEND 
// 038   ----------------------------------------
Label_7_54BF58:
 BYTE   N72  Gn2  v100
 BYTE   W72
 BYTE   N24
 BYTE   W24
 BYTE   PEND 
// 039   ----------------------------------------
Label_7_54BF5F:
 BYTE   N48  Gn2  v100
 BYTE   W48
 BYTE   Fn2
 BYTE   W48
 BYTE   PEND 
// 040   ----------------------------------------
Label_7_54BF66:
 BYTE   N48  Ds2  v100
 BYTE   W48
 BYTE   Dn2
 BYTE   W48
 BYTE   PEND 
// 041   ----------------------------------------
Label_7_54BF6D:
 BYTE   N72  Dn2  v100
 BYTE   W72
 BYTE   N24  Dn3
 BYTE   W24
 BYTE   PEND 
// 042   ----------------------------------------
 BYTE   PATT
  POIN2 Label_7_54BF5F
// 043   ----------------------------------------
 BYTE   PATT
  POIN2 Label_7_54BF66
// 044   ----------------------------------------
 BYTE   TIE  Gs2  v100
 BYTE   W96
// 045   ----------------------------------------
 BYTE   W96
// 046   ----------------------------------------
 BYTE   EOT
 BYTE   N96  Gn2
 BYTE   W96
// 047   ----------------------------------------
 BYTE   Fn2
 BYTE   W96
// 048   ----------------------------------------
 BYTE   TIE  Bn1
 BYTE   W96
// 049   ----------------------------------------
 BYTE   W96
// 050   ----------------------------------------
 BYTE   EOT
 BYTE   N76
 BYTE   W96
// 051   ----------------------------------------
 BYTE   N76
 BYTE   W96
// 052   ----------------------------------------
 BYTE   TIE  Gs2
 BYTE   W96
// 053   ----------------------------------------
 BYTE   W96
// 054   ----------------------------------------
 BYTE   EOT
 BYTE   N96  Gn2
 BYTE   W96
// 055   ----------------------------------------
 BYTE   Fn2
 BYTE   W96
// 056   ----------------------------------------
 BYTE   TIE  Bn1
 BYTE   W96
// 057   ----------------------------------------
 BYTE   W96
// 058   ----------------------------------------
 BYTE   EOT
 BYTE   N96
 BYTE   W96
// 059   ----------------------------------------
 BYTE   N96
 BYTE   W96
// 060   ----------------------------------------
 BYTE   PATT
  POIN2 Label_7_54BF49
// 061   ----------------------------------------
 BYTE   PATT
  POIN2 Label_7_54BF50
// 062   ----------------------------------------
 BYTE   PATT
  POIN2 Label_7_54BF58
// 063   ----------------------------------------
 BYTE   PATT
  POIN2 Label_7_54BF5F
// 064   ----------------------------------------
 BYTE   PATT
  POIN2 Label_7_54BF66
// 065   ----------------------------------------
 BYTE   PATT
  POIN2 Label_7_54BF6D
// 066   ----------------------------------------
 BYTE   PATT
  POIN2 Label_7_54BF5F
// 067   ----------------------------------------
 BYTE   N48  Ds2  v100
 BYTE   W96
// 068   ----------------------------------------
 BYTE   GoTo
  POIN2 Label_7_54BF22
 BYTE   FINE

//**************** Track 9 (Midi-Chn.8) ****************//

FFLegend2SaveTheWorldMeatOfJustice_009:
// 000   ----------------------------------------
 BYTE   KEYSH   FFLegend2SaveTheWorldMeatOfJustice_key+0
 BYTE   VOICE   47
 BYTE   VOL   64*FFLegend2SaveTheWorldMeatOfJustice_mvl/mxv
 BYTE   PAN   c_v+0
 BYTE   W96
// 001   ----------------------------------------
 BYTE   W96
// 002   ----------------------------------------
 BYTE   W96
// 003   ----------------------------------------
 BYTE   W96
// 004   ----------------------------------------
 BYTE   W96
// 005   ----------------------------------------
 BYTE   W96
// 006   ----------------------------------------
 BYTE   W96
// 007   ----------------------------------------
 BYTE   W96
// 008   ----------------------------------------
 BYTE   MOD 100
 BYTE   N36  Fn1  v100
 BYTE   W48
 BYTE   Gn1
 BYTE   W48
// 009   ----------------------------------------
Label_8_014DD6C8:
 BYTE   N28  Gs1  v100
 BYTE   W36
 BYTE   As1
 BYTE   W36
 BYTE   N19  Cn2
 BYTE   W24
 BYTE   PEND 
// 010   ----------------------------------------
Label_8_014DD6D2:
 BYTE   N36  Fn1  v100
 BYTE   W48
 BYTE   Gn1
 BYTE   W48
 BYTE   PEND 
// 011   ----------------------------------------
 BYTE   PATT
  POIN2 Label_8_014DD6C8
// 012   ----------------------------------------
 BYTE   N36  Fn1  v100
 BYTE   W48
 BYTE   Cn1
 BYTE   W48
// 013   ----------------------------------------
 BYTE   Ds1
 BYTE   W48
 BYTE   Bn0
 BYTE   W48
// 014   ----------------------------------------
 BYTE   Cs1
 BYTE   W48
 BYTE   En1
 BYTE   W48
// 015   ----------------------------------------
 BYTE   N76  Ds1
 BYTE   W96
// 016   ----------------------------------------
 BYTE   PATT
  POIN2 Label_8_014DD6D2
// 017   ----------------------------------------
 BYTE   PATT
  POIN2 Label_8_014DD6C8
// 018   ----------------------------------------
 BYTE   PATT
  POIN2 Label_8_014DD6D2
// 019   ----------------------------------------
 BYTE   PATT
  POIN2 Label_8_014DD6C8
// 020   ----------------------------------------
Label_8_014DD703:
 BYTE   W96
// 021   ----------------------------------------
 BYTE   W96
// 022   ----------------------------------------
 BYTE   W96
// 023   ----------------------------------------
 BYTE   W96
// 024   ----------------------------------------
 BYTE   W96
// 025   ----------------------------------------
 BYTE   W96
// 026   ----------------------------------------
 BYTE   W96
// 027   ----------------------------------------
 BYTE   W96
// 028   ----------------------------------------
 BYTE   W96
// 029   ----------------------------------------
 BYTE   W96
// 030   ----------------------------------------
 BYTE   W96
// 031   ----------------------------------------
 BYTE   W96
// 032   ----------------------------------------
 BYTE   W96
// 033   ----------------------------------------
 BYTE   W96
// 034   ----------------------------------------
 BYTE   W96
// 035   ----------------------------------------
 BYTE   W96
// 036   ----------------------------------------
Label_8_014DD713:
 BYTE   N19  Gn1  v100
 BYTE   W24
 BYTE   As0
 BYTE   W24
 BYTE   Gn1
 BYTE   W24
 BYTE   As0
 BYTE   W24
 BYTE   PEND 
// 037   ----------------------------------------
Label_8_014DD71E:
 BYTE   N19  Fn1  v100
 BYTE   W24
 BYTE   Cn1
 BYTE   W24
 BYTE   Fn1
 BYTE   W24
 BYTE   Cn1
 BYTE   W24
 BYTE   PEND 
// 038   ----------------------------------------
Label_8_014DD729:
 BYTE   N19  Gn1  v100
 BYTE   W24
 BYTE   Dn1
 BYTE   W24
 BYTE   Gn1
 BYTE   W24
 BYTE   Dn1
 BYTE   W24
 BYTE   PEND 
// 039   ----------------------------------------
Label_8_014DD734:
 BYTE   N19  Gn1  v100
 BYTE   W24
 BYTE   Cn1
 BYTE   W24
 BYTE   Gn1
 BYTE   W24
 BYTE   Cn1
 BYTE   W24
 BYTE   PEND 
// 040   ----------------------------------------
Label_8_014DD73F:
 BYTE   N19  Ds1  v100
 BYTE   W24
 BYTE   Cn1
 BYTE   W24
 BYTE   Ds1
 BYTE   W24
 BYTE   Cn1
 BYTE   W24
 BYTE   PEND 
// 041   ----------------------------------------
Label_8_014DD74A:
 BYTE   N19  Dn1  v100
 BYTE   W24
 BYTE   As0
 BYTE   W24
 BYTE   Dn1
 BYTE   W24
 BYTE   As0
 BYTE   W24
 BYTE   PEND 
// 042   ----------------------------------------
 BYTE   PATT
  POIN2 Label_8_014DD734
// 043   ----------------------------------------
 BYTE   PATT
  POIN2 Label_8_014DD734
// 044   ----------------------------------------
 BYTE   W96
// 045   ----------------------------------------
 BYTE   W96
// 046   ----------------------------------------
 BYTE   W96
// 047   ----------------------------------------
 BYTE   W96
// 048   ----------------------------------------
 BYTE   W96
// 049   ----------------------------------------
 BYTE   W96
// 050   ----------------------------------------
 BYTE   W96
// 051   ----------------------------------------
 BYTE   W96
// 052   ----------------------------------------
 BYTE   W96
// 053   ----------------------------------------
 BYTE   W96
// 054   ----------------------------------------
 BYTE   W96
// 055   ----------------------------------------
 BYTE   W96
// 056   ----------------------------------------
 BYTE   W96
// 057   ----------------------------------------
 BYTE   W96
// 058   ----------------------------------------
 BYTE   W96
// 059   ----------------------------------------
 BYTE   W96
// 060   ----------------------------------------
 BYTE   PATT
  POIN2 Label_8_014DD713
// 061   ----------------------------------------
 BYTE   PATT
  POIN2 Label_8_014DD71E
// 062   ----------------------------------------
 BYTE   PATT
  POIN2 Label_8_014DD729
// 063   ----------------------------------------
 BYTE   PATT
  POIN2 Label_8_014DD734
// 064   ----------------------------------------
 BYTE   PATT
  POIN2 Label_8_014DD73F
// 065   ----------------------------------------
 BYTE   PATT
  POIN2 Label_8_014DD74A
// 066   ----------------------------------------
 BYTE   PATT
  POIN2 Label_8_014DD734
// 067   ----------------------------------------
 BYTE   PATT
  POIN2 Label_8_014DD734
// 068   ----------------------------------------
 BYTE   GoTo
  POIN2 Label_8_014DD703
 BYTE   FINE

//**************** Track 10 (Midi-Chn.9) ****************//

FFLegend2SaveTheWorldMeatOfJustice_010:
// 000   ----------------------------------------
 BYTE   KEYSH   FFLegend2SaveTheWorldMeatOfJustice_key+0
 BYTE   VOICE   123
 BYTE   VOL   64*FFLegend2SaveTheWorldMeatOfJustice_mvl/mxv
 BYTE   PAN   c_v+0
 BYTE   W96
// 001   ----------------------------------------
 BYTE   W96
// 002   ----------------------------------------
 BYTE   W96
// 003   ----------------------------------------
 BYTE   W96
// 004   ----------------------------------------
 BYTE   W96
// 005   ----------------------------------------
 BYTE   W96
// 006   ----------------------------------------
 BYTE   W96
// 007   ----------------------------------------
 BYTE   W96
// 008   ----------------------------------------
Label_9_014DD7B0:
 BYTE   N36  En1  v100
 BYTE   N36  Cs2
 BYTE   W48
 BYTE   N09  En1
 BYTE   W12
 BYTE   N28
 BYTE   W36
 BYTE   PEND 
// 009   ----------------------------------------
Label_9_014DD7BC:
 BYTE   N09  En1  v100
 BYTE   W12
 BYTE   N09
 BYTE   W12
 BYTE   N09
 BYTE   W12
 BYTE   N09
 BYTE   W12
 BYTE   N04
 BYTE   W06
 BYTE   N04
 BYTE   W06
 BYTE   N04
 BYTE   W06
 BYTE   N04
 BYTE   W06
 BYTE   N04
 BYTE   W06
 BYTE   N04
 BYTE   W06
 BYTE   N04
 BYTE   W06
 BYTE   N04
 BYTE   W06
 BYTE   PEND 
// 010   ----------------------------------------
 BYTE   PATT
  POIN2 Label_9_014DD7B0
// 011   ----------------------------------------
 BYTE   PATT
  POIN2 Label_9_014DD7BC
// 012   ----------------------------------------
Label_9_014DD7E1:
 BYTE   N09  En1  v100
 BYTE   N09  Cs2
 BYTE   W12
 BYTE   En1
 BYTE   W36
 BYTE   N04
 BYTE   W06
 BYTE   N04
 BYTE   W06
 BYTE   N04
 BYTE   W06
 BYTE   N04
 BYTE   W06
 BYTE   N04
 BYTE   W06
 BYTE   N04
 BYTE   W06
 BYTE   N04
 BYTE   W06
 BYTE   N04
 BYTE   W06
 BYTE   PEND 
// 013   ----------------------------------------
 BYTE   N09
 BYTE   W12
 BYTE   N09
 BYTE   W36
 BYTE   N04
 BYTE   W06
 BYTE   N04
 BYTE   W06
 BYTE   N04
 BYTE   W06
 BYTE   N04
 BYTE   W06
 BYTE   N04
 BYTE   W06
 BYTE   N04
 BYTE   W06
 BYTE   N04
 BYTE   W06
 BYTE   N04
 BYTE   W06
// 014   ----------------------------------------
 BYTE   PATT
  POIN2 Label_9_014DD7E1
// 015   ----------------------------------------
 BYTE   PATT
  POIN2 Label_9_014DD7BC
// 016   ----------------------------------------
 BYTE   PATT
  POIN2 Label_9_014DD7B0
// 017   ----------------------------------------
 BYTE   PATT
  POIN2 Label_9_014DD7BC
// 018   ----------------------------------------
 BYTE   PATT
  POIN2 Label_9_014DD7B0
// 019   ----------------------------------------
 BYTE   PATT
  POIN2 Label_9_014DD7BC
// 020   ----------------------------------------
Label_9_014DD82C:
 BYTE   N76  Cs2  v100
 BYTE   W96
// 021   ----------------------------------------
 BYTE   W96
// 022   ----------------------------------------
 BYTE   N76
 BYTE   W96
// 023   ----------------------------------------
 BYTE   W96
// 024   ----------------------------------------
 BYTE   N76
 BYTE   W96
// 025   ----------------------------------------
 BYTE   N76
 BYTE   W96
// 026   ----------------------------------------
 BYTE   N76
 BYTE   W96
// 027   ----------------------------------------
Label_9_014DD83A:
 BYTE   N36  Cs2  v100
 BYTE   W48
 BYTE   N36
 BYTE   W48
 BYTE   PEND 
// 028   ----------------------------------------
 BYTE   N76
 BYTE   W96
// 029   ----------------------------------------
 BYTE   W96
// 030   ----------------------------------------
 BYTE   N76
 BYTE   W96
// 031   ----------------------------------------
 BYTE   W96
// 032   ----------------------------------------
 BYTE   N76
 BYTE   W96
// 033   ----------------------------------------
 BYTE   N76
 BYTE   W96
// 034   ----------------------------------------
 BYTE   N76
 BYTE   W96
// 035   ----------------------------------------
 BYTE   PATT
  POIN2 Label_9_014DD83A
// 036   ----------------------------------------
Label_9_014DD852:
 BYTE   N09  En1  v100
 BYTE   N09  Cs2
 BYTE   W12
 BYTE   N04  En1
 BYTE   W06
 BYTE   N04
 BYTE   W06
 BYTE   N09
 BYTE   W12
 BYTE   N04
 BYTE   W06
 BYTE   N04
 BYTE   W06
 BYTE   N09
 BYTE   W12
 BYTE   N04
 BYTE   W06
 BYTE   N04
 BYTE   W06
 BYTE   N09
 BYTE   W12
 BYTE   N04
 BYTE   W06
 BYTE   N04
 BYTE   W06
 BYTE   PEND 
// 037   ----------------------------------------
Label_9_014DD870:
 BYTE   N09  En1  v100
 BYTE   W12
 BYTE   N04
 BYTE   W06
 BYTE   N04
 BYTE   W06
 BYTE   N09
 BYTE   W12
 BYTE   N04
 BYTE   W06
 BYTE   N04
 BYTE   W06
 BYTE   N09
 BYTE   W12
 BYTE   N04
 BYTE   W06
 BYTE   N04
 BYTE   W06
 BYTE   N09
 BYTE   W12
 BYTE   N04
 BYTE   W06
 BYTE   N04
 BYTE   W06
 BYTE   PEND 
// 038   ----------------------------------------
 BYTE   PATT
  POIN2 Label_9_014DD870
// 039   ----------------------------------------
 BYTE   PATT
  POIN2 Label_9_014DD870
// 040   ----------------------------------------
 BYTE   PATT
  POIN2 Label_9_014DD870
// 041   ----------------------------------------
 BYTE   PATT
  POIN2 Label_9_014DD870
// 042   ----------------------------------------
 BYTE   PATT
  POIN2 Label_9_014DD870
// 043   ----------------------------------------
Label_9_014DD8A4:
 BYTE   N09  En1  v100
 BYTE   W12
 BYTE   N04
 BYTE   W06
 BYTE   N04
 BYTE   W06
 BYTE   N09
 BYTE   W12
 BYTE   N04
 BYTE   W06
 BYTE   N04
 BYTE   W06
 BYTE   N04
 BYTE   W06
 BYTE   N04
 BYTE   W06
 BYTE   N04
 BYTE   W06
 BYTE   N04
 BYTE   W06
 BYTE   N04
 BYTE   W06
 BYTE   N04
 BYTE   W06
 BYTE   N04
 BYTE   W06
 BYTE   N04
 BYTE   W06
 BYTE   PEND 
// 044   ----------------------------------------
 BYTE   N76  Cs2
 BYTE   W96
// 045   ----------------------------------------
 BYTE   W96
// 046   ----------------------------------------
 BYTE   N76
 BYTE   W96
// 047   ----------------------------------------
 BYTE   W96
// 048   ----------------------------------------
 BYTE   N76
 BYTE   W96
// 049   ----------------------------------------
 BYTE   N76
 BYTE   W96
// 050   ----------------------------------------
 BYTE   N76
 BYTE   W96
// 051   ----------------------------------------
 BYTE   PATT
  POIN2 Label_9_014DD83A
// 052   ----------------------------------------
 BYTE   N76  Cs2  v100
 BYTE   W96
// 053   ----------------------------------------
 BYTE   W96
// 054   ----------------------------------------
 BYTE   N76
 BYTE   W96
// 055   ----------------------------------------
 BYTE   W96
// 056   ----------------------------------------
 BYTE   N76
 BYTE   W96
// 057   ----------------------------------------
 BYTE   N76
 BYTE   W96
// 058   ----------------------------------------
 BYTE   N76
 BYTE   W96
// 059   ----------------------------------------
 BYTE   PATT
  POIN2 Label_9_014DD83A
// 060   ----------------------------------------
 BYTE   PATT
  POIN2 Label_9_014DD852
// 061   ----------------------------------------
 BYTE   PATT
  POIN2 Label_9_014DD870
// 062   ----------------------------------------
 BYTE   PATT
  POIN2 Label_9_014DD870
// 063   ----------------------------------------
 BYTE   PATT
  POIN2 Label_9_014DD870
// 064   ----------------------------------------
 BYTE   PATT
  POIN2 Label_9_014DD870
// 065   ----------------------------------------
 BYTE   PATT
  POIN2 Label_9_014DD870
// 066   ----------------------------------------
 BYTE   PATT
  POIN2 Label_9_014DD870
// 067   ----------------------------------------
 BYTE   PATT
  POIN2 Label_9_014DD8A4
// 068   ----------------------------------------
 BYTE   GoTo
  POIN2 Label_9_014DD82C
 BYTE   FINE

//******************************************************//
	ALIGN 4

FFLegend2SaveTheWorldMeatOfJustice:
	BYTE	10	// NumTrks
	BYTE	0	// NumBlks
	BYTE	FFLegend2SaveTheWorldMeatOfJustice_pri	// Priority
	BYTE	FFLegend2SaveTheWorldMeatOfJustice_rev	// Reverb.
    
	POIN2	FFLegend2SaveTheWorldMeatOfJustice_grp
    
	POIN2	FFLegend2SaveTheWorldMeatOfJustice_001
	POIN2	FFLegend2SaveTheWorldMeatOfJustice_002
	POIN2	FFLegend2SaveTheWorldMeatOfJustice_003
	POIN2	FFLegend2SaveTheWorldMeatOfJustice_004
	POIN2	FFLegend2SaveTheWorldMeatOfJustice_005
	POIN2	FFLegend2SaveTheWorldMeatOfJustice_006
	POIN2	FFLegend2SaveTheWorldMeatOfJustice_007
	POIN2	FFLegend2SaveTheWorldMeatOfJustice_008
	POIN2	FFLegend2SaveTheWorldMeatOfJustice_009
	POIN2	FFLegend2SaveTheWorldMeatOfJustice_010

	
