//Event file generated from Sappy .s format.
	#include "MPlayDef.event"

	#define	FFMysticQuestWorldMapRandomWizard_grp  voicegroup000
	#define	FFMysticQuestWorldMapRandomWizard_pri  0
	#define	FFMysticQuestWorldMapRandomWizard_rev  0
	#define	FFMysticQuestWorldMapRandomWizard_mvl  127
	#define	FFMysticQuestWorldMapRandomWizard_key  0
	#define	FFMysticQuestWorldMapRandomWizard_tbs  1
	#define	FFMysticQuestWorldMapRandomWizard_exg  0
	#define	FFMysticQuestWorldMapRandomWizard_cmp  1

	// .rodata
	//	FFMysticQuestWorldMapRandomWizard
	ALIGN 4


//**************** Track 1 (Midi-Chn.0) ****************//

FFMysticQuestWorldMapRandomWizard_001:
// 000   ----------------------------------------
 BYTE   KEYSH   FFMysticQuestWorldMapRandomWizard_key+0
Label_0_015896CE:
 BYTE   TEMPO   124*FFMysticQuestWorldMapRandomWizard_tbs/2
 BYTE   VOICE   56
 BYTE   VOL   40*FFMysticQuestWorldMapRandomWizard_mvl/mxv
 BYTE   PAN   c_v+0
 BYTE   N36  Bn3  v127
 BYTE   W01
 BYTE   VOL   40*FFMysticQuestWorldMapRandomWizard_mvl/mxv
 BYTE   W01
 BYTE   En1
 BYTE   W01
 BYTE   En1
 BYTE   W01
 BYTE   En1
 BYTE   W02
 BYTE   En1
 BYTE   W01
 BYTE   En1
 BYTE   W01
 BYTE   En1
 BYTE   W01
 BYTE   Ds1
 BYTE   W01
 BYTE   Dn1
 BYTE   W02
 BYTE   Cn1
 BYTE   W01
 BYTE   Bn0
 BYTE   W01
 BYTE   As0
 BYTE   W01
 BYTE   Gs0
 BYTE   W01
 BYTE   Gs0
 BYTE   W02
 BYTE   Fs0
 BYTE   W01
 BYTE   Fn0
 BYTE   W01
 BYTE   En0
 BYTE   W01
 BYTE   Ds0
 BYTE   W01
 BYTE   Cs0
 BYTE   W02
 BYTE   Cs0
 BYTE   W01
 BYTE   BnM1
 BYTE   W01
 BYTE   AsM1
 BYTE   W01
 BYTE   AnM1
 BYTE   W01
 BYTE   GsM1
 BYTE   W02
 BYTE   GnM1
 BYTE   W01
 BYTE   FsM1
 BYTE   W01
 BYTE   FnM1
 BYTE   W01
 BYTE   EnM1
 BYTE   W01
 BYTE   DnM1
 BYTE   W02
 BYTE   En1
 BYTE   N06
 BYTE   W01
 BYTE   VOL   40*FFMysticQuestWorldMapRandomWizard_mvl/mxv
 BYTE   W01
 BYTE   En1
 BYTE   W01
 BYTE   En1
 BYTE   W01
 BYTE   En1
 BYTE   W02
 BYTE   En1
 BYTE   N06  An3
 BYTE   W01
 BYTE   VOL   40*FFMysticQuestWorldMapRandomWizard_mvl/mxv
 BYTE   W01
 BYTE   En1
 BYTE   W01
 BYTE   En1
 BYTE   W03
 BYTE   En1
 BYTE   N24  Bn3
 BYTE   W01
 BYTE   VOL   40*FFMysticQuestWorldMapRandomWizard_mvl/mxv
 BYTE   W01
 BYTE   En1
 BYTE   W01
 BYTE   En1
 BYTE   W01
 BYTE   En1
 BYTE   W02
 BYTE   En1
 BYTE   W01
 BYTE   En1
 BYTE   W01
 BYTE   En1
 BYTE   W01
 BYTE   Ds1
 BYTE   W01
 BYTE   Dn1
 BYTE   W02
 BYTE   Cn1
 BYTE   W01
 BYTE   Bn0
 BYTE   W01
 BYTE   As0
 BYTE   W01
 BYTE   Gs0
 BYTE   W01
 BYTE   Gs0
 BYTE   W02
 BYTE   Fs0
 BYTE   W01
 BYTE   Fn0
 BYTE   W01
 BYTE   En0
 BYTE   W01
 BYTE   Ds0
 BYTE   W01
 BYTE   Cs0
 BYTE   W02
 BYTE   En1
 BYTE   N18  Gn3
 BYTE   W01
 BYTE   VOL   40*FFMysticQuestWorldMapRandomWizard_mvl/mxv
 BYTE   W01
 BYTE   En1
 BYTE   W01
 BYTE   En1
 BYTE   W01
 BYTE   En1
 BYTE   W02
 BYTE   En1
 BYTE   W01
 BYTE   En1
 BYTE   W01
 BYTE   En1
 BYTE   W01
 BYTE   Ds1
 BYTE   W01
 BYTE   Dn1
 BYTE   W02
 BYTE   Cn1
 BYTE   W01
 BYTE   Bn0
 BYTE   W01
 BYTE   As0
 BYTE   W01
 BYTE   Gs0
 BYTE   W01
 BYTE   Gs0
 BYTE   W02
 BYTE   En1
 BYTE   N06  Bn3
 BYTE   W01
 BYTE   VOL   40*FFMysticQuestWorldMapRandomWizard_mvl/mxv
 BYTE   W01
 BYTE   En1
 BYTE   W01
 BYTE   En1
 BYTE   W01
 BYTE   En1
 BYTE   W02
// 001   ----------------------------------------
Label_0_01589785:
 BYTE   VOL   40*FFMysticQuestWorldMapRandomWizard_mvl/mxv
 BYTE   N24  Cn4  v127
 BYTE   W01
 BYTE   VOL   40*FFMysticQuestWorldMapRandomWizard_mvl/mxv
 BYTE   W01
 BYTE   En1
 BYTE   W01
 BYTE   En1
 BYTE   W01
 BYTE   En1
 BYTE   W02
 BYTE   En1
 BYTE   W01
 BYTE   En1
 BYTE   W01
 BYTE   En1
 BYTE   W01
 BYTE   Ds1
 BYTE   W01
 BYTE   Dn1
 BYTE   W02
 BYTE   Cn1
 BYTE   W01
 BYTE   Bn0
 BYTE   W01
 BYTE   As0
 BYTE   W01
 BYTE   Gs0
 BYTE   W01
 BYTE   Gs0
 BYTE   W02
 BYTE   Fs0
 BYTE   W01
 BYTE   Fn0
 BYTE   W01
 BYTE   En0
 BYTE   W01
 BYTE   Ds0
 BYTE   W01
 BYTE   Cs0
 BYTE   W02
 BYTE   En1
 BYTE   N24  Bn3
 BYTE   W01
 BYTE   VOL   40*FFMysticQuestWorldMapRandomWizard_mvl/mxv
 BYTE   W01
 BYTE   En1
 BYTE   W01
 BYTE   En1
 BYTE   W01
 BYTE   En1
 BYTE   W02
 BYTE   En1
 BYTE   W01
 BYTE   En1
 BYTE   W01
 BYTE   En1
 BYTE   W01
 BYTE   Ds1
 BYTE   W01
 BYTE   Dn1
 BYTE   W02
 BYTE   Cn1
 BYTE   W01
 BYTE   Bn0
 BYTE   W01
 BYTE   As0
 BYTE   W01
 BYTE   Gs0
 BYTE   W01
 BYTE   Gs0
 BYTE   W02
 BYTE   Fs0
 BYTE   W01
 BYTE   Fn0
 BYTE   W01
 BYTE   En0
 BYTE   W01
 BYTE   Ds0
 BYTE   W01
 BYTE   Cs0
 BYTE   W02
 BYTE   En1
 BYTE   N24  An3
 BYTE   W01
 BYTE   VOL   40*FFMysticQuestWorldMapRandomWizard_mvl/mxv
 BYTE   W01
 BYTE   En1
 BYTE   W01
 BYTE   En1
 BYTE   W01
 BYTE   En1
 BYTE   W02
 BYTE   En1
 BYTE   W01
 BYTE   En1
 BYTE   W01
 BYTE   En1
 BYTE   W01
 BYTE   Ds1
 BYTE   W01
 BYTE   Dn1
 BYTE   W02
 BYTE   Cn1
 BYTE   W01
 BYTE   Bn0
 BYTE   W01
 BYTE   As0
 BYTE   W01
 BYTE   Gs0
 BYTE   W01
 BYTE   Gs0
 BYTE   W02
 BYTE   Fs0
 BYTE   W01
 BYTE   Fn0
 BYTE   W01
 BYTE   En0
 BYTE   W01
 BYTE   Ds0
 BYTE   W01
 BYTE   Cs0
 BYTE   W02
 BYTE   En1
 BYTE   N24  Bn3
 BYTE   W01
 BYTE   VOL   40*FFMysticQuestWorldMapRandomWizard_mvl/mxv
 BYTE   W01
 BYTE   En1
 BYTE   W01
 BYTE   En1
 BYTE   W01
 BYTE   En1
 BYTE   W02
 BYTE   En1
 BYTE   W01
 BYTE   En1
 BYTE   W01
 BYTE   En1
 BYTE   W01
 BYTE   Ds1
 BYTE   W01
 BYTE   Dn1
 BYTE   W02
 BYTE   Cn1
 BYTE   W01
 BYTE   Bn0
 BYTE   W01
 BYTE   As0
 BYTE   W01
 BYTE   Gs0
 BYTE   W01
 BYTE   Gs0
 BYTE   W02
 BYTE   Fs0
 BYTE   W01
 BYTE   Fn0
 BYTE   W01
 BYTE   En0
 BYTE   W01
 BYTE   Ds0
 BYTE   W01
 BYTE   Cs0
 BYTE   W02
 BYTE   PEND 
// 002   ----------------------------------------
Label_0_01589834:
 BYTE   VOL   40*FFMysticQuestWorldMapRandomWizard_mvl/mxv
 BYTE   N36  Gn3  v127
 BYTE   W01
 BYTE   VOL   40*FFMysticQuestWorldMapRandomWizard_mvl/mxv
 BYTE   W01
 BYTE   En1
 BYTE   W01
 BYTE   En1
 BYTE   W01
 BYTE   En1
 BYTE   W02
 BYTE   En1
 BYTE   W01
 BYTE   En1
 BYTE   W01
 BYTE   En1
 BYTE   W01
 BYTE   Ds1
 BYTE   W01
 BYTE   Dn1
 BYTE   W02
 BYTE   Cn1
 BYTE   W01
 BYTE   Bn0
 BYTE   W01
 BYTE   As0
 BYTE   W01
 BYTE   Gs0
 BYTE   W01
 BYTE   Gs0
 BYTE   W02
 BYTE   Fs0
 BYTE   W01
 BYTE   Fn0
 BYTE   W01
 BYTE   En0
 BYTE   W01
 BYTE   Ds0
 BYTE   W01
 BYTE   Cs0
 BYTE   W02
 BYTE   Cs0
 BYTE   W01
 BYTE   BnM1
 BYTE   W01
 BYTE   AsM1
 BYTE   W01
 BYTE   AnM1
 BYTE   W01
 BYTE   GsM1
 BYTE   W02
 BYTE   GnM1
 BYTE   W01
 BYTE   FsM1
 BYTE   W01
 BYTE   FnM1
 BYTE   W01
 BYTE   EnM1
 BYTE   W01
 BYTE   DnM1
 BYTE   W02
 BYTE   En1
 BYTE   N06
 BYTE   W01
 BYTE   VOL   40*FFMysticQuestWorldMapRandomWizard_mvl/mxv
 BYTE   W01
 BYTE   En1
 BYTE   W01
 BYTE   En1
 BYTE   W01
 BYTE   En1
 BYTE   W02
 BYTE   En1
 BYTE   N06
 BYTE   W01
 BYTE   VOL   40*FFMysticQuestWorldMapRandomWizard_mvl/mxv
 BYTE   W01
 BYTE   En1
 BYTE   W01
 BYTE   En1
 BYTE   W01
 BYTE   En1
 BYTE   W02
 BYTE   En1
 BYTE   N24  Dn4
 BYTE   W01
 BYTE   VOL   40*FFMysticQuestWorldMapRandomWizard_mvl/mxv
 BYTE   W01
 BYTE   En1
 BYTE   W01
 BYTE   En1
 BYTE   W01
 BYTE   En1
 BYTE   W02
 BYTE   En1
 BYTE   W01
 BYTE   En1
 BYTE   W01
 BYTE   En1
 BYTE   W01
 BYTE   Ds1
 BYTE   W01
 BYTE   Dn1
 BYTE   W02
 BYTE   Cn1
 BYTE   W01
 BYTE   Bn0
 BYTE   W01
 BYTE   As0
 BYTE   W01
 BYTE   Gs0
 BYTE   W01
 BYTE   Gs0
 BYTE   W02
 BYTE   Fs0
 BYTE   W01
 BYTE   Fn0
 BYTE   W01
 BYTE   En0
 BYTE   W01
 BYTE   Ds0
 BYTE   W01
 BYTE   Cs0
 BYTE   W02
 BYTE   En1
 BYTE   N18  Gn3
 BYTE   W01
 BYTE   VOL   40*FFMysticQuestWorldMapRandomWizard_mvl/mxv
 BYTE   W01
 BYTE   En1
 BYTE   W01
 BYTE   En1
 BYTE   W01
 BYTE   En1
 BYTE   W02
 BYTE   En1
 BYTE   W01
 BYTE   En1
 BYTE   W01
 BYTE   En1
 BYTE   W01
 BYTE   Ds1
 BYTE   W01
 BYTE   Dn1
 BYTE   W02
 BYTE   Cn1
 BYTE   W01
 BYTE   Bn0
 BYTE   W01
 BYTE   As0
 BYTE   W01
 BYTE   Gs0
 BYTE   W01
 BYTE   Gs0
 BYTE   W02
 BYTE   En1
 BYTE   N06  Dn4
 BYTE   W01
 BYTE   VOL   40*FFMysticQuestWorldMapRandomWizard_mvl/mxv
 BYTE   W01
 BYTE   En1
 BYTE   W01
 BYTE   En1
 BYTE   W01
 BYTE   En1
 BYTE   W02
 BYTE   PEND 
// 003   ----------------------------------------
Label_0_015898E7:
 BYTE   VOL   40*FFMysticQuestWorldMapRandomWizard_mvl/mxv
 BYTE   N24  En4  v127
 BYTE   W01
 BYTE   VOL   40*FFMysticQuestWorldMapRandomWizard_mvl/mxv
 BYTE   W01
 BYTE   En1
 BYTE   W01
 BYTE   En1
 BYTE   W01
 BYTE   En1
 BYTE   W02
 BYTE   En1
 BYTE   W01
 BYTE   En1
 BYTE   W01
 BYTE   En1
 BYTE   W01
 BYTE   Ds1
 BYTE   W01
 BYTE   Dn1
 BYTE   W02
 BYTE   Cn1
 BYTE   W01
 BYTE   Bn0
 BYTE   W01
 BYTE   As0
 BYTE   W01
 BYTE   Gs0
 BYTE   W01
 BYTE   Gs0
 BYTE   W02
 BYTE   Fs0
 BYTE   W01
 BYTE   Fn0
 BYTE   W01
 BYTE   En0
 BYTE   W01
 BYTE   Ds0
 BYTE   W03
 BYTE   En1
 BYTE   N24  Dn4
 BYTE   W01
 BYTE   VOL   40*FFMysticQuestWorldMapRandomWizard_mvl/mxv
 BYTE   W01
 BYTE   En1
 BYTE   W01
 BYTE   En1
 BYTE   W01
 BYTE   En1
 BYTE   W02
 BYTE   En1
 BYTE   W01
 BYTE   En1
 BYTE   W01
 BYTE   En1
 BYTE   W01
 BYTE   Ds1
 BYTE   W01
 BYTE   Dn1
 BYTE   W02
 BYTE   Cn1
 BYTE   W01
 BYTE   Bn0
 BYTE   W01
 BYTE   As0
 BYTE   W01
 BYTE   Gs0
 BYTE   W01
 BYTE   Gs0
 BYTE   W02
 BYTE   Fs0
 BYTE   W01
 BYTE   Fn0
 BYTE   W01
 BYTE   En0
 BYTE   W01
 BYTE   Ds0
 BYTE   W01
 BYTE   Cs0
 BYTE   W02
 BYTE   En1
 BYTE   N24  Cn4
 BYTE   W01
 BYTE   VOL   40*FFMysticQuestWorldMapRandomWizard_mvl/mxv
 BYTE   W01
 BYTE   En1
 BYTE   W01
 BYTE   En1
 BYTE   W01
 BYTE   En1
 BYTE   W02
 BYTE   En1
 BYTE   W01
 BYTE   En1
 BYTE   W01
 BYTE   En1
 BYTE   W01
 BYTE   Ds1
 BYTE   W01
 BYTE   Dn1
 BYTE   W02
 BYTE   Cn1
 BYTE   W01
 BYTE   Bn0
 BYTE   W01
 BYTE   As0
 BYTE   W01
 BYTE   Gs0
 BYTE   W01
 BYTE   Gs0
 BYTE   W02
 BYTE   Fs0
 BYTE   W01
 BYTE   Fn0
 BYTE   W01
 BYTE   En0
 BYTE   W01
 BYTE   Ds0
 BYTE   W01
 BYTE   Cs0
 BYTE   W02
 BYTE   En1
 BYTE   N24  Dn4
 BYTE   W01
 BYTE   VOL   40*FFMysticQuestWorldMapRandomWizard_mvl/mxv
 BYTE   W01
 BYTE   En1
 BYTE   W01
 BYTE   En1
 BYTE   W01
 BYTE   En1
 BYTE   W02
 BYTE   En1
 BYTE   W01
 BYTE   En1
 BYTE   W01
 BYTE   En1
 BYTE   W01
 BYTE   Ds1
 BYTE   W01
 BYTE   Dn1
 BYTE   W02
 BYTE   Cn1
 BYTE   W01
 BYTE   Bn0
 BYTE   W01
 BYTE   As0
 BYTE   W01
 BYTE   Gs0
 BYTE   W01
 BYTE   Gs0
 BYTE   W02
 BYTE   Fs0
 BYTE   W01
 BYTE   Fn0
 BYTE   W01
 BYTE   En0
 BYTE   W01
 BYTE   Ds0
 BYTE   W01
 BYTE   Cs0
 BYTE   W02
 BYTE   PEND 
// 004   ----------------------------------------
Label_0_01589994:
 BYTE   VOL   40*FFMysticQuestWorldMapRandomWizard_mvl/mxv
 BYTE   N36  Bn3  v127
 BYTE   W01
 BYTE   VOL   40*FFMysticQuestWorldMapRandomWizard_mvl/mxv
 BYTE   W01
 BYTE   En1
 BYTE   W01
 BYTE   En1
 BYTE   W01
 BYTE   En1
 BYTE   W02
 BYTE   En1
 BYTE   W01
 BYTE   En1
 BYTE   W01
 BYTE   En1
 BYTE   W01
 BYTE   Ds1
 BYTE   W01
 BYTE   Dn1
 BYTE   W02
 BYTE   Cn1
 BYTE   W01
 BYTE   Bn0
 BYTE   W01
 BYTE   As0
 BYTE   W01
 BYTE   Gs0
 BYTE   W01
 BYTE   Gs0
 BYTE   W02
 BYTE   Fs0
 BYTE   W01
 BYTE   Fn0
 BYTE   W01
 BYTE   En0
 BYTE   W01
 BYTE   Ds0
 BYTE   W01
 BYTE   Cs0
 BYTE   W02
 BYTE   Cs0
 BYTE   W01
 BYTE   BnM1
 BYTE   W01
 BYTE   AsM1
 BYTE   W01
 BYTE   AnM1
 BYTE   W01
 BYTE   GsM1
 BYTE   W02
 BYTE   GnM1
 BYTE   W01
 BYTE   FsM1
 BYTE   W01
 BYTE   FnM1
 BYTE   W01
 BYTE   EnM1
 BYTE   W03
 BYTE   En1
 BYTE   N06
 BYTE   W01
 BYTE   VOL   40*FFMysticQuestWorldMapRandomWizard_mvl/mxv
 BYTE   W01
 BYTE   En1
 BYTE   W01
 BYTE   En1
 BYTE   W01
 BYTE   En1
 BYTE   W02
 BYTE   En1
 BYTE   N06  An3
 BYTE   W01
 BYTE   VOL   40*FFMysticQuestWorldMapRandomWizard_mvl/mxv
 BYTE   W01
 BYTE   En1
 BYTE   W01
 BYTE   En1
 BYTE   W03
 BYTE   En1
 BYTE   N24  Bn3
 BYTE   W01
 BYTE   VOL   40*FFMysticQuestWorldMapRandomWizard_mvl/mxv
 BYTE   W01
 BYTE   En1
 BYTE   W01
 BYTE   En1
 BYTE   W01
 BYTE   En1
 BYTE   W02
 BYTE   En1
 BYTE   W01
 BYTE   En1
 BYTE   W01
 BYTE   En1
 BYTE   W01
 BYTE   Ds1
 BYTE   W01
 BYTE   Dn1
 BYTE   W02
 BYTE   Cn1
 BYTE   W01
 BYTE   Bn0
 BYTE   W01
 BYTE   As0
 BYTE   W01
 BYTE   Gs0
 BYTE   W01
 BYTE   Gs0
 BYTE   W02
 BYTE   Fs0
 BYTE   W01
 BYTE   Fn0
 BYTE   W01
 BYTE   En0
 BYTE   W01
 BYTE   Ds0
 BYTE   W03
 BYTE   En1
 BYTE   N18  Gn3
 BYTE   W01
 BYTE   VOL   40*FFMysticQuestWorldMapRandomWizard_mvl/mxv
 BYTE   W01
 BYTE   En1
 BYTE   W01
 BYTE   En1
 BYTE   W01
 BYTE   En1
 BYTE   W02
 BYTE   En1
 BYTE   W01
 BYTE   En1
 BYTE   W01
 BYTE   En1
 BYTE   W01
 BYTE   Ds1
 BYTE   W01
 BYTE   Dn1
 BYTE   W02
 BYTE   Cn1
 BYTE   W01
 BYTE   Bn0
 BYTE   W01
 BYTE   As0
 BYTE   W01
 BYTE   Gs0
 BYTE   W01
 BYTE   Gs0
 BYTE   W02
 BYTE   En1
 BYTE   N06  Dn4
 BYTE   W01
 BYTE   VOL   40*FFMysticQuestWorldMapRandomWizard_mvl/mxv
 BYTE   W01
 BYTE   En1
 BYTE   W01
 BYTE   En1
 BYTE   W01
 BYTE   En1
 BYTE   W02
 BYTE   PEND 
// 005   ----------------------------------------
Label_0_01589A42:
 BYTE   VOL   40*FFMysticQuestWorldMapRandomWizard_mvl/mxv
 BYTE   N24  Cn4  v127
 BYTE   W01
 BYTE   VOL   40*FFMysticQuestWorldMapRandomWizard_mvl/mxv
 BYTE   W01
 BYTE   En1
 BYTE   W01
 BYTE   En1
 BYTE   W01
 BYTE   En1
 BYTE   W02
 BYTE   En1
 BYTE   W01
 BYTE   En1
 BYTE   W01
 BYTE   En1
 BYTE   W01
 BYTE   Ds1
 BYTE   W01
 BYTE   Dn1
 BYTE   W02
 BYTE   Cn1
 BYTE   W01
 BYTE   Bn0
 BYTE   W01
 BYTE   As0
 BYTE   W01
 BYTE   Gs0
 BYTE   W01
 BYTE   Gs0
 BYTE   W02
 BYTE   Fs0
 BYTE   W01
 BYTE   Fn0
 BYTE   W01
 BYTE   En0
 BYTE   W01
 BYTE   Ds0
 BYTE   W01
 BYTE   Cs0
 BYTE   W02
 BYTE   En1
 BYTE   N36  An3
 BYTE   W01
 BYTE   VOL   40*FFMysticQuestWorldMapRandomWizard_mvl/mxv
 BYTE   W01
 BYTE   En1
 BYTE   W01
 BYTE   En1
 BYTE   W01
 BYTE   En1
 BYTE   W02
 BYTE   En1
 BYTE   W01
 BYTE   En1
 BYTE   W01
 BYTE   En1
 BYTE   W01
 BYTE   Ds1
 BYTE   W01
 BYTE   Dn1
 BYTE   W02
 BYTE   Cn1
 BYTE   W01
 BYTE   Bn0
 BYTE   W01
 BYTE   As0
 BYTE   W01
 BYTE   Gs0
 BYTE   W01
 BYTE   Gs0
 BYTE   W02
 BYTE   Fs0
 BYTE   W01
 BYTE   Fn0
 BYTE   W01
 BYTE   En0
 BYTE   W01
 BYTE   Ds0
 BYTE   W01
 BYTE   Cs0
 BYTE   W02
 BYTE   Cs0
 BYTE   W01
 BYTE   BnM1
 BYTE   W01
 BYTE   AsM1
 BYTE   W01
 BYTE   AnM1
 BYTE   W01
 BYTE   GsM1
 BYTE   W02
 BYTE   GnM1
 BYTE   W01
 BYTE   FsM1
 BYTE   W01
 BYTE   FnM1
 BYTE   W01
 BYTE   EnM1
 BYTE   W03
 BYTE   En1
 BYTE   N12
 BYTE   W01
 BYTE   VOL   40*FFMysticQuestWorldMapRandomWizard_mvl/mxv
 BYTE   W01
 BYTE   En1
 BYTE   W01
 BYTE   En1
 BYTE   W01
 BYTE   En1
 BYTE   W02
 BYTE   En1
 BYTE   W01
 BYTE   En1
 BYTE   W01
 BYTE   En1
 BYTE   W01
 BYTE   Ds1
 BYTE   W01
 BYTE   Dn1
 BYTE   W02
 BYTE   En1
 BYTE   N12  Bn3
 BYTE   W01
 BYTE   VOL   40*FFMysticQuestWorldMapRandomWizard_mvl/mxv
 BYTE   W01
 BYTE   En1
 BYTE   W01
 BYTE   En1
 BYTE   W01
 BYTE   En1
 BYTE   W02
 BYTE   En1
 BYTE   W01
 BYTE   En1
 BYTE   W01
 BYTE   En1
 BYTE   W01
 BYTE   Ds1
 BYTE   W01
 BYTE   Dn1
 BYTE   W02
 BYTE   En1
 BYTE   N12  Cn4
 BYTE   W01
 BYTE   VOL   40*FFMysticQuestWorldMapRandomWizard_mvl/mxv
 BYTE   W01
 BYTE   En1
 BYTE   W01
 BYTE   En1
 BYTE   W01
 BYTE   En1
 BYTE   W02
 BYTE   En1
 BYTE   W01
 BYTE   En1
 BYTE   W01
 BYTE   En1
 BYTE   W01
 BYTE   Ds1
 BYTE   W01
 BYTE   Dn1
 BYTE   W02
 BYTE   PEND 
// 006   ----------------------------------------
Label_0_01589AF1:
 BYTE   VOL   40*FFMysticQuestWorldMapRandomWizard_mvl/mxv
 BYTE   N36  Bn3  v127
 BYTE   W01
 BYTE   VOL   40*FFMysticQuestWorldMapRandomWizard_mvl/mxv
 BYTE   W01
 BYTE   En1
 BYTE   W01
 BYTE   En1
 BYTE   W01
 BYTE   En1
 BYTE   W02
 BYTE   En1
 BYTE   W01
 BYTE   En1
 BYTE   W01
 BYTE   En1
 BYTE   W01
 BYTE   Ds1
 BYTE   W01
 BYTE   Dn1
 BYTE   W02
 BYTE   Cn1
 BYTE   W01
 BYTE   Bn0
 BYTE   W01
 BYTE   As0
 BYTE   W01
 BYTE   Gs0
 BYTE   W01
 BYTE   Gs0
 BYTE   W02
 BYTE   Fs0
 BYTE   W01
 BYTE   Fn0
 BYTE   W01
 BYTE   En0
 BYTE   W01
 BYTE   Ds0
 BYTE   W01
 BYTE   Cs0
 BYTE   W02
 BYTE   Cs0
 BYTE   W01
 BYTE   BnM1
 BYTE   W01
 BYTE   AsM1
 BYTE   W01
 BYTE   AnM1
 BYTE   W01
 BYTE   GsM1
 BYTE   W02
 BYTE   GnM1
 BYTE   W01
 BYTE   FsM1
 BYTE   W01
 BYTE   FnM1
 BYTE   W01
 BYTE   EnM1
 BYTE   W03
 BYTE   En1
 BYTE   N06  Gn3
 BYTE   W01
 BYTE   VOL   40*FFMysticQuestWorldMapRandomWizard_mvl/mxv
 BYTE   W01
 BYTE   En1
 BYTE   W01
 BYTE   En1
 BYTE   W01
 BYTE   En1
 BYTE   W02
 BYTE   En1
 BYTE   N06  Bn3
 BYTE   W01
 BYTE   VOL   40*FFMysticQuestWorldMapRandomWizard_mvl/mxv
 BYTE   W01
 BYTE   En1
 BYTE   W01
 BYTE   En1
 BYTE   W01
 BYTE   En1
 BYTE   W02
 BYTE   En1
 BYTE   N48  Dn4
 BYTE   W01
 BYTE   VOL   40*FFMysticQuestWorldMapRandomWizard_mvl/mxv
 BYTE   W01
 BYTE   En1
 BYTE   W01
 BYTE   En1
 BYTE   W01
 BYTE   En1
 BYTE   W02
 BYTE   En1
 BYTE   W01
 BYTE   En1
 BYTE   W01
 BYTE   En1
 BYTE   W01
 BYTE   Ds1
 BYTE   W01
 BYTE   Dn1
 BYTE   W02
 BYTE   Cn1
 BYTE   W01
 BYTE   Bn0
 BYTE   W01
 BYTE   As0
 BYTE   W01
 BYTE   Gs0
 BYTE   W01
 BYTE   Gs0
 BYTE   W02
 BYTE   Fs0
 BYTE   W01
 BYTE   Fn0
 BYTE   W01
 BYTE   En0
 BYTE   W01
 BYTE   Ds0
 BYTE   W01
 BYTE   Cs0
 BYTE   W02
 BYTE   Cs0
 BYTE   W01
 BYTE   BnM1
 BYTE   W01
 BYTE   AsM1
 BYTE   W01
 BYTE   AnM1
 BYTE   W01
 BYTE   GsM1
 BYTE   W02
 BYTE   GnM1
 BYTE   W01
 BYTE   FsM1
 BYTE   W01
 BYTE   FnM1
 BYTE   W01
 BYTE   EnM1
 BYTE   W01
 BYTE   DnM1
 BYTE   W14
 BYTE   PEND 
// 007   ----------------------------------------
Label_0_01589B8A:
 BYTE   VOL   40*FFMysticQuestWorldMapRandomWizard_mvl/mxv
 BYTE   N24  Cn4  v127
 BYTE   W01
 BYTE   VOL   40*FFMysticQuestWorldMapRandomWizard_mvl/mxv
 BYTE   W01
 BYTE   En1
 BYTE   W01
 BYTE   En1
 BYTE   W01
 BYTE   En1
 BYTE   W02
 BYTE   En1
 BYTE   W01
 BYTE   En1
 BYTE   W01
 BYTE   En1
 BYTE   W01
 BYTE   Ds1
 BYTE   W01
 BYTE   Dn1
 BYTE   W02
 BYTE   Cn1
 BYTE   W01
 BYTE   Bn0
 BYTE   W01
 BYTE   As0
 BYTE   W01
 BYTE   Gs0
 BYTE   W01
 BYTE   Gs0
 BYTE   W02
 BYTE   Fs0
 BYTE   W01
 BYTE   Fn0
 BYTE   W01
 BYTE   En0
 BYTE   W01
 BYTE   Ds0
 BYTE   W01
 BYTE   Cs0
 BYTE   W02
 BYTE   En1
 BYTE   N24  Bn3
 BYTE   W01
 BYTE   VOL   40*FFMysticQuestWorldMapRandomWizard_mvl/mxv
 BYTE   W01
 BYTE   En1
 BYTE   W01
 BYTE   En1
 BYTE   W01
 BYTE   En1
 BYTE   W02
 BYTE   En1
 BYTE   W01
 BYTE   En1
 BYTE   W01
 BYTE   En1
 BYTE   W01
 BYTE   Ds1
 BYTE   W01
 BYTE   Dn1
 BYTE   W02
 BYTE   Cn1
 BYTE   W01
 BYTE   Bn0
 BYTE   W01
 BYTE   As0
 BYTE   W01
 BYTE   Gs0
 BYTE   W01
 BYTE   Gs0
 BYTE   W02
 BYTE   Fs0
 BYTE   W01
 BYTE   Fn0
 BYTE   W01
 BYTE   En0
 BYTE   W01
 BYTE   Ds0
 BYTE   W01
 BYTE   Cs0
 BYTE   W02
 BYTE   En1
 BYTE   N12  Cn4
 BYTE   W01
 BYTE   VOL   40*FFMysticQuestWorldMapRandomWizard_mvl/mxv
 BYTE   W01
 BYTE   En1
 BYTE   W01
 BYTE   En1
 BYTE   W01
 BYTE   En1
 BYTE   W02
 BYTE   En1
 BYTE   W01
 BYTE   En1
 BYTE   W01
 BYTE   En1
 BYTE   W01
 BYTE   Ds1
 BYTE   W01
 BYTE   Dn1
 BYTE   W02
 BYTE   En1
 BYTE   N12  Bn3
 BYTE   W01
 BYTE   VOL   40*FFMysticQuestWorldMapRandomWizard_mvl/mxv
 BYTE   W01
 BYTE   En1
 BYTE   W01
 BYTE   En1
 BYTE   W01
 BYTE   En1
 BYTE   W02
 BYTE   En1
 BYTE   W01
 BYTE   En1
 BYTE   W01
 BYTE   En1
 BYTE   W01
 BYTE   Ds1
 BYTE   W01
 BYTE   Dn1
 BYTE   W02
 BYTE   En1
 BYTE   N18  An3
 BYTE   W01
 BYTE   VOL   40*FFMysticQuestWorldMapRandomWizard_mvl/mxv
 BYTE   W01
 BYTE   En1
 BYTE   W01
 BYTE   En1
 BYTE   W01
 BYTE   En1
 BYTE   W02
 BYTE   En1
 BYTE   W01
 BYTE   En1
 BYTE   W01
 BYTE   En1
 BYTE   W01
 BYTE   Ds1
 BYTE   W01
 BYTE   Dn1
 BYTE   W02
 BYTE   Cn1
 BYTE   W01
 BYTE   Bn0
 BYTE   W01
 BYTE   As0
 BYTE   W01
 BYTE   Gs0
 BYTE   W01
 BYTE   Gs0
 BYTE   W02
 BYTE   En1
 BYTE   N06  Gn3
 BYTE   W01
 BYTE   VOL   40*FFMysticQuestWorldMapRandomWizard_mvl/mxv
 BYTE   W01
 BYTE   En1
 BYTE   W01
 BYTE   En1
 BYTE   W01
 BYTE   En1
 BYTE   W02
 BYTE   PEND 
// 008   ----------------------------------------
Label_0_01589C3F:
 BYTE   VOL   40*FFMysticQuestWorldMapRandomWizard_mvl/mxv
 BYTE   N36  Bn3  v127
 BYTE   W01
 BYTE   VOL   40*FFMysticQuestWorldMapRandomWizard_mvl/mxv
 BYTE   W01
 BYTE   En1
 BYTE   W01
 BYTE   En1
 BYTE   W01
 BYTE   En1
 BYTE   W02
 BYTE   En1
 BYTE   W01
 BYTE   En1
 BYTE   W01
 BYTE   En1
 BYTE   W01
 BYTE   Ds1
 BYTE   W01
 BYTE   Dn1
 BYTE   W02
 BYTE   Cn1
 BYTE   W01
 BYTE   Bn0
 BYTE   W01
 BYTE   As0
 BYTE   W01
 BYTE   Gs0
 BYTE   W01
 BYTE   Gs0
 BYTE   W02
 BYTE   Fs0
 BYTE   W01
 BYTE   Fn0
 BYTE   W01
 BYTE   En0
 BYTE   W01
 BYTE   Ds0
 BYTE   W01
 BYTE   Cs0
 BYTE   W02
 BYTE   Cs0
 BYTE   W01
 BYTE   BnM1
 BYTE   W01
 BYTE   AsM1
 BYTE   W01
 BYTE   AnM1
 BYTE   W01
 BYTE   GsM1
 BYTE   W02
 BYTE   GnM1
 BYTE   W01
 BYTE   FsM1
 BYTE   W01
 BYTE   FnM1
 BYTE   W01
 BYTE   EnM1
 BYTE   W01
 BYTE   DnM1
 BYTE   W02
 BYTE   En1
 BYTE   N06
 BYTE   W01
 BYTE   VOL   40*FFMysticQuestWorldMapRandomWizard_mvl/mxv
 BYTE   W01
 BYTE   En1
 BYTE   W01
 BYTE   En1
 BYTE   W01
 BYTE   En1
 BYTE   W02
 BYTE   En1
 BYTE   N06  An3
 BYTE   W01
 BYTE   VOL   40*FFMysticQuestWorldMapRandomWizard_mvl/mxv
 BYTE   W01
 BYTE   En1
 BYTE   W01
 BYTE   En1
 BYTE   W03
 BYTE   En1
 BYTE   N24  Bn3
 BYTE   W01
 BYTE   VOL   40*FFMysticQuestWorldMapRandomWizard_mvl/mxv
 BYTE   W01
 BYTE   En1
 BYTE   W01
 BYTE   En1
 BYTE   W01
 BYTE   En1
 BYTE   W02
 BYTE   En1
 BYTE   W01
 BYTE   En1
 BYTE   W01
 BYTE   En1
 BYTE   W01
 BYTE   Ds1
 BYTE   W01
 BYTE   Dn1
 BYTE   W02
 BYTE   Cn1
 BYTE   W01
 BYTE   Bn0
 BYTE   W01
 BYTE   As0
 BYTE   W01
 BYTE   Gs0
 BYTE   W01
 BYTE   Gs0
 BYTE   W02
 BYTE   Fs0
 BYTE   W01
 BYTE   Fn0
 BYTE   W01
 BYTE   En0
 BYTE   W01
 BYTE   Ds0
 BYTE   W01
 BYTE   Cs0
 BYTE   W02
 BYTE   En1
 BYTE   N18  Gn3
 BYTE   W01
 BYTE   VOL   40*FFMysticQuestWorldMapRandomWizard_mvl/mxv
 BYTE   W01
 BYTE   En1
 BYTE   W01
 BYTE   En1
 BYTE   W01
 BYTE   En1
 BYTE   W02
 BYTE   En1
 BYTE   W01
 BYTE   En1
 BYTE   W01
 BYTE   En1
 BYTE   W01
 BYTE   Ds1
 BYTE   W01
 BYTE   Dn1
 BYTE   W02
 BYTE   Cn1
 BYTE   W01
 BYTE   Bn0
 BYTE   W01
 BYTE   As0
 BYTE   W01
 BYTE   Gs0
 BYTE   W01
 BYTE   Gs0
 BYTE   W02
 BYTE   En1
 BYTE   N06  Bn3
 BYTE   W01
 BYTE   VOL   40*FFMysticQuestWorldMapRandomWizard_mvl/mxv
 BYTE   W01
 BYTE   En1
 BYTE   W01
 BYTE   En1
 BYTE   W01
 BYTE   En1
 BYTE   W02
 BYTE   PEND 
 BYTE   PATT
  POIN2 Label_0_01589785
 BYTE   PATT
  POIN2 Label_0_01589834
 BYTE   PATT
  POIN2 Label_0_015898E7
 BYTE   PATT
  POIN2 Label_0_01589994
 BYTE   PATT
  POIN2 Label_0_01589A42
 BYTE   PATT
  POIN2 Label_0_01589AF1
 BYTE   PATT
  POIN2 Label_0_01589B8A
 BYTE   PATT
  POIN2 Label_0_01589C3F
 BYTE   PATT
  POIN2 Label_0_01589785
 BYTE   PATT
  POIN2 Label_0_01589834
 BYTE   PATT
  POIN2 Label_0_015898E7
 BYTE   PATT
  POIN2 Label_0_01589994
 BYTE   PATT
  POIN2 Label_0_01589A42
 BYTE   PATT
  POIN2 Label_0_01589AF1
 BYTE   PATT
  POIN2 Label_0_01589B8A
 BYTE   PATT
  POIN2 Label_0_01589C3F
 BYTE   PATT
  POIN2 Label_0_01589785
 BYTE   PATT
  POIN2 Label_0_01589834
 BYTE   PATT
  POIN2 Label_0_015898E7
 BYTE   PATT
  POIN2 Label_0_01589994
 BYTE   PATT
  POIN2 Label_0_01589A42
 BYTE   PATT
  POIN2 Label_0_01589AF1
 BYTE   PATT
  POIN2 Label_0_01589B8A
// 009   ----------------------------------------
 BYTE   GoTo
  POIN2 Label_0_015896CE
 BYTE   FINE

//**************** Track 2 (Midi-Chn.1) ****************//

FFMysticQuestWorldMapRandomWizard_002:
// 000   ----------------------------------------
 BYTE   KEYSH   FFMysticQuestWorldMapRandomWizard_key+0
Label_1_01589D6E:
 BYTE   VOICE   34
 BYTE   VOL   40*FFMysticQuestWorldMapRandomWizard_mvl/mxv
 BYTE   PAN   c_v+0
 BYTE   N24  Gn1  v112
 BYTE   W01
 BYTE   VOL   38*FFMysticQuestWorldMapRandomWizard_mvl/mxv
 BYTE   W01
 BYTE   Cn1
 BYTE   W01
 BYTE   Bn0
 BYTE   W01
 BYTE   An0
 BYTE   W02
 BYTE   Gs0
 BYTE   W01
 BYTE   Fs0
 BYTE   W01
 BYTE   Fn0
 BYTE   W01
 BYTE   Ds0
 BYTE   W01
 BYTE   Dn0
 BYTE   W02
 BYTE   Cn0
 BYTE   W01
 BYTE   BnM1
 BYTE   W01
 BYTE   AnM1
 BYTE   W01
 BYTE   GsM1
 BYTE   W01
 BYTE   FsM1
 BYTE   W02
 BYTE   EnM1
 BYTE   W01
 BYTE   DsM1
 BYTE   W01
 BYTE   CsM1
 BYTE   W01
 BYTE   CnM1
 BYTE   W01
 BYTE   AsM2
 BYTE   W02
 BYTE   En1
 BYTE   N24  Dn1
 BYTE   W01
 BYTE   VOL   38*FFMysticQuestWorldMapRandomWizard_mvl/mxv
 BYTE   W01
 BYTE   Cn1
 BYTE   W01
 BYTE   Bn0
 BYTE   W01
 BYTE   An0
 BYTE   W02
 BYTE   Gs0
 BYTE   W01
 BYTE   Fs0
 BYTE   W01
 BYTE   En0
 BYTE   W01
 BYTE   Ds0
 BYTE   W01
 BYTE   Dn0
 BYTE   W02
 BYTE   Cn0
 BYTE   W01
 BYTE   BnM1
 BYTE   W01
 BYTE   AnM1
 BYTE   W01
 BYTE   GsM1
 BYTE   W01
 BYTE   FsM1
 BYTE   W02
 BYTE   EnM1
 BYTE   W01
 BYTE   DsM1
 BYTE   W01
 BYTE   CsM1
 BYTE   W01
 BYTE   CnM1
 BYTE   W01
 BYTE   AsM2
 BYTE   W02
 BYTE   En1
 BYTE   N24  Gn1
 BYTE   W01
 BYTE   VOL   38*FFMysticQuestWorldMapRandomWizard_mvl/mxv
 BYTE   W01
 BYTE   Cn1
 BYTE   W01
 BYTE   Bn0
 BYTE   W01
 BYTE   An0
 BYTE   W02
 BYTE   Gs0
 BYTE   W01
 BYTE   Fs0
 BYTE   W01
 BYTE   En0
 BYTE   W01
 BYTE   Ds0
 BYTE   W01
 BYTE   Dn0
 BYTE   W02
 BYTE   Cn0
 BYTE   W01
 BYTE   BnM1
 BYTE   W01
 BYTE   AnM1
 BYTE   W01
 BYTE   GsM1
 BYTE   W01
 BYTE   FsM1
 BYTE   W02
 BYTE   EnM1
 BYTE   W01
 BYTE   DsM1
 BYTE   W01
 BYTE   CsM1
 BYTE   W01
 BYTE   CnM1
 BYTE   W01
 BYTE   AsM2
 BYTE   W02
 BYTE   En1
 BYTE   N24  Dn1
 BYTE   W01
 BYTE   VOL   38*FFMysticQuestWorldMapRandomWizard_mvl/mxv
 BYTE   W01
 BYTE   Cn1
 BYTE   W01
 BYTE   Bn0
 BYTE   W01
 BYTE   An0
 BYTE   W01
 BYTE   Gs0
 BYTE   W02
 BYTE   Fs0
 BYTE   W01
 BYTE   En0
 BYTE   W01
 BYTE   Ds0
 BYTE   W01
 BYTE   Dn0
 BYTE   W02
 BYTE   Cn0
 BYTE   W01
 BYTE   BnM1
 BYTE   W01
 BYTE   AnM1
 BYTE   W01
 BYTE   GsM1
 BYTE   W01
 BYTE   FsM1
 BYTE   W02
 BYTE   EnM1
 BYTE   W01
 BYTE   DsM1
 BYTE   W01
 BYTE   CsM1
 BYTE   W01
 BYTE   CnM1
 BYTE   W02
 BYTE   AnM2
 BYTE   W01
// 001   ----------------------------------------
Label_1_01589E20:
 BYTE   VOL   40*FFMysticQuestWorldMapRandomWizard_mvl/mxv
 BYTE   N24  Fn1  v112
 BYTE   W01
 BYTE   VOL   38*FFMysticQuestWorldMapRandomWizard_mvl/mxv
 BYTE   W01
 BYTE   Cn1
 BYTE   W01
 BYTE   Bn0
 BYTE   W01
 BYTE   An0
 BYTE   W02
 BYTE   Gs0
 BYTE   W01
 BYTE   Fs0
 BYTE   W01
 BYTE   Fn0
 BYTE   W01
 BYTE   Ds0
 BYTE   W01
 BYTE   Dn0
 BYTE   W02
 BYTE   Cn0
 BYTE   W01
 BYTE   BnM1
 BYTE   W01
 BYTE   AnM1
 BYTE   W01
 BYTE   GsM1
 BYTE   W01
 BYTE   FsM1
 BYTE   W02
 BYTE   EnM1
 BYTE   W01
 BYTE   DsM1
 BYTE   W01
 BYTE   CsM1
 BYTE   W01
 BYTE   CnM1
 BYTE   W01
 BYTE   AsM2
 BYTE   W02
 BYTE   En1
 BYTE   N24  Cn1
 BYTE   W01
 BYTE   VOL   38*FFMysticQuestWorldMapRandomWizard_mvl/mxv
 BYTE   W01
 BYTE   Cn1
 BYTE   W01
 BYTE   Bn0
 BYTE   W01
 BYTE   An0
 BYTE   W02
 BYTE   Gs0
 BYTE   W01
 BYTE   Fs0
 BYTE   W01
 BYTE   En0
 BYTE   W01
 BYTE   Ds0
 BYTE   W01
 BYTE   Dn0
 BYTE   W02
 BYTE   Cn0
 BYTE   W01
 BYTE   BnM1
 BYTE   W01
 BYTE   AnM1
 BYTE   W01
 BYTE   GsM1
 BYTE   W01
 BYTE   FsM1
 BYTE   W02
 BYTE   EnM1
 BYTE   W01
 BYTE   DsM1
 BYTE   W01
 BYTE   CsM1
 BYTE   W01
 BYTE   CnM1
 BYTE   W01
 BYTE   AsM2
 BYTE   W02
 BYTE   En1
 BYTE   N24  Fn1
 BYTE   W01
 BYTE   VOL   38*FFMysticQuestWorldMapRandomWizard_mvl/mxv
 BYTE   W01
 BYTE   Cn1
 BYTE   W01
 BYTE   Bn0
 BYTE   W01
 BYTE   An0
 BYTE   W02
 BYTE   Gs0
 BYTE   W01
 BYTE   Fs0
 BYTE   W01
 BYTE   En0
 BYTE   W01
 BYTE   Ds0
 BYTE   W01
 BYTE   Dn0
 BYTE   W02
 BYTE   Cn0
 BYTE   W01
 BYTE   BnM1
 BYTE   W01
 BYTE   AnM1
 BYTE   W01
 BYTE   GsM1
 BYTE   W01
 BYTE   FsM1
 BYTE   W02
 BYTE   EnM1
 BYTE   W01
 BYTE   DsM1
 BYTE   W01
 BYTE   CsM1
 BYTE   W01
 BYTE   CnM1
 BYTE   W01
 BYTE   AsM2
 BYTE   W02
 BYTE   En1
 BYTE   N24  Cn1
 BYTE   W01
 BYTE   VOL   38*FFMysticQuestWorldMapRandomWizard_mvl/mxv
 BYTE   W01
 BYTE   Cn1
 BYTE   W01
 BYTE   Bn0
 BYTE   W01
 BYTE   An0
 BYTE   W01
 BYTE   Gs0
 BYTE   W02
 BYTE   Fs0
 BYTE   W01
 BYTE   En0
 BYTE   W01
 BYTE   Ds0
 BYTE   W01
 BYTE   Dn0
 BYTE   W02
 BYTE   Cn0
 BYTE   W01
 BYTE   BnM1
 BYTE   W01
 BYTE   AnM1
 BYTE   W01
 BYTE   GsM1
 BYTE   W01
 BYTE   FsM1
 BYTE   W02
 BYTE   EnM1
 BYTE   W01
 BYTE   DsM1
 BYTE   W01
 BYTE   CsM1
 BYTE   W01
 BYTE   CnM1
 BYTE   W02
 BYTE   AnM2
 BYTE   W01
 BYTE   PEND 
// 002   ----------------------------------------
Label_1_01589ECF:
 BYTE   VOL   40*FFMysticQuestWorldMapRandomWizard_mvl/mxv
 BYTE   N24  Gn1  v112
 BYTE   W01
 BYTE   VOL   38*FFMysticQuestWorldMapRandomWizard_mvl/mxv
 BYTE   W01
 BYTE   Cn1
 BYTE   W01
 BYTE   Bn0
 BYTE   W01
 BYTE   An0
 BYTE   W02
 BYTE   Gs0
 BYTE   W01
 BYTE   Fs0
 BYTE   W01
 BYTE   Fn0
 BYTE   W01
 BYTE   Ds0
 BYTE   W01
 BYTE   Dn0
 BYTE   W02
 BYTE   Cn0
 BYTE   W01
 BYTE   BnM1
 BYTE   W01
 BYTE   AnM1
 BYTE   W01
 BYTE   GsM1
 BYTE   W01
 BYTE   FsM1
 BYTE   W02
 BYTE   EnM1
 BYTE   W01
 BYTE   DsM1
 BYTE   W01
 BYTE   CsM1
 BYTE   W01
 BYTE   CnM1
 BYTE   W01
 BYTE   AsM2
 BYTE   W02
 BYTE   En1
 BYTE   N24  Dn1
 BYTE   W01
 BYTE   VOL   38*FFMysticQuestWorldMapRandomWizard_mvl/mxv
 BYTE   W01
 BYTE   Cn1
 BYTE   W01
 BYTE   Bn0
 BYTE   W01
 BYTE   An0
 BYTE   W02
 BYTE   Gs0
 BYTE   W01
 BYTE   Fs0
 BYTE   W01
 BYTE   En0
 BYTE   W01
 BYTE   Ds0
 BYTE   W01
 BYTE   Dn0
 BYTE   W02
 BYTE   Cn0
 BYTE   W01
 BYTE   BnM1
 BYTE   W01
 BYTE   AnM1
 BYTE   W01
 BYTE   GsM1
 BYTE   W01
 BYTE   FsM1
 BYTE   W02
 BYTE   EnM1
 BYTE   W01
 BYTE   DsM1
 BYTE   W01
 BYTE   CsM1
 BYTE   W01
 BYTE   CnM1
 BYTE   W01
 BYTE   AsM2
 BYTE   W02
 BYTE   En1
 BYTE   N24  Gn1
 BYTE   W01
 BYTE   VOL   38*FFMysticQuestWorldMapRandomWizard_mvl/mxv
 BYTE   W01
 BYTE   Cn1
 BYTE   W01
 BYTE   Bn0
 BYTE   W01
 BYTE   An0
 BYTE   W02
 BYTE   Gs0
 BYTE   W01
 BYTE   Fs0
 BYTE   W01
 BYTE   En0
 BYTE   W01
 BYTE   Ds0
 BYTE   W01
 BYTE   Dn0
 BYTE   W02
 BYTE   Cn0
 BYTE   W01
 BYTE   BnM1
 BYTE   W01
 BYTE   AnM1
 BYTE   W01
 BYTE   GsM1
 BYTE   W01
 BYTE   FsM1
 BYTE   W02
 BYTE   EnM1
 BYTE   W01
 BYTE   DsM1
 BYTE   W01
 BYTE   CsM1
 BYTE   W01
 BYTE   CnM1
 BYTE   W01
 BYTE   AsM2
 BYTE   W02
 BYTE   En1
 BYTE   N24  Dn1
 BYTE   W01
 BYTE   VOL   38*FFMysticQuestWorldMapRandomWizard_mvl/mxv
 BYTE   W01
 BYTE   Cn1
 BYTE   W01
 BYTE   Bn0
 BYTE   W01
 BYTE   An0
 BYTE   W01
 BYTE   Gs0
 BYTE   W02
 BYTE   Fs0
 BYTE   W01
 BYTE   En0
 BYTE   W01
 BYTE   Ds0
 BYTE   W01
 BYTE   Dn0
 BYTE   W02
 BYTE   Cn0
 BYTE   W01
 BYTE   BnM1
 BYTE   W01
 BYTE   AnM1
 BYTE   W01
 BYTE   GsM1
 BYTE   W01
 BYTE   FsM1
 BYTE   W02
 BYTE   EnM1
 BYTE   W01
 BYTE   DsM1
 BYTE   W01
 BYTE   CsM1
 BYTE   W01
 BYTE   CnM1
 BYTE   W02
 BYTE   AnM2
 BYTE   W01
 BYTE   PEND 
// 003   ----------------------------------------
Label_1_01589F7E:
 BYTE   VOL   40*FFMysticQuestWorldMapRandomWizard_mvl/mxv
 BYTE   N24  Fn1  v112
 BYTE   W01
 BYTE   VOL   38*FFMysticQuestWorldMapRandomWizard_mvl/mxv
 BYTE   W01
 BYTE   Cn1
 BYTE   W01
 BYTE   Bn0
 BYTE   W01
 BYTE   An0
 BYTE   W02
 BYTE   Gs0
 BYTE   W01
 BYTE   Fs0
 BYTE   W01
 BYTE   Fn0
 BYTE   W01
 BYTE   Ds0
 BYTE   W01
 BYTE   Dn0
 BYTE   W02
 BYTE   Cn0
 BYTE   W01
 BYTE   BnM1
 BYTE   W01
 BYTE   AnM1
 BYTE   W01
 BYTE   GsM1
 BYTE   W01
 BYTE   FsM1
 BYTE   W02
 BYTE   EnM1
 BYTE   W01
 BYTE   DsM1
 BYTE   W01
 BYTE   CsM1
 BYTE   W01
 BYTE   CnM1
 BYTE   W01
 BYTE   AsM2
 BYTE   W02
 BYTE   En1
 BYTE   N24  Cn1
 BYTE   W01
 BYTE   VOL   38*FFMysticQuestWorldMapRandomWizard_mvl/mxv
 BYTE   W01
 BYTE   Cn1
 BYTE   W01
 BYTE   Bn0
 BYTE   W01
 BYTE   An0
 BYTE   W02
 BYTE   Gs0
 BYTE   W01
 BYTE   Fs0
 BYTE   W01
 BYTE   En0
 BYTE   W01
 BYTE   Ds0
 BYTE   W01
 BYTE   Dn0
 BYTE   W02
 BYTE   Cn0
 BYTE   W01
 BYTE   BnM1
 BYTE   W01
 BYTE   AnM1
 BYTE   W01
 BYTE   GsM1
 BYTE   W01
 BYTE   FsM1
 BYTE   W02
 BYTE   EnM1
 BYTE   W01
 BYTE   DsM1
 BYTE   W01
 BYTE   CsM1
 BYTE   W01
 BYTE   CnM1
 BYTE   W01
 BYTE   AsM2
 BYTE   W02
 BYTE   En1
 BYTE   N24  Fn1
 BYTE   W01
 BYTE   VOL   38*FFMysticQuestWorldMapRandomWizard_mvl/mxv
 BYTE   W01
 BYTE   Cn1
 BYTE   W01
 BYTE   Bn0
 BYTE   W01
 BYTE   An0
 BYTE   W02
 BYTE   Gs0
 BYTE   W01
 BYTE   Fs0
 BYTE   W01
 BYTE   En0
 BYTE   W01
 BYTE   Ds0
 BYTE   W01
 BYTE   Dn0
 BYTE   W02
 BYTE   Cn0
 BYTE   W01
 BYTE   BnM1
 BYTE   W01
 BYTE   AnM1
 BYTE   W01
 BYTE   GsM1
 BYTE   W01
 BYTE   FsM1
 BYTE   W02
 BYTE   EnM1
 BYTE   W01
 BYTE   DsM1
 BYTE   W01
 BYTE   CsM1
 BYTE   W01
 BYTE   CnM1
 BYTE   W01
 BYTE   AsM2
 BYTE   W02
 BYTE   En1
 BYTE   N24  An1
 BYTE   W01
 BYTE   VOL   38*FFMysticQuestWorldMapRandomWizard_mvl/mxv
 BYTE   W01
 BYTE   Cn1
 BYTE   W01
 BYTE   Bn0
 BYTE   W01
 BYTE   An0
 BYTE   W01
 BYTE   Gs0
 BYTE   W02
 BYTE   Fs0
 BYTE   W01
 BYTE   En0
 BYTE   W01
 BYTE   Ds0
 BYTE   W01
 BYTE   Dn0
 BYTE   W02
 BYTE   Cn0
 BYTE   W01
 BYTE   BnM1
 BYTE   W01
 BYTE   AnM1
 BYTE   W01
 BYTE   GsM1
 BYTE   W01
 BYTE   FsM1
 BYTE   W02
 BYTE   EnM1
 BYTE   W01
 BYTE   DsM1
 BYTE   W01
 BYTE   CsM1
 BYTE   W01
 BYTE   CnM1
 BYTE   W02
 BYTE   AnM2
 BYTE   W01
 BYTE   PEND 
 BYTE   PATT
  POIN2 Label_1_01589ECF
 BYTE   PATT
  POIN2 Label_1_01589E20
 BYTE   PATT
  POIN2 Label_1_01589ECF
 BYTE   PATT
  POIN2 Label_1_01589E20
 BYTE   PATT
  POIN2 Label_1_01589ECF
 BYTE   PATT
  POIN2 Label_1_01589E20
 BYTE   PATT
  POIN2 Label_1_01589ECF
 BYTE   PATT
  POIN2 Label_1_01589F7E
 BYTE   PATT
  POIN2 Label_1_01589ECF
 BYTE   PATT
  POIN2 Label_1_01589E20
 BYTE   PATT
  POIN2 Label_1_01589ECF
 BYTE   PATT
  POIN2 Label_1_01589E20
 BYTE   PATT
  POIN2 Label_1_01589ECF
 BYTE   PATT
  POIN2 Label_1_01589E20
 BYTE   PATT
  POIN2 Label_1_01589ECF
 BYTE   PATT
  POIN2 Label_1_01589F7E
 BYTE   PATT
  POIN2 Label_1_01589ECF
 BYTE   PATT
  POIN2 Label_1_01589E20
 BYTE   PATT
  POIN2 Label_1_01589ECF
 BYTE   PATT
  POIN2 Label_1_01589E20
 BYTE   PATT
  POIN2 Label_1_01589ECF
 BYTE   PATT
  POIN2 Label_1_01589E20
 BYTE   PATT
  POIN2 Label_1_01589ECF
 BYTE   PATT
  POIN2 Label_1_01589F7E
 BYTE   PATT
  POIN2 Label_1_01589ECF
 BYTE   PATT
  POIN2 Label_1_01589E20
 BYTE   PATT
  POIN2 Label_1_01589ECF
 BYTE   PATT
  POIN2 Label_1_01589E20
// 004   ----------------------------------------
 BYTE   GoTo
  POIN2 Label_1_01589D6E
 BYTE   FINE

//**************** Track 3 (Midi-Chn.2) ****************//

FFMysticQuestWorldMapRandomWizard_003:
// 000   ----------------------------------------
 BYTE   KEYSH   FFMysticQuestWorldMapRandomWizard_key+0
Label_2_0158A0C2:
 BYTE   VOICE   48
 BYTE   VOL   40*FFMysticQuestWorldMapRandomWizard_mvl/mxv
 BYTE   PAN   c_v-54
 BYTE   N21  Dn4  v100
 BYTE   W01
 BYTE   VOL   40*FFMysticQuestWorldMapRandomWizard_mvl/mxv
 BYTE   W01
 BYTE   En1
 BYTE   W02
 BYTE   En1
 BYTE   W01
 BYTE   Ds1
 BYTE   W01
 BYTE   Cs1
 BYTE   W01
 BYTE   Bn0
 BYTE   W02
 BYTE   Gs0
 BYTE   W01
 BYTE   Gn0
 BYTE   W02
 BYTE   Fn0
 BYTE   W01
 BYTE   Ds0
 BYTE   W01
 BYTE   Cs0
 BYTE   W01
 BYTE   BnM1
 BYTE   W02
 BYTE   AnM1
 BYTE   W01
 BYTE   GnM1
 BYTE   W02
 BYTE   FnM1
 BYTE   W01
 BYTE   DsM1
 BYTE   W03
 BYTE   En1
 BYTE   N21
 BYTE   W01
 BYTE   VOL   40*FFMysticQuestWorldMapRandomWizard_mvl/mxv
 BYTE   W01
 BYTE   En1
 BYTE   W02
 BYTE   En1
 BYTE   W01
 BYTE   Ds1
 BYTE   W01
 BYTE   Cs1
 BYTE   W01
 BYTE   Bn0
 BYTE   W02
 BYTE   Gs0
 BYTE   W01
 BYTE   Gn0
 BYTE   W02
 BYTE   Fn0
 BYTE   W01
 BYTE   Ds0
 BYTE   W01
 BYTE   Cs0
 BYTE   W01
 BYTE   BnM1
 BYTE   W02
 BYTE   AnM1
 BYTE   W01
 BYTE   GnM1
 BYTE   W02
 BYTE   FnM1
 BYTE   W01
 BYTE   DsM1
 BYTE   W03
 BYTE   En1
 BYTE   N21
 BYTE   W01
 BYTE   VOL   40*FFMysticQuestWorldMapRandomWizard_mvl/mxv
 BYTE   W01
 BYTE   En1
 BYTE   W02
 BYTE   En1
 BYTE   W01
 BYTE   Ds1
 BYTE   W01
 BYTE   Cs1
 BYTE   W02
 BYTE   Bn0
 BYTE   W01
 BYTE   Gs0
 BYTE   W01
 BYTE   Gn0
 BYTE   W02
 BYTE   Fn0
 BYTE   W01
 BYTE   Ds0
 BYTE   W01
 BYTE   Cs0
 BYTE   W02
 BYTE   BnM1
 BYTE   W01
 BYTE   AnM1
 BYTE   W01
 BYTE   GnM1
 BYTE   W02
 BYTE   FnM1
 BYTE   W01
 BYTE   DsM1
 BYTE   W03
 BYTE   En1
 BYTE   N06
 BYTE   W01
 BYTE   VOL   40*FFMysticQuestWorldMapRandomWizard_mvl/mxv
 BYTE   W01
 BYTE   En1
 BYTE   W02
 BYTE   Dn1
 BYTE   W01
 BYTE   As0
 BYTE   W03
 BYTE   En1
 BYTE   N06
 BYTE   W01
 BYTE   VOL   40*FFMysticQuestWorldMapRandomWizard_mvl/mxv
 BYTE   W01
 BYTE   En1
 BYTE   W02
 BYTE   Dn1
 BYTE   W01
 BYTE   As0
 BYTE   W03
 BYTE   En1
 BYTE   N06
 BYTE   W01
 BYTE   VOL   40*FFMysticQuestWorldMapRandomWizard_mvl/mxv
 BYTE   W01
 BYTE   En1
 BYTE   W02
 BYTE   Dn1
 BYTE   W01
 BYTE   As0
 BYTE   W03
// 001   ----------------------------------------
Label_2_0158A159:
 BYTE   VOL   40*FFMysticQuestWorldMapRandomWizard_mvl/mxv
 BYTE   N21  Cn4  v100
 BYTE   W01
 BYTE   VOL   40*FFMysticQuestWorldMapRandomWizard_mvl/mxv
 BYTE   W01
 BYTE   En1
 BYTE   W02
 BYTE   En1
 BYTE   W01
 BYTE   Ds1
 BYTE   W01
 BYTE   Cs1
 BYTE   W01
 BYTE   Bn0
 BYTE   W02
 BYTE   Gs0
 BYTE   W01
 BYTE   Gn0
 BYTE   W02
 BYTE   Fn0
 BYTE   W01
 BYTE   Ds0
 BYTE   W01
 BYTE   Cs0
 BYTE   W01
 BYTE   BnM1
 BYTE   W02
 BYTE   AnM1
 BYTE   W01
 BYTE   GnM1
 BYTE   W02
 BYTE   FnM1
 BYTE   W01
 BYTE   DsM1
 BYTE   W03
 BYTE   En1
 BYTE   N21
 BYTE   W01
 BYTE   VOL   40*FFMysticQuestWorldMapRandomWizard_mvl/mxv
 BYTE   W01
 BYTE   En1
 BYTE   W02
 BYTE   En1
 BYTE   W01
 BYTE   Ds1
 BYTE   W01
 BYTE   Cs1
 BYTE   W01
 BYTE   Bn0
 BYTE   W02
 BYTE   Gs0
 BYTE   W01
 BYTE   Gn0
 BYTE   W02
 BYTE   Fn0
 BYTE   W01
 BYTE   Ds0
 BYTE   W01
 BYTE   Cs0
 BYTE   W01
 BYTE   BnM1
 BYTE   W02
 BYTE   AnM1
 BYTE   W01
 BYTE   GnM1
 BYTE   W02
 BYTE   FnM1
 BYTE   W01
 BYTE   DsM1
 BYTE   W03
 BYTE   En1
 BYTE   N21
 BYTE   W01
 BYTE   VOL   40*FFMysticQuestWorldMapRandomWizard_mvl/mxv
 BYTE   W01
 BYTE   En1
 BYTE   W02
 BYTE   En1
 BYTE   W01
 BYTE   Ds1
 BYTE   W01
 BYTE   Cs1
 BYTE   W02
 BYTE   Bn0
 BYTE   W01
 BYTE   Gs0
 BYTE   W01
 BYTE   Gn0
 BYTE   W02
 BYTE   Fn0
 BYTE   W01
 BYTE   Ds0
 BYTE   W01
 BYTE   Cs0
 BYTE   W02
 BYTE   BnM1
 BYTE   W01
 BYTE   AnM1
 BYTE   W01
 BYTE   GnM1
 BYTE   W02
 BYTE   FnM1
 BYTE   W01
 BYTE   DsM1
 BYTE   W03
 BYTE   En1
 BYTE   N06
 BYTE   W01
 BYTE   VOL   40*FFMysticQuestWorldMapRandomWizard_mvl/mxv
 BYTE   W01
 BYTE   En1
 BYTE   W02
 BYTE   Dn1
 BYTE   W01
 BYTE   As0
 BYTE   W03
 BYTE   En1
 BYTE   N06
 BYTE   W01
 BYTE   VOL   40*FFMysticQuestWorldMapRandomWizard_mvl/mxv
 BYTE   W01
 BYTE   En1
 BYTE   W02
 BYTE   Dn1
 BYTE   W01
 BYTE   As0
 BYTE   W03
 BYTE   En1
 BYTE   N06
 BYTE   W01
 BYTE   VOL   40*FFMysticQuestWorldMapRandomWizard_mvl/mxv
 BYTE   W01
 BYTE   En1
 BYTE   W02
 BYTE   Dn1
 BYTE   W01
 BYTE   As0
 BYTE   W03
 BYTE   PEND 
// 002   ----------------------------------------
Label_2_0158A1ED:
 BYTE   VOL   40*FFMysticQuestWorldMapRandomWizard_mvl/mxv
 BYTE   N21  Dn4  v100
 BYTE   W01
 BYTE   VOL   40*FFMysticQuestWorldMapRandomWizard_mvl/mxv
 BYTE   W01
 BYTE   En1
 BYTE   W02
 BYTE   En1
 BYTE   W01
 BYTE   Ds1
 BYTE   W01
 BYTE   Cs1
 BYTE   W01
 BYTE   Bn0
 BYTE   W02
 BYTE   Gs0
 BYTE   W01
 BYTE   Gn0
 BYTE   W02
 BYTE   Fn0
 BYTE   W01
 BYTE   Ds0
 BYTE   W01
 BYTE   Cs0
 BYTE   W01
 BYTE   BnM1
 BYTE   W02
 BYTE   AnM1
 BYTE   W01
 BYTE   GnM1
 BYTE   W02
 BYTE   FnM1
 BYTE   W01
 BYTE   DsM1
 BYTE   W03
 BYTE   En1
 BYTE   N21
 BYTE   W01
 BYTE   VOL   40*FFMysticQuestWorldMapRandomWizard_mvl/mxv
 BYTE   W01
 BYTE   En1
 BYTE   W02
 BYTE   En1
 BYTE   W01
 BYTE   Ds1
 BYTE   W01
 BYTE   Cs1
 BYTE   W01
 BYTE   Bn0
 BYTE   W02
 BYTE   Gs0
 BYTE   W01
 BYTE   Gn0
 BYTE   W02
 BYTE   Fn0
 BYTE   W01
 BYTE   Ds0
 BYTE   W01
 BYTE   Cs0
 BYTE   W01
 BYTE   BnM1
 BYTE   W02
 BYTE   AnM1
 BYTE   W01
 BYTE   GnM1
 BYTE   W02
 BYTE   FnM1
 BYTE   W01
 BYTE   DsM1
 BYTE   W03
 BYTE   En1
 BYTE   N21
 BYTE   W01
 BYTE   VOL   40*FFMysticQuestWorldMapRandomWizard_mvl/mxv
 BYTE   W01
 BYTE   En1
 BYTE   W02
 BYTE   En1
 BYTE   W01
 BYTE   Ds1
 BYTE   W01
 BYTE   Cs1
 BYTE   W02
 BYTE   Bn0
 BYTE   W01
 BYTE   Gs0
 BYTE   W01
 BYTE   Gn0
 BYTE   W02
 BYTE   Fn0
 BYTE   W01
 BYTE   Ds0
 BYTE   W01
 BYTE   Cs0
 BYTE   W02
 BYTE   BnM1
 BYTE   W01
 BYTE   AnM1
 BYTE   W01
 BYTE   GnM1
 BYTE   W02
 BYTE   FnM1
 BYTE   W01
 BYTE   DsM1
 BYTE   W03
 BYTE   En1
 BYTE   N06
 BYTE   W01
 BYTE   VOL   40*FFMysticQuestWorldMapRandomWizard_mvl/mxv
 BYTE   W01
 BYTE   En1
 BYTE   W02
 BYTE   Dn1
 BYTE   W01
 BYTE   As0
 BYTE   W03
 BYTE   En1
 BYTE   N06
 BYTE   W01
 BYTE   VOL   40*FFMysticQuestWorldMapRandomWizard_mvl/mxv
 BYTE   W01
 BYTE   En1
 BYTE   W02
 BYTE   Dn1
 BYTE   W01
 BYTE   As0
 BYTE   W03
 BYTE   En1
 BYTE   N06
 BYTE   W01
 BYTE   VOL   40*FFMysticQuestWorldMapRandomWizard_mvl/mxv
 BYTE   W01
 BYTE   En1
 BYTE   W02
 BYTE   Dn1
 BYTE   W01
 BYTE   As0
 BYTE   W03
 BYTE   PEND 
 BYTE   PATT
  POIN2 Label_2_0158A159
 BYTE   PATT
  POIN2 Label_2_0158A1ED
 BYTE   PATT
  POIN2 Label_2_0158A159
 BYTE   PATT
  POIN2 Label_2_0158A1ED
 BYTE   PATT
  POIN2 Label_2_0158A159
 BYTE   PATT
  POIN2 Label_2_0158A1ED
 BYTE   PATT
  POIN2 Label_2_0158A159
 BYTE   PATT
  POIN2 Label_2_0158A1ED
 BYTE   PATT
  POIN2 Label_2_0158A159
 BYTE   PATT
  POIN2 Label_2_0158A1ED
 BYTE   PATT
  POIN2 Label_2_0158A159
 BYTE   PATT
  POIN2 Label_2_0158A1ED
 BYTE   PATT
  POIN2 Label_2_0158A159
 BYTE   PATT
  POIN2 Label_2_0158A1ED
 BYTE   PATT
  POIN2 Label_2_0158A159
 BYTE   PATT
  POIN2 Label_2_0158A1ED
 BYTE   PATT
  POIN2 Label_2_0158A159
 BYTE   PATT
  POIN2 Label_2_0158A1ED
 BYTE   PATT
  POIN2 Label_2_0158A159
 BYTE   PATT
  POIN2 Label_2_0158A1ED
 BYTE   PATT
  POIN2 Label_2_0158A159
 BYTE   PATT
  POIN2 Label_2_0158A1ED
 BYTE   PATT
  POIN2 Label_2_0158A159
 BYTE   PATT
  POIN2 Label_2_0158A1ED
 BYTE   PATT
  POIN2 Label_2_0158A159
 BYTE   PATT
  POIN2 Label_2_0158A1ED
 BYTE   PATT
  POIN2 Label_2_0158A159
 BYTE   PATT
  POIN2 Label_2_0158A1ED
 BYTE   PATT
  POIN2 Label_2_0158A159
// 003   ----------------------------------------
 BYTE   GoTo
  POIN2 Label_2_0158A0C2
 BYTE   FINE

//**************** Track 4 (Midi-Chn.3) ****************//

FFMysticQuestWorldMapRandomWizard_004:
// 000   ----------------------------------------
 BYTE   KEYSH   FFMysticQuestWorldMapRandomWizard_key+0
Label_3_0158A31A:
 BYTE   VOICE   48
 BYTE   PAN   c_v+53
 BYTE   VOL   40*FFMysticQuestWorldMapRandomWizard_mvl/mxv
 BYTE   N21  Gn3  v068
 BYTE   N21  Bn3  v100
 BYTE   W01
 BYTE   VOL   40*FFMysticQuestWorldMapRandomWizard_mvl/mxv
 BYTE   W01
 BYTE   En1
 BYTE   W02
 BYTE   En1
 BYTE   W01
 BYTE   Ds1
 BYTE   W01
 BYTE   Cs1
 BYTE   W01
 BYTE   Bn0
 BYTE   W02
 BYTE   Gs0
 BYTE   W01
 BYTE   Gn0
 BYTE   W02
 BYTE   Fn0
 BYTE   W01
 BYTE   Ds0
 BYTE   W01
 BYTE   Cs0
 BYTE   W01
 BYTE   BnM1
 BYTE   W02
 BYTE   AnM1
 BYTE   W01
 BYTE   GnM1
 BYTE   W02
 BYTE   FnM1
 BYTE   W01
 BYTE   DsM1
 BYTE   W03
 BYTE   En1
 BYTE   N21  Gn3  v068
 BYTE   N21  Bn3  v100
 BYTE   W01
 BYTE   VOL   40*FFMysticQuestWorldMapRandomWizard_mvl/mxv
 BYTE   W01
 BYTE   En1
 BYTE   W02
 BYTE   En1
 BYTE   W01
 BYTE   Ds1
 BYTE   W01
 BYTE   Cs1
 BYTE   W01
 BYTE   Bn0
 BYTE   W02
 BYTE   Gs0
 BYTE   W01
 BYTE   Gn0
 BYTE   W02
 BYTE   Fn0
 BYTE   W01
 BYTE   Ds0
 BYTE   W01
 BYTE   Cs0
 BYTE   W01
 BYTE   BnM1
 BYTE   W02
 BYTE   AnM1
 BYTE   W01
 BYTE   GnM1
 BYTE   W02
 BYTE   FnM1
 BYTE   W01
 BYTE   DsM1
 BYTE   W03
 BYTE   En1
 BYTE   N21  Gn3  v068
 BYTE   N21  Bn3  v100
 BYTE   W01
 BYTE   VOL   40*FFMysticQuestWorldMapRandomWizard_mvl/mxv
 BYTE   W01
 BYTE   En1
 BYTE   W02
 BYTE   En1
 BYTE   W01
 BYTE   Ds1
 BYTE   W01
 BYTE   Cs1
 BYTE   W02
 BYTE   Bn0
 BYTE   W01
 BYTE   Gs0
 BYTE   W01
 BYTE   Gn0
 BYTE   W02
 BYTE   Fn0
 BYTE   W01
 BYTE   Ds0
 BYTE   W01
 BYTE   Cs0
 BYTE   W02
 BYTE   BnM1
 BYTE   W01
 BYTE   AnM1
 BYTE   W01
 BYTE   GnM1
 BYTE   W02
 BYTE   FnM1
 BYTE   W01
 BYTE   DsM1
 BYTE   W03
 BYTE   En1
 BYTE   N06  Gn3  v068
 BYTE   N06  Bn3  v100
 BYTE   W01
 BYTE   VOL   40*FFMysticQuestWorldMapRandomWizard_mvl/mxv
 BYTE   W01
 BYTE   En1
 BYTE   W02
 BYTE   Dn1
 BYTE   W01
 BYTE   As0
 BYTE   W03
 BYTE   En1
 BYTE   N06  Gn3  v068
 BYTE   N06  Bn3  v100
 BYTE   W01
 BYTE   VOL   40*FFMysticQuestWorldMapRandomWizard_mvl/mxv
 BYTE   W01
 BYTE   En1
 BYTE   W02
 BYTE   Dn1
 BYTE   W01
 BYTE   As0
 BYTE   W03
 BYTE   En1
 BYTE   N06  Gn3  v068
 BYTE   N06  Bn3  v100
 BYTE   W01
 BYTE   VOL   40*FFMysticQuestWorldMapRandomWizard_mvl/mxv
 BYTE   W01
 BYTE   En1
 BYTE   W02
 BYTE   Dn1
 BYTE   W01
 BYTE   As0
 BYTE   W03
// 001   ----------------------------------------
Label_3_0158A3CD:
 BYTE   VOL   40*FFMysticQuestWorldMapRandomWizard_mvl/mxv
 BYTE   N21  Fn3  v068
 BYTE   N21  An3  v100
 BYTE   W01
 BYTE   VOL   40*FFMysticQuestWorldMapRandomWizard_mvl/mxv
 BYTE   W01
 BYTE   En1
 BYTE   W02
 BYTE   En1
 BYTE   W01
 BYTE   Ds1
 BYTE   W01
 BYTE   Cs1
 BYTE   W01
 BYTE   Bn0
 BYTE   W02
 BYTE   Gs0
 BYTE   W01
 BYTE   Gn0
 BYTE   W02
 BYTE   Fn0
 BYTE   W01
 BYTE   Ds0
 BYTE   W01
 BYTE   Cs0
 BYTE   W01
 BYTE   BnM1
 BYTE   W02
 BYTE   AnM1
 BYTE   W01
 BYTE   GnM1
 BYTE   W02
 BYTE   FnM1
 BYTE   W01
 BYTE   DsM1
 BYTE   W03
 BYTE   En1
 BYTE   N21  Fn3  v068
 BYTE   N21  An3  v100
 BYTE   W01
 BYTE   VOL   40*FFMysticQuestWorldMapRandomWizard_mvl/mxv
 BYTE   W01
 BYTE   En1
 BYTE   W02
 BYTE   En1
 BYTE   W01
 BYTE   Ds1
 BYTE   W01
 BYTE   Cs1
 BYTE   W01
 BYTE   Bn0
 BYTE   W02
 BYTE   Gs0
 BYTE   W01
 BYTE   Gn0
 BYTE   W02
 BYTE   Fn0
 BYTE   W01
 BYTE   Ds0
 BYTE   W01
 BYTE   Cs0
 BYTE   W01
 BYTE   BnM1
 BYTE   W02
 BYTE   AnM1
 BYTE   W01
 BYTE   GnM1
 BYTE   W02
 BYTE   FnM1
 BYTE   W01
 BYTE   DsM1
 BYTE   W03
 BYTE   En1
 BYTE   N21  Fn3  v068
 BYTE   N21  An3  v100
 BYTE   W01
 BYTE   VOL   40*FFMysticQuestWorldMapRandomWizard_mvl/mxv
 BYTE   W01
 BYTE   En1
 BYTE   W02
 BYTE   En1
 BYTE   W01
 BYTE   Ds1
 BYTE   W01
 BYTE   Cs1
 BYTE   W02
 BYTE   Bn0
 BYTE   W01
 BYTE   Gs0
 BYTE   W01
 BYTE   Gn0
 BYTE   W02
 BYTE   Fn0
 BYTE   W01
 BYTE   Ds0
 BYTE   W01
 BYTE   Cs0
 BYTE   W02
 BYTE   BnM1
 BYTE   W01
 BYTE   AnM1
 BYTE   W01
 BYTE   GnM1
 BYTE   W02
 BYTE   FnM1
 BYTE   W01
 BYTE   DsM1
 BYTE   W03
 BYTE   En1
 BYTE   N06  Fn3  v068
 BYTE   N06  An3  v100
 BYTE   W01
 BYTE   VOL   40*FFMysticQuestWorldMapRandomWizard_mvl/mxv
 BYTE   W01
 BYTE   En1
 BYTE   W02
 BYTE   Dn1
 BYTE   W01
 BYTE   As0
 BYTE   W03
 BYTE   En1
 BYTE   N06  Fn3  v068
 BYTE   N06  An3  v100
 BYTE   W01
 BYTE   VOL   40*FFMysticQuestWorldMapRandomWizard_mvl/mxv
 BYTE   W01
 BYTE   En1
 BYTE   W02
 BYTE   Dn1
 BYTE   W01
 BYTE   As0
 BYTE   W03
 BYTE   En1
 BYTE   N06  Fn3  v068
 BYTE   N06  An3  v100
 BYTE   W01
 BYTE   VOL   40*FFMysticQuestWorldMapRandomWizard_mvl/mxv
 BYTE   W01
 BYTE   En1
 BYTE   W02
 BYTE   Dn1
 BYTE   W01
 BYTE   As0
 BYTE   W03
 BYTE   PEND 
// 002   ----------------------------------------
Label_3_0158A47D:
 BYTE   VOL   40*FFMysticQuestWorldMapRandomWizard_mvl/mxv
 BYTE   N21  Gn3  v068
 BYTE   N21  Bn3  v100
 BYTE   W01
 BYTE   VOL   40*FFMysticQuestWorldMapRandomWizard_mvl/mxv
 BYTE   W01
 BYTE   En1
 BYTE   W02
 BYTE   En1
 BYTE   W01
 BYTE   Ds1
 BYTE   W01
 BYTE   Cs1
 BYTE   W01
 BYTE   Bn0
 BYTE   W02
 BYTE   Gs0
 BYTE   W01
 BYTE   Gn0
 BYTE   W02
 BYTE   Fn0
 BYTE   W01
 BYTE   Ds0
 BYTE   W01
 BYTE   Cs0
 BYTE   W01
 BYTE   BnM1
 BYTE   W02
 BYTE   AnM1
 BYTE   W01
 BYTE   GnM1
 BYTE   W02
 BYTE   FnM1
 BYTE   W01
 BYTE   DsM1
 BYTE   W03
 BYTE   En1
 BYTE   N21  Gn3  v068
 BYTE   N21  Bn3  v100
 BYTE   W01
 BYTE   VOL   40*FFMysticQuestWorldMapRandomWizard_mvl/mxv
 BYTE   W01
 BYTE   En1
 BYTE   W02
 BYTE   En1
 BYTE   W01
 BYTE   Ds1
 BYTE   W01
 BYTE   Cs1
 BYTE   W01
 BYTE   Bn0
 BYTE   W02
 BYTE   Gs0
 BYTE   W01
 BYTE   Gn0
 BYTE   W02
 BYTE   Fn0
 BYTE   W01
 BYTE   Ds0
 BYTE   W01
 BYTE   Cs0
 BYTE   W01
 BYTE   BnM1
 BYTE   W02
 BYTE   AnM1
 BYTE   W01
 BYTE   GnM1
 BYTE   W02
 BYTE   FnM1
 BYTE   W01
 BYTE   DsM1
 BYTE   W03
 BYTE   En1
 BYTE   N21  Gn3  v068
 BYTE   N21  Bn3  v100
 BYTE   W01
 BYTE   VOL   40*FFMysticQuestWorldMapRandomWizard_mvl/mxv
 BYTE   W01
 BYTE   En1
 BYTE   W02
 BYTE   En1
 BYTE   W01
 BYTE   Ds1
 BYTE   W01
 BYTE   Cs1
 BYTE   W02
 BYTE   Bn0
 BYTE   W01
 BYTE   Gs0
 BYTE   W01
 BYTE   Gn0
 BYTE   W02
 BYTE   Fn0
 BYTE   W01
 BYTE   Ds0
 BYTE   W01
 BYTE   Cs0
 BYTE   W02
 BYTE   BnM1
 BYTE   W01
 BYTE   AnM1
 BYTE   W01
 BYTE   GnM1
 BYTE   W02
 BYTE   FnM1
 BYTE   W01
 BYTE   DsM1
 BYTE   W03
 BYTE   En1
 BYTE   N06  Gn3  v068
 BYTE   N06  Bn3  v100
 BYTE   W01
 BYTE   VOL   40*FFMysticQuestWorldMapRandomWizard_mvl/mxv
 BYTE   W01
 BYTE   En1
 BYTE   W02
 BYTE   Dn1
 BYTE   W01
 BYTE   As0
 BYTE   W03
 BYTE   En1
 BYTE   N06  Gn3  v068
 BYTE   N06  Bn3  v100
 BYTE   W01
 BYTE   VOL   40*FFMysticQuestWorldMapRandomWizard_mvl/mxv
 BYTE   W01
 BYTE   En1
 BYTE   W02
 BYTE   Dn1
 BYTE   W01
 BYTE   As0
 BYTE   W03
 BYTE   En1
 BYTE   N06  Gn3  v068
 BYTE   N06  Bn3  v100
 BYTE   W01
 BYTE   VOL   40*FFMysticQuestWorldMapRandomWizard_mvl/mxv
 BYTE   W01
 BYTE   En1
 BYTE   W02
 BYTE   Dn1
 BYTE   W01
 BYTE   As0
 BYTE   W03
 BYTE   PEND 
 BYTE   PATT
  POIN2 Label_3_0158A3CD
 BYTE   PATT
  POIN2 Label_3_0158A47D
 BYTE   PATT
  POIN2 Label_3_0158A3CD
 BYTE   PATT
  POIN2 Label_3_0158A47D
 BYTE   PATT
  POIN2 Label_3_0158A3CD
 BYTE   PATT
  POIN2 Label_3_0158A47D
 BYTE   PATT
  POIN2 Label_3_0158A3CD
 BYTE   PATT
  POIN2 Label_3_0158A47D
 BYTE   PATT
  POIN2 Label_3_0158A3CD
 BYTE   PATT
  POIN2 Label_3_0158A47D
 BYTE   PATT
  POIN2 Label_3_0158A3CD
 BYTE   PATT
  POIN2 Label_3_0158A47D
 BYTE   PATT
  POIN2 Label_3_0158A3CD
 BYTE   PATT
  POIN2 Label_3_0158A47D
 BYTE   PATT
  POIN2 Label_3_0158A3CD
 BYTE   PATT
  POIN2 Label_3_0158A47D
 BYTE   PATT
  POIN2 Label_3_0158A3CD
 BYTE   PATT
  POIN2 Label_3_0158A47D
 BYTE   PATT
  POIN2 Label_3_0158A3CD
 BYTE   PATT
  POIN2 Label_3_0158A47D
 BYTE   PATT
  POIN2 Label_3_0158A3CD
 BYTE   PATT
  POIN2 Label_3_0158A47D
 BYTE   PATT
  POIN2 Label_3_0158A3CD
 BYTE   PATT
  POIN2 Label_3_0158A47D
 BYTE   PATT
  POIN2 Label_3_0158A3CD
 BYTE   PATT
  POIN2 Label_3_0158A47D
 BYTE   PATT
  POIN2 Label_3_0158A3CD
 BYTE   PATT
  POIN2 Label_3_0158A47D
 BYTE   PATT
  POIN2 Label_3_0158A3CD
// 003   ----------------------------------------
 BYTE   GoTo
  POIN2 Label_3_0158A31A
 BYTE   FINE

//**************** Track 5 (Midi-Chn.4) ****************//

FFMysticQuestWorldMapRandomWizard_005:
// 000   ----------------------------------------
 BYTE   VOL   40*FFMysticQuestWorldMapRandomWizard_mvl/mxv
 BYTE   KEYSH   FFMysticQuestWorldMapRandomWizard_key+0
Label_4_0158A5C8:
 BYTE   VOICE   60
 BYTE   PAN   c_v+53
 BYTE   W12
 BYTE   N06  Gn4  v096
 BYTE   W24
 BYTE   N06
 BYTE   W24
 BYTE   N06
 BYTE   W12
 BYTE   N06
 BYTE   W06
 BYTE   An4
 BYTE   W06
 BYTE   Bn4
 BYTE   W06
 BYTE   Cn5
 BYTE   W06
// 001   ----------------------------------------
Label_4_0158A5DD:
 BYTE   N24  An4  v096
 BYTE   W24
 BYTE   Gn4
 BYTE   W24
 BYTE   Fn4
 BYTE   W24
 BYTE   Gn4
 BYTE   W24
 BYTE   PEND 
// 002   ----------------------------------------
Label_4_0158A5E8:
 BYTE   W12
 BYTE   N06  Bn4  v096
 BYTE   W12
 BYTE   N06
 BYTE   W12
 BYTE   N06
 BYTE   W06
 BYTE   An4
 BYTE   W06
 BYTE   N12  Bn4
 BYTE   W12
 BYTE   Gn4
 BYTE   W12
 BYTE   An4
 BYTE   W12
 BYTE   Bn4
 BYTE   W12
 BYTE   PEND 
// 003   ----------------------------------------
Label_4_0158A5FD:
 BYTE   W12
 BYTE   N06  Cn5  v096
 BYTE   W12
 BYTE   N03  Bn4
 BYTE   W03
 BYTE   Cn5
 BYTE   W03
 BYTE   N06  Bn4
 BYTE   W06
 BYTE   N12  An4
 BYTE   W12
 BYTE   Gn4
 BYTE   W12
 BYTE   Fn4
 BYTE   W12
 BYTE   En4
 BYTE   W12
 BYTE   Fn4
 BYTE   W12
 BYTE   PEND 
// 004   ----------------------------------------
Label_4_0158A616:
 BYTE   W12
 BYTE   N06  Gn4  v096
 BYTE   W12
 BYTE   N06
 BYTE   W12
 BYTE   N06
 BYTE   W06
 BYTE   N06
 BYTE   W06
 BYTE   N12  Dn5
 BYTE   W12
 BYTE   Cn5
 BYTE   W12
 BYTE   Bn4
 BYTE   W12
 BYTE   Cn5
 BYTE   W12
 BYTE   PEND 
// 005   ----------------------------------------
Label_4_0158A62B:
 BYTE   N06  An4  v096
 BYTE   W12
 BYTE   N06
 BYTE   W06
 BYTE   Bn4
 BYTE   W06
 BYTE   N72  Cn5
 BYTE   W72
 BYTE   PEND 
// 006   ----------------------------------------
Label_4_0158A637:
 BYTE   N06  Bn4  v096
 BYTE   W12
 BYTE   N06
 BYTE   W06
 BYTE   Cn5
 BYTE   W06
 BYTE   N36  Dn5
 BYTE   W36
 BYTE   N06  Bn4
 BYTE   W12
 BYTE   Cn5
 BYTE   W12
 BYTE   Dn5
 BYTE   W12
 BYTE   PEND 
// 007   ----------------------------------------
Label_4_0158A64A:
 BYTE   N06  Cn5  v096
 BYTE   W12
 BYTE   An4
 BYTE   W06
 BYTE   Bn4
 BYTE   W06
 BYTE   Cn5
 BYTE   W12
 BYTE   En5
 BYTE   W12
 BYTE   Fn5
 BYTE   W12
 BYTE   N03  En5
 BYTE   W03
 BYTE   Fn5
 BYTE   W03
 BYTE   N06  En5
 BYTE   W06
 BYTE   N18  Dn5
 BYTE   W18
 BYTE   N06  Cn5
 BYTE   W06
 BYTE   PEND 
// 008   ----------------------------------------
Label_4_0158A667:
 BYTE   W12
 BYTE   N06  Gn4  v096
 BYTE   W24
 BYTE   N06
 BYTE   W24
 BYTE   N06
 BYTE   W12
 BYTE   N06
 BYTE   W06
 BYTE   An4
 BYTE   W06
 BYTE   Bn4
 BYTE   W06
 BYTE   Cn5
 BYTE   W06
 BYTE   PEND 
 BYTE   PATT
  POIN2 Label_4_0158A5DD
 BYTE   PATT
  POIN2 Label_4_0158A5E8
 BYTE   PATT
  POIN2 Label_4_0158A5FD
 BYTE   PATT
  POIN2 Label_4_0158A616
 BYTE   PATT
  POIN2 Label_4_0158A62B
 BYTE   PATT
  POIN2 Label_4_0158A637
 BYTE   PATT
  POIN2 Label_4_0158A64A
 BYTE   PATT
  POIN2 Label_4_0158A667
 BYTE   PATT
  POIN2 Label_4_0158A5DD
 BYTE   PATT
  POIN2 Label_4_0158A5E8
 BYTE   PATT
  POIN2 Label_4_0158A5FD
 BYTE   PATT
  POIN2 Label_4_0158A616
 BYTE   PATT
  POIN2 Label_4_0158A62B
 BYTE   PATT
  POIN2 Label_4_0158A637
 BYTE   PATT
  POIN2 Label_4_0158A64A
 BYTE   PATT
  POIN2 Label_4_0158A667
 BYTE   PATT
  POIN2 Label_4_0158A5DD
 BYTE   PATT
  POIN2 Label_4_0158A5E8
 BYTE   PATT
  POIN2 Label_4_0158A5FD
 BYTE   PATT
  POIN2 Label_4_0158A616
 BYTE   PATT
  POIN2 Label_4_0158A62B
 BYTE   PATT
  POIN2 Label_4_0158A637
 BYTE   PATT
  POIN2 Label_4_0158A64A
// 009   ----------------------------------------
 BYTE   GoTo
  POIN2 Label_4_0158A5C8
 BYTE   FINE

//**************** Track 6 (Midi-Chn.5) ****************//

FFMysticQuestWorldMapRandomWizard_006:
// 000   ----------------------------------------
 BYTE   KEYSH   FFMysticQuestWorldMapRandomWizard_key+0
Label_5_0158A6F6:
 BYTE   VOICE   47
 BYTE   VOL   40*FFMysticQuestWorldMapRandomWizard_mvl/mxv
 BYTE   PAN   c_v+0
 BYTE   N24  Gn1  v100
 BYTE   W01
 BYTE   VOL   38*FFMysticQuestWorldMapRandomWizard_mvl/mxv
 BYTE   W01
 BYTE   Cn1
 BYTE   W02
 BYTE   Bn0
 BYTE   W01
 BYTE   An0
 BYTE   W02
 BYTE   Gn0
 BYTE   W01
 BYTE   Fn0
 BYTE   W01
 BYTE   En0
 BYTE   W02
 BYTE   Dn0
 BYTE   W01
 BYTE   Cn0
 BYTE   W01
 BYTE   Cn0
 BYTE   W01
 BYTE   BnM1
 BYTE   W02
 BYTE   AsM1
 BYTE   W01
 BYTE   GsM1
 BYTE   W01
 BYTE   GsM1
 BYTE   W02
 BYTE   GnM1
 BYTE   W01
 BYTE   FnM1
 BYTE   W01
 BYTE   EnM1
 BYTE   W02
 BYTE   En1
 BYTE   N24  Dn1
 BYTE   W01
 BYTE   VOL   38*FFMysticQuestWorldMapRandomWizard_mvl/mxv
 BYTE   W01
 BYTE   Cn1
 BYTE   W02
 BYTE   Bn0
 BYTE   W01
 BYTE   An0
 BYTE   W02
 BYTE   Gn0
 BYTE   W01
 BYTE   Fn0
 BYTE   W01
 BYTE   En0
 BYTE   W02
 BYTE   Dn0
 BYTE   W01
 BYTE   Cn0
 BYTE   W01
 BYTE   Cn0
 BYTE   W01
 BYTE   BnM1
 BYTE   W02
 BYTE   AsM1
 BYTE   W01
 BYTE   GsM1
 BYTE   W01
 BYTE   GsM1
 BYTE   W02
 BYTE   GnM1
 BYTE   W01
 BYTE   FnM1
 BYTE   W01
 BYTE   EnM1
 BYTE   W02
 BYTE   En1
 BYTE   N24  Gn1
 BYTE   W01
 BYTE   VOL   38*FFMysticQuestWorldMapRandomWizard_mvl/mxv
 BYTE   W01
 BYTE   Cn1
 BYTE   W02
 BYTE   Bn0
 BYTE   W01
 BYTE   An0
 BYTE   W02
 BYTE   Gn0
 BYTE   W01
 BYTE   Fn0
 BYTE   W01
 BYTE   En0
 BYTE   W02
 BYTE   Dn0
 BYTE   W01
 BYTE   Cn0
 BYTE   W01
 BYTE   Cn0
 BYTE   W01
 BYTE   BnM1
 BYTE   W02
 BYTE   AsM1
 BYTE   W01
 BYTE   GsM1
 BYTE   W01
 BYTE   GsM1
 BYTE   W02
 BYTE   GnM1
 BYTE   W01
 BYTE   FnM1
 BYTE   W01
 BYTE   EnM1
 BYTE   W02
 BYTE   En1
 BYTE   N24  Dn1
 BYTE   W01
 BYTE   VOL   38*FFMysticQuestWorldMapRandomWizard_mvl/mxv
 BYTE   W01
 BYTE   Cn1
 BYTE   W02
 BYTE   Bn0
 BYTE   W01
 BYTE   An0
 BYTE   W02
 BYTE   Gn0
 BYTE   W01
 BYTE   Fn0
 BYTE   W01
 BYTE   En0
 BYTE   W02
 BYTE   Dn0
 BYTE   W01
 BYTE   Cn0
 BYTE   W01
 BYTE   Cn0
 BYTE   W01
 BYTE   BnM1
 BYTE   W02
 BYTE   AsM1
 BYTE   W01
 BYTE   GsM1
 BYTE   W01
 BYTE   GsM1
 BYTE   W02
 BYTE   GnM1
 BYTE   W01
 BYTE   FnM1
 BYTE   W01
 BYTE   EnM1
 BYTE   W02
// 001   ----------------------------------------
Label_5_0158A798:
 BYTE   VOL   40*FFMysticQuestWorldMapRandomWizard_mvl/mxv
 BYTE   N24  Fn1  v100
 BYTE   W01
 BYTE   VOL   38*FFMysticQuestWorldMapRandomWizard_mvl/mxv
 BYTE   W01
 BYTE   Cn1
 BYTE   W02
 BYTE   Bn0
 BYTE   W01
 BYTE   An0
 BYTE   W02
 BYTE   Gn0
 BYTE   W01
 BYTE   Fn0
 BYTE   W01
 BYTE   En0
 BYTE   W02
 BYTE   Dn0
 BYTE   W01
 BYTE   Cn0
 BYTE   W01
 BYTE   Cn0
 BYTE   W01
 BYTE   BnM1
 BYTE   W02
 BYTE   AsM1
 BYTE   W01
 BYTE   GsM1
 BYTE   W01
 BYTE   GsM1
 BYTE   W02
 BYTE   GnM1
 BYTE   W01
 BYTE   FnM1
 BYTE   W01
 BYTE   EnM1
 BYTE   W02
 BYTE   En1
 BYTE   N24  Cn1
 BYTE   W01
 BYTE   VOL   38*FFMysticQuestWorldMapRandomWizard_mvl/mxv
 BYTE   W01
 BYTE   Cn1
 BYTE   W02
 BYTE   Bn0
 BYTE   W01
 BYTE   An0
 BYTE   W02
 BYTE   Gn0
 BYTE   W01
 BYTE   Fn0
 BYTE   W01
 BYTE   En0
 BYTE   W02
 BYTE   Dn0
 BYTE   W01
 BYTE   Cn0
 BYTE   W01
 BYTE   Cn0
 BYTE   W01
 BYTE   BnM1
 BYTE   W02
 BYTE   AsM1
 BYTE   W01
 BYTE   GsM1
 BYTE   W01
 BYTE   GsM1
 BYTE   W02
 BYTE   GnM1
 BYTE   W01
 BYTE   FnM1
 BYTE   W01
 BYTE   EnM1
 BYTE   W02
 BYTE   En1
 BYTE   N24  Fn1
 BYTE   W01
 BYTE   VOL   38*FFMysticQuestWorldMapRandomWizard_mvl/mxv
 BYTE   W01
 BYTE   Cn1
 BYTE   W02
 BYTE   Bn0
 BYTE   W01
 BYTE   An0
 BYTE   W02
 BYTE   Gn0
 BYTE   W01
 BYTE   Fn0
 BYTE   W01
 BYTE   En0
 BYTE   W02
 BYTE   Dn0
 BYTE   W01
 BYTE   Cn0
 BYTE   W01
 BYTE   Cn0
 BYTE   W01
 BYTE   BnM1
 BYTE   W02
 BYTE   AsM1
 BYTE   W01
 BYTE   GsM1
 BYTE   W01
 BYTE   GsM1
 BYTE   W02
 BYTE   GnM1
 BYTE   W01
 BYTE   FnM1
 BYTE   W01
 BYTE   EnM1
 BYTE   W02
 BYTE   En1
 BYTE   N24  Cn1
 BYTE   W01
 BYTE   VOL   38*FFMysticQuestWorldMapRandomWizard_mvl/mxv
 BYTE   W01
 BYTE   Cn1
 BYTE   W02
 BYTE   Bn0
 BYTE   W01
 BYTE   An0
 BYTE   W02
 BYTE   Gn0
 BYTE   W01
 BYTE   Fn0
 BYTE   W01
 BYTE   En0
 BYTE   W02
 BYTE   Dn0
 BYTE   W01
 BYTE   Cn0
 BYTE   W01
 BYTE   Cn0
 BYTE   W01
 BYTE   BnM1
 BYTE   W02
 BYTE   AsM1
 BYTE   W01
 BYTE   GsM1
 BYTE   W01
 BYTE   GsM1
 BYTE   W02
 BYTE   GnM1
 BYTE   W01
 BYTE   FnM1
 BYTE   W01
 BYTE   EnM1
 BYTE   W02
 BYTE   PEND 
// 002   ----------------------------------------
Label_5_0158A837:
 BYTE   VOL   40*FFMysticQuestWorldMapRandomWizard_mvl/mxv
 BYTE   N24  Gn1  v100
 BYTE   W01
 BYTE   VOL   38*FFMysticQuestWorldMapRandomWizard_mvl/mxv
 BYTE   W01
 BYTE   Cn1
 BYTE   W02
 BYTE   Bn0
 BYTE   W01
 BYTE   An0
 BYTE   W02
 BYTE   Gn0
 BYTE   W01
 BYTE   Fn0
 BYTE   W01
 BYTE   En0
 BYTE   W02
 BYTE   Dn0
 BYTE   W01
 BYTE   Cn0
 BYTE   W01
 BYTE   Cn0
 BYTE   W01
 BYTE   BnM1
 BYTE   W02
 BYTE   AsM1
 BYTE   W01
 BYTE   GsM1
 BYTE   W01
 BYTE   GsM1
 BYTE   W02
 BYTE   GnM1
 BYTE   W01
 BYTE   FnM1
 BYTE   W01
 BYTE   EnM1
 BYTE   W02
 BYTE   En1
 BYTE   N24  Dn1
 BYTE   W01
 BYTE   VOL   38*FFMysticQuestWorldMapRandomWizard_mvl/mxv
 BYTE   W01
 BYTE   Cn1
 BYTE   W02
 BYTE   Bn0
 BYTE   W01
 BYTE   An0
 BYTE   W02
 BYTE   Gn0
 BYTE   W01
 BYTE   Fn0
 BYTE   W01
 BYTE   En0
 BYTE   W02
 BYTE   Dn0
 BYTE   W01
 BYTE   Cn0
 BYTE   W01
 BYTE   Cn0
 BYTE   W01
 BYTE   BnM1
 BYTE   W02
 BYTE   AsM1
 BYTE   W01
 BYTE   GsM1
 BYTE   W01
 BYTE   GsM1
 BYTE   W02
 BYTE   GnM1
 BYTE   W01
 BYTE   FnM1
 BYTE   W01
 BYTE   EnM1
 BYTE   W02
 BYTE   En1
 BYTE   N24  Gn1
 BYTE   W01
 BYTE   VOL   38*FFMysticQuestWorldMapRandomWizard_mvl/mxv
 BYTE   W01
 BYTE   Cn1
 BYTE   W02
 BYTE   Bn0
 BYTE   W01
 BYTE   An0
 BYTE   W02
 BYTE   Gn0
 BYTE   W01
 BYTE   Fn0
 BYTE   W01
 BYTE   En0
 BYTE   W02
 BYTE   Dn0
 BYTE   W01
 BYTE   Cn0
 BYTE   W01
 BYTE   Cn0
 BYTE   W01
 BYTE   BnM1
 BYTE   W02
 BYTE   AsM1
 BYTE   W01
 BYTE   GsM1
 BYTE   W01
 BYTE   GsM1
 BYTE   W02
 BYTE   GnM1
 BYTE   W01
 BYTE   FnM1
 BYTE   W01
 BYTE   EnM1
 BYTE   W02
 BYTE   En1
 BYTE   N24  Dn1
 BYTE   W01
 BYTE   VOL   38*FFMysticQuestWorldMapRandomWizard_mvl/mxv
 BYTE   W01
 BYTE   Cn1
 BYTE   W02
 BYTE   Bn0
 BYTE   W01
 BYTE   An0
 BYTE   W02
 BYTE   Gn0
 BYTE   W01
 BYTE   Fn0
 BYTE   W01
 BYTE   En0
 BYTE   W02
 BYTE   Dn0
 BYTE   W01
 BYTE   Cn0
 BYTE   W01
 BYTE   Cn0
 BYTE   W01
 BYTE   BnM1
 BYTE   W02
 BYTE   AsM1
 BYTE   W01
 BYTE   GsM1
 BYTE   W01
 BYTE   GsM1
 BYTE   W02
 BYTE   GnM1
 BYTE   W01
 BYTE   FnM1
 BYTE   W01
 BYTE   EnM1
 BYTE   W02
 BYTE   PEND 
 BYTE   PATT
  POIN2 Label_5_0158A798
 BYTE   PATT
  POIN2 Label_5_0158A837
 BYTE   PATT
  POIN2 Label_5_0158A798
 BYTE   PATT
  POIN2 Label_5_0158A837
 BYTE   PATT
  POIN2 Label_5_0158A798
 BYTE   PATT
  POIN2 Label_5_0158A837
 BYTE   PATT
  POIN2 Label_5_0158A798
 BYTE   PATT
  POIN2 Label_5_0158A837
 BYTE   PATT
  POIN2 Label_5_0158A798
 BYTE   PATT
  POIN2 Label_5_0158A837
 BYTE   PATT
  POIN2 Label_5_0158A798
 BYTE   PATT
  POIN2 Label_5_0158A837
 BYTE   PATT
  POIN2 Label_5_0158A798
 BYTE   PATT
  POIN2 Label_5_0158A837
 BYTE   PATT
  POIN2 Label_5_0158A798
 BYTE   PATT
  POIN2 Label_5_0158A837
 BYTE   PATT
  POIN2 Label_5_0158A798
 BYTE   PATT
  POIN2 Label_5_0158A837
 BYTE   PATT
  POIN2 Label_5_0158A798
 BYTE   PATT
  POIN2 Label_5_0158A837
 BYTE   PATT
  POIN2 Label_5_0158A798
 BYTE   PATT
  POIN2 Label_5_0158A837
 BYTE   PATT
  POIN2 Label_5_0158A798
 BYTE   PATT
  POIN2 Label_5_0158A837
 BYTE   PATT
  POIN2 Label_5_0158A798
 BYTE   PATT
  POIN2 Label_5_0158A837
 BYTE   PATT
  POIN2 Label_5_0158A798
 BYTE   PATT
  POIN2 Label_5_0158A837
 BYTE   PATT
  POIN2 Label_5_0158A798
// 003   ----------------------------------------
 BYTE   GoTo
  POIN2 Label_5_0158A6F6
 BYTE   FINE

//**************** Track 7 (Midi-Chn.6) ****************//

FFMysticQuestWorldMapRandomWizard_007:
// 000   ----------------------------------------
 BYTE   VOL   40*FFMysticQuestWorldMapRandomWizard_mvl/mxv
 BYTE   KEYSH   FFMysticQuestWorldMapRandomWizard_key+0
Label_6_0158A974:
 BYTE   VOICE   127
 BYTE   PAN   c_v+26
 BYTE   N06  En1  v088
 BYTE   W24
 BYTE   N06
 BYTE   W24
 BYTE   N06
 BYTE   W24
 BYTE   N06
 BYTE   W08
 BYTE   N06
 BYTE   W08
 BYTE   N06
 BYTE   W08
// 001   ----------------------------------------
Label_6_0158A986:
 BYTE   N06  En1  v088
 BYTE   W24
 BYTE   N06
 BYTE   W24
 BYTE   N06
 BYTE   W24
 BYTE   N06
 BYTE   W08
 BYTE   N06
 BYTE   W08
 BYTE   N06
 BYTE   W08
 BYTE   PEND 
 BYTE   PATT
  POIN2 Label_6_0158A986
 BYTE   PATT
  POIN2 Label_6_0158A986
 BYTE   PATT
  POIN2 Label_6_0158A986
 BYTE   PATT
  POIN2 Label_6_0158A986
 BYTE   PATT
  POIN2 Label_6_0158A986
 BYTE   PATT
  POIN2 Label_6_0158A986
 BYTE   PATT
  POIN2 Label_6_0158A986
 BYTE   PATT
  POIN2 Label_6_0158A986
 BYTE   PATT
  POIN2 Label_6_0158A986
 BYTE   PATT
  POIN2 Label_6_0158A986
 BYTE   PATT
  POIN2 Label_6_0158A986
 BYTE   PATT
  POIN2 Label_6_0158A986
 BYTE   PATT
  POIN2 Label_6_0158A986
 BYTE   PATT
  POIN2 Label_6_0158A986
 BYTE   PATT
  POIN2 Label_6_0158A986
 BYTE   PATT
  POIN2 Label_6_0158A986
 BYTE   PATT
  POIN2 Label_6_0158A986
 BYTE   PATT
  POIN2 Label_6_0158A986
 BYTE   PATT
  POIN2 Label_6_0158A986
 BYTE   PATT
  POIN2 Label_6_0158A986
 BYTE   PATT
  POIN2 Label_6_0158A986
 BYTE   PATT
  POIN2 Label_6_0158A986
 BYTE   PATT
  POIN2 Label_6_0158A986
 BYTE   PATT
  POIN2 Label_6_0158A986
 BYTE   PATT
  POIN2 Label_6_0158A986
 BYTE   PATT
  POIN2 Label_6_0158A986
 BYTE   PATT
  POIN2 Label_6_0158A986
 BYTE   PATT
  POIN2 Label_6_0158A986
 BYTE   PATT
  POIN2 Label_6_0158A986
 BYTE   PATT
  POIN2 Label_6_0158A986
// 002   ----------------------------------------
 BYTE   GoTo
  POIN2 Label_6_0158A974
 BYTE   FINE

//******************************************************//
	ALIGN 4

FFMysticQuestWorldMapRandomWizard:
	BYTE	7	// NumTrks
	BYTE	0	// NumBlks
	BYTE	FFMysticQuestWorldMapRandomWizard_pri	// Priority
	BYTE	FFMysticQuestWorldMapRandomWizard_rev	// Reverb.
    
	POIN2	FFMysticQuestWorldMapRandomWizard_grp
    
	POIN2	FFMysticQuestWorldMapRandomWizard_001
	POIN2	FFMysticQuestWorldMapRandomWizard_002
	POIN2	FFMysticQuestWorldMapRandomWizard_003
	POIN2	FFMysticQuestWorldMapRandomWizard_004
	POIN2	FFMysticQuestWorldMapRandomWizard_005
	POIN2	FFMysticQuestWorldMapRandomWizard_006
	POIN2	FFMysticQuestWorldMapRandomWizard_007

	
