//Event file generated from Sappy .s format.
	#include "MPlayDef.event"

	#define	FFTInPursuitAlusq_grp  voicegroup000
	#define	FFTInPursuitAlusq_pri  0
	#define	FFTInPursuitAlusq_rev  0
	#define	FFTInPursuitAlusq_mvl  124
	#define	FFTInPursuitAlusq_key  0
	#define	FFTInPursuitAlusq_tbs  1
	#define	FFTInPursuitAlusq_exg  0
	#define	FFTInPursuitAlusq_cmp  1

	// .rodata
	//	FFTInPursuitAlusq
	ALIGN 4

//**************** Track 1 (Midi-Chn.1) ****************//

FFTInPursuitAlusq_1:
	BYTE	KEYSH   FFTInPursuitAlusq_key+0
FFTInPursuitAlusq_1_B1:
// 000   ----------------------------------------
	BYTE	TEMPO   80*FFTInPursuitAlusq_tbs/2
	BYTE		VOICE   46
	BYTE		VOL     60*FFTInPursuitAlusq_mvl/mxv
	BYTE		PAN     c_v-48
	BYTE	W56
	BYTE	W01
	BYTE		N03     Cs2   v056
	BYTE	W03
	BYTE		        Fn2   v060
	BYTE	W02
	BYTE		PAN     c_v-44
	BYTE	W01
	BYTE		N03     Bn2 
	BYTE	W03
	BYTE		        Cs3   v064
	BYTE	W02
	BYTE		PAN     c_v-40
	BYTE	W01
	BYTE		N03     Fn3   v072
	BYTE	W03
	BYTE		        Bn3   v092
	BYTE	W02
	BYTE		PAN     c_v-36
	BYTE	W01
	BYTE		N03     Fn3 
	BYTE	W03
	BYTE		        Cs3   v088
	BYTE	W02
	BYTE		PAN     c_v-32
	BYTE	W01
	BYTE		N03     Fn3 
	BYTE	W03
	BYTE		        Bn3   v096
	BYTE	W02
	BYTE		PAN     c_v-24
	BYTE	W01
	BYTE		N03     Cs4   v112
	BYTE	W03
	BYTE		        Bn3   v088
	BYTE	W02
	BYTE		PAN     c_v-20
	BYTE	W01
	BYTE		N03     Fn3   v084
	BYTE	W03
// 001   ----------------------------------------
	BYTE		        Bn3   v096
	BYTE	W02
	BYTE		PAN     c_v-16
	BYTE	W01
	BYTE		N03     Cs4   v108
	BYTE	W03
	BYTE		        Fn4   v120
	BYTE	W02
	BYTE		PAN     c_v-12
	BYTE	W01
	BYTE		N03     Cs4   v092
	BYTE	W03
	BYTE		        Bn3   v100
	BYTE	W02
	BYTE		PAN     c_v-8
	BYTE	W01
	BYTE		N03     Cs4   v112
	BYTE	W03
	BYTE		        Fn4   v116
	BYTE	W02
	BYTE		PAN     c_v+0
	BYTE	W01
	BYTE		N03     Bn4   v092
	BYTE	W03
	BYTE		        Fn4   v104
	BYTE	W02
	BYTE		PAN     c_v+4
	BYTE	W01
	BYTE		N03     Cs4   v108
	BYTE	W03
	BYTE		        Fn4   v104
	BYTE	W02
	BYTE		PAN     c_v+8
	BYTE	W01
	BYTE		N03     Bn4   v108
	BYTE	W03
	BYTE		        Cs5   v124
	BYTE	W02
	BYTE		PAN     c_v+12
	BYTE	W01
	BYTE		N03     Bn4   v116
	BYTE	W03
	BYTE		        Fn4   v112
	BYTE	W02
	BYTE		PAN     c_v+16
	BYTE	W01
	BYTE		N03     Bn4 
	BYTE	W03
	BYTE		        Fn4   v104
	BYTE	W02
	BYTE		PAN     c_v+20
	BYTE	W01
	BYTE		N03     Cs4   v096
	BYTE	W03
	BYTE		        Fn4   v100
	BYTE	W02
	BYTE		PAN     c_v+24
	BYTE	W01
	BYTE		N03     Cs4   v096
	BYTE	W03
	BYTE		        Bn3   v108
	BYTE	W02
	BYTE		PAN     c_v+28
	BYTE	W01
	BYTE		N03     Cs4   v092
	BYTE	W03
	BYTE		        Bn3   v088
	BYTE	W02
	BYTE		PAN     c_v+32
	BYTE	W01
	BYTE		N03     Fn3 
	BYTE	W03
	BYTE		        Bn3   v084
	BYTE	W02
	BYTE		PAN     c_v+36
	BYTE	W01
	BYTE		N03     Fn3   v076
	BYTE	W03
	BYTE		        Cs3   v072
	BYTE	W02
	BYTE		PAN     c_v+40
	BYTE	W01
	BYTE		N03     Fn3   v064
	BYTE	W03
	BYTE		        Cs3   v056
	BYTE	W02
	BYTE		PAN     c_v+44
	BYTE	W01
	BYTE		N03     Bn2   v048
	BYTE	W03
	BYTE		        Cs3   v044
	BYTE	W02
	BYTE		PAN     c_v+48
	BYTE	W01
	BYTE		N03     Bn2   v036
	BYTE	W03
// 002   ----------------------------------------
	BYTE	W96
// 003   ----------------------------------------
	BYTE		VOICE   68
	BYTE		PAN     c_v-8
	BYTE	W32
	BYTE		N60     Dn4   v108
	BYTE	W64
// 004   ----------------------------------------
	BYTE		N32     En4 
	BYTE	W32
	BYTE		N30     Fs4   v100
	BYTE	W32
	BYTE		N32     Bn3   v108
	BYTE	W32
// 005   ----------------------------------------
	BYTE		        Gn4   v088
	BYTE	W32
	BYTE		N16     Bn3   v084
	BYTE	W16
	BYTE		        An3   v092
	BYTE	W16
	BYTE		        Dn4   v096
	BYTE	W16
	BYTE		N14     Gn3   v100
	BYTE	W16
// 006   ----------------------------------------
	BYTE		N32     Fn4   v092
	BYTE	W32
	BYTE		VOL     58*FFTInPursuitAlusq_mvl/mxv
	BYTE		N64     En4   v088
	BYTE	W06
	BYTE		VOL     56*FFTInPursuitAlusq_mvl/mxv
	BYTE	W06
	BYTE		        54*FFTInPursuitAlusq_mvl/mxv
	BYTE	W04
	BYTE		        52*FFTInPursuitAlusq_mvl/mxv
	BYTE	W02
	BYTE		        48*FFTInPursuitAlusq_mvl/mxv
	BYTE	W06
	BYTE		        44*FFTInPursuitAlusq_mvl/mxv
	BYTE	W06
	BYTE		        40*FFTInPursuitAlusq_mvl/mxv
	BYTE	W06
	BYTE		        36*FFTInPursuitAlusq_mvl/mxv
	BYTE	W28
// 007   ----------------------------------------
	BYTE	W96
// 008   ----------------------------------------
	BYTE	W96
// 009   ----------------------------------------
	BYTE	W96
// 010   ----------------------------------------
	BYTE	W96
// 011   ----------------------------------------
	BYTE	W96
// 012   ----------------------------------------
	BYTE	W96
// 013   ----------------------------------------
	BYTE	W96
// 014   ----------------------------------------
	BYTE	W80
	BYTE		        60*FFTInPursuitAlusq_mvl/mxv
	BYTE		N16     Bn3   v092
	BYTE	W16
// 015   ----------------------------------------
	BYTE		        Cs4   v100
	BYTE	W16
	BYTE		        Dn4   v088
	BYTE	W16
	BYTE		        Bn3   v092
	BYTE	W16
	BYTE		        En4   v100
	BYTE	W16
	BYTE		N08     Dn4   v092
	BYTE	W08
	BYTE		        Cs4 
	BYTE	W08
	BYTE		N16     Dn4   v096
	BYTE	W16
// 016   ----------------------------------------
	BYTE		N12     Dn4   v040
	BYTE	W16
	BYTE		N16     Dn4   v096
	BYTE	W16
	BYTE		        Bn3   v092
	BYTE	W16
	BYTE		        En4   v100
	BYTE	W16
	BYTE		N08     Dn4   v092
	BYTE	W08
	BYTE		        Cs4 
	BYTE	W08
	BYTE		N16     Dn4   v096
	BYTE	W16
// 017   ----------------------------------------
	BYTE		        Fs4   v100
	BYTE	W16
	BYTE		        Gn4   v092
	BYTE	W16
	BYTE		N08     Fs4 
	BYTE	W08
	BYTE		        En4 
	BYTE	W08
	BYTE		N16     Dn4   v100
	BYTE	W16
	BYTE		        En4   v096
	BYTE	W16
	BYTE		N08     Dn4 
	BYTE	W08
	BYTE		        Cs4   v092
	BYTE	W08
// 018   ----------------------------------------
	BYTE		N48     Bn3   v096
	BYTE	W48
	BYTE		N44     As3   v088
	BYTE	W48
// 019   ----------------------------------------
	BYTE		N16     Cs4   v100
	BYTE	W16
	BYTE		        Dn4   v092
	BYTE	W16
	BYTE		        Bn3 
	BYTE	W16
	BYTE		        En4   v100
	BYTE	W16
	BYTE		N08     Dn4   v096
	BYTE	W08
	BYTE		        Cs4   v092
	BYTE	W08
	BYTE		N16     Dn4   v096
	BYTE	W16
// 020   ----------------------------------------
	BYTE		N12     Dn4   v040
	BYTE	W16
	BYTE		N16     Dn4   v092
	BYTE	W16
	BYTE		        Bn3   v096
	BYTE	W16
	BYTE		        En4   v100
	BYTE	W16
	BYTE		N08     Dn4   v092
	BYTE	W08
	BYTE		        Cs4 
	BYTE	W08
	BYTE		N16     Dn4   v096
	BYTE	W16
// 021   ----------------------------------------
	BYTE		        Fs4   v100
	BYTE	W16
	BYTE		        Gn4   v092
	BYTE	W16
	BYTE		N08     Fs4 
	BYTE	W08
	BYTE		        En4   v088
	BYTE	W08
	BYTE		N16     Dn4   v100
	BYTE	W16
	BYTE		        En4   v092
	BYTE	W16
	BYTE		N08     Dn4 
	BYTE	W08
	BYTE		        Cs4 
	BYTE	W08
// 022   ----------------------------------------
	BYTE		N48     Bn3   v096
	BYTE	W48
	BYTE	TEMPO   60*FFTInPursuitAlusq_tbs/2
	BYTE		        As3   v092
	BYTE	W40
	BYTE	TEMPO   40*FFTInPursuitAlusq_tbs/2
	BYTE	W08
	BYTE	GoTo
	 POIN2	FFTInPursuitAlusq_1_B1
FFTInPursuitAlusq_1_B2:
// 023   ----------------------------------------
	BYTE	FINE

//**************** Track 2 (Midi-Chn.2) ****************//

FFTInPursuitAlusq_2:
	BYTE	KEYSH   FFTInPursuitAlusq_key+0
FFTInPursuitAlusq_2_B1:
// 000   ----------------------------------------
	BYTE		VOICE   101
	BYTE		VOL     62*FFTInPursuitAlusq_mvl/mxv
	BYTE		PAN     c_v+13
	BYTE	W96
// 001   ----------------------------------------
	BYTE	W64
	BYTE		N24     Bn2   v108
	BYTE	W24
	BYTE		N02     Cs3   v088
	BYTE	W02
	BYTE		        Dn3 
	BYTE	W02
	BYTE		        En3   v092
	BYTE	W02
	BYTE		        Fs3   v096
	BYTE	W02
// 002   ----------------------------------------
	BYTE		        Gn3 
	BYTE	W02
	BYTE		        An3   v100
	BYTE	W02
	BYTE		N28     Bn3   v108
	BYTE	W28
	BYTE		N32     En3 
	BYTE	W32
	BYTE		        An3 
	BYTE	W32
// 003   ----------------------------------------
	BYTE		N96     Gn3 
	BYTE	W24
	BYTE		VOL     58*FFTInPursuitAlusq_mvl/mxv
	BYTE	W05
	BYTE		        56*FFTInPursuitAlusq_mvl/mxv
	BYTE	W06
	BYTE		        54*FFTInPursuitAlusq_mvl/mxv
	BYTE	W06
	BYTE		        52*FFTInPursuitAlusq_mvl/mxv
	BYTE	W07
	BYTE		        48*FFTInPursuitAlusq_mvl/mxv
	BYTE	W05
	BYTE		        44*FFTInPursuitAlusq_mvl/mxv
	BYTE	W06
	BYTE		        40*FFTInPursuitAlusq_mvl/mxv
	BYTE	W06
	BYTE		        36*FFTInPursuitAlusq_mvl/mxv
	BYTE	W07
	BYTE		        32*FFTInPursuitAlusq_mvl/mxv
	BYTE	W05
	BYTE		        28*FFTInPursuitAlusq_mvl/mxv
	BYTE	W06
	BYTE		        24*FFTInPursuitAlusq_mvl/mxv
	BYTE	W06
	BYTE		        20*FFTInPursuitAlusq_mvl/mxv
	BYTE	W07
// 004   ----------------------------------------
	BYTE	W96
// 005   ----------------------------------------
	BYTE	W96
// 006   ----------------------------------------
	BYTE	W96
// 007   ----------------------------------------
	BYTE	W96
// 008   ----------------------------------------
	BYTE	W32
	BYTE		        62*FFTInPursuitAlusq_mvl/mxv
	BYTE		N32     Fs2   v092
	BYTE	W32
	BYTE		        Gn2 
	BYTE	W32
// 009   ----------------------------------------
	BYTE		        Bn2 
	BYTE	W32
	BYTE		        Fs3 
	BYTE	W32
	BYTE		        An3 
	BYTE	W32
// 010   ----------------------------------------
	BYTE		N96     Gn3   v100
	BYTE	W24
	BYTE		VOL     58*FFTInPursuitAlusq_mvl/mxv
	BYTE	W05
	BYTE		        56*FFTInPursuitAlusq_mvl/mxv
	BYTE	W06
	BYTE		        54*FFTInPursuitAlusq_mvl/mxv
	BYTE	W06
	BYTE		        52*FFTInPursuitAlusq_mvl/mxv
	BYTE	W07
	BYTE		        48*FFTInPursuitAlusq_mvl/mxv
	BYTE	W05
	BYTE		        44*FFTInPursuitAlusq_mvl/mxv
	BYTE	W06
	BYTE		        40*FFTInPursuitAlusq_mvl/mxv
	BYTE	W06
	BYTE		        36*FFTInPursuitAlusq_mvl/mxv
	BYTE	W07
	BYTE		        32*FFTInPursuitAlusq_mvl/mxv
	BYTE	W05
	BYTE		        28*FFTInPursuitAlusq_mvl/mxv
	BYTE	W06
	BYTE		        24*FFTInPursuitAlusq_mvl/mxv
	BYTE	W06
	BYTE		        20*FFTInPursuitAlusq_mvl/mxv
	BYTE	W07
// 011   ----------------------------------------
	BYTE	W96
// 012   ----------------------------------------
	BYTE		VOICE   48
	BYTE		VOL     60*FFTInPursuitAlusq_mvl/mxv
	BYTE	W32
	BYTE		N06     Fs2   v112
	BYTE	W16
	BYTE		N03     Fs2   v092
	BYTE	W08
	BYTE		N06     An2   v112
	BYTE	W16
	BYTE		N04     An2   v096
	BYTE	W08
	BYTE		N06     An2   v112
	BYTE	W16
// 013   ----------------------------------------
	BYTE	W96
// 014   ----------------------------------------
	BYTE	W32
	BYTE		        Fs2 
	BYTE	W16
	BYTE		N03     Fs2   v092
	BYTE	W08
	BYTE		N06     An2   v112
	BYTE	W16
	BYTE		N04     An2   v096
	BYTE	W08
	BYTE		VOICE   69
	BYTE		VOL     62*FFTInPursuitAlusq_mvl/mxv
	BYTE		N16     Bn2   v088
	BYTE	W16
// 015   ----------------------------------------
	BYTE		        Cs3   v100
	BYTE	W16
	BYTE		        Dn3   v096
	BYTE	W16
	BYTE		        Bn2   v092
	BYTE	W16
	BYTE		        En3   v100
	BYTE	W16
	BYTE		N08     Dn3   v092
	BYTE	W08
	BYTE		        Cs3 
	BYTE	W08
	BYTE		N16     Dn3   v096
	BYTE	W16
// 016   ----------------------------------------
	BYTE		N12     Dn3   v040
	BYTE	W16
	BYTE		N16     Dn3   v092
	BYTE	W16
	BYTE		        Bn2 
	BYTE	W16
	BYTE		        En3   v100
	BYTE	W16
	BYTE		N08     Dn3   v092
	BYTE	W08
	BYTE		        Cs3 
	BYTE	W08
	BYTE		N16     Dn3   v096
	BYTE	W16
// 017   ----------------------------------------
	BYTE		        Fs3   v100
	BYTE	W16
	BYTE		        Gn3   v088
	BYTE	W16
	BYTE		N08     Fs3 
	BYTE	W08
	BYTE		        En3 
	BYTE	W08
	BYTE		N16     Dn3   v100
	BYTE	W16
	BYTE		        En3   v092
	BYTE	W16
	BYTE		N08     Dn3 
	BYTE	W08
	BYTE		        Cs3 
	BYTE	W08
// 018   ----------------------------------------
	BYTE		N48     Bn2   v096
	BYTE	W48
	BYTE		N42     As2   v084
	BYTE	W48
// 019   ----------------------------------------
	BYTE		N16     Cs3   v100
	BYTE	W16
	BYTE		        Dn3   v088
	BYTE	W16
	BYTE		        Bn2 
	BYTE	W16
	BYTE		        En3   v100
	BYTE	W16
	BYTE		N08     Dn3   v092
	BYTE	W08
	BYTE		        Cs3   v088
	BYTE	W08
	BYTE		N16     Dn3   v096
	BYTE	W16
// 020   ----------------------------------------
	BYTE		N12     Dn3   v040
	BYTE	W16
	BYTE		N16     Dn3   v088
	BYTE	W16
	BYTE		        Bn2   v092
	BYTE	W16
	BYTE		        En3   v100
	BYTE	W16
	BYTE		N08     Dn3   v092
	BYTE	W08
	BYTE		        Cs3 
	BYTE	W08
	BYTE		N16     Dn3 
	BYTE	W16
// 021   ----------------------------------------
	BYTE		        Fs3   v100
	BYTE	W16
	BYTE		        Gn3   v092
	BYTE	W16
	BYTE		N08     Fs3 
	BYTE	W08
	BYTE		        En3 
	BYTE	W08
	BYTE		N16     Dn3   v100
	BYTE	W16
	BYTE		        En3   v096
	BYTE	W16
	BYTE		N08     Dn3 
	BYTE	W08
	BYTE		        Cs3   v092
	BYTE	W08
// 022   ----------------------------------------
	BYTE		N48     Bn2   v096
	BYTE	W48
	BYTE		N36     As2   v088
	BYTE	W48
	BYTE	GoTo
	 POIN2	FFTInPursuitAlusq_2_B1
FFTInPursuitAlusq_2_B2:
// 023   ----------------------------------------
	BYTE	FINE

//**************** Track 3 (Midi-Chn.3) ****************//

FFTInPursuitAlusq_3:
	BYTE	KEYSH   FFTInPursuitAlusq_key+0
FFTInPursuitAlusq_3_B1:
// 000   ----------------------------------------
	BYTE		VOICE   49
	BYTE		VOL     46*FFTInPursuitAlusq_mvl/mxv
	BYTE		PAN     c_v+20
	BYTE	W96
// 001   ----------------------------------------
	BYTE	W64
	BYTE		N32     Bn3   v096
	BYTE	W32
// 002   ----------------------------------------
	BYTE		TIE   
	BYTE	W96
// 003   ----------------------------------------
	BYTE	W32
	BYTE		N64     Dn4 
	BYTE	W64
	BYTE		EOT     Bn3 
// 004   ----------------------------------------
	BYTE		N32     Cs4   v080
	BYTE		N32     En4   v108
	BYTE	W32
	BYTE		        Dn4   v080
	BYTE		N32     Fs4   v108
	BYTE	W32
	BYTE		        Bn3 
	BYTE	W32
// 005   ----------------------------------------
	BYTE		N96     En4   v080
	BYTE		N96     Gn4   v100
	BYTE	W96
// 006   ----------------------------------------
	BYTE		N32     Fn4   v092
	BYTE		TIE     Gn4 
	BYTE	W32
	BYTE		N64     En4 
	BYTE	W64
// 007   ----------------------------------------
	BYTE	W64
	BYTE		EOT     Gn4 
	BYTE		N16     Fs4 
	BYTE	W16
	BYTE		        En4 
	BYTE	W16
// 008   ----------------------------------------
	BYTE		N32   
	BYTE	W32
	BYTE		        Dn4 
	BYTE	W32
	BYTE		        Cs4 
	BYTE	W32
// 009   ----------------------------------------
	BYTE		        Dn4 
	BYTE	W32
	BYTE		        An3 
	BYTE	W32
	BYTE		        Cs4 
	BYTE	W32
// 010   ----------------------------------------
	BYTE		        Bn3 
	BYTE	W32
	BYTE		N64     Gn3 
	BYTE	W32
	BYTE		N32     An3 
	BYTE	W32
// 011   ----------------------------------------
	BYTE		TIE     Fs3   v100
	BYTE	W96
// 012   ----------------------------------------
	BYTE	W80
	BYTE		EOT   
	BYTE	W16
// 013   ----------------------------------------
	BYTE		TIE   
	BYTE	W96
// 014   ----------------------------------------
	BYTE	W80
	BYTE		EOT   
	BYTE	W16
// 015   ----------------------------------------
	BYTE	W96
// 016   ----------------------------------------
	BYTE	W96
// 017   ----------------------------------------
	BYTE	W96
// 018   ----------------------------------------
	BYTE	W96
// 019   ----------------------------------------
	BYTE	W96
// 020   ----------------------------------------
	BYTE	W96
// 021   ----------------------------------------
	BYTE	W96
// 022   ----------------------------------------
	BYTE	W96
	BYTE	GoTo
	 POIN2	FFTInPursuitAlusq_3_B1
FFTInPursuitAlusq_3_B2:
// 023   ----------------------------------------
	BYTE	FINE

//**************** Track 4 (Midi-Chn.4) ****************//

FFTInPursuitAlusq_4:
	BYTE	KEYSH   FFTInPursuitAlusq_key+0
FFTInPursuitAlusq_4_B1:
// 000   ----------------------------------------
	BYTE		VOICE   49
	BYTE		VOL     43*FFTInPursuitAlusq_mvl/mxv
	BYTE		PAN     c_v-16
	BYTE	W96
// 001   ----------------------------------------
	BYTE	W64
	BYTE		N32     Fs3   v096
	BYTE	W32
// 002   ----------------------------------------
	BYTE		TIE     Cn3 
	BYTE	W96
// 003   ----------------------------------------
	BYTE	W32
	BYTE		N64     Gn3 
	BYTE	W64
	BYTE		EOT     Cn3 
// 004   ----------------------------------------
	BYTE		N96     Dn3   v080
	BYTE	W64
	BYTE		N32     Fs3 
	BYTE	W32
// 005   ----------------------------------------
	BYTE		        Ds3 
	BYTE	W32
	BYTE		        En3 
	BYTE	W32
	BYTE		        Gn3 
	BYTE	W32
// 006   ----------------------------------------
	BYTE		        Fn3   v092
	BYTE		N96     Cs4 
	BYTE	W32
	BYTE		TIE     En3   v080
	BYTE	W64
// 007   ----------------------------------------
	BYTE	W64
	BYTE		EOT   
	BYTE	W32
// 008   ----------------------------------------
	BYTE		N64     Dn3   v092
	BYTE	W64
	BYTE		N32     En3 
	BYTE	W32
// 009   ----------------------------------------
	BYTE		N64     Fs3 
	BYTE	W64
	BYTE		N32     An3 
	BYTE	W32
// 010   ----------------------------------------
	BYTE		        Gn3 
	BYTE	W96
// 011   ----------------------------------------
	BYTE		N96     Dn3   v100
	BYTE	W96
// 012   ----------------------------------------
	BYTE		N80     Cs3   v092
	BYTE	W96
// 013   ----------------------------------------
	BYTE		N96     Dn3   v100
	BYTE	W96
// 014   ----------------------------------------
	BYTE		N80     Cs3   v092
	BYTE	W96
// 015   ----------------------------------------
	BYTE	W96
// 016   ----------------------------------------
	BYTE	W96
// 017   ----------------------------------------
	BYTE	W96
// 018   ----------------------------------------
	BYTE	W96
// 019   ----------------------------------------
	BYTE	W96
// 020   ----------------------------------------
	BYTE	W96
// 021   ----------------------------------------
	BYTE	W96
// 022   ----------------------------------------
	BYTE	W96
	BYTE	GoTo
	 POIN2	FFTInPursuitAlusq_4_B1
FFTInPursuitAlusq_4_B2:
// 023   ----------------------------------------
	BYTE	FINE

//**************** Track 5 (Midi-Chn.5) ****************//

FFTInPursuitAlusq_5:
	BYTE	KEYSH   FFTInPursuitAlusq_key+0
FFTInPursuitAlusq_5_B1:
// 000   ----------------------------------------
	BYTE		VOICE   51
	BYTE		MOD     1
	BYTE		PAN     c_v+30
	BYTE		VOL     46*FFTInPursuitAlusq_mvl/mxv
	BYTE		N06     Bn1   v112
	BYTE	W08
	BYTE		N03     Bn1   v072
	BYTE	W08
	BYTE		N03   
	BYTE	W08
	BYTE		N03   
	BYTE	W08
	BYTE		N06     Bn1   v112
	BYTE	W08
	BYTE		N03     Bn1   v072
	BYTE	W08
	BYTE		N03   
	BYTE	W08
	BYTE		N06     Bn1   v112
	BYTE	W08
	BYTE		N03     Bn1   v060
	BYTE	W08
	BYTE		N05     Bn1   v092
	BYTE	W08
	BYTE		N06     Bn1   v112
	BYTE	W08
	BYTE		N03     Bn1   v072
	BYTE	W08
// 001   ----------------------------------------
FFTInPursuitAlusq_5_001:
	BYTE		N06     Bn1   v112
	BYTE	W08
	BYTE		N03     Bn1   v072
	BYTE	W08
	BYTE		N03   
	BYTE	W08
	BYTE		N03   
	BYTE	W08
	BYTE		N06     Bn1   v112
	BYTE	W08
	BYTE		N03     Bn1   v072
	BYTE	W08
	BYTE		N03   
	BYTE	W08
	BYTE		N06     Bn1   v112
	BYTE	W08
	BYTE		N03     Bn1   v060
	BYTE	W08
	BYTE		N05     Bn1   v092
	BYTE	W08
	BYTE		N06     Bn1   v112
	BYTE	W08
	BYTE		N03     Bn1   v072
	BYTE	W08
	BYTE	PEND
// 002   ----------------------------------------
	BYTE	PATT
	 POIN2	FFTInPursuitAlusq_5_001
// 003   ----------------------------------------
	BYTE	PATT
	 POIN2	FFTInPursuitAlusq_5_001
// 004   ----------------------------------------
	BYTE	PATT
	 POIN2	FFTInPursuitAlusq_5_001
// 005   ----------------------------------------
	BYTE	PATT
	 POIN2	FFTInPursuitAlusq_5_001
// 006   ----------------------------------------
	BYTE	PATT
	 POIN2	FFTInPursuitAlusq_5_001
// 007   ----------------------------------------
	BYTE	PATT
	 POIN2	FFTInPursuitAlusq_5_001
// 008   ----------------------------------------
	BYTE	PATT
	 POIN2	FFTInPursuitAlusq_5_001
// 009   ----------------------------------------
	BYTE	PATT
	 POIN2	FFTInPursuitAlusq_5_001
// 010   ----------------------------------------
	BYTE	PATT
	 POIN2	FFTInPursuitAlusq_5_001
// 011   ----------------------------------------
	BYTE	PATT
	 POIN2	FFTInPursuitAlusq_5_001
// 012   ----------------------------------------
	BYTE	PATT
	 POIN2	FFTInPursuitAlusq_5_001
// 013   ----------------------------------------
	BYTE	PATT
	 POIN2	FFTInPursuitAlusq_5_001
// 014   ----------------------------------------
	BYTE		N06     Bn1   v112
	BYTE	W08
	BYTE		N03     Bn1   v072
	BYTE	W08
	BYTE		N03   
	BYTE	W08
	BYTE		N03   
	BYTE	W08
	BYTE		N06     Bn1   v112
	BYTE	W08
	BYTE		N03     Bn1   v072
	BYTE	W08
	BYTE		N03   
	BYTE	W08
	BYTE		N40     An1   v092
	BYTE	W40
// 015   ----------------------------------------
	BYTE		N88     Gn1   v100
	BYTE	W96
// 016   ----------------------------------------
FFTInPursuitAlusq_5_016:
	BYTE		N72     Gn1   v100
	BYTE	W80
	BYTE		N16     Fs1 
	BYTE	W16
	BYTE	PEND
// 017   ----------------------------------------
	BYTE		N96     En1 
	BYTE	W96
// 018   ----------------------------------------
	BYTE		N88     Fs1 
	BYTE	W96
// 019   ----------------------------------------
	BYTE		        Gn1 
	BYTE	W96
// 020   ----------------------------------------
	BYTE	PATT
	 POIN2	FFTInPursuitAlusq_5_016
// 021   ----------------------------------------
	BYTE		N96     En1   v100
	BYTE	W96
// 022   ----------------------------------------
	BYTE		N88     Fs1 
	BYTE	W96
	BYTE	GoTo
	 POIN2	FFTInPursuitAlusq_5_B1
FFTInPursuitAlusq_5_B2:
// 023   ----------------------------------------
	BYTE	FINE

//**************** Track 6 (Midi-Chn.6) ****************//

FFTInPursuitAlusq_6:
	BYTE	KEYSH   FFTInPursuitAlusq_key+0
FFTInPursuitAlusq_6_B1:
// 000   ----------------------------------------
	BYTE		VOICE   14
	BYTE		VOL     55*FFTInPursuitAlusq_mvl/mxv
	BYTE		PAN     c_v+32
	BYTE	W56
	BYTE		N16     Fs3   v104
	BYTE	W16
	BYTE		N48     Fn3   v096
	BYTE	W24
// 001   ----------------------------------------
	BYTE	W96
// 002   ----------------------------------------
	BYTE	W96
// 003   ----------------------------------------
	BYTE	W96
// 004   ----------------------------------------
	BYTE	W96
// 005   ----------------------------------------
	BYTE	W96
// 006   ----------------------------------------
	BYTE	W96
// 007   ----------------------------------------
	BYTE	W96
// 008   ----------------------------------------
	BYTE	W96
// 009   ----------------------------------------
	BYTE	W96
// 010   ----------------------------------------
	BYTE	W96
// 011   ----------------------------------------
	BYTE	W96
// 012   ----------------------------------------
	BYTE	W96
// 013   ----------------------------------------
FFTInPursuitAlusq_6_013:
	BYTE		N48     Bn3   v104
	BYTE	W64
	BYTE		N24     Fs3   v088
	BYTE	W32
	BYTE	PEND
// 014   ----------------------------------------
	BYTE	PATT
	 POIN2	FFTInPursuitAlusq_6_013
// 015   ----------------------------------------
	BYTE	W96
// 016   ----------------------------------------
	BYTE		VOICE   48
	BYTE		N08     Dn3   v088
	BYTE	W08
	BYTE		        En3 
	BYTE	W08
	BYTE		        Fs3 
	BYTE	W08
	BYTE		        Dn3 
	BYTE	W08
	BYTE		        Gn3 
	BYTE	W08
	BYTE		        Dn3 
	BYTE	W08
	BYTE		        En3 
	BYTE	W08
	BYTE		        Cs3 
	BYTE	W08
	BYTE		        Fs3 
	BYTE	W08
	BYTE		        Cs3 
	BYTE	W08
	BYTE		        Fs3 
	BYTE	W08
	BYTE		        Dn3 
	BYTE	W08
// 017   ----------------------------------------
	BYTE		        Fs3 
	BYTE	W08
	BYTE		        Bn2 
	BYTE	W08
	BYTE		        Gn3 
	BYTE	W08
	BYTE		        En3 
	BYTE	W08
	BYTE		        Fs3 
	BYTE	W08
	BYTE		        En3 
	BYTE	W08
	BYTE		        Fs3 
	BYTE	W08
	BYTE		        Bn2 
	BYTE	W08
	BYTE		        Gn3 
	BYTE	W08
	BYTE		        En3 
	BYTE	W08
	BYTE		        Fs3 
	BYTE	W08
	BYTE		        En3 
	BYTE	W08
// 018   ----------------------------------------
	BYTE		        Dn3 
	BYTE	W08
	BYTE		        Cs3 
	BYTE	W08
	BYTE		        Bn2 
	BYTE	W08
	BYTE		        Cs3 
	BYTE	W08
	BYTE		        Bn2 
	BYTE	W08
	BYTE		        Cs3 
	BYTE	W08
	BYTE		        Fs2 
	BYTE	W08
	BYTE		        Cs3 
	BYTE	W08
	BYTE		        As2 
	BYTE	W08
	BYTE		        Fs3 
	BYTE	W08
	BYTE		        Cs3 
	BYTE	W08
	BYTE		        As2 
	BYTE	W08
// 019   ----------------------------------------
	BYTE		        Gn2 
	BYTE	W08
	BYTE		        Bn2 
	BYTE	W08
	BYTE		        Cs3 
	BYTE	W08
	BYTE		        Bn2 
	BYTE	W08
	BYTE		        En3 
	BYTE	W08
	BYTE		        Bn2 
	BYTE	W08
	BYTE		        Cs3 
	BYTE	W08
	BYTE		        Bn2 
	BYTE	W08
	BYTE		        Dn3 
	BYTE	W08
	BYTE		        Bn2 
	BYTE	W08
	BYTE		        Dn3 
	BYTE	W08
	BYTE		        Bn2 
	BYTE	W08
// 020   ----------------------------------------
	BYTE		VOICE   41
	BYTE		N08     Dn4   v080
	BYTE	W08
	BYTE		        En4 
	BYTE	W08
	BYTE		        Fs4 
	BYTE	W08
	BYTE		        Dn4 
	BYTE	W08
	BYTE		        Gn4 
	BYTE	W08
	BYTE		        Dn4 
	BYTE	W08
	BYTE		        En4 
	BYTE	W08
	BYTE		        Cs4 
	BYTE	W08
	BYTE		        Fs4 
	BYTE	W08
	BYTE		        Cs4 
	BYTE	W08
	BYTE		        Fs4 
	BYTE	W08
	BYTE		        Dn4 
	BYTE	W08
// 021   ----------------------------------------
	BYTE		        Fs4 
	BYTE	W08
	BYTE		        Bn3   v064
	BYTE	W08
	BYTE		        Gn4   v080
	BYTE	W08
	BYTE		        En4 
	BYTE	W08
	BYTE		        Fs4 
	BYTE	W08
	BYTE		        En4 
	BYTE	W08
	BYTE		        Fs4 
	BYTE	W08
	BYTE		        Bn3   v064
	BYTE	W08
	BYTE		        Gn4   v080
	BYTE	W08
	BYTE		        En4 
	BYTE	W08
	BYTE		        Fs4 
	BYTE	W08
	BYTE		        En4 
	BYTE	W08
// 022   ----------------------------------------
	BYTE		        Dn4 
	BYTE	W08
	BYTE		        Cs4 
	BYTE	W08
	BYTE		        Bn3   v064
	BYTE	W08
	BYTE		        Cs4   v080
	BYTE	W08
	BYTE		        Bn3   v064
	BYTE	W08
	BYTE		        Cs4   v080
	BYTE	W08
	BYTE		        Fs3   v072
	BYTE	W08
	BYTE		        Cs4   v080
	BYTE	W08
	BYTE		        As3   v072
	BYTE	W08
	BYTE		        Fs4   v080
	BYTE	W08
	BYTE		        Cs4 
	BYTE	W08
	BYTE		        As4 
	BYTE	W08
	BYTE	GoTo
	 POIN2	FFTInPursuitAlusq_6_B1
FFTInPursuitAlusq_6_B2:
// 023   ----------------------------------------
	BYTE	FINE

//**************** Track 7 (Midi-Chn.7) ****************//

FFTInPursuitAlusq_7:
	BYTE	KEYSH   FFTInPursuitAlusq_key+0
FFTInPursuitAlusq_7_B1:
// 000   ----------------------------------------
	BYTE		VOICE   51
	BYTE		VOL     46*FFTInPursuitAlusq_mvl/mxv
	BYTE		PAN     c_v-40
	BYTE		N04     Bn1   v100
	BYTE	W08
	BYTE		        Bn1   v064
	BYTE	W08
	BYTE		N04   
	BYTE	W08
	BYTE		N04   
	BYTE	W08
	BYTE		        Bn1   v100
	BYTE	W08
	BYTE		        Bn1   v064
	BYTE	W08
	BYTE		N04   
	BYTE	W08
	BYTE		        Bn1   v100
	BYTE	W08
	BYTE		        Bn1   v052
	BYTE	W08
	BYTE		        Bn1   v084
	BYTE	W08
	BYTE		        Bn1   v104
	BYTE	W08
	BYTE		        Bn1   v064
	BYTE	W08
// 001   ----------------------------------------
FFTInPursuitAlusq_7_001:
	BYTE		N04     Bn1   v100
	BYTE	W08
	BYTE		        Bn1   v064
	BYTE	W08
	BYTE		N04   
	BYTE	W08
	BYTE		N04   
	BYTE	W08
	BYTE		        Bn1   v100
	BYTE	W08
	BYTE		        Bn1   v064
	BYTE	W08
	BYTE		N04   
	BYTE	W08
	BYTE		        Bn1   v100
	BYTE	W08
	BYTE		        Bn1   v052
	BYTE	W08
	BYTE		        Bn1   v084
	BYTE	W08
	BYTE		        Bn1   v104
	BYTE	W08
	BYTE		        Bn1   v064
	BYTE	W08
	BYTE	PEND
// 002   ----------------------------------------
	BYTE	PATT
	 POIN2	FFTInPursuitAlusq_7_001
// 003   ----------------------------------------
	BYTE	PATT
	 POIN2	FFTInPursuitAlusq_7_001
// 004   ----------------------------------------
	BYTE	PATT
	 POIN2	FFTInPursuitAlusq_7_001
// 005   ----------------------------------------
	BYTE	PATT
	 POIN2	FFTInPursuitAlusq_7_001
// 006   ----------------------------------------
	BYTE	PATT
	 POIN2	FFTInPursuitAlusq_7_001
// 007   ----------------------------------------
	BYTE	PATT
	 POIN2	FFTInPursuitAlusq_7_001
// 008   ----------------------------------------
	BYTE	PATT
	 POIN2	FFTInPursuitAlusq_7_001
// 009   ----------------------------------------
	BYTE	PATT
	 POIN2	FFTInPursuitAlusq_7_001
// 010   ----------------------------------------
	BYTE	PATT
	 POIN2	FFTInPursuitAlusq_7_001
// 011   ----------------------------------------
	BYTE	PATT
	 POIN2	FFTInPursuitAlusq_7_001
// 012   ----------------------------------------
	BYTE		N04     Bn1   v100
	BYTE	W08
	BYTE		        Bn1   v064
	BYTE	W08
	BYTE		N04   
	BYTE	W08
	BYTE		N04   
	BYTE	W08
	BYTE		        Bn1   v100
	BYTE		N06     Fs2   v112
	BYTE	W08
	BYTE		N04     Bn1   v064
	BYTE		N03     Fs2   v092
	BYTE	W08
	BYTE		N04     Bn1   v064
	BYTE		N03     Fs2   v092
	BYTE	W08
	BYTE		N04     Bn1   v100
	BYTE		N06     An2   v112
	BYTE	W08
	BYTE		N04     Bn1   v052
	BYTE		N03     An2   v080
	BYTE	W08
	BYTE		N04     Bn1   v084
	BYTE		N04     An2   v096
	BYTE	W08
	BYTE		        Bn1   v104
	BYTE		N06     An2   v112
	BYTE	W08
	BYTE		N04     Bn1   v064
	BYTE		N03     An2   v092
	BYTE	W08
// 013   ----------------------------------------
	BYTE	PATT
	 POIN2	FFTInPursuitAlusq_7_001
// 014   ----------------------------------------
	BYTE		N04     Bn1   v100
	BYTE	W08
	BYTE		        Bn1   v064
	BYTE	W08
	BYTE		N04   
	BYTE	W08
	BYTE		N04   
	BYTE	W08
	BYTE		        Bn1   v100
	BYTE		N06     Fs2   v112
	BYTE	W08
	BYTE		N04     Bn1   v064
	BYTE		N03     Fs2   v092
	BYTE	W08
	BYTE		N04     Bn1   v064
	BYTE		N03     Fs2   v092
	BYTE	W08
	BYTE		N40     An1   v068
	BYTE		N06     An2   v112
	BYTE	W08
	BYTE		N03     An2   v080
	BYTE	W08
	BYTE		N04     An2   v096
	BYTE	W08
	BYTE		N06     An2   v112
	BYTE	W08
	BYTE		N03     An2   v092
	BYTE	W08
// 015   ----------------------------------------
FFTInPursuitAlusq_7_015:
	BYTE		N08     Gn1   v068
	BYTE	W08
	BYTE		        Bn1 
	BYTE	W08
	BYTE		        Cs2 
	BYTE	W08
	BYTE		        Bn1 
	BYTE	W08
	BYTE		        En2   v084
	BYTE	W08
	BYTE		        Bn1   v068
	BYTE	W08
	BYTE		        Cs2 
	BYTE	W08
	BYTE		        Bn1 
	BYTE	W08
	BYTE		        Dn2 
	BYTE	W08
	BYTE		        Bn1 
	BYTE	W08
	BYTE		        Dn2 
	BYTE	W08
	BYTE		        Bn1 
	BYTE	W08
	BYTE	PEND
// 016   ----------------------------------------
	BYTE		        Bn1   v084
	BYTE	W08
	BYTE		        Cs2   v076
	BYTE	W08
	BYTE		        Dn2   v084
	BYTE	W08
	BYTE		        Bn1   v072
	BYTE	W08
	BYTE		        En2   v084
	BYTE	W08
	BYTE		        Bn1   v072
	BYTE	W08
	BYTE		        Cs2   v084
	BYTE	W08
	BYTE		        Bn1   v072
	BYTE	W08
	BYTE		        Dn2   v080
	BYTE	W08
	BYTE		        Cs2   v068
	BYTE	W08
	BYTE		        Dn2   v076
	BYTE	W08
	BYTE		        Bn1   v068
	BYTE	W08
// 017   ----------------------------------------
	BYTE		        Dn2   v072
	BYTE	W08
	BYTE		        En1 
	BYTE	W08
	BYTE		        En2 
	BYTE	W08
	BYTE		        Bn1 
	BYTE	W08
	BYTE		        Cs2 
	BYTE	W08
	BYTE		        Bn1 
	BYTE	W08
	BYTE		        Cs2 
	BYTE	W08
	BYTE		        En1 
	BYTE	W08
	BYTE		        Dn2 
	BYTE	W08
	BYTE		        Bn1 
	BYTE	W08
	BYTE		        Cs2 
	BYTE	W08
	BYTE		        Bn1 
	BYTE	W08
// 018   ----------------------------------------
	BYTE		        Dn2   v084
	BYTE	W08
	BYTE		        Cs2   v072
	BYTE	W08
	BYTE		        Bn1   v116
	BYTE	W08
	BYTE		        Cs2   v068
	BYTE	W08
	BYTE		        Bn1   v120
	BYTE	W08
	BYTE		        Cs2   v072
	BYTE	W08
	BYTE		N40     As2   v084
	BYTE	W48
// 019   ----------------------------------------
	BYTE	PATT
	 POIN2	FFTInPursuitAlusq_7_015
// 020   ----------------------------------------
	BYTE		VOICE   48
	BYTE		N08     Bn2   v084
	BYTE	W08
	BYTE		        Cs3   v076
	BYTE	W08
	BYTE		        Dn3   v084
	BYTE	W08
	BYTE		        Bn2   v072
	BYTE	W08
	BYTE		        En3   v084
	BYTE	W08
	BYTE		        Bn2   v072
	BYTE	W08
	BYTE		        Cs3   v084
	BYTE	W08
	BYTE		        Bn2   v072
	BYTE	W08
	BYTE		        Dn3   v080
	BYTE	W08
	BYTE		        Cs3   v068
	BYTE	W08
	BYTE		        Dn3   v084
	BYTE	W08
	BYTE		        Bn2   v068
	BYTE	W08
// 021   ----------------------------------------
	BYTE		        Dn3   v072
	BYTE	W08
	BYTE		        En2 
	BYTE	W08
	BYTE		        En3 
	BYTE	W08
	BYTE		        Bn2 
	BYTE	W08
	BYTE		        Cs3 
	BYTE	W08
	BYTE		        Bn2 
	BYTE	W08
	BYTE		        Cs3 
	BYTE	W08
	BYTE		        En2 
	BYTE	W08
	BYTE		        Dn3 
	BYTE	W08
	BYTE		        Bn2 
	BYTE	W08
	BYTE		        Cs3 
	BYTE	W08
	BYTE		        Bn2 
	BYTE	W08
// 022   ----------------------------------------
	BYTE		        Dn3   v084
	BYTE	W08
	BYTE		        Cs3   v072
	BYTE	W08
	BYTE		        Bn2   v116
	BYTE	W08
	BYTE		        Cs3   v068
	BYTE	W08
	BYTE		        Bn2   v120
	BYTE	W08
	BYTE		        Cs3   v072
	BYTE	W08
	BYTE		N40     As2   v092
	BYTE	W48
	BYTE	GoTo
	 POIN2	FFTInPursuitAlusq_7_B1
FFTInPursuitAlusq_7_B2:
// 023   ----------------------------------------
	BYTE	FINE

//**************** Track 8 (Midi-Chn.9) ****************//

FFTInPursuitAlusq_8:
	BYTE	KEYSH   FFTInPursuitAlusq_key+0
FFTInPursuitAlusq_8_B1:
// 000   ----------------------------------------
	BYTE		VOICE   50
	BYTE		MOD     1
	BYTE		PAN     c_v-11
	BYTE		VOL     53*FFTInPursuitAlusq_mvl/mxv
	BYTE		N06     Bn0   v112
	BYTE	W32
	BYTE		N06   
	BYTE	W24
	BYTE		N06   
	BYTE	W24
	BYTE		N06   
	BYTE	W16
// 001   ----------------------------------------
FFTInPursuitAlusq_8_001:
	BYTE		N06     Bn0   v112
	BYTE	W32
	BYTE		N06   
	BYTE	W24
	BYTE		N06   
	BYTE	W24
	BYTE		N06   
	BYTE	W16
	BYTE	PEND
// 002   ----------------------------------------
	BYTE	PATT
	 POIN2	FFTInPursuitAlusq_8_001
// 003   ----------------------------------------
	BYTE	PATT
	 POIN2	FFTInPursuitAlusq_8_001
// 004   ----------------------------------------
	BYTE	PATT
	 POIN2	FFTInPursuitAlusq_8_001
// 005   ----------------------------------------
	BYTE	PATT
	 POIN2	FFTInPursuitAlusq_8_001
// 006   ----------------------------------------
	BYTE	PATT
	 POIN2	FFTInPursuitAlusq_8_001
// 007   ----------------------------------------
	BYTE	PATT
	 POIN2	FFTInPursuitAlusq_8_001
// 008   ----------------------------------------
	BYTE	PATT
	 POIN2	FFTInPursuitAlusq_8_001
// 009   ----------------------------------------
	BYTE	PATT
	 POIN2	FFTInPursuitAlusq_8_001
// 010   ----------------------------------------
	BYTE	PATT
	 POIN2	FFTInPursuitAlusq_8_001
// 011   ----------------------------------------
	BYTE	PATT
	 POIN2	FFTInPursuitAlusq_8_001
// 012   ----------------------------------------
	BYTE	PATT
	 POIN2	FFTInPursuitAlusq_8_001
// 013   ----------------------------------------
	BYTE	PATT
	 POIN2	FFTInPursuitAlusq_8_001
// 014   ----------------------------------------
	BYTE		N06     Bn0   v112
	BYTE	W32
	BYTE		N06   
	BYTE	W64
// 015   ----------------------------------------
	BYTE		N88     Gn0 
	BYTE	W96
// 016   ----------------------------------------
	BYTE		N72   
	BYTE	W80
	BYTE		N16     Fs0 
	BYTE	W16
// 017   ----------------------------------------
	BYTE		N96     En0 
	BYTE	W96
// 018   ----------------------------------------
	BYTE		N88     Fs0 
	BYTE	W96
// 019   ----------------------------------------
	BYTE		        Gn0   v127
	BYTE	W96
// 020   ----------------------------------------
	BYTE		N72   
	BYTE	W80
	BYTE		N16     Fs0 
	BYTE	W16
// 021   ----------------------------------------
	BYTE		N96     En0 
	BYTE	W96
// 022   ----------------------------------------
	BYTE		N88     Fs0 
	BYTE	W96
	BYTE	GoTo
	 POIN2	FFTInPursuitAlusq_8_B1
FFTInPursuitAlusq_8_B2:
// 023   ----------------------------------------
	BYTE	FINE

//******************************************************//
	ALIGN 4

FFTInPursuitAlusq:
	BYTE	8	// NumTrks
	BYTE	0	// NumBlks
	BYTE	FFTInPursuitAlusq_pri	// Priority
	BYTE	FFTInPursuitAlusq_rev	// Reverb.

	POIN2	FFTInPursuitAlusq_grp

	POIN2	FFTInPursuitAlusq_1
	POIN2	FFTInPursuitAlusq_2
	POIN2	FFTInPursuitAlusq_3
	POIN2	FFTInPursuitAlusq_4
	POIN2	FFTInPursuitAlusq_5
	POIN2	FFTInPursuitAlusq_6
	POIN2	FFTInPursuitAlusq_7
	POIN2	FFTInPursuitAlusq_8

	
