//Event file generated from Sappy .s format.
	#include "MPlayDef.event"

	#define	BanjoKazooieGruntildaBattleSme_grp  voicegroup000
	#define	BanjoKazooieGruntildaBattleSme_pri  0
	#define	BanjoKazooieGruntildaBattleSme_rev  0
	#define	BanjoKazooieGruntildaBattleSme_mvl  75
	#define	BanjoKazooieGruntildaBattleSme_key  0
	#define	BanjoKazooieGruntildaBattleSme_tbs  1
	#define	BanjoKazooieGruntildaBattleSme_exg  0
	#define	BanjoKazooieGruntildaBattleSme_cmp  1

	// .rodata
	//	BanjoKazooieGruntildaBattleSme
	ALIGN 4

//**************** Track 1 (Midi-Chn.1) ****************//

BanjoKazooieGruntildaBattleSme_1:
	BYTE	KEYSH   BanjoKazooieGruntildaBattleSme_key+0
// 000   ----------------------------------------
	BYTE	TEMPO   180*BanjoKazooieGruntildaBattleSme_tbs/2
	BYTE		VOICE   47
	BYTE		VOL     121*BanjoKazooieGruntildaBattleSme_mvl/mxv
	BYTE	W24
	BYTE	W72
// 001   ----------------------------------------
BanjoKazooieGruntildaBattleSme_1_001:
	BYTE	W52
	BYTE		N04     Cn3   v012
	BYTE	W05
	BYTE		        Cn3   v016
	BYTE	W05
	BYTE		        Cn3   v036
	BYTE	W05
	BYTE		        Cn3   v044
	BYTE	W05
	BYTE		        Cn3   v056
	BYTE	W05
	BYTE		N01     Cn3   v064
	BYTE	W04
	BYTE		        Cn3   v072
	BYTE	W05
	BYTE		        Cn3   v080
	BYTE	W05
	BYTE		        Cn3   v092
	BYTE	W05
	BYTE	PEND
BanjoKazooieGruntildaBattleSme_1_B1:
// 002   ----------------------------------------
	BYTE		N60     Cn3   v127
	BYTE	W96
// 003   ----------------------------------------
	BYTE	PATT
	 POIN2	BanjoKazooieGruntildaBattleSme_1_001
// 004   ----------------------------------------
	BYTE		N01     Cn3   v127
	BYTE	W96
// 005   ----------------------------------------
	BYTE	PATT
	 POIN2	BanjoKazooieGruntildaBattleSme_1_001
// 006   ----------------------------------------
	BYTE		N80     Ds2   v127
	BYTE	W96
// 007   ----------------------------------------
	BYTE	W96
// 008   ----------------------------------------
	BYTE	W96
// 009   ----------------------------------------
	BYTE	W96
// 010   ----------------------------------------
	BYTE	W96
// 011   ----------------------------------------
	BYTE	W96
// 012   ----------------------------------------
	BYTE		N68     Fn2 
	BYTE	W96
// 013   ----------------------------------------
	BYTE	W96
// 014   ----------------------------------------
	BYTE	W96
// 015   ----------------------------------------
	BYTE	PATT
	 POIN2	BanjoKazooieGruntildaBattleSme_1_001
// 016   ----------------------------------------
	BYTE		N01     Cn3   v127
	BYTE	W96
// 017   ----------------------------------------
	BYTE	PATT
	 POIN2	BanjoKazooieGruntildaBattleSme_1_001
// 018   ----------------------------------------
	BYTE		N80     Ds2   v127
	BYTE	W96
// 019   ----------------------------------------
	BYTE	PATT
	 POIN2	BanjoKazooieGruntildaBattleSme_1_001
// 020   ----------------------------------------
	BYTE		N68     Fn2   v108
	BYTE	W96
// 021   ----------------------------------------
	BYTE	W96
// 022   ----------------------------------------
	BYTE	W96
// 023   ----------------------------------------
	BYTE	W96
// 024   ----------------------------------------
	BYTE		N72   
	BYTE	W96
// 025   ----------------------------------------
	BYTE	W96
// 026   ----------------------------------------
	BYTE	W96
// 027   ----------------------------------------
	BYTE	PATT
	 POIN2	BanjoKazooieGruntildaBattleSme_1_001
// 028   ----------------------------------------
	BYTE		N01     Cn3   v127
	BYTE	W24
	BYTE		N48   
	BYTE	W48
	BYTE		        As2 
	BYTE	W24
// 029   ----------------------------------------
BanjoKazooieGruntildaBattleSme_1_029:
	BYTE	W24
	BYTE		N48     Gs2   v127
	BYTE	W48
	BYTE		        Gn2 
	BYTE	W24
	BYTE	PEND
// 030   ----------------------------------------
BanjoKazooieGruntildaBattleSme_1_030:
	BYTE	W24
	BYTE		N48     Cn3   v127
	BYTE	W48
	BYTE		        Gn2 
	BYTE	W24
	BYTE	PEND
// 031   ----------------------------------------
BanjoKazooieGruntildaBattleSme_1_031:
	BYTE	W24
	BYTE		N48     Ds2   v127
	BYTE	W48
	BYTE		        Fn2 
	BYTE	W24
	BYTE	PEND
// 032   ----------------------------------------
BanjoKazooieGruntildaBattleSme_1_032:
	BYTE	W24
	BYTE		N48     Cn3   v127
	BYTE	W48
	BYTE		        As2 
	BYTE	W24
	BYTE	PEND
// 033   ----------------------------------------
	BYTE	PATT
	 POIN2	BanjoKazooieGruntildaBattleSme_1_029
// 034   ----------------------------------------
BanjoKazooieGruntildaBattleSme_1_034:
	BYTE	W24
	BYTE		N48     Cn3   v127
	BYTE	W48
	BYTE		        Cs3 
	BYTE	W24
	BYTE	PEND
// 035   ----------------------------------------
	BYTE	W24
	BYTE		        Gn2 
	BYTE	W48
	BYTE		N24   
	BYTE	W24
// 036   ----------------------------------------
	BYTE	PATT
	 POIN2	BanjoKazooieGruntildaBattleSme_1_032
// 037   ----------------------------------------
	BYTE	PATT
	 POIN2	BanjoKazooieGruntildaBattleSme_1_029
// 038   ----------------------------------------
	BYTE	PATT
	 POIN2	BanjoKazooieGruntildaBattleSme_1_030
// 039   ----------------------------------------
	BYTE	PATT
	 POIN2	BanjoKazooieGruntildaBattleSme_1_031
// 040   ----------------------------------------
	BYTE	PATT
	 POIN2	BanjoKazooieGruntildaBattleSme_1_032
// 041   ----------------------------------------
	BYTE	PATT
	 POIN2	BanjoKazooieGruntildaBattleSme_1_029
// 042   ----------------------------------------
	BYTE	PATT
	 POIN2	BanjoKazooieGruntildaBattleSme_1_034
// 043   ----------------------------------------
	BYTE	W24
	BYTE		N48     Gn2   v127
	BYTE	W48
	BYTE		N68   
	BYTE	W24
// 044   ----------------------------------------
	BYTE	PATT
	 POIN2	BanjoKazooieGruntildaBattleSme_1_001
// 045   ----------------------------------------
	BYTE		N01     Cn3   v127
	BYTE	W96
// 046   ----------------------------------------
	BYTE		N60     Gs2 
	BYTE	W96
// 047   ----------------------------------------
	BYTE		        Cn3 
	BYTE	W96
// 048   ----------------------------------------
BanjoKazooieGruntildaBattleSme_1_048:
	BYTE		N48     Fs2   v127
	BYTE	W48
	BYTE		        Cs3 
	BYTE	W48
	BYTE	PEND
// 049   ----------------------------------------
	BYTE		N60     Cn3 
	BYTE	W96
// 050   ----------------------------------------
	BYTE		        Gs2 
	BYTE	W96
// 051   ----------------------------------------
	BYTE		        Cn3 
	BYTE	W96
// 052   ----------------------------------------
	BYTE	PATT
	 POIN2	BanjoKazooieGruntildaBattleSme_1_048
// 053   ----------------------------------------
	BYTE		N60     Cn3   v127
	BYTE	W96
// 054   ----------------------------------------
	BYTE		        Gs2 
	BYTE	W96
// 055   ----------------------------------------
	BYTE		        Cn3 
	BYTE	W96
// 056   ----------------------------------------
	BYTE		        Gn2 
	BYTE	W96
// 057   ----------------------------------------
	BYTE		N56     Cn3 
	BYTE	W56
	BYTE		N02     Gn2   v012
	BYTE	W02
	BYTE		N03     Gn2   v016
	BYTE	W03
	BYTE		N02     Gn2   v028
	BYTE	W03
	BYTE		N03     Gn2   v036
	BYTE	W03
	BYTE		N01     Gn2   v044
	BYTE	W04
	BYTE		N03     Gn2   v056
	BYTE	W03
	BYTE		        Gn2   v064
	BYTE	W03
	BYTE		N02     Gn2   v072
	BYTE	W03
	BYTE		N03     Gn2   v080
	BYTE	W03
	BYTE		N02     Gn2   v092
	BYTE	W03
	BYTE		N03     Gn2   v100
	BYTE	W03
	BYTE		N02     Gn2   v108
	BYTE	W02
	BYTE		        Gn2   v112
	BYTE	W02
	BYTE		        Gn2   v120
	BYTE	W03
// 058   ----------------------------------------
	BYTE		N60     Cn3   v127
	BYTE	W96
// 059   ----------------------------------------
	BYTE	PATT
	 POIN2	BanjoKazooieGruntildaBattleSme_1_001
// 060   ----------------------------------------
	BYTE		N60     Ds3   v127
	BYTE	W96
// 061   ----------------------------------------
	BYTE		        Bn2 
	BYTE	W52
	BYTE		N04     Cn3   v012
	BYTE	W05
	BYTE		        Cn3   v016
	BYTE	W05
	BYTE		        Cn3   v036
	BYTE	W05
	BYTE		        Cn3   v044
	BYTE	W05
	BYTE		        Cn3   v056
	BYTE	W05
	BYTE		N01     Cn3   v064
	BYTE	W04
	BYTE		        Cn3   v072
	BYTE	W05
	BYTE		        Cn3   v080
	BYTE	W05
	BYTE		        Cn3   v092
	BYTE	W05
// 062   ----------------------------------------
	BYTE		N72     Fn2   v127
	BYTE	W96
// 063   ----------------------------------------
	BYTE	PATT
	 POIN2	BanjoKazooieGruntildaBattleSme_1_001
// 064   ----------------------------------------
	BYTE		N68     Gs2   v127
	BYTE	W96
// 065   ----------------------------------------
	BYTE		N80     En2 
	BYTE	W96
// 066   ----------------------------------------
	BYTE		N48     Cn3 
	BYTE	W96
// 067   ----------------------------------------
	BYTE	W96
// 068   ----------------------------------------
	BYTE	W96
// 069   ----------------------------------------
	BYTE	W96
// 070   ----------------------------------------
	BYTE		N96     Fn2 
	BYTE	W96
// 071   ----------------------------------------
	BYTE	W02
	BYTE		        Ds2 
	BYTE	W92
	BYTE	W01
	BYTE		        Cs2 
	BYTE	W01
// 072   ----------------------------------------
	BYTE	W92
	BYTE	W03
	BYTE		        Bn1 
	BYTE	W01
// 073   ----------------------------------------
	BYTE	W96
// 074   ----------------------------------------
	BYTE	W48
	BYTE		N60     An2 
	BYTE	W48
// 075   ----------------------------------------
	BYTE	W48
	BYTE		N56     Fn2 
	BYTE	W48
// 076   ----------------------------------------
	BYTE	W48
	BYTE		N64     An2 
	BYTE	W48
// 077   ----------------------------------------
	BYTE	W48
	BYTE		N44     Fn2 
	BYTE	W48
// 078   ----------------------------------------
	BYTE	W48
	BYTE		N72     Bn2 
	BYTE	W48
// 079   ----------------------------------------
	BYTE	W48
	BYTE		N80     Gn2 
	BYTE	W48
// 080   ----------------------------------------
	BYTE	W48
	BYTE		N84     Bn2 
	BYTE	W48
// 081   ----------------------------------------
	BYTE	W48
	BYTE		N24     Gn2 
	BYTE	W23
	BYTE		N04     Cn3   v060
	BYTE	W05
	BYTE		N01     Cn3   v072
	BYTE	W04
	BYTE		        Cn3   v084
	BYTE	W03
	BYTE		        Cn3   v096
	BYTE	W04
	BYTE		        Cn3   v104
	BYTE	W03
	BYTE		        Cn3   v112
	BYTE	W03
	BYTE		        Cn3   v124
	BYTE	W03
// 082   ----------------------------------------
	BYTE		N72     En2   v127
	BYTE	W96
// 083   ----------------------------------------
	BYTE		N72   
	BYTE	W96
// 084   ----------------------------------------
	BYTE		N72   
	BYTE	W96
// 085   ----------------------------------------
	BYTE		N60     As2 
	BYTE	W96
// 086   ----------------------------------------
	BYTE		N72     En2 
	BYTE	W96
// 087   ----------------------------------------
	BYTE		N72   
	BYTE	W96
// 088   ----------------------------------------
	BYTE		N72   
	BYTE	W96
// 089   ----------------------------------------
	BYTE		N60     As2 
	BYTE	W96
// 090   ----------------------------------------
	BYTE		N80     Dn2 
	BYTE	W96
// 091   ----------------------------------------
	BYTE		        Fn2 
	BYTE	W96
// 092   ----------------------------------------
	BYTE		N68     Gs2 
	BYTE	W96
// 093   ----------------------------------------
	BYTE		        Bn2 
	BYTE	W96
// 094   ----------------------------------------
	BYTE		N48   
	BYTE	W48
	BYTE		N48   
	BYTE	W48
// 095   ----------------------------------------
	BYTE		N24   
	BYTE	W24
	BYTE		N24   
	BYTE	W24
	BYTE		N24   
	BYTE	W24
	BYTE		N24   
	BYTE	W24
// 096   ----------------------------------------
	BYTE		N60     Cn3 
	BYTE	W96
// 097   ----------------------------------------
	BYTE	W96
// 098   ----------------------------------------
	BYTE	W96
// 099   ----------------------------------------
	BYTE	PATT
	 POIN2	BanjoKazooieGruntildaBattleSme_1_001
// 100   ----------------------------------------
	BYTE		N01     Cn3   v127
	BYTE	W96
// 101   ----------------------------------------
	BYTE	W96
// 102   ----------------------------------------
	BYTE	W96
// 103   ----------------------------------------
	BYTE	W96
// 104   ----------------------------------------
	BYTE		N68     Gs2 
	BYTE	W96
// 105   ----------------------------------------
	BYTE		        Fn2 
	BYTE	W96
// 106   ----------------------------------------
	BYTE		        Gs2 
	BYTE	W96
// 107   ----------------------------------------
	BYTE		        Fn2 
	BYTE	W96
// 108   ----------------------------------------
	BYTE		        Gs2 
	BYTE	W96
// 109   ----------------------------------------
	BYTE		        Fn2 
	BYTE	W96
// 110   ----------------------------------------
	BYTE		        Gs2 
	BYTE	W96
// 111   ----------------------------------------
	BYTE		        Fn2 
	BYTE	W96
// 112   ----------------------------------------
	BYTE	W48
	BYTE		N60     Cn3 
	BYTE	W48
// 113   ----------------------------------------
	BYTE	W48
	BYTE		        Gs2 
	BYTE	W48
// 114   ----------------------------------------
	BYTE	W48
	BYTE		        Cn3 
	BYTE	W48
// 115   ----------------------------------------
	BYTE	W48
	BYTE		        Gs2 
	BYTE	W48
// 116   ----------------------------------------
	BYTE	W48
	BYTE		        Cn3 
	BYTE	W48
// 117   ----------------------------------------
	BYTE	W48
	BYTE		        Gs2 
	BYTE	W48
// 118   ----------------------------------------
	BYTE	W48
	BYTE		        Cn3 
	BYTE	W48
// 119   ----------------------------------------
	BYTE	W48
	BYTE		N48     Gs2 
	BYTE	W48
// 120   ----------------------------------------
	BYTE		N60     Dn3 
	BYTE	W96
// 121   ----------------------------------------
	BYTE	W96
// 122   ----------------------------------------
	BYTE	W96
// 123   ----------------------------------------
	BYTE	W96
// 124   ----------------------------------------
	BYTE	W96
// 125   ----------------------------------------
	BYTE	W96
// 126   ----------------------------------------
	BYTE	W96
// 127   ----------------------------------------
	BYTE	PATT
	 POIN2	BanjoKazooieGruntildaBattleSme_1_001
// 128   ----------------------------------------
	BYTE		N60     Gn2   v127
	BYTE	W96
// 129   ----------------------------------------
	BYTE	W96
// 130   ----------------------------------------
	BYTE	W96
// 131   ----------------------------------------
	BYTE	W96
// 132   ----------------------------------------
	BYTE		        Gs2 
	BYTE	W96
// 133   ----------------------------------------
	BYTE		        Gn2 
	BYTE	W96
// 134   ----------------------------------------
	BYTE		        Cn3 
	BYTE	W96
// 135   ----------------------------------------
	BYTE	W96
	BYTE	GoTo
	 POIN2	BanjoKazooieGruntildaBattleSme_1_B1
BanjoKazooieGruntildaBattleSme_1_B2:
// 136   ----------------------------------------
	BYTE	FINE

//**************** Track 2 (Midi-Chn.2) ****************//

BanjoKazooieGruntildaBattleSme_2:
	BYTE	KEYSH   BanjoKazooieGruntildaBattleSme_key+0
// 000   ----------------------------------------
	BYTE		VOICE   49
	BYTE		VOL     72*BanjoKazooieGruntildaBattleSme_mvl/mxv
	BYTE		PAN     c_v-14
	BYTE	W96
// 001   ----------------------------------------
	BYTE		N13     Cn3   v127
	BYTE	W16
	BYTE		N03     Ds3 
	BYTE	W08
	BYTE		        Dn3 
	BYTE	W08
	BYTE		        Ds3 
	BYTE	W08
	BYTE		N04     Dn3 
	BYTE	W08
	BYTE		N48     Cn3 
	BYTE		N12     Cn4 
	BYTE	W16
	BYTE		N03     Ds4 
	BYTE	W08
	BYTE		        Dn4 
	BYTE	W08
	BYTE		        Ds4 
	BYTE	W08
	BYTE		N04     Dn4 
	BYTE	W08
BanjoKazooieGruntildaBattleSme_2_B1:
// 002   ----------------------------------------
	BYTE		N01     Cn3   v120
	BYTE	W04
	BYTE		N04     Ds3 
	BYTE	W04
	BYTE		        Gn3 
	BYTE	W04
	BYTE		        Cn4 
	BYTE	W04
	BYTE		        Ds4 
	BYTE	W04
	BYTE		        Gn4 
	BYTE	W04
	BYTE		        Cn5 
	BYTE	W04
	BYTE		        Gn4 
	BYTE	W04
	BYTE		        Ds4 
	BYTE	W04
	BYTE		        Cn4 
	BYTE	W04
	BYTE		        Gn3 
	BYTE	W04
	BYTE		        Ds3 
	BYTE	W04
	BYTE		        Cn3 
	BYTE	W04
	BYTE		        Ds3 
	BYTE	W04
	BYTE		        Gn3 
	BYTE	W04
	BYTE		        Cn4 
	BYTE	W04
	BYTE		        Ds4 
	BYTE	W04
	BYTE		        Gn4 
	BYTE	W04
	BYTE		        Cn5 
	BYTE	W04
	BYTE		        Gn4 
	BYTE	W04
	BYTE		        Ds4 
	BYTE	W04
	BYTE		        Cn4 
	BYTE	W04
	BYTE		        Gn3 
	BYTE	W04
	BYTE		        Ds3 
	BYTE	W04
// 003   ----------------------------------------
BanjoKazooieGruntildaBattleSme_2_003:
	BYTE		N04     Gs2   v120
	BYTE	W04
	BYTE		        Bn2 
	BYTE	W04
	BYTE		        Ds3 
	BYTE	W04
	BYTE		        Gs3 
	BYTE	W04
	BYTE		        Bn3 
	BYTE	W04
	BYTE		        Ds4 
	BYTE	W04
	BYTE		        Gs4 
	BYTE	W04
	BYTE		        Ds4 
	BYTE	W04
	BYTE		        Bn3 
	BYTE	W04
	BYTE		        Gs3 
	BYTE	W04
	BYTE		        Ds3 
	BYTE	W04
	BYTE		        Bn2 
	BYTE	W04
	BYTE		        Gs2 
	BYTE	W04
	BYTE		        Bn2 
	BYTE	W04
	BYTE		        Ds3 
	BYTE	W04
	BYTE		        Gs3 
	BYTE	W04
	BYTE		        Bn3 
	BYTE	W04
	BYTE		        Ds4 
	BYTE	W04
	BYTE		        Gs4 
	BYTE	W04
	BYTE		        Ds4 
	BYTE	W04
	BYTE		        Bn3 
	BYTE	W04
	BYTE		        Gs3 
	BYTE	W04
	BYTE		        Ds3 
	BYTE	W04
	BYTE		        Bn2 
	BYTE	W04
	BYTE	PEND
// 004   ----------------------------------------
BanjoKazooieGruntildaBattleSme_2_004:
	BYTE		N04     Cn3   v120
	BYTE	W04
	BYTE		        Ds3 
	BYTE	W04
	BYTE		        Gn3 
	BYTE	W04
	BYTE		        Cn4 
	BYTE	W04
	BYTE		        Ds4 
	BYTE	W04
	BYTE		        Gn4 
	BYTE	W04
	BYTE		        Cn5 
	BYTE	W04
	BYTE		        Gn4 
	BYTE	W04
	BYTE		        Ds4 
	BYTE	W04
	BYTE		        Cn4 
	BYTE	W04
	BYTE		        Gn3 
	BYTE	W04
	BYTE		        Ds3 
	BYTE	W04
	BYTE		        Cn3 
	BYTE	W04
	BYTE		        Ds3 
	BYTE	W04
	BYTE		        Gn3 
	BYTE	W04
	BYTE		        Cn4 
	BYTE	W04
	BYTE		        Ds4 
	BYTE	W04
	BYTE		        Gn4 
	BYTE	W04
	BYTE		        Cn5 
	BYTE	W04
	BYTE		        Gn4 
	BYTE	W04
	BYTE		        Ds4 
	BYTE	W04
	BYTE		        Cn4 
	BYTE	W04
	BYTE		        Gn3 
	BYTE	W04
	BYTE		        Ds3 
	BYTE	W04
	BYTE	PEND
// 005   ----------------------------------------
	BYTE		        Cn3 
	BYTE	W04
	BYTE		        Ds3 
	BYTE	W04
	BYTE		        Gn3 
	BYTE	W04
	BYTE		        Cn4 
	BYTE	W04
	BYTE		        Ds4 
	BYTE	W04
	BYTE		        Gn4 
	BYTE	W04
	BYTE		        Cn5 
	BYTE	W04
	BYTE		        Gn4 
	BYTE	W04
	BYTE		        Ds4 
	BYTE	W04
	BYTE		        Cn4 
	BYTE	W04
	BYTE		        Gn3 
	BYTE	W04
	BYTE		        Ds3 
	BYTE	W04
	BYTE		        Cn3 
	BYTE	W04
	BYTE		        Ds3 
	BYTE	W04
	BYTE		        Gn3 
	BYTE	W04
	BYTE		        Cn4 
	BYTE	W04
	BYTE		        Ds4 
	BYTE	W04
	BYTE		        Gn4 
	BYTE	W04
	BYTE		        Dn5 
	BYTE	W04
	BYTE		        As4 
	BYTE	W04
	BYTE		        Fn4 
	BYTE	W04
	BYTE		        Dn4 
	BYTE	W04
	BYTE		        As3 
	BYTE	W04
	BYTE		        Fn3 
	BYTE	W04
// 006   ----------------------------------------
BanjoKazooieGruntildaBattleSme_2_006:
	BYTE		N04     Ds3   v120
	BYTE	W04
	BYTE		        Gn3 
	BYTE	W04
	BYTE		        As3 
	BYTE	W04
	BYTE		        Ds4 
	BYTE	W04
	BYTE		        Gn4 
	BYTE	W04
	BYTE		        As4 
	BYTE	W04
	BYTE		        Ds5 
	BYTE	W04
	BYTE		        As4 
	BYTE	W04
	BYTE		        Gn4 
	BYTE	W04
	BYTE		        Ds4 
	BYTE	W04
	BYTE		        As3 
	BYTE	W04
	BYTE		        Gn3 
	BYTE	W04
	BYTE		        Ds3 
	BYTE	W04
	BYTE		        Gn3 
	BYTE	W04
	BYTE		        As3 
	BYTE	W04
	BYTE		        Ds4 
	BYTE	W04
	BYTE		        Gn4 
	BYTE	W04
	BYTE		        As4 
	BYTE	W04
	BYTE		        Ds5 
	BYTE	W04
	BYTE		        As4 
	BYTE	W04
	BYTE		        Gn4 
	BYTE	W04
	BYTE		        Ds4 
	BYTE	W04
	BYTE		        As3 
	BYTE	W04
	BYTE		        Gn3 
	BYTE	W04
	BYTE	PEND
// 007   ----------------------------------------
	BYTE	PATT
	 POIN2	BanjoKazooieGruntildaBattleSme_2_006
// 008   ----------------------------------------
	BYTE		N04     Fn3   v120
	BYTE	W04
	BYTE		        Gs3 
	BYTE	W04
	BYTE		        Cn4 
	BYTE	W04
	BYTE		        Fn4 
	BYTE	W04
	BYTE		        Gs4 
	BYTE	W04
	BYTE		        Cn5 
	BYTE	W04
	BYTE		        Fn5 
	BYTE	W04
	BYTE		        Cn5 
	BYTE	W04
	BYTE		        Gs4 
	BYTE	W04
	BYTE		        Fn4 
	BYTE	W04
	BYTE		        Cn4 
	BYTE	W04
	BYTE		        Gs3 
	BYTE	W04
	BYTE		        Cn3 
	BYTE	W04
	BYTE		        Ds3 
	BYTE	W04
	BYTE		        Gn3 
	BYTE	W04
	BYTE		        Cn4 
	BYTE	W04
	BYTE		        Ds4 
	BYTE	W04
	BYTE		        Gn4 
	BYTE	W04
	BYTE		        Cn5 
	BYTE	W04
	BYTE		        Gn4 
	BYTE	W04
	BYTE		        Ds4 
	BYTE	W04
	BYTE		        Cn4 
	BYTE	W04
	BYTE		        Gn3 
	BYTE	W04
	BYTE		        Ds3 
	BYTE	W04
// 009   ----------------------------------------
BanjoKazooieGruntildaBattleSme_2_009:
	BYTE		N04     Cs3   v120
	BYTE	W04
	BYTE		        Fn3 
	BYTE	W04
	BYTE		        Gs3 
	BYTE	W04
	BYTE		        Cs4 
	BYTE	W04
	BYTE		        Fn4 
	BYTE	W04
	BYTE		        Gs4 
	BYTE	W04
	BYTE		        Cs5 
	BYTE	W04
	BYTE		        Gs4 
	BYTE	W04
	BYTE		        Fn4 
	BYTE	W04
	BYTE		        Cs4 
	BYTE	W04
	BYTE		        Gs3 
	BYTE	W04
	BYTE		        Fn3 
	BYTE	W04
	BYTE		        Dn3 
	BYTE	W04
	BYTE		        Gn3 
	BYTE	W04
	BYTE		        Bn3 
	BYTE	W04
	BYTE		        Dn4 
	BYTE	W04
	BYTE		        Gn4 
	BYTE	W04
	BYTE		        Bn4 
	BYTE	W04
	BYTE		        Dn5 
	BYTE	W04
	BYTE		        Bn4 
	BYTE	W04
	BYTE		        Gn4 
	BYTE	W04
	BYTE		        Dn4 
	BYTE	W04
	BYTE		        Bn3 
	BYTE	W04
	BYTE		        Gn3 
	BYTE	W04
	BYTE	PEND
// 010   ----------------------------------------
BanjoKazooieGruntildaBattleSme_2_010:
	BYTE		N04     Ds3   v120
	BYTE	W04
	BYTE		        Gs3 
	BYTE	W04
	BYTE		        Cn4 
	BYTE	W04
	BYTE		        Ds4 
	BYTE	W04
	BYTE		        Gs4 
	BYTE	W04
	BYTE		        Cn5 
	BYTE	W04
	BYTE		        Ds5 
	BYTE	W04
	BYTE		        Cn5 
	BYTE	W04
	BYTE		        Gs4 
	BYTE	W04
	BYTE		        Ds4 
	BYTE	W04
	BYTE		        Cn4 
	BYTE	W04
	BYTE		        Gs3 
	BYTE	W04
	BYTE		        Fn3 
	BYTE	W04
	BYTE		        Gs3 
	BYTE	W04
	BYTE		        Cn4 
	BYTE	W04
	BYTE		        Fn4 
	BYTE	W04
	BYTE		        Gs4 
	BYTE	W04
	BYTE		        Cn5 
	BYTE	W04
	BYTE		        Fn5 
	BYTE	W04
	BYTE		        Cn5 
	BYTE	W04
	BYTE		        Gs4 
	BYTE	W04
	BYTE		        Fn4 
	BYTE	W04
	BYTE		        Cn4 
	BYTE	W04
	BYTE		        Gs3 
	BYTE	W04
	BYTE	PEND
// 011   ----------------------------------------
BanjoKazooieGruntildaBattleSme_2_011:
	BYTE		N04     Gn3   v120
	BYTE	W04
	BYTE		        Cn4 
	BYTE	W04
	BYTE		        Dn4 
	BYTE	W04
	BYTE		        Gn4 
	BYTE	W04
	BYTE		        Cn5 
	BYTE	W04
	BYTE		        Dn5 
	BYTE	W04
	BYTE		        Gn5 
	BYTE	W04
	BYTE		        Dn5 
	BYTE	W04
	BYTE		        Cn5 
	BYTE	W04
	BYTE		        Gn4 
	BYTE	W04
	BYTE		        Dn4 
	BYTE	W04
	BYTE		        Cn4 
	BYTE	W04
	BYTE		        Gn3 
	BYTE	W04
	BYTE		        Bn3 
	BYTE	W04
	BYTE		        Dn4 
	BYTE	W04
	BYTE		        Gn4 
	BYTE	W04
	BYTE		        Bn4 
	BYTE	W04
	BYTE		        Dn5 
	BYTE	W04
	BYTE		        Gn5 
	BYTE	W04
	BYTE		        Dn5 
	BYTE	W04
	BYTE		        Bn4 
	BYTE	W04
	BYTE		        Gn4 
	BYTE	W04
	BYTE		        Dn4 
	BYTE	W04
	BYTE		        Bn3 
	BYTE	W04
	BYTE	PEND
// 012   ----------------------------------------
	BYTE		        Fn3 
	BYTE		N04     Gn3 
	BYTE	W04
	BYTE		        Gs3 
	BYTE	W04
	BYTE		        Cn4 
	BYTE	W04
	BYTE		        Fn4 
	BYTE	W04
	BYTE		        Gs4 
	BYTE	W04
	BYTE		        Cn5 
	BYTE	W04
	BYTE		        Fn5 
	BYTE	W04
	BYTE		        Cn5 
	BYTE	W04
	BYTE		        Gs4 
	BYTE	W04
	BYTE		        Fn4 
	BYTE	W04
	BYTE		        Cn4 
	BYTE	W04
	BYTE		        Gs3 
	BYTE	W04
	BYTE		        Cn3 
	BYTE	W04
	BYTE		        Ds3 
	BYTE	W04
	BYTE		        Gn3 
	BYTE	W04
	BYTE		        Cn4 
	BYTE	W04
	BYTE		        Ds4 
	BYTE	W04
	BYTE		        Gn4 
	BYTE	W04
	BYTE		        Cn5 
	BYTE	W04
	BYTE		        Gn4 
	BYTE	W04
	BYTE		        Ds4 
	BYTE	W04
	BYTE		        Cn4 
	BYTE	W04
	BYTE		        Gn3 
	BYTE	W04
	BYTE		        Ds3 
	BYTE	W04
// 013   ----------------------------------------
	BYTE	PATT
	 POIN2	BanjoKazooieGruntildaBattleSme_2_009
// 014   ----------------------------------------
	BYTE	PATT
	 POIN2	BanjoKazooieGruntildaBattleSme_2_010
// 015   ----------------------------------------
	BYTE	PATT
	 POIN2	BanjoKazooieGruntildaBattleSme_2_011
// 016   ----------------------------------------
	BYTE		N04     Gn3   v120
	BYTE	W96
// 017   ----------------------------------------
	BYTE	W96
// 018   ----------------------------------------
	BYTE	W96
// 019   ----------------------------------------
	BYTE	W96
// 020   ----------------------------------------
	BYTE	W96
// 021   ----------------------------------------
	BYTE	W96
// 022   ----------------------------------------
	BYTE	W96
// 023   ----------------------------------------
	BYTE	W96
// 024   ----------------------------------------
	BYTE	W96
// 025   ----------------------------------------
	BYTE	W96
// 026   ----------------------------------------
	BYTE	W96
// 027   ----------------------------------------
	BYTE	W96
// 028   ----------------------------------------
	BYTE		N16     Cn3   v116
	BYTE		N16     Cn4 
	BYTE	W24
	BYTE		N22     Cn3   v108
	BYTE		N23     Ds3   v116
	BYTE		N21     Gn3   v108
	BYTE	W48
	BYTE		N20     As2   v116
	BYTE		N20     Dn3   v120
	BYTE		N20     Fn3   v104
	BYTE	W24
// 029   ----------------------------------------
	BYTE	W24
	BYTE		        Gs2   v116
	BYTE		N21     Cn3   v112
	BYTE		N21     Ds3   v116
	BYTE	W48
	BYTE		        Gn2 
	BYTE		N22     Bn2   v120
	BYTE		N23     Dn3   v112
	BYTE	W24
// 030   ----------------------------------------
	BYTE	W24
	BYTE		N22     Cn3   v116
	BYTE		N22     Ds3   v127
	BYTE		N22     Gn3   v112
	BYTE	W48
	BYTE		N20     Gn2   v120
	BYTE		N21     Bn2   v127
	BYTE		N21     Dn3   v120
	BYTE	W24
// 031   ----------------------------------------
	BYTE	W24
	BYTE		N22     Gn2   v112
	BYTE		N22     As2   v116
	BYTE		N23     Ds3   v124
	BYTE	W48
	BYTE		N21     An2   v120
	BYTE		N21     Cn3   v127
	BYTE		N21     Fn3 
	BYTE	W24
// 032   ----------------------------------------
	BYTE	W24
	BYTE		        Cn3   v120
	BYTE		N22     Ds3 
	BYTE		N22     Gn3   v112
	BYTE	W48
	BYTE		        As2 
	BYTE		N23     Dn3   v120
	BYTE		N23     Fn3   v112
	BYTE	W24
// 033   ----------------------------------------
	BYTE	W24
	BYTE		N24     Gs2   v116
	BYTE		N24     Cn3 
	BYTE		N24     Ds3   v120
	BYTE	W48
	BYTE		        Gn2 
	BYTE		N24     Bn2   v127
	BYTE		N24     Dn3   v124
	BYTE	W24
// 034   ----------------------------------------
	BYTE	W24
	BYTE		        Cn3   v112
	BYTE		N24     Ds3   v127
	BYTE		N24     Gn3   v112
	BYTE	W48
	BYTE		        Cs3   v120
	BYTE		N24     Fn3 
	BYTE		N24     Gs3   v116
	BYTE	W24
// 035   ----------------------------------------
	BYTE	W24
	BYTE		        Cn3   v108
	BYTE		N24     Dn3   v127
	BYTE		N24     Gn3 
	BYTE	W48
	BYTE		N22     Bn2   v124
	BYTE		N22     Dn3   v127
	BYTE		N22     Gn3 
	BYTE	W24
// 036   ----------------------------------------
BanjoKazooieGruntildaBattleSme_2_036:
	BYTE		N19     Cn4   v127
	BYTE		N19     Cn5 
	BYTE	W24
	BYTE		N10     Gn3 
	BYTE		N10     Gn4 
	BYTE	W17
	BYTE		N05     Cn4 
	BYTE		N05     Cn5 
	BYTE	W07
	BYTE		N16     As3 
	BYTE		N16     As4 
	BYTE	W24
	BYTE		N09     Fn3 
	BYTE		N09     Fn4 
	BYTE	W17
	BYTE		N05     As3 
	BYTE		N05     As4 
	BYTE	W07
	BYTE	PEND
// 037   ----------------------------------------
BanjoKazooieGruntildaBattleSme_2_037:
	BYTE		N18     Gs3   v127
	BYTE		N18     Gs4 
	BYTE	W24
	BYTE		N10     Ds3 
	BYTE		N10     Ds4 
	BYTE	W17
	BYTE		N05     Gs3 
	BYTE		N05     Gs4 
	BYTE	W07
	BYTE		N16     Gn3 
	BYTE		N16     Gn4 
	BYTE	W24
	BYTE		N04     Gn3 
	BYTE		N04     Gn4 
	BYTE	W07
	BYTE		        An3 
	BYTE		N04     An4 
	BYTE	W10
	BYTE		        Bn3 
	BYTE		N04     Bn4 
	BYTE	W07
	BYTE	PEND
// 038   ----------------------------------------
	BYTE		N15     Cn4 
	BYTE		N15     Cn5 
	BYTE	W24
	BYTE		N09     Gn3 
	BYTE		N09     Gn4 
	BYTE	W17
	BYTE		N05     Cn4 
	BYTE		N05     Cn5 
	BYTE	W07
	BYTE		N16     Dn4 
	BYTE		N16     Dn5 
	BYTE	W24
	BYTE		N18     Gn3 
	BYTE		N18     Gn4 
	BYTE	W24
// 039   ----------------------------------------
	BYTE		N07     Ds4 
	BYTE		N07     Ds5 
	BYTE	W17
	BYTE		N05     Dn4 
	BYTE		N05     Dn5 
	BYTE	W07
	BYTE		N07     Ds4 
	BYTE		N07     Ds5 
	BYTE	W17
	BYTE		N05     Gn4 
	BYTE		N05     Gn5 
	BYTE	W07
	BYTE		N36     Fn4 
	BYTE		N36     Fn5 
	BYTE	W48
// 040   ----------------------------------------
	BYTE	PATT
	 POIN2	BanjoKazooieGruntildaBattleSme_2_036
// 041   ----------------------------------------
	BYTE	PATT
	 POIN2	BanjoKazooieGruntildaBattleSme_2_037
// 042   ----------------------------------------
	BYTE		N17     Cn4   v127
	BYTE		N17     Cn5 
	BYTE	W24
	BYTE		N09     Gn3 
	BYTE		N09     Gn4 
	BYTE	W17
	BYTE		N04     Cn4 
	BYTE		N04     Cn5 
	BYTE	W07
	BYTE		N16     Cs4 
	BYTE		N16     Cs5 
	BYTE	W24
	BYTE		N17     Fn4 
	BYTE		N17     Fn5 
	BYTE	W24
// 043   ----------------------------------------
BanjoKazooieGruntildaBattleSme_2_043:
	BYTE		N10     Gn4   v127
	BYTE		N10     Gn5 
	BYTE	W16
	BYTE		N04     Gs4 
	BYTE		N04     Gs5 
	BYTE	W08
	BYTE		N09     Gn4 
	BYTE		N09     Gn5 
	BYTE	W16
	BYTE		N04     Fn4 
	BYTE		N04     Fn5 
	BYTE	W08
	BYTE		N16     Gn4 
	BYTE		N16     Gn5 
	BYTE	W24
	BYTE		N17     Dn4 
	BYTE		N17     Dn5 
	BYTE	W24
	BYTE	PEND
// 044   ----------------------------------------
	BYTE	PATT
	 POIN2	BanjoKazooieGruntildaBattleSme_2_043
// 045   ----------------------------------------
	BYTE		N04     Cn3   v120
	BYTE		N17     Cn5   v127
	BYTE	W04
	BYTE		N04     Ds3   v120
	BYTE	W04
	BYTE		        Gn3 
	BYTE	W04
	BYTE		        Cn4 
	BYTE	W04
	BYTE		        Ds4 
	BYTE	W04
	BYTE		        Gn4 
	BYTE	W04
	BYTE		        Cn5 
	BYTE	W04
	BYTE		        Gn4 
	BYTE	W04
	BYTE		        Ds4 
	BYTE	W04
	BYTE		        Cn4 
	BYTE	W04
	BYTE		        Gn3 
	BYTE	W04
	BYTE		        Ds3 
	BYTE	W04
	BYTE		        Cn3 
	BYTE	W04
	BYTE		        Ds3 
	BYTE	W04
	BYTE		        Gn3 
	BYTE	W04
	BYTE		        Cn4 
	BYTE	W04
	BYTE		        Ds4 
	BYTE	W04
	BYTE		        Gn4 
	BYTE	W04
	BYTE		        Cn5 
	BYTE	W04
	BYTE		        Gn4 
	BYTE	W04
	BYTE		        Ds4 
	BYTE	W04
	BYTE		        Cn4 
	BYTE	W04
	BYTE		        Gn3 
	BYTE	W04
	BYTE		        Ds3 
	BYTE	W04
// 046   ----------------------------------------
	BYTE	PATT
	 POIN2	BanjoKazooieGruntildaBattleSme_2_003
// 047   ----------------------------------------
	BYTE	PATT
	 POIN2	BanjoKazooieGruntildaBattleSme_2_004
// 048   ----------------------------------------
BanjoKazooieGruntildaBattleSme_2_048:
	BYTE		N04     As2   v120
	BYTE	W04
	BYTE		        Cs3 
	BYTE	W04
	BYTE		        Fs3 
	BYTE	W04
	BYTE		        As3 
	BYTE	W04
	BYTE		        Cs4 
	BYTE	W04
	BYTE		        Fs4 
	BYTE	W04
	BYTE		        As4 
	BYTE	W04
	BYTE		        Fs4 
	BYTE	W04
	BYTE		        Cs4 
	BYTE	W04
	BYTE		        As3 
	BYTE	W04
	BYTE		        Fs3 
	BYTE	W04
	BYTE		        Cs3 
	BYTE	W04
	BYTE		        As2 
	BYTE	W04
	BYTE		        Cs3 
	BYTE	W04
	BYTE		        Fs3 
	BYTE	W04
	BYTE		        As3 
	BYTE	W04
	BYTE		        Cs4 
	BYTE	W04
	BYTE		        Fs4 
	BYTE	W04
	BYTE		        As4 
	BYTE	W04
	BYTE		        Fs4 
	BYTE	W04
	BYTE		        Cs4 
	BYTE	W04
	BYTE		        As3 
	BYTE	W04
	BYTE		        Fs3 
	BYTE	W04
	BYTE		        Cs3 
	BYTE	W04
	BYTE	PEND
// 049   ----------------------------------------
	BYTE	PATT
	 POIN2	BanjoKazooieGruntildaBattleSme_2_004
// 050   ----------------------------------------
	BYTE	PATT
	 POIN2	BanjoKazooieGruntildaBattleSme_2_003
// 051   ----------------------------------------
	BYTE	PATT
	 POIN2	BanjoKazooieGruntildaBattleSme_2_004
// 052   ----------------------------------------
	BYTE	PATT
	 POIN2	BanjoKazooieGruntildaBattleSme_2_048
// 053   ----------------------------------------
	BYTE	PATT
	 POIN2	BanjoKazooieGruntildaBattleSme_2_004
// 054   ----------------------------------------
	BYTE	PATT
	 POIN2	BanjoKazooieGruntildaBattleSme_2_003
// 055   ----------------------------------------
	BYTE	PATT
	 POIN2	BanjoKazooieGruntildaBattleSme_2_004
// 056   ----------------------------------------
	BYTE		N04     Gn2   v120
	BYTE	W04
	BYTE		        Bn2 
	BYTE	W04
	BYTE		        Dn3 
	BYTE	W04
	BYTE		        Gn3 
	BYTE	W04
	BYTE		        Bn3 
	BYTE	W04
	BYTE		        Dn4 
	BYTE	W04
	BYTE		        Gn4 
	BYTE	W04
	BYTE		        Dn4 
	BYTE	W04
	BYTE		        Bn3 
	BYTE	W04
	BYTE		        Gn3 
	BYTE	W04
	BYTE		        Dn3 
	BYTE	W04
	BYTE		        Bn2 
	BYTE	W04
	BYTE		        Gn2 
	BYTE	W04
	BYTE		        Bn2 
	BYTE	W04
	BYTE		        Dn3 
	BYTE	W04
	BYTE		        Gn3 
	BYTE	W04
	BYTE		        Bn3 
	BYTE	W04
	BYTE		        Dn4 
	BYTE	W04
	BYTE		        Gn4 
	BYTE	W04
	BYTE		        Dn4 
	BYTE	W04
	BYTE		        Bn3 
	BYTE	W04
	BYTE		        Gn3 
	BYTE	W04
	BYTE		        Dn3 
	BYTE	W04
	BYTE		        Bn2 
	BYTE	W04
// 057   ----------------------------------------
	BYTE	PATT
	 POIN2	BanjoKazooieGruntildaBattleSme_2_004
// 058   ----------------------------------------
	BYTE	W96
// 059   ----------------------------------------
	BYTE	W96
// 060   ----------------------------------------
	BYTE		N04     Ds3   v127
	BYTE	W04
	BYTE		        Fs3 
	BYTE	W04
	BYTE		        As3 
	BYTE	W04
	BYTE		        Ds4 
	BYTE	W04
	BYTE		        Fs4 
	BYTE	W04
	BYTE		        As4 
	BYTE	W04
	BYTE		        Ds5 
	BYTE	W04
	BYTE		        As4 
	BYTE	W04
	BYTE		        Fs4 
	BYTE	W04
	BYTE		        Ds4 
	BYTE	W04
	BYTE		        As3 
	BYTE	W04
	BYTE		        Fs3 
	BYTE	W04
	BYTE		        Ds3 
	BYTE	W04
	BYTE		        Fs3 
	BYTE	W04
	BYTE		        As3 
	BYTE	W04
	BYTE		        Ds4 
	BYTE	W04
	BYTE		        Fs4 
	BYTE	W04
	BYTE		        As4 
	BYTE	W04
	BYTE		        Ds5 
	BYTE	W04
	BYTE		        As4 
	BYTE	W04
	BYTE		        Fs4 
	BYTE	W04
	BYTE		        Ds4 
	BYTE	W04
	BYTE		        As3 
	BYTE	W04
	BYTE		        Fs3 
	BYTE	W04
// 061   ----------------------------------------
	BYTE		        Bn2 
	BYTE	W04
	BYTE		        Dn3 
	BYTE	W04
	BYTE		        Fs3 
	BYTE	W04
	BYTE		        Bn3 
	BYTE	W04
	BYTE		        Dn4 
	BYTE	W04
	BYTE		        Fs4 
	BYTE	W04
	BYTE		        Bn4 
	BYTE	W04
	BYTE		        Fs4 
	BYTE	W04
	BYTE		        Dn4 
	BYTE	W04
	BYTE		        Bn3 
	BYTE	W04
	BYTE		        Fs3 
	BYTE	W04
	BYTE		        Dn3 
	BYTE	W04
	BYTE		        Bn2 
	BYTE	W04
	BYTE		        Dn3 
	BYTE	W04
	BYTE		        Fs3 
	BYTE	W04
	BYTE		        Bn3 
	BYTE	W04
	BYTE		        Dn4 
	BYTE	W04
	BYTE		        Fs4 
	BYTE	W04
	BYTE		        Bn4 
	BYTE	W04
	BYTE		        Fs4 
	BYTE	W04
	BYTE		        Dn4 
	BYTE	W04
	BYTE		        Bn3 
	BYTE	W04
	BYTE		        Fs3 
	BYTE	W04
	BYTE		        Dn3 
	BYTE	W04
// 062   ----------------------------------------
	BYTE	W96
// 063   ----------------------------------------
	BYTE	W96
// 064   ----------------------------------------
	BYTE		        Gs2 
	BYTE	W04
	BYTE		        Bn2 
	BYTE	W04
	BYTE		        Ds3 
	BYTE	W04
	BYTE		        Gs3 
	BYTE	W04
	BYTE		        Bn3 
	BYTE	W04
	BYTE		        Ds4 
	BYTE	W04
	BYTE		        Gs4 
	BYTE	W04
	BYTE		        Ds4 
	BYTE	W04
	BYTE		        Bn3 
	BYTE	W04
	BYTE		        Gs3 
	BYTE	W04
	BYTE		        Ds3 
	BYTE	W04
	BYTE		        Bn2 
	BYTE	W04
	BYTE		        Gs2 
	BYTE	W04
	BYTE		        Bn2 
	BYTE	W04
	BYTE		        Ds3 
	BYTE	W04
	BYTE		        Gs3 
	BYTE	W04
	BYTE		        Bn3 
	BYTE	W04
	BYTE		        Ds4 
	BYTE	W04
	BYTE		        Gs4 
	BYTE	W04
	BYTE		        Ds4 
	BYTE	W04
	BYTE		        Bn3 
	BYTE	W04
	BYTE		        Gs3 
	BYTE	W04
	BYTE		        Ds3 
	BYTE	W04
	BYTE		        Bn2 
	BYTE	W04
// 065   ----------------------------------------
	BYTE		        En2 
	BYTE	W04
	BYTE		        Gn2 
	BYTE	W04
	BYTE		        Bn2 
	BYTE	W04
	BYTE		        En3 
	BYTE	W04
	BYTE		        Gn3 
	BYTE	W04
	BYTE		        Bn3 
	BYTE	W04
	BYTE		        En4 
	BYTE	W04
	BYTE		        Bn3 
	BYTE	W04
	BYTE		        Gn3 
	BYTE	W04
	BYTE		        En3 
	BYTE	W04
	BYTE		        Bn2 
	BYTE	W04
	BYTE		        Gn2 
	BYTE	W04
	BYTE		        En2 
	BYTE	W04
	BYTE		        Gn2 
	BYTE	W04
	BYTE		        Bn2 
	BYTE	W04
	BYTE		        En3 
	BYTE	W04
	BYTE		        Gn3 
	BYTE	W04
	BYTE		        Bn3 
	BYTE	W04
	BYTE		        En4 
	BYTE	W04
	BYTE		        Bn3 
	BYTE	W04
	BYTE		        Gn3 
	BYTE	W04
	BYTE		        En3 
	BYTE	W04
	BYTE		        Bn2 
	BYTE	W04
	BYTE		        Gn2 
	BYTE	W04
// 066   ----------------------------------------
	BYTE		N48     Cn4   v104
	BYTE	W48
	BYTE		N24     Cs4   v092
	BYTE	W24
	BYTE		        As3   v100
	BYTE	W24
// 067   ----------------------------------------
	BYTE		N36     Cn4   v108
	BYTE	W36
	BYTE		N09     Cs4   v100
	BYTE	W12
	BYTE		N48     Cn4 
	BYTE	W48
// 068   ----------------------------------------
	BYTE		N48   
	BYTE	W48
	BYTE		N24     Cs4   v088
	BYTE	W24
	BYTE		        As3   v100
	BYTE	W24
// 069   ----------------------------------------
	BYTE		N48     Cn4 
	BYTE	W48
	BYTE		N24     Cs4 
	BYTE	W24
	BYTE		N09     Ds4   v104
	BYTE	W12
	BYTE		N12     En4 
	BYTE	W12
// 070   ----------------------------------------
	BYTE		N48     Fn4   v096
	BYTE	W48
	BYTE		N24     Fs4 
	BYTE	W24
	BYTE		        Ds4   v104
	BYTE	W24
// 071   ----------------------------------------
	BYTE		N36     Fn4 
	BYTE	W36
	BYTE		N14     Fs4   v088
	BYTE	W12
	BYTE		N42     Fn4   v096
	BYTE	W48
// 072   ----------------------------------------
	BYTE		N48     Fn4   v104
	BYTE	W48
	BYTE		N24     Fs4   v088
	BYTE	W24
	BYTE		        Ds4   v096
	BYTE	W24
// 073   ----------------------------------------
	BYTE		N48     Fn4   v092
	BYTE	W48
	BYTE		N24     Fs4   v096
	BYTE	W24
	BYTE		        Gs4 
	BYTE	W24
// 074   ----------------------------------------
	BYTE		N52     Cs4   v116
	BYTE		N54     En4 
	BYTE		N54     An4 
	BYTE	W96
// 075   ----------------------------------------
	BYTE		N56     Cn4 
	BYTE		N56     Fn4 
	BYTE		N56     An4 
	BYTE	W96
// 076   ----------------------------------------
	BYTE		N64     Cs4 
	BYTE		N64     En4 
	BYTE		N66     An4 
	BYTE	W96
// 077   ----------------------------------------
	BYTE		N60     Cn4 
	BYTE		N60     Fn4 
	BYTE		N60     An4 
	BYTE	W96
// 078   ----------------------------------------
	BYTE		N44     Bn3 
	BYTE		N44     Ds4 
	BYTE		N48     Fs4 
	BYTE	W96
// 079   ----------------------------------------
	BYTE		N54     Bn3 
	BYTE		N56     Dn4 
	BYTE		N56     Gn4 
	BYTE	W96
// 080   ----------------------------------------
	BYTE		N54     Bn3 
	BYTE		N56     Ds4 
	BYTE		N56     Fs4 
	BYTE	W96
// 081   ----------------------------------------
	BYTE		        Bn3 
	BYTE		N60     Dn4 
	BYTE		N60     Gn4 
	BYTE	W96
// 082   ----------------------------------------
BanjoKazooieGruntildaBattleSme_2_082:
	BYTE		N06     En4   v127
	BYTE	W06
	BYTE		N06   
	BYTE	W06
	BYTE		        Bn3 
	BYTE	W06
	BYTE		N06   
	BYTE	W06
	BYTE		        Cn4 
	BYTE	W06
	BYTE		N06   
	BYTE	W06
	BYTE		        An3 
	BYTE	W06
	BYTE		N06   
	BYTE	W06
	BYTE		        Bn3 
	BYTE	W06
	BYTE		N06   
	BYTE	W06
	BYTE		        Gn3 
	BYTE	W06
	BYTE		N06   
	BYTE	W06
	BYTE		        An3 
	BYTE	W06
	BYTE		N06   
	BYTE	W06
	BYTE		        Fs3 
	BYTE	W06
	BYTE		N06   
	BYTE	W06
	BYTE	PEND
// 083   ----------------------------------------
	BYTE		N07     En3 
	BYTE	W96
// 084   ----------------------------------------
	BYTE	W96
// 085   ----------------------------------------
BanjoKazooieGruntildaBattleSme_2_085:
	BYTE		N06     Dn3   v127
	BYTE	W06
	BYTE		        As2 
	BYTE	W06
	BYTE		        Dn3 
	BYTE	W06
	BYTE		        Fn3 
	BYTE	W06
	BYTE		        As3 
	BYTE	W06
	BYTE		        Fn3 
	BYTE	W06
	BYTE		        As3 
	BYTE	W06
	BYTE		        Dn4 
	BYTE	W06
	BYTE		        Fn4 
	BYTE	W06
	BYTE		        Dn4 
	BYTE	W06
	BYTE		        Fn4 
	BYTE	W06
	BYTE		        As4 
	BYTE	W06
	BYTE		        Dn5 
	BYTE	W06
	BYTE		        As4 
	BYTE	W06
	BYTE		        Dn5 
	BYTE	W06
	BYTE		        Fn5 
	BYTE	W06
	BYTE	PEND
// 086   ----------------------------------------
	BYTE	PATT
	 POIN2	BanjoKazooieGruntildaBattleSme_2_082
// 087   ----------------------------------------
	BYTE		N07     En3   v127
	BYTE	W96
// 088   ----------------------------------------
	BYTE	W96
// 089   ----------------------------------------
	BYTE	PATT
	 POIN2	BanjoKazooieGruntildaBattleSme_2_085
// 090   ----------------------------------------
BanjoKazooieGruntildaBattleSme_2_090:
	BYTE		N06     Dn5   v127
	BYTE	W06
	BYTE		        Bn4 
	BYTE	W06
	BYTE		        Gs4 
	BYTE	W06
	BYTE		        Gn4 
	BYTE	W06
	BYTE		        Fn4 
	BYTE	W06
	BYTE		        Dn4 
	BYTE	W06
	BYTE		        Cn4 
	BYTE	W06
	BYTE		        Bn3 
	BYTE	W06
	BYTE		        As3 
	BYTE	W06
	BYTE		        Gn3 
	BYTE	W06
	BYTE		        Fn3 
	BYTE	W06
	BYTE		        En3 
	BYTE	W06
	BYTE		        Cs3 
	BYTE	W06
	BYTE		        As2 
	BYTE	W06
	BYTE		        Gn2 
	BYTE	W06
	BYTE		        Fs2 
	BYTE	W06
	BYTE	PEND
// 091   ----------------------------------------
	BYTE	PATT
	 POIN2	BanjoKazooieGruntildaBattleSme_2_090
// 092   ----------------------------------------
	BYTE	PATT
	 POIN2	BanjoKazooieGruntildaBattleSme_2_090
// 093   ----------------------------------------
	BYTE	PATT
	 POIN2	BanjoKazooieGruntildaBattleSme_2_090
// 094   ----------------------------------------
BanjoKazooieGruntildaBattleSme_2_094:
	BYTE		N06     Dn5   v127
	BYTE	W06
	BYTE		        Bn4 
	BYTE	W06
	BYTE		        Gs4 
	BYTE	W06
	BYTE		        Gn4 
	BYTE	W06
	BYTE		        Fn4 
	BYTE	W06
	BYTE		        Dn4 
	BYTE	W06
	BYTE		        Cn4 
	BYTE	W06
	BYTE		        Bn3 
	BYTE	W06
	BYTE		        Dn5 
	BYTE	W06
	BYTE		        Bn4 
	BYTE	W06
	BYTE		        Gs4 
	BYTE	W06
	BYTE		        Gn4 
	BYTE	W06
	BYTE		        Fn4 
	BYTE	W06
	BYTE		        Dn4 
	BYTE	W06
	BYTE		        Cn4 
	BYTE	W06
	BYTE		        Bn3 
	BYTE	W06
	BYTE	PEND
// 095   ----------------------------------------
	BYTE	PATT
	 POIN2	BanjoKazooieGruntildaBattleSme_2_094
// 096   ----------------------------------------
BanjoKazooieGruntildaBattleSme_2_096:
	BYTE		N06     Cn4   v127
	BYTE	W04
	BYTE		        Ds4 
	BYTE	W05
	BYTE		        Gn4 
	BYTE	W06
	BYTE		        Cn5 
	BYTE	W07
	BYTE		        Ds5 
	BYTE	W06
	BYTE		        Cn5 
	BYTE	W06
	BYTE		        Gn4 
	BYTE	W06
	BYTE		        Ds4 
	BYTE	W06
	BYTE		        An3 
	BYTE	W07
	BYTE		        Dn4 
	BYTE	W05
	BYTE		        Fs4 
	BYTE	W06
	BYTE		        An4 
	BYTE	W07
	BYTE		        Dn5 
	BYTE	W06
	BYTE		        An4 
	BYTE	W06
	BYTE		        Fs4 
	BYTE	W06
	BYTE		        Dn4 
	BYTE	W07
	BYTE	PEND
// 097   ----------------------------------------
	BYTE	PATT
	 POIN2	BanjoKazooieGruntildaBattleSme_2_096
// 098   ----------------------------------------
BanjoKazooieGruntildaBattleSme_2_098:
	BYTE		N06     Cn4   v127
	BYTE	W06
	BYTE		        Ds4 
	BYTE	W06
	BYTE		        Gn4 
	BYTE	W06
	BYTE		        Cn5 
	BYTE	W06
	BYTE		        Ds5 
	BYTE	W06
	BYTE		        Cn5 
	BYTE	W06
	BYTE		        Gn4 
	BYTE	W06
	BYTE		        Ds4 
	BYTE	W06
	BYTE		        Dn4 
	BYTE	W06
	BYTE		        Fs4 
	BYTE	W06
	BYTE		        An4 
	BYTE	W06
	BYTE		        Dn5 
	BYTE	W06
	BYTE		        Fs5 
	BYTE	W06
	BYTE		        Dn5 
	BYTE	W06
	BYTE		        An4 
	BYTE	W06
	BYTE		        Fs4 
	BYTE	W06
	BYTE	PEND
// 099   ----------------------------------------
BanjoKazooieGruntildaBattleSme_2_099:
	BYTE		N06     Ds4   v127
	BYTE	W06
	BYTE		        Gn4 
	BYTE	W06
	BYTE		        Cn5 
	BYTE	W06
	BYTE		        Ds5 
	BYTE	W06
	BYTE		        Gn5 
	BYTE	W06
	BYTE		        Ds5 
	BYTE	W06
	BYTE		        Cn5 
	BYTE	W06
	BYTE		        Gn4 
	BYTE	W06
	BYTE		        Fs4 
	BYTE	W06
	BYTE		        An4 
	BYTE	W06
	BYTE		        Dn5 
	BYTE	W06
	BYTE		        Fs5 
	BYTE	W06
	BYTE		        An5 
	BYTE	W06
	BYTE		        Fs5 
	BYTE	W06
	BYTE		        Dn5 
	BYTE	W06
	BYTE		        An4 
	BYTE	W06
	BYTE	PEND
// 100   ----------------------------------------
	BYTE	PATT
	 POIN2	BanjoKazooieGruntildaBattleSme_2_096
// 101   ----------------------------------------
	BYTE	PATT
	 POIN2	BanjoKazooieGruntildaBattleSme_2_096
// 102   ----------------------------------------
	BYTE	PATT
	 POIN2	BanjoKazooieGruntildaBattleSme_2_098
// 103   ----------------------------------------
	BYTE	PATT
	 POIN2	BanjoKazooieGruntildaBattleSme_2_099
// 104   ----------------------------------------
BanjoKazooieGruntildaBattleSme_2_104:
	BYTE		N15     Cn3   v100
	BYTE		N15     Ds3 
	BYTE		N15     Gs3 
	BYTE	W24
	BYTE		        Dn3 
	BYTE		N15     Fs3 
	BYTE		N15     An3 
	BYTE	W24
	BYTE		        Cn3 
	BYTE		N15     Ds3 
	BYTE		N15     Gs3 
	BYTE	W24
	BYTE		        Dn3 
	BYTE		N15     Fs3 
	BYTE		N15     An3 
	BYTE	W24
	BYTE	PEND
// 105   ----------------------------------------
BanjoKazooieGruntildaBattleSme_2_105:
	BYTE		N15     Cn3   v100
	BYTE		N15     Fn3 
	BYTE		N15     An3 
	BYTE	W24
	BYTE		        Ds3 
	BYTE		N15     Fs3 
	BYTE		N15     Bn3 
	BYTE	W24
	BYTE		        Cn3 
	BYTE		N15     Fn3 
	BYTE		N15     An3 
	BYTE	W24
	BYTE		        Ds3 
	BYTE		N15     Fs3 
	BYTE		N15     Bn3 
	BYTE	W24
	BYTE	PEND
// 106   ----------------------------------------
	BYTE	PATT
	 POIN2	BanjoKazooieGruntildaBattleSme_2_104
// 107   ----------------------------------------
	BYTE	PATT
	 POIN2	BanjoKazooieGruntildaBattleSme_2_105
// 108   ----------------------------------------
BanjoKazooieGruntildaBattleSme_2_108:
	BYTE		N15     Cn3   v100
	BYTE		N15     Ds3 
	BYTE	W24
	BYTE		        Dn3 
	BYTE		N15     Fs3 
	BYTE	W24
	BYTE		        Cn3 
	BYTE		N15     Ds3 
	BYTE	W24
	BYTE		        Dn3 
	BYTE		N15     Fs3 
	BYTE	W24
	BYTE	PEND
// 109   ----------------------------------------
BanjoKazooieGruntildaBattleSme_2_109:
	BYTE		N15     Fn3   v100
	BYTE		N15     An3 
	BYTE	W24
	BYTE		        Ds3 
	BYTE		N15     Fs3 
	BYTE	W24
	BYTE		        Fn3 
	BYTE		N15     An3 
	BYTE	W24
	BYTE		        Ds3 
	BYTE		N15     Fs3 
	BYTE	W24
	BYTE	PEND
// 110   ----------------------------------------
	BYTE	PATT
	 POIN2	BanjoKazooieGruntildaBattleSme_2_108
// 111   ----------------------------------------
	BYTE	PATT
	 POIN2	BanjoKazooieGruntildaBattleSme_2_109
// 112   ----------------------------------------
	BYTE	W96
// 113   ----------------------------------------
	BYTE	W96
// 114   ----------------------------------------
	BYTE	W96
// 115   ----------------------------------------
	BYTE	W96
// 116   ----------------------------------------
	BYTE		N11     Cn3   v127
	BYTE	W12
	BYTE		N06     Dn3 
	BYTE	W06
	BYTE		        Ds3 
	BYTE	W06
	BYTE		        Fn3 
	BYTE	W06
	BYTE		        Gn3 
	BYTE	W06
	BYTE		        Gs3 
	BYTE	W06
	BYTE		        As3 
	BYTE	W06
	BYTE		        Cn4 
	BYTE	W06
	BYTE		        Cs4 
	BYTE	W06
	BYTE		        Cn4 
	BYTE	W06
	BYTE		        Cs4 
	BYTE	W06
	BYTE		        Cn4 
	BYTE	W06
	BYTE		        Cs4 
	BYTE	W06
	BYTE		        Cn4 
	BYTE	W06
	BYTE		        Cs4 
	BYTE	W06
// 117   ----------------------------------------
	BYTE		N11     Gs3 
	BYTE	W12
	BYTE		N06     As3 
	BYTE	W06
	BYTE		        Cn4 
	BYTE	W06
	BYTE		        Dn4 
	BYTE	W06
	BYTE		        Ds4 
	BYTE	W06
	BYTE		        Fn4 
	BYTE	W06
	BYTE		        Gn4 
	BYTE	W06
	BYTE		        Gs4 
	BYTE	W06
	BYTE		        As4 
	BYTE	W06
	BYTE		        Gs4 
	BYTE	W06
	BYTE		        As4 
	BYTE	W06
	BYTE		        Gs4 
	BYTE	W06
	BYTE		        As4 
	BYTE	W06
	BYTE		        Gs4 
	BYTE	W06
	BYTE		        As4 
	BYTE	W06
// 118   ----------------------------------------
	BYTE		N12     Cn3 
	BYTE	W12
	BYTE		N06     Dn3 
	BYTE	W06
	BYTE		        Ds3 
	BYTE	W06
	BYTE		        Fn3 
	BYTE	W06
	BYTE		        Gn3 
	BYTE	W06
	BYTE		        Gs3 
	BYTE	W06
	BYTE		        As3 
	BYTE	W06
	BYTE		        Cn4 
	BYTE	W06
	BYTE		        Cs4 
	BYTE	W06
	BYTE		        Cn4 
	BYTE	W06
	BYTE		        Cs4 
	BYTE	W06
	BYTE		        Cn4 
	BYTE	W06
	BYTE		        Cs4 
	BYTE	W06
	BYTE		        Cn4 
	BYTE	W06
	BYTE		        Cs4 
	BYTE	W06
// 119   ----------------------------------------
	BYTE		N12     Gs3 
	BYTE	W12
	BYTE		N06     As3 
	BYTE	W06
	BYTE		        Cn4 
	BYTE	W06
	BYTE		        Dn4 
	BYTE	W06
	BYTE		        Ds4 
	BYTE	W06
	BYTE		        Fn4 
	BYTE	W06
	BYTE		        Gn4 
	BYTE	W06
	BYTE		        Gs4 
	BYTE	W06
	BYTE		        As4 
	BYTE	W06
	BYTE		        Gs4 
	BYTE	W06
	BYTE		        As4 
	BYTE	W06
	BYTE		        Gs4 
	BYTE	W06
	BYTE		        As4 
	BYTE	W06
	BYTE		        Gs4 
	BYTE	W12
// 120   ----------------------------------------
	BYTE		N12     An4 
	BYTE	W96
// 121   ----------------------------------------
	BYTE	W96
// 122   ----------------------------------------
	BYTE	W96
// 123   ----------------------------------------
	BYTE	W96
// 124   ----------------------------------------
	BYTE	W96
// 125   ----------------------------------------
	BYTE	W96
// 126   ----------------------------------------
	BYTE	W96
// 127   ----------------------------------------
	BYTE	W96
// 128   ----------------------------------------
	BYTE		N08     Gn3 
	BYTE	W16
	BYTE		N05     As3 
	BYTE	W08
	BYTE		        An3 
	BYTE	W08
	BYTE		        As3 
	BYTE	W08
	BYTE		        Cn4 
	BYTE	W08
	BYTE		N08     Dn4 
	BYTE	W16
	BYTE		N05     En4 
	BYTE	W08
	BYTE		N08     Fn4 
	BYTE	W16
	BYTE		N05     En4 
	BYTE	W08
// 129   ----------------------------------------
	BYTE		N08     Ds4 
	BYTE	W16
	BYTE		N05     Dn4 
	BYTE	W08
	BYTE		N08     Cn4 
	BYTE	W16
	BYTE		N05     As3 
	BYTE	W08
	BYTE		N08     An3 
	BYTE	W16
	BYTE		N05     Bn3 
	BYTE	W08
	BYTE		N08     Cs4 
	BYTE	W16
	BYTE		N05     En4 
	BYTE	W08
// 130   ----------------------------------------
	BYTE		N08     As3 
	BYTE	W16
	BYTE		N05     Cn4 
	BYTE	W08
	BYTE		        Dn4 
	BYTE	W08
	BYTE		        Cn4 
	BYTE	W08
	BYTE		        As3 
	BYTE	W08
	BYTE		N08     Gn3 
	BYTE	W16
	BYTE		N05     An3 
	BYTE	W08
	BYTE		N08     As3 
	BYTE	W16
	BYTE		N05     Dn4 
	BYTE	W08
// 131   ----------------------------------------
	BYTE		        An3 
	BYTE	W08
	BYTE		        En3 
	BYTE	W08
	BYTE		        An3 
	BYTE	W08
	BYTE		        Cs4 
	BYTE	W08
	BYTE		        An3 
	BYTE	W08
	BYTE		        Cs4 
	BYTE	W08
	BYTE		        En4 
	BYTE	W08
	BYTE		        Cs4 
	BYTE	W08
	BYTE		        En4 
	BYTE	W08
	BYTE		        Gn4 
	BYTE	W08
	BYTE		        Fn4 
	BYTE	W08
	BYTE		        En4 
	BYTE	W08
// 132   ----------------------------------------
	BYTE		        Ds4 
	BYTE	W96
// 133   ----------------------------------------
	BYTE	W96
// 134   ----------------------------------------
	BYTE	W96
// 135   ----------------------------------------
	BYTE		N13     Cn3   v116
	BYTE	W16
	BYTE		N03     Ds3 
	BYTE	W08
	BYTE		        Dn3 
	BYTE	W08
	BYTE		        Ds3 
	BYTE	W08
	BYTE		N04     Dn3 
	BYTE	W08
	BYTE		N48     Cn3 
	BYTE		N12     Cn4 
	BYTE	W16
	BYTE		N03     Ds4 
	BYTE	W08
	BYTE		        Dn4 
	BYTE	W08
	BYTE		        Ds4 
	BYTE	W08
	BYTE		N04     Dn4 
	BYTE	W08
	BYTE	GoTo
	 POIN2	BanjoKazooieGruntildaBattleSme_2_B1
BanjoKazooieGruntildaBattleSme_2_B2:
// 136   ----------------------------------------
	BYTE	FINE

//**************** Track 3 (Midi-Chn.3) ****************//

BanjoKazooieGruntildaBattleSme_3:
	BYTE	KEYSH   BanjoKazooieGruntildaBattleSme_key+0
// 000   ----------------------------------------
	BYTE		VOICE   48
	BYTE		VOL     95*BanjoKazooieGruntildaBattleSme_mvl/mxv
	BYTE		PAN     c_v+21
	BYTE		N15     Cn1   v127
	BYTE	W16
	BYTE		N04     Ds1 
	BYTE	W08
	BYTE		        Dn1 
	BYTE	W08
	BYTE		        Ds1 
	BYTE	W08
	BYTE		        Dn1 
	BYTE	W08
	BYTE		TIE     Cn1 
	BYTE		N15     Cn2 
	BYTE	W16
	BYTE		N04     Ds2 
	BYTE	W08
	BYTE		N03     Dn2 
	BYTE	W08
	BYTE		N04     Ds2 
	BYTE	W08
	BYTE		N03     Dn2 
	BYTE	W08
// 001   ----------------------------------------
	BYTE		N92     Cn2 
	BYTE	W96
	BYTE		EOT     Cn1 
BanjoKazooieGruntildaBattleSme_3_B1:
// 002   ----------------------------------------
	BYTE		N01     Cn1   v127
	BYTE		N16     Cn2 
	BYTE	W24
	BYTE		N15     Gn0 
	BYTE		N15     Gn1 
	BYTE	W24
	BYTE		N16     Cn1   v124
	BYTE		N16     Cn2 
	BYTE	W24
	BYTE		N17     Gn0   v127
	BYTE		N17     Gn1 
	BYTE	W24
// 003   ----------------------------------------
	BYTE		        Gs0 
	BYTE		N17     Gs1 
	BYTE	W24
	BYTE		        Ds0 
	BYTE		N17     Ds1 
	BYTE	W24
	BYTE		N16     Gs0 
	BYTE		N16     Gs1 
	BYTE	W24
	BYTE		N17     Ds0 
	BYTE		N17     Ds1 
	BYTE	W24
// 004   ----------------------------------------
BanjoKazooieGruntildaBattleSme_3_004:
	BYTE		N16     Cn1   v127
	BYTE		N16     Cn2 
	BYTE	W24
	BYTE		N15     Gn0 
	BYTE		N15     Gn1 
	BYTE	W24
	BYTE		N16     Cn1   v124
	BYTE		N16     Cn2 
	BYTE	W24
	BYTE		N17     Gn0   v127
	BYTE		N17     Gn1 
	BYTE	W24
	BYTE	PEND
// 005   ----------------------------------------
BanjoKazooieGruntildaBattleSme_3_005:
	BYTE		N17     Cn1   v127
	BYTE		N17     Cn2 
	BYTE	W24
	BYTE		        Gn0 
	BYTE		N17     Gn1 
	BYTE	W24
	BYTE		N16     Cn1 
	BYTE		N16     Cn2 
	BYTE	W24
	BYTE		N17     As0 
	BYTE		N17     As1 
	BYTE	W24
	BYTE	PEND
// 006   ----------------------------------------
BanjoKazooieGruntildaBattleSme_3_006:
	BYTE		N16     Ds1   v116
	BYTE		N16     Ds2 
	BYTE	W24
	BYTE		N14     As0 
	BYTE		N14     As1 
	BYTE	W24
	BYTE		N15     Ds1 
	BYTE		N15     Ds2 
	BYTE	W24
	BYTE		        As0 
	BYTE		N15     As1 
	BYTE	W24
	BYTE	PEND
// 007   ----------------------------------------
BanjoKazooieGruntildaBattleSme_3_007:
	BYTE		N16     Ds1   v112
	BYTE		N16     Ds2 
	BYTE	W24
	BYTE		        As0 
	BYTE		N16     As1 
	BYTE	W24
	BYTE		        Ds1 
	BYTE		N16     Ds2 
	BYTE	W24
	BYTE		        As0   v116
	BYTE		N16     As1 
	BYTE	W24
	BYTE	PEND
// 008   ----------------------------------------
BanjoKazooieGruntildaBattleSme_3_008:
	BYTE		N18     Fn1   v120
	BYTE		N18     Fn2 
	BYTE	W24
	BYTE		N14     Cn1   v112
	BYTE		N14     Cn2 
	BYTE	W24
	BYTE		N16     Cn1 
	BYTE		N16     Cn2 
	BYTE	W24
	BYTE		        Gn0   v116
	BYTE		N16     Gn1 
	BYTE	W24
	BYTE	PEND
// 009   ----------------------------------------
BanjoKazooieGruntildaBattleSme_3_009:
	BYTE		N16     Cs1   v124
	BYTE		N16     Cs2 
	BYTE	W24
	BYTE		N18     Gs0   v104
	BYTE		N18     Gs1 
	BYTE	W24
	BYTE		N17     Gn0   v112
	BYTE		N17     Gn1 
	BYTE	W24
	BYTE		N19     Dn1   v120
	BYTE		N19     Dn2 
	BYTE	W24
	BYTE	PEND
// 010   ----------------------------------------
BanjoKazooieGruntildaBattleSme_3_010:
	BYTE		N17     Gs0   v116
	BYTE		N17     Gs1 
	BYTE	W24
	BYTE		N18     Ds1 
	BYTE		N18     Ds2 
	BYTE	W24
	BYTE		N19     Fn0   v100
	BYTE		N19     Fn1 
	BYTE	W24
	BYTE		N20     Cn1   v104
	BYTE		N20     Cn2 
	BYTE	W24
	BYTE	PEND
// 011   ----------------------------------------
BanjoKazooieGruntildaBattleSme_3_011:
	BYTE		N18     Gn0   v120
	BYTE		N18     Gn1 
	BYTE	W24
	BYTE		N20     Dn1   v124
	BYTE		N20     Dn2 
	BYTE	W24
	BYTE		N18     Gn0   v112
	BYTE		N18     Gn1 
	BYTE	W24
	BYTE		        Dn1   v124
	BYTE		N18     Dn2 
	BYTE	W24
	BYTE	PEND
// 012   ----------------------------------------
	BYTE	PATT
	 POIN2	BanjoKazooieGruntildaBattleSme_3_008
// 013   ----------------------------------------
	BYTE	PATT
	 POIN2	BanjoKazooieGruntildaBattleSme_3_009
// 014   ----------------------------------------
	BYTE	PATT
	 POIN2	BanjoKazooieGruntildaBattleSme_3_010
// 015   ----------------------------------------
	BYTE	PATT
	 POIN2	BanjoKazooieGruntildaBattleSme_3_011
// 016   ----------------------------------------
	BYTE	PATT
	 POIN2	BanjoKazooieGruntildaBattleSme_3_004
// 017   ----------------------------------------
	BYTE	PATT
	 POIN2	BanjoKazooieGruntildaBattleSme_3_005
// 018   ----------------------------------------
	BYTE	PATT
	 POIN2	BanjoKazooieGruntildaBattleSme_3_006
// 019   ----------------------------------------
	BYTE	PATT
	 POIN2	BanjoKazooieGruntildaBattleSme_3_007
// 020   ----------------------------------------
	BYTE	PATT
	 POIN2	BanjoKazooieGruntildaBattleSme_3_008
// 021   ----------------------------------------
	BYTE	PATT
	 POIN2	BanjoKazooieGruntildaBattleSme_3_009
// 022   ----------------------------------------
	BYTE	PATT
	 POIN2	BanjoKazooieGruntildaBattleSme_3_010
// 023   ----------------------------------------
	BYTE	PATT
	 POIN2	BanjoKazooieGruntildaBattleSme_3_011
// 024   ----------------------------------------
	BYTE	PATT
	 POIN2	BanjoKazooieGruntildaBattleSme_3_008
// 025   ----------------------------------------
	BYTE	PATT
	 POIN2	BanjoKazooieGruntildaBattleSme_3_009
// 026   ----------------------------------------
	BYTE	PATT
	 POIN2	BanjoKazooieGruntildaBattleSme_3_010
// 027   ----------------------------------------
	BYTE	PATT
	 POIN2	BanjoKazooieGruntildaBattleSme_3_011
// 028   ----------------------------------------
	BYTE	W96
// 029   ----------------------------------------
	BYTE	W96
// 030   ----------------------------------------
	BYTE	W96
// 031   ----------------------------------------
	BYTE	W96
// 032   ----------------------------------------
	BYTE	W96
// 033   ----------------------------------------
	BYTE	W96
// 034   ----------------------------------------
	BYTE	W96
// 035   ----------------------------------------
	BYTE	W96
// 036   ----------------------------------------
BanjoKazooieGruntildaBattleSme_3_036:
	BYTE		N32     Cn2   v127
	BYTE	W48
	BYTE		        As1 
	BYTE	W48
	BYTE	PEND
// 037   ----------------------------------------
BanjoKazooieGruntildaBattleSme_3_037:
	BYTE		N36     Gs1   v127
	BYTE	W48
	BYTE		        Gn1 
	BYTE	W48
	BYTE	PEND
// 038   ----------------------------------------
	BYTE		        Cn2   v108
	BYTE	W48
	BYTE		        Gn2   v127
	BYTE	W48
// 039   ----------------------------------------
	BYTE		        Ds2 
	BYTE	W48
	BYTE		N40     Fn2 
	BYTE	W48
// 040   ----------------------------------------
	BYTE	PATT
	 POIN2	BanjoKazooieGruntildaBattleSme_3_036
// 041   ----------------------------------------
	BYTE	PATT
	 POIN2	BanjoKazooieGruntildaBattleSme_3_037
// 042   ----------------------------------------
	BYTE		N36     Cn2   v108
	BYTE	W48
	BYTE		        Cs2   v127
	BYTE	W48
// 043   ----------------------------------------
BanjoKazooieGruntildaBattleSme_3_043:
	BYTE		N36     Gn1   v127
	BYTE	W48
	BYTE		N40     Gn2 
	BYTE	W48
	BYTE	PEND
// 044   ----------------------------------------
	BYTE	PATT
	 POIN2	BanjoKazooieGruntildaBattleSme_3_043
// 045   ----------------------------------------
BanjoKazooieGruntildaBattleSme_3_045:
	BYTE		N08     Cn2   v127
	BYTE	W12
	BYTE		N06     Gn1 
	BYTE	W12
	BYTE		N07     Cn2 
	BYTE	W12
	BYTE		N06     Gn1 
	BYTE	W12
	BYTE		N07     Cn2 
	BYTE	W12
	BYTE		N06     Gn1 
	BYTE	W12
	BYTE		N07     Cn2 
	BYTE	W12
	BYTE		N06     Gn1 
	BYTE	W12
	BYTE	PEND
// 046   ----------------------------------------
BanjoKazooieGruntildaBattleSme_3_046:
	BYTE		N07     Gs1   v127
	BYTE	W12
	BYTE		        Ds1 
	BYTE	W12
	BYTE		        Gs1 
	BYTE	W12
	BYTE		        Ds1 
	BYTE	W12
	BYTE		        Gs1 
	BYTE	W12
	BYTE		N06     Ds1 
	BYTE	W12
	BYTE		N08     Gs1 
	BYTE	W12
	BYTE		        Ds1 
	BYTE	W12
	BYTE	PEND
// 047   ----------------------------------------
BanjoKazooieGruntildaBattleSme_3_047:
	BYTE		N06     Cn2   v127
	BYTE	W12
	BYTE		N07     Gn1 
	BYTE	W12
	BYTE		        Cn2 
	BYTE	W12
	BYTE		        Gn1 
	BYTE	W12
	BYTE		        Cn2 
	BYTE	W12
	BYTE		N06     Gn1 
	BYTE	W12
	BYTE		N08     Cn2 
	BYTE	W12
	BYTE		N07     Gn1 
	BYTE	W12
	BYTE	PEND
// 048   ----------------------------------------
BanjoKazooieGruntildaBattleSme_3_048:
	BYTE		N08     Fs1   v127
	BYTE	W12
	BYTE		        Cs1 
	BYTE	W12
	BYTE		N07     Fs1 
	BYTE	W12
	BYTE		        Cs1 
	BYTE	W12
	BYTE		N08     Fs1 
	BYTE	W12
	BYTE		N06     Cs1 
	BYTE	W12
	BYTE		        Fs1 
	BYTE	W12
	BYTE		N08     Cs1 
	BYTE	W12
	BYTE	PEND
// 049   ----------------------------------------
	BYTE	PATT
	 POIN2	BanjoKazooieGruntildaBattleSme_3_045
// 050   ----------------------------------------
	BYTE	PATT
	 POIN2	BanjoKazooieGruntildaBattleSme_3_046
// 051   ----------------------------------------
	BYTE	PATT
	 POIN2	BanjoKazooieGruntildaBattleSme_3_047
// 052   ----------------------------------------
	BYTE	PATT
	 POIN2	BanjoKazooieGruntildaBattleSme_3_048
// 053   ----------------------------------------
	BYTE		N06     Cn2   v127
	BYTE	W12
	BYTE		N07     Gn1 
	BYTE	W12
	BYTE		        Cn2 
	BYTE	W12
	BYTE		        Gn1 
	BYTE	W12
	BYTE		N06     Cn2 
	BYTE	W12
	BYTE		N07     Gn1 
	BYTE	W12
	BYTE		        Cn2 
	BYTE	W12
	BYTE		        Gn1 
	BYTE	W12
// 054   ----------------------------------------
	BYTE		N06     Gs1 
	BYTE	W12
	BYTE		N07     Ds1 
	BYTE	W12
	BYTE		N06     Gs1 
	BYTE	W12
	BYTE		        Ds1 
	BYTE	W12
	BYTE		N05     Gs1 
	BYTE	W12
	BYTE		N06     Ds1 
	BYTE	W12
	BYTE		        Gs1 
	BYTE	W12
	BYTE		N07     Ds1 
	BYTE	W12
// 055   ----------------------------------------
	BYTE		N08     Cn2 
	BYTE	W12
	BYTE		        Gn1 
	BYTE	W12
	BYTE		        Cn2 
	BYTE	W12
	BYTE		N07     Gn1 
	BYTE	W12
	BYTE		N09     Cn2 
	BYTE	W12
	BYTE		N10     Gn1 
	BYTE	W12
	BYTE		N08     Cn2 
	BYTE	W12
	BYTE		N05     Gn1 
	BYTE	W12
// 056   ----------------------------------------
	BYTE		N11   
	BYTE	W12
	BYTE		N09     Dn2 
	BYTE	W12
	BYTE		        Gn1 
	BYTE	W12
	BYTE		N08     Dn2 
	BYTE	W12
	BYTE		N09     Gn1 
	BYTE	W12
	BYTE		        Dn2 
	BYTE	W12
	BYTE		N08     Gn1 
	BYTE	W12
	BYTE		N06     Dn2 
	BYTE	W12
// 057   ----------------------------------------
	BYTE		N09     Cn2 
	BYTE	W12
	BYTE		        Gn1 
	BYTE	W12
	BYTE		N08     Cn2 
	BYTE	W12
	BYTE		        Gn1 
	BYTE	W12
	BYTE		N10     Cn2 
	BYTE	W12
	BYTE		        Gn1 
	BYTE	W12
	BYTE		N11     Cn2 
	BYTE	W12
	BYTE		N13     Gn1 
	BYTE	W12
// 058   ----------------------------------------
	BYTE	W96
// 059   ----------------------------------------
	BYTE	W96
// 060   ----------------------------------------
	BYTE		N06     Ds2 
	BYTE	W12
	BYTE		N07     As1 
	BYTE	W12
	BYTE		        Ds2 
	BYTE	W12
	BYTE		        As1 
	BYTE	W12
	BYTE		N06     Ds2 
	BYTE	W12
	BYTE		N07     As1 
	BYTE	W12
	BYTE		        Ds2 
	BYTE	W12
	BYTE		        As1 
	BYTE	W12
// 061   ----------------------------------------
	BYTE		N06     Bn1 
	BYTE	W12
	BYTE		N07     Fs1 
	BYTE	W12
	BYTE		N06     Bn1 
	BYTE	W12
	BYTE		        Fs1 
	BYTE	W12
	BYTE		N05     Bn1 
	BYTE	W12
	BYTE		N06     Fs1 
	BYTE	W12
	BYTE		        Bn1 
	BYTE	W12
	BYTE		N07     Fs1 
	BYTE	W12
// 062   ----------------------------------------
	BYTE		        Fn1 
	BYTE	W96
// 063   ----------------------------------------
	BYTE	W96
// 064   ----------------------------------------
	BYTE		N06     Gs1 
	BYTE	W12
	BYTE		N07     Ds1 
	BYTE	W12
	BYTE		        Gs1 
	BYTE	W12
	BYTE		        Ds1 
	BYTE	W12
	BYTE		N06     Gs1 
	BYTE	W12
	BYTE		N07     Ds1 
	BYTE	W12
	BYTE		        Gs1 
	BYTE	W12
	BYTE		        Ds1 
	BYTE	W12
// 065   ----------------------------------------
	BYTE		N06     En1 
	BYTE	W12
	BYTE		N07     Bn0 
	BYTE	W12
	BYTE		N06     En1 
	BYTE	W12
	BYTE		        Bn0 
	BYTE	W12
	BYTE		N05     En1 
	BYTE	W12
	BYTE		N06     Bn0 
	BYTE	W12
	BYTE		        En1 
	BYTE	W12
	BYTE		N07     Bn0 
	BYTE	W12
// 066   ----------------------------------------
	BYTE		N09     Cn2   v120
	BYTE		N08     Cn3   v112
	BYTE	W24
	BYTE		N10     Cn2   v124
	BYTE		N09     Cn3   v104
	BYTE	W24
	BYTE		        Cn2   v124
	BYTE		N09     Cn3   v104
	BYTE	W24
	BYTE		N10     Cn2   v124
	BYTE		N09     Cn3   v100
	BYTE	W24
// 067   ----------------------------------------
	BYTE		        As1   v116
	BYTE		N09     As2   v112
	BYTE	W24
	BYTE		N10     As1   v108
	BYTE		N09     As2   v100
	BYTE	W24
	BYTE		N11     As1   v112
	BYTE		N09     As2   v096
	BYTE	W24
	BYTE		N14     As1   v104
	BYTE		N10     As2   v100
	BYTE	W24
// 068   ----------------------------------------
	BYTE		N12     Gs1   v120
	BYTE		N09     Gs2   v108
	BYTE	W24
	BYTE		N13     Gs1   v116
	BYTE		N09     Gs2   v100
	BYTE	W24
	BYTE		N11     Gs1   v112
	BYTE		N09     Gs2   v096
	BYTE	W24
	BYTE		N11     Gs1   v116
	BYTE		N09     Gs2   v100
	BYTE	W24
// 069   ----------------------------------------
	BYTE		N10     Fs1   v116
	BYTE		N10     Fs2   v096
	BYTE	W24
	BYTE		N11     Fs1   v124
	BYTE		N10     Fs2   v100
	BYTE	W24
	BYTE		        Fs1   v124
	BYTE		N09     Fs2   v100
	BYTE	W24
	BYTE		        Fs1   v124
	BYTE		N10     Fs2   v100
	BYTE	W24
// 070   ----------------------------------------
	BYTE		TIE     Fn1   v092
	BYTE		N09     Fn2   v100
	BYTE	W24
	BYTE		N09   
	BYTE	W24
	BYTE		        Fn2   v096
	BYTE	W24
	BYTE		        Fn2   v104
	BYTE	W24
// 071   ----------------------------------------
	BYTE		TIE     Ds1   v088
	BYTE		N08     Ds2   v104
	BYTE	W03
	BYTE		EOT     Fn1 
	BYTE	W21
	BYTE		N09     Ds2   v100
	BYTE	W24
	BYTE		N09   
	BYTE	W24
	BYTE		N10     Ds2   v104
	BYTE	W24
// 072   ----------------------------------------
	BYTE		N92     Cs1   v088
	BYTE		N09     Cs2   v116
	BYTE	W03
	BYTE		EOT     Ds1 
	BYTE	W21
	BYTE		N09     Cs2   v104
	BYTE	W24
	BYTE		        Cs2   v108
	BYTE	W24
	BYTE		N10     Cs2   v116
	BYTE	W24
// 073   ----------------------------------------
	BYTE		N96     Bn0   v092
	BYTE		N10     Bn1   v104
	BYTE	W24
	BYTE		N10   
	BYTE	W24
	BYTE		        Bn1   v112
	BYTE	W24
	BYTE		N11   
	BYTE	W24
// 074   ----------------------------------------
BanjoKazooieGruntildaBattleSme_3_074:
	BYTE	W48
	BYTE		N48     An0   v127
	BYTE		N48     An1 
	BYTE	W48
	BYTE	PEND
// 075   ----------------------------------------
	BYTE	W48
	BYTE		        Fn0 
	BYTE		N48     Fn1 
	BYTE	W48
// 076   ----------------------------------------
	BYTE	PATT
	 POIN2	BanjoKazooieGruntildaBattleSme_3_074
// 077   ----------------------------------------
	BYTE	W48
	BYTE		N42     Fn0   v127
	BYTE		N40     Fn1 
	BYTE	W48
// 078   ----------------------------------------
	BYTE	W48
	BYTE		N52     Bn0 
	BYTE		N52     Bn1 
	BYTE	W48
// 079   ----------------------------------------
	BYTE	W48
	BYTE		N54     Gn0 
	BYTE		N52     Gn1 
	BYTE	W48
// 080   ----------------------------------------
	BYTE	W48
	BYTE		N56     Bn0 
	BYTE		N56     Bn1 
	BYTE	W48
// 081   ----------------------------------------
	BYTE	W48
	BYTE		N48     Gn0 
	BYTE		N48     Gn1 
	BYTE	W48
// 082   ----------------------------------------
	BYTE	W96
// 083   ----------------------------------------
BanjoKazooieGruntildaBattleSme_3_083:
	BYTE	W12
	BYTE		N06     Bn2   v127
	BYTE	W06
	BYTE		N06   
	BYTE	W06
	BYTE		        Cn3 
	BYTE	W06
	BYTE		N06   
	BYTE	W06
	BYTE		        An2 
	BYTE	W06
	BYTE		N06   
	BYTE	W06
	BYTE		        Bn2 
	BYTE	W06
	BYTE		N06   
	BYTE	W06
	BYTE		        Gn2 
	BYTE	W06
	BYTE		N06   
	BYTE	W06
	BYTE		        An2 
	BYTE	W06
	BYTE		N06   
	BYTE	W06
	BYTE		        Fs2 
	BYTE	W06
	BYTE		N06   
	BYTE	W06
	BYTE	PEND
// 084   ----------------------------------------
BanjoKazooieGruntildaBattleSme_3_084:
	BYTE		N06     En2   v127
	BYTE	W06
	BYTE		N06   
	BYTE	W06
	BYTE		        Bn1 
	BYTE	W06
	BYTE		N06   
	BYTE	W06
	BYTE		        Cn2 
	BYTE	W06
	BYTE		N06   
	BYTE	W06
	BYTE		        An1 
	BYTE	W06
	BYTE		N06   
	BYTE	W06
	BYTE		        Bn1 
	BYTE	W06
	BYTE		N06   
	BYTE	W06
	BYTE		        Gn1 
	BYTE	W06
	BYTE		N06   
	BYTE	W06
	BYTE		        An1 
	BYTE	W06
	BYTE		N06   
	BYTE	W06
	BYTE		        Fs1 
	BYTE	W06
	BYTE		N06   
	BYTE	W06
	BYTE	PEND
// 085   ----------------------------------------
BanjoKazooieGruntildaBattleSme_3_085:
	BYTE		N06     Dn2   v127
	BYTE	W06
	BYTE		        As1 
	BYTE	W06
	BYTE		        Dn2 
	BYTE	W06
	BYTE		        Fn2 
	BYTE	W06
	BYTE		        As2 
	BYTE	W06
	BYTE		        Fn2 
	BYTE	W06
	BYTE		        As2 
	BYTE	W06
	BYTE		        Dn3 
	BYTE	W06
	BYTE		        Fn3 
	BYTE	W06
	BYTE		        Dn3 
	BYTE	W06
	BYTE		        Fn3 
	BYTE	W06
	BYTE		        As3 
	BYTE	W06
	BYTE		        Dn4 
	BYTE	W06
	BYTE		        As3 
	BYTE	W06
	BYTE		        Dn4 
	BYTE	W06
	BYTE		        Fn4 
	BYTE	W06
	BYTE	PEND
// 086   ----------------------------------------
	BYTE	W96
// 087   ----------------------------------------
	BYTE	PATT
	 POIN2	BanjoKazooieGruntildaBattleSme_3_083
// 088   ----------------------------------------
	BYTE	PATT
	 POIN2	BanjoKazooieGruntildaBattleSme_3_084
// 089   ----------------------------------------
	BYTE	PATT
	 POIN2	BanjoKazooieGruntildaBattleSme_3_085
// 090   ----------------------------------------
BanjoKazooieGruntildaBattleSme_3_090:
	BYTE		N06     Dn4   v127
	BYTE	W06
	BYTE		        Bn3 
	BYTE	W06
	BYTE		        Gs3 
	BYTE	W06
	BYTE		        Gn3 
	BYTE	W06
	BYTE		        Fn3 
	BYTE	W06
	BYTE		        Dn3 
	BYTE	W06
	BYTE		        Cn3 
	BYTE	W06
	BYTE		        Bn2 
	BYTE	W06
	BYTE		        As2 
	BYTE	W06
	BYTE		        Gn2 
	BYTE	W06
	BYTE		        Fn2 
	BYTE	W06
	BYTE		        En2 
	BYTE	W06
	BYTE		        Cs2 
	BYTE	W06
	BYTE		        As1 
	BYTE	W06
	BYTE		        Gn1 
	BYTE	W06
	BYTE		        Fs1 
	BYTE	W06
	BYTE	PEND
// 091   ----------------------------------------
	BYTE	PATT
	 POIN2	BanjoKazooieGruntildaBattleSme_3_090
// 092   ----------------------------------------
	BYTE	PATT
	 POIN2	BanjoKazooieGruntildaBattleSme_3_090
// 093   ----------------------------------------
	BYTE	PATT
	 POIN2	BanjoKazooieGruntildaBattleSme_3_090
// 094   ----------------------------------------
BanjoKazooieGruntildaBattleSme_3_094:
	BYTE		N06     Dn4   v127
	BYTE	W06
	BYTE		        Bn3 
	BYTE	W06
	BYTE		        Gs3 
	BYTE	W06
	BYTE		        Gn3 
	BYTE	W06
	BYTE		        Fn3 
	BYTE	W06
	BYTE		        Dn3 
	BYTE	W06
	BYTE		        Cn3 
	BYTE	W06
	BYTE		        Bn2 
	BYTE	W06
	BYTE		        Dn4 
	BYTE	W06
	BYTE		        Bn3 
	BYTE	W06
	BYTE		        Gs3 
	BYTE	W06
	BYTE		        Gn3 
	BYTE	W06
	BYTE		        Fn3 
	BYTE	W06
	BYTE		        Dn3 
	BYTE	W06
	BYTE		        Cn3 
	BYTE	W06
	BYTE		        Bn2 
	BYTE	W06
	BYTE	PEND
// 095   ----------------------------------------
	BYTE	PATT
	 POIN2	BanjoKazooieGruntildaBattleSme_3_094
// 096   ----------------------------------------
	BYTE		N48     Cn1   v127
	BYTE		N48     Cn2 
	BYTE	W48
	BYTE		        Dn1 
	BYTE		N48     Dn2 
	BYTE	W48
// 097   ----------------------------------------
BanjoKazooieGruntildaBattleSme_3_097:
	BYTE		N48     Ds1   v127
	BYTE		N48     Ds2 
	BYTE	W48
	BYTE		        Fs1 
	BYTE		N48     Fs2 
	BYTE	W48
	BYTE	PEND
// 098   ----------------------------------------
	BYTE		        Cn1   v124
	BYTE		N48     Cn2   v127
	BYTE	W48
	BYTE		        An0   v124
	BYTE		N48     An1   v127
	BYTE	W48
// 099   ----------------------------------------
	BYTE		        Gn0   v124
	BYTE		N48     Gn1   v127
	BYTE	W48
	BYTE		        Fs0   v124
	BYTE		N48     Fs1   v127
	BYTE	W48
// 100   ----------------------------------------
	BYTE		        Cn1   v120
	BYTE		N48     Cn2   v124
	BYTE	W48
	BYTE		        Dn1   v127
	BYTE		N48     Dn2 
	BYTE	W48
// 101   ----------------------------------------
	BYTE	PATT
	 POIN2	BanjoKazooieGruntildaBattleSme_3_097
// 102   ----------------------------------------
	BYTE		N48     Cn1   v124
	BYTE		N48     Cn2   v127
	BYTE	W48
	BYTE		        An0 
	BYTE		N48     An1 
	BYTE	W48
// 103   ----------------------------------------
	BYTE		        Gn0 
	BYTE		N48     Gn1 
	BYTE	W48
	BYTE		        Fs0 
	BYTE		N48     Fs1 
	BYTE	W48
// 104   ----------------------------------------
BanjoKazooieGruntildaBattleSme_3_104:
	BYTE		N24     Gs0   v127
	BYTE		N24     Gs1   v124
	BYTE	W24
	BYTE		        Fs0   v120
	BYTE		N24     Fs1   v116
	BYTE	W24
	BYTE		        Gs0   v124
	BYTE		N24     Gs1 
	BYTE	W24
	BYTE		        Fs0   v120
	BYTE		N24     Fs1   v124
	BYTE	W24
	BYTE	PEND
// 105   ----------------------------------------
BanjoKazooieGruntildaBattleSme_3_105:
	BYTE		N24     Fn0   v127
	BYTE		N24     Fn1 
	BYTE	W24
	BYTE		        Ds0   v124
	BYTE		N24     Ds1   v127
	BYTE	W24
	BYTE		        Fn0   v124
	BYTE		N24     Fn1   v116
	BYTE	W24
	BYTE		        Ds0   v127
	BYTE		N24     Ds1 
	BYTE	W24
	BYTE	PEND
// 106   ----------------------------------------
BanjoKazooieGruntildaBattleSme_3_106:
	BYTE		N24     Gs0   v127
	BYTE		N24     Gs1 
	BYTE	W24
	BYTE		        Fs0 
	BYTE		N24     Fs1   v124
	BYTE	W24
	BYTE		        Gs0   v127
	BYTE		N24     Gs1 
	BYTE	W24
	BYTE		        Fs0 
	BYTE		N24     Fs1   v124
	BYTE	W24
	BYTE	PEND
// 107   ----------------------------------------
BanjoKazooieGruntildaBattleSme_3_107:
	BYTE		N24     Fn0   v127
	BYTE		N24     Fn1 
	BYTE	W24
	BYTE		        Ds0 
	BYTE		N24     Ds1 
	BYTE	W24
	BYTE		        Fn0 
	BYTE		N24     Fn1 
	BYTE	W24
	BYTE		        Ds0 
	BYTE		N24     Ds1 
	BYTE	W24
	BYTE	PEND
// 108   ----------------------------------------
	BYTE	PATT
	 POIN2	BanjoKazooieGruntildaBattleSme_3_104
// 109   ----------------------------------------
	BYTE	PATT
	 POIN2	BanjoKazooieGruntildaBattleSme_3_105
// 110   ----------------------------------------
	BYTE	PATT
	 POIN2	BanjoKazooieGruntildaBattleSme_3_106
// 111   ----------------------------------------
	BYTE	PATT
	 POIN2	BanjoKazooieGruntildaBattleSme_3_107
// 112   ----------------------------------------
BanjoKazooieGruntildaBattleSme_3_112:
	BYTE		N48     Cn1   v116
	BYTE	W48
	BYTE		        Cn2 
	BYTE	W48
	BYTE	PEND
// 113   ----------------------------------------
BanjoKazooieGruntildaBattleSme_3_113:
	BYTE		N48     Gs0   v116
	BYTE	W48
	BYTE		        Gs1 
	BYTE	W48
	BYTE	PEND
// 114   ----------------------------------------
	BYTE	PATT
	 POIN2	BanjoKazooieGruntildaBattleSme_3_112
// 115   ----------------------------------------
	BYTE	PATT
	 POIN2	BanjoKazooieGruntildaBattleSme_3_113
// 116   ----------------------------------------
	BYTE	PATT
	 POIN2	BanjoKazooieGruntildaBattleSme_3_112
// 117   ----------------------------------------
	BYTE	PATT
	 POIN2	BanjoKazooieGruntildaBattleSme_3_113
// 118   ----------------------------------------
	BYTE	PATT
	 POIN2	BanjoKazooieGruntildaBattleSme_3_112
// 119   ----------------------------------------
	BYTE	PATT
	 POIN2	BanjoKazooieGruntildaBattleSme_3_113
// 120   ----------------------------------------
	BYTE		N16     Dn1   v127
	BYTE	W24
	BYTE		N15     An0 
	BYTE	W24
	BYTE		N16     Dn1   v124
	BYTE	W24
	BYTE		N17     An0   v127
	BYTE	W24
// 121   ----------------------------------------
	BYTE		        Dn1 
	BYTE	W24
	BYTE		        An0 
	BYTE	W24
	BYTE		N16     Dn1 
	BYTE	W24
	BYTE		N17     Cn1 
	BYTE	W24
// 122   ----------------------------------------
	BYTE		N16     Fn1   v116
	BYTE	W24
	BYTE		N14     Cn1 
	BYTE	W24
	BYTE		N15     Fn1 
	BYTE	W24
	BYTE		        Cn1 
	BYTE	W24
// 123   ----------------------------------------
	BYTE		N16     Fn1   v112
	BYTE	W24
	BYTE		        Cn1 
	BYTE	W24
	BYTE		        Fn1 
	BYTE	W24
	BYTE		        Cn1   v116
	BYTE	W24
// 124   ----------------------------------------
	BYTE		N18     Gn1   v120
	BYTE	W24
	BYTE		N14     Dn1   v112
	BYTE	W24
	BYTE		N16   
	BYTE	W24
	BYTE		        An0   v116
	BYTE	W24
// 125   ----------------------------------------
	BYTE		        Ds1   v124
	BYTE	W24
	BYTE		N18     As0   v104
	BYTE	W24
	BYTE		N17     An0   v112
	BYTE	W24
	BYTE		N19     En1   v120
	BYTE	W24
// 126   ----------------------------------------
	BYTE		N17     As0   v116
	BYTE	W24
	BYTE		N18     Fn1 
	BYTE	W24
	BYTE		N19     Gn0   v100
	BYTE	W24
	BYTE		N20     Dn1   v104
	BYTE	W24
// 127   ----------------------------------------
	BYTE		N18     An0   v120
	BYTE	W24
	BYTE		N20     En1   v124
	BYTE	W24
	BYTE		N18     An0   v112
	BYTE	W24
	BYTE		        En1   v124
	BYTE	W24
// 128   ----------------------------------------
	BYTE		N08     Gn2   v127
	BYTE	W16
	BYTE		N05     As2 
	BYTE	W08
	BYTE		        An2 
	BYTE	W08
	BYTE		        As2 
	BYTE	W08
	BYTE		        Cn3 
	BYTE	W08
	BYTE		N08     Dn3 
	BYTE	W16
	BYTE		N05     En3 
	BYTE	W08
	BYTE		N08     Fn3 
	BYTE	W16
	BYTE		N05     En3 
	BYTE	W08
// 129   ----------------------------------------
	BYTE		N08     Ds3 
	BYTE	W16
	BYTE		N05     Dn3 
	BYTE	W08
	BYTE		N08     Cn3 
	BYTE	W16
	BYTE		N05     As2 
	BYTE	W08
	BYTE		N08     An2 
	BYTE	W16
	BYTE		N05     Bn2 
	BYTE	W08
	BYTE		N08     Cs3 
	BYTE	W16
	BYTE		N05     En3 
	BYTE	W08
// 130   ----------------------------------------
	BYTE		N08     As2 
	BYTE	W16
	BYTE		N05     Cn3 
	BYTE	W08
	BYTE		        Dn3 
	BYTE	W08
	BYTE		        Cn3 
	BYTE	W08
	BYTE		        As2 
	BYTE	W08
	BYTE		N08     Gn2 
	BYTE	W16
	BYTE		N05     An2 
	BYTE	W08
	BYTE		N08     As2 
	BYTE	W16
	BYTE		N05     Dn3 
	BYTE	W08
// 131   ----------------------------------------
	BYTE		        An2 
	BYTE	W08
	BYTE		        En2 
	BYTE	W08
	BYTE		        An2 
	BYTE	W08
	BYTE		        Cs3 
	BYTE	W08
	BYTE		        An2 
	BYTE	W08
	BYTE		        Cs3 
	BYTE	W08
	BYTE		        En3 
	BYTE	W08
	BYTE		        Cs3 
	BYTE	W08
	BYTE		        En3 
	BYTE	W08
	BYTE		        Gn3 
	BYTE	W08
	BYTE		        Fn3 
	BYTE	W08
	BYTE		        En3 
	BYTE	W08
// 132   ----------------------------------------
	BYTE		        Ds3 
	BYTE	W96
// 133   ----------------------------------------
	BYTE	W96
// 134   ----------------------------------------
	BYTE		N15     Cn1   v116
	BYTE	W16
	BYTE		N04     Ds1 
	BYTE	W08
	BYTE		        Dn1 
	BYTE	W08
	BYTE		        Ds1 
	BYTE	W08
	BYTE		        Dn1 
	BYTE	W08
	BYTE		TIE     Cn1 
	BYTE		N15     Cn2 
	BYTE	W16
	BYTE		N04     Ds2 
	BYTE	W08
	BYTE		N03     Dn2 
	BYTE	W08
	BYTE		N04     Ds2 
	BYTE	W08
	BYTE		N03     Dn2 
	BYTE	W08
// 135   ----------------------------------------
	BYTE		N92     Cn2 
	BYTE	W92
	BYTE	W03
	BYTE		EOT     Cn1 
	BYTE	W01
	BYTE	GoTo
	 POIN2	BanjoKazooieGruntildaBattleSme_3_B1
BanjoKazooieGruntildaBattleSme_3_B2:
// 136   ----------------------------------------
	BYTE	FINE

//**************** Track 4 (Midi-Chn.4) ****************//

BanjoKazooieGruntildaBattleSme_4:
	BYTE	KEYSH   BanjoKazooieGruntildaBattleSme_key+0
// 000   ----------------------------------------
	BYTE		VOICE   56
	BYTE		VOL     126*BanjoKazooieGruntildaBattleSme_mvl/mxv
	BYTE		PAN     c_v+11
	BYTE	W96
// 001   ----------------------------------------
	BYTE		N13     Cn3   v127
	BYTE	W16
	BYTE		N04     Ds3 
	BYTE	W08
	BYTE		        Dn3 
	BYTE	W08
	BYTE		        Ds3 
	BYTE	W08
	BYTE		        Dn3 
	BYTE	W08
	BYTE		N48     Cn3 
	BYTE		N12     Cn4 
	BYTE	W16
	BYTE		N04     Ds4 
	BYTE	W08
	BYTE		        Dn4 
	BYTE	W08
	BYTE		        Ds4 
	BYTE	W08
	BYTE		        Dn4 
	BYTE	W08
BanjoKazooieGruntildaBattleSme_4_B1:
// 002   ----------------------------------------
	BYTE		N09     Cn3   v127
	BYTE		N09     Cn4 
	BYTE	W96
// 003   ----------------------------------------
	BYTE	W72
	BYTE		N16     Gn2 
	BYTE		N16     Gn3 
	BYTE	W24
// 004   ----------------------------------------
	BYTE		N06     Cn3 
	BYTE		N06     Cn4 
	BYTE	W16
	BYTE		N04     Ds3 
	BYTE		N04     Ds4 
	BYTE	W08
	BYTE		        Dn3 
	BYTE		N04     Dn4 
	BYTE	W08
	BYTE		        Ds3 
	BYTE		N04     Ds4 
	BYTE	W08
	BYTE		        Dn3 
	BYTE		N04     Dn4 
	BYTE	W08
	BYTE		N08     Cn3 
	BYTE		N08     Cn4 
	BYTE	W16
	BYTE		N04     Gn3 
	BYTE		N04     Gn4 
	BYTE	W08
	BYTE		N12     Gs3 
	BYTE		N12     Gs4 
	BYTE	W16
	BYTE		N05     Gn3 
	BYTE		N05     Gn4 
	BYTE	W08
// 005   ----------------------------------------
	BYTE		N07     Cn3 
	BYTE		N07     Cn4 
	BYTE	W16
	BYTE		N03     Ds3 
	BYTE		N03     Ds4 
	BYTE	W08
	BYTE		N04     Dn3 
	BYTE		N04     Dn4 
	BYTE	W08
	BYTE		        Ds3 
	BYTE		N04     Ds4 
	BYTE	W08
	BYTE		        Dn3 
	BYTE		N04     Dn4 
	BYTE	W08
	BYTE		N10     Cn3 
	BYTE		N10     Cn4 
	BYTE	W24
	BYTE		N16     As2 
	BYTE		N16     As3 
	BYTE	W24
// 006   ----------------------------------------
	BYTE		N06     Ds3 
	BYTE		N06     Ds4 
	BYTE	W16
	BYTE		N04     Gn3 
	BYTE		N04     Gn4 
	BYTE	W08
	BYTE		        Fn3 
	BYTE		N04     Fn4 
	BYTE	W08
	BYTE		        Gn3 
	BYTE		N04     Gn4 
	BYTE	W08
	BYTE		        Fn3 
	BYTE		N04     Fn4 
	BYTE	W08
	BYTE		N08     Ds3 
	BYTE		N08     Ds4 
	BYTE	W16
	BYTE		N05     As3 
	BYTE		N05     As4 
	BYTE	W08
	BYTE		N12     Cn4 
	BYTE		N12     Cn5 
	BYTE	W16
	BYTE		N04     As3 
	BYTE		N04     As4 
	BYTE	W08
// 007   ----------------------------------------
	BYTE		N07     Ds3 
	BYTE		N07     Ds4 
	BYTE	W16
	BYTE		N04     Gn3 
	BYTE		N04     Gn4 
	BYTE	W08
	BYTE		        Fn3 
	BYTE		N04     Fn4 
	BYTE	W08
	BYTE		        Gn3 
	BYTE		N04     Gn4 
	BYTE	W08
	BYTE		        Fn3 
	BYTE		N04     Fn4 
	BYTE	W08
	BYTE		N10     Ds3 
	BYTE		N10     Ds4 
	BYTE	W48
// 008   ----------------------------------------
	BYTE		N08     Fn2 
	BYTE		N08     Fn3 
	BYTE	W16
	BYTE		N05     Gs2 
	BYTE		N05     Gs3 
	BYTE	W08
	BYTE		        Gn2 
	BYTE		N05     Gn3 
	BYTE	W08
	BYTE		        Gs2 
	BYTE		N05     Gs3 
	BYTE	W08
	BYTE		        As2 
	BYTE		N05     As3 
	BYTE	W08
	BYTE		N08     Cn3 
	BYTE		N08     Cn4 
	BYTE	W16
	BYTE		N05     Dn3 
	BYTE		N05     Dn4 
	BYTE	W08
	BYTE		N08     Ds3 
	BYTE		N08     Ds4 
	BYTE	W16
	BYTE		N05     Dn3 
	BYTE		N05     Dn4 
	BYTE	W08
// 009   ----------------------------------------
	BYTE		N08     Cs3 
	BYTE		N08     Cs4 
	BYTE	W16
	BYTE		N05     Cn3 
	BYTE		N05     Cn4 
	BYTE	W08
	BYTE		N08     As2 
	BYTE		N08     As3 
	BYTE	W16
	BYTE		N05     Gs2 
	BYTE		N05     Gs3 
	BYTE	W08
	BYTE		N08     Gn2 
	BYTE		N08     Gn3 
	BYTE	W16
	BYTE		N05     An2 
	BYTE		N05     An3 
	BYTE	W08
	BYTE		N08     Bn2 
	BYTE		N08     Bn3 
	BYTE	W16
	BYTE		N05     Dn3 
	BYTE		N05     Dn4 
	BYTE	W08
// 010   ----------------------------------------
	BYTE		N08     Gs2 
	BYTE		N08     Gs3 
	BYTE	W16
	BYTE		N05     As2 
	BYTE		N05     As3 
	BYTE	W08
	BYTE		        Cn3 
	BYTE		N05     Cn4 
	BYTE	W08
	BYTE		        As2 
	BYTE		N05     As3 
	BYTE	W08
	BYTE		        Gs2 
	BYTE		N05     Gs3 
	BYTE	W08
	BYTE		N08     Fn2 
	BYTE		N08     Fn3 
	BYTE	W16
	BYTE		N05     Gn2 
	BYTE		N05     Gn3 
	BYTE	W08
	BYTE		N08     Gs2 
	BYTE		N08     Gs3 
	BYTE	W16
	BYTE		N05     Cn3 
	BYTE		N05     Cn4 
	BYTE	W08
// 011   ----------------------------------------
	BYTE		        Gn2 
	BYTE		N05     Gn3 
	BYTE	W08
	BYTE		        Dn2 
	BYTE		N05     Dn3 
	BYTE	W08
	BYTE		        Gn2 
	BYTE		N05     Gn3 
	BYTE	W08
	BYTE		        Bn2 
	BYTE		N05     Bn3 
	BYTE	W08
	BYTE		        Gn2 
	BYTE		N05     Gn3 
	BYTE	W08
	BYTE		        Bn2 
	BYTE		N05     Bn3 
	BYTE	W08
	BYTE		        Dn3 
	BYTE		N05     Dn4 
	BYTE	W08
	BYTE		        Bn2 
	BYTE		N05     Bn3 
	BYTE	W08
	BYTE		        Dn3 
	BYTE		N05     Dn4 
	BYTE	W08
	BYTE		        Fn3 
	BYTE		N05     Fn4 
	BYTE	W08
	BYTE		        Ds3 
	BYTE		N05     Ds4 
	BYTE	W08
	BYTE		        Dn3 
	BYTE		N05     Dn4 
	BYTE	W08
// 012   ----------------------------------------
	BYTE		        Cn3 
	BYTE		N05     Cn4 
	BYTE	W96
// 013   ----------------------------------------
	BYTE	W96
// 014   ----------------------------------------
	BYTE	W96
// 015   ----------------------------------------
	BYTE	W96
// 016   ----------------------------------------
	BYTE	W96
// 017   ----------------------------------------
	BYTE	W96
// 018   ----------------------------------------
	BYTE	W96
// 019   ----------------------------------------
	BYTE	W96
// 020   ----------------------------------------
	BYTE	W96
// 021   ----------------------------------------
	BYTE	W96
// 022   ----------------------------------------
	BYTE	W96
// 023   ----------------------------------------
	BYTE	W96
// 024   ----------------------------------------
	BYTE	W96
// 025   ----------------------------------------
	BYTE	W96
// 026   ----------------------------------------
	BYTE	W96
// 027   ----------------------------------------
	BYTE	W96
// 028   ----------------------------------------
	BYTE		N15   
	BYTE	W24
	BYTE		N08     Gn3 
	BYTE	W16
	BYTE		N05     Cn4 
	BYTE	W08
	BYTE		N16     As3 
	BYTE	W24
	BYTE		N09     Fn3 
	BYTE	W16
	BYTE		N05     As3 
	BYTE	W08
// 029   ----------------------------------------
	BYTE		N15     Gs3 
	BYTE	W24
	BYTE		N10     Ds3 
	BYTE	W16
	BYTE		N05     Gs3 
	BYTE	W08
	BYTE		N16     Gn3 
	BYTE	W24
	BYTE		N04   
	BYTE	W08
	BYTE		        An3 
	BYTE	W08
	BYTE		        Bn3 
	BYTE	W08
// 030   ----------------------------------------
	BYTE		N15     Cn4 
	BYTE	W24
	BYTE		N09     Gn3 
	BYTE	W16
	BYTE		N05     Cn4 
	BYTE	W08
	BYTE		N16     Dn4 
	BYTE	W24
	BYTE		N18     Gn3 
	BYTE	W24
// 031   ----------------------------------------
	BYTE		N06     Ds4 
	BYTE	W16
	BYTE		N05     Dn4 
	BYTE	W08
	BYTE		N06     Ds4 
	BYTE	W16
	BYTE		N05     Gn4 
	BYTE	W08
	BYTE		N36     Fn4 
	BYTE	W48
// 032   ----------------------------------------
	BYTE		N15     Cn4 
	BYTE	W24
	BYTE		N07     Gn3 
	BYTE	W16
	BYTE		N05     Cn4 
	BYTE	W08
	BYTE		N16     As3 
	BYTE	W24
	BYTE		N07     Fn3 
	BYTE	W16
	BYTE		N05     As3 
	BYTE	W08
// 033   ----------------------------------------
	BYTE		N18     Gs3 
	BYTE	W24
	BYTE		N07     Ds3 
	BYTE	W16
	BYTE		N05     Gs3 
	BYTE	W08
	BYTE		N16     Gn3 
	BYTE	W24
	BYTE		N04   
	BYTE	W08
	BYTE		        An3 
	BYTE	W08
	BYTE		        Bn3 
	BYTE	W08
// 034   ----------------------------------------
	BYTE		N17     Cn4 
	BYTE	W24
	BYTE		N07     Gn3 
	BYTE	W16
	BYTE		N04     Cn4 
	BYTE	W08
	BYTE		N16     Cs4 
	BYTE	W24
	BYTE		N17     Fn4 
	BYTE	W24
// 035   ----------------------------------------
	BYTE		N08     Gn4 
	BYTE	W16
	BYTE		N04     Gs4 
	BYTE	W08
	BYTE		N07     Gn4 
	BYTE	W16
	BYTE		N04     Fn4 
	BYTE	W08
	BYTE		N16     Gn4 
	BYTE	W24
	BYTE		N17     Dn4 
	BYTE	W24
// 036   ----------------------------------------
	BYTE	W24
	BYTE		N23     Ds3   v108
	BYTE		N21     Gn3 
	BYTE		N22     Cn4 
	BYTE	W48
	BYTE		N20     Dn3 
	BYTE		N20     Fn3 
	BYTE		N20     As3 
	BYTE	W24
// 037   ----------------------------------------
	BYTE	W24
	BYTE		N21     Cn3 
	BYTE		N21     Ds3 
	BYTE		N20     Gs3 
	BYTE	W48
	BYTE		N22     Bn2 
	BYTE		N23     Dn3 
	BYTE		N21     Gn3 
	BYTE	W24
// 038   ----------------------------------------
	BYTE	W24
	BYTE		N22     Ds3 
	BYTE		N22     Gn3 
	BYTE		N22     Cn4 
	BYTE	W48
	BYTE		N21     Bn2 
	BYTE		N21     Dn3 
	BYTE		N20     Gn3 
	BYTE	W24
// 039   ----------------------------------------
	BYTE	W24
	BYTE		N22     As2 
	BYTE		N23     Ds3 
	BYTE		N22     Gn3 
	BYTE	W48
	BYTE		N21     Cn3 
	BYTE		N21     Fn3 
	BYTE		N21     An3 
	BYTE	W24
// 040   ----------------------------------------
	BYTE	W24
	BYTE		N22     Ds3 
	BYTE		N22     Gn3 
	BYTE		N21     Cn4 
	BYTE	W48
	BYTE		N23     Dn3 
	BYTE		N23     Fn3 
	BYTE		N22     As3 
	BYTE	W24
// 041   ----------------------------------------
	BYTE	W24
	BYTE		N24     Cn3 
	BYTE		N24     Ds3 
	BYTE		N24     Gs3 
	BYTE	W48
	BYTE		        Bn2 
	BYTE		N24     Dn3 
	BYTE		N24     Gn3 
	BYTE	W24
// 042   ----------------------------------------
	BYTE	W24
	BYTE		        Ds3 
	BYTE		N24     Gn3 
	BYTE		N24     Cn4 
	BYTE	W48
	BYTE		        Fn3 
	BYTE		N24     Gs3 
	BYTE		N24     Cs4 
	BYTE	W24
// 043   ----------------------------------------
	BYTE	W24
	BYTE		        Dn3 
	BYTE		N24     Gn3 
	BYTE		N24     Cn4 
	BYTE	W48
	BYTE		N22     Dn3 
	BYTE		N22     Gn3 
	BYTE		N22     Bn3 
	BYTE	W24
// 044   ----------------------------------------
	BYTE		N07     Gn4   v127
	BYTE	W16
	BYTE		N04     Gs4 
	BYTE	W08
	BYTE		N07     Gn4 
	BYTE	W16
	BYTE		N04     Fn4 
	BYTE	W08
	BYTE		N16     Gn4 
	BYTE	W24
	BYTE		N17     Dn4 
	BYTE	W24
// 045   ----------------------------------------
	BYTE		N12     Cn5 
	BYTE	W96
// 046   ----------------------------------------
	BYTE	W96
// 047   ----------------------------------------
	BYTE	W96
// 048   ----------------------------------------
	BYTE	W96
// 049   ----------------------------------------
BanjoKazooieGruntildaBattleSme_4_049:
	BYTE		N60     Cn4   v127
	BYTE	W72
	BYTE		N13     Gn3 
	BYTE	W24
	BYTE	PEND
// 050   ----------------------------------------
	BYTE		N60     Gs3 
	BYTE	W72
	BYTE		N14     Gn3 
	BYTE	W24
// 051   ----------------------------------------
	BYTE	PATT
	 POIN2	BanjoKazooieGruntildaBattleSme_4_049
// 052   ----------------------------------------
	BYTE		N40     Fs3   v127
	BYTE	W48
	BYTE		N36     Cs4 
	BYTE	W48
// 053   ----------------------------------------
	BYTE		N56     Cn4   v108
	BYTE		N60     Cn5 
	BYTE	W72
	BYTE		N13     Gn3 
	BYTE		N14     Gn4 
	BYTE	W24
// 054   ----------------------------------------
	BYTE		N60     Gs3 
	BYTE		N60     Gs4 
	BYTE	W72
	BYTE		N14     Gn3 
	BYTE		N15     Gn4 
	BYTE	W24
// 055   ----------------------------------------
	BYTE		N36     Cn4 
	BYTE		N36     Cn5 
	BYTE	W48
	BYTE		        Gn3 
	BYTE		N36     Gn4 
	BYTE	W48
// 056   ----------------------------------------
	BYTE		        Bn3 
	BYTE		N36     Bn4 
	BYTE	W48
	BYTE		        Dn4 
	BYTE		N36     Dn5 
	BYTE	W48
// 057   ----------------------------------------
	BYTE		N80     Cn4 
	BYTE		N80     Cn5 
	BYTE	W96
// 058   ----------------------------------------
	BYTE		N12     Ds4   v127
	BYTE		N12     Gn4 
	BYTE		N12     Cn5 
	BYTE	W96
// 059   ----------------------------------------
	BYTE	W96
// 060   ----------------------------------------
	BYTE		N56     Ds4   v108
	BYTE		N60     Ds5 
	BYTE	W72
	BYTE		N13     As3 
	BYTE		N14     As4 
	BYTE	W24
// 061   ----------------------------------------
	BYTE		N60     Bn3 
	BYTE		N60     Bn4 
	BYTE	W72
	BYTE		N14     As3 
	BYTE		N15     As4 
	BYTE	W24
// 062   ----------------------------------------
	BYTE		N14     Gs3 
	BYTE		N15     Gs4 
	BYTE	W96
// 063   ----------------------------------------
	BYTE	W96
// 064   ----------------------------------------
	BYTE		N56     Gs3 
	BYTE		N60     Gs4 
	BYTE	W72
	BYTE		N13     Ds3 
	BYTE		N14     Ds4 
	BYTE	W24
// 065   ----------------------------------------
	BYTE		N60     En3 
	BYTE		N60     En4 
	BYTE	W72
	BYTE		N14     Ds3 
	BYTE		N15     Ds4 
	BYTE	W24
// 066   ----------------------------------------
	BYTE		N14     Cn3 
	BYTE		N15     Cn4 
	BYTE	W96
// 067   ----------------------------------------
	BYTE	W96
// 068   ----------------------------------------
	BYTE	W96
// 069   ----------------------------------------
	BYTE	W96
// 070   ----------------------------------------
	BYTE	W24
	BYTE		N04     Fn3   v127
	BYTE		N04     Fn4 
	BYTE	W08
	BYTE		N03     Fn3 
	BYTE		N03     Fn4 
	BYTE	W08
	BYTE		N04     Fn3 
	BYTE		N04     Fn4 
	BYTE	W08
	BYTE		N56     Fn3 
	BYTE		N56     Fn4 
	BYTE	W48
// 071   ----------------------------------------
	BYTE	W24
	BYTE		N04     Fn3 
	BYTE		N04     Fn4 
	BYTE	W08
	BYTE		        Fn3 
	BYTE		N04     Fn4 
	BYTE	W08
	BYTE		N05     Fn3 
	BYTE		N05     Fn4 
	BYTE	W08
	BYTE		N60     Fn3 
	BYTE		N60     Fn4 
	BYTE	W48
// 072   ----------------------------------------
	BYTE	W24
	BYTE		N04     Fn3 
	BYTE		N04     Fn4 
	BYTE	W08
	BYTE		        Fn3 
	BYTE		N04     Fn4 
	BYTE	W08
	BYTE		        Fn3   v124
	BYTE		N04     Fn4 
	BYTE	W08
	BYTE		N60     Fn3   v127
	BYTE		N60     Fn4 
	BYTE	W48
// 073   ----------------------------------------
	BYTE	W24
	BYTE		N04     Fn3 
	BYTE		N04     Fn4 
	BYTE	W08
	BYTE		        Fn3 
	BYTE		N04     Fn4 
	BYTE	W08
	BYTE		N05     Fn3 
	BYTE		N05     Fn4 
	BYTE	W08
	BYTE		N44     Fn3   v120
	BYTE		N44     Fn4 
	BYTE	W48
// 074   ----------------------------------------
	BYTE		N48     An3   v127
	BYTE		N52     Cs4 
	BYTE		N52     En4 
	BYTE	W92
	BYTE	W02
	BYTE		N56     Cn4 
	BYTE		N56     Fn4 
	BYTE	W02
// 075   ----------------------------------------
	BYTE		        An3 
	BYTE	W92
	BYTE	W03
	BYTE		N56   
	BYTE		N60     Cs4 
	BYTE		N60     En4 
	BYTE	W01
// 076   ----------------------------------------
	BYTE	W96
// 077   ----------------------------------------
	BYTE		N56     An3 
	BYTE		N56     Cn4 
	BYTE		N56     Fn4 
	BYTE	W96
// 078   ----------------------------------------
	BYTE		N52     Fs3 
	BYTE		N48     Bn3 
	BYTE		N54     Ds4 
	BYTE	W96
// 079   ----------------------------------------
	BYTE		N52     Gn3 
	BYTE		N54     Bn3 
	BYTE		N54     Dn4 
	BYTE	W96
// 080   ----------------------------------------
	BYTE		N52     Fs3 
	BYTE		N54     Bn3 
	BYTE		N54     Ds4 
	BYTE	W96
// 081   ----------------------------------------
	BYTE		N52     Gn3 
	BYTE		N52     Bn3 
	BYTE		N52     Dn4 
	BYTE	W96
// 082   ----------------------------------------
BanjoKazooieGruntildaBattleSme_4_082:
	BYTE		N21     Gn3   v127
	BYTE		N21     Bn3 
	BYTE		N22     En4 
	BYTE	W96
	BYTE	PEND
// 083   ----------------------------------------
BanjoKazooieGruntildaBattleSme_4_083:
	BYTE		N19     Gn3   v127
	BYTE		N20     Bn3 
	BYTE		N20     En4 
	BYTE	W96
	BYTE	PEND
// 084   ----------------------------------------
BanjoKazooieGruntildaBattleSme_4_084:
	BYTE		N20     Gn3   v127
	BYTE		N21     Bn3 
	BYTE		N21     En4 
	BYTE	W96
	BYTE	PEND
// 085   ----------------------------------------
BanjoKazooieGruntildaBattleSme_4_085:
	BYTE		N19     As3   v116
	BYTE		N21     Dn4   v127
	BYTE		N21     Fn4   v112
	BYTE	W96
	BYTE	PEND
// 086   ----------------------------------------
	BYTE	PATT
	 POIN2	BanjoKazooieGruntildaBattleSme_4_082
// 087   ----------------------------------------
	BYTE	PATT
	 POIN2	BanjoKazooieGruntildaBattleSme_4_083
// 088   ----------------------------------------
	BYTE	PATT
	 POIN2	BanjoKazooieGruntildaBattleSme_4_084
// 089   ----------------------------------------
	BYTE	PATT
	 POIN2	BanjoKazooieGruntildaBattleSme_4_085
// 090   ----------------------------------------
	BYTE	W96
// 091   ----------------------------------------
	BYTE	W96
// 092   ----------------------------------------
	BYTE	W96
// 093   ----------------------------------------
	BYTE	W96
// 094   ----------------------------------------
	BYTE	W96
// 095   ----------------------------------------
	BYTE	W96
// 096   ----------------------------------------
	BYTE		N19     Cn4   v116
	BYTE		N19     Ds4 
	BYTE		N19     Gn4 
	BYTE	W96
// 097   ----------------------------------------
	BYTE	W96
// 098   ----------------------------------------
	BYTE	W96
// 099   ----------------------------------------
	BYTE	W96
// 100   ----------------------------------------
	BYTE	W96
// 101   ----------------------------------------
	BYTE	W96
// 102   ----------------------------------------
	BYTE	W96
// 103   ----------------------------------------
	BYTE	W96
// 104   ----------------------------------------
	BYTE	W96
// 105   ----------------------------------------
	BYTE	W96
// 106   ----------------------------------------
	BYTE	W96
// 107   ----------------------------------------
	BYTE	W96
// 108   ----------------------------------------
	BYTE		N14     Cn4   v120
	BYTE	W24
	BYTE		        Dn4   v127
	BYTE	W24
	BYTE		N13     Ds4   v116
	BYTE	W24
	BYTE		N15     Fs4   v127
	BYTE	W24
// 109   ----------------------------------------
	BYTE		N16     An3   v120
	BYTE	W24
	BYTE		N14     Bn3 
	BYTE	W24
	BYTE		N15     Cn4   v124
	BYTE	W24
	BYTE		N16     Ds4   v127
	BYTE	W24
// 110   ----------------------------------------
	BYTE		N15     Cn4   v124
	BYTE	W24
	BYTE		        Dn4   v127
	BYTE	W24
	BYTE		        Ds4   v124
	BYTE	W24
	BYTE		N13     Fs4   v127
	BYTE	W24
// 111   ----------------------------------------
	BYTE		N14     An3 
	BYTE	W24
	BYTE		N15     Bn3   v112
	BYTE	W24
	BYTE		N14     Cn4   v127
	BYTE	W24
	BYTE		N15     Ds4 
	BYTE	W24
// 112   ----------------------------------------
	BYTE	W96
// 113   ----------------------------------------
	BYTE	W96
// 114   ----------------------------------------
	BYTE	W96
// 115   ----------------------------------------
	BYTE	W96
// 116   ----------------------------------------
BanjoKazooieGruntildaBattleSme_4_116:
	BYTE	W48
	BYTE		N48     Ds4   v120
	BYTE		N48     Gn4 
	BYTE	W48
	BYTE	PEND
// 117   ----------------------------------------
	BYTE	W48
	BYTE		        Ds4 
	BYTE		N48     Gs4 
	BYTE	W48
// 118   ----------------------------------------
	BYTE	PATT
	 POIN2	BanjoKazooieGruntildaBattleSme_4_116
// 119   ----------------------------------------
	BYTE	W48
	BYTE		N42     Ds4   v120
	BYTE		N42     Gs4 
	BYTE	W48
// 120   ----------------------------------------
	BYTE		N08     Dn5 
	BYTE	W96
// 121   ----------------------------------------
	BYTE	W96
// 122   ----------------------------------------
	BYTE	W96
// 123   ----------------------------------------
	BYTE	W96
// 124   ----------------------------------------
	BYTE	W96
// 125   ----------------------------------------
	BYTE	W96
// 126   ----------------------------------------
	BYTE	W96
// 127   ----------------------------------------
	BYTE	W96
// 128   ----------------------------------------
	BYTE	W96
// 129   ----------------------------------------
	BYTE	W96
// 130   ----------------------------------------
	BYTE	W96
// 131   ----------------------------------------
	BYTE	W96
// 132   ----------------------------------------
	BYTE	W96
// 133   ----------------------------------------
	BYTE	W96
// 134   ----------------------------------------
	BYTE	W96
// 135   ----------------------------------------
	BYTE		N13     Cn3   v127
	BYTE	W16
	BYTE		N04     Ds3 
	BYTE	W08
	BYTE		        Dn3 
	BYTE	W08
	BYTE		        Ds3 
	BYTE	W08
	BYTE		        Dn3 
	BYTE	W08
	BYTE		N44     Cn3 
	BYTE		N12     Cn4 
	BYTE	W16
	BYTE		N04     Ds4 
	BYTE	W08
	BYTE		        Dn4 
	BYTE	W08
	BYTE		        Ds4 
	BYTE	W08
	BYTE		        Dn4 
	BYTE	W08
	BYTE	GoTo
	 POIN2	BanjoKazooieGruntildaBattleSme_4_B1
BanjoKazooieGruntildaBattleSme_4_B2:
// 136   ----------------------------------------
	BYTE	FINE

//**************** Track 5 (Midi-Chn.5) ****************//

BanjoKazooieGruntildaBattleSme_5:
	BYTE	KEYSH   BanjoKazooieGruntildaBattleSme_key+0
// 000   ----------------------------------------
	BYTE		VOICE   57
	BYTE		VOL     101*BanjoKazooieGruntildaBattleSme_mvl/mxv
	BYTE		PAN     c_v+21
	BYTE	W48
	BYTE		N15     Cn2   v127
	BYTE	W16
	BYTE		N04     Ds2 
	BYTE	W08
	BYTE		        Dn2 
	BYTE	W08
	BYTE		        Ds2 
	BYTE	W08
	BYTE		        Dn2 
	BYTE	W08
// 001   ----------------------------------------
	BYTE		N96     Cn2 
	BYTE	W96
BanjoKazooieGruntildaBattleSme_5_B1:
// 002   ----------------------------------------
	BYTE	W96
// 003   ----------------------------------------
	BYTE	W96
// 004   ----------------------------------------
	BYTE	W96
// 005   ----------------------------------------
	BYTE	W96
// 006   ----------------------------------------
	BYTE	W96
// 007   ----------------------------------------
	BYTE	W96
// 008   ----------------------------------------
	BYTE	W96
// 009   ----------------------------------------
	BYTE	W96
// 010   ----------------------------------------
	BYTE	W96
// 011   ----------------------------------------
	BYTE	W96
// 012   ----------------------------------------
	BYTE	W96
// 013   ----------------------------------------
	BYTE	W96
// 014   ----------------------------------------
	BYTE	W96
// 015   ----------------------------------------
	BYTE	W96
// 016   ----------------------------------------
	BYTE	W96
// 017   ----------------------------------------
	BYTE	W96
// 018   ----------------------------------------
	BYTE	W96
// 019   ----------------------------------------
	BYTE	W96
// 020   ----------------------------------------
	BYTE	W96
// 021   ----------------------------------------
	BYTE	W96
// 022   ----------------------------------------
	BYTE	W96
// 023   ----------------------------------------
	BYTE	W96
// 024   ----------------------------------------
	BYTE	W96
// 025   ----------------------------------------
	BYTE	W96
// 026   ----------------------------------------
	BYTE	W96
// 027   ----------------------------------------
	BYTE	W96
// 028   ----------------------------------------
BanjoKazooieGruntildaBattleSme_5_028:
	BYTE		N19     Cn2   v127
	BYTE	W24
	BYTE		N10     Gn1 
	BYTE	W16
	BYTE		N05     Cn2 
	BYTE	W08
	BYTE		N16     As1 
	BYTE	W24
	BYTE		N09     Fn1 
	BYTE	W16
	BYTE		N05     As1 
	BYTE	W08
	BYTE	PEND
// 029   ----------------------------------------
BanjoKazooieGruntildaBattleSme_5_029:
	BYTE		N18     Gs1   v127
	BYTE	W24
	BYTE		N10     Ds1 
	BYTE	W16
	BYTE		N05     Gs1 
	BYTE	W08
	BYTE		N16     Gn1 
	BYTE	W24
	BYTE		N04   
	BYTE	W08
	BYTE		        An1 
	BYTE	W08
	BYTE		        Bn1 
	BYTE	W08
	BYTE	PEND
// 030   ----------------------------------------
	BYTE		N15     Cn2 
	BYTE	W24
	BYTE		N09     Gn1 
	BYTE	W16
	BYTE		N05     Cn2 
	BYTE	W08
	BYTE		N16     Dn2 
	BYTE	W24
	BYTE		N18     Gn1 
	BYTE	W24
// 031   ----------------------------------------
	BYTE		N07     Ds2 
	BYTE	W16
	BYTE		N05     Dn2 
	BYTE	W08
	BYTE		N07     Ds2 
	BYTE	W16
	BYTE		N05     Gn2 
	BYTE	W08
	BYTE		N36     Fn2 
	BYTE	W48
// 032   ----------------------------------------
	BYTE	PATT
	 POIN2	BanjoKazooieGruntildaBattleSme_5_028
// 033   ----------------------------------------
	BYTE	PATT
	 POIN2	BanjoKazooieGruntildaBattleSme_5_029
// 034   ----------------------------------------
	BYTE		N17     Cn2   v127
	BYTE	W24
	BYTE		N09     Gn1 
	BYTE	W16
	BYTE		N04     Cn2 
	BYTE	W08
	BYTE		N16     Cs2 
	BYTE	W24
	BYTE		N17     Fn2 
	BYTE	W24
// 035   ----------------------------------------
	BYTE		N10     Gn2 
	BYTE	W16
	BYTE		N04     Gs2 
	BYTE	W08
	BYTE		N09     Gn2 
	BYTE	W16
	BYTE		N04     Fn2 
	BYTE	W08
	BYTE		N16     Gn2 
	BYTE	W24
	BYTE		N17     Dn2 
	BYTE	W24
// 036   ----------------------------------------
BanjoKazooieGruntildaBattleSme_5_036:
	BYTE		N32     Cn2   v127
	BYTE	W48
	BYTE		        As1 
	BYTE	W48
	BYTE	PEND
// 037   ----------------------------------------
BanjoKazooieGruntildaBattleSme_5_037:
	BYTE		N36     Gs1   v127
	BYTE	W48
	BYTE		        Gn1 
	BYTE	W48
	BYTE	PEND
// 038   ----------------------------------------
	BYTE		        Cn2   v108
	BYTE	W48
	BYTE		        Gn1   v127
	BYTE	W48
// 039   ----------------------------------------
	BYTE		        Ds2 
	BYTE	W48
	BYTE		N40     Fn2 
	BYTE	W48
// 040   ----------------------------------------
	BYTE	PATT
	 POIN2	BanjoKazooieGruntildaBattleSme_5_036
// 041   ----------------------------------------
	BYTE	PATT
	 POIN2	BanjoKazooieGruntildaBattleSme_5_037
// 042   ----------------------------------------
	BYTE		N36     Cn2   v108
	BYTE	W48
	BYTE		        Cs2   v127
	BYTE	W48
// 043   ----------------------------------------
	BYTE		        Gn1 
	BYTE	W48
	BYTE		N40   
	BYTE	W48
// 044   ----------------------------------------
	BYTE	W24
	BYTE		N24     Dn2   v116
	BYTE		N24     Gn2 
	BYTE		N24     Cn3 
	BYTE	W48
	BYTE		N22     Dn2 
	BYTE		N22     Gn2 
	BYTE		N22     Bn2 
	BYTE	W24
// 045   ----------------------------------------
BanjoKazooieGruntildaBattleSme_5_045:
	BYTE		N60     Cn1   v127
	BYTE		N60     Cn2 
	BYTE	W72
	BYTE		N13     Gn0 
	BYTE		N14     Gn1 
	BYTE	W24
	BYTE	PEND
// 046   ----------------------------------------
BanjoKazooieGruntildaBattleSme_5_046:
	BYTE		N60     Gs0   v127
	BYTE		N60     Gs1 
	BYTE	W72
	BYTE		N14     Gn0 
	BYTE		N15     Gn1 
	BYTE	W24
	BYTE	PEND
// 047   ----------------------------------------
BanjoKazooieGruntildaBattleSme_5_047:
	BYTE		N60     Cn1   v127
	BYTE		N60     Cn2 
	BYTE	W72
	BYTE		N13     Gn0 
	BYTE		N16     Gn1 
	BYTE	W24
	BYTE	PEND
// 048   ----------------------------------------
BanjoKazooieGruntildaBattleSme_5_048:
	BYTE		N40     Fs0   v127
	BYTE		N36     Fs1 
	BYTE	W48
	BYTE		        Cs1 
	BYTE		N40     Cs2 
	BYTE	W48
	BYTE	PEND
// 049   ----------------------------------------
	BYTE	PATT
	 POIN2	BanjoKazooieGruntildaBattleSme_5_045
// 050   ----------------------------------------
	BYTE	PATT
	 POIN2	BanjoKazooieGruntildaBattleSme_5_046
// 051   ----------------------------------------
	BYTE	PATT
	 POIN2	BanjoKazooieGruntildaBattleSme_5_047
// 052   ----------------------------------------
	BYTE	PATT
	 POIN2	BanjoKazooieGruntildaBattleSme_5_048
// 053   ----------------------------------------
	BYTE		N56     Cn1   v127
	BYTE		N60     Cn2 
	BYTE	W72
	BYTE		N13     Gn0 
	BYTE		N14     Gn1 
	BYTE	W24
// 054   ----------------------------------------
	BYTE	PATT
	 POIN2	BanjoKazooieGruntildaBattleSme_5_046
// 055   ----------------------------------------
	BYTE		N36     Cn1   v127
	BYTE		N36     Cn2 
	BYTE	W48
	BYTE		        Gn0 
	BYTE		N36     Gn1 
	BYTE	W48
// 056   ----------------------------------------
	BYTE		        Bn0 
	BYTE		N36     Bn1 
	BYTE	W48
	BYTE		        Dn1 
	BYTE		N36     Dn2 
	BYTE	W48
// 057   ----------------------------------------
	BYTE		N80     Cn1 
	BYTE		N80     Cn2 
	BYTE	W96
// 058   ----------------------------------------
	BYTE	W12
	BYTE		N10     Cn2   v092
	BYTE		N10     Ds2 
	BYTE		N10     Gn2 
	BYTE	W24
	BYTE		        Cn2 
	BYTE		N10     Ds2 
	BYTE		N10     Gn2 
	BYTE	W24
	BYTE		        Cn2 
	BYTE		N10     Ds2 
	BYTE		N10     Gn2 
	BYTE	W24
	BYTE		        Cn2 
	BYTE		N10     Ds2 
	BYTE		N10     Gn2 
	BYTE	W12
// 059   ----------------------------------------
	BYTE	W12
	BYTE		        Cn2 
	BYTE		N10     Ds2 
	BYTE		N10     Fs2 
	BYTE		N10     Gs2 
	BYTE	W24
	BYTE		        Cn2 
	BYTE		N10     Ds2 
	BYTE		N10     Fs2 
	BYTE		N10     Gs2 
	BYTE	W24
	BYTE		        Cn2 
	BYTE		N10     Ds2 
	BYTE		N10     Fs2 
	BYTE		N10     Gs2 
	BYTE	W24
	BYTE		        Cn2 
	BYTE		N10     Ds2 
	BYTE		N10     Fs2 
	BYTE		N10     Gs2 
	BYTE	W12
// 060   ----------------------------------------
	BYTE		N56     Ds1   v127
	BYTE		N60     Ds2 
	BYTE	W72
	BYTE		N13     As0 
	BYTE		N14     As1 
	BYTE	W24
// 061   ----------------------------------------
	BYTE		N60     Bn0 
	BYTE		N60     Bn1 
	BYTE	W72
	BYTE		N14     As0 
	BYTE		N15     As1 
	BYTE	W24
// 062   ----------------------------------------
	BYTE	W12
	BYTE		N10     Fn2   v092
	BYTE		N10     Gs2 
	BYTE		N10     Cn3 
	BYTE	W24
	BYTE		        Fn2 
	BYTE		N10     Gs2 
	BYTE		N10     Cn3 
	BYTE	W24
	BYTE		        Fn2 
	BYTE		N10     Gs2 
	BYTE		N10     Cn3 
	BYTE	W24
	BYTE		        Fn2 
	BYTE		N10     Gs2 
	BYTE		N10     Cn3 
	BYTE	W12
// 063   ----------------------------------------
	BYTE	W12
	BYTE		        Fn2 
	BYTE		N10     Gs2 
	BYTE		N10     Bn2 
	BYTE		N10     Cs3 
	BYTE	W24
	BYTE		        Fn2 
	BYTE		N10     Gs2 
	BYTE		N10     Bn2 
	BYTE		N10     Cs3 
	BYTE	W24
	BYTE		        Fn2 
	BYTE		N10     Gs2 
	BYTE		N10     Bn2 
	BYTE		N10     Cs3 
	BYTE	W24
	BYTE		        Fn2 
	BYTE		N10     Gs2 
	BYTE		N10     Bn2 
	BYTE		N10     Cs3 
	BYTE	W12
// 064   ----------------------------------------
	BYTE		N56     Gs1   v127
	BYTE	W72
	BYTE		N13     Ds1 
	BYTE	W24
// 065   ----------------------------------------
	BYTE		N60     En1 
	BYTE	W72
	BYTE		N14     Ds1 
	BYTE	W24
// 066   ----------------------------------------
	BYTE		        Cn1 
	BYTE	W96
// 067   ----------------------------------------
	BYTE	W96
// 068   ----------------------------------------
	BYTE	W96
// 069   ----------------------------------------
	BYTE	W96
// 070   ----------------------------------------
	BYTE		N90     Fn1 
	BYTE		N90     Fn2 
	BYTE	W96
// 071   ----------------------------------------
	BYTE		N84     Ds1 
	BYTE		N84     Ds2 
	BYTE	W96
// 072   ----------------------------------------
	BYTE		N88     Cs1 
	BYTE		N84     Cs2 
	BYTE	W96
// 073   ----------------------------------------
	BYTE		N90     Bn0   v124
	BYTE		N88     Bn1   v127
	BYTE	W96
// 074   ----------------------------------------
	BYTE	W48
	BYTE		N48     An1 
	BYTE		N48     An2 
	BYTE	W48
// 075   ----------------------------------------
	BYTE	W48
	BYTE		N52     Fn1 
	BYTE		N48     Fn2 
	BYTE	W48
// 076   ----------------------------------------
	BYTE	W48
	BYTE		N44     An1 
	BYTE		N48     An2 
	BYTE	W48
// 077   ----------------------------------------
	BYTE	W48
	BYTE		N42     Fn1 
	BYTE		N40     Fn2 
	BYTE	W48
// 078   ----------------------------------------
	BYTE	W48
	BYTE		N48     Bn1 
	BYTE		N52     Bn2 
	BYTE	W48
// 079   ----------------------------------------
	BYTE	W48
	BYTE		N56     Gn1 
	BYTE		N56     Gn2 
	BYTE	W48
// 080   ----------------------------------------
	BYTE	W48
	BYTE		N52     Bn1 
	BYTE		N54     Bn2 
	BYTE	W48
// 081   ----------------------------------------
	BYTE	W48
	BYTE		N48     Gn1 
	BYTE		N48     Gn2 
	BYTE	W48
// 082   ----------------------------------------
	BYTE		N22     En1 
	BYTE	W96
// 083   ----------------------------------------
	BYTE		N20   
	BYTE	W96
// 084   ----------------------------------------
	BYTE		N21   
	BYTE	W96
// 085   ----------------------------------------
	BYTE		N19     As1   v116
	BYTE	W96
// 086   ----------------------------------------
	BYTE		N22     En1   v127
	BYTE	W96
// 087   ----------------------------------------
	BYTE		N20   
	BYTE	W96
// 088   ----------------------------------------
	BYTE		N21   
	BYTE	W96
// 089   ----------------------------------------
	BYTE		N19     As1   v116
	BYTE	W96
// 090   ----------------------------------------
	BYTE		TIE     Fn2   v127
	BYTE		TIE     Gs2 
	BYTE		TIE     Bn2 
	BYTE	W96
// 091   ----------------------------------------
	BYTE	W42
	BYTE		EOT     Fn2 
	BYTE		        Gs2 
	BYTE	W02
	BYTE		        Bn2 
	BYTE	W04
	BYTE		N08     Fn2 
	BYTE		N08     Gs2 
	BYTE		N08     Bn2 
	BYTE	W16
	BYTE		        Fn2 
	BYTE		N08     Gs2 
	BYTE		N08     Bn2 
	BYTE	W16
	BYTE		        Fn2 
	BYTE		N08     Gs2 
	BYTE		N08     Bn2 
	BYTE	W16
// 092   ----------------------------------------
	BYTE		TIE     Gs2 
	BYTE		TIE     Bn2 
	BYTE		TIE     Dn3 
	BYTE	W96
// 093   ----------------------------------------
	BYTE	W32
	BYTE	W02
	BYTE		EOT     Gs2 
	BYTE	W03
	BYTE		        Bn2 
	BYTE	W02
	BYTE		        Dn3 
	BYTE	W09
	BYTE		N08     Gs2 
	BYTE		N08     Bn2 
	BYTE		N08     Dn3 
	BYTE	W16
	BYTE		        Gs2 
	BYTE		N08     Bn2 
	BYTE		N08     Dn3 
	BYTE	W16
	BYTE		        Gs2 
	BYTE		N08     Bn2 
	BYTE		N08     Dn3 
	BYTE	W16
// 094   ----------------------------------------
	BYTE		N88     Bn2 
	BYTE		N90     Dn3 
	BYTE		N90     Fn3 
	BYTE	W96
// 095   ----------------------------------------
	BYTE		N08     Bn2 
	BYTE		N08     Dn3 
	BYTE		N08     Fn3 
	BYTE	W16
	BYTE		        Bn2 
	BYTE		N08     Dn3 
	BYTE		N08     Fn3 
	BYTE	W16
	BYTE		        Bn2 
	BYTE		N08     Dn3 
	BYTE		N08     Fn3 
	BYTE	W16
	BYTE		        Bn2 
	BYTE		N08     Dn3 
	BYTE		N08     Fn3 
	BYTE	W16
	BYTE		        Bn2 
	BYTE		N08     Dn3 
	BYTE		N08     Fn3 
	BYTE	W16
	BYTE		        Bn2 
	BYTE		N08     Dn3 
	BYTE		N08     Fn3 
	BYTE	W16
// 096   ----------------------------------------
	BYTE		N19     Cn2   v116
	BYTE	W96
// 097   ----------------------------------------
	BYTE	W96
// 098   ----------------------------------------
	BYTE	W96
// 099   ----------------------------------------
	BYTE	W96
// 100   ----------------------------------------
	BYTE	W96
// 101   ----------------------------------------
	BYTE	W96
// 102   ----------------------------------------
	BYTE	W96
// 103   ----------------------------------------
	BYTE	W96
// 104   ----------------------------------------
	BYTE		N16     Cn2   v127
	BYTE	W24
	BYTE		N17     Dn2 
	BYTE	W24
	BYTE		N16     Ds2 
	BYTE	W24
	BYTE		N17     Fs2 
	BYTE	W24
// 105   ----------------------------------------
	BYTE		N16     An1 
	BYTE	W24
	BYTE		        Bn1 
	BYTE	W24
	BYTE		        Cn2 
	BYTE	W24
	BYTE		        Ds2 
	BYTE	W24
// 106   ----------------------------------------
BanjoKazooieGruntildaBattleSme_5_106:
	BYTE		N17     Cn2   v120
	BYTE	W24
	BYTE		        Dn2   v127
	BYTE	W24
	BYTE		N16     Ds2 
	BYTE	W24
	BYTE		        Fs2 
	BYTE	W24
	BYTE	PEND
// 107   ----------------------------------------
BanjoKazooieGruntildaBattleSme_5_107:
	BYTE		N17     An1   v127
	BYTE	W24
	BYTE		N16     Bn1 
	BYTE	W24
	BYTE		N15     Cn2 
	BYTE	W24
	BYTE		N18     Ds2 
	BYTE	W24
	BYTE	PEND
// 108   ----------------------------------------
	BYTE	PATT
	 POIN2	BanjoKazooieGruntildaBattleSme_5_106
// 109   ----------------------------------------
	BYTE	PATT
	 POIN2	BanjoKazooieGruntildaBattleSme_5_107
// 110   ----------------------------------------
	BYTE	PATT
	 POIN2	BanjoKazooieGruntildaBattleSme_5_106
// 111   ----------------------------------------
	BYTE	PATT
	 POIN2	BanjoKazooieGruntildaBattleSme_5_107
// 112   ----------------------------------------
BanjoKazooieGruntildaBattleSme_5_112:
	BYTE	W48
	BYTE		N48     Ds2   v127
	BYTE		N48     Gn2 
	BYTE	W48
	BYTE	PEND
// 113   ----------------------------------------
BanjoKazooieGruntildaBattleSme_5_113:
	BYTE	W48
	BYTE		N48     Ds2   v127
	BYTE		N48     Gs2 
	BYTE	W48
	BYTE	PEND
// 114   ----------------------------------------
	BYTE	PATT
	 POIN2	BanjoKazooieGruntildaBattleSme_5_112
// 115   ----------------------------------------
	BYTE	PATT
	 POIN2	BanjoKazooieGruntildaBattleSme_5_113
// 116   ----------------------------------------
	BYTE	W48
	BYTE		N48     Cn2   v127
	BYTE	W48
// 117   ----------------------------------------
	BYTE	W48
	BYTE		N48   
	BYTE	W48
// 118   ----------------------------------------
	BYTE	W48
	BYTE		N48   
	BYTE	W48
// 119   ----------------------------------------
	BYTE	W48
	BYTE		N36   
	BYTE	W48
// 120   ----------------------------------------
	BYTE		N12     Dn2 
	BYTE	W96
// 121   ----------------------------------------
	BYTE	W96
// 122   ----------------------------------------
	BYTE	W96
// 123   ----------------------------------------
	BYTE	W96
// 124   ----------------------------------------
	BYTE	W96
// 125   ----------------------------------------
	BYTE	W96
// 126   ----------------------------------------
	BYTE	W96
// 127   ----------------------------------------
	BYTE	W96
// 128   ----------------------------------------
	BYTE	W96
// 129   ----------------------------------------
	BYTE	W96
// 130   ----------------------------------------
	BYTE	W96
// 131   ----------------------------------------
	BYTE	W96
// 132   ----------------------------------------
	BYTE		N08     Cs2   v112
	BYTE		N08     Ds2   v116
	BYTE	W16
	BYTE		N04     Cs2   v112
	BYTE		N04     Ds2   v120
	BYTE	W08
	BYTE		N08     Cs2   v108
	BYTE		N08     Ds2   v120
	BYTE	W16
	BYTE		N04     Cs2   v116
	BYTE		N04     Ds2   v127
	BYTE	W08
	BYTE		N08     Cn2   v108
	BYTE		N08     Ds2   v120
	BYTE	W16
	BYTE		N04     Cn2   v116
	BYTE		N04     Ds2   v127
	BYTE	W08
	BYTE		N08     Cn2   v104
	BYTE		N08     Ds2   v120
	BYTE	W16
	BYTE		N04     Cn2   v112
	BYTE		N04     Ds2   v124
	BYTE	W08
// 133   ----------------------------------------
	BYTE		N08     Cn2   v112
	BYTE		N08     Dn2   v116
	BYTE	W16
	BYTE		N04     Cn2   v112
	BYTE		N04     Dn2   v120
	BYTE	W08
	BYTE		N08     Cn2   v108
	BYTE		N08     Dn2   v120
	BYTE	W16
	BYTE		N04     Cn2   v116
	BYTE		N04     Dn2   v127
	BYTE	W08
	BYTE		N08     Bn1   v108
	BYTE		N08     Dn2   v120
	BYTE	W16
	BYTE		N04     Bn1   v116
	BYTE		N04     Dn2   v127
	BYTE	W08
	BYTE		N08     Bn1   v104
	BYTE		N08     Dn2   v120
	BYTE	W16
	BYTE		N04     Bn1   v112
	BYTE		N04     Dn2   v124
	BYTE	W08
// 134   ----------------------------------------
	BYTE		N12     Cn2   v112
	BYTE		N12     Ds2 
	BYTE	W48
	BYTE		N15     Cn2   v127
	BYTE	W16
	BYTE		N04     Ds2 
	BYTE	W08
	BYTE		        Dn2 
	BYTE	W08
	BYTE		        Ds2 
	BYTE	W08
	BYTE		        Dn2 
	BYTE	W08
// 135   ----------------------------------------
	BYTE		N96     Cn2 
	BYTE	W96
	BYTE	GoTo
	 POIN2	BanjoKazooieGruntildaBattleSme_5_B1
BanjoKazooieGruntildaBattleSme_5_B2:
// 136   ----------------------------------------
	BYTE	FINE

//**************** Track 6 (Midi-Chn.6) ****************//

BanjoKazooieGruntildaBattleSme_6:
	BYTE	KEYSH   BanjoKazooieGruntildaBattleSme_key+0
// 000   ----------------------------------------
	BYTE		VOICE   127
	BYTE		VOL     103*BanjoKazooieGruntildaBattleSme_mvl/mxv
	BYTE	W24
	BYTE	W72
// 001   ----------------------------------------
	BYTE	W96
BanjoKazooieGruntildaBattleSme_6_B1:
// 002   ----------------------------------------
	BYTE		N60     Cs2   v127
	BYTE	W96
// 003   ----------------------------------------
	BYTE	W96
// 004   ----------------------------------------
	BYTE		N60   
	BYTE	W96
// 005   ----------------------------------------
	BYTE	W96
// 006   ----------------------------------------
	BYTE		N60   
	BYTE	W96
// 007   ----------------------------------------
	BYTE	W96
// 008   ----------------------------------------
	BYTE	W96
// 009   ----------------------------------------
	BYTE	W96
// 010   ----------------------------------------
	BYTE	W96
// 011   ----------------------------------------
	BYTE	W96
// 012   ----------------------------------------
	BYTE		N60   
	BYTE	W96
// 013   ----------------------------------------
	BYTE	W96
// 014   ----------------------------------------
	BYTE	W96
// 015   ----------------------------------------
	BYTE	W96
// 016   ----------------------------------------
	BYTE		N60   
	BYTE	W96
// 017   ----------------------------------------
	BYTE	W96
// 018   ----------------------------------------
	BYTE		N60   
	BYTE	W96
// 019   ----------------------------------------
	BYTE	W96
// 020   ----------------------------------------
	BYTE		N60   
	BYTE	W96
// 021   ----------------------------------------
	BYTE	W96
// 022   ----------------------------------------
	BYTE	W96
// 023   ----------------------------------------
	BYTE	W96
// 024   ----------------------------------------
	BYTE		N60   
	BYTE	W96
// 025   ----------------------------------------
	BYTE	W96
// 026   ----------------------------------------
	BYTE	W96
// 027   ----------------------------------------
	BYTE	W96
// 028   ----------------------------------------
	BYTE		N24   
	BYTE	W24
	BYTE		N01   
	BYTE	W48
	BYTE		N48   
	BYTE	W24
// 029   ----------------------------------------
BanjoKazooieGruntildaBattleSme_6_029:
	BYTE	W24
	BYTE		N48     Cs2   v127
	BYTE	W48
	BYTE		N48   
	BYTE	W24
	BYTE	PEND
// 030   ----------------------------------------
	BYTE	PATT
	 POIN2	BanjoKazooieGruntildaBattleSme_6_029
// 031   ----------------------------------------
	BYTE	PATT
	 POIN2	BanjoKazooieGruntildaBattleSme_6_029
// 032   ----------------------------------------
	BYTE	PATT
	 POIN2	BanjoKazooieGruntildaBattleSme_6_029
// 033   ----------------------------------------
	BYTE	PATT
	 POIN2	BanjoKazooieGruntildaBattleSme_6_029
// 034   ----------------------------------------
	BYTE	PATT
	 POIN2	BanjoKazooieGruntildaBattleSme_6_029
// 035   ----------------------------------------
	BYTE	PATT
	 POIN2	BanjoKazooieGruntildaBattleSme_6_029
// 036   ----------------------------------------
	BYTE	PATT
	 POIN2	BanjoKazooieGruntildaBattleSme_6_029
// 037   ----------------------------------------
	BYTE	PATT
	 POIN2	BanjoKazooieGruntildaBattleSme_6_029
// 038   ----------------------------------------
	BYTE	PATT
	 POIN2	BanjoKazooieGruntildaBattleSme_6_029
// 039   ----------------------------------------
	BYTE	PATT
	 POIN2	BanjoKazooieGruntildaBattleSme_6_029
// 040   ----------------------------------------
	BYTE	PATT
	 POIN2	BanjoKazooieGruntildaBattleSme_6_029
// 041   ----------------------------------------
	BYTE	PATT
	 POIN2	BanjoKazooieGruntildaBattleSme_6_029
// 042   ----------------------------------------
	BYTE	PATT
	 POIN2	BanjoKazooieGruntildaBattleSme_6_029
// 043   ----------------------------------------
	BYTE	W24
	BYTE		N48     Cs2   v127
	BYTE	W48
	BYTE		N60   
	BYTE	W24
// 044   ----------------------------------------
	BYTE	W96
// 045   ----------------------------------------
	BYTE		N60   
	BYTE	W96
// 046   ----------------------------------------
	BYTE		N60   
	BYTE	W96
// 047   ----------------------------------------
	BYTE		N60   
	BYTE	W96
// 048   ----------------------------------------
BanjoKazooieGruntildaBattleSme_6_048:
	BYTE		N48     Cs2   v127
	BYTE	W48
	BYTE		N48   
	BYTE	W48
	BYTE	PEND
// 049   ----------------------------------------
	BYTE		N60   
	BYTE	W96
// 050   ----------------------------------------
	BYTE		N60   
	BYTE	W96
// 051   ----------------------------------------
	BYTE		N60   
	BYTE	W96
// 052   ----------------------------------------
	BYTE	PATT
	 POIN2	BanjoKazooieGruntildaBattleSme_6_048
// 053   ----------------------------------------
	BYTE		N60     Cs2   v127
	BYTE	W96
// 054   ----------------------------------------
	BYTE		N60   
	BYTE	W96
// 055   ----------------------------------------
	BYTE		N60   
	BYTE	W96
// 056   ----------------------------------------
	BYTE		N60   
	BYTE	W96
// 057   ----------------------------------------
	BYTE		N60   
	BYTE	W96
// 058   ----------------------------------------
	BYTE		N60   
	BYTE	W96
// 059   ----------------------------------------
	BYTE	W96
// 060   ----------------------------------------
	BYTE		N60   
	BYTE	W96
// 061   ----------------------------------------
	BYTE		N60   
	BYTE	W96
// 062   ----------------------------------------
	BYTE		N60   
	BYTE	W96
// 063   ----------------------------------------
	BYTE	W96
// 064   ----------------------------------------
	BYTE		N60   
	BYTE	W96
// 065   ----------------------------------------
	BYTE		N60   
	BYTE	W96
// 066   ----------------------------------------
	BYTE		TIE   
	BYTE	W96
// 067   ----------------------------------------
	BYTE	W40
	BYTE	W01
	BYTE		EOT   
	BYTE	W54
	BYTE	W01
// 068   ----------------------------------------
	BYTE	W96
// 069   ----------------------------------------
	BYTE	W96
// 070   ----------------------------------------
	BYTE		N96   
	BYTE	W96
// 071   ----------------------------------------
	BYTE		N96   
	BYTE	W96
// 072   ----------------------------------------
	BYTE		N96   
	BYTE	W96
// 073   ----------------------------------------
	BYTE		N96   
	BYTE	W96
// 074   ----------------------------------------
	BYTE	W48
	BYTE		N96   
	BYTE	W48
// 075   ----------------------------------------
	BYTE	W48
	BYTE		N96   
	BYTE	W48
// 076   ----------------------------------------
	BYTE	W48
	BYTE		N96   
	BYTE	W48
// 077   ----------------------------------------
	BYTE	W48
	BYTE		N48   
	BYTE	W48
// 078   ----------------------------------------
	BYTE	W48
	BYTE		N96   
	BYTE	W48
// 079   ----------------------------------------
	BYTE	W48
	BYTE		N96   
	BYTE	W48
// 080   ----------------------------------------
	BYTE	W48
	BYTE		N96   
	BYTE	W48
// 081   ----------------------------------------
	BYTE	W48
	BYTE		N48   
	BYTE	W48
// 082   ----------------------------------------
	BYTE		N01   
	BYTE	W96
// 083   ----------------------------------------
	BYTE		N60   
	BYTE	W96
// 084   ----------------------------------------
	BYTE		N60   
	BYTE	W96
// 085   ----------------------------------------
	BYTE		N60   
	BYTE	W96
// 086   ----------------------------------------
	BYTE		N60   
	BYTE	W96
// 087   ----------------------------------------
	BYTE		N60   
	BYTE	W96
// 088   ----------------------------------------
	BYTE		N60   
	BYTE	W96
// 089   ----------------------------------------
	BYTE		N60   
	BYTE	W96
// 090   ----------------------------------------
	BYTE		N60   
	BYTE	W96
// 091   ----------------------------------------
	BYTE		N60   
	BYTE	W96
// 092   ----------------------------------------
	BYTE		N60   
	BYTE	W96
// 093   ----------------------------------------
	BYTE		N60   
	BYTE	W96
// 094   ----------------------------------------
	BYTE	PATT
	 POIN2	BanjoKazooieGruntildaBattleSme_6_048
// 095   ----------------------------------------
	BYTE		N24     Cs2   v127
	BYTE	W24
	BYTE		        Cs2   v120
	BYTE	W24
	BYTE		        Cs2   v127
	BYTE	W24
	BYTE		N24   
	BYTE	W24
// 096   ----------------------------------------
	BYTE		N60   
	BYTE	W96
// 097   ----------------------------------------
	BYTE	W96
// 098   ----------------------------------------
	BYTE	W96
// 099   ----------------------------------------
	BYTE	W96
// 100   ----------------------------------------
	BYTE		N60   
	BYTE	W96
// 101   ----------------------------------------
	BYTE	W96
// 102   ----------------------------------------
	BYTE	W96
// 103   ----------------------------------------
	BYTE	W96
// 104   ----------------------------------------
	BYTE		N60   
	BYTE	W96
// 105   ----------------------------------------
	BYTE		N60   
	BYTE	W96
// 106   ----------------------------------------
	BYTE		N60   
	BYTE	W96
// 107   ----------------------------------------
	BYTE		N60   
	BYTE	W96
// 108   ----------------------------------------
	BYTE		N60   
	BYTE	W96
// 109   ----------------------------------------
	BYTE		N60   
	BYTE	W96
// 110   ----------------------------------------
	BYTE		N60   
	BYTE	W96
// 111   ----------------------------------------
	BYTE		N60   
	BYTE	W96
// 112   ----------------------------------------
	BYTE	W48
	BYTE		N68   
	BYTE	W48
// 113   ----------------------------------------
	BYTE	W48
	BYTE		N68   
	BYTE	W48
// 114   ----------------------------------------
	BYTE	W48
	BYTE		N68   
	BYTE	W48
// 115   ----------------------------------------
	BYTE	W48
	BYTE		N68   
	BYTE	W48
// 116   ----------------------------------------
	BYTE	W48
	BYTE		N68   
	BYTE	W48
// 117   ----------------------------------------
	BYTE	W48
	BYTE		N68   
	BYTE	W48
// 118   ----------------------------------------
	BYTE	W48
	BYTE		N68   
	BYTE	W48
// 119   ----------------------------------------
	BYTE	W48
	BYTE		N48   
	BYTE	W48
// 120   ----------------------------------------
	BYTE		TIE   
	BYTE	W96
// 121   ----------------------------------------
	BYTE	W40
	BYTE	W01
	BYTE		EOT   
	BYTE	W54
	BYTE	W01
// 122   ----------------------------------------
	BYTE	W96
// 123   ----------------------------------------
	BYTE	W96
// 124   ----------------------------------------
	BYTE	W96
// 125   ----------------------------------------
	BYTE	W96
// 126   ----------------------------------------
	BYTE	W96
// 127   ----------------------------------------
	BYTE	W96
// 128   ----------------------------------------
	BYTE		TIE   
	BYTE	W96
// 129   ----------------------------------------
	BYTE	W40
	BYTE	W01
	BYTE		EOT   
	BYTE	W54
	BYTE	W01
// 130   ----------------------------------------
	BYTE	W96
// 131   ----------------------------------------
	BYTE	W96
// 132   ----------------------------------------
	BYTE		N96   
	BYTE	W96
// 133   ----------------------------------------
	BYTE		N40   
	BYTE	W96
// 134   ----------------------------------------
	BYTE		N40   
	BYTE	W96
// 135   ----------------------------------------
	BYTE	W96
	BYTE	GoTo
	 POIN2	BanjoKazooieGruntildaBattleSme_6_B1
BanjoKazooieGruntildaBattleSme_6_B2:
// 136   ----------------------------------------
	BYTE	FINE

//**************** Track 7 (Midi-Chn.7) ****************//

BanjoKazooieGruntildaBattleSme_7:
	BYTE	KEYSH   BanjoKazooieGruntildaBattleSme_key+0
// 000   ----------------------------------------
	BYTE		VOICE   70
	BYTE		VOL     79*BanjoKazooieGruntildaBattleSme_mvl/mxv
	BYTE	W24
	BYTE	W06
	BYTE		PAN     c_v-14
	BYTE	W66
// 001   ----------------------------------------
	BYTE	W96
BanjoKazooieGruntildaBattleSme_7_B1:
// 002   ----------------------------------------
	BYTE	W96
// 003   ----------------------------------------
	BYTE	W96
// 004   ----------------------------------------
	BYTE	W96
// 005   ----------------------------------------
	BYTE	W96
// 006   ----------------------------------------
	BYTE	W96
// 007   ----------------------------------------
	BYTE	W96
// 008   ----------------------------------------
	BYTE	W96
// 009   ----------------------------------------
	BYTE	W96
// 010   ----------------------------------------
	BYTE	W96
// 011   ----------------------------------------
	BYTE	W96
// 012   ----------------------------------------
	BYTE	W96
// 013   ----------------------------------------
	BYTE	W96
// 014   ----------------------------------------
	BYTE	W96
// 015   ----------------------------------------
	BYTE	W96
// 016   ----------------------------------------
	BYTE		N08     Cn2   v124
	BYTE		N08     Ds2 
	BYTE	W16
	BYTE		N04     Cn2 
	BYTE		N04     Ds2 
	BYTE	W08
	BYTE		N08     Cn2   v120
	BYTE		N08     Ds2   v124
	BYTE	W16
	BYTE		N04     Cn2 
	BYTE		N04     Ds2 
	BYTE	W08
	BYTE		N08     Cn2   v120
	BYTE		N08     Ds2   v124
	BYTE	W16
	BYTE		N04     Cn2 
	BYTE		N04     Ds2 
	BYTE	W08
	BYTE		N08     Cn2   v120
	BYTE		N08     Ds2   v124
	BYTE	W16
	BYTE		N04     Cn2 
	BYTE		N04     Ds2 
	BYTE	W08
// 017   ----------------------------------------
	BYTE		N08     Cn2   v120
	BYTE		N08     Ds2   v124
	BYTE	W16
	BYTE		N04     Cn2 
	BYTE		N04     Ds2 
	BYTE	W08
	BYTE		N08     Cn2   v120
	BYTE		N08     Ds2   v124
	BYTE	W16
	BYTE		N04     Cn2 
	BYTE		N04     Ds2 
	BYTE	W08
	BYTE		N08     Cn2 
	BYTE		N08     Ds2 
	BYTE	W16
	BYTE		N04     Cn2 
	BYTE		N04     Ds2 
	BYTE	W08
	BYTE		N08     As1 
	BYTE		N08     Dn2 
	BYTE	W16
	BYTE		N04     As1 
	BYTE		N04     Dn2 
	BYTE	W08
// 018   ----------------------------------------
	BYTE		N08     Ds2 
	BYTE		N08     Gn2   v120
	BYTE	W16
	BYTE		N04     Ds2   v124
	BYTE		N04     Gn2   v116
	BYTE	W08
	BYTE		N08     Ds2   v120
	BYTE		N08     Gn2   v112
	BYTE	W16
	BYTE		N04     Ds2   v124
	BYTE		N04     Gn2   v116
	BYTE	W08
	BYTE		N08     Ds2   v120
	BYTE		N08     Gn2   v112
	BYTE	W16
	BYTE		N04     Ds2   v124
	BYTE		N04     Gn2   v120
	BYTE	W08
	BYTE		N08     Ds2   v124
	BYTE		N08     Gn2   v108
	BYTE	W16
	BYTE		N04     Ds2   v124
	BYTE		N04     Gn2   v112
	BYTE	W08
// 019   ----------------------------------------
	BYTE		N08     Ds2   v124
	BYTE		N08     Gn2   v112
	BYTE	W16
	BYTE		N04     Ds2   v124
	BYTE		N04     Gn2   v116
	BYTE	W08
	BYTE		N08     Ds2   v124
	BYTE		N08     Gn2   v116
	BYTE	W16
	BYTE		N04     Ds2   v124
	BYTE		N04     Gn2   v112
	BYTE	W08
	BYTE		N08     Ds2   v124
	BYTE		N08     Gn2   v116
	BYTE	W16
	BYTE		N04     Ds2   v124
	BYTE		N04     Gn2   v116
	BYTE	W08
	BYTE		N08     Ds2   v124
	BYTE		N08     Gn2   v112
	BYTE	W16
	BYTE		N04     Ds2   v124
	BYTE		N04     Gn2 
	BYTE	W08
// 020   ----------------------------------------
BanjoKazooieGruntildaBattleSme_7_020:
	BYTE		N08     Fn2   v124
	BYTE		N08     Gs2   v116
	BYTE	W16
	BYTE		N04     Fn2   v124
	BYTE		N04     Gs2   v112
	BYTE	W08
	BYTE		N08     Fn2   v124
	BYTE		N08     Gs2   v120
	BYTE	W16
	BYTE		N04     Fn2   v116
	BYTE		N04     Gs2 
	BYTE	W08
	BYTE		N08     Ds2   v124
	BYTE		N08     Gn2   v112
	BYTE	W16
	BYTE		N04     Ds2   v124
	BYTE		N04     Gn2   v116
	BYTE	W08
	BYTE		N08     Ds2   v120
	BYTE		N08     Gn2   v116
	BYTE	W16
	BYTE		N04     Ds2   v120
	BYTE		N04     Gn2   v112
	BYTE	W08
	BYTE	PEND
// 021   ----------------------------------------
BanjoKazooieGruntildaBattleSme_7_021:
	BYTE		N08     Cs2   v124
	BYTE		N08     Fn2   v120
	BYTE	W16
	BYTE		N04     Cs2   v124
	BYTE		N04     Fn2   v116
	BYTE	W08
	BYTE		N08     Cs2   v124
	BYTE		N08     Fn2   v116
	BYTE	W16
	BYTE		N04     Cs2   v124
	BYTE		N04     Fn2   v112
	BYTE	W08
	BYTE		N08     Bn1   v124
	BYTE		N08     Dn2 
	BYTE	W16
	BYTE		N04     Bn1   v116
	BYTE		N04     Dn2   v108
	BYTE	W08
	BYTE		N08     Bn1   v112
	BYTE		N08     Dn2   v116
	BYTE	W16
	BYTE		N04     Bn1   v104
	BYTE		N04     Dn2   v120
	BYTE	W08
	BYTE	PEND
// 022   ----------------------------------------
BanjoKazooieGruntildaBattleSme_7_022:
	BYTE		N08     Cn2   v116
	BYTE		N08     Ds2   v124
	BYTE	W16
	BYTE		N04     Cn2   v108
	BYTE		N04     Ds2   v120
	BYTE	W08
	BYTE		N08     Cn2   v108
	BYTE		N08     Ds2   v116
	BYTE	W16
	BYTE		N04     Cn2   v112
	BYTE		N04     Ds2   v124
	BYTE	W08
	BYTE		N08     Cn2   v120
	BYTE		N08     Fn2   v124
	BYTE	W16
	BYTE		N04     Cn2   v120
	BYTE		N04     Fn2   v124
	BYTE	W08
	BYTE		N08     Cn2   v116
	BYTE		N08     Fn2   v124
	BYTE	W16
	BYTE		N04     Cn2   v116
	BYTE		N04     Fn2   v120
	BYTE	W08
	BYTE	PEND
// 023   ----------------------------------------
BanjoKazooieGruntildaBattleSme_7_023:
	BYTE		N08     Cn2   v116
	BYTE		N08     Dn2   v120
	BYTE	W16
	BYTE		N04     Cn2   v116
	BYTE		N04     Dn2   v124
	BYTE	W08
	BYTE		N08     Cn2   v112
	BYTE		N08     Dn2   v124
	BYTE	W16
	BYTE		N04     Cn2   v120
	BYTE		N04     Dn2   v124
	BYTE	W08
	BYTE		N08     Bn1   v112
	BYTE		N08     Dn2   v124
	BYTE	W16
	BYTE		N04     Bn1   v120
	BYTE		N04     Dn2   v124
	BYTE	W08
	BYTE		N08     Bn1   v112
	BYTE		N08     Dn2   v124
	BYTE	W16
	BYTE		N04     Bn1   v116
	BYTE		N04     Dn2   v124
	BYTE	W08
	BYTE	PEND
// 024   ----------------------------------------
	BYTE	PATT
	 POIN2	BanjoKazooieGruntildaBattleSme_7_020
// 025   ----------------------------------------
	BYTE	PATT
	 POIN2	BanjoKazooieGruntildaBattleSme_7_021
// 026   ----------------------------------------
	BYTE	PATT
	 POIN2	BanjoKazooieGruntildaBattleSme_7_022
// 027   ----------------------------------------
	BYTE	PATT
	 POIN2	BanjoKazooieGruntildaBattleSme_7_023
// 028   ----------------------------------------
	BYTE	W96
// 029   ----------------------------------------
	BYTE	W96
// 030   ----------------------------------------
	BYTE	W96
// 031   ----------------------------------------
	BYTE	W96
// 032   ----------------------------------------
	BYTE	W96
// 033   ----------------------------------------
	BYTE	W96
// 034   ----------------------------------------
	BYTE	W96
// 035   ----------------------------------------
	BYTE	W96
// 036   ----------------------------------------
	BYTE	W96
// 037   ----------------------------------------
	BYTE	W96
// 038   ----------------------------------------
	BYTE	W96
// 039   ----------------------------------------
	BYTE	W96
// 040   ----------------------------------------
	BYTE	W96
// 041   ----------------------------------------
	BYTE	W96
// 042   ----------------------------------------
	BYTE	W96
// 043   ----------------------------------------
	BYTE	W96
// 044   ----------------------------------------
	BYTE	W96
// 045   ----------------------------------------
	BYTE	W96
// 046   ----------------------------------------
	BYTE	W96
// 047   ----------------------------------------
	BYTE	W96
// 048   ----------------------------------------
	BYTE	W96
// 049   ----------------------------------------
	BYTE	W96
// 050   ----------------------------------------
	BYTE	W96
// 051   ----------------------------------------
	BYTE	W96
// 052   ----------------------------------------
	BYTE	W96
// 053   ----------------------------------------
	BYTE	W96
// 054   ----------------------------------------
	BYTE	W96
// 055   ----------------------------------------
	BYTE	W96
// 056   ----------------------------------------
	BYTE	W96
// 057   ----------------------------------------
	BYTE	W96
// 058   ----------------------------------------
	BYTE	W96
// 059   ----------------------------------------
	BYTE	W96
// 060   ----------------------------------------
	BYTE	W96
// 061   ----------------------------------------
	BYTE	W96
// 062   ----------------------------------------
	BYTE	W96
// 063   ----------------------------------------
	BYTE	W96
// 064   ----------------------------------------
	BYTE	W96
// 065   ----------------------------------------
	BYTE	W96
// 066   ----------------------------------------
	BYTE	W96
// 067   ----------------------------------------
	BYTE	W96
// 068   ----------------------------------------
	BYTE	W96
// 069   ----------------------------------------
	BYTE	W96
// 070   ----------------------------------------
	BYTE	W96
// 071   ----------------------------------------
	BYTE	W96
// 072   ----------------------------------------
	BYTE	W96
// 073   ----------------------------------------
	BYTE	W96
// 074   ----------------------------------------
	BYTE	W96
// 075   ----------------------------------------
	BYTE	W96
// 076   ----------------------------------------
	BYTE	W96
// 077   ----------------------------------------
	BYTE	W96
// 078   ----------------------------------------
	BYTE	W96
// 079   ----------------------------------------
	BYTE	W96
// 080   ----------------------------------------
	BYTE	W96
// 081   ----------------------------------------
	BYTE	W96
// 082   ----------------------------------------
	BYTE	W96
// 083   ----------------------------------------
	BYTE	W96
// 084   ----------------------------------------
	BYTE	W96
// 085   ----------------------------------------
	BYTE	W96
// 086   ----------------------------------------
	BYTE	W96
// 087   ----------------------------------------
	BYTE	W96
// 088   ----------------------------------------
	BYTE	W96
// 089   ----------------------------------------
	BYTE	W96
// 090   ----------------------------------------
	BYTE	W96
// 091   ----------------------------------------
	BYTE	W96
// 092   ----------------------------------------
	BYTE	W96
// 093   ----------------------------------------
	BYTE	W96
// 094   ----------------------------------------
	BYTE	W96
// 095   ----------------------------------------
	BYTE	W96
// 096   ----------------------------------------
	BYTE	W96
// 097   ----------------------------------------
	BYTE	W96
// 098   ----------------------------------------
	BYTE	W96
// 099   ----------------------------------------
	BYTE	W96
// 100   ----------------------------------------
	BYTE	W96
// 101   ----------------------------------------
	BYTE	W96
// 102   ----------------------------------------
	BYTE	W96
// 103   ----------------------------------------
	BYTE	W96
// 104   ----------------------------------------
	BYTE	W96
// 105   ----------------------------------------
	BYTE	W96
// 106   ----------------------------------------
	BYTE	W96
// 107   ----------------------------------------
	BYTE	W96
// 108   ----------------------------------------
	BYTE	W96
// 109   ----------------------------------------
	BYTE	W96
// 110   ----------------------------------------
	BYTE	W96
// 111   ----------------------------------------
	BYTE	W96
// 112   ----------------------------------------
	BYTE	W96
// 113   ----------------------------------------
	BYTE	W96
// 114   ----------------------------------------
	BYTE	W96
// 115   ----------------------------------------
	BYTE	W96
// 116   ----------------------------------------
	BYTE	W96
// 117   ----------------------------------------
	BYTE	W96
// 118   ----------------------------------------
	BYTE	W96
// 119   ----------------------------------------
	BYTE	W96
// 120   ----------------------------------------
	BYTE		N06     Dn2   v100
	BYTE		N07     Fn2   v124
	BYTE	W16
	BYTE		N04     Dn2   v104
	BYTE		N04     Fn2   v108
	BYTE	W08
	BYTE		N06     Dn2   v096
	BYTE		N06     Fn2   v104
	BYTE	W16
	BYTE		N04     Dn2   v108
	BYTE		N03     Fn2 
	BYTE	W08
	BYTE		N06     Dn2   v096
	BYTE		N06     Fn2   v104
	BYTE	W16
	BYTE		N04     Dn2   v108
	BYTE		N04     Fn2   v120
	BYTE	W08
	BYTE		N05     Dn2   v096
	BYTE		N06     Fn2   v104
	BYTE	W16
	BYTE		N04     Dn2   v100
	BYTE		N03     Fn2   v104
	BYTE	W08
// 121   ----------------------------------------
	BYTE		N06     Dn2   v092
	BYTE		N06     Fn2   v100
	BYTE	W16
	BYTE		N04     Dn2 
	BYTE		N04     Fn2   v108
	BYTE	W08
	BYTE		N06     Dn2   v096
	BYTE		N06     Fn2   v100
	BYTE	W16
	BYTE		N04     Dn2   v108
	BYTE		N04     Fn2   v116
	BYTE	W08
	BYTE		N06     Dn2   v100
	BYTE		N06     Fn2   v112
	BYTE	W16
	BYTE		N03     Dn2   v108
	BYTE		N03     Fn2   v116
	BYTE	W08
	BYTE		N06     Cn2   v104
	BYTE		N05     En2   v116
	BYTE	W16
	BYTE		N06     Cn2   v112
	BYTE		N05     En2   v124
	BYTE	W08
// 122   ----------------------------------------
	BYTE		N06     Fn2   v104
	BYTE		N07     An2   v096
	BYTE	W16
	BYTE		N04     Fn2   v104
	BYTE		N04     An2   v088
	BYTE	W08
	BYTE		N05     Fn2   v096
	BYTE		N06     An2   v088
	BYTE	W16
	BYTE		N04     Fn2   v104
	BYTE		N04     An2   v092
	BYTE	W08
	BYTE		        Fn2   v096
	BYTE		N06     An2   v088
	BYTE	W16
	BYTE		N03     Fn2   v104
	BYTE		N04     An2   v096
	BYTE	W08
	BYTE		N05     Fn2   v104
	BYTE		N06     An2   v084
	BYTE	W16
	BYTE		N03     Fn2   v100
	BYTE		N04     An2   v088
	BYTE	W08
// 123   ----------------------------------------
	BYTE		N05     Fn2   v100
	BYTE		N07     An2   v088
	BYTE	W16
	BYTE		N03     Fn2   v104
	BYTE		N04     An2   v092
	BYTE	W08
	BYTE		N05     Fn2   v104
	BYTE		N06     An2   v088
	BYTE	W16
	BYTE		N03     Fn2   v100
	BYTE		N04     An2   v088
	BYTE	W08
	BYTE		N05     Fn2   v104
	BYTE		N07     An2   v092
	BYTE	W16
	BYTE		N03     Fn2   v100
	BYTE		N04     An2   v092
	BYTE	W08
	BYTE		N05     Fn2   v104
	BYTE		N06     An2   v084
	BYTE	W16
	BYTE		N05     Fn2   v116
	BYTE		N07     An2   v100
	BYTE	W08
// 124   ----------------------------------------
BanjoKazooieGruntildaBattleSme_7_124:
	BYTE		N05     Gn2   v104
	BYTE		N06     As2   v092
	BYTE	W16
	BYTE		N04     Gn2   v100
	BYTE		N04     As2   v088
	BYTE	W08
	BYTE		N05     Gn2   v104
	BYTE		N07     As2   v096
	BYTE	W16
	BYTE		N03     Gn2   v088
	BYTE		N05     As2   v092
	BYTE	W08
	BYTE		N04     Fn2   v104
	BYTE		N06     An2   v088
	BYTE	W16
	BYTE		N04     Fn2   v100
	BYTE		N05     An2   v092
	BYTE	W08
	BYTE		        Fn2   v096
	BYTE		N07     An2   v088
	BYTE	W16
	BYTE		N04     Fn2   v096
	BYTE		N05     An2   v088
	BYTE	W08
	BYTE	PEND
// 125   ----------------------------------------
BanjoKazooieGruntildaBattleSme_7_125:
	BYTE		N05     Ds2   v108
	BYTE		N08     Gn2   v096
	BYTE	W16
	BYTE		N04     Ds2   v104
	BYTE		N05     Gn2   v088
	BYTE	W08
	BYTE		N06     Ds2   v104
	BYTE		N07     Gn2   v092
	BYTE	W16
	BYTE		N05     Ds2   v104
	BYTE		N05     Gn2   v088
	BYTE	W08
	BYTE		N07     Cs2   v100
	BYTE		N08     En2   v104
	BYTE	W16
	BYTE		N05     Cs2   v088
	BYTE		N05     En2   v080
	BYTE	W08
	BYTE		N06     Cs2   v084
	BYTE		N06     En2   v092
	BYTE	W16
	BYTE		N04     Cs2   v080
	BYTE		N04     En2   v092
	BYTE	W08
	BYTE	PEND
// 126   ----------------------------------------
BanjoKazooieGruntildaBattleSme_7_126:
	BYTE		N07     Dn2   v092
	BYTE		N06     Fn2   v100
	BYTE	W16
	BYTE		N04     Dn2   v084
	BYTE		N04     Fn2   v096
	BYTE	W08
	BYTE		N06     Dn2   v084
	BYTE		N06     Fn2   v092
	BYTE	W16
	BYTE		N04     Dn2   v088
	BYTE		N05     Fn2   v100
	BYTE	W08
	BYTE		N06     Dn2   v092
	BYTE		N07     Gn2   v104
	BYTE	W16
	BYTE		N04     Dn2   v092
	BYTE		N05     Gn2   v100
	BYTE	W08
	BYTE		        Dn2   v088
	BYTE		N07     Gn2   v100
	BYTE	W16
	BYTE		N04     Dn2   v092
	BYTE		N06     Gn2   v096
	BYTE	W08
	BYTE	PEND
// 127   ----------------------------------------
BanjoKazooieGruntildaBattleSme_7_127:
	BYTE		N08     Dn2   v092
	BYTE		N07     En2   v096
	BYTE	W16
	BYTE		N05     Dn2   v092
	BYTE		N04     En2   v100
	BYTE	W08
	BYTE		N07     Dn2   v088
	BYTE		N07     En2   v100
	BYTE	W16
	BYTE		N05     Dn2   v096
	BYTE		N05     En2   v108
	BYTE	W08
	BYTE		N07     Cs2   v088
	BYTE		N07     En2   v100
	BYTE	W16
	BYTE		N04     Cs2   v096
	BYTE		N04     En2   v108
	BYTE	W08
	BYTE		N07     Cs2   v084
	BYTE		N07     En2   v100
	BYTE	W16
	BYTE		        Cs2   v092
	BYTE		N08     En2   v104
	BYTE	W08
	BYTE	PEND
// 128   ----------------------------------------
	BYTE	PATT
	 POIN2	BanjoKazooieGruntildaBattleSme_7_124
// 129   ----------------------------------------
	BYTE	PATT
	 POIN2	BanjoKazooieGruntildaBattleSme_7_125
// 130   ----------------------------------------
	BYTE	PATT
	 POIN2	BanjoKazooieGruntildaBattleSme_7_126
// 131   ----------------------------------------
	BYTE	PATT
	 POIN2	BanjoKazooieGruntildaBattleSme_7_127
// 132   ----------------------------------------
	BYTE		N05     Gs1   v127
	BYTE	W08
	BYTE		N06     Ds1 
	BYTE	W08
	BYTE		N05     Gs1 
	BYTE	W08
	BYTE		        Cn2 
	BYTE	W08
	BYTE		        Gs1 
	BYTE	W08
	BYTE		        Cn2 
	BYTE	W08
	BYTE		        Ds2 
	BYTE	W08
	BYTE		        Cn2 
	BYTE	W08
	BYTE		        Ds2 
	BYTE	W08
	BYTE		        Fs2 
	BYTE	W08
	BYTE		        En2 
	BYTE	W08
	BYTE		        Ds2 
	BYTE	W08
// 133   ----------------------------------------
	BYTE		        Gn1 
	BYTE	W08
	BYTE		N06     Dn1 
	BYTE	W08
	BYTE		N05     Gn1 
	BYTE	W08
	BYTE		        Bn1 
	BYTE	W08
	BYTE		        Gn1 
	BYTE	W08
	BYTE		        Bn1 
	BYTE	W08
	BYTE		        Dn2 
	BYTE	W08
	BYTE		        Bn1 
	BYTE	W08
	BYTE		        Dn2 
	BYTE	W08
	BYTE		        Fn2 
	BYTE	W08
	BYTE		        Ds2 
	BYTE	W08
	BYTE		        Dn2 
	BYTE	W08
// 134   ----------------------------------------
	BYTE		N24     Cn2 
	BYTE	W96
// 135   ----------------------------------------
	BYTE	W96
	BYTE	GoTo
	 POIN2	BanjoKazooieGruntildaBattleSme_7_B1
BanjoKazooieGruntildaBattleSme_7_B2:
// 136   ----------------------------------------
	BYTE	FINE

//**************** Track 8 (Midi-Chn.8) ****************//

BanjoKazooieGruntildaBattleSme_8:
	BYTE	KEYSH   BanjoKazooieGruntildaBattleSme_key+0
// 000   ----------------------------------------
	BYTE		VOICE   62
	BYTE	W18
	BYTE		VOL     90*BanjoKazooieGruntildaBattleSme_mvl/mxv
	BYTE	W06
	BYTE	W06
	BYTE		PAN     c_v-9
	BYTE	W66
// 001   ----------------------------------------
	BYTE	W96
BanjoKazooieGruntildaBattleSme_8_B1:
// 002   ----------------------------------------
	BYTE	W96
// 003   ----------------------------------------
	BYTE	W96
// 004   ----------------------------------------
	BYTE	W96
// 005   ----------------------------------------
	BYTE	W96
// 006   ----------------------------------------
	BYTE	W96
// 007   ----------------------------------------
	BYTE	W96
// 008   ----------------------------------------
	BYTE	W96
// 009   ----------------------------------------
	BYTE	W96
// 010   ----------------------------------------
	BYTE	W96
// 011   ----------------------------------------
	BYTE	W96
// 012   ----------------------------------------
	BYTE	W96
// 013   ----------------------------------------
	BYTE	W96
// 014   ----------------------------------------
	BYTE	W96
// 015   ----------------------------------------
	BYTE	W96
// 016   ----------------------------------------
	BYTE	W96
// 017   ----------------------------------------
	BYTE	W96
// 018   ----------------------------------------
	BYTE	W96
// 019   ----------------------------------------
	BYTE	W96
// 020   ----------------------------------------
	BYTE	W96
// 021   ----------------------------------------
	BYTE	W96
// 022   ----------------------------------------
	BYTE	W96
// 023   ----------------------------------------
	BYTE	W96
// 024   ----------------------------------------
	BYTE	W96
// 025   ----------------------------------------
	BYTE	W96
// 026   ----------------------------------------
	BYTE	W96
// 027   ----------------------------------------
	BYTE	W96
// 028   ----------------------------------------
BanjoKazooieGruntildaBattleSme_8_028:
	BYTE		N32     Cn2   v127
	BYTE	W48
	BYTE		        As1 
	BYTE	W48
	BYTE	PEND
// 029   ----------------------------------------
BanjoKazooieGruntildaBattleSme_8_029:
	BYTE		N36     Gs1   v127
	BYTE	W48
	BYTE		        Gn1 
	BYTE	W48
	BYTE	PEND
// 030   ----------------------------------------
	BYTE		        Cn2   v108
	BYTE	W48
	BYTE		        Gn2   v127
	BYTE	W48
// 031   ----------------------------------------
	BYTE		        Ds2 
	BYTE	W48
	BYTE		N40     Fn2 
	BYTE	W48
// 032   ----------------------------------------
	BYTE	PATT
	 POIN2	BanjoKazooieGruntildaBattleSme_8_028
// 033   ----------------------------------------
	BYTE	PATT
	 POIN2	BanjoKazooieGruntildaBattleSme_8_029
// 034   ----------------------------------------
	BYTE		N36     Cn2   v108
	BYTE	W48
	BYTE		        Cs2   v127
	BYTE	W48
// 035   ----------------------------------------
	BYTE		        Gn1 
	BYTE	W48
	BYTE		N40     Gn2 
	BYTE	W48
// 036   ----------------------------------------
	BYTE	W96
// 037   ----------------------------------------
	BYTE	W96
// 038   ----------------------------------------
	BYTE	W96
// 039   ----------------------------------------
	BYTE	W96
// 040   ----------------------------------------
	BYTE	W96
// 041   ----------------------------------------
	BYTE	W96
// 042   ----------------------------------------
	BYTE	W96
// 043   ----------------------------------------
	BYTE	W96
// 044   ----------------------------------------
	BYTE	W96
// 045   ----------------------------------------
	BYTE	W96
// 046   ----------------------------------------
	BYTE	W96
// 047   ----------------------------------------
	BYTE	W96
// 048   ----------------------------------------
	BYTE	W96
// 049   ----------------------------------------
	BYTE	W96
// 050   ----------------------------------------
	BYTE	W96
// 051   ----------------------------------------
	BYTE	W96
// 052   ----------------------------------------
	BYTE	W96
// 053   ----------------------------------------
	BYTE	W96
// 054   ----------------------------------------
	BYTE	W96
// 055   ----------------------------------------
	BYTE	W96
// 056   ----------------------------------------
	BYTE	W96
// 057   ----------------------------------------
	BYTE	W96
// 058   ----------------------------------------
	BYTE		N17     Cn2 
	BYTE	W24
	BYTE		N16     Gn1 
	BYTE	W24
	BYTE		N17     Cn2 
	BYTE	W24
	BYTE		        Gn1 
	BYTE	W24
// 059   ----------------------------------------
	BYTE		        Cn2 
	BYTE	W24
	BYTE		N18     Gs1 
	BYTE	W24
	BYTE		N17     Cn2 
	BYTE	W24
	BYTE		        Gs1 
	BYTE	W24
// 060   ----------------------------------------
	BYTE		        Ds2 
	BYTE	W96
// 061   ----------------------------------------
	BYTE	W96
// 062   ----------------------------------------
	BYTE		        Fn2 
	BYTE	W24
	BYTE		N16     Cn2 
	BYTE	W24
	BYTE		N17     Fn2 
	BYTE	W24
	BYTE		        Cn2 
	BYTE	W24
// 063   ----------------------------------------
	BYTE		        Fn2 
	BYTE	W24
	BYTE		N18     Cs2 
	BYTE	W24
	BYTE		N17     Fn2 
	BYTE	W24
	BYTE		        Cs2 
	BYTE	W24
// 064   ----------------------------------------
	BYTE	W96
// 065   ----------------------------------------
	BYTE	W96
// 066   ----------------------------------------
	BYTE	W96
// 067   ----------------------------------------
	BYTE	W96
// 068   ----------------------------------------
	BYTE	W96
// 069   ----------------------------------------
	BYTE	W96
// 070   ----------------------------------------
	BYTE	W96
// 071   ----------------------------------------
	BYTE	W96
// 072   ----------------------------------------
	BYTE	W96
// 073   ----------------------------------------
	BYTE	W96
// 074   ----------------------------------------
	BYTE	W96
// 075   ----------------------------------------
	BYTE	W96
// 076   ----------------------------------------
	BYTE	W96
// 077   ----------------------------------------
	BYTE	W96
// 078   ----------------------------------------
	BYTE	W96
// 079   ----------------------------------------
	BYTE	W96
// 080   ----------------------------------------
	BYTE	W96
// 081   ----------------------------------------
	BYTE	W96
// 082   ----------------------------------------
	BYTE	W96
// 083   ----------------------------------------
	BYTE	W96
// 084   ----------------------------------------
	BYTE	W96
// 085   ----------------------------------------
	BYTE	W96
// 086   ----------------------------------------
	BYTE		N92     En2 
	BYTE	W96
// 087   ----------------------------------------
	BYTE		TIE     Gn1 
	BYTE	W96
// 088   ----------------------------------------
	BYTE		N92     Bn1 
	BYTE	W04
	BYTE		EOT     Gn1 
	BYTE	W92
// 089   ----------------------------------------
	BYTE	W96
// 090   ----------------------------------------
	BYTE	W96
// 091   ----------------------------------------
	BYTE	W96
// 092   ----------------------------------------
	BYTE	W96
// 093   ----------------------------------------
	BYTE	W96
// 094   ----------------------------------------
	BYTE	W96
// 095   ----------------------------------------
	BYTE	W96
// 096   ----------------------------------------
	BYTE		N21     Cn2 
	BYTE	W96
// 097   ----------------------------------------
	BYTE	W96
// 098   ----------------------------------------
	BYTE	W96
// 099   ----------------------------------------
	BYTE	W96
// 100   ----------------------------------------
	BYTE	W96
// 101   ----------------------------------------
	BYTE	W96
// 102   ----------------------------------------
	BYTE	W96
// 103   ----------------------------------------
	BYTE	W96
// 104   ----------------------------------------
	BYTE	W96
// 105   ----------------------------------------
	BYTE	W96
// 106   ----------------------------------------
	BYTE	W96
// 107   ----------------------------------------
	BYTE	W96
// 108   ----------------------------------------
	BYTE	W96
// 109   ----------------------------------------
	BYTE	W96
// 110   ----------------------------------------
	BYTE	W96
// 111   ----------------------------------------
	BYTE	W96
// 112   ----------------------------------------
	BYTE		N92   
	BYTE	W96
// 113   ----------------------------------------
	BYTE		        Gs1 
	BYTE	W96
// 114   ----------------------------------------
	BYTE		        Cn2 
	BYTE	W96
// 115   ----------------------------------------
	BYTE		N96     Gs1 
	BYTE	W96
// 116   ----------------------------------------
	BYTE		N92     Cn2 
	BYTE	W96
// 117   ----------------------------------------
	BYTE		        Gs1 
	BYTE	W96
// 118   ----------------------------------------
	BYTE		        Cn2 
	BYTE	W96
// 119   ----------------------------------------
	BYTE		N96     Gs1 
	BYTE	W96
// 120   ----------------------------------------
	BYTE		N16     Dn2 
	BYTE	W24
	BYTE		N15     An1 
	BYTE	W24
	BYTE		N16     Dn2   v124
	BYTE	W24
	BYTE		N17     An1   v127
	BYTE	W24
// 121   ----------------------------------------
	BYTE		        Dn2 
	BYTE	W24
	BYTE		        An1 
	BYTE	W24
	BYTE		N16     Dn2 
	BYTE	W24
	BYTE		N17     Cn2 
	BYTE	W24
// 122   ----------------------------------------
	BYTE		N16     Fn2   v116
	BYTE	W24
	BYTE		N14     Cn2 
	BYTE	W24
	BYTE		N15     Fn2 
	BYTE	W24
	BYTE		        Cn2 
	BYTE	W24
// 123   ----------------------------------------
	BYTE		N16     Fn2   v112
	BYTE	W24
	BYTE		        Cn2 
	BYTE	W24
	BYTE		        Fn2 
	BYTE	W24
	BYTE		        Cn2   v116
	BYTE	W24
// 124   ----------------------------------------
BanjoKazooieGruntildaBattleSme_8_124:
	BYTE		N18     Gn2   v120
	BYTE	W24
	BYTE		N14     Dn2   v112
	BYTE	W24
	BYTE		N16   
	BYTE	W24
	BYTE		        An1   v116
	BYTE	W24
	BYTE	PEND
// 125   ----------------------------------------
BanjoKazooieGruntildaBattleSme_8_125:
	BYTE		N16     Ds2   v124
	BYTE	W24
	BYTE		N18     As1   v104
	BYTE	W24
	BYTE		N17     An1   v112
	BYTE	W24
	BYTE		N19     En2   v120
	BYTE	W24
	BYTE	PEND
// 126   ----------------------------------------
BanjoKazooieGruntildaBattleSme_8_126:
	BYTE		N17     As1   v116
	BYTE	W24
	BYTE		N18     Fn2 
	BYTE	W24
	BYTE		N19     Gn1   v100
	BYTE	W24
	BYTE		N20     Dn2   v104
	BYTE	W24
	BYTE	PEND
// 127   ----------------------------------------
BanjoKazooieGruntildaBattleSme_8_127:
	BYTE		N18     An1   v120
	BYTE	W24
	BYTE		N20     En2   v124
	BYTE	W24
	BYTE		N18     An1   v112
	BYTE	W24
	BYTE		        En2   v124
	BYTE	W24
	BYTE	PEND
// 128   ----------------------------------------
	BYTE	PATT
	 POIN2	BanjoKazooieGruntildaBattleSme_8_124
// 129   ----------------------------------------
	BYTE	PATT
	 POIN2	BanjoKazooieGruntildaBattleSme_8_125
// 130   ----------------------------------------
	BYTE	PATT
	 POIN2	BanjoKazooieGruntildaBattleSme_8_126
// 131   ----------------------------------------
	BYTE	PATT
	 POIN2	BanjoKazooieGruntildaBattleSme_8_127
// 132   ----------------------------------------
	BYTE		N18     Gs1   v120
	BYTE	W24
	BYTE		N20     Ds2   v124
	BYTE	W24
	BYTE		N18     Gs1   v112
	BYTE	W24
	BYTE		        Ds2   v124
	BYTE	W24
// 133   ----------------------------------------
	BYTE		        Gn1   v120
	BYTE	W24
	BYTE		N20     Dn2   v124
	BYTE	W24
	BYTE		N18     Gn1   v112
	BYTE	W24
	BYTE		        Dn2   v124
	BYTE	W24
// 134   ----------------------------------------
	BYTE		        Cn2   v120
	BYTE	W96
// 135   ----------------------------------------
	BYTE	W96
	BYTE	GoTo
	 POIN2	BanjoKazooieGruntildaBattleSme_8_B1
BanjoKazooieGruntildaBattleSme_8_B2:
// 136   ----------------------------------------
	BYTE	FINE

//**************** Track 9 (Midi-Chn.9) ****************//

BanjoKazooieGruntildaBattleSme_9:
	BYTE	KEYSH   BanjoKazooieGruntildaBattleSme_key+0
// 000   ----------------------------------------
	BYTE		VOICE   76
	BYTE		VOL     124*BanjoKazooieGruntildaBattleSme_mvl/mxv
	BYTE	W24
	BYTE	W06
	BYTE		PAN     c_v+6
	BYTE	W66
// 001   ----------------------------------------
	BYTE	W96
BanjoKazooieGruntildaBattleSme_9_B1:
// 002   ----------------------------------------
	BYTE	W96
// 003   ----------------------------------------
	BYTE	W96
// 004   ----------------------------------------
	BYTE	W96
// 005   ----------------------------------------
	BYTE	W96
// 006   ----------------------------------------
	BYTE	W96
// 007   ----------------------------------------
	BYTE	W96
// 008   ----------------------------------------
	BYTE	W96
// 009   ----------------------------------------
	BYTE	W96
// 010   ----------------------------------------
	BYTE	W96
// 011   ----------------------------------------
	BYTE	W96
// 012   ----------------------------------------
	BYTE	W96
// 013   ----------------------------------------
	BYTE	W96
// 014   ----------------------------------------
	BYTE	W96
// 015   ----------------------------------------
	BYTE	W96
// 016   ----------------------------------------
	BYTE	W96
// 017   ----------------------------------------
	BYTE	W96
// 018   ----------------------------------------
	BYTE	W96
// 019   ----------------------------------------
	BYTE	W96
// 020   ----------------------------------------
	BYTE	W96
// 021   ----------------------------------------
	BYTE	W96
// 022   ----------------------------------------
	BYTE	W96
// 023   ----------------------------------------
	BYTE	W96
// 024   ----------------------------------------
	BYTE		N08     Fn3   v100
	BYTE	W16
	BYTE		N05     Gs3 
	BYTE	W08
	BYTE		        Gn3 
	BYTE	W08
	BYTE		        Gs3 
	BYTE	W08
	BYTE		        As3 
	BYTE	W08
	BYTE		N08     Cn4 
	BYTE	W16
	BYTE		N05     Dn4 
	BYTE	W08
	BYTE		N08     Ds4 
	BYTE	W16
	BYTE		N05     Dn4 
	BYTE	W08
// 025   ----------------------------------------
	BYTE		N08     Cs4 
	BYTE	W16
	BYTE		N05     Cn4 
	BYTE	W08
	BYTE		N08     As3 
	BYTE	W16
	BYTE		N05     Gs3 
	BYTE	W08
	BYTE		N08     Gn3 
	BYTE	W16
	BYTE		N05     An3 
	BYTE	W08
	BYTE		N08     Bn3 
	BYTE	W16
	BYTE		N05     Dn4 
	BYTE	W08
// 026   ----------------------------------------
	BYTE		N08     Gs3 
	BYTE	W16
	BYTE		N05     As3 
	BYTE	W08
	BYTE		        Cn4 
	BYTE	W08
	BYTE		        As3 
	BYTE	W08
	BYTE		        Gs3 
	BYTE	W08
	BYTE		N08     Fn3 
	BYTE	W16
	BYTE		N05     Gn3 
	BYTE	W08
	BYTE		N08     Gs3 
	BYTE	W16
	BYTE		N05     Cn4 
	BYTE	W08
// 027   ----------------------------------------
	BYTE		        Gn3 
	BYTE	W08
	BYTE		        Dn3 
	BYTE	W08
	BYTE		        Gn3 
	BYTE	W08
	BYTE		        Bn3 
	BYTE	W08
	BYTE		        Gn3 
	BYTE	W08
	BYTE		        Bn3 
	BYTE	W08
	BYTE		        Dn4 
	BYTE	W08
	BYTE		        Bn3 
	BYTE	W08
	BYTE		        Dn4 
	BYTE	W08
	BYTE		        Fn4 
	BYTE	W08
	BYTE		        Ds4 
	BYTE	W08
	BYTE		        Dn4 
	BYTE	W08
// 028   ----------------------------------------
	BYTE		N16     Cn4 
	BYTE	W96
// 029   ----------------------------------------
	BYTE	W96
// 030   ----------------------------------------
	BYTE	W96
// 031   ----------------------------------------
	BYTE	W96
// 032   ----------------------------------------
	BYTE	W96
// 033   ----------------------------------------
	BYTE	W96
// 034   ----------------------------------------
	BYTE	W96
// 035   ----------------------------------------
	BYTE	W96
// 036   ----------------------------------------
	BYTE	W96
// 037   ----------------------------------------
	BYTE	W96
// 038   ----------------------------------------
	BYTE	W96
// 039   ----------------------------------------
	BYTE	W96
// 040   ----------------------------------------
	BYTE	W96
// 041   ----------------------------------------
	BYTE	W96
// 042   ----------------------------------------
	BYTE	W96
// 043   ----------------------------------------
	BYTE	W96
// 044   ----------------------------------------
	BYTE	W96
// 045   ----------------------------------------
	BYTE	W96
// 046   ----------------------------------------
	BYTE	W96
// 047   ----------------------------------------
	BYTE	W96
// 048   ----------------------------------------
	BYTE	W96
// 049   ----------------------------------------
	BYTE	W96
// 050   ----------------------------------------
	BYTE	W96
// 051   ----------------------------------------
	BYTE	W96
// 052   ----------------------------------------
	BYTE	W96
// 053   ----------------------------------------
	BYTE	W96
// 054   ----------------------------------------
	BYTE	W96
// 055   ----------------------------------------
	BYTE	W96
// 056   ----------------------------------------
	BYTE	W96
// 057   ----------------------------------------
	BYTE	W96
// 058   ----------------------------------------
	BYTE	W96
// 059   ----------------------------------------
	BYTE	W96
// 060   ----------------------------------------
	BYTE	W96
// 061   ----------------------------------------
	BYTE	W96
// 062   ----------------------------------------
	BYTE	W96
// 063   ----------------------------------------
	BYTE	W96
// 064   ----------------------------------------
	BYTE	W96
// 065   ----------------------------------------
	BYTE	W96
// 066   ----------------------------------------
	BYTE	W96
// 067   ----------------------------------------
	BYTE	W96
// 068   ----------------------------------------
	BYTE	W96
// 069   ----------------------------------------
	BYTE	W96
// 070   ----------------------------------------
	BYTE	W96
// 071   ----------------------------------------
	BYTE	W96
// 072   ----------------------------------------
	BYTE	W96
// 073   ----------------------------------------
	BYTE	W96
// 074   ----------------------------------------
	BYTE	W96
// 075   ----------------------------------------
	BYTE	W96
// 076   ----------------------------------------
	BYTE	W96
// 077   ----------------------------------------
	BYTE	W96
// 078   ----------------------------------------
	BYTE	W96
// 079   ----------------------------------------
	BYTE	W96
// 080   ----------------------------------------
	BYTE	W96
// 081   ----------------------------------------
	BYTE	W96
// 082   ----------------------------------------
	BYTE	W96
// 083   ----------------------------------------
	BYTE	W96
// 084   ----------------------------------------
	BYTE	W96
// 085   ----------------------------------------
	BYTE	W96
// 086   ----------------------------------------
	BYTE	W96
// 087   ----------------------------------------
	BYTE	W96
// 088   ----------------------------------------
	BYTE	W96
// 089   ----------------------------------------
	BYTE	W96
// 090   ----------------------------------------
	BYTE	W96
// 091   ----------------------------------------
	BYTE	W96
// 092   ----------------------------------------
	BYTE	W96
// 093   ----------------------------------------
	BYTE	W96
// 094   ----------------------------------------
	BYTE	W96
// 095   ----------------------------------------
	BYTE	W96
// 096   ----------------------------------------
BanjoKazooieGruntildaBattleSme_9_096:
	BYTE	W24
	BYTE		N32     Ds3   v080
	BYTE		N32     Gn3 
	BYTE	W48
	BYTE		        Fs3 
	BYTE		N32     An3 
	BYTE	W24
	BYTE	PEND
// 097   ----------------------------------------
BanjoKazooieGruntildaBattleSme_9_097:
	BYTE	W24
	BYTE		N40     Gn3   v080
	BYTE		N40     As3 
	BYTE	W48
	BYTE		N18     An3 
	BYTE		N18     Cn4 
	BYTE	W24
	BYTE	PEND
// 098   ----------------------------------------
BanjoKazooieGruntildaBattleSme_9_098:
	BYTE	W24
	BYTE		N36     Ds3   v080
	BYTE		N36     Gn3 
	BYTE	W48
	BYTE		        Fs3 
	BYTE		N36     An3 
	BYTE	W24
	BYTE	PEND
// 099   ----------------------------------------
	BYTE	W24
	BYTE		        Ds3 
	BYTE		N36     Gn3 
	BYTE	W48
	BYTE		N19     Dn3 
	BYTE		N18     Fs3 
	BYTE	W24
// 100   ----------------------------------------
	BYTE	PATT
	 POIN2	BanjoKazooieGruntildaBattleSme_9_096
// 101   ----------------------------------------
	BYTE	PATT
	 POIN2	BanjoKazooieGruntildaBattleSme_9_097
// 102   ----------------------------------------
	BYTE	PATT
	 POIN2	BanjoKazooieGruntildaBattleSme_9_098
// 103   ----------------------------------------
	BYTE	W24
	BYTE		N36     Ds3   v080
	BYTE		N36     Gn3 
	BYTE	W48
	BYTE		N21     Dn3 
	BYTE		N20     Fs3 
	BYTE	W24
// 104   ----------------------------------------
	BYTE	W96
// 105   ----------------------------------------
	BYTE	W96
// 106   ----------------------------------------
	BYTE	W96
// 107   ----------------------------------------
	BYTE	W96
// 108   ----------------------------------------
	BYTE	W96
// 109   ----------------------------------------
	BYTE	W96
// 110   ----------------------------------------
	BYTE	W96
// 111   ----------------------------------------
	BYTE	W96
// 112   ----------------------------------------
	BYTE	W96
// 113   ----------------------------------------
	BYTE	W96
// 114   ----------------------------------------
	BYTE	W96
// 115   ----------------------------------------
	BYTE	W96
// 116   ----------------------------------------
	BYTE	W96
// 117   ----------------------------------------
	BYTE	W96
// 118   ----------------------------------------
	BYTE	W96
// 119   ----------------------------------------
	BYTE	W96
// 120   ----------------------------------------
	BYTE		N06     Dn4   v076
	BYTE	W16
	BYTE		N05     Fn4 
	BYTE	W08
	BYTE		N06     En4 
	BYTE	W08
	BYTE		        Fn4 
	BYTE	W08
	BYTE		        En4 
	BYTE	W08
	BYTE		N08     Dn4 
	BYTE	W16
	BYTE		N05     An4 
	BYTE	W08
	BYTE		N15     As4 
	BYTE	W16
	BYTE		N05     An4 
	BYTE	W08
// 121   ----------------------------------------
	BYTE		N07     Dn4 
	BYTE	W16
	BYTE		N06     Fn4 
	BYTE	W08
	BYTE		        En4 
	BYTE	W08
	BYTE		        Fn4 
	BYTE	W08
	BYTE		        En4 
	BYTE	W08
	BYTE		N08     Dn4 
	BYTE	W24
	BYTE		N17     Cn4 
	BYTE	W24
// 122   ----------------------------------------
	BYTE		N06     Fn4 
	BYTE	W16
	BYTE		        An4 
	BYTE	W08
	BYTE		        Gn4 
	BYTE	W08
	BYTE		        An4 
	BYTE	W08
	BYTE		        Gn4 
	BYTE	W08
	BYTE		N08     Fn4 
	BYTE	W16
	BYTE		N05     Cn5 
	BYTE	W08
	BYTE		N15     Dn5 
	BYTE	W16
	BYTE		N07     Cn5 
	BYTE	W08
// 123   ----------------------------------------
	BYTE		        Fn4 
	BYTE	W16
	BYTE		N06     An4 
	BYTE	W08
	BYTE		        Gn4 
	BYTE	W08
	BYTE		        An4 
	BYTE	W08
	BYTE		        Gn4 
	BYTE	W08
	BYTE		N08     Fn4 
	BYTE	W48
// 124   ----------------------------------------
	BYTE		        Gn3 
	BYTE	W16
	BYTE		N06     As3 
	BYTE	W08
	BYTE		        An3 
	BYTE	W08
	BYTE		        As3 
	BYTE	W08
	BYTE		        Cn4 
	BYTE	W08
	BYTE		N08     Dn4 
	BYTE	W16
	BYTE		N05     En4 
	BYTE	W08
	BYTE		N08     Fn4 
	BYTE	W16
	BYTE		N05     En4 
	BYTE	W08
// 125   ----------------------------------------
	BYTE		N08     Ds4 
	BYTE	W16
	BYTE		N05     Dn4 
	BYTE	W08
	BYTE		N08     Cn4 
	BYTE	W16
	BYTE		N05     As3 
	BYTE	W08
	BYTE		N08     An3 
	BYTE	W16
	BYTE		N05     Bn3 
	BYTE	W08
	BYTE		N08     Cs4 
	BYTE	W16
	BYTE		N05     En4 
	BYTE	W08
// 126   ----------------------------------------
	BYTE		N08     As3 
	BYTE	W16
	BYTE		N05     Cn4 
	BYTE	W08
	BYTE		N06     Dn4 
	BYTE	W08
	BYTE		        Cn4 
	BYTE	W08
	BYTE		        As3 
	BYTE	W08
	BYTE		N08     Gn3 
	BYTE	W16
	BYTE		N05     An3 
	BYTE	W08
	BYTE		N08     As3 
	BYTE	W16
	BYTE		N05     Dn4 
	BYTE	W08
// 127   ----------------------------------------
	BYTE		N06     An3 
	BYTE	W08
	BYTE		        En3 
	BYTE	W08
	BYTE		        An3 
	BYTE	W08
	BYTE		        Cs4 
	BYTE	W08
	BYTE		        An3 
	BYTE	W08
	BYTE		        Cs4 
	BYTE	W08
	BYTE		        En4 
	BYTE	W08
	BYTE		        Cs4 
	BYTE	W08
	BYTE		        En4 
	BYTE	W08
	BYTE		        Gn4 
	BYTE	W08
	BYTE		        Fn4 
	BYTE	W08
	BYTE		        En4 
	BYTE	W08
// 128   ----------------------------------------
	BYTE		N08     Dn4 
	BYTE	W96
// 129   ----------------------------------------
	BYTE	W96
// 130   ----------------------------------------
	BYTE	W96
// 131   ----------------------------------------
	BYTE	W96
// 132   ----------------------------------------
	BYTE		N05     Gs3   v127
	BYTE	W08
	BYTE		N06     Ds3 
	BYTE	W08
	BYTE		N05     Gs3 
	BYTE	W08
	BYTE		        Cn4 
	BYTE	W08
	BYTE		        Gs3 
	BYTE	W08
	BYTE		        Cn4 
	BYTE	W08
	BYTE		        Ds4 
	BYTE	W08
	BYTE		        Cn4 
	BYTE	W08
	BYTE		        Ds4 
	BYTE	W08
	BYTE		        Fs4 
	BYTE	W08
	BYTE		        En4 
	BYTE	W08
	BYTE		        Ds4 
	BYTE	W08
// 133   ----------------------------------------
	BYTE	W96
// 134   ----------------------------------------
	BYTE	W96
// 135   ----------------------------------------
	BYTE	W96
	BYTE	GoTo
	 POIN2	BanjoKazooieGruntildaBattleSme_9_B1
BanjoKazooieGruntildaBattleSme_9_B2:
// 136   ----------------------------------------
	BYTE	FINE

//**************** Track 10 (Midi-Chn.11) ****************//

BanjoKazooieGruntildaBattleSme_10:
	BYTE	KEYSH   BanjoKazooieGruntildaBattleSme_key+0
// 000   ----------------------------------------
	BYTE		VOICE   13
	BYTE		VOL     94*BanjoKazooieGruntildaBattleSme_mvl/mxv
	BYTE	W24
	BYTE	W06
	BYTE		PAN     c_v+0
	BYTE	W66
// 001   ----------------------------------------
	BYTE	W96
BanjoKazooieGruntildaBattleSme_10_B1:
// 002   ----------------------------------------
	BYTE	W96
// 003   ----------------------------------------
	BYTE	W96
// 004   ----------------------------------------
	BYTE	W96
// 005   ----------------------------------------
	BYTE	W96
// 006   ----------------------------------------
	BYTE	W96
// 007   ----------------------------------------
	BYTE	W96
// 008   ----------------------------------------
	BYTE	W96
// 009   ----------------------------------------
	BYTE	W96
// 010   ----------------------------------------
	BYTE	W96
// 011   ----------------------------------------
	BYTE	W96
// 012   ----------------------------------------
	BYTE	W96
// 013   ----------------------------------------
	BYTE	W96
// 014   ----------------------------------------
	BYTE	W96
// 015   ----------------------------------------
	BYTE	W72
	BYTE		N16     Gn2   v127
	BYTE	W24
// 016   ----------------------------------------
	BYTE		        Cn3 
	BYTE	W16
	BYTE		N08     Ds3 
	BYTE	W08
	BYTE		        Dn3 
	BYTE	W08
	BYTE		        Ds3 
	BYTE	W08
	BYTE		        Dn3 
	BYTE	W08
	BYTE		N16     Cn3 
	BYTE	W16
	BYTE		N08     Gn3 
	BYTE	W08
	BYTE		N16     Gs3 
	BYTE	W16
	BYTE		N08     Gn3 
	BYTE	W08
// 017   ----------------------------------------
	BYTE		N16     Cn3 
	BYTE	W16
	BYTE		N08     Ds3 
	BYTE	W08
	BYTE		        Dn3 
	BYTE	W08
	BYTE		        Ds3 
	BYTE	W08
	BYTE		        Dn3 
	BYTE	W08
	BYTE		N24     Cn3 
	BYTE	W24
	BYTE		        As2 
	BYTE	W24
// 018   ----------------------------------------
	BYTE		N16     Ds3 
	BYTE	W16
	BYTE		N08     Gn3 
	BYTE	W08
	BYTE		        Fn3 
	BYTE	W08
	BYTE		        Gn3 
	BYTE	W08
	BYTE		        Fn3 
	BYTE	W08
	BYTE		N16     Ds3 
	BYTE	W16
	BYTE		N08     As3 
	BYTE	W08
	BYTE		N16     Cn4 
	BYTE	W16
	BYTE		N08     As3 
	BYTE	W08
// 019   ----------------------------------------
	BYTE		N16     Ds3 
	BYTE	W16
	BYTE		N08     Gn3 
	BYTE	W08
	BYTE		        Fn3 
	BYTE	W08
	BYTE		        Gn3 
	BYTE	W08
	BYTE		        Fn3 
	BYTE	W08
	BYTE		N30     Ds3 
	BYTE	W48
// 020   ----------------------------------------
	BYTE		N16     Fn3 
	BYTE	W16
	BYTE		N08     Gs3 
	BYTE	W08
	BYTE		        Gn3 
	BYTE	W08
	BYTE		        Gs3 
	BYTE	W08
	BYTE		        As3 
	BYTE	W08
	BYTE		N16     Cn4 
	BYTE	W16
	BYTE		N08     Dn4 
	BYTE	W08
	BYTE		N16     Ds4 
	BYTE	W16
	BYTE		N08     Dn4 
	BYTE	W08
// 021   ----------------------------------------
	BYTE		N16     Cs4 
	BYTE	W16
	BYTE		N08     Cn4 
	BYTE	W08
	BYTE		N16     As3 
	BYTE	W16
	BYTE		N08     Gs3 
	BYTE	W08
	BYTE		N16     Gn3 
	BYTE	W16
	BYTE		N08     An3 
	BYTE	W08
	BYTE		N16     Bn3 
	BYTE	W16
	BYTE		N08     Dn4 
	BYTE	W08
// 022   ----------------------------------------
	BYTE		N16     Gs3 
	BYTE	W16
	BYTE		N08     As3 
	BYTE	W08
	BYTE		        Cn4 
	BYTE	W08
	BYTE		        As3 
	BYTE	W08
	BYTE		        Gs3 
	BYTE	W08
	BYTE		N16     Fn3 
	BYTE	W16
	BYTE		N08     Gn3 
	BYTE	W08
	BYTE		N16     Gs3 
	BYTE	W16
	BYTE		N08     Cn4 
	BYTE	W08
// 023   ----------------------------------------
	BYTE		        Gn3 
	BYTE	W08
	BYTE		        Dn3 
	BYTE	W08
	BYTE		        Gn3 
	BYTE	W08
	BYTE		        Bn3 
	BYTE	W08
	BYTE		        Gn3 
	BYTE	W08
	BYTE		        Bn3 
	BYTE	W08
	BYTE		        Dn4 
	BYTE	W08
	BYTE		        Bn3 
	BYTE	W08
	BYTE		        Dn4 
	BYTE	W08
	BYTE		        Fn4 
	BYTE	W08
	BYTE		        Ds4 
	BYTE	W08
	BYTE		        Dn4 
	BYTE	W08
// 024   ----------------------------------------
	BYTE		N30     Cn4 
	BYTE	W96
// 025   ----------------------------------------
	BYTE	W96
// 026   ----------------------------------------
	BYTE	W96
// 027   ----------------------------------------
	BYTE	W96
// 028   ----------------------------------------
	BYTE	W96
// 029   ----------------------------------------
	BYTE	W96
// 030   ----------------------------------------
	BYTE	W96
// 031   ----------------------------------------
	BYTE	W96
// 032   ----------------------------------------
	BYTE	W96
// 033   ----------------------------------------
	BYTE	W96
// 034   ----------------------------------------
	BYTE	W96
// 035   ----------------------------------------
	BYTE	W96
// 036   ----------------------------------------
	BYTE	W96
// 037   ----------------------------------------
	BYTE	W96
// 038   ----------------------------------------
	BYTE	W96
// 039   ----------------------------------------
	BYTE	W96
// 040   ----------------------------------------
	BYTE	W96
// 041   ----------------------------------------
	BYTE	W96
// 042   ----------------------------------------
	BYTE	W96
// 043   ----------------------------------------
	BYTE	W96
// 044   ----------------------------------------
	BYTE	W96
// 045   ----------------------------------------
	BYTE	W96
// 046   ----------------------------------------
	BYTE	W96
// 047   ----------------------------------------
	BYTE	W96
// 048   ----------------------------------------
	BYTE	W96
// 049   ----------------------------------------
	BYTE	W96
// 050   ----------------------------------------
	BYTE	W96
// 051   ----------------------------------------
	BYTE	W96
// 052   ----------------------------------------
	BYTE	W96
// 053   ----------------------------------------
	BYTE	W96
// 054   ----------------------------------------
	BYTE	W96
// 055   ----------------------------------------
	BYTE	W96
// 056   ----------------------------------------
	BYTE	W96
// 057   ----------------------------------------
	BYTE	W96
// 058   ----------------------------------------
	BYTE	W96
// 059   ----------------------------------------
	BYTE	W96
// 060   ----------------------------------------
	BYTE	W96
// 061   ----------------------------------------
	BYTE	W96
// 062   ----------------------------------------
	BYTE	W96
// 063   ----------------------------------------
	BYTE	W96
// 064   ----------------------------------------
	BYTE	W96
// 065   ----------------------------------------
	BYTE	W96
// 066   ----------------------------------------
	BYTE	W96
// 067   ----------------------------------------
	BYTE	W96
// 068   ----------------------------------------
	BYTE	W96
// 069   ----------------------------------------
	BYTE	W96
// 070   ----------------------------------------
	BYTE	W96
// 071   ----------------------------------------
	BYTE	W96
// 072   ----------------------------------------
	BYTE	W96
// 073   ----------------------------------------
	BYTE	W96
// 074   ----------------------------------------
	BYTE	W96
// 075   ----------------------------------------
	BYTE	W96
// 076   ----------------------------------------
	BYTE	W96
// 077   ----------------------------------------
	BYTE	W96
// 078   ----------------------------------------
	BYTE	W96
// 079   ----------------------------------------
	BYTE	W96
// 080   ----------------------------------------
	BYTE	W96
// 081   ----------------------------------------
	BYTE	W96
// 082   ----------------------------------------
BanjoKazooieGruntildaBattleSme_10_082:
	BYTE		N06     En5   v100
	BYTE	W06
	BYTE		N06   
	BYTE	W06
	BYTE		        Bn4 
	BYTE	W06
	BYTE		N06   
	BYTE	W06
	BYTE		        Cn5 
	BYTE	W06
	BYTE		N06   
	BYTE	W06
	BYTE		        An4 
	BYTE	W06
	BYTE		N06   
	BYTE	W06
	BYTE		        Bn4 
	BYTE	W06
	BYTE		N06   
	BYTE	W06
	BYTE		        Gn4 
	BYTE	W06
	BYTE		N06   
	BYTE	W06
	BYTE		        An4 
	BYTE	W06
	BYTE		N06   
	BYTE	W06
	BYTE		        Fs4 
	BYTE	W06
	BYTE		N06   
	BYTE	W06
	BYTE	PEND
// 083   ----------------------------------------
BanjoKazooieGruntildaBattleSme_10_083:
	BYTE		N06     En4   v100
	BYTE	W06
	BYTE		N06   
	BYTE	W06
	BYTE		        Bn3 
	BYTE	W06
	BYTE		N06   
	BYTE	W06
	BYTE		        Cn4 
	BYTE	W06
	BYTE		N06   
	BYTE	W06
	BYTE		        An3 
	BYTE	W06
	BYTE		N06   
	BYTE	W06
	BYTE		        Bn3 
	BYTE	W06
	BYTE		N06   
	BYTE	W06
	BYTE		        Gn3 
	BYTE	W06
	BYTE		N06   
	BYTE	W06
	BYTE		        An3 
	BYTE	W06
	BYTE		N06   
	BYTE	W06
	BYTE		        Fs3 
	BYTE	W06
	BYTE		N06   
	BYTE	W06
	BYTE	PEND
// 084   ----------------------------------------
BanjoKazooieGruntildaBattleSme_10_084:
	BYTE		N06     En3   v100
	BYTE	W06
	BYTE		N06   
	BYTE	W06
	BYTE		        Bn2 
	BYTE	W06
	BYTE		N06   
	BYTE	W06
	BYTE		        Cn3 
	BYTE	W06
	BYTE		N06   
	BYTE	W06
	BYTE		        An2 
	BYTE	W06
	BYTE		N06   
	BYTE	W06
	BYTE		        Bn2 
	BYTE	W06
	BYTE		N06   
	BYTE	W06
	BYTE		        Gn2 
	BYTE	W06
	BYTE		N06   
	BYTE	W06
	BYTE		        An2 
	BYTE	W06
	BYTE		N06   
	BYTE	W06
	BYTE		        Fs2 
	BYTE	W06
	BYTE		N06   
	BYTE	W06
	BYTE	PEND
// 085   ----------------------------------------
BanjoKazooieGruntildaBattleSme_10_085:
	BYTE		N06     Dn3   v100
	BYTE	W06
	BYTE		        As2 
	BYTE	W06
	BYTE		        Dn3 
	BYTE	W06
	BYTE		        Fn3 
	BYTE	W06
	BYTE		        As3 
	BYTE	W06
	BYTE		        Fn3 
	BYTE	W06
	BYTE		        As3 
	BYTE	W06
	BYTE		        Dn4 
	BYTE	W06
	BYTE		        Fn4 
	BYTE	W06
	BYTE		        Dn4 
	BYTE	W06
	BYTE		        Fn4 
	BYTE	W06
	BYTE		        As4 
	BYTE	W06
	BYTE		        Dn5 
	BYTE	W06
	BYTE		        As4 
	BYTE	W06
	BYTE		        Dn5 
	BYTE	W06
	BYTE		        Fn5 
	BYTE	W06
	BYTE	PEND
// 086   ----------------------------------------
	BYTE	PATT
	 POIN2	BanjoKazooieGruntildaBattleSme_10_082
// 087   ----------------------------------------
	BYTE	PATT
	 POIN2	BanjoKazooieGruntildaBattleSme_10_083
// 088   ----------------------------------------
	BYTE	PATT
	 POIN2	BanjoKazooieGruntildaBattleSme_10_084
// 089   ----------------------------------------
	BYTE	PATT
	 POIN2	BanjoKazooieGruntildaBattleSme_10_085
// 090   ----------------------------------------
	BYTE		N06     Fn5   v100
	BYTE	W96
// 091   ----------------------------------------
BanjoKazooieGruntildaBattleSme_10_091:
	BYTE		N06     Dn4   v100
	BYTE	W06
	BYTE		        Bn3 
	BYTE	W06
	BYTE		        Gs3 
	BYTE	W06
	BYTE		        Gn3 
	BYTE	W06
	BYTE		        Fn3 
	BYTE	W06
	BYTE		        Dn3 
	BYTE	W06
	BYTE		        Cn3 
	BYTE	W06
	BYTE		        Bn2 
	BYTE	W06
	BYTE		        As3 
	BYTE	W06
	BYTE		        Gn3 
	BYTE	W06
	BYTE		        Fn3 
	BYTE	W06
	BYTE		        En3 
	BYTE	W06
	BYTE		        Cs3 
	BYTE	W06
	BYTE		        As2 
	BYTE	W06
	BYTE		        Gn2 
	BYTE	W06
	BYTE		        Fs2 
	BYTE	W06
	BYTE	PEND
// 092   ----------------------------------------
	BYTE	W96
// 093   ----------------------------------------
	BYTE	PATT
	 POIN2	BanjoKazooieGruntildaBattleSme_10_091
// 094   ----------------------------------------
	BYTE	W96
// 095   ----------------------------------------
	BYTE	W96
// 096   ----------------------------------------
	BYTE	W96
// 097   ----------------------------------------
	BYTE	W96
// 098   ----------------------------------------
	BYTE	W96
// 099   ----------------------------------------
	BYTE	W96
// 100   ----------------------------------------
	BYTE	W96
// 101   ----------------------------------------
	BYTE	W96
// 102   ----------------------------------------
	BYTE	W96
// 103   ----------------------------------------
	BYTE	W96
// 104   ----------------------------------------
	BYTE	W96
// 105   ----------------------------------------
	BYTE	W96
// 106   ----------------------------------------
	BYTE	W96
// 107   ----------------------------------------
	BYTE	W96
// 108   ----------------------------------------
	BYTE	W96
// 109   ----------------------------------------
	BYTE	W96
// 110   ----------------------------------------
	BYTE	W96
// 111   ----------------------------------------
	BYTE	W96
// 112   ----------------------------------------
	BYTE	W96
// 113   ----------------------------------------
	BYTE	W96
// 114   ----------------------------------------
	BYTE	W96
// 115   ----------------------------------------
	BYTE	W96
// 116   ----------------------------------------
	BYTE	W96
// 117   ----------------------------------------
	BYTE	W96
// 118   ----------------------------------------
	BYTE	W96
// 119   ----------------------------------------
	BYTE	W96
// 120   ----------------------------------------
	BYTE	W96
// 121   ----------------------------------------
	BYTE	W96
// 122   ----------------------------------------
	BYTE	W96
// 123   ----------------------------------------
	BYTE	W96
// 124   ----------------------------------------
	BYTE	W96
// 125   ----------------------------------------
	BYTE	W96
// 126   ----------------------------------------
	BYTE	W96
// 127   ----------------------------------------
	BYTE	W96
// 128   ----------------------------------------
	BYTE	W96
// 129   ----------------------------------------
	BYTE	W96
// 130   ----------------------------------------
	BYTE	W96
// 131   ----------------------------------------
	BYTE	W96
// 132   ----------------------------------------
	BYTE	W96
// 133   ----------------------------------------
	BYTE	W96
// 134   ----------------------------------------
	BYTE	W96
// 135   ----------------------------------------
	BYTE	W96
	BYTE	GoTo
	 POIN2	BanjoKazooieGruntildaBattleSme_10_B1
BanjoKazooieGruntildaBattleSme_10_B2:
// 136   ----------------------------------------
	BYTE	FINE

//**************** Track 11 (Midi-Chn.12) ****************//

BanjoKazooieGruntildaBattleSme_11:
	BYTE	KEYSH   BanjoKazooieGruntildaBattleSme_key+0
// 000   ----------------------------------------
	BYTE		VOICE   73
	BYTE		VOL     120*BanjoKazooieGruntildaBattleSme_mvl/mxv
	BYTE	W24
	BYTE	W06
	BYTE		PAN     c_v-4
	BYTE	W66
// 001   ----------------------------------------
	BYTE	W96
BanjoKazooieGruntildaBattleSme_11_B1:
// 002   ----------------------------------------
	BYTE	W96
// 003   ----------------------------------------
	BYTE	W96
// 004   ----------------------------------------
	BYTE	W96
// 005   ----------------------------------------
	BYTE	W96
// 006   ----------------------------------------
	BYTE	W96
// 007   ----------------------------------------
	BYTE	W96
// 008   ----------------------------------------
	BYTE	W96
// 009   ----------------------------------------
	BYTE	W96
// 010   ----------------------------------------
	BYTE	W96
// 011   ----------------------------------------
	BYTE	W96
// 012   ----------------------------------------
	BYTE		N08     Fn5   v092
	BYTE	W16
	BYTE		N05     Gs5 
	BYTE	W08
	BYTE		        Gn5 
	BYTE	W08
	BYTE		        Gs5 
	BYTE	W08
	BYTE		        As5 
	BYTE	W08
	BYTE		N08     Cn6 
	BYTE	W16
	BYTE		N05     Dn6 
	BYTE	W08
	BYTE		N08     Ds6 
	BYTE	W16
	BYTE		N05     Dn6 
	BYTE	W08
// 013   ----------------------------------------
	BYTE		N08     Cs6 
	BYTE	W16
	BYTE		N05     Cn6 
	BYTE	W08
	BYTE		N08     As5 
	BYTE	W16
	BYTE		N05     Gs5 
	BYTE	W08
	BYTE		N08     Gn5 
	BYTE	W16
	BYTE		N05     An5 
	BYTE	W08
	BYTE		N08     Bn5 
	BYTE	W16
	BYTE		N05     Dn6 
	BYTE	W08
// 014   ----------------------------------------
	BYTE		N08     Gs5 
	BYTE	W16
	BYTE		N05     As5 
	BYTE	W08
	BYTE		        Cn6 
	BYTE	W08
	BYTE		        As5 
	BYTE	W08
	BYTE		        Gs5 
	BYTE	W08
	BYTE		N08     Fn5 
	BYTE	W16
	BYTE		N05     Gn5 
	BYTE	W08
	BYTE		N08     Gs5 
	BYTE	W16
	BYTE		N05     Cn6 
	BYTE	W08
// 015   ----------------------------------------
	BYTE		        Gn5 
	BYTE	W08
	BYTE		        Dn5 
	BYTE	W08
	BYTE		        Gn5 
	BYTE	W08
	BYTE		        Bn5 
	BYTE	W08
	BYTE		        Gn5 
	BYTE	W08
	BYTE		        Bn5 
	BYTE	W08
	BYTE		        Dn6 
	BYTE	W08
	BYTE		        Bn5 
	BYTE	W08
	BYTE		        Dn6 
	BYTE	W08
	BYTE		        Fn6 
	BYTE	W08
	BYTE		        Ds6 
	BYTE	W08
	BYTE		        Dn6 
	BYTE	W08
// 016   ----------------------------------------
	BYTE		N16     Cn6 
	BYTE	W96
// 017   ----------------------------------------
	BYTE	W96
// 018   ----------------------------------------
	BYTE	W96
// 019   ----------------------------------------
	BYTE	W96
// 020   ----------------------------------------
	BYTE	W96
// 021   ----------------------------------------
	BYTE	W96
// 022   ----------------------------------------
	BYTE	W96
// 023   ----------------------------------------
	BYTE	W96
// 024   ----------------------------------------
	BYTE	W96
// 025   ----------------------------------------
	BYTE	W96
// 026   ----------------------------------------
	BYTE	W96
// 027   ----------------------------------------
	BYTE	W96
// 028   ----------------------------------------
	BYTE	W96
// 029   ----------------------------------------
	BYTE	W96
// 030   ----------------------------------------
	BYTE	W96
// 031   ----------------------------------------
	BYTE	W96
// 032   ----------------------------------------
	BYTE	W96
// 033   ----------------------------------------
	BYTE	W96
// 034   ----------------------------------------
	BYTE	W96
// 035   ----------------------------------------
	BYTE	W96
// 036   ----------------------------------------
	BYTE	W96
// 037   ----------------------------------------
	BYTE	W96
// 038   ----------------------------------------
	BYTE	W96
// 039   ----------------------------------------
	BYTE	W96
// 040   ----------------------------------------
	BYTE	W96
// 041   ----------------------------------------
	BYTE	W96
// 042   ----------------------------------------
	BYTE	W96
// 043   ----------------------------------------
	BYTE	W96
// 044   ----------------------------------------
	BYTE	W96
// 045   ----------------------------------------
	BYTE	W96
// 046   ----------------------------------------
	BYTE	W96
// 047   ----------------------------------------
	BYTE	W96
// 048   ----------------------------------------
	BYTE	W96
// 049   ----------------------------------------
	BYTE	W96
// 050   ----------------------------------------
	BYTE	W96
// 051   ----------------------------------------
	BYTE	W96
// 052   ----------------------------------------
	BYTE	W96
// 053   ----------------------------------------
	BYTE	W96
// 054   ----------------------------------------
	BYTE	W96
// 055   ----------------------------------------
	BYTE	W96
// 056   ----------------------------------------
	BYTE	W96
// 057   ----------------------------------------
	BYTE	W96
// 058   ----------------------------------------
	BYTE	W96
// 059   ----------------------------------------
	BYTE	W96
// 060   ----------------------------------------
	BYTE	W96
// 061   ----------------------------------------
	BYTE	W96
// 062   ----------------------------------------
	BYTE	W96
// 063   ----------------------------------------
	BYTE	W96
// 064   ----------------------------------------
	BYTE		N60     Gs6   v096
	BYTE	W72
	BYTE		N14     Ds6 
	BYTE	W24
// 065   ----------------------------------------
	BYTE		N60     En6 
	BYTE	W72
	BYTE		N15     Ds6 
	BYTE	W24
// 066   ----------------------------------------
	BYTE		N48     Cn5   v116
	BYTE		N12     Cn6 
	BYTE	W48
	BYTE		N24     Cs5 
	BYTE	W24
	BYTE		        As4 
	BYTE	W24
// 067   ----------------------------------------
	BYTE		N36     Cn5 
	BYTE	W36
	BYTE		N09     Cs5 
	BYTE	W12
	BYTE		N48     Cn5 
	BYTE	W48
// 068   ----------------------------------------
	BYTE		N48   
	BYTE	W48
	BYTE		N24     Cs5 
	BYTE	W24
	BYTE		        As4 
	BYTE	W24
// 069   ----------------------------------------
	BYTE		N48     Cn5 
	BYTE	W48
	BYTE		N24     Cs5 
	BYTE	W24
	BYTE		N09     Ds5 
	BYTE	W12
	BYTE		N12     En5 
	BYTE	W12
// 070   ----------------------------------------
BanjoKazooieGruntildaBattleSme_11_070:
	BYTE		N48     Fn5   v116
	BYTE	W48
	BYTE		N24     Fs5 
	BYTE	W24
	BYTE		        Ds5 
	BYTE	W24
	BYTE	PEND
// 071   ----------------------------------------
	BYTE		N36     Fn5 
	BYTE	W36
	BYTE		N14     Fs5 
	BYTE	W12
	BYTE		N42     Fn5 
	BYTE	W48
// 072   ----------------------------------------
	BYTE	PATT
	 POIN2	BanjoKazooieGruntildaBattleSme_11_070
// 073   ----------------------------------------
	BYTE		N48     Fn5   v116
	BYTE	W48
	BYTE		N24     Fs5 
	BYTE	W24
	BYTE		        Gs5 
	BYTE	W24
// 074   ----------------------------------------
	BYTE	W96
// 075   ----------------------------------------
	BYTE	W96
// 076   ----------------------------------------
	BYTE	W96
// 077   ----------------------------------------
	BYTE	W96
// 078   ----------------------------------------
	BYTE	W96
// 079   ----------------------------------------
	BYTE	W96
// 080   ----------------------------------------
	BYTE	W96
// 081   ----------------------------------------
	BYTE	W96
// 082   ----------------------------------------
	BYTE		N15     En6   v096
	BYTE	W96
// 083   ----------------------------------------
	BYTE	W96
// 084   ----------------------------------------
	BYTE	W96
// 085   ----------------------------------------
	BYTE	W96
// 086   ----------------------------------------
	BYTE	W96
// 087   ----------------------------------------
	BYTE	W96
// 088   ----------------------------------------
	BYTE	W96
// 089   ----------------------------------------
	BYTE	W96
// 090   ----------------------------------------
	BYTE	W96
// 091   ----------------------------------------
BanjoKazooieGruntildaBattleSme_11_091:
	BYTE		N06     Dn6   v088
	BYTE	W06
	BYTE		        Bn5 
	BYTE	W06
	BYTE		        Gs5 
	BYTE	W06
	BYTE		        Gn5 
	BYTE	W06
	BYTE		        Fn5 
	BYTE	W06
	BYTE		        Dn5 
	BYTE	W06
	BYTE		        Cn5 
	BYTE	W06
	BYTE		        Bn4 
	BYTE	W06
	BYTE		        As4 
	BYTE	W06
	BYTE		        Gn4 
	BYTE	W06
	BYTE		        Fn4 
	BYTE	W06
	BYTE		        En4 
	BYTE	W06
	BYTE		        Cs4 
	BYTE	W06
	BYTE		        As3 
	BYTE	W06
	BYTE		        Gn3 
	BYTE	W06
	BYTE		        Fs3 
	BYTE	W06
	BYTE	PEND
// 092   ----------------------------------------
	BYTE	W96
// 093   ----------------------------------------
	BYTE	PATT
	 POIN2	BanjoKazooieGruntildaBattleSme_11_091
// 094   ----------------------------------------
BanjoKazooieGruntildaBattleSme_11_094:
	BYTE		N06     Dn6   v108
	BYTE	W06
	BYTE		        Bn5 
	BYTE	W06
	BYTE		        Gs5 
	BYTE	W06
	BYTE		        Gn5 
	BYTE	W06
	BYTE		        Fn5 
	BYTE	W06
	BYTE		        Dn5 
	BYTE	W06
	BYTE		        Cn5 
	BYTE	W06
	BYTE		        Bn4 
	BYTE	W06
	BYTE		        Dn6 
	BYTE	W06
	BYTE		        Bn5 
	BYTE	W06
	BYTE		        Gs5 
	BYTE	W06
	BYTE		        Gn5 
	BYTE	W06
	BYTE		        Fn5 
	BYTE	W06
	BYTE		        Dn5 
	BYTE	W06
	BYTE		        Cn5 
	BYTE	W06
	BYTE		        Bn4 
	BYTE	W06
	BYTE	PEND
// 095   ----------------------------------------
	BYTE	PATT
	 POIN2	BanjoKazooieGruntildaBattleSme_11_094
// 096   ----------------------------------------
	BYTE	W96
// 097   ----------------------------------------
	BYTE	W96
// 098   ----------------------------------------
	BYTE	W96
// 099   ----------------------------------------
	BYTE	W96
// 100   ----------------------------------------
	BYTE		N52     Cn5   v092
	BYTE		N52     Ds5 
	BYTE	W48
	BYTE		N48     Dn5 
	BYTE		N52     Fs5 
	BYTE	W48
// 101   ----------------------------------------
	BYTE		N48     Ds5 
	BYTE		N44     Gn5 
	BYTE	W48
	BYTE		N48     Fs5 
	BYTE		N54     An5 
	BYTE	W48
// 102   ----------------------------------------
	BYTE		N48     Cn5 
	BYTE		N48     Ds5 
	BYTE	W48
	BYTE		        An4 
	BYTE		N48     Dn5 
	BYTE	W48
// 103   ----------------------------------------
	BYTE		        Gn4 
	BYTE		N48     Cn5 
	BYTE	W48
	BYTE		N44     Fs4 
	BYTE		N42     An4 
	BYTE	W48
// 104   ----------------------------------------
	BYTE	W96
// 105   ----------------------------------------
	BYTE	W96
// 106   ----------------------------------------
	BYTE	W96
// 107   ----------------------------------------
	BYTE	W96
// 108   ----------------------------------------
	BYTE	W96
// 109   ----------------------------------------
	BYTE	W96
// 110   ----------------------------------------
	BYTE		N08     Cn4   v120
	BYTE	W08
	BYTE		        Ds4 
	BYTE	W08
	BYTE		        Gs4 
	BYTE	W08
	BYTE		        Fs4 
	BYTE	W08
	BYTE		        An4 
	BYTE	W08
	BYTE		        Dn5 
	BYTE	W08
	BYTE		        Gs4 
	BYTE	W08
	BYTE		        Cn5 
	BYTE	W08
	BYTE		        Ds5 
	BYTE	W08
	BYTE		        An4 
	BYTE	W08
	BYTE		        Dn5 
	BYTE	W08
	BYTE		        Fs5 
	BYTE	W08
// 111   ----------------------------------------
	BYTE		        An4 
	BYTE	W08
	BYTE		        Cn5 
	BYTE	W08
	BYTE		        Fn5 
	BYTE	W08
	BYTE		        Bn4 
	BYTE	W08
	BYTE		        Ds5 
	BYTE	W08
	BYTE		        Fs5 
	BYTE	W08
	BYTE		        Cn5 
	BYTE	W08
	BYTE		        Fn5 
	BYTE	W08
	BYTE		        An5 
	BYTE	W08
	BYTE		        Ds5 
	BYTE	W08
	BYTE		        Fs5 
	BYTE	W08
	BYTE		        Bn5 
	BYTE	W08
// 112   ----------------------------------------
	BYTE		N11     Cn4   v116
	BYTE	W12
	BYTE		N06     Dn4 
	BYTE	W06
	BYTE		        Ds4 
	BYTE	W06
	BYTE		        Fn4 
	BYTE	W06
	BYTE		        Gn4 
	BYTE	W06
	BYTE		        Gs4 
	BYTE	W06
	BYTE		        As4 
	BYTE	W06
	BYTE		        Cn5 
	BYTE	W06
	BYTE		        Cs5 
	BYTE	W06
	BYTE		        Cn5 
	BYTE	W06
	BYTE		        Cs5 
	BYTE	W06
	BYTE		        Cn5 
	BYTE	W06
	BYTE		        Cs5 
	BYTE	W06
	BYTE		        Cn5 
	BYTE	W06
	BYTE		        Cs5 
	BYTE	W06
// 113   ----------------------------------------
	BYTE		N11     Gs4 
	BYTE	W12
	BYTE		N06     As4 
	BYTE	W06
	BYTE		        Cn5 
	BYTE	W06
	BYTE		        Dn5 
	BYTE	W06
	BYTE		        Ds5 
	BYTE	W06
	BYTE		        Fn5 
	BYTE	W06
	BYTE		        Gn5 
	BYTE	W06
	BYTE		        Gs5 
	BYTE	W06
	BYTE		        As5 
	BYTE	W06
	BYTE		        Gs5 
	BYTE	W06
	BYTE		        As5 
	BYTE	W06
	BYTE		        Gs5 
	BYTE	W06
	BYTE		        As5 
	BYTE	W06
	BYTE		        Gs5 
	BYTE	W06
	BYTE		        As5 
	BYTE	W06
// 114   ----------------------------------------
	BYTE		N12     Cn4 
	BYTE	W12
	BYTE		N06     Dn4 
	BYTE	W06
	BYTE		        Ds4 
	BYTE	W06
	BYTE		        Fn4 
	BYTE	W06
	BYTE		        Gn4 
	BYTE	W06
	BYTE		        Gs4 
	BYTE	W06
	BYTE		        As4 
	BYTE	W06
	BYTE		        Cn5 
	BYTE	W06
	BYTE		        Cs5 
	BYTE	W06
	BYTE		        Cn5 
	BYTE	W06
	BYTE		        Cs5 
	BYTE	W06
	BYTE		        Cn5 
	BYTE	W06
	BYTE		        Cs5 
	BYTE	W06
	BYTE		        Cn5 
	BYTE	W06
	BYTE		        Cs5 
	BYTE	W06
// 115   ----------------------------------------
	BYTE		N12     Gs4 
	BYTE	W12
	BYTE		N06     As4 
	BYTE	W06
	BYTE		        Cn5 
	BYTE	W06
	BYTE		        Dn5 
	BYTE	W06
	BYTE		        Ds5 
	BYTE	W06
	BYTE		        Fn5 
	BYTE	W06
	BYTE		        Gn5 
	BYTE	W06
	BYTE		        Gs5 
	BYTE	W06
	BYTE		        As5 
	BYTE	W06
	BYTE		        Gs5 
	BYTE	W06
	BYTE		        As5 
	BYTE	W06
	BYTE		        Gs5 
	BYTE	W06
	BYTE		        As5 
	BYTE	W06
	BYTE		        Gs5 
	BYTE	W06
	BYTE		        As5 
	BYTE	W06
// 116   ----------------------------------------
	BYTE	W96
// 117   ----------------------------------------
	BYTE	W96
// 118   ----------------------------------------
	BYTE	W96
// 119   ----------------------------------------
	BYTE	W96
// 120   ----------------------------------------
	BYTE		        Dn5 
	BYTE	W16
	BYTE		N05     Fn5 
	BYTE	W08
	BYTE		N06     En5 
	BYTE	W08
	BYTE		        Fn5 
	BYTE	W08
	BYTE		        En5 
	BYTE	W08
	BYTE		N08     Dn5 
	BYTE	W16
	BYTE		N05     An5 
	BYTE	W08
	BYTE		N15     As5 
	BYTE	W16
	BYTE		N05     An5 
	BYTE	W08
// 121   ----------------------------------------
	BYTE		N07     Dn5 
	BYTE	W16
	BYTE		N06     Fn5 
	BYTE	W08
	BYTE		        En5 
	BYTE	W08
	BYTE		        Fn5 
	BYTE	W08
	BYTE		        En5 
	BYTE	W08
	BYTE		N08     Dn5 
	BYTE	W24
	BYTE		N17     Cn5 
	BYTE	W24
// 122   ----------------------------------------
	BYTE		N06     Fn5 
	BYTE	W16
	BYTE		        An5 
	BYTE	W08
	BYTE		        Gn5 
	BYTE	W08
	BYTE		        An5 
	BYTE	W08
	BYTE		        Gn5 
	BYTE	W08
	BYTE		N08     Fn5 
	BYTE	W16
	BYTE		N05     Cn6 
	BYTE	W08
	BYTE		N15     Dn6 
	BYTE	W16
	BYTE		N07     Cn6 
	BYTE	W08
// 123   ----------------------------------------
	BYTE		        Fn5 
	BYTE	W16
	BYTE		N06     An5 
	BYTE	W08
	BYTE		        Gn5 
	BYTE	W08
	BYTE		        An5 
	BYTE	W08
	BYTE		        Gn5 
	BYTE	W08
	BYTE		N08     Fn5 
	BYTE	W48
// 124   ----------------------------------------
	BYTE		        Gn4 
	BYTE	W16
	BYTE		N06     As4 
	BYTE	W08
	BYTE		        An4 
	BYTE	W08
	BYTE		        As4 
	BYTE	W08
	BYTE		        Cn5 
	BYTE	W08
	BYTE		N08     Dn5 
	BYTE	W16
	BYTE		N05     En5 
	BYTE	W08
	BYTE		N08     Fn5 
	BYTE	W16
	BYTE		N05     En5 
	BYTE	W08
// 125   ----------------------------------------
	BYTE		N08     Ds5 
	BYTE	W16
	BYTE		N05     Dn5 
	BYTE	W08
	BYTE		N08     Cn5 
	BYTE	W16
	BYTE		N05     As4 
	BYTE	W08
	BYTE		N08     An4 
	BYTE	W16
	BYTE		N05     Bn4 
	BYTE	W08
	BYTE		N08     Cs5 
	BYTE	W16
	BYTE		N05     En5 
	BYTE	W08
// 126   ----------------------------------------
	BYTE		N08     As4 
	BYTE	W16
	BYTE		N05     Cn5 
	BYTE	W08
	BYTE		N06     Dn5 
	BYTE	W08
	BYTE		        Cn5 
	BYTE	W08
	BYTE		        As4 
	BYTE	W08
	BYTE		N08     Gn4 
	BYTE	W16
	BYTE		N05     An4 
	BYTE	W08
	BYTE		N08     As4 
	BYTE	W16
	BYTE		N05     Dn5 
	BYTE	W08
// 127   ----------------------------------------
	BYTE		N06     An4 
	BYTE	W08
	BYTE		        En4 
	BYTE	W08
	BYTE		        An4 
	BYTE	W08
	BYTE		        Cs5 
	BYTE	W08
	BYTE		        An4 
	BYTE	W08
	BYTE		        Cs5 
	BYTE	W08
	BYTE		        En5 
	BYTE	W08
	BYTE		        Cs5 
	BYTE	W08
	BYTE		        En5 
	BYTE	W08
	BYTE		        Gn5 
	BYTE	W08
	BYTE		        Fn5 
	BYTE	W08
	BYTE		        En5 
	BYTE	W08
// 128   ----------------------------------------
	BYTE		N08     Dn5 
	BYTE	W96
// 129   ----------------------------------------
	BYTE	W96
// 130   ----------------------------------------
	BYTE	W96
// 131   ----------------------------------------
	BYTE	W96
// 132   ----------------------------------------
	BYTE	W96
// 133   ----------------------------------------
	BYTE		N05     Gn4 
	BYTE	W08
	BYTE		N06     Dn4 
	BYTE	W08
	BYTE		N05     Gn4 
	BYTE	W08
	BYTE		        Bn4 
	BYTE	W08
	BYTE		        Gn4 
	BYTE	W08
	BYTE		        Bn4 
	BYTE	W08
	BYTE		        Dn5 
	BYTE	W08
	BYTE		        Bn4 
	BYTE	W08
	BYTE		        Dn5 
	BYTE	W08
	BYTE		        Fn5 
	BYTE	W08
	BYTE		        Ds5 
	BYTE	W08
	BYTE		        Dn5 
	BYTE	W08
// 134   ----------------------------------------
	BYTE		N24     Cn5 
	BYTE	W96
// 135   ----------------------------------------
	BYTE	W96
	BYTE	GoTo
	 POIN2	BanjoKazooieGruntildaBattleSme_11_B1
BanjoKazooieGruntildaBattleSme_11_B2:
// 136   ----------------------------------------
	BYTE	FINE

//******************************************************//
	ALIGN 4

BanjoKazooieGruntildaBattleSme:
	BYTE	11	// NumTrks
	BYTE	0	// NumBlks
	BYTE	BanjoKazooieGruntildaBattleSme_pri	// Priority
	BYTE	BanjoKazooieGruntildaBattleSme_rev	// Reverb.

	POIN2	BanjoKazooieGruntildaBattleSme_grp

	POIN2	BanjoKazooieGruntildaBattleSme_1
	POIN2	BanjoKazooieGruntildaBattleSme_2
	POIN2	BanjoKazooieGruntildaBattleSme_3
	POIN2	BanjoKazooieGruntildaBattleSme_4
	POIN2	BanjoKazooieGruntildaBattleSme_5
	POIN2	BanjoKazooieGruntildaBattleSme_6
	POIN2	BanjoKazooieGruntildaBattleSme_7
	POIN2	BanjoKazooieGruntildaBattleSme_8
	POIN2	BanjoKazooieGruntildaBattleSme_9
	POIN2	BanjoKazooieGruntildaBattleSme_10
	POIN2	BanjoKazooieGruntildaBattleSme_11

	
