//Event file generated from Sappy .s format.
	#include "MPlayDef.event"

	#define	BanjoKazooieMadMonsterMansionSme_grp  voicegroup000
	#define	BanjoKazooieMadMonsterMansionSme_pri  0
	#define	BanjoKazooieMadMonsterMansionSme_rev  0
	#define	BanjoKazooieMadMonsterMansionSme_mvl  127
	#define	BanjoKazooieMadMonsterMansionSme_key  0
	#define	BanjoKazooieMadMonsterMansionSme_tbs  1
	#define	BanjoKazooieMadMonsterMansionSme_exg  0
	#define	BanjoKazooieMadMonsterMansionSme_cmp  1

	// .rodata
	//	BanjoKazooieMadMonsterMansionSme
	ALIGN 4


//**************** Track 1 (Midi-Chn.0) ****************//

BanjoKazooieMadMonsterMansionSme_001:
//  #01 //000   ----------------------------------------
 BYTE   KEYSH   BanjoKazooieMadMonsterMansionSme_key+0
 BYTE   TEMPO   130*BanjoKazooieMadMonsterMansionSme_tbs/2
 BYTE   VOICE   69
 BYTE   PAN   c_v-11
 BYTE   VOL   106*BanjoKazooieMadMonsterMansionSme_mvl/mxv
 BYTE   W96
//  #01 //001   ----------------------------------------
 BYTE   W96
//  #01 //002   ----------------------------------------
 BYTE   W96
//  #01 //003   ----------------------------------------
 BYTE   W96
//  #01 //004   ----------------------------------------
 BYTE   W96
//  #01 //005   ----------------------------------------
 BYTE   W96
//  #01 //006   ----------------------------------------
 BYTE   W96
//  #01 //007   ----------------------------------------
 BYTE   W96
//  #01 //008   ----------------------------------------
 BYTE   W96
//  #01 //009   ----------------------------------------
 BYTE   W96
//  #01 //010   ----------------------------------------
 BYTE   W96
//  #01 //011   ----------------------------------------
 BYTE   W96
//  #01 //012   ----------------------------------------
 BYTE   W96
//  #01 //013   ----------------------------------------
 BYTE   W96
//  #01 //014   ----------------------------------------
 BYTE   W96
//  #01 //015   ----------------------------------------
 BYTE   W96
//  #01 //016   ----------------------------------------
 BYTE   W96
//  #01 //017   ----------------------------------------
 BYTE   W96
//  #01 //018   ----------------------------------------
 BYTE   W96
//  #01 //019   ----------------------------------------
 BYTE   W96
//  #01 //020   ----------------------------------------
 BYTE   N23  Cn3  v102
 BYTE   W36
 BYTE   N10  Ds3  v117
 BYTE   W12
 BYTE   N15  Gn3  v104
 BYTE   W24
 BYTE   N17  Cn4  v110
 BYTE   W24
//  #01 //021   ----------------------------------------
 BYTE   N04  Gn3  v117
 BYTE   W04
 BYTE   Fs3
 BYTE   W04
 BYTE   Gn3
 BYTE   W04
 BYTE   Fs3
 BYTE   W04
 BYTE   Gn3
 BYTE   W04
 BYTE   Fs3
 BYTE   W04
 BYTE   Gn3
 BYTE   W04
 BYTE   Fs3
 BYTE   W04
 BYTE   Gn3
 BYTE   W04
 BYTE   Fs3
 BYTE   W04
 BYTE   Gn3
 BYTE   W04
 BYTE   Fs3
 BYTE   W04
 BYTE   N24  Gn3  v110  gtp2
 BYTE   W48
//  #01 //022   ----------------------------------------
 BYTE   N24  Gs3  v106  gtp1
 BYTE   W36
 BYTE   N08  Gn3  v098
 BYTE   W12
 BYTE   N13  Gs3  v103
 BYTE   W24
 BYTE   N16  Gn3  v096
 BYTE   W24
//  #01 //023   ----------------------------------------
 BYTE   N20  Fs3  v103
 BYTE   W24
 BYTE   N24  Dn3  v110
 BYTE   W24
 BYTE   N23  Gn3  v100
 BYTE   W24
 BYTE   N24  Gn2  v094
 BYTE   W24
//  #01 //024   ----------------------------------------
 BYTE   W96
//  #01 //025   ----------------------------------------
 BYTE   W96
//  #01 //026   ----------------------------------------
 BYTE   W96
//  #01 //027   ----------------------------------------
 BYTE   W96
//  #01 //028   ----------------------------------------
 BYTE   W96
//  #01 //029   ----------------------------------------
 BYTE   W96
//  #01 //030   ----------------------------------------
Label_545244:
 BYTE   N12  Cs3  v095
 BYTE   W24
 BYTE   N09  Gs2
 BYTE   W24
 BYTE   N32  Cs3  v095  gtp1
 BYTE   W36
 BYTE   N07  Gs2
 BYTE   W12
 BYTE   PEND 
//  #01 //031   ----------------------------------------
Label_545254:
 BYTE   N04  An2  v095
 BYTE   W12
 BYTE   N05  Bn2
 BYTE   W12
 BYTE   N16  Cn3
 BYTE   W24
 BYTE   N05
 BYTE   W12
 BYTE   Dn3
 BYTE   W12
 BYTE   N20  En3
 BYTE   W24
 BYTE   PEND 
//  #01 //032   ----------------------------------------
Label_545266:
 BYTE   N07  Cs3  v095
 BYTE   W24
 BYTE   N08  Gs2
 BYTE   W24
 BYTE   N32  Cs3  v095  gtp3
 BYTE   W36
 BYTE   N07  Gs2
 BYTE   W12
 BYTE   PEND 
//  #01 //033   ----------------------------------------
Label_545276:
 BYTE   N05  Gn2  v095
 BYTE   W12
 BYTE   An2
 BYTE   W12
 BYTE   N06  Bn2
 BYTE   W12
 BYTE   Cn3
 BYTE   W12
 BYTE   N04  Dn3
 BYTE   W12
 BYTE   N05  En3
 BYTE   W12
 BYTE   N06  Fn3
 BYTE   W12
 BYTE   Gn3
 BYTE   W12
 BYTE   PEND 
//  #01 //034   ----------------------------------------
Label_54528D:
 BYTE   N10  Cs3  v095
 BYTE   W24
 BYTE   N08  Gs2
 BYTE   W24
 BYTE   N32  Cs3  v095  gtp3
 BYTE   W36
 BYTE   N07  Gs2
 BYTE   W12
 BYTE   PEND 
//  #01 //035   ----------------------------------------
Label_54529D:
 BYTE   N05  An2  v095
 BYTE   W12
 BYTE   N06  Bn2
 BYTE   W12
 BYTE   N17  Cn3
 BYTE   W24
 BYTE   N07
 BYTE   W12
 BYTE   N05  Dn3
 BYTE   W12
 BYTE   N17  En3
 BYTE   W24
 BYTE   PEND 
//  #01 //036   ----------------------------------------
Label_5452B0:
 BYTE   N30  Cs3  v095  gtp1
 BYTE   W36
 BYTE   N08  Gs2
 BYTE   W12
 BYTE   N17  Cn3
 BYTE   W24
 BYTE   N18  Ds3
 BYTE   W24
 BYTE   PEND 
//  #01 //037   ----------------------------------------
Label_5452BF:
 BYTE   N21  En3  v095
 BYTE   W24
 BYTE   N08  Ds3
 BYTE   W18
 BYTE   N07
 BYTE   W06
 BYTE   N13  Cs3
 BYTE   W48
 BYTE   PEND 
//  #01 //038   ----------------------------------------
 BYTE   W96
//  #01 //039   ----------------------------------------
 BYTE   W96
//  #01 //040   ----------------------------------------
 BYTE   W96
//  #01 //041   ----------------------------------------
 BYTE   W96
//  #01 //042   ----------------------------------------
 BYTE   W96
//  #01 //043   ----------------------------------------
 BYTE   W96
//  #01 //044   ----------------------------------------
 BYTE   W96
//  #01 //045   ----------------------------------------
 BYTE   W96
//  #01 //046   ----------------------------------------
 BYTE   W96
//  #01 //047   ----------------------------------------
 BYTE   W96
//  #01 //048   ----------------------------------------
 BYTE   W96
//  #01 //049   ----------------------------------------
 BYTE   W96
//  #01 //050   ----------------------------------------
 BYTE   W96
//  #01 //051   ----------------------------------------
 BYTE   W96
//  #01 //052   ----------------------------------------
 BYTE   W96
//  #01 //053   ----------------------------------------
 BYTE   W96
//  #01 //054   ----------------------------------------
 BYTE   N19  Cs3  v110
 BYTE   W24
 BYTE   N07  Gs2
 BYTE   W12
 BYTE   N06  Cs3
 BYTE   W12
 BYTE   N17  Ds3
 BYTE   W24
 BYTE   N19  Fn3
 BYTE   W24
//  #01 //055   ----------------------------------------
 BYTE   N24  Cn3  v110  gtp2
 BYTE   W36
 BYTE   N06  Dn3
 BYTE   W12
 BYTE   N40  En3
 BYTE   W48
//  #01 //056   ----------------------------------------
 BYTE   N16  Bn2
 BYTE   W24
 BYTE   N07  Fs2
 BYTE   W12
 BYTE   N04  Bn2
 BYTE   W12
 BYTE   N18  Cs3
 BYTE   W24
 BYTE   N19  Ds3
 BYTE   W24
//  #01 //057   ----------------------------------------
 BYTE   N24  As2
 BYTE   W36
 BYTE   N06  Cn3
 BYTE   W12
 BYTE   N42  Dn3  v110  gtp1
 BYTE   W48
//  #01 //058   ----------------------------------------
 BYTE   N21  En2
 BYTE   W24
 BYTE   Bn2
 BYTE   W24
 BYTE   Cn3
 BYTE   W24
 BYTE   N16  Fn2
 BYTE   W24
//  #01 //059   ----------------------------------------
 BYTE   N22  Fs2
 BYTE   W24
 BYTE   N19  Cs3
 BYTE   W24
 BYTE   N22  Dn3
 BYTE   W24
 BYTE   Gn2
 BYTE   W24
//  #01 //060   ----------------------------------------
 BYTE   W24
 BYTE   FINE

//**************** Track 2 (Midi-Chn.1) ****************//

BanjoKazooieMadMonsterMansionSme_002:
//  #02 //000   ----------------------------------------
 BYTE   KEYSH   BanjoKazooieMadMonsterMansionSme_key+0
 BYTE   VOICE   19
 BYTE   VOL   119*BanjoKazooieMadMonsterMansionSme_mvl/mxv
 BYTE   PAN   c_v+11
 BYTE   W96
//  #02 //001   ----------------------------------------
 BYTE   W96
//  #02 //002   ----------------------------------------
 BYTE   W96
//  #02 //003   ----------------------------------------
 BYTE   W96
//  #02 //004   ----------------------------------------
 BYTE   W96
//  #02 //005   ----------------------------------------
 BYTE   W96
//  #02 //006   ----------------------------------------
 BYTE   W96
//  #02 //007   ----------------------------------------
 BYTE   W96
//  #02 //008   ----------------------------------------
 BYTE   W96
//  #02 //009   ----------------------------------------
 BYTE   W96
//  #02 //010   ----------------------------------------
 BYTE   W96
//  #02 //011   ----------------------------------------
 BYTE   W96
//  #02 //012   ----------------------------------------
 BYTE   W96
//  #02 //013   ----------------------------------------
 BYTE   W96
//  #02 //014   ----------------------------------------
 BYTE   W96
//  #02 //015   ----------------------------------------
 BYTE   W96
//  #02 //016   ----------------------------------------
 BYTE   W96
//  #02 //017   ----------------------------------------
 BYTE   W96
//  #02 //018   ----------------------------------------
 BYTE   W96
//  #02 //019   ----------------------------------------
 BYTE   W96
//  #02 //020   ----------------------------------------
 BYTE   W96
//  #02 //021   ----------------------------------------
 BYTE   W96
//  #02 //022   ----------------------------------------
 BYTE   W96
//  #02 //023   ----------------------------------------
 BYTE   W96
//  #02 //024   ----------------------------------------
 BYTE   W96
//  #02 //025   ----------------------------------------
 BYTE   W96
//  #02 //026   ----------------------------------------
 BYTE   W96
//  #02 //027   ----------------------------------------
 BYTE   W96
//  #02 //028   ----------------------------------------
 BYTE   W96
//  #02 //029   ----------------------------------------
 BYTE   W96
//  #02 //030   ----------------------------------------
 BYTE   W96
//  #02 //031   ----------------------------------------
 BYTE   W96
//  #02 //032   ----------------------------------------
 BYTE   W96
//  #02 //033   ----------------------------------------
 BYTE   W96
//  #02 //034   ----------------------------------------
 BYTE   W96
//  #02 //035   ----------------------------------------
 BYTE   W96
//  #02 //036   ----------------------------------------
 BYTE   W96
//  #02 //037   ----------------------------------------
 BYTE   W96
//  #02 //038   ----------------------------------------
 BYTE   PATT
  POIN2 Label_545244
//  #02 //039   ----------------------------------------
 BYTE   PATT
  POIN2 Label_545254
//  #02 //040   ----------------------------------------
 BYTE   PATT
  POIN2 Label_545266
//  #02 //041   ----------------------------------------
 BYTE   PATT
  POIN2 Label_545276
//  #02 //042   ----------------------------------------
 BYTE   PATT
  POIN2 Label_54528D
//  #02 //043   ----------------------------------------
 BYTE   PATT
  POIN2 Label_54529D
//  #02 //044   ----------------------------------------
 BYTE   PATT
  POIN2 Label_5452B0
//  #02 //045   ----------------------------------------
 BYTE   PATT
  POIN2 Label_5452BF
//  #02 //046   ----------------------------------------
 BYTE   W96
//  #02 //047   ----------------------------------------
 BYTE   W96
//  #02 //048   ----------------------------------------
 BYTE   W96
//  #02 //049   ----------------------------------------
 BYTE   W96
//  #02 //050   ----------------------------------------
 BYTE   W96
//  #02 //051   ----------------------------------------
 BYTE   W96
//  #02 //052   ----------------------------------------
 BYTE   W96
//  #02 //053   ----------------------------------------
 BYTE   W96
//  #02 //054   ----------------------------------------
 BYTE   W96
//  #02 //055   ----------------------------------------
 BYTE   W96
//  #02 //056   ----------------------------------------
 BYTE   W96
//  #02 //057   ----------------------------------------
 BYTE   W96
//  #02 //058   ----------------------------------------
 BYTE   W96
//  #02 //059   ----------------------------------------
 BYTE   W96
//  #02 //060   ----------------------------------------
 BYTE   W24
 BYTE   FINE

//**************** Track 3 (Midi-Chn.2) ****************//

BanjoKazooieMadMonsterMansionSme_003:
//  #03 //000   ----------------------------------------
 BYTE   KEYSH   BanjoKazooieMadMonsterMansionSme_key+0
 BYTE   VOICE   49
 BYTE   VOL   85*BanjoKazooieMadMonsterMansionSme_mvl/mxv
 BYTE   PAN   c_v-29
 BYTE   W12
 BYTE   N06  Gn2  v060
 BYTE   N06  Ds2
 BYTE   N06  Cn2
 BYTE   W24
 BYTE   Gn2
 BYTE   N06  Ds2
 BYTE   N06  Cn2
 BYTE   W24
 BYTE   Gn2
 BYTE   N06  Ds2
 BYTE   N06  Cn2
 BYTE   W24
 BYTE   Gn2
 BYTE   N06  Ds2
 BYTE   N06  Cn2
 BYTE   W12
//  #03 //001   ----------------------------------------
Label_01001E4F:
 BYTE   W12
 BYTE   N06  Gs2  v060
 BYTE   N06  Ds2
 BYTE   N06  Bn1
 BYTE   W24
 BYTE   Gs2
 BYTE   N06  Ds2
 BYTE   N06  Bn1
 BYTE   W24
 BYTE   Gs2
 BYTE   N06  Ds2
 BYTE   N06  Bn1
 BYTE   W24
 BYTE   Gs2
 BYTE   N06  Ds2
 BYTE   N06  Bn1
 BYTE   W12
 BYTE   PEND 
//  #03 //002   ----------------------------------------
Label_01001E6B:
 BYTE   W12
 BYTE   N06  Gn2  v060
 BYTE   N06  Ds2
 BYTE   N06  Cn2
 BYTE   W24
 BYTE   Gn2
 BYTE   N06  Ds2
 BYTE   N06  Cn2
 BYTE   W24
 BYTE   Gn2
 BYTE   N06  Ds2
 BYTE   N06  Cn2
 BYTE   W24
 BYTE   Gn2
 BYTE   N06  Ds2
 BYTE   N06  Cn2
 BYTE   W12
 BYTE   PEND 
//  #03 //003   ----------------------------------------
Label_01001E87:
 BYTE   W12
 BYTE   N06  Fs2  v060
 BYTE   N06  Cs2
 BYTE   N06  As1
 BYTE   W24
 BYTE   Fs2
 BYTE   N06  Cs2
 BYTE   N06  As1
 BYTE   W24
 BYTE   Fs2
 BYTE   N06  Cs2
 BYTE   N06  As1
 BYTE   W24
 BYTE   Fs2
 BYTE   N06  Cs2
 BYTE   N06  As1
 BYTE   W12
 BYTE   PEND 
//  #03 //004   ----------------------------------------
 BYTE   PATT
  POIN2 Label_01001E6B
//  #03 //005   ----------------------------------------
 BYTE   PATT
  POIN2 Label_01001E4F
//  #03 //006   ----------------------------------------
Label_01001EAD:
 BYTE   W12
 BYTE   N06  Gn2  v060
 BYTE   N06  Ds2
 BYTE   N06  Cn2
 BYTE   W24
 BYTE   Gn2
 BYTE   N06  Ds2
 BYTE   N06  Cn2
 BYTE   W24
 BYTE   Gn2
 BYTE   N06  Fn2
 BYTE   N06  Dn2
 BYTE   N06  Bn1
 BYTE   W24
 BYTE   Gn2
 BYTE   N06  Fn2
 BYTE   N06  Dn2
 BYTE   N06  Bn1
 BYTE   W12
 BYTE   PEND 
//  #03 //007   ----------------------------------------
 BYTE   PATT
  POIN2 Label_01001EAD
//  #03 //008   ----------------------------------------
 BYTE   PATT
  POIN2 Label_01001E6B
//  #03 //009   ----------------------------------------
 BYTE   PATT
  POIN2 Label_01001E4F
//  #03 //010   ----------------------------------------
 BYTE   PATT
  POIN2 Label_01001E6B
//  #03 //011   ----------------------------------------
 BYTE   PATT
  POIN2 Label_01001E87
//  #03 //012   ----------------------------------------
 BYTE   PATT
  POIN2 Label_01001E6B
//  #03 //013   ----------------------------------------
 BYTE   PATT
  POIN2 Label_01001E4F
//  #03 //014   ----------------------------------------
 BYTE   PATT
  POIN2 Label_01001EAD
//  #03 //015   ----------------------------------------
 BYTE   PATT
  POIN2 Label_01001EAD
//  #03 //016   ----------------------------------------
Label_01001EFA:
 BYTE   N07  Gn4  v045
 BYTE   N07  Ds4
 BYTE   N07  Cn4
 BYTE   W24
 BYTE   Gn4
 BYTE   N07  Ds4
 BYTE   N07  Cn4
 BYTE   W24
 BYTE   Gn4
 BYTE   N07  Ds4
 BYTE   N07  Cn4
 BYTE   W24
 BYTE   Gn4
 BYTE   N07  Ds4
 BYTE   N07  Cn4
 BYTE   W24
 BYTE   PEND 
//  #03 //017   ----------------------------------------
Label_01001F15:
 BYTE   N07  Fs4  v045
 BYTE   N07  Ds4
 BYTE   N07  Cn4
 BYTE   W24
 BYTE   Fs4
 BYTE   N07  Ds4
 BYTE   N07  Cn4
 BYTE   W24
 BYTE   Gn4
 BYTE   N07  Ds4
 BYTE   N07  Cn4
 BYTE   W24
 BYTE   Gn4
 BYTE   N07  Ds4
 BYTE   N07  Cn4
 BYTE   W24
 BYTE   PEND 
//  #03 //018   ----------------------------------------
Label_01001F30:
 BYTE   N07  Gs4  v045
 BYTE   N07  Fn4
 BYTE   N07  Cn4
 BYTE   W24
 BYTE   Gs4
 BYTE   N07  Fn4
 BYTE   N07  Cn4
 BYTE   W24
 BYTE   Gs4
 BYTE   N07  Fn4
 BYTE   N07  Cn4
 BYTE   W24
 BYTE   Gs4
 BYTE   N07  Fn4
 BYTE   N07  Cn4
 BYTE   W24
 BYTE   PEND 
//  #03 //019   ----------------------------------------
Label_01001F4B:
 BYTE   N07  An4  v045
 BYTE   N07  Fs4
 BYTE   N07  Cn4
 BYTE   W24
 BYTE   An4
 BYTE   N07  Fs4
 BYTE   N07  Dn4
 BYTE   N07  Cn4
 BYTE   W24
 BYTE   Gn4
 BYTE   N07  Dn4
 BYTE   N07  Bn3
 BYTE   W24
 BYTE   Gn4
 BYTE   N07  Dn4
 BYTE   N07  Bn3
 BYTE   W24
 BYTE   PEND 
//  #03 //020   ----------------------------------------
 BYTE   PATT
  POIN2 Label_01001EFA
//  #03 //021   ----------------------------------------
 BYTE   PATT
  POIN2 Label_01001F15
//  #03 //022   ----------------------------------------
 BYTE   PATT
  POIN2 Label_01001F30
//  #03 //023   ----------------------------------------
 BYTE   PATT
  POIN2 Label_01001F4B
//  #03 //024   ----------------------------------------
Label_01001F7C:
 BYTE   W12
 BYTE   N06  Gn2  v060
 BYTE   N06  Ds2
 BYTE   N06  Cn2
 BYTE   W24
 BYTE   Gn2
 BYTE   N06  Ds2
 BYTE   N06  Cn2
 BYTE   W24
 BYTE   Fs2
 BYTE   N06  Cs2
 BYTE   N06  An1
 BYTE   W24
 BYTE   Fs2
 BYTE   N06  Cs2
 BYTE   N06  An1
 BYTE   W12
 BYTE   PEND 
//  #03 //025   ----------------------------------------
Label_01001F98:
 BYTE   W12
 BYTE   N06  Gn2  v060
 BYTE   N06  Ds2
 BYTE   N06  Cn2
 BYTE   W24
 BYTE   Gn2
 BYTE   N06  Ds2
 BYTE   N06  Cn2
 BYTE   W24
 BYTE   Fs2
 BYTE   N06  Dn2
 BYTE   N06  Bn1
 BYTE   W24
 BYTE   Fs2
 BYTE   N06  Dn2
 BYTE   N06  Bn1
 BYTE   W12
 BYTE   PEND 
//  #03 //026   ----------------------------------------
 BYTE   PATT
  POIN2 Label_01001F7C
//  #03 //027   ----------------------------------------
 BYTE   PATT
  POIN2 Label_01001F98
//  #03 //028   ----------------------------------------
Label_01001FBE:
 BYTE   W12
 BYTE   N06  Gs2  v060
 BYTE   N06  En2
 BYTE   N06  Cs2
 BYTE   W24
 BYTE   Gs2
 BYTE   N06  En2
 BYTE   N06  Cs2
 BYTE   W24
 BYTE   Gs2
 BYTE   N06  En2
 BYTE   N06  Cs2
 BYTE   W24
 BYTE   Gs2
 BYTE   N06  En2
 BYTE   N06  Cs2
 BYTE   W12
 BYTE   PEND 
//  #03 //029   ----------------------------------------
 BYTE   PATT
  POIN2 Label_01001FBE
//  #03 //030   ----------------------------------------
 BYTE   PATT
  POIN2 Label_01001FBE
//  #03 //031   ----------------------------------------
Label_01001FE4:
 BYTE   W12
 BYTE   N06  An2  v060
 BYTE   N06  En2
 BYTE   N06  Cn2
 BYTE   W24
 BYTE   An2
 BYTE   N06  En2
 BYTE   N06  Cn2
 BYTE   W24
 BYTE   An2
 BYTE   N06  En2
 BYTE   N06  Cn2
 BYTE   W24
 BYTE   An2
 BYTE   N06  En2
 BYTE   N06  Cn2
 BYTE   W12
 BYTE   PEND 
//  #03 //032   ----------------------------------------
 BYTE   PATT
  POIN2 Label_01001FBE
//  #03 //033   ----------------------------------------
 BYTE   W12
 BYTE   N06  Gn2  v060
 BYTE   N06  Dn2
 BYTE   N06  Bn1
 BYTE   W24
 BYTE   Gn2
 BYTE   N06  Dn2
 BYTE   N06  Bn1
 BYTE   W24
 BYTE   Gn2
 BYTE   N06  Dn2
 BYTE   N06  Bn1
 BYTE   W24
 BYTE   Gn2
 BYTE   N06  Dn2
 BYTE   N06  Bn1
 BYTE   W12
//  #03 //034   ----------------------------------------
 BYTE   PATT
  POIN2 Label_01001FBE
//  #03 //035   ----------------------------------------
 BYTE   PATT
  POIN2 Label_01001FE4
//  #03 //036   ----------------------------------------
Label_0100202A:
 BYTE   W12
 BYTE   N06  Gs2  v060
 BYTE   N06  En2
 BYTE   N06  Cs2
 BYTE   W24
 BYTE   Gs2
 BYTE   N06  En2
 BYTE   N06  Cs2
 BYTE   W24
 BYTE   Gs2
 BYTE   N06  Fs2
 BYTE   N06  Ds2
 BYTE   N06  Cn2
 BYTE   W24
 BYTE   Gs2
 BYTE   N06  Fs2
 BYTE   N06  Ds2
 BYTE   N06  Cn2
 BYTE   W12
 BYTE   PEND 
//  #03 //037   ----------------------------------------
 BYTE   PATT
  POIN2 Label_0100202A
//  #03 //038   ----------------------------------------
 BYTE   W96
//  #03 //039   ----------------------------------------
 BYTE   W96
//  #03 //040   ----------------------------------------
 BYTE   W96
//  #03 //041   ----------------------------------------
 BYTE   W96
//  #03 //042   ----------------------------------------
 BYTE   W96
//  #03 //043   ----------------------------------------
 BYTE   W96
//  #03 //044   ----------------------------------------
 BYTE   W96
//  #03 //045   ----------------------------------------
 BYTE   W96
//  #03 //046   ----------------------------------------
Label_01002057:
 BYTE   N48  Cs5  v020
 BYTE   N48  Gs4
 BYTE   N48  En4
 BYTE   W48
 BYTE   As4
 BYTE   N48  Gn4
 BYTE   N48  Dn4
 BYTE   W48
 BYTE   PEND 
//  #03 //047   ----------------------------------------
Label_01002066:
 BYTE   N48  Cs5  v020
 BYTE   N48  Gs4
 BYTE   N48  En4
 BYTE   W48
 BYTE   Cn5
 BYTE   N48  Gn4
 BYTE   N48  Ds4
 BYTE   W48
 BYTE   PEND 
//  #03 //048   ----------------------------------------
 BYTE   PATT
  POIN2 Label_01002057
//  #03 //049   ----------------------------------------
 BYTE   PATT
  POIN2 Label_01002066
//  #03 //050   ----------------------------------------
 BYTE   PATT
  POIN2 Label_01002057
//  #03 //051   ----------------------------------------
 BYTE   PATT
  POIN2 Label_01002066
//  #03 //052   ----------------------------------------
 BYTE   PATT
  POIN2 Label_01002057
//  #03 //053   ----------------------------------------
 BYTE   PATT
  POIN2 Label_01002066
//  #03 //054   ----------------------------------------
 BYTE   W12
 BYTE   N06  Gs3  v047
 BYTE   N06  Fn3  v050
 BYTE   N06  Cs3  v045
 BYTE   W24
 BYTE   Gs3  v047
 BYTE   N06  Fn3  v050
 BYTE   N06  Cs3  v045
 BYTE   W24
 BYTE   Gs3  v047
 BYTE   N06  Fn3  v050
 BYTE   N06  Cs3  v045
 BYTE   W24
 BYTE   Gs3  v047
 BYTE   N06  Fn3  v050
 BYTE   N06  Cs3  v045
 BYTE   W12
//  #03 //055   ----------------------------------------
 BYTE   W12
 BYTE   Gn3  v033
 BYTE   N06  En3  v044
 BYTE   N06  Cn3  v047
 BYTE   W24
 BYTE   Gn3  v033
 BYTE   N06  En3  v044
 BYTE   N06  Cn3  v047
 BYTE   W24
 BYTE   Gn3  v033
 BYTE   N06  En3  v044
 BYTE   N06  Cn3  v047
 BYTE   W24
 BYTE   Gn3  v033
 BYTE   N06  En3  v044
 BYTE   N06  Cn3  v047
 BYTE   W12
//  #03 //056   ----------------------------------------
 BYTE   W12
 BYTE   Fs3  v048
 BYTE   N06  Ds3  v045
 BYTE   N06  Bn2  v052
 BYTE   W24
 BYTE   Fs3  v048
 BYTE   N06  Ds3  v045
 BYTE   N06  Bn2  v052
 BYTE   W24
 BYTE   Fs3  v048
 BYTE   N06  Ds3  v045
 BYTE   N06  Bn2  v052
 BYTE   W24
 BYTE   Fs3  v048
 BYTE   N06  Ds3  v045
 BYTE   N06  Bn2  v052
 BYTE   W12
//  #03 //057   ----------------------------------------
 BYTE   W12
 BYTE   Fn3  v027
 BYTE   N06  Dn3  v048
 BYTE   N06  As2  v052
 BYTE   W24
 BYTE   Fn3  v027
 BYTE   N06  Dn3  v048
 BYTE   N06  As2  v052
 BYTE   W24
 BYTE   Fn3  v027
 BYTE   N06  Dn3  v048
 BYTE   N06  As2  v052
 BYTE   W24
 BYTE   Fn3  v027
 BYTE   N06  Dn3  v048
 BYTE   N06  As2  v052
 BYTE   W12
//  #03 //058   ----------------------------------------
 BYTE   W96
//  #03 //059   ----------------------------------------
 BYTE   W96
//  #03 //060   ----------------------------------------
 BYTE   W24
 BYTE   FINE

//**************** Track 4 (Midi-Chn.3) ****************//

BanjoKazooieMadMonsterMansionSme_004:
//  #04 //000   ----------------------------------------
 BYTE   KEYSH   BanjoKazooieMadMonsterMansionSme_key+0
 BYTE   VOICE   34
 BYTE   VOL   73*BanjoKazooieMadMonsterMansionSme_mvl/mxv
 BYTE   PAN   c_v+21
 BYTE   N11  Cn2  v125
 BYTE   W24
 BYTE   N12  Gn1  v114
 BYTE   W24
 BYTE   N11  Cn2  v125
 BYTE   W24
 BYTE   N13  Gn1  v112
 BYTE   W24
//  #04 //001   ----------------------------------------
Label_54567C:
 BYTE   N12  Gs1  v127
 BYTE   W24
 BYTE   N15  Ds1  v116
 BYTE   W24
 BYTE   N11  Gs1  v127
 BYTE   W24
 BYTE   N15  Ds1  v110
 BYTE   W24
 BYTE   PEND 
//  #04 //002   ----------------------------------------
Label_54568D:
 BYTE   N12  Cn2  v125
 BYTE   W24
 BYTE   N13  Gn1  v114
 BYTE   W24
 BYTE   N12  Cn2  v122
 BYTE   W24
 BYTE   N14  Gn1  v110
 BYTE   W24
 BYTE   PEND 
//  #04 //003   ----------------------------------------
Label_54569E:
 BYTE   N15  Fs1  v116
 BYTE   W24
 BYTE   Cs2  v127
 BYTE   W24
 BYTE   N05  Fs1
 BYTE   W12
 BYTE   N07  Fs1  v123
 BYTE   W12
 BYTE   N06  Gs1  v127
 BYTE   W12
 BYTE   N05  As1  v110
 BYTE   W12
 BYTE   PEND 
//  #04 //004   ----------------------------------------
Label_5456B5:
 BYTE   N11  Cn2  v122
 BYTE   W24
 BYTE   N12  Gn1  v117
 BYTE   W24
 BYTE   N11  Cn2  v127
 BYTE   W24
 BYTE   N14  Gn1  v120
 BYTE   W24
 BYTE   PEND 
//  #04 //005   ----------------------------------------
Label_5456C6:
 BYTE   N13  Gs1  v123
 BYTE   W24
 BYTE   N15  Dn1  v114
 BYTE   W24
 BYTE   N13  Gs1  v123
 BYTE   W24
 BYTE   N14  Ds1
 BYTE   W24
 BYTE   PEND 
//  #04 //006   ----------------------------------------
Label_5456D6:
 BYTE   N12  Cn2  v125
 BYTE   W24
 BYTE   N15  Gn1  v120
 BYTE   W24
 BYTE   N14  Gn1  v125
 BYTE   W24
 BYTE   N15  Bn1
 BYTE   W24
 BYTE   PEND 
//  #04 //007   ----------------------------------------
Label_5456E6:
 BYTE   N12  Cn2  v125
 BYTE   W24
 BYTE   N14  Gn1  v120
 BYTE   W24
 BYTE   N09  Cn2  v127
 BYTE   W12
 BYTE   N06  Gn1
 BYTE   W12
 BYTE   An1  v125
 BYTE   W12
 BYTE   N07  Bn1  v127
 BYTE   W12
 BYTE   PEND 
//  #04 //008   ----------------------------------------
 BYTE   N11  Cn2  v125
 BYTE   W24
 BYTE   N12  Gn1  v114
 BYTE   W24
 BYTE   N11  Cn2  v125
 BYTE   W24
 BYTE   N13  Gn1  v112
 BYTE   W24
//  #04 //009   ----------------------------------------
 BYTE   PATT
  POIN2 Label_54567C
//  #04 //010   ----------------------------------------
 BYTE   PATT
  POIN2 Label_54568D
//  #04 //011   ----------------------------------------
 BYTE   PATT
  POIN2 Label_54569E
//  #04 //012   ----------------------------------------
 BYTE   PATT
  POIN2 Label_5456B5
//  #04 //013   ----------------------------------------
 BYTE   PATT
  POIN2 Label_5456C6
//  #04 //014   ----------------------------------------
 BYTE   PATT
  POIN2 Label_5456D6
//  #04 //015   ----------------------------------------
 BYTE   PATT
  POIN2 Label_5456E6
//  #04 //016   ----------------------------------------
Label_545730:
 BYTE   N23  Cn2  v092
 BYTE   W36
 BYTE   N10  Ds2  v107
 BYTE   W12
 BYTE   N15  Gn2  v094
 BYTE   W24
 BYTE   N17  Cn3  v100
 BYTE   W24
 BYTE   PEND 
//  #04 //017   ----------------------------------------
Label_545741:
 BYTE   N04  Gn2  v107
 BYTE   W04
 BYTE   Fs2
 BYTE   W04
 BYTE   Gn2
 BYTE   W04
 BYTE   Fs2
 BYTE   W04
 BYTE   Gn2
 BYTE   W04
 BYTE   Fs2
 BYTE   W04
 BYTE   Gn2
 BYTE   W04
 BYTE   Fs2
 BYTE   W04
 BYTE   Gn2
 BYTE   W04
 BYTE   Fs2
 BYTE   W04
 BYTE   Gn2
 BYTE   W04
 BYTE   Fs2
 BYTE   W04
 BYTE   N24  Gn2  v100  gtp2
 BYTE   W48
 BYTE   PEND 
//  #04 //018   ----------------------------------------
Label_545761:
 BYTE   N24  Gs2  v096  gtp1
 BYTE   W36
 BYTE   N08  Gn2  v088
 BYTE   W12
 BYTE   N13  Gs2  v093
 BYTE   W24
 BYTE   N16  Gn2  v086
 BYTE   W24
 BYTE   PEND 
//  #04 //019   ----------------------------------------
Label_545773:
 BYTE   N20  Fs2  v093
 BYTE   W24
 BYTE   N24  Dn2  v100
 BYTE   W24
 BYTE   N23  Gn2  v090
 BYTE   W24
 BYTE   N24  Gn1  v084
 BYTE   W24
 BYTE   PEND 
//  #04 //020   ----------------------------------------
 BYTE   PATT
  POIN2 Label_545730
//  #04 //021   ----------------------------------------
 BYTE   PATT
  POIN2 Label_545741
//  #04 //022   ----------------------------------------
 BYTE   PATT
  POIN2 Label_545761
//  #04 //023   ----------------------------------------
 BYTE   PATT
  POIN2 Label_545773
//  #04 //024   ----------------------------------------
 BYTE   N16  Cn2  v117
 BYTE   W24
 BYTE   Gn1  v110
 BYTE   W24
 BYTE   Fs1  v107
 BYTE   W24
 BYTE   N17  Cs2  v116
 BYTE   W24
//  #04 //025   ----------------------------------------
 BYTE   Cn2  v117
 BYTE   W24
 BYTE   Gn1  v114
 BYTE   W24
 BYTE   Bn1
 BYTE   W24
 BYTE   Fs1  v101
 BYTE   W24
//  #04 //026   ----------------------------------------
 BYTE   N18  Cn2  v112
 BYTE   W24
 BYTE   Gn1
 BYTE   W24
 BYTE   N17  Fs1  v101
 BYTE   W24
 BYTE   Cs2  v116
 BYTE   W24
//  #04 //027   ----------------------------------------
 BYTE   N18  Cn2  v117
 BYTE   W24
 BYTE   N17  Gn1  v112
 BYTE   W24
 BYTE   N18  Bn1
 BYTE   W24
 BYTE   N19  Fs1  v116
 BYTE   W24
//  #04 //028   ----------------------------------------
Label_5457CD:
 BYTE   N11  Cs2  v125
 BYTE   W24
 BYTE   N12  Gs1  v114
 BYTE   W24
 BYTE   N11  Cs2  v125
 BYTE   W24
 BYTE   N13  Gs1  v112
 BYTE   W24
 BYTE   PEND 
//  #04 //029   ----------------------------------------
Label_5457DE:
 BYTE   N12  Cs2  v125
 BYTE   W24
 BYTE   N14  Gs1  v120
 BYTE   W24
 BYTE   N09  Cs2  v127
 BYTE   W12
 BYTE   N06  Gs1
 BYTE   W12
 BYTE   As1  v125
 BYTE   W12
 BYTE   N07  Cn2  v127
 BYTE   W12
 BYTE   PEND 
//  #04 //030   ----------------------------------------
 BYTE   PATT
  POIN2 Label_5457CD
//  #04 //031   ----------------------------------------
 BYTE   N12  An1  v127
 BYTE   W24
 BYTE   N15  En1  v116
 BYTE   W24
 BYTE   N11  An1  v127
 BYTE   W24
 BYTE   N15  En1  v110
 BYTE   W24
//  #04 //032   ----------------------------------------
 BYTE   N12  Cs2  v125
 BYTE   W24
 BYTE   N13  Gs1  v114
 BYTE   W24
 BYTE   N12  Cs2  v122
 BYTE   W24
 BYTE   N14  Gs1  v110
 BYTE   W24
//  #04 //033   ----------------------------------------
 BYTE   N15  Gn1  v116
 BYTE   W24
 BYTE   Dn2  v127
 BYTE   W24
 BYTE   N05  Gn1
 BYTE   W12
 BYTE   N07  Gn1  v123
 BYTE   W12
 BYTE   N06  An1  v127
 BYTE   W12
 BYTE   N05  Bn1  v110
 BYTE   W12
//  #04 //034   ----------------------------------------
 BYTE   N11  Cs2  v122
 BYTE   W24
 BYTE   N12  Gs1  v117
 BYTE   W24
 BYTE   N11  Cs2  v127
 BYTE   W24
 BYTE   N14  Gs1  v120
 BYTE   W24
//  #04 //035   ----------------------------------------
 BYTE   N13  An1  v123
 BYTE   W24
 BYTE   N15  Ds1  v114
 BYTE   W24
 BYTE   N13  An1  v123
 BYTE   W24
 BYTE   N14  En1
 BYTE   W24
//  #04 //036   ----------------------------------------
 BYTE   N12  Cs2  v125
 BYTE   W24
 BYTE   N15  Gs1  v120
 BYTE   W24
 BYTE   N14  Gs1  v125
 BYTE   W24
 BYTE   N15  Cn2
 BYTE   W24
//  #04 //037   ----------------------------------------
 BYTE   PATT
  POIN2 Label_5457DE
//  #04 //038   ----------------------------------------
 BYTE   W96
//  #04 //039   ----------------------------------------
 BYTE   W96
//  #04 //040   ----------------------------------------
 BYTE   W96
//  #04 //041   ----------------------------------------
 BYTE   W96
//  #04 //042   ----------------------------------------
 BYTE   W96
//  #04 //043   ----------------------------------------
 BYTE   W96
//  #04 //044   ----------------------------------------
 BYTE   W96
//  #04 //045   ----------------------------------------
 BYTE   W96
//  #04 //046   ----------------------------------------
 BYTE   W96
//  #04 //047   ----------------------------------------
 BYTE   W96
//  #04 //048   ----------------------------------------
 BYTE   W96
//  #04 //049   ----------------------------------------
 BYTE   W96
//  #04 //050   ----------------------------------------
 BYTE   N10  Cs2  v127
 BYTE   W36
 BYTE   N07
 BYTE   W12
 BYTE   N11  Gn1  v124
 BYTE   W36
 BYTE   N07  Gn1  v127
 BYTE   W12
//  #04 //051   ----------------------------------------
 BYTE   N09  Cs2
 BYTE   W36
 BYTE   N06
 BYTE   W12
 BYTE   N08  Cn2  v118
 BYTE   W24
 BYTE   N10  Cn2  v100
 BYTE   W24
//  #04 //052   ----------------------------------------
 BYTE   Cs2  v127
 BYTE   W36
 BYTE   N07
 BYTE   W12
 BYTE   N09  Gn1  v120
 BYTE   W36
 BYTE   N08  Gn1  v118
 BYTE   W12
//  #04 //053   ----------------------------------------
 BYTE   N09  Cs2  v127
 BYTE   W36
 BYTE   N06
 BYTE   W12
 BYTE   N09  Cn2  v122
 BYTE   W24
 BYTE   N08  Cn2  v127
 BYTE   W24
//  #04 //054   ----------------------------------------
 BYTE   N17  Cs2  v105
 BYTE   W24
 BYTE   Gs1
 BYTE   W24
 BYTE   Cs2
 BYTE   W24
 BYTE   Gs1
 BYTE   W24
//  #04 //055   ----------------------------------------
 BYTE   Cn2
 BYTE   W24
 BYTE   Gn1
 BYTE   W24
 BYTE   Cn2
 BYTE   W24
 BYTE   Gn1
 BYTE   W24
//  #04 //056   ----------------------------------------
 BYTE   Bn1
 BYTE   W24
 BYTE   Fs1
 BYTE   W24
 BYTE   Bn1
 BYTE   W24
 BYTE   Fs1
 BYTE   W24
//  #04 //057   ----------------------------------------
 BYTE   As1
 BYTE   W24
 BYTE   Fn1
 BYTE   W24
 BYTE   As1
 BYTE   W24
 BYTE   Fn1
 BYTE   W24
//  #04 //058   ----------------------------------------
 BYTE   N20  En2  v057
 BYTE   W24
 BYTE   En2
 BYTE   W24
 BYTE   Fn2
 BYTE   W24
 BYTE   Fn2
 BYTE   W24
//  #04 //059   ----------------------------------------
 BYTE   Fs2
 BYTE   W24
 BYTE   Fs2
 BYTE   W24
 BYTE   Gn2
 BYTE   W24
 BYTE   Gn2
 BYTE   W24
//  #04 //060   ----------------------------------------
 BYTE   W24
 BYTE   FINE

//**************** Track 5 (Midi-Chn.4) ****************//

BanjoKazooieMadMonsterMansionSme_005:
//  #05 //000   ----------------------------------------
 BYTE   KEYSH   BanjoKazooieMadMonsterMansionSme_key+0
 BYTE   VOICE   61
 BYTE   VOL   87*BanjoKazooieMadMonsterMansionSme_mvl/mxv
 BYTE   PAN   c_v+21
 BYTE   W96
//  #05 //001   ----------------------------------------
 BYTE   W96
//  #05 //002   ----------------------------------------
 BYTE   W96
//  #05 //003   ----------------------------------------
 BYTE   W96
//  #05 //004   ----------------------------------------
 BYTE   W96
//  #05 //005   ----------------------------------------
 BYTE   W96
//  #05 //006   ----------------------------------------
 BYTE   W96
//  #05 //007   ----------------------------------------
 BYTE   W96
//  #05 //008   ----------------------------------------
 BYTE   W96
//  #05 //009   ----------------------------------------
 BYTE   W96
//  #05 //010   ----------------------------------------
 BYTE   W96
//  #05 //011   ----------------------------------------
 BYTE   W96
//  #05 //012   ----------------------------------------
 BYTE   W96
//  #05 //013   ----------------------------------------
 BYTE   W96
//  #05 //014   ----------------------------------------
 BYTE   W96
//  #05 //015   ----------------------------------------
 BYTE   W96
//  #05 //016   ----------------------------------------
 BYTE   W96
//  #05 //017   ----------------------------------------
 BYTE   W96
//  #05 //018   ----------------------------------------
 BYTE   W96
//  #05 //019   ----------------------------------------
 BYTE   W96
//  #05 //020   ----------------------------------------
 BYTE   W96
//  #05 //021   ----------------------------------------
 BYTE   W96
//  #05 //022   ----------------------------------------
 BYTE   W96
//  #05 //023   ----------------------------------------
 BYTE   W96
//  #05 //024   ----------------------------------------
 BYTE   W96
//  #05 //025   ----------------------------------------
 BYTE   W96
//  #05 //026   ----------------------------------------
 BYTE   W96
//  #05 //027   ----------------------------------------
 BYTE   W96
//  #05 //028   ----------------------------------------
 BYTE   W96
//  #05 //029   ----------------------------------------
 BYTE   W96
//  #05 //030   ----------------------------------------
 BYTE   W96
//  #05 //031   ----------------------------------------
 BYTE   W96
//  #05 //032   ----------------------------------------
 BYTE   W96
//  #05 //033   ----------------------------------------
 BYTE   W96
//  #05 //034   ----------------------------------------
 BYTE   W96
//  #05 //035   ----------------------------------------
 BYTE   W96
//  #05 //036   ----------------------------------------
 BYTE   W96
//  #05 //037   ----------------------------------------
 BYTE   W96
//  #05 //038   ----------------------------------------
Label_545DCA:
 BYTE   N90  Gs2  v060
 BYTE   N90  En2
 BYTE   N90  Cs2
 BYTE   N96  Cs1
 BYTE   W96
 BYTE   PEND 
//  #05 //039   ----------------------------------------
Label_545DD5:
 BYTE   N84  An2  v060  gtp3
 BYTE   N88  En2  v060  gtp1
 BYTE   N84  Cn2  v060  gtp3
 BYTE   N96  An0
 BYTE   W96
 BYTE   PEND 
//  #05 //040   ----------------------------------------
 BYTE   N80  Gs2
 BYTE   N84  En2  v060  gtp2
 BYTE   N84  Cs2  v060  gtp1
 BYTE   N96  Cs1
 BYTE   W96
//  #05 //041   ----------------------------------------
 BYTE   N90  Gn2
 BYTE   N92  Dn2
 BYTE   N48  Cs2  v080
 BYTE   TIE  Bn0  v060
 BYTE   W48
 BYTE   N42  Bn1  v080  gtp1
 BYTE   W48
//  #05 //042   ----------------------------------------
 BYTE   N90  Gs2  v060
 BYTE   N90  En2
 BYTE   N90  Cs2
 BYTE   N96  Cs1
 BYTE   W02
 BYTE   EOT
 BYTE   Bn0
 BYTE   W92
 BYTE   W02
//  #05 //043   ----------------------------------------
 BYTE   PATT
  POIN2 Label_545DD5
//  #05 //044   ----------------------------------------
 BYTE   N44  Gs2  v060
 BYTE   N44  En2
 BYTE   N44  Cs2
 BYTE   N44  Cs1
 BYTE   W48
 BYTE   Gs2
 BYTE   N44  Ds2
 BYTE   N44  Cn2
 BYTE   N44  Gs0
 BYTE   W48
//  #05 //045   ----------------------------------------
 BYTE   PATT
  POIN2 Label_545DCA
//  #05 //046   ----------------------------------------
 BYTE   W96
//  #05 //047   ----------------------------------------
 BYTE   W96
//  #05 //048   ----------------------------------------
 BYTE   W96
//  #05 //049   ----------------------------------------
 BYTE   W96
//  #05 //050   ----------------------------------------
 BYTE   W96
//  #05 //051   ----------------------------------------
 BYTE   W96
//  #05 //052   ----------------------------------------
 BYTE   W96
//  #05 //053   ----------------------------------------
 BYTE   W96
//  #05 //054   ----------------------------------------
 BYTE   W96
//  #05 //055   ----------------------------------------
 BYTE   W96
//  #05 //056   ----------------------------------------
 BYTE   W96
//  #05 //057   ----------------------------------------
 BYTE   W96
//  #05 //058   ----------------------------------------
 BYTE   W96
//  #05 //059   ----------------------------------------
 BYTE   W96
//  #05 //060   ----------------------------------------
 BYTE   W24
 BYTE   FINE

//**************** Track 6 (Midi-Chn.5) ****************//

BanjoKazooieMadMonsterMansionSme_006:
//  #06 //000   ----------------------------------------
 BYTE   KEYSH   BanjoKazooieMadMonsterMansionSme_key+0
 BYTE   VOICE   70
 BYTE   PAN   c_v+6
 BYTE   VOL   100*BanjoKazooieMadMonsterMansionSme_mvl/mxv
 BYTE   N12  Cn2  v115
 BYTE   W24
 BYTE   N09  Gn1
 BYTE   W24
 BYTE   N32  Cn2  v115  gtp1
 BYTE   W36
 BYTE   N07  Gn1
 BYTE   W12
//  #06 //001   ----------------------------------------
 BYTE   N04  Gs1
 BYTE   W12
 BYTE   N05  As1
 BYTE   W12
 BYTE   N16  Bn1
 BYTE   W24
 BYTE   N05
 BYTE   W12
 BYTE   Cs2
 BYTE   W12
 BYTE   N20  Ds2
 BYTE   W24
//  #06 //002   ----------------------------------------
 BYTE   N07  Cn2
 BYTE   W24
 BYTE   N08  Gn1
 BYTE   W24
 BYTE   N32  Cn2  v115  gtp3
 BYTE   W36
 BYTE   N07  Gn1
 BYTE   W12
//  #06 //003   ----------------------------------------
 BYTE   N05  Fs1
 BYTE   W12
 BYTE   Gs1
 BYTE   W12
 BYTE   N06  As1
 BYTE   W12
 BYTE   Bn1
 BYTE   W12
 BYTE   N04  Cs2
 BYTE   W12
 BYTE   N05  Ds2
 BYTE   W12
 BYTE   N06  En2
 BYTE   W12
 BYTE   Fs2
 BYTE   W12
//  #06 //004   ----------------------------------------
 BYTE   N10  Cn2
 BYTE   W24
 BYTE   N08  Gn1
 BYTE   W24
 BYTE   N32  Cn2  v115  gtp3
 BYTE   W36
 BYTE   N07  Gn1
 BYTE   W12
//  #06 //005   ----------------------------------------
 BYTE   N05  Gs1
 BYTE   W12
 BYTE   N06  As1
 BYTE   W12
 BYTE   N17  Bn1
 BYTE   W24
 BYTE   N07
 BYTE   W12
 BYTE   N05  Cs2
 BYTE   W12
 BYTE   N17  Ds2
 BYTE   W24
//  #06 //006   ----------------------------------------
 BYTE   N30  Cn2  v115  gtp1
 BYTE   W36
 BYTE   N08  Gn1
 BYTE   W12
 BYTE   N17  Bn1
 BYTE   W24
 BYTE   N18  Dn2
 BYTE   W24
//  #06 //007   ----------------------------------------
 BYTE   N21  Ds2
 BYTE   W24
 BYTE   N08  Dn2
 BYTE   W18
 BYTE   N07
 BYTE   W06
 BYTE   N13  Cn2
 BYTE   W48
//  #06 //008   ----------------------------------------
 BYTE   W96
//  #06 //009   ----------------------------------------
 BYTE   W96
//  #06 //010   ----------------------------------------
 BYTE   W96
//  #06 //011   ----------------------------------------
 BYTE   W96
//  #06 //012   ----------------------------------------
 BYTE   W96
//  #06 //013   ----------------------------------------
 BYTE   W96
//  #06 //014   ----------------------------------------
 BYTE   W96
//  #06 //015   ----------------------------------------
 BYTE   W96
//  #06 //016   ----------------------------------------
 BYTE   N23  Cn1  v112
 BYTE   W36
 BYTE   N10  Ds1  v127
 BYTE   W12
 BYTE   N15  Gn1  v114
 BYTE   W24
 BYTE   N17  Cn2  v120
 BYTE   W24
//  #06 //017   ----------------------------------------
 BYTE   N04  Gn1  v127
 BYTE   W04
 BYTE   Fs1
 BYTE   W04
 BYTE   Gn1
 BYTE   W04
 BYTE   Fs1
 BYTE   W04
 BYTE   Gn1
 BYTE   W04
 BYTE   Fs1
 BYTE   W04
 BYTE   Gn1
 BYTE   W04
 BYTE   Fs1
 BYTE   W04
 BYTE   Gn1
 BYTE   W04
 BYTE   Fs1
 BYTE   W04
 BYTE   Gn1
 BYTE   W04
 BYTE   Fs1
 BYTE   W04
 BYTE   N24  Gn1  v120  gtp2
 BYTE   W48
//  #06 //018   ----------------------------------------
 BYTE   N24  Gs1  v116  gtp1
 BYTE   W36
 BYTE   N08  Gn1  v108
 BYTE   W12
 BYTE   N13  Gs1  v113
 BYTE   W24
 BYTE   N16  Gn1  v106
 BYTE   W24
//  #06 //019   ----------------------------------------
 BYTE   N20  Fs1  v113
 BYTE   W24
 BYTE   N24  Dn1  v120
 BYTE   W24
 BYTE   N23  Gn1  v110
 BYTE   W24
 BYTE   N24  Gn0  v104
 BYTE   W24
//  #06 //020   ----------------------------------------
 BYTE   W96
//  #06 //021   ----------------------------------------
 BYTE   W96
//  #06 //022   ----------------------------------------
 BYTE   W96
//  #06 //023   ----------------------------------------
 BYTE   W96
//  #06 //024   ----------------------------------------
 BYTE   W96
//  #06 //025   ----------------------------------------
 BYTE   W96
//  #06 //026   ----------------------------------------
 BYTE   W96
//  #06 //027   ----------------------------------------
 BYTE   W96
//  #06 //028   ----------------------------------------
 BYTE   W96
//  #06 //029   ----------------------------------------
 BYTE   W96
//  #06 //030   ----------------------------------------
 BYTE   W96
//  #06 //031   ----------------------------------------
 BYTE   W96
//  #06 //032   ----------------------------------------
 BYTE   W96
//  #06 //033   ----------------------------------------
 BYTE   W96
//  #06 //034   ----------------------------------------
 BYTE   W96
//  #06 //035   ----------------------------------------
 BYTE   W96
//  #06 //036   ----------------------------------------
 BYTE   W96
//  #06 //037   ----------------------------------------
 BYTE   W96
//  #06 //038   ----------------------------------------
 BYTE   W96
//  #06 //039   ----------------------------------------
 BYTE   W96
//  #06 //040   ----------------------------------------
 BYTE   W96
//  #06 //041   ----------------------------------------
 BYTE   W96
//  #06 //042   ----------------------------------------
 BYTE   W96
//  #06 //043   ----------------------------------------
 BYTE   W96
//  #06 //044   ----------------------------------------
 BYTE   W96
//  #06 //045   ----------------------------------------
 BYTE   W96
//  #06 //046   ----------------------------------------
 BYTE   N10  Cs2  v113
 BYTE   W36
 BYTE   N07  Cs2  v110
 BYTE   W12
 BYTE   N11  Gn1  v094
 BYTE   W36
 BYTE   N07  Gn1  v098
 BYTE   W12
//  #06 //047   ----------------------------------------
 BYTE   N09  Cs2  v110
 BYTE   W36
 BYTE   N06  Cs2  v097
 BYTE   W12
 BYTE   N08  Cn2  v088
 BYTE   W24
 BYTE   N10  Cn2  v070
 BYTE   W24
//  #06 //048   ----------------------------------------
 BYTE   Cs2  v097
 BYTE   W36
 BYTE   N07  Cs2  v101
 BYTE   W12
 BYTE   N09  Gn1  v090
 BYTE   W36
 BYTE   N08  Gn1  v088
 BYTE   W12
//  #06 //049   ----------------------------------------
 BYTE   N09  Cs2  v099
 BYTE   W36
 BYTE   N06  Cs2  v104
 BYTE   W12
 BYTE   N09  Cn2  v092
 BYTE   W24
 BYTE   N08  Cn2  v100
 BYTE   W24
//  #06 //050   ----------------------------------------
 BYTE   N06  Cs1  v055
 BYTE   W06
 BYTE   En1
 BYTE   W06
 BYTE   Gs1
 BYTE   W06
 BYTE   Cs2
 BYTE   W06
 BYTE   En2
 BYTE   W06
 BYTE   Cs2
 BYTE   W06
 BYTE   Gs1
 BYTE   W06
 BYTE   Gn1
 BYTE   W06
 BYTE   As1
 BYTE   W06
 BYTE   Dn2
 BYTE   W06
 BYTE   Gn2
 BYTE   W06
 BYTE   As2
 BYTE   W06
 BYTE   Gn2
 BYTE   W06
 BYTE   Dn2
 BYTE   W06
 BYTE   As1
 BYTE   W06
 BYTE   Gn1
 BYTE   W06
//  #06 //051   ----------------------------------------
 BYTE   En1
 BYTE   W06
 BYTE   Gs1
 BYTE   W06
 BYTE   Cs2
 BYTE   W06
 BYTE   En2
 BYTE   W06
 BYTE   Gs2
 BYTE   W06
 BYTE   En2
 BYTE   W06
 BYTE   Cs2
 BYTE   W06
 BYTE   Cn2
 BYTE   W06
 BYTE   Ds2
 BYTE   W06
 BYTE   Gn2
 BYTE   W06
 BYTE   Cn3
 BYTE   W06
 BYTE   Ds3
 BYTE   W06
 BYTE   Cn3
 BYTE   W06
 BYTE   Gn2
 BYTE   W06
 BYTE   Ds2
 BYTE   W06
 BYTE   Cn2
 BYTE   W06
//  #06 //052   ----------------------------------------
 BYTE   Cs2
 BYTE   W06
 BYTE   Gs1
 BYTE   W06
 BYTE   Cs2
 BYTE   W06
 BYTE   En2
 BYTE   W06
 BYTE   Cs2
 BYTE   W06
 BYTE   Gs1
 BYTE   W06
 BYTE   En1
 BYTE   W06
 BYTE   Dn1
 BYTE   W06
 BYTE   Gn1
 BYTE   W06
 BYTE   As1
 BYTE   W06
 BYTE   Dn2
 BYTE   W06
 BYTE   Gn2
 BYTE   W06
 BYTE   As2
 BYTE   W06
 BYTE   Gn2
 BYTE   W06
 BYTE   Dn2
 BYTE   W06
 BYTE   As1
 BYTE   W06
//  #06 //053   ----------------------------------------
 BYTE   Gs1
 BYTE   W06
 BYTE   En1
 BYTE   W06
 BYTE   Gs1
 BYTE   W06
 BYTE   Cs2
 BYTE   W06
 BYTE   En2
 BYTE   W06
 BYTE   Gs2
 BYTE   W06
 BYTE   En2
 BYTE   W06
 BYTE   Dn2
 BYTE   W06
 BYTE   Cn2
 BYTE   W06
 BYTE   Ds2
 BYTE   W06
 BYTE   Gn2
 BYTE   W06
 BYTE   Cn3
 BYTE   W06
 BYTE   Gn2
 BYTE   W06
 BYTE   Ds2
 BYTE   W06
 BYTE   Cn2
 BYTE   W06
 BYTE   Gn1
 BYTE   W06
//  #06 //054   ----------------------------------------
 BYTE   N17  Cs2  v102
 BYTE   W24
 BYTE   N06  Gs1
 BYTE   W12
 BYTE   N07  Cs2
 BYTE   W12
 BYTE   N15  Ds2
 BYTE   W24
 BYTE   N17  Fn2
 BYTE   W24
//  #06 //055   ----------------------------------------
 BYTE   N24  Cn2  v102  gtp1
 BYTE   W36
 BYTE   N08  Dn2
 BYTE   W12
 BYTE   N42  En2  v102  gtp1
 BYTE   W48
//  #06 //056   ----------------------------------------
 BYTE   W96
//  #06 //057   ----------------------------------------
 BYTE   W36
 BYTE   N04  As2
 BYTE   N04  Fn2  v095
 BYTE   N03  Dn2  v102
 BYTE   W06
 BYTE   N04  As2
 BYTE   N04  Fn2  v085
 BYTE   N04  Dn2  v098
 BYTE   W06
 BYTE   N05  As2  v102
 BYTE   N05  Fn2  v075
 BYTE   N05  Dn2  v098
 BYTE   W12
 BYTE   N04  Fn2  v097
 BYTE   N04  Dn2  v102
 BYTE   N05  As1
 BYTE   W12
 BYTE   As2
 BYTE   N05  Fn2  v097
 BYTE   N06  Dn2  v102
 BYTE   W12
 BYTE   N07  Dn3
 BYTE   N08  As2
 BYTE   N07  Fn2  v097
 BYTE   W12
//  #06 //058   ----------------------------------------
 BYTE   N36  Gs2  v083  gtp3
 BYTE   N36  En2  v082  gtp1
 BYTE   N36  Bn1  v082  gtp2
 BYTE   W48
 BYTE   N40  An2  v088
 BYTE   N40  Fn2  v072
 BYTE   N40  Cn2  v069
 BYTE   W48
//  #06 //059   ----------------------------------------
 BYTE   Fs2  v088
 BYTE   CsM2
 BYTE   N36  Cs2  v079  gtp3
 BYTE   N36  As1  v085  gtp2
 BYTE   W48
 BYTE   N44  Gn2  v081
 BYTE   N42  Dn2  v085  gtp1
 BYTE   Bn1  v098
 BYTE   W48
//  #06 //060   ----------------------------------------
 BYTE   W24
 BYTE   FINE

//**************** Track 7 (Midi-Chn.6) ****************//

BanjoKazooieMadMonsterMansionSme_007:
//  #07 //000   ----------------------------------------
 BYTE   KEYSH   BanjoKazooieMadMonsterMansionSme_key+0
 BYTE   VOICE   13
 BYTE   VOL   107*BanjoKazooieMadMonsterMansionSme_mvl/mxv
 BYTE   PAN   c_v-9
 BYTE   W96
//  #07 //001   ----------------------------------------
 BYTE   W96
//  #07 //002   ----------------------------------------
 BYTE   W96
//  #07 //003   ----------------------------------------
 BYTE   W96
//  #07 //004   ----------------------------------------
 BYTE   W96
//  #07 //005   ----------------------------------------
 BYTE   W96
//  #07 //006   ----------------------------------------
 BYTE   W96
//  #07 //007   ----------------------------------------
 BYTE   W96
//  #07 //008   ----------------------------------------
Label_01002374:
 BYTE   N24  Cn3  v100
 BYTE   W24
 BYTE   Gn2
 BYTE   W24
 BYTE   N04  Cn3
 BYTE   W04
 BYTE   Gn2
 BYTE   W04
 BYTE   Cn3
 BYTE   W04
 BYTE   Gn2
 BYTE   W04
 BYTE   Cn3
 BYTE   W04
 BYTE   Gn2
 BYTE   W04
 BYTE   Cn3
 BYTE   W04
 BYTE   Gn2
 BYTE   W04
 BYTE   Cn3
 BYTE   W04
 BYTE   N12  Gn2
 BYTE   W12
 BYTE   PEND 
//  #07 //009   ----------------------------------------
 BYTE   Gs2
 BYTE   W12
 BYTE   As2
 BYTE   W12
 BYTE   N04  Bn2
 BYTE   W04
 BYTE   Gs2
 BYTE   W04
 BYTE   Bn2
 BYTE   W04
 BYTE   Gs2
 BYTE   W04
 BYTE   Bn2
 BYTE   W04
 BYTE   Gs2
 BYTE   W04
 BYTE   N12  Bn2
 BYTE   W12
 BYTE   Cs3
 BYTE   W12
 BYTE   N04  Ds3
 BYTE   W04
 BYTE   Bn2
 BYTE   W04
 BYTE   Ds3
 BYTE   W04
 BYTE   Bn2
 BYTE   W04
 BYTE   Ds3
 BYTE   W04
 BYTE   Bn2
 BYTE   W04
//  #07 //010   ----------------------------------------
 BYTE   PATT
  POIN2 Label_01002374
//  #07 //011   ----------------------------------------
 BYTE   N12  Fs2  v100
 BYTE   W12
 BYTE   Gs2
 BYTE   W12
 BYTE   As2
 BYTE   W12
 BYTE   Bn2
 BYTE   W12
 BYTE   Cs3
 BYTE   W12
 BYTE   Ds3
 BYTE   W12
 BYTE   En3
 BYTE   W12
 BYTE   Fs3
 BYTE   W12
//  #07 //012   ----------------------------------------
 BYTE   PATT
  POIN2 Label_01002374
//  #07 //013   ----------------------------------------
 BYTE   N12  Gs2  v100
 BYTE   W12
 BYTE   As2
 BYTE   W12
 BYTE   N04  Bn2
 BYTE   W04
 BYTE   Gs2
 BYTE   W04
 BYTE   Bn2
 BYTE   W04
 BYTE   Gs2
 BYTE   W04
 BYTE   Bn2
 BYTE   W04
 BYTE   Gs2
 BYTE   W04
 BYTE   N11  Bn2
 BYTE   W12
 BYTE   Cs3
 BYTE   W12
 BYTE   N04  Ds3
 BYTE   W04
 BYTE   Bn2
 BYTE   W04
 BYTE   Ds3
 BYTE   W04
 BYTE   Bn2
 BYTE   W04
 BYTE   Ds3
 BYTE   W04
 BYTE   Bn2
 BYTE   W04
//  #07 //014   ----------------------------------------
 BYTE   N24  Cn3  v100  gtp2
 BYTE   W36
 BYTE   N12  Gn2
 BYTE   W12
 BYTE   N24  Bn2
 BYTE   W24
 BYTE   Dn3
 BYTE   W24
//  #07 //015   ----------------------------------------
 BYTE   Ds3
 BYTE   W24
 BYTE   N16  Dn3
 BYTE   W18
 BYTE   N07
 BYTE   W06
 BYTE   N24  Cn3
 BYTE   W48
//  #07 //016   ----------------------------------------
 BYTE   W96
//  #07 //017   ----------------------------------------
 BYTE   W96
//  #07 //018   ----------------------------------------
 BYTE   W96
//  #07 //019   ----------------------------------------
 BYTE   W96
//  #07 //020   ----------------------------------------
 BYTE   N36  Cn2  v112
 BYTE   W36
 BYTE   N12  Ds2  v127
 BYTE   W12
 BYTE   N24  Gn2  v114
 BYTE   W24
 BYTE   Cn3  v120
 BYTE   W24
//  #07 //021   ----------------------------------------
 BYTE   N04  Gn2  v127
 BYTE   W04
 BYTE   Fs2
 BYTE   W04
 BYTE   Gn2
 BYTE   W04
 BYTE   Fs2
 BYTE   W04
 BYTE   Gn2
 BYTE   W04
 BYTE   Fs2
 BYTE   W04
 BYTE   Gn2
 BYTE   W04
 BYTE   Fs2
 BYTE   W04
 BYTE   Gn2
 BYTE   W04
 BYTE   Fs2
 BYTE   W04
 BYTE   Gn2
 BYTE   W04
 BYTE   Fs2
 BYTE   W04
 BYTE   N42  Gn2  v120  gtp1
 BYTE   W48
//  #07 //022   ----------------------------------------
 BYTE   N32  Gs2  v116  gtp3
 BYTE   W36
 BYTE   N12  Gn2  v108
 BYTE   W12
 BYTE   N24  Gs2  v113
 BYTE   W24
 BYTE   Gn2  v106
 BYTE   W24
//  #07 //023   ----------------------------------------
 BYTE   Fs2  v113
 BYTE   W24
 BYTE   Dn2  v120
 BYTE   W24
 BYTE   Gn2  v110
 BYTE   W24
 BYTE   Gn1  v104
 BYTE   W24
//  #07 //024   ----------------------------------------
 BYTE   W96
//  #07 //025   ----------------------------------------
 BYTE   W96
//  #07 //026   ----------------------------------------
 BYTE   W96
//  #07 //027   ----------------------------------------
 BYTE   W96
//  #07 //028   ----------------------------------------
 BYTE   W96
//  #07 //029   ----------------------------------------
 BYTE   W96
//  #07 //030   ----------------------------------------
 BYTE   W96
//  #07 //031   ----------------------------------------
 BYTE   W96
//  #07 //032   ----------------------------------------
 BYTE   W96
//  #07 //033   ----------------------------------------
 BYTE   W96
//  #07 //034   ----------------------------------------
 BYTE   W96
//  #07 //035   ----------------------------------------
 BYTE   W96
//  #07 //036   ----------------------------------------
 BYTE   W96
//  #07 //037   ----------------------------------------
 BYTE   W96
//  #07 //038   ----------------------------------------
 BYTE   W96
//  #07 //039   ----------------------------------------
 BYTE   W96
//  #07 //040   ----------------------------------------
 BYTE   W96
//  #07 //041   ----------------------------------------
 BYTE   W96
//  #07 //042   ----------------------------------------
 BYTE   W96
//  #07 //043   ----------------------------------------
 BYTE   W96
//  #07 //044   ----------------------------------------
 BYTE   W96
//  #07 //045   ----------------------------------------
 BYTE   W96
//  #07 //046   ----------------------------------------
Label_01002470:
 BYTE   W12
 BYTE   N24  En3  v060
 BYTE   N24  Cs3
 BYTE   W24
 BYTE   En3
 BYTE   N24  Cs3
 BYTE   W24
 BYTE   Dn3
 BYTE   N24  As2
 BYTE   W24
 BYTE   Dn3
 BYTE   N24  As2
 BYTE   W12
 BYTE   PEND 
//  #07 //047   ----------------------------------------
 BYTE   W12
 BYTE   En3
 BYTE   N24  Cs3
 BYTE   W24
 BYTE   En3
 BYTE   N24  Cs3
 BYTE   W24
 BYTE   Ds3
 BYTE   N24  Cn3
 BYTE   W24
 BYTE   Ds3
 BYTE   N24  Cn3
 BYTE   W12
//  #07 //048   ----------------------------------------
 BYTE   PATT
  POIN2 Label_01002470
//  #07 //049   ----------------------------------------
 BYTE   W12
 BYTE   N24  En3  v060
 BYTE   N24  Cs3
 BYTE   W24
 BYTE   En3
 BYTE   N24  Cs3
 BYTE   W24
 BYTE   Ds3
 BYTE   N24  Cn3
 BYTE   W24
 BYTE   N12  Ds3
 BYTE   N12  Cn3
 BYTE   W12
//  #07 //050   ----------------------------------------
 BYTE   W96
//  #07 //051   ----------------------------------------
 BYTE   W96
//  #07 //052   ----------------------------------------
 BYTE   W96
//  #07 //053   ----------------------------------------
 BYTE   W96
//  #07 //054   ----------------------------------------
 BYTE   W96
//  #07 //055   ----------------------------------------
 BYTE   W96
//  #07 //056   ----------------------------------------
 BYTE   W96
//  #07 //057   ----------------------------------------
 BYTE   W96
//  #07 //058   ----------------------------------------
 BYTE   W96
//  #07 //059   ----------------------------------------
 BYTE   W96
//  #07 //060   ----------------------------------------
 BYTE   W24
 BYTE   FINE

//**************** Track 8 (Midi-Chn.7) ****************//

BanjoKazooieMadMonsterMansionSme_008:
//  #08 //000   ----------------------------------------
 BYTE   KEYSH   BanjoKazooieMadMonsterMansionSme_key+0
 BYTE   VOICE   14
 BYTE   VOL   102*BanjoKazooieMadMonsterMansionSme_mvl/mxv
 BYTE   PAN   c_v+21
 BYTE   W96
//  #08 //001   ----------------------------------------
 BYTE   W96
//  #08 //002   ----------------------------------------
 BYTE   W96
//  #08 //003   ----------------------------------------
 BYTE   W96
//  #08 //004   ----------------------------------------
 BYTE   W96
//  #08 //005   ----------------------------------------
 BYTE   W96
//  #08 //006   ----------------------------------------
 BYTE   W96
//  #08 //007   ----------------------------------------
 BYTE   W96
//  #08 //008   ----------------------------------------
Label_010024CC:
 BYTE   N12  Cn4  v050
 BYTE   W12
 BYTE   Dn4
 BYTE   W12
 BYTE   Ds4
 BYTE   W12
 BYTE   Gn4
 BYTE   W12
 BYTE   Cn4
 BYTE   W12
 BYTE   Dn4
 BYTE   W12
 BYTE   Ds4
 BYTE   W12
 BYTE   Gn4
 BYTE   W12
 BYTE   PEND 
//  #08 //009   ----------------------------------------
Label_010024DF:
 BYTE   N12  Gs3  v050
 BYTE   W12
 BYTE   As3
 BYTE   W12
 BYTE   Bn3
 BYTE   W12
 BYTE   Ds4
 BYTE   W12
 BYTE   Gs3
 BYTE   W12
 BYTE   As3
 BYTE   W12
 BYTE   Bn3
 BYTE   W12
 BYTE   Ds4
 BYTE   W12
 BYTE   PEND 
//  #08 //010   ----------------------------------------
 BYTE   PATT
  POIN2 Label_010024CC
//  #08 //011   ----------------------------------------
 BYTE   N12  As3  v050
 BYTE   W12
 BYTE   Cn4
 BYTE   W12
 BYTE   Cs4
 BYTE   W12
 BYTE   Fs4
 BYTE   W12
 BYTE   As3
 BYTE   W12
 BYTE   Cn4
 BYTE   W12
 BYTE   Cs4
 BYTE   W12
 BYTE   Fn4
 BYTE   W12
//  #08 //012   ----------------------------------------
 BYTE   PATT
  POIN2 Label_010024CC
//  #08 //013   ----------------------------------------
 BYTE   PATT
  POIN2 Label_010024DF
//  #08 //014   ----------------------------------------
 BYTE   N12  Cn4  v050
 BYTE   W12
 BYTE   Dn4
 BYTE   W12
 BYTE   Ds4
 BYTE   W12
 BYTE   Gn4
 BYTE   W12
 BYTE   Bn3
 BYTE   W12
 BYTE   Cn4
 BYTE   W12
 BYTE   Dn4
 BYTE   W12
 BYTE   Fn4
 BYTE   W12
//  #08 //015   ----------------------------------------
 BYTE   Cn4
 BYTE   W12
 BYTE   Dn4
 BYTE   W12
 BYTE   Ds4
 BYTE   W12
 BYTE   Gn4
 BYTE   W12
 BYTE   Cn5
 BYTE   W48
//  #08 //016   ----------------------------------------
Label_0100252F:
 BYTE   N12  Cn4  v050
 BYTE   W12
 BYTE   Gn4
 BYTE   W12
 BYTE   Ds4
 BYTE   W12
 BYTE   Gn4
 BYTE   W12
 BYTE   Cn4
 BYTE   W12
 BYTE   Gn4
 BYTE   W12
 BYTE   Ds4
 BYTE   W12
 BYTE   Gn4
 BYTE   W12
 BYTE   PEND 
//  #08 //017   ----------------------------------------
Label_01002542:
 BYTE   N12  Cn4  v050
 BYTE   W12
 BYTE   Fs4
 BYTE   W12
 BYTE   Ds4
 BYTE   W12
 BYTE   Fs4
 BYTE   W12
 BYTE   Cn4
 BYTE   W12
 BYTE   Gn4
 BYTE   W12
 BYTE   Ds4
 BYTE   W12
 BYTE   Gn4
 BYTE   W12
 BYTE   PEND 
//  #08 //018   ----------------------------------------
Label_01002555:
 BYTE   N12  Cn4  v050
 BYTE   W12
 BYTE   Gs4
 BYTE   W12
 BYTE   Fn4
 BYTE   W12
 BYTE   Gs4
 BYTE   W12
 BYTE   Cn4
 BYTE   W12
 BYTE   Gs4
 BYTE   W12
 BYTE   Fn4
 BYTE   W12
 BYTE   Gs4
 BYTE   W12
 BYTE   PEND 
//  #08 //019   ----------------------------------------
Label_01002568:
 BYTE   N12  Cn4  v050
 BYTE   W12
 BYTE   An4
 BYTE   W12
 BYTE   Fs4
 BYTE   W12
 BYTE   An4
 BYTE   W12
 BYTE   Dn4
 BYTE   W12
 BYTE   Gn4
 BYTE   W12
 BYTE   Fn4
 BYTE   W12
 BYTE   Gn4
 BYTE   W12
 BYTE   PEND 
//  #08 //020   ----------------------------------------
 BYTE   PATT
  POIN2 Label_0100252F
//  #08 //021   ----------------------------------------
 BYTE   PATT
  POIN2 Label_01002542
//  #08 //022   ----------------------------------------
 BYTE   PATT
  POIN2 Label_01002555
//  #08 //023   ----------------------------------------
 BYTE   PATT
  POIN2 Label_01002568
//  #08 //024   ----------------------------------------
 BYTE   W96
//  #08 //025   ----------------------------------------
 BYTE   W96
//  #08 //026   ----------------------------------------
 BYTE   W96
//  #08 //027   ----------------------------------------
 BYTE   W96
//  #08 //028   ----------------------------------------
 BYTE   W96
//  #08 //029   ----------------------------------------
 BYTE   W96
//  #08 //030   ----------------------------------------
 BYTE   W96
//  #08 //031   ----------------------------------------
 BYTE   W96
//  #08 //032   ----------------------------------------
 BYTE   W96
//  #08 //033   ----------------------------------------
 BYTE   W96
//  #08 //034   ----------------------------------------
 BYTE   W96
//  #08 //035   ----------------------------------------
 BYTE   W96
//  #08 //036   ----------------------------------------
 BYTE   W96
//  #08 //037   ----------------------------------------
 BYTE   W96
//  #08 //038   ----------------------------------------
Label_0100259D:
 BYTE   N12  Cs4  v050
 BYTE   W12
 BYTE   Ds4
 BYTE   W12
 BYTE   En4
 BYTE   W12
 BYTE   Gs4
 BYTE   W12
 BYTE   Cs4
 BYTE   W12
 BYTE   Ds4
 BYTE   W12
 BYTE   En4
 BYTE   W12
 BYTE   Gs4
 BYTE   W12
 BYTE   PEND 
//  #08 //039   ----------------------------------------
Label_010025B0:
 BYTE   N12  An3  v050
 BYTE   W12
 BYTE   Bn3
 BYTE   W12
 BYTE   Cn4
 BYTE   W12
 BYTE   En4
 BYTE   W12
 BYTE   An3
 BYTE   W12
 BYTE   Bn3
 BYTE   W12
 BYTE   Cn4
 BYTE   W12
 BYTE   En4
 BYTE   W12
 BYTE   PEND 
//  #08 //040   ----------------------------------------
 BYTE   PATT
  POIN2 Label_0100259D
//  #08 //041   ----------------------------------------
 BYTE   N12  Bn3  v050
 BYTE   W12
 BYTE   Cs4
 BYTE   W12
 BYTE   Dn4
 BYTE   W12
 BYTE   Gn4
 BYTE   W12
 BYTE   Bn3
 BYTE   W12
 BYTE   Cs4
 BYTE   W12
 BYTE   Dn4
 BYTE   W12
 BYTE   Fs4
 BYTE   W12
//  #08 //042   ----------------------------------------
 BYTE   PATT
  POIN2 Label_0100259D
//  #08 //043   ----------------------------------------
 BYTE   PATT
  POIN2 Label_010025B0
//  #08 //044   ----------------------------------------
 BYTE   N12  Cs4  v050
 BYTE   W12
 BYTE   Ds4
 BYTE   W12
 BYTE   En4
 BYTE   W12
 BYTE   Gs4
 BYTE   W12
 BYTE   Cn4
 BYTE   W12
 BYTE   Cs4
 BYTE   W12
 BYTE   Ds4
 BYTE   W12
 BYTE   Fs4
 BYTE   W12
//  #08 //045   ----------------------------------------
 BYTE   Cs4
 BYTE   W12
 BYTE   Ds4
 BYTE   W12
 BYTE   En4
 BYTE   W12
 BYTE   Gs4
 BYTE   W12
 BYTE   Cs5
 BYTE   W48
//  #08 //046   ----------------------------------------
 BYTE   W96
//  #08 //047   ----------------------------------------
 BYTE   W96
//  #08 //048   ----------------------------------------
 BYTE   W96
//  #08 //049   ----------------------------------------
 BYTE   W96
//  #08 //050   ----------------------------------------
 BYTE   W96
//  #08 //051   ----------------------------------------
 BYTE   W96
//  #08 //052   ----------------------------------------
 BYTE   W96
//  #08 //053   ----------------------------------------
 BYTE   W96
//  #08 //054   ----------------------------------------
 BYTE   W96
//  #08 //055   ----------------------------------------
 BYTE   W96
//  #08 //056   ----------------------------------------
 BYTE   W96
//  #08 //057   ----------------------------------------
 BYTE   W96
//  #08 //058   ----------------------------------------
 BYTE   W96
//  #08 //059   ----------------------------------------
 BYTE   W96
//  #08 //060   ----------------------------------------
 BYTE   W24
 BYTE   FINE

//**************** Track 9 (Midi-Chn.8) ****************//

BanjoKazooieMadMonsterMansionSme_009:
//  #09 //000   ----------------------------------------
 BYTE   KEYSH   BanjoKazooieMadMonsterMansionSme_key+0
 BYTE   VOICE   73
 BYTE   VOL   106*BanjoKazooieMadMonsterMansionSme_mvl/mxv
 BYTE   PAN   c_v+16
 BYTE   W96
//  #09 //001   ----------------------------------------
 BYTE   W96
//  #09 //002   ----------------------------------------
 BYTE   W96
//  #09 //003   ----------------------------------------
 BYTE   W96
//  #09 //004   ----------------------------------------
 BYTE   W96
//  #09 //005   ----------------------------------------
 BYTE   W96
//  #09 //006   ----------------------------------------
 BYTE   W96
//  #09 //007   ----------------------------------------
 BYTE   W96
//  #09 //008   ----------------------------------------
 BYTE   W96
//  #09 //009   ----------------------------------------
 BYTE   W96
//  #09 //010   ----------------------------------------
 BYTE   W96
//  #09 //011   ----------------------------------------
 BYTE   W96
//  #09 //012   ----------------------------------------
 BYTE   W96
//  #09 //013   ----------------------------------------
 BYTE   W96
//  #09 //014   ----------------------------------------
 BYTE   W96
//  #09 //015   ----------------------------------------
 BYTE   W96
//  #09 //016   ----------------------------------------
 BYTE   W96
//  #09 //017   ----------------------------------------
 BYTE   W96
//  #09 //018   ----------------------------------------
 BYTE   W96
//  #09 //019   ----------------------------------------
 BYTE   W96
//  #09 //020   ----------------------------------------
 BYTE   W96
//  #09 //021   ----------------------------------------
 BYTE   W96
//  #09 //022   ----------------------------------------
 BYTE   W96
//  #09 //023   ----------------------------------------
 BYTE   W96
//  #09 //024   ----------------------------------------
 BYTE   N06  Cn4  v055
 BYTE   W06
 BYTE   Ds4
 BYTE   W06
 BYTE   Gn4
 BYTE   W06
 BYTE   Cn5
 BYTE   W06
 BYTE   Ds5
 BYTE   W06
 BYTE   Cn5
 BYTE   W06
 BYTE   Gn4
 BYTE   W06
 BYTE   Fs4
 BYTE   W06
 BYTE   An4
 BYTE   W06
 BYTE   Cs5
 BYTE   W06
 BYTE   Fs5
 BYTE   W06
 BYTE   An5
 BYTE   W06
 BYTE   Fs5
 BYTE   W06
 BYTE   Cs5
 BYTE   W06
 BYTE   An4
 BYTE   W06
 BYTE   Fs4
 BYTE   W06
//  #09 //025   ----------------------------------------
 BYTE   Ds4
 BYTE   W06
 BYTE   Gn4
 BYTE   W06
 BYTE   Cn5
 BYTE   W06
 BYTE   Ds5
 BYTE   W06
 BYTE   Gn5
 BYTE   W06
 BYTE   Ds5
 BYTE   W06
 BYTE   Cn5
 BYTE   W06
 BYTE   Bn4
 BYTE   W06
 BYTE   Dn5
 BYTE   W06
 BYTE   Fs5
 BYTE   W06
 BYTE   Bn5
 BYTE   W06
 BYTE   Dn6
 BYTE   W06
 BYTE   Bn5
 BYTE   W06
 BYTE   Fs5
 BYTE   W06
 BYTE   Dn5
 BYTE   W06
 BYTE   Bn4
 BYTE   W06
//  #09 //026   ----------------------------------------
 BYTE   Cn5
 BYTE   W06
 BYTE   Gn4
 BYTE   W06
 BYTE   Cn5
 BYTE   W06
 BYTE   Ds5
 BYTE   W06
 BYTE   Cn5
 BYTE   W06
 BYTE   Gn4
 BYTE   W06
 BYTE   Ds4
 BYTE   W06
 BYTE   Cs4
 BYTE   W06
 BYTE   Fs4
 BYTE   W06
 BYTE   An4
 BYTE   W06
 BYTE   Cs5
 BYTE   W06
 BYTE   Fs5
 BYTE   W06
 BYTE   An5
 BYTE   W06
 BYTE   Fs5
 BYTE   W06
 BYTE   Cs5
 BYTE   W06
 BYTE   An4
 BYTE   W06
//  #09 //027   ----------------------------------------
 BYTE   Gn4
 BYTE   W06
 BYTE   Ds4
 BYTE   W06
 BYTE   Gn4
 BYTE   W06
 BYTE   Cn5
 BYTE   W06
 BYTE   Ds5
 BYTE   W06
 BYTE   Gn5
 BYTE   W06
 BYTE   Ds5
 BYTE   W06
 BYTE   Cs5
 BYTE   W06
 BYTE   Bn4
 BYTE   W06
 BYTE   Dn5
 BYTE   W06
 BYTE   Fs5
 BYTE   W06
 BYTE   Bn5
 BYTE   W06
 BYTE   Fs5
 BYTE   W06
 BYTE   Dn5
 BYTE   W06
 BYTE   Bn4
 BYTE   W06
 BYTE   Fs4
 BYTE   W06
//  #09 //028   ----------------------------------------
 BYTE   W96
//  #09 //029   ----------------------------------------
 BYTE   W96
//  #09 //030   ----------------------------------------
Label_010026B4:
 BYTE   N04  Cs4  v050
 BYTE   W04
 BYTE   En4
 BYTE   W04
 BYTE   Gs4
 BYTE   W04
 BYTE   Cs5
 BYTE   W04
 BYTE   En5
 BYTE   W04
 BYTE   Gs5
 BYTE   W04
 BYTE   Cs6
 BYTE   W04
 BYTE   Gs5
 BYTE   W04
 BYTE   En5
 BYTE   W04
 BYTE   Cs5
 BYTE   W04
 BYTE   Gs4
 BYTE   W04
 BYTE   En4
 BYTE   W04
 BYTE   Cs4
 BYTE   W04
 BYTE   En4
 BYTE   W04
 BYTE   Gs4
 BYTE   W04
 BYTE   Cs5
 BYTE   W04
 BYTE   En5
 BYTE   W04
 BYTE   Gs5
 BYTE   W04
 BYTE   Cs6
 BYTE   W04
 BYTE   Gs5
 BYTE   W04
 BYTE   En5
 BYTE   W04
 BYTE   Cs5
 BYTE   W04
 BYTE   Gs4
 BYTE   W04
 BYTE   En4
 BYTE   W04
 BYTE   PEND 
//  #09 //031   ----------------------------------------
Label_010026E7:
 BYTE   N04  An3  v050
 BYTE   W04
 BYTE   Cn4
 BYTE   W04
 BYTE   En4
 BYTE   W04
 BYTE   An4
 BYTE   W04
 BYTE   Cn5
 BYTE   W04
 BYTE   En5
 BYTE   W04
 BYTE   An5
 BYTE   W04
 BYTE   En5
 BYTE   W04
 BYTE   Cn5
 BYTE   W04
 BYTE   An4
 BYTE   W04
 BYTE   En4
 BYTE   W04
 BYTE   Cn4
 BYTE   W04
 BYTE   An3
 BYTE   W04
 BYTE   Cn4
 BYTE   W04
 BYTE   En4
 BYTE   W04
 BYTE   An4
 BYTE   W04
 BYTE   Cn5
 BYTE   W04
 BYTE   En5
 BYTE   W04
 BYTE   An5
 BYTE   W04
 BYTE   En5
 BYTE   W04
 BYTE   Cn5
 BYTE   W04
 BYTE   An4
 BYTE   W04
 BYTE   En4
 BYTE   W04
 BYTE   Cn4
 BYTE   W04
 BYTE   PEND 
//  #09 //032   ----------------------------------------
 BYTE   PATT
  POIN2 Label_010026B4
//  #09 //033   ----------------------------------------
 BYTE   N04  Bn3  v050
 BYTE   W04
 BYTE   Dn4
 BYTE   W04
 BYTE   Gn4
 BYTE   W04
 BYTE   Bn4
 BYTE   W04
 BYTE   Dn5
 BYTE   W04
 BYTE   Gn5
 BYTE   W04
 BYTE   Bn5
 BYTE   W04
 BYTE   Gn5
 BYTE   W04
 BYTE   Dn5
 BYTE   W04
 BYTE   Bn4
 BYTE   W04
 BYTE   Gn4
 BYTE   W04
 BYTE   Dn4
 BYTE   W04
 BYTE   Bn3
 BYTE   W04
 BYTE   Dn4
 BYTE   W04
 BYTE   Gn4
 BYTE   W04
 BYTE   Bn4
 BYTE   W04
 BYTE   Dn5
 BYTE   W04
 BYTE   Gn5
 BYTE   W04
 BYTE   Bn5
 BYTE   W04
 BYTE   Gn5
 BYTE   W04
 BYTE   Dn5
 BYTE   W04
 BYTE   Bn4
 BYTE   W04
 BYTE   Gn4
 BYTE   W04
 BYTE   Dn4
 BYTE   W04
//  #09 //034   ----------------------------------------
 BYTE   PATT
  POIN2 Label_010026B4
//  #09 //035   ----------------------------------------
 BYTE   PATT
  POIN2 Label_010026E7
//  #09 //036   ----------------------------------------
 BYTE   N04  Cs4  v050
 BYTE   W04
 BYTE   En4
 BYTE   W04
 BYTE   Gs4
 BYTE   W04
 BYTE   Cs5
 BYTE   W04
 BYTE   En5
 BYTE   W04
 BYTE   Gs5
 BYTE   W04
 BYTE   Cs6
 BYTE   W04
 BYTE   Gs5
 BYTE   W04
 BYTE   En5
 BYTE   W04
 BYTE   Cs5
 BYTE   W04
 BYTE   Gs4
 BYTE   W04
 BYTE   En4
 BYTE   W04
 BYTE   Gs3
 BYTE   W04
 BYTE   Cn4
 BYTE   W04
 BYTE   Ds4
 BYTE   W04
 BYTE   Gs4
 BYTE   W04
 BYTE   Cn5
 BYTE   W04
 BYTE   Ds5
 BYTE   W04
 BYTE   Gs5
 BYTE   W04
 BYTE   Ds5
 BYTE   W04
 BYTE   Cn5
 BYTE   W04
 BYTE   Gs4
 BYTE   W04
 BYTE   Ds4
 BYTE   W04
 BYTE   Cn4
 BYTE   W04
//  #09 //037   ----------------------------------------
 BYTE   PATT
  POIN2 Label_010026B4
//  #09 //038   ----------------------------------------
 BYTE   W96
//  #09 //039   ----------------------------------------
 BYTE   W96
//  #09 //040   ----------------------------------------
 BYTE   W96
//  #09 //041   ----------------------------------------
 BYTE   W96
//  #09 //042   ----------------------------------------
 BYTE   W96
//  #09 //043   ----------------------------------------
 BYTE   W96
//  #09 //044   ----------------------------------------
 BYTE   W96
//  #09 //045   ----------------------------------------
 BYTE   W96
//  #09 //046   ----------------------------------------
Label_0100279A:
 BYTE   N06  Cs4  v055
 BYTE   W06
 BYTE   En4
 BYTE   W06
 BYTE   Gs4
 BYTE   W06
 BYTE   Cs5
 BYTE   W06
 BYTE   En5
 BYTE   W06
 BYTE   Cs5
 BYTE   W06
 BYTE   Gs4
 BYTE   W06
 BYTE   Gn4
 BYTE   W06
 BYTE   As4
 BYTE   W06
 BYTE   Dn5
 BYTE   W06
 BYTE   Gn5
 BYTE   W06
 BYTE   As5
 BYTE   W06
 BYTE   Gn5
 BYTE   W06
 BYTE   Dn5
 BYTE   W06
 BYTE   As4
 BYTE   W06
 BYTE   Gn4
 BYTE   W06
 BYTE   PEND 
//  #09 //047   ----------------------------------------
Label_010027BD:
 BYTE   N06  En4  v055
 BYTE   W06
 BYTE   Gs4
 BYTE   W06
 BYTE   Cs5
 BYTE   W06
 BYTE   En5
 BYTE   W06
 BYTE   Gs5
 BYTE   W06
 BYTE   En5
 BYTE   W06
 BYTE   Cs5
 BYTE   W06
 BYTE   Cn5
 BYTE   W06
 BYTE   Ds5
 BYTE   W06
 BYTE   Gn5
 BYTE   W06
 BYTE   Cn6
 BYTE   W06
 BYTE   Ds6
 BYTE   W06
 BYTE   Cn6
 BYTE   W06
 BYTE   Gn5
 BYTE   W06
 BYTE   Ds5
 BYTE   W06
 BYTE   Cn5
 BYTE   W06
 BYTE   PEND 
//  #09 //048   ----------------------------------------
Label_010027E0:
 BYTE   N06  Cs5  v055
 BYTE   W06
 BYTE   Gs4
 BYTE   W06
 BYTE   Cs5
 BYTE   W06
 BYTE   En5
 BYTE   W06
 BYTE   Cs5
 BYTE   W06
 BYTE   Gs4
 BYTE   W06
 BYTE   En4
 BYTE   W06
 BYTE   Dn4
 BYTE   W06
 BYTE   Gn4
 BYTE   W06
 BYTE   As4
 BYTE   W06
 BYTE   Dn5
 BYTE   W06
 BYTE   Gn5
 BYTE   W06
 BYTE   As5
 BYTE   W06
 BYTE   Gn5
 BYTE   W06
 BYTE   Dn5
 BYTE   W06
 BYTE   As4
 BYTE   W06
 BYTE   PEND 
//  #09 //049   ----------------------------------------
Label_01002803:
 BYTE   N06  Gs4  v055
 BYTE   W06
 BYTE   En4
 BYTE   W06
 BYTE   Gs4
 BYTE   W06
 BYTE   Cs5
 BYTE   W06
 BYTE   En5
 BYTE   W06
 BYTE   Gs5
 BYTE   W06
 BYTE   En5
 BYTE   W06
 BYTE   Dn5
 BYTE   W06
 BYTE   Cn5
 BYTE   W06
 BYTE   Ds5
 BYTE   W06
 BYTE   Gn5
 BYTE   W06
 BYTE   Cn6
 BYTE   W06
 BYTE   Gn5
 BYTE   W06
 BYTE   Ds5
 BYTE   W06
 BYTE   Cn5
 BYTE   W06
 BYTE   Gn4
 BYTE   W06
 BYTE   PEND 
//  #09 //050   ----------------------------------------
 BYTE   PATT
  POIN2 Label_0100279A
//  #09 //051   ----------------------------------------
 BYTE   PATT
  POIN2 Label_010027BD
//  #09 //052   ----------------------------------------
 BYTE   PATT
  POIN2 Label_010027E0
//  #09 //053   ----------------------------------------
 BYTE   PATT
  POIN2 Label_01002803
//  #09 //054   ----------------------------------------
 BYTE   W96
//  #09 //055   ----------------------------------------
 BYTE   W36
 BYTE   N04  Gn5  v058
 BYTE   N04  En5  v050
 BYTE   N04  Cn5  v052
 BYTE   W06
 BYTE   N03  Gn5  v040
 BYTE   N03  En5  v049
 BYTE   N03  Cn5  v052
 BYTE   W06
 BYTE   N05  Gn5  v036
 BYTE   N05  En5  v052
 BYTE   N05  Cn5  v056
 BYTE   W12
 BYTE   En5  v050
 BYTE   N05  Cn5  v058
 BYTE   W12
 BYTE   Gn5
 BYTE   N04  En5  v056
 BYTE   N06  Cn5  v051
 BYTE   W12
 BYTE   N05  Cn6  v060
 BYTE   N05  Gn5  v050
 BYTE   N06  En5  v052
 BYTE   W12
//  #09 //056   ----------------------------------------
 BYTE   N48  Bn5  v065
 BYTE   N48  Fs5  v052  gtp1
 BYTE   N48  Ds5  v051  gtp3
 BYTE   W96
//  #09 //057   ----------------------------------------
 BYTE   W96
//  #09 //058   ----------------------------------------
 BYTE   N20  En5  v045
 BYTE   N22  En4
 BYTE   W24
 BYTE   N17  Bn5
 BYTE   N18  Bn4
 BYTE   W24
 BYTE   N17  Cn6
 BYTE   N19  Cn5
 BYTE   W24
 BYTE   N16  Fn5
 BYTE   N16  Fn4
 BYTE   W24
//  #09 //059   ----------------------------------------
 BYTE   N17  Fs5
 BYTE   N19  Fs4
 BYTE   W24
 BYTE   N17  Cs6
 BYTE   N16  Cs5
 BYTE   W24
 BYTE   Dn6
 BYTE   N15  Dn5
 BYTE   W24
 BYTE   N20  Gn5
 BYTE   N21  Gn4
 BYTE   W24
//  #09 //060   ----------------------------------------
 BYTE   W24
 BYTE   FINE

//**************** Track 10 (Midi-Chn.9) ****************//

BanjoKazooieMadMonsterMansionSme_010:
//  #10 //000   ----------------------------------------
 BYTE   KEYSH   BanjoKazooieMadMonsterMansionSme_key+0
 BYTE   VOICE   73
 BYTE   VOL   113*BanjoKazooieMadMonsterMansionSme_mvl/mxv
 BYTE   PAN   c_v-19
 BYTE   W96
//  #10 //001   ----------------------------------------
 BYTE   W96
//  #10 //002   ----------------------------------------
 BYTE   W96
//  #10 //003   ----------------------------------------
 BYTE   W96
//  #10 //004   ----------------------------------------
 BYTE   W96
//  #10 //005   ----------------------------------------
 BYTE   W96
//  #10 //006   ----------------------------------------
 BYTE   W96
//  #10 //007   ----------------------------------------
 BYTE   W96
//  #10 //008   ----------------------------------------
 BYTE   W96
//  #10 //009   ----------------------------------------
 BYTE   W96
//  #10 //010   ----------------------------------------
 BYTE   W96
//  #10 //011   ----------------------------------------
 BYTE   W96
//  #10 //012   ----------------------------------------
 BYTE   W96
//  #10 //013   ----------------------------------------
 BYTE   W96
//  #10 //014   ----------------------------------------
 BYTE   W96
//  #10 //015   ----------------------------------------
 BYTE   W96
//  #10 //016   ----------------------------------------
 BYTE   W96
//  #10 //017   ----------------------------------------
 BYTE   W96
//  #10 //018   ----------------------------------------
 BYTE   W96
//  #10 //019   ----------------------------------------
 BYTE   W96
//  #10 //020   ----------------------------------------
 BYTE   W96
//  #10 //021   ----------------------------------------
 BYTE   W96
//  #10 //022   ----------------------------------------
 BYTE   W96
//  #10 //023   ----------------------------------------
 BYTE   W96
//  #10 //024   ----------------------------------------
 BYTE   N06  Cn2  v035
 BYTE   W06
 BYTE   Ds2
 BYTE   W06
 BYTE   Gn2
 BYTE   W06
 BYTE   Cn3
 BYTE   W06
 BYTE   Ds3
 BYTE   W06
 BYTE   Cn3
 BYTE   W06
 BYTE   Gn2
 BYTE   W06
 BYTE   Fs2
 BYTE   W06
 BYTE   An2
 BYTE   W06
 BYTE   Cs3
 BYTE   W06
 BYTE   Fs3
 BYTE   W06
 BYTE   An3
 BYTE   W06
 BYTE   Fs3
 BYTE   W06
 BYTE   Cs3
 BYTE   W06
 BYTE   An2
 BYTE   W06
 BYTE   Fs2
 BYTE   W06
//  #10 //025   ----------------------------------------
 BYTE   Ds2
 BYTE   W06
 BYTE   Gn2
 BYTE   W06
 BYTE   Cn3
 BYTE   W06
 BYTE   Ds3
 BYTE   W06
 BYTE   Gn3
 BYTE   W06
 BYTE   Ds3
 BYTE   W06
 BYTE   Cn3
 BYTE   W06
 BYTE   Bn2
 BYTE   W06
 BYTE   Dn3
 BYTE   W06
 BYTE   Fs3
 BYTE   W06
 BYTE   Bn3
 BYTE   W06
 BYTE   Dn4
 BYTE   W06
 BYTE   Bn3
 BYTE   W06
 BYTE   Fs3
 BYTE   W06
 BYTE   Dn3
 BYTE   W06
 BYTE   Bn2
 BYTE   W06
//  #10 //026   ----------------------------------------
 BYTE   Cn3
 BYTE   W06
 BYTE   Gn2
 BYTE   W06
 BYTE   Cn3
 BYTE   W06
 BYTE   Ds3
 BYTE   W06
 BYTE   Cn3
 BYTE   W06
 BYTE   Gn2
 BYTE   W06
 BYTE   Ds2
 BYTE   W06
 BYTE   Cs2
 BYTE   W06
 BYTE   Fs2
 BYTE   W06
 BYTE   An2
 BYTE   W06
 BYTE   Cs3
 BYTE   W06
 BYTE   Fs3
 BYTE   W06
 BYTE   An3
 BYTE   W06
 BYTE   Fs3
 BYTE   W06
 BYTE   Cs3
 BYTE   W06
 BYTE   An2
 BYTE   W06
//  #10 //027   ----------------------------------------
 BYTE   Gn2
 BYTE   W06
 BYTE   Ds2
 BYTE   W06
 BYTE   Gn2
 BYTE   W06
 BYTE   Cn3
 BYTE   W06
 BYTE   Ds3
 BYTE   W06
 BYTE   Gn3
 BYTE   W06
 BYTE   Ds3
 BYTE   W06
 BYTE   Cs3
 BYTE   W06
 BYTE   Bn2
 BYTE   W06
 BYTE   Dn3
 BYTE   W06
 BYTE   Fs3
 BYTE   W06
 BYTE   Bn3
 BYTE   W06
 BYTE   Fs3
 BYTE   W06
 BYTE   Dn3
 BYTE   W06
 BYTE   Bn2
 BYTE   W06
 BYTE   Fs2
 BYTE   W06
//  #10 //028   ----------------------------------------
 BYTE   W96
//  #10 //029   ----------------------------------------
 BYTE   W96
//  #10 //030   ----------------------------------------
 BYTE   W96
//  #10 //031   ----------------------------------------
 BYTE   W96
//  #10 //032   ----------------------------------------
 BYTE   W96
//  #10 //033   ----------------------------------------
 BYTE   W96
//  #10 //034   ----------------------------------------
 BYTE   W96
//  #10 //035   ----------------------------------------
 BYTE   W96
//  #10 //036   ----------------------------------------
 BYTE   W96
//  #10 //037   ----------------------------------------
 BYTE   W96
//  #10 //038   ----------------------------------------
 BYTE   W96
//  #10 //039   ----------------------------------------
 BYTE   W96
//  #10 //040   ----------------------------------------
 BYTE   W96
//  #10 //041   ----------------------------------------
 BYTE   W96
//  #10 //042   ----------------------------------------
 BYTE   W96
//  #10 //043   ----------------------------------------
 BYTE   W96
//  #10 //044   ----------------------------------------
 BYTE   W96
//  #10 //045   ----------------------------------------
 BYTE   W96
//  #10 //046   ----------------------------------------
 BYTE   W96
//  #10 //047   ----------------------------------------
 BYTE   W96
//  #10 //048   ----------------------------------------
 BYTE   Cs3  v045
 BYTE   W06
 BYTE   Gs2
 BYTE   W06
 BYTE   Cs3
 BYTE   W06
 BYTE   En3
 BYTE   W06
 BYTE   Cs3
 BYTE   W06
 BYTE   Gs2
 BYTE   W06
 BYTE   En2
 BYTE   W06
 BYTE   Dn2
 BYTE   W06
 BYTE   Gn2
 BYTE   W06
 BYTE   As2
 BYTE   W06
 BYTE   Dn3
 BYTE   W06
 BYTE   Gn3
 BYTE   W06
 BYTE   As3
 BYTE   W06
 BYTE   Gn3
 BYTE   W06
 BYTE   Dn3
 BYTE   W06
 BYTE   As2
 BYTE   W06
//  #10 //049   ----------------------------------------
 BYTE   Gs2
 BYTE   W06
 BYTE   En2
 BYTE   W06
 BYTE   Gs2
 BYTE   W06
 BYTE   Cs3
 BYTE   W06
 BYTE   En3
 BYTE   W06
 BYTE   Gs3
 BYTE   W06
 BYTE   En3
 BYTE   W06
 BYTE   Dn3
 BYTE   W06
 BYTE   Cn3
 BYTE   W06
 BYTE   Ds3
 BYTE   W06
 BYTE   Gn3
 BYTE   W06
 BYTE   Cn4
 BYTE   W06
 BYTE   Gn3
 BYTE   W06
 BYTE   Ds3
 BYTE   W06
 BYTE   Cn3
 BYTE   W06
 BYTE   Gn2
 BYTE   W06
//  #10 //050   ----------------------------------------
Label_010029A3:
 BYTE   W12
 BYTE   N09  Gs2  v060
 BYTE   N09  En2
 BYTE   N09  Cs2
 BYTE   W24
 BYTE   Gs2
 BYTE   N09  En2
 BYTE   N09  Cs2
 BYTE   W24
 BYTE   Gn2
 BYTE   N09  Dn2
 BYTE   N09  As1
 BYTE   W24
 BYTE   Gn2
 BYTE   N09  Dn2
 BYTE   N09  As1
 BYTE   W12
 BYTE   PEND 
//  #10 //051   ----------------------------------------
Label_010029BF:
 BYTE   W12
 BYTE   N09  Gs2  v060
 BYTE   N09  En2
 BYTE   N09  Cs2
 BYTE   W24
 BYTE   Gs2
 BYTE   N09  En2
 BYTE   N09  Cs2
 BYTE   W24
 BYTE   Gn2
 BYTE   N09  Ds2
 BYTE   N09  Cn2
 BYTE   W24
 BYTE   Gn2
 BYTE   N09  Ds2
 BYTE   N09  Cn2
 BYTE   W12
 BYTE   PEND 
//  #10 //052   ----------------------------------------
 BYTE   PATT
  POIN2 Label_010029A3
//  #10 //053   ----------------------------------------
 BYTE   PATT
  POIN2 Label_010029BF
//  #10 //054   ----------------------------------------
 BYTE   W96
//  #10 //055   ----------------------------------------
 BYTE   W96
//  #10 //056   ----------------------------------------
 BYTE   W96
//  #10 //057   ----------------------------------------
 BYTE   W96
//  #10 //058   ----------------------------------------
 BYTE   W96
//  #10 //059   ----------------------------------------
 BYTE   W96
//  #10 //060   ----------------------------------------
 BYTE   W24
 BYTE   FINE

//******************************************************//
	ALIGN 4

BanjoKazooieMadMonsterMansionSme:
	BYTE	10	// NumTrks
	BYTE	0	// NumBlks
	BYTE	BanjoKazooieMadMonsterMansionSme_pri	// Priority
	BYTE	BanjoKazooieMadMonsterMansionSme_rev	// Reverb.
    
	POIN2	BanjoKazooieMadMonsterMansionSme_grp
    
	POIN2	BanjoKazooieMadMonsterMansionSme_001
	POIN2	BanjoKazooieMadMonsterMansionSme_002
	POIN2	BanjoKazooieMadMonsterMansionSme_003
	POIN2	BanjoKazooieMadMonsterMansionSme_004
	POIN2	BanjoKazooieMadMonsterMansionSme_005
	POIN2	BanjoKazooieMadMonsterMansionSme_006
	POIN2	BanjoKazooieMadMonsterMansionSme_007
	POIN2	BanjoKazooieMadMonsterMansionSme_008
	POIN2	BanjoKazooieMadMonsterMansionSme_009
	POIN2	BanjoKazooieMadMonsterMansionSme_010

	
