//Event file generated from Sappy .s format.
	#include "MPlayDef.event"

	#define	BanjoTooieKlungoThemeDolkar_grp  voicegroup000
	#define	BanjoTooieKlungoThemeDolkar_pri  0
	#define	BanjoTooieKlungoThemeDolkar_rev  0
	#define	BanjoTooieKlungoThemeDolkar_mvl  127
	#define	BanjoTooieKlungoThemeDolkar_key  0
	#define	BanjoTooieKlungoThemeDolkar_tbs  1
	#define	BanjoTooieKlungoThemeDolkar_exg  0
	#define	BanjoTooieKlungoThemeDolkar_cmp  1

	// .rodata
	//	BanjoTooieKlungoThemeDolkar
	ALIGN 4


//**************** Track 1 (Midi-Chn.0) ****************//

BanjoTooieKlungoThemeDolkar_001:
// 000   ----------------------------------------
 BYTE   KEYSH   BanjoTooieKlungoThemeDolkar_key+0
Label_0_0191546A:
 BYTE   TEMPO   128*BanjoTooieKlungoThemeDolkar_tbs/2
 BYTE   VOICE   13
 BYTE   VOL   67*BanjoTooieKlungoThemeDolkar_mvl/mxv
 BYTE   W17
 BYTE   N08  Ds3  v104
 BYTE   N08  Gn3
 BYTE   W24
 BYTE   Ds3
 BYTE   N08  Gn3
 BYTE   W24
 BYTE   Ds3
 BYTE   N08  Gn3
 BYTE   W24
 BYTE   Ds3
 BYTE   N08  Gn3
 BYTE   W07
// 001   ----------------------------------------
Label_0_01915483:
 BYTE   W17
 BYTE   N08  Ds3  v104
 BYTE   N08  Gn3
 BYTE   W24
 BYTE   Ds3
 BYTE   N08  Gn3
 BYTE   W24
 BYTE   Ds3
 BYTE   N08  Gn3
 BYTE   W24
 BYTE   Dn3
 BYTE   N08  Fn3
 BYTE   W07
 BYTE   PEND 
// 002   ----------------------------------------
Label_0_01915497:
 BYTE   W17
 BYTE   N08  Dn3  v104
 BYTE   N08  Fn3
 BYTE   W24
 BYTE   Ds3
 BYTE   N08  Gn3
 BYTE   W24
 BYTE   Ds3
 BYTE   N08  Gn3
 BYTE   W24
 BYTE   Ds3
 BYTE   N08  Gn3
 BYTE   W07
 BYTE   PEND 
// 003   ----------------------------------------
Label_0_019154AB:
 BYTE   W17
 BYTE   N08  Ds3  v104
 BYTE   N08  Gn3
 BYTE   W24
 BYTE   Cn3
 BYTE   N08  Fn3
 BYTE   W24
 BYTE   Cn3
 BYTE   N08  Fn3
 BYTE   W24
 BYTE   Dn3
 BYTE   N08  Fn3
 BYTE   W07
 BYTE   PEND 
 BYTE   PATT
  POIN2 Label_0_01915497
 BYTE   PATT
  POIN2 Label_0_01915483
// 004   ----------------------------------------
Label_0_019154C9:
 BYTE   W17
 BYTE   N08  Dn3  v104
 BYTE   N08  Fn3
 BYTE   W24
 BYTE   N08
 BYTE   N08  Gs3
 BYTE   W24
 BYTE   Fn3
 BYTE   N08  Gs3
 BYTE   W24
 BYTE   Ds3
 BYTE   N08  Gn3
 BYTE   W07
 BYTE   PEND 
// 005   ----------------------------------------
Label_0_019154DD:
 BYTE   W17
 BYTE   N08  Ds3  v104
 BYTE   N08  Gn3
 BYTE   W24
 BYTE   Dn3
 BYTE   N08  Fn3
 BYTE   W24
 BYTE   Dn3
 BYTE   N08  Fn3
 BYTE   W24
 BYTE   Ds3
 BYTE   N08  Gn3
 BYTE   W07
 BYTE   PEND 
// 006   ----------------------------------------
Label_0_019154F1:
 BYTE   W17
 BYTE   N08  Ds3  v104
 BYTE   N08  Gn3
 BYTE   W78
 BYTE   W01
 BYTE   PEND 
// 007   ----------------------------------------
 BYTE   W96
// 008   ----------------------------------------
 BYTE   W96
// 009   ----------------------------------------
 BYTE   W96
// 010   ----------------------------------------
Label_0_019154FD:
 BYTE   W40
 BYTE   W01
 BYTE   N08  Fn3  v104
 BYTE   N08  Gs3
 BYTE   W24
 BYTE   Fn3
 BYTE   N08  Gs3
 BYTE   W24
 BYTE   Ds3
 BYTE   N08  Gn3
 BYTE   W07
 BYTE   PEND 
// 011   ----------------------------------------
Label_0_0191550E:
 BYTE   W17
 BYTE   N08  Ds3  v104
 BYTE   N08  Gn3
 BYTE   W24
 BYTE   Ds3
 BYTE   N08  Gs3
 BYTE   W24
 BYTE   Ds3
 BYTE   N08  Gs3
 BYTE   W24
 BYTE   Ds3
 BYTE   N08  Gn3
 BYTE   W07
 BYTE   PEND 
// 012   ----------------------------------------
Label_0_01915522:
 BYTE   W17
 BYTE   N08  Ds3  v104
 BYTE   N08  Gn3
 BYTE   W24
 BYTE   Fn3
 BYTE   N08  Gs3
 BYTE   W24
 BYTE   Fn3
 BYTE   N08  Gs3
 BYTE   W24
 BYTE   Ds3
 BYTE   N08  Gn3
 BYTE   W07
 BYTE   PEND 
// 013   ----------------------------------------
Label_0_01915536:
 BYTE   W17
 BYTE   N08  Ds3  v104
 BYTE   N08  Gn3
 BYTE   W24
 BYTE   Cs3
 BYTE   N08  Fn3
 BYTE   W24
 BYTE   Cs3
 BYTE   N08  Fn3
 BYTE   W24
 BYTE   Dn3
 BYTE   N08  Gn3
 BYTE   W07
 BYTE   PEND 
// 014   ----------------------------------------
Label_0_0191554A:
 BYTE   W17
 BYTE   N08  Dn3  v104
 BYTE   N08  Gn3
 BYTE   W24
 BYTE   Ds3
 BYTE   N08  Gn3
 BYTE   W24
 BYTE   Ds3
 BYTE   N08  Gn3
 BYTE   W24
 BYTE   Ds3
 BYTE   N08  Gn3
 BYTE   W07
 BYTE   PEND 
 BYTE   PATT
  POIN2 Label_0_01915483
 BYTE   PATT
  POIN2 Label_0_019154C9
 BYTE   PATT
  POIN2 Label_0_019154DD
 BYTE   PATT
  POIN2 Label_0_019154F1
// 015   ----------------------------------------
 BYTE   W96
// 016   ----------------------------------------
 BYTE   W96
// 017   ----------------------------------------
 BYTE   W96
// 018   ----------------------------------------
 BYTE   W96
// 019   ----------------------------------------
 BYTE   W96
// 020   ----------------------------------------
 BYTE   W96
// 021   ----------------------------------------
 BYTE   W96
// 022   ----------------------------------------
 BYTE   W96
// 023   ----------------------------------------
 BYTE   W96
// 024   ----------------------------------------
 BYTE   W96
// 025   ----------------------------------------
 BYTE   W96
// 026   ----------------------------------------
 BYTE   W96
// 027   ----------------------------------------
 BYTE   W96
// 028   ----------------------------------------
 BYTE   W96
// 029   ----------------------------------------
 BYTE   W96
// 030   ----------------------------------------
Label_0_01915581:
 BYTE   W40
 BYTE   W01
 BYTE   N08  Ds3  v104
 BYTE   N08  Gn3
 BYTE   W24
 BYTE   Ds3
 BYTE   N08  Gn3
 BYTE   W24
 BYTE   Ds3
 BYTE   N08  Gn3
 BYTE   W07
 BYTE   PEND 
 BYTE   PATT
  POIN2 Label_0_01915483
 BYTE   PATT
  POIN2 Label_0_01915497
 BYTE   PATT
  POIN2 Label_0_019154AB
 BYTE   PATT
  POIN2 Label_0_01915497
 BYTE   PATT
  POIN2 Label_0_01915483
 BYTE   PATT
  POIN2 Label_0_019154C9
 BYTE   PATT
  POIN2 Label_0_019154DD
// 031   ----------------------------------------
Label_0_019155B5:
 BYTE   W17
 BYTE   N08  Ds3  v104
 BYTE   N08  Gn3
 BYTE   W24
 BYTE   En3
 BYTE   N08  Gs3
 BYTE   W24
 BYTE   En3
 BYTE   N08  Gs3
 BYTE   W24
 BYTE   En3
 BYTE   N08  Gs3
 BYTE   W07
 BYTE   PEND 
// 032   ----------------------------------------
Label_0_019155C9:
 BYTE   W17
 BYTE   N08  En3  v104
 BYTE   N08  Gs3
 BYTE   W24
 BYTE   En3
 BYTE   N08  Gs3
 BYTE   W24
 BYTE   En3
 BYTE   N08  Gs3
 BYTE   W24
 BYTE   Ds3
 BYTE   N08  Fs3
 BYTE   W07
 BYTE   PEND 
// 033   ----------------------------------------
Label_0_019155DD:
 BYTE   W17
 BYTE   N08  Ds3  v104
 BYTE   N08  Fs3
 BYTE   W24
 BYTE   En3
 BYTE   N08  Gs3
 BYTE   W24
 BYTE   En3
 BYTE   N08  Gs3
 BYTE   W24
 BYTE   En3
 BYTE   N08  Gs3
 BYTE   W07
 BYTE   PEND 
// 034   ----------------------------------------
Label_0_019155F1:
 BYTE   W17
 BYTE   N08  En3  v104
 BYTE   N08  Gs3
 BYTE   W24
 BYTE   Cs3
 BYTE   N08  Fs3
 BYTE   W24
 BYTE   Cs3
 BYTE   N08  Fs3
 BYTE   W24
 BYTE   Ds3
 BYTE   N08  Fs3
 BYTE   W07
 BYTE   PEND 
 BYTE   PATT
  POIN2 Label_0_019155DD
 BYTE   PATT
  POIN2 Label_0_019155C9
// 035   ----------------------------------------
Label_0_0191560F:
 BYTE   W17
 BYTE   N08  Ds3  v104
 BYTE   N08  Fs3
 BYTE   W24
 BYTE   N08
 BYTE   N08  An3
 BYTE   W24
 BYTE   Fs3
 BYTE   N08  An3
 BYTE   W24
 BYTE   En3
 BYTE   N08  Gs3
 BYTE   W07
 BYTE   PEND 
// 036   ----------------------------------------
Label_0_01915623:
 BYTE   W17
 BYTE   N08  En3  v104
 BYTE   N08  Gs3
 BYTE   W24
 BYTE   Ds3
 BYTE   N08  Fs3
 BYTE   W24
 BYTE   Ds3
 BYTE   N08  Fs3
 BYTE   W24
 BYTE   En3
 BYTE   N08  Gs3
 BYTE   W07
 BYTE   PEND 
// 037   ----------------------------------------
Label_0_01915637:
 BYTE   W17
 BYTE   N08  En3  v104
 BYTE   N08  Gs3
 BYTE   W78
 BYTE   W01
 BYTE   PEND 
// 038   ----------------------------------------
 BYTE   W96
// 039   ----------------------------------------
 BYTE   W96
// 040   ----------------------------------------
 BYTE   W96
// 041   ----------------------------------------
Label_0_01915643:
 BYTE   W40
 BYTE   W01
 BYTE   N08  Fs3  v104
 BYTE   N08  An3
 BYTE   W24
 BYTE   Fs3
 BYTE   N08  An3
 BYTE   W24
 BYTE   En3
 BYTE   N08  Gs3
 BYTE   W07
 BYTE   PEND 
// 042   ----------------------------------------
Label_0_01915654:
 BYTE   W17
 BYTE   N08  En3  v104
 BYTE   N08  Gs3
 BYTE   W24
 BYTE   En3
 BYTE   N08  An3
 BYTE   W24
 BYTE   En3
 BYTE   N08  An3
 BYTE   W24
 BYTE   En3
 BYTE   N08  Gs3
 BYTE   W07
 BYTE   PEND 
// 043   ----------------------------------------
Label_0_01915668:
 BYTE   W17
 BYTE   N08  En3  v104
 BYTE   N08  Gs3
 BYTE   W24
 BYTE   Fs3
 BYTE   N08  An3
 BYTE   W24
 BYTE   Fs3
 BYTE   N08  An3
 BYTE   W24
 BYTE   En3
 BYTE   N08  Gs3
 BYTE   W07
 BYTE   PEND 
// 044   ----------------------------------------
Label_0_0191567C:
 BYTE   W17
 BYTE   N08  En3  v104
 BYTE   N08  Gs3
 BYTE   W24
 BYTE   Dn3
 BYTE   N08  Fs3
 BYTE   W24
 BYTE   Dn3
 BYTE   N08  Fs3
 BYTE   W24
 BYTE   Ds3
 BYTE   N08  Gs3
 BYTE   W07
 BYTE   PEND 
// 045   ----------------------------------------
 BYTE   W17
 BYTE   Ds3
 BYTE   N08  Gs3
 BYTE   W24
 BYTE   Ds3
 BYTE   N08  Gn3
 BYTE   W24
 BYTE   Ds3
 BYTE   N08  Gn3
 BYTE   W24
 BYTE   Ds3
 BYTE   N08  Gn3
 BYTE   W07
 BYTE   PATT
  POIN2 Label_0_01915483
 BYTE   PATT
  POIN2 Label_0_01915497
 BYTE   PATT
  POIN2 Label_0_019154AB
 BYTE   PATT
  POIN2 Label_0_01915497
 BYTE   PATT
  POIN2 Label_0_01915483
 BYTE   PATT
  POIN2 Label_0_019154C9
 BYTE   PATT
  POIN2 Label_0_019154DD
 BYTE   PATT
  POIN2 Label_0_019154F1
// 046   ----------------------------------------
 BYTE   W96
// 047   ----------------------------------------
 BYTE   W96
// 048   ----------------------------------------
 BYTE   W96
 BYTE   PATT
  POIN2 Label_0_019154FD
 BYTE   PATT
  POIN2 Label_0_0191550E
 BYTE   PATT
  POIN2 Label_0_01915522
 BYTE   PATT
  POIN2 Label_0_01915536
 BYTE   PATT
  POIN2 Label_0_0191554A
 BYTE   PATT
  POIN2 Label_0_01915483
 BYTE   PATT
  POIN2 Label_0_019154C9
 BYTE   PATT
  POIN2 Label_0_019154DD
 BYTE   PATT
  POIN2 Label_0_019154F1
// 049   ----------------------------------------
 BYTE   W96
// 050   ----------------------------------------
 BYTE   W96
// 051   ----------------------------------------
 BYTE   W96
// 052   ----------------------------------------
 BYTE   W96
// 053   ----------------------------------------
 BYTE   W96
// 054   ----------------------------------------
 BYTE   W96
// 055   ----------------------------------------
 BYTE   W96
// 056   ----------------------------------------
 BYTE   W96
// 057   ----------------------------------------
 BYTE   W96
// 058   ----------------------------------------
 BYTE   W96
// 059   ----------------------------------------
 BYTE   W96
// 060   ----------------------------------------
 BYTE   W96
// 061   ----------------------------------------
 BYTE   W96
// 062   ----------------------------------------
 BYTE   W96
// 063   ----------------------------------------
 BYTE   W96
 BYTE   PATT
  POIN2 Label_0_01915581
 BYTE   PATT
  POIN2 Label_0_01915483
 BYTE   PATT
  POIN2 Label_0_01915497
 BYTE   PATT
  POIN2 Label_0_019154AB
 BYTE   PATT
  POIN2 Label_0_01915497
 BYTE   PATT
  POIN2 Label_0_01915483
 BYTE   PATT
  POIN2 Label_0_019154C9
 BYTE   PATT
  POIN2 Label_0_019154DD
 BYTE   PATT
  POIN2 Label_0_019155B5
 BYTE   PATT
  POIN2 Label_0_019155C9
 BYTE   PATT
  POIN2 Label_0_019155DD
 BYTE   PATT
  POIN2 Label_0_019155F1
 BYTE   PATT
  POIN2 Label_0_019155DD
 BYTE   PATT
  POIN2 Label_0_019155C9
 BYTE   PATT
  POIN2 Label_0_0191560F
 BYTE   PATT
  POIN2 Label_0_01915623
 BYTE   PATT
  POIN2 Label_0_01915637
// 064   ----------------------------------------
 BYTE   W96
// 065   ----------------------------------------
 BYTE   W96
// 066   ----------------------------------------
 BYTE   W96
 BYTE   PATT
  POIN2 Label_0_01915643
 BYTE   PATT
  POIN2 Label_0_01915654
 BYTE   PATT
  POIN2 Label_0_01915668
 BYTE   PATT
  POIN2 Label_0_0191567C
// 067   ----------------------------------------
 BYTE   W17
 BYTE   N08  Ds3  v104
 BYTE   N08  Gs3
 BYTE   W07
 BYTE   GoTo
  POIN2 Label_0_0191546A
// 068   ----------------------------------------
 BYTE   W01
 BYTE   FINE

//**************** Track 2 (Midi-Chn.1) ****************//

BanjoTooieKlungoThemeDolkar_002:
// 000   ----------------------------------------
 BYTE   KEYSH   BanjoTooieKlungoThemeDolkar_key+0
Label_1_01915786:
 BYTE   VOICE   13
 BYTE   VOL   67*BanjoTooieKlungoThemeDolkar_mvl/mxv
 BYTE   W05
 BYTE   N08  Gn1  v104
 BYTE   W24
 BYTE   Cn2
 BYTE   W24
 BYTE   Gn1
 BYTE   W24
 BYTE   Cn2
 BYTE   W19
// 001   ----------------------------------------
Label_1_01915795:
 BYTE   W05
 BYTE   N08  Gn1  v104
 BYTE   W24
 BYTE   Cn2
 BYTE   W24
 BYTE   Gn1
 BYTE   W24
 BYTE   Bn1
 BYTE   W19
 BYTE   PEND 
// 002   ----------------------------------------
Label_1_019157A1:
 BYTE   W05
 BYTE   N08  Gn1  v104
 BYTE   W24
 BYTE   Cn2
 BYTE   W24
 BYTE   Gn1
 BYTE   W24
 BYTE   Cn2
 BYTE   W19
 BYTE   PEND 
// 003   ----------------------------------------
Label_1_019157AD:
 BYTE   W05
 BYTE   N08  Gn1  v104
 BYTE   W24
 BYTE   Gs1
 BYTE   W24
 BYTE   Ds1
 BYTE   W24
 BYTE   Gn1
 BYTE   W19
 BYTE   PEND 
// 004   ----------------------------------------
Label_1_019157B9:
 BYTE   W05
 BYTE   N08  Dn1  v104
 BYTE   W24
 BYTE   Cn2
 BYTE   W24
 BYTE   Gn1
 BYTE   W24
 BYTE   Cn2
 BYTE   W19
 BYTE   PEND 
 BYTE   PATT
  POIN2 Label_1_01915795
// 005   ----------------------------------------
Label_1_019157CA:
 BYTE   W05
 BYTE   N08  Gn1  v104
 BYTE   W24
 BYTE   Dn2
 BYTE   W24
 BYTE   Gs1
 BYTE   W24
 BYTE   Cn2
 BYTE   W19
 BYTE   PEND 
// 006   ----------------------------------------
Label_1_019157D6:
 BYTE   W05
 BYTE   N08  Gn1  v104
 BYTE   W24
 BYTE   Bn1
 BYTE   W24
 BYTE   Gn1
 BYTE   W24
 BYTE   Cn2
 BYTE   W19
 BYTE   PEND 
// 007   ----------------------------------------
Label_1_019157E2:
 BYTE   W05
 BYTE   N08  Gn1  v104
 BYTE   W90
 BYTE   W01
 BYTE   PEND 
// 008   ----------------------------------------
 BYTE   W96
// 009   ----------------------------------------
 BYTE   W96
// 010   ----------------------------------------
 BYTE   W96
// 011   ----------------------------------------
 BYTE   W96
// 012   ----------------------------------------
 BYTE   W96
// 013   ----------------------------------------
 BYTE   W96
// 014   ----------------------------------------
 BYTE   W96
// 015   ----------------------------------------
Label_1_019157F0:
 BYTE   W28
 BYTE   W01
 BYTE   N08  Cn2  v104
 BYTE   W24
 BYTE   Gn1
 BYTE   W24
 BYTE   Cn2
 BYTE   W19
 BYTE   PEND 
 BYTE   PATT
  POIN2 Label_1_01915795
 BYTE   PATT
  POIN2 Label_1_019157CA
 BYTE   PATT
  POIN2 Label_1_019157D6
 BYTE   PATT
  POIN2 Label_1_019157E2
// 016   ----------------------------------------
 BYTE   W96
// 017   ----------------------------------------
 BYTE   W96
// 018   ----------------------------------------
 BYTE   W96
// 019   ----------------------------------------
 BYTE   W96
// 020   ----------------------------------------
 BYTE   W96
// 021   ----------------------------------------
 BYTE   W96
// 022   ----------------------------------------
 BYTE   W96
// 023   ----------------------------------------
 BYTE   W96
// 024   ----------------------------------------
 BYTE   W96
// 025   ----------------------------------------
 BYTE   W96
// 026   ----------------------------------------
 BYTE   W96
// 027   ----------------------------------------
 BYTE   W96
// 028   ----------------------------------------
 BYTE   W96
// 029   ----------------------------------------
 BYTE   W96
// 030   ----------------------------------------
 BYTE   W96
 BYTE   PATT
  POIN2 Label_1_019157F0
 BYTE   PATT
  POIN2 Label_1_01915795
 BYTE   PATT
  POIN2 Label_1_019157A1
 BYTE   PATT
  POIN2 Label_1_019157AD
 BYTE   PATT
  POIN2 Label_1_019157B9
 BYTE   PATT
  POIN2 Label_1_01915795
 BYTE   PATT
  POIN2 Label_1_019157CA
 BYTE   PATT
  POIN2 Label_1_019157D6
// 031   ----------------------------------------
Label_1_01915846:
 BYTE   W05
 BYTE   N08  Gn1  v104
 BYTE   W24
 BYTE   Cs2
 BYTE   W24
 BYTE   Gs1
 BYTE   W24
 BYTE   Cs2
 BYTE   W19
 BYTE   PEND 
// 032   ----------------------------------------
Label_1_01915852:
 BYTE   W05
 BYTE   N08  Gs1  v104
 BYTE   W24
 BYTE   Cs2
 BYTE   W24
 BYTE   Gs1
 BYTE   W24
 BYTE   Cn2
 BYTE   W19
 BYTE   PEND 
// 033   ----------------------------------------
Label_1_0191585E:
 BYTE   W05
 BYTE   N08  Gs1  v104
 BYTE   W24
 BYTE   Cs2
 BYTE   W24
 BYTE   Gs1
 BYTE   W24
 BYTE   Cs2
 BYTE   W19
 BYTE   PEND 
// 034   ----------------------------------------
Label_1_0191586A:
 BYTE   W05
 BYTE   N08  Gs1  v104
 BYTE   W24
 BYTE   An1
 BYTE   W24
 BYTE   En1
 BYTE   W24
 BYTE   Gs1
 BYTE   W19
 BYTE   PEND 
// 035   ----------------------------------------
Label_1_01915876:
 BYTE   W05
 BYTE   N08  Ds1  v104
 BYTE   W24
 BYTE   Cs2
 BYTE   W24
 BYTE   Gs1
 BYTE   W24
 BYTE   Cs2
 BYTE   W19
 BYTE   PEND 
 BYTE   PATT
  POIN2 Label_1_01915852
// 036   ----------------------------------------
Label_1_01915887:
 BYTE   W05
 BYTE   N08  Gs1  v100
 BYTE   W24
 BYTE   Ds2  v104
 BYTE   W24
 BYTE   An1
 BYTE   W24
 BYTE   Cs2
 BYTE   W19
 BYTE   PEND 
// 037   ----------------------------------------
Label_1_01915894:
 BYTE   W05
 BYTE   N08  Gs1  v104
 BYTE   W24
 BYTE   Cn2
 BYTE   W24
 BYTE   Gs1
 BYTE   W24
 BYTE   Cs2
 BYTE   W19
 BYTE   PEND 
// 038   ----------------------------------------
Label_1_019158A0:
 BYTE   W05
 BYTE   N08  Gs1  v104
 BYTE   W90
 BYTE   W01
 BYTE   PEND 
// 039   ----------------------------------------
 BYTE   W96
// 040   ----------------------------------------
 BYTE   W96
// 041   ----------------------------------------
 BYTE   W96
// 042   ----------------------------------------
 BYTE   W96
// 043   ----------------------------------------
 BYTE   W96
// 044   ----------------------------------------
 BYTE   W96
// 045   ----------------------------------------
 BYTE   W96
 BYTE   PATT
  POIN2 Label_1_019157F0
 BYTE   PATT
  POIN2 Label_1_01915795
 BYTE   PATT
  POIN2 Label_1_019157A1
 BYTE   PATT
  POIN2 Label_1_019157AD
 BYTE   PATT
  POIN2 Label_1_019157B9
 BYTE   PATT
  POIN2 Label_1_01915795
 BYTE   PATT
  POIN2 Label_1_019157CA
 BYTE   PATT
  POIN2 Label_1_019157D6
 BYTE   PATT
  POIN2 Label_1_019157E2
// 046   ----------------------------------------
 BYTE   W96
// 047   ----------------------------------------
 BYTE   W96
// 048   ----------------------------------------
 BYTE   W96
// 049   ----------------------------------------
 BYTE   W96
// 050   ----------------------------------------
 BYTE   W96
// 051   ----------------------------------------
 BYTE   W96
// 052   ----------------------------------------
 BYTE   W96
 BYTE   PATT
  POIN2 Label_1_019157F0
 BYTE   PATT
  POIN2 Label_1_01915795
 BYTE   PATT
  POIN2 Label_1_019157CA
 BYTE   PATT
  POIN2 Label_1_019157D6
 BYTE   PATT
  POIN2 Label_1_019157E2
// 053   ----------------------------------------
 BYTE   W96
// 054   ----------------------------------------
 BYTE   W96
// 055   ----------------------------------------
 BYTE   W96
// 056   ----------------------------------------
 BYTE   W96
// 057   ----------------------------------------
 BYTE   W96
// 058   ----------------------------------------
 BYTE   W96
// 059   ----------------------------------------
 BYTE   W96
// 060   ----------------------------------------
 BYTE   W96
// 061   ----------------------------------------
 BYTE   W96
// 062   ----------------------------------------
 BYTE   W96
// 063   ----------------------------------------
 BYTE   W96
// 064   ----------------------------------------
 BYTE   W96
// 065   ----------------------------------------
 BYTE   W96
// 066   ----------------------------------------
 BYTE   W96
// 067   ----------------------------------------
 BYTE   W96
 BYTE   PATT
  POIN2 Label_1_019157F0
 BYTE   PATT
  POIN2 Label_1_01915795
 BYTE   PATT
  POIN2 Label_1_019157A1
 BYTE   PATT
  POIN2 Label_1_019157AD
 BYTE   PATT
  POIN2 Label_1_019157B9
 BYTE   PATT
  POIN2 Label_1_01915795
 BYTE   PATT
  POIN2 Label_1_019157CA
 BYTE   PATT
  POIN2 Label_1_019157D6
 BYTE   PATT
  POIN2 Label_1_01915846
 BYTE   PATT
  POIN2 Label_1_01915852
 BYTE   PATT
  POIN2 Label_1_0191585E
 BYTE   PATT
  POIN2 Label_1_0191586A
 BYTE   PATT
  POIN2 Label_1_01915876
 BYTE   PATT
  POIN2 Label_1_01915852
 BYTE   PATT
  POIN2 Label_1_01915887
 BYTE   PATT
  POIN2 Label_1_01915894
 BYTE   PATT
  POIN2 Label_1_019158A0
// 068   ----------------------------------------
 BYTE   W96
// 069   ----------------------------------------
 BYTE   W96
// 070   ----------------------------------------
 BYTE   W96
// 071   ----------------------------------------
 BYTE   W96
// 072   ----------------------------------------
 BYTE   W96
// 073   ----------------------------------------
 BYTE   W96
// 074   ----------------------------------------
 BYTE   W96
// 075   ----------------------------------------
 BYTE   W24
 BYTE   GoTo
  POIN2 Label_1_01915786
// 076   ----------------------------------------
 BYTE   W01
 BYTE   FINE

//**************** Track 3 (Midi-Chn.2) ****************//

BanjoTooieKlungoThemeDolkar_003:
// 000   ----------------------------------------
 BYTE   KEYSH   BanjoTooieKlungoThemeDolkar_key+0
Label_2_01915972:
 BYTE   VOICE   67
 BYTE   VOL   104*BanjoTooieKlungoThemeDolkar_mvl/mxv
 BYTE   W05
 BYTE   N05  An0  v104
 BYTE   W12
 BYTE   Bn0
 BYTE   W12
 BYTE   N16  Cn1
 BYTE   W24
 BYTE   Gn1
 BYTE   W24
 BYTE   Cn1
 BYTE   W19
// 001   ----------------------------------------
Label_2_01915984:
 BYTE   W05
 BYTE   N16  Gn1  v104
 BYTE   W24
 BYTE   Cn1
 BYTE   W24
 BYTE   Gn1
 BYTE   W24
 BYTE   N16
 BYTE   W19
 BYTE   PEND 
// 002   ----------------------------------------
Label_2_01915990:
 BYTE   W05
 BYTE   N16  Bn0  v104
 BYTE   W24
 BYTE   Cn1
 BYTE   W24
 BYTE   Gn1
 BYTE   W24
 BYTE   Cn1
 BYTE   W19
 BYTE   PEND 
// 003   ----------------------------------------
Label_2_0191599C:
 BYTE   W05
 BYTE   N16  Gn1  v104
 BYTE   W24
 BYTE   Fn1
 BYTE   W24
 BYTE   Cn1
 BYTE   W24
 BYTE   Gn1
 BYTE   W19
 BYTE   PEND 
// 004   ----------------------------------------
Label_2_019159A8:
 BYTE   W05
 BYTE   N16  Dn1  v104
 BYTE   W24
 BYTE   Cn1
 BYTE   W24
 BYTE   Gn1
 BYTE   W24
 BYTE   Cn1
 BYTE   W19
 BYTE   PEND 
 BYTE   PATT
  POIN2 Label_2_01915984
// 005   ----------------------------------------
Label_2_019159B9:
 BYTE   W05
 BYTE   N16  Bn0  v104
 BYTE   W24
 BYTE   Fn1
 BYTE   W24
 BYTE   Cn1
 BYTE   W24
 BYTE   N16
 BYTE   W19
 BYTE   PEND 
// 006   ----------------------------------------
Label_2_019159C5:
 BYTE   W05
 BYTE   N16  Gn1  v104
 BYTE   W24
 BYTE   N16
 BYTE   W24
 BYTE   Dn1
 BYTE   W24
 BYTE   Cn1
 BYTE   W19
 BYTE   PEND 
// 007   ----------------------------------------
Label_2_019159D1:
 BYTE   W05
 BYTE   N16  Gn1  v104
 BYTE   W24
 BYTE   Fn1
 BYTE   W24
 BYTE   Cn1
 BYTE   W24
 BYTE   N16
 BYTE   W19
 BYTE   PEND 
// 008   ----------------------------------------
Label_2_019159DD:
 BYTE   W05
 BYTE   N16  Gn0  v104
 BYTE   W24
 BYTE   Gs1
 BYTE   W24
 BYTE   Ds1
 BYTE   W24
 BYTE   Cn1
 BYTE   W19
 BYTE   PEND 
// 009   ----------------------------------------
Label_2_019159E9:
 BYTE   W05
 BYTE   N16  Gn0  v104
 BYTE   W24
 BYTE   Fn1
 BYTE   W24
 BYTE   Cn1
 BYTE   W24
 BYTE   N16
 BYTE   W19
 BYTE   PEND 
// 010   ----------------------------------------
Label_2_019159F5:
 BYTE   W05
 BYTE   N16  Gn0  v104
 BYTE   W24
 BYTE   Cs1
 BYTE   W24
 BYTE   Gs0
 BYTE   W24
 BYTE   Gn0
 BYTE   W19
 BYTE   PEND 
// 011   ----------------------------------------
Label_2_01915A01:
 BYTE   W05
 BYTE   N16  Dn1  v104
 BYTE   W24
 BYTE   N08  Fn1
 BYTE   W12
 BYTE   N04
 BYTE   W06
 BYTE   Gn1
 BYTE   W06
 BYTE   Gs1
 BYTE   W06
 BYTE   Gn1
 BYTE   W06
 BYTE   Fn1
 BYTE   W12
 BYTE   N08  Gn1
 BYTE   W12
 BYTE   Cn2
 BYTE   W07
 BYTE   PEND 
// 012   ----------------------------------------
Label_2_01915A19:
 BYTE   W05
 BYTE   N08  Cn1  v104
 BYTE   W12
 BYTE   Gn1
 BYTE   W12
 BYTE   Gs1
 BYTE   W12
 BYTE   N04
 BYTE   W06
 BYTE   As1
 BYTE   W06
 BYTE   Cn2
 BYTE   W06
 BYTE   As1
 BYTE   W06
 BYTE   Gs1
 BYTE   W12
 BYTE   N02  Gn1
 BYTE   W04
 BYTE   Gs1
 BYTE   W04
 BYTE   Gn1
 BYTE   W04
 BYTE   Gs1
 BYTE   W04
 BYTE   Gn1
 BYTE   W03
 BYTE   PEND 
// 013   ----------------------------------------
Label_2_01915A38:
 BYTE   W01
 BYTE   N02  Gs1  v104
 BYTE   W04
 BYTE   Gn1
 BYTE   W04
 BYTE   Gs1
 BYTE   W04
 BYTE   Gn1
 BYTE   W04
 BYTE   Gs1
 BYTE   W04
 BYTE   Gn1
 BYTE   W04
 BYTE   Gs1
 BYTE   W04
 BYTE   N08  Fn1
 BYTE   W12
 BYTE   N04
 BYTE   W06
 BYTE   Gn1
 BYTE   W06
 BYTE   Gs1
 BYTE   W06
 BYTE   Gn1
 BYTE   W06
 BYTE   Fn1
 BYTE   W12
 BYTE   N08  Ds1
 BYTE   W12
 BYTE   N04
 BYTE   W06
 BYTE   Fn1
 BYTE   W01
 BYTE   PEND 
// 014   ----------------------------------------
Label_2_01915A5E:
 BYTE   W05
 BYTE   N04  Gn1  v104
 BYTE   W06
 BYTE   Fn1
 BYTE   W06
 BYTE   Ds1
 BYTE   W12
 BYTE   N08  Cs1
 BYTE   W12
 BYTE   N04
 BYTE   W06
 BYTE   Ds1
 BYTE   W06
 BYTE   N08  Fn1
 BYTE   W12
 BYTE   Fs1
 BYTE   W12
 BYTE   N11  Gn1
 BYTE   W12
 BYTE   N08  En0
 BYTE   W07
 BYTE   PEND 
// 015   ----------------------------------------
Label_2_01915A7A:
 BYTE   W05
 BYTE   N12  Gn1  v104
 BYTE   W12
 BYTE   N08  En0
 BYTE   W12
 BYTE   N16  Cn1
 BYTE   W24
 BYTE   Gn1
 BYTE   W24
 BYTE   Cn1
 BYTE   W19
 BYTE   PEND 
 BYTE   PATT
  POIN2 Label_2_01915984
 BYTE   PATT
  POIN2 Label_2_019159B9
 BYTE   PATT
  POIN2 Label_2_019159C5
// 016   ----------------------------------------
Label_2_01915A99:
 BYTE   W05
 BYTE   N16  Gn1  v104
 BYTE   W24
 BYTE   Fs0  v100
 BYTE   W24
 BYTE   Cs1
 BYTE   W24
 BYTE   Fs0
 BYTE   W19
 BYTE   PEND 
// 017   ----------------------------------------
Label_2_01915AA6:
 BYTE   W05
 BYTE   N16  Cs1  v100
 BYTE   W24
 BYTE   Fs0
 BYTE   W24
 BYTE   Cs1
 BYTE   W24
 BYTE   Fs0
 BYTE   W19
 BYTE   PEND 
// 018   ----------------------------------------
Label_2_01915AB2:
 BYTE   W05
 BYTE   N08  Cs1  v100
 BYTE   W12
 BYTE   N08
 BYTE   W12
 BYTE   N16  Cn1
 BYTE   W24
 BYTE   Gn0
 BYTE   W24
 BYTE   Cn1
 BYTE   W19
 BYTE   PEND 
// 019   ----------------------------------------
Label_2_01915AC1:
 BYTE   W05
 BYTE   N16  Gn0  v100
 BYTE   W24
 BYTE   Cn1
 BYTE   W24
 BYTE   Gn0
 BYTE   W24
 BYTE   N08  Cn1
 BYTE   W12
 BYTE   Gn0
 BYTE   W07
 BYTE   PEND 
// 020   ----------------------------------------
Label_2_01915AD0:
 BYTE   W05
 BYTE   N08  Cn1  v100
 BYTE   W12
 BYTE   Gn0
 BYTE   W12
 BYTE   N16  Fs0
 BYTE   W24
 BYTE   Cs1
 BYTE   W24
 BYTE   Fs0
 BYTE   W19
 BYTE   PEND 
 BYTE   PATT
  POIN2 Label_2_01915AA6
 BYTE   PATT
  POIN2 Label_2_01915AB2
// 021   ----------------------------------------
Label_2_01915AE9:
 BYTE   W05
 BYTE   N16  Gn0  v100
 BYTE   W24
 BYTE   N16
 BYTE   W24
 BYTE   Dn1
 BYTE   W24
 BYTE   Gn0
 BYTE   W19
 BYTE   PEND 
// 022   ----------------------------------------
Label_2_01915AF5:
 BYTE   W05
 BYTE   N16  Dn1  v100
 BYTE   W24
 BYTE   Fs0
 BYTE   W24
 BYTE   Cs1
 BYTE   W24
 BYTE   Fs0
 BYTE   W19
 BYTE   PEND 
 BYTE   PATT
  POIN2 Label_2_01915AA6
 BYTE   PATT
  POIN2 Label_2_01915AB2
 BYTE   PATT
  POIN2 Label_2_01915AC1
 BYTE   PATT
  POIN2 Label_2_01915AD0
 BYTE   PATT
  POIN2 Label_2_01915AA6
 BYTE   PATT
  POIN2 Label_2_01915AB2
 BYTE   PATT
  POIN2 Label_2_01915AE9
// 023   ----------------------------------------
Label_2_01915B24:
 BYTE   W05
 BYTE   N16  Dn1  v100
 BYTE   W24
 BYTE   Cn1  v104
 BYTE   W24
 BYTE   Gn1
 BYTE   W24
 BYTE   Cn1
 BYTE   W19
 BYTE   PEND 
 BYTE   PATT
  POIN2 Label_2_01915984
 BYTE   PATT
  POIN2 Label_2_01915990
 BYTE   PATT
  POIN2 Label_2_0191599C
 BYTE   PATT
  POIN2 Label_2_019159A8
 BYTE   PATT
  POIN2 Label_2_01915984
 BYTE   PATT
  POIN2 Label_2_019159B9
 BYTE   PATT
  POIN2 Label_2_019159C5
// 024   ----------------------------------------
Label_2_01915B54:
 BYTE   W05
 BYTE   N16  Gn1  v104
 BYTE   W24
 BYTE   Cs1
 BYTE   W24
 BYTE   Gs1
 BYTE   W24
 BYTE   Cs1
 BYTE   W19
 BYTE   PEND 
// 025   ----------------------------------------
Label_2_01915B60:
 BYTE   W05
 BYTE   N16  Gs1  v104
 BYTE   W24
 BYTE   Cs1
 BYTE   W24
 BYTE   Gs1
 BYTE   W24
 BYTE   N16
 BYTE   W19
 BYTE   PEND 
// 026   ----------------------------------------
Label_2_01915B6C:
 BYTE   W05
 BYTE   N16  Ds1  v100
 BYTE   W24
 BYTE   Cs1  v104
 BYTE   W24
 BYTE   Gs1
 BYTE   W24
 BYTE   Cs1
 BYTE   W19
 BYTE   PEND 
// 027   ----------------------------------------
Label_2_01915B79:
 BYTE   W05
 BYTE   N16  Gs1  v104
 BYTE   W24
 BYTE   Fs1
 BYTE   W24
 BYTE   Cs1
 BYTE   W24
 BYTE   Gs1
 BYTE   W19
 BYTE   PEND 
// 028   ----------------------------------------
Label_2_01915B85:
 BYTE   W05
 BYTE   N16  Ds1  v104
 BYTE   W24
 BYTE   Cs1
 BYTE   W24
 BYTE   Gs1
 BYTE   W24
 BYTE   Cs1
 BYTE   W19
 BYTE   PEND 
 BYTE   PATT
  POIN2 Label_2_01915B60
// 029   ----------------------------------------
Label_2_01915B96:
 BYTE   W05
 BYTE   N16  Ds1  v100
 BYTE   W24
 BYTE   Fs1  v104
 BYTE   W24
 BYTE   Cs1
 BYTE   W24
 BYTE   N16
 BYTE   W19
 BYTE   PEND 
// 030   ----------------------------------------
Label_2_01915BA3:
 BYTE   W05
 BYTE   N16  Gs1  v104
 BYTE   W24
 BYTE   N16
 BYTE   W24
 BYTE   Ds1
 BYTE   W24
 BYTE   Cs1
 BYTE   W19
 BYTE   PEND 
// 031   ----------------------------------------
Label_2_01915BAF:
 BYTE   W05
 BYTE   N16  Gs1  v104
 BYTE   W24
 BYTE   Fs1
 BYTE   W24
 BYTE   Cs1
 BYTE   W24
 BYTE   N16
 BYTE   W19
 BYTE   PEND 
// 032   ----------------------------------------
Label_2_01915BBB:
 BYTE   W05
 BYTE   N16  Gs0  v104
 BYTE   W24
 BYTE   An1
 BYTE   W24
 BYTE   En1
 BYTE   W24
 BYTE   Cs1
 BYTE   W19
 BYTE   PEND 
// 033   ----------------------------------------
Label_2_01915BC7:
 BYTE   W05
 BYTE   N16  Gs0  v104
 BYTE   W24
 BYTE   Fs1
 BYTE   W24
 BYTE   Cs1
 BYTE   W24
 BYTE   N16
 BYTE   W19
 BYTE   PEND 
// 034   ----------------------------------------
Label_2_01915BD3:
 BYTE   W05
 BYTE   N16  Gs0  v104
 BYTE   W24
 BYTE   Dn1
 BYTE   W24
 BYTE   An0
 BYTE   W24
 BYTE   Gs0
 BYTE   W19
 BYTE   PEND 
// 035   ----------------------------------------
Label_2_01915BDF:
 BYTE   W05
 BYTE   N16  Ds1  v104
 BYTE   W24
 BYTE   N08  Fs1
 BYTE   W12
 BYTE   N04
 BYTE   W06
 BYTE   Gs1
 BYTE   W06
 BYTE   An1
 BYTE   W06
 BYTE   Gs1
 BYTE   W06
 BYTE   Fs1
 BYTE   W12
 BYTE   N08  Gs1
 BYTE   W12
 BYTE   Cs2
 BYTE   W07
 BYTE   PEND 
// 036   ----------------------------------------
Label_2_01915BF7:
 BYTE   W05
 BYTE   N08  Cs1  v104
 BYTE   W12
 BYTE   Gs1
 BYTE   W12
 BYTE   An1
 BYTE   W12
 BYTE   N04
 BYTE   W06
 BYTE   Bn1
 BYTE   W06
 BYTE   Cs2
 BYTE   W06
 BYTE   Bn1
 BYTE   W06
 BYTE   An1
 BYTE   W12
 BYTE   N03  Gs1  v100
 BYTE   W04
 BYTE   An1
 BYTE   W04
 BYTE   Gs1
 BYTE   W04
 BYTE   An1
 BYTE   W04
 BYTE   Gs1
 BYTE   W03
 BYTE   PEND 
// 037   ----------------------------------------
Label_2_01915C17:
 BYTE   W01
 BYTE   N03  An1  v100
 BYTE   W04
 BYTE   Gs1
 BYTE   W04
 BYTE   An1
 BYTE   W04
 BYTE   Gs1
 BYTE   W04
 BYTE   An1
 BYTE   W04
 BYTE   Gs1
 BYTE   W04
 BYTE   An1
 BYTE   W04
 BYTE   N08  Fs1  v104
 BYTE   W12
 BYTE   N04
 BYTE   W06
 BYTE   Gs1
 BYTE   W06
 BYTE   An1
 BYTE   W06
 BYTE   Gs1
 BYTE   W06
 BYTE   Fs1
 BYTE   W12
 BYTE   N08  En1
 BYTE   W12
 BYTE   N04
 BYTE   W06
 BYTE   Fs1
 BYTE   W01
 BYTE   PEND 
// 038   ----------------------------------------
Label_2_01915C3E:
 BYTE   W05
 BYTE   N04  Gs1  v104
 BYTE   W06
 BYTE   Fs1
 BYTE   W06
 BYTE   En1
 BYTE   W12
 BYTE   N08  Dn1
 BYTE   W12
 BYTE   N04
 BYTE   W06
 BYTE   En1
 BYTE   W06
 BYTE   N08  Fs1
 BYTE   W12
 BYTE   Gn1
 BYTE   W12
 BYTE   N11  Gs1
 BYTE   W12
 BYTE   N05  Gs0  v100
 BYTE   W07
 BYTE   PEND 
// 039   ----------------------------------------
 BYTE   W05
 BYTE   N12  Gs1  v104
 BYTE   W12
 BYTE   N05  Gs0  v100
 BYTE   W12
 BYTE   N16  Cn1  v104
 BYTE   W24
 BYTE   Gn1
 BYTE   W24
 BYTE   Cn1
 BYTE   W19
 BYTE   PATT
  POIN2 Label_2_01915984
 BYTE   PATT
  POIN2 Label_2_01915990
 BYTE   PATT
  POIN2 Label_2_0191599C
 BYTE   PATT
  POIN2 Label_2_019159A8
 BYTE   PATT
  POIN2 Label_2_01915984
 BYTE   PATT
  POIN2 Label_2_019159B9
 BYTE   PATT
  POIN2 Label_2_019159C5
 BYTE   PATT
  POIN2 Label_2_019159D1
 BYTE   PATT
  POIN2 Label_2_019159DD
 BYTE   PATT
  POIN2 Label_2_019159E9
 BYTE   PATT
  POIN2 Label_2_019159F5
 BYTE   PATT
  POIN2 Label_2_01915A01
 BYTE   PATT
  POIN2 Label_2_01915A19
 BYTE   PATT
  POIN2 Label_2_01915A38
 BYTE   PATT
  POIN2 Label_2_01915A5E
 BYTE   PATT
  POIN2 Label_2_01915A7A
 BYTE   PATT
  POIN2 Label_2_01915984
 BYTE   PATT
  POIN2 Label_2_019159B9
 BYTE   PATT
  POIN2 Label_2_019159C5
 BYTE   PATT
  POIN2 Label_2_01915A99
 BYTE   PATT
  POIN2 Label_2_01915AA6
 BYTE   PATT
  POIN2 Label_2_01915AB2
 BYTE   PATT
  POIN2 Label_2_01915AC1
 BYTE   PATT
  POIN2 Label_2_01915AD0
 BYTE   PATT
  POIN2 Label_2_01915AA6
 BYTE   PATT
  POIN2 Label_2_01915AB2
 BYTE   PATT
  POIN2 Label_2_01915AE9
 BYTE   PATT
  POIN2 Label_2_01915AF5
 BYTE   PATT
  POIN2 Label_2_01915AA6
 BYTE   PATT
  POIN2 Label_2_01915AB2
 BYTE   PATT
  POIN2 Label_2_01915AC1
 BYTE   PATT
  POIN2 Label_2_01915AD0
 BYTE   PATT
  POIN2 Label_2_01915AA6
 BYTE   PATT
  POIN2 Label_2_01915AB2
 BYTE   PATT
  POIN2 Label_2_01915AE9
 BYTE   PATT
  POIN2 Label_2_01915B24
 BYTE   PATT
  POIN2 Label_2_01915984
 BYTE   PATT
  POIN2 Label_2_01915990
 BYTE   PATT
  POIN2 Label_2_0191599C
 BYTE   PATT
  POIN2 Label_2_019159A8
 BYTE   PATT
  POIN2 Label_2_01915984
 BYTE   PATT
  POIN2 Label_2_019159B9
 BYTE   PATT
  POIN2 Label_2_019159C5
 BYTE   PATT
  POIN2 Label_2_01915B54
 BYTE   PATT
  POIN2 Label_2_01915B60
 BYTE   PATT
  POIN2 Label_2_01915B6C
 BYTE   PATT
  POIN2 Label_2_01915B79
 BYTE   PATT
  POIN2 Label_2_01915B85
 BYTE   PATT
  POIN2 Label_2_01915B60
 BYTE   PATT
  POIN2 Label_2_01915B96
 BYTE   PATT
  POIN2 Label_2_01915BA3
 BYTE   PATT
  POIN2 Label_2_01915BAF
 BYTE   PATT
  POIN2 Label_2_01915BBB
 BYTE   PATT
  POIN2 Label_2_01915BC7
 BYTE   PATT
  POIN2 Label_2_01915BD3
 BYTE   PATT
  POIN2 Label_2_01915BDF
 BYTE   PATT
  POIN2 Label_2_01915BF7
 BYTE   PATT
  POIN2 Label_2_01915C17
 BYTE   PATT
  POIN2 Label_2_01915C3E
// 040   ----------------------------------------
 BYTE   W05
 BYTE   N12  Gs1  v104
 BYTE   W12
 BYTE   N05  Gs0  v100
 BYTE   W07
 BYTE   GoTo
  POIN2 Label_2_01915972
// 041   ----------------------------------------
 BYTE   W01
 BYTE   FINE

//**************** Track 4 (Midi-Chn.3) ****************//

BanjoTooieKlungoThemeDolkar_004:
// 000   ----------------------------------------
 BYTE   KEYSH   BanjoTooieKlungoThemeDolkar_key+0
Label_3_01915DA6:
 BYTE   VOICE   70
 BYTE   VOL   114*BanjoTooieKlungoThemeDolkar_mvl/mxv
 BYTE   W28
 BYTE   W01
 BYTE   N04  Cn2  v100
 BYTE   W12
 BYTE   N04
 BYTE   W06
 BYTE   Dn2
 BYTE   W06
 BYTE   Ds2
 BYTE   W12
 BYTE   Cn2
 BYTE   W12
 BYTE   Gn2
 BYTE   W06
 BYTE   Fs2
 BYTE   W06
 BYTE   Gn2
 BYTE   W06
 BYTE   Fs2
 BYTE   W01
// 001   ----------------------------------------
Label_3_01915DC0:
 BYTE   W05
 BYTE   N04  Gn2  v100
 BYTE   W12
 BYTE   Ds2
 BYTE   W12
 BYTE   Cn2
 BYTE   W12
 BYTE   N04
 BYTE   W06
 BYTE   Dn2
 BYTE   W06
 BYTE   Ds2
 BYTE   W12
 BYTE   Cn2
 BYTE   W14
 BYTE   N12  Bn1
 BYTE   W10
 BYTE   N04  Dn2
 BYTE   W07
 BYTE   PEND 
// 002   ----------------------------------------
Label_3_01915DD8:
 BYTE   W05
 BYTE   N12  Gn1  v100
 BYTE   W12
 BYTE   N02  An1
 BYTE   W04
 BYTE   As1
 BYTE   W04
 BYTE   Bn1
 BYTE   W04
 BYTE   N04  Cn2
 BYTE   W12
 BYTE   N04
 BYTE   W06
 BYTE   Dn2
 BYTE   W06
 BYTE   Ds2
 BYTE   W12
 BYTE   Cn2
 BYTE   W12
 BYTE   Gn2
 BYTE   W06
 BYTE   Fs2
 BYTE   W06
 BYTE   Gn2
 BYTE   W06
 BYTE   Fs2
 BYTE   W01
 BYTE   PEND 
// 003   ----------------------------------------
Label_3_01915DF8:
 BYTE   W05
 BYTE   N04  Gn2  v100
 BYTE   W12
 BYTE   Ds2
 BYTE   W12
 BYTE   N05  Gs2
 BYTE   W06
 BYTE   As2
 BYTE   W06
 BYTE   Cn3
 BYTE   W12
 BYTE   N08
 BYTE   W12
 BYTE   N04  Gs2
 BYTE   W12
 BYTE   N08  Gn2
 BYTE   W12
 BYTE   N04  An2
 BYTE   W07
 BYTE   PEND 
// 004   ----------------------------------------
Label_3_01915E12:
 BYTE   W05
 BYTE   N04  Bn2  v100
 BYTE   W12
 BYTE   N08  Gn2
 BYTE   W12
 BYTE   N04  Cn2
 BYTE   W12
 BYTE   N04
 BYTE   W06
 BYTE   Dn2
 BYTE   W06
 BYTE   Ds2
 BYTE   W12
 BYTE   Cn2
 BYTE   W12
 BYTE   Gn2
 BYTE   W06
 BYTE   Fs2
 BYTE   W06
 BYTE   Gn2
 BYTE   W06
 BYTE   Fs2
 BYTE   W01
 BYTE   PEND 
 BYTE   PATT
  POIN2 Label_3_01915DC0
// 005   ----------------------------------------
Label_3_01915E33:
 BYTE   W05
 BYTE   N12  Gn1  v100
 BYTE   W06
 BYTE   N04  Cn2
 BYTE   W06
 BYTE   N02  En2
 BYTE   W04
 BYTE   Fn2
 BYTE   W04
 BYTE   Gn2
 BYTE   W04
 BYTE   N04  Gs2
 BYTE   W06
 BYTE   Gn2
 BYTE   W06
 BYTE   Gs2
 BYTE   W06
 BYTE   Gn2
 BYTE   W06
 BYTE   Gs2
 BYTE   W12
 BYTE   Fn2
 BYTE   W12
 BYTE   Gn2
 BYTE   W06
 BYTE   Fs2
 BYTE   W06
 BYTE   Gn2
 BYTE   W06
 BYTE   Fs2
 BYTE   W01
 BYTE   PEND 
// 006   ----------------------------------------
Label_3_01915E58:
 BYTE   W05
 BYTE   N04  Gn2  v100
 BYTE   W12
 BYTE   Ds2
 BYTE   W12
 BYTE   Dn2
 BYTE   W06
 BYTE   Cs2
 BYTE   W06
 BYTE   Dn2
 BYTE   W06
 BYTE   Cs2
 BYTE   W06
 BYTE   Dn2
 BYTE   W12
 BYTE   Gn2
 BYTE   W12
 BYTE   N08  Cn2
 BYTE   W12
 BYTE   N04  Gn1
 BYTE   W07
 BYTE   PEND 
// 007   ----------------------------------------
Label_3_01915E72:
 BYTE   W05
 BYTE   N04  An1  v100
 BYTE   W12
 BYTE   Bn1
 BYTE   W78
 BYTE   W01
 BYTE   PEND 
// 008   ----------------------------------------
 BYTE   W96
// 009   ----------------------------------------
 BYTE   W96
// 010   ----------------------------------------
 BYTE   W96
// 011   ----------------------------------------
Label_3_01915E7E:
 BYTE   W28
 BYTE   W01
 BYTE   N16  Fn1  v100
 BYTE   W24
 BYTE   Cn1
 BYTE   W24
 BYTE   N16
 BYTE   W19
 BYTE   PEND 
// 012   ----------------------------------------
Label_3_01915E89:
 BYTE   W05
 BYTE   N16  Gn0  v100
 BYTE   W24
 BYTE   Gs1
 BYTE   W24
 BYTE   Ds1
 BYTE   W24
 BYTE   Cn1
 BYTE   W19
 BYTE   PEND 
// 013   ----------------------------------------
Label_3_01915E95:
 BYTE   W05
 BYTE   N16  Gn0  v100
 BYTE   W24
 BYTE   Fn1
 BYTE   W24
 BYTE   Cn1
 BYTE   W24
 BYTE   N16
 BYTE   W19
 BYTE   PEND 
// 014   ----------------------------------------
Label_3_01915EA1:
 BYTE   W05
 BYTE   N16  Gn0  v100
 BYTE   W24
 BYTE   Cs1
 BYTE   W24
 BYTE   Gs0
 BYTE   W24
 BYTE   Gn0
 BYTE   W19
 BYTE   PEND 
// 015   ----------------------------------------
Label_3_01915EAD:
 BYTE   W05
 BYTE   N16  Dn1  v100
 BYTE   W24
 BYTE   N04  Cn2
 BYTE   W12
 BYTE   N04
 BYTE   W06
 BYTE   Dn2
 BYTE   W06
 BYTE   Ds2
 BYTE   W12
 BYTE   Cn2
 BYTE   W12
 BYTE   Gn2
 BYTE   W06
 BYTE   Fs2
 BYTE   W06
 BYTE   Gn2
 BYTE   W06
 BYTE   Fs2
 BYTE   W01
 BYTE   PEND 
 BYTE   PATT
  POIN2 Label_3_01915DC0
 BYTE   PATT
  POIN2 Label_3_01915E33
 BYTE   PATT
  POIN2 Label_3_01915E58
 BYTE   PATT
  POIN2 Label_3_01915E72
// 016   ----------------------------------------
 BYTE   W96
// 017   ----------------------------------------
 BYTE   W96
// 018   ----------------------------------------
 BYTE   W96
// 019   ----------------------------------------
 BYTE   W96
// 020   ----------------------------------------
 BYTE   W96
// 021   ----------------------------------------
 BYTE   W96
// 022   ----------------------------------------
 BYTE   W96
// 023   ----------------------------------------
 BYTE   W96
// 024   ----------------------------------------
 BYTE   W96
// 025   ----------------------------------------
 BYTE   W96
// 026   ----------------------------------------
 BYTE   W96
// 027   ----------------------------------------
 BYTE   W96
// 028   ----------------------------------------
 BYTE   W96
// 029   ----------------------------------------
 BYTE   W96
// 030   ----------------------------------------
 BYTE   W96
// 031   ----------------------------------------
 BYTE   W96
// 032   ----------------------------------------
 BYTE   W96
// 033   ----------------------------------------
 BYTE   W96
// 034   ----------------------------------------
 BYTE   W96
// 035   ----------------------------------------
 BYTE   W96
// 036   ----------------------------------------
 BYTE   W96
// 037   ----------------------------------------
 BYTE   W96
// 038   ----------------------------------------
 BYTE   W96
// 039   ----------------------------------------
 BYTE   W96
// 040   ----------------------------------------
 BYTE   W96
// 041   ----------------------------------------
 BYTE   W96
// 042   ----------------------------------------
 BYTE   W96
// 043   ----------------------------------------
 BYTE   W96
// 044   ----------------------------------------
 BYTE   W96
// 045   ----------------------------------------
 BYTE   W96
// 046   ----------------------------------------
 BYTE   W96
// 047   ----------------------------------------
 BYTE   W96
// 048   ----------------------------------------
 BYTE   W96
// 049   ----------------------------------------
 BYTE   W96
// 050   ----------------------------------------
 BYTE   W96
// 051   ----------------------------------------
Label_3_01915EFD:
 BYTE   W28
 BYTE   W01
 BYTE   N16  Fs1  v100
 BYTE   W24
 BYTE   Cs1
 BYTE   W24
 BYTE   N16
 BYTE   W19
 BYTE   PEND 
// 052   ----------------------------------------
Label_3_01915F08:
 BYTE   W05
 BYTE   N16  Gs0  v100
 BYTE   W24
 BYTE   An1
 BYTE   W24
 BYTE   En1
 BYTE   W24
 BYTE   Cs1
 BYTE   W19
 BYTE   PEND 
// 053   ----------------------------------------
Label_3_01915F14:
 BYTE   W05
 BYTE   N16  Gs0  v100
 BYTE   W24
 BYTE   Fs1
 BYTE   W24
 BYTE   Cs1
 BYTE   W24
 BYTE   N16
 BYTE   W19
 BYTE   PEND 
// 054   ----------------------------------------
Label_3_01915F20:
 BYTE   W05
 BYTE   N16  Gs0  v100
 BYTE   W24
 BYTE   Dn1
 BYTE   W24
 BYTE   An0
 BYTE   W24
 BYTE   Gs0
 BYTE   W19
 BYTE   PEND 
// 055   ----------------------------------------
 BYTE   W05
 BYTE   Ds1
 BYTE   W24
 BYTE   N04  Cn2
 BYTE   W12
 BYTE   N04
 BYTE   W06
 BYTE   Dn2
 BYTE   W06
 BYTE   Ds2
 BYTE   W12
 BYTE   Cn2
 BYTE   W12
 BYTE   Gn2
 BYTE   W06
 BYTE   Fs2
 BYTE   W06
 BYTE   Gn2
 BYTE   W06
 BYTE   Fs2
 BYTE   W01
 BYTE   PATT
  POIN2 Label_3_01915DC0
 BYTE   PATT
  POIN2 Label_3_01915DD8
 BYTE   PATT
  POIN2 Label_3_01915DF8
 BYTE   PATT
  POIN2 Label_3_01915E12
 BYTE   PATT
  POIN2 Label_3_01915DC0
 BYTE   PATT
  POIN2 Label_3_01915E33
 BYTE   PATT
  POIN2 Label_3_01915E58
 BYTE   PATT
  POIN2 Label_3_01915E72
// 056   ----------------------------------------
 BYTE   W96
// 057   ----------------------------------------
 BYTE   W96
// 058   ----------------------------------------
 BYTE   W96
 BYTE   PATT
  POIN2 Label_3_01915E7E
 BYTE   PATT
  POIN2 Label_3_01915E89
 BYTE   PATT
  POIN2 Label_3_01915E95
 BYTE   PATT
  POIN2 Label_3_01915EA1
 BYTE   PATT
  POIN2 Label_3_01915EAD
 BYTE   PATT
  POIN2 Label_3_01915DC0
 BYTE   PATT
  POIN2 Label_3_01915E33
 BYTE   PATT
  POIN2 Label_3_01915E58
 BYTE   PATT
  POIN2 Label_3_01915E72
// 059   ----------------------------------------
 BYTE   W96
// 060   ----------------------------------------
 BYTE   W96
// 061   ----------------------------------------
 BYTE   W96
// 062   ----------------------------------------
 BYTE   W96
// 063   ----------------------------------------
 BYTE   W96
// 064   ----------------------------------------
 BYTE   W96
// 065   ----------------------------------------
 BYTE   W96
// 066   ----------------------------------------
 BYTE   W96
// 067   ----------------------------------------
 BYTE   W96
// 068   ----------------------------------------
 BYTE   W96
// 069   ----------------------------------------
 BYTE   W96
// 070   ----------------------------------------
 BYTE   W96
// 071   ----------------------------------------
 BYTE   W96
// 072   ----------------------------------------
 BYTE   W96
// 073   ----------------------------------------
 BYTE   W96
// 074   ----------------------------------------
 BYTE   W96
// 075   ----------------------------------------
 BYTE   W96
// 076   ----------------------------------------
 BYTE   W96
// 077   ----------------------------------------
 BYTE   W96
// 078   ----------------------------------------
 BYTE   W96
// 079   ----------------------------------------
 BYTE   W96
// 080   ----------------------------------------
 BYTE   W96
// 081   ----------------------------------------
 BYTE   W96
// 082   ----------------------------------------
 BYTE   W96
// 083   ----------------------------------------
 BYTE   W96
// 084   ----------------------------------------
 BYTE   W96
// 085   ----------------------------------------
 BYTE   W96
// 086   ----------------------------------------
 BYTE   W96
// 087   ----------------------------------------
 BYTE   W96
// 088   ----------------------------------------
 BYTE   W96
// 089   ----------------------------------------
 BYTE   W96
// 090   ----------------------------------------
 BYTE   W96
// 091   ----------------------------------------
 BYTE   W96
// 092   ----------------------------------------
 BYTE   W96
// 093   ----------------------------------------
 BYTE   W96
 BYTE   PATT
  POIN2 Label_3_01915EFD
 BYTE   PATT
  POIN2 Label_3_01915F08
 BYTE   PATT
  POIN2 Label_3_01915F14
 BYTE   PATT
  POIN2 Label_3_01915F20
// 094   ----------------------------------------
 BYTE   W05
 BYTE   N16  Ds1  v100
 BYTE   W19
 BYTE   GoTo
  POIN2 Label_3_01915DA6
// 095   ----------------------------------------
 BYTE   W01
 BYTE   FINE

//**************** Track 5 (Midi-Chn.4) ****************//

BanjoTooieKlungoThemeDolkar_005:
// 000   ----------------------------------------
 BYTE   KEYSH   BanjoTooieKlungoThemeDolkar_key+0
Label_4_01915FE2:
 BYTE   VOICE   71
 BYTE   VOL   91*BanjoTooieKlungoThemeDolkar_mvl/mxv
 BYTE   W96
// 001   ----------------------------------------
 BYTE   W96
// 002   ----------------------------------------
 BYTE   W96
// 003   ----------------------------------------
 BYTE   W96
// 004   ----------------------------------------
 BYTE   W96
// 005   ----------------------------------------
 BYTE   W96
// 006   ----------------------------------------
 BYTE   W96
// 007   ----------------------------------------
 BYTE   W96
// 008   ----------------------------------------
Label_4_01915FEE:
 BYTE   W40
 BYTE   W01
 BYTE   N08  Fn3  v100
 BYTE   N08  Gs3
 BYTE   W24
 BYTE   Fn3
 BYTE   N08  Gs3
 BYTE   W24
 BYTE   Ds3
 BYTE   N08  Gn3
 BYTE   W07
 BYTE   PEND 
// 009   ----------------------------------------
Label_4_01915FFF:
 BYTE   W17
 BYTE   N08  Ds3  v100
 BYTE   N08  Gn3
 BYTE   W24
 BYTE   Ds3
 BYTE   N08  Gs3
 BYTE   W24
 BYTE   Ds3
 BYTE   N08  Gs3
 BYTE   W24
 BYTE   Ds3
 BYTE   N08  Gn3
 BYTE   W07
 BYTE   PEND 
// 010   ----------------------------------------
Label_4_01916013:
 BYTE   W17
 BYTE   N08  Ds3  v100
 BYTE   N08  Gn3
 BYTE   W24
 BYTE   Fn3
 BYTE   N08  Gs3
 BYTE   W24
 BYTE   Fn3
 BYTE   N08  Gs3
 BYTE   W24
 BYTE   Ds3
 BYTE   N08  Gn3
 BYTE   W07
 BYTE   PEND 
// 011   ----------------------------------------
Label_4_01916027:
 BYTE   W17
 BYTE   N08  Ds3  v100
 BYTE   N08  Gn3
 BYTE   W24
 BYTE   Cs3
 BYTE   N08  Fn3
 BYTE   W24
 BYTE   Cs3
 BYTE   N08  Fn3
 BYTE   W24
 BYTE   Dn3
 BYTE   N08  Gn3
 BYTE   W07
 BYTE   PEND 
// 012   ----------------------------------------
Label_4_0191603B:
 BYTE   W17
 BYTE   N08  Dn3  v100
 BYTE   N08  Gn3
 BYTE   W78
 BYTE   W01
 BYTE   PEND 
// 013   ----------------------------------------
 BYTE   W96
// 014   ----------------------------------------
 BYTE   W96
// 015   ----------------------------------------
 BYTE   W96
// 016   ----------------------------------------
 BYTE   W96
// 017   ----------------------------------------
 BYTE   W96
// 018   ----------------------------------------
 BYTE   W96
// 019   ----------------------------------------
 BYTE   W96
// 020   ----------------------------------------
Label_4_0191604B:
 BYTE   W28
 BYTE   W01
 BYTE   N16  Fs3  v100
 BYTE   W24
 BYTE   N16
 BYTE   W24
 BYTE   N04
 BYTE   W12
 BYTE   Gs3
 BYTE   W07
 BYTE   PEND 
// 021   ----------------------------------------
Label_4_01916058:
 BYTE   W05
 BYTE   N24  An3  v100
 BYTE   W36
 BYTE   N04  Gs3
 BYTE   W12
 BYTE   N08  An3
 BYTE   W12
 BYTE   N04  Gs3
 BYTE   W12
 BYTE   N08  An3
 BYTE   W12
 BYTE   N04  Gs3
 BYTE   W07
 BYTE   PEND 
// 022   ----------------------------------------
Label_4_0191606D:
 BYTE   W05
 BYTE   N08  Fs3  v100
 BYTE   W12
 BYTE   N04  An3
 BYTE   W12
 BYTE   N24  Gn3
 BYTE   W36
 BYTE   N04  Fn3
 BYTE   W12
 BYTE   N16  Ds3
 BYTE   W19
 BYTE   PEND 
// 023   ----------------------------------------
Label_4_0191607F:
 BYTE   W05
 BYTE   N16  Cn3  v100
 BYTE   W24
 BYTE   N08
 BYTE   W12
 BYTE   N04  Dn3
 BYTE   W12
 BYTE   N08  Ds3
 BYTE   W12
 BYTE   N04  Gn3
 BYTE   W12
 BYTE   N08  Gs3
 BYTE   W12
 BYTE   N04  Gn3
 BYTE   W07
 BYTE   PEND 
// 024   ----------------------------------------
Label_4_01916096:
 BYTE   W05
 BYTE   N08  Ds3  v100
 BYTE   W12
 BYTE   N04  Dn3
 BYTE   W12
 BYTE   N16  Cs3
 BYTE   W24
 BYTE   Fs3
 BYTE   W24
 BYTE   N24
 BYTE   W19
 BYTE   PEND 
// 025   ----------------------------------------
Label_4_019160A6:
 BYTE   W17
 BYTE   N04  Cs3  v100
 BYTE   W12
 BYTE   N08  Fs3
 BYTE   W12
 BYTE   N04  Cs3
 BYTE   W12
 BYTE   N08  Fs3
 BYTE   W12
 BYTE   N04  Gs3
 BYTE   W12
 BYTE   N08  An3
 BYTE   W12
 BYTE   N04  Gs3
 BYTE   W07
 BYTE   PEND 
// 026   ----------------------------------------
Label_4_019160BE:
 BYTE   W05
 BYTE   N08  Fs3  v100
 BYTE   W12
 BYTE   N04  An3
 BYTE   W12
 BYTE   N16  Gn3
 BYTE   W24
 BYTE   N08
 BYTE   W12
 BYTE   N04  Gs3
 BYTE   W12
 BYTE   N16  Gn3
 BYTE   W19
 BYTE   PEND 
// 027   ----------------------------------------
Label_4_019160D2:
 BYTE   W05
 BYTE   N08  Gn3  v100
 BYTE   W12
 BYTE   N04  Gs3
 BYTE   W12
 BYTE   N16  Gn3
 BYTE   W24
 BYTE   Fn3
 BYTE   W24
 BYTE   Ds3
 BYTE   W19
 BYTE   PEND 
// 028   ----------------------------------------
Label_4_019160E2:
 BYTE   W05
 BYTE   N16  Dn3  v100
 BYTE   W36
 BYTE   N08  Fs3
 BYTE   N08  An3
 BYTE   W24
 BYTE   Fs3
 BYTE   N08  An3
 BYTE   W24
 BYTE   Fs3
 BYTE   N08  An3
 BYTE   W07
 BYTE   PEND 
// 029   ----------------------------------------
Label_4_019160F5:
 BYTE   W17
 BYTE   N08  Fs3  v100
 BYTE   N08  An3
 BYTE   W24
 BYTE   Fs3
 BYTE   N08  An3
 BYTE   W24
 BYTE   Fs3
 BYTE   N08  An3
 BYTE   W24
 BYTE   Fs3
 BYTE   N08  An3
 BYTE   W07
 BYTE   PEND 
// 030   ----------------------------------------
Label_4_01916109:
 BYTE   W17
 BYTE   N08  Fs3  v100
 BYTE   N08  An3
 BYTE   W24
 BYTE   Ds3
 BYTE   N08  Gn3
 BYTE   W24
 BYTE   Ds3
 BYTE   N08  Gn3
 BYTE   W24
 BYTE   Ds3
 BYTE   N08  Gn3
 BYTE   W07
 BYTE   PEND 
// 031   ----------------------------------------
Label_4_0191611D:
 BYTE   W17
 BYTE   N08  Ds3  v100
 BYTE   N08  Gn3
 BYTE   W24
 BYTE   Ds3
 BYTE   N08  Gn3
 BYTE   W24
 BYTE   Ds3
 BYTE   N08  Gn3
 BYTE   W24
 BYTE   Ds3
 BYTE   N08  Gn3
 BYTE   W07
 BYTE   PEND 
// 032   ----------------------------------------
Label_4_01916131:
 BYTE   W17
 BYTE   N08  Ds3  v100
 BYTE   N08  Gn3
 BYTE   W24
 BYTE   Fs3
 BYTE   N08  An3
 BYTE   W24
 BYTE   Fs3
 BYTE   N08  An3
 BYTE   W24
 BYTE   Fs3
 BYTE   N08  An3
 BYTE   W07
 BYTE   PEND 
 BYTE   PATT
  POIN2 Label_4_019160F5
 BYTE   PATT
  POIN2 Label_4_01916109
// 033   ----------------------------------------
Label_4_0191614F:
 BYTE   W17
 BYTE   N08  Ds3  v100
 BYTE   N08  Gn3
 BYTE   W24
 BYTE   Dn3
 BYTE   N08  Fn3
 BYTE   W24
 BYTE   Dn3
 BYTE   N08  Fn3
 BYTE   W24
 BYTE   Dn3
 BYTE   N08  Fn3
 BYTE   W07
 BYTE   PEND 
// 034   ----------------------------------------
Label_4_01916163:
 BYTE   W17
 BYTE   N08  Dn3  v100
 BYTE   N08  Fn3
 BYTE   W78
 BYTE   W01
 BYTE   PEND 
// 035   ----------------------------------------
 BYTE   W96
// 036   ----------------------------------------
 BYTE   W96
// 037   ----------------------------------------
 BYTE   W96
// 038   ----------------------------------------
 BYTE   W96
// 039   ----------------------------------------
 BYTE   W96
// 040   ----------------------------------------
 BYTE   W96
// 041   ----------------------------------------
 BYTE   W96
// 042   ----------------------------------------
Label_4_01916173:
 BYTE   W28
 BYTE   W01
 BYTE   N05  Cs4  v100
 BYTE   W12
 BYTE   N05
 BYTE   W06
 BYTE   Ds4
 BYTE   W06
 BYTE   En4
 BYTE   W12
 BYTE   Cs4
 BYTE   W12
 BYTE   Gs4
 BYTE   W06
 BYTE   Gn4
 BYTE   W06
 BYTE   Gs4
 BYTE   W06
 BYTE   Gn4
 BYTE   W01
 BYTE   PEND 
// 043   ----------------------------------------
Label_4_0191618A:
 BYTE   W05
 BYTE   N05  Gs4  v100
 BYTE   W12
 BYTE   En4
 BYTE   W12
 BYTE   Cs4
 BYTE   W12
 BYTE   N05
 BYTE   W06
 BYTE   Ds4
 BYTE   W06
 BYTE   En4
 BYTE   W12
 BYTE   Cs4
 BYTE   W12
 BYTE   N11  Cn4
 BYTE   W12
 BYTE   N05  Ds4
 BYTE   W07
 BYTE   PEND 
// 044   ----------------------------------------
Label_4_019161A2:
 BYTE   W05
 BYTE   N11  Gs3  v100
 BYTE   W12
 BYTE   N03  As3
 BYTE   W04
 BYTE   Bn3
 BYTE   W04
 BYTE   Cn4
 BYTE   W04
 BYTE   N05  Cs4
 BYTE   W12
 BYTE   N05
 BYTE   W06
 BYTE   Ds4
 BYTE   W06
 BYTE   En4
 BYTE   W12
 BYTE   Cs4
 BYTE   W12
 BYTE   Gs4
 BYTE   W06
 BYTE   Gn4
 BYTE   W06
 BYTE   Gs4
 BYTE   W06
 BYTE   Gn4
 BYTE   W01
 BYTE   PEND 
// 045   ----------------------------------------
Label_4_019161C2:
 BYTE   W05
 BYTE   N05  Gs4  v100
 BYTE   W12
 BYTE   En4
 BYTE   W12
 BYTE   An4
 BYTE   W06
 BYTE   Bn4
 BYTE   W06
 BYTE   Cs5
 BYTE   W12
 BYTE   N11
 BYTE   W12
 BYTE   N05  An4
 BYTE   W12
 BYTE   N11  Gs4
 BYTE   W12
 BYTE   N05  As4
 BYTE   W07
 BYTE   PEND 
// 046   ----------------------------------------
Label_4_019161DB:
 BYTE   W05
 BYTE   N05  Cn5  v100
 BYTE   W12
 BYTE   Gs4
 BYTE   W12
 BYTE   Cs4
 BYTE   W12
 BYTE   N05
 BYTE   W06
 BYTE   Ds4
 BYTE   W06
 BYTE   En4
 BYTE   W12
 BYTE   Cs4
 BYTE   W12
 BYTE   Gs4
 BYTE   W06
 BYTE   Gn4
 BYTE   W06
 BYTE   Gs4
 BYTE   W06
 BYTE   Gn4
 BYTE   W01
 BYTE   PEND 
 BYTE   PATT
  POIN2 Label_4_0191618A
// 047   ----------------------------------------
Label_4_019161FA:
 BYTE   W05
 BYTE   N11  Gs3  v100
 BYTE   W12
 BYTE   N03  Fs4
 BYTE   W04
 BYTE   Gn4
 BYTE   W04
 BYTE   Gs4
 BYTE   W04
 BYTE   N05  An4
 BYTE   W06
 BYTE   Gs4
 BYTE   W06
 BYTE   An4
 BYTE   W06
 BYTE   Gs4
 BYTE   W06
 BYTE   An4
 BYTE   W12
 BYTE   Fs4
 BYTE   W12
 BYTE   Gs4
 BYTE   W06
 BYTE   Gn4
 BYTE   W06
 BYTE   Gs4
 BYTE   W06
 BYTE   Gn4
 BYTE   W01
 BYTE   PEND 
// 048   ----------------------------------------
Label_4_0191621C:
 BYTE   W05
 BYTE   N05  Gs4  v100
 BYTE   W12
 BYTE   En4
 BYTE   W12
 BYTE   Ds4
 BYTE   W06
 BYTE   Dn4
 BYTE   W06
 BYTE   Ds4
 BYTE   W06
 BYTE   Dn4
 BYTE   W06
 BYTE   Ds4
 BYTE   W12
 BYTE   Gs4
 BYTE   W12
 BYTE   N11  Cs4
 BYTE   W12
 BYTE   N05  Gs3
 BYTE   W07
 BYTE   PEND 
// 049   ----------------------------------------
Label_4_01916236:
 BYTE   W05
 BYTE   N05  As3  v100
 BYTE   W12
 BYTE   Cn4
 BYTE   W24
 BYTE   N08  Fs3
 BYTE   N08  An3
 BYTE   W24
 BYTE   Fs3
 BYTE   N08  An3
 BYTE   W24
 BYTE   En3
 BYTE   N08  Gs3
 BYTE   W07
 BYTE   PEND 
// 050   ----------------------------------------
Label_4_0191624B:
 BYTE   W17
 BYTE   N08  En3  v100
 BYTE   N08  Gs3
 BYTE   W24
 BYTE   En3
 BYTE   N08  An3
 BYTE   W24
 BYTE   En3
 BYTE   N08  An3
 BYTE   W24
 BYTE   En3
 BYTE   N08  Gs3
 BYTE   W07
 BYTE   PEND 
// 051   ----------------------------------------
Label_4_0191625F:
 BYTE   W17
 BYTE   N08  En3  v100
 BYTE   N08  Gs3
 BYTE   W24
 BYTE   Fs3
 BYTE   N08  An3
 BYTE   W24
 BYTE   Fs3
 BYTE   N08  An3
 BYTE   W24
 BYTE   En3
 BYTE   N08  Gs3
 BYTE   W07
 BYTE   PEND 
// 052   ----------------------------------------
Label_4_01916273:
 BYTE   W17
 BYTE   N08  En3  v100
 BYTE   N08  Gs3
 BYTE   W24
 BYTE   Dn3
 BYTE   N08  Fs3
 BYTE   W24
 BYTE   Dn3
 BYTE   N08  Fs3
 BYTE   W24
 BYTE   Ds3
 BYTE   N08  Gs3
 BYTE   W07
 BYTE   PEND 
// 053   ----------------------------------------
Label_4_01916287:
 BYTE   W17
 BYTE   N08  Ds3  v100
 BYTE   N08  Gs3
 BYTE   W78
 BYTE   W01
 BYTE   PEND 
// 054   ----------------------------------------
 BYTE   W96
// 055   ----------------------------------------
 BYTE   W96
// 056   ----------------------------------------
 BYTE   W96
// 057   ----------------------------------------
 BYTE   W96
// 058   ----------------------------------------
 BYTE   W96
// 059   ----------------------------------------
 BYTE   W96
// 060   ----------------------------------------
 BYTE   W96
// 061   ----------------------------------------
 BYTE   W96
// 062   ----------------------------------------
 BYTE   W96
// 063   ----------------------------------------
 BYTE   W96
// 064   ----------------------------------------
 BYTE   W96
 BYTE   PATT
  POIN2 Label_4_01915FEE
 BYTE   PATT
  POIN2 Label_4_01915FFF
 BYTE   PATT
  POIN2 Label_4_01916013
 BYTE   PATT
  POIN2 Label_4_01916027
 BYTE   PATT
  POIN2 Label_4_0191603B
// 065   ----------------------------------------
 BYTE   W96
// 066   ----------------------------------------
 BYTE   W96
// 067   ----------------------------------------
 BYTE   W96
// 068   ----------------------------------------
 BYTE   W96
// 069   ----------------------------------------
 BYTE   W96
// 070   ----------------------------------------
 BYTE   W96
// 071   ----------------------------------------
 BYTE   W96
 BYTE   PATT
  POIN2 Label_4_0191604B
 BYTE   PATT
  POIN2 Label_4_01916058
 BYTE   PATT
  POIN2 Label_4_0191606D
 BYTE   PATT
  POIN2 Label_4_0191607F
 BYTE   PATT
  POIN2 Label_4_01916096
 BYTE   PATT
  POIN2 Label_4_019160A6
 BYTE   PATT
  POIN2 Label_4_019160BE
 BYTE   PATT
  POIN2 Label_4_019160D2
 BYTE   PATT
  POIN2 Label_4_019160E2
 BYTE   PATT
  POIN2 Label_4_019160F5
 BYTE   PATT
  POIN2 Label_4_01916109
 BYTE   PATT
  POIN2 Label_4_0191611D
 BYTE   PATT
  POIN2 Label_4_01916131
 BYTE   PATT
  POIN2 Label_4_019160F5
 BYTE   PATT
  POIN2 Label_4_01916109
 BYTE   PATT
  POIN2 Label_4_0191614F
 BYTE   PATT
  POIN2 Label_4_01916163
// 072   ----------------------------------------
 BYTE   W96
// 073   ----------------------------------------
 BYTE   W96
// 074   ----------------------------------------
 BYTE   W96
// 075   ----------------------------------------
 BYTE   W96
// 076   ----------------------------------------
 BYTE   W96
// 077   ----------------------------------------
 BYTE   W96
// 078   ----------------------------------------
 BYTE   W96
 BYTE   PATT
  POIN2 Label_4_01916173
 BYTE   PATT
  POIN2 Label_4_0191618A
 BYTE   PATT
  POIN2 Label_4_019161A2
 BYTE   PATT
  POIN2 Label_4_019161C2
 BYTE   PATT
  POIN2 Label_4_019161DB
 BYTE   PATT
  POIN2 Label_4_0191618A
 BYTE   PATT
  POIN2 Label_4_019161FA
 BYTE   PATT
  POIN2 Label_4_0191621C
 BYTE   PATT
  POIN2 Label_4_01916236
 BYTE   PATT
  POIN2 Label_4_0191624B
 BYTE   PATT
  POIN2 Label_4_0191625F
 BYTE   PATT
  POIN2 Label_4_01916273
 BYTE   PATT
  POIN2 Label_4_01916287
// 079   ----------------------------------------
 BYTE   W96
// 080   ----------------------------------------
 BYTE   W96
// 081   ----------------------------------------
 BYTE   W96
// 082   ----------------------------------------
 BYTE   W24
 BYTE   GoTo
  POIN2 Label_4_01915FE2
// 083   ----------------------------------------
 BYTE   W01
 BYTE   FINE

//**************** Track 6 (Midi-Chn.5) ****************//

BanjoTooieKlungoThemeDolkar_006:
// 000   ----------------------------------------
 BYTE   KEYSH   BanjoTooieKlungoThemeDolkar_key+0
Label_5_01916366:
 BYTE   VOICE   57
 BYTE   VOL   101*BanjoTooieKlungoThemeDolkar_mvl/mxv
 BYTE   W96
// 001   ----------------------------------------
 BYTE   W96
// 002   ----------------------------------------
 BYTE   W96
// 003   ----------------------------------------
 BYTE   W96
// 004   ----------------------------------------
 BYTE   W96
// 005   ----------------------------------------
 BYTE   W96
// 006   ----------------------------------------
 BYTE   W96
// 007   ----------------------------------------
 BYTE   W96
// 008   ----------------------------------------
 BYTE   W96
// 009   ----------------------------------------
 BYTE   W96
// 010   ----------------------------------------
 BYTE   W96
// 011   ----------------------------------------
 BYTE   W96
// 012   ----------------------------------------
 BYTE   W96
// 013   ----------------------------------------
 BYTE   W96
// 014   ----------------------------------------
 BYTE   W96
// 015   ----------------------------------------
 BYTE   W96
// 016   ----------------------------------------
 BYTE   W96
// 017   ----------------------------------------
 BYTE   W96
// 018   ----------------------------------------
 BYTE   W96
// 019   ----------------------------------------
 BYTE   W96
// 020   ----------------------------------------
Label_5_0191637E:
 BYTE   W40
 BYTE   W01
 BYTE   N08  Fs2  v100
 BYTE   N08  An2
 BYTE   W24
 BYTE   Fs2
 BYTE   N08  An2
 BYTE   W24
 BYTE   Fs2
 BYTE   N08  An2
 BYTE   W07
 BYTE   PEND 
// 021   ----------------------------------------
Label_5_0191638F:
 BYTE   W17
 BYTE   N08  Fs2  v100
 BYTE   N08  An2
 BYTE   W24
 BYTE   Fs2
 BYTE   N08  An2
 BYTE   W24
 BYTE   Fs2
 BYTE   N08  An2
 BYTE   W24
 BYTE   Fs2
 BYTE   N08  An2
 BYTE   W07
 BYTE   PEND 
// 022   ----------------------------------------
Label_5_019163A3:
 BYTE   W17
 BYTE   N08  Fs2  v100
 BYTE   N08  An2
 BYTE   W24
 BYTE   Ds2
 BYTE   N08  Gn2
 BYTE   W24
 BYTE   Ds2
 BYTE   N08  Gn2
 BYTE   W24
 BYTE   Ds2
 BYTE   N08  Gn2
 BYTE   W07
 BYTE   PEND 
// 023   ----------------------------------------
Label_5_019163B7:
 BYTE   W17
 BYTE   N08  Ds2  v100
 BYTE   N08  Gn2
 BYTE   W24
 BYTE   Ds2
 BYTE   N08  Gn2
 BYTE   W24
 BYTE   Ds2
 BYTE   N08  Gn2
 BYTE   W24
 BYTE   Ds2
 BYTE   N08  Gn2
 BYTE   W07
 BYTE   PEND 
// 024   ----------------------------------------
Label_5_019163CB:
 BYTE   W17
 BYTE   N08  Ds2  v100
 BYTE   N08  Gn2
 BYTE   W24
 BYTE   Fs2
 BYTE   N08  An2
 BYTE   W24
 BYTE   Fs2
 BYTE   N08  An2
 BYTE   W24
 BYTE   Fs2
 BYTE   N08  An2
 BYTE   W07
 BYTE   PEND 
 BYTE   PATT
  POIN2 Label_5_0191638F
 BYTE   PATT
  POIN2 Label_5_019163A3
// 025   ----------------------------------------
Label_5_019163E9:
 BYTE   W17
 BYTE   N08  Ds2  v100
 BYTE   N08  Gn2
 BYTE   W24
 BYTE   Dn2
 BYTE   N08  Fn2
 BYTE   W24
 BYTE   Dn2
 BYTE   N08  Fn2
 BYTE   W24
 BYTE   Dn2
 BYTE   N08  Fn2
 BYTE   W07
 BYTE   PEND 
// 026   ----------------------------------------
Label_5_019163FD:
 BYTE   W17
 BYTE   N08  Dn2  v100
 BYTE   N08  Fn2
 BYTE   W78
 BYTE   W01
 BYTE   PEND 
// 027   ----------------------------------------
 BYTE   W96
// 028   ----------------------------------------
 BYTE   W96
// 029   ----------------------------------------
 BYTE   W96
// 030   ----------------------------------------
 BYTE   W96
// 031   ----------------------------------------
 BYTE   W96
// 032   ----------------------------------------
 BYTE   W96
// 033   ----------------------------------------
 BYTE   W96
// 034   ----------------------------------------
 BYTE   W96
// 035   ----------------------------------------
 BYTE   W96
// 036   ----------------------------------------
 BYTE   W96
// 037   ----------------------------------------
 BYTE   W96
// 038   ----------------------------------------
 BYTE   W96
// 039   ----------------------------------------
 BYTE   W96
// 040   ----------------------------------------
 BYTE   W96
// 041   ----------------------------------------
 BYTE   W96
// 042   ----------------------------------------
 BYTE   W96
// 043   ----------------------------------------
 BYTE   W96
// 044   ----------------------------------------
 BYTE   W96
// 045   ----------------------------------------
 BYTE   W96
// 046   ----------------------------------------
 BYTE   W96
// 047   ----------------------------------------
 BYTE   W96
// 048   ----------------------------------------
 BYTE   W96
// 049   ----------------------------------------
 BYTE   W96
// 050   ----------------------------------------
 BYTE   W96
// 051   ----------------------------------------
 BYTE   W96
// 052   ----------------------------------------
 BYTE   W96
// 053   ----------------------------------------
 BYTE   W96
// 054   ----------------------------------------
 BYTE   W96
// 055   ----------------------------------------
 BYTE   W96
// 056   ----------------------------------------
 BYTE   W96
// 057   ----------------------------------------
 BYTE   W96
// 058   ----------------------------------------
 BYTE   W96
// 059   ----------------------------------------
 BYTE   W96
// 060   ----------------------------------------
 BYTE   W96
// 061   ----------------------------------------
 BYTE   W96
// 062   ----------------------------------------
 BYTE   W96
// 063   ----------------------------------------
 BYTE   W96
// 064   ----------------------------------------
 BYTE   W96
// 065   ----------------------------------------
 BYTE   W96
// 066   ----------------------------------------
 BYTE   W96
// 067   ----------------------------------------
 BYTE   W96
// 068   ----------------------------------------
 BYTE   W96
// 069   ----------------------------------------
 BYTE   W96
// 070   ----------------------------------------
 BYTE   W96
// 071   ----------------------------------------
 BYTE   W96
// 072   ----------------------------------------
 BYTE   W96
// 073   ----------------------------------------
 BYTE   W96
// 074   ----------------------------------------
 BYTE   W96
// 075   ----------------------------------------
 BYTE   W96
// 076   ----------------------------------------
 BYTE   W96
// 077   ----------------------------------------
 BYTE   W96
 BYTE   PATT
  POIN2 Label_5_0191637E
 BYTE   PATT
  POIN2 Label_5_0191638F
 BYTE   PATT
  POIN2 Label_5_019163A3
 BYTE   PATT
  POIN2 Label_5_019163B7
 BYTE   PATT
  POIN2 Label_5_019163CB
 BYTE   PATT
  POIN2 Label_5_0191638F
 BYTE   PATT
  POIN2 Label_5_019163A3
 BYTE   PATT
  POIN2 Label_5_019163E9
 BYTE   PATT
  POIN2 Label_5_019163FD
// 078   ----------------------------------------
 BYTE   W96
// 079   ----------------------------------------
 BYTE   W96
// 080   ----------------------------------------
 BYTE   W96
// 081   ----------------------------------------
 BYTE   W96
// 082   ----------------------------------------
 BYTE   W96
// 083   ----------------------------------------
 BYTE   W96
// 084   ----------------------------------------
 BYTE   W96
// 085   ----------------------------------------
 BYTE   W96
// 086   ----------------------------------------
 BYTE   W96
// 087   ----------------------------------------
 BYTE   W96
// 088   ----------------------------------------
 BYTE   W96
// 089   ----------------------------------------
 BYTE   W96
// 090   ----------------------------------------
 BYTE   W96
// 091   ----------------------------------------
 BYTE   W96
// 092   ----------------------------------------
 BYTE   W96
// 093   ----------------------------------------
 BYTE   W96
// 094   ----------------------------------------
 BYTE   W96
// 095   ----------------------------------------
 BYTE   W96
// 096   ----------------------------------------
 BYTE   W96
// 097   ----------------------------------------
 BYTE   W96
// 098   ----------------------------------------
 BYTE   W96
// 099   ----------------------------------------
 BYTE   W96
// 100   ----------------------------------------
 BYTE   W96
// 101   ----------------------------------------
 BYTE   W96
// 102   ----------------------------------------
 BYTE   W96
// 103   ----------------------------------------
 BYTE   W96
// 104   ----------------------------------------
 BYTE   W96
// 105   ----------------------------------------
 BYTE   W96
// 106   ----------------------------------------
 BYTE   W96
// 107   ----------------------------------------
 BYTE   W96
// 108   ----------------------------------------
 BYTE   W96
// 109   ----------------------------------------
 BYTE   W24
 BYTE   GoTo
  POIN2 Label_5_01916366
// 110   ----------------------------------------
 BYTE   W01
 BYTE   FINE

//**************** Track 7 (Midi-Chn.6) ****************//

BanjoTooieKlungoThemeDolkar_007:
// 000   ----------------------------------------
 BYTE   KEYSH   BanjoTooieKlungoThemeDolkar_key+0
Label_6_01916492:
 BYTE   VOICE   13
 BYTE   VOL   111*BanjoTooieKlungoThemeDolkar_mvl/mxv
 BYTE   W96
// 001   ----------------------------------------
 BYTE   W96
// 002   ----------------------------------------
 BYTE   W96
// 003   ----------------------------------------
 BYTE   W96
// 004   ----------------------------------------
 BYTE   W96
// 005   ----------------------------------------
 BYTE   W96
// 006   ----------------------------------------
 BYTE   W96
// 007   ----------------------------------------
 BYTE   W96
// 008   ----------------------------------------
Label_6_0191649E:
 BYTE   W28
 BYTE   W01
 BYTE   N08  Fn3  v104
 BYTE   W12
 BYTE   N04
 BYTE   W06
 BYTE   Gn3
 BYTE   W06
 BYTE   Gs3
 BYTE   W06
 BYTE   Gn3
 BYTE   W06
 BYTE   Fn3
 BYTE   W12
 BYTE   N08  Gn3
 BYTE   W12
 BYTE   Cn4
 BYTE   W07
 BYTE   PEND 
// 009   ----------------------------------------
Label_6_019164B4:
 BYTE   W05
 BYTE   N08  Cn3  v104
 BYTE   W12
 BYTE   Gn3
 BYTE   W12
 BYTE   Gs3
 BYTE   W12
 BYTE   N04
 BYTE   W06
 BYTE   As3
 BYTE   W06
 BYTE   Cn4
 BYTE   W06
 BYTE   As3
 BYTE   W06
 BYTE   Gs3
 BYTE   W12
 BYTE   N02  Gn3
 BYTE   W04
 BYTE   Gs3
 BYTE   W04
 BYTE   Gn3
 BYTE   W04
 BYTE   Gs3
 BYTE   W04
 BYTE   Gn3
 BYTE   W03
 BYTE   PEND 
// 010   ----------------------------------------
Label_6_019164D3:
 BYTE   W01
 BYTE   N02  Gs3  v104
 BYTE   W04
 BYTE   Gn3
 BYTE   W04
 BYTE   Gs3
 BYTE   W04
 BYTE   Gn3
 BYTE   W04
 BYTE   Gs3
 BYTE   W04
 BYTE   Gn3
 BYTE   W04
 BYTE   Gs3
 BYTE   W04
 BYTE   N08  Fn3
 BYTE   W12
 BYTE   N04
 BYTE   W06
 BYTE   Gn3
 BYTE   W06
 BYTE   Gs3
 BYTE   W06
 BYTE   Gn3
 BYTE   W06
 BYTE   Fn3
 BYTE   W12
 BYTE   N08  Ds3
 BYTE   W12
 BYTE   N04
 BYTE   W06
 BYTE   Fn3
 BYTE   W01
 BYTE   PEND 
// 011   ----------------------------------------
Label_6_019164F9:
 BYTE   W05
 BYTE   N04  Gn3  v104
 BYTE   W06
 BYTE   Fn3
 BYTE   W06
 BYTE   Ds3
 BYTE   W12
 BYTE   N08  Cs3
 BYTE   W12
 BYTE   N04
 BYTE   W06
 BYTE   Ds3
 BYTE   W06
 BYTE   N08  Fn3
 BYTE   W12
 BYTE   Fs3
 BYTE   W12
 BYTE   Gn3
 BYTE   W12
 BYTE   Gn2
 BYTE   W07
 BYTE   PEND 
// 012   ----------------------------------------
Label_6_01916513:
 BYTE   W05
 BYTE   N08  Gn3  v104
 BYTE   W12
 BYTE   Gn2
 BYTE   W78
 BYTE   W01
 BYTE   PEND 
// 013   ----------------------------------------
 BYTE   W96
// 014   ----------------------------------------
 BYTE   W96
// 015   ----------------------------------------
 BYTE   W96
// 016   ----------------------------------------
 BYTE   W96
// 017   ----------------------------------------
 BYTE   W96
// 018   ----------------------------------------
 BYTE   W96
// 019   ----------------------------------------
 BYTE   W96
// 020   ----------------------------------------
 BYTE   W96
// 021   ----------------------------------------
 BYTE   W96
// 022   ----------------------------------------
 BYTE   W96
// 023   ----------------------------------------
 BYTE   W96
// 024   ----------------------------------------
 BYTE   W96
// 025   ----------------------------------------
 BYTE   W96
// 026   ----------------------------------------
 BYTE   W96
// 027   ----------------------------------------
 BYTE   W96
// 028   ----------------------------------------
Label_6_0191652B:
 BYTE   W28
 BYTE   W01
 BYTE   N20  Fs3  v100
 BYTE   W24
 BYTE   N20
 BYTE   W24
 BYTE   N04
 BYTE   W12
 BYTE   Gs3
 BYTE   W07
 BYTE   PEND 
// 029   ----------------------------------------
Label_6_01916538:
 BYTE   W05
 BYTE   N04  An3  v100
 BYTE   W04
 BYTE   As3
 BYTE   W04
 BYTE   An3
 BYTE   W04
 BYTE   As3
 BYTE   W04
 BYTE   An3
 BYTE   W04
 BYTE   As3
 BYTE   W04
 BYTE   N12  An3
 BYTE   W12
 BYTE   N06  Gs3
 BYTE   W12
 BYTE   N12  An3
 BYTE   W12
 BYTE   N06  Gs3
 BYTE   W12
 BYTE   N12  An3
 BYTE   W12
 BYTE   N06  Gs3
 BYTE   W07
 BYTE   PEND 
// 030   ----------------------------------------
Label_6_0191655A:
 BYTE   W05
 BYTE   N06  Fs3  v100
 BYTE   W12
 BYTE   N04  An3
 BYTE   W04
 BYTE   Bn3
 BYTE   W04
 BYTE   An3
 BYTE   W04
 BYTE   N32  Gn3
 BYTE   W36
 BYTE   N06  Fn3
 BYTE   W12
 BYTE   N20  Ds3
 BYTE   W19
 BYTE   PEND 
// 031   ----------------------------------------
Label_6_01916570:
 BYTE   W05
 BYTE   N20  Cn3  v100
 BYTE   W12
 BYTE   N02  Dn2
 BYTE   W02
 BYTE   En2
 BYTE   W02
 BYTE   Fn2
 BYTE   W02
 BYTE   Gn2
 BYTE   W02
 BYTE   An2
 BYTE   W02
 BYTE   Bn2
 BYTE   W02
 BYTE   N12  Cn3
 BYTE   W12
 BYTE   N06  Dn3
 BYTE   W12
 BYTE   Ds3
 BYTE   W12
 BYTE   Gn3
 BYTE   W12
 BYTE   N12  Gs3
 BYTE   W12
 BYTE   N04  Gn3
 BYTE   W04
 BYTE   Gs3
 BYTE   W03
 BYTE   PEND 
// 032   ----------------------------------------
Label_6_01916595:
 BYTE   W01
 BYTE   N04  Gn3  v100
 BYTE   W04
 BYTE   N06  Ds3
 BYTE   W12
 BYTE   Dn3
 BYTE   W12
 BYTE   N20  Cs3
 BYTE   W24
 BYTE   Fs3
 BYTE   W24
 BYTE   N04
 BYTE   W04
 BYTE   An3
 BYTE   W04
 BYTE   Fs3
 BYTE   W04
 BYTE   An3
 BYTE   W04
 BYTE   Fs3
 BYTE   W03
 BYTE   PEND 
// 033   ----------------------------------------
Label_6_019165AF:
 BYTE   W01
 BYTE   N04  An3  v100
 BYTE   W04
 BYTE   Fs3
 BYTE   W04
 BYTE   An3
 BYTE   W04
 BYTE   Fs3
 BYTE   W04
 BYTE   N06  Cs3
 BYTE   W12
 BYTE   N12  Fs3
 BYTE   W12
 BYTE   N06  Cs3
 BYTE   W12
 BYTE   Fs3
 BYTE   W12
 BYTE   Gs3
 BYTE   W12
 BYTE   An3
 BYTE   W12
 BYTE   N04  Gs3
 BYTE   W04
 BYTE   An3
 BYTE   W03
 BYTE   PEND 
// 034   ----------------------------------------
Label_6_019165CF:
 BYTE   W01
 BYTE   N04  Gs3  v100
 BYTE   W04
 BYTE   N06  Fs3
 BYTE   W12
 BYTE   An3
 BYTE   W12
 BYTE   N20  Gn3
 BYTE   W24
 BYTE   N06
 BYTE   W12
 BYTE   Gs3
 BYTE   W12
 BYTE   N20  Gn3
 BYTE   W19
 BYTE   PEND 
// 035   ----------------------------------------
Label_6_019165E4:
 BYTE   W05
 BYTE   N06  Gn3  v100
 BYTE   W12
 BYTE   N04  Gs3
 BYTE   W04
 BYTE   An3
 BYTE   W04
 BYTE   Gs3
 BYTE   W04
 BYTE   N20  Gn3
 BYTE   W24
 BYTE   Fn3
 BYTE   W24
 BYTE   Ds3
 BYTE   W19
 BYTE   PEND 
// 036   ----------------------------------------
Label_6_019165F8:
 BYTE   W05
 BYTE   N20  Dn3  v100
 BYTE   W90
 BYTE   W01
 BYTE   PEND 
// 037   ----------------------------------------
 BYTE   W96
// 038   ----------------------------------------
 BYTE   W96
// 039   ----------------------------------------
 BYTE   W96
// 040   ----------------------------------------
 BYTE   W96
// 041   ----------------------------------------
 BYTE   W96
// 042   ----------------------------------------
 BYTE   W96
// 043   ----------------------------------------
 BYTE   W96
// 044   ----------------------------------------
 BYTE   W96
// 045   ----------------------------------------
 BYTE   W96
// 046   ----------------------------------------
 BYTE   W96
// 047   ----------------------------------------
 BYTE   W96
// 048   ----------------------------------------
 BYTE   W96
// 049   ----------------------------------------
 BYTE   W96
// 050   ----------------------------------------
 BYTE   W96
// 051   ----------------------------------------
 BYTE   W96
// 052   ----------------------------------------
Label_6_0191660E:
 BYTE   W28
 BYTE   W01
 BYTE   N08  Fs3  v104
 BYTE   W12
 BYTE   N04
 BYTE   W06
 BYTE   Gs3
 BYTE   W06
 BYTE   An3
 BYTE   W06
 BYTE   Gs3
 BYTE   W06
 BYTE   Fs3
 BYTE   W12
 BYTE   N08  Gs3
 BYTE   W12
 BYTE   Cs4
 BYTE   W07
 BYTE   PEND 
// 053   ----------------------------------------
Label_6_01916624:
 BYTE   W05
 BYTE   N08  Cs3  v104
 BYTE   W12
 BYTE   Gs3
 BYTE   W12
 BYTE   An3
 BYTE   W12
 BYTE   N04
 BYTE   W06
 BYTE   Bn3
 BYTE   W06
 BYTE   Cs4
 BYTE   W06
 BYTE   Bn3
 BYTE   W06
 BYTE   An3
 BYTE   W12
 BYTE   N02  Gs3
 BYTE   W04
 BYTE   An3
 BYTE   W04
 BYTE   Gs3
 BYTE   W04
 BYTE   An3
 BYTE   W04
 BYTE   Gs3
 BYTE   W03
 BYTE   PEND 
// 054   ----------------------------------------
Label_6_01916643:
 BYTE   W01
 BYTE   N02  An3  v104
 BYTE   W04
 BYTE   Gs3
 BYTE   W04
 BYTE   An3
 BYTE   W04
 BYTE   Gs3
 BYTE   W04
 BYTE   An3
 BYTE   W04
 BYTE   Gs3
 BYTE   W04
 BYTE   An3
 BYTE   W04
 BYTE   N08  Fs3
 BYTE   W12
 BYTE   N04
 BYTE   W06
 BYTE   Gs3
 BYTE   W06
 BYTE   An3
 BYTE   W06
 BYTE   Gs3
 BYTE   W06
 BYTE   Fs3
 BYTE   W12
 BYTE   N08  En3
 BYTE   W12
 BYTE   N04
 BYTE   W06
 BYTE   Fs3
 BYTE   W01
 BYTE   PEND 
// 055   ----------------------------------------
Label_6_01916669:
 BYTE   W05
 BYTE   N04  Gs3  v104
 BYTE   W06
 BYTE   Fs3
 BYTE   W06
 BYTE   En3
 BYTE   W12
 BYTE   N08  Dn3
 BYTE   W12
 BYTE   N04
 BYTE   W06
 BYTE   En3
 BYTE   W06
 BYTE   N08  Fs3
 BYTE   W12
 BYTE   Gn3
 BYTE   W12
 BYTE   Gs3
 BYTE   W12
 BYTE   Gs2
 BYTE   W07
 BYTE   PEND 
// 056   ----------------------------------------
Label_6_01916683:
 BYTE   W05
 BYTE   N08  Gs3  v104
 BYTE   W12
 BYTE   Gs2
 BYTE   W78
 BYTE   W01
 BYTE   PEND 
// 057   ----------------------------------------
 BYTE   W96
// 058   ----------------------------------------
 BYTE   W96
// 059   ----------------------------------------
 BYTE   W96
// 060   ----------------------------------------
 BYTE   W96
// 061   ----------------------------------------
 BYTE   W96
// 062   ----------------------------------------
 BYTE   W96
// 063   ----------------------------------------
 BYTE   W96
// 064   ----------------------------------------
 BYTE   W96
// 065   ----------------------------------------
 BYTE   W96
// 066   ----------------------------------------
 BYTE   W96
// 067   ----------------------------------------
 BYTE   W96
 BYTE   PATT
  POIN2 Label_6_0191649E
 BYTE   PATT
  POIN2 Label_6_019164B4
 BYTE   PATT
  POIN2 Label_6_019164D3
 BYTE   PATT
  POIN2 Label_6_019164F9
 BYTE   PATT
  POIN2 Label_6_01916513
// 068   ----------------------------------------
 BYTE   W96
// 069   ----------------------------------------
 BYTE   W96
// 070   ----------------------------------------
 BYTE   W96
// 071   ----------------------------------------
 BYTE   W96
// 072   ----------------------------------------
 BYTE   W96
// 073   ----------------------------------------
 BYTE   W96
// 074   ----------------------------------------
 BYTE   W96
// 075   ----------------------------------------
 BYTE   W96
// 076   ----------------------------------------
 BYTE   W96
// 077   ----------------------------------------
 BYTE   W96
// 078   ----------------------------------------
 BYTE   W96
// 079   ----------------------------------------
 BYTE   W96
// 080   ----------------------------------------
 BYTE   W96
// 081   ----------------------------------------
 BYTE   W96
// 082   ----------------------------------------
 BYTE   W96
 BYTE   PATT
  POIN2 Label_6_0191652B
 BYTE   PATT
  POIN2 Label_6_01916538
 BYTE   PATT
  POIN2 Label_6_0191655A
 BYTE   PATT
  POIN2 Label_6_01916570
 BYTE   PATT
  POIN2 Label_6_01916595
 BYTE   PATT
  POIN2 Label_6_019165AF
 BYTE   PATT
  POIN2 Label_6_019165CF
 BYTE   PATT
  POIN2 Label_6_019165E4
 BYTE   PATT
  POIN2 Label_6_019165F8
// 083   ----------------------------------------
 BYTE   W96
// 084   ----------------------------------------
 BYTE   W96
// 085   ----------------------------------------
 BYTE   W96
// 086   ----------------------------------------
 BYTE   W96
// 087   ----------------------------------------
 BYTE   W96
// 088   ----------------------------------------
 BYTE   W96
// 089   ----------------------------------------
 BYTE   W96
// 090   ----------------------------------------
 BYTE   W96
// 091   ----------------------------------------
 BYTE   W96
// 092   ----------------------------------------
 BYTE   W96
// 093   ----------------------------------------
 BYTE   W96
// 094   ----------------------------------------
 BYTE   W96
// 095   ----------------------------------------
 BYTE   W96
// 096   ----------------------------------------
 BYTE   W96
// 097   ----------------------------------------
 BYTE   W96
 BYTE   PATT
  POIN2 Label_6_0191660E
 BYTE   PATT
  POIN2 Label_6_01916624
 BYTE   PATT
  POIN2 Label_6_01916643
 BYTE   PATT
  POIN2 Label_6_01916669
 BYTE   PATT
  POIN2 Label_6_01916683
// 098   ----------------------------------------
 BYTE   W96
// 099   ----------------------------------------
 BYTE   W96
// 100   ----------------------------------------
 BYTE   W96
// 101   ----------------------------------------
 BYTE   W24
 BYTE   GoTo
  POIN2 Label_6_01916492
// 102   ----------------------------------------
 BYTE   W01
 BYTE   FINE

//**************** Track 8 (Midi-Chn.7) ****************//

BanjoTooieKlungoThemeDolkar_008:
// 000   ----------------------------------------
 BYTE   KEYSH   BanjoTooieKlungoThemeDolkar_key+0
Label_7_01916722:
 BYTE   VOICE   67
 BYTE   VOL   113*BanjoTooieKlungoThemeDolkar_mvl/mxv
 BYTE   W96
// 001   ----------------------------------------
 BYTE   W96
// 002   ----------------------------------------
 BYTE   W96
// 003   ----------------------------------------
 BYTE   W96
// 004   ----------------------------------------
 BYTE   W96
// 005   ----------------------------------------
 BYTE   W96
// 006   ----------------------------------------
 BYTE   W96
// 007   ----------------------------------------
 BYTE   W96
// 008   ----------------------------------------
 BYTE   W96
// 009   ----------------------------------------
 BYTE   W96
// 010   ----------------------------------------
 BYTE   W96
// 011   ----------------------------------------
 BYTE   W96
// 012   ----------------------------------------
 BYTE   W96
// 013   ----------------------------------------
 BYTE   W96
// 014   ----------------------------------------
 BYTE   W96
// 015   ----------------------------------------
 BYTE   W96
// 016   ----------------------------------------
 BYTE   W96
// 017   ----------------------------------------
 BYTE   W96
// 018   ----------------------------------------
 BYTE   W96
// 019   ----------------------------------------
 BYTE   W96
// 020   ----------------------------------------
 BYTE   W96
// 021   ----------------------------------------
 BYTE   W96
// 022   ----------------------------------------
 BYTE   W96
// 023   ----------------------------------------
 BYTE   W96
// 024   ----------------------------------------
 BYTE   W96
// 025   ----------------------------------------
 BYTE   W96
// 026   ----------------------------------------
 BYTE   W96
// 027   ----------------------------------------
 BYTE   W96
// 028   ----------------------------------------
 BYTE   W96
// 029   ----------------------------------------
 BYTE   W96
// 030   ----------------------------------------
 BYTE   W96
// 031   ----------------------------------------
 BYTE   W96
// 032   ----------------------------------------
 BYTE   W96
// 033   ----------------------------------------
 BYTE   W96
// 034   ----------------------------------------
 BYTE   W96
// 035   ----------------------------------------
 BYTE   W96
// 036   ----------------------------------------
Label_7_0191674A:
 BYTE   W28
 BYTE   W01
 BYTE   N05  Cn1  v104
 BYTE   W12
 BYTE   N05
 BYTE   W06
 BYTE   Dn1
 BYTE   W06
 BYTE   Ds1
 BYTE   W12
 BYTE   Cn1
 BYTE   W12
 BYTE   Gn1
 BYTE   W06
 BYTE   Fs1
 BYTE   W06
 BYTE   Gn1
 BYTE   W06
 BYTE   Fs1
 BYTE   W01
 BYTE   PEND 
// 037   ----------------------------------------
Label_7_01916761:
 BYTE   W05
 BYTE   N05  Gn1  v104
 BYTE   W12
 BYTE   Ds1
 BYTE   W12
 BYTE   Cn1
 BYTE   W12
 BYTE   N05
 BYTE   W06
 BYTE   Dn1
 BYTE   W06
 BYTE   Ds1
 BYTE   W12
 BYTE   Cn1
 BYTE   W12
 BYTE   N11  Bn0
 BYTE   W12
 BYTE   N05  Dn1
 BYTE   W07
 BYTE   PEND 
// 038   ----------------------------------------
Label_7_01916779:
 BYTE   W05
 BYTE   N11  Gn0  v104
 BYTE   W08
 BYTE   N03  An0
 BYTE   W04
 BYTE   As0
 BYTE   W04
 BYTE   Bn0
 BYTE   W04
 BYTE   Cn1
 BYTE   W04
 BYTE   N05
 BYTE   W12
 BYTE   N05
 BYTE   W06
 BYTE   Dn1
 BYTE   W06
 BYTE   Ds1
 BYTE   W12
 BYTE   Cn1
 BYTE   W12
 BYTE   Gn1
 BYTE   W06
 BYTE   Fs1
 BYTE   W06
 BYTE   Gn1
 BYTE   W06
 BYTE   Fs1
 BYTE   W01
 BYTE   PEND 
// 039   ----------------------------------------
Label_7_0191679A:
 BYTE   W05
 BYTE   N05  Gn1  v104
 BYTE   W12
 BYTE   Ds1
 BYTE   W12
 BYTE   Gs1
 BYTE   W06
 BYTE   As1
 BYTE   W06
 BYTE   N04  Cn2
 BYTE   W12
 BYTE   N08
 BYTE   W12
 BYTE   Gs1
 BYTE   W12
 BYTE   N11  Gn1
 BYTE   W12
 BYTE   N05  An1
 BYTE   W07
 BYTE   PEND 
// 040   ----------------------------------------
Label_7_019167B3:
 BYTE   W05
 BYTE   N05  Bn1  v104
 BYTE   W12
 BYTE   N08  Gn1
 BYTE   W12
 BYTE   N05  Cn1
 BYTE   W12
 BYTE   N05
 BYTE   W06
 BYTE   Dn1
 BYTE   W06
 BYTE   Ds1
 BYTE   W12
 BYTE   Cn1
 BYTE   W12
 BYTE   Gn1
 BYTE   W06
 BYTE   Fs1
 BYTE   W06
 BYTE   Gn1
 BYTE   W06
 BYTE   Fs1
 BYTE   W01
 BYTE   PEND 
 BYTE   PATT
  POIN2 Label_7_01916761
// 041   ----------------------------------------
Label_7_019167D4:
 BYTE   W05
 BYTE   N11  Gn0  v104
 BYTE   W08
 BYTE   N03  Cn1
 BYTE   W04
 BYTE   En1
 BYTE   W04
 BYTE   Fn1
 BYTE   W04
 BYTE   Gn1
 BYTE   W04
 BYTE   N05  Gs1
 BYTE   W06
 BYTE   Gn1
 BYTE   W06
 BYTE   Gs1
 BYTE   W06
 BYTE   Gn1
 BYTE   W06
 BYTE   Gs1
 BYTE   W12
 BYTE   Fn1
 BYTE   W12
 BYTE   Gn1
 BYTE   W06
 BYTE   Fs1
 BYTE   W06
 BYTE   Gn1
 BYTE   W06
 BYTE   Fs1
 BYTE   W01
 BYTE   PEND 
// 042   ----------------------------------------
Label_7_019167F8:
 BYTE   W05
 BYTE   N05  Gn1  v104
 BYTE   W12
 BYTE   Ds1
 BYTE   W12
 BYTE   Dn1
 BYTE   W06
 BYTE   Cs1
 BYTE   W06
 BYTE   Dn1
 BYTE   W06
 BYTE   Cs1
 BYTE   W06
 BYTE   Dn1
 BYTE   W12
 BYTE   Gn1
 BYTE   W12
 BYTE   N11  Cn1
 BYTE   W12
 BYTE   N05  Gn0
 BYTE   W07
 BYTE   PEND 
// 043   ----------------------------------------
Label_7_01916812:
 BYTE   W05
 BYTE   N05  An0  v104
 BYTE   W12
 BYTE   Bn0
 BYTE   W78
 BYTE   W01
 BYTE   PEND 
// 044   ----------------------------------------
 BYTE   W96
// 045   ----------------------------------------
 BYTE   W96
// 046   ----------------------------------------
 BYTE   W96
// 047   ----------------------------------------
 BYTE   W96
// 048   ----------------------------------------
 BYTE   W96
// 049   ----------------------------------------
 BYTE   W96
// 050   ----------------------------------------
 BYTE   W96
// 051   ----------------------------------------
 BYTE   W96
// 052   ----------------------------------------
 BYTE   W96
// 053   ----------------------------------------
 BYTE   W96
// 054   ----------------------------------------
 BYTE   W96
// 055   ----------------------------------------
 BYTE   W96
// 056   ----------------------------------------
 BYTE   W96
// 057   ----------------------------------------
 BYTE   W96
// 058   ----------------------------------------
 BYTE   W96
// 059   ----------------------------------------
 BYTE   W96
// 060   ----------------------------------------
 BYTE   W96
// 061   ----------------------------------------
 BYTE   W96
// 062   ----------------------------------------
 BYTE   W96
// 063   ----------------------------------------
 BYTE   W96
// 064   ----------------------------------------
 BYTE   W96
// 065   ----------------------------------------
 BYTE   W96
// 066   ----------------------------------------
 BYTE   W96
// 067   ----------------------------------------
 BYTE   W96
// 068   ----------------------------------------
 BYTE   W96
// 069   ----------------------------------------
 BYTE   W96
// 070   ----------------------------------------
 BYTE   W96
// 071   ----------------------------------------
 BYTE   W96
// 072   ----------------------------------------
 BYTE   W96
// 073   ----------------------------------------
 BYTE   W96
// 074   ----------------------------------------
 BYTE   W96
// 075   ----------------------------------------
 BYTE   W96
// 076   ----------------------------------------
 BYTE   W96
// 077   ----------------------------------------
 BYTE   W96
// 078   ----------------------------------------
 BYTE   W96
// 079   ----------------------------------------
 BYTE   W96
// 080   ----------------------------------------
 BYTE   W96
// 081   ----------------------------------------
 BYTE   W96
// 082   ----------------------------------------
 BYTE   W96
// 083   ----------------------------------------
 BYTE   W96
// 084   ----------------------------------------
 BYTE   W96
// 085   ----------------------------------------
 BYTE   W96
// 086   ----------------------------------------
 BYTE   W96
// 087   ----------------------------------------
 BYTE   W96
// 088   ----------------------------------------
 BYTE   W96
// 089   ----------------------------------------
 BYTE   W96
// 090   ----------------------------------------
 BYTE   W96
// 091   ----------------------------------------
 BYTE   W96
// 092   ----------------------------------------
 BYTE   W96
// 093   ----------------------------------------
 BYTE   W96
// 094   ----------------------------------------
 BYTE   W96
 BYTE   PATT
  POIN2 Label_7_0191674A
 BYTE   PATT
  POIN2 Label_7_01916761
 BYTE   PATT
  POIN2 Label_7_01916779
 BYTE   PATT
  POIN2 Label_7_0191679A
 BYTE   PATT
  POIN2 Label_7_019167B3
 BYTE   PATT
  POIN2 Label_7_01916761
 BYTE   PATT
  POIN2 Label_7_019167D4
 BYTE   PATT
  POIN2 Label_7_019167F8
 BYTE   PATT
  POIN2 Label_7_01916812
// 095   ----------------------------------------
 BYTE   W96
// 096   ----------------------------------------
 BYTE   W96
// 097   ----------------------------------------
 BYTE   W96
// 098   ----------------------------------------
 BYTE   W96
// 099   ----------------------------------------
 BYTE   W96
// 100   ----------------------------------------
 BYTE   W96
// 101   ----------------------------------------
 BYTE   W96
// 102   ----------------------------------------
 BYTE   W96
// 103   ----------------------------------------
 BYTE   W96
// 104   ----------------------------------------
 BYTE   W96
// 105   ----------------------------------------
 BYTE   W96
// 106   ----------------------------------------
 BYTE   W96
// 107   ----------------------------------------
 BYTE   W96
// 108   ----------------------------------------
 BYTE   W96
// 109   ----------------------------------------
 BYTE   W96
// 110   ----------------------------------------
 BYTE   W24
 BYTE   GoTo
  POIN2 Label_7_01916722
// 111   ----------------------------------------
 BYTE   W01
 BYTE   FINE

//**************** Track 9 (Midi-Chn.8) ****************//

BanjoTooieKlungoThemeDolkar_009:
// 000   ----------------------------------------
 BYTE   KEYSH   BanjoTooieKlungoThemeDolkar_key+0
Label_8_01916896:
 BYTE   VOL   90*BanjoTooieKlungoThemeDolkar_mvl/mxv
 BYTE   W05
 BYTE   N04  En1  v100
 BYTE   W12
 BYTE   N04
 BYTE   W12
 BYTE   Cn1
 BYTE   W12
 BYTE   En1
 BYTE   W12
 BYTE   Cn1
 BYTE   N16  Fn2  v052
 BYTE   N16  Gn2
 BYTE   N16  An2
 BYTE   N16  Bn2
 BYTE   W12
 BYTE   N04  En1  v100
 BYTE   W12
 BYTE   Cn1
 BYTE   W12
 BYTE   En1
 BYTE   W07
// 001   ----------------------------------------
Label_8_019168B6:
 BYTE   W05
 BYTE   N04  Cn1  v100
 BYTE   N16  Fn2  v052
 BYTE   N16  Gn2
 BYTE   N16  An2
 BYTE   N16  Bn2
 BYTE   W12
 BYTE   N04  En1  v100
 BYTE   W12
 BYTE   Cn1
 BYTE   W12
 BYTE   En1
 BYTE   W12
 BYTE   Cn1
 BYTE   N16  Fn2  v052
 BYTE   N16  Gn2
 BYTE   N16  An2
 BYTE   N16  Bn2
 BYTE   W12
 BYTE   N04  En1  v100
 BYTE   W12
 BYTE   Cn1
 BYTE   W12
 BYTE   En1
 BYTE   W07
 BYTE   PEND 
 BYTE   PATT
  POIN2 Label_8_019168B6
// 002   ----------------------------------------
Label_8_019168E5:
 BYTE   W05
 BYTE   N04  Cn1  v100
 BYTE   N16  Fn2  v052
 BYTE   N16  Gn2
 BYTE   N16  An2
 BYTE   N16  Bn2
 BYTE   W12
 BYTE   N04  En1  v100
 BYTE   W12
 BYTE   Cn1
 BYTE   W12
 BYTE   En1
 BYTE   W12
 BYTE   Cn1
 BYTE   N16  Fn2  v052
 BYTE   N16  Gn2
 BYTE   N16  An2
 BYTE   N16  Bn2
 BYTE   W12
 BYTE   N04  En1  v100
 BYTE   W12
 BYTE   Cn1
 BYTE   W12
 BYTE   En1
 BYTE   W06
 BYTE   N04
 BYTE   W01
 BYTE   PEND 
// 003   ----------------------------------------
Label_8_01916911:
 BYTE   W05
 BYTE   N04  Cn1  v100
 BYTE   N04  En1
 BYTE   N16  Fn2  v052
 BYTE   N16  Gn2
 BYTE   N16  An2
 BYTE   N16  Bn2
 BYTE   W12
 BYTE   N04  En1  v100
 BYTE   W12
 BYTE   Cn1
 BYTE   W12
 BYTE   En1
 BYTE   W12
 BYTE   Cn1
 BYTE   N16  Fn2  v052
 BYTE   N16  Gn2
 BYTE   N16  An2
 BYTE   N16  Bn2
 BYTE   W12
 BYTE   N04  En1  v100
 BYTE   W12
 BYTE   Cn1
 BYTE   W12
 BYTE   En1
 BYTE   W07
 BYTE   PEND 
 BYTE   PATT
  POIN2 Label_8_019168B6
// 004   ----------------------------------------
Label_8_01916942:
 BYTE   W05
 BYTE   N04  Cn1  v100
 BYTE   N16  Fn2  v052
 BYTE   N16  Gn2
 BYTE   N16  An2
 BYTE   N16  Bn2
 BYTE   W12
 BYTE   N04  En1  v100
 BYTE   W06
 BYTE   N04
 BYTE   W06
 BYTE   Cn1
 BYTE   W12
 BYTE   En1
 BYTE   W12
 BYTE   Cn1
 BYTE   N16  Fn2  v052
 BYTE   N16  Gn2
 BYTE   N16  An2
 BYTE   N16  Bn2
 BYTE   W12
 BYTE   N04  En1  v100
 BYTE   W12
 BYTE   Cn1
 BYTE   W12
 BYTE   En1
 BYTE   W07
 BYTE   PEND 
 BYTE   PATT
  POIN2 Label_8_019168E5
 BYTE   PATT
  POIN2 Label_8_01916911
 BYTE   PATT
  POIN2 Label_8_019168E5
 BYTE   PATT
  POIN2 Label_8_01916911
 BYTE   PATT
  POIN2 Label_8_019168B6
 BYTE   PATT
  POIN2 Label_8_019168B6
 BYTE   PATT
  POIN2 Label_8_019168B6
 BYTE   PATT
  POIN2 Label_8_019168B6
 BYTE   PATT
  POIN2 Label_8_019168E5
 BYTE   PATT
  POIN2 Label_8_01916911
 BYTE   PATT
  POIN2 Label_8_019168B6
 BYTE   PATT
  POIN2 Label_8_01916942
 BYTE   PATT
  POIN2 Label_8_019168E5
 BYTE   PATT
  POIN2 Label_8_01916911
 BYTE   PATT
  POIN2 Label_8_019168E5
 BYTE   PATT
  POIN2 Label_8_01916911
 BYTE   PATT
  POIN2 Label_8_019168E5
 BYTE   PATT
  POIN2 Label_8_01916911
 BYTE   PATT
  POIN2 Label_8_019168E5
 BYTE   PATT
  POIN2 Label_8_01916911
 BYTE   PATT
  POIN2 Label_8_019168B6
 BYTE   PATT
  POIN2 Label_8_019168B6
 BYTE   PATT
  POIN2 Label_8_019168E5
 BYTE   PATT
  POIN2 Label_8_01916911
 BYTE   PATT
  POIN2 Label_8_019168E5
 BYTE   PATT
  POIN2 Label_8_01916911
 BYTE   PATT
  POIN2 Label_8_019168E5
 BYTE   PATT
  POIN2 Label_8_01916911
 BYTE   PATT
  POIN2 Label_8_019168B6
 BYTE   PATT
  POIN2 Label_8_019168B6
 BYTE   PATT
  POIN2 Label_8_019168B6
 BYTE   PATT
  POIN2 Label_8_019168B6
 BYTE   PATT
  POIN2 Label_8_019168E5
 BYTE   PATT
  POIN2 Label_8_01916911
 BYTE   PATT
  POIN2 Label_8_019168B6
 BYTE   PATT
  POIN2 Label_8_01916942
 BYTE   PATT
  POIN2 Label_8_019168E5
 BYTE   PATT
  POIN2 Label_8_01916911
 BYTE   PATT
  POIN2 Label_8_019168B6
 BYTE   PATT
  POIN2 Label_8_019168B6
 BYTE   PATT
  POIN2 Label_8_019168E5
 BYTE   PATT
  POIN2 Label_8_01916911
 BYTE   PATT
  POIN2 Label_8_019168B6
 BYTE   PATT
  POIN2 Label_8_01916942
 BYTE   PATT
  POIN2 Label_8_019168E5
 BYTE   PATT
  POIN2 Label_8_01916911
 BYTE   PATT
  POIN2 Label_8_019168E5
 BYTE   PATT
  POIN2 Label_8_01916911
 BYTE   PATT
  POIN2 Label_8_019168B6
 BYTE   PATT
  POIN2 Label_8_019168B6
 BYTE   PATT
  POIN2 Label_8_019168B6
 BYTE   PATT
  POIN2 Label_8_019168B6
 BYTE   PATT
  POIN2 Label_8_019168E5
 BYTE   PATT
  POIN2 Label_8_01916911
 BYTE   PATT
  POIN2 Label_8_019168B6
 BYTE   PATT
  POIN2 Label_8_019168B6
 BYTE   PATT
  POIN2 Label_8_019168E5
 BYTE   PATT
  POIN2 Label_8_01916911
 BYTE   PATT
  POIN2 Label_8_019168B6
 BYTE   PATT
  POIN2 Label_8_01916942
 BYTE   PATT
  POIN2 Label_8_019168E5
 BYTE   PATT
  POIN2 Label_8_01916911
 BYTE   PATT
  POIN2 Label_8_019168E5
 BYTE   PATT
  POIN2 Label_8_01916911
 BYTE   PATT
  POIN2 Label_8_019168B6
 BYTE   PATT
  POIN2 Label_8_019168B6
 BYTE   PATT
  POIN2 Label_8_019168B6
 BYTE   PATT
  POIN2 Label_8_019168B6
 BYTE   PATT
  POIN2 Label_8_019168E5
 BYTE   PATT
  POIN2 Label_8_01916911
 BYTE   PATT
  POIN2 Label_8_019168B6
 BYTE   PATT
  POIN2 Label_8_01916942
 BYTE   PATT
  POIN2 Label_8_019168E5
 BYTE   PATT
  POIN2 Label_8_01916911
 BYTE   PATT
  POIN2 Label_8_019168E5
 BYTE   PATT
  POIN2 Label_8_01916911
 BYTE   PATT
  POIN2 Label_8_019168E5
 BYTE   PATT
  POIN2 Label_8_01916911
 BYTE   PATT
  POIN2 Label_8_019168E5
 BYTE   PATT
  POIN2 Label_8_01916911
 BYTE   PATT
  POIN2 Label_8_019168B6
 BYTE   PATT
  POIN2 Label_8_019168B6
 BYTE   PATT
  POIN2 Label_8_019168E5
 BYTE   PATT
  POIN2 Label_8_01916911
 BYTE   PATT
  POIN2 Label_8_019168E5
 BYTE   PATT
  POIN2 Label_8_01916911
 BYTE   PATT
  POIN2 Label_8_019168E5
 BYTE   PATT
  POIN2 Label_8_01916911
 BYTE   PATT
  POIN2 Label_8_019168B6
 BYTE   PATT
  POIN2 Label_8_019168B6
 BYTE   PATT
  POIN2 Label_8_019168B6
 BYTE   PATT
  POIN2 Label_8_019168B6
 BYTE   PATT
  POIN2 Label_8_019168E5
 BYTE   PATT
  POIN2 Label_8_01916911
 BYTE   PATT
  POIN2 Label_8_019168B6
 BYTE   PATT
  POIN2 Label_8_01916942
 BYTE   PATT
  POIN2 Label_8_019168E5
 BYTE   PATT
  POIN2 Label_8_01916911
 BYTE   PATT
  POIN2 Label_8_019168B6
 BYTE   PATT
  POIN2 Label_8_019168B6
 BYTE   PATT
  POIN2 Label_8_019168E5
 BYTE   PATT
  POIN2 Label_8_01916911
 BYTE   PATT
  POIN2 Label_8_019168B6
 BYTE   PATT
  POIN2 Label_8_01916942
 BYTE   PATT
  POIN2 Label_8_019168E5
 BYTE   PATT
  POIN2 Label_8_01916911
 BYTE   PATT
  POIN2 Label_8_019168E5
 BYTE   PATT
  POIN2 Label_8_01916911
 BYTE   PATT
  POIN2 Label_8_019168B6
 BYTE   PATT
  POIN2 Label_8_019168B6
 BYTE   PATT
  POIN2 Label_8_019168B6
 BYTE   PATT
  POIN2 Label_8_019168B6
 BYTE   PATT
  POIN2 Label_8_019168E5
// 005   ----------------------------------------
 BYTE   W05
 BYTE   N04  Cn1  v100
 BYTE   N04  En1
 BYTE   N16  Fn2  v052
 BYTE   N16  Gn2
 BYTE   N16  An2
 BYTE   N16  Bn2
 BYTE   W12
 BYTE   N04  En1  v100
 BYTE   W07
 BYTE   GoTo
  POIN2 Label_8_01916896
// 006   ----------------------------------------
 BYTE   W01
 BYTE   FINE

//******************************************************//
	ALIGN 4

BanjoTooieKlungoThemeDolkar:
	BYTE	9	// NumTrks
	BYTE	0	// NumBlks
	BYTE	BanjoTooieKlungoThemeDolkar_pri	// Priority
	BYTE	BanjoTooieKlungoThemeDolkar_rev	// Reverb.
    
	POIN2	BanjoTooieKlungoThemeDolkar_grp
    
	POIN2	BanjoTooieKlungoThemeDolkar_001
	POIN2	BanjoTooieKlungoThemeDolkar_002
	POIN2	BanjoTooieKlungoThemeDolkar_003
	POIN2	BanjoTooieKlungoThemeDolkar_004
	POIN2	BanjoTooieKlungoThemeDolkar_005
	POIN2	BanjoTooieKlungoThemeDolkar_006
	POIN2	BanjoTooieKlungoThemeDolkar_007
	POIN2	BanjoTooieKlungoThemeDolkar_008
	POIN2	BanjoTooieKlungoThemeDolkar_009

	
