//Event file generated from Sappy .s format.
	#include "MPlayDef.event"

	#define	BanjoKazooieTreasureTroveCoveSme_grp  voicegroup000
	#define	BanjoKazooieTreasureTroveCoveSme_pri  0
	#define	BanjoKazooieTreasureTroveCoveSme_rev  0
	#define	BanjoKazooieTreasureTroveCoveSme_mvl  90
	#define	BanjoKazooieTreasureTroveCoveSme_key  0
	#define	BanjoKazooieTreasureTroveCoveSme_tbs  1
	#define	BanjoKazooieTreasureTroveCoveSme_exg  0
	#define	BanjoKazooieTreasureTroveCoveSme_cmp  1

	// .rodata
	//	BanjoKazooieTreasureTroveCoveSme
	ALIGN 4

//**************** Track 1 (Midi-Chn.1) ****************//

BanjoKazooieTreasureTroveCoveSme_1:
	BYTE	KEYSH   BanjoKazooieTreasureTroveCoveSme_key+0
// 000   ----------------------------------------
	BYTE	TEMPO   125*BanjoKazooieTreasureTroveCoveSme_tbs/2
	BYTE		VOICE   127
	BYTE		VOL     80*BanjoKazooieTreasureTroveCoveSme_mvl/mxv
	BYTE		PAN     c_v+0
	BYTE	W96
BanjoKazooieTreasureTroveCoveSme_1_B1:
// 001   ----------------------------------------
	BYTE	W96
// 002   ----------------------------------------
	BYTE	W96
// 003   ----------------------------------------
	BYTE	W96
// 004   ----------------------------------------
	BYTE	W96
// 005   ----------------------------------------
	BYTE	W96
// 006   ----------------------------------------
	BYTE	W96
// 007   ----------------------------------------
	BYTE	W96
// 008   ----------------------------------------
	BYTE	W96
// 009   ----------------------------------------
	BYTE	W96
// 010   ----------------------------------------
	BYTE	W96
// 011   ----------------------------------------
	BYTE	W96
// 012   ----------------------------------------
	BYTE	W96
// 013   ----------------------------------------
BanjoKazooieTreasureTroveCoveSme_1_013:
	BYTE		N12     Cn1   v116
	BYTE	W24
	BYTE		N16     Dn1 
	BYTE	W24
	BYTE		N12     Cn1 
	BYTE	W24
	BYTE		N16     Dn1 
	BYTE	W24
	BYTE	PEND
// 014   ----------------------------------------
BanjoKazooieTreasureTroveCoveSme_1_014:
	BYTE		N12     Cn1   v116
	BYTE	W24
	BYTE		N16     Dn1 
	BYTE	W24
	BYTE		N12     Cn1 
	BYTE	W24
	BYTE		N16     Dn1 
	BYTE	W18
	BYTE		N16   
	BYTE	W06
	BYTE	PEND
// 015   ----------------------------------------
	BYTE	PATT
	 POIN2	BanjoKazooieTreasureTroveCoveSme_1_013
// 016   ----------------------------------------
BanjoKazooieTreasureTroveCoveSme_1_016:
	BYTE		N12     Cn1   v116
	BYTE	W24
	BYTE		N16     Dn1 
	BYTE	W24
	BYTE		N12     Cn1 
	BYTE	W24
	BYTE		N16     Dn1 
	BYTE	W12
	BYTE		N12     Cn1 
	BYTE	W12
	BYTE	PEND
// 017   ----------------------------------------
	BYTE	PATT
	 POIN2	BanjoKazooieTreasureTroveCoveSme_1_013
// 018   ----------------------------------------
	BYTE	PATT
	 POIN2	BanjoKazooieTreasureTroveCoveSme_1_014
// 019   ----------------------------------------
	BYTE	PATT
	 POIN2	BanjoKazooieTreasureTroveCoveSme_1_013
// 020   ----------------------------------------
	BYTE	PATT
	 POIN2	BanjoKazooieTreasureTroveCoveSme_1_016
// 021   ----------------------------------------
	BYTE	PATT
	 POIN2	BanjoKazooieTreasureTroveCoveSme_1_013
// 022   ----------------------------------------
	BYTE	PATT
	 POIN2	BanjoKazooieTreasureTroveCoveSme_1_014
// 023   ----------------------------------------
	BYTE	PATT
	 POIN2	BanjoKazooieTreasureTroveCoveSme_1_013
// 024   ----------------------------------------
	BYTE	PATT
	 POIN2	BanjoKazooieTreasureTroveCoveSme_1_016
// 025   ----------------------------------------
	BYTE	PATT
	 POIN2	BanjoKazooieTreasureTroveCoveSme_1_013
// 026   ----------------------------------------
	BYTE	PATT
	 POIN2	BanjoKazooieTreasureTroveCoveSme_1_014
// 027   ----------------------------------------
	BYTE	PATT
	 POIN2	BanjoKazooieTreasureTroveCoveSme_1_013
// 028   ----------------------------------------
	BYTE	PATT
	 POIN2	BanjoKazooieTreasureTroveCoveSme_1_016
// 029   ----------------------------------------
	BYTE	PATT
	 POIN2	BanjoKazooieTreasureTroveCoveSme_1_013
// 030   ----------------------------------------
	BYTE	PATT
	 POIN2	BanjoKazooieTreasureTroveCoveSme_1_014
// 031   ----------------------------------------
	BYTE	PATT
	 POIN2	BanjoKazooieTreasureTroveCoveSme_1_013
// 032   ----------------------------------------
	BYTE	PATT
	 POIN2	BanjoKazooieTreasureTroveCoveSme_1_016
// 033   ----------------------------------------
	BYTE	PATT
	 POIN2	BanjoKazooieTreasureTroveCoveSme_1_013
// 034   ----------------------------------------
	BYTE	PATT
	 POIN2	BanjoKazooieTreasureTroveCoveSme_1_014
// 035   ----------------------------------------
	BYTE	PATT
	 POIN2	BanjoKazooieTreasureTroveCoveSme_1_013
// 036   ----------------------------------------
	BYTE	PATT
	 POIN2	BanjoKazooieTreasureTroveCoveSme_1_016
// 037   ----------------------------------------
	BYTE	PATT
	 POIN2	BanjoKazooieTreasureTroveCoveSme_1_013
// 038   ----------------------------------------
	BYTE	PATT
	 POIN2	BanjoKazooieTreasureTroveCoveSme_1_014
// 039   ----------------------------------------
	BYTE	PATT
	 POIN2	BanjoKazooieTreasureTroveCoveSme_1_013
// 040   ----------------------------------------
	BYTE	PATT
	 POIN2	BanjoKazooieTreasureTroveCoveSme_1_016
// 041   ----------------------------------------
	BYTE	W96
// 042   ----------------------------------------
	BYTE	W96
// 043   ----------------------------------------
	BYTE	W96
// 044   ----------------------------------------
	BYTE	W96
// 045   ----------------------------------------
BanjoKazooieTreasureTroveCoveSme_1_045:
	BYTE	W24
	BYTE		N12     Cn1   v060
	BYTE	W48
	BYTE		N12   
	BYTE	W24
	BYTE	PEND
// 046   ----------------------------------------
	BYTE	PATT
	 POIN2	BanjoKazooieTreasureTroveCoveSme_1_045
// 047   ----------------------------------------
	BYTE	PATT
	 POIN2	BanjoKazooieTreasureTroveCoveSme_1_045
// 048   ----------------------------------------
	BYTE	PATT
	 POIN2	BanjoKazooieTreasureTroveCoveSme_1_045
// 049   ----------------------------------------
	BYTE	PATT
	 POIN2	BanjoKazooieTreasureTroveCoveSme_1_013
// 050   ----------------------------------------
	BYTE	PATT
	 POIN2	BanjoKazooieTreasureTroveCoveSme_1_014
// 051   ----------------------------------------
	BYTE	PATT
	 POIN2	BanjoKazooieTreasureTroveCoveSme_1_013
// 052   ----------------------------------------
	BYTE	PATT
	 POIN2	BanjoKazooieTreasureTroveCoveSme_1_016
// 053   ----------------------------------------
	BYTE	PATT
	 POIN2	BanjoKazooieTreasureTroveCoveSme_1_013
// 054   ----------------------------------------
	BYTE	PATT
	 POIN2	BanjoKazooieTreasureTroveCoveSme_1_014
// 055   ----------------------------------------
	BYTE	PATT
	 POIN2	BanjoKazooieTreasureTroveCoveSme_1_013
// 056   ----------------------------------------
	BYTE	PATT
	 POIN2	BanjoKazooieTreasureTroveCoveSme_1_016
// 057   ----------------------------------------
	BYTE	PATT
	 POIN2	BanjoKazooieTreasureTroveCoveSme_1_013
// 058   ----------------------------------------
	BYTE	PATT
	 POIN2	BanjoKazooieTreasureTroveCoveSme_1_014
// 059   ----------------------------------------
	BYTE	PATT
	 POIN2	BanjoKazooieTreasureTroveCoveSme_1_013
// 060   ----------------------------------------
	BYTE	PATT
	 POIN2	BanjoKazooieTreasureTroveCoveSme_1_016
// 061   ----------------------------------------
	BYTE	W96
	BYTE	GoTo
	 POIN2	BanjoKazooieTreasureTroveCoveSme_1_B1
BanjoKazooieTreasureTroveCoveSme_1_B2:
// 062   ----------------------------------------
	BYTE	W12
	BYTE	FINE

//**************** Track 2 (Midi-Chn.2) ****************//

BanjoKazooieTreasureTroveCoveSme_2:
	BYTE	KEYSH   BanjoKazooieTreasureTroveCoveSme_key+0
// 000   ----------------------------------------
	BYTE		VOICE   15
	BYTE		VOL     64*BanjoKazooieTreasureTroveCoveSme_mvl/mxv
	BYTE		PAN     c_v+0
	BYTE	W96
BanjoKazooieTreasureTroveCoveSme_2_B1:
// 001   ----------------------------------------
	BYTE		N12     Cn4   v127
	BYTE	W12
	BYTE		N06     En4 
	BYTE	W06
	BYTE		N12     Gn4 
	BYTE	W12
	BYTE		N06     En4 
	BYTE	W06
	BYTE		N12     Gn4 
	BYTE	W12
	BYTE		        An4 
	BYTE	W12
	BYTE		N06     Gn4 
	BYTE	W06
	BYTE		        En4 
	BYTE	W06
	BYTE		N12     Gn4 
	BYTE	W12
	BYTE		        An4 
	BYTE	W12
// 002   ----------------------------------------
BanjoKazooieTreasureTroveCoveSme_2_002:
	BYTE		N12     Gs4   v127
	BYTE	W12
	BYTE		N06     As4 
	BYTE	W06
	BYTE		N12     Cn5 
	BYTE	W12
	BYTE		N06     As4 
	BYTE	W06
	BYTE		N12     Gs4 
	BYTE	W12
	BYTE		        Gn4 
	BYTE	W12
	BYTE		N24     En4 
	BYTE	W24
	BYTE		N12   
	BYTE	W12
	BYTE	PEND
// 003   ----------------------------------------
BanjoKazooieTreasureTroveCoveSme_2_003:
	BYTE		N12     Cn4   v127
	BYTE	W12
	BYTE		N06     En4 
	BYTE	W06
	BYTE		N12     Gn4 
	BYTE	W12
	BYTE		N06     En4 
	BYTE	W06
	BYTE		N12     Gn4 
	BYTE	W12
	BYTE		        An4 
	BYTE	W12
	BYTE		N06     Gn4 
	BYTE	W06
	BYTE		        En4 
	BYTE	W06
	BYTE		N12     Gn4 
	BYTE	W12
	BYTE		        An4 
	BYTE	W12
	BYTE	PEND
// 004   ----------------------------------------
	BYTE		        Gs4 
	BYTE	W12
	BYTE		N06     As4 
	BYTE	W06
	BYTE		N12     Cn5 
	BYTE	W12
	BYTE		N06     As4 
	BYTE	W06
	BYTE		N10     Gs4 
	BYTE	W10
	BYTE		N02     Dn5   v116
	BYTE	W02
	BYTE		N12     En5 
	BYTE	W12
	BYTE		N15     Cn5   v127
	BYTE	W36
// 005   ----------------------------------------
	BYTE	PATT
	 POIN2	BanjoKazooieTreasureTroveCoveSme_2_003
// 006   ----------------------------------------
	BYTE	PATT
	 POIN2	BanjoKazooieTreasureTroveCoveSme_2_002
// 007   ----------------------------------------
	BYTE	PATT
	 POIN2	BanjoKazooieTreasureTroveCoveSme_2_003
// 008   ----------------------------------------
	BYTE		N12     Gs4   v127
	BYTE	W12
	BYTE		N06     As4 
	BYTE	W06
	BYTE		N12     Bn4 
	BYTE	W12
	BYTE		N06     An4 
	BYTE	W06
	BYTE		N12     Gn4 
	BYTE	W12
	BYTE		N15     Cn5 
	BYTE	W48
// 009   ----------------------------------------
	BYTE	W96
// 010   ----------------------------------------
	BYTE	W96
// 011   ----------------------------------------
	BYTE	W96
// 012   ----------------------------------------
	BYTE	W96
// 013   ----------------------------------------
BanjoKazooieTreasureTroveCoveSme_2_013:
	BYTE		N12     Gn3   v120
	BYTE		N12     Cn4 
	BYTE	W12
	BYTE		N06   
	BYTE		N06     En4 
	BYTE	W06
	BYTE		N12   
	BYTE		N12     Gn4 
	BYTE	W12
	BYTE		N06     Cn4 
	BYTE		N06     En4 
	BYTE	W06
	BYTE		N12   
	BYTE		N12     Gn4 
	BYTE	W12
	BYTE		        En4 
	BYTE		N12     An4 
	BYTE	W12
	BYTE		N06     En4 
	BYTE		N06     Gn4 
	BYTE	W06
	BYTE		        Cn4 
	BYTE		N06     En4 
	BYTE	W06
	BYTE		N12   
	BYTE		N12     Gn4 
	BYTE	W12
	BYTE		        En4 
	BYTE		N12     An4 
	BYTE	W12
	BYTE	PEND
// 014   ----------------------------------------
BanjoKazooieTreasureTroveCoveSme_2_014:
	BYTE		N12     Ds4   v120
	BYTE		N12     Gs4 
	BYTE	W12
	BYTE		N06     Fn4 
	BYTE		N06     As4 
	BYTE	W06
	BYTE		N12     Gs4 
	BYTE		N12     Cn5 
	BYTE	W12
	BYTE		N06     Fn4 
	BYTE		N06     As4 
	BYTE	W06
	BYTE		N12     Ds4 
	BYTE		N12     Gs4 
	BYTE	W12
	BYTE		        En4 
	BYTE		N12     Gn4 
	BYTE	W12
	BYTE		N24     Cn4 
	BYTE		N24     En4 
	BYTE	W24
	BYTE		N12     Cn4 
	BYTE		N12     En4 
	BYTE	W12
	BYTE	PEND
// 015   ----------------------------------------
	BYTE	PATT
	 POIN2	BanjoKazooieTreasureTroveCoveSme_2_013
// 016   ----------------------------------------
	BYTE		N12     Ds4   v120
	BYTE		N12     Gs4 
	BYTE	W12
	BYTE		N06     Fn4 
	BYTE		N06     As4 
	BYTE	W06
	BYTE		N12     Gs4 
	BYTE		N12     Cn5 
	BYTE	W12
	BYTE		N06     Fn4 
	BYTE		N06     As4 
	BYTE	W06
	BYTE		N10     Ds4 
	BYTE		N10     Gs4 
	BYTE	W10
	BYTE		N02     Bn4   v096
	BYTE		N02     Dn5 
	BYTE	W02
	BYTE		N12     Cn5 
	BYTE		N12     En5 
	BYTE	W12
	BYTE		N15     Gn4   v120
	BYTE		N15     Cn5 
	BYTE	W36
// 017   ----------------------------------------
	BYTE	PATT
	 POIN2	BanjoKazooieTreasureTroveCoveSme_2_013
// 018   ----------------------------------------
	BYTE	PATT
	 POIN2	BanjoKazooieTreasureTroveCoveSme_2_014
// 019   ----------------------------------------
	BYTE	PATT
	 POIN2	BanjoKazooieTreasureTroveCoveSme_2_013
// 020   ----------------------------------------
	BYTE		N12     Fn4   v120
	BYTE		N12     Gs4 
	BYTE	W12
	BYTE		N06     Fs4 
	BYTE		N06     As4 
	BYTE	W06
	BYTE		N12     Gn4 
	BYTE		N12     Bn4 
	BYTE	W12
	BYTE		N06     Gn4 
	BYTE		N06     An4 
	BYTE	W06
	BYTE		N12     Fn4 
	BYTE		N12     Gn4 
	BYTE	W12
	BYTE		N15     En4 
	BYTE		N15     Cn5 
	BYTE	W48
// 021   ----------------------------------------
	BYTE	W96
// 022   ----------------------------------------
	BYTE	W96
// 023   ----------------------------------------
	BYTE	W96
// 024   ----------------------------------------
	BYTE	W96
// 025   ----------------------------------------
	BYTE	W96
// 026   ----------------------------------------
	BYTE	W96
// 027   ----------------------------------------
	BYTE	W96
// 028   ----------------------------------------
	BYTE	W96
// 029   ----------------------------------------
	BYTE	W96
// 030   ----------------------------------------
	BYTE	W96
// 031   ----------------------------------------
	BYTE	W96
// 032   ----------------------------------------
	BYTE	W96
// 033   ----------------------------------------
	BYTE	W96
// 034   ----------------------------------------
	BYTE	W96
// 035   ----------------------------------------
	BYTE	W96
// 036   ----------------------------------------
	BYTE	W96
// 037   ----------------------------------------
	BYTE		N05     Fs4   v127
	BYTE	W12
	BYTE		N04     Gs4 
	BYTE	W06
	BYTE		N05     As4 
	BYTE	W12
	BYTE		N04     Gs4 
	BYTE	W06
	BYTE		N06     Fs4 
	BYTE	W12
	BYTE		        Bn4 
	BYTE	W12
	BYTE		N04     Cs5 
	BYTE	W06
	BYTE		N05     Ds5 
	BYTE	W12
	BYTE		N04     Cs5 
	BYTE	W06
	BYTE		N06     Bn4 
	BYTE	W12
// 038   ----------------------------------------
	BYTE		        Fn4 
	BYTE	W12
	BYTE		N04     Gn4 
	BYTE	W06
	BYTE		N05     An4 
	BYTE	W12
	BYTE		N04     Gn4 
	BYTE	W06
	BYTE		N06     Fn4 
	BYTE	W12
	BYTE		N05     As4 
	BYTE	W12
	BYTE		N04     Cn5 
	BYTE	W06
	BYTE		N06     Dn5 
	BYTE	W12
	BYTE		N04     Cn5 
	BYTE	W06
	BYTE		N06     As4 
	BYTE	W12
// 039   ----------------------------------------
	BYTE		N05     Ds4 
	BYTE	W12
	BYTE		N04     Fn4 
	BYTE	W06
	BYTE		N06     Gn4 
	BYTE	W12
	BYTE		N04     Fn4 
	BYTE	W06
	BYTE		N05     Ds4 
	BYTE	W12
	BYTE		N06     Gs4 
	BYTE	W12
	BYTE		N04     As4 
	BYTE	W06
	BYTE		N06     Cn5 
	BYTE	W12
	BYTE		N04     As4 
	BYTE	W06
	BYTE		N06     Gs4 
	BYTE	W12
// 040   ----------------------------------------
	BYTE		        Gn4 
	BYTE	W12
	BYTE		N05     Fs4 
	BYTE	W06
	BYTE		        Gn4 
	BYTE	W12
	BYTE		N04     An4 
	BYTE	W06
	BYTE		N05     Bn4 
	BYTE	W12
	BYTE		N05   
	BYTE	W12
	BYTE		N04     As4 
	BYTE	W06
	BYTE		N05     Bn4 
	BYTE	W12
	BYTE		N04     Cn5 
	BYTE	W06
	BYTE		N07     Dn5 
	BYTE	W12
// 041   ----------------------------------------
	BYTE		N12     Cn5 
	BYTE	W96
// 042   ----------------------------------------
	BYTE	W96
// 043   ----------------------------------------
	BYTE	W96
// 044   ----------------------------------------
	BYTE	W96
// 045   ----------------------------------------
	BYTE	W96
// 046   ----------------------------------------
	BYTE	W96
// 047   ----------------------------------------
	BYTE	W96
// 048   ----------------------------------------
	BYTE	W96
// 049   ----------------------------------------
	BYTE	W96
// 050   ----------------------------------------
	BYTE	W96
// 051   ----------------------------------------
	BYTE	W96
// 052   ----------------------------------------
	BYTE	W96
// 053   ----------------------------------------
	BYTE	W96
// 054   ----------------------------------------
	BYTE	W96
// 055   ----------------------------------------
	BYTE	W96
// 056   ----------------------------------------
	BYTE	W96
// 057   ----------------------------------------
	BYTE	W96
// 058   ----------------------------------------
	BYTE	W96
// 059   ----------------------------------------
	BYTE	W96
// 060   ----------------------------------------
	BYTE	W96
// 061   ----------------------------------------
	BYTE	W96
	BYTE	GoTo
	 POIN2	BanjoKazooieTreasureTroveCoveSme_2_B1
BanjoKazooieTreasureTroveCoveSme_2_B2:
// 062   ----------------------------------------
	BYTE	W12
	BYTE	FINE

//**************** Track 3 (Midi-Chn.3) ****************//

BanjoKazooieTreasureTroveCoveSme_3:
	BYTE	KEYSH   BanjoKazooieTreasureTroveCoveSme_key+0
// 000   ----------------------------------------
	BYTE		VOICE   13
	BYTE		VOL     100*BanjoKazooieTreasureTroveCoveSme_mvl/mxv
	BYTE		PAN     c_v-19
	BYTE		N18     Cn3   v072
	BYTE	W12
	BYTE		N24     En3 
	BYTE		N24     Gn3 
	BYTE	W06
	BYTE		N12     Gn2 
	BYTE	W12
	BYTE		N18   
	BYTE	W06
	BYTE		N24     En3 
	BYTE		N24     Gn3 
	BYTE	W12
	BYTE		N18     Cn3 
	BYTE	W12
	BYTE		N24     En3 
	BYTE		N24     Gn3 
	BYTE	W06
	BYTE		N12     Gn2 
	BYTE	W12
	BYTE		N18   
	BYTE	W06
	BYTE		N24     En3 
	BYTE		N24     Gn3 
	BYTE	W12
BanjoKazooieTreasureTroveCoveSme_3_B1:
// 001   ----------------------------------------
	BYTE		N18     Cn3   v072
	BYTE	W12
	BYTE		N24     En3 
	BYTE		N24     Gn3 
	BYTE	W06
	BYTE		N12     Gn2 
	BYTE	W12
	BYTE		N18   
	BYTE	W06
	BYTE		N24     En3 
	BYTE		N24     Gn3 
	BYTE	W12
	BYTE		N18     Cn3 
	BYTE	W12
	BYTE		N24     En3 
	BYTE		N24     Gn3 
	BYTE	W06
	BYTE		N12     Gn2 
	BYTE	W12
	BYTE		N18   
	BYTE	W06
	BYTE		N24     En3 
	BYTE		N24     Gn3 
	BYTE	W12
// 002   ----------------------------------------
BanjoKazooieTreasureTroveCoveSme_3_002:
	BYTE		N18     Gs2   v072
	BYTE	W12
	BYTE		N24     Ds3 
	BYTE		N24     Fs3 
	BYTE	W06
	BYTE		N12     Ds2 
	BYTE	W12
	BYTE		N18   
	BYTE	W06
	BYTE		N24     Ds3 
	BYTE		N24     Fs3 
	BYTE	W12
	BYTE		        Cn3 
	BYTE	W12
	BYTE		        En3 
	BYTE		N24     Gn3 
	BYTE	W12
	BYTE		        Gn2 
	BYTE	W12
	BYTE		        En3 
	BYTE		N24     Gn3 
	BYTE	W12
	BYTE	PEND
// 003   ----------------------------------------
BanjoKazooieTreasureTroveCoveSme_3_003:
	BYTE		N18     Cn3   v072
	BYTE	W12
	BYTE		N24     En3 
	BYTE		N24     Gn3 
	BYTE	W06
	BYTE		N12     Gn2 
	BYTE	W12
	BYTE		N18   
	BYTE	W06
	BYTE		N24     En3 
	BYTE		N24     Gn3 
	BYTE	W12
	BYTE		N18     Cn3 
	BYTE	W12
	BYTE		N24     En3 
	BYTE		N24     Gn3 
	BYTE	W06
	BYTE		N12     Gn2 
	BYTE	W12
	BYTE		N18   
	BYTE	W06
	BYTE		N24     En3 
	BYTE		N24     Gn3 
	BYTE	W12
	BYTE	PEND
// 004   ----------------------------------------
	BYTE	PATT
	 POIN2	BanjoKazooieTreasureTroveCoveSme_3_002
// 005   ----------------------------------------
	BYTE	PATT
	 POIN2	BanjoKazooieTreasureTroveCoveSme_3_003
// 006   ----------------------------------------
	BYTE	PATT
	 POIN2	BanjoKazooieTreasureTroveCoveSme_3_002
// 007   ----------------------------------------
	BYTE	PATT
	 POIN2	BanjoKazooieTreasureTroveCoveSme_3_003
// 008   ----------------------------------------
BanjoKazooieTreasureTroveCoveSme_3_008:
	BYTE		N18     Cs3   v072
	BYTE	W12
	BYTE		N24     Fn3 
	BYTE		N24     Gs3 
	BYTE	W06
	BYTE		N12     Gn2 
	BYTE	W12
	BYTE		N18   
	BYTE	W06
	BYTE		N24     Fn3 
	BYTE		N24     Gn3 
	BYTE	W12
	BYTE		N18     Cn3 
	BYTE	W12
	BYTE		N24     En3 
	BYTE		N24     Gn3 
	BYTE	W12
	BYTE		        Gn2 
	BYTE	W12
	BYTE		        En3 
	BYTE		N24     Gn3 
	BYTE	W12
	BYTE	PEND
// 009   ----------------------------------------
BanjoKazooieTreasureTroveCoveSme_3_009:
	BYTE		N18     Fs2   v072
	BYTE	W12
	BYTE		N24     Fs3 
	BYTE		N24     As3 
	BYTE	W06
	BYTE		N12     Cs3 
	BYTE	W12
	BYTE		N18   
	BYTE	W06
	BYTE		N24     Fs3 
	BYTE		N24     As3 
	BYTE	W12
	BYTE		N18     Bn2 
	BYTE	W12
	BYTE		N24     Ds3 
	BYTE		N24     Fs3 
	BYTE	W06
	BYTE		N12     Fs2 
	BYTE	W12
	BYTE		N18   
	BYTE	W06
	BYTE		N24     Ds3 
	BYTE		N24     Fs3 
	BYTE	W12
	BYTE	PEND
// 010   ----------------------------------------
BanjoKazooieTreasureTroveCoveSme_3_010:
	BYTE		N18     Fn2   v072
	BYTE	W12
	BYTE		N24     Fn3 
	BYTE		N24     An3 
	BYTE	W06
	BYTE		N12     Cn3 
	BYTE	W12
	BYTE		N18   
	BYTE	W06
	BYTE		N24     Fn3 
	BYTE		N24     An3 
	BYTE	W12
	BYTE		N12     As2 
	BYTE	W12
	BYTE		N24     Dn3 
	BYTE		N24     Fn3 
	BYTE	W06
	BYTE		N12     Fn2 
	BYTE	W12
	BYTE		N18   
	BYTE	W06
	BYTE		N24     Dn3 
	BYTE		N24     Fn3 
	BYTE	W12
	BYTE	PEND
// 011   ----------------------------------------
BanjoKazooieTreasureTroveCoveSme_3_011:
	BYTE		N18     Ds2   v072
	BYTE	W12
	BYTE		N24     Ds3 
	BYTE		N24     Gn3 
	BYTE	W06
	BYTE		N12     As2 
	BYTE	W12
	BYTE		N18   
	BYTE	W06
	BYTE		N24     Ds3 
	BYTE		N24     Gn3 
	BYTE	W12
	BYTE		N18     Gs2 
	BYTE	W12
	BYTE		N24     Cn3 
	BYTE		N24     Ds3 
	BYTE	W06
	BYTE		N12     Ds2 
	BYTE	W12
	BYTE		N18   
	BYTE	W06
	BYTE		N24     Cn3 
	BYTE		N24     Ds3 
	BYTE	W12
	BYTE	PEND
// 012   ----------------------------------------
BanjoKazooieTreasureTroveCoveSme_3_012:
	BYTE		N18     Gn2   v072
	BYTE	W12
	BYTE		N24     Bn2 
	BYTE		N24     Dn3 
	BYTE	W06
	BYTE		N12     Dn2 
	BYTE	W12
	BYTE		N18   
	BYTE	W06
	BYTE		N24     Bn2 
	BYTE		N24     Dn3 
	BYTE	W12
	BYTE		N18     Gn2 
	BYTE	W12
	BYTE		N24     Bn2 
	BYTE		N24     Dn3 
	BYTE	W06
	BYTE		N12     Dn2 
	BYTE	W12
	BYTE		N18   
	BYTE	W06
	BYTE		N24     Bn2 
	BYTE		N24     Dn3 
	BYTE	W12
	BYTE	PEND
// 013   ----------------------------------------
	BYTE	PATT
	 POIN2	BanjoKazooieTreasureTroveCoveSme_3_003
// 014   ----------------------------------------
	BYTE	PATT
	 POIN2	BanjoKazooieTreasureTroveCoveSme_3_002
// 015   ----------------------------------------
	BYTE	PATT
	 POIN2	BanjoKazooieTreasureTroveCoveSme_3_003
// 016   ----------------------------------------
	BYTE	PATT
	 POIN2	BanjoKazooieTreasureTroveCoveSme_3_002
// 017   ----------------------------------------
	BYTE	PATT
	 POIN2	BanjoKazooieTreasureTroveCoveSme_3_003
// 018   ----------------------------------------
	BYTE	PATT
	 POIN2	BanjoKazooieTreasureTroveCoveSme_3_002
// 019   ----------------------------------------
	BYTE	PATT
	 POIN2	BanjoKazooieTreasureTroveCoveSme_3_003
// 020   ----------------------------------------
	BYTE	PATT
	 POIN2	BanjoKazooieTreasureTroveCoveSme_3_008
// 021   ----------------------------------------
BanjoKazooieTreasureTroveCoveSme_3_021:
	BYTE		N18     Fs3   v127
	BYTE	W18
	BYTE		N06     Gs3 
	BYTE	W06
	BYTE		N12     As3 
	BYTE	W12
	BYTE		        Gs3 
	BYTE	W12
	BYTE		N06     Fs3 
	BYTE	W06
	BYTE		        Fn3 
	BYTE	W06
	BYTE		        Fs3 
	BYTE	W06
	BYTE		        Fn3 
	BYTE	W06
	BYTE		N12     Fs3 
	BYTE	W12
	BYTE		        Cs3 
	BYTE	W12
	BYTE	PEND
// 022   ----------------------------------------
	BYTE		N18     Dn3 
	BYTE	W18
	BYTE		N06     En3 
	BYTE	W06
	BYTE		N12     Fs3 
	BYTE	W12
	BYTE		N06     En3 
	BYTE	W06
	BYTE		        Dn3 
	BYTE	W06
	BYTE		N42     Cs3 
	BYTE	W48
// 023   ----------------------------------------
	BYTE		N18     Bn2 
	BYTE	W18
	BYTE		N06     Cs3 
	BYTE	W06
	BYTE		N12     Ds3 
	BYTE	W12
	BYTE		N06     Cs3 
	BYTE	W06
	BYTE		        Bn2 
	BYTE	W06
	BYTE		N12     Cs3 
	BYTE	W12
	BYTE		        Fs3 
	BYTE	W12
	BYTE		N24     Fs2 
	BYTE	W24
// 024   ----------------------------------------
	BYTE		N18     Gs2 
	BYTE	W18
	BYTE		N06   
	BYTE	W06
	BYTE		N12   
	BYTE	W12
	BYTE		N06     Gn2 
	BYTE	W06
	BYTE		        Gs2 
	BYTE	W06
	BYTE		N36     Cs3 
	BYTE	W48
// 025   ----------------------------------------
	BYTE	PATT
	 POIN2	BanjoKazooieTreasureTroveCoveSme_3_021
// 026   ----------------------------------------
	BYTE		N18     Cn3   v127
	BYTE	W18
	BYTE		N06     Dn3 
	BYTE	W06
	BYTE		N12     En3 
	BYTE	W12
	BYTE		        Gn3 
	BYTE	W12
	BYTE		N06     Cn4 
	BYTE	W06
	BYTE		        Bn3 
	BYTE	W06
	BYTE		        Cn4 
	BYTE	W06
	BYTE		        Dn4 
	BYTE	W06
	BYTE		N24     Cn4 
	BYTE	W24
// 027   ----------------------------------------
	BYTE		N18     Cs4 
	BYTE	W18
	BYTE		N06     Ds4 
	BYTE	W06
	BYTE		N12     Cs4 
	BYTE	W12
	BYTE		        Gs3 
	BYTE	W12
	BYTE		        Gn3 
	BYTE	W12
	BYTE		        An3 
	BYTE	W12
	BYTE		        Bn3 
	BYTE	W12
	BYTE		        Dn4 
	BYTE	W12
// 028   ----------------------------------------
	BYTE		        Cn4 
	BYTE	W12
	BYTE		N04     Gn3 
	BYTE	W04
	BYTE		        Fs3 
	BYTE	W04
	BYTE		        Gn3 
	BYTE	W04
	BYTE		N12     Gs3 
	BYTE	W12
	BYTE		        Gn3 
	BYTE	W12
	BYTE		N42     Cn3 
	BYTE	W48
// 029   ----------------------------------------
	BYTE		N04     As2   v040
	BYTE		N12     Fs3   v120
	BYTE	W04
	BYTE		N04     Cs3   v040
	BYTE	W04
	BYTE		        As2 
	BYTE	W04
	BYTE		        Cs3 
	BYTE	W04
	BYTE		        As2 
	BYTE	W04
	BYTE		        Cs3 
	BYTE	W04
	BYTE		        As2 
	BYTE	W04
	BYTE		        Cs3 
	BYTE	W04
	BYTE		        As2 
	BYTE	W04
	BYTE		        Cs3 
	BYTE	W04
	BYTE		        As2 
	BYTE	W04
	BYTE		        Cs3 
	BYTE	W04
	BYTE		        As2 
	BYTE	W04
	BYTE		        Cs3 
	BYTE	W04
	BYTE		        As2 
	BYTE	W04
	BYTE		        Cs3 
	BYTE	W04
	BYTE		        As2 
	BYTE	W04
	BYTE		        Cs3 
	BYTE	W04
	BYTE		        As2 
	BYTE	W04
	BYTE		        Cs3 
	BYTE	W04
	BYTE		        As2 
	BYTE	W04
	BYTE		        Cs3 
	BYTE	W04
	BYTE		        As2 
	BYTE	W04
	BYTE		        Cs3 
	BYTE	W04
// 030   ----------------------------------------
	BYTE		        An2 
	BYTE	W04
	BYTE		        Cn3 
	BYTE	W04
	BYTE		        An2 
	BYTE	W04
	BYTE		        Cn3 
	BYTE	W04
	BYTE		        An2 
	BYTE	W04
	BYTE		        Cn3 
	BYTE	W04
	BYTE		        An2 
	BYTE	W04
	BYTE		        Cn3 
	BYTE	W04
	BYTE		        An2 
	BYTE	W04
	BYTE		        Cn3 
	BYTE	W04
	BYTE		        An2 
	BYTE	W04
	BYTE		        Cn3 
	BYTE	W04
	BYTE		        As2 
	BYTE	W04
	BYTE		        Cs3 
	BYTE	W04
	BYTE		        As2 
	BYTE	W04
	BYTE		        Cs3 
	BYTE	W04
	BYTE		        As2 
	BYTE	W04
	BYTE		        Cs3 
	BYTE	W04
	BYTE		        As2 
	BYTE	W04
	BYTE		        Cs3 
	BYTE	W04
	BYTE		        As2 
	BYTE	W04
	BYTE		        Cs3 
	BYTE	W04
	BYTE		        As2 
	BYTE	W04
	BYTE		        Cs3 
	BYTE	W04
// 031   ----------------------------------------
	BYTE		        Bn2 
	BYTE	W04
	BYTE		        Ds3 
	BYTE	W04
	BYTE		        Bn2 
	BYTE	W04
	BYTE		        Ds3 
	BYTE	W04
	BYTE		        Bn2 
	BYTE	W04
	BYTE		        Ds3 
	BYTE	W04
	BYTE		        Bn2 
	BYTE	W04
	BYTE		        Ds3 
	BYTE	W04
	BYTE		        Bn2 
	BYTE	W04
	BYTE		        Ds3 
	BYTE	W04
	BYTE		        Bn2 
	BYTE	W04
	BYTE		        Ds3 
	BYTE	W04
	BYTE		        As2 
	BYTE	W04
	BYTE		        Cs3 
	BYTE	W04
	BYTE		        As2 
	BYTE	W04
	BYTE		        Cs3 
	BYTE	W04
	BYTE		        As2 
	BYTE	W04
	BYTE		        Cs3 
	BYTE	W04
	BYTE		        As2 
	BYTE	W04
	BYTE		        Cs3 
	BYTE	W04
	BYTE		        As2 
	BYTE	W04
	BYTE		        Cs3 
	BYTE	W04
	BYTE		        As2 
	BYTE	W04
	BYTE		        Cs3 
	BYTE	W04
// 032   ----------------------------------------
	BYTE		        Gs2 
	BYTE	W04
	BYTE		        Cn3 
	BYTE	W04
	BYTE		        Gs2 
	BYTE	W04
	BYTE		        Cn3 
	BYTE	W04
	BYTE		        Gs2 
	BYTE	W04
	BYTE		        Cn3 
	BYTE	W04
	BYTE		        Gs2 
	BYTE	W04
	BYTE		        Cn3 
	BYTE	W04
	BYTE		        Gs2 
	BYTE	W04
	BYTE		        Cn3 
	BYTE	W04
	BYTE		        Gs2 
	BYTE	W04
	BYTE		        Cn3 
	BYTE	W04
	BYTE		        Gs2 
	BYTE	W04
	BYTE		        Bn2 
	BYTE	W04
	BYTE		        Gs2 
	BYTE	W04
	BYTE		        Bn2 
	BYTE	W04
	BYTE		        Gs2 
	BYTE	W04
	BYTE		        Bn2 
	BYTE	W04
	BYTE		        Gs2 
	BYTE	W04
	BYTE		        Bn2 
	BYTE	W04
	BYTE		        Gs2 
	BYTE	W04
	BYTE		        Bn2 
	BYTE	W04
	BYTE		        Gs2 
	BYTE	W04
	BYTE		        Bn2 
	BYTE	W04
// 033   ----------------------------------------
	BYTE		        As2 
	BYTE	W04
	BYTE		        Cs3 
	BYTE	W04
	BYTE		        As2 
	BYTE	W04
	BYTE		        Cs3 
	BYTE	W04
	BYTE		        As2 
	BYTE	W04
	BYTE		        Cs3 
	BYTE	W04
	BYTE		        As2 
	BYTE	W04
	BYTE		        Cs3 
	BYTE	W04
	BYTE		        As2 
	BYTE	W04
	BYTE		        Cs3 
	BYTE	W04
	BYTE		        As2 
	BYTE	W04
	BYTE		        Cs3 
	BYTE	W04
	BYTE		        As2 
	BYTE	W04
	BYTE		        Cs3 
	BYTE	W04
	BYTE		        As2 
	BYTE	W04
	BYTE		        Cs3 
	BYTE	W04
	BYTE		        As2 
	BYTE	W04
	BYTE		        Cs3 
	BYTE	W04
	BYTE		        As2 
	BYTE	W04
	BYTE		        Cs3 
	BYTE	W04
	BYTE		        As2 
	BYTE	W04
	BYTE		        Cs3 
	BYTE	W04
	BYTE		        As2 
	BYTE	W04
	BYTE		        Cs3 
	BYTE	W04
// 034   ----------------------------------------
	BYTE		        As2 
	BYTE	W04
	BYTE		        Dn3 
	BYTE	W04
	BYTE		        As2 
	BYTE	W04
	BYTE		        Dn3 
	BYTE	W04
	BYTE		        As2 
	BYTE	W04
	BYTE		        Dn3 
	BYTE	W04
	BYTE		        As2 
	BYTE	W04
	BYTE		        Dn3 
	BYTE	W04
	BYTE		        As2 
	BYTE	W04
	BYTE		        Dn3 
	BYTE	W04
	BYTE		        As2 
	BYTE	W04
	BYTE		        Dn3 
	BYTE	W04
	BYTE		        As2 
	BYTE	W04
	BYTE		        Ds3 
	BYTE	W04
	BYTE		        As2 
	BYTE	W04
	BYTE		        Ds3 
	BYTE	W04
	BYTE		        As2 
	BYTE	W04
	BYTE		        Ds3 
	BYTE	W04
	BYTE		        As2 
	BYTE	W04
	BYTE		        Ds3 
	BYTE	W04
	BYTE		        As2 
	BYTE	W04
	BYTE		        Ds3 
	BYTE	W04
	BYTE		        As2 
	BYTE	W04
	BYTE		        Ds3 
	BYTE	W04
// 035   ----------------------------------------
	BYTE		        Cn3 
	BYTE	W04
	BYTE		        Ds3 
	BYTE	W04
	BYTE		        Cn3 
	BYTE	W04
	BYTE		        Ds3 
	BYTE	W04
	BYTE		        Cn3 
	BYTE	W04
	BYTE		        Ds3 
	BYTE	W04
	BYTE		        Cn3 
	BYTE	W04
	BYTE		        Ds3 
	BYTE	W04
	BYTE		        Cn3 
	BYTE	W04
	BYTE		        Ds3 
	BYTE	W04
	BYTE		        Cn3 
	BYTE	W04
	BYTE		        Ds3 
	BYTE	W04
	BYTE		        Cn3 
	BYTE	W04
	BYTE		        Ds3 
	BYTE	W04
	BYTE		        Cn3 
	BYTE	W04
	BYTE		        Ds3 
	BYTE	W04
	BYTE		        Cn3 
	BYTE	W04
	BYTE		        Ds3 
	BYTE	W04
	BYTE		        Cn3 
	BYTE	W04
	BYTE		        Ds3 
	BYTE	W04
	BYTE		        Cn3 
	BYTE	W04
	BYTE		        Ds3 
	BYTE	W04
	BYTE		        Cn3 
	BYTE	W04
	BYTE		        Ds3 
	BYTE	W04
// 036   ----------------------------------------
	BYTE		        Bn2 
	BYTE	W04
	BYTE		        Cs3 
	BYTE	W04
	BYTE		        Bn2 
	BYTE	W04
	BYTE		        Cs3 
	BYTE	W04
	BYTE		        Bn2 
	BYTE	W04
	BYTE		        Cs3 
	BYTE	W04
	BYTE		        Bn2 
	BYTE	W04
	BYTE		        Cs3 
	BYTE	W04
	BYTE		        Bn2 
	BYTE	W04
	BYTE		        Cs3 
	BYTE	W04
	BYTE		        Bn2 
	BYTE	W04
	BYTE		        Cs3 
	BYTE	W04
	BYTE		        Bn2 
	BYTE	W04
	BYTE		        Cs3 
	BYTE	W04
	BYTE		        Bn2 
	BYTE	W04
	BYTE		        Cs3 
	BYTE	W04
	BYTE		        Bn2 
	BYTE	W04
	BYTE		        Cs3 
	BYTE	W04
	BYTE		        Bn2 
	BYTE	W04
	BYTE		        Cs3 
	BYTE	W04
	BYTE		        Bn2 
	BYTE	W04
	BYTE		        Cs3 
	BYTE	W04
	BYTE		        Bn2 
	BYTE	W04
	BYTE		        Cs3 
	BYTE	W04
// 037   ----------------------------------------
	BYTE		        As2 
	BYTE		N04     Cs3 
	BYTE	W96
// 038   ----------------------------------------
	BYTE	W96
// 039   ----------------------------------------
	BYTE	W96
// 040   ----------------------------------------
	BYTE	W96
// 041   ----------------------------------------
BanjoKazooieTreasureTroveCoveSme_3_041:
	BYTE		N12     Gn3   v092
	BYTE		N12     Cn4 
	BYTE	W12
	BYTE		N06   
	BYTE		N06     En4 
	BYTE	W06
	BYTE		N12   
	BYTE		N12     Gn4 
	BYTE	W12
	BYTE		N06     Cn4 
	BYTE		N06     En4 
	BYTE	W06
	BYTE		N12   
	BYTE		N12     Gn4 
	BYTE	W12
	BYTE		        En4 
	BYTE		N12     An4 
	BYTE	W12
	BYTE		N06     En4 
	BYTE		N06     Gn4 
	BYTE	W06
	BYTE		        Cn4 
	BYTE		N06     En4 
	BYTE	W06
	BYTE		N12   
	BYTE		N12     Gn4 
	BYTE	W12
	BYTE		        En4 
	BYTE		N12     An4 
	BYTE	W12
	BYTE	PEND
// 042   ----------------------------------------
BanjoKazooieTreasureTroveCoveSme_3_042:
	BYTE		N12     Ds4   v092
	BYTE		N12     Gs4 
	BYTE	W12
	BYTE		N06     Fn4 
	BYTE		N06     As4 
	BYTE	W06
	BYTE		N12     Gs4 
	BYTE		N12     Cn5 
	BYTE	W12
	BYTE		N06     Fn4 
	BYTE		N06     As4 
	BYTE	W06
	BYTE		N12     Ds4 
	BYTE		N12     Gs4 
	BYTE	W12
	BYTE		        En4 
	BYTE		N12     Gn4 
	BYTE	W12
	BYTE		N24     Cn4 
	BYTE		N24     En4 
	BYTE	W24
	BYTE		N12     Cn4 
	BYTE		N12     En4 
	BYTE	W12
	BYTE	PEND
// 043   ----------------------------------------
	BYTE	PATT
	 POIN2	BanjoKazooieTreasureTroveCoveSme_3_041
// 044   ----------------------------------------
	BYTE		N12     Ds4   v092
	BYTE		N12     Gs4 
	BYTE	W12
	BYTE		N06     Fn4 
	BYTE		N06     As4 
	BYTE	W06
	BYTE		N12     Gs4 
	BYTE		N12     Cn5 
	BYTE	W12
	BYTE		N06     Fn4 
	BYTE		N06     As4 
	BYTE	W06
	BYTE		N10     Ds4 
	BYTE		N10     Gs4 
	BYTE	W10
	BYTE		N02     Bn4   v068
	BYTE		N02     Dn5 
	BYTE	W02
	BYTE		N12     Cn5 
	BYTE		N12     En5 
	BYTE	W12
	BYTE		N15     Gn4   v092
	BYTE		N15     Cn5 
	BYTE	W36
// 045   ----------------------------------------
	BYTE	PATT
	 POIN2	BanjoKazooieTreasureTroveCoveSme_3_041
// 046   ----------------------------------------
	BYTE	PATT
	 POIN2	BanjoKazooieTreasureTroveCoveSme_3_042
// 047   ----------------------------------------
	BYTE	PATT
	 POIN2	BanjoKazooieTreasureTroveCoveSme_3_041
// 048   ----------------------------------------
	BYTE		N12     Fn4   v092
	BYTE		N12     Gs4 
	BYTE	W12
	BYTE		N06     Fs4 
	BYTE		N06     As4 
	BYTE	W06
	BYTE		N12     Gn4 
	BYTE		N12     Bn4 
	BYTE	W12
	BYTE		N06     Gn4 
	BYTE		N06     An4 
	BYTE	W06
	BYTE		N12     Fn4 
	BYTE		N12     Gn4 
	BYTE	W12
	BYTE		N15     En4 
	BYTE		N15     Cn5 
	BYTE	W48
// 049   ----------------------------------------
BanjoKazooieTreasureTroveCoveSme_3_049:
	BYTE		N12     Cn3   v080
	BYTE	W06
	BYTE		        Gn3 
	BYTE	W06
	BYTE		        En3 
	BYTE	W06
	BYTE		        An3 
	BYTE	W06
	BYTE		        Cn3 
	BYTE	W06
	BYTE		        Gn3 
	BYTE	W06
	BYTE		        En3 
	BYTE	W06
	BYTE		        An3 
	BYTE	W06
	BYTE		        Cn3 
	BYTE	W06
	BYTE		        Gn3 
	BYTE	W06
	BYTE		        En3 
	BYTE	W06
	BYTE		        An3 
	BYTE	W06
	BYTE		        Cn3 
	BYTE	W06
	BYTE		        Gn3 
	BYTE	W06
	BYTE		        En3 
	BYTE	W06
	BYTE		        An3 
	BYTE	W06
	BYTE	PEND
// 050   ----------------------------------------
BanjoKazooieTreasureTroveCoveSme_3_050:
	BYTE		N12     Cs3   v080
	BYTE	W06
	BYTE		        Fs3 
	BYTE	W06
	BYTE		        Ds3 
	BYTE	W06
	BYTE		        As3 
	BYTE	W06
	BYTE		        Cs3 
	BYTE	W06
	BYTE		        Fs3 
	BYTE	W06
	BYTE		        Ds3 
	BYTE	W06
	BYTE		        As3 
	BYTE	W06
	BYTE		        Cs3 
	BYTE	W06
	BYTE		        Fs3 
	BYTE	W06
	BYTE		        Ds3 
	BYTE	W06
	BYTE		        As3 
	BYTE	W06
	BYTE		        Cs3 
	BYTE	W06
	BYTE		        Fs3 
	BYTE	W06
	BYTE		        Ds3 
	BYTE	W06
	BYTE		        As3 
	BYTE	W06
	BYTE	PEND
// 051   ----------------------------------------
	BYTE	PATT
	 POIN2	BanjoKazooieTreasureTroveCoveSme_3_049
// 052   ----------------------------------------
	BYTE		N12     As2   v080
	BYTE	W06
	BYTE		        Fn3 
	BYTE	W06
	BYTE		        Dn3 
	BYTE	W06
	BYTE		        As3 
	BYTE	W06
	BYTE		        As2 
	BYTE	W06
	BYTE		        Fs3 
	BYTE	W06
	BYTE		        Dn3 
	BYTE	W06
	BYTE		        As3 
	BYTE	W06
	BYTE		        As2 
	BYTE	W06
	BYTE		        Fn3 
	BYTE	W06
	BYTE		        Dn3 
	BYTE	W06
	BYTE		        As3 
	BYTE	W06
	BYTE		        As2 
	BYTE	W06
	BYTE		        Fs3 
	BYTE	W06
	BYTE		        Dn3 
	BYTE	W06
	BYTE		        As3 
	BYTE	W06
// 053   ----------------------------------------
	BYTE	PATT
	 POIN2	BanjoKazooieTreasureTroveCoveSme_3_049
// 054   ----------------------------------------
	BYTE	PATT
	 POIN2	BanjoKazooieTreasureTroveCoveSme_3_050
// 055   ----------------------------------------
	BYTE		N12     Cn3   v080
	BYTE	W06
	BYTE		        Gn3 
	BYTE	W06
	BYTE		        En3 
	BYTE	W06
	BYTE		        An3 
	BYTE	W06
	BYTE		        Cn3 
	BYTE	W06
	BYTE		        Gn3 
	BYTE	W06
	BYTE		        En3 
	BYTE	W06
	BYTE		        An3 
	BYTE	W06
	BYTE		        Cs3 
	BYTE	W06
	BYTE		        Gs3 
	BYTE	W06
	BYTE		        Fn3 
	BYTE	W06
	BYTE		        As3 
	BYTE	W06
	BYTE		        Cs3 
	BYTE	W06
	BYTE		        Gs3 
	BYTE	W06
	BYTE		        Fn3 
	BYTE	W06
	BYTE		        As3 
	BYTE	W06
// 056   ----------------------------------------
	BYTE	PATT
	 POIN2	BanjoKazooieTreasureTroveCoveSme_3_049
// 057   ----------------------------------------
	BYTE	PATT
	 POIN2	BanjoKazooieTreasureTroveCoveSme_3_009
// 058   ----------------------------------------
	BYTE	PATT
	 POIN2	BanjoKazooieTreasureTroveCoveSme_3_010
// 059   ----------------------------------------
	BYTE	PATT
	 POIN2	BanjoKazooieTreasureTroveCoveSme_3_011
// 060   ----------------------------------------
	BYTE	PATT
	 POIN2	BanjoKazooieTreasureTroveCoveSme_3_012
// 061   ----------------------------------------
	BYTE	PATT
	 POIN2	BanjoKazooieTreasureTroveCoveSme_3_003
	BYTE	GoTo
	 POIN2	BanjoKazooieTreasureTroveCoveSme_3_B1
BanjoKazooieTreasureTroveCoveSme_3_B2:
// 062   ----------------------------------------
	BYTE	W12
	BYTE	FINE

//**************** Track 4 (Midi-Chn.6) ****************//

BanjoKazooieTreasureTroveCoveSme_4:
	BYTE	KEYSH   BanjoKazooieTreasureTroveCoveSme_key+0
// 000   ----------------------------------------
	BYTE		VOICE   73
	BYTE		VOL     106*BanjoKazooieTreasureTroveCoveSme_mvl/mxv
	BYTE		PAN     c_v+16
	BYTE	W96
BanjoKazooieTreasureTroveCoveSme_4_B1:
// 001   ----------------------------------------
	BYTE	W96
// 002   ----------------------------------------
	BYTE	W96
// 003   ----------------------------------------
	BYTE	W96
// 004   ----------------------------------------
	BYTE	W96
// 005   ----------------------------------------
	BYTE	W96
// 006   ----------------------------------------
	BYTE	W96
// 007   ----------------------------------------
	BYTE	W96
// 008   ----------------------------------------
	BYTE	W96
// 009   ----------------------------------------
BanjoKazooieTreasureTroveCoveSme_4_009:
	BYTE		N05     Fs4   v080
	BYTE	W12
	BYTE		N04     Gs4 
	BYTE	W06
	BYTE		N05     As4 
	BYTE	W12
	BYTE		N04     Gs4 
	BYTE	W06
	BYTE		N06     Fs4 
	BYTE	W12
	BYTE		        Bn4 
	BYTE	W12
	BYTE		N04     Cs5 
	BYTE	W06
	BYTE		N05     Ds5 
	BYTE	W12
	BYTE		N04     Cs5 
	BYTE	W06
	BYTE		N06     Bn4 
	BYTE	W12
	BYTE	PEND
// 010   ----------------------------------------
BanjoKazooieTreasureTroveCoveSme_4_010:
	BYTE		N06     Fn4   v080
	BYTE	W12
	BYTE		N04     Gn4 
	BYTE	W06
	BYTE		N05     An4 
	BYTE	W12
	BYTE		N04     Gn4 
	BYTE	W06
	BYTE		N06     Fn4 
	BYTE	W12
	BYTE		N05     As4 
	BYTE	W12
	BYTE		N04     Cn5 
	BYTE	W06
	BYTE		N06     Dn5 
	BYTE	W12
	BYTE		N04     Cn5 
	BYTE	W06
	BYTE		N06     As4 
	BYTE	W12
	BYTE	PEND
// 011   ----------------------------------------
BanjoKazooieTreasureTroveCoveSme_4_011:
	BYTE		N05     Ds4   v080
	BYTE	W12
	BYTE		N04     Fn4 
	BYTE	W06
	BYTE		N06     Gn4 
	BYTE	W12
	BYTE		N04     Fn4 
	BYTE	W06
	BYTE		N05     Ds4 
	BYTE	W12
	BYTE		N06     Gs4 
	BYTE	W12
	BYTE		N04     As4 
	BYTE	W06
	BYTE		N06     Cn5 
	BYTE	W12
	BYTE		N04     As4 
	BYTE	W06
	BYTE		N06     Gs4 
	BYTE	W12
	BYTE	PEND
// 012   ----------------------------------------
BanjoKazooieTreasureTroveCoveSme_4_012:
	BYTE		N06     Gn4   v080
	BYTE	W12
	BYTE		N05     Fs4 
	BYTE	W06
	BYTE		        Gn4 
	BYTE	W12
	BYTE		N04     An4 
	BYTE	W06
	BYTE		N05     Bn4 
	BYTE	W12
	BYTE		N05   
	BYTE	W12
	BYTE		N04     As4 
	BYTE	W06
	BYTE		N05     Bn4 
	BYTE	W12
	BYTE		N04     Cn5 
	BYTE	W06
	BYTE		N07     Dn5 
	BYTE	W12
	BYTE	PEND
// 013   ----------------------------------------
	BYTE		N12     Cn5 
	BYTE	W96
// 014   ----------------------------------------
	BYTE	W96
// 015   ----------------------------------------
	BYTE	W96
// 016   ----------------------------------------
	BYTE	W96
// 017   ----------------------------------------
	BYTE	W96
// 018   ----------------------------------------
	BYTE	W96
// 019   ----------------------------------------
	BYTE	W96
// 020   ----------------------------------------
	BYTE	W96
// 021   ----------------------------------------
	BYTE	W96
// 022   ----------------------------------------
	BYTE	W96
// 023   ----------------------------------------
	BYTE	W96
// 024   ----------------------------------------
	BYTE	W96
// 025   ----------------------------------------
	BYTE	W96
// 026   ----------------------------------------
	BYTE	W96
// 027   ----------------------------------------
	BYTE	W96
// 028   ----------------------------------------
	BYTE	W96
// 029   ----------------------------------------
	BYTE		N13     Fs4   v092
	BYTE	W18
	BYTE		N03     Gs4 
	BYTE	W06
	BYTE		N05     As4 
	BYTE	W12
	BYTE		        Gs4 
	BYTE	W12
	BYTE		N06     Fs4 
	BYTE	W06
	BYTE		        Fn4 
	BYTE	W06
	BYTE		        Fs4 
	BYTE	W06
	BYTE		        Fn4 
	BYTE	W06
	BYTE		N05     Fs4 
	BYTE	W12
	BYTE		N08     Cs4 
	BYTE	W12
// 030   ----------------------------------------
	BYTE		N14     Dn4 
	BYTE	W18
	BYTE		N04     En4 
	BYTE	W06
	BYTE		N06     Fs4 
	BYTE	W12
	BYTE		N03     En4 
	BYTE	W06
	BYTE		N06     Dn4 
	BYTE	W06
	BYTE		N36     Cs4 
	BYTE	W48
// 031   ----------------------------------------
	BYTE		N15     Bn3 
	BYTE	W18
	BYTE		N04     Cs4 
	BYTE	W06
	BYTE		N06     Ds4 
	BYTE	W12
	BYTE		        Cs4 
	BYTE	W06
	BYTE		        Bn3 
	BYTE	W06
	BYTE		N11     Cs4 
	BYTE	W12
	BYTE		N06     Fs4 
	BYTE	W12
	BYTE		N19     Fs3 
	BYTE	W24
// 032   ----------------------------------------
	BYTE		N14     Gs3 
	BYTE	W18
	BYTE		N03   
	BYTE	W06
	BYTE		N08   
	BYTE	W12
	BYTE		N05     Gn3 
	BYTE	W06
	BYTE		N06     Gs3 
	BYTE	W06
	BYTE		N40     Cs4 
	BYTE	W48
// 033   ----------------------------------------
	BYTE		N13     Fs4 
	BYTE	W18
	BYTE		N03     Gs4 
	BYTE	W06
	BYTE		N06     As4 
	BYTE	W12
	BYTE		N05     Gs4 
	BYTE	W12
	BYTE		N06     Fs4 
	BYTE	W06
	BYTE		        Fn4 
	BYTE	W06
	BYTE		        Fs4 
	BYTE	W06
	BYTE		        Fn4 
	BYTE	W06
	BYTE		N07     Fs4 
	BYTE	W12
	BYTE		N08     Cs4 
	BYTE	W12
// 034   ----------------------------------------
	BYTE		N11     Dn4 
	BYTE	W18
	BYTE		N04     Fn4 
	BYTE	W06
	BYTE		N12     Gs4 
	BYTE	W12
	BYTE		N06     As4 
	BYTE	W12
	BYTE		N24     Fs4 
	BYTE	W36
	BYTE		N07     Cs4 
	BYTE	W12
// 035   ----------------------------------------
	BYTE		N14     Cn4 
	BYTE	W18
	BYTE		N04     Cs4 
	BYTE	W06
	BYTE		N05     Ds4 
	BYTE	W12
	BYTE		N08     Cn4 
	BYTE	W12
	BYTE		N06     Ds4 
	BYTE	W12
	BYTE		N07     Cn4 
	BYTE	W12
	BYTE		        Ds4 
	BYTE	W12
	BYTE		        Gs4 
	BYTE	W12
// 036   ----------------------------------------
	BYTE		N13     Cs4 
	BYTE	W18
	BYTE		N05     Ds4 
	BYTE	W06
	BYTE		N07     Fn4 
	BYTE	W12
	BYTE		N08     Cs4 
	BYTE	W12
	BYTE		N06     Bn4 
	BYTE	W12
	BYTE		N07   
	BYTE	W12
	BYTE		N06     As4 
	BYTE	W12
	BYTE		N07     Gs4 
	BYTE	W12
// 037   ----------------------------------------
	BYTE		        Fs4 
	BYTE	W96
// 038   ----------------------------------------
	BYTE	W96
// 039   ----------------------------------------
	BYTE	W96
// 040   ----------------------------------------
	BYTE	W96
// 041   ----------------------------------------
	BYTE	W96
// 042   ----------------------------------------
	BYTE	W96
// 043   ----------------------------------------
	BYTE	W96
// 044   ----------------------------------------
	BYTE	W96
// 045   ----------------------------------------
	BYTE	W96
// 046   ----------------------------------------
	BYTE	W96
// 047   ----------------------------------------
	BYTE	W96
// 048   ----------------------------------------
	BYTE	W96
// 049   ----------------------------------------
	BYTE	W96
// 050   ----------------------------------------
	BYTE	W96
// 051   ----------------------------------------
	BYTE	W96
// 052   ----------------------------------------
	BYTE	W96
// 053   ----------------------------------------
	BYTE	W96
// 054   ----------------------------------------
	BYTE	W96
// 055   ----------------------------------------
	BYTE	W96
// 056   ----------------------------------------
	BYTE	W96
// 057   ----------------------------------------
	BYTE	PATT
	 POIN2	BanjoKazooieTreasureTroveCoveSme_4_009
// 058   ----------------------------------------
	BYTE	PATT
	 POIN2	BanjoKazooieTreasureTroveCoveSme_4_010
// 059   ----------------------------------------
	BYTE	PATT
	 POIN2	BanjoKazooieTreasureTroveCoveSme_4_011
// 060   ----------------------------------------
	BYTE	PATT
	 POIN2	BanjoKazooieTreasureTroveCoveSme_4_012
// 061   ----------------------------------------
	BYTE		N12     Cn5   v080
	BYTE	W96
	BYTE	GoTo
	 POIN2	BanjoKazooieTreasureTroveCoveSme_4_B1
BanjoKazooieTreasureTroveCoveSme_4_B2:
// 062   ----------------------------------------
	BYTE	W12
	BYTE	FINE

//**************** Track 5 (Midi-Chn.7) ****************//

BanjoKazooieTreasureTroveCoveSme_5:
	BYTE	KEYSH   BanjoKazooieTreasureTroveCoveSme_key+0
// 000   ----------------------------------------
	BYTE		VOICE   34
	BYTE		VOL     86*BanjoKazooieTreasureTroveCoveSme_mvl/mxv
	BYTE		PAN     c_v+0
	BYTE	W96
BanjoKazooieTreasureTroveCoveSme_5_B1:
// 001   ----------------------------------------
	BYTE	W96
// 002   ----------------------------------------
	BYTE	W96
// 003   ----------------------------------------
	BYTE	W96
// 004   ----------------------------------------
	BYTE	W96
// 005   ----------------------------------------
	BYTE	W96
// 006   ----------------------------------------
	BYTE	W96
// 007   ----------------------------------------
	BYTE	W96
// 008   ----------------------------------------
	BYTE	W96
// 009   ----------------------------------------
BanjoKazooieTreasureTroveCoveSme_5_009:
	BYTE		N12     Fs1   v060
	BYTE	W18
	BYTE		        Cs2 
	BYTE	W18
	BYTE		        Fs1 
	BYTE	W12
	BYTE		        Bn1 
	BYTE	W18
	BYTE		        Fs1 
	BYTE	W18
	BYTE		        Bn1 
	BYTE	W12
	BYTE	PEND
// 010   ----------------------------------------
BanjoKazooieTreasureTroveCoveSme_5_010:
	BYTE		N12     Fn1   v060
	BYTE	W18
	BYTE		        Cn2 
	BYTE	W18
	BYTE		        Fn1 
	BYTE	W12
	BYTE		        As1 
	BYTE	W18
	BYTE		        Fn1 
	BYTE	W18
	BYTE		        As1 
	BYTE	W12
	BYTE	PEND
// 011   ----------------------------------------
BanjoKazooieTreasureTroveCoveSme_5_011:
	BYTE		N12     Ds2   v060
	BYTE	W18
	BYTE		        As1 
	BYTE	W18
	BYTE		        Ds2 
	BYTE	W12
	BYTE		        Gs1 
	BYTE	W18
	BYTE		        Ds2 
	BYTE	W18
	BYTE		        Gs1 
	BYTE	W12
	BYTE	PEND
// 012   ----------------------------------------
BanjoKazooieTreasureTroveCoveSme_5_012:
	BYTE		N12     Gn1   v060
	BYTE	W18
	BYTE		        Dn2 
	BYTE	W18
	BYTE		        Gn1 
	BYTE	W12
	BYTE		        Dn2 
	BYTE	W18
	BYTE		        Gn1 
	BYTE	W18
	BYTE		        Dn2 
	BYTE	W12
	BYTE	PEND
// 013   ----------------------------------------
BanjoKazooieTreasureTroveCoveSme_5_013:
	BYTE		N12     Cn2   v060
	BYTE	W18
	BYTE		        Gn1 
	BYTE	W18
	BYTE		        Cn2 
	BYTE	W12
	BYTE		N12   
	BYTE	W18
	BYTE		        Gn1 
	BYTE	W18
	BYTE		        Cn2 
	BYTE	W12
	BYTE	PEND
// 014   ----------------------------------------
BanjoKazooieTreasureTroveCoveSme_5_014:
	BYTE		N12     Gs1   v060
	BYTE	W18
	BYTE		        Ds2 
	BYTE	W18
	BYTE		        Gs1 
	BYTE	W12
	BYTE		        Cn2 
	BYTE	W24
	BYTE		        Gn1 
	BYTE	W12
	BYTE		        Cn2 
	BYTE	W12
	BYTE	PEND
// 015   ----------------------------------------
	BYTE	PATT
	 POIN2	BanjoKazooieTreasureTroveCoveSme_5_013
// 016   ----------------------------------------
	BYTE	PATT
	 POIN2	BanjoKazooieTreasureTroveCoveSme_5_014
// 017   ----------------------------------------
	BYTE	PATT
	 POIN2	BanjoKazooieTreasureTroveCoveSme_5_013
// 018   ----------------------------------------
	BYTE	PATT
	 POIN2	BanjoKazooieTreasureTroveCoveSme_5_014
// 019   ----------------------------------------
	BYTE	PATT
	 POIN2	BanjoKazooieTreasureTroveCoveSme_5_013
// 020   ----------------------------------------
BanjoKazooieTreasureTroveCoveSme_5_020:
	BYTE		N12     Cs2   v060
	BYTE	W18
	BYTE		        Gn1 
	BYTE	W18
	BYTE		N12   
	BYTE	W12
	BYTE		        Cn2 
	BYTE	W24
	BYTE		        Gn1 
	BYTE	W12
	BYTE		        Cn2 
	BYTE	W12
	BYTE	PEND
// 021   ----------------------------------------
BanjoKazooieTreasureTroveCoveSme_5_021:
	BYTE		N12     Fs2   v092
	BYTE	W18
	BYTE		        Cs2 
	BYTE	W18
	BYTE		        Fs2 
	BYTE	W12
	BYTE		N12   
	BYTE	W18
	BYTE		        Cs2 
	BYTE	W18
	BYTE		        Fs2 
	BYTE	W12
	BYTE	PEND
// 022   ----------------------------------------
BanjoKazooieTreasureTroveCoveSme_5_022:
	BYTE		N12     Dn2   v092
	BYTE	W18
	BYTE		        An2 
	BYTE	W18
	BYTE		        Dn2 
	BYTE	W12
	BYTE		        Fs2 
	BYTE	W24
	BYTE		        Cs2 
	BYTE	W12
	BYTE		        Fs2 
	BYTE	W12
	BYTE	PEND
// 023   ----------------------------------------
BanjoKazooieTreasureTroveCoveSme_5_023:
	BYTE		N12     Bn1   v092
	BYTE	W18
	BYTE		        Fs2 
	BYTE	W18
	BYTE		        Bn1 
	BYTE	W12
	BYTE		        Fs2 
	BYTE	W18
	BYTE		        Cs2 
	BYTE	W18
	BYTE		        Fs2 
	BYTE	W12
	BYTE	PEND
// 024   ----------------------------------------
BanjoKazooieTreasureTroveCoveSme_5_024:
	BYTE		N12     Gs2   v092
	BYTE	W18
	BYTE		        Ds2 
	BYTE	W18
	BYTE		        Gs2 
	BYTE	W12
	BYTE		        Cs2 
	BYTE	W24
	BYTE		        Gs2 
	BYTE	W12
	BYTE		        Cs2 
	BYTE	W12
	BYTE	PEND
// 025   ----------------------------------------
	BYTE	PATT
	 POIN2	BanjoKazooieTreasureTroveCoveSme_5_021
// 026   ----------------------------------------
	BYTE		N12     Cn2   v092
	BYTE	W18
	BYTE		        Gn2 
	BYTE	W18
	BYTE		        Cn2 
	BYTE	W12
	BYTE		N12   
	BYTE	W24
	BYTE		N12   
	BYTE	W12
	BYTE		        Gn2 
	BYTE	W12
// 027   ----------------------------------------
	BYTE		        Cs2 
	BYTE	W18
	BYTE		        Gs1 
	BYTE	W18
	BYTE		        Cs2 
	BYTE	W12
	BYTE		        Gn2 
	BYTE	W18
	BYTE		        Dn2 
	BYTE	W18
	BYTE		        Gn2 
	BYTE	W12
// 028   ----------------------------------------
	BYTE		        Cn2 
	BYTE	W18
	BYTE		        Gn2 
	BYTE	W18
	BYTE		        Cn2 
	BYTE	W12
	BYTE		N12   
	BYTE	W24
	BYTE		        Gn2 
	BYTE	W12
	BYTE		        Cn2 
	BYTE	W12
// 029   ----------------------------------------
	BYTE	PATT
	 POIN2	BanjoKazooieTreasureTroveCoveSme_5_021
// 030   ----------------------------------------
	BYTE	PATT
	 POIN2	BanjoKazooieTreasureTroveCoveSme_5_022
// 031   ----------------------------------------
	BYTE	PATT
	 POIN2	BanjoKazooieTreasureTroveCoveSme_5_023
// 032   ----------------------------------------
	BYTE	PATT
	 POIN2	BanjoKazooieTreasureTroveCoveSme_5_024
// 033   ----------------------------------------
	BYTE	PATT
	 POIN2	BanjoKazooieTreasureTroveCoveSme_5_021
// 034   ----------------------------------------
	BYTE		N12     As1   v092
	BYTE	W18
	BYTE		        Dn2 
	BYTE	W18
	BYTE		N12   
	BYTE	W12
	BYTE		        Ds2 
	BYTE	W24
	BYTE		        As1 
	BYTE	W12
	BYTE		        Ds2 
	BYTE	W12
// 035   ----------------------------------------
	BYTE		        Gs2 
	BYTE	W18
	BYTE		        Ds2 
	BYTE	W18
	BYTE		        Gs2 
	BYTE	W12
	BYTE		N12   
	BYTE	W18
	BYTE		        Ds2 
	BYTE	W18
	BYTE		        Gs2 
	BYTE	W12
// 036   ----------------------------------------
	BYTE		        Cs2 
	BYTE	W18
	BYTE		        Gs2 
	BYTE	W18
	BYTE		        Cs2 
	BYTE	W12
	BYTE		N12   
	BYTE	W24
	BYTE		        Gs2 
	BYTE	W12
	BYTE		        Cs2 
	BYTE	W12
// 037   ----------------------------------------
	BYTE	PATT
	 POIN2	BanjoKazooieTreasureTroveCoveSme_5_009
// 038   ----------------------------------------
	BYTE	PATT
	 POIN2	BanjoKazooieTreasureTroveCoveSme_5_010
// 039   ----------------------------------------
	BYTE	PATT
	 POIN2	BanjoKazooieTreasureTroveCoveSme_5_011
// 040   ----------------------------------------
	BYTE	PATT
	 POIN2	BanjoKazooieTreasureTroveCoveSme_5_012
// 041   ----------------------------------------
	BYTE		N12     Cn2   v060
	BYTE	W96
// 042   ----------------------------------------
	BYTE	W96
// 043   ----------------------------------------
	BYTE	W96
// 044   ----------------------------------------
	BYTE	W96
// 045   ----------------------------------------
	BYTE	PATT
	 POIN2	BanjoKazooieTreasureTroveCoveSme_5_013
// 046   ----------------------------------------
	BYTE	PATT
	 POIN2	BanjoKazooieTreasureTroveCoveSme_5_014
// 047   ----------------------------------------
	BYTE	PATT
	 POIN2	BanjoKazooieTreasureTroveCoveSme_5_013
// 048   ----------------------------------------
	BYTE	PATT
	 POIN2	BanjoKazooieTreasureTroveCoveSme_5_020
// 049   ----------------------------------------
	BYTE		N21     Cn2   v127
	BYTE	W24
	BYTE		N18     Gn2 
	BYTE	W24
	BYTE		N20   
	BYTE	W24
	BYTE		N18     Cn2 
	BYTE	W24
// 050   ----------------------------------------
	BYTE		N14     Fs2 
	BYTE	W12
	BYTE		N11     Gs2 
	BYTE	W12
	BYTE		N12     As2 
	BYTE	W12
	BYTE		N11     Gs2 
	BYTE	W12
	BYTE		N20     Fs2 
	BYTE	W24
	BYTE		N23     Cs2 
	BYTE	W24
// 051   ----------------------------------------
	BYTE		        Cn2 
	BYTE	W24
	BYTE		N18     Gn2 
	BYTE	W24
	BYTE		N17   
	BYTE	W24
	BYTE		N19     Cn2 
	BYTE	W24
// 052   ----------------------------------------
	BYTE		N18     As2 
	BYTE	W18
	BYTE		N06     Cn3 
	BYTE	W06
	BYTE		N11     As2 
	BYTE	W12
	BYTE		        Fs2 
	BYTE	W12
	BYTE		N16     As2 
	BYTE	W18
	BYTE		N06     Cn3 
	BYTE	W06
	BYTE		N10     As2 
	BYTE	W12
	BYTE		N08     Fs2 
	BYTE	W12
// 053   ----------------------------------------
	BYTE		N22     Cn2 
	BYTE	W24
	BYTE		N18     Gn2 
	BYTE	W24
	BYTE		N18   
	BYTE	W24
	BYTE		N19     Cn2 
	BYTE	W24
// 054   ----------------------------------------
	BYTE		N12     Fs2 
	BYTE	W12
	BYTE		        Gs2 
	BYTE	W12
	BYTE		        As2 
	BYTE	W12
	BYTE		N10     Gs2 
	BYTE	W12
	BYTE		N19     Fs2 
	BYTE	W24
	BYTE		N23     Cs2 
	BYTE	W24
// 055   ----------------------------------------
	BYTE		        Cn2 
	BYTE	W24
	BYTE		N16     Gn2 
	BYTE	W24
	BYTE		        Gs2 
	BYTE	W24
	BYTE		N18   
	BYTE	W18
	BYTE		N06     Cs3 
	BYTE	W06
// 056   ----------------------------------------
	BYTE		N24     Cn3 
	BYTE	W24
	BYTE		N15     Cn2 
	BYTE	W24
	BYTE		N16   
	BYTE	W48
// 057   ----------------------------------------
	BYTE	PATT
	 POIN2	BanjoKazooieTreasureTroveCoveSme_5_009
// 058   ----------------------------------------
	BYTE	PATT
	 POIN2	BanjoKazooieTreasureTroveCoveSme_5_010
// 059   ----------------------------------------
	BYTE	PATT
	 POIN2	BanjoKazooieTreasureTroveCoveSme_5_011
// 060   ----------------------------------------
	BYTE	PATT
	 POIN2	BanjoKazooieTreasureTroveCoveSme_5_012
// 061   ----------------------------------------
	BYTE		N12     Cn2   v060
	BYTE	W96
	BYTE	GoTo
	 POIN2	BanjoKazooieTreasureTroveCoveSme_5_B1
BanjoKazooieTreasureTroveCoveSme_5_B2:
// 062   ----------------------------------------
	BYTE	W12
	BYTE	FINE

//**************** Track 6 (Midi-Chn.8) ****************//

BanjoKazooieTreasureTroveCoveSme_6:
	BYTE	KEYSH   BanjoKazooieTreasureTroveCoveSme_key+0
// 000   ----------------------------------------
	BYTE		VOICE   13
	BYTE		VOL     78*BanjoKazooieTreasureTroveCoveSme_mvl/mxv
	BYTE		PAN     c_v+16
	BYTE	W96
BanjoKazooieTreasureTroveCoveSme_6_B1:
// 001   ----------------------------------------
	BYTE	W96
// 002   ----------------------------------------
	BYTE	W96
// 003   ----------------------------------------
	BYTE	W96
// 004   ----------------------------------------
	BYTE	W96
// 005   ----------------------------------------
	BYTE	W96
// 006   ----------------------------------------
	BYTE	W96
// 007   ----------------------------------------
	BYTE	W96
// 008   ----------------------------------------
	BYTE	W96
// 009   ----------------------------------------
	BYTE	W96
// 010   ----------------------------------------
	BYTE	W96
// 011   ----------------------------------------
	BYTE	W96
// 012   ----------------------------------------
	BYTE	W96
// 013   ----------------------------------------
	BYTE	W96
// 014   ----------------------------------------
	BYTE	W96
// 015   ----------------------------------------
	BYTE	W96
// 016   ----------------------------------------
	BYTE	W96
// 017   ----------------------------------------
	BYTE	W96
// 018   ----------------------------------------
	BYTE	W96
// 019   ----------------------------------------
	BYTE	W96
// 020   ----------------------------------------
	BYTE	W96
// 021   ----------------------------------------
BanjoKazooieTreasureTroveCoveSme_6_021:
	BYTE		N16     Fs4   v092
	BYTE	W12
	BYTE		N11     As4 
	BYTE		N12     Cs5 
	BYTE	W06
	BYTE		N07     Cs4 
	BYTE	W12
	BYTE		N07   
	BYTE	W06
	BYTE		N13     As4 
	BYTE		N13     Cs5 
	BYTE	W12
	BYTE		N14     Fs4 
	BYTE	W12
	BYTE		N07     As4 
	BYTE		N08     Cs5 
	BYTE	W06
	BYTE		N07     Cs4 
	BYTE	W12
	BYTE		N06   
	BYTE	W06
	BYTE		N10     As4 
	BYTE		N11     Cs5 
	BYTE	W12
	BYTE	PEND
// 022   ----------------------------------------
	BYTE		N12     Dn4 
	BYTE	W12
	BYTE		N08     An4 
	BYTE		N10     Cn5 
	BYTE	W06
	BYTE		N06     Fs4 
	BYTE	W12
	BYTE		N07   
	BYTE	W06
	BYTE		N10     An4 
	BYTE		N09     Cn5 
	BYTE	W12
	BYTE		N10     Cs4 
	BYTE	W12
	BYTE		N08     As4 
	BYTE		N08     Cs5 
	BYTE	W12
	BYTE		N06     Fs4 
	BYTE	W12
	BYTE		N09     As4 
	BYTE		N09     Cs5 
	BYTE	W12
// 023   ----------------------------------------
	BYTE		N13     Bn3 
	BYTE	W12
	BYTE		N06     Bn4 
	BYTE		N06     Ds5 
	BYTE	W06
	BYTE		N07     Fs4 
	BYTE	W12
	BYTE		N07   
	BYTE	W06
	BYTE		N09     Bn4 
	BYTE		N09     Ds5 
	BYTE	W12
	BYTE		N13     Fs4 
	BYTE	W12
	BYTE		N07     As4 
	BYTE		N08     Cs5 
	BYTE	W06
	BYTE		N06     Cs4 
	BYTE	W12
	BYTE		N07   
	BYTE	W06
	BYTE		N08     As4 
	BYTE		N09     Cs5 
	BYTE	W12
// 024   ----------------------------------------
	BYTE		N13     Gs4 
	BYTE	W12
	BYTE		N09     Cn5 
	BYTE		N09     Ds5 
	BYTE	W06
	BYTE		N07     Ds4 
	BYTE	W12
	BYTE		N06   
	BYTE	W06
	BYTE		N09     Cn5 
	BYTE		N09     Ds5 
	BYTE	W12
	BYTE		N11     Cs4 
	BYTE	W12
	BYTE		N06     Bn4 
	BYTE		N06     Cs5 
	BYTE	W12
	BYTE		N07     Gs4 
	BYTE	W12
	BYTE		N08     Bn4 
	BYTE		N08     Cs5 
	BYTE	W12
// 025   ----------------------------------------
	BYTE	PATT
	 POIN2	BanjoKazooieTreasureTroveCoveSme_6_021
// 026   ----------------------------------------
	BYTE		N12     Cn4   v092
	BYTE	W12
	BYTE		N08     En4 
	BYTE		N10     Gn4 
	BYTE	W06
	BYTE		N06     Gn3 
	BYTE	W12
	BYTE		N07   
	BYTE	W06
	BYTE		N10     En4 
	BYTE		N09     Gn4 
	BYTE	W12
	BYTE		N10     Cn4 
	BYTE	W12
	BYTE		N08     En4 
	BYTE		N08     Gn4 
	BYTE	W12
	BYTE		N06     Gn3 
	BYTE	W12
	BYTE		N09     En4 
	BYTE		N09     Gn4 
	BYTE	W12
// 027   ----------------------------------------
	BYTE		N12     Cs4 
	BYTE	W12
	BYTE		N08     Fn4 
	BYTE		N10     Gs4 
	BYTE	W06
	BYTE		N06     Gs3 
	BYTE	W12
	BYTE		N07   
	BYTE	W06
	BYTE		N10     Fn4 
	BYTE		N09     Gs4 
	BYTE	W12
	BYTE		N13     Gn4 
	BYTE	W12
	BYTE		N07     Bn4 
	BYTE		N08     Dn5 
	BYTE	W06
	BYTE		N06     Dn4 
	BYTE	W12
	BYTE		N07   
	BYTE	W06
	BYTE		N08     Bn4 
	BYTE		N09     Dn5 
	BYTE	W12
// 028   ----------------------------------------
	BYTE		N13     Cn4 
	BYTE	W12
	BYTE		N09     En4 
	BYTE		N09     Gn4 
	BYTE	W06
	BYTE		N07     Gn3 
	BYTE	W12
	BYTE		N06   
	BYTE	W06
	BYTE		N09     En4 
	BYTE		N09     Gn4 
	BYTE	W12
	BYTE		N11     Cn4 
	BYTE	W12
	BYTE		N06     En4 
	BYTE		N06     Gn4 
	BYTE	W12
	BYTE		N07     Gn3 
	BYTE	W12
	BYTE		N08     En4 
	BYTE		N08     Gn4 
	BYTE	W12
// 029   ----------------------------------------
	BYTE	W96
// 030   ----------------------------------------
	BYTE	W96
// 031   ----------------------------------------
	BYTE	W96
// 032   ----------------------------------------
	BYTE	W96
// 033   ----------------------------------------
	BYTE	W96
// 034   ----------------------------------------
	BYTE	W96
// 035   ----------------------------------------
	BYTE	W96
// 036   ----------------------------------------
	BYTE	W96
// 037   ----------------------------------------
	BYTE		N18     Fs3   v060
	BYTE	W12
	BYTE		N24     Fs4 
	BYTE		N24     As4 
	BYTE	W06
	BYTE		N12     Cs4 
	BYTE	W12
	BYTE		N18   
	BYTE	W06
	BYTE		N24     Fs4 
	BYTE		N24     As4 
	BYTE	W12
	BYTE		N18     Bn3 
	BYTE	W12
	BYTE		N24     Ds4 
	BYTE		N24     Fs4 
	BYTE	W06
	BYTE		N12     Fs3 
	BYTE	W12
	BYTE		N18   
	BYTE	W06
	BYTE		N24     Ds4 
	BYTE		N24     Fs4 
	BYTE	W12
// 038   ----------------------------------------
	BYTE		N18     Fn3 
	BYTE	W12
	BYTE		N24     Fn4 
	BYTE		N24     An4 
	BYTE	W06
	BYTE		N12     Cn4 
	BYTE	W12
	BYTE		N18   
	BYTE	W06
	BYTE		N24     Fn4 
	BYTE		N24     An4 
	BYTE	W12
	BYTE		N12     As3 
	BYTE	W12
	BYTE		N24     Dn4 
	BYTE		N24     Fn4 
	BYTE	W06
	BYTE		N12     Fn3 
	BYTE	W12
	BYTE		N18   
	BYTE	W06
	BYTE		N24     Dn4 
	BYTE		N24     Fn4 
	BYTE	W12
// 039   ----------------------------------------
	BYTE		N18     Ds3 
	BYTE	W12
	BYTE		N24     Ds4 
	BYTE		N24     Gn4 
	BYTE	W06
	BYTE		N12     As3 
	BYTE	W12
	BYTE		N18   
	BYTE	W06
	BYTE		N24     Ds4 
	BYTE		N24     Gn4 
	BYTE	W12
	BYTE		N18     Gs3 
	BYTE	W12
	BYTE		N24     Cn4 
	BYTE		N24     Ds4 
	BYTE	W06
	BYTE		N12     Ds3 
	BYTE	W12
	BYTE		N18   
	BYTE	W06
	BYTE		N24     Cn4 
	BYTE		N24     Ds4 
	BYTE	W12
// 040   ----------------------------------------
	BYTE		N18     Gn3 
	BYTE	W12
	BYTE		N24     Bn3 
	BYTE		N24     Dn4 
	BYTE	W06
	BYTE		N12     Dn3 
	BYTE	W12
	BYTE		N18   
	BYTE	W06
	BYTE		N24     Bn3 
	BYTE		N24     Dn4 
	BYTE	W12
	BYTE		N18     Gn3 
	BYTE	W12
	BYTE		N24     Bn3 
	BYTE		N24     Dn4 
	BYTE	W06
	BYTE		N12     Dn3 
	BYTE	W12
	BYTE		N18   
	BYTE	W06
	BYTE		N12     Bn3 
	BYTE		N12     Dn4 
	BYTE	W12
// 041   ----------------------------------------
	BYTE		N24     Cn4 
	BYTE		N24     En4 
	BYTE	W96
// 042   ----------------------------------------
BanjoKazooieTreasureTroveCoveSme_6_042:
	BYTE	W48
	BYTE		N12     Gn4   v120
	BYTE		N12     En5 
	BYTE	W12
	BYTE		N06     An4 
	BYTE		N06     Fn5 
	BYTE	W06
	BYTE		N12     Cn5 
	BYTE		N12     Gn5 
	BYTE	W12
	BYTE		N06     An4 
	BYTE		N06     Fn5 
	BYTE	W06
	BYTE		N12     Gn4 
	BYTE		N12     En5 
	BYTE	W12
	BYTE	PEND
// 043   ----------------------------------------
BanjoKazooieTreasureTroveCoveSme_6_043:
	BYTE		N12     Gn4   v120
	BYTE		N12     En5 
	BYTE	W12
	BYTE		N24     En4 
	BYTE		N24     Cn5 
	BYTE	W84
	BYTE	PEND
// 044   ----------------------------------------
	BYTE	W68
	BYTE	W02
	BYTE		N02   
	BYTE		N02     Ds5 
	BYTE	W02
	BYTE		N12     Cn5 
	BYTE		N12     En5 
	BYTE	W12
	BYTE		N15     Gn4 
	BYTE		N15     Cn5 
	BYTE	W12
// 045   ----------------------------------------
	BYTE		N24     Cn4   v060
	BYTE		N24     En4 
	BYTE	W96
// 046   ----------------------------------------
	BYTE	PATT
	 POIN2	BanjoKazooieTreasureTroveCoveSme_6_042
// 047   ----------------------------------------
	BYTE	PATT
	 POIN2	BanjoKazooieTreasureTroveCoveSme_6_043
// 048   ----------------------------------------
	BYTE	W60
	BYTE	W02
	BYTE		N02     Gs4   v120
	BYTE		N02     Bn4 
	BYTE	W02
	BYTE		        An4 
	BYTE		N02     Cn5 
	BYTE	W02
	BYTE		        As4 
	BYTE		N02     Cs5 
	BYTE	W02
	BYTE		        Bn4 
	BYTE		N02     Dn5 
	BYTE	W02
	BYTE		        Cn5 
	BYTE		N02     Ds5 
	BYTE	W02
	BYTE		N12     Cn5 
	BYTE		N12     En5 
	BYTE	W24
// 049   ----------------------------------------
	BYTE		N21     Cn4   v127
	BYTE	W24
	BYTE		N18     Gn4 
	BYTE	W24
	BYTE		N20   
	BYTE	W24
	BYTE		N18     Cn4 
	BYTE	W24
// 050   ----------------------------------------
	BYTE		N14     Fs4 
	BYTE	W12
	BYTE		N11     Gs4 
	BYTE	W12
	BYTE		N12     As4 
	BYTE	W12
	BYTE		N11     Gs4 
	BYTE	W12
	BYTE		N20     Fs4 
	BYTE	W24
	BYTE		N23     Cs4 
	BYTE	W24
// 051   ----------------------------------------
	BYTE		        Cn4 
	BYTE	W24
	BYTE		N18     Gn4 
	BYTE	W24
	BYTE		N17   
	BYTE	W24
	BYTE		N19     Cn4 
	BYTE	W24
// 052   ----------------------------------------
	BYTE		N18     As4 
	BYTE	W18
	BYTE		N06     Cn5 
	BYTE	W06
	BYTE		N11     As4 
	BYTE	W12
	BYTE		        Fs4 
	BYTE	W12
	BYTE		N16     As4 
	BYTE	W18
	BYTE		N06     Cn5 
	BYTE	W06
	BYTE		N10     As4 
	BYTE	W12
	BYTE		N08     Fs4 
	BYTE	W12
// 053   ----------------------------------------
	BYTE		N22     Cn4 
	BYTE	W24
	BYTE		N18     Gn4 
	BYTE	W24
	BYTE		N18   
	BYTE	W24
	BYTE		N19     Cn4 
	BYTE	W24
// 054   ----------------------------------------
	BYTE		N12     Fs4 
	BYTE	W12
	BYTE		        Gs4 
	BYTE	W12
	BYTE		        As4 
	BYTE	W12
	BYTE		N10     Gs4 
	BYTE	W12
	BYTE		N19     Fs4 
	BYTE	W24
	BYTE		N23     Cs4 
	BYTE	W24
// 055   ----------------------------------------
	BYTE		        Cn4 
	BYTE	W24
	BYTE		N16     Gn4 
	BYTE	W24
	BYTE		        Gs4 
	BYTE	W24
	BYTE		N18   
	BYTE	W18
	BYTE		N06     Cs5 
	BYTE	W06
// 056   ----------------------------------------
	BYTE		N24     Cn5 
	BYTE	W24
	BYTE		N15     Cn4 
	BYTE	W24
	BYTE		N16   
	BYTE	W48
// 057   ----------------------------------------
	BYTE	W96
// 058   ----------------------------------------
	BYTE	W96
// 059   ----------------------------------------
	BYTE	W96
// 060   ----------------------------------------
	BYTE	W96
// 061   ----------------------------------------
	BYTE	W96
	BYTE	GoTo
	 POIN2	BanjoKazooieTreasureTroveCoveSme_6_B1
BanjoKazooieTreasureTroveCoveSme_6_B2:
// 062   ----------------------------------------
	BYTE	W12
	BYTE	FINE

//******************************************************//
	ALIGN 4

BanjoKazooieTreasureTroveCoveSme:
	BYTE	6	// NumTrks
	BYTE	0	// NumBlks
	BYTE	BanjoKazooieTreasureTroveCoveSme_pri	// Priority
	BYTE	BanjoKazooieTreasureTroveCoveSme_rev	// Reverb.

	POIN2	BanjoKazooieTreasureTroveCoveSme_grp

	POIN2	BanjoKazooieTreasureTroveCoveSme_1
	POIN2	BanjoKazooieTreasureTroveCoveSme_2
	POIN2	BanjoKazooieTreasureTroveCoveSme_3
	POIN2	BanjoKazooieTreasureTroveCoveSme_4
	POIN2	BanjoKazooieTreasureTroveCoveSme_5
	POIN2	BanjoKazooieTreasureTroveCoveSme_6

	
