//Event file generated from Sappy .s format.
	#include "MPlayDef.event"

	#define	PokemonDPPtRoute203NightThegis_grp  voicegroup000
	#define	PokemonDPPtRoute203NightThegis_pri  0
	#define	PokemonDPPtRoute203NightThegis_rev  0
	#define	PokemonDPPtRoute203NightThegis_mvl  127
	#define	PokemonDPPtRoute203NightThegis_key  0
	#define	PokemonDPPtRoute203NightThegis_tbs  1
	#define	PokemonDPPtRoute203NightThegis_exg  0
	#define	PokemonDPPtRoute203NightThegis_cmp  1

	// .rodata
	//	PokemonDPPtRoute203NightThegis
	ALIGN 4


//**************** Track 1 (Midi-Chn.0) ****************//

PokemonDPPtRoute203NightThegis_001:
// 000   ----------------------------------------
 BYTE   KEYSH   PokemonDPPtRoute203NightThegis_key+0
 BYTE   TEMPO   128*PokemonDPPtRoute203NightThegis_tbs/2
 BYTE   VOICE   18
 BYTE   PAN   c_v+0
 BYTE   VOL   51*PokemonDPPtRoute203NightThegis_mvl/mxv
 BYTE   MOD 0
 BYTE   CnM2
 BYTE   BEND   c_v+0
 BYTE   W96
// 001   ----------------------------------------
 BYTE   W96
// 002   ----------------------------------------
 BYTE   W96
// 003   ----------------------------------------
 BYTE   W48
 BYTE   VOICE   18
 BYTE   W48
// 004   ----------------------------------------
 BYTE   VOL   51*PokemonDPPtRoute203NightThegis_mvl/mxv
 BYTE   N01  Cn4  v092
 BYTE   W02
 BYTE   Bn3
 BYTE   W02
 BYTE   An3  v084
 BYTE   W02
 BYTE   Gn3
 BYTE   W02
 BYTE   Fs3  v080
 BYTE   W02
 BYTE   En3  v076
 BYTE   W02
 BYTE   Dn3
 BYTE   W02
 BYTE   Cn3
 BYTE   W02
 BYTE   Bn2
 BYTE   W02
 BYTE   An2
 BYTE   W02
 BYTE   Gn2  v072
 BYTE   W02
 BYTE   Fs2
 BYTE   W02
 BYTE   Gn2
 BYTE   W02
 BYTE   An2  v076
 BYTE   W02
 BYTE   Bn2
 BYTE   W02
 BYTE   Cn3
 BYTE   W02
 BYTE   Dn3  v080
 BYTE   W02
 BYTE   En3
 BYTE   W02
 BYTE   Fs3  v084
 BYTE   W02
 BYTE   Gn3  v088
 BYTE   W02
 BYTE   An3  v092
 BYTE   W02
 BYTE   Bn3  v096
 BYTE   W02
 BYTE   Cn4  v100
 BYTE   W02
 BYTE   Dn4
 BYTE   W02
 BYTE   VOL   45*PokemonDPPtRoute203NightThegis_mvl/mxv
 BYTE   W48
// 005   ----------------------------------------
 BYTE   W96
// 006   ----------------------------------------
 BYTE   W96
// 007   ----------------------------------------
 BYTE   W36
 BYTE   W03
Label_0_0100005B:
 BYTE   W09
 BYTE   VOICE   65
 BYTE   VOL   52*PokemonDPPtRoute203NightThegis_mvl/mxv
 BYTE   W48
// 008   ----------------------------------------
 BYTE   VOICE   65
 BYTE   N07  Ds3  v112
 BYTE   W08
 BYTE   En3
 BYTE   W08
 BYTE   Fs3
 BYTE   W08
 BYTE   N07
 BYTE   W08
 BYTE   En3
 BYTE   W08
 BYTE   Ds3
 BYTE   W08
 BYTE   VOICE   65
 BYTE   BEND   c_v-9
 BYTE   N15  Fs3
 BYTE   W04
 BYTE   BEND   c_v+0
 BYTE   W12
 BYTE   N15  En3
 BYTE   W16
 BYTE   Ds3
 BYTE   W16
// 009   ----------------------------------------
 BYTE   N07  Cs3
 BYTE   W08
 BYTE   N36  Bn2
 BYTE   W04
 BYTE   BEND   c_v-1
 BYTE   W04
 BYTE   En3
 BYTE   W08
 BYTE   VOL   45*PokemonDPPtRoute203NightThegis_mvl/mxv
 BYTE   W04
 BYTE   Gs1
 BYTE   W04
 BYTE   Fn1
 BYTE   W04
 BYTE   Ds1
 BYTE   BEND   c_v-2
 BYTE   W01
 BYTE   Cs3
 BYTE   W03
 BYTE   VOL   36*PokemonDPPtRoute203NightThegis_mvl/mxv
 BYTE   BEND   c_v-5
 BYTE   W01
 BYTE   As2
 BYTE   W03
 BYTE   VOL   33*PokemonDPPtRoute203NightThegis_mvl/mxv
 BYTE   BEND   c_v-8
 BYTE   W01
 BYTE   Gn2
 BYTE   W03
 BYTE   VOL   52*PokemonDPPtRoute203NightThegis_mvl/mxv
 BYTE   BEND   c_v-9
 BYTE   N30  Fs3
 BYTE   W04
 BYTE   BEND   c_v+0
 BYTE   W28
 BYTE   N07  En3
 BYTE   W08
 BYTE   Ds3
 BYTE   W08
// 010   ----------------------------------------
 BYTE   N23  Cs3
 BYTE   W12
 BYTE   BEND   c_v+0
 BYTE   W02
 BYTE   En3
 BYTE   W03
 BYTE   Ds3
 BYTE   W01
 BYTE   Ds3
 BYTE   W02
 BYTE   Dn3
 BYTE   W01
 BYTE   Dn3
 BYTE   W01
 BYTE   Cn3
 BYTE   W02
 BYTE   En3
 BYTE   N07  As2
 BYTE   W08
 BYTE   Bn2
 BYTE   W08
 BYTE   Cs3
 BYTE   W08
 BYTE   BEND   c_v-7
 BYTE   N21  Ds3
 BYTE   W02
 BYTE   BEND   c_v+0
 BYTE   W14
 BYTE   Ds3
 BYTE   W01
 BYTE   Dn3
 BYTE   W03
 BYTE   Cn3
 BYTE   W02
 BYTE   Fs2
 BYTE   N11  Ds3  v040
 BYTE   W24
 BYTE   W02
// 011   ----------------------------------------
 BYTE   BEND   c_v+0
 BYTE   N15  Cs3  v112
 BYTE   W16
 BYTE   N13  Ds3
 BYTE   W16
 BYTE   N15  Cs3
 BYTE   W16
 BYTE   BEND   c_v-12
 BYTE   N07
 BYTE   W04
 BYTE   BEND   c_v+0
 BYTE   W04
 BYTE   N07  Bn2  v127
 BYTE   W08
 BYTE   Bn2  v056
 BYTE   W08
 BYTE   Bn2  v127
 BYTE   W08
 BYTE   N09  Bn2  v056
 BYTE   W08
 BYTE   BEND   c_v+0
 BYTE   W01
 BYTE   Ds3
 BYTE   W03
 BYTE   Dn3
 BYTE   W01
 BYTE   Cn3
 BYTE   W03
// 012   ----------------------------------------
 BYTE   VOICE   40
 BYTE   VOL   53*PokemonDPPtRoute203NightThegis_mvl/mxv
 BYTE   BEND   c_v+0
 BYTE   W08
 BYTE   N07  Bn2  v116
 BYTE   W08
 BYTE   Bn2  v056
 BYTE   W08
 BYTE   N23  Cs3  v116
 BYTE   W24
 BYTE   VOL   46*PokemonDPPtRoute203NightThegis_mvl/mxv
 BYTE   N15  Fs3  v112
 BYTE   W16
 BYTE   En3
 BYTE   W16
 BYTE   N07  Ds3
 BYTE   W08
 BYTE   Cs3
 BYTE   W08
// 013   ----------------------------------------
 BYTE   Bn2
 BYTE   W08
 BYTE   N15  As2
 BYTE   W16
 BYTE   N07  Gs2
 BYTE   W08
 BYTE   Gs2  v056
 BYTE   W08
 BYTE   An2  v112
 BYTE   W08
 BYTE   N15  Fs3
 BYTE   W16
 BYTE   N07  En3
 BYTE   W08
 BYTE   Ds3
 BYTE   W08
 BYTE   En3
 BYTE   W08
 BYTE   Cs3
 BYTE   W08
// 014   ----------------------------------------
 BYTE   N23  Cs3  v056
 BYTE   W32
 BYTE   N07  Cn3  v112
 BYTE   W08
 BYTE   Cs3
 BYTE   W08
 BYTE   Ds3
 BYTE   W08
 BYTE   Cs3
 BYTE   W08
 BYTE   N78  Cn3
 BYTE   W32
// 015   ----------------------------------------
 BYTE   VOL   47*PokemonDPPtRoute203NightThegis_mvl/mxv
 BYTE   W01
 BYTE   An1
 BYTE   W03
 BYTE   Gs1
 BYTE   W01
 BYTE   Gn1
 BYTE   W03
 BYTE   Fs1
 BYTE   W01
 BYTE   Fn1
 BYTE   W03
 BYTE   Ds1
 BYTE   W01
 BYTE   Cs1
 BYTE   W03
 BYTE   Bn0
 BYTE   W01
 BYTE   As0
 BYTE   W03
 BYTE   An0
 BYTE   W01
 BYTE   Gn0
 BYTE   W03
 BYTE   En0
 BYTE   W01
 BYTE   Ds0
 BYTE   W03
 BYTE   Cs0
 BYTE   W01
 BYTE   BnM1
 BYTE   W03
 BYTE   AsM1
 BYTE   W01
 BYTE   GsM1
 BYTE   W03
 BYTE   GnM1
 BYTE   W01
 BYTE   GnM1
 BYTE   W03
 BYTE   FsM1
 BYTE   W01
 BYTE   FnM1
 BYTE   W03
 BYTE   FnM1
 BYTE   W04
 BYTE   DsM1
 BYTE   N11  Cn3  v056
 BYTE   W48
// 016   ----------------------------------------
 BYTE   W48
 BYTE   VOICE   65
 BYTE   VOL   53*PokemonDPPtRoute203NightThegis_mvl/mxv
 BYTE   W24
 BYTE   N07  Bn2  v112
 BYTE   W08
 BYTE   En3
 BYTE   W08
 BYTE   Gs3
 BYTE   W08
// 017   ----------------------------------------
 BYTE   N15  Fs3
 BYTE   W16
 BYTE   N03  Gs3
 BYTE   W04
 BYTE   Fs3
 BYTE   W04
 BYTE   N15  En3
 BYTE   W16
 BYTE   N07  Fn3
 BYTE   W08
 BYTE   Fs3
 BYTE   W08
 BYTE   Cs3
 BYTE   W08
 BYTE   Cs3  v056
 BYTE   W08
 BYTE   Cs3  v112
 BYTE   W08
 BYTE   Cs3  v056
 BYTE   W08
 BYTE   En3  v112
 BYTE   W08
// 018   ----------------------------------------
 BYTE   N03  Ds3
 BYTE   W04
 BYTE   En3
 BYTE   W04
 BYTE   N36  Ds3
 BYTE   W40
 BYTE   N23  Ds3  v048
 BYTE   W24
 BYTE   N07  Bn2  v112
 BYTE   W08
 BYTE   En3
 BYTE   W08
 BYTE   Gs3
 BYTE   W08
// 019   ----------------------------------------
 BYTE   N15  As3
 BYTE   W16
 BYTE   N03  Bn3
 BYTE   W04
 BYTE   As3
 BYTE   W04
 BYTE   N23  Gs3
 BYTE   W24
 BYTE   N30  Fs3
 BYTE   W32
 BYTE   N07  Fn3
 BYTE   W08
 BYTE   Fs3
 BYTE   W08
// 020   ----------------------------------------
 BYTE   N15  Gs3
 BYTE   W16
 BYTE   N07  Ds3
 BYTE   W08
 BYTE   Fs3
 BYTE   W08
 BYTE   N15  Fs3  v056
 BYTE   W16
 BYTE   N07  En3  v112
 BYTE   W08
 BYTE   Gs2
 BYTE   W08
 BYTE   Gs2  v056
 BYTE   W08
 BYTE   Gs2  v112
 BYTE   W08
 BYTE   Gs2  v056
 BYTE   W08
 BYTE   N01  Ds3  v112
 BYTE   W02
 BYTE   N05  En3
 BYTE   W06
// 021   ----------------------------------------
 BYTE   N30  As2
 BYTE   N07  En3  v056
 BYTE   W32
 BYTE   Gs2  v112
 BYTE   W08
 BYTE   As2
 BYTE   W08
 BYTE   N44  Bn2
 BYTE   W48
// 022   ----------------------------------------
 BYTE   N36  Dn3
 BYTE   W40
 BYTE   N03  En3
 BYTE   W04
 BYTE   Dn3
 BYTE   W04
 BYTE   N07  Cs3
 BYTE   W08
 BYTE   En3
 BYTE   W08
 BYTE   N78  Fs3
 BYTE   W32
// 023   ----------------------------------------
 BYTE   W48
 BYTE   VOICE   18
 BYTE   VOL   52*PokemonDPPtRoute203NightThegis_mvl/mxv
 BYTE   N07  An1
 BYTE   W08
 BYTE   En2
 BYTE   W08
 BYTE   Cs2
 BYTE   W08
 BYTE   An2
 BYTE   W08
 BYTE   En2
 BYTE   W08
 BYTE   En3
 BYTE   W08
// 024   ----------------------------------------
 BYTE   N23  An3
 BYTE   W24
 BYTE   Gn3
 BYTE   W24
 BYTE   VOICE   48
 BYTE   VOL   57*PokemonDPPtRoute203NightThegis_mvl/mxv
 BYTE   N07  Fs3
 BYTE   W08
 BYTE   Gn3
 BYTE   W08
 BYTE   N03  An3
 BYTE   W04
 BYTE   An3  v048
 BYTE   W04
 BYTE   N01  Gs3  v112
 BYTE   W02
 BYTE   N92  An3
 BYTE   W22
// 025   ----------------------------------------
 BYTE   W72
 BYTE   N07  Fs3
 BYTE   W08
 BYTE   An3
 BYTE   W08
 BYTE   As3
 BYTE   W08
// 026   ----------------------------------------
 BYTE   N01
 BYTE   W02
 BYTE   N13  Bn3
 BYTE   W14
 BYTE   N07  An3
 BYTE   W08
 BYTE   An3  v056
 BYTE   W08
 BYTE   Fs3  v112
 BYTE   W08
 BYTE   En3
 BYTE   W08
 BYTE   N30  Dn3
 BYTE   W32
 BYTE   N07  En3
 BYTE   W08
 BYTE   Fs3
 BYTE   W08
// 027   ----------------------------------------
 BYTE   N15  Gn3
 BYTE   W16
 BYTE   N07  En3
 BYTE   W08
 BYTE   N15  Cs3
 BYTE   W16
 BYTE   N07  En3
 BYTE   W08
 BYTE   En3  v056
 BYTE   W08
 BYTE   Fn3  v112
 BYTE   W08
 BYTE   Fn3  v056
 BYTE   W08
 BYTE   N15  Dn3  v112
 BYTE   W16
 BYTE   N07  Fn3
 BYTE   W08
// 028   ----------------------------------------
 BYTE   En3
 BYTE   W08
 BYTE   Fn3
 BYTE   W08
 BYTE   Gn3
 BYTE   W08
 BYTE   N01  Bn3
 BYTE   W02
 BYTE   N13  Cn4
 BYTE   W14
 BYTE   N07  As3
 BYTE   W08
 BYTE   VOICE   40
 BYTE   VOL   55*PokemonDPPtRoute203NightThegis_mvl/mxv
 BYTE   N07  An3
 BYTE   W08
 BYTE   As3
 BYTE   W08
 BYTE   N03  Cn4
 BYTE   W04
 BYTE   Cn4  v056
 BYTE   W04
 BYTE   N68  Cn4  v112
 BYTE   W24
// 029   ----------------------------------------
 BYTE   W48
 BYTE   N15  Cn4  v056
 BYTE   W16
 BYTE   N07  Cn4  v112
 BYTE   W08
 BYTE   An3
 BYTE   W08
 BYTE   N01  Bn3
 BYTE   W02
 BYTE   N13  Cn4
 BYTE   W14
// 030   ----------------------------------------
 BYTE   N07  Dn4
 BYTE   W08
 BYTE   Dn4  v056
 BYTE   W08
 BYTE   Cn4  v112
 BYTE   W08
 BYTE   Cn4  v056
 BYTE   W08
 BYTE   An3  v112
 BYTE   W08
 BYTE   Gn3
 BYTE   W08
 BYTE   N30  Fn3
 BYTE   W32
 BYTE   N07  Gn3
 BYTE   W08
 BYTE   An3
 BYTE   W08
// 031   ----------------------------------------
 BYTE   N15  Gn3
 BYTE   W16
 BYTE   N07  Fn3
 BYTE   W08
 BYTE   N15  En3
 BYTE   W16
 BYTE   N07  Gn3
 BYTE   W08
 BYTE   N30  Fn3
 BYTE   W32
 BYTE   N07  Gn3
 BYTE   W08
 BYTE   Gs3
 BYTE   W08
// 032   ----------------------------------------
 BYTE   An3
 BYTE   W08
 BYTE   An3  v056
 BYTE   W08
 BYTE   As3  v112
 BYTE   W08
 BYTE   Cn4
 BYTE   W08
 BYTE   Dn4
 BYTE   W08
 BYTE   En4
 BYTE   W08
 BYTE   VOICE   18
 BYTE   VOL   53*PokemonDPPtRoute203NightThegis_mvl/mxv
 BYTE   N44  Fn4  v124
 BYTE   W48
// 033   ----------------------------------------
 BYTE   Gn4
 BYTE   W48
 BYTE   VOICE   18
 BYTE   PAN   c_v-26
 BYTE   VOL   38*PokemonDPPtRoute203NightThegis_mvl/mxv
 BYTE   TIE  An4  v112
 BYTE   W48
// 034   ----------------------------------------
 BYTE   W92
 BYTE   W03
 BYTE   EOT
 BYTE   W01
// 035   ----------------------------------------
 BYTE   N11  An4  v056
 BYTE   W16
 BYTE   N03  An4  v112
 BYTE   W04
 BYTE   N11  An4  v056
 BYTE   W20
 BYTE   TIE  Bn4  v112
 BYTE   W56
// 036   ----------------------------------------
 BYTE   W48
 BYTE   VOICE   18
 BYTE   W48
// 037   ----------------------------------------
 BYTE   W23
 BYTE   EOT
 BYTE   W01
 BYTE   N15  Bn4  v056
 BYTE   W24
 BYTE   PAN   c_v-12
 BYTE   TIE  An4  v112
 BYTE   W48
// 038   ----------------------------------------
 BYTE   W92
 BYTE   W03
 BYTE   EOT
 BYTE   W01
// 039   ----------------------------------------
 BYTE   N13  An4  v056
 BYTE   W16
 BYTE   N03  An4  v112
 BYTE   W04
 BYTE   N13  An4  v056
 BYTE   W20
 BYTE   TIE  Bn4  v112
 BYTE   W56
// 040   ----------------------------------------
 BYTE   W96
// 041   ----------------------------------------
 BYTE   W23
 BYTE   EOT
 BYTE   W01
 BYTE   N15  Bn4  v056
 BYTE   W24
 BYTE   TIE  An4  v112
 BYTE   W48
// 042   ----------------------------------------
 BYTE   W92
 BYTE   W03
 BYTE   EOT
 BYTE   W01
// 043   ----------------------------------------
 BYTE   N11  An4  v056
 BYTE   W16
 BYTE   N03  An4  v112
 BYTE   W04
 BYTE   N15  An4  v056
 BYTE   W20
 BYTE   TIE  Bn4  v112
 BYTE   W56
// 044   ----------------------------------------
 BYTE   W96
// 045   ----------------------------------------
 BYTE   W23
 BYTE   EOT
 BYTE   W01
 BYTE   N11  Bn4  v056
 BYTE   W24
 BYTE   TIE  An4  v112
 BYTE   W48
// 046   ----------------------------------------
 BYTE   W92
 BYTE   W03
 BYTE   EOT
 BYTE   W01
// 047   ----------------------------------------
 BYTE   N11  An4  v056
 BYTE   W16
 BYTE   N03  An4  v112
 BYTE   W04
 BYTE   N13  An4  v056
 BYTE   W22
 BYTE   N52  Gn4  v112
 BYTE   W54
// 048   ----------------------------------------
 BYTE   N44  En4
 BYTE   W36
 BYTE   W03
 BYTE   GoTo
  POIN2 Label_0_0100005B
// 049   ----------------------------------------
 BYTE   W08
 BYTE   FINE

//**************** Track 2 (Midi-Chn.1) ****************//

PokemonDPPtRoute203NightThegis_002:
// 000   ----------------------------------------
 BYTE   KEYSH   PokemonDPPtRoute203NightThegis_key+0
 BYTE   VOICE   18
 BYTE   MOD 0
 BYTE   CnM2
 BYTE   VOL   45*PokemonDPPtRoute203NightThegis_mvl/mxv
 BYTE   PAN   c_v-32
 BYTE   VOL   57*PokemonDPPtRoute203NightThegis_mvl/mxv
 BYTE   BEND   c_v+0
 BYTE   N01  Gn3  v092
 BYTE   W02
 BYTE   Fs3
 BYTE   W02
 BYTE   En3  v084
 BYTE   W02
 BYTE   Dn3
 BYTE   W02
 BYTE   Cs3  v080
 BYTE   W02
 BYTE   Bn2  v076
 BYTE   W02
 BYTE   An2
 BYTE   W02
 BYTE   Gn2
 BYTE   W04
 BYTE   En2
 BYTE   W02
 BYTE   Dn2  v072
 BYTE   W02
 BYTE   Cs2
 BYTE   W02
 BYTE   Dn2
 BYTE   W02
 BYTE   En2  v076
 BYTE   W02
 BYTE   Fs2
 BYTE   W02
 BYTE   Gn2
 BYTE   W02
 BYTE   An2  v080
 BYTE   W02
 BYTE   Bn2
 BYTE   W02
 BYTE   Cs3  v084
 BYTE   W02
 BYTE   Dn3  v088
 BYTE   W02
 BYTE   En3  v092
 BYTE   W02
 BYTE   Fs3  v096
 BYTE   W02
 BYTE   Gn3  v112
 BYTE   W02
 BYTE   An3
 BYTE   W02
 BYTE   VOL   40*PokemonDPPtRoute203NightThegis_mvl/mxv
 BYTE   TIE  Cn4
 BYTE   W48
// 001   ----------------------------------------
 BYTE   W92
 BYTE   W03
 BYTE   EOT
 BYTE   W01
// 002   ----------------------------------------
 BYTE   N11  Cn4  v044
 BYTE   W16
 BYTE   N03  Cn4  v112
 BYTE   W04
 BYTE   N19  Cn4  v040
 BYTE   W20
 BYTE   TIE  Bn3  v112
 BYTE   W56
// 003   ----------------------------------------
 BYTE   W96
// 004   ----------------------------------------
 BYTE   W23
 BYTE   EOT
 BYTE   W01
 BYTE   N15  Bn3  v056
 BYTE   W24
 BYTE   VOICE   18
 BYTE   VOL   35*PokemonDPPtRoute203NightThegis_mvl/mxv
 BYTE   PAN   c_v-23
 BYTE   TIE  Cn4  v112
 BYTE   W48
// 005   ----------------------------------------
 BYTE   W92
 BYTE   W03
 BYTE   EOT
 BYTE   W01
// 006   ----------------------------------------
 BYTE   N11  Cn4  v056
 BYTE   W16
 BYTE   N03  Cn4  v112
 BYTE   W04
 BYTE   N13  Cn4  v056
 BYTE   W20
 BYTE   N54  Bn3  v112
 BYTE   W56
// 007   ----------------------------------------
Label_1_01000418:
 BYTE   N44  Gn3  v112
 BYTE   W36
 BYTE   W03
 BYTE   PEND 
Label_1_0100041E:
 BYTE   W09
 BYTE   N07  Fs3  v112
 BYTE   W08
 BYTE   En3
 BYTE   W16
 BYTE   N23  Fs3
 BYTE   W24
// 008   ----------------------------------------
 BYTE   VOICE   1
 BYTE   N07
 BYTE   W48
 BYTE   VOICE   1
 BYTE   VOL   45*PokemonDPPtRoute203NightThegis_mvl/mxv
 BYTE   PAN   c_v-11
 BYTE   W06
 BYTE   N68  Ds3
 BYTE   W42
// 009   ----------------------------------------
 BYTE   W54
 BYTE   N40  Fs3
 BYTE   W42
// 010   ----------------------------------------
 BYTE   W02
 BYTE   N21  Ds3
 BYTE   W24
 BYTE   W02
 BYTE   Cs3
 BYTE   W24
 BYTE   N42  Gn3
 BYTE   W44
// 011   ----------------------------------------
 BYTE   W02
 BYTE   N11  Ds3
 BYTE   W14
 BYTE   N15
 BYTE   W16
 BYTE   N15
 BYTE   W24
 BYTE   N07
 BYTE   W40
// 012   ----------------------------------------
 BYTE   W08
 BYTE   Gs2
 BYTE   W20
 BYTE   N19  As2
 BYTE   W20
 BYTE   PAN   c_v+43
 BYTE   W48
// 013   ----------------------------------------
 BYTE   W96
// 014   ----------------------------------------
 BYTE   W96
// 015   ----------------------------------------
 BYTE   W96
// 016   ----------------------------------------
 BYTE   En3
 BYTE   W48
 BYTE   VOICE   15
 BYTE   VOL   37*PokemonDPPtRoute203NightThegis_mvl/mxv
 BYTE   PAN   c_v+54
 BYTE   N07  Ds3
 BYTE   W08
 BYTE   Gs2
 BYTE   W08
 BYTE   Gs2  v052
 BYTE   W08
 BYTE   Cs3  v112
 BYTE   W08
 BYTE   Cs3  v052
 BYTE   W08
 BYTE   Bn2  v112
 BYTE   W08
// 017   ----------------------------------------
 BYTE   As2
 BYTE   W08
 BYTE   N15  As2  v052
 BYTE   W32
 BYTE   N07  Bn2  v112
 BYTE   W08
 BYTE   Cs3
 BYTE   W08
 BYTE   Fs2
 BYTE   W08
 BYTE   Fs2  v052
 BYTE   W08
 BYTE   As2  v112
 BYTE   W08
 BYTE   N15  As2  v052
 BYTE   W08
 BYTE   N07  Cs3  v112
 BYTE   W08
// 018   ----------------------------------------
 BYTE   Cn3
 BYTE   W08
 BYTE   N30  Cn3  v052
 BYTE   W32
 BYTE   N07  An2  v112
 BYTE   W08
 BYTE   Bn2
 BYTE   W08
 BYTE   En2
 BYTE   W08
 BYTE   En2  v052
 BYTE   W08
 BYTE   As2  v112
 BYTE   W08
 BYTE   As2  v052
 BYTE   W08
 BYTE   Bn2  v112
 BYTE   W08
// 019   ----------------------------------------
 BYTE   As2
 BYTE   W08
 BYTE   En3
 BYTE   W08
 BYTE   En3  v052
 BYTE   W08
 BYTE   Fs3  v112
 BYTE   W08
 BYTE   Fs3  v052
 BYTE   W08
 BYTE   Cs3  v112
 BYTE   W08
 BYTE   As2
 BYTE   W08
 BYTE   N30  As2  v052
 BYTE   W32
 BYTE   N07  As2  v112
 BYTE   W08
// 020   ----------------------------------------
 BYTE   N15  As2  v052
 BYTE   W16
 BYTE   N07  Cn3  v112
 BYTE   W08
 BYTE   Cn3  v052
 BYTE   W08
 BYTE   Fs3  v112
 BYTE   W08
 BYTE   Cn3
 BYTE   W08
 BYTE   Bn2
 BYTE   W08
 BYTE   N15  Bn2  v052
 BYTE   W16
 BYTE   N07  Bn2  v112
 BYTE   W08
 BYTE   N15  Bn2  v052
 BYTE   W16
// 021   ----------------------------------------
 BYTE   N07  Cs3  v112
 BYTE   W08
 BYTE   N15  Cs3  v052
 BYTE   W16
 BYTE   N07  Cs3  v112
 BYTE   W08
 BYTE   N15  Cs3  v052
 BYTE   W16
 BYTE   N07  Dn3  v112
 BYTE   W08
 BYTE   N15  Dn3  v052
 BYTE   W16
 BYTE   N07  Gn3  v112
 BYTE   W08
 BYTE   N15  Gn3  v052
 BYTE   W16
// 022   ----------------------------------------
 BYTE   N07  Dn3  v112
 BYTE   W08
 BYTE   Bn2
 BYTE   W08
 BYTE   Gn2
 BYTE   W08
 BYTE   Gn3
 BYTE   W08
 BYTE   N15  Gn3  v052
 BYTE   W16
 BYTE   N07  Cs3  v112
 BYTE   W08
 BYTE   N15  Cs3  v052
 BYTE   W16
 BYTE   N07  En3  v112
 BYTE   W08
 BYTE   N15  En3  v052
 BYTE   W16
// 023   ----------------------------------------
 BYTE   N07  Cs3  v112
 BYTE   W08
 BYTE   Bn2
 BYTE   W08
 BYTE   Fs2
 BYTE   W08
 BYTE   En3
 BYTE   W08
 BYTE   En3  v052
 BYTE   W08
 BYTE   Bn2  v112
 BYTE   W56
// 024   ----------------------------------------
 BYTE   W48
 BYTE   VOL   41*PokemonDPPtRoute203NightThegis_mvl/mxv
 BYTE   PAN   c_v+50
 BYTE   W24
 BYTE   N15  An3
 BYTE   W16
 BYTE   An3  v052
 BYTE   W08
// 025   ----------------------------------------
 BYTE   W24
 BYTE   An3  v112
 BYTE   W16
 BYTE   An3  v052
 BYTE   W32
 BYTE   Fs3  v112
 BYTE   W16
 BYTE   Fs3  v052
 BYTE   W08
// 026   ----------------------------------------
 BYTE   W08
 BYTE   Gn3  v112
 BYTE   W16
 BYTE   N07  Fs3
 BYTE   W16
 BYTE   En3
 BYTE   W08
 BYTE   Fs3  v052
 BYTE   W08
 BYTE   Gn3  v112
 BYTE   W08
 BYTE   Gn3  v052
 BYTE   W08
 BYTE   N15  Gn3  v112
 BYTE   W16
 BYTE   N07  Gn3  v052
 BYTE   W08
// 027   ----------------------------------------
 BYTE   En3  v112
 BYTE   W08
 BYTE   Cs3
 BYTE   W08
 BYTE   Cs3  v052
 BYTE   W08
 BYTE   N15  Cs3  v112
 BYTE   W16
 BYTE   N13  Cs3  v052
 BYTE   W16
 BYTE   N07  As3  v112
 BYTE   W08
 BYTE   As3  v052
 BYTE   W08
 BYTE   N15  As3  v112
 BYTE   W16
 BYTE   N07  As3  v052
 BYTE   W08
// 028   ----------------------------------------
 BYTE   W08
 BYTE   Cn4  v112
 BYTE   W08
 BYTE   Cn4  v052
 BYTE   W08
 BYTE   N15  Cn4  v112
 BYTE   W16
 BYTE   N07  As3
 BYTE   W08
 BYTE   N15  As3  v052
 BYTE   W16
 BYTE   N07
 BYTE   W08
 BYTE   N15  Cn4  v112
 BYTE   W16
 BYTE   Cn4  v052
 BYTE   W08
// 029   ----------------------------------------
 BYTE   W24
 BYTE   Cn4  v112
 BYTE   W16
 BYTE   Cn4  v052
 BYTE   W32
 BYTE   An3  v112
 BYTE   W16
 BYTE   An3  v052
 BYTE   W08
// 030   ----------------------------------------
 BYTE   W08
 BYTE   As3  v112
 BYTE   W16
 BYTE   An3
 BYTE   W16
 BYTE   N07  Fn3
 BYTE   W08
 BYTE   Fn3  v052
 BYTE   W08
 BYTE   As3  v112
 BYTE   W08
 BYTE   As3  v052
 BYTE   W08
 BYTE   N15  As3  v112
 BYTE   W16
 BYTE   N07  As3  v052
 BYTE   W08
// 031   ----------------------------------------
 BYTE   Gn3  v112
 BYTE   W08
 BYTE   En3
 BYTE   W08
 BYTE   Cn3
 BYTE   W08
 BYTE   N15  En3
 BYTE   W16
 BYTE   N07  En3  v052
 BYTE   W16
 BYTE   As3  v112
 BYTE   W08
 BYTE   As3  v052
 BYTE   W08
 BYTE   N15  As3  v112
 BYTE   W16
 BYTE   N07  As3  v052
 BYTE   W08
// 032   ----------------------------------------
 BYTE   Gn3  v112
 BYTE   W08
 BYTE   En3
 BYTE   W08
 BYTE   Cn3
 BYTE   W08
 BYTE   N15  En3
 BYTE   W16
 BYTE   N07  En3  v052
 BYTE   W16
 BYTE   Gs3  v112
 BYTE   W08
 BYTE   Gs3  v052
 BYTE   W08
 BYTE   N15  Gs3  v112
 BYTE   W16
 BYTE   Gs3  v052
 BYTE   W08
// 033   ----------------------------------------
 BYTE   W08
 BYTE   N07  As3  v112
 BYTE   W08
 BYTE   As3  v052
 BYTE   W08
 BYTE   VOICE   18
 BYTE   VOL   56*PokemonDPPtRoute203NightThegis_mvl/mxv
 BYTE   N01  Dn2  v072
 BYTE   W02
 BYTE   En2  v076
 BYTE   W02
 BYTE   Fs2
 BYTE   W02
 BYTE   Gn2
 BYTE   W02
 BYTE   An2  v080
 BYTE   W02
 BYTE   Bn2
 BYTE   W02
 BYTE   Cs3  v084
 BYTE   W02
 BYTE   Dn3  v088
 BYTE   W02
 BYTE   En3  v092
 BYTE   W02
 BYTE   Fs3  v096
 BYTE   W02
 BYTE   Gn3  v112
 BYTE   W02
 BYTE   An3
 BYTE   W02
 BYTE   VOL   40*PokemonDPPtRoute203NightThegis_mvl/mxv
 BYTE   PAN   c_v-48
 BYTE   TIE  Cn4
 BYTE   W48
// 034   ----------------------------------------
 BYTE   W92
 BYTE   W03
 BYTE   EOT
 BYTE   W01
// 035   ----------------------------------------
 BYTE   N11  Cn4  v056
 BYTE   W16
 BYTE   N03  Cn4  v112
 BYTE   W04
 BYTE   N11  Cn4  v056
 BYTE   W20
 BYTE   TIE  Bn3  v112
 BYTE   W56
// 036   ----------------------------------------
 BYTE   W96
// 037   ----------------------------------------
 BYTE   W23
 BYTE   EOT
 BYTE   W01
 BYTE   N15  Bn3  v056
 BYTE   W24
 BYTE   TIE  Cn4  v112
 BYTE   W48
// 038   ----------------------------------------
 BYTE   W92
 BYTE   W03
 BYTE   EOT
 BYTE   W01
// 039   ----------------------------------------
 BYTE   N13  Cn4  v056
 BYTE   W16
 BYTE   N03  Cn4  v112
 BYTE   W04
 BYTE   N13  Cn4  v056
 BYTE   W20
 BYTE   TIE  Bn3  v112
 BYTE   W56
// 040   ----------------------------------------
 BYTE   W96
// 041   ----------------------------------------
 BYTE   W23
 BYTE   EOT
 BYTE   W01
 BYTE   N15  Bn3  v056
 BYTE   W24
 BYTE   TIE  Cn4  v112
 BYTE   W48
// 042   ----------------------------------------
 BYTE   W92
 BYTE   W03
 BYTE   EOT
 BYTE   W01
// 043   ----------------------------------------
 BYTE   N11  Cn4  v056
 BYTE   W16
 BYTE   N03  Cn4  v112
 BYTE   W04
 BYTE   N15  Cn4  v056
 BYTE   W20
 BYTE   TIE  Bn3  v112
 BYTE   W56
// 044   ----------------------------------------
 BYTE   W96
// 045   ----------------------------------------
 BYTE   W23
 BYTE   EOT
 BYTE   W01
 BYTE   N11  Bn3  v056
 BYTE   W24
 BYTE   VOICE   18
 BYTE   VOL   35*PokemonDPPtRoute203NightThegis_mvl/mxv
 BYTE   PAN   c_v-23
 BYTE   TIE  Cn4  v112
 BYTE   W48
// 046   ----------------------------------------
 BYTE   W92
 BYTE   W03
 BYTE   EOT
 BYTE   W01
// 047   ----------------------------------------
 BYTE   N09  Cn4  v056
 BYTE   W16
 BYTE   N03  Cn4  v112
 BYTE   W04
 BYTE   N13  Cn4  v056
 BYTE   W20
 BYTE   N54  Bn3  v112
 BYTE   W56
// 048   ----------------------------------------
 BYTE   PATT
  POIN2 Label_1_01000418
// 049   ----------------------------------------
 BYTE   GoTo
  POIN2 Label_1_0100041E
// 050   ----------------------------------------
 BYTE   W08
 BYTE   FINE

//**************** Track 3 (Midi-Chn.2) ****************//

PokemonDPPtRoute203NightThegis_003:
// 000   ----------------------------------------
 BYTE   KEYSH   PokemonDPPtRoute203NightThegis_key+0
 BYTE   VOICE   18
 BYTE   MOD 0
 BYTE   CnM2
 BYTE   PAN   c_v+16
 BYTE   VOL   55*PokemonDPPtRoute203NightThegis_mvl/mxv
 BYTE   BEND   c_v+0
 BYTE   N01  Cn4  v092
 BYTE   W02
 BYTE   Bn3
 BYTE   W02
 BYTE   An3  v084
 BYTE   W02
 BYTE   Gn3
 BYTE   W02
 BYTE   Fs3  v080
 BYTE   W02
 BYTE   En3  v076
 BYTE   W02
 BYTE   Dn3
 BYTE   W02
 BYTE   Cn3
 BYTE   W02
 BYTE   Bn2
 BYTE   W02
 BYTE   An2
 BYTE   W02
 BYTE   Gn2  v072
 BYTE   W02
 BYTE   Fs2
 BYTE   W02
 BYTE   Gn2
 BYTE   W02
 BYTE   An2  v076
 BYTE   W02
 BYTE   Bn2
 BYTE   W02
 BYTE   Cn3
 BYTE   W02
 BYTE   Dn3  v080
 BYTE   W02
 BYTE   En3
 BYTE   W02
 BYTE   Fs3  v084
 BYTE   W02
 BYTE   Gn3  v088
 BYTE   W02
 BYTE   An3  v092
 BYTE   W02
 BYTE   Bn3  v096
 BYTE   W02
 BYTE   Cn4  v100
 BYTE   W02
 BYTE   Dn4
 BYTE   W02
 BYTE   VOL   44*PokemonDPPtRoute203NightThegis_mvl/mxv
 BYTE   TIE  En4  v112
 BYTE   W48
// 001   ----------------------------------------
 BYTE   W92
 BYTE   W03
 BYTE   EOT
 BYTE   W01
// 002   ----------------------------------------
 BYTE   N11  En4  v044
 BYTE   W16
 BYTE   N03  En4  v112
 BYTE   W04
 BYTE   N19  En4  v040
 BYTE   W20
 BYTE   TIE  Dn4  v112
 BYTE   W56
// 003   ----------------------------------------
 BYTE   W96
// 004   ----------------------------------------
 BYTE   W23
 BYTE   EOT
 BYTE   W01
 BYTE   N15  Dn4  v060
 BYTE   W24
 BYTE   VOICE   18
 BYTE   PAN   c_v+21
 BYTE   TIE  En4  v112
 BYTE   W48
// 005   ----------------------------------------
 BYTE   W92
 BYTE   W03
 BYTE   EOT
 BYTE   W01
// 006   ----------------------------------------
 BYTE   N11  En4  v060
 BYTE   W16
 BYTE   N03  En4  v112
 BYTE   W04
 BYTE   N13  En4  v060
 BYTE   W20
 BYTE   N54  Dn4  v112
 BYTE   W56
// 007   ----------------------------------------
Label_2_0100073B:
 BYTE   N44  Bn3  v112
 BYTE   W36
 BYTE   W03
 BYTE   PEND 
Label_2_01000741:
 BYTE   W09
 BYTE   VOL   42*PokemonDPPtRoute203NightThegis_mvl/mxv
 BYTE   N07  Cs4  v112
 BYTE   W08
 BYTE   Bn3
 BYTE   W08
 BYTE   Bn3  v060
 BYTE   W08
 BYTE   N23  Cs4  v112
 BYTE   W24
// 008   ----------------------------------------
 BYTE   VOICE   48
 BYTE   PAN   c_v+59
 BYTE   VOL   35*PokemonDPPtRoute203NightThegis_mvl/mxv
 BYTE   N03  Cs5
 BYTE   W04
 BYTE   As4
 BYTE   W04
 BYTE   Gs4
 BYTE   W04
 BYTE   Fs4
 BYTE   W04
 BYTE   Cs4
 BYTE   W04
 BYTE   As3
 BYTE   W04
 BYTE   PAN   c_v-54
 BYTE   N03  Fs4
 BYTE   W04
 BYTE   En4
 BYTE   W04
 BYTE   Cs4
 BYTE   W04
 BYTE   As3
 BYTE   W04
 BYTE   Fs3
 BYTE   W04
 BYTE   Cs3
 BYTE   W04
 BYTE   VOICE   1
 BYTE   VOL   60*PokemonDPPtRoute203NightThegis_mvl/mxv
 BYTE   PAN   c_v+0
 BYTE   N68  En1  v127
 BYTE   W48
// 009   ----------------------------------------
 BYTE   W48
 BYTE   N44
 BYTE   W48
// 010   ----------------------------------------
 BYTE   N23  Gn1  v112
 BYTE   W24
 BYTE   N19  As1
 BYTE   W24
 BYTE   N44  Ds1
 BYTE   W48
// 011   ----------------------------------------
 BYTE   VOICE   1
 BYTE   N44  As1  v127
 BYTE   W48
 BYTE   VOICE   1
 BYTE   N07  Gs1
 BYTE   W08
 BYTE   Ds1
 BYTE   W16
 BYTE   Gs1
 BYTE   W16
 BYTE   Gs0
 BYTE   W08
// 012   ----------------------------------------
 BYTE   N23  Gs1
 BYTE   W24
 BYTE   Fs1  v112
 BYTE   W24
 BYTE   VOICE   39
 BYTE   VOL   49*PokemonDPPtRoute203NightThegis_mvl/mxv
 BYTE   N07  En0  v127
 BYTE   W08
 BYTE   N23  En0  v056
 BYTE   W24
 BYTE   N07  Bn0  v112
 BYTE   W08
 BYTE   Bn0  v056
 BYTE   W08
// 013   ----------------------------------------
 BYTE   Bn0  v112
 BYTE   W08
 BYTE   En1
 BYTE   W08
 BYTE   En1  v056
 BYTE   W08
 BYTE   N15  En1  v112
 BYTE   W16
 BYTE   N07  Fn1
 BYTE   W08
 BYTE   Fs1
 BYTE   W08
 BYTE   Fn1
 BYTE   W08
 BYTE   Fs1
 BYTE   W08
 BYTE   Fs1  v056
 BYTE   W08
 BYTE   Cs1  v112
 BYTE   W08
 BYTE   Cs1  v056
 BYTE   W08
// 014   ----------------------------------------
 BYTE   N15  As0  v112
 BYTE   W16
 BYTE   N07  As0  v056
 BYTE   W08
 BYTE   N15  Fs1  v112
 BYTE   W16
 BYTE   N07  Gn1
 BYTE   W08
 BYTE   Gs1
 BYTE   W08
 BYTE   N15  Gs0
 BYTE   W16
 BYTE   N44  Gs0  v056
 BYTE   W24
// 015   ----------------------------------------
 BYTE   W48
 BYTE   VOICE   39
 BYTE   N07  Gs1  v127
 BYTE   W08
 BYTE   Gs1  v052
 BYTE   W08
 BYTE   Gs1  v127
 BYTE   W16
 BYTE   Gs0
 BYTE   W08
 BYTE   Gs0  v052
 BYTE   W08
// 016   ----------------------------------------
 BYTE   Fs1  v127
 BYTE   W08
 BYTE   Fs1  v052
 BYTE   W08
 BYTE   Fs1  v127
 BYTE   W08
 BYTE   Cn1
 BYTE   W08
 BYTE   Ds1
 BYTE   W08
 BYTE   Gs1
 BYTE   W08
 BYTE   VOICE   39
 BYTE   N07  Bn1
 BYTE   W16
 BYTE   Bn0
 BYTE   W08
 BYTE   En1
 BYTE   W08
 BYTE   En1  v052
 BYTE   W08
 BYTE   Bn0  v127
 BYTE   W08
// 017   ----------------------------------------
 BYTE   En1
 BYTE   W16
 BYTE   As1
 BYTE   W08
 BYTE   N15  As1  v052
 BYTE   W16
 BYTE   N07  Cs1  v127
 BYTE   W08
 BYTE   Fs1
 BYTE   W08
 BYTE   N30  Fs1  v052
 BYTE   W32
 BYTE   N07  Cs1  v127
 BYTE   W08
// 018   ----------------------------------------
 BYTE   Ds1
 BYTE   W08
 BYTE   Ds1  v052
 BYTE   W08
 BYTE   Gs1  v127
 BYTE   W08
 BYTE   N15  Gs1  v052
 BYTE   W16
 BYTE   N07  Ds1  v127
 BYTE   W08
 BYTE   Cs1
 BYTE   W08
 BYTE   Cs1  v052
 BYTE   W08
 BYTE   Cs1  v127
 BYTE   W08
 BYTE   N23  Cs1  v052
 BYTE   W24
// 019   ----------------------------------------
 BYTE   N07  Cs1  v127
 BYTE   W08
 BYTE   En1  v112
 BYTE   W08
 BYTE   Gs1  v127
 BYTE   W08
 BYTE   Gs1  v052
 BYTE   W08
 BYTE   Fs1  v127
 BYTE   W08
 BYTE   Cs1
 BYTE   W08
 BYTE   Bn0
 BYTE   W08
 BYTE   Bn0  v052
 BYTE   W08
 BYTE   Bn0  v127
 BYTE   W08
 BYTE   N23  Bn0  v052
 BYTE   W24
// 020   ----------------------------------------
 BYTE   N07  Cn1  v127
 BYTE   W08
 BYTE   Cn1  v052
 BYTE   W08
 BYTE   Gs1  v127
 BYTE   W08
 BYTE   N23  Gs1  v052
 BYTE   W24
 BYTE   N07  Cs1  v127
 BYTE   W08
 BYTE   N15  Cs1  v052
 BYTE   W16
 BYTE   N07  Cs1  v127
 BYTE   W08
 BYTE   N15  Cs1  v052
 BYTE   W16
// 021   ----------------------------------------
 BYTE   N07  Ds1  v127
 BYTE   W08
 BYTE   N15  Ds1  v052
 BYTE   W16
 BYTE   N07  Ds1  v127
 BYTE   W08
 BYTE   N15  Ds1  v052
 BYTE   W16
 BYTE   N07  En1  v127
 BYTE   W08
 BYTE   N15  En1  v052
 BYTE   W16
 BYTE   N07  En1  v127
 BYTE   W08
 BYTE   N15  En1  v052
 BYTE   W16
// 022   ----------------------------------------
 BYTE   N07  En1  v127
 BYTE   W08
 BYTE   N15  En1  v052
 BYTE   W16
 BYTE   N07  En1  v127
 BYTE   W08
 BYTE   N15  En1  v052
 BYTE   W16
 BYTE   N07  Fs1  v127
 BYTE   W08
 BYTE   N15  Fs1  v052
 BYTE   W16
 BYTE   N07  Fs1  v127
 BYTE   W08
 BYTE   N15  Fs1  v052
 BYTE   W16
// 023   ----------------------------------------
 BYTE   N07  Fs1  v127
 BYTE   W08
 BYTE   N15  Fs1  v052
 BYTE   W16
 BYTE   N07  Fs1  v127
 BYTE   W08
 BYTE   N15  Fs1  v052
 BYTE   W16
 BYTE   VOICE   48
 BYTE   VOL   26*PokemonDPPtRoute203NightThegis_mvl/mxv
 BYTE   PAN   c_v+40
 BYTE   N30  Cs2  v112
 BYTE   W01
 BYTE   VOL   27*PokemonDPPtRoute203NightThegis_mvl/mxv
 BYTE   W03
 BYTE   Fs0
 BYTE   W04
 BYTE   As0
 BYTE   W01
 BYTE   Cs1
 BYTE   W03
 BYTE   Ds1
 BYTE   W01
 BYTE   Fs1
 BYTE   W03
 BYTE   Bn1
 BYTE   W01
 BYTE   Dn2
 BYTE   W03
 BYTE   Gn2
 BYTE   W12
 BYTE   N07  Cn2
 BYTE   W10
 BYTE   Cs2
 BYTE   W06
// 024   ----------------------------------------
 BYTE   N23  En2
 BYTE   W24
 BYTE   An1
 BYTE   W24
 BYTE   PAN   c_v+0
 BYTE   VOL   50*PokemonDPPtRoute203NightThegis_mvl/mxv
 BYTE   W48
// 025   ----------------------------------------
 BYTE   W96
// 026   ----------------------------------------
 BYTE   W96
// 027   ----------------------------------------
 BYTE   W96
// 028   ----------------------------------------
 BYTE   W96
// 029   ----------------------------------------
 BYTE   W96
// 030   ----------------------------------------
 BYTE   W96
// 031   ----------------------------------------
 BYTE   W96
// 032   ----------------------------------------
 BYTE   W96
// 033   ----------------------------------------
 BYTE   Fs2
 BYTE   W24
 BYTE   VOICE   18
 BYTE   N01  Gn2  v072
 BYTE   W02
 BYTE   An2  v076
 BYTE   W02
 BYTE   Bn2
 BYTE   W02
 BYTE   Cn3
 BYTE   W02
 BYTE   Dn3  v080
 BYTE   W02
 BYTE   En3
 BYTE   W02
 BYTE   Fs3  v084
 BYTE   W02
 BYTE   Gn3  v088
 BYTE   W02
 BYTE   An3  v092
 BYTE   W02
 BYTE   Bn3  v096
 BYTE   W02
 BYTE   Cn4  v100
 BYTE   W02
 BYTE   Dn4
 BYTE   W02
 BYTE   VOL   44*PokemonDPPtRoute203NightThegis_mvl/mxv
 BYTE   PAN   c_v+32
 BYTE   TIE  Fn3  v112
 BYTE   W48
// 034   ----------------------------------------
 BYTE   W92
 BYTE   W03
 BYTE   EOT
 BYTE   W01
// 035   ----------------------------------------
 BYTE   N11  Fn3  v056
 BYTE   W16
 BYTE   N03  Fn3  v112
 BYTE   W04
 BYTE   N11  Fn3  v056
 BYTE   W20
 BYTE   TIE  Dn3  v112
 BYTE   W56
// 036   ----------------------------------------
 BYTE   W96
// 037   ----------------------------------------
 BYTE   W23
 BYTE   EOT
 BYTE   W01
 BYTE   N15  Dn3  v056
 BYTE   W24
 BYTE   TIE  En4  v112
 BYTE   W48
// 038   ----------------------------------------
 BYTE   W92
 BYTE   W03
 BYTE   EOT
 BYTE   W01
// 039   ----------------------------------------
 BYTE   N13  En4  v056
 BYTE   W16
 BYTE   N03  En4  v112
 BYTE   W04
 BYTE   N13  En4  v056
 BYTE   W20
 BYTE   TIE  Dn4  v096
 BYTE   W56
// 040   ----------------------------------------
 BYTE   W96
// 041   ----------------------------------------
 BYTE   W23
 BYTE   EOT
 BYTE   W01
 BYTE   N15  Dn4  v056
 BYTE   W24
 BYTE   TIE  En4  v112
 BYTE   W48
// 042   ----------------------------------------
 BYTE   W92
 BYTE   W03
 BYTE   EOT
 BYTE   W01
// 043   ----------------------------------------
 BYTE   N11  En4  v056
 BYTE   W16
 BYTE   N03  En4  v112
 BYTE   W04
 BYTE   N15  En4  v056
 BYTE   W20
 BYTE   TIE  Dn4  v104
 BYTE   W56
// 044   ----------------------------------------
 BYTE   W96
// 045   ----------------------------------------
 BYTE   W23
 BYTE   EOT
 BYTE   W01
 BYTE   N09  Dn4  v056
 BYTE   W24
 BYTE   VOICE   18
 BYTE   PAN   c_v+21
 BYTE   TIE  En4  v112
 BYTE   W48
// 046   ----------------------------------------
 BYTE   W92
 BYTE   W03
 BYTE   EOT
 BYTE   W01
// 047   ----------------------------------------
 BYTE   N09  En4  v056
 BYTE   W16
 BYTE   N03  En4  v112
 BYTE   W04
 BYTE   N13  En4  v056
 BYTE   W20
 BYTE   N54  Dn4  v112
 BYTE   W56
// 048   ----------------------------------------
 BYTE   PATT
  POIN2 Label_2_0100073B
// 049   ----------------------------------------
 BYTE   GoTo
  POIN2 Label_2_01000741
// 050   ----------------------------------------
 BYTE   W08
 BYTE   FINE

//**************** Track 4 (Midi-Chn.3) ****************//

PokemonDPPtRoute203NightThegis_004:
// 000   ----------------------------------------
 BYTE   KEYSH   PokemonDPPtRoute203NightThegis_key+0
 BYTE   VOICE   18
 BYTE   MOD 0
 BYTE   CnM2
 BYTE   PAN   c_v-48
 BYTE   VOL   45*PokemonDPPtRoute203NightThegis_mvl/mxv
 BYTE   BEND   c_v+0
 BYTE   W06
 BYTE   PAN   c_v-54
 BYTE   W90
// 001   ----------------------------------------
 BYTE   W96
// 002   ----------------------------------------
 BYTE   W96
// 003   ----------------------------------------
 BYTE   W48
 BYTE   VOICE   18
 BYTE   W48
// 004   ----------------------------------------
 BYTE   VOL   41*PokemonDPPtRoute203NightThegis_mvl/mxv
 BYTE   N01  Gn3  v092
 BYTE   W02
 BYTE   Fs3
 BYTE   W02
 BYTE   En3  v084
 BYTE   W02
 BYTE   Dn3
 BYTE   W02
 BYTE   Cs3  v080
 BYTE   W02
 BYTE   Bn2  v076
 BYTE   W02
 BYTE   An2
 BYTE   W02
 BYTE   Gn2
 BYTE   W02
 BYTE   Fs2
 BYTE   W02
 BYTE   En2
 BYTE   W02
 BYTE   Dn2  v072
 BYTE   W02
 BYTE   Cs2
 BYTE   W02
 BYTE   Dn2
 BYTE   W02
 BYTE   En2  v076
 BYTE   W02
 BYTE   Fs2
 BYTE   W02
 BYTE   Gn2
 BYTE   W02
 BYTE   An2  v080
 BYTE   W02
 BYTE   Bn2
 BYTE   W02
 BYTE   Cs3  v084
 BYTE   W02
 BYTE   Dn3  v088
 BYTE   W02
 BYTE   En3  v092
 BYTE   W02
 BYTE   Fs3  v096
 BYTE   W02
 BYTE   VOICE   24
 BYTE   VOL   49*PokemonDPPtRoute203NightThegis_mvl/mxv
 BYTE   N01  Dn2  v084
 BYTE   W02
 BYTE   An2
 BYTE   W02
 BYTE   PAN   c_v-52
 BYTE   VOL   45*PokemonDPPtRoute203NightThegis_mvl/mxv
 BYTE   N09  Cn3  v112
 BYTE   W12
 BYTE   N01  Cn3  v108
 BYTE   W04
 BYTE   Cn3  v096
 BYTE   W04
 BYTE   N01
 BYTE   W04
 BYTE   N07  Cn3  v120
 BYTE   W08
 BYTE   N01  Cn3  v096
 BYTE   W08
 BYTE   N01
 BYTE   W06
 BYTE   Cn3  v092
 BYTE   W02
// 005   ----------------------------------------
Label_3_01000A38:
 BYTE   W08
 BYTE   N01  Cn3  v096
 BYTE   W08
 BYTE   N06  Cn3  v120
 BYTE   W08
 BYTE   N01  Cn3  v096
 BYTE   W08
 BYTE   N06  Bn2
 BYTE   W08
 BYTE   N04  Cn3  v120
 BYTE   W04
 BYTE   N01  Fn2  v084
 BYTE   W02
 BYTE   An2
 BYTE   W02
 BYTE   N09  Cn3  v112
 BYTE   W12
 BYTE   N01  Cn3  v108
 BYTE   W04
 BYTE   Cn3  v096
 BYTE   W04
 BYTE   N01
 BYTE   W04
 BYTE   N03  Cn3  v120
 BYTE   W08
 BYTE   N01  Cn3  v096
 BYTE   W08
 BYTE   N01
 BYTE   W06
 BYTE   Cn3  v092
 BYTE   W02
 BYTE   PEND 
// 006   ----------------------------------------
Label_3_01000A6D:
 BYTE   W08
 BYTE   N01  Cn3  v096
 BYTE   W08
 BYTE   N04  Cn3  v120
 BYTE   W08
 BYTE   N01  Cn3  v096
 BYTE   W08
 BYTE   N08  Dn3  v120
 BYTE   W08
 BYTE   N04  Cn3  v096
 BYTE   W04
 BYTE   N01  Cn2  v084
 BYTE   W02
 BYTE   En2
 BYTE   W02
 BYTE   N09  Gn2  v112
 BYTE   W12
 BYTE   N01  Gn2  v108
 BYTE   W04
 BYTE   Gn2  v096
 BYTE   W04
 BYTE   N01
 BYTE   W04
 BYTE   N03  Gn2  v120
 BYTE   W08
 BYTE   N01  Gn2  v096
 BYTE   W08
 BYTE   N01
 BYTE   W06
 BYTE   Gn2  v092
 BYTE   W02
 BYTE   PEND 
// 007   ----------------------------------------
Label_3_01000AA3:
 BYTE   W08
 BYTE   N01  Gn2  v096
 BYTE   W08
 BYTE   N04  Gn2  v120
 BYTE   W08
 BYTE   N02  Gn2  v096
 BYTE   W08
 BYTE   N06  An2  v120
 BYTE   W07
 BYTE   PEND 
Label_3_01000AB5:
 BYTE   W01
 BYTE   N01  Gn2  v112
 BYTE   W08
 BYTE   N07  Fs2
 BYTE   W08
 BYTE   En2
 BYTE   W16
 BYTE   N23  Fs2
 BYTE   W24
// 008   ----------------------------------------
 BYTE   VOICE   1
 BYTE   VOL   30*PokemonDPPtRoute203NightThegis_mvl/mxv
 BYTE   PAN   c_v-42
 BYTE   N07  Bn2  v092
 BYTE   W08
 BYTE   Cs3
 BYTE   W08
 BYTE   Ds3
 BYTE   W08
 BYTE   N07
 BYTE   W08
 BYTE   Cs3
 BYTE   W08
 BYTE   Bn2  v096
 BYTE   W08
 BYTE   VOICE   1
 BYTE   PAN   c_v-20
 BYTE   VOL   45*PokemonDPPtRoute203NightThegis_mvl/mxv
 BYTE   W02
 BYTE   PAN   c_v-34
 BYTE   N68  Gs2  v112
 BYTE   W44
 BYTE   W02
// 009   ----------------------------------------
 BYTE   W48
 BYTE   W02
 BYTE   N44  As2
 BYTE   W44
 BYTE   W02
// 010   ----------------------------------------
 BYTE   N21  Cs3
 BYTE   W24
 BYTE   W02
 BYTE   N19  Gn2
 BYTE   W24
 BYTE   N44  As2
 BYTE   W44
 BYTE   W02
// 011   ----------------------------------------
 BYTE   W02
 BYTE   Gn2
 BYTE   W54
 BYTE   N07  Gs2
 BYTE   W16
 BYTE   N07
 BYTE   W24
// 012   ----------------------------------------
 BYTE   W08
 BYTE   Ds3
 BYTE   W20
 BYTE   N13  Cs2
 BYTE   W14
 BYTE   VOICE   18
 BYTE   N01  Gs2
 BYTE   W02
 BYTE   Bn2
 BYTE   W02
 BYTE   Cs3
 BYTE   W02
 BYTE   VOICE   18
 BYTE   PAN   c_v-42
 BYTE   VOL   41*PokemonDPPtRoute203NightThegis_mvl/mxv
 BYTE   N13  En3
 BYTE   W16
 BYTE   N01
 BYTE   W04
 BYTE   N01
 BYTE   W04
 BYTE   N07
 BYTE   W08
 BYTE   N03  Ds3
 BYTE   W04
 BYTE   Ds3  v056
 BYTE   W04
 BYTE   N07  En3  v112
 BYTE   W08
// 013   ----------------------------------------
 BYTE   Gs3
 BYTE   W08
 BYTE   En3
 BYTE   W08
 BYTE   En3  v056
 BYTE   W08
 BYTE   N01  Ds3  v112
 BYTE   W02
 BYTE   N13  En3
 BYTE   W14
 BYTE   N07  Fn3
 BYTE   W08
 BYTE   Fs3
 BYTE   W08
 BYTE   Fs3  v056
 BYTE   W08
 BYTE   N01  Fs3  v112
 BYTE   W04
 BYTE   N01
 BYTE   W04
 BYTE   N07
 BYTE   W08
 BYTE   N03  Fn3
 BYTE   W04
 BYTE   Fn3  v056
 BYTE   W04
 BYTE   N07  Fs3  v112
 BYTE   W08
// 014   ----------------------------------------
 BYTE   As3
 BYTE   W08
 BYTE   Fs3
 BYTE   W08
 BYTE   Fs3  v056
 BYTE   W08
 BYTE   N01  Fn3  v112
 BYTE   W02
 BYTE   N13  Fs3
 BYTE   W14
 BYTE   N07  Gn3
 BYTE   W08
 BYTE   Gs3
 BYTE   W08
 BYTE   Gs3  v056
 BYTE   W08
 BYTE   N01  Gs3  v112
 BYTE   W04
 BYTE   N01
 BYTE   W04
 BYTE   N07
 BYTE   W08
 BYTE   N03  Gn3
 BYTE   W04
 BYTE   Gn3  v056
 BYTE   W04
 BYTE   N07  Gs3  v112
 BYTE   W08
// 015   ----------------------------------------
 BYTE   Cn4
 BYTE   W08
 BYTE   Gs3
 BYTE   W08
 BYTE   Gs3  v056
 BYTE   W08
 BYTE   N01  Gn3  v112
 BYTE   W02
 BYTE   N09  Gs3
 BYTE   W10
 BYTE   N11  Gs3  v056
 BYTE   W12
 BYTE   N07  Gs3  v112
 BYTE   W08
 BYTE   Gs3  v056
 BYTE   W08
 BYTE   N01  Gs3  v112
 BYTE   W04
 BYTE   N01
 BYTE   W04
 BYTE   N07
 BYTE   W08
 BYTE   N03  Gn3
 BYTE   W04
 BYTE   Gn3  v056
 BYTE   W04
 BYTE   N07  Fs3  v112
 BYTE   W08
// 016   ----------------------------------------
 BYTE   Cn4
 BYTE   W08
 BYTE   Fs3
 BYTE   W08
 BYTE   Ds3
 BYTE   W08
 BYTE   Fs3
 BYTE   W08
 BYTE   Cn4
 BYTE   W08
 BYTE   Ds4
 BYTE   W08
 BYTE   VOICE   15
 BYTE   PAN   c_v-32
 BYTE   VOL   36*PokemonDPPtRoute203NightThegis_mvl/mxv
 BYTE   N07  Gs2
 BYTE   W08
 BYTE   En2
 BYTE   W08
 BYTE   N23  En2  v056
 BYTE   W24
 BYTE   N07  En2  v112
 BYTE   W08
// 017   ----------------------------------------
 BYTE   Cs2
 BYTE   W08
 BYTE   Fs2
 BYTE   W08
 BYTE   N23  Fs2  v056
 BYTE   W24
 BYTE   N07  En2  v112
 BYTE   W08
 BYTE   Fs2
 BYTE   W08
 BYTE   As1
 BYTE   W08
 BYTE   Cs2
 BYTE   W08
 BYTE   N15  Cs2  v056
 BYTE   W16
 BYTE   N07  Gn2  v112
 BYTE   W08
// 018   ----------------------------------------
 BYTE   Fs2
 BYTE   W08
 BYTE   Ds2
 BYTE   W08
 BYTE   Ds2  v056
 BYTE   W08
 BYTE   Ds2  v112
 BYTE   W08
 BYTE   Ds2  v056
 BYTE   W08
 BYTE   Cn2  v112
 BYTE   W08
 BYTE   En2
 BYTE   W08
 BYTE   Cs2
 BYTE   W08
 BYTE   Cs2  v056
 BYTE   W08
 BYTE   Gs2  v112
 BYTE   W08
 BYTE   Gs2  v056
 BYTE   W08
 BYTE   En2  v112
 BYTE   W08
// 019   ----------------------------------------
 BYTE   N07
 BYTE   W08
 BYTE   Cs2
 BYTE   W08
 BYTE   Cs2  v056
 BYTE   W08
 BYTE   Cs2  v112
 BYTE   W08
 BYTE   Cs2  v056
 BYTE   W08
 BYTE   Fn2  v112
 BYTE   W08
 BYTE   Ds2
 BYTE   W08
 BYTE   Bn1
 BYTE   W08
 BYTE   Bn1  v056
 BYTE   W08
 BYTE   Bn1  v112
 BYTE   W08
 BYTE   Bn1  v056
 BYTE   W08
 BYTE   Ds2  v112
 BYTE   W08
// 020   ----------------------------------------
 BYTE   Fs2
 BYTE   W08
 BYTE   Cn2
 BYTE   W08
 BYTE   Cn2  v056
 BYTE   W08
 BYTE   Ds2  v112
 BYTE   W08
 BYTE   Ds2  v056
 BYTE   W08
 BYTE   Gs2  v112
 BYTE   W08
 BYTE   En2
 BYTE   W08
 BYTE   En2  v056
 BYTE   W08
 BYTE   Cs2  v112
 BYTE   W08
 BYTE   En2
 BYTE   W08
 BYTE   En2  v056
 BYTE   W08
 BYTE   Cs2  v112
 BYTE   W08
// 021   ----------------------------------------
 BYTE   Fs2
 BYTE   W08
 BYTE   Fs2  v056
 BYTE   W08
 BYTE   Ds2  v112
 BYTE   W08
 BYTE   Fs2
 BYTE   W08
 BYTE   Fs2  v056
 BYTE   W08
 BYTE   Ds2  v112
 BYTE   W08
 BYTE   Gn2
 BYTE   W08
 BYTE   Gn2  v056
 BYTE   W08
 BYTE   En2  v112
 BYTE   W08
 BYTE   Bn2
 BYTE   W08
 BYTE   Bn2  v056
 BYTE   W08
 BYTE   En2  v112
 BYTE   W08
// 022   ----------------------------------------
 BYTE   Gn2
 BYTE   W08
 BYTE   Gn2  v056
 BYTE   W08
 BYTE   En2  v112
 BYTE   W08
 BYTE   Bn2
 BYTE   W08
 BYTE   Bn2  v056
 BYTE   W08
 BYTE   En2  v112
 BYTE   W08
 BYTE   Fs2
 BYTE   W08
 BYTE   Fs2  v056
 BYTE   W08
 BYTE   Cs2  v112
 BYTE   W08
 BYTE   Bn2
 BYTE   W08
 BYTE   Bn2  v056
 BYTE   W08
 BYTE   Cs2  v112
 BYTE   W08
// 023   ----------------------------------------
 BYTE   Fs2
 BYTE   W08
 BYTE   Fs2  v056
 BYTE   W08
 BYTE   Cs2  v112
 BYTE   W08
 BYTE   Bn2
 BYTE   W08
 BYTE   Bn2  v056
 BYTE   W08
 BYTE   Cs2  v112
 BYTE   W56
// 024   ----------------------------------------
 BYTE   W48
 BYTE   VOICE   24
 BYTE   VOL   45*PokemonDPPtRoute203NightThegis_mvl/mxv
 BYTE   PAN   c_v-50
 BYTE   BEND   c_v+0
 BYTE   N07  Dn3
 BYTE   W16
 BYTE   Dn2
 BYTE   W08
 BYTE   N15  Dn3
 BYTE   W16
 BYTE   N07  Dn2
 BYTE   W08
// 025   ----------------------------------------
 BYTE   Cs2
 BYTE   W16
 BYTE   N07
 BYTE   W08
 BYTE   N15  Cs3
 BYTE   W16
 BYTE   N07  Cs2
 BYTE   W08
 BYTE   Cn2
 BYTE   W16
 BYTE   N07
 BYTE   W08
 BYTE   N15  An2
 BYTE   W16
 BYTE   N07  Cn2
 BYTE   W08
// 026   ----------------------------------------
 BYTE   Bn1
 BYTE   W08
 BYTE   N15  Bn2
 BYTE   W16
 BYTE   N07  An2
 BYTE   W16
 BYTE   Fs2
 BYTE   W08
 BYTE   Gn1
 BYTE   W08
 BYTE   Bn2
 BYTE   W08
 BYTE   Gn1
 BYTE   W08
 BYTE   N15  Bn2
 BYTE   W16
 BYTE   N07  Gn1
 BYTE   W08
// 027   ----------------------------------------
 BYTE   An2
 BYTE   W16
 BYTE   An1
 BYTE   W08
 BYTE   N15  En2
 BYTE   W16
 BYTE   N07  An1
 BYTE   W08
 BYTE   As1
 BYTE   W08
 BYTE   Dn3
 BYTE   W08
 BYTE   As1
 BYTE   W08
 BYTE   N15  Dn3
 BYTE   W16
 BYTE   N07  As1
 BYTE   W08
// 028   ----------------------------------------
 BYTE   Cn2
 BYTE   W08
 BYTE   En3
 BYTE   W08
 BYTE   Cn2
 BYTE   W08
 BYTE   N15  En3
 BYTE   W16
 BYTE   N07  Cn2
 BYTE   W08
 BYTE   Fn3
 BYTE   W16
 BYTE   Fn2
 BYTE   W08
 BYTE   N15  Fn3
 BYTE   W16
 BYTE   N07  Fn2
 BYTE   W08
// 029   ----------------------------------------
 BYTE   En2
 BYTE   W16
 BYTE   N07
 BYTE   W08
 BYTE   N15  En3
 BYTE   W16
 BYTE   N07  En2
 BYTE   W08
 BYTE   Ds2
 BYTE   W16
 BYTE   N07
 BYTE   W08
 BYTE   N15  Cn3
 BYTE   W16
 BYTE   N07  Ds2
 BYTE   W08
// 030   ----------------------------------------
 BYTE   Dn2
 BYTE   W08
 BYTE   N15  Dn3
 BYTE   W16
 BYTE   N07  Cn3
 BYTE   W16
 BYTE   An2
 BYTE   W08
 BYTE   As1
 BYTE   W08
 BYTE   Dn3
 BYTE   W08
 BYTE   As1
 BYTE   W08
 BYTE   N15  Dn3
 BYTE   W16
 BYTE   N07  As1
 BYTE   W08
// 031   ----------------------------------------
 BYTE   Cn3
 BYTE   W16
 BYTE   Cn2
 BYTE   W08
 BYTE   N15  Gn2
 BYTE   W16
 BYTE   N07  Cn2
 BYTE   W08
 BYTE   As1
 BYTE   W08
 BYTE   Dn3
 BYTE   W08
 BYTE   As1
 BYTE   W08
 BYTE   N15  Dn3
 BYTE   W16
 BYTE   N07  As1
 BYTE   W08
// 032   ----------------------------------------
 BYTE   Cn3
 BYTE   W16
 BYTE   Cn2
 BYTE   W08
 BYTE   N15  Gn2
 BYTE   W16
 BYTE   N07  Cn2
 BYTE   W08
 BYTE   Cs2
 BYTE   W08
 BYTE   Cs3
 BYTE   W08
 BYTE   Cs2
 BYTE   W08
 BYTE   VOICE   24
 BYTE   N15  Cs3
 BYTE   W16
 BYTE   N07  Cs2
 BYTE   W08
// 033   ----------------------------------------
 BYTE   Ds2
 BYTE   W06
 BYTE   PAN   c_v-54
 BYTE   W02
 BYTE   N07  Ds3
 BYTE   W08
 BYTE   Ds2
 BYTE   W08
 BYTE   N15  Ds3
 BYTE   W16
 BYTE   N07  Ds2
 BYTE   W56
// 034   ----------------------------------------
 BYTE   W96
// 035   ----------------------------------------
 BYTE   W96
// 036   ----------------------------------------
 BYTE   W48
 BYTE   VOICE   18
 BYTE   W48
// 037   ----------------------------------------
 BYTE   VOL   27*PokemonDPPtRoute203NightThegis_mvl/mxv
 BYTE   N01  Gn3  v092
 BYTE   W02
 BYTE   Fs3
 BYTE   W02
 BYTE   En3  v084
 BYTE   W02
 BYTE   Dn3
 BYTE   W02
 BYTE   Cs3  v080
 BYTE   W02
 BYTE   Bn2  v076
 BYTE   W02
 BYTE   An2
 BYTE   W02
 BYTE   Gn2
 BYTE   W02
 BYTE   Fs2
 BYTE   W02
 BYTE   En2
 BYTE   W02
 BYTE   Dn2  v072
 BYTE   W02
 BYTE   Cs2
 BYTE   W02
 BYTE   Dn2
 BYTE   W02
 BYTE   En2  v076
 BYTE   W02
 BYTE   Fs2
 BYTE   W02
 BYTE   Gn2
 BYTE   W02
 BYTE   An2  v080
 BYTE   W02
 BYTE   Bn2
 BYTE   W02
 BYTE   Cs3  v084
 BYTE   W02
 BYTE   Dn3  v088
 BYTE   W02
 BYTE   En3  v092
 BYTE   W02
 BYTE   Fs3  v096
 BYTE   W06
 BYTE   VOICE   24
 BYTE   PAN   c_v-3
 BYTE   BEND   c_v+1
 BYTE   W02
 BYTE   N23  Dn4  v112
 BYTE   W24
 BYTE   Cn4
 BYTE   W22
// 038   ----------------------------------------
 BYTE   W02
 BYTE   N15  Gn3
 BYTE   W16
 BYTE   N05  An3
 BYTE   W08
 BYTE   N07  Gn3
 BYTE   W16
 BYTE   An3
 BYTE   W54
// 039   ----------------------------------------
 BYTE   W72
 BYTE   W02
 BYTE   Bn2
 BYTE   W08
 BYTE   Cn3
 BYTE   W08
 BYTE   Dn3
 BYTE   W06
// 040   ----------------------------------------
 BYTE   W02
 BYTE   N15  Gn3
 BYTE   W16
 BYTE   N07  Fn3
 BYTE   W08
 BYTE   N15  Dn3
 BYTE   W16
 BYTE   N07  Cn3
 BYTE   W08
 BYTE   Bn2
 BYTE   W08
 BYTE   N15  Gn2
 BYTE   W16
 BYTE   N07  An2
 BYTE   W16
 BYTE   N05  Bn2
 BYTE   W06
// 041   ----------------------------------------
 BYTE   VOICE   18
 BYTE   PAN   c_v-53
 BYTE   VOL   41*PokemonDPPtRoute203NightThegis_mvl/mxv
 BYTE   BEND   c_v+0
 BYTE   N01  Gn3  v092
 BYTE   W02
 BYTE   Fs3
 BYTE   W02
 BYTE   En3  v084
 BYTE   W02
 BYTE   Dn3
 BYTE   W02
 BYTE   Cs3  v080
 BYTE   W02
 BYTE   Bn2  v076
 BYTE   W02
 BYTE   An2
 BYTE   W02
 BYTE   Gn2
 BYTE   W02
 BYTE   Fs2
 BYTE   W02
 BYTE   En2
 BYTE   W02
 BYTE   Dn2  v072
 BYTE   W02
 BYTE   Cs2
 BYTE   W02
 BYTE   Dn2
 BYTE   W02
 BYTE   En2  v076
 BYTE   W02
 BYTE   Fs2
 BYTE   W02
 BYTE   Gn2
 BYTE   W02
 BYTE   An2  v080
 BYTE   W02
 BYTE   Bn2
 BYTE   W02
 BYTE   Cs3  v084
 BYTE   W02
 BYTE   Dn3  v088
 BYTE   W02
 BYTE   En3  v092
 BYTE   W02
 BYTE   Fs3  v096
 BYTE   W06
 BYTE   VOICE   24
 BYTE   PAN   c_v-5
 BYTE   VOL   28*PokemonDPPtRoute203NightThegis_mvl/mxv
 BYTE   BEND   c_v+1
 BYTE   W24
 BYTE   W02
 BYTE   N07  Gn2  v112
 BYTE   W16
 BYTE   Dn2
 BYTE   W06
// 042   ----------------------------------------
 BYTE   W02
 BYTE   Gn2
 BYTE   W08
 BYTE   Fn2
 BYTE   W08
 BYTE   Dn2
 BYTE   W08
 BYTE   Gn2
 BYTE   W08
 BYTE   Fn2
 BYTE   W08
 BYTE   Dn2
 BYTE   W08
 BYTE   Gn2
 BYTE   W16
 BYTE   Dn2
 BYTE   W08
 BYTE   Gn2
 BYTE   W16
 BYTE   An2
 BYTE   W06
// 043   ----------------------------------------
 BYTE   W24
 BYTE   W02
 BYTE   Gn2
 BYTE   W16
 BYTE   Bn2
 BYTE   W16
 BYTE   Gn3
 BYTE   W16
 BYTE   Fn3
 BYTE   W16
 BYTE   Dn3
 BYTE   W06
// 044   ----------------------------------------
 BYTE   W10
 BYTE   Fn3
 BYTE   W16
 BYTE   Dn3
 BYTE   W16
 BYTE   Cn3
 BYTE   W06
 BYTE   BEND   c_v+0
 BYTE   W02
 BYTE   N07  Bn2
 BYTE   W08
 BYTE   N13  Gn2
 BYTE   W16
 BYTE   N07  An2
 BYTE   W16
 BYTE   N05  Bn2
 BYTE   W06
// 045   ----------------------------------------
 BYTE   VOICE   18
 BYTE   VOL   41*PokemonDPPtRoute203NightThegis_mvl/mxv
 BYTE   PAN   c_v-53
 BYTE   N01  Gn3  v092
 BYTE   W02
 BYTE   Fs3
 BYTE   W02
 BYTE   En3  v084
 BYTE   W02
 BYTE   Dn3
 BYTE   W02
 BYTE   Cs3  v080
 BYTE   W02
 BYTE   Bn2  v076
 BYTE   W02
 BYTE   An2
 BYTE   W02
 BYTE   Gn2
 BYTE   W02
 BYTE   Fs2
 BYTE   W02
 BYTE   En2
 BYTE   W02
 BYTE   Dn2  v072
 BYTE   W02
 BYTE   Cs2
 BYTE   W02
 BYTE   Dn2
 BYTE   W02
 BYTE   En2  v076
 BYTE   W02
 BYTE   Fs2
 BYTE   W02
 BYTE   Gn2
 BYTE   W02
 BYTE   An2  v080
 BYTE   W02
 BYTE   Bn2
 BYTE   W02
 BYTE   Cs3  v084
 BYTE   W02
 BYTE   Dn3  v088
 BYTE   W02
 BYTE   En3  v092
 BYTE   W02
 BYTE   Fs3  v096
 BYTE   W06
 BYTE   VOICE   24
 BYTE   PAN   c_v-52
 BYTE   VOL   49*PokemonDPPtRoute203NightThegis_mvl/mxv
 BYTE   BEND   c_v+0
 BYTE   N09  Cn3  v112
 BYTE   W12
 BYTE   N01  Cn3  v108
 BYTE   W04
 BYTE   Cn3  v096
 BYTE   W04
 BYTE   N01
 BYTE   W04
 BYTE   N07  Cn3  v120
 BYTE   W08
 BYTE   N01  Cn3  v096
 BYTE   W08
 BYTE   N01
 BYTE   W06
 BYTE   Cn3  v092
 BYTE   W02
// 046   ----------------------------------------
 BYTE   PATT
  POIN2 Label_3_01000A38
// 047   ----------------------------------------
 BYTE   PATT
  POIN2 Label_3_01000A6D
// 048   ----------------------------------------
 BYTE   PATT
  POIN2 Label_3_01000AA3
// 049   ----------------------------------------
 BYTE   GoTo
  POIN2 Label_3_01000AB5
// 050   ----------------------------------------
 BYTE   W01
 BYTE   N01  Gn2  v112
 BYTE   W06
 BYTE   BEND   c_v+0
 BYTE   W01
 BYTE   FINE

//**************** Track 5 (Midi-Chn.4) ****************//

PokemonDPPtRoute203NightThegis_005:
// 000   ----------------------------------------
 BYTE   KEYSH   PokemonDPPtRoute203NightThegis_key+0
 BYTE   VOICE   24
 BYTE   MOD 0
 BYTE   CnM2
 BYTE   VOL   45*PokemonDPPtRoute203NightThegis_mvl/mxv
 BYTE   PAN   c_v+56
 BYTE   BEND   c_v+0
 BYTE   W96
// 001   ----------------------------------------
 BYTE   W96
// 002   ----------------------------------------
 BYTE   W96
// 003   ----------------------------------------
 BYTE   W96
// 004   ----------------------------------------
 BYTE   W44
 BYTE   VOL   49*PokemonDPPtRoute203NightThegis_mvl/mxv
 BYTE   W02
 BYTE   VOICE   24
 BYTE   N01  Ds3  v076
 BYTE   W02
 BYTE   PAN   c_v+48
 BYTE   VOL   47*PokemonDPPtRoute203NightThegis_mvl/mxv
 BYTE   N01  Fn3
 BYTE   W02
 BYTE   N07  Gn3  v112
 BYTE   W10
 BYTE   N01  Gn3  v108
 BYTE   W04
 BYTE   Gn3  v096
 BYTE   W04
 BYTE   N01
 BYTE   W04
 BYTE   N07  Gn3  v120
 BYTE   W08
 BYTE   N05  Gn3  v052
 BYTE   W08
 BYTE   N05
 BYTE   W08
// 005   ----------------------------------------
 BYTE   N01  Gn3  v092
 BYTE   W01
 BYTE   N05  Gn3  v052
 BYTE   W07
 BYTE   N05
 BYTE   W08
 BYTE   N06  Gn3  v120
 BYTE   W08
 BYTE   N01  Gn3  v096
 BYTE   W08
 BYTE   N06  Fs3
 BYTE   W08
 BYTE   N04  Gn3  v120
 BYTE   W06
 BYTE   N01  Ds3  v076
 BYTE   W02
 BYTE   Fn3
 BYTE   W02
 BYTE   N07  Gn3  v112
 BYTE   W10
 BYTE   N01  Gn3  v108
 BYTE   W04
 BYTE   Gn3  v096
 BYTE   W04
 BYTE   N01
 BYTE   W04
 BYTE   N03  Gn3  v120
 BYTE   W08
 BYTE   N01  Gn3  v096
 BYTE   W08
 BYTE   N01
 BYTE   W08
// 006   ----------------------------------------
Label_4_01000F4A:
 BYTE   N01  Gn3  v092
 BYTE   W08
 BYTE   Gn3  v096
 BYTE   W08
 BYTE   N04  Gn3  v120
 BYTE   W08
 BYTE   N01  Gn3  v096
 BYTE   W08
 BYTE   N08  An3  v120
 BYTE   W08
 BYTE   N04  Gn3  v096
 BYTE   W06
 BYTE   N01  As2  v076
 BYTE   W02
 BYTE   Cn3
 BYTE   W02
 BYTE   N07  Dn3  v112
 BYTE   W10
 BYTE   N01  Dn3  v108
 BYTE   W04
 BYTE   Dn3  v096
 BYTE   W04
 BYTE   N01
 BYTE   W04
 BYTE   N03  Dn3  v120
 BYTE   W08
 BYTE   N01  Dn3  v096
 BYTE   W08
 BYTE   N01
 BYTE   W08
 BYTE   PEND 
// 007   ----------------------------------------
Label_4_01000F7F:
 BYTE   N01  Dn3  v092
 BYTE   W08
 BYTE   Dn3  v096
 BYTE   W08
 BYTE   N04  Dn3  v120
 BYTE   W08
 BYTE   N02  Dn3  v096
 BYTE   W08
 BYTE   N06  En3  v120
 BYTE   W07
 BYTE   PEND 
Label_4_01000F93:
 BYTE   W01
 BYTE   N01  Dn3  v112
 BYTE   W08
 BYTE   N07  Cs3
 BYTE   W08
 BYTE   Bn2
 BYTE   W16
 BYTE   N23  Cs3
 BYTE   W24
// 008   ----------------------------------------
 BYTE   PAN   c_v+40
 BYTE   VOL   29*PokemonDPPtRoute203NightThegis_mvl/mxv
 BYTE   N07  Ds4  v092
 BYTE   W08
 BYTE   En4
 BYTE   W08
 BYTE   Fs4
 BYTE   W08
 BYTE   N07
 BYTE   W08
 BYTE   En4
 BYTE   W08
 BYTE   Ds4  v096
 BYTE   W08
 BYTE   VOICE   1
 BYTE   VOL   45*PokemonDPPtRoute203NightThegis_mvl/mxv
 BYTE   PAN   c_v+32
 BYTE   W08
 BYTE   N68  Bn3  v112
 BYTE   W40
// 009   ----------------------------------------
 BYTE   W56
 BYTE   N40  Cs4  v096
 BYTE   W40
// 010   ----------------------------------------
 BYTE   W04
 BYTE   N19  As3  v112
 BYTE   W20
 BYTE   N07  As3  v056
 BYTE   W06
 BYTE   N19  Gn3  v112
 BYTE   W24
 BYTE   N40  Ds4
 BYTE   W42
// 011   ----------------------------------------
 BYTE   W04
 BYTE   N09  Cs4
 BYTE   W12
 BYTE   N15  Ds4
 BYTE   W16
 BYTE   Cs4
 BYTE   W24
 BYTE   W02
 BYTE   N07  Bn3
 BYTE   W08
 BYTE   Bn3  v056
 BYTE   W08
 BYTE   Bn3  v112
 BYTE   W08
 BYTE   Bn3  v056
 BYTE   W06
 BYTE   Gs3  v112
 BYTE   W08
// 012   ----------------------------------------
 BYTE   Gs3  v056
 BYTE   W08
 BYTE   Bn2  v112
 BYTE   W08
 BYTE   Bn2  v056
 BYTE   W08
 BYTE   Cs3  v112
 BYTE   W08
 BYTE   N05  Cs3  v056
 BYTE   W06
 BYTE   VOICE   18
 BYTE   N01  Bn2  v112
 BYTE   W02
 BYTE   Cs3
 BYTE   W02
 BYTE   Ds3
 BYTE   W02
 BYTE   En3
 BYTE   W02
 BYTE   Fs3
 BYTE   W02
 BYTE   VOICE   18
 BYTE   VOL   40*PokemonDPPtRoute203NightThegis_mvl/mxv
 BYTE   N13  Gs3
 BYTE   W16
 BYTE   N01
 BYTE   W04
 BYTE   N01
 BYTE   W04
 BYTE   N07
 BYTE   W08
 BYTE   N03  Fs3
 BYTE   W04
 BYTE   Fs3  v056
 BYTE   W04
 BYTE   N07  Gs3  v112
 BYTE   W08
// 013   ----------------------------------------
 BYTE   Bn3
 BYTE   W08
 BYTE   Gs3
 BYTE   W08
 BYTE   Gs3  v056
 BYTE   W08
 BYTE   N01  Gn3  v112
 BYTE   W02
 BYTE   N13  Gs3
 BYTE   W14
 BYTE   N07  An3
 BYTE   W08
 BYTE   As3
 BYTE   W08
 BYTE   As3  v056
 BYTE   W08
 BYTE   N01  As3  v112
 BYTE   W04
 BYTE   N01
 BYTE   W04
 BYTE   N07
 BYTE   W08
 BYTE   N03  Gs3
 BYTE   W04
 BYTE   Gs3  v056
 BYTE   W04
 BYTE   N07  As3  v112
 BYTE   W08
// 014   ----------------------------------------
 BYTE   Cs4
 BYTE   W08
 BYTE   As3
 BYTE   W08
 BYTE   As3  v056
 BYTE   W08
 BYTE   N01  An3  v112
 BYTE   W02
 BYTE   N13  As3
 BYTE   W14
 BYTE   N07  Bn3
 BYTE   W08
 BYTE   Cn4
 BYTE   W08
 BYTE   Cn4  v056
 BYTE   W08
 BYTE   N01  Cn4  v112
 BYTE   W04
 BYTE   N01
 BYTE   W04
 BYTE   N07
 BYTE   W08
 BYTE   N03  As3
 BYTE   W04
 BYTE   As3  v056
 BYTE   W04
 BYTE   N07  Cn4  v112
 BYTE   W08
// 015   ----------------------------------------
 BYTE   Ds4
 BYTE   W08
 BYTE   Cn4
 BYTE   W08
 BYTE   Cn4  v056
 BYTE   W08
 BYTE   N01  Bn3  v112
 BYTE   W02
 BYTE   N09  Cn4
 BYTE   W10
 BYTE   N11  Cn4  v056
 BYTE   W12
 BYTE   N07  Cn4  v112
 BYTE   W08
 BYTE   Cn4  v056
 BYTE   W08
 BYTE   N01  Cn4  v112
 BYTE   W04
 BYTE   N01
 BYTE   W04
 BYTE   N07
 BYTE   W08
 BYTE   N03  As3
 BYTE   W04
 BYTE   As3  v056
 BYTE   W04
 BYTE   N07  Cn4  v112
 BYTE   W08
// 016   ----------------------------------------
 BYTE   Ds4
 BYTE   W08
 BYTE   Cn4
 BYTE   W08
 BYTE   Gs3
 BYTE   W08
 BYTE   Cn4
 BYTE   W08
 BYTE   Ds4
 BYTE   W08
 BYTE   Gs4
 BYTE   W08
 BYTE   VOICE   15
 BYTE   VOL   35*PokemonDPPtRoute203NightThegis_mvl/mxv
 BYTE   N07  Bn2
 BYTE   W08
 BYTE   N30  Bn2  v052
 BYTE   W32
 BYTE   N07  Gs2  v112
 BYTE   W08
// 017   ----------------------------------------
 BYTE   Fs2
 BYTE   W08
 BYTE   N15  Fs2  v056
 BYTE   W16
 BYTE   N07  Gs2  v112
 BYTE   W08
 BYTE   Gs2  v056
 BYTE   W08
 BYTE   Gn2  v112
 BYTE   W08
 BYTE   As2
 BYTE   W08
 BYTE   N15  As2  v056
 BYTE   W16
 BYTE   N07  Fs2  v112
 BYTE   W08
 BYTE   Fs2  v056
 BYTE   W08
 BYTE   An2  v112
 BYTE   W08
// 018   ----------------------------------------
 BYTE   Gs2
 BYTE   W08
 BYTE   N15  Gs2  v056
 BYTE   W16
 BYTE   N15
 BYTE   W16
 BYTE   N07  Fs2  v112
 BYTE   W08
 BYTE   Gs2
 BYTE   W08
 BYTE   N30  Gs2  v056
 BYTE   W32
 BYTE   N07  Gs2  v112
 BYTE   W08
// 019   ----------------------------------------
 BYTE   Fs2
 BYTE   W08
 BYTE   Cs3
 BYTE   W08
 BYTE   Cs3  v056
 BYTE   W08
 BYTE   As2  v112
 BYTE   W08
 BYTE   As2  v056
 BYTE   W08
 BYTE   An2  v112
 BYTE   W08
 BYTE   Fs2
 BYTE   W08
 BYTE   N30  Fs2  v056
 BYTE   W32
 BYTE   N07  Fs2  v112
 BYTE   W08
// 020   ----------------------------------------
 BYTE   Fs2  v056
 BYTE   W08
 BYTE   N15  Gs2  v112
 BYTE   W16
 BYTE   Ds3
 BYTE   W16
 BYTE   N07  Cn3
 BYTE   W08
 BYTE   Gs2
 BYTE   W08
 BYTE   N15  Gs2  v056
 BYTE   W16
 BYTE   N07  Gs2  v112
 BYTE   W08
 BYTE   N15  Gs2  v056
 BYTE   W16
// 021   ----------------------------------------
 BYTE   N07  As2  v112
 BYTE   W08
 BYTE   N15  As2  v056
 BYTE   W16
 BYTE   N07  As2  v112
 BYTE   W08
 BYTE   N15  As2  v056
 BYTE   W16
 BYTE   N07  Bn2  v112
 BYTE   W08
 BYTE   N15  Bn2  v056
 BYTE   W16
 BYTE   N07  Dn3  v112
 BYTE   W08
 BYTE   N15  Dn3  v056
 BYTE   W16
// 022   ----------------------------------------
 BYTE   N07  Bn2  v112
 BYTE   W08
 BYTE   N15  Bn2  v056
 BYTE   W16
 BYTE   N07  Dn3  v112
 BYTE   W08
 BYTE   N15  Dn3  v056
 BYTE   W16
 BYTE   N07  Bn2  v112
 BYTE   W08
 BYTE   N15  Bn2  v056
 BYTE   W16
 BYTE   N07  Cs3  v112
 BYTE   W08
 BYTE   N15  Cs3  v056
 BYTE   W16
// 023   ----------------------------------------
 BYTE   N07  Bn2  v112
 BYTE   W08
 BYTE   N15  Bn2  v056
 BYTE   W16
 BYTE   N07  Cs3  v112
 BYTE   W08
 BYTE   N15  Cs3  v056
 BYTE   W64
// 024   ----------------------------------------
 BYTE   VOICE   14
 BYTE   VOL   53*PokemonDPPtRoute203NightThegis_mvl/mxv
 BYTE   PAN   c_v-32
 BYTE   N23  An3  v112
 BYTE   W24
 BYTE   PAN   c_v+32
 BYTE   N23  Gn3
 BYTE   W23
 BYTE   BEND   c_v+1
 BYTE   W01
 BYTE   VOICE   24
 BYTE   PAN   c_v-21
 BYTE   VOL   45*PokemonDPPtRoute203NightThegis_mvl/mxv
 BYTE   BEND   c_v+0
 BYTE   W24
 BYTE   N15  Fs3
 BYTE   W16
 BYTE   Fs3  v056
 BYTE   W08
// 025   ----------------------------------------
 BYTE   W24
 BYTE   Fs3  v112
 BYTE   W16
 BYTE   Fs3  v056
 BYTE   W32
 BYTE   Cn3  v112
 BYTE   W16
 BYTE   Cn3  v056
 BYTE   W08
// 026   ----------------------------------------
 BYTE   W08
 BYTE   Dn3  v112
 BYTE   W16
 BYTE   N07  Cs3
 BYTE   W08
 BYTE   Cs3  v056
 BYTE   W08
 BYTE   An2  v112
 BYTE   W08
 BYTE   An2  v056
 BYTE   W08
 BYTE   Dn3  v112
 BYTE   W08
 BYTE   Dn3  v056
 BYTE   W08
 BYTE   N15  Dn3  v112
 BYTE   W16
 BYTE   N07  Dn3  v056
 BYTE   W08
// 027   ----------------------------------------
 BYTE   Cs3  v112
 BYTE   W08
 BYTE   Cs3  v056
 BYTE   W08
 BYTE   An2  v112
 BYTE   W08
 BYTE   N15
 BYTE   W18
 BYTE   N13  An2  v056
 BYTE   W14
 BYTE   N07  Fn3  v112
 BYTE   W08
 BYTE   Fn3  v056
 BYTE   W08
 BYTE   N15  Fn3  v112
 BYTE   W16
 BYTE   Fn3  v056
 BYTE   W08
// 028   ----------------------------------------
 BYTE   W08
 BYTE   N07  Gn3  v112
 BYTE   W08
 BYTE   Gn3  v056
 BYTE   W08
 BYTE   N15  Gn3  v112
 BYTE   W16
 BYTE   N07  Cn3
 BYTE   W08
 BYTE   N23  Cn3  v056
 BYTE   W24
 BYTE   N15  An3  v112
 BYTE   W16
 BYTE   An3  v056
 BYTE   W08
// 029   ----------------------------------------
 BYTE   W24
 BYTE   An3  v112
 BYTE   W16
 BYTE   An3  v056
 BYTE   W32
 BYTE   Ds3  v112
 BYTE   W16
 BYTE   Ds3  v056
 BYTE   W08
// 030   ----------------------------------------
 BYTE   W08
 BYTE   Fn3  v112
 BYTE   W16
 BYTE   N15
 BYTE   W16
 BYTE   N07  Dn3
 BYTE   W08
 BYTE   Dn3  v056
 BYTE   W08
 BYTE   Fn3  v112
 BYTE   W08
 BYTE   Fn3  v056
 BYTE   W08
 BYTE   N15  Fn3  v112
 BYTE   W16
 BYTE   N07  Fn3  v056
 BYTE   W08
// 031   ----------------------------------------
 BYTE   En3  v112
 BYTE   W08
 BYTE   N15  En3  v056
 BYTE   W16
 BYTE   Cn3  v112
 BYTE   W16
 BYTE   Cn3  v056
 BYTE   W16
 BYTE   N07  Fn3  v112
 BYTE   W08
 BYTE   Fn3  v056
 BYTE   W08
 BYTE   N15  Fn3  v112
 BYTE   W16
 BYTE   N07  Fn3  v056
 BYTE   W08
// 032   ----------------------------------------
 BYTE   En3  v112
 BYTE   W08
 BYTE   N15  En3  v056
 BYTE   W16
 BYTE   Cn3  v112
 BYTE   W16
 BYTE   N07  Cn3  v056
 BYTE   W16
 BYTE   Fn3  v112
 BYTE   W08
 BYTE   Fn3  v056
 BYTE   W08
 BYTE   VOICE   24
 BYTE   N15  Fn3  v112
 BYTE   W16
 BYTE   Fn3  v056
 BYTE   W08
// 033   ----------------------------------------
 BYTE   W08
 BYTE   N07  Gn3  v112
 BYTE   W08
 BYTE   Gn3  v056
 BYTE   W08
 BYTE   N15  Gn3  v112
 BYTE   W72
// 034   ----------------------------------------
 BYTE   W96
// 035   ----------------------------------------
 BYTE   W96
// 036   ----------------------------------------
 BYTE   W48
 BYTE   VOICE   18
 BYTE   W48
// 037   ----------------------------------------
 BYTE   VOL   52*PokemonDPPtRoute203NightThegis_mvl/mxv
 BYTE   N01  Cn4  v092
 BYTE   W02
 BYTE   Bn3
 BYTE   W02
 BYTE   An3  v084
 BYTE   W02
 BYTE   Gn3
 BYTE   W02
 BYTE   Fs3  v080
 BYTE   W02
 BYTE   En3  v076
 BYTE   W02
 BYTE   Dn3
 BYTE   W02
 BYTE   Cn3
 BYTE   W02
 BYTE   Bn2
 BYTE   W02
 BYTE   An2
 BYTE   W02
 BYTE   Gn2  v072
 BYTE   W02
 BYTE   Fs2
 BYTE   W02
 BYTE   Gn2
 BYTE   W02
 BYTE   An2  v076
 BYTE   W02
 BYTE   Bn2
 BYTE   W02
 BYTE   Cn3
 BYTE   W02
 BYTE   Dn3  v080
 BYTE   W02
 BYTE   En3
 BYTE   W02
 BYTE   Fs3  v084
 BYTE   W02
 BYTE   Gn3  v088
 BYTE   W02
 BYTE   An3  v092
 BYTE   W02
 BYTE   Bn3  v096
 BYTE   W02
 BYTE   Cn4  v100
 BYTE   W02
 BYTE   VOICE   24
 BYTE   N01  Dn4
 BYTE   W02
 BYTE   PAN   c_v+0
 BYTE   VOL   60*PokemonDPPtRoute203NightThegis_mvl/mxv
 BYTE   BEND   c_v+0
 BYTE   N23  Dn4  v112
 BYTE   W24
 BYTE   Cn4
 BYTE   W24
// 038   ----------------------------------------
 BYTE   N15  Gn3
 BYTE   W16
 BYTE   N07  An3
 BYTE   W08
 BYTE   BEND   c_v+0
 BYTE   N07  Gn3
 BYTE   W08
 BYTE   Gn3  v056
 BYTE   W08
 BYTE   An3  v112
 BYTE   W08
 BYTE   N23  An3  v048
 BYTE   W48
// 039   ----------------------------------------
 BYTE   W72
 BYTE   N07  Bn2  v112
 BYTE   W08
 BYTE   Cn3
 BYTE   W08
 BYTE   Dn3
 BYTE   W08
// 040   ----------------------------------------
 BYTE   N15  Gn3
 BYTE   W16
 BYTE   N07  Fn3
 BYTE   W08
 BYTE   N15  Dn3
 BYTE   W16
 BYTE   N07  Cn3
 BYTE   W08
 BYTE   Bn2
 BYTE   W08
 BYTE   N15  Gn2
 BYTE   W16
 BYTE   N07  An2
 BYTE   W08
 BYTE   An2  v056
 BYTE   W08
 BYTE   Bn2  v112
 BYTE   W08
// 041   ----------------------------------------
 BYTE   VOICE   18
 BYTE   VOL   52*PokemonDPPtRoute203NightThegis_mvl/mxv
 BYTE   N01  Cn4  v092
 BYTE   W02
 BYTE   Bn3
 BYTE   W02
 BYTE   An3  v084
 BYTE   W02
 BYTE   Gn3
 BYTE   W02
 BYTE   Fs3  v080
 BYTE   W02
 BYTE   En3  v076
 BYTE   W02
 BYTE   Dn3
 BYTE   W02
 BYTE   Cn3
 BYTE   W02
 BYTE   Bn2
 BYTE   W02
 BYTE   An2
 BYTE   W02
 BYTE   Gn2  v072
 BYTE   W02
 BYTE   Fs2
 BYTE   W02
 BYTE   Gn2
 BYTE   W02
 BYTE   An2  v076
 BYTE   W02
 BYTE   Bn2
 BYTE   W02
 BYTE   Cn3
 BYTE   W02
 BYTE   Dn3  v080
 BYTE   W02
 BYTE   En3
 BYTE   W02
 BYTE   Fs3  v084
 BYTE   W02
 BYTE   Gn3  v088
 BYTE   W02
 BYTE   An3  v092
 BYTE   W02
 BYTE   Bn3  v096
 BYTE   W02
 BYTE   Ds4  v100
 BYTE   W02
 BYTE   Fn4
 BYTE   W02
 BYTE   VOICE   24
 BYTE   VOL   60*PokemonDPPtRoute203NightThegis_mvl/mxv
 BYTE   W24
 BYTE   N07  Gn2  v112
 BYTE   W08
 BYTE   Gn2  v056
 BYTE   W08
 BYTE   Dn2  v112
 BYTE   W08
// 042   ----------------------------------------
 BYTE   Gn2
 BYTE   W08
 BYTE   Fn2
 BYTE   W08
 BYTE   Dn2
 BYTE   W08
 BYTE   Gn2
 BYTE   W08
 BYTE   Fn2
 BYTE   W08
 BYTE   Dn2
 BYTE   W08
 BYTE   Gn2
 BYTE   W08
 BYTE   Gn2  v056
 BYTE   W08
 BYTE   Dn2  v112
 BYTE   W08
 BYTE   Gn2
 BYTE   W08
 BYTE   Gn2  v056
 BYTE   W08
 BYTE   An2  v112
 BYTE   W08
// 043   ----------------------------------------
 BYTE   N23  An2  v056
 BYTE   W24
 BYTE   N07  Gn2  v112
 BYTE   W08
 BYTE   Gn2  v056
 BYTE   W08
 BYTE   Bn2  v112
 BYTE   W08
 BYTE   Bn2  v056
 BYTE   W08
 BYTE   Gn3  v112
 BYTE   W08
 BYTE   Gn3  v056
 BYTE   W08
 BYTE   Fn3  v112
 BYTE   W08
 BYTE   Fn3  v056
 BYTE   W08
 BYTE   Dn3  v112
 BYTE   W08
// 044   ----------------------------------------
 BYTE   Dn3  v056
 BYTE   W08
 BYTE   Fn3  v112
 BYTE   W08
 BYTE   Fn3  v056
 BYTE   W08
 BYTE   Dn3  v112
 BYTE   W08
 BYTE   Dn3  v056
 BYTE   W08
 BYTE   Cn3  v112
 BYTE   W08
 BYTE   Bn2
 BYTE   W08
 BYTE   N13  Gn2
 BYTE   W16
 BYTE   N07  An2
 BYTE   W08
 BYTE   An2  v056
 BYTE   W08
 BYTE   Bn2  v112
 BYTE   W08
// 045   ----------------------------------------
 BYTE   VOICE   18
 BYTE   VOL   52*PokemonDPPtRoute203NightThegis_mvl/mxv
 BYTE   N01  Cn4  v092
 BYTE   W02
 BYTE   Bn3
 BYTE   W02
 BYTE   An3  v084
 BYTE   W02
 BYTE   Gn3
 BYTE   W02
 BYTE   Fs3  v080
 BYTE   W02
 BYTE   En3  v076
 BYTE   W02
 BYTE   Dn3
 BYTE   W02
 BYTE   Cn3
 BYTE   W02
 BYTE   Bn2
 BYTE   W02
 BYTE   An2
 BYTE   W02
 BYTE   Gn2  v072
 BYTE   W02
 BYTE   Fs2
 BYTE   W02
 BYTE   Gn2
 BYTE   W02
 BYTE   An2  v076
 BYTE   W02
 BYTE   Bn2
 BYTE   W02
 BYTE   Cn3
 BYTE   W02
 BYTE   Dn3  v080
 BYTE   W02
 BYTE   En3
 BYTE   W02
 BYTE   Fs3  v084
 BYTE   W02
 BYTE   Gn3  v088
 BYTE   W02
 BYTE   An3  v092
 BYTE   W02
 BYTE   Bn3  v096
 BYTE   W02
 BYTE   Ds4  v100
 BYTE   W02
 BYTE   Fn4
 BYTE   W02
 BYTE   VOICE   24
 BYTE   PAN   c_v+39
 BYTE   VOL   45*PokemonDPPtRoute203NightThegis_mvl/mxv
 BYTE   N01  Fn3  v076
 BYTE   W02
 BYTE   N07  Gn3  v112
 BYTE   W10
 BYTE   N01  Gn3  v108
 BYTE   W04
 BYTE   Gn3  v096
 BYTE   W04
 BYTE   N01
 BYTE   W04
 BYTE   N07  Gn3  v120
 BYTE   W08
 BYTE   N01  Gn3  v096
 BYTE   W08
 BYTE   N01
 BYTE   W08
// 046   ----------------------------------------
 BYTE   Gn3  v092
 BYTE   W08
 BYTE   Gn3  v096
 BYTE   W08
 BYTE   N06  Gn3  v120
 BYTE   W08
 BYTE   N01  Gn3  v096
 BYTE   W08
 BYTE   N06  Fs3
 BYTE   W08
 BYTE   N04  Gn3  v120
 BYTE   W06
 BYTE   N01  Ds3  v076
 BYTE   W02
 BYTE   Fn3
 BYTE   W02
 BYTE   N07  Gn3  v112
 BYTE   W10
 BYTE   N01  Gn3  v108
 BYTE   W04
 BYTE   Gn3  v096
 BYTE   W04
 BYTE   N01
 BYTE   W04
 BYTE   N03  Gn3  v120
 BYTE   W08
 BYTE   N01  Gn3  v096
 BYTE   W08
 BYTE   N01
 BYTE   W08
// 047   ----------------------------------------
 BYTE   PATT
  POIN2 Label_4_01000F4A
// 048   ----------------------------------------
 BYTE   PATT
  POIN2 Label_4_01000F7F
// 049   ----------------------------------------
 BYTE   GoTo
  POIN2 Label_4_01000F93
// 050   ----------------------------------------
 BYTE   W01
 BYTE   N01  Dn3  v112
 BYTE   W07
 BYTE   FINE

//**************** Track 6 (Midi-Chn.5) ****************//

PokemonDPPtRoute203NightThegis_006:
// 000   ----------------------------------------
 BYTE   KEYSH   PokemonDPPtRoute203NightThegis_key+0
 BYTE   VOICE   64
 BYTE   PAN   c_v+0
 BYTE   VOL   51*PokemonDPPtRoute203NightThegis_mvl/mxv
 BYTE   MOD 0
 BYTE   CnM2
 BYTE   BEND   c_v+0
 BYTE   W48
 BYTE   VOL   60*PokemonDPPtRoute203NightThegis_mvl/mxv
 BYTE   N07  Gn0  v112
 BYTE   W08
 BYTE   Gn0  v032
 BYTE   W08
 BYTE   N03  Gn0  v084
 BYTE   W08
 BYTE   N15  Gn1  v112
 BYTE   W16
 BYTE   N03  Gn0  v084
 BYTE   W08
// 001   ----------------------------------------
Label_5_01001466:
 BYTE   N03  Gn0  v112
 BYTE   W08
 BYTE   Gn1
 BYTE   W08
 BYTE   Gn0  v084
 BYTE   W08
 BYTE   N15  Gn1  v112
 BYTE   W16
 BYTE   N03  Gn0  v084
 BYTE   W08
 BYTE   N07  Gn0  v112
 BYTE   W08
 BYTE   Gn0  v032
 BYTE   W08
 BYTE   N03  Gn0  v084
 BYTE   W08
 BYTE   N15  Gn1  v112
 BYTE   W16
 BYTE   N03  Gn0  v084
 BYTE   W08
 BYTE   PEND 
// 002   ----------------------------------------
Label_5_0100148B:
 BYTE   N07  Gn0  v112
 BYTE   W08
 BYTE   Gn0  v032
 BYTE   W08
 BYTE   N03  Gn0  v084
 BYTE   W08
 BYTE   N15  Gn1  v112
 BYTE   W16
 BYTE   N03  Gn0  v084
 BYTE   W08
 BYTE   N07  Gn0  v112
 BYTE   W08
 BYTE   Gn0  v032
 BYTE   W08
 BYTE   N03  Gn0  v084
 BYTE   W08
 BYTE   N15  Gn1  v112
 BYTE   W16
 BYTE   N03  Gn0  v084
 BYTE   W08
 BYTE   PEND 
// 003   ----------------------------------------
 BYTE   PATT
  POIN2 Label_5_01001466
// 004   ----------------------------------------
 BYTE   PATT
  POIN2 Label_5_0100148B
// 005   ----------------------------------------
 BYTE   PATT
  POIN2 Label_5_0100148B
// 006   ----------------------------------------
 BYTE   PATT
  POIN2 Label_5_0100148B
// 007   ----------------------------------------
 BYTE   N07  Gn0  v112
 BYTE   W08
 BYTE   Gn0  v032
 BYTE   W08
 BYTE   N03  Gn0  v084
 BYTE   W08
 BYTE   N15  Gn1  v112
 BYTE   W15
Label_5_010014D5:
 BYTE   W01
 BYTE   N03  Gn0  v084
 BYTE   W08
 BYTE   N07  Fs0  v112
 BYTE   W08
 BYTE   Bn0
 BYTE   W16
 BYTE   N23  Cs1  v084
 BYTE   W24
// 008   ----------------------------------------
 BYTE   N32  Fs0  v112
 BYTE   W32
 BYTE   W02
 BYTE   N15  Fs0  v032
 BYTE   W60
 BYTE   W02
// 009   ----------------------------------------
 BYTE   W96
// 010   ----------------------------------------
 BYTE   W96
// 011   ----------------------------------------
 BYTE   W96
// 012   ----------------------------------------
 BYTE   VOICE   18
 BYTE   VOL   39*PokemonDPPtRoute203NightThegis_mvl/mxv
 BYTE   W08
 BYTE   N07  En2  v112
 BYTE   W08
 BYTE   En2  v052
 BYTE   W08
 BYTE   N23  Fs2  v112
 BYTE   W24
 BYTE   VOICE   18
 BYTE   PAN   c_v-25
 BYTE   VOL   42*PokemonDPPtRoute203NightThegis_mvl/mxv
 BYTE   N68  Gs2
 BYTE   W48
// 013   ----------------------------------------
 BYTE   W24
 BYTE   N05
 BYTE   W06
 BYTE   En2
 BYTE   W10
 BYTE   N07  Bn2
 BYTE   W08
 BYTE   N03  As2
 BYTE   W04
 BYTE   Bn2
 BYTE   W04
 BYTE   N60  As2
 BYTE   W40
// 014   ----------------------------------------
 BYTE   W24
 BYTE   N05
 BYTE   W08
 BYTE   Fs2
 BYTE   W08
 BYTE   N07  Cs3
 BYTE   W08
 BYTE   N03  Cn3
 BYTE   W04
 BYTE   Cs3
 BYTE   W04
 BYTE   N84  Cn3
 BYTE   W40
// 015   ----------------------------------------
 BYTE   VOL   45*PokemonDPPtRoute203NightThegis_mvl/mxv
 BYTE   W04
 BYTE   Gn1
 BYTE   W01
 BYTE   Fs1
 BYTE   W03
 BYTE   Fs1
 BYTE   W01
 BYTE   Dn1
 BYTE   W04
 BYTE   Cs1
 BYTE   W03
 BYTE   Bn0
 BYTE   W01
 BYTE   As0
 BYTE   W04
 BYTE   An0
 BYTE   W03
 BYTE   Gn0
 BYTE   W01
 BYTE   Fs0
 BYTE   W03
 BYTE   Fn0
 BYTE   W01
 BYTE   Ds0
 BYTE   W03
 BYTE   Dn0
 BYTE   W01
 BYTE   Dn0
 BYTE   W03
 BYTE   BnM1
 BYTE   W01
 BYTE   AsM1
 BYTE   W03
 BYTE   GnM1
 BYTE   W04
 BYTE   FsM1
 BYTE   W01
 BYTE   FnM1
 BYTE   W48
 BYTE   W03
// 016   ----------------------------------------
 BYTE   VOICE   64
 BYTE   PAN   c_v-29
 BYTE   W24
 BYTE   VOL   50*PokemonDPPtRoute203NightThegis_mvl/mxv
 BYTE   N07  Fs2  v092
 BYTE   W08
 BYTE   En2
 BYTE   W08
 BYTE   Ds2
 BYTE   W08
 BYTE   PAN   c_v-18
 BYTE   N44  Gs2  v080
 BYTE   W16
 BYTE   VOL   50*PokemonDPPtRoute203NightThegis_mvl/mxv
 BYTE   W04
 BYTE   An1
 BYTE   W04
 BYTE   Gn1
 BYTE   W01
 BYTE   Fs1
 BYTE   W03
 BYTE   Fn1
 BYTE   W01
 BYTE   Cs1
 BYTE   W03
 BYTE   As0
 BYTE   W01
 BYTE   An0
 BYTE   W03
 BYTE   Gs0
 BYTE   W01
 BYTE   Fs0
 BYTE   W03
 BYTE   En0
 BYTE   W04
 BYTE   Ds0
 BYTE   W01
 BYTE   Cs0
 BYTE   W03
// 017   ----------------------------------------
 BYTE   Dn2
 BYTE   N15  As2
 BYTE   W16
 BYTE   N03  Bn2
 BYTE   W04
 BYTE   As2
 BYTE   W04
 BYTE   N15  Gs2
 BYTE   W16
 BYTE   N07  Gn2
 BYTE   W08
 BYTE   N23  Fs2
 BYTE   W24
 BYTE   N07
 BYTE   W16
 BYTE   Gn2
 BYTE   W08
// 018   ----------------------------------------
 BYTE   N15  Gs2
 BYTE   W24
 BYTE   N07  Fs2
 BYTE   W08
 BYTE   En2
 BYTE   W08
 BYTE   Ds2
 BYTE   W08
 BYTE   N44  Bn2
 BYTE   W16
 BYTE   VOL   50*PokemonDPPtRoute203NightThegis_mvl/mxv
 BYTE   W04
 BYTE   An1
 BYTE   W04
 BYTE   Gn1
 BYTE   W01
 BYTE   Fs1
 BYTE   W03
 BYTE   Fn1
 BYTE   W01
 BYTE   Cs1
 BYTE   W03
 BYTE   As0
 BYTE   W01
 BYTE   An0
 BYTE   W03
 BYTE   Gs0
 BYTE   W01
 BYTE   Fs0
 BYTE   W03
 BYTE   En0
 BYTE   W04
 BYTE   Ds0
 BYTE   W01
 BYTE   Cs0
 BYTE   W03
// 019   ----------------------------------------
 BYTE   Ds2
 BYTE   N15  Cs3
 BYTE   W16
 BYTE   N03  Ds3
 BYTE   W04
 BYTE   Cs3
 BYTE   W04
 BYTE   N15  As2
 BYTE   W16
 BYTE   N07  An2
 BYTE   W08
 BYTE   N15  Fs2
 BYTE   W24
 BYTE   N07
 BYTE   W16
 BYTE   As2
 BYTE   W08
// 020   ----------------------------------------
 BYTE   N15  Gs2
 BYTE   W16
 BYTE   N07  Ds2
 BYTE   W08
 BYTE   N15  Fs2
 BYTE   W16
 BYTE   N07  Cn2
 BYTE   W08
 BYTE   Cs2
 BYTE   W16
 BYTE   Gs1
 BYTE   W08
 BYTE   Cs2
 BYTE   W16
 BYTE   Gs1
 BYTE   W08
// 021   ----------------------------------------
 BYTE   N15  Ds2
 BYTE   W24
 BYTE   N07
 BYTE   W08
 BYTE   Cs2
 BYTE   W08
 BYTE   As1
 BYTE   W08
 BYTE   En2
 BYTE   W16
 BYTE   Bn1
 BYTE   W08
 BYTE   En2
 BYTE   W16
 BYTE   Bn1
 BYTE   W08
// 022   ----------------------------------------
 BYTE   N23  Gn2
 BYTE   W24
 BYTE   N07
 BYTE   W08
 BYTE   En2
 BYTE   W08
 BYTE   Bn1
 BYTE   W08
 BYTE   N92  Cs2
 BYTE   W48
// 023   ----------------------------------------
 BYTE   W48
 BYTE   VOICE   48
 BYTE   VOL   18*PokemonDPPtRoute203NightThegis_mvl/mxv
 BYTE   PAN   c_v-49
 BYTE   N30  Gn2  v112
 BYTE   W01
 BYTE   VOL   22*PokemonDPPtRoute203NightThegis_mvl/mxv
 BYTE   W02
 BYTE   Dn0
 BYTE   W02
 BYTE   Dn0
 BYTE   W02
 BYTE   Fs0
 BYTE   W02
 BYTE   Bn0
 BYTE   W02
 BYTE   Fn1
 BYTE   W02
 BYTE   An1
 BYTE   W02
 BYTE   Cs2
 BYTE   W02
 BYTE   En2
 BYTE   W15
 BYTE   N07  Fs2
 BYTE   W08
 BYTE   Gn2
 BYTE   W08
// 024   ----------------------------------------
 BYTE   N23  An2
 BYTE   W24
 BYTE   En2
 BYTE   W24
 BYTE   VOICE   64
 BYTE   PAN   c_v+0
 BYTE   VOL   57*PokemonDPPtRoute203NightThegis_mvl/mxv
 BYTE   BEND   c_v+0
 BYTE   N23  Dn1
 BYTE   W32
 BYTE   N07  Fs1
 BYTE   W08
 BYTE   Dn1
 BYTE   W08
// 025   ----------------------------------------
 BYTE   Cs1
 BYTE   W40
 BYTE   N07
 BYTE   W08
 BYTE   Cn1
 BYTE   W40
 BYTE   N07
 BYTE   W08
// 026   ----------------------------------------
 BYTE   Bn0
 BYTE   W16
 BYTE   An0
 BYTE   W08
 BYTE   Bn0
 BYTE   W16
 BYTE   Gn1
 BYTE   W08
 BYTE   N15  Dn1
 BYTE   W16
 BYTE   N07  Gn1
 BYTE   W24
 BYTE   Bn0
 BYTE   W08
// 027   ----------------------------------------
 BYTE   N15  An0
 BYTE   W16
 BYTE   N07  En1
 BYTE   W24
 BYTE   An1
 BYTE   W24
 BYTE   Fn1
 BYTE   W16
 BYTE   Dn1
 BYTE   W08
 BYTE   Fn1
 BYTE   W08
// 028   ----------------------------------------
 BYTE   N15  Cn1
 BYTE   W16
 BYTE   N07  Gn1
 BYTE   W24
 BYTE   En1
 BYTE   W08
 BYTE   N23  Cn1
 BYTE   W32
 BYTE   N07  An1
 BYTE   W08
 BYTE   Fn1
 BYTE   W08
// 029   ----------------------------------------
 BYTE   En1
 BYTE   W08
 BYTE   Cn1
 BYTE   W24
 BYTE   An1
 BYTE   W08
 BYTE   En1
 BYTE   W08
 BYTE   Ds1
 BYTE   W16
 BYTE   N07
 BYTE   W24
 BYTE   An0
 BYTE   W08
// 030   ----------------------------------------
 BYTE   Dn1
 BYTE   W16
 BYTE   N07
 BYTE   W08
 BYTE   N07
 BYTE   W16
 BYTE   Fn1
 BYTE   W08
 BYTE   N07
 BYTE   W08
 BYTE   N15  As0
 BYTE   W32
 BYTE   N07
 BYTE   W08
// 031   ----------------------------------------
 BYTE   Cn1
 BYTE   W24
 BYTE   N15  En1
 BYTE   W16
 BYTE   N07  Cn1
 BYTE   W08
 BYTE   Fn1
 BYTE   W16
 BYTE   Dn1
 BYTE   W08
 BYTE   N15  As0
 BYTE   W24
// 032   ----------------------------------------
 BYTE   N07  Cn1
 BYTE   W08
 BYTE   Gn1
 BYTE   W08
 BYTE   En1
 BYTE   W08
 BYTE   N13  En1  v056
 BYTE   W16
 BYTE   N07  Cn1  v112
 BYTE   W08
 BYTE   Cs1
 BYTE   W08
 BYTE   N15  Cs1  v056
 BYTE   W16
 BYTE   VOICE   64
 BYTE   N07  Cs1  v112
 BYTE   W08
 BYTE   N15  Cs1  v056
 BYTE   W16
// 033   ----------------------------------------
 BYTE   N07  Ds1  v112
 BYTE   W08
 BYTE   N13  Ds1  v056
 BYTE   W16
 BYTE   N15  Cn1  v112
 BYTE   W16
 BYTE   N07  En1
 BYTE   W08
 BYTE   VOL   60*PokemonDPPtRoute203NightThegis_mvl/mxv
 BYTE   N07  Fn1
 BYTE   W16
 BYTE   N03  Fn1  v084
 BYTE   W08
 BYTE   N15  Fn2  v112
 BYTE   W16
 BYTE   N03  Fn1  v084
 BYTE   W08
// 034   ----------------------------------------
 BYTE   Fn1  v112
 BYTE   W08
 BYTE   Fn2
 BYTE   W08
 BYTE   Fn1  v084
 BYTE   W08
 BYTE   N15  Fn2  v112
 BYTE   W16
 BYTE   N03  Fn1  v084
 BYTE   W08
 BYTE   N07  Fn1  v112
 BYTE   W16
 BYTE   N03  Fn1  v084
 BYTE   W08
 BYTE   N15  Fn2  v112
 BYTE   W16
 BYTE   N03  Fn1  v084
 BYTE   W08
// 035   ----------------------------------------
 BYTE   N07  Fn1  v112
 BYTE   W16
 BYTE   N03  Fn1  v084
 BYTE   W08
 BYTE   N15  Fn2  v112
 BYTE   W16
 BYTE   N03  Fn1  v084
 BYTE   W08
 BYTE   N07  Gn0  v112
 BYTE   W16
 BYTE   N03  Gn0  v084
 BYTE   W08
 BYTE   N15  Gn1  v112
 BYTE   W16
 BYTE   N03  Gn0  v084
 BYTE   W08
// 036   ----------------------------------------
Label_5_01001722:
 BYTE   N03  Gn0  v112
 BYTE   W08
 BYTE   Gn1
 BYTE   W08
 BYTE   Gn0  v084
 BYTE   W08
 BYTE   N15  Gn1  v112
 BYTE   W16
 BYTE   N03  Gn0  v084
 BYTE   W08
 BYTE   N07  Gn0  v112
 BYTE   W16
 BYTE   N03  Gn0  v084
 BYTE   W08
 BYTE   N15  Gn1  v112
 BYTE   W16
 BYTE   N03  Gn0  v084
 BYTE   W08
 BYTE   PEND 
// 037   ----------------------------------------
Label_5_01001744:
 BYTE   N07  Gn0  v112
 BYTE   W16
 BYTE   N03  Gn0  v084
 BYTE   W08
 BYTE   N15  Gn1  v112
 BYTE   W16
 BYTE   N03  Gn0  v084
 BYTE   W08
 BYTE   N07  Gn0  v112
 BYTE   W16
 BYTE   N03  Gn0  v084
 BYTE   W08
 BYTE   N15  Gn1  v112
 BYTE   W16
 BYTE   N03  Gn0  v084
 BYTE   W08
 BYTE   PEND 
// 038   ----------------------------------------
 BYTE   PATT
  POIN2 Label_5_01001722
// 039   ----------------------------------------
 BYTE   PATT
  POIN2 Label_5_01001744
// 040   ----------------------------------------
 BYTE   PATT
  POIN2 Label_5_01001722
// 041   ----------------------------------------
 BYTE   PATT
  POIN2 Label_5_01001744
// 042   ----------------------------------------
 BYTE   PATT
  POIN2 Label_5_01001722
// 043   ----------------------------------------
 BYTE   PATT
  POIN2 Label_5_01001744
// 044   ----------------------------------------
 BYTE   PATT
  POIN2 Label_5_01001722
// 045   ----------------------------------------
 BYTE   PATT
  POIN2 Label_5_01001744
// 046   ----------------------------------------
 BYTE   PATT
  POIN2 Label_5_01001744
// 047   ----------------------------------------
 BYTE   PATT
  POIN2 Label_5_01001744
// 048   ----------------------------------------
 BYTE   N07  Gn0  v112
 BYTE   W16
 BYTE   N03  Gn0  v084
 BYTE   W08
 BYTE   N15  Gn1  v112
 BYTE   W15
 BYTE   GoTo
  POIN2 Label_5_010014D5
// 049   ----------------------------------------
 BYTE   W01
 BYTE   N03  Gn0  v084
 BYTE   W07
 BYTE   FINE

//**************** Track 7 (Midi-Chn.6) ****************//

PokemonDPPtRoute203NightThegis_007:
// 000   ----------------------------------------
 BYTE   KEYSH   PokemonDPPtRoute203NightThegis_key+0
 BYTE   VOICE   1
 BYTE   PAN   c_v+0
 BYTE   MOD 0
 BYTE   CnM2
 BYTE   VOL   34*PokemonDPPtRoute203NightThegis_mvl/mxv
 BYTE   BEND   c_v+0
 BYTE   W48
 BYTE   PAN   c_v-48
 BYTE   N03  Gn3  v112
 BYTE   W03
 BYTE   Gn3  v064
 BYTE   W05
 BYTE   Dn3  v112
 BYTE   W03
 BYTE   Dn3  v064
 BYTE   W05
 BYTE   Fs3  v112
 BYTE   W03
 BYTE   Fs3  v064
 BYTE   W05
 BYTE   PAN   c_v+48
 BYTE   N03  Gn3  v112
 BYTE   W03
 BYTE   Gn3  v064
 BYTE   W05
 BYTE   Gn4  v112
 BYTE   W03
 BYTE   Gn4  v064
 BYTE   W05
 BYTE   Dn4  v112
 BYTE   W03
 BYTE   Dn4  v064
 BYTE   W05
// 001   ----------------------------------------
Label_6_010017E7:
 BYTE   N03  Cn4  v112
 BYTE   W03
 BYTE   Cn4  v064
 BYTE   W05
 BYTE   Bn3  v112
 BYTE   W03
 BYTE   Bn3  v064
 BYTE   W05
 BYTE   An3  v112
 BYTE   W03
 BYTE   An3  v064
 BYTE   W05
 BYTE   PAN   c_v-48
 BYTE   N03  Cn4  v112
 BYTE   W03
 BYTE   Cn4  v064
 BYTE   W05
 BYTE   Gn4  v112
 BYTE   W03
 BYTE   Gn4  v064
 BYTE   W05
 BYTE   Dn4  v112
 BYTE   W03
 BYTE   Dn4  v064
 BYTE   W05
 BYTE   PAN   c_v+48
 BYTE   N03  Gn3  v112
 BYTE   W03
 BYTE   Gn3  v064
 BYTE   W05
 BYTE   Dn3  v112
 BYTE   W03
 BYTE   Dn3  v064
 BYTE   W05
 BYTE   Fs3  v112
 BYTE   W03
 BYTE   Fs3  v064
 BYTE   W05
 BYTE   PAN   c_v-48
 BYTE   N03  Gn3  v112
 BYTE   W03
 BYTE   Gn3  v064
 BYTE   W05
 BYTE   Gn4  v112
 BYTE   W03
 BYTE   Gn4  v064
 BYTE   W05
 BYTE   Dn4  v112
 BYTE   W03
 BYTE   Dn4  v064
 BYTE   W05
 BYTE   PEND 
// 002   ----------------------------------------
Label_6_0100183A:
 BYTE   N03  Cn4  v112
 BYTE   W03
 BYTE   Cn4  v064
 BYTE   W05
 BYTE   Bn3  v112
 BYTE   W03
 BYTE   Bn3  v064
 BYTE   W05
 BYTE   An3  v112
 BYTE   W03
 BYTE   An3  v064
 BYTE   W05
 BYTE   PAN   c_v+48
 BYTE   N03  Cn4  v112
 BYTE   W03
 BYTE   Cn4  v064
 BYTE   W05
 BYTE   Gn4  v112
 BYTE   W03
 BYTE   Gn4  v064
 BYTE   W05
 BYTE   Dn4  v112
 BYTE   W03
 BYTE   Dn4  v064
 BYTE   W05
 BYTE   PAN   c_v-48
 BYTE   N03  Gn3  v112
 BYTE   W03
 BYTE   Gn3  v064
 BYTE   W05
 BYTE   Dn3  v112
 BYTE   W03
 BYTE   Dn3  v064
 BYTE   W05
 BYTE   Fs3  v112
 BYTE   W03
 BYTE   Fs3  v064
 BYTE   W05
 BYTE   PAN   c_v+48
 BYTE   N03  Gn3  v112
 BYTE   W03
 BYTE   Gn3  v064
 BYTE   W05
 BYTE   Gn4  v112
 BYTE   W03
 BYTE   Gn4  v064
 BYTE   W05
 BYTE   Dn4  v112
 BYTE   W03
 BYTE   Dn4  v064
 BYTE   W05
 BYTE   PEND 
// 003   ----------------------------------------
 BYTE   Bn3  v112
 BYTE   W03
 BYTE   Bn3  v064
 BYTE   W05
 BYTE   An3  v112
 BYTE   W03
 BYTE   An3  v064
 BYTE   W05
 BYTE   Gn3  v112
 BYTE   W03
 BYTE   Gn3  v064
 BYTE   W05
 BYTE   PAN   c_v-48
 BYTE   N03  Bn3  v112
 BYTE   W03
 BYTE   Bn3  v064
 BYTE   W05
 BYTE   Gn4  v112
 BYTE   W03
 BYTE   Gn4  v064
 BYTE   W05
 BYTE   Dn4  v112
 BYTE   W03
 BYTE   Dn4  v064
 BYTE   W05
 BYTE   PAN   c_v+48
 BYTE   N03  Gn3  v112
 BYTE   W03
 BYTE   Gn3  v064
 BYTE   W05
 BYTE   Dn3  v112
 BYTE   W03
 BYTE   Dn3  v064
 BYTE   W05
 BYTE   Fs3  v112
 BYTE   W03
 BYTE   Fs3  v064
 BYTE   W05
 BYTE   PAN   c_v-48
 BYTE   N03  Gn3  v112
 BYTE   W03
 BYTE   Gn3  v064
 BYTE   W05
 BYTE   Gn4  v112
 BYTE   W03
 BYTE   Gn4  v064
 BYTE   W05
 BYTE   Dn4  v112
 BYTE   W03
 BYTE   Dn4  v064
 BYTE   W05
// 004   ----------------------------------------
 BYTE   PATT
  POIN2 Label_6_0100183A
// 005   ----------------------------------------
 BYTE   PATT
  POIN2 Label_6_010017E7
// 006   ----------------------------------------
 BYTE   PATT
  POIN2 Label_6_0100183A
// 007   ----------------------------------------
 BYTE   N03  Bn3  v112
 BYTE   W03
 BYTE   Bn3  v064
 BYTE   W05
 BYTE   An3  v112
 BYTE   W03
 BYTE   An3  v064
 BYTE   W05
 BYTE   Gn3  v112
 BYTE   W03
 BYTE   Gn3  v064
 BYTE   W05
 BYTE   PAN   c_v-48
 BYTE   N03  Bn3  v112
 BYTE   W03
 BYTE   Bn3  v064
 BYTE   W05
 BYTE   En4  v112
 BYTE   W03
 BYTE   En4  v064
 BYTE   W04
Label_6_0100190F:
 BYTE   W01
 BYTE   N03  Bn3  v112
 BYTE   W03
 BYTE   Bn3  v064
 BYTE   W52
 BYTE   W01
// 008   ----------------------------------------
 BYTE   W48
 BYTE   VOICE   68
 BYTE   VOL   41*PokemonDPPtRoute203NightThegis_mvl/mxv
 BYTE   PAN   c_v-15
 BYTE   N15  Ds3  v112
 BYTE   W16
 BYTE   Cs3
 BYTE   W16
 BYTE   Bn2
 BYTE   W16
// 009   ----------------------------------------
 BYTE   N07  As2
 BYTE   W08
 BYTE   N36  Gs2
 BYTE   W16
 BYTE   VOL   39*PokemonDPPtRoute203NightThegis_mvl/mxv
 BYTE   W01
 BYTE   Cs1
 BYTE   W03
 BYTE   Bn0
 BYTE   W04
 BYTE   Gs0
 BYTE   W01
 BYTE   Gn0
 BYTE   W03
 BYTE   Fn0
 BYTE   W01
 BYTE   En0
 BYTE   W03
 BYTE   Cs0
 BYTE   W01
 BYTE   BnM1
 BYTE   W03
 BYTE   AsM1
 BYTE   W04
 BYTE   En1
 BYTE   N30  Ds3
 BYTE   W32
 BYTE   N07  Cs3
 BYTE   W08
 BYTE   Bn2
 BYTE   W08
// 010   ----------------------------------------
 BYTE   N23  As2
 BYTE   W24
 BYTE   N07  Gn2
 BYTE   W08
 BYTE   Gs2
 BYTE   W10
 BYTE   As2
 BYTE   W06
 BYTE   N21  Cs3
 BYTE   W22
 BYTE   N11  Cs3  v056
 BYTE   W24
 BYTE   W02
// 011   ----------------------------------------
 BYTE   N15  As2  v112
 BYTE   W16
 BYTE   N13  Cs3
 BYTE   W16
 BYTE   As2
 BYTE   W16
 BYTE   N07
 BYTE   W08
 BYTE   Gs2
 BYTE   W08
 BYTE   Gs2  v056
 BYTE   W08
 BYTE   Gs2  v112
 BYTE   W08
 BYTE   N15  Gs2  v056
 BYTE   W16
// 012   ----------------------------------------
 BYTE   VOICE   40
 BYTE   W08
 BYTE   N07  Fs2  v112
 BYTE   W08
 BYTE   Fs2  v056
 BYTE   W08
 BYTE   N23  Gs2  v112
 BYTE   W24
 BYTE   VOL   35*PokemonDPPtRoute203NightThegis_mvl/mxv
 BYTE   N15  Ds3
 BYTE   W16
 BYTE   Cs3
 BYTE   W16
 BYTE   N07  Bn2
 BYTE   W08
 BYTE   As2
 BYTE   W08
// 013   ----------------------------------------
 BYTE   Gs2
 BYTE   W08
 BYTE   N15  Fs2
 BYTE   W16
 BYTE   N07  En2
 BYTE   W08
 BYTE   En2  v056
 BYTE   W08
 BYTE   Fn2  v112
 BYTE   W08
 BYTE   N15  Ds3
 BYTE   W16
 BYTE   N07  Cs3
 BYTE   W08
 BYTE   Bn2
 BYTE   W08
 BYTE   Cs3
 BYTE   W08
 BYTE   As2
 BYTE   W08
// 014   ----------------------------------------
 BYTE   N21  As2  v056
 BYTE   W32
 BYTE   N07  Gs2  v112
 BYTE   W08
 BYTE   As2
 BYTE   W08
 BYTE   Cn3
 BYTE   W08
 BYTE   As2
 BYTE   W08
 BYTE   N78  Gs2
 BYTE   W32
// 015   ----------------------------------------
 BYTE   VOL   35*PokemonDPPtRoute203NightThegis_mvl/mxv
 BYTE   W01
 BYTE   As0
 BYTE   W03
 BYTE   An0
 BYTE   W01
 BYTE   Gs0
 BYTE   W03
 BYTE   Fs0
 BYTE   W01
 BYTE   Fn0
 BYTE   W03
 BYTE   En0
 BYTE   W04
 BYTE   Dn0
 BYTE   W04
 BYTE   Cs0
 BYTE   W01
 BYTE   Cn0
 BYTE   W03
 BYTE   AsM1
 BYTE   W01
 BYTE   AnM1
 BYTE   W03
 BYTE   GnM1
 BYTE   W01
 BYTE   FsM1
 BYTE   W03
 BYTE   FnM1
 BYTE   W01
 BYTE   EnM1
 BYTE   W03
 BYTE   DnM1
 BYTE   W01
 BYTE   DnM1
 BYTE   W03
 BYTE   CnM1
 BYTE   W04
 BYTE   BnM2
 BYTE   W04
 BYTE   VOICE   11
 BYTE   PAN   c_v-33
 BYTE   VOL   39*PokemonDPPtRoute203NightThegis_mvl/mxv
 BYTE   N23  Gs3
 BYTE   W24
 BYTE   PAN   c_v+42
 BYTE   N23  Fs3
 BYTE   W24
// 016   ----------------------------------------
 BYTE   PAN   c_v-35
 BYTE   N23  Cn3
 BYTE   W24
 BYTE   PAN   c_v+34
 BYTE   N23  Ds3
 BYTE   W24
 BYTE   VOICE   71
 BYTE   PAN   c_v-8
 BYTE   VOL   48*PokemonDPPtRoute203NightThegis_mvl/mxv
 BYTE   W24
 BYTE   N07  Gs2
 BYTE   W08
 BYTE   Cs3
 BYTE   W08
 BYTE   En3
 BYTE   W08
// 017   ----------------------------------------
 BYTE   N15  Ds3
 BYTE   W16
 BYTE   N03  En3
 BYTE   W04
 BYTE   Ds3
 BYTE   W04
 BYTE   N15  Cs3
 BYTE   W16
 BYTE   N07  Dn3
 BYTE   W08
 BYTE   Ds3
 BYTE   W08
 BYTE   As2
 BYTE   W08
 BYTE   As2  v056
 BYTE   W08
 BYTE   As2  v112
 BYTE   W08
 BYTE   As2  v056
 BYTE   W08
 BYTE   Cs3  v112
 BYTE   W08
// 018   ----------------------------------------
 BYTE   N03  Cn3
 BYTE   W04
 BYTE   Cs3
 BYTE   W04
 BYTE   N36  Cn3
 BYTE   W40
 BYTE   N23  Cn3  v056
 BYTE   W24
 BYTE   N07  Gs2  v112
 BYTE   W08
 BYTE   Cs3
 BYTE   W08
 BYTE   En3
 BYTE   W08
// 019   ----------------------------------------
 BYTE   N15  Fs3
 BYTE   W16
 BYTE   N03  Gs3
 BYTE   W04
 BYTE   Fs3
 BYTE   W04
 BYTE   N23  En3
 BYTE   W24
 BYTE   N30  Ds3
 BYTE   W32
 BYTE   N07  Cn3
 BYTE   W08
 BYTE   Ds3
 BYTE   W08
// 020   ----------------------------------------
 BYTE   N15  Fs3
 BYTE   W16
 BYTE   N07  Cn3
 BYTE   W08
 BYTE   Ds3
 BYTE   W08
 BYTE   N15  Ds3  v056
 BYTE   W16
 BYTE   N07  Bn2  v112
 BYTE   W08
 BYTE   En2
 BYTE   W08
 BYTE   En2  v056
 BYTE   W08
 BYTE   En2  v112
 BYTE   W08
 BYTE   En2  v056
 BYTE   W08
 BYTE   Bn2  v112
 BYTE   W08
// 021   ----------------------------------------
 BYTE   N30  Fs2
 BYTE   W32
 BYTE   N07  En2
 BYTE   W08
 BYTE   Fs2
 BYTE   W08
 BYTE   N44  Gn2
 BYTE   W48
// 022   ----------------------------------------
 BYTE   N36  Bn2
 BYTE   W40
 BYTE   N03  Cs3
 BYTE   W04
 BYTE   Bn2
 BYTE   W04
 BYTE   N07  As2
 BYTE   W08
 BYTE   Cs3
 BYTE   W08
 BYTE   N78  En3
 BYTE   W32
// 023   ----------------------------------------
 BYTE   W96
// 024   ----------------------------------------
 BYTE   W96
// 025   ----------------------------------------
 BYTE   W96
// 026   ----------------------------------------
 BYTE   W96
// 027   ----------------------------------------
 BYTE   W96
// 028   ----------------------------------------
 BYTE   W96
// 029   ----------------------------------------
 BYTE   W96
// 030   ----------------------------------------
 BYTE   W96
// 031   ----------------------------------------
 BYTE   W96
// 032   ----------------------------------------
 BYTE   W48
 BYTE   VOICE   18
 BYTE   VOL   41*PokemonDPPtRoute203NightThegis_mvl/mxv
 BYTE   N44  Cs4
 BYTE   W48
// 033   ----------------------------------------
 BYTE   Ds4
 BYTE   W48
 BYTE   VOICE   1
 BYTE   PAN   c_v-48
 BYTE   VOL   34*PokemonDPPtRoute203NightThegis_mvl/mxv
 BYTE   W24
 BYTE   PAN   c_v+48
 BYTE   W24
// 034   ----------------------------------------
 BYTE   W24
 BYTE   EnM1
 BYTE   W24
 BYTE   En7
 BYTE   W24
 BYTE   EnM1
 BYTE   W24
// 035   ----------------------------------------
 BYTE   W24
 BYTE   En7
 BYTE   W24
 BYTE   EnM1
 BYTE   N03  Gn3
 BYTE   W04
 BYTE   Gn3  v064
 BYTE   W04
 BYTE   Dn3  v112
 BYTE   W04
 BYTE   Dn3  v064
 BYTE   W04
 BYTE   Fs3  v112
 BYTE   W04
 BYTE   Fs3  v064
 BYTE   W04
 BYTE   PAN   c_v+48
 BYTE   N03  Gn3  v112
 BYTE   W04
 BYTE   Gn3  v064
 BYTE   W04
 BYTE   Gn4  v112
 BYTE   W04
 BYTE   Gn4  v064
 BYTE   W04
 BYTE   Dn4  v112
 BYTE   W04
 BYTE   Dn4  v064
 BYTE   W04
// 036   ----------------------------------------
Label_6_01001AD5:
 BYTE   N03  Bn3  v112
 BYTE   W04
 BYTE   Bn3  v064
 BYTE   W04
 BYTE   An3  v112
 BYTE   W04
 BYTE   An3  v064
 BYTE   W04
 BYTE   Gn3  v112
 BYTE   W04
 BYTE   Gn3  v064
 BYTE   W04
 BYTE   PAN   c_v-48
 BYTE   N03  Bn3  v112
 BYTE   W04
 BYTE   Bn3  v064
 BYTE   W04
 BYTE   Gn4  v112
 BYTE   W04
 BYTE   Gn4  v064
 BYTE   W04
 BYTE   Dn4  v112
 BYTE   W04
 BYTE   Dn4  v064
 BYTE   W04
 BYTE   PAN   c_v+48
 BYTE   N03  Gn3  v112
 BYTE   W04
 BYTE   Gn3  v064
 BYTE   W04
 BYTE   Dn3  v112
 BYTE   W04
 BYTE   Dn3  v064
 BYTE   W04
 BYTE   Fs3  v112
 BYTE   W04
 BYTE   Fs3  v064
 BYTE   W04
 BYTE   PAN   c_v-48
 BYTE   N03  Gn3  v112
 BYTE   W04
 BYTE   Gn3  v064
 BYTE   W04
 BYTE   Gn4  v112
 BYTE   W04
 BYTE   Gn4  v064
 BYTE   W04
 BYTE   Dn4  v112
 BYTE   W04
 BYTE   Dn4  v064
 BYTE   W04
 BYTE   PEND 
// 037   ----------------------------------------
Label_6_01001B28:
 BYTE   N03  Cn4  v112
 BYTE   W04
 BYTE   Cn4  v064
 BYTE   W04
 BYTE   Bn3  v112
 BYTE   W04
 BYTE   Bn3  v064
 BYTE   W04
 BYTE   An3  v112
 BYTE   W04
 BYTE   An3  v064
 BYTE   W04
 BYTE   PAN   c_v+48
 BYTE   N03  Cn4  v112
 BYTE   W04
 BYTE   Cn4  v064
 BYTE   W04
 BYTE   Gn4  v112
 BYTE   W04
 BYTE   Gn4  v064
 BYTE   W04
 BYTE   Dn4  v112
 BYTE   W04
 BYTE   Dn4  v064
 BYTE   W04
 BYTE   PAN   c_v-48
 BYTE   N03  Gn3  v112
 BYTE   W04
 BYTE   Gn3  v064
 BYTE   W04
 BYTE   Dn3  v112
 BYTE   W04
 BYTE   Dn3  v064
 BYTE   W04
 BYTE   Fs3  v112
 BYTE   W04
 BYTE   Fs3  v064
 BYTE   W04
 BYTE   PAN   c_v+48
 BYTE   N03  Gn3  v112
 BYTE   W04
 BYTE   Gn3  v064
 BYTE   W04
 BYTE   Gn4  v112
 BYTE   W04
 BYTE   Gn4  v064
 BYTE   W04
 BYTE   Dn4  v112
 BYTE   W04
 BYTE   Dn4  v064
 BYTE   W04
 BYTE   PEND 
// 038   ----------------------------------------
Label_6_01001B7B:
 BYTE   N03  Cn4  v112
 BYTE   W04
 BYTE   Cn4  v064
 BYTE   W04
 BYTE   Bn3  v112
 BYTE   W04
 BYTE   Bn3  v064
 BYTE   W04
 BYTE   An3  v112
 BYTE   W04
 BYTE   An3  v064
 BYTE   W04
 BYTE   PAN   c_v-48
 BYTE   N03  Cn4  v112
 BYTE   W04
 BYTE   Cn4  v064
 BYTE   W04
 BYTE   Gn4  v112
 BYTE   W04
 BYTE   Gn4  v064
 BYTE   W04
 BYTE   Dn4  v112
 BYTE   W04
 BYTE   Dn4  v064
 BYTE   W04
 BYTE   PAN   c_v+48
 BYTE   N03  Gn3  v112
 BYTE   W04
 BYTE   Gn3  v064
 BYTE   W04
 BYTE   Dn3  v112
 BYTE   W04
 BYTE   Dn3  v064
 BYTE   W04
 BYTE   Fs3  v112
 BYTE   W04
 BYTE   Fs3  v064
 BYTE   W04
 BYTE   PAN   c_v-48
 BYTE   N03  Gn3  v112
 BYTE   W04
 BYTE   Gn3  v064
 BYTE   W04
 BYTE   Gn4  v112
 BYTE   W04
 BYTE   Gn4  v064
 BYTE   W04
 BYTE   Dn4  v112
 BYTE   W04
 BYTE   Dn4  v064
 BYTE   W04
 BYTE   PEND 
// 039   ----------------------------------------
 BYTE   PATT
  POIN2 Label_6_01001B28
// 040   ----------------------------------------
 BYTE   PATT
  POIN2 Label_6_01001AD5
// 041   ----------------------------------------
 BYTE   PATT
  POIN2 Label_6_01001B28
// 042   ----------------------------------------
 BYTE   PATT
  POIN2 Label_6_01001B7B
// 043   ----------------------------------------
 BYTE   PATT
  POIN2 Label_6_01001B28
// 044   ----------------------------------------
 BYTE   PATT
  POIN2 Label_6_01001AD5
// 045   ----------------------------------------
 BYTE   PATT
  POIN2 Label_6_01001B28
// 046   ----------------------------------------
 BYTE   PATT
  POIN2 Label_6_01001B7B
// 047   ----------------------------------------
 BYTE   PATT
  POIN2 Label_6_01001B28
// 048   ----------------------------------------
 BYTE   N03  Bn3  v112
 BYTE   W04
 BYTE   Bn3  v064
 BYTE   W04
 BYTE   Gn3  v112
 BYTE   W04
 BYTE   Gn3  v064
 BYTE   W04
 BYTE   Bn3  v112
 BYTE   W04
 BYTE   Bn3  v064
 BYTE   W04
 BYTE   PAN   c_v-48
 BYTE   W15
 BYTE   GoTo
  POIN2 Label_6_0100190F
// 049   ----------------------------------------
 BYTE   W08
 BYTE   FINE

//**************** Track 8 (Midi-Chn.7) ****************//

PokemonDPPtRoute203NightThegis_008:
// 000   ----------------------------------------
 BYTE   KEYSH   PokemonDPPtRoute203NightThegis_key+0
 BYTE   VOICE   123
 BYTE   PAN   c_v+0
 BYTE   MOD 0
 BYTE   CnM2
 BYTE   VOL   54*PokemonDPPtRoute203NightThegis_mvl/mxv
 BYTE   W48
 BYTE   N21  Cn1  v127
 BYTE   N07  Fs1  v092
 BYTE   W08
 BYTE   Fs1  v032
 BYTE   W08
 BYTE   Fs1  v044
 BYTE   W08
 BYTE   N15  En1  v127
 BYTE   N07  Fs1  v076
 BYTE   W08
 BYTE   As1  v088
 BYTE   W08
 BYTE   N15  Dn1  v127
 BYTE   N07  Fs1  v040
 BYTE   W08
// 001   ----------------------------------------
Label_7_01001C41:
 BYTE   N19  Cn1  v127
 BYTE   N07  Fs1  v080
 BYTE   W08
 BYTE   N15  Dn1  v127
 BYTE   N07  Fs1  v028
 BYTE   W08
 BYTE   Fs1  v044
 BYTE   W08
 BYTE   N15  En1  v127
 BYTE   N07  Fs1  v080
 BYTE   W08
 BYTE   As1  v088
 BYTE   W08
 BYTE   Dn1  v127
 BYTE   N07  Fs1  v040
 BYTE   W08
 BYTE   N21  Cn1  v127
 BYTE   N07  Fs1  v092
 BYTE   W08
 BYTE   Fs1  v032
 BYTE   W08
 BYTE   Fs1  v044
 BYTE   W08
 BYTE   N15  En1  v127
 BYTE   N07  Fs1  v076
 BYTE   W08
 BYTE   As1  v088
 BYTE   W08
 BYTE   N15  Dn1  v127
 BYTE   N07  Fs1  v040
 BYTE   W08
 BYTE   PEND 
// 002   ----------------------------------------
Label_7_01001C81:
 BYTE   N19  Cn1  v127
 BYTE   N07  Fs1  v080
 BYTE   W08
 BYTE   N15  Dn1  v127
 BYTE   N07  Fs1  v028
 BYTE   W08
 BYTE   Fs1  v044
 BYTE   W08
 BYTE   N15  Dn1  v127
 BYTE   N07  Fs1  v080
 BYTE   W08
 BYTE   As1  v088
 BYTE   W08
 BYTE   En1  v127
 BYTE   N07  Fs1  v040
 BYTE   W08
 BYTE   N21  Cn1  v127
 BYTE   N07  Fs1  v092
 BYTE   W08
 BYTE   Fs1  v032
 BYTE   W08
 BYTE   Fs1  v044
 BYTE   W08
 BYTE   N15  Dn1  v127
 BYTE   N07  Fs1  v076
 BYTE   W08
 BYTE   As1  v088
 BYTE   W08
 BYTE   N15  En1  v127
 BYTE   N07  Fs1  v040
 BYTE   W08
 BYTE   PEND 
// 003   ----------------------------------------
Label_7_01001CC1:
 BYTE   N19  Cn1  v127
 BYTE   N07  Fs1  v080
 BYTE   W08
 BYTE   N15  En1  v127
 BYTE   N07  Fs1  v028
 BYTE   W08
 BYTE   Fs1  v044
 BYTE   W08
 BYTE   N15  Dn1  v127
 BYTE   N07  Fs1  v080
 BYTE   W08
 BYTE   As1  v088
 BYTE   W08
 BYTE   En1  v127
 BYTE   N07  Fs1  v040
 BYTE   W08
 BYTE   N21  Cn1  v127
 BYTE   N07  Fs1  v092
 BYTE   W08
 BYTE   Fs1  v032
 BYTE   W08
 BYTE   Fs1  v044
 BYTE   W08
 BYTE   N15  Dn1  v127
 BYTE   N07  Fs1  v076
 BYTE   W08
 BYTE   As1  v088
 BYTE   W08
 BYTE   N15  En1  v127
 BYTE   N07  Fs1  v040
 BYTE   W08
 BYTE   PEND 
// 004   ----------------------------------------
Label_7_01001D01:
 BYTE   N19  Cn1  v127
 BYTE   N07  Fs1  v080
 BYTE   W08
 BYTE   N15  En1  v127
 BYTE   N07  Fs1  v028
 BYTE   W08
 BYTE   Fs1  v044
 BYTE   W08
 BYTE   N15  Dn1  v127
 BYTE   N07  Fs1  v080
 BYTE   W08
 BYTE   As1  v088
 BYTE   W08
 BYTE   En1  v127
 BYTE   N07  Fs1  v040
 BYTE   W08
 BYTE   N21  Cn1  v127
 BYTE   N07  Fs1  v092
 BYTE   W08
 BYTE   Fs1  v032
 BYTE   W08
 BYTE   Fs1  v044
 BYTE   W08
 BYTE   N15  En1  v127
 BYTE   N07  Fs1  v076
 BYTE   W08
 BYTE   As1  v088
 BYTE   W08
 BYTE   N15  Dn1  v127
 BYTE   N07  Fs1  v040
 BYTE   W08
 BYTE   PEND 
// 005   ----------------------------------------
Label_7_01001D41:
 BYTE   N19  Cn1  v127
 BYTE   N07  Fs1  v080
 BYTE   W08
 BYTE   N15  Dn1  v127
 BYTE   N07  Fs1  v028
 BYTE   W08
 BYTE   Fs1  v044
 BYTE   W08
 BYTE   N15  En1  v127
 BYTE   N07  Fs1  v080
 BYTE   W08
 BYTE   As1  v088
 BYTE   W08
 BYTE   N15  Dn1  v127
 BYTE   N07  Fs1  v040
 BYTE   W08
 BYTE   N21  Cn1  v127
 BYTE   N07  Fs1  v092
 BYTE   W08
 BYTE   Fs1  v032
 BYTE   W08
 BYTE   Fs1  v044
 BYTE   W08
 BYTE   N15  En1  v127
 BYTE   N07  Fs1  v076
 BYTE   W08
 BYTE   As1  v088
 BYTE   W08
 BYTE   N15  Dn1  v127
 BYTE   N07  Fs1  v040
 BYTE   W08
 BYTE   PEND 
// 006   ----------------------------------------
Label_7_01001D82:
 BYTE   N19  Cn1  v127
 BYTE   N07  Fs1  v080
 BYTE   W08
 BYTE   N15  Dn1  v127
 BYTE   N07  Fs1  v028
 BYTE   W08
 BYTE   Fs1  v044
 BYTE   W08
 BYTE   N15  En1  v127
 BYTE   N07  Fs1  v080
 BYTE   W08
 BYTE   As1  v088
 BYTE   W08
 BYTE   Dn1  v127
 BYTE   N07  Fs1  v040
 BYTE   W08
 BYTE   N21  Cn1  v127
 BYTE   N07  Fs1  v092
 BYTE   W08
 BYTE   Fs1  v032
 BYTE   W08
 BYTE   Fs1  v044
 BYTE   W08
 BYTE   N15  Dn1  v127
 BYTE   N07  Fs1  v076
 BYTE   W08
 BYTE   As1  v088
 BYTE   W08
 BYTE   N15  En1  v127
 BYTE   N07  Fs1  v040
 BYTE   W08
 BYTE   PEND 
// 007   ----------------------------------------
Label_7_01001DC2:
 BYTE   N19  Cn1  v127
 BYTE   N07  Fs1  v080
 BYTE   W08
 BYTE   N15  En1  v127
 BYTE   N07  Fs1  v028
 BYTE   W08
 BYTE   Fs1  v044
 BYTE   W08
 BYTE   N15  Dn1  v127
 BYTE   N07  Fs1  v080
 BYTE   W08
 BYTE   As1  v088
 BYTE   W07
 BYTE   PEND 
Label_7_01001DDE:
 BYTE   W01
 BYTE   N07  En1  v127
 BYTE   N07  Fs1  v040
 BYTE   W08
 BYTE   Dn2  v116
 BYTE   W08
 BYTE   N15  Cn2
 BYTE   W16
 BYTE   N07  Bn1  v112
 BYTE   N36  An2
 BYTE   W08
 BYTE   N07  An1
 BYTE   W08
 BYTE   Gn1
 BYTE   W08
// 008   ----------------------------------------
 BYTE   An1  v127
 BYTE   W08
 BYTE   N07
 BYTE   W08
 BYTE   Gn1  v112
 BYTE   W08
 BYTE   N15  Cn1  v127
 BYTE   N15  As1  v096
 BYTE   W16
 BYTE   N07  Cn1  v112
 BYTE   N07  Fn1
 BYTE   W08
 BYTE   Cn1  v120
 BYTE   N07  Fs1  v084
 BYTE   W16
 BYTE   Fs1  v048
 BYTE   W08
 BYTE   N23  As1  v112
 BYTE   W24
// 009   ----------------------------------------
 BYTE   N07  Fs1  v080
 BYTE   W08
 BYTE   Fs1  v036
 BYTE   W08
 BYTE   Fs1  v060
 BYTE   W08
 BYTE   N23  As1  v112
 BYTE   W16
 BYTE   N07  Cn1
 BYTE   W08
 BYTE   N15  Cn1  v127
 BYTE   N07  Fs1  v080
 BYTE   W08
 BYTE   Fs1  v024
 BYTE   W08
 BYTE   Fs1  v040
 BYTE   W08
 BYTE   Fs1  v080
 BYTE   W08
 BYTE   Fs1  v032
 BYTE   W08
 BYTE   Fs1  v036
 BYTE   W08
// 010   ----------------------------------------
 BYTE   N15  Cn1  v112
 BYTE   N07  Fs1  v080
 BYTE   W08
 BYTE   Fs1  v028
 BYTE   W08
 BYTE   Fs1  v044
 BYTE   W08
 BYTE   Cn1  v112
 BYTE   N23  As1
 BYTE   W16
 BYTE   N07  Cn1  v116
 BYTE   W08
 BYTE   N15  Cn1  v127
 BYTE   W24
 BYTE   N07  Cn1  v112
 BYTE   W16
 BYTE   Cn1  v096
 BYTE   W08
// 011   ----------------------------------------
 BYTE   N15  Cn1  v127
 BYTE   W48
 BYTE   N07  Cn1  v112
 BYTE   W08
 BYTE   En1
 BYTE   W16
 BYTE   N07
 BYTE   W16
 BYTE   Cn1
 BYTE   W08
// 012   ----------------------------------------
 BYTE   Dn1
 BYTE   W08
 BYTE   N07
 BYTE   W08
 BYTE   Cn1
 BYTE   W08
 BYTE   En1
 BYTE   W08
 BYTE   N07
 BYTE   W08
 BYTE   N07
 BYTE   W08
 BYTE   Cn1  v127
 BYTE   N07  Fs1  v104
 BYTE   W08
 BYTE   Fs1  v076
 BYTE   W08
 BYTE   Cn1
 BYTE   N01  Fs1
 BYTE   W04
 BYTE   Fs1  v060
 BYTE   W04
 BYTE   N07  Fs1  v096
 BYTE   W08
 BYTE   Dn1  v112
 BYTE   W08
 BYTE   N01  Fs1  v028
 BYTE   W08
// 013   ----------------------------------------
 BYTE   N07  Cn1  v112
 BYTE   N07  Fs1
 BYTE   W08
 BYTE   Cn1
 BYTE   W08
 BYTE   Fs1  v060
 BYTE   W08
 BYTE   N15  En1  v112
 BYTE   N07  Fs1
 BYTE   W16
 BYTE   Cn1
 BYTE   N07  Fs1  v076
 BYTE   W08
 BYTE   Cn1  v127
 BYTE   N07  Fs1  v104
 BYTE   W16
 BYTE   Cn1  v112
 BYTE   N07  Fs1  v048
 BYTE   W08
 BYTE   Fs1  v096
 BYTE   W08
 BYTE   Dn1  v112
 BYTE   N07  Fs1  v028
 BYTE   W08
 BYTE   Fs1  v076
 BYTE   W08
// 014   ----------------------------------------
 BYTE   Cn1  v112
 BYTE   N07  Fs1
 BYTE   W08
 BYTE   Cn1
 BYTE   W08
 BYTE   Fs1  v060
 BYTE   W08
 BYTE   N15  En1  v112
 BYTE   N07  Fs1
 BYTE   W16
 BYTE   Cn1
 BYTE   N07  Fs1  v076
 BYTE   W08
 BYTE   Cn1  v127
 BYTE   N07  Fs1  v104
 BYTE   W08
 BYTE   Cn1  v112
 BYTE   W08
 BYTE   Fs1  v048
 BYTE   W08
 BYTE   Fs1  v096
 BYTE   W08
 BYTE   Dn1  v112
 BYTE   N07  Fs1  v028
 BYTE   W16
// 015   ----------------------------------------
 BYTE   Cn1  v112
 BYTE   N07  Fs1
 BYTE   W08
 BYTE   Cn1
 BYTE   W08
 BYTE   Fs1  v060
 BYTE   W08
 BYTE   N15  En1  v112
 BYTE   N07  Fs1
 BYTE   W08
 BYTE   Fs1  v076
 BYTE   W08
 BYTE   Cn1  v112
 BYTE   N07  Fs1  v076
 BYTE   W08
 BYTE   Cn1  v127
 BYTE   N07  Fs1  v104
 BYTE   W08
 BYTE   Fs1  v076
 BYTE   W08
 BYTE   Cn1  v112
 BYTE   N01  Fs1  v076
 BYTE   W04
 BYTE   Fs1  v060
 BYTE   W04
 BYTE   N07  Fs1  v096
 BYTE   W08
 BYTE   Dn1  v112
 BYTE   W08
 BYTE   N01  Fs1  v028
 BYTE   W08
// 016   ----------------------------------------
 BYTE   N07  Cn1  v112
 BYTE   N07  Fs1
 BYTE   W08
 BYTE   Cn1
 BYTE   W08
 BYTE   Fs1  v060
 BYTE   W08
 BYTE   N15  En1  v112
 BYTE   N07  Fs1
 BYTE   W08
 BYTE   Fs1  v076
 BYTE   W08
 BYTE   N03  Dn1  v112
 BYTE   N07  Fs1  v076
 BYTE   W04
 BYTE   N03  Dn1  v112
 BYTE   W04
 BYTE   N07  Cn1
 BYTE   N07  Dn1
 BYTE   W16
 BYTE   Cn1
 BYTE   N07  Dn1
 BYTE   W08
 BYTE   N07
 BYTE   W08
 BYTE   En1
 BYTE   W08
 BYTE   Dn1
 BYTE   W08
// 017   ----------------------------------------
Label_7_01001F52:
 BYTE   N07  Cn1  v112
 BYTE   N07  Dn1
 BYTE   W16
 BYTE   N07
 BYTE   W08
 BYTE   N03  Dn1  v124
 BYTE   W04
 BYTE   Dn1  v076
 BYTE   W04
 BYTE   N03
 BYTE   W04
 BYTE   N03
 BYTE   W04
 BYTE   N07  Cn1  v112
 BYTE   N03  Dn1  v076
 BYTE   W04
 BYTE   N03
 BYTE   W04
 BYTE   N07  Cn1  v112
 BYTE   N07  Dn1
 BYTE   W08
 BYTE   N07
 BYTE   W08
 BYTE   Cn1
 BYTE   N07  Dn1
 BYTE   W08
 BYTE   En1
 BYTE   W16
 BYTE   Dn1
 BYTE   W08
 BYTE   PEND 
// 018   ----------------------------------------
 BYTE   Cn1
 BYTE   N07  Dn1
 BYTE   W08
 BYTE   En1
 BYTE   W08
 BYTE   Dn1
 BYTE   W08
 BYTE   En1
 BYTE   W08
 BYTE   N07
 BYTE   W08
 BYTE   Cn1
 BYTE   W08
 BYTE   N07
 BYTE   N07  Dn1
 BYTE   W16
 BYTE   Cn1
 BYTE   N07  Dn1
 BYTE   W08
 BYTE   N07
 BYTE   W08
 BYTE   En1
 BYTE   W08
 BYTE   Dn1
 BYTE   W08
// 019   ----------------------------------------
 BYTE   PATT
  POIN2 Label_7_01001F52
// 020   ----------------------------------------
 BYTE   N07  Cn1  v112
 BYTE   N07  Dn1
 BYTE   W16
 BYTE   N07
 BYTE   W08
 BYTE   N03  Dn1  v124
 BYTE   W04
 BYTE   Dn1  v076
 BYTE   W04
 BYTE   N03
 BYTE   W04
 BYTE   N03
 BYTE   W04
 BYTE   N07  Cn1  v112
 BYTE   N03  Dn1  v076
 BYTE   W04
 BYTE   N03
 BYTE   W04
 BYTE   N07  Cn1  v112
 BYTE   N07  Dn1
 BYTE   W16
 BYTE   Cn1
 BYTE   N07  Dn1
 BYTE   W08
 BYTE   En1
 BYTE   W08
 BYTE   Dn1
 BYTE   W08
 BYTE   N07
 BYTE   W08
// 021   ----------------------------------------
 BYTE   Cn1
 BYTE   N07  Dn1
 BYTE   W16
 BYTE   Cn1
 BYTE   W08
 BYTE   N03  Dn1  v124
 BYTE   W04
 BYTE   Dn1  v076
 BYTE   W04
 BYTE   N03
 BYTE   W04
 BYTE   N03
 BYTE   W04
 BYTE   N07  Cn1  v112
 BYTE   N03  Dn1  v076
 BYTE   W04
 BYTE   N03
 BYTE   W04
 BYTE   N07  Cn1  v112
 BYTE   N07  Dn1
 BYTE   W08
 BYTE   N07
 BYTE   W08
 BYTE   Cn1
 BYTE   N07  Dn1
 BYTE   W08
 BYTE   En1
 BYTE   W16
 BYTE   N07
 BYTE   W08
// 022   ----------------------------------------
 BYTE   Cn1
 BYTE   N07  Dn1
 BYTE   W16
 BYTE   N07
 BYTE   W08
 BYTE   N03  Dn1  v124
 BYTE   W04
 BYTE   Dn1  v076
 BYTE   W04
 BYTE   N03
 BYTE   W04
 BYTE   N03
 BYTE   W04
 BYTE   N07  Cn1  v112
 BYTE   N03  Dn1  v076
 BYTE   W04
 BYTE   N03
 BYTE   W04
 BYTE   N07  Cn1  v112
 BYTE   N07  Dn1
 BYTE   W16
 BYTE   Cn1
 BYTE   N07  Dn1
 BYTE   W08
 BYTE   En1
 BYTE   W16
 BYTE   Dn1
 BYTE   W08
// 023   ----------------------------------------
 BYTE   Cn1
 BYTE   N07  Dn1
 BYTE   W16
 BYTE   N07
 BYTE   W08
 BYTE   En1
 BYTE   W16
 BYTE   Cn1
 BYTE   W08
 BYTE   N07
 BYTE   N07  En1
 BYTE   W08
 BYTE   N07
 BYTE   W08
 BYTE   Cn1
 BYTE   N07  Dn1
 BYTE   W08
 BYTE   En1
 BYTE   W16
 BYTE   Dn1
 BYTE   W08
// 024   ----------------------------------------
 BYTE   Cn1
 BYTE   N07  Dn1
 BYTE   W16
 BYTE   N07
 BYTE   W08
 BYTE   N03  Dn1  v124
 BYTE   W04
 BYTE   Dn1  v076
 BYTE   W04
 BYTE   N03
 BYTE   W04
 BYTE   N03
 BYTE   W04
 BYTE   N07  Cn1  v112
 BYTE   N03  Dn1  v076
 BYTE   W04
 BYTE   N03
 BYTE   W04
 BYTE   N07  Cn1  v112
 BYTE   N07  Fs1  v092
 BYTE   W08
 BYTE   Cn1  v112
 BYTE   W08
 BYTE   Dn1
 BYTE   N07  Fs1  v056
 BYTE   W08
 BYTE   N23  Cs2  v084
 BYTE   N15  Bn4  v108
 BYTE   W16
 BYTE   N07  Cn1  v112
 BYTE   W08
// 025   ----------------------------------------
Label_7_0100206A:
 BYTE   N07  Cn1  v112
 BYTE   N03  Fs1  v092
 BYTE   W04
 BYTE   Fs1  v064
 BYTE   W04
 BYTE   N07  Fs1  v056
 BYTE   W08
 BYTE   Cn1  v112
 BYTE   N07  Fs1  v056
 BYTE   W08
 BYTE   Ds1  v112
 BYTE   N07  Fs1  v092
 BYTE   W08
 BYTE   Fs1  v056
 BYTE   W08
 BYTE   En1  v112
 BYTE   N07  As1  v084
 BYTE   W08
 BYTE   Cn1  v112
 BYTE   N07  Fs1  v092
 BYTE   W08
 BYTE   Cn1  v112
 BYTE   W08
 BYTE   Dn1
 BYTE   N07  Fs1  v056
 BYTE   W08
 BYTE   Ds1  v112
 BYTE   N23  As1  v084
 BYTE   W08
 BYTE   N07  Ds1  v112
 BYTE   W08
 BYTE   Cn1
 BYTE   W08
 BYTE   PEND 
// 026   ----------------------------------------
Label_7_010020A8:
 BYTE   N07  Cn1  v112
 BYTE   N03  Fs1  v092
 BYTE   W04
 BYTE   Fs1  v064
 BYTE   W04
 BYTE   N07  Fs1  v056
 BYTE   W08
 BYTE   Cn1  v112
 BYTE   N07  Fs1  v056
 BYTE   W08
 BYTE   En1  v112
 BYTE   N07  Fs1  v092
 BYTE   W08
 BYTE   Ds1  v112
 BYTE   N07  Fs1  v056
 BYTE   W08
 BYTE   Cn1  v112
 BYTE   N07  As1  v084
 BYTE   W08
 BYTE   Cn1  v112
 BYTE   N07  Fs1  v092
 BYTE   W08
 BYTE   Cn1  v112
 BYTE   W08
 BYTE   Dn1
 BYTE   N07  Fs1  v056
 BYTE   W08
 BYTE   N23  As1  v084
 BYTE   W16
 BYTE   N07  Cn1  v112
 BYTE   W08
 BYTE   PEND 
// 027   ----------------------------------------
 BYTE   PATT
  POIN2 Label_7_0100206A
// 028   ----------------------------------------
 BYTE   N07  Cn1  v112
 BYTE   N03  Fs1  v092
 BYTE   W04
 BYTE   Fs1  v064
 BYTE   W04
 BYTE   N07  Fs1  v056
 BYTE   W08
 BYTE   Cn1  v112
 BYTE   N07  Fs1  v056
 BYTE   W08
 BYTE   En1  v112
 BYTE   N07  Fs1  v092
 BYTE   W08
 BYTE   Ds1  v112
 BYTE   N07  Fs1  v056
 BYTE   W08
 BYTE   Cn1  v112
 BYTE   N07  As1  v084
 BYTE   W08
 BYTE   Cn1  v112
 BYTE   N07  Fs1  v092
 BYTE   W08
 BYTE   Ds1  v112
 BYTE   W08
 BYTE   Dn1
 BYTE   N07  Fs1  v056
 BYTE   W08
 BYTE   N23  As1  v084
 BYTE   W16
 BYTE   N07  Cn1  v112
 BYTE   W08
// 029   ----------------------------------------
 BYTE   N07
 BYTE   N03  Fs1  v092
 BYTE   W04
 BYTE   Fs1  v064
 BYTE   W04
 BYTE   N07  Fs1  v056
 BYTE   W08
 BYTE   Cn1  v112
 BYTE   N07  Fs1  v056
 BYTE   W08
 BYTE   Ds1  v112
 BYTE   N07  Fs1  v092
 BYTE   W08
 BYTE   Fs1  v056
 BYTE   W08
 BYTE   En1  v112
 BYTE   N07  As1  v084
 BYTE   W08
 BYTE   Cn1  v112
 BYTE   N07  Fs1  v092
 BYTE   W08
 BYTE   Ds1  v112
 BYTE   W08
 BYTE   Dn1
 BYTE   N07  Fs1  v056
 BYTE   W08
 BYTE   Ds1  v112
 BYTE   N23  As1  v084
 BYTE   W08
 BYTE   N07  Ds1  v112
 BYTE   W08
 BYTE   Cn1
 BYTE   W08
// 030   ----------------------------------------
 BYTE   PATT
  POIN2 Label_7_010020A8
// 031   ----------------------------------------
 BYTE   PATT
  POIN2 Label_7_0100206A
// 032   ----------------------------------------
 BYTE   N07  Cn1  v112
 BYTE   N03  Fs1  v092
 BYTE   W04
 BYTE   Fs1  v064
 BYTE   W04
 BYTE   N07  Fs1  v056
 BYTE   W08
 BYTE   Cn1  v112
 BYTE   N07  Fs1  v056
 BYTE   W08
 BYTE   En1  v112
 BYTE   N07  Fs1  v092
 BYTE   W08
 BYTE   Ds1  v112
 BYTE   N07  Fs1  v056
 BYTE   W08
 BYTE   Cn1  v112
 BYTE   N07  As1  v084
 BYTE   W08
 BYTE   VOL   56*PokemonDPPtRoute203NightThegis_mvl/mxv
 BYTE   N03  Dn2  v112
 BYTE   W04
 BYTE   N03
 BYTE   W04
 BYTE   N07  Bn1
 BYTE   W08
 BYTE   Cn1
 BYTE   W08
 BYTE   An1
 BYTE   N23  En2
 BYTE   W08
 BYTE   N07  Cn1
 BYTE   W08
 BYTE   En1
 BYTE   W08
// 033   ----------------------------------------
 BYTE   N03  Cn2
 BYTE   W04
 BYTE   N03
 BYTE   W04
 BYTE   N07  An1
 BYTE   W08
 BYTE   Gn1
 BYTE   W08
 BYTE   Fn1
 BYTE   N23  As2  v120
 BYTE   W08
 BYTE   N07  Cn1  v112
 BYTE   W08
 BYTE   N07
 BYTE   W08
 BYTE   VOL   51*PokemonDPPtRoute203NightThegis_mvl/mxv
 BYTE   N21  Cn1  v127
 BYTE   N07  Fs1  v092
 BYTE   W08
 BYTE   Fs1  v032
 BYTE   W08
 BYTE   Fs1  v044
 BYTE   W08
 BYTE   N15  En1  v127
 BYTE   N07  Fs1  v076
 BYTE   W08
 BYTE   As1  v088
 BYTE   W08
 BYTE   N15  Dn1  v127
 BYTE   N07  Fs1  v040
 BYTE   W08
// 034   ----------------------------------------
 BYTE   PATT
  POIN2 Label_7_01001C41
// 035   ----------------------------------------
 BYTE   PATT
  POIN2 Label_7_01001C81
// 036   ----------------------------------------
 BYTE   PATT
  POIN2 Label_7_01001CC1
// 037   ----------------------------------------
 BYTE   PATT
  POIN2 Label_7_01001D01
// 038   ----------------------------------------
 BYTE   PATT
  POIN2 Label_7_01001C41
// 039   ----------------------------------------
 BYTE   PATT
  POIN2 Label_7_01001C81
// 040   ----------------------------------------
 BYTE   PATT
  POIN2 Label_7_01001CC1
// 041   ----------------------------------------
 BYTE   PATT
  POIN2 Label_7_01001D01
// 042   ----------------------------------------
 BYTE   PATT
  POIN2 Label_7_01001C41
// 043   ----------------------------------------
 BYTE   PATT
  POIN2 Label_7_01001C81
// 044   ----------------------------------------
 BYTE   PATT
  POIN2 Label_7_01001CC1
// 045   ----------------------------------------
 BYTE   PATT
  POIN2 Label_7_01001D01
// 046   ----------------------------------------
 BYTE   PATT
  POIN2 Label_7_01001D41
// 047   ----------------------------------------
 BYTE   PATT
  POIN2 Label_7_01001D82
// 048   ----------------------------------------
 BYTE   PATT
  POIN2 Label_7_01001DC2
// 049   ----------------------------------------
 BYTE   GoTo
  POIN2 Label_7_01001DDE
// 050   ----------------------------------------
 BYTE   W01
 BYTE   N07  En1  v127
 BYTE   N07  Fs1  v040
 BYTE   W07
 BYTE   FINE

//******************************************************//
	ALIGN 4

PokemonDPPtRoute203NightThegis:
	BYTE	8	// NumTrks
	BYTE	0	// NumBlks
	BYTE	PokemonDPPtRoute203NightThegis_pri	// Priority
	BYTE	PokemonDPPtRoute203NightThegis_rev	// Reverb.
    
	POIN2	PokemonDPPtRoute203NightThegis_grp
    
	POIN2	PokemonDPPtRoute203NightThegis_001
	POIN2	PokemonDPPtRoute203NightThegis_002
	POIN2	PokemonDPPtRoute203NightThegis_003
	POIN2	PokemonDPPtRoute203NightThegis_004
	POIN2	PokemonDPPtRoute203NightThegis_005
	POIN2	PokemonDPPtRoute203NightThegis_006
	POIN2	PokemonDPPtRoute203NightThegis_007
	POIN2	PokemonDPPtRoute203NightThegis_008

	
