//Event file generated from Sappy .s format.
	#include "MPlayDef.event"

	#define	PokemonBWNsCastleThegis_grp  voicegroup000
	#define	PokemonBWNsCastleThegis_pri  0
	#define	PokemonBWNsCastleThegis_rev  0
	#define	PokemonBWNsCastleThegis_mvl  127
	#define	PokemonBWNsCastleThegis_key  0
	#define	PokemonBWNsCastleThegis_tbs  1
	#define	PokemonBWNsCastleThegis_exg  0
	#define	PokemonBWNsCastleThegis_cmp  1

	// .rodata
	//	PokemonBWNsCastleThegis
	ALIGN 4


//**************** Track 1 (Midi-Chn.0) ****************//

PokemonBWNsCastleThegis_001:
// 000   ----------------------------------------
 BYTE   KEYSH   PokemonBWNsCastleThegis_key+0
 BYTE   TEMPO   130*PokemonBWNsCastleThegis_tbs/2
 BYTE   VOICE   49
 BYTE   VOL   65*PokemonBWNsCastleThegis_mvl/mxv
 BYTE   PAN   c_v-44
 BYTE   MOD 0
 BYTE   CnM2  v000
 BYTE   N05  Gn4  v100
 BYTE   N05  Cs5  v108
 BYTE   W08
 BYTE   Cs4  v084
 BYTE   N05  Gn4  v092
 BYTE   W08
 BYTE   En4
 BYTE   N05  As4  v100
 BYTE   W08
 BYTE   As3  v092
 BYTE   N05  En4  v100
 BYTE   W08
 BYTE   En4  v084
 BYTE   N05  As4  v092
 BYTE   W08
 BYTE   Dn4  v088
 BYTE   N05  Gs4  v096
 BYTE   W08
 BYTE   Gs3
 BYTE   N05  Dn4  v104
 BYTE   W08
 BYTE   Cs4  v084
 BYTE   N05  Gn4  v092
 BYTE   W08
 BYTE   Cn4
 BYTE   N05  Fs4  v100
 BYTE   W08
 BYTE   Fs3  v096
 BYTE   N05  Cn4  v104
 BYTE   W08
 BYTE   Bn3  v084
 BYTE   N05  Fn4  v092
 BYTE   W08
 BYTE   As3  v088
 BYTE   N05  En4  v096
 BYTE   W08
// 001   ----------------------------------------
 BYTE   W96
// 002   ----------------------------------------
 BYTE   W96
// 003   ----------------------------------------
Label_0_012E216D:
 BYTE   N05  Fn4  v088
 BYTE   W08
 BYTE   An3  v072
 BYTE   W08
 BYTE   Dn4  v080
 BYTE   W08
 BYTE   Fn3
 BYTE   W08
 BYTE   Dn4  v072
 BYTE   W08
 BYTE   Dn3  v076
 BYTE   W08
 BYTE   Fn4  v088
 BYTE   W08
 BYTE   An3  v072
 BYTE   W08
 BYTE   Dn4  v080
 BYTE   W08
 BYTE   An4
 BYTE   W08
 BYTE   Dn4  v068
 BYTE   W08
 BYTE   Fn4  v076
 BYTE   W07
 BYTE   Gn4  v088
 BYTE   W01
// 004   ----------------------------------------
 BYTE   W07
 BYTE   As3  v072
 BYTE   W08
 BYTE   En4  v080
 BYTE   W08
 BYTE   Gn3
 BYTE   W08
 BYTE   En4  v072
 BYTE   W08
 BYTE   En3  v076
 BYTE   W08
 BYTE   Gn4  v088
 BYTE   W08
 BYTE   As3  v072
 BYTE   W08
 BYTE   En4  v080
 BYTE   W08
 BYTE   As4
 BYTE   W08
 BYTE   En4  v068
 BYTE   W08
 BYTE   Gn4  v076
 BYTE   W09
// 005   ----------------------------------------
 BYTE   En4  v088
 BYTE   W08
 BYTE   As3  v072
 BYTE   W08
 BYTE   En4  v080
 BYTE   W08
 BYTE   Gn3
 BYTE   W08
 BYTE   As3  v072
 BYTE   W08
 BYTE   En3  v076
 BYTE   W08
 BYTE   En4  v088
 BYTE   W08
 BYTE   Dn4  v072
 BYTE   W08
 BYTE   En4  v080
 BYTE   W08
 BYTE   Cs4
 BYTE   W08
 BYTE   Dn4  v068
 BYTE   W08
 BYTE   En4  v076
 BYTE   W08
// 006   ----------------------------------------
 BYTE   Fn4  v088
 BYTE   W08
 BYTE   An3  v072
 BYTE   W08
 BYTE   Dn4  v080
 BYTE   W08
 BYTE   Fn3
 BYTE   W08
 BYTE   Dn4  v072
 BYTE   W08
 BYTE   Dn3  v076
 BYTE   W08
 BYTE   Fn4  v088
 BYTE   W08
 BYTE   An3  v072
 BYTE   W08
 BYTE   Dn4  v080
 BYTE   W08
 BYTE   An3
 BYTE   W08
 BYTE   Dn4  v068
 BYTE   W08
 BYTE   Fn4  v076
 BYTE   W08
// 007   ----------------------------------------
 BYTE   Fn4  v088
 BYTE   W08
 BYTE   As3  v072
 BYTE   W08
 BYTE   Dn4  v080
 BYTE   W08
 BYTE   Fn3
 BYTE   W08
 BYTE   As3  v072
 BYTE   W08
 BYTE   Dn4  v076
 BYTE   W08
 BYTE   Fn4  v088
 BYTE   W08
 BYTE   As3  v072
 BYTE   W08
 BYTE   Dn4  v080
 BYTE   W08
 BYTE   As4
 BYTE   W08
 BYTE   Dn4  v068
 BYTE   W08
 BYTE   Fn4  v076
 BYTE   W08
// 008   ----------------------------------------
 BYTE   Cn4  v088
 BYTE   W08
 BYTE   Fn3  v072
 BYTE   W08
 BYTE   An3  v080
 BYTE   W08
 BYTE   Cn3
 BYTE   W08
 BYTE   Fn3  v072
 BYTE   W08
 BYTE   An3  v076
 BYTE   W08
 BYTE   Cn4  v088
 BYTE   W08
 BYTE   Fn3  v072
 BYTE   W08
 BYTE   An3  v080
 BYTE   W08
 BYTE   Fn4
 BYTE   W08
 BYTE   An3  v068
 BYTE   W08
 BYTE   Cn4  v076
 BYTE   W08
// 009   ----------------------------------------
 BYTE   Dn4  v088
 BYTE   W08
 BYTE   Gn3  v072
 BYTE   W08
 BYTE   Bn3  v080
 BYTE   W08
 BYTE   Dn3
 BYTE   W08
 BYTE   Gn3  v072
 BYTE   W08
 BYTE   Bn3  v076
 BYTE   W08
 BYTE   Dn4  v088
 BYTE   W08
 BYTE   Gn3  v072
 BYTE   W08
 BYTE   Bn3  v080
 BYTE   W08
 BYTE   Gn4
 BYTE   W08
 BYTE   Bn3  v068
 BYTE   W08
 BYTE   Dn4  v076
 BYTE   W08
// 010   ----------------------------------------
 BYTE   En4  v088
 BYTE   W08
 BYTE   An3  v072
 BYTE   W08
 BYTE   Dn4  v080
 BYTE   W08
 BYTE   En3
 BYTE   W08
 BYTE   An3  v072
 BYTE   W08
 BYTE   Dn4  v076
 BYTE   W08
 BYTE   En4  v088
 BYTE   W08
 BYTE   An3  v072
 BYTE   W08
 BYTE   Cs4  v080
 BYTE   W08
 BYTE   An4
 BYTE   W08
 BYTE   Cs4  v068
 BYTE   W08
 BYTE   En4  v076
 BYTE   W08
// 011   ----------------------------------------
 BYTE   N03  Fn3  v092
 BYTE   N03  Dn4  v104
 BYTE   W24
 BYTE   N23  Fn3  v088
 BYTE   N23  Dn4  v100
 BYTE   W24
 BYTE   N03  Gn3  v092
 BYTE   N03  Ds4  v104
 BYTE   W24
 BYTE   N23  Gn3  v088
 BYTE   N23  Cs4  v100
 BYTE   W24
// 012   ----------------------------------------
 BYTE   N03  Fn3  v092
 BYTE   N03  Dn4  v104
 BYTE   W24
 BYTE   An3  v088
 BYTE   N03  Fn4  v100
 BYTE   W24
 BYTE   Gn3  v092
 BYTE   N03  En4  v104
 BYTE   W24
 BYTE   N23  Gn3  v088
 BYTE   N23  Cs4  v100
 BYTE   W24
// 013   ----------------------------------------
 BYTE   N04  An3
 BYTE   N04  Dn4  v108
 BYTE   W08
 BYTE   Dn3  v088
 BYTE   N04  An3  v096
 BYTE   W08
 BYTE   An3  v092
 BYTE   N04  Dn4  v100
 BYTE   W08
 BYTE   Cn4  v096
 BYTE   N04  Fn4  v104
 BYTE   W08
 BYTE   Dn3  v088
 BYTE   N04  An3  v096
 BYTE   W08
 BYTE   An3  v092
 BYTE   N04  Dn4  v100
 BYTE   W08
 BYTE   N04
 BYTE   N04  Gn4  v108
 BYTE   W08
 BYTE   Fn3  v088
 BYTE   N04  As3  v096
 BYTE   W08
 BYTE   As3  v092
 BYTE   N04  En4  v100
 BYTE   W08
 BYTE   En4  v096
 BYTE   N04  As4  v104
 BYTE   W08
 BYTE   As3  v084
 BYTE   N04  En4  v092
 BYTE   W08
 BYTE   Dn4  v088
 BYTE   N04  Gn4  v096
 BYTE   W08
// 014   ----------------------------------------
 BYTE   N01  Fn3  v100
 BYTE   N01  As3
 BYTE   W02
 BYTE   Fs3  v088
 BYTE   N01  Bn3
 BYTE   W02
 BYTE   Fn3  v100
 BYTE   N01  As3
 BYTE   W02
 BYTE   Fs3  v088
 BYTE   N01  Bn3
 BYTE   W02
 BYTE   Fn3  v100
 BYTE   N01  As3
 BYTE   W02
 BYTE   Fs3  v088
 BYTE   N01  Bn3
 BYTE   W02
 BYTE   Fn3  v100
 BYTE   N01  As3
 BYTE   W02
 BYTE   Fs3  v088
 BYTE   N01  Bn3
 BYTE   W02
 BYTE   Fn3  v100
 BYTE   N01  As3
 BYTE   W02
 BYTE   Fs3  v088
 BYTE   N01  Bn3
 BYTE   W02
 BYTE   Fn3  v100
 BYTE   N01  As3
 BYTE   W02
 BYTE   Fs3  v088
 BYTE   N01  Bn3
 BYTE   W02
 BYTE   Fn3  v100
 BYTE   N01  As3
 BYTE   W02
 BYTE   Fs3  v088
 BYTE   N01  Bn3
 BYTE   W02
 BYTE   Fn3  v100
 BYTE   N01  As3
 BYTE   W02
 BYTE   Fs3  v088
 BYTE   N01  Bn3
 BYTE   W02
 BYTE   Fn3  v100
 BYTE   N01  As3
 BYTE   W02
 BYTE   Fs3  v088
 BYTE   N01  Bn3
 BYTE   W02
 BYTE   Fn3  v100
 BYTE   N01  As3
 BYTE   W02
 BYTE   Fs3  v088
 BYTE   N01  Bn3
 BYTE   W02
 BYTE   Fn3  v100
 BYTE   N01  As3
 BYTE   W02
 BYTE   Fs3  v088
 BYTE   N01  Bn3
 BYTE   W02
 BYTE   Fn3  v100
 BYTE   N01  As3
 BYTE   W02
 BYTE   Fs3  v088
 BYTE   N01  Bn3
 BYTE   W02
 BYTE   Gs3  v100
 BYTE   N01  Dn4
 BYTE   W02
 BYTE   As3  v088
 BYTE   N01  Ds4
 BYTE   W02
 BYTE   Gs3  v100
 BYTE   N01  Dn4
 BYTE   W02
 BYTE   As3  v088
 BYTE   N01  Ds4
 BYTE   W02
 BYTE   Gs3  v100
 BYTE   N01  Dn4
 BYTE   W02
 BYTE   As3  v088
 BYTE   N01  Ds4
 BYTE   W02
 BYTE   Gs3  v100
 BYTE   N01  Dn4
 BYTE   W02
 BYTE   As3  v088
 BYTE   N01  Ds4
 BYTE   W02
 BYTE   Gs3  v100
 BYTE   N01  Dn4
 BYTE   W02
 BYTE   As3  v088
 BYTE   N01  Ds4
 BYTE   W02
 BYTE   Gs3  v100
 BYTE   N01  Dn4
 BYTE   W02
 BYTE   As3  v088
 BYTE   N01  Ds4
 BYTE   W02
 BYTE   Gs3  v100
 BYTE   N01  Dn4
 BYTE   W02
 BYTE   As3  v088
 BYTE   N01  Ds4
 BYTE   W02
 BYTE   Gs3  v100
 BYTE   N01  Dn4
 BYTE   W02
 BYTE   As3  v088
 BYTE   N01  Ds4
 BYTE   W02
 BYTE   Gs3  v100
 BYTE   N01  Dn4
 BYTE   W02
 BYTE   As3  v088
 BYTE   N01  Ds4
 BYTE   W02
 BYTE   Gs3  v100
 BYTE   N01  Dn4
 BYTE   W02
 BYTE   As3  v088
 BYTE   N01  Ds4
 BYTE   W02
 BYTE   Gs3  v100
 BYTE   N01  Dn4
 BYTE   W02
 BYTE   As3  v088
 BYTE   N01  Ds4
 BYTE   W02
 BYTE   Gs3  v100
 BYTE   N01  Dn4
 BYTE   W02
 BYTE   Ds4  v088
 BYTE   W02
// 015   ----------------------------------------
 BYTE   N44  Ds4  v084
 BYTE   W24
 BYTE   W08
 BYTE   W08
 BYTE   W08
 BYTE   As3  v076
 BYTE   W24
 BYTE   W08
 BYTE   W08
 BYTE   W08
// 016   ----------------------------------------
 BYTE   Fn4  v084
 BYTE   W24
 BYTE   W08
 BYTE   W08
 BYTE   W08
 BYTE   Cs4  v076
 BYTE   W24
 BYTE   W08
 BYTE   W08
 BYTE   W08
// 017   ----------------------------------------
 BYTE   Fs4  v080
 BYTE   W24
 BYTE   W08
 BYTE   W08
 BYTE   W08
 BYTE   An4  v072
 BYTE   W24
 BYTE   W08
 BYTE   W08
 BYTE   W08
// 018   ----------------------------------------
 BYTE   Gs4  v080
 BYTE   W24
 BYTE   W08
 BYTE   W08
 BYTE   W08
 BYTE   Fs4  v072
 BYTE   W24
 BYTE   W08
 BYTE   W08
 BYTE   W08
// 019   ----------------------------------------
 BYTE   N05  En4  v100
 BYTE   W08
 BYTE   Ds4  v092
 BYTE   W08
 BYTE   En4  v096
 BYTE   W08
 BYTE   Fs4  v100
 BYTE   W08
 BYTE   En4  v088
 BYTE   W08
 BYTE   Ds4  v096
 BYTE   W08
 BYTE   En4  v100
 BYTE   W08
 BYTE   As3  v088
 BYTE   W08
 BYTE   Bn3  v096
 BYTE   W08
 BYTE   Cs4  v100
 BYTE   W08
 BYTE   Gs3  v092
 BYTE   W08
 BYTE   Bn3  v096
 BYTE   W08
// 020   ----------------------------------------
 BYTE   En3  v100
 BYTE   W08
 BYTE   Ds3  v092
 BYTE   W08
 BYTE   En3  v096
 BYTE   W08
 BYTE   Fs3  v100
 BYTE   W08
 BYTE   En3  v088
 BYTE   W08
 BYTE   Fs3  v096
 BYTE   W08
 BYTE   Gs3  v100
 BYTE   W08
 BYTE   Ds3  v088
 BYTE   W08
 BYTE   Gs3  v096
 BYTE   W08
 BYTE   As3  v100
 BYTE   W08
 BYTE   Bn3  v092
 BYTE   W08
 BYTE   Cn4  v096
 BYTE   W08
// 021   ----------------------------------------
 BYTE   Cs4  v100
 BYTE   W08
 BYTE   Fs3  v092
 BYTE   W08
 BYTE   As3  v096
 BYTE   W08
 BYTE   En3  v100
 BYTE   W08
 BYTE   Fs3  v088
 BYTE   W08
 BYTE   Cs3  v096
 BYTE   W08
 BYTE   En3  v100
 BYTE   W08
 BYTE   Ds3  v088
 BYTE   W08
 BYTE   En3  v096
 BYTE   W08
 BYTE   Cs3
 BYTE   W08
 BYTE   Ds3  v092
 BYTE   W08
 BYTE   En3  v096
 BYTE   W08
// 022   ----------------------------------------
 BYTE   Dn4  v100
 BYTE   W08
 BYTE   As3  v092
 BYTE   W08
 BYTE   Gn3  v096
 BYTE   W08
 BYTE   Dn3  v100
 BYTE   W08
 BYTE   Gn3  v088
 BYTE   W08
 BYTE   As3  v096
 BYTE   W08
 BYTE   Dn4  v100
 BYTE   W08
 BYTE   Bn3  v088
 BYTE   W08
 BYTE   Gn3  v096
 BYTE   W08
 BYTE   N03  Fn3  v100
 BYTE   W03
 BYTE   Gn3  v088
 BYTE   W03
 BYTE   An3  v100
 BYTE   W04
 BYTE   Bn3  v096
 BYTE   W03
 BYTE   Cs4  v108
 BYTE   W04
 BYTE   Dn4  v100
 BYTE   W03
 BYTE   En4  v120
 BYTE   W04
// 023   ----------------------------------------
 BYTE   N21  An3  v112
 BYTE   N21  Fn4  v124
 BYTE   W24
 BYTE   N04  An3  v112
 BYTE   N04  Dn4  v120
 BYTE   W24
 BYTE   An3  v108
 BYTE   N04  Gn4  v116
 BYTE   W08
 BYTE   An3  v108
 BYTE   N04  Gn4  v112
 BYTE   W08
 BYTE   An3  v104
 BYTE   N04  Gn4  v112
 BYTE   W08
 BYTE   An3  v108
 BYTE   N04  Fn4  v124
 BYTE   W24
// 024   ----------------------------------------
 BYTE   W96
// 025   ----------------------------------------
 BYTE   N21  An3  v112
 BYTE   N21  Fn4  v124
 BYTE   W24
 BYTE   N04  An3  v112
 BYTE   N04  Dn4  v120
 BYTE   W24
 BYTE   Cs4  v108
 BYTE   N04  Gn4  v116
 BYTE   W08
 BYTE   Cs4  v108
 BYTE   N04  Gn4  v112
 BYTE   W08
 BYTE   Cs4  v104
 BYTE   N04  Gn4  v112
 BYTE   W08
 BYTE   An3  v108
 BYTE   N04  Fn4  v124
 BYTE   W24
// 026   ----------------------------------------
 BYTE   N06  En4  v104
 BYTE   N06  An4  v112
 BYTE   W08
 BYTE   En4  v092
 BYTE   N06  As4  v100
 BYTE   W08
 BYTE   Cs4
 BYTE   N06  Gn4  v104
 BYTE   W08
 BYTE   En4  v100
 BYTE   N06  An4  v108
 BYTE   W08
 BYTE   Cs4  v096
 BYTE   N06  Fn4  v100
 BYTE   W08
 BYTE   Cs4
 BYTE   N06  Gn4  v104
 BYTE   W08
 BYTE   As3  v100
 BYTE   N06  En4  v108
 BYTE   W08
 BYTE   Cn4  v092
 BYTE   N06  Fn4  v100
 BYTE   W08
 BYTE   An3  v096
 BYTE   N06  Dn4  v104
 BYTE   W08
 BYTE   Bn3  v100
 BYTE   N06  En4  v108
 BYTE   W08
 BYTE   Gn3  v092
 BYTE   N06  Cs4  v096
 BYTE   W08
 BYTE   An3
 BYTE   N06  Dn4  v104
 BYTE   W08
// 027   ----------------------------------------
 BYTE   N01  An3  v120
 BYTE   W02
 BYTE   As3  v104
 BYTE   W02
 BYTE   An3  v120
 BYTE   W02
 BYTE   As3  v104
 BYTE   W02
 BYTE   An3  v120
 BYTE   W02
 BYTE   As3  v104
 BYTE   W02
 BYTE   An3  v120
 BYTE   W02
 BYTE   As3  v104
 BYTE   W02
 BYTE   An3  v120
 BYTE   W02
 BYTE   As3  v104
 BYTE   W02
 BYTE   An3  v120
 BYTE   W02
 BYTE   As3  v104
 BYTE   W02
 BYTE   An3  v120
 BYTE   W02
 BYTE   As3  v104
 BYTE   W02
 BYTE   An3  v120
 BYTE   W02
 BYTE   As3  v104
 BYTE   W02
 BYTE   An3  v120
 BYTE   W02
 BYTE   As3  v104
 BYTE   W02
 BYTE   An3  v120
 BYTE   W02
 BYTE   As3  v104
 BYTE   W02
 BYTE   An3  v120
 BYTE   W02
 BYTE   As3  v104
 BYTE   W02
 BYTE   An3  v120
 BYTE   W02
 BYTE   As3  v104
 BYTE   W02
 BYTE   N06  An3  v100
 BYTE   W08
 BYTE   En3
 BYTE   W08
 BYTE   An3
 BYTE   W08
 BYTE   Cs4
 BYTE   W08
 BYTE   Dn4
 BYTE   W08
 BYTE   En4
 BYTE   W07
 BYTE   GoTo
  POIN2 Label_0_012E216D
 BYTE   FINE

//**************** Track 2 (Midi-Chn.1) ****************//

PokemonBWNsCastleThegis_002:
// 000   ----------------------------------------
 BYTE   KEYSH   PokemonBWNsCastleThegis_key+0
 BYTE   VOICE   49
 BYTE   VOL   59*PokemonBWNsCastleThegis_mvl/mxv
 BYTE   PAN   c_v-29
 BYTE   MOD 0
 BYTE   CnM2  v000
 BYTE   W96
// 001   ----------------------------------------
 BYTE   W96
// 002   ----------------------------------------
 BYTE   W96
// 003   ----------------------------------------
Label_1_012E25BA:
 BYTE   N06  Dn3  v100
 BYTE   W08
 BYTE   Fn3  v096
 BYTE   W08
 BYTE   Dn3
 BYTE   W08
 BYTE   Fn3  v092
 BYTE   W08
 BYTE   Dn3  v096
 BYTE   W08
 BYTE   Fn3  v092
 BYTE   W08
 BYTE   Dn3  v096
 BYTE   W08
 BYTE   Fn3  v092
 BYTE   W08
 BYTE   Dn3
 BYTE   W08
 BYTE   Fn3
 BYTE   W08
 BYTE   Dn3
 BYTE   W08
 BYTE   Fn3  v088
 BYTE   W08
// 004   ----------------------------------------
 BYTE   Dn3  v096
 BYTE   W08
 BYTE   En3  v088
 BYTE   W08
 BYTE   Dn3  v092
 BYTE   W08
 BYTE   En3  v088
 BYTE   W08
 BYTE   Dn3  v092
 BYTE   W08
 BYTE   En3  v088
 BYTE   W08
 BYTE   Dn3  v092
 BYTE   W08
 BYTE   En3  v088
 BYTE   W08
 BYTE   Dn3  v092
 BYTE   W08
 BYTE   En3  v088
 BYTE   W08
 BYTE   Dn3  v092
 BYTE   W08
 BYTE   En3  v084
 BYTE   W08
// 005   ----------------------------------------
 BYTE   Cs3  v096
 BYTE   W08
 BYTE   En3  v092
 BYTE   W08
 BYTE   Cs3  v096
 BYTE   W08
 BYTE   En3  v092
 BYTE   W08
 BYTE   Cs3
 BYTE   W08
 BYTE   En3  v088
 BYTE   W08
 BYTE   Cs3  v092
 BYTE   W08
 BYTE   En3  v088
 BYTE   W08
 BYTE   Cs3  v092
 BYTE   W08
 BYTE   En3  v088
 BYTE   W08
 BYTE   Cs3  v092
 BYTE   W08
 BYTE   En3
 BYTE   W08
// 006   ----------------------------------------
 BYTE   Dn3  v096
 BYTE   W08
 BYTE   Fn3  v092
 BYTE   W08
 BYTE   Dn3
 BYTE   W08
 BYTE   Fn3  v088
 BYTE   W08
 BYTE   Dn3  v092
 BYTE   W08
 BYTE   Fn3  v088
 BYTE   W08
 BYTE   Dn3  v092
 BYTE   W08
 BYTE   Fn3  v088
 BYTE   W08
 BYTE   Dn3  v092
 BYTE   W08
 BYTE   Fn3  v088
 BYTE   W08
 BYTE   Dn3  v092
 BYTE   W08
 BYTE   Fn3  v088
 BYTE   W08
// 007   ----------------------------------------
 BYTE   Dn3  v096
 BYTE   W08
 BYTE   Fn3  v092
 BYTE   W08
 BYTE   Dn3
 BYTE   W08
 BYTE   Fn3  v088
 BYTE   W08
 BYTE   Dn3  v092
 BYTE   W08
 BYTE   Fn3  v088
 BYTE   W08
 BYTE   Dn3  v092
 BYTE   W08
 BYTE   Fn3  v088
 BYTE   W08
 BYTE   Dn3  v092
 BYTE   W08
 BYTE   Fn3  v088
 BYTE   W08
 BYTE   Dn3  v092
 BYTE   W08
 BYTE   Fn3  v088
 BYTE   W07
 BYTE   Cn3  v096
 BYTE   W01
// 008   ----------------------------------------
 BYTE   W07
 BYTE   Fn3  v092
 BYTE   W08
 BYTE   Cn3
 BYTE   W08
 BYTE   Fn3  v088
 BYTE   W08
 BYTE   Cn3  v092
 BYTE   W08
 BYTE   Fn3  v088
 BYTE   W08
 BYTE   Cn3  v092
 BYTE   W08
 BYTE   Fn3  v088
 BYTE   W08
 BYTE   Cn3  v092
 BYTE   W08
 BYTE   Fn3  v088
 BYTE   W08
 BYTE   Cn3  v092
 BYTE   W08
 BYTE   Fn3  v088
 BYTE   W09
// 009   ----------------------------------------
 BYTE   Dn3  v096
 BYTE   W08
 BYTE   Gn3  v092
 BYTE   W08
 BYTE   Dn3
 BYTE   W08
 BYTE   Gn3  v088
 BYTE   W08
 BYTE   Dn3  v092
 BYTE   W08
 BYTE   Gn3  v088
 BYTE   W08
 BYTE   Dn3  v092
 BYTE   W08
 BYTE   Gn3  v088
 BYTE   W08
 BYTE   Dn3  v092
 BYTE   W08
 BYTE   Gn3  v088
 BYTE   W08
 BYTE   Dn3  v092
 BYTE   W08
 BYTE   Gn3  v088
 BYTE   W08
// 010   ----------------------------------------
 BYTE   Dn3  v096
 BYTE   W08
 BYTE   En3  v092
 BYTE   W08
 BYTE   Dn3
 BYTE   W08
 BYTE   En3  v088
 BYTE   W08
 BYTE   Dn3  v092
 BYTE   W08
 BYTE   En3  v088
 BYTE   W08
 BYTE   En3  v092
 BYTE   W08
 BYTE   An3  v088
 BYTE   W08
 BYTE   En3  v092
 BYTE   W08
 BYTE   An3  v088
 BYTE   W08
 BYTE   En3  v092
 BYTE   W08
 BYTE   An3  v088
 BYTE   W08
// 011   ----------------------------------------
 BYTE   W96
// 012   ----------------------------------------
 BYTE   W96
// 013   ----------------------------------------
 BYTE   W96
// 014   ----------------------------------------
 BYTE   W96
// 015   ----------------------------------------
 BYTE   N44  As2  v096
 BYTE   N44  Fs3  v100
 BYTE   W32
 BYTE   W04
 BYTE   W04
 BYTE   W04
 BYTE   W04
 BYTE   Fs2  v092
 BYTE   N44  Ds3  v100
 BYTE   W32
 BYTE   W04
 BYTE   W04
 BYTE   W04
 BYTE   W04
// 016   ----------------------------------------
 BYTE   Gs2  v096
 BYTE   N44  Fn3  v100
 BYTE   W32
 BYTE   W04
 BYTE   W04
 BYTE   W04
 BYTE   W04
 BYTE   Cs3  v092
 BYTE   N44  Gs3  v100
 BYTE   W32
 BYTE   W04
 BYTE   W04
 BYTE   W04
 BYTE   W04
// 017   ----------------------------------------
 BYTE   As2  v096
 BYTE   N44  Fs3  v100
 BYTE   W32
 BYTE   W04
 BYTE   W04
 BYTE   W04
 BYTE   W04
 BYTE   Cs3  v092
 BYTE   N44  An3  v100
 BYTE   W32
 BYTE   W04
 BYTE   W04
 BYTE   W04
 BYTE   W04
// 018   ----------------------------------------
 BYTE   Bn2  v096
 BYTE   N44  Gs3  v100
 BYTE   W32
 BYTE   W04
 BYTE   W04
 BYTE   W04
 BYTE   W04
 BYTE   Cs3  v092
 BYTE   N44  As3  v096
 BYTE   W32
 BYTE   W04
 BYTE   W04
 BYTE   W04
 BYTE   W04
// 019   ----------------------------------------
 BYTE   En3
 BYTE   N44  Cs4  v100
 BYTE   W32
 BYTE   W04
 BYTE   W04
 BYTE   W04
 BYTE   W04
 BYTE   Gs3  v092
 BYTE   N44  En4  v100
 BYTE   W32
 BYTE   W04
 BYTE   W04
 BYTE   W04
 BYTE   W04
// 020   ----------------------------------------
 BYTE   Fs3  v096
 BYTE   N44  Ds4  v100
 BYTE   W32
 BYTE   W04
 BYTE   W04
 BYTE   W04
 BYTE   W04
 BYTE   Ds3  v092
 BYTE   N44  Bn3  v100
 BYTE   W32
 BYTE   W04
 BYTE   W04
 BYTE   W04
 BYTE   W04
// 021   ----------------------------------------
 BYTE   Fs3  v096
 BYTE   N44  Cs4  v100
 BYTE   W32
 BYTE   W04
 BYTE   W04
 BYTE   W04
 BYTE   W04
 BYTE   Gn3  v092
 BYTE   N44  En4  v096
 BYTE   W32
 BYTE   W04
 BYTE   W04
 BYTE   W04
 BYTE   W04
// 022   ----------------------------------------
 BYTE   En3
 BYTE   N44  Dn4  v100
 BYTE   W32
 BYTE   W04
 BYTE   W04
 BYTE   W04
 BYTE   W04
 BYTE   Gn3  v092
 BYTE   N44  Cs4  v100
 BYTE   W32
 BYTE   W04
 BYTE   W04
 BYTE   W04
 BYTE   W04
// 023   ----------------------------------------
 BYTE   W96
// 024   ----------------------------------------
 BYTE   W96
// 025   ----------------------------------------
 BYTE   W96
// 026   ----------------------------------------
 BYTE   W96
// 027   ----------------------------------------
 BYTE   W48
 BYTE   N06  En3
 BYTE   W08
 BYTE   Cs3  v096
 BYTE   W08
 BYTE   En3  v100
 BYTE   W08
 BYTE   Gn3
 BYTE   W08
 BYTE   An3  v096
 BYTE   W08
 BYTE   As3  v100
 BYTE   W07
 BYTE   GoTo
  POIN2 Label_1_012E25BA
 BYTE   FINE

//**************** Track 3 (Midi-Chn.2) ****************//

PokemonBWNsCastleThegis_003:
// 000   ----------------------------------------
 BYTE   KEYSH   PokemonBWNsCastleThegis_key+0
 BYTE   VOICE   36
 BYTE   VOL   61*PokemonBWNsCastleThegis_mvl/mxv
 BYTE   PAN   c_v+41
 BYTE   MOD 0
 BYTE   CnM2  v000
 BYTE   N07  Cs2  v092
 BYTE   W08
 BYTE   Cs2  v052
 BYTE   W08
 BYTE   Cs2  v032
 BYTE   W08
 BYTE   As1  v084
 BYTE   W08
 BYTE   As1  v048
 BYTE   W08
 BYTE   As1  v024
 BYTE   W08
 BYTE   Dn1  v088
 BYTE   W08
 BYTE   Dn1  v052
 BYTE   W08
 BYTE   Dn1  v028
 BYTE   W08
 BYTE   Fs1  v084
 BYTE   W08
 BYTE   Fs1  v048
 BYTE   W08
 BYTE   Fs1  v024
 BYTE   W08
// 001   ----------------------------------------
 BYTE   N06  As1  v108
 BYTE   W08
 BYTE   En1  v100
 BYTE   W08
 BYTE   Gn1  v108
 BYTE   W08
 BYTE   Cs1
 BYTE   W08
 BYTE   En1  v104
 BYTE   W08
 BYTE   As0  v108
 BYTE   W08
 BYTE   Cs1
 BYTE   W08
 BYTE   Gn0  v100
 BYTE   W08
 BYTE   As0  v108
 BYTE   W08
 BYTE   En0
 BYTE   W08
 BYTE   Gn0  v100
 BYTE   W08
 BYTE   Cs0  v108
 BYTE   W08
// 002   ----------------------------------------
 BYTE   N68  An0  v112
 BYTE   W72
 BYTE   N06  An0  v100
 BYTE   W08
 BYTE   Bn0  v096
 BYTE   W08
 BYTE   Cs1  v100
 BYTE   W08
// 003   ----------------------------------------
Label_2_012E27F0:
 BYTE   N06  Dn1  v092
 BYTE   W08
 BYTE   Dn1  v052
 BYTE   W08
 BYTE   Dn1  v032
 BYTE   W08
 BYTE   Dn1  v084
 BYTE   W08
 BYTE   Dn1  v048
 BYTE   W08
 BYTE   Dn1  v024
 BYTE   W08
 BYTE   Dn1  v088
 BYTE   W08
 BYTE   Dn1  v052
 BYTE   W08
 BYTE   Dn1  v028
 BYTE   W08
 BYTE   Dn1  v084
 BYTE   W08
 BYTE   Dn1  v048
 BYTE   W08
 BYTE   Dn1  v024
 BYTE   W08
 BYTE   PEND 
// 004   ----------------------------------------
 BYTE   PATT
  POIN2 Label_2_012E27F0
// 005   ----------------------------------------
 BYTE   N06  Cs1  v092
 BYTE   W08
 BYTE   Cs1  v052
 BYTE   W08
 BYTE   Cs1  v032
 BYTE   W08
 BYTE   Cs1  v084
 BYTE   W08
 BYTE   Cs1  v048
 BYTE   W08
 BYTE   Cs1  v024
 BYTE   W08
 BYTE   Cs1  v088
 BYTE   W08
 BYTE   Cs1  v052
 BYTE   W08
 BYTE   Cs1  v028
 BYTE   W08
 BYTE   Cs1  v084
 BYTE   W08
 BYTE   Cs1  v048
 BYTE   W08
 BYTE   Cs1  v024
 BYTE   W08
// 006   ----------------------------------------
 BYTE   Dn1  v092
 BYTE   W08
 BYTE   Dn1  v052
 BYTE   W08
 BYTE   Dn1  v032
 BYTE   W08
 BYTE   Dn1  v084
 BYTE   W08
 BYTE   Dn1  v048
 BYTE   W08
 BYTE   Dn1  v024
 BYTE   W08
 BYTE   Dn1  v088
 BYTE   W08
 BYTE   Dn1  v052
 BYTE   W08
 BYTE   Dn1  v028
 BYTE   W08
 BYTE   Cn1  v084
 BYTE   W08
 BYTE   Cn1  v048
 BYTE   W08
 BYTE   Cn1  v024
 BYTE   W08
// 007   ----------------------------------------
 BYTE   As0  v092
 BYTE   W08
 BYTE   As0  v052
 BYTE   W08
 BYTE   As0  v032
 BYTE   W08
 BYTE   As0  v084
 BYTE   W08
 BYTE   As0  v048
 BYTE   W08
 BYTE   As0  v024
 BYTE   W08
 BYTE   As0  v088
 BYTE   W08
 BYTE   As0  v052
 BYTE   W08
 BYTE   As0  v028
 BYTE   W08
 BYTE   As0  v084
 BYTE   W08
 BYTE   As0  v048
 BYTE   W08
 BYTE   As0  v024
 BYTE   W08
// 008   ----------------------------------------
 BYTE   Fn0  v092
 BYTE   W08
 BYTE   Fn0  v052
 BYTE   W08
 BYTE   Fn0  v032
 BYTE   W08
 BYTE   Fn0  v084
 BYTE   W08
 BYTE   Fn0  v048
 BYTE   W08
 BYTE   Fn0  v024
 BYTE   W08
 BYTE   Cn1  v088
 BYTE   W08
 BYTE   Cn1  v052
 BYTE   W08
 BYTE   Cn1  v028
 BYTE   W08
 BYTE   Fn0  v084
 BYTE   W08
 BYTE   Fn0  v048
 BYTE   W08
 BYTE   Fn0  v024
 BYTE   W08
// 009   ----------------------------------------
 BYTE   Gn0  v092
 BYTE   W08
 BYTE   Gn0  v052
 BYTE   W08
 BYTE   Gn0  v032
 BYTE   W08
 BYTE   Gn0  v084
 BYTE   W08
 BYTE   Gn0  v048
 BYTE   W08
 BYTE   Gn0  v024
 BYTE   W08
 BYTE   Gn0  v088
 BYTE   W08
 BYTE   Gn0  v052
 BYTE   W08
 BYTE   Gn0  v028
 BYTE   W08
 BYTE   Gn0  v084
 BYTE   W08
 BYTE   Gn0  v048
 BYTE   W08
 BYTE   Gn0  v024
 BYTE   W08
// 010   ----------------------------------------
 BYTE   An0  v092
 BYTE   W08
 BYTE   An0  v052
 BYTE   W08
 BYTE   An0  v032
 BYTE   W08
 BYTE   An0  v084
 BYTE   W08
 BYTE   An0  v048
 BYTE   W08
 BYTE   An0  v024
 BYTE   W08
 BYTE   An0  v088
 BYTE   W08
 BYTE   An0  v052
 BYTE   W08
 BYTE   An0  v028
 BYTE   W08
 BYTE   An0  v084
 BYTE   W08
 BYTE   An0  v048
 BYTE   W08
 BYTE   An0  v024
 BYTE   W08
// 011   ----------------------------------------
 BYTE   Dn1  v104
 BYTE   W08
 BYTE   Dn1  v064
 BYTE   W40
 BYTE   Dn1  v104
 BYTE   W08
 BYTE   Dn1  v064
 BYTE   W08
 BYTE   Dn1  v044
 BYTE   W08
 BYTE   N22  Dn1  v108
 BYTE   W24
// 012   ----------------------------------------
 BYTE   N06  Dn1  v104
 BYTE   W08
 BYTE   Dn1  v064
 BYTE   W60
 BYTE   W03
 BYTE   N22  Cs1  v108
 BYTE   W24
 BYTE   W01
// 013   ----------------------------------------
 BYTE   N06  Dn1  v104
 BYTE   W08
 BYTE   Dn1  v064
 BYTE   W16
 BYTE   N23  Dn1  v108
 BYTE   W24
 BYTE   N06  Dn1  v104
 BYTE   W08
 BYTE   Dn1  v064
 BYTE   W16
 BYTE   N22  Dn1  v108
 BYTE   W24
// 014   ----------------------------------------
 BYTE   N44  As0  v100
 BYTE   W48
 BYTE   As0  v096
 BYTE   W48
// 015   ----------------------------------------
 BYTE   N92  Ds1  v104
 BYTE   W08
 BYTE   W08
 BYTE   W56
 BYTE   W08
 BYTE   W08
 BYTE   W08
// 016   ----------------------------------------
 BYTE   Fn1  v096
 BYTE   W08
 BYTE   W08
 BYTE   W56
 BYTE   W08
 BYTE   W08
 BYTE   W08
// 017   ----------------------------------------
 BYTE   Fs1  v104
 BYTE   W08
 BYTE   W08
 BYTE   W56
 BYTE   W08
 BYTE   W08
 BYTE   W08
// 018   ----------------------------------------
 BYTE   N44  Fs1  v100
 BYTE   W08
 BYTE   W08
 BYTE   W32
 BYTE   As1  v096
 BYTE   W24
 BYTE   W08
 BYTE   W08
 BYTE   W08
// 019   ----------------------------------------
 BYTE   N92  Cs1  v108
 BYTE   W08
 BYTE   W08
 BYTE   W56
 BYTE   W08
 BYTE   W08
 BYTE   W08
// 020   ----------------------------------------
 BYTE   Bn0  v096
 BYTE   W08
 BYTE   W08
 BYTE   W56
 BYTE   W08
 BYTE   W08
 BYTE   W08
// 021   ----------------------------------------
 BYTE   As0  v104
 BYTE   W08
 BYTE   W08
 BYTE   W56
 BYTE   W08
 BYTE   W08
 BYTE   W08
// 022   ----------------------------------------
 BYTE   N44  En1  v100
 BYTE   W08
 BYTE   W08
 BYTE   W32
 BYTE   An1  v096
 BYTE   W24
 BYTE   W08
 BYTE   W08
 BYTE   W08
// 023   ----------------------------------------
 BYTE   N21  Dn1  v112
 BYTE   W24
 BYTE   N04  Dn1  v104
 BYTE   W24
 BYTE   En1  v108
 BYTE   W08
 BYTE   En1  v104
 BYTE   W08
 BYTE   En1  v108
 BYTE   W08
 BYTE   Dn1
 BYTE   W24
// 024   ----------------------------------------
 BYTE   W96
// 025   ----------------------------------------
 BYTE   N21  Dn1  v112
 BYTE   W24
 BYTE   N04
 BYTE   W24
 BYTE   Cs1  v108
 BYTE   W08
 BYTE   N04
 BYTE   W08
 BYTE   Cs1  v104
 BYTE   W08
 BYTE   Dn1  v108
 BYTE   W24
// 026   ----------------------------------------
 BYTE   N05  An1
 BYTE   W08
 BYTE   As1  v100
 BYTE   W08
 BYTE   Gn1  v104
 BYTE   W08
 BYTE   An1  v108
 BYTE   W08
 BYTE   Fn1  v100
 BYTE   W08
 BYTE   Gn1  v104
 BYTE   W08
 BYTE   En1
 BYTE   W08
 BYTE   Fn1  v096
 BYTE   W08
 BYTE   Dn1  v104
 BYTE   W08
 BYTE   En1
 BYTE   W08
 BYTE   Cs1  v096
 BYTE   W08
 BYTE   Dn1  v104
 BYTE   W08
// 027   ----------------------------------------
 BYTE   N44  An0  v100
 BYTE   W48
 BYTE   N07
 BYTE   W08
 BYTE   En0  v092
 BYTE   W08
 BYTE   An0  v096
 BYTE   W08
 BYTE   Cs1  v100
 BYTE   W08
 BYTE   Dn1  v096
 BYTE   W08
 BYTE   En1
 BYTE   W07
 BYTE   GoTo
  POIN2 Label_2_012E27F0
 BYTE   FINE

//**************** Track 4 (Midi-Chn.3) ****************//

PokemonBWNsCastleThegis_004:
// 000   ----------------------------------------
 BYTE   KEYSH   PokemonBWNsCastleThegis_key+0
 BYTE   VOICE   18
 BYTE   VOL   65*PokemonBWNsCastleThegis_mvl/mxv
 BYTE   PAN   c_v+16
 BYTE   MOD 0
 BYTE   CnM2  v000
 BYTE   W96
// 001   ----------------------------------------
 BYTE   N06  As2  v112
 BYTE   N07  As3  v104
 BYTE   W08
 BYTE   N06  En2  v108
 BYTE   N06  En3  v096
 BYTE   W08
 BYTE   Gn2  v112
 BYTE   N06  Gn3  v104
 BYTE   W08
 BYTE   Cs2  v112
 BYTE   N06  Cs3  v104
 BYTE   W08
 BYTE   En2  v108
 BYTE   N06  En3  v100
 BYTE   W08
 BYTE   As1  v112
 BYTE   N06  As2  v100
 BYTE   W08
 BYTE   Cs2  v112
 BYTE   N06  Cs3  v104
 BYTE   W08
 BYTE   Gn1  v108
 BYTE   N06  Gn2  v096
 BYTE   W08
 BYTE   As1  v112
 BYTE   N06  As2  v104
 BYTE   W08
 BYTE   En1  v112
 BYTE   N06  En2  v104
 BYTE   W08
 BYTE   Gn1  v108
 BYTE   N06  Gn2  v096
 BYTE   W08
 BYTE   Cs1  v104
 BYTE   N06  Cs2
 BYTE   W08
// 002   ----------------------------------------
 BYTE   N68  Cs2  v096
 BYTE   N68  Gn2  v092
 BYTE   N68  As2
 BYTE   N68  Cs3
 BYTE   N68  En3  v096
 BYTE   W72
 BYTE   N07  An1  v100
 BYTE   W08
 BYTE   Bn1  v092
 BYTE   W08
 BYTE   Cs2  v100
 BYTE   W08
// 003   ----------------------------------------
Label_3_012E2A49:
 BYTE   W96
// 004   ----------------------------------------
 BYTE   W96
// 005   ----------------------------------------
 BYTE   W96
// 006   ----------------------------------------
 BYTE   W96
// 007   ----------------------------------------
 BYTE   W96
// 008   ----------------------------------------
 BYTE   W96
// 009   ----------------------------------------
 BYTE   W96
// 010   ----------------------------------------
 BYTE   W96
// 011   ----------------------------------------
 BYTE   N06  Fn2  v080
 BYTE   N06  Fn3  v092
 BYTE   W08
 BYTE   En2  v076
 BYTE   N06  En3  v088
 BYTE   W08
 BYTE   Dn2  v080
 BYTE   N06  Dn3  v092
 BYTE   W08
 BYTE   N19  An2  v084
 BYTE   N19  An3  v096
 BYTE   W24
 BYTE   N21  As2  v080
 BYTE   N21  As3  v088
 BYTE   W24
 BYTE   Gn2  v084
 BYTE   N21  Gn3  v092
 BYTE   W24
// 012   ----------------------------------------
 BYTE   N05  An2  v084
 BYTE   N05  An3  v096
 BYTE   W24
 BYTE   Fn2  v080
 BYTE   N05  Fn3  v092
 BYTE   W16
 BYTE   Fn2  v080
 BYTE   N05  Fn3  v088
 BYTE   W08
 BYTE   N07  Gn2  v080
 BYTE   N07  Gn3  v092
 BYTE   W08
 BYTE   Fn2  v076
 BYTE   N07  Fn3  v088
 BYTE   W08
 BYTE   En2  v080
 BYTE   N07  En3  v092
 BYTE   W08
 BYTE   N23  Cs2  v084
 BYTE   N23  Cs3  v092
 BYTE   W24
// 013   ----------------------------------------
 BYTE   N06  Fn2  v080
 BYTE   N06  Fn3  v092
 BYTE   W08
 BYTE   N05  En2  v076
 BYTE   N05  En3  v088
 BYTE   W08
 BYTE   N06  Dn2  v080
 BYTE   N06  Dn3  v088
 BYTE   W08
 BYTE   N21  An2  v080
 BYTE   N21  An3  v092
 BYTE   W24
 BYTE   As2  v076
 BYTE   N21  As3  v088
 BYTE   W24
 BYTE   N20  Gn2  v080
 BYTE   N20  Gn3  v092
 BYTE   W24
// 014   ----------------------------------------
 BYTE   N05  Ds3  v104
 BYTE   N05  Ds4  v096
 BYTE   W08
 BYTE   As2
 BYTE   N05  As3  v088
 BYTE   W08
 BYTE   Bn2  v104
 BYTE   N05  Bn3  v096
 BYTE   W08
 BYTE   Cs3  v104
 BYTE   N05  Cs4  v096
 BYTE   W08
 BYTE   Gs2
 BYTE   N05  Gs3  v088
 BYTE   W08
 BYTE   Bn2  v104
 BYTE   N05  Bn3  v096
 BYTE   W08
 BYTE   As2  v104
 BYTE   N05  As3  v096
 BYTE   W08
 BYTE   Fn2
 BYTE   N05  Fn3  v088
 BYTE   W08
 BYTE   Fs2  v104
 BYTE   N05  Fs3  v096
 BYTE   W08
 BYTE   Gs2  v104
 BYTE   N05  Gs3  v096
 BYTE   W08
 BYTE   Dn2
 BYTE   N05  Dn3  v088
 BYTE   W08
 BYTE   Fn2  v104
 BYTE   N05  Fn3  v096
 BYTE   W08
// 015   ----------------------------------------
 BYTE   N06  Ds4  v112
 BYTE   W08
 BYTE   As3  v108
 BYTE   W08
 BYTE   Bn3  v112
 BYTE   W08
 BYTE   Cs4
 BYTE   W08
 BYTE   Gs3  v108
 BYTE   W08
 BYTE   Bn3  v112
 BYTE   W08
 BYTE   As3
 BYTE   W08
 BYTE   Fn3  v108
 BYTE   W08
 BYTE   Fs3  v112
 BYTE   W08
 BYTE   Gs3
 BYTE   W08
 BYTE   Dn3  v108
 BYTE   W08
 BYTE   Fn3  v112
 BYTE   W08
// 016   ----------------------------------------
 BYTE   Ds3
 BYTE   W08
 BYTE   Dn3  v108
 BYTE   W08
 BYTE   Ds3  v112
 BYTE   W08
 BYTE   Fn3
 BYTE   W08
 BYTE   Ds3  v108
 BYTE   W08
 BYTE   Fn3  v112
 BYTE   W08
 BYTE   Fs3
 BYTE   W08
 BYTE   Fn3  v108
 BYTE   W08
 BYTE   Fs3  v112
 BYTE   W08
 BYTE   Gs3
 BYTE   W08
 BYTE   Gn3  v108
 BYTE   W08
 BYTE   Gs3  v112
 BYTE   W08
// 017   ----------------------------------------
 BYTE   Fs3
 BYTE   W08
 BYTE   Fn3  v108
 BYTE   W08
 BYTE   Fs3  v112
 BYTE   W08
 BYTE   Gs3
 BYTE   W08
 BYTE   Fs3  v108
 BYTE   W08
 BYTE   Gs3  v112
 BYTE   W08
 BYTE   An3
 BYTE   W08
 BYTE   Gs3  v108
 BYTE   W08
 BYTE   An3  v112
 BYTE   W08
 BYTE   Bn3
 BYTE   W08
 BYTE   An3  v108
 BYTE   W08
 BYTE   Bn3  v112
 BYTE   W08
// 018   ----------------------------------------
 BYTE   Cs4
 BYTE   W08
 BYTE   Gs3  v108
 BYTE   W08
 BYTE   Fs3  v112
 BYTE   W08
 BYTE   Cs3
 BYTE   W08
 BYTE   Fs3  v104
 BYTE   W08
 BYTE   Gs3  v112
 BYTE   W08
 BYTE   Cs4
 BYTE   W08
 BYTE   As3  v108
 BYTE   W08
 BYTE   Fs3  v112
 BYTE   W08
 BYTE   Cs3
 BYTE   W08
 BYTE   Fs3  v108
 BYTE   W08
 BYTE   As3  v112
 BYTE   W08
// 019   ----------------------------------------
 BYTE   N44  Cs3  v092
 BYTE   N44  En3  v100
 BYTE   W48
 BYTE   En3  v088
 BYTE   N44  Gs3  v096
 BYTE   W48
// 020   ----------------------------------------
 BYTE   Ds3  v092
 BYTE   N44  Fs3  v100
 BYTE   W48
 BYTE   Bn2  v088
 BYTE   N44  Ds3  v096
 BYTE   W48
// 021   ----------------------------------------
 BYTE   Cs3  v092
 BYTE   N44  En3  v100
 BYTE   W48
 BYTE   En3  v088
 BYTE   N44  Gn3  v096
 BYTE   W48
// 022   ----------------------------------------
 BYTE   Cs3  v092
 BYTE   N44  En3  v100
 BYTE   W48
 BYTE   Cs3  v088
 BYTE   N44  Gn3  v096
 BYTE   W48
// 023   ----------------------------------------
 BYTE   N21  An2
 BYTE   N21  Fn3  v108
 BYTE   W24
 BYTE   N04  An2  v096
 BYTE   N04  Dn3  v104
 BYTE   W24
 BYTE   Cs3  v096
 BYTE   N04  Gn3  v100
 BYTE   W08
 BYTE   Cs3  v096
 BYTE   N04  Gn3
 BYTE   W08
 BYTE   Cs3  v092
 BYTE   N04  Gn3  v100
 BYTE   W08
 BYTE   An2  v092
 BYTE   N04  Fn3  v108
 BYTE   W24
// 024   ----------------------------------------
 BYTE   N06  Dn2  v104
 BYTE   N06  Dn3
 BYTE   W08
 BYTE   En2  v100
 BYTE   N06  En3  v096
 BYTE   W08
 BYTE   Fn2  v104
 BYTE   N06  Fn3  v100
 BYTE   W08
 BYTE   Gn2  v104
 BYTE   N06  Gn3
 BYTE   W08
 BYTE   Fn2  v100
 BYTE   N06  Fn3  v096
 BYTE   W08
 BYTE   En2  v104
 BYTE   N06  En3
 BYTE   W08
 BYTE   An2  v108
 BYTE   N06  An3  v104
 BYTE   W08
 BYTE   En2  v100
 BYTE   N06  En3
 BYTE   W08
 BYTE   Fn2  v104
 BYTE   N06  Fn3
 BYTE   W08
 BYTE   Gn2
 BYTE   N06  Gn3
 BYTE   W08
 BYTE   Fn2
 BYTE   N06  Fn3  v100
 BYTE   W08
 BYTE   En2  v104
 BYTE   N06  En3  v100
 BYTE   W08
// 025   ----------------------------------------
 BYTE   N21  An2  v104
 BYTE   N21  Fn3  v112
 BYTE   W24
 BYTE   N04  An2  v100
 BYTE   N04  Dn3  v112
 BYTE   W24
 BYTE   Cs3  v100
 BYTE   N04  Gn3  v108
 BYTE   W08
 BYTE   Cs3  v100
 BYTE   N04  Gn3
 BYTE   W08
 BYTE   Cs3  v096
 BYTE   N04  Gn3  v104
 BYTE   W08
 BYTE   An2  v100
 BYTE   N04  Fn3  v112
 BYTE   W24
// 026   ----------------------------------------
 BYTE   N06  An2  v108
 BYTE   N06  An3  v104
 BYTE   W08
 BYTE   As2  v096
 BYTE   N06  As3
 BYTE   W08
 BYTE   Gn2  v104
 BYTE   N06  Gn3  v100
 BYTE   W08
 BYTE   An2  v104
 BYTE   N06  An3
 BYTE   W08
 BYTE   Fn2  v100
 BYTE   N06  Fn3  v096
 BYTE   W08
 BYTE   Gn2  v104
 BYTE   N06  Gn3  v100
 BYTE   W08
 BYTE   En2  v104
 BYTE   N06  En3  v100
 BYTE   W08
 BYTE   Fn2  v096
 BYTE   N06  Fn3  v092
 BYTE   W08
 BYTE   Dn2  v100
 BYTE   N06  Dn3
 BYTE   W08
 BYTE   En2  v104
 BYTE   N06  En3  v100
 BYTE   W08
 BYTE   Cs2  v096
 BYTE   N06  Cs3  v092
 BYTE   W08
 BYTE   Dn2  v100
 BYTE   N06  Dn3  v096
 BYTE   W08
// 027   ----------------------------------------
 BYTE   N44  Cs2
 BYTE   N44  Gn2  v092
 BYTE   N44  As2
 BYTE   N44  Cs3
 BYTE   N44  En3  v096
 BYTE   W48
 BYTE   N07  Cs2  v092
 BYTE   W08
 BYTE   En2  v084
 BYTE   W08
 BYTE   Gn2  v088
 BYTE   W08
 BYTE   As2
 BYTE   W08
 BYTE   Cs3  v084
 BYTE   W08
 BYTE   En3  v088
 BYTE   W07
 BYTE   GoTo
  POIN2 Label_3_012E2A49
 BYTE   FINE

//**************** Track 5 (Midi-Chn.4) ****************//

PokemonBWNsCastleThegis_005:
// 000   ----------------------------------------
 BYTE   KEYSH   PokemonBWNsCastleThegis_key+0
 BYTE   VOICE   52
 BYTE   VOL   55*PokemonBWNsCastleThegis_mvl/mxv
 BYTE   PAN   c_v+16
 BYTE   MOD 0
 BYTE   CnM2  v000
 BYTE   W96
// 001   ----------------------------------------
 BYTE   W96
// 002   ----------------------------------------
 BYTE   W96
// 003   ----------------------------------------
Label_4_012E2CCA:
 BYTE   N44  Dn3  v084
 BYTE   N44  Fn3  v092
 BYTE   W24
 BYTE   W08
 BYTE   W08
 BYTE   W08
 BYTE   An2  v076
 BYTE   N44  Dn3  v084
 BYTE   W24
 BYTE   W08
 BYTE   W08
 BYTE   W08
// 004   ----------------------------------------
 BYTE   En3
 BYTE   N44  Gn3  v092
 BYTE   W24
 BYTE   W08
 BYTE   W08
 BYTE   W08
 BYTE   Gn3  v076
 BYTE   N44  As3  v084
 BYTE   W24
 BYTE   W08
 BYTE   W08
 BYTE   W08
// 005   ----------------------------------------
 BYTE   Cs3
 BYTE   N44  En3  v088
 BYTE   W24
 BYTE   W08
 BYTE   W08
 BYTE   W08
 BYTE   En3  v076
 BYTE   N44  Gn3  v084
 BYTE   W24
 BYTE   W08
 BYTE   W08
 BYTE   W08
// 006   ----------------------------------------
 BYTE   Dn3  v080
 BYTE   N44  Fn3  v088
 BYTE   W24
 BYTE   W08
 BYTE   W08
 BYTE   W08
 BYTE   An2  v072
 BYTE   N44  Dn3  v080
 BYTE   W24
 BYTE   W08
 BYTE   W08
 BYTE   W08
// 007   ----------------------------------------
 BYTE   N44
 BYTE   N44  Fn3  v088
 BYTE   W24
 BYTE   W08
 BYTE   W08
 BYTE   W08
 BYTE   As2  v072
 BYTE   N44  Dn3  v080
 BYTE   W24
 BYTE   W08
 BYTE   W08
 BYTE   W08
// 008   ----------------------------------------
 BYTE   Cn3
 BYTE   N44  Fn3  v084
 BYTE   W24
 BYTE   W08
 BYTE   W08
 BYTE   W08
 BYTE   Fn3  v072
 BYTE   N44  An3  v080
 BYTE   W24
 BYTE   W08
 BYTE   W08
 BYTE   W08
// 009   ----------------------------------------
 BYTE   Dn3
 BYTE   N44  Gn3  v084
 BYTE   W24
 BYTE   W08
 BYTE   W08
 BYTE   W08
 BYTE   Bn2  v068
 BYTE   N44  Dn3  v076
 BYTE   W24
 BYTE   W08
 BYTE   W08
 BYTE   W08
// 010   ----------------------------------------
 BYTE   N44
 BYTE   N44  En3  v084
 BYTE   W24
 BYTE   W08
 BYTE   W08
 BYTE   W08
 BYTE   En3  v068
 BYTE   N44  An3  v072
 BYTE   W24
 BYTE   W08
 BYTE   W08
 BYTE   W08
// 011   ----------------------------------------
 BYTE   N03  Dn3  v104
 BYTE   N03  An3  v112
 BYTE   W24
 BYTE   N23  Dn3  v100
 BYTE   N23  Fn3  v108
 BYTE   W24
 BYTE   N03  En3  v104
 BYTE   N03  As3  v112
 BYTE   W24
 BYTE   N23  En3  v100
 BYTE   N23  Gn3  v108
 BYTE   W24
// 012   ----------------------------------------
 BYTE   N03  Dn3  v104
 BYTE   N03  An3  v112
 BYTE   W24
 BYTE   Dn3  v100
 BYTE   N03  Fn3  v108
 BYTE   W24
 BYTE   En3  v104
 BYTE   N03  Gn3  v112
 BYTE   W24
 BYTE   N23  Cs3  v100
 BYTE   N23  En3  v108
 BYTE   W24
// 013   ----------------------------------------
 BYTE   N03  Dn3  v104
 BYTE   N03  An3  v112
 BYTE   W24
 BYTE   N23  Dn3  v100
 BYTE   N23  Fn3  v108
 BYTE   W24
 BYTE   N03  En3  v104
 BYTE   N03  As3  v112
 BYTE   W24
 BYTE   N22  En3  v100
 BYTE   N22  Gn3  v108
 BYTE   W24
// 014   ----------------------------------------
 BYTE   N44  Fn3
 BYTE   N44  As3  v104
 BYTE   W48
 BYTE   Dn3  v108
 BYTE   N44  Gs3  v100
 BYTE   W48
// 015   ----------------------------------------
 BYTE   Ds3
 BYTE   N44  Fs3  v108
 BYTE   W24
 BYTE   W08
 BYTE   W08
 BYTE   W08
 BYTE   Fs3  v100
 BYTE   N44  As3  v108
 BYTE   W24
 BYTE   W08
 BYTE   W08
 BYTE   W08
// 016   ----------------------------------------
 BYTE   Fn3  v100
 BYTE   N44  Gs3  v104
 BYTE   W24
 BYTE   W08
 BYTE   W08
 BYTE   W08
 BYTE   Gs3  v092
 BYTE   N44  Bn3  v100
 BYTE   W24
 BYTE   W08
 BYTE   W08
 BYTE   W08
// 017   ----------------------------------------
 BYTE   Fs3  v096
 BYTE   N44  As3  v104
 BYTE   W24
 BYTE   W08
 BYTE   W08
 BYTE   W08
 BYTE   Fs3  v092
 BYTE   N44  An3  v096
 BYTE   W24
 BYTE   W08
 BYTE   W08
 BYTE   W08
// 018   ----------------------------------------
 BYTE   Cs3
 BYTE   N44  Gs3  v104
 BYTE   W24
 BYTE   W08
 BYTE   W08
 BYTE   W08
 BYTE   Fs3  v092
 BYTE   N44  As3  v100
 BYTE   W24
 BYTE   W08
 BYTE   W08
 BYTE   W08
// 019   ----------------------------------------
 BYTE   Gs3
 BYTE   N44  Cs4  v108
 BYTE   W24
 BYTE   W08
 BYTE   W08
 BYTE   W08
 BYTE   Cs4  v100
 BYTE   N44  En4  v108
 BYTE   W24
 BYTE   W08
 BYTE   W08
 BYTE   W08
// 020   ----------------------------------------
 BYTE   Bn3  v100
 BYTE   N44  Ds4  v104
 BYTE   W24
 BYTE   W08
 BYTE   W08
 BYTE   W08
 BYTE   Fs3  v092
 BYTE   N44  Bn3  v100
 BYTE   W24
 BYTE   W08
 BYTE   W08
 BYTE   W08
// 021   ----------------------------------------
 BYTE   As3  v096
 BYTE   N44  Cs4  v104
 BYTE   W24
 BYTE   W08
 BYTE   W08
 BYTE   W08
 BYTE   Cs4  v092
 BYTE   N44  En4  v096
 BYTE   W24
 BYTE   W08
 BYTE   W08
 BYTE   W08
// 022   ----------------------------------------
 BYTE   Bn3
 BYTE   N44  Dn4  v104
 BYTE   W24
 BYTE   W08
 BYTE   W08
 BYTE   W08
 BYTE   An3  v092
 BYTE   N44  Cs4  v100
 BYTE   W24
 BYTE   W08
 BYTE   W08
 BYTE   W08
// 023   ----------------------------------------
 BYTE   N21  An3
 BYTE   N21  Fn4  v112
 BYTE   W24
 BYTE   N03  An3  v100
 BYTE   N03  Dn4  v108
 BYTE   W24
 BYTE   An3  v100
 BYTE   N03  Gn4  v104
 BYTE   W08
 BYTE   An3  v100
 BYTE   N03  Gn4
 BYTE   W08
 BYTE   An3  v096
 BYTE   N03  Gn4  v104
 BYTE   W08
 BYTE   An3  v096
 BYTE   N03  Fn4  v112
 BYTE   W24
// 024   ----------------------------------------
 BYTE   W96
// 025   ----------------------------------------
 BYTE   N21  An3  v100
 BYTE   N21  Fn4  v112
 BYTE   W24
 BYTE   N03  An3  v100
 BYTE   N03  Dn4  v108
 BYTE   W24
 BYTE   Gn3  v100
 BYTE   N03  Cs4  v104
 BYTE   W08
 BYTE   Gn3  v100
 BYTE   N03  Cs4
 BYTE   W08
 BYTE   Gn3  v096
 BYTE   N03  Cs4  v104
 BYTE   W08
 BYTE   An3  v096
 BYTE   N03  Dn4  v112
 BYTE   W24
// 026   ----------------------------------------
 BYTE   W96
// 027   ----------------------------------------
 BYTE   W92
 BYTE   W03
 BYTE   GoTo
  POIN2 Label_4_012E2CCA
 BYTE   FINE

//**************** Track 6 (Midi-Chn.5) ****************//

PokemonBWNsCastleThegis_006:
// 000   ----------------------------------------
 BYTE   KEYSH   PokemonBWNsCastleThegis_key+0
 BYTE   VOICE   49
 BYTE   VOL   59*PokemonBWNsCastleThegis_mvl/mxv
 BYTE   PAN   c_v+21
 BYTE   MOD 0
 BYTE   CnM2  v000
 BYTE   N04  Cs4  v100
 BYTE   W08
 BYTE   Gn3  v088
 BYTE   W08
 BYTE   As3  v092
 BYTE   W08
 BYTE   En3  v096
 BYTE   W08
 BYTE   As3  v088
 BYTE   W08
 BYTE   Gs3  v092
 BYTE   W08
 BYTE   Dn3  v096
 BYTE   W08
 BYTE   Gn3  v088
 BYTE   W08
 BYTE   Fs3  v092
 BYTE   W08
 BYTE   Cn3  v096
 BYTE   W08
 BYTE   Fn3  v084
 BYTE   W08
 BYTE   En3  v088
 BYTE   W08
// 001   ----------------------------------------
 BYTE   W96
// 002   ----------------------------------------
 BYTE   W96
// 003   ----------------------------------------
Label_5_012E2EC6:
 BYTE   N07  Dn3  v096
 BYTE   W08
 BYTE   An2  v092
 BYTE   W08
 BYTE   Dn3
 BYTE   W08
 BYTE   An2  v088
 BYTE   W08
 BYTE   Dn3  v092
 BYTE   W08
 BYTE   An2  v088
 BYTE   W08
 BYTE   Dn3  v092
 BYTE   W08
 BYTE   An2  v088
 BYTE   W08
 BYTE   Dn3
 BYTE   W08
 BYTE   An2
 BYTE   W08
 BYTE   Dn3
 BYTE   W08
 BYTE   An2  v084
 BYTE   W08
// 004   ----------------------------------------
 BYTE   Dn3  v092
 BYTE   W08
 BYTE   As2  v084
 BYTE   W08
 BYTE   Dn3  v088
 BYTE   W08
 BYTE   As2  v084
 BYTE   W08
 BYTE   Dn3  v088
 BYTE   W08
 BYTE   As2  v084
 BYTE   W08
 BYTE   Dn3  v088
 BYTE   W08
 BYTE   As2  v084
 BYTE   W08
 BYTE   Dn3  v088
 BYTE   W08
 BYTE   As2  v084
 BYTE   W08
 BYTE   Dn3  v088
 BYTE   W08
 BYTE   As2  v080
 BYTE   W08
// 005   ----------------------------------------
 BYTE   Cs3  v092
 BYTE   W08
 BYTE   As2  v088
 BYTE   W08
 BYTE   Cs3  v092
 BYTE   W08
 BYTE   As2  v088
 BYTE   W08
 BYTE   Cs3
 BYTE   W08
 BYTE   As2  v084
 BYTE   W08
 BYTE   Cs3  v088
 BYTE   W08
 BYTE   As2  v084
 BYTE   W08
 BYTE   Cs3  v088
 BYTE   W08
 BYTE   As2  v084
 BYTE   W08
 BYTE   Cs3  v088
 BYTE   W08
 BYTE   As2
 BYTE   W08
// 006   ----------------------------------------
 BYTE   Dn3  v092
 BYTE   W08
 BYTE   An2  v088
 BYTE   W08
 BYTE   Dn3
 BYTE   W08
 BYTE   An2  v084
 BYTE   W08
 BYTE   Dn3  v088
 BYTE   W08
 BYTE   An2  v084
 BYTE   W08
 BYTE   Dn3  v088
 BYTE   W08
 BYTE   An2  v084
 BYTE   W08
 BYTE   Dn3  v088
 BYTE   W08
 BYTE   An2  v084
 BYTE   W08
 BYTE   Dn3  v088
 BYTE   W08
 BYTE   An2  v084
 BYTE   W08
// 007   ----------------------------------------
 BYTE   Dn3  v096
 BYTE   W08
 BYTE   As2  v092
 BYTE   W08
 BYTE   Dn3
 BYTE   W08
 BYTE   As2  v088
 BYTE   W08
 BYTE   Dn3  v092
 BYTE   W08
 BYTE   As2  v088
 BYTE   W08
 BYTE   Dn3  v092
 BYTE   W08
 BYTE   As2  v088
 BYTE   W08
 BYTE   Dn3
 BYTE   W08
 BYTE   As2
 BYTE   W08
 BYTE   Dn3
 BYTE   W08
 BYTE   As2  v084
 BYTE   W08
// 008   ----------------------------------------
 BYTE   Cn3  v092
 BYTE   W08
 BYTE   An2  v084
 BYTE   W08
 BYTE   Cn3  v088
 BYTE   W08
 BYTE   An2  v084
 BYTE   W08
 BYTE   Cn3  v088
 BYTE   W08
 BYTE   An2  v084
 BYTE   W08
 BYTE   Cn3  v088
 BYTE   W08
 BYTE   An2  v084
 BYTE   W08
 BYTE   Cn3  v088
 BYTE   W08
 BYTE   An2  v084
 BYTE   W08
 BYTE   Cn3  v088
 BYTE   W08
 BYTE   An2  v080
 BYTE   W08
// 009   ----------------------------------------
 BYTE   Dn3  v092
 BYTE   W08
 BYTE   Bn2  v088
 BYTE   W08
 BYTE   Dn3  v092
 BYTE   W08
 BYTE   Bn2  v088
 BYTE   W08
 BYTE   Dn3
 BYTE   W08
 BYTE   Bn2  v084
 BYTE   W08
 BYTE   Dn3  v088
 BYTE   W08
 BYTE   Bn2  v084
 BYTE   W08
 BYTE   Dn3  v088
 BYTE   W08
 BYTE   Bn2  v084
 BYTE   W08
 BYTE   Dn3  v088
 BYTE   W08
 BYTE   Bn2
 BYTE   W08
// 010   ----------------------------------------
 BYTE   En3  v092
 BYTE   W08
 BYTE   An2  v088
 BYTE   W08
 BYTE   En3
 BYTE   W08
 BYTE   An2  v084
 BYTE   W08
 BYTE   En3  v088
 BYTE   W08
 BYTE   An2  v084
 BYTE   W08
 BYTE   En3  v088
 BYTE   W08
 BYTE   An2  v084
 BYTE   W08
 BYTE   En3  v088
 BYTE   W08
 BYTE   An2  v084
 BYTE   W08
 BYTE   En3  v088
 BYTE   W08
 BYTE   An2  v084
 BYTE   W08
// 011   ----------------------------------------
 BYTE   Fn3  v116
 BYTE   W08
 BYTE   N06  En3  v112
 BYTE   W08
 BYTE   N07  Dn3  v116
 BYTE   W08
 BYTE   N23  An3  v120
 BYTE   W24
 BYTE   As3  v116
 BYTE   W24
 BYTE   Gn3  v120
 BYTE   W24
// 012   ----------------------------------------
 BYTE   N05  An3
 BYTE   W24
 BYTE   Fn3  v116
 BYTE   W16
 BYTE   Fn3  v112
 BYTE   W08
 BYTE   N07  Gn3  v116
 BYTE   W08
 BYTE   Fn3  v112
 BYTE   W08
 BYTE   En3  v116
 BYTE   W08
 BYTE   N23  Cs3
 BYTE   W24
// 013   ----------------------------------------
 BYTE   N07  Fn3
 BYTE   W08
 BYTE   N06  En3  v112
 BYTE   W08
 BYTE   N07  Dn3  v116
 BYTE   W08
 BYTE   N23  An3
 BYTE   W24
 BYTE   N22  As3  v112
 BYTE   W24
 BYTE   Gn3  v116
 BYTE   W24
// 014   ----------------------------------------
 BYTE   W96
// 015   ----------------------------------------
 BYTE   N44  Ds2
 BYTE   W32
 BYTE   W04
 BYTE   W04
 BYTE   W04
 BYTE   W04
 BYTE   Fs2  v112
 BYTE   W32
 BYTE   W04
 BYTE   W04
 BYTE   W04
 BYTE   W04
// 016   ----------------------------------------
 BYTE   Fn2  v116
 BYTE   W32
 BYTE   W04
 BYTE   W04
 BYTE   W04
 BYTE   W04
 BYTE   Gs2  v112
 BYTE   W32
 BYTE   W04
 BYTE   W04
 BYTE   W04
 BYTE   W04
// 017   ----------------------------------------
 BYTE   Fs2  v116
 BYTE   W32
 BYTE   W04
 BYTE   W04
 BYTE   W04
 BYTE   W04
 BYTE   An2  v112
 BYTE   W32
 BYTE   W04
 BYTE   W04
 BYTE   W04
 BYTE   W04
// 018   ----------------------------------------
 BYTE   Gs2  v116
 BYTE   W32
 BYTE   W04
 BYTE   W04
 BYTE   W04
 BYTE   W04
 BYTE   Fs2  v112
 BYTE   W32
 BYTE   W04
 BYTE   W04
 BYTE   W04
 BYTE   W04
// 019   ----------------------------------------
 BYTE   En2  v116
 BYTE   W32
 BYTE   W04
 BYTE   W04
 BYTE   W04
 BYTE   W04
 BYTE   Gs2  v112
 BYTE   W32
 BYTE   W04
 BYTE   W04
 BYTE   W04
 BYTE   W04
// 020   ----------------------------------------
 BYTE   Fs2  v116
 BYTE   W32
 BYTE   W04
 BYTE   W04
 BYTE   W04
 BYTE   W04
 BYTE   Bn2  v112
 BYTE   W32
 BYTE   W04
 BYTE   W04
 BYTE   W04
 BYTE   W04
// 021   ----------------------------------------
 BYTE   As2  v116
 BYTE   W32
 BYTE   W04
 BYTE   W04
 BYTE   W04
 BYTE   W04
 BYTE   En2  v112
 BYTE   W32
 BYTE   W04
 BYTE   W04
 BYTE   W04
 BYTE   W04
// 022   ----------------------------------------
 BYTE   Gn2  v116
 BYTE   W32
 BYTE   W04
 BYTE   W04
 BYTE   W04
 BYTE   W04
 BYTE   N22  En2  v112
 BYTE   W12
 BYTE   W04
 BYTE   W04
 BYTE   W04
 BYTE   N07  En2  v116
 BYTE   W08
 BYTE   Fn2  v108
 BYTE   W08
 BYTE   Gn2  v112
 BYTE   W08
// 023   ----------------------------------------
 BYTE   W96
// 024   ----------------------------------------
 BYTE   W96
// 025   ----------------------------------------
 BYTE   W96
// 026   ----------------------------------------
 BYTE   N06  An3  v104
 BYTE   W08
 BYTE   As3  v092
 BYTE   W08
 BYTE   Gn3  v100
 BYTE   W08
 BYTE   An3
 BYTE   W08
 BYTE   Fn3  v096
 BYTE   W08
 BYTE   Gn3  v100
 BYTE   W08
 BYTE   En3
 BYTE   W08
 BYTE   Fn3  v092
 BYTE   W08
 BYTE   Dn3  v096
 BYTE   W08
 BYTE   En3  v100
 BYTE   W08
 BYTE   Cs3  v092
 BYTE   W08
 BYTE   Dn3
 BYTE   W08
// 027   ----------------------------------------
 BYTE   N44  An2  v100
 BYTE   W48
 BYTE   N06
 BYTE   W08
 BYTE   En2  v092
 BYTE   W08
 BYTE   An2  v096
 BYTE   W08
 BYTE   Cs3  v104
 BYTE   W08
 BYTE   Dn3  v096
 BYTE   W08
 BYTE   En3  v100
 BYTE   W07
 BYTE   GoTo
  POIN2 Label_5_012E2EC6
 BYTE   FINE

//**************** Track 7 (Midi-Chn.6) ****************//

PokemonBWNsCastleThegis_007:
// 000   ----------------------------------------
 BYTE   KEYSH   PokemonBWNsCastleThegis_key+0
 BYTE   VOICE   14
 BYTE   VOL   61*PokemonBWNsCastleThegis_mvl/mxv
 BYTE   PAN   c_v-34
 BYTE   MOD 0
 BYTE   CnM2  v000
 BYTE   W96
// 001   ----------------------------------------
 BYTE   W96
// 002   ----------------------------------------
 BYTE   W96
// 003   ----------------------------------------
Label_6_5691F6:
 BYTE   N20  Fn3  v096
 BYTE   W24
 BYTE   Fn3  v048
 BYTE   W72
// 004   ----------------------------------------
 BYTE   W96
// 005   ----------------------------------------
 BYTE   W96
// 006   ----------------------------------------
 BYTE   W96
// 007   ----------------------------------------
 BYTE   W96
// 008   ----------------------------------------
 BYTE   W96
// 009   ----------------------------------------
 BYTE   W96
// 010   ----------------------------------------
 BYTE   W96
// 011   ----------------------------------------
Label_6_569204:
 BYTE   W24
 BYTE   N20  Dn3  v092
 BYTE   W24
 BYTE   Dn3  v040
 BYTE   W24
 BYTE   Cs3  v092
 BYTE   W24
 BYTE   PEND 
// 012   ----------------------------------------
 BYTE   Dn3
 BYTE   W24
 BYTE   Dn3  v040
 BYTE   W72
// 013   ----------------------------------------
 BYTE   PATT
  POIN2 Label_6_569204
// 014   ----------------------------------------
 BYTE   N20  As3  v096
 BYTE   W24
 BYTE   As3  v048
 BYTE   W24
 BYTE   Dn4  v096
 BYTE   W24
 BYTE   Dn4  v048
 BYTE   W24
// 015   ----------------------------------------
 BYTE   Fs3  v108
 BYTE   W24
 BYTE   Fs3  v060
 BYTE   W72
// 016   ----------------------------------------
 BYTE   W96
// 017   ----------------------------------------
 BYTE   W96
// 018   ----------------------------------------
 BYTE   W96
// 019   ----------------------------------------
 BYTE   Cs3  v104
 BYTE   W24
 BYTE   Cs3  v056
 BYTE   W72
// 020   ----------------------------------------
 BYTE   W96
// 021   ----------------------------------------
 BYTE   W96
// 022   ----------------------------------------
 BYTE   W96
// 023   ----------------------------------------
 BYTE   Dn3  v112
 BYTE   W24
 BYTE   Dn3  v064
 BYTE   W72
// 024   ----------------------------------------
 BYTE   W96
// 025   ----------------------------------------
 BYTE   Dn3  v108
 BYTE   W24
 BYTE   Dn3  v060
 BYTE   W72
// 026   ----------------------------------------
 BYTE   W96
// 027   ----------------------------------------
 BYTE   W92
 BYTE   W03
 BYTE   GoTo
  POIN2 Label_6_5691F6
 BYTE   FINE

//**************** Track 8 (Midi-Chn.7) ****************//

PokemonBWNsCastleThegis_008:
// 000   ----------------------------------------
 BYTE   KEYSH   PokemonBWNsCastleThegis_key+0
 BYTE   VOICE   47
 BYTE   VOL   59*PokemonBWNsCastleThegis_mvl/mxv
 BYTE   PAN   c_v-24
 BYTE   MOD 0
 BYTE   CnM2  v000
 BYTE   W96
// 001   ----------------------------------------
 BYTE   W72
 BYTE   N06  Cn2  v088
 BYTE   W08
 BYTE   Cn2  v076
 BYTE   W08
 BYTE   Cn2  v084
 BYTE   W08
// 002   ----------------------------------------
 BYTE   N36  Cn2  v096
 BYTE   W72
 BYTE   N02  Cn2  v032
 BYTE   W03
 BYTE   Cn2  v036
 BYTE   W03
 BYTE   Cn2  v044
 BYTE   W03
 BYTE   Cn2  v052
 BYTE   W03
 BYTE   Cn2  v064
 BYTE   W03
 BYTE   Cn2  v068
 BYTE   W03
 BYTE   Cn2  v076
 BYTE   W03
 BYTE   Cn2  v088
 BYTE   W03
// 003   ----------------------------------------
Label_7_569578:
 BYTE   N36  Cn2  v088
 BYTE   W96
// 004   ----------------------------------------
 BYTE   W96
// 005   ----------------------------------------
 BYTE   W96
// 006   ----------------------------------------
 BYTE   W96
// 007   ----------------------------------------
 BYTE   W96
// 008   ----------------------------------------
 BYTE   W96
// 009   ----------------------------------------
 BYTE   W96
// 010   ----------------------------------------
 BYTE   W72
 BYTE   N02  Cn2  v044
 BYTE   W03
 BYTE   Cn2  v048
 BYTE   W03
 BYTE   Cn2  v052
 BYTE   W03
 BYTE   Cn2  v064
 BYTE   W03
 BYTE   Cn2  v076
 BYTE   W03
 BYTE   Cn2  v080
 BYTE   W03
 BYTE   Cn2  v088
 BYTE   W03
 BYTE   Cn2  v100
 BYTE   W03
// 011   ----------------------------------------
 BYTE   N36  Cn2  v092
 BYTE   W48
 BYTE   N22
 BYTE   W24
 BYTE   Cn2  v084
 BYTE   W24
// 012   ----------------------------------------
 BYTE   Cn2  v092
 BYTE   W72
 BYTE   N02  Cn2  v044
 BYTE   W03
 BYTE   Cn2  v052
 BYTE   W03
 BYTE   Cn2  v056
 BYTE   W03
 BYTE   Cn2  v068
 BYTE   W03
 BYTE   Cn2  v076
 BYTE   W03
 BYTE   Cn2  v084
 BYTE   W03
 BYTE   Cn2  v088
 BYTE   W03
 BYTE   Cn2  v104
 BYTE   W03
// 013   ----------------------------------------
 BYTE   N11  Cs3  v100
 BYTE   W24
 BYTE   N19  Cn2  v092
 BYTE   W24
 BYTE   N11  Cs3  v100
 BYTE   W24
 BYTE   N22  Cn2  v084
 BYTE   W24
// 014   ----------------------------------------
 BYTE   N01  As2  v108
 BYTE   W04
 BYTE   As2  v092
 BYTE   W04
 BYTE   As2  v096
 BYTE   W04
 BYTE   As2  v080
 BYTE   W04
 BYTE   As2  v084
 BYTE   W03
 BYTE   As2  v072
 BYTE   W03
 BYTE   As2  v064
 BYTE   W02
 BYTE   As2  v072
 BYTE   W03
 BYTE   As2  v060
 BYTE   W03
 BYTE   As2  v068
 BYTE   W03
 BYTE   As2  v056
 BYTE   W03
 BYTE   As2  v064
 BYTE   W03
 BYTE   As2  v052
 BYTE   W03
 BYTE   As2  v060
 BYTE   W03
 BYTE   As2  v048
 BYTE   W03
 BYTE   N19  Cn2  v088
 BYTE   W24
 BYTE   N02  Cn2  v040
 BYTE   W03
 BYTE   Cn2  v048
 BYTE   W03
 BYTE   Cn2  v052
 BYTE   W03
 BYTE   Cn2  v064
 BYTE   W03
 BYTE   Cn2  v072
 BYTE   W03
 BYTE   Cn2  v080
 BYTE   W03
 BYTE   Cn2  v084
 BYTE   W03
 BYTE   Cn2  v100
 BYTE   W03
// 015   ----------------------------------------
 BYTE   N36  Cn2  v096
 BYTE   W96
// 016   ----------------------------------------
 BYTE   W96
// 017   ----------------------------------------
 BYTE   W96
// 018   ----------------------------------------
 BYTE   W72
 BYTE   N02  Cn2  v036
 BYTE   W03
 BYTE   Cn2  v040
 BYTE   W03
 BYTE   Cn2  v048
 BYTE   W03
 BYTE   Cn2  v056
 BYTE   W03
 BYTE   Cn2  v068
 BYTE   W03
 BYTE   Cn2  v072
 BYTE   W03
 BYTE   Cn2  v080
 BYTE   W03
 BYTE   Cn2  v092
 BYTE   W03
// 019   ----------------------------------------
 BYTE   N36  Cn2  v100
 BYTE   W96
// 020   ----------------------------------------
 BYTE   W96
// 021   ----------------------------------------
 BYTE   Cn2  v088
 BYTE   W96
// 022   ----------------------------------------
Label_7_569644:
 BYTE   W72
 BYTE   N02  Cn2  v032
 BYTE   W03
 BYTE   Cn2  v036
 BYTE   W03
 BYTE   Cn2  v044
 BYTE   W03
 BYTE   Cn2  v052
 BYTE   W03
 BYTE   Cn2  v064
 BYTE   W03
 BYTE   Cn2  v068
 BYTE   W03
 BYTE   Cn2  v076
 BYTE   W03
 BYTE   Cn2  v088
 BYTE   W03
 BYTE   PEND 
// 023   ----------------------------------------
Label_7_56965F:
 BYTE   N36  Cn2  v096
 BYTE   W48
 BYTE   N22
 BYTE   W24
 BYTE   Cn2  v088
 BYTE   W24
 BYTE   PEND 
// 024   ----------------------------------------
 BYTE   PATT
  POIN2 Label_7_569644
// 025   ----------------------------------------
 BYTE   PATT
  POIN2 Label_7_56965F
// 026   ----------------------------------------
 BYTE   W96
// 027   ----------------------------------------
 BYTE   N32  Cn2  v096
 BYTE   W92
 BYTE   W03
 BYTE   GoTo
  POIN2 Label_7_569578
 BYTE   FINE

//**************** Track 9 (Midi-Chn.8) ****************//

PokemonBWNsCastleThegis_009:
// 000   ----------------------------------------
 BYTE   KEYSH   PokemonBWNsCastleThegis_key+0
 BYTE   VOICE   125
 BYTE   VOL   59*PokemonBWNsCastleThegis_mvl/mxv
 BYTE   PAN   c_v+0
 BYTE   MOD 0
 BYTE   CnM2  v000
 BYTE   W96
// 001   ----------------------------------------
 BYTE   W96
// 002   ----------------------------------------
 BYTE   W96
// 003   ----------------------------------------
Label_8_568F9A:
 BYTE   W96
// 004   ----------------------------------------
 BYTE   W96
// 005   ----------------------------------------
 BYTE   W96
// 006   ----------------------------------------
 BYTE   W96
// 007   ----------------------------------------
 BYTE   W96
// 008   ----------------------------------------
 BYTE   W96
// 009   ----------------------------------------
 BYTE   W96
// 010   ----------------------------------------
 BYTE   W96
// 011   ----------------------------------------
 BYTE   N22  Cn2  v084
 BYTE   W48
 BYTE   Cn2  v080
 BYTE   W23
 BYTE   Cn2  v068
 BYTE   W24
 BYTE   Cn2  v080
 BYTE   W01
// 012   ----------------------------------------
 BYTE   W96
// 013   ----------------------------------------
 BYTE   W24
 BYTE   Cn2  v084
 BYTE   W44
 BYTE   W03
 BYTE   Cn2  v076
 BYTE   W24
 BYTE   N22
 BYTE   W01
// 014   ----------------------------------------
 BYTE   W48
 BYTE   Cn2  v072
 BYTE   W48
// 015   ----------------------------------------
 BYTE   W96
// 016   ----------------------------------------
 BYTE   W96
// 017   ----------------------------------------
 BYTE   W96
// 018   ----------------------------------------
 BYTE   W96
// 019   ----------------------------------------
 BYTE   W96
// 020   ----------------------------------------
 BYTE   W96
// 021   ----------------------------------------
 BYTE   W96
// 022   ----------------------------------------
 BYTE   W96
// 023   ----------------------------------------
 BYTE   Cn2  v084
 BYTE   W48
 BYTE   Cn2  v076
 BYTE   W23
 BYTE   Cn2  v080
 BYTE   W24
 BYTE   W01
// 024   ----------------------------------------
 BYTE   W96
// 025   ----------------------------------------
 BYTE   Cn2  v084
 BYTE   W48
 BYTE   Cn2  v076
 BYTE   W24
 BYTE   Cn2  v080
 BYTE   W24
// 026   ----------------------------------------
 BYTE   W96
// 027   ----------------------------------------
 BYTE   W92
 BYTE   W03
 BYTE   GoTo
  POIN2 Label_8_568F9A
 BYTE   FINE

//**************** Track 10 (Midi-Chn.9) ****************//

PokemonBWNsCastleThegis_010:
// 000   ----------------------------------------
 BYTE   KEYSH   PokemonBWNsCastleThegis_key+0
 BYTE   VOICE   10
 BYTE   VOL   53*PokemonBWNsCastleThegis_mvl/mxv
 BYTE   PAN   c_v+11
 BYTE   MOD 0
 BYTE   CnM2  v000
 BYTE   W96
// 001   ----------------------------------------
 BYTE   W96
// 002   ----------------------------------------
 BYTE   W96
// 003   ----------------------------------------
Label_9_568FF2:
 BYTE   W24
 BYTE   N13  Dn4  v084
 BYTE   W16
 BYTE   N05  Dn4  v036
 BYTE   W08
 BYTE   N13  Fn4  v080
 BYTE   W16
 BYTE   N05  Fn4  v028
 BYTE   W08
 BYTE   N13  An4  v084
 BYTE   W16
 BYTE   N05  An4  v036
 BYTE   W08
// 004   ----------------------------------------
 BYTE   N13  Gn4  v084
 BYTE   W16
 BYTE   N05  Gn4  v036
 BYTE   W08
 BYTE   N13  En4  v080
 BYTE   W16
 BYTE   N05  En4  v028
 BYTE   W08
 BYTE   N13  As4  v084
 BYTE   W16
 BYTE   N05  As4  v036
 BYTE   W08
 BYTE   N13  En4  v080
 BYTE   W16
 BYTE   N05  En4  v028
 BYTE   W08
// 005   ----------------------------------------
 BYTE   W24
 BYTE   N13  Cs4  v084
 BYTE   W16
 BYTE   N05  Cs4  v036
 BYTE   W08
 BYTE   N13  En4  v080
 BYTE   W16
 BYTE   N05  En4  v028
 BYTE   W08
 BYTE   N13  Gn4  v084
 BYTE   W16
 BYTE   N05  Gn4  v036
 BYTE   W08
// 006   ----------------------------------------
 BYTE   N13  Fn4  v084
 BYTE   W16
 BYTE   N05  Fn4  v036
 BYTE   W08
 BYTE   N13  Dn4  v080
 BYTE   W16
 BYTE   N05  Dn4  v028
 BYTE   W08
 BYTE   N13  An4  v084
 BYTE   W16
 BYTE   N05  An4  v036
 BYTE   W08
 BYTE   N13  Fn4  v080
 BYTE   W16
 BYTE   N05  Fn4  v028
 BYTE   W08
// 007   ----------------------------------------
 BYTE   W24
 BYTE   N13  As3  v080
 BYTE   W16
 BYTE   N05  As3  v028
 BYTE   W08
 BYTE   N13  Dn4  v084
 BYTE   W16
 BYTE   N05  Dn4  v036
 BYTE   W08
 BYTE   N13  As4  v080
 BYTE   W16
 BYTE   N05  As4  v028
 BYTE   W08
// 008   ----------------------------------------
 BYTE   N13  An4  v084
 BYTE   W16
 BYTE   N05  An4  v036
 BYTE   W08
 BYTE   N13  Fn4  v080
 BYTE   W16
 BYTE   N05  Fn4  v028
 BYTE   W08
 BYTE   N13  Cn4  v084
 BYTE   W16
 BYTE   N05  Cn4  v036
 BYTE   W08
 BYTE   N13  Fn4  v080
 BYTE   W16
 BYTE   N05  Fn4  v028
 BYTE   W08
// 009   ----------------------------------------
 BYTE   N13  Dn4  v084
 BYTE   W16
 BYTE   N05  Dn4  v036
 BYTE   W08
 BYTE   N13  Bn3  v080
 BYTE   W16
 BYTE   N05  Bn3  v028
 BYTE   W08
 BYTE   N13  Dn4  v084
 BYTE   W16
 BYTE   N05  Dn4  v036
 BYTE   W08
 BYTE   N13  Gn4  v080
 BYTE   W16
 BYTE   N05  Gn4  v028
 BYTE   W08
// 010   ----------------------------------------
 BYTE   N13  An4  v084
 BYTE   W16
 BYTE   N05  An4  v036
 BYTE   W08
 BYTE   N13  En4  v080
 BYTE   W16
 BYTE   N05  En4  v028
 BYTE   W08
 BYTE   N13  Dn4  v084
 BYTE   W16
 BYTE   N05  Dn4  v036
 BYTE   W08
 BYTE   N13  En4  v080
 BYTE   W16
 BYTE   N05  En4  v028
 BYTE   W08
// 011   ----------------------------------------
 BYTE   W96
// 012   ----------------------------------------
 BYTE   W96
// 013   ----------------------------------------
 BYTE   W96
// 014   ----------------------------------------
 BYTE   W96
// 015   ----------------------------------------
 BYTE   W96
// 016   ----------------------------------------
 BYTE   W96
// 017   ----------------------------------------
 BYTE   W96
// 018   ----------------------------------------
 BYTE   W96
// 019   ----------------------------------------
 BYTE   W96
// 020   ----------------------------------------
 BYTE   W96
// 021   ----------------------------------------
 BYTE   W96
// 022   ----------------------------------------
 BYTE   W96
// 023   ----------------------------------------
 BYTE   W96
// 024   ----------------------------------------
 BYTE   W96
// 025   ----------------------------------------
 BYTE   W96
// 026   ----------------------------------------
 BYTE   W96
// 027   ----------------------------------------
 BYTE   W92
 BYTE   W03
 BYTE   GoTo
  POIN2 Label_9_568FF2
 BYTE   FINE

//**************** Track 11 (Midi-Chn.10) ****************//

PokemonBWNsCastleThegis_011:
// 000   ----------------------------------------
 BYTE   KEYSH   PokemonBWNsCastleThegis_key+0
 BYTE   VOICE   49
 BYTE   VOL   39*PokemonBWNsCastleThegis_mvl/mxv
 BYTE   PAN   c_v+56
 BYTE   MOD 0
 BYTE   CnM2  v000
 BYTE   W08
 BYTE   N05  Gn4  v104
 BYTE   N05  Cs5  v112
 BYTE   W08
 BYTE   Cs4  v092
 BYTE   N05  Gn4  v100
 BYTE   W08
 BYTE   En4  v096
 BYTE   N05  As4  v104
 BYTE   W08
 BYTE   As3  v096
 BYTE   N05  En4  v104
 BYTE   W08
 BYTE   En4  v088
 BYTE   N05  As4  v096
 BYTE   W08
 BYTE   Dn4  v092
 BYTE   N05  Gs4  v100
 BYTE   W08
 BYTE   Gs3
 BYTE   N05  Dn4  v108
 BYTE   W08
 BYTE   Cs4  v088
 BYTE   N05  Gn4  v096
 BYTE   W08
 BYTE   Cn4
 BYTE   N05  Fs4  v104
 BYTE   W08
 BYTE   Fs3  v100
 BYTE   N05  Cn4  v108
 BYTE   W08
 BYTE   Bn3  v088
 BYTE   N05  Fn4  v096
 BYTE   W08
// 001   ----------------------------------------
 BYTE   VOICE   18
 BYTE   N05  As3  v092
 BYTE   N05  En4  v100
 BYTE   W08
 BYTE   N06  As3  v112
 BYTE   W08
 BYTE   N07  En3  v108
 BYTE   W08
 BYTE   Gn3  v112
 BYTE   W08
 BYTE   Cs3
 BYTE   W08
 BYTE   En3  v108
 BYTE   W08
 BYTE   As2  v112
 BYTE   W08
 BYTE   Cs3
 BYTE   W08
 BYTE   Gn2  v108
 BYTE   W08
 BYTE   As2  v112
 BYTE   W08
 BYTE   En2
 BYTE   W08
 BYTE   Gn2  v108
 BYTE   W08
// 002   ----------------------------------------
 BYTE   N06  Cs2  v112
 BYTE   W08
 BYTE   N66  Cs2  v100
 BYTE   N66  Gn2  v096
 BYTE   N66  As2
 BYTE   N66  Cs3
 BYTE   N66  En3  v100
 BYTE   W68
 BYTE   N07  An1  v104
 BYTE   W08
 BYTE   Bn1  v096
 BYTE   W08
 BYTE   Cs2  v104
 BYTE   W04
// 003   ----------------------------------------
Label_10_012E3166:
 BYTE   W07
 BYTE   VOICE   49
 BYTE   W01
 BYTE   N05  Fn4  v092
 BYTE   W08
 BYTE   An3  v076
 BYTE   W08
 BYTE   Dn4  v084
 BYTE   W08
 BYTE   Fn3
 BYTE   W08
 BYTE   Dn4  v076
 BYTE   W08
 BYTE   Dn3  v080
 BYTE   W08
 BYTE   Fn4  v092
 BYTE   W08
 BYTE   An3  v076
 BYTE   W08
 BYTE   Dn4  v084
 BYTE   W08
 BYTE   An4  v088
 BYTE   W08
 BYTE   Dn4  v076
 BYTE   W08
// 004   ----------------------------------------
 BYTE   Fn4  v080
 BYTE   W07
 BYTE   Gn4  v092
 BYTE   W08
 BYTE   As3  v076
 BYTE   W08
 BYTE   En4  v084
 BYTE   W08
 BYTE   Gn3
 BYTE   W08
 BYTE   En4  v076
 BYTE   W08
 BYTE   En3  v080
 BYTE   W08
 BYTE   Gn4  v092
 BYTE   W08
 BYTE   As3  v076
 BYTE   W08
 BYTE   En4  v084
 BYTE   W08
 BYTE   As4  v088
 BYTE   W08
 BYTE   En4  v076
 BYTE   W08
 BYTE   Gn4  v080
 BYTE   W01
// 005   ----------------------------------------
 BYTE   W08
 BYTE   En4  v092
 BYTE   W08
 BYTE   As3  v076
 BYTE   W08
 BYTE   En4  v084
 BYTE   W08
 BYTE   Gn3
 BYTE   W08
 BYTE   As3  v076
 BYTE   W08
 BYTE   En3  v080
 BYTE   W08
 BYTE   En4  v092
 BYTE   W08
 BYTE   Dn4  v076
 BYTE   W08
 BYTE   En4  v084
 BYTE   W08
 BYTE   Cs4  v088
 BYTE   W08
 BYTE   Dn4  v076
 BYTE   W08
// 006   ----------------------------------------
 BYTE   En4  v080
 BYTE   W08
 BYTE   Fn4  v092
 BYTE   W08
 BYTE   An3  v076
 BYTE   W08
 BYTE   Dn4  v084
 BYTE   W08
 BYTE   Fn3
 BYTE   W08
 BYTE   Dn4  v076
 BYTE   W08
 BYTE   Dn3  v080
 BYTE   W08
 BYTE   Fn4  v092
 BYTE   W08
 BYTE   An3  v076
 BYTE   W08
 BYTE   Dn4  v084
 BYTE   W08
 BYTE   An3  v088
 BYTE   W08
 BYTE   Dn4  v076
 BYTE   W08
// 007   ----------------------------------------
 BYTE   Fn4  v080
 BYTE   W08
 BYTE   Fn4  v092
 BYTE   W08
 BYTE   As3  v076
 BYTE   W08
 BYTE   Dn4  v084
 BYTE   W08
 BYTE   Fn3
 BYTE   W08
 BYTE   As3  v076
 BYTE   W08
 BYTE   Dn4  v080
 BYTE   W08
 BYTE   Fn4  v092
 BYTE   W08
 BYTE   As3  v076
 BYTE   W08
 BYTE   Dn4  v084
 BYTE   W08
 BYTE   As4  v088
 BYTE   W08
 BYTE   Dn4  v076
 BYTE   W08
// 008   ----------------------------------------
 BYTE   Fn4  v080
 BYTE   W08
 BYTE   Cn4  v092
 BYTE   W08
 BYTE   Fn3  v076
 BYTE   W08
 BYTE   An3  v084
 BYTE   W08
 BYTE   Cn3
 BYTE   W08
 BYTE   Fn3  v076
 BYTE   W08
 BYTE   An3  v080
 BYTE   W08
 BYTE   Cn4  v092
 BYTE   W08
 BYTE   Fn3  v076
 BYTE   W08
 BYTE   An3  v084
 BYTE   W08
 BYTE   Fn4  v088
 BYTE   W08
 BYTE   An3  v076
 BYTE   W08
// 009   ----------------------------------------
 BYTE   Cn4  v080
 BYTE   W08
 BYTE   Dn4  v092
 BYTE   W08
 BYTE   Gn3  v076
 BYTE   W08
 BYTE   Bn3  v084
 BYTE   W08
 BYTE   Dn3
 BYTE   W08
 BYTE   Gn3  v076
 BYTE   W08
 BYTE   Bn3  v080
 BYTE   W08
 BYTE   Dn4  v092
 BYTE   W08
 BYTE   Gn3  v076
 BYTE   W08
 BYTE   Bn3  v084
 BYTE   W08
 BYTE   Gn4  v088
 BYTE   W08
 BYTE   Bn3  v076
 BYTE   W08
// 010   ----------------------------------------
 BYTE   Dn4  v080
 BYTE   W08
 BYTE   En4  v092
 BYTE   W08
 BYTE   An3  v076
 BYTE   W08
 BYTE   Dn4  v084
 BYTE   W08
 BYTE   En3
 BYTE   W08
 BYTE   An3  v076
 BYTE   W08
 BYTE   Dn4  v080
 BYTE   W08
 BYTE   En4  v092
 BYTE   W08
 BYTE   An3  v076
 BYTE   W08
 BYTE   Cs4  v084
 BYTE   W08
 BYTE   An4  v088
 BYTE   W08
 BYTE   Cs4  v076
 BYTE   W08
// 011   ----------------------------------------
 BYTE   En4  v080
 BYTE   W08
 BYTE   PAN   c_v-56
 BYTE   N07  Fn3  v116
 BYTE   W05
 BYTE   VOICE   18
 BYTE   W03
 BYTE   N06  En3  v112
 BYTE   W08
 BYTE   N07  Dn3  v116
 BYTE   W08
 BYTE   N23  An3  v120
 BYTE   W24
 BYTE   As3  v116
 BYTE   W24
 BYTE   Gn3  v120
 BYTE   W16
// 012   ----------------------------------------
 BYTE   W08
 BYTE   N05  An3
 BYTE   W24
 BYTE   Fn3  v116
 BYTE   W16
 BYTE   Fn3  v112
 BYTE   W08
 BYTE   N07  Gn3  v116
 BYTE   W08
 BYTE   Fn3  v112
 BYTE   W08
 BYTE   En3  v116
 BYTE   W08
 BYTE   N23  Cs3
 BYTE   W16
// 013   ----------------------------------------
 BYTE   W08
 BYTE   N07  Fn3
 BYTE   W08
 BYTE   N06  En3  v112
 BYTE   W08
 BYTE   N07  Dn3  v116
 BYTE   W08
 BYTE   N23  An3
 BYTE   W24
 BYTE   N22  As3  v112
 BYTE   W24
 BYTE   Gn3  v116
 BYTE   W16
// 014   ----------------------------------------
 BYTE   W08
 BYTE   N05  Ds4  v120
 BYTE   W08
 BYTE   As3
 BYTE   W08
 BYTE   Bn3
 BYTE   W08
 BYTE   Cs4
 BYTE   W08
 BYTE   Gs3
 BYTE   W08
 BYTE   Bn3
 BYTE   W08
 BYTE   As3
 BYTE   W08
 BYTE   Fn3
 BYTE   W08
 BYTE   Fs3
 BYTE   W08
 BYTE   Gs3
 BYTE   W08
 BYTE   Dn3
 BYTE   W08
// 015   ----------------------------------------
 BYTE   Fn3
 BYTE   W08
 BYTE   N06  Ds4  v116
 BYTE   W08
 BYTE   As3  v112
 BYTE   W08
 BYTE   Bn3  v116
 BYTE   W08
 BYTE   Cs4
 BYTE   W08
 BYTE   Gs3  v112
 BYTE   W08
 BYTE   Bn3  v116
 BYTE   W08
 BYTE   As3
 BYTE   W08
 BYTE   Fn3  v112
 BYTE   W08
 BYTE   Fs3  v116
 BYTE   W08
 BYTE   Gs3
 BYTE   W08
 BYTE   Dn3  v112
 BYTE   W08
// 016   ----------------------------------------
 BYTE   Fn3  v116
 BYTE   W08
 BYTE   Ds3
 BYTE   W08
 BYTE   Dn3  v112
 BYTE   W08
 BYTE   Ds3  v116
 BYTE   W08
 BYTE   Fn3
 BYTE   W08
 BYTE   Ds3  v112
 BYTE   W08
 BYTE   Fn3  v116
 BYTE   W08
 BYTE   Fs3
 BYTE   W08
 BYTE   Fn3  v112
 BYTE   W08
 BYTE   Fs3  v116
 BYTE   W08
 BYTE   Gs3
 BYTE   W08
 BYTE   Gn3  v108
 BYTE   W08
// 017   ----------------------------------------
 BYTE   Gs3  v116
 BYTE   W08
 BYTE   Fs3
 BYTE   W08
 BYTE   Fn3  v112
 BYTE   W08
 BYTE   Fs3  v116
 BYTE   W08
 BYTE   Gs3
 BYTE   W08
 BYTE   Fs3  v108
 BYTE   W08
 BYTE   Gs3  v116
 BYTE   W08
 BYTE   An3
 BYTE   W08
 BYTE   Gs3  v108
 BYTE   W08
 BYTE   An3  v116
 BYTE   W08
 BYTE   Bn3
 BYTE   W08
 BYTE   An3  v108
 BYTE   W08
// 018   ----------------------------------------
 BYTE   Bn3  v116
 BYTE   W08
 BYTE   Cs4
 BYTE   W08
 BYTE   Gs3  v108
 BYTE   W08
 BYTE   Fs3  v116
 BYTE   W08
 BYTE   Cs3  v112
 BYTE   W08
 BYTE   Fs3  v108
 BYTE   W08
 BYTE   Gs3  v112
 BYTE   W08
 BYTE   Cs4  v116
 BYTE   W08
 BYTE   As3  v108
 BYTE   W08
 BYTE   Fs3  v116
 BYTE   W08
 BYTE   Cs3
 BYTE   W08
 BYTE   Fs3  v112
 BYTE   W08
// 019   ----------------------------------------
 BYTE   As3  v116
 BYTE   W08
 BYTE   PAN   c_v+56
 BYTE   N05  En4  v120
 BYTE   W08
 BYTE   Ds4  v108
 BYTE   W08
 BYTE   VOICE   49
 BYTE   N05  En4  v112
 BYTE   W08
 BYTE   Fs4  v116
 BYTE   W08
 BYTE   En4  v108
 BYTE   W08
 BYTE   Ds4  v112
 BYTE   W08
 BYTE   En4  v116
 BYTE   W08
 BYTE   As3  v108
 BYTE   W08
 BYTE   Bn3  v112
 BYTE   W08
 BYTE   Cs4  v116
 BYTE   W08
 BYTE   Gs3  v108
 BYTE   W08
// 020   ----------------------------------------
 BYTE   Bn3  v112
 BYTE   W08
 BYTE   En3  v120
 BYTE   W08
 BYTE   Ds3  v108
 BYTE   W08
 BYTE   En3  v112
 BYTE   W08
 BYTE   Fs3  v116
 BYTE   W08
 BYTE   En3  v108
 BYTE   W08
 BYTE   Fs3  v112
 BYTE   W08
 BYTE   Gs3  v116
 BYTE   W08
 BYTE   Ds3  v108
 BYTE   W08
 BYTE   Gs3  v112
 BYTE   W08
 BYTE   As3  v116
 BYTE   W08
 BYTE   Bn3  v108
 BYTE   W08
// 021   ----------------------------------------
 BYTE   An3  v112
 BYTE   W08
 BYTE   Cs4  v120
 BYTE   W08
 BYTE   Fs3  v108
 BYTE   W08
 BYTE   As3  v112
 BYTE   W08
 BYTE   En3  v116
 BYTE   W08
 BYTE   Fs3  v108
 BYTE   W08
 BYTE   Cs3  v112
 BYTE   W08
 BYTE   En3  v116
 BYTE   W08
 BYTE   Ds3  v108
 BYTE   W08
 BYTE   En3  v112
 BYTE   W08
 BYTE   Cs3  v116
 BYTE   W08
 BYTE   Ds3  v108
 BYTE   W08
// 022   ----------------------------------------
 BYTE   En3  v112
 BYTE   W08
 BYTE   Dn4  v120
 BYTE   W08
 BYTE   As3  v108
 BYTE   W08
 BYTE   Gn3  v112
 BYTE   W08
 BYTE   Dn3  v116
 BYTE   W08
 BYTE   Gn3  v108
 BYTE   W08
 BYTE   As3  v112
 BYTE   W08
 BYTE   Dn4  v116
 BYTE   W08
 BYTE   Bn3  v108
 BYTE   W08
 BYTE   Gn3  v112
 BYTE   W08
 BYTE   N03  Fn3  v092
 BYTE   W03
 BYTE   Gn3  v084
 BYTE   W03
 BYTE   An3  v096
 BYTE   W04
 BYTE   Bn3  v088
 BYTE   W03
 BYTE   Cs4  v100
 BYTE   W03
// 023   ----------------------------------------
 BYTE   W01
 BYTE   Dn4  v096
 BYTE   W03
 BYTE   En4  v112
 BYTE   W04
 BYTE   N21  Fn4  v124
 BYTE   W24
 BYTE   N03  Dn4  v120
 BYTE   W24
 BYTE   Gn4  v116
 BYTE   W08
 BYTE   Gn4  v112
 BYTE   W08
 BYTE   N03
 BYTE   W08
 BYTE   Fn4  v124
 BYTE   W16
// 024   ----------------------------------------
 BYTE   PAN   c_v-56
 BYTE   W07
 BYTE   VOICE   18
 BYTE   W01
 BYTE   N04  Dn3  v108
 BYTE   W08
 BYTE   En3  v104
 BYTE   W08
 BYTE   Fn3  v108
 BYTE   W08
 BYTE   Gn3
 BYTE   W08
 BYTE   Fn3  v104
 BYTE   W08
 BYTE   En3  v108
 BYTE   W08
 BYTE   An3  v112
 BYTE   W08
 BYTE   En3  v104
 BYTE   W08
 BYTE   Fn3  v108
 BYTE   W08
 BYTE   Gn3
 BYTE   W08
 BYTE   Fn3
 BYTE   W08
// 025   ----------------------------------------
 BYTE   En3
 BYTE   W08
 BYTE   PAN   c_v+56
 BYTE   N21  Fn4  v124
 BYTE   W05
 BYTE   VOICE   49
 BYTE   W19
 BYTE   N03  Dn4  v120
 BYTE   W24
 BYTE   Gn4  v116
 BYTE   W08
 BYTE   Gn4  v112
 BYTE   W08
 BYTE   N03
 BYTE   W08
 BYTE   Fn4  v124
 BYTE   W16
// 026   ----------------------------------------
 BYTE   W08
 BYTE   N06  An4  v116
 BYTE   W08
 BYTE   As4  v104
 BYTE   W08
 BYTE   Gn4  v112
 BYTE   W08
 BYTE   An4
 BYTE   W08
 BYTE   Fn4  v108
 BYTE   W08
 BYTE   Gn4  v112
 BYTE   W08
 BYTE   En4
 BYTE   W08
 BYTE   Fn4  v104
 BYTE   W08
 BYTE   Dn4  v108
 BYTE   W08
 BYTE   En4  v112
 BYTE   W08
 BYTE   Cs4  v104
 BYTE   W08
// 027   ----------------------------------------
 BYTE   Dn4  v108
 BYTE   W08
 BYTE   N01  An3  v100
 BYTE   W02
 BYTE   As3  v088
 BYTE   W02
 BYTE   An3  v100
 BYTE   W02
 BYTE   As3  v088
 BYTE   W02
 BYTE   An3  v100
 BYTE   W02
 BYTE   As3  v088
 BYTE   W02
 BYTE   An3  v100
 BYTE   W02
 BYTE   As3  v088
 BYTE   W02
 BYTE   An3  v100
 BYTE   W02
 BYTE   As3  v088
 BYTE   W02
 BYTE   An3  v100
 BYTE   W02
 BYTE   As3  v088
 BYTE   W02
 BYTE   An3  v100
 BYTE   W02
 BYTE   As3  v088
 BYTE   W02
 BYTE   An3  v100
 BYTE   W02
 BYTE   As3  v088
 BYTE   W02
 BYTE   An3  v100
 BYTE   W02
 BYTE   As3  v088
 BYTE   W02
 BYTE   An3  v100
 BYTE   W02
 BYTE   As3  v088
 BYTE   W02
 BYTE   An3  v100
 BYTE   W02
 BYTE   As3  v088
 BYTE   W02
 BYTE   An3  v100
 BYTE   W02
 BYTE   As3  v088
 BYTE   W02
 BYTE   N06  An3  v100
 BYTE   W08
 BYTE   En3
 BYTE   W08
 BYTE   An3
 BYTE   W08
 BYTE   Cs4
 BYTE   W08
 BYTE   Dn4
 BYTE   W07
 BYTE   GoTo
  POIN2 Label_10_012E3166
 BYTE   FINE

//******************************************************//
	ALIGN 4

PokemonBWNsCastleThegis:
	BYTE	11	// NumTrks
	BYTE	0	// NumBlks
	BYTE	PokemonBWNsCastleThegis_pri	// Priority
	BYTE	PokemonBWNsCastleThegis_rev	// Reverb.
    
	POIN2	PokemonBWNsCastleThegis_grp
    
	POIN2	PokemonBWNsCastleThegis_001
	POIN2	PokemonBWNsCastleThegis_002
	POIN2	PokemonBWNsCastleThegis_003
	POIN2	PokemonBWNsCastleThegis_004
	POIN2	PokemonBWNsCastleThegis_005
	POIN2	PokemonBWNsCastleThegis_006
	POIN2	PokemonBWNsCastleThegis_007
	POIN2	PokemonBWNsCastleThegis_008
	POIN2	PokemonBWNsCastleThegis_009
	POIN2	PokemonBWNsCastleThegis_010
	POIN2	PokemonBWNsCastleThegis_011

	
