//Event file generated from Sappy .s format.
	#include "MPlayDef.event"

	#define	PokemonTCG2GrandmasterDuelPandan_grp  voicegroup000
	#define	PokemonTCG2GrandmasterDuelPandan_pri  0
	#define	PokemonTCG2GrandmasterDuelPandan_rev  0
	#define	PokemonTCG2GrandmasterDuelPandan_mvl  127
	#define	PokemonTCG2GrandmasterDuelPandan_key  0
	#define	PokemonTCG2GrandmasterDuelPandan_tbs  1
	#define	PokemonTCG2GrandmasterDuelPandan_exg  0
	#define	PokemonTCG2GrandmasterDuelPandan_cmp  1

	// .rodata
	//	PokemonTCG2GrandmasterDuelPandan
	ALIGN 4


//**************** Track 1 (Midi-Chn.0) ****************//

PokemonTCG2GrandmasterDuelPandan_001:
// 000   ----------------------------------------
 BYTE   KEYSH   PokemonTCG2GrandmasterDuelPandan_key+0
Label_0_01896336:
 BYTE   TEMPO   174*PokemonTCG2GrandmasterDuelPandan_tbs/2
 BYTE   VOICE   73
 BYTE   PAN   c_v+0
 BYTE   VOL   47*PokemonTCG2GrandmasterDuelPandan_mvl/mxv
 BYTE   W72
 BYTE   W72
// 001   ----------------------------------------
 BYTE   TEMPO   174*PokemonTCG2GrandmasterDuelPandan_tbs/2
 BYTE   W48
 BYTE   TEMPO   174*PokemonTCG2GrandmasterDuelPandan_tbs/2
 BYTE   W72
// 002   ----------------------------------------
 BYTE   W72
 BYTE   TEMPO   174*PokemonTCG2GrandmasterDuelPandan_tbs/2
 BYTE   W48
// 003   ----------------------------------------
 BYTE   TEMPO   174*PokemonTCG2GrandmasterDuelPandan_tbs/2
 BYTE   W72
 BYTE   W72
// 004   ----------------------------------------
 BYTE   TEMPO   174*PokemonTCG2GrandmasterDuelPandan_tbs/2
 BYTE   W48
 BYTE   TEMPO   174*PokemonTCG2GrandmasterDuelPandan_tbs/2
 BYTE   W72
// 005   ----------------------------------------
 BYTE   W72
 BYTE   TEMPO   174*PokemonTCG2GrandmasterDuelPandan_tbs/2
 BYTE   W48
// 006   ----------------------------------------
 BYTE   TEMPO   174*PokemonTCG2GrandmasterDuelPandan_tbs/2
 BYTE   W24
 BYTE   N12  En3  v072
 BYTE   W12
 BYTE   En3  v076
 BYTE   W36
 BYTE   En3  v072
 BYTE   W12
 BYTE   En3  v076
 BYTE   W12
// 007   ----------------------------------------
 BYTE   W12
 BYTE   En3  v068
 BYTE   W84
// 008   ----------------------------------------
 BYTE   W24
 BYTE   En3  v072
 BYTE   W12
 BYTE   N12
 BYTE   W36
 BYTE   En3  v068
 BYTE   W12
 BYTE   En3  v080
 BYTE   W12
// 009   ----------------------------------------
 BYTE   W12
 BYTE   En3  v072
 BYTE   W84
// 010   ----------------------------------------
 BYTE   W24
 BYTE   N12
 BYTE   W12
 BYTE   En3  v084
 BYTE   W36
 BYTE   En3  v072
 BYTE   W12
 BYTE   En3  v076
 BYTE   W12
// 011   ----------------------------------------
 BYTE   W12
 BYTE   En3  v072
 BYTE   W84
// 012   ----------------------------------------
 BYTE   W24
 BYTE   N12
 BYTE   W12
 BYTE   En3  v076
 BYTE   W36
 BYTE   En3  v068
 BYTE   W12
 BYTE   En3  v076
 BYTE   W12
// 013   ----------------------------------------
 BYTE   W12
 BYTE   En3  v068
 BYTE   W84
// 014   ----------------------------------------
 BYTE   Cs3
 BYTE   W12
 BYTE   N06  Fs3  v084
 BYTE   W12
 BYTE   Gs3  v088
 BYTE   W12
 BYTE   TIE  Cs4
 BYTE   W60
// 015   ----------------------------------------
 BYTE   W72
 BYTE   EOT
 BYTE   N12  Bn3  v072
 BYTE   W12
 BYTE   Cs4  v080
 BYTE   W12
// 016   ----------------------------------------
Label_0_018963B1:
 BYTE   N12  Fs4  v088
 BYTE   W12
 BYTE   N06  Cs4  v068
 BYTE   W12
 BYTE   Bn3  v072
 BYTE   W12
 BYTE   TIE  Cs4  v080
 BYTE   W60
 BYTE   PEND 
// 017   ----------------------------------------
 BYTE   W96
// 018   ----------------------------------------
 BYTE   EOT
 BYTE   N12  Dn3  v052
 BYTE   W12
 BYTE   N06  Fs3  v084
 BYTE   W12
 BYTE   Gs3  v080
 BYTE   W12
 BYTE   TIE  Cs4  v084
 BYTE   W60
// 019   ----------------------------------------
 BYTE   W72
 BYTE   EOT
 BYTE   N12  Bn3  v076
 BYTE   W12
 BYTE   Cs4  v084
 BYTE   W12
// 020   ----------------------------------------
 BYTE   Fs4  v092
 BYTE   W12
 BYTE   N06  Cs4  v072
 BYTE   W12
 BYTE   Bn3  v076
 BYTE   W12
 BYTE   TIE  Cs4  v080
 BYTE   W60
// 021   ----------------------------------------
 BYTE   W96
// 022   ----------------------------------------
 BYTE   EOT
 BYTE   N12  Cs3  v060
 BYTE   W12
 BYTE   N06  Fs3  v084
 BYTE   W12
 BYTE   Gs3
 BYTE   W12
 BYTE   TIE  Cs4  v088
 BYTE   W60
// 023   ----------------------------------------
 BYTE   W72
 BYTE   EOT
 BYTE   N12  Bn3  v072
 BYTE   W12
 BYTE   Cs4  v076
 BYTE   W12
// 024   ----------------------------------------
 BYTE   Fs4  v084
 BYTE   W12
 BYTE   N06  Cs4  v072
 BYTE   W12
 BYTE   Bn3  v068
 BYTE   W12
 BYTE   TIE  Cs4  v076
 BYTE   W60
// 025   ----------------------------------------
 BYTE   W96
// 026   ----------------------------------------
 BYTE   EOT
 BYTE   N12  Dn3  v060
 BYTE   W12
 BYTE   N06  Fs3  v084
 BYTE   W12
 BYTE   Gs3
 BYTE   W12
 BYTE   TIE  Cs4  v088
 BYTE   W60
// 027   ----------------------------------------
 BYTE   W72
 BYTE   EOT
 BYTE   N12  Bn3  v068
 BYTE   W12
 BYTE   Cs4  v084
 BYTE   W12
// 028   ----------------------------------------
Label_0_01896429:
 BYTE   N12  Fs4  v084
 BYTE   W12
 BYTE   N06  Cs4  v068
 BYTE   W12
 BYTE   Bn3  v072
 BYTE   W12
 BYTE   TIE  Cs4  v080
 BYTE   W60
 BYTE   PEND 
// 029   ----------------------------------------
 BYTE   W96
// 030   ----------------------------------------
 BYTE   EOT
 BYTE   W24
 BYTE   N06  En4  v072
 BYTE   W36
 BYTE   N06
 BYTE   W36
// 031   ----------------------------------------
 BYTE   N06
 BYTE   W36
 BYTE   N06
 BYTE   W12
 BYTE   Dn3  v056
 BYTE   W06
 BYTE   En3  v080
 BYTE   W06
 BYTE   Fs3
 BYTE   W06
 BYTE   Cs4  v092
 BYTE   W06
 BYTE   Dn3  v064
 BYTE   W06
 BYTE   An3  v080
 BYTE   W06
 BYTE   Dn4  v092
 BYTE   W06
 BYTE   Gn4
 BYTE   W06
// 032   ----------------------------------------
 BYTE   Fs4  v076
 BYTE   W24
 BYTE   En4  v064
 BYTE   W36
 BYTE   En4  v072
 BYTE   W36
// 033   ----------------------------------------
 BYTE   En4  v068
 BYTE   W36
 BYTE   N06
 BYTE   W12
 BYTE   Dn3  v056
 BYTE   W06
 BYTE   En3  v080
 BYTE   W06
 BYTE   Fs3
 BYTE   W06
 BYTE   An3  v084
 BYTE   W06
 BYTE   Gn3  v076
 BYTE   W06
 BYTE   Bn3  v088
 BYTE   W06
 BYTE   Dn4  v080
 BYTE   W06
 BYTE   En4
 BYTE   W06
// 034   ----------------------------------------
 BYTE   Fs4  v084
 BYTE   W24
 BYTE   En4  v068
 BYTE   W36
 BYTE   En4  v072
 BYTE   W36
// 035   ----------------------------------------
 BYTE   En4  v064
 BYTE   W36
 BYTE   En4  v072
 BYTE   W12
 BYTE   Dn3  v056
 BYTE   W06
 BYTE   En3  v080
 BYTE   W06
 BYTE   Fs3
 BYTE   W06
 BYTE   Cs4  v092
 BYTE   W06
 BYTE   Dn3  v060
 BYTE   W06
 BYTE   An3  v088
 BYTE   W06
 BYTE   Dn4  v092
 BYTE   W06
 BYTE   Gn4  v088
 BYTE   W06
// 036   ----------------------------------------
 BYTE   Fs4  v072
 BYTE   W24
 BYTE   En4  v068
 BYTE   W36
 BYTE   N06
 BYTE   W36
// 037   ----------------------------------------
 BYTE   N06
 BYTE   W36
 BYTE   N06
 BYTE   W12
 BYTE   Dn3  v052
 BYTE   W06
 BYTE   En3  v076
 BYTE   W06
 BYTE   Fs3  v084
 BYTE   W06
 BYTE   An3  v080
 BYTE   W06
 BYTE   Gn3  v076
 BYTE   W06
 BYTE   Bn3  v088
 BYTE   W06
 BYTE   Dn4  v084
 BYTE   W06
 BYTE   En4
 BYTE   W06
// 038   ----------------------------------------
 BYTE   N12  Cs3  v056
 BYTE   W12
 BYTE   N06  Fs3  v084
 BYTE   W12
 BYTE   Gs3  v080
 BYTE   W12
 BYTE   TIE  Cs4  v092
 BYTE   W60
// 039   ----------------------------------------
 BYTE   W72
 BYTE   EOT
 BYTE   N12  Bn3  v068
 BYTE   W12
 BYTE   Cs4  v084
 BYTE   W12
// 040   ----------------------------------------
 BYTE   Fs4  v092
 BYTE   W12
 BYTE   N06  Cs4  v072
 BYTE   W12
 BYTE   Bn3
 BYTE   W12
 BYTE   TIE  Cs4  v084
 BYTE   W60
// 041   ----------------------------------------
 BYTE   W96
// 042   ----------------------------------------
 BYTE   EOT
Label_0_018964F0:
 BYTE   N12  Dn3  v056
 BYTE   W12
 BYTE   N06  Fs3  v080
 BYTE   W12
 BYTE   Gs3  v084
 BYTE   W12
 BYTE   TIE  Cs4  v088
 BYTE   W60
 BYTE   PEND 
// 043   ----------------------------------------
 BYTE   W72
 BYTE   EOT
 BYTE   N12  Bn3  v076
 BYTE   W12
 BYTE   Cs4  v080
 BYTE   W12
 BYTE   PATT
  POIN2 Label_0_018963B1
// 044   ----------------------------------------
 BYTE   W96
// 045   ----------------------------------------
 BYTE   EOT
 BYTE   Cs4
 BYTE   N12  Cs3  v056
 BYTE   W12
 BYTE   N06  Fs3  v084
 BYTE   W12
 BYTE   Gs3
 BYTE   W12
 BYTE   TIE  Cs4  v088
 BYTE   W60
// 046   ----------------------------------------
 BYTE   W72
 BYTE   EOT
 BYTE   N12  Bn3  v076
 BYTE   W12
 BYTE   Cs4
 BYTE   W12
 BYTE   PATT
  POIN2 Label_0_01896429
// 047   ----------------------------------------
 BYTE   W96
// 048   ----------------------------------------
 BYTE   EOT
 BYTE   Cs4
 BYTE   N12  Dn3  v056
 BYTE   W12
 BYTE   N06  Fs3  v080
 BYTE   W12
 BYTE   Gs3  v084
 BYTE   W12
 BYTE   TIE  Cs4
 BYTE   W60
// 049   ----------------------------------------
 BYTE   W72
 BYTE   EOT
 BYTE   N12  Bn3  v072
 BYTE   W12
 BYTE   Cs4  v080
 BYTE   W12
// 050   ----------------------------------------
 BYTE   Fs4  v088
 BYTE   W12
 BYTE   N06  Cs4  v072
 BYTE   W12
 BYTE   Bn3  v068
 BYTE   W12
 BYTE   TIE  Cs4  v080
 BYTE   W60
// 051   ----------------------------------------
 BYTE   W96
// 052   ----------------------------------------
 BYTE   EOT
 BYTE   TEMPO   174*PokemonTCG2GrandmasterDuelPandan_tbs/2
 BYTE   N12  Fs2  v068
 BYTE   W12
 BYTE   Fs2  v076
 BYTE   W12
 BYTE   Cs3  v088
 BYTE   W12
 BYTE   Fs2  v072
 BYTE   W12
 BYTE   N24  Cs3  v092
 BYTE   W24
 BYTE   N12  Fs2  v068
 BYTE   W12
 BYTE   Fs2  v076
 BYTE   W12
// 053   ----------------------------------------
 BYTE   Cs3  v092
 BYTE   W12
 BYTE   Fs2  v080
 BYTE   W12
 BYTE   N24  Bn2
 BYTE   W24
 BYTE   N12  Fs2  v076
 BYTE   W12
 BYTE   N12
 BYTE   W12
 BYTE   Cs3  v084
 BYTE   W12
 BYTE   Fs2  v072
 BYTE   W12
// 054   ----------------------------------------
 BYTE   N24  As2  v084
 BYTE   W24
 BYTE   TEMPO   174*PokemonTCG2GrandmasterDuelPandan_tbs/2
 BYTE   N12  Fs2  v076
 BYTE   W12
 BYTE   Fs2  v080
 BYTE   W12
 BYTE   Cs3  v096
 BYTE   W12
 BYTE   Fs2  v076
 BYTE   W12
 BYTE   N24  An2
 BYTE   W24
// 055   ----------------------------------------
 BYTE   Gn2
 BYTE   W24
 BYTE   TEMPO   174*PokemonTCG2GrandmasterDuelPandan_tbs/2
 BYTE   N12  Fs2  v080
 BYTE   W12
 BYTE   Fs2  v072
 BYTE   W12
 BYTE   Cs3  v092
 BYTE   W12
 BYTE   Fs2  v076
 BYTE   W12
 BYTE   N24  Cs3  v092
 BYTE   W24
// 056   ----------------------------------------
 BYTE   N12  Fs2  v072
 BYTE   W12
 BYTE   Fs2  v080
 BYTE   W12
 BYTE   Cs3  v092
 BYTE   W12
 BYTE   Fs2  v076
 BYTE   W12
 BYTE   N24  Bn2  v088
 BYTE   W24
 BYTE   N12  Fs2  v076
 BYTE   W12
 BYTE   Fs2  v080
 BYTE   W12
// 057   ----------------------------------------
 BYTE   Cs3  v092
 BYTE   W12
 BYTE   Fs2  v076
 BYTE   W12
 BYTE   N24  As2  v084
 BYTE   W24
 BYTE   TEMPO   174*PokemonTCG2GrandmasterDuelPandan_tbs/2
 BYTE   N12  Fs2  v072
 BYTE   W12
 BYTE   Fs2  v076
 BYTE   W12
 BYTE   Cs3  v096
 BYTE   W12
 BYTE   Fs2  v072
 BYTE   W12
// 058   ----------------------------------------
 BYTE   N24  An2  v076
 BYTE   W24
 BYTE   Gn2  v072
 BYTE   W24
 BYTE   TEMPO   174*PokemonTCG2GrandmasterDuelPandan_tbs/2
 BYTE   N12  Cs3  v096
 BYTE   W12
 BYTE   Fs3  v092
 BYTE   W12
 BYTE   Cs4  v096
 BYTE   W12
 BYTE   Fs3  v068
 BYTE   W12
// 059   ----------------------------------------
 BYTE   Fs4  v092
 BYTE   W12
 BYTE   Cs4  v072
 BYTE   W12
 BYTE   Cs3  v052
 BYTE   W12
 BYTE   Fs3  v096
 BYTE   W12
 BYTE   Cs4
 BYTE   W12
 BYTE   Fs3  v068
 BYTE   W12
 BYTE   Fs4  v096
 BYTE   W12
 BYTE   Cs4  v076
 BYTE   W12
// 060   ----------------------------------------
 BYTE   Cs3  v052
 BYTE   W12
 BYTE   Fs3  v080
 BYTE   W12
 BYTE   Cs4  v096
 BYTE   W12
 BYTE   Fs3  v064
 BYTE   W12
 BYTE   Fs4  v100
 BYTE   W12
 BYTE   Cs4  v068
 BYTE   W12
 BYTE   TEMPO   174*PokemonTCG2GrandmasterDuelPandan_tbs/2
 BYTE   Cs3  v056
 BYTE   W12
 BYTE   Fs3  v080
 BYTE   W12
// 061   ----------------------------------------
 BYTE   Cs4  v092
 BYTE   W12
 BYTE   Fs3  v064
 BYTE   W12
 BYTE   Fs4  v096
 BYTE   W12
 BYTE   Cs4  v068
 BYTE   W12
 BYTE   Cs3  v056
 BYTE   W12
 BYTE   Dn3  v084
 BYTE   W12
 BYTE   TEMPO   174*PokemonTCG2GrandmasterDuelPandan_tbs/2
 BYTE   Cs3  v072
 BYTE   W12
 BYTE   Fs3  v088
 BYTE   W12
// 062   ----------------------------------------
 BYTE   Cs4  v096
 BYTE   W12
 BYTE   Fs3  v068
 BYTE   W12
 BYTE   Fs4  v092
 BYTE   W12
 BYTE   Cs4  v072
 BYTE   W12
 BYTE   Cs3  v056
 BYTE   W12
 BYTE   Fs3  v084
 BYTE   W12
 BYTE   Cs4  v088
 BYTE   W12
 BYTE   Fs3  v068
 BYTE   W12
// 063   ----------------------------------------
 BYTE   Fs4  v092
 BYTE   W12
 BYTE   Cs4  v076
 BYTE   W12
 BYTE   Cs3  v056
 BYTE   W12
 BYTE   Fs3  v084
 BYTE   W12
 BYTE   Cs4  v092
 BYTE   W12
 BYTE   Fs3  v064
 BYTE   W12
 BYTE   Fs4  v096
 BYTE   W12
 BYTE   Cs4  v076
 BYTE   W12
// 064   ----------------------------------------
 BYTE   TEMPO   174*PokemonTCG2GrandmasterDuelPandan_tbs/2
 BYTE   Cs3  v056
 BYTE   W12
 BYTE   Fs3  v084
 BYTE   W12
 BYTE   Cs4  v096
 BYTE   W12
 BYTE   Fs3  v068
 BYTE   W12
 BYTE   Fs4  v096
 BYTE   W12
 BYTE   Cs4  v072
 BYTE   W12
 BYTE   Cs3  v060
 BYTE   W12
 BYTE   Dn3  v076
 BYTE   W12
// 065   ----------------------------------------
 BYTE   N36  Fs2  v072
 BYTE   W36
 BYTE   N06  Cs3  v092
 BYTE   W06
 BYTE   Dn3  v084
 BYTE   W06
 BYTE   N48  Fs3
 BYTE   W48
// 066   ----------------------------------------
 BYTE   N36  Gs2  v068
 BYTE   W36
 BYTE   N06  Bn2  v080
 BYTE   W06
 BYTE   Cs3  v084
 BYTE   W06
 BYTE   N48  Gs3  v092
 BYTE   W48
// 067   ----------------------------------------
 BYTE   W96
// 068   ----------------------------------------
 BYTE   W96
// 069   ----------------------------------------
 BYTE   W96
// 070   ----------------------------------------
 BYTE   W96
// 071   ----------------------------------------
 BYTE   W96
// 072   ----------------------------------------
 BYTE   W96
// 073   ----------------------------------------
 BYTE   W96
// 074   ----------------------------------------
 BYTE   W96
// 075   ----------------------------------------
 BYTE   N12  Cs3  v068
 BYTE   W12
 BYTE   N06  Fs3  v088
 BYTE   W12
 BYTE   Gs3  v084
 BYTE   W12
 BYTE   TIE  Cs4  v088
 BYTE   W60
// 076   ----------------------------------------
 BYTE   W72
 BYTE   EOT
 BYTE   N12  Bn3  v072
 BYTE   W12
 BYTE   Cs4  v080
 BYTE   W12
// 077   ----------------------------------------
 BYTE   Fs4  v092
 BYTE   W12
 BYTE   N06  Cs4  v072
 BYTE   W12
 BYTE   Bn3  v068
 BYTE   W12
 BYTE   TIE  Cs4  v080
 BYTE   W60
// 078   ----------------------------------------
 BYTE   W96
// 079   ----------------------------------------
 BYTE   EOT
 BYTE   N12  Dn3  v060
 BYTE   W12
 BYTE   N06  Fs3  v080
 BYTE   W12
 BYTE   Gs3  v088
 BYTE   W12
 BYTE   TIE  Cs4
 BYTE   W60
// 080   ----------------------------------------
 BYTE   W72
 BYTE   EOT
 BYTE   N12  Bn3  v072
 BYTE   W12
 BYTE   Cs4  v084
 BYTE   W12
// 081   ----------------------------------------
 BYTE   Fs4  v088
 BYTE   W12
 BYTE   N06  Cs4  v064
 BYTE   W12
 BYTE   Bn3  v068
 BYTE   W12
 BYTE   TIE  Fs3
 BYTE   W60
// 082   ----------------------------------------
 BYTE   W96
// 083   ----------------------------------------
 BYTE   EOT
 BYTE   N12  Gs3  v080
 BYTE   W12
 BYTE   N06  An3
 BYTE   W12
 BYTE   Gs3  v076
 BYTE   W12
 BYTE   TIE  Bn3  v088
 BYTE   W60
// 084   ----------------------------------------
 BYTE   W48
 BYTE   EOT
 BYTE   N24  An3  v076
 BYTE   W24
 BYTE   Bn3  v084
 BYTE   W24
// 085   ----------------------------------------
 BYTE   N12  Cs4  v080
 BYTE   W12
 BYTE   N06  Dn4  v084
 BYTE   W12
 BYTE   Cs4  v072
 BYTE   W12
 BYTE   TIE  En4  v084
 BYTE   W60
// 086   ----------------------------------------
 BYTE   W72
 BYTE   EOT
 BYTE   N12  Dn4  v072
 BYTE   W12
 BYTE   Cs4  v076
 BYTE   W12
// 087   ----------------------------------------
 BYTE   Bn3
 BYTE   W12
 BYTE   N06  Cs4  v084
 BYTE   W12
 BYTE   Bn3  v076
 BYTE   W12
 BYTE   TIE  Cs3  v056
 BYTE   W60
// 088   ----------------------------------------
 BYTE   W96
// 089   ----------------------------------------
 BYTE   EOT
 BYTE   N96  An3  v096
 BYTE   W96
// 090   ----------------------------------------
 BYTE   En4  v092
 BYTE   W96
// 091   ----------------------------------------
 BYTE   N12  Gs4
 BYTE   W36
 BYTE   Gs4  v068
 BYTE   W36
 BYTE   N12
 BYTE   W24
// 092   ----------------------------------------
 BYTE   W12
 BYTE   Gs4  v072
 BYTE   W36
 BYTE   Gs4  v076
 BYTE   W24
 BYTE   Gs4  v064
 BYTE   W24
// 093   ----------------------------------------
Label_0_01896756:
 BYTE   N12  An4  v072
 BYTE   W36
 BYTE   N12
 BYTE   W36
 BYTE   N12
 BYTE   W24
 BYTE   PEND 
// 094   ----------------------------------------
Label_0_0189675F:
 BYTE   W12
 BYTE   N12  An4  v068
 BYTE   W36
 BYTE   An4  v072
 BYTE   W24
 BYTE   An4  v068
 BYTE   W24
 BYTE   PEND 
// 095   ----------------------------------------
Label_0_0189676B:
 BYTE   N12  Gs4  v068
 BYTE   W36
 BYTE   Gs4  v072
 BYTE   W36
 BYTE   Gs4  v068
 BYTE   W24
 BYTE   PEND 
// 096   ----------------------------------------
 BYTE   W12
 BYTE   N12
 BYTE   W36
 BYTE   Gs4  v072
 BYTE   W24
 BYTE   Gs4  v068
 BYTE   W24
// 097   ----------------------------------------
Label_0_0189677F:
 BYTE   N12  An4  v068
 BYTE   W36
 BYTE   An4  v072
 BYTE   W36
 BYTE   An4  v068
 BYTE   W24
 BYTE   PEND 
// 098   ----------------------------------------
 BYTE   W12
 BYTE   An4  v072
 BYTE   W36
 BYTE   An4  v064
 BYTE   W24
 BYTE   An4  v068
 BYTE   W24
// 099   ----------------------------------------
 BYTE   Gs4  v076
 BYTE   W36
 BYTE   Gs4  v072
 BYTE   W36
 BYTE   N12
 BYTE   W24
// 100   ----------------------------------------
 BYTE   W12
 BYTE   Gs4  v064
 BYTE   W36
 BYTE   Gs4  v068
 BYTE   W24
 BYTE   Gs4  v072
 BYTE   W24
// 101   ----------------------------------------
 BYTE   An4
 BYTE   W36
 BYTE   N12
 BYTE   W36
 BYTE   An4  v068
 BYTE   W24
 BYTE   PATT
  POIN2 Label_0_0189675F
// 102   ----------------------------------------
 BYTE   N12  Gs4  v068
 BYTE   W36
 BYTE   N12
 BYTE   W36
 BYTE   Gs4  v072
 BYTE   W24
// 103   ----------------------------------------
Label_0_018967BB:
 BYTE   W12
 BYTE   N12  Gs4  v068
 BYTE   W36
 BYTE   N12
 BYTE   W24
 BYTE   N12
 BYTE   W24
 BYTE   PEND 
// 104   ----------------------------------------
Label_0_018967C5:
 BYTE   N12  An4  v068
 BYTE   W36
 BYTE   An4  v072
 BYTE   W36
 BYTE   N12
 BYTE   W24
 BYTE   PEND 
// 105   ----------------------------------------
 BYTE   W12
 BYTE   N12
 BYTE   W36
 BYTE   N12
 BYTE   W24
 BYTE   N12
 BYTE   W24
// 106   ----------------------------------------
 BYTE   W96
// 107   ----------------------------------------
 BYTE   W96
// 108   ----------------------------------------
 BYTE   W96
// 109   ----------------------------------------
 BYTE   W96
// 110   ----------------------------------------
 BYTE   W96
// 111   ----------------------------------------
 BYTE   W96
// 112   ----------------------------------------
 BYTE   W96
// 113   ----------------------------------------
 BYTE   W96
// 114   ----------------------------------------
 BYTE   W24
 BYTE   En3  v076
 BYTE   W12
 BYTE   En3  v072
 BYTE   W36
 BYTE   En3  v076
 BYTE   W12
 BYTE   En3  v080
 BYTE   W12
// 115   ----------------------------------------
 BYTE   W12
 BYTE   En3  v068
 BYTE   W84
// 116   ----------------------------------------
 BYTE   W24
 BYTE   N12
 BYTE   W12
 BYTE   En3  v080
 BYTE   W36
 BYTE   En3  v072
 BYTE   W12
 BYTE   En3  v076
 BYTE   W12
// 117   ----------------------------------------
 BYTE   W12
 BYTE   En3  v072
 BYTE   W84
// 118   ----------------------------------------
 BYTE   W24
 BYTE   N12
 BYTE   W12
 BYTE   En3  v076
 BYTE   W36
 BYTE   N12
 BYTE   W12
 BYTE   N12
 BYTE   W12
// 119   ----------------------------------------
 BYTE   W12
 BYTE   En3  v072
 BYTE   W84
// 120   ----------------------------------------
 BYTE   W24
 BYTE   En3  v064
 BYTE   W12
 BYTE   En3  v076
 BYTE   W36
 BYTE   En3  v072
 BYTE   W12
 BYTE   N12
 BYTE   W12
// 121   ----------------------------------------
 BYTE   W12
 BYTE   N12
 BYTE   W84
// 122   ----------------------------------------
 BYTE   Cs3  v068
 BYTE   W12
 BYTE   N06  Fs3  v080
 BYTE   W12
 BYTE   Gs3
 BYTE   W12
 BYTE   TIE  Cs4  v088
 BYTE   W60
// 123   ----------------------------------------
 BYTE   W72
 BYTE   EOT
 BYTE   N12  Bn3  v072
 BYTE   W12
 BYTE   Cs4  v080
 BYTE   W12
// 124   ----------------------------------------
 BYTE   Fs4  v084
 BYTE   W12
 BYTE   N06  Cs4  v068
 BYTE   W12
 BYTE   Bn3  v072
 BYTE   W12
 BYTE   TIE  Cs4  v084
 BYTE   W60
// 125   ----------------------------------------
 BYTE   W96
// 126   ----------------------------------------
 BYTE   EOT
 BYTE   N12  Dn3  v056
 BYTE   W12
 BYTE   N06  Fs3  v084
 BYTE   W12
 BYTE   Gs3  v080
 BYTE   W12
 BYTE   TIE  Cs4  v092
 BYTE   W60
// 127   ----------------------------------------
 BYTE   W72
 BYTE   EOT
 BYTE   N12  Bn3  v076
 BYTE   W12
 BYTE   Cs4  v080
 BYTE   W12
// 128   ----------------------------------------
 BYTE   Fs4  v088
 BYTE   W12
 BYTE   N06  Cs4  v068
 BYTE   W12
 BYTE   Bn3
 BYTE   W12
 BYTE   TIE  Cs4  v080
 BYTE   W60
// 129   ----------------------------------------
 BYTE   W96
// 130   ----------------------------------------
 BYTE   EOT
 BYTE   N12  Cs3  v056
 BYTE   W12
 BYTE   N06  Fs3  v088
 BYTE   W12
 BYTE   Gs3  v084
 BYTE   W12
 BYTE   TIE  Cs4  v088
 BYTE   W60
// 131   ----------------------------------------
 BYTE   W72
 BYTE   EOT
 BYTE   N12  Bn3  v072
 BYTE   W12
 BYTE   Cs4  v084
 BYTE   W12
// 132   ----------------------------------------
 BYTE   Fs4  v088
 BYTE   W12
 BYTE   N06  Cs4  v068
 BYTE   W12
 BYTE   Bn3  v072
 BYTE   W12
 BYTE   TIE  Cs4  v088
 BYTE   W60
// 133   ----------------------------------------
 BYTE   W96
// 134   ----------------------------------------
 BYTE   EOT
 BYTE   N12  Dn3  v060
 BYTE   W12
 BYTE   N06  Fs3  v088
 BYTE   W12
 BYTE   Gs3
 BYTE   W12
 BYTE   TIE  Cs4
 BYTE   W60
// 135   ----------------------------------------
 BYTE   W72
 BYTE   EOT
 BYTE   N12  Bn3  v076
 BYTE   W12
 BYTE   Cs4  v080
 BYTE   W12
// 136   ----------------------------------------
 BYTE   Fs4  v088
 BYTE   W12
 BYTE   N06  Cs4  v064
 BYTE   W12
 BYTE   Bn3  v076
 BYTE   W12
 BYTE   TIE  Cs4  v084
 BYTE   W60
// 137   ----------------------------------------
 BYTE   W96
// 138   ----------------------------------------
 BYTE   EOT
 BYTE   W24
 BYTE   N06  En4  v072
 BYTE   W36
 BYTE   En4  v068
 BYTE   W36
// 139   ----------------------------------------
 BYTE   En4  v072
 BYTE   W36
 BYTE   En4  v064
 BYTE   W12
 BYTE   Dn3  v052
 BYTE   W06
 BYTE   En3  v076
 BYTE   W06
 BYTE   Fs3  v084
 BYTE   W06
 BYTE   Cs4  v092
 BYTE   W06
 BYTE   Dn3  v060
 BYTE   W06
 BYTE   An3  v088
 BYTE   W06
 BYTE   Dn4  v092
 BYTE   W06
 BYTE   Gn4  v088
 BYTE   W06
// 140   ----------------------------------------
 BYTE   Fs4  v076
 BYTE   W24
 BYTE   En4  v068
 BYTE   W36
 BYTE   N06
 BYTE   W36
// 141   ----------------------------------------
 BYTE   N06
 BYTE   W36
 BYTE   N06
 BYTE   W12
 BYTE   Dn3  v052
 BYTE   W06
 BYTE   En3  v080
 BYTE   W06
 BYTE   Fs3
 BYTE   W06
 BYTE   An3  v084
 BYTE   W06
 BYTE   Gn3  v080
 BYTE   W06
 BYTE   Bn3  v088
 BYTE   W06
 BYTE   Dn4  v084
 BYTE   W06
 BYTE   En4
 BYTE   W06
// 142   ----------------------------------------
 BYTE   Fs4  v080
 BYTE   W24
 BYTE   En4  v072
 BYTE   W36
 BYTE   N06
 BYTE   W36
// 143   ----------------------------------------
 BYTE   En4  v068
 BYTE   W36
 BYTE   N06
 BYTE   W12
 BYTE   Dn3  v056
 BYTE   W06
 BYTE   En3  v076
 BYTE   W06
 BYTE   Fs3  v084
 BYTE   W06
 BYTE   Cs4  v092
 BYTE   W06
 BYTE   Dn3  v060
 BYTE   W06
 BYTE   An3  v088
 BYTE   W06
 BYTE   Dn4
 BYTE   W06
 BYTE   Gn4  v092
 BYTE   W06
// 144   ----------------------------------------
 BYTE   Fs4  v076
 BYTE   W24
 BYTE   En4
 BYTE   W36
 BYTE   En4  v068
 BYTE   W36
// 145   ----------------------------------------
 BYTE   N06
 BYTE   W36
 BYTE   N06
 BYTE   W12
 BYTE   Dn3  v056
 BYTE   W06
 BYTE   En3  v080
 BYTE   W06
 BYTE   Fs3  v084
 BYTE   W06
 BYTE   An3
 BYTE   W06
 BYTE   Gn3  v076
 BYTE   W06
 BYTE   Bn3  v088
 BYTE   W06
 BYTE   Dn4  v084
 BYTE   W06
 BYTE   En4  v080
 BYTE   W06
// 146   ----------------------------------------
 BYTE   N12  Cs3  v060
 BYTE   W12
 BYTE   N06  Fs3  v088
 BYTE   W12
 BYTE   Gs3  v084
 BYTE   W12
 BYTE   TIE  Cs4  v088
 BYTE   W60
// 147   ----------------------------------------
 BYTE   W72
 BYTE   EOT
 BYTE   N12  Bn3  v072
 BYTE   W12
 BYTE   Cs4  v080
 BYTE   W12
// 148   ----------------------------------------
 BYTE   Fs4  v088
 BYTE   W12
 BYTE   N06  Cs4  v068
 BYTE   W12
 BYTE   Bn3  v076
 BYTE   W12
 BYTE   TIE  Cs4  v080
 BYTE   W60
// 149   ----------------------------------------
 BYTE   W96
// 150   ----------------------------------------
 BYTE   EOT
 BYTE   N12  Dn3  v060
 BYTE   W12
 BYTE   N06  Fs3  v084
 BYTE   W12
 BYTE   Gs3
 BYTE   W12
 BYTE   TIE  Cs4  v092
 BYTE   W60
// 151   ----------------------------------------
 BYTE   W72
 BYTE   EOT
 BYTE   N12  Bn3  v072
 BYTE   W12
 BYTE   Cs4  v080
 BYTE   W12
// 152   ----------------------------------------
 BYTE   Fs4  v088
 BYTE   W12
 BYTE   N06  Cs4  v072
 BYTE   W12
 BYTE   Bn3
 BYTE   W12
 BYTE   TIE  Cs4  v080
 BYTE   W60
// 153   ----------------------------------------
 BYTE   W96
// 154   ----------------------------------------
 BYTE   EOT
 BYTE   N12  Cs3  v060
 BYTE   W12
 BYTE   N06  Fs3  v084
 BYTE   W12
 BYTE   Gs3  v080
 BYTE   W12
 BYTE   TIE  Cs4  v088
 BYTE   W60
// 155   ----------------------------------------
 BYTE   W72
 BYTE   EOT
 BYTE   N12  Bn3  v076
 BYTE   W12
 BYTE   Cs4  v080
 BYTE   W12
// 156   ----------------------------------------
 BYTE   Fs4  v088
 BYTE   W12
 BYTE   N06  Cs4  v064
 BYTE   W12
 BYTE   Bn3  v068
 BYTE   W12
 BYTE   TIE  Cs4  v080
 BYTE   W60
// 157   ----------------------------------------
 BYTE   W96
// 158   ----------------------------------------
 BYTE   EOT
 BYTE   PATT
  POIN2 Label_0_018964F0
// 159   ----------------------------------------
 BYTE   W72
 BYTE   EOT
 BYTE   Cs4
 BYTE   N12  Bn3  v076
 BYTE   W12
 BYTE   Cs4  v080
 BYTE   W12
// 160   ----------------------------------------
 BYTE   Fs4  v088
 BYTE   W12
 BYTE   N06  Cs4  v064
 BYTE   W12
 BYTE   Bn3  v068
 BYTE   W12
 BYTE   TIE  Cs4  v088
 BYTE   W60
// 161   ----------------------------------------
 BYTE   W96
// 162   ----------------------------------------
 BYTE   EOT
 BYTE   N12  Fs2  v068
 BYTE   W12
 BYTE   Fs2  v076
 BYTE   W12
 BYTE   Cs3  v088
 BYTE   W12
 BYTE   Fs2  v076
 BYTE   W12
 BYTE   N24  Cs3  v088
 BYTE   W24
 BYTE   N12  Fs2  v072
 BYTE   W12
 BYTE   Fs2  v076
 BYTE   W12
// 163   ----------------------------------------
 BYTE   Cs3  v092
 BYTE   W12
 BYTE   Fs2  v076
 BYTE   W12
 BYTE   N24  Bn2  v080
 BYTE   W24
 BYTE   N12  Fs2  v072
 BYTE   W12
 BYTE   Fs2  v080
 BYTE   W12
 BYTE   Cs3  v088
 BYTE   W12
 BYTE   Fs2  v076
 BYTE   W12
// 164   ----------------------------------------
 BYTE   N24  As2  v084
 BYTE   W24
 BYTE   N12  Fs2  v068
 BYTE   W12
 BYTE   Fs2  v076
 BYTE   W12
 BYTE   Cs3  v092
 BYTE   W12
 BYTE   Fs2  v072
 BYTE   W12
 BYTE   N24  An2  v080
 BYTE   W24
// 165   ----------------------------------------
 BYTE   Gn2
 BYTE   W24
 BYTE   N12  Fs2  v072
 BYTE   W12
 BYTE   Fs2  v080
 BYTE   W12
 BYTE   Cs3  v092
 BYTE   W12
 BYTE   Fs2  v072
 BYTE   W12
 BYTE   N24  Cs3  v088
 BYTE   W24
// 166   ----------------------------------------
 BYTE   N12  Fs2  v072
 BYTE   W12
 BYTE   Fs2  v080
 BYTE   W12
 BYTE   Cs3  v092
 BYTE   W12
 BYTE   Fs2  v072
 BYTE   W12
 BYTE   N24  Bn2  v084
 BYTE   W24
 BYTE   N12  Fs2  v076
 BYTE   W12
 BYTE   Fs2  v080
 BYTE   W12
// 167   ----------------------------------------
 BYTE   Cs3  v092
 BYTE   W12
 BYTE   Fs2  v068
 BYTE   W12
 BYTE   N24  As2  v084
 BYTE   W24
 BYTE   N12  Fs2  v076
 BYTE   W12
 BYTE   Fs2  v080
 BYTE   W12
 BYTE   Cs3  v092
 BYTE   W12
 BYTE   Fs2  v076
 BYTE   W12
// 168   ----------------------------------------
 BYTE   N24  An2
 BYTE   W24
 BYTE   Gn2  v072
 BYTE   W24
 BYTE   N12  Cs3  v088
 BYTE   W12
 BYTE   Fs3
 BYTE   W12
 BYTE   Cs4  v092
 BYTE   W12
 BYTE   Fs3  v068
 BYTE   W12
// 169   ----------------------------------------
 BYTE   Fs4  v100
 BYTE   W12
 BYTE   Cs4  v072
 BYTE   W12
 BYTE   Cs3  v056
 BYTE   W12
 BYTE   Fs3  v088
 BYTE   W12
 BYTE   Cs4  v092
 BYTE   W12
 BYTE   Fs3  v064
 BYTE   W12
 BYTE   Fs4  v096
 BYTE   W12
 BYTE   Cs4  v072
 BYTE   W12
// 170   ----------------------------------------
 BYTE   Cs3  v060
 BYTE   W12
 BYTE   Fs3  v080
 BYTE   W12
 BYTE   Cs4  v092
 BYTE   W12
 BYTE   Fs3  v068
 BYTE   W12
 BYTE   Fs4  v096
 BYTE   W12
 BYTE   Cs4  v068
 BYTE   W12
 BYTE   Cs3  v052
 BYTE   W12
 BYTE   Fs3  v076
 BYTE   W12
// 171   ----------------------------------------
 BYTE   Cs4  v088
 BYTE   W12
 BYTE   Fs3  v068
 BYTE   W12
 BYTE   Fs4  v100
 BYTE   W12
 BYTE   Cs4  v072
 BYTE   W12
 BYTE   Cs3  v056
 BYTE   W12
 BYTE   Dn3  v076
 BYTE   W12
 BYTE   Cs3  v072
 BYTE   W12
 BYTE   Fs3  v092
 BYTE   W12
// 172   ----------------------------------------
 BYTE   Cs4
 BYTE   W12
 BYTE   Fs3  v068
 BYTE   W12
 BYTE   Fs4  v096
 BYTE   W12
 BYTE   Cs4  v072
 BYTE   W12
 BYTE   Cs3  v056
 BYTE   W12
 BYTE   Fs3  v084
 BYTE   W12
 BYTE   Cs4  v092
 BYTE   W12
 BYTE   Fs3  v068
 BYTE   W12
// 173   ----------------------------------------
 BYTE   Fs4  v100
 BYTE   W12
 BYTE   Cs4  v072
 BYTE   W12
 BYTE   Cs3  v052
 BYTE   W12
 BYTE   Fs3  v084
 BYTE   W12
 BYTE   Cs4  v096
 BYTE   W12
 BYTE   Fs3  v068
 BYTE   W12
 BYTE   Fs4  v096
 BYTE   W12
 BYTE   Cs4  v068
 BYTE   W12
// 174   ----------------------------------------
 BYTE   Cs3  v056
 BYTE   W12
 BYTE   Fs3  v080
 BYTE   W12
 BYTE   Cs4  v096
 BYTE   W12
 BYTE   Fs3  v072
 BYTE   W12
 BYTE   Fs4  v100
 BYTE   W12
 BYTE   Cs4  v072
 BYTE   W12
 BYTE   Cs3  v056
 BYTE   W12
 BYTE   Dn3  v076
 BYTE   W12
// 175   ----------------------------------------
 BYTE   N36  Fs2  v064
 BYTE   W36
 BYTE   N06  Cs3  v088
 BYTE   W06
 BYTE   Dn3  v080
 BYTE   W06
 BYTE   N48  Fs3  v088
 BYTE   W48
// 176   ----------------------------------------
 BYTE   N36  Gs2  v068
 BYTE   W36
 BYTE   N06  Bn2  v084
 BYTE   W06
 BYTE   Cs3  v088
 BYTE   W06
 BYTE   N48  Gs3
 BYTE   W48
// 177   ----------------------------------------
 BYTE   W96
// 178   ----------------------------------------
 BYTE   W96
// 179   ----------------------------------------
 BYTE   W96
// 180   ----------------------------------------
 BYTE   W96
// 181   ----------------------------------------
 BYTE   W96
// 182   ----------------------------------------
 BYTE   W96
// 183   ----------------------------------------
 BYTE   W96
// 184   ----------------------------------------
 BYTE   W96
// 185   ----------------------------------------
 BYTE   N12  Cs3  v068
 BYTE   W12
 BYTE   N06  Fs3  v084
 BYTE   W12
 BYTE   Gs3
 BYTE   W12
 BYTE   TIE  Cs4  v088
 BYTE   W60
// 186   ----------------------------------------
 BYTE   W72
 BYTE   EOT
 BYTE   N12  Bn3  v076
 BYTE   W12
 BYTE   Cs4  v080
 BYTE   W12
// 187   ----------------------------------------
 BYTE   Fs4  v084
 BYTE   W12
 BYTE   N06  Cs4  v064
 BYTE   W12
 BYTE   Bn3  v068
 BYTE   W12
 BYTE   TIE  Cs4  v080
 BYTE   W60
// 188   ----------------------------------------
 BYTE   W96
// 189   ----------------------------------------
 BYTE   EOT
 BYTE   N12  Dn3  v056
 BYTE   W12
 BYTE   N06  Fs3  v084
 BYTE   W12
 BYTE   Gs3
 BYTE   W12
 BYTE   TIE  Cs4  v092
 BYTE   W60
// 190   ----------------------------------------
 BYTE   W72
 BYTE   EOT
 BYTE   N12  Bn3  v080
 BYTE   W12
 BYTE   Cs4  v084
 BYTE   W12
// 191   ----------------------------------------
 BYTE   Fs4  v088
 BYTE   W12
 BYTE   N06  Cs4  v068
 BYTE   W12
 BYTE   Bn3
 BYTE   W12
 BYTE   TIE  Fs3
 BYTE   W60
// 192   ----------------------------------------
 BYTE   W96
// 193   ----------------------------------------
 BYTE   EOT
 BYTE   N12  Gs3  v084
 BYTE   W12
 BYTE   N06  An3
 BYTE   W12
 BYTE   Gs3  v076
 BYTE   W12
 BYTE   TIE  Bn3  v084
 BYTE   W60
// 194   ----------------------------------------
 BYTE   W48
 BYTE   EOT
 BYTE   N24  An3  v076
 BYTE   W24
 BYTE   Bn3  v084
 BYTE   W24
// 195   ----------------------------------------
 BYTE   N12  Cs4
 BYTE   W12
 BYTE   N06  Dn4
 BYTE   W12
 BYTE   Cs4  v072
 BYTE   W12
 BYTE   TIE  En4  v088
 BYTE   W60
// 196   ----------------------------------------
 BYTE   W72
 BYTE   EOT
 BYTE   N12  Dn4  v072
 BYTE   W12
 BYTE   Cs4
 BYTE   W12
// 197   ----------------------------------------
 BYTE   Bn3
 BYTE   W12
 BYTE   N06  Cs4  v080
 BYTE   W12
 BYTE   Bn3  v076
 BYTE   W12
 BYTE   TIE  Fs3  v064
 BYTE   W60
// 198   ----------------------------------------
 BYTE   W96
// 199   ----------------------------------------
 BYTE   EOT
 BYTE   N96  An3  v080
 BYTE   W96
// 200   ----------------------------------------
 BYTE   En4  v088
 BYTE   W96
// 201   ----------------------------------------
 BYTE   N12  Gs4  v092
 BYTE   W36
 BYTE   Gs4  v072
 BYTE   W36
 BYTE   N12
 BYTE   W24
// 202   ----------------------------------------
 BYTE   W12
 BYTE   Gs4  v068
 BYTE   W36
 BYTE   Gs4  v064
 BYTE   W24
 BYTE   Gs4  v068
 BYTE   W24
// 203   ----------------------------------------
 BYTE   An4  v072
 BYTE   W36
 BYTE   An4  v068
 BYTE   W36
 BYTE   N12
 BYTE   W24
 BYTE   PATT
  POIN2 Label_0_0189675F
// 204   ----------------------------------------
 BYTE   N12  Gs4  v072
 BYTE   W36
 BYTE   N12
 BYTE   W36
 BYTE   N12
 BYTE   W24
// 205   ----------------------------------------
 BYTE   W12
 BYTE   Gs4  v064
 BYTE   W36
 BYTE   Gs4  v068
 BYTE   W24
 BYTE   Gs4  v076
 BYTE   W24
 BYTE   PATT
  POIN2 Label_0_01896756
// 206   ----------------------------------------
 BYTE   W12
 BYTE   N12  An4  v076
 BYTE   W36
 BYTE   An4  v068
 BYTE   W24
 BYTE   N12
 BYTE   W24
// 207   ----------------------------------------
 BYTE   Gs4  v072
 BYTE   W36
 BYTE   Gs4  v068
 BYTE   W36
 BYTE   Gs4  v072
 BYTE   W24
 BYTE   PATT
  POIN2 Label_0_018967BB
 BYTE   PATT
  POIN2 Label_0_018967C5
// 208   ----------------------------------------
 BYTE   W12
 BYTE   N12  An4  v068
 BYTE   W36
 BYTE   N12
 BYTE   W24
 BYTE   An4  v072
 BYTE   W24
 BYTE   PATT
  POIN2 Label_0_0189676B
// 209   ----------------------------------------
 BYTE   W12
 BYTE   N12  Gs4  v072
 BYTE   W36
 BYTE   Gs4  v068
 BYTE   W24
 BYTE   Gs4  v072
 BYTE   W24
 BYTE   PATT
  POIN2 Label_0_0189677F
// 210   ----------------------------------------
 BYTE   W12
 BYTE   N12  An4  v072
 BYTE   W36
 BYTE   An4  v064
 BYTE   W24
 BYTE   N12
 BYTE   W24
// 211   ----------------------------------------
 BYTE   Fs2  v072
 BYTE   W12
 BYTE   GoTo
  POIN2 Label_0_01896336
 BYTE   FINE

//**************** Track 2 (Midi-Chn.1) ****************//

PokemonTCG2GrandmasterDuelPandan_002:
// 000   ----------------------------------------
 BYTE   KEYSH   PokemonTCG2GrandmasterDuelPandan_key+0
Label_1_01896C3E:
 BYTE   VOICE   46
 BYTE   PAN   c_v+0
 BYTE   VOL   47*PokemonTCG2GrandmasterDuelPandan_mvl/mxv
 BYTE   N12  Fs2  v068
 BYTE   W36
 BYTE   Fs2  v072
 BYTE   W36
Label_1_01896C4B:
 BYTE   N12  Fs2  v068
 BYTE   W36
// 001   ----------------------------------------
 BYTE   Fs2  v072
 BYTE   W36
 BYTE   PEND 
 BYTE   N24  En2  v068
 BYTE   W24
 BYTE   Fn2  v080
 BYTE   W24
 BYTE   N12  Fs2
 BYTE   W36
// 002   ----------------------------------------
 BYTE   Fs2  v076
 BYTE   W36
 BYTE   Fs2  v072
 BYTE   W36
 BYTE   N12
 BYTE   W36
// 003   ----------------------------------------
 BYTE   N24  En2
 BYTE   W24
 BYTE   Fn2  v084
 BYTE   W24
 BYTE   N12  Fs2  v080
 BYTE   W36
 BYTE   Fs2  v064
 BYTE   W36
// 004   ----------------------------------------
 BYTE   Fs2  v072
 BYTE   W36
 BYTE   Fs2  v068
 BYTE   W36
Label_1_01896C78:
 BYTE   N24  En2  v068
 BYTE   W24
// 005   ----------------------------------------
 BYTE   Fn2  v076
 BYTE   W24
 BYTE   PEND 
 BYTE   N12  Fs2  v080
 BYTE   W36
 BYTE   Fs2  v068
 BYTE   W36
 BYTE   PATT
  POIN2 Label_1_01896C4B
 BYTE   PATT
  POIN2 Label_1_01896C78
// 006   ----------------------------------------
 BYTE   N12  Cs2  v068
 BYTE   W12
 BYTE   Fs2  v084
 BYTE   W12
 BYTE   An2
 BYTE   W12
 BYTE   Fs2  v072
 BYTE   W36
 BYTE   Cn3
 BYTE   W12
 BYTE   Bn2  v076
 BYTE   W12
// 007   ----------------------------------------
 BYTE   W12
 BYTE   An2  v068
 BYTE   W24
 BYTE   Bn2  v072
 BYTE   W12
 BYTE   N06  An2  v076
 BYTE   W06
 BYTE   Bn2  v080
 BYTE   W06
 BYTE   An2  v076
 BYTE   W12
 BYTE   N12  Ds2  v072
 BYTE   W12
 BYTE   En2  v076
 BYTE   W12
// 008   ----------------------------------------
Label_1_01896CBA:
 BYTE   W12
 BYTE   N12  Fs2  v068
 BYTE   W12
 BYTE   An2  v080
 BYTE   W12
 BYTE   Fs2  v076
 BYTE   W36
 BYTE   Cn3  v072
 BYTE   W12
 BYTE   Bn2  v076
 BYTE   W12
 BYTE   PEND 
// 009   ----------------------------------------
 BYTE   W12
 BYTE   An2  v072
 BYTE   W24
 BYTE   Bn2
 BYTE   W12
 BYTE   N06  An2
 BYTE   W06
 BYTE   Bn2  v076
 BYTE   W06
 BYTE   An2
 BYTE   W12
 BYTE   N12  Ds2  v068
 BYTE   W12
 BYTE   En2  v076
 BYTE   W12
// 010   ----------------------------------------
 BYTE   W12
 BYTE   Fs2  v072
 BYTE   W12
 BYTE   An2  v080
 BYTE   W12
 BYTE   Fs2  v072
 BYTE   W36
 BYTE   Cn3
 BYTE   W12
 BYTE   Bn2  v080
 BYTE   W12
// 011   ----------------------------------------
 BYTE   W12
 BYTE   An2  v068
 BYTE   W24
 BYTE   Bn2
 BYTE   W12
 BYTE   N06  An2  v072
 BYTE   W06
 BYTE   Bn2  v084
 BYTE   W06
 BYTE   An2  v072
 BYTE   W12
 BYTE   N12  Ds2
 BYTE   W12
 BYTE   En2  v076
 BYTE   W12
// 012   ----------------------------------------
 BYTE   W12
 BYTE   Fs2  v072
 BYTE   W12
 BYTE   An2  v076
 BYTE   W12
 BYTE   Fs2
 BYTE   W36
 BYTE   Cn3  v072
 BYTE   W12
 BYTE   Bn2  v080
 BYTE   W12
// 013   ----------------------------------------
 BYTE   W12
 BYTE   An2  v068
 BYTE   W24
 BYTE   Bn2  v072
 BYTE   W12
 BYTE   N06  An2
 BYTE   W06
 BYTE   Bn2  v080
 BYTE   W06
 BYTE   An2  v076
 BYTE   W12
 BYTE   N12  Ds2  v064
 BYTE   W12
 BYTE   En2  v080
 BYTE   W12
// 014   ----------------------------------------
 BYTE   W12
 BYTE   Fs2  v068
 BYTE   W12
 BYTE   An2  v080
 BYTE   W12
 BYTE   Fs2
 BYTE   W36
 BYTE   Cn3  v068
 BYTE   W12
 BYTE   Bn2  v076
 BYTE   W12
// 015   ----------------------------------------
 BYTE   W12
 BYTE   An2  v072
 BYTE   W24
 BYTE   Bn2  v068
 BYTE   W12
 BYTE   N06  An2  v076
 BYTE   W06
 BYTE   Bn2  v080
 BYTE   W06
 BYTE   An2  v076
 BYTE   W12
 BYTE   N12  Ds2  v068
 BYTE   W12
 BYTE   En2  v080
 BYTE   W12
// 016   ----------------------------------------
 BYTE   W12
 BYTE   Fs2  v072
 BYTE   W12
 BYTE   An2  v080
 BYTE   W12
 BYTE   Fs2  v076
 BYTE   W36
 BYTE   Cn3  v072
 BYTE   W12
 BYTE   Bn2  v076
 BYTE   W12
// 017   ----------------------------------------
 BYTE   W12
 BYTE   An2  v068
 BYTE   W24
 BYTE   Bn2
 BYTE   W12
 BYTE   N06  An2  v076
 BYTE   W06
 BYTE   Bn2
 BYTE   W06
 BYTE   An2
 BYTE   W12
 BYTE   N12  Ds2  v072
 BYTE   W12
 BYTE   En2  v080
 BYTE   W12
// 018   ----------------------------------------
 BYTE   W12
 BYTE   Gn2  v068
 BYTE   W12
 BYTE   Bn2  v084
 BYTE   W12
 BYTE   Gn2  v076
 BYTE   W36
 BYTE   Dn3  v068
 BYTE   W12
 BYTE   Cs3  v076
 BYTE   W12
// 019   ----------------------------------------
 BYTE   W12
 BYTE   Bn2  v068
 BYTE   W24
 BYTE   Cs3  v064
 BYTE   W12
 BYTE   N06  Bn2  v072
 BYTE   W06
 BYTE   Cs3  v080
 BYTE   W06
 BYTE   Bn2
 BYTE   W12
 BYTE   N12  An2  v072
 BYTE   W12
 BYTE   Gs2
 BYTE   W12
// 020   ----------------------------------------
 BYTE   W12
 BYTE   Gn2
 BYTE   W12
 BYTE   Bn2  v080
 BYTE   W12
 BYTE   Gn2  v072
 BYTE   W36
 BYTE   Dn3
 BYTE   W12
 BYTE   Cs3
 BYTE   W12
// 021   ----------------------------------------
 BYTE   W12
 BYTE   Bn2  v068
 BYTE   W24
 BYTE   Cs3
 BYTE   W12
 BYTE   N06  Bn2  v076
 BYTE   W06
 BYTE   Cs3  v080
 BYTE   W06
 BYTE   Bn2
 BYTE   W12
 BYTE   N12  En2  v072
 BYTE   W12
 BYTE   Fn2  v080
 BYTE   W12
 BYTE   PATT
  POIN2 Label_1_01896CBA
// 022   ----------------------------------------
 BYTE   W12
 BYTE   N12  An2  v068
 BYTE   W24
 BYTE   Bn2
 BYTE   W12
 BYTE   N06  An2  v076
 BYTE   W06
 BYTE   Bn2  v080
 BYTE   W06
 BYTE   An2
 BYTE   W12
 BYTE   N12  Ds2  v068
 BYTE   W12
 BYTE   En2  v076
 BYTE   W12
// 023   ----------------------------------------
 BYTE   W12
 BYTE   Fs2  v068
 BYTE   W12
 BYTE   An2  v080
 BYTE   W12
 BYTE   Fs2  v072
 BYTE   W36
 BYTE   Cn3  v068
 BYTE   W12
 BYTE   Bn2  v064
 BYTE   W12
// 024   ----------------------------------------
 BYTE   W12
 BYTE   An2  v072
 BYTE   W24
 BYTE   Bn2
 BYTE   W12
 BYTE   N06  An2
 BYTE   W06
 BYTE   Bn2  v080
 BYTE   W06
 BYTE   An2  v076
 BYTE   W12
 BYTE   N12  Ds2
 BYTE   W12
 BYTE   En2
 BYTE   W12
// 025   ----------------------------------------
Label_1_01896E01:
 BYTE   W12
 BYTE   N12  Gn2  v068
 BYTE   W12
 BYTE   Bn2  v080
 BYTE   W12
 BYTE   Gn2  v072
 BYTE   W36
 BYTE   Dn3
 BYTE   W12
 BYTE   Cs3
 BYTE   W12
 BYTE   PEND 
// 026   ----------------------------------------
 BYTE   W12
 BYTE   Bn2
 BYTE   W24
 BYTE   Cs3  v068
 BYTE   W12
 BYTE   N06  Bn2  v076
 BYTE   W06
 BYTE   Cs3  v084
 BYTE   W06
 BYTE   Bn2  v072
 BYTE   W12
 BYTE   N12  An2
 BYTE   W12
 BYTE   Gs2
 BYTE   W12
// 027   ----------------------------------------
 BYTE   W12
 BYTE   Gn2
 BYTE   W12
 BYTE   Bn2  v076
 BYTE   W12
 BYTE   Gn2  v080
 BYTE   W36
 BYTE   Dn3  v072
 BYTE   W12
 BYTE   Cs3
 BYTE   W12
// 028   ----------------------------------------
 BYTE   W12
 BYTE   Bn2  v068
 BYTE   W24
 BYTE   Cs3  v064
 BYTE   W12
 BYTE   N06  Bn2  v068
 BYTE   W06
 BYTE   Cs3  v080
 BYTE   W06
 BYTE   Bn2  v076
 BYTE   W12
 BYTE   N12  En2  v072
 BYTE   W12
 BYTE   Fn2  v076
 BYTE   W12
// 029   ----------------------------------------
 BYTE   Cs3  v092
 BYTE   W12
 BYTE   Fs3
 BYTE   W12
 BYTE   N06  Cs4  v100
 BYTE   W12
 BYTE   N12  Cs3  v068
 BYTE   W12
 BYTE   Fs3  v084
 BYTE   W12
 BYTE   N06  Cs4  v092
 BYTE   W12
 BYTE   N12  Cs3  v056
 BYTE   W12
 BYTE   Fs3  v084
 BYTE   W12
// 030   ----------------------------------------
 BYTE   N06  Cs4  v092
 BYTE   W12
 BYTE   N12  Cs3  v060
 BYTE   W12
 BYTE   Fs3  v080
 BYTE   W12
 BYTE   N06  Cs4  v096
 BYTE   W12
 BYTE   N12  Cs3  v060
 BYTE   W12
 BYTE   Fs3  v084
 BYTE   W12
 BYTE   N06  Cs4  v096
 BYTE   W12
 BYTE   N12  Dn3  v072
 BYTE   W12
// 031   ----------------------------------------
 BYTE   Cs3  v076
 BYTE   W12
 BYTE   Fs3  v084
 BYTE   W12
 BYTE   N06  Cs4  v092
 BYTE   W12
 BYTE   N12  Cs3  v056
 BYTE   W12
 BYTE   Fs3  v084
 BYTE   W12
 BYTE   N06  Cs4  v088
 BYTE   W12
 BYTE   N12  Cs3  v052
 BYTE   W12
 BYTE   Fs3  v084
 BYTE   W12
// 032   ----------------------------------------
 BYTE   N06  Cs4  v096
 BYTE   W12
 BYTE   N12  Cs3  v064
 BYTE   W12
 BYTE   Fs3  v088
 BYTE   W12
 BYTE   N06  Cs4
 BYTE   W12
 BYTE   N12  Cs3  v056
 BYTE   W12
 BYTE   Fs3  v088
 BYTE   W12
 BYTE   N06  Cs4  v096
 BYTE   W12
 BYTE   N12  Dn3  v076
 BYTE   W12
// 033   ----------------------------------------
 BYTE   Cs3
 BYTE   W12
 BYTE   Fs3  v088
 BYTE   W12
 BYTE   N06  Cs4  v092
 BYTE   W12
 BYTE   N12  Cs3  v060
 BYTE   W12
 BYTE   Fs3  v080
 BYTE   W12
 BYTE   N06  Cs4  v092
 BYTE   W12
 BYTE   N12  Cs3  v060
 BYTE   W12
 BYTE   Fs3  v088
 BYTE   W12
// 034   ----------------------------------------
 BYTE   N06  Cs4  v092
 BYTE   W12
 BYTE   N12  Cs3  v056
 BYTE   W12
 BYTE   Fs3  v084
 BYTE   W12
 BYTE   N06  Cs4  v092
 BYTE   W12
 BYTE   N12  Cs3  v056
 BYTE   W12
 BYTE   Fs3  v088
 BYTE   W12
 BYTE   N06  Cs4  v092
 BYTE   W12
 BYTE   N12  Dn3  v072
 BYTE   W12
// 035   ----------------------------------------
 BYTE   Cs3  v068
 BYTE   W12
 BYTE   Fs3  v088
 BYTE   W12
 BYTE   N06  Cs4  v092
 BYTE   W12
 BYTE   N12  Cs3  v060
 BYTE   W12
 BYTE   Fs3  v084
 BYTE   W12
 BYTE   N06  Cs4  v096
 BYTE   W12
 BYTE   N12  Cs3  v060
 BYTE   W12
 BYTE   Fs3  v084
 BYTE   W12
// 036   ----------------------------------------
 BYTE   N06  Cs4  v092
 BYTE   W12
 BYTE   N12  Cs3  v056
 BYTE   W12
 BYTE   Fs3  v088
 BYTE   W12
 BYTE   N06  Cs4  v092
 BYTE   W12
 BYTE   N12  Cs3  v052
 BYTE   W12
 BYTE   Fs3  v088
 BYTE   W12
 BYTE   N06  Cs4
 BYTE   W12
 BYTE   N12  Dn3  v072
 BYTE   W12
// 037   ----------------------------------------
Label_1_01896F30:
 BYTE   W12
 BYTE   N12  Fs2  v072
 BYTE   W12
 BYTE   An2  v080
 BYTE   W12
 BYTE   Fs2  v076
 BYTE   W36
 BYTE   Cn3  v068
 BYTE   W12
 BYTE   Bn2  v072
 BYTE   W12
 BYTE   PEND 
// 038   ----------------------------------------
 BYTE   W12
 BYTE   An2  v068
 BYTE   W24
 BYTE   Bn2  v064
 BYTE   W12
 BYTE   N06  An2  v076
 BYTE   W06
 BYTE   Bn2  v080
 BYTE   W06
 BYTE   An2  v076
 BYTE   W12
 BYTE   N12  Ds2  v068
 BYTE   W12
 BYTE   En2  v076
 BYTE   W12
// 039   ----------------------------------------
 BYTE   W12
 BYTE   Fs2  v068
 BYTE   W12
 BYTE   An2  v076
 BYTE   W12
 BYTE   Fs2
 BYTE   W36
 BYTE   Cn3  v068
 BYTE   W12
 BYTE   Bn2  v076
 BYTE   W12
// 040   ----------------------------------------
 BYTE   W12
 BYTE   An2  v068
 BYTE   W24
 BYTE   Bn2
 BYTE   W12
 BYTE   N06  An2  v072
 BYTE   W06
 BYTE   Bn2  v080
 BYTE   W06
 BYTE   An2  v072
 BYTE   W12
 BYTE   N12  Ds2
 BYTE   W12
 BYTE   En2  v080
 BYTE   W12
 BYTE   PATT
  POIN2 Label_1_01896E01
// 041   ----------------------------------------
 BYTE   W12
 BYTE   N12  Bn2  v068
 BYTE   W24
 BYTE   Cs3  v076
 BYTE   W12
 BYTE   N06  Bn2
 BYTE   W06
 BYTE   Cs3  v084
 BYTE   W06
 BYTE   Bn2  v076
 BYTE   W12
 BYTE   N12  An2  v068
 BYTE   W12
 BYTE   Gs2  v076
 BYTE   W12
// 042   ----------------------------------------
 BYTE   W12
 BYTE   Gn2  v072
 BYTE   W12
 BYTE   Bn2  v084
 BYTE   W12
 BYTE   Gn2  v064
 BYTE   W36
 BYTE   Dn3  v068
 BYTE   W12
 BYTE   Cs3  v076
 BYTE   W12
// 043   ----------------------------------------
 BYTE   W12
 BYTE   Bn2
 BYTE   W24
 BYTE   Cs3  v068
 BYTE   W12
 BYTE   N06  Bn2  v072
 BYTE   W06
 BYTE   Cs3  v080
 BYTE   W06
 BYTE   Bn2  v072
 BYTE   W12
 BYTE   N12  En2
 BYTE   W12
 BYTE   Fn2  v080
 BYTE   W12
// 044   ----------------------------------------
 BYTE   W12
 BYTE   Fs2  v068
 BYTE   W12
 BYTE   An2  v080
 BYTE   W12
 BYTE   Fs2  v076
 BYTE   W36
 BYTE   Cn3  v068
 BYTE   W12
 BYTE   Bn2  v080
 BYTE   W12
// 045   ----------------------------------------
 BYTE   W12
 BYTE   An2  v064
 BYTE   W24
 BYTE   Bn2  v072
 BYTE   W12
 BYTE   N06  An2  v076
 BYTE   W06
 BYTE   Bn2  v080
 BYTE   W06
 BYTE   An2  v076
 BYTE   W12
 BYTE   N12  Ds2  v068
 BYTE   W12
 BYTE   En2  v084
 BYTE   W12
// 046   ----------------------------------------
 BYTE   W12
 BYTE   Fs2  v068
 BYTE   W12
 BYTE   An2  v080
 BYTE   W12
 BYTE   Fs2
 BYTE   W36
 BYTE   Cn3  v072
 BYTE   W12
 BYTE   Bn2  v076
 BYTE   W12
// 047   ----------------------------------------
 BYTE   W12
 BYTE   An2  v068
 BYTE   W24
 BYTE   Bn2
 BYTE   W12
 BYTE   N06  An2
 BYTE   W06
 BYTE   Bn2  v080
 BYTE   W06
 BYTE   An2
 BYTE   W12
 BYTE   N12  Ds2  v068
 BYTE   W12
 BYTE   En2  v084
 BYTE   W12
// 048   ----------------------------------------
 BYTE   W12
 BYTE   Gn2  v072
 BYTE   W12
 BYTE   Bn2  v080
 BYTE   W12
 BYTE   Gn2  v076
 BYTE   W36
 BYTE   Dn3  v068
 BYTE   W12
 BYTE   Cs3  v072
 BYTE   W12
// 049   ----------------------------------------
 BYTE   W12
 BYTE   Bn2
 BYTE   W24
 BYTE   Cs3  v064
 BYTE   W12
 BYTE   N06  Bn2  v076
 BYTE   W06
 BYTE   Cs3  v080
 BYTE   W06
 BYTE   Bn2  v072
 BYTE   W12
 BYTE   N12  An2
 BYTE   W12
 BYTE   Gs2  v068
 BYTE   W12
// 050   ----------------------------------------
 BYTE   W12
 BYTE   Gn2
 BYTE   W12
 BYTE   Bn2  v084
 BYTE   W12
 BYTE   Gn2  v072
 BYTE   W36
 BYTE   Dn3
 BYTE   W12
 BYTE   Cs3  v076
 BYTE   W12
// 051   ----------------------------------------
 BYTE   W12
 BYTE   Bn2
 BYTE   W24
 BYTE   Cs3  v068
 BYTE   W12
 BYTE   N06  Bn2  v076
 BYTE   W06
 BYTE   Cs3  v084
 BYTE   W06
 BYTE   Bn2  v076
 BYTE   W12
 BYTE   N12  En2  v068
 BYTE   W12
 BYTE   Fn2  v080
 BYTE   W12
// 052   ----------------------------------------
 BYTE   Fs2  v084
 BYTE   W12
 BYTE   Fs2  v080
 BYTE   W12
 BYTE   Cs3  v092
 BYTE   W12
 BYTE   Fs2  v076
 BYTE   W12
 BYTE   N24  Fs3  v092
 BYTE   W24
 BYTE   N12  Fs2  v068
 BYTE   W12
 BYTE   Fs2  v080
 BYTE   W12
// 053   ----------------------------------------
 BYTE   Cs3  v096
 BYTE   W12
 BYTE   Fs2  v076
 BYTE   W12
 BYTE   N24  En3  v092
 BYTE   W24
 BYTE   N12  Fs2  v068
 BYTE   W12
 BYTE   Fs2  v080
 BYTE   W12
 BYTE   Cs3  v092
 BYTE   W12
 BYTE   Fs2  v072
 BYTE   W12
// 054   ----------------------------------------
 BYTE   N24  Ds3  v096
 BYTE   W24
 BYTE   N12  Fs2  v072
 BYTE   W12
 BYTE   Fs2  v076
 BYTE   W12
 BYTE   Cs3  v092
 BYTE   W12
 BYTE   Fs2  v076
 BYTE   W12
 BYTE   N24  Dn3  v092
 BYTE   W24
// 055   ----------------------------------------
 BYTE   Cs3  v076
 BYTE   W24
 BYTE   N12  Fs2  v068
 BYTE   W12
 BYTE   Fs2  v080
 BYTE   W12
 BYTE   Cs3  v092
 BYTE   W12
 BYTE   Fs2  v076
 BYTE   W12
 BYTE   N24  Fs3  v096
 BYTE   W24
// 056   ----------------------------------------
 BYTE   N12  Fs2  v072
 BYTE   W12
 BYTE   Fs2  v076
 BYTE   W12
 BYTE   Cs3  v088
 BYTE   W12
 BYTE   Fs2  v068
 BYTE   W12
 BYTE   N24  En3  v092
 BYTE   W24
 BYTE   N12  Fs2  v072
 BYTE   W12
 BYTE   Fs2  v080
 BYTE   W12
// 057   ----------------------------------------
 BYTE   Cs3  v084
 BYTE   W12
 BYTE   Fs2  v072
 BYTE   W12
 BYTE   N24  Ds3  v092
 BYTE   W24
 BYTE   N12  Fs2  v072
 BYTE   W12
 BYTE   Fs2  v076
 BYTE   W12
 BYTE   Cs3  v096
 BYTE   W12
 BYTE   Fs2  v072
 BYTE   W12
// 058   ----------------------------------------
 BYTE   N24  Dn3  v088
 BYTE   W24
 BYTE   Cs3  v072
 BYTE   W24
 BYTE   N12  Fs2
 BYTE   W12
 BYTE   Fs2  v080
 BYTE   W12
 BYTE   Cs3  v092
 BYTE   W12
 BYTE   Fs2  v068
 BYTE   W12
// 059   ----------------------------------------
 BYTE   N24  Cs3  v096
 BYTE   N24  Fs3
 BYTE   W24
 BYTE   N12  Fs2  v072
 BYTE   W12
 BYTE   Fs2  v076
 BYTE   W12
 BYTE   Cs3  v096
 BYTE   W12
 BYTE   Fs2  v072
 BYTE   W12
 BYTE   N24  Bn2  v092
 BYTE   N24  En3
 BYTE   W24
// 060   ----------------------------------------
 BYTE   N12  Fs2  v068
 BYTE   W12
 BYTE   Fs2  v080
 BYTE   W12
 BYTE   Cs3  v088
 BYTE   W12
 BYTE   Fs2  v068
 BYTE   W12
 BYTE   N24  As2  v092
 BYTE   N24  Ds3
 BYTE   W24
 BYTE   N12  Fs2  v072
 BYTE   W12
 BYTE   Fs2  v076
 BYTE   W12
// 061   ----------------------------------------
 BYTE   Cs3  v088
 BYTE   W12
 BYTE   Fs2  v076
 BYTE   W12
 BYTE   N24  An2  v092
 BYTE   N24  Dn3
 BYTE   W24
 BYTE   Gn2  v076
 BYTE   N24  Cs3
 BYTE   W24
 BYTE   N12  Fs2  v072
 BYTE   W12
 BYTE   Fs2  v080
 BYTE   W12
// 062   ----------------------------------------
 BYTE   Cs3  v088
 BYTE   W12
 BYTE   Fs2  v068
 BYTE   W12
 BYTE   N24  Cs3  v100
 BYTE   N24  Fs3
 BYTE   W24
 BYTE   N12  Fs2  v068
 BYTE   W12
 BYTE   Fs2  v080
 BYTE   W12
 BYTE   Cs3  v092
 BYTE   W12
 BYTE   Fs2  v072
 BYTE   W12
// 063   ----------------------------------------
 BYTE   N24  Bn2  v088
 BYTE   N24  En3
 BYTE   W24
 BYTE   N12  Fs2  v072
 BYTE   W12
 BYTE   Fs2  v080
 BYTE   W12
 BYTE   Cs3  v096
 BYTE   W12
 BYTE   Fs2  v076
 BYTE   W12
 BYTE   N24  As2  v096
 BYTE   N24  Ds3
 BYTE   W24
// 064   ----------------------------------------
 BYTE   N12  Fs2  v068
 BYTE   W12
 BYTE   Fs2  v080
 BYTE   W12
 BYTE   Cs3  v092
 BYTE   W12
 BYTE   Fs2  v072
 BYTE   W12
 BYTE   N24  An2  v092
 BYTE   N24  Dn3
 BYTE   W24
 BYTE   Gn2  v080
 BYTE   N24  Cs3
 BYTE   W24
// 065   ----------------------------------------
 BYTE   N36  Dn2  v072
 BYTE   W36
 BYTE   N06  En2  v080
 BYTE   W06
 BYTE   Fs2
 BYTE   W06
 BYTE   N48  Cs3  v096
 BYTE   W48
// 066   ----------------------------------------
 BYTE   N36  En2  v076
 BYTE   W36
 BYTE   N06  Gs2  v080
 BYTE   W06
 BYTE   Bn2
 BYTE   W06
 BYTE   N48  En3  v092
 BYTE   W48
// 067   ----------------------------------------
 BYTE   N12  Cs3  v080
 BYTE   N12  Fs3
 BYTE   W36
 BYTE   Cs3  v072
 BYTE   N12  Fs3
 BYTE   W36
 BYTE   Cs3  v076
 BYTE   N12  Fs3
 BYTE   W24
// 068   ----------------------------------------
Label_1_018971B3:
 BYTE   W12
 BYTE   N12  Cs3  v072
 BYTE   N12  Fs3
 BYTE   W36
 BYTE   Cs3  v068
 BYTE   N12  Fs3
 BYTE   W24
 BYTE   Cs3
 BYTE   N12  Fs3
 BYTE   W24
 BYTE   PEND 
// 069   ----------------------------------------
 BYTE   Dn3
 BYTE   N12  Gn3
 BYTE   W36
 BYTE   Dn3
 BYTE   N12  Gn3
 BYTE   W36
 BYTE   Dn3
 BYTE   N12  Gn3
 BYTE   W24
// 070   ----------------------------------------
 BYTE   W12
 BYTE   Dn3
 BYTE   N12  Gn3
 BYTE   W36
 BYTE   En3  v064
 BYTE   N12  An3
 BYTE   W24
 BYTE   Dn3  v072
 BYTE   N12  Gn3
 BYTE   W24
// 071   ----------------------------------------
 BYTE   Cs3
 BYTE   N12  Fs3
 BYTE   W36
 BYTE   Cs3  v064
 BYTE   N12  Fs3
 BYTE   W36
 BYTE   Cs3  v068
 BYTE   N12  Fs3
 BYTE   W24
// 072   ----------------------------------------
 BYTE   W12
 BYTE   Cs3
 BYTE   N12  Fs3
 BYTE   W36
 BYTE   Cs3  v072
 BYTE   N12  Fs3
 BYTE   W24
 BYTE   Cs3  v064
 BYTE   N12  Fs3
 BYTE   W24
// 073   ----------------------------------------
Label_1_018971FC:
 BYTE   N12  Dn3  v072
 BYTE   N12  Gn3
 BYTE   W36
 BYTE   Dn3  v068
 BYTE   N12  Gn3
 BYTE   W36
 BYTE   Dn3
 BYTE   N12  Gn3
 BYTE   W24
 BYTE   PEND 
// 074   ----------------------------------------
Label_1_0189720C:
 BYTE   W12
 BYTE   N12  Dn3  v072
 BYTE   N12  Gn3
 BYTE   W36
 BYTE   En3  v068
 BYTE   N12  An3
 BYTE   W24
 BYTE   Dn3  v072
 BYTE   N12  Gn3
 BYTE   W24
 BYTE   PEND 
// 075   ----------------------------------------
 BYTE   Cs3  v076
 BYTE   N12  Fs3
 BYTE   W36
 BYTE   Cs3  v072
 BYTE   N12  Fs3
 BYTE   W36
 BYTE   Cs3  v064
 BYTE   N12  Fs3
 BYTE   W24
// 076   ----------------------------------------
 BYTE   W12
 BYTE   Cs3  v072
 BYTE   N12  Fs3
 BYTE   W36
 BYTE   Cs3
 BYTE   N12  Fs3
 BYTE   W24
 BYTE   Cs3  v068
 BYTE   N12  Fs3
 BYTE   W24
// 077   ----------------------------------------
 BYTE   Dn3  v072
 BYTE   N12  Gn3
 BYTE   W36
 BYTE   Dn3
 BYTE   N12  Gn3
 BYTE   W36
 BYTE   Dn3  v064
 BYTE   N12  Gn3
 BYTE   W24
// 078   ----------------------------------------
Label_1_0189724A:
 BYTE   W12
 BYTE   N12  Dn3  v072
 BYTE   N12  Gn3
 BYTE   W36
 BYTE   En3
 BYTE   N12  An3
 BYTE   W24
 BYTE   Dn3  v068
 BYTE   N12  Gn3
 BYTE   W24
 BYTE   PEND 
// 079   ----------------------------------------
 BYTE   Cs3
 BYTE   N12  Fs3
 BYTE   W36
 BYTE   Cs3
 BYTE   N12  Fs3
 BYTE   W36
 BYTE   Cs3
 BYTE   N12  Fs3
 BYTE   W24
// 080   ----------------------------------------
Label_1_01897267:
 BYTE   W12
 BYTE   N12  Cs3  v072
 BYTE   N12  Fs3
 BYTE   W36
 BYTE   Cs3  v068
 BYTE   N12  Fs3
 BYTE   W24
 BYTE   Cs3  v072
 BYTE   N12  Fs3
 BYTE   W24
 BYTE   PEND 
// 081   ----------------------------------------
 BYTE   Dn3  v068
 BYTE   N12  Gn3
 BYTE   W36
 BYTE   Dn3
 BYTE   N12  Gn3
 BYTE   W36
 BYTE   Dn3  v064
 BYTE   N12  Gn3
 BYTE   W24
 BYTE   PATT
  POIN2 Label_1_0189724A
// 082   ----------------------------------------
Label_1_0189728C:
 BYTE   N12  Cs3  v072
 BYTE   N12  Fs3
 BYTE   W36
 BYTE   Cs3  v068
 BYTE   N12  Fs3
 BYTE   W36
 BYTE   Cs3
 BYTE   N12  Fs3
 BYTE   W24
 BYTE   PEND 
 BYTE   PATT
  POIN2 Label_1_01897267
// 083   ----------------------------------------
 BYTE   N12  Dn3  v072
 BYTE   N12  Gn3
 BYTE   W36
 BYTE   Dn3
 BYTE   N12  Gn3
 BYTE   W36
 BYTE   Dn3  v068
 BYTE   N12  Gn3
 BYTE   W24
// 084   ----------------------------------------
 BYTE   W12
 BYTE   Dn3  v072
 BYTE   N12  Gn3
 BYTE   W36
 BYTE   En3
 BYTE   N12  An3
 BYTE   W24
 BYTE   Dn3
 BYTE   N12  Gn3
 BYTE   W24
// 085   ----------------------------------------
 BYTE   Cs3
 BYTE   N12  Fs3
 BYTE   W36
 BYTE   Cs3  v068
 BYTE   N12  Fs3
 BYTE   W36
 BYTE   Cs3  v072
 BYTE   N12  Fs3
 BYTE   W24
// 086   ----------------------------------------
Label_1_018972CC:
 BYTE   W12
 BYTE   N12  Cs3  v072
 BYTE   N12  Fs3
 BYTE   W36
 BYTE   Cs3
 BYTE   N12  Fs3
 BYTE   W24
 BYTE   Cs3
 BYTE   N12  Fs3
 BYTE   W24
 BYTE   PEND 
// 087   ----------------------------------------
Label_1_018972DC:
 BYTE   N12  Dn3  v072
 BYTE   N12  Gn3
 BYTE   W36
 BYTE   Dn3  v068
 BYTE   N12  Gn3
 BYTE   W36
 BYTE   Dn3  v072
 BYTE   N12  Gn3
 BYTE   W24
 BYTE   PEND 
// 088   ----------------------------------------
 BYTE   W12
 BYTE   Dn3  v064
 BYTE   N12  Gn3
 BYTE   W36
 BYTE   En3  v072
 BYTE   N12  An3
 BYTE   W24
 BYTE   Dn3  v068
 BYTE   N12  Gn3
 BYTE   W24
// 089   ----------------------------------------
Label_1_018972FD:
 BYTE   N12  En4  v072
 BYTE   W36
 BYTE   En4  v068
 BYTE   W36
 BYTE   N12
 BYTE   W24
 BYTE   PEND 
// 090   ----------------------------------------
Label_1_01897307:
 BYTE   W12
 BYTE   N12  En4  v072
 BYTE   W36
 BYTE   N12
 BYTE   W24
 BYTE   N12
 BYTE   W24
 BYTE   PEND 
// 091   ----------------------------------------
 BYTE   Dn4
 BYTE   W36
 BYTE   Dn4  v068
 BYTE   W36
 BYTE   Dn4  v076
 BYTE   W24
// 092   ----------------------------------------
Label_1_01897319:
 BYTE   W12
 BYTE   N12  Dn4  v072
 BYTE   W36
 BYTE   N12
 BYTE   W24
 BYTE   Dn4  v068
 BYTE   W24
 BYTE   PEND 
// 093   ----------------------------------------
 BYTE   En4  v064
 BYTE   W36
 BYTE   En4  v068
 BYTE   W36
 BYTE   N12
 BYTE   W24
// 094   ----------------------------------------
 BYTE   W12
 BYTE   En4  v072
 BYTE   W36
 BYTE   En4  v068
 BYTE   W24
 BYTE   En4  v072
 BYTE   W24
// 095   ----------------------------------------
Label_1_01897336:
 BYTE   N12  Dn4  v068
 BYTE   W36
 BYTE   N12
 BYTE   W36
 BYTE   Dn4  v072
 BYTE   W24
 BYTE   PEND 
// 096   ----------------------------------------
Label_1_01897340:
 BYTE   W12
 BYTE   N12  Dn4  v068
 BYTE   W36
 BYTE   N12
 BYTE   W24
 BYTE   N12
 BYTE   W24
 BYTE   PEND 
// 097   ----------------------------------------
 BYTE   En4  v072
 BYTE   W36
 BYTE   N12
 BYTE   W36
 BYTE   En4  v068
 BYTE   W24
// 098   ----------------------------------------
 BYTE   W12
 BYTE   N12
 BYTE   W36
 BYTE   En4  v072
 BYTE   W24
 BYTE   N12
 BYTE   W24
 BYTE   PATT
  POIN2 Label_1_01897336
// 099   ----------------------------------------
 BYTE   W12
 BYTE   N12  Dn4  v072
 BYTE   W36
 BYTE   Dn4  v068
 BYTE   W24
 BYTE   N12
 BYTE   W24
// 100   ----------------------------------------
 BYTE   En4  v072
 BYTE   W36
 BYTE   En4  v068
 BYTE   W36
 BYTE   En4  v072
 BYTE   W24
// 101   ----------------------------------------
 BYTE   W12
 BYTE   En4  v064
 BYTE   W36
 BYTE   En4  v072
 BYTE   W24
 BYTE   En4  v076
 BYTE   W24
// 102   ----------------------------------------
 BYTE   Dn4  v068
 BYTE   W36
 BYTE   Dn4  v072
 BYTE   W36
 BYTE   Dn4  v064
 BYTE   W24
// 103   ----------------------------------------
 BYTE   W12
 BYTE   Dn4  v072
 BYTE   W36
 BYTE   Dn4  v076
 BYTE   W24
 BYTE   Dn4  v072
 BYTE   W24
// 104   ----------------------------------------
 BYTE   Fs2  v064
 BYTE   W36
 BYTE   Fs2  v068
 BYTE   W36
 BYTE   Fs2  v072
 BYTE   W24
// 105   ----------------------------------------
Label_1_01897398:
 BYTE   W12
 BYTE   N12  Fs2  v072
 BYTE   W36
 BYTE   N24  En2  v068
 BYTE   W24
 BYTE   Fn2  v076
 BYTE   W24
 BYTE   PEND 
// 106   ----------------------------------------
Label_1_018973A5:
 BYTE   N12  Fs2  v080
 BYTE   W36
 BYTE   Fs2  v072
 BYTE   W36
 BYTE   Fs2  v068
 BYTE   W24
 BYTE   PEND 
// 107   ----------------------------------------
 BYTE   W12
 BYTE   N12
 BYTE   W36
 BYTE   N24  En2  v072
 BYTE   W24
 BYTE   Fn2  v080
 BYTE   W24
// 108   ----------------------------------------
 BYTE   N12  Fs2  v084
 BYTE   W36
 BYTE   Fs2  v068
 BYTE   W36
 BYTE   N12
 BYTE   W24
// 109   ----------------------------------------
 BYTE   W12
 BYTE   N12
 BYTE   W36
 BYTE   N24  En2  v072
 BYTE   W24
 BYTE   Fn2  v076
 BYTE   W24
 BYTE   PATT
  POIN2 Label_1_018973A5
 BYTE   PATT
  POIN2 Label_1_01897398
// 110   ----------------------------------------
 BYTE   N12  Cs2  v076
 BYTE   W12
 BYTE   Fs2  v084
 BYTE   W12
 BYTE   An2
 BYTE   W12
 BYTE   Fs2  v072
 BYTE   W36
 BYTE   Cn3
 BYTE   W12
 BYTE   Bn2  v076
 BYTE   W12
// 111   ----------------------------------------
 BYTE   W12
 BYTE   An2  v072
 BYTE   W24
 BYTE   Bn2  v064
 BYTE   W12
 BYTE   N06  An2  v076
 BYTE   W06
 BYTE   Bn2  v080
 BYTE   W06
 BYTE   An2  v072
 BYTE   W12
 BYTE   N12  Ds2  v068
 BYTE   W12
 BYTE   En2  v080
 BYTE   W12
// 112   ----------------------------------------
 BYTE   W12
 BYTE   Fs2  v064
 BYTE   W12
 BYTE   An2  v076
 BYTE   W12
 BYTE   Fs2  v072
 BYTE   W36
 BYTE   Cn3
 BYTE   W12
 BYTE   Bn2
 BYTE   W12
// 113   ----------------------------------------
 BYTE   W12
 BYTE   An2  v068
 BYTE   W24
 BYTE   Bn2  v064
 BYTE   W12
 BYTE   N06  An2  v076
 BYTE   W06
 BYTE   Bn2  v080
 BYTE   W06
 BYTE   An2  v076
 BYTE   W12
 BYTE   N12  Ds2  v072
 BYTE   W12
 BYTE   En2  v080
 BYTE   W12
// 114   ----------------------------------------
 BYTE   W12
 BYTE   Fs2  v068
 BYTE   W12
 BYTE   An2  v084
 BYTE   W12
 BYTE   Fs2  v076
 BYTE   W36
 BYTE   Cn3  v072
 BYTE   W12
 BYTE   Bn2  v076
 BYTE   W12
// 115   ----------------------------------------
 BYTE   W12
 BYTE   An2  v072
 BYTE   W24
 BYTE   Bn2  v068
 BYTE   W12
 BYTE   N06  An2  v064
 BYTE   W06
 BYTE   Bn2  v080
 BYTE   W06
 BYTE   An2  v072
 BYTE   W12
 BYTE   N12  Ds2
 BYTE   W12
 BYTE   En2  v080
 BYTE   W12
// 116   ----------------------------------------
 BYTE   W12
 BYTE   Fs2  v072
 BYTE   W12
 BYTE   An2  v084
 BYTE   W12
 BYTE   Fs2  v076
 BYTE   W36
 BYTE   Cn3  v072
 BYTE   W12
 BYTE   Bn2  v076
 BYTE   W12
// 117   ----------------------------------------
 BYTE   W12
 BYTE   An2  v068
 BYTE   W24
 BYTE   Bn2  v072
 BYTE   W12
 BYTE   N06  An2  v076
 BYTE   W06
 BYTE   Bn2  v080
 BYTE   W06
 BYTE   An2  v076
 BYTE   W12
 BYTE   N12  Ds2  v064
 BYTE   W12
 BYTE   En2  v080
 BYTE   W12
// 118   ----------------------------------------
 BYTE   W12
 BYTE   Fs2  v072
 BYTE   W12
 BYTE   An2  v080
 BYTE   W12
 BYTE   Fs2  v076
 BYTE   W36
 BYTE   Cn3  v068
 BYTE   W12
 BYTE   Bn2  v076
 BYTE   W12
// 119   ----------------------------------------
 BYTE   W12
 BYTE   An2  v068
 BYTE   W24
 BYTE   Bn2  v072
 BYTE   W12
 BYTE   N06  An2  v068
 BYTE   W06
 BYTE   Bn2  v084
 BYTE   W06
 BYTE   An2  v076
 BYTE   W12
 BYTE   N12  Ds2  v068
 BYTE   W12
 BYTE   En2  v076
 BYTE   W12
// 120   ----------------------------------------
 BYTE   W12
 BYTE   Fs2
 BYTE   W12
 BYTE   An2  v080
 BYTE   W12
 BYTE   Fs2  v076
 BYTE   W36
 BYTE   Cn3  v072
 BYTE   W12
 BYTE   Bn2
 BYTE   W12
// 121   ----------------------------------------
 BYTE   W12
 BYTE   An2
 BYTE   W24
 BYTE   Bn2
 BYTE   W12
 BYTE   N06  An2
 BYTE   W06
 BYTE   Bn2  v080
 BYTE   W06
 BYTE   An2  v076
 BYTE   W12
 BYTE   N12  Ds2
 BYTE   W12
 BYTE   En2  v080
 BYTE   W12
// 122   ----------------------------------------
 BYTE   W12
 BYTE   Gn2  v068
 BYTE   W12
 BYTE   Bn2  v084
 BYTE   W12
 BYTE   Gn2  v072
 BYTE   W36
 BYTE   Dn3  v068
 BYTE   W12
 BYTE   Cs3  v072
 BYTE   W12
// 123   ----------------------------------------
 BYTE   W12
 BYTE   Bn2
 BYTE   W24
 BYTE   Cs3  v068
 BYTE   W12
 BYTE   N06  Bn2
 BYTE   W06
 BYTE   Cs3  v080
 BYTE   W06
 BYTE   Bn2  v076
 BYTE   W12
 BYTE   N12  An2  v072
 BYTE   W12
 BYTE   Gs2  v076
 BYTE   W12
// 124   ----------------------------------------
 BYTE   W12
 BYTE   Gn2  v072
 BYTE   W12
 BYTE   Bn2  v084
 BYTE   W12
 BYTE   Gn2  v068
 BYTE   W36
 BYTE   Dn3  v072
 BYTE   W12
 BYTE   Cs3  v076
 BYTE   W12
// 125   ----------------------------------------
 BYTE   W12
 BYTE   Bn2  v072
 BYTE   W24
 BYTE   Cs3
 BYTE   W12
 BYTE   N06  Bn2  v076
 BYTE   W06
 BYTE   Cs3  v084
 BYTE   W06
 BYTE   Bn2  v072
 BYTE   W12
 BYTE   N12  En2  v068
 BYTE   W12
 BYTE   Fn2  v076
 BYTE   W12
// 126   ----------------------------------------
 BYTE   W12
 BYTE   Fs2  v068
 BYTE   W12
 BYTE   An2  v080
 BYTE   W12
 BYTE   Fs2  v072
 BYTE   W36
 BYTE   Cn3  v064
 BYTE   W12
 BYTE   Bn2  v072
 BYTE   W12
// 127   ----------------------------------------
 BYTE   W12
 BYTE   An2  v068
 BYTE   W24
 BYTE   Bn2  v064
 BYTE   W12
 BYTE   N06  An2  v072
 BYTE   W06
 BYTE   Bn2  v084
 BYTE   W06
 BYTE   An2  v076
 BYTE   W12
 BYTE   N12  Ds2  v072
 BYTE   W12
 BYTE   En2  v076
 BYTE   W12
 BYTE   PATT
  POIN2 Label_1_01896F30
// 128   ----------------------------------------
 BYTE   W12
 BYTE   N12  An2  v068
 BYTE   W24
 BYTE   Bn2
 BYTE   W12
 BYTE   N06  An2  v076
 BYTE   W06
 BYTE   Bn2  v080
 BYTE   W06
 BYTE   An2  v076
 BYTE   W12
 BYTE   N12  Ds2
 BYTE   W12
 BYTE   En2
 BYTE   W12
// 129   ----------------------------------------
 BYTE   W12
 BYTE   Gn2  v068
 BYTE   W12
 BYTE   Bn2  v084
 BYTE   W12
 BYTE   Gn2  v076
 BYTE   W36
 BYTE   Dn3  v068
 BYTE   W12
 BYTE   Cs3  v072
 BYTE   W12
// 130   ----------------------------------------
 BYTE   W12
 BYTE   Bn2  v076
 BYTE   W24
 BYTE   Cs3  v068
 BYTE   W12
 BYTE   N06  Bn2  v076
 BYTE   W06
 BYTE   Cs3  v084
 BYTE   W06
 BYTE   Bn2  v076
 BYTE   W12
 BYTE   N12  An2  v068
 BYTE   W12
 BYTE   Gs2  v080
 BYTE   W12
// 131   ----------------------------------------
 BYTE   W12
 BYTE   Gn2  v068
 BYTE   W12
 BYTE   Bn2  v080
 BYTE   W12
 BYTE   Gn2  v068
 BYTE   W36
 BYTE   Dn3  v072
 BYTE   W12
 BYTE   Cs3
 BYTE   W12
// 132   ----------------------------------------
 BYTE   W12
 BYTE   Bn2  v068
 BYTE   W24
 BYTE   Cs3
 BYTE   W12
 BYTE   N06  Bn2  v076
 BYTE   W06
 BYTE   Cs3  v084
 BYTE   W06
 BYTE   Bn2  v076
 BYTE   W12
 BYTE   N12  En2  v068
 BYTE   W12
 BYTE   Fn2  v076
 BYTE   W12
// 133   ----------------------------------------
 BYTE   Cs3  v096
 BYTE   W12
 BYTE   Fs3  v088
 BYTE   W12
 BYTE   N06  Cs4  v104
 BYTE   W12
 BYTE   N12  Cs3  v060
 BYTE   W12
 BYTE   Fs3  v084
 BYTE   W12
 BYTE   N06  Cs4  v092
 BYTE   W12
 BYTE   N12  Cs3  v060
 BYTE   W12
 BYTE   Fs3  v084
 BYTE   W12
// 134   ----------------------------------------
 BYTE   N06  Cs4  v096
 BYTE   W12
 BYTE   N12  Cs3  v060
 BYTE   W12
 BYTE   Fs3  v088
 BYTE   W12
 BYTE   N06  Cs4
 BYTE   W12
 BYTE   N12  Cs3  v060
 BYTE   W12
 BYTE   Fs3  v088
 BYTE   W12
 BYTE   N06  Cs4  v092
 BYTE   W12
 BYTE   N12  Dn3  v072
 BYTE   W12
// 135   ----------------------------------------
 BYTE   Cs3  v068
 BYTE   W12
 BYTE   Fs3  v080
 BYTE   W12
 BYTE   N06  Cs4  v092
 BYTE   W12
 BYTE   N12  Cs3  v060
 BYTE   W12
 BYTE   Fs3  v084
 BYTE   W12
 BYTE   N06  Cs4  v092
 BYTE   W12
 BYTE   N12  Cs3  v064
 BYTE   W12
 BYTE   Fs3  v088
 BYTE   W12
// 136   ----------------------------------------
 BYTE   N06  Cs4  v084
 BYTE   W12
 BYTE   N12  Cs3  v060
 BYTE   W12
 BYTE   Fs3  v084
 BYTE   W12
 BYTE   N06  Cs4  v092
 BYTE   W12
 BYTE   N12  Cs3  v060
 BYTE   W12
 BYTE   Fs3  v084
 BYTE   W12
 BYTE   N06  Cs4  v092
 BYTE   W12
 BYTE   N12  Dn3  v068
 BYTE   W12
// 137   ----------------------------------------
 BYTE   Cs3
 BYTE   W12
 BYTE   Fs3  v092
 BYTE   W12
 BYTE   N06  Cs4  v096
 BYTE   W12
 BYTE   N12  Cs3  v056
 BYTE   W12
 BYTE   Fs3  v080
 BYTE   W12
 BYTE   N06  Cs4  v096
 BYTE   W12
 BYTE   N12  Cs3  v060
 BYTE   W12
 BYTE   Fs3  v088
 BYTE   W12
// 138   ----------------------------------------
 BYTE   N06  Cs4
 BYTE   W12
 BYTE   N12  Cs3  v060
 BYTE   W12
 BYTE   Fs3  v084
 BYTE   W12
 BYTE   N06  Cs4  v092
 BYTE   W12
 BYTE   N12  Cs3  v052
 BYTE   W12
 BYTE   Fs3  v084
 BYTE   W12
 BYTE   N06  Cs4  v092
 BYTE   W12
 BYTE   N12  Dn3  v072
 BYTE   W12
// 139   ----------------------------------------
 BYTE   Cs3  v068
 BYTE   W12
 BYTE   Fs3  v084
 BYTE   W12
 BYTE   N06  Cs4  v092
 BYTE   W12
 BYTE   N12  Cs3  v060
 BYTE   W12
 BYTE   Fs3  v088
 BYTE   W12
 BYTE   N06  Cs4  v092
 BYTE   W12
 BYTE   N12  Cs3  v060
 BYTE   W12
 BYTE   Fs3  v084
 BYTE   W12
// 140   ----------------------------------------
 BYTE   N06  Cs4  v096
 BYTE   W12
 BYTE   N12  Cs3  v064
 BYTE   W12
 BYTE   Fs3  v084
 BYTE   W12
 BYTE   N06  Cs4  v100
 BYTE   W12
 BYTE   N12  Cs3  v060
 BYTE   W12
 BYTE   Fs3  v088
 BYTE   W12
 BYTE   N06  Cs4  v092
 BYTE   W12
 BYTE   N12  Dn3  v072
 BYTE   W12
// 141   ----------------------------------------
 BYTE   W12
 BYTE   Fs2
 BYTE   W12
 BYTE   An2  v076
 BYTE   W12
 BYTE   Fs2
 BYTE   W36
 BYTE   Cn3  v068
 BYTE   W12
 BYTE   Bn2  v072
 BYTE   W12
// 142   ----------------------------------------
 BYTE   W12
 BYTE   An2  v068
 BYTE   W24
 BYTE   Bn2  v076
 BYTE   W12
 BYTE   N06  An2
 BYTE   W06
 BYTE   Bn2  v084
 BYTE   W06
 BYTE   An2  v076
 BYTE   W12
 BYTE   N12  Ds2  v064
 BYTE   W12
 BYTE   En2  v076
 BYTE   W12
// 143   ----------------------------------------
 BYTE   W12
 BYTE   Fs2  v068
 BYTE   W12
 BYTE   An2  v076
 BYTE   W12
 BYTE   Fs2  v072
 BYTE   W36
 BYTE   Cn3
 BYTE   W12
 BYTE   Bn2  v076
 BYTE   W12
// 144   ----------------------------------------
 BYTE   W12
 BYTE   An2  v064
 BYTE   W24
 BYTE   Bn2  v072
 BYTE   W12
 BYTE   N06  An2
 BYTE   W06
 BYTE   Bn2  v076
 BYTE   W06
 BYTE   An2
 BYTE   W12
 BYTE   N12  Ds2  v068
 BYTE   W12
 BYTE   En2  v076
 BYTE   W12
// 145   ----------------------------------------
 BYTE   W12
 BYTE   Gn2  v068
 BYTE   W12
 BYTE   Bn2  v080
 BYTE   W12
 BYTE   Gn2  v072
 BYTE   W36
 BYTE   Dn3  v068
 BYTE   W12
 BYTE   Cs3
 BYTE   W12
// 146   ----------------------------------------
 BYTE   W12
 BYTE   Bn2  v076
 BYTE   W24
 BYTE   Cs3  v072
 BYTE   W12
 BYTE   N06  Bn2  v076
 BYTE   W06
 BYTE   Cs3  v080
 BYTE   W06
 BYTE   Bn2  v076
 BYTE   W12
 BYTE   N12  An2  v072
 BYTE   W12
 BYTE   Gs2
 BYTE   W12
// 147   ----------------------------------------
 BYTE   W12
 BYTE   Gn2
 BYTE   W12
 BYTE   Bn2  v080
 BYTE   W12
 BYTE   Gn2  v076
 BYTE   W36
 BYTE   Dn3  v072
 BYTE   W12
 BYTE   Cs3
 BYTE   W12
// 148   ----------------------------------------
 BYTE   W12
 BYTE   Bn2
 BYTE   W24
 BYTE   Cs3  v068
 BYTE   W12
 BYTE   N06  Bn2  v076
 BYTE   W06
 BYTE   Cs3  v084
 BYTE   W06
 BYTE   Bn2  v076
 BYTE   W12
 BYTE   N12  En2  v068
 BYTE   W12
 BYTE   Fn2  v076
 BYTE   W12
// 149   ----------------------------------------
 BYTE   W12
 BYTE   Fs2  v072
 BYTE   W12
 BYTE   An2  v080
 BYTE   W12
 BYTE   Fs2  v076
 BYTE   W36
 BYTE   Cn3  v072
 BYTE   W12
 BYTE   Bn2  v068
 BYTE   W12
// 150   ----------------------------------------
 BYTE   W12
 BYTE   An2
 BYTE   W24
 BYTE   Bn2  v064
 BYTE   W12
 BYTE   N06  An2  v076
 BYTE   W06
 BYTE   Bn2  v084
 BYTE   W06
 BYTE   An2  v076
 BYTE   W12
 BYTE   N12  Ds2  v072
 BYTE   W12
 BYTE   En2  v076
 BYTE   W12
// 151   ----------------------------------------
 BYTE   W12
 BYTE   Fs2
 BYTE   W12
 BYTE   An2  v080
 BYTE   W12
 BYTE   Fs2  v072
 BYTE   W36
 BYTE   Cn3
 BYTE   W12
 BYTE   Bn2
 BYTE   W12
// 152   ----------------------------------------
 BYTE   W12
 BYTE   An2  v068
 BYTE   W24
 BYTE   Bn2
 BYTE   W12
 BYTE   N06  An2  v072
 BYTE   W06
 BYTE   Bn2  v080
 BYTE   W06
 BYTE   An2  v072
 BYTE   W12
 BYTE   N12  Ds2
 BYTE   W12
 BYTE   En2  v076
 BYTE   W12
// 153   ----------------------------------------
 BYTE   W12
 BYTE   Gn2  v068
 BYTE   W12
 BYTE   Bn2  v080
 BYTE   W12
 BYTE   Gn2  v076
 BYTE   W36
 BYTE   Dn3  v072
 BYTE   W12
 BYTE   Cs3
 BYTE   W12
// 154   ----------------------------------------
 BYTE   W12
 BYTE   Bn2  v068
 BYTE   W24
 BYTE   Cs3
 BYTE   W12
 BYTE   N06  Bn2  v080
 BYTE   W06
 BYTE   Cs3
 BYTE   W06
 BYTE   Bn2  v076
 BYTE   W12
 BYTE   N12  An2  v072
 BYTE   W12
 BYTE   Gs2  v076
 BYTE   W12
// 155   ----------------------------------------
 BYTE   W12
 BYTE   Gn2
 BYTE   W12
 BYTE   Bn2  v080
 BYTE   W12
 BYTE   Gn2  v076
 BYTE   W36
 BYTE   Dn3  v068
 BYTE   W12
 BYTE   Cs3  v072
 BYTE   W12
// 156   ----------------------------------------
 BYTE   W12
 BYTE   Bn2
 BYTE   W24
 BYTE   Cs3  v068
 BYTE   W12
 BYTE   N06  Bn2  v072
 BYTE   W06
 BYTE   Cs3  v080
 BYTE   W06
 BYTE   Bn2  v072
 BYTE   W12
 BYTE   N12  En2
 BYTE   W12
 BYTE   Fn2  v080
 BYTE   W12
// 157   ----------------------------------------
 BYTE   Fs2  v084
 BYTE   W12
 BYTE   Fs2  v076
 BYTE   W12
 BYTE   Cs3  v088
 BYTE   W12
 BYTE   Fs2  v076
 BYTE   W12
 BYTE   N24  Fs3  v096
 BYTE   W24
 BYTE   N12  Fs2  v072
 BYTE   W12
 BYTE   N12
 BYTE   W12
// 158   ----------------------------------------
 BYTE   Cs3  v092
 BYTE   W12
 BYTE   Fs2  v072
 BYTE   W12
 BYTE   N24  En3  v092
 BYTE   W24
 BYTE   N12  Fs2  v072
 BYTE   W12
 BYTE   Fs2  v076
 BYTE   W12
 BYTE   Cs3  v088
 BYTE   W12
 BYTE   Fs2  v068
 BYTE   W12
// 159   ----------------------------------------
 BYTE   N24  Ds3  v096
 BYTE   W24
 BYTE   N12  Fs2  v072
 BYTE   W12
 BYTE   N12
 BYTE   W12
 BYTE   Cs3  v088
 BYTE   W12
 BYTE   Fs2  v072
 BYTE   W12
 BYTE   N24  Dn3  v092
 BYTE   W24
// 160   ----------------------------------------
 BYTE   Cs3  v080
 BYTE   W24
 BYTE   N12  Fs2  v072
 BYTE   W12
 BYTE   Fs2  v080
 BYTE   W12
 BYTE   Cs3  v096
 BYTE   W12
 BYTE   Fs2  v076
 BYTE   W12
 BYTE   N24  Fs3  v096
 BYTE   W24
// 161   ----------------------------------------
 BYTE   N12  Fs2  v072
 BYTE   W12
 BYTE   Fs2  v080
 BYTE   W12
 BYTE   Cs3  v092
 BYTE   W12
 BYTE   Fs2  v072
 BYTE   W12
 BYTE   N24  En3  v096
 BYTE   W24
 BYTE   N12  Fs2  v068
 BYTE   W12
 BYTE   Fs2  v072
 BYTE   W12
// 162   ----------------------------------------
 BYTE   Cs3  v092
 BYTE   W12
 BYTE   Fs2  v068
 BYTE   W12
 BYTE   N24  Ds3  v092
 BYTE   W24
 BYTE   N12  Fs2  v072
 BYTE   W12
 BYTE   Fs2  v076
 BYTE   W12
 BYTE   Cs3  v096
 BYTE   W12
 BYTE   Fs2  v076
 BYTE   W12
// 163   ----------------------------------------
 BYTE   N24  Dn3  v096
 BYTE   W24
 BYTE   Cs3  v076
 BYTE   W24
 BYTE   N12  Fs2
 BYTE   W12
 BYTE   Fs2  v080
 BYTE   W12
 BYTE   Cs3  v092
 BYTE   W12
 BYTE   Fs2  v076
 BYTE   W12
// 164   ----------------------------------------
 BYTE   N24  Cs3  v100
 BYTE   N24  Fs3
 BYTE   W24
 BYTE   N12  Fs2  v068
 BYTE   W12
 BYTE   Fs2  v076
 BYTE   W12
 BYTE   Cs3  v092
 BYTE   W12
 BYTE   Fs2  v072
 BYTE   W12
 BYTE   N24  Bn2  v096
 BYTE   N24  En3
 BYTE   W24
// 165   ----------------------------------------
 BYTE   N12  Fs2  v072
 BYTE   W12
 BYTE   Fs2  v076
 BYTE   W12
 BYTE   Cs3  v088
 BYTE   W12
 BYTE   Fs2  v072
 BYTE   W12
 BYTE   N24  As2  v092
 BYTE   N24  Ds3
 BYTE   W24
 BYTE   N12  Fs2  v068
 BYTE   W12
 BYTE   Fs2  v072
 BYTE   W12
// 166   ----------------------------------------
 BYTE   Cs3  v092
 BYTE   W12
 BYTE   Fs2  v080
 BYTE   W12
 BYTE   N24  An2  v092
 BYTE   N24  Dn3
 BYTE   W24
 BYTE   Gn2  v076
 BYTE   N24  Cs3
 BYTE   W24
 BYTE   N12  Fs2  v068
 BYTE   W12
 BYTE   Fs2  v076
 BYTE   W12
// 167   ----------------------------------------
 BYTE   Cs3  v092
 BYTE   W12
 BYTE   Fs2  v068
 BYTE   W12
 BYTE   N24  Cs3  v100
 BYTE   N24  Fs3
 BYTE   W24
 BYTE   N12  Fs2  v068
 BYTE   W12
 BYTE   Fs2  v076
 BYTE   W12
 BYTE   Cs3  v092
 BYTE   W12
 BYTE   Fs2  v072
 BYTE   W12
// 168   ----------------------------------------
 BYTE   N24  Bn2  v088
 BYTE   N24  En3
 BYTE   W24
 BYTE   N12  Fs2  v072
 BYTE   W12
 BYTE   Fs2  v076
 BYTE   W12
 BYTE   Cs3  v088
 BYTE   W12
 BYTE   Fs2  v076
 BYTE   W12
 BYTE   N24  As2  v096
 BYTE   N24  Ds3
 BYTE   W24
// 169   ----------------------------------------
 BYTE   N12  Fs2  v072
 BYTE   W12
 BYTE   Fs2  v076
 BYTE   W12
 BYTE   Cs3  v088
 BYTE   W12
 BYTE   Fs2  v072
 BYTE   W12
 BYTE   N24  An2  v092
 BYTE   N24  Dn3
 BYTE   W24
 BYTE   Gn2  v080
 BYTE   N24  Cs3
 BYTE   W24
// 170   ----------------------------------------
 BYTE   N36  Dn2  v072
 BYTE   W36
 BYTE   N06  En2  v080
 BYTE   W06
 BYTE   Fs2  v076
 BYTE   W06
 BYTE   N48  Cs3  v092
 BYTE   W48
// 171   ----------------------------------------
 BYTE   N36  En2  v072
 BYTE   W36
 BYTE   N06  Gs2  v084
 BYTE   W06
 BYTE   Bn2  v080
 BYTE   W06
 BYTE   N48  En3  v088
 BYTE   W48
// 172   ----------------------------------------
 BYTE   N12  Cs3
 BYTE   N12  Fs3
 BYTE   W36
 BYTE   Cs3  v072
 BYTE   N12  Fs3
 BYTE   W36
 BYTE   Cs3  v068
 BYTE   N12  Fs3
 BYTE   W24
// 173   ----------------------------------------
 BYTE   W12
 BYTE   Cs3
 BYTE   N12  Fs3
 BYTE   W36
 BYTE   Cs3  v072
 BYTE   N12  Fs3
 BYTE   W24
 BYTE   Cs3
 BYTE   N12  Fs3
 BYTE   W24
// 174   ----------------------------------------
 BYTE   Dn3  v064
 BYTE   N12  Gn3
 BYTE   W36
 BYTE   Dn3  v068
 BYTE   N12  Gn3
 BYTE   W36
 BYTE   Dn3
 BYTE   N12  Gn3
 BYTE   W24
// 175   ----------------------------------------
 BYTE   W12
 BYTE   Dn3  v064
 BYTE   N12  Gn3
 BYTE   W36
 BYTE   En3  v072
 BYTE   N12  An3
 BYTE   W24
 BYTE   Dn3  v076
 BYTE   N12  Gn3
 BYTE   W24
// 176   ----------------------------------------
Label_1_01897930:
 BYTE   N12  Cs3  v072
 BYTE   N12  Fs3
 BYTE   W36
 BYTE   Cs3
 BYTE   N12  Fs3
 BYTE   W36
 BYTE   Cs3
 BYTE   N12  Fs3
 BYTE   W24
 BYTE   PEND 
// 177   ----------------------------------------
Label_1_0189793F:
 BYTE   W12
 BYTE   N12  Cs3  v068
 BYTE   N12  Fs3
 BYTE   W36
 BYTE   Cs3  v076
 BYTE   N12  Fs3
 BYTE   W24
 BYTE   Cs3  v072
 BYTE   N12  Fs3
 BYTE   W24
 BYTE   PEND 
 BYTE   PATT
  POIN2 Label_1_018972DC
// 178   ----------------------------------------
 BYTE   W12
 BYTE   N12  Dn3  v072
 BYTE   N12  Gn3
 BYTE   W36
 BYTE   En3  v076
 BYTE   N12  An3
 BYTE   W24
 BYTE   Dn3  v072
 BYTE   N12  Gn3
 BYTE   W24
// 179   ----------------------------------------
 BYTE   Cs3  v068
 BYTE   N12  Fs3
 BYTE   W36
 BYTE   Cs3
 BYTE   N12  Fs3
 BYTE   W36
 BYTE   Cs3  v072
 BYTE   N12  Fs3
 BYTE   W24
 BYTE   PATT
  POIN2 Label_1_018971B3
// 180   ----------------------------------------
 BYTE   N12  Dn3  v068
 BYTE   N12  Gn3
 BYTE   W36
 BYTE   Dn3  v072
 BYTE   N12  Gn3
 BYTE   W36
 BYTE   Dn3
 BYTE   N12  Gn3
 BYTE   W24
// 181   ----------------------------------------
 BYTE   W12
 BYTE   Dn3
 BYTE   N12  Gn3
 BYTE   W36
 BYTE   En3  v068
 BYTE   N12  An3
 BYTE   W24
 BYTE   Dn3
 BYTE   N12  Gn3
 BYTE   W24
// 182   ----------------------------------------
 BYTE   Cs3  v072
 BYTE   N12  Fs3
 BYTE   W36
 BYTE   Cs3
 BYTE   N12  Fs3
 BYTE   W36
 BYTE   Cs3  v068
 BYTE   N12  Fs3
 BYTE   W24
// 183   ----------------------------------------
 BYTE   W12
 BYTE   Cs3  v064
 BYTE   N12  Fs3
 BYTE   W36
 BYTE   Cs3  v068
 BYTE   N12  Fs3
 BYTE   W24
 BYTE   Cs3  v072
 BYTE   N12  Fs3
 BYTE   W24
 BYTE   PATT
  POIN2 Label_1_018971FC
// 184   ----------------------------------------
 BYTE   W12
 BYTE   N12  Dn3  v072
 BYTE   N12  Gn3
 BYTE   W36
 BYTE   En3  v068
 BYTE   N12  An3
 BYTE   W24
 BYTE   Dn3  v064
 BYTE   N12  Gn3
 BYTE   W24
 BYTE   PATT
  POIN2 Label_1_01897930
 BYTE   PATT
  POIN2 Label_1_018972CC
 BYTE   PATT
  POIN2 Label_1_018971FC
 BYTE   PATT
  POIN2 Label_1_0189724A
 BYTE   PATT
  POIN2 Label_1_0189728C
 BYTE   PATT
  POIN2 Label_1_0189793F
 BYTE   PATT
  POIN2 Label_1_018971FC
 BYTE   PATT
  POIN2 Label_1_0189720C
// 185   ----------------------------------------
Label_1_018979F3:
 BYTE   N12  En4  v072
 BYTE   W36
 BYTE   N12
 BYTE   W36
 BYTE   N12
 BYTE   W24
 BYTE   PEND 
// 186   ----------------------------------------
 BYTE   W12
 BYTE   En4  v064
 BYTE   W36
 BYTE   En4  v072
 BYTE   W24
 BYTE   N12
 BYTE   W24
// 187   ----------------------------------------
 BYTE   Dn4
 BYTE   W36
 BYTE   N12
 BYTE   W36
 BYTE   Dn4  v068
 BYTE   W24
// 188   ----------------------------------------
 BYTE   W12
 BYTE   Dn4  v076
 BYTE   W36
 BYTE   Dn4  v072
 BYTE   W24
 BYTE   N12
 BYTE   W24
 BYTE   PATT
  POIN2 Label_1_018972FD
 BYTE   PATT
  POIN2 Label_1_01897307
// 189   ----------------------------------------
 BYTE   N12  Dn4  v072
 BYTE   W36
 BYTE   Dn4  v064
 BYTE   W36
 BYTE   Dn4  v068
 BYTE   W24
 BYTE   PATT
  POIN2 Label_1_01897340
// 190   ----------------------------------------
 BYTE   N12  En4  v076
 BYTE   W36
 BYTE   N12
 BYTE   W36
 BYTE   En4  v068
 BYTE   W24
// 191   ----------------------------------------
 BYTE   W12
 BYTE   N12
 BYTE   W36
 BYTE   En4  v072
 BYTE   W24
 BYTE   En4  v068
 BYTE   W24
// 192   ----------------------------------------
 BYTE   Dn4
 BYTE   W36
 BYTE   N12
 BYTE   W36
 BYTE   N12
 BYTE   W24
 BYTE   PATT
  POIN2 Label_1_01897319
 BYTE   PATT
  POIN2 Label_1_018979F3
// 193   ----------------------------------------
 BYTE   W12
 BYTE   N12  En4  v064
 BYTE   W36
 BYTE   En4  v068
 BYTE   W24
 BYTE   N12
 BYTE   W24
// 194   ----------------------------------------
 BYTE   Dn4  v072
 BYTE   W36
 BYTE   Dn4  v068
 BYTE   W36
 BYTE   Dn4  v064
 BYTE   W24
// 195   ----------------------------------------
 BYTE   W12
 BYTE   Dn4  v068
 BYTE   W36
 BYTE   N12
 BYTE   W24
 BYTE   Dn4  v072
 BYTE   W24
// 196   ----------------------------------------
 BYTE   W12
 BYTE   GoTo
  POIN2 Label_1_01896C3E
 BYTE   FINE

//**************** Track 3 (Midi-Chn.2) ****************//

PokemonTCG2GrandmasterDuelPandan_003:
// 000   ----------------------------------------
 BYTE   KEYSH   PokemonTCG2GrandmasterDuelPandan_key+0
Label_2_01897A76:
 BYTE   VOICE   36
 BYTE   PAN   c_v+0
 BYTE   VOL   52*PokemonTCG2GrandmasterDuelPandan_mvl/mxv
 BYTE   N12  Fs2  v064
 BYTE   W36
 BYTE   Fs2  v072
 BYTE   W36
 BYTE   N12
 BYTE   W36
// 001   ----------------------------------------
 BYTE   N12
 BYTE   W36
Label_2_01897A87:
 BYTE   N24  En2  v068
 BYTE   W24
 BYTE   Fn2  v080
 BYTE   W24
 BYTE   PEND 
Label_2_01897A8F:
 BYTE   N12  Fs2  v076
 BYTE   W36
// 002   ----------------------------------------
 BYTE   Fs2  v072
 BYTE   W36
 BYTE   PEND 
Label_2_01897A97:
 BYTE   N12  Fs2  v068
 BYTE   W36
 BYTE   N12
 BYTE   W36
 BYTE   PEND 
 BYTE   PATT
  POIN2 Label_2_01897A87
 BYTE   PATT
  POIN2 Label_2_01897A8F
// 003   ----------------------------------------
 BYTE   N12  Fs2  v068
 BYTE   W36
 BYTE   Fs2  v064
 BYTE   W36
 BYTE   N24  En2  v068
 BYTE   W24
// 004   ----------------------------------------
 BYTE   Fn2  v076
 BYTE   W24
 BYTE   N12  Fs2
 BYTE   W36
 BYTE   Fs2  v068
 BYTE   W36
 BYTE   PATT
  POIN2 Label_2_01897A97
// 005   ----------------------------------------
 BYTE   N24  En2  v076
 BYTE   W24
 BYTE   Fn2
 BYTE   W24
Label_2_01897AC7:
 BYTE   N12  Fs2  v080
 BYTE   W36
 BYTE   Fs2  v068
 BYTE   W36
// 006   ----------------------------------------
 BYTE   Fs2  v064
 BYTE   W24
 BYTE   PEND 
 BYTE   W12
 BYTE   Fs2  v072
 BYTE   W36
 BYTE   N24  En2  v068
 BYTE   W24
// 007   ----------------------------------------
 BYTE   Fn2  v084
 BYTE   W24
Label_2_01897ADD:
 BYTE   N12  Fs2  v076
 BYTE   W36
 BYTE   Fs2  v068
 BYTE   W36
// 008   ----------------------------------------
 BYTE   N12
 BYTE   W24
 BYTE   PEND 
Label_2_01897AE7:
 BYTE   W12
 BYTE   N12  Fs2  v068
 BYTE   W36
 BYTE   N24  En2
 BYTE   W24
// 009   ----------------------------------------
 BYTE   Fn2  v076
 BYTE   W24
 BYTE   PEND 
 BYTE   N12  Fs2  v072
 BYTE   W36
 BYTE   Fs2  v068
 BYTE   W36
// 010   ----------------------------------------
 BYTE   N12
 BYTE   W24
Label_2_01897AFC:
 BYTE   W12
 BYTE   N12  Fs2  v072
 BYTE   W36
 BYTE   N24  En2
 BYTE   W24
// 011   ----------------------------------------
 BYTE   Fn2  v076
 BYTE   W24
 BYTE   PEND 
 BYTE   N12  Fs2  v080
 BYTE   W36
 BYTE   Fs2  v072
 BYTE   W36
// 012   ----------------------------------------
 BYTE   Fs2  v068
 BYTE   W24
Label_2_01897B12:
 BYTE   W12
 BYTE   N12  Fs2  v072
 BYTE   W36
 BYTE   N24  En2  v068
 BYTE   W24
// 013   ----------------------------------------
 BYTE   Fn2  v080
 BYTE   W24
 BYTE   PEND 
 BYTE   N12  Fs2  v076
 BYTE   W36
 BYTE   Fs2  v064
 BYTE   W36
// 014   ----------------------------------------
 BYTE   Fs2  v072
 BYTE   W24
 BYTE   PATT
  POIN2 Label_2_01897B12
// 015   ----------------------------------------
Label_2_01897B2E:
 BYTE   N12  Fs2  v080
 BYTE   W36
 BYTE   Fs2  v072
 BYTE   W36
 BYTE   N12
 BYTE   W24
 BYTE   PEND 
// 016   ----------------------------------------
 BYTE   W12
 BYTE   Fs2  v064
 BYTE   W36
 BYTE   N24  En2  v068
 BYTE   W24
 BYTE   Fn2  v076
 BYTE   W24
// 017   ----------------------------------------
Label_2_01897B43:
 BYTE   N12  Gn2  v080
 BYTE   W36
 BYTE   Gn2  v072
 BYTE   W36
 BYTE   Gn2  v068
 BYTE   W24
 BYTE   PEND 
// 018   ----------------------------------------
 BYTE   W12
 BYTE   Gn2  v076
 BYTE   W36
 BYTE   N24  En2  v064
 BYTE   W24
 BYTE   Fs2  v076
 BYTE   W24
// 019   ----------------------------------------
Label_2_01897B59:
 BYTE   N12  Gn2  v080
 BYTE   W36
 BYTE   Gn2  v068
 BYTE   W36
 BYTE   N12
 BYTE   W24
 BYTE   PEND 
// 020   ----------------------------------------
 BYTE   W12
 BYTE   Gn2  v064
 BYTE   W36
 BYTE   N24  En2  v068
 BYTE   W24
 BYTE   Fn2  v084
 BYTE   W24
// 021   ----------------------------------------
Label_2_01897B6E:
 BYTE   N12  Fs2  v080
 BYTE   W36
 BYTE   Fs2  v068
 BYTE   W36
 BYTE   Fs2  v072
 BYTE   W24
 BYTE   PEND 
// 022   ----------------------------------------
Label_2_01897B79:
 BYTE   W12
 BYTE   N12  Fs2  v068
 BYTE   W36
 BYTE   N24  En2  v072
 BYTE   W24
 BYTE   Fn2  v076
 BYTE   W24
 BYTE   PEND 
 BYTE   PATT
  POIN2 Label_2_01897ADD
// 023   ----------------------------------------
 BYTE   W12
 BYTE   N12  Fs2  v068
 BYTE   W36
 BYTE   N24  En2  v072
 BYTE   W24
 BYTE   Fn2
 BYTE   W24
 BYTE   PATT
  POIN2 Label_2_01897B59
// 024   ----------------------------------------
 BYTE   W12
 BYTE   N12  Gn2  v068
 BYTE   W36
 BYTE   N24  En2  v076
 BYTE   W24
 BYTE   Fs2  v080
 BYTE   W24
// 025   ----------------------------------------
Label_2_01897BA7:
 BYTE   N12  Gn2  v080
 BYTE   W36
 BYTE   Gn2  v068
 BYTE   W36
 BYTE   Gn2  v072
 BYTE   W24
 BYTE   PEND 
// 026   ----------------------------------------
 BYTE   W12
 BYTE   Gn2  v064
 BYTE   W36
 BYTE   N24  En2  v068
 BYTE   W24
 BYTE   Fn2  v080
 BYTE   W24
// 027   ----------------------------------------
 BYTE   N12  Cs2  v076
 BYTE   W12
 BYTE   Fs2  v080
 BYTE   W12
 BYTE   N06  An2
 BYTE   W12
 BYTE   N12  Cs2  v072
 BYTE   W12
 BYTE   Fs2  v084
 BYTE   W12
 BYTE   N06  An2  v080
 BYTE   W12
 BYTE   N12  Cs2  v068
 BYTE   W12
 BYTE   Fs2  v080
 BYTE   W12
// 028   ----------------------------------------
 BYTE   N06  An2
 BYTE   W12
 BYTE   N12  Cs2  v072
 BYTE   W12
 BYTE   Fs2  v080
 BYTE   W12
 BYTE   N06  An2
 BYTE   W12
 BYTE   N12  Cs2  v072
 BYTE   W12
 BYTE   Fs2  v080
 BYTE   W12
 BYTE   N06  An2  v084
 BYTE   W12
 BYTE   N12  Dn2
 BYTE   W12
// 029   ----------------------------------------
 BYTE   Cs2  v076
 BYTE   W12
 BYTE   Fs2  v080
 BYTE   W12
 BYTE   N06  An2  v084
 BYTE   W12
 BYTE   N12  Cs2  v072
 BYTE   W12
 BYTE   Fs2  v084
 BYTE   W12
 BYTE   N06  An2  v088
 BYTE   W12
 BYTE   N12  Cs2  v068
 BYTE   W12
 BYTE   Fs2  v084
 BYTE   W12
// 030   ----------------------------------------
 BYTE   N06  An2  v076
 BYTE   W12
 BYTE   N12  Cs2  v072
 BYTE   W12
 BYTE   Fs2  v080
 BYTE   W12
 BYTE   N06  An2  v076
 BYTE   W12
 BYTE   N12  Cs2  v072
 BYTE   W12
 BYTE   Fs2  v084
 BYTE   W12
 BYTE   N06  An2  v080
 BYTE   W12
 BYTE   N12  Dn2  v084
 BYTE   W12
// 031   ----------------------------------------
 BYTE   Cs2  v076
 BYTE   W12
 BYTE   Fs2  v088
 BYTE   W12
 BYTE   N06  An2  v084
 BYTE   W12
 BYTE   N12  Cs2  v072
 BYTE   W12
 BYTE   Fs2  v080
 BYTE   W12
 BYTE   N06  An2
 BYTE   W12
 BYTE   N12  Cs2  v072
 BYTE   W12
 BYTE   Fs2  v084
 BYTE   W12
// 032   ----------------------------------------
 BYTE   N06  An2  v080
 BYTE   W12
 BYTE   N12  Cs2  v068
 BYTE   W12
 BYTE   Fs2  v076
 BYTE   W12
 BYTE   N06  An2  v080
 BYTE   W12
 BYTE   N12  Cs2  v072
 BYTE   W12
 BYTE   Fs2  v080
 BYTE   W12
 BYTE   N06  An2
 BYTE   W12
 BYTE   N12  Dn2  v084
 BYTE   W12
// 033   ----------------------------------------
 BYTE   Cs2  v076
 BYTE   W12
 BYTE   Fs2  v080
 BYTE   W12
 BYTE   N06  An2
 BYTE   W12
 BYTE   N12  Cs2  v064
 BYTE   W12
 BYTE   Fs2  v076
 BYTE   W12
 BYTE   N06  An2  v088
 BYTE   W12
 BYTE   N12  Cs2  v072
 BYTE   W12
 BYTE   Fs2  v084
 BYTE   W12
// 034   ----------------------------------------
 BYTE   N06  An2  v080
 BYTE   W12
 BYTE   N12  Cs2  v072
 BYTE   W12
 BYTE   Fs2  v080
 BYTE   W12
 BYTE   N06  An2
 BYTE   W12
 BYTE   N12  Cs2  v068
 BYTE   W12
 BYTE   Fs2  v080
 BYTE   W12
 BYTE   N06  An2  v084
 BYTE   W12
 BYTE   N12  Dn2  v088
 BYTE   W12
 BYTE   PATT
  POIN2 Label_2_01897B2E
// 035   ----------------------------------------
 BYTE   W12
 BYTE   N12  Fs2  v068
 BYTE   W36
 BYTE   N24  En2
 BYTE   W24
 BYTE   Fn2  v084
 BYTE   W24
// 036   ----------------------------------------
Label_2_01897CAE:
 BYTE   N12  Fs2  v084
 BYTE   W36
 BYTE   Fs2  v068
 BYTE   W36
 BYTE   Fs2  v072
 BYTE   W24
 BYTE   PEND 
 BYTE   PATT
  POIN2 Label_2_01897B79
// 037   ----------------------------------------
 BYTE   N12  Gn2  v084
 BYTE   W36
 BYTE   Gn2  v068
 BYTE   W36
 BYTE   N12
 BYTE   W24
// 038   ----------------------------------------
Label_2_01897CC7:
 BYTE   W12
 BYTE   N12  Gn2  v068
 BYTE   W36
 BYTE   N24  En2  v072
 BYTE   W24
 BYTE   Fs2  v076
 BYTE   W24
 BYTE   PEND 
 BYTE   PATT
  POIN2 Label_2_01897B43
// 039   ----------------------------------------
 BYTE   W12
 BYTE   N12  Gn2  v072
 BYTE   W36
 BYTE   N24  En2  v068
 BYTE   W24
 BYTE   Fn2  v080
 BYTE   W24
// 040   ----------------------------------------
Label_2_01897CE5:
 BYTE   N12  Fs2  v080
 BYTE   W36
 BYTE   Fs2  v068
 BYTE   W36
 BYTE   N12
 BYTE   W24
 BYTE   PEND 
 BYTE   PATT
  POIN2 Label_2_01897B12
 BYTE   PATT
  POIN2 Label_2_01897B6E
 BYTE   PATT
  POIN2 Label_2_01897B79
// 041   ----------------------------------------
Label_2_01897CFE:
 BYTE   N12  Gn2  v076
 BYTE   W36
 BYTE   Gn2  v072
 BYTE   W36
 BYTE   N12
 BYTE   W24
 BYTE   PEND 
 BYTE   PATT
  POIN2 Label_2_01897CC7
 BYTE   PATT
  POIN2 Label_2_01897B43
// 042   ----------------------------------------
 BYTE   W12
 BYTE   N12  Gn2  v064
 BYTE   W36
 BYTE   N24  En2  v068
 BYTE   W24
 BYTE   Fn2  v076
 BYTE   W24
// 043   ----------------------------------------
 BYTE   N12  Fs2  v084
 BYTE   W12
 BYTE   Fs2  v080
 BYTE   W12
 BYTE   Cs3  v084
 BYTE   W12
 BYTE   Fs2  v072
 BYTE   W12
 BYTE   N24  Fs2  v080
 BYTE   W24
 BYTE   N12  Fs2  v076
 BYTE   W12
 BYTE   Fs2  v080
 BYTE   W12
// 044   ----------------------------------------
 BYTE   Cs3  v084
 BYTE   W12
 BYTE   Fs2  v076
 BYTE   W12
 BYTE   N24  En2  v068
 BYTE   W24
 BYTE   N12  Fs2  v080
 BYTE   W12
 BYTE   Fs2  v072
 BYTE   W12
 BYTE   Cs3  v084
 BYTE   W12
 BYTE   Fs2  v072
 BYTE   W12
// 045   ----------------------------------------
 BYTE   N24  Ds2  v076
 BYTE   W24
 BYTE   N12  Fs2  v080
 BYTE   W12
 BYTE   N12
 BYTE   W12
 BYTE   Cs3  v084
 BYTE   W12
 BYTE   Fs2  v076
 BYTE   W12
 BYTE   N24  En2
 BYTE   W24
// 046   ----------------------------------------
 BYTE   Fn2
 BYTE   W24
 BYTE   N12  Fs2  v080
 BYTE   W12
 BYTE   Fs2  v076
 BYTE   W12
 BYTE   Cs3  v088
 BYTE   W12
 BYTE   Fs2  v068
 BYTE   W12
 BYTE   N24  Fs2  v080
 BYTE   W24
// 047   ----------------------------------------
 BYTE   N12
 BYTE   W12
 BYTE   Fs2  v076
 BYTE   W12
 BYTE   Cs3  v084
 BYTE   W12
 BYTE   Fs2  v072
 BYTE   W12
 BYTE   N24  En2  v076
 BYTE   W24
 BYTE   N12  Fs2  v080
 BYTE   W12
 BYTE   Fs2  v072
 BYTE   W12
// 048   ----------------------------------------
 BYTE   Cs3  v088
 BYTE   W12
 BYTE   Fs2  v072
 BYTE   W12
 BYTE   N24  Ds2  v068
 BYTE   W24
 BYTE   N12  Fs2  v080
 BYTE   W12
 BYTE   N12
 BYTE   W12
 BYTE   Cs3
 BYTE   W12
 BYTE   Fs2  v072
 BYTE   W12
// 049   ----------------------------------------
 BYTE   N24  En2  v076
 BYTE   W24
 BYTE   Fn2
 BYTE   W24
 BYTE   N12  Fs2  v080
 BYTE   W12
 BYTE   Fs2  v076
 BYTE   W12
 BYTE   Cs3  v084
 BYTE   W12
 BYTE   Fs2  v068
 BYTE   W12
// 050   ----------------------------------------
 BYTE   N24  Fs2  v076
 BYTE   W24
 BYTE   N12
 BYTE   W12
 BYTE   Fs2  v080
 BYTE   W12
 BYTE   Cs3  v084
 BYTE   W12
 BYTE   Fs2  v068
 BYTE   W12
 BYTE   N24  En2  v076
 BYTE   W24
// 051   ----------------------------------------
 BYTE   N12  Fs2  v080
 BYTE   W12
 BYTE   N12
 BYTE   W12
 BYTE   Cs3
 BYTE   W12
 BYTE   Fs2  v068
 BYTE   W12
 BYTE   N24  Ds2  v072
 BYTE   W24
 BYTE   N12  Fs2  v076
 BYTE   W12
 BYTE   N12
 BYTE   W12
// 052   ----------------------------------------
 BYTE   Cs3  v088
 BYTE   W12
 BYTE   Fs2  v076
 BYTE   W12
 BYTE   N24  En2
 BYTE   W24
 BYTE   Fn2  v080
 BYTE   W24
 BYTE   N12  Fs2  v084
 BYTE   W12
 BYTE   Fs2  v080
 BYTE   W12
// 053   ----------------------------------------
 BYTE   Cs3  v084
 BYTE   W12
 BYTE   Fs2  v068
 BYTE   W12
 BYTE   N24  Fs2  v076
 BYTE   W24
 BYTE   N12
 BYTE   W12
 BYTE   Fs2  v080
 BYTE   W12
 BYTE   Cs3  v088
 BYTE   W12
 BYTE   Fs2  v072
 BYTE   W12
// 054   ----------------------------------------
 BYTE   N24  En2  v076
 BYTE   W24
 BYTE   N12  Fs2  v088
 BYTE   W12
 BYTE   Fs2  v076
 BYTE   W12
 BYTE   Cs3  v084
 BYTE   W12
 BYTE   Fs2  v072
 BYTE   W12
 BYTE   N24  Ds2
 BYTE   W24
// 055   ----------------------------------------
 BYTE   N12  Fs2  v080
 BYTE   W12
 BYTE   Fs2  v076
 BYTE   W12
 BYTE   Cs3  v084
 BYTE   W12
 BYTE   Fs2  v072
 BYTE   W12
 BYTE   N24  En2
 BYTE   W24
 BYTE   Fn2  v076
 BYTE   W24
// 056   ----------------------------------------
 BYTE   N48  Dn2
 BYTE   W48
 BYTE   An2  v088
 BYTE   W48
// 057   ----------------------------------------
 BYTE   En2  v072
 BYTE   W48
 BYTE   Bn2  v088
 BYTE   W48
// 058   ----------------------------------------
Label_2_01897E34:
 BYTE   N12  Fs2  v072
 BYTE   W36
 BYTE   Fs2  v068
 BYTE   W36
 BYTE   Fs2  v076
 BYTE   W24
 BYTE   PEND 
// 059   ----------------------------------------
Label_2_01897E3F:
 BYTE   W12
 BYTE   N12  Fs2  v072
 BYTE   W36
 BYTE   Fs2  v076
 BYTE   W24
 BYTE   Fs2  v068
 BYTE   W24
 BYTE   PEND 
// 060   ----------------------------------------
 BYTE   Gn2
 BYTE   W36
 BYTE   Gn2  v072
 BYTE   W36
 BYTE   Gn2  v068
 BYTE   W24
// 061   ----------------------------------------
 BYTE   W12
 BYTE   N12
 BYTE   W36
 BYTE   An2  v076
 BYTE   W24
 BYTE   Gn2  v072
 BYTE   W24
 BYTE   PATT
  POIN2 Label_2_01897E34
// 062   ----------------------------------------
Label_2_01897E61:
 BYTE   W12
 BYTE   N12  Fs2  v068
 BYTE   W36
 BYTE   Fs2  v072
 BYTE   W24
 BYTE   N12
 BYTE   W24
 BYTE   PEND 
// 063   ----------------------------------------
Label_2_01897E6C:
 BYTE   N12  Gn2  v068
 BYTE   W36
 BYTE   N12
 BYTE   W36
 BYTE   N12
 BYTE   W24
 BYTE   PEND 
// 064   ----------------------------------------
Label_2_01897E75:
 BYTE   W12
 BYTE   N12  Gn2  v072
 BYTE   W36
 BYTE   An2
 BYTE   W24
 BYTE   Gn2
 BYTE   W24
 BYTE   PEND 
// 065   ----------------------------------------
 BYTE   Fs2  v068
 BYTE   W36
 BYTE   Fs2  v072
 BYTE   W36
 BYTE   N12
 BYTE   W24
// 066   ----------------------------------------
Label_2_01897E87:
 BYTE   W12
 BYTE   N12  Fs2  v072
 BYTE   W36
 BYTE   N12
 BYTE   W24
 BYTE   N12
 BYTE   W24
 BYTE   PEND 
// 067   ----------------------------------------
 BYTE   Gn2
 BYTE   W36
 BYTE   Gn2  v068
 BYTE   W36
 BYTE   Gn2  v072
 BYTE   W24
// 068   ----------------------------------------
Label_2_01897E99:
 BYTE   W12
 BYTE   N12  Gn2  v072
 BYTE   W36
 BYTE   An2  v068
 BYTE   W24
 BYTE   Gn2
 BYTE   W24
 BYTE   PEND 
// 069   ----------------------------------------
Label_2_01897EA4:
 BYTE   N12  Fs2  v068
 BYTE   W36
 BYTE   Fs2  v072
 BYTE   W36
 BYTE   Fs2  v068
 BYTE   W24
 BYTE   PEND 
 BYTE   PATT
  POIN2 Label_2_01897E3F
// 070   ----------------------------------------
 BYTE   N12  Gn2  v064
 BYTE   W36
 BYTE   Gn2  v072
 BYTE   W36
 BYTE   N12
 BYTE   W24
 BYTE   PATT
  POIN2 Label_2_01897E75
 BYTE   PATT
  POIN2 Label_2_01897EA4
// 071   ----------------------------------------
Label_2_01897EC7:
 BYTE   W12
 BYTE   N12  Fs2  v072
 BYTE   W36
 BYTE   Fs2  v068
 BYTE   W24
 BYTE   Fs2  v072
 BYTE   W24
 BYTE   PEND 
 BYTE   PATT
  POIN2 Label_2_01897E6C
// 072   ----------------------------------------
 BYTE   W12
 BYTE   N12  Gn2  v064
 BYTE   W36
 BYTE   An2  v072
 BYTE   W24
 BYTE   Gn2
 BYTE   W24
// 073   ----------------------------------------
 BYTE   Fs2  v068
 BYTE   W36
 BYTE   N12
 BYTE   W36
 BYTE   Fs2  v064
 BYTE   W24
 BYTE   PATT
  POIN2 Label_2_01897EC7
// 074   ----------------------------------------
 BYTE   N12  Gn2  v064
 BYTE   W36
 BYTE   Gn2  v068
 BYTE   W36
 BYTE   N12
 BYTE   W24
 BYTE   PATT
  POIN2 Label_2_01897E99
// 075   ----------------------------------------
 BYTE   N12  Fs3  v076
 BYTE   W12
 BYTE   Fs2  v064
 BYTE   W12
 BYTE   Fs2  v076
 BYTE   W12
 BYTE   Fs3  v088
 BYTE   W12
 BYTE   Fs2  v072
 BYTE   W12
 BYTE   Fs2  v080
 BYTE   W12
 BYTE   Fs3  v088
 BYTE   W12
 BYTE   Fs2  v068
 BYTE   W12
// 076   ----------------------------------------
 BYTE   Fs2  v076
 BYTE   W12
 BYTE   Fs3  v088
 BYTE   W12
 BYTE   Fs2  v064
 BYTE   W12
 BYTE   Fs2  v076
 BYTE   W12
 BYTE   Fs3  v088
 BYTE   W12
 BYTE   Fs2  v072
 BYTE   W12
 BYTE   Fs3  v084
 BYTE   W12
 BYTE   Fs2  v068
 BYTE   W12
// 077   ----------------------------------------
 BYTE   En3  v088
 BYTE   W12
 BYTE   En2  v068
 BYTE   W12
 BYTE   En2  v076
 BYTE   W12
 BYTE   En3  v084
 BYTE   W12
 BYTE   En2  v068
 BYTE   W12
 BYTE   En2  v076
 BYTE   W12
 BYTE   En3  v092
 BYTE   W12
 BYTE   En2  v068
 BYTE   W12
// 078   ----------------------------------------
 BYTE   En2  v072
 BYTE   W12
 BYTE   En3  v088
 BYTE   W12
 BYTE   En2  v068
 BYTE   W12
 BYTE   En2  v080
 BYTE   W12
 BYTE   En3  v088
 BYTE   W12
 BYTE   En2  v068
 BYTE   W12
 BYTE   En3  v088
 BYTE   W12
 BYTE   En2  v068
 BYTE   W12
// 079   ----------------------------------------
 BYTE   Fs3  v084
 BYTE   W12
 BYTE   Fs2  v072
 BYTE   W12
 BYTE   Fs2  v076
 BYTE   W12
 BYTE   Fs3  v092
 BYTE   W12
 BYTE   Fs2  v068
 BYTE   W12
 BYTE   Fs2  v076
 BYTE   W12
 BYTE   Fs3  v084
 BYTE   W12
 BYTE   Fs2  v072
 BYTE   W12
// 080   ----------------------------------------
 BYTE   Fs2  v076
 BYTE   W12
 BYTE   Fs3  v088
 BYTE   W12
 BYTE   Fs2  v068
 BYTE   W12
 BYTE   Fs2  v080
 BYTE   W12
 BYTE   Fs3  v088
 BYTE   W12
 BYTE   Fs2  v068
 BYTE   W12
 BYTE   Fs3  v088
 BYTE   W12
 BYTE   Fs2  v064
 BYTE   W12
// 081   ----------------------------------------
 BYTE   En3  v092
 BYTE   W12
 BYTE   En2  v068
 BYTE   W12
 BYTE   En2  v076
 BYTE   W12
 BYTE   En3  v092
 BYTE   W12
 BYTE   En2  v068
 BYTE   W12
 BYTE   En2  v072
 BYTE   W12
 BYTE   En3  v092
 BYTE   W12
 BYTE   En2  v072
 BYTE   W12
// 082   ----------------------------------------
 BYTE   En2  v080
 BYTE   W12
 BYTE   En3  v084
 BYTE   W12
 BYTE   En2  v072
 BYTE   W12
 BYTE   En2  v076
 BYTE   W12
 BYTE   En3  v088
 BYTE   W12
 BYTE   En2  v072
 BYTE   W12
 BYTE   En3  v084
 BYTE   W12
 BYTE   En2  v068
 BYTE   W12
// 083   ----------------------------------------
 BYTE   Fs3  v084
 BYTE   W12
 BYTE   Fs2  v068
 BYTE   W12
 BYTE   Fs2  v076
 BYTE   W12
 BYTE   Fs3  v084
 BYTE   W12
 BYTE   Fs2  v068
 BYTE   W12
 BYTE   Fs2  v080
 BYTE   W12
 BYTE   Fs3  v092
 BYTE   W12
 BYTE   Fs2  v068
 BYTE   W12
// 084   ----------------------------------------
 BYTE   Fs2  v080
 BYTE   W12
 BYTE   Fs3  v092
 BYTE   W12
 BYTE   Fs2  v068
 BYTE   W12
 BYTE   Fs2  v076
 BYTE   W12
 BYTE   Fs3  v088
 BYTE   W12
 BYTE   Fs2  v064
 BYTE   W12
 BYTE   Fs3  v088
 BYTE   W12
 BYTE   Fs2  v068
 BYTE   W12
// 085   ----------------------------------------
 BYTE   En3  v084
 BYTE   W12
 BYTE   En2  v064
 BYTE   W12
 BYTE   En2  v076
 BYTE   W12
 BYTE   En3  v092
 BYTE   W12
 BYTE   En2  v076
 BYTE   W12
 BYTE   N12
 BYTE   W12
 BYTE   En3  v092
 BYTE   W12
 BYTE   En2  v068
 BYTE   W12
// 086   ----------------------------------------
 BYTE   En2  v080
 BYTE   W12
 BYTE   En3  v088
 BYTE   W12
 BYTE   En2  v068
 BYTE   W12
 BYTE   En2  v076
 BYTE   W12
 BYTE   En3  v084
 BYTE   W12
 BYTE   En2  v064
 BYTE   W12
 BYTE   En3  v092
 BYTE   W12
 BYTE   En2  v072
 BYTE   W12
// 087   ----------------------------------------
 BYTE   Fs3  v088
 BYTE   W12
 BYTE   Fs2  v076
 BYTE   W12
 BYTE   N12
 BYTE   W12
 BYTE   Fs3  v092
 BYTE   W12
 BYTE   Fs2  v068
 BYTE   W12
 BYTE   Fs2  v076
 BYTE   W12
 BYTE   Fs3  v088
 BYTE   W12
 BYTE   Fs2  v072
 BYTE   W12
// 088   ----------------------------------------
 BYTE   Fs2  v076
 BYTE   W12
 BYTE   Fs3  v088
 BYTE   W12
 BYTE   Fs2  v068
 BYTE   W12
 BYTE   Fs2  v076
 BYTE   W12
 BYTE   Fs3  v088
 BYTE   W12
 BYTE   Fs2  v072
 BYTE   W12
 BYTE   Fs3  v084
 BYTE   W12
 BYTE   Fs2  v068
 BYTE   W12
// 089   ----------------------------------------
 BYTE   En3  v088
 BYTE   W12
 BYTE   En2  v068
 BYTE   W12
 BYTE   En2  v072
 BYTE   W12
 BYTE   En3  v084
 BYTE   W12
 BYTE   En2  v072
 BYTE   W12
 BYTE   En2  v076
 BYTE   W12
 BYTE   En3  v080
 BYTE   W12
 BYTE   En2  v072
 BYTE   W12
// 090   ----------------------------------------
 BYTE   En2  v080
 BYTE   W12
 BYTE   En3  v088
 BYTE   W12
 BYTE   En2  v068
 BYTE   W12
 BYTE   En2  v076
 BYTE   W12
 BYTE   En3  v088
 BYTE   W12
 BYTE   En2  v068
 BYTE   W12
 BYTE   En3  v084
 BYTE   W12
 BYTE   En2  v068
 BYTE   W12
// 091   ----------------------------------------
 BYTE   Fs2  v080
 BYTE   W36
 BYTE   Fs2  v068
 BYTE   W36
 BYTE   Fs2  v076
 BYTE   W24
// 092   ----------------------------------------
Label_2_01898085:
 BYTE   W12
 BYTE   N12  Fs2  v068
 BYTE   W36
 BYTE   N24  En2  v072
 BYTE   W24
 BYTE   Fn2  v080
 BYTE   W24
 BYTE   PEND 
 BYTE   PATT
  POIN2 Label_2_01897B2E
// 093   ----------------------------------------
Label_2_01898097:
 BYTE   W12
 BYTE   N12  Fs2  v072
 BYTE   W36
 BYTE   N24  En2
 BYTE   W24
 BYTE   Fn2  v080
 BYTE   W24
 BYTE   PEND 
 BYTE   PATT
  POIN2 Label_2_01897B6E
// 094   ----------------------------------------
Label_2_018980A8:
 BYTE   W12
 BYTE   N12  Fs2  v068
 BYTE   W36
 BYTE   N24  En2
 BYTE   W24
 BYTE   Fn2  v080
 BYTE   W24
 BYTE   PEND 
 BYTE   PATT
  POIN2 Label_2_01897AC7
 BYTE   PATT
  POIN2 Label_2_01898097
 BYTE   PATT
  POIN2 Label_2_01897CAE
 BYTE   PATT
  POIN2 Label_2_01898085
// 095   ----------------------------------------
 BYTE   N12  Fs2  v084
 BYTE   W36
 BYTE   Fs2  v076
 BYTE   W36
 BYTE   Fs2  v068
 BYTE   W24
 BYTE   PATT
  POIN2 Label_2_01898097
// 096   ----------------------------------------
 BYTE   N12  Fs2  v084
 BYTE   W36
 BYTE   Fs2  v072
 BYTE   W36
 BYTE   Fs2  v068
 BYTE   W24
// 097   ----------------------------------------
 BYTE   W12
 BYTE   Fs2  v064
 BYTE   W36
 BYTE   N24  En2
 BYTE   W24
 BYTE   Fn2  v080
 BYTE   W24
 BYTE   PATT
  POIN2 Label_2_01897B2E
 BYTE   PATT
  POIN2 Label_2_01897B12
// 098   ----------------------------------------
 BYTE   N12  Fs2  v076
 BYTE   W36
 BYTE   Fs2  v072
 BYTE   W36
 BYTE   N12
 BYTE   W24
 BYTE   PATT
  POIN2 Label_2_01897AFC
 BYTE   PATT
  POIN2 Label_2_01897CE5
// 099   ----------------------------------------
 BYTE   W12
 BYTE   N12  Fs2  v068
 BYTE   W36
 BYTE   N24  En2  v076
 BYTE   W24
 BYTE   Fn2  v080
 BYTE   W24
// 100   ----------------------------------------
 BYTE   N12  Gn2  v076
 BYTE   W36
 BYTE   Gn2  v072
 BYTE   W36
 BYTE   Gn2  v068
 BYTE   W24
// 101   ----------------------------------------
Label_2_0189811E:
 BYTE   W12
 BYTE   N12  Gn2  v072
 BYTE   W36
 BYTE   N24  En2  v068
 BYTE   W24
 BYTE   Fs2  v076
 BYTE   W24
 BYTE   PEND 
// 102   ----------------------------------------
 BYTE   N12  Gn2
 BYTE   W36
 BYTE   N12
 BYTE   W36
 BYTE   Gn2  v072
 BYTE   W24
// 103   ----------------------------------------
 BYTE   W12
 BYTE   Gn2  v068
 BYTE   W36
 BYTE   N24  En2
 BYTE   W24
 BYTE   Fn2  v072
 BYTE   W24
 BYTE   PATT
  POIN2 Label_2_01897B6E
 BYTE   PATT
  POIN2 Label_2_01897B79
// 104   ----------------------------------------
 BYTE   N12  Fs2  v080
 BYTE   W36
 BYTE   Fs2  v076
 BYTE   W36
 BYTE   Fs2  v064
 BYTE   W24
 BYTE   PATT
  POIN2 Label_2_018980A8
// 105   ----------------------------------------
 BYTE   N12  Gn2  v080
 BYTE   W36
 BYTE   Gn2  v072
 BYTE   W36
 BYTE   N12
 BYTE   W24
// 106   ----------------------------------------
 BYTE   W12
 BYTE   N12
 BYTE   W36
 BYTE   N24  En2  v068
 BYTE   W24
 BYTE   Fs2  v080
 BYTE   W24
 BYTE   PATT
  POIN2 Label_2_01897BA7
// 107   ----------------------------------------
 BYTE   W12
 BYTE   N12  Gn2  v072
 BYTE   W36
 BYTE   N24  En2  v068
 BYTE   W24
 BYTE   Fn2  v076
 BYTE   W24
// 108   ----------------------------------------
 BYTE   N12  Cs2  v072
 BYTE   W12
 BYTE   Fs2  v080
 BYTE   W12
 BYTE   N06  An2  v084
 BYTE   W12
 BYTE   N12  Cs2  v068
 BYTE   W12
 BYTE   Fs2  v084
 BYTE   W12
 BYTE   N06  An2
 BYTE   W12
 BYTE   N12  Cs2  v064
 BYTE   W12
 BYTE   Fs2  v080
 BYTE   W12
// 109   ----------------------------------------
 BYTE   N06  An2  v076
 BYTE   W12
 BYTE   N12  Cs2  v068
 BYTE   W12
 BYTE   Fs2  v080
 BYTE   W12
 BYTE   N06  An2  v076
 BYTE   W12
 BYTE   N12  Cs2  v068
 BYTE   W12
 BYTE   Fs2  v084
 BYTE   W12
 BYTE   N06  An2  v080
 BYTE   W12
 BYTE   N12  Dn2  v084
 BYTE   W12
// 110   ----------------------------------------
 BYTE   Cs2  v076
 BYTE   W12
 BYTE   Fs2
 BYTE   W12
 BYTE   N06  An2  v084
 BYTE   W12
 BYTE   N12  Cs2  v068
 BYTE   W12
 BYTE   Fs2  v084
 BYTE   W12
 BYTE   N06  An2
 BYTE   W12
 BYTE   N12  Cs2  v072
 BYTE   W12
 BYTE   Fs2  v080
 BYTE   W12
// 111   ----------------------------------------
 BYTE   N06  An2
 BYTE   W12
 BYTE   N12  Cs2  v068
 BYTE   W12
 BYTE   Fs2  v080
 BYTE   W12
 BYTE   N06  An2
 BYTE   W12
 BYTE   N12  Cs2  v072
 BYTE   W12
 BYTE   Fs2  v084
 BYTE   W12
 BYTE   N06  An2  v076
 BYTE   W12
 BYTE   N12  Dn2  v084
 BYTE   W12
// 112   ----------------------------------------
 BYTE   Cs2  v076
 BYTE   W12
 BYTE   Fs2  v080
 BYTE   W12
 BYTE   N06  An2
 BYTE   W12
 BYTE   N12  Cs2  v072
 BYTE   W12
 BYTE   Fs2  v080
 BYTE   W12
 BYTE   N06  An2  v088
 BYTE   W12
 BYTE   N12  Cs2  v068
 BYTE   W12
 BYTE   Fs2  v080
 BYTE   W12
// 113   ----------------------------------------
 BYTE   N06  An2  v084
 BYTE   W12
 BYTE   N12  Cs2  v072
 BYTE   W12
 BYTE   Fs2  v080
 BYTE   W12
 BYTE   N06  An2  v084
 BYTE   W12
 BYTE   N12  Cs2  v072
 BYTE   W12
 BYTE   Fs2  v080
 BYTE   W12
 BYTE   N06  An2  v088
 BYTE   W12
 BYTE   N12  Dn2  v084
 BYTE   W12
// 114   ----------------------------------------
 BYTE   Cs2  v080
 BYTE   W12
 BYTE   Fs2  v084
 BYTE   W12
 BYTE   N06  An2
 BYTE   W12
 BYTE   N12  Cs2  v072
 BYTE   W12
 BYTE   Fs2  v080
 BYTE   W12
 BYTE   N06  An2  v084
 BYTE   W12
 BYTE   N12  Cs2  v068
 BYTE   W12
 BYTE   Fs2  v084
 BYTE   W12
// 115   ----------------------------------------
 BYTE   N06  An2  v080
 BYTE   W12
 BYTE   N12  Cs2  v068
 BYTE   W12
 BYTE   Fs2  v080
 BYTE   W12
 BYTE   N06  An2  v084
 BYTE   W12
 BYTE   N12  Cs2  v072
 BYTE   W12
 BYTE   Fs2  v080
 BYTE   W12
 BYTE   N06  An2
 BYTE   W12
 BYTE   N12  Dn2  v088
 BYTE   W12
// 116   ----------------------------------------
 BYTE   Fs2  v080
 BYTE   W36
 BYTE   Fs2  v076
 BYTE   W36
 BYTE   Fs2  v072
 BYTE   W24
// 117   ----------------------------------------
 BYTE   W12
 BYTE   N12
 BYTE   W36
 BYTE   N24  En2  v068
 BYTE   W24
 BYTE   Fn2  v076
 BYTE   W24
 BYTE   PATT
  POIN2 Label_2_01897CAE
 BYTE   PATT
  POIN2 Label_2_01898097
// 118   ----------------------------------------
 BYTE   N12  Gn2  v084
 BYTE   W36
 BYTE   Gn2  v072
 BYTE   W36
 BYTE   Gn2  v064
 BYTE   W24
 BYTE   PATT
  POIN2 Label_2_0189811E
// 119   ----------------------------------------
 BYTE   N12  Gn2  v080
 BYTE   W36
 BYTE   Gn2  v072
 BYTE   W36
 BYTE   Gn2  v064
 BYTE   W24
// 120   ----------------------------------------
 BYTE   W12
 BYTE   Gn2  v072
 BYTE   W36
 BYTE   N24  En2
 BYTE   W24
 BYTE   Fn2  v076
 BYTE   W24
 BYTE   PATT
  POIN2 Label_2_01897ADD
 BYTE   PATT
  POIN2 Label_2_01898097
 BYTE   PATT
  POIN2 Label_2_01897CAE
 BYTE   PATT
  POIN2 Label_2_01897AE7
 BYTE   PATT
  POIN2 Label_2_01897B43
// 121   ----------------------------------------
 BYTE   W12
 BYTE   N12  Gn2  v072
 BYTE   W36
 BYTE   N24  En2
 BYTE   W24
 BYTE   Fs2  v076
 BYTE   W24
 BYTE   PATT
  POIN2 Label_2_01897CFE
// 122   ----------------------------------------
 BYTE   W12
 BYTE   N12  Gn2  v068
 BYTE   W36
 BYTE   N24  En2
 BYTE   W24
 BYTE   Fn2  v080
 BYTE   W24
// 123   ----------------------------------------
 BYTE   N12  Fs2
 BYTE   W12
 BYTE   Fs2  v076
 BYTE   W12
 BYTE   Cs3  v088
 BYTE   W12
 BYTE   Fs2  v076
 BYTE   W12
 BYTE   N24
 BYTE   W24
 BYTE   N12  Fs2  v084
 BYTE   W12
 BYTE   Fs2  v080
 BYTE   W12
// 124   ----------------------------------------
 BYTE   Cs3  v084
 BYTE   W12
 BYTE   Fs2  v072
 BYTE   W12
 BYTE   N24  En2
 BYTE   W24
 BYTE   N12  Fs2  v084
 BYTE   W12
 BYTE   Fs2  v076
 BYTE   W12
 BYTE   Cs3  v084
 BYTE   W12
 BYTE   Fs2  v072
 BYTE   W12
// 125   ----------------------------------------
 BYTE   N24  Ds2  v076
 BYTE   W24
 BYTE   N12  Fs2  v080
 BYTE   W12
 BYTE   Fs2  v072
 BYTE   W12
 BYTE   Cs3  v084
 BYTE   W12
 BYTE   Fs2  v072
 BYTE   W12
 BYTE   N24  En2  v076
 BYTE   W24
// 126   ----------------------------------------
 BYTE   Fn2
 BYTE   W24
 BYTE   N12  Fs2
 BYTE   W12
 BYTE   Fs2  v080
 BYTE   W12
 BYTE   Cs3
 BYTE   W12
 BYTE   Fs2  v072
 BYTE   W12
 BYTE   N24
 BYTE   W24
// 127   ----------------------------------------
 BYTE   N12
 BYTE   W12
 BYTE   Fs2  v076
 BYTE   W12
 BYTE   Cs3  v084
 BYTE   W12
 BYTE   Fs2  v072
 BYTE   W12
 BYTE   N24  En2  v076
 BYTE   W24
 BYTE   N12  Fs2  v080
 BYTE   W12
 BYTE   Fs2  v076
 BYTE   W12
// 128   ----------------------------------------
 BYTE   Cs3  v088
 BYTE   W12
 BYTE   Fs2  v076
 BYTE   W12
 BYTE   N24  Ds2  v072
 BYTE   W24
 BYTE   N12  Fs2  v080
 BYTE   W12
 BYTE   Fs2  v076
 BYTE   W12
 BYTE   Cs3  v084
 BYTE   W12
 BYTE   Fs2  v072
 BYTE   W12
// 129   ----------------------------------------
 BYTE   N24  En2  v080
 BYTE   W24
 BYTE   Fn2
 BYTE   W24
 BYTE   N12  Fs2
 BYTE   W12
 BYTE   N12
 BYTE   W12
 BYTE   Cs3  v092
 BYTE   W12
 BYTE   Fs2  v072
 BYTE   W12
// 130   ----------------------------------------
 BYTE   N24  Fs2  v080
 BYTE   W24
 BYTE   N12
 BYTE   W12
 BYTE   Fs2  v076
 BYTE   W12
 BYTE   Cs3  v084
 BYTE   W12
 BYTE   Fs2  v076
 BYTE   W12
 BYTE   N24  En2
 BYTE   W24
// 131   ----------------------------------------
 BYTE   N12  Fs2  v080
 BYTE   W12
 BYTE   N12
 BYTE   W12
 BYTE   Cs3  v076
 BYTE   W12
 BYTE   Fs2  v072
 BYTE   W12
 BYTE   N24  Ds2  v076
 BYTE   W24
 BYTE   N12  Fs2  v080
 BYTE   W12
 BYTE   Fs2  v072
 BYTE   W12
// 132   ----------------------------------------
 BYTE   Cs3  v084
 BYTE   W12
 BYTE   Fs2  v068
 BYTE   W12
 BYTE   N24  En2  v072
 BYTE   W24
 BYTE   Fn2  v080
 BYTE   W24
 BYTE   N12  Fs2
 BYTE   W12
 BYTE   Fs2  v072
 BYTE   W12
// 133   ----------------------------------------
 BYTE   Cs3  v084
 BYTE   W12
 BYTE   Fs2  v076
 BYTE   W12
 BYTE   N24  Fs2  v072
 BYTE   W24
 BYTE   N12  Fs2  v080
 BYTE   W12
 BYTE   N12
 BYTE   W12
 BYTE   Cs3
 BYTE   W12
 BYTE   Fs2  v068
 BYTE   W12
// 134   ----------------------------------------
 BYTE   N24  En2  v072
 BYTE   W24
 BYTE   N12  Fs2  v076
 BYTE   W12
 BYTE   N12
 BYTE   W12
 BYTE   Cs3  v084
 BYTE   W12
 BYTE   Fs2  v072
 BYTE   W12
 BYTE   N24  Ds2
 BYTE   W24
// 135   ----------------------------------------
 BYTE   N12  Fs2  v084
 BYTE   W12
 BYTE   Fs2  v080
 BYTE   W12
 BYTE   Cs3  v088
 BYTE   W12
 BYTE   Fs2  v072
 BYTE   W12
 BYTE   N24  En2  v076
 BYTE   W24
 BYTE   Fn2  v084
 BYTE   W24
// 136   ----------------------------------------
 BYTE   N48  Dn2  v072
 BYTE   W48
 BYTE   An2  v080
 BYTE   W48
// 137   ----------------------------------------
 BYTE   En2  v076
 BYTE   W48
 BYTE   Bn2  v080
 BYTE   W48
 BYTE   PATT
  POIN2 Label_2_01897ADD
// 138   ----------------------------------------
 BYTE   W12
 BYTE   N12  Fs2  v068
 BYTE   W36
 BYTE   N12
 BYTE   W24
 BYTE   Fs2  v072
 BYTE   W24
// 139   ----------------------------------------
 BYTE   Gn2  v064
 BYTE   W36
 BYTE   Gn2  v068
 BYTE   W36
 BYTE   Gn2  v072
 BYTE   W24
// 140   ----------------------------------------
 BYTE   W12
 BYTE   Gn2  v068
 BYTE   W36
 BYTE   An2
 BYTE   W24
 BYTE   Gn2  v072
 BYTE   W24
// 141   ----------------------------------------
 BYTE   Fs2  v068
 BYTE   W36
 BYTE   N12
 BYTE   W36
 BYTE   Fs2  v072
 BYTE   W24
 BYTE   PATT
  POIN2 Label_2_01897E87
// 142   ----------------------------------------
Label_2_0189840F:
 BYTE   N12  Gn2  v072
 BYTE   W36
 BYTE   N12
 BYTE   W36
 BYTE   N12
 BYTE   W24
 BYTE   PEND 
// 143   ----------------------------------------
 BYTE   W12
 BYTE   N12
 BYTE   W36
 BYTE   An2  v068
 BYTE   W24
 BYTE   Gn2  v064
 BYTE   W24
 BYTE   PATT
  POIN2 Label_2_01897EA4
 BYTE   PATT
  POIN2 Label_2_01897E3F
 BYTE   PATT
  POIN2 Label_2_01897E6C
// 144   ----------------------------------------
 BYTE   W12
 BYTE   N12  Gn2  v068
 BYTE   W36
 BYTE   An2  v072
 BYTE   W24
 BYTE   Gn2  v068
 BYTE   W24
// 145   ----------------------------------------
 BYTE   Fs2
 BYTE   W36
 BYTE   N12
 BYTE   W36
 BYTE   Fs2  v076
 BYTE   W24
 BYTE   PATT
  POIN2 Label_2_01897E61
 BYTE   PATT
  POIN2 Label_2_0189840F
 BYTE   PATT
  POIN2 Label_2_01897E99
// 146   ----------------------------------------
Label_2_01898451:
 BYTE   N12  Fs2  v072
 BYTE   W36
 BYTE   Fs2  v068
 BYTE   W36
 BYTE   Fs2  v072
 BYTE   W24
 BYTE   PEND 
 BYTE   PATT
  POIN2 Label_2_01897E87
// 147   ----------------------------------------
 BYTE   N12  Gn2  v072
 BYTE   W36
 BYTE   N12
 BYTE   W36
 BYTE   Gn2  v068
 BYTE   W24
// 148   ----------------------------------------
 BYTE   W12
 BYTE   N12
 BYTE   W36
 BYTE   An2  v064
 BYTE   W24
 BYTE   Gn2  v068
 BYTE   W24
 BYTE   PATT
  POIN2 Label_2_01898451
 BYTE   PATT
  POIN2 Label_2_01897E61
// 149   ----------------------------------------
 BYTE   N12  Gn2  v068
 BYTE   W36
 BYTE   Gn2  v064
 BYTE   W36
 BYTE   Gn2  v076
 BYTE   W24
// 150   ----------------------------------------
 BYTE   W12
 BYTE   Gn2  v068
 BYTE   W36
 BYTE   An2  v076
 BYTE   W24
 BYTE   Gn2  v068
 BYTE   W24
// 151   ----------------------------------------
 BYTE   Fs3  v076
 BYTE   W12
 BYTE   Fs2  v064
 BYTE   W12
 BYTE   Fs2  v080
 BYTE   W12
 BYTE   Fs3  v084
 BYTE   W12
 BYTE   Fs2  v076
 BYTE   W12
 BYTE   Fs2  v072
 BYTE   W12
 BYTE   Fs3  v092
 BYTE   W12
 BYTE   Fs2  v068
 BYTE   W12
// 152   ----------------------------------------
 BYTE   Fs2  v080
 BYTE   W12
 BYTE   Fs3  v088
 BYTE   W12
 BYTE   Fs2  v068
 BYTE   W12
 BYTE   Fs2  v076
 BYTE   W12
 BYTE   Fs3  v088
 BYTE   W12
 BYTE   Fs2  v068
 BYTE   W12
 BYTE   Fs3  v084
 BYTE   W12
 BYTE   Fs2  v068
 BYTE   W12
// 153   ----------------------------------------
 BYTE   En3  v088
 BYTE   W12
 BYTE   En2  v060
 BYTE   W12
 BYTE   En2  v080
 BYTE   W12
 BYTE   En3  v088
 BYTE   W12
 BYTE   En2  v068
 BYTE   W12
 BYTE   En2  v076
 BYTE   W12
 BYTE   En3  v092
 BYTE   W12
 BYTE   En2  v072
 BYTE   W12
// 154   ----------------------------------------
 BYTE   En2  v076
 BYTE   W12
 BYTE   En3  v092
 BYTE   W12
 BYTE   En2  v072
 BYTE   W12
 BYTE   En2  v080
 BYTE   W12
 BYTE   En3  v088
 BYTE   W12
 BYTE   En2  v068
 BYTE   W12
 BYTE   En3  v088
 BYTE   W12
 BYTE   En2  v068
 BYTE   W12
// 155   ----------------------------------------
 BYTE   Fs3  v088
 BYTE   W12
 BYTE   Fs2  v068
 BYTE   W12
 BYTE   Fs2  v072
 BYTE   W12
 BYTE   Fs3  v088
 BYTE   W12
 BYTE   Fs2  v072
 BYTE   W12
 BYTE   Fs2  v076
 BYTE   W12
 BYTE   Fs3  v092
 BYTE   W12
 BYTE   Fs2  v072
 BYTE   W12
// 156   ----------------------------------------
 BYTE   Fs2  v080
 BYTE   W12
 BYTE   Fs3  v088
 BYTE   W12
 BYTE   Fs2  v068
 BYTE   W12
 BYTE   Fs2  v076
 BYTE   W12
 BYTE   Fs3  v092
 BYTE   W12
 BYTE   Fs2  v072
 BYTE   W12
 BYTE   Fs3  v088
 BYTE   W12
 BYTE   Fs2  v072
 BYTE   W12
// 157   ----------------------------------------
 BYTE   En3  v084
 BYTE   W12
 BYTE   En2  v068
 BYTE   W12
 BYTE   En2  v084
 BYTE   W12
 BYTE   En3  v088
 BYTE   W12
 BYTE   En2  v072
 BYTE   W12
 BYTE   En2  v080
 BYTE   W12
 BYTE   En3  v084
 BYTE   W12
 BYTE   En2  v068
 BYTE   W12
// 158   ----------------------------------------
 BYTE   En2  v080
 BYTE   W12
 BYTE   En3  v088
 BYTE   W12
 BYTE   En2  v068
 BYTE   W12
 BYTE   En2  v076
 BYTE   W12
 BYTE   En3  v088
 BYTE   W12
 BYTE   En2  v068
 BYTE   W12
 BYTE   En3  v088
 BYTE   W12
 BYTE   En2  v072
 BYTE   W12
// 159   ----------------------------------------
 BYTE   Fs3  v092
 BYTE   W12
 BYTE   Fs2  v072
 BYTE   W12
 BYTE   N12
 BYTE   W12
 BYTE   Fs3  v084
 BYTE   W12
 BYTE   Fs2  v068
 BYTE   W12
 BYTE   Fs2  v072
 BYTE   W12
 BYTE   Fs3  v088
 BYTE   W12
 BYTE   Fs2  v068
 BYTE   W12
// 160   ----------------------------------------
 BYTE   Fs2  v080
 BYTE   W12
 BYTE   Fs3  v084
 BYTE   W12
 BYTE   Fs2  v072
 BYTE   W12
 BYTE   Fs2  v076
 BYTE   W12
 BYTE   Fs3  v088
 BYTE   W12
 BYTE   Fs2  v068
 BYTE   W12
 BYTE   Fs3  v088
 BYTE   W12
 BYTE   Fs2  v068
 BYTE   W12
// 161   ----------------------------------------
 BYTE   En3  v084
 BYTE   W12
 BYTE   En2  v068
 BYTE   W12
 BYTE   En2  v076
 BYTE   W12
 BYTE   En3  v084
 BYTE   W12
 BYTE   En2  v068
 BYTE   W12
 BYTE   En2  v076
 BYTE   W12
 BYTE   En3  v088
 BYTE   W12
 BYTE   En2  v068
 BYTE   W12
// 162   ----------------------------------------
 BYTE   En2  v080
 BYTE   W12
 BYTE   En3  v092
 BYTE   W12
 BYTE   En2  v064
 BYTE   W12
 BYTE   En2  v076
 BYTE   W12
 BYTE   En3  v088
 BYTE   W12
 BYTE   En2  v072
 BYTE   W12
 BYTE   En3  v080
 BYTE   W12
 BYTE   En2  v068
 BYTE   W12
// 163   ----------------------------------------
 BYTE   Fs3  v088
 BYTE   W12
 BYTE   Fs2  v068
 BYTE   W12
 BYTE   Fs2  v080
 BYTE   W12
 BYTE   Fs3  v084
 BYTE   W12
 BYTE   Fs2  v068
 BYTE   W12
 BYTE   Fs2  v076
 BYTE   W12
 BYTE   Fs3  v084
 BYTE   W12
 BYTE   Fs2  v072
 BYTE   W12
// 164   ----------------------------------------
 BYTE   Fs2  v076
 BYTE   W12
 BYTE   Fs3  v084
 BYTE   W12
 BYTE   Fs2  v072
 BYTE   W12
 BYTE   Fs2  v076
 BYTE   W12
 BYTE   Fs3  v084
 BYTE   W12
 BYTE   Fs2  v068
 BYTE   W12
 BYTE   Fs3  v092
 BYTE   W12
 BYTE   Fs2  v072
 BYTE   W12
// 165   ----------------------------------------
 BYTE   En3  v084
 BYTE   W12
 BYTE   En2  v072
 BYTE   W12
 BYTE   N12
 BYTE   W12
 BYTE   En3  v088
 BYTE   W12
 BYTE   En2  v076
 BYTE   W12
 BYTE   N12
 BYTE   W12
 BYTE   En3  v088
 BYTE   W12
 BYTE   En2  v068
 BYTE   W12
// 166   ----------------------------------------
 BYTE   En2  v076
 BYTE   W12
 BYTE   En3  v088
 BYTE   W12
 BYTE   En2  v068
 BYTE   W12
 BYTE   En2  v072
 BYTE   W12
 BYTE   En3  v092
 BYTE   W12
 BYTE   En2  v068
 BYTE   W12
 BYTE   En3  v088
 BYTE   W12
 BYTE   En2  v072
 BYTE   W12
// 167   ----------------------------------------
 BYTE   W12
 BYTE   GoTo
  POIN2 Label_2_01897A76
 BYTE   FINE

//**************** Track 4 (Midi-Chn.3) ****************//

PokemonTCG2GrandmasterDuelPandan_004:
// 000   ----------------------------------------
 BYTE   KEYSH   PokemonTCG2GrandmasterDuelPandan_key+0
Label_3_0189861A:
 BYTE   VOICE   121
 BYTE   PAN   c_v+0
 BYTE   VOL   29*PokemonTCG2GrandmasterDuelPandan_mvl/mxv
 BYTE   N12  Cs2  v068
 BYTE   W12
 BYTE   Fs1  v072
 BYTE   W12
 BYTE   Fs1  v076
 BYTE   W12
 BYTE   As1  v080
 BYTE   W12
 BYTE   Fs1  v076
 BYTE   W12
 BYTE   N12
 BYTE   W12
 BYTE   As1  v080
 BYTE   W12
 BYTE   Fs1  v072
 BYTE   W12
// 001   ----------------------------------------
 BYTE   Fs1  v076
 BYTE   W12
 BYTE   As1  v084
 BYTE   W12
 BYTE   Fs1  v072
 BYTE   W12
 BYTE   Fs1  v076
 BYTE   W12
 BYTE   Cs2  v084
 BYTE   W12
 BYTE   As1  v072
 BYTE   W12
 BYTE   Cs2  v080
 BYTE   W12
 BYTE   As1  v076
 BYTE   W12
// 002   ----------------------------------------
 BYTE   An2  v084
 BYTE   W12
 BYTE   Fs1  v072
 BYTE   W12
 BYTE   Fs1  v076
 BYTE   W12
 BYTE   As1  v084
 BYTE   W12
 BYTE   Fs1  v080
 BYTE   W12
 BYTE   Fs1  v072
 BYTE   W12
 BYTE   As1  v080
 BYTE   W12
 BYTE   Fs1  v076
 BYTE   W12
// 003   ----------------------------------------
 BYTE   Fs1  v080
 BYTE   W12
 BYTE   As1  v088
 BYTE   W12
 BYTE   Fs1  v072
 BYTE   W12
 BYTE   Fs1  v076
 BYTE   W12
 BYTE   Cs2  v084
 BYTE   W12
 BYTE   As1  v076
 BYTE   W12
 BYTE   Cs2  v080
 BYTE   W12
 BYTE   As1  v072
 BYTE   W12
// 004   ----------------------------------------
 BYTE   Dn1  v064
 BYTE   W12
 BYTE   Cn1  v060
 BYTE   W12
 BYTE   Cn1  v076
 BYTE   W12
 BYTE   Dn1  v088
 BYTE   W12
 BYTE   Cn1  v064
 BYTE   W12
 BYTE   Cn1  v076
 BYTE   W12
 BYTE   Dn1  v088
 BYTE   W12
 BYTE   Cn1  v064
 BYTE   W12
// 005   ----------------------------------------
 BYTE   Cn1  v076
 BYTE   W12
 BYTE   Dn1  v088
 BYTE   W12
 BYTE   Cn1  v072
 BYTE   W12
 BYTE   Cn1  v076
 BYTE   W12
 BYTE   Dn1  v088
 BYTE   W12
 BYTE   Bn0  v068
 BYTE   W12
 BYTE   Dn1  v088
 BYTE   W12
 BYTE   Bn0  v068
 BYTE   W12
// 006   ----------------------------------------
 BYTE   Dn1  v092
 BYTE   W12
 BYTE   Cn1  v064
 BYTE   W12
 BYTE   Cn1  v076
 BYTE   W12
 BYTE   Dn1  v092
 BYTE   W12
 BYTE   Cn1  v060
 BYTE   W12
 BYTE   Cn1  v080
 BYTE   W12
 BYTE   Dn1  v092
 BYTE   W12
 BYTE   Cn1  v064
 BYTE   W12
// 007   ----------------------------------------
 BYTE   Cn1  v076
 BYTE   W12
 BYTE   Dn1  v092
 BYTE   W12
 BYTE   Cn1  v068
 BYTE   W12
 BYTE   Cn1  v072
 BYTE   W12
 BYTE   Bn0  v080
 BYTE   W12
 BYTE   N06  Dn1  v088
 BYTE   W06
 BYTE   Dn1  v076
 BYTE   W06
 BYTE   N12  Dn1  v080
 BYTE   W12
 BYTE   Dn1  v072
 BYTE   W12
// 008   ----------------------------------------
 BYTE   Cs2  v100
 BYTE   W12
 BYTE   Cn1  v060
 BYTE   W12
 BYTE   Fs1  v100
 BYTE   W12
 BYTE   Cn1  v064
 BYTE   W12
 BYTE   Dn1  v088
 BYTE   W12
 BYTE   Cn1  v064
 BYTE   W12
 BYTE   Gn1  v084
 BYTE   W12
 BYTE   Cn1  v072
 BYTE   W12
// 009   ----------------------------------------
 BYTE   An1  v088
 BYTE   W12
 BYTE   Cn1  v068
 BYTE   W12
 BYTE   N24  As1  v100
 BYTE   W24
 BYTE   Dn1  v064
 BYTE   W24
 BYTE   N12  Dn1  v072
 BYTE   W12
 BYTE   Dn1  v076
 BYTE   W12
// 010   ----------------------------------------
 BYTE   Fs1  v092
 BYTE   W12
 BYTE   Cn1  v060
 BYTE   W12
 BYTE   Fs1  v092
 BYTE   W12
 BYTE   Cn1  v056
 BYTE   W12
 BYTE   Dn1  v088
 BYTE   W12
 BYTE   Cn1  v064
 BYTE   W12
 BYTE   Gn1  v084
 BYTE   W12
 BYTE   Cn1  v068
 BYTE   W12
// 011   ----------------------------------------
Label_3_01898729:
 BYTE   N12  An1  v088
 BYTE   W12
 BYTE   Cn1  v068
 BYTE   W12
 BYTE   N24  As1  v096
 BYTE   W24
 BYTE   Dn1  v064
 BYTE   W24
 BYTE   N12  Dn1  v072
 BYTE   W12
 BYTE   Dn1  v076
 BYTE   W12
 BYTE   PEND 
// 012   ----------------------------------------
 BYTE   Fs1  v092
 BYTE   W12
 BYTE   Cn1  v060
 BYTE   W12
 BYTE   Fs1  v092
 BYTE   W12
 BYTE   Cn1  v060
 BYTE   W12
 BYTE   Dn1  v088
 BYTE   W12
 BYTE   Cn1  v064
 BYTE   W12
 BYTE   Gn1  v084
 BYTE   W12
 BYTE   Cn1  v072
 BYTE   W12
// 013   ----------------------------------------
 BYTE   An1  v092
 BYTE   W12
 BYTE   Cn1  v064
 BYTE   W12
 BYTE   N24  As1  v100
 BYTE   W24
 BYTE   Dn1  v064
 BYTE   W24
 BYTE   N12  Dn1  v076
 BYTE   W12
 BYTE   N12
 BYTE   W12
// 014   ----------------------------------------
 BYTE   Fs1  v092
 BYTE   W12
 BYTE   Cn1  v064
 BYTE   W12
 BYTE   Fs1  v096
 BYTE   W12
 BYTE   Cn1  v060
 BYTE   W12
 BYTE   Dn1  v092
 BYTE   W12
 BYTE   Cn1  v072
 BYTE   W12
 BYTE   Gn1  v084
 BYTE   W12
 BYTE   Cn1  v072
 BYTE   W12
// 015   ----------------------------------------
 BYTE   An1  v088
 BYTE   W12
 BYTE   Cn1  v064
 BYTE   W12
 BYTE   N24  As1  v096
 BYTE   W24
 BYTE   N12  Dn1  v068
 BYTE   W12
 BYTE   As1  v096
 BYTE   W12
 BYTE   Dn1  v064
 BYTE   W12
 BYTE   N06  Dn1  v076
 BYTE   W06
 BYTE   N06
 BYTE   W06
// 016   ----------------------------------------
 BYTE   N12  Fs1  v092
 BYTE   W12
 BYTE   Cn1  v056
 BYTE   W12
 BYTE   Fs1  v096
 BYTE   W12
 BYTE   Cn1  v056
 BYTE   W12
 BYTE   Dn1  v092
 BYTE   W12
 BYTE   Cn1  v068
 BYTE   W12
 BYTE   Gn1  v080
 BYTE   W12
 BYTE   Cn1  v072
 BYTE   W12
// 017   ----------------------------------------
 BYTE   An1  v084
 BYTE   W12
 BYTE   Cn1  v064
 BYTE   W12
 BYTE   N24  As1  v096
 BYTE   W24
 BYTE   Dn1  v064
 BYTE   W24
 BYTE   N12  Dn1  v072
 BYTE   W12
 BYTE   Dn1  v076
 BYTE   W12
// 018   ----------------------------------------
 BYTE   Fs1  v084
 BYTE   W12
 BYTE   Cn1  v056
 BYTE   W12
 BYTE   Fs1  v096
 BYTE   W12
 BYTE   Cn1  v060
 BYTE   W12
 BYTE   Dn1  v084
 BYTE   W12
 BYTE   Cn1  v064
 BYTE   W12
 BYTE   Gn1  v084
 BYTE   W12
 BYTE   Cn1  v064
 BYTE   W12
// 019   ----------------------------------------
 BYTE   An1  v088
 BYTE   W12
 BYTE   Cn1  v068
 BYTE   W12
 BYTE   N24  As1  v096
 BYTE   W24
 BYTE   Dn1  v064
 BYTE   W24
 BYTE   N12  Dn1  v076
 BYTE   W12
 BYTE   N12
 BYTE   W12
// 020   ----------------------------------------
 BYTE   Fs1  v092
 BYTE   W12
 BYTE   Cn1  v060
 BYTE   W12
 BYTE   Fs1  v096
 BYTE   W12
 BYTE   Cn1  v060
 BYTE   W12
 BYTE   Dn1  v088
 BYTE   W12
 BYTE   Cn1  v060
 BYTE   W12
 BYTE   Gn1  v088
 BYTE   W12
 BYTE   Cn1  v068
 BYTE   W12
// 021   ----------------------------------------
 BYTE   An1  v088
 BYTE   W12
 BYTE   Cn1  v068
 BYTE   W12
 BYTE   N24  As1  v092
 BYTE   W24
 BYTE   Dn1  v064
 BYTE   W24
 BYTE   N12  Dn1  v076
 BYTE   W12
 BYTE   N12
 BYTE   W12
// 022   ----------------------------------------
 BYTE   Fs1  v096
 BYTE   W12
 BYTE   Cn1  v056
 BYTE   W12
 BYTE   Fs1  v096
 BYTE   W12
 BYTE   Cn1  v060
 BYTE   W12
 BYTE   Dn1  v092
 BYTE   W12
 BYTE   Cn1  v064
 BYTE   W12
 BYTE   Gn1  v080
 BYTE   W12
 BYTE   Cn1  v072
 BYTE   W12
// 023   ----------------------------------------
 BYTE   An1  v092
 BYTE   W12
 BYTE   Cn1  v068
 BYTE   W12
 BYTE   N24  As1  v096
 BYTE   W24
 BYTE   Dn1  v064
 BYTE   W24
 BYTE   N12  Dn1  v072
 BYTE   W12
 BYTE   Dn1  v076
 BYTE   W12
// 024   ----------------------------------------
 BYTE   Fs1  v092
 BYTE   W12
 BYTE   Cn1  v060
 BYTE   W12
 BYTE   Fs1  v100
 BYTE   W12
 BYTE   Cn1  v060
 BYTE   W12
 BYTE   Dn1  v084
 BYTE   W12
 BYTE   Cn1  v064
 BYTE   W12
 BYTE   Gn1  v088
 BYTE   W12
 BYTE   Cn1  v072
 BYTE   W12
// 025   ----------------------------------------
 BYTE   An1  v084
 BYTE   W12
 BYTE   Cn1  v068
 BYTE   W12
 BYTE   N24  As1  v096
 BYTE   W24
 BYTE   Dn1  v060
 BYTE   W24
 BYTE   N12  Dn1  v076
 BYTE   W12
 BYTE   Dn1  v080
 BYTE   W12
// 026   ----------------------------------------
 BYTE   Fs1  v088
 BYTE   W12
 BYTE   Cn1  v060
 BYTE   W12
 BYTE   Fs1  v096
 BYTE   W12
 BYTE   Cn1  v056
 BYTE   W12
 BYTE   Dn1  v088
 BYTE   W12
 BYTE   Cn1  v068
 BYTE   W12
 BYTE   Gn1  v088
 BYTE   W12
 BYTE   Cn1  v072
 BYTE   W12
// 027   ----------------------------------------
 BYTE   An1  v088
 BYTE   W12
 BYTE   Cn1  v064
 BYTE   W12
 BYTE   N24  As1  v096
 BYTE   W24
 BYTE   Dn1  v068
 BYTE   W24
 BYTE   N12  Dn1  v076
 BYTE   W12
 BYTE   Dn1  v084
 BYTE   W12
// 028   ----------------------------------------
Label_3_018988A3:
 BYTE   N12  Fs1  v092
 BYTE   W12
 BYTE   Cn1  v060
 BYTE   W12
 BYTE   Fs1  v100
 BYTE   W12
 BYTE   Cn1  v060
 BYTE   W12
 BYTE   Dn1  v092
 BYTE   W12
 BYTE   Cn1  v064
 BYTE   W12
 BYTE   Gn1  v084
 BYTE   W12
 BYTE   Cn1  v068
 BYTE   W12
 BYTE   PEND 
 BYTE   PATT
  POIN2 Label_3_01898729
 BYTE   PATT
  POIN2 Label_3_018988A3
// 029   ----------------------------------------
 BYTE   N12  An1  v088
 BYTE   W12
 BYTE   Cn1  v068
 BYTE   W12
 BYTE   N24  As1  v096
 BYTE   W24
 BYTE   N12  Dn1  v068
 BYTE   W12
 BYTE   Dn1  v080
 BYTE   W12
 BYTE   N12
 BYTE   W12
 BYTE   N06  Dn1  v076
 BYTE   W06
 BYTE   Dn1  v072
 BYTE   W06
// 030   ----------------------------------------
 BYTE   N12  Cs2  v100
 BYTE   W12
 BYTE   Cn1  v056
 BYTE   W12
 BYTE   Cn1  v076
 BYTE   W12
 BYTE   As1  v100
 BYTE   W12
 BYTE   Cn1  v060
 BYTE   W12
 BYTE   Cn1  v080
 BYTE   W12
 BYTE   Dn1  v092
 BYTE   W12
 BYTE   Cn1  v068
 BYTE   W12
// 031   ----------------------------------------
 BYTE   Cn1  v080
 BYTE   W12
 BYTE   As1  v096
 BYTE   W12
 BYTE   Cn1  v056
 BYTE   W12
 BYTE   Cn1  v072
 BYTE   W12
 BYTE   Dn1  v096
 BYTE   W12
 BYTE   As1
 BYTE   W12
 BYTE   Cn1  v064
 BYTE   W12
 BYTE   Cn1  v080
 BYTE   W12
// 032   ----------------------------------------
 BYTE   An2  v096
 BYTE   W12
 BYTE   Cn1  v060
 BYTE   W12
 BYTE   Cn1  v072
 BYTE   W12
 BYTE   As1  v100
 BYTE   W12
 BYTE   Cn1  v060
 BYTE   W12
 BYTE   Cn1  v076
 BYTE   W12
 BYTE   Dn1  v084
 BYTE   W12
 BYTE   Cn1  v068
 BYTE   W12
// 033   ----------------------------------------
 BYTE   Cn1  v076
 BYTE   W12
 BYTE   As1  v100
 BYTE   W12
 BYTE   Cn1  v064
 BYTE   W12
 BYTE   Cn1  v076
 BYTE   W12
 BYTE   Dn1  v096
 BYTE   W12
 BYTE   N06  Dn1  v080
 BYTE   W06
 BYTE   Dn1  v076
 BYTE   W06
 BYTE   Dn1  v080
 BYTE   W06
 BYTE   Dn1  v076
 BYTE   W06
 BYTE   Cn1  v080
 BYTE   N06  Dn1
 BYTE   W06
 BYTE   Cn1  v072
 BYTE   N06  Dn1
 BYTE   W06
// 034   ----------------------------------------
 BYTE   N12  An2  v100
 BYTE   W12
 BYTE   Cn1  v060
 BYTE   W12
 BYTE   Cn1  v076
 BYTE   W12
 BYTE   As1  v100
 BYTE   W12
 BYTE   Cn1  v060
 BYTE   W12
 BYTE   Cn1  v072
 BYTE   W12
 BYTE   Dn1  v092
 BYTE   W12
 BYTE   Cn1  v072
 BYTE   W12
// 035   ----------------------------------------
 BYTE   Cn1  v080
 BYTE   W12
 BYTE   As1  v096
 BYTE   W12
 BYTE   Cn1  v056
 BYTE   W12
 BYTE   Cn1  v072
 BYTE   W12
 BYTE   N06  Dn1  v092
 BYTE   W06
 BYTE   Fs1  v088
 BYTE   W06
 BYTE   An1  v064
 BYTE   W06
 BYTE   Fs1  v092
 BYTE   W06
 BYTE   Dn1  v068
 BYTE   W06
 BYTE   Fs1  v088
 BYTE   W06
 BYTE   Cn1  v068
 BYTE   N06  Gn1
 BYTE   W06
 BYTE   Fs1  v092
 BYTE   W06
// 036   ----------------------------------------
 BYTE   N12  Cs2  v088
 BYTE   W12
 BYTE   As1  v076
 BYTE   W12
 BYTE   Cn1  v060
 BYTE   W12
 BYTE   Dn1  v088
 BYTE   W12
 BYTE   Cn1  v072
 BYTE   W12
 BYTE   N12
 BYTE   W12
 BYTE   Dn1  v092
 BYTE   W12
 BYTE   Cn1  v068
 BYTE   W12
// 037   ----------------------------------------
 BYTE   Cn1  v072
 BYTE   W12
 BYTE   Dn1  v096
 BYTE   W12
 BYTE   As1
 BYTE   W12
 BYTE   Cn1  v060
 BYTE   W12
 BYTE   Dn1  v088
 BYTE   W12
 BYTE   As1  v100
 BYTE   W12
 BYTE   N06  Dn1  v064
 BYTE   W06
 BYTE   Dn1  v072
 BYTE   W06
 BYTE   Dn1  v080
 BYTE   W06
 BYTE   N06
 BYTE   W06
// 038   ----------------------------------------
 BYTE   N24  An2  v100
 BYTE   W24
 BYTE   N12  Fs1  v072
 BYTE   W12
 BYTE   Cn1  v056
 BYTE   W12
 BYTE   Dn1  v088
 BYTE   W12
 BYTE   Cn1  v068
 BYTE   W12
 BYTE   An1  v088
 BYTE   W12
 BYTE   Cn1  v068
 BYTE   W12
// 039   ----------------------------------------
 BYTE   An1  v092
 BYTE   W12
 BYTE   Cn1  v068
 BYTE   W12
 BYTE   N24  As1  v100
 BYTE   W24
 BYTE   Dn1  v060
 BYTE   W24
 BYTE   N12  Dn1  v076
 BYTE   W12
 BYTE   N12
 BYTE   W12
// 040   ----------------------------------------
 BYTE   Fs1  v092
 BYTE   W12
 BYTE   Cn1  v056
 BYTE   W12
 BYTE   Fs1  v100
 BYTE   W12
 BYTE   Cn1  v060
 BYTE   W12
 BYTE   Dn1  v088
 BYTE   W12
 BYTE   Cn1  v068
 BYTE   W12
 BYTE   An1  v088
 BYTE   W12
 BYTE   Cn1  v068
 BYTE   W12
// 041   ----------------------------------------
 BYTE   An1  v088
 BYTE   W12
 BYTE   Cn1  v072
 BYTE   W12
 BYTE   N24  As1  v096
 BYTE   W24
 BYTE   N12  Dn1  v064
 BYTE   W12
 BYTE   As1  v092
 BYTE   W12
 BYTE   Dn1  v064
 BYTE   W12
 BYTE   N06  Dn1  v076
 BYTE   W06
 BYTE   Dn1  v080
 BYTE   W06
// 042   ----------------------------------------
 BYTE   N12  Fs1  v088
 BYTE   W12
 BYTE   Cn1  v056
 BYTE   W12
 BYTE   Fs1  v100
 BYTE   W12
 BYTE   Cn1  v056
 BYTE   W12
 BYTE   Dn1  v088
 BYTE   W12
 BYTE   Cn1  v064
 BYTE   W12
 BYTE   An1  v084
 BYTE   W12
 BYTE   Cn1  v064
 BYTE   W12
// 043   ----------------------------------------
 BYTE   An1  v092
 BYTE   W12
 BYTE   Cn1  v068
 BYTE   W12
 BYTE   N24  As1  v100
 BYTE   W24
 BYTE   Dn1  v064
 BYTE   W24
 BYTE   N12  As1  v096
 BYTE   W12
 BYTE   N06  Fs1  v076
 BYTE   W06
 BYTE   N06
 BYTE   W06
// 044   ----------------------------------------
 BYTE   N12  Fs1  v072
 BYTE   W12
 BYTE   Cn1  v056
 BYTE   W12
 BYTE   Fs1  v092
 BYTE   W12
 BYTE   Cn1  v056
 BYTE   W12
 BYTE   Dn1  v088
 BYTE   W12
 BYTE   Cn1  v064
 BYTE   W12
 BYTE   An1  v084
 BYTE   W12
 BYTE   Cn1  v064
 BYTE   W12
// 045   ----------------------------------------
 BYTE   An1  v088
 BYTE   W12
 BYTE   Cn1  v072
 BYTE   W12
 BYTE   N24  As1  v100
 BYTE   W24
 BYTE   Dn1  v064
 BYTE   W24
 BYTE   N12  Dn1  v076
 BYTE   W12
 BYTE   N06  Cn1  v064
 BYTE   W06
 BYTE   Cn1  v076
 BYTE   W06
// 046   ----------------------------------------
 BYTE   N24  An2  v100
 BYTE   W24
 BYTE   N12  Fs1  v072
 BYTE   W12
 BYTE   Cn1  v056
 BYTE   W12
 BYTE   Dn1  v092
 BYTE   W12
 BYTE   Cn1  v060
 BYTE   W12
 BYTE   An1  v092
 BYTE   W12
 BYTE   Cn1  v068
 BYTE   W12
// 047   ----------------------------------------
 BYTE   An1  v088
 BYTE   W12
 BYTE   Cn1  v068
 BYTE   W12
 BYTE   N24  As1  v100
 BYTE   W24
 BYTE   Dn1  v064
 BYTE   W24
 BYTE   N12  Dn1  v072
 BYTE   W12
 BYTE   Dn1  v080
 BYTE   W12
// 048   ----------------------------------------
 BYTE   Fs1  v096
 BYTE   W12
 BYTE   Cn1  v056
 BYTE   W12
 BYTE   Fs1  v096
 BYTE   W12
 BYTE   Cn1  v056
 BYTE   W12
 BYTE   Dn1  v088
 BYTE   W12
 BYTE   Cn1  v064
 BYTE   W12
 BYTE   An1  v088
 BYTE   W12
 BYTE   Cn1  v060
 BYTE   W12
// 049   ----------------------------------------
 BYTE   An1  v088
 BYTE   W12
 BYTE   Cn1  v068
 BYTE   W12
 BYTE   N24  As1  v096
 BYTE   W24
 BYTE   N12  Dn1  v064
 BYTE   W12
 BYTE   As1  v092
 BYTE   W12
 BYTE   Dn1  v068
 BYTE   W12
 BYTE   N06  Dn1  v076
 BYTE   W06
 BYTE   N06
 BYTE   W06
// 050   ----------------------------------------
 BYTE   N12  Fs1  v096
 BYTE   W12
 BYTE   Cn1  v056
 BYTE   W12
 BYTE   Fs1  v100
 BYTE   W12
 BYTE   Cn1  v056
 BYTE   W12
 BYTE   Dn1  v084
 BYTE   W12
 BYTE   Cn1  v064
 BYTE   W12
 BYTE   An1  v088
 BYTE   W12
 BYTE   Cn1  v064
 BYTE   W12
// 051   ----------------------------------------
 BYTE   An1  v088
 BYTE   W12
 BYTE   Cn1  v068
 BYTE   W12
 BYTE   N24  As1  v096
 BYTE   W24
 BYTE   Dn1  v064
 BYTE   W24
 BYTE   N12  As1  v088
 BYTE   W12
 BYTE   N06  Fs1  v076
 BYTE   W06
 BYTE   Fs1  v080
 BYTE   W06
// 052   ----------------------------------------
 BYTE   N12
 BYTE   W12
 BYTE   Cn1  v064
 BYTE   W12
 BYTE   Fs1  v096
 BYTE   W12
 BYTE   Cn1  v060
 BYTE   W12
 BYTE   Dn1  v088
 BYTE   W12
 BYTE   Cn1  v072
 BYTE   W12
 BYTE   An1  v088
 BYTE   W12
 BYTE   Cn1  v068
 BYTE   W12
// 053   ----------------------------------------
 BYTE   An1  v084
 BYTE   W12
 BYTE   Cn1  v068
 BYTE   W12
 BYTE   N24  As1  v096
 BYTE   W24
 BYTE   N12  Dn1  v064
 BYTE   W12
 BYTE   N06  Dn1  v076
 BYTE   W06
 BYTE   N06
 BYTE   W06
 BYTE   N06
 BYTE   W06
 BYTE   Dn1  v080
 BYTE   W06
 BYTE   N06
 BYTE   W06
 BYTE   Dn1  v072
 BYTE   W06
// 054   ----------------------------------------
 BYTE   N12  An2  v096
 BYTE   W12
 BYTE   Cn1  v060
 BYTE   W12
 BYTE   Dn1  v092
 BYTE   W12
 BYTE   Cn1  v064
 BYTE   W12
 BYTE   Cs2  v096
 BYTE   W12
 BYTE   Bn0  v064
 BYTE   W12
 BYTE   Cn1  v076
 BYTE   W12
 BYTE   Cn1  v072
 BYTE   W12
// 055   ----------------------------------------
 BYTE   Dn1  v092
 BYTE   W12
 BYTE   Cn1  v064
 BYTE   W12
 BYTE   An2  v096
 BYTE   W12
 BYTE   Bn0  v060
 BYTE   W12
 BYTE   Cn1  v084
 BYTE   W12
 BYTE   Cn1  v080
 BYTE   W12
 BYTE   Dn1  v092
 BYTE   W12
 BYTE   Cn1  v068
 BYTE   W12
// 056   ----------------------------------------
 BYTE   Cs2  v096
 BYTE   W12
 BYTE   Bn0  v060
 BYTE   W12
 BYTE   Cn1  v076
 BYTE   W12
 BYTE   N12
 BYTE   W12
 BYTE   Dn1  v096
 BYTE   W12
 BYTE   Cn1  v068
 BYTE   W12
 BYTE   An2  v096
 BYTE   W12
 BYTE   Cn1  v060
 BYTE   W12
// 057   ----------------------------------------
 BYTE   Cs2  v096
 BYTE   W12
 BYTE   Cn1  v064
 BYTE   W12
 BYTE   Cn1  v076
 BYTE   W12
 BYTE   Cn1  v080
 BYTE   W12
 BYTE   Dn1  v092
 BYTE   W12
 BYTE   Cn1  v068
 BYTE   W12
 BYTE   Cs2  v096
 BYTE   W12
 BYTE   Bn0  v056
 BYTE   W12
// 058   ----------------------------------------
 BYTE   Cn1  v076
 BYTE   W12
 BYTE   Cn1  v080
 BYTE   W12
 BYTE   Dn1  v092
 BYTE   W12
 BYTE   Cn1  v064
 BYTE   W12
 BYTE   An2  v096
 BYTE   W12
 BYTE   Bn0  v060
 BYTE   W12
 BYTE   Cn1  v084
 BYTE   W12
 BYTE   Cn1  v080
 BYTE   W12
// 059   ----------------------------------------
 BYTE   Dn1  v092
 BYTE   W12
 BYTE   Cn1  v068
 BYTE   W12
 BYTE   Cs2  v092
 BYTE   W12
 BYTE   Bn0  v064
 BYTE   W12
 BYTE   Cn1  v080
 BYTE   W12
 BYTE   Cn1  v076
 BYTE   W12
 BYTE   Dn1  v092
 BYTE   W12
 BYTE   Cn1  v060
 BYTE   W12
// 060   ----------------------------------------
 BYTE   An2  v096
 BYTE   W12
 BYTE   Cn1  v064
 BYTE   W12
 BYTE   Cs2  v092
 BYTE   W12
 BYTE   Cn1  v060
 BYTE   W12
 BYTE   Cn1  v076
 BYTE   W12
 BYTE   N12
 BYTE   W12
 BYTE   Dn1  v092
 BYTE   W12
 BYTE   Cn1  v064
 BYTE   W12
// 061   ----------------------------------------
 BYTE   Cs2  v096
 BYTE   W12
 BYTE   Bn0  v060
 BYTE   W12
 BYTE   Cn1  v080
 BYTE   W12
 BYTE   Cn1  v076
 BYTE   W12
 BYTE   Dn1  v092
 BYTE   W12
 BYTE   Cn1  v064
 BYTE   W12
 BYTE   An2  v096
 BYTE   W12
 BYTE   Bn0  v064
 BYTE   W12
// 062   ----------------------------------------
 BYTE   Cn1  v080
 BYTE   W12
 BYTE   Cn1  v076
 BYTE   W12
 BYTE   Dn1  v092
 BYTE   W12
 BYTE   Cn1  v064
 BYTE   W12
 BYTE   Cs2  v092
 BYTE   W12
 BYTE   Bn0  v060
 BYTE   W12
 BYTE   Cn1  v080
 BYTE   W12
 BYTE   Cn1  v076
 BYTE   W12
// 063   ----------------------------------------
 BYTE   Dn1  v088
 BYTE   W12
 BYTE   Cn1  v068
 BYTE   W12
 BYTE   An2  v088
 BYTE   W12
 BYTE   Cn1  v064
 BYTE   W12
 BYTE   Cs2  v096
 BYTE   W12
 BYTE   Cn1  v060
 BYTE   W12
 BYTE   Cn1  v076
 BYTE   W12
 BYTE   N12
 BYTE   W12
// 064   ----------------------------------------
 BYTE   Dn1  v092
 BYTE   W12
 BYTE   Cn1  v068
 BYTE   W12
 BYTE   Cs2  v096
 BYTE   W12
 BYTE   Bn0  v056
 BYTE   W12
 BYTE   Cn1  v076
 BYTE   W12
 BYTE   N12
 BYTE   W12
 BYTE   Dn1  v088
 BYTE   W12
 BYTE   Cn1  v068
 BYTE   W12
// 065   ----------------------------------------
 BYTE   An2  v096
 BYTE   W12
 BYTE   Bn0  v056
 BYTE   W12
 BYTE   Cn1  v080
 BYTE   W12
 BYTE   Cn1  v072
 BYTE   W12
 BYTE   Dn1  v092
 BYTE   W12
 BYTE   Cn1  v072
 BYTE   W12
 BYTE   Cs2  v096
 BYTE   W12
 BYTE   Bn0  v060
 BYTE   W12
// 066   ----------------------------------------
 BYTE   Cn1  v076
 BYTE   W12
 BYTE   N12
 BYTE   W12
 BYTE   Dn1  v092
 BYTE   W12
 BYTE   Cn1  v064
 BYTE   W12
 BYTE   An2  v096
 BYTE   W12
 BYTE   Cn1  v060
 BYTE   W12
 BYTE   Cs2  v096
 BYTE   W12
 BYTE   Cn1  v060
 BYTE   W12
// 067   ----------------------------------------
 BYTE   N96  An2  v100
 BYTE   W96
// 068   ----------------------------------------
 BYTE   W48
 BYTE   N06  Dn1  v072
 BYTE   W06
 BYTE   Dn1  v076
 BYTE   W06
 BYTE   Dn1  v080
 BYTE   W06
 BYTE   N06
 BYTE   W06
 BYTE   Dn1  v076
 BYTE   W06
 BYTE   N06
 BYTE   W06
 BYTE   Dn1  v080
 BYTE   W06
 BYTE   Dn1  v076
 BYTE   W06
// 069   ----------------------------------------
 BYTE   N12  Cs2  v096
 BYTE   W12
 BYTE   N06  Dn1  v060
 BYTE   W06
 BYTE   Dn1  v076
 BYTE   W06
 BYTE   N06
 BYTE   W06
 BYTE   Cn1  v060
 BYTE   W06
 BYTE   As1  v096
 BYTE   W06
 BYTE   Fs1  v080
 BYTE   W06
 BYTE   Fs1  v076
 BYTE   W06
 BYTE   Cn1  v056
 BYTE   W06
 BYTE   As1  v096
 BYTE   W06
 BYTE   Cn1  v060
 BYTE   W06
 BYTE   Dn1  v092
 BYTE   W06
 BYTE   Cn1  v068
 BYTE   W06
 BYTE   Fs1  v096
 BYTE   W06
 BYTE   Cn1  v060
 BYTE   W06
// 070   ----------------------------------------
 BYTE   N12  Dn1  v092
 BYTE   W12
 BYTE   N06  Dn1  v080
 BYTE   W06
 BYTE   N06
 BYTE   W06
 BYTE   N06
 BYTE   W06
 BYTE   Cn1  v060
 BYTE   W06
 BYTE   As1  v096
 BYTE   W06
 BYTE   Fs1  v076
 BYTE   W06
 BYTE   N06
 BYTE   W06
 BYTE   Cn1  v060
 BYTE   W06
 BYTE   As1  v092
 BYTE   W06
 BYTE   Cn1  v064
 BYTE   W06
 BYTE   Dn1  v084
 BYTE   W06
 BYTE   Cn1  v064
 BYTE   W06
 BYTE   Fs1  v096
 BYTE   W06
 BYTE   Cn1  v060
 BYTE   W06
// 071   ----------------------------------------
 BYTE   N12  Dn1  v088
 BYTE   W12
 BYTE   N06  Dn1  v076
 BYTE   W06
 BYTE   Dn1  v072
 BYTE   W06
 BYTE   Dn1  v076
 BYTE   W06
 BYTE   Cn1  v068
 BYTE   W06
 BYTE   As1  v096
 BYTE   W06
 BYTE   Fs1  v072
 BYTE   W06
 BYTE   Fs1  v080
 BYTE   W06
 BYTE   Cn1  v060
 BYTE   W06
 BYTE   As1  v096
 BYTE   W06
 BYTE   Cn1  v064
 BYTE   W06
 BYTE   Dn1  v084
 BYTE   W06
 BYTE   Cn1  v064
 BYTE   W06
 BYTE   Fs1  v100
 BYTE   W06
 BYTE   Cn1  v060
 BYTE   W06
// 072   ----------------------------------------
 BYTE   N12  Dn1  v092
 BYTE   W12
 BYTE   N06  Dn1  v084
 BYTE   W06
 BYTE   Dn1  v076
 BYTE   W06
 BYTE   Dn1  v084
 BYTE   W06
 BYTE   Cn1  v068
 BYTE   W06
 BYTE   As1  v096
 BYTE   W06
 BYTE   Fs1  v076
 BYTE   W06
 BYTE   Fs1  v072
 BYTE   W06
 BYTE   Cn1  v056
 BYTE   W06
 BYTE   As1  v092
 BYTE   W06
 BYTE   Cn1  v060
 BYTE   W06
 BYTE   Dn1  v088
 BYTE   W06
 BYTE   Cn1  v064
 BYTE   W06
 BYTE   Fs1  v096
 BYTE   W06
 BYTE   Cn1  v056
 BYTE   W06
// 073   ----------------------------------------
 BYTE   N12  Cs2  v096
 BYTE   W12
 BYTE   N06  Dn1  v060
 BYTE   W06
 BYTE   Dn1  v080
 BYTE   W06
 BYTE   Dn1  v076
 BYTE   W06
 BYTE   Cn1  v064
 BYTE   W06
 BYTE   As1  v092
 BYTE   W06
 BYTE   Fs1  v072
 BYTE   W06
 BYTE   Fs1  v076
 BYTE   W06
 BYTE   Cn1  v056
 BYTE   W06
 BYTE   As1  v092
 BYTE   W06
 BYTE   Cn1  v060
 BYTE   W06
 BYTE   Dn1  v088
 BYTE   W06
 BYTE   Cn1  v064
 BYTE   W06
 BYTE   Fs1  v100
 BYTE   W06
 BYTE   Cn1  v060
 BYTE   W06
// 074   ----------------------------------------
 BYTE   N12  Dn1  v084
 BYTE   W12
 BYTE   N06  Dn1  v076
 BYTE   W06
 BYTE   N06
 BYTE   W06
 BYTE   Dn1  v084
 BYTE   W06
 BYTE   Cn1  v060
 BYTE   W06
 BYTE   As1  v092
 BYTE   W06
 BYTE   Fs1  v080
 BYTE   W06
 BYTE   Fs1  v076
 BYTE   W06
 BYTE   Cn1  v052
 BYTE   W06
 BYTE   As1  v096
 BYTE   W06
 BYTE   Cn1  v060
 BYTE   W06
 BYTE   Dn1  v096
 BYTE   W06
 BYTE   Cn1  v068
 BYTE   W06
 BYTE   Fs1  v100
 BYTE   W06
 BYTE   Cn1  v064
 BYTE   W06
// 075   ----------------------------------------
 BYTE   N12  Dn1  v088
 BYTE   W12
 BYTE   N06  Dn1  v080
 BYTE   W06
 BYTE   Dn1  v072
 BYTE   W06
 BYTE   Dn1  v076
 BYTE   W06
 BYTE   Cn1  v064
 BYTE   W06
 BYTE   As1  v100
 BYTE   W06
 BYTE   Fs1  v076
 BYTE   W06
 BYTE   Fs1  v080
 BYTE   W06
 BYTE   Cn1  v060
 BYTE   W06
 BYTE   As1  v092
 BYTE   W06
 BYTE   Cn1  v064
 BYTE   W06
 BYTE   Dn1  v092
 BYTE   W06
 BYTE   Cn1  v064
 BYTE   W06
 BYTE   Fs1  v100
 BYTE   W06
 BYTE   Cn1  v060
 BYTE   W06
// 076   ----------------------------------------
 BYTE   N12  Dn1  v092
 BYTE   W12
 BYTE   N06  Dn1  v080
 BYTE   W06
 BYTE   N06
 BYTE   W06
 BYTE   N06
 BYTE   W06
 BYTE   Cn1  v068
 BYTE   W06
 BYTE   As1  v096
 BYTE   W06
 BYTE   Fs1  v080
 BYTE   W06
 BYTE   Fs1  v076
 BYTE   W06
 BYTE   Cn1  v056
 BYTE   W06
 BYTE   As1  v092
 BYTE   W06
 BYTE   Cn1  v060
 BYTE   W06
 BYTE   Dn1  v092
 BYTE   W06
 BYTE   Cn1  v068
 BYTE   W06
 BYTE   Fs1  v096
 BYTE   W06
 BYTE   Cn1  v060
 BYTE   W06
// 077   ----------------------------------------
 BYTE   N12  Cs2  v096
 BYTE   W12
 BYTE   N06  Dn1  v064
 BYTE   W06
 BYTE   Dn1  v072
 BYTE   W06
 BYTE   Dn1  v076
 BYTE   W06
 BYTE   Cn1  v064
 BYTE   W06
 BYTE   As1  v100
 BYTE   W06
 BYTE   Fs1  v072
 BYTE   W06
 BYTE   Fs1  v076
 BYTE   W06
 BYTE   Cn1  v056
 BYTE   W06
 BYTE   As1  v096
 BYTE   W06
 BYTE   Cn1  v056
 BYTE   W06
 BYTE   Dn1  v088
 BYTE   W06
 BYTE   Cn1  v064
 BYTE   W06
 BYTE   Fs1  v096
 BYTE   W06
 BYTE   Cn1  v064
 BYTE   W06
// 078   ----------------------------------------
 BYTE   N12  Dn1  v088
 BYTE   W12
 BYTE   N06  Dn1  v076
 BYTE   W06
 BYTE   Dn1  v080
 BYTE   W06
 BYTE   N06
 BYTE   W06
 BYTE   Cn1  v064
 BYTE   W06
 BYTE   As1  v100
 BYTE   W06
 BYTE   Fs1  v076
 BYTE   W06
 BYTE   N06
 BYTE   W06
 BYTE   Cn1  v056
 BYTE   W06
 BYTE   As1  v100
 BYTE   W06
 BYTE   Cn1  v064
 BYTE   W06
 BYTE   Dn1  v088
 BYTE   W06
 BYTE   Cn1  v064
 BYTE   W06
 BYTE   Fs1  v096
 BYTE   W06
 BYTE   Cn1  v064
 BYTE   W06
// 079   ----------------------------------------
 BYTE   N12  Dn1  v088
 BYTE   W12
 BYTE   N06  Dn1  v076
 BYTE   W06
 BYTE   Dn1  v080
 BYTE   W06
 BYTE   Dn1  v076
 BYTE   W06
 BYTE   Cn1  v064
 BYTE   W06
 BYTE   As1  v096
 BYTE   W06
 BYTE   Fs1  v076
 BYTE   W06
 BYTE   Fs1  v080
 BYTE   W06
 BYTE   Cn1  v060
 BYTE   W06
 BYTE   As1  v092
 BYTE   W06
 BYTE   Cn1  v056
 BYTE   W06
 BYTE   Dn1  v088
 BYTE   W06
 BYTE   Cn1  v068
 BYTE   W06
 BYTE   Fs1  v096
 BYTE   W06
 BYTE   Cn1  v064
 BYTE   W06
// 080   ----------------------------------------
 BYTE   N12  Dn1  v088
 BYTE   W12
 BYTE   N06  Dn1  v076
 BYTE   W06
 BYTE   Dn1  v080
 BYTE   W06
 BYTE   Dn1  v076
 BYTE   W06
 BYTE   Cn1  v060
 BYTE   W06
 BYTE   As1  v100
 BYTE   W06
 BYTE   Fs1  v076
 BYTE   W06
 BYTE   Fs1  v080
 BYTE   W06
 BYTE   Cn1  v060
 BYTE   W06
 BYTE   As1  v092
 BYTE   W06
 BYTE   Cn1  v060
 BYTE   W06
 BYTE   Dn1  v088
 BYTE   W06
 BYTE   Cn1  v064
 BYTE   W06
 BYTE   Fs1  v100
 BYTE   W06
 BYTE   Cn1  v064
 BYTE   W06
// 081   ----------------------------------------
 BYTE   N12  Cs2  v100
 BYTE   W12
 BYTE   N06  Dn1  v060
 BYTE   W06
 BYTE   Dn1  v072
 BYTE   W06
 BYTE   Dn1  v076
 BYTE   W06
 BYTE   Cn1  v060
 BYTE   W06
 BYTE   As1  v096
 BYTE   W06
 BYTE   Fs1  v076
 BYTE   W06
 BYTE   N06
 BYTE   W06
 BYTE   Cn1  v060
 BYTE   W06
 BYTE   As1  v096
 BYTE   W06
 BYTE   Cn1  v056
 BYTE   W06
 BYTE   Dn1  v092
 BYTE   W06
 BYTE   Cn1  v068
 BYTE   W06
 BYTE   Fs1  v096
 BYTE   W06
 BYTE   Cn1  v060
 BYTE   W06
// 082   ----------------------------------------
 BYTE   N12  Dn1  v084
 BYTE   W12
 BYTE   N06  Dn1  v080
 BYTE   W06
 BYTE   Dn1  v076
 BYTE   W06
 BYTE   Dn1  v080
 BYTE   W06
 BYTE   Cn1  v064
 BYTE   W06
 BYTE   As1  v092
 BYTE   W06
 BYTE   Fs1  v072
 BYTE   W06
 BYTE   Fs1  v080
 BYTE   W06
 BYTE   Cn1  v052
 BYTE   W06
 BYTE   As1  v088
 BYTE   W06
 BYTE   Cn1  v064
 BYTE   W06
 BYTE   Dn1  v084
 BYTE   W06
 BYTE   Cn1  v064
 BYTE   W06
 BYTE   Fs1  v092
 BYTE   W06
 BYTE   Cn1  v056
 BYTE   W06
// 083   ----------------------------------------
 BYTE   N12  Dn1  v084
 BYTE   W12
 BYTE   N06  Dn1  v076
 BYTE   W06
 BYTE   Dn1  v080
 BYTE   W06
 BYTE   Dn1  v076
 BYTE   W06
 BYTE   Cn1  v064
 BYTE   W06
 BYTE   As1  v100
 BYTE   W06
 BYTE   Fs1  v076
 BYTE   W06
 BYTE   N06
 BYTE   W06
 BYTE   Cn1  v060
 BYTE   W06
 BYTE   As1  v096
 BYTE   W06
 BYTE   Cn1  v060
 BYTE   W06
 BYTE   Dn1  v084
 BYTE   W06
 BYTE   Cn1  v064
 BYTE   W06
 BYTE   Fs1  v092
 BYTE   W06
 BYTE   Cn1  v064
 BYTE   W06
// 084   ----------------------------------------
 BYTE   N12  Dn1  v088
 BYTE   W12
 BYTE   N06  Dn1  v076
 BYTE   W06
 BYTE   Dn1  v080
 BYTE   W06
 BYTE   Dn1  v076
 BYTE   W06
 BYTE   Cn1  v064
 BYTE   W06
 BYTE   As1  v096
 BYTE   W06
 BYTE   Fs1  v076
 BYTE   W06
 BYTE   Fs1  v080
 BYTE   W06
 BYTE   Cn1  v056
 BYTE   W06
 BYTE   As1  v092
 BYTE   W06
 BYTE   Cn1  v060
 BYTE   W06
 BYTE   Dn1  v084
 BYTE   W06
 BYTE   Cn1  v064
 BYTE   W06
 BYTE   Fs1  v096
 BYTE   W06
 BYTE   Cn1  v056
 BYTE   W06
// 085   ----------------------------------------
 BYTE   N12  Cs2  v092
 BYTE   W12
 BYTE   N06  Dn1  v060
 BYTE   W06
 BYTE   Dn1  v076
 BYTE   W06
 BYTE   Dn1  v080
 BYTE   W06
 BYTE   Cn1  v068
 BYTE   W06
 BYTE   As1  v092
 BYTE   W06
 BYTE   Fs1  v076
 BYTE   W06
 BYTE   Fs1  v080
 BYTE   W06
 BYTE   Cn1  v056
 BYTE   W06
 BYTE   As1  v096
 BYTE   W06
 BYTE   Cn1  v060
 BYTE   W06
 BYTE   Dn1  v084
 BYTE   W06
 BYTE   Cn1  v064
 BYTE   W06
 BYTE   Fs1  v096
 BYTE   W06
 BYTE   Cn1  v060
 BYTE   W06
// 086   ----------------------------------------
 BYTE   N12  Dn1  v092
 BYTE   W12
 BYTE   N06  Dn1  v084
 BYTE   W06
 BYTE   Dn1  v076
 BYTE   W06
 BYTE   Dn1  v080
 BYTE   W06
 BYTE   Cn1  v064
 BYTE   W06
 BYTE   As1  v096
 BYTE   W06
 BYTE   Fs1  v072
 BYTE   W06
 BYTE   Fs1  v076
 BYTE   W06
 BYTE   Cn1  v060
 BYTE   W06
 BYTE   As1  v096
 BYTE   W06
 BYTE   Cn1  v056
 BYTE   W06
 BYTE   Dn1  v088
 BYTE   W06
 BYTE   Cn1  v060
 BYTE   W06
 BYTE   Fs1  v096
 BYTE   W06
 BYTE   Cn1  v060
 BYTE   W06
// 087   ----------------------------------------
 BYTE   N12  Dn1  v088
 BYTE   W12
 BYTE   N06  Dn1  v080
 BYTE   W06
 BYTE   N06
 BYTE   W06
 BYTE   N06
 BYTE   W06
 BYTE   Cn1  v064
 BYTE   W06
 BYTE   As1  v092
 BYTE   W06
 BYTE   Fs1  v080
 BYTE   W06
 BYTE   Fs1  v084
 BYTE   W06
 BYTE   Cn1  v060
 BYTE   W06
 BYTE   As1  v100
 BYTE   W06
 BYTE   Cn1  v056
 BYTE   W06
 BYTE   Dn1  v088
 BYTE   W06
 BYTE   Cn1  v064
 BYTE   W06
 BYTE   Fs1  v096
 BYTE   W06
 BYTE   Cn1  v056
 BYTE   W06
// 088   ----------------------------------------
 BYTE   N12  Dn1  v084
 BYTE   W12
 BYTE   N06  Dn1  v076
 BYTE   W06
 BYTE   Dn1  v080
 BYTE   W06
 BYTE   Dn1  v076
 BYTE   W06
 BYTE   Cn1  v060
 BYTE   W06
 BYTE   As1  v096
 BYTE   W06
 BYTE   Fs1  v080
 BYTE   W06
 BYTE   N06
 BYTE   W06
 BYTE   Cn1  v056
 BYTE   W06
 BYTE   As1  v088
 BYTE   W06
 BYTE   Cn1  v060
 BYTE   W06
 BYTE   Dn1  v092
 BYTE   W06
 BYTE   Cn1  v068
 BYTE   W06
 BYTE   Fs1  v096
 BYTE   W06
 BYTE   Cn1  v060
 BYTE   W06
// 089   ----------------------------------------
 BYTE   N12  Cs2  v096
 BYTE   W12
 BYTE   N06  Dn1  v060
 BYTE   W06
 BYTE   Dn1  v072
 BYTE   W06
 BYTE   Dn1  v076
 BYTE   W06
 BYTE   Cn1  v060
 BYTE   W06
 BYTE   As1  v096
 BYTE   W06
 BYTE   Fs1  v072
 BYTE   W06
 BYTE   Fs1  v076
 BYTE   W06
 BYTE   Cn1  v056
 BYTE   W06
 BYTE   As1  v096
 BYTE   W06
 BYTE   Cn1  v056
 BYTE   W06
 BYTE   Dn1  v092
 BYTE   W06
 BYTE   Cn1  v068
 BYTE   W06
 BYTE   Fs1  v100
 BYTE   W06
 BYTE   Cn1  v060
 BYTE   W06
// 090   ----------------------------------------
 BYTE   N12  Dn1  v084
 BYTE   W12
 BYTE   N06  Dn1  v080
 BYTE   W06
 BYTE   Dn1  v076
 BYTE   W06
 BYTE   N06
 BYTE   W06
 BYTE   Cn1  v068
 BYTE   W06
 BYTE   As1  v092
 BYTE   W06
 BYTE   Fs1  v080
 BYTE   W06
 BYTE   Fs1  v076
 BYTE   W06
 BYTE   Cn1  v060
 BYTE   W06
 BYTE   As1  v096
 BYTE   W06
 BYTE   Cn1  v060
 BYTE   W06
 BYTE   Dn1  v092
 BYTE   W06
 BYTE   Cn1  v064
 BYTE   W06
 BYTE   Fs1  v096
 BYTE   W06
 BYTE   Cn1  v060
 BYTE   W06
// 091   ----------------------------------------
 BYTE   N12  Dn1  v092
 BYTE   W12
 BYTE   N06  Dn1  v080
 BYTE   W06
 BYTE   N06
 BYTE   W06
 BYTE   N06
 BYTE   W06
 BYTE   Cn1  v060
 BYTE   W06
 BYTE   As1  v096
 BYTE   W06
 BYTE   Fs1  v080
 BYTE   W06
 BYTE   Fs1  v076
 BYTE   W06
 BYTE   Cn1  v056
 BYTE   W06
 BYTE   As1  v096
 BYTE   W06
 BYTE   Cn1  v064
 BYTE   W06
 BYTE   Dn1  v088
 BYTE   W06
 BYTE   Cn1  v064
 BYTE   W06
 BYTE   Fs1  v100
 BYTE   W06
 BYTE   Cn1  v060
 BYTE   W06
// 092   ----------------------------------------
 BYTE   N12  Dn1  v088
 BYTE   W12
 BYTE   N06  Dn1  v080
 BYTE   W06
 BYTE   N06
 BYTE   W06
 BYTE   Dn1  v076
 BYTE   W06
 BYTE   Cn1  v064
 BYTE   W06
 BYTE   As1  v096
 BYTE   W06
 BYTE   Fs1  v076
 BYTE   W06
 BYTE   Fs1  v080
 BYTE   W06
 BYTE   Cn1  v056
 BYTE   W06
 BYTE   As1  v096
 BYTE   W06
 BYTE   Cn1  v056
 BYTE   W06
 BYTE   Dn1  v088
 BYTE   W06
 BYTE   Cn1  v064
 BYTE   W06
 BYTE   Fs1  v096
 BYTE   W06
 BYTE   Cn1  v056
 BYTE   W06
// 093   ----------------------------------------
 BYTE   N12  An2  v100
 BYTE   W12
 BYTE   Dn1  v064
 BYTE   W12
 BYTE   Dn1  v072
 BYTE   W12
 BYTE   Cs2  v096
 BYTE   W12
 BYTE   Dn1  v056
 BYTE   W12
 BYTE   Dn1  v072
 BYTE   W12
 BYTE   An2  v100
 BYTE   W12
 BYTE   Dn1  v056
 BYTE   W12
// 094   ----------------------------------------
 BYTE   Dn1  v072
 BYTE   W12
 BYTE   Cs2  v100
 BYTE   W12
 BYTE   Dn1  v064
 BYTE   W12
 BYTE   Dn1  v076
 BYTE   W12
 BYTE   An2  v100
 BYTE   W12
 BYTE   Dn1  v060
 BYTE   W12
 BYTE   Cs2  v092
 BYTE   W12
 BYTE   Dn1  v060
 BYTE   W12
// 095   ----------------------------------------
 BYTE   An2  v092
 BYTE   W12
 BYTE   Dn1  v056
 BYTE   W12
 BYTE   Dn1  v072
 BYTE   W12
 BYTE   Cs2  v096
 BYTE   W12
 BYTE   Dn1  v060
 BYTE   W12
 BYTE   Dn1  v076
 BYTE   W12
 BYTE   An2  v100
 BYTE   W12
 BYTE   Dn1  v060
 BYTE   W12
// 096   ----------------------------------------
 BYTE   Dn1  v068
 BYTE   W12
 BYTE   Cs2  v096
 BYTE   W12
 BYTE   Dn1  v064
 BYTE   W12
 BYTE   Dn1  v076
 BYTE   W12
 BYTE   An2  v100
 BYTE   W12
 BYTE   Dn1  v060
 BYTE   W12
 BYTE   Cs2  v096
 BYTE   W12
 BYTE   Dn1  v056
 BYTE   W12
// 097   ----------------------------------------
 BYTE   An2  v100
 BYTE   W12
 BYTE   Dn1  v060
 BYTE   W12
 BYTE   Dn1  v072
 BYTE   W12
 BYTE   Cs2  v104
 BYTE   W12
 BYTE   Dn1  v064
 BYTE   W12
 BYTE   Dn1  v076
 BYTE   W12
 BYTE   An2  v096
 BYTE   W12
 BYTE   Dn1  v056
 BYTE   W12
// 098   ----------------------------------------
 BYTE   Dn1  v076
 BYTE   W12
 BYTE   Cs2  v100
 BYTE   W12
 BYTE   Dn1  v064
 BYTE   W12
 BYTE   Dn1  v068
 BYTE   W12
 BYTE   An2  v100
 BYTE   W12
 BYTE   Dn1  v064
 BYTE   W12
 BYTE   Cs2  v100
 BYTE   W12
 BYTE   Dn1  v060
 BYTE   W12
// 099   ----------------------------------------
 BYTE   An2  v096
 BYTE   W12
 BYTE   Dn1  v056
 BYTE   W12
 BYTE   Dn1  v076
 BYTE   W12
 BYTE   Cs2  v100
 BYTE   W12
 BYTE   Dn1  v056
 BYTE   W12
 BYTE   Dn1  v076
 BYTE   W12
 BYTE   An2  v100
 BYTE   W12
 BYTE   Dn1  v064
 BYTE   W12
// 100   ----------------------------------------
 BYTE   Dn1  v076
 BYTE   W12
 BYTE   Cs2  v096
 BYTE   W12
 BYTE   Dn1  v060
 BYTE   W12
 BYTE   Dn1  v076
 BYTE   W12
 BYTE   An2  v100
 BYTE   W12
 BYTE   Dn1  v064
 BYTE   W12
 BYTE   Cs2  v096
 BYTE   W12
 BYTE   Dn1  v060
 BYTE   W12
// 101   ----------------------------------------
 BYTE   An2  v096
 BYTE   W12
 BYTE   Dn1  v060
 BYTE   W12
 BYTE   Dn1  v076
 BYTE   W12
 BYTE   Cs2  v096
 BYTE   W12
 BYTE   Dn1  v060
 BYTE   W12
 BYTE   Dn1  v076
 BYTE   W12
 BYTE   An2  v100
 BYTE   W12
 BYTE   Dn1  v056
 BYTE   W12
// 102   ----------------------------------------
 BYTE   Dn1  v072
 BYTE   W12
 BYTE   Cs2  v092
 BYTE   W12
 BYTE   Dn1  v064
 BYTE   W12
 BYTE   Dn1  v072
 BYTE   W12
 BYTE   An2  v100
 BYTE   W12
 BYTE   Dn1  v060
 BYTE   W12
 BYTE   Cs2  v096
 BYTE   W12
 BYTE   Dn1  v060
 BYTE   W12
// 103   ----------------------------------------
 BYTE   An2  v096
 BYTE   W12
 BYTE   Dn1  v060
 BYTE   W12
 BYTE   Dn1  v076
 BYTE   W12
 BYTE   Cs2  v096
 BYTE   W12
 BYTE   Dn1  v064
 BYTE   W12
 BYTE   Dn1  v080
 BYTE   W12
 BYTE   An2  v096
 BYTE   W12
 BYTE   Dn1  v060
 BYTE   W12
// 104   ----------------------------------------
 BYTE   Dn1  v072
 BYTE   W12
 BYTE   Cs2  v096
 BYTE   W12
 BYTE   Dn1  v060
 BYTE   W12
 BYTE   Dn1  v076
 BYTE   W12
 BYTE   An2  v100
 BYTE   W12
 BYTE   Dn1  v060
 BYTE   W12
 BYTE   Cs2  v092
 BYTE   W12
 BYTE   Dn1  v064
 BYTE   W12
// 105   ----------------------------------------
 BYTE   An2  v100
 BYTE   W12
 BYTE   Dn1  v060
 BYTE   W12
 BYTE   Dn1  v072
 BYTE   W12
 BYTE   Cs2  v100
 BYTE   W12
 BYTE   Dn1  v060
 BYTE   W12
 BYTE   Dn1  v072
 BYTE   W12
 BYTE   An2  v096
 BYTE   W12
 BYTE   Dn1  v060
 BYTE   W12
// 106   ----------------------------------------
 BYTE   Dn1  v076
 BYTE   W12
 BYTE   Cs2  v100
 BYTE   W12
 BYTE   Dn1  v060
 BYTE   W12
 BYTE   Dn1  v072
 BYTE   W12
 BYTE   An2  v096
 BYTE   W12
 BYTE   Dn1  v060
 BYTE   W12
 BYTE   Cs2  v096
 BYTE   W12
 BYTE   Dn1  v060
 BYTE   W12
// 107   ----------------------------------------
 BYTE   An2  v092
 BYTE   W12
 BYTE   Dn1  v060
 BYTE   W12
 BYTE   Dn1  v076
 BYTE   W12
 BYTE   Cs2  v100
 BYTE   W12
 BYTE   Dn1  v064
 BYTE   W12
 BYTE   Dn1  v072
 BYTE   W12
 BYTE   An2  v096
 BYTE   W12
 BYTE   Dn1  v056
 BYTE   W12
// 108   ----------------------------------------
 BYTE   Dn1  v076
 BYTE   W12
 BYTE   Cs2  v096
 BYTE   W12
 BYTE   Dn1  v064
 BYTE   W12
 BYTE   Dn1  v076
 BYTE   W12
 BYTE   N06  Cs2  v096
 BYTE   W06
 BYTE   Dn1  v060
 BYTE   W06
 BYTE   Dn1  v076
 BYTE   W06
 BYTE   N06
 BYTE   W06
 BYTE   Cs2  v100
 BYTE   W06
 BYTE   Dn1  v064
 BYTE   W06
 BYTE   Dn1  v076
 BYTE   W06
 BYTE   N06
 BYTE   W06
// 109   ----------------------------------------
 BYTE   N12  Cs2  v100
 BYTE   W12
 BYTE   Fs1  v072
 BYTE   W12
 BYTE   Fs1  v080
 BYTE   W12
 BYTE   As1
 BYTE   W12
 BYTE   Fs1  v076
 BYTE   W12
 BYTE   Fs1  v080
 BYTE   W12
 BYTE   As1  v084
 BYTE   W12
 BYTE   Fs1  v072
 BYTE   W12
// 110   ----------------------------------------
 BYTE   Fs1  v076
 BYTE   W12
 BYTE   As1  v084
 BYTE   W12
 BYTE   Fs1  v072
 BYTE   W12
 BYTE   Fs1  v080
 BYTE   W12
 BYTE   Cs2  v088
 BYTE   W12
 BYTE   As1  v072
 BYTE   W12
 BYTE   Cs2  v076
 BYTE   W12
 BYTE   As1
 BYTE   W12
// 111   ----------------------------------------
 BYTE   An2  v084
 BYTE   W12
 BYTE   Fs1  v068
 BYTE   W12
 BYTE   Fs1  v076
 BYTE   W12
 BYTE   As1  v084
 BYTE   W12
 BYTE   Fs1  v072
 BYTE   W12
 BYTE   Fs1  v076
 BYTE   W12
 BYTE   As1  v084
 BYTE   W12
 BYTE   Fs1  v076
 BYTE   W12
// 112   ----------------------------------------
 BYTE   N12
 BYTE   W12
 BYTE   As1  v084
 BYTE   W12
 BYTE   Fs1  v072
 BYTE   W12
 BYTE   Fs1  v076
 BYTE   W12
 BYTE   Cs2  v084
 BYTE   W12
 BYTE   As1  v072
 BYTE   W12
 BYTE   Cs2  v080
 BYTE   W12
 BYTE   As1  v072
 BYTE   W12
// 113   ----------------------------------------
 BYTE   Dn1  v060
 BYTE   W12
 BYTE   Cn1  v064
 BYTE   W12
 BYTE   Cn1  v076
 BYTE   W12
 BYTE   Dn1  v092
 BYTE   W12
 BYTE   Cn1  v064
 BYTE   W12
 BYTE   Cn1  v072
 BYTE   W12
 BYTE   Dn1  v088
 BYTE   W12
 BYTE   Cn1  v068
 BYTE   W12
// 114   ----------------------------------------
 BYTE   Cn1  v080
 BYTE   W12
 BYTE   Dn1  v096
 BYTE   W12
 BYTE   Cn1  v060
 BYTE   W12
 BYTE   Cn1  v076
 BYTE   W12
 BYTE   Dn1  v092
 BYTE   W12
 BYTE   Bn0  v068
 BYTE   W12
 BYTE   Dn1  v092
 BYTE   W12
 BYTE   Bn0  v064
 BYTE   W12
// 115   ----------------------------------------
 BYTE   Dn1  v088
 BYTE   W12
 BYTE   Cn1  v068
 BYTE   W12
 BYTE   Cn1  v080
 BYTE   W12
 BYTE   Dn1  v088
 BYTE   W12
 BYTE   Cn1  v064
 BYTE   W12
 BYTE   Cn1  v076
 BYTE   W12
 BYTE   Dn1  v088
 BYTE   W12
 BYTE   Cn1  v072
 BYTE   W12
// 116   ----------------------------------------
 BYTE   Cn1  v076
 BYTE   W12
 BYTE   Dn1  v088
 BYTE   W12
 BYTE   Cn1  v068
 BYTE   W12
 BYTE   Cn1  v076
 BYTE   W12
 BYTE   Bn0
 BYTE   W12
 BYTE   N06  Dn1  v092
 BYTE   W06
 BYTE   Dn1  v076
 BYTE   W06
 BYTE   N12
 BYTE   W12
 BYTE   N12
 BYTE   W12
// 117   ----------------------------------------
 BYTE   Fs1  v092
 BYTE   W12
 BYTE   Cn1  v056
 BYTE   W12
 BYTE   Fs1  v092
 BYTE   W12
 BYTE   Cn1  v060
 BYTE   W12
 BYTE   Dn1  v084
 BYTE   W12
 BYTE   Cn1  v064
 BYTE   W12
 BYTE   Gn1  v088
 BYTE   W12
 BYTE   Cn1  v072
 BYTE   W12
// 118   ----------------------------------------
 BYTE   An1  v084
 BYTE   W12
 BYTE   Cn1  v064
 BYTE   W12
 BYTE   N24  As1  v096
 BYTE   W24
 BYTE   Dn1  v060
 BYTE   W24
 BYTE   N12  Dn1  v080
 BYTE   W12
 BYTE   N12
 BYTE   W12
// 119   ----------------------------------------
 BYTE   Fs1  v092
 BYTE   W12
 BYTE   Cn1  v060
 BYTE   W12
 BYTE   Fs1  v092
 BYTE   W12
 BYTE   Cn1  v060
 BYTE   W12
 BYTE   Dn1  v088
 BYTE   W12
 BYTE   Cn1  v060
 BYTE   W12
 BYTE   Gn1  v084
 BYTE   W12
 BYTE   Cn1  v076
 BYTE   W12
// 120   ----------------------------------------
 BYTE   An1  v088
 BYTE   W12
 BYTE   Cn1  v068
 BYTE   W12
 BYTE   N24  As1  v092
 BYTE   W24
 BYTE   Dn1  v060
 BYTE   W24
 BYTE   N12  Dn1  v076
 BYTE   W12
 BYTE   N12
 BYTE   W12
// 121   ----------------------------------------
 BYTE   Fs1  v096
 BYTE   W12
 BYTE   Cn1  v060
 BYTE   W12
 BYTE   Fs1  v100
 BYTE   W12
 BYTE   Cn1  v060
 BYTE   W12
 BYTE   Dn1  v088
 BYTE   W12
 BYTE   Cn1  v068
 BYTE   W12
 BYTE   Gn1  v084
 BYTE   W12
 BYTE   Cn1  v068
 BYTE   W12
// 122   ----------------------------------------
 BYTE   An1  v096
 BYTE   W12
 BYTE   Cn1  v072
 BYTE   W12
 BYTE   N24  As1  v096
 BYTE   W24
 BYTE   Dn1  v064
 BYTE   W24
 BYTE   N12  Dn1  v076
 BYTE   W12
 BYTE   N12
 BYTE   W12
// 123   ----------------------------------------
 BYTE   Fs1  v088
 BYTE   W12
 BYTE   Cn1  v056
 BYTE   W12
 BYTE   Fs1  v096
 BYTE   W12
 BYTE   Cn1  v060
 BYTE   W12
 BYTE   Dn1  v092
 BYTE   W12
 BYTE   Cn1  v064
 BYTE   W12
 BYTE   Gn1  v084
 BYTE   W12
 BYTE   Cn1  v068
 BYTE   W12
// 124   ----------------------------------------
 BYTE   An1  v088
 BYTE   W12
 BYTE   Cn1  v068
 BYTE   W12
 BYTE   N24  As1  v096
 BYTE   W24
 BYTE   N12  Dn1  v072
 BYTE   W12
 BYTE   As1  v092
 BYTE   W12
 BYTE   Dn1  v064
 BYTE   W12
 BYTE   N06  Dn1  v072
 BYTE   W06
 BYTE   Dn1  v080
 BYTE   W06
// 125   ----------------------------------------
 BYTE   N12  Fs1  v088
 BYTE   W12
 BYTE   Cn1  v060
 BYTE   W12
 BYTE   Fs1  v092
 BYTE   W12
 BYTE   Cn1  v060
 BYTE   W12
 BYTE   Dn1  v088
 BYTE   W12
 BYTE   Cn1  v068
 BYTE   W12
 BYTE   Gn1  v088
 BYTE   W12
 BYTE   Cn1  v064
 BYTE   W12
// 126   ----------------------------------------
 BYTE   An1  v088
 BYTE   W12
 BYTE   Cn1  v064
 BYTE   W12
 BYTE   N24  As1  v096
 BYTE   W24
 BYTE   Dn1  v060
 BYTE   W24
 BYTE   N12  Dn1  v080
 BYTE   W12
 BYTE   N12
 BYTE   W12
// 127   ----------------------------------------
 BYTE   Fs1  v092
 BYTE   W12
 BYTE   Cn1  v060
 BYTE   W12
 BYTE   Fs1  v096
 BYTE   W12
 BYTE   Cn1  v060
 BYTE   W12
 BYTE   Dn1  v084
 BYTE   W12
 BYTE   Cn1  v060
 BYTE   W12
 BYTE   Gn1  v088
 BYTE   W12
 BYTE   Cn1  v072
 BYTE   W12
// 128   ----------------------------------------
 BYTE   An1  v088
 BYTE   W12
 BYTE   Cn1  v064
 BYTE   W12
 BYTE   N24  As1  v100
 BYTE   W24
 BYTE   Dn1  v064
 BYTE   W24
 BYTE   N12  Dn1  v076
 BYTE   W12
 BYTE   N12
 BYTE   W12
// 129   ----------------------------------------
 BYTE   Fs1  v092
 BYTE   W12
 BYTE   Cn1  v060
 BYTE   W12
 BYTE   Fs1  v092
 BYTE   W12
 BYTE   Cn1  v060
 BYTE   W12
 BYTE   Dn1  v092
 BYTE   W12
 BYTE   Cn1  v068
 BYTE   W12
 BYTE   Gn1  v084
 BYTE   W12
 BYTE   Cn1  v072
 BYTE   W12
// 130   ----------------------------------------
 BYTE   An1  v088
 BYTE   W12
 BYTE   Cn1  v068
 BYTE   W12
 BYTE   N24  As1  v096
 BYTE   W24
 BYTE   Dn1  v064
 BYTE   W24
 BYTE   N12  Dn1  v080
 BYTE   W12
 BYTE   Dn1  v076
 BYTE   W12
// 131   ----------------------------------------
 BYTE   Fs1  v088
 BYTE   W12
 BYTE   Cn1  v056
 BYTE   W12
 BYTE   Fs1  v096
 BYTE   W12
 BYTE   Cn1  v056
 BYTE   W12
 BYTE   Dn1  v088
 BYTE   W12
 BYTE   Cn1  v060
 BYTE   W12
 BYTE   Gn1  v084
 BYTE   W12
 BYTE   Cn1  v072
 BYTE   W12
// 132   ----------------------------------------
 BYTE   An1  v088
 BYTE   W12
 BYTE   Cn1  v064
 BYTE   W12
 BYTE   N24  As1  v096
 BYTE   W24
 BYTE   Dn1  v060
 BYTE   W24
 BYTE   N12  Dn1  v080
 BYTE   W12
 BYTE   Dn1  v076
 BYTE   W12
// 133   ----------------------------------------
 BYTE   Fs1  v092
 BYTE   W12
 BYTE   Cn1  v056
 BYTE   W12
 BYTE   Fs1  v096
 BYTE   W12
 BYTE   Cn1  v064
 BYTE   W12
 BYTE   Dn1  v088
 BYTE   W12
 BYTE   Cn1  v072
 BYTE   W12
 BYTE   Gn1  v084
 BYTE   W12
 BYTE   Cn1  v068
 BYTE   W12
// 134   ----------------------------------------
 BYTE   An1  v084
 BYTE   W12
 BYTE   Cn1  v064
 BYTE   W12
 BYTE   N24  As1  v096
 BYTE   W24
 BYTE   Dn1  v068
 BYTE   W24
 BYTE   N12  Dn1  v076
 BYTE   W12
 BYTE   Dn1  v080
 BYTE   W12
// 135   ----------------------------------------
 BYTE   Fs1  v084
 BYTE   W12
 BYTE   Cn1  v060
 BYTE   W12
 BYTE   Fs1  v096
 BYTE   W12
 BYTE   Cn1  v064
 BYTE   W12
 BYTE   Dn1  v092
 BYTE   W12
 BYTE   Cn1  v064
 BYTE   W12
 BYTE   Gn1  v088
 BYTE   W12
 BYTE   Cn1  v068
 BYTE   W12
// 136   ----------------------------------------
 BYTE   An1  v092
 BYTE   W12
 BYTE   Cn1  v060
 BYTE   W12
 BYTE   N24  As1  v096
 BYTE   W24
 BYTE   Dn1  v064
 BYTE   W24
 BYTE   N12  Dn1  v076
 BYTE   W12
 BYTE   N12
 BYTE   W12
// 137   ----------------------------------------
 BYTE   Fs1  v088
 BYTE   W12
 BYTE   Cn1  v060
 BYTE   W12
 BYTE   Fs1  v096
 BYTE   W12
 BYTE   Cn1  v064
 BYTE   W12
 BYTE   Dn1  v088
 BYTE   W12
 BYTE   Cn1  v064
 BYTE   W12
 BYTE   Gn1  v084
 BYTE   W12
 BYTE   Cn1  v076
 BYTE   W12
// 138   ----------------------------------------
 BYTE   An1  v088
 BYTE   W12
 BYTE   Cn1  v068
 BYTE   W12
 BYTE   N24  As1  v096
 BYTE   W24
 BYTE   Dn1  v068
 BYTE   W24
 BYTE   N12  Dn1  v072
 BYTE   W12
 BYTE   Dn1  v080
 BYTE   W12
// 139   ----------------------------------------
 BYTE   Fs1  v096
 BYTE   W12
 BYTE   Cn1  v060
 BYTE   W12
 BYTE   Fs1  v100
 BYTE   W12
 BYTE   Cn1  v060
 BYTE   W12
 BYTE   Dn1  v088
 BYTE   W12
 BYTE   Cn1  v068
 BYTE   W12
 BYTE   Gn1  v080
 BYTE   W12
 BYTE   Cn1  v072
 BYTE   W12
// 140   ----------------------------------------
 BYTE   An1  v092
 BYTE   W12
 BYTE   Cn1  v064
 BYTE   W12
 BYTE   N24  As1  v096
 BYTE   W24
 BYTE   Dn1  v064
 BYTE   W24
 BYTE   N12  Dn1  v076
 BYTE   W12
 BYTE   Dn1  v080
 BYTE   W12
// 141   ----------------------------------------
 BYTE   Dn1  v076
 BYTE   W12
 BYTE   Cn1  v064
 BYTE   W12
 BYTE   As1  v100
 BYTE   W12
 BYTE   Fs1  v076
 BYTE   W12
 BYTE   Cn1  v060
 BYTE   W12
 BYTE   Dn1  v088
 BYTE   W12
 BYTE   N12
 BYTE   W12
 BYTE   Cn1  v064
 BYTE   W12
// 142   ----------------------------------------
 BYTE   Cn1  v072
 BYTE   W12
 BYTE   As1  v092
 BYTE   W12
 BYTE   Fs1  v072
 BYTE   W12
 BYTE   Cn1  v060
 BYTE   W12
 BYTE   Dn1  v084
 BYTE   W12
 BYTE   As1  v100
 BYTE   W12
 BYTE   Cn1  v060
 BYTE   W12
 BYTE   Cn1  v076
 BYTE   W12
// 143   ----------------------------------------
 BYTE   An2  v096
 BYTE   W12
 BYTE   Cn1  v056
 BYTE   W12
 BYTE   Cn1  v072
 BYTE   W12
 BYTE   As1  v096
 BYTE   W12
 BYTE   Cn1  v060
 BYTE   W12
 BYTE   Cn1  v076
 BYTE   W12
 BYTE   Dn1  v092
 BYTE   W12
 BYTE   Cn1  v064
 BYTE   W12
// 144   ----------------------------------------
 BYTE   Cn1  v080
 BYTE   W12
 BYTE   As1  v096
 BYTE   W12
 BYTE   Cn1  v056
 BYTE   W12
 BYTE   Cn1  v068
 BYTE   W12
 BYTE   Dn1  v092
 BYTE   W12
 BYTE   N06  Dn1  v080
 BYTE   W06
 BYTE   N06
 BYTE   W06
 BYTE   N06
 BYTE   W06
 BYTE   Dn1  v076
 BYTE   W06
 BYTE   Cn1  v080
 BYTE   N06  Dn1
 BYTE   W06
 BYTE   Cn1
 BYTE   N06  Dn1
 BYTE   W06
// 145   ----------------------------------------
 BYTE   N12  An2  v100
 BYTE   W12
 BYTE   Cn1  v068
 BYTE   W12
 BYTE   Cn1  v076
 BYTE   W12
 BYTE   As1  v100
 BYTE   W12
 BYTE   Cn1  v060
 BYTE   W12
 BYTE   Cn1  v072
 BYTE   W12
 BYTE   Dn1  v096
 BYTE   W12
 BYTE   Cn1  v064
 BYTE   W12
// 146   ----------------------------------------
 BYTE   Cn1  v076
 BYTE   W12
 BYTE   As1  v104
 BYTE   W12
 BYTE   Cn1  v060
 BYTE   W12
 BYTE   Cn1  v076
 BYTE   W12
 BYTE   N06  Dn1  v092
 BYTE   W06
 BYTE   Fs1
 BYTE   W06
 BYTE   An1  v068
 BYTE   W06
 BYTE   Fs1  v088
 BYTE   W06
 BYTE   Dn1  v064
 BYTE   W06
 BYTE   Fs1  v088
 BYTE   W06
 BYTE   Cn1  v056
 BYTE   N06  Gn1
 BYTE   W06
 BYTE   Fs1  v088
 BYTE   W06
// 147   ----------------------------------------
 BYTE   N12  Cs2  v092
 BYTE   W12
 BYTE   As1  v076
 BYTE   W12
 BYTE   Cn1  v060
 BYTE   W12
 BYTE   Dn1  v088
 BYTE   W12
 BYTE   Cn1  v068
 BYTE   W12
 BYTE   Cn1  v080
 BYTE   W12
 BYTE   Dn1  v092
 BYTE   W12
 BYTE   Cn1  v068
 BYTE   W12
// 148   ----------------------------------------
 BYTE   Cn1  v072
 BYTE   W12
 BYTE   Dn1  v088
 BYTE   W12
 BYTE   As1  v100
 BYTE   W12
 BYTE   Cn1  v060
 BYTE   W12
 BYTE   Dn1  v084
 BYTE   W12
 BYTE   As1  v092
 BYTE   W12
 BYTE   N06  Dn1  v060
 BYTE   W06
 BYTE   Dn1  v076
 BYTE   W06
 BYTE   Dn1  v080
 BYTE   W06
 BYTE   N06
 BYTE   W06
// 149   ----------------------------------------
 BYTE   N24  An2  v096
 BYTE   W24
 BYTE   N12  Fs1  v072
 BYTE   W12
 BYTE   Cn1  v056
 BYTE   W12
 BYTE   Dn1  v088
 BYTE   W12
 BYTE   Cn1  v060
 BYTE   W12
 BYTE   An1  v080
 BYTE   W12
 BYTE   Cn1  v068
 BYTE   W12
// 150   ----------------------------------------
 BYTE   An1  v088
 BYTE   W12
 BYTE   Cn1  v064
 BYTE   W12
 BYTE   N24  As1  v096
 BYTE   W24
 BYTE   Dn1  v064
 BYTE   W24
 BYTE   N12  Dn1  v076
 BYTE   W12
 BYTE   Dn1  v080
 BYTE   W12
// 151   ----------------------------------------
 BYTE   Fs1  v088
 BYTE   W12
 BYTE   Cn1  v060
 BYTE   W12
 BYTE   Fs1  v096
 BYTE   W12
 BYTE   Cn1  v060
 BYTE   W12
 BYTE   Dn1  v092
 BYTE   W12
 BYTE   Cn1  v064
 BYTE   W12
 BYTE   An1  v084
 BYTE   W12
 BYTE   Cn1  v068
 BYTE   W12
// 152   ----------------------------------------
 BYTE   An1  v088
 BYTE   W12
 BYTE   Cn1  v068
 BYTE   W12
 BYTE   N24  As1  v092
 BYTE   W24
 BYTE   N12  Dn1  v064
 BYTE   W12
 BYTE   As1  v092
 BYTE   W12
 BYTE   Dn1  v064
 BYTE   W12
 BYTE   N06  Dn1  v080
 BYTE   W06
 BYTE   Dn1  v076
 BYTE   W06
// 153   ----------------------------------------
 BYTE   N12  Fs1  v088
 BYTE   W12
 BYTE   Cn1  v060
 BYTE   W12
 BYTE   Fs1  v096
 BYTE   W12
 BYTE   Cn1  v056
 BYTE   W12
 BYTE   Dn1  v088
 BYTE   W12
 BYTE   Cn1  v068
 BYTE   W12
 BYTE   An1  v088
 BYTE   W12
 BYTE   Cn1  v060
 BYTE   W12
// 154   ----------------------------------------
 BYTE   An1  v088
 BYTE   W12
 BYTE   Cn1  v068
 BYTE   W12
 BYTE   N24  As1  v100
 BYTE   W24
 BYTE   Dn1  v064
 BYTE   W24
 BYTE   N12  As1  v088
 BYTE   W12
 BYTE   N06  Fs1  v072
 BYTE   W06
 BYTE   N06
 BYTE   W06
// 155   ----------------------------------------
 BYTE   N12  Fs1  v076
 BYTE   W12
 BYTE   Cn1  v052
 BYTE   W12
 BYTE   Fs1  v092
 BYTE   W12
 BYTE   Cn1  v056
 BYTE   W12
 BYTE   Dn1  v092
 BYTE   W12
 BYTE   Cn1  v064
 BYTE   W12
 BYTE   An1  v084
 BYTE   W12
 BYTE   Cn1  v068
 BYTE   W12
// 156   ----------------------------------------
 BYTE   An1  v088
 BYTE   W12
 BYTE   Cn1  v068
 BYTE   W12
 BYTE   N24  As1  v100
 BYTE   W24
 BYTE   Dn1  v064
 BYTE   W24
 BYTE   N12  Dn1  v076
 BYTE   W12
 BYTE   N06  Cn1  v060
 BYTE   W06
 BYTE   Cn1  v072
 BYTE   W06
// 157   ----------------------------------------
 BYTE   N24  An2  v096
 BYTE   W24
 BYTE   N12  Fs1  v072
 BYTE   W12
 BYTE   Cn1  v056
 BYTE   W12
 BYTE   Dn1  v088
 BYTE   W12
 BYTE   Cn1  v064
 BYTE   W12
 BYTE   An1  v084
 BYTE   W12
 BYTE   Cn1  v072
 BYTE   W12
// 158   ----------------------------------------
 BYTE   An1  v084
 BYTE   W12
 BYTE   Cn1  v068
 BYTE   W12
 BYTE   N24  As1  v096
 BYTE   W24
 BYTE   Dn1  v068
 BYTE   W24
 BYTE   N12  Dn1  v076
 BYTE   W12
 BYTE   Dn1  v072
 BYTE   W12
// 159   ----------------------------------------
 BYTE   Fs1  v092
 BYTE   W12
 BYTE   Cn1  v056
 BYTE   W12
 BYTE   Fs1  v092
 BYTE   W12
 BYTE   Cn1  v056
 BYTE   W12
 BYTE   Dn1  v088
 BYTE   W12
 BYTE   Cn1  v068
 BYTE   W12
 BYTE   An1  v084
 BYTE   W12
 BYTE   Cn1  v064
 BYTE   W12
// 160   ----------------------------------------
 BYTE   An1  v088
 BYTE   W12
 BYTE   Cn1  v068
 BYTE   W12
 BYTE   N24  As1  v096
 BYTE   W24
 BYTE   N12  Dn1  v064
 BYTE   W12
 BYTE   As1  v088
 BYTE   W12
 BYTE   Dn1  v060
 BYTE   W12
 BYTE   N06  Dn1  v072
 BYTE   W06
 BYTE   Dn1  v076
 BYTE   W06
// 161   ----------------------------------------
 BYTE   N12  Fs1  v096
 BYTE   W12
 BYTE   Cn1  v064
 BYTE   W12
 BYTE   Fs1  v092
 BYTE   W12
 BYTE   Cn1  v056
 BYTE   W12
 BYTE   Dn1  v084
 BYTE   W12
 BYTE   Cn1  v068
 BYTE   W12
 BYTE   An1  v088
 BYTE   W12
 BYTE   Cn1  v068
 BYTE   W12
// 162   ----------------------------------------
 BYTE   An1  v088
 BYTE   W12
 BYTE   Cn1  v068
 BYTE   W12
 BYTE   N24  As1  v096
 BYTE   W24
 BYTE   Dn1  v068
 BYTE   W24
 BYTE   N12  As1  v096
 BYTE   W12
 BYTE   N06  Fs1  v076
 BYTE   W06
 BYTE   N06
 BYTE   W06
// 163   ----------------------------------------
 BYTE   N12  Fs1  v072
 BYTE   W12
 BYTE   Cn1  v052
 BYTE   W12
 BYTE   Fs1  v096
 BYTE   W12
 BYTE   Cn1  v060
 BYTE   W12
 BYTE   Dn1  v088
 BYTE   W12
 BYTE   Cn1  v064
 BYTE   W12
 BYTE   An1  v092
 BYTE   W12
 BYTE   Cn1  v068
 BYTE   W12
// 164   ----------------------------------------
 BYTE   An1  v088
 BYTE   W12
 BYTE   Cn1  v064
 BYTE   W12
 BYTE   N24  As1  v100
 BYTE   W24
 BYTE   N12  Dn1  v064
 BYTE   W12
 BYTE   N06  Dn1  v076
 BYTE   W06
 BYTE   Dn1  v080
 BYTE   W06
 BYTE   Dn1  v076
 BYTE   W06
 BYTE   Dn1  v072
 BYTE   W06
 BYTE   Dn1  v080
 BYTE   W06
 BYTE   N06
 BYTE   W06
// 165   ----------------------------------------
 BYTE   N12  An2  v104
 BYTE   W12
 BYTE   Cn1  v060
 BYTE   W12
 BYTE   Dn1  v088
 BYTE   W12
 BYTE   Cn1  v072
 BYTE   W12
 BYTE   Cs2  v100
 BYTE   W12
 BYTE   Bn0  v060
 BYTE   W12
 BYTE   Cn1  v080
 BYTE   W12
 BYTE   Cn1  v076
 BYTE   W12
// 166   ----------------------------------------
 BYTE   Dn1  v092
 BYTE   W12
 BYTE   Cn1  v068
 BYTE   W12
 BYTE   An2  v096
 BYTE   W12
 BYTE   Bn0  v056
 BYTE   W12
 BYTE   Cn1  v076
 BYTE   W12
 BYTE   N12
 BYTE   W12
 BYTE   Dn1  v092
 BYTE   W12
 BYTE   Cn1  v064
 BYTE   W12
// 167   ----------------------------------------
 BYTE   Cs2  v096
 BYTE   W12
 BYTE   Bn0  v064
 BYTE   W12
 BYTE   Cn1  v084
 BYTE   W12
 BYTE   Cn1  v076
 BYTE   W12
 BYTE   Dn1  v092
 BYTE   W12
 BYTE   Cn1  v072
 BYTE   W12
 BYTE   An2  v096
 BYTE   W12
 BYTE   Cn1  v060
 BYTE   W12
// 168   ----------------------------------------
 BYTE   Cs2  v096
 BYTE   W12
 BYTE   Cn1  v060
 BYTE   W12
 BYTE   Cn1  v076
 BYTE   W12
 BYTE   Cn1  v080
 BYTE   W12
 BYTE   Dn1  v088
 BYTE   W12
 BYTE   Cn1  v064
 BYTE   W12
 BYTE   Cs2  v100
 BYTE   W12
 BYTE   Bn0  v060
 BYTE   W12
// 169   ----------------------------------------
 BYTE   Cn1  v080
 BYTE   W12
 BYTE   Cn1  v068
 BYTE   W12
 BYTE   Dn1  v092
 BYTE   W12
 BYTE   Cn1  v068
 BYTE   W12
 BYTE   An2  v096
 BYTE   W12
 BYTE   Bn0  v060
 BYTE   W12
 BYTE   Cn1  v084
 BYTE   W12
 BYTE   Cn1  v072
 BYTE   W12
// 170   ----------------------------------------
 BYTE   Dn1  v092
 BYTE   W12
 BYTE   Cn1  v068
 BYTE   W12
 BYTE   Cs2  v096
 BYTE   W12
 BYTE   Bn0  v060
 BYTE   W12
 BYTE   Cn1  v080
 BYTE   W12
 BYTE   N12
 BYTE   W12
 BYTE   Dn1  v088
 BYTE   W12
 BYTE   Cn1  v068
 BYTE   W12
// 171   ----------------------------------------
 BYTE   An2  v100
 BYTE   W12
 BYTE   Cn1  v056
 BYTE   W12
 BYTE   Cs2  v100
 BYTE   W12
 BYTE   Cn1  v060
 BYTE   W12
 BYTE   Cn1  v076
 BYTE   W12
 BYTE   N12
 BYTE   W12
 BYTE   Dn1  v096
 BYTE   W12
 BYTE   Cn1  v068
 BYTE   W12
// 172   ----------------------------------------
 BYTE   Cs2  v096
 BYTE   W12
 BYTE   Bn0  v064
 BYTE   W12
 BYTE   Cn1  v084
 BYTE   W12
 BYTE   Cn1  v080
 BYTE   W12
 BYTE   Dn1  v096
 BYTE   W12
 BYTE   Cn1  v068
 BYTE   W12
 BYTE   An2  v096
 BYTE   W12
 BYTE   Bn0  v064
 BYTE   W12
// 173   ----------------------------------------
 BYTE   Cn1  v076
 BYTE   W12
 BYTE   N12
 BYTE   W12
 BYTE   Dn1  v092
 BYTE   W12
 BYTE   Cn1  v068
 BYTE   W12
 BYTE   Cs2  v100
 BYTE   W12
 BYTE   Bn0  v064
 BYTE   W12
 BYTE   Cn1  v072
 BYTE   W12
 BYTE   Cn1  v080
 BYTE   W12
// 174   ----------------------------------------
 BYTE   Dn1  v092
 BYTE   W12
 BYTE   Cn1  v060
 BYTE   W12
 BYTE   An2  v104
 BYTE   W12
 BYTE   Cn1  v060
 BYTE   W12
 BYTE   Cs2  v096
 BYTE   W12
 BYTE   Cn1  v060
 BYTE   W12
 BYTE   Cn1  v076
 BYTE   W12
 BYTE   N12
 BYTE   W12
// 175   ----------------------------------------
 BYTE   Dn1  v088
 BYTE   W12
 BYTE   Cn1  v068
 BYTE   W12
 BYTE   Cs2  v096
 BYTE   W12
 BYTE   Bn0  v056
 BYTE   W12
 BYTE   Cn1  v076
 BYTE   W12
 BYTE   N12
 BYTE   W12
 BYTE   Dn1  v092
 BYTE   W12
 BYTE   Cn1  v068
 BYTE   W12
// 176   ----------------------------------------
 BYTE   An2  v100
 BYTE   W12
 BYTE   Bn0  v056
 BYTE   W12
 BYTE   Cn1  v080
 BYTE   W12
 BYTE   N12
 BYTE   W12
 BYTE   Dn1  v092
 BYTE   W12
 BYTE   Cn1  v064
 BYTE   W12
 BYTE   Cs2  v100
 BYTE   W12
 BYTE   Bn0  v056
 BYTE   W12
// 177   ----------------------------------------
 BYTE   Cn1  v080
 BYTE   W12
 BYTE   Cn1  v084
 BYTE   W12
 BYTE   Dn1  v088
 BYTE   W12
 BYTE   Cn1  v064
 BYTE   W12
 BYTE   An2  v100
 BYTE   W12
 BYTE   Cn1  v056
 BYTE   W12
 BYTE   Cs2  v100
 BYTE   W12
 BYTE   Cn1  v052
 BYTE   W12
// 178   ----------------------------------------
 BYTE   N96  An2  v096
 BYTE   W96
// 179   ----------------------------------------
 BYTE   W48
 BYTE   N06  Dn1  v068
 BYTE   W06
 BYTE   Dn1  v080
 BYTE   W06
 BYTE   Dn1  v076
 BYTE   W06
 BYTE   N06
 BYTE   W06
 BYTE   Dn1  v080
 BYTE   W06
 BYTE   Dn1  v076
 BYTE   W06
 BYTE   Dn1  v072
 BYTE   W06
 BYTE   Dn1  v080
 BYTE   W06
// 180   ----------------------------------------
 BYTE   N12  An2  v100
 BYTE   W12
 BYTE   N06  Dn1  v056
 BYTE   W06
 BYTE   Dn1  v080
 BYTE   W06
 BYTE   N06
 BYTE   W06
 BYTE   Cn1  v064
 BYTE   W06
 BYTE   As1  v100
 BYTE   W06
 BYTE   Fs1  v072
 BYTE   W06
 BYTE   Fs1  v076
 BYTE   W06
 BYTE   Cn1  v056
 BYTE   W06
 BYTE   As1  v096
 BYTE   W06
 BYTE   Cn1  v060
 BYTE   W06
 BYTE   Dn1  v088
 BYTE   W06
 BYTE   Cn1  v068
 BYTE   W06
 BYTE   Fs1  v096
 BYTE   W06
 BYTE   Cn1  v056
 BYTE   W06
// 181   ----------------------------------------
 BYTE   N12  Dn1  v088
 BYTE   W12
 BYTE   N06  Dn1  v080
 BYTE   W06
 BYTE   N06
 BYTE   W06
 BYTE   Dn1  v076
 BYTE   W06
 BYTE   Cn1  v064
 BYTE   W06
 BYTE   As1  v096
 BYTE   W06
 BYTE   Fs1  v076
 BYTE   W06
 BYTE   Fs1  v080
 BYTE   W06
 BYTE   Cn1  v052
 BYTE   W06
 BYTE   As1  v092
 BYTE   W06
 BYTE   Cn1  v060
 BYTE   W06
 BYTE   Dn1  v092
 BYTE   W06
 BYTE   Cn1  v068
 BYTE   W06
 BYTE   Fs1  v096
 BYTE   W06
 BYTE   Cn1  v064
 BYTE   W06
// 182   ----------------------------------------
 BYTE   N12  Dn1  v088
 BYTE   W12
 BYTE   N06  Dn1  v080
 BYTE   W06
 BYTE   N06
 BYTE   W06
 BYTE   N06
 BYTE   W06
 BYTE   Cn1  v064
 BYTE   W06
 BYTE   As1  v096
 BYTE   W06
 BYTE   Fs1  v076
 BYTE   W06
 BYTE   Fs1  v080
 BYTE   W06
 BYTE   Cn1  v056
 BYTE   W06
 BYTE   As1  v096
 BYTE   W06
 BYTE   Cn1  v060
 BYTE   W06
 BYTE   Dn1  v088
 BYTE   W06
 BYTE   Cn1  v064
 BYTE   W06
 BYTE   Fs1  v096
 BYTE   W06
 BYTE   Cn1  v064
 BYTE   W06
// 183   ----------------------------------------
 BYTE   N12  Dn1  v092
 BYTE   W12
 BYTE   N06  Dn1  v080
 BYTE   W06
 BYTE   N06
 BYTE   W06
 BYTE   N06
 BYTE   W06
 BYTE   Cn1  v064
 BYTE   W06
 BYTE   As1  v096
 BYTE   W06
 BYTE   Fs1  v080
 BYTE   W06
 BYTE   Fs1  v076
 BYTE   W06
 BYTE   Cn1  v052
 BYTE   W06
 BYTE   As1  v100
 BYTE   W06
 BYTE   Cn1  v060
 BYTE   W06
 BYTE   Dn1  v088
 BYTE   W06
 BYTE   Cn1  v064
 BYTE   W06
 BYTE   Fs1  v096
 BYTE   W06
 BYTE   Cn1  v060
 BYTE   W06
// 184   ----------------------------------------
 BYTE   N12  Cs2  v104
 BYTE   W12
 BYTE   N06  Dn1  v064
 BYTE   W06
 BYTE   Dn1  v076
 BYTE   W06
 BYTE   Dn1  v080
 BYTE   W06
 BYTE   Cn1  v064
 BYTE   W06
 BYTE   As1  v096
 BYTE   W06
 BYTE   Fs1  v076
 BYTE   W06
 BYTE   N06
 BYTE   W06
 BYTE   Cn1  v056
 BYTE   W06
 BYTE   As1  v092
 BYTE   W06
 BYTE   Cn1  v060
 BYTE   W06
 BYTE   Dn1  v088
 BYTE   W06
 BYTE   Cn1  v072
 BYTE   W06
 BYTE   Fs1  v096
 BYTE   W06
 BYTE   Cn1  v056
 BYTE   W06
// 185   ----------------------------------------
 BYTE   N12  Dn1  v088
 BYTE   W12
 BYTE   N06  Dn1  v080
 BYTE   W06
 BYTE   Dn1  v076
 BYTE   W06
 BYTE   N06
 BYTE   W06
 BYTE   Cn1  v060
 BYTE   W06
 BYTE   As1  v092
 BYTE   W06
 BYTE   Fs1  v080
 BYTE   W06
 BYTE   Fs1  v076
 BYTE   W06
 BYTE   Cn1  v060
 BYTE   W06
 BYTE   As1  v096
 BYTE   W06
 BYTE   Cn1  v060
 BYTE   W06
 BYTE   Dn1  v092
 BYTE   W06
 BYTE   Cn1  v068
 BYTE   W06
 BYTE   Fs1  v096
 BYTE   W06
 BYTE   Cn1  v060
 BYTE   W06
// 186   ----------------------------------------
 BYTE   N12  Dn1  v092
 BYTE   W12
 BYTE   N06  Dn1  v076
 BYTE   W06
 BYTE   Dn1  v072
 BYTE   W06
 BYTE   Dn1  v084
 BYTE   W06
 BYTE   Cn1  v064
 BYTE   W06
 BYTE   As1  v096
 BYTE   W06
 BYTE   Fs1  v076
 BYTE   W06
 BYTE   Fs1  v080
 BYTE   W06
 BYTE   Cn1  v056
 BYTE   W06
 BYTE   As1  v092
 BYTE   W06
 BYTE   Cn1  v060
 BYTE   W06
 BYTE   Dn1  v092
 BYTE   W06
 BYTE   Cn1  v072
 BYTE   W06
 BYTE   Fs1  v096
 BYTE   W06
 BYTE   Cn1  v056
 BYTE   W06
// 187   ----------------------------------------
 BYTE   N12  Dn1  v092
 BYTE   W12
 BYTE   N06  Dn1  v076
 BYTE   W06
 BYTE   N06
 BYTE   W06
 BYTE   Dn1  v080
 BYTE   W06
 BYTE   Cn1  v064
 BYTE   W06
 BYTE   As1  v096
 BYTE   W06
 BYTE   Fs1  v080
 BYTE   W06
 BYTE   N06
 BYTE   W06
 BYTE   Cn1  v056
 BYTE   W06
 BYTE   As1  v096
 BYTE   W06
 BYTE   Cn1  v060
 BYTE   W06
 BYTE   Dn1  v088
 BYTE   W06
 BYTE   Cn1  v068
 BYTE   W06
 BYTE   Fs1  v100
 BYTE   W06
 BYTE   Cn1  v064
 BYTE   W06
// 188   ----------------------------------------
 BYTE   N12  Cs2  v096
 BYTE   W12
 BYTE   N06  Dn1  v060
 BYTE   W06
 BYTE   Dn1  v076
 BYTE   W06
 BYTE   Dn1  v080
 BYTE   W06
 BYTE   Cn1  v064
 BYTE   W06
 BYTE   As1  v100
 BYTE   W06
 BYTE   Fs1  v080
 BYTE   W06
 BYTE   Fs1  v076
 BYTE   W06
 BYTE   Cn1  v056
 BYTE   W06
 BYTE   As1  v096
 BYTE   W06
 BYTE   Cn1  v060
 BYTE   W06
 BYTE   Dn1  v088
 BYTE   W06
 BYTE   Cn1  v068
 BYTE   W06
 BYTE   Fs1  v092
 BYTE   W06
 BYTE   Cn1  v068
 BYTE   W06
// 189   ----------------------------------------
 BYTE   N12  Dn1  v088
 BYTE   W12
 BYTE   N06  Dn1  v076
 BYTE   W06
 BYTE   N06
 BYTE   W06
 BYTE   Dn1  v080
 BYTE   W06
 BYTE   Cn1  v064
 BYTE   W06
 BYTE   As1  v096
 BYTE   W06
 BYTE   Fs1  v076
 BYTE   W06
 BYTE   N06
 BYTE   W06
 BYTE   Cn1  v060
 BYTE   W06
 BYTE   As1  v096
 BYTE   W06
 BYTE   Cn1  v056
 BYTE   W06
 BYTE   Dn1  v092
 BYTE   W06
 BYTE   Cn1  v068
 BYTE   W06
 BYTE   Fs1  v096
 BYTE   W06
 BYTE   Cn1  v056
 BYTE   W06
// 190   ----------------------------------------
 BYTE   N12  Dn1  v088
 BYTE   W12
 BYTE   N06  Dn1  v080
 BYTE   W06
 BYTE   Dn1  v084
 BYTE   W06
 BYTE   Dn1  v076
 BYTE   W06
 BYTE   Cn1  v064
 BYTE   W06
 BYTE   As1  v092
 BYTE   W06
 BYTE   Fs1  v076
 BYTE   W06
 BYTE   Fs1  v080
 BYTE   W06
 BYTE   Cn1  v056
 BYTE   W06
 BYTE   As1  v096
 BYTE   W06
 BYTE   Cn1  v056
 BYTE   W06
 BYTE   Dn1  v088
 BYTE   W06
 BYTE   Cn1  v064
 BYTE   W06
 BYTE   Fs1  v096
 BYTE   W06
 BYTE   Cn1  v056
 BYTE   W06
// 191   ----------------------------------------
 BYTE   N12  Dn1  v088
 BYTE   W12
 BYTE   N06  Dn1  v080
 BYTE   W06
 BYTE   N06
 BYTE   W06
 BYTE   Dn1  v076
 BYTE   W06
 BYTE   Cn1  v068
 BYTE   W06
 BYTE   As1  v088
 BYTE   W06
 BYTE   Fs1  v080
 BYTE   W06
 BYTE   N06
 BYTE   W06
 BYTE   Cn1  v056
 BYTE   W06
 BYTE   As1  v100
 BYTE   W06
 BYTE   Cn1  v060
 BYTE   W06
 BYTE   Dn1  v088
 BYTE   W06
 BYTE   Cn1  v072
 BYTE   W06
 BYTE   Fs1  v100
 BYTE   W06
 BYTE   Cn1  v056
 BYTE   W06
// 192   ----------------------------------------
 BYTE   N12  Cs2  v096
 BYTE   W12
 BYTE   N06  Dn1  v060
 BYTE   W06
 BYTE   Dn1  v072
 BYTE   W06
 BYTE   Dn1  v080
 BYTE   W06
 BYTE   Cn1  v064
 BYTE   W06
 BYTE   As1  v096
 BYTE   W06
 BYTE   Fs1  v076
 BYTE   W06
 BYTE   N06
 BYTE   W06
 BYTE   Cn1  v060
 BYTE   W06
 BYTE   As1  v096
 BYTE   W06
 BYTE   Cn1  v056
 BYTE   W06
 BYTE   Dn1  v084
 BYTE   W06
 BYTE   Cn1  v068
 BYTE   W06
 BYTE   Fs1  v096
 BYTE   W06
 BYTE   Cn1  v060
 BYTE   W06
// 193   ----------------------------------------
 BYTE   N12  Dn1  v088
 BYTE   W12
 BYTE   N06  Dn1  v076
 BYTE   W06
 BYTE   N06
 BYTE   W06
 BYTE   N06
 BYTE   W06
 BYTE   Cn1  v064
 BYTE   W06
 BYTE   As1  v100
 BYTE   W06
 BYTE   Fs1  v076
 BYTE   W06
 BYTE   N06
 BYTE   W06
 BYTE   Cn1  v052
 BYTE   W06
 BYTE   As1  v092
 BYTE   W06
 BYTE   Cn1  v064
 BYTE   W06
 BYTE   Dn1  v088
 BYTE   W06
 BYTE   Cn1  v068
 BYTE   W06
 BYTE   Fs1  v096
 BYTE   W06
 BYTE   Cn1  v060
 BYTE   W06
// 194   ----------------------------------------
 BYTE   N12  Dn1  v092
 BYTE   W12
 BYTE   N06  Dn1  v080
 BYTE   W06
 BYTE   N06
 BYTE   W06
 BYTE   Dn1  v076
 BYTE   W06
 BYTE   Cn1  v064
 BYTE   W06
 BYTE   As1  v092
 BYTE   W06
 BYTE   Fs1  v072
 BYTE   W06
 BYTE   Fs1  v080
 BYTE   W06
 BYTE   Cn1  v052
 BYTE   W06
 BYTE   As1  v096
 BYTE   W06
 BYTE   Cn1  v056
 BYTE   W06
 BYTE   Dn1  v088
 BYTE   W06
 BYTE   Cn1  v064
 BYTE   W06
 BYTE   Fs1  v100
 BYTE   W06
 BYTE   Cn1  v064
 BYTE   W06
// 195   ----------------------------------------
 BYTE   N12  Dn1  v088
 BYTE   W12
 BYTE   N06  Dn1  v080
 BYTE   W06
 BYTE   Dn1  v076
 BYTE   W06
 BYTE   N06
 BYTE   W06
 BYTE   Cn1  v064
 BYTE   W06
 BYTE   As1  v100
 BYTE   W06
 BYTE   Fs1  v072
 BYTE   W06
 BYTE   Fs1  v076
 BYTE   W06
 BYTE   Cn1  v060
 BYTE   W06
 BYTE   As1  v096
 BYTE   W06
 BYTE   Cn1  v060
 BYTE   W06
 BYTE   Dn1  v096
 BYTE   W06
 BYTE   Cn1  v064
 BYTE   W06
 BYTE   Fs1  v096
 BYTE   W06
 BYTE   Cn1  v060
 BYTE   W06
// 196   ----------------------------------------
 BYTE   N12  Cs2  v096
 BYTE   W12
 BYTE   N06  Dn1  v060
 BYTE   W06
 BYTE   Dn1  v072
 BYTE   W06
 BYTE   Dn1  v084
 BYTE   W06
 BYTE   Cn1  v064
 BYTE   W06
 BYTE   As1  v100
 BYTE   W06
 BYTE   Fs1  v076
 BYTE   W06
 BYTE   N06
 BYTE   W06
 BYTE   Cn1  v056
 BYTE   W06
 BYTE   As1  v096
 BYTE   W06
 BYTE   Cn1  v064
 BYTE   W06
 BYTE   Dn1  v088
 BYTE   W06
 BYTE   Cn1  v064
 BYTE   W06
 BYTE   Fs1  v096
 BYTE   W06
 BYTE   Cn1  v060
 BYTE   W06
// 197   ----------------------------------------
 BYTE   N12  Dn1  v088
 BYTE   W12
 BYTE   N06  Dn1  v076
 BYTE   W06
 BYTE   Dn1  v080
 BYTE   W06
 BYTE   N06
 BYTE   W06
 BYTE   Cn1  v060
 BYTE   W06
 BYTE   As1  v092
 BYTE   W06
 BYTE   Fs1  v076
 BYTE   W06
 BYTE   N06
 BYTE   W06
 BYTE   Cn1  v056
 BYTE   W06
 BYTE   As1  v096
 BYTE   W06
 BYTE   Cn1  v060
 BYTE   W06
 BYTE   Dn1  v092
 BYTE   W06
 BYTE   Cn1  v068
 BYTE   W06
 BYTE   Fs1  v096
 BYTE   W06
 BYTE   Cn1  v060
 BYTE   W06
// 198   ----------------------------------------
 BYTE   N12  Dn1  v088
 BYTE   W12
 BYTE   N06  Dn1  v080
 BYTE   W06
 BYTE   Dn1  v076
 BYTE   W06
 BYTE   Dn1  v080
 BYTE   W06
 BYTE   Cn1  v068
 BYTE   W06
 BYTE   As1  v096
 BYTE   W06
 BYTE   Fs1  v072
 BYTE   W06
 BYTE   Fs1  v076
 BYTE   W06
 BYTE   Cn1  v056
 BYTE   W06
 BYTE   As1  v088
 BYTE   W06
 BYTE   Cn1  v060
 BYTE   W06
 BYTE   Dn1  v088
 BYTE   W06
 BYTE   Cn1  v064
 BYTE   W06
 BYTE   Fs1  v096
 BYTE   W06
 BYTE   Cn1  v056
 BYTE   W06
// 199   ----------------------------------------
 BYTE   N12  Dn1  v092
 BYTE   W12
 BYTE   N06  Dn1  v080
 BYTE   W06
 BYTE   Dn1  v076
 BYTE   W06
 BYTE   Dn1  v080
 BYTE   W06
 BYTE   Cn1  v060
 BYTE   W06
 BYTE   As1  v100
 BYTE   W06
 BYTE   Fs1  v076
 BYTE   W06
 BYTE   Fs1  v080
 BYTE   W06
 BYTE   Cn1  v052
 BYTE   W06
 BYTE   As1  v100
 BYTE   W06
 BYTE   Cn1  v056
 BYTE   W06
 BYTE   Dn1  v088
 BYTE   W06
 BYTE   Cn1  v064
 BYTE   W06
 BYTE   Fs1  v100
 BYTE   W06
 BYTE   Cn1  v060
 BYTE   W06
// 200   ----------------------------------------
 BYTE   N12  Cs2  v096
 BYTE   W12
 BYTE   N06  Dn1  v060
 BYTE   W06
 BYTE   Dn1  v072
 BYTE   W06
 BYTE   Dn1  v076
 BYTE   W06
 BYTE   Cn1  v060
 BYTE   W06
 BYTE   As1  v096
 BYTE   W06
 BYTE   Fs1  v076
 BYTE   W06
 BYTE   Fs1  v080
 BYTE   W06
 BYTE   Cn1  v056
 BYTE   W06
 BYTE   As1  v100
 BYTE   W06
 BYTE   Cn1  v056
 BYTE   W06
 BYTE   Dn1  v096
 BYTE   W06
 BYTE   Cn1  v072
 BYTE   W06
 BYTE   Fs1  v096
 BYTE   W06
 BYTE   Cn1  v060
 BYTE   W06
// 201   ----------------------------------------
 BYTE   N12  Dn1  v092
 BYTE   W12
 BYTE   N06  Dn1  v076
 BYTE   W06
 BYTE   N06
 BYTE   W06
 BYTE   N06
 BYTE   W06
 BYTE   Cn1  v068
 BYTE   W06
 BYTE   As1  v096
 BYTE   W06
 BYTE   Fs1  v076
 BYTE   W06
 BYTE   N06
 BYTE   W06
 BYTE   Cn1  v056
 BYTE   W06
 BYTE   As1  v092
 BYTE   W06
 BYTE   Cn1  v056
 BYTE   W06
 BYTE   Dn1  v092
 BYTE   W06
 BYTE   Cn1  v060
 BYTE   W06
 BYTE   Fs1  v096
 BYTE   W06
 BYTE   Cn1  v060
 BYTE   W06
// 202   ----------------------------------------
 BYTE   N12  Dn1  v088
 BYTE   W12
 BYTE   N06  Dn1  v076
 BYTE   W06
 BYTE   N06
 BYTE   W06
 BYTE   N06
 BYTE   W06
 BYTE   Cn1  v056
 BYTE   W06
 BYTE   As1  v096
 BYTE   W06
 BYTE   Fs1  v080
 BYTE   W06
 BYTE   Fs1  v076
 BYTE   W06
 BYTE   Cn1  v056
 BYTE   W06
 BYTE   As1  v092
 BYTE   W06
 BYTE   Cn1  v060
 BYTE   W06
 BYTE   Dn1  v088
 BYTE   W06
 BYTE   Cn1  v064
 BYTE   W06
 BYTE   Fs1  v104
 BYTE   W06
 BYTE   Cn1  v060
 BYTE   W06
// 203   ----------------------------------------
 BYTE   N12  Dn1  v088
 BYTE   W12
 BYTE   N06  Dn1  v080
 BYTE   W06
 BYTE   Dn1  v076
 BYTE   W06
 BYTE   N06
 BYTE   W06
 BYTE   Cn1  v060
 BYTE   W06
 BYTE   As1  v096
 BYTE   W06
 BYTE   Fs1  v076
 BYTE   W06
 BYTE   N06
 BYTE   W06
 BYTE   Cn1  v056
 BYTE   W06
 BYTE   As1  v092
 BYTE   W06
 BYTE   Cn1  v060
 BYTE   W06
 BYTE   Dn1  v088
 BYTE   W06
 BYTE   Cn1  v064
 BYTE   W06
 BYTE   Fs1  v096
 BYTE   W06
 BYTE   Cn1  v060
 BYTE   W06
// 204   ----------------------------------------
 BYTE   N12  An2  v100
 BYTE   W12
 BYTE   Dn1  v064
 BYTE   W12
 BYTE   Dn1  v076
 BYTE   W12
 BYTE   Cs2  v096
 BYTE   W12
 BYTE   Dn1  v060
 BYTE   W12
 BYTE   Dn1  v076
 BYTE   W12
 BYTE   An2  v096
 BYTE   W12
 BYTE   Dn1  v060
 BYTE   W12
// 205   ----------------------------------------
 BYTE   Dn1  v072
 BYTE   W12
 BYTE   Cs2  v100
 BYTE   W12
 BYTE   Dn1  v060
 BYTE   W12
 BYTE   Dn1  v072
 BYTE   W12
 BYTE   An2  v104
 BYTE   W12
 BYTE   Dn1  v056
 BYTE   W12
 BYTE   Cs2  v096
 BYTE   W12
 BYTE   Dn1  v060
 BYTE   W12
// 206   ----------------------------------------
 BYTE   An2  v096
 BYTE   W12
 BYTE   Dn1  v064
 BYTE   W12
 BYTE   Dn1  v076
 BYTE   W12
 BYTE   Cs2  v096
 BYTE   W12
 BYTE   Dn1  v064
 BYTE   W12
 BYTE   Dn1  v072
 BYTE   W12
 BYTE   An2  v100
 BYTE   W12
 BYTE   Dn1  v064
 BYTE   W12
// 207   ----------------------------------------
 BYTE   Dn1  v076
 BYTE   W12
 BYTE   Cs2  v096
 BYTE   W12
 BYTE   Dn1  v060
 BYTE   W12
 BYTE   Dn1  v076
 BYTE   W12
 BYTE   An2  v100
 BYTE   W12
 BYTE   Dn1  v060
 BYTE   W12
 BYTE   Cs2  v092
 BYTE   W12
 BYTE   Dn1  v056
 BYTE   W12
// 208   ----------------------------------------
 BYTE   An2  v096
 BYTE   W12
 BYTE   Dn1  v056
 BYTE   W12
 BYTE   Dn1  v076
 BYTE   W12
 BYTE   Cs2  v096
 BYTE   W12
 BYTE   Dn1  v060
 BYTE   W12
 BYTE   Dn1  v072
 BYTE   W12
 BYTE   An2  v096
 BYTE   W12
 BYTE   Dn1  v060
 BYTE   W12
// 209   ----------------------------------------
 BYTE   Dn1  v076
 BYTE   W12
 BYTE   Cs2  v100
 BYTE   W12
 BYTE   Dn1  v064
 BYTE   W12
 BYTE   Dn1  v076
 BYTE   W12
 BYTE   An2  v096
 BYTE   W12
 BYTE   Dn1  v056
 BYTE   W12
 BYTE   Cs2  v092
 BYTE   W12
 BYTE   Dn1  v060
 BYTE   W12
// 210   ----------------------------------------
 BYTE   An2  v100
 BYTE   W12
 BYTE   Dn1  v064
 BYTE   W12
 BYTE   Dn1  v076
 BYTE   W12
 BYTE   Cs2  v100
 BYTE   W12
 BYTE   Dn1  v060
 BYTE   W12
 BYTE   Dn1  v080
 BYTE   W12
 BYTE   An2  v092
 BYTE   W12
 BYTE   Dn1  v060
 BYTE   W12
// 211   ----------------------------------------
 BYTE   Dn1  v076
 BYTE   W12
 BYTE   Cs2  v096
 BYTE   W12
 BYTE   Dn1  v064
 BYTE   W12
 BYTE   Dn1  v072
 BYTE   W12
 BYTE   An2  v096
 BYTE   W12
 BYTE   Dn1  v060
 BYTE   W12
 BYTE   Cs2  v096
 BYTE   W12
 BYTE   Dn1  v060
 BYTE   W12
// 212   ----------------------------------------
 BYTE   An2  v096
 BYTE   W12
 BYTE   Dn1  v060
 BYTE   W12
 BYTE   Dn1  v072
 BYTE   W12
 BYTE   Cs2  v104
 BYTE   W12
 BYTE   Dn1  v064
 BYTE   W12
 BYTE   Dn1  v072
 BYTE   W12
 BYTE   An2  v100
 BYTE   W12
 BYTE   Dn1  v056
 BYTE   W12
// 213   ----------------------------------------
 BYTE   Dn1  v076
 BYTE   W12
 BYTE   Cs2  v100
 BYTE   W12
 BYTE   Dn1  v060
 BYTE   W12
 BYTE   Dn1  v076
 BYTE   W12
 BYTE   An2  v096
 BYTE   W12
 BYTE   Dn1  v060
 BYTE   W12
 BYTE   Cs2  v096
 BYTE   W12
 BYTE   Dn1  v060
 BYTE   W12
// 214   ----------------------------------------
 BYTE   An2  v096
 BYTE   W12
 BYTE   Dn1  v060
 BYTE   W12
 BYTE   Dn1  v076
 BYTE   W12
 BYTE   Cs2  v100
 BYTE   W12
 BYTE   Dn1  v060
 BYTE   W12
 BYTE   Dn1  v076
 BYTE   W12
 BYTE   An2  v100
 BYTE   W12
 BYTE   Dn1  v060
 BYTE   W12
// 215   ----------------------------------------
 BYTE   Dn1  v076
 BYTE   W12
 BYTE   Cs2  v100
 BYTE   W12
 BYTE   Dn1  v060
 BYTE   W12
 BYTE   Dn1  v076
 BYTE   W12
 BYTE   An2  v096
 BYTE   W12
 BYTE   Dn1  v060
 BYTE   W12
 BYTE   Cs2  v088
 BYTE   W12
 BYTE   Dn1  v060
 BYTE   W12
// 216   ----------------------------------------
 BYTE   An2  v092
 BYTE   W12
 BYTE   Dn1  v060
 BYTE   W12
 BYTE   Dn1  v076
 BYTE   W12
 BYTE   Cs2  v096
 BYTE   W12
 BYTE   Dn1  v060
 BYTE   W12
 BYTE   Dn1  v072
 BYTE   W12
 BYTE   An2  v096
 BYTE   W12
 BYTE   Dn1  v060
 BYTE   W12
// 217   ----------------------------------------
 BYTE   Dn1  v076
 BYTE   W12
 BYTE   Cs2  v100
 BYTE   W12
 BYTE   Dn1  v064
 BYTE   W12
 BYTE   Dn1  v076
 BYTE   W12
 BYTE   An2  v096
 BYTE   W12
 BYTE   Dn1  v060
 BYTE   W12
 BYTE   Cs2  v092
 BYTE   W12
 BYTE   Dn1  v064
 BYTE   W12
// 218   ----------------------------------------
 BYTE   An2  v096
 BYTE   W12
 BYTE   Dn1  v060
 BYTE   W12
 BYTE   Dn1  v076
 BYTE   W12
 BYTE   Cs2  v100
 BYTE   W12
 BYTE   Dn1  v064
 BYTE   W12
 BYTE   Dn1  v072
 BYTE   W12
 BYTE   An2  v100
 BYTE   W12
 BYTE   Dn1  v064
 BYTE   W12
// 219   ----------------------------------------
 BYTE   Dn1  v076
 BYTE   W12
 BYTE   Cs2  v092
 BYTE   W12
 BYTE   Dn1  v060
 BYTE   W12
 BYTE   Dn1  v072
 BYTE   W12
 BYTE   N06  Cs2  v096
 BYTE   W06
 BYTE   Dn1  v064
 BYTE   W06
 BYTE   Dn1  v072
 BYTE   W06
 BYTE   Dn1  v076
 BYTE   W06
 BYTE   Cs2  v096
 BYTE   W06
 BYTE   Dn1  v064
 BYTE   W06
 BYTE   Dn1  v072
 BYTE   W06
 BYTE   Dn1  v080
 BYTE   W06
// 220   ----------------------------------------
 BYTE   Cs2  v096
 BYTE   W12
 BYTE   GoTo
  POIN2 Label_3_0189861A
 BYTE   FINE

//******************************************************//
	ALIGN 4

PokemonTCG2GrandmasterDuelPandan:
	BYTE	4	// NumTrks
	BYTE	0	// NumBlks
	BYTE	PokemonTCG2GrandmasterDuelPandan_pri	// Priority
	BYTE	PokemonTCG2GrandmasterDuelPandan_rev	// Reverb.
    
	POIN2	PokemonTCG2GrandmasterDuelPandan_grp
    
	POIN2	PokemonTCG2GrandmasterDuelPandan_001
	POIN2	PokemonTCG2GrandmasterDuelPandan_002
	POIN2	PokemonTCG2GrandmasterDuelPandan_003
	POIN2	PokemonTCG2GrandmasterDuelPandan_004

	
