//Event file generated from Sappy .s format.
	#include "MPlayDef.event"

	#define	PokemonMDExplorersSteamCaveRandomWizard_grp  voicegroup000
	#define	PokemonMDExplorersSteamCaveRandomWizard_pri  0
	#define	PokemonMDExplorersSteamCaveRandomWizard_rev  0
	#define	PokemonMDExplorersSteamCaveRandomWizard_mvl  127
	#define	PokemonMDExplorersSteamCaveRandomWizard_key  0
	#define	PokemonMDExplorersSteamCaveRandomWizard_tbs  1
	#define	PokemonMDExplorersSteamCaveRandomWizard_exg  0
	#define	PokemonMDExplorersSteamCaveRandomWizard_cmp  1

	// .rodata
	//	PokemonMDExplorersSteamCaveRandomWizard
	ALIGN 4


//**************** Track 1 (Midi-Chn.0) ****************//

PokemonMDExplorersSteamCaveRandomWizard_001:
// 000   ----------------------------------------
 BYTE   KEYSH   PokemonMDExplorersSteamCaveRandomWizard_key+0
Label_0_01056162:
 BYTE   TEMPO   94*PokemonMDExplorersSteamCaveRandomWizard_tbs/2
 BYTE   VOICE   52
 BYTE   PAN   c_v+0
 BYTE   VOL   37*PokemonMDExplorersSteamCaveRandomWizard_mvl/mxv
 BYTE   BEND   c_v+0
 BYTE   N12  En0  v127
 BYTE   W24
 BYTE   N12
 BYTE   W24
 BYTE   N12
 BYTE   W24
 BYTE   N12
 BYTE   W24
// 001   ----------------------------------------
 BYTE   N12
 BYTE   W24
 BYTE   N12
 BYTE   W24
 BYTE   N12
 BYTE   W24
 BYTE   N12
 BYTE   W24
// 002   ----------------------------------------
 BYTE   N12
 BYTE   W24
 BYTE   N12
 BYTE   W24
 BYTE   N12
 BYTE   W24
 BYTE   N12
 BYTE   W24
// 003   ----------------------------------------
 BYTE   N12
 BYTE   W24
 BYTE   N12
 BYTE   W24
 BYTE   N12
 BYTE   W24
 BYTE   N12
 BYTE   W24
// 004   ----------------------------------------
 BYTE   N12
 BYTE   W24
 BYTE   N12
 BYTE   W24
 BYTE   N12
 BYTE   W24
 BYTE   N12
 BYTE   W24
// 005   ----------------------------------------
 BYTE   N12
 BYTE   W24
 BYTE   N12
 BYTE   W24
 BYTE   N12
 BYTE   W24
 BYTE   N12
 BYTE   W24
// 006   ----------------------------------------
 BYTE   N12
 BYTE   W24
 BYTE   N12
 BYTE   W24
 BYTE   N12
 BYTE   W24
 BYTE   N12
 BYTE   W24
// 007   ----------------------------------------
 BYTE   N12
 BYTE   W24
 BYTE   N12
 BYTE   W24
 BYTE   N12
 BYTE   W24
 BYTE   N12
 BYTE   W24
// 008   ----------------------------------------
 BYTE   N12
 BYTE   W24
 BYTE   N12
 BYTE   W24
 BYTE   N12
 BYTE   W24
 BYTE   N12
 BYTE   W24
// 009   ----------------------------------------
 BYTE   N12
 BYTE   W24
 BYTE   N12
 BYTE   W24
 BYTE   N12
 BYTE   W24
 BYTE   N12
 BYTE   W24
// 010   ----------------------------------------
 BYTE   N12
 BYTE   W24
 BYTE   N12
 BYTE   W24
 BYTE   N12
 BYTE   W24
 BYTE   N12
 BYTE   W24
// 011   ----------------------------------------
 BYTE   N12
 BYTE   W24
 BYTE   N12
 BYTE   W24
 BYTE   N12
 BYTE   W24
 BYTE   N12
 BYTE   W24
// 012   ----------------------------------------
 BYTE   N12
 BYTE   W24
 BYTE   N12
 BYTE   W24
 BYTE   N12
 BYTE   W24
 BYTE   N12
 BYTE   W24
// 013   ----------------------------------------
 BYTE   N12
 BYTE   W24
 BYTE   N12
 BYTE   W24
 BYTE   N12
 BYTE   W24
 BYTE   N12
 BYTE   W24
// 014   ----------------------------------------
 BYTE   N12
 BYTE   W24
 BYTE   N12
 BYTE   W24
 BYTE   N12
 BYTE   W24
 BYTE   N12
 BYTE   W24
// 015   ----------------------------------------
 BYTE   N12
 BYTE   W24
 BYTE   N12
 BYTE   W24
 BYTE   N12
 BYTE   W24
 BYTE   N12
 BYTE   W24
// 016   ----------------------------------------
 BYTE   Fn0
 BYTE   W24
 BYTE   N12
 BYTE   W24
 BYTE   N12
 BYTE   W24
 BYTE   N12
 BYTE   W24
// 017   ----------------------------------------
 BYTE   N12
 BYTE   W24
 BYTE   N12
 BYTE   W24
 BYTE   N12
 BYTE   W24
 BYTE   N12
 BYTE   W24
// 018   ----------------------------------------
 BYTE   En0
 BYTE   W24
 BYTE   N12
 BYTE   W24
 BYTE   N12
 BYTE   W24
 BYTE   N12
 BYTE   W24
// 019   ----------------------------------------
 BYTE   N12
 BYTE   W24
 BYTE   N12
 BYTE   W24
 BYTE   N12
 BYTE   W24
 BYTE   N12
 BYTE   W24
// 020   ----------------------------------------
 BYTE   Fn0
 BYTE   W24
 BYTE   N12
 BYTE   W24
 BYTE   N12
 BYTE   W24
 BYTE   N12
 BYTE   W24
// 021   ----------------------------------------
 BYTE   N12
 BYTE   W24
 BYTE   N12
 BYTE   W24
 BYTE   N12
 BYTE   W24
 BYTE   N12
 BYTE   W24
// 022   ----------------------------------------
 BYTE   En0
 BYTE   W24
 BYTE   N12
 BYTE   W24
 BYTE   N12
 BYTE   W24
 BYTE   N12
 BYTE   W24
// 023   ----------------------------------------
 BYTE   N12
 BYTE   W24
 BYTE   N12
 BYTE   W24
 BYTE   Fn0
 BYTE   W24
 BYTE   N12
 BYTE   W24
// 024   ----------------------------------------
 BYTE   En0
 BYTE   W24
 BYTE   N12
 BYTE   W24
 BYTE   N12
 BYTE   W24
 BYTE   N12
 BYTE   W24
// 025   ----------------------------------------
 BYTE   N12
 BYTE   W24
 BYTE   N12
 BYTE   W24
 BYTE   Fn0
 BYTE   W24
 BYTE   N12
 BYTE   W24
// 026   ----------------------------------------
Label_0_0105623E:
 BYTE   N06  En0  v127
 BYTE   W12
 BYTE   N06
 BYTE   W12
 BYTE   PEND 
 BYTE   W12
 BYTE   N06
 BYTE   W12
 BYTE   N06
 BYTE   W24
 BYTE   PATT
  POIN2 Label_0_0105623E
// 027   ----------------------------------------
 BYTE   W12
 BYTE   N06  Ds0  v127
 BYTE   W12
 BYTE   N06
 BYTE   W24
 BYTE   N06
 BYTE   W12
 BYTE   N06
 BYTE   W12
 BYTE   W12
 BYTE   N06
 BYTE   W12
// 028   ----------------------------------------
 BYTE   Fs0
 BYTE   W24
 BYTE   N06
 BYTE   W12
 BYTE   N06
 BYTE   W12
 BYTE   W12
 BYTE   N06
 BYTE   W12
 BYTE   N06
 BYTE   W24
// 029   ----------------------------------------
Label_0_01056268:
 BYTE   N06  Fn0  v127
 BYTE   W12
 BYTE   N06
 BYTE   W12
 BYTE   PEND 
 BYTE   W12
 BYTE   N06
 BYTE   W12
 BYTE   N06
 BYTE   W24
 BYTE   PATT
  POIN2 Label_0_01056268
// 030   ----------------------------------------
 BYTE   W12
 BYTE   N06  Gs0  v127
 BYTE   W12
 BYTE   N06
 BYTE   W24
 BYTE   N06
 BYTE   W12
 BYTE   N06
 BYTE   W12
 BYTE   W12
 BYTE   N06
 BYTE   W12
// 031   ----------------------------------------
 BYTE   Gn0
 BYTE   W24
 BYTE   N06
 BYTE   W12
 BYTE   N06
 BYTE   W12
 BYTE   W12
 BYTE   N06
 BYTE   W12
 BYTE   N06
 BYTE   W24
// 032   ----------------------------------------
Label_0_01056292:
 BYTE   N06  As0  v127
 BYTE   W12
 BYTE   N06
 BYTE   W12
 BYTE   PEND 
 BYTE   W12
 BYTE   N06
 BYTE   W12
 BYTE   N06
 BYTE   W24
 BYTE   PATT
  POIN2 Label_0_01056292
// 033   ----------------------------------------
 BYTE   W12
 BYTE   N06  Cs1  v127
 BYTE   W12
 BYTE   N06
 BYTE   W24
 BYTE   N06
 BYTE   W12
 BYTE   N06
 BYTE   W12
 BYTE   W12
 BYTE   N06
 BYTE   W12
// 034   ----------------------------------------
 BYTE   W24
 BYTE   W24
 BYTE   W24
 BYTE   W24
// 035   ----------------------------------------
 BYTE   W24
 BYTE   W24
 BYTE   W24
 BYTE   W24
// 036   ----------------------------------------
 BYTE   W24
 BYTE   W24
 BYTE   W24
 BYTE   W24
// 037   ----------------------------------------
 BYTE   W24
 BYTE   W24
 BYTE   W24
 BYTE   W24
// 038   ----------------------------------------
 BYTE   W24
 BYTE   W24
 BYTE   W24
 BYTE   W24
// 039   ----------------------------------------
 BYTE   W24
 BYTE   W24
 BYTE   W24
 BYTE   W24
// 040   ----------------------------------------
 BYTE   W24
 BYTE   W24
 BYTE   W24
 BYTE   W24
// 041   ----------------------------------------
 BYTE   W24
 BYTE   W24
 BYTE   W24
 BYTE   W24
// 042   ----------------------------------------
 BYTE   GoTo
  POIN2 Label_0_01056162
 BYTE   FINE

//**************** Track 2 (Midi-Chn.1) ****************//

PokemonMDExplorersSteamCaveRandomWizard_002:
// 000   ----------------------------------------
 BYTE   KEYSH   PokemonMDExplorersSteamCaveRandomWizard_key+0
Label_1_010562DA:
 BYTE   VOICE   13
 BYTE   PAN   c_v+0
 BYTE   VOL   31*PokemonMDExplorersSteamCaveRandomWizard_mvl/mxv
 BYTE   BEND   c_v+0
 BYTE   W24
 BYTE   W24
 BYTE   W24
 BYTE   W24
// 001   ----------------------------------------
 BYTE   W24
 BYTE   W24
 BYTE   W24
 BYTE   W24
// 002   ----------------------------------------
 BYTE   W24
 BYTE   W24
 BYTE   W24
 BYTE   W24
// 003   ----------------------------------------
 BYTE   W24
 BYTE   W24
 BYTE   W24
 BYTE   W24
// 004   ----------------------------------------
 BYTE   W24
 BYTE   W24
 BYTE   W24
 BYTE   W24
// 005   ----------------------------------------
 BYTE   W24
 BYTE   W24
 BYTE   W24
 BYTE   W24
// 006   ----------------------------------------
 BYTE   W24
 BYTE   W24
 BYTE   W24
 BYTE   W24
// 007   ----------------------------------------
 BYTE   W24
 BYTE   W24
 BYTE   W24
 BYTE   W24
// 008   ----------------------------------------
 BYTE   W24
 BYTE   W24
 BYTE   W24
 BYTE   W24
// 009   ----------------------------------------
 BYTE   W24
 BYTE   W24
 BYTE   W24
 BYTE   W24
// 010   ----------------------------------------
 BYTE   W24
 BYTE   W24
 BYTE   W24
 BYTE   W24
// 011   ----------------------------------------
 BYTE   W24
 BYTE   W24
 BYTE   W24
 BYTE   W24
// 012   ----------------------------------------
 BYTE   W24
 BYTE   W24
 BYTE   W24
 BYTE   W24
// 013   ----------------------------------------
 BYTE   W24
 BYTE   W24
 BYTE   W24
 BYTE   W24
// 014   ----------------------------------------
Label_1_0105631A:
 BYTE   N48  Fs3  v100
 BYTE   N48  An3
 BYTE   N48  Dn4
 BYTE   W24
 BYTE   PEND 
 BYTE   W24
Label_1_01056324:
 BYTE   N48  An3  v100
 BYTE   N48  Dn4
 BYTE   N48  Fs4
 BYTE   W24
 BYTE   PEND 
 BYTE   W24
// 015   ----------------------------------------
Label_1_0105632E:
 BYTE   N48  Dn3  v100
 BYTE   N48  Fs3
 BYTE   N48  An3
 BYTE   W24
 BYTE   PEND 
 BYTE   W24
 BYTE   PATT
  POIN2 Label_1_0105631A
// 016   ----------------------------------------
 BYTE   W24
Label_1_0105633E:
 BYTE   N48  Gn3  v100
 BYTE   N48  Cn4
 BYTE   N48  En4
 BYTE   W24
 BYTE   PEND 
 BYTE   W24
 BYTE   N96  En3
 BYTE   N96  Gn3
 BYTE   N96  Cn4
 BYTE   W24
// 017   ----------------------------------------
 BYTE   W24
 BYTE   W24
 BYTE   W24
 BYTE   N24
 BYTE   N24  En4
 BYTE   N24  Gn4
 BYTE   W24
// 018   ----------------------------------------
 BYTE   Gn3
 BYTE   N24  Cn4
 BYTE   N24  En4
 BYTE   W24
 BYTE   PATT
  POIN2 Label_1_01056324
// 019   ----------------------------------------
 BYTE   W24
 BYTE   PATT
  POIN2 Label_1_0105631A
// 020   ----------------------------------------
 BYTE   W24
 BYTE   PATT
  POIN2 Label_1_0105632E
// 021   ----------------------------------------
 BYTE   W24
 BYTE   PATT
  POIN2 Label_1_0105631A
// 022   ----------------------------------------
 BYTE   W24
 BYTE   PATT
  POIN2 Label_1_0105633E
// 023   ----------------------------------------
 BYTE   W24
 BYTE   N72  En3  v100
 BYTE   N72  Gn3
 BYTE   N72  Cn4
 BYTE   W24
 BYTE   W24
 BYTE   W24
// 024   ----------------------------------------
 BYTE   N48  En3
 BYTE   N48  Gn3
 BYTE   N48  Cn4
 BYTE   W24
 BYTE   W24
 BYTE   N24  En3
 BYTE   N24  Gn3
 BYTE   N24  Dn4
 BYTE   W24
Label_1_01056395:
 BYTE   TIE  Dn3  v100
 BYTE   TIE  Fs3
 BYTE   TIE  Bn3
 BYTE   W24
 BYTE   PEND 
// 025   ----------------------------------------
 BYTE   W24
 BYTE   W24
 BYTE   W24
 BYTE   W24
// 026   ----------------------------------------
 BYTE   W24
 BYTE   EOT
 BYTE   Dn3  v066
 BYTE   Bn3
 BYTE   N24  En3
 BYTE   N24  Gn3
 BYTE   N24  Cn4
 BYTE   W24
 BYTE   En3
 BYTE   N24  Gn3
 BYTE   N24  Dn4
 BYTE   W24
 BYTE   PATT
  POIN2 Label_1_01056395
// 027   ----------------------------------------
 BYTE   W24
 BYTE   W24
 BYTE   W24
 BYTE   W24
// 028   ----------------------------------------
 BYTE   W24
 BYTE   EOT
 BYTE   Dn3  v066
 BYTE   Bn3
 BYTE   N24  En3  v100
 BYTE   N24  Gn3
 BYTE   N24  Cn4
 BYTE   W24
 BYTE   En3
 BYTE   N24  Gn3
 BYTE   N24  Dn4
 BYTE   W24
 BYTE   N12  En2  v092
 BYTE   N12  An3
 BYTE   N12  Dn4
 BYTE   W12
 BYTE   Bn2
 BYTE   N12  Gn3
 BYTE   W12
// 029   ----------------------------------------
 BYTE   En3  v096
 BYTE   N12  An3
 BYTE   N12  Dn4
 BYTE   W12
 BYTE   Bn2
 BYTE   N12  Gn3
 BYTE   W12
 BYTE   En3  v100
 BYTE   N12  An3
 BYTE   N12  Dn4
 BYTE   W12
 BYTE   Bn2  v104
 BYTE   N12  Gn3
 BYTE   W12
 BYTE   En3  v108
 BYTE   N12  An3
 BYTE   N12  Dn4
 BYTE   W12
 BYTE   Bn2  v116
 BYTE   N12  Gn3
 BYTE   W12
 BYTE   Ds2  v120
 BYTE   N12  Gs3
 BYTE   N12  Cs4
 BYTE   W12
 BYTE   As2  v112
 BYTE   N12  Fs3
 BYTE   W12
// 030   ----------------------------------------
 BYTE   Ds3  v104
 BYTE   N12  Gs3
 BYTE   N12  Cs4
 BYTE   W12
 BYTE   As2  v096
 BYTE   N12  Fs3
 BYTE   W12
 BYTE   Ds3  v092
 BYTE   N12  Gs3
 BYTE   N12  Cs4
 BYTE   W12
 BYTE   As2  v088
 BYTE   N12  Fs3
 BYTE   W12
 BYTE   Ds3
 BYTE   N12  Gs3
 BYTE   N12  Cs4
 BYTE   W12
 BYTE   As2  v080
 BYTE   N12  Fs3
 BYTE   W12
 BYTE   Fs2  v084
 BYTE   N12  Bn3
 BYTE   N12  En4
 BYTE   W12
 BYTE   Cs3
 BYTE   N12  An3
 BYTE   W12
// 031   ----------------------------------------
 BYTE   Fs3  v088
 BYTE   N12  Bn3
 BYTE   N12  En4
 BYTE   W12
 BYTE   Cs3
 BYTE   N12  An3
 BYTE   W12
 BYTE   Fs3  v092
 BYTE   N12  Bn3
 BYTE   N12  En4
 BYTE   W12
 BYTE   Cs3  v096
 BYTE   N12  An3
 BYTE   W12
 BYTE   Fs3  v104
 BYTE   N12  Bn3
 BYTE   N12  En4
 BYTE   W12
 BYTE   Cs3  v112
 BYTE   N12  An3
 BYTE   W12
 BYTE   Fn2  v124
 BYTE   N12  As3
 BYTE   N12  Ds4
 BYTE   W12
 BYTE   Cn3  v116
 BYTE   N12  Gs3
 BYTE   W12
// 032   ----------------------------------------
 BYTE   Fn3  v108
 BYTE   N12  As3
 BYTE   N12  Ds4
 BYTE   W12
 BYTE   Cn3  v100
 BYTE   N12  Gs3
 BYTE   W12
 BYTE   Fn3  v096
 BYTE   N12  As3
 BYTE   N12  Ds4
 BYTE   W12
 BYTE   Cn3  v092
 BYTE   N12  Gs3
 BYTE   W12
 BYTE   Fn3  v088
 BYTE   N12  As3
 BYTE   N12  Ds4
 BYTE   W12
 BYTE   Cn3  v080
 BYTE   N12  Gs3
 BYTE   W12
 BYTE   Gs2  v084
 BYTE   N12  Cs4
 BYTE   N12  Fs4
 BYTE   W12
 BYTE   Ds3
 BYTE   N12  Bn3
 BYTE   W12
// 033   ----------------------------------------
 BYTE   Gs3  v088
 BYTE   N12  Cs4
 BYTE   N12  Fs4
 BYTE   W12
 BYTE   Ds3
 BYTE   N12  Bn3
 BYTE   W12
 BYTE   Gs3  v092
 BYTE   N12  Cs4
 BYTE   N12  Fs4
 BYTE   W12
 BYTE   Ds3  v096
 BYTE   N12  Bn3
 BYTE   W12
 BYTE   Gs3  v100
 BYTE   N12  Cs4
 BYTE   N12  Fs4
 BYTE   W12
 BYTE   Ds3  v108
 BYTE   N12  Bn3
 BYTE   W12
 BYTE   Gn2  v120
 BYTE   N12  Cn4
 BYTE   N12  Fn4
 BYTE   W12
 BYTE   Dn3  v112
 BYTE   N12  As3
 BYTE   W12
// 034   ----------------------------------------
 BYTE   Gn3  v100
 BYTE   N12  Cn4
 BYTE   N12  Fn4
 BYTE   W12
 BYTE   Dn3  v096
 BYTE   N12  As3
 BYTE   W12
 BYTE   Gn3  v088
 BYTE   N12  Cn4
 BYTE   N12  Fn4
 BYTE   W12
 BYTE   Dn3  v084
 BYTE   N12  As3
 BYTE   W12
 BYTE   Gn3  v080
 BYTE   N12  Cn4
 BYTE   N12  Fn4
 BYTE   W12
 BYTE   Dn3
 BYTE   N12  As3
 BYTE   W12
 BYTE   As2
 BYTE   N12  Ds4
 BYTE   N12  Gs4
 BYTE   W12
 BYTE   Fn3
 BYTE   N12  Cs4
 BYTE   W12
// 035   ----------------------------------------
 BYTE   As3  v084
 BYTE   N12  Ds4
 BYTE   N12  Gs4
 BYTE   W12
 BYTE   Fn3  v088
 BYTE   N12  Cs4
 BYTE   W12
 BYTE   As3  v092
 BYTE   N12  Ds4
 BYTE   N12  Gs4
 BYTE   W12
 BYTE   Fn3  v096
 BYTE   N12  Cs4
 BYTE   W12
 BYTE   As3  v104
 BYTE   N12  Ds4
 BYTE   N12  Gs4
 BYTE   W12
 BYTE   Fn3  v108
 BYTE   N12  Cs4
 BYTE   W12
 BYTE   Cs3  v120
 BYTE   N12  Fs4
 BYTE   N12  Bn4
 BYTE   W12
 BYTE   Gs3  v112
 BYTE   N12  En4
 BYTE   W12
// 036   ----------------------------------------
 BYTE   Cs4  v104
 BYTE   N12  Fs4
 BYTE   N12  Bn4
 BYTE   W12
 BYTE   Gs3  v096
 BYTE   N12  En4
 BYTE   W12
 BYTE   Cs4  v092
 BYTE   N12  Fs4
 BYTE   N12  Bn4
 BYTE   W12
 BYTE   Gs3  v088
 BYTE   N12  En4
 BYTE   W12
 BYTE   Cs4  v084
 BYTE   N12  Fs4
 BYTE   N12  Bn4
 BYTE   W12
 BYTE   Gs3  v080
 BYTE   N12  En4
 BYTE   W12
Label_1_01056547:
 BYTE   N48  Bn3  v100
 BYTE   N48  Fn4
 BYTE   N48  As4
 BYTE   N48  Ds5
 BYTE   W24
 BYTE   PEND 
// 037   ----------------------------------------
 BYTE   W24
Label_1_01056553:
 BYTE   N48  An3  v100
 BYTE   N48  Ds4
 BYTE   N48  Gs4
 BYTE   N48  Cs5
 BYTE   W24
 BYTE   PEND 
 BYTE   W24
 BYTE   PATT
  POIN2 Label_1_01056547
// 038   ----------------------------------------
 BYTE   W24
 BYTE   N48  Gn3  v100
 BYTE   N48  Cs4
 BYTE   N48  Fs4
 BYTE   N48  Bn4
 BYTE   W24
 BYTE   W24
 BYTE   PATT
  POIN2 Label_1_01056547
// 039   ----------------------------------------
 BYTE   W24
 BYTE   PATT
  POIN2 Label_1_01056553
// 040   ----------------------------------------
 BYTE   W24
 BYTE   PATT
  POIN2 Label_1_01056547
// 041   ----------------------------------------
 BYTE   W24
Label_1_01056582:
 BYTE   N48  Fn3  v100
 BYTE   N48  Bn3
 BYTE   N48  En4
 BYTE   N48  An4
 BYTE   W24
 BYTE   PEND 
 BYTE   W24
Label_1_0105658E:
 BYTE   N48  Gs3  v100
 BYTE   N48  Dn4
 BYTE   N48  Gn4
 BYTE   N48  Cn5
 BYTE   W24
 BYTE   PEND 
// 042   ----------------------------------------
 BYTE   W24
Label_1_0105659A:
 BYTE   N48  Fs3  v100
 BYTE   N48  Cn4
 BYTE   N48  Fn4
 BYTE   N48  As4
 BYTE   W24
 BYTE   PEND 
 BYTE   W24
 BYTE   PATT
  POIN2 Label_1_0105658E
// 043   ----------------------------------------
 BYTE   W24
 BYTE   N48  En3  v100
 BYTE   N48  As3
 BYTE   N48  Ds4
 BYTE   N48  Gs4
 BYTE   W24
 BYTE   W24
 BYTE   PATT
  POIN2 Label_1_0105658E
// 044   ----------------------------------------
 BYTE   W24
 BYTE   PATT
  POIN2 Label_1_0105659A
// 045   ----------------------------------------
 BYTE   W24
 BYTE   PATT
  POIN2 Label_1_0105658E
// 046   ----------------------------------------
 BYTE   W24
 BYTE   PATT
  POIN2 Label_1_01056582
// 047   ----------------------------------------
 BYTE   W24
 BYTE   GoTo
  POIN2 Label_1_010562DA
 BYTE   FINE

//**************** Track 3 (Midi-Chn.2) ****************//

PokemonMDExplorersSteamCaveRandomWizard_003:
// 000   ----------------------------------------
 BYTE   KEYSH   PokemonMDExplorersSteamCaveRandomWizard_key+0
Label_2_010565DA:
 BYTE   VOICE   10
 BYTE   PAN   c_v+0
 BYTE   VOL   25*PokemonMDExplorersSteamCaveRandomWizard_mvl/mxv
 BYTE   BEND   c_v+0
 BYTE   W24
 BYTE   W24
 BYTE   W24
 BYTE   W24
// 001   ----------------------------------------
 BYTE   W24
 BYTE   W24
 BYTE   W24
 BYTE   W24
// 002   ----------------------------------------
 BYTE   W12
 BYTE   N12  En3  v127
 BYTE   W12
Label_2_010565EF:
 BYTE   N12  An3  v127
 BYTE   W12
 BYTE   Gn3
 BYTE   W12
 BYTE   PEND 
Label_2_010565F6:
 BYTE   N12  Fs3  v127
 BYTE   W12
 BYTE   TIE  Dn4
 BYTE   W12
 BYTE   PEND 
 BYTE   W24
// 003   ----------------------------------------
 BYTE   W24
 BYTE   W24
 BYTE   W24
 BYTE   W12
 BYTE   EOT
 BYTE   N12  Cn4
 BYTE   W12
// 004   ----------------------------------------
 BYTE   Bn3
 BYTE   W12
 BYTE   TIE  En3
 BYTE   W12
 BYTE   W24
 BYTE   W24
 BYTE   W24
// 005   ----------------------------------------
 BYTE   W24
 BYTE   W24
 BYTE   W24
 BYTE   EOT
 BYTE   W24
// 006   ----------------------------------------
 BYTE   W24
 BYTE   W24
 BYTE   W24
 BYTE   W24
// 007   ----------------------------------------
 BYTE   W24
 BYTE   W24
 BYTE   W24
 BYTE   W24
// 008   ----------------------------------------
 BYTE   W12
 BYTE   N12
 BYTE   W12
 BYTE   PATT
  POIN2 Label_2_010565EF
 BYTE   PATT
  POIN2 Label_2_010565F6
// 009   ----------------------------------------
 BYTE   W24
 BYTE   W24
 BYTE   W24
 BYTE   W24
// 010   ----------------------------------------
 BYTE   W12
 BYTE   EOT
 BYTE   Dn4
 BYTE   N12  Cn4  v127
 BYTE   W12
 BYTE   Bn3
 BYTE   W12
 BYTE   Fs4
 BYTE   W12
 BYTE   Dn4
 BYTE   W12
 BYTE   TIE  An3
 BYTE   W12
 BYTE   W24
// 011   ----------------------------------------
 BYTE   W24
 BYTE   W24
 BYTE   W24
 BYTE   W24
// 012   ----------------------------------------
 BYTE   W24
 BYTE   EOT
 BYTE   W24
 BYTE   W24
 BYTE   W24
// 013   ----------------------------------------
 BYTE   W24
 BYTE   W24
 BYTE   W24
 BYTE   W24
// 014   ----------------------------------------
 BYTE   W24
 BYTE   W24
 BYTE   W24
 BYTE   W24
// 015   ----------------------------------------
 BYTE   W24
 BYTE   W24
 BYTE   W24
 BYTE   W24
// 016   ----------------------------------------
 BYTE   W24
 BYTE   W24
 BYTE   W24
 BYTE   W24
// 017   ----------------------------------------
 BYTE   W24
 BYTE   W24
 BYTE   W24
 BYTE   W24
// 018   ----------------------------------------
 BYTE   W24
 BYTE   W24
 BYTE   W24
 BYTE   W24
// 019   ----------------------------------------
 BYTE   W24
 BYTE   W24
 BYTE   W24
 BYTE   W24
// 020   ----------------------------------------
 BYTE   W24
 BYTE   W24
 BYTE   W24
 BYTE   W24
// 021   ----------------------------------------
 BYTE   W24
 BYTE   W24
 BYTE   W24
 BYTE   W24
// 022   ----------------------------------------
 BYTE   W24
 BYTE   W24
 BYTE   W24
 BYTE   W24
// 023   ----------------------------------------
 BYTE   W24
 BYTE   W24
 BYTE   W24
 BYTE   W24
// 024   ----------------------------------------
 BYTE   W24
 BYTE   W24
 BYTE   W24
 BYTE   W24
// 025   ----------------------------------------
 BYTE   W24
 BYTE   W24
 BYTE   W24
 BYTE   W24
// 026   ----------------------------------------
 BYTE   W24
 BYTE   W24
 BYTE   W24
 BYTE   W24
// 027   ----------------------------------------
 BYTE   W24
 BYTE   W24
 BYTE   W24
 BYTE   W24
// 028   ----------------------------------------
 BYTE   W24
 BYTE   W24
 BYTE   W24
 BYTE   W24
// 029   ----------------------------------------
 BYTE   W24
 BYTE   W24
 BYTE   W24
 BYTE   W24
// 030   ----------------------------------------
 BYTE   W24
 BYTE   W24
 BYTE   W24
 BYTE   W24
// 031   ----------------------------------------
 BYTE   W24
 BYTE   W24
 BYTE   W24
 BYTE   W24
// 032   ----------------------------------------
 BYTE   W24
 BYTE   W24
 BYTE   W24
 BYTE   W24
// 033   ----------------------------------------
 BYTE   W24
 BYTE   W24
 BYTE   W24
 BYTE   W24
// 034   ----------------------------------------
 BYTE   W24
 BYTE   W24
 BYTE   W24
 BYTE   W24
// 035   ----------------------------------------
 BYTE   W24
 BYTE   W24
 BYTE   W24
 BYTE   W24
// 036   ----------------------------------------
 BYTE   W24
 BYTE   W24
 BYTE   W24
 BYTE   W24
// 037   ----------------------------------------
 BYTE   W24
 BYTE   W24
 BYTE   W24
 BYTE   W24
// 038   ----------------------------------------
 BYTE   W24
 BYTE   W24
 BYTE   W24
 BYTE   W24
// 039   ----------------------------------------
 BYTE   W24
 BYTE   W24
 BYTE   W24
 BYTE   W24
// 040   ----------------------------------------
 BYTE   W24
 BYTE   W24
 BYTE   W24
 BYTE   W24
// 041   ----------------------------------------
 BYTE   W24
 BYTE   W24
 BYTE   W24
 BYTE   W24
// 042   ----------------------------------------
 BYTE   W24
 BYTE   GoTo
  POIN2 Label_2_010565DA
 BYTE   FINE

//**************** Track 4 (Midi-Chn.3) ****************//

PokemonMDExplorersSteamCaveRandomWizard_004:
// 000   ----------------------------------------
 BYTE   KEYSH   PokemonMDExplorersSteamCaveRandomWizard_key+0
Label_3_010566C6:
 BYTE   VOICE   40
 BYTE   PAN   c_v+16
 BYTE   VOL   31*PokemonMDExplorersSteamCaveRandomWizard_mvl/mxv
 BYTE   BEND   c_v+0
 BYTE   TIE  En1  v112
 BYTE   W01
 BYTE   W17
 BYTE   W06
 BYTE   W04
 BYTE   W05
 BYTE   W06
 BYTE   W04
 BYTE   W03
 BYTE   W02
 BYTE   W03
 BYTE   W03
 BYTE   W04
 BYTE   W03
 BYTE   W02
 BYTE   W04
 BYTE   W02
 BYTE   W03
 BYTE   W03
 BYTE   W01
 BYTE   W03
 BYTE   W02
 BYTE   W03
 BYTE   W01
 BYTE   W02
 BYTE   W03
 BYTE   W01
 BYTE   W03
 BYTE   W02
// 001   ----------------------------------------
 BYTE   W01
 BYTE   W23
 BYTE   W01
 BYTE   W11
 BYTE   W07
 BYTE   W05
 BYTE   W04
 BYTE   W06
 BYTE   W02
 BYTE   W01
 BYTE   W02
 BYTE   W01
 BYTE   W02
 BYTE   W01
 BYTE   W02
 BYTE   W01
 BYTE   W02
 BYTE   W01
 BYTE   W02
 BYTE   W01
 BYTE   W02
 BYTE   W01
 BYTE   W02
 BYTE   W01
 BYTE   W02
 BYTE   W01
 BYTE   W02
 BYTE   W01
 BYTE   W02
 BYTE   W01
 BYTE   W02
 BYTE   W01
 BYTE   W02
// 002   ----------------------------------------
 BYTE   W01
 BYTE   W02
 BYTE   W01
 BYTE   W02
 BYTE   W01
 BYTE   W02
 BYTE   W01
 BYTE   W02
 BYTE   W01
 BYTE   W02
 BYTE   W01
 BYTE   W02
 BYTE   W01
 BYTE   W02
 BYTE   W01
 BYTE   W02
 BYTE   W01
 BYTE   W02
 BYTE   W01
 BYTE   W02
 BYTE   W01
 BYTE   W08
 BYTE   W07
 BYTE   W02
 BYTE   W07
 BYTE   W05
 BYTE   W07
 BYTE   W03
 BYTE   W02
 BYTE   W03
 BYTE   W06
 BYTE   W03
 BYTE   W04
 BYTE   W05
 BYTE   W03
// 003   ----------------------------------------
 BYTE   W15
 BYTE   W09
 BYTE   W01
 BYTE   W08
 BYTE   W09
 BYTE   W04
 BYTE   W02
 BYTE   W04
 BYTE   W05
 BYTE   W03
 BYTE   W04
 BYTE   W03
 BYTE   W05
 BYTE   W03
 BYTE   W03
 BYTE   W04
 BYTE   W02
 BYTE   W04
 BYTE   W02
 BYTE   W03
 BYTE   W01
 BYTE   W02
// 004   ----------------------------------------
 BYTE   EOT
 BYTE   TIE
 BYTE   W13
 BYTE   W11
 BYTE   W04
 BYTE   W06
 BYTE   W06
 BYTE   W06
 BYTE   W02
 BYTE   W03
 BYTE   W06
 BYTE   W03
 BYTE   W04
 BYTE   W05
 BYTE   W03
 BYTE   W03
 BYTE   W03
 BYTE   W03
 BYTE   W03
 BYTE   W03
 BYTE   W03
 BYTE   W03
 BYTE   W01
 BYTE   W02
// 005   ----------------------------------------
 BYTE   W01
 BYTE   W18
 BYTE   W05
 BYTE   W01
 BYTE   W06
 BYTE   W06
 BYTE   W05
 BYTE   W04
 BYTE   W02
 BYTE   W01
 BYTE   W03
 BYTE   W05
 BYTE   W01
 BYTE   W05
 BYTE   W01
 BYTE   W03
 BYTE   W03
 BYTE   W02
 BYTE   W03
 BYTE   W01
 BYTE   W03
 BYTE   W03
 BYTE   W02
 BYTE   W01
 BYTE   W03
 BYTE   W02
 BYTE   W01
 BYTE   W02
 BYTE   W03
// 006   ----------------------------------------
 BYTE   EOT
 BYTE   TIE
 BYTE   W01
 BYTE   W17
 BYTE   W06
 BYTE   W04
 BYTE   W06
 BYTE   W06
 BYTE   W05
 BYTE   W03
 BYTE   W04
 BYTE   W03
 BYTE   W05
 BYTE   W03
 BYTE   W03
 BYTE   W03
 BYTE   W01
 BYTE   W02
 BYTE   W03
 BYTE   W01
 BYTE   W02
 BYTE   W04
 BYTE   W02
 BYTE   W03
 BYTE   W01
 BYTE   W02
 BYTE   W03
 BYTE   W01
 BYTE   W02
// 007   ----------------------------------------
 BYTE   W12
 BYTE   W07
 BYTE   W05
 BYTE   W01
 BYTE   W08
 BYTE   W04
 BYTE   W05
 BYTE   W04
 BYTE   W02
 BYTE   W01
 BYTE   W03
 BYTE   W03
 BYTE   W05
 BYTE   W01
 BYTE   W03
 BYTE   W03
 BYTE   W02
 BYTE   W03
 BYTE   W03
 BYTE   W01
 BYTE   W03
 BYTE   W02
 BYTE   W03
 BYTE   W01
 BYTE   W02
 BYTE   W01
 BYTE   W02
 BYTE   W03
 BYTE   W01
 BYTE   W02
// 008   ----------------------------------------
 BYTE   EOT
 BYTE   TIE
 BYTE   W01
 BYTE   W17
 BYTE   W06
 BYTE   W01
 BYTE   W05
 BYTE   W06
 BYTE   W04
 BYTE   W05
 BYTE   W03
 BYTE   W03
 BYTE   W03
 BYTE   W03
 BYTE   W03
 BYTE   W03
 BYTE   W01
 BYTE   W03
 BYTE   W02
 BYTE   W03
 BYTE   W01
 BYTE   W03
 BYTE   W02
 BYTE   W01
 BYTE   W03
 BYTE   W02
 BYTE   W01
 BYTE   W03
 BYTE   W02
 BYTE   W01
 BYTE   W02
 BYTE   W01
 BYTE   W02
// 009   ----------------------------------------
 BYTE   W13
 BYTE   W09
 BYTE   W02
 BYTE   W04
 BYTE   W08
 BYTE   W04
 BYTE   W06
 BYTE   W02
 BYTE   W01
 BYTE   W03
 BYTE   W05
 BYTE   W03
 BYTE   W04
 BYTE   W02
 BYTE   W03
 BYTE   W03
 BYTE   W03
 BYTE   W03
 BYTE   W01
 BYTE   W03
 BYTE   W02
 BYTE   W03
 BYTE   W03
 BYTE   W01
 BYTE   W02
 BYTE   W03
// 010   ----------------------------------------
 BYTE   EOT
 BYTE   TIE
 BYTE   W01
 BYTE   W02
 BYTE   W01
 BYTE   W02
 BYTE   W15
 BYTE   W03
 BYTE   W03
 BYTE   W07
 BYTE   W05
 BYTE   W04
 BYTE   W03
 BYTE   W02
 BYTE   W01
 BYTE   W05
 BYTE   W03
 BYTE   W03
 BYTE   W01
 BYTE   W03
 BYTE   W03
 BYTE   W02
 BYTE   W03
 BYTE   W01
 BYTE   W03
 BYTE   W02
 BYTE   W01
 BYTE   W03
 BYTE   W02
 BYTE   W01
 BYTE   W03
 BYTE   W02
 BYTE   W01
 BYTE   W02
 BYTE   W03
// 011   ----------------------------------------
 BYTE   W03
 BYTE   W19
 BYTE   W02
 BYTE   W04
 BYTE   W05
 BYTE   W06
 BYTE   W03
 BYTE   W04
 BYTE   W02
 BYTE   W01
 BYTE   W02
 BYTE   W04
 BYTE   W02
 BYTE   W03
 BYTE   W03
 BYTE   W01
 BYTE   W03
 BYTE   W02
 BYTE   W03
 BYTE   W01
 BYTE   W02
 BYTE   W03
 BYTE   W01
 BYTE   W03
 BYTE   W02
 BYTE   W01
 BYTE   W02
 BYTE   W01
 BYTE   W02
 BYTE   W01
 BYTE   W02
 BYTE   W01
 BYTE   W02
// 012   ----------------------------------------
 BYTE   EOT
 BYTE   TIE
 BYTE   W15
 BYTE   W06
 BYTE   W03
 BYTE   W04
 BYTE   W05
 BYTE   W06
 BYTE   W03
 BYTE   W03
 BYTE   W03
 BYTE   W01
 BYTE   W02
 BYTE   W04
 BYTE   W02
 BYTE   W03
 BYTE   W03
 BYTE   W01
 BYTE   W03
 BYTE   W03
 BYTE   W02
 BYTE   W03
 BYTE   W01
 BYTE   W03
 BYTE   W02
 BYTE   W01
 BYTE   W02
 BYTE   W03
 BYTE   W01
 BYTE   W02
 BYTE   W01
 BYTE   W02
 BYTE   W03
// 013   ----------------------------------------
 BYTE   W10
 BYTE   W11
 BYTE   W03
 BYTE   W03
 BYTE   W09
 BYTE   W04
 BYTE   W06
 BYTE   W02
 BYTE   W01
 BYTE   W03
 BYTE   W05
 BYTE   W03
 BYTE   W04
 BYTE   W03
 BYTE   W02
 BYTE   W03
 BYTE   W01
 BYTE   W02
 BYTE   W04
 BYTE   W02
 BYTE   W03
 BYTE   W03
 BYTE   W01
 BYTE   W03
 BYTE   W02
 BYTE   W01
 BYTE   W02
// 014   ----------------------------------------
 BYTE   EOT
 BYTE   TIE
 BYTE   W01
 BYTE   W02
 BYTE   W18
 BYTE   W03
 BYTE   W04
 BYTE   W08
 BYTE   W04
 BYTE   W05
 BYTE   W03
 BYTE   W01
 BYTE   W05
 BYTE   W03
 BYTE   W03
 BYTE   W03
 BYTE   W04
 BYTE   W02
 BYTE   W03
 BYTE   W03
 BYTE   W01
 BYTE   W03
 BYTE   W03
 BYTE   W03
 BYTE   W02
 BYTE   W01
 BYTE   W03
 BYTE   W02
 BYTE   W03
// 015   ----------------------------------------
 BYTE   W01
 BYTE   W02
 BYTE   W18
 BYTE   W03
 BYTE   W03
 BYTE   W06
 BYTE   W06
 BYTE   W04
 BYTE   W05
 BYTE   W03
 BYTE   W03
 BYTE   W04
 BYTE   W03
 BYTE   W03
 BYTE   W03
 BYTE   W02
 BYTE   W03
 BYTE   W01
 BYTE   W03
 BYTE   W03
 BYTE   W02
 BYTE   W03
 BYTE   W01
 BYTE   W03
 BYTE   W02
 BYTE   W01
 BYTE   W02
 BYTE   W01
 BYTE   W02
// 016   ----------------------------------------
 BYTE   EOT
 BYTE   TIE  Fn1
 BYTE   W01
 BYTE   W12
 BYTE   W11
 BYTE   W01
 BYTE   W06
 BYTE   W06
 BYTE   W05
 BYTE   W03
 BYTE   W03
 BYTE   W01
 BYTE   W03
 BYTE   W05
 BYTE   W03
 BYTE   W01
 BYTE   W05
 BYTE   W01
 BYTE   W03
 BYTE   W02
 BYTE   W01
 BYTE   W02
 BYTE   W03
 BYTE   W01
 BYTE   W03
 BYTE   W02
 BYTE   W01
 BYTE   W03
 BYTE   W02
 BYTE   W03
 BYTE   W01
 BYTE   W02
// 017   ----------------------------------------
 BYTE   W12
 BYTE   W09
 BYTE   W03
 BYTE   W03
 BYTE   W07
 BYTE   W05
 BYTE   W06
 BYTE   W03
 BYTE   W03
 BYTE   W04
 BYTE   W03
 BYTE   W03
 BYTE   W03
 BYTE   W02
 BYTE   W04
 BYTE   W02
 BYTE   W03
 BYTE   W01
 BYTE   W03
 BYTE   W03
 BYTE   W02
 BYTE   W03
 BYTE   W01
 BYTE   W02
 BYTE   W03
 BYTE   W01
 BYTE   EOT
 BYTE   W02
// 018   ----------------------------------------
 BYTE   TIE  En1
 BYTE   W21
 BYTE   W03
 BYTE   W03
 BYTE   W07
 BYTE   W05
 BYTE   W04
 BYTE   W05
 BYTE   W03
 BYTE   W04
 BYTE   W03
 BYTE   W03
 BYTE   W03
 BYTE   W03
 BYTE   W03
 BYTE   W02
 BYTE   W01
 BYTE   W02
 BYTE   W03
 BYTE   W03
 BYTE   W01
 BYTE   W03
 BYTE   W02
 BYTE   W03
 BYTE   W01
 BYTE   W03
 BYTE   W02
// 019   ----------------------------------------
 BYTE   W13
 BYTE   W09
 BYTE   W02
 BYTE   W06
 BYTE   W06
 BYTE   W04
 BYTE   W05
 BYTE   W03
 BYTE   W04
 BYTE   W03
 BYTE   W05
 BYTE   W01
 BYTE   W03
 BYTE   W03
 BYTE   W03
 BYTE   W02
 BYTE   W01
 BYTE   W02
 BYTE   W01
 BYTE   W03
 BYTE   W02
 BYTE   W03
 BYTE   W01
 BYTE   W03
 BYTE   W02
 BYTE   W01
 BYTE   W03
 BYTE   EOT
 BYTE   W02
// 020   ----------------------------------------
 BYTE   TIE  Fn1
 BYTE   W19
 BYTE   W05
 BYTE   W01
 BYTE   W08
 BYTE   W04
 BYTE   W03
 BYTE   W05
 BYTE   W03
 BYTE   W04
 BYTE   W03
 BYTE   W02
 BYTE   W04
 BYTE   W02
 BYTE   W03
 BYTE   W03
 BYTE   W01
 BYTE   W02
 BYTE   W01
 BYTE   W02
 BYTE   W03
 BYTE   W01
 BYTE   W02
 BYTE   W03
 BYTE   W01
 BYTE   W03
 BYTE   W02
 BYTE   W01
 BYTE   W05
// 021   ----------------------------------------
 BYTE   W03
 BYTE   W12
 BYTE   W09
 BYTE   W06
 BYTE   W07
 BYTE   W05
 BYTE   W04
 BYTE   W02
 BYTE   W01
 BYTE   W03
 BYTE   W05
 BYTE   W03
 BYTE   W03
 BYTE   W03
 BYTE   W01
 BYTE   W03
 BYTE   W02
 BYTE   W01
 BYTE   W03
 BYTE   W02
 BYTE   W01
 BYTE   W03
 BYTE   W02
 BYTE   W03
 BYTE   W01
 BYTE   W02
 BYTE   W03
 BYTE   W01
 BYTE   EOT
 BYTE   W02
// 022   ----------------------------------------
 BYTE   TIE  En1
 BYTE   W01
 BYTE   W02
 BYTE   W16
 BYTE   W05
 BYTE   W01
 BYTE   W08
 BYTE   W04
 BYTE   W06
 BYTE   W03
 BYTE   W02
 BYTE   W01
 BYTE   W05
 BYTE   W01
 BYTE   W05
 BYTE   W01
 BYTE   W03
 BYTE   W03
 BYTE   W02
 BYTE   W03
 BYTE   W03
 BYTE   W01
 BYTE   W03
 BYTE   W02
 BYTE   W03
 BYTE   W01
 BYTE   W02
 BYTE   W01
 BYTE   W03
 BYTE   W02
 BYTE   W01
 BYTE   W02
// 023   ----------------------------------------
 BYTE   W04
 BYTE   W14
 BYTE   W06
 BYTE   W03
 BYTE   W06
 BYTE   W07
 BYTE   W03
 BYTE   W05
 BYTE   EOT
 BYTE   N48  Fn1
 BYTE   W01
 BYTE   W03
 BYTE   W03
 BYTE   W05
 BYTE   W03
 BYTE   W03
 BYTE   W03
 BYTE   W03
 BYTE   W03
 BYTE   W01
 BYTE   W03
 BYTE   W03
 BYTE   W02
 BYTE   W03
 BYTE   W01
 BYTE   W03
 BYTE   W02
 BYTE   W01
 BYTE   W02
// 024   ----------------------------------------
 BYTE   TIE  En1
 BYTE   W01
 BYTE   W02
 BYTE   W01
 BYTE   W02
 BYTE   W01
 BYTE   W15
 BYTE   W02
 BYTE   W04
 BYTE   W06
 BYTE   W05
 BYTE   W04
 BYTE   W05
 BYTE   W01
 BYTE   W03
 BYTE   W03
 BYTE   W03
 BYTE   W03
 BYTE   W02
 BYTE   W03
 BYTE   W03
 BYTE   W01
 BYTE   W02
 BYTE   W01
 BYTE   W02
 BYTE   W01
 BYTE   W02
 BYTE   W01
 BYTE   W03
 BYTE   W02
 BYTE   W01
 BYTE   W02
 BYTE   W01
 BYTE   W02
 BYTE   W01
 BYTE   W05
// 025   ----------------------------------------
 BYTE   W16
 BYTE   W08
 BYTE   W07
 BYTE   W03
 BYTE   W06
 BYTE   W03
 BYTE   W03
 BYTE   W02
 BYTE   EOT
 BYTE   N48  Fn1
 BYTE   W01
 BYTE   W03
 BYTE   W05
 BYTE   W01
 BYTE   W03
 BYTE   W03
 BYTE   W02
 BYTE   W03
 BYTE   W01
 BYTE   W02
 BYTE   W03
 BYTE   W01
 BYTE   W03
 BYTE   W02
 BYTE   W15
// 026   ----------------------------------------
 BYTE   N06  En1  v127
 BYTE   W01
 BYTE   W06
 BYTE   W05
 BYTE   N06
 BYTE   W03
 BYTE   W03
 BYTE   W03
 BYTE   W03
 BYTE   En1  v060
 BYTE   W01
 BYTE   W03
 BYTE   W05
 BYTE   W03
 BYTE   En1  v127
 BYTE   W01
 BYTE   W03
 BYTE   W03
 BYTE   W03
 BYTE   W02
 BYTE   N06
 BYTE   W01
 BYTE   W03
 BYTE   W02
 BYTE   W03
 BYTE   W01
 BYTE   W02
 BYTE   En1  v060
 BYTE   W12
 BYTE   En1  v127
 BYTE   W12
 BYTE   N06
 BYTE   W12
// 027   ----------------------------------------
Label_3_01056A03:
 BYTE   N06  Ds1  v060
 BYTE   W12
 BYTE   Ds1  v127
 BYTE   W12
 BYTE   PEND 
 BYTE   N06
 BYTE   W12
 BYTE   Ds1  v060
 BYTE   W12
 BYTE   Ds1  v127
 BYTE   W12
 BYTE   N06
 BYTE   W12
 BYTE   PATT
  POIN2 Label_3_01056A03
// 028   ----------------------------------------
Label_3_01056A1A:
 BYTE   N06  Fs1  v127
 BYTE   W12
 BYTE   N06
 BYTE   W12
 BYTE   PEND 
 BYTE   Fs1  v060
 BYTE   W12
 BYTE   Fs1  v127
 BYTE   W12
 BYTE   N06
 BYTE   W12
 BYTE   Fs1  v060
 BYTE   W12
 BYTE   PATT
  POIN2 Label_3_01056A1A
// 029   ----------------------------------------
Label_3_01056A31:
 BYTE   N06  Fn1  v060
 BYTE   W12
 BYTE   Fn1  v127
 BYTE   W12
 BYTE   PEND 
 BYTE   N06
 BYTE   W12
 BYTE   Fn1  v060
 BYTE   W12
 BYTE   Fn1  v127
 BYTE   W12
 BYTE   N06
 BYTE   W12
 BYTE   PATT
  POIN2 Label_3_01056A31
// 030   ----------------------------------------
Label_3_01056A48:
 BYTE   N06  Gs1  v127
 BYTE   W12
 BYTE   N06
 BYTE   W12
 BYTE   PEND 
 BYTE   Gs1  v060
 BYTE   W12
 BYTE   Gs1  v127
 BYTE   W12
 BYTE   N06
 BYTE   W12
 BYTE   Gs1  v060
 BYTE   W12
 BYTE   PATT
  POIN2 Label_3_01056A48
// 031   ----------------------------------------
Label_3_01056A5F:
 BYTE   N06  Gn1  v060
 BYTE   W12
 BYTE   Gn1  v127
 BYTE   W12
 BYTE   PEND 
 BYTE   N06
 BYTE   W12
 BYTE   Gn1  v060
 BYTE   W12
 BYTE   Gn1  v127
 BYTE   W12
 BYTE   N06
 BYTE   W12
 BYTE   PATT
  POIN2 Label_3_01056A5F
// 032   ----------------------------------------
Label_3_01056A76:
 BYTE   N06  As1  v127
 BYTE   W12
 BYTE   N06
 BYTE   W12
 BYTE   PEND 
 BYTE   As1  v060
 BYTE   W12
 BYTE   As1  v127
 BYTE   W12
 BYTE   N06
 BYTE   W12
 BYTE   As1  v060
 BYTE   W12
 BYTE   PATT
  POIN2 Label_3_01056A76
// 033   ----------------------------------------
Label_3_01056A8D:
 BYTE   N06  Cs2  v060
 BYTE   W12
 BYTE   Cs2  v127
 BYTE   W12
 BYTE   PEND 
 BYTE   N06
 BYTE   W12
 BYTE   Cs2  v060
 BYTE   W12
 BYTE   Cs2  v127
 BYTE   W12
 BYTE   N06
 BYTE   W12
 BYTE   PATT
  POIN2 Label_3_01056A8D
// 034   ----------------------------------------
 BYTE   W24
 BYTE   W24
 BYTE   W24
 BYTE   W24
// 035   ----------------------------------------
 BYTE   W24
 BYTE   W24
 BYTE   W24
 BYTE   W24
// 036   ----------------------------------------
 BYTE   W24
 BYTE   W24
 BYTE   W24
 BYTE   W24
// 037   ----------------------------------------
 BYTE   W24
 BYTE   W24
 BYTE   W24
 BYTE   W24
// 038   ----------------------------------------
 BYTE   W24
 BYTE   W24
 BYTE   W24
 BYTE   W24
// 039   ----------------------------------------
 BYTE   W24
 BYTE   W24
 BYTE   W24
 BYTE   W24
// 040   ----------------------------------------
 BYTE   W24
 BYTE   W24
 BYTE   W24
 BYTE   W24
// 041   ----------------------------------------
 BYTE   W24
 BYTE   W24
 BYTE   W24
 BYTE   W24
// 042   ----------------------------------------
 BYTE   GoTo
  POIN2 Label_3_010566C6
 BYTE   FINE

//**************** Track 5 (Midi-Chn.4) ****************//

PokemonMDExplorersSteamCaveRandomWizard_005:
// 000   ----------------------------------------
 BYTE   KEYSH   PokemonMDExplorersSteamCaveRandomWizard_key+0
Label_4_01056ACE:
 BYTE   VOICE   10
 BYTE   PAN   c_v+0
 BYTE   VOL   25*PokemonMDExplorersSteamCaveRandomWizard_mvl/mxv
 BYTE   BEND   c_v+0
 BYTE   W24
 BYTE   W24
 BYTE   W24
 BYTE   W24
// 001   ----------------------------------------
 BYTE   W24
 BYTE   W24
 BYTE   W24
 BYTE   W24
// 002   ----------------------------------------
 BYTE   W24
 BYTE   W24
 BYTE   W24
 BYTE   W24
// 003   ----------------------------------------
 BYTE   W24
 BYTE   W24
 BYTE   W24
 BYTE   W24
// 004   ----------------------------------------
 BYTE   PAN   c_v+33
 BYTE   N03  Dn3  v060
 BYTE   N03  Fs3
 BYTE   W06
 BYTE   PAN   c_v+28
 BYTE   W02
 BYTE   N03  En3
 BYTE   N03  Gn3
 BYTE   W04
 BYTE   PAN   c_v+23
 BYTE   W04
 BYTE   N03  Dn3
 BYTE   N03  Fs3
 BYTE   W02
 BYTE   PAN   c_v+18
 BYTE   W06
 BYTE   En4
 BYTE   N03  En3  v064
 BYTE   N03  Gn3
 BYTE   W06
 BYTE   PAN   c_v+7
 BYTE   W02
 BYTE   N03  Dn3  v068
 BYTE   N03  Fs3
 BYTE   W04
 BYTE   PAN   c_v+2
 BYTE   W04
 BYTE   N03  En3
 BYTE   N03  Gn3
 BYTE   W02
 BYTE   PAN   c_v-3
 BYTE   W06
 BYTE   Gn2
 BYTE   N03  Dn3  v072
 BYTE   N03  Fs3
 BYTE   W06
 BYTE   PAN   c_v-14
 BYTE   W02
 BYTE   N03  En3  v076
 BYTE   N03  Gn3
 BYTE   W04
 BYTE   PAN   c_v-19
 BYTE   W04
 BYTE   N03  Dn3  v080
 BYTE   N03  Fs3
 BYTE   W02
 BYTE   PAN   c_v-25
 BYTE   W06
 BYTE   As0
 BYTE   N03  En3  v084
 BYTE   N03  Gn3
 BYTE   W06
 BYTE   PAN   c_v-35
 BYTE   W02
 BYTE   N03  Dn3  v088
 BYTE   N03  Fs3
 BYTE   W04
 BYTE   PAN   c_v-40
 BYTE   W04
 BYTE   N03  En3  v092
 BYTE   N03  Gn3
 BYTE   W02
 BYTE   PAN   c_v-45
 BYTE   W06
// 005   ----------------------------------------
 BYTE   EnM1
 BYTE   N03  Dn3  v100
 BYTE   N03  Fs3
 BYTE   W06
 BYTE   PAN   c_v-42
 BYTE   N03  En3  v104
 BYTE   N03  Gn3
 BYTE   W06
 BYTE   PAN   c_v-37
 BYTE   N03  Fs3  v108
 BYTE   N03  An3
 BYTE   W06
 BYTE   PAN   c_v-32
 BYTE   N03  Gn3  v112
 BYTE   N03  Bn3
 BYTE   W06
 BYTE   PAN   c_v-26
 BYTE   N03  An3  v108
 BYTE   N03  Cn4
 BYTE   W06
 BYTE   PAN   c_v-21
 BYTE   N03  Gn3
 BYTE   N03  Bn3
 BYTE   W06
 BYTE   PAN   c_v-15
 BYTE   N03  Fs3  v104
 BYTE   N03  An3
 BYTE   W06
 BYTE   PAN   c_v-10
 BYTE   N03  En3  v100
 BYTE   N03  Gn3
 BYTE   W06
 BYTE   PAN   c_v-4
 BYTE   N03  Dn3  v096
 BYTE   N03  Fs3
 BYTE   W06
 BYTE   PAN   c_v+1
 BYTE   W02
 BYTE   N03  Cn3  v092
 BYTE   N03  En3
 BYTE   W04
 BYTE   PAN   c_v+7
 BYTE   W04
 BYTE   N03  Bn2  v088
 BYTE   N03  Dn3
 BYTE   W02
 BYTE   PAN   c_v+13
 BYTE   W06
 BYTE   As4
 BYTE   N03  An2  v084
 BYTE   N03  Cn3
 BYTE   W06
 BYTE   PAN   c_v+23
 BYTE   W02
 BYTE   N03  Bn2  v080
 BYTE   N03  Dn3
 BYTE   W04
 BYTE   PAN   c_v+29
 BYTE   W04
 BYTE   N03  Cn3
 BYTE   N03  En3
 BYTE   W02
 BYTE   PAN   c_v+34
 BYTE   W06
// 006   ----------------------------------------
 BYTE   Fs6
 BYTE   N03  Dn4  v076
 BYTE   N03  Fs4
 BYTE   W06
 BYTE   PAN   c_v+33
 BYTE   W02
 BYTE   N03  En4
 BYTE   N03  Gn4
 BYTE   W04
 BYTE   PAN   c_v+28
 BYTE   W04
 BYTE   N03  Dn4
 BYTE   N03  Fs4
 BYTE   W02
 BYTE   PAN   c_v+23
 BYTE   W06
 BYTE   As4
 BYTE   N03  En4
 BYTE   N03  Gn4
 BYTE   W06
 BYTE   PAN   c_v+13
 BYTE   W02
 BYTE   N03  Dn4
 BYTE   N03  Fs4
 BYTE   W04
 BYTE   PAN   c_v+8
 BYTE   W04
 BYTE   N03  En4  v080
 BYTE   N03  Gn4
 BYTE   W02
 BYTE   PAN   c_v+3
 BYTE   W06
 BYTE   Dn3
 BYTE   N03  Dn4
 BYTE   N03  Fs4
 BYTE   W06
 BYTE   PAN   c_v-7
 BYTE   W02
 BYTE   N03  En4  v084
 BYTE   N03  Gn4
 BYTE   W04
 BYTE   PAN   c_v-12
 BYTE   W04
 BYTE   N03  Dn4
 BYTE   N03  Fs4
 BYTE   W02
 BYTE   PAN   c_v-17
 BYTE   W06
 BYTE   Fs1
 BYTE   N03  En4  v088
 BYTE   N03  Gn4
 BYTE   W06
 BYTE   PAN   c_v-27
 BYTE   W02
 BYTE   N03  Dn4  v092
 BYTE   N03  Fs4
 BYTE   W04
 BYTE   PAN   c_v-32
 BYTE   W04
 BYTE   N03  En4  v096
 BYTE   N03  Gn4
 BYTE   W02
 BYTE   PAN   c_v-37
 BYTE   W06
// 007   ----------------------------------------
 BYTE   FnM1
 BYTE   N03  Dn4  v100
 BYTE   N03  Fs4
 BYTE   W06
 BYTE   PAN   c_v-42
 BYTE   N03  En4
 BYTE   N03  Gn4
 BYTE   W06
 BYTE   PAN   c_v-37
 BYTE   N03  Fs4  v104
 BYTE   N03  An4
 BYTE   W06
 BYTE   PAN   c_v-32
 BYTE   N03  Gn4  v108
 BYTE   N03  Bn4
 BYTE   W06
 BYTE   PAN   c_v-27
 BYTE   N03  An4
 BYTE   N03  Cn5
 BYTE   W06
 BYTE   PAN   c_v-22
 BYTE   N03  Gn4
 BYTE   N03  Bn4
 BYTE   W06
 BYTE   PAN   c_v-17
 BYTE   N03  Fs4
 BYTE   N03  An4
 BYTE   W06
 BYTE   PAN   c_v-12
 BYTE   N03  En4  v104
 BYTE   N03  Gn4
 BYTE   W06
 BYTE   PAN   c_v-7
 BYTE   N03  Dn4  v100
 BYTE   N03  Fs4
 BYTE   W06
 BYTE   PAN   c_v-2
 BYTE   W02
 BYTE   N03  Cn4  v096
 BYTE   N03  En4
 BYTE   W04
 BYTE   PAN   c_v+3
 BYTE   W04
 BYTE   N03  Bn3  v088
 BYTE   N03  Dn4
 BYTE   W02
 BYTE   PAN   c_v+8
 BYTE   W06
 BYTE   Fn4
 BYTE   N03  An3  v080
 BYTE   N03  Cn4
 BYTE   W06
 BYTE   PAN   c_v+18
 BYTE   W02
 BYTE   N03  Fs3  v072
 BYTE   N03  Bn3
 BYTE   W04
 BYTE   PAN   c_v+23
 BYTE   W04
 BYTE   N03  En3  v060
 BYTE   N03  An3
 BYTE   W02
 BYTE   PAN   c_v+28
 BYTE   W06
// 008   ----------------------------------------
 BYTE   Cs6
 BYTE   N03  Gn3  v048
 BYTE   N03  Bn3
 BYTE   W24
 BYTE   W24
 BYTE   W24
 BYTE   W24
// 009   ----------------------------------------
 BYTE   W24
 BYTE   W24
 BYTE   W24
 BYTE   W06
 BYTE   PAN   c_v+36
 BYTE   W06
 BYTE   Cn6
 BYTE   W06
 BYTE   Gs5
 BYTE   W06
// 010   ----------------------------------------
 BYTE   En5
 BYTE   N08  Dn3  v060
 BYTE   N08  Fs3
 BYTE   W06
 BYTE   PAN   c_v+20
 BYTE   W02
 BYTE   N08  En3
 BYTE   N08  Gn3
 BYTE   W04
 BYTE   PAN   c_v+16
 BYTE   W04
 BYTE   N08  Dn3
 BYTE   N08  Fs3
 BYTE   W02
 BYTE   PAN   c_v+13
 BYTE   W06
 BYTE   Cs4
 BYTE   N08  En3  v064
 BYTE   N08  Gn3
 BYTE   W06
 BYTE   PAN   c_v+5
 BYTE   W02
 BYTE   N08  Dn3  v068
 BYTE   N08  Fs3
 BYTE   W04
 BYTE   PAN   c_v+1
 BYTE   W04
 BYTE   N08  En3
 BYTE   N08  Gn3
 BYTE   W02
 BYTE   PAN   c_v-3
 BYTE   W06
 BYTE   An2
 BYTE   N08  Dn3  v072
 BYTE   N08  Fs3
 BYTE   W06
 BYTE   PAN   c_v-11
 BYTE   W02
 BYTE   N08  En3  v076
 BYTE   N08  Gn3
 BYTE   W04
 BYTE   PAN   c_v-15
 BYTE   W04
 BYTE   N08  Dn3  v080
 BYTE   N08  Fs3
 BYTE   W02
 BYTE   PAN   c_v-19
 BYTE   W06
 BYTE   Fn1
 BYTE   N08  En3  v084
 BYTE   N08  Gn3
 BYTE   W06
 BYTE   PAN   c_v-27
 BYTE   W02
 BYTE   N08  Dn3  v088
 BYTE   N08  Fs3
 BYTE   W04
 BYTE   PAN   c_v-30
 BYTE   W04
 BYTE   N08  En3  v092
 BYTE   N08  Gn3
 BYTE   W02
 BYTE   PAN   c_v-42
 BYTE   W06
// 011   ----------------------------------------
 BYTE   Ds0
 BYTE   N06  Dn3  v100
 BYTE   N06  Fs3
 BYTE   W06
 BYTE   PAN   c_v-33
 BYTE   N06  En3  v104
 BYTE   N06  Gn3
 BYTE   W06
 BYTE   PAN   c_v-29
 BYTE   N06  Fs3  v108
 BYTE   N06  An3
 BYTE   W06
 BYTE   PAN   c_v-24
 BYTE   N06  Gn3  v112
 BYTE   N06  Bn3
 BYTE   W06
 BYTE   PAN   c_v-20
 BYTE   N06  An3  v108
 BYTE   N06  Cn4
 BYTE   W06
 BYTE   PAN   c_v-15
 BYTE   N06  Gn3
 BYTE   N06  Bn3
 BYTE   W06
 BYTE   PAN   c_v-11
 BYTE   N06  Fs3  v104
 BYTE   N06  An3
 BYTE   W06
 BYTE   PAN   c_v-7
 BYTE   N06  En3  v100
 BYTE   N06  Gn3
 BYTE   W06
 BYTE   PAN   c_v-2
 BYTE   N08  Dn3  v096
 BYTE   N08  Fs3
 BYTE   W06
 BYTE   PAN   c_v+2
 BYTE   W02
 BYTE   N08  Cn3  v092
 BYTE   N08  En3
 BYTE   W04
 BYTE   PAN   c_v+7
 BYTE   W04
 BYTE   N08  Bn2  v088
 BYTE   N08  Dn3
 BYTE   W02
 BYTE   PAN   c_v+11
 BYTE   W06
 BYTE   Gn4
 BYTE   N08  An2  v084
 BYTE   N08  Cn3
 BYTE   W06
 BYTE   PAN   c_v+20
 BYTE   W02
 BYTE   N08  Bn2  v080
 BYTE   N08  Dn3
 BYTE   W04
 BYTE   PAN   c_v+24
 BYTE   W04
 BYTE   N08  Cn3
 BYTE   N08  En3
 BYTE   W02
 BYTE   PAN   c_v+32
 BYTE   W06
// 012   ----------------------------------------
 BYTE   Gs5
 BYTE   N08  Dn3  v076
 BYTE   N08  Fs3
 BYTE   N08  Dn4  v048
 BYTE   N08  Fs4
 BYTE   W06
 BYTE   PAN   c_v+23
 BYTE   W02
 BYTE   N08  En4  v052
 BYTE   N08  Gn4
 BYTE   W04
 BYTE   PAN   c_v+19
 BYTE   W04
 BYTE   N08  Dn4
 BYTE   N08  Fs4
 BYTE   W02
 BYTE   PAN   c_v+15
 BYTE   W06
 BYTE   Ds4
 BYTE   N08  En4
 BYTE   N08  Gn4
 BYTE   W06
 BYTE   PAN   c_v+6
 BYTE   W02
 BYTE   N08  Dn4  v056
 BYTE   N08  Fs4
 BYTE   W04
 BYTE   PAN   c_v+2
 BYTE   W04
 BYTE   N08  En4  v060
 BYTE   N08  Gn4
 BYTE   W02
 BYTE   PAN   c_v-2
 BYTE   W06
 BYTE   As2
 BYTE   N08  Dn4
 BYTE   N08  Fs4
 BYTE   W06
 BYTE   PAN   c_v-10
 BYTE   W02
 BYTE   N08  En4  v064
 BYTE   N08  Gn4
 BYTE   W04
 BYTE   PAN   c_v-15
 BYTE   W04
 BYTE   N08  Dn4  v068
 BYTE   N08  Fs4
 BYTE   W02
 BYTE   PAN   c_v-19
 BYTE   W06
 BYTE   Fn1
 BYTE   N08  En4  v072
 BYTE   N08  Gn4
 BYTE   W06
 BYTE   PAN   c_v-27
 BYTE   W02
 BYTE   N08  Dn4  v080
 BYTE   N08  Fs4
 BYTE   W04
 BYTE   PAN   c_v-32
 BYTE   W04
 BYTE   N08  En4  v084
 BYTE   N08  Gn4
 BYTE   W02
 BYTE   PAN   c_v-40
 BYTE   W06
// 013   ----------------------------------------
 BYTE   Ds0
 BYTE   N06  Dn4  v088
 BYTE   N06  Fs4
 BYTE   W06
 BYTE   PAN   c_v-33
 BYTE   N06  En4  v092
 BYTE   N06  Gn4
 BYTE   W06
 BYTE   PAN   c_v-29
 BYTE   N06  Fs4  v100
 BYTE   N06  An4
 BYTE   W06
 BYTE   PAN   c_v-25
 BYTE   N06  Gn4
 BYTE   N06  Bn4
 BYTE   W06
 BYTE   PAN   c_v-21
 BYTE   N06  An4
 BYTE   N06  Cn5
 BYTE   W06
 BYTE   PAN   c_v-17
 BYTE   N06  Gn4  v096
 BYTE   N06  Bn4
 BYTE   W06
 BYTE   PAN   c_v-14
 BYTE   N06  Fs4  v092
 BYTE   N06  An4
 BYTE   W06
 BYTE   PAN   c_v-10
 BYTE   N06  En4  v088
 BYTE   N06  Gn4
 BYTE   W06
 BYTE   PAN   c_v-6
 BYTE   N08  Dn4  v084
 BYTE   N08  Fs4
 BYTE   W06
 BYTE   PAN   c_v-2
 BYTE   W02
 BYTE   N08  Cn4  v080
 BYTE   N08  En4
 BYTE   W04
 BYTE   PAN   c_v+2
 BYTE   W04
 BYTE   N08  Bn3  v076
 BYTE   N08  Dn4
 BYTE   W02
 BYTE   PAN   c_v+5
 BYTE   W06
 BYTE   Cs4
 BYTE   N08  An3
 BYTE   N08  Cn4
 BYTE   W06
 BYTE   PAN   c_v+13
 BYTE   W02
 BYTE   N08  Fs3  v072
 BYTE   N08  Bn3
 BYTE   W04
 BYTE   PAN   c_v+17
 BYTE   W04
 BYTE   N08  En3  v068
 BYTE   N08  An3
 BYTE   W02
 BYTE   PAN   c_v+21
 BYTE   W06
// 014   ----------------------------------------
 BYTE   Fn5
 BYTE   N08  Gn3  v064
 BYTE   N08  Bn3
 BYTE   W06
 BYTE   PAN   c_v+28
 BYTE   W18
 BYTE   W24
 BYTE   W24
 BYTE   W24
// 015   ----------------------------------------
 BYTE   W24
 BYTE   W24
 BYTE   W24
 BYTE   W24
// 016   ----------------------------------------
 BYTE   W24
 BYTE   W24
 BYTE   W24
 BYTE   W24
// 017   ----------------------------------------
 BYTE   W24
 BYTE   W24
 BYTE   W24
 BYTE   W24
// 018   ----------------------------------------
 BYTE   W24
 BYTE   W24
 BYTE   W24
 BYTE   W24
// 019   ----------------------------------------
 BYTE   W24
 BYTE   W24
 BYTE   W24
 BYTE   W24
// 020   ----------------------------------------
 BYTE   W24
 BYTE   W24
 BYTE   W24
 BYTE   W24
// 021   ----------------------------------------
 BYTE   W24
 BYTE   W24
 BYTE   W24
 BYTE   W24
// 022   ----------------------------------------
 BYTE   W24
 BYTE   W24
 BYTE   W24
 BYTE   W24
// 023   ----------------------------------------
 BYTE   W24
 BYTE   W24
 BYTE   W24
 BYTE   W06
 BYTE   Fs5
 BYTE   W06
 BYTE   En5
 BYTE   W06
 BYTE   Ds5
 BYTE   W06
// 024   ----------------------------------------
 BYTE   Cs5
 BYTE   N08  Fs3  v068
 BYTE   N08  Bn3
 BYTE   W06
 BYTE   PAN   c_v+19
 BYTE   W02
 BYTE   N08  Cs3
 BYTE   N08  Fs3
 BYTE   W04
 BYTE   PAN   c_v+17
 BYTE   W04
 BYTE   N08  Dn3
 BYTE   N08  Gn3
 BYTE   W02
 BYTE   PAN   c_v+15
 BYTE   W06
 BYTE   Fn4
 BYTE   N08  Fs3
 BYTE   N08  Bn3
 BYTE   W06
 BYTE   PAN   c_v+12
 BYTE   W02
 BYTE   N08  Cs3  v072
 BYTE   N08  Fs3
 BYTE   W04
 BYTE   PAN   c_v+10
 BYTE   W04
 BYTE   N08  Dn3
 BYTE   N08  Gn3
 BYTE   W02
 BYTE   PAN   c_v+8
 BYTE   W06
 BYTE   As3
 BYTE   N08  Fs3  v076
 BYTE   N08  Bn3
 BYTE   W06
 BYTE   PAN   c_v+5
 BYTE   W02
 BYTE   N08  Cs3  v080
 BYTE   N08  Fs3
 BYTE   W04
 BYTE   PAN   c_v+3
 BYTE   W04
 BYTE   N08  Dn3  v088
 BYTE   N08  Gn3
 BYTE   W02
 BYTE   PAN   c_v+1
 BYTE   W06
 BYTE   Ds3
 BYTE   N08  Fs3
 BYTE   N08  Bn3
 BYTE   W06
 BYTE   PAN   c_v-3
 BYTE   W02
 BYTE   N08  Cs3  v096
 BYTE   N08  Fs3
 BYTE   W04
 BYTE   PAN   c_v-5
 BYTE   W04
 BYTE   N08  Dn3  v104
 BYTE   N08  Gn3
 BYTE   W02
 BYTE   PAN   c_v-6
 BYTE   W06
// 025   ----------------------------------------
 BYTE   Gs2
 BYTE   N08  Fs3  v108
 BYTE   N08  Bn3
 BYTE   W06
 BYTE   PAN   c_v-10
 BYTE   W02
 BYTE   N08  Cs3  v100
 BYTE   N08  Fs3
 BYTE   W04
 BYTE   PAN   c_v-12
 BYTE   W04
 BYTE   N08  Dn3  v092
 BYTE   N08  Gn3
 BYTE   W02
 BYTE   PAN   c_v-14
 BYTE   W06
 BYTE   Cs2
 BYTE   N08  Fs3  v084
 BYTE   N08  Bn3
 BYTE   W06
 BYTE   PAN   c_v-17
 BYTE   W02
 BYTE   N08  Cs3  v076
 BYTE   N08  Fs3
 BYTE   W04
 BYTE   PAN   c_v-19
 BYTE   W04
 BYTE   N07  Dn3  v072
 BYTE   N07  Gn3
 BYTE   W02
 BYTE   PAN   c_v-21
 BYTE   W06
 BYTE   Fs1
 BYTE   N08  An3  v068
 BYTE   N08  Dn4
 BYTE   W06
 BYTE   PAN   c_v-25
 BYTE   W02
 BYTE   N08  Dn3  v064
 BYTE   N08  Gn3
 BYTE   W04
 BYTE   PAN   c_v-26
 BYTE   W04
 BYTE   N08  En3  v060
 BYTE   N08  An3
 BYTE   W02
 BYTE   PAN   c_v-28
 BYTE   W06
 BYTE   As0
 BYTE   N08  An3  v056
 BYTE   N08  Dn4
 BYTE   W06
 BYTE   PAN   c_v-32
 BYTE   W02
 BYTE   N08  Dn3
 BYTE   N08  Gn3
 BYTE   W04
 BYTE   PAN   c_v-33
 BYTE   W04
 BYTE   N07  En3
 BYTE   N07  An3
 BYTE   W08
// 026   ----------------------------------------
 BYTE   W24
 BYTE   W24
 BYTE   W24
 BYTE   W24
// 027   ----------------------------------------
 BYTE   W24
 BYTE   W24
 BYTE   W24
 BYTE   W24
// 028   ----------------------------------------
 BYTE   W24
 BYTE   W24
 BYTE   W24
 BYTE   W24
// 029   ----------------------------------------
 BYTE   W24
 BYTE   W24
 BYTE   W24
 BYTE   W24
// 030   ----------------------------------------
 BYTE   W24
 BYTE   W24
 BYTE   W24
 BYTE   W24
// 031   ----------------------------------------
 BYTE   W24
 BYTE   W24
 BYTE   W24
 BYTE   W24
// 032   ----------------------------------------
 BYTE   W24
 BYTE   W24
 BYTE   W24
 BYTE   W24
// 033   ----------------------------------------
 BYTE   W24
 BYTE   W24
 BYTE   W24
 BYTE   W24
// 034   ----------------------------------------
 BYTE   W06
 BYTE   PAN   c_v-34
 BYTE   W04
 BYTE   Bn0
 BYTE   W01
 BYTE   N01  Bn1  v092
 BYTE   W01
 BYTE   PAN   c_v-22
 BYTE   W01
 BYTE   Ds2
 BYTE   W02
 BYTE   Bn2
 BYTE   N01  Fs2
 BYTE   W01
 BYTE   PAN   c_v+3
 BYTE   W02
 BYTE   En4
 BYTE   N01  Bn2  v096
 BYTE   W01
 BYTE   PAN   c_v+20
 BYTE   N01  Fn3
 BYTE   W02
 BYTE   PAN   c_v+28
 BYTE   W01
 BYTE   En6
 BYTE   N01  As3
 BYTE   W02
 BYTE   PAN   c_v+45
 BYTE   W01
 BYTE   N01  Ds4  v100
 BYTE   W23
 BYTE   W24
 BYTE   W24
// 035   ----------------------------------------
 BYTE   W10
 BYTE   PAN   c_v+45
 BYTE   W02
 BYTE   Dn6
 BYTE   N01  Bn4  v092
 BYTE   W01
 BYTE   PAN   c_v+23
 BYTE   W02
 BYTE   En4
 BYTE   N01  Fs4
 BYTE   W01
 BYTE   PAN   c_v+1
 BYTE   W02
 BYTE   Fs2
 BYTE   N01  Bn3  v096
 BYTE   W01
 BYTE   PAN   c_v-21
 BYTE   W01
 BYTE   N01  Fn3
 BYTE   W01
 BYTE   PAN   c_v-32
 BYTE   W01
 BYTE   AnM1
 BYTE   W01
 BYTE   N01  As2
 BYTE   W01
 BYTE   W02
 BYTE   Ds2  v100
 BYTE   W22
 BYTE   W24
 BYTE   W24
// 036   ----------------------------------------
 BYTE   W07
 BYTE   PAN   c_v-42
 BYTE   W02
 BYTE   An0
 BYTE   W01
 BYTE   Gn1
 BYTE   W02
 BYTE   Fs2
 BYTE   N01  Bn1  v092
 BYTE   W01
 BYTE   PAN   c_v+1
 BYTE   W02
 BYTE   Ds4
 BYTE   N01  Fs2
 BYTE   W01
 BYTE   PAN   c_v+21
 BYTE   W02
 BYTE   Cn6
 BYTE   N01  Bn2  v096
 BYTE   W02
 BYTE   Fn3
 BYTE   W03
 BYTE   As3
 BYTE   W01
 BYTE   W02
 BYTE   Ds4  v100
 BYTE   W22
 BYTE   W24
 BYTE   W24
// 037   ----------------------------------------
 BYTE   W12
 BYTE   PAN   c_v+34
 BYTE   N01  Bn4  v092
 BYTE   W01
 BYTE   PAN   c_v+20
 BYTE   W02
 BYTE   As3
 BYTE   W01
 BYTE   Gs2
 BYTE   N01  Fs4
 BYTE   W02
 BYTE   PAN   c_v-23
 BYTE   W01
 BYTE   Ds0
 BYTE   N01  Bn3  v096
 BYTE   W02
 BYTE   Fn3
 BYTE   W02
 BYTE   As2
 BYTE   W01
 BYTE   W02
 BYTE   Ds2  v100
 BYTE   W22
 BYTE   W24
 BYTE   W24
// 038   ----------------------------------------
 BYTE   W03
 BYTE   PAN   c_v-35
 BYTE   W01
 BYTE   As0
 BYTE   W02
 BYTE   Ds1
 BYTE   W01
 BYTE   An1
 BYTE   W02
 BYTE   Dn2
 BYTE   W01
 BYTE   Gs2
 BYTE   W02
 BYTE   Cs3
 BYTE   N01  Gs1  v092
 BYTE   W01
 BYTE   PAN   c_v+3
 BYTE   W02
 BYTE   Cn4
 BYTE   N01  Ds2
 BYTE   W01
 BYTE   PAN   c_v+14
 BYTE   W02
 BYTE   Cn5
 BYTE   N01  Gs2  v096
 BYTE   W01
 BYTE   PAN   c_v+25
 BYTE   W01
 BYTE   N01  Dn3
 BYTE   W01
 BYTE   PAN   c_v+31
 BYTE   W01
 BYTE   En6
 BYTE   W01
 BYTE   N01  Gn3
 BYTE   W01
 BYTE   PAN   c_v+42
 BYTE   W01
 BYTE   Ds7
 BYTE   W01
 BYTE   N01  Cn4  v100
 BYTE   W22
 BYTE   W24
 BYTE   W24
// 039   ----------------------------------------
 BYTE   W12
 BYTE   PAN   c_v+45
 BYTE   N01  Gs4  v092
 BYTE   W01
 BYTE   PAN   c_v+36
 BYTE   W02
 BYTE   Gn5
 BYTE   W01
 BYTE   As4
 BYTE   N01  Ds4
 BYTE   W02
 BYTE   PAN   c_v+10
 BYTE   W01
 BYTE   Fn3
 BYTE   N01  Gs3  v096
 BYTE   W02
 BYTE   PAN   c_v-8
 BYTE   N01  Dn3
 BYTE   W01
 BYTE   PAN   c_v-18
 BYTE   W01
 BYTE   N01  Gn2
 BYTE   W01
 BYTE   PAN   c_v-26
 BYTE   W01
 BYTE   Fn0
 BYTE   W01
 BYTE   N01  Cn2  v100
 BYTE   W01
 BYTE   PAN   c_v-44
 BYTE   W21
 BYTE   W24
 BYTE   W24
// 040   ----------------------------------------
 BYTE   W04
 BYTE   GsM1
 BYTE   W02
 BYTE   Ds0
 BYTE   W01
 BYTE   Bn0
 BYTE   W02
 BYTE   Fs1
 BYTE   W01
 BYTE   Dn2
 BYTE   W02
 BYTE   An2
 BYTE   N01  Bn1  v092
 BYTE   W01
 BYTE   PAN   c_v+1
 BYTE   W02
 BYTE   Cn4
 BYTE   N01  Fs2
 BYTE   W01
 BYTE   PAN   c_v+16
 BYTE   W02
 BYTE   Ds5
 BYTE   N01  Bn2  v096
 BYTE   W01
 BYTE   PAN   c_v+31
 BYTE   W01
 BYTE   N01  Fn3
 BYTE   W01
 BYTE   PAN   c_v+38
 BYTE   W02
 BYTE   N01  As3
 BYTE   W01
 BYTE   W02
 BYTE   Ds4  v100
 BYTE   W22
 BYTE   W24
 BYTE   W24
// 041   ----------------------------------------
 BYTE   W10
 BYTE   PAN   c_v+48
 BYTE   W02
 BYTE   An6
 BYTE   N01  Bn4  v092
 BYTE   W01
 BYTE   PAN   c_v+33
 BYTE   W02
 BYTE   Fs5
 BYTE   W01
 BYTE   As4
 BYTE   N01  Fs4
 BYTE   W02
 BYTE   PAN   c_v+10
 BYTE   W01
 BYTE   Gn3
 BYTE   N01  Bn3  v096
 BYTE   W02
 BYTE   PAN   c_v-5
 BYTE   N01  Fn3
 BYTE   W01
 BYTE   PAN   c_v-12
 BYTE   W01
 BYTE   N01  As2
 BYTE   W01
 BYTE   PAN   c_v-20
 BYTE   W01
 BYTE   Cs1
 BYTE   W01
 BYTE   N01  Ds2  v100
 BYTE   W01
 BYTE   PAN   c_v-35
 BYTE   W01
 BYTE   AsM1
 BYTE   W20
 BYTE   W24
 BYTE   W24
// 042   ----------------------------------------
 BYTE   GoTo
  POIN2 Label_4_01056ACE
 BYTE   FINE

//**************** Track 6 (Midi-Chn.5) ****************//

PokemonMDExplorersSteamCaveRandomWizard_006:
// 000   ----------------------------------------
 BYTE   KEYSH   PokemonMDExplorersSteamCaveRandomWizard_key+0
Label_5_01057132:
 BYTE   VOICE   46
 BYTE   PAN   c_v-34
 BYTE   VOL   14*PokemonMDExplorersSteamCaveRandomWizard_mvl/mxv
 BYTE   BEND   c_v+0
 BYTE   W24
 BYTE   W24
 BYTE   W24
 BYTE   W24
// 001   ----------------------------------------
 BYTE   W24
 BYTE   W24
 BYTE   W24
 BYTE   W24
// 002   ----------------------------------------
 BYTE   W24
 BYTE   W24
 BYTE   W24
 BYTE   W24
// 003   ----------------------------------------
 BYTE   W24
 BYTE   W24
 BYTE   W24
 BYTE   W24
// 004   ----------------------------------------
 BYTE   W12
 BYTE   PAN   c_v+33
 BYTE   N03  Fs3  v060
 BYTE   W06
 BYTE   PAN   c_v+28
 BYTE   W02
 BYTE   N03  Gn3
 BYTE   W04
 BYTE   PAN   c_v+23
 BYTE   W04
 BYTE   N03  Fs3
 BYTE   W02
 BYTE   PAN   c_v+18
 BYTE   W06
 BYTE   En4
 BYTE   N03  Gn3  v064
 BYTE   W06
 BYTE   PAN   c_v+7
 BYTE   W02
 BYTE   N03  Fs3  v068
 BYTE   W04
 BYTE   PAN   c_v+2
 BYTE   W04
 BYTE   N03  Gn3
 BYTE   W02
 BYTE   PAN   c_v-3
 BYTE   W06
 BYTE   Gn2
 BYTE   N03  Fs3  v072
 BYTE   W06
 BYTE   PAN   c_v-14
 BYTE   W02
 BYTE   N03  Gn3  v076
 BYTE   W04
 BYTE   PAN   c_v-19
 BYTE   W04
 BYTE   N03  Fs3  v080
 BYTE   W02
 BYTE   PAN   c_v-25
 BYTE   W06
 BYTE   As0
 BYTE   N03  Gn3  v084
 BYTE   W06
 BYTE   PAN   c_v-35
 BYTE   W02
 BYTE   N03  Fs3  v088
 BYTE   W04
// 005   ----------------------------------------
 BYTE   PAN   c_v-40
 BYTE   W04
 BYTE   N03  Gn3  v092
 BYTE   W02
 BYTE   PAN   c_v-45
 BYTE   W06
 BYTE   EnM1
 BYTE   N03  Fs3  v100
 BYTE   W06
 BYTE   PAN   c_v-42
 BYTE   N03  Gn3  v104
 BYTE   W06
 BYTE   PAN   c_v-37
 BYTE   N03  An3  v108
 BYTE   W06
 BYTE   PAN   c_v-32
 BYTE   N03  Bn3  v112
 BYTE   W06
 BYTE   PAN   c_v-26
 BYTE   N03  Cn4  v108
 BYTE   W06
 BYTE   PAN   c_v-21
 BYTE   N03  Bn3
 BYTE   W06
 BYTE   PAN   c_v-15
 BYTE   N03  An3  v104
 BYTE   W06
 BYTE   PAN   c_v-10
 BYTE   N03  Gn3  v100
 BYTE   W06
 BYTE   PAN   c_v-4
 BYTE   N03  Fs3  v096
 BYTE   W06
 BYTE   PAN   c_v+1
 BYTE   W02
 BYTE   N03  En3  v092
 BYTE   W04
 BYTE   PAN   c_v+7
 BYTE   W04
 BYTE   N03  Dn3  v088
 BYTE   W02
 BYTE   PAN   c_v+13
 BYTE   W06
 BYTE   As4
 BYTE   N03  Cn3  v084
 BYTE   W06
 BYTE   PAN   c_v+23
 BYTE   W02
 BYTE   N03  Dn3  v080
 BYTE   W04
// 006   ----------------------------------------
 BYTE   PAN   c_v+29
 BYTE   W04
 BYTE   N03  En3
 BYTE   W02
 BYTE   PAN   c_v+34
 BYTE   W06
 BYTE   Fs6
 BYTE   N03  Fs4  v076
 BYTE   W06
 BYTE   PAN   c_v+33
 BYTE   W02
 BYTE   N03  Gn4
 BYTE   W04
 BYTE   PAN   c_v+28
 BYTE   W04
 BYTE   N03  Fs4
 BYTE   W02
 BYTE   PAN   c_v+23
 BYTE   W06
 BYTE   As4
 BYTE   N03  Gn4
 BYTE   W06
 BYTE   PAN   c_v+13
 BYTE   W02
 BYTE   N03  Fs4
 BYTE   W04
 BYTE   PAN   c_v+8
 BYTE   W04
 BYTE   N03  Gn4  v080
 BYTE   W02
 BYTE   PAN   c_v+3
 BYTE   W06
 BYTE   Dn3
 BYTE   N03  Fs4
 BYTE   W06
 BYTE   PAN   c_v-7
 BYTE   W02
 BYTE   N03  Gn4  v084
 BYTE   W04
 BYTE   PAN   c_v-12
 BYTE   W04
 BYTE   N03  Fs4
 BYTE   W02
 BYTE   PAN   c_v-17
 BYTE   W06
 BYTE   Fs1
 BYTE   N03  Gn4  v088
 BYTE   W06
 BYTE   PAN   c_v-27
 BYTE   W02
 BYTE   N03  Fs4  v092
 BYTE   W04
// 007   ----------------------------------------
 BYTE   PAN   c_v-32
 BYTE   W04
 BYTE   N03  Gn4  v096
 BYTE   W02
 BYTE   PAN   c_v-37
 BYTE   W06
 BYTE   FnM1
 BYTE   N03  Fs4  v100
 BYTE   W06
 BYTE   PAN   c_v-42
 BYTE   N03  Gn4
 BYTE   W06
 BYTE   PAN   c_v-37
 BYTE   N03  An4  v104
 BYTE   W06
 BYTE   PAN   c_v-32
 BYTE   N03  Bn4  v108
 BYTE   W06
 BYTE   PAN   c_v-27
 BYTE   N03  Cn5
 BYTE   W06
 BYTE   PAN   c_v-22
 BYTE   N03  Bn4
 BYTE   W06
 BYTE   PAN   c_v-17
 BYTE   N03  An4
 BYTE   W06
 BYTE   PAN   c_v-12
 BYTE   N03  Gn4  v104
 BYTE   W06
 BYTE   PAN   c_v-7
 BYTE   N03  Fs4  v100
 BYTE   W06
 BYTE   PAN   c_v-2
 BYTE   W02
 BYTE   N03  En4  v096
 BYTE   W04
 BYTE   PAN   c_v+3
 BYTE   W04
 BYTE   N03  Dn4  v088
 BYTE   W02
 BYTE   PAN   c_v+8
 BYTE   W06
 BYTE   Fn4
 BYTE   N03  Cn4  v080
 BYTE   W06
 BYTE   PAN   c_v+18
 BYTE   W02
 BYTE   N03  Bn3  v072
 BYTE   W04
// 008   ----------------------------------------
 BYTE   PAN   c_v+23
 BYTE   W04
 BYTE   N03  An3  v060
 BYTE   W02
 BYTE   PAN   c_v+28
 BYTE   W06
 BYTE   Cs6
 BYTE   N03  Bn3  v048
 BYTE   W12
 BYTE   W24
 BYTE   W24
 BYTE   W24
// 009   ----------------------------------------
 BYTE   W24
 BYTE   W24
 BYTE   W24
 BYTE   W18
 BYTE   PAN   c_v+36
 BYTE   W06
// 010   ----------------------------------------
 BYTE   Cn6
 BYTE   W06
 BYTE   Gs5
 BYTE   W06
 BYTE   En5
 BYTE   N08  Fs3  v060
 BYTE   W06
 BYTE   PAN   c_v+20
 BYTE   W02
 BYTE   N08  Gn3
 BYTE   W04
 BYTE   PAN   c_v+16
 BYTE   W04
 BYTE   N08  Fs3
 BYTE   W02
 BYTE   PAN   c_v+13
 BYTE   W06
 BYTE   Cs4
 BYTE   N08  Gn3  v064
 BYTE   W06
 BYTE   PAN   c_v+5
 BYTE   W02
 BYTE   N08  Fs3  v068
 BYTE   W04
 BYTE   PAN   c_v+1
 BYTE   W04
 BYTE   N08  Gn3
 BYTE   W02
 BYTE   PAN   c_v-3
 BYTE   W06
 BYTE   An2
 BYTE   N08  Fs3  v072
 BYTE   W06
 BYTE   PAN   c_v-11
 BYTE   W02
 BYTE   N08  Gn3  v076
 BYTE   W04
 BYTE   PAN   c_v-15
 BYTE   W04
 BYTE   N08  Fs3  v080
 BYTE   W02
 BYTE   PAN   c_v-19
 BYTE   W06
 BYTE   Fn1
 BYTE   N08  Gn3  v084
 BYTE   W06
 BYTE   PAN   c_v-27
 BYTE   W02
 BYTE   N08  Fs3  v088
 BYTE   W04
// 011   ----------------------------------------
 BYTE   PAN   c_v-30
 BYTE   W04
 BYTE   N08  Gn3  v092
 BYTE   W02
 BYTE   PAN   c_v-42
 BYTE   W06
 BYTE   Ds0
 BYTE   N06  Fs3  v100
 BYTE   W06
 BYTE   PAN   c_v-33
 BYTE   N06  Gn3  v104
 BYTE   W06
 BYTE   PAN   c_v-29
 BYTE   N06  An3  v108
 BYTE   W06
 BYTE   PAN   c_v-24
 BYTE   N06  Bn3  v112
 BYTE   W06
 BYTE   PAN   c_v-20
 BYTE   N06  Cn4  v108
 BYTE   W06
 BYTE   PAN   c_v-15
 BYTE   N06  Bn3
 BYTE   W06
 BYTE   PAN   c_v-11
 BYTE   N06  An3  v104
 BYTE   W06
 BYTE   PAN   c_v-7
 BYTE   N06  Gn3  v100
 BYTE   W06
 BYTE   PAN   c_v-2
 BYTE   N08  Fs3  v096
 BYTE   W06
 BYTE   PAN   c_v+2
 BYTE   W02
 BYTE   N08  En3  v092
 BYTE   W04
 BYTE   PAN   c_v+7
 BYTE   W04
 BYTE   N08  Dn3  v088
 BYTE   W02
 BYTE   PAN   c_v+11
 BYTE   W06
 BYTE   Gn4
 BYTE   N08  Cn3  v084
 BYTE   W06
 BYTE   PAN   c_v+20
 BYTE   W02
 BYTE   N08  Dn3  v080
 BYTE   W04
// 012   ----------------------------------------
 BYTE   PAN   c_v+24
 BYTE   W04
 BYTE   N08  En3
 BYTE   W02
 BYTE   PAN   c_v+32
 BYTE   W06
 BYTE   Gs5
 BYTE   N08  Fs4  v048
 BYTE   W06
 BYTE   PAN   c_v+23
 BYTE   W02
 BYTE   N08  Gn4  v052
 BYTE   W04
 BYTE   PAN   c_v+19
 BYTE   W04
 BYTE   N08  Fs4
 BYTE   W02
 BYTE   PAN   c_v+15
 BYTE   W06
 BYTE   Ds4
 BYTE   N08  Gn4
 BYTE   W06
 BYTE   PAN   c_v+6
 BYTE   W02
 BYTE   N08  Fs4  v056
 BYTE   W04
 BYTE   PAN   c_v+2
 BYTE   W04
 BYTE   N08  Gn4  v060
 BYTE   W02
 BYTE   PAN   c_v-2
 BYTE   W06
 BYTE   As2
 BYTE   N08  Fs4
 BYTE   W06
 BYTE   PAN   c_v-10
 BYTE   W02
 BYTE   N08  Gn4  v064
 BYTE   W04
 BYTE   PAN   c_v-15
 BYTE   W04
 BYTE   N08  Fs4  v068
 BYTE   W02
 BYTE   PAN   c_v-19
 BYTE   W06
 BYTE   Fn1
 BYTE   N08  Gn4  v072
 BYTE   W06
 BYTE   PAN   c_v-27
 BYTE   W02
 BYTE   N08  Fs4  v080
 BYTE   W04
// 013   ----------------------------------------
 BYTE   PAN   c_v-32
 BYTE   W04
 BYTE   N08  Gn4  v084
 BYTE   W02
 BYTE   PAN   c_v-40
 BYTE   W06
 BYTE   Ds0
 BYTE   N06  Fs4  v088
 BYTE   W06
 BYTE   PAN   c_v-33
 BYTE   N06  Gn4  v092
 BYTE   W06
 BYTE   PAN   c_v-29
 BYTE   N06  An4  v100
 BYTE   W06
 BYTE   PAN   c_v-25
 BYTE   N06  Bn4
 BYTE   W06
 BYTE   PAN   c_v-21
 BYTE   N06  Cn5
 BYTE   W06
 BYTE   PAN   c_v-17
 BYTE   N06  Bn4  v096
 BYTE   W06
 BYTE   PAN   c_v-14
 BYTE   N06  An4  v092
 BYTE   W06
 BYTE   PAN   c_v-10
 BYTE   N06  Gn4  v088
 BYTE   W06
 BYTE   PAN   c_v-6
 BYTE   N08  Fs4  v084
 BYTE   W06
 BYTE   PAN   c_v-2
 BYTE   W02
 BYTE   N08  En4  v080
 BYTE   W04
 BYTE   PAN   c_v+2
 BYTE   W04
 BYTE   N08  Dn4  v076
 BYTE   W02
 BYTE   PAN   c_v+5
 BYTE   W06
 BYTE   Cs4
 BYTE   N08  Cn4
 BYTE   W06
 BYTE   PAN   c_v+13
 BYTE   W02
 BYTE   N08  Bn3  v072
 BYTE   W04
// 014   ----------------------------------------
 BYTE   PAN   c_v+17
 BYTE   W04
 BYTE   N08  An3  v068
 BYTE   W02
 BYTE   PAN   c_v+21
 BYTE   W06
 BYTE   Fn5
 BYTE   N08  Bn3  v064
 BYTE   W06
 BYTE   PAN   c_v+28
 BYTE   W06
 BYTE   W24
 BYTE   W24
 BYTE   W24
// 015   ----------------------------------------
 BYTE   W24
 BYTE   W24
 BYTE   W24
 BYTE   W24
// 016   ----------------------------------------
 BYTE   W24
 BYTE   W24
 BYTE   W24
 BYTE   W24
// 017   ----------------------------------------
 BYTE   W24
 BYTE   W24
 BYTE   W24
 BYTE   W24
// 018   ----------------------------------------
 BYTE   W24
 BYTE   W24
 BYTE   W24
 BYTE   W24
// 019   ----------------------------------------
 BYTE   W24
 BYTE   W24
 BYTE   W24
 BYTE   W24
// 020   ----------------------------------------
 BYTE   W24
 BYTE   W24
 BYTE   W24
 BYTE   W24
// 021   ----------------------------------------
 BYTE   W24
 BYTE   W24
 BYTE   W24
 BYTE   W24
// 022   ----------------------------------------
 BYTE   W24
 BYTE   W24
 BYTE   W24
 BYTE   W24
// 023   ----------------------------------------
 BYTE   W24
 BYTE   W24
 BYTE   W24
 BYTE   W18
 BYTE   Fs5
 BYTE   W06
// 024   ----------------------------------------
 BYTE   En5
 BYTE   W06
 BYTE   Ds5
 BYTE   W06
 BYTE   Cs5
 BYTE   N08  Fs3  v068
 BYTE   N08  Bn3
 BYTE   W06
 BYTE   PAN   c_v+19
 BYTE   W02
 BYTE   N08  Cs3
 BYTE   N08  Fs3
 BYTE   W04
 BYTE   PAN   c_v+17
 BYTE   W04
 BYTE   N08  Dn3
 BYTE   N08  Gn3
 BYTE   W02
 BYTE   PAN   c_v+15
 BYTE   W06
 BYTE   Fn4
 BYTE   N08  Fs3
 BYTE   N08  Bn3
 BYTE   W06
 BYTE   PAN   c_v+12
 BYTE   W02
 BYTE   N08  Cs3  v072
 BYTE   N08  Fs3
 BYTE   W04
 BYTE   PAN   c_v+10
 BYTE   W04
 BYTE   N08  Dn3
 BYTE   N08  Gn3
 BYTE   W02
 BYTE   PAN   c_v+8
 BYTE   W06
 BYTE   As3
 BYTE   N08  Fs3  v076
 BYTE   N08  Bn3
 BYTE   W06
 BYTE   PAN   c_v+5
 BYTE   W02
 BYTE   N08  Cs3  v080
 BYTE   N08  Fs3
 BYTE   W04
 BYTE   PAN   c_v+3
 BYTE   W04
 BYTE   N08  Dn3  v088
 BYTE   N08  Gn3
 BYTE   W02
 BYTE   PAN   c_v+1
 BYTE   W06
 BYTE   Ds3
 BYTE   N08  Fs3
 BYTE   N08  Bn3
 BYTE   W06
 BYTE   PAN   c_v-3
 BYTE   W02
 BYTE   N08  Cs3  v096
 BYTE   N08  Fs3
 BYTE   W04
// 025   ----------------------------------------
 BYTE   PAN   c_v-5
 BYTE   W04
 BYTE   N08  Dn3  v104
 BYTE   N08  Gn3
 BYTE   W02
 BYTE   PAN   c_v-6
 BYTE   W06
 BYTE   Gs2
 BYTE   N08  Fs3  v108
 BYTE   N08  Bn3
 BYTE   W06
 BYTE   PAN   c_v-10
 BYTE   W02
 BYTE   N08  Cs3  v100
 BYTE   N08  Fs3
 BYTE   W04
 BYTE   PAN   c_v-12
 BYTE   W04
 BYTE   N08  Dn3  v092
 BYTE   N08  Gn3
 BYTE   W02
 BYTE   PAN   c_v-14
 BYTE   W06
 BYTE   Cs2
 BYTE   N08  Fs3  v084
 BYTE   N08  Bn3
 BYTE   W06
 BYTE   PAN   c_v-17
 BYTE   W02
 BYTE   N08  Cs3  v076
 BYTE   N08  Fs3
 BYTE   W04
 BYTE   PAN   c_v-19
 BYTE   W04
 BYTE   N07  Dn3  v072
 BYTE   N07  Gn3
 BYTE   W02
 BYTE   PAN   c_v-21
 BYTE   W06
 BYTE   Fs1
 BYTE   N08  An3  v068
 BYTE   N08  Dn4
 BYTE   W06
 BYTE   PAN   c_v-25
 BYTE   W02
 BYTE   N08  Dn3  v064
 BYTE   N08  Gn3
 BYTE   W04
 BYTE   PAN   c_v-26
 BYTE   W04
 BYTE   N08  En3  v060
 BYTE   N08  An3
 BYTE   W02
 BYTE   PAN   c_v-28
 BYTE   W06
 BYTE   As0
 BYTE   N08  An3  v056
 BYTE   N08  Dn4
 BYTE   W06
 BYTE   PAN   c_v-32
 BYTE   W02
 BYTE   N08  Dn3
 BYTE   N08  Gn3
 BYTE   W04
// 026   ----------------------------------------
 BYTE   PAN   c_v-33
 BYTE   W04
 BYTE   N07  En3
 BYTE   N07  An3
 BYTE   W20
 BYTE   W24
 BYTE   W24
 BYTE   W24
// 027   ----------------------------------------
 BYTE   W24
 BYTE   W24
 BYTE   W24
 BYTE   W24
// 028   ----------------------------------------
 BYTE   W24
 BYTE   W24
 BYTE   W24
 BYTE   W24
// 029   ----------------------------------------
 BYTE   W24
 BYTE   W24
 BYTE   W24
 BYTE   W24
// 030   ----------------------------------------
 BYTE   W24
 BYTE   W24
 BYTE   W24
 BYTE   W24
// 031   ----------------------------------------
 BYTE   W24
 BYTE   W24
 BYTE   W24
 BYTE   W24
// 032   ----------------------------------------
 BYTE   W24
 BYTE   W24
 BYTE   W24
 BYTE   W24
// 033   ----------------------------------------
 BYTE   W24
 BYTE   W24
 BYTE   W24
 BYTE   W24
// 034   ----------------------------------------
 BYTE   W18
 BYTE   PAN   c_v-34
 BYTE   W04
 BYTE   Bn0
 BYTE   W01
 BYTE   N01  Bn1  v092
 BYTE   W01
 BYTE   PAN   c_v-22
 BYTE   W01
 BYTE   Ds2
 BYTE   W02
 BYTE   Bn2
 BYTE   N01  Fs2
 BYTE   W01
 BYTE   PAN   c_v+3
 BYTE   W02
 BYTE   En4
 BYTE   N01  Bn2  v096
 BYTE   W01
 BYTE   PAN   c_v+20
 BYTE   N01  Fn3
 BYTE   W02
 BYTE   PAN   c_v+28
 BYTE   W01
 BYTE   En6
 BYTE   N01  As3
 BYTE   W02
 BYTE   PAN   c_v+45
 BYTE   W01
 BYTE   N01  Ds4  v100
 BYTE   W11
 BYTE   W24
 BYTE   W24
// 035   ----------------------------------------
 BYTE   W22
 BYTE   PAN   c_v+45
 BYTE   W02
 BYTE   Dn6
 BYTE   N01  Bn4  v092
 BYTE   W01
 BYTE   PAN   c_v+23
 BYTE   W02
 BYTE   En4
 BYTE   N01  Fs4
 BYTE   W01
 BYTE   PAN   c_v+1
 BYTE   W02
 BYTE   Fs2
 BYTE   N01  Bn3  v096
 BYTE   W01
 BYTE   PAN   c_v-21
 BYTE   W01
 BYTE   N01  Fn3
 BYTE   W01
 BYTE   PAN   c_v-32
 BYTE   W01
 BYTE   AnM1
 BYTE   W01
 BYTE   N01  As2
 BYTE   W03
 BYTE   Ds2  v100
 BYTE   W10
 BYTE   W24
 BYTE   W24
// 036   ----------------------------------------
 BYTE   W19
 BYTE   PAN   c_v-42
 BYTE   W02
 BYTE   An0
 BYTE   W01
 BYTE   Gn1
 BYTE   W02
 BYTE   Fs2
 BYTE   N01  Bn1  v092
 BYTE   W01
 BYTE   PAN   c_v+1
 BYTE   W02
 BYTE   Ds4
 BYTE   N01  Fs2
 BYTE   W01
 BYTE   PAN   c_v+21
 BYTE   W02
 BYTE   Cn6
 BYTE   N01  Bn2  v096
 BYTE   W02
 BYTE   Fn3
 BYTE   W03
 BYTE   As3
 BYTE   W03
 BYTE   Ds4  v100
 BYTE   W10
 BYTE   W24
 BYTE   W24
// 037   ----------------------------------------
 BYTE   W24
 BYTE   PAN   c_v+34
 BYTE   N01  Bn4  v092
 BYTE   W01
 BYTE   PAN   c_v+20
 BYTE   W02
 BYTE   As3
 BYTE   W01
 BYTE   Gs2
 BYTE   N01  Fs4
 BYTE   W02
 BYTE   PAN   c_v-23
 BYTE   W01
 BYTE   Ds0
 BYTE   N01  Bn3  v096
 BYTE   W02
 BYTE   Fn3
 BYTE   W02
 BYTE   As2
 BYTE   W03
 BYTE   Ds2  v100
 BYTE   W10
 BYTE   W24
 BYTE   W24
// 038   ----------------------------------------
 BYTE   W15
 BYTE   PAN   c_v-35
 BYTE   W01
 BYTE   As0
 BYTE   W02
 BYTE   Ds1
 BYTE   W01
 BYTE   An1
 BYTE   W02
 BYTE   Dn2
 BYTE   W01
 BYTE   Gs2
 BYTE   W02
 BYTE   Cs3
 BYTE   N01  Gs1  v092
 BYTE   W01
 BYTE   PAN   c_v+3
 BYTE   W02
 BYTE   Cn4
 BYTE   N01  Ds2
 BYTE   W01
 BYTE   PAN   c_v+14
 BYTE   W02
 BYTE   Cn5
 BYTE   N01  Gs2  v096
 BYTE   W01
 BYTE   PAN   c_v+25
 BYTE   W01
 BYTE   N01  Dn3
 BYTE   W01
 BYTE   PAN   c_v+31
 BYTE   W01
 BYTE   En6
 BYTE   W01
 BYTE   N01  Gn3
 BYTE   W01
 BYTE   PAN   c_v+42
 BYTE   W01
 BYTE   Ds7
 BYTE   W01
 BYTE   N01  Cn4  v100
 BYTE   W10
 BYTE   W24
 BYTE   W24
// 039   ----------------------------------------
 BYTE   W24
 BYTE   PAN   c_v+45
 BYTE   N01  Gs4  v092
 BYTE   W01
 BYTE   PAN   c_v+36
 BYTE   W02
 BYTE   Gn5
 BYTE   W01
 BYTE   As4
 BYTE   N01  Ds4
 BYTE   W02
 BYTE   PAN   c_v+10
 BYTE   W01
 BYTE   Fn3
 BYTE   N01  Gs3  v096
 BYTE   W02
 BYTE   PAN   c_v-8
 BYTE   N01  Dn3
 BYTE   W01
 BYTE   PAN   c_v-18
 BYTE   W01
 BYTE   N01  Gn2
 BYTE   W01
 BYTE   PAN   c_v-26
 BYTE   W01
 BYTE   Fn0
 BYTE   W01
 BYTE   N01  Cn2  v100
 BYTE   W01
 BYTE   PAN   c_v-44
 BYTE   W09
 BYTE   W24
 BYTE   W24
// 040   ----------------------------------------
 BYTE   W16
 BYTE   GsM1
 BYTE   W02
 BYTE   Ds0
 BYTE   W01
 BYTE   Bn0
 BYTE   W02
 BYTE   Fs1
 BYTE   W01
 BYTE   Dn2
 BYTE   W02
 BYTE   An2
 BYTE   N01  Bn1  v092
 BYTE   W01
 BYTE   PAN   c_v+1
 BYTE   W02
 BYTE   Cn4
 BYTE   N01  Fs2
 BYTE   W01
 BYTE   PAN   c_v+16
 BYTE   W02
 BYTE   Ds5
 BYTE   N01  Bn2  v096
 BYTE   W01
 BYTE   PAN   c_v+31
 BYTE   W01
 BYTE   N01  Fn3
 BYTE   W01
 BYTE   PAN   c_v+38
 BYTE   W02
 BYTE   N01  As3
 BYTE   W03
 BYTE   Ds4  v100
 BYTE   W10
 BYTE   W24
 BYTE   W24
// 041   ----------------------------------------
 BYTE   W22
 BYTE   PAN   c_v+48
 BYTE   W02
 BYTE   An6
 BYTE   N01  Bn4  v092
 BYTE   W01
 BYTE   PAN   c_v+33
 BYTE   W02
 BYTE   Fs5
 BYTE   W01
 BYTE   As4
 BYTE   N01  Fs4
 BYTE   W02
 BYTE   PAN   c_v+10
 BYTE   W01
 BYTE   Gn3
 BYTE   N01  Bn3  v096
 BYTE   W02
 BYTE   PAN   c_v-5
 BYTE   N01  Fn3
 BYTE   W01
 BYTE   PAN   c_v-12
 BYTE   W01
 BYTE   N01  As2
 BYTE   W01
 BYTE   PAN   c_v-20
 BYTE   W01
 BYTE   Cs1
 BYTE   W01
 BYTE   N01  Ds2  v100
 BYTE   W01
 BYTE   PAN   c_v-35
 BYTE   W01
 BYTE   AsM1
 BYTE   W08
 BYTE   W24
 BYTE   W24
// 042   ----------------------------------------
 BYTE   GoTo
  POIN2 Label_5_01057132
 BYTE   FINE

//**************** Track 7 (Midi-Chn.6) ****************//

PokemonMDExplorersSteamCaveRandomWizard_007:
// 000   ----------------------------------------
 BYTE   KEYSH   PokemonMDExplorersSteamCaveRandomWizard_key+0
Label_6_010576BA:
 BYTE   VOICE   73
 BYTE   PAN   c_v+0
 BYTE   VOL   31*PokemonMDExplorersSteamCaveRandomWizard_mvl/mxv
 BYTE   BEND   c_v+0
 BYTE   W24
 BYTE   W24
 BYTE   W24
 BYTE   W24
// 001   ----------------------------------------
 BYTE   W24
 BYTE   W24
 BYTE   W24
 BYTE   W24
// 002   ----------------------------------------
 BYTE   W24
 BYTE   W24
 BYTE   W24
 BYTE   W24
// 003   ----------------------------------------
 BYTE   W24
 BYTE   W24
 BYTE   W24
 BYTE   W24
// 004   ----------------------------------------
 BYTE   W24
 BYTE   W24
 BYTE   W24
 BYTE   W24
// 005   ----------------------------------------
 BYTE   W24
 BYTE   W24
 BYTE   W24
 BYTE   W24
// 006   ----------------------------------------
 BYTE   W24
 BYTE   W24
 BYTE   W24
 BYTE   W24
// 007   ----------------------------------------
 BYTE   W24
 BYTE   W24
 BYTE   W24
 BYTE   W24
// 008   ----------------------------------------
 BYTE   W06
 BYTE   W18
 BYTE   W15
 BYTE   W01
 BYTE   W02
 BYTE   W06
 BYTE   N48  En3  v127
 BYTE   W04
 BYTE   W05
 BYTE   W04
 BYTE   W03
 BYTE   W03
 BYTE   W03
 BYTE   W02
 BYTE   W03
 BYTE   W01
 BYTE   W02
 BYTE   W01
 BYTE   W02
 BYTE   W03
 BYTE   W01
 BYTE   W03
 BYTE   W03
 BYTE   W02
 BYTE   W01
 BYTE   W02
// 009   ----------------------------------------
 BYTE   N72  An3
 BYTE   W01
 BYTE   W02
 BYTE   W01
 BYTE   W02
 BYTE   W01
 BYTE   W02
 BYTE   W01
 BYTE   W02
 BYTE   W01
 BYTE   W02
 BYTE   W01
 BYTE   W02
 BYTE   W01
 BYTE   W02
 BYTE   W01
 BYTE   W02
 BYTE   W01
 BYTE   W02
 BYTE   W01
 BYTE   W02
 BYTE   W01
 BYTE   W02
 BYTE   W01
 BYTE   W02
 BYTE   W01
 BYTE   W02
 BYTE   W09
 BYTE   W24
 BYTE   N24  Gn3
 BYTE   W06
 BYTE   W15
 BYTE   W03
// 010   ----------------------------------------
 BYTE   N48  Fs3
 BYTE   W15
 BYTE   W09
 BYTE   W12
 BYTE   W07
 BYTE   W05
 BYTE   N96  Dn3
 BYTE   W03
 BYTE   W09
 BYTE   W06
 BYTE   W01
 BYTE   W05
 BYTE   W03
 BYTE   W06
 BYTE   W01
 BYTE   W05
 BYTE   W01
 BYTE   W02
 BYTE   W03
 BYTE   W01
 BYTE   W02
// 011   ----------------------------------------
 BYTE   W01
 BYTE   W02
 BYTE   W01
 BYTE   W03
 BYTE   W02
 BYTE   W01
 BYTE   W02
 BYTE   W01
 BYTE   W02
 BYTE   W01
 BYTE   W02
 BYTE   W01
 BYTE   W02
 BYTE   W01
 BYTE   W02
 BYTE   W13
 BYTE   W05
 BYTE   W04
 BYTE   W02
 BYTE   N36  Dn4
 BYTE   W03
 BYTE   W03
 BYTE   W04
 BYTE   W02
 BYTE   W03
 BYTE   W03
 BYTE   W01
 BYTE   W03
 BYTE   W02
 BYTE   W01
 BYTE   W03
 BYTE   W02
 BYTE   W01
 BYTE   W02
 BYTE   W01
 BYTE   W02
 BYTE   N12  Cn4
 BYTE   W01
 BYTE   W03
 BYTE   W02
 BYTE   W01
 BYTE   W02
 BYTE   W01
 BYTE   W02
// 012   ----------------------------------------
 BYTE   TIE  Bn3
 BYTE   W01
 BYTE   W02
 BYTE   W01
 BYTE   W02
 BYTE   W01
 BYTE   W02
 BYTE   W01
 BYTE   W02
 BYTE   W01
 BYTE   W02
 BYTE   W01
 BYTE   W02
 BYTE   W01
 BYTE   W05
 BYTE   W15
 BYTE   W09
 BYTE   W06
 BYTE   W07
 BYTE   W05
 BYTE   W06
 BYTE   W03
 BYTE   W03
 BYTE   W04
 BYTE   W03
 BYTE   W05
 BYTE   W03
 BYTE   W03
// 013   ----------------------------------------
 BYTE   W03
 BYTE   W03
 BYTE   W03
 BYTE   W01
 BYTE   W03
 BYTE   W03
 BYTE   W02
 BYTE   W06
 BYTE   EOT
 BYTE   N24  An3
 BYTE   W10
 BYTE   W08
 BYTE   W06
 BYTE   TIE  Bn3
 BYTE   W01
 BYTE   W03
 BYTE   W05
 BYTE   W04
 BYTE   W03
 BYTE   W05
 BYTE   W01
 BYTE   W02
 BYTE   W01
 BYTE   W03
 BYTE   W03
 BYTE   W03
 BYTE   W02
 BYTE   W01
 BYTE   W03
 BYTE   W03
 BYTE   W02
 BYTE   W03
// 014   ----------------------------------------
 BYTE   W04
 BYTE   W09
 BYTE   W09
 BYTE   W02
 BYTE   W01
 BYTE   W05
 BYTE   W03
 BYTE   W03
 BYTE   W03
 BYTE   W03
 BYTE   W01
 BYTE   W03
 BYTE   W02
 BYTE   W01
 BYTE   W02
 BYTE   W03
 BYTE   W01
 BYTE   W02
 BYTE   W01
 BYTE   W03
 BYTE   W02
 BYTE   W03
 BYTE   W01
 BYTE   W02
 BYTE   W01
 BYTE   W02
 BYTE   W01
 BYTE   W02
 BYTE   W01
 BYTE   W02
 BYTE   W01
 BYTE   W02
 BYTE   W01
 BYTE   W02
 BYTE   W01
 BYTE   W02
 BYTE   W01
 BYTE   W02
 BYTE   W01
 BYTE   W02
 BYTE   W01
 BYTE   W02
// 015   ----------------------------------------
 BYTE   W01
 BYTE   W02
 BYTE   W01
 BYTE   W02
 BYTE   W01
 BYTE   W02
 BYTE   W01
 BYTE   W02
 BYTE   W01
 BYTE   W02
 BYTE   W01
 BYTE   W02
 BYTE   W01
 BYTE   W02
 BYTE   W01
 BYTE   W02
 BYTE   W01
 BYTE   W02
 BYTE   W01
 BYTE   W02
 BYTE   W01
 BYTE   W02
 BYTE   W01
 BYTE   W02
 BYTE   W01
 BYTE   W02
 BYTE   W01
 BYTE   W02
 BYTE   W01
 BYTE   W02
 BYTE   W01
 BYTE   W02
 BYTE   EOT
 BYTE   W01
 BYTE   W02
 BYTE   W01
 BYTE   W02
 BYTE   W01
 BYTE   W17
 BYTE   W24
// 016   ----------------------------------------
 BYTE   W24
 BYTE   W24
 BYTE   W24
 BYTE   W24
// 017   ----------------------------------------
 BYTE   W24
 BYTE   W13
 BYTE   W02
 BYTE   W01
 BYTE   W08
 BYTE   W24
 BYTE   W07
 BYTE   W12
 BYTE   W02
 BYTE   W03
// 018   ----------------------------------------
 BYTE   N48  Bn4
 BYTE   W03
 BYTE   W04
 BYTE   W02
 BYTE   W03
 BYTE   W01
 BYTE   W02
 BYTE   W01
 BYTE   W02
 BYTE   W01
 BYTE   W02
 BYTE   W01
 BYTE   W02
 BYTE   W01
 BYTE   W02
 BYTE   W01
 BYTE   W02
 BYTE   W01
 BYTE   W02
 BYTE   W01
 BYTE   W02
 BYTE   W01
 BYTE   W02
 BYTE   W01
 BYTE   W02
 BYTE   W01
 BYTE   W05
 BYTE   N90  Fs4
 BYTE   W06
 BYTE   W16
 BYTE   W02
 BYTE   W03
 BYTE   W04
 BYTE   W03
 BYTE   W03
 BYTE   W05
 BYTE   W01
 BYTE   W03
 BYTE   W02
// 019   ----------------------------------------
 BYTE   W01
 BYTE   W02
 BYTE   W03
 BYTE   W01
 BYTE   W02
 BYTE   W01
 BYTE   W02
 BYTE   W03
 BYTE   W01
 BYTE   W02
 BYTE   W01
 BYTE   W02
 BYTE   W01
 BYTE   W02
 BYTE   W01
 BYTE   W02
 BYTE   W01
 BYTE   W02
 BYTE   W01
 BYTE   W02
 BYTE   W01
 BYTE   W03
 BYTE   W03
 BYTE   W02
 BYTE   N06  En4
 BYTE   W01
 BYTE   W02
 BYTE   W01
 BYTE   W02
 BYTE   N16  Fs4
 BYTE   W01
 BYTE   W02
 BYTE   W01
 BYTE   W02
 BYTE   W01
 BYTE   W02
 BYTE   W01
 BYTE   W02
 BYTE   W04
 BYTE   N14  Gn4
 BYTE   W08
 BYTE   W06
 BYTE   N06  Fs4
 BYTE   W06
 BYTE   En4
 BYTE   W06
 BYTE   Dn4
 BYTE   W06
// 020   ----------------------------------------
 BYTE   N48  En4
 BYTE   W24
 BYTE   W24
 BYTE   TIE  An3
 BYTE   W15
 BYTE   W04
 BYTE   W05
 BYTE   W01
 BYTE   W05
 BYTE   W04
 BYTE   W03
 BYTE   W02
 BYTE   W03
 BYTE   W03
 BYTE   W03
// 021   ----------------------------------------
 BYTE   W01
 BYTE   W02
 BYTE   W03
 BYTE   W01
 BYTE   W03
 BYTE   W02
 BYTE   W01
 BYTE   W03
 BYTE   W02
 BYTE   W01
 BYTE   W02
 BYTE   W01
 BYTE   W02
 BYTE   W01
 BYTE   W02
 BYTE   W01
 BYTE   W02
 BYTE   W01
 BYTE   W02
 BYTE   W01
 BYTE   W02
 BYTE   W03
 BYTE   W01
 BYTE   W02
 BYTE   W01
 BYTE   W02
 BYTE   W01
 BYTE   W02
 BYTE   W01
 BYTE   W02
 BYTE   W01
 BYTE   W02
 BYTE   W01
 BYTE   W02
 BYTE   W01
 BYTE   W02
 BYTE   W01
 BYTE   W02
 BYTE   W01
 BYTE   W02
 BYTE   W01
 BYTE   W02
 BYTE   W01
 BYTE   W02
 BYTE   W01
 BYTE   W02
 BYTE   W01
 BYTE   W02
 BYTE   W01
 BYTE   W02
 BYTE   W01
 BYTE   W02
 BYTE   W01
 BYTE   W02
 BYTE   W01
 BYTE   W02
 BYTE   W01
 BYTE   W02
 BYTE   W01
 BYTE   W02
// 022   ----------------------------------------
 BYTE   EOT
 BYTE   W01
 BYTE   W02
 BYTE   W01
 BYTE   W02
 BYTE   W01
 BYTE   W02
 BYTE   W01
 BYTE   W02
 BYTE   W01
 BYTE   W02
 BYTE   W01
 BYTE   W02
 BYTE   W06
 BYTE   W24
 BYTE   W24
 BYTE   W24
// 023   ----------------------------------------
 BYTE   W24
 BYTE   W24
 BYTE   W24
 BYTE   W24
// 024   ----------------------------------------
 BYTE   W24
 BYTE   W24
 BYTE   W24
 BYTE   W24
// 025   ----------------------------------------
 BYTE   W24
 BYTE   W24
 BYTE   W24
 BYTE   W24
// 026   ----------------------------------------
 BYTE   W10
 BYTE   W05
 BYTE   W01
 BYTE   W06
 BYTE   W02
 BYTE   N21  Dn4
 BYTE   W03
 BYTE   W01
 BYTE   W03
 BYTE   W02
 BYTE   W01
 BYTE   W02
 BYTE   W01
 BYTE   W02
 BYTE   W01
 BYTE   W02
 BYTE   W01
 BYTE   W02
 BYTE   N03  Cs5
 BYTE   W01
 BYTE   W02
 BYTE   N48  Dn5
 BYTE   W01
 BYTE   W02
 BYTE   W21
 BYTE   W12
 BYTE   W12
// 027   ----------------------------------------
 BYTE   N24  Cs5
 BYTE   W24
 BYTE   N92  Cs4
 BYTE   W22
 BYTE   W02
 BYTE   W06
 BYTE   W04
 BYTE   W02
 BYTE   W03
 BYTE   W01
 BYTE   W02
 BYTE   W01
 BYTE   W02
 BYTE   W01
 BYTE   W02
 BYTE   W01
 BYTE   W02
 BYTE   W01
 BYTE   W02
 BYTE   W01
 BYTE   W02
 BYTE   W01
 BYTE   W02
 BYTE   W01
 BYTE   W02
 BYTE   W01
 BYTE   W02
 BYTE   W01
 BYTE   W02
 BYTE   W01
 BYTE   W02
// 028   ----------------------------------------
 BYTE   W01
 BYTE   W02
 BYTE   W01
 BYTE   W02
 BYTE   W01
 BYTE   W02
 BYTE   W01
 BYTE   W02
 BYTE   W01
 BYTE   W02
 BYTE   W01
 BYTE   W02
 BYTE   W01
 BYTE   W02
 BYTE   W01
 BYTE   W02
 BYTE   N21  En4
 BYTE   W01
 BYTE   W02
 BYTE   W01
 BYTE   W02
 BYTE   W01
 BYTE   W02
 BYTE   W01
 BYTE   W02
 BYTE   W01
 BYTE   W02
 BYTE   W06
 BYTE   N03  Ds5
 BYTE   W03
 BYTE   N48  En5
 BYTE   W16
 BYTE   W05
 BYTE   W01
 BYTE   W02
 BYTE   W01
 BYTE   W02
 BYTE   W01
 BYTE   W02
 BYTE   W01
 BYTE   W02
 BYTE   W01
 BYTE   W02
 BYTE   W01
 BYTE   W02
 BYTE   W01
 BYTE   W02
 BYTE   W01
 BYTE   W02
 BYTE   W01
 BYTE   W02
// 029   ----------------------------------------
 BYTE   N24  Ds5
 BYTE   W04
 BYTE   W03
 BYTE   W02
 BYTE   W01
 BYTE   W02
 BYTE   W01
 BYTE   W02
 BYTE   W01
 BYTE   W02
 BYTE   W06
 BYTE   N72  Ds4
 BYTE   W12
 BYTE   W04
 BYTE   W03
 BYTE   W03
 BYTE   W02
 BYTE   W03
 BYTE   W01
 BYTE   W02
 BYTE   W01
 BYTE   W02
 BYTE   W01
 BYTE   W02
 BYTE   W01
 BYTE   W02
 BYTE   W01
 BYTE   W02
 BYTE   W01
 BYTE   W02
 BYTE   W01
 BYTE   W02
 BYTE   W01
 BYTE   W02
 BYTE   W01
 BYTE   W02
 BYTE   W01
 BYTE   W02
 BYTE   W01
 BYTE   W02
 BYTE   W01
 BYTE   W02
 BYTE   W01
 BYTE   W02
 BYTE   W01
 BYTE   W02
 BYTE   W01
 BYTE   W02
// 030   ----------------------------------------
 BYTE   W01
 BYTE   W02
 BYTE   W01
 BYTE   W17
 BYTE   W01
 BYTE   W02
 BYTE   N08  Fs4
 BYTE   W08
 BYTE   Gs4
 BYTE   W08
 BYTE   As4
 BYTE   W03
 BYTE   W05
 BYTE   N12  Bn4
 BYTE   W03
 BYTE   W06
 BYTE   W03
 BYTE   Cs5
 BYTE   W04
 BYTE   W05
 BYTE   W03
 BYTE   Ds5
 BYTE   W03
 BYTE   W04
 BYTE   W03
 BYTE   W02
 BYTE   Fn5
 BYTE   W03
 BYTE   W03
 BYTE   W04
 BYTE   W02
// 031   ----------------------------------------
 BYTE   N44  Gn5
 BYTE   W24
 BYTE   W21
 BYTE   N03  Gs5
 BYTE   W03
 BYTE   N44  Gn5
 BYTE   W24
 BYTE   W21
 BYTE   N03  Fn5
 BYTE   W03
// 032   ----------------------------------------
 BYTE   N44  Ds5
 BYTE   W24
 BYTE   W21
 BYTE   N03  Cs5
 BYTE   W03
 BYTE   N44  Cn5
 BYTE   W24
 BYTE   W21
 BYTE   N03  As4
 BYTE   W03
// 033   ----------------------------------------
 BYTE   N78  Gs4
 BYTE   W24
 BYTE   W24
 BYTE   W24
 BYTE   W06
 BYTE   N06  Fs4
 BYTE   W06
 BYTE   Fn4
 BYTE   W06
 BYTE   En4
 BYTE   W06
// 034   ----------------------------------------
 BYTE   N42  Ds4
 BYTE   W24
 BYTE   W24
 BYTE   Cs4
 BYTE   W24
 BYTE   W24
// 035   ----------------------------------------
 BYTE   Ds4
 BYTE   W24
 BYTE   W24
 BYTE   Bn3
 BYTE   W24
 BYTE   W24
// 036   ----------------------------------------
 BYTE   Ds4
 BYTE   W24
 BYTE   W24
 BYTE   Cs4
 BYTE   W24
 BYTE   W24
// 037   ----------------------------------------
 BYTE   Ds4
 BYTE   W24
 BYTE   W24
 BYTE   An3
 BYTE   W24
 BYTE   W24
// 038   ----------------------------------------
 BYTE   Cn4
 BYTE   W24
 BYTE   W24
 BYTE   As3
 BYTE   W24
 BYTE   W24
// 039   ----------------------------------------
 BYTE   Cn4
 BYTE   W24
 BYTE   W24
 BYTE   Gn3
 BYTE   W24
 BYTE   W24
// 040   ----------------------------------------
 BYTE   Cn4
 BYTE   W24
 BYTE   W24
 BYTE   As3
 BYTE   W24
 BYTE   W24
// 041   ----------------------------------------
 BYTE   Cn4
 BYTE   W24
 BYTE   W24
 BYTE   An3
 BYTE   W24
 BYTE   W24
// 042   ----------------------------------------
 BYTE   GoTo
  POIN2 Label_6_010576BA
 BYTE   FINE

//**************** Track 8 (Midi-Chn.7) ****************//

PokemonMDExplorersSteamCaveRandomWizard_008:
// 000   ----------------------------------------
 BYTE   KEYSH   PokemonMDExplorersSteamCaveRandomWizard_key+0
Label_7_010579F6:
 BYTE   VOICE   73
 BYTE   PAN   c_v-64
 BYTE   VOL   18*PokemonMDExplorersSteamCaveRandomWizard_mvl/mxv
 BYTE   BEND   c_v+0
 BYTE   W24
 BYTE   W24
 BYTE   W24
 BYTE   W24
// 001   ----------------------------------------
 BYTE   W24
 BYTE   W24
 BYTE   W24
 BYTE   W24
// 002   ----------------------------------------
 BYTE   W24
 BYTE   W24
 BYTE   W24
 BYTE   W24
// 003   ----------------------------------------
 BYTE   W24
 BYTE   W24
 BYTE   W24
 BYTE   W24
// 004   ----------------------------------------
 BYTE   W24
 BYTE   W24
 BYTE   W24
 BYTE   W24
// 005   ----------------------------------------
 BYTE   W24
 BYTE   W24
 BYTE   W24
 BYTE   W24
// 006   ----------------------------------------
 BYTE   W24
 BYTE   W24
 BYTE   W24
 BYTE   W24
// 007   ----------------------------------------
 BYTE   W24
 BYTE   W24
 BYTE   W24
 BYTE   W24
// 008   ----------------------------------------
 BYTE   W12
 BYTE   W06
 BYTE   W06
 BYTE   W24
 BYTE   W03
 BYTE   W01
 BYTE   W02
 BYTE   W06
 BYTE   N48  En3  v127
 BYTE   W04
 BYTE   W05
 BYTE   W03
 BYTE   W01
 BYTE   W03
 BYTE   W03
 BYTE   W03
 BYTE   W02
 BYTE   W03
 BYTE   W01
 BYTE   W02
 BYTE   W01
 BYTE   W02
 BYTE   W03
// 009   ----------------------------------------
 BYTE   W01
 BYTE   W03
 BYTE   W03
 BYTE   W02
 BYTE   W01
 BYTE   W02
 BYTE   N72  An3
 BYTE   W01
 BYTE   W02
 BYTE   W01
 BYTE   W02
 BYTE   W01
 BYTE   W02
 BYTE   W01
 BYTE   W02
 BYTE   W01
 BYTE   W02
 BYTE   W01
 BYTE   W02
 BYTE   W01
 BYTE   W02
 BYTE   W01
 BYTE   W02
 BYTE   W01
 BYTE   W02
 BYTE   W01
 BYTE   W02
 BYTE   W01
 BYTE   W02
 BYTE   W01
 BYTE   W02
 BYTE   W01
 BYTE   W02
 BYTE   W21
 BYTE   W12
 BYTE   N24  Gn3
 BYTE   W06
 BYTE   W06
// 010   ----------------------------------------
 BYTE   W09
 BYTE   W03
 BYTE   N48  Fs3
 BYTE   W12
 BYTE   W03
 BYTE   W09
 BYTE   W12
 BYTE   W07
 BYTE   W05
 BYTE   N96  Dn3
 BYTE   W03
 BYTE   W09
 BYTE   W06
 BYTE   W01
 BYTE   W08
 BYTE   W06
 BYTE   W01
 BYTE   W02
// 011   ----------------------------------------
 BYTE   W03
 BYTE   W01
 BYTE   W02
 BYTE   W03
 BYTE   W01
 BYTE   W02
 BYTE   W01
 BYTE   W02
 BYTE   W01
 BYTE   W03
 BYTE   W02
 BYTE   W01
 BYTE   W02
 BYTE   W01
 BYTE   W02
 BYTE   W01
 BYTE   W02
 BYTE   W01
 BYTE   W02
 BYTE   W01
 BYTE   W02
 BYTE   W12
 BYTE   W01
 BYTE   W05
 BYTE   W04
 BYTE   W02
 BYTE   N36  Dn4
 BYTE   W03
 BYTE   W03
 BYTE   W04
 BYTE   W02
 BYTE   W03
 BYTE   W03
 BYTE   W01
 BYTE   W03
 BYTE   W02
 BYTE   W01
 BYTE   W03
 BYTE   W02
 BYTE   W01
 BYTE   W02
 BYTE   W01
 BYTE   W02
// 012   ----------------------------------------
 BYTE   N12  Cn4
 BYTE   W01
 BYTE   W03
 BYTE   W02
 BYTE   W01
 BYTE   W02
 BYTE   W01
 BYTE   W02
 BYTE   TIE  Bn3
 BYTE   W01
 BYTE   W02
 BYTE   W01
 BYTE   W02
 BYTE   W01
 BYTE   W02
 BYTE   W01
 BYTE   W02
 BYTE   W01
 BYTE   W02
 BYTE   W01
 BYTE   W02
 BYTE   W01
 BYTE   W17
 BYTE   W03
 BYTE   W09
 BYTE   W06
 BYTE   W06
 BYTE   W01
 BYTE   W05
 BYTE   W06
 BYTE   W03
 BYTE   W03
 BYTE   W04
 BYTE   W02
// 013   ----------------------------------------
 BYTE   W01
 BYTE   W05
 BYTE   W03
 BYTE   W03
 BYTE   W03
 BYTE   W03
 BYTE   W03
 BYTE   W01
 BYTE   W02
 BYTE   W01
 BYTE   W03
 BYTE   W02
 BYTE   W06
 BYTE   EOT
 BYTE   N24  An3
 BYTE   W10
 BYTE   W02
 BYTE   W06
 BYTE   W06
 BYTE   TIE  Bn3
 BYTE   W01
 BYTE   W03
 BYTE   W05
 BYTE   W03
 BYTE   W01
 BYTE   W03
 BYTE   W05
 BYTE   W01
 BYTE   W03
 BYTE   W03
 BYTE   W03
 BYTE   W03
 BYTE   W02
// 014   ----------------------------------------
 BYTE   W01
 BYTE   W03
 BYTE   W03
 BYTE   W02
 BYTE   W07
 BYTE   W08
 BYTE   W01
 BYTE   W09
 BYTE   W03
 BYTE   W05
 BYTE   W03
 BYTE   W03
 BYTE   W03
 BYTE   W03
 BYTE   W01
 BYTE   W03
 BYTE   W02
 BYTE   W01
 BYTE   W02
 BYTE   W03
 BYTE   W01
 BYTE   W02
 BYTE   W01
 BYTE   W02
 BYTE   W01
 BYTE   W02
 BYTE   W03
 BYTE   W01
 BYTE   W02
 BYTE   W01
 BYTE   W02
 BYTE   W01
 BYTE   W02
 BYTE   W01
 BYTE   W02
 BYTE   W01
 BYTE   W02
 BYTE   W01
 BYTE   W02
// 015   ----------------------------------------
 BYTE   W01
 BYTE   W02
 BYTE   W01
 BYTE   W02
 BYTE   W01
 BYTE   W02
 BYTE   W01
 BYTE   W02
 BYTE   W01
 BYTE   W02
 BYTE   W01
 BYTE   W02
 BYTE   W01
 BYTE   W02
 BYTE   W01
 BYTE   W02
 BYTE   W01
 BYTE   W02
 BYTE   W01
 BYTE   W02
 BYTE   W01
 BYTE   W02
 BYTE   W01
 BYTE   W02
 BYTE   W01
 BYTE   W02
 BYTE   W01
 BYTE   W02
 BYTE   W01
 BYTE   W02
 BYTE   W01
 BYTE   W02
 BYTE   W01
 BYTE   W02
 BYTE   W01
 BYTE   W02
 BYTE   W01
 BYTE   W02
 BYTE   W01
 BYTE   W02
 BYTE   EOT
 BYTE   W01
 BYTE   W02
 BYTE   W01
 BYTE   W02
 BYTE   W01
 BYTE   W05
 BYTE   W24
// 016   ----------------------------------------
 BYTE   W24
 BYTE   W24
 BYTE   W24
 BYTE   W24
// 017   ----------------------------------------
 BYTE   W24
 BYTE   W24
 BYTE   W01
 BYTE   W02
 BYTE   W01
 BYTE   W20
 BYTE   W19
 BYTE   W05
// 018   ----------------------------------------
 BYTE   W07
 BYTE   W02
 BYTE   W03
 BYTE   N48  Bn4
 BYTE   W03
 BYTE   W04
 BYTE   W02
 BYTE   W03
 BYTE   W01
 BYTE   W02
 BYTE   W01
 BYTE   W02
 BYTE   W01
 BYTE   W02
 BYTE   W01
 BYTE   W02
 BYTE   W01
 BYTE   W02
 BYTE   W01
 BYTE   W02
 BYTE   W01
 BYTE   W02
 BYTE   W01
 BYTE   W02
 BYTE   W01
 BYTE   W02
 BYTE   W01
 BYTE   W02
 BYTE   W01
 BYTE   W05
 BYTE   N90  Fs4
 BYTE   W06
 BYTE   W06
 BYTE   W10
 BYTE   W05
 BYTE   W04
 BYTE   W03
 BYTE   W02
// 019   ----------------------------------------
 BYTE   W01
 BYTE   W05
 BYTE   W01
 BYTE   W03
 BYTE   W03
 BYTE   W02
 BYTE   W03
 BYTE   W01
 BYTE   W02
 BYTE   W01
 BYTE   W02
 BYTE   W03
 BYTE   W01
 BYTE   W02
 BYTE   W01
 BYTE   W02
 BYTE   W01
 BYTE   W02
 BYTE   W01
 BYTE   W02
 BYTE   W01
 BYTE   W02
 BYTE   W01
 BYTE   W02
 BYTE   W01
 BYTE   W02
 BYTE   W01
 BYTE   W03
 BYTE   W02
 BYTE   N06  En4
 BYTE   W01
 BYTE   W02
 BYTE   W01
 BYTE   W02
 BYTE   N16  Fs4
 BYTE   W01
 BYTE   W02
 BYTE   W01
 BYTE   W02
 BYTE   W01
 BYTE   W02
 BYTE   W01
 BYTE   W02
 BYTE   W04
 BYTE   N14  Gn4
 BYTE   W14
 BYTE   N06  Fs4
 BYTE   W06
// 020   ----------------------------------------
 BYTE   En4
 BYTE   W06
 BYTE   Dn4
 BYTE   W06
 BYTE   N48  En4
 BYTE   W12
 BYTE   W24
 BYTE   W12
 BYTE   TIE  An3
 BYTE   W12
 BYTE   W03
 BYTE   W04
 BYTE   W06
 BYTE   W05
 BYTE   W04
 BYTE   W02
// 021   ----------------------------------------
 BYTE   W01
 BYTE   W02
 BYTE   W03
 BYTE   W03
 BYTE   W03
 BYTE   W01
 BYTE   W02
 BYTE   W03
 BYTE   W01
 BYTE   W03
 BYTE   W02
 BYTE   W01
 BYTE   W03
 BYTE   W02
 BYTE   W01
 BYTE   W02
 BYTE   W01
 BYTE   W02
 BYTE   W01
 BYTE   W02
 BYTE   W01
 BYTE   W02
 BYTE   W01
 BYTE   W02
 BYTE   W01
 BYTE   W02
 BYTE   W03
 BYTE   W01
 BYTE   W02
 BYTE   W01
 BYTE   W02
 BYTE   W01
 BYTE   W02
 BYTE   W01
 BYTE   W02
 BYTE   W01
 BYTE   W02
 BYTE   W01
 BYTE   W02
 BYTE   W01
 BYTE   W02
 BYTE   W01
 BYTE   W02
 BYTE   W01
 BYTE   W02
 BYTE   W01
 BYTE   W02
 BYTE   W01
 BYTE   W02
 BYTE   W01
 BYTE   W02
 BYTE   W01
 BYTE   W02
 BYTE   W01
 BYTE   W02
 BYTE   W01
 BYTE   W02
// 022   ----------------------------------------
 BYTE   W01
 BYTE   W02
 BYTE   W01
 BYTE   W02
 BYTE   W01
 BYTE   W02
 BYTE   W01
 BYTE   W02
 BYTE   EOT
 BYTE   W01
 BYTE   W02
 BYTE   W01
 BYTE   W02
 BYTE   W01
 BYTE   W02
 BYTE   W01
 BYTE   W02
 BYTE   W01
 BYTE   W02
 BYTE   W01
 BYTE   W02
 BYTE   W18
 BYTE   W24
 BYTE   W24
// 023   ----------------------------------------
 BYTE   W24
 BYTE   W24
 BYTE   W24
 BYTE   W24
// 024   ----------------------------------------
 BYTE   W24
 BYTE   W24
 BYTE   W24
 BYTE   W24
// 025   ----------------------------------------
 BYTE   W12
 BYTE   W12
 BYTE   W24
 BYTE   W24
 BYTE   W24
// 026   ----------------------------------------
 BYTE   W22
 BYTE   W02
 BYTE   W03
 BYTE   W01
 BYTE   W06
 BYTE   W02
 BYTE   N21  Dn4
 BYTE   W03
 BYTE   W01
 BYTE   W03
 BYTE   W02
 BYTE   W01
 BYTE   W02
 BYTE   W01
 BYTE   W02
 BYTE   W01
 BYTE   W02
 BYTE   W01
 BYTE   W02
 BYTE   N03  Cs5
 BYTE   W01
 BYTE   W02
 BYTE   N48  Dn5
 BYTE   W01
 BYTE   W02
 BYTE   W09
 BYTE   W24
// 027   ----------------------------------------
 BYTE   W12
 BYTE   N24  Cs5
 BYTE   W12
 BYTE   W12
 BYTE   N92  Cs4
 BYTE   W12
 BYTE   W10
 BYTE   W08
 BYTE   W04
 BYTE   W02
 BYTE   W03
 BYTE   W01
 BYTE   W02
 BYTE   W01
 BYTE   W02
 BYTE   W01
 BYTE   W02
 BYTE   W01
 BYTE   W02
 BYTE   W01
 BYTE   W02
 BYTE   W01
 BYTE   W02
 BYTE   W01
 BYTE   W02
// 028   ----------------------------------------
 BYTE   W01
 BYTE   W02
 BYTE   W01
 BYTE   W02
 BYTE   W01
 BYTE   W02
 BYTE   W01
 BYTE   W02
 BYTE   W01
 BYTE   W02
 BYTE   W01
 BYTE   W02
 BYTE   W01
 BYTE   W02
 BYTE   W01
 BYTE   W02
 BYTE   W01
 BYTE   W02
 BYTE   W01
 BYTE   W02
 BYTE   W01
 BYTE   W02
 BYTE   W01
 BYTE   W02
 BYTE   N21  En4
 BYTE   W01
 BYTE   W02
 BYTE   W01
 BYTE   W02
 BYTE   W01
 BYTE   W02
 BYTE   W01
 BYTE   W02
 BYTE   W01
 BYTE   W02
 BYTE   W06
 BYTE   N03  Ds5
 BYTE   W03
 BYTE   N48  En5
 BYTE   W12
 BYTE   W04
 BYTE   W05
 BYTE   W01
 BYTE   W03
 BYTE   W02
 BYTE   W01
 BYTE   W02
 BYTE   W01
 BYTE   W02
 BYTE   W01
 BYTE   W02
// 029   ----------------------------------------
 BYTE   W01
 BYTE   W02
 BYTE   W01
 BYTE   W02
 BYTE   W01
 BYTE   W02
 BYTE   W01
 BYTE   W02
 BYTE   N24  Ds5
 BYTE   W04
 BYTE   W03
 BYTE   W02
 BYTE   W01
 BYTE   W02
 BYTE   W01
 BYTE   W02
 BYTE   W01
 BYTE   W02
 BYTE   W06
 BYTE   N72  Ds4
 BYTE   W12
 BYTE   W04
 BYTE   W03
 BYTE   W03
 BYTE   W02
 BYTE   W03
 BYTE   W01
 BYTE   W02
 BYTE   W01
 BYTE   W02
 BYTE   W01
 BYTE   W02
 BYTE   W01
 BYTE   W02
 BYTE   W01
 BYTE   W02
 BYTE   W01
 BYTE   W02
 BYTE   W01
 BYTE   W02
 BYTE   W01
 BYTE   W02
 BYTE   W01
 BYTE   W02
 BYTE   W01
 BYTE   W02
 BYTE   W01
 BYTE   W02
// 030   ----------------------------------------
 BYTE   W01
 BYTE   W02
 BYTE   W01
 BYTE   W02
 BYTE   W01
 BYTE   W02
 BYTE   W01
 BYTE   W02
 BYTE   W01
 BYTE   W02
 BYTE   W01
 BYTE   W08
 BYTE   W09
 BYTE   W01
 BYTE   W02
 BYTE   N08  Fs4
 BYTE   W08
 BYTE   Gs4
 BYTE   W04
 BYTE   W04
 BYTE   As4
 BYTE   W03
 BYTE   W05
 BYTE   N12  Bn4
 BYTE   W03
 BYTE   W06
 BYTE   W03
 BYTE   Cs5
 BYTE   W04
 BYTE   W05
 BYTE   W03
 BYTE   Ds5
 BYTE   W03
 BYTE   W04
 BYTE   W03
 BYTE   W02
// 031   ----------------------------------------
 BYTE   Fn5
 BYTE   W03
 BYTE   W03
 BYTE   W04
 BYTE   W02
 BYTE   N44  Gn5
 BYTE   W12
 BYTE   W24
 BYTE   W09
 BYTE   N03  Gs5
 BYTE   W03
 BYTE   N44  Gn5
 BYTE   W12
 BYTE   W24
// 032   ----------------------------------------
 BYTE   W09
 BYTE   N03  Fn5
 BYTE   W03
 BYTE   N44  Ds5
 BYTE   W12
 BYTE   W24
 BYTE   W09
 BYTE   N03  Cs5
 BYTE   W03
 BYTE   N44  Cn5
 BYTE   W12
 BYTE   W24
// 033   ----------------------------------------
 BYTE   W09
 BYTE   N03  As4
 BYTE   W03
 BYTE   N78  Gs4
 BYTE   W12
 BYTE   W24
 BYTE   W24
 BYTE   W18
 BYTE   N06  Fs4
 BYTE   W06
// 034   ----------------------------------------
 BYTE   Fn4
 BYTE   W06
 BYTE   En4
 BYTE   W06
 BYTE   N42  Ds4
 BYTE   W12
 BYTE   W24
 BYTE   W12
 BYTE   Cs4
 BYTE   W12
 BYTE   W24
// 035   ----------------------------------------
 BYTE   W12
 BYTE   Ds4
 BYTE   W12
 BYTE   W24
 BYTE   W12
 BYTE   Bn3
 BYTE   W12
 BYTE   W24
// 036   ----------------------------------------
 BYTE   W12
 BYTE   Ds4
 BYTE   W12
 BYTE   W24
 BYTE   W12
 BYTE   Cs4
 BYTE   W12
 BYTE   W24
// 037   ----------------------------------------
 BYTE   W12
 BYTE   Ds4
 BYTE   W12
 BYTE   W24
 BYTE   W12
 BYTE   An3
 BYTE   W12
 BYTE   W24
// 038   ----------------------------------------
 BYTE   W12
 BYTE   Cn4
 BYTE   W12
 BYTE   W24
 BYTE   W12
 BYTE   As3
 BYTE   W12
 BYTE   W24
// 039   ----------------------------------------
 BYTE   W12
 BYTE   Cn4
 BYTE   W12
 BYTE   W24
 BYTE   W12
 BYTE   Gn3
 BYTE   W12
 BYTE   W24
// 040   ----------------------------------------
 BYTE   W12
 BYTE   Cn4
 BYTE   W12
 BYTE   W24
 BYTE   W12
 BYTE   As3
 BYTE   W12
 BYTE   W24
// 041   ----------------------------------------
 BYTE   W12
 BYTE   Cn4
 BYTE   W12
 BYTE   W24
 BYTE   W24
 BYTE   W24
// 042   ----------------------------------------
 BYTE   GoTo
  POIN2 Label_7_010579F6
 BYTE   FINE

//**************** Track 9 (Midi-Chn.8) ****************//

PokemonMDExplorersSteamCaveRandomWizard_009:
// 000   ----------------------------------------
 BYTE   KEYSH   PokemonMDExplorersSteamCaveRandomWizard_key+0
Label_8_01057D56:
 BYTE   VOICE   73
 BYTE   PAN   c_v+63
 BYTE   VOL   15*PokemonMDExplorersSteamCaveRandomWizard_mvl/mxv
 BYTE   BEND   c_v+0
 BYTE   W24
 BYTE   W24
 BYTE   W24
 BYTE   W24
// 001   ----------------------------------------
 BYTE   W24
 BYTE   W24
 BYTE   W24
 BYTE   W24
// 002   ----------------------------------------
 BYTE   W24
 BYTE   W24
 BYTE   W24
 BYTE   W24
// 003   ----------------------------------------
 BYTE   W24
 BYTE   W24
 BYTE   W24
 BYTE   W24
// 004   ----------------------------------------
 BYTE   W24
 BYTE   W24
 BYTE   W24
 BYTE   W24
// 005   ----------------------------------------
 BYTE   W24
 BYTE   W24
 BYTE   W24
 BYTE   W24
// 006   ----------------------------------------
 BYTE   W24
 BYTE   W24
 BYTE   W24
 BYTE   W24
// 007   ----------------------------------------
 BYTE   W24
 BYTE   W24
 BYTE   W24
 BYTE   W24
// 008   ----------------------------------------
 BYTE   W24
 BYTE   W06
 BYTE   W18
 BYTE   W15
 BYTE   W01
 BYTE   W02
 BYTE   W06
 BYTE   N48  En3  v127
 BYTE   W04
 BYTE   W05
 BYTE   W04
 BYTE   W03
 BYTE   W03
 BYTE   W03
 BYTE   W02
// 009   ----------------------------------------
 BYTE   W03
 BYTE   W01
 BYTE   W02
 BYTE   W01
 BYTE   W02
 BYTE   W03
 BYTE   W01
 BYTE   W03
 BYTE   W03
 BYTE   W02
 BYTE   W01
 BYTE   W02
 BYTE   N72  An3
 BYTE   W01
 BYTE   W02
 BYTE   W01
 BYTE   W02
 BYTE   W01
 BYTE   W02
 BYTE   W01
 BYTE   W02
 BYTE   W01
 BYTE   W02
 BYTE   W01
 BYTE   W02
 BYTE   W01
 BYTE   W02
 BYTE   W01
 BYTE   W02
 BYTE   W01
 BYTE   W02
 BYTE   W01
 BYTE   W02
 BYTE   W01
 BYTE   W02
 BYTE   W01
 BYTE   W02
 BYTE   W01
 BYTE   W02
 BYTE   W09
 BYTE   W24
// 010   ----------------------------------------
 BYTE   N24  Gn3
 BYTE   W06
 BYTE   W15
 BYTE   W03
 BYTE   N48  Fs3
 BYTE   W15
 BYTE   W09
 BYTE   W12
 BYTE   W07
 BYTE   W05
 BYTE   N96  Dn3
 BYTE   W03
 BYTE   W09
 BYTE   W06
 BYTE   W01
 BYTE   W05
// 011   ----------------------------------------
 BYTE   W03
 BYTE   W06
 BYTE   W01
 BYTE   W05
 BYTE   W01
 BYTE   W02
 BYTE   W03
 BYTE   W01
 BYTE   W02
 BYTE   W01
 BYTE   W02
 BYTE   W01
 BYTE   W03
 BYTE   W02
 BYTE   W01
 BYTE   W02
 BYTE   W01
 BYTE   W02
 BYTE   W01
 BYTE   W02
 BYTE   W01
 BYTE   W02
 BYTE   W01
 BYTE   W02
 BYTE   W13
 BYTE   W05
 BYTE   W04
 BYTE   W02
 BYTE   N36  Dn4
 BYTE   W03
 BYTE   W03
 BYTE   W04
 BYTE   W02
 BYTE   W03
 BYTE   W03
 BYTE   W01
 BYTE   W03
 BYTE   W02
// 012   ----------------------------------------
 BYTE   W01
 BYTE   W03
 BYTE   W02
 BYTE   W01
 BYTE   W02
 BYTE   W01
 BYTE   W02
 BYTE   N12  Cn4
 BYTE   W01
 BYTE   W03
 BYTE   W02
 BYTE   W01
 BYTE   W02
 BYTE   W01
 BYTE   W02
 BYTE   TIE  Bn3
 BYTE   W01
 BYTE   W02
 BYTE   W01
 BYTE   W02
 BYTE   W01
 BYTE   W02
 BYTE   W01
 BYTE   W02
 BYTE   W01
 BYTE   W02
 BYTE   W01
 BYTE   W02
 BYTE   W01
 BYTE   W05
 BYTE   W15
 BYTE   W09
 BYTE   W06
 BYTE   W07
 BYTE   W05
 BYTE   W06
// 013   ----------------------------------------
 BYTE   W03
 BYTE   W03
 BYTE   W04
 BYTE   W03
 BYTE   W05
 BYTE   W03
 BYTE   W03
 BYTE   W03
 BYTE   W03
 BYTE   W03
 BYTE   W01
 BYTE   W03
 BYTE   W03
 BYTE   W02
 BYTE   W06
 BYTE   EOT
 BYTE   N24  An3
 BYTE   W10
 BYTE   W08
 BYTE   W06
 BYTE   TIE  Bn3
 BYTE   W01
 BYTE   W03
 BYTE   W05
 BYTE   W04
 BYTE   W03
 BYTE   W05
 BYTE   W01
 BYTE   W02
// 014   ----------------------------------------
 BYTE   W01
 BYTE   W03
 BYTE   W03
 BYTE   W03
 BYTE   W02
 BYTE   W01
 BYTE   W03
 BYTE   W03
 BYTE   W02
 BYTE   W03
 BYTE   W04
 BYTE   W09
 BYTE   W09
 BYTE   W02
 BYTE   W01
 BYTE   W05
 BYTE   W03
 BYTE   W03
 BYTE   W03
 BYTE   W03
 BYTE   W01
 BYTE   W03
 BYTE   W02
 BYTE   W01
 BYTE   W02
 BYTE   W03
 BYTE   W01
 BYTE   W02
 BYTE   W01
 BYTE   W03
 BYTE   W02
 BYTE   W03
 BYTE   W01
 BYTE   W02
 BYTE   W01
 BYTE   W02
// 015   ----------------------------------------
 BYTE   W01
 BYTE   W02
 BYTE   W01
 BYTE   W02
 BYTE   W01
 BYTE   W02
 BYTE   W01
 BYTE   W02
 BYTE   W01
 BYTE   W02
 BYTE   W01
 BYTE   W02
 BYTE   W01
 BYTE   W02
 BYTE   W01
 BYTE   W02
 BYTE   W01
 BYTE   W02
 BYTE   W01
 BYTE   W02
 BYTE   W01
 BYTE   W02
 BYTE   W01
 BYTE   W02
 BYTE   W01
 BYTE   W02
 BYTE   W01
 BYTE   W02
 BYTE   W01
 BYTE   W02
 BYTE   W01
 BYTE   W02
 BYTE   W01
 BYTE   W02
 BYTE   W01
 BYTE   W02
 BYTE   W01
 BYTE   W02
 BYTE   W01
 BYTE   W02
 BYTE   W01
 BYTE   W02
 BYTE   W01
 BYTE   W02
 BYTE   W01
 BYTE   W02
 BYTE   W01
 BYTE   W02
 BYTE   EOT
 BYTE   W01
 BYTE   W02
 BYTE   W01
 BYTE   W02
 BYTE   W01
 BYTE   W17
// 016   ----------------------------------------
 BYTE   W24
 BYTE   W24
 BYTE   W24
 BYTE   W24
// 017   ----------------------------------------
 BYTE   W24
 BYTE   W24
 BYTE   W13
 BYTE   W02
 BYTE   W01
 BYTE   W08
 BYTE   W24
// 018   ----------------------------------------
 BYTE   W07
 BYTE   W12
 BYTE   W02
 BYTE   W03
 BYTE   N48  Bn4
 BYTE   W03
 BYTE   W04
 BYTE   W02
 BYTE   W03
 BYTE   W01
 BYTE   W02
 BYTE   W01
 BYTE   W02
 BYTE   W01
 BYTE   W02
 BYTE   W01
 BYTE   W02
 BYTE   W01
 BYTE   W02
 BYTE   W01
 BYTE   W02
 BYTE   W01
 BYTE   W02
 BYTE   W01
 BYTE   W02
 BYTE   W01
 BYTE   W02
 BYTE   W01
 BYTE   W02
 BYTE   W01
 BYTE   W05
 BYTE   N90  Fs4
 BYTE   W06
 BYTE   W16
 BYTE   W02
// 019   ----------------------------------------
 BYTE   W03
 BYTE   W04
 BYTE   W03
 BYTE   W03
 BYTE   W05
 BYTE   W01
 BYTE   W03
 BYTE   W02
 BYTE   W01
 BYTE   W02
 BYTE   W03
 BYTE   W01
 BYTE   W02
 BYTE   W01
 BYTE   W02
 BYTE   W03
 BYTE   W01
 BYTE   W02
 BYTE   W01
 BYTE   W02
 BYTE   W01
 BYTE   W02
 BYTE   W01
 BYTE   W02
 BYTE   W01
 BYTE   W02
 BYTE   W01
 BYTE   W02
 BYTE   W01
 BYTE   W03
 BYTE   W03
 BYTE   W02
 BYTE   N06  En4
 BYTE   W01
 BYTE   W02
 BYTE   W01
 BYTE   W02
 BYTE   N16  Fs4
 BYTE   W01
 BYTE   W02
 BYTE   W01
 BYTE   W02
 BYTE   W01
 BYTE   W02
 BYTE   W01
 BYTE   W02
 BYTE   W04
 BYTE   N14  Gn4
 BYTE   W08
// 020   ----------------------------------------
 BYTE   W06
 BYTE   N06  Fs4
 BYTE   W06
 BYTE   En4
 BYTE   W06
 BYTE   Dn4
 BYTE   W06
 BYTE   N48  En4
 BYTE   W24
 BYTE   W24
 BYTE   TIE  An3
 BYTE   W15
 BYTE   W04
 BYTE   W05
// 021   ----------------------------------------
 BYTE   W01
 BYTE   W05
 BYTE   W04
 BYTE   W03
 BYTE   W02
 BYTE   W03
 BYTE   W03
 BYTE   W03
 BYTE   W01
 BYTE   W02
 BYTE   W03
 BYTE   W01
 BYTE   W03
 BYTE   W02
 BYTE   W01
 BYTE   W03
 BYTE   W02
 BYTE   W01
 BYTE   W02
 BYTE   W01
 BYTE   W02
 BYTE   W01
 BYTE   W02
 BYTE   W01
 BYTE   W02
 BYTE   W01
 BYTE   W02
 BYTE   W01
 BYTE   W02
 BYTE   W03
 BYTE   W01
 BYTE   W02
 BYTE   W01
 BYTE   W02
 BYTE   W01
 BYTE   W02
 BYTE   W01
 BYTE   W02
 BYTE   W01
 BYTE   W02
 BYTE   W01
 BYTE   W02
 BYTE   W01
 BYTE   W02
 BYTE   W01
 BYTE   W02
 BYTE   W01
 BYTE   W02
 BYTE   W01
 BYTE   W02
 BYTE   W01
 BYTE   W02
// 022   ----------------------------------------
 BYTE   W01
 BYTE   W02
 BYTE   W01
 BYTE   W02
 BYTE   W01
 BYTE   W02
 BYTE   W01
 BYTE   W02
 BYTE   W01
 BYTE   W02
 BYTE   W01
 BYTE   W02
 BYTE   W01
 BYTE   W02
 BYTE   W01
 BYTE   W02
 BYTE   EOT
 BYTE   W01
 BYTE   W02
 BYTE   W01
 BYTE   W02
 BYTE   W01
 BYTE   W02
 BYTE   W01
 BYTE   W02
 BYTE   W01
 BYTE   W02
 BYTE   W01
 BYTE   W02
 BYTE   W06
 BYTE   W24
 BYTE   W24
// 023   ----------------------------------------
 BYTE   W24
 BYTE   W24
 BYTE   W24
 BYTE   W24
// 024   ----------------------------------------
 BYTE   W24
 BYTE   W24
 BYTE   W24
 BYTE   W24
// 025   ----------------------------------------
 BYTE   W24
 BYTE   W24
 BYTE   W24
 BYTE   W24
// 026   ----------------------------------------
 BYTE   W24
 BYTE   W10
 BYTE   W05
 BYTE   W01
 BYTE   W06
 BYTE   W02
 BYTE   N21  Dn4
 BYTE   W03
 BYTE   W01
 BYTE   W03
 BYTE   W02
 BYTE   W01
 BYTE   W02
 BYTE   W01
 BYTE   W02
 BYTE   W01
 BYTE   W02
 BYTE   W01
 BYTE   W02
 BYTE   N03  Cs5
 BYTE   W01
 BYTE   W02
 BYTE   N48  Dn5
 BYTE   W01
 BYTE   W02
 BYTE   W21
// 027   ----------------------------------------
 BYTE   W12
 BYTE   W12
 BYTE   N24  Cs5
 BYTE   W24
 BYTE   N92  Cs4
 BYTE   W22
 BYTE   W02
 BYTE   W06
 BYTE   W04
 BYTE   W02
 BYTE   W03
 BYTE   W01
 BYTE   W02
 BYTE   W01
 BYTE   W02
 BYTE   W01
 BYTE   W02
// 028   ----------------------------------------
 BYTE   W01
 BYTE   W02
 BYTE   W01
 BYTE   W02
 BYTE   W01
 BYTE   W02
 BYTE   W01
 BYTE   W02
 BYTE   W01
 BYTE   W02
 BYTE   W01
 BYTE   W02
 BYTE   W01
 BYTE   W02
 BYTE   W01
 BYTE   W02
 BYTE   W01
 BYTE   W02
 BYTE   W01
 BYTE   W02
 BYTE   W01
 BYTE   W02
 BYTE   W01
 BYTE   W02
 BYTE   W01
 BYTE   W02
 BYTE   W01
 BYTE   W02
 BYTE   W01
 BYTE   W02
 BYTE   W01
 BYTE   W02
 BYTE   N21  En4
 BYTE   W01
 BYTE   W02
 BYTE   W01
 BYTE   W02
 BYTE   W01
 BYTE   W02
 BYTE   W01
 BYTE   W02
 BYTE   W01
 BYTE   W02
 BYTE   W06
 BYTE   N03  Ds5
 BYTE   W03
 BYTE   N48  En5
 BYTE   W16
 BYTE   W05
 BYTE   W01
 BYTE   W02
// 029   ----------------------------------------
 BYTE   W01
 BYTE   W02
 BYTE   W01
 BYTE   W02
 BYTE   W01
 BYTE   W02
 BYTE   W01
 BYTE   W02
 BYTE   W01
 BYTE   W02
 BYTE   W01
 BYTE   W02
 BYTE   W01
 BYTE   W02
 BYTE   W01
 BYTE   W02
 BYTE   N24  Ds5
 BYTE   W04
 BYTE   W03
 BYTE   W02
 BYTE   W01
 BYTE   W02
 BYTE   W01
 BYTE   W02
 BYTE   W01
 BYTE   W02
 BYTE   W06
 BYTE   N72  Ds4
 BYTE   W12
 BYTE   W04
 BYTE   W03
 BYTE   W03
 BYTE   W02
 BYTE   W03
 BYTE   W01
 BYTE   W02
 BYTE   W01
 BYTE   W02
 BYTE   W01
 BYTE   W02
 BYTE   W01
 BYTE   W02
 BYTE   W01
 BYTE   W02
 BYTE   W01
 BYTE   W02
 BYTE   W01
 BYTE   W02
// 030   ----------------------------------------
 BYTE   W01
 BYTE   W02
 BYTE   W01
 BYTE   W02
 BYTE   W01
 BYTE   W02
 BYTE   W01
 BYTE   W02
 BYTE   W01
 BYTE   W02
 BYTE   W01
 BYTE   W02
 BYTE   W01
 BYTE   W02
 BYTE   W01
 BYTE   W02
 BYTE   W01
 BYTE   W02
 BYTE   W01
 BYTE   W17
 BYTE   W01
 BYTE   W02
 BYTE   N08  Fs4
 BYTE   W08
 BYTE   Gs4
 BYTE   W08
 BYTE   As4
 BYTE   W03
 BYTE   W05
 BYTE   N12  Bn4
 BYTE   W03
 BYTE   W06
 BYTE   W03
 BYTE   Cs5
 BYTE   W04
 BYTE   W05
 BYTE   W03
// 031   ----------------------------------------
 BYTE   Ds5
 BYTE   W03
 BYTE   W04
 BYTE   W03
 BYTE   W02
 BYTE   Fn5
 BYTE   W03
 BYTE   W03
 BYTE   W04
 BYTE   W02
 BYTE   N44  Gn5
 BYTE   W24
 BYTE   W21
 BYTE   N03  Gs5
 BYTE   W03
 BYTE   N44  Gn5
 BYTE   W24
// 032   ----------------------------------------
 BYTE   W21
 BYTE   N03  Fn5
 BYTE   W03
 BYTE   N44  Ds5
 BYTE   W24
 BYTE   W21
 BYTE   N03  Cs5
 BYTE   W03
 BYTE   N44  Cn5
 BYTE   W24
// 033   ----------------------------------------
 BYTE   W21
 BYTE   N03  As4
 BYTE   W03
 BYTE   N78  Gs4
 BYTE   W24
 BYTE   W24
 BYTE   W24
// 034   ----------------------------------------
 BYTE   W06
 BYTE   N06  Fs4
 BYTE   W06
 BYTE   Fn4
 BYTE   W06
 BYTE   En4
 BYTE   W06
 BYTE   N42  Ds4
 BYTE   W24
 BYTE   W24
 BYTE   Cs4
 BYTE   W24
// 035   ----------------------------------------
 BYTE   W24
 BYTE   Ds4
 BYTE   W24
 BYTE   W24
 BYTE   Bn3
 BYTE   W24
// 036   ----------------------------------------
 BYTE   W24
 BYTE   Ds4
 BYTE   W24
 BYTE   W24
 BYTE   Cs4
 BYTE   W24
// 037   ----------------------------------------
 BYTE   W24
 BYTE   Ds4
 BYTE   W24
 BYTE   W24
 BYTE   An3
 BYTE   W24
// 038   ----------------------------------------
 BYTE   W24
 BYTE   Cn4
 BYTE   W24
 BYTE   W24
 BYTE   As3
 BYTE   W24
// 039   ----------------------------------------
 BYTE   W24
 BYTE   Cn4
 BYTE   W24
 BYTE   W24
 BYTE   Gn3
 BYTE   W24
// 040   ----------------------------------------
 BYTE   W24
 BYTE   Cn4
 BYTE   W24
 BYTE   W24
 BYTE   As3
 BYTE   W24
// 041   ----------------------------------------
 BYTE   W24
 BYTE   Cn4
 BYTE   W24
 BYTE   W24
 BYTE   W24
// 042   ----------------------------------------
 BYTE   GoTo
  POIN2 Label_8_01057D56
 BYTE   FINE

//**************** Track 10 (Midi-Chn.9) ****************//

PokemonMDExplorersSteamCaveRandomWizard_010:
// 000   ----------------------------------------
 BYTE   KEYSH   PokemonMDExplorersSteamCaveRandomWizard_key+0
Label_9_01058092:
 BYTE   VOICE   71
 BYTE   PAN   c_v-24
 BYTE   VOL   28*PokemonMDExplorersSteamCaveRandomWizard_mvl/mxv
 BYTE   BEND   c_v+0
 BYTE   W24
 BYTE   W24
 BYTE   W24
 BYTE   W24
// 001   ----------------------------------------
 BYTE   W24
 BYTE   W24
 BYTE   W24
 BYTE   W24
// 002   ----------------------------------------
 BYTE   W24
 BYTE   W24
 BYTE   W24
 BYTE   W24
// 003   ----------------------------------------
 BYTE   W24
 BYTE   W24
 BYTE   W24
 BYTE   W24
// 004   ----------------------------------------
 BYTE   W24
 BYTE   W24
 BYTE   W24
 BYTE   W24
// 005   ----------------------------------------
 BYTE   W24
 BYTE   W24
 BYTE   W24
 BYTE   W24
// 006   ----------------------------------------
 BYTE   W24
 BYTE   W24
 BYTE   W24
 BYTE   W24
// 007   ----------------------------------------
 BYTE   W24
 BYTE   W24
 BYTE   W24
 BYTE   W24
// 008   ----------------------------------------
 BYTE   W24
 BYTE   W24
 BYTE   W24
 BYTE   W24
// 009   ----------------------------------------
 BYTE   W24
 BYTE   W24
 BYTE   W24
 BYTE   W24
// 010   ----------------------------------------
 BYTE   W24
 BYTE   W24
 BYTE   W24
 BYTE   W24
// 011   ----------------------------------------
 BYTE   W24
 BYTE   W24
 BYTE   W24
 BYTE   W24
// 012   ----------------------------------------
 BYTE   W24
 BYTE   W24
 BYTE   W24
 BYTE   W24
// 013   ----------------------------------------
 BYTE   W24
 BYTE   W24
 BYTE   W24
 BYTE   W24
// 014   ----------------------------------------
 BYTE   W24
 BYTE   W24
 BYTE   W24
 BYTE   W24
// 015   ----------------------------------------
 BYTE   W24
 BYTE   W24
 BYTE   W24
 BYTE   W24
// 016   ----------------------------------------
 BYTE   W24
 BYTE   W24
 BYTE   W24
 BYTE   W24
// 017   ----------------------------------------
 BYTE   W24
 BYTE   W24
 BYTE   W24
 BYTE   W24
// 018   ----------------------------------------
 BYTE   N48  Bn3  v092
 BYTE   W01
 BYTE   W03
 BYTE   W02
 BYTE   W01
 BYTE   W02
 BYTE   W01
 BYTE   W02
 BYTE   W01
 BYTE   W02
 BYTE   W01
 BYTE   W02
 BYTE   W01
 BYTE   W02
 BYTE   W01
 BYTE   W02
 BYTE   W01
 BYTE   W23
 BYTE   N88  Fs3
 BYTE   W24
 BYTE   W03
 BYTE   W09
 BYTE   W01
 BYTE   W03
 BYTE   W02
 BYTE   W03
 BYTE   W03
// 019   ----------------------------------------
 BYTE   W01
 BYTE   W02
 BYTE   W01
 BYTE   W02
 BYTE   W01
 BYTE   W02
 BYTE   W01
 BYTE   W02
 BYTE   W01
 BYTE   W02
 BYTE   W01
 BYTE   W02
 BYTE   W01
 BYTE   W02
 BYTE   W01
 BYTE   W02
 BYTE   W01
 BYTE   W02
 BYTE   W01
 BYTE   W02
 BYTE   W01
 BYTE   W02
 BYTE   W01
 BYTE   W08
 BYTE   N06  En3
 BYTE   W06
 BYTE   N16  Fs3
 BYTE   W16
 BYTE   N14  Gn3
 BYTE   W08
 BYTE   W06
 BYTE   N06  Fs3
 BYTE   W06
 BYTE   En3
 BYTE   W06
 BYTE   Dn3
 BYTE   W03
 BYTE   W03
// 020   ----------------------------------------
 BYTE   N24  En3
 BYTE   W09
 BYTE   W04
 BYTE   W06
 BYTE   W03
 BYTE   W02
 BYTE   TIE  Dn3
 BYTE   W03
 BYTE   W01
 BYTE   W05
 BYTE   W01
 BYTE   W03
 BYTE   W02
 BYTE   W03
 BYTE   W01
 BYTE   W03
 BYTE   W02
 BYTE   W01
 BYTE   W03
 BYTE   W02
 BYTE   W01
 BYTE   W02
 BYTE   W01
 BYTE   W02
 BYTE   W01
 BYTE   W02
 BYTE   W01
 BYTE   W02
 BYTE   W01
 BYTE   W02
 BYTE   W03
 BYTE   W01
 BYTE   W02
 BYTE   W01
 BYTE   W02
 BYTE   W01
 BYTE   W02
 BYTE   W01
 BYTE   W02
 BYTE   W01
 BYTE   W02
 BYTE   W01
 BYTE   W02
 BYTE   W01
 BYTE   W02
 BYTE   W01
 BYTE   W02
// 021   ----------------------------------------
 BYTE   W01
 BYTE   W02
 BYTE   W01
 BYTE   W02
 BYTE   W01
 BYTE   W02
 BYTE   W01
 BYTE   W02
 BYTE   W01
 BYTE   W02
 BYTE   W01
 BYTE   W02
 BYTE   W01
 BYTE   W02
 BYTE   W01
 BYTE   W02
 BYTE   W01
 BYTE   W02
 BYTE   W01
 BYTE   W02
 BYTE   W01
 BYTE   W02
 BYTE   W01
 BYTE   EOT
 BYTE   W02
 BYTE   N12  En3
 BYTE   W12
 BYTE   N36  Dn3
 BYTE   W24
 BYTE   W12
 BYTE   N12  An2
 BYTE   W12
// 022   ----------------------------------------
 BYTE   TIE  Bn2
 BYTE   W13
 BYTE   W11
 BYTE   W09
 BYTE   W07
 BYTE   W08
 BYTE   W04
 BYTE   W05
 BYTE   W07
 BYTE   W03
 BYTE   W05
 BYTE   W03
 BYTE   W03
 BYTE   W04
 BYTE   W03
 BYTE   W05
 BYTE   W03
 BYTE   W03
// 023   ----------------------------------------
 BYTE   W01
 BYTE   W02
 BYTE   W04
 BYTE   W05
 BYTE   W01
 BYTE   W03
 BYTE   W03
 BYTE   W03
 BYTE   W02
 BYTE   W03
 BYTE   W01
 BYTE   W05
 BYTE   W01
 BYTE   W03
 BYTE   W02
 BYTE   W03
 BYTE   W01
 BYTE   W03
 BYTE   W02
 BYTE   W01
 BYTE   W03
 BYTE   W02
 BYTE   W03
 BYTE   W01
 BYTE   W02
 BYTE   W01
 BYTE   W03
 BYTE   W02
 BYTE   W01
 BYTE   W02
 BYTE   W03
 BYTE   W01
 BYTE   W02
 BYTE   W03
 BYTE   W03
 BYTE   W01
 BYTE   W02
 BYTE   W01
 BYTE   W02
 BYTE   W01
 BYTE   W02
 BYTE   W01
 BYTE   W02
 BYTE   W01
 BYTE   W02
// 024   ----------------------------------------
 BYTE   W03
 BYTE   W03
 BYTE   W03
 BYTE   W03
 BYTE   W03
 BYTE   W01
 BYTE   W02
 BYTE   W01
 BYTE   W02
 BYTE   W01
 BYTE   W02
 BYTE   W01
 BYTE   W02
 BYTE   W01
 BYTE   W02
 BYTE   W03
 BYTE   W01
 BYTE   W02
 BYTE   W01
 BYTE   W03
 BYTE   W02
 BYTE   W01
 BYTE   W02
 BYTE   W01
 BYTE   W02
 BYTE   W01
 BYTE   W02
 BYTE   W01
 BYTE   W02
 BYTE   W01
 BYTE   W02
 BYTE   W01
 BYTE   W02
 BYTE   W01
 BYTE   W02
 BYTE   W01
 BYTE   W02
 BYTE   W01
 BYTE   W02
 BYTE   W01
 BYTE   W02
 BYTE   W01
 BYTE   W02
 BYTE   W01
 BYTE   W02
 BYTE   W01
 BYTE   W05
 BYTE   W12
// 025   ----------------------------------------
 BYTE   EOT
 BYTE   W24
 BYTE   W24
 BYTE   W24
 BYTE   W24
// 026   ----------------------------------------
 BYTE   W24
 BYTE   W24
 BYTE   W24
 BYTE   W12
 BYTE   W12
// 027   ----------------------------------------
 BYTE   W24
 BYTE   W24
 BYTE   W24
 BYTE   W24
// 028   ----------------------------------------
 BYTE   W24
 BYTE   W24
 BYTE   W24
 BYTE   W24
// 029   ----------------------------------------
 BYTE   W24
 BYTE   W24
 BYTE   W24
 BYTE   W24
// 030   ----------------------------------------
 BYTE   W24
 BYTE   W24
 BYTE   W24
 BYTE   W24
// 031   ----------------------------------------
 BYTE   W24
 BYTE   W24
 BYTE   W24
 BYTE   W24
// 032   ----------------------------------------
 BYTE   W24
 BYTE   W24
 BYTE   W24
 BYTE   W24
// 033   ----------------------------------------
 BYTE   W24
 BYTE   W24
 BYTE   W24
 BYTE   W24
// 034   ----------------------------------------
 BYTE   N44  Fn3  v080
 BYTE   W07
 BYTE   W03
 BYTE   W03
 BYTE   W02
 BYTE   W01
 BYTE   W02
 BYTE   W03
 BYTE   W01
 BYTE   W02
 BYTE   W01
 BYTE   W02
 BYTE   W01
 BYTE   W02
 BYTE   W01
 BYTE   W02
 BYTE   W01
 BYTE   W02
 BYTE   W01
 BYTE   W02
 BYTE   W01
 BYTE   W02
 BYTE   W01
 BYTE   W02
 BYTE   W01
 BYTE   W02
 BYTE   Ds3
 BYTE   W07
 BYTE   W05
 BYTE   W01
 BYTE   W03
 BYTE   W02
 BYTE   W01
 BYTE   W02
 BYTE   W01
 BYTE   W02
 BYTE   W01
 BYTE   W02
 BYTE   W01
 BYTE   W02
 BYTE   W01
 BYTE   W02
 BYTE   W01
 BYTE   W02
 BYTE   W01
 BYTE   W02
 BYTE   W01
 BYTE   W02
 BYTE   W01
 BYTE   W02
 BYTE   W01
 BYTE   W02
// 035   ----------------------------------------
 BYTE   Fn3
 BYTE   W01
 BYTE   W06
 BYTE   W05
 BYTE   W01
 BYTE   W03
 BYTE   W02
 BYTE   W01
 BYTE   W02
 BYTE   W01
 BYTE   W02
 BYTE   W01
 BYTE   W02
 BYTE   W01
 BYTE   W02
 BYTE   W01
 BYTE   W02
 BYTE   W01
 BYTE   W02
 BYTE   W01
 BYTE   W02
 BYTE   W01
 BYTE   W02
 BYTE   W01
 BYTE   W02
 BYTE   W01
 BYTE   W02
 BYTE   Cs3
 BYTE   W01
 BYTE   W09
 BYTE   W02
 BYTE   W03
 BYTE   W01
 BYTE   W02
 BYTE   W01
 BYTE   W02
 BYTE   W01
 BYTE   W02
 BYTE   W01
 BYTE   W02
 BYTE   W01
 BYTE   W02
 BYTE   W01
 BYTE   W02
 BYTE   W01
 BYTE   W02
 BYTE   W01
 BYTE   W02
 BYTE   W01
 BYTE   W02
 BYTE   W01
 BYTE   W02
 BYTE   W01
 BYTE   W02
// 036   ----------------------------------------
 BYTE   Fn3
 BYTE   W06
 BYTE   W04
 BYTE   W03
 BYTE   W03
 BYTE   W02
 BYTE   W01
 BYTE   W02
 BYTE   W01
 BYTE   W02
 BYTE   W01
 BYTE   W02
 BYTE   W01
 BYTE   W02
 BYTE   W01
 BYTE   W02
 BYTE   W01
 BYTE   W02
 BYTE   W01
 BYTE   W02
 BYTE   W01
 BYTE   W02
 BYTE   W01
 BYTE   W02
 BYTE   W01
 BYTE   W02
 BYTE   Ds3
 BYTE   W07
 BYTE   W03
 BYTE   W03
 BYTE   W02
 BYTE   W03
 BYTE   W01
 BYTE   W03
 BYTE   W02
 BYTE   W01
 BYTE   W02
 BYTE   W01
 BYTE   W02
 BYTE   W01
 BYTE   W02
 BYTE   W01
 BYTE   W02
 BYTE   W01
 BYTE   W02
 BYTE   W01
 BYTE   W02
 BYTE   W01
 BYTE   W02
 BYTE   W01
 BYTE   W02
// 037   ----------------------------------------
 BYTE   Fn3
 BYTE   W07
 BYTE   W03
 BYTE   W03
 BYTE   W02
 BYTE   W03
 BYTE   W01
 BYTE   W02
 BYTE   W01
 BYTE   W02
 BYTE   W01
 BYTE   W02
 BYTE   W01
 BYTE   W02
 BYTE   W01
 BYTE   W02
 BYTE   W01
 BYTE   W02
 BYTE   W01
 BYTE   W02
 BYTE   W01
 BYTE   W02
 BYTE   W01
 BYTE   W02
 BYTE   W01
 BYTE   W02
 BYTE   Bn2
 BYTE   W07
 BYTE   W02
 BYTE   W04
 BYTE   W02
 BYTE   W01
 BYTE   W02
 BYTE   W03
 BYTE   W01
 BYTE   W02
 BYTE   W01
 BYTE   W02
 BYTE   W01
 BYTE   W02
 BYTE   W01
 BYTE   W02
 BYTE   W01
 BYTE   W02
 BYTE   W01
 BYTE   W02
 BYTE   W01
 BYTE   W02
 BYTE   W01
 BYTE   W02
 BYTE   W01
 BYTE   W02
// 038   ----------------------------------------
 BYTE   Dn3
 BYTE   W01
 BYTE   W08
 BYTE   W01
 BYTE   W03
 BYTE   W02
 BYTE   W01
 BYTE   W02
 BYTE   W01
 BYTE   W03
 BYTE   W02
 BYTE   W01
 BYTE   W02
 BYTE   W01
 BYTE   W02
 BYTE   W01
 BYTE   W02
 BYTE   W01
 BYTE   W02
 BYTE   W01
 BYTE   W02
 BYTE   W01
 BYTE   W02
 BYTE   W01
 BYTE   W02
 BYTE   W03
 BYTE   Cn3
 BYTE   W04
 BYTE   W06
 BYTE   W02
 BYTE   W03
 BYTE   W01
 BYTE   W02
 BYTE   W01
 BYTE   W03
 BYTE   W02
 BYTE   W01
 BYTE   W02
 BYTE   W01
 BYTE   W02
 BYTE   W01
 BYTE   W02
 BYTE   W01
 BYTE   W02
 BYTE   W01
 BYTE   W02
 BYTE   W01
 BYTE   W02
 BYTE   W01
 BYTE   W02
 BYTE   W01
 BYTE   W02
// 039   ----------------------------------------
 BYTE   Dn3
 BYTE   W07
 BYTE   W02
 BYTE   W04
 BYTE   W02
 BYTE   W01
 BYTE   W02
 BYTE   W01
 BYTE   W02
 BYTE   W01
 BYTE   W02
 BYTE   W01
 BYTE   W02
 BYTE   W01
 BYTE   W02
 BYTE   W01
 BYTE   W02
 BYTE   W01
 BYTE   W02
 BYTE   W01
 BYTE   W02
 BYTE   W01
 BYTE   W02
 BYTE   W01
 BYTE   W02
 BYTE   W01
 BYTE   W02
 BYTE   An2
 BYTE   W09
 BYTE   W01
 BYTE   W05
 BYTE   W03
 BYTE   W01
 BYTE   W02
 BYTE   W01
 BYTE   W02
 BYTE   W01
 BYTE   W02
 BYTE   W01
 BYTE   W02
 BYTE   W01
 BYTE   W02
 BYTE   W01
 BYTE   W02
 BYTE   W01
 BYTE   W02
 BYTE   W01
 BYTE   W02
 BYTE   W01
 BYTE   W02
 BYTE   W01
 BYTE   W02
// 040   ----------------------------------------
 BYTE   Dn3
 BYTE   W09
 BYTE   W01
 BYTE   W03
 BYTE   W02
 BYTE   W03
 BYTE   W01
 BYTE   W02
 BYTE   W03
 BYTE   W01
 BYTE   W02
 BYTE   W01
 BYTE   W02
 BYTE   W01
 BYTE   W02
 BYTE   W01
 BYTE   W02
 BYTE   W01
 BYTE   W02
 BYTE   W01
 BYTE   W02
 BYTE   W01
 BYTE   W02
 BYTE   W01
 BYTE   W02
 BYTE   Cn3
 BYTE   W07
 BYTE   W03
 BYTE   W05
 BYTE   W01
 BYTE   W02
 BYTE   W01
 BYTE   W03
 BYTE   W02
 BYTE   W01
 BYTE   W03
 BYTE   W02
 BYTE   W01
 BYTE   W02
 BYTE   W01
 BYTE   W02
 BYTE   W01
 BYTE   W02
 BYTE   W01
 BYTE   W02
 BYTE   W01
 BYTE   W02
 BYTE   W01
 BYTE   W02
// 041   ----------------------------------------
 BYTE   Dn3
 BYTE   W01
 BYTE   W02
 BYTE   W06
 BYTE   W03
 BYTE   W03
 BYTE   W01
 BYTE   W02
 BYTE   W03
 BYTE   W01
 BYTE   W02
 BYTE   W01
 BYTE   W02
 BYTE   W01
 BYTE   W02
 BYTE   W01
 BYTE   W02
 BYTE   W01
 BYTE   W02
 BYTE   W01
 BYTE   W02
 BYTE   W01
 BYTE   W02
 BYTE   W01
 BYTE   W02
 BYTE   W01
 BYTE   W02
 BYTE   Bn2
 BYTE   W09
 BYTE   W01
 BYTE   W03
 BYTE   W02
 BYTE   W01
 BYTE   W02
 BYTE   W01
 BYTE   W02
 BYTE   W01
 BYTE   W02
 BYTE   W01
 BYTE   W02
 BYTE   W01
 BYTE   W02
 BYTE   W01
 BYTE   W02
 BYTE   W01
 BYTE   W02
 BYTE   W01
 BYTE   W02
 BYTE   W01
 BYTE   W02
 BYTE   W01
 BYTE   W02
 BYTE   W03
// 042   ----------------------------------------
 BYTE   GoTo
  POIN2 Label_9_01058092
 BYTE   FINE

//**************** Track 11 (Midi-Chn.10) ****************//

PokemonMDExplorersSteamCaveRandomWizard_011:
// 000   ----------------------------------------
 BYTE   KEYSH   PokemonMDExplorersSteamCaveRandomWizard_key+0
Label_10_010583BE:
 BYTE   VOICE   52
 BYTE   PAN   c_v+26
 BYTE   VOL   22*PokemonMDExplorersSteamCaveRandomWizard_mvl/mxv
 BYTE   BEND   c_v+0
 BYTE   W24
 BYTE   W24
 BYTE   W24
 BYTE   W24
// 001   ----------------------------------------
 BYTE   W24
 BYTE   W24
 BYTE   W24
 BYTE   W24
// 002   ----------------------------------------
 BYTE   W24
 BYTE   W24
 BYTE   W24
 BYTE   W24
// 003   ----------------------------------------
 BYTE   W24
 BYTE   W24
 BYTE   W24
 BYTE   W15
 BYTE   W01
 BYTE   W08
// 004   ----------------------------------------
 BYTE   TIE  En3  v120
 BYTE   W01
 BYTE   W09
 BYTE   W08
 BYTE   W06
 BYTE   W01
 BYTE   W03
 BYTE   W06
 BYTE   W03
 BYTE   W03
 BYTE   W03
 BYTE   W03
 BYTE   W02
 BYTE   W01
 BYTE   W03
 BYTE   W02
 BYTE   W03
 BYTE   W01
 BYTE   W03
 BYTE   W02
 BYTE   W01
 BYTE   W03
 BYTE   W02
 BYTE   W03
 BYTE   W01
 BYTE   W02
 BYTE   W01
 BYTE   W02
 BYTE   W03
 BYTE   W01
 BYTE   W03
 BYTE   W02
 BYTE   W01
 BYTE   W02
 BYTE   W03
 BYTE   W03
// 005   ----------------------------------------
 BYTE   W01
 BYTE   W02
 BYTE   W01
 BYTE   W02
 BYTE   W01
 BYTE   W02
 BYTE   W01
 BYTE   W02
 BYTE   W01
 BYTE   W02
 BYTE   W01
 BYTE   W02
 BYTE   W01
 BYTE   W03
 BYTE   W02
 BYTE   W09
 BYTE   W04
 BYTE   W05
 BYTE   W03
 BYTE   W03
 BYTE   W03
 BYTE   W01
 BYTE   W03
 BYTE   W02
 BYTE   W03
 BYTE   W01
 BYTE   W03
 BYTE   W02
 BYTE   W01
 BYTE   W02
 BYTE   W01
 BYTE   W02
 BYTE   W01
 BYTE   W02
 BYTE   W01
 BYTE   W02
 BYTE   W01
 BYTE   W02
 BYTE   W01
 BYTE   W02
 BYTE   W01
 BYTE   W02
 BYTE   W01
 BYTE   W02
 BYTE   W01
 BYTE   W05
// 006   ----------------------------------------
 BYTE   EOT
 BYTE   TIE  Bn2
 BYTE   W06
 BYTE   W09
 BYTE   W04
 BYTE   W05
 BYTE   W03
 BYTE   W03
 BYTE   W03
 BYTE   W03
 BYTE   W03
 BYTE   W01
 BYTE   W02
 BYTE   W03
 BYTE   W01
 BYTE   W02
 BYTE   W01
 BYTE   W02
 BYTE   W01
 BYTE   W03
 BYTE   W02
 BYTE   W01
 BYTE   W02
 BYTE   W01
 BYTE   W02
 BYTE   W01
 BYTE   W02
 BYTE   W01
 BYTE   W02
 BYTE   W01
 BYTE   W02
 BYTE   W01
 BYTE   W02
 BYTE   W01
 BYTE   W02
 BYTE   W01
 BYTE   W02
 BYTE   W12
 BYTE   W03
// 007   ----------------------------------------
 BYTE   W04
 BYTE   W06
 BYTE   W05
 BYTE   W04
 BYTE   W02
 BYTE   W03
 BYTE   W01
 BYTE   W02
 BYTE   W01
 BYTE   W03
 BYTE   W02
 BYTE   W01
 BYTE   W02
 BYTE   W01
 BYTE   W03
 BYTE   W02
 BYTE   W01
 BYTE   W02
 BYTE   W01
 BYTE   W02
 BYTE   W01
 BYTE   W02
 BYTE   W01
 BYTE   W02
 BYTE   W01
 BYTE   W02
 BYTE   W01
 BYTE   W02
 BYTE   W01
 BYTE   W02
 BYTE   W01
 BYTE   W02
 BYTE   W01
 BYTE   W02
 BYTE   W01
 BYTE   W02
 BYTE   W01
 BYTE   W02
 BYTE   W01
 BYTE   W02
 BYTE   W01
 BYTE   W02
 BYTE   W01
 BYTE   W02
 BYTE   W01
 BYTE   W02
 BYTE   W01
 BYTE   W02
 BYTE   W01
 BYTE   W02
 BYTE   W01
 BYTE   W02
// 008   ----------------------------------------
 BYTE   W01
 BYTE   W02
 BYTE   W01
 BYTE   W02
 BYTE   W01
 BYTE   W02
 BYTE   W01
 BYTE   W02
 BYTE   W01
 BYTE   W02
 BYTE   W01
 BYTE   W02
 BYTE   W01
 BYTE   W02
 BYTE   W01
 BYTE   W02
 BYTE   EOT
 BYTE   W24
 BYTE   W24
 BYTE   W24
// 009   ----------------------------------------
 BYTE   W24
 BYTE   W24
 BYTE   W24
 BYTE   W24
// 010   ----------------------------------------
 BYTE   TIE  En3
 BYTE   W07
 BYTE   W06
 BYTE   W03
 BYTE   W02
 BYTE   W03
 BYTE   W01
 BYTE   W02
 BYTE   W01
 BYTE   W02
 BYTE   W01
 BYTE   W02
 BYTE   W01
 BYTE   W02
 BYTE   W01
 BYTE   W02
 BYTE   W01
 BYTE   W02
 BYTE   W01
 BYTE   W02
 BYTE   W01
 BYTE   W02
 BYTE   W01
 BYTE   W02
 BYTE   W01
 BYTE   W02
 BYTE   W01
 BYTE   W02
 BYTE   W01
 BYTE   W02
 BYTE   W01
 BYTE   W02
 BYTE   W01
 BYTE   W02
 BYTE   W01
 BYTE   W02
 BYTE   W01
 BYTE   W02
 BYTE   W01
 BYTE   W02
 BYTE   W24
// 011   ----------------------------------------
 BYTE   W12
 BYTE   W12
 BYTE   W06
 BYTE   W03
 BYTE   W04
 BYTE   W02
 BYTE   W03
 BYTE   W03
 BYTE   W01
 BYTE   W02
 BYTE   W01
 BYTE   W02
 BYTE   W01
 BYTE   W02
 BYTE   W01
 BYTE   W02
 BYTE   W01
 BYTE   W02
 BYTE   W01
 BYTE   W02
 BYTE   W01
 BYTE   W02
 BYTE   W01
 BYTE   W02
 BYTE   W01
 BYTE   W02
 BYTE   W01
 BYTE   W02
 BYTE   W01
 BYTE   W02
 BYTE   W01
 BYTE   W02
 BYTE   W01
 BYTE   W02
 BYTE   W01
 BYTE   W02
 BYTE   W01
 BYTE   W02
 BYTE   W01
 BYTE   W02
 BYTE   W01
 BYTE   W02
// 012   ----------------------------------------
 BYTE   EOT
 BYTE   TIE  Bn2
 BYTE   W07
 BYTE   W06
 BYTE   W08
 BYTE   W03
 BYTE   W03
 BYTE   W03
 BYTE   W03
 BYTE   W03
 BYTE   W01
 BYTE   W02
 BYTE   W03
 BYTE   W01
 BYTE   W03
 BYTE   W02
 BYTE   W01
 BYTE   W02
 BYTE   W01
 BYTE   W03
 BYTE   W02
 BYTE   W03
 BYTE   W03
 BYTE   W01
 BYTE   W02
 BYTE   W01
 BYTE   W02
 BYTE   W01
 BYTE   W02
 BYTE   W01
 BYTE   W02
 BYTE   W01
 BYTE   W02
 BYTE   W01
 BYTE   W02
 BYTE   W01
 BYTE   W02
 BYTE   W01
 BYTE   W02
 BYTE   W01
 BYTE   W02
 BYTE   W01
 BYTE   W05
// 013   ----------------------------------------
 BYTE   W07
 BYTE   W06
 BYTE   W05
 BYTE   W03
 BYTE   W03
 BYTE   W03
 BYTE   W01
 BYTE   W03
 BYTE   W02
 BYTE   W01
 BYTE   W02
 BYTE   W01
 BYTE   W03
 BYTE   W02
 BYTE   W01
 BYTE   W02
 BYTE   W01
 BYTE   W02
 BYTE   W01
 BYTE   W02
 BYTE   W01
 BYTE   W02
 BYTE   W01
 BYTE   W02
 BYTE   W01
 BYTE   W02
 BYTE   W01
 BYTE   W02
 BYTE   W01
 BYTE   W02
 BYTE   W01
 BYTE   W02
 BYTE   W01
 BYTE   W02
 BYTE   W01
 BYTE   W02
 BYTE   W01
 BYTE   W02
 BYTE   W01
 BYTE   W02
 BYTE   W01
 BYTE   W02
 BYTE   W01
 BYTE   W02
 BYTE   W01
 BYTE   W02
 BYTE   W01
 BYTE   W02
 BYTE   W01
 BYTE   W02
// 014   ----------------------------------------
 BYTE   W01
 BYTE   W02
 BYTE   W01
 BYTE   W02
 BYTE   W01
 BYTE   W02
 BYTE   W01
 BYTE   W02
 BYTE   W01
 BYTE   W02
 BYTE   W01
 BYTE   W02
 BYTE   W01
 BYTE   W05
 BYTE   EOT
 BYTE   W24
 BYTE   W24
 BYTE   W24
// 015   ----------------------------------------
 BYTE   W24
 BYTE   W24
 BYTE   W24
 BYTE   W24
// 016   ----------------------------------------
 BYTE   W24
 BYTE   W24
 BYTE   W24
 BYTE   W24
// 017   ----------------------------------------
 BYTE   W24
 BYTE   W24
 BYTE   W24
 BYTE   W24
// 018   ----------------------------------------
 BYTE   W24
 BYTE   W24
 BYTE   W24
 BYTE   W24
// 019   ----------------------------------------
 BYTE   W24
 BYTE   W24
 BYTE   W24
 BYTE   W24
// 020   ----------------------------------------
 BYTE   W24
 BYTE   W24
 BYTE   W24
 BYTE   W24
// 021   ----------------------------------------
 BYTE   W24
 BYTE   W24
 BYTE   W24
 BYTE   W24
// 022   ----------------------------------------
 BYTE   W24
 BYTE   W24
 BYTE   W24
 BYTE   W24
// 023   ----------------------------------------
 BYTE   W24
 BYTE   W24
 BYTE   W24
 BYTE   W24
// 024   ----------------------------------------
 BYTE   W24
 BYTE   W24
 BYTE   W24
 BYTE   W24
// 025   ----------------------------------------
 BYTE   W24
 BYTE   W24
 BYTE   W24
 BYTE   W24
// 026   ----------------------------------------
 BYTE   W24
 BYTE   W24
 BYTE   W24
 BYTE   W24
// 027   ----------------------------------------
 BYTE   W24
 BYTE   W24
 BYTE   W24
 BYTE   W24
// 028   ----------------------------------------
 BYTE   W24
 BYTE   W24
 BYTE   W24
 BYTE   W24
// 029   ----------------------------------------
 BYTE   W24
 BYTE   W24
 BYTE   W24
 BYTE   W24
// 030   ----------------------------------------
 BYTE   W24
 BYTE   W24
 BYTE   W24
 BYTE   W24
// 031   ----------------------------------------
 BYTE   W24
 BYTE   W24
 BYTE   W24
 BYTE   W24
// 032   ----------------------------------------
 BYTE   W24
 BYTE   W24
 BYTE   W24
 BYTE   W24
// 033   ----------------------------------------
 BYTE   W24
 BYTE   W24
 BYTE   W24
 BYTE   W24
// 034   ----------------------------------------
 BYTE   W24
 BYTE   W24
 BYTE   W24
 BYTE   W24
// 035   ----------------------------------------
 BYTE   W24
 BYTE   W24
 BYTE   W24
 BYTE   W24
// 036   ----------------------------------------
 BYTE   W24
 BYTE   W24
 BYTE   W24
 BYTE   W24
// 037   ----------------------------------------
 BYTE   W24
 BYTE   W24
 BYTE   W24
 BYTE   W24
// 038   ----------------------------------------
 BYTE   W24
 BYTE   W24
 BYTE   W24
 BYTE   W24
// 039   ----------------------------------------
 BYTE   W24
 BYTE   W24
 BYTE   W24
 BYTE   W24
// 040   ----------------------------------------
 BYTE   W24
 BYTE   W24
 BYTE   W24
 BYTE   W24
// 041   ----------------------------------------
 BYTE   W24
 BYTE   W24
 BYTE   W24
 BYTE   W24
// 042   ----------------------------------------
 BYTE   GoTo
  POIN2 Label_10_010583BE
 BYTE   FINE

//**************** Track 12 (Midi-Chn.11) ****************//

PokemonMDExplorersSteamCaveRandomWizard_012:
// 000   ----------------------------------------
 BYTE   KEYSH   PokemonMDExplorersSteamCaveRandomWizard_key+0
Label_11_010585DA:
 BYTE   VOICE   127
 BYTE   PAN   c_v+0
 BYTE   VOL   25*PokemonMDExplorersSteamCaveRandomWizard_mvl/mxv
 BYTE   BEND   c_v+0
 BYTE   W24
 BYTE   W24
 BYTE   W09
 BYTE   PAN   c_v+0
 BYTE   W03
 BYTE   En3
 BYTE   W04
 BYTE   N01  Cn1  v080
 BYTE   W02
 BYTE   Cn1  v092
 BYTE   W03
 BYTE   Cn1  v104
 BYTE   W03
 BYTE   N06  Cn1  v127
 BYTE   W09
 BYTE   PAN   c_v+63
 BYTE   N06  Cn1  v068
 BYTE   W09
 BYTE   PAN   c_v-64
 BYTE   N06  Cn1  v036
 BYTE   W06
// 001   ----------------------------------------
 BYTE   W03
 BYTE   PAN   c_v+63
 BYTE   N06  Cn1  v024
 BYTE   W15
 BYTE   PAN   c_v+0
 BYTE   W06
 BYTE   W24
 BYTE   W24
 BYTE   W24
// 002   ----------------------------------------
 BYTE   W24
 BYTE   W24
 BYTE   W24
 BYTE   W04
 BYTE   N04  Ds3  v056
 BYTE   W08
 BYTE   N06  Cs3
 BYTE   W08
 BYTE   N04  Ds3  v120
 BYTE   W04
// 003   ----------------------------------------
 BYTE   W05
 BYTE   En3  v084
 BYTE   W09
 BYTE   Cs3
 BYTE   W08
 BYTE   Ds3  v104
 BYTE   W02
 BYTE   W09
 BYTE   N06  Cs3  v068
 BYTE   W11
 BYTE   N04  Ds3
 BYTE   W04
 BYTE   W08
 BYTE   N06  Cs3  v060
 BYTE   W14
 BYTE   N04  Ds3  v032
 BYTE   W02
 BYTE   W24
// 004   ----------------------------------------
 BYTE   W24
 BYTE   W24
 BYTE   W24
 BYTE   W24
// 005   ----------------------------------------
 BYTE   W24
 BYTE   W24
 BYTE   W24
 BYTE   W24
// 006   ----------------------------------------
 BYTE   W15
 BYTE   N01  Cn1  v104
 BYTE   W03
 BYTE   Cn1  v112
 BYTE   W03
 BYTE   N01
 BYTE   W03
 BYTE   N06  Cn1  v120
 BYTE   W09
 BYTE   PAN   c_v+63
 BYTE   N03  Cn1  v060
 BYTE   W09
 BYTE   PAN   c_v-64
 BYTE   N03
 BYTE   W06
Label_11_0105865B:
 BYTE   W03
 BYTE   PAN   c_v+63
 BYTE   N03  Cn1  v044
 BYTE   W09
 BYTE   PAN   c_v-64
 BYTE   N03  Cn1  v036
 BYTE   W12
 BYTE   PEND 
 BYTE   W21
 BYTE   PAN   c_v+0
 BYTE   W03
// 007   ----------------------------------------
 BYTE   W12
 BYTE   N05  En1  v120
 BYTE   N05  An2
 BYTE   W09
 BYTE   PAN   c_v+63
 BYTE   N05  An2  v064
 BYTE   W03
 BYTE   W06
 BYTE   PAN   c_v-64
 BYTE   N05  An2  v052
 BYTE   W09
 BYTE   PAN   c_v+63
 BYTE   N05  An2  v044
 BYTE   W09
 BYTE   PAN   c_v-64
 BYTE   N05  An2  v040
 BYTE   W24
 BYTE   PAN   c_v+0
 BYTE   W24
// 008   ----------------------------------------
 BYTE   W24
 BYTE   W24
 BYTE   W24
 BYTE   W05
 BYTE   N04  En3  v120
 BYTE   W09
 BYTE   N06  Cs3  v064
 BYTE   W09
 BYTE   N03  Ds3  v068
 BYTE   W01
// 009   ----------------------------------------
 BYTE   W10
 BYTE   N04
 BYTE   W12
 BYTE   N05  Ds3  v064
 BYTE   W02
 BYTE   W12
 BYTE   N04  Ds3  v048
 BYTE   W12
 BYTE   W02
 BYTE   Ds3  v044
 BYTE   W16
 BYTE   N03  Ds3  v032
 BYTE   W06
 BYTE   W24
// 010   ----------------------------------------
 BYTE   W24
 BYTE   W24
 BYTE   W24
 BYTE   W24
// 011   ----------------------------------------
 BYTE   W15
 BYTE   N04  Cn1  v072
 BYTE   W05
 BYTE   N03
 BYTE   W04
 BYTE   W01
 BYTE   N04
 BYTE   W04
 BYTE   N03
 BYTE   W04
 BYTE   Cn1  v076
 BYTE   W05
 BYTE   Cn1  v080
 BYTE   W04
 BYTE   Cn1  v084
 BYTE   W04
 BYTE   N03
 BYTE   W02
 BYTE   W03
 BYTE   Cn1  v088
 BYTE   W05
 BYTE   Cn1  v092
 BYTE   W05
 BYTE   Cn1  v100
 BYTE   W04
 BYTE   N04  Cn1  v104
 BYTE   W06
 BYTE   N03  Cn1  v112
 BYTE   W01
 BYTE   W05
 BYTE   N04  Cn1  v124
 BYTE   W07
 BYTE   N05  Cn1  v112
 BYTE   W07
 BYTE   N04  Cn1  v104
 BYTE   W05
// 012   ----------------------------------------
 BYTE   W04
 BYTE   Cn1  v096
 BYTE   W20
 BYTE   W24
 BYTE   W24
 BYTE   W24
// 013   ----------------------------------------
 BYTE   W24
 BYTE   W24
 BYTE   W24
 BYTE   W24
// 014   ----------------------------------------
 BYTE   W24
 BYTE   W24
 BYTE   W24
 BYTE   W24
// 015   ----------------------------------------
 BYTE   W24
 BYTE   W24
 BYTE   W24
 BYTE   W24
// 016   ----------------------------------------
 BYTE   W15
 BYTE   N03  Cn1  v127
 BYTE   N09  En1
 BYTE   W03
 BYTE   N03  Cn1  v096
 BYTE   W03
 BYTE   Cn1  v112
 BYTE   W03
 BYTE   Cn1  v127
 BYTE   W06
 BYTE   PAN   c_v+63
 BYTE   N03  Cn1  v064
 BYTE   W06
 BYTE   PAN   c_v-64
 BYTE   N03  Cn1  v052
 BYTE   W06
 BYTE   PAN   c_v+63
 BYTE   N03  Cn1  v044
 BYTE   W06
 BYTE   PAN   c_v-64
 BYTE   N03  Cn1  v036
 BYTE   W24
 BYTE   PAN   c_v+0
 BYTE   W24
// 017   ----------------------------------------
 BYTE   W24
 BYTE   W24
 BYTE   W24
 BYTE   W24
// 018   ----------------------------------------
 BYTE   W24
 BYTE   W24
 BYTE   W24
 BYTE   W24
// 019   ----------------------------------------
 BYTE   W24
 BYTE   W24
 BYTE   W24
 BYTE   W24
// 020   ----------------------------------------
 BYTE   W18
 BYTE   N06  En1  v127
 BYTE   W03
 BYTE   N03  Cn1  v112
 BYTE   W03
 BYTE   Cn1  v120
 BYTE   W09
 BYTE   PAN   c_v+63
 BYTE   N03  Cn1  v060
 BYTE   W09
 BYTE   PAN   c_v-64
 BYTE   N03  Cn1  v052
 BYTE   W06
 BYTE   PATT
  POIN2 Label_11_0105865B
// 021   ----------------------------------------
 BYTE   PAN   c_v+0
 BYTE   W24
 BYTE   W24
 BYTE   W24
 BYTE   W24
// 022   ----------------------------------------
 BYTE   W24
 BYTE   W24
 BYTE   W24
 BYTE   W24
// 023   ----------------------------------------
 BYTE   W24
 BYTE   W24
 BYTE   W24
 BYTE   W24
// 024   ----------------------------------------
 BYTE   W24
 BYTE   W24
 BYTE   W24
 BYTE   W24
// 025   ----------------------------------------
 BYTE   W24
 BYTE   W24
 BYTE   W24
 BYTE   W24
// 026   ----------------------------------------
 BYTE   W24
 BYTE   W24
 BYTE   W24
 BYTE   W24
// 027   ----------------------------------------
 BYTE   W24
 BYTE   W24
 BYTE   W24
 BYTE   W24
// 028   ----------------------------------------
 BYTE   W24
 BYTE   W24
 BYTE   W24
 BYTE   W24
// 029   ----------------------------------------
 BYTE   W24
 BYTE   W24
 BYTE   W24
 BYTE   W24
// 030   ----------------------------------------
 BYTE   W24
 BYTE   W24
 BYTE   W24
 BYTE   W24
// 031   ----------------------------------------
 BYTE   W24
 BYTE   W24
 BYTE   W24
 BYTE   W24
// 032   ----------------------------------------
 BYTE   W24
 BYTE   W24
 BYTE   W24
 BYTE   W24
// 033   ----------------------------------------
 BYTE   W24
 BYTE   W24
 BYTE   W24
 BYTE   W24
// 034   ----------------------------------------
 BYTE   N03  Cn1  v060
 BYTE   W03
 BYTE   Cn1  v068
 BYTE   W03
 BYTE   N03
 BYTE   W03
 BYTE   Cn1  v076
 BYTE   W03
 BYTE   Cn1  v084
 BYTE   W03
 BYTE   Cn1  v096
 BYTE   W03
 BYTE   Cn1  v108
 BYTE   W03
 BYTE   Cn1  v120
 BYTE   W03
 BYTE   Cn1  v127
 BYTE   N96  Cs2
 BYTE   W09
 BYTE   PAN   c_v+62
 BYTE   N03  Cn1  v072
 BYTE   W09
 BYTE   PAN   c_v-64
 BYTE   N03  Cn1  v060
 BYTE   W06
 BYTE   W03
 BYTE   PAN   c_v+63
 BYTE   N03  Cn1  v048
 BYTE   W09
 BYTE   PAN   c_v-64
 BYTE   N03  Cn1  v040
 BYTE   W09
 BYTE   PAN   c_v+63
 BYTE   N03  Cn1  v032
 BYTE   W03
 BYTE   W06
 BYTE   PAN   c_v-64
 BYTE   W18
// 035   ----------------------------------------
 BYTE   W24
 BYTE   W24
 BYTE   W24
 BYTE   W24
// 036   ----------------------------------------
 BYTE   W24
 BYTE   W24
 BYTE   W24
 BYTE   W24
// 037   ----------------------------------------
 BYTE   W24
 BYTE   W24
 BYTE   W24
 BYTE   W24
// 038   ----------------------------------------
 BYTE   W24
 BYTE   W24
 BYTE   W24
 BYTE   W24
// 039   ----------------------------------------
 BYTE   W24
 BYTE   W24
 BYTE   W24
 BYTE   W24
// 040   ----------------------------------------
 BYTE   W24
 BYTE   W24
 BYTE   W24
 BYTE   W24
// 041   ----------------------------------------
 BYTE   W24
 BYTE   W24
 BYTE   W24
 BYTE   W24
// 042   ----------------------------------------
 BYTE   W24
 BYTE   GoTo
  POIN2 Label_11_010585DA
 BYTE   FINE

//******************************************************//
	ALIGN 4

PokemonMDExplorersSteamCaveRandomWizard:
	BYTE	12	// NumTrks
	BYTE	0	// NumBlks
	BYTE	PokemonMDExplorersSteamCaveRandomWizard_pri	// Priority
	BYTE	PokemonMDExplorersSteamCaveRandomWizard_rev	// Reverb.
    
	POIN2	PokemonMDExplorersSteamCaveRandomWizard_grp
    
	POIN2	PokemonMDExplorersSteamCaveRandomWizard_001
	POIN2	PokemonMDExplorersSteamCaveRandomWizard_002
	POIN2	PokemonMDExplorersSteamCaveRandomWizard_003
	POIN2	PokemonMDExplorersSteamCaveRandomWizard_004
	POIN2	PokemonMDExplorersSteamCaveRandomWizard_005
	POIN2	PokemonMDExplorersSteamCaveRandomWizard_006
	POIN2	PokemonMDExplorersSteamCaveRandomWizard_007
	POIN2	PokemonMDExplorersSteamCaveRandomWizard_008
	POIN2	PokemonMDExplorersSteamCaveRandomWizard_009
	POIN2	PokemonMDExplorersSteamCaveRandomWizard_010
	POIN2	PokemonMDExplorersSteamCaveRandomWizard_011
	POIN2	PokemonMDExplorersSteamCaveRandomWizard_012

	
