//Event file generated from Sappy .s format.
	#include "MPlayDef.event"

	#define	PokemonDPPtMountCoronetDolkar_grp  voicegroup000
	#define	PokemonDPPtMountCoronetDolkar_pri  0
	#define	PokemonDPPtMountCoronetDolkar_rev  0
	#define	PokemonDPPtMountCoronetDolkar_mvl  127
	#define	PokemonDPPtMountCoronetDolkar_key  0
	#define	PokemonDPPtMountCoronetDolkar_tbs  1
	#define	PokemonDPPtMountCoronetDolkar_exg  0
	#define	PokemonDPPtMountCoronetDolkar_cmp  1

	// .rodata
	//	PokemonDPPtMountCoronetDolkar
	ALIGN 4


//**************** Track 1 (Midi-Chn.0) ****************//

PokemonDPPtMountCoronetDolkar_001:
// 000   ----------------------------------------
 BYTE   KEYSH   PokemonDPPtMountCoronetDolkar_key+0
Label_0_0188884A:
 BYTE   TEMPO   156*PokemonDPPtMountCoronetDolkar_tbs/2
 BYTE   VOICE   2
 BYTE   MOD 0
 BYTE   CnM2
 BYTE   VOL   62*PokemonDPPtMountCoronetDolkar_mvl/mxv
 BYTE   PAN   c_v-32
 BYTE   BEND   c_v+0
 BYTE   W24
 BYTE   N23  Dn4  v112
 BYTE   W24
 BYTE   Dn4  v060
 BYTE   W24
 BYTE   Dn4  v112
 BYTE   W24
// 001   ----------------------------------------
Label_0_01888861:
 BYTE   N11  Dn4  v060
 BYTE   W12
 BYTE   N23  Dn4  v112
 BYTE   W24
 BYTE   Dn4  v060
 BYTE   W24
 BYTE   N32  Dn4  v112
 BYTE   W36
 BYTE   PEND 
// 002   ----------------------------------------
Label_0_01888871:
 BYTE   N23  Dn4  v060
 BYTE   W24
 BYTE   Dn4  v112
 BYTE   W24
 BYTE   Dn4  v060
 BYTE   W24
 BYTE   Cn4  v112
 BYTE   W24
 BYTE   PEND 
// 003   ----------------------------------------
Label_0_0188887F:
 BYTE   N11  Cn4  v060
 BYTE   W12
 BYTE   N23  Cn4  v112
 BYTE   W24
 BYTE   Cn4  v060
 BYTE   W24
 BYTE   N32  Cn4  v112
 BYTE   W36
 BYTE   PEND 
// 004   ----------------------------------------
Label_0_0188888F:
 BYTE   N23  Cn4  v060
 BYTE   W24
 BYTE   Cn4  v112
 BYTE   W24
 BYTE   Cn4  v060
 BYTE   W24
 BYTE   Dn4  v112
 BYTE   W24
 BYTE   PEND 
 BYTE   PATT
  POIN2 Label_0_01888861
 BYTE   PATT
  POIN2 Label_0_01888871
 BYTE   PATT
  POIN2 Label_0_0188887F
 BYTE   PATT
  POIN2 Label_0_0188888F
 BYTE   PATT
  POIN2 Label_0_01888861
 BYTE   PATT
  POIN2 Label_0_01888871
 BYTE   PATT
  POIN2 Label_0_0188887F
 BYTE   PATT
  POIN2 Label_0_0188888F
 BYTE   PATT
  POIN2 Label_0_01888861
 BYTE   PATT
  POIN2 Label_0_01888871
 BYTE   PATT
  POIN2 Label_0_0188887F
 BYTE   PATT
  POIN2 Label_0_0188888F
 BYTE   PATT
  POIN2 Label_0_01888861
 BYTE   PATT
  POIN2 Label_0_01888871
 BYTE   PATT
  POIN2 Label_0_0188887F
// 005   ----------------------------------------
 BYTE   N23  Cn4  v060
 BYTE   W24
 BYTE   Cn4  v112
 BYTE   W24
 BYTE   VOICE   2
 BYTE   VOL   66*PokemonDPPtMountCoronetDolkar_mvl/mxv
 BYTE   PAN   c_v+32
 BYTE   N23  Cn4  v060
 BYTE   W24
 BYTE   Cn4  v112
 BYTE   W24
// 006   ----------------------------------------
 BYTE   N11  Gs3
 BYTE   W12
 BYTE   N23  Fn3
 BYTE   W24
 BYTE   N11  Dn3
 BYTE   W12
 BYTE   Dn3  v060
 BYTE   W12
 BYTE   N23  Dn3  v112
 BYTE   W24
 BYTE   N11  Dn3  v060
 BYTE   W12
// 007   ----------------------------------------
 BYTE   N02  Gn3  v112
 BYTE   W03
 BYTE   N08  Gs3
 BYTE   W09
 BYTE   N11  Fn3
 BYTE   W12
 BYTE   N23  Dn3
 BYTE   W24
 BYTE   Dn3  v060
 BYTE   W24
 BYTE   Cn3  v112
 BYTE   W24
// 008   ----------------------------------------
 BYTE   N11  Cn3  v060
 BYTE   W12
 BYTE   N02  An3  v112
 BYTE   W03
 BYTE   N08  As3
 BYTE   W09
 BYTE   Ds3
 BYTE   W12
 BYTE   N11  Ds3  v060
 BYTE   W12
 BYTE   N08  Fn3  v112
 BYTE   W12
 BYTE   N32  Cn3
 BYTE   W36
// 009   ----------------------------------------
 BYTE   N23  Cn3  v060
 BYTE   W24
 BYTE   N02  En2  v112
 BYTE   W03
 BYTE   N20  Fn2
 BYTE   W21
 BYTE   N05  Fn3
 BYTE   W06
 BYTE   Gn3
 BYTE   W06
 BYTE   Ds3
 BYTE   W06
 BYTE   Cn3
 BYTE   W06
 BYTE   N11  Gn2
 BYTE   W12
 BYTE   Fn2
 BYTE   W12
// 010   ----------------------------------------
 BYTE   N44  Cn2
 BYTE   W48
 BYTE   N11  Cn2  v060
 BYTE   W12
 BYTE   N32  Dn3  v112
 BYTE   W36
// 011   ----------------------------------------
 BYTE   N23  Dn3  v060
 BYTE   W24
 BYTE   Dn3  v112
 BYTE   W24
 BYTE   Dn3  v060
 BYTE   W24
 BYTE   Cn3  v112
 BYTE   W24
// 012   ----------------------------------------
 BYTE   N11  Cn3  v060
 BYTE   W12
 BYTE   N23  Cn3  v112
 BYTE   W24
 BYTE   Cn3  v060
 BYTE   W24
 BYTE   N32  Cn3  v112
 BYTE   W36
// 013   ----------------------------------------
 BYTE   N23  Cn3  v060
 BYTE   W24
 BYTE   Cn3  v112
 BYTE   W24
 BYTE   VOL   52*PokemonDPPtMountCoronetDolkar_mvl/mxv
 BYTE   N05  Fn3
 BYTE   W06
 BYTE   Cn4
 BYTE   W06
 BYTE   Fn4
 BYTE   W06
 BYTE   Cn5
 BYTE   W06
 BYTE   N23  Cn4
 BYTE   W24
// 014   ----------------------------------------
 BYTE   N11  Gs3
 BYTE   W12
 BYTE   Fn3
 BYTE   W12
 BYTE   Cn4
 BYTE   W12
 BYTE   Cn4  v060
 BYTE   W12
 BYTE   Dn4  v112
 BYTE   W12
 BYTE   Cn4
 BYTE   W12
 BYTE   Cn4  v060
 BYTE   W12
 BYTE   N02  Ds4  v112
 BYTE   W03
 BYTE   N08  En4
 BYTE   W09
// 015   ----------------------------------------
 BYTE   N11  En4  v060
 BYTE   W12
 BYTE   Dn4  v112
 BYTE   W12
 BYTE   VOL   65*PokemonDPPtMountCoronetDolkar_mvl/mxv
 BYTE   N23  Dn3
 BYTE   W24
 BYTE   Dn3  v060
 BYTE   W24
 BYTE   Cn3  v112
 BYTE   W24
// 016   ----------------------------------------
 BYTE   N11  Cn3  v060
 BYTE   W12
 BYTE   N23  Cn3  v112
 BYTE   W24
 BYTE   N11  Cn3  v060
 BYTE   W24
 BYTE   N02  An3  v112
 BYTE   W03
 BYTE   N08  As3
 BYTE   W09
 BYTE   N11  Gn3
 BYTE   W12
 BYTE   Ds3
 BYTE   W12
// 017   ----------------------------------------
 BYTE   Gn3
 BYTE   W12
 BYTE   Ds3
 BYTE   W12
 BYTE   N23  Cn3
 BYTE   W24
 BYTE   Cn3  v060
 BYTE   W24
 BYTE   Dn3  v112
 BYTE   W24
// 018   ----------------------------------------
 BYTE   N11  Dn3  v060
 BYTE   W12
 BYTE   N23  Dn3  v112
 BYTE   W24
 BYTE   Dn3  v060
 BYTE   W12
 BYTE   VOICE   2
 BYTE   W12
 BYTE   N11  Dn3  v112
 BYTE   W12
 BYTE   Cn3
 BYTE   W12
 BYTE   N02  Ds3
 BYTE   W03
 BYTE   N20  En3
 BYTE   W09
// 019   ----------------------------------------
 BYTE   W12
 BYTE   N32  Dn3
 BYTE   W36
 BYTE   VOICE   46
 BYTE   PAN   c_v-32
 BYTE   VOL   64*PokemonDPPtMountCoronetDolkar_mvl/mxv
 BYTE   N07  Cn5
 BYTE   W08
 BYTE   Fn4
 BYTE   W08
 BYTE   PAN   c_v+32
 BYTE   N07  Gn4
 BYTE   W08
 BYTE   Cn5
 BYTE   W08
 BYTE   PAN   c_v-32
 BYTE   N07  Cs5
 BYTE   W08
 BYTE   Gn5
 BYTE   W08
// 020   ----------------------------------------
 BYTE   PAN   c_v+32
 BYTE   N04  Fn5
 BYTE   W04
 BYTE   N03  En5
 BYTE   W04
 BYTE   N07  Cs5
 BYTE   W08
 BYTE   PAN   c_v-32
 BYTE   N07  Cn5
 BYTE   W08
 BYTE   Gn4
 BYTE   W08
 BYTE   PAN   c_v+32
 BYTE   N03  Fn4
 BYTE   W04
 BYTE   En4
 BYTE   W04
 BYTE   N07  Cs4
 BYTE   W08
 BYTE   PAN   c_v-32
 BYTE   N07  Cn4
 BYTE   W08
 BYTE   Gn3
 BYTE   W08
 BYTE   PAN   c_v+32
 BYTE   N07  Fn3
 BYTE   W08
 BYTE   Cn4
 BYTE   W08
 BYTE   PAN   c_v-32
 BYTE   N03  Dn4
 BYTE   W04
 BYTE   Fn4
 BYTE   W04
 BYTE   N07  Gn4
 BYTE   W08
// 021   ----------------------------------------
 BYTE   PAN   c_v+32
 BYTE   N07  Fn4
 BYTE   W08
 BYTE   Cn5
 BYTE   W08
 BYTE   PAN   c_v-32
 BYTE   N07  Dn5
 BYTE   W08
 BYTE   N03  Cn5
 BYTE   W04
 BYTE   As4
 BYTE   W04
 BYTE   PAN   c_v+32
 BYTE   N07  Gn4
 BYTE   W08
 BYTE   Fn4
 BYTE   W08
 BYTE   PAN   c_v-32
 BYTE   N07  Cn5
 BYTE   W08
 BYTE   Fn4
 BYTE   W08
 BYTE   PAN   c_v+32
 BYTE   N03  Gn4
 BYTE   W04
 BYTE   As4
 BYTE   W04
 BYTE   N07  Cn5
 BYTE   W08
 BYTE   PAN   c_v-32
 BYTE   N07  Ds5
 BYTE   W08
 BYTE   Gn5
 BYTE   W08
// 022   ----------------------------------------
 BYTE   PAN   c_v+32
 BYTE   N07  Fn5
 BYTE   W08
 BYTE   Ds5
 BYTE   W08
 BYTE   PAN   c_v-32
 BYTE   N03  Cn5
 BYTE   W04
 BYTE   As4
 BYTE   W04
 BYTE   N07  Gn4
 BYTE   W08
 BYTE   PAN   c_v+32
 BYTE   N07  Fn4
 BYTE   W08
 BYTE   Ds4
 BYTE   W08
 BYTE   PAN   c_v-32
 BYTE   N07  Cn4
 BYTE   W08
 BYTE   Gn3
 BYTE   W08
 BYTE   PAN   c_v+32
 BYTE   N07  Fn3
 BYTE   W08
 BYTE   As3
 BYTE   W08
 BYTE   PAN   c_v-32
 BYTE   N03  Cn4
 BYTE   W04
 BYTE   Dn4
 BYTE   W04
 BYTE   N07  En4
 BYTE   W08
// 023   ----------------------------------------
 BYTE   PAN   c_v+32
 BYTE   N03  Gn4
 BYTE   W04
 BYTE   An4
 BYTE   W04
 BYTE   As4
 BYTE   W04
 BYTE   Bn4
 BYTE   W04
 BYTE   PAN   c_v-32
 BYTE   N03  Cn5
 BYTE   W04
 BYTE   Dn5
 BYTE   W04
 BYTE   En5
 BYTE   W04
 BYTE   Dn5
 BYTE   W04
 BYTE   PAN   c_v+32
 BYTE   N03  Cn5
 BYTE   W04
 BYTE   As4
 BYTE   W04
 BYTE   N07  Gn4
 BYTE   W08
 BYTE   N05  Fn5
 BYTE   W06
 BYTE   Fn4
 BYTE   W06
 BYTE   Gs4
 BYTE   W06
 BYTE   Cn5
 BYTE   W06
 BYTE   N11  Fn5
 BYTE   W12
 BYTE   N05  Cn5
 BYTE   W06
 BYTE   Gs4
 BYTE   W06
// 024   ----------------------------------------
 BYTE   Fs4
 BYTE   W18
 BYTE   Cs5
 BYTE   W06
 BYTE   N17  Fn5
 BYTE   W18
 BYTE   N05  Fs5
 BYTE   W06
 BYTE   Gn5
 BYTE   W06
 BYTE   As5
 BYTE   W06
 BYTE   Cs5
 BYTE   W06
 BYTE   Fn5
 BYTE   W06
 BYTE   As4
 BYTE   W06
 BYTE   Cs5
 BYTE   W06
 BYTE   Gn4
 BYTE   W06
 BYTE   As4
 BYTE   W06
// 025   ----------------------------------------
 BYTE   Cn4
 BYTE   W06
 BYTE   Cs4
 BYTE   W06
 BYTE   Ds4
 BYTE   W06
 BYTE   Cs4
 BYTE   W06
 BYTE   Cn4
 BYTE   W06
 BYTE   Gn3
 BYTE   W06
 BYTE   En4
 BYTE   W06
 BYTE   Gn4
 BYTE   W06
 BYTE   Fn5
 BYTE   W06
 BYTE   Gs4
 BYTE   W06
 BYTE   Cn5
 BYTE   W06
 BYTE   N17  Fn5
 BYTE   W18
 BYTE   N05  Gs4
 BYTE   W06
 BYTE   Cn5
 BYTE   W06
// 026   ----------------------------------------
 BYTE   Fs4
 BYTE   W06
 BYTE   As4
 BYTE   W12
 BYTE   Cs5
 BYTE   W06
 BYTE   N17  Fn5
 BYTE   W18
 BYTE   N05  Fs5
 BYTE   W06
 BYTE   Gn5
 BYTE   W06
 BYTE   As5
 BYTE   W06
 BYTE   Cs5
 BYTE   W06
 BYTE   Fn5
 BYTE   W06
 BYTE   As4
 BYTE   W06
 BYTE   Cs5
 BYTE   W06
 BYTE   Gn4
 BYTE   W06
 BYTE   As4
 BYTE   W06
// 027   ----------------------------------------
 BYTE   Fn4
 BYTE   W06
 BYTE   Gn4
 BYTE   W06
 BYTE   Cn4
 BYTE   W06
 BYTE   Fn4
 BYTE   W06
 BYTE   As3
 BYTE   W06
 BYTE   Cn4
 BYTE   W06
 BYTE   Fn4
 BYTE   W06
 BYTE   Gn4
 BYTE   W06
 BYTE   As4
 BYTE   W06
 BYTE   Cs5
 BYTE   W06
 BYTE   En5
 BYTE   W06
 BYTE   Gn5
 BYTE   W06
 BYTE   N11  As5
 BYTE   W12
 BYTE   PAN   c_v-32
 BYTE   N11  As5  v084
 BYTE   W12
// 028   ----------------------------------------
 BYTE   PAN   c_v+32
 BYTE   N11  As5  v060
 BYTE   W12
 BYTE   PAN   c_v-32
 BYTE   N11  As5  v048
 BYTE   W12
 BYTE   PAN   c_v+32
 BYTE   N11  As5  v032
 BYTE   W12
 BYTE   PAN   c_v-32
 BYTE   N11  As5  v020
 BYTE   W12
 BYTE   TEMPO   136*PokemonDPPtMountCoronetDolkar_tbs/2
 BYTE   VOL   56*PokemonDPPtMountCoronetDolkar_mvl/mxv
 BYTE   W09
 BYTE   N84  Cs5  v112
 BYTE   W36
 BYTE   TEMPO   128*PokemonDPPtMountCoronetDolkar_tbs/2
 BYTE   W03
// 029   ----------------------------------------
 BYTE   W48
 BYTE   TEMPO   118*PokemonDPPtMountCoronetDolkar_tbs/2
 BYTE   W09
 BYTE   Gn4
 BYTE   W36
 BYTE   W03
// 030   ----------------------------------------
 BYTE   W48
 BYTE   TEMPO   108*PokemonDPPtMountCoronetDolkar_tbs/2
 BYTE   W24
 BYTE   N68  As3
 BYTE   W24
// 031   ----------------------------------------
 BYTE   W48
 BYTE   TEMPO   98*PokemonDPPtMountCoronetDolkar_tbs/2
 BYTE   N44  Cs4
 BYTE   W48
// 032   ----------------------------------------
 BYTE   TEMPO   40*PokemonDPPtMountCoronetDolkar_tbs/2
 BYTE   N23  En4
 BYTE   W21
 BYTE   TEMPO   68*PokemonDPPtMountCoronetDolkar_tbs/2
 BYTE   W03
 BYTE   En3
 BYTE   W24
 BYTE   TEMPO   98*PokemonDPPtMountCoronetDolkar_tbs/2
 BYTE   Gn3
 BYTE   W24
 BYTE   Cs4
 BYTE   W24
// 033   ----------------------------------------
 BYTE   TEMPO   108*PokemonDPPtMountCoronetDolkar_tbs/2
 BYTE   Gn4
 BYTE   W24
 BYTE   Cs5
 BYTE   W24
 BYTE   As4
 BYTE   W24
 BYTE   TEMPO   80*PokemonDPPtMountCoronetDolkar_tbs/2
 BYTE   Gn4
 BYTE   W24
// 034   ----------------------------------------
 BYTE   TEMPO   50*PokemonDPPtMountCoronetDolkar_tbs/2
 BYTE   En4
 BYTE   W24
 BYTE   TEMPO   118*PokemonDPPtMountCoronetDolkar_tbs/2
 BYTE   N05  Gs5
 BYTE   W06
 BYTE   Dn5  v104
 BYTE   W06
 BYTE   Gs4  v100
 BYTE   W06
 BYTE   Dn4  v096
 BYTE   W06
 BYTE   TEMPO   156*PokemonDPPtMountCoronetDolkar_tbs/2
 BYTE   VOL   64*PokemonDPPtMountCoronetDolkar_mvl/mxv
 BYTE   N68  Cs4  v112
 BYTE   W48
// 035   ----------------------------------------
 BYTE   W24
 BYTE   VOICE   2
 BYTE   N23  Dn4  v080
 BYTE   W24
 BYTE   Dn4  v044
 BYTE   W24
 BYTE   Dn4  v092
 BYTE   W24
// 036   ----------------------------------------
 BYTE   N11  Dn4  v048
 BYTE   W12
 BYTE   N23  Dn4  v112
 BYTE   W24
 BYTE   N11  Dn4  v060
 BYTE   W11
 BYTE   GoTo
  POIN2 Label_0_0188884A
 BYTE   FINE

//**************** Track 2 (Midi-Chn.1) ****************//

PokemonDPPtMountCoronetDolkar_002:
// 000   ----------------------------------------
 BYTE   KEYSH   PokemonDPPtMountCoronetDolkar_key+0
Label_1_01888BE2:
 BYTE   VOICE   2
 BYTE   PAN   c_v+33
 BYTE   VOL   61*PokemonDPPtMountCoronetDolkar_mvl/mxv
 BYTE   BEND   c_v+0
 BYTE   W24
 BYTE   W03
 BYTE   N20  Cn4  v112
 BYTE   W21
 BYTE   N23  Cn4  v060
 BYTE   W24
 BYTE   W03
 BYTE   N20  Cn4  v112
 BYTE   W21
// 001   ----------------------------------------
Label_1_01888BF9:
 BYTE   N11  Cn4  v060
 BYTE   W15
 BYTE   N20  Cn4  v112
 BYTE   W21
 BYTE   N23  Cn4  v060
 BYTE   W24
 BYTE   W03
 BYTE   N32  Cn4  v112
 BYTE   W32
 BYTE   W01
 BYTE   PEND 
// 002   ----------------------------------------
Label_1_01888C0C:
 BYTE   N23  Cn4  v060
 BYTE   W24
 BYTE   W03
 BYTE   N20  Cn4  v112
 BYTE   W21
 BYTE   N23  Cn4  v060
 BYTE   W24
 BYTE   W03
 BYTE   N20  As3  v112
 BYTE   W21
 BYTE   PEND 
// 003   ----------------------------------------
Label_1_01888C1F:
 BYTE   N11  As3  v060
 BYTE   W15
 BYTE   N20  As3  v112
 BYTE   W21
 BYTE   N23  As3  v060
 BYTE   W24
 BYTE   W03
 BYTE   N32  As3  v112
 BYTE   W32
 BYTE   W01
 BYTE   PEND 
// 004   ----------------------------------------
Label_1_01888C32:
 BYTE   N23  As3  v060
 BYTE   W24
 BYTE   W03
 BYTE   N20  As3  v112
 BYTE   W21
 BYTE   N23  As3  v060
 BYTE   W24
 BYTE   W03
 BYTE   N20  Cn4  v112
 BYTE   W21
 BYTE   PEND 
 BYTE   PATT
  POIN2 Label_1_01888BF9
 BYTE   PATT
  POIN2 Label_1_01888C0C
 BYTE   PATT
  POIN2 Label_1_01888C1F
 BYTE   PATT
  POIN2 Label_1_01888C32
 BYTE   PATT
  POIN2 Label_1_01888BF9
 BYTE   PATT
  POIN2 Label_1_01888C0C
 BYTE   PATT
  POIN2 Label_1_01888C1F
 BYTE   PATT
  POIN2 Label_1_01888C32
 BYTE   PATT
  POIN2 Label_1_01888BF9
 BYTE   PATT
  POIN2 Label_1_01888C0C
 BYTE   PATT
  POIN2 Label_1_01888C1F
 BYTE   PATT
  POIN2 Label_1_01888C32
 BYTE   PATT
  POIN2 Label_1_01888BF9
 BYTE   PATT
  POIN2 Label_1_01888C0C
 BYTE   PATT
  POIN2 Label_1_01888C1F
// 005   ----------------------------------------
 BYTE   N23  As3  v060
 BYTE   W24
 BYTE   W03
 BYTE   N20  As3  v112
 BYTE   W21
 BYTE   VOICE   2
 BYTE   PAN   c_v+48
 BYTE   N23  As3  v060
 BYTE   W24
 BYTE   W03
 BYTE   N20  Cn3  v112
 BYTE   W21
// 006   ----------------------------------------
 BYTE   N11  Cn3  v060
 BYTE   W15
 BYTE   N20  Cn3  v112
 BYTE   W21
 BYTE   N23  Cn3  v060
 BYTE   W24
 BYTE   W03
 BYTE   N20  Cn3  v112
 BYTE   W21
 BYTE   N11  Cn3  v060
 BYTE   W12
// 007   ----------------------------------------
 BYTE   W03
 BYTE   N08  Cn3  v112
 BYTE   W09
 BYTE   N11  Cn3  v060
 BYTE   W15
 BYTE   N20  Cn3  v112
 BYTE   W21
 BYTE   N23  Cn3  v060
 BYTE   W24
 BYTE   W03
 BYTE   N20  As2  v112
 BYTE   W21
// 008   ----------------------------------------
 BYTE   N11  As2  v060
 BYTE   W12
 BYTE   Fn3  v112
 BYTE   W12
 BYTE   N08  As2
 BYTE   W24
 BYTE   N08
 BYTE   W15
 BYTE   N32
 BYTE   W32
 BYTE   W01
// 009   ----------------------------------------
 BYTE   N23  As2  v060
 BYTE   W24
 BYTE   W03
 BYTE   N20  As2  v112
 BYTE   W21
 BYTE   N23  As2  v060
 BYTE   W48
// 010   ----------------------------------------
 BYTE   W60
 BYTE   W03
 BYTE   N32  Cn3  v112
 BYTE   W32
 BYTE   W01
// 011   ----------------------------------------
 BYTE   N23  Cn3  v060
 BYTE   W24
 BYTE   W03
 BYTE   N20  Cn3  v112
 BYTE   W21
 BYTE   N23  Cn3  v060
 BYTE   W24
 BYTE   W03
 BYTE   N20  As2  v112
 BYTE   W21
// 012   ----------------------------------------
 BYTE   N11  As2  v060
 BYTE   W15
 BYTE   N20  As2  v112
 BYTE   W21
 BYTE   N23  As2  v060
 BYTE   W24
 BYTE   W03
 BYTE   N32  As2  v112
 BYTE   W32
 BYTE   W01
// 013   ----------------------------------------
 BYTE   N23  As2  v060
 BYTE   W24
 BYTE   W03
 BYTE   N20  As2  v112
 BYTE   W21
 BYTE   N23  As2  v060
 BYTE   W24
 BYTE   Gs3  v112
 BYTE   W24
// 014   ----------------------------------------
 BYTE   N11  Fn3
 BYTE   W12
 BYTE   Cn3
 BYTE   W12
 BYTE   Gs3
 BYTE   W12
 BYTE   Gs3  v060
 BYTE   W12
 BYTE   As3  v112
 BYTE   W12
 BYTE   Gs3
 BYTE   W12
 BYTE   Gs3  v060
 BYTE   W12
 BYTE   Cn4  v112
 BYTE   W12
// 015   ----------------------------------------
 BYTE   Cn4  v060
 BYTE   W12
 BYTE   Gs3  v112
 BYTE   W15
 BYTE   N20  Cn3
 BYTE   W21
 BYTE   N23  Cn3  v060
 BYTE   W24
 BYTE   W03
 BYTE   N20  As2  v112
 BYTE   W21
// 016   ----------------------------------------
 BYTE   N11  As2  v060
 BYTE   W15
 BYTE   N20  As2  v112
 BYTE   W21
 BYTE   N23  As2  v060
 BYTE   W24
 BYTE   N11  Gn3  v112
 BYTE   W12
 BYTE   Ds3
 BYTE   W12
 BYTE   Cn3
 BYTE   W12
// 017   ----------------------------------------
 BYTE   Ds3
 BYTE   W12
 BYTE   Cn3
 BYTE   W15
 BYTE   N20  As2
 BYTE   W21
 BYTE   N23  As2  v060
 BYTE   W24
 BYTE   W03
 BYTE   N20  Cn3  v112
 BYTE   W21
// 018   ----------------------------------------
 BYTE   N11  Cn3  v060
 BYTE   W15
 BYTE   N20  Cn3  v112
 BYTE   W21
 BYTE   N23  Cn3  v060
 BYTE   W24
 BYTE   W03
 BYTE   N32  Cn3  v112
 BYTE   W32
 BYTE   W01
// 019   ----------------------------------------
 BYTE   N11  Cn3  v060
 BYTE   W15
 BYTE   N32  Cn3  v112
 BYTE   W32
 BYTE   W01
 BYTE   VOICE   48
 BYTE   VOL   18*PokemonDPPtMountCoronetDolkar_mvl/mxv
 BYTE   TIE  Cn4
 BYTE   W02
 BYTE   VOL   22*PokemonDPPtMountCoronetDolkar_mvl/mxv
 BYTE   W03
 BYTE   BnM1
 BYTE   W03
 BYTE   Dn0
 BYTE   W03
 BYTE   En0
 BYTE   W03
 BYTE   Gn0
 BYTE   W03
 BYTE   Gs0
 BYTE   W03
 BYTE   Bn0
 BYTE   W03
 BYTE   Cs1
 BYTE   W03
 BYTE   Ds1
 BYTE   W03
 BYTE   Fs1
 BYTE   W03
 BYTE   Gn1
 BYTE   W06
 BYTE   As1
 BYTE   W03
 BYTE   Cs2
 BYTE   W03
 BYTE   En2
 BYTE   W03
 BYTE   Fs2
 BYTE   W01
// 020   ----------------------------------------
Label_1_01888DB4:
 BYTE   W02
 BYTE   VOL   57*PokemonDPPtMountCoronetDolkar_mvl/mxv
 BYTE   W06
 BYTE   Cn3
 BYTE   W04
 BYTE   Fs2
 BYTE   W03
 BYTE   Gs2
 BYTE   W04
 BYTE   Cn3
 BYTE   W04
 BYTE   Fn3
 BYTE   W04
 BYTE   As3
 BYTE   W04
 BYTE   Gn4
 BYTE   W04
 BYTE   Gs4
 BYTE   W04
 BYTE   Gn4
 BYTE   W04
 BYTE   Dn4
 BYTE   W04
 BYTE   Gn3
 BYTE   W04
 BYTE   Cn3
 BYTE   W04
 BYTE   An2
 BYTE   W04
 BYTE   Fs2
 BYTE   W04
 BYTE   Ds2
 BYTE   W04
 BYTE   Cs2
 BYTE   W04
 BYTE   As1
 BYTE   W04
 BYTE   An1
 BYTE   W08
 BYTE   Fs1
 BYTE   W04
 BYTE   En1
 BYTE   W04
 BYTE   Cs1
 BYTE   W05
 BYTE   PEND 
// 021   ----------------------------------------
Label_1_01888DE3:
 BYTE   W03
 BYTE   VOL   34*PokemonDPPtMountCoronetDolkar_mvl/mxv
 BYTE   W04
 BYTE   Gs0
 BYTE   W04
 BYTE   Fn0
 BYTE   W04
 BYTE   Cs0
 BYTE   W04
 BYTE   AsM1
 BYTE   W04
 BYTE   GsM1
 BYTE   W04
 BYTE   FsM1
 BYTE   W04
 BYTE   FnM1
 BYTE   W04
 BYTE   EnM1
 BYTE   W12
 BYTE   PEND 
 BYTE   EOT
 BYTE   Cn4
 BYTE   W01
 BYTE   VOICE   48
 BYTE   VOL   18*PokemonDPPtMountCoronetDolkar_mvl/mxv
 BYTE   TIE  Cn4  v112
 BYTE   W02
 BYTE   VOL   22*PokemonDPPtMountCoronetDolkar_mvl/mxv
 BYTE   W03
 BYTE   BnM1
 BYTE   W03
 BYTE   Dn0
 BYTE   W03
 BYTE   En0
 BYTE   W03
 BYTE   Gn0
 BYTE   W03
 BYTE   Gs0
 BYTE   W03
 BYTE   Bn0
 BYTE   W03
 BYTE   Cs1
 BYTE   W03
 BYTE   Ds1
 BYTE   W03
 BYTE   Fs1
 BYTE   W03
 BYTE   Gn1
 BYTE   W06
 BYTE   As1
 BYTE   W03
 BYTE   Cs2
 BYTE   W03
 BYTE   En2
 BYTE   W03
 BYTE   Fs2
 BYTE   W01
 BYTE   PATT
  POIN2 Label_1_01888DB4
 BYTE   PATT
  POIN2 Label_1_01888DE3
// 022   ----------------------------------------
 BYTE   EOT
 BYTE   Cn4
 BYTE   W01
 BYTE   VOL   59*PokemonDPPtMountCoronetDolkar_mvl/mxv
 BYTE   N44  Cn4  v112
 BYTE   W48
Label_1_01888E35:
 BYTE   N05  Fs2  v112
 BYTE   W06
 BYTE   As2
 BYTE   W06
 BYTE   Cs3
 BYTE   W06
 BYTE   N28  Fs3
 BYTE   W30
// 023   ----------------------------------------
 BYTE   N44  Gn3
 BYTE   W48
 BYTE   PEND 
 BYTE   N05  Cn3
 BYTE   W06
 BYTE   As3
 BYTE   W06
 BYTE   Fn3
 BYTE   W06
 BYTE   Gn3
 BYTE   W06
 BYTE   Cn3
 BYTE   W06
 BYTE   Cn4
 BYTE   W06
 BYTE   As3
 BYTE   W06
 BYTE   Gn3
 BYTE   W06
// 024   ----------------------------------------
 BYTE   VOL   59*PokemonDPPtMountCoronetDolkar_mvl/mxv
 BYTE   N44  Cn4
 BYTE   W48
 BYTE   PATT
  POIN2 Label_1_01888E35
// 025   ----------------------------------------
 BYTE   N05  Cn3  v112
 BYTE   W06
 BYTE   As3
 BYTE   W06
 BYTE   Fn3
 BYTE   W06
 BYTE   Gn3
 BYTE   W06
 BYTE   Cn3
 BYTE   W06
 BYTE   Cn4
 BYTE   W06
 BYTE   As3
 BYTE   W06
 BYTE   Gn3
 BYTE   W54
// 026   ----------------------------------------
 BYTE   W48
 BYTE   VOICE   46
 BYTE   N88  Gn5
 BYTE   W48
// 027   ----------------------------------------
 BYTE   W48
 BYTE   N80  En5
 BYTE   W48
// 028   ----------------------------------------
 BYTE   W48
 BYTE   N64  As4
 BYTE   W48
// 029   ----------------------------------------
 BYTE   W96
// 030   ----------------------------------------
 BYTE   W48
 BYTE   PAN   c_v+29
 BYTE   W12
 BYTE   N23  As3
 BYTE   W24
 BYTE   En4
 BYTE   W12
// 031   ----------------------------------------
 BYTE   W12
 BYTE   As4
 BYTE   W24
 BYTE   En5
 BYTE   W24
 BYTE   Cs5
 BYTE   W24
 BYTE   As4
 BYTE   W12
// 032   ----------------------------------------
 BYTE   W12
 BYTE   Gn4
 BYTE   W15
 BYTE   N05  Fn5  v104
 BYTE   W06
 BYTE   Bn4
 BYTE   W06
 BYTE   Fn4  v096
 BYTE   W06
 BYTE   Bn3  v092
 BYTE   W03
 BYTE   PAN   c_v+48
 BYTE   W48
// 033   ----------------------------------------
 BYTE   W24
 BYTE   VOICE   2
 BYTE   VOL   59*PokemonDPPtMountCoronetDolkar_mvl/mxv
 BYTE   W03
 BYTE   N20  Cn4  v080
 BYTE   W21
 BYTE   N23  Cn4  v044
 BYTE   W24
 BYTE   W03
 BYTE   N20  Cn4  v092
 BYTE   W21
// 034   ----------------------------------------
 BYTE   N11  Cn4  v044
 BYTE   W15
 BYTE   N20  Cn4  v112
 BYTE   W21
 BYTE   N11  Cn4  v060
 BYTE   W11
 BYTE   GoTo
  POIN2 Label_1_01888BE2
 BYTE   FINE

//**************** Track 3 (Midi-Chn.2) ****************//

PokemonDPPtMountCoronetDolkar_003:
// 000   ----------------------------------------
 BYTE   KEYSH   PokemonDPPtMountCoronetDolkar_key+0
Label_2_01888ECE:
 BYTE   VOICE   2
 BYTE   VOL   40*PokemonDPPtMountCoronetDolkar_mvl/mxv
 BYTE   PAN   c_v+30
 BYTE   BEND   c_v+0
 BYTE   W24
 BYTE   N23  Gs3  v112
 BYTE   W24
 BYTE   N21  Gs3  v060
 BYTE   W21
 BYTE   N02  Gs3  v112
 BYTE   W24
 BYTE   W03
// 001   ----------------------------------------
Label_2_01888EE4:
 BYTE   W09
 BYTE   N24  Gs3  v112
 BYTE   W48
 BYTE   N36
 BYTE   W36
 BYTE   W03
 BYTE   PEND 
// 002   ----------------------------------------
Label_2_01888EED:
 BYTE   W21
 BYTE   N24  Gs3  v112
 BYTE   W48
 BYTE   Fs3
 BYTE   W24
 BYTE   W03
 BYTE   PEND 
// 003   ----------------------------------------
Label_2_01888EF6:
 BYTE   W09
 BYTE   N24  Fs3  v112
 BYTE   W48
 BYTE   N36
 BYTE   W36
 BYTE   W03
 BYTE   PEND 
// 004   ----------------------------------------
Label_2_01888EFF:
 BYTE   W21
 BYTE   N24  Fs3  v112
 BYTE   W48
 BYTE   Gs3
 BYTE   W24
 BYTE   W03
 BYTE   PEND 
 BYTE   PATT
  POIN2 Label_2_01888EE4
 BYTE   PATT
  POIN2 Label_2_01888EED
 BYTE   PATT
  POIN2 Label_2_01888EF6
 BYTE   PATT
  POIN2 Label_2_01888EFF
 BYTE   PATT
  POIN2 Label_2_01888EE4
 BYTE   PATT
  POIN2 Label_2_01888EED
 BYTE   PATT
  POIN2 Label_2_01888EF6
 BYTE   PATT
  POIN2 Label_2_01888EFF
 BYTE   PATT
  POIN2 Label_2_01888EE4
 BYTE   PATT
  POIN2 Label_2_01888EED
 BYTE   PATT
  POIN2 Label_2_01888EF6
 BYTE   PATT
  POIN2 Label_2_01888EFF
 BYTE   PATT
  POIN2 Label_2_01888EE4
 BYTE   PATT
  POIN2 Label_2_01888EED
 BYTE   PATT
  POIN2 Label_2_01888EF6
// 005   ----------------------------------------
 BYTE   W21
 BYTE   N24  Fs3  v112
 BYTE   W24
 BYTE   W03
 BYTE   VOICE   2
 BYTE   VOL   53*PokemonDPPtMountCoronetDolkar_mvl/mxv
 BYTE   PAN   c_v-17
 BYTE   W21
 BYTE   N24  Fn2
 BYTE   W24
 BYTE   W03
// 006   ----------------------------------------
 BYTE   W09
 BYTE   Gs2
 BYTE   W48
 BYTE   N24
 BYTE   W36
 BYTE   W03
// 007   ----------------------------------------
 BYTE   N11
 BYTE   W24
 BYTE   N23
 BYTE   W44
 BYTE   W01
 BYTE   N24  Fs2
 BYTE   W24
 BYTE   W03
// 008   ----------------------------------------
Label_2_01888F73:
 BYTE   W09
 BYTE   N24  Fs2  v112
 BYTE   W48
 BYTE   N36
 BYTE   W36
 BYTE   W03
 BYTE   PEND 
// 009   ----------------------------------------
 BYTE   W21
 BYTE   N24
 BYTE   W48
 BYTE   W03
 BYTE   N11  Gn1
 BYTE   W12
 BYTE   Fn1
 BYTE   W12
// 010   ----------------------------------------
 BYTE   N56  Cn1
 BYTE   W56
 BYTE   W01
 BYTE   N36  Gs2
 BYTE   W36
 BYTE   W03
// 011   ----------------------------------------
Label_2_01888F8D:
 BYTE   W21
 BYTE   N24  Gs2  v112
 BYTE   W48
 BYTE   Fs2
 BYTE   W24
 BYTE   W03
 BYTE   PEND 
 BYTE   PATT
  POIN2 Label_2_01888F73
// 012   ----------------------------------------
Label_2_01888F9B:
 BYTE   W21
 BYTE   N24  Fs2  v112
 BYTE   W48
 BYTE   Gs2
 BYTE   W24
 BYTE   W03
 BYTE   PEND 
// 013   ----------------------------------------
Label_2_01888FA4:
 BYTE   W09
 BYTE   N24  Gs2  v112
 BYTE   W48
 BYTE   N36
 BYTE   W36
 BYTE   W03
 BYTE   PEND 
 BYTE   PATT
  POIN2 Label_2_01888F8D
 BYTE   PATT
  POIN2 Label_2_01888F73
 BYTE   PATT
  POIN2 Label_2_01888F9B
 BYTE   PATT
  POIN2 Label_2_01888FA4
// 014   ----------------------------------------
 BYTE   W09
 BYTE   N36  Gs2  v112
 BYTE   W36
 BYTE   W03
 BYTE   VOICE   48
 BYTE   VOL   18*PokemonDPPtMountCoronetDolkar_mvl/mxv
 BYTE   TIE  Gn3
 BYTE   W02
 BYTE   VOL   22*PokemonDPPtMountCoronetDolkar_mvl/mxv
 BYTE   W03
 BYTE   BnM1
 BYTE   W03
 BYTE   Dn0
 BYTE   W03
 BYTE   En0
 BYTE   W03
 BYTE   Gn0
 BYTE   W03
 BYTE   Gs0
 BYTE   W03
 BYTE   Bn0
 BYTE   W03
 BYTE   Cs1
 BYTE   W03
 BYTE   Ds1
 BYTE   W03
 BYTE   Fs1
 BYTE   W03
 BYTE   Gn1
 BYTE   W06
 BYTE   As1
 BYTE   W03
 BYTE   Cs2
 BYTE   W03
 BYTE   En2
 BYTE   W03
 BYTE   Fs2
 BYTE   W01
// 015   ----------------------------------------
Label_2_01888FED:
 BYTE   W02
 BYTE   VOL   57*PokemonDPPtMountCoronetDolkar_mvl/mxv
 BYTE   W06
 BYTE   Gs2
 BYTE   W03
 BYTE   An2
 BYTE   W04
 BYTE   Dn3
 BYTE   W04
 BYTE   Fn3
 BYTE   W04
 BYTE   Dn4
 BYTE   W04
 BYTE   Ds4
 BYTE   W08
 BYTE   Dn4
 BYTE   W04
 BYTE   As3
 BYTE   W04
 BYTE   Gn3
 BYTE   W04
 BYTE   Fn3
 BYTE   W04
 BYTE   Cn3
 BYTE   W04
 BYTE   Bn2
 BYTE   W04
 BYTE   Gs2
 BYTE   W08
 BYTE   En2
 BYTE   W04
 BYTE   Ds2
 BYTE   W04
 BYTE   Cn2
 BYTE   W04
 BYTE   As1
 BYTE   W04
 BYTE   Fs1
 BYTE   W04
 BYTE   Bn0
 BYTE   W04
 BYTE   As0
 BYTE   W04
 BYTE   Gn0
 BYTE   W01
 BYTE   PEND 
// 016   ----------------------------------------
Label_2_0188901C:
 BYTE   W03
 BYTE   VOL   26*PokemonDPPtMountCoronetDolkar_mvl/mxv
 BYTE   W04
 BYTE   Cs0
 BYTE   W04
 BYTE   BnM1
 BYTE   W04
 BYTE   AsM1
 BYTE   W04
 BYTE   FsM1
 BYTE   W04
 BYTE   FnM1
 BYTE   W04
 BYTE   EnM1
 BYTE   W04
 BYTE   DnM1
 BYTE   W08
 BYTE   CsM1
 BYTE   W08
 BYTE   PEND 
 BYTE   EOT
 BYTE   Gn3
 BYTE   W01
 BYTE   VOICE   48
 BYTE   VOL   18*PokemonDPPtMountCoronetDolkar_mvl/mxv
 BYTE   TIE  Gn3  v112
 BYTE   W02
 BYTE   VOL   22*PokemonDPPtMountCoronetDolkar_mvl/mxv
 BYTE   W03
 BYTE   BnM1
 BYTE   W03
 BYTE   Dn0
 BYTE   W03
 BYTE   En0
 BYTE   W03
 BYTE   Gn0
 BYTE   W03
 BYTE   Gs0
 BYTE   W03
 BYTE   Bn0
 BYTE   W03
 BYTE   Cs1
 BYTE   W03
 BYTE   Ds1
 BYTE   W03
 BYTE   Fs1
 BYTE   W03
 BYTE   Gn1
 BYTE   W06
 BYTE   As1
 BYTE   W03
 BYTE   Cs2
 BYTE   W03
 BYTE   En2
 BYTE   W03
 BYTE   Fs2
 BYTE   W01
 BYTE   PATT
  POIN2 Label_2_01888FED
 BYTE   PATT
  POIN2 Label_2_0188901C
// 017   ----------------------------------------
 BYTE   EOT
 BYTE   Gn3
 BYTE   W01
 BYTE   VOL   57*PokemonDPPtMountCoronetDolkar_mvl/mxv
 BYTE   W24
 BYTE   N23  Gs2  v112
 BYTE   W24
Label_2_0188906F:
 BYTE   W24
 BYTE   N23  As2  v112
 BYTE   W48
// 018   ----------------------------------------
 BYTE   Cn3
 BYTE   W24
 BYTE   PEND 
 BYTE   Fn3
 BYTE   W24
 BYTE   Gn3
 BYTE   W24
 BYTE   VOL   57*PokemonDPPtMountCoronetDolkar_mvl/mxv
 BYTE   W24
// 019   ----------------------------------------
 BYTE   N23  Gs2
 BYTE   W24
 BYTE   PATT
  POIN2 Label_2_0188906F
// 020   ----------------------------------------
 BYTE   N23  Fn3  v112
 BYTE   W24
 BYTE   Gn3
 BYTE   W24
 BYTE   As3
 BYTE   W24
 BYTE   N07  Gn3
 BYTE   W16
 BYTE   Gn3  v072
 BYTE   W08
// 021   ----------------------------------------
 BYTE   W08
 BYTE   Gn3  v044
 BYTE   W16
 BYTE   Gn3  v032
 BYTE   W16
 BYTE   Gn3  v024
 BYTE   W08
 BYTE   VOICE   46
 BYTE   W03
 BYTE   N88  Fn5  v112
 BYTE   W44
 BYTE   W01
// 022   ----------------------------------------
 BYTE   W48
 BYTE   W03
 BYTE   N80  Cs5
 BYTE   W44
 BYTE   W01
// 023   ----------------------------------------
 BYTE   W54
 BYTE   N64  Gn4
 BYTE   W42
// 024   ----------------------------------------
 BYTE   W96
// 025   ----------------------------------------
 BYTE   W96
// 026   ----------------------------------------
 BYTE   W96
// 027   ----------------------------------------
 BYTE   W96
// 028   ----------------------------------------
 BYTE   PAN   c_v+31
 BYTE   W24
 BYTE   VOICE   2
 BYTE   N23  Gs3  v080
 BYTE   W24
 BYTE   N20  Gs3  v044
 BYTE   W21
 BYTE   N24  Gs3  v092
 BYTE   W24
 BYTE   W03
// 029   ----------------------------------------
 BYTE   N05  Gs3  v048
 BYTE   W09
 BYTE   N24  Gs3  v112
 BYTE   W24
 BYTE   W03
 BYTE   N11  Gs3  v060
 BYTE   W11
 BYTE   GoTo
  POIN2 Label_2_01888ECE
 BYTE   FINE

//**************** Track 4 (Midi-Chn.3) ****************//

PokemonDPPtMountCoronetDolkar_004:
// 000   ----------------------------------------
 BYTE   KEYSH   PokemonDPPtMountCoronetDolkar_key+0
Label_3_018890DE:
 BYTE   VOICE   48
 BYTE   PAN   c_v+0
 BYTE   VOL   60*PokemonDPPtMountCoronetDolkar_mvl/mxv
 BYTE   BEND   c_v+0
 BYTE   W96
// 001   ----------------------------------------
 BYTE   W96
// 002   ----------------------------------------
 BYTE   W96
// 003   ----------------------------------------
 BYTE   W96
// 004   ----------------------------------------
 BYTE   W96
// 005   ----------------------------------------
 BYTE   W96
// 006   ----------------------------------------
 BYTE   W96
// 007   ----------------------------------------
 BYTE   W96
// 008   ----------------------------------------
 BYTE   W96
// 009   ----------------------------------------
 BYTE   W96
// 010   ----------------------------------------
 BYTE   W96
// 011   ----------------------------------------
 BYTE   W96
// 012   ----------------------------------------
 BYTE   W96
// 013   ----------------------------------------
 BYTE   W96
// 014   ----------------------------------------
 BYTE   W96
// 015   ----------------------------------------
 BYTE   W96
// 016   ----------------------------------------
 BYTE   W96
// 017   ----------------------------------------
 BYTE   W96
// 018   ----------------------------------------
 BYTE   W96
// 019   ----------------------------------------
 BYTE   W96
// 020   ----------------------------------------
 BYTE   W96
// 021   ----------------------------------------
 BYTE   W96
// 022   ----------------------------------------
 BYTE   W96
// 023   ----------------------------------------
 BYTE   W96
// 024   ----------------------------------------
 BYTE   W96
// 025   ----------------------------------------
 BYTE   W96
// 026   ----------------------------------------
 BYTE   W96
// 027   ----------------------------------------
 BYTE   W96
// 028   ----------------------------------------
 BYTE   W96
// 029   ----------------------------------------
 BYTE   W96
// 030   ----------------------------------------
 BYTE   W96
// 031   ----------------------------------------
 BYTE   W96
// 032   ----------------------------------------
 BYTE   W96
// 033   ----------------------------------------
 BYTE   W24
 BYTE   VOL   74*PokemonDPPtMountCoronetDolkar_mvl/mxv
 BYTE   BEND   c_v-7
 BYTE   N23  Fn1  v112
 BYTE   W02
 BYTE   BEND   c_v-12
 BYTE   W03
 BYTE   Gn1
 BYTE   W03
 BYTE   As0
 BYTE   W03
 BYTE   Fn0
 BYTE   W03
 BYTE   Cs0
 BYTE   W03
 BYTE   FnM1
 BYTE   W03
 BYTE   AsM2
 BYTE   W04
 BYTE   VOICE   38
 BYTE   VOL   74*PokemonDPPtMountCoronetDolkar_mvl/mxv
 BYTE   BEND   c_v+0
 BYTE   N09  Fn0
 BYTE   W18
 BYTE   N05
 BYTE   W18
 BYTE   N11  En1
 BYTE   W06
 BYTE   BEND   c_v+6
 BYTE   W06
// 034   ----------------------------------------
 BYTE   En3
 BYTE   W06
 BYTE   N05  Fn1
 BYTE   W06
 BYTE   Fn0
 BYTE   W12
 BYTE   Ds1
 BYTE   W06
 BYTE   Fn1
 BYTE   W06
 BYTE   As0
 BYTE   W06
 BYTE   Cn1
 BYTE   W06
 BYTE   N11  Gn0
 BYTE   W12
 BYTE   Cs1
 BYTE   W36
// 035   ----------------------------------------
 BYTE   W60
 BYTE   N05  As1
 BYTE   W06
 BYTE   Cn2
 BYTE   W06
 BYTE   N11  Gn1
 BYTE   W12
 BYTE   Dn1
 BYTE   W12
// 036   ----------------------------------------
 BYTE   Fn1
 BYTE   W12
 BYTE   N05  Cs2
 BYTE   W06
 BYTE   Dn2
 BYTE   W06
 BYTE   N23  Dn1
 BYTE   W24
 BYTE   N11  Gn0
 BYTE   W12
 BYTE   Ds1
 BYTE   W36
// 037   ----------------------------------------
 BYTE   W60
 BYTE   N05  As1
 BYTE   W06
 BYTE   Cn2
 BYTE   W06
 BYTE   N11  Gn1
 BYTE   W12
 BYTE   En1
 BYTE   W12
// 038   ----------------------------------------
 BYTE   Fn1
 BYTE   W12
 BYTE   N05  Dn2
 BYTE   W06
 BYTE   En2
 BYTE   W06
 BYTE   N23  En1
 BYTE   W24
 BYTE   VOICE   48
 BYTE   VOL   80*PokemonDPPtMountCoronetDolkar_mvl/mxv
 BYTE   W24
 BYTE   N23  Fn1  v120
 BYTE   W24
// 039   ----------------------------------------
 BYTE   W24
 BYTE   Fs1  v124
 BYTE   W48
 BYTE   VOL   61*PokemonDPPtMountCoronetDolkar_mvl/mxv
 BYTE   N32  Gn1  v127
 BYTE   W02
 BYTE   VOL   65*PokemonDPPtMountCoronetDolkar_mvl/mxv
 BYTE   W03
 BYTE   Gs3
 BYTE   W03
 BYTE   Bn3
 BYTE   W03
 BYTE   Gs4
 BYTE   W13
// 040   ----------------------------------------
 BYTE   W12
 BYTE   N11  En1  v112
 BYTE   W12
 BYTE   VOL   74*PokemonDPPtMountCoronetDolkar_mvl/mxv
 BYTE   N23  Cn1
 BYTE   W02
 BYTE   VOL   70*PokemonDPPtMountCoronetDolkar_mvl/mxv
 BYTE   W03
 BYTE   Gs3
 BYTE   W03
 BYTE   Fn3
 BYTE   W03
 BYTE   Cs3
 BYTE   W03
 BYTE   Gs2
 BYTE   W03
 BYTE   En2
 BYTE   W07
 BYTE   VOICE   48
 BYTE   VOL   80*PokemonDPPtMountCoronetDolkar_mvl/mxv
 BYTE   W24
 BYTE   N23  Fn1  v120
 BYTE   W24
// 041   ----------------------------------------
 BYTE   W24
 BYTE   Fs1  v124
 BYTE   W48
 BYTE   VOL   61*PokemonDPPtMountCoronetDolkar_mvl/mxv
 BYTE   N44  Gn1  v127
 BYTE   W02
 BYTE   VOL   65*PokemonDPPtMountCoronetDolkar_mvl/mxv
 BYTE   W03
 BYTE   Gs3
 BYTE   W03
 BYTE   Bn3
 BYTE   W03
 BYTE   Gs4
 BYTE   W13
// 042   ----------------------------------------
 BYTE   W24
 BYTE   N23  Cn1
 BYTE   W24
 BYTE   VOL   80*PokemonDPPtMountCoronetDolkar_mvl/mxv
 BYTE   W24
 BYTE   N11  Cs1  v112
 BYTE   W16
 BYTE   Cs1  v072
 BYTE   W08
// 043   ----------------------------------------
 BYTE   W08
 BYTE   Cs1  v044
 BYTE   W16
 BYTE   Cs1  v032
 BYTE   W16
 BYTE   Cs1  v024
 BYTE   W08
 BYTE   VOL   28*PokemonDPPtMountCoronetDolkar_mvl/mxv
 BYTE   N92  As4  v092
 BYTE   W02
 BYTE   VOL   28*PokemonDPPtMountCoronetDolkar_mvl/mxv
 BYTE   W09
 BYTE   Fn0
 BYTE   W06
 BYTE   Fs0
 BYTE   W03
 BYTE   Gs0
 BYTE   W03
 BYTE   As0
 BYTE   W03
 BYTE   As0
 BYTE   W03
 BYTE   Bn0
 BYTE   W03
 BYTE   Cs1
 BYTE   W03
 BYTE   Ds1
 BYTE   W03
 BYTE   En1
 BYTE   W03
 BYTE   Fs1
 BYTE   W03
 BYTE   Gn1
 BYTE   W03
 BYTE   An1
 BYTE   W01
// 044   ----------------------------------------
 BYTE   W02
 BYTE   As1
 BYTE   W03
 BYTE   Cs2
 BYTE   W03
 BYTE   En2
 BYTE   W03
 BYTE   Gs2
 BYTE   W03
 BYTE   As2
 BYTE   W03
 BYTE   Bn2
 BYTE   W03
 BYTE   Cs3
 BYTE   W03
 BYTE   Ds3
 BYTE   W03
 BYTE   Fn3
 BYTE   W03
 BYTE   Fs3
 BYTE   W03
 BYTE   Gs3
 BYTE   W03
 BYTE   An3
 BYTE   W13
 BYTE   N05  En4  v080
 BYTE   W06
 BYTE   Gn4
 BYTE   W05
 BYTE   VOL   68*PokemonDPPtMountCoronetDolkar_mvl/mxv
 BYTE   W01
 BYTE   N05  En4  v088
 BYTE   W02
 BYTE   VOL   66*PokemonDPPtMountCoronetDolkar_mvl/mxv
 BYTE   W04
 BYTE   N76  Cs4
 BYTE   W02
 BYTE   VOL   64*PokemonDPPtMountCoronetDolkar_mvl/mxv
 BYTE   W03
 BYTE   Ds3
 BYTE   W03
 BYTE   Dn3
 BYTE   W03
 BYTE   Dn3
 BYTE   W03
 BYTE   Cn3
 BYTE   W03
 BYTE   Bn2
 BYTE   W03
 BYTE   As2
 BYTE   W03
 BYTE   Gs2
 BYTE   W03
 BYTE   Gs2
 BYTE   W03
 BYTE   Gn2
 BYTE   W01
// 045   ----------------------------------------
 BYTE   W02
 BYTE   En2
 BYTE   W03
 BYTE   Dn2
 BYTE   W03
 BYTE   Cn2
 BYTE   W03
 BYTE   An1
 BYTE   W03
 BYTE   Fs1
 BYTE   W03
 BYTE   En1
 BYTE   W03
 BYTE   Ds1
 BYTE   W03
 BYTE   Cs1
 BYTE   W03
 BYTE   Bn0
 BYTE   W03
 BYTE   Gs0
 BYTE   W03
 BYTE   Fs0
 BYTE   W03
 BYTE   En0
 BYTE   W03
 BYTE   Ds0
 BYTE   W03
 BYTE   Cs0
 BYTE   W03
 BYTE   Cs0
 BYTE   W04
 BYTE   N92  Gn3  v112
 BYTE   W03
 BYTE   VOL   22*PokemonDPPtMountCoronetDolkar_mvl/mxv
 BYTE   W05
 BYTE   AsM1
 BYTE   W03
 BYTE   BnM1
 BYTE   W03
 BYTE   Cs0
 BYTE   W03
 BYTE   Cs0
 BYTE   W03
 BYTE   Dn0
 BYTE   W03
 BYTE   En0
 BYTE   W03
 BYTE   Fn0
 BYTE   W03
 BYTE   Fs0
 BYTE   W03
 BYTE   Gs0
 BYTE   W03
 BYTE   Bn0
 BYTE   W03
 BYTE   Cs1
 BYTE   W03
 BYTE   En1
 BYTE   W03
 BYTE   Fs1
 BYTE   W03
 BYTE   Gn1
 BYTE   W01
// 046   ----------------------------------------
 BYTE   W02
 BYTE   As1
 BYTE   W03
 BYTE   Cn2
 BYTE   W03
 BYTE   Cs2
 BYTE   W03
 BYTE   Dn2
 BYTE   W03
 BYTE   En2
 BYTE   W03
 BYTE   Fn2
 BYTE   W03
 BYTE   Gn2
 BYTE   W03
 BYTE   Gs2
 BYTE   W03
 BYTE   As2
 BYTE   W06
 BYTE   Cn3
 BYTE   W03
 BYTE   Dn3
 BYTE   W03
 BYTE   Ds3
 BYTE   W01
 BYTE   Dn3
 BYTE   W02
 BYTE   En3
 BYTE   W03
 BYTE   Fs3
 BYTE   W04
 BYTE   N05  En3  v084
 BYTE   W02
 BYTE   VOL   66*PokemonDPPtMountCoronetDolkar_mvl/mxv
 BYTE   W04
 BYTE   N05  Gn3  v092
 BYTE   W06
 BYTE   En3
 BYTE   W02
 BYTE   VOL   66*PokemonDPPtMountCoronetDolkar_mvl/mxv
 BYTE   W04
 BYTE   N76  Cs3  v080
 BYTE   W02
 BYTE   VOL   65*PokemonDPPtMountCoronetDolkar_mvl/mxv
 BYTE   W03
 BYTE   En3
 BYTE   W03
 BYTE   Ds3
 BYTE   W03
 BYTE   Dn3
 BYTE   W06
 BYTE   Cs3
 BYTE   W03
 BYTE   Cn3
 BYTE   W03
 BYTE   Bn2
 BYTE   W03
 BYTE   As2
 BYTE   W03
 BYTE   Gn2
 BYTE   W01
// 047   ----------------------------------------
 BYTE   W02
 BYTE   En2
 BYTE   W06
 BYTE   En2
 BYTE   W03
 BYTE   Cs2
 BYTE   W03
 BYTE   Cn2
 BYTE   W03
 BYTE   As1
 BYTE   W03
 BYTE   Gn1
 BYTE   W03
 BYTE   Fs1
 BYTE   W03
 BYTE   Cs1
 BYTE   W03
 BYTE   Bn0
 BYTE   W03
 BYTE   Gs0
 BYTE   W03
 BYTE   En0
 BYTE   W03
 BYTE   Cs0
 BYTE   W03
 BYTE   GsM1
 BYTE   W03
 BYTE   DsM1
 BYTE   W52
// 048   ----------------------------------------
 BYTE   W96
// 049   ----------------------------------------
 BYTE   BnM2
 BYTE   W05
 BYTE   CnM1
 BYTE   W09
 BYTE   DsM1
 BYTE   W06
 BYTE   EnM1
 BYTE   W06
 BYTE   FsM1
 BYTE   W06
 BYTE   GsM1
 BYTE   W03
 BYTE   AsM1
 BYTE   W06
 BYTE   BnM1
 BYTE   W03
 BYTE   Cs0
 BYTE   W03
 BYTE   Cs0
 BYTE   W01
 BYTE   TIE  Dn3  v112
 BYTE   W02
 BYTE   VOL   27*PokemonDPPtMountCoronetDolkar_mvl/mxv
 BYTE   W03
 BYTE   En0
 BYTE   W03
 BYTE   Fn0
 BYTE   W03
 BYTE   Gn0
 BYTE   W03
 BYTE   Gs0
 BYTE   W03
 BYTE   As0
 BYTE   W03
 BYTE   Cs1
 BYTE   W03
 BYTE   Cs1
 BYTE   W03
 BYTE   En1
 BYTE   W03
 BYTE   Fs1
 BYTE   W03
 BYTE   Fs1
 BYTE   W03
 BYTE   An1
 BYTE   W03
 BYTE   As1
 BYTE   W03
 BYTE   Cs2
 BYTE   W03
 BYTE   Dn2
 BYTE   W03
 BYTE   En2
 BYTE   W01
// 050   ----------------------------------------
 BYTE   W02
 BYTE   Gn2
 BYTE   W03
 BYTE   Gs2
 BYTE   W03
 BYTE   As2
 BYTE   W03
 BYTE   Bn2
 BYTE   W03
 BYTE   Cn3
 BYTE   W03
 BYTE   Cs3
 BYTE   W03
 BYTE   Dn3
 BYTE   W03
 BYTE   Dn3
 BYTE   W06
 BYTE   Ds3
 BYTE   W12
 BYTE   Dn3
 BYTE   W03
 BYTE   Dn3
 BYTE   W03
 BYTE   Cs3
 BYTE   W03
 BYTE   Bn2
 BYTE   W03
 BYTE   Bn2
 BYTE   W03
 BYTE   As2
 BYTE   W06
 BYTE   Gs2
 BYTE   W03
 BYTE   Gn2
 BYTE   W03
 BYTE   Fn2
 BYTE   W03
 BYTE   Dn2
 BYTE   W03
 BYTE   Cs2
 BYTE   W03
 BYTE   An1
 BYTE   W03
 BYTE   Fs1
 BYTE   W03
 BYTE   En1
 BYTE   W03
 BYTE   Cs1
 BYTE   W03
 BYTE   Gs0
 BYTE   W03
 BYTE   Ds0
 BYTE   W03
 BYTE   Cs0
 BYTE   W01
// 051   ----------------------------------------
 BYTE   W02
 BYTE   AsM1
 BYTE   W03
 BYTE   GnM1
 BYTE   W03
 BYTE   EnM1
 BYTE   W06
 BYTE   DsM1
 BYTE   W04
 BYTE   DsM1
 BYTE   W02
 BYTE   CsM1
 BYTE   W03
 BYTE   CnM1
 BYTE   W03
 BYTE   AsM2
 BYTE   W03
 BYTE   AnM2
 BYTE   W09
 BYTE   GsM2
 BYTE   W03
 BYTE   FsM2
 BYTE   W06
 BYTE   EOT
 BYTE   GoTo
  POIN2 Label_3_018890DE
 BYTE   FINE

//**************** Track 5 (Midi-Chn.4) ****************//

PokemonDPPtMountCoronetDolkar_005:
// 000   ----------------------------------------
 BYTE   KEYSH   PokemonDPPtMountCoronetDolkar_key+0
Label_4_01889372:
 BYTE   VOICE   2
 BYTE   VOL   57*PokemonDPPtMountCoronetDolkar_mvl/mxv
 BYTE   PAN   c_v-39
 BYTE   BEND   c_v+0
 BYTE   N32  Fn3  v112
 BYTE   W36
 BYTE   N56  Gn3
 BYTE   W60
// 001   ----------------------------------------
 BYTE   N32  Fn3
 BYTE   W36
 BYTE   N11  Gn3
 BYTE   W12
 BYTE   N32  Gn3  v060
 BYTE   W36
 BYTE   N44  Fn3  v112
 BYTE   W12
// 002   ----------------------------------------
 BYTE   W36
 BYTE   N56
 BYTE   W60
// 003   ----------------------------------------
Label_4_01889392:
 BYTE   N32  Ds3  v112
 BYTE   W36
 BYTE   N44  Fn3
 BYTE   W48
 BYTE   Ds3
 BYTE   W12
 BYTE   PEND 
// 004   ----------------------------------------
 BYTE   W36
 BYTE   N56  Gn3
 BYTE   W60
// 005   ----------------------------------------
Label_4_018893A0:
 BYTE   N32  Fn3  v112
 BYTE   W36
 BYTE   N44  Gn3
 BYTE   W48
 BYTE   Fn3
 BYTE   W12
 BYTE   PEND 
// 006   ----------------------------------------
 BYTE   W36
 BYTE   N56
 BYTE   W60
 BYTE   PATT
  POIN2 Label_4_01889392
// 007   ----------------------------------------
 BYTE   W36
 BYTE   N56  Gn3  v112
 BYTE   W60
 BYTE   PATT
  POIN2 Label_4_018893A0
// 008   ----------------------------------------
 BYTE   W36
 BYTE   N56  Fn3  v112
 BYTE   W60
 BYTE   PATT
  POIN2 Label_4_01889392
// 009   ----------------------------------------
 BYTE   W36
 BYTE   N56  Gn3  v112
 BYTE   W60
 BYTE   PATT
  POIN2 Label_4_018893A0
// 010   ----------------------------------------
 BYTE   W36
 BYTE   N56  Fn3  v112
 BYTE   W60
 BYTE   PATT
  POIN2 Label_4_01889392
// 011   ----------------------------------------
 BYTE   W36
 BYTE   N56  Gn3  v112
 BYTE   W60
 BYTE   PATT
  POIN2 Label_4_018893A0
// 012   ----------------------------------------
 BYTE   W36
 BYTE   N56  Fn3  v112
 BYTE   W60
 BYTE   PATT
  POIN2 Label_4_01889392
// 013   ----------------------------------------
 BYTE   W36
 BYTE   VOICE   2
 BYTE   N56  Gn3  v112
 BYTE   W12
 BYTE   VOL   65*PokemonDPPtMountCoronetDolkar_mvl/mxv
 BYTE   PAN   c_v-41
 BYTE   W48
// 014   ----------------------------------------
Label_4_018893FA:
 BYTE   N32  Fn2  v112
 BYTE   W36
 BYTE   N44  Gn2
 BYTE   W48
 BYTE   Fn2
 BYTE   W12
 BYTE   PEND 
// 015   ----------------------------------------
 BYTE   W36
 BYTE   N56
 BYTE   W60
// 016   ----------------------------------------
Label_4_01889407:
 BYTE   N32  Ds2  v112
 BYTE   W36
 BYTE   N44  Fn2
 BYTE   W48
 BYTE   Ds2
 BYTE   W12
 BYTE   PEND 
// 017   ----------------------------------------
 BYTE   W36
 BYTE   N56  Gn2
 BYTE   W60
 BYTE   PATT
  POIN2 Label_4_018893FA
// 018   ----------------------------------------
 BYTE   W36
 BYTE   N56  Fn2  v112
 BYTE   W60
 BYTE   PATT
  POIN2 Label_4_01889407
// 019   ----------------------------------------
 BYTE   W36
 BYTE   N56  Gn2  v112
 BYTE   W60
 BYTE   PATT
  POIN2 Label_4_018893FA
// 020   ----------------------------------------
 BYTE   W36
 BYTE   N56  Fn2  v112
 BYTE   W60
 BYTE   PATT
  POIN2 Label_4_01889407
// 021   ----------------------------------------
 BYTE   W36
 BYTE   N56  Gn2  v112
 BYTE   W60
// 022   ----------------------------------------
 BYTE   N32  Fn2
 BYTE   W36
 BYTE   N44  Gn2
 BYTE   W48
 BYTE   N32  Fn2
 BYTE   W12
// 023   ----------------------------------------
 BYTE   W48
 BYTE   VOICE   48
 BYTE   VOL   18*PokemonDPPtMountCoronetDolkar_mvl/mxv
 BYTE   TIE  Fn3
 BYTE   W02
 BYTE   VOL   22*PokemonDPPtMountCoronetDolkar_mvl/mxv
 BYTE   W03
 BYTE   BnM1
 BYTE   W03
 BYTE   Dn0
 BYTE   W03
 BYTE   En0
 BYTE   W03
 BYTE   Gn0
 BYTE   W03
 BYTE   Gs0
 BYTE   W03
 BYTE   Bn0
 BYTE   W03
 BYTE   Cs1
 BYTE   W03
 BYTE   Ds1
 BYTE   W03
 BYTE   Fs1
 BYTE   W03
 BYTE   Gn1
 BYTE   W06
 BYTE   As1
 BYTE   W03
 BYTE   Cs2
 BYTE   W03
 BYTE   En2
 BYTE   W03
 BYTE   Fs2
 BYTE   W01
// 024   ----------------------------------------
Label_4_0188946D:
 BYTE   W02
 BYTE   VOL   57*PokemonDPPtMountCoronetDolkar_mvl/mxv
 BYTE   W06
 BYTE   Gs2
 BYTE   W03
 BYTE   Bn2
 BYTE   W04
 BYTE   Dn3
 BYTE   W04
 BYTE   Gn3
 BYTE   W04
 BYTE   Dn4
 BYTE   W08
 BYTE   As3
 BYTE   W08
 BYTE   Gn3
 BYTE   W04
 BYTE   En3
 BYTE   W04
 BYTE   Dn3
 BYTE   W04
 BYTE   Bn2
 BYTE   W04
 BYTE   Gs2
 BYTE   W04
 BYTE   Fs2
 BYTE   W04
 BYTE   Ds2
 BYTE   W04
 BYTE   Cn2
 BYTE   W04
 BYTE   An1
 BYTE   W04
 BYTE   Fs1
 BYTE   W04
 BYTE   En1
 BYTE   W04
 BYTE   Cs1
 BYTE   W08
 BYTE   Bn0
 BYTE   W04
 BYTE   As0
 BYTE   W01
 BYTE   PEND 
// 025   ----------------------------------------
Label_4_0188949A:
 BYTE   W03
 BYTE   VOL   32*PokemonDPPtMountCoronetDolkar_mvl/mxv
 BYTE   W04
 BYTE   Gn0
 BYTE   W04
 BYTE   En0
 BYTE   W04
 BYTE   Dn0
 BYTE   W04
 BYTE   Cs0
 BYTE   W04
 BYTE   BnM1
 BYTE   W04
 BYTE   GsM1
 BYTE   W04
 BYTE   FsM1
 BYTE   W04
 BYTE   FnM1
 BYTE   W08
 BYTE   EnM1
 BYTE   W04
 BYTE   PEND 
 BYTE   EOT
 BYTE   Fn3
 BYTE   VOL   14*PokemonDPPtMountCoronetDolkar_mvl/mxv
 BYTE   W01
 BYTE   VOICE   48
 BYTE   VOL   18*PokemonDPPtMountCoronetDolkar_mvl/mxv
 BYTE   TIE  Fn3  v112
 BYTE   W02
 BYTE   VOL   22*PokemonDPPtMountCoronetDolkar_mvl/mxv
 BYTE   W03
 BYTE   BnM1
 BYTE   W03
 BYTE   Dn0
 BYTE   W03
 BYTE   En0
 BYTE   W03
 BYTE   Gn0
 BYTE   W03
 BYTE   Gs0
 BYTE   W03
 BYTE   Bn0
 BYTE   W03
 BYTE   Cs1
 BYTE   W03
 BYTE   Ds1
 BYTE   W03
 BYTE   Fs1
 BYTE   W03
 BYTE   Gn1
 BYTE   W06
 BYTE   As1
 BYTE   W03
 BYTE   Cs2
 BYTE   W03
 BYTE   En2
 BYTE   W03
 BYTE   Fs2
 BYTE   W01
 BYTE   PATT
  POIN2 Label_4_0188946D
 BYTE   PATT
  POIN2 Label_4_0188949A
// 026   ----------------------------------------
 BYTE   EOT
 BYTE   Fn3
 BYTE   VOL   14*PokemonDPPtMountCoronetDolkar_mvl/mxv
 BYTE   W01
 BYTE   Bn2
 BYTE   N11  Fn2  v112
 BYTE   W12
 BYTE   N05  Gs2
 BYTE   W06
 BYTE   Cn3
 BYTE   W06
 BYTE   N68  Fn3
 BYTE   W24
Label_4_018894F9:
 BYTE   W72
// 027   ----------------------------------------
 BYTE   N05  Gn2  v112
 BYTE   W06
 BYTE   Cn3
 BYTE   W06
 BYTE   Fn3
 BYTE   W06
 BYTE   Gn3
 BYTE   W06
 BYTE   PEND 
 BYTE   N23  As3
 BYTE   W24
 BYTE   Cn4
 BYTE   W24
 BYTE   VOL   59*PokemonDPPtMountCoronetDolkar_mvl/mxv
 BYTE   N11  Fn2
 BYTE   W12
 BYTE   N05  Gs2
 BYTE   W06
 BYTE   Cn3
 BYTE   W06
// 028   ----------------------------------------
 BYTE   N68  Fn3
 BYTE   W24
 BYTE   PATT
  POIN2 Label_4_018894F9
// 029   ----------------------------------------
 BYTE   N23  As3  v112
 BYTE   W24
 BYTE   Cn4
 BYTE   W24
 BYTE   Cs4
 BYTE   W48
// 030   ----------------------------------------
 BYTE   W48
 BYTE   VOICE   46
 BYTE   W06
 BYTE   N88  En5
 BYTE   W42
// 031   ----------------------------------------
 BYTE   W54
 BYTE   N80  As4
 BYTE   W42
// 032   ----------------------------------------
 BYTE   W60
 BYTE   N05  En4
 BYTE   W06
 BYTE   N56  Cs4
 BYTE   W30
// 033   ----------------------------------------
 BYTE   W96
// 034   ----------------------------------------
 BYTE   W96
// 035   ----------------------------------------
 BYTE   W96
// 036   ----------------------------------------
 BYTE   W96
// 037   ----------------------------------------
 BYTE   VOICE   2
 BYTE   N32  Fn3  v072
 BYTE   W36
 BYTE   N56  Gn3  v080
 BYTE   W60
// 038   ----------------------------------------
 BYTE   N32  Fn3  v096
 BYTE   W36
 BYTE   N11  Gn3  v112
 BYTE   W11
 BYTE   GoTo
  POIN2 Label_4_01889372
 BYTE   FINE

//**************** Track 6 (Midi-Chn.5) ****************//

PokemonDPPtMountCoronetDolkar_006:
// 000   ----------------------------------------
 BYTE   KEYSH   PokemonDPPtMountCoronetDolkar_key+0
Label_5_01889556:
 BYTE   VOICE   2
 BYTE   PAN   c_v+0
 BYTE   VOL   69*PokemonDPPtMountCoronetDolkar_mvl/mxv
 BYTE   BEND   c_v+0
 BYTE   W96
// 001   ----------------------------------------
 BYTE   W96
// 002   ----------------------------------------
 BYTE   W96
// 003   ----------------------------------------
 BYTE   W48
 BYTE   VOICE   2
 BYTE   PAN   c_v+0
 BYTE   VOL   70*PokemonDPPtMountCoronetDolkar_mvl/mxv
 BYTE   W48
// 004   ----------------------------------------
 BYTE   N05  Gn5  v096
 BYTE   W06
 BYTE   Gs5
 BYTE   W06
 BYTE   Gn5
 BYTE   W06
 BYTE   Ds5
 BYTE   W06
 BYTE   N11  Cn5
 BYTE   W12
 BYTE   As4
 BYTE   W12
 BYTE   N17  Cn5  v112
 BYTE   W18
 BYTE   PAN   c_v-32
 BYTE   N17  Cn5  v072
 BYTE   W18
 BYTE   PAN   c_v+32
 BYTE   N17  Cn5  v048
 BYTE   W12
// 005   ----------------------------------------
Label_5_01889588:
 BYTE   W06
 BYTE   PAN   c_v-32
 BYTE   N17  Cn5  v036
 BYTE   W18
 BYTE   PAN   c_v+32
 BYTE   N17  Cn5  v024
 BYTE   W72
 BYTE   PEND 
// 006   ----------------------------------------
 BYTE   W96
// 007   ----------------------------------------
 BYTE   W96
// 008   ----------------------------------------
 BYTE   W96
// 009   ----------------------------------------
 BYTE   W96
// 010   ----------------------------------------
 BYTE   VOICE   56
 BYTE   VOL   20*PokemonDPPtMountCoronetDolkar_mvl/mxv
 BYTE   N32  Cn2  v112
 BYTE   W02
 BYTE   VOL   23*PokemonDPPtMountCoronetDolkar_mvl/mxv
 BYTE   W03
 BYTE   Dn0
 BYTE   W03
 BYTE   Fn0
 BYTE   W03
 BYTE   As0
 BYTE   W03
 BYTE   Ds1
 BYTE   W03
 BYTE   Gn1
 BYTE   W03
 BYTE   Cn2
 BYTE   W03
 BYTE   Fs2
 BYTE   W03
 BYTE   Bn2
 BYTE   W03
 BYTE   En3
 BYTE   W03
 BYTE   Fn3
 BYTE   W03
 BYTE   Gn3
 BYTE   W01
 BYTE   N05
 BYTE   W12
 BYTE   Cn4
 BYTE   W12
 BYTE   Cn4  v072
 BYTE   W12
 BYTE   Cn4  v060
 BYTE   W12
 BYTE   Cn4  v048
 BYTE   W12
// 011   ----------------------------------------
 BYTE   Cn4  v032
 BYTE   W12
 BYTE   Cn4  v024
 BYTE   W36
 BYTE   VOICE   2
 BYTE   VOL   69*PokemonDPPtMountCoronetDolkar_mvl/mxv
 BYTE   PAN   c_v+0
 BYTE   W24
 BYTE   N05  Gn5  v092
 BYTE   W06
 BYTE   Gs5
 BYTE   W06
 BYTE   Gn5
 BYTE   W06
 BYTE   Fn5
 BYTE   W06
// 012   ----------------------------------------
 BYTE   Ds5
 BYTE   W06
 BYTE   Fn5
 BYTE   W06
 BYTE   N11  Cn5
 BYTE   W12
 BYTE   N05
 BYTE   W06
 BYTE   Ds5
 BYTE   W06
 BYTE   Cn5
 BYTE   W06
 BYTE   As4
 BYTE   W06
 BYTE   Gn4
 BYTE   W06
 BYTE   Fn4
 BYTE   W06
 BYTE   As4
 BYTE   W06
 BYTE   Bn4
 BYTE   W06
 BYTE   N68  Cn5
 BYTE   W24
// 013   ----------------------------------------
 BYTE   W96
// 014   ----------------------------------------
 BYTE   W96
// 015   ----------------------------------------
 BYTE   W96
// 016   ----------------------------------------
 BYTE   W96
// 017   ----------------------------------------
 BYTE   W96
// 018   ----------------------------------------
 BYTE   W96
// 019   ----------------------------------------
 BYTE   W96
// 020   ----------------------------------------
 BYTE   VOICE   2
 BYTE   PAN   c_v+0
 BYTE   N05  Gn5  v112
 BYTE   W06
 BYTE   Gs5
 BYTE   W06
 BYTE   Gn5
 BYTE   W06
 BYTE   Ds5
 BYTE   W06
 BYTE   VOICE   48
 BYTE   N11  Cn5
 BYTE   W12
 BYTE   As4
 BYTE   W12
 BYTE   N17  Cn5
 BYTE   W18
 BYTE   PAN   c_v-32
 BYTE   N17  Cn5  v072
 BYTE   W18
 BYTE   PAN   c_v+32
 BYTE   N17  Cn5  v048
 BYTE   W12
 BYTE   PATT
  POIN2 Label_5_01889588
// 021   ----------------------------------------
 BYTE   W96
// 022   ----------------------------------------
 BYTE   W96
// 023   ----------------------------------------
 BYTE   W48
 BYTE   VOICE   57
 BYTE   W48
// 024   ----------------------------------------
 BYTE   PAN   c_v+32
 BYTE   VOL   72*PokemonDPPtMountCoronetDolkar_mvl/mxv
 BYTE   N05  Dn3  v088
 BYTE   W18
 BYTE   Cn3  v112
 BYTE   W06
 BYTE   N32  En3  v092
 BYTE   W36
 BYTE   N56  Dn3  v112
 BYTE   W36
// 025   ----------------------------------------
 BYTE   VOL   65*PokemonDPPtMountCoronetDolkar_mvl/mxv
 BYTE   W02
 BYTE   Dn3
 BYTE   W03
 BYTE   As2
 BYTE   W03
 BYTE   Gn2
 BYTE   W03
 BYTE   Fn2
 BYTE   W03
 BYTE   Dn2
 BYTE   W03
 BYTE   Cn2
 BYTE   W03
 BYTE   An1
 BYTE   W03
 BYTE   Fn1
 BYTE   W01
 BYTE   VOICE   56
 BYTE   VOL   74*PokemonDPPtMountCoronetDolkar_mvl/mxv
 BYTE   N02  Dn4
 BYTE   W06
 BYTE   N02
 BYTE   W06
 BYTE   N02
 BYTE   W06
 BYTE   N02
 BYTE   W06
 BYTE   Cs4
 BYTE   W12
 BYTE   N05  Dn4
 BYTE   W36
// 026   ----------------------------------------
 BYTE   VOL   15*PokemonDPPtMountCoronetDolkar_mvl/mxv
 BYTE   N44  Cn4
 BYTE   W02
 BYTE   VOL   21*PokemonDPPtMountCoronetDolkar_mvl/mxv
 BYTE   W03
 BYTE   Ds0
 BYTE   W03
 BYTE   Bn0
 BYTE   W03
 BYTE   Ds1
 BYTE   W03
 BYTE   An1
 BYTE   W03
 BYTE   Dn2
 BYTE   W03
 BYTE   Gs2
 BYTE   W03
 BYTE   Cn3
 BYTE   W03
 BYTE   Gn3
 BYTE   W03
 BYTE   Dn4
 BYTE   W03
 BYTE   Fs4
 BYTE   W16
 BYTE   N02  As3
 BYTE   W12
 BYTE   N05  Cn4
 BYTE   W36
// 027   ----------------------------------------
 BYTE   VOICE   2
 BYTE   VOL   70*PokemonDPPtMountCoronetDolkar_mvl/mxv
 BYTE   PAN   c_v+0
 BYTE   N05  Gn5  v096
 BYTE   W06
 BYTE   Gs5  v092
 BYTE   W06
 BYTE   Gn5
 BYTE   W06
 BYTE   Ds5
 BYTE   W06
 BYTE   VOICE   48
 BYTE   PAN   c_v+44
 BYTE   N05  Cn5  v088
 BYTE   W06
 BYTE   PAN   c_v+23
 BYTE   N05  As4
 BYTE   W06
 BYTE   PAN   c_v-14
 BYTE   N05  Gs4
 BYTE   W06
 BYTE   PAN   c_v-33
 BYTE   N05  Gn4
 BYTE   W06
 BYTE   VOICE   46
 BYTE   VOL   59*PokemonDPPtMountCoronetDolkar_mvl/mxv
 BYTE   PAN   c_v-17
 BYTE   N05  Cn4  v112
 BYTE   W06
 BYTE   Fn4
 BYTE   W06
 BYTE   Cn5
 BYTE   W06
 BYTE   Fn5
 BYTE   W06
 BYTE   N17  Gs5
 BYTE   W18
 BYTE   Gs5  v096
 BYTE   W06
// 028   ----------------------------------------
 BYTE   W12
 BYTE   Gs5  v084
 BYTE   W18
 BYTE   Gs5  v072
 BYTE   W18
 BYTE   PAN   c_v+35
 BYTE   W48
// 029   ----------------------------------------
 BYTE   W96
// 030   ----------------------------------------
 BYTE   W96
// 031   ----------------------------------------
 BYTE   W96
// 032   ----------------------------------------
 BYTE   W96
// 033   ----------------------------------------
 BYTE   W48
 BYTE   VOICE   56
 BYTE   VOL   67*PokemonDPPtMountCoronetDolkar_mvl/mxv
 BYTE   N05  Cn5  v112
 BYTE   W24
 BYTE   N02  Cn5  v108
 BYTE   W06
 BYTE   Cn5  v088
 BYTE   W06
 BYTE   N02
 BYTE   W06
 BYTE   Cn5  v084
 BYTE   W06
// 034   ----------------------------------------
 BYTE   N03  Cn5  v112
 BYTE   W16
 BYTE   N03
 BYTE   W08
 BYTE   N03
 BYTE   W08
 BYTE   N03
 BYTE   W08
 BYTE   N03
 BYTE   W20
 BYTE   N05  Fn4
 BYTE   W06
 BYTE   Gn4
 BYTE   W18
 BYTE   As4
 BYTE   W06
 BYTE   Cn5
 BYTE   W06
// 035   ----------------------------------------
 BYTE   W12
 BYTE   N05
 BYTE   W06
 BYTE   Dn5
 BYTE   W30
 BYTE   N02  Cn5  v108
 BYTE   W06
 BYTE   Cn5  v088
 BYTE   W06
 BYTE   N02
 BYTE   W06
 BYTE   Cn5  v084
 BYTE   W06
 BYTE   N03  Cn5  v112
 BYTE   W16
 BYTE   N03
 BYTE   W08
// 036   ----------------------------------------
 BYTE   N03
 BYTE   W08
 BYTE   N03
 BYTE   W08
 BYTE   N03
 BYTE   W08
 BYTE   N03
 BYTE   W16
 BYTE   N03
 BYTE   W20
 BYTE   N05
 BYTE   W06
 BYTE   En5
 BYTE   W06
 BYTE   Cn5
 BYTE   W06
 BYTE   As4
 BYTE   W06
 BYTE   Gn4
 BYTE   W06
 BYTE   En4
 BYTE   W06
// 037   ----------------------------------------
 BYTE   N03  As4
 BYTE   W08
 BYTE   N03
 BYTE   W08
 BYTE   N03
 BYTE   W08
 BYTE   Cn5
 BYTE   W16
 BYTE   N03
 BYTE   W56
// 038   ----------------------------------------
 BYTE   W96
// 039   ----------------------------------------
 BYTE   W96
// 040   ----------------------------------------
 BYTE   W96
// 041   ----------------------------------------
 BYTE   W72
 BYTE   N07  As4
 BYTE   W16
 BYTE   As4  v072
 BYTE   W08
// 042   ----------------------------------------
 BYTE   W08
 BYTE   As4  v044
 BYTE   W16
 BYTE   As4  v032
 BYTE   W16
 BYTE   As4  v024
 BYTE   W56
// 043   ----------------------------------------
 BYTE   W96
// 044   ----------------------------------------
 BYTE   W96
// 045   ----------------------------------------
 BYTE   W96
// 046   ----------------------------------------
 BYTE   W96
// 047   ----------------------------------------
 BYTE   W96
// 048   ----------------------------------------
 BYTE   W96
// 049   ----------------------------------------
 BYTE   W96
// 050   ----------------------------------------
 BYTE   W44
 BYTE   W03
 BYTE   GoTo
  POIN2 Label_5_01889556
 BYTE   FINE

//**************** Track 7 (Midi-Chn.6) ****************//

PokemonDPPtMountCoronetDolkar_007:
// 000   ----------------------------------------
 BYTE   KEYSH   PokemonDPPtMountCoronetDolkar_key+0
Label_6_0188975E:
 BYTE   VOICE   48
 BYTE   PAN   c_v+0
 BYTE   VOL   58*PokemonDPPtMountCoronetDolkar_mvl/mxv
 BYTE   BEND   c_v+0
 BYTE   W96
// 001   ----------------------------------------
 BYTE   W96
// 002   ----------------------------------------
 BYTE   W96
// 003   ----------------------------------------
 BYTE   W96
// 004   ----------------------------------------
 BYTE   W48
 BYTE   VOICE   48
 BYTE   W48
// 005   ----------------------------------------
 BYTE   VOL   60*PokemonDPPtMountCoronetDolkar_mvl/mxv
 BYTE   W24
 BYTE   N11  Fn1  v112
 BYTE   W12
 BYTE   Cn2
 BYTE   W12
 BYTE   Gn2
 BYTE   W12
 BYTE   Cn2
 BYTE   W12
 BYTE   Fn2
 BYTE   W12
 BYTE   As2
 BYTE   W12
// 006   ----------------------------------------
 BYTE   Gs2
 BYTE   W12
 BYTE   N02  Gn2
 BYTE   W03
 BYTE   Gs2
 BYTE   W03
 BYTE   N17  Gn2
 BYTE   W18
 BYTE   N11  Fn2
 BYTE   W12
 BYTE   En2
 BYTE   W12
 BYTE   N15  Ds2
 BYTE   W16
 BYTE   Fn2
 BYTE   W16
 BYTE   As2
 BYTE   W04
// 007   ----------------------------------------
 BYTE   W12
 BYTE   Cn2
 BYTE   W16
 BYTE   Ds2
 BYTE   W16
 BYTE   Fn2
 BYTE   W16
 BYTE   As1
 BYTE   W16
 BYTE   Cn2
 BYTE   W16
 BYTE   Ds2
 BYTE   W04
// 008   ----------------------------------------
 BYTE   W12
 BYTE   N23  Gs1
 BYTE   W24
 BYTE   N11  As1
 BYTE   W12
 BYTE   PAN   c_v+0
 BYTE   N05  Fn1
 BYTE   W06
 BYTE   Ds1
 BYTE   W06
 BYTE   N11  Cn1
 BYTE   W12
 BYTE   Cn1  v092
 BYTE   W12
 BYTE   Cn1  v064
 BYTE   W12
// 009   ----------------------------------------
 BYTE   PAN   c_v-32
 BYTE   N11  Cn1  v060
 BYTE   W12
 BYTE   Cn1  v052
 BYTE   W12
 BYTE   PAN   c_v+32
 BYTE   N11  Cn1  v040
 BYTE   W12
 BYTE   Cn1  v032
 BYTE   W12
 BYTE   PAN   c_v-32
 BYTE   N11  Cn1  v024
 BYTE   W24
 BYTE   PAN   c_v+32
 BYTE   W24
// 010   ----------------------------------------
 BYTE   Gs0
 BYTE   W24
 BYTE   Cn6
 BYTE   W24
 BYTE   Gs0
 BYTE   W48
// 011   ----------------------------------------
 BYTE   W96
// 012   ----------------------------------------
 BYTE   W24
 BYTE   En3
 BYTE   W12
 BYTE   N11  Ds2  v112
 BYTE   W12
 BYTE   PAN   c_v+0
 BYTE   VOL   8*PokemonDPPtMountCoronetDolkar_mvl/mxv
 BYTE   N11  En2
 BYTE   W02
 BYTE   VOL   11*PokemonDPPtMountCoronetDolkar_mvl/mxv
 BYTE   W03
 BYTE   FsM1
 BYTE   W03
 BYTE   Cs0
 BYTE   W04
 BYTE   En0
 BYTE   N56  Fn2
 BYTE   W02
 BYTE   VOL   35*PokemonDPPtMountCoronetDolkar_mvl/mxv
 BYTE   W03
 BYTE   En1
 BYTE   W03
 BYTE   Cn2
 BYTE   W04
 BYTE   Dn2
 BYTE   W02
 BYTE   Gn2
 BYTE   W03
 BYTE   Bn2
 BYTE   W03
 BYTE   Dn3
 BYTE   W04
 BYTE   Fs3
 BYTE   W02
 BYTE   Gs3
 BYTE   W03
 BYTE   An3
 BYTE   W01
 BYTE   Dn4
 BYTE   W02
 BYTE   Gn2
 BYTE   W01
 BYTE   Gn4
 BYTE   W03
// 013   ----------------------------------------
 BYTE   W12
 BYTE   Bn2
 BYTE   W12
 BYTE   N11  Gs2
 BYTE   W12
 BYTE   Gn2
 BYTE   W12
 BYTE   Fn2
 BYTE   W12
 BYTE   N05  Gs2
 BYTE   W06
 BYTE   Gn2
 BYTE   W06
 BYTE   N11  Cn2
 BYTE   W12
 BYTE   Fn2
 BYTE   W12
// 014   ----------------------------------------
 BYTE   Cn3
 BYTE   W12
 BYTE   As2
 BYTE   W12
 BYTE   N32  Gs2
 BYTE   W36
 BYTE   N11  As2
 BYTE   W12
 BYTE   N32  Fn2
 BYTE   W24
// 015   ----------------------------------------
 BYTE   W12
 BYTE   N11  Gs2
 BYTE   W12
 BYTE   N32  Ds2
 BYTE   W24
 BYTE   VOL   60*PokemonDPPtMountCoronetDolkar_mvl/mxv
 BYTE   W12
 BYTE   N05  Fn2
 BYTE   W06
 BYTE   Ds2
 BYTE   W06
 BYTE   N32  As1
 BYTE   W24
// 016   ----------------------------------------
 BYTE   W12
 BYTE   N11  Cn2
 BYTE   W12
 BYTE   N23  Gs1
 BYTE   W24
 BYTE   N11  Gn1
 BYTE   W12
 BYTE   Fs1
 BYTE   W12
 BYTE   N23  Fn1
 BYTE   W24
// 017   ----------------------------------------
 BYTE   N11  Gn1
 BYTE   W12
 BYTE   TIE  Dn1
 BYTE   W56
 BYTE   W01
 BYTE   VOL   58*PokemonDPPtMountCoronetDolkar_mvl/mxv
 BYTE   W02
 BYTE   An2
 BYTE   W03
 BYTE   Gn2
 BYTE   W03
 BYTE   Fn2
 BYTE   W03
 BYTE   En2
 BYTE   W03
 BYTE   Dn2
 BYTE   W03
 BYTE   Cs2
 BYTE   W03
 BYTE   Cn2
 BYTE   W03
 BYTE   An1
 BYTE   W03
 BYTE   An1
 BYTE   W01
// 018   ----------------------------------------
 BYTE   W02
 BYTE   Fn1
 BYTE   W03
 BYTE   En1
 BYTE   W03
 BYTE   Bn0
 BYTE   W06
 BYTE   Gs0
 BYTE   W03
 BYTE   Gn0
 BYTE   W03
 BYTE   Fs0
 BYTE   W03
 BYTE   Ds0
 BYTE   W03
 BYTE   BnM1
 BYTE   W03
 BYTE   GsM1
 BYTE   W03
 BYTE   DsM1
 BYTE   W03
 BYTE   CsM1
 BYTE   W03
 BYTE   BnM2
 BYTE   W03
 BYTE   AnM2
 BYTE   W06
 BYTE   EOT
 BYTE   W01
 BYTE   VOL   60*PokemonDPPtMountCoronetDolkar_mvl/mxv
 BYTE   W48
// 019   ----------------------------------------
 BYTE   W96
// 020   ----------------------------------------
 BYTE   W96
// 021   ----------------------------------------
 BYTE   As3
 BYTE   W18
 BYTE   N11  Fn1
 BYTE   W12
 BYTE   Cn2
 BYTE   W12
 BYTE   Gn2
 BYTE   W12
 BYTE   Cn2
 BYTE   W12
 BYTE   Fn2
 BYTE   W12
 BYTE   As2
 BYTE   W12
 BYTE   Gs2
 BYTE   W06
// 022   ----------------------------------------
 BYTE   W06
 BYTE   N02  Gn2
 BYTE   W03
 BYTE   Gs2
 BYTE   W03
 BYTE   N14  Gn2
 BYTE   W18
 BYTE   N23  Fn2
 BYTE   W24
 BYTE   N15  Ds2
 BYTE   W16
 BYTE   Fn2
 BYTE   W16
 BYTE   As2
 BYTE   W10
// 023   ----------------------------------------
 BYTE   W06
 BYTE   Cn2
 BYTE   W16
 BYTE   Ds2
 BYTE   W16
 BYTE   Gs2
 BYTE   W16
 BYTE   As1
 BYTE   W16
 BYTE   Cn2
 BYTE   W16
 BYTE   Ds2
 BYTE   W10
// 024   ----------------------------------------
 BYTE   W06
 BYTE   N11  Gn2
 BYTE   W24
 BYTE   N02  En2
 BYTE   W03
 BYTE   N14  Fn2
 BYTE   W15
 BYTE   N05  Fn3
 BYTE   W06
 BYTE   Gn3
 BYTE   W06
 BYTE   Ds3
 BYTE   W06
 BYTE   Cn3
 BYTE   W06
 BYTE   N11  Gn2
 BYTE   W12
 BYTE   Fn2
 BYTE   W12
// 025   ----------------------------------------
 BYTE   N44  Cn2
 BYTE   W96
// 026   ----------------------------------------
 BYTE   W96
// 027   ----------------------------------------
 BYTE   W96
// 028   ----------------------------------------
 BYTE   W24
 BYTE   N05
 BYTE   W06
 BYTE   As1
 BYTE   W06
 BYTE   Gs1
 BYTE   W06
 BYTE   Gn1
 BYTE   W06
 BYTE   VOL   62*PokemonDPPtMountCoronetDolkar_mvl/mxv
 BYTE   W48
// 029   ----------------------------------------
 BYTE   W18
 BYTE   N11  Fn2
 BYTE   W12
 BYTE   Cn3
 BYTE   W12
 BYTE   Gn3
 BYTE   W12
 BYTE   Cn3
 BYTE   W12
 BYTE   Fn3
 BYTE   W12
 BYTE   As3
 BYTE   W12
 BYTE   Gs3
 BYTE   W06
// 030   ----------------------------------------
 BYTE   W06
 BYTE   Cn4
 BYTE   W12
 BYTE   N05  Bn3
 BYTE   W06
 BYTE   As3
 BYTE   W06
 BYTE   N23  Gs3
 BYTE   W24
 BYTE   N32  Gn3
 BYTE   W36
 BYTE   N05  Fs3
 BYTE   W06
// 031   ----------------------------------------
 BYTE   Fn3
 BYTE   W06
 BYTE   N23  Ds3
 BYTE   W24
 BYTE   N11  Fn3
 BYTE   W12
 BYTE   N23  Gs3
 BYTE   W24
 BYTE   N11  As3
 BYTE   W24
 BYTE   Ds4
 BYTE   W06
// 032   ----------------------------------------
 BYTE   W06
 BYTE   N23  As3
 BYTE   W24
 BYTE   N11  Cn4
 BYTE   W12
 BYTE   Cs4
 BYTE   W12
 BYTE   As3
 BYTE   W12
 BYTE   N76  Cn4
 BYTE   W03
 BYTE   VOL   66*PokemonDPPtMountCoronetDolkar_mvl/mxv
 BYTE   W02
 BYTE   Bn2
 BYTE   W03
 BYTE   Gn2
 BYTE   W03
 BYTE   Dn2
 BYTE   W03
 BYTE   An1
 BYTE   W06
 BYTE   Cn2
 BYTE   W03
 BYTE   Cs2
 BYTE   W03
 BYTE   Dn2
 BYTE   W03
 BYTE   Fn2
 BYTE   W01
// 033   ----------------------------------------
 BYTE   W02
 BYTE   Gn2
 BYTE   W03
 BYTE   An2
 BYTE   W03
 BYTE   Cn3
 BYTE   W03
 BYTE   Dn3
 BYTE   W03
 BYTE   Fs3
 BYTE   W03
 BYTE   An3
 BYTE   W03
 BYTE   Ds4
 BYTE   W03
 BYTE   Gs4
 BYTE   W72
 BYTE   W01
// 034   ----------------------------------------
 BYTE   W96
// 035   ----------------------------------------
 BYTE   W96
// 036   ----------------------------------------
 BYTE   W96
// 037   ----------------------------------------
 BYTE   W96
// 038   ----------------------------------------
 BYTE   W48
 BYTE   VOICE   2
 BYTE   PAN   c_v-24
 BYTE   VOL   80*PokemonDPPtMountCoronetDolkar_mvl/mxv
 BYTE   N05  Fn3
 BYTE   W06
 BYTE   Fn2
 BYTE   W06
 BYTE   Gs2
 BYTE   W06
 BYTE   Cn3
 BYTE   W06
 BYTE   N11  Fn3
 BYTE   W12
 BYTE   N05  Cn3
 BYTE   W06
 BYTE   Gs2
 BYTE   W06
// 039   ----------------------------------------
 BYTE   Fs2
 BYTE   W18
 BYTE   Cs3
 BYTE   W06
 BYTE   N17  Fn3
 BYTE   W18
 BYTE   N05  Fs3
 BYTE   W06
 BYTE   Gn3
 BYTE   W06
 BYTE   As3
 BYTE   W06
 BYTE   Cs3
 BYTE   W06
 BYTE   Fn3
 BYTE   W06
 BYTE   As2
 BYTE   W06
 BYTE   Cs3
 BYTE   W06
 BYTE   Gn2
 BYTE   W06
 BYTE   As2
 BYTE   W06
// 040   ----------------------------------------
 BYTE   Cn2
 BYTE   W06
 BYTE   Cs2
 BYTE   W06
 BYTE   Ds2
 BYTE   W06
 BYTE   Cs2
 BYTE   W06
 BYTE   Cn2
 BYTE   W06
 BYTE   Gn1
 BYTE   W06
 BYTE   En2
 BYTE   W06
 BYTE   Gn2
 BYTE   W06
 BYTE   VOICE   2
 BYTE   PAN   c_v-24
 BYTE   N05  Fn3
 BYTE   W06
 BYTE   Gs2
 BYTE   W06
 BYTE   Cn3
 BYTE   W06
 BYTE   N17  Fn3
 BYTE   W18
 BYTE   N05  Gs2
 BYTE   W06
 BYTE   Cn3
 BYTE   W06
// 041   ----------------------------------------
 BYTE   Fs2
 BYTE   W06
 BYTE   As2
 BYTE   W12
 BYTE   Cs3
 BYTE   W06
 BYTE   N17  Fn3
 BYTE   W18
 BYTE   N05  Fs3
 BYTE   W06
 BYTE   Gn3
 BYTE   W06
 BYTE   As3
 BYTE   W06
 BYTE   Cs3
 BYTE   W06
 BYTE   Fn3
 BYTE   W06
 BYTE   As2
 BYTE   W06
 BYTE   Cs3
 BYTE   W06
 BYTE   Gn2
 BYTE   W06
 BYTE   As2
 BYTE   W06
// 042   ----------------------------------------
 BYTE   Fn2
 BYTE   W06
 BYTE   Gn2
 BYTE   W06
 BYTE   Cn2
 BYTE   W06
 BYTE   Fn2
 BYTE   W06
 BYTE   As1
 BYTE   W06
 BYTE   Cn2
 BYTE   W06
 BYTE   Fn2
 BYTE   W06
 BYTE   Gn2
 BYTE   W06
 BYTE   As2
 BYTE   W06
 BYTE   Cs3
 BYTE   W06
 BYTE   En3
 BYTE   W06
 BYTE   Gn3
 BYTE   W06
 BYTE   N11  As3
 BYTE   W12
 BYTE   As3  v084
 BYTE   W12
// 043   ----------------------------------------
 BYTE   As3  v060
 BYTE   W12
 BYTE   As3  v048
 BYTE   W12
 BYTE   As3  v032
 BYTE   W12
 BYTE   As3  v020
 BYTE   W12
 BYTE   VOL   39*PokemonDPPtMountCoronetDolkar_mvl/mxv
 BYTE   PAN   c_v+0
 BYTE   N02  Gn5  v112
 BYTE   W03
 BYTE   Fn5
 BYTE   W03
 BYTE   En5
 BYTE   W03
 BYTE   N84  Cs5
 BYTE   W36
 BYTE   W03
// 044   ----------------------------------------
 BYTE   W48
 BYTE   N02  En5
 BYTE   W03
 BYTE   Cs5
 BYTE   W03
 BYTE   As4
 BYTE   W03
 BYTE   N84  Gn4
 BYTE   W36
 BYTE   W03
// 045   ----------------------------------------
 BYTE   W48
 BYTE   N05  As4
 BYTE   W06
 BYTE   Gn4
 BYTE   W06
 BYTE   En4
 BYTE   W06
 BYTE   Cs4
 BYTE   W06
 BYTE   N68  As3
 BYTE   W24
// 046   ----------------------------------------
 BYTE   W48
 BYTE   N44  Cs4
 BYTE   W48
// 047   ----------------------------------------
 BYTE   N23  En4
 BYTE   W24
 BYTE   En3
 BYTE   W24
 BYTE   N11  Gn3
 BYTE   W12
 BYTE   As3
 BYTE   W12
 BYTE   Cs4
 BYTE   W12
 BYTE   En4
 BYTE   W12
// 048   ----------------------------------------
 BYTE   Gn4
 BYTE   W12
 BYTE   As4
 BYTE   W12
 BYTE   Cs5
 BYTE   W12
 BYTE   En5
 BYTE   W12
 BYTE   As4
 BYTE   W12
 BYTE   Cs5
 BYTE   W12
 BYTE   Gn4
 BYTE   W12
 BYTE   As4
 BYTE   W12
// 049   ----------------------------------------
 BYTE   En4
 BYTE   W12
 BYTE   Gn4
 BYTE   W12
 BYTE   N02  Gs5
 BYTE   W03
 BYTE   Fn5  v104
 BYTE   W03
 BYTE   Dn5
 BYTE   W03
 BYTE   Bn4
 BYTE   W03
 BYTE   Gs4  v100
 BYTE   W03
 BYTE   Fn4  v096
 BYTE   W03
 BYTE   Dn4
 BYTE   W03
 BYTE   Bn3  v092
 BYTE   W03
 BYTE   N23  Cs4  v112
 BYTE   W24
 BYTE   PAN   c_v-32
 BYTE   N23  Cs4  v088
 BYTE   W24
// 050   ----------------------------------------
 BYTE   PAN   c_v+32
 BYTE   N23  Cs4  v064
 BYTE   W24
 BYTE   PAN   c_v-32
 BYTE   N23  Cs4  v044
 BYTE   W24
 BYTE   PAN   c_v+32
 BYTE   N23  Cs4  v032
 BYTE   W24
 BYTE   PAN   c_v-32
 BYTE   N23  Cs4  v024
 BYTE   W24
// 051   ----------------------------------------
 BYTE   PAN   c_v+0
 BYTE   W44
 BYTE   W03
 BYTE   GoTo
  POIN2 Label_6_0188975E
 BYTE   FINE

//**************** Track 8 (Midi-Chn.7) ****************//

PokemonDPPtMountCoronetDolkar_008:
// 000   ----------------------------------------
 BYTE   KEYSH   PokemonDPPtMountCoronetDolkar_key+0
Label_7_01889A7E:
 BYTE   VOICE   57
 BYTE   VOL   69*PokemonDPPtMountCoronetDolkar_mvl/mxv
 BYTE   PAN   c_v-22
 BYTE   BEND   c_v+0
 BYTE   W96
// 001   ----------------------------------------
 BYTE   W96
// 002   ----------------------------------------
 BYTE   W96
// 003   ----------------------------------------
 BYTE   W96
// 004   ----------------------------------------
 BYTE   W48
 BYTE   VOICE   47
 BYTE   PAN   c_v-21
 BYTE   VOL   69*PokemonDPPtMountCoronetDolkar_mvl/mxv
 BYTE   W48
// 005   ----------------------------------------
 BYTE   W96
// 006   ----------------------------------------
 BYTE   W96
// 007   ----------------------------------------
 BYTE   W96
// 008   ----------------------------------------
 BYTE   W48
 BYTE   VOICE   47
 BYTE   PAN   c_v+0
 BYTE   N05  Fn1  v127
 BYTE   W06
 BYTE   Ds1
 BYTE   W06
 BYTE   N11  Cn1
 BYTE   W12
 BYTE   PAN   c_v-32
 BYTE   N11  Cn1  v092
 BYTE   W12
 BYTE   PAN   c_v+30
 BYTE   N11  Cn1  v068
 BYTE   W12
// 009   ----------------------------------------
 BYTE   PAN   c_v-32
 BYTE   N11  Cn1  v060
 BYTE   W12
 BYTE   PAN   c_v+30
 BYTE   N11  Cn1  v052
 BYTE   W12
 BYTE   PAN   c_v-32
 BYTE   N11  Cn1  v048
 BYTE   W12
 BYTE   PAN   c_v+30
 BYTE   N11  Cn1  v036
 BYTE   W12
 BYTE   PAN   c_v-32
 BYTE   N11  Cn1  v028
 BYTE   W48
// 010   ----------------------------------------
 BYTE   W24
 BYTE   PAN   c_v+3
 BYTE   W12
 BYTE   N05  Cn2  v112
 BYTE   W12
 BYTE   PAN   c_v-32
 BYTE   N24  Cn1
 BYTE   W48
// 011   ----------------------------------------
 BYTE   W96
// 012   ----------------------------------------
 BYTE   W24
 BYTE   VOICE   2
 BYTE   W24
 BYTE   PAN   c_v+0
 BYTE   W48
// 013   ----------------------------------------
 BYTE   W96
// 014   ----------------------------------------
 BYTE   W96
// 015   ----------------------------------------
 BYTE   W96
// 016   ----------------------------------------
 BYTE   W96
// 017   ----------------------------------------
 BYTE   W96
// 018   ----------------------------------------
 BYTE   W96
// 019   ----------------------------------------
 BYTE   W96
// 020   ----------------------------------------
 BYTE   W24
 BYTE   N11  Cn2
 BYTE   W12
 BYTE   As1
 BYTE   W12
 BYTE   VOICE   47
 BYTE   N23  Fn1
 BYTE   W48
// 021   ----------------------------------------
 BYTE   W96
// 022   ----------------------------------------
 BYTE   W96
// 023   ----------------------------------------
 BYTE   W96
// 024   ----------------------------------------
 BYTE   W44
 BYTE   W01
 BYTE   PAN   c_v+0
 BYTE   W03
 BYTE   VOICE   47
 BYTE   PAN   c_v+0
 BYTE   N05  Fn2
 BYTE   W06
 BYTE   Gn2
 BYTE   W06
 BYTE   Ds2
 BYTE   W06
 BYTE   Cn2
 BYTE   W06
 BYTE   N11  Gn1
 BYTE   W12
 BYTE   Fn1
 BYTE   W12
// 025   ----------------------------------------
 BYTE   N44  Cn1
 BYTE   W96
// 026   ----------------------------------------
 BYTE   N23  Cn2
 BYTE   W24
 BYTE   N44  Fn1
 BYTE   W72
// 027   ----------------------------------------
 BYTE   N05  As1
 BYTE   W06
 BYTE   N05
 BYTE   W06
 BYTE   N11
 BYTE   W12
 BYTE   N44  Ds1
 BYTE   W72
// 028   ----------------------------------------
 BYTE   W24
 BYTE   N05  Cn2
 BYTE   W06
 BYTE   N05
 BYTE   W06
 BYTE   N05
 BYTE   W06
 BYTE   N05
 BYTE   W06
 BYTE   N44  Dn1
 BYTE   W48
// 029   ----------------------------------------
 BYTE   W96
// 030   ----------------------------------------
 BYTE   W96
// 031   ----------------------------------------
 BYTE   W96
// 032   ----------------------------------------
 BYTE   W96
// 033   ----------------------------------------
 BYTE   W96
// 034   ----------------------------------------
 BYTE   W96
// 035   ----------------------------------------
 BYTE   W96
// 036   ----------------------------------------
 BYTE   W96
// 037   ----------------------------------------
 BYTE   W96
// 038   ----------------------------------------
Label_7_01889B37:
 BYTE   W48
 BYTE   VOL   80*PokemonDPPtMountCoronetDolkar_mvl/mxv
 BYTE   N05  Fn2  v112
 BYTE   W06
 BYTE   N05
 BYTE   W06
 BYTE   N32  Fn1
 BYTE   W36
 BYTE   PEND 
// 039   ----------------------------------------
Label_7_01889B44:
 BYTE   W24
 BYTE   N23  Fs1  v112
 BYTE   W48
 BYTE   N44  Gn1
 BYTE   W24
 BYTE   PEND 
 BYTE   PATT
  POIN2 Label_7_01889B37
 BYTE   PATT
  POIN2 Label_7_01889B44
// 040   ----------------------------------------
 BYTE   W60
 BYTE   N05  Cs2  v112
 BYTE   W06
 BYTE   N05
 BYTE   W06
 BYTE   N44  Cs1
 BYTE   W24
// 041   ----------------------------------------
 BYTE   W48
 BYTE   VOICE   48
 BYTE   VOL   28*PokemonDPPtMountCoronetDolkar_mvl/mxv
 BYTE   PAN   c_v+30
 BYTE   N92  Gn4  v080
 BYTE   W02
 BYTE   VOL   28*PokemonDPPtMountCoronetDolkar_mvl/mxv
 BYTE   W09
 BYTE   Fn0
 BYTE   W06
 BYTE   Fs0
 BYTE   W03
 BYTE   Gs0
 BYTE   W03
 BYTE   As0
 BYTE   W03
 BYTE   As0
 BYTE   W03
 BYTE   Bn0
 BYTE   W03
 BYTE   Cs1
 BYTE   W03
 BYTE   Ds1
 BYTE   W03
 BYTE   En1
 BYTE   W03
 BYTE   Fs1
 BYTE   W03
 BYTE   Gn1
 BYTE   W03
 BYTE   An1
 BYTE   W01
// 042   ----------------------------------------
 BYTE   W02
 BYTE   As1
 BYTE   W03
 BYTE   Cs2
 BYTE   W03
 BYTE   En2
 BYTE   W03
 BYTE   Gs2
 BYTE   W03
 BYTE   As2
 BYTE   W03
 BYTE   Bn2
 BYTE   W03
 BYTE   Cs3
 BYTE   W03
 BYTE   Ds3
 BYTE   W03
 BYTE   Fn3
 BYTE   W03
 BYTE   Fs3
 BYTE   W03
 BYTE   Gs3
 BYTE   W03
 BYTE   An3
 BYTE   W13
 BYTE   N05  Cs4
 BYTE   W06
 BYTE   En4
 BYTE   W05
 BYTE   VOL   68*PokemonDPPtMountCoronetDolkar_mvl/mxv
 BYTE   W01
 BYTE   N05  Cs4
 BYTE   W02
 BYTE   VOL   66*PokemonDPPtMountCoronetDolkar_mvl/mxv
 BYTE   W04
 BYTE   N76  As3
 BYTE   W02
 BYTE   VOL   64*PokemonDPPtMountCoronetDolkar_mvl/mxv
 BYTE   W03
 BYTE   Ds3
 BYTE   W03
 BYTE   Dn3
 BYTE   W03
 BYTE   Dn3
 BYTE   W03
 BYTE   Cn3
 BYTE   W03
 BYTE   Bn2
 BYTE   W03
 BYTE   As2
 BYTE   W03
 BYTE   Gs2
 BYTE   W03
 BYTE   Gs2
 BYTE   W03
 BYTE   Gn2
 BYTE   W01
// 043   ----------------------------------------
 BYTE   W02
 BYTE   En2
 BYTE   W03
 BYTE   Dn2
 BYTE   W03
 BYTE   Cn2
 BYTE   W03
 BYTE   An1
 BYTE   W03
 BYTE   Fs1
 BYTE   W03
 BYTE   En1
 BYTE   W03
 BYTE   Ds1
 BYTE   W03
 BYTE   Cs1
 BYTE   W03
 BYTE   Bn0
 BYTE   W03
 BYTE   Gs0
 BYTE   W03
 BYTE   Fs0
 BYTE   W03
 BYTE   En0
 BYTE   W03
 BYTE   Ds0
 BYTE   W03
 BYTE   Cs0
 BYTE   W03
 BYTE   Cs0
 BYTE   W04
 BYTE   N92  En3
 BYTE   W03
 BYTE   VOL   22*PokemonDPPtMountCoronetDolkar_mvl/mxv
 BYTE   W05
 BYTE   AsM1
 BYTE   W03
 BYTE   BnM1
 BYTE   W03
 BYTE   Cs0
 BYTE   W03
 BYTE   Cs0
 BYTE   W03
 BYTE   Dn0
 BYTE   W03
 BYTE   En0
 BYTE   W03
 BYTE   Fn0
 BYTE   W03
 BYTE   Fs0
 BYTE   W03
 BYTE   Gs0
 BYTE   W03
 BYTE   Bn0
 BYTE   W03
 BYTE   Cs1
 BYTE   W03
 BYTE   En1
 BYTE   W03
 BYTE   Fs1
 BYTE   W03
 BYTE   Gn1
 BYTE   W01
// 044   ----------------------------------------
 BYTE   W02
 BYTE   As1
 BYTE   W03
 BYTE   Cn2
 BYTE   W03
 BYTE   Cs2
 BYTE   W03
 BYTE   Dn2
 BYTE   W03
 BYTE   En2
 BYTE   W03
 BYTE   Fn2
 BYTE   W03
 BYTE   Gn2
 BYTE   W03
 BYTE   Gs2
 BYTE   W03
 BYTE   As2
 BYTE   W06
 BYTE   Cn3
 BYTE   W03
 BYTE   Dn3
 BYTE   W03
 BYTE   Ds3
 BYTE   W01
 BYTE   Dn3
 BYTE   W02
 BYTE   En3
 BYTE   W03
 BYTE   Fs3
 BYTE   W04
 BYTE   N05  Cs3
 BYTE   W02
 BYTE   VOL   66*PokemonDPPtMountCoronetDolkar_mvl/mxv
 BYTE   W04
 BYTE   N05  En3
 BYTE   W06
 BYTE   Cs3
 BYTE   W02
 BYTE   VOL   66*PokemonDPPtMountCoronetDolkar_mvl/mxv
 BYTE   W04
 BYTE   N76  As2
 BYTE   W02
 BYTE   VOL   65*PokemonDPPtMountCoronetDolkar_mvl/mxv
 BYTE   W03
 BYTE   En3
 BYTE   W03
 BYTE   Ds3
 BYTE   W03
 BYTE   Dn3
 BYTE   W06
 BYTE   Cs3
 BYTE   W03
 BYTE   Cn3
 BYTE   W03
 BYTE   Bn2
 BYTE   W03
 BYTE   As2
 BYTE   W03
 BYTE   Gn2
 BYTE   W01
// 045   ----------------------------------------
 BYTE   W02
 BYTE   En2
 BYTE   W06
 BYTE   En2
 BYTE   W03
 BYTE   Cs2
 BYTE   W03
 BYTE   Cn2
 BYTE   W03
 BYTE   As1
 BYTE   W03
 BYTE   Gn1
 BYTE   W03
 BYTE   Fs1
 BYTE   W03
 BYTE   Cs1
 BYTE   W03
 BYTE   Bn0
 BYTE   W03
 BYTE   Gs0
 BYTE   W03
 BYTE   En0
 BYTE   W03
 BYTE   Cs0
 BYTE   W03
 BYTE   GsM1
 BYTE   W03
 BYTE   DsM1
 BYTE   W52
// 046   ----------------------------------------
 BYTE   W96
// 047   ----------------------------------------
 BYTE   CnM1
 BYTE   W02
 BYTE   BnM2
 BYTE   W06
 BYTE   AsM2
 BYTE   W06
 BYTE   CnM1
 BYTE   W06
 BYTE   CsM1
 BYTE   W03
 BYTE   DsM1
 BYTE   W06
 BYTE   EnM1
 BYTE   W03
 BYTE   FsM1
 BYTE   W03
 BYTE   FsM1
 BYTE   W03
 BYTE   GsM1
 BYTE   W03
 BYTE   AsM1
 BYTE   W03
 BYTE   BnM1
 BYTE   W03
 BYTE   Cs0
 BYTE   W01
 BYTE   TIE  Gs3  v112
 BYTE   W02
 BYTE   VOL   25*PokemonDPPtMountCoronetDolkar_mvl/mxv
 BYTE   W03
 BYTE   Ds0
 BYTE   W03
 BYTE   Fn0
 BYTE   W03
 BYTE   Fs0
 BYTE   W03
 BYTE   Gn0
 BYTE   W03
 BYTE   As0
 BYTE   W03
 BYTE   Cs1
 BYTE   W03
 BYTE   Ds1
 BYTE   W03
 BYTE   Fs1
 BYTE   W03
 BYTE   Gn1
 BYTE   W03
 BYTE   An1
 BYTE   W03
 BYTE   As1
 BYTE   W03
 BYTE   Cs2
 BYTE   W06
 BYTE   En2
 BYTE   W03
 BYTE   En2
 BYTE   W01
// 048   ----------------------------------------
 BYTE   W02
 BYTE   Fn2
 BYTE   W03
 BYTE   Gs2
 BYTE   W03
 BYTE   As2
 BYTE   W06
 BYTE   Bn2
 BYTE   W03
 BYTE   Cn3
 BYTE   W03
 BYTE   Cs3
 BYTE   W18
 BYTE   Bn2
 BYTE   W03
 BYTE   As2
 BYTE   W06
 BYTE   Gs2
 BYTE   W03
 BYTE   Gn2
 BYTE   W06
 BYTE   En2
 BYTE   W03
 BYTE   En2
 BYTE   W03
 BYTE   Cs2
 BYTE   W03
 BYTE   Cn2
 BYTE   W03
 BYTE   As1
 BYTE   W03
 BYTE   An1
 BYTE   W03
 BYTE   Fs1
 BYTE   W03
 BYTE   En1
 BYTE   W03
 BYTE   As0
 BYTE   W03
 BYTE   Gs0
 BYTE   W03
 BYTE   Fn0
 BYTE   W03
 BYTE   En0
 BYTE   W03
 BYTE   Cs0
 BYTE   W03
 BYTE   GsM1
 BYTE   W01
// 049   ----------------------------------------
 BYTE   W02
 BYTE   FsM1
 BYTE   W03
 BYTE   DsM1
 BYTE   W03
 BYTE   CnM1
 BYTE   W06
 BYTE   AsM2
 BYTE   W03
 BYTE   AnM2
 BYTE   W03
 BYTE   GsM2
 BYTE   W03
 BYTE   GsM2
 BYTE   W03
 BYTE   FsM2
 BYTE   W21
 BYTE   EOT
 BYTE   GoTo
  POIN2 Label_7_01889A7E
 BYTE   FINE

//**************** Track 9 (Midi-Chn.8) ****************//

PokemonDPPtMountCoronetDolkar_009:
// 000   ----------------------------------------
 BYTE   KEYSH   PokemonDPPtMountCoronetDolkar_key+0
Label_8_01889CF2:
 BYTE   PAN   c_v+0
 BYTE   VOL   69*PokemonDPPtMountCoronetDolkar_mvl/mxv
 BYTE   BEND   c_v+0
 BYTE   W96
// 001   ----------------------------------------
 BYTE   W96
// 002   ----------------------------------------
 BYTE   W48
 BYTE   PAN   c_v+0
 BYTE   W48
// 003   ----------------------------------------
 BYTE   W96
// 004   ----------------------------------------
 BYTE   W48
 BYTE   VOICE   2
 BYTE   W48
// 005   ----------------------------------------
 BYTE   VOL   80*PokemonDPPtMountCoronetDolkar_mvl/mxv
 BYTE   W12
 BYTE   N11  Fn1  v127
 BYTE   W12
 BYTE   Cn2
 BYTE   W12
 BYTE   Gn2
 BYTE   W12
 BYTE   Cn2
 BYTE   W12
 BYTE   Fn2
 BYTE   W12
 BYTE   As2
 BYTE   W12
 BYTE   Gs2
 BYTE   W12
// 006   ----------------------------------------
 BYTE   N05  Gn2
 BYTE   W06
 BYTE   N02  Gs2
 BYTE   W03
 BYTE   N14  Gn2
 BYTE   W15
 BYTE   N11  Fn2
 BYTE   W12
 BYTE   En2
 BYTE   W12
 BYTE   N15  Ds2
 BYTE   W16
 BYTE   Fn2
 BYTE   W16
 BYTE   As2
 BYTE   W16
// 007   ----------------------------------------
 BYTE   Cn2
 BYTE   W16
 BYTE   Ds2
 BYTE   W16
 BYTE   Fn2
 BYTE   W16
 BYTE   As1
 BYTE   W16
 BYTE   Cn2
 BYTE   W16
 BYTE   Ds2
 BYTE   W16
// 008   ----------------------------------------
 BYTE   N23  Gs1
 BYTE   W24
 BYTE   As1
 BYTE   W24
 BYTE   VOICE   56
 BYTE   N05  Fn1  v112
 BYTE   W06
 BYTE   Ds1
 BYTE   W06
 BYTE   N11  Cn1
 BYTE   W12
 BYTE   Cn1  v092
 BYTE   W12
 BYTE   Cn1  v064
 BYTE   W12
// 009   ----------------------------------------
 BYTE   Cn1  v060
 BYTE   W12
 BYTE   Cn1  v052
 BYTE   W12
 BYTE   Cn1  v040
 BYTE   W12
 BYTE   Cn1  v032
 BYTE   W12
 BYTE   VOL   14*PokemonDPPtMountCoronetDolkar_mvl/mxv
 BYTE   N80  Cn1  v127
 BYTE   W02
 BYTE   VOL   17*PokemonDPPtMountCoronetDolkar_mvl/mxv
 BYTE   W03
 BYTE   GsM1
 BYTE   W03
 BYTE   AsM1
 BYTE   W04
 BYTE   BnM1
 BYTE   W02
 BYTE   Cs0
 BYTE   W03
 BYTE   Dn0
 BYTE   W03
 BYTE   Fn0
 BYTE   W04
 BYTE   Gn0
 BYTE   W02
 BYTE   Cs1
 BYTE   W03
 BYTE   Ds1
 BYTE   W03
 BYTE   En1
 BYTE   W04
 BYTE   Fs1
 BYTE   W02
 BYTE   Gn1
 BYTE   W03
 BYTE   Cn2
 BYTE   W03
 BYTE   Ds2
 BYTE   W04
// 010   ----------------------------------------
 BYTE   VOICE   56
 BYTE   W02
 BYTE   VOL   56*PokemonDPPtMountCoronetDolkar_mvl/mxv
 BYTE   W03
 BYTE   Cn3
 BYTE   W03
 BYTE   Fn3
 BYTE   W04
 BYTE   Gn3
 BYTE   W02
 BYTE   Ds4
 BYTE   W03
 BYTE   Gs4
 BYTE   W09
 BYTE   Gs4
 BYTE   W10
 BYTE   N05  Gn1
 BYTE   W12
 BYTE   VOL   70*PokemonDPPtMountCoronetDolkar_mvl/mxv
 BYTE   N05  Fn3  v112
 BYTE   W12
 BYTE   Fn3  v072
 BYTE   W12
 BYTE   Fn3  v060
 BYTE   W12
 BYTE   Fn3  v048
 BYTE   W12
// 011   ----------------------------------------
 BYTE   Fn3  v032
 BYTE   W12
 BYTE   Fn3  v024
 BYTE   W84
// 012   ----------------------------------------
 BYTE   W24
 BYTE   VOICE   2
 BYTE   N11  Ds2  v127
 BYTE   W12
 BYTE   En2
 BYTE   W12
 BYTE   VOL   75*PokemonDPPtMountCoronetDolkar_mvl/mxv
 BYTE   N56  Fn2
 BYTE   W48
// 013   ----------------------------------------
 BYTE   W12
 BYTE   N11  Gs2
 BYTE   W12
 BYTE   Gn2
 BYTE   W12
 BYTE   Fn2
 BYTE   W12
 BYTE   N05  Gs2
 BYTE   W06
 BYTE   Gn2
 BYTE   W06
 BYTE   N11  Cn2
 BYTE   W12
 BYTE   Fn2
 BYTE   W12
 BYTE   Cn3
 BYTE   W12
// 014   ----------------------------------------
 BYTE   As2
 BYTE   W12
 BYTE   N32  Gs2
 BYTE   W36
 BYTE   N11  As2
 BYTE   W12
 BYTE   N32  Fn2
 BYTE   W36
// 015   ----------------------------------------
 BYTE   N11  Gs2
 BYTE   W12
 BYTE   N32  Ds2
 BYTE   W36
 BYTE   N05  Fn2
 BYTE   W06
 BYTE   Ds2
 BYTE   W06
 BYTE   N32  As1
 BYTE   W36
// 016   ----------------------------------------
 BYTE   N11  Cn2
 BYTE   W12
 BYTE   N23  Gs1
 BYTE   W24
 BYTE   N11  Gn1
 BYTE   W12
 BYTE   Fs1
 BYTE   W12
 BYTE   N23  Fn1
 BYTE   W24
 BYTE   N11  Gn1
 BYTE   W12
// 017   ----------------------------------------
 BYTE   VOICE   2
 BYTE   TIE  Dn1
 BYTE   W96
// 018   ----------------------------------------
 BYTE   W44
 BYTE   W03
 BYTE   EOT
 BYTE   W48
 BYTE   W01
// 019   ----------------------------------------
 BYTE   W96
// 020   ----------------------------------------
 BYTE   W24
 BYTE   VOICE   2
 BYTE   N11  Cn3  v124
 BYTE   W12
 BYTE   As2
 BYTE   W12
 BYTE   VOICE   2
 BYTE   N11  Fn2
 BYTE   W12
 BYTE   Cn3
 BYTE   W12
 BYTE   N32  Gs3
 BYTE   W24
// 021   ----------------------------------------
 BYTE   W12
 BYTE   N11  Fn1
 BYTE   W12
 BYTE   Cn2
 BYTE   W12
 BYTE   Gn2
 BYTE   W12
 BYTE   Cn2
 BYTE   W12
 BYTE   Fn2
 BYTE   W12
 BYTE   As2
 BYTE   W12
 BYTE   Gs2
 BYTE   W12
// 022   ----------------------------------------
 BYTE   N23  Gn2
 BYTE   W24
 BYTE   Fn2
 BYTE   W24
 BYTE   N15  Ds2
 BYTE   W16
 BYTE   Fn2
 BYTE   W16
 BYTE   As2
 BYTE   W16
// 023   ----------------------------------------
 BYTE   Cn2
 BYTE   W16
 BYTE   Ds2
 BYTE   W16
 BYTE   Gs2
 BYTE   W16
 BYTE   As1
 BYTE   W16
 BYTE   Cn2
 BYTE   W16
 BYTE   Ds2
 BYTE   W16
// 024   ----------------------------------------
 BYTE   N11  Gn2
 BYTE   W24
 BYTE   N02  En2
 BYTE   W03
 BYTE   N20  Fn2
 BYTE   W21
 BYTE   VOL   58*PokemonDPPtMountCoronetDolkar_mvl/mxv
 BYTE   PAN   c_v-22
 BYTE   W48
// 025   ----------------------------------------
 BYTE   VOICE   57
 BYTE   VOL   72*PokemonDPPtMountCoronetDolkar_mvl/mxv
 BYTE   N05  An2  v112
 BYTE   W18
 BYTE   Fn2
 BYTE   W06
 BYTE   N32  As2
 BYTE   W36
 BYTE   N56  Gs2
 BYTE   W36
// 026   ----------------------------------------
 BYTE   VOL   60*PokemonDPPtMountCoronetDolkar_mvl/mxv
 BYTE   W02
 BYTE   Bn2
 BYTE   W03
 BYTE   Gn2
 BYTE   W03
 BYTE   Fn2
 BYTE   W03
 BYTE   Dn2
 BYTE   W03
 BYTE   An1
 BYTE   W03
 BYTE   Fn1
 BYTE   W03
 BYTE   En1
 BYTE   W03
 BYTE   Cs1
 BYTE   W01
 BYTE   Gn3
 BYTE   N02  Cn4
 BYTE   W06
 BYTE   N02
 BYTE   W06
 BYTE   N02
 BYTE   W06
 BYTE   N02
 BYTE   W06
 BYTE   Bn3
 BYTE   W12
 BYTE   N05  Cn4
 BYTE   W36
// 027   ----------------------------------------
 BYTE   VOL   20*PokemonDPPtMountCoronetDolkar_mvl/mxv
 BYTE   N44  Gn3
 BYTE   W02
 BYTE   VOL   22*PokemonDPPtMountCoronetDolkar_mvl/mxv
 BYTE   W03
 BYTE   Fs0
 BYTE   W03
 BYTE   Bn0
 BYTE   W03
 BYTE   Ds1
 BYTE   W03
 BYTE   An1
 BYTE   W03
 BYTE   Dn2
 BYTE   W03
 BYTE   Gs2
 BYTE   W03
 BYTE   Cs3
 BYTE   W03
 BYTE   Fs3
 BYTE   W03
 BYTE   Cs4
 BYTE   W03
 BYTE   Gs4
 BYTE   W16
 BYTE   N02  Fn3
 BYTE   W12
 BYTE   N05  Gn3
 BYTE   W36
// 028   ----------------------------------------
 BYTE   VOL   70*PokemonDPPtMountCoronetDolkar_mvl/mxv
 BYTE   W24
 BYTE   VOICE   2
 BYTE   PAN   c_v+5
 BYTE   VOL   80*PokemonDPPtMountCoronetDolkar_mvl/mxv
 BYTE   BEND   c_v+0
 BYTE   N11  Cn3  v124
 BYTE   W12
 BYTE   As2
 BYTE   W12
 BYTE   Fn2
 BYTE   W12
 BYTE   Cn3
 BYTE   W12
 BYTE   N32  Gs3
 BYTE   W24
// 029   ----------------------------------------
 BYTE   W12
 BYTE   N11  Fn2
 BYTE   W12
 BYTE   Cn3
 BYTE   W12
 BYTE   Gn2
 BYTE   N11  Gn3
 BYTE   W12
 BYTE   Cn3
 BYTE   W12
 BYTE   Fn3
 BYTE   W12
 BYTE   As3
 BYTE   W12
 BYTE   Gs3
 BYTE   W12
// 030   ----------------------------------------
 BYTE   Cn4
 BYTE   W12
 BYTE   N05  Bn3
 BYTE   W06
 BYTE   As3
 BYTE   W06
 BYTE   N23  Gs3
 BYTE   W24
 BYTE   N32  Gn3
 BYTE   W36
 BYTE   N05  Fs3
 BYTE   W06
 BYTE   Fn3
 BYTE   W06
// 031   ----------------------------------------
 BYTE   N23  Ds3
 BYTE   W24
 BYTE   N11  Fn3
 BYTE   W12
 BYTE   N23  Gs3
 BYTE   W24
 BYTE   N11  As3
 BYTE   W24
 BYTE   Ds4
 BYTE   W12
// 032   ----------------------------------------
 BYTE   N23  As3
 BYTE   W24
 BYTE   N11  Cn4
 BYTE   W12
 BYTE   Cs4
 BYTE   W12
 BYTE   As3
 BYTE   W12
 BYTE   N80  Cn4
 BYTE   W36
// 033   ----------------------------------------
 BYTE   W96
// 034   ----------------------------------------
 BYTE   W48
 BYTE   VOICE   48
 BYTE   PAN   c_v-22
 BYTE   VOL   65*PokemonDPPtMountCoronetDolkar_mvl/mxv
 BYTE   N92  Cs2  v112
 BYTE   N05  Fn4
 BYTE   W24
 BYTE   N02  Fn4  v108
 BYTE   W06
 BYTE   Fn4  v088
 BYTE   W06
 BYTE   N02
 BYTE   W06
 BYTE   Fn4  v084
 BYTE   W06
// 035   ----------------------------------------
 BYTE   N03  Fn4  v112
 BYTE   W16
 BYTE   N03
 BYTE   W08
 BYTE   N03
 BYTE   W08
 BYTE   N03
 BYTE   W08
 BYTE   N03
 BYTE   W08
 BYTE   N92  Dn2
 BYTE   W12
 BYTE   N05  Cn4
 BYTE   W06
 BYTE   Dn4
 BYTE   W18
 BYTE   Fn4
 BYTE   W06
 BYTE   Gn4
 BYTE   W06
// 036   ----------------------------------------
 BYTE   W12
 BYTE   N05
 BYTE   W06
 BYTE   As4
 BYTE   W30
 BYTE   N92  Ds2
 BYTE   N02  Fn4  v108
 BYTE   W06
 BYTE   Fn4  v088
 BYTE   W06
 BYTE   N02
 BYTE   W06
 BYTE   Fn4  v084
 BYTE   W06
 BYTE   N03  Fn4  v112
 BYTE   W16
 BYTE   N03
 BYTE   W08
// 037   ----------------------------------------
 BYTE   N03
 BYTE   W08
 BYTE   N03
 BYTE   W08
 BYTE   N03
 BYTE   W08
 BYTE   N03
 BYTE   W16
 BYTE   N03
 BYTE   W08
 BYTE   N92  En2
 BYTE   W12
 BYTE   N05  Gn4
 BYTE   W06
 BYTE   As4
 BYTE   W06
 BYTE   Gn4
 BYTE   W06
 BYTE   En4
 BYTE   W06
 BYTE   Cn4
 BYTE   W06
 BYTE   As3
 BYTE   W06
// 038   ----------------------------------------
 BYTE   N03  En4
 BYTE   W08
 BYTE   N03
 BYTE   W08
 BYTE   N03
 BYTE   W08
 BYTE   Gn4
 BYTE   W16
 BYTE   N03
 BYTE   W08
 BYTE   VOICE   2
 BYTE   VOL   79*PokemonDPPtMountCoronetDolkar_mvl/mxv
 BYTE   PAN   c_v+6
 BYTE   W48
// 039   ----------------------------------------
 BYTE   W96
// 040   ----------------------------------------
 BYTE   W96
// 041   ----------------------------------------
 BYTE   W96
// 042   ----------------------------------------
 BYTE   W48
 BYTE   VOICE   48
 BYTE   PAN   c_v-22
 BYTE   VOL   65*PokemonDPPtMountCoronetDolkar_mvl/mxv
 BYTE   W24
 BYTE   N07  En4
 BYTE   W16
 BYTE   En4  v072
 BYTE   W08
// 043   ----------------------------------------
 BYTE   W08
 BYTE   En4  v044
 BYTE   W16
 BYTE   En4  v032
 BYTE   W16
 BYTE   En4  v024
 BYTE   W56
// 044   ----------------------------------------
 BYTE   W96
// 045   ----------------------------------------
 BYTE   W96
// 046   ----------------------------------------
 BYTE   W96
// 047   ----------------------------------------
 BYTE   W96
// 048   ----------------------------------------
 BYTE   W96
// 049   ----------------------------------------
 BYTE   W96
// 050   ----------------------------------------
 BYTE   W96
// 051   ----------------------------------------
 BYTE   W44
 BYTE   W03
 BYTE   GoTo
  POIN2 Label_8_01889CF2
 BYTE   FINE

//******************************************************//
	ALIGN 4

PokemonDPPtMountCoronetDolkar:
	BYTE	9	// NumTrks
	BYTE	0	// NumBlks
	BYTE	PokemonDPPtMountCoronetDolkar_pri	// Priority
	BYTE	PokemonDPPtMountCoronetDolkar_rev	// Reverb.
    
	POIN2	PokemonDPPtMountCoronetDolkar_grp
    
	POIN2	PokemonDPPtMountCoronetDolkar_001
	POIN2	PokemonDPPtMountCoronetDolkar_002
	POIN2	PokemonDPPtMountCoronetDolkar_003
	POIN2	PokemonDPPtMountCoronetDolkar_004
	POIN2	PokemonDPPtMountCoronetDolkar_005
	POIN2	PokemonDPPtMountCoronetDolkar_006
	POIN2	PokemonDPPtMountCoronetDolkar_007
	POIN2	PokemonDPPtMountCoronetDolkar_008
	POIN2	PokemonDPPtMountCoronetDolkar_009

	
