//Event file generated from Sappy .s format.
	#include "MPlayDef.event"

	#define	PokemonBWNsCastleDolkar_grp  voicegroup000
	#define	PokemonBWNsCastleDolkar_pri  0
	#define	PokemonBWNsCastleDolkar_rev  0
	#define	PokemonBWNsCastleDolkar_mvl  127
	#define	PokemonBWNsCastleDolkar_key  0
	#define	PokemonBWNsCastleDolkar_tbs  1
	#define	PokemonBWNsCastleDolkar_exg  0
	#define	PokemonBWNsCastleDolkar_cmp  1

	// .rodata
	//	PokemonBWNsCastleDolkar
	ALIGN 4


//**************** Track 1 (Midi-Chn.0) ****************//

PokemonBWNsCastleDolkar_001:
// 000   ----------------------------------------
 BYTE   KEYSH   PokemonBWNsCastleDolkar_key+0
Label_0_01181DB2:
 BYTE   TEMPO   130*PokemonBWNsCastleDolkar_tbs/2
 BYTE   VOICE   30
 BYTE   VOL   72*PokemonBWNsCastleDolkar_mvl/mxv
 BYTE   PAN   c_v-44
 BYTE   MOD 0
 BYTE   CnM2
 BYTE   N05  Fn3  v080
 BYTE   W08
 BYTE   Dn4  v072
 BYTE   W08
 BYTE   Dn3  v076
 BYTE   W08
 BYTE   Fn4  v088
 BYTE   W08
 BYTE   An3  v072
 BYTE   W08
 BYTE   Dn4  v080
 BYTE   W08
 BYTE   An4
 BYTE   W08
 BYTE   Dn4  v068
 BYTE   W08
 BYTE   Fn4  v076
 BYTE   W07
 BYTE   Gn4  v088
 BYTE   W08
 BYTE   As3  v072
 BYTE   W08
 BYTE   En4  v080
 BYTE   W08
 BYTE   Gn3
 BYTE   W01
// 001   ----------------------------------------
 BYTE   W07
 BYTE   En4  v072
 BYTE   W08
 BYTE   En3  v076
 BYTE   W08
 BYTE   Gn4  v088
 BYTE   W08
 BYTE   As3  v072
 BYTE   W08
 BYTE   En4  v080
 BYTE   W08
 BYTE   As4
 BYTE   W08
 BYTE   En4  v068
 BYTE   W08
 BYTE   Gn4  v076
 BYTE   W09
 BYTE   En4  v088
 BYTE   W08
 BYTE   As3  v072
 BYTE   W08
 BYTE   En4  v080
 BYTE   W08
// 002   ----------------------------------------
 BYTE   Gn3
 BYTE   W08
 BYTE   As3  v072
 BYTE   W08
 BYTE   En3  v076
 BYTE   W08
 BYTE   En4  v088
 BYTE   W08
 BYTE   Dn4  v072
 BYTE   W08
 BYTE   En4  v080
 BYTE   W08
 BYTE   Cs4
 BYTE   W08
 BYTE   Dn4  v068
 BYTE   W08
 BYTE   En4  v076
 BYTE   W08
 BYTE   Fn4  v088
 BYTE   W08
 BYTE   An3  v072
 BYTE   W08
 BYTE   Dn4  v080
 BYTE   W08
// 003   ----------------------------------------
 BYTE   Fn3
 BYTE   W08
 BYTE   Dn4  v072
 BYTE   W08
 BYTE   Dn3  v076
 BYTE   W08
 BYTE   Fn4  v088
 BYTE   W08
 BYTE   An3  v072
 BYTE   W08
 BYTE   Dn4  v080
 BYTE   W08
 BYTE   An3
 BYTE   W08
 BYTE   Dn4  v068
 BYTE   W08
 BYTE   Fn4  v076
 BYTE   W08
 BYTE   Fn4  v088
 BYTE   W08
 BYTE   As3  v072
 BYTE   W08
 BYTE   Dn4  v080
 BYTE   W08
// 004   ----------------------------------------
 BYTE   Fn3
 BYTE   W08
 BYTE   As3  v072
 BYTE   W08
 BYTE   Dn4  v076
 BYTE   W08
 BYTE   Fn4  v088
 BYTE   W08
 BYTE   As3  v072
 BYTE   W08
 BYTE   Dn4  v080
 BYTE   W08
 BYTE   As4
 BYTE   W08
 BYTE   Dn4  v068
 BYTE   W08
 BYTE   Fn4  v076
 BYTE   W08
 BYTE   Cn4  v088
 BYTE   W08
 BYTE   Fn3  v072
 BYTE   W08
 BYTE   An3  v080
 BYTE   W08
// 005   ----------------------------------------
 BYTE   Cn3
 BYTE   W08
 BYTE   Fn3  v072
 BYTE   W08
 BYTE   An3  v076
 BYTE   W08
 BYTE   Cn4  v088
 BYTE   W08
 BYTE   Fn3  v072
 BYTE   W08
 BYTE   An3  v080
 BYTE   W08
 BYTE   Fn4
 BYTE   W08
 BYTE   An3  v068
 BYTE   W08
 BYTE   Cn4  v076
 BYTE   W08
 BYTE   Dn4  v088
 BYTE   W08
 BYTE   Gn3  v072
 BYTE   W08
 BYTE   Bn3  v080
 BYTE   W08
// 006   ----------------------------------------
 BYTE   Dn3
 BYTE   W08
 BYTE   Gn3  v072
 BYTE   W08
 BYTE   Bn3  v076
 BYTE   W08
 BYTE   Dn4  v088
 BYTE   W08
 BYTE   Gn3  v072
 BYTE   W08
 BYTE   Bn3  v080
 BYTE   W08
 BYTE   Gn4
 BYTE   W08
 BYTE   Bn3  v068
 BYTE   W08
 BYTE   Dn4  v076
 BYTE   W08
 BYTE   En4  v088
 BYTE   W08
 BYTE   An3  v072
 BYTE   W08
 BYTE   Dn4  v080
 BYTE   W08
// 007   ----------------------------------------
 BYTE   En3
 BYTE   W08
 BYTE   An3  v072
 BYTE   W08
 BYTE   Dn4  v076
 BYTE   W08
 BYTE   En4  v088
 BYTE   W08
 BYTE   An3  v072
 BYTE   W08
 BYTE   Cs4  v080
 BYTE   W08
 BYTE   An4
 BYTE   W08
 BYTE   Cs4  v068
 BYTE   W08
 BYTE   En4  v076
 BYTE   W08
 BYTE   N03  Fn3  v092
 BYTE   N03  Dn4  v104
 BYTE   W24
// 008   ----------------------------------------
 BYTE   N23  Fn3  v088
 BYTE   N23  Dn4  v100
 BYTE   W24
 BYTE   N03  Gn3  v092
 BYTE   N03  Ds4  v104
 BYTE   W24
 BYTE   N23  Gn3  v088
 BYTE   N23  Cs4  v100
 BYTE   W24
 BYTE   N03  Fn3  v092
 BYTE   N03  Dn4  v104
 BYTE   W24
// 009   ----------------------------------------
 BYTE   An3  v088
 BYTE   N03  Fn4  v100
 BYTE   W24
 BYTE   Gn3  v092
 BYTE   N03  En4  v104
 BYTE   W24
 BYTE   N23  Gn3  v088
 BYTE   N23  Cs4  v100
 BYTE   W24
 BYTE   N04  An3
 BYTE   N04  Dn4  v108
 BYTE   W08
 BYTE   Dn3  v088
 BYTE   N04  An3  v096
 BYTE   W08
 BYTE   An3  v092
 BYTE   N04  Dn4  v100
 BYTE   W08
// 010   ----------------------------------------
 BYTE   Cn4  v096
 BYTE   N04  Fn4  v104
 BYTE   W08
 BYTE   Dn3  v088
 BYTE   N04  An3  v096
 BYTE   W08
 BYTE   An3  v092
 BYTE   N04  Dn4  v100
 BYTE   W08
 BYTE   N04
 BYTE   N04  Gn4  v108
 BYTE   W08
 BYTE   Fn3  v088
 BYTE   N04  As3  v096
 BYTE   W08
 BYTE   As3  v092
 BYTE   N04  En4  v100
 BYTE   W08
 BYTE   En4  v096
 BYTE   N04  As4  v104
 BYTE   W08
 BYTE   As3  v084
 BYTE   N04  En4  v092
 BYTE   W08
 BYTE   Dn4  v088
 BYTE   N04  Gn4  v096
 BYTE   W08
 BYTE   N01  Fn3  v100
 BYTE   N01  As3
 BYTE   W02
 BYTE   Fs3  v088
 BYTE   N01  Bn3
 BYTE   W02
 BYTE   Fn3  v100
 BYTE   N01  As3
 BYTE   W02
 BYTE   Fs3  v088
 BYTE   N01  Bn3
 BYTE   W02
 BYTE   Fn3  v100
 BYTE   N01  As3
 BYTE   W02
 BYTE   Fs3  v088
 BYTE   N01  Bn3
 BYTE   W02
 BYTE   Fn3  v100
 BYTE   N01  As3
 BYTE   W02
 BYTE   Fs3  v088
 BYTE   N01  Bn3
 BYTE   W02
 BYTE   Fn3  v100
 BYTE   N01  As3
 BYTE   W02
 BYTE   Fs3  v088
 BYTE   N01  Bn3
 BYTE   W02
 BYTE   Fn3  v100
 BYTE   N01  As3
 BYTE   W02
 BYTE   Fs3  v088
 BYTE   N01  Bn3
 BYTE   W02
// 011   ----------------------------------------
 BYTE   Fn3  v100
 BYTE   N01  As3
 BYTE   W02
 BYTE   Fs3  v088
 BYTE   N01  Bn3
 BYTE   W02
 BYTE   Fn3  v100
 BYTE   N01  As3
 BYTE   W02
 BYTE   Fs3  v088
 BYTE   N01  Bn3
 BYTE   W02
 BYTE   Fn3  v100
 BYTE   N01  As3
 BYTE   W02
 BYTE   Fs3  v088
 BYTE   N01  Bn3
 BYTE   W02
 BYTE   Fn3  v100
 BYTE   N01  As3
 BYTE   W02
 BYTE   Fs3  v088
 BYTE   N01  Bn3
 BYTE   W02
 BYTE   Fn3  v100
 BYTE   N01  As3
 BYTE   W02
 BYTE   Fs3  v088
 BYTE   N01  Bn3
 BYTE   W02
 BYTE   Fn3  v100
 BYTE   N01  As3
 BYTE   W02
 BYTE   Fs3  v088
 BYTE   N01  Bn3
 BYTE   W02
 BYTE   Gs3  v100
 BYTE   N01  Dn4
 BYTE   W02
 BYTE   As3  v088
 BYTE   N01  Ds4
 BYTE   W02
 BYTE   Gs3  v100
 BYTE   N01  Dn4
 BYTE   W02
 BYTE   As3  v088
 BYTE   N01  Ds4
 BYTE   W02
 BYTE   Gs3  v100
 BYTE   N01  Dn4
 BYTE   W02
 BYTE   As3  v088
 BYTE   N01  Ds4
 BYTE   W02
 BYTE   Gs3  v100
 BYTE   N01  Dn4
 BYTE   W02
 BYTE   As3  v088
 BYTE   N01  Ds4
 BYTE   W02
 BYTE   Gs3  v100
 BYTE   N01  Dn4
 BYTE   W02
 BYTE   As3  v088
 BYTE   N01  Ds4
 BYTE   W02
 BYTE   Gs3  v100
 BYTE   N01  Dn4
 BYTE   W02
 BYTE   As3  v088
 BYTE   N01  Ds4
 BYTE   W02
 BYTE   Gs3  v100
 BYTE   N01  Dn4
 BYTE   W02
 BYTE   As3  v088
 BYTE   N01  Ds4
 BYTE   W02
 BYTE   Gs3  v100
 BYTE   N01  Dn4
 BYTE   W02
 BYTE   As3  v088
 BYTE   N01  Ds4
 BYTE   W02
 BYTE   Gs3  v100
 BYTE   N01  Dn4
 BYTE   W02
 BYTE   As3  v088
 BYTE   N01  Ds4
 BYTE   W02
 BYTE   Gs3  v100
 BYTE   N01  Dn4
 BYTE   W02
 BYTE   As3  v088
 BYTE   N01  Ds4
 BYTE   W02
 BYTE   Gs3  v100
 BYTE   N01  Dn4
 BYTE   W02
 BYTE   As3  v088
 BYTE   N01  Ds4
 BYTE   W02
 BYTE   Gs3  v100
 BYTE   N01  Dn4
 BYTE   W02
 BYTE   Ds4  v088
 BYTE   W02
 BYTE   N44  Ds4  v084
 BYTE   W24
// 012   ----------------------------------------
 BYTE   W08
 BYTE   W08
 BYTE   W08
 BYTE   As3  v076
 BYTE   W24
 BYTE   W08
 BYTE   W08
 BYTE   W08
 BYTE   Fn4  v084
 BYTE   W24
// 013   ----------------------------------------
 BYTE   W08
 BYTE   W08
 BYTE   W08
 BYTE   Cs4  v076
 BYTE   W24
 BYTE   W08
 BYTE   W08
 BYTE   W08
 BYTE   Fs4  v080
 BYTE   W24
// 014   ----------------------------------------
 BYTE   W08
 BYTE   W08
 BYTE   W08
 BYTE   An4  v072
 BYTE   W24
 BYTE   W08
 BYTE   W08
 BYTE   W08
 BYTE   Gs4  v080
 BYTE   W24
// 015   ----------------------------------------
 BYTE   W08
 BYTE   W08
 BYTE   W08
 BYTE   Fs4  v072
 BYTE   W24
 BYTE   W08
 BYTE   W08
 BYTE   W08
 BYTE   N05  En4  v100
 BYTE   W08
 BYTE   Ds4  v092
 BYTE   W08
 BYTE   En4  v096
 BYTE   W08
// 016   ----------------------------------------
 BYTE   Fs4  v100
 BYTE   W08
 BYTE   En4  v088
 BYTE   W08
 BYTE   Ds4  v096
 BYTE   W08
 BYTE   En4  v100
 BYTE   W08
 BYTE   As3  v088
 BYTE   W08
 BYTE   Bn3  v096
 BYTE   W08
 BYTE   Cs4  v100
 BYTE   W08
 BYTE   Gs3  v092
 BYTE   W08
 BYTE   Bn3  v096
 BYTE   W08
 BYTE   En3  v100
 BYTE   W08
 BYTE   Ds3  v092
 BYTE   W08
 BYTE   En3  v096
 BYTE   W08
// 017   ----------------------------------------
 BYTE   Fs3  v100
 BYTE   W08
 BYTE   En3  v088
 BYTE   W08
 BYTE   Fs3  v096
 BYTE   W08
 BYTE   Gs3  v100
 BYTE   W08
 BYTE   Ds3  v088
 BYTE   W08
 BYTE   Gs3  v096
 BYTE   W08
 BYTE   As3  v100
 BYTE   W08
 BYTE   Bn3  v092
 BYTE   W08
 BYTE   Cn4  v096
 BYTE   W08
 BYTE   Cs4  v100
 BYTE   W08
 BYTE   Fs3  v092
 BYTE   W08
 BYTE   As3  v096
 BYTE   W08
// 018   ----------------------------------------
 BYTE   En3  v100
 BYTE   W08
 BYTE   Fs3  v088
 BYTE   W08
 BYTE   Cs3  v096
 BYTE   W08
 BYTE   En3  v100
 BYTE   W08
 BYTE   Ds3  v088
 BYTE   W08
 BYTE   En3  v096
 BYTE   W08
 BYTE   Cs3
 BYTE   W08
 BYTE   Ds3  v092
 BYTE   W08
 BYTE   En3  v096
 BYTE   W08
 BYTE   Dn4  v100
 BYTE   W08
 BYTE   As3  v092
 BYTE   W08
 BYTE   Gn3  v096
 BYTE   W08
// 019   ----------------------------------------
 BYTE   Dn3  v100
 BYTE   W08
 BYTE   Gn3  v088
 BYTE   W08
 BYTE   As3  v096
 BYTE   W08
 BYTE   Dn4  v100
 BYTE   W08
 BYTE   Bn3  v088
 BYTE   W08
 BYTE   Gn3  v096
 BYTE   W08
 BYTE   N03  Fn3  v100
 BYTE   W03
 BYTE   Gn3  v088
 BYTE   W03
 BYTE   An3  v100
 BYTE   W04
 BYTE   Bn3  v096
 BYTE   W03
 BYTE   Cs4  v108
 BYTE   W04
 BYTE   Dn4  v100
 BYTE   W03
 BYTE   En4  v120
 BYTE   W04
 BYTE   N21  An3  v112
 BYTE   N21  Fn4  v124
 BYTE   W24
// 020   ----------------------------------------
 BYTE   N04  An3  v112
 BYTE   N04  Dn4  v120
 BYTE   W24
 BYTE   An3  v108
 BYTE   N04  Gn4  v116
 BYTE   W08
 BYTE   An3  v108
 BYTE   N04  Gn4  v112
 BYTE   W08
 BYTE   An3  v104
 BYTE   N04  Gn4  v112
 BYTE   W08
 BYTE   An3  v108
 BYTE   N04  Fn4  v124
 BYTE   W48
// 021   ----------------------------------------
 BYTE   W72
 BYTE   N21  An3  v112
 BYTE   N21  Fn4  v124
 BYTE   W24
// 022   ----------------------------------------
 BYTE   N04  An3  v112
 BYTE   N04  Dn4  v120
 BYTE   W24
 BYTE   Cs4  v108
 BYTE   N04  Gn4  v116
 BYTE   W08
 BYTE   Cs4  v108
 BYTE   N04  Gn4  v112
 BYTE   W08
 BYTE   Cs4  v104
 BYTE   N04  Gn4  v112
 BYTE   W08
 BYTE   An3  v108
 BYTE   N04  Fn4  v124
 BYTE   W24
 BYTE   N06  En4  v104
 BYTE   N06  An4  v112
 BYTE   W08
 BYTE   En4  v092
 BYTE   N06  As4  v100
 BYTE   W08
 BYTE   Cs4
 BYTE   N06  Gn4  v104
 BYTE   W08
// 023   ----------------------------------------
 BYTE   En4  v100
 BYTE   N06  An4  v108
 BYTE   W08
 BYTE   Cs4  v096
 BYTE   N06  Fn4  v100
 BYTE   W08
 BYTE   Cs4
 BYTE   N06  Gn4  v104
 BYTE   W08
 BYTE   As3  v100
 BYTE   N06  En4  v108
 BYTE   W08
 BYTE   Cn4  v092
 BYTE   N06  Fn4  v100
 BYTE   W08
 BYTE   An3  v096
 BYTE   N06  Dn4  v104
 BYTE   W08
 BYTE   Bn3  v100
 BYTE   N06  En4  v108
 BYTE   W08
 BYTE   Gn3  v092
 BYTE   N06  Cs4  v096
 BYTE   W08
 BYTE   An3
 BYTE   N06  Dn4  v104
 BYTE   W08
 BYTE   N01  An3  v120
 BYTE   W02
 BYTE   As3  v104
 BYTE   W02
 BYTE   An3  v120
 BYTE   W02
 BYTE   As3  v104
 BYTE   W02
 BYTE   An3  v120
 BYTE   W02
 BYTE   As3  v104
 BYTE   W02
 BYTE   An3  v120
 BYTE   W02
 BYTE   As3  v104
 BYTE   W02
 BYTE   An3  v120
 BYTE   W02
 BYTE   As3  v104
 BYTE   W02
 BYTE   An3  v120
 BYTE   W02
 BYTE   As3  v104
 BYTE   W02
// 024   ----------------------------------------
 BYTE   An3  v120
 BYTE   W02
 BYTE   As3  v104
 BYTE   W02
 BYTE   An3  v120
 BYTE   W02
 BYTE   As3  v104
 BYTE   W02
 BYTE   An3  v120
 BYTE   W02
 BYTE   As3  v104
 BYTE   W02
 BYTE   An3  v120
 BYTE   W02
 BYTE   As3  v104
 BYTE   W02
 BYTE   An3  v120
 BYTE   W02
 BYTE   As3  v104
 BYTE   W02
 BYTE   An3  v120
 BYTE   W02
 BYTE   As3  v104
 BYTE   W02
 BYTE   N06  An3  v100
 BYTE   W08
 BYTE   En3
 BYTE   W08
 BYTE   An3
 BYTE   W08
 BYTE   Cs4
 BYTE   W08
 BYTE   Dn4
 BYTE   W08
 BYTE   En4
 BYTE   W07
 BYTE   GoTo
  POIN2 Label_0_01181DB2
 BYTE   FINE

//**************** Track 2 (Midi-Chn.1) ****************//

PokemonBWNsCastleDolkar_002:
// 000   ----------------------------------------
 BYTE   KEYSH   PokemonBWNsCastleDolkar_key+0
Label_1_011821F2:
 BYTE   VOICE   30
 BYTE   VOL   62*PokemonBWNsCastleDolkar_mvl/mxv
 BYTE   PAN   c_v-29
 BYTE   MOD 0
 BYTE   CnM2
 BYTE   N06  Fn3  v092
 BYTE   W08
 BYTE   Dn3  v096
 BYTE   W08
 BYTE   Fn3  v092
 BYTE   W08
 BYTE   Dn3  v096
 BYTE   W08
 BYTE   Fn3  v092
 BYTE   W08
 BYTE   Dn3
 BYTE   W08
 BYTE   Fn3
 BYTE   W08
 BYTE   Dn3
 BYTE   W08
 BYTE   Fn3  v088
 BYTE   W08
 BYTE   Dn3  v096
 BYTE   W08
 BYTE   En3  v088
 BYTE   W08
 BYTE   Dn3  v092
 BYTE   W08
// 001   ----------------------------------------
 BYTE   En3  v088
 BYTE   W08
 BYTE   Dn3  v092
 BYTE   W08
 BYTE   En3  v088
 BYTE   W08
 BYTE   Dn3  v092
 BYTE   W08
 BYTE   En3  v088
 BYTE   W08
 BYTE   Dn3  v092
 BYTE   W08
 BYTE   En3  v088
 BYTE   W08
 BYTE   Dn3  v092
 BYTE   W08
 BYTE   En3  v084
 BYTE   W08
 BYTE   Cs3  v096
 BYTE   W08
 BYTE   En3  v092
 BYTE   W08
 BYTE   Cs3  v096
 BYTE   W08
// 002   ----------------------------------------
 BYTE   En3  v092
 BYTE   W08
 BYTE   Cs3
 BYTE   W08
 BYTE   En3  v088
 BYTE   W08
 BYTE   Cs3  v092
 BYTE   W08
 BYTE   En3  v088
 BYTE   W08
 BYTE   Cs3  v092
 BYTE   W08
 BYTE   En3  v088
 BYTE   W08
 BYTE   Cs3  v092
 BYTE   W08
 BYTE   En3
 BYTE   W08
 BYTE   Dn3  v096
 BYTE   W08
 BYTE   Fn3  v092
 BYTE   W08
 BYTE   Dn3
 BYTE   W08
// 003   ----------------------------------------
 BYTE   Fn3  v088
 BYTE   W08
 BYTE   Dn3  v092
 BYTE   W08
 BYTE   Fn3  v088
 BYTE   W08
 BYTE   Dn3  v092
 BYTE   W08
 BYTE   Fn3  v088
 BYTE   W08
 BYTE   Dn3  v092
 BYTE   W08
 BYTE   Fn3  v088
 BYTE   W08
 BYTE   Dn3  v092
 BYTE   W08
 BYTE   Fn3  v088
 BYTE   W08
 BYTE   Dn3  v096
 BYTE   W08
 BYTE   Fn3  v092
 BYTE   W08
 BYTE   Dn3
 BYTE   W08
// 004   ----------------------------------------
 BYTE   Fn3  v088
 BYTE   W08
 BYTE   Dn3  v092
 BYTE   W08
 BYTE   Fn3  v088
 BYTE   W08
 BYTE   Dn3  v092
 BYTE   W08
 BYTE   Fn3  v088
 BYTE   W08
 BYTE   Dn3  v092
 BYTE   W08
 BYTE   Fn3  v088
 BYTE   W08
 BYTE   Dn3  v092
 BYTE   W08
 BYTE   Fn3  v088
 BYTE   W07
 BYTE   Cn3  v096
 BYTE   W08
 BYTE   Fn3  v092
 BYTE   W08
 BYTE   Cn3
 BYTE   W08
 BYTE   Fn3  v088
 BYTE   W01
// 005   ----------------------------------------
 BYTE   W07
 BYTE   Cn3  v092
 BYTE   W08
 BYTE   Fn3  v088
 BYTE   W08
 BYTE   Cn3  v092
 BYTE   W08
 BYTE   Fn3  v088
 BYTE   W08
 BYTE   Cn3  v092
 BYTE   W08
 BYTE   Fn3  v088
 BYTE   W08
 BYTE   Cn3  v092
 BYTE   W08
 BYTE   Fn3  v088
 BYTE   W09
 BYTE   Dn3  v096
 BYTE   W08
 BYTE   Gn3  v092
 BYTE   W08
 BYTE   Dn3
 BYTE   W08
// 006   ----------------------------------------
 BYTE   Gn3  v088
 BYTE   W08
 BYTE   Dn3  v092
 BYTE   W08
 BYTE   Gn3  v088
 BYTE   W08
 BYTE   Dn3  v092
 BYTE   W08
 BYTE   Gn3  v088
 BYTE   W08
 BYTE   Dn3  v092
 BYTE   W08
 BYTE   Gn3  v088
 BYTE   W08
 BYTE   Dn3  v092
 BYTE   W08
 BYTE   Gn3  v088
 BYTE   W08
 BYTE   Dn3  v096
 BYTE   W08
 BYTE   En3  v092
 BYTE   W08
 BYTE   Dn3
 BYTE   W08
// 007   ----------------------------------------
 BYTE   En3  v088
 BYTE   W08
 BYTE   Dn3  v092
 BYTE   W08
 BYTE   En3  v088
 BYTE   W08
 BYTE   En3  v092
 BYTE   W08
 BYTE   An3  v088
 BYTE   W08
 BYTE   En3  v092
 BYTE   W08
 BYTE   An3  v088
 BYTE   W08
 BYTE   En3  v092
 BYTE   W08
 BYTE   An3  v088
 BYTE   W32
// 008   ----------------------------------------
 BYTE   W96
// 009   ----------------------------------------
 BYTE   W96
// 010   ----------------------------------------
 BYTE   W96
// 011   ----------------------------------------
 BYTE   W72
 BYTE   N44  As2  v096
 BYTE   N44  Fs3  v100
 BYTE   W24
// 012   ----------------------------------------
 BYTE   W08
 BYTE   W04
 BYTE   W04
 BYTE   W04
 BYTE   W04
 BYTE   Fs2  v092
 BYTE   N44  Ds3  v100
 BYTE   W32
 BYTE   W04
 BYTE   W04
 BYTE   W04
 BYTE   W04
 BYTE   Gs2  v096
 BYTE   N44  Fn3  v100
 BYTE   W24
// 013   ----------------------------------------
 BYTE   W08
 BYTE   W04
 BYTE   W04
 BYTE   W04
 BYTE   W04
 BYTE   Cs3  v092
 BYTE   N44  Gs3  v100
 BYTE   W32
 BYTE   W04
 BYTE   W04
 BYTE   W04
 BYTE   W04
 BYTE   As2  v096
 BYTE   N44  Fs3  v100
 BYTE   W24
// 014   ----------------------------------------
 BYTE   W08
 BYTE   W04
 BYTE   W04
 BYTE   W04
 BYTE   W04
 BYTE   Cs3  v092
 BYTE   N44  An3  v100
 BYTE   W32
 BYTE   W04
 BYTE   W04
 BYTE   W04
 BYTE   W04
 BYTE   Bn2  v096
 BYTE   N44  Gs3  v100
 BYTE   W24
// 015   ----------------------------------------
 BYTE   W08
 BYTE   W04
 BYTE   W04
 BYTE   W04
 BYTE   W04
 BYTE   Cs3  v092
 BYTE   N44  As3  v096
 BYTE   W32
 BYTE   W04
 BYTE   W04
 BYTE   W04
 BYTE   W04
 BYTE   En3
 BYTE   N44  Cs4  v100
 BYTE   W24
// 016   ----------------------------------------
 BYTE   W08
 BYTE   W04
 BYTE   W04
 BYTE   W04
 BYTE   W04
 BYTE   Gs3  v092
 BYTE   N44  En4  v100
 BYTE   W32
 BYTE   W04
 BYTE   W04
 BYTE   W04
 BYTE   W04
 BYTE   Fs3  v096
 BYTE   N44  Ds4  v100
 BYTE   W24
// 017   ----------------------------------------
 BYTE   W08
 BYTE   W04
 BYTE   W04
 BYTE   W04
 BYTE   W04
 BYTE   Ds3  v092
 BYTE   N44  Bn3  v100
 BYTE   W32
 BYTE   W04
 BYTE   W04
 BYTE   W04
 BYTE   W04
 BYTE   Fs3  v096
 BYTE   N44  Cs4  v100
 BYTE   W24
// 018   ----------------------------------------
 BYTE   W08
 BYTE   W04
 BYTE   W04
 BYTE   W04
 BYTE   W04
 BYTE   Gn3  v092
 BYTE   N44  En4  v096
 BYTE   W32
 BYTE   W04
 BYTE   W04
 BYTE   W04
 BYTE   W04
 BYTE   En3
 BYTE   N44  Dn4  v100
 BYTE   W24
// 019   ----------------------------------------
 BYTE   W08
 BYTE   W04
 BYTE   W04
 BYTE   W04
 BYTE   W04
 BYTE   Gn3  v092
 BYTE   N44  Cs4  v100
 BYTE   W32
 BYTE   W04
 BYTE   W04
 BYTE   W04
 BYTE   W04
 BYTE   W24
// 020   ----------------------------------------
 BYTE   W96
// 021   ----------------------------------------
 BYTE   W96
// 022   ----------------------------------------
 BYTE   W96
// 023   ----------------------------------------
 BYTE   W96
// 024   ----------------------------------------
 BYTE   W24
 BYTE   N06  En3
 BYTE   W08
 BYTE   Cs3  v096
 BYTE   W08
 BYTE   En3  v100
 BYTE   W08
 BYTE   Gn3
 BYTE   W08
 BYTE   An3  v096
 BYTE   W08
 BYTE   As3  v100
 BYTE   W07
 BYTE   GoTo
  POIN2 Label_1_011821F2
 BYTE   FINE

//**************** Track 3 (Midi-Chn.2) ****************//

PokemonBWNsCastleDolkar_003:
// 000   ----------------------------------------
 BYTE   KEYSH   PokemonBWNsCastleDolkar_key+0
Label_2_011823D6:
 BYTE   VOICE   33
 BYTE   VOL   66*PokemonBWNsCastleDolkar_mvl/mxv
 BYTE   PAN   c_v+41
 BYTE   MOD 0
 BYTE   CnM2
 BYTE   N06  Dn1  v084
 BYTE   W08
 BYTE   Dn1  v048
 BYTE   W08
 BYTE   Dn1  v024
 BYTE   W08
 BYTE   Dn1  v088
 BYTE   W08
 BYTE   Dn1  v052
 BYTE   W08
 BYTE   Dn1  v028
 BYTE   W08
 BYTE   Dn1  v084
 BYTE   W08
 BYTE   Dn1  v048
 BYTE   W08
 BYTE   Dn1  v024
 BYTE   W08
 BYTE   Dn1  v092
 BYTE   W08
 BYTE   Dn1  v052
 BYTE   W08
 BYTE   Dn1  v032
 BYTE   W08
// 001   ----------------------------------------
 BYTE   Dn1  v084
 BYTE   W08
 BYTE   Dn1  v048
 BYTE   W08
 BYTE   Dn1  v024
 BYTE   W08
 BYTE   Dn1  v088
 BYTE   W08
 BYTE   Dn1  v052
 BYTE   W08
 BYTE   Dn1  v028
 BYTE   W08
 BYTE   Dn1  v084
 BYTE   W08
 BYTE   Dn1  v048
 BYTE   W08
 BYTE   Dn1  v024
 BYTE   W08
 BYTE   Cs1  v092
 BYTE   W08
 BYTE   Cs1  v052
 BYTE   W08
 BYTE   Cs1  v032
 BYTE   W08
// 002   ----------------------------------------
 BYTE   Cs1  v084
 BYTE   W08
 BYTE   Cs1  v048
 BYTE   W08
 BYTE   Cs1  v024
 BYTE   W08
 BYTE   Cs1  v088
 BYTE   W08
 BYTE   Cs1  v052
 BYTE   W08
 BYTE   Cs1  v028
 BYTE   W08
 BYTE   Cs1  v084
 BYTE   W08
 BYTE   Cs1  v048
 BYTE   W08
 BYTE   Cs1  v024
 BYTE   W08
 BYTE   Dn1  v092
 BYTE   W08
 BYTE   Dn1  v052
 BYTE   W08
 BYTE   Dn1  v032
 BYTE   W08
// 003   ----------------------------------------
 BYTE   Dn1  v084
 BYTE   W08
 BYTE   Dn1  v048
 BYTE   W08
 BYTE   Dn1  v024
 BYTE   W08
 BYTE   Dn1  v088
 BYTE   W08
 BYTE   Dn1  v052
 BYTE   W08
 BYTE   Dn1  v028
 BYTE   W08
 BYTE   Cn1  v084
 BYTE   W08
 BYTE   Cn1  v048
 BYTE   W08
 BYTE   Cn1  v024
 BYTE   W08
 BYTE   As0  v092
 BYTE   W08
 BYTE   As0  v052
 BYTE   W08
 BYTE   As0  v032
 BYTE   W08
// 004   ----------------------------------------
 BYTE   As0  v084
 BYTE   W08
 BYTE   As0  v048
 BYTE   W08
 BYTE   As0  v024
 BYTE   W08
 BYTE   As0  v088
 BYTE   W08
 BYTE   As0  v052
 BYTE   W08
 BYTE   As0  v028
 BYTE   W08
 BYTE   As0  v084
 BYTE   W08
 BYTE   As0  v048
 BYTE   W08
 BYTE   As0  v024
 BYTE   W08
 BYTE   Fn0  v092
 BYTE   W08
 BYTE   Fn0  v052
 BYTE   W08
 BYTE   Fn0  v032
 BYTE   W08
// 005   ----------------------------------------
 BYTE   Fn0  v084
 BYTE   W08
 BYTE   Fn0  v048
 BYTE   W08
 BYTE   Fn0  v024
 BYTE   W08
 BYTE   Cn1  v088
 BYTE   W08
 BYTE   Cn1  v052
 BYTE   W08
 BYTE   Cn1  v028
 BYTE   W08
 BYTE   Fn0  v084
 BYTE   W08
 BYTE   Fn0  v048
 BYTE   W08
 BYTE   Fn0  v024
 BYTE   W08
 BYTE   Gn0  v092
 BYTE   W08
 BYTE   Gn0  v052
 BYTE   W08
 BYTE   Gn0  v032
 BYTE   W08
// 006   ----------------------------------------
 BYTE   Gn0  v084
 BYTE   W08
 BYTE   Gn0  v048
 BYTE   W08
 BYTE   Gn0  v024
 BYTE   W08
 BYTE   Gn0  v088
 BYTE   W08
 BYTE   Gn0  v052
 BYTE   W08
 BYTE   Gn0  v028
 BYTE   W08
 BYTE   Gn0  v084
 BYTE   W08
 BYTE   Gn0  v048
 BYTE   W08
 BYTE   Gn0  v024
 BYTE   W08
 BYTE   An0  v092
 BYTE   W08
 BYTE   An0  v052
 BYTE   W08
 BYTE   An0  v032
 BYTE   W08
// 007   ----------------------------------------
 BYTE   An0  v084
 BYTE   W08
 BYTE   An0  v048
 BYTE   W08
 BYTE   An0  v024
 BYTE   W08
 BYTE   An0  v088
 BYTE   W08
 BYTE   An0  v052
 BYTE   W08
 BYTE   An0  v028
 BYTE   W08
 BYTE   An0  v084
 BYTE   W08
 BYTE   An0  v048
 BYTE   W08
 BYTE   An0  v024
 BYTE   W08
 BYTE   Dn1  v104
 BYTE   W08
 BYTE   Dn1  v064
 BYTE   W16
// 008   ----------------------------------------
 BYTE   W24
 BYTE   Dn1  v104
 BYTE   W08
 BYTE   Dn1  v064
 BYTE   W08
 BYTE   Dn1  v044
 BYTE   W08
 BYTE   N22  Dn1  v108
 BYTE   W24
 BYTE   N06  Dn1  v104
 BYTE   W08
 BYTE   Dn1  v064
 BYTE   W16
// 009   ----------------------------------------
 BYTE   W44
 BYTE   W03
 BYTE   N22  Cs1  v108
 BYTE   W24
 BYTE   W01
 BYTE   N06  Dn1  v104
 BYTE   W08
 BYTE   Dn1  v064
 BYTE   W16
// 010   ----------------------------------------
 BYTE   N23  Dn1  v108
 BYTE   W24
 BYTE   N06  Dn1  v104
 BYTE   W08
 BYTE   Dn1  v064
 BYTE   W16
 BYTE   N22  Dn1  v108
 BYTE   W24
 BYTE   N44  As0  v100
 BYTE   W24
// 011   ----------------------------------------
 BYTE   W24
 BYTE   As0  v096
 BYTE   W48
 BYTE   N92  Ds1  v104
 BYTE   W08
 BYTE   W08
 BYTE   W08
// 012   ----------------------------------------
 BYTE   W48
 BYTE   W08
 BYTE   W08
 BYTE   W08
 BYTE   Fn1  v096
 BYTE   W08
 BYTE   W08
 BYTE   W08
// 013   ----------------------------------------
 BYTE   W48
 BYTE   W08
 BYTE   W08
 BYTE   W08
 BYTE   Fs1  v104
 BYTE   W08
 BYTE   W08
 BYTE   W08
// 014   ----------------------------------------
 BYTE   W48
 BYTE   W08
 BYTE   W08
 BYTE   W08
 BYTE   N44  Fs1  v100
 BYTE   W08
 BYTE   W08
 BYTE   W08
// 015   ----------------------------------------
 BYTE   W24
 BYTE   As1  v096
 BYTE   W24
 BYTE   W08
 BYTE   W08
 BYTE   W08
 BYTE   N92  Cs1  v108
 BYTE   W08
 BYTE   W08
 BYTE   W08
// 016   ----------------------------------------
 BYTE   W48
 BYTE   W08
 BYTE   W08
 BYTE   W08
 BYTE   Bn0  v096
 BYTE   W08
 BYTE   W08
 BYTE   W08
// 017   ----------------------------------------
 BYTE   W48
 BYTE   W08
 BYTE   W08
 BYTE   W08
 BYTE   As0  v104
 BYTE   W08
 BYTE   W08
 BYTE   W08
// 018   ----------------------------------------
 BYTE   W48
 BYTE   W08
 BYTE   W08
 BYTE   W08
 BYTE   N44  En1  v100
 BYTE   W08
 BYTE   W08
 BYTE   W08
// 019   ----------------------------------------
 BYTE   W24
 BYTE   An1  v096
 BYTE   W24
 BYTE   W08
 BYTE   W08
 BYTE   W08
 BYTE   N21  Dn1  v112
 BYTE   W24
// 020   ----------------------------------------
 BYTE   N04  Dn1  v104
 BYTE   W24
 BYTE   En1  v108
 BYTE   W08
 BYTE   En1  v104
 BYTE   W08
 BYTE   En1  v108
 BYTE   W08
 BYTE   Dn1
 BYTE   W48
// 021   ----------------------------------------
 BYTE   W72
 BYTE   N21  Dn1  v112
 BYTE   W24
// 022   ----------------------------------------
 BYTE   N04
 BYTE   W24
 BYTE   Cs1  v108
 BYTE   W08
 BYTE   N04
 BYTE   W08
 BYTE   Cs1  v104
 BYTE   W08
 BYTE   Dn1  v108
 BYTE   W24
 BYTE   N05  An1
 BYTE   W08
 BYTE   As1  v100
 BYTE   W08
 BYTE   Gn1  v104
 BYTE   W08
// 023   ----------------------------------------
 BYTE   An1  v108
 BYTE   W08
 BYTE   Fn1  v100
 BYTE   W08
 BYTE   Gn1  v104
 BYTE   W08
 BYTE   En1
 BYTE   W08
 BYTE   Fn1  v096
 BYTE   W08
 BYTE   Dn1  v104
 BYTE   W08
 BYTE   En1
 BYTE   W08
 BYTE   Cs1  v096
 BYTE   W08
 BYTE   Dn1  v104
 BYTE   W08
 BYTE   N44  An0  v100
 BYTE   W24
// 024   ----------------------------------------
 BYTE   W24
 BYTE   N07
 BYTE   W08
 BYTE   En0  v092
 BYTE   W08
 BYTE   An0  v096
 BYTE   W08
 BYTE   Cs1  v100
 BYTE   W08
 BYTE   Dn1  v096
 BYTE   W08
 BYTE   En1
 BYTE   W07
 BYTE   GoTo
  POIN2 Label_2_011823D6
 BYTE   FINE

//**************** Track 4 (Midi-Chn.3) ****************//

PokemonBWNsCastleDolkar_004:
// 000   ----------------------------------------
 BYTE   KEYSH   PokemonBWNsCastleDolkar_key+0
Label_3_011825EE:
 BYTE   VOICE   63
 BYTE   VOL   56*PokemonBWNsCastleDolkar_mvl/mxv
 BYTE   PAN   c_v+16
 BYTE   MOD 0
 BYTE   CnM2
 BYTE   W08
 BYTE   W08
 BYTE   W08
 BYTE   N44  An2  v076
 BYTE   N44  Dn3  v084
 BYTE   W24
 BYTE   W08
 BYTE   W08
 BYTE   W08
 BYTE   En3
 BYTE   N44  Gn3  v092
 BYTE   W24
// 001   ----------------------------------------
 BYTE   W08
 BYTE   W08
 BYTE   W08
 BYTE   Gn3  v076
 BYTE   N44  As3  v084
 BYTE   W24
 BYTE   W08
 BYTE   W08
 BYTE   W08
 BYTE   Cs3
 BYTE   N44  En3  v088
 BYTE   W24
// 002   ----------------------------------------
 BYTE   W08
 BYTE   W08
 BYTE   W08
 BYTE   En3  v076
 BYTE   N44  Gn3  v084
 BYTE   W24
 BYTE   W08
 BYTE   W08
 BYTE   W08
 BYTE   Dn3  v080
 BYTE   N44  Fn3  v088
 BYTE   W24
// 003   ----------------------------------------
 BYTE   W08
 BYTE   W08
 BYTE   W08
 BYTE   An2  v072
 BYTE   N44  Dn3  v080
 BYTE   W24
 BYTE   W08
 BYTE   W08
 BYTE   W08
 BYTE   N44
 BYTE   N44  Fn3  v088
 BYTE   W24
// 004   ----------------------------------------
 BYTE   W08
 BYTE   W08
 BYTE   W08
 BYTE   As2  v072
 BYTE   N44  Dn3  v080
 BYTE   W24
 BYTE   W08
 BYTE   W08
 BYTE   W08
 BYTE   Cn3
 BYTE   N44  Fn3  v084
 BYTE   W24
// 005   ----------------------------------------
 BYTE   W08
 BYTE   W08
 BYTE   W08
 BYTE   Fn3  v072
 BYTE   N44  An3  v080
 BYTE   W24
 BYTE   W08
 BYTE   W08
 BYTE   W08
 BYTE   Dn3
 BYTE   N44  Gn3  v084
 BYTE   W24
// 006   ----------------------------------------
 BYTE   W08
 BYTE   W08
 BYTE   W08
 BYTE   Bn2  v068
 BYTE   N44  Dn3  v076
 BYTE   W24
 BYTE   W08
 BYTE   W08
 BYTE   W08
 BYTE   N44
 BYTE   N44  En3  v084
 BYTE   W24
// 007   ----------------------------------------
 BYTE   W08
 BYTE   W08
 BYTE   W08
 BYTE   En3  v068
 BYTE   N44  An3  v072
 BYTE   W24
 BYTE   W08
 BYTE   W08
 BYTE   W08
 BYTE   N03  Dn3  v104
 BYTE   N03  An3  v112
 BYTE   W24
// 008   ----------------------------------------
 BYTE   N23  Dn3  v100
 BYTE   N23  Fn3  v108
 BYTE   W24
 BYTE   N03  En3  v104
 BYTE   N03  As3  v112
 BYTE   W24
 BYTE   N23  En3  v100
 BYTE   N23  Gn3  v108
 BYTE   W24
 BYTE   N03  Dn3  v104
 BYTE   N03  An3  v112
 BYTE   W24
// 009   ----------------------------------------
 BYTE   Dn3  v100
 BYTE   N03  Fn3  v108
 BYTE   W24
 BYTE   En3  v104
 BYTE   N03  Gn3  v112
 BYTE   W24
 BYTE   N23  Cs3  v100
 BYTE   N23  En3  v108
 BYTE   W24
 BYTE   N03  Dn3  v104
 BYTE   N03  An3  v112
 BYTE   W24
// 010   ----------------------------------------
 BYTE   N23  Dn3  v100
 BYTE   N23  Fn3  v108
 BYTE   W24
 BYTE   N03  En3  v104
 BYTE   N03  As3  v112
 BYTE   W24
 BYTE   N22  En3  v100
 BYTE   N22  Gn3  v108
 BYTE   W24
 BYTE   N44  Fn3
 BYTE   N44  As3  v104
 BYTE   W24
// 011   ----------------------------------------
 BYTE   W24
 BYTE   Dn3  v108
 BYTE   N44  Gs3  v100
 BYTE   W48
 BYTE   Ds3
 BYTE   N44  Fs3  v108
 BYTE   W24
// 012   ----------------------------------------
 BYTE   W08
 BYTE   W08
 BYTE   W08
 BYTE   Fs3  v100
 BYTE   N44  As3  v108
 BYTE   W24
 BYTE   W08
 BYTE   W08
 BYTE   W08
 BYTE   Fn3  v100
 BYTE   N44  Gs3  v104
 BYTE   W24
// 013   ----------------------------------------
 BYTE   W08
 BYTE   W08
 BYTE   W08
 BYTE   Gs3  v092
 BYTE   N44  Bn3  v100
 BYTE   W24
 BYTE   W08
 BYTE   W08
 BYTE   W08
 BYTE   Fs3  v096
 BYTE   N44  As3  v104
 BYTE   W24
// 014   ----------------------------------------
 BYTE   W08
 BYTE   W08
 BYTE   W08
 BYTE   Fs3  v092
 BYTE   N44  An3  v096
 BYTE   W24
 BYTE   W08
 BYTE   W08
 BYTE   W08
 BYTE   Cs3
 BYTE   N44  Gs3  v104
 BYTE   W24
// 015   ----------------------------------------
 BYTE   W08
 BYTE   W08
 BYTE   W08
 BYTE   Fs3  v092
 BYTE   N44  As3  v100
 BYTE   W24
 BYTE   W08
 BYTE   W08
 BYTE   W08
 BYTE   Gs3
 BYTE   N44  Cs4  v108
 BYTE   W24
// 016   ----------------------------------------
 BYTE   W08
 BYTE   W08
 BYTE   W08
 BYTE   Cs4  v100
 BYTE   N44  En4  v108
 BYTE   W24
 BYTE   W08
 BYTE   W08
 BYTE   W08
 BYTE   Bn3  v100
 BYTE   N44  Ds4  v104
 BYTE   W24
// 017   ----------------------------------------
 BYTE   W08
 BYTE   W08
 BYTE   W08
 BYTE   Fs3  v092
 BYTE   N44  Bn3  v100
 BYTE   W24
 BYTE   W08
 BYTE   W08
 BYTE   W08
 BYTE   As3  v096
 BYTE   N44  Cs4  v104
 BYTE   W24
// 018   ----------------------------------------
 BYTE   W08
 BYTE   W08
 BYTE   W08
 BYTE   Cs4  v092
 BYTE   N44  En4  v096
 BYTE   W24
 BYTE   W08
 BYTE   W08
 BYTE   W08
 BYTE   Bn3
 BYTE   N44  Dn4  v104
 BYTE   W24
// 019   ----------------------------------------
 BYTE   W08
 BYTE   W08
 BYTE   W08
 BYTE   An3  v092
 BYTE   N44  Cs4  v100
 BYTE   W24
 BYTE   W08
 BYTE   W08
 BYTE   W08
 BYTE   N21  An3
 BYTE   N21  Fn4  v112
 BYTE   W24
// 020   ----------------------------------------
 BYTE   N03  An3  v100
 BYTE   N03  Dn4  v108
 BYTE   W24
 BYTE   An3  v100
 BYTE   N03  Gn4  v104
 BYTE   W08
 BYTE   An3  v100
 BYTE   N03  Gn4
 BYTE   W08
 BYTE   An3  v096
 BYTE   N03  Gn4  v104
 BYTE   W08
 BYTE   An3  v096
 BYTE   N03  Fn4  v112
 BYTE   W48
// 021   ----------------------------------------
 BYTE   W72
 BYTE   N21  An3  v100
 BYTE   N21  Fn4  v112
 BYTE   W24
// 022   ----------------------------------------
 BYTE   N03  An3  v100
 BYTE   N03  Dn4  v108
 BYTE   W24
 BYTE   Gn3  v100
 BYTE   N03  Cs4  v104
 BYTE   W08
 BYTE   Gn3  v100
 BYTE   N03  Cs4
 BYTE   W08
 BYTE   Gn3  v096
 BYTE   N03  Cs4  v104
 BYTE   W08
 BYTE   An3  v096
 BYTE   N03  Dn4  v112
 BYTE   W48
// 023   ----------------------------------------
 BYTE   W96
// 024   ----------------------------------------
 BYTE   W68
 BYTE   W03
 BYTE   GoTo
  POIN2 Label_3_011825EE
 BYTE   FINE

//**************** Track 5 (Midi-Chn.4) ****************//

PokemonBWNsCastleDolkar_005:
// 000   ----------------------------------------
 BYTE   KEYSH   PokemonBWNsCastleDolkar_key+0
Label_4_011827BE:
 BYTE   VOICE   30
 BYTE   VOL   62*PokemonBWNsCastleDolkar_mvl/mxv
 BYTE   PAN   c_v+21
 BYTE   MOD 0
 BYTE   CnM2
 BYTE   N07  An2  v088
 BYTE   W08
 BYTE   Dn3  v092
 BYTE   W08
 BYTE   An2  v088
 BYTE   W08
 BYTE   Dn3  v092
 BYTE   W08
 BYTE   An2  v088
 BYTE   W08
 BYTE   Dn3
 BYTE   W08
 BYTE   An2
 BYTE   W08
 BYTE   Dn3
 BYTE   W08
 BYTE   An2  v084
 BYTE   W08
 BYTE   Dn3  v092
 BYTE   W08
 BYTE   As2  v084
 BYTE   W08
 BYTE   Dn3  v088
 BYTE   W08
// 001   ----------------------------------------
 BYTE   As2  v084
 BYTE   W08
 BYTE   Dn3  v088
 BYTE   W08
 BYTE   As2  v084
 BYTE   W08
 BYTE   Dn3  v088
 BYTE   W08
 BYTE   As2  v084
 BYTE   W08
 BYTE   Dn3  v088
 BYTE   W08
 BYTE   As2  v084
 BYTE   W08
 BYTE   Dn3  v088
 BYTE   W08
 BYTE   As2  v080
 BYTE   W08
 BYTE   Cs3  v092
 BYTE   W08
 BYTE   As2  v088
 BYTE   W08
 BYTE   Cs3  v092
 BYTE   W08
// 002   ----------------------------------------
 BYTE   As2  v088
 BYTE   W08
 BYTE   Cs3
 BYTE   W08
 BYTE   As2  v084
 BYTE   W08
 BYTE   Cs3  v088
 BYTE   W08
 BYTE   As2  v084
 BYTE   W08
 BYTE   Cs3  v088
 BYTE   W08
 BYTE   As2  v084
 BYTE   W08
 BYTE   Cs3  v088
 BYTE   W08
 BYTE   As2
 BYTE   W08
 BYTE   Dn3  v092
 BYTE   W08
 BYTE   An2  v088
 BYTE   W08
 BYTE   Dn3
 BYTE   W08
// 003   ----------------------------------------
 BYTE   An2  v084
 BYTE   W08
 BYTE   Dn3  v088
 BYTE   W08
 BYTE   An2  v084
 BYTE   W08
 BYTE   Dn3  v088
 BYTE   W08
 BYTE   An2  v084
 BYTE   W08
 BYTE   Dn3  v088
 BYTE   W08
 BYTE   An2  v084
 BYTE   W08
 BYTE   Dn3  v088
 BYTE   W08
 BYTE   An2  v084
 BYTE   W08
 BYTE   Dn3  v096
 BYTE   W08
 BYTE   As2  v092
 BYTE   W08
 BYTE   Dn3
 BYTE   W08
// 004   ----------------------------------------
 BYTE   As2  v088
 BYTE   W08
 BYTE   Dn3  v092
 BYTE   W08
 BYTE   As2  v088
 BYTE   W08
 BYTE   Dn3  v092
 BYTE   W08
 BYTE   As2  v088
 BYTE   W08
 BYTE   Dn3
 BYTE   W08
 BYTE   As2
 BYTE   W08
 BYTE   Dn3
 BYTE   W08
 BYTE   As2  v084
 BYTE   W08
 BYTE   Cn3  v092
 BYTE   W08
 BYTE   An2  v084
 BYTE   W08
 BYTE   Cn3  v088
 BYTE   W08
// 005   ----------------------------------------
 BYTE   An2  v084
 BYTE   W08
 BYTE   Cn3  v088
 BYTE   W08
 BYTE   An2  v084
 BYTE   W08
 BYTE   Cn3  v088
 BYTE   W08
 BYTE   An2  v084
 BYTE   W08
 BYTE   Cn3  v088
 BYTE   W08
 BYTE   An2  v084
 BYTE   W08
 BYTE   Cn3  v088
 BYTE   W08
 BYTE   An2  v080
 BYTE   W08
 BYTE   Dn3  v092
 BYTE   W08
 BYTE   Bn2  v088
 BYTE   W08
 BYTE   Dn3  v092
 BYTE   W08
// 006   ----------------------------------------
 BYTE   Bn2  v088
 BYTE   W08
 BYTE   Dn3
 BYTE   W08
 BYTE   Bn2  v084
 BYTE   W08
 BYTE   Dn3  v088
 BYTE   W08
 BYTE   Bn2  v084
 BYTE   W08
 BYTE   Dn3  v088
 BYTE   W08
 BYTE   Bn2  v084
 BYTE   W08
 BYTE   Dn3  v088
 BYTE   W08
 BYTE   Bn2
 BYTE   W08
 BYTE   En3  v092
 BYTE   W08
 BYTE   An2  v088
 BYTE   W08
 BYTE   En3
 BYTE   W08
// 007   ----------------------------------------
 BYTE   An2  v084
 BYTE   W08
 BYTE   En3  v088
 BYTE   W08
 BYTE   An2  v084
 BYTE   W08
 BYTE   En3  v088
 BYTE   W08
 BYTE   An2  v084
 BYTE   W08
 BYTE   En3  v088
 BYTE   W08
 BYTE   An2  v084
 BYTE   W08
 BYTE   En3  v088
 BYTE   W08
 BYTE   An2  v084
 BYTE   W08
 BYTE   Fn3  v116
 BYTE   W08
 BYTE   N06  En3  v112
 BYTE   W08
 BYTE   N07  Dn3  v116
 BYTE   W08
// 008   ----------------------------------------
 BYTE   N23  An3  v120
 BYTE   W24
 BYTE   As3  v116
 BYTE   W24
 BYTE   Gn3  v120
 BYTE   W24
 BYTE   N05  An3
 BYTE   W24
// 009   ----------------------------------------
 BYTE   Fn3  v116
 BYTE   W16
 BYTE   Fn3  v112
 BYTE   W08
 BYTE   N07  Gn3  v116
 BYTE   W08
 BYTE   Fn3  v112
 BYTE   W08
 BYTE   En3  v116
 BYTE   W08
 BYTE   N23  Cs3
 BYTE   W24
 BYTE   N07  Fn3
 BYTE   W08
 BYTE   N06  En3  v112
 BYTE   W08
 BYTE   N07  Dn3  v116
 BYTE   W08
// 010   ----------------------------------------
 BYTE   N23  An3
 BYTE   W24
 BYTE   N22  As3  v112
 BYTE   W24
 BYTE   Gn3  v116
 BYTE   W48
// 011   ----------------------------------------
 BYTE   W72
 BYTE   N44  Ds2
 BYTE   W24
// 012   ----------------------------------------
 BYTE   W08
 BYTE   W04
 BYTE   W04
 BYTE   W04
 BYTE   W04
 BYTE   Fs2  v112
 BYTE   W32
 BYTE   W04
 BYTE   W04
 BYTE   W04
 BYTE   W04
 BYTE   Fn2  v116
 BYTE   W24
// 013   ----------------------------------------
Label_4_01182924:
 BYTE   W08
 BYTE   W04
 BYTE   W04
 BYTE   W04
 BYTE   W04
 BYTE   N44  Gs2  v112
 BYTE   W32
 BYTE   W04
 BYTE   W04
 BYTE   W04
 BYTE   W04
 BYTE   Fs2  v116
 BYTE   W24
 BYTE   PEND 
// 014   ----------------------------------------
 BYTE   W08
 BYTE   W04
 BYTE   W04
 BYTE   W04
 BYTE   W04
 BYTE   An2  v112
 BYTE   W32
 BYTE   W04
 BYTE   W04
 BYTE   W04
 BYTE   W04
 BYTE   Gs2  v116
 BYTE   W24
// 015   ----------------------------------------
 BYTE   W08
 BYTE   W04
 BYTE   W04
 BYTE   W04
 BYTE   W04
 BYTE   Fs2  v112
 BYTE   W32
 BYTE   W04
 BYTE   W04
 BYTE   W04
 BYTE   W04
 BYTE   En2  v116
 BYTE   W24
 BYTE   PATT
  POIN2 Label_4_01182924
// 016   ----------------------------------------
 BYTE   W08
 BYTE   W04
 BYTE   W04
 BYTE   W04
 BYTE   W04
 BYTE   N44  Bn2  v112
 BYTE   W32
 BYTE   W04
 BYTE   W04
 BYTE   W04
 BYTE   W04
 BYTE   As2  v116
 BYTE   W24
// 017   ----------------------------------------
 BYTE   W08
 BYTE   W04
 BYTE   W04
 BYTE   W04
 BYTE   W04
 BYTE   En2  v112
 BYTE   W32
 BYTE   W04
 BYTE   W04
 BYTE   W04
 BYTE   W04
 BYTE   Gn2  v116
 BYTE   W24
// 018   ----------------------------------------
 BYTE   W08
 BYTE   W04
 BYTE   W04
 BYTE   W04
 BYTE   W04
 BYTE   N22  En2  v112
 BYTE   W12
 BYTE   W04
 BYTE   W04
 BYTE   W04
 BYTE   N07  En2  v116
 BYTE   W08
 BYTE   Fn2  v108
 BYTE   W08
 BYTE   Gn2  v112
 BYTE   W32
// 019   ----------------------------------------
 BYTE   W96
// 020   ----------------------------------------
 BYTE   W96
// 021   ----------------------------------------
 BYTE   W72
 BYTE   N06  An3  v104
 BYTE   W08
 BYTE   As3  v092
 BYTE   W08
 BYTE   Gn3  v100
 BYTE   W08
// 022   ----------------------------------------
 BYTE   An3
 BYTE   W08
 BYTE   Fn3  v096
 BYTE   W08
 BYTE   Gn3  v100
 BYTE   W08
 BYTE   En3
 BYTE   W08
 BYTE   Fn3  v092
 BYTE   W08
 BYTE   Dn3  v096
 BYTE   W08
 BYTE   En3  v100
 BYTE   W08
 BYTE   Cs3  v092
 BYTE   W08
 BYTE   Dn3
 BYTE   W08
 BYTE   N44  An2  v100
 BYTE   W24
// 023   ----------------------------------------
 BYTE   W24
 BYTE   N06
 BYTE   W08
 BYTE   En2  v092
 BYTE   W08
 BYTE   An2  v096
 BYTE   W08
 BYTE   Cs3  v104
 BYTE   W08
 BYTE   Dn3  v096
 BYTE   W08
 BYTE   En3  v100
 BYTE   W07
 BYTE   GoTo
  POIN2 Label_4_011827BE
 BYTE   FINE

//**************** Track 6 (Midi-Chn.5) ****************//

PokemonBWNsCastleDolkar_006:
// 000   ----------------------------------------
 BYTE   KEYSH   PokemonBWNsCastleDolkar_key+0
Label_5_011829D2:
 BYTE   VOICE   14
 BYTE   VOL   66*PokemonBWNsCastleDolkar_mvl/mxv
 BYTE   PAN   c_v-34
 BYTE   MOD 0
 BYTE   CnM2
 BYTE   N20  Fn3  v048
 BYTE   W96
// 001   ----------------------------------------
 BYTE   W96
// 002   ----------------------------------------
 BYTE   W96
// 003   ----------------------------------------
 BYTE   W96
// 004   ----------------------------------------
 BYTE   W96
// 005   ----------------------------------------
 BYTE   W96
// 006   ----------------------------------------
 BYTE   W96
// 007   ----------------------------------------
 BYTE   W96
// 008   ----------------------------------------
 BYTE   Dn3  v092
 BYTE   W24
 BYTE   Dn3  v040
 BYTE   W24
 BYTE   Cs3  v092
 BYTE   W24
 BYTE   Dn3
 BYTE   W24
// 009   ----------------------------------------
 BYTE   Dn3  v040
 BYTE   W96
// 010   ----------------------------------------
 BYTE   Dn3  v092
 BYTE   W24
 BYTE   Dn3  v040
 BYTE   W24
 BYTE   Cs3  v092
 BYTE   W24
 BYTE   As3  v096
 BYTE   W24
// 011   ----------------------------------------
 BYTE   As3  v048
 BYTE   W24
 BYTE   Dn4  v096
 BYTE   W24
 BYTE   Dn4  v048
 BYTE   W24
 BYTE   Fs3  v108
 BYTE   W24
// 012   ----------------------------------------
 BYTE   Fs3  v060
 BYTE   W96
// 013   ----------------------------------------
 BYTE   W96
// 014   ----------------------------------------
 BYTE   W96
// 015   ----------------------------------------
 BYTE   W72
 BYTE   Cs3  v104
 BYTE   W24
// 016   ----------------------------------------
 BYTE   Cs3  v056
 BYTE   W96
// 017   ----------------------------------------
 BYTE   W96
// 018   ----------------------------------------
 BYTE   W96
// 019   ----------------------------------------
 BYTE   W72
 BYTE   Dn3  v112
 BYTE   W24
// 020   ----------------------------------------
 BYTE   Dn3  v064
 BYTE   W96
// 021   ----------------------------------------
 BYTE   W72
 BYTE   Dn3  v108
 BYTE   W24
// 022   ----------------------------------------
 BYTE   Dn3  v060
 BYTE   W96
// 023   ----------------------------------------
 BYTE   W96
// 024   ----------------------------------------
 BYTE   W68
 BYTE   W03
 BYTE   GoTo
  POIN2 Label_5_011829D2
 BYTE   FINE

//**************** Track 7 (Midi-Chn.6) ****************//

PokemonBWNsCastleDolkar_007:
// 000   ----------------------------------------
 BYTE   KEYSH   PokemonBWNsCastleDolkar_key+0
Label_6_01182A32:
 BYTE   VOICE   38
 BYTE   VOL   62*PokemonBWNsCastleDolkar_mvl/mxv
 BYTE   PAN   c_v-24
 BYTE   MOD 0
 BYTE   CnM2
 BYTE   W96
// 001   ----------------------------------------
 BYTE   W96
// 002   ----------------------------------------
 BYTE   W96
// 003   ----------------------------------------
 BYTE   W96
// 004   ----------------------------------------
 BYTE   W96
// 005   ----------------------------------------
 BYTE   W96
// 006   ----------------------------------------
 BYTE   W96
// 007   ----------------------------------------
 BYTE   W48
 BYTE   N02  Cn2  v044
 BYTE   W03
 BYTE   Cn2  v048
 BYTE   W03
 BYTE   Cn2  v052
 BYTE   W03
 BYTE   Cn2  v064
 BYTE   W03
 BYTE   Cn2  v076
 BYTE   W03
 BYTE   Cn2  v080
 BYTE   W03
 BYTE   Cn2  v088
 BYTE   W03
 BYTE   Cn2  v100
 BYTE   W03
 BYTE   N36  Cn2  v092
 BYTE   W24
// 008   ----------------------------------------
 BYTE   W24
 BYTE   N22
 BYTE   W24
 BYTE   Cn2  v084
 BYTE   W24
 BYTE   Cn2  v092
 BYTE   W24
// 009   ----------------------------------------
 BYTE   W48
 BYTE   N02  Cn2  v044
 BYTE   W03
 BYTE   Cn2  v052
 BYTE   W03
 BYTE   Cn2  v056
 BYTE   W03
 BYTE   Cn2  v068
 BYTE   W03
 BYTE   Cn2  v076
 BYTE   W03
 BYTE   Cn2  v084
 BYTE   W03
 BYTE   Cn2  v088
 BYTE   W03
 BYTE   Cn2  v104
 BYTE   W03
 BYTE   N11  Cs3  v100
 BYTE   W24
// 010   ----------------------------------------
 BYTE   N19  Cn2  v092
 BYTE   W24
 BYTE   N11  Cs3  v100
 BYTE   W24
 BYTE   N22  Cn2  v084
 BYTE   W24
 BYTE   N01  As2  v108
 BYTE   W04
 BYTE   As2  v092
 BYTE   W04
 BYTE   As2  v096
 BYTE   W04
 BYTE   As2  v080
 BYTE   W04
 BYTE   As2  v084
 BYTE   W03
 BYTE   As2  v072
 BYTE   W03
 BYTE   As2  v064
 BYTE   W02
// 011   ----------------------------------------
 BYTE   As2  v072
 BYTE   W03
 BYTE   As2  v060
 BYTE   W03
 BYTE   As2  v068
 BYTE   W03
 BYTE   As2  v056
 BYTE   W03
 BYTE   As2  v064
 BYTE   W03
 BYTE   As2  v052
 BYTE   W03
 BYTE   As2  v060
 BYTE   W03
 BYTE   As2  v048
 BYTE   W03
 BYTE   N19  Cn2  v088
 BYTE   W24
 BYTE   N02  Cn2  v040
 BYTE   W03
 BYTE   Cn2  v048
 BYTE   W03
 BYTE   Cn2  v052
 BYTE   W03
 BYTE   Cn2  v064
 BYTE   W03
 BYTE   Cn2  v072
 BYTE   W03
 BYTE   Cn2  v080
 BYTE   W03
 BYTE   Cn2  v084
 BYTE   W03
 BYTE   Cn2  v100
 BYTE   W03
 BYTE   N36  Cn2  v096
 BYTE   W24
// 012   ----------------------------------------
 BYTE   W96
// 013   ----------------------------------------
 BYTE   W96
// 014   ----------------------------------------
 BYTE   W96
// 015   ----------------------------------------
 BYTE   W48
 BYTE   N02  Cn2  v036
 BYTE   W03
 BYTE   Cn2  v040
 BYTE   W03
 BYTE   Cn2  v048
 BYTE   W03
 BYTE   Cn2  v056
 BYTE   W03
 BYTE   Cn2  v068
 BYTE   W03
 BYTE   Cn2  v072
 BYTE   W03
 BYTE   Cn2  v080
 BYTE   W03
 BYTE   Cn2  v092
 BYTE   W03
 BYTE   N36  Cn2  v100
 BYTE   W24
// 016   ----------------------------------------
 BYTE   W96
// 017   ----------------------------------------
 BYTE   W72
 BYTE   Cn2  v088
 BYTE   W24
// 018   ----------------------------------------
 BYTE   W96
// 019   ----------------------------------------
Label_6_01182B08:
 BYTE   W48
 BYTE   N02  Cn2  v032
 BYTE   W03
 BYTE   Cn2  v036
 BYTE   W03
 BYTE   Cn2  v044
 BYTE   W03
 BYTE   Cn2  v052
 BYTE   W03
 BYTE   Cn2  v064
 BYTE   W03
 BYTE   Cn2  v068
 BYTE   W03
 BYTE   Cn2  v076
 BYTE   W03
 BYTE   Cn2  v088
 BYTE   W03
 BYTE   N36  Cn2  v096
 BYTE   W24
 BYTE   PEND 
// 020   ----------------------------------------
Label_6_01182B27:
 BYTE   W24
 BYTE   N22  Cn2  v096
 BYTE   W24
 BYTE   Cn2  v088
 BYTE   W48
 BYTE   PEND 
 BYTE   PATT
  POIN2 Label_6_01182B08
 BYTE   PATT
  POIN2 Label_6_01182B27
// 021   ----------------------------------------
 BYTE   W72
 BYTE   N32  Cn2  v096
 BYTE   W24
// 022   ----------------------------------------
 BYTE   W68
 BYTE   W03
 BYTE   GoTo
  POIN2 Label_6_01182A32
 BYTE   FINE

//**************** Track 8 (Midi-Chn.7) ****************//

PokemonBWNsCastleDolkar_008:
// 000   ----------------------------------------
 BYTE   KEYSH   PokemonBWNsCastleDolkar_key+0
Label_7_01182B4A:
 BYTE   VOICE   80
 BYTE   VOL   62*PokemonBWNsCastleDolkar_mvl/mxv
 BYTE   PAN   c_v+0
 BYTE   MOD 0
 BYTE   CnM2
 BYTE   W96
// 001   ----------------------------------------
 BYTE   W96
// 002   ----------------------------------------
 BYTE   W96
// 003   ----------------------------------------
 BYTE   W96
// 004   ----------------------------------------
 BYTE   W96
// 005   ----------------------------------------
 BYTE   W96
// 006   ----------------------------------------
 BYTE   W96
// 007   ----------------------------------------
 BYTE   W72
 BYTE   N22  Cn2  v084
 BYTE   W24
// 008   ----------------------------------------
 BYTE   W24
 BYTE   Cn2  v080
 BYTE   W23
 BYTE   Cn2  v068
 BYTE   W24
 BYTE   Cn2  v080
 BYTE   W24
 BYTE   W01
// 009   ----------------------------------------
 BYTE   W96
// 010   ----------------------------------------
 BYTE   Cn2  v084
 BYTE   W44
 BYTE   W03
 BYTE   Cn2  v076
 BYTE   W24
 BYTE   N22
 BYTE   W24
 BYTE   W01
// 011   ----------------------------------------
 BYTE   W24
 BYTE   Cn2  v072
 BYTE   W72
// 012   ----------------------------------------
 BYTE   W96
// 013   ----------------------------------------
 BYTE   W96
// 014   ----------------------------------------
 BYTE   W96
// 015   ----------------------------------------
 BYTE   W96
// 016   ----------------------------------------
 BYTE   W96
// 017   ----------------------------------------
 BYTE   W96
// 018   ----------------------------------------
 BYTE   W96
// 019   ----------------------------------------
 BYTE   W72
 BYTE   Cn2  v084
 BYTE   W24
// 020   ----------------------------------------
 BYTE   W24
 BYTE   Cn2  v076
 BYTE   W23
 BYTE   Cn2  v080
 BYTE   W48
 BYTE   W01
// 021   ----------------------------------------
 BYTE   W72
 BYTE   Cn2  v084
 BYTE   W24
// 022   ----------------------------------------
 BYTE   W24
 BYTE   Cn2  v076
 BYTE   W24
 BYTE   Cn2  v080
 BYTE   W48
// 023   ----------------------------------------
 BYTE   W96
// 024   ----------------------------------------
 BYTE   W68
 BYTE   W03
 BYTE   GoTo
  POIN2 Label_7_01182B4A
 BYTE   FINE

//**************** Track 9 (Midi-Chn.8) ****************//

PokemonBWNsCastleDolkar_009:
// 000   ----------------------------------------
 BYTE   KEYSH   PokemonBWNsCastleDolkar_key+0
Label_8_01182BA2:
 BYTE   VOICE   10
 BYTE   VOL   53*PokemonBWNsCastleDolkar_mvl/mxv
 BYTE   PAN   c_v+11
 BYTE   MOD 0
 BYTE   CnM2
 BYTE   N13  Dn4  v084
 BYTE   W16
 BYTE   N05  Dn4  v036
 BYTE   W08
 BYTE   N13  Fn4  v080
 BYTE   W16
 BYTE   N05  Fn4  v028
 BYTE   W08
 BYTE   N13  An4  v084
 BYTE   W16
 BYTE   N05  An4  v036
 BYTE   W08
 BYTE   N13  Gn4  v084
 BYTE   W16
 BYTE   N05  Gn4  v036
 BYTE   W08
// 001   ----------------------------------------
 BYTE   N13  En4  v080
 BYTE   W16
 BYTE   N05  En4  v028
 BYTE   W08
 BYTE   N13  As4  v084
 BYTE   W16
 BYTE   N05  As4  v036
 BYTE   W08
 BYTE   N13  En4  v080
 BYTE   W16
 BYTE   N05  En4  v028
 BYTE   W32
// 002   ----------------------------------------
 BYTE   N13  Cs4  v084
 BYTE   W16
 BYTE   N05  Cs4  v036
 BYTE   W08
 BYTE   N13  En4  v080
 BYTE   W16
 BYTE   N05  En4  v028
 BYTE   W08
 BYTE   N13  Gn4  v084
 BYTE   W16
 BYTE   N05  Gn4  v036
 BYTE   W08
 BYTE   N13  Fn4  v084
 BYTE   W16
 BYTE   N05  Fn4  v036
 BYTE   W08
// 003   ----------------------------------------
 BYTE   N13  Dn4  v080
 BYTE   W16
 BYTE   N05  Dn4  v028
 BYTE   W08
 BYTE   N13  An4  v084
 BYTE   W16
 BYTE   N05  An4  v036
 BYTE   W08
 BYTE   N13  Fn4  v080
 BYTE   W16
 BYTE   N05  Fn4  v028
 BYTE   W32
// 004   ----------------------------------------
 BYTE   N13  As3  v080
 BYTE   W16
 BYTE   N05  As3  v028
 BYTE   W08
 BYTE   N13  Dn4  v084
 BYTE   W16
 BYTE   N05  Dn4  v036
 BYTE   W08
 BYTE   N13  As4  v080
 BYTE   W16
 BYTE   N05  As4  v028
 BYTE   W08
 BYTE   N13  An4  v084
 BYTE   W16
 BYTE   N05  An4  v036
 BYTE   W08
// 005   ----------------------------------------
 BYTE   N13  Fn4  v080
 BYTE   W16
 BYTE   N05  Fn4  v028
 BYTE   W08
 BYTE   N13  Cn4  v084
 BYTE   W16
 BYTE   N05  Cn4  v036
 BYTE   W08
 BYTE   N13  Fn4  v080
 BYTE   W16
 BYTE   N05  Fn4  v028
 BYTE   W08
 BYTE   N13  Dn4  v084
 BYTE   W16
 BYTE   N05  Dn4  v036
 BYTE   W08
// 006   ----------------------------------------
 BYTE   N13  Bn3  v080
 BYTE   W16
 BYTE   N05  Bn3  v028
 BYTE   W08
 BYTE   N13  Dn4  v084
 BYTE   W16
 BYTE   N05  Dn4  v036
 BYTE   W08
 BYTE   N13  Gn4  v080
 BYTE   W16
 BYTE   N05  Gn4  v028
 BYTE   W08
 BYTE   N13  An4  v084
 BYTE   W16
 BYTE   N05  An4  v036
 BYTE   W08
// 007   ----------------------------------------
 BYTE   N13  En4  v080
 BYTE   W16
 BYTE   N05  En4  v028
 BYTE   W08
 BYTE   N13  Dn4  v084
 BYTE   W16
 BYTE   N05  Dn4  v036
 BYTE   W08
 BYTE   N13  En4  v080
 BYTE   W16
 BYTE   N05  En4  v028
 BYTE   W32
// 008   ----------------------------------------
 BYTE   W96
// 009   ----------------------------------------
 BYTE   W96
// 010   ----------------------------------------
 BYTE   W96
// 011   ----------------------------------------
 BYTE   W96
// 012   ----------------------------------------
 BYTE   W96
// 013   ----------------------------------------
 BYTE   W96
// 014   ----------------------------------------
 BYTE   W96
// 015   ----------------------------------------
 BYTE   W96
// 016   ----------------------------------------
 BYTE   W96
// 017   ----------------------------------------
 BYTE   W96
// 018   ----------------------------------------
 BYTE   W96
// 019   ----------------------------------------
 BYTE   W96
// 020   ----------------------------------------
 BYTE   W96
// 021   ----------------------------------------
 BYTE   W96
// 022   ----------------------------------------
 BYTE   W96
// 023   ----------------------------------------
 BYTE   W96
// 024   ----------------------------------------
 BYTE   W68
 BYTE   W03
 BYTE   GoTo
  POIN2 Label_8_01182BA2
 BYTE   FINE

//******************************************************//
	ALIGN 4

PokemonBWNsCastleDolkar:
	BYTE	9	// NumTrks
	BYTE	0	// NumBlks
	BYTE	PokemonBWNsCastleDolkar_pri	// Priority
	BYTE	PokemonBWNsCastleDolkar_rev	// Reverb.
    
	POIN2	PokemonBWNsCastleDolkar_grp
    
	POIN2	PokemonBWNsCastleDolkar_001
	POIN2	PokemonBWNsCastleDolkar_002
	POIN2	PokemonBWNsCastleDolkar_003
	POIN2	PokemonBWNsCastleDolkar_004
	POIN2	PokemonBWNsCastleDolkar_005
	POIN2	PokemonBWNsCastleDolkar_006
	POIN2	PokemonBWNsCastleDolkar_007
	POIN2	PokemonBWNsCastleDolkar_008
	POIN2	PokemonBWNsCastleDolkar_009

	
