//Event file generated from Sappy .s format.
	#include "MPlayDef.event"

	#define	PokemonMDExplorersDialgasFighttotheFinishGratedShtick_grp  voicegroup000
	#define	PokemonMDExplorersDialgasFighttotheFinishGratedShtick_pri  0
	#define	PokemonMDExplorersDialgasFighttotheFinishGratedShtick_rev  0
	#define	PokemonMDExplorersDialgasFighttotheFinishGratedShtick_mvl  127
	#define	PokemonMDExplorersDialgasFighttotheFinishGratedShtick_key  0
	#define	PokemonMDExplorersDialgasFighttotheFinishGratedShtick_tbs  1
	#define	PokemonMDExplorersDialgasFighttotheFinishGratedShtick_exg  0
	#define	PokemonMDExplorersDialgasFighttotheFinishGratedShtick_cmp  1

	// .rodata
	//	PokemonMDExplorersDialgasFighttotheFinishGratedShtick
	ALIGN 4


//**************** Track 1 (Midi-Chn.0) ****************//

PokemonMDExplorersDialgasFighttotheFinishGratedShtick_001:
// 000   ----------------------------------------
 BYTE   KEYSH   PokemonMDExplorersDialgasFighttotheFinishGratedShtick_key+0
 BYTE   TEMPO   120*PokemonMDExplorersDialgasFighttotheFinishGratedShtick_tbs/2
 BYTE   W24
 BYTE   TEMPO   148*PokemonMDExplorersDialgasFighttotheFinishGratedShtick_tbs/2
 BYTE   VOICE   48
 BYTE   VOL   56*PokemonMDExplorersDialgasFighttotheFinishGratedShtick_mvl/mxv
 BYTE   PAN   c_v-20
 BYTE   W24
 BYTE   N92  Cn2  v127
 BYTE   W72
// 001   ----------------------------------------
 BYTE   W24
 BYTE   Dn2
 BYTE   W72
// 002   ----------------------------------------
 BYTE   W24
 BYTE   Bn1
 BYTE   W72
// 003   ----------------------------------------
 BYTE   W24
 BYTE   An1
 BYTE   W72
// 004   ----------------------------------------
 BYTE   W24
 BYTE   Cn2
 BYTE   W72
// 005   ----------------------------------------
 BYTE   W24
 BYTE   N92
 BYTE   W72
// 006   ----------------------------------------
 BYTE   W24
 BYTE   Dn2
 BYTE   W72
// 007   ----------------------------------------
 BYTE   W24
 BYTE   N92
 BYTE   W72
// 008   ----------------------------------------
 BYTE   W24
 BYTE   TIE  En2
 BYTE   W72
// 009   ----------------------------------------
 BYTE   W96
// 010   ----------------------------------------
 BYTE   W96
// 011   ----------------------------------------
 BYTE   W96
// 012   ----------------------------------------
 BYTE   W23
 BYTE   EOT
 BYTE   PAN   c_v+0
 BYTE   W01
Label_0_01085C0F:
 BYTE   N92  Cn2  v127
 BYTE   W72
// 013   ----------------------------------------
 BYTE   W24
 BYTE   Dn2
 BYTE   W72
// 014   ----------------------------------------
 BYTE   W24
 BYTE   En2
 BYTE   W72
// 015   ----------------------------------------
 BYTE   W24
 BYTE   Dn2
 BYTE   W72
// 016   ----------------------------------------
 BYTE   W24
 BYTE   Cn2
 BYTE   W72
// 017   ----------------------------------------
 BYTE   W24
 BYTE   Dn2
 BYTE   W72
// 018   ----------------------------------------
 BYTE   W24
 BYTE   En2
 BYTE   W72
// 019   ----------------------------------------
 BYTE   W24
 BYTE   Dn2
 BYTE   W72
// 020   ----------------------------------------
 BYTE   W24
 BYTE   Cn2
 BYTE   W72
// 021   ----------------------------------------
 BYTE   W24
 BYTE   Dn2
 BYTE   W72
// 022   ----------------------------------------
 BYTE   W24
 BYTE   En2
 BYTE   W72
// 023   ----------------------------------------
 BYTE   W24
 BYTE   Dn2
 BYTE   W72
// 024   ----------------------------------------
 BYTE   W24
 BYTE   TIE  Cn2
 BYTE   W72
// 025   ----------------------------------------
 BYTE   W96
// 026   ----------------------------------------
 BYTE   W23
 BYTE   EOT
 BYTE   W01
 BYTE   TIE  Dn2
 BYTE   W72
// 027   ----------------------------------------
 BYTE   W96
// 028   ----------------------------------------
 BYTE   W23
 BYTE   EOT
 BYTE   W01
 BYTE   N92  En2
 BYTE   W72
// 029   ----------------------------------------
 BYTE   W24
 BYTE   Dn2
 BYTE   W72
// 030   ----------------------------------------
 BYTE   W24
 BYTE   N44  Cn2
 BYTE   W48
 BYTE   En2
 BYTE   W24
// 031   ----------------------------------------
Label_0_01085C4F:
 BYTE   W24
 BYTE   N44  Dn2  v127
 BYTE   W48
 BYTE   Bn1
 BYTE   W24
 BYTE   PEND 
// 032   ----------------------------------------
 BYTE   W24
 BYTE   N92  En2
 BYTE   W72
// 033   ----------------------------------------
Label_0_01085C5B:
 BYTE   W24
 BYTE   N44  Dn2  v127
 BYTE   W48
 BYTE   N44
 BYTE   W24
 BYTE   PEND 
// 034   ----------------------------------------
Label_0_01085C63:
 BYTE   W24
 BYTE   N44  Cn2  v127
 BYTE   W48
 BYTE   Cs2
 BYTE   W24
 BYTE   PEND 
// 035   ----------------------------------------
 BYTE   W24
 BYTE   Bn1
 BYTE   W48
 BYTE   Ds2
 BYTE   W24
// 036   ----------------------------------------
 BYTE   W24
 BYTE   N92  En2
 BYTE   W72
 BYTE   PATT
  POIN2 Label_0_01085C5B
// 037   ----------------------------------------
 BYTE   W24
 BYTE   N44  Cn2  v127
 BYTE   W48
 BYTE   N44
 BYTE   W24
 BYTE   PATT
  POIN2 Label_0_01085C4F
// 038   ----------------------------------------
 BYTE   W24
 BYTE   N44  Cn2  v127
 BYTE   W48
 BYTE   Dn2
 BYTE   W24
// 039   ----------------------------------------
 BYTE   W24
 BYTE   Bn1
 BYTE   W48
 BYTE   En2
 BYTE   W24
 BYTE   PATT
  POIN2 Label_0_01085C63
// 040   ----------------------------------------
 BYTE   W24
 BYTE   N92  Bn1  v127
 BYTE   W72
// 041   ----------------------------------------
 BYTE   W24
 BYTE   Cn3  v108
 BYTE   W72
// 042   ----------------------------------------
 BYTE   W24
 BYTE   Bn2
 BYTE   W72
// 043   ----------------------------------------
 BYTE   W24
 BYTE   An2
 BYTE   W72
// 044   ----------------------------------------
 BYTE   W24
 BYTE   Gn2
 BYTE   W72
// 045   ----------------------------------------
 BYTE   W23
 BYTE   PAN   c_v-20
 BYTE   W01
 BYTE   N44  Cn2  v127
 BYTE   W48
 BYTE   Dn2
 BYTE   W24
// 046   ----------------------------------------
 BYTE   W24
 BYTE   Ds2
 BYTE   W48
 BYTE   En2
 BYTE   W24
// 047   ----------------------------------------
 BYTE   W24
 BYTE   Gn1
 BYTE   W48
 BYTE   An1
 BYTE   W24
// 048   ----------------------------------------
 BYTE   W24
 BYTE   TIE  Bn1
 BYTE   W72
// 049   ----------------------------------------
 BYTE   W96
// 050   ----------------------------------------
 BYTE   W23
 BYTE   EOT
 BYTE   W72
 BYTE   W01
// 051   ----------------------------------------
 BYTE   W24
 BYTE   N92  Cn2
 BYTE   W72
// 052   ----------------------------------------
 BYTE   W24
 BYTE   Dn2
 BYTE   W72
// 053   ----------------------------------------
 BYTE   W24
 BYTE   En2
 BYTE   W72
// 054   ----------------------------------------
 BYTE   W24
 BYTE   Dn2
 BYTE   W72
// 055   ----------------------------------------
 BYTE   W24
 BYTE   Cn2
 BYTE   W72
// 056   ----------------------------------------
 BYTE   W24
 BYTE   Dn2
 BYTE   W72
// 057   ----------------------------------------
 BYTE   W24
 BYTE   En2
 BYTE   W72
// 058   ----------------------------------------
 BYTE   W24
 BYTE   Dn2
 BYTE   W72
// 059   ----------------------------------------
 BYTE   W24
 BYTE   Cn2
 BYTE   W72
// 060   ----------------------------------------
 BYTE   W24
 BYTE   Dn2
 BYTE   W72
// 061   ----------------------------------------
 BYTE   W24
 BYTE   En2
 BYTE   W72
// 062   ----------------------------------------
 BYTE   W24
 BYTE   Dn2
 BYTE   W72
// 063   ----------------------------------------
 BYTE   W24
 BYTE   Cn2
 BYTE   W72
// 064   ----------------------------------------
 BYTE   W24
 BYTE   N92
 BYTE   W72
// 065   ----------------------------------------
 BYTE   W24
 BYTE   Dn2
 BYTE   W72
// 066   ----------------------------------------
 BYTE   W24
 BYTE   N92
 BYTE   W72
// 067   ----------------------------------------
 BYTE   W96
// 068   ----------------------------------------
 BYTE   W96
// 069   ----------------------------------------
 BYTE   W96
// 070   ----------------------------------------
 BYTE   W96
// 071   ----------------------------------------
 BYTE   W11
 BYTE   GoTo
  POIN2 Label_0_01085C0F
 BYTE   FINE

//**************** Track 2 (Midi-Chn.1) ****************//

PokemonMDExplorersDialgasFighttotheFinishGratedShtick_002:
// 000   ----------------------------------------
 BYTE   KEYSH   PokemonMDExplorersDialgasFighttotheFinishGratedShtick_key+0
 BYTE   W24
 BYTE   VOICE   48
 BYTE   VOL   51*PokemonMDExplorersDialgasFighttotheFinishGratedShtick_mvl/mxv
 BYTE   PAN   c_v+20
 BYTE   W24
 BYTE   N92  En3  v100
 BYTE   W72
// 001   ----------------------------------------
 BYTE   W24
 BYTE   Dn3
 BYTE   W72
// 002   ----------------------------------------
 BYTE   W24
 BYTE   Fs3
 BYTE   W72
// 003   ----------------------------------------
 BYTE   W24
 BYTE   N44  En3
 BYTE   W48
 BYTE   Cs3
 BYTE   W24
// 004   ----------------------------------------
 BYTE   W24
 BYTE   N92  Cn3
 BYTE   W72
// 005   ----------------------------------------
 BYTE   W24
 BYTE   Bn2
 BYTE   W72
// 006   ----------------------------------------
 BYTE   W24
 BYTE   En3
 BYTE   W72
// 007   ----------------------------------------
 BYTE   W24
 BYTE   Dn3
 BYTE   W72
// 008   ----------------------------------------
 BYTE   W24
 BYTE   TIE
 BYTE   W72
// 009   ----------------------------------------
 BYTE   W96
// 010   ----------------------------------------
 BYTE   W96
// 011   ----------------------------------------
 BYTE   W96
// 012   ----------------------------------------
 BYTE   W23
 BYTE   EOT
 BYTE   W01
Label_1_01085D34:
 BYTE   W72
// 013   ----------------------------------------
 BYTE   W96
// 014   ----------------------------------------
 BYTE   W96
// 015   ----------------------------------------
 BYTE   W96
// 016   ----------------------------------------
 BYTE   W96
// 017   ----------------------------------------
 BYTE   W96
// 018   ----------------------------------------
 BYTE   W96
// 019   ----------------------------------------
 BYTE   W96
// 020   ----------------------------------------
 BYTE   W96
// 021   ----------------------------------------
 BYTE   W96
// 022   ----------------------------------------
 BYTE   W96
// 023   ----------------------------------------
 BYTE   W96
// 024   ----------------------------------------
 BYTE   W96
// 025   ----------------------------------------
 BYTE   W96
// 026   ----------------------------------------
 BYTE   W96
// 027   ----------------------------------------
 BYTE   W96
// 028   ----------------------------------------
 BYTE   W96
// 029   ----------------------------------------
 BYTE   W96
// 030   ----------------------------------------
 BYTE   W96
// 031   ----------------------------------------
 BYTE   W96
// 032   ----------------------------------------
 BYTE   W96
// 033   ----------------------------------------
 BYTE   W96
// 034   ----------------------------------------
 BYTE   W96
// 035   ----------------------------------------
 BYTE   W96
// 036   ----------------------------------------
 BYTE   W96
// 037   ----------------------------------------
 BYTE   W96
// 038   ----------------------------------------
 BYTE   W96
// 039   ----------------------------------------
 BYTE   W96
// 040   ----------------------------------------
 BYTE   W96
// 041   ----------------------------------------
 BYTE   W96
// 042   ----------------------------------------
 BYTE   W96
// 043   ----------------------------------------
 BYTE   W96
// 044   ----------------------------------------
 BYTE   W96
// 045   ----------------------------------------
 BYTE   W96
// 046   ----------------------------------------
 BYTE   W96
// 047   ----------------------------------------
 BYTE   W32
 BYTE   VOICE   48
 BYTE   W01
 BYTE   VOL   51*PokemonMDExplorersDialgasFighttotheFinishGratedShtick_mvl/mxv
 BYTE   PAN   c_v+20
 BYTE   W60
 BYTE   W03
// 048   ----------------------------------------
 BYTE   W24
 BYTE   N44  En3  v096
 BYTE   W48
 BYTE   Dn3
 BYTE   W24
// 049   ----------------------------------------
 BYTE   W24
 BYTE   Fs3
 BYTE   W48
 BYTE   En3
 BYTE   W24
// 050   ----------------------------------------
 BYTE   W24
 BYTE   Dn3  v100
 BYTE   W48
 BYTE   Cs3
 BYTE   W24
// 051   ----------------------------------------
 BYTE   W24
 BYTE   TIE  Bn2
 BYTE   W72
// 052   ----------------------------------------
 BYTE   W96
// 053   ----------------------------------------
 BYTE   W23
 BYTE   EOT
 BYTE   W72
 BYTE   W01
// 054   ----------------------------------------
Label_1_01085D7C:
 BYTE   W24
 BYTE   N44  Bn3  v100
 BYTE   W48
 BYTE   Gn3
 BYTE   W24
 BYTE   PEND 
// 055   ----------------------------------------
Label_1_01085D84:
 BYTE   W24
 BYTE   N44  An3  v100
 BYTE   W48
 BYTE   Fs3
 BYTE   W24
 BYTE   PEND 
// 056   ----------------------------------------
Label_1_01085D8C:
 BYTE   W24
 BYTE   N44  Bn3  v100
 BYTE   W48
 BYTE   An3
 BYTE   W24
 BYTE   PEND 
// 057   ----------------------------------------
Label_1_01085D94:
 BYTE   W24
 BYTE   N44  Dn4  v100
 BYTE   W48
 BYTE   Cs4
 BYTE   W24
 BYTE   PEND 
 BYTE   PATT
  POIN2 Label_1_01085D7C
 BYTE   PATT
  POIN2 Label_1_01085D84
 BYTE   PATT
  POIN2 Label_1_01085D8C
 BYTE   PATT
  POIN2 Label_1_01085D94
 BYTE   PATT
  POIN2 Label_1_01085D7C
 BYTE   PATT
  POIN2 Label_1_01085D84
 BYTE   PATT
  POIN2 Label_1_01085D8C
// 058   ----------------------------------------
 BYTE   W24
 BYTE   N44  Fs3  v100
 BYTE   W48
 BYTE   En3
 BYTE   W24
// 059   ----------------------------------------
 BYTE   W24
 BYTE   N92
 BYTE   W72
// 060   ----------------------------------------
 BYTE   W24
 BYTE   N92
 BYTE   W72
// 061   ----------------------------------------
 BYTE   W24
 BYTE   N92
 BYTE   W72
// 062   ----------------------------------------
 BYTE   W24
 BYTE   Dn3
 BYTE   W72
// 063   ----------------------------------------
 BYTE   W96
// 064   ----------------------------------------
 BYTE   W96
// 065   ----------------------------------------
 BYTE   W96
// 066   ----------------------------------------
 BYTE   W96
// 067   ----------------------------------------
 BYTE   W11
 BYTE   GoTo
  POIN2 Label_1_01085D34
 BYTE   FINE

//**************** Track 3 (Midi-Chn.2) ****************//

PokemonMDExplorersDialgasFighttotheFinishGratedShtick_003:
// 000   ----------------------------------------
 BYTE   KEYSH   PokemonMDExplorersDialgasFighttotheFinishGratedShtick_key+0
 BYTE   W24
 BYTE   VOICE   48
 BYTE   VOL   51*PokemonMDExplorersDialgasFighttotheFinishGratedShtick_mvl/mxv
 BYTE   PAN   c_v-40
 BYTE   W24
 BYTE   N92  Bn2  v100
 BYTE   W72
// 001   ----------------------------------------
 BYTE   W24
 BYTE   An2
 BYTE   W72
// 002   ----------------------------------------
 BYTE   W24
 BYTE   Dn3
 BYTE   W72
// 003   ----------------------------------------
 BYTE   W24
 BYTE   N44  Cs3
 BYTE   W48
 BYTE   An2
 BYTE   W24
// 004   ----------------------------------------
 BYTE   W24
 BYTE   N92
 BYTE   W72
// 005   ----------------------------------------
 BYTE   W24
 BYTE   Gn2
 BYTE   W72
// 006   ----------------------------------------
 BYTE   W24
 BYTE   Bn2
 BYTE   W72
// 007   ----------------------------------------
 BYTE   W24
 BYTE   An2
 BYTE   W72
// 008   ----------------------------------------
 BYTE   W24
 BYTE   TIE  Bn2
 BYTE   W72
// 009   ----------------------------------------
 BYTE   W96
// 010   ----------------------------------------
 BYTE   W96
// 011   ----------------------------------------
 BYTE   W96
// 012   ----------------------------------------
 BYTE   W23
 BYTE   EOT
 BYTE   PAN   c_v-40
 BYTE   W01
Label_2_01085E12:
 BYTE   N92  Gn2  v096
 BYTE   W72
// 013   ----------------------------------------
 BYTE   W24
 BYTE   An2
 BYTE   W72
// 014   ----------------------------------------
 BYTE   W24
 BYTE   Bn2
 BYTE   W72
// 015   ----------------------------------------
 BYTE   W24
 BYTE   N92
 BYTE   W72
// 016   ----------------------------------------
 BYTE   W24
 BYTE   Gn2
 BYTE   W72
// 017   ----------------------------------------
 BYTE   W24
 BYTE   An2
 BYTE   W72
// 018   ----------------------------------------
 BYTE   W24
 BYTE   Bn2
 BYTE   W72
// 019   ----------------------------------------
 BYTE   W24
 BYTE   N92
 BYTE   W72
// 020   ----------------------------------------
 BYTE   W24
 BYTE   Gn2
 BYTE   W72
// 021   ----------------------------------------
 BYTE   W24
 BYTE   An2
 BYTE   W72
// 022   ----------------------------------------
 BYTE   W24
 BYTE   Bn2
 BYTE   W72
// 023   ----------------------------------------
 BYTE   W24
 BYTE   N92
 BYTE   W72
// 024   ----------------------------------------
 BYTE   W24
 BYTE   TIE
 BYTE   W72
// 025   ----------------------------------------
 BYTE   W96
// 026   ----------------------------------------
 BYTE   W23
 BYTE   EOT
 BYTE   W01
 BYTE   TIE  An2
 BYTE   W72
// 027   ----------------------------------------
 BYTE   W96
// 028   ----------------------------------------
 BYTE   W23
 BYTE   EOT
 BYTE   W01
 BYTE   N92  Bn2
 BYTE   W72
// 029   ----------------------------------------
 BYTE   W24
 BYTE   Dn3
 BYTE   W72
// 030   ----------------------------------------
 BYTE   W24
 BYTE   Cn3
 BYTE   W72
// 031   ----------------------------------------
 BYTE   W24
 BYTE   Dn3
 BYTE   W72
// 032   ----------------------------------------
 BYTE   W24
 BYTE   Bn2
 BYTE   W72
// 033   ----------------------------------------
Label_2_01085E54:
 BYTE   W24
 BYTE   N44  An2  v096
 BYTE   W48
 BYTE   Dn3
 BYTE   W24
 BYTE   PEND 
// 034   ----------------------------------------
 BYTE   W24
 BYTE   En3
 BYTE   W48
 BYTE   Gn3
 BYTE   W24
// 035   ----------------------------------------
 BYTE   W24
 BYTE   N92  Fs3
 BYTE   W72
// 036   ----------------------------------------
 BYTE   W24
 BYTE   Bn2
 BYTE   W72
 BYTE   PATT
  POIN2 Label_2_01085E54
// 037   ----------------------------------------
 BYTE   W24
 BYTE   N44  Cn3  v096
 BYTE   W48
 BYTE   En3
 BYTE   W24
// 038   ----------------------------------------
 BYTE   W24
 BYTE   N92  Dn3
 BYTE   W72
// 039   ----------------------------------------
Label_2_01085E78:
 BYTE   W24
 BYTE   N44  Bn2  v096
 BYTE   W48
 BYTE   An2
 BYTE   W24
 BYTE   PEND 
// 040   ----------------------------------------
 BYTE   W24
 BYTE   Dn3
 BYTE   W48
 BYTE   Bn2
 BYTE   W24
// 041   ----------------------------------------
 BYTE   W24
 BYTE   An2
 BYTE   W48
 BYTE   N44
 BYTE   W24
// 042   ----------------------------------------
 BYTE   W24
 BYTE   N92  Bn2
 BYTE   W72
// 043   ----------------------------------------
 BYTE   W96
// 044   ----------------------------------------
 BYTE   W96
// 045   ----------------------------------------
 BYTE   W96
// 046   ----------------------------------------
 BYTE   W36
 BYTE   W02
 BYTE   VOICE   48
 BYTE   W01
 BYTE   VOL   51*PokemonMDExplorersDialgasFighttotheFinishGratedShtick_mvl/mxv
 BYTE   PAN   c_v-63
 BYTE   W56
 BYTE   W01
 BYTE   PATT
  POIN2 Label_2_01085E78
// 047   ----------------------------------------
 BYTE   W24
 BYTE   N44  Cn3  v096
 BYTE   W48
 BYTE   Bn2
 BYTE   W24
// 048   ----------------------------------------
 BYTE   W24
 BYTE   Bn2  v100
 BYTE   W48
 BYTE   An2
 BYTE   W24
// 049   ----------------------------------------
 BYTE   W24
 BYTE   TIE  Fs2
 BYTE   W72
// 050   ----------------------------------------
 BYTE   W96
// 051   ----------------------------------------
 BYTE   W23
 BYTE   EOT
 BYTE   W72
 BYTE   W01
// 052   ----------------------------------------
 BYTE   W24
 BYTE   N92  En3
 BYTE   W72
// 053   ----------------------------------------
Label_2_01085EBB:
 BYTE   W24
 BYTE   N44  Dn3  v100
 BYTE   W48
 BYTE   N44
 BYTE   W24
 BYTE   PEND 
// 054   ----------------------------------------
Label_2_01085EC3:
 BYTE   W24
 BYTE   N44  Dn3  v100
 BYTE   W48
 BYTE   En3
 BYTE   W24
 BYTE   PEND 
// 055   ----------------------------------------
Label_2_01085ECB:
 BYTE   W24
 BYTE   N44  Fs3  v100
 BYTE   W48
 BYTE   N44
 BYTE   W24
 BYTE   PEND 
// 056   ----------------------------------------
 BYTE   W24
 BYTE   N92  En3
 BYTE   W72
 BYTE   PATT
  POIN2 Label_2_01085EBB
 BYTE   PATT
  POIN2 Label_2_01085EC3
 BYTE   PATT
  POIN2 Label_2_01085ECB
// 057   ----------------------------------------
 BYTE   W24
 BYTE   N92  En3  v100
 BYTE   W72
 BYTE   PATT
  POIN2 Label_2_01085EBB
 BYTE   PATT
  POIN2 Label_2_01085EC3
 BYTE   PATT
  POIN2 Label_2_01085EBB
// 058   ----------------------------------------
 BYTE   W24
 BYTE   N92  Cn3  v100
 BYTE   W72
// 059   ----------------------------------------
 BYTE   W24
 BYTE   Bn2
 BYTE   W72
// 060   ----------------------------------------
 BYTE   W24
 BYTE   N92
 BYTE   W72
// 061   ----------------------------------------
 BYTE   W24
 BYTE   An2
 BYTE   W72
// 062   ----------------------------------------
 BYTE   W96
// 063   ----------------------------------------
 BYTE   W96
// 064   ----------------------------------------
 BYTE   W96
// 065   ----------------------------------------
 BYTE   W96
// 066   ----------------------------------------
 BYTE   W11
 BYTE   GoTo
  POIN2 Label_2_01085E12
 BYTE   FINE

//**************** Track 4 (Midi-Chn.3) ****************//

PokemonMDExplorersDialgasFighttotheFinishGratedShtick_004:
// 000   ----------------------------------------
 BYTE   KEYSH   PokemonMDExplorersDialgasFighttotheFinishGratedShtick_key+0
 BYTE   W24
 BYTE   VOICE   48
 BYTE   VOL   51*PokemonMDExplorersDialgasFighttotheFinishGratedShtick_mvl/mxv
 BYTE   PAN   c_v+40
 BYTE   W24
 BYTE   N92  Gn2  v100
 BYTE   W72
// 001   ----------------------------------------
 BYTE   W24
 BYTE   Fs2
 BYTE   W72
// 002   ----------------------------------------
 BYTE   W24
 BYTE   En2
 BYTE   W72
// 003   ----------------------------------------
 BYTE   W24
 BYTE   Fs2
 BYTE   W72
// 004   ----------------------------------------
 BYTE   W24
 BYTE   En2
 BYTE   W72
// 005   ----------------------------------------
 BYTE   W24
 BYTE   N92
 BYTE   W72
// 006   ----------------------------------------
 BYTE   W24
 BYTE   Fs2
 BYTE   W72
// 007   ----------------------------------------
 BYTE   W24
 BYTE   N92
 BYTE   W72
// 008   ----------------------------------------
 BYTE   W24
 BYTE   TIE  An2
 BYTE   W72
// 009   ----------------------------------------
 BYTE   W96
// 010   ----------------------------------------
 BYTE   W96
// 011   ----------------------------------------
 BYTE   W96
// 012   ----------------------------------------
 BYTE   W23
 BYTE   EOT
 BYTE   W01
Label_3_01085F41:
 BYTE   N92  En2  v096
 BYTE   W72
// 013   ----------------------------------------
 BYTE   W24
 BYTE   Fs2
 BYTE   W72
// 014   ----------------------------------------
 BYTE   W24
 BYTE   An2
 BYTE   W72
// 015   ----------------------------------------
 BYTE   W24
 BYTE   Fs2
 BYTE   W72
// 016   ----------------------------------------
 BYTE   W24
 BYTE   En2
 BYTE   W72
// 017   ----------------------------------------
 BYTE   W24
 BYTE   Fs2
 BYTE   W72
// 018   ----------------------------------------
 BYTE   W24
 BYTE   An2
 BYTE   W72
// 019   ----------------------------------------
 BYTE   W24
 BYTE   Fs2
 BYTE   W72
// 020   ----------------------------------------
 BYTE   W24
 BYTE   En2
 BYTE   W72
// 021   ----------------------------------------
 BYTE   W24
 BYTE   Fs2
 BYTE   W72
// 022   ----------------------------------------
 BYTE   W24
 BYTE   An2
 BYTE   W72
// 023   ----------------------------------------
 BYTE   W24
 BYTE   Fs2
 BYTE   W72
// 024   ----------------------------------------
 BYTE   W24
 BYTE   TIE  En2
 BYTE   W72
// 025   ----------------------------------------
 BYTE   W96
// 026   ----------------------------------------
 BYTE   W23
 BYTE   EOT
 BYTE   W01
 BYTE   TIE  Fs2
 BYTE   W72
// 027   ----------------------------------------
 BYTE   W96
// 028   ----------------------------------------
 BYTE   W23
 BYTE   EOT
 BYTE   W01
 BYTE   N92  Gn2
 BYTE   W72
// 029   ----------------------------------------
 BYTE   W24
 BYTE   Fs2
 BYTE   W72
// 030   ----------------------------------------
Label_3_01085F7B:
 BYTE   W24
 BYTE   N44  En2  v096
 BYTE   W48
 BYTE   Gn2
 BYTE   W24
 BYTE   PEND 
// 031   ----------------------------------------
Label_3_01085F83:
 BYTE   W24
 BYTE   N44  Fs2  v096
 BYTE   W48
 BYTE   An2
 BYTE   W24
 BYTE   PEND 
// 032   ----------------------------------------
 BYTE   W24
 BYTE   N92  Gn2
 BYTE   W72
// 033   ----------------------------------------
 BYTE   W24
 BYTE   Fs2
 BYTE   W72
// 034   ----------------------------------------
 BYTE   W24
 BYTE   N44  Gn2
 BYTE   W48
 BYTE   An2
 BYTE   W24
// 035   ----------------------------------------
 BYTE   W24
 BYTE   N92  Bn2
 BYTE   W72
// 036   ----------------------------------------
 BYTE   W24
 BYTE   Gn2
 BYTE   W72
// 037   ----------------------------------------
 BYTE   W24
 BYTE   N44  Fs2
 BYTE   W48
 BYTE   N44
 BYTE   W24
 BYTE   PATT
  POIN2 Label_3_01085F7B
 BYTE   PATT
  POIN2 Label_3_01085F83
// 038   ----------------------------------------
Label_3_01085FAF:
 BYTE   W24
 BYTE   N44  Gn2  v096
 BYTE   W48
 BYTE   Fs2
 BYTE   W24
 BYTE   PEND 
// 039   ----------------------------------------
Label_3_01085FB7:
 BYTE   W24
 BYTE   N44  An2  v096
 BYTE   W48
 BYTE   Gn2
 BYTE   W24
 BYTE   PEND 
// 040   ----------------------------------------
 BYTE   W24
 BYTE   N92
 BYTE   W72
// 041   ----------------------------------------
 BYTE   W24
 BYTE   Fs2
 BYTE   W72
// 042   ----------------------------------------
 BYTE   W96
// 043   ----------------------------------------
 BYTE   W96
// 044   ----------------------------------------
 BYTE   W96
// 045   ----------------------------------------
 BYTE   W44
 BYTE   VOICE   48
 BYTE   W01
 BYTE   PAN   c_v+63
 BYTE   W48
 BYTE   W03
 BYTE   PATT
  POIN2 Label_3_01085FAF
 BYTE   PATT
  POIN2 Label_3_01085FB7
// 046   ----------------------------------------
 BYTE   W24
 BYTE   N44  Gn2  v100
 BYTE   W48
 BYTE   En2
 BYTE   W24
// 047   ----------------------------------------
 BYTE   W24
 BYTE   TIE
 BYTE   W72
// 048   ----------------------------------------
 BYTE   W96
// 049   ----------------------------------------
 BYTE   W23
 BYTE   EOT
 BYTE   W72
 BYTE   W01
// 050   ----------------------------------------
 BYTE   W24
 BYTE   N92  Bn2
 BYTE   W72
// 051   ----------------------------------------
 BYTE   W24
 BYTE   An2
 BYTE   W72
// 052   ----------------------------------------
Label_3_01085FF0:
 BYTE   W24
 BYTE   N44  An2  v100
 BYTE   W48
 BYTE   Bn2
 BYTE   W24
 BYTE   PEND 
// 053   ----------------------------------------
Label_3_01085FF8:
 BYTE   W24
 BYTE   N44  Bn2  v100
 BYTE   W48
 BYTE   An2
 BYTE   W24
 BYTE   PEND 
// 054   ----------------------------------------
 BYTE   W24
 BYTE   N92  Bn2
 BYTE   W72
// 055   ----------------------------------------
 BYTE   W24
 BYTE   An2
 BYTE   W72
 BYTE   PATT
  POIN2 Label_3_01085FF0
 BYTE   PATT
  POIN2 Label_3_01085FF8
// 056   ----------------------------------------
 BYTE   W24
 BYTE   N92  Bn2  v100
 BYTE   W72
// 057   ----------------------------------------
 BYTE   W24
 BYTE   An2
 BYTE   W72
 BYTE   PATT
  POIN2 Label_3_01085FF0
// 058   ----------------------------------------
 BYTE   W24
 BYTE   N44  Bn2  v100
 BYTE   W48
 BYTE   N44
 BYTE   W24
// 059   ----------------------------------------
 BYTE   W24
 BYTE   N92  An2
 BYTE   W72
// 060   ----------------------------------------
 BYTE   W24
 BYTE   Gn2
 BYTE   W72
// 061   ----------------------------------------
 BYTE   W24
 BYTE   Fs2
 BYTE   W72
// 062   ----------------------------------------
 BYTE   W24
 BYTE   N92
 BYTE   W72
// 063   ----------------------------------------
 BYTE   W96
// 064   ----------------------------------------
 BYTE   W96
// 065   ----------------------------------------
 BYTE   W96
// 066   ----------------------------------------
 BYTE   W96
// 067   ----------------------------------------
 BYTE   W11
 BYTE   GoTo
  POIN2 Label_3_01085F41
 BYTE   FINE

//**************** Track 5 (Midi-Chn.4) ****************//

PokemonMDExplorersDialgasFighttotheFinishGratedShtick_005:
// 000   ----------------------------------------
 BYTE   KEYSH   PokemonMDExplorersDialgasFighttotheFinishGratedShtick_key+0
 BYTE   W24
 BYTE   VOICE   48
 BYTE   VOL   53*PokemonMDExplorersDialgasFighttotheFinishGratedShtick_mvl/mxv
 BYTE   PAN   c_v+0
 BYTE   W96
// 001   ----------------------------------------
 BYTE   W96
// 002   ----------------------------------------
 BYTE   W96
// 003   ----------------------------------------
 BYTE   W96
// 004   ----------------------------------------
 BYTE   W96
// 005   ----------------------------------------
 BYTE   W96
// 006   ----------------------------------------
 BYTE   W96
// 007   ----------------------------------------
 BYTE   W96
// 008   ----------------------------------------
 BYTE   W96
// 009   ----------------------------------------
 BYTE   W96
// 010   ----------------------------------------
 BYTE   W96
// 011   ----------------------------------------
 BYTE   W96
// 012   ----------------------------------------
 BYTE   W24
Label_4_01086056:
 BYTE   W48
 BYTE   N48  Gn3  v100
 BYTE   N48  Bn3
 BYTE   N48  Dn4
 BYTE   W24
// 013   ----------------------------------------
Label_4_0108605F:
 BYTE   W24
 BYTE   N48  En3  v100
 BYTE   N48  An3
 BYTE   N48  Cs4
 BYTE   W48
 BYTE   Cs3
 BYTE   N48  En3
 BYTE   N48  An3
 BYTE   W24
 BYTE   PEND 
// 014   ----------------------------------------
Label_4_0108606F:
 BYTE   W24
 BYTE   N96  Dn3  v100
 BYTE   N96  Fs3
 BYTE   W72
 BYTE   PEND 
// 015   ----------------------------------------
 BYTE   W24
 BYTE   N48  Dn3
 BYTE   N48  Fs3
 BYTE   N48  An3
 BYTE   W48
 BYTE   Dn3
 BYTE   N48  En3
 BYTE   N48  Gs3
 BYTE   W24
// 016   ----------------------------------------
Label_4_01086085:
 BYTE   W72
 BYTE   N48  Gn3  v100
 BYTE   N48  Bn3
 BYTE   N48  Dn4
 BYTE   W24
 BYTE   PEND 
// 017   ----------------------------------------
 BYTE   W24
 BYTE   En3
 BYTE   N48  An3
 BYTE   N48  Cs4
 BYTE   W48
 BYTE   An3
 BYTE   N48  Cs4
 BYTE   N48  En4
 BYTE   W24
// 018   ----------------------------------------
 BYTE   W24
 BYTE   Fs3
 BYTE   N48  An3
 BYTE   N48  Dn4
 BYTE   W48
 BYTE   Fs3
 BYTE   N48  An3
 BYTE   N48  Cs4
 BYTE   W24
// 019   ----------------------------------------
 BYTE   W24
 BYTE   Dn3
 BYTE   N48  Fs3
 BYTE   N48  Bn3
 BYTE   W48
 BYTE   Dn3
 BYTE   N48  Fs3
 BYTE   N48  An3
 BYTE   W24
 BYTE   PATT
  POIN2 Label_4_01086085
 BYTE   PATT
  POIN2 Label_4_0108605F
 BYTE   PATT
  POIN2 Label_4_0108606F
// 020   ----------------------------------------
 BYTE   W21
 BYTE   W03
 BYTE   N48  Cs3  v100
 BYTE   N48  En3
 BYTE   W48
 BYTE   Fs3
 BYTE   N48  An3
 BYTE   W24
// 021   ----------------------------------------
 BYTE   W24
 BYTE   TIE  Dn3
 BYTE   TIE  Fs3
 BYTE   W72
// 022   ----------------------------------------
 BYTE   W96
// 023   ----------------------------------------
 BYTE   W24
 BYTE   EOT
 BYTE   Dn3  v066
 BYTE   N96  Cs3
 BYTE   N96  En3
 BYTE   W01
 BYTE   W06
 BYTE   W03
 BYTE   W05
 BYTE   W03
 BYTE   W03
 BYTE   W04
 BYTE   W03
 BYTE   W03
 BYTE   W05
 BYTE   W03
 BYTE   W03
 BYTE   W04
 BYTE   W03
 BYTE   W03
 BYTE   W05
 BYTE   W03
 BYTE   W03
 BYTE   W04
 BYTE   W03
 BYTE   W02
// 024   ----------------------------------------
 BYTE   W03
 BYTE   W03
 BYTE   W03
 BYTE   W04
 BYTE   W03
 BYTE   W03
 BYTE   W05
 BYTE   Fs3
 BYTE   N96  An3
 BYTE   W03
 BYTE   W03
 BYTE   W04
 BYTE   W03
 BYTE   W03
 BYTE   W05
 BYTE   W03
 BYTE   W03
 BYTE   W04
 BYTE   W03
 BYTE   W05
 BYTE   W03
 BYTE   W03
 BYTE   W04
 BYTE   W03
 BYTE   W03
 BYTE   W05
 BYTE   W03
 BYTE   W03
 BYTE   W04
 BYTE   W02
// 025   ----------------------------------------
 BYTE   W01
 BYTE   W03
 BYTE   W05
 BYTE   W03
 BYTE   W84
// 026   ----------------------------------------
 BYTE   W21
 BYTE   W72
 BYTE   W03
// 027   ----------------------------------------
 BYTE   W96
// 028   ----------------------------------------
 BYTE   W96
// 029   ----------------------------------------
 BYTE   W96
// 030   ----------------------------------------
 BYTE   W96
// 031   ----------------------------------------
 BYTE   W96
// 032   ----------------------------------------
 BYTE   W96
// 033   ----------------------------------------
 BYTE   W96
// 034   ----------------------------------------
 BYTE   W96
// 035   ----------------------------------------
 BYTE   W96
// 036   ----------------------------------------
 BYTE   W96
// 037   ----------------------------------------
 BYTE   W24
 BYTE   N44  En3  v080
 BYTE   W48
 BYTE   Dn3
 BYTE   W24
// 038   ----------------------------------------
 BYTE   W24
 BYTE   Fs3
 BYTE   W48
 BYTE   En3
 BYTE   W24
// 039   ----------------------------------------
 BYTE   W24
 BYTE   N92
 BYTE   W72
// 040   ----------------------------------------
 BYTE   W24
 BYTE   Ds3
 BYTE   W72
// 041   ----------------------------------------
 BYTE   W23
 BYTE   VOICE   52
 BYTE   W01
 BYTE   N92  En3
 BYTE   N92  Gn3
 BYTE   N92  Bn3
 BYTE   W72
// 042   ----------------------------------------
 BYTE   W24
 BYTE   Dn3
 BYTE   N92  Gn3
 BYTE   N92  Bn3
 BYTE   W72
// 043   ----------------------------------------
 BYTE   W24
 BYTE   Cn3
 BYTE   N92  Gn3
 BYTE   N92  Bn3
 BYTE   W72
// 044   ----------------------------------------
 BYTE   W24
 BYTE   Bn2
 BYTE   N92  Gn3
 BYTE   N92  Bn3
 BYTE   W72
// 045   ----------------------------------------
 BYTE   W96
// 046   ----------------------------------------
 BYTE   W96
// 047   ----------------------------------------
 BYTE   W96
// 048   ----------------------------------------
 BYTE   W96
// 049   ----------------------------------------
 BYTE   W23
 BYTE   VOICE   40
 BYTE   PAN   c_v-20
 BYTE   W72
 BYTE   W01
// 050   ----------------------------------------
 BYTE   W96
// 051   ----------------------------------------
Label_4_01086164:
 BYTE   N06  En4  v092
 BYTE   N06  Bn4
 BYTE   W06
 BYTE   Fs4
 BYTE   N06  Cs5
 BYTE   W06
 BYTE   Gn4
 BYTE   N06  Dn5
 BYTE   W06
 BYTE   An4
 BYTE   N06  En5
 BYTE   W06
 BYTE   N72  Bn4
 BYTE   N72  Fs5
 BYTE   W72
 BYTE   PEND 
// 052   ----------------------------------------
Label_4_0108617C:
 BYTE   N12  Bn4  v052
 BYTE   N12  Fs5
 BYTE   W12
 BYTE   N06  An4  v092
 BYTE   N06  En5
 BYTE   W06
 BYTE   Gn4
 BYTE   N06  Dn5
 BYTE   W06
 BYTE   N30  Fs4
 BYTE   N30  Cs5
 BYTE   W30
 BYTE   N06  Fs4  v052
 BYTE   N06  Cs5
 BYTE   W06
 BYTE   N30  Dn4  v092
 BYTE   N30  An4
 BYTE   W30
 BYTE   N06  Dn4  v052
 BYTE   N06  An4
 BYTE   W06
 BYTE   PEND 
// 053   ----------------------------------------
Label_4_010861A4:
 BYTE   N12  Fs4  v092
 BYTE   N12  Cs5
 BYTE   W12
 BYTE   Fs4  v052
 BYTE   N12  Cs5
 BYTE   W12
 BYTE   N30  En4  v092
 BYTE   N30  Bn4
 BYTE   W30
 BYTE   N06  En4  v052
 BYTE   N06  Bn4
 BYTE   W06
 BYTE   N30  Bn3  v092
 BYTE   N30  Fs4
 BYTE   W30
 BYTE   N06  Bn3  v052
 BYTE   N06  Fs4
 BYTE   W06
 BYTE   PEND 
// 054   ----------------------------------------
 BYTE   N12  An3  v092
 BYTE   N12  En4
 BYTE   W12
 BYTE   An3  v052
 BYTE   N12  En4
 BYTE   W12
 BYTE   N48  Bn3  v092
 BYTE   N48  Fs4
 BYTE   W48
 BYTE   N12  Bn3  v052
 BYTE   N12  Fs4
 BYTE   W12
 BYTE   Bn3  v040
 BYTE   N12  Fs4
 BYTE   W12
 BYTE   PATT
  POIN2 Label_4_01086164
 BYTE   PATT
  POIN2 Label_4_0108617C
// 055   ----------------------------------------
 BYTE   N12  Fs4  v092
 BYTE   N12  Cs5
 BYTE   W12
 BYTE   Fs4  v052
 BYTE   N12  Cs5
 BYTE   W12
 BYTE   N30  En4  v092
 BYTE   N30  Bn4
 BYTE   W30
 BYTE   N06  En4  v052
 BYTE   N06  Bn4
 BYTE   W06
 BYTE   N30  Bn4  v092
 BYTE   N30  Fs5
 BYTE   W30
 BYTE   N06  Bn4  v052
 BYTE   N06  Fs5
 BYTE   W06
// 056   ----------------------------------------
 BYTE   N12  An4  v092
 BYTE   N12  En5
 BYTE   W12
 BYTE   An4  v052
 BYTE   N12  En5
 BYTE   W12
 BYTE   N48  Bn4  v092
 BYTE   N48  Fs5
 BYTE   W48
 BYTE   N12  Bn4  v052
 BYTE   N12  Fs5
 BYTE   W12
 BYTE   Bn4  v040
 BYTE   N12  Fs5
 BYTE   W12
 BYTE   PATT
  POIN2 Label_4_01086164
 BYTE   PATT
  POIN2 Label_4_0108617C
 BYTE   PATT
  POIN2 Label_4_010861A4
// 057   ----------------------------------------
 BYTE   N24  An3  v092
 BYTE   N24  En4
 BYTE   W24
 BYTE   N30  Bn3
 BYTE   N30  Fs4
 BYTE   W30
 BYTE   N06  Bn3  v052
 BYTE   N06  Fs4
 BYTE   W06
 BYTE   N30  An3  v092
 BYTE   N30  En4
 BYTE   W30
 BYTE   N06  An3  v052
 BYTE   N06  En4
 BYTE   W06
// 058   ----------------------------------------
 BYTE   N24  Gn3  v092
 BYTE   N24  Dn4
 BYTE   W24
 BYTE   TIE  En3
 BYTE   TIE  Bn3
 BYTE   W72
// 059   ----------------------------------------
 BYTE   W72
 BYTE   EOT
 BYTE   En3  v071
 BYTE   N12  En3  v052
 BYTE   N12  Bn3
 BYTE   W12
 BYTE   En3  v036
 BYTE   N12  Bn3
 BYTE   W12
// 060   ----------------------------------------
 BYTE   En3  v024
 BYTE   N12  Bn3
 BYTE   W12
 BYTE   En3  v016
 BYTE   N12  Bn3
 BYTE   W84
// 061   ----------------------------------------
 BYTE   N24  Gn3  v092
 BYTE   N24  Dn4
 BYTE   W24
 BYTE   N36  Fs3
 BYTE   N36  Cs4
 BYTE   W36
 BYTE   N30  En3
 BYTE   N30  Bn3
 BYTE   W36
// 062   ----------------------------------------
 BYTE   N18  Dn3
 BYTE   N18  An3
 BYTE   W24
 BYTE   TIE  En3
 BYTE   TIE  Bn3
 BYTE   W72
// 063   ----------------------------------------
 BYTE   W72
 BYTE   EOT
 BYTE   En3  v071
 BYTE   W21
 BYTE   N16  Bn2  v108
 BYTE   N16  En3
 BYTE   W03
// 064   ----------------------------------------
 BYTE   W14
 BYTE   N02  Gn3  v032
 BYTE   W02
 BYTE   An3  v080
 BYTE   W01
 BYTE   Bn3  v076
 BYTE   W02
 BYTE   N01  Cs4  v096
 BYTE   W01
 BYTE   Dn4  v104
 BYTE   W01
 BYTE   En4  v096
 BYTE   W03
 BYTE   TIE
 BYTE   W72
// 065   ----------------------------------------
 BYTE   W92
 BYTE   W01
 BYTE   N07  Dn4  v028
 BYTE   W03
// 066   ----------------------------------------
 BYTE   W02
 BYTE   EOT
 BYTE   En4
 BYTE   W01
 BYTE   N04  Cn4  v040
 BYTE   W02
 BYTE   N03  Bn3  v068
 BYTE   W02
 BYTE   N02  An3  v072
 BYTE   W02
 BYTE   Gn3
 BYTE   W02
 BYTE   GoTo
  POIN2 Label_4_01086056
 BYTE   FINE

//**************** Track 6 (Midi-Chn.5) ****************//

PokemonMDExplorersDialgasFighttotheFinishGratedShtick_006:
// 000   ----------------------------------------
 BYTE   KEYSH   PokemonMDExplorersDialgasFighttotheFinishGratedShtick_key+0
 BYTE   W24
 BYTE   VOICE   73
 BYTE   VOL   40*PokemonMDExplorersDialgasFighttotheFinishGratedShtick_mvl/mxv
 BYTE   PAN   c_v+0
 BYTE   VOL   51*PokemonMDExplorersDialgasFighttotheFinishGratedShtick_mvl/mxv
 BYTE   N05  En5  v127
 BYTE   W06
 BYTE   Fs5
 BYTE   W06
 BYTE   Gn5
 BYTE   W06
 BYTE   An5
 BYTE   W06
 BYTE   N72  Bn5
 BYTE   W72
// 001   ----------------------------------------
 BYTE   N12  Bn5  v068
 BYTE   W12
 BYTE   N05  An5  v127
 BYTE   W06
 BYTE   Gn5
 BYTE   W06
 BYTE   N28  Fs5
 BYTE   W30
 BYTE   N06  Fs5  v064
 BYTE   W06
 BYTE   N28  Dn5  v127
 BYTE   W30
 BYTE   N06  Dn5  v064
 BYTE   W06
// 002   ----------------------------------------
 BYTE   N11  Fs5  v127
 BYTE   W12
 BYTE   N12  Fs5  v064
 BYTE   W12
 BYTE   VOL   46*PokemonMDExplorersDialgasFighttotheFinishGratedShtick_mvl/mxv
 BYTE   N28  En5  v127
 BYTE   W30
 BYTE   N06  En5  v064
 BYTE   W06
 BYTE   N28  Bn4  v127
 BYTE   W30
 BYTE   N06  Bn4  v064
 BYTE   W06
// 003   ----------------------------------------
 BYTE   N17  An4  v127
 BYTE   W18
 BYTE   N06  An4  v064
 BYTE   W06
 BYTE   N28  Bn4  v127
 BYTE   W30
 BYTE   N06  Bn4  v064
 BYTE   W06
 BYTE   N28  An4  v127
 BYTE   W30
 BYTE   N06  An4  v064
 BYTE   W06
// 004   ----------------------------------------
 BYTE   N17  Gn4  v127
 BYTE   W18
 BYTE   N06  Gn4  v064
 BYTE   W06
 BYTE   TIE  En4  v127
 BYTE   W72
// 005   ----------------------------------------
 BYTE   W72
 BYTE   EOT
 BYTE   N12  En4  v064
 BYTE   W12
 BYTE   En4  v048
 BYTE   W12
// 006   ----------------------------------------
 BYTE   En4  v032
 BYTE   W96
// 007   ----------------------------------------
 BYTE   Gn4  v127
 BYTE   W12
 BYTE   Gn4  v064
 BYTE   W12
 BYTE   N30  Fs4  v127
 BYTE   W30
 BYTE   N06  Fs4  v064
 BYTE   W06
 BYTE   N30  En4  v127
 BYTE   W30
 BYTE   N06  En4  v064
 BYTE   W06
// 008   ----------------------------------------
 BYTE   N18  Dn4  v127
 BYTE   W18
 BYTE   N06  Dn4  v064
 BYTE   W06
 BYTE   TIE  En4  v127
 BYTE   W72
// 009   ----------------------------------------
 BYTE   W72
 BYTE   EOT
 BYTE   N12  En4  v064
 BYTE   W24
// 010   ----------------------------------------
 BYTE   En4  v116
 BYTE   W12
 BYTE   N04  Gn4  v112
 BYTE   W02
 BYTE   Bn4
 BYTE   W02
 BYTE   En5
 BYTE   W02
 BYTE   Gn5
 BYTE   W02
 BYTE   Bn5
 BYTE   W02
 BYTE   Dn6  v108
 BYTE   W02
 BYTE   TIE  En6
 BYTE   W72
// 011   ----------------------------------------
 BYTE   W96
// 012   ----------------------------------------
 BYTE   EOT
 BYTE   N03  En6  v127
 BYTE   W03
 BYTE   Bn5
 BYTE   W03
 BYTE   Gn5
 BYTE   W03
 BYTE   En5
 BYTE   W03
 BYTE   Bn4
 BYTE   W03
 BYTE   Gn4
 BYTE   W03
 BYTE   En4
 BYTE   W03
 BYTE   Bn3
 BYTE   W03
Label_5_010863A4:
 BYTE   W72
// 013   ----------------------------------------
 BYTE   W96
// 014   ----------------------------------------
 BYTE   W96
// 015   ----------------------------------------
 BYTE   W96
// 016   ----------------------------------------
 BYTE   W96
// 017   ----------------------------------------
 BYTE   W24
 BYTE   VOL   40*PokemonMDExplorersDialgasFighttotheFinishGratedShtick_mvl/mxv
 BYTE   W72
// 018   ----------------------------------------
 BYTE   W96
// 019   ----------------------------------------
 BYTE   W96
// 020   ----------------------------------------
 BYTE   W96
// 021   ----------------------------------------
 BYTE   W96
// 022   ----------------------------------------
 BYTE   W96
// 023   ----------------------------------------
 BYTE   W96
// 024   ----------------------------------------
 BYTE   W96
// 025   ----------------------------------------
 BYTE   W96
// 026   ----------------------------------------
 BYTE   W96
// 027   ----------------------------------------
 BYTE   W96
// 028   ----------------------------------------
Label_5_010863B7:
 BYTE   N12  Bn4  v127
 BYTE   W12
 BYTE   Bn4  v064
 BYTE   W12
 BYTE   N24  Bn5  v127
 BYTE   W24
 BYTE   N12  Bn5  v064
 BYTE   W12
 BYTE   N06  Bn5  v127
 BYTE   W06
 BYTE   Cn6
 BYTE   W06
 BYTE   N12  Bn5
 BYTE   W12
 BYTE   N06  Bn5  v064
 BYTE   W06
 BYTE   N12  An5  v127
 BYTE   W06
 BYTE   PEND 
// 029   ----------------------------------------
Label_5_010863D8:
 BYTE   W06
 BYTE   N06  An5  v064
 BYTE   W06
 BYTE   Gn5  v127
 BYTE   W06
 BYTE   Gn5  v064
 BYTE   W06
 BYTE   N24  An5  v127
 BYTE   W24
 BYTE   N12  An5  v064
 BYTE   W12
 BYTE   N06  An5  v127
 BYTE   W06
 BYTE   Bn5
 BYTE   W06
 BYTE   N12  An5
 BYTE   W12
 BYTE   N06  An5  v064
 BYTE   W06
 BYTE   N12  Gn5  v127
 BYTE   W06
 BYTE   PEND 
// 030   ----------------------------------------
Label_5_010863FD:
 BYTE   W06
 BYTE   N06  Gn5  v064
 BYTE   W06
 BYTE   Fs5  v127
 BYTE   W06
 BYTE   Fs5  v064
 BYTE   W06
 BYTE   N24  En5  v127
 BYTE   W24
 BYTE   N12  En5  v064
 BYTE   W12
 BYTE   N06  En5  v127
 BYTE   W06
 BYTE   Gn5
 BYTE   W06
 BYTE   N12  Fs5
 BYTE   W12
 BYTE   N06  Fs5  v064
 BYTE   W06
 BYTE   N12  En5  v127
 BYTE   W06
 BYTE   PEND 
// 031   ----------------------------------------
Label_5_01086422:
 BYTE   W06
 BYTE   N06  En5  v064
 BYTE   W06
 BYTE   Dn5  v127
 BYTE   W06
 BYTE   Dn5  v064
 BYTE   W06
 BYTE   N48  Bn4  v127
 BYTE   W48
 BYTE   N12  Bn4  v064
 BYTE   W12
 BYTE   Bn4  v052
 BYTE   W12
 BYTE   PEND 
 BYTE   PATT
  POIN2 Label_5_010863B7
 BYTE   PATT
  POIN2 Label_5_010863D8
// 032   ----------------------------------------
 BYTE   W06
 BYTE   N06  Gn5  v064
 BYTE   W06
 BYTE   Fs5  v127
 BYTE   W06
 BYTE   Fs5  v064
 BYTE   W06
 BYTE   N24  Gn5  v127
 BYTE   W24
 BYTE   N12  Gn5  v064
 BYTE   W12
 BYTE   N06  Fs5  v127
 BYTE   W06
 BYTE   Gn5
 BYTE   W06
 BYTE   N24  An5
 BYTE   W24
// 033   ----------------------------------------
Label_5_0108645F:
 BYTE   N12  An5  v064
 BYTE   W12
 BYTE   N06  Gn5  v127
 BYTE   W06
 BYTE   An5
 BYTE   W06
 BYTE   N48  Bn5
 BYTE   W48
 BYTE   N12  Bn5  v064
 BYTE   W12
 BYTE   Bn5  v052
 BYTE   W12
 BYTE   PEND 
// 034   ----------------------------------------
 BYTE   N24  Bn4  v127
 BYTE   W24
 BYTE   Bn5
 BYTE   W24
 BYTE   N12  Bn5  v064
 BYTE   W12
 BYTE   N06  Bn5  v127
 BYTE   W06
 BYTE   Cn6
 BYTE   W06
 BYTE   N12  Bn5
 BYTE   W12
 BYTE   N06  Bn5  v064
 BYTE   W06
 BYTE   N12  An5  v127
 BYTE   W06
 BYTE   PATT
  POIN2 Label_5_010863D8
 BYTE   PATT
  POIN2 Label_5_010863FD
 BYTE   PATT
  POIN2 Label_5_01086422
// 035   ----------------------------------------
 BYTE   W12
 BYTE   N06  Bn4  v127
 BYTE   W06
 BYTE   Bn4  v052
 BYTE   W06
 BYTE   N12  Cn5  v127
 BYTE   W12
 BYTE   N06  Cn5  v052
 BYTE   W06
 BYTE   N12  En5  v127
 BYTE   W12
 BYTE   N06  En5  v052
 BYTE   W06
 BYTE   Bn5  v127
 BYTE   W06
 BYTE   Bn5  v052
 BYTE   W06
 BYTE   N24  An5  v127
 BYTE   W24
// 036   ----------------------------------------
 BYTE   N12  An5  v052
 BYTE   W12
 BYTE   N06  Dn5  v127
 BYTE   W06
 BYTE   Dn5  v064
 BYTE   W06
 BYTE   N12  Dn5  v127
 BYTE   W12
 BYTE   N06  Dn5  v064
 BYTE   W06
 BYTE   Fs5  v127
 BYTE   W06
 BYTE   N12  Fs5  v064
 BYTE   W12
 BYTE   N06  Cn6  v127
 BYTE   W06
 BYTE   Cn6  v064
 BYTE   W06
 BYTE   N24  Bn5  v127
 BYTE   W24
// 037   ----------------------------------------
 BYTE   N12  Bn5  v064
 BYTE   W12
 BYTE   N06  Gn5  v127
 BYTE   W06
 BYTE   Gn5  v064
 BYTE   W06
 BYTE   N24  Gn5  v127
 BYTE   W24
 BYTE   N12  Gn5  v064
 BYTE   W12
 BYTE   N06  Fs5  v127
 BYTE   W06
 BYTE   Gn5
 BYTE   W06
 BYTE   N24  An5
 BYTE   W24
 BYTE   PATT
  POIN2 Label_5_0108645F
// 038   ----------------------------------------
 BYTE   N24  Bn5  v127
 BYTE   W24
 BYTE   Gn6  v092
 BYTE   W24
 BYTE   N12  Gn6  v064
 BYTE   W12
 BYTE   N06  Gn6  v088
 BYTE   W06
 BYTE   Gn6  v064
 BYTE   W06
 BYTE   N18  Gn6  v092
 BYTE   W18
 BYTE   N12  Fs6  v088
 BYTE   W06
// 039   ----------------------------------------
 BYTE   W06
 BYTE   N06  Fs6  v064
 BYTE   W06
 BYTE   En6  v088
 BYTE   W06
 BYTE   En6  v064
 BYTE   W06
 BYTE   N18  En6  v092
 BYTE   W18
 BYTE   Dn6
 BYTE   W18
 BYTE   N06  Bn5  v108
 BYTE   W06
 BYTE   Bn5  v064
 BYTE   W06
 BYTE   N24  Gn5  v127
 BYTE   W24
// 040   ----------------------------------------
 BYTE   N12  Gn5  v064
 BYTE   W12
 BYTE   N06  An5  v127
 BYTE   W06
 BYTE   Bn5
 BYTE   W06
 BYTE   N24  Cn6
 BYTE   W24
 BYTE   N12  Cn6  v064
 BYTE   W12
 BYTE   N06  An5  v127
 BYTE   W06
 BYTE   An5  v064
 BYTE   W06
 BYTE   N18  An5  v127
 BYTE   W18
 BYTE   N12  Gn5
 BYTE   W06
// 041   ----------------------------------------
 BYTE   W06
 BYTE   N06  Gn5  v064
 BYTE   W06
 BYTE   An5  v127
 BYTE   W06
 BYTE   An5  v064
 BYTE   W06
 BYTE   N72  Bn5  v127
 BYTE   W72
// 042   ----------------------------------------
 BYTE   N12  Bn5  v064
 BYTE   W12
 BYTE   Bn5  v052
 BYTE   W60
 BYTE   N18  Fs5  v127
 BYTE   N18  An5
 BYTE   W18
 BYTE   N06  En5
 BYTE   N06  Gn5
 BYTE   W06
// 043   ----------------------------------------
 BYTE   En5  v064
 BYTE   N06  Gn5
 BYTE   W12
 BYTE   Fs5  v127
 BYTE   N06  An5
 BYTE   W06
 BYTE   Fs5  v064
 BYTE   N06  An5
 BYTE   W06
 BYTE   N24  Dn5  v127
 BYTE   N24  Fs5
 BYTE   W24
 BYTE   N12  Dn5  v064
 BYTE   N12  Fs5
 BYTE   W12
 BYTE   Dn5  v052
 BYTE   N12  Fs5
 BYTE   W12
 BYTE   N18  Gn5  v127
 BYTE   N18  Bn5
 BYTE   W18
 BYTE   N06  Fs5
 BYTE   N06  An5
 BYTE   W06
// 044   ----------------------------------------
 BYTE   Fs5  v064
 BYTE   N06  An5
 BYTE   W12
 BYTE   Gn5  v127
 BYTE   N06  Bn5
 BYTE   W06
 BYTE   Gn5  v064
 BYTE   N06  Bn5
 BYTE   W06
 BYTE   N24  En5  v127
 BYTE   N24  Gn5
 BYTE   W24
 BYTE   N12  En5  v064
 BYTE   N12  Gn5
 BYTE   W12
 BYTE   En5  v052
 BYTE   N12  Gn5
 BYTE   W36
// 045   ----------------------------------------
 BYTE   W96
// 046   ----------------------------------------
 BYTE   W23
 BYTE   PAN   c_v+20
 BYTE   W72
 BYTE   W01
// 047   ----------------------------------------
 BYTE   W96
// 048   ----------------------------------------
Label_5_010865CE:
 BYTE   N05  Bn5  v112
 BYTE   W06
 BYTE   Cs6
 BYTE   W06
 BYTE   Dn6
 BYTE   W06
 BYTE   En6
 BYTE   W06
 BYTE   N72  Fs6  v100
 BYTE   W72
 BYTE   PEND 
// 049   ----------------------------------------
 BYTE   N12  Fs6  v064
 BYTE   W12
 BYTE   N05  En6  v112
 BYTE   W06
 BYTE   Dn6
 BYTE   W06
 BYTE   N30  Cs6
 BYTE   W30
 BYTE   N06  Cs6  v064
 BYTE   W06
 BYTE   N28  An5  v112
 BYTE   W30
 BYTE   N06  An5  v064
 BYTE   W06
// 050   ----------------------------------------
Label_5_010865F6:
 BYTE   N17  Cs6  v112
 BYTE   W18
 BYTE   N06  Cs6  v064
 BYTE   W06
 BYTE   N28  Bn5  v112
 BYTE   W30
 BYTE   N06  Bn5  v064
 BYTE   W06
 BYTE   N28  Fs5  v112
 BYTE   W30
 BYTE   N06  Fs5  v064
 BYTE   W06
 BYTE   PEND 
// 051   ----------------------------------------
 BYTE   N17  En5  v112
 BYTE   W18
 BYTE   N06  En5  v064
 BYTE   W06
 BYTE   N44  Fs5  v112
 BYTE   W48
 BYTE   N12  Fs5  v064
 BYTE   W12
 BYTE   Fs5  v052
 BYTE   W12
 BYTE   PATT
  POIN2 Label_5_010865CE
// 052   ----------------------------------------
Label_5_01086627:
 BYTE   N12  Fs6  v064
 BYTE   W12
 BYTE   N05  En6  v112
 BYTE   W06
 BYTE   Dn6
 BYTE   W06
 BYTE   N28  Cs6
 BYTE   W30
 BYTE   N06  Cs6  v064
 BYTE   W06
 BYTE   N28  An5  v112
 BYTE   W30
 BYTE   N06  An5  v064
 BYTE   W06
 BYTE   PEND 
// 053   ----------------------------------------
 BYTE   N18  Cs6  v112
 BYTE   W18
 BYTE   N06  Cs6  v064
 BYTE   W06
 BYTE   N28  Bn5  v112
 BYTE   W30
 BYTE   N06  Bn5  v064
 BYTE   W06
 BYTE   N28  Fs6  v100
 BYTE   W30
 BYTE   N06  Fs6  v064
 BYTE   W06
// 054   ----------------------------------------
 BYTE   N18  En6  v112
 BYTE   W18
 BYTE   N06  En6  v064
 BYTE   W06
 BYTE   N44  Fs6  v100
 BYTE   W48
 BYTE   N12  Fs6  v064
 BYTE   W12
 BYTE   Fs6  v052
 BYTE   W12
// 055   ----------------------------------------
 BYTE   N05  Bn5  v112
 BYTE   W06
 BYTE   Cs6
 BYTE   W06
 BYTE   Dn6
 BYTE   W06
 BYTE   En6
 BYTE   W06
 BYTE   N68  Fs6  v100
 BYTE   W72
 BYTE   PATT
  POIN2 Label_5_01086627
 BYTE   PATT
  POIN2 Label_5_010865F6
// 056   ----------------------------------------
 BYTE   N17  En5  v112
 BYTE   W18
 BYTE   N06  En5  v064
 BYTE   W06
 BYTE   N28  Fs5  v127
 BYTE   W30
 BYTE   N06  Fs5  v064
 BYTE   W06
 BYTE   N28  En5  v127
 BYTE   W30
 BYTE   N06  En5  v064
 BYTE   W06
// 057   ----------------------------------------
 BYTE   N17  Dn5  v127
 BYTE   W18
 BYTE   N06  Dn5  v064
 BYTE   W06
 BYTE   TIE  Bn4  v127
 BYTE   W72
// 058   ----------------------------------------
 BYTE   W68
 BYTE   W03
 BYTE   EOT
 BYTE   W01
 BYTE   N12  Bn4  v064
 BYTE   W12
 BYTE   Bn4  v052
 BYTE   W12
// 059   ----------------------------------------
 BYTE   Bn4  v040
 BYTE   W96
// 060   ----------------------------------------
 BYTE   Dn5  v127
 BYTE   W12
 BYTE   Dn5  v064
 BYTE   W12
 BYTE   N30  Cs5  v127
 BYTE   W30
 BYTE   N06  Cs5  v064
 BYTE   W06
 BYTE   N30  Bn4  v127
 BYTE   W30
 BYTE   N06  Bn4  v064
 BYTE   W06
// 061   ----------------------------------------
 BYTE   N12  An4  v127
 BYTE   W12
 BYTE   An4  v064
 BYTE   W12
 BYTE   TIE  Bn4  v127
 BYTE   W72
// 062   ----------------------------------------
 BYTE   W72
 BYTE   EOT
 BYTE   N12  Bn4  v064
 BYTE   W12
 BYTE   Bn4  v040
 BYTE   W12
// 063   ----------------------------------------
 BYTE   N18  Bn4  v127
 BYTE   W24
 BYTE   TIE  Bn6  v064
 BYTE   W72
// 064   ----------------------------------------
 BYTE   W96
// 065   ----------------------------------------
 BYTE   EOT
 BYTE   W11
 BYTE   GoTo
  POIN2 Label_5_010863A4
 BYTE   FINE

//**************** Track 7 (Midi-Chn.6) ****************//

PokemonMDExplorersDialgasFighttotheFinishGratedShtick_007:
// 000   ----------------------------------------
 BYTE   KEYSH   PokemonMDExplorersDialgasFighttotheFinishGratedShtick_key+0
 BYTE   W24
 BYTE   VOICE   45
 BYTE   VOL   56*PokemonMDExplorersDialgasFighttotheFinishGratedShtick_mvl/mxv
 BYTE   PAN   c_v+0
 BYTE   W96
// 001   ----------------------------------------
Label_6_010866FE:
 BYTE   W23
 BYTE   PAN   c_v+0
 BYTE   W01
 BYTE   N06  Fs4  v108
 BYTE   W17
 BYTE   PAN   c_v-20
 BYTE   W01
 BYTE   N04  Bn3  v112
 BYTE   W17
 BYTE   PAN   c_v+20
 BYTE   W01
 BYTE   N05  An3  v116
 BYTE   W11
 BYTE   PAN   c_v+0
 BYTE   W01
 BYTE   N04  Bn3
 BYTE   W24
 BYTE   PEND 
// 002   ----------------------------------------
 BYTE   W96
// 003   ----------------------------------------
Label_6_0108671C:
 BYTE   W23
 BYTE   PAN   c_v+0
 BYTE   W01
 BYTE   N07  En4  v104
 BYTE   W17
 BYTE   PAN   c_v-20
 BYTE   W01
 BYTE   N05  An3  v108
 BYTE   W17
 BYTE   PAN   c_v+20
 BYTE   W01
 BYTE   N05  Bn3  v116
 BYTE   W11
 BYTE   PAN   c_v+0
 BYTE   W01
 BYTE   N07  En3  v112
 BYTE   W24
 BYTE   PEND 
// 004   ----------------------------------------
 BYTE   W68
 BYTE   W03
 BYTE   PAN   c_v+0
 BYTE   W01
 BYTE   N06  Fs4  v108
 BYTE   W17
 BYTE   PAN   c_v-20
 BYTE   W01
 BYTE   N04  Bn3  v112
 BYTE   W06
// 005   ----------------------------------------
 BYTE   W11
 BYTE   PAN   c_v+20
 BYTE   W01
 BYTE   N05  An3  v116
 BYTE   W11
 BYTE   PAN   c_v+0
 BYTE   W01
 BYTE   N04  Bn3
 BYTE   W72
// 006   ----------------------------------------
 BYTE   W68
 BYTE   W03
 BYTE   PAN   c_v+0
 BYTE   W01
 BYTE   N07  En4  v104
 BYTE   W17
 BYTE   PAN   c_v-20
 BYTE   W01
 BYTE   N05  An3  v108
 BYTE   W06
// 007   ----------------------------------------
 BYTE   W11
 BYTE   PAN   c_v+20
 BYTE   W01
 BYTE   N05  Bn3  v116
 BYTE   W11
 BYTE   PAN   c_v+0
 BYTE   W01
 BYTE   N07  En3  v112
 BYTE   W72
// 008   ----------------------------------------
 BYTE   W68
 BYTE   W03
 BYTE   PAN   c_v+0
 BYTE   W01
 BYTE   N06  En4  v108
 BYTE   W17
 BYTE   PAN   c_v-20
 BYTE   W01
 BYTE   N04  Bn3  v112
 BYTE   W06
// 009   ----------------------------------------
 BYTE   W11
 BYTE   PAN   c_v+20
 BYTE   W01
 BYTE   N05  An3  v116
 BYTE   W11
 BYTE   PAN   c_v+0
 BYTE   W01
 BYTE   N04  Bn3
 BYTE   W44
 BYTE   W03
 BYTE   PAN   c_v+0
 BYTE   W01
 BYTE   N06  Bn4  v127
 BYTE   W17
 BYTE   PAN   c_v-20
 BYTE   W01
 BYTE   N04  En4
 BYTE   W06
// 010   ----------------------------------------
 BYTE   W11
 BYTE   PAN   c_v+20
 BYTE   W01
 BYTE   N05  Dn4
 BYTE   W11
 BYTE   PAN   c_v+0
 BYTE   W01
 BYTE   N04  En4
 BYTE   W44
 BYTE   W03
 BYTE   PAN   c_v+0
 BYTE   W01
 BYTE   N06  Bn4
 BYTE   W17
 BYTE   PAN   c_v-20
 BYTE   W01
 BYTE   N04  En4
 BYTE   W06
// 011   ----------------------------------------
 BYTE   W11
 BYTE   PAN   c_v+20
 BYTE   W01
 BYTE   N05  Dn4
 BYTE   W11
 BYTE   PAN   c_v+0
 BYTE   W01
 BYTE   N04  En4
 BYTE   W72
// 012   ----------------------------------------
 BYTE   W24
Label_6_010867CB:
 BYTE   W72
 BYTE   PATT
  POIN2 Label_6_010866FE
// 013   ----------------------------------------
 BYTE   W96
 BYTE   PATT
  POIN2 Label_6_0108671C
// 014   ----------------------------------------
 BYTE   W96
 BYTE   PATT
  POIN2 Label_6_010866FE
// 015   ----------------------------------------
 BYTE   W96
 BYTE   PATT
  POIN2 Label_6_0108671C
// 016   ----------------------------------------
 BYTE   W96
 BYTE   PATT
  POIN2 Label_6_010866FE
// 017   ----------------------------------------
 BYTE   W96
 BYTE   PATT
  POIN2 Label_6_0108671C
// 018   ----------------------------------------
 BYTE   W96
 BYTE   PATT
  POIN2 Label_6_010866FE
// 019   ----------------------------------------
 BYTE   W96
 BYTE   PATT
  POIN2 Label_6_0108671C
// 020   ----------------------------------------
 BYTE   W96
// 021   ----------------------------------------
 BYTE   W96
// 022   ----------------------------------------
 BYTE   W96
// 023   ----------------------------------------
 BYTE   W96
// 024   ----------------------------------------
 BYTE   W96
// 025   ----------------------------------------
 BYTE   W96
// 026   ----------------------------------------
 BYTE   W96
// 027   ----------------------------------------
 BYTE   W96
// 028   ----------------------------------------
 BYTE   W96
// 029   ----------------------------------------
 BYTE   W96
// 030   ----------------------------------------
 BYTE   W96
// 031   ----------------------------------------
 BYTE   W96
// 032   ----------------------------------------
 BYTE   W96
// 033   ----------------------------------------
 BYTE   W96
// 034   ----------------------------------------
 BYTE   W96
// 035   ----------------------------------------
 BYTE   W48
 BYTE   W03
 BYTE   VOL   65*PokemonMDExplorersDialgasFighttotheFinishGratedShtick_mvl/mxv
 BYTE   W11
 BYTE   VOICE   45
 BYTE   W01
 BYTE   VOL   65*PokemonMDExplorersDialgasFighttotheFinishGratedShtick_mvl/mxv
 BYTE   PAN   c_v+0
 BYTE   W32
 BYTE   W01
// 036   ----------------------------------------
 BYTE   W24
 BYTE   N06  Cn2  v127
 BYTE   W18
 BYTE   Gn2
 BYTE   W18
 BYTE   Bn2
 BYTE   W12
 BYTE   En3
 BYTE   W24
// 037   ----------------------------------------
 BYTE   W24
 BYTE   Bn1
 BYTE   W18
 BYTE   Gn2
 BYTE   W18
 BYTE   Bn2
 BYTE   W12
 BYTE   Dn3
 BYTE   W24
// 038   ----------------------------------------
 BYTE   W24
 BYTE   An1
 BYTE   W18
 BYTE   Gn2
 BYTE   W18
 BYTE   Cn3
 BYTE   W12
 BYTE   En3
 BYTE   W24
// 039   ----------------------------------------
 BYTE   W24
 BYTE   Gn1
 BYTE   W18
 BYTE   Gn2
 BYTE   W18
 BYTE   Bn2
 BYTE   W12
 BYTE   Dn3
 BYTE   W24
// 040   ----------------------------------------
 BYTE   W24
 BYTE   Cn2
 BYTE   W48
 BYTE   Dn2
 BYTE   W24
// 041   ----------------------------------------
 BYTE   W24
 BYTE   Ds2
 BYTE   W48
 BYTE   En2
 BYTE   W24
// 042   ----------------------------------------
 BYTE   W24
 BYTE   Gn1
 BYTE   W48
 BYTE   An1
 BYTE   W24
// 043   ----------------------------------------
 BYTE   W24
 BYTE   Bn1
 BYTE   W72
// 044   ----------------------------------------
 BYTE   W96
// 045   ----------------------------------------
 BYTE   W60
 BYTE   W02
 BYTE   VOICE   81
 BYTE   W01
 BYTE   VOL   51*PokemonMDExplorersDialgasFighttotheFinishGratedShtick_mvl/mxv
 BYTE   PAN   c_v+0
 BYTE   W32
 BYTE   W01
// 046   ----------------------------------------
 BYTE   W68
 BYTE   W03
 BYTE   En3
 BYTE   W01
 BYTE   N06  Bn4  v112
 BYTE   W17
 BYTE   PAN   c_v-20
 BYTE   W01
 BYTE   N09  En4  v080
 BYTE   W06
// 047   ----------------------------------------
Label_6_0108686B:
 BYTE   W11
 BYTE   PAN   c_v+20
 BYTE   W01
 BYTE   N07  Dn4  v080
 BYTE   W11
 BYTE   PAN   c_v+0
 BYTE   W01
 BYTE   N05  En4  v112
 BYTE   W44
 BYTE   W03
 BYTE   PAN   c_v+0
 BYTE   W01
 BYTE   N06  Fs4
 BYTE   W17
 BYTE   PAN   c_v-20
 BYTE   W01
 BYTE   N09  Bn3  v080
 BYTE   W06
 BYTE   PEND 
// 048   ----------------------------------------
Label_6_01086889:
 BYTE   W11
 BYTE   PAN   c_v+20
 BYTE   W01
 BYTE   N07  An3  v080
 BYTE   W11
 BYTE   PAN   c_v+0
 BYTE   W01
 BYTE   N05  Bn3  v112
 BYTE   W44
 BYTE   W03
 BYTE   PAN   c_v+0
 BYTE   W01
 BYTE   N06  En4
 BYTE   W17
 BYTE   PAN   c_v-20
 BYTE   W01
 BYTE   N09  An3  v080
 BYTE   W06
 BYTE   PEND 
// 049   ----------------------------------------
Label_6_010868A7:
 BYTE   W11
 BYTE   PAN   c_v+20
 BYTE   W01
 BYTE   N07  Bn3  v080
 BYTE   W11
 BYTE   PAN   c_v+0
 BYTE   W01
 BYTE   N05  En3  v112
 BYTE   W44
 BYTE   W03
 BYTE   PAN   c_v+0
 BYTE   W01
 BYTE   N06  Bn3
 BYTE   W17
 BYTE   PAN   c_v-20
 BYTE   W01
 BYTE   N09  En3  v080
 BYTE   W06
 BYTE   PEND 
// 050   ----------------------------------------
Label_6_010868C5:
 BYTE   W11
 BYTE   PAN   c_v+20
 BYTE   W01
 BYTE   N07  Fs3  v080
 BYTE   W11
 BYTE   PAN   c_v+0
 BYTE   W01
 BYTE   N05  Bn2  v112
 BYTE   W44
 BYTE   W03
 BYTE   PAN   c_v+0
 BYTE   W01
 BYTE   N06  Bn4
 BYTE   W17
 BYTE   PAN   c_v-20
 BYTE   W01
 BYTE   N09  En4  v080
 BYTE   W06
 BYTE   PEND 
 BYTE   PATT
  POIN2 Label_6_0108686B
 BYTE   PATT
  POIN2 Label_6_01086889
 BYTE   PATT
  POIN2 Label_6_010868A7
 BYTE   PATT
  POIN2 Label_6_010868C5
 BYTE   PATT
  POIN2 Label_6_0108686B
 BYTE   PATT
  POIN2 Label_6_01086889
 BYTE   PATT
  POIN2 Label_6_010868A7
 BYTE   PATT
  POIN2 Label_6_010868C5
 BYTE   PATT
  POIN2 Label_6_0108686B
 BYTE   PATT
  POIN2 Label_6_01086889
 BYTE   PATT
  POIN2 Label_6_010868A7
 BYTE   PATT
  POIN2 Label_6_010868C5
 BYTE   PATT
  POIN2 Label_6_0108686B
 BYTE   PATT
  POIN2 Label_6_01086889
 BYTE   PATT
  POIN2 Label_6_010868A7
// 051   ----------------------------------------
 BYTE   W11
 BYTE   GoTo
  POIN2 Label_6_010867CB
// 052   ----------------------------------------
 BYTE   PAN   c_v+20
 BYTE   FINE

//**************** Track 8 (Midi-Chn.7) ****************//

PokemonMDExplorersDialgasFighttotheFinishGratedShtick_008:
// 000   ----------------------------------------
 BYTE   KEYSH   PokemonMDExplorersDialgasFighttotheFinishGratedShtick_key+0
 BYTE   W24
 BYTE   VOICE   80
 BYTE   VOL   51*PokemonMDExplorersDialgasFighttotheFinishGratedShtick_mvl/mxv
 BYTE   PAN   c_v+0
 BYTE   W96
// 001   ----------------------------------------
 BYTE   W96
// 002   ----------------------------------------
 BYTE   W96
// 003   ----------------------------------------
Label_7_01086944:
 BYTE   W68
 BYTE   W03
 BYTE   PAN   c_v+0
 BYTE   W01
 BYTE   N03  Bn3  v080
 BYTE   W05
 BYTE   PAN   c_v-20
 BYTE   W01
 BYTE   N03  Fs4
 BYTE   W05
 BYTE   PAN   c_v+20
 BYTE   W01
 BYTE   N03  En4
 BYTE   W05
 BYTE   PAN   c_v-25
 BYTE   W01
 BYTE   N03  An4
 BYTE   W05
 BYTE   PAN   c_v+25
 BYTE   W01
 BYTE   PEND 
// 004   ----------------------------------------
Label_7_01086963:
 BYTE   N03  Fs4  v080
 BYTE   W05
 BYTE   PAN   c_v-40
 BYTE   W01
 BYTE   N03  Cs5
 BYTE   W05
 BYTE   PAN   c_v+40
 BYTE   W01
 BYTE   N03  Bn4
 BYTE   W05
 BYTE   PAN   c_v+0
 BYTE   W01
 BYTE   N03  En5
 BYTE   W78
 BYTE   PEND 
// 005   ----------------------------------------
 BYTE   W96
// 006   ----------------------------------------
 BYTE   W96
 BYTE   PATT
  POIN2 Label_7_01086944
 BYTE   PATT
  POIN2 Label_7_01086963
// 007   ----------------------------------------
 BYTE   W96
// 008   ----------------------------------------
 BYTE   W96
 BYTE   PATT
  POIN2 Label_7_01086944
// 009   ----------------------------------------
 BYTE   N03  Fs4  v080
 BYTE   W05
 BYTE   PAN   c_v-40
 BYTE   W01
 BYTE   N03  Cs5
 BYTE   W05
 BYTE   PAN   c_v+40
 BYTE   W01
 BYTE   N03  Bn4
 BYTE   W05
 BYTE   PAN   c_v+0
 BYTE   W01
 BYTE   N03  En5
 BYTE   W06
Label_7_010869A3:
 BYTE   W72
// 010   ----------------------------------------
 BYTE   W96
// 011   ----------------------------------------
 BYTE   W96
 BYTE   PATT
  POIN2 Label_7_01086944
 BYTE   PATT
  POIN2 Label_7_01086963
// 012   ----------------------------------------
 BYTE   W96
// 013   ----------------------------------------
 BYTE   W96
 BYTE   PATT
  POIN2 Label_7_01086944
 BYTE   PATT
  POIN2 Label_7_01086963
// 014   ----------------------------------------
 BYTE   W96
// 015   ----------------------------------------
 BYTE   W96
// 016   ----------------------------------------
 BYTE   W96
// 017   ----------------------------------------
 BYTE   W96
// 018   ----------------------------------------
 BYTE   W96
// 019   ----------------------------------------
 BYTE   W96
// 020   ----------------------------------------
 BYTE   W96
// 021   ----------------------------------------
 BYTE   W96
// 022   ----------------------------------------
 BYTE   W96
// 023   ----------------------------------------
 BYTE   W96
// 024   ----------------------------------------
 BYTE   W96
// 025   ----------------------------------------
 BYTE   W96
// 026   ----------------------------------------
 BYTE   W96
// 027   ----------------------------------------
 BYTE   W96
// 028   ----------------------------------------
 BYTE   W96
// 029   ----------------------------------------
 BYTE   W96
// 030   ----------------------------------------
 BYTE   W96
// 031   ----------------------------------------
 BYTE   W96
// 032   ----------------------------------------
 BYTE   W96
// 033   ----------------------------------------
 BYTE   W96
// 034   ----------------------------------------
 BYTE   W96
// 035   ----------------------------------------
 BYTE   W96
// 036   ----------------------------------------
 BYTE   W96
// 037   ----------------------------------------
 BYTE   W96
// 038   ----------------------------------------
 BYTE   W96
// 039   ----------------------------------------
 BYTE   W96
// 040   ----------------------------------------
 BYTE   W96
// 041   ----------------------------------------
 BYTE   W96
// 042   ----------------------------------------
 BYTE   W96
// 043   ----------------------------------------
 BYTE   W96
// 044   ----------------------------------------
 BYTE   W96
// 045   ----------------------------------------
 BYTE   W96
// 046   ----------------------------------------
 BYTE   W23
 BYTE   PAN   c_v+0
 BYTE   W01
 BYTE   N02  Bn3  v096
 BYTE   W05
 BYTE   PAN   c_v-10
 BYTE   W01
 BYTE   N02  Fs4
 BYTE   W05
 BYTE   PAN   c_v+10
 BYTE   W01
 BYTE   N02  En4
 BYTE   W05
 BYTE   PAN   c_v-20
 BYTE   W01
 BYTE   N02  An4
 BYTE   W05
 BYTE   PAN   c_v+20
 BYTE   W01
 BYTE   N02  Fs4
 BYTE   W05
 BYTE   PAN   c_v-30
 BYTE   W01
 BYTE   N02  Cs5
 BYTE   W05
 BYTE   PAN   c_v+30
 BYTE   W01
 BYTE   N02  An4
 BYTE   W05
 BYTE   PAN   c_v-40
 BYTE   W01
 BYTE   N02  En5
 BYTE   W05
 BYTE   PAN   c_v+40
 BYTE   W01
 BYTE   N02  Cs5
 BYTE   W05
 BYTE   PAN   c_v-50
 BYTE   W01
 BYTE   N02  Fs5
 BYTE   W05
 BYTE   PAN   c_v+50
 BYTE   W01
 BYTE   N02  En5
 BYTE   W05
 BYTE   PAN   c_v-63
 BYTE   W01
 BYTE   N02  An5
 BYTE   W05
 BYTE   PAN   c_v+0
 BYTE   W01
// 047   ----------------------------------------
 BYTE   N02  Fs5
 BYTE   W05
 BYTE   PAN   c_v-63
 BYTE   W06
 BYTE   Gn8
 BYTE   W06
 BYTE   En3
 BYTE   W78
 BYTE   W01
// 048   ----------------------------------------
 BYTE   W96
// 049   ----------------------------------------
 BYTE   W96
// 050   ----------------------------------------
Label_7_01086A36:
 BYTE   W68
 BYTE   W03
 BYTE   PAN   c_v+0
 BYTE   W01
 BYTE   N03  Bn3  v100
 BYTE   W05
 BYTE   PAN   c_v-20
 BYTE   W01
 BYTE   N03  Fs4
 BYTE   W05
 BYTE   PAN   c_v+20
 BYTE   W01
 BYTE   N03  En4
 BYTE   W05
 BYTE   PAN   c_v-25
 BYTE   W01
 BYTE   N03  An4
 BYTE   W05
 BYTE   PAN   c_v+25
 BYTE   W01
 BYTE   PEND 
// 051   ----------------------------------------
Label_7_01086A55:
 BYTE   N03  Fs4  v100
 BYTE   W05
 BYTE   PAN   c_v-40
 BYTE   W01
 BYTE   N03  Cs5
 BYTE   W05
 BYTE   PAN   c_v+40
 BYTE   W01
 BYTE   N03  Bn4
 BYTE   W05
 BYTE   PAN   c_v+0
 BYTE   W01
 BYTE   N03  En5
 BYTE   W78
 BYTE   PEND 
// 052   ----------------------------------------
 BYTE   W96
// 053   ----------------------------------------
 BYTE   W96
 BYTE   PATT
  POIN2 Label_7_01086A36
 BYTE   PATT
  POIN2 Label_7_01086A55
// 054   ----------------------------------------
 BYTE   W96
// 055   ----------------------------------------
 BYTE   W96
// 056   ----------------------------------------
 BYTE   W96
// 057   ----------------------------------------
 BYTE   W96
// 058   ----------------------------------------
 BYTE   W96
// 059   ----------------------------------------
 BYTE   W96
// 060   ----------------------------------------
 BYTE   W96
// 061   ----------------------------------------
 BYTE   W96
// 062   ----------------------------------------
 BYTE   W96
// 063   ----------------------------------------
 BYTE   W96
 BYTE   PATT
  POIN2 Label_7_01086944
// 064   ----------------------------------------
 BYTE   N03  Fs4  v080
 BYTE   W05
 BYTE   PAN   c_v-40
 BYTE   W01
 BYTE   N03  Cs5
 BYTE   W05
 BYTE   GoTo
  POIN2 Label_7_010869A3
// 065   ----------------------------------------
 BYTE   PAN   c_v+40
 BYTE   FINE

//**************** Track 9 (Midi-Chn.8) ****************//

PokemonMDExplorersDialgasFighttotheFinishGratedShtick_009:
// 000   ----------------------------------------
 BYTE   KEYSH   PokemonMDExplorersDialgasFighttotheFinishGratedShtick_key+0
 BYTE   W24
 BYTE   VOICE   24
 BYTE   VOL   35*PokemonMDExplorersDialgasFighttotheFinishGratedShtick_mvl/mxv
 BYTE   PAN   c_v-30
 BYTE   W96
// 001   ----------------------------------------
 BYTE   W96
// 002   ----------------------------------------
 BYTE   W96
// 003   ----------------------------------------
 BYTE   W96
// 004   ----------------------------------------
 BYTE   W96
// 005   ----------------------------------------
 BYTE   W96
// 006   ----------------------------------------
 BYTE   W96
// 007   ----------------------------------------
 BYTE   W96
// 008   ----------------------------------------
 BYTE   W96
// 009   ----------------------------------------
 BYTE   W96
// 010   ----------------------------------------
 BYTE   W96
// 011   ----------------------------------------
 BYTE   W96
// 012   ----------------------------------------
 BYTE   W24
Label_8_01086AB2:
 BYTE   N05  Bn3  v112
 BYTE   W06
 BYTE   N01  Bn3  v004
 BYTE   W12
 BYTE   N17  Bn3  v112
 BYTE   W18
 BYTE   N05  Gn2
 BYTE   W06
 BYTE   N01  Gn2  v004
 BYTE   W06
 BYTE   N05  Bn3  v112
 BYTE   W06
 BYTE   N01  Bn3  v004
 BYTE   W12
 BYTE   N17  Bn3  v112
 BYTE   W06
// 013   ----------------------------------------
Label_8_01086AD1:
 BYTE   W12
 BYTE   N05  Gn2  v112
 BYTE   W06
 BYTE   N01  Gn2  v004
 BYTE   W06
 BYTE   N05  An3  v112
 BYTE   W06
 BYTE   N01  An3  v004
 BYTE   W12
 BYTE   N17  An3  v112
 BYTE   W18
 BYTE   N05  An2
 BYTE   W06
 BYTE   N01  An2  v004
 BYTE   W06
 BYTE   N05  An3  v112
 BYTE   W06
 BYTE   N01  An3  v004
 BYTE   W12
 BYTE   N17  An3  v112
 BYTE   W06
 BYTE   PEND 
// 014   ----------------------------------------
Label_8_01086AFA:
 BYTE   W12
 BYTE   N05  An2  v112
 BYTE   W06
 BYTE   N01  An2  v004
 BYTE   W06
 BYTE   N05  Bn3  v112
 BYTE   W06
 BYTE   N01  Bn3  v004
 BYTE   W12
 BYTE   N17  Bn3  v112
 BYTE   W18
 BYTE   N05  Bn2
 BYTE   W06
 BYTE   N01  Bn2  v004
 BYTE   W06
 BYTE   N05  Bn3  v112
 BYTE   W06
 BYTE   N01  Bn3  v004
 BYTE   W12
 BYTE   N17  Bn3  v112
 BYTE   W06
 BYTE   PEND 
// 015   ----------------------------------------
Label_8_01086B23:
 BYTE   W12
 BYTE   N05  Bn2  v112
 BYTE   W06
 BYTE   N01  Bn2  v004
 BYTE   W06
 BYTE   N05  Dn4  v112
 BYTE   W06
 BYTE   N01  Dn4  v004
 BYTE   W12
 BYTE   N17  Dn4  v112
 BYTE   W18
 BYTE   N05  An2
 BYTE   W06
 BYTE   N01  An2  v004
 BYTE   W06
 BYTE   N05  Cs4  v112
 BYTE   W06
 BYTE   N01  Cs4  v004
 BYTE   W12
 BYTE   N17  Cs4  v112
 BYTE   W06
 BYTE   PEND 
// 016   ----------------------------------------
Label_8_01086B4C:
 BYTE   W12
 BYTE   N05  An2  v112
 BYTE   W06
 BYTE   N01  An2  v004
 BYTE   W06
 BYTE   N05  Bn3  v112
 BYTE   W06
 BYTE   N01  Bn3  v004
 BYTE   W12
 BYTE   N17  Bn3  v112
 BYTE   W18
 BYTE   N05  Gn2
 BYTE   W06
 BYTE   N01  Gn2  v004
 BYTE   W06
 BYTE   N05  Bn3  v112
 BYTE   W06
 BYTE   N01  Bn3  v004
 BYTE   W12
 BYTE   N17  Bn3  v112
 BYTE   W06
 BYTE   PEND 
 BYTE   PATT
  POIN2 Label_8_01086AD1
 BYTE   PATT
  POIN2 Label_8_01086AFA
 BYTE   PATT
  POIN2 Label_8_01086B23
 BYTE   PATT
  POIN2 Label_8_01086B4C
 BYTE   PATT
  POIN2 Label_8_01086AD1
 BYTE   PATT
  POIN2 Label_8_01086AFA
 BYTE   PATT
  POIN2 Label_8_01086B23
 BYTE   PATT
  POIN2 Label_8_01086B4C
// 017   ----------------------------------------
 BYTE   W12
 BYTE   N05  Gn2  v112
 BYTE   W06
 BYTE   N01  Gn2  v004
 BYTE   W06
 BYTE   N05  Bn3  v112
 BYTE   W06
 BYTE   N01  Bn3  v004
 BYTE   W12
 BYTE   N17  Bn3  v112
 BYTE   W18
 BYTE   N05  Gn2
 BYTE   W06
 BYTE   N01  Gn2  v004
 BYTE   W06
 BYTE   N05  Bn3  v112
 BYTE   W06
 BYTE   N01  Bn3  v004
 BYTE   W12
 BYTE   N17  Bn3  v112
 BYTE   W06
 BYTE   PATT
  POIN2 Label_8_01086AD1
// 018   ----------------------------------------
 BYTE   W12
 BYTE   N05  An2  v112
 BYTE   W06
 BYTE   N01  An2  v004
 BYTE   W06
 BYTE   N05  An3  v112
 BYTE   W06
 BYTE   N01  An3  v004
 BYTE   W12
 BYTE   N17  An3  v112
 BYTE   W18
 BYTE   N05  An2
 BYTE   W06
 BYTE   N01  An2  v004
 BYTE   W06
 BYTE   N05  An3  v112
 BYTE   W06
 BYTE   N01  An3  v004
 BYTE   W12
 BYTE   N17  An3  v112
 BYTE   W06
// 019   ----------------------------------------
 BYTE   W12
 BYTE   N05  An2
 BYTE   W06
 BYTE   N01  An2  v004
 BYTE   W24
 BYTE   N17  Bn3  v112
 BYTE   W18
 BYTE   N05  Bn2
 BYTE   W06
 BYTE   N01  Bn2  v004
 BYTE   W06
 BYTE   N05  Bn3  v112
 BYTE   W06
 BYTE   N01  Bn3  v004
 BYTE   W18
// 020   ----------------------------------------
 BYTE   N17  Bn3  v112
 BYTE   W24
 BYTE   N05  An3
 BYTE   W06
 BYTE   N01  An3  v004
 BYTE   W12
 BYTE   N17  An3  v112
 BYTE   W18
 BYTE   N05  An2
 BYTE   W06
 BYTE   N01  An2  v004
 BYTE   W06
 BYTE   N05  An3  v112
 BYTE   W06
 BYTE   N01  An3  v004
 BYTE   W18
// 021   ----------------------------------------
 BYTE   N17  An3  v112
 BYTE   W24
 BYTE   N05  En3
 BYTE   W06
 BYTE   N01  En3  v004
 BYTE   W12
 BYTE   N17  En3  v112
 BYTE   W18
 BYTE   N05  Gn2
 BYTE   W06
 BYTE   N01  Gn2  v004
 BYTE   W06
 BYTE   N05  Gn3  v112
 BYTE   W06
 BYTE   N01  Gn3  v004
 BYTE   W18
// 022   ----------------------------------------
 BYTE   N17  Gn3  v112
 BYTE   W24
 BYTE   N05  Fs3
 BYTE   W06
 BYTE   N01  Fs3  v004
 BYTE   W12
 BYTE   N17  Fs3  v112
 BYTE   W18
 BYTE   N05  An2
 BYTE   W06
 BYTE   N01  An2  v004
 BYTE   W06
 BYTE   N05  An3  v112
 BYTE   W06
 BYTE   N01  An3  v004
 BYTE   W12
 BYTE   N17  An3  v112
 BYTE   W06
 BYTE   PATT
  POIN2 Label_8_01086AFA
// 023   ----------------------------------------
 BYTE   W12
 BYTE   N05  Bn2  v112
 BYTE   W06
 BYTE   N01  Bn2  v004
 BYTE   W06
 BYTE   N05  An3  v112
 BYTE   W06
 BYTE   N01  An3  v004
 BYTE   W12
 BYTE   N17  An3  v112
 BYTE   W18
 BYTE   N05  An2
 BYTE   W06
 BYTE   N01  An2  v004
 BYTE   W06
 BYTE   N05  An3  v112
 BYTE   W06
 BYTE   N01  An3  v004
 BYTE   W12
 BYTE   N17  An3  v112
 BYTE   W06
// 024   ----------------------------------------
 BYTE   W12
 BYTE   N05  An2
 BYTE   W06
 BYTE   N01  An2  v004
 BYTE   W06
 BYTE   N05  Gn3  v112
 BYTE   W06
 BYTE   N01  Gn3  v004
 BYTE   W12
 BYTE   N17  Gn3  v112
 BYTE   W18
 BYTE   N05  Gn2
 BYTE   W06
 BYTE   N01  Gn2  v004
 BYTE   W06
 BYTE   N05  Gn3  v112
 BYTE   W06
 BYTE   N01  Gn3  v004
 BYTE   W12
 BYTE   N17  Gn3  v112
 BYTE   W06
// 025   ----------------------------------------
 BYTE   W12
 BYTE   N05  Gn2
 BYTE   W06
 BYTE   N01  Gn2  v004
 BYTE   W06
 BYTE   N05  Fs3  v112
 BYTE   W06
 BYTE   N01  Fs3  v004
 BYTE   W12
 BYTE   N17  Fs3  v112
 BYTE   W18
 BYTE   N05  En3
 BYTE   W06
 BYTE   N01  En3  v004
 BYTE   W06
 BYTE   N05  Ds3  v112
 BYTE   W06
 BYTE   N01  Ds3  v004
 BYTE   W18
// 026   ----------------------------------------
 BYTE   N17  Ds3  v112
 BYTE   W42
 BYTE   Bn3  v100
 BYTE   W18
 BYTE   N05  Bn2
 BYTE   W12
 BYTE   Bn3
 BYTE   W24
// 027   ----------------------------------------
 BYTE   N17
 BYTE   W24
 BYTE   N05  An3
 BYTE   W18
 BYTE   N17
 BYTE   W18
 BYTE   N05  An2
 BYTE   W12
 BYTE   An3
 BYTE   W24
// 028   ----------------------------------------
 BYTE   N17
 BYTE   W24
 BYTE   N05  En3
 BYTE   W18
 BYTE   N17
 BYTE   W18
 BYTE   N05  Gn2
 BYTE   W12
 BYTE   Gn3
 BYTE   W24
// 029   ----------------------------------------
 BYTE   N17
 BYTE   W24
 BYTE   N05  Fs3
 BYTE   W18
 BYTE   N17
 BYTE   W18
 BYTE   N05  An2
 BYTE   W12
 BYTE   An3
 BYTE   W18
 BYTE   N17
 BYTE   W06
// 030   ----------------------------------------
 BYTE   W12
 BYTE   N05  An2
 BYTE   W12
 BYTE   Bn3
 BYTE   W18
 BYTE   N17
 BYTE   W18
 BYTE   N05  Bn2
 BYTE   W12
 BYTE   Bn3
 BYTE   W18
 BYTE   N17
 BYTE   W06
// 031   ----------------------------------------
 BYTE   W12
 BYTE   N05  Bn2
 BYTE   W12
 BYTE   An3
 BYTE   W18
 BYTE   N17
 BYTE   W18
 BYTE   N05  An2
 BYTE   W12
 BYTE   An3
 BYTE   W18
 BYTE   N17
 BYTE   W06
// 032   ----------------------------------------
 BYTE   W12
 BYTE   N05  An2
 BYTE   W12
 BYTE   Gn3
 BYTE   W18
 BYTE   N17
 BYTE   W18
 BYTE   N05  Gn2
 BYTE   W12
 BYTE   Gn3
 BYTE   W18
 BYTE   N17
 BYTE   W06
// 033   ----------------------------------------
 BYTE   W12
 BYTE   N05  Gn2
 BYTE   W12
 BYTE   Fs3
 BYTE   W18
 BYTE   N17
 BYTE   W18
 BYTE   N05  En3
 BYTE   W12
 BYTE   Ds3
 BYTE   W24
// 034   ----------------------------------------
 BYTE   N17
 BYTE   W96
// 035   ----------------------------------------
 BYTE   W96
// 036   ----------------------------------------
 BYTE   W96
// 037   ----------------------------------------
 BYTE   W96
// 038   ----------------------------------------
 BYTE   W96
// 039   ----------------------------------------
 BYTE   W96
// 040   ----------------------------------------
 BYTE   W96
// 041   ----------------------------------------
 BYTE   W96
// 042   ----------------------------------------
 BYTE   W96
// 043   ----------------------------------------
 BYTE   W96
// 044   ----------------------------------------
 BYTE   W24
 BYTE   N05  Bn3  v112
 BYTE   W06
 BYTE   N01  Bn3  v004
 BYTE   W12
 BYTE   N17  Bn3  v112
 BYTE   W18
 BYTE   N05  Gn2
 BYTE   W06
 BYTE   N01  Gn2  v004
 BYTE   W06
 BYTE   N05  Bn3  v112
 BYTE   W06
 BYTE   N01  Bn3  v004
 BYTE   W12
 BYTE   N17  Bn3  v112
 BYTE   W06
 BYTE   PATT
  POIN2 Label_8_01086AD1
 BYTE   PATT
  POIN2 Label_8_01086AFA
 BYTE   PATT
  POIN2 Label_8_01086B23
 BYTE   PATT
  POIN2 Label_8_01086B4C
 BYTE   PATT
  POIN2 Label_8_01086AD1
 BYTE   PATT
  POIN2 Label_8_01086AFA
 BYTE   PATT
  POIN2 Label_8_01086B23
 BYTE   PATT
  POIN2 Label_8_01086B4C
 BYTE   PATT
  POIN2 Label_8_01086AD1
 BYTE   PATT
  POIN2 Label_8_01086AFA
 BYTE   PATT
  POIN2 Label_8_01086B23
// 045   ----------------------------------------
 BYTE   W12
 BYTE   N05  An2  v112
 BYTE   W06
 BYTE   N01  An2  v004
 BYTE   W78
// 046   ----------------------------------------
 BYTE   W96
// 047   ----------------------------------------
 BYTE   W96
// 048   ----------------------------------------
 BYTE   W96
// 049   ----------------------------------------
 BYTE   W96
// 050   ----------------------------------------
 BYTE   W96
// 051   ----------------------------------------
 BYTE   W96
// 052   ----------------------------------------
 BYTE   W96
// 053   ----------------------------------------
 BYTE   W11
 BYTE   GoTo
  POIN2 Label_8_01086AB2
 BYTE   FINE

//**************** Track 10 (Midi-Chn.9) ****************//

PokemonMDExplorersDialgasFighttotheFinishGratedShtick_010:
// 000   ----------------------------------------
 BYTE   KEYSH   PokemonMDExplorersDialgasFighttotheFinishGratedShtick_key+0
 BYTE   W24
 BYTE   VOICE   116
 BYTE   VOL   56*PokemonMDExplorersDialgasFighttotheFinishGratedShtick_mvl/mxv
 BYTE   PAN   c_v+0
 BYTE   N02  An2  v036
 BYTE   W03
 BYTE   An2  v040
 BYTE   W03
 BYTE   N02
 BYTE   W03
 BYTE   An2  v044
 BYTE   W03
 BYTE   An2  v048
 BYTE   W03
 BYTE   An2  v056
 BYTE   W03
 BYTE   An2  v064
 BYTE   W03
 BYTE   An2  v080
 BYTE   W03
 BYTE   N06
 BYTE   W72
// 001   ----------------------------------------
 BYTE   W24
 BYTE   Gn2  v100
 BYTE   W72
// 002   ----------------------------------------
 BYTE   N02  An2  v036
 BYTE   W03
 BYTE   An2  v040
 BYTE   W03
 BYTE   N02
 BYTE   W03
 BYTE   An2  v044
 BYTE   W03
 BYTE   An2  v048
 BYTE   W03
 BYTE   An2  v056
 BYTE   W03
 BYTE   An2  v064
 BYTE   W03
 BYTE   An2  v080
 BYTE   W03
 BYTE   N06
 BYTE   W72
// 003   ----------------------------------------
 BYTE   W24
 BYTE   Gn2  v100
 BYTE   W72
// 004   ----------------------------------------
 BYTE   N02  An2  v036
 BYTE   W03
 BYTE   An2  v040
 BYTE   W03
 BYTE   N02
 BYTE   W03
 BYTE   An2  v044
 BYTE   W03
 BYTE   An2  v048
 BYTE   W03
 BYTE   An2  v056
 BYTE   W03
 BYTE   An2  v064
 BYTE   W03
 BYTE   An2  v080
 BYTE   W03
 BYTE   N12  En2  v100
 BYTE   N06  An2  v080
 BYTE   N14  Dn5  v120
 BYTE   W18
 BYTE   N06  An3  v100
 BYTE   N08  Dn5  v092
 BYTE   W12
 BYTE   N02  Dn5  v020
 BYTE   W06
 BYTE   N06  An3  v100
 BYTE   N11  Dn5
 BYTE   W12
 BYTE   N06  An3
 BYTE   W24
// 005   ----------------------------------------
Label_9_01086E43:
 BYTE   W24
 BYTE   N12  En2  v100
 BYTE   N06  Gn2
 BYTE   W18
 BYTE   An3
 BYTE   W18
 BYTE   N06
 BYTE   W12
 BYTE   N12  En2
 BYTE   W18
 BYTE   N06  An3
 BYTE   W06
 BYTE   PEND 
// 006   ----------------------------------------
 BYTE   N02  An2  v036
 BYTE   W03
 BYTE   An2  v040
 BYTE   W03
 BYTE   N02
 BYTE   W03
 BYTE   An2  v044
 BYTE   W03
 BYTE   An2  v048
 BYTE   N06  An3  v100
 BYTE   N02  Dn5  v088
 BYTE   W03
 BYTE   An2  v056
 BYTE   W03
 BYTE   An2  v064
 BYTE   N02  Dn5  v048
 BYTE   W03
 BYTE   An2  v080
 BYTE   W03
 BYTE   N12  En2  v100
 BYTE   N06  An2  v080
 BYTE   N14  Dn5  v120
 BYTE   W18
 BYTE   N06  An3  v100
 BYTE   N08  Dn5  v092
 BYTE   W12
 BYTE   N02  Dn5  v020
 BYTE   W06
 BYTE   N06  An3  v100
 BYTE   N11  Dn5
 BYTE   W12
 BYTE   N06  An3
 BYTE   W24
 BYTE   PATT
  POIN2 Label_9_01086E43
// 007   ----------------------------------------
 BYTE   N02  An2  v036
 BYTE   W03
 BYTE   An2  v040
 BYTE   W03
 BYTE   N02
 BYTE   W03
 BYTE   An2  v044
 BYTE   W03
 BYTE   An2  v048
 BYTE   N06  An3  v100
 BYTE   N02  Dn5  v088
 BYTE   W03
 BYTE   An2  v056
 BYTE   W03
 BYTE   An2  v064
 BYTE   N02  Dn5  v048
 BYTE   W03
 BYTE   An2  v080
 BYTE   W03
 BYTE   N05  Cn1  v108
 BYTE   N12  En2  v100
 BYTE   N06  An2  v080
 BYTE   N14  Dn5  v127
 BYTE   W18
 BYTE   N05  En1  v100
 BYTE   N06  An3
 BYTE   N11  Dn5  v127
 BYTE   W12
 BYTE   N02  Dn5  v028
 BYTE   W06
 BYTE   N05  En1  v100
 BYTE   N06  An3
 BYTE   N02  Dn5  v080
 BYTE   W06
 BYTE   Dn5  v028
 BYTE   W06
 BYTE   N06  An3  v100
 BYTE   W18
 BYTE   N06
 BYTE   W06
// 008   ----------------------------------------
 BYTE   W12
 BYTE   N05  Cn1  v072
 BYTE   N06  An3  v100
 BYTE   W06
 BYTE   N05  Cn1  v048
 BYTE   W06
 BYTE   Cn1  v108
 BYTE   N12  En2  v100
 BYTE   N06  Gn2
 BYTE   N14  Dn5  v127
 BYTE   W18
 BYTE   N05  En1  v100
 BYTE   N06  An3
 BYTE   N11  Dn5  v127
 BYTE   W12
 BYTE   N02  Dn5  v028
 BYTE   W06
 BYTE   N05  Cn1  v056
 BYTE   N05  En1  v100
 BYTE   N06  An3
 BYTE   N02  Dn5  v080
 BYTE   W06
 BYTE   Dn5  v028
 BYTE   W06
 BYTE   N06  An3  v100
 BYTE   W18
 BYTE   N06
 BYTE   W06
// 009   ----------------------------------------
 BYTE   N02  An2  v036
 BYTE   W03
 BYTE   An2  v040
 BYTE   W03
 BYTE   N02
 BYTE   W03
 BYTE   An2  v044
 BYTE   W03
 BYTE   N05  Cn1  v072
 BYTE   N02  An2  v048
 BYTE   N06  An3  v100
 BYTE   W03
 BYTE   N02  An2  v056
 BYTE   W03
 BYTE   N05  Cn1  v028
 BYTE   N02  An2  v064
 BYTE   W03
 BYTE   An2  v080
 BYTE   W03
 BYTE   N05  Cn1  v108
 BYTE   N12  En2  v100
 BYTE   N06  An2  v080
 BYTE   N14  Dn5  v127
 BYTE   W18
 BYTE   N05  En1  v100
 BYTE   N06  An3
 BYTE   N11  Dn5  v127
 BYTE   W12
 BYTE   N02  Dn5  v028
 BYTE   W06
 BYTE   N05  En1  v100
 BYTE   N06  An3
 BYTE   N02  Dn5  v080
 BYTE   W06
 BYTE   Dn5  v028
 BYTE   W06
 BYTE   N06  An3  v100
 BYTE   W12
 BYTE   N05  En1  v076
 BYTE   N02  Dn5  v108
 BYTE   W06
 BYTE   N05  En1  v060
 BYTE   N06  An3  v100
 BYTE   N02  Dn5  v028
 BYTE   W06
// 010   ----------------------------------------
 BYTE   N05  En1  v100
 BYTE   N08  Dn5  v127
 BYTE   W12
 BYTE   N05  Cn1  v072
 BYTE   N06  An3  v100
 BYTE   N02  Dn5  v080
 BYTE   W06
 BYTE   N05  Cn1  v048
 BYTE   N02  Dn5  v028
 BYTE   W06
 BYTE   N05  Cn1  v108
 BYTE   N12  En2  v100
 BYTE   N06  Gn2
 BYTE   N14  Dn5  v127
 BYTE   W12
 BYTE   N05  En1  v040
 BYTE   W06
 BYTE   En1  v100
 BYTE   N06  An3
 BYTE   N11  Dn5  v127
 BYTE   W12
 BYTE   N02  Dn5  v028
 BYTE   W06
 BYTE   N05  En1  v100
 BYTE   N06  An3
 BYTE   N02  Dn5  v080
 BYTE   W06
 BYTE   Dn5  v028
 BYTE   W06
 BYTE   N05  Cn1  v076
 BYTE   N06  An3  v100
 BYTE   W12
 BYTE   N05  En1
 BYTE   N02  Dn5  v108
 BYTE   W06
 BYTE   N06  An3  v100
 BYTE   N02  Dn5  v028
 BYTE   W06
// 011   ----------------------------------------
 BYTE   N05  En1  v100
 BYTE   N02  An2  v036
 BYTE   N08  Dn5  v127
 BYTE   W03
 BYTE   N02  An2  v040
 BYTE   W03
 BYTE   N05  En1  v068
 BYTE   N02  An2  v040
 BYTE   W03
 BYTE   An2  v044
 BYTE   W03
 BYTE   N05  En1  v080
 BYTE   N02  An2  v048
 BYTE   N06  An3  v100
 BYTE   N02  Dn5  v080
 BYTE   W03
 BYTE   An2  v056
 BYTE   W03
 BYTE   N05  En1  v060
 BYTE   N02  An2  v064
 BYTE   N02  Dn5  v028
 BYTE   W03
 BYTE   An2  v080
 BYTE   W03
Label_9_01087007:
 BYTE   N05  Cn1  v108
 BYTE   N06  Gs1  v100
 BYTE   N06  An2  v080
 BYTE   N05  Ds3  v060
 BYTE   N14  Dn5  v127
 BYTE   W12
 BYTE   N05  En1  v040
 BYTE   N02  An3  v088
 BYTE   W06
 BYTE   N05  En1  v100
 BYTE   N05  Dn3  v108
 BYTE   N02  An3  v052
 BYTE   N11  Dn5  v127
 BYTE   W06
 BYTE   N06  Gs1  v100
 BYTE   W06
 BYTE   N02  Dn5  v028
 BYTE   W06
 BYTE   N05  Cs3  v080
 BYTE   N02  An3  v088
 BYTE   N02  Dn5  v080
 BYTE   W06
 BYTE   N05  Dn3  v108
 BYTE   N02  An3  v052
 BYTE   N02  Dn5  v028
 BYTE   W06
 BYTE   N06  Gs1  v100
 BYTE   W12
 BYTE   N05  En1  v056
 BYTE   N05  Ds3  v048
 BYTE   N02  An3  v088
 BYTE   N02  Dn5  v108
 BYTE   W06
 BYTE   N05  En1  v040
 BYTE   N05  En3  v092
 BYTE   N02  An3  v052
 BYTE   N02  Dn5  v028
 BYTE   W06
// 012   ----------------------------------------
Label_9_01087065:
 BYTE   N05  En1  v100
 BYTE   N06  Gs1
 BYTE   N05  Dn3  v108
 BYTE   N08  Dn5  v127
 BYTE   W12
 BYTE   N05  Cn1  v072
 BYTE   N11  Ds3  v060
 BYTE   N02  An3  v088
 BYTE   N02  Dn5  v080
 BYTE   W06
 BYTE   N05  Cn1  v048
 BYTE   N02  An3  v052
 BYTE   N02  Dn5  v028
 BYTE   W06
 BYTE   N05  Cn1  v108
 BYTE   N06  Gs1  v100
 BYTE   N14  Dn5  v127
 BYTE   W12
 BYTE   N05  En1  v040
 BYTE   N05  Cs3  v092
 BYTE   N02  An3  v088
 BYTE   W06
 BYTE   N05  En1  v100
 BYTE   N05  Dn3  v108
 BYTE   N02  An3  v052
 BYTE   N11  Dn5  v127
 BYTE   W06
 BYTE   N06  Gs1  v100
 BYTE   W06
 BYTE   N02  Dn5  v028
 BYTE   W06
 BYTE   N05  Cn1  v056
 BYTE   N05  En3  v044
 BYTE   N02  An3  v088
 BYTE   N02  Dn5  v080
 BYTE   W06
 BYTE   N05  Dn3  v108
 BYTE   N02  An3  v052
 BYTE   N02  Dn5  v028
 BYTE   W06
 BYTE   N06  Gs1  v100
 BYTE   W12
 BYTE   N05  En1  v056
 BYTE   N05  Ds3  v048
 BYTE   N02  An3  v088
 BYTE   N02  Dn5  v108
 BYTE   W06
 BYTE   N05  En1  v040
 BYTE   N05  En3  v092
 BYTE   N02  An3  v052
 BYTE   N02  Dn5  v028
 BYTE   W06
 BYTE   PEND 
// 013   ----------------------------------------
Label_9_010870E7:
 BYTE   N05  En1  v100
 BYTE   N06  Gs1
 BYTE   N05  Cs3  v092
 BYTE   N08  Dn5  v127
 BYTE   W06
 BYTE   N06  Cs3  v072
 BYTE   W06
 BYTE   N05  Cn1
 BYTE   N06  Cs3  v092
 BYTE   N02  An3  v088
 BYTE   N02  Dn5  v080
 BYTE   W06
 BYTE   N05  Cn1  v028
 BYTE   N06  Cs3  v052
 BYTE   N02  An3
 BYTE   N02  Dn5  v028
 BYTE   W06
 BYTE   N05  Cn1  v108
 BYTE   N06  Gs1  v100
 BYTE   N05  En3  v092
 BYTE   N14  Dn5  v127
 BYTE   W12
 BYTE   N05  En1  v040
 BYTE   N02  An3  v088
 BYTE   W06
 BYTE   N05  En1  v100
 BYTE   N05  Dn3  v108
 BYTE   N02  An3  v052
 BYTE   N11  Dn5  v127
 BYTE   W06
 BYTE   N06  Gs1  v100
 BYTE   W06
 BYTE   N02  Dn5  v028
 BYTE   W06
 BYTE   N05  Cs3  v080
 BYTE   N02  An3  v088
 BYTE   N02  Dn5  v080
 BYTE   W06
 BYTE   N05  Dn3  v108
 BYTE   N02  An3  v052
 BYTE   N02  Dn5  v028
 BYTE   W06
 BYTE   N06  Gs1  v100
 BYTE   W12
 BYTE   N05  En1  v056
 BYTE   N05  Ds3  v048
 BYTE   N02  An3  v088
 BYTE   N02  Dn5  v108
 BYTE   W06
 BYTE   N05  En1  v040
 BYTE   N05  En3  v092
 BYTE   N02  An3  v052
 BYTE   N02  Dn5  v028
 BYTE   W06
 BYTE   PEND 
// 014   ----------------------------------------
Label_9_0108716B:
 BYTE   N05  En1  v100
 BYTE   N06  Gs1
 BYTE   N05  Dn3  v108
 BYTE   N08  Dn5  v127
 BYTE   W12
 BYTE   N05  Cn1  v072
 BYTE   N11  Ds3  v060
 BYTE   N02  An3  v088
 BYTE   N02  Dn5  v080
 BYTE   W06
 BYTE   N05  Cn1  v048
 BYTE   N02  An3  v052
 BYTE   N02  Dn5  v028
 BYTE   W06
 BYTE   N05  Cn1  v108
 BYTE   N06  Gs1  v100
 BYTE   N14  Dn5  v127
 BYTE   W12
 BYTE   N05  En1  v040
 BYTE   N05  Cs3  v092
 BYTE   N02  An3  v088
 BYTE   W06
 BYTE   N05  En1  v100
 BYTE   N05  Dn3  v108
 BYTE   N02  An3  v052
 BYTE   N11  Dn5  v127
 BYTE   W06
 BYTE   N06  Gs1  v100
 BYTE   W06
 BYTE   N02  Dn5  v028
 BYTE   W06
 BYTE   N05  En1  v100
 BYTE   N05  En3  v044
 BYTE   N02  An3  v088
 BYTE   N02  Dn5  v080
 BYTE   W06
 BYTE   N05  Dn3  v108
 BYTE   N02  An3  v052
 BYTE   N02  Dn5  v028
 BYTE   W06
 BYTE   N06  Gs1  v100
 BYTE   N05  Dn3  v096
 BYTE   W06
 BYTE   N06  Dn3  v076
 BYTE   W06
 BYTE   N05  En1  v056
 BYTE   N06  Dn3  v096
 BYTE   N02  An3  v088
 BYTE   N02  Dn5  v108
 BYTE   W06
 BYTE   N05  En1  v040
 BYTE   N06  Dn3  v056
 BYTE   N02  An3  v052
 BYTE   N02  Dn5  v028
 BYTE   W06
 BYTE   PEND 
// 015   ----------------------------------------
Label_9_010871F4:
 BYTE   N05  En1  v100
 BYTE   N06  Gs1
 BYTE   N02  An2  v036
 BYTE   N05  Cs3  v092
 BYTE   N08  Dn5  v127
 BYTE   W03
 BYTE   N02  An2  v040
 BYTE   W03
 BYTE   N02
 BYTE   N06  Cs3  v072
 BYTE   W03
 BYTE   N02  An2  v044
 BYTE   W03
 BYTE   N05  Cn1  v072
 BYTE   N02  An2  v048
 BYTE   N06  Cs3  v092
 BYTE   N02  An3  v088
 BYTE   N02  Dn5  v080
 BYTE   W03
 BYTE   An2  v056
 BYTE   W03
 BYTE   N05  Cn1  v028
 BYTE   N02  An2  v064
 BYTE   N06  Cs3  v052
 BYTE   N02  An3
 BYTE   N02  Dn5  v028
 BYTE   W03
 BYTE   An2  v080
 BYTE   W03
 BYTE   N05  Cn1  v108
 BYTE   N06  Gs1  v100
 BYTE   N06  An2  v080
 BYTE   N05  Ds3  v060
 BYTE   N14  Dn5  v127
 BYTE   W12
 BYTE   N05  En1  v040
 BYTE   N02  An3  v088
 BYTE   W06
 BYTE   N05  En1  v100
 BYTE   N05  Dn3  v108
 BYTE   N02  An3  v052
 BYTE   N11  Dn5  v127
 BYTE   W06
 BYTE   N06  Gs1  v100
 BYTE   W06
 BYTE   N02  Dn5  v028
 BYTE   W06
 BYTE   N05  Cs3  v080
 BYTE   N02  An3  v088
 BYTE   N02  Dn5  v080
 BYTE   W06
 BYTE   N05  Dn3  v108
 BYTE   N02  An3  v052
 BYTE   N02  Dn5  v028
 BYTE   W06
 BYTE   N06  Gs1  v100
 BYTE   W12
 BYTE   N05  En1  v056
 BYTE   N05  Ds3  v048
 BYTE   N02  An3  v088
 BYTE   N02  Dn5  v108
 BYTE   W06
 BYTE   N05  En1  v040
 BYTE   N05  En3  v092
 BYTE   N02  An3  v052
 BYTE   N02  Dn5  v028
 BYTE   W06
 BYTE   PEND 
 BYTE   PATT
  POIN2 Label_9_01087065
 BYTE   PATT
  POIN2 Label_9_010870E7
 BYTE   PATT
  POIN2 Label_9_0108716B
 BYTE   PATT
  POIN2 Label_9_010871F4
 BYTE   PATT
  POIN2 Label_9_01087065
 BYTE   PATT
  POIN2 Label_9_010870E7
 BYTE   PATT
  POIN2 Label_9_0108716B
 BYTE   PATT
  POIN2 Label_9_010871F4
 BYTE   PATT
  POIN2 Label_9_01087065
 BYTE   PATT
  POIN2 Label_9_010870E7
 BYTE   PATT
  POIN2 Label_9_0108716B
// 016   ----------------------------------------
 BYTE   N05  En1  v100
 BYTE   N06  Gs1
 BYTE   N02  An2  v036
 BYTE   N05  Cs3  v092
 BYTE   N08  Dn5  v127
 BYTE   W03
 BYTE   N02  An2  v040
 BYTE   W03
 BYTE   N02
 BYTE   N06  Cs3  v072
 BYTE   W03
 BYTE   N02  An2  v044
 BYTE   W03
 BYTE   N05  Cn1  v072
 BYTE   N02  An2  v048
 BYTE   N06  Cs3  v092
 BYTE   N02  An3  v088
 BYTE   N02  Dn5  v080
 BYTE   W03
 BYTE   An2  v056
 BYTE   W03
 BYTE   N05  Cn1  v028
 BYTE   N02  An2  v064
 BYTE   N06  Cs3  v052
 BYTE   N02  An3
 BYTE   N02  Dn5  v028
 BYTE   W03
 BYTE   An2  v080
 BYTE   W03
 BYTE   N05  Cn1  v108
 BYTE   N06  Gs1  v100
 BYTE   N06  Gn2
 BYTE   N06  An2  v080
 BYTE   N05  Ds3  v060
 BYTE   N14  Dn5  v127
 BYTE   W12
 BYTE   N05  En1  v040
 BYTE   N02  An3  v088
 BYTE   W06
 BYTE   N05  En1  v100
 BYTE   N05  Dn3  v108
 BYTE   N02  An3  v052
 BYTE   N11  Dn5  v127
 BYTE   W06
 BYTE   N06  Gs1  v100
 BYTE   W06
 BYTE   N02  Dn5  v028
 BYTE   W06
 BYTE   N05  Cs3  v080
 BYTE   N02  An3  v088
 BYTE   N02  Dn5  v080
 BYTE   W06
 BYTE   N05  Dn3  v108
 BYTE   N02  An3  v052
 BYTE   N02  Dn5  v028
 BYTE   W06
 BYTE   N06  Gs1  v100
 BYTE   W12
 BYTE   N05  En1  v056
 BYTE   N05  Ds3  v048
 BYTE   N02  An3  v088
 BYTE   N02  Dn5  v108
 BYTE   W06
 BYTE   N05  En1  v040
 BYTE   N05  En3  v092
 BYTE   N02  An3  v052
 BYTE   N02  Dn5  v028
 BYTE   W06
 BYTE   PATT
  POIN2 Label_9_01087065
 BYTE   PATT
  POIN2 Label_9_010870E7
 BYTE   PATT
  POIN2 Label_9_0108716B
// 017   ----------------------------------------
Label_9_0108737B:
 BYTE   N05  En1  v100
 BYTE   N06  Gs1
 BYTE   N05  Cs3  v092
 BYTE   N08  Dn5  v127
 BYTE   W06
 BYTE   N06  Cs3  v072
 BYTE   W06
 BYTE   N05  Cn1
 BYTE   N06  Cs3  v092
 BYTE   N02  An3  v088
 BYTE   N02  Dn5  v080
 BYTE   W06
 BYTE   N05  Cn1  v028
 BYTE   N06  Cs3  v052
 BYTE   N02  An3
 BYTE   N02  Dn5  v028
 BYTE   W06
 BYTE   N05  Cn1  v108
 BYTE   N06  Gs1  v100
 BYTE   N06  Gn2
 BYTE   N05  Ds3  v060
 BYTE   N14  Dn5  v127
 BYTE   W12
 BYTE   N05  En1  v040
 BYTE   N02  An3  v088
 BYTE   W06
 BYTE   N05  En1  v100
 BYTE   N05  Dn3  v108
 BYTE   N02  An3  v052
 BYTE   N11  Dn5  v127
 BYTE   W06
 BYTE   N06  Gs1  v100
 BYTE   W06
 BYTE   N02  Dn5  v028
 BYTE   W06
 BYTE   N05  Cs3  v080
 BYTE   N02  An3  v088
 BYTE   N02  Dn5  v080
 BYTE   W06
 BYTE   N05  Dn3  v108
 BYTE   N02  An3  v052
 BYTE   N02  Dn5  v028
 BYTE   W06
 BYTE   N06  Gs1  v100
 BYTE   W12
 BYTE   N05  En1  v056
 BYTE   N05  Ds3  v048
 BYTE   N02  An3  v088
 BYTE   N02  Dn5  v108
 BYTE   W06
 BYTE   N05  En1  v040
 BYTE   N05  En3  v092
 BYTE   N02  An3  v052
 BYTE   N02  Dn5  v028
 BYTE   W06
 BYTE   PEND 
 BYTE   PATT
  POIN2 Label_9_01087065
 BYTE   PATT
  POIN2 Label_9_010870E7
 BYTE   PATT
  POIN2 Label_9_0108716B
 BYTE   PATT
  POIN2 Label_9_0108737B
 BYTE   PATT
  POIN2 Label_9_01087065
 BYTE   PATT
  POIN2 Label_9_010870E7
 BYTE   PATT
  POIN2 Label_9_0108716B
 BYTE   PATT
  POIN2 Label_9_0108737B
 BYTE   PATT
  POIN2 Label_9_01087065
 BYTE   PATT
  POIN2 Label_9_010870E7
 BYTE   PATT
  POIN2 Label_9_0108716B
// 018   ----------------------------------------
 BYTE   N05  En1  v100
 BYTE   N06  Gs1
 BYTE   N02  An2  v036
 BYTE   N05  Cs3  v092
 BYTE   N08  Dn5  v127
 BYTE   W03
 BYTE   N02  An2  v040
 BYTE   W03
 BYTE   N02
 BYTE   N06  Cs3  v072
 BYTE   W03
 BYTE   N02  An2  v044
 BYTE   W03
 BYTE   N05  Cn1  v072
 BYTE   N02  An2  v048
 BYTE   N06  Cs3  v092
 BYTE   N02  An3  v088
 BYTE   N02  Dn5  v080
 BYTE   W03
 BYTE   An2  v056
 BYTE   W03
 BYTE   N05  Cn1  v028
 BYTE   N02  An2  v064
 BYTE   N06  Cs3  v052
 BYTE   N02  An3
 BYTE   N02  Dn5  v028
 BYTE   W03
 BYTE   An2  v080
 BYTE   W03
 BYTE   N06  Gs1  v100
 BYTE   N06  An2  v080
 BYTE   W12
 BYTE   N02  An3  v088
 BYTE   W06
 BYTE   An3  v052
 BYTE   W06
 BYTE   N12  En2  v100
 BYTE   W12
 BYTE   N02  An3  v088
 BYTE   W06
 BYTE   An3  v052
 BYTE   W06
 BYTE   N06  Gs1  v088
 BYTE   W12
 BYTE   N02  An3
 BYTE   W06
 BYTE   An3  v052
 BYTE   W06
// 019   ----------------------------------------
Label_9_0108749C:
 BYTE   N06  Gs1  v088
 BYTE   W12
 BYTE   N02  An3
 BYTE   W06
 BYTE   An3  v052
 BYTE   W06
 BYTE   N06  Gs1  v100
 BYTE   W12
 BYTE   N02  An3  v088
 BYTE   W06
 BYTE   An3  v052
 BYTE   W06
 BYTE   N12  En2  v100
 BYTE   W12
 BYTE   N02  An3  v088
 BYTE   W06
 BYTE   An3  v052
 BYTE   W06
 BYTE   N06  Gs1  v088
 BYTE   W12
 BYTE   N02  An3
 BYTE   W06
 BYTE   An3  v052
 BYTE   W06
 BYTE   PEND 
 BYTE   PATT
  POIN2 Label_9_0108749C
 BYTE   PATT
  POIN2 Label_9_0108749C
// 020   ----------------------------------------
 BYTE   N06  Gs1  v088
 BYTE   N02  An2  v036
 BYTE   W03
 BYTE   An2  v040
 BYTE   W03
 BYTE   N02
 BYTE   W03
 BYTE   An2  v044
 BYTE   W03
 BYTE   An2  v048
 BYTE   N02  An3  v088
 BYTE   W03
 BYTE   An2  v056
 BYTE   W03
 BYTE   An2  v064
 BYTE   N02  An3  v052
 BYTE   W03
 BYTE   An2  v080
 BYTE   W03
 BYTE   N06  Gs1  v100
 BYTE   N06  An2  v080
 BYTE   W12
 BYTE   N02  An3  v088
 BYTE   W06
 BYTE   An3  v052
 BYTE   W06
 BYTE   N06  Gs1  v100
 BYTE   W12
 BYTE   N02  An3  v088
 BYTE   W06
 BYTE   An3  v052
 BYTE   W06
 BYTE   N06  Gn2  v100
 BYTE   W12
 BYTE   N02  An3  v088
 BYTE   W06
 BYTE   An3  v052
 BYTE   W06
// 021   ----------------------------------------
 BYTE   N06  Gs1  v100
 BYTE   N02  An2  v036
 BYTE   W03
 BYTE   An2  v040
 BYTE   W03
 BYTE   N02
 BYTE   W03
 BYTE   An2  v044
 BYTE   W03
 BYTE   An2  v048
 BYTE   N02  An3  v088
 BYTE   W03
 BYTE   An2  v056
 BYTE   W03
 BYTE   An2  v064
 BYTE   N02  An3  v052
 BYTE   W03
 BYTE   An2  v080
 BYTE   W03
 BYTE   N06  Gs1  v100
 BYTE   N06  An2  v080
 BYTE   W12
 BYTE   N02  An3  v088
 BYTE   W06
 BYTE   An3  v052
 BYTE   W06
 BYTE   N06  Gs1  v100
 BYTE   W12
 BYTE   N02  An3  v088
 BYTE   W06
 BYTE   An3  v052
 BYTE   W06
 BYTE   N06  Gn2  v100
 BYTE   W12
 BYTE   N02  An3  v088
 BYTE   W06
 BYTE   An3  v052
 BYTE   W06
// 022   ----------------------------------------
 BYTE   N06  Gs1  v100
 BYTE   N02  An2  v036
 BYTE   W03
 BYTE   An2  v040
 BYTE   W03
 BYTE   N02
 BYTE   W03
 BYTE   An2  v044
 BYTE   W03
 BYTE   An2  v048
 BYTE   N02  An3  v088
 BYTE   W03
 BYTE   An2  v056
 BYTE   W03
 BYTE   An2  v064
 BYTE   N02  An3  v052
 BYTE   W03
 BYTE   An2  v080
 BYTE   W03
 BYTE   N05  Cn1  v108
 BYTE   N06  Gs1  v100
 BYTE   N06  An2  v080
 BYTE   W12
 BYTE   N02  An3  v088
 BYTE   W06
 BYTE   N05  En1  v100
 BYTE   N02  An3  v052
 BYTE   W06
 BYTE   N06  Gs1  v100
 BYTE   W12
 BYTE   N05  Cn1  v108
 BYTE   N02  An3  v088
 BYTE   W06
 BYTE   An3  v052
 BYTE   W06
 BYTE   N05  Cn1  v108
 BYTE   N06  Gn2  v100
 BYTE   N14  Dn5  v120
 BYTE   W12
 BYTE   N02  An3  v088
 BYTE   W06
 BYTE   An3  v052
 BYTE   N08  Dn5  v092
 BYTE   W06
// 023   ----------------------------------------
 BYTE   N06  Gs1  v100
 BYTE   W06
 BYTE   N02  Dn5  v020
 BYTE   W06
 BYTE   N05  Cn1  v072
 BYTE   N02  An3  v088
 BYTE   N11  Dn5  v100
 BYTE   W06
 BYTE   N05  Cn1  v048
 BYTE   N02  An3  v052
 BYTE   W06
 BYTE   N05  Cn1  v108
 BYTE   N06  Gs1  v100
 BYTE   N06  An2
 BYTE   W12
 BYTE   N02  An3  v088
 BYTE   W06
 BYTE   N05  En1  v100
 BYTE   N02  An3  v052
 BYTE   W06
 BYTE   N06  Gs1  v100
 BYTE   W12
 BYTE   N05  Cn1  v108
 BYTE   N02  An3  v088
 BYTE   W06
 BYTE   An3  v052
 BYTE   W06
 BYTE   N05  Cn1  v108
 BYTE   N06  Gn2  v100
 BYTE   N14  Dn5  v120
 BYTE   W12
 BYTE   N02  An3  v088
 BYTE   W06
 BYTE   An3  v052
 BYTE   N08  Dn5  v092
 BYTE   W06
// 024   ----------------------------------------
 BYTE   N06  Gs1  v100
 BYTE   W06
 BYTE   N02  Dn5  v020
 BYTE   W06
 BYTE   N05  En1  v100
 BYTE   N02  An3  v088
 BYTE   N11  Dn5  v100
 BYTE   W06
 BYTE   N05  En1
 BYTE   N02  An3  v052
 BYTE   W06
 BYTE   N05  Cn1  v108
 BYTE   N06  Gs1  v100
 BYTE   N06  An2
 BYTE   W12
 BYTE   N02  An3  v088
 BYTE   W06
 BYTE   N05  En1  v100
 BYTE   N02  An3  v052
 BYTE   W06
 BYTE   N06  Gs1  v100
 BYTE   W12
 BYTE   N05  Cn1  v072
 BYTE   N02  An3  v088
 BYTE   W06
 BYTE   N05  Cn1  v048
 BYTE   N02  An3  v052
 BYTE   W06
 BYTE   N05  Cn1  v108
 BYTE   N06  Gn2  v100
 BYTE   W12
 BYTE   N02  An3  v088
 BYTE   W06
 BYTE   N05  En1  v100
 BYTE   N02  An3  v052
 BYTE   W06
// 025   ----------------------------------------
 BYTE   N06  Gs1  v100
 BYTE   W12
 BYTE   N05  Cn1  v072
 BYTE   N02  An3  v088
 BYTE   W06
 BYTE   N05  Cn1  v048
 BYTE   N02  An3  v052
 BYTE   W06
 BYTE   N05  Cn1  v108
 BYTE   N02  An2  v036
 BYTE   W03
 BYTE   An2  v040
 BYTE   W03
 BYTE   N02
 BYTE   W03
 BYTE   An2  v044
 BYTE   W03
 BYTE   An2  v048
 BYTE   W03
 BYTE   An2  v056
 BYTE   W03
 BYTE   An2  v064
 BYTE   W03
 BYTE   An2  v080
 BYTE   W03
 BYTE   N06
 BYTE   W09
 BYTE   N02  Ds1  v016
 BYTE   W03
 BYTE   Ds1  v020
 BYTE   W03
 BYTE   Ds1  v028
 BYTE   W03
 BYTE   Ds1  v036
 BYTE   W03
 BYTE   Ds1  v044
 BYTE   W03
 BYTE   Ds1  v048
 BYTE   W03
 BYTE   Ds1  v056
 BYTE   W03
 BYTE   Ds1  v064
 BYTE   W03
 BYTE   Ds1  v068
 BYTE   W03
 BYTE   Ds1  v076
 BYTE   W03
 BYTE   Ds1  v084
 BYTE   W03
 BYTE   Ds1  v088
 BYTE   W03
 BYTE   Ds1  v096
 BYTE   W03
// 026   ----------------------------------------
 BYTE   Ds1  v104
 BYTE   W24
 BYTE   N05  Cn1  v108
 BYTE   N06  Gs1  v100
 BYTE   N06  An2  v092
 BYTE   N05  Ds3  v060
 BYTE   N14  Dn5  v127
 BYTE   W12
 BYTE   N05  En1  v040
 BYTE   N02  An3  v088
 BYTE   W06
 BYTE   N05  En1  v100
 BYTE   N05  Dn3  v108
 BYTE   N02  An3  v052
 BYTE   N11  Dn5  v127
 BYTE   W06
 BYTE   N06  Gs1  v100
 BYTE   W06
 BYTE   N02  Dn5  v028
 BYTE   W06
 BYTE   N05  Cs3  v080
 BYTE   N02  An3  v088
 BYTE   N02  Dn5  v080
 BYTE   W06
 BYTE   N05  Dn3  v108
 BYTE   N02  An3  v052
 BYTE   N02  Dn5  v028
 BYTE   W06
 BYTE   N06  Gs1  v100
 BYTE   W12
 BYTE   N05  En1  v056
 BYTE   N05  Ds3  v048
 BYTE   N02  An3  v088
 BYTE   N02  Dn5  v108
 BYTE   W06
 BYTE   N05  En1  v040
 BYTE   N05  En3  v092
 BYTE   N02  An3  v052
 BYTE   N02  Dn5  v028
 BYTE   W06
// 027   ----------------------------------------
Label_9_0108770A:
 BYTE   N05  En1  v100
 BYTE   N06  Gs1
 BYTE   N05  Dn3  v108
 BYTE   N08  Dn5  v127
 BYTE   W12
 BYTE   N05  Cn1  v072
 BYTE   N11  Ds3  v060
 BYTE   N02  An3  v088
 BYTE   N02  Dn5  v080
 BYTE   W06
 BYTE   N05  Cn1  v048
 BYTE   N02  An3  v052
 BYTE   N02  Dn5  v028
 BYTE   W06
 BYTE   N05  Cn1  v108
 BYTE   N06  Gs1  v100
 BYTE   N06  Gn2
 BYTE   N14  Dn5  v127
 BYTE   W12
 BYTE   N05  En1  v040
 BYTE   N05  Cs3  v092
 BYTE   N02  An3  v088
 BYTE   W06
 BYTE   N05  En1  v100
 BYTE   N05  Dn3  v108
 BYTE   N02  An3  v052
 BYTE   N11  Dn5  v127
 BYTE   W06
 BYTE   N06  Gs1  v100
 BYTE   W06
 BYTE   N02  Dn5  v028
 BYTE   W06
 BYTE   N05  Cn1  v056
 BYTE   N05  En3  v044
 BYTE   N02  An3  v088
 BYTE   N02  Dn5  v080
 BYTE   W06
 BYTE   N05  Dn3  v108
 BYTE   N02  An3  v052
 BYTE   N02  Dn5  v028
 BYTE   W06
 BYTE   N06  Gs1  v100
 BYTE   W12
 BYTE   N05  En1  v056
 BYTE   N05  Ds3  v048
 BYTE   N02  An3  v088
 BYTE   N02  Dn5  v108
 BYTE   W06
 BYTE   N05  En1  v040
 BYTE   N05  En3  v092
 BYTE   N02  An3  v052
 BYTE   N02  Dn5  v028
 BYTE   W06
 BYTE   PEND 
// 028   ----------------------------------------
Label_9_0108778E:
 BYTE   N05  En1  v100
 BYTE   N06  Gs1
 BYTE   N02  An2  v036
 BYTE   N05  Cs3  v092
 BYTE   N08  Dn5  v127
 BYTE   W03
 BYTE   N02  An2  v040
 BYTE   W03
 BYTE   N02
 BYTE   N06  Cs3  v072
 BYTE   W03
 BYTE   N02  An2  v044
 BYTE   W03
 BYTE   N05  Cn1  v072
 BYTE   N02  An2  v048
 BYTE   N06  Cs3  v092
 BYTE   N02  An3  v088
 BYTE   N02  Dn5  v080
 BYTE   W03
 BYTE   An2  v056
 BYTE   W03
 BYTE   N05  Cn1  v028
 BYTE   N02  An2  v064
 BYTE   N06  Cs3  v052
 BYTE   N02  An3
 BYTE   N02  Dn5  v028
 BYTE   W03
 BYTE   An2  v080
 BYTE   W03
 BYTE   N05  Cn1  v108
 BYTE   N06  Gs1  v100
 BYTE   N06  An2  v080
 BYTE   N05  En3  v092
 BYTE   N14  Dn5  v127
 BYTE   W12
 BYTE   N05  En1  v040
 BYTE   N02  An3  v088
 BYTE   W06
 BYTE   N05  En1  v100
 BYTE   N05  Dn3  v108
 BYTE   N02  An3  v052
 BYTE   N11  Dn5  v127
 BYTE   W06
 BYTE   N06  Gs1  v100
 BYTE   W06
 BYTE   N02  Dn5  v028
 BYTE   W06
 BYTE   N05  Cs3  v080
 BYTE   N02  An3  v088
 BYTE   N02  Dn5  v080
 BYTE   W06
 BYTE   N05  Dn3  v108
 BYTE   N02  An3  v052
 BYTE   N02  Dn5  v028
 BYTE   W06
 BYTE   N06  Gs1  v100
 BYTE   W12
 BYTE   N05  En1  v056
 BYTE   N05  Ds3  v048
 BYTE   N02  An3  v088
 BYTE   N02  Dn5  v108
 BYTE   W06
 BYTE   N05  En1  v040
 BYTE   N05  En3  v092
 BYTE   N02  An3  v052
 BYTE   N02  Dn5  v028
 BYTE   W06
 BYTE   PEND 
// 029   ----------------------------------------
Label_9_0108782E:
 BYTE   N05  En1  v100
 BYTE   N06  Gs1
 BYTE   N05  Dn3  v108
 BYTE   N08  Dn5  v127
 BYTE   W12
 BYTE   N05  Cn1  v072
 BYTE   N11  Ds3  v060
 BYTE   N02  An3  v088
 BYTE   N02  Dn5  v080
 BYTE   W06
 BYTE   N05  Cn1  v048
 BYTE   N02  An3  v052
 BYTE   N02  Dn5  v028
 BYTE   W06
 BYTE   N05  Cn1  v108
 BYTE   N06  Gs1  v100
 BYTE   N06  Gn2
 BYTE   N14  Dn5  v127
 BYTE   W12
 BYTE   N05  En1  v040
 BYTE   N05  Cs3  v092
 BYTE   N02  An3  v088
 BYTE   W06
 BYTE   N05  En1  v100
 BYTE   N05  Dn3  v108
 BYTE   N02  An3  v052
 BYTE   N11  Dn5  v127
 BYTE   W06
 BYTE   N06  Gs1  v100
 BYTE   W06
 BYTE   N02  Dn5  v028
 BYTE   W06
 BYTE   N05  En1  v100
 BYTE   N05  En3  v044
 BYTE   N02  An3  v088
 BYTE   N02  Dn5  v080
 BYTE   W06
 BYTE   N05  Dn3  v108
 BYTE   N02  An3  v052
 BYTE   N02  Dn5  v028
 BYTE   W06
 BYTE   N06  Gs1  v100
 BYTE   N05  Dn3  v096
 BYTE   W06
 BYTE   N06  Dn3  v076
 BYTE   W06
 BYTE   N05  En1  v056
 BYTE   N06  Dn3  v096
 BYTE   N02  An3  v088
 BYTE   N02  Dn5  v108
 BYTE   W06
 BYTE   N05  En1  v040
 BYTE   N06  Dn3  v056
 BYTE   N02  An3  v052
 BYTE   N02  Dn5  v028
 BYTE   W06
 BYTE   PEND 
 BYTE   PATT
  POIN2 Label_9_010871F4
 BYTE   PATT
  POIN2 Label_9_0108770A
 BYTE   PATT
  POIN2 Label_9_0108778E
 BYTE   PATT
  POIN2 Label_9_0108782E
 BYTE   PATT
  POIN2 Label_9_010871F4
 BYTE   PATT
  POIN2 Label_9_0108770A
 BYTE   PATT
  POIN2 Label_9_0108778E
 BYTE   PATT
  POIN2 Label_9_0108782E
 BYTE   PATT
  POIN2 Label_9_010871F4
 BYTE   PATT
  POIN2 Label_9_01087065
 BYTE   PATT
  POIN2 Label_9_0108778E
 BYTE   PATT
  POIN2 Label_9_0108716B
 BYTE   PATT
  POIN2 Label_9_010871F4
 BYTE   PATT
  POIN2 Label_9_01087065
 BYTE   PATT
  POIN2 Label_9_0108778E
 BYTE   PATT
  POIN2 Label_9_0108716B
// 030   ----------------------------------------
 BYTE   N05  En1  v100
 BYTE   N06  Gs1
 BYTE   N02  An2  v036
 BYTE   N05  Cs3  v092
 BYTE   N08  Dn5  v127
 BYTE   W03
 BYTE   N02  An2  v040
 BYTE   W03
 BYTE   N02
 BYTE   N03  Cs3  v072
 BYTE   W05
 BYTE   GoTo
  POIN2 Label_9_01087007
 BYTE   FINE

//**************** Track 11 (Midi-Chn.10) ****************//

PokemonMDExplorersDialgasFighttotheFinishGratedShtick_011:
// 000   ----------------------------------------
 BYTE   KEYSH   PokemonMDExplorersDialgasFighttotheFinishGratedShtick_key+0
 BYTE   W24
 BYTE   VOICE   24
 BYTE   VOL   40*PokemonMDExplorersDialgasFighttotheFinishGratedShtick_mvl/mxv
 BYTE   PAN   c_v+30
 BYTE   W96
// 001   ----------------------------------------
 BYTE   W96
// 002   ----------------------------------------
 BYTE   W96
// 003   ----------------------------------------
 BYTE   W96
// 004   ----------------------------------------
 BYTE   W96
// 005   ----------------------------------------
 BYTE   W96
// 006   ----------------------------------------
 BYTE   W96
// 007   ----------------------------------------
 BYTE   W96
// 008   ----------------------------------------
 BYTE   W96
// 009   ----------------------------------------
 BYTE   W96
// 010   ----------------------------------------
 BYTE   W96
// 011   ----------------------------------------
 BYTE   W96
// 012   ----------------------------------------
 BYTE   W24
Label_10_0108793E:
 BYTE   N05  Gn3  v112
 BYTE   W06
 BYTE   N01  Gn3  v004
 BYTE   W12
 BYTE   N17  Gn3  v112
 BYTE   W18
 BYTE   N05  Cn3
 BYTE   W06
 BYTE   N01  Cn3  v004
 BYTE   W06
 BYTE   N05  Gn3  v112
 BYTE   W06
 BYTE   N01  Gn3  v004
 BYTE   W12
 BYTE   N17  Gn3  v112
 BYTE   W06
// 013   ----------------------------------------
Label_10_0108795D:
 BYTE   W12
 BYTE   N05  Cn3  v112
 BYTE   W06
 BYTE   N01  Cn3  v004
 BYTE   W06
 BYTE   N05  En3  v112
 BYTE   W06
 BYTE   N01  En3  v004
 BYTE   W12
 BYTE   N17  En3  v112
 BYTE   W18
 BYTE   N05  Dn3
 BYTE   W06
 BYTE   N01  Dn3  v004
 BYTE   W06
 BYTE   N05  En3  v112
 BYTE   W06
 BYTE   N01  En3  v004
 BYTE   W12
 BYTE   N17  En3  v112
 BYTE   W06
 BYTE   PEND 
// 014   ----------------------------------------
Label_10_01087986:
 BYTE   W12
 BYTE   N05  Dn3  v112
 BYTE   W06
 BYTE   N01  Dn3  v004
 BYTE   W06
 BYTE   N05  Fs3  v112
 BYTE   W06
 BYTE   N01  Fs3  v004
 BYTE   W12
 BYTE   N17  Fs3  v112
 BYTE   W18
 BYTE   N05  En3
 BYTE   W06
 BYTE   N01  En3  v004
 BYTE   W06
 BYTE   N05  Fs3  v112
 BYTE   W06
 BYTE   N01  Fs3  v004
 BYTE   W12
 BYTE   N17  Fs3  v112
 BYTE   W06
 BYTE   PEND 
// 015   ----------------------------------------
Label_10_010879AF:
 BYTE   W12
 BYTE   N05  En3  v112
 BYTE   W06
 BYTE   N01  En3  v004
 BYTE   W06
 BYTE   N05  Fs3  v112
 BYTE   W06
 BYTE   N01  Fs3  v004
 BYTE   W12
 BYTE   N17  Fs3  v112
 BYTE   W18
 BYTE   N05  Dn3
 BYTE   W06
 BYTE   N01  Dn3  v004
 BYTE   W06
 BYTE   N05  En3  v112
 BYTE   W06
 BYTE   N01  En3  v004
 BYTE   W12
 BYTE   N17  En3  v112
 BYTE   W06
 BYTE   PEND 
// 016   ----------------------------------------
Label_10_010879D8:
 BYTE   W12
 BYTE   N05  Dn3  v112
 BYTE   W06
 BYTE   N01  Dn3  v004
 BYTE   W06
 BYTE   N05  Gn3  v112
 BYTE   W06
 BYTE   N01  Gn3  v004
 BYTE   W12
 BYTE   N17  Gn3  v112
 BYTE   W18
 BYTE   N05  Cn3
 BYTE   W06
 BYTE   N01  Cn3  v004
 BYTE   W06
 BYTE   N05  Gn3  v112
 BYTE   W06
 BYTE   N01  Gn3  v004
 BYTE   W12
 BYTE   N17  Gn3  v112
 BYTE   W06
 BYTE   PEND 
 BYTE   PATT
  POIN2 Label_10_0108795D
 BYTE   PATT
  POIN2 Label_10_01087986
 BYTE   PATT
  POIN2 Label_10_010879AF
 BYTE   PATT
  POIN2 Label_10_010879D8
 BYTE   PATT
  POIN2 Label_10_0108795D
 BYTE   PATT
  POIN2 Label_10_01087986
 BYTE   PATT
  POIN2 Label_10_010879AF
 BYTE   PATT
  POIN2 Label_10_010879D8
// 017   ----------------------------------------
 BYTE   W12
 BYTE   N05  Cn3  v112
 BYTE   W06
 BYTE   N01  Cn3  v004
 BYTE   W06
 BYTE   N05  Gn3  v112
 BYTE   W06
 BYTE   N01  Gn3  v004
 BYTE   W12
 BYTE   N17  Gn3  v112
 BYTE   W18
 BYTE   N05  Cn3
 BYTE   W06
 BYTE   N01  Cn3  v004
 BYTE   W06
 BYTE   N05  Gn3  v112
 BYTE   W06
 BYTE   N01  Gn3  v004
 BYTE   W12
 BYTE   N17  Gn3  v112
 BYTE   W06
// 018   ----------------------------------------
 BYTE   W12
 BYTE   N05  Cn3
 BYTE   W06
 BYTE   N01  Cn3  v004
 BYTE   W06
 BYTE   N05  Fs3  v112
 BYTE   W06
 BYTE   N01  Fs3  v004
 BYTE   W12
 BYTE   N17  Fs3  v112
 BYTE   W18
 BYTE   N05  Dn3
 BYTE   W06
 BYTE   N01  Dn3  v004
 BYTE   W06
 BYTE   N05  Fs3  v112
 BYTE   W06
 BYTE   N01  Fs3  v004
 BYTE   W12
 BYTE   N17  Fs3  v112
 BYTE   W06
// 019   ----------------------------------------
 BYTE   W12
 BYTE   N05  Dn3
 BYTE   W06
 BYTE   N01  Dn3  v004
 BYTE   W06
 BYTE   N05  Fs3  v112
 BYTE   W06
 BYTE   N01  Fs3  v004
 BYTE   W12
 BYTE   N17  Fs3  v112
 BYTE   W18
 BYTE   N05  Dn3
 BYTE   W06
 BYTE   N01  Dn3  v004
 BYTE   W06
 BYTE   N05  Fs3  v112
 BYTE   W06
 BYTE   N01  Fs3  v004
 BYTE   W12
 BYTE   N17  Fs3  v112
 BYTE   W06
// 020   ----------------------------------------
 BYTE   W12
 BYTE   N05  Dn3
 BYTE   W06
 BYTE   N01  Dn3  v004
 BYTE   W24
 BYTE   N17  Gn3  v112
 BYTE   W18
 BYTE   N05  En3
 BYTE   W06
 BYTE   N01  En3  v004
 BYTE   W06
 BYTE   N05  Gn3  v112
 BYTE   W06
 BYTE   N01  Gn3  v004
 BYTE   W18
// 021   ----------------------------------------
 BYTE   N17  Gn3  v112
 BYTE   W24
 BYTE   N05  Fs3
 BYTE   W06
 BYTE   N01  Fs3  v004
 BYTE   W12
 BYTE   N17  Fs3  v112
 BYTE   W18
 BYTE   N05  Dn3
 BYTE   W06
 BYTE   N01  Dn3  v004
 BYTE   W06
 BYTE   N05  Fs3  v112
 BYTE   W06
 BYTE   N01  Fs3  v004
 BYTE   W18
// 022   ----------------------------------------
 BYTE   N17  Fs3  v112
 BYTE   W24
 BYTE   N05  Cn3
 BYTE   W06
 BYTE   N01  Cn3  v004
 BYTE   W12
 BYTE   N17  Cn3  v112
 BYTE   W18
 BYTE   N05
 BYTE   W06
 BYTE   N01  Cn3  v004
 BYTE   W06
 BYTE   N05  En3  v112
 BYTE   W06
 BYTE   N01  En3  v004
 BYTE   W18
// 023   ----------------------------------------
 BYTE   N17  En3  v112
 BYTE   W24
 BYTE   N05  Dn3
 BYTE   W06
 BYTE   N01  Dn3  v004
 BYTE   W12
 BYTE   N17  Dn3  v112
 BYTE   W18
 BYTE   N05
 BYTE   W06
 BYTE   N01  Dn3  v004
 BYTE   W06
 BYTE   N05  Fs3  v112
 BYTE   W06
 BYTE   N01  Fs3  v004
 BYTE   W12
 BYTE   N17  Fs3  v112
 BYTE   W06
// 024   ----------------------------------------
 BYTE   W12
 BYTE   N05  Dn3
 BYTE   W06
 BYTE   N01  Dn3  v004
 BYTE   W06
 BYTE   N05  Gn3  v112
 BYTE   W06
 BYTE   N01  Gn3  v004
 BYTE   W12
 BYTE   N17  Gn3  v112
 BYTE   W18
 BYTE   N05  En3
 BYTE   W06
 BYTE   N01  En3  v004
 BYTE   W06
 BYTE   N05  Gn3  v112
 BYTE   W06
 BYTE   N01  Gn3  v004
 BYTE   W12
 BYTE   N17  Gn3  v112
 BYTE   W06
// 025   ----------------------------------------
 BYTE   W12
 BYTE   N05  En3
 BYTE   W06
 BYTE   N01  En3  v004
 BYTE   W06
 BYTE   N05  Fs3  v112
 BYTE   W06
 BYTE   N01  Fs3  v004
 BYTE   W12
 BYTE   N17  Fs3  v112
 BYTE   W18
 BYTE   N05  Dn3
 BYTE   W06
 BYTE   N01  Dn3  v004
 BYTE   W06
 BYTE   N05  Fs3  v112
 BYTE   W06
 BYTE   N01  Fs3  v004
 BYTE   W12
 BYTE   N17  Fs3  v112
 BYTE   W06
// 026   ----------------------------------------
 BYTE   W12
 BYTE   N05  Dn3
 BYTE   W06
 BYTE   N01  Dn3  v004
 BYTE   W06
 BYTE   N05  En3  v112
 BYTE   W06
 BYTE   N01  En3  v004
 BYTE   W12
 BYTE   N17  En3  v112
 BYTE   W18
 BYTE   N05  Cn3
 BYTE   W06
 BYTE   N01  Cn3  v004
 BYTE   W06
 BYTE   N05  En3  v112
 BYTE   W06
 BYTE   N01  En3  v004
 BYTE   W12
 BYTE   N17  En3  v112
 BYTE   W06
// 027   ----------------------------------------
 BYTE   W12
 BYTE   N05  Cs3
 BYTE   W06
 BYTE   N01  Cs3  v004
 BYTE   W06
 BYTE   N05  Ds3  v112
 BYTE   W06
 BYTE   N01  Ds3  v004
 BYTE   W12
 BYTE   N17  Ds3  v112
 BYTE   W18
 BYTE   N05  Cn3
 BYTE   W06
 BYTE   N01  Cn3  v004
 BYTE   W06
 BYTE   N05  Bn2  v112
 BYTE   W06
 BYTE   N01  Bn2  v004
 BYTE   W18
// 028   ----------------------------------------
 BYTE   N17  Bn2  v112
 BYTE   W42
 BYTE   Gn3  v100
 BYTE   W18
 BYTE   N05  En3
 BYTE   W12
 BYTE   Gn3
 BYTE   W24
// 029   ----------------------------------------
 BYTE   N17
 BYTE   W24
 BYTE   N05  Fs3
 BYTE   W18
 BYTE   N17
 BYTE   W18
 BYTE   N05  Dn3
 BYTE   W12
 BYTE   Fs3
 BYTE   W24
// 030   ----------------------------------------
 BYTE   N17
 BYTE   W24
 BYTE   N05  Cn3
 BYTE   W18
 BYTE   N17
 BYTE   W18
 BYTE   N05
 BYTE   W12
 BYTE   En3
 BYTE   W24
// 031   ----------------------------------------
 BYTE   N17
 BYTE   W24
 BYTE   N05  Dn3
 BYTE   W18
 BYTE   N17
 BYTE   W18
 BYTE   N05
 BYTE   W12
 BYTE   Fs3
 BYTE   W18
 BYTE   N17
 BYTE   W06
// 032   ----------------------------------------
 BYTE   W12
 BYTE   N05  Dn3
 BYTE   W12
 BYTE   Gn3
 BYTE   W18
 BYTE   N17
 BYTE   W18
 BYTE   N05  En3
 BYTE   W12
 BYTE   Gn3
 BYTE   W18
 BYTE   N17
 BYTE   W06
// 033   ----------------------------------------
 BYTE   W12
 BYTE   N05  En3
 BYTE   W12
 BYTE   Fs3
 BYTE   W18
 BYTE   N17
 BYTE   W18
 BYTE   N05  Dn3
 BYTE   W12
 BYTE   Fs3
 BYTE   W18
 BYTE   N17
 BYTE   W06
// 034   ----------------------------------------
 BYTE   W12
 BYTE   N05  Dn3
 BYTE   W12
 BYTE   En3
 BYTE   W18
 BYTE   N17
 BYTE   W18
 BYTE   N05  Cn3
 BYTE   W12
 BYTE   En3
 BYTE   W18
 BYTE   N17
 BYTE   W06
// 035   ----------------------------------------
 BYTE   W12
 BYTE   N05  Cs3
 BYTE   W12
 BYTE   Ds3
 BYTE   W18
 BYTE   N17
 BYTE   W18
 BYTE   N05  Cn3
 BYTE   W12
 BYTE   Bn2
 BYTE   W24
// 036   ----------------------------------------
 BYTE   N17
 BYTE   W96
// 037   ----------------------------------------
 BYTE   W96
// 038   ----------------------------------------
 BYTE   W96
// 039   ----------------------------------------
 BYTE   W96
// 040   ----------------------------------------
 BYTE   W96
// 041   ----------------------------------------
 BYTE   W96
// 042   ----------------------------------------
 BYTE   W96
// 043   ----------------------------------------
 BYTE   W96
// 044   ----------------------------------------
 BYTE   W96
// 045   ----------------------------------------
 BYTE   W96
// 046   ----------------------------------------
 BYTE   W24
 BYTE   N05  Gn3  v112
 BYTE   W06
 BYTE   N01  Gn3  v004
 BYTE   W12
 BYTE   N17  Gn3  v112
 BYTE   W18
 BYTE   N05  Cn3
 BYTE   W06
 BYTE   N01  Cn3  v004
 BYTE   W06
 BYTE   N05  Gn3  v112
 BYTE   W06
 BYTE   N01  Gn3  v004
 BYTE   W12
 BYTE   N17  Gn3  v112
 BYTE   W06
 BYTE   PATT
  POIN2 Label_10_0108795D
 BYTE   PATT
  POIN2 Label_10_01087986
 BYTE   PATT
  POIN2 Label_10_010879AF
 BYTE   PATT
  POIN2 Label_10_010879D8
 BYTE   PATT
  POIN2 Label_10_0108795D
 BYTE   PATT
  POIN2 Label_10_01087986
 BYTE   PATT
  POIN2 Label_10_010879AF
 BYTE   PATT
  POIN2 Label_10_010879D8
 BYTE   PATT
  POIN2 Label_10_0108795D
 BYTE   PATT
  POIN2 Label_10_01087986
 BYTE   PATT
  POIN2 Label_10_010879AF
// 047   ----------------------------------------
 BYTE   W12
 BYTE   N05  Dn3  v112
 BYTE   W06
 BYTE   N01  Dn3  v004
 BYTE   W78
// 048   ----------------------------------------
 BYTE   W96
// 049   ----------------------------------------
 BYTE   W96
// 050   ----------------------------------------
 BYTE   W96
// 051   ----------------------------------------
 BYTE   W96
// 052   ----------------------------------------
 BYTE   W96
// 053   ----------------------------------------
 BYTE   W96
// 054   ----------------------------------------
 BYTE   W96
// 055   ----------------------------------------
 BYTE   W11
 BYTE   GoTo
  POIN2 Label_10_0108793E
 BYTE   FINE

//**************** Track 12 (Midi-Chn.11) ****************//

PokemonMDExplorersDialgasFighttotheFinishGratedShtick_012:
// 000   ----------------------------------------
 BYTE   KEYSH   PokemonMDExplorersDialgasFighttotheFinishGratedShtick_key+0
 BYTE   W24
 BYTE   VOICE   61
 BYTE   VOL   56*PokemonMDExplorersDialgasFighttotheFinishGratedShtick_mvl/mxv
 BYTE   PAN   c_v+20
 BYTE   W96
// 001   ----------------------------------------
 BYTE   W96
// 002   ----------------------------------------
 BYTE   W96
// 003   ----------------------------------------
 BYTE   W96
// 004   ----------------------------------------
 BYTE   W96
// 005   ----------------------------------------
 BYTE   W96
// 006   ----------------------------------------
 BYTE   W96
// 007   ----------------------------------------
 BYTE   W96
// 008   ----------------------------------------
 BYTE   W96
// 009   ----------------------------------------
 BYTE   W96
// 010   ----------------------------------------
 BYTE   W96
// 011   ----------------------------------------
 BYTE   W96
// 012   ----------------------------------------
 BYTE   W24
Label_11_01087CAA:
 BYTE   W72
// 013   ----------------------------------------
 BYTE   W96
// 014   ----------------------------------------
 BYTE   W96
// 015   ----------------------------------------
 BYTE   W96
// 016   ----------------------------------------
 BYTE   W96
// 017   ----------------------------------------
 BYTE   W96
// 018   ----------------------------------------
 BYTE   W96
// 019   ----------------------------------------
 BYTE   W96
// 020   ----------------------------------------
 BYTE   W96
// 021   ----------------------------------------
 BYTE   W96
// 022   ----------------------------------------
 BYTE   W96
// 023   ----------------------------------------
 BYTE   W96
// 024   ----------------------------------------
 BYTE   W84
 BYTE   W02
 BYTE   VOICE   61
 BYTE   W01
 BYTE   VOL   58*PokemonMDExplorersDialgasFighttotheFinishGratedShtick_mvl/mxv
 BYTE   PAN   c_v+20
 BYTE   W09
// 025   ----------------------------------------
 BYTE   W23
 BYTE   W01
 BYTE   N18  An3  v088
 BYTE   W24
 BYTE   N11  Dn4
 BYTE   W12
 BYTE   En4
 BYTE   W24
 BYTE   Gn4
 BYTE   W12
// 026   ----------------------------------------
 BYTE   W12
 BYTE   N60  Fs4
 BYTE   W84
// 027   ----------------------------------------
 BYTE   N11  Dn4
 BYTE   W24
 BYTE   N32  An4
 BYTE   W36
 BYTE   N28  Gn4
 BYTE   W36
// 028   ----------------------------------------
 BYTE   N11  Fs4
 BYTE   W24
 BYTE   TIE  En4  v096
 BYTE   W09
 BYTE   W03
 BYTE   W05
 BYTE   W03
 BYTE   W03
 BYTE   W04
 BYTE   W03
 BYTE   W03
 BYTE   W05
 BYTE   W03
 BYTE   W03
 BYTE   W04
 BYTE   W03
 BYTE   W03
 BYTE   W05
 BYTE   W03
 BYTE   W03
 BYTE   W04
 BYTE   W03
// 029   ----------------------------------------
 BYTE   W05
 BYTE   W03
 BYTE   W03
 BYTE   W04
 BYTE   W03
 BYTE   W03
 BYTE   W05
 BYTE   W03
 BYTE   W03
 BYTE   W04
 BYTE   W03
 BYTE   W03
 BYTE   W05
 BYTE   W03
 BYTE   W03
 BYTE   W04
 BYTE   W03
 BYTE   W05
 BYTE   W03
 BYTE   W03
 BYTE   W04
 BYTE   W03
 BYTE   W03
 BYTE   W05
 BYTE   W03
 BYTE   W03
 BYTE   W04
// 030   ----------------------------------------
 BYTE   W03
 BYTE   W03
 BYTE   W05
 BYTE   W03
 BYTE   W08
 BYTE   EOT
 BYTE   W72
 BYTE   W02
// 031   ----------------------------------------
 BYTE   W23
 BYTE   W72
 BYTE   W01
// 032   ----------------------------------------
 BYTE   W96
// 033   ----------------------------------------
 BYTE   W96
// 034   ----------------------------------------
 BYTE   W84
 BYTE   W02
 BYTE   VOICE   40
 BYTE   W01
 BYTE   VOL   40*PokemonMDExplorersDialgasFighttotheFinishGratedShtick_mvl/mxv
 BYTE   PAN   c_v+20
 BYTE   W09
// 035   ----------------------------------------
 BYTE   W48
 BYTE   N24  Gn3  v112
 BYTE   W24
 BYTE   Fs3
 BYTE   W24
// 036   ----------------------------------------
 BYTE   Bn2
 BYTE   W24
 BYTE   N96  En3
 BYTE   W72
// 037   ----------------------------------------
 BYTE   W24
 BYTE   N12  En3  v064
 BYTE   W12
 BYTE   En3  v040
 BYTE   W12
 BYTE   N24  Dn3  v112
 BYTE   W24
 BYTE   En3
 BYTE   W24
// 038   ----------------------------------------
 BYTE   Fs3
 BYTE   W24
 BYTE   N96  Gn3
 BYTE   W72
// 039   ----------------------------------------
 BYTE   W60
 BYTE   N06  Bn3
 BYTE   W06
 BYTE   Bn3  v064
 BYTE   W06
 BYTE   Bn3  v112
 BYTE   W06
 BYTE   Bn3  v064
 BYTE   W12
 BYTE   N12  An3  v112
 BYTE   W06
// 040   ----------------------------------------
 BYTE   W06
 BYTE   N06  An3  v064
 BYTE   W06
 BYTE   N12  Gn3  v112
 BYTE   W12
 BYTE   N96  En3
 BYTE   W72
// 041   ----------------------------------------
 BYTE   W60
 BYTE   N06  An3
 BYTE   W06
 BYTE   An3  v064
 BYTE   W06
 BYTE   An3  v112
 BYTE   W06
 BYTE   An3  v064
 BYTE   W12
 BYTE   N12  Gn3  v112
 BYTE   W06
// 042   ----------------------------------------
 BYTE   W06
 BYTE   N06  Gn3  v064
 BYTE   W06
 BYTE   Fs3  v112
 BYTE   W12
 BYTE   N48  En3
 BYTE   W48
 BYTE   N48
 BYTE   W24
// 043   ----------------------------------------
 BYTE   W24
 BYTE   Ds3
 BYTE   W72
// 044   ----------------------------------------
 BYTE   W96
// 045   ----------------------------------------
 BYTE   W96
// 046   ----------------------------------------
 BYTE   W96
// 047   ----------------------------------------
 BYTE   W96
// 048   ----------------------------------------
 BYTE   W12
 BYTE   N06  An3
 BYTE   W06
 BYTE   Bn3
 BYTE   W06
 BYTE   N18  Cn4
 BYTE   W18
 BYTE   N06  Bn3
 BYTE   W06
 BYTE   Bn3  v064
 BYTE   W12
 BYTE   Cn4  v112
 BYTE   W06
 BYTE   Cn4  v064
 BYTE   W06
 BYTE   N24  An3  v112
 BYTE   W24
// 049   ----------------------------------------
 BYTE   N12  An3  v064
 BYTE   W24
 BYTE   N18  Dn4  v112
 BYTE   W18
 BYTE   N06  Cn4
 BYTE   W06
 BYTE   Cn4  v064
 BYTE   W12
 BYTE   Dn4  v112
 BYTE   W06
 BYTE   Dn4  v064
 BYTE   W06
 BYTE   N24  Bn3  v112
 BYTE   W24
// 050   ----------------------------------------
 BYTE   N12  Bn3  v064
 BYTE   W12
 BYTE   N06  Gn3  v112
 BYTE   W06
 BYTE   An3
 BYTE   W06
 BYTE   N24  Bn3
 BYTE   W24
 BYTE   N12  Bn3  v064
 BYTE   W12
 BYTE   N06  Dn4  v112
 BYTE   W06
 BYTE   Dn4  v064
 BYTE   W06
 BYTE   N12  Cs4  v112
 BYTE   W12
 BYTE   N06  Cs4  v064
 BYTE   W06
 BYTE   N12  Bn3  v112
 BYTE   W06
// 051   ----------------------------------------
 BYTE   W06
 BYTE   N06  Bn3  v064
 BYTE   W06
 BYTE   An3  v112
 BYTE   W06
 BYTE   An3  v064
 BYTE   W06
 BYTE   N60  Bn3  v112
 BYTE   W60
 BYTE   N12  Bn3  v064
 BYTE   W12
// 052   ----------------------------------------
 BYTE   Bn3  v112
 BYTE   W12
 BYTE   N02  Bn3  v072
 BYTE   W02
 BYTE   Cn4  v080
 BYTE   W02
 BYTE   Dn4  v084
 BYTE   W02
 BYTE   En4  v092
 BYTE   W02
 BYTE   Fs4  v096
 BYTE   W02
 BYTE   An4  v104
 BYTE   W02
 BYTE   N96  Bn4  v112
 BYTE   W72
// 053   ----------------------------------------
 BYTE   W24
 BYTE   N12  Bn4  v060
 BYTE   W12
 BYTE   Bn4  v052
 BYTE   W12
 BYTE   Bn4  v040
 BYTE   W12
 BYTE   Bn4  v032
 BYTE   W36
// 054   ----------------------------------------
 BYTE   W96
// 055   ----------------------------------------
 BYTE   W96
// 056   ----------------------------------------
 BYTE   W96
// 057   ----------------------------------------
 BYTE   W96
// 058   ----------------------------------------
 BYTE   W96
// 059   ----------------------------------------
 BYTE   W96
// 060   ----------------------------------------
 BYTE   W96
// 061   ----------------------------------------
 BYTE   W96
// 062   ----------------------------------------
 BYTE   W96
// 063   ----------------------------------------
 BYTE   W96
// 064   ----------------------------------------
 BYTE   W96
// 065   ----------------------------------------
 BYTE   W96
// 066   ----------------------------------------
 BYTE   W96
// 067   ----------------------------------------
 BYTE   W96
// 068   ----------------------------------------
 BYTE   W96
// 069   ----------------------------------------
 BYTE   W96
// 070   ----------------------------------------
 BYTE   W96
// 071   ----------------------------------------
 BYTE   W96
// 072   ----------------------------------------
 BYTE   W96
// 073   ----------------------------------------
 BYTE   W96
// 074   ----------------------------------------
 BYTE   W11
 BYTE   GoTo
  POIN2 Label_11_01087CAA
 BYTE   FINE

//**************** Track 13 (Midi-Chn.12) ****************//

PokemonMDExplorersDialgasFighttotheFinishGratedShtick_013:
// 000   ----------------------------------------
 BYTE   KEYSH   PokemonMDExplorersDialgasFighttotheFinishGratedShtick_key+0
 BYTE   W24
 BYTE   VOICE   61
 BYTE   VOL   56*PokemonMDExplorersDialgasFighttotheFinishGratedShtick_mvl/mxv
 BYTE   PAN   c_v-20
 BYTE   W96
// 001   ----------------------------------------
 BYTE   W96
// 002   ----------------------------------------
 BYTE   W96
// 003   ----------------------------------------
 BYTE   W96
// 004   ----------------------------------------
 BYTE   W96
// 005   ----------------------------------------
 BYTE   W96
// 006   ----------------------------------------
 BYTE   W96
// 007   ----------------------------------------
 BYTE   W96
// 008   ----------------------------------------
 BYTE   W96
// 009   ----------------------------------------
 BYTE   W96
// 010   ----------------------------------------
 BYTE   W96
// 011   ----------------------------------------
 BYTE   W96
// 012   ----------------------------------------
 BYTE   W24
Label_12_01087E4A:
 BYTE   W72
// 013   ----------------------------------------
 BYTE   W96
// 014   ----------------------------------------
 BYTE   W96
// 015   ----------------------------------------
 BYTE   W96
// 016   ----------------------------------------
 BYTE   W96
// 017   ----------------------------------------
 BYTE   W96
// 018   ----------------------------------------
 BYTE   W96
// 019   ----------------------------------------
 BYTE   W96
// 020   ----------------------------------------
 BYTE   W96
// 021   ----------------------------------------
 BYTE   W96
// 022   ----------------------------------------
 BYTE   W96
// 023   ----------------------------------------
 BYTE   W96
// 024   ----------------------------------------
 BYTE   W90
 BYTE   W01
 BYTE   VOICE   61
 BYTE   W01
 BYTE   VOL   58*PokemonMDExplorersDialgasFighttotheFinishGratedShtick_mvl/mxv
 BYTE   PAN   c_v-20
 BYTE   W04
// 025   ----------------------------------------
 BYTE   W22
 BYTE   W01
 BYTE   N18  En3  v088
 BYTE   W24
 BYTE   N11  An3
 BYTE   W12
 BYTE   Bn3
 BYTE   W24
 BYTE   Dn4
 BYTE   W13
// 026   ----------------------------------------
 BYTE   W11
 BYTE   N60  Cs4
 BYTE   W84
 BYTE   N11  An3
 BYTE   W01
// 027   ----------------------------------------
 BYTE   W23
 BYTE   N32  En4
 BYTE   W36
 BYTE   N28  Dn4
 BYTE   W36
 BYTE   N11  Cs4
 BYTE   W01
// 028   ----------------------------------------
 BYTE   W23
 BYTE   TIE  Bn3  v096
 BYTE   W09
 BYTE   W03
 BYTE   W05
 BYTE   W03
 BYTE   W03
 BYTE   W04
 BYTE   W03
 BYTE   W03
 BYTE   W05
 BYTE   W03
 BYTE   W03
 BYTE   W04
 BYTE   W03
 BYTE   W03
 BYTE   W05
 BYTE   W03
 BYTE   W03
 BYTE   W04
 BYTE   W03
 BYTE   W01
// 029   ----------------------------------------
 BYTE   W04
 BYTE   W03
 BYTE   W03
 BYTE   W04
 BYTE   W03
 BYTE   W03
 BYTE   W05
 BYTE   W03
 BYTE   W03
 BYTE   W04
 BYTE   W03
 BYTE   W03
 BYTE   W05
 BYTE   W03
 BYTE   W03
 BYTE   W04
 BYTE   W03
 BYTE   W05
 BYTE   W03
 BYTE   W03
 BYTE   W04
 BYTE   W03
 BYTE   W03
 BYTE   W05
 BYTE   W03
 BYTE   W03
 BYTE   W04
 BYTE   W01
// 030   ----------------------------------------
 BYTE   W02
 BYTE   W03
 BYTE   W05
 BYTE   W03
 BYTE   W08
 BYTE   EOT
 BYTE   W72
 BYTE   W03
// 031   ----------------------------------------
 BYTE   W22
 BYTE   W72
 BYTE   W02
// 032   ----------------------------------------
 BYTE   W96
// 033   ----------------------------------------
 BYTE   W96
// 034   ----------------------------------------
 BYTE   W84
 BYTE   W03
 BYTE   VOICE   40
 BYTE   W01
 BYTE   VOL   43*PokemonMDExplorersDialgasFighttotheFinishGratedShtick_mvl/mxv
 BYTE   PAN   c_v-20
 BYTE   W08
// 035   ----------------------------------------
 BYTE   W96
// 036   ----------------------------------------
 BYTE   W72
 BYTE   W01
 BYTE   N44  Gn3  v112
 BYTE   W23
// 037   ----------------------------------------
 BYTE   W24
 BYTE   W01
 BYTE   Fs3
 BYTE   W48
 BYTE   Dn3
 BYTE   W23
// 038   ----------------------------------------
 BYTE   W24
 BYTE   W01
 BYTE   Cn3
 BYTE   W48
 BYTE   En3
 BYTE   W23
// 039   ----------------------------------------
 BYTE   W24
 BYTE   W01
 BYTE   N92  Dn3
 BYTE   W68
 BYTE   W03
// 040   ----------------------------------------
 BYTE   W60
 BYTE   N07  Gn3
 BYTE   W12
 BYTE   N07
 BYTE   W18
 BYTE   N11  Fs3
 BYTE   W06
// 041   ----------------------------------------
 BYTE   W12
 BYTE   N07  En3
 BYTE   W12
 BYTE   N92  Dn3
 BYTE   W72
// 042   ----------------------------------------
 BYTE   W24
 BYTE   N44  Gn3
 BYTE   W48
 BYTE   N44
 BYTE   W24
// 043   ----------------------------------------
 BYTE   W24
 BYTE   Fs3
 BYTE   W72
// 044   ----------------------------------------
 BYTE   W96
// 045   ----------------------------------------
 BYTE   W96
// 046   ----------------------------------------
 BYTE   W96
// 047   ----------------------------------------
 BYTE   W96
// 048   ----------------------------------------
 BYTE   W12
 BYTE   N06
 BYTE   W06
 BYTE   Gn3
 BYTE   W06
 BYTE   N18  An3
 BYTE   W18
 BYTE   N06  Gn3
 BYTE   W06
 BYTE   Gn3  v064
 BYTE   W12
 BYTE   An3  v112
 BYTE   W06
 BYTE   An3  v064
 BYTE   W06
 BYTE   N24  Fs3  v112
 BYTE   W24
// 049   ----------------------------------------
 BYTE   N12  Fs3  v064
 BYTE   W24
 BYTE   N18  Bn3  v112
 BYTE   W18
 BYTE   N06  An3
 BYTE   W06
 BYTE   An3  v064
 BYTE   W12
 BYTE   Bn3  v112
 BYTE   W06
 BYTE   Bn3  v064
 BYTE   W06
 BYTE   N24  Gn3  v112
 BYTE   W24
// 050   ----------------------------------------
 BYTE   N12  Gn3  v064
 BYTE   W12
 BYTE   N06  En3  v112
 BYTE   W06
 BYTE   Fs3
 BYTE   W06
 BYTE   N24  Gn3
 BYTE   W24
 BYTE   N12  Gn3  v064
 BYTE   W12
 BYTE   N06  Fs3  v112
 BYTE   W06
 BYTE   Fs3  v064
 BYTE   W06
 BYTE   N12  En3  v112
 BYTE   W12
 BYTE   N06  En3  v064
 BYTE   W06
 BYTE   N12  Dn3  v112
 BYTE   W06
// 051   ----------------------------------------
 BYTE   W06
 BYTE   N06  Dn3  v064
 BYTE   W06
 BYTE   Cs3  v112
 BYTE   W06
 BYTE   Cs3  v064
 BYTE   W06
 BYTE   N60  Bn2  v112
 BYTE   W60
 BYTE   N12  Bn2  v064
 BYTE   W12
// 052   ----------------------------------------
 BYTE   Bn2  v112
 BYTE   W24
 BYTE   N96  Bn3
 BYTE   W72
// 053   ----------------------------------------
 BYTE   W24
 BYTE   N12  Bn3  v060
 BYTE   W12
 BYTE   Bn3  v052
 BYTE   W12
 BYTE   Bn3  v040
 BYTE   W12
 BYTE   Bn3  v032
 BYTE   W36
// 054   ----------------------------------------
 BYTE   W96
// 055   ----------------------------------------
 BYTE   W96
// 056   ----------------------------------------
 BYTE   W96
// 057   ----------------------------------------
 BYTE   W96
// 058   ----------------------------------------
 BYTE   W96
// 059   ----------------------------------------
 BYTE   W96
// 060   ----------------------------------------
 BYTE   W96
// 061   ----------------------------------------
 BYTE   W96
// 062   ----------------------------------------
 BYTE   W96
// 063   ----------------------------------------
 BYTE   W96
// 064   ----------------------------------------
 BYTE   W96
// 065   ----------------------------------------
 BYTE   W96
// 066   ----------------------------------------
 BYTE   W96
// 067   ----------------------------------------
 BYTE   W96
// 068   ----------------------------------------
 BYTE   W96
// 069   ----------------------------------------
 BYTE   W96
// 070   ----------------------------------------
 BYTE   W96
// 071   ----------------------------------------
 BYTE   W96
// 072   ----------------------------------------
 BYTE   W96
// 073   ----------------------------------------
 BYTE   W96
// 074   ----------------------------------------
 BYTE   W11
 BYTE   GoTo
  POIN2 Label_12_01087E4A
 BYTE   FINE

//**************** Track 14 (Midi-Chn.13) ****************//

PokemonMDExplorersDialgasFighttotheFinishGratedShtick_014:
// 000   ----------------------------------------
 BYTE   KEYSH   PokemonMDExplorersDialgasFighttotheFinishGratedShtick_key+0
 BYTE   W24
 BYTE   VOICE   48
 BYTE   VOL   58*PokemonMDExplorersDialgasFighttotheFinishGratedShtick_mvl/mxv
 BYTE   PAN   c_v+0
 BYTE   W96
// 001   ----------------------------------------
 BYTE   W96
// 002   ----------------------------------------
 BYTE   W96
// 003   ----------------------------------------
 BYTE   W96
// 004   ----------------------------------------
 BYTE   W96
// 005   ----------------------------------------
 BYTE   W96
// 006   ----------------------------------------
 BYTE   W96
// 007   ----------------------------------------
 BYTE   W96
// 008   ----------------------------------------
 BYTE   W96
// 009   ----------------------------------------
 BYTE   W96
// 010   ----------------------------------------
 BYTE   W96
// 011   ----------------------------------------
 BYTE   W96
// 012   ----------------------------------------
 BYTE   W24
Label_13_01087FAE:
 BYTE   W72
// 013   ----------------------------------------
 BYTE   W96
// 014   ----------------------------------------
 BYTE   W96
// 015   ----------------------------------------
 BYTE   W96
// 016   ----------------------------------------
 BYTE   W96
// 017   ----------------------------------------
 BYTE   W96
// 018   ----------------------------------------
 BYTE   W96
// 019   ----------------------------------------
 BYTE   W96
// 020   ----------------------------------------
 BYTE   W96
// 021   ----------------------------------------
 BYTE   W96
// 022   ----------------------------------------
 BYTE   W96
// 023   ----------------------------------------
 BYTE   W96
// 024   ----------------------------------------
 BYTE   W96
// 025   ----------------------------------------
 BYTE   W96
// 026   ----------------------------------------
 BYTE   W96
// 027   ----------------------------------------
 BYTE   W96
// 028   ----------------------------------------
 BYTE   W96
// 029   ----------------------------------------
 BYTE   W96
// 030   ----------------------------------------
 BYTE   W96
// 031   ----------------------------------------
 BYTE   W96
// 032   ----------------------------------------
 BYTE   W96
// 033   ----------------------------------------
 BYTE   W96
// 034   ----------------------------------------
 BYTE   W96
// 035   ----------------------------------------
 BYTE   W96
// 036   ----------------------------------------
 BYTE   W96
// 037   ----------------------------------------
 BYTE   W96
// 038   ----------------------------------------
 BYTE   W96
// 039   ----------------------------------------
 BYTE   W96
// 040   ----------------------------------------
 BYTE   W96
// 041   ----------------------------------------
 BYTE   W96
// 042   ----------------------------------------
 BYTE   W96
// 043   ----------------------------------------
 BYTE   W56
 BYTE   VOICE   116
 BYTE   W01
 BYTE   VOL   15*PokemonMDExplorersDialgasFighttotheFinishGratedShtick_mvl/mxv
 BYTE   PAN   c_v-64
 BYTE   W36
 BYTE   W03
// 044   ----------------------------------------
 BYTE   W12
 BYTE   N24  Bn5  v127
 BYTE   W24
 BYTE   Gn6  v104
 BYTE   W24
 BYTE   N12  Gn6  v064
 BYTE   W12
 BYTE   N06  Gn6  v127
 BYTE   W06
 BYTE   Gn6  v064
 BYTE   W06
 BYTE   N18  Gn6  v127
 BYTE   W12
// 045   ----------------------------------------
 BYTE   W06
 BYTE   N12  Fs6
 BYTE   W12
 BYTE   N06  Fs6  v064
 BYTE   W06
 BYTE   En6  v127
 BYTE   W06
 BYTE   En6  v064
 BYTE   W06
 BYTE   N18  En6  v127
 BYTE   W18
 BYTE   Dn6
 BYTE   W18
 BYTE   N06  Bn5
 BYTE   W06
 BYTE   Bn5  v064
 BYTE   W06
 BYTE   N24  Gn5  v127
 BYTE   W12
// 046   ----------------------------------------
 BYTE   W12
 BYTE   N12  Gn5  v064
 BYTE   W12
 BYTE   N06  An5  v127
 BYTE   W06
 BYTE   Bn5
 BYTE   W06
 BYTE   N24  Cn6
 BYTE   W24
 BYTE   N12  Cn6  v064
 BYTE   W12
 BYTE   N06  An5  v127
 BYTE   W06
 BYTE   An5  v064
 BYTE   W06
 BYTE   N18  An5  v127
 BYTE   W12
// 047   ----------------------------------------
 BYTE   W06
 BYTE   N12  Gn5
 BYTE   W12
 BYTE   N06  Gn5  v064
 BYTE   W06
 BYTE   An5  v127
 BYTE   W06
 BYTE   An5  v064
 BYTE   W06
 BYTE   N72  Bn5  v127
 BYTE   W60
// 048   ----------------------------------------
 BYTE   W12
 BYTE   N12  Bn5  v064
 BYTE   W12
 BYTE   Bn5  v052
 BYTE   W72
// 049   ----------------------------------------
 BYTE   W96
// 050   ----------------------------------------
 BYTE   W96
// 051   ----------------------------------------
 BYTE   W96
// 052   ----------------------------------------
 BYTE   W96
// 053   ----------------------------------------
 BYTE   W96
// 054   ----------------------------------------
 BYTE   W96
// 055   ----------------------------------------
 BYTE   W96
// 056   ----------------------------------------
 BYTE   W96
// 057   ----------------------------------------
 BYTE   W96
// 058   ----------------------------------------
 BYTE   W96
// 059   ----------------------------------------
 BYTE   W96
// 060   ----------------------------------------
 BYTE   W96
// 061   ----------------------------------------
 BYTE   W96
// 062   ----------------------------------------
 BYTE   W96
// 063   ----------------------------------------
 BYTE   W96
// 064   ----------------------------------------
 BYTE   W96
// 065   ----------------------------------------
 BYTE   W96
// 066   ----------------------------------------
 BYTE   W96
// 067   ----------------------------------------
 BYTE   W96
// 068   ----------------------------------------
 BYTE   W96
// 069   ----------------------------------------
 BYTE   W96
// 070   ----------------------------------------
 BYTE   W96
// 071   ----------------------------------------
 BYTE   W96
// 072   ----------------------------------------
 BYTE   W96
// 073   ----------------------------------------
 BYTE   W96
// 074   ----------------------------------------
 BYTE   W11
 BYTE   GoTo
  POIN2 Label_13_01087FAE
 BYTE   FINE

//**************** Track 15 (Midi-Chn.14) ****************//

PokemonMDExplorersDialgasFighttotheFinishGratedShtick_015:
// 000   ----------------------------------------
 BYTE   KEYSH   PokemonMDExplorersDialgasFighttotheFinishGratedShtick_key+0
 BYTE   W24
 BYTE   VOICE   81
 BYTE   VOL   51*PokemonMDExplorersDialgasFighttotheFinishGratedShtick_mvl/mxv
 BYTE   PAN   c_v+0
 BYTE   W23
 BYTE   En3
 BYTE   W01
 BYTE   N06  Fs5  v112
 BYTE   W17
 BYTE   PAN   c_v-20
 BYTE   W01
 BYTE   N09  Bn4  v080
 BYTE   W17
 BYTE   PAN   c_v+20
 BYTE   W01
 BYTE   N07  An4
 BYTE   W11
 BYTE   PAN   c_v+0
 BYTE   W01
// 001   ----------------------------------------
 BYTE   N05  Bn4  v112
 BYTE   W24
 BYTE   W96
// 002   ----------------------------------------
Label_14_01088089:
 BYTE   W23
 BYTE   PAN   c_v+0
 BYTE   W01
 BYTE   N06  En5  v112
 BYTE   W17
 BYTE   PAN   c_v-20
 BYTE   W01
 BYTE   N09  An4  v080
 BYTE   W17
 BYTE   PAN   c_v+20
 BYTE   W01
 BYTE   N07  Bn4
 BYTE   W11
 BYTE   PAN   c_v+0
 BYTE   W01
 BYTE   N05  Fs4  v112
 BYTE   W24
 BYTE   PEND 
// 003   ----------------------------------------
 BYTE   W96
// 004   ----------------------------------------
Label_14_010880A7:
 BYTE   W23
 BYTE   PAN   c_v+0
 BYTE   W01
 BYTE   N06  Fs5  v112
 BYTE   W17
 BYTE   PAN   c_v-20
 BYTE   W01
 BYTE   N09  Bn4  v080
 BYTE   W17
 BYTE   PAN   c_v+20
 BYTE   W01
 BYTE   N07  An4
 BYTE   W11
 BYTE   PAN   c_v+0
 BYTE   W01
 BYTE   N05  Bn4  v112
 BYTE   W24
 BYTE   PEND 
// 005   ----------------------------------------
Label_14_010880C4:
 BYTE   W23
 BYTE   PAN   c_v+0
 BYTE   W01
 BYTE   N06  En5  v112
 BYTE   W17
 BYTE   PAN   c_v-20
 BYTE   W01
 BYTE   N09  An4  v080
 BYTE   W17
 BYTE   PAN   c_v+20
 BYTE   W01
 BYTE   N07  Bn4
 BYTE   W11
 BYTE   PAN   c_v+0
 BYTE   W01
 BYTE   N05  En4  v112
 BYTE   W24
 BYTE   PEND 
 BYTE   PATT
  POIN2 Label_14_010880A7
 BYTE   PATT
  POIN2 Label_14_010880C4
 BYTE   PATT
  POIN2 Label_14_010880A7
 BYTE   PATT
  POIN2 Label_14_010880C4
 BYTE   PATT
  POIN2 Label_14_010880A7
// 006   ----------------------------------------
Label_14_010880FA:
 BYTE   W23
 BYTE   PAN   c_v+0
 BYTE   W01
 BYTE   N06  Bn5  v112
 BYTE   W17
 BYTE   PAN   c_v-20
 BYTE   W01
 BYTE   N09  En5  v080
 BYTE   W17
 BYTE   PAN   c_v+20
 BYTE   W01
 BYTE   N07  Dn5
 BYTE   W11
 BYTE   PAN   c_v+0
 BYTE   W01
 BYTE   N05  En5  v112
 BYTE   W24
 BYTE   PEND 
// 007   ----------------------------------------
 BYTE   W23
 BYTE   PAN   c_v+0
 BYTE   W01
Label_14_0108811B:
 BYTE   N06  Fs5  v112
 BYTE   W17
 BYTE   PAN   c_v-20
 BYTE   W01
 BYTE   N09  Bn4  v080
 BYTE   W17
 BYTE   PAN   c_v+20
 BYTE   W01
 BYTE   N07  An4
 BYTE   W11
 BYTE   PAN   c_v+0
 BYTE   W01
 BYTE   N05  Bn4  v112
 BYTE   W24
// 008   ----------------------------------------
Label_14_01088133:
 BYTE   W23
 BYTE   PAN   c_v+0
 BYTE   W18
 BYTE   Gs1
 BYTE   W18
 BYTE   Cn5
 BYTE   W12
 BYTE   En3
 BYTE   W24
 BYTE   W01
 BYTE   PEND 
 BYTE   PATT
  POIN2 Label_14_01088089
 BYTE   PATT
  POIN2 Label_14_01088133
 BYTE   PATT
  POIN2 Label_14_010880A7
 BYTE   PATT
  POIN2 Label_14_01088133
 BYTE   PATT
  POIN2 Label_14_01088089
 BYTE   PATT
  POIN2 Label_14_01088133
 BYTE   PATT
  POIN2 Label_14_010880A7
 BYTE   PATT
  POIN2 Label_14_01088133
 BYTE   PATT
  POIN2 Label_14_01088089
 BYTE   PATT
  POIN2 Label_14_01088133
 BYTE   PATT
  POIN2 Label_14_010880A7
 BYTE   PATT
  POIN2 Label_14_01088133
 BYTE   PATT
  POIN2 Label_14_01088089
 BYTE   PATT
  POIN2 Label_14_01088133
// 009   ----------------------------------------
 BYTE   W96
// 010   ----------------------------------------
 BYTE   W96
// 011   ----------------------------------------
 BYTE   W96
// 012   ----------------------------------------
 BYTE   W96
// 013   ----------------------------------------
 BYTE   W96
// 014   ----------------------------------------
 BYTE   W96
// 015   ----------------------------------------
 BYTE   W96
// 016   ----------------------------------------
 BYTE   W96
// 017   ----------------------------------------
 BYTE   W96
// 018   ----------------------------------------
 BYTE   W96
// 019   ----------------------------------------
 BYTE   W96
// 020   ----------------------------------------
 BYTE   W96
// 021   ----------------------------------------
 BYTE   W96
// 022   ----------------------------------------
 BYTE   W96
// 023   ----------------------------------------
 BYTE   W96
// 024   ----------------------------------------
 BYTE   W56
 BYTE   VOICE   116
 BYTE   W01
 BYTE   VOL   12*PokemonMDExplorersDialgasFighttotheFinishGratedShtick_mvl/mxv
 BYTE   PAN   c_v+63
 BYTE   W36
 BYTE   W03
// 025   ----------------------------------------
 BYTE   W24
 BYTE   N24  Bn5  v127
 BYTE   W24
 BYTE   Gn6  v116
 BYTE   W24
 BYTE   N12  Gn6  v064
 BYTE   W12
 BYTE   N06  Gn6  v112
 BYTE   W06
 BYTE   Gn6  v064
 BYTE   W06
// 026   ----------------------------------------
 BYTE   N18  Gn6  v112
 BYTE   W18
 BYTE   N12  Fs6
 BYTE   W12
 BYTE   N06  Fs6  v064
 BYTE   W06
 BYTE   En6  v112
 BYTE   W06
 BYTE   En6  v064
 BYTE   W06
 BYTE   N18  En6  v112
 BYTE   W18
 BYTE   Dn6  v127
 BYTE   W18
 BYTE   N06  Bn5
 BYTE   W06
 BYTE   Bn5  v064
 BYTE   W06
// 027   ----------------------------------------
 BYTE   N24  Gn5  v127
 BYTE   W24
 BYTE   N12  Gn5  v064
 BYTE   W12
 BYTE   N06  An5  v127
 BYTE   W06
 BYTE   Bn5
 BYTE   W06
 BYTE   N24  Cn6
 BYTE   W24
 BYTE   N12  Cn6  v064
 BYTE   W12
 BYTE   N06  An5  v127
 BYTE   W06
 BYTE   An5  v064
 BYTE   W06
// 028   ----------------------------------------
 BYTE   N18  An5  v127
 BYTE   W18
 BYTE   N12  Gn5
 BYTE   W12
 BYTE   N06  Gn5  v064
 BYTE   W06
 BYTE   An5  v127
 BYTE   W06
 BYTE   An5  v064
 BYTE   W06
 BYTE   N72  Bn5  v127
 BYTE   W48
// 029   ----------------------------------------
 BYTE   W24
 BYTE   N12  Bn5  v064
 BYTE   W12
 BYTE   Bn5  v052
 BYTE   W60
// 030   ----------------------------------------
 BYTE   W96
// 031   ----------------------------------------
 BYTE   W96
// 032   ----------------------------------------
 BYTE   W96
// 033   ----------------------------------------
 BYTE   W08
 BYTE   VOICE   81
 BYTE   W01
 BYTE   VOL   51*PokemonMDExplorersDialgasFighttotheFinishGratedShtick_mvl/mxv
 BYTE   PAN   c_v+0
 BYTE   W84
 BYTE   W03
// 034   ----------------------------------------
 BYTE   W96
 BYTE   PATT
  POIN2 Label_14_010880FA
 BYTE   PATT
  POIN2 Label_14_010880A7
 BYTE   PATT
  POIN2 Label_14_010880C4
// 035   ----------------------------------------
Label_14_01088225:
 BYTE   W23
 BYTE   PAN   c_v+0
 BYTE   W01
 BYTE   N06  Bn4  v112
 BYTE   W17
 BYTE   PAN   c_v-20
 BYTE   W01
 BYTE   N09  En4  v080
 BYTE   W17
 BYTE   PAN   c_v+20
 BYTE   W01
 BYTE   N07  Fs4
 BYTE   W11
 BYTE   PAN   c_v+0
 BYTE   W01
 BYTE   N05  Bn3  v112
 BYTE   W24
 BYTE   PEND 
 BYTE   PATT
  POIN2 Label_14_010880FA
 BYTE   PATT
  POIN2 Label_14_010880A7
 BYTE   PATT
  POIN2 Label_14_010880C4
 BYTE   PATT
  POIN2 Label_14_01088225
 BYTE   PATT
  POIN2 Label_14_010880FA
 BYTE   PATT
  POIN2 Label_14_010880A7
 BYTE   PATT
  POIN2 Label_14_010880C4
 BYTE   PATT
  POIN2 Label_14_01088225
 BYTE   PATT
  POIN2 Label_14_010880FA
 BYTE   PATT
  POIN2 Label_14_010880A7
 BYTE   PATT
  POIN2 Label_14_010880C4
 BYTE   PATT
  POIN2 Label_14_01088225
 BYTE   PATT
  POIN2 Label_14_010880FA
 BYTE   PATT
  POIN2 Label_14_010880A7
 BYTE   PATT
  POIN2 Label_14_010880C4
 BYTE   PATT
  POIN2 Label_14_01088225
// 036   ----------------------------------------
 BYTE   W11
 BYTE   GoTo
  POIN2 Label_14_0108811B
 BYTE   FINE

//******************************************************//
	ALIGN 4

PokemonMDExplorersDialgasFighttotheFinishGratedShtick:
	BYTE	15	// NumTrks
	BYTE	0	// NumBlks
	BYTE	PokemonMDExplorersDialgasFighttotheFinishGratedShtick_pri	// Priority
	BYTE	PokemonMDExplorersDialgasFighttotheFinishGratedShtick_rev	// Reverb.
    
	POIN2	PokemonMDExplorersDialgasFighttotheFinishGratedShtick_grp
    
	POIN2	PokemonMDExplorersDialgasFighttotheFinishGratedShtick_001
	POIN2	PokemonMDExplorersDialgasFighttotheFinishGratedShtick_002
	POIN2	PokemonMDExplorersDialgasFighttotheFinishGratedShtick_003
	POIN2	PokemonMDExplorersDialgasFighttotheFinishGratedShtick_004
	POIN2	PokemonMDExplorersDialgasFighttotheFinishGratedShtick_005
	POIN2	PokemonMDExplorersDialgasFighttotheFinishGratedShtick_006
	POIN2	PokemonMDExplorersDialgasFighttotheFinishGratedShtick_007
	POIN2	PokemonMDExplorersDialgasFighttotheFinishGratedShtick_008
	POIN2	PokemonMDExplorersDialgasFighttotheFinishGratedShtick_009
	POIN2	PokemonMDExplorersDialgasFighttotheFinishGratedShtick_010
	POIN2	PokemonMDExplorersDialgasFighttotheFinishGratedShtick_011
	POIN2	PokemonMDExplorersDialgasFighttotheFinishGratedShtick_012
	POIN2	PokemonMDExplorersDialgasFighttotheFinishGratedShtick_013
	POIN2	PokemonMDExplorersDialgasFighttotheFinishGratedShtick_014
	POIN2	PokemonMDExplorersDialgasFighttotheFinishGratedShtick_015

	
