//Event file generated from Sappy .s format.
	#include "MPlayDef.event"

	#define	PokemonMDExplorersKecleonShopRandomWizard_grp  voicegroup000
	#define	PokemonMDExplorersKecleonShopRandomWizard_pri  0
	#define	PokemonMDExplorersKecleonShopRandomWizard_rev  0
	#define	PokemonMDExplorersKecleonShopRandomWizard_mvl  127
	#define	PokemonMDExplorersKecleonShopRandomWizard_key  0
	#define	PokemonMDExplorersKecleonShopRandomWizard_tbs  1
	#define	PokemonMDExplorersKecleonShopRandomWizard_exg  0
	#define	PokemonMDExplorersKecleonShopRandomWizard_cmp  1

	// .rodata
	//	PokemonMDExplorersKecleonShopRandomWizard
	ALIGN 4


//**************** Track 1 (Midi-Chn.0) ****************//

PokemonMDExplorersKecleonShopRandomWizard_001:
// 000   ----------------------------------------
 BYTE   KEYSH   PokemonMDExplorersKecleonShopRandomWizard_key+0
 BYTE   TEMPO   120*PokemonMDExplorersKecleonShopRandomWizard_tbs/2
 BYTE   VOICE   40
 BYTE   PAN   c_v+0
 BYTE   VOL   28*PokemonMDExplorersKecleonShopRandomWizard_mvl/mxv
 BYTE   BEND   c_v+0
 BYTE   N24  Dn1  v127
 BYTE   W24
 BYTE   W16
 BYTE   N06  Fs1
 BYTE   W08
 BYTE   N18  An1
 BYTE   W24
 BYTE   An0
 BYTE   W24
// 001   ----------------------------------------
Label_0_0158B009:
 BYTE   N06  Dn1  v127
 BYTE   W16
 BYTE   N06
 BYTE   W08
 BYTE   PEND 
 BYTE   W16
 BYTE   Fs1
 BYTE   W08
 BYTE   N18  An1
 BYTE   W24
 BYTE   An0
 BYTE   W24
// 002   ----------------------------------------
 BYTE   N24  Dn1
 BYTE   W24
 BYTE   W16
 BYTE   N06  Fs1
 BYTE   W08
 BYTE   N18  An1
 BYTE   W24
 BYTE   An0
 BYTE   W24
 BYTE   PATT
  POIN2 Label_0_0158B009
// 003   ----------------------------------------
 BYTE   W16
 BYTE   N06  Fs1  v127
 BYTE   W08
 BYTE   N18  An1
 BYTE   W24
 BYTE   An0
 BYTE   W24
Label_0_0158B033:
 BYTE   N24  Dn1  v127
 BYTE   W24
// 004   ----------------------------------------
 BYTE   W16
 BYTE   N06  Fs1
 BYTE   W08
 BYTE   N18  An1
 BYTE   W24
 BYTE   An0
 BYTE   W24
 BYTE   PATT
  POIN2 Label_0_0158B009
// 005   ----------------------------------------
 BYTE   W16
 BYTE   N06  Fs1  v127
 BYTE   W08
 BYTE   N18  An1
 BYTE   W24
 BYTE   An0
 BYTE   W24
 BYTE   N24  Dn1
 BYTE   W24
// 006   ----------------------------------------
 BYTE   W16
 BYTE   N06  Fs1
 BYTE   W08
 BYTE   N18  An1
 BYTE   W24
 BYTE   An0
 BYTE   W24
 BYTE   PATT
  POIN2 Label_0_0158B009
// 007   ----------------------------------------
 BYTE   W16
 BYTE   N06  Fs1  v127
 BYTE   W08
 BYTE   N18  An1
 BYTE   W24
 BYTE   An0
 BYTE   W24
 BYTE   N24  Gn1
 BYTE   W24
// 008   ----------------------------------------
 BYTE   W16
 BYTE   N06  Bn1
 BYTE   W08
 BYTE   N18  Dn2
 BYTE   W24
 BYTE   Dn1
 BYTE   W24
Label_0_0158B076:
 BYTE   N06  Gn1  v127
 BYTE   W16
 BYTE   N06
 BYTE   W08
 BYTE   PEND 
// 009   ----------------------------------------
 BYTE   W16
 BYTE   Bn1
 BYTE   W08
 BYTE   N18  Dn2
 BYTE   W24
 BYTE   Dn1
 BYTE   W24
 BYTE   N24  Gn1
 BYTE   W24
// 010   ----------------------------------------
 BYTE   W16
 BYTE   N06  Bn1
 BYTE   W08
 BYTE   N18  Dn2
 BYTE   W24
 BYTE   N06  Dn1
 BYTE   W16
 BYTE   Gn1
 BYTE   W08
 BYTE   W16
 BYTE   N08  Fn1
 BYTE   W08
// 011   ----------------------------------------
Label_0_0158B098:
 BYTE   N06  Fs1  v127
 BYTE   W16
 BYTE   N06
 BYTE   W08
 BYTE   PEND 
 BYTE   Gn1
 BYTE   W24
 BYTE   N18  An1
 BYTE   W24
 BYTE   N24  Dn1
 BYTE   W24
// 012   ----------------------------------------
 BYTE   W16
 BYTE   N06  Fs1
 BYTE   W08
 BYTE   N18  An1
 BYTE   W24
 BYTE   An0
 BYTE   W24
 BYTE   PATT
  POIN2 Label_0_0158B009
// 013   ----------------------------------------
 BYTE   W16
 BYTE   N06  Fs1  v127
 BYTE   W08
 BYTE   N18  An1
 BYTE   W24
 BYTE   An0
 BYTE   W24
 BYTE   N24  Dn1
 BYTE   W24
// 014   ----------------------------------------
 BYTE   W16
 BYTE   N06  Fs1
 BYTE   W08
 BYTE   N18  An1
 BYTE   W24
 BYTE   An0
 BYTE   W24
 BYTE   PATT
  POIN2 Label_0_0158B009
// 015   ----------------------------------------
 BYTE   W16
 BYTE   N06  Fs1  v127
 BYTE   W08
 BYTE   N18  An1
 BYTE   W24
 BYTE   An0
 BYTE   W24
 BYTE   N24  Gn1
 BYTE   W24
// 016   ----------------------------------------
 BYTE   W16
 BYTE   N06  Bn1
 BYTE   W08
 BYTE   N18  Dn2
 BYTE   W24
 BYTE   Dn1
 BYTE   W24
 BYTE   PATT
  POIN2 Label_0_0158B076
// 017   ----------------------------------------
 BYTE   W16
 BYTE   N06  Bn1  v127
 BYTE   W08
 BYTE   N18  Dn2
 BYTE   W24
 BYTE   Dn1
 BYTE   W24
 BYTE   N24  Gn1
 BYTE   W24
// 018   ----------------------------------------
 BYTE   W16
 BYTE   N06  Bn1
 BYTE   W08
 BYTE   N18  Dn2
 BYTE   W24
 BYTE   N12  Dn1
 BYTE   W16
 BYTE   Gn1
 BYTE   W08
 BYTE   W16
 BYTE   N06  Fn1
 BYTE   W08
 BYTE   PATT
  POIN2 Label_0_0158B098
// 019   ----------------------------------------
 BYTE   N06  Gn1  v127
 BYTE   W24
 BYTE   N18  Dn1
 BYTE   W24
 BYTE   N06  An1
 BYTE   W24
 BYTE   N06
 BYTE   W16
 BYTE   En1
 BYTE   W08
// 020   ----------------------------------------
 BYTE   An1
 BYTE   W24
 BYTE   N06
 BYTE   W16
 BYTE   Bn1
 BYTE   W08
 BYTE   Cn2
 BYTE   W24
Label_0_0158B123:
 BYTE   N06  Cn2  v127
 BYTE   W16
 BYTE   Gn1
 BYTE   W08
 BYTE   PEND 
// 021   ----------------------------------------
 BYTE   Cn2
 BYTE   W24
 BYTE   PATT
  POIN2 Label_0_0158B123
// 022   ----------------------------------------
 BYTE   N06  Gs1  v127
 BYTE   W24
Label_0_0158B135:
 BYTE   N06  Gs1  v127
 BYTE   W16
 BYTE   Ds1
 BYTE   W08
 BYTE   PEND 
 BYTE   Gs1
 BYTE   W24
 BYTE   PATT
  POIN2 Label_0_0158B135
// 023   ----------------------------------------
 BYTE   N06  Cs1  v127
 BYTE   W24
 BYTE   Gs1
 BYTE   W24
 BYTE   N24  Cs1
 BYTE   W24
 BYTE   W24
// 024   ----------------------------------------
 BYTE   N06  Bn1
 BYTE   W24
 BYTE   N06
 BYTE   W24
 BYTE   N06
 BYTE   W24
 BYTE   N06
 BYTE   W24
// 025   ----------------------------------------
 BYTE   Cn2
 BYTE   W24
 BYTE   N06
 BYTE   W24
 BYTE   N06
 BYTE   W24
 BYTE   N06
 BYTE   W24
// 026   ----------------------------------------
 BYTE   Cs2
 BYTE   W24
 BYTE   N06
 BYTE   W24
 BYTE   Dn2
 BYTE   W24
 BYTE   N06
 BYTE   W24
// 027   ----------------------------------------
 BYTE   Ds2
 BYTE   W24
 BYTE   N06
 BYTE   W24
 BYTE   Fn2
 BYTE   W24
 BYTE   Fn2  v100
 BYTE   W24
// 028   ----------------------------------------
 BYTE   As1  v127
 BYTE   W24
 BYTE   As0
 BYTE   W24
 BYTE   As1
 BYTE   W24
 BYTE   As0
 BYTE   W24
// 029   ----------------------------------------
 BYTE   As1
 BYTE   W24
 BYTE   As0
 BYTE   W24
 BYTE   As1
 BYTE   W24
 BYTE   As0
 BYTE   W24
// 030   ----------------------------------------
 BYTE   As1
 BYTE   W24
 BYTE   As0
 BYTE   W24
 BYTE   As1
 BYTE   W24
 BYTE   As0
 BYTE   W24
// 031   ----------------------------------------
 BYTE   As1
 BYTE   W24
 BYTE   As0
 BYTE   W24
 BYTE   As1
 BYTE   W24
 BYTE   As0
 BYTE   W24
// 032   ----------------------------------------
 BYTE   An1
 BYTE   W24
 BYTE   W24
 BYTE   W24
 BYTE   W24
// 033   ----------------------------------------
Label_0_0158B195:
 BYTE   N06  Gs1  v127
 BYTE   W16
 BYTE   N06
 BYTE   W08
 BYTE   PEND 
 BYTE   PATT
  POIN2 Label_0_0158B195
// 034   ----------------------------------------
 BYTE   N06  An1  v127
 BYTE   W24
 BYTE   W24
 BYTE   N48  En1
 BYTE   W24
 BYTE   W24
// 035   ----------------------------------------
 BYTE   N06  An1
 BYTE   W24
 BYTE   N24  En1
 BYTE   W24
 BYTE   N06  An1
 BYTE   W24
 BYTE   W24
// 036   ----------------------------------------
 BYTE   N48
 BYTE   W24
 BYTE   W24
 BYTE   N06  Dn2
 BYTE   W24
 BYTE   N24  An1
 BYTE   W24
// 037   ----------------------------------------
 BYTE   N06  Dn2
 BYTE   W24
 BYTE   W16
 BYTE   GoTo
  POIN2 Label_0_0158B033
// 038   ----------------------------------------
 BYTE   W08
 BYTE   FINE

//**************** Track 2 (Midi-Chn.1) ****************//

PokemonMDExplorersKecleonShopRandomWizard_002:
// 000   ----------------------------------------
 BYTE   KEYSH   PokemonMDExplorersKecleonShopRandomWizard_key+0
 BYTE   VOICE   41
 BYTE   PAN   c_v+0
 BYTE   VOL   23*PokemonMDExplorersKecleonShopRandomWizard_mvl/mxv
 BYTE   BEND   c_v+0
 BYTE   W24
 BYTE   W24
 BYTE   W24
 BYTE   W24
// 001   ----------------------------------------
 BYTE   W24
 BYTE   W24
 BYTE   W24
 BYTE   W24
// 002   ----------------------------------------
 BYTE   W24
 BYTE   W24
 BYTE   W24
 BYTE   W24
// 003   ----------------------------------------
 BYTE   W24
 BYTE   W24
 BYTE   W24
 BYTE   W24
// 004   ----------------------------------------
Label_1_0158B1E2:
 BYTE   W24
 BYTE   W24
 BYTE   W24
 BYTE   W24
// 005   ----------------------------------------
 BYTE   W24
 BYTE   W24
 BYTE   W16
 BYTE   N06  An3  v127
 BYTE   W08
Label_1_0158B1ED:
 BYTE   N06  An4  v127
 BYTE   W16
 BYTE   An2
 BYTE   W08
 BYTE   PEND 
// 006   ----------------------------------------
 BYTE   W24
 BYTE   W24
 BYTE   W24
 BYTE   W24
// 007   ----------------------------------------
 BYTE   W24
 BYTE   W24
 BYTE   W16
 BYTE   Dn4
 BYTE   W08
Label_1_0158B1FD:
 BYTE   N06  An3  v127
 BYTE   W16
 BYTE   An2
 BYTE   W08
 BYTE   PEND 
// 008   ----------------------------------------
 BYTE   W24
 BYTE   W24
 BYTE   W24
 BYTE   W24
// 009   ----------------------------------------
 BYTE   W24
 BYTE   W24
 BYTE   W16
 BYTE   Bn3
 BYTE   W08
Label_1_0158B20D:
 BYTE   N06  Bn4  v127
 BYTE   W16
 BYTE   Bn2
 BYTE   W08
 BYTE   PEND 
// 010   ----------------------------------------
 BYTE   W24
 BYTE   W24
 BYTE   W24
 BYTE   W24
// 011   ----------------------------------------
 BYTE   W24
 BYTE   W24
 BYTE   W24
 BYTE   W24
// 012   ----------------------------------------
 BYTE   W24
 BYTE   W24
 BYTE   W24
 BYTE   W24
// 013   ----------------------------------------
 BYTE   W24
 BYTE   W24
 BYTE   W16
 BYTE   N08  An3
 BYTE   W08
 BYTE   PATT
  POIN2 Label_1_0158B1ED
// 014   ----------------------------------------
 BYTE   W24
 BYTE   W24
 BYTE   W24
 BYTE   W24
// 015   ----------------------------------------
 BYTE   W24
 BYTE   W24
 BYTE   W16
 BYTE   N06  Dn4  v127
 BYTE   W08
 BYTE   PATT
  POIN2 Label_1_0158B1FD
// 016   ----------------------------------------
 BYTE   W24
 BYTE   W24
 BYTE   W24
 BYTE   W24
// 017   ----------------------------------------
 BYTE   W24
 BYTE   W24
 BYTE   W16
 BYTE   N06  Bn3  v127
 BYTE   W08
 BYTE   PATT
  POIN2 Label_1_0158B20D
// 018   ----------------------------------------
 BYTE   W24
 BYTE   W24
 BYTE   W24
 BYTE   W24
// 019   ----------------------------------------
 BYTE   W24
 BYTE   W24
 BYTE   W16
 BYTE   N06  Gn2  v127
 BYTE   W08
 BYTE   W24
// 020   ----------------------------------------
 BYTE   W16
 BYTE   En3
 BYTE   W08
 BYTE   An3
 BYTE   W16
 BYTE   Cs4
 BYTE   W08
 BYTE   An4
 BYTE   W24
 BYTE   W24
// 021   ----------------------------------------
 BYTE   W16
 BYTE   Dn3
 BYTE   W08
 BYTE   Gn3
 BYTE   W16
 BYTE   As3
 BYTE   W08
 BYTE   Gn4
 BYTE   W24
 BYTE   W24
// 022   ----------------------------------------
 BYTE   W16
 BYTE   Ds3
 BYTE   W08
 BYTE   Fs3
 BYTE   W16
 BYTE   As3
 BYTE   W08
 BYTE   Ds4
 BYTE   W16
 BYTE   As3
 BYTE   W08
 BYTE   Fs3
 BYTE   W16
 BYTE   Ds3
 BYTE   W08
// 023   ----------------------------------------
 BYTE   Cs3
 BYTE   W24
 BYTE   Gs2
 BYTE   W24
 BYTE   Fn2
 BYTE   W24
 BYTE   W24
// 024   ----------------------------------------
 BYTE   W16
 BYTE   Fs3
 BYTE   W08
 BYTE   Bn3
 BYTE   W16
 BYTE   Fs4
 BYTE   W08
 BYTE   Bn4
 BYTE   W24
 BYTE   W24
// 025   ----------------------------------------
 BYTE   W16
 BYTE   Fs3
 BYTE   W08
 BYTE   An3
 BYTE   W16
 BYTE   Cn4
 BYTE   W08
 BYTE   Fs4
 BYTE   W24
 BYTE   W24
// 026   ----------------------------------------
 BYTE   W16
 BYTE   En3
 BYTE   W08
 BYTE   Gs3
 BYTE   W16
 BYTE   Cs4
 BYTE   W08
 BYTE   Fn4
 BYTE   W16
 BYTE   Dn4
 BYTE   W08
 BYTE   Gs3
 BYTE   W16
 BYTE   Fn3
 BYTE   W08
// 027   ----------------------------------------
 BYTE   Fs3
 BYTE   W16
 BYTE   As2
 BYTE   W08
 BYTE   Ds3
 BYTE   W16
 BYTE   Fs3
 BYTE   W08
 BYTE   Fn3
 BYTE   W16
 BYTE   Ds3
 BYTE   W08
 BYTE   Cn3
 BYTE   W24
// 028   ----------------------------------------
 BYTE   W16
 BYTE   Dn3
 BYTE   W08
 BYTE   W16
 BYTE   En3
 BYTE   W08
 BYTE   W16
 BYTE   Fn3
 BYTE   W08
 BYTE   W16
 BYTE   En3
 BYTE   W08
// 029   ----------------------------------------
 BYTE   W16
 BYTE   Dn3
 BYTE   W08
 BYTE   W16
 BYTE   Cn3
 BYTE   W08
 BYTE   W16
 BYTE   As2
 BYTE   W08
 BYTE   W16
 BYTE   Cn3
 BYTE   W08
// 030   ----------------------------------------
 BYTE   W16
 BYTE   Dn4
 BYTE   W08
 BYTE   W16
 BYTE   En4
 BYTE   W08
 BYTE   W16
 BYTE   Fn4
 BYTE   W08
 BYTE   W16
 BYTE   En4
 BYTE   W08
// 031   ----------------------------------------
 BYTE   W16
 BYTE   Dn4
 BYTE   W08
 BYTE   W16
 BYTE   Cn4
 BYTE   W08
 BYTE   W16
 BYTE   As3
 BYTE   W08
 BYTE   W16
 BYTE   Cn4
 BYTE   W08
// 032   ----------------------------------------
 BYTE   W24
 BYTE   W24
 BYTE   W24
 BYTE   W24
// 033   ----------------------------------------
Label_1_0158B2E6:
 BYTE   N06  Cn3  v127
 BYTE   N06  As3
 BYTE   W16
 BYTE   Cn3
 BYTE   N06  As3
 BYTE   W08
 BYTE   PEND 
 BYTE   PATT
  POIN2 Label_1_0158B2E6
// 034   ----------------------------------------
 BYTE   N08  Cs3  v127
 BYTE   N08  An3
 BYTE   W24
 BYTE   W24
 BYTE   N48  Gn3
 BYTE   W24
 BYTE   W24
// 035   ----------------------------------------
 BYTE   N06  An3
 BYTE   W24
 BYTE   N24  Gn3
 BYTE   W24
 BYTE   N06  An3
 BYTE   W24
 BYTE   W24
// 036   ----------------------------------------
 BYTE   N48  En4
 BYTE   W24
 BYTE   W24
 BYTE   N08  Fs4
 BYTE   W24
 BYTE   N24  En4
 BYTE   W24
// 037   ----------------------------------------
 BYTE   N08  Fs4
 BYTE   W24
 BYTE   W16
 BYTE   GoTo
  POIN2 Label_1_0158B1E2
// 038   ----------------------------------------
 BYTE   W08
 BYTE   FINE

//**************** Track 3 (Midi-Chn.2) ****************//

PokemonMDExplorersKecleonShopRandomWizard_003:
// 000   ----------------------------------------
 BYTE   KEYSH   PokemonMDExplorersKecleonShopRandomWizard_key+0
 BYTE   VOICE   48
 BYTE   PAN   c_v+11
 BYTE   VOL   18*PokemonMDExplorersKecleonShopRandomWizard_mvl/mxv
 BYTE   BEND   c_v+0
 BYTE   N12  Dn1  v127
 BYTE   W16
 BYTE   N04  Dn1  v052
 BYTE   W08
Label_2_0158B332:
 BYTE   N04  Dn1  v036
 BYTE   W08
 BYTE   Dn1  v028
 BYTE   W08
 BYTE   N06  Fs1  v127
 BYTE   W08
 BYTE   PEND 
 BYTE   N18  An1
 BYTE   W24
 BYTE   An0
 BYTE   W24
// 001   ----------------------------------------
Label_2_0158B343:
 BYTE   N06  Dn1  v127
 BYTE   W16
 BYTE   N06
 BYTE   W08
 BYTE   PEND 
 BYTE   W16
 BYTE   Fs1
 BYTE   W08
 BYTE   N18  An1
 BYTE   W24
 BYTE   An0
 BYTE   W24
// 002   ----------------------------------------
Label_2_0158B352:
 BYTE   N12  Dn1  v127
 BYTE   W16
 BYTE   N04  Dn1  v052
 BYTE   W08
 BYTE   PEND 
 BYTE   PATT
  POIN2 Label_2_0158B332
// 003   ----------------------------------------
 BYTE   N18  An1  v127
 BYTE   W24
 BYTE   An0
 BYTE   W24
 BYTE   PATT
  POIN2 Label_2_0158B343
// 004   ----------------------------------------
 BYTE   W16
 BYTE   N06  Fs1  v127
 BYTE   W08
 BYTE   N18  An1
 BYTE   W24
 BYTE   An0
 BYTE   W24
Label_2_0158B375:
 BYTE   PATT
  POIN2 Label_2_0158B352
 BYTE   PATT
  POIN2 Label_2_0158B332
// 005   ----------------------------------------
 BYTE   N18  An1  v127
 BYTE   W24
 BYTE   An0
 BYTE   W24
 BYTE   PATT
  POIN2 Label_2_0158B343
// 006   ----------------------------------------
 BYTE   W16
 BYTE   N06  Fs1  v127
 BYTE   W08
 BYTE   N18  An1
 BYTE   W24
 BYTE   An0
 BYTE   W24
 BYTE   PATT
  POIN2 Label_2_0158B352
 BYTE   PATT
  POIN2 Label_2_0158B332
// 007   ----------------------------------------
 BYTE   N18  An1  v127
 BYTE   W24
 BYTE   An0
 BYTE   W24
 BYTE   PATT
  POIN2 Label_2_0158B343
// 008   ----------------------------------------
 BYTE   W16
 BYTE   N06  Fs1  v127
 BYTE   W08
 BYTE   N18  An1
 BYTE   W24
 BYTE   An0
 BYTE   W24
Label_2_0158B3B3:
 BYTE   N12  Gn1  v127
 BYTE   W16
 BYTE   N04  Gn1  v052
 BYTE   W08
 BYTE   PEND 
// 009   ----------------------------------------
Label_2_0158B3BC:
 BYTE   N04  Gn1  v036
 BYTE   W08
 BYTE   Gn1  v028
 BYTE   W08
 BYTE   N06  Bn1  v127
 BYTE   W08
 BYTE   PEND 
 BYTE   N18  Dn2
 BYTE   W24
 BYTE   Dn1
 BYTE   W24
Label_2_0158B3CD:
 BYTE   N06  Gn1  v127
 BYTE   W16
 BYTE   N06
 BYTE   W08
 BYTE   PEND 
// 010   ----------------------------------------
 BYTE   W16
 BYTE   Bn1
 BYTE   W08
 BYTE   N18  Dn2
 BYTE   W24
 BYTE   Dn1
 BYTE   W24
 BYTE   PATT
  POIN2 Label_2_0158B3B3
 BYTE   PATT
  POIN2 Label_2_0158B3BC
// 011   ----------------------------------------
 BYTE   N18  Dn2  v127
 BYTE   W24
Label_2_0158B3EA:
 BYTE   N12  Dn1  v127
 BYTE   W16
 BYTE   N06  Gn1
 BYTE   W08
 BYTE   PEND 
 BYTE   W16
 BYTE   N08  Fn1
 BYTE   W08
Label_2_0158B3F6:
 BYTE   N06  Fs1  v127
 BYTE   W16
 BYTE   N06
 BYTE   W08
 BYTE   PEND 
// 012   ----------------------------------------
 BYTE   Gn1
 BYTE   W24
 BYTE   N18  An1
 BYTE   W24
 BYTE   PATT
  POIN2 Label_2_0158B352
 BYTE   PATT
  POIN2 Label_2_0158B332
// 013   ----------------------------------------
 BYTE   N18  An1  v127
 BYTE   W24
 BYTE   An0
 BYTE   W24
 BYTE   PATT
  POIN2 Label_2_0158B343
// 014   ----------------------------------------
 BYTE   W16
 BYTE   N06  Fs1  v127
 BYTE   W08
 BYTE   N18  An1
 BYTE   W24
 BYTE   An0
 BYTE   W24
 BYTE   PATT
  POIN2 Label_2_0158B352
 BYTE   PATT
  POIN2 Label_2_0158B332
// 015   ----------------------------------------
 BYTE   N18  An1  v127
 BYTE   W24
 BYTE   An0
 BYTE   W24
 BYTE   PATT
  POIN2 Label_2_0158B343
// 016   ----------------------------------------
 BYTE   W16
 BYTE   N06  Fs1  v127
 BYTE   W08
 BYTE   N18  An1
 BYTE   W24
 BYTE   An0
 BYTE   W24
 BYTE   PATT
  POIN2 Label_2_0158B3B3
 BYTE   PATT
  POIN2 Label_2_0158B3BC
// 017   ----------------------------------------
 BYTE   N18  Dn2  v127
 BYTE   W24
 BYTE   Dn1
 BYTE   W24
 BYTE   PATT
  POIN2 Label_2_0158B3CD
// 018   ----------------------------------------
 BYTE   W16
 BYTE   N06  Bn1  v127
 BYTE   W08
 BYTE   N18  Dn2
 BYTE   W24
 BYTE   Dn1
 BYTE   W24
 BYTE   PATT
  POIN2 Label_2_0158B3B3
 BYTE   PATT
  POIN2 Label_2_0158B3BC
// 019   ----------------------------------------
 BYTE   N18  Dn2  v127
 BYTE   W24
 BYTE   PATT
  POIN2 Label_2_0158B3EA
// 020   ----------------------------------------
 BYTE   W16
 BYTE   N06  Fn1  v127
 BYTE   W08
 BYTE   PATT
  POIN2 Label_2_0158B3F6
// 021   ----------------------------------------
 BYTE   N06  Gn1  v127
 BYTE   W08
 BYTE   Gn1  v060
 BYTE   W08
 BYTE   Gn1  v044
 BYTE   W08
 BYTE   W24
 BYTE   An1  v127
 BYTE   W24
 BYTE   N06
 BYTE   W16
 BYTE   En1
 BYTE   W08
// 022   ----------------------------------------
 BYTE   An1
 BYTE   W24
 BYTE   N06
 BYTE   W16
 BYTE   Bn1
 BYTE   W08
 BYTE   Cn2
 BYTE   W24
Label_2_0158B496:
 BYTE   N06  Cn2  v127
 BYTE   W16
 BYTE   Gn1
 BYTE   W08
 BYTE   PEND 
// 023   ----------------------------------------
 BYTE   Cn2
 BYTE   W24
 BYTE   PATT
  POIN2 Label_2_0158B496
// 024   ----------------------------------------
 BYTE   N06  Gs1  v127
 BYTE   W24
Label_2_0158B4A8:
 BYTE   N06  Gs1  v127
 BYTE   W16
 BYTE   Ds1
 BYTE   W08
 BYTE   PEND 
 BYTE   Gs1
 BYTE   W24
 BYTE   PATT
  POIN2 Label_2_0158B4A8
// 025   ----------------------------------------
 BYTE   N06  Cs1  v127
 BYTE   W24
 BYTE   Gs1
 BYTE   W24
 BYTE   N24  Cs1
 BYTE   W24
 BYTE   N08  Cs1  v064
 BYTE   W08
 BYTE   Cs1  v052
 BYTE   W08
 BYTE   Cs1  v032
 BYTE   W08
// 026   ----------------------------------------
 BYTE   N06  Bn0  v127
 BYTE   W24
 BYTE   N06
 BYTE   W24
 BYTE   N06
 BYTE   W24
 BYTE   N06
 BYTE   W24
// 027   ----------------------------------------
 BYTE   Cn1
 BYTE   W24
 BYTE   N06
 BYTE   W24
 BYTE   N06
 BYTE   W24
 BYTE   N06
 BYTE   W24
// 028   ----------------------------------------
 BYTE   Cs1
 BYTE   W24
 BYTE   N06
 BYTE   W24
 BYTE   Dn1
 BYTE   W24
 BYTE   N06
 BYTE   W24
// 029   ----------------------------------------
 BYTE   Ds1
 BYTE   W24
 BYTE   N06
 BYTE   W24
 BYTE   Fn1
 BYTE   W24
 BYTE   N06
 BYTE   W24
// 030   ----------------------------------------
 BYTE   As1
 BYTE   W24
 BYTE   N06
 BYTE   W24
 BYTE   N06
 BYTE   W24
 BYTE   N06
 BYTE   W24
// 031   ----------------------------------------
 BYTE   N06
 BYTE   W24
 BYTE   N06
 BYTE   W24
 BYTE   N06
 BYTE   W24
 BYTE   N06
 BYTE   W24
// 032   ----------------------------------------
 BYTE   N06
 BYTE   W24
 BYTE   N06
 BYTE   W24
 BYTE   N06
 BYTE   W24
 BYTE   N06
 BYTE   W24
// 033   ----------------------------------------
 BYTE   N06
 BYTE   W24
 BYTE   N06
 BYTE   W24
 BYTE   N06
 BYTE   W24
 BYTE   N06
 BYTE   W24
// 034   ----------------------------------------
Label_2_0158B50B:
 BYTE   N08  An1  v127
 BYTE   W08
 BYTE   An1  v064
 BYTE   W08
 BYTE   An1  v052
 BYTE   W08
 BYTE   PEND 
Label_2_0158B516:
 BYTE   N08  An1  v040
 BYTE   W08
 BYTE   An1  v028
 BYTE   W08
 BYTE   An1  v016
 BYTE   W08
 BYTE   PEND 
 BYTE   W24
 BYTE   W24
// 035   ----------------------------------------
Label_2_0158B523:
 BYTE   N06  Gs1  v127
 BYTE   W16
 BYTE   N06
 BYTE   W08
 BYTE   PEND 
 BYTE   PATT
  POIN2 Label_2_0158B523
 BYTE   PATT
  POIN2 Label_2_0158B50B
 BYTE   PATT
  POIN2 Label_2_0158B516
// 036   ----------------------------------------
 BYTE   N48  En1  v127
 BYTE   W24
 BYTE   W24
 BYTE   N06  An1
 BYTE   W24
 BYTE   N24  En1
 BYTE   W24
// 037   ----------------------------------------
 BYTE   N06  An1
 BYTE   W24
 BYTE   W24
 BYTE   N48
 BYTE   W24
 BYTE   W24
// 038   ----------------------------------------
 BYTE   N06  Dn2
 BYTE   W24
 BYTE   N24  An1
 BYTE   W24
 BYTE   N06  Dn2
 BYTE   W24
 BYTE   W16
 BYTE   GoTo
  POIN2 Label_2_0158B375
// 039   ----------------------------------------
 BYTE   W08
 BYTE   FINE

//**************** Track 4 (Midi-Chn.3) ****************//

PokemonMDExplorersKecleonShopRandomWizard_004:
// 000   ----------------------------------------
 BYTE   KEYSH   PokemonMDExplorersKecleonShopRandomWizard_key+0
 BYTE   VOICE   45
 BYTE   PAN   c_v-24
 BYTE   VOL   21*PokemonMDExplorersKecleonShopRandomWizard_mvl/mxv
 BYTE   BEND   c_v+0
 BYTE   W24
 BYTE   W24
 BYTE   W24
 BYTE   W24
// 001   ----------------------------------------
 BYTE   W24
 BYTE   W24
 BYTE   W24
 BYTE   W24
// 002   ----------------------------------------
 BYTE   W24
 BYTE   W24
 BYTE   W24
 BYTE   W24
// 003   ----------------------------------------
 BYTE   VOL   10*PokemonMDExplorersKecleonShopRandomWizard_mvl/mxv
 BYTE   PAN   c_v+46
 BYTE   BEND   c_v+0
 BYTE   W24
 BYTE   W24
 BYTE   W24
 BYTE   W24
// 004   ----------------------------------------
Label_3_0158B57C:
 BYTE   W24
 BYTE   W24
 BYTE   W24
 BYTE   W24
// 005   ----------------------------------------
 BYTE   W24
 BYTE   W24
 BYTE   W24
 BYTE   W08
 BYTE   N06  An3  v127
 BYTE   W08
 BYTE   An4
 BYTE   W08
// 006   ----------------------------------------
 BYTE   W08
 BYTE   An2
 BYTE   W16
 BYTE   W24
 BYTE   W24
 BYTE   W24
// 007   ----------------------------------------
 BYTE   W24
 BYTE   W24
 BYTE   W24
Label_3_0158B593:
 BYTE   W08
 BYTE   N06  Dn4  v127
 BYTE   W08
 BYTE   An3
 BYTE   W08
 BYTE   PEND 
// 008   ----------------------------------------
 BYTE   W08
 BYTE   An2
 BYTE   W16
 BYTE   W24
 BYTE   W24
 BYTE   W24
// 009   ----------------------------------------
 BYTE   W24
 BYTE   W24
 BYTE   W24
Label_3_0158B5A4:
 BYTE   W08
 BYTE   N06  Bn3  v127
 BYTE   W08
 BYTE   Bn4
 BYTE   W08
 BYTE   PEND 
// 010   ----------------------------------------
 BYTE   W08
 BYTE   Bn2
 BYTE   W16
 BYTE   W24
 BYTE   W24
 BYTE   W24
// 011   ----------------------------------------
 BYTE   W24
 BYTE   W24
 BYTE   W24
 BYTE   W24
// 012   ----------------------------------------
 BYTE   W24
 BYTE   W24
 BYTE   W24
 BYTE   W24
// 013   ----------------------------------------
 BYTE   W24
 BYTE   W24
 BYTE   W24
 BYTE   W08
 BYTE   N08  An3
 BYTE   W08
 BYTE   N06  An4
 BYTE   W08
// 014   ----------------------------------------
 BYTE   W08
 BYTE   An2
 BYTE   W16
 BYTE   W24
 BYTE   W24
 BYTE   W24
// 015   ----------------------------------------
 BYTE   W24
 BYTE   W24
 BYTE   W24
 BYTE   PATT
  POIN2 Label_3_0158B593
// 016   ----------------------------------------
 BYTE   W08
 BYTE   N06  An2  v127
 BYTE   W16
 BYTE   W24
 BYTE   W24
 BYTE   W24
// 017   ----------------------------------------
 BYTE   W24
 BYTE   W24
 BYTE   W24
 BYTE   PATT
  POIN2 Label_3_0158B5A4
// 018   ----------------------------------------
 BYTE   W08
 BYTE   N06  Bn2  v127
 BYTE   W16
 BYTE   W24
 BYTE   W24
 BYTE   W24
// 019   ----------------------------------------
 BYTE   VOL   21*PokemonMDExplorersKecleonShopRandomWizard_mvl/mxv
 BYTE   PAN   c_v-24
 BYTE   BEND   c_v+0
 BYTE   W24
 BYTE   W24
 BYTE   W16
 BYTE   N06  As3
 BYTE   N06  Gn4
 BYTE   W08
 BYTE   An3
 BYTE   N06  Fs4
 BYTE   W16
 BYTE   Gs3
 BYTE   N06  Fn4
 BYTE   W08
// 020   ----------------------------------------
Label_3_0158B600:
 BYTE   N06  En4  v127
 BYTE   W16
 BYTE   Ds4
 BYTE   W08
 BYTE   PEND 
 BYTE   PATT
  POIN2 Label_3_0158B600
// 021   ----------------------------------------
 BYTE   N18  En4  v127
 BYTE   W24
 BYTE   N06
 BYTE   W16
 BYTE   Fs4
 BYTE   W08
 BYTE   N16  Gn4
 BYTE   W16
 BYTE   N06  Fs4
 BYTE   W08
 BYTE   N30  En4
 BYTE   W24
// 022   ----------------------------------------
 BYTE   W16
 BYTE   N06  Gn4
 BYTE   W08
 BYTE   As4
 BYTE   W16
 BYTE   Dn5
 BYTE   W08
Label_3_0158B625:
 BYTE   N12  Fn5  v127
 BYTE   W16
 BYTE   N06  Ds5
 BYTE   W08
 BYTE   PEND 
 BYTE   PATT
  POIN2 Label_3_0158B625
// 023   ----------------------------------------
 BYTE   N24  Fs5  v127
 BYTE   W24
 BYTE   N06  Fn5
 BYTE   W16
 BYTE   Ds5
 BYTE   W08
 BYTE   Cs5
 BYTE   W24
 BYTE   N06
 BYTE   W24
// 024   ----------------------------------------
 BYTE   N36
 BYTE   W04
 BYTE   W02
 BYTE   W01
 BYTE   W02
 BYTE   W01
 BYTE   W02
 BYTE   W01
 BYTE   W02
 BYTE   W01
 BYTE   N08  Cs2
 BYTE   W02
 BYTE   W01
 BYTE   W02
 BYTE   W01
 BYTE   W02
 BYTE   N16  Ds2
 BYTE   W01
 BYTE   W02
 BYTE   W01
 BYTE   W02
 BYTE   W01
 BYTE   W02
 BYTE   W01
 BYTE   W02
 BYTE   W01
 BYTE   W02
 BYTE   W01
 BYTE   N08  Fn2
 BYTE   W02
 BYTE   W01
 BYTE   W02
 BYTE   W01
 BYTE   W02
 BYTE   N06  Fs2
 BYTE   W01
 BYTE   W02
 BYTE   W01
 BYTE   W02
 BYTE   W01
 BYTE   W02
 BYTE   W01
 BYTE   W02
 BYTE   W01
 BYTE   W02
 BYTE   W01
 BYTE   Fn2
 BYTE   W02
 BYTE   W01
 BYTE   W03
 BYTE   W02
 BYTE   Fs2
 BYTE   W16
 BYTE   Fn2
 BYTE   W08
// 025   ----------------------------------------
 BYTE   N18  Fs2
 BYTE   W24
 BYTE   N06
 BYTE   W16
 BYTE   Gs2
 BYTE   W08
 BYTE   N16  An2
 BYTE   W16
 BYTE   N06  Gs2
 BYTE   W08
 BYTE   N30  Fs2
 BYTE   W24
// 026   ----------------------------------------
 BYTE   W16
 BYTE   N06  An2
 BYTE   W08
 BYTE   Cn3
 BYTE   W16
 BYTE   Ds3
 BYTE   W08
Label_3_0158B692:
 BYTE   N12  En3  v127
 BYTE   W16
 BYTE   N06  Ds3
 BYTE   W08
 BYTE   PEND 
 BYTE   PATT
  POIN2 Label_3_0158B692
// 027   ----------------------------------------
 BYTE   N24  Fn3  v127
 BYTE   W24
 BYTE   N06  Fs3
 BYTE   W16
 BYTE   Gs3
 BYTE   W08
 BYTE   Fs3
 BYTE   W16
 BYTE   As3
 BYTE   W08
 BYTE   N18  Ds4
 BYTE   W24
// 028   ----------------------------------------
 BYTE   N18
 BYTE   W24
 BYTE   Fn4
 BYTE   W24
 BYTE   TIE  Dn4
 BYTE   W10
 BYTE   W14
 BYTE   W07
 BYTE   W17
// 029   ----------------------------------------
 BYTE   W01
 BYTE   W14
 BYTE   W07
 BYTE   W02
 BYTE   W06
 BYTE   W09
 BYTE   W06
 BYTE   W03
 BYTE   W01
 BYTE   W05
 BYTE   W06
 BYTE   W04
 BYTE   W03
 BYTE   W03
 BYTE   W02
 BYTE   W03
 BYTE   W04
 BYTE   W03
 BYTE   W03
 BYTE   W03
 BYTE   W05
 BYTE   W03
// 030   ----------------------------------------
 BYTE   W01
 BYTE   W08
 BYTE   W03
 BYTE   W01
 BYTE   W02
 BYTE   W01
 BYTE   W02
 BYTE   W01
 BYTE   W02
 BYTE   W01
 BYTE   W02
 BYTE   W01
 BYTE   W02
 BYTE   W01
 BYTE   W02
 BYTE   W01
 BYTE   W02
 BYTE   W01
 BYTE   W02
 BYTE   W01
 BYTE   W02
 BYTE   W01
 BYTE   W02
 BYTE   W01
 BYTE   W02
 BYTE   W01
 BYTE   W02
 BYTE   EOT
 BYTE   W01
 BYTE   W02
 BYTE   W01
 BYTE   W02
 BYTE   W01
 BYTE   W02
 BYTE   W01
 BYTE   W02
 BYTE   W01
 BYTE   W02
 BYTE   W01
 BYTE   W08
 BYTE   W24
// 031   ----------------------------------------
 BYTE   W24
 BYTE   W24
 BYTE   W24
 BYTE   W24
// 032   ----------------------------------------
 BYTE   W24
 BYTE   W24
 BYTE   W16
 BYTE   N08  An2
 BYTE   W08
 BYTE   En3
 BYTE   W16
 BYTE   Cs4
 BYTE   W08
// 033   ----------------------------------------
 BYTE   N12  Gn4
 BYTE   W16
 BYTE   N08  Dn4
 BYTE   W08
 BYTE   Cs4
 BYTE   W16
 BYTE   An3
 BYTE   W08
Label_3_0158B710:
 BYTE   N06  As3  v127
 BYTE   W16
 BYTE   N06
 BYTE   W08
 BYTE   PEND 
 BYTE   PATT
  POIN2 Label_3_0158B710
// 034   ----------------------------------------
 BYTE   N06  An3  v127
 BYTE   W24
 BYTE   An3  v060
 BYTE   W24
 BYTE   N48  Gn3  v127
 BYTE   W24
 BYTE   W24
// 035   ----------------------------------------
 BYTE   N08  An3
 BYTE   W24
 BYTE   N24  Gn3
 BYTE   W24
 BYTE   N08  An3
 BYTE   W24
 BYTE   W24
// 036   ----------------------------------------
 BYTE   N48  En4
 BYTE   W24
 BYTE   W24
 BYTE   N08  Fs4
 BYTE   W24
 BYTE   N24  En4
 BYTE   W24
// 037   ----------------------------------------
 BYTE   N08  Fs4
 BYTE   W24
 BYTE   Fs4  v060
 BYTE   W08
 BYTE   BEND   c_v+0
 BYTE   W08
 BYTE   GoTo
  POIN2 Label_3_0158B57C
// 038   ----------------------------------------
 BYTE   W08
 BYTE   FINE

//**************** Track 5 (Midi-Chn.4) ****************//

PokemonMDExplorersKecleonShopRandomWizard_005:
// 000   ----------------------------------------
 BYTE   KEYSH   PokemonMDExplorersKecleonShopRandomWizard_key+0
 BYTE   VOICE   45
 BYTE   PAN   c_v-64
 BYTE   VOL   11*PokemonMDExplorersKecleonShopRandomWizard_mvl/mxv
 BYTE   BEND   c_v+0
 BYTE   W24
 BYTE   W24
 BYTE   W24
 BYTE   W24
// 001   ----------------------------------------
 BYTE   W24
 BYTE   W24
 BYTE   W24
 BYTE   W24
// 002   ----------------------------------------
 BYTE   W24
 BYTE   W24
 BYTE   W24
 BYTE   W24
// 003   ----------------------------------------
 BYTE   VOL   9*PokemonMDExplorersKecleonShopRandomWizard_mvl/mxv
 BYTE   PAN   c_v-44
 BYTE   BEND   c_v+0
 BYTE   W24
 BYTE   W24
 BYTE   W24
 BYTE   W24
// 004   ----------------------------------------
Label_4_0158B76C:
 BYTE   W24
 BYTE   W24
 BYTE   W24
 BYTE   W24
// 005   ----------------------------------------
 BYTE   W24
 BYTE   W24
 BYTE   W24
 BYTE   W24
// 006   ----------------------------------------
 BYTE   N06  An3  v127
 BYTE   W08
 BYTE   An4
 BYTE   W16
 BYTE   An2
 BYTE   W24
 BYTE   W24
 BYTE   W24
// 007   ----------------------------------------
 BYTE   W24
 BYTE   W24
 BYTE   W24
 BYTE   W24
// 008   ----------------------------------------
Label_4_0158B782:
 BYTE   N06  Dn4  v127
 BYTE   W08
 BYTE   An3
 BYTE   W16
 BYTE   PEND 
 BYTE   An2
 BYTE   W24
 BYTE   W24
 BYTE   W24
// 009   ----------------------------------------
 BYTE   W24
 BYTE   W24
 BYTE   W24
 BYTE   W24
// 010   ----------------------------------------
Label_4_0158B791:
 BYTE   N06  Bn3  v127
 BYTE   W08
 BYTE   Bn4
 BYTE   W16
 BYTE   PEND 
 BYTE   Bn2
 BYTE   W24
 BYTE   W24
 BYTE   W24
// 011   ----------------------------------------
 BYTE   W24
 BYTE   W24
 BYTE   W24
 BYTE   W24
// 012   ----------------------------------------
 BYTE   W24
 BYTE   W24
 BYTE   W24
 BYTE   W24
// 013   ----------------------------------------
 BYTE   W24
 BYTE   W24
 BYTE   W24
 BYTE   W24
// 014   ----------------------------------------
 BYTE   N08  An3
 BYTE   W08
 BYTE   N06  An4
 BYTE   W16
 BYTE   An2
 BYTE   W24
 BYTE   W24
 BYTE   W24
// 015   ----------------------------------------
 BYTE   W24
 BYTE   W24
 BYTE   W24
 BYTE   W24
 BYTE   PATT
  POIN2 Label_4_0158B782
// 016   ----------------------------------------
 BYTE   N06  An2  v127
 BYTE   W24
 BYTE   W24
 BYTE   W24
 BYTE   W24
// 017   ----------------------------------------
 BYTE   W24
 BYTE   W24
 BYTE   W24
 BYTE   PATT
  POIN2 Label_4_0158B791
// 018   ----------------------------------------
 BYTE   N06  Bn2  v127
 BYTE   W24
 BYTE   W24
 BYTE   W24
 BYTE   VOL   10*PokemonMDExplorersKecleonShopRandomWizard_mvl/mxv
 BYTE   PAN   c_v-64
 BYTE   BEND   c_v+0
 BYTE   W08
 BYTE   W16
// 019   ----------------------------------------
 BYTE   W24
 BYTE   W24
 BYTE   N06  As3
 BYTE   N06  Gn4
 BYTE   W08
 BYTE   An3
 BYTE   N06  Fs4
 BYTE   W16
 BYTE   Gs3
 BYTE   N06  Fn4
 BYTE   W08
 BYTE   En4
 BYTE   W16
// 020   ----------------------------------------
 BYTE   Ds4
 BYTE   W08
 BYTE   En4
 BYTE   W16
 BYTE   Ds4
 BYTE   W08
 BYTE   N18  En4
 BYTE   W16
 BYTE   W08
 BYTE   N06
 BYTE   W16
 BYTE   Fs4
 BYTE   W08
 BYTE   N16  Gn4
 BYTE   W16
// 021   ----------------------------------------
 BYTE   N06  Fs4
 BYTE   W08
 BYTE   N30  En4
 BYTE   W16
 BYTE   W24
 BYTE   N06  Gn4
 BYTE   W08
 BYTE   As4
 BYTE   W16
 BYTE   Dn5
 BYTE   W08
 BYTE   N12  Fn5
 BYTE   W16
// 022   ----------------------------------------
 BYTE   N06  Ds5
 BYTE   W08
 BYTE   N12  Fn5
 BYTE   W16
 BYTE   N06  Ds5
 BYTE   W08
 BYTE   N24  Fs5
 BYTE   W16
 BYTE   W08
 BYTE   N06  Fn5
 BYTE   W16
 BYTE   Ds5
 BYTE   W08
 BYTE   Cs5
 BYTE   W16
// 023   ----------------------------------------
 BYTE   W08
 BYTE   N06
 BYTE   W16
 BYTE   W08
 BYTE   N36
 BYTE   W04
 BYTE   W02
 BYTE   W01
 BYTE   W02
 BYTE   W01
 BYTE   W02
 BYTE   W01
 BYTE   W02
 BYTE   W01
 BYTE   N08  Cs2
 BYTE   W02
 BYTE   W01
 BYTE   W02
 BYTE   W01
 BYTE   W02
 BYTE   N16  Ds2
 BYTE   W01
 BYTE   W02
 BYTE   W01
 BYTE   W02
 BYTE   W01
 BYTE   W02
 BYTE   W01
 BYTE   W02
 BYTE   W01
 BYTE   W02
 BYTE   W01
 BYTE   N08  Fn2
 BYTE   W02
 BYTE   W01
 BYTE   W02
 BYTE   W01
 BYTE   W02
 BYTE   N06  Fs2
 BYTE   W01
 BYTE   W02
 BYTE   W01
 BYTE   W02
 BYTE   W01
 BYTE   W02
 BYTE   W01
 BYTE   W02
 BYTE   W01
 BYTE   W02
 BYTE   W01
// 024   ----------------------------------------
 BYTE   Fn2
 BYTE   W02
 BYTE   W01
 BYTE   W03
 BYTE   W02
 BYTE   Fs2
 BYTE   W16
 BYTE   Fn2
 BYTE   W08
 BYTE   N18  Fs2
 BYTE   W16
 BYTE   W08
 BYTE   N06
 BYTE   W16
 BYTE   Gs2
 BYTE   W08
 BYTE   N16  An2
 BYTE   W16
// 025   ----------------------------------------
 BYTE   N06  Gs2
 BYTE   W08
 BYTE   N30  Fs2
 BYTE   W16
 BYTE   W24
 BYTE   N06  An2
 BYTE   W08
 BYTE   Cn3
 BYTE   W16
Label_4_0158B875:
 BYTE   N06  Ds3  v127
 BYTE   W08
 BYTE   N12  En3
 BYTE   W16
 BYTE   PEND 
 BYTE   PATT
  POIN2 Label_4_0158B875
// 026   ----------------------------------------
 BYTE   N06  Ds3  v127
 BYTE   W08
 BYTE   N24  Fn3
 BYTE   W16
 BYTE   W08
 BYTE   N06  Fs3
 BYTE   W16
 BYTE   Gs3
 BYTE   W08
 BYTE   Fs3
 BYTE   W16
 BYTE   As3
 BYTE   W08
 BYTE   N18  Ds4
 BYTE   W16
// 027   ----------------------------------------
 BYTE   W08
 BYTE   N18
 BYTE   W16
 BYTE   W08
 BYTE   Fn4
 BYTE   W16
 BYTE   W08
 BYTE   TIE  Dn4
 BYTE   W10
 BYTE   W06
 BYTE   W08
 BYTE   W07
 BYTE   W09
// 028   ----------------------------------------
 BYTE   W09
 BYTE   W14
 BYTE   W01
 BYTE   W06
 BYTE   W08
 BYTE   W09
 BYTE   W01
 BYTE   W05
 BYTE   W04
 BYTE   W05
 BYTE   W06
 BYTE   W04
 BYTE   W03
 BYTE   W03
 BYTE   W05
 BYTE   W04
 BYTE   W03
 BYTE   W03
 BYTE   W03
// 029   ----------------------------------------
 BYTE   W05
 BYTE   W03
 BYTE   W01
 BYTE   W08
 BYTE   W03
 BYTE   W01
 BYTE   W02
 BYTE   W01
 BYTE   W02
 BYTE   W01
 BYTE   W02
 BYTE   W01
 BYTE   W02
 BYTE   W01
 BYTE   W02
 BYTE   W01
 BYTE   W02
 BYTE   W01
 BYTE   W02
 BYTE   W01
 BYTE   W02
 BYTE   W01
 BYTE   W02
 BYTE   W01
 BYTE   W02
 BYTE   W01
 BYTE   W02
 BYTE   W01
 BYTE   W02
 BYTE   EOT
 BYTE   W01
 BYTE   W02
 BYTE   W01
 BYTE   W02
 BYTE   W01
 BYTE   W02
 BYTE   W01
 BYTE   W02
 BYTE   W01
 BYTE   W02
 BYTE   W01
 BYTE   W24
// 030   ----------------------------------------
 BYTE   W24
 BYTE   W24
 BYTE   W08
 BYTE   W16
 BYTE   W24
// 031   ----------------------------------------
 BYTE   W24
 BYTE   W24
 BYTE   W24
 BYTE   N08  An2
 BYTE   W08
 BYTE   En3
 BYTE   W16
// 032   ----------------------------------------
 BYTE   Cs4
 BYTE   W08
 BYTE   N12  Gn4
 BYTE   W16
 BYTE   N08  Dn4
 BYTE   W08
 BYTE   Cs4
 BYTE   W16
 BYTE   An3
 BYTE   W08
 BYTE   N06  As3
 BYTE   W16
 BYTE   N06
 BYTE   W08
 BYTE   N06
 BYTE   W16
// 033   ----------------------------------------
 BYTE   N06
 BYTE   W08
 BYTE   An3
 BYTE   W16
 BYTE   W08
 BYTE   An3  v060
 BYTE   W16
 BYTE   W08
 BYTE   N48  Gn3  v127
 BYTE   W16
 BYTE   W24
// 034   ----------------------------------------
 BYTE   W08
 BYTE   N08  An3
 BYTE   W16
 BYTE   W08
 BYTE   N24  Gn3
 BYTE   W16
 BYTE   W08
 BYTE   N08  An3
 BYTE   W16
 BYTE   W24
// 035   ----------------------------------------
 BYTE   W08
 BYTE   N48  En4
 BYTE   W16
 BYTE   W24
 BYTE   W08
 BYTE   N08  Fs4
 BYTE   W16
 BYTE   W08
 BYTE   N24  En4
 BYTE   W16
// 036   ----------------------------------------
 BYTE   W08
 BYTE   N08  Fs4
 BYTE   W16
 BYTE   W08
 BYTE   Fs4  v060
 BYTE   W08
 BYTE   GoTo
  POIN2 Label_4_0158B76C
// 037   ----------------------------------------
 BYTE   BEND   c_v+0
 BYTE   W08
 BYTE   FINE

//**************** Track 6 (Midi-Chn.5) ****************//

PokemonMDExplorersKecleonShopRandomWizard_006:
// 000   ----------------------------------------
 BYTE   KEYSH   PokemonMDExplorersKecleonShopRandomWizard_key+0
 BYTE   VOICE   46
 BYTE   PAN   c_v+63
 BYTE   VOL   9*PokemonMDExplorersKecleonShopRandomWizard_mvl/mxv
 BYTE   BEND   c_v+0
 BYTE   W24
 BYTE   W24
 BYTE   W24
 BYTE   W24
// 001   ----------------------------------------
 BYTE   W24
 BYTE   W24
 BYTE   W24
 BYTE   W24
// 002   ----------------------------------------
 BYTE   W24
 BYTE   W24
 BYTE   W24
 BYTE   W24
// 003   ----------------------------------------
 BYTE   W24
 BYTE   W24
 BYTE   W24
 BYTE   W24
// 004   ----------------------------------------
Label_5_0158B956:
 BYTE   W24
 BYTE   W24
 BYTE   W24
 BYTE   W24
// 005   ----------------------------------------
 BYTE   W24
 BYTE   W24
 BYTE   W24
 BYTE   W24
// 006   ----------------------------------------
 BYTE   W24
 BYTE   W24
 BYTE   W24
 BYTE   W24
// 007   ----------------------------------------
 BYTE   W24
 BYTE   W24
 BYTE   W24
 BYTE   W24
// 008   ----------------------------------------
 BYTE   W24
 BYTE   W24
 BYTE   W24
 BYTE   W24
// 009   ----------------------------------------
 BYTE   W24
 BYTE   W24
 BYTE   W24
 BYTE   W24
// 010   ----------------------------------------
 BYTE   W24
 BYTE   W24
 BYTE   W24
 BYTE   W24
// 011   ----------------------------------------
 BYTE   W24
 BYTE   W24
 BYTE   W24
 BYTE   W24
// 012   ----------------------------------------
 BYTE   W24
 BYTE   W24
 BYTE   W24
 BYTE   W24
// 013   ----------------------------------------
 BYTE   W24
 BYTE   W24
 BYTE   W24
 BYTE   W24
// 014   ----------------------------------------
 BYTE   W24
 BYTE   W24
 BYTE   W24
 BYTE   W24
// 015   ----------------------------------------
 BYTE   W24
 BYTE   W24
 BYTE   W24
 BYTE   W24
// 016   ----------------------------------------
 BYTE   W24
 BYTE   W24
 BYTE   W24
 BYTE   W24
// 017   ----------------------------------------
 BYTE   W24
 BYTE   W24
 BYTE   W24
 BYTE   W24
// 018   ----------------------------------------
 BYTE   W24
 BYTE   W24
 BYTE   W24
 BYTE   W24
// 019   ----------------------------------------
 BYTE   W16
 BYTE   W08
 BYTE   W24
 BYTE   W24
 BYTE   W08
 BYTE   N06  As3  v127
 BYTE   N06  Gn4
 BYTE   W08
 BYTE   An3
 BYTE   N06  Fs4
 BYTE   W08
// 020   ----------------------------------------
 BYTE   W08
 BYTE   Gs3
 BYTE   N06  Fn4
 BYTE   W08
 BYTE   En4
 BYTE   W08
 BYTE   W08
 BYTE   Ds4
 BYTE   W08
 BYTE   En4
 BYTE   W08
 BYTE   W08
 BYTE   Ds4
 BYTE   W08
 BYTE   N18  En4
 BYTE   W08
 BYTE   W16
 BYTE   N06
 BYTE   W08
// 021   ----------------------------------------
 BYTE   W08
 BYTE   Fs4
 BYTE   W08
 BYTE   N16  Gn4
 BYTE   W08
 BYTE   W08
 BYTE   N06  Fs4
 BYTE   W08
 BYTE   N30  En4
 BYTE   W08
 BYTE   W24
 BYTE   W08
 BYTE   N06  Gn4
 BYTE   W08
 BYTE   As4
 BYTE   W08
// 022   ----------------------------------------
 BYTE   W08
 BYTE   Dn5
 BYTE   W08
 BYTE   N12  Fn5
 BYTE   W08
 BYTE   W08
 BYTE   N06  Ds5
 BYTE   W08
 BYTE   N12  Fn5
 BYTE   W08
 BYTE   W08
 BYTE   N06  Ds5
 BYTE   W08
 BYTE   N24  Fs5
 BYTE   W08
 BYTE   W16
 BYTE   N06  Fn5
 BYTE   W08
// 023   ----------------------------------------
 BYTE   W08
 BYTE   Ds5
 BYTE   W08
 BYTE   Cs5
 BYTE   W08
 BYTE   W16
 BYTE   N06
 BYTE   W08
 BYTE   W16
 BYTE   N36
 BYTE   W04
 BYTE   W02
 BYTE   W01
 BYTE   W01
 BYTE   W01
 BYTE   W01
 BYTE   W02
 BYTE   W01
 BYTE   W02
 BYTE   W01
 BYTE   N08  Cs2
 BYTE   W02
 BYTE   W01
 BYTE   W02
 BYTE   W01
 BYTE   W02
 BYTE   N16  Ds2
 BYTE   W01
 BYTE   W02
 BYTE   W01
 BYTE   W02
 BYTE   W01
 BYTE   W01
// 024   ----------------------------------------
 BYTE   W01
 BYTE   W01
 BYTE   W02
 BYTE   W01
 BYTE   W02
 BYTE   W01
 BYTE   N08  Fn2
 BYTE   W02
 BYTE   W01
 BYTE   W02
 BYTE   W01
 BYTE   W02
 BYTE   N06  Fs2
 BYTE   W01
 BYTE   W02
 BYTE   W01
 BYTE   W02
 BYTE   W01
 BYTE   W01
 BYTE   W01
 BYTE   W01
 BYTE   W02
 BYTE   W01
 BYTE   W02
 BYTE   W01
 BYTE   Fn2
 BYTE   W02
 BYTE   W01
 BYTE   W03
 BYTE   W02
 BYTE   Fs2
 BYTE   W08
 BYTE   W08
 BYTE   Fn2
 BYTE   W08
 BYTE   N18  Fs2
 BYTE   W08
 BYTE   W16
 BYTE   N06
 BYTE   W08
// 025   ----------------------------------------
 BYTE   W08
 BYTE   Gs2
 BYTE   W08
 BYTE   N16  An2
 BYTE   W08
 BYTE   W08
 BYTE   N06  Gs2
 BYTE   W08
 BYTE   N30  Fs2
 BYTE   W08
 BYTE   W24
 BYTE   W08
 BYTE   N06  An2
 BYTE   W08
 BYTE   Cn3
 BYTE   W08
// 026   ----------------------------------------
Label_5_0158BA44:
 BYTE   W08
 BYTE   N06  Ds3  v127
 BYTE   W08
 BYTE   N12  En3
 BYTE   W08
 BYTE   PEND 
 BYTE   PATT
  POIN2 Label_5_0158BA44
// 027   ----------------------------------------
 BYTE   W08
 BYTE   N06  Ds3  v127
 BYTE   W08
 BYTE   N24  Fn3
 BYTE   W08
 BYTE   W16
 BYTE   N06  Fs3
 BYTE   W08
 BYTE   W08
 BYTE   Gs3
 BYTE   W08
 BYTE   Fs3
 BYTE   W08
 BYTE   W08
 BYTE   As3
 BYTE   W08
 BYTE   N18  Ds4
 BYTE   W08
// 028   ----------------------------------------
 BYTE   W16
 BYTE   N18
 BYTE   W08
 BYTE   W16
 BYTE   Fn4
 BYTE   W08
 BYTE   W16
 BYTE   TIE  Dn4
 BYTE   W08
 BYTE   W02
 BYTE   W14
 BYTE   W07
 BYTE   W01
// 029   ----------------------------------------
 BYTE   W17
 BYTE   W07
 BYTE   W07
 BYTE   W07
 BYTE   W08
 BYTE   W02
 BYTE   W07
 BYTE   W06
 BYTE   W04
 BYTE   W05
 BYTE   W02
 BYTE   W04
 BYTE   W04
 BYTE   W03
 BYTE   W03
 BYTE   W05
 BYTE   W04
 BYTE   W01
// 030   ----------------------------------------
 BYTE   W02
 BYTE   W03
 BYTE   W03
 BYTE   W05
 BYTE   W03
 BYTE   W01
 BYTE   W07
 BYTE   W01
 BYTE   W03
 BYTE   W01
 BYTE   W02
 BYTE   W01
 BYTE   W02
 BYTE   W01
 BYTE   W02
 BYTE   W01
 BYTE   W02
 BYTE   W01
 BYTE   W02
 BYTE   W01
 BYTE   W02
 BYTE   W01
 BYTE   W01
 BYTE   W01
 BYTE   W01
 BYTE   W02
 BYTE   W01
 BYTE   W02
 BYTE   W01
 BYTE   W02
 BYTE   W01
 BYTE   W02
 BYTE   W01
 BYTE   W02
 BYTE   EOT
 BYTE   W01
 BYTE   W02
 BYTE   W01
 BYTE   W02
 BYTE   W01
 BYTE   W01
 BYTE   W01
 BYTE   W01
 BYTE   W02
 BYTE   W01
 BYTE   W02
 BYTE   W01
 BYTE   W16
// 031   ----------------------------------------
 BYTE   W24
 BYTE   W24
 BYTE   W16
 BYTE   W08
 BYTE   W24
// 032   ----------------------------------------
 BYTE   W24
 BYTE   W24
 BYTE   W24
 BYTE   W08
 BYTE   N08  An2
 BYTE   W08
 BYTE   En3
 BYTE   W08
// 033   ----------------------------------------
 BYTE   W08
 BYTE   Cs4
 BYTE   W08
 BYTE   N12  Gn4
 BYTE   W08
 BYTE   W08
 BYTE   N08  Dn4
 BYTE   W08
 BYTE   Cs4
 BYTE   W08
 BYTE   W08
 BYTE   An3
 BYTE   W08
 BYTE   N06  As3
 BYTE   W08
 BYTE   W08
 BYTE   N06
 BYTE   W08
 BYTE   N06
 BYTE   W08
// 034   ----------------------------------------
 BYTE   W08
 BYTE   N06
 BYTE   W08
 BYTE   An3
 BYTE   W08
 BYTE   W16
 BYTE   An3  v060
 BYTE   W08
 BYTE   W16
 BYTE   N48  Gn3  v127
 BYTE   W08
 BYTE   W24
// 035   ----------------------------------------
 BYTE   W16
 BYTE   N08  An3
 BYTE   W08
 BYTE   W16
 BYTE   N24  Gn3
 BYTE   W08
 BYTE   W16
 BYTE   N08  An3
 BYTE   W08
 BYTE   W24
// 036   ----------------------------------------
 BYTE   W16
 BYTE   N48  En4
 BYTE   W08
 BYTE   W24
 BYTE   W16
 BYTE   N08  Fs4
 BYTE   W08
 BYTE   W16
 BYTE   N24  En4
 BYTE   W08
// 037   ----------------------------------------
 BYTE   W16
 BYTE   N08  Fs4
 BYTE   W08
 BYTE   W16
 BYTE   GoTo
  POIN2 Label_5_0158B956
// 038   ----------------------------------------
 BYTE   N08  Fs4  v060
 BYTE   W08
 BYTE   FINE

//**************** Track 7 (Midi-Chn.6) ****************//

PokemonMDExplorersKecleonShopRandomWizard_007:
// 000   ----------------------------------------
 BYTE   KEYSH   PokemonMDExplorersKecleonShopRandomWizard_key+0
 BYTE   VOICE   49
 BYTE   PAN   c_v+26
 BYTE   VOL   23*PokemonMDExplorersKecleonShopRandomWizard_mvl/mxv
 BYTE   BEND   c_v+0
 BYTE   W24
 BYTE   W24
 BYTE   W24
 BYTE   W24
// 001   ----------------------------------------
 BYTE   W24
 BYTE   W24
 BYTE   W24
 BYTE   W24
// 002   ----------------------------------------
 BYTE   W24
 BYTE   W24
 BYTE   W24
 BYTE   W24
// 003   ----------------------------------------
 BYTE   W24
 BYTE   W24
 BYTE   W24
 BYTE   W24
// 004   ----------------------------------------
Label_6_0158BB32:
 BYTE   W24
 BYTE   W24
 BYTE   W24
 BYTE   W24
// 005   ----------------------------------------
 BYTE   W24
 BYTE   W24
 BYTE   W24
 BYTE   W24
// 006   ----------------------------------------
 BYTE   W24
 BYTE   W24
 BYTE   W24
 BYTE   W24
// 007   ----------------------------------------
 BYTE   W24
 BYTE   W24
 BYTE   W24
 BYTE   W24
// 008   ----------------------------------------
 BYTE   W24
 BYTE   W24
 BYTE   W24
 BYTE   W24
// 009   ----------------------------------------
 BYTE   W24
 BYTE   W24
 BYTE   W24
 BYTE   W24
// 010   ----------------------------------------
 BYTE   W24
 BYTE   W24
 BYTE   W24
 BYTE   W24
// 011   ----------------------------------------
 BYTE   W24
 BYTE   W24
 BYTE   W24
 BYTE   W24
// 012   ----------------------------------------
 BYTE   W24
 BYTE   W24
 BYTE   W24
 BYTE   W24
// 013   ----------------------------------------
 BYTE   W24
 BYTE   W24
 BYTE   W24
 BYTE   W24
// 014   ----------------------------------------
 BYTE   W24
 BYTE   W24
 BYTE   W24
 BYTE   W24
// 015   ----------------------------------------
 BYTE   W24
 BYTE   W24
 BYTE   W24
 BYTE   W24
// 016   ----------------------------------------
 BYTE   W24
 BYTE   W24
 BYTE   W24
 BYTE   W24
// 017   ----------------------------------------
 BYTE   W24
 BYTE   W24
 BYTE   W24
 BYTE   W24
// 018   ----------------------------------------
 BYTE   W24
 BYTE   W24
 BYTE   W24
 BYTE   W24
// 019   ----------------------------------------
 BYTE   W24
 BYTE   W24
 BYTE   W24
 BYTE   W24
// 020   ----------------------------------------
Label_6_0158BB72:
 BYTE   W16
 BYTE   N06  Gn2  v100
 BYTE   N06  Cs3
 BYTE   W08
 BYTE   PEND 
 BYTE   Gn2
 BYTE   N06  Cs3
 BYTE   W24
 BYTE   PATT
  POIN2 Label_6_0158BB72
// 021   ----------------------------------------
 BYTE   N06  Gn2  v100
 BYTE   N06  Cs3
 BYTE   W24
Label_6_0158BB89:
 BYTE   W16
 BYTE   N06  As2  v100
 BYTE   N06  En3
 BYTE   W08
 BYTE   PEND 
 BYTE   As2
 BYTE   N06  En3
 BYTE   W24
 BYTE   PATT
  POIN2 Label_6_0158BB89
// 022   ----------------------------------------
 BYTE   N06  As2  v100
 BYTE   N06  En3
 BYTE   W24
Label_6_0158BBA0:
 BYTE   W16
 BYTE   N06  Cn3  v100
 BYTE   N06  Ds3
 BYTE   W08
 BYTE   PEND 
 BYTE   Cn3
 BYTE   N06  Ds3
 BYTE   W24
 BYTE   PATT
  POIN2 Label_6_0158BBA0
// 023   ----------------------------------------
 BYTE   N06  Cn3  v100
 BYTE   N06  Ds3
 BYTE   W24
 BYTE   Cs3
 BYTE   N06  Fn3
 BYTE   W24
 BYTE   Cn3
 BYTE   N06  Fn3
 BYTE   W24
 BYTE   N36  Bn2
 BYTE   N36  Fn3
 BYTE   W24
// 024   ----------------------------------------
 BYTE   W24
Label_6_0158BBC5:
 BYTE   W16
 BYTE   N06  Fs3  v092
 BYTE   N06  An3
 BYTE   W08
 BYTE   PEND 
 BYTE   Fs3
 BYTE   N06  An3
 BYTE   W24
 BYTE   PATT
  POIN2 Label_6_0158BBC5
// 025   ----------------------------------------
 BYTE   N06  Fs3  v092
 BYTE   N06  An3
 BYTE   W24
 BYTE   PATT
  POIN2 Label_6_0158BBC5
// 026   ----------------------------------------
 BYTE   N06  Fs3  v092
 BYTE   N06  An3
 BYTE   W24
 BYTE   PATT
  POIN2 Label_6_0158BBC5
// 027   ----------------------------------------
 BYTE   N06  Fs3  v092
 BYTE   N06  An3
 BYTE   W24
 BYTE   W16
 BYTE   Cs4  v080
 BYTE   N06  En4
 BYTE   W08
 BYTE   Cs4
 BYTE   N06  En4
 BYTE   W24
 BYTE   W16
 BYTE   Dn4
 BYTE   N06  Fn4
 BYTE   W08
// 028   ----------------------------------------
 BYTE   Dn4
 BYTE   N06  Fn4
 BYTE   W24
 BYTE   As2  v100
 BYTE   N06  Cs3
 BYTE   W24
 BYTE   As2
 BYTE   N06  Cs3
 BYTE   W24
 BYTE   Cn3
 BYTE   N06  Ds3
 BYTE   W24
// 029   ----------------------------------------
 BYTE   Cn3
 BYTE   N06  Ds3
 BYTE   W24
Label_6_0158BC16:
 BYTE   W16
 BYTE   N06  As2  v100
 BYTE   N06  Dn3
 BYTE   W08
 BYTE   PEND 
Label_6_0158BC1E:
 BYTE   W16
 BYTE   N06  Cn3  v100
 BYTE   N06  En3
 BYTE   W08
 BYTE   PEND 
Label_6_0158BC26:
 BYTE   W16
 BYTE   N06  Dn3  v100
 BYTE   N06  Fn3
 BYTE   W08
 BYTE   PEND 
 BYTE   PATT
  POIN2 Label_6_0158BC1E
 BYTE   PATT
  POIN2 Label_6_0158BC16
// 030   ----------------------------------------
Label_6_0158BC38:
 BYTE   W16
 BYTE   N06  An2  v100
 BYTE   N06  Cn3
 BYTE   W08
 BYTE   PEND 
Label_6_0158BC40:
 BYTE   W16
 BYTE   N06  Gn2  v100
 BYTE   N06  As2
 BYTE   W08
 BYTE   PEND 
 BYTE   PATT
  POIN2 Label_6_0158BC38
 BYTE   PATT
  POIN2 Label_6_0158BC16
 BYTE   PATT
  POIN2 Label_6_0158BC1E
 BYTE   PATT
  POIN2 Label_6_0158BC26
 BYTE   PATT
  POIN2 Label_6_0158BC1E
 BYTE   PATT
  POIN2 Label_6_0158BC16
 BYTE   PATT
  POIN2 Label_6_0158BC38
 BYTE   PATT
  POIN2 Label_6_0158BC40
 BYTE   PATT
  POIN2 Label_6_0158BC38
// 031   ----------------------------------------
 BYTE   W24
 BYTE   W24
 BYTE   W24
 BYTE   W24
// 032   ----------------------------------------
Label_6_0158BC79:
 BYTE   N06  Fs2  v100
 BYTE   N06  Ds3
 BYTE   W16
 BYTE   Fs2
 BYTE   N06  Ds3
 BYTE   W08
 BYTE   PEND 
 BYTE   PATT
  POIN2 Label_6_0158BC79
// 033   ----------------------------------------
 BYTE   N08  Gn2  v100
 BYTE   N08  Cs3
 BYTE   W08
 BYTE   Gn2  v064
 BYTE   N08  Cs3
 BYTE   W08
 BYTE   Gn2  v044
 BYTE   N08  Cs3
 BYTE   W08
 BYTE   Gn2  v024
 BYTE   N08  Cs3
 BYTE   W24
 BYTE   N48  Gn2  v100
 BYTE   N48  Bn2
 BYTE   N48  Dn3
 BYTE   W24
 BYTE   W24
// 034   ----------------------------------------
 BYTE   N08  An2
 BYTE   N08  Cs3
 BYTE   N08  En3
 BYTE   W08
 BYTE   An2  v064
 BYTE   N08  Cs3
 BYTE   N08  En3
 BYTE   W08
 BYTE   An2  v052
 BYTE   N08  Cs3
 BYTE   N08  En3
 BYTE   W08
 BYTE   N24  Gn2  v100
 BYTE   N24  Bn2
 BYTE   N24  Dn3
 BYTE   W24
 BYTE   N08  An2
 BYTE   N08  Cs3
 BYTE   N08  En3
 BYTE   W08
 BYTE   An2  v060
 BYTE   N08  Cs3
 BYTE   N08  En3
 BYTE   W08
 BYTE   An2  v044
 BYTE   N08  Cs3
 BYTE   N08  En3
 BYTE   W08
 BYTE   An2  v036
 BYTE   N08  Cs3
 BYTE   N08  En3
 BYTE   W24
// 035   ----------------------------------------
 BYTE   N48  Cn3  v100
 BYTE   N48  En3
 BYTE   N48  An3
 BYTE   W24
 BYTE   W24
 BYTE   N08  Dn3
 BYTE   N08  Fs3
 BYTE   N08  An3
 BYTE   W08
 BYTE   Dn3  v064
 BYTE   N08  Fs3
 BYTE   N08  An3
 BYTE   W08
 BYTE   Dn3  v036
 BYTE   N08  Fs3
 BYTE   N08  An3
 BYTE   W08
 BYTE   N24  Cn3  v100
 BYTE   N24  En3
 BYTE   N24  An3
 BYTE   W24
// 036   ----------------------------------------
 BYTE   N08  Dn3
 BYTE   N08  Fs3
 BYTE   N08  An3
 BYTE   W08
 BYTE   Dn3  v064
 BYTE   N08  Fs3
 BYTE   N08  An3
 BYTE   W08
 BYTE   Dn3  v044
 BYTE   N08  Fs3
 BYTE   N08  An3
 BYTE   W08
 BYTE   Dn3  v036
 BYTE   N08  Fs3
 BYTE   N08  An3
 BYTE   W08
 BYTE   Dn3  v032
 BYTE   N08  Fs3
 BYTE   N08  An3
 BYTE   W08
 BYTE   GoTo
  POIN2 Label_6_0158BB32
// 037   ----------------------------------------
 BYTE   N08  Dn3  v028
 BYTE   N08  Fs3
 BYTE   N08  An3
 BYTE   W08
 BYTE   FINE

//**************** Track 8 (Midi-Chn.7) ****************//

PokemonMDExplorersKecleonShopRandomWizard_008:
// 000   ----------------------------------------
 BYTE   KEYSH   PokemonMDExplorersKecleonShopRandomWizard_key+0
 BYTE   VOICE   75
 BYTE   PAN   c_v+0
 BYTE   VOL   23*PokemonMDExplorersKecleonShopRandomWizard_mvl/mxv
 BYTE   BEND   c_v+0
 BYTE   W24
 BYTE   W24
 BYTE   W24
 BYTE   W24
// 001   ----------------------------------------
 BYTE   W24
 BYTE   W24
 BYTE   W24
 BYTE   W24
// 002   ----------------------------------------
 BYTE   W24
 BYTE   W24
 BYTE   W24
 BYTE   W24
// 003   ----------------------------------------
 BYTE   W24
 BYTE   W24
 BYTE   W24
 BYTE   W24
// 004   ----------------------------------------
Label_7_0158BD52:
 BYTE   N06  Fs4  v127
 BYTE   W16
 BYTE   N06
 BYTE   W08
 BYTE   PEND 
Label_7_0158BD59:
 BYTE   N06  Gn4  v127
 BYTE   W16
 BYTE   N06
 BYTE   W08
 BYTE   PEND 
Label_7_0158BD60:
 BYTE   N06  An4  v127
 BYTE   W08
 BYTE   Dn5
 BYTE   W08
 BYTE   An4
 BYTE   W08
 BYTE   PEND 
Label_7_0158BD69:
 BYTE   N06  Cn5  v127
 BYTE   W08
 BYTE   An4
 BYTE   W08
 BYTE   Gn4
 BYTE   W08
 BYTE   PEND 
 BYTE   PATT
  POIN2 Label_7_0158BD52
 BYTE   PATT
  POIN2 Label_7_0158BD59
// 005   ----------------------------------------
 BYTE   N06  Fs4  v127
 BYTE   W08
 BYTE   Fs4  v068
 BYTE   W08
 BYTE   Fs4  v056
 BYTE   W08
 BYTE   Fs4  v048
 BYTE   W24
 BYTE   PATT
  POIN2 Label_7_0158BD52
 BYTE   PATT
  POIN2 Label_7_0158BD59
 BYTE   PATT
  POIN2 Label_7_0158BD60
 BYTE   PATT
  POIN2 Label_7_0158BD69
 BYTE   PATT
  POIN2 Label_7_0158BD52
 BYTE   PATT
  POIN2 Label_7_0158BD59
// 006   ----------------------------------------
Label_7_0158BDA7:
 BYTE   N06  Fs4  v127
 BYTE   W08
 BYTE   Fs4  v068
 BYTE   W08
 BYTE   Fs4  v052
 BYTE   W08
 BYTE   PEND 
 BYTE   Fs4  v032
 BYTE   W24
Label_7_0158BDB5:
 BYTE   N06  Bn4  v127
 BYTE   W16
 BYTE   N06
 BYTE   W08
 BYTE   PEND 
Label_7_0158BDBC:
 BYTE   N06  Cn5  v127
 BYTE   W16
 BYTE   N06
 BYTE   W08
 BYTE   PEND 
// 007   ----------------------------------------
Label_7_0158BDC3:
 BYTE   N06  Dn5  v127
 BYTE   W08
 BYTE   Gn5
 BYTE   W08
 BYTE   Dn5
 BYTE   W08
 BYTE   PEND 
Label_7_0158BDCC:
 BYTE   N06  Fn5  v127
 BYTE   W08
 BYTE   Dn5
 BYTE   W08
 BYTE   Cn5
 BYTE   W08
 BYTE   PEND 
 BYTE   PATT
  POIN2 Label_7_0158BDB5
 BYTE   PATT
  POIN2 Label_7_0158BDBC
// 008   ----------------------------------------
Label_7_0158BDDF:
 BYTE   N06  Bn4  v127
 BYTE   W08
 BYTE   Bn4  v064
 BYTE   W08
 BYTE   Bn4  v044
 BYTE   W08
 BYTE   PEND 
 BYTE   Bn4  v036
 BYTE   W24
 BYTE   PATT
  POIN2 Label_7_0158BDB5
 BYTE   PATT
  POIN2 Label_7_0158BDBC
 BYTE   PATT
  POIN2 Label_7_0158BDC3
 BYTE   PATT
  POIN2 Label_7_0158BDCC
 BYTE   PATT
  POIN2 Label_7_0158BDB5
 BYTE   PATT
  POIN2 Label_7_0158BDBC
 BYTE   PATT
  POIN2 Label_7_0158BDDF
// 009   ----------------------------------------
 BYTE   N06  An4  v127
 BYTE   W08
 BYTE   Gs4
 BYTE   W08
 BYTE   Gn4
 BYTE   W08
 BYTE   PATT
  POIN2 Label_7_0158BD52
 BYTE   PATT
  POIN2 Label_7_0158BD59
 BYTE   PATT
  POIN2 Label_7_0158BD60
 BYTE   PATT
  POIN2 Label_7_0158BD69
 BYTE   PATT
  POIN2 Label_7_0158BD52
 BYTE   PATT
  POIN2 Label_7_0158BD59
// 010   ----------------------------------------
 BYTE   N06  Fs4  v127
 BYTE   W08
 BYTE   Fs4  v060
 BYTE   W08
 BYTE   Fs4  v044
 BYTE   W08
 BYTE   Fs4  v036
 BYTE   W24
 BYTE   PATT
  POIN2 Label_7_0158BD52
 BYTE   PATT
  POIN2 Label_7_0158BD59
 BYTE   PATT
  POIN2 Label_7_0158BD60
 BYTE   PATT
  POIN2 Label_7_0158BD69
 BYTE   PATT
  POIN2 Label_7_0158BD52
 BYTE   PATT
  POIN2 Label_7_0158BD59
 BYTE   PATT
  POIN2 Label_7_0158BDA7
// 011   ----------------------------------------
 BYTE   N06  Fs4  v040
 BYTE   W24
 BYTE   PATT
  POIN2 Label_7_0158BDB5
 BYTE   PATT
  POIN2 Label_7_0158BDBC
 BYTE   PATT
  POIN2 Label_7_0158BDC3
 BYTE   PATT
  POIN2 Label_7_0158BDCC
 BYTE   PATT
  POIN2 Label_7_0158BDB5
 BYTE   PATT
  POIN2 Label_7_0158BDBC
// 012   ----------------------------------------
Label_7_0158BE88:
 BYTE   N06  Bn4  v127
 BYTE   W08
 BYTE   Bn4  v064
 BYTE   W08
 BYTE   Bn4  v052
 BYTE   W08
 BYTE   PEND 
 BYTE   Bn4  v048
 BYTE   W24
 BYTE   PATT
  POIN2 Label_7_0158BDB5
 BYTE   PATT
  POIN2 Label_7_0158BDBC
 BYTE   PATT
  POIN2 Label_7_0158BDC3
 BYTE   PATT
  POIN2 Label_7_0158BDCC
 BYTE   PATT
  POIN2 Label_7_0158BDB5
 BYTE   PATT
  POIN2 Label_7_0158BDBC
 BYTE   PATT
  POIN2 Label_7_0158BE88
// 013   ----------------------------------------
 BYTE   N06  Bn4  v044
 BYTE   W24
Label_7_0158BEBD:
 BYTE   N06  En4  v127
 BYTE   W16
 BYTE   Ds4
 BYTE   W08
 BYTE   PEND 
 BYTE   PATT
  POIN2 Label_7_0158BEBD
// 014   ----------------------------------------
 BYTE   N18  En4  v127
 BYTE   W24
 BYTE   N06
 BYTE   W16
 BYTE   Fs4
 BYTE   W08
 BYTE   N16  Gn4
 BYTE   W16
 BYTE   N06  Fs4
 BYTE   W08
 BYTE   N30  En4
 BYTE   W24
// 015   ----------------------------------------
 BYTE   W16
 BYTE   N06  Gn4
 BYTE   W08
 BYTE   As4
 BYTE   W16
 BYTE   Dn5
 BYTE   W08
Label_7_0158BEE2:
 BYTE   N16  Fn5  v127
 BYTE   W16
 BYTE   N06  Ds5
 BYTE   W08
 BYTE   PEND 
 BYTE   PATT
  POIN2 Label_7_0158BEE2
// 016   ----------------------------------------
 BYTE   N24  Fs5  v127
 BYTE   W24
 BYTE   N06  Fn5
 BYTE   W16
 BYTE   Ds5
 BYTE   W08
 BYTE   Cs5
 BYTE   W24
 BYTE   N06
 BYTE   W24
// 017   ----------------------------------------
 BYTE   N36
 BYTE   W24
 BYTE   W24
 BYTE   W24
 BYTE   W24
// 018   ----------------------------------------
 BYTE   W24
 BYTE   W24
 BYTE   W24
 BYTE   W24
// 019   ----------------------------------------
 BYTE   W24
 BYTE   W24
 BYTE   W24
 BYTE   W24
// 020   ----------------------------------------
 BYTE   W24
 BYTE   W24
 BYTE   W24
 BYTE   W24
// 021   ----------------------------------------
 BYTE   W24
 BYTE   W24
 BYTE   W24
 BYTE   W24
// 022   ----------------------------------------
 BYTE   W24
 BYTE   W24
 BYTE   W24
 BYTE   W24
// 023   ----------------------------------------
 BYTE   W24
 BYTE   W24
 BYTE   W24
 BYTE   W24
// 024   ----------------------------------------
 BYTE   W24
 BYTE   W24
 BYTE   W24
 BYTE   W24
// 025   ----------------------------------------
 BYTE   W24
 BYTE   W24
 BYTE   W24
 BYTE   W24
// 026   ----------------------------------------
 BYTE   W24
 BYTE   W24
 BYTE   W24
 BYTE   W24
// 027   ----------------------------------------
 BYTE   W24
 BYTE   W24
 BYTE   N48  Gn4
 BYTE   W24
 BYTE   W24
// 028   ----------------------------------------
 BYTE   N08  An4
 BYTE   W24
 BYTE   N24  Gn4
 BYTE   W24
 BYTE   N08  An4
 BYTE   W24
 BYTE   W24
// 029   ----------------------------------------
 BYTE   N48  En5
 BYTE   W24
 BYTE   W24
 BYTE   N08  Fs5
 BYTE   W24
 BYTE   N24  En5
 BYTE   W24
// 030   ----------------------------------------
 BYTE   N08  Fs5
 BYTE   W24
 BYTE   W16
 BYTE   GoTo
  POIN2 Label_7_0158BD52
// 031   ----------------------------------------
 BYTE   W08
 BYTE   FINE

//**************** Track 9 (Midi-Chn.8) ****************//

PokemonMDExplorersKecleonShopRandomWizard_009:
// 000   ----------------------------------------
 BYTE   KEYSH   PokemonMDExplorersKecleonShopRandomWizard_key+0
 BYTE   VOICE   75
 BYTE   PAN   c_v+16
 BYTE   VOL   21*PokemonMDExplorersKecleonShopRandomWizard_mvl/mxv
 BYTE   BEND   c_v+0
 BYTE   W24
 BYTE   W24
 BYTE   W24
 BYTE   W24
// 001   ----------------------------------------
 BYTE   W24
 BYTE   W24
 BYTE   W24
 BYTE   W24
// 002   ----------------------------------------
 BYTE   W24
 BYTE   W24
 BYTE   W24
 BYTE   W24
// 003   ----------------------------------------
 BYTE   W24
 BYTE   W24
 BYTE   W24
 BYTE   W24
// 004   ----------------------------------------
Label_8_0158BF66:
 BYTE   N06  An3  v092
 BYTE   W16
 BYTE   N06
 BYTE   W08
Label_8_0158BF6C:
 BYTE   N06  Bn3  v092
 BYTE   W16
 BYTE   N06
 BYTE   W08
 BYTE   PEND 
Label_8_0158BF73:
 BYTE   N06  Cs4  v092
 BYTE   W08
 BYTE   Fs4
 BYTE   W08
 BYTE   Cs4
 BYTE   W08
 BYTE   PEND 
Label_8_0158BF7C:
 BYTE   N06  En4  v092
 BYTE   W08
 BYTE   Cn4
 BYTE   W08
 BYTE   Bn3
 BYTE   W08
 BYTE   PEND 
// 005   ----------------------------------------
Label_8_0158BF85:
 BYTE   N06  An3  v092
 BYTE   W16
 BYTE   N06
 BYTE   W08
 BYTE   PEND 
 BYTE   PATT
  POIN2 Label_8_0158BF6C
// 006   ----------------------------------------
 BYTE   N06  An3  v092
 BYTE   W24
 BYTE   W24
 BYTE   PATT
  POIN2 Label_8_0158BF85
 BYTE   PATT
  POIN2 Label_8_0158BF6C
 BYTE   PATT
  POIN2 Label_8_0158BF73
 BYTE   PATT
  POIN2 Label_8_0158BF7C
 BYTE   PATT
  POIN2 Label_8_0158BF85
 BYTE   PATT
  POIN2 Label_8_0158BF6C
// 007   ----------------------------------------
 BYTE   N06  An3  v092
 BYTE   W24
 BYTE   W24
Label_8_0158BFB9:
 BYTE   N06  Dn4  v092
 BYTE   W16
 BYTE   N06
 BYTE   W08
 BYTE   PEND 
Label_8_0158BFC0:
 BYTE   N06  En4  v092
 BYTE   W16
 BYTE   N06
 BYTE   W08
 BYTE   PEND 
// 008   ----------------------------------------
Label_8_0158BFC7:
 BYTE   N06  Fs4  v092
 BYTE   W08
 BYTE   Bn4
 BYTE   W08
 BYTE   Fs4
 BYTE   W08
 BYTE   PEND 
Label_8_0158BFD0:
 BYTE   N06  An4  v092
 BYTE   W08
 BYTE   Fn4
 BYTE   W08
 BYTE   En4
 BYTE   W08
 BYTE   PEND 
 BYTE   PATT
  POIN2 Label_8_0158BFB9
 BYTE   PATT
  POIN2 Label_8_0158BFC0
// 009   ----------------------------------------
 BYTE   N06  Dn4  v092
 BYTE   W24
 BYTE   W24
 BYTE   PATT
  POIN2 Label_8_0158BFB9
 BYTE   PATT
  POIN2 Label_8_0158BFC0
 BYTE   PATT
  POIN2 Label_8_0158BFC7
 BYTE   PATT
  POIN2 Label_8_0158BFD0
 BYTE   PATT
  POIN2 Label_8_0158BFB9
 BYTE   PATT
  POIN2 Label_8_0158BFC0
// 010   ----------------------------------------
 BYTE   N06  Dn4  v092
 BYTE   W24
 BYTE   Cn4
 BYTE   W08
 BYTE   Bn3
 BYTE   W08
 BYTE   As3
 BYTE   W08
 BYTE   PATT
  POIN2 Label_8_0158BF85
 BYTE   PATT
  POIN2 Label_8_0158BF6C
 BYTE   PATT
  POIN2 Label_8_0158BF73
 BYTE   PATT
  POIN2 Label_8_0158BF7C
 BYTE   PATT
  POIN2 Label_8_0158BF85
 BYTE   PATT
  POIN2 Label_8_0158BF6C
// 011   ----------------------------------------
 BYTE   N06  An3  v092
 BYTE   W24
 BYTE   W24
 BYTE   PATT
  POIN2 Label_8_0158BF85
 BYTE   PATT
  POIN2 Label_8_0158BF6C
 BYTE   PATT
  POIN2 Label_8_0158BF73
 BYTE   PATT
  POIN2 Label_8_0158BF7C
 BYTE   PATT
  POIN2 Label_8_0158BF85
 BYTE   PATT
  POIN2 Label_8_0158BF6C
// 012   ----------------------------------------
 BYTE   N06  An3  v092
 BYTE   W24
 BYTE   W24
 BYTE   PATT
  POIN2 Label_8_0158BFB9
 BYTE   PATT
  POIN2 Label_8_0158BFC0
 BYTE   PATT
  POIN2 Label_8_0158BFC7
 BYTE   PATT
  POIN2 Label_8_0158BFD0
 BYTE   PATT
  POIN2 Label_8_0158BFB9
 BYTE   PATT
  POIN2 Label_8_0158BFC0
// 013   ----------------------------------------
 BYTE   N06  Dn4  v092
 BYTE   W24
 BYTE   W24
 BYTE   PATT
  POIN2 Label_8_0158BFB9
 BYTE   PATT
  POIN2 Label_8_0158BFC0
 BYTE   PATT
  POIN2 Label_8_0158BFC7
 BYTE   PATT
  POIN2 Label_8_0158BFD0
 BYTE   PATT
  POIN2 Label_8_0158BFB9
 BYTE   PATT
  POIN2 Label_8_0158BFC0
// 014   ----------------------------------------
 BYTE   N06  Dn4  v092
 BYTE   W24
 BYTE   W24
 BYTE   W24
 BYTE   W24
// 015   ----------------------------------------
 BYTE   W24
 BYTE   W24
 BYTE   W24
 BYTE   W24
// 016   ----------------------------------------
 BYTE   W24
 BYTE   W24
 BYTE   W24
 BYTE   W24
// 017   ----------------------------------------
 BYTE   W24
 BYTE   W24
 BYTE   W24
 BYTE   W24
// 018   ----------------------------------------
 BYTE   W16
 BYTE   N08  Cs3  v127
 BYTE   W08
 BYTE   N16  Ds3
 BYTE   W16
 BYTE   N08  Fn3
 BYTE   W08
Label_8_0158C0B5:
 BYTE   N06  Fs3  v127
 BYTE   W16
 BYTE   Fn3
 BYTE   W08
 BYTE   PEND 
 BYTE   PATT
  POIN2 Label_8_0158C0B5
// 019   ----------------------------------------
 BYTE   N18  Fs3  v127
 BYTE   W24
 BYTE   N06
 BYTE   W16
 BYTE   Gs3
 BYTE   W08
 BYTE   N16  An3
 BYTE   W16
 BYTE   N06  Gs3
 BYTE   W08
 BYTE   N30  Fs3
 BYTE   W24
// 020   ----------------------------------------
 BYTE   W16
 BYTE   N06  An3
 BYTE   W08
 BYTE   Cn4
 BYTE   W16
 BYTE   Ds4
 BYTE   W08
Label_8_0158C0DA:
 BYTE   N12  En4  v127
 BYTE   W16
 BYTE   N06  Ds4
 BYTE   W08
 BYTE   PEND 
 BYTE   PATT
  POIN2 Label_8_0158C0DA
// 021   ----------------------------------------
 BYTE   N24  Fn4  v127
 BYTE   W24
 BYTE   N06  Fs4
 BYTE   W16
 BYTE   Gs4
 BYTE   W08
 BYTE   Fs4
 BYTE   W16
 BYTE   As4
 BYTE   W08
 BYTE   N18  Ds5
 BYTE   W24
// 022   ----------------------------------------
 BYTE   N18
 BYTE   W24
 BYTE   Fn5
 BYTE   W24
 BYTE   TIE  Dn5
 BYTE   W01
 BYTE   W06
 BYTE   W05
 BYTE   W04
 BYTE   W03
 BYTE   W03
 BYTE   W02
 BYTE   W01
 BYTE   W02
 BYTE   W01
 BYTE   W03
 BYTE   W02
 BYTE   W01
 BYTE   W02
 BYTE   W01
 BYTE   W02
 BYTE   W01
 BYTE   W02
 BYTE   W01
 BYTE   W02
 BYTE   W01
 BYTE   W02
// 023   ----------------------------------------
 BYTE   W01
 BYTE   W02
 BYTE   W01
 BYTE   W02
 BYTE   W01
 BYTE   W02
 BYTE   W01
 BYTE   W02
 BYTE   W10
 BYTE   W02
 BYTE   W09
 BYTE   W07
 BYTE   W05
 BYTE   W03
 BYTE   W01
 BYTE   W05
 BYTE   W03
 BYTE   W04
 BYTE   W03
 BYTE   W03
 BYTE   W03
 BYTE   W02
 BYTE   W03
 BYTE   W01
 BYTE   W03
 BYTE   W02
 BYTE   W03
 BYTE   W01
 BYTE   W03
 BYTE   W02
 BYTE   W01
 BYTE   W03
 BYTE   W02
// 024   ----------------------------------------
 BYTE   W01
 BYTE   W02
 BYTE   W01
 BYTE   W03
 BYTE   W02
 BYTE   W01
 BYTE   W02
 BYTE   W01
 BYTE   W02
 BYTE   W01
 BYTE   W02
 BYTE   W01
 BYTE   W02
 BYTE   W01
 BYTE   W02
 BYTE   W01
 BYTE   W02
 BYTE   W01
 BYTE   W02
 BYTE   W01
 BYTE   W02
 BYTE   W01
 BYTE   W02
 BYTE   W01
 BYTE   W02
 BYTE   W01
 BYTE   W02
 BYTE   W01
 BYTE   W02
 BYTE   W01
 BYTE   W02
 BYTE   EOT
 BYTE   W01
 BYTE   W02
 BYTE   W01
 BYTE   W20
 BYTE   W24
// 025   ----------------------------------------
 BYTE   W24
 BYTE   W24
 BYTE   W24
 BYTE   W24
// 026   ----------------------------------------
 BYTE   W24
 BYTE   W24
 BYTE   W24
 BYTE   W24
// 027   ----------------------------------------
 BYTE   W24
 BYTE   W24
 BYTE   W24
 BYTE   W24
// 028   ----------------------------------------
 BYTE   W24
 BYTE   W24
 BYTE   W08
 BYTE   N48  Gn4
 BYTE   W16
 BYTE   W24
// 029   ----------------------------------------
 BYTE   W08
 BYTE   N08  An4
 BYTE   W16
 BYTE   W08
 BYTE   N24  Gn4
 BYTE   W16
 BYTE   W08
 BYTE   N08  An4
 BYTE   W16
 BYTE   W24
// 030   ----------------------------------------
 BYTE   W08
 BYTE   N48  En5
 BYTE   W16
 BYTE   W24
 BYTE   W08
 BYTE   N08  Fs5
 BYTE   W16
 BYTE   W08
 BYTE   N24  En5
 BYTE   W16
// 031   ----------------------------------------
 BYTE   W08
 BYTE   N08  Fs5
 BYTE   W16
 BYTE   W16
 BYTE   GoTo
  POIN2 Label_8_0158BF66
// 032   ----------------------------------------
 BYTE   W08
 BYTE   FINE

//**************** Track 10 (Midi-Chn.9) ****************//

PokemonMDExplorersKecleonShopRandomWizard_010:
// 000   ----------------------------------------
 BYTE   KEYSH   PokemonMDExplorersKecleonShopRandomWizard_key+0
 BYTE   VOICE   75
 BYTE   PAN   c_v+36
 BYTE   VOL   11*PokemonMDExplorersKecleonShopRandomWizard_mvl/mxv
 BYTE   BEND   c_v+0
 BYTE   W24
 BYTE   W24
 BYTE   W24
 BYTE   W24
// 001   ----------------------------------------
 BYTE   W24
 BYTE   W24
 BYTE   W24
 BYTE   W24
// 002   ----------------------------------------
 BYTE   W24
 BYTE   W24
 BYTE   W24
 BYTE   W24
// 003   ----------------------------------------
 BYTE   W24
 BYTE   W24
 BYTE   W24
 BYTE   W24
// 004   ----------------------------------------
Label_9_0158C1AE:
 BYTE   W08
 BYTE   N06  An3  v092
 BYTE   N06  Fs4  v127
 BYTE   W16
Label_9_0158C1B6:
 BYTE   N06  An3  v092
 BYTE   N06  Fs4  v127
 BYTE   W08
 BYTE   Bn3  v092
 BYTE   N06  Gn4  v127
 BYTE   W16
 BYTE   PEND 
Label_9_0158C1C4:
 BYTE   N06  Bn3  v092
 BYTE   N06  Gn4  v127
 BYTE   W08
 BYTE   Cs4  v092
 BYTE   N06  An4  v127
 BYTE   W08
 BYTE   Fs4  v092
 BYTE   N06  Dn5  v127
 BYTE   W08
 BYTE   PEND 
Label_9_0158C1D8:
 BYTE   N06  Cs4  v092
 BYTE   N06  An4  v127
 BYTE   W08
 BYTE   En4  v092
 BYTE   N06  Cn5  v127
 BYTE   W08
 BYTE   Cn4  v092
 BYTE   N06  An4  v127
 BYTE   W08
 BYTE   PEND 
// 005   ----------------------------------------
Label_9_0158C1EC:
 BYTE   N06  Bn3  v092
 BYTE   N06  Gn4  v127
 BYTE   W08
 BYTE   An3  v092
 BYTE   N06  Fs4  v127
 BYTE   W16
 BYTE   PEND 
 BYTE   PATT
  POIN2 Label_9_0158C1B6
// 006   ----------------------------------------
Label_9_0158C1FF:
 BYTE   N06  Bn3  v092
 BYTE   N06  Gn4  v127
 BYTE   W08
 BYTE   An3  v092
 BYTE   N06  Fs4  v127
 BYTE   W08
 BYTE   Fs4  v068
 BYTE   W08
 BYTE   PEND 
 BYTE   Fs4  v056
 BYTE   W08
 BYTE   Fs4  v048
 BYTE   W16
Label_9_0158C216:
 BYTE   W08
 BYTE   N06  An3  v092
 BYTE   N06  Fs4  v127
 BYTE   W16
 BYTE   PEND 
 BYTE   PATT
  POIN2 Label_9_0158C1B6
 BYTE   PATT
  POIN2 Label_9_0158C1C4
 BYTE   PATT
  POIN2 Label_9_0158C1D8
 BYTE   PATT
  POIN2 Label_9_0158C1EC
 BYTE   PATT
  POIN2 Label_9_0158C1B6
 BYTE   PATT
  POIN2 Label_9_0158C1FF
// 007   ----------------------------------------
 BYTE   N06  Fs4  v052
 BYTE   W08
 BYTE   Fs4  v032
 BYTE   W16
Label_9_0158C244:
 BYTE   W08
 BYTE   N06  Dn4  v092
 BYTE   N06  Bn4  v127
 BYTE   W16
 BYTE   PEND 
Label_9_0158C24D:
 BYTE   N06  Dn4  v092
 BYTE   N06  Bn4  v127
 BYTE   W08
 BYTE   En4  v092
 BYTE   N06  Cn5  v127
 BYTE   W16
 BYTE   PEND 
Label_9_0158C25B:
 BYTE   N06  En4  v092
 BYTE   N06  Cn5  v127
 BYTE   W08
 BYTE   Fs4  v092
 BYTE   N06  Dn5  v127
 BYTE   W08
 BYTE   Bn4  v092
 BYTE   N06  Gn5  v127
 BYTE   W08
 BYTE   PEND 
// 008   ----------------------------------------
Label_9_0158C26F:
 BYTE   N06  Fs4  v092
 BYTE   N06  Dn5  v127
 BYTE   W08
 BYTE   An4  v092
 BYTE   N06  Fn5  v127
 BYTE   W08
 BYTE   Fn4  v092
 BYTE   N06  Dn5  v127
 BYTE   W08
 BYTE   PEND 
Label_9_0158C283:
 BYTE   N06  En4  v092
 BYTE   N06  Cn5  v127
 BYTE   W08
 BYTE   Dn4  v092
 BYTE   N06  Bn4  v127
 BYTE   W16
 BYTE   PEND 
 BYTE   PATT
  POIN2 Label_9_0158C24D
// 009   ----------------------------------------
Label_9_0158C296:
 BYTE   N06  En4  v092
 BYTE   N06  Cn5  v127
 BYTE   W08
 BYTE   Dn4  v092
 BYTE   N06  Bn4  v127
 BYTE   W08
 BYTE   Bn4  v064
 BYTE   W08
 BYTE   PEND 
 BYTE   Bn4  v044
 BYTE   W08
 BYTE   Bn4  v036
 BYTE   W16
 BYTE   PATT
  POIN2 Label_9_0158C244
 BYTE   PATT
  POIN2 Label_9_0158C24D
 BYTE   PATT
  POIN2 Label_9_0158C25B
 BYTE   PATT
  POIN2 Label_9_0158C26F
 BYTE   PATT
  POIN2 Label_9_0158C283
 BYTE   PATT
  POIN2 Label_9_0158C24D
 BYTE   PATT
  POIN2 Label_9_0158C296
// 010   ----------------------------------------
 BYTE   N06  Bn4  v044
 BYTE   W08
 BYTE   Cn4  v092
 BYTE   N06  An4  v127
 BYTE   W08
 BYTE   Bn3  v092
 BYTE   N06  Gs4  v127
 BYTE   W08
 BYTE   As3  v092
 BYTE   N06  Gn4  v127
 BYTE   W08
 BYTE   An3  v092
 BYTE   N06  Fs4  v127
 BYTE   W16
 BYTE   PATT
  POIN2 Label_9_0158C1B6
 BYTE   PATT
  POIN2 Label_9_0158C1C4
 BYTE   PATT
  POIN2 Label_9_0158C1D8
 BYTE   PATT
  POIN2 Label_9_0158C1EC
 BYTE   PATT
  POIN2 Label_9_0158C1B6
// 011   ----------------------------------------
 BYTE   N06  Bn3  v092
 BYTE   N06  Gn4  v127
 BYTE   W08
 BYTE   An3  v092
 BYTE   N06  Fs4  v127
 BYTE   W08
 BYTE   Fs4  v060
 BYTE   W08
 BYTE   Fs4  v044
 BYTE   W08
 BYTE   Fs4  v036
 BYTE   W16
 BYTE   PATT
  POIN2 Label_9_0158C216
 BYTE   PATT
  POIN2 Label_9_0158C1B6
 BYTE   PATT
  POIN2 Label_9_0158C1C4
 BYTE   PATT
  POIN2 Label_9_0158C1D8
 BYTE   PATT
  POIN2 Label_9_0158C1EC
 BYTE   PATT
  POIN2 Label_9_0158C1B6
 BYTE   PATT
  POIN2 Label_9_0158C1FF
// 012   ----------------------------------------
 BYTE   N06  Fs4  v052
 BYTE   W08
 BYTE   Fs4  v040
 BYTE   W16
 BYTE   PATT
  POIN2 Label_9_0158C244
 BYTE   PATT
  POIN2 Label_9_0158C24D
 BYTE   PATT
  POIN2 Label_9_0158C25B
 BYTE   PATT
  POIN2 Label_9_0158C26F
 BYTE   PATT
  POIN2 Label_9_0158C283
 BYTE   PATT
  POIN2 Label_9_0158C24D
 BYTE   PATT
  POIN2 Label_9_0158C296
// 013   ----------------------------------------
 BYTE   N06  Bn4  v052
 BYTE   W08
 BYTE   Bn4  v048
 BYTE   W16
 BYTE   PATT
  POIN2 Label_9_0158C244
 BYTE   PATT
  POIN2 Label_9_0158C24D
 BYTE   PATT
  POIN2 Label_9_0158C25B
 BYTE   PATT
  POIN2 Label_9_0158C26F
 BYTE   PATT
  POIN2 Label_9_0158C283
 BYTE   PATT
  POIN2 Label_9_0158C24D
 BYTE   PATT
  POIN2 Label_9_0158C296
// 014   ----------------------------------------
 BYTE   N06  Bn4  v052
 BYTE   W08
 BYTE   Bn4  v044
 BYTE   W16
 BYTE   W08
 BYTE   En4  v127
 BYTE   W16
 BYTE   Ds4
 BYTE   W08
 BYTE   En4
 BYTE   W16
 BYTE   Ds4
 BYTE   W08
 BYTE   N18  En4
 BYTE   W16
// 015   ----------------------------------------
 BYTE   W08
 BYTE   N06
 BYTE   W16
 BYTE   Fs4
 BYTE   W08
 BYTE   N16  Gn4
 BYTE   W16
 BYTE   N06  Fs4
 BYTE   W08
 BYTE   N30  En4
 BYTE   W16
 BYTE   W24
// 016   ----------------------------------------
 BYTE   N06  Gn4
 BYTE   W08
 BYTE   As4
 BYTE   W16
 BYTE   Dn5
 BYTE   W08
 BYTE   N16  Fn5
 BYTE   W16
 BYTE   N06  Ds5
 BYTE   W08
 BYTE   N16  Fn5
 BYTE   W16
 BYTE   N06  Ds5
 BYTE   W08
 BYTE   N24  Fs5
 BYTE   W16
// 017   ----------------------------------------
 BYTE   W08
 BYTE   N06  Fn5
 BYTE   W16
 BYTE   Ds5
 BYTE   W08
 BYTE   Cs5
 BYTE   W16
 BYTE   W08
 BYTE   N06
 BYTE   W16
 BYTE   W08
 BYTE   N36
 BYTE   W16
// 018   ----------------------------------------
 BYTE   N08  Cs3
 BYTE   W08
 BYTE   N16  Ds3
 BYTE   W16
 BYTE   N08  Fn3
 BYTE   W08
 BYTE   N06  Fs3
 BYTE   W16
 BYTE   Fn3
 BYTE   W08
 BYTE   Fs3
 BYTE   W16
 BYTE   Fn3
 BYTE   W08
 BYTE   N18  Fs3
 BYTE   W16
// 019   ----------------------------------------
 BYTE   W08
 BYTE   N06
 BYTE   W16
 BYTE   Gs3
 BYTE   W08
 BYTE   N16  An3
 BYTE   W16
 BYTE   N06  Gs3
 BYTE   W08
 BYTE   N30  Fs3
 BYTE   W16
 BYTE   W24
// 020   ----------------------------------------
 BYTE   N06  An3
 BYTE   W08
 BYTE   Cn4
 BYTE   W16
Label_9_0158C402:
 BYTE   N06  Ds4  v127
 BYTE   W08
 BYTE   N12  En4
 BYTE   W16
 BYTE   PEND 
 BYTE   PATT
  POIN2 Label_9_0158C402
// 021   ----------------------------------------
 BYTE   N06  Ds4  v127
 BYTE   W08
 BYTE   N24  Fn4
 BYTE   W16
 BYTE   W08
 BYTE   N06  Fs4
 BYTE   W16
 BYTE   Gs4
 BYTE   W08
 BYTE   Fs4
 BYTE   W16
 BYTE   As4
 BYTE   W08
 BYTE   N18  Ds5
 BYTE   W16
// 022   ----------------------------------------
 BYTE   W08
 BYTE   N18
 BYTE   W16
 BYTE   W08
 BYTE   Fn5
 BYTE   W16
 BYTE   W08
 BYTE   TIE  Dn5
 BYTE   W01
 BYTE   W06
 BYTE   W05
 BYTE   W04
 BYTE   W03
 BYTE   W03
 BYTE   W03
 BYTE   W02
 BYTE   W01
 BYTE   W03
 BYTE   W02
 BYTE   W01
 BYTE   W02
 BYTE   W01
 BYTE   W02
 BYTE   W01
// 023   ----------------------------------------
 BYTE   W02
 BYTE   W01
 BYTE   W02
 BYTE   W01
 BYTE   W02
 BYTE   W01
 BYTE   W02
 BYTE   W01
 BYTE   W02
 BYTE   W01
 BYTE   W02
 BYTE   W01
 BYTE   W02
 BYTE   W04
 BYTE   W06
 BYTE   W11
 BYTE   W07
 BYTE   W05
 BYTE   W04
 BYTE   W05
 BYTE   W03
 BYTE   W04
 BYTE   W03
 BYTE   W03
 BYTE   W03
 BYTE   W02
 BYTE   W03
 BYTE   W01
 BYTE   W03
 BYTE   W02
 BYTE   W03
 BYTE   W01
 BYTE   W03
// 024   ----------------------------------------
 BYTE   W02
 BYTE   W01
 BYTE   W03
 BYTE   W02
 BYTE   W01
 BYTE   W02
 BYTE   W01
 BYTE   W03
 BYTE   W02
 BYTE   W01
 BYTE   W02
 BYTE   W01
 BYTE   W02
 BYTE   W01
 BYTE   W02
 BYTE   W01
 BYTE   W02
 BYTE   W01
 BYTE   W02
 BYTE   W01
 BYTE   W02
 BYTE   W01
 BYTE   W02
 BYTE   W01
 BYTE   W02
 BYTE   W01
 BYTE   W02
 BYTE   W01
 BYTE   W02
 BYTE   W01
 BYTE   W02
 BYTE   W01
 BYTE   W02
 BYTE   W01
 BYTE   W02
 BYTE   EOT
 BYTE   W01
 BYTE   W02
 BYTE   W01
 BYTE   W12
 BYTE   W24
// 025   ----------------------------------------
 BYTE   W24
 BYTE   W24
 BYTE   W24
 BYTE   W24
// 026   ----------------------------------------
 BYTE   W24
 BYTE   W24
 BYTE   W24
 BYTE   W24
// 027   ----------------------------------------
 BYTE   W24
 BYTE   W24
 BYTE   W08
 BYTE   W16
 BYTE   W24
// 028   ----------------------------------------
 BYTE   W24
 BYTE   W24
 BYTE   W16
 BYTE   N48  Gn4
 BYTE   W08
 BYTE   W24
// 029   ----------------------------------------
 BYTE   W16
 BYTE   N08  An4
 BYTE   W08
 BYTE   W16
 BYTE   N24  Gn4
 BYTE   W08
 BYTE   W16
 BYTE   N08  An4
 BYTE   W08
 BYTE   W24
// 030   ----------------------------------------
 BYTE   W16
 BYTE   N48  En5
 BYTE   W08
 BYTE   W24
 BYTE   W16
 BYTE   N08  Fs5
 BYTE   W08
 BYTE   W16
 BYTE   N24  En5
 BYTE   W08
// 031   ----------------------------------------
 BYTE   W16
 BYTE   N08  Fs5
 BYTE   W08
 BYTE   W16
 BYTE   GoTo
  POIN2 Label_9_0158C1AE
// 032   ----------------------------------------
 BYTE   W08
 BYTE   FINE

//**************** Track 11 (Midi-Chn.10) ****************//

PokemonMDExplorersKecleonShopRandomWizard_011:
// 000   ----------------------------------------
 BYTE   KEYSH   PokemonMDExplorersKecleonShopRandomWizard_key+0
 BYTE   VOICE   10
 BYTE   PAN   c_v-64
 BYTE   VOL   16*PokemonMDExplorersKecleonShopRandomWizard_mvl/mxv
 BYTE   BEND   c_v+0
 BYTE   W24
 BYTE   W24
 BYTE   W24
 BYTE   W24
// 001   ----------------------------------------
 BYTE   W24
 BYTE   W24
 BYTE   W24
 BYTE   W24
// 002   ----------------------------------------
 BYTE   W24
 BYTE   W24
 BYTE   W24
 BYTE   W24
// 003   ----------------------------------------
 BYTE   W24
 BYTE   W24
 BYTE   W24
 BYTE   W24
// 004   ----------------------------------------
Label_10_0158C4DA:
 BYTE   N06  Fs4  v108
 BYTE   W16
 BYTE   N06
 BYTE   W08
 BYTE   PEND 
Label_10_0158C4E1:
 BYTE   N06  Gn4  v108
 BYTE   W16
 BYTE   N06
 BYTE   W08
 BYTE   PEND 
Label_10_0158C4E8:
 BYTE   N06  An4  v108
 BYTE   W08
 BYTE   Dn5
 BYTE   W08
 BYTE   An4
 BYTE   W08
 BYTE   PEND 
Label_10_0158C4F1:
 BYTE   N06  Cn5  v108
 BYTE   W08
 BYTE   An4
 BYTE   W08
 BYTE   Gn4
 BYTE   W08
 BYTE   PEND 
 BYTE   PATT
  POIN2 Label_10_0158C4DA
 BYTE   PATT
  POIN2 Label_10_0158C4E1
// 005   ----------------------------------------
 BYTE   N06  Fs4  v108
 BYTE   W08
 BYTE   Fs4  v048
 BYTE   W08
 BYTE   Fs4  v036
 BYTE   W08
 BYTE   Fs4  v028
 BYTE   W24
 BYTE   PATT
  POIN2 Label_10_0158C4DA
 BYTE   PATT
  POIN2 Label_10_0158C4E1
 BYTE   PATT
  POIN2 Label_10_0158C4E8
 BYTE   PATT
  POIN2 Label_10_0158C4F1
 BYTE   PATT
  POIN2 Label_10_0158C4DA
 BYTE   PATT
  POIN2 Label_10_0158C4E1
// 006   ----------------------------------------
Label_10_0158C52F:
 BYTE   N06  Fs4  v108
 BYTE   W08
 BYTE   Fs4  v048
 BYTE   W08
 BYTE   Fs4  v032
 BYTE   W08
 BYTE   PEND 
 BYTE   Fs4  v012
 BYTE   W24
Label_10_0158C53D:
 BYTE   N06  Bn4  v108
 BYTE   W16
 BYTE   N06
 BYTE   W08
 BYTE   PEND 
Label_10_0158C544:
 BYTE   N06  Cn5  v108
 BYTE   W16
 BYTE   N06
 BYTE   W08
 BYTE   PEND 
// 007   ----------------------------------------
Label_10_0158C54B:
 BYTE   N06  Dn5  v108
 BYTE   W08
 BYTE   Gn5
 BYTE   W08
 BYTE   Dn5
 BYTE   W08
 BYTE   PEND 
Label_10_0158C554:
 BYTE   N06  Fn5  v108
 BYTE   W08
 BYTE   Dn5
 BYTE   W08
 BYTE   Cn5
 BYTE   W08
 BYTE   PEND 
 BYTE   PATT
  POIN2 Label_10_0158C53D
 BYTE   PATT
  POIN2 Label_10_0158C544
// 008   ----------------------------------------
Label_10_0158C567:
 BYTE   N06  Bn4  v108
 BYTE   W08
 BYTE   Bn4  v044
 BYTE   W08
 BYTE   Bn4  v024
 BYTE   W08
 BYTE   PEND 
 BYTE   Bn4  v016
 BYTE   W24
 BYTE   PATT
  POIN2 Label_10_0158C53D
 BYTE   PATT
  POIN2 Label_10_0158C544
 BYTE   PATT
  POIN2 Label_10_0158C54B
 BYTE   PATT
  POIN2 Label_10_0158C554
 BYTE   PATT
  POIN2 Label_10_0158C53D
 BYTE   PATT
  POIN2 Label_10_0158C544
 BYTE   PATT
  POIN2 Label_10_0158C567
// 009   ----------------------------------------
 BYTE   N06  An4  v108
 BYTE   W08
 BYTE   Gs4
 BYTE   W08
 BYTE   Gn4
 BYTE   W08
 BYTE   PATT
  POIN2 Label_10_0158C4DA
 BYTE   PATT
  POIN2 Label_10_0158C4E1
 BYTE   PATT
  POIN2 Label_10_0158C4E8
 BYTE   PATT
  POIN2 Label_10_0158C4F1
 BYTE   PATT
  POIN2 Label_10_0158C4DA
 BYTE   PATT
  POIN2 Label_10_0158C4E1
// 010   ----------------------------------------
 BYTE   N06  Fs4  v108
 BYTE   W08
 BYTE   Fs4  v040
 BYTE   W08
 BYTE   Fs4  v024
 BYTE   W08
 BYTE   Fs4  v016
 BYTE   W24
 BYTE   PATT
  POIN2 Label_10_0158C4DA
 BYTE   PATT
  POIN2 Label_10_0158C4E1
 BYTE   PATT
  POIN2 Label_10_0158C4E8
 BYTE   PATT
  POIN2 Label_10_0158C4F1
 BYTE   PATT
  POIN2 Label_10_0158C4DA
 BYTE   PATT
  POIN2 Label_10_0158C4E1
 BYTE   PATT
  POIN2 Label_10_0158C52F
// 011   ----------------------------------------
 BYTE   N06  Fs4  v020
 BYTE   W24
 BYTE   PATT
  POIN2 Label_10_0158C53D
 BYTE   PATT
  POIN2 Label_10_0158C544
 BYTE   PATT
  POIN2 Label_10_0158C54B
 BYTE   PATT
  POIN2 Label_10_0158C554
 BYTE   PATT
  POIN2 Label_10_0158C53D
 BYTE   PATT
  POIN2 Label_10_0158C544
// 012   ----------------------------------------
Label_10_0158C610:
 BYTE   N06  Bn4  v108
 BYTE   W08
 BYTE   Bn4  v044
 BYTE   W08
 BYTE   Bn4  v032
 BYTE   W08
 BYTE   PEND 
 BYTE   Bn4  v028
 BYTE   W24
 BYTE   PATT
  POIN2 Label_10_0158C53D
 BYTE   PATT
  POIN2 Label_10_0158C544
 BYTE   PATT
  POIN2 Label_10_0158C54B
 BYTE   PATT
  POIN2 Label_10_0158C554
 BYTE   PATT
  POIN2 Label_10_0158C53D
 BYTE   PATT
  POIN2 Label_10_0158C544
 BYTE   PATT
  POIN2 Label_10_0158C610
// 013   ----------------------------------------
 BYTE   N06  Bn4  v024
 BYTE   W24
Label_10_0158C645:
 BYTE   N06  En4  v108
 BYTE   W16
 BYTE   Ds4
 BYTE   W08
 BYTE   PEND 
 BYTE   PATT
  POIN2 Label_10_0158C645
// 014   ----------------------------------------
 BYTE   N18  En4  v108
 BYTE   W24
 BYTE   N06
 BYTE   W16
 BYTE   Fs4
 BYTE   W08
 BYTE   N16  Gn4
 BYTE   W16
 BYTE   N06  Fs4
 BYTE   W08
 BYTE   N30  En4
 BYTE   W24
// 015   ----------------------------------------
 BYTE   W16
 BYTE   N06  Gn4
 BYTE   W08
 BYTE   As4
 BYTE   W16
 BYTE   Dn5
 BYTE   W08
Label_10_0158C66A:
 BYTE   N16  Fn5  v108
 BYTE   W16
 BYTE   N06  Ds5
 BYTE   W08
 BYTE   PEND 
 BYTE   PATT
  POIN2 Label_10_0158C66A
// 016   ----------------------------------------
 BYTE   N24  Fs5  v108
 BYTE   W24
 BYTE   N06  Fn5
 BYTE   W16
 BYTE   Ds5
 BYTE   W08
 BYTE   Cs5
 BYTE   W24
 BYTE   N06
 BYTE   W24
// 017   ----------------------------------------
 BYTE   N36
 BYTE   W24
 BYTE   W24
 BYTE   W24
 BYTE   W24
// 018   ----------------------------------------
 BYTE   W24
 BYTE   W24
 BYTE   W24
 BYTE   W24
// 019   ----------------------------------------
 BYTE   W24
 BYTE   W24
 BYTE   W24
 BYTE   W24
// 020   ----------------------------------------
 BYTE   W24
 BYTE   W24
 BYTE   W24
 BYTE   W24
// 021   ----------------------------------------
 BYTE   W24
 BYTE   W24
 BYTE   W24
 BYTE   W24
// 022   ----------------------------------------
 BYTE   W24
 BYTE   W24
 BYTE   VOICE   45
 BYTE   VOL   11*PokemonMDExplorersKecleonShopRandomWizard_mvl/mxv
 BYTE   PAN   c_v-34
 BYTE   BEND   c_v+0
 BYTE   W24
 BYTE   W24
// 023   ----------------------------------------
 BYTE   W24
 BYTE   W24
 BYTE   W24
 BYTE   N06  Dn4  v127
 BYTE   W24
// 024   ----------------------------------------
 BYTE   En4
 BYTE   W24
 BYTE   Fn4
 BYTE   W24
 BYTE   En4
 BYTE   W24
 BYTE   Dn4
 BYTE   W24
// 025   ----------------------------------------
 BYTE   Cn4
 BYTE   W24
 BYTE   As3
 BYTE   W24
 BYTE   Cn4
 BYTE   W24
 BYTE   W24
// 026   ----------------------------------------
 BYTE   W24
 BYTE   W24
 BYTE   W24
 BYTE   W24
// 027   ----------------------------------------
 BYTE   W24
 BYTE   W24
 BYTE   W24
 BYTE   W24
// 028   ----------------------------------------
 BYTE   W24
 BYTE   W24
 BYTE   W24
 BYTE   W24
// 029   ----------------------------------------
 BYTE   W24
 BYTE   W24
 BYTE   W24
 BYTE   W24
// 030   ----------------------------------------
 BYTE   W24
 BYTE   W16
 BYTE   GoTo
  POIN2 Label_10_0158C4DA
// 031   ----------------------------------------
 BYTE   W08
 BYTE   BEND   c_v+0
 BYTE   FINE

//**************** Track 12 (Midi-Chn.11) ****************//

PokemonMDExplorersKecleonShopRandomWizard_012:
// 000   ----------------------------------------
 BYTE   KEYSH   PokemonMDExplorersKecleonShopRandomWizard_key+0
 BYTE   VOICE   80
 BYTE   PAN   c_v+46
 BYTE   VOL   11*PokemonMDExplorersKecleonShopRandomWizard_mvl/mxv
 BYTE   BEND   c_v+0
 BYTE   W24
 BYTE   W24
 BYTE   W24
 BYTE   W24
// 001   ----------------------------------------
 BYTE   W24
 BYTE   W24
 BYTE   W24
 BYTE   W24
// 002   ----------------------------------------
 BYTE   W24
 BYTE   W24
 BYTE   W24
 BYTE   W24
// 003   ----------------------------------------
 BYTE   W24
 BYTE   W24
 BYTE   W24
 BYTE   W24
// 004   ----------------------------------------
Label_11_0158C6F2:
 BYTE   W24
 BYTE   W24
 BYTE   W24
 BYTE   W24
// 005   ----------------------------------------
 BYTE   W24
 BYTE   W24
 BYTE   W24
 BYTE   W24
// 006   ----------------------------------------
 BYTE   W24
 BYTE   W24
 BYTE   W24
 BYTE   W24
// 007   ----------------------------------------
 BYTE   W24
 BYTE   W24
 BYTE   W24
 BYTE   W24
// 008   ----------------------------------------
 BYTE   W24
 BYTE   W24
 BYTE   W24
 BYTE   W24
// 009   ----------------------------------------
 BYTE   W24
 BYTE   W24
 BYTE   W24
 BYTE   W24
// 010   ----------------------------------------
 BYTE   W24
 BYTE   W24
 BYTE   W24
 BYTE   W24
// 011   ----------------------------------------
 BYTE   W24
 BYTE   W24
 BYTE   W24
 BYTE   W24
// 012   ----------------------------------------
 BYTE   W24
 BYTE   W24
 BYTE   W24
 BYTE   W24
// 013   ----------------------------------------
 BYTE   W24
 BYTE   W24
 BYTE   W24
 BYTE   W24
// 014   ----------------------------------------
 BYTE   W24
 BYTE   W24
 BYTE   W24
 BYTE   W24
// 015   ----------------------------------------
 BYTE   W24
 BYTE   W24
 BYTE   W24
 BYTE   W24
// 016   ----------------------------------------
 BYTE   W24
 BYTE   W24
 BYTE   W24
 BYTE   W24
// 017   ----------------------------------------
 BYTE   W24
 BYTE   W24
 BYTE   W24
 BYTE   W24
// 018   ----------------------------------------
 BYTE   W24
 BYTE   W24
 BYTE   W24
 BYTE   W24
// 019   ----------------------------------------
 BYTE   W24
 BYTE   W24
 BYTE   W16
 BYTE   N06  Gn4  v127
 BYTE   W08
 BYTE   Fs4
 BYTE   W16
 BYTE   Fn4
 BYTE   W08
// 020   ----------------------------------------
Label_11_0158C739:
 BYTE   N06  En4  v127
 BYTE   W16
 BYTE   Ds4
 BYTE   W08
 BYTE   PEND 
 BYTE   PATT
  POIN2 Label_11_0158C739
// 021   ----------------------------------------
 BYTE   N18  En4  v127
 BYTE   W24
 BYTE   N06
 BYTE   W16
 BYTE   Fs4
 BYTE   W08
 BYTE   N16  Gn4
 BYTE   W16
 BYTE   N06  Fs4
 BYTE   W08
 BYTE   N30  En4
 BYTE   W24
// 022   ----------------------------------------
 BYTE   W16
 BYTE   N06  Gn4
 BYTE   W08
 BYTE   As4
 BYTE   W16
 BYTE   Dn5
 BYTE   W08
Label_11_0158C75E:
 BYTE   N16  Fn5  v127
 BYTE   W16
 BYTE   N06  Ds5
 BYTE   W08
 BYTE   PEND 
 BYTE   PATT
  POIN2 Label_11_0158C75E
// 023   ----------------------------------------
 BYTE   N24  Fs5  v127
 BYTE   W24
 BYTE   N06  Fn5
 BYTE   W16
 BYTE   Ds5
 BYTE   W08
 BYTE   Cs5
 BYTE   W24
 BYTE   N06
 BYTE   W24
// 024   ----------------------------------------
 BYTE   N42
 BYTE   W06
 BYTE   W01
 BYTE   W03
 BYTE   W02
 BYTE   W01
 BYTE   W02
 BYTE   W01
 BYTE   W02
 BYTE   W01
 BYTE   W02
 BYTE   W01
 BYTE   W02
 BYTE   W01
 BYTE   W02
 BYTE   W01
 BYTE   W02
 BYTE   W01
 BYTE   W02
 BYTE   W01
 BYTE   W02
 BYTE   W01
 BYTE   W02
 BYTE   W01
 BYTE   W02
 BYTE   W01
 BYTE   W02
 BYTE   W01
 BYTE   W02
 BYTE   N06  Fs3
 BYTE   W01
 BYTE   W02
 BYTE   W13
 BYTE   Fn3
 BYTE   W08
 BYTE   Fs3
 BYTE   W16
 BYTE   Fn3
 BYTE   W08
// 025   ----------------------------------------
 BYTE   N18  Fs3
 BYTE   W24
 BYTE   N06
 BYTE   W16
 BYTE   Gs3
 BYTE   W08
 BYTE   N16  An3
 BYTE   W16
 BYTE   N06  Gs3
 BYTE   W08
 BYTE   N30  Fs3
 BYTE   W10
 BYTE   W03
 BYTE   W02
 BYTE   W01
 BYTE   W02
 BYTE   W01
 BYTE   W02
 BYTE   W01
 BYTE   W02
// 026   ----------------------------------------
 BYTE   W01
 BYTE   W02
 BYTE   W01
 BYTE   W02
 BYTE   W01
 BYTE   W06
 BYTE   W03
 BYTE   N06  An3
 BYTE   W08
 BYTE   Cn4
 BYTE   W16
 BYTE   Ds4
 BYTE   W08
Label_11_0158C7C6:
 BYTE   N16  En4  v127
 BYTE   W16
 BYTE   N06  Ds4
 BYTE   W08
 BYTE   PEND 
 BYTE   PATT
  POIN2 Label_11_0158C7C6
// 027   ----------------------------------------
 BYTE   N24  Fn4  v127
 BYTE   W24
 BYTE   N06  Fs4
 BYTE   W16
 BYTE   Gs4
 BYTE   W08
 BYTE   Fs4
 BYTE   W16
 BYTE   As4
 BYTE   W08
 BYTE   N18  Ds5
 BYTE   W24
// 028   ----------------------------------------
 BYTE   N18
 BYTE   W24
 BYTE   Fn5
 BYTE   W24
 BYTE   TIE  Dn5
 BYTE   W06
 BYTE   W01
 BYTE   W06
 BYTE   W03
 BYTE   W03
 BYTE   W03
 BYTE   W02
 BYTE   W01
 BYTE   W02
 BYTE   W01
 BYTE   W03
 BYTE   W02
 BYTE   W01
 BYTE   W02
 BYTE   W01
 BYTE   W02
 BYTE   W01
 BYTE   W02
 BYTE   W01
 BYTE   W02
 BYTE   W01
 BYTE   W02
// 029   ----------------------------------------
 BYTE   W18
 BYTE   W06
 BYTE   W09
 BYTE   W09
 BYTE   W06
 BYTE   W06
 BYTE   W06
 BYTE   W06
 BYTE   W06
 BYTE   W01
 BYTE   W06
 BYTE   W05
 BYTE   W04
 BYTE   W06
 BYTE   W02
// 030   ----------------------------------------
 BYTE   W01
 BYTE   W05
 BYTE   W03
 BYTE   W03
 BYTE   W01
 BYTE   W02
 BYTE   W01
 BYTE   W02
 BYTE   W01
 BYTE   W02
 BYTE   W01
 BYTE   W02
 BYTE   W01
 BYTE   W02
 BYTE   W01
 BYTE   W02
 BYTE   W01
 BYTE   W02
 BYTE   W01
 BYTE   W02
 BYTE   W01
 BYTE   W02
 BYTE   W01
 BYTE   W02
 BYTE   W01
 BYTE   W02
 BYTE   W01
 BYTE   W02
 BYTE   EOT
 BYTE   W24
 BYTE   W24
// 031   ----------------------------------------
 BYTE   W24
 BYTE   W24
 BYTE   W24
 BYTE   W24
// 032   ----------------------------------------
 BYTE   W24
 BYTE   W24
 BYTE   W24
 BYTE   W24
// 033   ----------------------------------------
 BYTE   W24
 BYTE   W24
 BYTE   W24
 BYTE   W24
// 034   ----------------------------------------
 BYTE   W24
 BYTE   W24
 BYTE   W24
 BYTE   W24
// 035   ----------------------------------------
 BYTE   W24
 BYTE   W24
 BYTE   W24
 BYTE   W24
// 036   ----------------------------------------
 BYTE   W24
 BYTE   W24
 BYTE   W24
 BYTE   W24
// 037   ----------------------------------------
 BYTE   W24
 BYTE   W16
 BYTE   GoTo
  POIN2 Label_11_0158C6F2
// 038   ----------------------------------------
 BYTE   W08
 BYTE   FINE

//**************** Track 13 (Midi-Chn.12) ****************//

PokemonMDExplorersKecleonShopRandomWizard_013:
// 000   ----------------------------------------
 BYTE   KEYSH   PokemonMDExplorersKecleonShopRandomWizard_key+0
 BYTE   VOICE   127
 BYTE   PAN   c_v+0
 BYTE   VOL   23*PokemonMDExplorersKecleonShopRandomWizard_mvl/mxv
 BYTE   Cs0
 BYTE   PAN   c_v+0
 BYTE   VOL   23*PokemonMDExplorersKecleonShopRandomWizard_mvl/mxv
 BYTE   PAN   c_v+26
 BYTE   BEND   c_v+0
 BYTE   N08  Ds3  v127
 BYTE   N08  An3  v088
 BYTE   W16
 BYTE   Ds2  v056
 BYTE   W08
Label_12_0158C86B:
 BYTE   N08  Ds2  v060
 BYTE   W16
 BYTE   Ds2  v076
 BYTE   N08  Ds3  v127
 BYTE   W08
 BYTE   PEND 
Label_12_0158C876:
 BYTE   N08  Ds3  v127
 BYTE   W16
 BYTE   Ds2  v064
 BYTE   W08
 BYTE   PEND 
Label_12_0158C87E:
 BYTE   N08  En3  v127
 BYTE   N08  An3  v088
 BYTE   W08
 BYTE   Ds2  v060
 BYTE   W08
 BYTE   Ds2  v044
 BYTE   W08
 BYTE   PEND 
// 001   ----------------------------------------
Label_12_0158C88C:
 BYTE   N08  Ds3  v127
 BYTE   N08  An3  v088
 BYTE   W16
 BYTE   Ds2  v056
 BYTE   N08  Ds3  v127
 BYTE   W08
 BYTE   PEND 
 BYTE   PATT
  POIN2 Label_12_0158C86B
 BYTE   PATT
  POIN2 Label_12_0158C876
// 002   ----------------------------------------
Label_12_0158C8A4:
 BYTE   N08  En3  v127
 BYTE   N08  An3  v088
 BYTE   W16
 BYTE   Ds2  v044
 BYTE   W08
 BYTE   PEND 
Label_12_0158C8AF:
 BYTE   N08  Ds3  v127
 BYTE   N08  An3  v088
 BYTE   W16
 BYTE   Ds2  v056
 BYTE   W08
 BYTE   PEND 
 BYTE   PATT
  POIN2 Label_12_0158C86B
 BYTE   PATT
  POIN2 Label_12_0158C876
 BYTE   PATT
  POIN2 Label_12_0158C87E
 BYTE   PATT
  POIN2 Label_12_0158C88C
 BYTE   PATT
  POIN2 Label_12_0158C86B
 BYTE   PATT
  POIN2 Label_12_0158C876
 BYTE   PATT
  POIN2 Label_12_0158C8A4
// 003   ----------------------------------------
Label_12_0158C8DD:
 BYTE   PATT
  POIN2 Label_12_0158C8AF
 BYTE   PATT
  POIN2 Label_12_0158C86B
 BYTE   PATT
  POIN2 Label_12_0158C876
 BYTE   PATT
  POIN2 Label_12_0158C87E
 BYTE   PATT
  POIN2 Label_12_0158C88C
 BYTE   PATT
  POIN2 Label_12_0158C86B
 BYTE   PATT
  POIN2 Label_12_0158C876
 BYTE   PATT
  POIN2 Label_12_0158C8A4
 BYTE   PATT
  POIN2 Label_12_0158C8AF
 BYTE   PATT
  POIN2 Label_12_0158C86B
 BYTE   PATT
  POIN2 Label_12_0158C876
 BYTE   PATT
  POIN2 Label_12_0158C87E
 BYTE   PATT
  POIN2 Label_12_0158C88C
 BYTE   PATT
  POIN2 Label_12_0158C86B
 BYTE   PATT
  POIN2 Label_12_0158C876
 BYTE   PATT
  POIN2 Label_12_0158C8A4
 BYTE   PATT
  POIN2 Label_12_0158C8AF
 BYTE   PATT
  POIN2 Label_12_0158C86B
 BYTE   PATT
  POIN2 Label_12_0158C876
 BYTE   PATT
  POIN2 Label_12_0158C87E
 BYTE   PATT
  POIN2 Label_12_0158C88C
 BYTE   PATT
  POIN2 Label_12_0158C86B
 BYTE   PATT
  POIN2 Label_12_0158C876
 BYTE   PATT
  POIN2 Label_12_0158C8A4
 BYTE   PATT
  POIN2 Label_12_0158C8AF
 BYTE   PATT
  POIN2 Label_12_0158C86B
 BYTE   PATT
  POIN2 Label_12_0158C876
// 004   ----------------------------------------
Label_12_0158C964:
 BYTE   N08  En3  v127
 BYTE   N08  An3  v088
 BYTE   W08
 BYTE   Ds2  v060
 BYTE   W08
 BYTE   Ds3  v127
 BYTE   N08  An3  v088
 BYTE   W08
 BYTE   PEND 
Label_12_0158C975:
 BYTE   N08  Ds2  v044
 BYTE   W08
 BYTE   Ds2  v056
 BYTE   W08
 BYTE   Ds3  v127
 BYTE   N08  An3  v088
 BYTE   W08
 BYTE   PEND 
Label_12_0158C983:
 BYTE   N08  Ds3  v127
 BYTE   N08  An3  v088
 BYTE   W08
 BYTE   Ds2  v060
 BYTE   W08
 BYTE   En3  v127
 BYTE   N08  An3  v088
 BYTE   W08
 BYTE   PEND 
Label_12_0158C994:
 BYTE   N08  Ds3  v127
 BYTE   N08  An3  v088
 BYTE   N12  Gs4  v127
 BYTE   W16
 BYTE   N08  Ds2  v064
 BYTE   N08  Gs4  v127
 BYTE   W08
 BYTE   PEND 
// 005   ----------------------------------------
Label_12_0158C9A6:
 BYTE   N08  Ds2  v084
 BYTE   N08  En3  v127
 BYTE   N72  An4
 BYTE   W16
 BYTE   N08  Ds2  v048
 BYTE   W08
 BYTE   PEND 
 BYTE   PATT
  POIN2 Label_12_0158C8AF
 BYTE   PATT
  POIN2 Label_12_0158C86B
 BYTE   PATT
  POIN2 Label_12_0158C876
 BYTE   PATT
  POIN2 Label_12_0158C87E
 BYTE   PATT
  POIN2 Label_12_0158C88C
 BYTE   PATT
  POIN2 Label_12_0158C86B
 BYTE   PATT
  POIN2 Label_12_0158C876
 BYTE   PATT
  POIN2 Label_12_0158C8A4
 BYTE   PATT
  POIN2 Label_12_0158C8AF
 BYTE   PATT
  POIN2 Label_12_0158C86B
 BYTE   PATT
  POIN2 Label_12_0158C876
 BYTE   PATT
  POIN2 Label_12_0158C87E
 BYTE   PATT
  POIN2 Label_12_0158C88C
 BYTE   PATT
  POIN2 Label_12_0158C86B
 BYTE   PATT
  POIN2 Label_12_0158C876
 BYTE   PATT
  POIN2 Label_12_0158C8A4
 BYTE   PATT
  POIN2 Label_12_0158C8AF
 BYTE   PATT
  POIN2 Label_12_0158C86B
 BYTE   PATT
  POIN2 Label_12_0158C876
 BYTE   PATT
  POIN2 Label_12_0158C87E
 BYTE   PATT
  POIN2 Label_12_0158C88C
 BYTE   PATT
  POIN2 Label_12_0158C86B
 BYTE   PATT
  POIN2 Label_12_0158C876
 BYTE   PATT
  POIN2 Label_12_0158C8A4
 BYTE   PATT
  POIN2 Label_12_0158C8AF
 BYTE   PATT
  POIN2 Label_12_0158C86B
 BYTE   PATT
  POIN2 Label_12_0158C876
 BYTE   PATT
  POIN2 Label_12_0158C964
 BYTE   PATT
  POIN2 Label_12_0158C975
 BYTE   PATT
  POIN2 Label_12_0158C983
 BYTE   PATT
  POIN2 Label_12_0158C994
 BYTE   PATT
  POIN2 Label_12_0158C9A6
// 006   ----------------------------------------
Label_12_0158CA54:
 BYTE   N08  Ds3  v127
 BYTE   N08  An3  v092
 BYTE   W16
 BYTE   Ds2  v076
 BYTE   W08
 BYTE   PEND 
Label_12_0158CA5F:
 BYTE   N08  An3  v092
 BYTE   W16
 BYTE   Ds2  v076
 BYTE   N08  Ds3  v127
 BYTE   W08
 BYTE   PEND 
 BYTE   PATT
  POIN2 Label_12_0158CA54
// 007   ----------------------------------------
Label_12_0158CA6F:
 BYTE   N08  En3  v127
 BYTE   N08  An3  v088
 BYTE   W08
 BYTE   Ds2  v076
 BYTE   W08
 BYTE   Ds2  v072
 BYTE   W08
 BYTE   PEND 
Label_12_0158CA7D:
 BYTE   N08  Ds3  v127
 BYTE   N08  An3  v092
 BYTE   W16
 BYTE   Ds2  v076
 BYTE   N08  Ds3  v127
 BYTE   W08
 BYTE   PEND 
 BYTE   PATT
  POIN2 Label_12_0158CA5F
 BYTE   PATT
  POIN2 Label_12_0158CA54
 BYTE   PATT
  POIN2 Label_12_0158CA6F
 BYTE   PATT
  POIN2 Label_12_0158CA54
 BYTE   PATT
  POIN2 Label_12_0158CA5F
 BYTE   PATT
  POIN2 Label_12_0158CA54
 BYTE   PATT
  POIN2 Label_12_0158CA6F
// 008   ----------------------------------------
 BYTE   N08  Ds3  v127
 BYTE   N08  An3  v092
 BYTE   W16
 BYTE   Ds2  v052
 BYTE   N08  Ds3  v127
 BYTE   W08
 BYTE   An3  v092
 BYTE   W16
 BYTE   Ds2  v052
 BYTE   N08  Ds3  v127
 BYTE   W08
 BYTE   N08
 BYTE   N08  An3  v092
 BYTE   W24
 BYTE   En3  v127
 BYTE   W24
 BYTE   PATT
  POIN2 Label_12_0158CA54
 BYTE   PATT
  POIN2 Label_12_0158CA5F
 BYTE   PATT
  POIN2 Label_12_0158CA54
 BYTE   PATT
  POIN2 Label_12_0158CA6F
 BYTE   PATT
  POIN2 Label_12_0158CA7D
 BYTE   PATT
  POIN2 Label_12_0158CA5F
 BYTE   PATT
  POIN2 Label_12_0158CA54
 BYTE   PATT
  POIN2 Label_12_0158CA6F
 BYTE   PATT
  POIN2 Label_12_0158CA54
 BYTE   PATT
  POIN2 Label_12_0158CA5F
 BYTE   PATT
  POIN2 Label_12_0158CA54
 BYTE   PATT
  POIN2 Label_12_0158CA6F
 BYTE   PATT
  POIN2 Label_12_0158CA7D
 BYTE   PATT
  POIN2 Label_12_0158CA5F
 BYTE   PATT
  POIN2 Label_12_0158CA54
 BYTE   PATT
  POIN2 Label_12_0158CA6F
 BYTE   PATT
  POIN2 Label_12_0158CA54
 BYTE   PATT
  POIN2 Label_12_0158CA5F
 BYTE   PATT
  POIN2 Label_12_0158CA54
 BYTE   PATT
  POIN2 Label_12_0158CA6F
 BYTE   PATT
  POIN2 Label_12_0158CA7D
 BYTE   PATT
  POIN2 Label_12_0158CA5F
 BYTE   PATT
  POIN2 Label_12_0158CA54
 BYTE   PATT
  POIN2 Label_12_0158CA6F
 BYTE   PATT
  POIN2 Label_12_0158CA54
 BYTE   PATT
  POIN2 Label_12_0158CA5F
 BYTE   PATT
  POIN2 Label_12_0158CA54
 BYTE   PATT
  POIN2 Label_12_0158CA6F
 BYTE   PATT
  POIN2 Label_12_0158CA7D
 BYTE   PATT
  POIN2 Label_12_0158CA5F
 BYTE   PATT
  POIN2 Label_12_0158CA54
 BYTE   PATT
  POIN2 Label_12_0158CA6F
// 009   ----------------------------------------
 BYTE   N08  Ds3  v127
 BYTE   N08  An3  v088
 BYTE   W24
 BYTE   W16
 BYTE   Ds3  v127
 BYTE   W08
 BYTE   N08
 BYTE   W24
 BYTE   En3
 BYTE   W24
// 010   ----------------------------------------
 BYTE   Ds2  v080
 BYTE   N08  Ds3  v127
 BYTE   W16
 BYTE   Ds2  v088
 BYTE   N08  Ds3  v127
 BYTE   W08
 BYTE   Ds2  v092
 BYTE   W16
 BYTE   Ds2  v096
 BYTE   N08  Ds3  v127
 BYTE   W08
 BYTE   N08
 BYTE   N08  An3  v088
 BYTE   W16
 BYTE   Ds2  v080
 BYTE   N08  Gs4  v127
 BYTE   W08
 BYTE   Ds2  v100
 BYTE   N08  En3  v127
 BYTE   N24  An4
 BYTE   W16
 BYTE   N08  Ds2  v080
 BYTE   W08
// 011   ----------------------------------------
Label_12_0158CBA7:
 BYTE   N08  An3  v088
 BYTE   W16
 BYTE   Ds2  v068
 BYTE   W08
 BYTE   PEND 
Label_12_0158CBAF:
 BYTE   N08  Ds2  v076
 BYTE   W16
 BYTE   N08
 BYTE   W08
 BYTE   PEND 
Label_12_0158CBB6:
 BYTE   N08  An3  v088
 BYTE   W16
 BYTE   Ds2  v084
 BYTE   W08
 BYTE   PEND 
Label_12_0158CBBE:
 BYTE   N08  An3  v088
 BYTE   W16
 BYTE   Ds2  v076
 BYTE   W08
 BYTE   PEND 
// 012   ----------------------------------------
Label_12_0158CBC6:
 BYTE   N08  An3  v088
 BYTE   W16
 BYTE   Ds2  v076
 BYTE   N07  Gs4  v127
 BYTE   W07
 BYTE   N24  An4
 BYTE   W01
 BYTE   PEND 
 BYTE   N08  Ds2  v048
 BYTE   W08
 BYTE   Ds2  v060
 BYTE   W08
 BYTE   Ds2  v080
 BYTE   W08
 BYTE   PATT
  POIN2 Label_12_0158CBA7
 BYTE   PATT
  POIN2 Label_12_0158CBAF
 BYTE   PATT
  POIN2 Label_12_0158CBB6
 BYTE   PATT
  POIN2 Label_12_0158CBC6
 BYTE   PATT
  POIN2 Label_12_0158CBBE
// 013   ----------------------------------------
 BYTE   N08  Ds2  v048
 BYTE   W08
 BYTE   Ds2  v060
 BYTE   W08
 BYTE   GoTo
  POIN2 Label_12_0158C8DD
// 014   ----------------------------------------
 BYTE   N08  Ds2  v080
 BYTE   W08
 BYTE   FINE

//******************************************************//
	ALIGN 4

PokemonMDExplorersKecleonShopRandomWizard:
	BYTE	13	// NumTrks
	BYTE	0	// NumBlks
	BYTE	PokemonMDExplorersKecleonShopRandomWizard_pri	// Priority
	BYTE	PokemonMDExplorersKecleonShopRandomWizard_rev	// Reverb.
    
	POIN2	PokemonMDExplorersKecleonShopRandomWizard_grp
    
	POIN2	PokemonMDExplorersKecleonShopRandomWizard_001
	POIN2	PokemonMDExplorersKecleonShopRandomWizard_002
	POIN2	PokemonMDExplorersKecleonShopRandomWizard_003
	POIN2	PokemonMDExplorersKecleonShopRandomWizard_004
	POIN2	PokemonMDExplorersKecleonShopRandomWizard_005
	POIN2	PokemonMDExplorersKecleonShopRandomWizard_006
	POIN2	PokemonMDExplorersKecleonShopRandomWizard_007
	POIN2	PokemonMDExplorersKecleonShopRandomWizard_008
	POIN2	PokemonMDExplorersKecleonShopRandomWizard_009
	POIN2	PokemonMDExplorersKecleonShopRandomWizard_010
	POIN2	PokemonMDExplorersKecleonShopRandomWizard_011
	POIN2	PokemonMDExplorersKecleonShopRandomWizard_012
	POIN2	PokemonMDExplorersKecleonShopRandomWizard_013

	
